<svg xmlns="http://www.w3.org/2000/svg" viewBox="0 0 460.4 378.6"><defs><style>.cls-1{isolation:isolate;}.cls-2{fill:#93d500;}.cls-3,.cls-42,.cls-43{fill:#fff;}.cls-4{fill:none;stroke:#93d500;stroke-linecap:round;stroke-miterlimit:10;stroke-width:2px;}.cls-5{fill:#dcdcdc;}.cls-6{fill:#888588;}.cls-7{fill:#cfcdcf;}.cls-8{fill:#bab7bb;}.cls-9{fill:#e0f7fa;}.cls-10{fill:#ff7043;}.cls-11{fill:#e0e0e0;}.cls-12{fill:#ff8a65;}.cls-13{fill:#fafafa;mix-blend-mode:soft-light;}.cls-14{fill:#66bb6a;}.cls-15{fill:#81c784;}.cls-16{fill:#26a69a;}.cls-17{fill:#455a64;}.cls-18{fill:#90a4ae;}.cls-19{fill:#bdbdbd;}.cls-20{fill:#eee;}.cls-21{fill:#78909c;}.cls-22{fill:#4db6ac;}.cls-23{fill:#546e7a;}.cls-24{fill:#ffd54f;}.cls-25{fill:#64b5f6;}.cls-26{fill:#ffa726;}.cls-26,.cls-41{mix-blend-mode:multiply;}.cls-27{fill:#a0d5a3;}.cls-28{fill:#facfa6;}.cls-29{fill:#dddee2;}.cls-30{fill:#b3b3b3;}.cls-31{fill:#f8d09c;}.cls-32{fill:#facfc8;}.cls-33{fill:#e5c1bb;}.cls-34{fill:#513e40;}.cls-35{fill:#e6b580;}.cls-36{fill:#ac8a78;}.cls-37{fill:#2a1c1c;}.cls-38{fill:#784f39;}.cls-39{fill:#402b1e;}.cls-40,.cls-42,.cls-43{mix-blend-mode:overlay;}.cls-40,.cls-41{opacity:0.4;}.cls-42{opacity:0.3;}.cls-44{opacity:0.1;}.cls-45{fill:#3e4040;}.cls-46{fill:#e2551c;}.cls-47{fill:#ab4412;}.cls-48{fill:#d1d1d1;}.cls-49{fill:#120e0e;opacity:0.2;}.cls-50{fill:#335e35;}.cls-51{fill:#003240;}.cls-52{opacity:0.6;}.cls-53{fill:#f6c086;}.cls-54{fill:#00877a;}</style></defs><g class="cls-1"><g id="Capa_2" data-name="Capa 2"><g id="Capa_1-2" data-name="Capa 1"><path class="cls-2" d="M83.28,184.06a30.74,30.74,0,1,1,21.74-9A30.58,30.58,0,0,1,83.28,184.06Z"/><path class="cls-3" d="M83.28,124.05a29.26,29.26,0,1,1-20.69,8.57,29.17,29.17,0,0,1,20.69-8.57m0-3a32.26,32.26,0,1,0,22.8,9.45,32,32,0,0,0-22.8-9.45Z"/><line class="cls-4" x1="103.96" y1="173.99" x2="117.57" y2="187.6"/><path class="cls-3" d="M80.65,144.08a2.25,2.25,0,1,1,4.5,0v17a2.25,2.25,0,1,1-4.5,0Z"/><path class="cls-2" d="M372,162.66a30.76,30.76,0,0,1-12.44-58.9A30.43,30.43,0,0,1,372,101.13a30.77,30.77,0,0,1,0,61.53Z"/><path class="cls-3" d="M372,102.63a29.27,29.27,0,1,1-11.81,2.5,29.26,29.26,0,0,1,11.81-2.5m0-3a32.26,32.26,0,1,0,29.52,19.23A32,32,0,0,0,372,99.63Z"/><line class="cls-4" x1="345.26" y1="143.71" x2="327.66" y2="151.49"/><path class="cls-3" d="M372.5,120.7c2.19,0,6.45.72,6.45,3.36a1.9,1.9,0,0,1-1.86,2c-1.23,0-2.07-1-4.59-1-3.72,0-5.64,3.15-5.64,6.81s1.95,6.63,5.64,6.63c2.52,0,3.54-1.26,4.77-1.26a2.11,2.11,0,0,1,2,2c0,2.88-4.53,3.54-6.75,3.54-6.09,0-10.32-4.83-10.32-11S366.38,120.7,372.5,120.7Z"/><path class="cls-2" d="M366.89,320.62a30.76,30.76,0,1,1,30.75-30.76A30.8,30.8,0,0,1,366.89,320.62Z"/><path class="cls-3" d="M366.89,260.6a29.26,29.26,0,1,1-29.26,29.26,29.26,29.26,0,0,1,29.26-29.26m0-3a32.26,32.26,0,1,0,32.25,32.26,32.29,32.29,0,0,0-32.25-32.26Z"/><line class="cls-4" x1="337.63" y1="289.86" x2="240.35" y2="289.86"/><path class="cls-3" d="M358.1,282a2.81,2.81,0,0,1-.21-1.11,2.24,2.24,0,0,1,4.35-.69l4.65,12.48,4.65-12.48a2.24,2.24,0,0,1,4.35.69,2.81,2.81,0,0,1-.21,1.11l-6.57,16.71a2.29,2.29,0,0,1-4.44,0Z"/><polygon class="cls-5" points="193.06 186.78 197.09 184.44 231.3 204.19 227.27 206.53 193.06 186.78"/><polygon class="cls-6" points="227.18 249.42 227.27 206.53 193.06 186.78 193.11 229.75 227.18 249.42"/><polygon class="cls-7" points="227.18 249.42 231.2 247.08 231.3 204.19 227.27 206.53 227.18 249.42"/><g class="cls-1"><polygon class="cls-5" points="60.87 252.82 95.06 272.55 228.11 206.04 193.86 186.27 60.87 252.82"/></g><polygon class="cls-7" points="228.11 206.04 95.06 272.53 95.06 277.23 228.05 210.68 228.11 206.04"/><polygon class="cls-7" points="95.06 277.23 60.87 257.5 60.87 252.82 95.06 272.56 95.06 277.23"/><polygon class="cls-5" points="57.65 254.72 61.68 252.38 95.89 272.14 91.87 274.48 57.65 254.72"/><polygon class="cls-8" points="91.77 312.06 91.87 274.48 57.65 254.72 57.69 292.38 91.77 312.06"/><polygon class="cls-7" points="91.77 312.06 95.8 309.71 95.89 272.14 91.87 274.48 91.77 312.06"/><ellipse class="cls-9" cx="95.55" cy="241.66" rx="17.97" ry="17.55"/><rect class="cls-9" x="89.93" y="204.39" width="11.88" height="37.58"/><path class="cls-10" d="M107.51,231.88H97.7a1.16,1.16,0,0,0-2.32,0H93.85a2.31,2.31,0,0,0-4.62,0h-5a14.74,14.74,0,0,0-3.72,9.78,15.36,15.36,0,0,0,30.72,0A14.79,14.79,0,0,0,107.51,231.88Z"/><path class="cls-9" d="M102.43,201.72h-13a1,1,0,0,0-1,1v.75a1,1,0,0,0,1,1h13a1,1,0,0,0,1-1v-.75A1,1,0,0,0,102.43,201.72Z"/><rect class="cls-11" x="89.93" y="204.39" width="11.88" height="1.31"/><path class="cls-12" d="M86.05,239A1.08,1.08,0,1,1,85,237.91,1.06,1.06,0,0,1,86.05,239Z"/><path class="cls-12" d="M93.86,251.28a1.06,1.06,0,1,0,1.08,1.06A1.07,1.07,0,0,0,93.86,251.28Z"/><path class="cls-12" d="M85.12,247.27a.66.66,0,1,0,.67.65A.67.67,0,0,0,85.12,247.27Z"/><path class="cls-12" d="M96.54,237.91a.65.65,0,1,0,.67.65A.66.66,0,0,0,96.54,237.91Z"/><path class="cls-12" d="M106.76,236a1.06,1.06,0,1,0,1.08,1.05A1.06,1.06,0,0,0,106.76,236Z"/><path class="cls-12" d="M102.46,241.66a1.92,1.92,0,1,0,2,1.92A1.94,1.94,0,0,0,102.46,241.66Z"/><path class="cls-13" d="M93.26,226.39c-1.57-1.53-5.69,0-9.22,3.47s-5.11,7.47-3.55,9,5.69,0,9.22-3.47S94.82,227.92,93.26,226.39Z"/><path class="cls-12" d="M100.25,229A1.28,1.28,0,1,1,99,227.74,1.26,1.26,0,0,1,100.25,229Z"/><path class="cls-12" d="M101.81,229.88a.54.54,0,1,0,.55.53A.54.54,0,0,0,101.81,229.88Z"/><path class="cls-12" d="M94.62,228.16a.6.6,0,0,0-.61.6.61.61,0,0,0,1.22,0A.6.6,0,0,0,94.62,228.16Z"/><rect class="cls-9" x="139.22" y="200.44" width="2.24" height="25.97" rx="0.8" transform="translate(-94.64 113.27) rotate(-33.59)"/><path class="cls-9" d="M133,204.36,108,220.92a1.58,1.58,0,0,0-.44,2.18l11.13,16.75a1.56,1.56,0,0,0,2.17.44l24.94-16.56Z"/><path class="cls-14" d="M133.77,222.31a1,1,0,0,0,.28-1.41,1,1,0,0,0-1.41-.28l-1.43-2.16a2,2,0,0,0-2.22-3.35l-2.6-3.91-15.67,10.4a1.37,1.37,0,0,0-.39,1.91l9.07,13.65a1.37,1.37,0,0,0,1.91.39L137,227.15Z"/><rect class="cls-11" x="127.32" y="213.8" width="23.25" height="1.1" transform="translate(240.64 -19.98) rotate(56.41)"/><path class="cls-15" d="M119.52,225.09a1.38,1.38,0,1,0-.39,1.91A1.38,1.38,0,0,0,119.52,225.09Z"/><path class="cls-15" d="M124.41,216.46a1.38,1.38,0,1,0-.39,1.91A1.38,1.38,0,0,0,124.41,216.46Z"/><path class="cls-15" d="M134.65,216.62a.62.62,0,0,0-.86-.18.62.62,0,1,0,.86.18Z"/><path class="cls-15" d="M133.71,218.64a.42.42,0,0,0-.58-.11.41.41,0,0,0-.12.58.42.42,0,0,0,.59.12A.43.43,0,0,0,133.71,218.64Z"/><path class="cls-15" d="M124.34,224.88a.69.69,0,1,0-.2,1A.68.68,0,0,0,124.34,224.88Z"/><path class="cls-15" d="M129.38,228.46a.7.7,0,0,0-1-.19.69.69,0,0,0,.77,1.15A.7.7,0,0,0,129.38,228.46Z"/><path class="cls-15" d="M113.78,222.69a.69.69,0,1,0-.19.95A.68.68,0,0,0,113.78,222.69Z"/><path class="cls-15" d="M119.77,233.19a.68.68,0,0,0-1-.19.67.67,0,0,0-.19.95.68.68,0,0,0,1,.2A.69.69,0,0,0,119.77,233.19Z"/><path class="cls-15" d="M131.61,221.7a.7.7,0,0,0-1-.19.69.69,0,1,0,1,.19Z"/><path class="cls-9" d="M148.77,190.85V223a4.16,4.16,0,0,0,8.31,0V190.85Z"/><path class="cls-16" d="M150.14,204.35V223a2.79,2.79,0,0,0,5.57,0V204.35Z"/><path class="cls-9" d="M148.42,188.94h9.09a.69.69,0,0,1,.69.69v.54a.68.68,0,0,1-.68.68h-9.09a.69.69,0,0,1-.69-.69v-.54A.68.68,0,0,1,148.42,188.94Z"/><rect class="cls-11" x="148.78" y="190.85" width="8.3" height="0.94"/><path class="cls-13" d="M150.27,192.55a.65.65,0,0,0-.64.65v29.3a.64.64,0,0,0,1.28,0V193.2A.65.65,0,0,0,150.27,192.55Z"/><rect class="cls-17" x="148.21" y="186.84" width="9.51" height="2.1" rx="0.67"/><path class="cls-18" d="M150.14,189v.61a.66.66,0,0,0,.66.65h4.26a.65.65,0,0,0,.65-.65V189Z"/><rect class="cls-19" x="151.11" y="194.4" width="3.72" height="0.46"/><rect class="cls-19" x="151.76" y="196.56" width="2.42" height="0.46"/><rect class="cls-19" x="151.76" y="198.72" width="2.42" height="0.46"/><rect class="cls-19" x="151.11" y="200.88" width="3.72" height="0.46"/><rect class="cls-19" x="151.76" y="203.04" width="2.42" height="0.46"/><rect class="cls-19" x="151.76" y="205.2" width="2.42" height="0.46"/><rect class="cls-19" x="151.11" y="207.36" width="3.72" height="0.46"/><rect class="cls-19" x="151.76" y="209.52" width="2.42" height="0.46"/><rect class="cls-19" x="151.76" y="211.68" width="2.42" height="0.46"/><rect class="cls-19" x="151.11" y="213.84" width="3.72" height="0.46"/><path class="cls-20" d="M190.77,163.68a.81.81,0,0,0-.81.81v50.68h1.62V164.49A.81.81,0,0,0,190.77,163.68Z"/><path class="cls-19" d="M190,173.56v5.71a2.79,2.79,0,0,0,1.62,0v-5.71a2.79,2.79,0,0,0-1.62,0Z"/><path class="cls-21" d="M199.88,174.62H177.57v1.62h22.31a.81.81,0,0,0,0-1.62Z"/><rect class="cls-9" x="168.08" y="170.78" width="7.2" height="23.32"/><path class="cls-9" d="M185.71,201.88l-10.43-21.29h-7.2l-10.37,21.29a1.86,1.86,0,0,0,1.67,2.68H184A1.86,1.86,0,0,0,185.71,201.88Z"/><path class="cls-16" d="M183.49,201.43l-7.37-15h-1.51a1.6,1.6,0,1,0-3.19,0h-1.58a.73.73,0,1,0-1.46,0h-1.12l-7.33,15.05a.86.86,0,0,0,.78,1.23h22A.86.86,0,0,0,183.49,201.43Z"/><rect class="cls-9" x="167.18" y="169.13" width="9.07" height="1.66" rx="0.59"/><rect class="cls-11" x="168.08" y="170.78" width="7.2" height="0.81"/><path class="cls-22" d="M166.75,193.51a.81.81,0,1,0,.81.81A.81.81,0,0,0,166.75,193.51Z"/><path class="cls-22" d="M174.78,195.9a1.76,1.76,0,1,0,1.75,1.75A1.75,1.75,0,0,0,174.78,195.9Z"/><path class="cls-22" d="M170.11,198.6a.41.41,0,1,0,0,.81.41.41,0,0,0,0-.81Z"/><path class="cls-22" d="M177.34,194.32a.41.41,0,1,0,.4.4A.4.4,0,0,0,177.34,194.32Z"/><path class="cls-22" d="M169,188.82a.41.41,0,1,0,.4.41A.41.41,0,0,0,169,188.82Z"/><path class="cls-22" d="M170.67,184.83a.41.41,0,0,0-.4.41.41.41,0,0,0,.81,0A.41.41,0,0,0,170.67,184.83Z"/><path class="cls-22" d="M163.43,200.22a.73.73,0,1,0,.73.73A.73.73,0,0,0,163.43,200.22Z"/><rect class="cls-23" x="155.9" y="215.17" width="47.57" height="1.67" rx="0.4"/><path class="cls-17" d="M157.52,216.85v.61a.58.58,0,0,0,.57.58h1.18a.58.58,0,0,0,.57-.58v-.61Z"/><path class="cls-17" d="M201.86,216.85v.61a.58.58,0,0,1-.58.58h-1.17a.58.58,0,0,1-.58-.58v-.61Z"/><path class="cls-20" d="M190.77,178.41a3,3,0,1,1,3-3A3,3,0,0,1,190.77,178.41Z"/><path class="cls-11" d="M169.41,174.07v3.2a1.17,1.17,0,0,1-1.18,1.17h-.15V172.9h.15A1.18,1.18,0,0,1,169.41,174.07Z"/><path class="cls-11" d="M175.28,172.9v5.54h-.16a1.17,1.17,0,0,1-1.17-1.17v-3.2a1.18,1.18,0,0,1,1.17-1.17Z"/><path class="cls-17" d="M166.93,172.54H169a.41.41,0,0,1,.41.41v4.72a.41.41,0,0,1-.41.41h-2.08a.17.17,0,0,1-.17-.17v-5.2A.17.17,0,0,1,166.93,172.54Z"/><path class="cls-17" d="M174.36,172.54h2.08a.17.17,0,0,1,.17.17v5.2a.17.17,0,0,1-.17.17h-2.07a.41.41,0,0,1-.41-.41V173A.41.41,0,0,1,174.36,172.54Z"/><rect class="cls-21" x="166.3" y="173.03" width="0.46" height="4.56"/><path class="cls-18" d="M164.82,173.94v2.75a.9.9,0,0,0,.91.9h1V173h-1A.91.91,0,0,0,164.82,173.94Z"/><path class="cls-18" d="M177.63,173h-1v4.56h1a.9.9,0,0,0,.91-.9v-2.75A.91.91,0,0,0,177.63,173Z"/><rect class="cls-21" x="176.61" y="173.03" width="0.46" height="4.56" transform="translate(353.67 350.62) rotate(180)"/><path class="cls-23" d="M190.77,177.42a2,2,0,1,1,2-2A2,2,0,0,1,190.77,177.42Z"/><path class="cls-24" d="M173.6,209.64c0-1-1.89-3.86-1.89-3.86s-1.88,2.82-1.88,3.86a1.89,1.89,0,0,0,3.77,0Z"/><path class="cls-19" d="M171.71,210.06h0a.15.15,0,0,0-.15.16v2.6a.15.15,0,0,0,.15.16h0a.16.16,0,0,0,.16-.16v-2.6A.16.16,0,0,0,171.71,210.06Z"/><path class="cls-9" d="M166,212.46h11.4a.36.36,0,0,1,.36.36v2.35a0,0,0,0,1,0,0H165.62a0,0,0,0,1,0,0v-2.35A.36.36,0,0,1,166,212.46Z"/><rect class="cls-25" x="166.43" y="213.79" width="10.5" height="1.02"/><path class="cls-26" d="M172.77,210.06a7.36,7.36,0,0,0-1.06-2.17,7.36,7.36,0,0,0-1.06,2.17,1.06,1.06,0,0,0,2.12,0Z"/><path class="cls-27" d="M147.36,232.93s1.18.59-.59,2.95-.59,4.72,2.36,3,1.77-4.13,5.9-3,7.07.59,8.84-2.36,4.72-4.72-3.54-5.9S145,220,146.77,223.49a12.75,12.75,0,0,1,1.18,7.08Z"/><path class="cls-27" d="M153,258a1.38,1.38,0,1,0,1.37,1.38A1.38,1.38,0,0,0,153,258Z"/><path class="cls-27" d="M148.51,249.13a1.38,1.38,0,1,0,1.37,1.38A1.38,1.38,0,0,0,148.51,249.13Z"/><path class="cls-27" d="M154.31,240.69a.62.62,0,0,0-.63.62.63.63,0,0,0,1.25,0A.62.62,0,0,0,154.31,240.69Z"/><path class="cls-27" d="M155.48,242.59a.43.43,0,1,0,0,.85.43.43,0,0,0,0-.85Z"/><path class="cls-27" d="M155.48,253.85a.69.69,0,1,0,.69.69A.69.69,0,0,0,155.48,253.85Z"/><path class="cls-27" d="M161.26,251.63a.69.69,0,1,0,.69.69A.69.69,0,0,0,161.26,251.63Z"/><path class="cls-27" d="M147.82,261.43a.69.69,0,1,0,.69.69A.69.69,0,0,0,147.82,261.43Z"/><path class="cls-27" d="M159.88,262.25a.69.69,0,1,0,.69.69A.69.69,0,0,0,159.88,262.25Z"/><path class="cls-27" d="M156.86,246a.69.69,0,0,0-.69.69.69.69,0,0,0,1.38,0A.69.69,0,0,0,156.86,246Z"/><path class="cls-27" d="M140.92,278.86a1.38,1.38,0,1,0,1.37,1.38A1.38,1.38,0,0,0,140.92,278.86Z"/><path class="cls-27" d="M136.43,270a1.38,1.38,0,1,0,1.37,1.38A1.38,1.38,0,0,0,136.43,270Z"/><path class="cls-27" d="M142.23,261.56a.62.62,0,1,0,.62.62A.63.63,0,0,0,142.23,261.56Z"/><path class="cls-27" d="M143.4,263.47a.42.42,0,0,0-.43.42.43.43,0,1,0,.85,0A.42.42,0,0,0,143.4,263.47Z"/><path class="cls-27" d="M143.4,274.73a.69.69,0,1,0,.69.68A.69.69,0,0,0,143.4,274.73Z"/><path class="cls-27" d="M149.18,272.51a.69.69,0,0,0-.69.69.69.69,0,0,0,1.38,0A.69.69,0,0,0,149.18,272.51Z"/><path class="cls-27" d="M135.74,282.31a.69.69,0,1,0,.69.69A.69.69,0,0,0,135.74,282.31Z"/><path class="cls-27" d="M147.8,283.13a.69.69,0,1,0,.69.69A.69.69,0,0,0,147.8,283.13Z"/><path class="cls-27" d="M144.78,266.91a.69.69,0,1,0,.69.69A.69.69,0,0,0,144.78,266.91Z"/><path class="cls-15" d="M127.36,198.16a1.38,1.38,0,1,0,1.38,1.38A1.37,1.37,0,0,0,127.36,198.16Z"/><path class="cls-15" d="M122.88,189.31a1.38,1.38,0,1,0,1.37,1.38A1.38,1.38,0,0,0,122.88,189.31Z"/><path class="cls-15" d="M128.67,180.87a.62.62,0,0,0-.62.62.62.62,0,0,0,.62.62.62.62,0,0,0,.62-.62A.61.61,0,0,0,128.67,180.87Z"/><path class="cls-15" d="M129.85,182.77a.43.43,0,1,0,.42.42A.42.42,0,0,0,129.85,182.77Z"/><path class="cls-15" d="M129.85,194a.69.69,0,1,0,.69.69A.69.69,0,0,0,129.85,194Z"/><path class="cls-15" d="M135.63,191.81a.69.69,0,1,0,.69.69A.69.69,0,0,0,135.63,191.81Z"/><path class="cls-15" d="M122.19,201.61a.69.69,0,1,0,.69.69A.69.69,0,0,0,122.19,201.61Z"/><path class="cls-15" d="M134.25,202.43a.69.69,0,1,0,.69.69A.69.69,0,0,0,134.25,202.43Z"/><path class="cls-15" d="M131.23,186.22a.68.68,0,0,0-.69.68.69.69,0,0,0,1.38,0A.68.68,0,0,0,131.23,186.22Z"/><path class="cls-28" d="M295.34,84.82a14.5,14.5,0,0,1,.24-5.55,34.63,34.63,0,0,0,4.88-4.68c-.69-1.47-2.73-.24-3.55.62-.21-1.34.93-3.39.85-4.72-.11-4.09-2.25-1.47-2.61-1.52-1.2-.16-4.25-.52-5.24.41s-.8,1.35-1,2.55a14.27,14.27,0,0,0,.46,3.87c.2,1.34,1.09,2.52,1.42,3.74.1.84-.61,4.37.1,5s2-.15,3-.23"/><path class="cls-29" d="M323.51,259a7.29,7.29,0,0,1,2.21,3.33c1.21,3.64,1.59,3.6-.41,4.52a44.83,44.83,0,0,1-11.45,2.7c-5.09.66-10.85,1.31-13.8.34-1-.32-1.07-1.41-.69-2.74s6.78-1.28,9.24-2.61c1.34-.71,3.79-2.24,3.62-2.74,0,.09.06.19.1.28Z"/><path class="cls-29" d="M263.88,260.41c.51-1.38,7.6-1,10.31-2.27a28.92,28.92,0,0,0,5.81-4.55l11-.21a12,12,0,0,1,1.23,3.26c.94,3.91,1.27,3.84-.92,4.72s-6.45,1.78-12.34,2.29c-5.43.46-11.57.85-14.61-.3C263.34,263,263.36,261.79,263.88,260.41Z"/><path class="cls-29" d="M278.29,253.71s2.28-35.08,4.66-44.42c1-3.84,2.91-11.74,4.77-19.38.94-3.84,1.86-7.61,2.65-10.77,4.9,7.07,11.79,10.8,13.26,18l-13.27,57.68-.39,0-11-1Z"/><path class="cls-3" d="M290.76,186.83c-.6-2.18-1-3.78-1.15-4.43-.25-1.29-1.25-3.45-1.42-4.71,11.72,2.68,24.78-.2,28.34-1.42a21.12,21.12,0,0,1-3.18,8.76c-1.19,1.91.65,29.69.65,29.69l9.87,44.14-.36.12-11.18,3.08c0-.09-.07-.19-.1-.28-9.26-26.72-10.34-33.38-13.14-44.07-.08-.28,0-.65-.09-1C297.2,210,292.9,194.64,290.76,186.83Z"/><path class="cls-30" d="M321.21,244.1c-.1.22-.19.45-.28.69C321,244.55,321.11,244.32,321.21,244.1Z"/><path class="cls-28" d="M292.3,137a31.16,31.16,0,0,1-4.22-16.84c.21-10.13-.47-18.21,1.08-28.16.56-3.62.91-8.41,2-9s4.74-.25,4.33,1.24c-1.29,4.61-1.11,15-.65,19.24.66,6.92,1.5,10,1.9,16.95.14,2.48,3,6,3,8.58-.13,3.07-.72,3.26-3.36,5.17-1.19,1-2.64,1.91-3.83,2.94"/><path class="cls-3" d="M292.56,137.15c1.19-1,2.64-1.92,3.83-2.94,2.64-1.91,3.23-2.1,3.36-5.17,0-2.6-1.69-5.38-1.84-7.86-.14-2.67-.68-5.75-1-8.2L288,111.41c0,2,.14,6.71.1,8.76A31.16,31.16,0,0,0,292.3,137"/><path class="cls-3" d="M314.93,138.71c.26-4.41,4.28-10.59-1-13.16-2.57-1.26-8.83-1.53-12.23-1.42a20.71,20.71,0,0,0-8.47,1.78L291.87,127c-2,7.08-3,15.26-2.93,17.94.27,10-.33,29.12-.87,33.12,9,1.59,7.38,2.9,16.61,1.15,5-.95,10.73-1.28,13.71-3.76C315.74,167,314.4,147.71,314.93,138.71Z"/><path class="cls-31" d="M298,115.7a23.57,23.57,0,0,1-.54,10.25l1.46.89c2.9,1.67,9.65-.44,10.73-1.74.22-.27-.53-2.06-.88-5.22-.49-4.59-.19-5.48-4.66-5.16-2.08.12-4.06.7-6.17.66"/><path class="cls-32" d="M287.74,78.06c-4.05,11.72-6.38,31.17-2.79,34.43,10.17,9.26,9.57,10.29,18.86,7.91a50.52,50.52,0,0,0,11.29-4.19c4.19-2.26,4-2.71,5.41-6.26.3-.74,8.74.12,9.91-9.64.58-4.93-3.13-6.71-7.37-6.35-.73-18.71-19.42-29.91-33.8-18.24"/><path class="cls-33" d="M312.17,79.14c10.7-4.63,13.94,3.31,10.88,14.82,4.24-.36,7.95,1.42,7.37,6.35-1.17,9.76-9.61,8.9-9.91,9.64-1.41,3.55-1.22,4-5.41,6.26a50.52,50.52,0,0,1-11.29,4.19s16-12.14,13-30.18c0,0-1-7.08-3.84-9.24l-.8-1.84"/><path class="cls-34" d="M313.81,92c-3.16-1-8.35-1.21-11.41-2.64-1.71-.8-1.58,1,.06,2a21.8,21.8,0,0,0,10.15,3.31c1.89.17,3-2.15,1.2-2.71Z"/><path class="cls-34" d="M284.08,89.34c2.45-.8,6.49-1,8.86-2.19,1.32-.64,1.24.79,0,1.6a17.13,17.13,0,0,1-7.87,2.7c-1.46.15-2.38-1.64-1-2.11Z"/><path class="cls-35" d="M325.85,104.3c-.7-.17-1.61-.7-2.31-.79a10.07,10.07,0,0,1,2.35-4.7c1.09-1.42.21-1.6-.28-.84-1.23,1.85-2.7,3.49-3.29,5.68a.74.74,0,0,0,.67.92,26.26,26.26,0,0,1,2.66.41C326.54,105.21,326.74,104.52,325.85,104.3Z"/><path class="cls-36" d="M293.26,106.8c.12-1.18,3.19-2.11,3-4.47-.05-1.34-.58-6.16-1.74-6.72,0,0,1.45,5.26.66,7.24-.65,1.45-3.27,2.56-3.27,4.1,0,1.2,3,2.8,4.09,2.18C296.51,108.84,293.47,108,293.26,106.8Z"/><path class="cls-37" d="M299.18,68.26c3.35-1,16-2,19.73-1.11,2.51.61,12.55,7,12.34,11.13l-1,2.14c2.55,2.75,3,9.55.11,17.29-.74-2.22-4.42-4.6-5.84-3.2-.38.32-1.36,3.1-2.34,5-.75,1.47-2.31-1.25-2.06-3,.28-1.94.77-3.94.93-5.06.28-1.92.75-7.22-1.14-9.75-3.06-4.3-13.82-2.15-17.85-2.82-5.08-.86-9.13-4.48-12.23-2.82C291.43,73.21,292.59,70.14,299.18,68.26Z"/><path class="cls-37" d="M308.17,68.11S298.77,67,294,69.71c0,0-3.91-.07-6.29-1.36,0,0-1.22-1.92-.92,1.39l.29,3.3a9.58,9.58,0,0,0,.34,4.67s10.29,5.35,20.29.56Z"/><path class="cls-3" d="M301.43,99.2a5,5,0,0,0,0,1.17c.1.43.22.67.11.85s-.18.28,0,.43.26,0,.46.11a8.8,8.8,0,0,0,4.07.79,12.82,12.82,0,0,0,4.63-1.18,3.45,3.45,0,0,0,1.06-.7c.37-.43,1.45-1,1.35-1.43A5.74,5.74,0,0,0,310.34,97c-1.24-.38-7.6-1.45-8.14-.54A5.57,5.57,0,0,0,301.43,99.2Z"/><path class="cls-38" d="M306.59,101.5a2.25,2.25,0,1,0-2.31-2.18A2.26,2.26,0,0,0,306.59,101.5Z"/><path class="cls-39" d="M306.48,97.86a1.4,1.4,0,0,1,.09,2.79,1.4,1.4,0,0,1-.09-2.79m-.05-1.71a3.1,3.1,0,1,0,3.19,3,3.12,3.12,0,0,0-3.19-3Z"/><g class="cls-40"><path class="cls-3" d="M303.42,99.34a3.1,3.1,0,1,0,6.2-.18s-1.8,1.63-3.05,1.67S303.42,99.34,303.42,99.34Z"/></g><g class="cls-40"><path class="cls-3" d="M303.79,99.68a2.81,2.81,0,0,0,5.49-.16,6.58,6.58,0,0,1-2.71,1.22A6.65,6.65,0,0,1,303.79,99.68Z"/></g><g class="cls-41"><path class="cls-38" d="M303.42,99.34c.06,1.72,1.34-1.61,3.06-1.67s3.19,3.2,3.14,1.49a3.1,3.1,0,0,0-6.2.18Z"/></g><path d="M305,99.3a1.58,1.58,0,1,0,3.15-.1,1.6,1.6,0,0,0-1.62-1.53A1.58,1.58,0,0,0,305,99.3Z"/><path class="cls-3" d="M303.65,98A1.17,1.17,0,0,0,306,98a1.16,1.16,0,0,0-1.2-1.14A1.17,1.17,0,0,0,303.65,98Z"/><path class="cls-3" d="M307.28,100c-.24.36,0,.92.56,1.28s1.16.36,1.4,0,0-.93-.57-1.29S307.51,99.62,307.28,100Z"/><path class="cls-42" d="M306.84,100.09c-.23.34,0,.92.56,1.27s1.17.37,1.4,0,0-.92-.56-1.28S307.07,99.74,306.84,100.09Z"/><path class="cls-43" d="M303.91,98.27a1.17,1.17,0,0,0,1.21,1.14,1.17,1.17,0,1,0-1.21-1.14Z"/><path class="cls-44" d="M310.74,101.37l1-1.93s-1.2-1.35-1.87-1.5-6.09-.89-6.89-.32-1.39.8-1.56,1.58c0,0-.11-2,.59-2.62s6.33-.54,8.47.47,2.71,1.85,2.66,2.23A11.36,11.36,0,0,1,310.74,101.37Z"/><path class="cls-45" d="M301.24,96.51c.05.29.32.44.36.72,0,0,0,0,0,.07a4.52,4.52,0,0,0-.18.89q0,.38,0,.57c0,.13,0,.21,0,.21l.05.23c0-.44,0-.31,0-.44a1.33,1.33,0,0,1,0-.26,2.8,2.8,0,0,1,1.41-2,19.67,19.67,0,0,1,5.67.33c.44.09.88.18,1.29.28l.22.05h.08l.07,0a1.91,1.91,0,0,1,.32.16c.21.12.43.27.63.41a14.19,14.19,0,0,1,1.16.91,5.42,5.42,0,0,1,.49.46l.09.11h0s0,0-.05.06a3.16,3.16,0,0,1-.39.43l-.37.38-.64.61-.56.54-.17.11s.27-.1.38-.16.29-.17.49-.3.47-.3.74-.51.29-.21.44-.33a3.5,3.5,0,0,0,.48-.41.64.64,0,0,0,.13-.15l0,0,0,0,0-.06,0,0a.19.19,0,0,0,0-.07v-.13h0l0,0a49952142069.86,49952142069.86,0,0,0,0-.1v0a.44.44,0,0,0-.06-.1.91.91,0,0,0-.11-.16,4.27,4.27,0,0,0-.5-.54,9.88,9.88,0,0,0-1.19-1,5.89,5.89,0,0,0-.73-.44,2.3,2.3,0,0,0-.42-.17s-4.1-1.26-6.51-1.08S301.18,96.17,301.24,96.51ZM313,99.19h0Z"/><path class="cls-3" d="M292.91,98.36a4.42,4.42,0,0,1-.18,1c-.14.34-.28.52-.21.68s.12.26,0,.35-.22,0-.39,0a7.4,7.4,0,0,1-3.44.12A10.77,10.77,0,0,1,285,99a2.76,2.76,0,0,1-.77-.72c-.26-.4-1.07-1-.94-1.35a4.91,4.91,0,0,1,2.61-1.51c1.06-.14,6.43-.21,6.76.61A4.88,4.88,0,0,1,292.91,98.36Z"/><path class="cls-38" d="M288.37,99.58a1.86,1.86,0,1,1,2.18-1.49A1.87,1.87,0,0,1,288.37,99.58Z"/><path class="cls-39" d="M288.94,96.62a1.16,1.16,0,0,1,.92,1.34,1.18,1.18,0,0,1-1.36.93,1.17,1.17,0,0,1-.92-1.36,1.15,1.15,0,0,1,1.36-.91m.25-1.4a2.58,2.58,0,1,0,2.06,3,2.58,2.58,0,0,0-2.06-3Z"/><g class="cls-40"><path class="cls-3" d="M291.25,98.23a2.58,2.58,0,0,1-5.07-1s1.28,1.57,2.3,1.76A5.61,5.61,0,0,0,291.25,98.23Z"/></g><g class="cls-40"><path class="cls-3" d="M290.91,98.46a2.11,2.11,0,0,1-2.59,1.4,2.09,2.09,0,0,1-1.89-2.25A5.33,5.33,0,0,0,288.49,99,5.53,5.53,0,0,0,290.91,98.46Z"/></g><g class="cls-41"><path class="cls-38" d="M291.25,98.23c-.27,1.4-.89-1.51-2.29-1.77s-3,2.21-2.78.82a2.58,2.58,0,1,1,5.07,1Z"/></g><path d="M290,98A1.31,1.31,0,1,1,289,96.46,1.32,1.32,0,0,1,290,98Z"/><path class="cls-3" d="M291.23,97.11a1,1,0,1,1-.77-1.14A1,1,0,0,1,291.23,97.11Z"/><path class="cls-3" d="M288,98.24c.14.32-.14.76-.63,1s-1,.15-1.15-.17.14-.75.63-1S287.86,97.92,288,98.24Z"/><path class="cls-42" d="M288.35,98.39c.15.32-.14.76-.63,1s-1,.15-1.14-.17.13-.76.62-1S288.21,98.08,288.35,98.39Z"/><path class="cls-43" d="M291,97.28a1,1,0,1,1-.78-1.14A1,1,0,0,1,291,97.28Z"/><path class="cls-44" d="M285,99l-.58-1.72a5.18,5.18,0,0,1,1.73-1c.57,0,5.12.05,5.7.61s1,.85,1.08,1.51c0,0,.34-1.63-.15-2.23s-5.13-1.25-7-.7-2.46,1.17-2.47,1.49A10.09,10.09,0,0,0,285,99Z"/><path class="cls-45" d="M291.33,95a19.57,19.57,0,0,0-5.48,0,2.22,2.22,0,0,0-.37.09,5.34,5.34,0,0,0-.64.26,8.36,8.36,0,0,0-1.11.67,4.66,4.66,0,0,0-.49.39.65.65,0,0,0-.11.12s0,0-.06.07h0l0,0,0,0v0h0l0,0s0,0,0,0v0a0,0,0,0,1,0,0,.13.13,0,0,1,0,.06v0l0,0s0,0,0,0l0,0,.08.14a2.78,2.78,0,0,0,.35.4,2.36,2.36,0,0,0,.31.32q.32.32.54.51c.15.14.28.24.37.31A2.13,2.13,0,0,0,285,99l-.12-.12-.39-.51-.45-.59-.26-.36c-.09-.12-.18-.26-.27-.4s0,0,0,0h0l.1-.07a3.94,3.94,0,0,1,.45-.31c.33-.21.7-.42,1.07-.61a6,6,0,0,1,.58-.25,1.31,1.31,0,0,1,.28-.09h.3l1.1-.07a16.29,16.29,0,0,1,4.71.47,2.36,2.36,0,0,1,.9,1.83c0,.09,0,.16,0,.22s0,0,0,.36l.07-.18a.72.72,0,0,1,0-.17c0-.1,0-.27.05-.48a3.23,3.23,0,0,0,0-.74s0-.05,0-.07c.07-.23.31-.31.39-.54S293.28,95.46,291.33,95Zm-7.9,1.86h0Z"/><path class="cls-46" d="M302.21,116.18c-.65,1.12-3-.32-5.84-.86s-5.55-.27-5.7-1.57,3-4.12,6.73-3.33S302.89,115.14,302.21,116.18Z"/><path class="cls-47" d="M296.4,113.31a8.26,8.26,0,0,0-3.09-.25c-.91.09-1.75.5-2.63.63,0,0,0,0,0,.06.15,1.3,2.85.9,5.7,1.57,1.94.36,3.61,1.12,4.69,1.25A10.67,10.67,0,0,0,296.4,113.31Z"/><path class="cls-3" d="M301.56,113.35a6.43,6.43,0,0,0-9.15-1.92Z"/><path class="cls-3" d="M303.8,84.38s1.09,1.87.31,2.47a1.06,1.06,0,0,1-1.41,0s-.82-.46.52-2.5l.31-.86Z"/><path class="cls-48" d="M303,85.13c-.35,1,.11,1.26.11,1.26a1,1,0,0,0,.86.28.85.85,0,0,1-1.08-.07S302.37,86.31,303,85.13Z"/><path class="cls-3" d="M316,84.73s1.31,2.22.37,3a1.26,1.26,0,0,1-1.68,0s-1-.55.62-3l.38-1Z"/><path class="cls-48" d="M315,85.62c-.43,1.19.12,1.51.12,1.51a1.19,1.19,0,0,0,1,.32,1,1,0,0,1-1.29-.08S314.28,87,315,85.62Z"/><path class="cls-49" d="M308.77,84.55s2,3.43.58,4.55a2,2,0,0,1-2.6-.06s-1.51-.85,1-4.62l.58-1.58Z"/><path class="cls-48" d="M307.38,85.91c-.66,1.86.19,2.35.19,2.35a1.8,1.8,0,0,0,1.6.49,1.53,1.53,0,0,1-2-.12S306.25,88.1,307.38,85.91Z"/><path class="cls-3" d="M309.18,84.37s2,3.43.58,4.55a2,2,0,0,1-2.61-.06s-1.5-.85,1-4.62l.57-1.58Z"/><path class="cls-48" d="M307.67,85.73c-.65,1.86.2,2.35.2,2.35a1.83,1.83,0,0,0,1.6.49,1.53,1.53,0,0,1-2-.12S306.55,87.92,307.67,85.73Z"/><path class="cls-49" d="M292.83,82.31s1.18,2,.34,2.65a1.14,1.14,0,0,1-1.51,0s-.88-.5.55-2.69l.35-.93Z"/><path class="cls-48" d="M292,83.11c-.39,1.08.11,1.36.11,1.36a1,1,0,0,0,.94.28.88.88,0,0,1-1.16-.06S291.37,84.38,292,83.11Z"/><path class="cls-3" d="M293.07,82.21s1.18,2,.34,2.65a1.14,1.14,0,0,1-1.52,0s-.87-.49.56-2.69l.34-.92Z"/><path class="cls-48" d="M292.19,83c-.38,1.08.12,1.37.12,1.37a1,1,0,0,0,.93.28.89.89,0,0,1-1.16-.07S291.54,84.27,292.19,83Z"/><path class="cls-28" d="M320.33,83a15.46,15.46,0,0,0-.11-6.07A37.18,37.18,0,0,1,315,71.68c.79-1.6,3-.19,3.87.78.26-1.46-.93-3.74-.8-5.19.22-4.48,2.51-1.55,2.89-1.6,1.33-.14,4.66-.46,5.73.6s.83,1.49,1,2.81c.14,1.59-.34,2.64-.6,4.23s-1.26,2.73-1.65,4c-.13.93.54,4.79-.25,5.45s-2.2-.21-3.26-.33"/><path class="cls-28" d="M301.37,139.35c-2.57-2.2,3.18-6.43,5.33-8.56l6.18-8.63c2.05-4.1,5.32-9.58,6.3-14,.8-3.86,1.89-21.22,1.61-26.3,4-1.35,3.52-.55,3.83-.3.68.58,3.78,22.38,2.16,29.39A37.79,37.79,0,0,1,324.5,119c-2.44,7.17-8.44,14.29-14.38,18.86C307.5,139.8,304.29,141.91,301.37,139.35Z"/><path class="cls-3" d="M315.79,115.37c-1.16,2.36-2.44,4.66-3.43,6.64l-6.18,8.62c-2.15,2.13-7.9,6.36-5.33,8.56,2.92,2.57,7,1.51,9.6-.42,5.94-4.58,12.2-12.23,14.64-19.4Z"/><path class="cls-50" d="M266,306.65c-8.3-.86-13.28-5.81-23.35-1.45-2.65,1.14-5.41,2-6.95,2.89-.33-.1-.68-.19-1.05-.28a2.05,2.05,0,0,0-1.23-.3c-3.25-.77-6.59-1.37-6.81-1.47-7.41-3.26-5-11.4-18.19-10s-12.45,8.18-28.35,9.55c-18.13,1.57-19.87,1.12-25,12.42-1.66,3.67-2.5,7.3-4.57,10.84a2.8,2.8,0,0,0,2.75,4.22c2.95-.38,5.93-.9,9-1,8.76-.3,15.64,3.66,24.29-1.76,1.91-1.19,4-2.2,5.33-3.11a2.64,2.64,0,0,1,2.13-.29,4.77,4.77,0,0,0,1.86-.11,2.74,2.74,0,0,1,3.16,1.67c1.45,4,1.07,8.42,10.58,8.67,12.79.33,14.65-6.66,30-5.94,17.53.82,19,1.51,28-9.31,2.87-3.47,5-7,8.16-10.3a2.8,2.8,0,0,0-2-4.77A70.52,70.52,0,0,1,266,306.65Z"/><path class="cls-14" d="M260.46,306.77c-7.41-.69-11.85-4.68-20.85-1.17-2.36.92-4.83,1.6-6.2,2.33l-.94-.22a2,2,0,0,0-1.1-.24c-2.91-.63-5.89-1.11-6.09-1.19-6.61-2.63-4.43-9.19-16.24-8.06s-11.12,6.6-25.32,7.71c-16.19,1.26-17.74.9-22.34,10-1.34,2.67-2.08,5.32-3.58,7.91a2.79,2.79,0,0,0,2.78,4.13c2.36-.29,4.76-.63,7.2-.71,7.81-.25,14,3,21.69-1.42,1.74-1,3.65-1.81,4.84-2.57a2.31,2.31,0,0,1,1.77-.19,4.21,4.21,0,0,0,1.56-.05,2.83,2.83,0,0,1,3.15,1.79c1.1,3.11,1.18,6.33,9.27,6.52,11.42.27,13.08-5.37,26.8-4.79,15.65.66,17,1.22,25-7.5,2.28-2.49,4-5,6.36-7.41a2.79,2.79,0,0,0-2-4.74A57.06,57.06,0,0,1,260.46,306.77Z"/><path class="cls-15" d="M169.85,285.72a1.38,1.38,0,1,0,1.38,1.38A1.38,1.38,0,0,0,169.85,285.72Z"/><path class="cls-14" d="M188.78,269a1.38,1.38,0,1,0,1.38,1.38A1.38,1.38,0,0,0,188.78,269Z"/><path class="cls-15" d="M165.36,276.87a1.38,1.38,0,1,0,1.38,1.38A1.38,1.38,0,0,0,165.36,276.87Z"/><path class="cls-15" d="M145.72,283.74a.62.62,0,0,0-.62.62.62.62,0,0,0,1.24,0A.62.62,0,0,0,145.72,283.74Z"/><path class="cls-15" d="M160.33,284.49a.43.43,0,0,0,0,.85.43.43,0,1,0,0-.85Z"/><path class="cls-15" d="M172.34,281.59a.69.69,0,1,0,.69.69A.69.69,0,0,0,172.34,281.59Z"/><path class="cls-15" d="M178.11,279.37a.69.69,0,1,0,.69.69A.68.68,0,0,0,178.11,279.37Z"/><path class="cls-15" d="M164.67,289.17a.69.69,0,1,0,.69.69A.69.69,0,0,0,164.67,289.17Z"/><path class="cls-15" d="M174.92,277.54a.69.69,0,1,0,0,1.38.69.69,0,0,0,0-1.38Z"/><path class="cls-15" d="M155.45,280.89a.68.68,0,0,0-.69.68.69.69,0,0,0,1.38,0A.68.68,0,0,0,155.45,280.89Z"/><path class="cls-28" d="M272.19,223a14,14,0,0,0,5-2.2,32.19,32.19,0,0,1,2.56-6.16c1.6.1,1.19,2.41.69,3.48,1.31-.28,2.8-2.07,4-2.47,3.8-1.36,2.17,1.55,2.34,1.86.57,1.05,2,3.72,1.49,5-.35,1.31-.95,1.22-2,1.79a13.48,13.48,0,0,1-3.72,1c-1.3.3-2.71-.1-4,0-.8.22-3.8,2.12-4.63,1.7s-.58-1.91-.84-2.83"/><path class="cls-51" d="M235.8,317.29c-.9-3.67-2-8-3-12.28-.92-3.78-1.84-7.51-2.61-10.63-4.84,7-11.65,10.66-13.09,17.76l2.26,9.82A40.06,40.06,0,0,0,235.8,317.29Z"/><path class="cls-51" d="M207.41,320.08a30,30,0,0,0,8.12,1.84,32.76,32.76,0,0,0,8.92-.59c1.86-6.75,4-14.53,5.35-19.36.59-2.15,1-3.73,1.13-4.38.25-1.26,1.24-3.4,1.41-4.64-11.56,2.64-24.47-.2-28-1.41a20.78,20.78,0,0,0,3.14,8.65C208.22,301.34,207.82,312,207.41,320.08Z"/><path class="cls-28" d="M225.25,244.43a31,31,0,0,0,17-2.13c9.25-3.82,16.93-6.09,25.53-11.07,3.13-1.82,7.4-3.85,7.53-5.08s-1.45-4.45-2.69-3.54c-3.78,2.84-13.45,6.4-17.46,7.47-6.61,1.87-9.78,2.2-16.28,4.32-2.33.76-6.58-.64-9,.33-2.78,1.21-2.74,1.81-3.56,4.93-.51,1.46-.81,3.12-1.32,4.58"/><path class="cls-3" d="M206,254.46c-.27-4.34-4.23-10.45,1-13,2.54-1.24,8.72-1.51,12.07-1.41a20.61,20.61,0,0,1,8.36,1.76l1.35,1.1c1.95,7,3,15.06,2.88,17.71-.26,9.88.33,28.75.86,32.69-8.92,1.57-7.28,2.86-16.38,1.14-5-.94-10.6-1.26-13.54-3.71C205.15,282.35,206.46,263.36,206,254.46Z"/><path class="cls-31" d="M222.67,231.75a23.6,23.6,0,0,0,.53,10.12l-1.43.88c-2.87,1.65-9.53-.44-10.59-1.72-.22-.26.51-2,.86-5.15.48-4.54.19-5.4,4.6-5.09,2.05.12,4,.69,6.09.65"/><path class="cls-28" d="M232.78,194.61c4,11.55,6.29,30.76,2.75,34-10,9.14-9.44,10.16-18.61,7.81a49.66,49.66,0,0,1-11.15-4.15c-4.13-2.22-3.94-2.66-5.34-6.18-.29-.72-8.62.13-9.77-9.51-.58-4.86,3.08-6.62,7.27-6.26.71-18.47,19.17-29.52,33.36-18"/><g class="cls-52"><path class="cls-53" d="M208.66,195.66c-10.56-4.56-13.75,3.28-10.73,14.64-4.19-.36-7.85,1.4-7.27,6.26,1.15,9.64,9.48,8.79,9.77,9.51,1.4,3.52,1.21,4,5.34,6.18a49.66,49.66,0,0,0,11.15,4.15s-15.77-12-12.83-29.8c0,0,.95-7,3.78-9.11l.79-1.83"/></g><path class="cls-34" d="M207.09,206.27c2.94-1.41,8-2.35,10.77-4.18,1.56-1,1.69.8.24,2a21.52,21.52,0,0,1-9.46,4.65c-1.82.43-3.26-1.67-1.55-2.48Z"/><path class="cls-34" d="M236.3,202.86c-2.54-.15-6.46.62-9,.13-1.43-.3-1,1.06.42,1.51a16.75,16.75,0,0,0,8.19.61c1.44-.22,1.87-2.16.4-2.25Z"/><path class="cls-35" d="M195.17,220.51a18.06,18.06,0,0,1,2.28-.78,10.05,10.05,0,0,0-2.33-4.65c-1.07-1.4-.21-1.58.29-.83,1.2,1.83,2.66,3.45,3.24,5.62a.73.73,0,0,1-.67.9,25.93,25.93,0,0,0-2.62.41C194.49,221.4,194.28,220.72,195.17,220.51Z"/><path class="cls-36" d="M227.34,223c-.13-1.17-3.16-2.07-3-4.41.06-1.32.58-6.08,1.73-6.62,0,0-1.43,5.18-.66,7.12.64,1.45,3.24,2.54,3.24,4.06,0,1.18-2.94,2.77-4,2.15C224.12,225,227.12,224.11,227.34,223Z"/><path class="cls-37" d="M221.49,184.93c-3.31-1-15.78-2-19.47-1.09-2.48.6-12.39,6.86-12.18,11l1,2.12c-2.52,2.72-3,9.43-.11,17.07.73-2.2,4.36-4.54,5.77-3.16.37.32,1.33,3.06,2.31,4.95.73,1.44,2.28-1.24,2-3-.28-1.9-.77-3.88-.92-5-.27-1.9-.74-7.13,1.12-9.63,3-4.24,13.65-2.12,17.62-2.79,5-.84,9-4.42,12.08-2.77C229.14,189.82,228,186.79,221.49,184.93Z"/><path class="cls-37" d="M212.62,184.78s9.28-1.06,14,1.58a16.44,16.44,0,0,0,6.21-1.35s1.21-1.89.91,1.37l-.29,3.27a9.34,9.34,0,0,1-.34,4.61s-10.16,5.28-20,.54Z"/><path class="cls-3" d="M219.26,215.47a5.27,5.27,0,0,1,0,1.16c-.1.41-.22.65-.12.83s.19.28,0,.42-.25.05-.46.12a8.64,8.64,0,0,1-4,.77,12.71,12.71,0,0,1-4.57-1.16,3.33,3.33,0,0,1-1.05-.69c-.37-.43-1.43-1-1.33-1.42a5.66,5.66,0,0,1,2.78-2.24c1.21-.38,7.49-1.44,8-.53A5.43,5.43,0,0,1,219.26,215.47Z"/><path class="cls-38" d="M214.17,217.74a2.22,2.22,0,1,1,2.29-2.15A2.21,2.21,0,0,1,214.17,217.74Z"/><path class="cls-39" d="M214.28,214.15a1.37,1.37,0,1,1-.08,2.74,1.37,1.37,0,0,1,.08-2.74m.05-1.69a3.06,3.06,0,1,0,3,3.15,3.07,3.07,0,0,0-3-3.15Z"/><g class="cls-40"><path class="cls-3" d="M217.3,215.61a3.06,3.06,0,1,1-6.12-.18s1.78,1.61,3,1.65S217.3,215.61,217.3,215.61Z"/></g><g class="cls-40"><path class="cls-3" d="M216.94,216a2.77,2.77,0,0,1-5.42-.17,6.38,6.38,0,0,0,2.67,1.2A6.48,6.48,0,0,0,216.94,216Z"/></g><g class="cls-41"><path class="cls-38" d="M217.3,215.61c-.05,1.7-1.32-1.59-3-1.65s-3.14,3.16-3.1,1.47a3.06,3.06,0,0,1,6.12.18Z"/></g><path d="M215.8,215.56a1.56,1.56,0,1,1-1.52-1.6A1.56,1.56,0,0,1,215.8,215.56Z"/><path class="cls-3" d="M217.08,214.31a1.16,1.16,0,0,1-1.19,1.12,1.16,1.16,0,0,1,.06-2.31A1.16,1.16,0,0,1,217.08,214.31Z"/><path class="cls-3" d="M213.5,216.23c.22.35,0,.91-.56,1.26s-1.15.36-1.38,0,0-.91.56-1.27S213.27,215.88,213.5,216.23Z"/><path class="cls-42" d="M213.93,216.34c.23.34,0,.91-.56,1.26s-1.15.36-1.38,0,0-.9.55-1.26S213.7,216,213.93,216.34Z"/><path class="cls-43" d="M216.81,214.55a1.14,1.14,0,0,1-1.18,1.12,1.16,1.16,0,1,1,.06-2.31A1.15,1.15,0,0,1,216.81,214.55Z"/><path class="cls-44" d="M210.08,217.61l-1-1.9s1.18-1.34,1.84-1.48,6-.88,6.8-.33,1.38.8,1.54,1.57c0,0,.12-2-.57-2.59s-6.26-.54-8.37.47-2.67,1.82-2.62,2.2A11.35,11.35,0,0,0,210.08,217.61Z"/><path class="cls-45" d="M216.81,211.81c-2.37-.18-6.43,1.07-6.43,1.07a2.53,2.53,0,0,0-.42.18c-.25.13-.48.27-.71.42a9.72,9.72,0,0,0-1.17,1,5,5,0,0,0-.5.53,1.67,1.67,0,0,1-.12.16l-.05.09v0s0,0,0,.05a.08.08,0,0,0,0,0v.06s0,0,0,.05v.06s0,.05,0,.07l0,0,0,0,0,0,0,.05a.86.86,0,0,0,.13.14,3.44,3.44,0,0,0,.47.41c.15.12.29.23.44.33s.52.36.72.49l.49.3a2.46,2.46,0,0,0,.38.16l-.17-.11-.55-.52c-.17-.18-.39-.38-.63-.61l-.37-.38a3.81,3.81,0,0,1-.39-.42l-.05-.06h0a.39.39,0,0,1,.08-.1,4.35,4.35,0,0,1,.49-.46c.35-.3.73-.6,1.14-.89a6,6,0,0,1,.62-.41l.33-.16.07,0h.07l.21,0,1.28-.29a19,19,0,0,1,5.59-.31,2.74,2.74,0,0,1,1.4,2,1.19,1.19,0,0,1,0,.26,3.79,3.79,0,0,1,0,.43l.05-.23a1.57,1.57,0,0,0,0-.2c0-.14,0-.32,0-.57a3.83,3.83,0,0,0-.19-.87v-.07c0-.29.3-.43.34-.72S219.18,212,216.81,211.81Zm-8.93,3.63h0Z"/><path class="cls-3" d="M227.68,214.64a4.37,4.37,0,0,0,.18,1c.13.33.27.51.21.67s-.12.25,0,.35.21,0,.39,0a7.23,7.23,0,0,0,3.4.12,10.44,10.44,0,0,0,3.6-1.54,2.82,2.82,0,0,0,.77-.71c.25-.39,1-1,.92-1.34a4.8,4.8,0,0,0-2.57-1.47c-1.05-.16-6.34-.22-6.67.58A4.8,4.8,0,0,0,227.68,214.64Z"/><path class="cls-38" d="M232.16,215.85a1.84,1.84,0,1,0-2.16-1.48A1.84,1.84,0,0,0,232.16,215.85Z"/><path class="cls-39" d="M231.6,212.91a1.15,1.15,0,0,1,1.33.91,1.13,1.13,0,0,1-.9,1.34,1.15,1.15,0,0,1-1.34-.91,1.16,1.16,0,0,1,.91-1.34m-.26-1.38a2.55,2.55,0,1,0,3,2,2.56,2.56,0,0,0-3-2Z"/><g class="cls-40"><path class="cls-3" d="M229.32,214.51a2.54,2.54,0,0,0,5-.94s-1.27,1.55-2.27,1.74A5.58,5.58,0,0,1,229.32,214.51Z"/></g><g class="cls-40"><path class="cls-3" d="M229.66,214.74a2.3,2.3,0,0,0,4.42-.84,5.32,5.32,0,0,1-2,1.33A5.38,5.38,0,0,1,229.66,214.74Z"/></g><g class="cls-41"><path class="cls-38" d="M229.32,214.51c.26,1.38.87-1.49,2.26-1.74s3,2.18,2.74.8a2.54,2.54,0,1,0-5,.94Z"/></g><path d="M230.54,214.28a1.3,1.3,0,1,0,1-1.51A1.29,1.29,0,0,0,230.54,214.28Z"/><path class="cls-3" d="M229.34,213.41a1,1,0,1,0,1.88-.36,1,1,0,0,0-1.12-.77A1,1,0,0,0,229.34,213.41Z"/><path class="cls-3" d="M232.51,214.52c-.13.31.14.74.62,1s1,.15,1.14-.18-.14-.74-.62-.95S232.66,214.21,232.51,214.52Z"/><path class="cls-42" d="M232.18,214.67c-.14.31.14.74.61,1s1,.15,1.14-.17-.14-.75-.62-1S232.32,214.36,232.18,214.67Z"/><path class="cls-43" d="M229.58,213.58a1,1,0,0,0,1.12.76,1,1,0,1,0-1.12-.76Z"/><path class="cls-44" d="M235.5,215.22l.58-1.69a4.89,4.89,0,0,0-1.71-1c-.56,0-5.06,0-5.62.6s-1,.83-1.07,1.49c0,0-.34-1.6.15-2.2s5.06-1.24,6.93-.69,2.42,1.15,2.43,1.46A9.37,9.37,0,0,1,235.5,215.22Z"/><path class="cls-45" d="M227.18,212.48c.09.22.33.32.39.54,0,0,0,0,0,.06a5.25,5.25,0,0,0,0,.74c0,.22,0,.37.06.47a1.37,1.37,0,0,0,0,.17l.06.18a2.59,2.59,0,0,0,0-.35,1.38,1.38,0,0,1,0-.22,2.28,2.28,0,0,1,.89-1.81,15.86,15.86,0,0,1,4.64-.46l1.09.07h.3l.28.09a5.62,5.62,0,0,1,.56.25c.38.19.74.4,1.06.6a3.94,3.94,0,0,1,.45.31l.09.07h0s0,0,0,.06-.18.27-.27.4l-.26.35c-.17.23-.31.42-.44.58l-.38.5-.13.12a2.8,2.8,0,0,0,.3-.18c.08-.07.21-.17.36-.31l.54-.5c.09-.1.2-.2.3-.32a3,3,0,0,0,.34-.41s.06-.07.09-.12l0,0v0l0,0v0a.64.64,0,0,0,0-.07v0c0-.07,0,0,0,0v0h0v0a.05.05,0,0,0,0,0l0,0,0,0s0-.06-.06-.07l-.11-.11a4.54,4.54,0,0,0-.48-.39,7.69,7.69,0,0,0-1.09-.66,6.11,6.11,0,0,0-.64-.26,1.82,1.82,0,0,0-.37-.09,19.21,19.21,0,0,0-5.41,0C227.31,211.78,227.09,212.21,227.18,212.48Zm9.85.68Z"/><path class="cls-46" d="M218.49,232.23c.65,1.1,2.93-.32,5.77-.85s5.48-.27,5.63-1.54-3-4.08-6.64-3.3S217.82,231.2,218.49,232.23Z"/><path class="cls-47" d="M224.24,229.4a7.84,7.84,0,0,1,3-.25c.9.09,1.72.5,2.59.62a.56.56,0,0,1,0,.07c-.15,1.27-2.81.89-5.63,1.54-1.91.35-3.56,1.11-4.64,1.24A10.58,10.58,0,0,1,224.24,229.4Z"/><path class="cls-3" d="M219.14,229.43a6.34,6.34,0,0,1,9-1.88Z"/><path class="cls-28" d="M174.26,206a14.89,14.89,0,0,0-4.67-3.28,34.9,34.9,0,0,1-6.89,1c-.77-1.48,1.53-2.37,2.75-2.51-1-1-3.36-1.37-4.39-2.27-3.29-2.65.22-2.76.39-3.08.63-1.08,2.24-3.8,3.63-4,1.36-.39,1.6.19,2.68.82a13.83,13.83,0,0,1,2.87,2.8c1,1,1.38,2.48,2.17,3.51.63.61,3.94,2.25,4,3.21.1,1.15-1.38,1.56-2.06,2.29"/><path class="cls-28" d="M206.53,251.7c-3.1.73-3.12-6-3.54-8.8l-3.12-9.48c-2-3.84-4.32-9.36-7.17-12.58-2.48-2.75-15.07-13.22-19.08-15.82,1.2-3.79,1.53-3,1.89-3.08.82-.19,19.11,9.56,23.52,14.68a36.3,36.3,0,0,1,4.88,6.21c4.09,5.84,6.17,14.35,6.34,21.4C210.27,247.28,210.1,250.9,206.53,251.7Z"/><path class="cls-54" d="M405,34.77A53.36,53.36,0,0,1,458.4,88.13V323.25A53.35,53.35,0,0,1,405,376.6H55.36A53.35,53.35,0,0,1,2,323.25V88.13A53.36,53.36,0,0,1,55.36,34.77H405m0-2H55.36A55.42,55.42,0,0,0,0,88.13V323.25A55.41,55.41,0,0,0,55.36,378.6H405a55.42,55.42,0,0,0,55.36-55.35V88.13A55.43,55.43,0,0,0,405,32.77Z"/><path class="cls-54" d="M72,63a30.75,30.75,0,0,1-21.75-52.5A30.76,30.76,0,1,1,93.77,54,30.58,30.58,0,0,1,72,63Z"/><path class="cls-3" d="M72,3a29.26,29.26,0,1,1-20.69,8.57A29.17,29.17,0,0,1,72,3m0-3A32.26,32.26,0,0,0,49.21,55.07,32.26,32.26,0,0,0,94.83,9.45,32,32,0,0,0,72,0Z"/><path class="cls-3" d="M65,22.87a2.12,2.12,0,0,1,2.31-2.34h5.28c4.62,0,7.47,2.07,7.47,6.78,0,3.3-2.49,5.19-5.55,5.67l5.1,5.46a1.94,1.94,0,0,1,.6,1.32,2.28,2.28,0,0,1-4,1.53l-6.66-8.07H69.5v6.51a2.25,2.25,0,1,1-4.5,0ZM69.5,30h3.09a2.55,2.55,0,0,0,2.79-2.67,2.52,2.52,0,0,0-2.79-2.64H69.5Z"/></g></g></g></svg>