<svg xmlns="http://www.w3.org/2000/svg" viewBox="0 0 121.71 174.38"><defs><style>.cls-1{isolation:isolate;}.cls-2{fill:#939598;opacity:0.5;}.cls-2,.cls-29{mix-blend-mode:multiply;}.cls-3{fill:#222229;}.cls-4{fill:#ffa200;}.cls-5{fill:#fbc70e;}.cls-6{fill:#e2d9d5;}.cls-7{fill:#2a2a33;}.cls-8{fill:#f7eeea;}.cls-9{fill:#c5c5c5;}.cls-10{fill:#d9d9d9;}.cls-11{fill:#b5dfee;opacity:0.7;}.cls-12{fill:#f8f3eb;}.cls-13{fill:#facfa6;}.cls-14{fill:#ffc7ad;}.cls-15{fill:#23232a;}.cls-16{fill:#f3a984;}.cls-17{fill:#312726;}.cls-18{fill:#f0d471;}.cls-19{opacity:0.6;}.cls-20{fill:#f6c086;}.cls-21{fill:#513e40;}.cls-22{fill:#e6b580;}.cls-23{fill:#ac8a78;}.cls-24{fill:#2a1c1c;}.cls-25,.cls-30,.cls-31{fill:#fff;}.cls-26{fill:#784f39;}.cls-27{fill:#402b1e;}.cls-28,.cls-30,.cls-31{mix-blend-mode:overlay;}.cls-28,.cls-29{opacity:0.4;}.cls-30{opacity:0.3;}.cls-32{opacity:0.1;}.cls-33{fill:#3e4040;}.cls-34{fill:#e2551c;}.cls-35{fill:#ab4412;}.cls-36{fill:#fbb245;}.cls-37{fill:#fcc246;}.cls-38{fill:#facb48;}.cls-39{fill:#fbdc48;}</style></defs><g class="cls-1"><g id="Capa_2" data-name="Capa 2"><g id="Capa_1-2" data-name="Capa 1"><ellipse class="cls-2" cx="103.42" cy="123.29" rx="18.29" ry="6.45"/><ellipse class="cls-2" cx="18.29" cy="167.93" rx="18.29" ry="6.45"/><path class="cls-3" d="M112,116.31a87.37,87.37,0,0,0-.8,9.14,25.18,25.18,0,0,0-.36,2.73,2.44,2.44,0,0,0,.64,1.65,2.41,2.41,0,0,0,1.65.65,4,4,0,0,0,3.22-1.58c1.11-1.46,1-3.38,1.22-5.1.19-1.24.34-2.47.45-3.71a3.56,3.56,0,0,0-1.47-3.35c-.85-.8-1.63-2.08-2.61-2.67a1.54,1.54,0,0,0-1.59.24,2.32,2.32,0,0,0-.78,1.52Z"/><path class="cls-3" d="M98.53,112.52a11.39,11.39,0,0,0-2.77,1.27c-2,1-4,2.14-5.9,3.26-1.38.79-4.47,2.2-3.69,4.26A2.89,2.89,0,0,0,88.52,123a6.83,6.83,0,0,0,5.26-1.53,15.45,15.45,0,0,1,5.11-2.56,3,3,0,0,0,2.58-3.09C101.47,114.17,100.52,112.13,98.53,112.52Z"/><path class="cls-4" d="M94.53,76.58c.13,5.8-.62,20.17,4.43,19,1.59-.38,4.62-4.12,4.62-4.12s.24-6.87.39-8.72c.3-3.82,4.33-16-3.42-18.6-1.16-.39-5.9,2.23-5.9,2.23S94.46,73.46,94.53,76.58Z"/><path class="cls-4" d="M95.14,113.7c.16,1.09,1.94,3.13,5.91,2.25,1.46-.32,1.45-3,1.5-3.78.25-3.83.09-7,.41-10.46a85,85,0,0,0,.56-11.94c-.07-1-1.42,0-2-.85-1.38-2.14-6.83-4.23-6.87-3.17C94.49,90.38,95.13,113.65,95.14,113.7Z"/><path class="cls-5" d="M106.61,92.11c.09,1.16-.34,1.38-.18,2.54.26,1.87.76,4,1,5.91,1.61,10.46,2.42,16.46,3.46,18.59.86,1.76,3.25,1.43,4.76.8a3.26,3.26,0,0,0,1.63-1.36,4.71,4.71,0,0,0,.44-2A67.31,67.31,0,0,0,115,94.11c-.49-1.51-.8-.51-1.79-1.78-.35-.45-2,2.89-2.52,2.64s.6-1.28,0-1.19a4.68,4.68,0,0,0-2.94,1.74Z"/><path class="cls-6" d="M112.91,63.36c0-.2-.09-.37-.11-.5a9.61,9.61,0,0,1-.16-1.2c-.12-1.89-.26-3.79-.39-5.68a33.12,33.12,0,0,1,.57-8.07c.27-1.38.92-3.49,1-4.47.09-2.24-.74-3.33-3.77-5.06a42.47,42.47,0,0,0-10-3.5c-2.63-.6-5.14-.64-6.32,2.14a10.79,10.79,0,0,0-1.07,4.53q.13,3.68.3,7.35c.25,5.32.58,10.63.8,15.95Z"/><path class="cls-5" d="M97.68,33.78c-.49-.05-2.17.06-2.17.06l0,14.51s1.14,1.44,1.39,1.23C97.64,43.05,97,35,97.68,33.78Z"/><path class="cls-5" d="M101.31,75.26l14.07-2.83c-.14-.69-1.92-7.07-2.12-7.94s-.39-1.9-.54-2.86c0-.37-.26-1.67-.26-1.67a20.27,20.27,0,0,1-2.22-.37A5.61,5.61,0,0,1,108,58.2c-3-3.07-4.24-10.27-4.24-10.27s-7.5-1.76-8.27-2.32a47.2,47.2,0,0,1-2.3,7.79c.08,1.6.1,5.4.43,9.7.13,1.83.14,3.31.2,4C93.81,67.1,95.43,71.1,101.31,75.26Z"/><path class="cls-5" d="M113,64.59s-.51-.58-.52-.58c-1.64,1-3.75.95-5.75,1.35-4.31.85-4.58,1.65-7.6,0a22.11,22.11,0,0,0,.65,6.47c.13,3.45,2.44,3.46,2.7,5.26.62,4.17,2.72,12.45,3.68,16.56A12.28,12.28,0,0,0,108,98.17a4.89,4.89,0,0,0,4.84,2,2.36,2.36,0,0,0,1.3-.64c.78-.83,1.7-.69,1.5-1.82a40.9,40.9,0,0,1-.06-11.27C116.46,79.71,116.48,72.46,113,64.59Z"/><path class="cls-5" d="M108.29,37.53c-3.43,3.73-6.48,7.93-7.52,14.24l2.34-1.47c0-2.09,3.44-8.18,6.79-12A8.86,8.86,0,0,0,108.29,37.53Z"/><path class="cls-7" d="M33.6,71c2.11-1.2,2.46-.08,2.7.35.13.25.41.4.56.64s.09.49.26.65a.94.94,0,0,1,.36,1.39.68.68,0,0,1-.07,1.3c-2.43.55.11-.69-4.79,2.7a3.88,3.88,0,0,1-1.73.81A2.84,2.84,0,0,1,29,78.4c-.51-.43-.28-.54.93-3.29a5.88,5.88,0,0,1,.94-1.72A11.89,11.89,0,0,1,33.6,71Z"/><path class="cls-8" d="M33,77.77c-.62,1.07-8.43,7.29-10,8.21a5.76,5.76,0,0,1-2.36,1A2.14,2.14,0,0,1,19,85.83a3.55,3.55,0,0,1-.49-3.67,7.22,7.22,0,0,1,2.82-2.5c2.49-1.57,8.3-5,8.8-5.13C31.62,74.11,33.77,76.5,33,77.77Z"/><path class="cls-7" d="M78.48,58.43c-.4,0-.81,0-1.22,0a6.31,6.31,0,0,0-1.59.36l-4.45,1.43c-.24.08-.54.22-.54.48a.44.44,0,0,0,.14.3,1.18,1.18,0,0,0,1,.35,5.16,5.16,0,0,0,1-.22,7.69,7.69,0,0,1,1.71-.26.24.24,0,0,1,.15,0c.08.06.06.19,0,.28a4.11,4.11,0,0,1-.73,1.11c-.15.17-.31.33-.48.49s-.27.32-.43.45a19.6,19.6,0,0,0-2.66,2c-.26.28-.49.91.13.87a3,3,0,0,0,1.37-.62c.52-.34,1-.65,1.6-1a2.75,2.75,0,0,0,.38-.2c.06,0,.14-.14.21-.14.42,0-.23.79-.3.9l-.83,1.25a2.34,2.34,0,0,0-.56,1.56c0,.18.07.33.25.35a.84.84,0,0,0,.46-.13,1.86,1.86,0,0,0,.56-.68,14.19,14.19,0,0,1,1.28-1.79,6.83,6.83,0,0,1,.73-.79c.34-.28.34.16.21.4a8.18,8.18,0,0,0-.7,1.64,2.36,2.36,0,0,0-.1.83c0,.31.39.3.59.14a1.57,1.57,0,0,0,.43-.61l.81-1.63a3.36,3.36,0,0,1,.38-.73c.13-.14.31-.19.36,0a3.31,3.31,0,0,1-.06.94,1.61,1.61,0,0,0,.1.65c0,.1.09.2.19.21a.23.23,0,0,0,.19-.14,2.84,2.84,0,0,0,.59-1.19A7.17,7.17,0,0,1,79.11,64a7.5,7.5,0,0,1,1.5-2.52c.42-.42.91-.77,1.3-1.22a.66.66,0,0,0,.19-.37.74.74,0,0,0-.16-.46,3.94,3.94,0,0,0-1.18-1.12c-.33-.21-1-.63-1.37-.34a1.75,1.75,0,0,1-.91.43Z"/><path class="cls-6" d="M80.63,61.4c1.13-.31,8.69-6,9.91-7.19A5.64,5.64,0,0,0,92,52.28a2,2,0,0,0-.62-1.83,3.32,3.32,0,0,0-3.23-1.33,6.73,6.73,0,0,0-3,2c-2,1.9-6.56,6.39-6.81,6.82C77.63,59.22,79.29,61.77,80.63,61.4Z"/><path class="cls-6" d="M93.16,37.29a3.92,3.92,0,0,1,3.42-.67,3.25,3.25,0,0,1,2.13,2.49c.56,2.42-1,4.56-2,6.59a73,73,0,0,1-4.9,7.11c-.81,1.11-3.52.72-4.27.08a3.34,3.34,0,0,1-.91-2.75,74.49,74.49,0,0,1,4.13-9.59A9.6,9.6,0,0,1,93.16,37.29Z"/><path class="cls-8" d="M5.05,84.09a4.17,4.17,0,0,0-1.62,3.32,3.5,3.5,0,0,0,2,2.85c2.31,1.23,4.92.21,7.28-.32a76.24,76.24,0,0,0,8.57-3.09c1.35-.53,1.69-3.42,1.24-4.35a3.47,3.47,0,0,0-2.55-1.68A78.92,78.92,0,0,0,9,82.46,10.08,10.08,0,0,0,5.05,84.09Z"/><polygon class="cls-9" points="88.93 80.71 88.93 9.85 91.24 8.51 91.24 82.05 88.93 80.71"/><polygon class="cls-10" points="20.5 120.22 38.36 109.91 40.67 111.25 20.5 122.89 20.5 120.22"/><polygon class="cls-10" points="43.85 106.74 64.37 94.89 66.68 96.22 43.85 109.41 43.85 106.74"/><polygon class="cls-11" points="64.37 94.89 43.85 106.74 43.85 35.88 64.37 24.03 64.37 94.89"/><polygon class="cls-9" points="64.37 94.89 64.37 24.03 66.68 22.69 66.68 96.22 64.37 94.89"/><polygon class="cls-10" points="14.04 45.63 93.08 0 95.39 1.33 16.35 46.96 14.04 45.63"/><polygon class="cls-9" points="14.04 128.74 14.04 45.63 16.35 46.96 16.35 130.07 14.04 128.74"/><path class="cls-12" d="M16.35,47l79-45.63V84.44l-79,45.63Zm27.5,62.45L66.68,96.23V22.69L64.37,24,43.85,35.88v73.53Zm26-15L91.24,82.05V8.51L88.93,9.85l-19.07,11V94.39ZM20.5,122.89l20.17-11.65V37.71l-2.31,1.34L20.5,49.36v73.53Z"/><polygon class="cls-10" points="69.86 91.72 88.93 80.71 91.24 82.05 69.86 94.39 69.86 91.72"/><polygon class="cls-11" points="88.93 80.71 69.86 91.72 69.86 20.86 88.93 9.85 88.93 80.71"/><polygon class="cls-11" points="38.36 109.91 20.5 120.22 20.5 49.36 38.36 39.05 38.36 109.91"/><polygon class="cls-9" points="38.36 109.91 38.36 39.05 40.67 37.71 40.67 111.25 38.36 109.91"/><path class="cls-13" d="M105.43,37.4A1.66,1.66,0,0,1,105,38a5.71,5.71,0,0,1-3.36,1.56,6.1,6.1,0,0,1-2.65-.3,1.59,1.59,0,0,1-1-.72,3.57,3.57,0,0,1-.3-1.32,24.45,24.45,0,0,1-.08-3.53,2.7,2.7,0,0,1,.84-2,5.66,5.66,0,0,1,1.84-1.07,8.48,8.48,0,0,1,2.33-.64c.64-.06,1.7-.16,2,.58.21.49-.1,1.17-.13,1.69a6.46,6.46,0,0,0,.19,1.91c.18.73.5,1.41.7,2.13A1.74,1.74,0,0,1,105.43,37.4Z"/><path class="cls-14" d="M93,24a6,6,0,0,0-.68,3.28,4.84,4.84,0,0,0,.37,1.45,4.17,4.17,0,0,1,.55,1.33,6,6,0,0,1-.45,1.79,2.2,2.2,0,0,0,0,1.52,4.6,4.6,0,0,0,.53.72c.85,1.13.27,2.94,1.65,3.69a2.19,2.19,0,0,0,1.13.19,15.5,15.5,0,0,0,3.47-1.24A9,9,0,0,0,102,34.3a11.91,11.91,0,0,0,1.6-2.24c.08-.23-.17-.25,0-.38s.23-1,.38-1a1.64,1.64,0,0,0,.55-.36c.28-.22.48.48.55.13a14.43,14.43,0,0,0,.53-4.52,6,6,0,0,0-1.22-3.72,6.05,6.05,0,0,0-2.84-1.73,7.53,7.53,0,0,0-5,.3A7.27,7.27,0,0,0,93,24Z"/><path class="cls-15" d="M98.42,24.9a1.91,1.91,0,0,1,1.16,0,2.05,2.05,0,0,1,1.21,1.52c.33,1.45-.07,3,0,4.42a1.26,1.26,0,0,0,.16.63c.33.49.86.17,1.15-.18s.31-.49.49-.72a1.25,1.25,0,0,1,.68-.52.77.77,0,0,1,.93.63,2.63,2.63,0,0,1,0,1.15c0,.09-.15.77.12.76s2.51-2.71,2.29-7c-.21-4.09-3.1-4.63-3.1-4.63a4.89,4.89,0,0,0-4.68-1.61,10.23,10.23,0,0,0-4.76,1.94l-.16.12a6.19,6.19,0,0,0-1.71,1.86c-1.11,2.05.71,3.48,2.73,3a17.19,17.19,0,0,0,2.7-1.14,4.46,4.46,0,0,1,.8-.28Z"/><path class="cls-14" d="M103.62,28.92c1.21-.18,1.63,1.3.89,2.53a5.72,5.72,0,0,1-.92,1c-2,2-2.72.05-2.08-.63C103,30.23,102.11,29.14,103.62,28.92Z"/><path class="cls-16" d="M103.12,31.84c.12-.13,1.44-1.06.46-1.54a.42.42,0,0,0-.56.4c0,.14,0,.29,0,.43a.55.55,0,0,1-.07.25c-.11.2-.51.43-.41.71S103,31.92,103.12,31.84Z"/><path class="cls-7" d="M100.75,68.87a2,2,0,0,0-.29-.46A5.1,5.1,0,0,0,98.8,66.9a2.74,2.74,0,0,0-2.11-.29c-.64.23-1.13.84-1.76,1.13A33,33,0,0,1,91.75,69a8.92,8.92,0,0,0-1.79.58,1.76,1.76,0,0,0-.62.85c-.19.38-.46.72-.67,1.1a1.68,1.68,0,0,0-.16,1.67,2.32,2.32,0,0,0,1.27.78,8.36,8.36,0,0,1,1.49.76c.36.22.64.54,1,.76s.77.1,1.19-.1A1.16,1.16,0,0,0,94,75c.23-.31.11-.73.3-1s.61-.34.92-.44a2.79,2.79,0,0,0,1-.62,6,6,0,0,1,.87-.94c.39-.25.89-.39,1.3-.61a16,16,0,0,0,1.69-1c.41-.29.88-.6.76-1.18A1.43,1.43,0,0,0,100.75,68.87Z"/><path class="cls-8" d="M108.66,55.3a4.19,4.19,0,0,1-.82,3.11c-.29.5-6.49,4.7-8.15,5.72-.87.55-1.75,1.1-2.61,1.67a3.61,3.61,0,0,0-1.55,1.68,3.09,3.09,0,0,0,.32,2.07A3.53,3.53,0,0,0,97,71.29a2.26,2.26,0,0,0,2.25,0,36,36,0,0,0,5.51-2.68c2-1.19,4-2.49,5.87-3.83,2.12-1.5,4-2.88,4.48-5.46a39.2,39.2,0,0,0,.29-9.25c-.15-2.61-.1-9.51-3.5-10.2-2.44-.49-4.28,2.07-4.62,4.17a19.67,19.67,0,0,0,.4,4.51C107.86,50.49,108.65,55.14,108.66,55.3Z"/><path class="cls-6" d="M4.66,84.6a4.81,4.81,0,0,1,1-.84c3.65-2.34,7.4,0,11,1.12a21.75,21.75,0,0,1,4,1.63A8,8,0,0,1,25.34,93a83.8,83.8,0,0,1,.52,13.81c0,3.07,0,6.36-.12,9.43-.07,1.39-.23,2.56-.35,4S25,123.26,23.72,124s-2.5.38-3.74,0a9.09,9.09,0,0,0-2.24-.45c-.74,0-1.38.27-2.1.29a10.52,10.52,0,0,1-4.78-1,6.31,6.31,0,0,1-3.71-5.81c.08-2.33.52-4.76.07-7.08s-.36-4.57-.77-6.81c-.11-.66-.25-1.3-.4-1.95-.72-3.09-1.83-6.08-2.39-9.21C3.22,89.63,2.83,86.59,4.66,84.6Z"/><path class="cls-3" d="M6.94,162c.22-.42.51-.24.88-.28a3.22,3.22,0,0,0,1.29-.52c.5-.3,1-.68,1.42-1a10.42,10.42,0,0,1,4.77-2,4.68,4.68,0,0,1,2.11.11,2.35,2.35,0,0,1,1.37,2.68,3.46,3.46,0,0,1-.27,1.05A4.26,4.26,0,0,1,17,163.55a7.3,7.3,0,0,1-2.19,1.23,19,19,0,0,0-2,.53,4.39,4.39,0,0,0-1.13.78,3.23,3.23,0,0,1-.84.73,4.68,4.68,0,0,1-2.3.43,2.49,2.49,0,0,1-2.39-2.85,7.78,7.78,0,0,1,.47-1.63A7.89,7.89,0,0,1,6.94,162Z"/><path class="cls-5" d="M18.85,122.25a8.64,8.64,0,0,0-.49-2.21,17.54,17.54,0,0,0-2.67-4.55,10.51,10.51,0,0,0-2.84-2.84c-1.15-.68-4.63-6.45-4.63-6.45A42,42,0,0,0,5.8,120.61c0,1.89.23,4.5.44,6.37.3,2.64.42,5.29.46,7.94.07,4.79-.81,9.56-1,14.35q-.16,4.66.07,9.35a17.07,17.07,0,0,0,.54,5A2.06,2.06,0,0,0,7.4,164.9a2.83,2.83,0,0,0,1.84,0,7.13,7.13,0,0,0,2.42-1c2.33-1.67,1.68-5.22,1.8-7.69s.34-4.67.68-7c.43-2.93.76-5.78,1.38-8.68.57-2.63,1.14-5.27,1.7-7.9.22-1.07.21-2.15.4-3.24a40.25,40.25,0,0,1,1-4.81A6.21,6.21,0,0,0,18.85,122.25Z"/><path class="cls-4" d="M18.29,121.32a8.68,8.68,0,0,0-.63-2.16,17.69,17.69,0,0,0-3-4.38,10.29,10.29,0,0,0-3-2.65,4.38,4.38,0,0,1-1-.89c-2,3.19-4.28,5.42-2.81,8.49,2.64,6.26,6.3,11.92,8.17,18.24.85-3.33,2.18-9,2.3-10.13.19-1.66-.52-2.63-.14-4.24A6,6,0,0,0,18.29,121.32Z"/><path class="cls-13" d="M17.48,82.28c.08-.94.8-.77.4-1.59a4.6,4.6,0,0,0-1.49-1.78,3.35,3.35,0,0,0-2.21-.6c-.27,0-.44.2-.7.21a18,18,0,0,0-2.21.09c-.73.15-1.4.24-1.35,1.06a9,9,0,0,1,0,2.49,10,10,0,0,0-.38,1.89,1.61,1.61,0,0,0,.73,1.37,4.85,4.85,0,0,0,1.27.68,9,9,0,0,0,3.17.78,4.8,4.8,0,0,0,2.12-.4c.26-.12.74-.32.88-.58s0-.81-.05-1.12A9.13,9.13,0,0,1,17.48,82.28Z"/><path class="cls-13" d="M22.91,63.88a5.67,5.67,0,0,1,1.48,2.69c.49,2.33-.33,4.81.31,7.12s-.06,7.43-4.45,9c-2.22.8-6.72.26-8.19-.34-2-.82-3.35-2.61-4.59-4.35C-2.68,63.7,16.16,56.54,22.91,63.88Z"/><path class="cls-17" d="M3.84,62a5.85,5.85,0,0,1,1.62-1.28A1.51,1.51,0,0,0,6,60.37a2.11,2.11,0,0,0,.21-.46,3.66,3.66,0,0,1,1.52-1.62c2.41-1.53,5.43-1.76,8.27-1.51a10.91,10.91,0,0,1,2.83.55A9.44,9.44,0,0,1,21.64,59a11,11,0,0,1,3,3.58,10.34,10.34,0,0,1,.49,1.55,4,4,0,0,1,.2,1.62,1.65,1.65,0,0,1-.45,1,11.41,11.41,0,0,1-1,.74,2.46,2.46,0,0,0-.69,1.11,8.37,8.37,0,0,0-.28,1.86c0,.64,0,1.28,0,1.93a3.69,3.69,0,0,1-.08,1.1,1.92,1.92,0,0,1-1.25,1.2,2.33,2.33,0,0,0-1.36,1.22c-.28.56-.42,1.18-.65,1.77a6.66,6.66,0,0,1-5,3.87,8.56,8.56,0,0,1-5.24-.82,8.44,8.44,0,0,1-1.86-1.39,15.1,15.1,0,0,1-1.81-2,13.58,13.58,0,0,1-2.21-3.48,13.63,13.63,0,0,1-.58-2.26C2.24,68.49,1.69,64.5,3.84,62Z"/><path class="cls-14" d="M20.28,71c-1.54-.25-2.11,1.64-1.18,3.23a7.81,7.81,0,0,0,1.16,1.28c2.57,2.63,3.5.13,2.69-.76C21.07,72.66,22.23,71.28,20.28,71Z"/><path class="cls-16" d="M20.53,73.94c-.16-.18-1.83-1.39-.56-2,.35-.17.69.16.71.52,0,.18-.06.37-.05.55a.9.9,0,0,0,.09.32c.13.27.65.56.51.93S20.63,74,20.53,73.94Z"/><g id="man"><path class="cls-5" d="M12.16,102C10.25,95.78,7.89,90.4,8,82.85a4.49,4.49,0,0,0-.91.22c.11,7.33,2.49,13.52,4.13,19.13Z"/></g><path class="cls-3" d="M21.81,165c0-.13,0-.25,0-.38a8.22,8.22,0,0,1,1.37-3.49,2.79,2.79,0,0,1,.91-1.12c.95-.57,2.23.21,2.65,1.24.2.47.27,1,.44,1.48A3.24,3.24,0,0,0,29.3,165a44.49,44.49,0,0,0,4.48.08,3.85,3.85,0,0,1,1.62.37c1.15.66,1.24,2.66.66,3.7a3,3,0,0,1-1.73,1.27,7.08,7.08,0,0,1-3.45.21,6.61,6.61,0,0,0-3.42.09c-1.95.62-4.25,1.58-5.88-.35a2.79,2.79,0,0,1-.56-1.9A34,34,0,0,1,21.81,165Z"/><path class="cls-5" d="M28.76,159.14c-.1,1.1-.29,2.2-.36,3.3-.06.91.16,2.05-.4,2.83a4.23,4.23,0,0,1-2.19,1.46,4.93,4.93,0,0,1-2.63.23,2.81,2.81,0,0,1-1.42-.8c-.42-.45-.67-4.2-.71-5.66-.12-3.93.21-9.44.46-13.37,0-.87.11-1.74.17-2.6s.14-.61.2-1.6a8.78,8.78,0,0,1,.17-2.67c.59-1.4,2.41-.35,3.31.08,1.31.63,3,1.06,4.06,2.1S29.09,155.46,28.76,159.14Z"/><path class="cls-5" d="M19.64,119.31c-1.29.29-2.61.52-3.92.72a9,9,0,0,1-1.9.28c-.51,0-1-.36-1.5-.39s-5.71-5.44-5.71-5.44c.55,5.75,6,10.86,9.05,15.2,3.27,4.6,4.58,10.7,6,16,.08.29.93.8,1.39,1a9.33,9.33,0,0,0,5.66.61c.49-.1.54-.94,1-.76.35-2.62,0-3.5.07-5.49a36.92,36.92,0,0,0-.62-6.35c-.6-4.59-3.48-18.52-3.48-18.52S21.05,119,19.64,119.31Z"/><path class="cls-5" d="M26,118.66c-.16.12-.33.24-.51.35a21.7,21.7,0,0,1-2.63,1.22l-3,1.42-6,2.84a1.66,1.66,0,0,1-1,.24,1.7,1.7,0,0,1-.92-.73,23.9,23.9,0,0,1-4.14-6.77c-.12-.38-.23-.77-.32-1.16a21.75,21.75,0,0,1-.31-6.34c.11-1.63.47-3.3.74-4.91s.49-3.64.49-3.64,3.12.65,3.86.86a44.44,44.44,0,0,0,1,4.71,19.32,19.32,0,0,0,.75,3c3.33,8,9,7,9.75,6.93a7.62,7.62,0,0,0,2-.5C25.81,117,25.89,117.84,26,118.66Z"/><path class="cls-5" d="M20.46,86.38c-3.47,3.4-8.92,9.35-12.16,14.8l.73.44c6.71-8.94,7.59-11,12.39-14.71A9.54,9.54,0,0,0,20.46,86.38Z"/><path class="cls-4" d="M19.7,61.38c5-1.48,9.26-1.64,9.7-.29s-3.63,4.13-9.19,6l-.87.28Z"/><path class="cls-5" d="M2,72.47a17.55,17.55,0,0,1-.22-1.9C.42,53,21.94,52.45,25.79,63.8a5,5,0,0,1,.21.85C20.36,71.42,9.7,76.7,2,72.47Z"/><path class="cls-18" d="M18.86,57a.56.56,0,0,1-.24.56c-5,3.1-13.5,2-14.37,9.53C4,68.73,2.74,68.88,1.66,68.48-.31,58.13,14.69,53.15,18.86,57Z"/><path class="cls-4" d="M11.38,70.21c-.38-.71,1.82-2.62,4.91-4.28s5.9-2.42,6.27-1.72-1.82,2.62-4.9,4.27S11.76,70.91,11.38,70.21Z"/><path class="cls-7" d="M41.77,116.33a.56.56,0,0,1-.05.46.83.83,0,0,1-.23.19l-1.9,1.2a2.52,2.52,0,0,1-1.51.55c-.76-.07-1.28-.8-1.63-1.49a6.93,6.93,0,0,0-1.37-1.89c-.46-.46-1.28-.88-1.43-1.57a1.67,1.67,0,0,1,.17-1,12.85,12.85,0,0,1,1.26-2.48.73.73,0,0,1,.56-.41,1,1,0,0,1,.55.3l1.25,1.13a2.74,2.74,0,0,0,1,.59c.45.18.92.26,1.37.44a12.73,12.73,0,0,1,1.28.64c.52.3,1.69,1,1.61,1.67s-1,.22-1.13.76a1.15,1.15,0,0,0,.17.69A1.42,1.42,0,0,1,41.77,116.33Z"/><path class="cls-8" d="M34.54,115.17c-1.13-.49-9-8.77-10.06-10.24a6,6,0,0,1-1.26-2.23,2.16,2.16,0,0,1,.93-1.82,3.53,3.53,0,0,1,3.58-.92,7.17,7.17,0,0,1,2.82,2.5c1.86,2.28,7,8.6,7.24,9.09C38.39,113,35.9,115.75,34.54,115.17Z"/><path class="cls-8" d="M24.7,89.41a4.19,4.19,0,0,0-3.59-.85,3.46,3.46,0,0,0-2.35,2.55c-.7,2.53.87,4.84,1.91,7a44.29,44.29,0,0,0,3.23,6.09c.82,1.2,1.91,2.51,3.38,2.78a3.15,3.15,0,0,0,2.81-.94,2.82,2.82,0,0,0,.44-3.67,64.79,64.79,0,0,0-3.36-9.46A10.09,10.09,0,0,0,24.7,89.41Z"/><path class="cls-13" d="M92.13,20.41C90.45,25.26,89.49,33.32,91,34.67c4.21,3.84,4,4.26,7.82,3.28a21,21,0,0,0,4.67-1.74c1.74-.93,1.66-1.12,2.24-2.59.13-.31,3.62.05,4.11-4,.24-2.05-1.3-2.78-3.06-2.63-.3-7.75-8-12.39-14-7.56"/><g class="cls-19"><path class="cls-20" d="M102.25,20.86c4.43-1.92,5.77,1.37,4.5,6.14,1.76-.15,3.3.58,3.06,2.63-.49,4-4,3.68-4.11,4-.58,1.47-.5,1.66-2.24,2.59A21,21,0,0,1,98.79,38s6.61-5,5.38-12.5c0,0-.4-2.94-1.59-3.83l-.33-.76"/></g><path class="cls-21" d="M98.12,26.83c1.37-.11,3.39-.83,4.79-.76.78,0,.44-.65-.34-.78a9.1,9.1,0,0,0-4.41.31c-.75.23-.83,1.3,0,1.23Z"/><path class="cls-21" d="M94.13,26.05a32.05,32.05,0,0,0-3.58-1.21c-.6-.07-.25-.55.37-.55a7,7,0,0,1,3.35.81c.54.27.46,1.1-.14.95Z"/><path class="cls-22" d="M107.91,31.28c-.29-.07-.66-.29-1-.33a4.21,4.21,0,0,1,1-1.94c.45-.59.09-.67-.12-.35A8.38,8.38,0,0,0,106.45,31a.31.31,0,0,0,.28.38c.37.05.74.09,1.1.17S108.28,31.37,107.91,31.28Z"/><path class="cls-23" d="M94.41,32.32c.06-.49,1.33-.88,1.25-1.86,0-.55-.25-2.55-.73-2.78,0,0,.6,2.18.28,3-.27.6-1.36,1.06-1.36,1.7,0,.49,1.23,1.16,1.7.9C95.76,33.16,94.5,32.79,94.41,32.32Z"/><path class="cls-24" d="M96.87,16.36a28.84,28.84,0,0,1,8.17-.47c1,.26,5.19,2.88,5.11,4.61l-.41.89c1.05,1.14,1.25,4,0,7.16-.31-.92-1.83-1.9-2.42-1.33-.15.14-.56,1.29-1,2.08-.31.61-1-.52-.85-1.25s.32-1.62.39-2.09c.11-.79.3-3-.47-4-1.27-1.78-5.73-.89-7.4-1.17C96,20.4,94.28,18.9,93,19.59A5.35,5.35,0,0,1,96.87,16.36Z"/><path class="cls-24" d="M100.59,16.29s-3.89-.45-5.88.67a7.08,7.08,0,0,1-2.6-.57s-.51-.8-.38.57l.11,1.37A4,4,0,0,0,92,20.27s4.26,2.21,8.4.23Z"/><path class="cls-25" d="M97.8,29.17a2.7,2.7,0,0,0,0,.48c0,.18.1.28,0,.36s-.07.11,0,.17.11,0,.19.05a3.82,3.82,0,0,0,1.69.33,5.63,5.63,0,0,0,1.92-.49,1.34,1.34,0,0,0,.43-.3c.16-.17.6-.42.56-.59a2.38,2.38,0,0,0-1.16-.94c-.51-.16-3.15-.6-3.37-.22A2.24,2.24,0,0,0,97.8,29.17Z"/><path class="cls-26" d="M99.94,30.12a.93.93,0,1,0-1-.9A.92.92,0,0,0,99.94,30.12Z"/><path class="cls-27" d="M99.89,28.61a.58.58,0,0,1,0,1.16.58.58,0,0,1,0-1.16m0-.7a1.28,1.28,0,1,0,1.32,1.24,1.29,1.29,0,0,0-1.32-1.24Z"/><g class="cls-28"><path class="cls-25" d="M98.62,29.23a1.29,1.29,0,0,0,2.57-.08,2.8,2.8,0,0,1-1.26.69A2.81,2.81,0,0,1,98.62,29.23Z"/></g><g class="cls-28"><path class="cls-25" d="M98.78,29.37a1.16,1.16,0,0,0,2.27-.07,2.73,2.73,0,0,1-1.12.5A2.65,2.65,0,0,1,98.78,29.37Z"/></g><g class="cls-29"><path class="cls-26" d="M98.62,29.23c0,.71.56-.67,1.27-.69s1.32,1.32,1.3.61a1.29,1.29,0,0,0-2.57.08Z"/></g><path d="M99.26,29.21a.65.65,0,1,0,.63-.67A.65.65,0,0,0,99.26,29.21Z"/><path class="cls-25" d="M98.72,28.68a.49.49,0,0,0,1,0,.49.49,0,0,0-.5-.47A.48.48,0,0,0,98.72,28.68Z"/><path class="cls-25" d="M100.22,29.49c-.1.14,0,.38.23.53s.49.15.58,0,0-.38-.23-.53S100.32,29.34,100.22,29.49Z"/><path class="cls-30" d="M100,29.53c-.1.15,0,.39.23.53s.48.15.58,0,0-.38-.23-.53S100.14,29.39,100,29.53Z"/><path class="cls-31" d="M98.83,28.78a.49.49,0,0,0,1,0,.5.5,0,0,0-.5-.47A.48.48,0,0,0,98.83,28.78Z"/><path class="cls-32" d="M101.66,30.07l.41-.8s-.49-.56-.77-.62a9.35,9.35,0,0,0-2.85-.14c-.33.23-.58.33-.65.66,0,0,0-.83.24-1.09a6.39,6.39,0,0,1,3.51.2c.89.42,1.12.76,1.1.92S101.72,30,101.66,30.07Z"/><path class="cls-33" d="M97.72,28.05c0,.12.13.18.15.3v0a1.48,1.48,0,0,0-.07.37,1,1,0,0,0,0,.24v.08l0,.1c0-.18,0-.13,0-.18a.57.57,0,0,1,0-.12,1.15,1.15,0,0,1,.58-.82,8.06,8.06,0,0,1,2.35.13l.54.12.09,0h.06l.13.07.26.17a3.83,3.83,0,0,1,.48.38,1.29,1.29,0,0,1,.21.19l0,0h0l0,0a1.41,1.41,0,0,1-.17.18l-.15.15-.26.26-.24.22-.06.05a.85.85,0,0,0,.15-.07l.21-.12.3-.21.19-.14a1.45,1.45,0,0,0,.19-.17l.06-.06v0h0v0a0,0,0,0,0,0,0h0v0h0v-.05h0l0,0,0-.06a1.5,1.5,0,0,0-.2-.23c-.15-.14-.32-.28-.5-.42a2.91,2.91,0,0,0-.3-.17.53.53,0,0,0-.17-.08,10,10,0,0,0-2.7-.45C97.84,27.71,97.69,27.91,97.72,28.05Zm4.86,1.11h0Z"/><path class="cls-25" d="M94.27,28.82a1.64,1.64,0,0,1-.08.4c0,.14-.11.21-.08.28s0,.1,0,.15-.09,0-.16,0a3,3,0,0,1-1.43.05A4.32,4.32,0,0,1,91,29.06a1.1,1.1,0,0,1-.32-.29c-.11-.17-.44-.43-.39-.56a2,2,0,0,1,1.08-.63c.44-.06,2.66-.09,2.8.25A2,2,0,0,1,94.27,28.82Z"/><path class="cls-26" d="M92.39,29.33a.77.77,0,1,1,.9-.62A.77.77,0,0,1,92.39,29.33Z"/><path class="cls-27" d="M92.62,28.1a.48.48,0,0,1-.17.94.48.48,0,0,1-.39-.56.48.48,0,0,1,.56-.38m.11-.58a1.07,1.07,0,0,0-1.25.85,1.08,1.08,0,0,0,.86,1.25,1.07,1.07,0,0,0,.39-2.1Z"/><g class="cls-28"><path class="cls-25" d="M93.58,28.76a1.07,1.07,0,0,1-1.24.86,1.08,1.08,0,0,1-.86-1.25s.53.65,1,.73A2.31,2.31,0,0,0,93.58,28.76Z"/></g><g class="cls-28"><path class="cls-25" d="M93.44,28.86a.87.87,0,0,1-1.07.58.88.88,0,0,1-.79-.93,2.32,2.32,0,0,0,.86.56A2.28,2.28,0,0,0,93.44,28.86Z"/></g><g class="cls-29"><path class="cls-26" d="M93.58,28.76c-.11.59-.37-.62-1-.73s-1.25.92-1.15.34a1.07,1.07,0,0,1,2.1.39Z"/></g><path d="M93.07,28.67a.54.54,0,1,1-.44-.64A.55.55,0,0,1,93.07,28.67Z"/><path class="cls-25" d="M93.57,28.31a.39.39,0,0,1-.46.31.4.4,0,1,1,.46-.31Z"/><path class="cls-25" d="M92.24,28.77c.06.13-.06.31-.26.4s-.42.07-.48-.07.06-.31.26-.4S92.18,28.64,92.24,28.77Z"/><path class="cls-30" d="M92.38,28.83c.06.13-.06.32-.26.41s-.41.06-.47-.07,0-.32.25-.41S92.32,28.7,92.38,28.83Z"/><path class="cls-31" d="M93.47,28.38a.4.4,0,0,1-.47.31.41.41,0,0,1-.32-.47.4.4,0,0,1,.47-.32A.41.41,0,0,1,93.47,28.38Z"/><path class="cls-32" d="M91,29.06l-.24-.7a2.1,2.1,0,0,1,.71-.42,7.61,7.61,0,0,1,2.36.26c.24.23.43.34.45.62,0,0,.14-.67-.06-.92a5.33,5.33,0,0,0-2.91-.3c-.78.24-1,.49-1,.62A3.94,3.94,0,0,0,91,29.06Z"/><path class="cls-33" d="M93.62,27.43a8.14,8.14,0,0,0-2.27,0l-.16,0c-.09,0-.18.08-.27.12a2.82,2.82,0,0,0-.45.27,1.75,1.75,0,0,0-.2.16l0,0,0,0h0v0h0v.06h0v0l0,.06a1.07,1.07,0,0,0,.14.16.86.86,0,0,0,.13.14l.22.21.15.13.13.07-.06,0s-.05-.08-.16-.22l-.18-.24-.11-.15-.11-.16a0,0,0,0,1,0,0h0l0,0a.91.91,0,0,1,.19-.13,4.6,4.6,0,0,1,.44-.25l.24-.11.11,0h.13l.46,0a6.78,6.78,0,0,1,2,.19,1,1,0,0,1,.37.76.25.25,0,0,1,0,.09s0,0,0,.15l0-.08a.42.42,0,0,1,0-.07.84.84,0,0,0,0-.19,1.1,1.1,0,0,0,0-.31v0c0-.09.12-.13.16-.23S94.42,27.62,93.62,27.43Zm-3.28.77h0Z"/><path class="cls-34" d="M93.4,33.93c.27-.46,1.22.13,2.42.36s2.3.11,2.36.65-1.24,1.71-2.79,1.38S93.12,34.37,93.4,33.93Z"/><path class="cls-25" d="M95.81,35.12a3.44,3.44,0,0,0,1.28.11c.38,0,.72-.22,1.09-.26v0c-.06-.54-1.18-.38-2.36-.65-.8-.15-1.49-.47-1.95-.52A4.39,4.39,0,0,0,95.81,35.12Z"/><path class="cls-35" d="M93.67,35.11a2.66,2.66,0,0,0,3.79.79Z"/><path class="cls-36" d="M89.16,16.73a2,2,0,0,0-.8.69c-.38.68.12,1.5.64,2.08a14.72,14.72,0,0,0,8.86,5.08,20.83,20.83,0,0,0,4.8-.06c2.13-.22,4.26-.52,6.37-.9a5,5,0,0,0,2-.68,1.76,1.76,0,0,0,.8-1.82,2.52,2.52,0,0,0-1.3-1.33,32.86,32.86,0,0,0-8.17-3.46,33.53,33.53,0,0,0-8.86-1.17,4.35,4.35,0,0,0-2,.39C90.7,15.91,89.92,16.31,89.16,16.73Z"/><path class="cls-37" d="M89.15,16.94a1.2,1.2,0,0,0-.55.9,1.18,1.18,0,0,0,.22.56,12.22,12.22,0,0,0,6.75,5.29c3.77,1.19,7.84.47,11.7-.35a18.55,18.55,0,0,0,2.33-.61,3.33,3.33,0,0,0,1.25-.72,1.41,1.41,0,0,0,.38-1.34,1.91,1.91,0,0,0-.85-.93,14.92,14.92,0,0,0-1.62-1,30,30,0,0,0-4.69-1.84A30.84,30.84,0,0,0,94,15,7.85,7.85,0,0,0,89.15,16.94Z"/><path class="cls-36" d="M110.92,20.42a2.55,2.55,0,0,1-1.28,1,9.38,9.38,0,0,1-4,.37,52.39,52.39,0,0,1-6.94-.95,9.73,9.73,0,0,1-2.42-.76,10.46,10.46,0,0,1-2.1-1.59c-.47-.42-.94-.85-1.37-1.31a2.9,2.9,0,0,1-.45-.65,2.33,2.33,0,0,1,.09-1.62A9.81,9.81,0,0,1,96.06,10a10,10,0,0,1,4.67-1.89,6,6,0,0,1,2.3.16l3.08.8a8.42,8.42,0,0,1,1.32.41c1.8.75,2.84,2.69,3.43,4.46a8.43,8.43,0,0,1,.31,1.09,10.6,10.6,0,0,1,.06,4.52v.05A2.64,2.64,0,0,1,110.92,20.42Z"/><path class="cls-38" d="M111.17,15a8.81,8.81,0,0,1-.53,1.49,7.45,7.45,0,0,1-4.17,3.7,10.7,10.7,0,0,1-5.64.39A9.94,9.94,0,0,1,96.92,19a6.34,6.34,0,0,1-2.48-3.35,5.7,5.7,0,0,1-.16-2.25,7.19,7.19,0,0,1,.83-2.67,10.2,10.2,0,0,1,1-.79,10,10,0,0,1,4.67-1.89,6,6,0,0,1,2.3.16l3.08.8a8.42,8.42,0,0,1,1.32.41c1.8.75,2.84,2.69,3.43,4.46A8.43,8.43,0,0,1,111.17,15Z"/><path class="cls-36" d="M108.88,10.37a6.37,6.37,0,0,0-3.58-.78,9.2,9.2,0,0,0-3.55,1,7.62,7.62,0,0,0-2.29,1.68,8.43,8.43,0,0,0-1.74,3.47c-.35,1.26-.54,2.56-.85,3.82a1.75,1.75,0,0,1-.34.76,1.09,1.09,0,0,1-1.1.23,1.61,1.61,0,0,1-.68-.37c-.49-.47-1-.93-1.48-1.43S92.41,18,92,17.63s-.13-1,.07-1.47a13.23,13.23,0,0,1,8.79-7.33A12.18,12.18,0,0,1,103,8.44a8.68,8.68,0,0,1,4.67,1.09l.22.12a6.52,6.52,0,0,1,.85.64Z"/><path class="cls-36" d="M111.18,14.22c-.23.34-.63-.15-.88-.25a3.91,3.91,0,0,0-1.22-.31,6.88,6.88,0,0,0-2.47.27,9.58,9.58,0,0,0-3.8,1.86,11.88,11.88,0,0,1-1.27,1.08.51.51,0,0,1-.29.1.65.65,0,0,1-.31-.13l-.68-.5c-.16-.12-.5-.24-.58-.43s.13-.55.28-.77A1.27,1.27,0,0,1,100,15a6.59,6.59,0,0,1,3.51-2.68,9.48,9.48,0,0,1,5.13-.56,3.86,3.86,0,0,1,1.42.55,2.61,2.61,0,0,1,.83.72,2.29,2.29,0,0,1,.31.85A.54.54,0,0,1,111.18,14.22Z"/><path class="cls-39" d="M111.23,13.9a.11.11,0,0,1-.08,0s-.49-.39-.57-.42a4.35,4.35,0,0,0-.61-.2,7.9,7.9,0,0,0-5.15.56,8,8,0,0,0-1,.49,8.31,8.31,0,0,0-2.2,1.7.71.71,0,0,1-.27.22c-.48.16-1.23-.54-1.39-.93a.37.37,0,0,1,0-.21A1.27,1.27,0,0,1,100,15a6.59,6.59,0,0,1,3.51-2.68,9.48,9.48,0,0,1,5.13-.56,3.86,3.86,0,0,1,1.42.55,2.61,2.61,0,0,1,.83.72A2.29,2.29,0,0,1,111.23,13.9Z"/><path class="cls-39" d="M107.71,9.53l-.2,0a8.8,8.8,0,0,0-6,.94A9.18,9.18,0,0,0,98,13.51a13.74,13.74,0,0,0-1.17,2.41A16.51,16.51,0,0,0,96,18.44a10.46,10.46,0,0,1-.47,1.93,2,2,0,0,1-.1.21,1.61,1.61,0,0,1-.68-.37c-.49-.47-1-.93-1.48-1.43S92.41,18,92,17.63s-.13-1,.07-1.47a13.23,13.23,0,0,1,8.79-7.33A12.18,12.18,0,0,1,103,8.44,8.68,8.68,0,0,1,107.71,9.53Z"/></g></g></g></svg>