<svg xmlns="http://www.w3.org/2000/svg" xmlns:xlink="http://www.w3.org/1999/xlink" viewBox="0 0 522.86 394.05"><defs><style>.cls-1{isolation:isolate;}.cls-2{fill:#93d500;}.cls-3,.cls-41,.cls-42{fill:#fff;}.cls-4,.cls-7{fill:none;stroke-linecap:round;stroke-miterlimit:10;}.cls-4{stroke:#93d500;stroke-width:2px;}.cls-5{fill:#00877a;}.cls-6{fill:#939598;opacity:0.5;}.cls-40,.cls-6{mix-blend-mode:multiply;}.cls-7{stroke:#192027;}.cls-8{fill:#363636;}.cls-9{fill:#aeaeae;}.cls-10{fill:#171717;}.cls-11{fill:#017699;}.cls-12{fill:#0f9ec7;}.cls-13{fill:#edecf1;}.cls-14{fill:#caccd2;}.cls-15{fill:#a1a5b0;}.cls-16{fill:#41403f;}.cls-17{fill:#4b4541;}.cls-18{fill:#5c5753;}.cls-19{fill:url(#linear-gradient);}.cls-20{fill:#e6e6e6;}.cls-21{fill:#3c4156;}.cls-22{fill:#192027;}.cls-23{fill:#facfa6;}.cls-24{fill:#ae7851;}.cls-25{fill:#013554;}.cls-26{fill:#034a6f;}.cls-27{fill:#b3b3b3;}.cls-28{fill:#3ea08d;}.cls-29{fill:#55bfab;}.cls-30{fill:#f8d09c;}.cls-31{opacity:0.6;}.cls-32{fill:#f6c086;}.cls-33{fill:#513e40;}.cls-34{fill:#e6b580;}.cls-35{fill:#ac8a78;}.cls-36{fill:#2a1c1c;}.cls-37{fill:#784f39;}.cls-38{fill:#402b1e;}.cls-39,.cls-41,.cls-42{mix-blend-mode:overlay;}.cls-39,.cls-40{opacity:0.4;}.cls-41{opacity:0.3;}.cls-43{opacity:0.1;}.cls-44{fill:#3e4040;}.cls-45{fill:#e2551c;}.cls-46{fill:#ab4412;}</style><linearGradient id="linear-gradient" x1="-20322.64" y1="199.89" x2="-20312.11" y2="199.89" gradientTransform="matrix(-1, 0, 0, 1, -20154.71, 0)" gradientUnits="userSpaceOnUse"><stop offset="0" stop-color="#ccc"/><stop offset="0.38" stop-color="#d5d5d5"/><stop offset="0.98" stop-color="#ececec"/><stop offset="1" stop-color="#ededed"/></linearGradient></defs><g class="cls-1"><g id="Capa_2" data-name="Capa 2"><g id="Capa_1-2" data-name="Capa 1"><path class="cls-2" d="M87.23,125.1a30.76,30.76,0,1,1,21.75-9A30.53,30.53,0,0,1,87.23,125.1Z"/><path class="cls-3" d="M87.23,65.09a29.26,29.26,0,1,1-20.68,8.57,29.13,29.13,0,0,1,20.68-8.57m0-3A32.26,32.26,0,1,0,110,71.54a32,32,0,0,0-22.81-9.45Z"/><line class="cls-4" x1="107.92" y1="115.03" x2="121.53" y2="128.64"/><path class="cls-3" d="M84.61,85.12a2.25,2.25,0,1,1,4.5,0v17a2.25,2.25,0,1,1-4.5,0Z"/><path class="cls-2" d="M193.66,344a30.76,30.76,0,1,1,21.75-9A30.57,30.57,0,0,1,193.66,344Z"/><path class="cls-3" d="M193.66,284A29.26,29.26,0,1,1,173,292.6,29.13,29.13,0,0,1,193.66,284m0-3a32.25,32.25,0,1,0,22.81,9.44A32,32,0,0,0,193.66,281Z"/><line class="cls-4" x1="214.35" y1="292.6" x2="227.95" y2="278.99"/><path class="cls-3" d="M194,301.82c2.19,0,6.45.72,6.45,3.36a1.9,1.9,0,0,1-1.86,2c-1.23,0-2.07-1.05-4.59-1.05-3.72,0-5.64,3.15-5.64,6.81s1.95,6.63,5.64,6.63c2.52,0,3.54-1.26,4.77-1.26a2.11,2.11,0,0,1,2,2c0,2.88-4.53,3.54-6.75,3.54-6.09,0-10.32-4.83-10.32-11S187.83,301.82,194,301.82Z"/><circle class="cls-2" cx="395.6" cy="114.59" r="30.76"/><path class="cls-3" d="M395.6,85.34a29.26,29.26,0,1,1-29.26,29.25A29.25,29.25,0,0,1,395.6,85.34m0-3a32.26,32.26,0,1,0,32.25,32.25A32.29,32.29,0,0,0,395.6,82.34Z"/><line class="cls-4" x1="366.34" y1="114.59" x2="227.19" y2="114.59"/><path class="cls-3" d="M386.81,106.77a2.81,2.81,0,0,1-.21-1.11A2.24,2.24,0,0,1,391,105l4.65,12.48L400.25,105a2.24,2.24,0,0,1,4.35.69,2.81,2.81,0,0,1-.21,1.11l-6.57,16.71a2.29,2.29,0,0,1-4.44,0Z"/><path class="cls-5" d="M451.11,2a53.36,53.36,0,0,1,53.36,53.36V324.49a53.36,53.36,0,0,1-53.36,53.36H55.36A53.36,53.36,0,0,1,2,324.49V55.36A53.36,53.36,0,0,1,55.36,2H451.11m0-2H55.36A55.42,55.42,0,0,0,0,55.36V324.49a55.42,55.42,0,0,0,55.36,55.36H451.11a55.42,55.42,0,0,0,55.36-55.36V55.36A55.42,55.42,0,0,0,451.11,0Z"/><path class="cls-5" d="M490.62,392.55a30.76,30.76,0,1,1,21.75-9A30.57,30.57,0,0,1,490.62,392.55Z"/><path class="cls-3" d="M490.62,332.54a29.25,29.25,0,1,1-20.69,8.56,29.16,29.16,0,0,1,20.69-8.56m0-3A32.25,32.25,0,1,0,513.43,339a32,32,0,0,0-22.81-9.44Z"/><path class="cls-3" d="M483.6,352.4a2.12,2.12,0,0,1,2.31-2.34h5.28c4.62,0,7.47,2.07,7.47,6.78,0,3.3-2.49,5.19-5.55,5.67l5.1,5.46a1.94,1.94,0,0,1,.6,1.32,2.28,2.28,0,0,1-4,1.53l-6.66-8.07h-.06v6.51a2.25,2.25,0,1,1-4.5,0Zm4.5,7.11h3.09a2.55,2.55,0,0,0,2.79-2.67,2.52,2.52,0,0,0-2.79-2.64H488.1Z"/><ellipse class="cls-6" cx="153.34" cy="231.41" rx="57.95" ry="25.55"/><ellipse class="cls-6" cx="283.15" cy="289.2" rx="48.91" ry="21.56"/><path class="cls-7" d="M183.11,186.41,261.37,134a16.06,16.06,0,0,1,13.32-2.1h0c14,4,15.91,23.12,2.93,29.69-31,15.71-66.23,39.28-49.14,59.25,28.57,33.36-16.17,57,22.44,56.31s86.94-5.61,61.3,13.43-48.6,55.17-8.55,31.25,142.58-55.74,146.49-75.44-2-54.92,5.13-55.78"/><path class="cls-8" d="M139.68,171.59c3.78-2.18,7.24-2.56,9.88-1.41.38.17,3.89,2.2,3.89,2.2a39.85,39.85,0,0,1,1.23,7.86c0,9.55-6.73,21.2-15,26a20.09,20.09,0,0,1-8.09,2.48s-2.84-1.63-3.19-1.88c-2.31-1.72-3.71-4.89-3.71-9.25C124.69,188,131.42,176.36,139.68,171.59Z"/><path class="cls-9" d="M142.66,176c3.23-1.86,6.19-2.18,8.45-1.2.32.14,3.32,1.88,3.32,1.88a34.19,34.19,0,0,1,1,6.73c0,8.16-5.75,18.12-12.82,22.2a17.2,17.2,0,0,1-6.92,2.12s-2.43-1.39-2.73-1.61c-2-1.47-3.17-4.18-3.17-7.91C129.84,190.07,135.59,180.1,142.66,176Z"/><ellipse class="cls-10" cx="142.59" cy="190.58" rx="21.2" ry="12.24" transform="translate(-93.75 218.78) rotate(-60)"/><path class="cls-11" d="M115.53,217.92l2.85,3.34s-4,3.51-3.76,7.47c.15,2.33,1.78,4.53,4.92,6.61,12.3,8.75,21.83,2.45,24.55.9s4.15,2.9.71,4.74a22.45,22.45,0,0,1-12,3.49c-4.37,0-9.57-1.13-15.73-5.51-4.3-2.83-6.6-6.19-6.83-10C109.86,222.81,115.3,218.11,115.53,217.92Z"/><path class="cls-11" d="M153.15,175.48c13.24-6.39,31.36,1.79,37.34,8.54,3.76,4.44,2.24,15.07,2.36,21.58.09,5,.23,9.67.06,12.19a3,3,0,0,1-1.6,2.62c-7.06,4.28-33.82,21.54-42.48,22.71-3.31.45-9-.66-14.84-2.86-9.36-3.55-18.93-9.94-18.93-17.2V217.7S140.73,181.46,153.15,175.48Z"/><path class="cls-12" d="M153.15,170.11c13.24-6.38,30.91,6.57,36.88,13.32,1.72,1.95,2.21,5.56.56,8.89-.49,1-4.86,5.74-11.26,11.79-15.48,14.66-38.26,34.18-50.83,28.36-7.27-3.68-13.44-8.94-13.44-14.77C115.06,191,139.91,176.5,153.15,170.11Z"/><path class="cls-8" d="M184.42,198.36c3.78-2.18,7.24-2.56,9.88-1.4.38.16,3.89,2.19,3.89,2.19a39.86,39.86,0,0,1,1.23,7.87c0,9.54-6.73,21.19-15,26a20.17,20.17,0,0,1-8.09,2.47s-2.84-1.63-3.19-1.88c-2.31-1.72-3.71-4.89-3.71-9.25C169.43,214.78,176.16,203.13,184.42,198.36Z"/><path class="cls-9" d="M186.9,202.73c3.1-1.8,5.94-2.1,8.11-1.16.31.14,3.19,1.81,3.19,1.81a32.79,32.79,0,0,1,1,6.46c0,7.84-5.52,17.41-12.31,21.33a16.53,16.53,0,0,1-6.65,2s-2.34-1.33-2.62-1.54c-1.9-1.41-3-4-3-7.6C174.58,216.22,180.1,206.65,186.9,202.73Z"/><path class="cls-13" d="M172.6,225.85c0,9.38,6.61,13.19,14.73,8.5s14.73-16.12,14.73-25.5-6.61-13.19-14.73-8.5S172.6,216.48,172.6,225.85Zm3.49-2c0-7.16,5-15.89,11.24-19.47s11.25-.67,11.25,6.49-5.05,15.9-11.25,19.48S176.09,231,176.09,223.84Z"/><ellipse class="cls-13" cx="187.33" cy="217.35" rx="3.79" ry="2.19" transform="translate(-94.57 270.91) rotate(-60)"/><path class="cls-13" d="M192.44,198.89a118.66,118.66,0,0,0-3.35,16.67l-1.76-.42-1.76,2.45a54.24,54.24,0,0,0-3.35-12.8c1.81-1.42,5.11-4.19,5.11-4.19S190.63,199.56,192.44,198.89Z"/><path class="cls-13" d="M198.53,200.49c.87,1.36,2.59,3.72,2.59,3.72s.32,3.71.56,5.67a89.89,89.89,0,0,0-13.17,8.48l.65-2.75-1.74-.48A148.48,148.48,0,0,0,198.53,200.49Z"/><path class="cls-13" d="M189.15,215.73a31,31,0,0,0,10.21,3.76c-1.27,2.26-3.51,6.49-3.51,6.49s-3.1,3.34-4.76,5.21a46.42,46.42,0,0,0-4.79-11.42l2.16-1.28Z"/><path class="cls-13" d="M186.2,219.79l2.16-1.21a129.29,129.29,0,0,0-4.79,17c-1.66,0-4.76.28-4.76.28s-2.24-1.64-3.51-2.44a151.46,151.46,0,0,0,10.21-15.55Z"/><path class="cls-13" d="M176.13,213.41a33.51,33.51,0,0,0,11.11,1.82l-1.73,2.49.64,2A78.89,78.89,0,0,0,173,226.45c.24-2.24.56-6.31.56-6.31S175.26,215.78,176.13,213.41Z"/><path class="cls-10" d="M172.34,226c0,9.54,6.72,13.43,15,8.65s15-16.42,15-26-6.72-13.43-15-8.65S172.34,216.46,172.34,226Zm2.67-1.55c0-7.84,5.53-17.41,12.32-21.33s12.32-.73,12.32,7.11-5.53,17.41-12.32,21.33S175,232.3,175,224.46Z"/><path class="cls-14" d="M133.19,200.4c5-1.07,9.95,1.87,10.25,7.18.32,5.88-5.07,10.78-11,10.4a7.84,7.84,0,0,1-7.55-8.81A10.63,10.63,0,0,1,133.19,200.4Z"/><path class="cls-15" d="M133.09,202.78c3.46-.6,6.62,1.57,6.7,5.11a7.11,7.11,0,0,1-7.21,7,5.32,5.32,0,0,1-5.43-5.88A7.29,7.29,0,0,1,133.09,202.78Z"/><path class="cls-11" d="M145.47,178.69l7.45-4.3a10,10,0,0,1,9.06,0c2.5,1.44,2.5,3.79,0,5.23l-7.45,4.3a10,10,0,0,1-9.06,0C143,182.48,143,180.13,145.47,178.69Z"/><path class="cls-11" d="M162.57,188.63l7.45-4.3a10,10,0,0,1,9.06,0c2.5,1.44,2.5,3.79,0,5.23l-7.45,4.3a10,10,0,0,1-9.06,0C160.07,192.42,160.07,190.07,162.57,188.63Z"/><polygon class="cls-16" points="182.84 245.73 153.51 262.66 153.51 260.14 182.84 243.21 182.84 245.73"/><path class="cls-17" d="M153.51,262.66a17.73,17.73,0,0,1-5.53-2c-2.75-1.57-3.1-3-3.1-3v-2.53l8.63,5Z"/><path class="cls-18" d="M174.21,238.22s1.51-.37,4.76,1.38,3.87,3.61,3.87,3.61l-29.33,16.93a15.11,15.11,0,0,1-5.15-1.63,8.77,8.77,0,0,1-3.48-3.36,88.82,88.82,0,0,1,15.34-10.79A78.94,78.94,0,0,1,174.21,238.22Z"/><path class="cls-19" d="M167.93,247.73a2.11,2.11,0,0,1-1.19,1.78,6.65,6.65,0,0,1-6,.18,2.12,2.12,0,0,1-1.3-1.7l-2-98.23,8.4-.31Z"/><path class="cls-20" d="M158.48,147.9a6.66,6.66,0,0,1,6-.18c1.69.9,1.74,2.46.1,3.47a6.63,6.63,0,0,1-6,.18C156.44,150.22,157.73,148.36,158.48,147.9Z"/><path class="cls-21" d="M136.23,207.38c0-.46-.07-.91-.12-1.37A3.6,3.6,0,0,1,136.23,207.38Z"/><path class="cls-21" d="M104.24,185.36c6.33-1.36,12.93,2.1,18,5.55,5.29,3.62,10.61,8.5,13.57,14.27a4.34,4.34,0,0,1,.33.83c0,.46.09.91.12,1.37-.31,3.43-5.33,5.56-7.27,1.79-3.66-7.11-11.72-13.57-19.35-15.8-6.78-2-11.9,4.23-12,10.45-.13,7,4,13.85,8.78,18.66,5.47,5.55,12.12,7.4,19.6,5.33,9.3-2.57,10.93-11.38,10.26-20.43a3.6,3.6,0,0,0-.12-1.37,151.12,151.12,0,0,0-2.69-15.28,215.72,215.72,0,0,1-4-42c0-12.41,2.06-47.85,23.63-38.29,12.93,5.73,13.35,26.94,12.44,38.91-.38,2.64-7.83,2.95-7.75-.35.69-9.16.41-20.49-4.66-28.45-2.43-3.82-7.69-4.91-10.53-1-3.86,5.32-4.43,13.07-4.9,19.39a175.15,175.15,0,0,0,2,42.53c2.46,13.91,8.19,30.47,1.4,44-5.05,10-19.23,13.48-29.21,9.88-10.79-3.9-19-14.66-21.48-25.63C87.91,199,92.91,187.79,104.24,185.36Z"/><polygon class="cls-22" points="201.97 108.28 216.87 85.18 203.24 109.06 201.97 108.28"/><polygon class="cls-22" points="200.81 116.35 215.7 93.25 202.08 117.12 200.81 116.35"/><polygon class="cls-22" points="288.77 209.51 303.67 186.41 290.04 210.28 288.77 209.51"/><polygon class="cls-22" points="332.07 238.8 346.96 215.7 333.33 239.57 332.07 238.8"/><polygon class="cls-22" points="285.01 221.44 299.9 198.34 286.28 222.21 285.01 221.44"/><path class="cls-23" d="M277.94,162.46a15.65,15.65,0,0,0,4.5,4,35.72,35.72,0,0,1,7.34-.28c.63,1.65-1.87,2.3-3.16,2.3.88,1.17,3.35,1.83,4.33,2.9,3.1,3.16-.56,2.87-.79,3.17-.78,1.07-2.8,3.72-4.27,3.79-1.48.25-1.66-.4-2.71-1.19-1.24-1-1.7-2-2.68-3.27s-1.15-2.75-1.84-3.93c-.6-.71-3.87-2.81-3.82-3.83,0-1.21,1.63-1.46,2.43-2.16"/><path class="cls-24" d="M338.18,236a8.13,8.13,0,0,1,4.31.58c3.82,1.62,4.07,1.28,3.39,3.56s-2.62,6.25-6,11.28c-3.1,4.63-6.69,9.79-9.59,11.52-1,.59-1.91-.14-2.72-1.4s3.8-6.46,4.48-9.4c.36-1.61.88-4.71.35-4.92l.29.12Z"/><path class="cls-24" d="M260.51,297.85c-.16-1.59,6.93-4.6,9-7.14a31.19,31.19,0,0,0,3.5-7.2L283.59,278a13.69,13.69,0,0,1,2.76,2.59c2.79,3.36,3.08,3.14,1.36,5s-5.44,4.82-10.94,8.13c-5.07,3-10.87,6.36-14.37,6.68C261.2,300.59,260.68,299.44,260.51,297.85Z"/><path class="cls-25" d="M271.35,284.44s-14.53-35.28-16.67-45.51c-.87-4.22-2.78-12.83-4.61-21.16-.92-4.19-1.82-8.31-2.57-11.76,8.16,4.54,16.65,4.89,21.52,11.2l14.63,62.53-.39.15-11.17,4.27Z"/><path class="cls-26" d="M255.87,211.19c-2.21-1.06-3.81-1.87-4.44-2.23-1.23-.71-3.71-1.43-4.86-2.2,10.57-7.65,17.56-20.37,19.1-24.16a23,23,0,0,1,4.88,8.86c.71,2.34,24.7,20.7,24.7,20.7l43.09,23.51-.16.37-5.48,11.34-.29-.12C304,235.72,297.76,231.83,287,226.47c-.28-.14-.53-.46-.86-.62C279.41,222.53,263.78,215,255.87,211.19Z"/><path class="cls-27" d="M324.39,227.28l.36.72Z"/><path class="cls-23" d="M210.24,162.21a34.08,34.08,0,0,0-11.46,14.95c-4.17,10.18-8.32,17.93-11.07,28.51-1,3.85-2.72,8.77-1.85,9.82s4.61,2.3,4.84.63c.71-5.15,5.39-15.47,7.66-19.44,3.64-6.61,5.83-9.34,9.2-16.06,1.2-2.4,5.58-4.65,6.66-7.26,1.2-3.1.7-3.54-1.11-6.59-.74-1.54-1.8-3.05-2.55-4.58"/><path class="cls-28" d="M210.56,162.19c.75,1.53,1.81,3,2.55,4.58,1.81,3,2.31,3.49,1.11,6.59-1.08,2.61-4,4.63-5.21,7-1.3,2.6-3.17,5.43-4.51,7.74l-9.6-2.29c.87-1.95,3-6.62,3.88-8.69a34.08,34.08,0,0,1,11.46-14.95"/><path class="cls-29" d="M233.86,157.06c-3.4-3.37-5.58-11.06-11.45-8.59-2.86,1.2-7.57,6.12-9.91,9a22.26,22.26,0,0,0-4.59,8.19l-.08,1.9c4.37,6.69,10.32,13.35,12.56,15.21,8.36,6.95,23.54,21.09,26.42,24.39,7.76-6.24,7.63-3.95,12.81-12.73,2.82-4.79,6.62-9.67,6.73-13.89C257.5,176.6,240.84,163.92,233.86,157.06Z"/><path class="cls-30" d="M203,154.44a25.8,25.8,0,0,1,8,7.77l1.77-.55c3.44-1.17,6.54-8.2,6.25-10-.06-.38-2.05-1-4.88-3-4.1-2.88-4.6-3.76-7.55.11-1.38,1.78-2.33,3.82-3.87,5.52"/><path class="cls-23" d="M164.92,135.9c6.66,11.68,20.88,27.49,26.11,26.89,14.83-1.68,15.24-.45,19.94-9.74a55,55,0,0,0,4.65-12.22c1.15-5,.65-5.19-1.24-8.89-.39-.77,6.35-7-.79-15-3.6-4-7.71-2.23-10.45,1.48-15.79-12.78-38.3-5.53-39,14.55"/><g class="cls-31"><path class="cls-32" d="M183.26,116.72c3.88-12,12.67-9,19.88,1.72,2.74-3.71,6.85-5.48,10.45-1.48,7.14,7.93.4,14.21.79,15,1.89,3.7,2.39,3.86,1.24,8.89A55,55,0,0,1,211,153.05s1.51-21.73-15.35-32.19c0,0-6.46-4.27-10.28-3.48l-2.08-.66"/></g><path class="cls-33" d="M187.91,135.16c2.13-2.88,4.22-8.12,6.77-10.75,1.42-1.46-.51-2-2.12-.68a23.67,23.67,0,0,0-7,9.24c-.85,1.87,1.13,3.86,2.36,2.19Z"/><path class="cls-33" d="M179.49,141.68c-2.32,1.58-6.45,3-8.57,5-1.19,1.06-1.53-.45-.46-1.67a18.62,18.62,0,0,1,7.38-5.21c1.49-.6,3,1,1.65,1.91Z"/><path class="cls-34" d="M213.58,123.55a25.72,25.72,0,0,0-2.29,1.32,11,11,0,0,1-2.16-5.28c-.38-1.9-1.16-1.32-.89-.37.64,2.33.91,4.7,2.29,6.74a.8.8,0,0,0,1.23.11c.74-.63,1.44-1.3,2.24-1.87S214.4,123,213.58,123.55Z"/><path class="cls-35" d="M192.32,151.94c-.88-.95.57-4.11-1.51-5.65-1.12-.9-5.44-3.92-6.72-3.37,0,0,5.33,2.58,6.37,4.63.73,1.57-.23,4.5,1,5.61,1,.87,4.41-.42,4.7-1.79C196.32,150.74,193.42,152.59,192.32,151.94Z"/><path class="cls-23" d="M186,213.12a16.55,16.55,0,0,1-2.31,5.84,38.62,38.62,0,0,0-7,3.21c.19,1.83,2.83,1.26,4,.65-.28,1.5-2.26,3.28-2.66,4.73-1.4,4.42,1.87,2.42,2.22,2.6,1.23.61,4.35,2.13,5.76,1.49,1.49-.45,1.35-1.14,2-2.37.71-1.48.64-2.68,1-4.3s-.24-3.11-.14-4.53c.21-.94,2.27-4.45,1.75-5.37-.61-1.11-2.21-.6-3.29-.86"/><path class="cls-23" d="M219.28,153.21c.45,3.47,7.37.92,10.43.28l11-.43c4.7.57,11.3.87,15.7,2.57,3.79,1.5,19.4,10.45,23.61,13.59,3.46-2.69,2.5-2.72,2.45-3.13-.11-.92-17.17-16-24.13-18.61-5.13-2-2.95-1.25-8.27-2.64-7.59-2-17.15-.85-24.48,1.67C222.4,147.66,218.74,149.23,219.28,153.21Z"/><path class="cls-28" d="M248.2,154.42c-2.7-.34-5.42-.55-7.69-.83l-11,.44c-3.06.64-10,3.19-10.42-.29-.55-4,2.68-6.89,5.83-8,7.34-2.52,17.5-3.56,25.08-1.59Z"/><path class="cls-28" d="M214.81,158.84l5,.86.16-9.89a12,12,0,0,0-2.87.5,12.27,12.27,0,0,0-1.82,1.46Z"/><path class="cls-28" d="M212.9,160.93l.77,4.75-5.42-1.52.37-2.69,1.16-1.24S211.73,161.6,212.9,160.93Z"/><path class="cls-36" d="M165.1,119.55c1.61-3.42,9.79-14.49,13.19-16.9,2.29-1.61,14.65-5.27,17.91-2.12l1,2.35c4.07-.12,10,4.36,14.18,12.27-2.34-1-6.9.33-6.78,2.48,0,.54,1.56,3.32,2.42,5.5.67,1.66-2.67,1-3.93-.48s-2.66-3.44-3.46-4.37c-1.37-1.59-5.36-5.77-8.77-6-5.7-.58-11.64,9.75-15.07,12.55-4.33,3.54-10.18,4.26-11.05,8C163.6,129.42,161.93,126.28,165.1,119.55Z"/><path class="cls-36" d="M171.4,112.11s-7.6,6.89-8.83,12.73c0,0-2.86,3.13-5.62,4.15,0,0-2.44-.38.48,1.75l2.9,2.12a10.42,10.42,0,0,0,4.06,3.07s11.72-4.59,15-16.17Z"/><path class="cls-3" d="M192,139.84a5.8,5.8,0,0,0,1,.8c.41.22.7.29.77.52s.1.35.35.31.21-.19.42-.29a9.7,9.7,0,0,0,3.55-2.77,13.8,13.8,0,0,0,2.35-4.62,3.63,3.63,0,0,0,.18-1.37c-.08-.61.2-1.91-.2-2.13a6.3,6.3,0,0,0-3.87.67c-1.19.74-6.62,5.17-6.26,6.26A6.25,6.25,0,0,0,192,139.84Z"/><path class="cls-37" d="M197.53,137.26a2.43,2.43,0,1,0-3.43.34A2.44,2.44,0,0,0,197.53,137.26Z"/><path class="cls-38" d="M194.48,134.75a1.51,1.51,0,1,1,.2,2.13,1.52,1.52,0,0,1-.2-2.13m-1.43-1.17a3.36,3.36,0,1,0,4.73-.46,3.36,3.36,0,0,0-4.73.46Z"/><g class="cls-39"><path class="cls-3" d="M193.5,138.31a3.36,3.36,0,1,0,4.28-5.19s.05,2.64-.82,3.68S193.5,138.31,193.5,138.31Z"/></g><g class="cls-39"><path class="cls-3" d="M194.05,138.25a3,3,0,0,0,3.78-4.6,7.06,7.06,0,0,1-.94,3.09A7,7,0,0,1,194.05,138.25Z"/></g><g class="cls-40"><path class="cls-37" d="M193.5,138.31c1.45,1.19-.35-2.24.83-3.69s4.89-.32,3.45-1.5a3.36,3.36,0,0,0-4.28,5.19Z"/></g><path d="M194.56,137a1.71,1.71,0,0,0,2.17-2.65,1.71,1.71,0,0,0-2.17,2.65Z"/><path class="cls-3" d="M192.6,137.19a1.27,1.27,0,1,0-.18-1.8A1.27,1.27,0,0,0,192.6,137.19Z"/><path class="cls-3" d="M196.77,135.61c.12.44.77.64,1.45.46s1.12-.69,1-1.13-.77-.65-1.45-.46S196.65,135.17,196.77,135.61Z"/><path class="cls-41" d="M196.55,136.05c.12.44.77.64,1.45.46s1.13-.7,1-1.14-.78-.64-1.45-.45S196.43,135.61,196.55,136.05Z"/><path class="cls-42" d="M193,137.14a1.27,1.27,0,1,0-.17-1.79A1.27,1.27,0,0,0,193,137.14Z"/><path class="cls-43" d="M200.39,133.79l-.85-2.2A6.46,6.46,0,0,0,197,132c-.6.45-5.09,4.33-5.2,5.39s-.33,1.71.18,2.41c0,0-1.71-1.34-1.72-2.36s4.09-5.56,6.45-6.58,3.44-.89,3.71-.57S200.44,133.6,200.39,133.79Z"/><path class="cls-44" d="M189.63,138.06c.28.17.58.06.84.23l.05.07a5.06,5.06,0,0,0,.6.78,5.29,5.29,0,0,0,.45.43l.16.14.23.13-.33-.35a.94.94,0,0,1-.2-.2,3,3,0,0,1-.63-2.58c.37-.86,2.7-3.14,4.31-4.41l1.17-.85.18-.14h0l0,0h0l.06-.05.36-.15c.26-.08.53-.16.79-.22.55-.13,1.07-.22,1.57-.29a6.5,6.5,0,0,1,.73-.08h.16s0,.06,0,.08c0,.2.06.42.07.63s0,.4,0,.58c0,.36,0,.69,0,1,0,.53,0,.83,0,.83l0,.23a2.66,2.66,0,0,0,.14-.43c0-.15.07-.36.11-.62s.08-.59.11-1c0-.18,0-.39.06-.6a5.22,5.22,0,0,0,0-.68,1.49,1.49,0,0,0,0-.21l0-.06s0,0,0,0l0-.05v0l-.05-.07,0,0,0,0,0,0h-.05l-.07,0h-.08l-.12,0-.21,0a7.12,7.12,0,0,0-.8,0,10.4,10.4,0,0,0-1.68.26,6.26,6.26,0,0,0-.87.28,2.57,2.57,0,0,0-.45.21s-3.95,2.45-5.53,4.55S189.3,137.87,189.63,138.06Zm10.56-7.65h0Z"/><path class="cls-3" d="M185.19,146.19a4.86,4.86,0,0,1,.65.84c.18.35.23.59.4.66s.29.08.26.29-.16.18-.25.34a7.92,7.92,0,0,1-2.37,2.89,11.65,11.65,0,0,1-3.88,1.87,3,3,0,0,1-1.15.12c-.5-.08-1.59.14-1.76-.2a5.24,5.24,0,0,1,.63-3.2c.64-1,4.42-5.4,5.32-5.09A5.23,5.23,0,0,1,185.19,146.19Z"/><path class="cls-37" d="M182.94,150.77a2,2,0,1,1,.34-2.85A2,2,0,0,1,182.94,150.77Z"/><path class="cls-38" d="M180.91,148.19a1.26,1.26,0,1,1-.21,1.76,1.27,1.27,0,0,1,.21-1.76M180,147a2.8,2.8,0,1,0,3.93.48A2.81,2.81,0,0,0,180,147Z"/><g class="cls-39"><path class="cls-3" d="M183.89,147.45a2.8,2.8,0,1,1-4.4,3.45s2.2.09,3.08-.61S183.89,147.45,183.89,147.45Z"/></g><g class="cls-39"><path class="cls-3" d="M183.83,147.89a2.53,2.53,0,0,1-3.9,3.06,3.49,3.49,0,0,0,3.9-3.06Z"/></g><g class="cls-40"><path class="cls-37" d="M183.89,147.45c1,1.22-1.87-.35-3.08.61s-.37,4.06-1.32,2.84a2.8,2.8,0,1,1,4.4-3.45Z"/></g><path d="M182.81,148.3a1.42,1.42,0,1,1-2-.24A1.42,1.42,0,0,1,182.81,148.3Z"/><path class="cls-3" d="M183,146.67a1.05,1.05,0,0,1-.18,1.48,1.06,1.06,0,0,1-1.49-.18,1.06,1.06,0,0,1,1.67-1.3Z"/><path class="cls-3" d="M181.58,150.1c.36.12.52.65.35,1.21s-.59.93-1,.82-.52-.64-.35-1.21S181.22,150,181.58,150.1Z"/><path class="cls-41" d="M182,149.94c.36.1.52.64.35,1.2s-.59.94-1,.82-.53-.65-.36-1.21S181.59,149.83,182,149.94Z"/><path class="cls-42" d="M182.93,147a1.05,1.05,0,0,1-.18,1.48,1.05,1.05,0,1,1-1.3-1.66A1.05,1.05,0,0,1,182.93,147Z"/><path class="cls-43" d="M180,153.08l-1.81-.75a5.59,5.59,0,0,1,.41-2.12c.39-.49,3.71-4.15,4.58-4.21s1.43-.25,2,.19c0,0-1.08-1.44-1.93-1.47s-4.7,3.29-5.59,5.22-.81,2.85-.55,3.08A10.37,10.37,0,0,0,180,153.08Z"/><path class="cls-44" d="M181.31,145.07a21.61,21.61,0,0,0-3.87,4.51,3.35,3.35,0,0,0-.2.37c-.1.25-.17.48-.24.72a9.16,9.16,0,0,0-.25,1.38,5,5,0,0,0,0,.67,1.15,1.15,0,0,0,0,.18.38.38,0,0,0,0,.1v0l0,0s0,0,0,.05v0h0v0l0,0v0l0,0,.05,0,0,0H177l.05,0,.17,0a3.79,3.79,0,0,0,.57,0l.5,0c.31,0,.59-.05.8-.08s.4,0,.51-.07a1.7,1.7,0,0,0,.37-.11l-.18,0s-.26,0-.71,0l-.79-.06-.48,0-.52-.07-.06,0v0a.45.45,0,0,0,0-.12c0-.19,0-.38.07-.6.07-.41.16-.86.27-1.3.06-.22.13-.44.21-.65a2.55,2.55,0,0,1,.13-.29l0-.06,0,0h0v0h0l.11-.15.73-1a17.36,17.36,0,0,1,3.75-3.51,2.48,2.48,0,0,1,2.13.58,1.52,1.52,0,0,1,.18.17,3,3,0,0,0,.27.28l-.11-.18-.11-.16a4.87,4.87,0,0,0-.35-.37A4.71,4.71,0,0,0,184,145l-.07,0c-.13-.22,0-.48-.16-.71S183.09,143.81,181.31,145.07Zm-4.12,7.78Z"/><path class="cls-45" d="M206.38,151.33c.46,1.34-2.37,2.19-4.88,4.16s-4.19,4.33-5.34,3.54-1.23-5.4,2.08-7.89S206,150,206.38,151.33Z"/><path class="cls-46" d="M199.89,154a9.17,9.17,0,0,0-2.43,2.34c-.57.81-.83,1.79-1.36,2.6a.17.17,0,0,0,.06.06c1.15.79,2.76-1.69,5.34-3.54,1.68-1.32,3.5-2.14,4.39-2.94A11.45,11.45,0,0,0,199.89,154Z"/><path class="cls-3" d="M203.6,149.84a7,7,0,0,0-8.1,6.1Z"/><path class="cls-7" d="M267.73,276.64s-.93,3.79,15.92-.49"/><path class="cls-7" d="M265.59,272.12s-.94,3.79,15.91-.49"/><path class="cls-7" d="M263.89,267.6s-1,3.79,17-.49"/><path class="cls-7" d="M262.22,263.09s-1.05,3.78,17.66-.49"/></g></g></g></svg>