<svg xmlns="http://www.w3.org/2000/svg" xmlns:xlink="http://www.w3.org/1999/xlink" viewBox="0 0 481.41 379.85"><defs><style>.cls-1,.cls-5{fill:none;}.cls-2{isolation:isolate;}.cls-3{fill:#93d500;}.cls-37,.cls-38,.cls-4{fill:#fff;}.cls-5{stroke:#93d500;stroke-linecap:round;stroke-miterlimit:10;stroke-width:2px;}.cls-6{fill:#b4b4b3;}.cls-7{fill:#8d8d8d;}.cls-8{fill:#a7a6a6;}.cls-9{fill:#9c9b9b;}.cls-10{fill:#00b0c2;}.cls-11{fill:#a2a2a2;}.cls-12{fill:#8b8b8a;}.cls-13{fill:#80807f;}.cls-14{fill:#008997;}.cls-15{fill:#81c9c7;}.cls-16,.cls-36,.cls-62,.cls-66,.cls-68,.cls-69,.cls-70,.cls-71{mix-blend-mode:multiply;}.cls-17{fill:#a6afbe;}.cls-18{fill:#dcdcdc;}.cls-19{fill:#888588;}.cls-20{fill:#cfcdcf;}.cls-21{fill:#bab7bb;}.cls-22{fill:#facfa6;}.cls-23{fill:#dddee2;}.cls-24{fill:#b3b3b3;}.cls-25{fill:#e8e8eb;}.cls-26{fill:#f8d09c;}.cls-27{opacity:0.6;}.cls-28{fill:#f6c086;}.cls-29{fill:#513e40;}.cls-30{fill:#e6b580;}.cls-31{fill:#ac8a78;}.cls-32{fill:#2a1c1c;}.cls-33{fill:#784f39;}.cls-34{fill:#402b1e;}.cls-35,.cls-37,.cls-38,.cls-49,.cls-59{mix-blend-mode:overlay;}.cls-35,.cls-36{opacity:0.4;}.cls-37,.cls-71{opacity:0.3;}.cls-39{opacity:0.1;}.cls-40{fill:#3e4040;}.cls-41{fill:#e2551c;}.cls-42{fill:#ab4412;}.cls-43{fill:#d1d1d1;}.cls-44{fill:#141c26;}.cls-45{fill:#2d4057;}.cls-46{fill:#8196b3;}.cls-47{clip-path:url(#clip-path);}.cls-48{fill:url(#linear-gradient);}.cls-50{fill:#f3f8fa;}.cls-51{fill:#ccc;}.cls-52{fill:#999;}.cls-53{fill:#4c4c4c;}.cls-54,.cls-59{fill:#333;}.cls-55{fill:gray;}.cls-56{fill:#656565;}.cls-57{fill:#a4a4a4;}.cls-58{fill:#474747;}.cls-60{fill:#464646;}.cls-61{fill:#696969;}.cls-62{fill:#ebc286;}.cls-62,.cls-66,.cls-68,.cls-69,.cls-70{opacity:0.5;}.cls-63{fill:#e64047;}.cls-64{fill:#f0845d;}.cls-65{fill:#e3363d;}.cls-66{fill:#f2946f;}.cls-67,.cls-68{fill:#662d91;}.cls-69{fill:#ffb294;}.cls-70{fill:#76afcf;}.cls-71{fill:#89131c;}.cls-72{fill:#25435c;}.cls-73{fill:#ff9a73;}.cls-74{fill:#00877a;}</style><clipPath id="clip-path"><polygon class="cls-1" points="188.41 158.89 188.41 106.06 112.92 149.64 112.92 202.47 188.41 158.89"/></clipPath><linearGradient id="linear-gradient" x1="-13495" y1="4287.85" x2="-13495" y2="4211.92" gradientTransform="matrix(-1, 0.58, 0, 1, -13345.14, 3706.37)" gradientUnits="userSpaceOnUse"><stop offset="0" stop-color="#d9b6a1"/><stop offset="1" stop-color="#b87756"/></linearGradient></defs><g class="cls-2"><g id="Capa_2" data-name="Capa 2"><g id="Capa_1-2" data-name="Capa 1"><path class="cls-3" d="M183,87.5a30.74,30.74,0,1,1,21.75-9A30.54,30.54,0,0,1,183,87.5Z"/><path class="cls-4" d="M183,27.49a29.26,29.26,0,1,1-20.69,8.57A29.19,29.19,0,0,1,183,27.49m0-3a32.26,32.26,0,1,0,22.81,9.45A32,32,0,0,0,183,24.49Z"/><line class="cls-5" x1="203.66" y1="77.43" x2="217.26" y2="91.04"/><path class="cls-4" d="M180.35,47.52a2.25,2.25,0,1,1,4.5,0v17a2.25,2.25,0,1,1-4.5,0Z"/><path class="cls-6" d="M231.88,97.73s-1.85.17-7-4.33l-3.57,4.67s4.2,1.56,3.35,5.27Z"/><path class="cls-7" d="M241.27,115.54c3.72-7.65-1.69-12.06-1.69-12.06L232.37,98c-5.24-2.83-7,3.83-7,3.83L224,104.68c-1.69,3,.47,4.37.47,4.37l5.14,3.93c1.52,1,3.2-.73,3.2-.73l2.81-2.72a2.05,2.05,0,0,1,2.85,0A15.56,15.56,0,0,1,241.27,115.54Z"/><rect class="cls-8" x="219.94" y="112.02" width="8.87" height="4.03" transform="translate(-2.38 223.26) rotate(-52.66)"/><path class="cls-9" d="M227.18,99.7l0,0h-.06a12.2,12.2,0,0,1-5.06-2.6l-.77,1s4.2,1.56,3.35,5.27l3.54-2.73C227.82,100.31,227.5,100,227.18,99.7Z"/><path class="cls-9" d="M226.43,95a9.12,9.12,0,0,0,2,2.65c.53.51,1.07,1,1.64,1.48l1.76-1.36s-1.51.14-5.63-3.15Z"/><path class="cls-10" d="M201,150.54a1.91,1.91,0,0,1-2.68.36l-2.7-2.06a1.91,1.91,0,0,1-.36-2.69c4-2.85,14.78-19.38,14.78-19.38,1.77-3.73,8.08-10.59,8.08-10.59a1.92,1.92,0,0,1,2.69-.36l2.7,2.05a1.93,1.93,0,0,1,.36,2.69s-3.83,6.6-8,10.56C215.86,131.12,203.56,144.89,201,150.54Z"/><path class="cls-11" d="M228.49,110.14a5.54,5.54,0,0,1-1.78-.94c-1.5-1.37-.54-3.43.27-4.9s.83-3.15,2.22-4.23c1.94-1.5,4.35-.37,6.06.92a25.14,25.14,0,0,1,2.58,2.26l.69.7a1.07,1.07,0,0,1,.59.26,2.57,2.57,0,0,0,1.64.58,7.71,7.71,0,0,0-1.18-1.31L232.37,98c-5.24-2.83-7,3.83-7,3.83L224,104.68c-1.69,3,.47,4.37.47,4.37l5.14,3.93c1.52,1,3.2-.73,3.2-.73l.44-.43c-.62-.18-1.25-.37-1.87-.58C230.38,110.92,229.45,110.5,228.49,110.14Z"/><path class="cls-12" d="M225,92.64l-1.42-1.08a.41.41,0,0,0-.11-.07L219,97.31l.1.09,1.42,1.08a.64.64,0,0,0,.9-.12l3.68-4.82A.64.64,0,0,0,225,92.64Z"/><path class="cls-11" d="M224.66,92.67l-.31-.24a.59.59,0,0,1,.11.84L221,97.8a.6.6,0,0,1-.84.12l.3.23a.61.61,0,0,0,.85-.11l3.45-4.53A.6.6,0,0,0,224.66,92.67Z"/><path class="cls-13" d="M221.65,94.71c-1.22,1.6-2.39,2.77-2.6,2.6s.6-1.59,1.82-3.2,2.39-2.76,2.6-2.6S222.87,93.11,221.65,94.71Z"/><path class="cls-14" d="M223.91,120.56a1.93,1.93,0,0,0-.36-2.69l-.67-.51c-1.75,3-3.38,6.1-5.75,8.62-2.69,2.84-5.92,5.19-8.12,8.47-1.76,2.6-9.48,13.3-11.34,15.92l.69.53a1.91,1.91,0,0,0,2.68-.36c2.52-5.65,14.82-19.42,14.82-19.42C220.08,127.16,223.91,120.56,223.91,120.56Z"/><path class="cls-15" d="M221.94,117.23a2.5,2.5,0,0,0-1.74-.61,2.37,2.37,0,0,0-1.55.85l-.31.36-.3.37-.61.74-1.2,1.5c-.4.51-.79,1-1.17,1.52s-.77,1-1.14,1.54-.73,1-1.07,1.58a15.57,15.57,0,0,0-.95,1.62c-.59,1.15-1.21,2.28-1.87,3.39-.33.56-.67,1.11-1,1.66s-.71,1.08-1.09,1.61-6.8,9-7.22,9.48a13.09,13.09,0,0,1-1.36,1.43l-.77.6-.75.59a17.19,17.19,0,0,0-1.41,1.27l0,0h0a.63.63,0,0,0-.13.11,1.3,1.3,0,0,0-.1.15.89.89,0,0,0-.11.35,1.15,1.15,0,0,0,0,.19,1.36,1.36,0,0,0,.11.38l.09.18.12.18.13.17a3.92,3.92,0,0,0,.28.31c.1.1.2.2.31.29l.33.28-.36-.24a4.46,4.46,0,0,1-.67-.55l-.15-.16c-.05-.06-.09-.12-.14-.17s-.09-.13-.12-.19a2,2,0,0,1-.1-.21.9.9,0,0,1-.1-.46,1,1,0,0,1,.1-.48.72.72,0,0,1,.12-.21.8.8,0,0,1,.18-.19l0,0a16.38,16.38,0,0,1,1.35-1.41l.72-.65.36-.32.35-.31a11.1,11.1,0,0,0,1.23-1.41c.38-.51,6.79-8.95,7.14-9.48s.69-1.07,1-1.62.65-1.09,1-1.64l.94-1.67c.31-.56.62-1.12.91-1.69a19.33,19.33,0,0,1,1-1.69c.36-.54.75-1.06,1.14-1.58s.79-1,1.2-1.52.82-1,1.25-1.48.85-1,1.29-1.44l.65-.7c.23-.24.44-.47.69-.7a3,3,0,0,1,.83-.58,2.48,2.48,0,0,1,.48-.17,2.94,2.94,0,0,1,.51,0A2.53,2.53,0,0,1,221.94,117.23Z"/><path class="cls-13" d="M226.44,99.45a5.7,5.7,0,0,0-.34.57Z"/><path class="cls-13" d="M239.58,103.48l-2.05-1.57a4.32,4.32,0,0,1,1.07,2.94,2.41,2.41,0,0,1-1.43,1.93,8.92,8.92,0,0,1-2.12.26c-1.57.19-2.5,1.29-3.69,2.21a6,6,0,0,1-4.36,1.48l-.44-.07,3,2.32c1.52,1,3.2-.73,3.2-.73l2.81-2.72a2.05,2.05,0,0,1,2.85,0,15.56,15.56,0,0,1,2.82,6C245,107.89,239.58,103.48,239.58,103.48Z"/><g class="cls-16"><g class="cls-2"><polygon class="cls-17" points="76.21 235.21 121.36 261.28 212.93 208.5 167.7 182.39 76.21 235.21"/></g></g><polygon class="cls-18" points="164.11 156.55 168.62 153.93 206.86 176.02 202.36 178.64 164.11 156.55"/><polygon class="cls-19" points="202.25 210.75 202.36 178.64 164.11 156.55 164.16 188.76 202.25 210.75"/><polygon class="cls-20" points="202.25 210.75 206.75 208.14 206.86 176.02 202.36 178.64 202.25 210.75"/><g class="cls-2"><polygon class="cls-18" points="87.55 200.7 125.78 222.77 203.3 178.08 165.01 155.98 87.55 200.7"/></g><polygon class="cls-20" points="203.3 178.08 125.78 222.74 125.78 228 203.23 183.27 203.3 178.08"/><polygon class="cls-20" points="125.78 228 87.55 205.93 87.55 200.7 125.78 222.77 125.78 228"/><polygon class="cls-18" points="83.95 202.83 88.46 200.22 126.7 222.3 122.2 224.91 83.95 202.83"/><polygon class="cls-21" points="122.09 257.03 122.2 224.91 83.95 202.83 84 235.04 122.09 257.03"/><polygon class="cls-20" points="122.09 257.03 126.6 254.41 126.7 222.3 122.2 224.91 122.09 257.03"/><path class="cls-22" d="M231.41,217.64a14.67,14.67,0,0,0-2,5.43,35.32,35.32,0,0,1,2.81,6.46c-1.26,1.15-2.72-.86-3.16-2-.74,1.2-.47,3.64-1.09,4.89-1.74,3.89-2.76.51-3.12.41-1.22-.34-4.3-1.21-4.87-2.51-.75-1.22-.24-1.61.1-2.83a14.78,14.78,0,0,1,2-3.54c.73-1.2,2.07-2,2.87-3,.44-.77,1.17-4.44,2.1-4.76,1.09-.39,1.88,1,2.78,1.42"/><path class="cls-4" d="M281.65,304.75a7.74,7.74,0,0,1,2.3,3.48c1.25,3.79,1.66,3.75-.43,4.7s-6.16,2.06-11.94,2.82c-5.3.69-11.31,1.37-14.39.36-1.05-.34-1.11-1.48-.71-2.85s7.07-1.35,9.63-2.72c1.39-.75,4-2.34,3.77-2.86,0,.1.07.19.1.28Z"/><path class="cls-23" d="M219.47,306.25c.54-1.45,7.92-1,10.74-2.38a29.47,29.47,0,0,0,6.07-4.73l11.48-.22a13,13,0,0,1,1.28,3.4c1,4.08,1.33,4-.95,4.91s-6.73,1.86-12.88,2.39c-5.66.48-12.06.89-15.22-.31C218.91,308.9,218.94,307.69,219.47,306.25Z"/><path class="cls-23" d="M234.5,299.27s2.37-36.6,4.86-46.32c1-4,3-12.24,5-20.21,1-4,1.94-7.94,2.76-11.23,5.11,7.37,12.29,11.26,13.82,18.76l-13.82,60.14-.41,0-11.43-1Z"/><path class="cls-4" d="M247.5,229.52c-.62-2.27-1.06-3.93-1.19-4.61-.28-1.34-1.31-3.59-1.49-4.91,12.21,2.79,25.84-.2,29.55-1.49a22.05,22.05,0,0,1-3.32,9.14c-1.24,2,.68,31,.68,31l10.28,46-.36.12L270,308c0-.09-.06-.18-.1-.28-9.66-27.86-10.77-34.81-13.7-46-.08-.29,0-.67-.09-1C254.21,253.72,249.73,237.67,247.5,229.52Z"/><path class="cls-24" d="M279.25,289.23l-.3.72Z"/><path class="cls-22" d="M249.44,166.2a32.54,32.54,0,0,0-10.82,14.5c-3.88,9.84-7.77,17.34-10.28,27.54-.91,3.71-2.49,8.45-1.65,9.45s4.46,2.15,4.66.55c.62-5,5-14.93,7.11-18.78,3.42-6.39,5.48-9,8.63-15.54,1.13-2.33,5.3-4.54,6.31-7.06,1.12-3,.62-3.42-1.15-6.32-.73-1.47-1.77-2.9-2.51-4.37"/><path class="cls-25" d="M249.44,166.2a32.54,32.54,0,0,0-10.82,14.5c-3.88,9.84-4.13,6.14-6.63,16.34-.91,3.71,4.35,6.27,6.47,2.42,3.42-6.39,5.48-9,8.63-15.54,1.13-2.33,5.3-4.54,6.31-7.06,1.12-3,.62-3.42-1.15-6.32-.73-1.47-1.77-2.9-2.51-4.37"/><path class="cls-4" d="M272.69,179.35c.28-4.59,4.47-11-1-13.71-2.68-1.31-9.21-1.6-12.75-1.48a21.46,21.46,0,0,0-8.82,1.85l-1.43,1.15c-2.07,7.4-3.12,15.91-3,18.71.27,10.44-.35,30.37-.91,34.54,9.42,1.65,7.69,3,17.31,1.19,5.25-1,11.19-1.33,14.3-3.92C273.54,208.8,272.15,188.74,272.69,179.35Z"/><path class="cls-26" d="M255,155.36a24.89,24.89,0,0,1-.57,10.69L256,167c3,1.74,10.07-.46,11.19-1.82.23-.27-.54-2.14-.91-5.44-.51-4.78-.2-5.7-4.86-5.38-2.17.13-4.23.73-6.44.69"/><path class="cls-22" d="M244.35,116.12c-4.22,12.22-6.65,32.5-2.91,35.9,10.6,9.66,10,10.73,19.67,8.25a52.2,52.2,0,0,0,11.77-4.38c4.37-2.35,4.16-2.81,5.64-6.52.31-.77,9.11.13,10.32-10.05.62-5.14-3.26-7-7.68-6.62-.75-19.51-20.25-31.18-35.23-19"/><g class="cls-27"><path class="cls-28" d="M269.82,117.24c11.16-4.82,14.53,3.46,11.34,15.46,4.42-.37,8.3,1.48,7.68,6.62-1.21,10.18-10,9.28-10.32,10.05-1.48,3.71-1.27,4.17-5.64,6.52a52.2,52.2,0,0,1-11.77,4.38s16.65-12.66,13.55-31.47c0,0-1-7.38-4-9.63l-.84-1.93"/></g><path class="cls-29" d="M259.44,132.28c3.43-.29,8.53-2.1,12.05-1.92,2,.11,1.12-1.63-.85-2a22.78,22.78,0,0,0-11.11.78c-1.89.58-2.08,3.26-.09,3.1Z"/><path class="cls-29" d="M249.4,130.31c-2.61-.67-6.29-2.73-9-3-1.52-.17-.65-1.38.92-1.38a17.81,17.81,0,0,1,8.43,2c1.38.69,1.17,2.78-.33,2.39Z"/><path class="cls-30" d="M284.08,143.48a24.45,24.45,0,0,0-2.41-.82,10.63,10.63,0,0,1,2.46-4.91c1.13-1.47.22-1.67-.31-.87-1.27,1.93-2.81,3.64-3.42,5.93a.76.76,0,0,0,.7.95,25.36,25.36,0,0,1,2.77.44C284.8,144.42,285,143.71,284.08,143.48Z"/><path class="cls-31" d="M250.1,146.09c.13-1.23,3.33-2.19,3.12-4.67-.05-1.39-.6-6.42-1.81-7,0,0,1.51,5.48.69,7.53-.67,1.52-3.41,2.68-3.42,4.28,0,1.26,3.1,2.93,4.27,2.27C253.5,148.21,250.33,147.29,250.1,146.09Z"/><path class="cls-32" d="M256.28,105.91c3.49-1,16.66-2.1,20.57-1.16,2.61.63,13.08,7.25,12.86,11.6l-1,2.24c2.67,2.86,3.15,9.95.12,18-.78-2.32-4.61-4.79-6.1-3.34-.38.34-1.41,3.23-2.44,5.23-.77,1.53-2.4-1.3-2.14-3.14.3-2,.81-4.1,1-5.26.29-2,.78-7.54-1.18-10.18-3.2-4.48-14.42-2.23-18.62-2.94-5.3-.89-9.52-4.66-12.75-2.93C248.2,111.07,249.41,107.87,256.28,105.91Z"/><path class="cls-4" d="M258.63,138.17a5.18,5.18,0,0,0,0,1.22c.11.44.23.69.12.88s-.19.29,0,.45.27,0,.48.12a9.2,9.2,0,0,0,4.24.81,13.43,13.43,0,0,0,4.83-1.22,3.4,3.4,0,0,0,1.1-.74c.39-.44,1.51-1.06,1.42-1.49a6,6,0,0,0-2.94-2.37c-1.28-.4-7.92-1.52-8.49-.57A6,6,0,0,0,258.63,138.17Z"/><path class="cls-33" d="M261.66,140.57a2.35,2.35,0,1,0-2.41-2.28A2.36,2.36,0,0,0,261.66,140.57Z"/><path class="cls-34" d="M261.55,136.77a1.45,1.45,0,0,1,.09,2.9,1.45,1.45,0,1,1-.09-2.9m-.06-1.78a3.23,3.23,0,1,0,3.33,3.14,3.23,3.23,0,0,0-3.33-3.14Z"/><g class="cls-35"><path class="cls-4" d="M258.36,138.31a3.23,3.23,0,1,0,6.46-.18s-1.88,1.69-3.18,1.73S258.36,138.31,258.36,138.31Z"/></g><g class="cls-35"><path class="cls-4" d="M258.74,138.67a2.93,2.93,0,0,0,5.73-.18,6.82,6.82,0,0,1-2.83,1.28A7,7,0,0,1,258.74,138.67Z"/></g><g class="cls-36"><path class="cls-33" d="M258.36,138.31c.06,1.79,1.4-1.68,3.18-1.74s3.33,3.34,3.28,1.56a3.23,3.23,0,1,0-6.46.18Z"/></g><path d="M260,138.27a1.64,1.64,0,1,0,3.28-.1,1.64,1.64,0,1,0-3.28.1Z"/><path class="cls-4" d="M258.59,136.94a1.23,1.23,0,0,0,1.26,1.18,1.22,1.22,0,1,0-1.26-1.18Z"/><path class="cls-4" d="M262.38,139c-.25.38,0,1,.58,1.34s1.22.38,1.46,0,0-1-.59-1.35S262.62,138.6,262.38,139Z"/><path class="cls-37" d="M261.92,139.08c-.24.37,0,1,.59,1.34s1.21.38,1.46,0,0-1-.59-1.34S262.16,138.72,261.92,139.08Z"/><path class="cls-38" d="M258.87,137.2a1.22,1.22,0,1,0,2.44-.08,1.22,1.22,0,0,0-2.44.08Z"/><path class="cls-39" d="M268.33,140.43l1.05-2s-1.25-1.41-1.94-1.57-6.36-.93-7.19-.34-1.45.84-1.62,1.66c0,0-.12-2.09.6-2.74s6.61-.56,8.84.49,2.83,1.93,2.77,2.33A12.08,12.08,0,0,1,268.33,140.43Z"/><path class="cls-40" d="M258.42,135.36c.06.3.34.45.38.75a.31.31,0,0,0,0,.08,4.19,4.19,0,0,0-.19.92,4.91,4.91,0,0,0,0,.6c0,.14,0,.21,0,.21l.05.25c0-.46,0-.33,0-.46a1,1,0,0,1,0-.28,2.9,2.9,0,0,1,1.46-2.09,20,20,0,0,1,5.92.34c.46.09.9.19,1.35.3l.22,0h.08l.07,0a2.11,2.11,0,0,1,.34.16,7.48,7.48,0,0,1,.66.43c.44.31.84.63,1.21,1a5.88,5.88,0,0,1,.51.48l.09.11h0l-.06.06a4.16,4.16,0,0,1-.4.45c-.13.14-.27.27-.39.39l-.67.64-.59.56-.17.12a3.4,3.4,0,0,0,.4-.17l.51-.31c.22-.14.48-.32.77-.53a4.67,4.67,0,0,0,.46-.35,3.72,3.72,0,0,0,.5-.43,1,1,0,0,0,.14-.15l0-.05,0,0,0,0v0s0-.05,0-.07v-.07c0-.09,0,0,0,0v-.07s0,0,0-.06,0,0,0-.05v0a.64.64,0,0,0-.06-.1l-.12-.17c-.17-.2-.34-.38-.52-.56a10,10,0,0,0-1.25-1.05,6.26,6.26,0,0,0-.75-.46,2.89,2.89,0,0,0-.44-.18s-4.28-1.32-6.79-1.13S258.36,135,258.42,135.36Zm12.22,2.79h0v0h0Z"/><path class="cls-4" d="M249.74,137.29a4.44,4.44,0,0,1-.19,1c-.14.35-.28.54-.21.71s.11.26-.06.37-.22,0-.4,0a8,8,0,0,1-3.6.12,11.28,11.28,0,0,1-3.8-1.63,2.8,2.8,0,0,1-.81-.75c-.27-.41-1.11-1.06-1-1.41a5.13,5.13,0,0,1,2.72-1.56c1.11-.16,6.7-.23,7,.62A4.9,4.9,0,0,1,249.74,137.29Z"/><path class="cls-33" d="M243.34,138.56a1.94,1.94,0,0,1,.72-3.82,2,2,0,0,1,1.56,2.27A1.93,1.93,0,0,1,243.34,138.56Z"/><path class="cls-34" d="M243.92,135.47a1.2,1.2,0,0,1,1,1.4,1.21,1.21,0,1,1-2.37-.44,1.2,1.2,0,0,1,1.4-1m.28-1.46a2.69,2.69,0,1,0,2.14,3.14A2.68,2.68,0,0,0,244.2,134Z"/><g class="cls-35"><path class="cls-4" d="M246.34,137.15a2.68,2.68,0,1,1-5.27-1s1.33,1.64,2.38,1.84S246.34,137.15,246.34,137.15Z"/></g><g class="cls-35"><path class="cls-4" d="M246,137.39a2.43,2.43,0,0,1-4.67-.88,3.38,3.38,0,0,0,4.67.88Z"/></g><g class="cls-36"><path class="cls-33" d="M246.34,137.15c-.28,1.46-.92-1.57-2.38-1.84s-3.17,2.3-2.89.85a2.68,2.68,0,1,1,5.27,1Z"/></g><path d="M245.05,136.91a1.37,1.37,0,1,1-2.68-.52,1.35,1.35,0,0,1,1.59-1.08A1.37,1.37,0,0,1,245.05,136.91Z"/><path class="cls-4" d="M246.33,136a1,1,0,0,1-1.19.81,1,1,0,1,1,1.19-.81Z"/><path class="cls-4" d="M243,137.16c.15.33-.14.79-.65,1s-1.05.16-1.2-.18.15-.78.65-1S242.81,136.83,243,137.16Z"/><path class="cls-37" d="M243.32,137.32c.15.33-.14.79-.65,1s-1,.16-1.2-.17.14-.79.65-1S243.17,137,243.32,137.32Z"/><path class="cls-38" d="M246.07,136.17a1,1,0,1,1-.81-1.19A1,1,0,0,1,246.07,136.17Z"/><path class="cls-39" d="M241.48,137.9l-.61-1.79a5.4,5.4,0,0,1,1.8-1c.6,0,5.34,0,5.94.63s1.08.89,1.13,1.58c0,0,.36-1.7-.16-2.32s-5.35-1.32-7.32-.74-2.56,1.22-2.57,1.55A10.14,10.14,0,0,0,241.48,137.9Z"/><path class="cls-40" d="M248.1,133.79a20.4,20.4,0,0,0-5.71.05,2.06,2.06,0,0,0-.39.08c-.25.08-.46.19-.68.28a8.74,8.74,0,0,0-1.16.71,4.87,4.87,0,0,0-.5.4l-.12.12-.06.07v0l0,0a.05.05,0,0,0,0,0v0h0v0s0,0,0,0v0a0,0,0,0,1,0,0s0,0,0,.07v.09l0,0,.09.15a5.22,5.22,0,0,0,.36.42l.33.34c.21.21.41.39.57.52a3.93,3.93,0,0,0,.38.33,3.3,3.3,0,0,0,.31.19l-.14-.12s-.14-.2-.4-.53l-.47-.62c-.08-.12-.18-.23-.27-.37s-.19-.28-.28-.41a.25.25,0,0,1,0-.07h0l.1-.07a3.64,3.64,0,0,1,.48-.32,10.7,10.7,0,0,1,1.11-.63,6.46,6.46,0,0,1,.6-.27l.29-.09h.32l1.15-.08a17.08,17.08,0,0,1,4.9.5,2.4,2.4,0,0,1,.94,1.91,1.52,1.52,0,0,1,0,.23c0,.11,0,0,0,.37l.06-.19a1.32,1.32,0,0,0,0-.18c0-.11,0-.28.07-.49a4.7,4.7,0,0,0,0-.79.15.15,0,0,0,0-.06c.07-.24.32-.34.41-.57S250.13,134.27,248.1,133.79Zm-8.24,1.93h0Z"/><path class="cls-41" d="M259.44,155.87c-.68,1.17-3.09-.33-6.09-.9s-5.79-.29-5.94-1.63,3.12-4.3,7-3.48S260.15,154.78,259.44,155.87Z"/><path class="cls-42" d="M253.38,152.88a8.58,8.58,0,0,0-3.23-.27c-1,.1-1.82.53-2.74.66v.07c.15,1.34,3,.93,5.94,1.63,2,.37,3.76,1.17,4.9,1.31A11.05,11.05,0,0,0,253.38,152.88Z"/><path class="cls-4" d="M258.76,152.92a6.69,6.69,0,0,0-9.53-2Z"/><path class="cls-4" d="M274.68,120.62s1.15,1.94.33,2.57a1.12,1.12,0,0,1-1.48,0s-.85-.48.55-2.61l.32-.89Z"/><path class="cls-43" d="M273.83,121.39c-.37,1,.11,1.32.11,1.32a1,1,0,0,0,.9.28.86.86,0,0,1-1.12-.06S273.2,122.62,273.83,121.39Z"/><path class="cls-4" d="M268.53,119.07s.8,1.37.23,1.81a.79.79,0,0,1-1,0s-.6-.34.38-1.84l.23-.63Z"/><path class="cls-43" d="M267.93,119.62c-.26.73.07.93.07.93a.72.72,0,0,0,.64.19.61.61,0,0,1-.79,0S267.48,120.49,267.93,119.62Z"/><path class="cls-22" d="M218.69,142.9a15.68,15.68,0,0,1-4.07-4.47,37.43,37.43,0,0,0,.19-7.35c-1.66-.61-2.29,1.9-2.27,3.21-1.19-.88-1.88-3.34-3-4.31-3.22-3.07-2.87.6-3.18.82-1.05.81-3.68,2.86-3.73,4.35-.23,1.47.41,1.64,1.22,2.69,1,1.24,2,1.67,3.31,2.64s2.77,1.11,4,1.8c.72.59,2.87,3.83,3.9,3.78,1.21-.05,1.44-1.66,2.13-2.47"/><path class="cls-22" d="M270.81,170.67c.36-3.34-6.69-2.48-9.68-2.55l-10.35-2c-4.28-1.57-10.38-3.3-14.13-5.86-3.22-2.24-15.85-14-19.1-17.9-3.82,1.76-2.93,2-3,2.39-.09.88,12.54,18.76,18.49,22.71a37.84,37.84,0,0,0,7.16,4.29c6.65,3.51,15.85,4.56,23.25,3.81C266.68,175.18,270.45,174.52,270.81,170.67Z"/><path class="cls-25" d="M233.06,167.45a37.84,37.84,0,0,0,7.16,4.29c6.65,3.51,15.85,4.56,23.25,3.81,3.21-.37,7-1,7.34-4.88.36-3.34-6.69-2.48-9.68-2.55l-10.35-2c-4.28-1.57-10.38-3.3-14.13-5.86"/><g class="cls-16"><g class="cls-2"><polygon class="cls-17" points="287.95 319.12 242.81 345.19 151.24 292.41 196.46 266.3 287.95 319.12"/></g></g><polygon class="cls-18" points="200.05 240.46 195.55 237.84 157.3 259.93 161.81 262.55 200.05 240.46"/><polygon class="cls-19" points="161.91 294.67 161.81 262.55 200.05 240.46 200 272.67 161.91 294.67"/><polygon class="cls-20" points="161.91 294.67 157.41 292.05 157.3 259.93 161.81 262.55 161.91 294.67"/><g class="cls-2"><polygon class="cls-18" points="276.61 284.62 238.39 306.68 160.87 261.99 199.15 239.9 276.61 284.62"/></g><polygon class="cls-20" points="160.87 261.99 238.39 306.65 238.39 311.91 160.93 267.19 160.87 261.99"/><polygon class="cls-20" points="238.39 311.91 276.61 289.84 276.61 284.62 238.39 306.68 238.39 311.91"/><polygon class="cls-18" points="280.21 286.74 275.7 284.13 237.46 306.21 241.96 308.83 280.21 286.74"/><polygon class="cls-21" points="242.07 340.94 241.96 308.83 280.21 286.74 280.16 318.95 242.07 340.94"/><polygon class="cls-20" points="242.07 340.94 237.56 338.33 237.46 306.21 241.96 308.83 242.07 340.94"/><path class="cls-44" d="M134.37,180.63v5.62c.05,11.05,28.26,10.43,28.24-.08,0,0,0-5.62,0-5.6,0-2.09-1.36-4.17-4.1-5.76-5.49-3.2-14.44-3.2-20,0-3.16,1.82-4.46,4.29-4,6.68A5.14,5.14,0,0,1,134.37,180.63Z"/><path class="cls-45" d="M138.53,174.81c-5.52,3.19-5.55,8.37-.06,11.56s14.44,3.19,20,0,5.56-8.37.07-11.56S144.06,171.61,138.53,174.81Z"/><path class="cls-45" d="M138.53,174.81c-5.52,3.19-5.55,8.37-.06,11.56s14.44,3.19,20,0,5.56-8.37.07-11.56S144.06,171.61,138.53,174.81Z"/><polygon class="cls-46" points="162.85 149.11 181.57 106.92 162.85 108.62 106.67 141.06 106.67 181.55 162.85 149.11"/><polygon class="cls-46" points="181.57 157.02 181.57 106.92 112.05 147.06 112.05 197.16 181.57 157.02"/><polygon class="cls-44" points="112.05 197.16 106.67 181.55 106.67 141.06 112.05 147.06 112.05 197.16"/><polygon class="cls-45" points="185.87 157.43 190.21 102.93 185.87 100.42 106.77 146.09 106.77 203.09 111.11 205.6 185.87 157.43"/><polygon class="cls-46" points="190.21 159.93 190.21 102.93 111.11 148.6 111.11 205.6 190.21 159.93"/><g class="cls-47"><polygon class="cls-48" points="111.9 217.02 111.9 148.2 187.83 104.36 187.83 173.18 111.9 217.02"/><g class="cls-49"><polygon class="cls-24" points="136.6 202.76 109.94 202.76 109.94 147.59 133.74 133.85 190.01 133.85 190.01 171.92 136.6 202.76"/><polygon class="cls-50" points="140.49 200.51 109.94 200.51 109.94 147.59 137.62 131.61 190.01 131.61 190.01 171.92 140.49 200.51"/><polygon class="cls-51" points="144.25 198.34 109.94 198.34 109.94 147.59 141.39 129.43 190.01 129.43 190.01 171.92 144.25 198.34"/><polygon class="cls-52" points="190.01 151.7 133.86 151.7 133.87 133.77 190.01 101.36 190.01 151.7"/><polygon class="cls-24" points="190.01 151.7 133.86 151.7 133.9 138.26 190.01 138.26 190.01 151.7"/><g class="cls-2"><polygon class="cls-51" points="165.41 137.96 190.01 138.05 190.01 142.62 189.24 143.51 160.7 143.4 165.41 137.96"/><polygon class="cls-52" points="184.53 148.94 155.99 148.84 156 152.21 184.54 152.32 184.53 148.94"/><polygon class="cls-51" points="189.24 143.51 160.7 143.4 155.99 148.84 184.53 148.94 189.24 143.51"/><polygon class="cls-52" points="179.83 157.76 151.29 157.65 151.3 161.03 179.84 161.14 179.83 157.76"/><polygon class="cls-51" points="184.54 152.32 156 152.21 151.29 157.65 179.83 157.76 184.54 152.32"/><polygon class="cls-52" points="175.13 166.58 146.59 166.47 146.6 169.85 175.14 169.96 175.13 166.58"/><polygon class="cls-51" points="179.84 161.14 151.3 161.03 146.59 166.47 175.13 166.58 179.84 161.14"/><polygon class="cls-51" points="175.14 169.96 146.6 169.85 141.89 175.29 170.43 175.4 175.14 169.96"/><polygon class="cls-53" points="175.14 169.96 175.13 166.58 179.84 161.14 179.83 157.76 184.54 152.32 184.53 148.94 189.24 143.51 190.01 142.62 190.01 156.17 189.28 157.02 184.57 162.46 179.86 167.89 175.15 173.33 170.44 178.77 170.43 175.4 175.14 169.96"/><polygon class="cls-52" points="170.43 175.4 141.89 175.29 141.9 178.66 170.44 178.77 170.43 175.4"/></g><path class="cls-54" d="M165.37,139.44a.69.69,0,0,0,.33-.53V127.32c0-.18-.15-.25-.33-.14a.7.7,0,0,0-.34.53V139.3C165,139.49,165.18,139.55,165.37,139.44Z"/><path class="cls-54" d="M157.18,148.8a.7.7,0,0,0,.34-.53V136.68c0-.19-.15-.25-.34-.14a.69.69,0,0,0-.33.53v11.58C156.85,148.84,157,148.91,157.18,148.8Z"/><path class="cls-54" d="M152.48,157.68a.7.7,0,0,0,.34-.53V145.56c0-.18-.15-.25-.34-.14a.7.7,0,0,0-.33.53v11.59C152.15,157.72,152.3,157.79,152.48,157.68Z"/><path class="cls-54" d="M147.78,166.43a.69.69,0,0,0,.34-.53V154.31c0-.18-.15-.25-.34-.14a.73.73,0,0,0-.34.53v11.59C147.44,166.48,147.6,166.54,147.78,166.43Z"/><path class="cls-54" d="M161.28,144.16a.72.72,0,0,0,.33-.53V132c0-.19-.15-.25-.33-.14a.69.69,0,0,0-.34.53V144C160.94,144.2,161.09,144.27,161.28,144.16Z"/><path class="cls-55" d="M141.8,164.05l15-27.19,9.6-11.07c.09-.12.18-.18.25-.18h.71c.07,0,.11,0,.11.17a1.49,1.49,0,0,1-.36.82l-9.38,10.83L142.91,164.3a1.13,1.13,0,0,1-.2.29c-.11.14-.23.21-.3.16s-.67,0-.67,0C141.59,164.68,141.64,164.37,141.8,164.05Z"/><path class="cls-54" d="M157.56,136.87l-15,27.19c-.17.32-.22.62-.11.69s.19,0,.3-.16a1.13,1.13,0,0,0,.2-.29l14.86-26.86,9.38-10.83a1.49,1.49,0,0,0,.36-.82c0-.23-.16-.23-.36,0Z"/><rect class="cls-55" x="152.96" y="132.16" width="5.66" height="2.08"/><rect class="cls-55" x="146.96" y="132.16" width="5.66" height="2.08"/><rect class="cls-55" x="149.96" y="129.73" width="5.66" height="2.08"/><rect class="cls-55" x="149.96" y="134.58" width="5.66" height="2.08"/><polygon class="cls-55" points="161.57 117.78 165.83 117.78 165.83 119.86 160.17 119.86 160.17 118.59 161.57 117.78"/><polygon class="cls-55" points="157.37 120.21 162.83 120.21 162.83 122.28 157.17 122.28 157.17 120.32 157.37 120.21"/><polygon class="cls-55" points="142.04 129.06 143.67 129.06 143.67 131.13 138.44 131.13 142.04 129.06"/><polygon class="cls-55" points="137.84 131.48 140.67 131.48 140.67 133.56 135.01 133.56 135.01 133.12 137.84 131.48"/><polygon class="cls-56" points="188.69 102.12 188.69 138.08 171.44 138.08 171.44 112.08 188.69 102.12"/><polygon class="cls-57" points="189.91 101.42 189.91 138.08 189.03 139.1 188.69 138.08 188.69 102.12 189.91 101.42"/><polygon class="cls-57" points="171.44 112.08 171.44 138.08 170.56 139.1 170.22 138.08 169.74 113.07 171.44 112.08"/><polygon class="cls-58" points="170.56 112.59 170.56 139.1 169.34 139.1 169.34 113.29 170.56 112.59"/><polygon class="cls-58" points="189.03 101.93 189.03 139.1 187.81 139.1 187.81 102.63 189.03 101.93"/><g class="cls-2"><path class="cls-58" d="M171.8,120.3H172a.86.86,0,0,0,.54-.34h-.23A.86.86,0,0,1,171.8,120.3Z"/><path class="cls-58" d="M171.8,120.3H172a.86.86,0,0,0,.54-.34h-.23A.86.86,0,0,1,171.8,120.3Z"/><path class="cls-56" d="M172.56,115.6h-.23s.21,0,.21,0Z"/><path class="cls-58" d="M172.32,115.62h.22a4.83,4.83,0,0,0-1.14,2.63v2.12c0,.36.13.54.33.54h-.22c-.21,0-.34-.18-.34-.54v-2.12A4.83,4.83,0,0,1,172.32,115.62Z"/><path class="cls-50" d="M172.54,115.62a4.83,4.83,0,0,0-1.14,2.63v2.12c0,.72.52.72,1.15,0,0,0,0-.4,0-.4-.44.47-.79.46-.79-.06v-2a3.57,3.57,0,0,1,.79-1.88v-.38Z"/></g><path class="cls-59" d="M121,185.37c1.41,0,1.41,1.32,0,2.95s-3.69,3-5.1,3-1.41-1.32,0-3S119.6,185.37,121,185.37Z"/><path class="cls-54" d="M170.44,174.85a.67.67,0,0,0,.34-.53V162.73c0-.18-.15-.25-.34-.14a.7.7,0,0,0-.34.53v11.59C170.1,174.9,170.25,175,170.44,174.85Z"/><path class="cls-54" d="M184.54,148.47a.7.7,0,0,0,.34-.54V136.35c0-.19-.15-.25-.34-.14a.67.67,0,0,0-.34.53v11.58C184.2,148.51,184.35,148.58,184.54,148.47Z"/><path class="cls-54" d="M179.84,157.35a.7.7,0,0,0,.34-.53V145.23c0-.19-.15-.25-.34-.14a.69.69,0,0,0-.34.53v11.59C179.5,157.39,179.65,157.46,179.84,157.35Z"/><path class="cls-54" d="M175.14,166.1a.69.69,0,0,0,.34-.53V154c0-.18-.15-.25-.34-.14a.7.7,0,0,0-.34.53V166C174.8,166.15,175,166.21,175.14,166.1Z"/><path class="cls-54" d="M188.63,143.83a.7.7,0,0,0,.34-.53V131.71c0-.19-.15-.25-.34-.14a.71.71,0,0,0-.34.53v11.59C188.29,143.87,188.45,143.94,188.63,143.83Z"/><path class="cls-55" d="M169.16,163.72l15-27.19,5.81-6.71v1.65l-4.88,5.64L170.26,164a1.32,1.32,0,0,1-.19.29c-.12.14-.23.21-.3.16s-.67,0-.67,0C169,164.35,169,164,169.16,163.72Z"/><path class="cls-54" d="M169.87,163.73l15-27.19,5.1-5.89v.82l-4.88,5.64L170.26,164a1.12,1.12,0,0,1-.19.29c-.12.14-.23.21-.3.16S169.71,164,169.87,163.73Z"/><path class="cls-60" d="M120.37,185.81c1.06,0,1.06,1,0,2.21a6.26,6.26,0,0,1-3.82,2.2c-1.06,0-1.06-1,0-2.2A6.23,6.23,0,0,1,120.37,185.81Z"/><polygon class="cls-60" points="121.17 167.66 115.75 170.78 115.75 189.58 121.17 186.45 121.17 167.66"/><path class="cls-52" d="M120.37,167c1.06,0,1.06,1,0,2.21a6.28,6.28,0,0,1-3.82,2.21c-1.06,0-1.06-1,0-2.21A6.28,6.28,0,0,1,120.37,167Z"/><path class="cls-60" d="M119.55,167.67c.6,0,.6.57,0,1.26a3.57,3.57,0,0,1-2.18,1.26c-.6,0-.6-.56,0-1.26A3.61,3.61,0,0,1,119.55,167.67Z"/><polygon class="cls-60" points="120 156.64 116.92 158.42 116.92 169.82 120 168.04 120 156.64"/><path class="cls-52" d="M119.55,156.27c.6,0,.6.56,0,1.26a3.61,3.61,0,0,1-2.18,1.26c-.6,0-.6-.57,0-1.26A3.57,3.57,0,0,1,119.55,156.27Z"/><path class="cls-61" d="M119.12,142.29V157a1.39,1.39,0,0,1-.66,1c-.36.21-.66.08-.66-.28V143.05Z"/><path class="cls-61" d="M119.1,142.3V157a1.36,1.36,0,0,1-.66,1c-.36.21-.65.08-.65-.28v-14.7Z"/></g><path class="cls-62" d="M155.78,181.56l-8.06-.79a4.5,4.5,0,0,0-3.44,1.87l-1.41,1.62a2.26,2.26,0,0,0-.63,2.29c.36.61-.06,1.8-.9,2.58l-5,4.55c-1.85,1.77-2.5,4.44-1.29,5.31s3.38.22,5.24-1.64l6.08-6.08a5.44,5.44,0,0,1,3-1.68l.88-.1a7.12,7.12,0,0,0,4.37-3l1.18-1.54C157,183.44,157,181.68,155.78,181.56Z"/><path class="cls-63" d="M149,180.2a7.49,7.49,0,0,1,.25,1.71c0,1-1.2,1.5-1.71,1.77-1.5.79-2.93,2.77-4.4,3.28-.64.23-.72-.12-.54-.8.35-1.32,2.23-2.17,3.18-3.12a5.81,5.81,0,0,0,1.52-2.89s1.3-.48,1.41-.46C149,179.74,148.92,179.94,149,180.2Z"/><path class="cls-64" d="M146.29,174.09a6.69,6.69,0,0,1,.44,1.39c.08.34.14.71.19,1.08a28.66,28.66,0,0,1,.21,3.81l1.87-.61s0-.26.37-2.6l.3-2,.06-.43c.22-2.15-.46-3-.67-4.12a3.1,3.1,0,0,1,0-1.38c.26-1.09.62-3.17.91-4.9s.47-2.86.47-2.86-3.64-1.29-4.45,2.54S145,170.14,146.29,174.09Z"/><path class="cls-64" d="M149,179.76a5.42,5.42,0,0,1,.25,1.44,2.12,2.12,0,0,1-.57,1.34,3.78,3.78,0,0,1-1.14.71c-1.5.79-2.93,2.77-4.4,3.28-.64.23-.66-.28-.39-.85.63-1.35,2.08-2.12,3-3.08a5.74,5.74,0,0,0,1.52-2.88s1.3-.48,1.41-.46C149,179.31,148.92,179.51,149,179.76Z"/><path class="cls-65" d="M145.67,183.31a.4.4,0,0,0-.36-.21,1.48,1.48,0,0,0-.67.36,3.92,3.92,0,0,0-1,1,.37.37,0,0,1,.35-.13.35.35,0,0,1,.18.23,5.2,5.2,0,0,1,.25,1.48c.3-.18.55-.61.84-.84s.83-.38.79-.77A2.33,2.33,0,0,0,145.67,183.31Z"/><path class="cls-66" d="M146.73,175.48c.08.34.14.71.19,1.08a7.34,7.34,0,0,0,.92-.06,1.86,1.86,0,0,1,1,.21c.13.08.32.43.54.45l.3-2,.06-.43a1.18,1.18,0,0,0-.77,0A9.74,9.74,0,0,0,146.73,175.48Z"/><path d="M144,185.56a4.76,4.76,0,0,0-.21,2.27c.26.81,1.17.21,1.94-.12,1.5-.63,2.24.07,4.24-1.08a4.3,4.3,0,0,0,2.22-2.29c0-.37-.17-.6-.59-.72l-2.78.35a7.59,7.59,0,0,1-1.31-.28l-.47-1.9-2.92,1.69Z"/><path class="cls-67" d="M141.31,171.59c0,.09.41,1.26.41,1.26l1.48,4.2a20.87,20.87,0,0,0,.36,8.71c.07.3.14.59.22.88s.34.32.73.12a14.11,14.11,0,0,0,3.22-3c-.51-2.29.09-7.09-.28-9.85L146.2,167l-.82-2.8C142.2,165.1,141.29,168.37,141.31,171.59Z"/><path class="cls-68" d="M141.31,171.59c0,.09.41,1.26.41,1.26l1.48,4.2a20.87,20.87,0,0,0,.36,8.71c.07.3.14.59.22.88s.34.32.73.12c0-3.54-1.27-6.4-.25-10.29l-1.18-5,1-3.75Z"/><path class="cls-64" d="M138.32,160.69a32.64,32.64,0,0,0,3.18-1.85,14.59,14.59,0,0,0,2-2c2.29-2.3,2.56-3.77,4.49-4.51a1.4,1.4,0,0,1,.32-.06c.5-.05,1.12-.06,1.12-1.36,0-1.7.09-2-.94-1.64-1.82.69-2.32,1.27-3.4,3a29.41,29.41,0,0,1-7.17,7.52C138.05,160.1,138.18,160.4,138.32,160.69Z"/><path class="cls-66" d="M142.69,157c2.46-1.79,3.37-3.87,5.3-4.61a1.4,1.4,0,0,1,.32-.06c0-.23-.13-.39-.35-.39-.85,0-2.27,1.71-3,2.52Z"/><path class="cls-63" d="M150.92,155.14l-3.6-1.81-2.77-3.4c-1.28-.88-3.28,1.31-4.39,2.24l2.75,4.65,1.58,1.11a23,23,0,0,0,6.6.92c.4.24,2.22-2.45,1.53-2.89Z"/><path d="M135.09,195.21a3.56,3.56,0,0,0-.21,1.88,4.26,4.26,0,0,1,.4.73c.17.48.14,1.46,1,1.54,1,.22,3-.89,3.63-2.11a2.53,2.53,0,0,0-.79-1.64l-1-1.29.06-1.79-2.89,1Z"/><path class="cls-67" d="M134.83,195.34a.67.67,0,0,0,.46.39c.71.18,2-.44,3.1-1.58a58.41,58.41,0,0,1,1.24-10.54c.7-3.28,1.3-6.37,1.76-9.19a15.84,15.84,0,0,0,.28-2.17c.9-1.91,3.66-5.82,3.71-8.06l-.32-1.32-.68,1.74-1.41,1-5.17,3.59-2,1.41v13.85c-.62,1.42-.81,3.91-.88,6.72C134.84,192.51,134.84,193.93,134.83,195.34Z"/><path class="cls-68" d="M134.83,195.34a.67.67,0,0,0,.46.39c0-4.2.18-8.26,1.34-11.63l.55-5.09.46-1.87v-1.46l-.46-1.42a6.09,6.09,0,0,1,1.71-4l-3.13,1.19v13c-.62,1.42-.81,3.91-.88,6.72C134.84,192.51,134.84,193.93,134.83,195.34Z"/><path class="cls-63" d="M135,172a34.21,34.21,0,0,0,.29-3.43l-.36-3.17-1-4.49a34,34,0,0,1,5.14-8.15l4.09-2.36c.93.34,1.45,1.45,1.73,3,0,0-.05,6.86.24,8.35,0,.15.07.3.11.45a2.23,2.23,0,0,1-.22,1.44A16,16,0,0,1,135,172Z"/><path class="cls-50" d="M139.4,152.11l-1.65,2.26c-.82,3,1.24,2.83,2.59,3.46l.78-2.66,2-.74-.72-3.17Z"/><path class="cls-64" d="M141.72,154.34a2.73,2.73,0,0,1-.6.83c-1.67,1.46-2.74.33-2.85-.89s-.16-1.92-.16-1.92l3.83-1.28s0,.28.06.7A6.91,6.91,0,0,1,141.72,154.34Z"/><path class="cls-69" d="M142.29,154c-1.25,1-2.23-.66-2.23-.66l2.56-2C143.12,152.8,142.82,153.59,142.29,154Z"/><path class="cls-64" d="M138.55,152.36a7.38,7.38,0,0,0,1.57,1,2.1,2.1,0,0,0,1.67-.22,2.43,2.43,0,0,0,.83-.78c.73-.85.64-3.34.64-3.34a4.69,4.69,0,0,0-.18-1.57c-.18-.74-1-1.86-3.45-.1a4.6,4.6,0,0,0-2,3.07,4.82,4.82,0,0,0,.33,2Z"/><path d="M138,153.51c.65.7,1.78,0,1.9-1.12,0-.22.59-.48.82-.67l-.18-.61c-.09-.5.31-.71.63-1a5.27,5.27,0,0,0,2-2.53c.39-1.75-1.6-1.71-3.11-.79a6.11,6.11,0,0,0-2.89,4A4.36,4.36,0,0,0,138,153.51Z"/><path class="cls-64" d="M139.81,151.56a.68.68,0,0,0-.49.36.55.55,0,0,0-.06.32.8.8,0,0,0,.1.23,3.88,3.88,0,0,0,.26.31.28.28,0,0,0,.31.1c.14,0,.31,0,.39-.22a1.25,1.25,0,0,0,0-.63A.54.54,0,0,0,139.81,151.56Z"/><path class="cls-64" d="M143.68,150.08c0,.28-.45.57-.69.62,0,0-.07.05-.09,0a2.89,2.89,0,0,1,0-.77c0-.13,0-.7.16-.78S143.69,149.76,143.68,150.08Z"/><path class="cls-63" d="M151.29,188.12c.16-.58,1.7-2.5,2.43-4.64L156.3,182c.32.76-.22,1.39-.66,2.22-.86,1.62-.53,2.57-3.61,4.45-.21.13-.45.26-.61.2S151.22,188.35,151.29,188.12Z"/><path class="cls-64" d="M148.52,166.82a13,13,0,0,0,.54,3.73,16.09,16.09,0,0,0,1.53,3.58,15.66,15.66,0,0,0,.93,1.41c.17.22.33.42.5.61,1.8,2.09,2,5.67,2,5.67l1.65-.95a27.62,27.62,0,0,1,.24-4.67,7.45,7.45,0,0,0,0-1c-.13-2.59-1.8-2.59-2.21-3.66a1.44,1.44,0,0,1-.1-.62c.08-1.93-.22-7.25-.22-7.25a7,7,0,0,0-3.39.65A2.77,2.77,0,0,0,148.52,166.82Z"/><path class="cls-64" d="M155.85,180.86c1.06,1.08.34,1.8-.21,2.85-.87,1.62-.53,2.57-3.61,4.45-.21.13-.45.26-.61.2s-.16-.28-.1-.51c.24-.83,3.31-5,2.73-7.61a6.76,6.76,0,0,0,.83-.54c.36-.25.43-.41.46-.08A1.77,1.77,0,0,0,155.85,180.86Z"/><path class="cls-63" d="M153.33,184.66a1.59,1.59,0,0,0-.58.41,2.12,2.12,0,0,0-.24.37,7.13,7.13,0,0,0-.62,1.32,2.35,2.35,0,0,1,1.32-.41,1.39,1.39,0,0,1,1,.43,6.14,6.14,0,0,0,.69-.87c.17-.26.17-.57.3-.8.34-.57-.57-.6-1-.62A2.07,2.07,0,0,0,153.33,184.66Z"/><path class="cls-66" d="M150.59,174.13a15.66,15.66,0,0,0,.93,1.41,5.6,5.6,0,0,0,1.66-.51,3.35,3.35,0,0,1,2.32-.17,1.28,1.28,0,0,1,.43.3c-.13-2.59-1.8-2.59-2.21-3.66a6.37,6.37,0,0,0-2.5,1.81A3,3,0,0,0,150.59,174.13Z"/><path class="cls-64" d="M156.5,143.94a3.45,3.45,0,0,0-1.51,0c-.26.59-.49,1.17-.7,1.75a.64.64,0,0,0,0,.34c0,.09.15.08.25.08a1.2,1.2,0,0,1,1,.44l-1.12.59a.59.59,0,0,0-.25.22c-.06.13,0,.21.13.18a1.36,1.36,0,0,0,.32-.16c.47-.26.84-.05,1.31-.24a5.34,5.34,0,0,0,.68-.39c.23-.13.48-.23.62-.14s.14.16.27.1a.55.55,0,0,0,.25-.43,2.2,2.2,0,0,0-.33-1.39A1.71,1.71,0,0,0,156.5,143.94Z"/><path class="cls-64" d="M146.91,163a9,9,0,0,0,5.38-3.89c.49,1,2.56,1.49,1.17,6.35l-4.83,1.88s-2.73-.16-2.84-3.64c0-.35,0-.7,0-1A2.18,2.18,0,0,0,146.91,163Z"/><path class="cls-50" d="M146.19,175.8c0,.61,2.62-.11,5-1.54,1.73-1,3.36-2.42,3.83-3.95-.77-.84-.43-1.61-.52-3.06-.17-2.63.76-7.11-2.21-8.14-.76-.25-.5.29-1.21.84a16,16,0,0,1-3.66,2.19c-.31.13-1.43.34-1.63.65a3.66,3.66,0,0,0-.22,1C144.74,168.26,144.88,172.48,146.19,175.8Z"/><path class="cls-50" d="M146.29,157.62a25.2,25.2,0,0,0-.51,5c1.39.86,4.05-.61,5.71-2.48a9.6,9.6,0,0,0,.8-1.07,1,1,0,0,1-.1-.5,31.41,31.41,0,0,1,1.47-5c.62-1.78,1.21-3.33,1.21-3.33l.18-1.22-3.32-.92-3.53,1.24s-.38.32-.64,1.92-.43,1.13-1.78,3.87S146.29,157.62,146.29,157.62Z"/><path class="cls-64" d="M152.91,148.9a2.37,2.37,0,0,1-.68,1.22c-1.07,1.19-2.06,2.81-3.09,2.79-1.21-.34,1.07-4.49,1.34-5.47a22.32,22.32,0,0,1,3-2.28C153.78,145.28,153,148.47,152.91,148.9Z"/><path class="cls-66" d="M149.45,150.78a4.57,4.57,0,0,1,.77-2.38c.69-.89,2-1.21,2.41-.91s0,.51-.24.92C151.54,149.77,149.53,152,149.45,150.78Z"/><path class="cls-64" d="M149.27,149.89c-.34-.34,0-2.94,1-4.9,1.37-2.71,3.61-4.12,4.44-3.73,1,.46.6,5-1.86,6.1a1.21,1.21,0,0,0-.72.55C150.82,149.78,149.58,150.22,149.27,149.89Z"/><path d="M151.14,146c.18.91,1.15,2.58-.22,4.41a9.68,9.68,0,0,0,4.05-4.11c1.62-3.12.77-5.69-.8-5.4S150.73,143.86,151.14,146Z"/><path d="M151.77,143.55a4.55,4.55,0,0,0-1.72,1.94c-.11-1.24,1.55-3.32,2.38-3.89,1.17-.79,1.73.21.61.8a2.16,2.16,0,0,0-.74.5A5.38,5.38,0,0,1,151.77,143.55Z"/><path class="cls-70" d="M149.21,158.05c-.91.1-1.43-.72-1.17-1.84a8.1,8.1,0,0,1-1.78,1.44,13.14,13.14,0,0,0-.41,3.3c.31-2.17,1.1-2.82,1.49-2.77a1.05,1.05,0,0,1,.55.34,1.59,1.59,0,0,0,2,.11,4.45,4.45,0,0,0,1.28-1.31,5.73,5.73,0,0,0,.65-1.14c-.19,0-.38.39-.53.57a5.32,5.32,0,0,1-.64.62A2.86,2.86,0,0,1,149.21,158.05Z"/><path class="cls-64" d="M152.74,154.68c.21.08.61-.47.79-.74,2-2.92,3.86-2.38,5.66-3a3.33,3.33,0,0,0,1.05-.58,2.21,2.21,0,0,0,.65-.8c.86-1.8-1.91-3.8-3.4-4.29a1.11,1.11,0,0,0-.51.93,1.06,1.06,0,0,0,.35.64,5,5,0,0,1,.74,1.59l0,.11a12.39,12.39,0,0,0-2.55.33c-.27.06-.53.12-.8.16-1,.2-1.27.83-1.93,3.85C152.54,154.16,152.58,154.62,152.74,154.68Z"/><path class="cls-66" d="M155.55,148.86c.34,0,1,.23,1.17.23a4.6,4.6,0,0,0,1.55-.11.89.89,0,0,0-.2-.56l0,.11A12.39,12.39,0,0,0,155.55,148.86Z"/><path class="cls-66" d="M152.74,154.68c.21.08.61-.47.79-.74,2-2.92,3.86-2.38,5.66-3a3.33,3.33,0,0,0,1.05-.58,2.21,2.21,0,0,0,.65-.8,4.14,4.14,0,0,1-1.26.88c-1.94.61-3.79.52-5.29,1.33C153.74,152.08,152.92,154,152.74,154.68Z"/><path class="cls-70" d="M153.6,168.36a9,9,0,0,0-.74-5.25,7.32,7.32,0,0,1-1.19-2.46c-.45-1.21.17-2.94.51-4.23a6.75,6.75,0,0,1,.64-1.88,6.45,6.45,0,0,1,.51-.66,3.27,3.27,0,0,1,.33-.33,31.41,31.41,0,0,0-1.47,5,1,1,0,0,0,.1.5l0,.09.08-.08c3,1,2,5.51,2.21,8.14.09,1.45-.25,2.22.52,3.06-.47,1.53-2.1,2.92-3.83,3.95A14.38,14.38,0,0,0,153.6,168.36Z"/><path class="cls-70" d="M147.12,173.08a12.39,12.39,0,0,1-1.44-2.89c.25,1.11.49,2.21.74,3.31a3.15,3.15,0,0,0,.71,1.69c.26.23,1.94.46,1.83-.52,0-.35-.66-.49-.88-.64A4.32,4.32,0,0,1,147.12,173.08Z"/><path class="cls-71" d="M138.89,170.25c-.28-2.65-1.41-3-1.71-8.59l-2.51,2.86v8.62Z"/><path class="cls-64" d="M134.26,176.35l-.19-1.18,1.7-1.35.33,1.38a1.46,1.46,0,0,1,1.21.74l.17,1c0,.28-.3.48-.47.23l-.16-.28-.18-.3-.42.51,0,.84.71.09c.29,0,.18.33-.11.53l-.84.24-.43-.09a.61.61,0,0,1-.66.19c-.21.24-.37.32-.5.21l-.15-.37c-.24.14-.39.08-.45-.2A6.05,6.05,0,0,1,134.26,176.35Z"/><path class="cls-72" d="M133.72,161.2a49.67,49.67,0,0,0-1,9.05l1.49,6.15c.37.52,1.36,0,2.08-1.29l-.49-6.43,1.42-7C137.6,159,134.64,159,133.72,161.2Z"/><path class="cls-63" d="M133.72,161.2a49.67,49.67,0,0,0-1,9.05l1.49,6.15c.37.52,1.36,0,2.08-1.29l-.49-6.43,1.42-7C137.6,159,134.64,159,133.72,161.2Z"/><path class="cls-73" d="M153.12,157a2.88,2.88,0,0,1-.14,2s-1.08,1.73-1.09,1.76-.36.51-.36.51c-.34.4-.39,0-.18-.32l.29-.5c-.24.28-.32,0-.11-.37l.26-.5c-.23.26-.31-.05,0-.48l.41-.79.19-.84-.52.11c-.27.09-.16-.26.19-.54l.6-.51Z"/></g><path class="cls-74" d="M395.81,2a53.36,53.36,0,0,1,53.36,53.36V324.49a53.36,53.36,0,0,1-53.36,53.36H55.36A53.36,53.36,0,0,1,2,324.49V55.36A53.36,53.36,0,0,1,55.36,2H395.81m0-2H55.36A55.42,55.42,0,0,0,0,55.36V324.49a55.42,55.42,0,0,0,55.36,55.36H395.81a55.42,55.42,0,0,0,55.36-55.36V55.36A55.42,55.42,0,0,0,395.81,0Z"/><path class="cls-74" d="M449.17,207.93a30.74,30.74,0,1,1,21.75-9A30.55,30.55,0,0,1,449.17,207.93Z"/><path class="cls-4" d="M449.17,147.91a29.26,29.26,0,1,1-20.69,8.57,29.17,29.17,0,0,1,20.69-8.57m0-3A32.26,32.26,0,1,0,472,154.36a32,32,0,0,0-22.81-9.45Z"/><path class="cls-4" d="M442.15,167.78a2.12,2.12,0,0,1,2.31-2.34h5.28c4.62,0,7.47,2.07,7.47,6.78,0,3.3-2.49,5.19-5.55,5.67l5.1,5.46a1.94,1.94,0,0,1,.6,1.32,2.28,2.28,0,0,1-4,1.53l-6.66-8.07h-.06v6.51a2.25,2.25,0,1,1-4.5,0Zm4.5,7.11h3.09a2.55,2.55,0,0,0,2.79-2.67,2.52,2.52,0,0,0-2.79-2.64h-3.09Z"/><path class="cls-3" d="M80,131.19a30.77,30.77,0,1,1,28.15-18.34A30.59,30.59,0,0,1,80,131.19Z"/><path class="cls-4" d="M80,71.16A29.26,29.26,0,1,1,53.24,88.6,29.16,29.16,0,0,1,80,71.16m0-3h0a32.3,32.3,0,1,0,13,2.76,32.29,32.29,0,0,0-13-2.76Z"/><line class="cls-5" x1="106.77" y1="112.25" x2="124.37" y2="120.02"/><path class="cls-4" d="M82.32,89.23c2.19,0,6.45.72,6.45,3.36a1.9,1.9,0,0,1-1.86,2c-1.23,0-2.07-1-4.59-1-3.72,0-5.64,3.15-5.64,6.81S78.63,107,82.32,107c2.52,0,3.54-1.26,4.77-1.26a2.11,2.11,0,0,1,2,2c0,2.88-4.53,3.54-6.75,3.54-6.09,0-10.32-4.83-10.32-11S76.2,89.23,82.32,89.23Z"/><circle class="cls-3" cx="347.79" cy="240.46" r="30.76"/><path class="cls-4" d="M347.79,211.2a29.26,29.26,0,1,1-29.25,29.26,29.26,29.26,0,0,1,29.25-29.26m0-3a32.26,32.26,0,1,0,32.26,32.26,32.29,32.29,0,0,0-32.26-32.26Z"/><line class="cls-5" x1="318.54" y1="240.46" x2="221.26" y2="240.46"/><path class="cls-4" d="M339,232.64a2.81,2.81,0,0,1-.21-1.11,2.24,2.24,0,0,1,4.35-.69l4.65,12.48,4.64-12.48a2.27,2.27,0,0,1,2-1.47,2.24,2.24,0,0,1,2.31,2.16,2.81,2.81,0,0,1-.21,1.11L350,249.35a2.29,2.29,0,0,1-4.44,0Z"/></g></g></g></svg>