<svg xmlns="http://www.w3.org/2000/svg" xmlns:xlink="http://www.w3.org/1999/xlink" viewBox="0 0 110.5 130.6"><defs><style>.cls-1{fill:none;}.cls-2{isolation:isolate;}.cls-3{fill:#b4b4b3;}.cls-4{fill:#8d8d8d;}.cls-5{fill:#a7a6a6;}.cls-6{fill:#9c9b9b;}.cls-7{fill:#00b0c2;}.cls-8{fill:#a2a2a2;}.cls-9{fill:#8b8b8a;}.cls-10{fill:#80807f;}.cls-11{fill:#008997;}.cls-12{fill:#81c9c7;}.cls-13,.cls-34,.cls-60,.cls-64,.cls-66,.cls-67,.cls-68,.cls-69{mix-blend-mode:multiply;}.cls-14{fill:#a6afbe;}.cls-15{fill:#dcdcdc;}.cls-16{fill:#888588;}.cls-17{fill:#cfcdcf;}.cls-18{fill:#bab7bb;}.cls-19{fill:#facfa6;}.cls-20,.cls-35,.cls-36{fill:#fff;}.cls-21{fill:#dddee2;}.cls-22{fill:#b3b3b3;}.cls-23{fill:#e8e8eb;}.cls-24{fill:#f8d09c;}.cls-25{opacity:0.6;}.cls-26{fill:#f6c086;}.cls-27{fill:#513e40;}.cls-28{fill:#e6b580;}.cls-29{fill:#ac8a78;}.cls-30{fill:#2a1c1c;}.cls-31{fill:#784f39;}.cls-32{fill:#402b1e;}.cls-33,.cls-35,.cls-36,.cls-47,.cls-57{mix-blend-mode:overlay;}.cls-33,.cls-34{opacity:0.4;}.cls-35,.cls-69{opacity:0.3;}.cls-37{opacity:0.1;}.cls-38{fill:#3e4040;}.cls-39{fill:#e2551c;}.cls-40{fill:#ab4412;}.cls-41{fill:#d1d1d1;}.cls-42{fill:#141c26;}.cls-43{fill:#2d4057;}.cls-44{fill:#8196b3;}.cls-45{clip-path:url(#clip-path);}.cls-46{fill:url(#linear-gradient);}.cls-48{fill:#f3f8fa;}.cls-49{fill:#ccc;}.cls-50{fill:#999;}.cls-51{fill:#4c4c4c;}.cls-52,.cls-57{fill:#333;}.cls-53{fill:gray;}.cls-54{fill:#656565;}.cls-55{fill:#a4a4a4;}.cls-56{fill:#474747;}.cls-58{fill:#464646;}.cls-59{fill:#696969;}.cls-60{fill:#ebc286;}.cls-60,.cls-64,.cls-66,.cls-67,.cls-68{opacity:0.5;}.cls-61{fill:#e64047;}.cls-62{fill:#f0845d;}.cls-63{fill:#e3363d;}.cls-64{fill:#f2946f;}.cls-65,.cls-66{fill:#662d91;}.cls-67{fill:#ffb294;}.cls-68{fill:#76afcf;}.cls-69{fill:#89131c;}.cls-70{fill:#25435c;}.cls-71{fill:#ff9a73;}</style><clipPath id="clip-path"><polygon class="cls-1" points="57.76 34.7 57.76 7.5 18.9 29.93 18.9 57.13 57.76 34.7"/></clipPath><linearGradient id="linear-gradient" x1="13586.13" y1="-3708" x2="13586.13" y2="-3747.09" gradientTransform="matrix(-1, 0.58, 0, 1, 13624.04, -4079.63)" gradientUnits="userSpaceOnUse"><stop offset="0" stop-color="#d9b6a1"/><stop offset="1" stop-color="#b87756"/></linearGradient></defs><g class="cls-2"><g id="Capa_2" data-name="Capa 2"><g id="Capa_1-2" data-name="Capa 1"><path class="cls-3" d="M80.13,3.22S79.18,3.3,76.51,1L74.67,3.39s2.16.8,1.73,2.71Z"/><path class="cls-4" d="M85,12.38c1.91-3.94-.87-6.21-.87-6.21L80.39,3.34c-2.7-1.46-3.62,2-3.62,2l-.7,1.48C75.2,8.36,76.31,9,76.31,9l2.65,2c.78.54,1.64-.38,1.64-.38l1.45-1.39a1.06,1.06,0,0,1,1.47,0A8.07,8.07,0,0,1,85,12.38Z"/><rect class="cls-5" x="73.99" y="10.57" width="4.56" height="2.07" transform="translate(20.78 65.21) rotate(-52.66)"/><path class="cls-6" d="M77.71,4.23h0a6.15,6.15,0,0,1-2.6-1.34l-.4.52s2.16.8,1.73,2.71l1.82-1.41Z"/><path class="cls-6" d="M77.33,1.79a4.51,4.51,0,0,0,1.06,1.36c.27.26.55.52.84.77l.9-.7s-.77.06-2.89-1.63Z"/><path class="cls-7" d="M64.26,30.4a1,1,0,0,1-1.38.18l-1.39-1.06a1,1,0,0,1-.19-1.38c2.08-1.47,7.61-10,7.61-10a33.74,33.74,0,0,1,4.16-5.45,1,1,0,0,1,1.39-.19l1.38,1.06A1,1,0,0,1,76,15a28.6,28.6,0,0,1-4.14,5.43S65.56,27.49,64.26,30.4Z"/><path class="cls-8" d="M78.39,9.6a2.89,2.89,0,0,1-.92-.48c-.77-.71-.27-1.77.14-2.53S78,5,78.75,4.42c1-.77,2.25-.19,3.13.47A13.2,13.2,0,0,1,83.2,6.05l.36.37a.56.56,0,0,1,.3.13,1.44,1.44,0,0,0,.85.3,4,4,0,0,0-.61-.68L80.39,3.34c-2.7-1.46-3.62,2-3.62,2l-.7,1.48C75.2,8.36,76.31,9,76.31,9l2.65,2c.78.54,1.64-.38,1.64-.38l.23-.21-1-.3C79.36,10,78.88,9.79,78.39,9.6Z"/><path class="cls-9" d="M76.59.59,75.86,0,75.8,0,73.52,3l0,0,.74.56a.33.33,0,0,0,.46-.06l1.89-2.49A.33.33,0,0,0,76.59.59Z"/><path class="cls-8" d="M76.42.61,76.26.49a.31.31,0,0,1,.06.43L74.54,3.25a.32.32,0,0,1-.44.06l.16.12a.32.32,0,0,0,.44-.06L76.47,1A.3.3,0,0,0,76.42.61Z"/><path class="cls-10" d="M74.87,1.66c-.63.82-1.23,1.42-1.34,1.34s.31-.82.94-1.65S75.7-.07,75.81,0,75.5.83,74.87,1.66Z"/><path class="cls-11" d="M76,15a1,1,0,0,0-.19-1.39l-.34-.26a23.44,23.44,0,0,1-3,4.43c-1.38,1.47-3.05,2.68-4.18,4.36-.9,1.34-4.88,6.85-5.84,8.2l.36.27a1,1,0,0,0,1.38-.18c1.3-2.91,7.63-10,7.63-10A28.6,28.6,0,0,0,76,15Z"/><path class="cls-12" d="M75,13.25a1.27,1.27,0,0,0-.9-.31,1.23,1.23,0,0,0-.8.43l-.15.19-.16.19-.31.38-.62.77c-.21.26-.41.52-.6.79s-.4.52-.59.79-.38.54-.55.81a7.07,7.07,0,0,0-.49.84c-.3.59-.63,1.17-1,1.74-.17.29-.35.57-.53.85s-.36.56-.55.83-3.5,4.62-3.72,4.88a7,7,0,0,1-.7.74l-.4.31c-.13.1-.26.2-.38.31a9.13,9.13,0,0,0-.73.65h0l-.06.06-.06.08a.48.48,0,0,0-.05.18v.1l0,.09,0,.1,0,.09.06.09.06.09.15.16.16.15.17.15-.19-.13a1.09,1.09,0,0,1-.17-.13l-.17-.15a.6.6,0,0,0-.08-.08l-.07-.09-.06-.1a.37.37,0,0,1,0-.11.36.36,0,0,1,0-.11.51.51,0,0,1,0-.13.53.53,0,0,1,.06-.24.39.39,0,0,1,.06-.11.43.43,0,0,1,.09-.1h0a7.82,7.82,0,0,1,.69-.72l.37-.34L63,27.1l.18-.16a6.35,6.35,0,0,0,.63-.73c.19-.26,3.49-4.6,3.67-4.88s.36-.55.53-.83.34-.56.5-.85.33-.57.48-.86.32-.57.47-.86.34-.59.52-.87.39-.55.59-.82l.61-.78.65-.76.66-.74.34-.37c.12-.12.22-.24.35-.36a1.8,1.8,0,0,1,.43-.29,1.06,1.06,0,0,1,.25-.09,1.15,1.15,0,0,1,.26,0A1.33,1.33,0,0,1,75,13.25Z"/><path class="cls-10" d="M77.33,4.1a2.75,2.75,0,0,0-.17.29C77.22,4.29,77.27,4.19,77.33,4.1Z"/><path class="cls-10" d="M84.1,6.17,83,5.37a2.22,2.22,0,0,1,.56,1.51,1.23,1.23,0,0,1-.74,1A4.53,4.53,0,0,1,81.77,8a4,4,0,0,0-1.91,1.13,3.08,3.08,0,0,1-2.24.77l-.23,0L79,11.06c.78.54,1.64-.38,1.64-.38l1.45-1.39a1.06,1.06,0,0,1,1.47,0A8.07,8.07,0,0,1,85,12.38C86.88,8.44,84.1,6.17,84.1,6.17Z"/><g class="cls-13"><g class="cls-2"><polygon class="cls-14" points="0 73.98 23.24 87.4 70.38 60.23 47.1 46.79 0 73.98"/></g></g><polygon class="cls-15" points="45.25 33.49 47.57 32.15 67.25 43.51 64.94 44.86 45.25 33.49"/><polygon class="cls-16" points="64.88 61.4 64.94 44.86 45.25 33.49 45.28 50.07 64.88 61.4"/><polygon class="cls-17" points="64.88 61.4 67.2 60.05 67.25 43.51 64.94 44.86 64.88 61.4"/><g class="cls-2"><polygon class="cls-15" points="5.84 56.22 25.52 67.58 65.42 44.58 45.71 33.2 5.84 56.22"/></g><polygon class="cls-17" points="65.42 44.58 25.52 67.56 25.52 70.27 65.39 47.25 65.42 44.58"/><polygon class="cls-17" points="25.52 70.27 5.84 58.91 5.84 56.22 25.52 67.58 25.52 70.27"/><polygon class="cls-15" points="3.98 57.31 6.3 55.97 25.99 67.34 23.68 68.68 3.98 57.31"/><polygon class="cls-18" points="23.62 85.22 23.68 68.68 3.98 57.31 4.01 73.89 23.62 85.22"/><polygon class="cls-17" points="23.62 85.22 25.94 83.87 25.99 67.34 23.68 68.68 23.62 85.22"/><path class="cls-19" d="M79.89,64.94a7.56,7.56,0,0,0-1,2.79,18.86,18.86,0,0,1,1.45,3.33c-.65.59-1.4-.44-1.63-1-.38.62-.24,1.87-.56,2.52-.9,2-1.42.26-1.61.21-.62-.17-2.21-.62-2.5-1.29s-.12-.83,0-1.46a7.16,7.16,0,0,1,1-1.82c.37-.62,1.06-1,1.47-1.56.23-.4.61-2.29,1.08-2.45s1,.49,1.43.73"/><path class="cls-20" d="M105.75,109.78a4,4,0,0,1,1.19,1.79c.64,2,.85,1.93-.22,2.42a23.47,23.47,0,0,1-6.15,1.45c-2.73.36-5.82.71-7.41.19-.54-.18-.57-.76-.36-1.47s3.64-.69,5-1.4c.72-.39,2-1.2,2-1.47a.58.58,0,0,0,0,.14Z"/><path class="cls-21" d="M73.75,110.55c.27-.74,4.07-.53,5.53-1.22a15.13,15.13,0,0,0,3.12-2.44l5.91-.11a6.85,6.85,0,0,1,.66,1.75c.51,2.1.68,2.06-.49,2.53a26.52,26.52,0,0,1-6.63,1.23c-2.91.25-6.21.46-7.84-.16C73.46,111.92,73.47,111.29,73.75,110.55Z"/><path class="cls-21" d="M81.48,107S82.7,88.12,84,83.11c.53-2.06,1.55-6.3,2.55-10.4.51-2.06,1-4.08,1.43-5.78,2.63,3.8,6.32,5.8,7.11,9.66l-7.11,31-.22,0L81.87,107Z"/><path class="cls-20" d="M88.18,71.06c-.33-1.17-.55-2-.62-2.38-.14-.69-.67-1.85-.76-2.53a32.33,32.33,0,0,0,15.2-.76,11.25,11.25,0,0,1-1.7,4.7c-.64,1,.35,15.94.35,15.94l5.29,23.69-.19.06-6,1.65a.58.58,0,0,1,0-.14,216.37,216.37,0,0,1-7.06-23.66c0-.15,0-.35,0-.52C91.63,83.51,89.32,75.25,88.18,71.06Z"/><path class="cls-22" d="M104.52,101.79l-.15.37Z"/><path class="cls-19" d="M89.17,38.46a16.8,16.8,0,0,0-5.57,7.46c-2,5.07-4,8.93-5.29,14.18C77.85,62,77,64.45,77.46,65s2.3,1.1,2.4.28c.32-2.56,2.57-7.69,3.66-9.67,1.76-3.29,2.82-4.66,4.44-8,.58-1.2,2.73-2.34,3.25-3.64.58-1.54.32-1.75-.59-3.25-.38-.75-.91-1.49-1.29-2.25"/><path class="cls-23" d="M89.17,38.46a16.8,16.8,0,0,0-5.57,7.46c-2,5.07-2.12,3.16-3.41,8.42a1.79,1.79,0,0,0,3.33,1.24c1.76-3.29,2.82-4.66,4.44-8,.58-1.2,2.73-2.34,3.25-3.64.58-1.54.32-1.75-.59-3.25-.38-.75-.91-1.49-1.29-2.25"/><path class="cls-20" d="M101.14,45.23c.15-2.36,2.3-5.68-.53-7.06-1.38-.67-4.74-.82-6.57-.76a11.16,11.16,0,0,0-4.54,1l-.73.6a42.83,42.83,0,0,0-1.57,9.63c.14,5.37-.18,15.63-.47,17.77,4.85.85,4,1.56,8.92.62,2.7-.51,5.75-.69,7.35-2C101.58,60.39,100.87,50.06,101.14,45.23Z"/><path class="cls-24" d="M92.05,32.88a12.76,12.76,0,0,1-.29,5.5l.78.48c1.56.9,5.18-.24,5.76-.93.12-.15-.28-1.11-.47-2.81-.26-2.46-.1-2.93-2.5-2.77-1.12.07-2.18.38-3.31.36"/><path class="cls-19" d="M86.55,12.68c-2.17,6.29-3.42,16.73-1.5,18.48,5.46,5,5.14,5.52,10.13,4.25a27.49,27.49,0,0,0,6.06-2.26c2.25-1.21,2.14-1.44,2.9-3.35.16-.4,4.69.06,5.32-5.18.31-2.64-1.68-3.6-4-3.41-.38-10-10.42-16-18.13-9.79"/><g class="cls-25"><path class="cls-26" d="M99.67,13.26c5.74-2.48,7.48,1.78,5.83,8,2.28-.19,4.27.77,4,3.41-.63,5.24-5.16,4.78-5.32,5.18-.76,1.91-.65,2.14-2.9,3.35a27.49,27.49,0,0,1-6.06,2.26s8.57-6.52,7-16.2c0,0-.52-3.8-2.06-5l-.43-1"/></g><path class="cls-27" d="M94.32,21c1.77-.15,4.39-1.08,6.21-1,1,.06.57-.84-.44-1a11.76,11.76,0,0,0-5.72.4c-1,.3-1.08,1.68-.05,1.6Z"/><path class="cls-27" d="M89.15,20c-1.34-.35-3.24-1.41-4.64-1.57-.78-.09-.33-.72.47-.72a9.17,9.17,0,0,1,4.34,1.05c.71.36.61,1.44-.17,1.24Z"/><path class="cls-28" d="M107,26.76c-.38-.09-.87-.37-1.24-.42A5.37,5.37,0,0,1,107,23.82c.58-.76.11-.87-.16-.45a10.93,10.93,0,0,0-1.76,3.05.4.4,0,0,0,.36.49,13.71,13.71,0,0,1,1.43.22C107.38,27.25,107.48,26.88,107,26.76Z"/><path class="cls-29" d="M89.52,28.11c.06-.64,1.71-1.13,1.6-2.4,0-.72-.31-3.31-.93-3.61,0,0,.77,2.83.35,3.88-.34.79-1.75,1.38-1.76,2.2,0,.65,1.6,1.51,2.2,1.18C91.26,29.2,89.63,28.72,89.52,28.11Z"/><path class="cls-30" d="M92.69,7.42c1.8-.51,8.58-1.08,10.59-.59,1.35.32,6.74,3.73,6.62,6L109.37,14c1.37,1.47,1.62,5.12.06,9.28-.4-1.2-2.37-2.47-3.14-1.72-.2.17-.72,1.66-1.26,2.69-.39.79-1.23-.67-1.1-1.62s.42-2.11.5-2.71c.15-1,.4-3.87-.61-5.23-1.64-2.31-7.42-1.15-9.58-1.52-2.73-.46-4.9-2.4-6.57-1.51A6.92,6.92,0,0,1,92.69,7.42Z"/><path class="cls-20" d="M93.9,24a2.88,2.88,0,0,0,0,.63c0,.22.12.35.06.45s-.1.15,0,.23.14,0,.25.06a4.61,4.61,0,0,0,2.18.42,6.76,6.76,0,0,0,2.49-.63,1.88,1.88,0,0,0,.57-.38c.2-.23.77-.54.72-.76a3,3,0,0,0-1.51-1.22c-.66-.21-4.08-.79-4.37-.3A3.09,3.09,0,0,0,93.9,24Z"/><path class="cls-31" d="M95.47,25.26a1.21,1.21,0,1,0-1.25-1.17A1.2,1.2,0,0,0,95.47,25.26Z"/><path class="cls-32" d="M95.41,23.31a.73.73,0,0,1,.76.72.75.75,0,1,1-1.49,0,.75.75,0,0,1,.73-.77m0-.92a1.67,1.67,0,1,0,.1,3.33,1.67,1.67,0,0,0-.1-3.33Z"/><g class="cls-33"><path class="cls-20" d="M93.76,24.1A1.67,1.67,0,1,0,97.09,24a3.68,3.68,0,0,1-1.64.89A3.73,3.73,0,0,1,93.76,24.1Z"/></g><g class="cls-33"><path class="cls-20" d="M94,24.29a1.51,1.51,0,0,0,3-.09,3.5,3.5,0,0,1-1.46.65A3.53,3.53,0,0,1,94,24.29Z"/></g><g class="cls-34"><path class="cls-31" d="M93.76,24.1c0,.93.72-.86,1.64-.89s1.72,1.72,1.69.8a1.67,1.67,0,0,0-3.33.09Z"/></g><path d="M94.58,24.08a.85.85,0,0,0,.87.82.85.85,0,0,0,0-1.69A.85.85,0,0,0,94.58,24.08Z"/><path class="cls-20" d="M93.89,23.4a.63.63,0,1,0,.61-.65A.63.63,0,0,0,93.89,23.4Z"/><path class="cls-20" d="M95.84,24.44c-.13.19,0,.49.3.69s.62.19.75,0,0-.5-.31-.7S96,24.25,95.84,24.44Z"/><path class="cls-35" d="M95.6,24.5c-.13.19,0,.5.3.69s.63.19.75,0,0-.5-.3-.69S95.72,24.31,95.6,24.5Z"/><path class="cls-36" d="M94,23.53a.63.63,0,0,0,.65.61.63.63,0,0,0,0-1.26A.62.62,0,0,0,94,23.53Z"/><path class="cls-37" d="M98.9,25.19l.54-1s-.64-.73-1-.81-3.28-.48-3.7-.18-.75.44-.84.86c0,0-.06-1.07.31-1.41s3.41-.29,4.55.25,1.46,1,1.43,1.2A6.36,6.36,0,0,1,98.9,25.19Z"/><path class="cls-38" d="M93.8,22.58c0,.16.17.24.19.39s0,0,0,0a2.66,2.66,0,0,0-.1.47c0,.14,0,.24,0,.31a.5.5,0,0,0,0,.11l0,.13c0-.24,0-.17,0-.24a.36.36,0,0,1,0-.14,1.5,1.5,0,0,1,.75-1.08,10.34,10.34,0,0,1,3,.18l.7.15.11,0h0l0,0,.17.08.34.22c.23.16.43.33.62.49A1.55,1.55,0,0,1,100,24l0,.05h0l0,0a1.51,1.51,0,0,1-.21.23l-.2.21c-.13.12-.25.23-.34.33l-.3.28-.09.06a1.27,1.27,0,0,0,.2-.09l.27-.15.39-.28.24-.17c.08-.07.17-.14.26-.23a.46.46,0,0,1,.07-.07v0h0v-.05l0,0v0h0c0-.05,0,0,0,0h0V24l0,0h0a.11.11,0,0,0,0-.05l-.06-.09a3.84,3.84,0,0,0-.27-.29,5.7,5.7,0,0,0-.64-.54c-.13-.09-.25-.16-.39-.24l-.22-.09a12.66,12.66,0,0,0-3.5-.58C94,22.14,93.77,22.4,93.8,22.58ZM100.09,24Z"/><path class="cls-20" d="M89.33,23.58a2.45,2.45,0,0,1-.1.51c-.07.18-.15.28-.11.37s.06.13,0,.19-.11,0-.21,0a3.94,3.94,0,0,1-1.85.06,5.88,5.88,0,0,1-2-.84,1.38,1.38,0,0,1-.41-.39c-.14-.21-.57-.54-.51-.72A2.74,2.74,0,0,1,85.56,22c.56-.08,3.44-.11,3.62.33A2.54,2.54,0,0,1,89.33,23.58Z"/><path class="cls-31" d="M86,24.23a1,1,0,1,1,1.18-.8A1,1,0,0,1,86,24.23Z"/><path class="cls-32" d="M86.33,22.64a.61.61,0,0,1,.5.72.62.62,0,1,1-1.22-.23.61.61,0,0,1,.72-.49m.15-.75a1.38,1.38,0,1,0,1.1,1.61,1.39,1.39,0,0,0-1.1-1.61Z"/><g class="cls-33"><path class="cls-20" d="M87.58,23.5A1.38,1.38,0,1,1,84.86,23s.69.85,1.23,1A3.06,3.06,0,0,0,87.58,23.5Z"/></g><g class="cls-33"><path class="cls-20" d="M87.39,23.63a1.25,1.25,0,0,1-2.4-.46,3,3,0,0,0,1.11.73A2.94,2.94,0,0,0,87.39,23.63Z"/></g><g class="cls-34"><path class="cls-31" d="M87.58,23.5c-.14.76-.48-.8-1.23-.94s-1.63,1.18-1.49.43a1.38,1.38,0,0,1,2.72.51Z"/></g><path d="M86.91,23.38a.7.7,0,0,1-1.38-.26.7.7,0,1,1,1.38.26Z"/><path class="cls-20" d="M87.57,22.91a.53.53,0,0,1-.61.42.54.54,0,0,1-.42-.62.53.53,0,0,1,.62-.41A.52.52,0,0,1,87.57,22.91Z"/><path class="cls-20" d="M85.84,23.51c.08.17-.07.41-.33.53s-.55.08-.62-.1.07-.4.33-.52S85.76,23.34,85.84,23.51Z"/><path class="cls-35" d="M86,23.59c.08.17-.07.41-.33.53s-.54.08-.62-.09.07-.41.34-.53S86,23.43,86,23.59Z"/><path class="cls-36" d="M87.44,23a.52.52,0,1,1-.42-.61A.52.52,0,0,1,87.44,23Z"/><path class="cls-37" d="M85.07,23.89,84.76,23a2.73,2.73,0,0,1,.93-.53c.31,0,2.75,0,3.06.32s.55.46.58.82c0,0,.18-.88-.08-1.2A6.84,6.84,0,0,0,85.48,22c-1,.3-1.32.63-1.33.8A5.25,5.25,0,0,0,85.07,23.89Z"/><path class="cls-38" d="M88.48,21.77a10.75,10.75,0,0,0-2.94,0l-.2,0c-.12,0-.23.1-.35.15a4.87,4.87,0,0,0-.59.36,1.71,1.71,0,0,0-.26.21.17.17,0,0,0-.06.06l0,0h0l0,0v0h0v0s0,0,0,0h0v.09h0v0a.43.43,0,0,0,0,.07,2.15,2.15,0,0,0,.19.22,1.37,1.37,0,0,0,.17.17l.29.27.19.17.16.1L85,23.83l-.21-.28c-.07-.08-.15-.19-.24-.31s-.1-.12-.14-.19l-.15-.22v0h0l0,0a2.71,2.71,0,0,1,.25-.17c.18-.11.37-.22.57-.32l.31-.14.15-.05h.16l.6,0a8.83,8.83,0,0,1,2.52.25,1.25,1.25,0,0,1,.48,1,.49.49,0,0,1,0,.12c0,.05,0,0,0,.19l0-.1a.66.66,0,0,0,0-.09c0-.06,0-.15,0-.26a1.93,1.93,0,0,0,0-.4v0c0-.13.16-.18.21-.3S89.53,22,88.48,21.77Zm-4.24,1Z"/><path class="cls-39" d="M94.32,33.14c-.35.6-1.59-.17-3.13-.46s-3-.15-3.06-.84,1.6-2.22,3.61-1.79S94.69,32.58,94.32,33.14Z"/><path class="cls-40" d="M91.2,31.6a4.64,4.64,0,0,0-1.66-.14c-.49.05-.94.28-1.41.34v0c.07.69,1.52.48,3.06.84,1,.19,1.93.6,2.52.67A5.73,5.73,0,0,0,91.2,31.6Z"/><path class="cls-20" d="M94,31.62a3.46,3.46,0,0,0-4.91-1Z"/><path class="cls-20" d="M102.17,15s.59,1,.17,1.33a.58.58,0,0,1-.76,0s-.44-.25.27-1.34l.17-.46Z"/><path class="cls-41" d="M101.73,15.39c-.19.54,0,.68,0,.68a.56.56,0,0,0,.47.15.45.45,0,0,1-.58,0S101.4,16,101.73,15.39Z"/><path class="cls-20" d="M99,14.2s.41.7.12.93a.41.41,0,0,1-.54,0s-.3-.17.2-.95l.12-.32Z"/><path class="cls-41" d="M98.69,14.48c-.13.38,0,.48,0,.48a.39.39,0,0,0,.33.1.33.33,0,0,1-.41,0S98.46,14.93,98.69,14.48Z"/><path class="cls-19" d="M73.34,26.46a8,8,0,0,1-2.09-2.29,18.8,18.8,0,0,0,.1-3.79c-.86-.32-1.18,1-1.17,1.65-.61-.45-1-1.72-1.53-2.22-1.65-1.58-1.47.31-1.63.43-.54.41-1.9,1.47-1.92,2.23s.21.85.62,1.39a7.88,7.88,0,0,0,1.71,1.36,19.49,19.49,0,0,0,2,.93c.37.3,1.48,2,2,1.94s.75-.85,1.1-1.27"/><path class="cls-19" d="M100.18,40.76c.18-1.72-3.45-1.28-5-1.31l-5.33-1c-2.2-.81-5.34-1.7-7.27-3a101.16,101.16,0,0,1-9.83-9.22c-2,.91-1.51,1-1.54,1.23,0,.46,6.46,9.66,9.52,11.69a19.63,19.63,0,0,0,3.68,2.21,22.42,22.42,0,0,0,12,2C98.05,43.08,100,42.74,100.18,40.76Z"/><path class="cls-23" d="M80.74,39.1a19.63,19.63,0,0,0,3.68,2.21,22.42,22.42,0,0,0,12,2c1.65-.19,3.59-.53,3.78-2.51.18-1.72-3.45-1.28-5-1.31l-5.33-1c-2.2-.81-5.34-1.7-7.27-3"/><g class="cls-13"><g class="cls-2"><polygon class="cls-14" points="109 117.18 85.76 130.6 38.62 103.43 61.9 89.99 109 117.18"/></g></g><polygon class="cls-15" points="63.75 76.69 61.43 75.34 41.74 86.71 44.06 88.06 63.75 76.69"/><polygon class="cls-16" points="44.12 104.59 44.06 88.06 63.75 76.69 63.72 93.27 44.12 104.59"/><polygon class="cls-17" points="44.12 104.59 41.8 103.24 41.74 86.71 44.06 88.06 44.12 104.59"/><g class="cls-2"><polygon class="cls-15" points="103.16 99.42 83.48 110.77 43.58 87.77 63.29 76.39 103.16 99.42"/></g><polygon class="cls-17" points="43.58 87.77 83.48 110.76 83.48 113.47 43.61 90.44 43.58 87.77"/><polygon class="cls-17" points="83.48 113.47 103.16 102.11 103.16 99.42 83.48 110.78 83.48 113.47"/><polygon class="cls-15" points="105.02 100.51 102.69 99.17 83.01 110.53 85.32 111.88 105.02 100.51"/><polygon class="cls-18" points="85.38 128.41 85.32 111.88 105.02 100.51 104.99 117.09 85.38 128.41"/><polygon class="cls-17" points="85.38 128.41 83.06 127.06 83.01 110.53 85.32 111.88 85.38 128.41"/><path class="cls-42" d="M29.94,45.89v2.89c0,5.69,14.54,5.37,14.53,0V45.85a3.6,3.6,0,0,0-2.11-3,11.35,11.35,0,0,0-10.28,0c-1.63.94-2.29,2.21-2.07,3.44A2.36,2.36,0,0,1,29.94,45.89Z"/><path class="cls-43" d="M32.08,42.89c-2.84,1.64-2.86,4.31,0,6a11.29,11.29,0,0,0,10.28,0c2.84-1.64,2.86-4.31,0-6A11.35,11.35,0,0,0,32.08,42.89Z"/><path class="cls-43" d="M32.08,42.89c-2.84,1.64-2.86,4.31,0,6a11.29,11.29,0,0,0,10.28,0c2.84-1.64,2.86-4.31,0-6A11.35,11.35,0,0,0,32.08,42.89Z"/><polygon class="cls-44" points="44.6 29.66 54.23 7.94 44.6 8.82 15.68 25.52 15.68 46.36 44.6 29.66"/><polygon class="cls-44" points="54.23 33.73 54.23 7.94 18.45 28.61 18.45 54.4 54.23 33.73"/><polygon class="cls-42" points="18.45 54.4 15.68 46.36 15.68 25.52 18.45 28.61 18.45 54.4"/><polygon class="cls-43" points="56.45 33.94 58.68 5.89 56.45 4.6 15.73 28.11 15.73 57.45 17.97 58.74 56.45 33.94"/><polygon class="cls-44" points="58.68 35.23 58.68 5.89 17.97 29.4 17.97 58.74 58.68 35.23"/><g class="cls-45"><polygon class="cls-46" points="18.37 64.62 18.37 29.19 57.46 6.63 57.46 42.05 18.37 64.62"/><g class="cls-47"><polygon class="cls-22" points="31.09 57.28 17.36 57.28 17.36 28.88 29.61 21.81 58.58 21.81 58.58 41.4 31.09 57.28"/><polygon class="cls-48" points="33.09 56.12 17.36 56.12 17.36 28.88 31.61 20.65 58.58 20.65 58.58 41.4 33.09 56.12"/><polygon class="cls-49" points="35.03 55 17.36 55 17.36 28.88 33.55 19.53 58.58 19.53 58.58 41.4 35.03 55"/><polygon class="cls-50" points="58.58 31 29.68 31 29.68 21.77 58.58 5.08 58.58 31"/><polygon class="cls-22" points="58.58 31 29.68 31 29.7 24.08 58.58 24.08 58.58 31"/><g class="cls-2"><polygon class="cls-49" points="45.92 23.92 58.58 23.97 58.58 26.32 58.18 26.78 43.49 26.72 45.92 23.92"/><polygon class="cls-50" points="55.76 29.58 41.07 29.52 41.07 31.26 55.77 31.32 55.76 29.58"/><polygon class="cls-49" points="58.18 26.78 43.49 26.72 41.07 29.52 55.76 29.58 58.18 26.78"/><polygon class="cls-50" points="53.34 34.11 38.65 34.06 38.65 35.8 53.34 35.85 53.34 34.11"/><polygon class="cls-49" points="55.77 31.32 41.07 31.26 38.65 34.06 53.34 34.11 55.77 31.32"/><polygon class="cls-50" points="50.92 38.65 36.23 38.6 36.23 40.34 50.92 40.39 50.92 38.65"/><polygon class="cls-49" points="53.34 35.85 38.65 35.8 36.23 38.6 50.92 38.65 53.34 35.85"/><polygon class="cls-49" points="50.92 40.39 36.23 40.34 33.81 43.14 48.5 43.19 50.92 40.39"/><polygon class="cls-51" points="50.92 40.39 50.92 38.65 53.34 35.85 53.34 34.11 55.77 31.32 55.76 29.58 58.18 26.78 58.58 26.32 58.58 33.3 58.2 33.73 55.78 36.53 53.35 39.33 50.93 42.13 48.51 44.93 48.5 43.19 50.92 40.39"/><polygon class="cls-50" points="48.5 43.19 33.81 43.14 33.81 44.88 48.51 44.93 48.5 43.19"/></g><path class="cls-52" d="M45.9,24.69a.38.38,0,0,0,.17-.28v-6c0-.1-.08-.13-.17-.08a.37.37,0,0,0-.18.28v6C45.72,24.71,45.8,24.74,45.9,24.69Z"/><path class="cls-52" d="M41.68,29.5a.35.35,0,0,0,.18-.27v-6c0-.09-.08-.13-.18-.07a.37.37,0,0,0-.17.27v6C41.51,29.52,41.59,29.56,41.68,29.5Z"/><path class="cls-52" d="M39.26,34.07a.34.34,0,0,0,.18-.27v-6c0-.1-.08-.13-.18-.08a.38.38,0,0,0-.17.28v6C39.09,34.1,39.17,34.13,39.26,34.07Z"/><path class="cls-52" d="M36.84,38.58A.37.37,0,0,0,37,38.3v-6c0-.1-.08-.13-.18-.07a.35.35,0,0,0-.17.27v6C36.67,38.6,36.75,38.63,36.84,38.58Z"/><path class="cls-52" d="M43.79,27.11a.37.37,0,0,0,.17-.27v-6c0-.09-.08-.12-.17-.07a.36.36,0,0,0-.17.28v6C43.62,27.14,43.69,27.17,43.79,27.11Z"/><path class="cls-53" d="M33.77,37.35l7.74-14,4.94-5.7c0-.06.09-.09.13-.09h.36s.06,0,.06.09a.75.75,0,0,1-.19.42L42,23.66,34.33,37.48a.56.56,0,0,1-.1.15c-.06.07-.12.11-.15.08s-.35,0-.35,0S33.68,37.52,33.77,37.35Z"/><path class="cls-52" d="M41.87,23.36l-7.74,14c-.08.16-.11.32-.05.35s.09,0,.15-.08a.56.56,0,0,0,.1-.15L42,23.66l4.83-5.58a.75.75,0,0,0,.19-.42c0-.12-.09-.12-.19,0Z"/><rect class="cls-53" x="39.51" y="20.94" width="2.91" height="1.07"/><rect class="cls-53" x="36.42" y="20.94" width="2.91" height="1.07"/><rect class="cls-53" x="37.96" y="19.69" width="2.91" height="1.07"/><rect class="cls-53" x="37.96" y="22.18" width="2.91" height="1.07"/><polygon class="cls-53" points="43.94 13.54 46.13 13.54 46.13 14.6 43.22 14.6 43.22 13.95 43.94 13.54"/><polygon class="cls-53" points="41.78 14.78 44.59 14.78 44.59 15.85 41.67 15.85 41.67 14.84 41.78 14.78"/><polygon class="cls-53" points="33.89 19.34 34.73 19.34 34.73 20.41 32.04 20.41 33.89 19.34"/><polygon class="cls-53" points="31.73 20.59 33.18 20.59 33.18 21.66 30.27 21.66 30.27 21.43 31.73 20.59"/><polygon class="cls-54" points="57.9 5.47 57.9 23.98 49.02 23.98 49.02 10.6 57.9 5.47"/><polygon class="cls-55" points="58.53 5.11 58.53 23.98 58.08 24.51 57.9 23.98 57.9 5.47 58.53 5.11"/><polygon class="cls-55" points="49.02 10.6 49.02 23.98 48.57 24.51 48.4 23.98 48.14 11.11 49.02 10.6"/><polygon class="cls-56" points="48.57 10.86 48.57 24.51 47.94 24.51 47.94 11.22 48.57 10.86"/><polygon class="cls-56" points="58.08 5.37 58.08 24.51 57.45 24.51 57.45 5.74 58.08 5.37"/><g class="cls-2"><path class="cls-56" d="M49.21,14.83h.11a.46.46,0,0,0,.28-.17h-.11A.48.48,0,0,1,49.21,14.83Z"/><path class="cls-56" d="M49.21,14.83h.11a.46.46,0,0,0,.28-.17h-.11A.48.48,0,0,1,49.21,14.83Z"/><path class="cls-54" d="M49.6,12.41h-.12s.11,0,.11,0Z"/><path class="cls-56" d="M49.47,12.42h.12A2.47,2.47,0,0,0,49,13.77v1.1c0,.18.06.27.17.27h-.12c-.1,0-.17-.09-.17-.27v-1.1A2.52,2.52,0,0,1,49.47,12.42Z"/><path class="cls-48" d="M49.59,12.42A2.47,2.47,0,0,0,49,13.77v1.1c0,.37.26.37.59,0v-.2c-.22.24-.4.23-.4,0V13.57a1.81,1.81,0,0,1,.41-1v-.2Z"/></g><path class="cls-57" d="M23.06,48.33c.73,0,.73.68,0,1.52a4.33,4.33,0,0,1-2.62,1.51c-.73,0-.73-.68,0-1.51A4.3,4.3,0,0,1,23.06,48.33Z"/><path class="cls-52" d="M48.51,42.91a.35.35,0,0,0,.17-.27v-6c0-.1-.08-.13-.17-.08a.37.37,0,0,0-.18.28v6C48.33,42.94,48.41,43,48.51,42.91Z"/><path class="cls-52" d="M55.76,29.33a.35.35,0,0,0,.18-.27v-6c0-.09-.08-.13-.18-.07a.37.37,0,0,0-.17.27v6C55.59,29.35,55.67,29.39,55.76,29.33Z"/><path class="cls-52" d="M53.35,33.9a.35.35,0,0,0,.17-.27v-6c0-.1-.08-.13-.17-.08a.37.37,0,0,0-.18.28v6C53.17,33.93,53.25,34,53.35,33.9Z"/><path class="cls-52" d="M50.93,38.41a.38.38,0,0,0,.17-.28v-6c0-.1-.08-.13-.17-.07a.34.34,0,0,0-.18.27v6C50.75,38.43,50.83,38.46,50.93,38.41Z"/><path class="cls-52" d="M57.87,26.94a.34.34,0,0,0,.17-.27v-6c0-.09-.07-.12-.17-.07a.38.38,0,0,0-.17.28v6C57.7,27,57.78,27,57.87,26.94Z"/><path class="cls-53" d="M47.85,37.18l7.74-14,3-3.46v.85l-2.51,2.91L48.42,37.31a1,1,0,0,1-.1.15c-.06.07-.12.11-.16.08s-.34,0-.34,0S47.76,37.35,47.85,37.18Z"/><path class="cls-52" d="M48.22,37.19l7.74-14,2.62-3v.42l-2.51,2.91L48.42,37.31a1,1,0,0,1-.1.15c-.06.07-.12.11-.16.08S48.13,37.35,48.22,37.19Z"/><path class="cls-58" d="M22.73,48.55c.55,0,.55.51,0,1.14a3.21,3.21,0,0,1-2,1.14c-.54,0-.54-.51,0-1.14A3.26,3.26,0,0,1,22.73,48.55Z"/><polygon class="cls-58" points="23.14 39.21 20.36 40.82 20.36 50.49 23.14 48.88 23.14 39.21"/><path class="cls-50" d="M22.73,38.88c.55,0,.55.51,0,1.13a3.21,3.21,0,0,1-2,1.14c-.54,0-.54-.51,0-1.14A3.29,3.29,0,0,1,22.73,38.88Z"/><path class="cls-58" d="M22.31,39.22c.31,0,.31.29,0,.65a1.86,1.86,0,0,1-1.12.64c-.31,0-.31-.29,0-.64A1.84,1.84,0,0,1,22.31,39.22Z"/><polygon class="cls-58" points="22.54 33.54 20.96 34.45 20.96 40.32 22.54 39.41 22.54 33.54"/><path class="cls-50" d="M22.31,33.35c.31,0,.31.29,0,.65a1.86,1.86,0,0,1-1.12.64c-.31,0-.31-.29,0-.64A1.84,1.84,0,0,1,22.31,33.35Z"/><path class="cls-59" d="M22.09,26.15v7.57a.7.7,0,0,1-.34.54c-.19.11-.34,0-.34-.15V26.54Z"/><path class="cls-59" d="M22.08,26.16v7.56a.7.7,0,0,1-.34.54c-.19.11-.34,0-.34-.15V26.55Z"/></g><path class="cls-60" d="M41,46.37,36.81,46a2.34,2.34,0,0,0-1.77,1l-.73.84A1.17,1.17,0,0,0,34,48.94c.19.31,0,.92-.46,1.32L31,52.6c-.95.92-1.29,2.29-.67,2.74s1.74.11,2.7-.84l3.13-3.14a2.88,2.88,0,0,1,1.54-.86l.46,0a3.69,3.69,0,0,0,2.25-1.52l.61-.8C41.6,47.33,41.58,46.43,41,46.37Z"/><path class="cls-61" d="M37.47,45.66a4.05,4.05,0,0,1,.13.88c0,.51-.62.78-.88.92-.78.4-1.51,1.43-2.27,1.69-.33.11-.37-.07-.28-.42.18-.67,1.15-1.11,1.64-1.6a3,3,0,0,0,.78-1.49s.67-.25.73-.24S37.43,45.53,37.47,45.66Z"/><path class="cls-62" d="M36.08,42.52a3.84,3.84,0,0,1,.22.72c0,.17.07.36.1.55a14.68,14.68,0,0,1,.11,2l1-.31s0-.13.19-1.34c0-.28.09-.63.16-1.06a1.49,1.49,0,0,0,0-.21,4.85,4.85,0,0,0-.34-2.13,1.57,1.57,0,0,1,0-.71c.13-.56.32-1.63.47-2.52s.24-1.47.24-1.47a1.67,1.67,0,0,0-2.29,1.3A8.63,8.63,0,0,0,36.08,42.52Z"/><path class="cls-62" d="M37.47,45.44a2.86,2.86,0,0,1,.13.74,1.16,1.16,0,0,1-.29.69,2.08,2.08,0,0,1-.59.37c-.78.4-1.51,1.42-2.27,1.69-.33.11-.33-.15-.2-.45.33-.69,1.07-1.08,1.56-1.58a2.93,2.93,0,0,0,.78-1.48s.67-.25.73-.24S37.43,45.31,37.47,45.44Z"/><path class="cls-63" d="M35.76,47.27c0-.06-.1-.12-.19-.11a.78.78,0,0,0-.34.19,1.87,1.87,0,0,0-.53.52.17.17,0,0,1,.18-.07.2.2,0,0,1,.1.12,2.87,2.87,0,0,1,.12.75c.15-.09.28-.31.43-.42s.43-.2.41-.4A1.24,1.24,0,0,0,35.76,47.27Z"/><path class="cls-64" d="M36.3,43.24c0,.17.07.36.1.55a2.48,2.48,0,0,0,.47,0,.92.92,0,0,1,.51.11c.07,0,.17.22.28.23,0-.28.09-.63.16-1.06a1.49,1.49,0,0,0,0-.21.57.57,0,0,0-.39,0A4.73,4.73,0,0,0,36.3,43.24Z"/><path d="M34.88,48.42a2.22,2.22,0,0,0-.11,1.17c.13.42.6.11,1-.06.77-.32,1.15,0,2.18-.56a2.17,2.17,0,0,0,1.14-1.17c0-.19-.08-.31-.3-.37,0,0-1.4.18-1.43.17a2.93,2.93,0,0,1-.68-.14l-.24-1-1.5.87Z"/><path class="cls-65" d="M33.51,41.23c0,.05.21.65.21.65L34.48,44a10.73,10.73,0,0,0,.19,4.49c0,.15.07.3.11.45s.18.17.38.06a7.2,7.2,0,0,0,1.65-1.53c-.26-1.18,0-3.65-.14-5.07L36,38.86l-.42-1.43C34,37.89,33.5,39.58,33.51,41.23Z"/><path class="cls-66" d="M33.51,41.23c0,.05.21.65.21.65L34.48,44a10.73,10.73,0,0,0,.19,4.49c0,.15.07.3.11.45s.18.17.38.06c0-1.82-.65-3.29-.13-5.3l-.61-2.58L35,39.22Z"/><path class="cls-62" d="M32,35.62a17.31,17.31,0,0,0,1.64-.95,8,8,0,0,0,1-1C35.82,32.47,36,31.71,37,31.34l.16,0c.26,0,.58,0,.58-.69,0-.88.05-1.05-.48-.85a2.9,2.9,0,0,0-1.75,1.53,15.36,15.36,0,0,1-3.69,3.88C31.83,35.32,31.9,35.47,32,35.62Z"/><path class="cls-64" d="M34.22,33.71c1.27-.92,1.74-2,2.73-2.37l.16,0c0-.11-.06-.2-.18-.2-.43,0-1.17.88-1.54,1.3Z"/><path class="cls-61" d="M38.46,32.76l-1.85-.92-1.43-1.75c-.66-.46-1.69.67-2.26,1.15l1.41,2.39.82.57a11.59,11.59,0,0,0,3.4.47c.2.13,1.14-1.25.78-1.48Z"/><path d="M30.31,53.39a1.91,1.91,0,0,0-.11,1,2.15,2.15,0,0,1,.21.38c.08.24.07.75.51.79a2.23,2.23,0,0,0,1.87-1.09,1.28,1.28,0,0,0-.41-.84l-.52-.67,0-.92-1.49.53Z"/><path class="cls-65" d="M30.17,53.46a.34.34,0,0,0,.24.2,2.13,2.13,0,0,0,1.6-.81,29.8,29.8,0,0,1,.64-5.43c.36-1.69.67-3.28.9-4.73a9.25,9.25,0,0,0,.15-1.12c.46-1,1.88-3,1.91-4.14l-.17-.68-.35.89-.72.51L31.7,40l-1.05.73v7.13a11.08,11.08,0,0,0-.45,3.46C30.18,52,30.18,52.74,30.17,53.46Z"/><path class="cls-66" d="M30.17,53.46a.34.34,0,0,0,.24.2,18.62,18.62,0,0,1,.69-6l.28-2.62.24-1v-.75l-.24-.73a3.19,3.19,0,0,1,.88-2.07l-1.61.62v6.69a11.08,11.08,0,0,0-.45,3.46C30.18,52,30.18,52.74,30.17,53.46Z"/><path class="cls-61" d="M30.24,41.45c0-.4.16-1.32.15-1.76l-.19-1.63-.53-2.32a17.42,17.42,0,0,1,2.65-4.19l2.1-1.21c.48.17.75.74.89,1.54,0,0,0,3.53.13,4.3a1.89,1.89,0,0,0,.05.23,1.07,1.07,0,0,1-.11.74A8.18,8.18,0,0,1,30.24,41.45Z"/><path class="cls-48" d="M32.53,31.2l-.85,1.17c-.42,1.54.64,1.46,1.33,1.78l.41-1.37,1-.38-.37-1.63Z"/><path class="cls-62" d="M33.72,32.35a1.27,1.27,0,0,1-.3.43c-.86.75-1.42.17-1.47-.46l-.09-1,2-.67s0,.15,0,.36A3.35,3.35,0,0,1,33.72,32.35Z"/><path class="cls-67" d="M34,32.19c-.65.53-1.15-.34-1.15-.34l1.31-1C34.44,31.56,34.29,32,34,32.19Z"/><path class="cls-62" d="M32.09,31.34a3.64,3.64,0,0,0,.81.53,1,1,0,0,0,.86-.11,1.33,1.33,0,0,0,.43-.4,3.53,3.53,0,0,0,.33-1.72,2.55,2.55,0,0,0-.1-.81c-.09-.38-.51-.95-1.77,0a2.4,2.4,0,0,0-1,1.58,2.49,2.49,0,0,0,.17,1Z"/><path d="M31.83,31.93c.33.36.91,0,1-.58,0-.11.31-.25.43-.35l-.09-.31c0-.26.15-.36.32-.5a2.68,2.68,0,0,0,1-1.3c.2-.9-.83-.88-1.6-.41a3.16,3.16,0,0,0-1.49,2.06A2.25,2.25,0,0,0,31.83,31.93Z"/><path class="cls-62" d="M32.74,30.92a.35.35,0,0,0-.25.19.25.25,0,0,0,0,.16.22.22,0,0,0,0,.12,1,1,0,0,0,.13.16.14.14,0,0,0,.16.05c.07,0,.16,0,.2-.11a.6.6,0,0,0,0-.32A.28.28,0,0,0,32.74,30.92Z"/><path class="cls-62" d="M34.73,30.16c0,.14-.23.3-.35.32s0,0-.05,0a1.36,1.36,0,0,1,0-.4c0-.06,0-.36.09-.4S34.74,30,34.73,30.16Z"/><path class="cls-61" d="M38.65,49.74a21.4,21.4,0,0,0,1.25-2.38l1.33-.77c.16.39-.12.72-.34,1.14-.45.84-.27,1.33-1.86,2.29-.11.07-.23.14-.31.11S38.61,49.86,38.65,49.74Z"/><path class="cls-62" d="M37.22,38.78a6.91,6.91,0,0,0,.28,1.92,8,8,0,0,0,.79,1.84,6.58,6.58,0,0,0,.48.73c.08.11.17.21.25.31a5.65,5.65,0,0,1,1,2.92L40.9,46a14.38,14.38,0,0,1,.13-2.4,5,5,0,0,0,0-.54c-.07-1.33-.93-1.33-1.14-1.88a.64.64,0,0,1,0-.32c0-1-.11-3.73-.11-3.73a3.58,3.58,0,0,0-1.75.33A1.45,1.45,0,0,0,37.22,38.78Z"/><path class="cls-62" d="M41,46c.54.56.17.93-.11,1.47-.45.84-.27,1.33-1.86,2.29-.11.07-.23.14-.31.11s-.09-.15-.06-.26c.13-.43,1.71-2.6,1.41-3.93a3.24,3.24,0,0,0,.43-.27c.18-.13.22-.21.23,0A.86.86,0,0,0,41,46Z"/><path class="cls-61" d="M39.7,48a1,1,0,0,0-.3.21,1,1,0,0,0-.12.19A3.77,3.77,0,0,0,39,49a1.17,1.17,0,0,1,.68-.21.67.67,0,0,1,.49.23,3.72,3.72,0,0,0,.36-.45c.08-.14.08-.3.15-.42.18-.29-.29-.31-.51-.32A1.18,1.18,0,0,0,39.7,48Z"/><path class="cls-64" d="M38.29,42.54a6.58,6.58,0,0,0,.48.73,3,3,0,0,0,.85-.26,1.63,1.63,0,0,1,1.19-.09.51.51,0,0,1,.23.15c-.07-1.33-.93-1.33-1.14-1.88a3.23,3.23,0,0,0-1.29.93A1.56,1.56,0,0,0,38.29,42.54Z"/><path class="cls-62" d="M41.33,27a1.79,1.79,0,0,0-.77,0c-.14.3-.26.6-.37.9a.29.29,0,0,0,0,.18s.08,0,.13,0a.56.56,0,0,1,.51.23l-.57.3a.28.28,0,0,0-.13.11c0,.07,0,.11.07.1l.16-.09c.25-.14.44,0,.67-.12s.24-.14.36-.2.24-.12.32-.07.07.08.13.05a.31.31,0,0,0,.14-.23,1.08,1.08,0,0,0-.18-.71A.86.86,0,0,0,41.33,27Z"/><path class="cls-62" d="M36.4,36.81a4.67,4.67,0,0,0,2.76-2c.26.53,1.32.77.61,3.27l-2.49,1s-1.41-.08-1.46-1.87c0-.19,0-.36,0-.54A1.14,1.14,0,0,0,36.4,36.81Z"/><path class="cls-48" d="M36,43.4c0,.31,1.35-.06,2.59-.79a4.29,4.29,0,0,0,2-2c-.4-.44-.23-.83-.27-1.58-.09-1.36.39-3.66-1.14-4.19-.39-.13-.26.15-.63.43a8.09,8.09,0,0,1-1.88,1.13c-.16.06-.73.17-.84.34a1.79,1.79,0,0,0-.11.51A11.39,11.39,0,0,0,36,43.4Z"/><path class="cls-48" d="M36.08,34a12.57,12.57,0,0,0-.27,2.59c.72.44,2.09-.31,2.94-1.28a3,3,0,0,0,.41-.55.62.62,0,0,1,0-.25,16.54,16.54,0,0,1,.76-2.6c.32-.92.62-1.72.62-1.72l.1-.63-1.71-.47-1.82.64s-.2.16-.33,1-.22.58-.92,2S36.08,34,36.08,34Z"/><path class="cls-62" d="M39.48,29.55a1.12,1.12,0,0,1-.35.63c-.55.62-1.06,1.45-1.59,1.44-.62-.18.55-2.31.69-2.82a10.69,10.69,0,0,1,1.53-1.17C39.93,27.69,39.54,29.33,39.48,29.55Z"/><path class="cls-64" d="M37.7,30.52a2.33,2.33,0,0,1,.4-1.23c.35-.45,1-.62,1.24-.46s0,.26-.12.47C38.78,30,37.74,31.16,37.7,30.52Z"/><path class="cls-62" d="M37.61,30.07a4.23,4.23,0,0,1,.52-2.53c.7-1.4,1.86-2.12,2.28-1.92s.31,2.56-.95,3.14a.6.6,0,0,0-.37.29C38.41,30,37.77,30.23,37.61,30.07Z"/><path d="M38.57,28a2.31,2.31,0,0,1-.11,2.27,5,5,0,0,0,2.08-2.12c.84-1.6.4-2.92-.41-2.77A2.54,2.54,0,0,0,38.57,28Z"/><path d="M38.9,26.8a2.29,2.29,0,0,0-.89,1,3.17,3.17,0,0,1,1.23-2c.6-.41.89.1.31.41a1.25,1.25,0,0,0-.38.25A2.24,2.24,0,0,1,38.9,26.8Z"/><path class="cls-68" d="M37.58,34.26c-.47.05-.74-.37-.61-.95a4,4,0,0,1-.91.75,6.44,6.44,0,0,0-.21,1.7c.16-1.12.56-1.46.77-1.43a.53.53,0,0,1,.28.18.81.81,0,0,0,1,.05,2.22,2.22,0,0,0,.66-.67,3,3,0,0,0,.34-.59c-.1,0-.2.2-.28.29a2.57,2.57,0,0,1-.33.33A1.47,1.47,0,0,1,37.58,34.26Z"/><path class="cls-62" d="M39.4,32.53c.1,0,.31-.24.4-.38,1-1.51,2-1.23,2.92-1.55a2,2,0,0,0,.54-.3,1.11,1.11,0,0,0,.33-.41c.44-.93-1-2-1.75-2.21a.55.55,0,0,0-.26.48.57.57,0,0,0,.18.33,2.58,2.58,0,0,1,.38.82s0,0,0,.05a6.92,6.92,0,0,0-1.32.17l-.41.09c-.51.1-.66.42-1,2C39.29,32.26,39.31,32.5,39.4,32.53Z"/><path class="cls-64" d="M40.84,29.53c.18,0,.51.12.61.12a2.39,2.39,0,0,0,.79,0,.43.43,0,0,0-.1-.29s0,0,0,.05A6.92,6.92,0,0,0,40.84,29.53Z"/><path class="cls-64" d="M39.4,32.53c.1,0,.31-.24.4-.38,1-1.51,2-1.23,2.92-1.55a2,2,0,0,0,.54-.3,1.11,1.11,0,0,0,.33-.41,2,2,0,0,1-.65.45,17.13,17.13,0,0,0-2.72.68A3.58,3.58,0,0,0,39.4,32.53Z"/><path class="cls-68" d="M39.84,39.57a4.55,4.55,0,0,0-.39-2.7,4,4,0,0,1-.61-1.27,4.08,4.08,0,0,1,.27-2.18,3.42,3.42,0,0,1,.33-1,1.7,1.7,0,0,1,.26-.34l.17-.17a16.54,16.54,0,0,0-.76,2.6.62.62,0,0,0,0,.25s0,0,0,.05l0,0c1.53.53,1,2.83,1.14,4.19,0,.75-.13,1.14.27,1.58a4.29,4.29,0,0,1-2,2A7.43,7.43,0,0,0,39.84,39.57Z"/><path class="cls-68" d="M36.5,42a6.82,6.82,0,0,1-.74-1.48c.13.56.25,1.13.38,1.7a1.61,1.61,0,0,0,.37.87c.13.12,1,.23.94-.27,0-.18-.34-.25-.45-.33A2.11,2.11,0,0,1,36.5,42Z"/><path class="cls-69" d="M32.26,40.54c-.14-1.36-.72-1.54-.87-4.42l-1.3,1.47V42Z"/><path class="cls-62" d="M29.88,43.69l-.09-.61.87-.7.17.71a.77.77,0,0,1,.62.38l.09.5c0,.14-.15.24-.24.12l-.09-.15-.09-.15-.21.26v.43l.37.05c.15,0,.09.17-.06.27l-.43.12-.22,0a.31.31,0,0,1-.34.09c-.11.13-.19.17-.26.12l-.08-.2c-.12.08-.2,0-.23-.1A3.21,3.21,0,0,1,29.88,43.69Z"/><path class="cls-70" d="M29.6,35.88a26.74,26.74,0,0,0-.53,4.66l.77,3.17c.19.27.7,0,1.06-.66l-.25-3.31.74-3.62C31.6,34.75,30.08,34.76,29.6,35.88Z"/><path class="cls-61" d="M29.6,35.88a26.74,26.74,0,0,0-.53,4.66l.77,3.17c.19.27.7,0,1.06-.66l-.25-3.31.74-3.62C31.6,34.75,30.08,34.76,29.6,35.88Z"/><path class="cls-71" d="M39.59,33.74a1.43,1.43,0,0,1-.07,1l-.56.9a3.15,3.15,0,0,1-.19.27c-.17.2-.2,0-.09-.17l.15-.26c-.12.15-.16,0-.06-.19l.13-.25c-.11.13-.15,0,0-.25l.21-.41.1-.43-.27.06c-.14,0-.08-.14.1-.28l.31-.26Z"/></g></g></g></g></svg>