<svg xmlns="http://www.w3.org/2000/svg" xmlns:xlink="http://www.w3.org/1999/xlink" viewBox="0 0 259.49 113.01"><defs><style>.cls-1{isolation:isolate;}.cls-2{fill:#d4d4d4;}.cls-3{fill:#e0e0e0;}.cls-4{fill:#e6e6e6;}.cls-5{fill:#ededed;}.cls-6{fill:#f4f4f4;}.cls-7{fill:#939598;opacity:0.5;}.cls-41,.cls-7{mix-blend-mode:multiply;}.cls-8{fill:none;stroke:#192027;stroke-linecap:round;stroke-miterlimit:10;}.cls-9{fill:#363636;}.cls-10{fill:#aeaeae;}.cls-11{fill:#171717;}.cls-12{fill:#017699;}.cls-13{fill:#0f9ec7;}.cls-14{fill:#edecf1;}.cls-15{fill:#caccd2;}.cls-16{fill:#a1a5b0;}.cls-17{fill:#41403f;}.cls-18{fill:#4b4541;}.cls-19{fill:#5c5753;}.cls-20{fill:url(#linear-gradient);}.cls-21{fill:#3c4156;}.cls-22{fill:#192027;}.cls-23{fill:#facfa6;}.cls-24{fill:#ae7851;}.cls-25{fill:#013554;}.cls-26{fill:#034a6f;}.cls-27{fill:#b3b3b3;}.cls-28{fill:#3ea08d;}.cls-29{fill:#55bfab;}.cls-30{fill:#f8d09c;}.cls-31{opacity:0.6;}.cls-32{fill:#f6c086;}.cls-33{fill:#513e40;}.cls-34{fill:#e6b580;}.cls-35{fill:#ac8a78;}.cls-36{fill:#2a1c1c;}.cls-37,.cls-42,.cls-43{fill:#fff;}.cls-38{fill:#784f39;}.cls-39{fill:#402b1e;}.cls-40,.cls-42,.cls-43{mix-blend-mode:overlay;}.cls-40,.cls-41{opacity:0.4;}.cls-42{opacity:0.3;}.cls-44{opacity:0.1;}.cls-45{fill:#3e4040;}.cls-46{fill:#e2551c;}.cls-47{fill:#ab4412;}</style><linearGradient id="linear-gradient" x1="4178.11" y1="61.01" x2="4183.05" y2="61.01" gradientTransform="matrix(-1, 0, 0, 1, 4214.78, 0)" gradientUnits="userSpaceOnUse"><stop offset="0" stop-color="#ccc"/><stop offset="0.38" stop-color="#d5d5d5"/><stop offset="0.98" stop-color="#ececec"/><stop offset="1" stop-color="#ededed"/></linearGradient></defs><g class="cls-1"><g id="Capa_2" data-name="Capa 2"><g id="Capa_1-2" data-name="Capa 1"><g class="cls-1"><polygon class="cls-2" points="250.95 9.72 250.68 9.87 259.08 14.72 258.64 14.16 250.95 9.72"/><polygon class="cls-3" points="250.94 0.9 250.68 0.23 250.68 9.87 250.95 9.72 250.94 0.9"/><polygon class="cls-4" points="250.94 0.9 250.95 9.72 258.64 14.16 258.63 5.34 250.94 0.9"/><polygon class="cls-5" points="258.63 5.34 259.08 5.08 250.68 0.23 250.94 0.9 258.63 5.34"/><polygon class="cls-2" points="259.08 14.72 259.49 14.48 259.49 4.85 259.08 5.08 259.08 14.72"/><polygon class="cls-6" points="259.08 5.08 259.49 4.85 251.09 0 250.68 0.23 259.08 5.08"/><polygon class="cls-3" points="258.64 14.16 259.08 14.72 259.08 5.08 258.63 5.34 258.64 14.16"/></g><path class="cls-3" d="M251.93,5.13c0-.84.59-1.17,1.31-.75l3.06,1.76a2.86,2.86,0,0,1,1.3,2.26v1.66c0,.83-.59,1.17-1.31.75L253.23,9a2.86,2.86,0,0,1-1.31-2.26Z"/><path class="cls-5" d="M251.93,5.13c0-.52.22-.84.56-.91a1,1,0,0,0-.23.71V6.59a2.86,2.86,0,0,0,1.3,2.26l3.06,1.77a1.11,1.11,0,0,0,.75.16.83.83,0,0,1-1.08,0L253.23,9a2.86,2.86,0,0,1-1.31-2.26Z"/><path class="cls-2" d="M252.4,8.22a2.75,2.75,0,0,1-.48-1.44V5.13c0-.52.22-.84.56-.91a1,1,0,0,0-.23.71V6.59A2.68,2.68,0,0,0,252.73,8Z"/><path class="cls-3" d="M254.79,3.86a.18.18,0,0,0-.29.17.64.64,0,0,0,.29.5c.16.09.29,0,.29-.16A.66.66,0,0,0,254.79,3.86Z"/><path class="cls-3" d="M254.79,10.62c-.16-.09-.29,0-.29.16a.66.66,0,0,0,.29.51.18.18,0,0,0,.29-.17A.64.64,0,0,0,254.79,10.62Z"/><ellipse class="cls-7" cx="29.82" cy="75.8" rx="27.18" ry="11.98"/><ellipse class="cls-7" cx="90.7" cy="102.9" rx="22.94" ry="10.11"/><path class="cls-8" d="M43.78,54.69,80.48,30.1a7.52,7.52,0,0,1,6.25-1h0A7.52,7.52,0,0,1,88.11,43C73.56,50.41,57,61.46,65.06,70.82c13.4,15.65-4.81,16.78,10.52,26.41,17.44,11,68-13.71,155.54-59.57C255.38,25,252.06,8.6,255.38,8.2"/><path class="cls-9" d="M23.42,47.74a5.17,5.17,0,0,1,4.63-.66c.18.08,1.82,1,1.82,1a18.69,18.69,0,0,1,.58,3.69,15.58,15.58,0,0,1-7,12.18,9.52,9.52,0,0,1-3.8,1.16s-1.33-.76-1.49-.88a5.17,5.17,0,0,1-1.74-4.34A15.55,15.55,0,0,1,23.42,47.74Z"/><path class="cls-10" d="M24.81,49.82a4.46,4.46,0,0,1,4-.56c.15.06,1.55.88,1.55.88a15.74,15.74,0,0,1,.5,3.15,13.32,13.32,0,0,1-6,10.42,8,8,0,0,1-3.24,1s-1.14-.65-1.28-.75a4.43,4.43,0,0,1-1.49-3.71A13.34,13.34,0,0,1,24.81,49.82Z"/><ellipse class="cls-11" cx="24.78" cy="56.65" rx="9.94" ry="5.74" transform="translate(-36.67 49.78) rotate(-60)"/><path class="cls-12" d="M12.09,69.47,13.43,71s-1.89,1.64-1.77,3.5c.07,1.09.84,2.13,2.31,3.1,5.77,4.1,10.24,1.15,11.51.42s1.95,1.36.34,2.23a10.67,10.67,0,0,1-5.64,1.63,12.32,12.32,0,0,1-7.37-2.58c-2-1.33-3.1-2.91-3.21-4.68C9.43,71.76,12,69.56,12.09,69.47Z"/><path class="cls-12" d="M29.73,49.57c6.21-3,14.71.84,17.51,4,1.76,2.08,1,7.07,1.11,10.12,0,2.34.11,4.54,0,5.72a1.43,1.43,0,0,1-.75,1.23c-3.31,2-15.86,10.1-19.92,10.65a16.61,16.61,0,0,1-7-1.34c-4.39-1.67-8.88-4.66-8.88-8.07V69.37S23.91,52.37,29.73,49.57Z"/><path class="cls-13" d="M29.73,47.05c6.21-3,14.5,3.08,17.3,6.25a3.87,3.87,0,0,1,.26,4.17A47.68,47.68,0,0,1,42,63C34.75,69.87,24.07,79,18.17,76.3c-3.41-1.73-6.3-4.2-6.3-6.93C11.87,56.85,23.52,50,29.73,47.05Z"/><path class="cls-9" d="M44.4,60.3A5.14,5.14,0,0,1,49,59.64c.18.08,1.82,1,1.82,1a18.55,18.55,0,0,1,.58,3.69,15.57,15.57,0,0,1-7,12.18,9.34,9.34,0,0,1-3.79,1.15s-1.34-.76-1.5-.88a5.14,5.14,0,0,1-1.74-4.33A15.55,15.55,0,0,1,44.4,60.3Z"/><path class="cls-10" d="M45.56,62.34a4.25,4.25,0,0,1,3.8-.54c.15.07,1.5.85,1.5.85a15.49,15.49,0,0,1,.47,3,12.78,12.78,0,0,1-5.77,10,7.72,7.72,0,0,1-3.12,1s-1.1-.63-1.23-.73a4.24,4.24,0,0,1-1.43-3.56A12.78,12.78,0,0,1,45.56,62.34Z"/><path class="cls-14" d="M38.86,73.19c0,4.4,3.09,6.19,6.9,4a15.3,15.3,0,0,0,6.91-12c0-4.4-3.1-6.19-6.91-4A15.27,15.27,0,0,0,38.86,73.19Zm1.63-.94a11.67,11.67,0,0,1,5.27-9.14c2.91-1.68,5.28-.31,5.28,3a11.66,11.66,0,0,1-5.28,9.13C42.85,77,40.49,75.61,40.49,72.25Z"/><ellipse class="cls-14" cx="45.76" cy="69.2" rx="1.78" ry="1.03" transform="translate(-37.05 74.23) rotate(-60)"/><path class="cls-14" d="M48.16,60.55a54.35,54.35,0,0,0-1.57,7.81l-.83-.2-.82,1.16a25.52,25.52,0,0,0-1.57-6c.84-.66,2.39-2,2.39-2S47.31,60.86,48.16,60.55Z"/><path class="cls-14" d="M51,61.29c.41.64,1.22,1.75,1.22,1.75s.15,1.74.26,2.66a41.46,41.46,0,0,0-6.17,4l.3-1.29-.81-.23A69.76,69.76,0,0,0,51,61.29Z"/><path class="cls-14" d="M46.61,68.44a14.56,14.56,0,0,0,4.79,1.77c-.59,1.06-1.64,3-1.64,3s-1.46,1.57-2.23,2.44a21.6,21.6,0,0,0-2.25-5.35l1-.6Z"/><path class="cls-14" d="M45.23,70.35l1-.57a60.87,60.87,0,0,0-2.24,8c-.78,0-2.24.13-2.24.13s-1-.77-1.64-1.14a70.93,70.93,0,0,0,4.79-7.29Z"/><path class="cls-14" d="M40.51,67.36a15.74,15.74,0,0,0,5.21.85l-.81,1.17.3.94A36.81,36.81,0,0,0,39,73.47c.12-1,.26-3,.26-3S40.1,68.47,40.51,67.36Z"/><path class="cls-11" d="M38.73,73.26c0,4.48,3.15,6.3,7,4.06a15.55,15.55,0,0,0,7-12.18c0-4.47-3.15-6.29-7-4.06A15.57,15.57,0,0,0,38.73,73.26ZM40,72.54a12.8,12.8,0,0,1,5.77-10c3.19-1.84,5.78-.34,5.78,3.34a12.77,12.77,0,0,1-5.78,10C42.58,77.71,40,76.22,40,72.54Z"/><path class="cls-15" d="M20.37,61.25a3.79,3.79,0,0,1,4.81,3.37A4.83,4.83,0,0,1,20,69.5a3.69,3.69,0,0,1-3.55-4.13A5,5,0,0,1,20.37,61.25Z"/><path class="cls-16" d="M20.32,62.37a2.55,2.55,0,0,1,3.15,2.4A3.35,3.35,0,0,1,20.09,68a2.5,2.5,0,0,1-2.55-2.76A3.42,3.42,0,0,1,20.32,62.37Z"/><path class="cls-12" d="M26.13,51.07l3.49-2a4.68,4.68,0,0,1,4.25,0,1.29,1.29,0,0,1,0,2.45l-3.49,2a4.74,4.74,0,0,1-4.25,0A1.3,1.3,0,0,1,26.13,51.07Z"/><path class="cls-12" d="M34.15,55.73l3.49-2a4.68,4.68,0,0,1,4.25,0,1.29,1.29,0,0,1,0,2.45l-3.49,2a4.74,4.74,0,0,1-4.25,0A1.3,1.3,0,0,1,34.15,55.73Z"/><polygon class="cls-17" points="43.66 82.51 29.9 90.45 29.9 89.27 43.66 81.33 43.66 82.51"/><path class="cls-18" d="M29.9,90.45a8.34,8.34,0,0,1-2.59-.92c-1.29-.73-1.46-1.41-1.46-1.41V86.93l4,2.34Z"/><path class="cls-19" d="M39.61,79a3.52,3.52,0,0,1,2.23.65,3.55,3.55,0,0,1,1.81,1.69L29.9,89.27a7,7,0,0,1-2.41-.77,4.06,4.06,0,0,1-1.64-1.57,42.08,42.08,0,0,1,7.2-5.06A37.33,37.33,0,0,1,39.61,79Z"/><path class="cls-20" d="M36.67,83.45a1,1,0,0,1-.56.83,3.11,3.11,0,0,1-2.83.09,1,1,0,0,1-.61-.8l-.94-46.06,3.93-.15Z"/><path class="cls-4" d="M32.23,36.63a3.12,3.12,0,0,1,2.82-.08c.8.42.82,1.15.05,1.63a3.11,3.11,0,0,1-2.82.08A.9.9,0,0,1,32.23,36.63Z"/><path class="cls-21" d="M21.8,64.53l-.06-.65A1.84,1.84,0,0,1,21.8,64.53Z"/><path class="cls-21" d="M6.79,54.2c3-.64,6.07,1,8.43,2.6a19.45,19.45,0,0,1,6.37,6.7,1.66,1.66,0,0,1,.15.38l.06.65c-.15,1.61-2.5,2.61-3.41.84A16,16,0,0,0,9.32,58c-3.19-.93-5.59,2-5.64,4.9-.06,3.27,1.89,6.49,4.11,8.75A8.89,8.89,0,0,0,17,74.11c4.37-1.21,5.13-5.34,4.82-9.58a1.84,1.84,0,0,0-.06-.65,71.38,71.38,0,0,0-1.26-7.16A101.23,101.23,0,0,1,18.58,37c0-5.82,1-22.44,11.09-18,6.06,2.69,6.26,12.64,5.83,18.25-.18,1.24-3.67,1.38-3.64-.16.33-4.3.2-9.61-2.18-13.35-1.14-1.79-3.61-2.3-4.94-.46-1.81,2.49-2.08,6.12-2.3,9.09a82.25,82.25,0,0,0,1,19.94c1.16,6.53,3.84,14.29.66,20.63-2.37,4.71-9,6.33-13.7,4.63C5.3,75.79,1.47,70.74.29,65.6-.86,60.61,1.48,55.34,6.79,54.2Z"/><polygon class="cls-22" points="58.52 16.03 69.24 8.87 58.92 16.59 58.52 16.03"/><polygon class="cls-22" points="56.52 19.28 67.23 12.12 56.92 19.85 56.52 19.28"/><polygon class="cls-22" points="95.72 63.48 106.44 56.31 96.12 64.04 95.72 63.48"/><polygon class="cls-22" points="117.04 78.66 127.76 71.5 117.44 79.23 117.04 78.66"/><polygon class="cls-22" points="91.87 67.91 102.59 60.75 92.27 68.48 91.87 67.91"/><path class="cls-23" d="M94.07,43.46a7.22,7.22,0,0,0,2.12,1.87,17,17,0,0,1,3.43-.12c.3.77-.87,1.07-1.48,1.07.42.55,1.57.86,2,1.36,1.46,1.49-.26,1.35-.37,1.49-.36.5-1.31,1.74-2,1.78s-.78-.19-1.27-.56a7.5,7.5,0,0,1-1.26-1.53A19,19,0,0,1,94.41,47c-.28-.34-1.82-1.32-1.79-1.8s.76-.69,1.14-1"/><path class="cls-24" d="M122.32,78a3.77,3.77,0,0,1,2,.27c1.8.76,1.92.6,1.59,1.67a21.85,21.85,0,0,1-2.8,5.29c-1.46,2.17-3.14,4.59-4.5,5.4-.46.28-.9-.06-1.28-.65s1.78-3,2.1-4.42c.17-.75.41-2.2.17-2.3l.14,0Z"/><path class="cls-24" d="M85.9,107c-.08-.74,3.25-2.15,4.2-3.34a14.69,14.69,0,0,0,1.64-3.38l5-2.56A6.12,6.12,0,0,1,98,98.88c1.31,1.58,1.45,1.47.64,2.36a24.55,24.55,0,0,1-5.13,3.81c-2.37,1.43-5.09,3-6.74,3.13C86.22,108.24,86,107.7,85.9,107Z"/><path class="cls-25" d="M91,100.67s-6.81-16.55-7.81-21.35c-.41-2-1.31-6-2.17-9.92l-1.2-5.52c3.83,2.14,7.81,2.3,10.09,5.26l6.86,29.32-.18.07-5.24,2Z"/><path class="cls-26" d="M83.72,66.32c-1-.51-1.79-.88-2.08-1-.58-.34-1.74-.67-2.28-1a30.7,30.7,0,0,0,9-11.33,10.83,10.83,0,0,1,2.29,4.15c.33,1.1,11.58,9.71,11.58,9.71l20.21,11-.08.18-2.56,5.31-.14,0a204.11,204.11,0,0,1-21.28-9.75c-.14-.07-.25-.22-.41-.29C94.76,71.63,87.43,68.11,83.72,66.32Z"/><path class="cls-27" d="M115.86,73.86c0,.11.11.22.17.34C116,74.08,115.91,74,115.86,73.86Z"/><path class="cls-23" d="M62.33,43.35a15.91,15.91,0,0,0-5.38,7c-2,4.77-3.9,8.41-5.19,13.37-.47,1.8-1.28,4.11-.87,4.6s2.16,1.08,2.27.29c.33-2.41,2.53-7.25,3.59-9.11,1.71-3.1,2.74-4.38,4.32-7.53.56-1.13,2.61-2.18,3.12-3.41.56-1.45.33-1.66-.52-3.09-.35-.72-.84-1.43-1.2-2.15"/><path class="cls-28" d="M62.47,43.33c.36.72.85,1.43,1.2,2.15.85,1.43,1.08,1.64.52,3.09-.51,1.23-1.88,2.18-2.44,3.3s-1.49,2.55-2.12,3.64l-4.5-1.08c.41-.91,1.42-3.11,1.82-4.07a15.91,15.91,0,0,1,5.38-7"/><path class="cls-29" d="M73.4,40.93c-1.6-1.58-2.62-5.19-5.37-4-1.34.56-3.55,2.87-4.65,4.2A10.66,10.66,0,0,0,61.23,45l0,.89A41.2,41.2,0,0,0,67.08,53c3.93,3.26,11,9.89,12.39,11.44,3.64-2.93,3.58-1.85,6-6,1.32-2.25,3.11-4.54,3.16-6.51C84.49,50.09,76.67,44.15,73.4,40.93Z"/><path class="cls-30" d="M58.91,39.7a12.07,12.07,0,0,1,3.74,3.64l.83-.26c1.62-.54,3.07-3.84,2.93-4.68,0-.18-1-.49-2.29-1.42C62.2,35.63,62,35.22,60.58,37c-.64.84-1.09,1.79-1.81,2.59"/><path class="cls-23" d="M41.07,31c3.12,5.48,9.79,12.9,12.25,12.62,7-.79,7.14-.21,9.35-4.57a26,26,0,0,0,2.18-5.73c.54-2.36.3-2.44-.58-4.17-.19-.36,3-3.31-.38-7-1.68-1.87-3.61-1-4.89.7-7.41-6-18-2.6-18.32,6.82"/><g class="cls-31"><path class="cls-32" d="M49.67,22c1.82-5.65,5.94-4.22,9.33.81,1.28-1.74,3.21-2.57,4.89-.7,3.35,3.72.19,6.67.38,7,.88,1.73,1.12,1.81.58,4.17a26,26,0,0,1-2.18,5.73s.7-10.19-7.2-15.1c0,0-3-2-4.82-1.63l-1-.31"/></g><path class="cls-33" d="M51.85,30.66c1-1.35,2-3.81,3.17-5,.67-.69-.23-.93-1-.32a11,11,0,0,0-3.28,4.33c-.4.88.52,1.81,1.1,1Z"/><path class="cls-33" d="M47.9,33.72c-1.09.73-3,1.43-4,2.32-.55.51-.71-.2-.21-.78a8.69,8.69,0,0,1,3.46-2.44c.7-.28,1.4.47.77.9Z"/><path class="cls-34" d="M63.89,25.21a11.09,11.09,0,0,0-1.07.62,5.15,5.15,0,0,1-1-2.47c-.18-.89-.54-.62-.41-.18a10.07,10.07,0,0,0,1.07,3.17.38.38,0,0,0,.58,0c.35-.29.67-.61,1.05-.87S64.28,25,63.89,25.21Z"/><path class="cls-35" d="M53.92,38.53c-.41-.45.27-1.93-.71-2.65-.52-.43-2.55-1.84-3.15-1.58,0,0,2.5,1.21,3,2.17.34.73-.11,2.11.47,2.63s2.07-.2,2.21-.84C55.79,38,54.44,38.83,53.92,38.53Z"/><path class="cls-23" d="M51,67.22A7.56,7.56,0,0,1,49.87,70a18.18,18.18,0,0,0-3.26,1.5c.09.86,1.33.59,1.89.31-.13.7-1.06,1.54-1.24,2.22-.66,2.07.87,1.13,1,1.21.58.29,2,1,2.7.71s.63-.54.92-1.12a7.43,7.43,0,0,0,.45-2,16.51,16.51,0,0,0-.07-2.12c.1-.44,1.07-2.09.82-2.52s-1-.28-1.54-.4"/><path class="cls-23" d="M66.57,39.12c.2,1.63,3.45.43,4.89.14l5.14-.21c2.2.27,5.3.41,7.36,1.21A95.89,95.89,0,0,1,95,46.63c1.62-1.26,1.17-1.28,1.14-1.47-.05-.43-8.05-7.51-11.31-8.72A18.46,18.46,0,0,0,81,35.2,21.28,21.28,0,0,0,69.51,36C68,36.52,66.31,37.26,66.57,39.12Z"/><path class="cls-28" d="M80.13,39.69c-1.27-.16-2.54-.26-3.61-.39l-5.14.21c-1.43.3-4.69,1.49-4.89-.14-.26-1.86,1.26-3.23,2.74-3.77A22.3,22.3,0,0,1,81,34.86Z"/><path class="cls-28" d="M64.47,41.76l2.35.41.08-4.64a5.82,5.82,0,0,0-1.35.23,6,6,0,0,0-.85.69Z"/><path class="cls-28" d="M63.57,42.74,63.93,45l-2.54-.71L61.57,43l.54-.58S63,43.06,63.57,42.74Z"/><path class="cls-36" d="M41.15,23.34c.76-1.61,4.59-6.8,6.19-7.93,1.08-.75,6.87-2.47,8.4-1l.49,1.1c1.91-.06,4.67,2,6.65,5.76-1.1-.46-3.24.15-3.18,1.16,0,.25.73,1.56,1.13,2.58.31.77-1.25.46-1.84-.23s-1.25-1.61-1.62-2.05c-.64-.75-2.52-2.7-4.12-2.83-2.67-.27-5.45,4.57-7.06,5.89-2,1.66-4.78,2-5.18,3.74A6.55,6.55,0,0,1,41.15,23.34Z"/><path class="cls-36" d="M44.11,19.85s-3.57,3.23-4.14,6a8.39,8.39,0,0,1-2.64,1.94s-1.14-.17.23.83l1.36,1A4.9,4.9,0,0,0,40.82,31s5.5-2.15,7-7.58Z"/><path class="cls-37" d="M53.75,32.85a2.52,2.52,0,0,0,.46.38c.2.1.33.14.37.24s0,.16.16.15.1-.09.2-.14a4.55,4.55,0,0,0,1.66-1.3A6.28,6.28,0,0,0,57.7,30a1.64,1.64,0,0,0,.09-.65c0-.28.09-.89-.09-1a3,3,0,0,0-1.82.32c-.56.34-3.1,2.42-2.94,2.94A3,3,0,0,0,53.75,32.85Z"/><path class="cls-38" d="M56.36,31.65a1.14,1.14,0,1,0-1.61.15A1.15,1.15,0,0,0,56.36,31.65Z"/><path class="cls-39" d="M54.93,30.47a.71.71,0,0,1,1-.1.71.71,0,1,1-1,.1m-.67-.55a1.58,1.58,0,1,0,2.22-.22,1.58,1.58,0,0,0-2.22.22Z"/><g class="cls-40"><path class="cls-37" d="M54.47,32.14a1.6,1.6,0,0,0,2.23-.22,1.57,1.57,0,0,0-.22-2.22,3.51,3.51,0,0,1-.38,1.73A3.54,3.54,0,0,1,54.47,32.14Z"/></g><g class="cls-40"><path class="cls-37" d="M54.73,32.11A1.42,1.42,0,0,0,56.5,30a3.34,3.34,0,0,1-.44,1.45A3.35,3.35,0,0,1,54.73,32.11Z"/></g><g class="cls-41"><path class="cls-38" d="M54.47,32.14c.68.55-.16-1.06.39-1.73s2.3-.15,1.62-.71a1.58,1.58,0,0,0-2,2.44Z"/></g><path d="M55,31.54a.8.8,0,1,0-.11-1.13A.81.81,0,0,0,55,31.54Z"/><path class="cls-37" d="M54.05,31.61a.6.6,0,0,0,.76-.92.59.59,0,0,0-.84.08A.58.58,0,0,0,54.05,31.61Z"/><path class="cls-37" d="M56,30.87c.06.21.36.3.68.21s.52-.32.47-.53-.36-.3-.68-.21S56,30.66,56,30.87Z"/><path class="cls-42" d="M55.9,31.08c.06.2.36.3.68.21s.53-.33.48-.53-.37-.3-.68-.22S55.85,30.87,55.9,31.08Z"/><path class="cls-43" d="M54.23,31.59a.6.6,0,1,0-.08-.84A.59.59,0,0,0,54.23,31.59Z"/><path class="cls-44" d="M57.7,30l-.4-1a3.23,3.23,0,0,0-1.2.21c-.28.21-2.38,2-2.43,2.53s-.16.8.08,1.13c0,0-.8-.63-.81-1.1s1.92-2.61,3-3.09,1.61-.42,1.74-.27A5.55,5.55,0,0,1,57.7,30Z"/><path class="cls-45" d="M52.66,32c.13.08.27,0,.39.11l0,0a2.4,2.4,0,0,0,.27.36l.22.21.08.06.1.06-.16-.16-.09-.1a1.39,1.39,0,0,1-.29-1.21,9.49,9.49,0,0,1,2-2.06l.54-.4.09-.07h0l0,0,.17-.07a2.24,2.24,0,0,1,.37-.1,7.17,7.17,0,0,1,.73-.14l.34,0h.08s0,0,0,0,0,.2,0,.3,0,.18,0,.27,0,.32,0,.45,0,.39,0,.39l0,.11a1.22,1.22,0,0,0,.07-.21,2.77,2.77,0,0,0,0-.29q0-.18.06-.45c0-.08,0-.18,0-.28s0-.2,0-.32,0-.06,0-.1v0a0,0,0,0,0,0,0v0l0,0,0,0h0l0,0h-.57a5.83,5.83,0,0,0-.79.12l-.41.13-.21.1a12,12,0,0,0-2.59,2.14C52.44,31.64,52.5,31.93,52.66,32Zm5-3.59h0Z"/><path class="cls-37" d="M50.57,35.83a2.09,2.09,0,0,1,.31.39c.08.17.11.28.19.31s.14,0,.12.14-.07.08-.12.16A3.68,3.68,0,0,1,50,38.19a5.43,5.43,0,0,1-1.82.87,1.35,1.35,0,0,1-.54.06c-.23,0-.74.06-.82-.1a2.44,2.44,0,0,1,.29-1.5c.3-.46,2.08-2.53,2.5-2.39A2.39,2.39,0,0,1,50.57,35.83Z"/><path class="cls-38" d="M49.52,38a1,1,0,1,1,.16-1.34A1,1,0,0,1,49.52,38Z"/><path class="cls-39" d="M48.57,36.77a.59.59,0,1,1-.1.82.59.59,0,0,1,.1-.82m-.44-.57a1.31,1.31,0,1,0,1.83.22,1.3,1.3,0,0,0-1.83-.22Z"/><g class="cls-40"><path class="cls-37" d="M50,36.42A1.31,1.31,0,1,1,47.9,38a3,3,0,0,0,1.45-.28A2.93,2.93,0,0,0,50,36.42Z"/></g><g class="cls-40"><path class="cls-37" d="M49.94,36.63a1.19,1.19,0,0,1-1.83,1.43,2.84,2.84,0,0,0,1.21-.33A2.86,2.86,0,0,0,49.94,36.63Z"/></g><g class="cls-41"><path class="cls-38" d="M50,36.42c.45.57-.87-.16-1.44.29s-.17,1.9-.62,1.33a1.32,1.32,0,0,1,.23-1.84A1.3,1.3,0,0,1,50,36.42Z"/></g><path d="M49.46,36.82a.67.67,0,1,1-1.05.82.66.66,0,0,1,.11-.93A.67.67,0,0,1,49.46,36.82Z"/><path class="cls-37" d="M49.53,36.06a.48.48,0,0,1-.08.69.5.5,0,0,1-.7-.08.5.5,0,0,1,.09-.7A.49.49,0,0,1,49.53,36.06Z"/><path class="cls-37" d="M48.88,37.67c.17,0,.25.3.17.56s-.28.44-.45.39-.24-.31-.17-.57S48.72,37.62,48.88,37.67Z"/><path class="cls-42" d="M49.06,37.59c.17,0,.24.3.16.56s-.28.44-.45.39-.24-.31-.16-.57S48.89,37.54,49.06,37.59Z"/><path class="cls-43" d="M49.52,36.2a.5.5,0,1,1-.7-.08A.51.51,0,0,1,49.52,36.2Z"/><path class="cls-44" d="M48.14,39.06l-.85-.35a2.6,2.6,0,0,1,.2-1c.18-.22,1.73-1.94,2.14-2s.67-.11.94.09c0,0-.5-.68-.9-.69a6.53,6.53,0,0,0-2.62,2.45c-.42.91-.38,1.34-.26,1.45A5.11,5.11,0,0,0,48.14,39.06Z"/><path class="cls-45" d="M48.76,35.31a9.94,9.94,0,0,0-1.82,2.11.7.7,0,0,0-.09.17c-.05.12-.08.23-.12.34a5.52,5.52,0,0,0-.11.65,1.63,1.63,0,0,0,0,.31V39a.08.08,0,0,0,0,0h0a0,0,0,0,0,0,0v0h0v0h.19a1.26,1.26,0,0,0,.27,0h.23l.38,0,.24,0a.59.59,0,0,0,.17,0h-.08l-.33,0-.38,0-.22,0a1,1,0,0,1-.24,0h0a.13.13,0,0,0,0-.06,1.41,1.41,0,0,1,0-.28c0-.2.08-.41.13-.61l.09-.31.06-.13,0,0v0h0l0-.07.35-.45a8.31,8.31,0,0,1,1.75-1.64,1.2,1.2,0,0,1,1,.27l.08.08.12.13,0-.08-.06-.08-.16-.17a3,3,0,0,0-.3-.25h0c-.06-.1,0-.23-.07-.33S49.59,34.72,48.76,35.31ZM46.82,39h0Z"/><path class="cls-46" d="M60.51,38.24c.22.63-1.11,1-2.28,1.95s-2,2-2.51,1.66-.58-2.53,1-3.7S60.34,37.64,60.51,38.24Z"/><path class="cls-47" d="M57.47,39.51a4.12,4.12,0,0,0-1.14,1.1c-.27.38-.39.84-.64,1.21l0,0c.54.37,1.29-.79,2.51-1.66.78-.62,1.63-1,2.05-1.38A5.39,5.39,0,0,0,57.47,39.51Z"/><path class="cls-37" d="M59.21,37.54a3.35,3.35,0,0,0-2.51.61,3.39,3.39,0,0,0-1.29,2.25Z"/><path class="cls-8" d="M89.29,97s-.44,1.77,7.46-.23"/><path class="cls-8" d="M88.28,94.89s-.44,1.77,7.46-.23"/><path class="cls-8" d="M87.49,92.77s-.48,1.78,8-.23"/><path class="cls-8" d="M86.7,90.65s-.49,1.78,8.28-.23"/></g></g></g></svg>