<svg xmlns="http://www.w3.org/2000/svg" xmlns:xlink="http://www.w3.org/1999/xlink" viewBox="0 0 381.08 513.6"><defs><style>.cls-1{isolation:isolate;}.cls-2{fill:#93d500;}.cls-3{fill:#fff;}.cls-4{fill:none;stroke:#93d500;stroke-linecap:round;stroke-miterlimit:10;stroke-width:2px;}.cls-5{fill:#e8801f;}.cls-6{fill:#3e3e3f;}.cls-7{fill:#f1f1f2;}.cls-8{fill:#f1c594;}.cls-9{fill:#757779;}.cls-10,.cls-19{fill:#727275;}.cls-10,.cls-19,.cls-36{mix-blend-mode:multiply;}.cls-10{opacity:0.21;}.cls-11{fill:#eea980;}.cls-12{fill:#782305;}.cls-13{fill:#691b00;}.cls-14{fill:#762204;}.cls-15{fill:#7a7c7f;}.cls-16{fill:#6d6e70;}.cls-17{fill:#20474e;}.cls-18{fill:#59595b;}.cls-19{opacity:0.41;}.cls-20{fill:#81290c;}.cls-21{fill:#949699;}.cls-22{fill:#e3e3e4;}.cls-23{fill:#e57b1f;}.cls-24{fill:gray;}.cls-25{fill:#5c80a3;}.cls-26{fill:#1d3548;}.cls-27{fill:#231f20;}.cls-28{fill:#f08b8c;}.cls-29{fill:#f2a1a5;}.cls-30{fill:#d6d6d6;}.cls-31{fill:url(#linear-gradient);}.cls-32{fill:url(#linear-gradient-2);}.cls-33{fill:url(#linear-gradient-3);}.cls-34{fill:#1b2727;}.cls-35{fill:#343f3f;}.cls-36{fill:#152121;opacity:0.52;}.cls-37{fill:url(#radial-gradient);}.cls-38{fill:#f6f4e1;}.cls-39{fill:url(#linear-gradient-4);}.cls-40{fill:#313f4d;}.cls-41{fill:#d16c58;}.cls-42{fill:#de775d;}.cls-43{fill:#ffa07a;}.cls-44{fill:#f28e66;}.cls-45{fill:#ff976e;}.cls-46{fill:#ffae78;}.cls-47{fill:#00877a;}</style><linearGradient id="linear-gradient" x1="-383.33" y1="319.02" x2="-393.6" y2="313.52" gradientTransform="matrix(-0.72, -0.7, -0.7, 0.72, 44.43, -166.43)" gradientUnits="userSpaceOnUse"><stop offset="0" stop-color="#3c4546"/><stop offset="1" stop-color="#142020"/></linearGradient><linearGradient id="linear-gradient-2" x1="-373.65" y1="321.2" x2="-388.8" y2="318.03" xlink:href="#linear-gradient"/><linearGradient id="linear-gradient-3" x1="-395.22" y1="325.05" x2="-373.46" y2="320.41" gradientTransform="matrix(-0.72, -0.7, -0.7, 0.72, 44.43, -166.43)" gradientUnits="userSpaceOnUse"><stop offset="0" stop-color="#0d1414"/><stop offset="0.15" stop-color="#3c4546"/><stop offset="0.39" stop-color="#0d1414"/><stop offset="0.74" stop-color="#3c4546"/><stop offset="1" stop-color="#0d140e"/></linearGradient><radialGradient id="radial-gradient" cx="-383.23" cy="319.05" r="10.45" gradientTransform="matrix(-0.72, -0.7, -0.44, 0.46, -36.38, -82.89)" gradientUnits="userSpaceOnUse"><stop offset="0" stop-color="#b6d76d"/><stop offset="1" stop-color="#54c050"/></radialGradient><linearGradient id="linear-gradient-4" x1="-390.24" y1="323.17" x2="-390.96" y2="323.59" xlink:href="#linear-gradient"/></defs><g class="cls-1"><g id="Capa_2" data-name="Capa 2"><g id="Capa_1-2" data-name="Capa 1"><path class="cls-2" d="M284,447.67a30.76,30.76,0,1,1,30.75-30.75A30.79,30.79,0,0,1,284,447.67Z"/><path class="cls-3" d="M284,387.66a29.26,29.26,0,1,1-29.26,29.25A29.26,29.26,0,0,1,284,387.66m0-3a32.26,32.26,0,1,0,32.25,32.25A32.29,32.29,0,0,0,284,384.66Z"/><line class="cls-4" x1="254.7" y1="416.91" x2="157.42" y2="416.91"/><path class="cls-3" d="M275.17,409.09A2.81,2.81,0,0,1,275,408a2.24,2.24,0,0,1,4.35-.69L284,419.77l4.65-12.48A2.24,2.24,0,0,1,293,408a2.81,2.81,0,0,1-.21,1.11l-6.57,16.71a2.29,2.29,0,0,1-4.44,0Z"/><path class="cls-2" d="M284,279.93a30.76,30.76,0,1,1,30.75-30.75A30.79,30.79,0,0,1,284,279.93Z"/><path class="cls-3" d="M284,219.92a29.26,29.26,0,1,1-29.26,29.26A29.26,29.26,0,0,1,284,219.92m0-3a32.26,32.26,0,1,0,32.25,32.26A32.29,32.29,0,0,0,284,216.92Z"/><line class="cls-4" x1="254.7" y1="249.18" x2="157.42" y2="249.18"/><path class="cls-3" d="M281.71,240.42a2.25,2.25,0,1,1,4.5,0v17a2.25,2.25,0,1,1-4.5,0Z"/><circle class="cls-2" cx="283.96" cy="134.51" r="30.76"/><path class="cls-3" d="M284,105.26a29.26,29.26,0,1,1-29.26,29.25A29.25,29.25,0,0,1,284,105.26m0-3a32.26,32.26,0,1,0,32.25,32.25A32.29,32.29,0,0,0,284,102.26Z"/><line class="cls-4" x1="254.7" y1="134.51" x2="211.36" y2="134.51"/><path class="cls-3" d="M285.62,123.24c2.19,0,6.45.72,6.45,3.36a1.9,1.9,0,0,1-1.86,2c-1.23,0-2.07-1.05-4.59-1.05-3.72,0-5.64,3.15-5.64,6.81s1.95,6.63,5.64,6.63c2.52,0,3.54-1.26,4.77-1.26a2.11,2.11,0,0,1,2,2c0,2.88-4.53,3.54-6.75,3.54-6.09,0-10.32-4.83-10.32-11S279.5,123.24,285.62,123.24Z"/><path class="cls-5" d="M110.38,377.72l.08,0-.07,0Z"/><path class="cls-6" d="M103.1,383.73c.28-1.34.75-2.84,2.3-3.09.8-.13,0-2.27.18-2.76s.39-.59.77-.4c.17.09,0,.33-.14.25-.49-.25-.3,1-.29,1.12,0,.36.06.72.1,1.08s.12.72-.18.86c-.57.27-1.07.27-1.55.75a4.33,4.33,0,0,0-.91,2.27C103.34,384,103.06,383.91,103.1,383.73Z"/><path class="cls-6" d="M100.91,388.76a3.3,3.3,0,0,1,.39-.26c.29-.18.23-.56.28-.84a2.07,2.07,0,0,1,.27-.63,2.21,2.21,0,0,0,.17-1.19.15.15,0,0,1,.29,0,2.18,2.18,0,0,1-.12,1.13,5.75,5.75,0,0,0-.33.77c-.09.25,0,.49-.11.74s-.62.47-.8.63a3.06,3.06,0,0,0-1,2c0,.18-.31.18-.29,0A3.53,3.53,0,0,1,100.91,388.76Z"/><path class="cls-6" d="M103.29,390a3.76,3.76,0,0,0,1.18-2.82,5.21,5.21,0,0,1,.72-2.5c.6-.94,1.47-1.59,1.85-2.68a5,5,0,0,1,.51-1.1c.37-.51,1.35-1.19.71-2-.13-.13.08-.34.2-.19.58.67.12,1.41-.39,2a7,7,0,0,0-.93,1.83,6.63,6.63,0,0,1-1,1.37,5.34,5.34,0,0,0-1.2,1.9,11.82,11.82,0,0,0-.25,1.8,3.64,3.64,0,0,1-1.27,2.61C103.28,390.31,103.14,390.06,103.29,390Z"/><path class="cls-6" d="M101.94,392.5c.36-.33.28-.91.72-1.19.15-.11.3.14.14.25a1.12,1.12,0,0,0-.34.61,1.42,1.42,0,0,1-.31.53C102,392.82,101.8,392.62,101.94,392.5Z"/><path class="cls-6" d="M105.46,389.31a14.31,14.31,0,0,1,1.73-2.38,7.68,7.68,0,0,0,.73-1.66c.2-.54,1-1.3.49-1.87-.12-.14.08-.35.2-.21a1,1,0,0,1,.19,1,3.23,3.23,0,0,1-.42.8,8.48,8.48,0,0,0-.52,1.29c-.47,1.24-1.63,2-2.15,3.22C105.64,389.63,105.39,389.48,105.46,389.31Z"/><path class="cls-6" d="M103.64,395a14.6,14.6,0,0,0,.36-1.72c0-.29,0-.73.22-1a.76.76,0,0,1,.28-.22c.18-.11.16-.48.2-.67s.14-.23.22-.32a1.68,1.68,0,0,0,.38-.86.15.15,0,0,1,.28.08c-.1.36,0,.59-.32.87s-.19.76-.45,1-.36.12-.48.54a6.51,6.51,0,0,0-.07.76c-.09.52-.22,1-.35,1.54A.14.14,0,0,1,103.64,395Z"/><path class="cls-6" d="M106.21,395.88a12.52,12.52,0,0,1,1-2,5.79,5.79,0,0,0,.44-1.25,5.28,5.28,0,0,1,.4-.87.15.15,0,0,1,.26.14c-.35.62-.43,1.34-.75,1.95a19.35,19.35,0,0,0-1.06,2.08C106.42,396.13,106.14,396.06,106.21,395.88Z"/><path class="cls-7" d="M87.84,390.72a28.26,28.26,0,0,0,6.8,4.41c2.57,1.3,5.18,2.5,7.83,3.62,1.32.56,2.65,1.1,4,1.61,1.17.46,2.78,1.41,4,1.49.64,0,.59-.15.93-.76l.8-1.45,1.59-2.91c1-1.84,2-3.69,3-5.53,1.1-2,2.1-4.11,3.11-6.18a102,102,0,0,1-11.59-4.18c-3.09-1.34-6.88-2.62-9.35-5a34.63,34.63,0,0,1-3-4q-1.75,2.44-3.41,4.95c-1.34,2-2.86,3.88-3.54,6.27s-.93,4.91-1.62,7.29Z"/><path class="cls-8" d="M101.58,377.72l.08,0,3.13,1.56c1.23.53,2.47,1,3.61,1.52l.62.26,0-.07a10.07,10.07,0,0,0,.71-2.11,6.37,6.37,0,0,1,1.33-2.33c.5-.54,1.08-1,1.59-1.51a7.35,7.35,0,0,0,1.38-2.07c.25-.57.84-1.29.69-1.93a1.26,1.26,0,0,0-1.1-.85,3.16,3.16,0,0,0-1.44.3,6.64,6.64,0,0,0-2.25,1.29,19,19,0,0,0-1.57,2c-1.21,1.5-2.73,1.69-4.42,2.39a8.69,8.69,0,0,0-1.85,1.1c-.18.14-.38.28-.55.43Z"/><path class="cls-3" d="M125.14,337a38.73,38.73,0,0,0,.46-8.55,2.3,2.3,0,0,0-.2-1.07,1.56,1.56,0,0,0-.93-.66c-1.73-.51-4,1.08-4.82,2.66a20,20,0,0,0-2.21,5.93c-.86,4.62-.8,9.36-1,14.06a40.72,40.72,0,0,1-5.9,19.91,33.26,33.26,0,0,1-2.2,3.05c-.37.46.2.9.49,1.28a8,8,0,0,0,3.31,2.86.37.37,0,0,0,.18,0,.4.4,0,0,0,.21-.12,7.5,7.5,0,0,0,1.47-2,21,21,0,0,1,1.09-1.83c.44-.7.79-1.45,1.25-2.13s.93-1.2,1.38-1.81a12.92,12.92,0,0,0,1.33-2.19,28.83,28.83,0,0,0,1.21-2.94,78.93,78.93,0,0,0,2.7-8.08,45.31,45.31,0,0,0,1.1-8.12c.12-1.78,0-3.56.18-5.33A44.56,44.56,0,0,1,125.14,337Z"/><path class="cls-9" d="M109,370.31a17.56,17.56,0,0,0,1.82,2.76c.06.07.12.16.22.16a.31.31,0,0,0,.2-.09c.27-.18.53-.37.78-.56.66-.5,1.3-1,1.91-1.6a8.57,8.57,0,0,0-1.56,2.8.9.9,0,0,0,0,.4.72.72,0,0,0,.34.39l1.11.8a36.08,36.08,0,0,0,4.78-6.69c1.28-2.52,1.72-5.35,2.68-8,.62-1.74,1.2-3.49,1.66-5.29a44.43,44.43,0,0,0,1.1-8.12c.12-1.78,0-3.56.18-5.33a47,47,0,0,1,.94-5,33,33,0,0,0,.48-7.17c0-.46,0-.92,0-1.38a2.3,2.3,0,0,0-.2-1.07,1.56,1.56,0,0,0-.93-.66c-1.73-.51-4,1.08-4.82,2.66a20,20,0,0,0-2.21,5.93c-.86,4.62-.8,9.36-1,14.06v.1A46.52,46.52,0,0,1,114.63,360a36.39,36.39,0,0,1-1.85,5,16.5,16.5,0,0,1-1.1,2.23A19.33,19.33,0,0,1,109,370.31Z"/><path class="cls-10" d="M112.39,373.78a.9.9,0,0,0,0,.4.72.72,0,0,0,.34.39l1.11.8a36.08,36.08,0,0,0,4.78-6.69c1.28-2.52,1.72-5.35,2.68-8,.62-1.74,1.2-3.49,1.66-5.29a44.43,44.43,0,0,0,1.1-8.12c.12-1.78,0-3.56.18-5.33a47,47,0,0,1,.94-5,33,33,0,0,0,.48-7.17,4.84,4.84,0,0,0-1.28-1.19c-1.61-1-4.14-.66-4.81,1.25-.91,2.62-1.08,5.43-1.73,8.1a40.28,40.28,0,0,0-1.13,10.32c.07,2.94.43,5.86.23,8.8a29.16,29.16,0,0,1-1.92,8.54c-.91,2.34-2.13,4.6-2.94,7,.66-.5,1.3-1,1.91-1.6A8.57,8.57,0,0,0,112.39,373.78Z"/><path class="cls-8" d="M97.62,336.38a1.13,1.13,0,0,0,.08.34,3.2,3.2,0,0,0,1.07,1.13c.31.26,1,.62,1,1.09a2.6,2.6,0,0,0-.86-.22.71.71,0,0,0-.71.45c-.15.44.29.84.68,1.09a21.35,21.35,0,0,0,4.48,2.48,7.92,7.92,0,0,0,.78.26c.58.16,1.18.26,1.74.47a8.82,8.82,0,0,1,2.75,2c.8.74,1.76,1.89,2.86,2.09a2.65,2.65,0,0,0,2.24-.52,1.67,1.67,0,0,0,.32-2.14,6.05,6.05,0,0,0-2.13-1.39,4.93,4.93,0,0,1-1.48-1.22,27.14,27.14,0,0,1-2.24-2.31,4.09,4.09,0,0,1-.73-1.46c-.18-.72-.12-1.48-.25-2.21a5.67,5.67,0,0,0-1.41-2.71c-.58-.69-1.65-1.24-2-2.06-.08-.21-.22-.48-.43-.41a.26.26,0,0,0-.17.18l0,.11a2.31,2.31,0,0,0,.28,1.76,6.74,6.74,0,0,1,.45.64.84.84,0,0,1,.06.74c-.38.76-2,0-2.34-.43s-.57-1-1.09-1.07h-.1a1.28,1.28,0,0,0-1.23.8,4.4,4.4,0,0,1-.85,1.31A1.84,1.84,0,0,0,97.62,336.38Z"/><path class="cls-11" d="M103.31,342.74a7.92,7.92,0,0,0,.78.26c.58.16,1.18.26,1.74.47a8.82,8.82,0,0,1,2.75,2c.8.74,1.76,1.89,2.86,2.09a2.65,2.65,0,0,0,2.24-.52,1.67,1.67,0,0,0,.32-2.14,6.05,6.05,0,0,0-2.13-1.39,4.93,4.93,0,0,1-1.48-1.22,27.14,27.14,0,0,1-2.24-2.31c-.53.74-.89,1.69-1.67,2.16a3.65,3.65,0,0,1-1.17.38,9.07,9.07,0,0,1-1.8.25Z"/><path class="cls-12" d="M120.15,329.41a10.53,10.53,0,0,0,.42,3.31c.13.47.28.93.42,1.4.07.22.15.43.22.65a.24.24,0,0,1,0,.08.47.47,0,0,1,0,.09.1.1,0,0,1,0,.07c.09.26.18.52.26.79h0c.13.42.25.83.36,1.25.06.21.11.42.17.64a6.79,6.79,0,0,1,.06,2c0,.26-.06.5-.09.75l-.21,1.2c0,.25-.08.5-.11.74s0,.23,0,.34a5.21,5.21,0,0,0,0,.8v.27a5.48,5.48,0,0,0,0,.57c0,.18,0,.37.08.55a4.7,4.7,0,0,0,.12.51,20.77,20.77,0,0,0,.8,2.54c.37,1,.75,2,1.18,3a22.77,22.77,0,0,0,4.37,6.86,5.93,5.93,0,0,0,.43.44c.44.42.93.83,1.36,1.27h0a5.08,5.08,0,0,1,1.32,2,3.13,3.13,0,0,1,.12.53,13.47,13.47,0,0,1,.09,2,12.69,12.69,0,0,0,2.86,7.44,13.8,13.8,0,0,0,1,1.13h0a13.24,13.24,0,0,0,2.34,1.8,12.44,12.44,0,0,0,2.7,1.23h0l.1,0,.13,0h0l.12,0a11.57,11.57,0,0,1,1.5.52,2.68,2.68,0,0,1,1.46,1.26,11.67,11.67,0,0,1,.41,2,3.48,3.48,0,0,0,2.53,2.32,5.59,5.59,0,0,0,.91.16h.6l.3,0,.12,0,.2,0A7.1,7.1,0,0,0,153,379s-.05,0-.1.05a1.94,1.94,0,0,1-.39.12l-.14,0a2.15,2.15,0,0,1-2.25-1.61,2.3,2.3,0,0,1,2.11-2.52c2.12-.14,2.1,1.83,3.21,2.83,1.89,1.68,6.37,1.22,8.42.08s4.13-4,3.65-6.39a2,2,0,0,0-.2-.61,1.69,1.69,0,0,0-1.63-.67,5,5,0,0,0-1.74.62.53.53,0,0,1,.56.24,1.23,1.23,0,0,1,.17.62,2.11,2.11,0,0,1-3.36,1.82c-1.89-1.24-1.18-3.93-.49-5.58a48.39,48.39,0,0,1,2.15-4.48,14.87,14.87,0,0,0,1.88-4.31,4.06,4.06,0,0,0-1.5-4.2,18.91,18.91,0,0,0-2-.88,4.74,4.74,0,0,1-2.53-3.76,5.83,5.83,0,0,1,1.5-4.32c.82-.95,1.91-1.66,2.67-2.66,1.67-2.18,1.43-5.25.49-7.81s-2.53-4.88-3.36-7.47a24.26,24.26,0,0,1-.9-7.92c0-3.29.29-6.58.6-9.86.28-2.79.22-5.4.31-8.16A67.28,67.28,0,0,0,158.73,284a22.59,22.59,0,0,0-1.49-4.52,14.28,14.28,0,0,0-1-1.8c-2.22-3.51-5.66-6.17-9-8.65l-1.48-1.15a22.71,22.71,0,0,0-2.91-1.12,2.52,2.52,0,0,0-1.08.32l-.12.07c-1,.57-1.82,1.42-2.91,1.94s-2,.84-2.91,1.41-1.56,1.22-2.35,1.82c-1.09.82-2.29,1.48-3.43,2.23a19.39,19.39,0,0,0-3,2.48c-.25.26-.48.52-.72.79a11.86,11.86,0,0,0-3.06,6.92v.13c-.2,4.15,2.23,8.05,2.54,12.19a34.26,34.26,0,0,1,0,5.27c-.05.68-.14,1.35-.25,2a9,9,0,0,1-.34,1.45c-.21.76-.44,1.52-.63,2.28,0,.15-.07.3-.11.46-.09.38-.19.77-.27,1.16,0,.14-.06.3-.1.45s-.07.43-.1.64a21.5,21.5,0,0,0-.34,4c0,.86.11,1.73.11,2.58,0,.3,0,.6,0,.89a11.2,11.2,0,0,1-.66,2.8c-.06.16-.12.33-.19.48s-.06.19-.1.28c-.13.28-.23.55-.35.82h0c-.36.8-.74,1.6-1.09,2.41v0l0,0a.85.85,0,0,1-.06.17c-.19.45-.36.9-.51,1.34A10,10,0,0,0,120.15,329.41Z"/><path class="cls-13" d="M121.26,333.6c0,.82,0,1.66,0,2.48.07,1.74.13,3.47.21,5.22a10.64,10.64,0,0,0,.12,1.12,18.94,18.94,0,0,1,.25,2,22.55,22.55,0,0,0,.8,2.62c1.38,3.83,3.07,7.71,6,10.56,1,1,2.26,1.95,2.69,3.33a9.44,9.44,0,0,1,.21,2.61,13.24,13.24,0,0,0,9,11.95c1.28.39,2.78.73,3.34,1.94a11.3,11.3,0,0,1,.41,2,3.89,3.89,0,0,0,4.34,2.53,7,7,0,0,0,4.4-3.05,1.45,1.45,0,0,1-.49.18c-.23.16-.47.34-.73.49a4,4,0,0,1-5.64-2.17c-.45-1.54.1-3.17.07-4.79,0-1.45-.52-2.87-.39-4.31.2-2.14,1.67-3.55,3-5a7.09,7.09,0,0,0,1.49-4.88,37.24,37.24,0,0,0-.68-5.45,39.09,39.09,0,0,1,1.66-18.31,24.16,24.16,0,0,0,1.27-4.34,23.36,23.36,0,0,0-.46-6.44A45.41,45.41,0,0,1,153.53,306c1.3-5.06-2.71-8.26-7.66-7.28-1.68.34-3.32.92-5,1.2-3.73.62-7.75-.26-11.27,1.15A9.27,9.27,0,0,0,125.7,304a10.6,10.6,0,0,0-1.12,1.85,25.82,25.82,0,0,0-1.56,4.48,40.93,40.93,0,0,0-1.63,7.56c-.11,1.34-.09,2.68-.07,4,0,.47,0,.94,0,1.4C121.35,326.79,121.23,330.19,121.26,333.6Z"/><path class="cls-14" d="M141.27,327.28a6.56,6.56,0,0,1,.17,4c-.45,1.68-1.55,3.14-1.87,4.85a13.6,13.6,0,0,0,.49,4.89,7.35,7.35,0,0,1-.23,4.84c-.52,1-1.46,1.78-1.87,2.84-.88,2.23.84,4.69.62,7.09-.08.83-.4,1.63-.4,2.46a1.86,1.86,0,0,0,1.27,1.94,1.75,1.75,0,0,1-2-1.35,7.54,7.54,0,0,1,0-2.72,9.75,9.75,0,0,0-.17-2.7c-.11-.49-.24-1-.32-1.47a5.57,5.57,0,0,1,.44-3.14c.6-1.33,1.69-2.39,2.18-3.76,1.2-3.32-1.5-7.14-.22-10.42.38-1,1.08-1.79,1.39-2.78C141.18,330.37,140.73,328.72,141.27,327.28Z"/><path class="cls-8" d="M114,339.61a15.86,15.86,0,0,0,.72,3.9q1.4,4.94,3.19,9.74c.29.76.57,1.52.79,2.3a8.94,8.94,0,0,1,.1,3.95,10.21,10.21,0,0,1-.09,2.59c0,.1,0,.2,0,.29a1.46,1.46,0,0,0-.05.2c0,.2-.1.4-.16.6h19.39a10.67,10.67,0,0,1-2.2-5.87c0-.23,0-.46,0-.7a16.15,16.15,0,0,1,.66-3.42,48.43,48.43,0,0,1,2.07-6.45c.54-1.28,1.19-2.51,1.64-3.83a26.61,26.61,0,0,0,1-5.08c.36-2.8.62-6-1.25-8.09a8.09,8.09,0,0,0-2.94-1.93l-.23-.1c-.45-.19-.93-.39-1.42-.58L135,327l-1.15-.43,1.14-6c.15-.77.29-1.53.44-2.3l.06-.34c.26-1.38.52-2.75.74-4.15.11-.78.22-1.58.31-2.37a6.73,6.73,0,0,0-3.29,1.47c-1.86,1.27-3.68,2.64-5.49,4.08a38.56,38.56,0,0,1,.7,6.66c0,.31,0,.62,0,.94s0,.57,0,.85a8.73,8.73,0,0,0-1.54.1,5.94,5.94,0,0,0-.71.14l-.09,0-.65.22-.21.09a2.2,2.2,0,0,0-.31.15l-.19.09-.19.12a3,3,0,0,0-.43.29h0a6.77,6.77,0,0,0-.54.43c-.68.62-1.22,1.38-1.92,2a11.1,11.1,0,0,1-1.26.9,2.44,2.44,0,0,0-.31.22c-1.45,1.54-2.82,3.15-4.18,4.76A6.71,6.71,0,0,0,114,339.61Z"/><path class="cls-11" d="M130.05,321.55a4.41,4.41,0,0,0-.33,2.65,13.8,13.8,0,0,0,1.64,3.31c.55,1.1.77,2.56-.06,3.46-.6.65-1.91,1.08-1.82,2.16s1.43,1.8,2.26,1.93a5.37,5.37,0,0,0,3.85-1.38,10,10,0,0,0,3.77-5.08,12.3,12.3,0,0,0,0-5.5L139,323c-.61-.24-1.23-.47-1.87-.7.62-3.24,1.23-6.48,1.86-9.71.24-1.26.46-2.49.71-3.74,0-.18.07-.36.1-.55.42-2.24.85-4.47,1.2-6.73.18-1.28.36-2.56.49-3.84-1.84.07-3.61,1.21-5.32,2.38-3,2.06-6,4.27-8.91,6.62a62.07,62.07,0,0,1,1.14,10.79c.47-.14.94-.3,1.4-.47,1.79-.63,3.18-1.94,5.15-1.94.49.89-.41,1.88-1.22,2.49a14.44,14.44,0,0,0-3,2.79A6.08,6.08,0,0,0,130.05,321.55Z"/><path class="cls-8" d="M128.48,412.64a32.61,32.61,0,0,0,.57,4.44,15.67,15.67,0,0,0,7,10.61c4.52,3,9.65,4.8,14.58,7,3,1.33,6.19,2.2,9.19,3.55,2.73,1.22,5.72,2.66,6.64,5.65,0,.12.08.24.11.37a14,14,0,0,1,.29,3.6.68.68,0,0,0,.06.35.49.49,0,0,0,.25.22,1.11,1.11,0,0,0,.43.12,2.13,2.13,0,0,0,1.61-.75,4,4,0,0,0,1-1.83,5.79,5.79,0,0,0,.13-1.9c-.25-2.88-2-5-3.74-7.15a6.49,6.49,0,0,0-2-1.77,7.21,7.21,0,0,0-1.69-.53c-.64-.14-1.25-.23-1.84-.41a4.58,4.58,0,0,1-1.5-.67c-1.13-.77-2.3-1.48-3.41-2.27l-8.44-6-.76-.54c-2.6-1.83-5.23-4.16-6.4-7.21a16.85,16.85,0,0,1-.84-3.43,39.54,39.54,0,0,1-.49-6.7,40.47,40.47,0,0,1,1.27-9.67l.13-.46c.9-3.3,2.16-6.49,2.77-9.85l.06-.28a40.72,40.72,0,0,0,.48-6.62c0-.87,0-1.75,0-2.62a17.76,17.76,0,0,0-.44-4.38,6.54,6.54,0,0,0-.91-2,4.28,4.28,0,0,0-.45-.58,11.18,11.18,0,0,0-4.8-2.76,5.19,5.19,0,0,0-3.8-.26,4.33,4.33,0,0,0-1.54,1.32c-2.6,3.32-3.08,8.23-2.72,12.31s-.68,8.66-1,12.83A142.18,142.18,0,0,0,128.48,412.64Z"/><path class="cls-8" d="M115.84,411.72c.06.7.14,1.39.21,2.1a215.38,215.38,0,0,0,5.73,31.48c.94,3.59,1,4,2.1,7.45.16.54.31,1.08.46,1.62.86,3.18,2.2,6.2,3,9.38.78,2.95,1.56,6.25-.32,8.88l-.12.16a14.66,14.66,0,0,1-2.61,2.49.74.74,0,0,0-.24.26.61.61,0,0,0,0,.33,1.78,1.78,0,0,0,1.53,1.18l.25,0a3.28,3.28,0,0,0,.83,0,5.28,5.28,0,0,0,2.76-1.46c2.07-2,2.66-4.68,3.21-7.41a5.19,5.19,0,0,0-.53-4.29c-.21-.42-.43-.83-.63-1.24a5.46,5.46,0,0,1-.62-2c-.12-1.37-.29-2.71-.38-4.08q-.24-3.61-.49-7.24c-.6-5-.58-3.28-.95-8.33-.58-8-.92-16-1.09-24-.08-3.76-.12-7.53-.14-11.3,0-3.18,0-6.38,0-9.55s0-6.19.08-9.28c0-3.63,0-7.7-1.94-10.91-.91-1.51-1.66-2.33-3.41-2a7.11,7.11,0,0,0-4.59,2.91c-2.83,4.44-2.64,11.68-2.82,16.74A142,142,0,0,0,115.84,411.72Z"/><path class="cls-11" d="M128.48,412.64a32.61,32.61,0,0,0,.57,4.44l.67.1a11,11,0,0,0,3.79.12c1.34-.27,2.66-1.06,4-.79a28.73,28.73,0,0,1,1.8-17.58c-.87,2.1-.72,4.92-.84,7.14a46.57,46.57,0,0,0,.33,8.35,15.46,15.46,0,0,0,1.12,4.76,4.32,4.32,0,0,1,.55,3.6c-.09.46-.07,1.09.38,1.24a1,1,0,0,0,.65-.06,3.32,3.32,0,0,1,2.89.43c.93.47,2.58.36,3.34.89l-.76-.54c-2.6-1.83-5.23-4.16-6.4-7.21a16.85,16.85,0,0,1-.84-3.43,39.54,39.54,0,0,1-.49-6.7,40.47,40.47,0,0,1,1.27-9.67l.13-.46c.9-3.3,2.16-6.49,2.77-9.85l.06-.28a4,4,0,0,1,.05-.84,37.3,37.3,0,0,0,.43-5.78c0-.87,0-1.75,0-2.62a17.76,17.76,0,0,0-.44-4.38,18.88,18.88,0,0,0-1.36-2.55,11.18,11.18,0,0,0-4.8-2.76,5.19,5.19,0,0,0-3.8-.26,4.33,4.33,0,0,0-1.54,1.32c-2.6,3.32-3.08,8.23-2.72,12.31s-.68,8.66-1,12.83A142.18,142.18,0,0,0,128.48,412.64Z"/><path class="cls-11" d="M115.84,411.72c.06.7.14,1.39.21,2.1a20.68,20.68,0,0,0,2.65,1.07,57.49,57.49,0,0,0,9.26,2c-.08-3.76-.12-7.53-.14-11.3,0-3.18,0-6.38,0-9.55s0-6.19.08-9.28c0-3.63,0-7.7-1.94-10.91-.91-1.51-1.66-2.33-3.41-2a7.11,7.11,0,0,0-4.59,2.91c-2.83,4.44-2.64,11.68-2.82,16.74A142,142,0,0,0,115.84,411.72Z"/><path class="cls-15" d="M104.81,401.25c2.17,5.82,7.78,10.09,13.56,11.9a71.75,71.75,0,0,0,11.53,2.3,12,12,0,0,0,4,.12c1.4-.28,2.78-1.05,4.19-.79A27.65,27.65,0,0,1,140,397a14.78,14.78,0,0,0-.17,8.64,36.93,36.93,0,0,0,3.4,8.08c1.26-.69,2.53-1.37,3.8-2.05-3.17-1.35-4.85-5-5-8.43s.94-6.8,1.84-10.13l.12-.43a48.78,48.78,0,0,0,1.84-11.41c0-.59,0-1.18,0-1.77a20.56,20.56,0,0,0-.15-2.08.31.31,0,0,0,0-.1,24.42,24.42,0,0,0-.51-2.94c0-.15-.07-.29-.11-.43s-.07-.29-.11-.43a17.94,17.94,0,0,0-3-5.65,8.19,8.19,0,0,0-3.67-3,12.43,12.43,0,0,0-3.23-.16c-1.89-.14-3.78-.75-5.65-1a53.47,53.47,0,0,0-6.06-.53,5.45,5.45,0,0,0-1.89.17,4.67,4.67,0,0,0-1.57,1c-1.06,1-3.16,2.48-3.36,3.88q-.47,3.18-1,6.38c-.29,2-.59,4-1,6,0,.1,0,.2-.07.3a39.75,39.75,0,0,1-9.2,17.61,2.85,2.85,0,0,0-.66.95A2.6,2.6,0,0,0,104.81,401.25Z"/><path class="cls-16" d="M114.55,380.64a16.53,16.53,0,0,0,2.29.74,5.32,5.32,0,0,0,2.44.13c1.77-.43,2.8-2.22,3.61-3.85a18.51,18.51,0,0,0-.06,3.72,1.79,1.79,0,0,0,.24.86,1.59,1.59,0,0,0,.92.51,13.47,13.47,0,0,0,4,.24c2.37-.09,4.73-.22,7.1-.38,2.14-.14,4-.49,5.63,1.32a11.68,11.68,0,0,1,1.81,3.33,18.52,18.52,0,0,1,1.53,5.42,48.78,48.78,0,0,0,1.84-11.41c0-.59,0-1.18,0-1.77a14.35,14.35,0,0,1-.15-2.08.31.31,0,0,0,0-.1,19.44,19.44,0,0,0-.51-2.94c0-.15-.07-.29-.11-.43s-.07-.29-.11-.43a17.94,17.94,0,0,0-3-5.65,8.19,8.19,0,0,0-3.67-3,12.43,12.43,0,0,0-3.23-.16c-1.89-.14-3.78-.75-5.65-1a53.47,53.47,0,0,0-6.06-.53,5.45,5.45,0,0,0-1.89.17,4.67,4.67,0,0,0-1.57,1c-1.06,1-3.16,2.48-3.36,3.88q-.47,3.18-1,6.38C115.3,376.62,115,378.64,114.55,380.64Z"/><path class="cls-11" d="M124.07,475.87a1.78,1.78,0,0,0,1.53,1.18l.36,0,.72,0a5.28,5.28,0,0,0,2.76-1.46c2.07-2,2.66-4.68,3.21-7.41a5.19,5.19,0,0,0-.53-4.29c-.21-.42-.43-.83-.63-1.24-.51.89-.57,4.74-.61,5.29,0,.35-.06.71-.11,1.06a9.86,9.86,0,0,1-.61,2,4.12,4.12,0,0,1-1,1.6,1.58,1.58,0,0,1-1.76.28c-.11-.06-.22-.15-.34-.22l-.12.16a14.66,14.66,0,0,1-2.61,2.49.74.74,0,0,0-.24.26A.61.61,0,0,0,124.07,475.87Z"/><path class="cls-17" d="M126,477.65a2.78,2.78,0,0,1-1.85-.64,1.46,1.46,0,0,1-.3-1.82c.52-.76,1.66-.84,2.17-1.66.12-.18.19-.4.39-.49s.69.2,1,.39a1.6,1.6,0,0,0,1.76-.28,4.32,4.32,0,0,0,1-1.6,9.75,9.75,0,0,0,.61-2c0-.35.08-.7.11-1.06.05-.63.11-5.69.89-5.46a.67.67,0,0,1,.29.24,28.83,28.83,0,0,1,4.63,8,.65.65,0,0,1,0,.59.49.49,0,0,1-.14.11,1.36,1.36,0,0,1-.59.22.34.34,0,0,1-.22,0c-.25-.14-.47-.66-.62-.9a4.29,4.29,0,0,0-.76-1,.89.89,0,0,0-.56-.26.67.67,0,0,0-.54.39,1.92,1.92,0,0,0-.16.81,6.38,6.38,0,0,1-.35,1.15,14.18,14.18,0,0,1-1,2.13,6.28,6.28,0,0,1-.85,1.19A6,6,0,0,1,128.8,477,7.1,7.1,0,0,1,126,477.65Z"/><path class="cls-11" d="M161.09,434.17c.1.83,3.46,3.42,3.9,3.8.27.23.53.47.78.73a9.25,9.25,0,0,1,1.22,1.68,4,4,0,0,1,.68,1.76,1.61,1.61,0,0,1-.83,1.58,3.19,3.19,0,0,1-.37.13c0,.12.08.24.11.37a14,14,0,0,1,.29,3.6.68.68,0,0,0,.06.35.49.49,0,0,0,.25.22,1.11,1.11,0,0,0,.43.12l.12,0a2.79,2.79,0,0,0,1.63-1.1,5.86,5.86,0,0,0,.83-1.46,5.79,5.79,0,0,0,.13-1.9c-.25-2.88-2-5-3.74-7.15a6.49,6.49,0,0,0-2-1.77,7.21,7.21,0,0,0-1.69-.53C162.29,434.44,161.68,434.35,161.09,434.17Z"/><path class="cls-17" d="M169.65,447.39a2.79,2.79,0,0,1-1.63,1.1,1.46,1.46,0,0,1-1.63-.85c-.3-.87.33-1.83,0-2.74a1,1,0,0,1-.16-.6c.07-.37.57-.43.92-.58a1.58,1.58,0,0,0,.82-1.58,4.14,4.14,0,0,0-.66-1.76,9.8,9.8,0,0,0-1.23-1.68c-.25-.26-.52-.5-.79-.73-.46-.41-4.48-3.51-3.83-4a.74.74,0,0,1,.36-.09A28.89,28.89,0,0,1,171,435c.2.06.43.15.49.35a.91.91,0,0,1,0,.17,1.4,1.4,0,0,1-.18.6.31.31,0,0,1-.15.17,2.75,2.75,0,0,1-1.1-.05,4.5,4.5,0,0,0-1.27,0,.84.84,0,0,0-.54.3.69.69,0,0,0,0,.67c.13.28.35.4.56.61a6.91,6.91,0,0,1,.71,1,13.17,13.17,0,0,1,1.11,2.06,6.49,6.49,0,0,1,.44,1.4,5.93,5.93,0,0,1-.19,2.51A7.23,7.23,0,0,1,169.65,447.39Z"/><path class="cls-3" d="M114,375.42a2.07,2.07,0,0,0,.78.88l.45.33a24,24,0,0,0,3.19,1.91l.74.36a.51.51,0,0,0,.32.07.63.63,0,0,0,.24-.15l4-3.59q.32,2.1.63,4.23a1,1,0,0,0,.25.65,1,1,0,0,0,.55.2,24.76,24.76,0,0,0,4.94.31A25.21,25.21,0,0,0,138,379c1.22-.46,2.42-1,3.6-1.58l2.19-1,1-.46c.26-.12.54-.27.62-.54a1,1,0,0,0-.1-.66,42.59,42.59,0,0,0-6.51-11.06c-1.65-2-3-3.78-3.14-6.38,0-.23,0-.46,0-.7a16.15,16.15,0,0,1,.66-3.42,48.43,48.43,0,0,1,2.07-6.45c.54-1.28,1.19-2.51,1.64-3.83a26.61,26.61,0,0,0,1-5.08c.36-2.8.62-6-1.25-8.09a8.09,8.09,0,0,0-2.94-1.93l-.23-.1c-.43-.18-.88-.34-1.31-.53s-.75-.45-1.17-.61a.92.92,0,0,0-.32-.07,2.62,2.62,0,0,0-1.18.48L131,328a4.22,4.22,0,0,0-.62.42c-.24.21-.44.45-.68.66a6.49,6.49,0,0,1-.62.45c-.95.65-1.85,1.36-2.75,2.07a9.32,9.32,0,0,0-1.68,1.58,32.85,32.85,0,0,0,1.75-7.21,3,3,0,0,1,0-.31c-.25-.07-.73.18-1,.27l-.21.09a2.2,2.2,0,0,0-.31.15l-.19.09-.19.12a3.7,3.7,0,0,0-.44.29,6.77,6.77,0,0,0-.54.43c-.68.62-1.22,1.38-1.92,2a11.1,11.1,0,0,1-1.26.9,2.44,2.44,0,0,0-.31.22c-1.45,1.54-2.82,3.15-4.18,4.76a6.71,6.71,0,0,0-1.92,4.64,15.86,15.86,0,0,0,.72,3.9q1.4,4.94,3.19,9.74c.29.76.57,1.52.79,2.3a8.94,8.94,0,0,1,.1,3.95,10.21,10.21,0,0,1-.09,2.59c0,.1,0,.2,0,.29a1.46,1.46,0,0,0-.05.2,11.72,11.72,0,0,1-.65,2,30,30,0,0,1-1.35,2.8,55.83,55.83,0,0,0-2.46,6.58A2.17,2.17,0,0,0,114,375.42Z"/><path class="cls-15" d="M118.42,344.09c0,4,1.18,7.86,2.49,11.7a77.93,77.93,0,0,1,2.47,8c.23,1,.42,2.07.58,3.11.66,4.46.77,9,1.81,13.42.22.93,11.68.31,12.9.19a37.89,37.89,0,0,0,5.41-.88c.93-.23,1.83-.62,2.76-.84a4.52,4.52,0,0,0,1.06-.29c.1,0,1.08-.68,1.08-.69a4,4,0,0,1-1.36-1.64,5.18,5.18,0,0,1-.27-1.08,24.94,24.94,0,0,0-4.45-9.25,53.61,53.61,0,0,0-5.34-6.32,4.21,4.21,0,0,1-1.13-2.19,10.69,10.69,0,0,1,.7-5.19c.44-1.3,1-2.55,1.57-3.81a39.64,39.64,0,0,0,1.76-4.33,31.12,31.12,0,0,0,1-4.76,19.25,19.25,0,0,0,.26-5.56,7.79,7.79,0,0,0-2.42-4.9,3.83,3.83,0,0,0-1.94-1,5.73,5.73,0,0,0-3.32.9,96.24,96.24,0,0,0-9.53,5.29,14,14,0,0,0-5.11,5.08A11.36,11.36,0,0,0,118.42,344.09Z"/><path class="cls-15" d="M113,373.85a2.34,2.34,0,0,0,.19.83,10.83,10.83,0,0,0,1.37,2.82,2.61,2.61,0,0,0,.62.58c.41.29.88.48,1.34.75.24.14,1.2.85,1.44.42l3.79-6.67a33.61,33.61,0,0,0,1.72-3.32,32.07,32.07,0,0,0,1.81-7.83c.29-2,.84-4.24.49-6.24-.2-1.07-.16-2.21-.28-3.3s-.3-2.25-.48-3.37c-.58-3.56-1.3-7.1-1.53-10.71a25.52,25.52,0,0,1,0-3,19.1,19.1,0,0,1,1.49-6.41,12.8,12.8,0,0,0,1.27-2.67,4.84,4.84,0,0,1-.88.44l-1.2.54c-.29.13-.52.24-.6.29a15.59,15.59,0,0,0-2.59,2.35c-.29.29-.57.59-.84.89l0,0c-1.44,1.53-2.8,3.13-4.15,4.73a6.71,6.71,0,0,0-1.92,4.64,15.86,15.86,0,0,0,.72,3.9q1.4,4.94,3.19,9.74c.29.76.57,1.52.79,2.3a8.94,8.94,0,0,1,.1,3.95,27.53,27.53,0,0,1-2.45,6.63c-1,2.19-2,4.4-3.05,6.59A2.54,2.54,0,0,0,113,373.85Z"/><path class="cls-18" d="M120.53,340.92c-.63.95-.4,1.83-.5,2.93.23-2.47,1.83-4.55,2.81-6.76A21.35,21.35,0,0,0,123.9,334c.24-.92.45-1.86.67-2.79a30.4,30.4,0,0,1,.85-3.07c.27-.79.72-1.54.91-2.34a.24.24,0,0,0-.34-.28l-1.44.62a1.88,1.88,0,0,0-.85.58,1.76,1.76,0,0,0-.24.6A11.78,11.78,0,0,1,122,330.4a3.67,3.67,0,0,0,1.28.06,27.3,27.3,0,0,0-3.37,3.08c.1.65.71,1.08,1.1,1.61a3.4,3.4,0,0,1,.59,1.41,4.86,4.86,0,0,1,.05,1.08A7.18,7.18,0,0,1,120.53,340.92Z"/><path class="cls-19" d="M118.8,333.66a2,2,0,0,0,1.69.68c2.26-.09,2-3.42,3-4.82.32-.41.76-.72,1.06-1.15a6.22,6.22,0,0,0,.77-2.23l-1.2.54c-.29.13-.52.24-.6.29a15.59,15.59,0,0,0-2.59,2.35c-.29.29-.57.59-.84.89l0,0a4.15,4.15,0,0,0,.11.48,3.6,3.6,0,0,1,.14,1.26,1,1,0,0,1-.81.85c-.43,0-.81-.5-.56-.84A1.19,1.19,0,0,0,118.8,333.66Z"/><path class="cls-12" d="M125,316.2c.33-1.93-.64-3.87-.67-5.83,0-2.67,1.67-5.14,1.52-7.8a16.64,16.64,0,0,0-.53-2.71c-.73-3.26-.54-6.66-1.36-9.89s-3-6.47-6.36-6.9c-1.07,5.15-2.65,10.94-1.39,16.21a3,3,0,0,1,0,2.36,5.09,5.09,0,0,1-.58.65c-1,1.15-.32,2.9-1.1,4s-2.74-.12-1.82-.78a2.72,2.72,0,0,0-1.69,2.92,7.13,7.13,0,0,0,1.52,3.26,10.66,10.66,0,0,1,1.84,3.13c.49,1.69,0,3.59.83,5.16.3.6.77,1.1,1.09,1.69a1.84,1.84,0,0,1,0,1.92,4.77,4.77,0,0,1-.79.69c-1,.9-.79,2.43-.48,3.71a5.6,5.6,0,0,1,.23,2,1.6,1.6,0,0,1-1.32,1.39c-.69.05-1.31-.82-.9-1.37a1.94,1.94,0,0,0-.28,2.72,3.28,3.28,0,0,0,2.73,1.1c3.68-.15,3.17-5.55,4.93-7.82.51-.67,1.23-1.18,1.73-1.87.92-1.26,1-3,1.48-4.45A23.88,23.88,0,0,0,125,316.2Z"/><path class="cls-20" d="M117.55,317.72c.13,1.89.91,3.86.2,5.61-.2.51-.53,1-.74,1.46a4.11,4.11,0,0,0-.23,2.59,3.7,3.7,0,0,1,.18,1.39c-.11.46-.64.87-1,.63.27.45,1,.25,1.24-.21a3.74,3.74,0,0,0,.21-1.5c.08-1.87,1.42-3.45,1.86-5.27s0-3.56-.32-5.33-.33-3.74.74-5.18A7.84,7.84,0,0,0,117.55,317.72Z"/><path class="cls-19" d="M120,343.85c.22-2.47,1.82-4.53,2.8-6.74a20.19,20.19,0,0,0,1-3.13,13.67,13.67,0,0,0-2.29,2.55l0,0a5,5,0,0,1,.05,1.09,7.06,7.06,0,0,1-1.09,3.27C119.9,341.88,120.13,342.76,120,343.85Z"/><path class="cls-10" d="M121.31,365.61a2.5,2.5,0,0,0,.57.92,2.59,2.59,0,0,0,2.08.39l.41,0a15.1,15.1,0,0,1,3.74,0,17.68,17.68,0,0,0,3,.28,11.23,11.23,0,0,0,2.31-.44l4.56-1.2c.39-.1.85-.27.95-.67a1.2,1.2,0,0,0-.12-.67l-2.11-5.37a2.72,2.72,0,0,1-.25-1.46,10.69,10.69,0,0,1,.7-5.19c.44-1.3,1-2.55,1.57-3.81a8.35,8.35,0,0,0-3.43-4.63,8.18,8.18,0,0,0-5.29-.84,13,13,0,0,0-6.2,2.66,4.55,4.55,0,0,0-1.12,1.2,5.45,5.45,0,0,0-.52,1.69c-.46,2.44-.92,4.89-1.23,7.36-.15,1.28-.27,2.56-.33,3.85A14.5,14.5,0,0,0,121.31,365.61Z"/><path class="cls-10" d="M133.84,353.35a3.61,3.61,0,0,1-.28.68c-1.13,2.05-4.49,1.86-6.45,1.51a12.73,12.73,0,0,1-6.57-3.34,15.91,15.91,0,0,1-4.62-10.85,9.52,9.52,0,0,1,.08-1.85,6.55,6.55,0,0,1,1-2.52,2.22,2.22,0,0,1,.43-.53,2.13,2.13,0,0,1,.8-.39c1.39-.42,2.91-.16,4.32-.51.7-.17,1.35-.48,2-.68a11.22,11.22,0,0,1,2.38-.36c1.08-.1,2.16-.18,3.23-.33a10.38,10.38,0,0,1,3.41.36,2.9,2.9,0,0,1,.71.21,2.55,2.55,0,0,1,1.06,1.12,8,8,0,0,1,.56,5.09c-.29,1.71-.86,3.36-1.17,5.07-.16.91-.25,1.83-.34,2.75s-.18,2-.28,3A8.06,8.06,0,0,1,133.84,353.35Z"/><path class="cls-18" d="M119.62,347.76a20.92,20.92,0,0,0,.94,4l.21.69.36,1.23a6.25,6.25,0,0,1-.2-1.08,12.46,12.46,0,0,0-.21-1.27,14.69,14.69,0,0,1-.41-2.56,16,16,0,0,1,.5-5.34,7.43,7.43,0,0,1,2.69-4.31.18.18,0,0,1,.07-.05,12.1,12.1,0,0,1,2.19-1,32.31,32.31,0,0,0,5.12-2.58c-.08-.2-.15-.41-.21-.61s-.14-.43-.19-.64,0-.16-.07-.24a16.92,16.92,0,0,1-.42-2.43,7.62,7.62,0,0,0,3.22,1.76.35.35,0,0,0,.14,0h0a1.55,1.55,0,0,0,.48,0,1.73,1.73,0,0,0,.75-.38c.94-.69,1.83-1.44,2.79-2.1a8.83,8.83,0,0,1,1.1-.63c.59-.28,1.19-.5,1.84-.76s-.84-1.06-1.57-1.45l-.37-.2L136.5,327c-1.86-.82-3.38.08-5,1.12-.49.34-1,.69-1.45,1.06-.7.56-1.38,1.15-2.06,1.74a33.61,33.61,0,0,1-3.25,2.83,6.72,6.72,0,0,0-1.31,1.17l-.39.46c-.3.36-.58.74-.89,1.13a10.6,10.6,0,0,0-1.29,1.9,10.36,10.36,0,0,0-.72,2.25,22.73,22.73,0,0,0-.49,2.43,18.84,18.84,0,0,0-.14,2.37A19.72,19.72,0,0,0,119.62,347.76Z"/><path class="cls-10" d="M119.62,347.76a20.92,20.92,0,0,0,.94,4l.21.69.16.15a12.46,12.46,0,0,0-.21-1.27,14.69,14.69,0,0,1-.41-2.56,16,16,0,0,1,.5-5.34,7.43,7.43,0,0,1,2.69-4.31,10.85,10.85,0,0,1,2.26-1.06,32.31,32.31,0,0,0,5.12-2.58,11.34,11.34,0,0,1-.4-1.25l-.92.08-2.65.23a11.92,11.92,0,0,0-2.38.37c-.49.14-1,.34-1.46.51-.3.36-.58.74-.89,1.13a10.6,10.6,0,0,0-1.29,1.9,10.36,10.36,0,0,0-.72,2.25,22.73,22.73,0,0,0-.49,2.43,18.84,18.84,0,0,0-.14,2.37A19.72,19.72,0,0,0,119.62,347.76Z"/><path class="cls-21" d="M121.88,342.12v0a.86.86,0,0,1,.11-.45.85.85,0,0,1,.51-.4,1,1,0,0,1,.67.08.91.91,0,0,1,0,1.58.87.87,0,0,1-.67.08.83.83,0,0,1-.51-.39.9.9,0,0,1-.11-.46Z"/><path class="cls-21" d="M122.35,348.91a.87.87,0,0,1,0,1.73A.87.87,0,0,1,122.35,348.91Z"/><path class="cls-21" d="M123.63,356.09a.88.88,0,0,1,.86.87V357a.87.87,0,0,1-1.73,0V357A.88.88,0,0,1,123.63,356.09Z"/><path class="cls-21" d="M123.84,364.12a.88.88,0,0,1,.87.86v0a.87.87,0,1,1-1.73,0v0A.87.87,0,0,1,123.84,364.12Z"/><path class="cls-22" d="M118.74,357.09a38.79,38.79,0,0,0,1.4,6c.57,1.6.67,2.66,2.61,3a10.76,10.76,0,0,0,2.6,0l3.06-.21a21.8,21.8,0,0,0,2.9-.32c1.42-.28,2.78-.85,4.22-1.06a10.79,10.79,0,0,0,2-.29c.71-.23.68-.28.44-.92-.48-1.23-1.22-2.44-1.81-3.63s-1.08-2.17-1.52-3.3a21.57,21.57,0,0,1,2.22-19.65,15.9,15.9,0,0,0-6.47-1.78,33.33,33.33,0,0,0-7,.9L118.13,337c-1.93,5.18-1,10.93,0,16.37C118.31,354.62,118.53,355.85,118.74,357.09Z"/><path class="cls-7" d="M117.81,345.5a69.57,69.57,0,0,0,1,7.88c.2,1.24.41,2.47.63,3.71a37.55,37.55,0,0,0,1.35,6c.54,1.6.65,2.66,2.5,3a9.59,9.59,0,0,0,2.51,0l2.95-.2a20.34,20.34,0,0,0,2.8-.32c1.37-.28,2.68-.85,4.07-1.06a9.86,9.86,0,0,0,2-.29c.68-.23.66-.28.43-.92-.46-1.23-1.18-2.43-1.75-3.63s-1-2.17-1.46-3.3a22.05,22.05,0,0,1-1.29-9.59,22.5,22.5,0,0,1,1-4.82c.2-.63.42-1.23.66-1.83.08-.17.15-.34.22-.51.23-.5.95-1.39.88-1.9h-9.4a42.2,42.2,0,0,0-4.5.16,16.52,16.52,0,0,0-2.32.39,4.17,4.17,0,0,1-.69.08q-.48.19-1,.42h0l-.09.16a8.55,8.55,0,0,0-.4,2.51A26.45,26.45,0,0,0,117.81,345.5Z"/><path class="cls-3" d="M118.37,338.85h0c.43.4.86.8,1.3,1.19a1.78,1.78,0,0,0,.69.46,2.06,2.06,0,0,0,1.16-.19c2-.66,4.08-.37,6.13-.25,1,.05,1.94.07,2.9.09l4.46.07h.13a2.49,2.49,0,0,0,1.82-.51c-.06-.27-.11-.53-.17-.79l-.73-.31a1.13,1.13,0,0,1,.63,0,4.25,4.25,0,0,0,.05-.8,18.62,18.62,0,0,0-5.36-.7,20,20,0,0,0-2.68,0c-.54.06-1.08.16-1.63.2-.71.05-1.43,0-2.14,0a15,15,0,0,0-5.6,1.07q-.48.19-1,.42Z"/><path class="cls-5" d="M119.55,354.59c.2,1.11.39,2.21.6,3.32a33.32,33.32,0,0,0,1.3,5.39c.52,1.43.63,2.39,2.41,2.7a10.86,10.86,0,0,0,2.42,0l2.83-.19a20.25,20.25,0,0,0,2.7-.28c1.31-.26,2.58-.76,3.91-.95a11,11,0,0,0,1.9-.26c.65-.21.63-.24.4-.82-.44-1.11-1.13-2.18-1.68-3.25s-1-1.94-1.41-3a18.72,18.72,0,0,1,1.09-16c.3-.53.62-1,1-1.54a17.58,17.58,0,0,0-4.49-1.45,10.6,10.6,0,0,0-1.51-.13,31.18,31.18,0,0,0-6.51.81l-4.9.95C117.79,344.58,118.66,349.73,119.55,354.59Z"/><path class="cls-23" d="M130.39,358.26h0a5.3,5.3,0,0,1,1.68.3,6.87,6.87,0,0,0,1.69.7.44.44,0,0,0,.3-.05.5.5,0,0,0,.17-.31c.21-.88-.23-1.4-.51-2.16-.53-1.48-.58-3.12-1.2-4.56a6,6,0,0,1,.2-4.2,4.86,4.86,0,0,1-3.37.64c-2.05-.15-4.21-.5-5.78-1.83s-2.39-3.76-2.73-6a24.28,24.28,0,0,0-1.22,11.34c.22,1.57.58,3.12.94,4.66l.45,1.95a11.46,11.46,0,0,0,1.77,4.53c.19-2.21,2.54-4.48,4.64-5A9.46,9.46,0,0,1,130.39,358.26Z"/><path class="cls-23" d="M129.58,339.36l2.93,1.55a5.5,5.5,0,0,1,2.15,1.64c-.09-.13.85-.86,1.36-1.24.3-.53.62-1,1-1.54a17.58,17.58,0,0,0-4.49-1.45c-.66.19-1.33.4-1.95.61A3.26,3.26,0,0,0,129.58,339.36Z"/><path class="cls-3" d="M140.71,349.28c-.29,2.05-.64,4.25-2.07,5.75a7.92,7.92,0,0,1-2.95,1.77,18.44,18.44,0,0,1-4.81,1.14,21.36,21.36,0,0,1-10.62-1.81,29.16,29.16,0,0,1-8.85-6.23,32.62,32.62,0,0,0-2.46-2.39,10.93,10.93,0,0,0-3.15-1.79,32,32,0,0,1,3.34-5.93l6,4.18c2.87,2,5.79,4,9.13,5s7.21.91,10-1.15a24.87,24.87,0,0,0,2-1.73,26.71,26.71,0,0,1,4-3,1,1,0,0,1,.77-.19c.39.15.4.69.35,1.09C141.19,345.75,141,347.52,140.71,349.28Z"/><path class="cls-9" d="M107.28,346.42a.67.67,0,0,0,.26.34c2,1.8,4.08,3.46,6.08,5.19a26.5,26.5,0,0,0,6.63,4.18,21.32,21.32,0,0,0,10.62,1.81,18.53,18.53,0,0,0,4.81-1.14,7.79,7.79,0,0,0,2.95-1.77c1.43-1.5,1.78-3.7,2.06-5.75.25-1.76.49-3.53.73-5.29a1.1,1.1,0,0,0,0-.18q.51-3.58.76-7.19a12,12,0,0,0-.3-4.59,5.6,5.6,0,0,0-1.71-2.5c-.61.24-1.17.44-1.72.71a8.83,8.83,0,0,0-1.1.63c-1,.66-1.85,1.41-2.79,2.1a1.89,1.89,0,0,1-.7.37.35.35,0,0,0,0,.11c-.11.38-.2.77-.3,1.15s-.13.58-.2.86a21.46,21.46,0,0,1,3.54,1.35c-.2.29-.39.59-.57.89l.41.13a4.25,4.25,0,0,1,0,.8,1.13,1.13,0,0,0-.63,0l.72.31.18.79,0,0s.05,0,.07,0c-.35.5-.67,1-1,1.54a18.82,18.82,0,0,0-2.25,6.89,8.55,8.55,0,0,1-1.16.61,12.33,12.33,0,0,1-8.33.19,20.49,20.49,0,0,1-4-1.73l0,0-.67-.38c-1.52-.89-3-1.9-4.41-2.9s-2.9-2.17-4.31-3.36a.78.78,0,0,0-.53-.25c-.21,0-.37.23-.49.41s-.28.45-.41.69a.83.83,0,0,0-.17.44,1,1,0,0,0,.24.55,18.57,18.57,0,0,0,2,2.21l-2.33-1.2a.5.5,0,0,0-.31-.08.47.47,0,0,0-.24.22,11.23,11.23,0,0,0-1.2,2.37A.7.7,0,0,0,107.28,346.42Z"/><path class="cls-24" d="M113.34,351.18a26.39,26.39,0,0,0,6.63,4.18,21.12,21.12,0,0,0,10.62,1.81A18.52,18.52,0,0,0,135.4,356a8.05,8.05,0,0,0,2.95-1.77c1.44-1.5,1.78-3.7,2.07-5.75.24-1.77.49-3.53.72-5.29l0-.19q.5-3.59.75-7.19a12.44,12.44,0,0,0-.23-4.35,4.48,4.48,0,0,1,.21.53,12,12,0,0,1,.3,4.59q-.25,3.6-.76,7.19a1.1,1.1,0,0,1,0,.18c-.24,1.76-.48,3.53-.73,5.29-.28,2.05-.63,4.25-2.06,5.75a7.79,7.79,0,0,1-2.95,1.77,18.53,18.53,0,0,1-4.81,1.14,21.32,21.32,0,0,1-10.62-1.81,26.5,26.5,0,0,1-6.63-4.18c-2-1.73-4.11-3.39-6.08-5.19a.67.67,0,0,1-.26-.34.59.59,0,0,1,0-.37C109.26,347.82,111.37,349.47,113.34,351.18Z"/><path class="cls-19" d="M129.54,333.63a2,2,0,0,0,1.13,1.2,1.8,1.8,0,0,0,.89.15,2,2,0,0,0,1.79-1.65v0c.11-.73-.18-1.56.23-2.18a2.22,2.22,0,0,1,.94-.71,31.81,31.81,0,0,0,4.22-2.39l-.37-.2L136.5,327c-1.86-.82-3.38.08-5,1.12-.49.34-1,.69-1.45,1.06a5.09,5.09,0,0,0,.9,2.31,3.34,3.34,0,0,1,.5,1.1,1.38,1.38,0,0,1-.12,1.05.93.93,0,0,1-1,.31A2.75,2.75,0,0,1,129.54,333.63Z"/><path class="cls-10" d="M124.28,349a12.33,12.33,0,0,0,8.33-.19,7.89,7.89,0,0,0,1.15-.61,19,19,0,0,1,2.26-6.89c.3-.53.62-1,1-1.54,0,0-.05,0-.07,0l0,0c-.06-.27-.12-.53-.17-.79l-.73-.31a1.13,1.13,0,0,1,.63,0,4.25,4.25,0,0,0,.05-.8l-.41-.13c.17-.3.37-.6.57-.89a21.46,21.46,0,0,0-3.54-1.35c.07-.28.14-.57.2-.86a4.1,4.1,0,0,1,1.16,0,6.5,6.5,0,0,1,3.49,1.58,2.21,2.21,0,0,1-.71,1.09,2,2,0,0,0-.37.35c-.3.47.11,1.06.23,1.6a3.21,3.21,0,0,1-.57,2.21c-1,1.82-2.08,3.72-2.1,5.79,0,.11,0,.22,0,.33a3.41,3.41,0,0,1-.17,1.39,2.29,2.29,0,0,1-.14.27l0,.06-.18.22v0l-.23.2-.06.06-.19.14-.05,0h0l-.42.27-.37.21a5.59,5.59,0,0,1-.65.32,7,7,0,0,1-2.36.41,13.25,13.25,0,0,1-9.6-3.9A21.64,21.64,0,0,0,124.28,349Z"/><path class="cls-8" d="M118.9,314.72a7.53,7.53,0,0,0,2.08,1.9c2.07,1.13,4.87.69,7,.05.62-.18,1.22-.39,1.82-.6a50.61,50.61,0,0,0,7-3.22c2.18-1.2,4.31-2.5,6.42-3.8a25.31,25.31,0,0,0,3.71-2.58,18.84,18.84,0,0,0,2.3-2.58,31.45,31.45,0,0,0,4.07-7.24h0a28.61,28.61,0,0,0,2.09-12.49,26.27,26.27,0,0,0-.8-5.06v0a20.34,20.34,0,0,0-39.11,5c0,.63.07,1.25.15,1.88,0,.2.06.39.08.6.41,2.53,1.25,5,1.07,7.57,0,.08,0,.17,0,.24-.26,2.83-1.81,5.43-2.22,8.24C113.89,306.91,116.05,311.23,118.9,314.72Z"/><path class="cls-3" d="M136.82,292.51a7.21,7.21,0,0,1,1.41,1.85,1.08,1.08,0,0,1,.18.53,1,1,0,0,1-.24.59c-.81,1.1-1.86,1.26-3.07,1.62a9.69,9.69,0,0,1-4.15.18,4.64,4.64,0,0,1-2.83-1.5,6.46,6.46,0,0,1,1.75-3.36,4.93,4.93,0,0,1,1.07-.61,6.11,6.11,0,0,1,4.51-.08A4.32,4.32,0,0,1,136.82,292.51Z"/><path class="cls-25" d="M128.72,294.47a2.56,2.56,0,1,0,2.55-2.57A2.56,2.56,0,0,0,128.72,294.47Z"/><path class="cls-26" d="M129.63,294.47a1.66,1.66,0,1,0,1.64-1.66A1.65,1.65,0,0,0,129.63,294.47Z"/><path class="cls-3" d="M131.27,293.43a1,1,0,1,0,1-1A1,1,0,0,0,131.27,293.43Z"/><path class="cls-27" d="M128,295.81a1.49,1.49,0,0,1,.12-.14,5.34,5.34,0,0,1,1.28-2.4,2.48,2.48,0,0,1,.43-.37,8.71,8.71,0,0,1,2.64-1.44,4.73,4.73,0,0,1,2.94.27,4.38,4.38,0,0,1,1.29.71l.08.07.16.15a7.38,7.38,0,0,1,1.25,1.7,1.08,1.08,0,0,1,.18.53.56.56,0,0,1,0,.17.17.17,0,0,1,0,.07,2.5,2.5,0,0,0,1.09,0,.9.9,0,0,0,.69-.77c-.34.19-.72-.12-1-.39a20.79,20.79,0,0,0-2-1.68,7.24,7.24,0,0,0-3.49-1.54,6.07,6.07,0,0,0-3.82,1.11,4.33,4.33,0,0,0-1.14,1A4.78,4.78,0,0,0,128,295.81Z"/><path class="cls-13" d="M133.12,286.85a14.8,14.8,0,0,1,1.58.33c.68.15,2,.36,2.44-.4s-.28-1.42-1-1.56a10.19,10.19,0,0,0-7.75,1.77,3,3,0,0,0-1,1,.67.67,0,0,0-.09.36c0,1.23,1.86.12,2.3-.13a7.86,7.86,0,0,1,2.69-1.36A3.45,3.45,0,0,1,133.12,286.85Z"/><path class="cls-16" d="M118.75,393.53a19.72,19.72,0,0,1-2.49,4.19,2.41,2.41,0,0,1-1.63,1,2.34,2.34,0,0,1-1.39-.57,14,14,0,0,1-1.49-1.28c-.26-.24-.51-.58-.39-.9a1,1,0,0,1,.26-.33c1.22-1.08,2.64-1.89,3.95-2.85a9.18,9.18,0,0,0,3.2-3.58,11.72,11.72,0,0,0,.7-4.37c.32-.21.66.25.74.62C120.84,388.32,120,391,118.75,393.53Z"/><path class="cls-12" d="M113.27,286.59a2.72,2.72,0,0,0,1.3,0,5.73,5.73,0,0,0,1.07-.4l.19-.09a7.71,7.71,0,0,0,1.26-.85h0a9,9,0,0,0,1.72-1.87c1-1.4,1.78-3,2.74-4.55a8.63,8.63,0,0,0,1.69,6,13.61,13.61,0,0,0,2.71,2.86,15.27,15.27,0,0,0,1.38.95l.48.28h0c1.32.75,2.77,1.36,4.18,2l.85.37.12.06h0c.48.23.94.45,1.4.7l.53.3.32.19a13.47,13.47,0,0,1,1.16.82,5.5,5.5,0,0,1,.73.63l0,0a12.34,12.34,0,0,1,1.15,1.25A12.55,12.55,0,0,1,140,298a12.75,12.75,0,0,1,.75,2,8.6,8.6,0,0,1,.29,1.24,11.64,11.64,0,0,1,.14,3.28,5.43,5.43,0,0,1-1,2.8,2.75,2.75,0,0,1-2.67,1.07,1.71,1.71,0,0,1-1.21-2.3,7.16,7.16,0,0,0-1.06,3c0,.1,0,.19,0,.28a4.31,4.31,0,0,0,.06,1,4.15,4.15,0,0,0,1.45,2.48,2.94,2.94,0,0,0,2,.65h0c.72-.07.92-.67,1.72-.14s.58,1.89-.07,2.55a5.24,5.24,0,0,1-1.83,1.14l-.58.25a19.76,19.76,0,0,0-3.56,1.86,8.78,8.78,0,0,0-3.45,5.38,10.24,10.24,0,0,0-.12,1.23c0,.24,0,.48,0,.72s0,.23,0,.35a8.12,8.12,0,0,0,.47,2,6.68,6.68,0,0,0,.37.87,8.11,8.11,0,0,0,.63,1,5.26,5.26,0,0,1,.63,1.15,3.51,3.51,0,0,1,.26,1v0a1.88,1.88,0,0,1-.27,1.24,1.29,1.29,0,0,1-.48.39,1.75,1.75,0,0,1-.94.11l-.21,0-.2,0a5.77,5.77,0,0,1-.87-.31l-.25-.13c0,.08.05.15.08.22l.17.34,0,0a3.26,3.26,0,0,0,1.49,1.28.6.6,0,0,0,.2.08h0a3.1,3.1,0,0,0,1.32.19,2.28,2.28,0,0,0,.51-.09,3.31,3.31,0,0,0,1.8-1.2,3.22,3.22,0,0,0,.58-1.31c0-.15,0-.31.05-.46v-.56a10.76,10.76,0,0,1,0-1.13v0a2.5,2.5,0,0,1,.36-1.3,3.59,3.59,0,0,1,1.53-1.12l1.2-.59a44.67,44.67,0,0,0,5.21-2.89c.19-.12.38-.23.55-.36l.43-.31a14,14,0,0,0,4.6-5.24c1.16-2.44,1.34-5.21,2.12-7.79.07-.22.13-.44.21-.65,1.05-3,3.08-5.62,4.58-8.43a18,18,0,0,0,1.15-2.58,10.37,10.37,0,0,0,.42-1.38,24.85,24.85,0,0,0,.59-6.89c-.15-4.51-.64-9.86-2.82-13.9-.07-.13-.15-.25-.21-.37a.61.61,0,0,0-.07-.14,24.45,24.45,0,0,0-4.81-5.84,1.9,1.9,0,0,0-.21-.19c-.48-.43-1-.85-1.49-1.24a1.43,1.43,0,0,0-.24-.19,23,23,0,0,0-3.65-2.2,22.71,22.71,0,0,0-2.91-1.12,21.59,21.59,0,0,0-6.42-1,21.89,21.89,0,0,0-9.77,2.3,33.57,33.57,0,0,0-7.91,5.88,16.08,16.08,0,0,0-3.25,3.74c-1.06,1.89-1.31,4.11-1.75,6.24a1.9,1.9,0,0,1-.75,1.4c-.42.24-1.08-.09-1.08-.51A1.73,1.73,0,0,0,113.27,286.59Z"/><path class="cls-20" d="M145.09,309.86c2-2.13,2.46-5.21,2.37-8.08a14,14,0,0,0-.46-3.35,13.39,13.39,0,0,0-2.47-4.63c-3.2-4.1-7.78-6.91-12-10a18.43,18.43,0,0,1-4.14-3.83,6.79,6.79,0,0,1-1.35-5.27c-1.31,2-.75,4.7.65,6.62s3.49,3.25,5.45,4.64a64.61,64.61,0,0,1,6.8,5.53,20.1,20.1,0,0,1,3.05,3.34,18.15,18.15,0,0,1,1.9,3.69,13.81,13.81,0,0,1,1.33,6.56,6.08,6.08,0,0,1-3.81,5.21,4.12,4.12,0,0,1-2.43.07,2.66,2.66,0,0,0,2.63,1A4.58,4.58,0,0,0,145.09,309.86Z"/><path class="cls-20" d="M134.12,279.86c2.42,2.34,5.6,3.77,8.27,5.84a23,23,0,0,1,8.11,13.56,9.15,9.15,0,0,1,0,4.59,41.1,41.1,0,0,1-3,8.65,13.89,13.89,0,0,1-6.48,6.39c-1.68.72-3.62,1-4.92,2.31-1.5,1.46-1.7,3.75-1.55,5.8.07,1.17.1,2.62-.95,3.19a1.51,1.51,0,0,0,1.34-1,6.59,6.59,0,0,0,.35-1.7,7.85,7.85,0,0,1,2.8-4.78c1.58-1.26,3.59-1.89,5.32-2.93a15.94,15.94,0,0,0,6.56-8.68c1.21-3.51,1.41-7.14,1.74-10.8.29-3.28-2.16-7.13-3.62-10a12.67,12.67,0,0,0-2.46-3.62c-1.63-1.51-3.86-2.15-5.84-3.19a15.08,15.08,0,0,1-7.55-9.44c.08.27-.44.79-.49,1.09a3.46,3.46,0,0,0,.28,1.61A8.44,8.44,0,0,0,134.12,279.86Z"/><path class="cls-20" d="M144.61,321c-1.5.82-3.28,1.07-4.82,1.81s-3,2.31-2.59,3.95a8.59,8.59,0,0,1,4.16-3.57,32.45,32.45,0,0,0,5-2.53c2.93-2.1,4.38-5.61,5.68-8.93q1.38-3.57,2.78-7.14a26.7,26.7,0,0,0,1.33-4,27.8,27.8,0,0,0,.13-8.83,16,16,0,0,0-.59-3.51,14.36,14.36,0,0,0-2.16-3.83,51.47,51.47,0,0,0-6.23-7,11.53,11.53,0,0,0-3.29-2.36c-1.48-.64-3.16-.73-4.66-1.32a7.28,7.28,0,0,1-3.71-3.2,4.59,4.59,0,0,0,2.19,2.81,31.79,31.79,0,0,0,3.32,1.61,24.8,24.8,0,0,1,5.83,4.24c4.22,3.92,7.94,8.82,8.57,14.48.45,4-.68,8-1.95,11.86a46.19,46.19,0,0,1-5.28,11.75A11.19,11.19,0,0,1,144.61,321Z"/><path class="cls-20" d="M154.24,277c3.73,5.28,4.39,12.09,4.46,18.54a65.11,65.11,0,0,1-.28,7.52c-.62,5.85-2.7,11.68-2.66,17.6.05,5.37,3.82,9.84,4.77,15a8.45,8.45,0,0,1,0,3.61c-.85,3.17-4.26,5.1-5.26,8.23a6.14,6.14,0,0,0,1.2,5.8c.63.72,1.42,1.28,2,2,1.63,2.11,1.19,5.16.19,7.64s-2.47,4.82-2.77,7.48a5.16,5.16,0,0,0,.75,3.55,2.84,2.84,0,0,0,3.27,1.08,3,3,0,0,1-3.84-.32,4.8,4.8,0,0,1-1.21-3.9,14.75,14.75,0,0,1,1.21-4c.58-1.4,1.15-2.79,1.73-4.18a6.86,6.86,0,0,0,.77-3.5,7.18,7.18,0,0,0-1.36-2.94,19.86,19.86,0,0,1-2.48-4.57,7.48,7.48,0,0,1,0-5.11,21.4,21.4,0,0,1,2.6-3.81c1.89-2.74,2.83-7,1.74-10.19a43.78,43.78,0,0,0-2-4.29,24.85,24.85,0,0,1-2.31-11.76,74.44,74.44,0,0,1,2.17-12.57,51.86,51.86,0,0,0,.85-11.82,18.4,18.4,0,0,0-.45-4.69c-.33-1.26-.9-2.44-1.23-3.71a24.32,24.32,0,0,0-1.05-4.48,10.91,10.91,0,0,0-1.92-2.62c-1.85-2.07-3.71-4.12-5.53-6.19.92.89,1.92,1.65,2.88,2.48C151.24,273.56,154.24,275.83,154.24,277Z"/><path class="cls-20" d="M143.68,333.8a5.89,5.89,0,0,0-.39-2.31c-.68-1.95.16-4.63.32-6.64a1.85,1.85,0,0,1,.27-1,15.72,15.72,0,0,0,.12,6.34,9.9,9.9,0,0,1-.25,7.39c-.38.82-.82,1.6-1.14,2.44a6.6,6.6,0,0,0-.13,4.59c.32.87.86,1.65,1.24,2.5a6.57,6.57,0,0,1-.25,6.14c-.68,1.09-1.73,1.92-2.33,3.07a4.62,4.62,0,0,0-.23,3.73,4.28,4.28,0,0,1-.61-3.37c.58-2.42,3.19-4.09,3.36-6.57.1-1.51-.75-2.89-1.29-4.31a11.46,11.46,0,0,1,.34-9.06A8,8,0,0,0,143.68,333.8Z"/><path class="cls-24" d="M130.31,413.14c-2.13-.83-4.29-1.79-6.56-1.71-.23-.85.54-1.67,1.36-2s1.74-.3,2.56-.59c1.6-.56,2.6-2.11,3.4-3.6a45,45,0,0,0,4.44-12.42,13.82,13.82,0,0,1,.7-2.69c.26-.58.62-1.12.89-1.71a6.91,6.91,0,0,0,.64-3.58c0-.23,0-.49.14-.63.62-.48.7.68.71,1,.07.77.22,1.52.24,2.31a26.75,26.75,0,0,1-.43,4.55c-.42,2.49-1,5-1.61,7.4a34.47,34.47,0,0,0-1.46,6.84c0,.73.11,1.4.11,2.13a9.5,9.5,0,0,0,.29,2.65c.12.44.3.87.38,1.32a1.63,1.63,0,0,1-.3,1.31,1.46,1.46,0,0,1-1.06.46A10.89,10.89,0,0,1,130.31,413.14Z"/><path class="cls-24" d="M138.57,374.19a7.68,7.68,0,0,0,2.48-2.93c.71-1.82-.05-3.84-.29-5.79a.4.4,0,0,1,.1-.37c.13-.09.3,0,.42.09a14,14,0,0,1,4.24,6.15,12.71,12.71,0,0,1,1.24,5.48,2.59,2.59,0,0,1-.27,1.1,2.35,2.35,0,0,1-1.61.92,12.68,12.68,0,0,1-1.38.17l-7.69.66a1.14,1.14,0,0,1-.52-.05.76.76,0,0,1-.29-.3,1.94,1.94,0,0,1,.1-1.93,5.67,5.67,0,0,1,1.38-1.47Z"/><path class="cls-11" d="M97.62,336.38a1.13,1.13,0,0,0,.08.34,1,1,0,0,0,.65-.46,6.6,6.6,0,0,0,.42-.89,2,2,0,0,1,2.11-1.18,8.94,8.94,0,0,1,1.52.88,1.65,1.65,0,0,0,1.27.09,1.21,1.21,0,0,0,.8-1c.07-.63-.41-1.16-.74-1.71-.22-.38-.38-.79-.57-1.19l0,.11a2.31,2.31,0,0,0,.28,1.76,6.74,6.74,0,0,1,.45.64.84.84,0,0,1,.06.74c-.38.76-2,0-2.34-.43s-.57-1-1.09-1.07h-.1a1.28,1.28,0,0,0-1.23.8,4.4,4.4,0,0,1-.85,1.31A1.84,1.84,0,0,0,97.62,336.38Z"/><path class="cls-11" d="M117.76,303.7a1.84,1.84,0,0,1-.37-2,2.5,2.5,0,0,1,.82-.83,23,23,0,0,0,2.46-1.78,6.19,6.19,0,0,0,1.91-4.72,29.5,29.5,0,0,1-.35-3.39c.9.45,1.07,1.58,1.27,2.48a8.17,8.17,0,0,1,0,3.23,4.61,4.61,0,0,1-.38,1.21,5.91,5.91,0,0,1-2.82,2.34,3.62,3.62,0,0,0-2,1.65c-.49,1.22.44,2.24,1.44,2.79.32.18.67.34,1,.52a1.64,1.64,0,0,1-1.41-.4A5.67,5.67,0,0,1,117.76,303.7Z"/><path class="cls-13" d="M117.62,288.18c-.3,0-.6.14-.91.21s-1.15.25-1.4-.25a.72.72,0,0,1,.57-1,5.29,5.29,0,0,1,4.47,1.16,1.93,1.93,0,0,1,.59.65,1,1,0,0,1,0,.24c0,.81-1.07.08-1.33-.09a4.18,4.18,0,0,0-1.55-.89A1.61,1.61,0,0,0,117.62,288.18Z"/><path class="cls-3" d="M119.6,292c-1.08-.31-2.89.4-2.81,2a2.59,2.59,0,0,0,3.07,2.65,7.12,7.12,0,0,0,2.25-1A4.08,4.08,0,0,0,119.6,292Z"/><path class="cls-25" d="M117.85,294.15a1.75,1.75,0,1,0,1.75-1.75A1.74,1.74,0,0,0,117.85,294.15Z"/><path class="cls-26" d="M118.47,294.15A1.13,1.13,0,1,0,119.6,293,1.13,1.13,0,0,0,118.47,294.15Z"/><path class="cls-3" d="M119.59,293.44a.69.69,0,1,0,.68-.69A.69.69,0,0,0,119.59,293.44Z"/><path class="cls-27" d="M121.61,294.32a3.27,3.27,0,0,1,.3.66,3.19,3.19,0,0,0,.21.59,3.39,3.39,0,0,0,0-.71,3.52,3.52,0,0,0-3.23-3.06,1.3,1.3,0,0,0-.34,0,2.26,2.26,0,0,0-1.05.49,5.47,5.47,0,0,0-.81.86,1,1,0,0,1-.25.28.34.34,0,0,1-.36,0,2.12,2.12,0,0,0,.77.33A2.17,2.17,0,0,1,120,292.6a2.15,2.15,0,0,1,.46.33A5.62,5.62,0,0,1,121.61,294.32Z"/><path class="cls-28" d="M118.52,311.06a1.79,1.79,0,0,0,1.06.74,4.74,4.74,0,0,0,3.24-.48c.57-.26,1.12-.58,1.66-.89l.15-.09c1-.56,1.91-1.13,2.88-1.68a14,14,0,0,1-5.53,1.1c-.68,0-1.34-.19-2-.23a1.7,1.7,0,0,0-1.34.35,0,0,0,0,1,0,0A1,1,0,0,0,118.52,311.06Z"/><path class="cls-28" d="M117.8,307.55a1,1,0,0,1,.93-.34,3.81,3.81,0,0,1,1,.37,10.74,10.74,0,0,0,4.52.89,18.79,18.79,0,0,0,4.58-.68,8.48,8.48,0,0,1-2.63,1.5,13.11,13.11,0,0,1-4.25,1.19,4.61,4.61,0,0,1-3.93-1.6A1.16,1.16,0,0,1,117.8,307.55Z"/><path class="cls-29" d="M121.33,311.15a.12.12,0,0,1,0,.17.27.27,0,0,1-.16.1,1.88,1.88,0,0,1-2-.56,1.27,1.27,0,0,1-.26-.43.54.54,0,0,1,0-.25.21.21,0,0,1,.37-.09,1.87,1.87,0,0,1,.24.38,1.45,1.45,0,0,0,1.22.67c.18,0,.35,0,.53,0A.17.17,0,0,1,121.33,311.15Z"/><path class="cls-8" d="M104.1,377.09a2.42,2.42,0,0,0-.92.39,5.18,5.18,0,0,0-1.41,1.09,5.32,5.32,0,0,0-.8,1.82c-.17.55-.32,1.09-.48,1.64.26.21.66.05.9-.18.62-.59.75-1.58,1.44-2.08s1.83-.29,2.74-.53a1,1,0,0,0,.79-.64.85.85,0,0,0-.28-.83,2.48,2.48,0,0,0-.81-.45A2.43,2.43,0,0,0,104.1,377.09Z"/><path class="cls-6" d="M100,390.27a6.19,6.19,0,0,0,.82-2.53,24.45,24.45,0,0,1,1-2.61c.31-.78.39-1.67.76-2.41s1.8-1.41,1.51-2.39a.15.15,0,0,1,.28-.08c.22.78-.31,1.3-.87,1.76-.92.78-1,2.12-1.4,3.19a22.44,22.44,0,0,0-1.16,3.11,4.89,4.89,0,0,1-.78,2.17C100.1,390.62,99.9,390.42,100,390.27Z"/><path class="cls-6" d="M105.35,382.93a.8.8,0,0,0,.42-.48,1.59,1.59,0,0,0,.06-.37,2.73,2.73,0,0,0,0-.31.2.2,0,0,1-.09-.16,0,0,0,0,0,0,0,.16.16,0,0,1,.1-.11h0a.16.16,0,0,1,.15,0,1.41,1.41,0,0,1,0,1,1.08,1.08,0,0,1-.63.69C105.25,383.28,105.18,383,105.35,382.93Z"/><path class="cls-6" d="M104.26,386.3c0-.19.32-.19.29,0-.14,1.11-1.27,1.76-1.39,2.87,0,.18-.3.18-.28,0C103,388,104.12,387.4,104.26,386.3Z"/><path class="cls-6" d="M101.08,394.42a5.94,5.94,0,0,1,.33-.67c.21-.41.67-.79.72-1.28s-.25-.88,0-1.39c.12-.26.37-.44.43-.76a2,2,0,0,1,.23-.71c.1-.15.35,0,.25.15-.23.36-.12.88-.42,1.2-.52.56-.12,1.05-.2,1.7-.05.44-.53.87-.75,1.24a5.18,5.18,0,0,0-.66,2.17c0,.18-.31.18-.3,0A6.72,6.72,0,0,1,101.08,394.42Z"/><path class="cls-6" d="M107.41,384.4a4.48,4.48,0,0,0,.34-1.54.15.15,0,0,1,.3,0,5,5,0,0,1-.37,1.62C107.61,384.65,107.34,384.57,107.41,384.4Z"/><path class="cls-6" d="M104.66,393a6,6,0,0,0,1-2.14,4.81,4.81,0,0,1,.21-1c.24-.54.74-1,.49-1.67-.07-.17.2-.24.28-.07.25.62-.13,1.13-.42,1.66a5.87,5.87,0,0,0-.37,1.54,5,5,0,0,1-.4,1c-.75,1.48-2.09,2.65-2.34,4.36,0,.19-.3.11-.28-.07A8.85,8.85,0,0,1,104.66,393Z"/><path class="cls-6" d="M110.11,384.42a1.49,1.49,0,0,0,.13-.75c0-.18.28-.18.29,0a1.62,1.62,0,0,1-.17.89C110.29,384.73,110,384.58,110.11,384.42Z"/><path class="cls-6" d="M106.29,395.09a10.82,10.82,0,0,0,.95-2,14.06,14.06,0,0,1,.72-1.69c.34-.68,1-1.24,1.09-2,0-.18.32-.18.29,0a2.79,2.79,0,0,1-.6,1.32,8.7,8.7,0,0,0-1,2c-.23.58-.43,1.17-.68,1.75s-.87,1.21-.9,2c0,.18-.3.18-.29,0A2.54,2.54,0,0,1,106.29,395.09Z"/><path class="cls-6" d="M109.68,387.64a3.47,3.47,0,0,0,.27-1.71c0-.18.27-.18.29,0a3.66,3.66,0,0,1-.31,1.85C109.86,388,109.61,387.81,109.68,387.64Z"/><path class="cls-6" d="M106.83,386.83a1.28,1.28,0,0,0,.3-.75c0-.18.3-.19.28,0a1.6,1.6,0,0,1-.38,1C106.91,387.18,106.7,387,106.83,386.83Z"/><path class="cls-30" d="M93.56,315.41h0a.27.27,0,0,1-.33-.23,29,29,0,0,0-1.08-4.47.27.27,0,0,1,.12-.38.29.29,0,0,1,.38.12,29.32,29.32,0,0,1,1.13,4.64A.28.28,0,0,1,93.56,315.41Z"/><path class="cls-30" d="M99.07,317a.23.23,0,0,1-.21-.05.24.24,0,0,1,0-.34c.08-.09,2.09-2.37,2.8-3a5,5,0,0,0,.91-1,.24.24,0,0,1,.32-.1.24.24,0,0,1,.09.32,5,5,0,0,1-1,1.14c-.69.61-2.74,2.94-2.76,3A.29.29,0,0,1,99.07,317Z"/><path class="cls-30" d="M103.82,319.39a.26.26,0,0,1-.28-.09.29.29,0,0,1,0-.4c.29-.24,2.86-2.35,3.88-2.5a.28.28,0,1,1,.09.55c-.74.12-2.86,1.76-3.6,2.38A.34.34,0,0,1,103.82,319.39Z"/><path class="cls-30" d="M88.53,317.34a.22.22,0,0,1-.17,0,19.09,19.09,0,0,0-3.92-1.63.24.24,0,0,1-.21-.26.21.21,0,0,1,.25-.2,19.9,19.9,0,0,1,4.11,1.68.24.24,0,0,1,.09.32A.26.26,0,0,1,88.53,317.34Z"/><path class="cls-30" d="M86.82,323.1h0a20.43,20.43,0,0,1-4.7,0,.26.26,0,0,1-.19-.34.28.28,0,0,1,.34-.2,21.34,21.34,0,0,0,4.49,0,.27.27,0,0,1,.3.26A.27.27,0,0,1,86.82,323.1Z"/><path class="cls-30" d="M87.2,330.13a.21.21,0,0,1-.1.06,29,29,0,0,0-3,1.17.3.3,0,0,1-.39-.1.29.29,0,0,1,.11-.39,28,28,0,0,1,3.09-1.21.28.28,0,0,1,.36.17A.27.27,0,0,1,87.2,330.13Z"/><path class="cls-30" d="M106.13,325.6a.28.28,0,0,1-.31-.14.29.29,0,0,1,.1-.38,28,28,0,0,1,3.77-2,.28.28,0,0,1,.32.24.27.27,0,0,1-.23.31,30.54,30.54,0,0,0-3.57,1.92Z"/><path class="cls-31" d="M90.84,318.82c-.25-.07-.39.08-.32.32l5.08,18a.89.89,0,0,0,.57.55l9.4,2.35c.25.06.39-.08.32-.33l-5.08-18a.86.86,0,0,0-.58-.55Z"/><path class="cls-32" d="M90.84,318.82l8.46,2.11c.07.87.12,1.73.14,2.6a34.44,34.44,0,0,1-2.13,13.32c-.14.34-.28.68-.43,1l-.71-.18a.89.89,0,0,1-.57-.55l-5.08-18C90.45,318.9,90.59,318.75,90.84,318.82Z"/><path class="cls-33" d="M90.54,318.88h0v0h0V319h0v.09a0,0,0,0,0,0,0s0,0,0,0l5.08,18,0,.06h0l0,0v.06l0,0s0,0,0,0l0,.05,0,0s0,0,0,0h0l0,0,0,0,0,0h0l0,0v0h0l0,0h0l.06,0h0l.08,0,9.4,2.35a.28.28,0,0,0,.28-.05l-.61.64a.29.29,0,0,1-.28.05l-9.4-2.35h0l-.08,0h0l-.06,0h0l0,0h-.05a0,0,0,0,0,0,0h0l0,0h0v0h0l0,0h0l0,0h0s0,0,0-.05h0v0l0,0v0l0,0h0l0,0s0,0,0,0a.09.09,0,0,0,0-.05l-5.09-18h0v-.09h0v0s0,0,0,0h0v0h0v0h0l0,0h0l.62-.63Z"/><path class="cls-34" d="M99.59,337.89a.83.83,0,0,0,.31.18l1.55.39a.26.26,0,0,0,.33-.34l0-.16a.76.76,0,0,0-.19-.3.73.73,0,0,0-.3-.18l-1.56-.39a.29.29,0,0,0-.28.05.27.27,0,0,0,0,.28l0,.17A.89.89,0,0,0,99.59,337.89Z"/><path class="cls-35" d="M99.67,337.14c-.2-.05-.32.07-.26.27l0,.16a.75.75,0,0,0,.47.45l1.55.38c.2.05.31-.06.25-.26l0-.16a.71.71,0,0,0-.46-.45Z"/><path class="cls-36" d="M95.18,320.73c-.07,0-.11,0-.1.1a.32.32,0,0,0,.19.19l1.21.29c.07,0,.12,0,.1-.1a.35.35,0,0,0-.18-.18Z"/><path class="cls-36" d="M94.46,320.55c-.07,0-.12,0-.1.1a.29.29,0,0,0,.18.18c.08,0,.13,0,.11-.1A.31.31,0,0,0,94.46,320.55Z"/><polygon class="cls-37" points="91.45 320.58 95.6 335.28 104.78 337.58 100.61 322.88 91.45 320.58"/><path class="cls-38" d="M103,338.26c-.08,0-.13,0-.1.1a.27.27,0,0,0,.18.18l1.21.3c.08,0,.12,0,.11-.1a.31.31,0,0,0-.19-.18Z"/><path class="cls-38" d="M96.82,336.7c-.08,0-.13,0-.11.11a.32.32,0,0,0,.18.18l1.21.3c.09,0,.13,0,.11-.11A.3.3,0,0,0,98,337Z"/><path class="cls-39" d="M99.67,337.14l1.54.39a3.7,3.7,0,0,1-1.37.46.76.76,0,0,1-.39-.42l0-.16C99.35,337.21,99.47,337.09,99.67,337.14Z"/><polygon class="cls-40" points="108.6 229.02 109.35 201.11 110.11 229.02 108.6 229.02"/><polygon class="cls-40" points="112.83 219.45 113.58 191.54 114.34 219.45 112.83 219.45"/><polygon class="cls-40" points="127.36 222.46 128.11 194.55 128.86 222.46 127.36 222.46"/><polygon class="cls-40" points="157.63 149.54 158.39 121.64 159.14 149.54 157.63 149.54"/><polygon class="cls-40" points="180.16 166.79 180.92 138.88 181.67 166.79 180.16 166.79"/><polygon class="cls-40" points="169.33 244.5 170.08 216.59 170.84 244.5 169.33 244.5"/><polygon class="cls-40" points="174.52 248.52 175.28 220.61 176.03 248.52 174.52 248.52"/><polygon class="cls-40" points="195.36 244.5 196.11 216.59 196.87 244.5 195.36 244.5"/><polygon class="cls-40" points="102.65 158.4 103.4 130.49 104.15 158.4 102.65 158.4"/><polygon class="cls-40" points="107.84 162.42 108.59 134.51 109.35 162.42 107.84 162.42"/><polygon class="cls-40" points="128.68 158.4 129.43 130.49 130.19 158.4 128.68 158.4"/><polygon class="cls-40" points="96.35 114.82 97.1 86.91 97.86 114.82 96.35 114.82"/><polygon class="cls-40" points="145.56 89.42 146.31 61.51 147.07 89.42 145.56 89.42"/><polygon class="cls-40" points="165.99 117.33 166.74 89.42 167.5 117.33 165.99 117.33"/><polygon class="cls-40" points="120.77 110.09 121.52 53.75 122.28 110.09 120.77 110.09"/><polygon class="cls-41" points="146.31 85.25 172.03 103.97 173.76 113.77 148.04 95.05 146.31 85.25"/><polygon class="cls-42" points="148.04 95.05 173.76 113.77 166.8 119.58 141.08 100.86 148.04 95.05"/><polygon class="cls-43" points="148.04 95.05 141.08 100.86 139.35 91.07 146.31 85.25 148.04 95.05"/><polygon class="cls-43" points="98.89 153.85 128.57 151.03 138.29 159.91 104.34 163.81 98.89 153.85"/><polygon class="cls-44" points="104.34 163.81 104.34 175.89 98.45 162.44 98.89 153.85 104.34 163.81"/><polygon class="cls-41" points="138.29 159.91 136.73 172.17 104.34 175.89 104.34 163.81 138.29 159.91"/><polygon class="cls-45" points="184.79 160.92 156.46 146.46 146.95 149.35 175.28 163.81 184.79 160.92"/><polygon class="cls-44" points="175.28 163.81 146.95 149.35 144.91 158.18 173.25 172.65 175.28 163.81"/><polygon class="cls-41" points="175.28 163.81 173.25 172.65 182.76 169.76 184.79 160.92 175.28 163.81"/><polygon class="cls-45" points="139.95 180.57 149.18 204.04 166.37 196.84 156.06 174.48 139.95 180.57"/><polygon class="cls-41" points="149.18 204.04 151.8 208.42 167.59 201.88 166.37 196.84 149.18 204.04"/><polygon class="cls-41" points="128.79 218.34 132.18 224.87 126.09 250.79 107.43 248.24 128.79 218.34"/><polygon class="cls-46" points="112.72 216.83 128.79 218.34 122.7 244.26 104.04 241.71 112.72 216.83"/><polygon class="cls-44" points="122.7 244.26 126.09 250.79 107.43 248.24 104.04 241.71 122.7 244.26"/><polygon class="cls-44" points="89.2 114.68 93.34 120.76 119.04 127.72 125.66 110.09 89.2 114.68"/><polygon class="cls-46" points="95.51 99.82 89.2 114.68 114.91 121.64 121.52 104.01 95.51 99.82"/><polygon class="cls-41" points="114.91 121.64 119.04 127.72 125.66 110.09 121.52 104.01 114.91 121.64"/><polygon class="cls-45" points="199 241.18 170.08 238.56 171.17 253.54 200.08 256.16 199 241.18"/><polygon class="cls-44" points="170.08 238.56 165.72 245.43 166.8 260.41 171.17 253.54 170.08 238.56"/><polygon class="cls-41" points="200.08 256.16 195.72 263.02 166.8 260.41 171.17 253.54 200.08 256.16"/><path class="cls-47" d="M309.15,16.61A53.35,53.35,0,0,1,362.51,70V458.24a53.36,53.36,0,0,1-53.36,53.36H55.36A53.36,53.36,0,0,1,2,458.24V70A53.35,53.35,0,0,1,55.36,16.61H309.15m0-2H55.36A55.41,55.41,0,0,0,0,70V458.24A55.42,55.42,0,0,0,55.36,513.6H309.15a55.42,55.42,0,0,0,55.36-55.36V70a55.41,55.41,0,0,0-55.36-55.35Z"/><path class="cls-47" d="M348.84,63a30.75,30.75,0,0,1-21.75-52.5A30.76,30.76,0,0,1,370.58,54,30.58,30.58,0,0,1,348.84,63Z"/><path class="cls-3" d="M348.84,3a29.26,29.26,0,1,1-20.69,8.57A29.17,29.17,0,0,1,348.84,3m0-3A32.26,32.26,0,0,0,326,55.07,32.25,32.25,0,0,0,371.64,9.45,32,32,0,0,0,348.84,0Z"/><path class="cls-3" d="M341.82,22.87a2.12,2.12,0,0,1,2.31-2.34h5.28c4.62,0,7.47,2.07,7.47,6.78,0,3.3-2.49,5.19-5.55,5.67l5.1,5.46a1.94,1.94,0,0,1,.6,1.32,2.28,2.28,0,0,1-4,1.53l-6.66-8.07h-.06v6.51a2.25,2.25,0,1,1-4.5,0Zm4.5,7.11h3.09a2.55,2.55,0,0,0,2.79-2.67,2.52,2.52,0,0,0-2.79-2.64h-3.09Z"/><line class="cls-4" x1="211.36" y1="134.51" x2="211.36" y2="49.87"/><polygon class="cls-2" points="219.54 56.5 218.08 57.87 211.36 50.64 204.65 57.87 203.18 56.5 211.36 47.7 219.54 56.5"/></g></g></g></svg>