<svg xmlns="http://www.w3.org/2000/svg" xmlns:xlink="http://www.w3.org/1999/xlink" viewBox="0 0 85.28 115.71"><defs><style>.cls-1,.cls-3,.cls-47{fill:none;}.cls-2{isolation:isolate;}.cls-3{stroke-linecap:round;stroke-linejoin:round;stroke-width:3px;stroke:url(#radial-gradient);}.cls-37,.cls-38,.cls-4{fill:#fff;}.cls-5{fill:url(#radial-gradient-2);}.cls-6{fill:url(#radial-gradient-3);}.cls-7{fill:url(#radial-gradient-4);}.cls-8{fill:url(#radial-gradient-5);}.cls-9{fill:url(#radial-gradient-6);}.cls-10{fill:#231f20;}.cls-11{fill:#cbcecf;opacity:0.51;}.cls-11,.cls-25,.cls-26,.cls-27,.cls-28,.cls-29,.cls-30,.cls-32,.cls-41,.cls-42,.cls-43{fill-rule:evenodd;}.cls-11,.cls-36,.cls-61{mix-blend-mode:multiply;}.cls-12{fill:#59595b;}.cls-13{fill:#025799;}.cls-14,.cls-27{fill:#fbd1a8;}.cls-15{fill:#eecea9;}.cls-16{fill:#019c9c;}.cls-17{fill:#dfbb98;}.cls-18{fill:#eecfaa;}.cls-19{fill:#1b1c1c;}.cls-20{clip-path:url(#clip-path);}.cls-21{fill:url(#linear-gradient);}.cls-22{fill:#fad29e;}.cls-23{fill:#422918;}.cls-24{fill:#004a5b;}.cls-25{fill:#f7b985;}.cls-26{fill:#fbcaa8;}.cls-28{fill:#af8c78;}.cls-29{fill:#d2ab8c;}.cls-30{fill:teal;}.cls-31,.cls-32{fill:#f8c288;}.cls-32{opacity:0.6;}.cls-33{fill:#784f39;}.cls-34{fill:#402b1e;}.cls-35,.cls-37,.cls-38{mix-blend-mode:overlay;}.cls-35,.cls-36{opacity:0.4;}.cls-37{opacity:0.3;}.cls-39{opacity:0.1;}.cls-40{fill:#3f4040;}.cls-41{fill:#513e40;}.cls-42{fill:#2a1c1d;}.cls-43{fill:#3e2e2f;}.cls-44{fill:url(#GradientFill_5);}.cls-45{fill:#b8babc;}.cls-46{fill:#464746;}.cls-47{stroke:#fff;stroke-miterlimit:10;stroke-width:0.5px;}.cls-48{fill:url(#linear-gradient-2);}.cls-49{fill:url(#linear-gradient-3);}.cls-50{fill:url(#linear-gradient-4);}.cls-51{fill:url(#linear-gradient-5);}.cls-52{fill:url(#linear-gradient-6);}.cls-53{fill:url(#linear-gradient-7);}.cls-54{fill:url(#linear-gradient-8);}.cls-55{fill:url(#linear-gradient-9);}.cls-56{fill:url(#linear-gradient-10);}.cls-57{fill:url(#linear-gradient-11);}.cls-58{fill:url(#linear-gradient-12);}.cls-59{fill:url(#linear-gradient-13);}.cls-60{fill:url(#linear-gradient-14);}.cls-61{fill:#e93d25;}</style><radialGradient id="radial-gradient" cx="18.18" cy="-107.29" r="18.31" gradientTransform="translate(0 178.55) scale(1 1.09)" gradientUnits="userSpaceOnUse"><stop offset="0" stop-color="#787878"/><stop offset="1" stop-color="#363636"/></radialGradient><radialGradient id="radial-gradient-2" cx="-26822.6" cy="69013.02" r="10.14" gradientTransform="translate(6218.63 -2695.25) rotate(45) scale(0.09)" gradientUnits="userSpaceOnUse"><stop offset="0" stop-color="#fff"/><stop offset="0.54" stop-color="#a3a5a8"/><stop offset="1" stop-color="#2c292a"/></radialGradient><radialGradient id="radial-gradient-3" cx="-34205.54" cy="85202.58" r="9.69" gradientTransform="translate(6322.99 -2659.34) rotate(45) scale(0.07)" gradientUnits="userSpaceOnUse"><stop offset="0" stop-color="#c1c3c5"/><stop offset="0.01" stop-color="#bfc1c3"/><stop offset="0.19" stop-color="#909091"/><stop offset="0.36" stop-color="#696769"/><stop offset="0.54" stop-color="#4a4849"/><stop offset="0.7" stop-color="#353132"/><stop offset="0.86" stop-color="#272425"/><stop offset="1" stop-color="#231f20"/></radialGradient><radialGradient id="radial-gradient-4" cx="-26268.24" cy="69569.85" r="10.14" gradientTransform="translate(6218.63 -2798.56) rotate(45) scale(0.09)" xlink:href="#radial-gradient-2"/><radialGradient id="radial-gradient-5" cx="-33526.25" cy="85884.86" r="9.71" gradientTransform="translate(6322.99 -2762.65) rotate(45) scale(0.07)" xlink:href="#radial-gradient-3"/><radialGradient id="radial-gradient-6" cx="-33520.46" cy="85893.17" r="19.55" gradientTransform="translate(6322.99 -2762.65) rotate(45) scale(0.07)" gradientUnits="userSpaceOnUse"><stop offset="0" stop-color="#c7cacb"/><stop offset="1" stop-color="#4d4d4f"/></radialGradient><clipPath id="clip-path"><path class="cls-1" d="M60.66,67.41l.12,0a5,5,0,0,0,.5,0h0l-.21,0-.28,0a.28.28,0,0,1-.13,0Z"/></clipPath><linearGradient id="linear-gradient" x1="5141.97" y1="-2913.54" x2="5143.32" y2="-2913.54" gradientTransform="matrix(4.93, 0, 0, -4.93, -25316.18, -14308.29)" gradientUnits="userSpaceOnUse"><stop offset="0" stop-color="#fff"/><stop offset="1" stop-color="#211915"/></linearGradient><linearGradient id="GradientFill_5" x1="59.5" y1="60.32" x2="62.31" y2="60.32" gradientUnits="userSpaceOnUse"><stop offset="0" stop-color="#afafaf"/><stop offset="0.2" stop-color="#b4b4b4"/><stop offset="0.44" stop-color="#c3c3c3"/><stop offset="0.7" stop-color="#dbdbdb"/><stop offset="0.98" stop-color="#fcfcfc"/><stop offset="1" stop-color="#fff"/></linearGradient><linearGradient id="linear-gradient-2" x1="-76432.78" y1="31540.85" x2="-76427.56" y2="31644.5" gradientTransform="translate(6624.83 -2633.76) scale(0.09)" gradientUnits="userSpaceOnUse"><stop offset="0" stop-color="#8a8c8f"/><stop offset="1" stop-color="#231f20"/></linearGradient><linearGradient id="linear-gradient-3" x1="-79160.8" y1="32676.73" x2="-79155.58" y2="32780.36" gradientTransform="translate(6638.51 -2639.92) scale(0.08)" gradientUnits="userSpaceOnUse"><stop offset="0" stop-color="#dddfe0"/><stop offset="1" stop-color="#b5b7b9"/></linearGradient><linearGradient id="linear-gradient-4" x1="-109226.28" y1="45358.27" x2="-109221.07" y2="45461.93" gradientTransform="translate(6711.23 -2688.43) scale(0.06)" xlink:href="#linear-gradient-2"/><linearGradient id="linear-gradient-5" x1="-113078.28" y1="46969.14" x2="-113073.06" y2="47072.9" gradientTransform="translate(6720.94 -2692.92) scale(0.06)" xlink:href="#linear-gradient-3"/><linearGradient id="linear-gradient-6" x1="-109985.63" y1="45358.27" x2="-109980.41" y2="45461.92" gradientTransform="translate(6777.27 -2688.43) scale(0.06)" xlink:href="#linear-gradient-2"/><linearGradient id="linear-gradient-7" x1="-113863.25" y1="46969.14" x2="-113858.02" y2="47072.87" gradientTransform="translate(6786.98 -2692.92) scale(0.06)" xlink:href="#linear-gradient-3"/><linearGradient id="linear-gradient-8" x1="-23719.84" y1="8884.41" x2="-23719.84" y2="8977.32" gradientTransform="translate(5883.53 -2101.48) scale(0.25)" gradientUnits="userSpaceOnUse"><stop offset="0" stop-color="#dddfe0"/><stop offset="1" stop-color="#96999b"/></linearGradient><linearGradient id="linear-gradient-9" x1="-23719.84" y1="8888.41" x2="-23719.84" y2="8974.65" gradientTransform="translate(5883.53 -2101.48) scale(0.25)" gradientUnits="userSpaceOnUse"><stop offset="0" stop-color="#ededee"/><stop offset="1" stop-color="#b5b7b9"/></linearGradient><linearGradient id="linear-gradient-10" x1="-23719.84" y1="8963.09" x2="-23719.84" y2="8899.49" gradientTransform="translate(5883.53 -2101.48) scale(0.25)" gradientUnits="userSpaceOnUse"><stop offset="0" stop-color="#fff"/><stop offset="1" stop-color="#b5b7b9"/></linearGradient><linearGradient id="linear-gradient-11" x1="-23721.33" y1="8901.56" x2="-23718.22" y2="8963.36" xlink:href="#linear-gradient-10"/><linearGradient id="linear-gradient-12" x1="-23711.72" y1="8934.81" x2="-23808.62" y2="8848.57" xlink:href="#linear-gradient-8"/><linearGradient id="linear-gradient-13" x1="-23712.1" y1="8935.24" x2="-23809.01" y2="8849" xlink:href="#linear-gradient-9"/><linearGradient id="linear-gradient-14" x1="-23779.99" y1="8940.15" x2="-23707.74" y2="8888.43" xlink:href="#linear-gradient-10"/></defs><g class="cls-2"><g id="Capa_2" data-name="Capa 2"><g id="Capa_1-2" data-name="Capa 1"><line class="cls-3" x1="18.18" y1="87.89" x2="18.18" y2="34.66"/><path class="cls-4" d="M.74,20a3.3,3.3,0,0,1,0-4.17L15.85.74A3.31,3.31,0,0,1,20,.74L35.14,15.85a3.32,3.32,0,0,1,0,4.17L20,35.14a3.34,3.34,0,0,1-4.18,0Z"/><path class="cls-4" d="M17.36,2.4l0,0c-.07.06.29,0-14.7,15a.84.84,0,0,0-.24.58.82.82,0,0,0,.24.57l14.67,15a.8.8,0,0,0,.57.24.82.82,0,0,0,.57-.24l14.67-15a.83.83,0,0,0,0-1.15L18.51,2.4A.83.83,0,0,0,17.36,2.4Z"/><path class="cls-5" d="M17.63,34.48a.62.62,0,0,1,0-.87.6.6,0,0,1,.87,0,.62.62,0,1,1-.87.87Z"/><path class="cls-6" d="M18.38,34.29a.06.06,0,0,0,0-.08l-.16-.16a.06.06,0,0,1,0-.08l.16-.17a.06.06,0,0,0,0-.08l0,0a.06.06,0,0,0-.08,0l-.17.16a0,0,0,0,1-.08,0l-.16-.16a.06.06,0,0,0-.08,0l0,0s0,.06,0,.08l.16.17a.06.06,0,0,1,0,.08l-.16.16a0,0,0,0,0,0,.08l0,0a0,0,0,0,0,.08,0l.16-.16a.06.06,0,0,1,.08,0l.17.16a0,0,0,0,0,.08,0Z"/><path class="cls-7" d="M17.47,3.06a.62.62,0,1,1,.87,0A.62.62,0,0,1,17.47,3.06Z"/><path class="cls-8" d="M18.22,2.88a.07.07,0,0,0,0-.09l-.16-.16a.06.06,0,0,1,0-.08l.16-.16a.06.06,0,0,0,0-.08l0,0a.06.06,0,0,0-.08,0L18,2.43a.06.06,0,0,1-.09,0l-.16-.16a.06.06,0,0,0-.08,0l0,0a.06.06,0,0,0,0,.08l.16.16a.06.06,0,0,1,0,.08l-.16.16s0,.06,0,.09l0,0a.06.06,0,0,0,.08,0l.16-.16a.06.06,0,0,1,.09,0l.16.16a.06.06,0,0,0,.08,0Z"/><path class="cls-9" d="M18.24,2.85l0,0,0,0a.06.06,0,0,1-.08,0L18,2.75a.06.06,0,0,0-.09,0l-.16.16a.06.06,0,0,1-.08,0l0,0,0,0a.07.07,0,0,0,0,.06l0,0a.06.06,0,0,0,.08,0l.16-.16a.06.06,0,0,1,.09,0l.16.16a.06.06,0,0,0,.08,0l0,0A.07.07,0,0,0,18.24,2.85Z"/><path class="cls-10" d="M17.57,2.36l0,0,0,0a.06.06,0,0,1,.08,0l.16.16a.06.06,0,0,0,.09,0l.16-.16a.06.06,0,0,1,.08,0l0,0,0,0s0,0,0,0l0,0a.06.06,0,0,0-.08,0L18,2.43a.06.06,0,0,1-.09,0l-.16-.16a.06.06,0,0,0-.08,0l0,0S17.57,2.34,17.57,2.36Z"/><path class="cls-11" d="M17.68,91.05c-6.22,0-11.28-.91-11.28-2s5.06-2,11.28-2S29,87.89,29,89,23.89,91.05,17.68,91.05Z"/><path class="cls-12" d="M12.21,19.32a2,2,0,0,0,.08,1.7A1.75,1.75,0,0,0,12.21,19.32Z"/><path class="cls-13" d="M6.66,18.77a11.56,11.56,0,1,0,11-12.14A11.57,11.57,0,0,0,6.66,18.77Z"/><path class="cls-14" d="M71,39.23c1.85,2.3,3.85,11.05,3.36,12.49a1.58,1.58,0,0,1-3,0c-.42-1.47-2.42-5.84-3.09-7.29C67.62,43.18,69.43,37.29,71,39.23Z"/><path class="cls-14" d="M71.23,52.85c-.17,1.21-1.22,10-1.37,10.39,1,.28.61-.06,1.63.65.37-.74,4-11.53,2.71-12.48C72.59,50.19,71.41,51.63,71.23,52.85Z"/><path class="cls-15" d="M55.45,61.69c.76.54,1.74.61,1.58,1.47.44.43.88.9.5,1.37s-2.21-1.17-3.09-1.94S54.4,61,55.45,61.69Z"/><path class="cls-14" d="M50.85,40.21c-1.3,2.68-2.7,10.95-2.06,12.33a1.71,1.71,0,0,0,3.22-.2c.26-1.51,1.4-4.47,1.72-6C54.27,43.66,51.69,38.47,50.85,40.21Z"/><path class="cls-16" d="M71,39.23c1.85,2.3,4.2,10.31,3.55,11.68-.15.31-3.21,1-3.65.5-1-1.16-2-5.5-2.68-6.95C67.62,43.18,69.43,37.29,71,39.23Z"/><path class="cls-16" d="M50.85,40.21c-1.3,2.68-3.13,9.77-2.51,11.15.19.42,3.89.35,4-.13.34-1.49,1.07-3.36,1.39-4.93C54.27,43.66,51.69,38.47,50.85,40.21Z"/><path class="cls-17" d="M60.81,67.44c0,.06,0,.22,0,.45,0,.39,0,1,0,1.74-.05,2.71-.15,7.06-.29,8.24-.22,1.75-.85,7.29-.85,7.29s.47,4.85.37,5.77c-.28,2.68-.34,5.3-.34,5.3s-.17,5-.16,6.84a.44.44,0,0,1,.22.38.45.45,0,0,1-.18.36c0,.18.09.39.15.61.11.37.24.78.37,1.17l.2.65a2.28,2.28,0,0,1,.15,1,2.91,2.91,0,0,1-.49.64s.2,2.14-.7,2.84a5.22,5.22,0,0,1-4.73.37c-1.9-.71.24-2.13.45-3.06a7.65,7.65,0,0,1,.56-1.45h0a6.91,6.91,0,0,0,.43-1h0a6.28,6.28,0,0,0,.12-.83c.06-.78.06-1.73.12-2,.58-2.59-1.92-6.71-1.62-11.85.17-3,.76-4.89.7-6-.09-2-.82-4.76-1.18-7.52a66.72,66.72,0,0,1-.58-11h0a.45.45,0,0,0,0-.11c.24-1.63.46-2.68.54-3l0-.12a5.74,5.74,0,0,1,.21-1.53l0-.06c.09-.27.3-1,.53-1.76a1.39,1.39,0,0,1,.06-.19s0,0,0,0h0s0,0,0,0a3.88,3.88,0,0,0,.48,1.21A3.83,3.83,0,0,0,56.83,62a4.36,4.36,0,0,1,.92.63,13.23,13.23,0,0,1,1.44,2.31c.23.46.43.89.55,1.2a3.1,3.1,0,0,1,.11.32c.2.51.37.85,1,1"/><path class="cls-18" d="M67.2,108c.21.93,2.35,2.34.45,3.06a5.24,5.24,0,0,1-4.74-.37c-.89-.7-.69-2.84-.69-2.84a2.91,2.91,0,0,1-.49-.64,1.91,1.91,0,0,1,.11-.87h0c.07-.24.15-.51.24-.78s.26-.8.37-1.17c.06-.22.11-.43.15-.61a.45.45,0,0,1-.18-.35.44.44,0,0,1,.22-.39c0-1.85-.16-6.84-.16-6.84s-.06-2.62-.34-5.3c-.1-.92.37-5.77.37-5.77s-.63-5.54-.85-7.29c-.14-1.18-.24-5.55-.29-8.26,0-.72,0-1.33,0-1.72h0c0-.23,0-.39,0-.45.59-.14.76-.48.95-1l.12-.32c.12-.31.32-.74.55-1.2a13.23,13.23,0,0,1,1.44-2.31,4.36,4.36,0,0,1,.92-.63,3.83,3.83,0,0,0,1.44-1.18,3.88,3.88,0,0,0,.48-1.21h0v0c0,.08,0,.16.07.24.23.78.44,1.49.53,1.76,0,0,0,0,0,.06a5.74,5.74,0,0,1,.21,1.53l0,.12c.06.3.24,1.13.44,2.42,0,.22.07.46.11.71h0a66.72,66.72,0,0,1-.58,11c-.36,2.75-1.09,5.55-1.19,7.52,0,1.13.54,3,.71,6,.3,5.14-2.2,9.26-1.62,11.85.06.29.06,1.32.13,2.12a4.86,4.86,0,0,0,.11.71h0a8,8,0,0,0,.46,1.07A6.36,6.36,0,0,1,67.2,108"/><path class="cls-19" d="M62,105.44l-.13,1a2.54,2.54,0,0,0-.14,1.08,3.15,3.15,0,0,0,.49.7s-.21,2.3.69,3.06a4.88,4.88,0,0,0,4.71.39,1.52,1.52,0,0,0,.79-1.26,8.73,8.73,0,0,1-1.24-2,7.68,7.68,0,0,0-.55-1.55h0l-.4-1.06c0-.09.23-.33.29-.71-.14-.07-.29-.15-.44-.21a4.65,4.65,0,0,0-1.79-.36s-2.26.95-2.28,1"/><g class="cls-20"><rect class="cls-21" x="60.66" y="67.36" width="0.8" height="0.09"/></g><path class="cls-22" d="M61,29.83V46.6l-7,.48c1.54-.77-.51-.13-.51-.13,0-9,3.75-10.11,3.75-10.11.56,0,.92-.72,1.15-1.81,0-.16.07-.34.1-.52s.1-.63.13-1,0-.41.06-.62c.08-1,.1-2.15.1-3.21,0,0,1.23.12,2.22.12"/><path class="cls-22" d="M67.78,46.45s-.49-.87-.63-.8L61,46.6V29.83h0c1,0,2.23-.12,2.23-.12,0,1.05,0,2.16.11,3.18,0,.21,0,.41,0,.61s.08.69.13,1h0c0,.15,0,.27.07.4.24,1.16.61,1.94,1.18,1.94,0,0,4.56,1.09,4.38,7.64"/><path class="cls-19" d="M60.39,104.43a.93.93,0,0,1,0,.42c-.14.44-.32.53-.3.59l.13,1a2.72,2.72,0,0,1,.14,1.08,3.15,3.15,0,0,1-.49.7s.21,2.3-.69,3.06a4.88,4.88,0,0,1-4.71.39,1.54,1.54,0,0,1-.79-1.26,8.73,8.73,0,0,0,1.24-2,7.47,7.47,0,0,1,.55-1.55h0l.06-1.08a1.29,1.29,0,0,0,0-.68,3.55,3.55,0,0,1,.44-.21,4.65,4.65,0,0,1,1.79-.36Z"/><path class="cls-23" d="M56.61,111.53a5.94,5.94,0,0,1-2.12-.39c-.45-.17-.71-.38-.79-.66-.12-.46.27-1,.65-1.5a3,3,0,0,0,.56-1,6.86,6.86,0,0,1,.56-1.45l.06-1v0a1.16,1.16,0,0,0,0-.58v0l0,0c.15-.07.3-.14.44-.19a4.9,4.9,0,0,1,1.81-.35h2.58v0a.7.7,0,0,1,0,.42,1.38,1.38,0,0,1-.26.47s0,0,0,0l.12.88a2.33,2.33,0,0,1,.15,1,2.73,2.73,0,0,1-.49.64c0,.24.16,2.18-.71,2.86a4.41,4.41,0,0,1-2.65.76"/><path class="cls-23" d="M65.53,111.53a4.38,4.38,0,0,1-2.64-.76c-.87-.68-.73-2.62-.71-2.86a2.49,2.49,0,0,1-.49-.64,1.92,1.92,0,0,1,.11-.89l.16-1s0-.09-.05-.15-.08-.2-.13-.35a.48.48,0,0,1,.08-.32s0-.08.07-.13v0H64a5,5,0,0,1,2.09.46l.41.21,0,0v0c0,.09-.07.18-.1.25s-.07.16-.06.18l.32,1.12a5.79,5.79,0,0,1,.52,1.37,3.09,3.09,0,0,0,.57,1c.38.51.77,1,.64,1.5-.08.28-.33.49-.78.66a6,6,0,0,1-2.13.39"/><path class="cls-24" d="M64.58,106a20.89,20.89,0,0,0-2.75.47h-.07l0-.07.16-1a.51.51,0,0,0,0-.14,3.6,3.6,0,0,1-.14-.35.52.52,0,0,1,.08-.34s0-.08.07-.13a.82.82,0,0,0,.06-.25,2.19,2.19,0,0,0,0-.31,2,2,0,0,1,0-.77.59.59,0,0,0,0-.32.78.78,0,0,1,0-.24,3.39,3.39,0,0,1,.09-.63,3.44,3.44,0,0,0,.09-.68c.05-3.9,0-8.68-.15-10.23,0-.38-.09-2.36-.15-4.65-.09-3.31-.2-7.42-.32-8.42-.18-1.47-.25-6.81-.26-7.5a11.35,11.35,0,0,1-.07-1.21s0,0,0,0c0,.39,0,.22,0,.82s-.21,6.43-.39,7.88c-.14,1.18-.43,15-.51,22.85v1.11a3.51,3.51,0,0,0,.12.44l.11.31a1.59,1.59,0,0,1,0,.75,1.89,1.89,0,0,0,0,.39,2.22,2.22,0,0,0,.1.61v0a.77.77,0,0,1,0,.44,1.38,1.38,0,0,1-.26.47s0,0,0,.05l.13.93h-.06c-.1,0-1.09,0-1.91,0-.39,0-2.42-.08-2.87.36h0v-.05l.06-1v0a1.12,1.12,0,0,0,0-.57.13.13,0,0,1,0-.06,1.22,1.22,0,0,1,.1-.57,2,2,0,0,0,.14-.57,1.2,1.2,0,0,0-.06-.33,1.43,1.43,0,0,1,0-.71,4.09,4.09,0,0,0,.07-.69c0-.36,0-.74-.06-1.12a12.11,12.11,0,0,0-.48-2.6,25.63,25.63,0,0,1-.69-6A35.37,35.37,0,0,1,54.64,87v-.74A23,23,0,0,0,54.47,81v0c-.21-1.14-.43-2.32-.58-3.51a69.15,69.15,0,0,1-.61-10.85h0v-.18a.74.74,0,0,1,0-.12c.22-1.52.43-2.54.54-3a.89.89,0,0,0,0-.11,5.75,5.75,0,0,1,.22-1.57l0,0c.07-.25.27-.91.52-1.75v0l.08-.26.13,0h.06a3.92,3.92,0,0,1,.63,0H67.4l.12.39c.23.81.44,1.5.52,1.76l0,0a5.86,5.86,0,0,1,.23,1.58l0,.1c.09.39.26,1.22.45,2.43,0,.22.07.46.1.71l0,.18h0a69.07,69.07,0,0,1-.6,10.84c-.15,1.18-.37,2.34-.58,3.47l-.1,1.67a9.19,9.19,0,0,0-.08,3.36c.18,1-.13,3.54,0,5.15a22.53,22.53,0,0,1-.55,7.12,15.43,15.43,0,0,0-.51,3.19,2.26,2.26,0,0,0,.11.6,2,2,0,0,1,.12.61.59.59,0,0,1-.1.33.38.38,0,0,0,0,.31.75.75,0,0,1,0,.52,1.54,1.54,0,0,0,0,.47,1,1,0,0,0,.07.45c.07.14,0,.16,0,.28s.09.17.09.19-.07.18-.1.24a.74.74,0,0,0-.06.18l.34,1.18-.06,0a1.36,1.36,0,0,0-1.06-.66Z"/><path class="cls-25" d="M50.82,22.55c1-.26,2.09.68,2.53,2.1s0,2.77-.94,3-2.09-.67-2.53-2.09S49.86,22.81,50.82,22.55Z"/><path class="cls-26" d="M71.2,22.25c-1-.26-2.08.68-2.52,2.1s0,2.77.93,3,2.09-.69,2.53-2.1S72.16,22.51,71.2,22.25Z"/><path class="cls-27" d="M61.18,35.92c-2,0-5.71-1.87-7.23-3.89s-3.84-10.3-3.48-13.48,4-9.12,10.57-9.12,10.2,5.93,10.56,9.12S69.49,29.68,68,31.7,63.13,35.92,61.18,35.92Z"/><path class="cls-28" d="M60.32,26a10.15,10.15,0,0,1-.23,2.13c-.13.72-.52,1.41.17,1.69s1,.28,1.51-.11.39,0,.07.28a1.64,1.64,0,0,1-1.69.14c-.56-.37-.63-.05-.31-1.81S60.25,25.44,60.32,26Z"/><path class="cls-28" d="M57.87,30.92c.42,0,.53.5,1.9.52s2.61.2,3.17-.14.58-.18,1.14-.35.67.19-.08.33-.59,0-1.12.27a9.49,9.49,0,0,1-3.14.14,18.14,18.14,0,0,1-1.81-.39C57.46,31.22,57.35,30.83,57.87,30.92Z"/><path class="cls-28" d="M59.69,32.52a2.84,2.84,0,0,0,2.26.07c.62-.25.63-.07-.1.31a2.07,2.07,0,0,1-2,0C59.14,32.48,59.34,32.34,59.69,32.52Z"/><path class="cls-16" d="M64.27,36.53c1,.38,5.52,1.92,6,2.3s-1.81,8.73-2.1,13.76c-.27,4.51-.63,6.06-.5,7.76-4.72,0-6.75-.13-6.75-.13S60.82,42.93,61,41c0-.23.35-.47.6-.66C62.38,39.73,63.83,39.37,64.27,36.53Z"/><path class="cls-16" d="M57.38,36.61c-1,.39-5.8,2.82-6.34,3.21s3,8.83,3.23,13.86a65.17,65.17,0,0,1,.12,6.76c4.72,0,7-.11,7-.11S61,42.92,61,41C61,40.51,59.11,40.16,57.38,36.61Z"/><path class="cls-27" d="M71.58,63.67a3.3,3.3,0,0,0,.09,1.87,2.54,2.54,0,0,1-1.86,2.79,2.4,2.4,0,0,1-2.62-.84c-.37-1.28,2.07.18,2.14.14.48-.28.13-3.09-.21-2.25s-1.05,1.7-1.81,1.51.68-1.19.7-2a1.72,1.72,0,0,1,1.52-1.58.41.41,0,0,0,.33-.19A5.82,5.82,0,0,1,71.58,63.67Z"/><path class="cls-29" d="M67.33,67.39c-.45-1,1.82.21,1.89.19.69-.19.23-3-.1-2.2s-.94,1.55-1.62,1.53l0,0a2.34,2.34,0,0,0,1.24-1.33c.2-.52.37-1.27.65-1.16.5.19.11,2.58.25,3.32.07.36-.56.36-1,.43S67,67.81,67.33,67.39Z"/><path class="cls-27" d="M69.23,67.59l.1,0c.25-.15.28-1,.2-1.6l1-.36-.19,2-1.14,0Z"/><path class="cls-29" d="M69.24,67.58c.34-.13.38-.92.3-1.55l.15-.06a14.07,14.07,0,0,0,0,1.69h-.44Z"/><path class="cls-14" d="M52.05,53c.17,1.21,1.09,9.85,1.24,10.22-1,.28-.61-.06-1.63.65C51.3,63.15,47.49,52.52,49,52,50.86,51.31,51.87,51.8,52.05,53Z"/><path class="cls-27" d="M51.57,63.67a3.21,3.21,0,0,1-.09,1.87,2.54,2.54,0,0,0,1.86,2.79A2.4,2.4,0,0,0,56,67.49c.37-1.28-2.07.18-2.14.14-.48-.28-.13-3.09.21-2.25s1.06,1.7,1.81,1.51-.68-1.19-.7-2a1.72,1.72,0,0,0-1.52-1.58.41.41,0,0,1-.33-.19A5.82,5.82,0,0,0,51.57,63.67Z"/><path class="cls-29" d="M55.83,67.39c.44-1-1.83.21-1.9.19-.69-.19-.22-3,.1-2.2s.94,1.55,1.62,1.53l0,0a2.36,2.36,0,0,1-1.25-1.33c-.2-.52-.37-1.27-.65-1.16-.5.19-.11,2.58-.25,3.32-.07.36.57.36,1,.43S56.11,67.81,55.83,67.39Z"/><path class="cls-27" d="M53.92,67.59l-.1,0c-.25-.15-.27-1-.2-1.6l-1-.36.18,2,1.14,0Z"/><path class="cls-29" d="M53.92,67.58c-.35-.13-.39-.92-.31-1.55L53.47,66a16.08,16.08,0,0,1,0,1.69h.44Z"/><path class="cls-30" d="M65.2,36.22c2.36.85,2,1.9,2.27,2.79-2.41-2.56-4.81,1-6.48,1.86,1.41-1.62,2.9-3.25,3.21-4.26a2.63,2.63,0,0,1-.24-.42A2.66,2.66,0,0,1,65.2,36.22Z"/><path class="cls-30" d="M57.54,36.83c.31,1,2.05,2.42,3.45,4-1.67-.86-4.51-4.26-6.92-1.69a5.29,5.29,0,0,1,2.41-3.1,6.26,6.26,0,0,1,1.63-.24A2.51,2.51,0,0,1,57.54,36.83Z"/><path class="cls-31" d="M58.32,35.16a6.18,6.18,0,0,0,2.71.73S60,38.06,58.45,38.22a7.27,7.27,0,0,1-.91-1.39A3.74,3.74,0,0,0,58.32,35.16Z"/><path class="cls-32" d="M52,17.09A2.75,2.75,0,0,1,54.8,16a7.28,7.28,0,0,1,1.92.6s-6.31,11.14,3,19.18c0,0-3.8-1.69-4.66-2.6a10.86,10.86,0,0,1-2.79-5s-1.55-5.52-1.64-6.25C50.6,21.89,51.42,17,52,17.09Z"/><path class="cls-4" d="M58.55,24.2a2.28,2.28,0,0,1,0,.47c0,.17-.08.27,0,.34s.08.12,0,.18-.1,0-.18,0a3.69,3.69,0,0,1-1.64.36,5.28,5.28,0,0,1-1.88-.41,1.42,1.42,0,0,1-.44-.28c-.16-.16-.6-.39-.57-.56a2.42,2.42,0,0,1,1.11-1c.5-.17,3.06-.68,3.29-.32A2.31,2.31,0,0,1,58.55,24.2Z"/><path class="cls-33" d="M56.49,24.31a0,0,0,0,1,0,0Z"/><path class="cls-34" d="M56.49,23a1.25,1.25,0,1,0,1.26,1.25A1.25,1.25,0,0,0,56.49,23Z"/><g class="cls-35"><path class="cls-4" d="M57.75,24.28a1.26,1.26,0,0,1-2.51,0,2.77,2.77,0,0,0,1.25.64A2.76,2.76,0,0,0,57.75,24.28Z"/></g><g class="cls-35"><path class="cls-4" d="M57.6,24.42a1.13,1.13,0,0,1-2.22,0,2.71,2.71,0,0,0,1.11.46A2.64,2.64,0,0,0,57.6,24.42Z"/></g><g class="cls-36"><path class="cls-33" d="M57.75,24.28c0,.69-.56-.64-1.26-.64s-1.25,1.33-1.25.64a1.26,1.26,0,0,1,2.51,0Z"/></g><path d="M57.13,24.28a.64.64,0,0,1-.64.64.64.64,0,0,1,0-1.28A.64.64,0,0,1,57.13,24.28Z"/><path class="cls-4" d="M57.64,23.75a.48.48,0,0,1-1,0,.48.48,0,1,1,1,0Z"/><path class="cls-4" d="M56.2,24.58c.1.14,0,.37-.21.52s-.47.16-.57,0,0-.37.21-.52S56.1,24.44,56.2,24.58Z"/><path class="cls-37" d="M56.38,24.62c.09.14,0,.37-.22.52s-.46.16-.56,0,0-.37.21-.52S56.28,24.48,56.38,24.62Z"/><path class="cls-38" d="M57.54,23.85a.48.48,0,0,1-.48.47.47.47,0,1,1,0-.94A.48.48,0,0,1,57.54,23.85Z"/><path class="cls-39" d="M54.82,25.19l-.44-.77s.47-.56.74-.63a8.88,8.88,0,0,1,2.78-.22c.32.22.57.31.65.63,0,0,0-.81-.27-1.06a6.17,6.17,0,0,0-3.42.3c-.85.43-1.07.78-1,.93A4.74,4.74,0,0,0,54.82,25.19Z"/><path class="cls-40" d="M57.5,22.73a9.38,9.38,0,0,0-2.62.51l-.17.08-.28.19a3.28,3.28,0,0,0-.48.42,2,2,0,0,0-.19.22.25.25,0,0,0,0,.07l0,0h0v0s0,0,0,0h0v0h0v0s0,0,0,0h0v0h0l0,0,.05.06.2.16.18.13.3.19.21.12.16.06-.08-.05-.23-.21-.26-.24a1.1,1.1,0,0,1-.16-.15l-.17-.16v0h0l0-.05c0-.06.12-.12.19-.19l.45-.38.26-.17.12-.07H55l.09,0,.52-.13a7.45,7.45,0,0,1,2.29-.2,1.12,1.12,0,0,1,.59.79.45.45,0,0,1,0,.11,1.76,1.76,0,0,1,0,.18l0-.1V24c0-.06,0-.13,0-.23a1.48,1.48,0,0,0-.08-.36v0c0-.12.12-.18.14-.3S58.47,22.77,57.5,22.73Zm-3.61,1.6Z"/><path class="cls-4" d="M63.16,24.14a2.39,2.39,0,0,0,0,.48c0,.17.08.27,0,.34s-.08.11,0,.18.1,0,.18.05a3.69,3.69,0,0,0,1.64.36,5.28,5.28,0,0,0,1.88-.41,1.31,1.31,0,0,0,.44-.28c.16-.17.6-.39.57-.56a2.36,2.36,0,0,0-1.11-.95c-.5-.17-3.06-.68-3.29-.32A2.31,2.31,0,0,0,63.16,24.14Z"/><path class="cls-33" d="M65.09,24.26a0,0,0,0,1,0,0Z"/><path class="cls-34" d="M65.09,23a1.26,1.26,0,1,0,1.26,1.26A1.26,1.26,0,0,0,65.09,23Z"/><g class="cls-35"><path class="cls-4" d="M66.35,24.23a1.26,1.26,0,0,1-2.51,0,2.77,2.77,0,0,0,1.25.64A2.76,2.76,0,0,0,66.35,24.23Z"/></g><g class="cls-35"><path class="cls-4" d="M66.2,24.37a1.13,1.13,0,0,1-2.22,0,2.71,2.71,0,0,0,1.11.46A2.64,2.64,0,0,0,66.2,24.37Z"/></g><g class="cls-36"><path class="cls-33" d="M66.35,24.23c0,.69-.56-.64-1.26-.64s-1.25,1.33-1.25.64a1.26,1.26,0,1,1,2.51,0Z"/></g><path d="M65.73,24.23a.64.64,0,1,1-.64-.64A.64.64,0,0,1,65.73,24.23Z"/><path class="cls-4" d="M66.24,23.7a.48.48,0,1,1-.47-.48A.47.47,0,0,1,66.24,23.7Z"/><path class="cls-4" d="M64.8,24.53c.1.14,0,.37-.21.52s-.47.16-.57,0,0-.37.21-.52S64.7,24.39,64.8,24.53Z"/><path class="cls-37" d="M65,24.57c.09.14,0,.37-.22.52s-.46.16-.56,0,0-.37.21-.52S64.88,24.43,65,24.57Z"/><path class="cls-38" d="M66.14,23.8a.48.48,0,0,1-1,0,.48.48,0,1,1,1,0Z"/><path class="cls-39" d="M66.89,25.14l.44-.77s-.47-.56-.74-.63a8.88,8.88,0,0,0-2.78-.22c-.32.22-.57.31-.65.62,0,0,0-.8.27-1.05a6.17,6.17,0,0,1,3.42.3c.85.43,1.07.78,1,.93S67,25.11,66.89,25.14Z"/><path class="cls-40" d="M63.12,23.05c0,.12.12.18.13.3v0a2,2,0,0,0-.08.36c0,.1,0,.17,0,.23v.08l0,.09c0-.17,0-.12,0-.17s0-.07,0-.11a1.12,1.12,0,0,1,.59-.79,7.53,7.53,0,0,1,2.3.2l.52.13.08,0h.06l.12.07.26.17c.16.12.31.26.45.38l.19.19,0,.05h0v0l-.17.16a1.1,1.1,0,0,1-.16.15l-.26.24-.23.21-.08.05.16-.06.21-.12.3-.19.18-.13a1.51,1.51,0,0,0,.2-.17l.06,0v0h0v0h0a0,0,0,0,0,0,0v0h0v0h0l0,0,0-.07a2,2,0,0,0-.19-.22,3.8,3.8,0,0,0-.47-.42,2.9,2.9,0,0,0-.29-.19l-.17-.08a9.38,9.38,0,0,0-2.62-.51C63.24,22.72,63.09,22.92,63.12,23.05Zm4.7,1.23Z"/><path class="cls-41" d="M63.42,22.4a13.78,13.78,0,0,1,3.81-.2c1.22.23,1.56-.13.12-.67A9,9,0,0,0,63.46,21C62.24,21.11,62.4,22.49,63.42,22.4Z"/><path class="cls-41" d="M58.05,22.4a13.87,13.87,0,0,0-3.82-.2c-1.22.23-1.56-.13-.11-.67A8.92,8.92,0,0,1,58,21C59.22,21.11,59.06,22.49,58.05,22.4Z"/><path class="cls-42" d="M50.79,22.66c-.6-2.42-1.36-7.39-.47-8.29.62-.61.06-.14,0-1,0-1.21,3.94-4.5,7.71-4.5s8,1.33,10.55,2,2.39.47,3.14.09-.74,1.83,0,2.94c1,1.49.14,3.81-.4,8.18-.15,1.18-.94,1.31-.93.16.1-6.43-1-6.63-4.88-6.2s-4.11.09-9.14-.18c-4.6-.25-4.4,2.53-4.89,6.63C51.46,22.76,51,23.44,50.79,22.66Z"/><path class="cls-43" d="M60.68,10s.2-1.23,9.25,2a1.26,1.26,0,0,1,.75.14s.07.75-6.51-.82c0,0-3.49-1.1-4.25.06A1,1,0,0,1,60.68,10Z"/><path class="cls-43" d="M51.09,14.44s-1,.61-.62,4.11l.27,2.19s-.61-5.27.82-5.89Z"/><path class="cls-43" d="M52,15.19l.82.5s-1.37.51-1.46,2.75l0,1.82s-.64-3.7.32-4.79C51.59,15.47,51.75,15.12,52,15.19Z"/><rect class="cls-23" x="54.35" y="59.81" width="13.52" height="1.26"/><path class="cls-44" d="M62.31,60.32a.66.66,0,0,1-.65.66h-1.5a.67.67,0,0,1-.66-.66h0a.67.67,0,0,1,.66-.66h1.5a.66.66,0,0,1,.65.66Z"/><path class="cls-30" d="M54,46.16a2.6,2.6,0,0,0,.14-1.27c-.06-1.38-.13-1.84-.17-1.69a13.7,13.7,0,0,0-.35,3.16A15.86,15.86,0,0,1,52.39,50a3.35,3.35,0,0,0-.5,1.4c.1-.06.24.07.29-.06C52.89,49.66,53.35,48.14,54,46.16Z"/><path class="cls-30" d="M68.66,45.49c0-.78,0-.46,0-1,.06-1.39.74-3.07.44-1.85a12.71,12.71,0,0,0,.23,3.87,15.8,15.8,0,0,0,1.26,3.64,3.43,3.43,0,0,1,.5,1.41,1,1,0,0,1-.28-.26C70.23,50.54,69.34,47.47,68.66,45.49Z"/><path class="cls-45" d="M69.8,20a6.91,6.91,0,0,0-1.18-.36c-.26-.06-.54-.11-.83-.15a19.51,19.51,0,0,0-2.56-.18s0,0-.06,0H56.94l-1.18,0c-2.57.15-4.37.79-4.56,1.67V24.9a2.51,2.51,0,0,0,1.09,1.81,5.46,5.46,0,0,0,2.26.93c.26.05.55.09.85.12l.15,0a2.83,2.83,0,0,0,1.64-1l.06-.07,1.87-2.24a2.61,2.61,0,0,1,2-.95,2.55,2.55,0,0,1,1.74.72,2,2,0,0,1,.22.23l1.51,1.81.36.42a2.85,2.85,0,0,0,.23.26,3,3,0,0,0,1,.66,2.25,2.25,0,0,0,.44.11C71,27.38,71,24.93,71,24.91V21C70.89,20.63,70.47,20.28,69.8,20Z"/><path class="cls-4" d="M57.43,19.32h-.49l-1.18,0-3.47,7.36a5.46,5.46,0,0,0,2.26.93l3.92-8.32Z"/><path class="cls-4" d="M59.37,19.32l-4,8.44.15,0a2.83,2.83,0,0,0,1.64-1l3.53-7.51Z"/><path class="cls-4" d="M63.05,24.52l1.51,1.81,3.23-6.84a19.51,19.51,0,0,0-2.56-.18s0,0-.06,0l-2.34,5A2,2,0,0,1,63.05,24.52Z"/><path class="cls-4" d="M66.19,27.67,69.8,20a6.91,6.91,0,0,0-1.18-.36L65.15,27A3,3,0,0,0,66.19,27.67Z"/><path class="cls-46" d="M72.67,20.82c-.41-2.8-4.84-3.21-7.44-3.21H56.94c-2.6,0-7,.42-7.44,3.21v4.06c0,.05,0,4.1,6,4.61h.12a4.42,4.42,0,0,0,3-1.65l1.88-2.25a1,1,0,0,1,.64-.31.92.92,0,0,1,.62.3L62,26l1.56,1.86a1.63,1.63,0,0,0,.17.2,4.38,4.38,0,0,0,2.8,1.46h.12c6-.51,6-4.57,6-4.59V20.82ZM71,24.91s0,2.47-4.34,2.87a2.25,2.25,0,0,1-.44-.11,3,3,0,0,1-1-.66,2.85,2.85,0,0,1-.23-.26l-.36-.42-1.51-1.81a2,2,0,0,0-.22-.23,2.55,2.55,0,0,0-1.74-.72,2.61,2.61,0,0,0-2,.95l-1.87,2.24-.06.07a2.83,2.83,0,0,1-1.64,1l-.15,0c-.3,0-.59-.07-.85-.12a5.46,5.46,0,0,1-2.26-.93A2.51,2.51,0,0,1,51.2,24.9V21c.19-.88,2-1.52,4.56-1.67l1.18,0h8.23s0,0,.06,0a19.51,19.51,0,0,1,2.56.18c.29,0,.57.09.83.15A6.91,6.91,0,0,1,69.8,20c.67.28,1.09.63,1.17,1Z"/><path class="cls-47" d="M24.26,17c.87-1.49,0-4.7,0-4.7-1.31-2.74-5.12-2.77-6-2.73s-4.69,0-6,2.73c0,0-.87,3.21,0,4.7a1.37,1.37,0,0,0-1.61,1.23s.5,4,2.35,3.47A9.57,9.57,0,0,0,13.74,24s1.74,2.84,2.73,3.09a9.64,9.64,0,0,0,1.6.24h.38a9.64,9.64,0,0,0,1.6-.24c1-.25,2.73-3.09,2.73-3.09a9.57,9.57,0,0,0,.74-2.35c1.85.49,2.35-3.47,2.35-3.47A1.37,1.37,0,0,0,24.26,17Z"/><path class="cls-47" d="M12.11,16.11a5.24,5.24,0,0,0,2-1.61A1.53,1.53,0,0,1,16.2,14a3.61,3.61,0,0,0,4.08.24c2.1-1.23,2-1,2.23.13,0,0,.37,1.85,1.36,1.73"/><path class="cls-4" d="M24.37,18.92s0,1.56-2.74,1.81l-.27-.07a1.69,1.69,0,0,1-.65-.42,1.14,1.14,0,0,1-.15-.16l-.23-.27-.95-1.14a.88.88,0,0,0-.14-.14,1.57,1.57,0,0,0-1.1-.45,1.6,1.6,0,0,0-1.23.59l-1.19,1.41,0,.05a1.78,1.78,0,0,1-1,.6h-.09L14,20.64a3.37,3.37,0,0,1-1.43-.59,1.59,1.59,0,0,1-.69-1.14V16.47c.13-.55,1.26-1,2.87-1.06l.75,0h5.22a11.11,11.11,0,0,1,1.61.11l.53.1a5.07,5.07,0,0,1,.74.22c.42.18.69.4.74.65Z"/><path class="cls-48" d="M40,85.45h-7a.73.73,0,0,0-.73.73v7a.73.73,0,0,0,.73.73h7a.73.73,0,0,0,.73-.73v-7A.73.73,0,0,0,40,85.45Zm-.64,6.33a.73.73,0,0,1-.73.73H34.44a.73.73,0,0,1-.73-.73V87.55a.73.73,0,0,1,.73-.73h4.23a.73.73,0,0,1,.73.73Z"/><path class="cls-10" d="M38.67,86.82H34.44a.73.73,0,0,0-.73.73v.22a.73.73,0,0,1,.73-.73h4.23a.73.73,0,0,1,.73.73v-.22A.73.73,0,0,0,38.67,86.82Z"/><path class="cls-49" d="M33.18,85.81h6.75a.7.7,0,0,1,.7.7v-.22a.7.7,0,0,0-.7-.7H33.18a.7.7,0,0,0-.7.7v.22A.7.7,0,0,1,33.18,85.81Z"/><path class="cls-50" d="M29.22,87.89H24.27a.52.52,0,0,0-.52.52v5a.52.52,0,0,0,.52.52h4.95a.52.52,0,0,0,.52-.52v-5A.52.52,0,0,0,29.22,87.89Zm-.45,4.5a.53.53,0,0,1-.52.52h-3a.52.52,0,0,1-.52-.52v-3a.52.52,0,0,1,.52-.52h3a.52.52,0,0,1,.52.52Z"/><path class="cls-10" d="M28.25,88.87h-3a.52.52,0,0,0-.52.52v.15a.52.52,0,0,1,.52-.52h3a.53.53,0,0,1,.52.52v-.15A.52.52,0,0,0,28.25,88.87Z"/><path class="cls-51" d="M24.35,88.14h4.79a.51.51,0,0,1,.51.51v-.16a.5.5,0,0,0-.51-.5H24.35a.5.5,0,0,0-.5.5v.16A.51.51,0,0,1,24.35,88.14Z"/><path class="cls-52" d="M48.8,87.89h-5a.52.52,0,0,0-.52.52v5a.52.52,0,0,0,.52.52h5a.52.52,0,0,0,.52-.52v-5A.52.52,0,0,0,48.8,87.89Zm-.46,4.5a.52.52,0,0,1-.52.52h-3a.52.52,0,0,1-.52-.52v-3a.52.52,0,0,1,.52-.52h3a.52.52,0,0,1,.52.52Z"/><path class="cls-10" d="M47.82,88.87h-3a.52.52,0,0,0-.52.52v.15a.52.52,0,0,1,.52-.52h3a.52.52,0,0,1,.52.52v-.15A.52.52,0,0,0,47.82,88.87Z"/><path class="cls-53" d="M43.92,88.14h4.8a.51.51,0,0,1,.5.51v-.16a.5.5,0,0,0-.5-.5h-4.8a.5.5,0,0,0-.5.5v.16A.51.51,0,0,1,43.92,88.14Z"/><rect class="cls-54" x="20.86" y="88.69" width="31.45" height="22.69" rx="0.73"/><rect class="cls-55" x="21.74" y="89.57" width="29.7" height="20.94" rx="0.73"/><rect class="cls-56" x="24.37" y="92.2" width="24.44" height="15.68" rx="0.73"/><rect class="cls-57" x="24.76" y="92.59" width="23.66" height="14.9" rx="0.73"/><path class="cls-58" d="M21.74,90.3a.73.73,0,0,1,.73-.73H48.08l.42-.88H21.59a.73.73,0,0,0-.73.73v16.83c.3,0,.59-.06.88-.09Z"/><path class="cls-59" d="M21.74,90.3v15.86c.89-.11,1.77-.24,2.63-.4V92.93a.73.73,0,0,1,.73-.73H46.53a25.88,25.88,0,0,0,1.55-2.63H22.47A.73.73,0,0,0,21.74,90.3Z"/><path class="cls-60" d="M24.76,93.32a.73.73,0,0,1,.73-.73H46.26l.27-.39H25.1a.73.73,0,0,0-.73.73v12.83l.39-.07Z"/><path class="cls-61" d="M51.59,88.69H49.32v-.28a.52.52,0,0,0-.52-.52h-5a.52.52,0,0,0-.52.52v.28H40.77V86.18a.73.73,0,0,0-.73-.73h-7a.73.73,0,0,0-.73.73v2.51h-2.6v-.28a.52.52,0,0,0-.52-.52H24.27a.52.52,0,0,0-.52.52v.28H21.59a.73.73,0,0,0-.73.73v21.23a.73.73,0,0,0,.73.73h30a.73.73,0,0,0,.73-.73V89.42A.73.73,0,0,0,51.59,88.69Zm-17.88-.92a.73.73,0,0,1,.73-.73h4.23a.73.73,0,0,1,.73.73v.92H33.71Z"/><path class="cls-11" d="M49.38,115.71c-19.77,0-35.9-1.7-35.9-3.79s16.13-3.8,35.9-3.8,35.9,1.71,35.9,3.8S69.15,115.71,49.38,115.71Z"/></g></g></g></svg>