<svg xmlns="http://www.w3.org/2000/svg" xmlns:xlink="http://www.w3.org/1999/xlink" viewBox="0 0 72.35 223.49"><defs><style>.cls-1{isolation:isolate;}.cls-2{fill:#939598;opacity:0.5;}.cls-12,.cls-2,.cls-21,.cls-39{mix-blend-mode:multiply;}.cls-3{fill:#e8801f;}.cls-4{fill:#3e3e3f;}.cls-5{fill:#fbb245;}.cls-6{fill:#fcc246;}.cls-7{fill:#facb48;}.cls-8{fill:#fbdc48;}.cls-9{fill:#f1c594;}.cls-10{fill:#fff;}.cls-11{fill:#757779;}.cls-12,.cls-21{fill:#727275;}.cls-12{opacity:0.21;}.cls-13{fill:#eea980;}.cls-14{fill:#782305;}.cls-15{fill:#691b00;}.cls-16{fill:#762204;}.cls-17{fill:#7a7c7f;}.cls-18{fill:#6d6e70;}.cls-19{fill:#20474e;}.cls-20{fill:#59595b;}.cls-21{opacity:0.41;}.cls-22{fill:#81290c;}.cls-23{fill:#949699;}.cls-24{fill:#e3e3e4;}.cls-25{fill:#f1f1f2;}.cls-26{fill:#e57b1f;}.cls-27{fill:gray;}.cls-28{fill:#5c80a3;}.cls-29{fill:#1d3548;}.cls-30{fill:#231f20;}.cls-31{fill:#f08b8c;}.cls-32{fill:#f2a1a5;}.cls-33{fill:#d6d6d6;}.cls-34{fill:url(#linear-gradient);}.cls-35{fill:url(#linear-gradient-2);}.cls-36{fill:url(#linear-gradient-3);}.cls-37{fill:#1b2727;}.cls-38{fill:#343f3f;}.cls-39{fill:#152121;opacity:0.52;}.cls-40{fill:url(#radial-gradient);}.cls-41{fill:#f6f4e1;}.cls-42{fill:url(#linear-gradient-4);}.cls-43{fill:#192027;}.cls-44{fill:#d16c58;}.cls-45{fill:#de775d;}.cls-46{fill:#ffa07a;}.cls-47{fill:#f28e66;}.cls-48{fill:#ff976e;}.cls-49{fill:#ffae78;}</style><linearGradient id="linear-gradient" x1="15810.31" y1="6717.86" x2="15805.02" y2="6715.02" gradientTransform="matrix(-0.72, -0.7, -0.7, 0.72, 16043.75, 6306.02)" gradientUnits="userSpaceOnUse"><stop offset="0" stop-color="#3c4546"/><stop offset="1" stop-color="#142020"/></linearGradient><linearGradient id="linear-gradient-2" x1="15815.29" y1="6718.98" x2="15807.49" y2="6717.34" xlink:href="#linear-gradient"/><linearGradient id="linear-gradient-3" x1="15804.19" y1="6720.96" x2="15815.39" y2="6718.57" gradientTransform="matrix(-0.72, -0.7, -0.7, 0.72, 16043.75, 6306.02)" gradientUnits="userSpaceOnUse"><stop offset="0" stop-color="#0d1414"/><stop offset="0.15" stop-color="#3c4546"/><stop offset="0.39" stop-color="#0d1414"/><stop offset="0.74" stop-color="#3c4546"/><stop offset="1" stop-color="#0d140e"/></linearGradient><radialGradient id="radial-gradient" cx="15810.36" cy="6717.87" r="5.38" gradientTransform="matrix(-0.72, -0.7, -0.44, 0.46, 14342.27, 8065.01)" gradientUnits="userSpaceOnUse"><stop offset="0" stop-color="#b6d76d"/><stop offset="1" stop-color="#54c050"/></radialGradient><linearGradient id="linear-gradient-4" x1="15806.75" y1="6719.99" x2="15806.38" y2="6720.21" xlink:href="#linear-gradient"/></defs><g class="cls-1"><g id="Capa_2" data-name="Capa 2"><g id="Capa_1-2" data-name="Capa 1"><ellipse class="cls-2" cx="42.05" cy="217.91" rx="30.3" ry="5.57"/><path class="cls-3" d="M14.67,166.77l0,0,0,0Z"/><path class="cls-4" d="M10.93,169.87c.14-.69.38-1.47,1.18-1.6.41-.06,0-1.16.09-1.42s.21-.3.4-.2,0,.17-.07.12c-.26-.12-.16.54-.16.58l.06.56c0,.12.06.37-.1.44s-.55.14-.79.39a2.16,2.16,0,0,0-.47,1.17C11.05,170,10.91,170,10.93,169.87Z"/><path class="cls-4" d="M9.8,172.46a.9.9,0,0,1,.2-.14c.15-.09.12-.29.14-.43a1.36,1.36,0,0,1,.14-.33,1.06,1.06,0,0,0,.09-.61.07.07,0,0,1,.15,0,1.25,1.25,0,0,1-.06.58,3.42,3.42,0,0,0-.17.4c0,.13,0,.25-.06.38s-.32.24-.41.32a1.64,1.64,0,0,0-.51,1c0,.1-.16.1-.14,0A1.76,1.76,0,0,1,9.8,172.46Z"/><path class="cls-4" d="M11,173.07a2,2,0,0,0,.61-1.45,2.76,2.76,0,0,1,.37-1.29A7,7,0,0,0,13,169a2.09,2.09,0,0,1,.26-.57c.18-.26.69-.61.36-1-.06-.07,0-.18.1-.1.3.34.06.73-.19,1a3.83,3.83,0,0,0-.49.94,3.8,3.8,0,0,1-.5.71,2.56,2.56,0,0,0-.62,1,4.85,4.85,0,0,0-.13.93,1.89,1.89,0,0,1-.66,1.35C11,173.25,10.94,173.12,11,173.07Z"/><path class="cls-4" d="M10.33,174.38c.18-.17.14-.47.37-.62s.15.08.07.13a.67.67,0,0,0-.18.32.5.5,0,0,1-.16.27C10.37,174.54,10.26,174.44,10.33,174.38Z"/><path class="cls-4" d="M12.14,172.74a7.13,7.13,0,0,1,.89-1.23,3.59,3.59,0,0,0,.37-.85c.11-.28.49-.67.26-1-.06-.07,0-.17.1-.1a.51.51,0,0,1,.1.49,1.25,1.25,0,0,1-.22.41,4.22,4.22,0,0,0-.26.67c-.24.64-.84,1-1.11,1.65C12.23,172.9,12.1,172.83,12.14,172.74Z"/><path class="cls-4" d="M11.2,175.65a6.71,6.71,0,0,0,.19-.89c0-.15,0-.37.11-.49a.28.28,0,0,1,.15-.11c.09-.06.08-.25.1-.35a.36.36,0,0,1,.11-.16.93.93,0,0,0,.2-.44c0-.1.17-.06.14,0s0,.31-.16.46-.1.39-.24.52-.18.07-.24.28a2.72,2.72,0,0,0,0,.39,7.13,7.13,0,0,1-.18.8C11.32,175.78,11.18,175.74,11.2,175.65Z"/><path class="cls-4" d="M12.53,176.12a5.32,5.32,0,0,1,.51-1,2.93,2.93,0,0,0,.22-.65,3.68,3.68,0,0,1,.21-.45c0-.08.17,0,.13.08-.18.31-.22.69-.39,1a9.74,9.74,0,0,0-.54,1.07C12.64,176.25,12.49,176.21,12.53,176.12Z"/><path class="cls-5" d="M4.42,182a1.55,1.55,0,0,0,.2.77c.34.47,1,.4,1.61.24a11,11,0,0,0,6.29-4.31A15.45,15.45,0,0,0,14,175.48q.83-2.26,1.47-4.58a3.63,3.63,0,0,0,.19-1.56,1.31,1.31,0,0,0-1-1.13,1.84,1.84,0,0,0-1.32.44,24.68,24.68,0,0,0-5,4.37,25.22,25.22,0,0,0-3.67,5.57,3.22,3.22,0,0,0-.38,1.48Q4.36,181,4.42,182Z"/><path class="cls-6" d="M4.55,182.1a.93.93,0,0,0,.43.66.86.86,0,0,0,.45,0A9.08,9.08,0,0,0,11.18,180c2-2.14,2.87-5.11,3.57-8a13,13,0,0,0,.34-1.76,2.41,2.41,0,0,0-.07-1.07,1,1,0,0,0-.78-.69,1.43,1.43,0,0,0-.9.26,11.5,11.5,0,0,0-1.19.77,22.27,22.27,0,0,0-2.76,2.56,22.76,22.76,0,0,0-4.6,6.15A5.9,5.9,0,0,0,4.55,182.1Z"/><path class="cls-5" d="M14,168.59a1.86,1.86,0,0,1,.24,1.18,6.71,6.71,0,0,1-1,2.77,37.49,37.49,0,0,1-2.9,4.36A7,7,0,0,1,9,178.28a7.63,7.63,0,0,1-1.75.9,13.3,13.3,0,0,1-1.33.49,1.64,1.64,0,0,1-.58.09,1.76,1.76,0,0,1-1.07-.58,7.7,7.7,0,0,1-1.93-3.11,6.84,6.84,0,0,1-.23-.89,7.5,7.5,0,0,1,.25-3.76,4.51,4.51,0,0,1,.85-1.49c.52-.6,1-1.21,1.54-1.81a8.51,8.51,0,0,1,.71-.76,5.22,5.22,0,0,1,4.11-.85,8.17,8.17,0,0,1,.84.14,8.06,8.06,0,0,1,3,1.43l0,0A1.87,1.87,0,0,1,14,168.59Z"/><path class="cls-7" d="M10.4,166.65a8.22,8.22,0,0,1,.83.84,5.59,5.59,0,0,1,1.13,4,8,8,0,0,1-1.57,3.92,7.49,7.49,0,0,1-2.32,2.13,4.72,4.72,0,0,1-3.05.58,4.29,4.29,0,0,1-1.57-.63,5.27,5.27,0,0,1-1.52-1.43,6.84,6.84,0,0,1-.23-.89,7.5,7.5,0,0,1,.25-3.76,4.51,4.51,0,0,1,.85-1.49c.52-.6,1-1.21,1.54-1.81a8.51,8.51,0,0,1,.71-.76,5.22,5.22,0,0,1,4.11-.85A8.17,8.17,0,0,1,10.4,166.65Z"/><path class="cls-5" d="M6.55,166.7a4.78,4.78,0,0,0-1.69,2.15,7.21,7.21,0,0,0-.46,2.72,5.92,5.92,0,0,0,.39,2.09A6.38,6.38,0,0,0,6.56,176c.73.64,1.54,1.19,2.29,1.81a1.29,1.29,0,0,1,.4.47.84.84,0,0,1-.21.82,1.19,1.19,0,0,1-.46.33c-.48.18-1,.39-1.45.53s-.77.34-1.18.48-.7-.23-1-.53a9.87,9.87,0,0,1-2.08-8.29A8.64,8.64,0,0,1,3.36,170a6.46,6.46,0,0,1,2.25-2.79l.15-.11a4.3,4.3,0,0,1,.71-.36Z"/><path class="cls-5" d="M9.89,166.4c.15.27-.3.38-.46.51a2.78,2.78,0,0,0-.6.72,5.16,5.16,0,0,0-.62,1.75,7.17,7.17,0,0,0,0,3.16,8.5,8.5,0,0,1,.32,1.2.45.45,0,0,1,0,.23.45.45,0,0,1-.19.17l-.55.29c-.13.07-.33.26-.48.25s-.33-.26-.43-.44l-.06-.08a5,5,0,0,1-.66-3.23,7.14,7.14,0,0,1,1.29-3.63,2.8,2.8,0,0,1,.83-.78A2,2,0,0,1,9,166.2a1.61,1.61,0,0,1,.67.06A.38.38,0,0,1,9.89,166.4Z"/><path class="cls-8" d="M9.69,166.26v.07a5.34,5.34,0,0,0-.48.24l-.33.35a5.84,5.84,0,0,0-1.29,3.64,5.48,5.48,0,0,0,0,.81,5.91,5.91,0,0,0,.43,2,.54.54,0,0,1,.06.25c-.05.37-.76.65-1.08.63a.3.3,0,0,1-.15,0l-.06-.08a5,5,0,0,1-.66-3.23,7.14,7.14,0,0,1,1.29-3.63,2.8,2.8,0,0,1,.83-.78A2,2,0,0,1,9,166.2,1.61,1.61,0,0,1,9.69,166.26Z"/><path class="cls-8" d="M5.61,167.21l-.09.12a6.59,6.59,0,0,0-1.32,4.35A6.92,6.92,0,0,0,5.13,175a11.06,11.06,0,0,0,1.24,1.58A13.23,13.23,0,0,0,7.8,178a7.91,7.91,0,0,1,1.14.94.71.71,0,0,1,.1.14,1.19,1.19,0,0,1-.46.33c-.48.18-1,.39-1.45.53s-.77.34-1.18.48-.7-.23-1-.53a9.87,9.87,0,0,1-2.08-8.29A8.64,8.64,0,0,1,3.36,170,6.46,6.46,0,0,1,5.61,167.21Z"/><path class="cls-9" d="M10.14,166.77l0,0,1.61.8c.64.28,1.28.53,1.86.78l.32.14,0,0a4.42,4.42,0,0,0,.36-1.08,3.2,3.2,0,0,1,.69-1.2c.26-.28.56-.51.82-.78a4,4,0,0,0,.71-1.06c.12-.3.43-.67.35-1a.63.63,0,0,0-.57-.43,1.49,1.49,0,0,0-.74.15,3.41,3.41,0,0,0-1.15.67,8.74,8.74,0,0,0-.81,1c-.62.78-1.41.87-2.28,1.23a4.6,4.6,0,0,0-1,.57l-.28.22Z"/><path class="cls-10" d="M22.27,145.79a19.61,19.61,0,0,0,.24-4.4,1.13,1.13,0,0,0-.11-.55.76.76,0,0,0-.48-.34,2.47,2.47,0,0,0-2.47,1.37,10.2,10.2,0,0,0-1.14,3,54.61,54.61,0,0,0-.54,7.24,21,21,0,0,1-3,10.25A15.57,15.57,0,0,1,13.6,164c-.19.23.11.46.26.66a4,4,0,0,0,1.7,1.46.16.16,0,0,0,.09,0,.21.21,0,0,0,.11-.07,3.69,3.69,0,0,0,.75-1c.18-.35.37-.62.57-.94s.41-.75.64-1.1.48-.62.71-.93a7.77,7.77,0,0,0,.69-1.13c.24-.49.43-1,.62-1.51a41.42,41.42,0,0,0,1.39-4.16,23.6,23.6,0,0,0,.56-4.18c.07-.92,0-1.83.1-2.75A22.6,22.6,0,0,1,22.27,145.79Z"/><path class="cls-11" d="M14,163a9.44,9.44,0,0,0,.94,1.42s.06.08.11.08a.21.21,0,0,0,.11,0l.4-.3a10.91,10.91,0,0,0,1-.82,4.16,4.16,0,0,0-.8,1.44.38.38,0,0,0,0,.21.37.37,0,0,0,.17.2l.57.41a18.44,18.44,0,0,0,2.46-3.44A35,35,0,0,0,20.27,158c.32-.89.62-1.8.86-2.72a22.71,22.71,0,0,0,.56-4.18c.07-.92,0-1.84.1-2.75a22.6,22.6,0,0,1,.48-2.56,16.85,16.85,0,0,0,.25-3.69c0-.24,0-.47,0-.71a1.13,1.13,0,0,0-.11-.55.76.76,0,0,0-.48-.34,2.48,2.48,0,0,0-2.47,1.37,10.2,10.2,0,0,0-1.14,3,54.61,54.61,0,0,0-.54,7.24v.05a23.52,23.52,0,0,1-.91,5.46,19.29,19.29,0,0,1-.95,2.57,9.46,9.46,0,0,1-.57,1.15A9.77,9.77,0,0,1,14,163Z"/><path class="cls-12" d="M15.71,164.74a.38.38,0,0,0,0,.21.37.37,0,0,0,.17.2l.57.41a18.44,18.44,0,0,0,2.46-3.44A35,35,0,0,0,20.27,158c.32-.89.62-1.8.86-2.72a22.71,22.71,0,0,0,.56-4.18c.07-.92,0-1.84.1-2.75a22.6,22.6,0,0,1,.48-2.56,16.85,16.85,0,0,0,.25-3.69,2.4,2.4,0,0,0-.66-.61,1.68,1.68,0,0,0-2.48.64,42.31,42.31,0,0,0-.88,4.17,20.65,20.65,0,0,0-.59,5.31c0,1.52.22,3,.12,4.53a15.18,15.18,0,0,1-1,4.4c-.47,1.2-1.1,2.37-1.51,3.58a10.91,10.91,0,0,0,1-.82A4.16,4.16,0,0,0,15.71,164.74Z"/><path class="cls-9" d="M8.11,145.49a.37.37,0,0,0,0,.18,1.6,1.6,0,0,0,.55.58c.16.13.53.32.49.56a1.43,1.43,0,0,0-.45-.12.37.37,0,0,0-.36.24c-.08.22.15.43.35.56a11.52,11.52,0,0,0,2.3,1.28l.41.13c.29.08.6.13.89.24a4.58,4.58,0,0,1,1.42,1c.41.38.9,1,1.47,1.08a1.38,1.38,0,0,0,1.15-.27.84.84,0,0,0,.16-1.1,3,3,0,0,0-1.09-.72,2.53,2.53,0,0,1-.76-.63,14.5,14.5,0,0,1-1.16-1.19,2.19,2.19,0,0,1-.37-.75c-.09-.37-.06-.76-.13-1.14a3,3,0,0,0-.72-1.39c-.3-.35-.86-.64-1-1.06,0-.11-.12-.25-.23-.21a.12.12,0,0,0-.08.09l0,0a1.16,1.16,0,0,0,.15.91c.07.11.16.21.23.33a.43.43,0,0,1,0,.38c-.2.39-1,0-1.21-.22s-.29-.49-.56-.55H9.53a.65.65,0,0,0-.63.42,2.58,2.58,0,0,1-.44.67A.88.88,0,0,0,8.11,145.49Z"/><path class="cls-13" d="M11,148.77l.41.13c.29.08.6.13.89.24a4.58,4.58,0,0,1,1.42,1c.41.38.9,1,1.47,1.08a1.38,1.38,0,0,0,1.15-.27.84.84,0,0,0,.16-1.1,3,3,0,0,0-1.09-.72,2.53,2.53,0,0,1-.76-.63,14.5,14.5,0,0,1-1.16-1.19c-.27.39-.45.87-.85,1.11a1.82,1.82,0,0,1-.61.2,4.08,4.08,0,0,1-.92.13Z"/><path class="cls-14" d="M19.7,141.9a5.47,5.47,0,0,0,.22,1.71c.06.24.14.48.22.72s.07.22.11.33,0,0,0,0a.11.11,0,0,1,0,.05s0,0,0,0,.09.26.13.4h0c.06.22.13.43.18.64l.09.34a3.24,3.24,0,0,1,0,1c0,.13,0,.26,0,.39s-.08.41-.11.62l-.06.37a1.1,1.1,0,0,1,0,.18c0,.13,0,.27,0,.41v.14a2.64,2.64,0,0,0,0,.29c0,.1,0,.2.05.29a1.38,1.38,0,0,0,.06.26,10.44,10.44,0,0,0,.41,1.31c.19.51.39,1,.61,1.53a11.64,11.64,0,0,0,2.24,3.53l.23.23c.22.21.48.43.7.65h0a2.73,2.73,0,0,1,.68,1,1.31,1.31,0,0,1,.06.27,6,6,0,0,1,0,1,6,6,0,0,0,.72,2.68,6.14,6.14,0,0,0,.75,1.15c.17.2.35.4.53.58h0a6.42,6.42,0,0,0,1.2.93,6.31,6.31,0,0,0,1.4.63h0l.07,0h0l.07,0a5,5,0,0,1,.77.26,1.38,1.38,0,0,1,.75.65,5,5,0,0,1,.21,1,1.8,1.8,0,0,0,1.3,1.19,2.57,2.57,0,0,0,.47.08h.47l.06,0h.1a3.66,3.66,0,0,0,2.1-1.49l0,0a.76.76,0,0,1-.2.06H36.3a1.11,1.11,0,0,1-1.16-.83,1.19,1.19,0,0,1,1.09-1.3c1.09-.07,1.08,1,1.65,1.46,1,.87,3.28.63,4.33,0a3.53,3.53,0,0,0,1.88-3.28,1.19,1.19,0,0,0-.1-.32.86.86,0,0,0-.84-.34,2.49,2.49,0,0,0-.9.32.26.26,0,0,1,.29.12.73.73,0,0,1,.09.32,1.08,1.08,0,0,1-1.73.93c-1-.63-.6-2-.25-2.87s.69-1.55,1.1-2.31a7.37,7.37,0,0,0,1-2.21,2.1,2.1,0,0,0-.77-2.17,10.67,10.67,0,0,0-1-.45,2.45,2.45,0,0,1-1.3-1.93,3,3,0,0,1,.77-2.22c.42-.49,1-.86,1.38-1.38a4.26,4.26,0,0,0,.25-4c-.5-1.31-1.3-2.51-1.73-3.84a12.2,12.2,0,0,1-.46-4.08c0-1.69.14-3.39.3-5.08.15-1.43.12-2.78.16-4.19a34.46,34.46,0,0,0-.73-9.39,11.57,11.57,0,0,0-.77-2.33,7.46,7.46,0,0,0-.51-.92,17.72,17.72,0,0,0-4.63-4.46l-.76-.59a12.22,12.22,0,0,0-1.5-.57,1.32,1.32,0,0,0-.55.16.13.13,0,0,0-.06,0c-.53.29-.94.73-1.5,1a15.91,15.91,0,0,0-1.5.72c-.43.28-.8.63-1.21.94s-1.18.76-1.77,1.15a9.85,9.85,0,0,0-1.56,1.27c-.13.13-.25.27-.37.41a6.15,6.15,0,0,0-1.58,3.56V119c-.1,2.13,1.15,4.14,1.31,6.27a18.92,18.92,0,0,1,0,2.72c0,.35-.07.69-.13,1a4.56,4.56,0,0,1-.18.75c-.11.39-.22.78-.32,1.17l-.06.24c-.05.19-.09.39-.14.59a2,2,0,0,1-.05.24c0,.11,0,.22-.05.32a10.27,10.27,0,0,0-.17,2.07c0,.44,0,.89,0,1.33,0,.15,0,.31,0,.46a6.06,6.06,0,0,1-.35,1.44c0,.08-.06.17-.09.24a.67.67,0,0,1-.06.15c-.06.14-.11.28-.18.42h0c-.18.41-.38.82-.56,1.24h0v0l0,.09c-.09.23-.18.46-.26.69A5.58,5.58,0,0,0,19.7,141.9Z"/><path class="cls-15" d="M20.27,144.06l0,1.28c0,.89.07,1.78.11,2.68a5.42,5.42,0,0,0,.06.58c.05.34.11.67.13,1A11,11,0,0,0,21,151a14.05,14.05,0,0,0,3.08,5.44,4.53,4.53,0,0,1,1.38,1.71,5,5,0,0,1,.11,1.34,6.81,6.81,0,0,0,4.62,6.16c.65.2,1.42.37,1.71,1a5.18,5.18,0,0,1,.21,1,2,2,0,0,0,2.24,1.3,3.55,3.55,0,0,0,2.26-1.57.58.58,0,0,1-.25.09c-.12.08-.24.18-.37.25a2.05,2.05,0,0,1-2.91-1.11,9.31,9.31,0,0,1,0-2.47,20.8,20.8,0,0,1-.2-2.22,4.55,4.55,0,0,1,1.56-2.59,3.58,3.58,0,0,0,.76-2.51,20.34,20.34,0,0,0-.34-2.81,20.13,20.13,0,0,1,.85-9.43,12.62,12.62,0,0,0,.65-2.23,11.56,11.56,0,0,0-.24-3.31,23.66,23.66,0,0,1,.71-9.17c.67-2.61-1.39-4.26-3.94-3.75-.86.17-1.71.47-2.59.62-1.92.32-4-.14-5.8.59a4.79,4.79,0,0,0-2,1.51,5.22,5.22,0,0,0-.58,1,13.9,13.9,0,0,0-.8,2.3,15.32,15.32,0,0,0-.87,6v.72C20.32,140.55,20.26,142.31,20.27,144.06Z"/><path class="cls-16" d="M30.57,140.8a3.3,3.3,0,0,1,.09,2.06c-.23.87-.8,1.62-1,2.49a6.75,6.75,0,0,0,.25,2.52,3.82,3.82,0,0,1-.12,2.5,14.13,14.13,0,0,0-1,1.46c-.45,1.15.43,2.41.32,3.65,0,.42-.2.84-.21,1.27a1,1,0,0,0,.66,1,.91.91,0,0,1-1.06-.69,3.93,3.93,0,0,1,0-1.41,5.42,5.42,0,0,0-.09-1.39c-.05-.25-.13-.49-.16-.75a2.83,2.83,0,0,1,.22-1.62c.31-.68.87-1.23,1.12-1.93.62-1.71-.77-3.68-.11-5.36.2-.5.56-.93.72-1.44C30.53,142.4,30.3,141.55,30.57,140.8Z"/><path class="cls-9" d="M16.55,147.15a8.18,8.18,0,0,0,.37,2c.47,1.69,1,3.36,1.64,5a10.4,10.4,0,0,1,.4,1.19,4.5,4.5,0,0,1,.06,2,4.93,4.93,0,0,1-.05,1.33l0,.16s0,.06,0,.1-.05.2-.08.31h10a5.45,5.45,0,0,1-1.13-3,1.47,1.47,0,0,1,0-.36,7.71,7.71,0,0,1,.34-1.76,25.64,25.64,0,0,1,1.06-3.32c.28-.66.62-1.29.85-2a12.8,12.8,0,0,0,.52-2.62c.19-1.43.33-3.07-.64-4.16a4.18,4.18,0,0,0-1.51-1L28.2,141l-.73-.3-.12,0-.59-.22c.2-1,.39-2.06.59-3.09.07-.39.15-.79.22-1.18,0-.06,0-.12,0-.18.13-.71.26-1.41.37-2.13.06-.41.12-.81.16-1.22a3.49,3.49,0,0,0-1.69.75q-1.44,1-2.82,2.1a20.56,20.56,0,0,1,.36,3.43v.92a5.16,5.16,0,0,0-.79,0l-.37.08h0a3.4,3.4,0,0,0-.34.12l-.11,0-.16.08-.09,0-.1.06a1.64,1.64,0,0,0-.22.14h0l-.27.23c-.35.32-.64.71-1,1a5.75,5.75,0,0,1-.64.46l-.16.11c-.75.8-1.46,1.62-2.16,2.45A3.45,3.45,0,0,0,16.55,147.15Z"/><path class="cls-13" d="M24.8,137.86a2.2,2.2,0,0,0-.17,1.36,7.27,7.27,0,0,0,.84,1.7,1.62,1.62,0,0,1,0,1.78c-.31.34-1,.56-.93,1.12s.73.93,1.16,1a2.76,2.76,0,0,0,2-.71,5.12,5.12,0,0,0,1.94-2.61,6.33,6.33,0,0,0,0-2.84l-.2-.07c-.31-.12-.63-.25-1-.36l1-5c.12-.65.24-1.29.37-1.93,0-.09,0-.18.05-.28.21-1.15.43-2.3.61-3.47.1-.65.19-1.31.26-2A5.55,5.55,0,0,0,28,126.79c-1.55,1.07-3.08,2.2-4.59,3.41a30.92,30.92,0,0,1,.59,5.56l.72-.25c.92-.32,1.63-1,2.65-1,.25.47-.21,1-.63,1.29a7.76,7.76,0,0,0-1.54,1.43A3.25,3.25,0,0,0,24.8,137.86Z"/><path class="cls-9" d="M24,184.75a16.31,16.31,0,0,0,.29,2.28,8.11,8.11,0,0,0,3.61,5.47,51.19,51.19,0,0,0,7.51,3.58c1.54.68,3.18,1.13,4.73,1.82,1.4.63,2.94,1.38,3.42,2.91a1.17,1.17,0,0,1,.05.2,6.7,6.7,0,0,1,.15,1.84.4.4,0,0,0,0,.19.35.35,0,0,0,.13.11.6.6,0,0,0,.23.06,1.09,1.09,0,0,0,.82-.38,2.13,2.13,0,0,0,.5-1,2.92,2.92,0,0,0,.07-1,6.73,6.73,0,0,0-1.93-3.68,3.38,3.38,0,0,0-1-.91,4.19,4.19,0,0,0-.87-.27c-.32-.07-.64-.12-.94-.21a2.68,2.68,0,0,1-.78-.34c-.58-.4-1.18-.77-1.75-1.17-1.45-1-2.9-2-4.34-3.07l-.4-.27a8.64,8.64,0,0,1-3.29-3.72,8.23,8.23,0,0,1-.43-1.76,20.53,20.53,0,0,1,.4-8.43l.06-.24c.47-1.69,1.12-3.34,1.43-5.07l0-.14a21.65,21.65,0,0,0,.25-3.41c0-.45,0-.9,0-1.35a8.87,8.87,0,0,0-.23-2.25,3.37,3.37,0,0,0-.47-1,1.54,1.54,0,0,0-.23-.29,5.77,5.77,0,0,0-2.47-1.43,2.65,2.65,0,0,0-1.95-.13,2.38,2.38,0,0,0-.8.68c-1.34,1.71-1.58,4.24-1.4,6.34s-.35,4.46-.49,6.6A73.56,73.56,0,0,0,24,184.75Z"/><path class="cls-9" d="M17.49,184.27c0,.36.06.72.1,1.08a111.33,111.33,0,0,0,2.95,16.21c.48,1.85.52,2,1.08,3.83l.24.84c.44,1.63,1.13,3.19,1.56,4.83s.8,3.22-.17,4.57l-.06.08A7.39,7.39,0,0,1,21.85,217a.32.32,0,0,0-.12.14.22.22,0,0,0,0,.16.9.9,0,0,0,.79.61h.12a1.62,1.62,0,0,0,.44,0,2.82,2.82,0,0,0,1.41-.75,6.78,6.78,0,0,0,1.65-3.82A3.29,3.29,0,0,0,26.2,212a3.43,3.43,0,0,0-.34-.85c-.1-.22-.22-.42-.32-.64a2.81,2.81,0,0,1-.32-1c-.06-.7-.15-1.4-.2-2.1-.08-1.24-.16-2.48-.25-3.72-.3-2.6-.29-1.7-.48-4.3-.31-4.11-.48-8.24-.56-12.37-.05-1.94-.07-3.88-.08-5.82q0-2.46,0-4.92c0-1.59,0-3.19,0-4.77,0-1.87,0-4-1-5.62-.46-.78-.85-1.2-1.75-1a3.65,3.65,0,0,0-2.36,1.5c-1.46,2.29-1.37,6-1.45,8.62A69.79,69.79,0,0,0,17.49,184.27Z"/><path class="cls-13" d="M24,184.75a16.31,16.31,0,0,0,.29,2.28l.35.05a5.57,5.57,0,0,0,1.95.06,5.39,5.39,0,0,1,2.06-.4,14.78,14.78,0,0,1,.93-9.05,11.64,11.64,0,0,0-.43,3.68,23.66,23.66,0,0,0,.17,4.29,8.11,8.11,0,0,0,.57,2.45,2.25,2.25,0,0,1,.29,1.85c-.05.25,0,.57.19.65a.57.57,0,0,0,.34,0,1.76,1.76,0,0,1,1.49.22c.47.25,1.32.19,1.72.46l-.4-.27a8.64,8.64,0,0,1-3.29-3.72,8.23,8.23,0,0,1-.43-1.76,20.53,20.53,0,0,1,.4-8.43l.06-.24c.47-1.69,1.12-3.34,1.43-5.07l0-.14a2,2,0,0,1,0-.43,19.83,19.83,0,0,0,.22-3c0-.45,0-.9,0-1.35a8.87,8.87,0,0,0-.23-2.25,9.14,9.14,0,0,0-.7-1.31,5.77,5.77,0,0,0-2.47-1.43,2.65,2.65,0,0,0-1.95-.13,2.38,2.38,0,0,0-.8.68c-1.34,1.71-1.58,4.24-1.4,6.34s-.35,4.46-.49,6.6A73.56,73.56,0,0,0,24,184.75Z"/><path class="cls-13" d="M17.49,184.27c0,.36.06.72.1,1.08a11.06,11.06,0,0,0,1.36.55,30.21,30.21,0,0,0,4.78,1c-.05-1.94-.07-3.88-.08-5.82q0-2.46,0-4.92c0-1.59,0-3.19,0-4.77,0-1.87,0-4-1-5.62-.46-.78-.85-1.2-1.75-1a3.65,3.65,0,0,0-2.36,1.5c-1.46,2.29-1.37,6-1.45,8.62A69.79,69.79,0,0,0,17.49,184.27Z"/><path class="cls-17" d="M11.8,178.88a10.88,10.88,0,0,0,7,6.13,36.4,36.4,0,0,0,5.93,1.18,6.09,6.09,0,0,0,2,.06,5.89,5.89,0,0,1,2.16-.4,14.25,14.25,0,0,1,1-9.16,7.61,7.61,0,0,0-.09,4.46,18.65,18.65,0,0,0,1.75,4.15l1.95-1.05A4.86,4.86,0,0,1,31,179.91a17.73,17.73,0,0,1,.95-5.22l.06-.22a25.51,25.51,0,0,0,.95-5.87c0-.31,0-.61,0-.91s0-.72-.07-1.08a.43.43,0,0,1,0-.05,12.88,12.88,0,0,0-.26-1.51l-.06-.22-.06-.22a9.15,9.15,0,0,0-1.54-2.91,4.22,4.22,0,0,0-1.88-1.54,6.67,6.67,0,0,0-1.67-.08c-1-.07-1.94-.39-2.91-.53a29.43,29.43,0,0,0-3.11-.27,2.92,2.92,0,0,0-1,.09,2.47,2.47,0,0,0-.81.51c-.54.49-1.62,1.28-1.73,2-.15,1.09-.32,2.19-.48,3.28s-.31,2.09-.54,3.11a.94.94,0,0,1,0,.16,20.34,20.34,0,0,1-4.73,9.06,1.49,1.49,0,0,0-.34.49A1.41,1.41,0,0,0,11.8,178.88Z"/><path class="cls-18" d="M16.82,168.27a7.05,7.05,0,0,0,1.18.38,2.65,2.65,0,0,0,1.25.07c.92-.22,1.44-1.14,1.86-2a10.27,10.27,0,0,0,0,1.92,1.11,1.11,0,0,0,.12.44.79.79,0,0,0,.48.26,7,7,0,0,0,2,.12c1.22,0,2.43-.11,3.65-.19s2.09-.25,2.9.68a5.8,5.8,0,0,1,.93,1.71,9.46,9.46,0,0,1,.79,2.79,25.51,25.51,0,0,0,.95-5.87c0-.31,0-.61,0-.91a7.73,7.73,0,0,1-.07-1.08.43.43,0,0,1,0-.05,9.73,9.73,0,0,0-.26-1.51l-.06-.22-.06-.22a9.15,9.15,0,0,0-1.54-2.91,4.22,4.22,0,0,0-1.88-1.54,6.67,6.67,0,0,0-1.67-.08c-1-.07-1.94-.39-2.91-.53a29.43,29.43,0,0,0-3.11-.27,2.92,2.92,0,0,0-1,.09,2.47,2.47,0,0,0-.81.51c-.54.49-1.62,1.28-1.73,2-.15,1.09-.32,2.19-.48,3.28S17.05,167.25,16.82,168.27Z"/><path class="cls-13" d="M21.72,217.29a.9.9,0,0,0,.79.61h.56a2.82,2.82,0,0,0,1.41-.75,6.78,6.78,0,0,0,1.65-3.82A3.29,3.29,0,0,0,26.2,212a3.43,3.43,0,0,0-.34-.85c-.1-.22-.22-.42-.32-.64a12.08,12.08,0,0,0-.32,2.73,4.93,4.93,0,0,1,0,.54,4.64,4.64,0,0,1-.32,1,1.93,1.93,0,0,1-.51.82.82.82,0,0,1-.91.15l-.18-.11-.06.08A7.39,7.39,0,0,1,21.85,217a.32.32,0,0,0-.12.14A.22.22,0,0,0,21.72,217.29Z"/><path class="cls-19" d="M22.69,218.21a1.41,1.41,0,0,1-1-.33.77.77,0,0,1-.16-.94c.27-.39.86-.42,1.12-.85.06-.09.1-.21.2-.25s.36.1.53.2a.82.82,0,0,0,.91-.15,2.11,2.11,0,0,0,.51-.82,4.64,4.64,0,0,0,.32-1,5.11,5.11,0,0,0,0-.55c0-.32.06-2.93.46-2.81a.3.3,0,0,1,.15.12A14.35,14.35,0,0,1,28.21,215c0,.1.08.22,0,.3l-.07.06a.68.68,0,0,1-.31.11.14.14,0,0,1-.11,0c-.13-.07-.25-.34-.32-.46a2.27,2.27,0,0,0-.39-.53.37.37,0,0,0-.29-.13.35.35,0,0,0-.28.19,1,1,0,0,0-.08.42,2.88,2.88,0,0,1-.18.59,7.32,7.32,0,0,1-.51,1.1,3.39,3.39,0,0,1-.44.61,3.14,3.14,0,0,1-1.09.7A3.73,3.73,0,0,1,22.69,218.21Z"/><path class="cls-13" d="M40.78,195.83c0,.43,1.78,1.76,2,2l.4.37a5.93,5.93,0,0,1,.63.86,2.19,2.19,0,0,1,.34.91.81.81,0,0,1-.42.81l-.19.07a1.17,1.17,0,0,1,.05.2,6.7,6.7,0,0,1,.15,1.84.4.4,0,0,0,0,.19.35.35,0,0,0,.13.11.6.6,0,0,0,.23.06h.06a1.42,1.42,0,0,0,.83-.57,2.07,2.07,0,0,0,.5-1.73,6.73,6.73,0,0,0-1.93-3.68,3.38,3.38,0,0,0-1-.91,4.19,4.19,0,0,0-.87-.27C41.4,196,41.08,195.92,40.78,195.83Z"/><path class="cls-19" d="M45.18,202.63a1.41,1.41,0,0,1-.84.57.75.75,0,0,1-.84-.44c-.15-.44.18-.94,0-1.4a.62.62,0,0,1-.08-.31c0-.2.29-.23.47-.31a.82.82,0,0,0,.43-.81A2.19,2.19,0,0,0,44,199a5.93,5.93,0,0,0-.63-.86c-.13-.13-.27-.25-.41-.37s-2.31-1.81-2-2.06a.37.37,0,0,1,.18,0,14.58,14.58,0,0,1,4.74.57c.1,0,.22.07.25.17a.31.31,0,0,1,0,.1.94.94,0,0,1-.1.31.18.18,0,0,1-.07.08,1.38,1.38,0,0,1-.57,0,2.36,2.36,0,0,0-.65,0,.41.41,0,0,0-.28.15.36.36,0,0,0,0,.35c.06.14.18.2.28.31a3.59,3.59,0,0,1,.37.5,7.21,7.21,0,0,1,.57,1.06,3.34,3.34,0,0,1,.23.72,3.19,3.19,0,0,1-.1,1.3A3.56,3.56,0,0,1,45.18,202.63Z"/><path class="cls-10" d="M16.53,165.59a1.08,1.08,0,0,0,.4.45l.24.17a11.84,11.84,0,0,0,1.64,1l.38.19a.23.23,0,0,0,.16,0,.24.24,0,0,0,.12-.07l2.08-1.85c.11.72.22,1.45.32,2.17A.57.57,0,0,0,22,168a.51.51,0,0,0,.29.1,12.71,12.71,0,0,0,2.54.16,12.94,12.94,0,0,0,4.08-.82c.63-.24,1.24-.53,1.85-.81l1.13-.53.5-.24a.51.51,0,0,0,.31-.28.46.46,0,0,0-.05-.34,21.58,21.58,0,0,0-3.35-5.69,5.42,5.42,0,0,1-1.61-3.29,1.47,1.47,0,0,1,0-.36,7.71,7.71,0,0,1,.34-1.76,25.64,25.64,0,0,1,1.06-3.32c.28-.66.62-1.29.85-2a12.8,12.8,0,0,0,.52-2.62c.19-1.43.33-3.07-.64-4.16a4.18,4.18,0,0,0-1.51-1L28.2,141l-.67-.28c-.21-.09-.39-.23-.61-.31a.42.42,0,0,0-.16,0,1.37,1.37,0,0,0-.61.25l-.85.53a3.62,3.62,0,0,0-.32.22c-.13.1-.23.23-.35.34l-.32.23c-.49.33-.95.7-1.41,1.06a4.52,4.52,0,0,0-.87.82,17.11,17.11,0,0,0,.9-3.72s0-.1,0-.15-.37.09-.49.14l-.11,0-.16.08-.09,0-.1.06-.23.14-.27.23c-.35.32-.64.71-1,1a5.75,5.75,0,0,1-.64.46l-.16.11c-.75.8-1.46,1.62-2.16,2.45a3.45,3.45,0,0,0-1,2.39,8.18,8.18,0,0,0,.37,2c.47,1.69,1,3.36,1.64,5a10.4,10.4,0,0,1,.4,1.19,4.5,4.5,0,0,1,.06,2,4.93,4.93,0,0,1-.05,1.33l0,.16s0,.06,0,.1a6,6,0,0,1-.33,1,15.92,15.92,0,0,1-.7,1.44,30.62,30.62,0,0,0-1.27,3.39A1.13,1.13,0,0,0,16.53,165.59Z"/><path class="cls-17" d="M18.81,149.46a18.54,18.54,0,0,0,1.28,6,41,41,0,0,1,1.28,4.13c.12.53.21,1.07.29,1.6.34,2.3.4,4.65.94,6.91.11.48,6,.16,6.64.1a20.12,20.12,0,0,0,2.78-.45c.48-.12.94-.33,1.42-.44a2.14,2.14,0,0,0,.55-.15s.55-.35.55-.35a2.14,2.14,0,0,1-.7-.85,3.7,3.7,0,0,1-.14-.55,12.66,12.66,0,0,0-2.29-4.76,26.65,26.65,0,0,0-2.75-3.26,2.27,2.27,0,0,1-.58-1.13,5.67,5.67,0,0,1,.36-2.67c.23-.67.52-1.31.81-2a21.7,21.7,0,0,0,.91-2.23A16.7,16.7,0,0,0,30.7,147a9.8,9.8,0,0,0,.13-2.86,4,4,0,0,0-1.25-2.52,2,2,0,0,0-1-.5,3,3,0,0,0-1.71.47A49,49,0,0,0,22,144.28a7.31,7.31,0,0,0-2.63,2.61A6,6,0,0,0,18.81,149.46Z"/><path class="cls-17" d="M16,164.78a1.08,1.08,0,0,0,.1.43,5.25,5.25,0,0,0,.7,1.45,1.52,1.52,0,0,0,.32.3c.21.14.45.24.69.38s.61.44.74.22l1.95-3.43c.31-.56.63-1.12.89-1.72a16.56,16.56,0,0,0,.93-4,10.59,10.59,0,0,0,.25-3.21c-.1-.56-.08-1.15-.15-1.71s-.15-1.15-.24-1.73c-.3-1.83-.67-3.66-.79-5.51a13.53,13.53,0,0,1,0-1.56,10,10,0,0,1,.77-3.3,6.86,6.86,0,0,0,.65-1.38,2.23,2.23,0,0,1-.45.23l-.62.27-.31.16a7.62,7.62,0,0,0-1.33,1.21l-.43.45,0,0c-.74.78-1.44,1.61-2.14,2.43a3.45,3.45,0,0,0-1,2.39,8.18,8.18,0,0,0,.37,2c.47,1.69,1,3.36,1.64,5a10.4,10.4,0,0,1,.4,1.19,4.5,4.5,0,0,1,.06,2,14.54,14.54,0,0,1-1.26,3.41c-.53,1.13-1.05,2.27-1.57,3.4A1.22,1.22,0,0,0,16,164.78Z"/><path class="cls-20" d="M19.9,147.83c-.33.49-.21.94-.26,1.5.12-1.27.94-2.33,1.45-3.47a11.27,11.27,0,0,0,.54-1.61c.13-.48.23-1,.35-1.44s.26-1.06.43-1.58.38-.79.48-1.21a.13.13,0,0,0-.18-.14l-.74.32a1,1,0,0,0-.44.29,1.37,1.37,0,0,0-.13.31,5.94,5.94,0,0,1-.76,1.61,1.84,1.84,0,0,0,.66,0A13.79,13.79,0,0,0,19.56,144c.06.33.37.56.57.83a1.7,1.7,0,0,1,.3.72,2.6,2.6,0,0,1,0,.56A3.77,3.77,0,0,1,19.9,147.83Z"/><path class="cls-21" d="M19,144.09a1,1,0,0,0,.86.35c1.17,0,1-1.76,1.57-2.48.16-.21.39-.37.54-.59a3.21,3.21,0,0,0,.4-1.15l-.62.27-.31.16a7.62,7.62,0,0,0-1.33,1.21l-.43.45,0,0a2.27,2.27,0,0,0,.06.25,2,2,0,0,1,.07.64.5.5,0,0,1-.42.44c-.22,0-.42-.26-.28-.43A.61.61,0,0,0,19,144.09Z"/><path class="cls-14" d="M22.18,135.1c.17-1-.33-2-.35-3,0-1.37.86-2.65.79-4a8.26,8.26,0,0,0-.28-1.4c-.37-1.68-.28-3.43-.7-5.09s-1.57-3.33-3.27-3.55c-.55,2.65-1.37,5.63-.72,8.34a1.52,1.52,0,0,1,0,1.22,3.08,3.08,0,0,1-.3.33c-.5.59-.16,1.5-.56,2.07s-1.41-.06-.94-.4a1.38,1.38,0,0,0-.87,1.5,3.67,3.67,0,0,0,.79,1.68,5.67,5.67,0,0,1,.94,1.61c.25.87,0,1.85.43,2.65.15.31.4.57.56.87a1,1,0,0,1,0,1,2.35,2.35,0,0,1-.41.36,2,2,0,0,0-.25,1.9,2.91,2.91,0,0,1,.12,1.05.83.83,0,0,1-.68.72c-.35,0-.68-.43-.46-.71a1,1,0,0,0-.15,1.4,1.7,1.7,0,0,0,1.41.57c1.89-.08,1.63-2.86,2.53-4,.27-.34.64-.6.9-1a8.69,8.69,0,0,0,.76-2.29A12.69,12.69,0,0,0,22.18,135.1Z"/><path class="cls-22" d="M18.36,135.89c.07,1,.47,2,.11,2.88-.11.26-.28.5-.39.75a2.19,2.19,0,0,0-.11,1.34,1.93,1.93,0,0,1,.09.71c0,.24-.33.45-.54.33.14.23.52.12.64-.11a1.8,1.8,0,0,0,.1-.77c0-1,.74-1.78,1-2.71a7.12,7.12,0,0,0-.16-2.75,3.52,3.52,0,0,1,.38-2.67A4.06,4.06,0,0,0,18.36,135.89Z"/><path class="cls-21" d="M19.64,149.33c.12-1.26.94-2.33,1.45-3.47a11.15,11.15,0,0,0,.54-1.6,6.73,6.73,0,0,0-1.18,1.31l0,0a2.6,2.6,0,0,1,0,.56,3.69,3.69,0,0,1-.56,1.68C19.57,148.32,19.69,148.77,19.64,149.33Z"/><path class="cls-12" d="M20.3,160.54a1.28,1.28,0,0,0,.29.47,1.35,1.35,0,0,0,1.07.2l.22,0a7.71,7.71,0,0,1,1.92,0,9.91,9.91,0,0,0,1.53.15,6.77,6.77,0,0,0,1.19-.23l2.35-.62c.2-.05.44-.14.49-.34a.7.7,0,0,0-.06-.35c-.36-.92-.73-1.84-1.09-2.77a1.41,1.41,0,0,1-.13-.75,5.67,5.67,0,0,1,.36-2.67c.23-.67.52-1.31.81-2a4.29,4.29,0,0,0-1.76-2.38,4.21,4.21,0,0,0-2.73-.43,6.61,6.61,0,0,0-3.19,1.37,2.4,2.4,0,0,0-.58.61,2.65,2.65,0,0,0-.26.87c-.24,1.26-.48,2.52-.64,3.79-.08.66-.14,1.32-.17,2A7.63,7.63,0,0,0,20.3,160.54Z"/><path class="cls-12" d="M26.75,154.23a2,2,0,0,1-.14.34c-.59,1.06-2.32,1-3.33.78a6.52,6.52,0,0,1-3.38-1.72,8.11,8.11,0,0,1-2.37-5.58,4.3,4.3,0,0,1,0-1,3.35,3.35,0,0,1,.48-1.3,1.22,1.22,0,0,1,.23-.27,1.14,1.14,0,0,1,.41-.21c.71-.21,1.5-.08,2.22-.26.36-.09.7-.25,1.05-.35a6.3,6.3,0,0,1,1.22-.18c.56-.05,1.11-.1,1.67-.17a5.2,5.2,0,0,1,1.75.18,1.58,1.58,0,0,1,.37.11,1.32,1.32,0,0,1,.54.58,4.11,4.11,0,0,1,.29,2.62c-.15.88-.44,1.73-.6,2.61-.09.47-.13.94-.18,1.41s-.09,1-.14,1.55A5.47,5.47,0,0,1,26.75,154.23Z"/><path class="cls-20" d="M19.43,151.35a11.19,11.19,0,0,0,.48,2l.11.35c.06.21.13.42.19.63a2.43,2.43,0,0,1-.1-.55,6.25,6.25,0,0,0-.12-.65,7.39,7.39,0,0,1-.2-1.32A8.2,8.2,0,0,1,20,149.1a3.87,3.87,0,0,1,1.38-2.22l0,0a7.25,7.25,0,0,1,1.13-.52A15.4,15.4,0,0,0,25.22,145c0-.11-.07-.21-.1-.32s-.07-.22-.1-.33a.56.56,0,0,0,0-.12,8.82,8.82,0,0,1-.21-1.25,4.08,4.08,0,0,0,.76.55,3.3,3.3,0,0,0,.9.35l.07,0h0a.65.65,0,0,0,.24,0,.86.86,0,0,0,.39-.2c.48-.35.94-.74,1.44-1.08a5.33,5.33,0,0,1,.56-.32c.31-.15.62-.26.95-.39s-.43-.55-.81-.75l-.19-.1-1-.43c-1-.42-1.74,0-2.56.58-.25.17-.5.35-.74.55s-.72.59-1.06.89a17.63,17.63,0,0,1-1.68,1.45,3.58,3.58,0,0,0-.67.61l-.21.24c-.15.18-.3.38-.45.58a5.78,5.78,0,0,0-.67,1,6,6,0,0,0-.37,1.16,10.8,10.8,0,0,0-.25,1.26,8.19,8.19,0,0,0-.07,1.21A9.47,9.47,0,0,0,19.43,151.35Z"/><path class="cls-12" d="M19.43,151.35a11.19,11.19,0,0,0,.48,2l.11.35.09.08a6.25,6.25,0,0,0-.12-.65,7.39,7.39,0,0,1-.2-1.32A8.2,8.2,0,0,1,20,149.1a3.87,3.87,0,0,1,1.38-2.22,6.25,6.25,0,0,1,1.17-.55A15.4,15.4,0,0,0,25.22,145a5.38,5.38,0,0,1-.2-.65l-.48,0-1.36.12a7.2,7.2,0,0,0-1.22.19c-.26.08-.5.18-.76.27s-.3.38-.45.58a5.78,5.78,0,0,0-.67,1,6,6,0,0,0-.37,1.16,10.8,10.8,0,0,0-.25,1.26,8.19,8.19,0,0,0-.07,1.21A9.47,9.47,0,0,0,19.43,151.35Z"/><path class="cls-23" d="M20.59,148.44h0a.44.44,0,0,1,.06-.23.48.48,0,0,1,.26-.21.48.48,0,0,1,.35,0,.47.47,0,0,1,0,.81.47.47,0,0,1-.35,0,.46.46,0,0,1-.26-.2.48.48,0,0,1-.06-.24Z"/><path class="cls-23" d="M20.83,151.94a.45.45,0,0,1,0,.89A.45.45,0,0,1,20.83,151.94Z"/><path class="cls-23" d="M21.49,155.64a.45.45,0,0,1,.45.44v0a.45.45,0,0,1-.45.44.44.44,0,0,1-.44-.44v0A.44.44,0,0,1,21.49,155.64Z"/><path class="cls-23" d="M21.6,159.77a.45.45,0,0,1,.45.44v0a.46.46,0,0,1-.45.45.45.45,0,0,1-.44-.45v0A.44.44,0,0,1,21.6,159.77Z"/><path class="cls-24" d="M19,156.15a19.48,19.48,0,0,0,.72,3.11c.29.82.34,1.37,1.34,1.55a5.46,5.46,0,0,0,1.34,0l1.57-.1a10.93,10.93,0,0,0,1.5-.17c.73-.14,1.43-.43,2.17-.54a6.18,6.18,0,0,0,1.05-.15c.36-.12.35-.15.23-.47-.25-.64-.63-1.26-.94-1.87s-.55-1.12-.78-1.71a11.08,11.08,0,0,1,1.15-10.11A8.21,8.21,0,0,0,25,144.8a17,17,0,0,0-3.61.46l-2.72.55c-1,2.67-.51,5.63,0,8.43C18.75,154.88,18.87,155.52,19,156.15Z"/><path class="cls-25" d="M18.5,150.18a34.39,34.39,0,0,0,.52,4.06c.1.64.21,1.28.32,1.91a19.07,19.07,0,0,0,.7,3.1c.28.83.33,1.38,1.29,1.56a5.06,5.06,0,0,0,1.29,0l1.51-.1a10.06,10.06,0,0,0,1.45-.17c.7-.14,1.38-.43,2.09-.54a5.73,5.73,0,0,0,1-.15c.35-.12.34-.15.22-.47-.24-.64-.61-1.26-.9-1.87s-.53-1.12-.75-1.71a11.31,11.31,0,0,1-.66-4.93,11,11,0,0,1,.49-2.48,9.52,9.52,0,0,1,.34-.94c0-.09.08-.18.11-.27.12-.25.49-.71.45-1H23.15a22.39,22.39,0,0,0-2.32.08,8,8,0,0,0-1.19.21l-.36,0a5.16,5.16,0,0,0-.49.21h0l-.05.09a4.3,4.3,0,0,0-.21,1.29A13.9,13.9,0,0,0,18.5,150.18Z"/><path class="cls-10" d="M18.79,146.76h0l.66.61a1,1,0,0,0,.36.24,1,1,0,0,0,.6-.1,8.32,8.32,0,0,1,3.15-.13c.5,0,1,0,1.5.05l2.29,0h.07a1.24,1.24,0,0,0,.93-.27c0-.13-.05-.27-.08-.4l-.38-.16a.5.5,0,0,1,.32,0,1.49,1.49,0,0,0,0-.42,9.81,9.81,0,0,0-2.76-.35,10.59,10.59,0,0,0-1.38,0c-.27,0-.55.09-.83.1s-.74,0-1.11,0a7.73,7.73,0,0,0-2.88.56,5.16,5.16,0,0,0-.49.21Z"/><path class="cls-3" d="M19.39,154.87c.1.56.21,1.13.31,1.7a16.56,16.56,0,0,0,.67,2.78c.27.73.32,1.23,1.24,1.39a5.8,5.8,0,0,0,1.25,0l1.46-.1a10.59,10.59,0,0,0,1.38-.15c.68-.13,1.33-.38,2-.48a7.55,7.55,0,0,0,1-.13c.34-.11.33-.13.21-.43-.22-.57-.58-1.12-.86-1.67s-.52-1-.73-1.52a9.64,9.64,0,0,1,.56-8.25,8.85,8.85,0,0,1,.5-.79,9.18,9.18,0,0,0-2.31-.75,6.46,6.46,0,0,0-.78-.07,15.92,15.92,0,0,0-3.35.42l-2.52.49C18.49,149.71,18.93,152.36,19.39,154.87Z"/><path class="cls-26" d="M25,156.75h0a2.9,2.9,0,0,1,.87.16,3.57,3.57,0,0,0,.86.36.29.29,0,0,0,.16,0,.25.25,0,0,0,.09-.16c.1-.45-.13-.72-.27-1.11-.27-.76-.29-1.61-.61-2.35a3,3,0,0,1,.1-2.16,2.53,2.53,0,0,1-1.74.33,5.07,5.07,0,0,1-3-.94,4.91,4.91,0,0,1-1.41-3.08,12.48,12.48,0,0,0-.62,5.84,24.26,24.26,0,0,0,.48,2.4c.07.34.15.67.23,1a6,6,0,0,0,.91,2.34,3.34,3.34,0,0,1,2.39-2.56A5.17,5.17,0,0,1,25,156.75Z"/><path class="cls-26" d="M24.55,147l1.52.79a2.82,2.82,0,0,1,1.1.85c0-.07.44-.45.7-.64a8.85,8.85,0,0,1,.5-.79,9.18,9.18,0,0,0-2.31-.75c-.34.09-.68.21-1,.31A1.89,1.89,0,0,0,24.55,147Z"/><path class="cls-10" d="M30.28,152.13a5.1,5.1,0,0,1-1.06,3,4,4,0,0,1-1.52.91,9.57,9.57,0,0,1-2.47.59,11,11,0,0,1-5.47-.93,14.85,14.85,0,0,1-4.56-3.21,16.23,16.23,0,0,0-1.26-1.23,5.48,5.48,0,0,0-1.63-.92A17,17,0,0,1,14,147.24l3.1,2.16a17.72,17.72,0,0,0,4.7,2.59,5.87,5.87,0,0,0,5.15-.6,9.56,9.56,0,0,0,1-.89A13.31,13.31,0,0,1,30.09,149a.44.44,0,0,1,.39-.1c.2.07.21.35.18.56C30.53,150.31,30.41,151.22,30.28,152.13Z"/><path class="cls-11" d="M13.08,150.66a.32.32,0,0,0,.13.18c1,.92,2.1,1.77,3.13,2.67a13.81,13.81,0,0,0,3.41,2.15,11.07,11.07,0,0,0,5.47.93A9.25,9.25,0,0,0,27.7,156a4,4,0,0,0,1.51-.91,5.17,5.17,0,0,0,1.07-3c.13-.91.25-1.82.37-2.72a.31.31,0,0,0,0-.1c.18-1.23.3-2.46.39-3.7a6,6,0,0,0-.15-2.36A2.85,2.85,0,0,0,30,142c-.32.12-.6.22-.89.36a5.33,5.33,0,0,0-.56.32c-.5.34-1,.73-1.44,1.08a1.07,1.07,0,0,1-.36.2s0,0,0,0l-.15.6c0,.14-.07.29-.1.44a11.51,11.51,0,0,1,1.82.69l-.29.46.21.06a3,3,0,0,1,0,.42.53.53,0,0,0-.33,0l.38.16.09.4a0,0,0,0,1,0,0l0,0a8.78,8.78,0,0,0-.49.79,9.53,9.53,0,0,0-1.16,3.54,4.3,4.3,0,0,1-.6.32,6.32,6.32,0,0,1-4.29.1,11.34,11.34,0,0,1-2.06-.89l0,0-.35-.19c-.78-.46-1.53-1-2.26-1.49s-1.5-1.12-2.22-1.73a.43.43,0,0,0-.28-.13c-.11,0-.19.12-.25.21l-.21.35a.41.41,0,0,0-.09.23.47.47,0,0,0,.12.28,9.15,9.15,0,0,0,1,1.14l-1.2-.62a.23.23,0,0,0-.16,0c-.06,0-.09.06-.12.11a5.19,5.19,0,0,0-.62,1.22A.36.36,0,0,0,13.08,150.66Z"/><path class="cls-27" d="M16.2,153.11a13.45,13.45,0,0,0,3.41,2.15,10.94,10.94,0,0,0,5.46.93,9.53,9.53,0,0,0,2.48-.58,4,4,0,0,0,1.52-.91,5.2,5.2,0,0,0,1.07-3c.12-.91.25-1.82.37-2.73,0,0,0-.06,0-.09.17-1.23.3-2.47.39-3.7a6.47,6.47,0,0,0-.12-2.24c0,.09.08.18.11.27a6,6,0,0,1,.15,2.36c-.09,1.24-.21,2.47-.39,3.7a.31.31,0,0,1,0,.1c-.12.9-.24,1.81-.37,2.72a5.17,5.17,0,0,1-1.07,3,4,4,0,0,1-1.51.91,9.25,9.25,0,0,1-2.48.59,11.07,11.07,0,0,1-5.47-.93,13.81,13.81,0,0,1-3.41-2.15c-1-.9-2.12-1.75-3.13-2.67a.32.32,0,0,1-.13-.18.31.31,0,0,1,0-.19C14.1,151.38,15.18,152.23,16.2,153.11Z"/><path class="cls-21" d="M24.53,144.08a1.07,1.07,0,0,0,.59.61.81.81,0,0,0,.46.08,1.06,1.06,0,0,0,.92-.85h0c.05-.38-.09-.8.12-1.12a1.1,1.1,0,0,1,.48-.37,16.58,16.58,0,0,0,2.17-1.23l-.19-.1-1-.43c-1-.42-1.74,0-2.56.58-.25.17-.5.35-.74.55a2.55,2.55,0,0,0,.45,1.18,1.52,1.52,0,0,1,.26.57.68.68,0,0,1-.06.54.48.48,0,0,1-.49.16A1.64,1.64,0,0,1,24.53,144.08Z"/><path class="cls-12" d="M21.83,152a6.32,6.32,0,0,0,4.29-.1,4.83,4.83,0,0,0,.59-.32A9.71,9.71,0,0,1,27.87,148a8.85,8.85,0,0,1,.5-.79l0,0a0,0,0,0,0,0,0c0-.13-.06-.27-.08-.4l-.38-.16a.5.5,0,0,1,.32,0,1.49,1.49,0,0,0,0-.42l-.21-.06c.09-.15.19-.31.3-.46A11.25,11.25,0,0,0,26.5,145c0-.15.07-.3.11-.44a2,2,0,0,1,.59,0,3.34,3.34,0,0,1,1.8.81,1.11,1.11,0,0,1-.36.56.82.82,0,0,0-.19.18c-.16.24.05.55.11.83a1.61,1.61,0,0,1-.29,1.13,6.64,6.64,0,0,0-1.08,3v.16a1.9,1.9,0,0,1-.08.72c0,.05-.05.1-.08.14l0,0-.09.12h0l-.11.11,0,0-.09.07,0,0h0l-.21.14-.19.11-.34.16a3.54,3.54,0,0,1-1.21.21,6.78,6.78,0,0,1-5-2A11.4,11.4,0,0,0,21.83,152Z"/><path class="cls-9" d="M19.06,134.34a4,4,0,0,0,1.07,1,4.92,4.92,0,0,0,3.6,0c.32-.09.63-.2.94-.31a25.29,25.29,0,0,0,3.59-1.65c1.12-.62,2.22-1.29,3.31-2a12.55,12.55,0,0,0,1.91-1.33,8.83,8.83,0,0,0,1.18-1.33,16,16,0,0,0,2.1-3.72h0a14.74,14.74,0,0,0,1.07-6.43,13.53,13.53,0,0,0-.41-2.6h0a10.47,10.47,0,0,0-20.13,2.55c0,.32,0,.65.07,1,0,.1,0,.2.05.31a17.38,17.38,0,0,1,.55,3.9.5.5,0,0,1,0,.12c-.13,1.46-.93,2.79-1.13,4.24C16.48,130.32,17.59,132.55,19.06,134.34Z"/><path class="cls-10" d="M28.28,122.91a3.35,3.35,0,0,1,.73,1,.51.51,0,0,1,.09.27.47.47,0,0,1-.12.31,2.6,2.6,0,0,1-1.58.83,5,5,0,0,1-2.14.09,2.38,2.38,0,0,1-1.45-.77,3.33,3.33,0,0,1,.9-1.73,2.29,2.29,0,0,1,.55-.31,3.15,3.15,0,0,1,2.32,0A2.23,2.23,0,0,1,28.28,122.91Z"/><path class="cls-28" d="M24.11,123.92a1.32,1.32,0,1,0,1.32-1.32A1.32,1.32,0,0,0,24.11,123.92Z"/><path class="cls-29" d="M24.58,123.92a.85.85,0,0,0,.85.85.86.86,0,1,0-.85-.85Z"/><path class="cls-10" d="M25.43,123.38a.52.52,0,1,0,.52-.52A.52.52,0,0,0,25.43,123.38Z"/><path class="cls-30" d="M23.76,124.61l.06-.08a2.89,2.89,0,0,1,.66-1.23,1.37,1.37,0,0,1,.23-.19,4.39,4.39,0,0,1,1.36-.74,2.45,2.45,0,0,1,1.51.13,2.25,2.25,0,0,1,.66.37s0,0,0,0l.09.08a3.43,3.43,0,0,1,.64.87.51.51,0,0,1,.09.27.31.31,0,0,1,0,.09.1.1,0,0,1,0,0,1.32,1.32,0,0,0,.56,0,.48.48,0,0,0,.36-.39c-.18.09-.37-.07-.51-.2a8.2,8.2,0,0,0-1-.87,3.82,3.82,0,0,0-1.79-.8,3.22,3.22,0,0,0-2,.57,2,2,0,0,0-1,2Z"/><path class="cls-15" d="M26.38,120a5.88,5.88,0,0,1,.81.18c.35.07,1,.18,1.26-.21s-.15-.73-.51-.81a5.27,5.27,0,0,0-4,.92,1.49,1.49,0,0,0-.52.51.37.37,0,0,0-.05.18c0,.63,1,.06,1.19-.07a4,4,0,0,1,1.38-.7A2.16,2.16,0,0,1,26.38,120Z"/><path class="cls-18" d="M19,174.91a10.25,10.25,0,0,1-1.28,2.16,1.24,1.24,0,0,1-.84.54,1.16,1.16,0,0,1-.71-.3,7,7,0,0,1-.77-.65c-.13-.13-.27-.3-.2-.47a.55.55,0,0,1,.13-.17,24.4,24.4,0,0,1,2-1.46A4.78,4.78,0,0,0,19,172.71a5.91,5.91,0,0,0,.36-2.25c.17-.11.34.13.39.32A6.27,6.27,0,0,1,19,174.91Z"/><path class="cls-14" d="M16.16,119.86a1.27,1.27,0,0,0,.67,0,2.58,2.58,0,0,0,.55-.2l.1-.05a4.31,4.31,0,0,0,.65-.43h0a4.23,4.23,0,0,0,.88-1c.52-.72.92-1.55,1.41-2.34a4.46,4.46,0,0,0,.87,3.09,7.23,7.23,0,0,0,1.4,1.47,7.41,7.41,0,0,0,.71.49l.24.15h0c.68.38,1.42.7,2.15,1l.44.19.06,0h0q.38.17.72.36l.28.15.16.1c.2.13.41.27.6.42a3.87,3.87,0,0,1,.37.32h0a7.21,7.21,0,0,1,.59.65,6.42,6.42,0,0,1,.87,1.38,7.18,7.18,0,0,1,.39,1,4.75,4.75,0,0,1,.14.63,6.05,6.05,0,0,1,.08,1.7,2.82,2.82,0,0,1-.49,1.44l-.16.17a1.34,1.34,0,0,1-1.22.38.89.89,0,0,1-.62-1.19,3.64,3.64,0,0,0-.54,1.55.76.76,0,0,0,0,.15,2.27,2.27,0,0,0,0,.52,2.13,2.13,0,0,0,.74,1.28,1.54,1.54,0,0,0,1,.33h0c.37,0,.47-.34.88-.07s.3,1,0,1.31a2.63,2.63,0,0,1-.94.59l-.3.13a10,10,0,0,0-1.83,1,4.49,4.49,0,0,0-1.78,2.76,4.62,4.62,0,0,0-.06.64v.37a1.1,1.1,0,0,1,0,.18,4.45,4.45,0,0,0,.24,1,3.07,3.07,0,0,0,.2.45,4,4,0,0,0,.32.52,2.5,2.5,0,0,1,.32.6,1.66,1.66,0,0,1,.14.49h0a1,1,0,0,1-.14.64.6.6,0,0,1-.25.2.91.91,0,0,1-.48.06l-.11,0-.1,0a1.88,1.88,0,0,1-.45-.16l-.13-.06s0,.07,0,.11l.09.17s0,0,0,0a1.63,1.63,0,0,0,.77.65l.1.05h0a1.75,1.75,0,0,0,.68.09,1.09,1.09,0,0,0,.26,0,1.7,1.7,0,0,0,.93-.62,1.55,1.55,0,0,0,.3-.68,1.79,1.79,0,0,0,0-.24v-.27h0c0-.2,0-.39,0-.58v0a1.33,1.33,0,0,1,.19-.67,1.83,1.83,0,0,1,.79-.57l.62-.31a22.52,22.52,0,0,0,2.68-1.48l.28-.19.22-.16a7.15,7.15,0,0,0,2.37-2.7,26.94,26.94,0,0,0,1.09-4c0-.11.07-.22.11-.33a31.41,31.41,0,0,1,2.36-4.34,9.8,9.8,0,0,0,.59-1.33,6.43,6.43,0,0,0,.22-.71,12.8,12.8,0,0,0,.3-3.55,16.83,16.83,0,0,0-1.45-7.15l-.11-.19a.3.3,0,0,0,0-.08,12.67,12.67,0,0,0-2.47-3l-.11-.1c-.25-.22-.5-.44-.76-.64l-.13-.1a12.33,12.33,0,0,0-1.88-1.13,12.22,12.22,0,0,0-1.5-.57,10.9,10.9,0,0,0-3.3-.5,11.21,11.21,0,0,0-5,1.19,17.22,17.22,0,0,0-4.07,3,8.13,8.13,0,0,0-1.68,1.93,11.17,11.17,0,0,0-.9,3.21,1,1,0,0,1-.38.72c-.22.12-.56,0-.56-.26A.9.9,0,0,0,16.16,119.86Z"/><path class="cls-22" d="M32.54,131.84a5.74,5.74,0,0,0,1.22-4.16,7.66,7.66,0,0,0-.23-1.72,6.92,6.92,0,0,0-1.28-2.39c-1.64-2.11-4-3.56-6.18-5.15a9.39,9.39,0,0,1-2.14-2,3.5,3.5,0,0,1-.69-2.71,3.06,3.06,0,0,0,.33,3.41,11.17,11.17,0,0,0,2.81,2.39,33,33,0,0,1,3.5,2.85,10.25,10.25,0,0,1,1.57,1.72,9.76,9.76,0,0,1,1,1.9,7.08,7.08,0,0,1,.68,3.37,3.13,3.13,0,0,1-2,2.69,2.22,2.22,0,0,1-1.25,0,1.37,1.37,0,0,0,1.35.5A2.36,2.36,0,0,0,32.54,131.84Z"/><path class="cls-22" d="M26.89,116.39c1.25,1.21,2.89,1.94,4.26,3a11.82,11.82,0,0,1,4.17,7,4.64,4.64,0,0,1,0,2.37,20.6,20.6,0,0,1-1.55,4.45,7.2,7.2,0,0,1-3.34,3.29,7.56,7.56,0,0,0-2.53,1.19,3.65,3.65,0,0,0-.8,3c0,.6.05,1.35-.49,1.64a.76.76,0,0,0,.69-.5,3.28,3.28,0,0,0,.18-.88,4.08,4.08,0,0,1,1.44-2.46A25.1,25.1,0,0,1,31.67,137a8.2,8.2,0,0,0,3.38-4.46,23.29,23.29,0,0,0,.89-5.56c.15-1.69-1.11-3.67-1.86-5.17a6.46,6.46,0,0,0-1.27-1.86,13,13,0,0,0-3-1.65,7.74,7.74,0,0,1-3.89-4.86c0,.14-.23.41-.25.57a1.8,1.8,0,0,0,.14.82A4.28,4.28,0,0,0,26.89,116.39Z"/><path class="cls-22" d="M32.3,137.57c-.78.42-1.69.55-2.49.93a2,2,0,0,0-1.33,2,4.45,4.45,0,0,1,2.14-1.84,17.25,17.25,0,0,0,2.57-1.31c1.51-1.08,2.25-2.89,2.92-4.59l1.43-3.68a13.6,13.6,0,0,0,.69-2,14.39,14.39,0,0,0,.06-4.54,7.87,7.87,0,0,0-.3-1.81,7.51,7.51,0,0,0-1.11-2,26.06,26.06,0,0,0-3.21-3.59A5.81,5.81,0,0,0,32,114c-.76-.33-1.63-.38-2.4-.68a3.77,3.77,0,0,1-1.91-1.65,2.34,2.34,0,0,0,1.13,1.44,14.22,14.22,0,0,0,1.71.83,13.08,13.08,0,0,1,3,2.18c2.17,2,4.08,4.55,4.41,7.46a14.56,14.56,0,0,1-1,6.1,23.72,23.72,0,0,1-2.72,6.05A5.78,5.78,0,0,1,32.3,137.57Z"/><path class="cls-22" d="M37.25,114.9c1.92,2.72,2.26,6.22,2.3,9.55a33.39,33.39,0,0,1-.15,3.87c-.31,3-1.39,6-1.37,9.06,0,2.76,2,5.06,2.46,7.72a4.32,4.32,0,0,1,0,1.86c-.44,1.63-2.2,2.63-2.71,4.24a3.19,3.19,0,0,0,.62,3c.32.36.73.65,1,1,.84,1.09.61,2.66.09,3.94A15.53,15.53,0,0,0,38.09,163a2.62,2.62,0,0,0,.39,1.82,1.44,1.44,0,0,0,1.68.56,1.51,1.51,0,0,1-2-.16,2.51,2.51,0,0,1-.62-2,7.66,7.66,0,0,1,.62-2.08c.3-.71.59-1.43.89-2.15a3.47,3.47,0,0,0,.4-1.8,3.72,3.72,0,0,0-.7-1.51,10.11,10.11,0,0,1-1.27-2.35,3.84,3.84,0,0,1,0-2.63,11.23,11.23,0,0,1,1.34-2,6.38,6.38,0,0,0,.9-5.24,23.28,23.28,0,0,0-1-2.21,12.76,12.76,0,0,1-1.19-6,38.7,38.7,0,0,1,1.12-6.48,26.79,26.79,0,0,0,.44-6.08,10.21,10.21,0,0,0-.23-2.41c-.18-.65-.47-1.26-.64-1.91a12.73,12.73,0,0,0-.54-2.31,5.4,5.4,0,0,0-1-1.35q-1.42-1.59-2.84-3.19c.47.46,1,.86,1.48,1.28S37.25,114.32,37.25,114.9Z"/><path class="cls-22" d="M31.81,144.16a2.85,2.85,0,0,0-.19-1.19c-.36-1,.08-2.38.16-3.41a.89.89,0,0,1,.14-.51,8,8,0,0,0,.06,3.27,5.1,5.1,0,0,1-.13,3.8c-.19.42-.42.82-.59,1.25a3.39,3.39,0,0,0-.06,2.37c.16.45.44.85.64,1.29a3.41,3.41,0,0,1-.13,3.15c-.36.56-.89,1-1.2,1.58a2.38,2.38,0,0,0-.12,1.92,2.2,2.2,0,0,1-.32-1.73c.3-1.25,1.65-2.1,1.74-3.38a5.49,5.49,0,0,0-.67-2.22,5.9,5.9,0,0,1,.17-4.66A4.12,4.12,0,0,0,31.81,144.16Z"/><path class="cls-27" d="M24.93,185a8.83,8.83,0,0,0-3.38-.88c-.11-.43.28-.86.7-1s.9-.16,1.32-.31A3.52,3.52,0,0,0,25.32,181a23.14,23.14,0,0,0,2.29-6.39,6.61,6.61,0,0,1,.36-1.39c.13-.3.32-.58.46-.88a3.66,3.66,0,0,0,.33-1.85c0-.11,0-.25.07-.32.32-.25.36.35.37.5,0,.4.11.79.12,1.19a13.07,13.07,0,0,1-.23,2.34c-.21,1.28-.49,2.56-.82,3.81a17.12,17.12,0,0,0-.75,3.52c0,.38.05.72.05,1.1a4.77,4.77,0,0,0,.15,1.36,5.82,5.82,0,0,1,.2.68.86.86,0,0,1-.16.68.82.82,0,0,1-.54.24A5.7,5.7,0,0,1,24.93,185Z"/><path class="cls-27" d="M29.18,165a4,4,0,0,0,1.28-1.5c.37-.94,0-2-.15-3,0-.07,0-.16.05-.19s.16,0,.22,0a7.15,7.15,0,0,1,2.18,3.16,6.53,6.53,0,0,1,.64,2.83,1.22,1.22,0,0,1-.14.56,1.24,1.24,0,0,1-.83.48,5.51,5.51,0,0,1-.71.08l-4,.34a.46.46,0,0,1-.26,0,.31.31,0,0,1-.15-.15,1,1,0,0,1,0-1,2.81,2.81,0,0,1,.71-.75Z"/><path class="cls-13" d="M8.11,145.49a.37.37,0,0,0,0,.18.55.55,0,0,0,.33-.24A3.88,3.88,0,0,0,8.7,145a1,1,0,0,1,1.08-.61,5.08,5.08,0,0,1,.78.45.85.85,0,0,0,.66.05.62.62,0,0,0,.41-.5c0-.32-.21-.59-.38-.88s-.19-.41-.29-.61l0,0a1.16,1.16,0,0,0,.15.91c.07.11.16.21.23.33a.43.43,0,0,1,0,.38c-.2.39-1,0-1.21-.22s-.29-.49-.56-.55H9.53a.65.65,0,0,0-.63.42,2.58,2.58,0,0,1-.44.67A.88.88,0,0,0,8.11,145.49Z"/><path class="cls-13" d="M18.47,128.67a1,1,0,0,1-.19-1,1.26,1.26,0,0,1,.43-.43,12.6,12.6,0,0,0,1.26-.91,3.21,3.21,0,0,0,1-2.43,17.1,17.1,0,0,1-.18-1.74c.47.23.55.81.65,1.27a3.87,3.87,0,0,1,0,1.66,2.29,2.29,0,0,1-.19.63,3,3,0,0,1-1.46,1.2,1.88,1.88,0,0,0-1,.85c-.25.63.23,1.15.74,1.44l.51.26a.83.83,0,0,1-.73-.2A3,3,0,0,1,18.47,128.67Z"/><path class="cls-15" d="M18.4,120.68a4.52,4.52,0,0,0-.47.11c-.2,0-.59.12-.72-.13a.37.37,0,0,1,.3-.53,2.68,2.68,0,0,1,2.3.6,1.06,1.06,0,0,1,.3.33.53.53,0,0,1,0,.12c0,.42-.56,0-.69,0a2,2,0,0,0-.8-.46A.7.7,0,0,0,18.4,120.68Z"/><path class="cls-10" d="M19.42,122.65c-.56-.16-1.49.21-1.45,1A1.34,1.34,0,0,0,19.56,125a3.62,3.62,0,0,0,1.15-.53A2.11,2.11,0,0,0,19.42,122.65Z"/><path class="cls-28" d="M18.52,123.75a.9.9,0,1,0,.9-.9A.9.9,0,0,0,18.52,123.75Z"/><path class="cls-29" d="M18.84,123.75a.58.58,0,1,0,.58-.58A.58.58,0,0,0,18.84,123.75Z"/><path class="cls-10" d="M19.41,123.39a.36.36,0,0,0,.71,0,.36.36,0,1,0-.71,0Z"/><path class="cls-30" d="M20.45,123.84a2.11,2.11,0,0,1,.16.34,1.08,1.08,0,0,0,.11.3c0-.11,0-.25,0-.36A1.82,1.82,0,0,0,19,122.54h-.17a1.17,1.17,0,0,0-.54.25,2.55,2.55,0,0,0-.42.45.58.58,0,0,1-.13.14.17.17,0,0,1-.18,0,1.36,1.36,0,0,0,.39.17,1.12,1.12,0,0,1,1.63-.62,2.07,2.07,0,0,1,.24.17A3,3,0,0,1,20.45,123.84Z"/><path class="cls-31" d="M18.87,132.46a.85.85,0,0,0,.54.37,2.45,2.45,0,0,0,1.67-.24c.29-.13.57-.3.85-.46l.08,0,1.48-.86a7.21,7.21,0,0,1-2.85.56c-.34,0-.68-.09-1-.11a.87.87,0,0,0-.69.18,0,0,0,0,0,0,0A.51.51,0,0,0,18.87,132.46Z"/><path class="cls-31" d="M18.49,130.65a.48.48,0,0,1,.48-.17,1.49,1.49,0,0,1,.51.19,5.44,5.44,0,0,0,2.33.45,9.56,9.56,0,0,0,2.36-.35,4.27,4.27,0,0,1-1.36.77,6.53,6.53,0,0,1-2.19.62,2.4,2.4,0,0,1-2-.83A.61.61,0,0,1,18.49,130.65Z"/><path class="cls-32" d="M20.31,132.5s0,.07,0,.09a.14.14,0,0,1-.08,0,1,1,0,0,1-1.05-.29.67.67,0,0,1-.13-.22.3.3,0,0,1,0-.13.11.11,0,0,1,.19,0,.64.64,0,0,1,.13.19.74.74,0,0,0,.62.35,2.72,2.72,0,0,1,.28,0Z"/><path class="cls-9" d="M11.44,166.45a1.22,1.22,0,0,0-.47.2,2.84,2.84,0,0,0-.73.56,2.78,2.78,0,0,0-.41.93c-.09.29-.17.57-.25.85a.37.37,0,0,0,.47-.1c.31-.3.38-.81.74-1.06s.94-.15,1.41-.28a.51.51,0,0,0,.4-.33.43.43,0,0,0-.14-.42,1.15,1.15,0,0,0-.42-.23A1.16,1.16,0,0,0,11.44,166.45Z"/><path class="cls-33" d="M6,134.69H6a.15.15,0,0,1-.17-.12,13.84,13.84,0,0,0-.56-2.3.15.15,0,0,1,.26-.14,15.35,15.35,0,0,1,.58,2.39A.13.13,0,0,1,6,134.69Z"/><path class="cls-33" d="M8.85,135.49a.12.12,0,0,1-.11,0,.12.12,0,0,1,0-.17s1.08-1.22,1.44-1.55a2.15,2.15,0,0,0,.47-.52.13.13,0,0,1,.17-.05.14.14,0,0,1,0,.17,2.28,2.28,0,0,1-.52.58c-.35.32-1.41,1.52-1.42,1.53S8.87,135.48,8.85,135.49Z"/><path class="cls-33" d="M11.3,136.75a.17.17,0,0,1-.15-.05.16.16,0,0,1,0-.21,7.86,7.86,0,0,1,2-1.29.15.15,0,0,1,.16.12.14.14,0,0,1-.12.17,7.87,7.87,0,0,0-1.85,1.22Z"/><path class="cls-33" d="M3.43,135.69a.14.14,0,0,1-.09,0,9.9,9.9,0,0,0-2-.85.11.11,0,0,1-.11-.13.11.11,0,0,1,.13-.1,9.88,9.88,0,0,1,2.11.86.12.12,0,0,1,0,.16A.1.1,0,0,1,3.43,135.69Z"/><path class="cls-33" d="M2.54,138.66h0a10.84,10.84,0,0,1-2.42,0,.14.14,0,0,1-.1-.18.15.15,0,0,1,.17-.1,11,11,0,0,0,2.32,0,.14.14,0,0,1,.15.13A.14.14,0,0,1,2.54,138.66Z"/><path class="cls-33" d="M2.74,142.27s0,0-.05,0-1.21.41-1.54.6a.15.15,0,1,1-.15-.25A16.54,16.54,0,0,1,2.59,142a.15.15,0,0,1,.19.09A.13.13,0,0,1,2.74,142.27Z"/><path class="cls-33" d="M12.48,139.94a.14.14,0,0,1-.15-.07.15.15,0,0,1,.05-.2,14.46,14.46,0,0,1,1.94-1,.14.14,0,0,1,.16.12.13.13,0,0,1-.12.16,16.16,16.16,0,0,0-1.83,1Z"/><path class="cls-34" d="M4.61,136.45c-.12,0-.2,0-.16.17l2.62,9.26a.41.41,0,0,0,.29.28l4.84,1.21c.13,0,.2,0,.16-.17l-2.62-9.26a.43.43,0,0,0-.29-.28Z"/><path class="cls-35" d="M4.61,136.45,9,137.54c0,.44.06.89.07,1.34a17.54,17.54,0,0,1-1.1,6.85l-.21.53-.37-.1a.41.41,0,0,1-.29-.28l-2.62-9.26C4.41,136.49,4.49,136.42,4.61,136.45Z"/><path class="cls-36" d="M4.46,136.48h0v0h0v0l2.62,9.26a0,0,0,0,0,0,0h0v0h0s0,0,0,0h0a0,0,0,0,1,0,0h.19l4.84,1.21a.13.13,0,0,0,.14,0l-.31.33a.15.15,0,0,1-.15,0L7,146.49H7l0,0H6.83l0,0h0s0,0,0,0h0s0,0,0,0l-2.62-9.27h0v0h0l.32-.33Z"/><path class="cls-37" d="M9.12,146.27a.43.43,0,0,0,.16.09l.8.2a.16.16,0,0,0,.14,0,.13.13,0,0,0,0-.14l0-.09a.29.29,0,0,0-.1-.15.3.3,0,0,0-.15-.09l-.8-.2A.12.12,0,0,0,9,146l0,.08A.47.47,0,0,0,9.12,146.27Z"/><path class="cls-38" d="M9.16,145.88c-.1,0-.16,0-.13.14l0,.08a.37.37,0,0,0,.24.23l.79.2c.11,0,.17,0,.14-.13l0-.09a.37.37,0,0,0-.23-.23Z"/><path class="cls-39" d="M6.85,137.43s-.06,0,0,.06a.14.14,0,0,0,.09.09l.63.15s.06,0,.05,0a.14.14,0,0,0-.09-.09Z"/><path class="cls-39" d="M6.48,137.34s-.06,0-.05,0a.15.15,0,0,0,.09.1s.06,0,.05-.06A.14.14,0,0,0,6.48,137.34Z"/><polygon class="cls-40" points="4.93 137.36 7.07 144.93 11.79 146.11 9.65 138.54 4.93 137.36"/><path class="cls-41" d="M10.89,146.46s-.07,0-.05,0a.14.14,0,0,0,.09.09l.62.16a0,0,0,0,0,.06-.06.18.18,0,0,0-.1-.09Z"/><path class="cls-41" d="M7.69,145.66s-.06,0-.05.05a.14.14,0,0,0,.09.09l.62.16c.05,0,.07,0,.06-.06a.15.15,0,0,0-.1-.09Z"/><path class="cls-42" d="M9.16,145.88l.79.2a1.88,1.88,0,0,1-.7.24.39.39,0,0,1-.2-.22L9,146C9,145.92,9.06,145.86,9.16,145.88Z"/><polygon class="cls-43" points="13.76 90.23 14.14 75.86 14.53 90.23 13.76 90.23"/><polygon class="cls-43" points="15.94 85.3 16.32 70.93 16.71 85.3 15.94 85.3"/><polygon class="cls-43" points="23.41 86.85 23.8 72.48 24.19 86.85 23.41 86.85"/><polygon class="cls-43" points="39 49.31 39.39 34.95 39.77 49.31 39 49.31"/><polygon class="cls-43" points="50.59 58.19 50.98 43.82 51.37 58.19 50.59 58.19"/><polygon class="cls-43" points="45.02 98.19 45.41 83.83 45.79 98.19 45.02 98.19"/><polygon class="cls-43" points="47.69 100.26 48.08 85.9 48.47 100.26 47.69 100.26"/><polygon class="cls-43" points="58.42 98.19 58.81 83.83 59.19 98.19 58.42 98.19"/><polygon class="cls-43" points="10.69 53.87 11.08 39.5 11.47 53.87 10.69 53.87"/><polygon class="cls-43" points="13.37 55.94 13.75 41.58 14.14 55.94 13.37 55.94"/><polygon class="cls-43" points="24.09 53.87 24.48 39.5 24.87 53.87 24.09 53.87"/><polygon class="cls-43" points="7.45 31.44 7.84 17.07 8.23 31.44 7.45 31.44"/><polygon class="cls-43" points="32.78 18.36 33.17 4 33.56 18.36 32.78 18.36"/><polygon class="cls-43" points="43.3 25.55 43.69 11.18 44.08 25.55 43.3 25.55"/><polygon class="cls-43" points="20.02 29 20.41 0 20.8 29 20.02 29"/><polygon class="cls-44" points="33.17 16.22 46.41 25.85 47.3 30.9 34.06 21.26 33.17 16.22"/><polygon class="cls-45" points="34.06 21.26 47.3 30.9 43.72 33.89 30.48 24.25 34.06 21.26"/><polygon class="cls-46" points="34.06 21.26 30.48 24.25 29.59 19.21 33.17 16.22 34.06 21.26"/><polygon class="cls-46" points="8.76 51.53 24.04 50.08 29.04 54.65 11.56 56.66 8.76 51.53"/><polygon class="cls-47" points="11.56 56.66 11.56 62.88 8.53 55.95 8.76 51.53 11.56 56.66"/><polygon class="cls-44" points="29.04 54.65 28.24 60.96 11.56 62.88 11.56 56.66 29.04 54.65"/><polygon class="cls-48" points="52.98 55.17 38.4 47.72 33.5 49.21 48.08 56.66 52.98 55.17"/><polygon class="cls-47" points="48.08 56.66 33.5 49.21 32.45 53.76 47.03 61.21 48.08 56.66"/><polygon class="cls-44" points="48.08 56.66 47.03 61.21 51.93 59.72 52.98 55.17 48.08 56.66"/><polygon class="cls-48" points="29.9 65.28 34.65 77.36 43.49 73.66 38.19 62.15 29.9 65.28"/><polygon class="cls-44" points="34.65 77.36 35.99 79.62 44.13 76.25 43.49 73.66 34.65 77.36"/><polygon class="cls-44" points="24.15 84.73 25.89 88.09 22.76 101.43 13.15 100.12 24.15 84.73"/><polygon class="cls-49" points="15.88 83.95 24.15 84.73 21.02 98.07 11.41 96.76 15.88 83.95"/><polygon class="cls-47" points="21.02 98.07 22.76 101.43 13.15 100.12 11.41 96.76 21.02 98.07"/><polygon class="cls-47" points="3.77 31.36 5.9 34.5 19.13 38.08 22.54 29 3.77 31.36"/><polygon class="cls-49" points="7.02 23.71 3.77 31.36 17 34.95 20.41 25.87 7.02 23.71"/><polygon class="cls-44" points="17 34.95 19.13 38.08 22.54 29 20.41 25.87 17 34.95"/><polygon class="cls-48" points="60.29 96.48 45.41 95.14 45.96 102.85 60.85 104.19 60.29 96.48"/><polygon class="cls-47" points="45.41 95.14 43.16 98.67 43.72 106.38 45.96 102.85 45.41 95.14"/><polygon class="cls-44" points="60.85 104.19 58.6 107.73 43.72 106.38 45.96 102.85 60.85 104.19"/></g></g></g></svg>