<svg xmlns="http://www.w3.org/2000/svg" viewBox="0 0 154.34 140.21"><defs><style>.cls-1{isolation:isolate;}.cls-2{fill:#939598;opacity:0.5;}.cls-2,.cls-24,.cls-41{mix-blend-mode:multiply;}.cls-3{fill:#dcdcdc;}.cls-4{fill:#888588;}.cls-5{fill:#cfcdcf;}.cls-6{fill:#bab7bb;}.cls-7{fill:#e0f7fa;}.cls-8{fill:#ff7043;}.cls-9{fill:#e0e0e0;}.cls-10{fill:#ff8a65;}.cls-11{fill:#fafafa;mix-blend-mode:soft-light;}.cls-12{fill:#66bb6a;}.cls-13{fill:#81c784;}.cls-14{fill:#26a69a;}.cls-15{fill:#455a64;}.cls-16{fill:#90a4ae;}.cls-17{fill:#bdbdbd;}.cls-18{fill:#eee;}.cls-19{fill:#78909c;}.cls-20{fill:#4db6ac;}.cls-21{fill:#546e7a;}.cls-22{fill:#ffd54f;}.cls-23{fill:#64b5f6;}.cls-24{fill:#ffa726;}.cls-25{fill:#a0d5a3;}.cls-26{fill:#79db7c;}.cls-27{fill:#facfa6;}.cls-28{fill:#dddee2;}.cls-29,.cls-42,.cls-43{fill:#fff;}.cls-30{fill:#b3b3b3;}.cls-31{fill:#f8d09c;}.cls-32{fill:#facfc8;}.cls-33{fill:#e5c1bb;}.cls-34{fill:#513e40;}.cls-35{fill:#e6b580;}.cls-36{fill:#ac8a78;}.cls-37{fill:#2a1c1c;}.cls-38{fill:#784f39;}.cls-39{fill:#402b1e;}.cls-40,.cls-42,.cls-43{mix-blend-mode:overlay;}.cls-40,.cls-41{opacity:0.4;}.cls-42{opacity:0.3;}.cls-44{opacity:0.1;}.cls-45{fill:#3e4040;}.cls-46{fill:#e2551c;}.cls-47{fill:#ab4412;}.cls-48{fill:#d1d1d1;}.cls-49{fill:#120e0e;opacity:0.2;}.cls-50{fill:#335e35;}.cls-51{fill:#003240;}.cls-52{opacity:0.6;}.cls-53{fill:#f6c086;}</style></defs><g class="cls-1"><g id="Capa_2" data-name="Capa 2"><g id="Capa_1-2" data-name="Capa 1"><ellipse class="cls-2" cx="124.04" cy="103.58" rx="30.3" ry="5.57"/><polygon class="cls-3" points="65.39 33.47 67.46 32.26 85.07 42.43 83 43.64 65.39 33.47"/><polygon class="cls-4" points="82.95 88.71 83 43.64 65.39 33.47 65.41 78.59 82.95 88.71"/><polygon class="cls-5" points="82.95 88.71 85.02 87.51 85.07 42.43 83 43.64 82.95 88.71"/><g class="cls-1"><polygon class="cls-3" points="1.66 73.8 19.26 83.96 83.02 43.64 65.39 33.47 1.66 73.8"/></g><polygon class="cls-5" points="83.02 43.64 19.26 83.94 19.26 86.37 82.99 46.03 83.02 43.64"/><polygon class="cls-5" points="19.26 86.37 1.66 76.21 1.66 73.8 19.26 83.96 19.26 86.37"/><polygon class="cls-3" points="0 74.78 2.08 73.58 19.69 83.75 17.61 84.95 0 74.78"/><polygon class="cls-6" points="17.57 127.15 17.61 84.95 0 74.78 0.02 117.02 17.57 127.15"/><polygon class="cls-5" points="17.57 127.15 19.64 125.94 19.69 83.75 17.61 84.95 17.57 127.15"/><ellipse class="cls-7" cx="19.51" cy="68.05" rx="9.25" ry="9.04"/><rect class="cls-7" x="16.62" y="48.87" width="6.11" height="19.34"/><path class="cls-8" d="M25.67,63H20.62a.6.6,0,0,0-1.2,0h-.79a1.19,1.19,0,0,0-2.37,0H13.68a7.63,7.63,0,0,0-1.91,5,7.91,7.91,0,0,0,15.81,0A7.63,7.63,0,0,0,25.67,63Z"/><path class="cls-7" d="M23.05,47.49H16.36a.51.51,0,0,0-.51.5v.39a.5.5,0,0,0,.51.49h6.69a.5.5,0,0,0,.51-.49V48A.51.51,0,0,0,23.05,47.49Z"/><rect class="cls-9" x="16.62" y="48.87" width="6.11" height="0.68"/><path class="cls-10" d="M14.62,66.66a.56.56,0,1,1-.55-.54A.55.55,0,0,1,14.62,66.66Z"/><path class="cls-10" d="M18.64,73a.54.54,0,1,0,.56.54A.55.55,0,0,0,18.64,73Z"/><path class="cls-10" d="M14.14,70.94a.34.34,0,0,0,0,.68.34.34,0,1,0,0-.68Z"/><path class="cls-10" d="M20,66.12a.34.34,0,1,0,.34.34A.34.34,0,0,0,20,66.12Z"/><path class="cls-10" d="M25.28,65.16a.54.54,0,1,0,.56.54A.55.55,0,0,0,25.28,65.16Z"/><path class="cls-10" d="M23.07,68.05a1,1,0,1,0,1,1A1,1,0,0,0,23.07,68.05Z"/><path class="cls-11" d="M18.33,60.2c-.8-.79-2.93,0-4.74,1.78S11,65.82,11.76,66.61s2.93,0,4.74-1.78S19.14,61,18.33,60.2Z"/><path class="cls-10" d="M21.93,61.53a.66.66,0,1,1-.66-.64A.65.65,0,0,1,21.93,61.53Z"/><path class="cls-10" d="M22.73,62a.28.28,0,1,0,0,.55.28.28,0,1,0,0-.55Z"/><path class="cls-10" d="M19,61.11a.3.3,0,0,0-.31.3.32.32,0,0,0,.63,0A.31.31,0,0,0,19,61.11Z"/><rect class="cls-7" x="41.99" y="46.84" width="1.15" height="13.37" rx="0.41" transform="translate(-22.5 32.48) rotate(-33.59)"/><path class="cls-7" d="M38.77,48.85,25.94,57.38a.8.8,0,0,0-.23,1.12l5.73,8.63a.8.8,0,0,0,1.12.22L45.4,58.82Z"/><path class="cls-12" d="M39.18,58.1a.52.52,0,0,0-.57-.88l-.74-1.11a1,1,0,1,0-1.15-1.72l-1.34-2-8.06,5.36a.7.7,0,0,0-.2,1l4.67,7a.7.7,0,0,0,1,.2l8.07-5.36Z"/><rect class="cls-9" x="35.86" y="53.71" width="11.97" height="0.57" transform="translate(63.68 -10.74) rotate(56.41)"/><path class="cls-13" d="M31.85,59.53a.71.71,0,1,0-.2,1A.7.7,0,0,0,31.85,59.53Z"/><path class="cls-13" d="M34.37,55.08a.72.72,0,0,0-1-.2.73.73,0,0,0-.2,1,.71.71,0,0,0,1.19-.79Z"/><path class="cls-13" d="M39.64,55.16a.32.32,0,1,0-.53.36.33.33,0,0,0,.44.09A.32.32,0,0,0,39.64,55.16Z"/><path class="cls-13" d="M39.16,56.21a.22.22,0,0,0-.31-.06.22.22,0,0,0-.06.3.22.22,0,0,0,.31.06A.22.22,0,0,0,39.16,56.21Z"/><path class="cls-13" d="M34.33,59.42a.35.35,0,1,0-.59.39.35.35,0,0,0,.59-.39Z"/><path class="cls-13" d="M36.93,61.26a.37.37,0,0,0-.5-.1.35.35,0,0,0-.09.49.34.34,0,0,0,.49.1A.36.36,0,0,0,36.93,61.26Z"/><path class="cls-13" d="M28.9,58.29a.36.36,0,0,0-.5-.1.36.36,0,1,0,.5.1Z"/><path class="cls-13" d="M32,63.7a.35.35,0,0,0-.49-.1.35.35,0,0,0-.1.49A.35.35,0,0,0,32,63.7Z"/><path class="cls-13" d="M38.07,57.78a.35.35,0,0,0-.59.39.35.35,0,1,0,.59-.39Z"/><path class="cls-7" d="M48.24,35.23V51.78a2.14,2.14,0,0,0,4.27,0V35.23Z"/><path class="cls-14" d="M48.94,42.18v9.6a1.44,1.44,0,0,0,2.87,0v-9.6Z"/><rect class="cls-7" x="47.7" y="34.25" width="5.39" height="0.98" rx="0.35"/><rect class="cls-9" x="48.24" y="35.23" width="4.27" height="0.48"/><path class="cls-11" d="M49,36.1a.33.33,0,0,0-.33.33V51.52a.34.34,0,0,0,.67,0V36.43A.34.34,0,0,0,49,36.1Z"/><path class="cls-15" d="M48.29,33.16H52.5a.35.35,0,0,1,.35.35v.39a.35.35,0,0,1-.35.35h-4.2a.35.35,0,0,1-.35-.35v-.39a.34.34,0,0,1,.34-.34Z"/><path class="cls-16" d="M48.94,34.26v.31a.34.34,0,0,0,.34.34h2.19a.34.34,0,0,0,.34-.34v-.31Z"/><rect class="cls-17" x="49.44" y="37.05" width="1.92" height="0.24"/><rect class="cls-17" x="49.77" y="38.16" width="1.25" height="0.24"/><rect class="cls-17" x="49.77" y="39.28" width="1.25" height="0.24"/><rect class="cls-17" x="49.44" y="40.39" width="1.92" height="0.24"/><rect class="cls-17" x="49.77" y="41.5" width="1.25" height="0.24"/><rect class="cls-17" x="49.77" y="42.61" width="1.25" height="0.24"/><rect class="cls-17" x="49.44" y="43.72" width="1.92" height="0.24"/><rect class="cls-17" x="49.77" y="44.84" width="1.25" height="0.24"/><rect class="cls-17" x="49.77" y="45.95" width="1.25" height="0.24"/><rect class="cls-17" x="49.44" y="47.06" width="1.92" height="0.24"/><path class="cls-18" d="M71.09,15.86a.42.42,0,0,0-.42.42V42.37h.84V16.28A.42.42,0,0,0,71.09,15.86Z"/><path class="cls-17" d="M70.67,21v2.94a1.52,1.52,0,0,0,.42.06,1.42,1.42,0,0,0,.42-.06V21a1.42,1.42,0,0,0-.42-.06A1.52,1.52,0,0,0,70.67,21Z"/><path class="cls-19" d="M75.78,21.5H64.3v.83H75.78a.42.42,0,0,0,.42-.42A.41.41,0,0,0,75.78,21.5Z"/><rect class="cls-7" x="59.41" y="19.52" width="3.71" height="12.01"/><path class="cls-7" d="M68.49,35.53l-5.37-11H59.41l-5.34,11a1,1,0,0,0,.87,1.38H67.63A1,1,0,0,0,68.49,35.53Z"/><path class="cls-14" d="M67.34,35.3l-3.79-7.75h-.77a.83.83,0,0,0-1.65,0h-.81a.38.38,0,1,0-.75,0H59L55.22,35.3a.44.44,0,0,0,.4.63H67A.43.43,0,0,0,67.34,35.3Z"/><rect class="cls-7" x="58.95" y="18.67" width="4.67" height="0.85" rx="0.31"/><rect class="cls-9" x="59.41" y="19.52" width="3.71" height="0.42"/><path class="cls-20" d="M58.73,31.22a.42.42,0,1,0,0,.83.42.42,0,0,0,0-.83Z"/><path class="cls-20" d="M62.86,32.45a.9.9,0,1,0,.9.9A.9.9,0,0,0,62.86,32.45Z"/><path class="cls-20" d="M60.46,33.84a.21.21,0,0,0-.21.21.2.2,0,0,0,.21.2.2.2,0,0,0,.2-.2A.2.2,0,0,0,60.46,33.84Z"/><path class="cls-20" d="M64.18,31.64a.2.2,0,0,0-.21.2.21.21,0,0,0,.21.21.2.2,0,0,0,.2-.21A.2.2,0,0,0,64.18,31.64Z"/><path class="cls-20" d="M59.89,28.81a.21.21,0,0,0-.21.21.2.2,0,0,0,.21.2.21.21,0,1,0,0-.41Z"/><path class="cls-20" d="M60.75,26.75a.21.21,0,0,0-.21.21.21.21,0,0,0,.21.21A.2.2,0,0,0,61,27,.21.21,0,0,0,60.75,26.75Z"/><path class="cls-20" d="M57,34.67a.38.38,0,1,0,0,.75.38.38,0,0,0,0-.75Z"/><rect class="cls-21" x="53.14" y="42.37" width="24.49" height="0.86" rx="0.21"/><path class="cls-15" d="M54,43.23v.32a.29.29,0,0,0,.29.29h.61a.29.29,0,0,0,.29-.29v-.32Z"/><path class="cls-15" d="M76.8,43.23v.32a.29.29,0,0,1-.3.29h-.6a.3.3,0,0,1-.3-.29v-.32Z"/><path class="cls-18" d="M71.09,23.44a1.53,1.53,0,1,1,1.53-1.53A1.53,1.53,0,0,1,71.09,23.44Z"/><path class="cls-9" d="M60.09,21.21v1.65a.6.6,0,0,1-.6.6h-.08V20.61h.08A.6.6,0,0,1,60.09,21.21Z"/><path class="cls-9" d="M63.12,20.61v2.85H63a.6.6,0,0,1-.61-.6V21.21a.6.6,0,0,1,.61-.6Z"/><path class="cls-15" d="M58.9,20.42h.79a.41.41,0,0,1,.41.41v2a.41.41,0,0,1-.41.41H58.9a.17.17,0,0,1-.17-.17V20.6A.17.17,0,0,1,58.9,20.42Z"/><path class="cls-15" d="M62.84,20.42h.79a.17.17,0,0,1,.17.17v2.51a.17.17,0,0,1-.17.17h-.79a.41.41,0,0,1-.41-.41v-2A.41.41,0,0,1,62.84,20.42Z"/><rect class="cls-19" x="58.49" y="20.68" width="0.23" height="2.35"/><path class="cls-16" d="M57.74,21.14v1.42a.45.45,0,0,0,.46.46h.53V20.68H58.2A.46.46,0,0,0,57.74,21.14Z"/><path class="cls-16" d="M64.33,20.68H63.8V23h.53a.46.46,0,0,0,.47-.46V21.14A.47.47,0,0,0,64.33,20.68Z"/><rect class="cls-19" x="63.8" y="20.68" width="0.24" height="2.35" transform="translate(127.84 43.7) rotate(180)"/><path class="cls-21" d="M71.09,22.94a1,1,0,1,1,1-1A1,1,0,0,1,71.09,22.94Z"/><path class="cls-22" d="M62.25,39.52a6.76,6.76,0,0,0-1-2,6.76,6.76,0,0,0-1,2,1,1,0,1,0,1.94,0Z"/><path class="cls-17" d="M61.28,39.74h0a.08.08,0,0,0-.08.08v1.34a.08.08,0,0,0,.08.08h0a.07.07,0,0,0,.08-.08V39.82A.07.07,0,0,0,61.28,39.74Z"/><path class="cls-7" d="M58.51,41H64a.36.36,0,0,1,.36.36v1a0,0,0,0,1,0,0H58.14a0,0,0,0,1,0,0v-1A.36.36,0,0,1,58.51,41Z"/><rect class="cls-23" x="58.56" y="41.66" width="5.41" height="0.53"/><path class="cls-24" d="M61.83,39.74a3.72,3.72,0,0,0-.55-1.12,3.75,3.75,0,0,0-.54,1.12.54.54,0,0,0,.54.54A.55.55,0,0,0,61.83,39.74Z"/><path class="cls-25" d="M46.18,63.56s.61.3-.3,1.52-.31,2.43,1.21,1.52.91-2.13,3-1.52,3.64.3,4.55-1.22,2.43-2.43-1.82-3-7.89-3.95-7-2.13a6.55,6.55,0,0,1,.6,3.65Z"/><path class="cls-26" d="M49.08,76.46a.71.71,0,1,0,.71.71A.71.71,0,0,0,49.08,76.46Z"/><path class="cls-26" d="M46.77,71.9a.71.71,0,1,0,.71.71A.71.71,0,0,0,46.77,71.9Z"/><path class="cls-26" d="M49.76,67.55a.32.32,0,0,0-.32.32.32.32,0,0,0,.32.32.32.32,0,0,0,.32-.32A.33.33,0,0,0,49.76,67.55Z"/><path class="cls-26" d="M50.36,68.53a.22.22,0,1,0,.22.22A.22.22,0,0,0,50.36,68.53Z"/><path class="cls-26" d="M50.36,74.33a.36.36,0,1,0,.36.36A.36.36,0,0,0,50.36,74.33Z"/><path class="cls-26" d="M53.34,73.19a.36.36,0,1,0,.35.35A.36.36,0,0,0,53.34,73.19Z"/><path class="cls-26" d="M46.42,78.23a.36.36,0,1,0,0,.71.36.36,0,0,0,0-.71Z"/><path class="cls-26" d="M52.63,78.66A.35.35,0,1,0,53,79,.35.35,0,0,0,52.63,78.66Z"/><path class="cls-26" d="M51.07,70.31a.36.36,0,0,0,0,.71.36.36,0,1,0,0-.71Z"/><path class="cls-26" d="M64,97.55a.7.7,0,0,0-.88.47.71.71,0,1,0,1.35.41A.7.7,0,0,0,64,97.55Z"/><path class="cls-26" d="M63.1,92.52a.71.71,0,0,0-.41,1.36.71.71,0,1,0,.41-1.36Z"/><path class="cls-26" d="M67.21,89.21a.32.32,0,0,0-.4.21.33.33,0,0,0,.21.4.32.32,0,1,0,.19-.61Z"/><path class="cls-26" d="M67.5,90.32a.22.22,0,0,0-.27.15.22.22,0,1,0,.42.12A.22.22,0,0,0,67.5,90.32Z"/><path class="cls-26" d="M65.85,95.87a.38.38,0,0,0-.45.24.37.37,0,0,0,.24.45.36.36,0,0,0,.21-.69Z"/><path class="cls-26" d="M69,95.63a.37.37,0,0,0-.44.24.35.35,0,0,0,.24.44.35.35,0,0,0,.44-.23A.36.36,0,0,0,69,95.63Z"/><path class="cls-26" d="M61,98.48a.37.37,0,0,0-.45.24.36.36,0,0,0,.24.44.35.35,0,0,0,.44-.24A.36.36,0,0,0,61,98.48Z"/><path class="cls-26" d="M66.78,100.67a.36.36,0,1,0-.21.68.35.35,0,0,0,.44-.24A.35.35,0,0,0,66.78,100.67Z"/><path class="cls-26" d="M67.68,92.23a.35.35,0,1,0-.21.67.35.35,0,1,0,.21-.67Z"/><path class="cls-26" d="M42.86,87.2a.71.71,0,1,0,.71.71A.7.7,0,0,0,42.86,87.2Z"/><path class="cls-26" d="M40.55,82.65a.71.71,0,1,0,.71.71A.71.71,0,0,0,40.55,82.65Z"/><path class="cls-26" d="M43.54,78.3a.32.32,0,1,0,.32.32A.32.32,0,0,0,43.54,78.3Z"/><path class="cls-26" d="M44.14,79.28a.22.22,0,1,0,.22.22A.22.22,0,0,0,44.14,79.28Z"/><path class="cls-26" d="M44.14,85.08a.36.36,0,0,0,0,.71.36.36,0,1,0,0-.71Z"/><path class="cls-26" d="M47.12,83.93a.36.36,0,0,0-.36.36.36.36,0,0,0,.71,0A.36.36,0,0,0,47.12,83.93Z"/><path class="cls-26" d="M40.2,89a.36.36,0,1,0,.35.35A.36.36,0,0,0,40.2,89Z"/><path class="cls-26" d="M46.41,89.4a.36.36,0,1,0,0,.71.36.36,0,0,0,0-.71Z"/><path class="cls-26" d="M44.85,81.06a.35.35,0,0,0-.35.35.36.36,0,0,0,.71,0A.35.35,0,0,0,44.85,81.06Z"/><path class="cls-26" d="M69,108.24a.71.71,0,0,0-1,.26.71.71,0,0,0,1.23.71A.7.7,0,0,0,69,108.24Z"/><path class="cls-26" d="M69.31,103.14a.71.71,0,0,0-.71,1.23.71.71,0,1,0,.71-1.23Z"/><path class="cls-26" d="M74.07,100.86a.33.33,0,0,0-.44.12.32.32,0,1,0,.55.32A.32.32,0,0,0,74.07,100.86Z"/><path class="cls-26" d="M74.1,102a.22.22,0,1,0-.22.37.22.22,0,0,0,.3-.08A.21.21,0,0,0,74.1,102Z"/><path class="cls-26" d="M71.2,107a.35.35,0,1,0,.13.48A.35.35,0,0,0,71.2,107Z"/><path class="cls-26" d="M74.35,107.53a.37.37,0,0,0-.49.13.38.38,0,0,0,.13.49.36.36,0,1,0,.36-.62Z"/><path class="cls-26" d="M65.83,108.44a.36.36,0,0,0-.35.62.35.35,0,0,0,.48-.13A.36.36,0,0,0,65.83,108.44Z"/><path class="cls-26" d="M71,111.91a.36.36,0,0,0-.35.62.35.35,0,0,0,.48-.13A.36.36,0,0,0,71,111.91Z"/><path class="cls-26" d="M73.83,103.91a.35.35,0,1,0,.13.48A.36.36,0,0,0,73.83,103.91Z"/><path class="cls-13" d="M35.89,45.66a.71.71,0,1,0,.71.71A.71.71,0,0,0,35.89,45.66Z"/><path class="cls-13" d="M33.58,41.11a.71.71,0,1,0,.71.71A.71.71,0,0,0,33.58,41.11Z"/><path class="cls-13" d="M36.56,36.76a.32.32,0,0,0,0,.64.32.32,0,0,0,0-.64Z"/><path class="cls-13" d="M37.17,37.74a.22.22,0,0,0,0,.44.22.22,0,0,0,0-.44Z"/><path class="cls-13" d="M37.17,43.54a.35.35,0,0,0-.36.35.36.36,0,1,0,.71,0A.35.35,0,0,0,37.17,43.54Z"/><path class="cls-13" d="M40.14,42.39a.36.36,0,1,0,.36.36A.36.36,0,0,0,40.14,42.39Z"/><path class="cls-13" d="M33.22,47.44a.36.36,0,0,0,0,.71.36.36,0,1,0,0-.71Z"/><path class="cls-13" d="M39.43,47.86a.36.36,0,1,0,.36.36A.36.36,0,0,0,39.43,47.86Z"/><path class="cls-13" d="M37.88,39.51a.36.36,0,1,0,0,.71.36.36,0,0,0,0-.71Z"/><path class="cls-27" d="M122.36,10.32a7.39,7.39,0,0,1,.12-2.86A17,17,0,0,0,125,5.05c-.35-.76-1.4-.12-1.83.32-.1-.69.48-1.74.44-2.43,0-2.1-1.16-.76-1.34-.78-.62-.08-2.19-.27-2.7.21s-.41.69-.49,1.32a7.49,7.49,0,0,0,.23,2A16.41,16.41,0,0,0,120,7.6c0,.44-.32,2.25,0,2.57s1-.08,1.53-.12"/><path class="cls-28" d="M136.86,100a3.88,3.88,0,0,1,1.14,1.72c.62,1.87.82,1.85-.21,2.32a22.9,22.9,0,0,1-5.9,1.39c-2.62.34-5.58.67-7.1.18-.52-.17-.55-.73-.36-1.41s3.49-.66,4.76-1.35c.69-.36,1.95-1.15,1.86-1.4,0,0,0,.09,0,.13Z"/><path class="cls-28" d="M106.16,100.71c.27-.72,3.91-.52,5.31-1.17a14.83,14.83,0,0,0,3-2.34l5.67-.11a6.61,6.61,0,0,1,.63,1.68c.49,2,.66,2-.47,2.42a25,25,0,0,1-6.36,1.18c-2.79.24-6,.44-7.51-.15C105.89,102,105.9,101.42,106.16,100.71Z"/><path class="cls-28" d="M113.58,97.26s1.17-18.06,2.4-22.87c.51-2,1.5-6,2.45-10,.49-2,1-3.92,1.37-5.55,2.52,3.64,6.07,5.56,6.82,9.26L119.8,97.82h-.2L114,97.29Z"/><path class="cls-29" d="M120,62.83c-.31-1.12-.52-1.95-.59-2.28-.13-.66-.64-1.78-.73-2.43a30.86,30.86,0,0,0,14.59-.73,11,11,0,0,1-1.64,4.51c-.61,1,.33,15.29.33,15.29L137,99.91l-.18.06-5.76,1.58s0-.09,0-.13a206.81,206.81,0,0,1-6.76-22.69c0-.15,0-.34-.05-.5C123.31,74.77,121.1,66.85,120,62.83Z"/><path class="cls-30" d="M135.68,92.31l-.15.36Z"/><path class="cls-27" d="M120.79,37.19a16.16,16.16,0,0,1-2.17-8.67c.11-5.22-.24-9.38.56-14.5.29-1.86.47-4.33,1-4.62s2.44-.13,2.23.64c-.67,2.37-.57,7.75-.34,9.9.35,3.56.78,5.17,1,8.73.07,1.27,1.56,3.07,1.54,4.41-.07,1.58-.37,1.68-1.73,2.66-.62.53-1.36,1-2,1.52"/><path class="cls-29" d="M120.92,37.26c.62-.53,1.36-1,2-1.52,1.36-1,1.66-1.08,1.73-2.66,0-1.34-.87-2.77-.95-4s-.35-3-.5-4.23l-4.61-.8c0,1,.07,3.45.05,4.51a16.16,16.16,0,0,0,2.17,8.67"/><path class="cls-29" d="M132.44,38.06c.14-2.27,2.2-5.45-.51-6.77-1.33-.65-4.55-.79-6.3-.74a10.73,10.73,0,0,0-4.36.92l-.7.57a41.34,41.34,0,0,0-1.5,9.24c.13,5.15-.18,15-.45,17,4.65.81,3.79,1.49,8.54.59,2.59-.49,5.53-.66,7.06-1.94C132.86,52.6,132.17,42.69,132.44,38.06Z"/><path class="cls-31" d="M123.72,26.21a12.24,12.24,0,0,1-.28,5.28l.75.46c1.49.86,5-.23,5.52-.9.12-.14-.27-1.05-.45-2.69-.25-2.36-.1-2.81-2.4-2.65-1.07.06-2.09.36-3.18.34"/><path class="cls-32" d="M118.44,6.84c-2.08,6-3.28,16.05-1.43,17.72,5.23,4.77,4.92,5.3,9.71,4.08a26.41,26.41,0,0,0,5.81-2.16c2.16-1.17,2.06-1.4,2.79-3.23.15-.37,4.49.07,5.09-5,.31-2.54-1.61-3.45-3.79-3.27-.37-9.63-10-15.39-17.4-9.39"/><path class="cls-33" d="M131,7.39c5.51-2.38,7.17,1.71,5.6,7.63,2.18-.18,4.1.73,3.79,3.27-.6,5-4.94,4.59-5.09,5-.73,1.83-.63,2.06-2.79,3.23a26.41,26.41,0,0,1-5.81,2.16s8.22-6.26,6.69-15.54c0,0-.5-3.65-2-4.76l-.41-1"/><path class="cls-34" d="M131.86,14c-1.62-.5-4.29-.62-5.87-1.36-.88-.41-.81.54,0,1.06a11.21,11.21,0,0,0,5.23,1.7c1,.09,1.56-1.11.61-1.4Z"/><path class="cls-34" d="M116.56,12.65c1.26-.41,3.34-.54,4.56-1.13.68-.33.64.41,0,.82a8.75,8.75,0,0,1-4,1.39c-.76.08-1.23-.84-.5-1.08Z"/><path class="cls-35" d="M138.06,20.35a11.18,11.18,0,0,0-1.19-.41,5.28,5.28,0,0,1,1.21-2.42c.56-.73.11-.82-.14-.43A10.17,10.17,0,0,0,136.25,20a.37.37,0,0,0,.34.47c.46.07.92.11,1.37.22S138.52,20.46,138.06,20.35Z"/><path class="cls-36" d="M121.28,21.63c.07-.6,1.65-1.08,1.55-2.3,0-.69-.3-3.17-.9-3.45,0,0,.75,2.7.34,3.72-.33.75-1.68,1.32-1.69,2.11,0,.62,1.53,1.44,2.11,1.12C123,22.68,121.4,22.23,121.28,21.63Z"/><path class="cls-37" d="M124.33,1.79c1.73-.49,8.24-1,10.16-.57,1.29.32,6.46,3.58,6.35,5.73l-.51,1.11c1.31,1.41,1.56,4.91.06,8.89-.39-1.14-2.28-2.36-3-1.64-.2.16-.7,1.59-1.21,2.58-.38.75-1.19-.65-1.06-1.55s.4-2,.48-2.6c.14-1,.39-3.72-.58-5-1.58-2.22-7.12-1.11-9.19-1.46-2.62-.44-4.71-2.3-6.3-1.44A6.61,6.61,0,0,1,124.33,1.79Z"/><path class="cls-37" d="M129,1.72s-4.84-.56-7.3.82a8.72,8.72,0,0,1-3.24-.7s-.63-1-.48.72l.15,1.69a5,5,0,0,0,.18,2.41s5.3,2.75,10.45.29Z"/><path class="cls-29" d="M125.49,17.72a2.7,2.7,0,0,0,0,.61c0,.21.12.34.06.43s-.09.14,0,.22.13,0,.24.06a4.57,4.57,0,0,0,2.09.41,6.6,6.6,0,0,0,2.38-.61,1.83,1.83,0,0,0,.55-.36c.19-.22.75-.53.7-.74a3,3,0,0,0-1.45-1.17c-.64-.2-3.91-.75-4.19-.28A2.92,2.92,0,0,0,125.49,17.72Z"/><path class="cls-38" d="M128.15,18.91A1.16,1.16,0,1,0,127,17.78,1.16,1.16,0,0,0,128.15,18.91Z"/><path class="cls-39" d="M128.09,17a.72.72,0,0,1,.74.7.73.73,0,0,1-.69.74.72.72,0,0,1,0-1.44m0-.88a1.6,1.6,0,1,0,1.65,1.55,1.6,1.6,0,0,0-1.65-1.55Z"/><g class="cls-40"><path class="cls-29" d="M126.52,17.8a1.6,1.6,0,0,0,3.19-.1,3.53,3.53,0,0,1-1.57.86A3.53,3.53,0,0,1,126.52,17.8Z"/></g><g class="cls-40"><path class="cls-29" d="M126.71,18a1.3,1.3,0,0,0,1.45,1.11,1.32,1.32,0,0,0,1.38-1.2,2,2,0,0,1-2.83.09Z"/></g><g class="cls-41"><path class="cls-38" d="M126.52,17.8c0,.88.69-.84,1.57-.87s1.65,1.65,1.62.77a1.6,1.6,0,1,0-3.19.1Z"/></g><path d="M127.3,17.77a.82.82,0,0,0,.84.79.8.8,0,0,0,.78-.84.81.81,0,0,0-.83-.79A.82.82,0,0,0,127.3,17.77Z"/><path class="cls-29" d="M126.63,17.12a.62.62,0,0,0,.63.58.6.6,0,0,0,.58-.62.6.6,0,0,0-.62-.58A.6.6,0,0,0,126.63,17.12Z"/><path class="cls-29" d="M128.5,18.12c-.12.18,0,.47.29.65s.6.19.72,0,0-.47-.29-.66S128.62,17.94,128.5,18.12Z"/><path class="cls-42" d="M128.28,18.18c-.12.18,0,.47.29.65s.6.19.72,0,0-.47-.29-.66S128.4,18,128.28,18.18Z"/><path class="cls-43" d="M126.77,17.24a.6.6,0,0,0,.62.59.61.61,0,0,0,.59-.63.61.61,0,0,0-1.21,0Z"/><path class="cls-44" d="M130.28,18.84l.52-1s-.61-.7-1-.78-3.13-.46-3.54-.16-.72.41-.81.81c0,0-.06-1,.3-1.35s3.26-.28,4.37.25,1.39.95,1.37,1.14A5.94,5.94,0,0,1,130.28,18.84Z"/><path class="cls-45" d="M125.4,16.34c0,.15.16.22.18.37v0a1.7,1.7,0,0,0-.09.45,1.85,1.85,0,0,0,0,.3.67.67,0,0,1,0,.1l0,.12c0-.22,0-.16,0-.22a.35.35,0,0,1,0-.14,1.43,1.43,0,0,1,.72-1,10.37,10.37,0,0,1,2.92.16l.67.15.11,0h0l0,0a.6.6,0,0,1,.16.08l.33.21a7.16,7.16,0,0,1,.59.47l.26.23a.21.21,0,0,0,0,.06h0s0,0,0,0a1.42,1.42,0,0,1-.2.22l-.19.2-.33.32-.29.27-.09.06a1.6,1.6,0,0,0,.2-.08l.25-.16a4.37,4.37,0,0,0,.38-.26l.23-.17.25-.21.07-.08v0h0V17.8s0,0,0,0v-.06h0a0,0,0,0,0,0,0v0h0l0-.05-.06-.09a3.45,3.45,0,0,0-.26-.28,4.56,4.56,0,0,0-.62-.51,1.93,1.93,0,0,0-.37-.23l-.21-.09a12.07,12.07,0,0,0-3.36-.55C125.54,15.91,125.36,16.16,125.4,16.34Zm6,1.37h0Z"/><path class="cls-29" d="M121.1,17.29a2,2,0,0,1-.09.49c-.07.18-.14.27-.1.35s.06.13,0,.18-.11,0-.2,0a3.77,3.77,0,0,1-1.77.06,5.29,5.29,0,0,1-1.88-.8,1.24,1.24,0,0,1-.4-.37c-.14-.2-.55-.52-.48-.69a2.45,2.45,0,0,1,1.34-.78c.54-.07,3.31-.11,3.48.31A2.4,2.4,0,0,1,121.1,17.29Z"/><path class="cls-38" d="M118.77,17.92a1,1,0,1,1,.36-1.89,1,1,0,0,1-.36,1.89Z"/><path class="cls-39" d="M119.06,16.39a.6.6,0,0,1,.48.69.6.6,0,1,1-.48-.69m.13-.72a1.33,1.33,0,1,0,1.06,1.55,1.34,1.34,0,0,0-1.06-1.55Z"/><g class="cls-40"><path class="cls-29" d="M120.25,17.22a1.33,1.33,0,0,1-2.61-.49s.66.81,1.18.91A2.89,2.89,0,0,0,120.25,17.22Z"/></g><g class="cls-40"><path class="cls-29" d="M120.08,17.34a1.09,1.09,0,0,1-1.34.72,1.08,1.08,0,0,1-1-1.16,2.86,2.86,0,0,0,1.06.7A2.84,2.84,0,0,0,120.08,17.34Z"/></g><g class="cls-41"><path class="cls-38" d="M120.25,17.22c-.14.72-.46-.78-1.18-.91s-1.56,1.14-1.43.42a1.33,1.33,0,1,1,2.61.49Z"/></g><path d="M119.61,17.1a.67.67,0,1,1-1.32-.25.66.66,0,0,1,.78-.54A.67.67,0,0,1,119.61,17.1Z"/><path class="cls-29" d="M120.24,16.65a.5.5,0,0,1-.58.4.51.51,0,0,1-.4-.59.5.5,0,1,1,1,.19Z"/><path class="cls-29" d="M118.58,17.23c.08.16-.07.39-.32.5s-.52.08-.59-.09.07-.38.32-.5S118.51,17.06,118.58,17.23Z"/><path class="cls-42" d="M118.76,17.3c.07.17-.07.39-.32.51s-.52.08-.59-.09.07-.39.32-.5S118.68,17.14,118.76,17.3Z"/><path class="cls-43" d="M120.12,16.73a.5.5,0,1,1-.4-.58A.5.5,0,0,1,120.12,16.73Z"/><path class="cls-44" d="M117,17.59l-.3-.88a2.58,2.58,0,0,1,.89-.51,9.48,9.48,0,0,1,2.93.31c.3.29.53.44.55.78,0,0,.18-.84-.07-1.15a6.68,6.68,0,0,0-3.61-.36c-1,.28-1.27.6-1.27.77A4.75,4.75,0,0,0,117,17.59Z"/><path class="cls-45" d="M120.3,15.56a10.09,10.09,0,0,0-2.83,0l-.19.05a3.27,3.27,0,0,0-.33.14,3.9,3.9,0,0,0-.57.34,2.43,2.43,0,0,0-.25.2l-.06.06,0,0h0a0,0,0,0,0,0,0,0,0,0,0,0,0,0h0v0h0v0a0,0,0,0,1,0,0v0h0v0l0,.07a1.2,1.2,0,0,0,.17.21,1.25,1.25,0,0,0,.17.16,3,3,0,0,0,.27.26,1.59,1.59,0,0,0,.19.16l.16.1-.07-.06-.2-.26c-.06-.09-.14-.19-.23-.3s-.09-.12-.13-.19a2.43,2.43,0,0,1-.14-.2l0,0h0l0,0a2.3,2.3,0,0,1,.23-.15c.17-.11.36-.22.55-.32l.3-.13.14,0h.16l.56,0a8.25,8.25,0,0,1,2.43.24,1.21,1.21,0,0,1,.46.94.49.49,0,0,1,0,.12,1.76,1.76,0,0,0,0,.18l0-.09a.32.32,0,0,1,0-.09c0-.05,0-.14,0-.25a1.67,1.67,0,0,0,0-.38s0,0,0,0,.16-.16.2-.28S121.3,15.8,120.3,15.56Zm-4.07,1Z"/><path class="cls-46" d="M125.89,26.46c-.33.58-1.52-.16-3-.44s-2.86-.14-2.93-.81,1.54-2.12,3.46-1.71S126.24,25.93,125.89,26.46Z"/><path class="cls-47" d="M122.91,25a4.55,4.55,0,0,0-1.6-.13c-.47,0-.9.26-1.35.33,0,0,0,0,0,0,.07.67,1.46.47,2.93.81,1,.18,1.85.58,2.41.64A5.52,5.52,0,0,0,122.91,25Z"/><path class="cls-29" d="M125.56,25a3.37,3.37,0,0,0-2.14-1.5,3.41,3.41,0,0,0-2.57.52Z"/><path class="cls-29" d="M126.71,10.1s.56,1,.16,1.26a.53.53,0,0,1-.72,0s-.42-.24.26-1.29l.16-.44Z"/><path class="cls-48" d="M126.29,10.48c-.18.51,0,.65,0,.65a.53.53,0,0,0,.45.14.43.43,0,0,1-.55,0S126,11.09,126.29,10.48Z"/><path class="cls-29" d="M133,10.27s.68,1.15.2,1.52a.66.66,0,0,1-.87,0s-.5-.28.32-1.54l.19-.53Z"/><path class="cls-48" d="M132.48,10.73c-.22.61.07.78.07.78a.59.59,0,0,0,.53.16.5.5,0,0,1-.66,0S132.11,11.46,132.48,10.73Z"/><path class="cls-49" d="M129.27,10.18s1,1.77.3,2.34a1,1,0,0,1-1.34,0s-.78-.43.49-2.38l.3-.81Z"/><path class="cls-48" d="M128.55,10.88c-.34,1,.1,1.21.1,1.21a.94.94,0,0,0,.83.25.79.79,0,0,1-1-.06S128,12,128.55,10.88Z"/><path class="cls-29" d="M129.48,10.09s1,1.76.3,2.34a1,1,0,0,1-1.34,0s-.78-.44.49-2.38l.3-.81Z"/><path class="cls-48" d="M128.7,10.79c-.33,1,.11,1.21.11,1.21a.94.94,0,0,0,.82.25.78.78,0,0,1-1-.06S128.13,11.91,128.7,10.79Z"/><path class="cls-49" d="M121.07,9s.6,1,.17,1.36a.58.58,0,0,1-.78,0s-.45-.25.29-1.38l.17-.48Z"/><path class="cls-48" d="M120.65,9.44c-.2.55.06.7.06.7a.57.57,0,0,0,.48.15.45.45,0,0,1-.6,0S120.31,10.09,120.65,9.44Z"/><path class="cls-29" d="M121.19,9s.61,1,.17,1.37a.59.59,0,0,1-.78,0s-.45-.25.29-1.38l.17-.48Z"/><path class="cls-48" d="M120.74,9.38c-.2.56.06.71.06.71a.53.53,0,0,0,.48.14.46.46,0,0,1-.6,0S120.4,10,120.74,9.38Z"/><path class="cls-27" d="M135.22,9.39a8.22,8.22,0,0,0-.05-3.13,19,19,0,0,1-2.69-2.71c.41-.82,1.54-.09,2,.41.13-.76-.48-1.93-.42-2.68.12-2.3,1.3-.79,1.49-.82.68-.07,2.4-.23,2.95.31s.43.77.5,1.45a7.79,7.79,0,0,1-.31,2.17,18.62,18.62,0,0,1-.85,2.09c-.07.48.28,2.46-.12,2.81s-1.14-.11-1.69-.18"/><path class="cls-27" d="M125.46,38.39c-1.32-1.13,1.64-3.31,2.74-4.41l3.19-4.44c1.05-2.11,2.73-4.93,3.24-7.22a104.52,104.52,0,0,0,.83-13.54c2.06-.7,1.81-.29,2-.16.35.3,1.95,11.52,1.11,15.13a20.11,20.11,0,0,1-1.17,4.16A22.58,22.58,0,0,1,130,37.62C128.62,38.62,127,39.71,125.46,38.39Z"/><path class="cls-29" d="M132.89,26c-.6,1.22-1.26,2.4-1.77,3.42l-3.18,4.44c-1.11,1.09-4.07,3.27-2.75,4.41,1.51,1.32,3.6.77,4.95-.22a23.84,23.84,0,0,0,7.53-10Z"/><path class="cls-50" d="M107.27,124.51c-4.27-.44-6.83-3-12-.75-1.36.59-2.78,1-3.57,1.49l-.54-.14a1.15,1.15,0,0,0-.64-.16c-1.67-.4-3.39-.7-3.5-.75-3.82-1.68-2.56-5.87-9.37-5.15S71.22,123.26,63,124c-9.33.81-10.23.58-12.88,6.4a56.23,56.23,0,0,1-2.35,5.57,1.44,1.44,0,0,0,1.41,2.18c1.52-.2,3.06-.47,4.63-.52,4.51-.16,8,1.88,12.5-.91,1-.61,2.05-1.13,2.74-1.6a1.36,1.36,0,0,1,1.1-.15,2.52,2.52,0,0,0,1-.05,1.42,1.42,0,0,1,1.63.85c.74,2.07.54,4.34,5.44,4.46,6.58.18,7.54-3.42,15.45-3,9,.42,9.77.78,14.39-4.79,1.48-1.79,2.56-3.61,4.2-5.31a1.44,1.44,0,0,0-1-2.45A37.52,37.52,0,0,1,107.27,124.51Z"/><path class="cls-12" d="M104.4,124.57c-3.81-.35-6.1-2.41-10.73-.6-1.22.48-2.49.82-3.19,1.2l-.49-.12a1.08,1.08,0,0,0-.56-.12c-1.5-.32-3-.57-3.14-.61-3.4-1.35-2.28-4.73-8.36-4.15s-5.72,3.4-13,4c-8.33.65-9.13.46-11.5,5.16-.69,1.37-1.07,2.73-1.84,4.07A1.44,1.44,0,0,0,53,135.5c1.21-.15,2.45-.33,3.7-.37,4-.13,7.19,1.52,11.17-.73.9-.51,1.88-.93,2.49-1.32a1.2,1.2,0,0,1,.91-.1,2.29,2.29,0,0,0,.81,0,1.45,1.45,0,0,1,1.61.92c.57,1.6.61,3.26,4.78,3.36,5.88.14,6.73-2.76,13.79-2.47,8.06.35,8.73.63,12.85-3.86,1.18-1.28,2.07-2.58,3.28-3.81a1.44,1.44,0,0,0-1-2.44A28.78,28.78,0,0,1,104.4,124.57Z"/><path class="cls-26" d="M57.76,90.74a.71.71,0,1,0,.71.71A.71.71,0,0,0,57.76,90.74Z"/><path class="cls-26" d="M67.5,82.12a.71.71,0,1,0,.71.71A.71.71,0,0,0,67.5,82.12Z"/><path class="cls-26" d="M55.45,86.18a.71.71,0,1,0,.71.71A.71.71,0,0,0,55.45,86.18Z"/><path class="cls-26" d="M45.34,89.71A.32.32,0,0,0,45,90a.32.32,0,0,0,.32.32.32.32,0,0,0,.32-.32A.33.33,0,0,0,45.34,89.71Z"/><path class="cls-26" d="M52.86,90.1a.22.22,0,1,0,.22.22A.22.22,0,0,0,52.86,90.1Z"/><path class="cls-26" d="M59,88.61a.36.36,0,1,0,.35.35A.36.36,0,0,0,59,88.61Z"/><path class="cls-26" d="M62,87.47a.36.36,0,0,0,0,.71.36.36,0,1,0,0-.71Z"/><path class="cls-26" d="M55.09,92.51a.36.36,0,1,0,.36.36A.36.36,0,0,0,55.09,92.51Z"/><path class="cls-26" d="M60.37,86.53a.35.35,0,0,0-.36.35.36.36,0,1,0,.71,0A.35.35,0,0,0,60.37,86.53Z"/><path class="cls-26" d="M50.35,88.25a.36.36,0,0,0-.36.35.36.36,0,0,0,.71,0A.35.35,0,0,0,50.35,88.25Z"/><path class="cls-26" d="M57.49,114.45a.72.72,0,0,1-.68.75.71.71,0,0,1-.74-.68.71.71,0,0,1,.67-.74A.71.71,0,0,1,57.49,114.45Z"/><path class="cls-26" d="M65.59,104.28a.71.71,0,0,1-.67.74.71.71,0,1,1-.07-1.41A.71.71,0,0,1,65.59,104.28Z"/><path class="cls-26" d="M62.15,116.53a.71.71,0,0,1-1.41.07.71.71,0,1,1,1.41-.07Z"/><path class="cls-26" d="M59.14,126.81a.31.31,0,0,1-.3.33.32.32,0,1,1,.3-.33Z"/><path class="cls-26" d="M58.37,119.31a.23.23,0,0,1-.21.23.22.22,0,0,1-.23-.21.22.22,0,1,1,.44,0Z"/><path class="cls-26" d="M59.54,113.06a.36.36,0,0,1-.33.38.35.35,0,0,1-.37-.34.35.35,0,0,1,.33-.37A.35.35,0,0,1,59.54,113.06Z"/><path class="cls-26" d="M60.53,110a.35.35,0,0,1-.33.37.36.36,0,1,1,0-.71A.35.35,0,0,1,60.53,110Z"/><path class="cls-26" d="M55.85,117.2a.36.36,0,1,1-.71,0,.35.35,0,0,1,.34-.37A.35.35,0,0,1,55.85,117.2Z"/><path class="cls-26" d="M61.56,111.63a.36.36,0,0,1-.34.38.36.36,0,0,1-.37-.34.35.35,0,0,1,.34-.37A.35.35,0,0,1,61.56,111.63Z"/><path class="cls-26" d="M60.35,121.73a.35.35,0,0,1-.33.37.36.36,0,1,1,.33-.37Z"/><path class="cls-27" d="M110.44,81.43A7.08,7.08,0,0,0,113,80.3a16.79,16.79,0,0,1,1.32-3.17c.83.05.62,1.24.36,1.79.67-.14,1.44-1.06,2.08-1.27,2-.7,1.11.8,1.2,1,.3.54,1,1.91.77,2.56s-.49.62-1,.92a7,7,0,0,1-1.92.49,17.25,17.25,0,0,1-2,0c-.42.11-2,1.09-2.39.87s-.29-1-.43-1.45"/><path class="cls-51" d="M91.71,130c-.47-1.89-1-4.12-1.55-6.32-.47-2-1-3.87-1.34-5.48-2.49,3.6-6,5.49-6.74,9.15l1.16,5A20.68,20.68,0,0,0,91.71,130Z"/><path class="cls-51" d="M77.09,131.42a15.13,15.13,0,0,0,4.18,1,17.1,17.1,0,0,0,4.59-.3c1-3.48,2.08-7.48,2.76-10,.3-1.1.51-1.92.58-2.25.13-.65.64-1.75.73-2.39a30.63,30.63,0,0,1-14.41-.73,10.7,10.7,0,0,0,1.62,4.45C77.51,121.78,77.31,127.24,77.09,131.42Z"/><path class="cls-27" d="M86.28,92.48A15.86,15.86,0,0,0,95,91.38c4.76-2,8.71-3.13,13.14-5.7,1.61-.93,3.81-2,3.88-2.61s-.75-2.29-1.39-1.82c-1.94,1.46-6.92,3.29-9,3.85-3.4,1-5,1.13-8.38,2.22-1.19.39-3.38-.33-4.61.17-1.43.62-1.41.93-1.83,2.54-.27.75-.42,1.6-.68,2.36"/><path class="cls-29" d="M76.34,97.65c-.14-2.24-2.18-5.38.51-6.69,1.3-.63,4.48-.78,6.21-.72a10.62,10.62,0,0,1,4.31.9l.69.57a41.08,41.08,0,0,1,1.48,9.12c-.13,5.08.17,14.79.45,16.83-4.6.8-3.75,1.47-8.44.58-2.56-.48-5.46-.65-7-1.91C75.93,112,76.61,102.22,76.34,97.65Z"/><path class="cls-31" d="M85,86a12,12,0,0,0,.27,5.2l-.74.46c-1.47.85-4.9-.23-5.45-.89-.11-.13.27-1,.44-2.65.25-2.33.1-2.78,2.38-2.62,1.05.06,2.06.35,3.13.33"/><path class="cls-27" d="M90.15,66.83c2.06,6,3.24,15.84,1.42,17.5-5.16,4.7-4.86,5.23-9.58,4a26,26,0,0,1-5.74-2.14c-2.13-1.14-2-1.37-2.75-3.18-.15-.37-4.44.07-5-4.89-.3-2.51,1.59-3.41,3.74-3.23.37-9.51,9.87-15.2,17.17-9.27"/><g class="cls-52"><path class="cls-53" d="M77.74,67.38c-5.44-2.35-7.08,1.68-5.53,7.53-2.15-.18-4,.72-3.74,3.23.59,5,4.88,4.52,5,4.89.72,1.81.62,2,2.75,3.18A26,26,0,0,0,82,88.35S73.87,82.18,75.38,73c0,0,.49-3.6,2-4.69l.41-.94"/></g><path class="cls-34" d="M76.93,72.84c1.51-.73,4.11-1.21,5.55-2.16.8-.52.86.42.12,1a11.16,11.16,0,0,1-4.87,2.4c-.94.22-1.68-.87-.8-1.28Z"/><path class="cls-34" d="M92,71.08c-1.3-.08-3.32.32-4.63.07-.74-.15-.51.54.21.78a8.58,8.58,0,0,0,4.22.31c.74-.11,1-1.11.2-1.16Z"/><path class="cls-35" d="M70.79,80.17A10.87,10.87,0,0,1,72,79.76a5.15,5.15,0,0,0-1.19-2.39c-.55-.72-.11-.81.14-.42a10,10,0,0,1,1.67,2.89.37.37,0,0,1-.34.46,12.6,12.6,0,0,0-1.35.21C70.44,80.62,70.34,80.28,70.79,80.17Z"/><path class="cls-36" d="M87.35,81.43c-.06-.6-1.62-1.06-1.52-2.27,0-.67.29-3.13.88-3.41,0,0-.73,2.67-.33,3.67.32.75,1.66,1.31,1.66,2.09,0,.61-1.51,1.43-2.08,1.11C85.69,82.47,87.24,82,87.35,81.43Z"/><path class="cls-37" d="M84.34,61.85c-1.7-.49-8.12-1-10-.56-1.28.31-6.38,3.53-6.27,5.65l.5,1.09c-1.29,1.4-1.53,4.85,0,8.79.37-1.13,2.24-2.34,3-1.63.19.16.68,1.57,1.19,2.55.37.74,1.17-.64,1-1.53s-.39-2-.47-2.57c-.14-1-.38-3.67.57-5,1.56-2.18,7-1.09,9.07-1.43,2.59-.43,4.65-2.28,6.22-1.43A6.53,6.53,0,0,0,84.34,61.85Z"/><path class="cls-37" d="M79.77,61.78s4.78-.55,7.21.81a8.5,8.5,0,0,0,3.2-.7s.62-1,.47.71l-.15,1.68a4.8,4.8,0,0,1-.17,2.37s-5.24,2.72-10.31.29Z"/><path class="cls-29" d="M83.2,77.58a2.53,2.53,0,0,1,0,.59c-.05.21-.11.34-.06.43s.09.14,0,.22-.13,0-.23.06a4.47,4.47,0,0,1-2.07.39,6.45,6.45,0,0,1-2.35-.59,1.64,1.64,0,0,1-.54-.36c-.19-.22-.74-.52-.69-.73a2.89,2.89,0,0,1,1.43-1.15c.63-.2,3.86-.74,4.14-.28A2.83,2.83,0,0,1,83.2,77.58Z"/><path class="cls-38" d="M80.57,78.74a1.14,1.14,0,1,1,1.18-1.11A1.14,1.14,0,0,1,80.57,78.74Z"/><path class="cls-39" d="M80.63,76.89a.71.71,0,1,1-.73.69.72.72,0,0,1,.73-.69m0-.86a1.57,1.57,0,1,0,1.53,1.62A1.56,1.56,0,0,0,80.66,76Z"/><g class="cls-40"><path class="cls-29" d="M82.19,77.65a1.58,1.58,0,0,1-1.63,1.52A1.56,1.56,0,0,1,79,77.56a3.45,3.45,0,0,0,1.55.84A3.5,3.5,0,0,0,82.19,77.65Z"/></g><g class="cls-40"><path class="cls-29" d="M82,77.82a1.43,1.43,0,0,1-2.79-.09,3.28,3.28,0,0,0,1.38.62A3.32,3.32,0,0,0,82,77.82Z"/></g><g class="cls-41"><path class="cls-38" d="M82.19,77.65c0,.87-.69-.82-1.56-.85S79,78.42,79,77.56a1.58,1.58,0,0,1,3.15.09Z"/></g><path d="M81.41,77.62a.8.8,0,1,1-.78-.82A.79.79,0,0,1,81.41,77.62Z"/><path class="cls-29" d="M82.07,77a.6.6,0,1,1-.58-.62A.6.6,0,0,1,82.07,77Z"/><path class="cls-29" d="M80.23,78c.11.17,0,.46-.29.64s-.59.19-.71,0,0-.47.29-.65S80.11,77.79,80.23,78Z"/><path class="cls-42" d="M80.45,78c.12.18,0,.47-.29.65s-.59.19-.71,0,0-.47.29-.65S80.33,77.85,80.45,78Z"/><path class="cls-43" d="M81.93,77.1a.59.59,0,0,1-.61.58.61.61,0,0,1-.58-.62.59.59,0,0,1,.62-.57A.58.58,0,0,1,81.93,77.1Z"/><path class="cls-44" d="M78.47,78.68l-.52-1s.61-.69,1-.77,3.1-.45,3.5-.16.71.41.8.81c0,0,.06-1-.3-1.34s-3.22-.28-4.31.24-1.37.94-1.34,1.13S78.39,78.64,78.47,78.68Z"/><path class="cls-45" d="M81.93,75.69a12.14,12.14,0,0,0-3.31.55l-.21.09-.37.22a5.17,5.17,0,0,0-.6.51,3.45,3.45,0,0,0-.26.28l-.06.08a.08.08,0,0,0,0,0h0s0,0,0,0,0,0,0,0h0v0h0v0h0v0a.08.08,0,0,0,0,0h0v.06l.07.08c.08.08.17.14.24.21a1.6,1.6,0,0,0,.23.16c.14.11.27.19.37.26l.25.15a1.27,1.27,0,0,0,.2.09l-.09-.06-.28-.27L77.77,78l-.19-.2-.2-.21,0,0h0a.1.1,0,0,1,0,0,2.89,2.89,0,0,1,.25-.24c.18-.15.37-.31.59-.46a3.53,3.53,0,0,1,.32-.21l.16-.08h.08l.1,0,.66-.15a9.77,9.77,0,0,1,2.88-.16,1.39,1.39,0,0,1,.72,1,.66.66,0,0,1,0,.13c0,.07,0,0,0,.23l0-.13a.82.82,0,0,1,0-.1,1.74,1.74,0,0,0,0-.29,1.78,1.78,0,0,0-.09-.45v0c0-.14.15-.22.17-.36S83.15,75.78,81.93,75.69Zm-4.59,1.87Z"/><path class="cls-29" d="M87.53,77.15a2,2,0,0,0,.09.48c.07.18.14.27.11.35s-.06.13,0,.18.11,0,.2,0a3.84,3.84,0,0,0,1.75.06,5.5,5.5,0,0,0,1.85-.79,1.53,1.53,0,0,0,.4-.37c.13-.2.54-.52.47-.69a2.48,2.48,0,0,0-1.32-.76c-.54-.08-3.26-.11-3.43.3A2.4,2.4,0,0,0,87.53,77.15Z"/><path class="cls-38" d="M89.83,77.77A.95.95,0,1,0,88.72,77,1,1,0,0,0,89.83,77.77Z"/><path class="cls-39" d="M89.55,76.26a.58.58,0,0,1,.68.47.58.58,0,1,1-1.15.21.59.59,0,0,1,.47-.68m-.14-.71a1.31,1.31,0,1,0,1.53,1,1.32,1.32,0,0,0-1.53-1Z"/><g class="cls-40"><path class="cls-29" d="M88.37,77.08a1.31,1.31,0,1,0,2.57-.48s-.65.79-1.16.89A2.86,2.86,0,0,1,88.37,77.08Z"/></g><g class="cls-40"><path class="cls-29" d="M88.54,77.2a1.08,1.08,0,0,0,1.32.71,1.06,1.06,0,0,0,1-1.14,2.7,2.7,0,0,1-1,.68A2.8,2.8,0,0,1,88.54,77.2Z"/></g><g class="cls-41"><path class="cls-38" d="M88.37,77.08c.14.71.45-.77,1.16-.9s1.55,1.12,1.41.42a1.31,1.31,0,1,0-2.57.48Z"/></g><path d="M89,77a.67.67,0,1,0,.53-.78A.67.67,0,0,0,89,77Z"/><path class="cls-29" d="M88.38,76.51a.49.49,0,0,0,.57.4.48.48,0,0,0,.4-.58.49.49,0,1,0-1,.18Z"/><path class="cls-29" d="M90,77.08c-.07.17.07.39.32.5s.5.08.58-.09-.07-.38-.32-.49S90.09,76.92,90,77.08Z"/><path class="cls-42" d="M89.84,77.16c-.07.16.07.38.32.5s.51.08.58-.08-.06-.39-.31-.5S89.92,77,89.84,77.16Z"/><path class="cls-43" d="M88.51,76.6a.48.48,0,0,0,.57.39.49.49,0,1,0-.18-1A.48.48,0,0,0,88.51,76.6Z"/><path class="cls-44" d="M91.55,77.45l.3-.88a2.64,2.64,0,0,0-.88-.5,9.19,9.19,0,0,0-2.89.31c-.29.29-.53.43-.55.77,0,0-.18-.83.08-1.14a6.41,6.41,0,0,1,3.56-.35c1,.28,1.25.59,1.25.75A5,5,0,0,1,91.55,77.45Z"/><path class="cls-45" d="M87.27,76c0,.11.17.16.2.27v0a2.89,2.89,0,0,0,0,.39c0,.11,0,.18,0,.24a.73.73,0,0,0,0,.08l0,.1a1.76,1.76,0,0,0,0-.18s0-.08,0-.12a1.2,1.2,0,0,1,.46-.93,8.38,8.38,0,0,1,2.39-.24l.56,0h.16l.14,0a2.38,2.38,0,0,1,.29.13,5.46,5.46,0,0,1,.54.3l.24.16,0,0h0v0l-.15.21-.13.18-.22.3-.2.26-.07.06.16-.1.18-.16c.08-.06.17-.15.28-.25l.16-.17a2.18,2.18,0,0,0,.17-.21l0-.06v0h0v0h0a.08.08,0,0,1,0,0h0s0,0,0,0h0a0,0,0,0,0,0,0v0h0l0,0-.06-.06-.25-.2a4.88,4.88,0,0,0-.56-.34,3.24,3.24,0,0,0-.33-.13l-.19-.05a10.14,10.14,0,0,0-2.78,0C87.34,75.67,87.22,75.9,87.27,76Zm5.07.34h0Z"/><path class="cls-46" d="M82.8,86.2c.33.57,1.5-.16,3-.44s2.82-.13,2.89-.79-1.52-2.1-3.41-1.7S82.45,85.67,82.8,86.2Z"/><path class="cls-47" d="M85.76,84.74a4.35,4.35,0,0,1,1.57-.13c.46,0,.88.26,1.33.33,0,0,0,0,0,0-.07.66-1.44.46-2.89.79-1,.18-1.83.57-2.39.64A5.45,5.45,0,0,1,85.76,84.74Z"/><path class="cls-29" d="M83.13,84.76a3.35,3.35,0,0,1,2.12-1.49,3.41,3.41,0,0,1,2.53.52Z"/><path class="cls-27" d="M60,72.71A7.71,7.71,0,0,0,57.63,71a18.21,18.21,0,0,1-3.55.54c-.4-.77.78-1.22,1.41-1.29-.49-.52-1.73-.71-2.26-1.17-1.69-1.37.12-1.42.21-1.59.32-.56,1.15-2,1.87-2.07s.82.1,1.37.42a7.47,7.47,0,0,1,1.48,1.44,18.47,18.47,0,0,1,1.12,1.81c.32.31,2,1.16,2.06,1.65s-.71.81-1.06,1.18"/><path class="cls-27" d="M76.64,96.22c-1.59.38-1.61-3.08-1.82-4.52l-1.61-4.89c-1-2-2.22-4.81-3.69-6.47A97,97,0,0,0,59.7,72.2c.61-2,.79-1.55,1-1.59.42-.1,9.84,4.92,12.11,7.55a18.93,18.93,0,0,1,2.51,3.2,21.24,21.24,0,0,1,3.27,11C78.57,94,78.48,95.81,76.64,96.22Z"/></g></g></g></svg>