<svg xmlns="http://www.w3.org/2000/svg" viewBox="0 0 129.21 118.25"><defs><style>.cls-1{isolation:isolate;}.cls-2{fill:#939598;mix-blend-mode:multiply;opacity:0.5;}.cls-3{fill:#78ad60;}.cls-4{fill:#9cc981;}.cls-5{fill:#6c9e51;}.cls-6{fill:#639347;}.cls-7{fill:#85b76a;}.cls-8{fill:#aaa;}.cls-9{fill:#7f7f7f;}.cls-10{fill:#424242;}.cls-11{fill:#2d2d2d;}.cls-12{fill:#afafaf;}.cls-13{fill:#969696;}.cls-14{fill:#3d3d3d;}.cls-15{fill:#e1e9f9;}.cls-16{fill:#ccd8f2;}.cls-17{fill:#b1c4e5;}.cls-18{fill:#9db8e0;}.cls-19{fill:#88a9d1;}.cls-20{fill:#fff;}.cls-21{fill:#cad6ea;}.cls-22{fill:#e83838;}.cls-23{fill:#fc6460;}.cls-24{fill:#1b1c1c;}.cls-25{fill:#412918;}.cls-26{fill:#034a5b;}.cls-27{fill:#1c1c1c;}.cls-28,.cls-33{fill:#ad805e;}.cls-28,.cls-29,.cls-30,.cls-31,.cls-40,.cls-41,.cls-42,.cls-43,.cls-45{fill-rule:evenodd;}.cls-29{fill:#6bbcd1;}.cls-30{fill:#68b7cb;}.cls-31{fill:#94d1db;}.cls-32,.cls-41{fill:#bc977d;}.cls-34{fill:#513e40;}.cls-35{fill:#816d5b;}.cls-36{fill:#2a1c1c;}.cls-37{fill:#e2551c;}.cls-38{fill:#ab4412;}.cls-39{fill:#362617;}.cls-40{fill:#5b9bab;}.cls-42{fill:#c09375;}.cls-43{fill:#806747;}.cls-44,.cls-45{fill:#546e7a;}</style></defs><g class="cls-1"><g id="Capa_2" data-name="Capa 2"><g id="Capa_1-2" data-name="Capa 1"><ellipse class="cls-2" cx="30.3" cy="112.68" rx="30.3" ry="5.57"/><ellipse class="cls-2" cx="72.7" cy="84.12" rx="12.26" ry="62.77" transform="translate(-34.96 111.9) rotate(-63.63)"/><polygon class="cls-3" points="24.98 40.74 35.3 34.78 35.3 4.19 42.56 0 42.56 57.04 24.74 67.33 21.37 48.18 24.98 40.74"/><polygon class="cls-3" points="31.63 44.73 41.95 38.78 41.95 8.19 49.21 3.99 49.21 61.03 31.39 71.32 28.02 52.17 31.63 44.73"/><polygon class="cls-4" points="42.56 0 49.21 3.99 41.95 8.19 35.3 4.19 42.56 0"/><polygon class="cls-4" points="35.3 34.78 41.95 38.78 31.63 44.73 24.98 40.74 35.3 34.78"/><polygon class="cls-5" points="35.3 4.19 41.95 8.19 41.95 38.78 35.3 34.78 35.3 4.19"/><polygon class="cls-6" points="21.37 48.18 28.02 52.17 31.39 71.32 24.74 67.33 21.37 48.18"/><polygon class="cls-7" points="31.63 44.73 28.02 52.17 21.37 48.18 24.98 40.74 31.63 44.73"/><path class="cls-8" d="M47.65,7a1.33,1.33,0,0,0-1.3.14,5,5,0,0,0-2.07,4,1.85,1.85,0,0,0,.7,1.66l67.2,38.65,2.66-5.75Z"/><path class="cls-9" d="M115.58,47.37a4.94,4.94,0,0,1-2.07,4c-1.14.66-2.06,0-2.06-1.57a5,5,0,0,1,2.06-3.95C114.66,45.15,115.58,45.85,115.58,47.37Z"/><path class="cls-6" d="M35.65,48.83a7.15,7.15,0,0,1-3,5.7c-1.65.95-3-.06-3-2.26a7.12,7.12,0,0,1,3-5.69C34.32,45.63,35.65,46.64,35.65,48.83Z"/><path class="cls-10" d="M30.82,36.05l10.42-6,.69.38-.69,2.47-10.42,6c-.58.34-1.07,0-1.07-.81A2.59,2.59,0,0,1,30.82,36.05Z"/><polygon class="cls-10" points="30.79 39.32 30.09 38.93 30.22 38.34 30.98 38.63 30.79 39.32"/><path class="cls-11" d="M31.52,36.44l10.41-6v2.85l-10.41,6c-.59.34-1.07,0-1.07-.81A2.57,2.57,0,0,1,31.52,36.44Z"/><path class="cls-12" d="M33.34,49.42a.49.49,0,0,0-.49,0A1.88,1.88,0,0,0,32.06,51a.69.69,0,0,0,.27.63l3.48,2,.95-2.22Z"/><path class="cls-13" d="M37.09,52a1.88,1.88,0,0,1-.79,1.51c-.43.25-.79,0-.79-.6a1.91,1.91,0,0,1,.79-1.51C36.74,51.16,37.09,51.43,37.09,52Z"/><path class="cls-14" d="M36.76,52.23a1.07,1.07,0,0,1-.44.85c-.25.15-.45,0-.45-.33a1.07,1.07,0,0,1,.45-.86C36.56,51.75,36.76,51.9,36.76,52.23Z"/><path class="cls-15" d="M43.52,45.92,80.15,67l-36.63-21a4.12,4.12,0,0,0-3.87.41c-3.4,2-6.15,7.23-6.15,11.77,0,2.44.8,4.17,2.07,4.94l57,32.7,7.93-17.12Z"/><path class="cls-16" d="M102.66,83.64c0,4.53-2.76,9.8-6.16,11.76s-6.15-.12-6.15-4.65S93.1,81,96.5,79,102.66,79.1,102.66,83.64Z"/><path class="cls-17" d="M101.5,84.78c0,3.33-2,7.2-4.52,8.64s-4.53-.08-4.53-3.41,2-7.21,4.53-8.65S101.5,81.45,101.5,84.78Z"/><path class="cls-18" d="M100.16,85.83a7.15,7.15,0,0,1-3,5.69c-1.65,1-3-.06-3-2.25a7.11,7.11,0,0,1,3-5.69C98.82,82.63,100.16,83.63,100.16,85.83Z"/><path class="cls-12" d="M97.88,86.71a.55.55,0,0,0-.49.05,1.91,1.91,0,0,0-.79,1.51.7.7,0,0,0,.28.64l3.47,2,1-2.23Z"/><path class="cls-13" d="M101.64,89.3a1.9,1.9,0,0,1-.79,1.51c-.44.26-.79,0-.79-.59a1.87,1.87,0,0,1,.79-1.51C101.28,88.46,101.64,88.72,101.64,89.3Z"/><path class="cls-14" d="M101.31,89.52a1.07,1.07,0,0,1-.45.86c-.25.14-.45,0-.45-.34a1.05,1.05,0,0,1,.45-.85C101.11,89,101.31,89.19,101.31,89.52Z"/><path class="cls-12" d="M47.27,32.93a.49.49,0,0,0-.49,0A1.87,1.87,0,0,0,46,34.49a.71.71,0,0,0,.27.63l3.48,2,.95-2.23Z"/><path class="cls-13" d="M51,35.52A1.88,1.88,0,0,1,50.23,37c-.43.25-.79,0-.79-.6a1.91,1.91,0,0,1,.79-1.51C50.67,34.67,51,34.94,51,35.52Z"/><path class="cls-14" d="M50.69,35.74a1.07,1.07,0,0,1-.44.85c-.25.14-.45,0-.45-.34a1.05,1.05,0,0,1,.45-.85C50.49,35.26,50.69,35.41,50.69,35.74Z"/><path class="cls-16" d="M57.45,29.43l36.63,21-36.63-21a4.07,4.07,0,0,0-3.86.41c-3.41,2-6.16,7.23-6.16,11.77,0,2.44.8,4.17,2.07,4.94l57,32.69,7.93-17.11S57.56,29.48,57.45,29.43Z"/><ellipse class="cls-17" cx="110.43" cy="70.7" rx="9.45" ry="5.35" transform="translate(2.14 144.63) rotate(-66.95)"/><path class="cls-18" d="M115.43,68.29c0,3.33-2,7.2-4.52,8.64s-4.52-.09-4.52-3.42,2-7.2,4.52-8.64S115.43,65,115.43,68.29Z"/><ellipse class="cls-19" cx="111.11" cy="71.06" rx="4.57" ry="2.59" transform="translate(2.22 145.47) rotate(-66.95)"/><path class="cls-12" d="M111.81,70.22a.5.5,0,0,0-.48,0,1.88,1.88,0,0,0-.79,1.51.67.67,0,0,0,.27.63l3.47,2,1-2.23Z"/><path class="cls-13" d="M115.57,72.81a1.88,1.88,0,0,1-.79,1.51c-.44.25-.79,0-.79-.6a1.9,1.9,0,0,1,.79-1.51C115.22,72,115.57,72.23,115.57,72.81Z"/><path class="cls-14" d="M115.24,73a1.09,1.09,0,0,1-.45.86c-.24.14-.44,0-.44-.34a1.11,1.11,0,0,1,.44-.86C115,72.55,115.24,72.7,115.24,73Z"/><path class="cls-13" d="M38,35a1.35,1.35,0,0,0-1.3.13,5,5,0,0,0-2.07,4,1.85,1.85,0,0,0,.7,1.66l67.2,38.65,2.66-5.75Z"/><path class="cls-9" d="M105.93,75.36a4.94,4.94,0,0,1-2.07,4c-1.14.66-2.07,0-2.07-1.57a5,5,0,0,1,2.07-4C105,73.14,105.93,73.84,105.93,75.36Z"/><polygon class="cls-3" points="99.62 83.94 109.94 77.98 109.94 47.39 117.2 43.2 117.2 100.24 99.38 110.53 96.01 91.37 99.62 83.94"/><polygon class="cls-3" points="106.27 87.93 116.59 81.97 116.59 51.38 123.85 47.19 123.85 104.23 106.03 114.52 102.66 95.37 106.27 87.93"/><polygon class="cls-15" points="106.67 88.55 114.12 84.25 114.12 108.81 106.65 113.12 103.48 95.12 106.67 88.55"/><polygon class="cls-11" points="106.93 93.33 113.01 89.83 113.01 86.47 106.93 89.97 106.93 93.33"/><polygon class="cls-11" points="106.93 94.49 113.01 90.98 113.01 90.27 106.93 93.78 106.93 94.49"/><polygon class="cls-20" points="107.36 92.56 112.58 89.55 112.58 87.24 107.36 90.25 107.36 92.56"/><polygon class="cls-4" points="117.2 43.2 123.85 47.19 116.59 51.38 109.94 47.39 117.2 43.2"/><polygon class="cls-4" points="109.94 77.98 116.59 81.97 106.27 87.93 99.62 83.94 109.94 77.98"/><polygon class="cls-15" points="109.78 78.97 114.79 81.97 106.43 86.7 101.43 83.69 109.78 78.97"/><polygon class="cls-5" points="109.94 47.39 116.59 51.38 116.59 81.97 109.94 77.98 109.94 47.39"/><polygon class="cls-6" points="96.01 91.37 102.66 95.37 106.03 114.52 99.38 110.53 96.01 91.37"/><polygon class="cls-7" points="106.27 87.93 102.66 95.37 96.01 91.37 99.62 83.94 106.27 87.93"/><polygon class="cls-15" points="119.35 92.38 121.94 90.89 121.94 86.14 119.35 87.63 119.35 92.38"/><polygon class="cls-11" points="119.72 90.01 121.57 88.94 121.57 86.86 119.72 87.93 119.72 90.01"/><polygon class="cls-21" points="119.35 87.63 117.59 86.57 117.59 91.32 119.35 92.38 119.35 87.63"/><polygon class="cls-20" points="120.18 85.07 121.94 86.14 119.35 87.63 117.59 86.57 120.18 85.07"/><polygon class="cls-10" points="107.76 80.46 109.62 81.54 110.02 81.31 108.16 80.23 107.76 80.46"/><path class="cls-10" d="M109.47,82.33c0,.45.65.82,1.46.82s1.46-.37,1.46-.82-.65-.82-1.46-.82S109.47,81.88,109.47,82.33Z"/><path class="cls-22" d="M112.09,81.51v.68c0,.36-.52.65-1.16.65s-1.16-.29-1.16-.65v-.68Z"/><path class="cls-23" d="M109.77,81.54c0,.36.52.65,1.16.65s1.16-.29,1.16-.65-.52-.66-1.16-.66S109.77,81.18,109.77,81.54Z"/><polygon class="cls-10" points="104.42 82.41 106.29 83.48 106.69 83.25 104.82 82.18 104.42 82.41"/><path class="cls-10" d="M106.14,84.27c0,.46.65.83,1.46.83s1.46-.37,1.46-.83-.66-.82-1.46-.82S106.14,83.82,106.14,84.27Z"/><path class="cls-22" d="M108.76,83.45v.69c0,.36-.52.65-1.16.65s-1.16-.29-1.16-.65v-.69Z"/><path class="cls-23" d="M106.44,83.48c0,.36.52.66,1.16.66s1.16-.3,1.16-.66-.52-.65-1.16-.65S106.44,83.12,106.44,83.48Z"/><path class="cls-8" d="M33.67,35.52a1.35,1.35,0,0,0-1.3.13,5,5,0,0,0-2.07,4,1.85,1.85,0,0,0,.7,1.66L98.2,79.92l2.67-5.75Z"/><path class="cls-9" d="M101.61,75.85a5,5,0,0,1-2.07,4c-1.15.66-2.07,0-2.07-1.57a4.94,4.94,0,0,1,2.07-3.95C100.68,73.63,101.61,74.33,101.61,75.85Z"/><path class="cls-10" d="M99.51,75.68l10.41-6,.69.38-.69,2.47-10.41,6c-.59.34-1.07,0-1.07-.81A2.57,2.57,0,0,1,99.51,75.68Z"/><polygon class="cls-10" points="99.47 78.95 98.78 78.56 98.9 77.97 99.66 78.26 99.47 78.95"/><path class="cls-11" d="M100.2,76.07l10.41-6v2.86l-10.41,6c-.59.34-1.07,0-1.07-.81A2.57,2.57,0,0,1,100.2,76.07Z"/><path class="cls-11" d="M105.13,76.07a3,3,0,0,1-1.27,2.41c-.69.4-1.26,0-1.26-1a3,3,0,0,1,1.26-2.41C104.56,74.71,105.13,75.14,105.13,76.07Z"/><polygon class="cls-15" points="53.86 10.61 50.87 12.7 40.32 39.41 97.3 72.11 107.78 45.6 110.65 43.28 53.86 10.61"/><path class="cls-8" d="M109.3,47.47c-.42.49-.88,1-1.3,1.53a2,2,0,0,1-.6-1.6,5,5,0,0,1,2.07-3.95c1.13-.66,2,0,2.07,1.52C110.79,45.8,110,46.63,109.3,47.47Z"/><path class="cls-15" d="M54.56,12.25a5,5,0,0,1-2.06,4c-1.15.66-2.07,0-2.07-1.57a4.94,4.94,0,0,1,2.07-4C53.64,10,54.56,10.73,54.56,12.25Z"/><path class="cls-24" d="M22.88,115.42c3.06.76,4.64-.29,4.64-.29a2.43,2.43,0,0,0,.31-2.25c0,.28-.16.69-.87.88a7.9,7.9,0,0,1-6-1.12,18.13,18.13,0,0,1-2.84-2.15c-.1.8-.14,2-.14,2A10.27,10.27,0,0,0,22.88,115.42Z"/><path class="cls-25" d="M18.12,110.49A18.13,18.13,0,0,0,21,112.64a9,9,0,0,0,2,.92,7.47,7.47,0,0,0,4,.2c.71-.19.86-.6.87-.88a.11.11,0,0,0,0,0,5.27,5.27,0,0,1-1.48-1.4,5.46,5.46,0,0,1-.88-1.75l-1.72-.57-.14,0a6.1,6.1,0,0,0-1.07-.12c-.12.05-3-.64-3.25-.59s-.83,1.12-1,1.49A2.11,2.11,0,0,0,18.12,110.49Zm8,1h0Zm-.22,0h0Zm-2.78,1.68.06-.1Zm.29-.42,0,0Z"/><path class="cls-24" d="M29.38,111.13a8.26,8.26,0,0,0,2.73.44c1.44.05,3.32.61,6.07.73a6.78,6.78,0,0,0,4-.81,3,3,0,0,0-.06-1.19,8,8,0,0,1-3.55.61c-2.22-.1-4.47-.34-5.76-.46s-3.11-.47-3.53-.55C29.33,110.58,29.38,111.13,29.38,111.13Z"/><path class="cls-25" d="M34.21,108.31l.37-.53a5.93,5.93,0,0,1,.59-.19c.06,0,.87-.21,1-.21l.54-.06c-.64-.47-1.72-1.25-1.83-1.27a20.5,20.5,0,0,0-2.54.12c-.27.1-2,.37-2.61,1.45a5.6,5.6,0,0,0-.39,2.28c.42.08,2.38.44,3.53.55s2.93.29,4.82.41a3.07,3.07,0,0,1,.24-1A9.17,9.17,0,0,1,34.21,108.31Z"/><path class="cls-25" d="M35.17,107.59a5.93,5.93,0,0,0-.59.19l-.37.53a9.17,9.17,0,0,0,3.71,1.59,3.44,3.44,0,0,1,.83-1.18,19,19,0,0,1-1.59-1.06l-.46-.34-.54.06C36,107.38,35.23,107.59,35.17,107.59Z"/><path class="cls-25" d="M42.11,110.05a7.32,7.32,0,0,1-2.75-1c-.21-.11-.42-.23-.61-.35a3.44,3.44,0,0,0-.83,1.18,3.07,3.07,0,0,0-.24,1l.94,0a8,8,0,0,0,3.55-.61C42.14,110.15,42.11,110.05,42.11,110.05Z"/><path class="cls-26" d="M26.32,68c-1.48,6.52-2.93,14-4.13,20.56-1.56,8.51-1.71,12.3-3.35,20.32a1.14,1.14,0,0,0,.63.93c.86.35,6,.4,5.76-.15s.08-.51.08-1.25a24.07,24.07,0,0,1,.7-6.3c.52-2,1.24-4.29,1.79-6.31.69-2.58,1.39-4.83,2.1-7.4.59-2.15,2.28-4.57,2.92-6.71.27-.92,1.45-5.37,1.75-6.29-.72,4.32-1.19,11.57-1.79,15.91-.49,3.54-1.58,8-1.87,11.52a13,13,0,0,1-1,4.21c-.56.85,1.19,1,1.19,1s.08,0,2.75.27c0-.15.93-.06,2-.27,0,0,1.25-.41,1.14-.67s.41.31.41-1.17c0-1.93-.41-3.2.06-5.06a41.66,41.66,0,0,0,1.08-5.86,14.31,14.31,0,0,1,.52-2.44,9.58,9.58,0,0,0,.57-2c.16-1.26.35-2.31.47-3.58.21-2.14.73-4.19,1-6.33.14-1.21,1.14-8.1,1.29-9.3s.26-6.12.26-6.12a15.39,15.39,0,0,1,0-2.22c.11-.33-.33-1-.33-1l-.89-.37A17.34,17.34,0,0,0,39,62c-.45.15-1.51-.64-1.91-.49s-2,.47-2.15.5-5.76-1.41-5.76-1.41l-2,1.88-.39,2.49Z"/><polygon class="cls-27" points="34.07 76.24 36.45 68.03 37.7 66.67 36.49 68.43 33.68 78.58 34.07 76.24"/><path class="cls-28" d="M27.39,32.06a9.6,9.6,0,0,1,.21,2.79c-.19.7-.13.8,0,.83a10.08,10.08,0,0,0,3.13,1.9c1.84.61,3.7.37,3.72-.51s-1.27-1.12-1.9-2.63a7,7,0,0,1-.65-2.16Z"/><path class="cls-29" d="M28.19,36.34c-.8.46-5.51,1.1-6.15,1.59a10.24,10.24,0,0,0-2.25,3.53c0,.53,3,4.87,4.71,7.33a21.31,21.31,0,0,1,3.17,10.45c-.07,2.31-2.3,3.1,1.7,4.66,0,0,8.71,2,11.14.91.57-.26,1.41-.39,1.74-1.44,1.94-6-1-14.92-.89-17.76.09-2.08.14-7.43-1.67-8.89-1-.81-4.19-.95-4.19-.95l-7,.63Z"/><path class="cls-30" d="M23.58,47.47l.92,1.32a21.31,21.31,0,0,1,3.17,10.45c-.07,2.31-2.3,3.1,1.7,4.66,0,0,8.71,2,11.14.91.57-.26,1.41-.39,1.74-1.44a13.17,13.17,0,0,0,.51-2.17l-.3.63c-2.1,4.56-12,2-13.12,1-.64-.62.75-1.16,1.24-1.24S29,59.9,28.85,58.85s-.91-4.72-1.79-8.13-.44-5.74,0-5.95S25.12,46.29,23.58,47.47Z"/><path class="cls-31" d="M27.2,34c-.27.59-1.69,2.64-1.27,2.92s4.06,1.9,4.19,1.55.92-2.45.7-2.55C29.92,35.48,27.7,34.16,27.2,34Z"/><path class="cls-32" d="M30.56,12.55c3.57,4.46,7.6,12.55,6.55,14.53-3,5.59-2.57,6-7,6.35a22.81,22.81,0,0,1-5.55-.08c-2.17-.32-2.15-.55-3.32-1.87-.24-.28-3.78,1.4-5.8-2.66-1-2.05.32-3.4,2.22-3.9-2.58-8.24,3.81-16,11.86-13.16"/><path class="cls-33" d="M20.11,16.79c-5.37-.34-5.54,3.61-2.43,8.13-1.9.5-3.24,1.85-2.22,3.9,2,4.06,5.56,2.38,5.8,2.66,1.17,1.32,1.15,1.55,3.32,1.87a22.81,22.81,0,0,0,5.55.08s-8.81-2.8-10.32-11.1c0,0-.67-3.23.24-4.61l.06-.93"/><path class="cls-34" d="M27.84,21.51c-1.48.4-3.88.4-5.32,1-.79.34-.7-.51.07-.94a10,10,0,0,1,4.75-1.33c.87,0,1.35,1.05.5,1.27Z"/><path class="cls-34" d="M31.48,20.09c1.09-.49,2.55-1.65,3.72-2,.65-.19.18-.65-.5-.54a7.87,7.87,0,0,0-3.54,1.5c-.55.4-.31,1.29.32,1Z"/><path class="cls-35" d="M32.61,25.88c-.23-.49-1.71-.42-2-1.47-.18-.59-.7-2.77-.28-3.19,0,0,.18,2.51.83,3.24.51.54,1.82.61,2.06,1.28s-.86,1.68-1.45,1.58C31.52,27.28,32.7,26.42,32.61,25.88Z"/><path class="cls-36" d="M24.07,10.06c-1.61.1-7.26,1.6-8.74,2.57-1,.65-4.38,5-3.64,6.75l.76.78c-.68,1.59.17,4.61,2.64,7.53,0-1.09,1.2-2.69,2-2.3.21.08,1.07,1.13,1.79,1.81.55.53.81-.9.43-1.62s-.94-1.59-1.18-2c-.43-.79-1.45-3-1-4.42.67-2.34,5.68-3.07,7.32-4C26.54,14,27.74,11.76,29.35,12A6,6,0,0,0,24.07,10.06Z"/><path class="cls-36" d="M20.15,11.39s3.91-1.93,6.4-1.51a7.7,7.7,0,0,0,2.52-1.57s.24-1,.62.46l.39,1.49a4.51,4.51,0,0,1,.58,2.08S27,16.26,21.92,15.73Z"/><path class="cls-37" d="M29.7,29.92c.18.42,1,0,2.07-.08s1.95.11,2.05-.34-.9-1.55-2.23-1.41S29.5,29.54,29.7,29.92Z"/><path class="cls-38" d="M31.83,29.13a2.86,2.86,0,0,1,1.09,0c.32.07.6.24.9.32v0c-.1.45-1,.21-2.05.34-.69.06-1.3.26-1.69.27A3.82,3.82,0,0,1,31.83,29.13Z"/><path class="cls-20" d="M30,29a2.25,2.25,0,0,1,3.26-.33Z"/><path class="cls-39" d="M35.59,20.6,31.8,21.86A4.74,4.74,0,0,1,35.59,20.6Z"/><path class="cls-39" d="M28.64,22.61,24.25,24.8A5.81,5.81,0,0,1,28.64,22.61Z"/><path class="cls-40" d="M25.26,42.23C24.9,41.85,22,37.61,20.74,39s-.64,5-.39,7.28.27,4.66,2,6,4.54.08,4.51-1.23S25.26,42.23,25.26,42.23Z"/><path class="cls-40" d="M39.69,36.72c.13-.25,1.4.42,1.4.42s3.72,5.44,5,7.12,1.81,4.42,1.42,4.51.26,1.31-1.61,1.86a2.69,2.69,0,0,1-3.39-1.31c-.19-.73-4.57-5.48-4.72-7.49S39.69,36.72,39.69,36.72Z"/><path class="cls-41" d="M43.45,47.64c.7-1.64,3.5-1.71,4.08-.14.92,2.49-2.22,4.18-3.57,7.15,1,.68.28,1.45,1.46,3.38.14.25,1.24,1.54.84,1.84s-1.6-1.37-1.85-1.21,1.55,2.66.85,3-1.79-2.59-2-2.49,1.34,3,.72,3.25c-.83.33-1.77-2.85-2.11-2.65-.18.1,1,2.32.49,2.65s-1.56-1.77-2-2.62a4.83,4.83,0,0,1,.25-3.2C40.74,56.19,43.45,47.64,43.45,47.64Z"/><path class="cls-42" d="M44.84,46.48a2.15,2.15,0,0,1,2.69,1c.92,2.49-2.22,4.18-3.57,7.15,1,.68.28,1.45,1.46,3.38.14.25,1.24,1.54.84,1.84s-1.6-1.37-1.85-1.21,1.55,2.66.85,3-1.79-2.59-2-2.49,1.34,3,.72,3.25c-.83.33-1.77-2.85-2.11-2.65-.18.1,1,2.32.49,2.65a.26.26,0,0,1-.17,0,7.92,7.92,0,0,0-.46-2.34c-.12-.39-.15-.81,0-.77s1.75,2.79,1.91,2.91.29.1.35,0a25.38,25.38,0,0,0-.85-2.56c-.12-.32-.1-.76.06-.73s1.53,2.34,1.65,2.44a.77.77,0,0,0,.41.21c.11,0,.16-.23.09-.4s-1.07-2.27-1.13-2.49.18-.25.27-.2,1.41,1.38,1.59,1.32.42.07.09-.48S45,57.64,44.81,57.34a13.07,13.07,0,0,0-.58-2,1.61,1.61,0,0,0-.67-.69s2-3,2.54-4a4.79,4.79,0,0,0,1-2.77C47,46.91,44.86,46.48,44.84,46.48Z"/><path class="cls-41" d="M39.18,48.79S27,46.59,25.24,46.66s-4.74,1.45-4,3.75,2.43,2.26,4.74,2.34c2,.06,10-.64,12.26-.84,0,0,3,2.24,4.12,2.41a1.13,1.13,0,0,0,1-.52c.16-.2.08-.36.25-.6s.35-.4.34-.67a2.14,2.14,0,0,1,.23-.83,1.63,1.63,0,0,0-.05-.82c-.06-.22,0-.53-.11-.68-.59-.85-1.9-.89-2.39-1.46S39.18,48.79,39.18,48.79Z"/><path class="cls-43" d="M21.15,49.92a3.38,3.38,0,0,0,.11.49c.77,2.3,2.43,2.26,4.74,2.34,2,.06,10-.64,12.26-.84,0,0,3,2.24,4.12,2.41a1.13,1.13,0,0,0,1-.52c.16-.2.08-.36.25-.6s.35-.4.34-.67a2.14,2.14,0,0,1,.23-.83,1.63,1.63,0,0,0-.05-.82c-.06-.22,0-.53-.11-.68a2.14,2.14,0,0,0-.83-.66,3,3,0,0,1,.67.56c.16.24,0,.56.09.71a1.38,1.38,0,0,1,.05.94,1.77,1.77,0,0,0-.18.72,1.34,1.34,0,0,1-.37.69c-.18.21-.09.45-.63.69s-.6,0-1.62-.52-2.66-2.09-3-2.21-13,1.07-15.18.44A3.18,3.18,0,0,1,21.15,49.92Z"/><ellipse class="cls-44" cx="32.68" cy="36.28" rx="1.76" ry="1.23"/><polygon class="cls-45" points="32.33 36.88 61.06 51.32 47.7 43.2 33.7 36.88 32.33 36.88"/><polygon class="cls-45" points="54.15 54.58 51.02 57.66 51.88 60.55 56.51 60.55 58.65 57.17 54.15 54.58"/></g></g></g></svg>