<svg xmlns="http://www.w3.org/2000/svg" viewBox="0 0 506.47 410.11"><defs><style>.cls-1{fill:#93d500;}.cls-2{fill:#fff;}.cls-3{fill:none;stroke:#93d500;stroke-linecap:round;stroke-miterlimit:10;stroke-width:2px;}.cls-4{fill:#78ad60;}.cls-5{fill:#9cc981;}.cls-6{fill:#6c9e51;}.cls-7{fill:#639347;}.cls-8{fill:#85b76a;}.cls-9{fill:#aaa;}.cls-10{fill:#7f7f7f;}.cls-11{fill:#424242;}.cls-12{fill:#2d2d2d;}.cls-13{fill:#afafaf;}.cls-14{fill:#969696;}.cls-15{fill:#3d3d3d;}.cls-16{fill:#e1e9f9;}.cls-17{fill:#ccd8f2;}.cls-18{fill:#b1c4e5;}.cls-19{fill:#9db8e0;}.cls-20{fill:#88a9d1;}.cls-21{fill:#cad6ea;}.cls-22{fill:#e83838;}.cls-23{fill:#fc6460;}.cls-24{fill:#1b1c1c;}.cls-25{fill:#412918;}.cls-26{fill:#034a5b;}.cls-27{fill:#1c1c1c;}.cls-28,.cls-33{fill:#ad805e;}.cls-28,.cls-29,.cls-30,.cls-31,.cls-40,.cls-41,.cls-42,.cls-43,.cls-45{fill-rule:evenodd;}.cls-29{fill:#6bbcd1;}.cls-30{fill:#68b7cb;}.cls-31{fill:#94d1db;}.cls-32,.cls-41{fill:#bc977d;}.cls-34{fill:#513e40;}.cls-35{fill:#816d5b;}.cls-36{fill:#2a1c1c;}.cls-37{fill:#e2551c;}.cls-38{fill:#ab4412;}.cls-39{fill:#362617;}.cls-40{fill:#5b9bab;}.cls-42{fill:#c09375;}.cls-43{fill:#806747;}.cls-44,.cls-45{fill:#546e7a;}.cls-46{fill:#00877a;}</style></defs><g id="Capa_2" data-name="Capa 2"><g id="Capa_1-2" data-name="Capa 1"><path class="cls-1" d="M199.68,372.94a30.76,30.76,0,1,1,21.75-9A30.57,30.57,0,0,1,199.68,372.94Z"/><path class="cls-2" d="M199.68,312.93A29.26,29.26,0,1,1,179,321.5a29.13,29.13,0,0,1,20.69-8.57m0-3a32.26,32.26,0,1,0,22.81,9.45,32,32,0,0,0-22.81-9.45Z"/><line class="cls-3" x1="178.99" y1="321.5" x2="165.39" y2="307.89"/><path class="cls-2" d="M201.35,330.72c2.19,0,6.45.72,6.45,3.36a1.9,1.9,0,0,1-1.86,2c-1.23,0-2.07-1-4.59-1-3.72,0-5.64,3.15-5.64,6.81s1.95,6.63,5.64,6.63c2.52,0,3.54-1.26,4.77-1.26a2.11,2.11,0,0,1,2,2c0,2.88-4.53,3.54-6.75,3.54-6.09,0-10.32-4.83-10.32-11S195.23,330.72,201.35,330.72Z"/><circle class="cls-1" cx="326.84" cy="94.25" r="30.76"/><path class="cls-2" d="M326.84,65a29.26,29.26,0,1,1-29.26,29.26A29.26,29.26,0,0,1,326.84,65m0-3h0a32.26,32.26,0,1,0,22.8,9.45A32,32,0,0,0,326.84,62Z"/><line class="cls-3" x1="297.58" y1="94.25" x2="107.16" y2="94.25"/><path class="cls-2" d="M318.05,86.43a2.81,2.81,0,0,1-.21-1.11,2.24,2.24,0,0,1,4.35-.69l4.65,12.48,4.65-12.48a2.24,2.24,0,0,1,4.35.69,2.82,2.82,0,0,1-.22,1.11l-6.56,16.71a2.29,2.29,0,0,1-4.44,0Z"/><polygon class="cls-4" points="109.89 199.23 129.93 187.66 129.93 128.23 144.04 120.09 144.04 230.9 109.42 250.88 102.87 213.68 109.89 199.23"/><polygon class="cls-4" points="122.8 206.99 142.85 195.42 142.85 135.99 156.95 127.85 156.95 238.65 122.33 258.64 115.78 221.44 122.8 206.99"/><polygon class="cls-5" points="144.04 120.09 156.95 127.85 142.85 135.99 129.93 128.23 144.04 120.09"/><polygon class="cls-5" points="129.93 187.66 142.85 195.42 122.8 206.99 109.89 199.23 129.93 187.66"/><polygon class="cls-6" points="129.93 128.23 142.85 135.99 142.85 195.42 129.93 187.66 129.93 128.23"/><polygon class="cls-7" points="102.87 213.68 115.78 221.44 122.33 258.64 109.42 250.88 102.87 213.68"/><polygon class="cls-8" points="122.8 206.99 115.78 221.44 102.87 213.68 109.89 199.23 122.8 206.99"/><path class="cls-9" d="M153.92,133.76a2.65,2.65,0,0,0-2.53.27c-2.22,1.28-4,4.72-4,7.68a3.62,3.62,0,0,0,1.36,3.23L279.28,220l5.17-11.18Z"/><path class="cls-10" d="M285.89,212.12c0,3-1.8,6.4-4,7.68s-4-.08-4-3,1.8-6.4,4-7.68S285.89,209.16,285.89,212.12Z"/><path class="cls-7" d="M130.62,215c0,4.26-2.59,9.21-5.79,11s-5.79-.11-5.79-4.37,2.59-9.21,5.79-11.06S130.62,210.7,130.62,215Z"/><path class="cls-11" d="M121.23,190.12l20.24-11.68,1.34.75L141.47,184l-20.24,11.68c-1.14.66-2.07,0-2.07-1.57A5,5,0,0,1,121.23,190.12Z"/><polygon class="cls-11" points="121.16 196.48 119.81 195.72 120.06 194.57 121.54 195.13 121.16 196.48"/><path class="cls-12" d="M122.57,190.87l20.24-11.68v5.54l-20.24,11.68c-1.14.66-2.07,0-2.07-1.57A5,5,0,0,1,122.57,190.87Z"/><path class="cls-13" d="M126.11,216.09a1,1,0,0,0-.94.1,3.67,3.67,0,0,0-1.54,2.93,1.35,1.35,0,0,0,.53,1.23l6.75,3.81,1.86-4.33Z"/><path class="cls-14" d="M133.41,221.13a3.67,3.67,0,0,1-1.54,2.93c-.84.49-1.53,0-1.53-1.16a3.67,3.67,0,0,1,1.53-2.93C132.72,219.48,133.41,220,133.41,221.13Z"/><path class="cls-15" d="M132.77,221.55a2.09,2.09,0,0,1-.87,1.66c-.48.28-.87,0-.87-.66a2.07,2.07,0,0,1,.87-1.65C132.38,220.62,132.77,220.91,132.77,221.55Z"/><path class="cls-16" d="M145.89,209.3l71.17,40.88L145.89,209.3c-2-1-4.68-.83-7.51.8-6.6,3.81-12,14-12,22.85,0,4.75,1.56,8.1,4,9.6l110.66,63.52,15.4-33.25S146.1,209.41,145.89,209.3Z"/><path class="cls-17" d="M260.78,282.56c0,8.81-5.35,19-12,22.86s-12-.24-12-9.05,5.36-19,12-22.85S260.78,273.76,260.78,282.56Z"/><path class="cls-18" d="M258.53,284.79c0,6.47-3.93,14-8.79,16.79s-8.79-.17-8.79-6.64,3.94-14,8.79-16.8S258.53,278.32,258.53,284.79Z"/><path class="cls-19" d="M255.92,286.82c0,4.26-2.59,9.21-5.79,11.06s-5.79-.12-5.79-4.38,2.6-9.21,5.79-11.06S255.92,282.56,255.92,286.82Z"/><path class="cls-13" d="M251.5,288.54a1,1,0,0,0-.95.1,3.69,3.69,0,0,0-1.53,2.93,1.34,1.34,0,0,0,.53,1.23l6.75,3.81,1.86-4.33Z"/><path class="cls-14" d="M258.8,293.57a3.69,3.69,0,0,1-1.54,2.94c-.85.49-1.53,0-1.53-1.16a3.68,3.68,0,0,1,1.53-2.94C258.11,291.92,258.8,292.44,258.8,293.57Z"/><path class="cls-15" d="M258.16,294a2.09,2.09,0,0,1-.87,1.66c-.48.28-.87,0-.87-.66a2.09,2.09,0,0,1,.87-1.66C257.77,293.07,258.16,293.36,258.16,294Z"/><path class="cls-13" d="M153.18,184.05a1,1,0,0,0-1,.1,3.67,3.67,0,0,0-1.54,2.93,1.35,1.35,0,0,0,.53,1.23l6.76,3.81,1.85-4.32Z"/><path class="cls-14" d="M160.47,189.09a3.66,3.66,0,0,1-1.53,2.93c-.85.49-1.54,0-1.54-1.16a3.67,3.67,0,0,1,1.54-2.93C159.79,187.44,160.47,188,160.47,189.09Z"/><path class="cls-15" d="M159.83,189.51a2.07,2.07,0,0,1-.87,1.66c-.48.28-.86,0-.86-.65a2.06,2.06,0,0,1,.86-1.66C159.44,188.58,159.83,188.87,159.83,189.51Z"/><path class="cls-17" d="M173,177.26l71.17,40.88L173,177.26c-2-1-4.68-.83-7.5.8-6.61,3.82-12,14.05-12,22.85,0,4.75,1.55,8.11,4,9.61L268.17,274l15.4-33.25S173.16,177.37,173,177.26Z"/><ellipse class="cls-18" cx="275.88" cy="257.43" rx="18.36" ry="10.39" transform="translate(-69.02 410.49) rotate(-66.95)"/><path class="cls-19" d="M285.59,252.75c0,6.47-3.93,14-8.78,16.79s-8.79-.17-8.79-6.64,3.93-14,8.79-16.79S285.59,246.28,285.59,252.75Z"/><ellipse class="cls-20" cx="277.2" cy="258.12" rx="8.88" ry="5.03" transform="translate(-68.85 412.12) rotate(-66.95)"/><path class="cls-13" d="M278.56,256.5a1,1,0,0,0-.94.1,3.67,3.67,0,0,0-1.54,2.93,1.35,1.35,0,0,0,.53,1.23l6.75,3.81,1.86-4.32Z"/><path class="cls-14" d="M285.86,261.54a3.69,3.69,0,0,1-1.53,2.93c-.85.49-1.54,0-1.54-1.16a3.67,3.67,0,0,1,1.54-2.93C285.17,259.89,285.86,260.41,285.86,261.54Z"/><path class="cls-15" d="M285.22,262a2.07,2.07,0,0,1-.87,1.66c-.48.28-.87,0-.87-.65a2.07,2.07,0,0,1,.87-1.66C284.83,261,285.22,261.32,285.22,262Z"/><path class="cls-14" d="M135.17,188.13a2.66,2.66,0,0,0-2.52.27c-2.22,1.28-4,4.72-4,7.68a3.59,3.59,0,0,0,1.35,3.23l130.55,75.08,5.17-11.18Z"/><path class="cls-10" d="M267.14,266.49c0,3-1.8,6.4-4,7.68s-4-.08-4-3,1.8-6.4,4-7.68S267.14,263.53,267.14,266.49Z"/><polygon class="cls-4" points="254.88 283.15 274.93 271.57 274.93 212.15 289.04 204 289.04 314.81 254.42 334.8 247.87 297.59 254.88 283.15"/><polygon class="cls-4" points="267.8 290.91 287.85 279.33 287.85 219.91 301.95 211.76 301.95 322.57 267.33 342.56 260.78 305.35 267.8 290.91"/><polygon class="cls-16" points="268.57 292.12 283.05 283.76 283.05 331.46 268.54 339.83 262.38 304.87 268.57 292.12"/><polygon class="cls-12" points="269.08 301.4 280.88 294.59 280.88 288.06 269.08 294.87 269.08 301.4"/><polygon class="cls-12" points="269.08 303.65 280.88 296.83 280.88 295.46 269.08 302.27 269.08 303.65"/><polygon class="cls-2" points="269.91 299.9 280.05 294.05 280.05 289.56 269.91 295.41 269.91 299.9"/><polygon class="cls-5" points="289.04 204 301.95 211.76 287.85 219.91 274.93 212.15 289.04 204"/><polygon class="cls-5" points="274.93 271.57 287.85 279.33 267.8 290.91 254.88 283.15 274.93 271.57"/><polygon class="cls-16" points="274.62 273.49 284.34 279.33 268.11 288.51 258.39 282.68 274.62 273.49"/><polygon class="cls-6" points="274.93 212.15 287.85 219.91 287.85 279.33 274.93 271.57 274.93 212.15"/><polygon class="cls-7" points="247.87 297.59 260.78 305.35 267.33 342.56 254.42 334.8 247.87 297.59"/><polygon class="cls-8" points="267.8 290.91 260.78 305.35 247.87 297.59 254.88 283.15 267.8 290.91"/><polygon class="cls-16" points="293.21 299.55 298.24 296.65 298.24 287.42 293.21 290.32 293.21 299.55"/><polygon class="cls-12" points="293.93 294.94 297.52 292.87 297.52 288.83 293.93 290.9 293.93 294.94"/><polygon class="cls-21" points="293.21 290.32 289.78 288.26 289.78 297.49 293.21 299.55 293.21 290.32"/><polygon class="cls-2" points="294.81 285.35 298.24 287.42 293.21 290.32 289.78 288.26 294.81 285.35"/><polygon class="cls-11" points="270.68 276.4 274.3 278.49 275.07 278.04 271.46 275.95 270.68 276.4"/><path class="cls-11" d="M274,280c0,.88,1.27,1.59,2.84,1.59s2.83-.71,2.83-1.59-1.27-1.6-2.83-1.6S274,279.15,274,280Z"/><path class="cls-22" d="M279.1,278.43v1.33c0,.7-1,1.27-2.25,1.27s-2.26-.57-2.26-1.27v-1.33Z"/><path class="cls-23" d="M274.59,278.49c0,.7,1,1.27,2.26,1.27s2.25-.57,2.25-1.27-1-1.27-2.25-1.27S274.59,277.79,274.59,278.49Z"/><polygon class="cls-11" points="264.21 280.17 267.83 282.26 268.6 281.82 264.98 279.73 264.21 280.17"/><path class="cls-11" d="M267.54,283.8c0,.89,1.27,1.6,2.83,1.6s2.84-.71,2.84-1.6-1.27-1.59-2.84-1.59S267.54,282.92,267.54,283.8Z"/><path class="cls-22" d="M272.63,282.21v1.32c0,.7-1,1.27-2.26,1.27s-2.25-.57-2.25-1.27v-1.32Z"/><path class="cls-23" d="M268.12,282.26c0,.7,1,1.27,2.25,1.27s2.26-.57,2.26-1.27-1-1.26-2.26-1.26S268.12,281.56,268.12,282.26Z"/><path class="cls-9" d="M126.76,189.08a2.66,2.66,0,0,0-2.52.27c-2.22,1.28-4,4.72-4,7.68a3.59,3.59,0,0,0,1.35,3.23l130.55,75.08,5.18-11.17Z"/><path class="cls-10" d="M258.73,267.44c0,3-1.79,6.4-4,7.68s-4-.08-4-3,1.8-6.39,4-7.68S258.73,264.48,258.73,267.44Z"/><path class="cls-11" d="M254.66,267.11l20.23-11.68,1.34.75L274.89,261l-20.23,11.69c-1.15.66-2.08,0-2.08-1.57A5,5,0,0,1,254.66,267.11Z"/><polygon class="cls-11" points="254.58 273.46 253.23 272.71 253.48 271.56 254.96 272.12 254.58 273.46"/><path class="cls-12" d="M256,267.86l20.23-11.68v5.54L256,273.4c-1.14.66-2.08,0-2.08-1.57A5,5,0,0,1,256,267.86Z"/><path class="cls-12" d="M265.57,267.86a5.88,5.88,0,0,1-2.45,4.69c-1.35.78-2.45-.05-2.45-1.85a5.88,5.88,0,0,1,2.45-4.69C264.47,265.23,265.57,266.06,265.57,267.86Z"/><polygon class="cls-16" points="165.98 140.7 160.17 144.76 139.68 196.66 250.37 260.18 270.72 208.68 276.31 204.16 165.98 140.7"/><path class="cls-9" d="M273.69,212.31c-.83.95-1.72,1.93-2.53,3a3.79,3.79,0,0,1-1.17-3.1c0-3,1.8-6.4,4-7.68s4,.06,4,3Q275.84,209.87,273.69,212.31Z"/><path class="cls-16" d="M167.35,143.9c0,3-1.8,6.39-4,7.68s-4-.08-4-3,1.8-6.4,4-7.68S167.35,140.93,167.35,143.9Z"/><path class="cls-24" d="M105.81,344.31c5.93,1.47,9-.57,9-.57,1.41-1.57.75-3.9.6-4.36,0,.53-.3,1.33-1.68,1.71a15.41,15.41,0,0,1-11.66-2.19,34.7,34.7,0,0,1-5.52-4.17c-.19,1.56-.28,3.94-.28,3.94A20.15,20.15,0,0,0,105.81,344.31Z"/><path class="cls-25" d="M96.55,334.73a34.7,34.7,0,0,0,5.52,4.17,16.68,16.68,0,0,0,3.84,1.79,14.54,14.54,0,0,0,7.82.4c1.38-.38,1.66-1.18,1.68-1.71a.64.64,0,0,0,0-.09,10.06,10.06,0,0,1-2.88-2.71,10.76,10.76,0,0,1-1.71-3.41l-3.33-1.09-.28-.09a11.47,11.47,0,0,0-2.08-.24c-.24.1-5.88-1.23-6.32-1.13s-1.6,2.17-2,2.88A4.29,4.29,0,0,0,96.55,334.73Zm15.6,1.85h0Zm-.43,0h0Zm-5.39,3.26a1.22,1.22,0,0,1,.12-.19A1.22,1.22,0,0,0,106.33,339.86Zm.55-.81.05-.07Z"/><path class="cls-24" d="M118.42,336a15.73,15.73,0,0,0,5.31.85c2.79.1,6.44,1.19,11.8,1.42s7.86-1.57,7.86-1.57a6.07,6.07,0,0,0-.11-2.31,15.45,15.45,0,0,1-6.91,1.18c-4.3-.19-8.67-.66-11.17-.9-2.24-.21-6-.91-6.86-1.06C118.33,334.91,118.42,336,118.42,336Z"/><path class="cls-25" d="M127.8,330.49l.73-1a10.81,10.81,0,0,1,1.14-.38c.12,0,1.7-.4,1.92-.4s.52-.06,1-.12c-1.23-.9-3.33-2.42-3.55-2.46a35.38,35.38,0,0,0-4.94.24c-.52.19-4,.71-5.07,2.8a10.8,10.8,0,0,0-.74,4.43c.81.15,4.62.85,6.86,1.06s5.67.58,9.35.8a6.35,6.35,0,0,1,.46-1.85A18,18,0,0,1,127.8,330.49Z"/><path class="cls-25" d="M129.67,329.09a10.81,10.81,0,0,0-1.14.38l-.73,1a18,18,0,0,0,7.21,3.1,6.66,6.66,0,0,1,1.62-2.3,35.54,35.54,0,0,1-3.09-2.05l-.9-.67c-.53.06-1,.12-1,.12S129.79,329.09,129.67,329.09Z"/><path class="cls-25" d="M143.15,333.88a14.33,14.33,0,0,1-5.34-1.91c-.41-.22-.8-.45-1.18-.68a6.66,6.66,0,0,0-1.62,2.3,6.35,6.35,0,0,0-.46,1.85l1.82.1a15.45,15.45,0,0,0,6.91-1.18C143.21,334.07,143.15,333.88,143.15,333.88Z"/><path class="cls-26" d="M112.48,252.11c-2.88,12.66-5.69,27.17-8,39.93-3,16.55-3.33,23.9-6.5,39.48-.12.56.64,1.59,1.21,1.82,1.68.68,11.62.77,11.19-.3s.15-1,.15-2.42a47.23,47.23,0,0,1,1.36-12.25c1-3.93,2.42-8.34,3.48-12.26,1.35-5,2.71-9.39,4.09-14.36,1.14-4.18,4.42-8.9,5.67-13,.52-1.8,2.82-10.44,3.4-12.23-1.4,8.4-2.32,22.48-3.48,30.91-1,6.87-3.07,15.48-3.63,22.39-.14,1.79-.83,6.5-1.91,8.17s2.31,2,2.31,2,.16.07,5.35.51c-.08-.3,1.81-.1,3.93-.51,0,0,2.43-.81,2.22-1.31s.81.61.81-2.27c0-3.76-.8-6.22.1-9.83a80.14,80.14,0,0,0,2.12-11.39,26.29,26.29,0,0,1,1-4.74,18.7,18.7,0,0,0,1.11-3.93c.31-2.46.67-4.5.91-7,.41-4.17,1.42-8.15,1.92-12.31.28-2.34,2.21-15.72,2.52-18.05.29-2.16.5-11.9.5-11.9a27.71,27.71,0,0,1,.06-4.31c.21-.65-.65-2-.65-2l-1.73-.72a31.23,31.23,0,0,0-4.9.21c-.86.29-2.93-1.24-3.71-1s-3.88.91-4.17,1-11.2-2.75-11.2-2.75l-3.85,3.66-.75,4.84Z"/><polygon class="cls-27" points="127.54 268.19 132.16 252.24 134.59 249.59 132.24 253.03 126.79 272.74 127.54 268.19"/><path class="cls-28" d="M114.56,182.38c.16,1,.76,4.06.4,5.41s-.24,1.55,0,1.61a20,20,0,0,0,6.09,3.69c3.58,1.19,7.18.73,7.23-1s-2.48-2.18-3.7-5.1a13.55,13.55,0,0,1-1.25-4.21Z"/><path class="cls-29" d="M116.11,190.68c-1.54.91-10.7,2.15-11.94,3.09s-4.38,5.83-4.38,6.86,5.83,9.47,9.16,14.25c3.91,5.62,6.34,15.47,6.16,20.28-.15,4.49-4.48,6,3.31,9.05,0,0,16.91,3.88,21.63,1.77,1.1-.5,2.73-.75,3.39-2.78,3.75-11.71-2-29-1.74-34.51.17-4,.27-14.43-3.24-17.27-1.94-1.57-8.15-1.85-8.15-1.85l-13.54,1.24Z"/><path class="cls-30" d="M107.16,212.31l1.79,2.57c3.91,5.62,6.34,15.47,6.16,20.28-.15,4.49-4.48,6,3.31,9.05,0,0,16.91,3.88,21.63,1.77,1.1-.5,2.73-.75,3.39-2.78a28.58,28.58,0,0,0,1-4.23c-.18.36-.38.77-.59,1.24-4.08,8.85-23.42,3.84-25.5,1.83-1.23-1.19,1.47-2.24,2.41-2.4s-3.12-3.2-3.36-5.23-1.75-9.16-3.47-15.8-.86-11.15-.09-11.55C114.32,206.79,110.16,210,107.16,212.31Z"/><path class="cls-31" d="M114.19,186.19c-.51,1.14-3.29,5.11-2.46,5.67s7.88,3.69,8.14,3,1.78-4.76,1.36-5C119.48,189,115.17,186.45,114.19,186.19Z"/><path class="cls-32" d="M120.71,144.46c7,8.66,14.78,24.39,12.73,28.23-5.8,10.86-5,11.56-13.55,12.34a45.1,45.1,0,0,1-10.79-.14c-4.21-.64-4.18-1.07-6.44-3.65-.47-.53-7.34,2.73-11.27-5.16-2-4,.63-6.6,4.31-7.57-5-16,7.4-31.1,23-25.57"/><path class="cls-33" d="M100.42,152.72c-10.43-.68-10.76,7-4.72,15.79-3.68,1-6.29,3.59-4.31,7.57,3.93,7.89,10.8,4.63,11.27,5.16,2.26,2.58,2.23,3,6.44,3.65a45.1,45.1,0,0,0,10.79.14s-17.13-5.44-20-21.56c0,0-1.31-6.27.45-8.95l.13-1.8"/><path class="cls-34" d="M115.43,161.88c-2.87.77-7.52.78-10.32,1.94-1.55.66-1.37-1,.13-1.83a19.5,19.5,0,0,1,9.22-2.58c1.7-.08,2.63,2,1,2.47Z"/><path class="cls-34" d="M122.51,159.12c2.11-1,4.95-3.2,7.22-3.85,1.27-.36.35-1.27-1-1.05a15.35,15.35,0,0,0-6.87,2.91c-1.07.77-.61,2.52.62,2Z"/><path class="cls-35" d="M124.7,170.37c-.45-1-3.32-.81-3.86-2.87-.36-1.14-1.37-5.37-.56-6.18,0,0,.37,4.86,1.63,6.29,1,1,3.53,1.18,4,2.48.38,1-1.67,3.26-2.81,3.07C122.58,173.08,124.88,171.41,124.7,170.37Z"/><path class="cls-36" d="M108.12,139.63c-3.13.2-14.11,3.11-17,5-1.93,1.27-8.5,9.65-7.07,13.1l1.49,1.52c-1.33,3.08.32,9,5.11,14.62,0-2.11,2.34-5.21,4-4.46.41.16,2.07,2.21,3.48,3.52,1.07,1,1.57-1.75.83-3.16s-1.83-3.08-2.29-4c-.83-1.53-2.82-5.87-2-8.57,1.3-4.56,11-6,14.22-7.76,4-2.25,6.37-6.52,9.48-6.05C116.15,141.48,114.25,139.24,108.12,139.63Z"/><path class="cls-36" d="M100.49,142.21s7.6-3.75,12.45-2.92a14.87,14.87,0,0,0,4.89-3s.46-2,1.21.89l.74,2.89a8.67,8.67,0,0,1,1.13,4s-7.09,7.61-17,6.58Z"/><path class="cls-37" d="M119,178.22c.36.81,2,0,4-.17s3.78.21,4-.65-1.74-3-4.33-2.75S118.65,177.47,119,178.22Z"/><path class="cls-38" d="M123.19,176.69a5.76,5.76,0,0,1,2.11,0c.62.13,1.16.48,1.75.62a.07.07,0,0,1,0,.05c-.19.86-2,.41-4,.65-1.34.12-2.53.52-3.28.52A7.35,7.35,0,0,1,123.19,176.69Z"/><path class="cls-2" d="M119.69,176.35a4.36,4.36,0,0,1,6.34-.65Z"/><path class="cls-39" d="M130.5,160.11l-7.37,2.45S125.39,159.89,130.5,160.11Z"/><path class="cls-39" d="M117,164l-8.52,4.25S110.74,164.64,117,164Z"/><path class="cls-40" d="M110.43,202.13c-.7-.74-6.26-9-8.78-6.3s-1.25,9.7-.77,14.15.53,9.05,3.93,11.71,8.82.16,8.76-2.39S110.43,202.13,110.43,202.13Z"/><path class="cls-40" d="M138.46,191.42c.24-.49,2.72.82,2.72.82s7.22,10.57,9.7,13.83,3.52,8.59,2.77,8.76.5,2.55-3.12,3.62-6.24-1.14-6.6-2.55-8.87-10.66-9.16-14.54S138.46,191.42,138.46,191.42Z"/><path class="cls-41" d="M145.77,212.64c1.34-3.18,6.79-3.33,7.92-.27,1.79,4.83-4.32,8.11-6.94,13.88,1.93,1.32.55,2.82,2.83,6.57.28.48,2.42,3,1.64,3.58s-3.11-2.67-3.59-2.36,3,5.16,1.65,5.74-3.49-5-3.94-4.83c-.71.3,2.59,5.83,1.38,6.3-1.6.65-3.43-5.53-4.08-5.16-.36.21,2,4.52.94,5.17s-3-3.44-3.87-5.09,0-5.66.47-6.23C140.5,229.24,145.77,212.64,145.77,212.64Z"/><path class="cls-42" d="M148.45,210.38c2.05-.61,4.52,0,5.24,2,1.79,4.83-4.32,8.11-6.94,13.88,1.93,1.32.55,2.82,2.83,6.57.28.48,2.42,3,1.64,3.58s-3.11-2.67-3.59-2.36,3,5.16,1.65,5.74-3.49-5-3.94-4.83c-.71.3,2.59,5.83,1.38,6.3-1.6.65-3.43-5.53-4.08-5.16-.36.21,2,4.52.94,5.17a.53.53,0,0,1-.33.06c.29-.52-.67-3.8-.9-4.55s-.28-1.58,0-1.49,3.39,5.41,3.7,5.65.57.18.68-.06a49.61,49.61,0,0,0-1.65-5c-.23-.62-.19-1.47.12-1.43s3,4.55,3.19,4.75.61.44.82.4.3-.45.16-.78-2.07-4.4-2.19-4.82.36-.5.52-.39,2.75,2.67,3.1,2.57.81.12.16-.94-2.24-3.19-2.54-3.77-.45-2.82-1.12-3.91a3.11,3.11,0,0,0-1.3-1.33s3.92-5.93,4.93-7.73,2.14-3.46,1.93-5.38S148.49,210.39,148.45,210.38Z"/><path class="cls-41" d="M137.47,214.88s-23.76-4.28-27.08-4.14-9.21,2.81-7.73,7.27,4.71,4.4,9.2,4.54c3.84.12,19.36-1.23,23.82-1.62,0,0,5.87,4.36,8,4.69a2.21,2.21,0,0,0,1.95-1c.32-.39.16-.7.49-1.18s.67-.78.66-1.3a4.38,4.38,0,0,1,.44-1.61,3.06,3.06,0,0,0-.09-1.59c-.13-.42,0-1-.21-1.32-1.15-1.65-3.71-1.73-4.65-2.83C141.14,213.47,137.47,214.88,137.47,214.88Z"/><path class="cls-43" d="M102.45,217.06a4.41,4.41,0,0,0,.21.95c1.48,4.47,4.71,4.4,9.2,4.54,3.84.12,19.36-1.23,23.82-1.62,0,0,5.87,4.36,8,4.69a2.21,2.21,0,0,0,1.95-1c.32-.39.16-.7.49-1.18s.67-.78.66-1.3a4.38,4.38,0,0,1,.44-1.61,3.06,3.06,0,0,0-.09-1.59c-.13-.42,0-1-.21-1.32a4.15,4.15,0,0,0-1.62-1.29,5.74,5.74,0,0,1,1.3,1.1c.31.46,0,1.09.18,1.38a2.76,2.76,0,0,1,.1,1.82,3.51,3.51,0,0,0-.35,1.41,2.76,2.76,0,0,1-.71,1.33c-.37.41-.18.88-1.24,1.33s-1.15.1-3.14-1-5.18-4.07-5.87-4.3-25.35,2.08-29.5.86A6.1,6.1,0,0,1,102.45,217.06Z"/><ellipse class="cls-44" cx="124.83" cy="190.58" rx="3.41" ry="2.39"/><polygon class="cls-45" points="124.15 191.73 179.97 219.78 154.01 204 126.81 191.73 124.15 191.73"/><polygon class="cls-45" points="166.54 226.13 160.47 232.11 162.15 237.71 171.12 237.71 175.29 231.16 166.54 226.13"/><path class="cls-46" d="M451.11,32.26a53.36,53.36,0,0,1,53.36,53.35V354.75a53.36,53.36,0,0,1-53.36,53.36H55.36A53.36,53.36,0,0,1,2,354.75V85.61A53.36,53.36,0,0,1,55.36,32.26H451.11m0-2H55.36A55.41,55.41,0,0,0,0,85.61V354.75a55.42,55.42,0,0,0,55.36,55.36H451.11a55.42,55.42,0,0,0,55.36-55.36V85.61a55.41,55.41,0,0,0-55.36-55.35Z"/><path class="cls-46" d="M428.73,63A30.75,30.75,0,0,1,407,10.51,30.76,30.76,0,0,1,450.47,54,30.58,30.58,0,0,1,428.73,63Z"/><path class="cls-2" d="M428.72,3A29.26,29.26,0,1,1,408,11.57,29.17,29.17,0,0,1,428.72,3m0-3a32.26,32.26,0,0,0-22.8,55.07A32.25,32.25,0,1,0,451.53,9.45,32,32,0,0,0,428.72,0Z"/><path class="cls-2" d="M421.7,22.87A2.13,2.13,0,0,1,424,20.53h5.27c4.63,0,7.48,2.07,7.48,6.78,0,3.3-2.5,5.19-5.56,5.67l5.1,5.46a2,2,0,0,1,.61,1.32,2.28,2.28,0,0,1-4,1.53l-6.66-8.07h-.07v6.51a2.25,2.25,0,1,1-4.5,0ZM426.2,30h3.09a2.56,2.56,0,0,0,2.8-2.67,2.52,2.52,0,0,0-2.8-2.64H426.2Z"/><circle class="cls-1" cx="380.45" cy="220.79" r="30.76"/><path class="cls-2" d="M380.45,191.53a29.26,29.26,0,1,1-29.25,29.26,29.26,29.26,0,0,1,29.25-29.26m0-3a32.26,32.26,0,1,0,32.26,32.26,32.29,32.29,0,0,0-32.26-32.26Z"/><line class="cls-3" x1="351.2" y1="220.79" x2="167.35" y2="220.79"/><path class="cls-2" d="M378.2,212a2.25,2.25,0,1,1,4.5,0v17a2.25,2.25,0,1,1-4.5,0Z"/><line class="cls-3" x1="107.16" y1="130.62" x2="107.16" y2="94.25"/></g></g></svg>