<svg xmlns="http://www.w3.org/2000/svg" viewBox="0 0 99.05 293.49"><defs><style>.cls-1{isolation:isolate;}.cls-2{fill:#939598;mix-blend-mode:multiply;opacity:0.5;}.cls-3{fill:#a8a8a8;}.cls-4{fill:#9b9b9b;}.cls-5{fill:#d0d0d0;}.cls-6{fill:#c1c1c1;}.cls-7{fill:#4d4d4d;}.cls-8{fill:none;stroke:#212121;stroke-linecap:round;stroke-miterlimit:10;}.cls-9{fill:#e59e85;}.cls-10{fill:#212121;}.cls-11{fill:#0a4d96;}.cls-12{fill:#f2c4b0;}.cls-13{fill:#192226;}.cls-14{fill:#0072d4;}.cls-15{fill:#facfa6;}.cls-16{fill:#312726;}.cls-17{fill:#ffc7ad;}.cls-18{fill:#f3a984;}.cls-19{fill:#ffa200;}.cls-20{fill:#fbc70e;}.cls-21{fill:#f0d471;}</style></defs><g class="cls-1"><g id="Capa_2" data-name="Capa 2"><g id="Capa_1-2" data-name="Capa 1"><ellipse class="cls-2" cx="9.51" cy="276.07" rx="9.51" ry="3.35"/><ellipse class="cls-2" cx="34.54" cy="290.14" rx="9.51" ry="3.35"/><ellipse class="cls-2" cx="64.15" cy="247.14" rx="9.51" ry="3.35"/><ellipse class="cls-2" cx="89.18" cy="261.21" rx="9.51" ry="3.35"/><path class="cls-3" d="M82.63,191.25a1.15,1.15,0,0,0,.58-2.16l-24-13.86a1.16,1.16,0,0,0-1.15,2l24,13.86A1.25,1.25,0,0,0,82.63,191.25Z"/><path class="cls-4" d="M88.7,261.1h.1a1.17,1.17,0,0,0,1.06-1.26L77.72,118.29a1.16,1.16,0,1,0-2.31.19L87.55,260A1.16,1.16,0,0,0,88.7,261.1Z"/><path class="cls-4" d="M64.42,246.76h.1a1.16,1.16,0,0,0,1.06-1.25L53.44,103.94a1.16,1.16,0,0,0-2.31.2L63.27,245.7A1.16,1.16,0,0,0,64.42,246.76Z"/><path class="cls-3" d="M23.38,220.54a1.18,1.18,0,0,0,.57-.15l36.53-20.7a1.16,1.16,0,0,0-1.15-2L22.8,218.37a1.16,1.16,0,0,0-.43,1.58A1.14,1.14,0,0,0,23.38,220.54Z"/><path class="cls-5" d="M33.48,291.05a1.16,1.16,0,0,0,1.12-.88L83.66,95.85c1.76-8.6-5.22-18.35-13-22.83-2.91-1.68-5.49-2.1-7.69-1.26-2.71,1-4.75,3.93-6.43,9.09L7.48,275.25a1.15,1.15,0,1,0,2.24.56L58.79,81.49c1.42-4.37,3-6.8,5-7.57,1.53-.59,3.4-.23,5.7,1.11,7,4.07,13.43,12.78,11.89,20.3L32.35,289.61a1.15,1.15,0,0,0,.84,1.4A1,1,0,0,0,33.48,291.05Z"/><polygon class="cls-3" points="40.42 111.35 65.75 125.97 83.94 115.47 83.94 114.1 58.61 100.84 40.42 109.98 40.42 111.35"/><polygon class="cls-6" points="40.42 109.98 65.75 124.6 83.94 114.1 58.61 99.48 40.42 109.98"/><polygon class="cls-3" points="39.02 136.85 64.35 151.47 72.25 146.9 72.25 145.53 46.93 132.28 39.02 135.48 39.02 136.85"/><polygon class="cls-6" points="39.02 135.48 64.35 150.1 72.25 145.53 46.93 130.91 39.02 135.48"/><polygon class="cls-3" points="33.46 158.62 58.78 173.24 66.69 168.68 66.69 167.31 41.36 154.06 33.46 157.26 33.46 158.62"/><polygon class="cls-6" points="33.46 157.26 58.78 171.88 66.69 167.31 41.36 152.69 33.46 157.26"/><polygon class="cls-3" points="27.89 180.4 53.22 195.02 61.12 190.45 61.12 189.09 35.79 175.83 27.89 179.03 27.89 180.4"/><polygon class="cls-6" points="27.89 179.03 53.22 193.65 61.12 189.09 35.79 174.46 27.89 179.03"/><polygon class="cls-3" points="22.32 202.17 47.65 216.79 55.55 212.23 55.55 210.86 30.23 197.61 22.32 200.81 22.32 202.17"/><polygon class="cls-6" points="22.32 200.81 47.65 215.43 55.55 210.86 30.23 196.24 22.32 200.81"/><polygon class="cls-3" points="16.75 223.95 42.08 238.57 49.99 234 49.99 232.64 24.66 219.38 16.75 222.58 16.75 223.95"/><polygon class="cls-6" points="16.75 222.58 42.08 237.21 49.99 232.64 24.66 218.02 16.75 222.58"/><polygon class="cls-3" points="11.19 245.72 36.51 260.35 44.42 255.78 44.42 254.41 19.09 241.16 11.19 244.36 11.19 245.72"/><polygon class="cls-6" points="11.19 244.36 36.51 258.98 44.42 254.41 19.09 239.79 11.19 244.36"/><path class="cls-3" d="M47.41,236.42a1.08,1.08,0,0,0,.57-.15l36.53-20.69a1.16,1.16,0,0,0-1.14-2l-36.53,20.7a1.15,1.15,0,0,0,.57,2.16Z"/><path class="cls-5" d="M79,105a6.37,6.37,0,0,0,2.35.13l-46.71,185a1.16,1.16,0,0,1-1.12.88,1,1,0,0,1-.29,0,1.15,1.15,0,0,1-.84-1.4Z"/><path class="cls-7" d="M99.05,78.05l-.9,5.73a.51.51,0,0,1-.5.42h-.08a.49.49,0,0,1-.41-.57l1-6.12Z"/><path class="cls-8" d="M68.71,63.81s-.45,41.49,20.85,42.28c8.74.32,8.09-22.38,8.09-22.38s-4.31-10.23.51-11.07"/><path class="cls-9" d="M76.55,30.08a29.45,29.45,0,0,1-5,5.15C70,33.92,68.05,34,67,32.7c2.26-1.27,5.82-3.65,7.56-4.65Z"/><path class="cls-10" d="M78.87,23.4a13.12,13.12,0,0,1,2.88-.55c.27,0,3.55,0,3.4.84,0,.23-.32.43-.72.61h0c0,.13.06.26.07.38a.93.93,0,0,1-.3.67,2.9,2.9,0,0,1-1,.58,4.37,4.37,0,0,1-1.65.18c-.38,0-.74,0-1.11-.07a2.18,2.18,0,0,0-.36.61.14.14,0,0,1,0,.06c.47,1,2.83-1.2,3.11.47.08.49-3.06,1.55-3.06,1.55a11.57,11.57,0,0,1-2.76,1.59c-2,.23-3-1.47-2.62-2.41A21.66,21.66,0,0,1,78.87,23.4Z"/><path class="cls-10" d="M88.61,29.3c0-1,2.88-1.27,3.08-1.33.76-.3,1.57-.75,2.13-.92,1-.29.32-.5.88.67.46.93,1,2.57.51,3.5-1.1,2.12-1.1,2.15-3.08,1.89a5.13,5.13,0,0,1-1.27.44A2,2,0,0,1,88.63,32a4.28,4.28,0,0,1,0-.72C88.15,30.79,88.59,29.91,88.61,29.3Z"/><path class="cls-11" d="M71.85,29.74a2.9,2.9,0,0,0,2.77,2.75c-1.54,2.39-6.44,7.64-9,8.63-3.84,1.51-9-.53-12.7-4.31-2.18-2.2-4.92-6.87-1.35-9,3.73-2.2,9,6,12.51,6.78C66.16,32.86,71.05,29.54,71.85,29.74Z"/><path class="cls-12" d="M86.75,32.38c1.13-1,3-3.11,4.41-1.28,1,1.28-.42,2.43-1,3.51Z"/><path class="cls-13" d="M54.5,101.11c1.45-.11-.71,2.24,1.88,1.6.86-.21,2.39-.46,3.13.33,1.15,1.24,0,2.93-.73,4.14a3.34,3.34,0,0,1-1.07,1.14c-.55.32-1.2.39-1.74.75-1,.66-1.74,1.57-3,1.85a5.74,5.74,0,0,1-2.91-.11,1,1,0,0,1-.68-.82c0-1.3,1.39-4,.86-5.17C49.94,104.14,53.35,101.26,54.5,101.11Z"/><path class="cls-13" d="M60.88,113.63c.23-1.28,1.9-2.91,1.37-4.32-.27-.76,3.41-1,5.43-.56a5.3,5.3,0,0,0,.55.87,3.18,3.18,0,0,0,.64.63c.13.08.4.21.47.26.13.34.56.69,1.93,1.08,1.07.3,3.47.43,4.17,1.39a1.13,1.13,0,0,1,.22.57c.31,1-1.5,2-3.53,2.52a10.16,10.16,0,0,1-2.19.3,14.62,14.62,0,0,1-3-.21c-1.12-.07-3.1,0-4-.1A2.05,2.05,0,0,1,60.88,113.63Z"/><path class="cls-11" d="M56.91,60.76c.07-.12,5.24,1.4,4.33,5.05-.5,2,.34,9.28-2.6,20.66-1.35,5.24-1.48,9.14-1.76,14.53-.08,1.69.94,4.07-.09,5.68-2,3.07-5.21,4.08-7.42,2.74A69.85,69.85,0,0,1,51.07,82c.07-7.94,0-17.66.25-24.48C51.32,57.54,53,61.34,56.91,60.76Z"/><path class="cls-14" d="M69.18,55.71c1,9.23,1.28,15-.83,27.35-1.12,6.52-.13,17.38-.23,22.78,0,1.69.78,3.16,1.34,4.8-1.17,1.07-6.75,2.92-9,1.66-.16-1.44-3.17-15.3-.83-26.19-.19-7.93-1.35-23.68-3.72-31.21C55.91,54.9,65.24,56.42,69.18,55.71Z"/><path class="cls-14" d="M68.69,48.87s0,.05,0,.08h0a1.38,1.38,0,0,0-.4.31,32,32,0,0,1-16.94-5.51c-.15-1-.34-2.08-.57-3.3s-.5-2.2-.78-3.31c0-.15-.08-.31-.12-.46C49,33,48.36,29.45,51.83,27a1.83,1.83,0,0,1,.65-.28,6,6,0,0,1,2.07,0h0a31.7,31.7,0,0,1,6.68,2A20.51,20.51,0,0,1,63.61,30a23.76,23.76,0,0,1,2.56,1.73c.89.68,1.76.67,2.28,1.19,2.24,2.3-.28,3.1.38,4.27C70.17,39.57,69,43.06,68.69,48.87Z"/><path class="cls-14" d="M65.59,38.71a5,5,0,0,1-1.15-4.61,3.85,3.85,0,0,1,4.66-1.88c2.75.72,8.41,3.47,11,4.28,3.11-1.86,5.16-6.64,8.88-5.15A2.51,2.51,0,0,1,90.46,35c-1.94,3.33-2.66,4.52-4.23,5.89A19.67,19.67,0,0,1,83,43.21a4.25,4.25,0,0,1-2.14-.08,33.65,33.65,0,0,1-6.31-.39C69.83,41.64,67.53,41,65.59,38.71Z"/><path class="cls-15" d="M61.63,26.57c.08-.94.8-.77.39-1.59a4.5,4.5,0,0,0-1.48-1.78,3.31,3.31,0,0,0-2.21-.6c-.27,0-.44.2-.71.21a16.34,16.34,0,0,0-2.21.09c-.72.15-1.39.24-1.34,1.06a9,9,0,0,1,0,2.48,11.24,11.24,0,0,0-.39,1.9,1.66,1.66,0,0,0,.73,1.37,5.54,5.54,0,0,0,1.27.68,9.28,9.28,0,0,0,3.18.78A4.7,4.7,0,0,0,61,30.76a2.07,2.07,0,0,0,.88-.57c.16-.29,0-.82-.05-1.12A9.13,9.13,0,0,1,61.63,26.57Z"/><path class="cls-15" d="M67.06,8.17a5.76,5.76,0,0,1,1.48,2.69c.48,2.33-.33,4.81.31,7.11s-.06,7.43-4.45,9c-2.22.79-6.72.26-8.2-.35-2-.81-3.35-2.6-4.58-4.35C41.47,8,60.3.83,67.06,8.17Z"/><path class="cls-16" d="M48,6.32A5.85,5.85,0,0,1,49.61,5a1.53,1.53,0,0,0,.55-.39,2.31,2.31,0,0,0,.21-.45,3.68,3.68,0,0,1,1.52-1.63c2.41-1.52,5.42-1.75,8.27-1.5A10.84,10.84,0,0,1,63,1.62a9.49,9.49,0,0,1,2.81,1.69,10.84,10.84,0,0,1,3,3.58,8.46,8.46,0,0,1,.49,1.55,3.88,3.88,0,0,1,.21,1.62,1.71,1.71,0,0,1-.45,1c-.3.31-.71.46-1,.74a2.3,2.3,0,0,0-.69,1.11,7.82,7.82,0,0,0-.28,1.86c0,.64,0,1.28,0,1.93a3.69,3.69,0,0,1-.08,1.1A1.93,1.93,0,0,1,65.68,19a2.4,2.4,0,0,0-1.36,1.22c-.28.57-.42,1.19-.65,1.78a6.66,6.66,0,0,1-5,3.87A8.57,8.57,0,0,1,53.45,25a8.93,8.93,0,0,1-1.86-1.39,15.1,15.1,0,0,1-1.81-2,13.91,13.91,0,0,1-2.21-3.49A13.12,13.12,0,0,1,47,15.87C46.39,12.78,45.84,8.79,48,6.32Z"/><path class="cls-17" d="M64.43,15.26c-1.54-.25-2.11,1.64-1.18,3.23a7.38,7.38,0,0,0,1.16,1.28c2.56,2.62,3.5.13,2.69-.76C65.22,17,66.37,15.57,64.43,15.26Z"/><path class="cls-18" d="M64.68,18.23c-.16-.18-1.84-1.39-.57-2a.54.54,0,0,1,.72.52c0,.18-.07.37,0,.55a.73.73,0,0,0,.09.32c.13.27.64.56.51.93S64.77,18.33,64.68,18.23Z"/><path class="cls-19" d="M63.84,5.67c5-1.48,9.26-1.64,9.71-.29s-3.64,4.13-9.19,6l-.88.28Z"/><path class="cls-20" d="M46.14,16.76c-.11-.63-.16-1.27-.21-1.91-1.36-17.53,20.16-18.11,24-6.76a4.2,4.2,0,0,1,.2.85C64.51,15.71,53.85,21,46.14,16.76Z"/><path class="cls-21" d="M63,1.31a.51.51,0,0,1-.23.55c-5,3.11-13.5,2-14.37,9.54-.23,1.62-1.51,1.77-2.59,1.37C43.84,2.42,58.84-2.56,63,1.31Z"/><path class="cls-19" d="M55.53,14.49c-.38-.7,1.82-2.61,4.91-4.27S66.33,7.8,66.71,8.5s-1.82,2.62-4.91,4.27S55.9,15.2,55.53,14.49Z"/><path class="cls-14" d="M52.37,48.61a5.15,5.15,0,0,1,.06,1.75,50.68,50.68,0,0,1-1,6.86s0,0,0,0-.05.2-.05.21a3.56,3.56,0,0,0,0,.73h0c.26,2.52,3.06,5.55,6.48,7.35,4.18,2.21,9.27,2.58,11.76-2.08-.14-.93-.57-12.59-.61-12.85-.11-.59-.2-1.13-.26-1.66,0,0,0-.05,0-.08a5.34,5.34,0,0,1-2.45-1.15c-3.22-2.58-3.07-7.66-2.86-11.4.1-1.73.58-4.58,2.79-4.6A23.76,23.76,0,0,0,63.61,30a4,4,0,0,0-2.1,1.82c-2,3.73-1,10.74-.75,13.56-4.11-1.07-6.35-2.08-8.48-4.17-.83-4.05-2.47-12,2.27-14.49a6,6,0,0,0-2.07,0C49.17,29,49.41,33.84,50,37.14,50.31,38.77,50.92,46.61,52.37,48.61Z"/><path class="cls-10" d="M52.38,51.21s5.75,5.41,11,5c5.7-.42,5.69-2.5,5.69-2.5l-.08-2a8.08,8.08,0,0,1-5.61,2.43c-5.45.17-11-5.61-11-5.61Z"/><path class="cls-8" d="M52.48,26.71s.11,26,8.64,28.19"/><path class="cls-8" d="M65.09,31.07C57,32.37,52.43,50.36,52.43,50.36"/><path class="cls-8" d="M57.81,65.54s.76-5.14,11.83-5"/><line class="cls-8" x1="65.09" y1="55.21" x2="65.58" y2="60.57"/><line class="cls-8" x1="60.74" y1="54.45" x2="60.74" y2="62.23"/></g></g></g></svg>