<svg xmlns="http://www.w3.org/2000/svg" viewBox="0 0 320.97 290.8"><defs><style>.cls-1{fill:#aca6c7;}.cls-2{fill:#466898;}.cls-3{fill:#e39476;}.cls-4{fill:#37628f;}.cls-5{fill:#f5b49b;}.cls-6{fill:#fff;}.cls-7{fill:#1e244a;}.cls-8{fill:#8cc295;}.cls-9{fill:#2b1a0f;}.cls-10,.cls-29{fill:none;}.cls-11{fill:#ededed;}.cls-12{fill:#fffbf2;}.cls-13{fill:#ab684d;}.cls-14{fill:#2e5378;}.cls-15{fill:#e6ecff;}.cls-16{fill:#4294ff;}.cls-17{fill:#81a7c6;}.cls-18{fill:#5c90b9;}.cls-19{fill:#ade7ff;}.cls-20{fill:#82d2f5;}.cls-21{fill:#685c79;}.cls-22{fill:#594f69;}.cls-23{fill:#ff2c5c;}.cls-24{fill:#4fb1f5;}.cls-25{fill:#ffd659;}.cls-26{fill:#e62753;}.cls-27{fill:#ffbd54;}.cls-28{fill:#93d500;}.cls-29{stroke:#93d500;stroke-linecap:round;stroke-miterlimit:10;stroke-width:2px;}</style></defs><g id="Capa_2" data-name="Capa 2"><g id="Capa_1-2" data-name="Capa 1"><path class="cls-1" d="M320.05,184c-2.49-.52-5-1-7.46-1.61-1.57-.35-3.12-.75-4.77-1.15.3-1.21.57-2.27.81-3.33.2-.86.24-1.6-1-1.63a8.88,8.88,0,0,1-1.59-.32v-4.41l4.89,1c-.32,1.41-.66,2.68-.86,4a1.21,1.21,0,0,0,.55,1c1.39.39,2.82.64,4.25.94a3.94,3.94,0,0,0,.32-.7c.7-3.12,1.4-6.25,2-9.38,0-.24-.39-.75-.69-.85-1-.32-2.12-.52-3.18-.77-.84-.19-1.3,0-1.43,1-.16,1.24-.52,2.46-.81,3.75-.44-.12-.74-.19-1-.29-1.41-.55-3.39.14-4.14-1.9,0-.1-.3-.16-.47-.19l-4-.83c-3.18-.66-6.36-1.31-9.54-2-4.16-.9-8.31-1.86-12.47-2.77-3.5-.76-7-1.48-10.69-2.26,2.75-3.3,5.35-6.54,8.11-9.61a3.58,3.58,0,0,1,2.6-.82,12.16,12.16,0,0,1,3,1c2.61.9,5.18,1.95,8.07,1.28a38.26,38.26,0,0,1,5.22-.8c.79-.08,1.48-.2,1.52-1.08s-.62-1.24-1.49-1.32c-1.27-.11-2.53-.32-3.8-.47-3.85-.47-7.7-1-11.55-1.37-1.39-.14-2-.57-2.06-2-.18-2.51.1-5.17-.65-7.49-1-3-2.73-5.65-4.22-8.42a1.21,1.21,0,0,0-1.12-.4,2.18,2.18,0,0,0-.9,1.17,2.35,2.35,0,0,0,.17,1.16c1.24,4.84,2.5,9.68,3.74,14.52.35,1.36.1,1.66-1.27,1.69l-14.34.25c-3.89.07-7.79.19-11.68.23-.41,0-1.15-.33-1.19-.59-.2-1.37-.23-2.77-.31-4.11l10.47-2.46-.77,1.67.38.29,2.81-2.31c1.07.49,2,.95,2.95,1.33.19.08.51-.16.77-.26-.13-.24-.21-.56-.42-.69-.55-.34-1.18-.56-1.75-.89a1.37,1.37,0,0,1-.86-1.68,4.66,4.66,0,0,0-.57-2.21c-.06-.19-.43-.28-.66-.41a2,2,0,0,0-.21.68c0,.75.18,1.5.16,2.24a1,1,0,0,1-.51.84c-1,.27-2,.42-3,.61-2.64.49-5.28.93-7.9,1.5-1.09.24-1.41-.12-1.53-1.12-.15-1.26-.41-2.51-.66-3.76-.41-2.05-.86-4.09-1.31-6.2l6.89-2.8c.36-.15.74-.24,1.12-.36.27,2,.74,2.23,2.61,1.47,1.3-.52,2.61-1,3.91-1.56a3,3,0,0,0,1.86-3.81,2.69,2.69,0,0,1,0-.64c1.77.8,3.12.41,3.93-1.06a2.55,2.55,0,0,0-.95-3.45c-.45-.29-1.19-.62-1.58-.44a21.08,21.08,0,0,0-2.82,1.81c-1.12-1.85-2.14-2.37-3.92-1.75-1,.37-2.05.79-3,1.26a2,2,0,0,1-2.45-.28c1.09-.63,1.66-1.51,1-2.63-.59-1-1.51-.74-2.69,0a6.63,6.63,0,0,1,.84-1.41c1.27-1.09,2.59-2.13,3.9-3.17,1.93-1.51,1.94-1.5,1.46-3.67,2.14.81,3.81.26,4.34-1.43a2.78,2.78,0,0,0-2.07-3.46c-1.44-.42-2.84.72-3.26,2.66-.66-1.82-.84-2.1-1.8-2.07-2,.07-4.07.17-6.09.38-1.45.15-1.63.55-1.21,2l-.94,0c-1.83.07-1.83.07-1.24,1.74.11.31.19.64.27.92L236.3,112l-.88-1.62a3.35,3.35,0,0,0,3.92-.93,2.91,2.91,0,0,0,.77-3.61c-.66-1.12-.25-1.75.48-2.47a10.41,10.41,0,0,0,.68-.81,2.28,2.28,0,0,0-.43-3.28.75.75,0,0,0-.69-.06.71.71,0,0,0-.12.68,13.54,13.54,0,0,0,.85,1.41l-.73.83-2-3.08c.25-.39.7-.78.63-1a10.05,10.05,0,0,0-1.1-2.23,1,1,0,0,0-.93-.15,1.18,1.18,0,0,0-.4.84,2.11,2.11,0,0,0,.26.82,2,2,0,0,1-2.54-1c-1.55-2.34-4.46-2.21-6,.15a10.29,10.29,0,0,0-.67,1.6A18.84,18.84,0,0,1,226,96.19a1.45,1.45,0,0,1-.1-1.24c1.78-2.42,3.56-4.83,5.48-7.13.89-1.06,2.26-.66,3,.58a6.51,6.51,0,0,0,1.21,1.19l.26-.3-.34-.85a8,8,0,0,1,1,.19,3.27,3.27,0,0,1,.82.35c2.57,1.54,4.59,1.15,6.52-1.16a2.25,2.25,0,0,1,1.47-.76,4.42,4.42,0,0,0,3.93-2.68c1-1.87.27-3.49-.78-5,1.45-2.28,1.21-3.66-1-6,.75-2.25.35-4.21-1.1-5.42a4.83,4.83,0,0,0-5.59-.37c-2.24-3.32-4.92-2.54-6.82,0-2.82-1.59-5.87-.08-6.75,3.3a3.39,3.39,0,0,1-1,1.57,4.56,4.56,0,0,0,.26,7.23,13.88,13.88,0,0,1,1.59,1.75l-1.27-.12-.17.36a5.83,5.83,0,0,0,1.51.92c1.44.39,1.92,1.48.9,2.52-2.23,2.25-4.54,4.43-7,6.83L213.78,83l5.28-8.11c.18.32.25.65.44.77.4.24,1,.64,1.27.5a1.8,1.8,0,0,0,.77-1.36c-.14-1.25-.57-2.47-.77-3.73a2.86,2.86,0,0,1,.22-1.67c.72-1.31,1.6-2.53,2.37-3.82.17-.26.32-.84.22-.91A13.93,13.93,0,0,0,220.79,63c-.21-.08-.81.84-1.24,1.29a1.12,1.12,0,0,1-.3.13l-.33-1.54c-.4-1.89-.76-3.79-1.21-5.67-.32-1.33-.87-1.58-2.22-1.27-2.31.53-4.63,1-6.94,1.54l-10,2.26c-.77.18-1.62.52-1.29,1.45.19.55,1,.89,1.57,1.41L194,70.26l-2.82-1.38.91-1,.48.22c1.4.66,2.14.4,2.9-1,.64-1.17.47-1.78-.9-2.55a13.88,13.88,0,0,1-4.79-3.84,3.1,3.1,0,0,0-1.09-1c-2.66-1.26-5.35-2.47-8.22-3.79,1.32-2.7.47-4.94-2.65-6.35l-.88,1.16c.74.72,1,1.94,2.4,1.77.16,0,.44.28.54.49.34.77-.73,3.73-1.51,4-1.71.55-2.06,2.11-2.67,3.46-.15.32.06.83.15,1.24s.26,1,.45,1.63L168,61.42l3.6-34.53a15.49,15.49,0,0,1,1.74,2.84c1.43,2.8,3,5.53,5.63,7.37,2.07,1.41,4.12,2.85,6.22,4.19a1.48,1.48,0,0,0,1.4-.06,2,2,0,0,0,.51-1.44c0-.37-.4-.76-.68-1.09-4-4.71-8.11-9.35-12-14.16a5.07,5.07,0,0,1-.75-3.6,11.69,11.69,0,0,1,1.79-3.49c2-3.47,3.81-7,2.88-11.2a8.71,8.71,0,0,1,.16-2.63,7.38,7.38,0,0,0,.24-2.09A2.27,2.27,0,0,0,177.57,0c-.36-.13-1,.51-1.52.9-.2.17-.22.56-.31.85-1.65,5.69-3.28,11.37-5,17.05a5.12,5.12,0,0,1-1,1.94c-1.09,1.17-2.53.75-3.84.48-3.18-.64-6.42-1.09-9.58-.28a75.48,75.48,0,0,0-8.27,3c-.37.15-.83,1-.71,1.24a2.41,2.41,0,0,0,1.32,1.23,6.25,6.25,0,0,0,2.1-.09l7.12-.65c2.73-.25,5.45-.55,8.18-.71,1.3-.08,2.74-.61,3.77.53q-1.29,8.7-2.53,17.05a13.2,13.2,0,0,0-2-.33c-2.43,0-4.87,0-7.3,0-.8,0-1.37-.28-1.31-1.1.2-3.11-1.68-5.28-3.31-7.56a1,1,0,0,0-1-.23,1.08,1.08,0,0,0-.33,1c.81,2.22,1.67,4.43,2.56,6.62.79,1.94.86,2.34-.79,3.65-2.13,1.7-2.76,4.1-3.49,6.49-.09.28.18.69.28,1a3.33,3.33,0,0,0,1.06-.48,8.19,8.19,0,0,0,1-1.41L155.49,46l.21.12c-.52,4.61-1,9.22-1.58,13.86a18.23,18.23,0,0,1-2.7,0,1.4,1.4,0,0,1-1-.85c-.22-1.21-.22-2.45-.36-3.68-.26-2.36-.54-4.73-.86-7.08-.18-1.36-.72-1.52-1.81-.61s-2.13,1.79-3.34,2.8a6.48,6.48,0,0,0-.06-.86c-.14-.53-.31-1.05-.46-1.58a7.6,7.6,0,0,0-1.6.67c-1,.71-1.9,1.52-2.93,2.36a7,7,0,0,0-.18-1.35,2.3,2.3,0,0,0-.74-1.12c-.17-.1-.74.32-1,.6-.95.9-1.87,1.84-3,2.95-.53-2.38-1-4.57-1.47-6.54a11,11,0,0,1,2.07-1.14,6.18,6.18,0,0,1,3-.42c1.52.41,2.69.28,3.47-1.17.45-.84.83-1.13,1.82-.84a2.43,2.43,0,0,0,3-2,2.51,2.51,0,0,0-2.26-2.46,1.65,1.65,0,0,1-.9-.37c-1.79-1.66-2.94-1.52-4.14.19l-3.86.68c-1.37-1.29-2.82-1.28-4,.13a4.59,4.59,0,0,1-1.43,1.11,2.4,2.4,0,0,0-1.47,2.79c.27,1.16,1.16,1.54,2.23,1.72a7.53,7.53,0,0,1,1.41.53l-.15.5a29.74,29.74,0,0,1-3.11.41c-1.14,0-1.55.48-1.47,1.64.3,4.37.54,8.74.81,13.11.15,2.46.16,2.46-2.22,3.08a2,2,0,0,1-.33,0c-.05-.14-.11-.29-.16-.45q-3.64-11.11-7.28-22.24c-1.82-5.54-3.68-11.07-5.43-16.63-.37-1.18-.81-1.85-2.13-1.6-.81.15-1.21-.13-1.47-1-.84-2.82-1.87-5.57-2.77-8.36-.27-.84-.48-.9-1.13-.31a21.84,21.84,0,0,1-2.25,1.56c-.49-1.5-.93-2.92-1.46-4.31-.11-.29-.57-.45-.87-.67-.12.37-.4.78-.32,1.1a22.24,22.24,0,0,0,.88,2.61c.72,2,.72,2-1,3.28-.65.49-1.12.87-.62,1.93a36.78,36.78,0,0,1,1.56,4.9l-3.82.34c1.33,4.06,2.48,7.83,3.8,11.54a5.53,5.53,0,0,1-.06,4.67c-1.15,2.25-1.68,4.57-.33,7a10.76,10.76,0,0,1,.61,1.87q2.72,8.25,5.42,16.49c.54,1.65,1,3.31,1.55,4.94l-3.39,1.74c-.81-1.61-1.57-3.15-2.34-4.68Q93,49,84.13,31.2a1.49,1.49,0,0,0-1.6-1c-5,.23-10.08.4-15.12.61-1.56.07-3.13.21-4.78.32a4.35,4.35,0,0,0,.19.85q6.39,12.76,12.8,25.52Q81.49,69.14,87.33,80.8c.92,1.86.88,1.88-.9,3.07L81.3,78.54c1.3-.56,1.42-1.1.32-2.19-.84-.84-1.7-1.67-2.55-2.51-2-1.92-3-2-5-.32,0-1.83-1-3.11-2.39-3.17a2.5,2.5,0,0,0-2.52,2.37,3.3,3.3,0,0,0,.9,2.06,6.11,6.11,0,0,0,2.07.88c-1.35,1.47-1.31,2.88.2,4.35l2.66,2.6c1.4,1.39,1.65,1.37,2.77-.34l5.08,5.23-4.66,4.22L74.86,88c1.42-1.52,1.42-1.52-.65-2.86.72-1.31.6-1.7-.72-2.33a25.69,25.69,0,0,1-3.41-1.68c-1.41-1-2.55-1.1-3.59.77.27-2.17-.75-3.59-2.36-3.63a2.3,2.3,0,0,0-2.44,2.62,3.1,3.1,0,0,0,1.08,1.94,5.2,5.2,0,0,0,2.12.48c-1.32,1.41-1.3,1.4-.32,3.19.67,1.23,1.29,2.49,1.93,3.74s1.08,1.42,2.25.48c1.38,2,1.38,2,3,.53l3.71,3.81c-.12.18-.25.41-.39.62l-.5.68c-.5-.21-.81-.38-1.14-.48a70.06,70.06,0,0,1-14.23-6.77,2.81,2.81,0,0,1,.24-5,1.52,1.52,0,0,0,.79-2.08c-.68.52-1.37,1.07-2.06,1.61A22,22,0,0,0,60,76.47a2.5,2.5,0,0,0-.18-.91,6.87,6.87,0,0,0-4.38-4.91c-.54-.2-.92-.4-1-1.16a6.7,6.7,0,0,0-9.77-5.06A25,25,0,0,0,42,66.38c-3.41-1.87-6.53-.53-8.29,3.14a6.47,6.47,0,0,0-7.49,2.74c-2.1,3-1.47,6,.78,8.68-3.53,2.85-3.06,7.87,1.87,9.7a6.82,6.82,0,0,0,7.22,9.06,1.52,1.52,0,0,1,1.56.51,6.8,6.8,0,0,0,10.55-1c.87-1.37,1.82-2.69,2.73-4l.5.24-.57,2.2a1.92,1.92,0,0,0,1.45-2.4,2.45,2.45,0,0,1,1.21-2.46,1.91,1.91,0,0,1,2.4.26c1.31,1,2.77,1.71,4.08,2.66,3.27,2.39,6.49,4.84,9.64,7.2-2.07,3.53-4,6.85-6,10.24l-6.49-5.43,2-.36.08-.55-3.81-1c-.35-1.26-.64-2.44-1-3.58-.08-.23-.5-.35-.76-.53a5.76,5.76,0,0,0-.31.88c0,.15.1.33.14.5.32,1.54,1,3.08-1,4.17-.69.36-1,1.47-1.46,2.24l.5.42L54.62,107c2.59,2.39,5.14,4.7,7.64,7.08a1.52,1.52,0,0,1,.37,1.31c-1.32,3.24-2.73,6.44-4.08,9.58L27,117.71c1.33-.49,2.3-.86,3.28-1.21,3.38-1.22,6.63-2.59,8.88-5.63a50.34,50.34,0,0,1,3.74-4.27c.69-.72,1.1-1.43.42-2.3s-1.48-.4-2.21.09c-3,2-6,4.27-9.16,6.08-2.94,1.67-5.11,4.86-9,4.77a2.51,2.51,0,0,1-1.14-.16,24.1,24.1,0,0,1-2.42-1.6c-2.51-1.87-4.94-3.92-8.09-4.57-1.89-.39-3.87-.3-5.77-.64-1.5-.27-2.95-1.07-4.43,0v1.32c.86.43,1.71.9,2.59,1.28,5.6,2.42,11.23,4.77,16.79,7.28a2.66,2.66,0,0,1,1.23,2.08,19.52,19.52,0,0,1-1,3.81c-.67,2.64-1.6,5.26-1,8,.41,2,1,3.9,1.46,5.86a14.48,14.48,0,0,0,.36,2.34c.24.55.92.92,1.41,1.37.44-.49,1.05-.91,1.27-1.48a7.11,7.11,0,0,0,.21-2.23q.29-8.55.55-17.11c0-1.3.6-1.68,1.88-1.32,1.64.46,3.28.95,4.93,1.4,7.36,2,14.73,4,22.09,6,1.28.35,2.55.78,3.69,1.14-.92,3.69-1.8,7.2-2.69,10.78-2.6-.61-5.15-1.22-7.72-1.81l-7.64-1.77c1.82-4.28,2-5.39,1.38-9.23-.06-.33-.42-.6-.63-.9-.3.27-.79.51-.85.83-.49,2.55-1,5.1-1.3,7.67-.14,1.19-.61,1.42-1.69,1.43a18.69,18.69,0,0,0-4.3.44,10.89,10.89,0,0,0-2.9,1.52,5.29,5.29,0,0,0-1,1,11.51,11.51,0,0,0,1.35.49,1.83,1.83,0,0,0,.78-.13L36.92,137a2.27,2.27,0,0,1,2.58,1.12,15.07,15.07,0,0,0,2.54,3,13.08,13.08,0,0,0,3.11,1.67,4.86,4.86,0,0,0,1.39.15c-.14-.47-.14-1.09-.45-1.39-1.56-1.52-3.21-2.95-5.12-4.68l13.49,3.71c-.49,5.31-1,10.56-1.45,15.8-.37,0-.72.09-1.07.15l-10.47,2.05c-2.29.45-4.56.94-6.85,1.4-3,.59-6,1.24-9,1.73-2,.33-2.19.48-1.75,2.4.05.21.12.42.17.64.52,2.7,1,5.4,1.56,8.13a10.1,10.1,0,0,1-1.39.48c-1.59.33-3.33,1.68-4.53-.68-.71-1.39-1.62-2.52-3.46-2-.09,0-.23-.12-.35-.18a2.23,2.23,0,0,0-3.22,1.14,35.8,35.8,0,0,1-1.79,3.28c-1,1.58-1,2.27-.09,3.24s1.68,1.75,2.53,2.63c.05,0,.18,0,.26,0a3.74,3.74,0,0,1,1.12.47c1.44,1.18,5.25,0,5.77-1.77a1.87,1.87,0,0,0,.05-.53v-2.9l5.65-.38,1.47,7.49c-3.33.67-6.51,1.33-9.71,1.9-.37.07-.84-.4-1.25-.64s-1-.78-1.14-.67c-.77.47-.15,1,.18,1.4,2.73,3.69,5.44,7.39,8.21,11.06.28.37.86.52,1.3.77l.13-1.64,4-.78c.14,0,.4,0,.43,0,.59,1.24,1.56.47,2.3.35,1.78-.29,3.52-.76,5.29-1.11,4.57-.88,9.15-1.73,13.72-2.61,2.24-.43,4.47-.92,6.71-1.37.86-.17,1.47-.05,1.73,1a19,19,0,0,0,1.26,3.17c.93,2.16,1.89,4.31,2.84,6.45l-15.29,8.29a4.19,4.19,0,0,1-.4-.55c-1-2.16-2.48-4.1-3.46-6.31a50.56,50.56,0,0,0-2.82-5.22,1.33,1.33,0,0,0-1.26-.21c-1.46.68-2.87,1.47-4.28,2.25-2.13,1.17-4.22,2.4-6.37,3.51-.8.42-.92.76-.48,1.53.91,1.61,1.69,3.29,2.63,4.88.19.31.83.36,1.26.54h0c-.44.4-.68.7-.25,1.39,1,1.58,1.77,3.29,2.71,4.9.19.32.72.44,1.1.66h0c0,.44-.22,1,0,1.3.85,1.67,1.77,3.31,2.74,4.93.19.32.69.45,1,.67a3.66,3.66,0,0,0,.06,1.45c.78,1.61,1.69,3.15,2.51,4.75.39.76.81.84,1.55.4,2.07-1.19,4.19-2.27,6.26-3.45.34-.2.52-.7.78-1l0-.05,0,.05a3.21,3.21,0,0,0,1.2,0c.84-.37,1.6-.91,2.43-1.3s.8-.67.42-1.33c-1-1.69-1.82-3.42-2.78-5.1a1.77,1.77,0,0,0-.69-.54c-.52-2.45-2.18-4.24-3-6.49l15.23-8.28,6,9.9L64,215.48c-1.25-2.27-2.46-4.4-3.6-6.57-.31-.59-.5-.79-1.18-.4-1.79,1.05-3.63,2-5.47,3-.79.42-1.08.86-.58,1.76q3.87,7,7.64,14c.36.67.68.64,1.24.33,1.75-1,3.5-2,5.31-2.9,1.14-.54,1.1-1.13.55-2.07-1-1.69-1.88-3.44-2.83-5.15-.33-.59-.41-1,.33-1.36,1.94-1,3.84-2.06,5.75-3.09,1.34,1.71,2.61,3.41,4,5.05a1.06,1.06,0,0,1,0,1.67c-3.24,3.62-6.43,7.29-9.65,10.93Q57.21,240,49,249.28a3.32,3.32,0,0,0-.56,1.11,11.47,11.47,0,0,0-.32,1.45c-1.22-1.19-1.38-1.15-2.34.44A18.11,18.11,0,0,0,47.6,254a1.37,1.37,0,0,0,1.24.07c.48-.31,1-.85.18-1.45a1.64,1.64,0,0,1-.3-.35l.61-1,3,2.69-4.83,5.48c-1.39-1.27-2.63-2.44-3.93-3.53a1.11,1.11,0,0,0-1.05-.09c-1.26,1.34-2.44,2.74-3.59,4.06,0,.16,0,.22,0,.24,3.11,2.83,6.22,5.66,9.36,8.46a.83.83,0,0,0,.81,0c1.27-1.42,2.5-2.89,3.79-4.4l-4.59-4.08,4.82-5.46,4.78,4.23-1.78,2.07-.6-.48c-2-1.59-1.93-1.55-3.73.28-.68.7-.5,1.08.12,1.59,1,.79,1.86,1.63,2.78,2.45,2.18,1.94,2.16,1.93,4.07-.25.45-.51.52-.86-.07-1.29s-1.27-1-1.94-1.6l1.85-2.11c2.15,1.89,2.19,1.93,4-.13,4.47-5,8.9-10.07,13.35-15.11L87.68,231c1.49,1.16,2.91,2.28,4.34,3.38,2,1.52,2,1.52,1,3.87-.76,1.95-.93,2-2.44,1-.56.19-1,.5-1.36.45A2.83,2.83,0,0,0,86,241.27a2.52,2.52,0,0,1-.82.92c-1.81,1-2.11,2.51-.92,4.18.85,1.19.49,3.08,2.12,3.87,0,0,0,.17,0,.26a2.64,2.64,0,0,0,4.1,2.05,1.33,1.33,0,0,1,1.07,0,1.94,1.94,0,0,0,2.67-.71,1.58,1.58,0,0,1,1.41-.88,2.53,2.53,0,0,0,2.16-2.3,7.53,7.53,0,0,1,.49-2,2.82,2.82,0,0,0-1.08-3.46,15.29,15.29,0,0,1-1.54-1.25c-1.4-.27-1.56-.54-.78-2,.43-.81.88-1.61,1.33-2.43,2.18,1.33,4.25,2.66,6.39,3.85a1.21,1.21,0,0,1,.7,1.68c-1.07,3.11-2.12,6.22-3.25,9.31-.64,1.75-2.13,2-3.39.68a7.57,7.57,0,0,0-1.44-.87l.41,1.31c-3.27-.09-6.93-.93-7.77,3.74-3.54.94-4.94,4-3.58,6.5.81,1.49,1.69,2.72,1.62,4.58-.07,1.65,1.45,2.47,2.9,3a4.39,4.39,0,0,0,2.91,5c2,.86,3.69,0,5.13-1.41,2.44,2.29,5.49,1,6.38-1.85,3.6.32,5.87-2,5.47-5.58a2.31,2.31,0,0,1,.42-1.31,4.68,4.68,0,0,0-2.52-7.17,7.55,7.55,0,0,1-1.38-.83l.51-.2a4.4,4.4,0,0,0,.1-.72,5.57,5.57,0,0,0-1.59-.33c-1.18,0-2-.88-1.5-1.81,1.91-3.56,3.88-7.08,5.85-10.65l4.39,2.07a12.62,12.62,0,0,1-.42,1.34c-.18.43-.42.84-.63,1.25l-.87-.08a4.1,4.1,0,0,0-3.55,2.08,1.63,1.63,0,0,0,0,1.15,17.28,17.28,0,0,0,1.63,3.21c.28.41,1.08.53,1.67.65a2,2,0,0,0,1.14-.17,9.68,9.68,0,0,0,2.79-1.43c1-.9.83-3.1-.15-3.61-1.3-.67-1.35-1.44-.56-2.5a11.35,11.35,0,0,0,.68-1.14l11.08,3.63c-.61,2.35-1.2,4.68-1.83,7.13a15,15,0,0,1-1.19-.95c-.43-.43-.76-.87-1.36-.13s-.33,1,.26,1.49c6.59,5.47,13.14,11,19.74,16.46a1.24,1.24,0,0,0,1.12-.05c.53-.35.59-.85,0-1.28s-.9-.73-1.38-1a1.34,1.34,0,0,1-.6-1.73c.93-3.34,1.75-6.7,2.61-10,.59-2.32,1.17-4.65,1.72-6.83h9.09c.34,2.86.67,5.7,1,8.63-1.62-.72-2.32-.22-2.16,1.37,0,.31,0,.62.05.93a32.73,32.73,0,0,0,.57,4.32,3.33,3.33,0,0,0,3.57,2.51c-1.07,2.17-.88,3.29.66,4.33a2.46,2.46,0,0,0,3.32-.55c1-1.18.83-2.51-.63-4.17,2.61-1.1,2.89-1.52,2.8-4.45a10.46,10.46,0,0,0-.22-1.56c-.32-1.91-.15-2.46,1-3.27.12,1.34.68,2,1.65,1.93s1.55-.92,1.45-2.67c.43.68.75,1.08,1,1.53.68,1.42,1.43,2.83,2,4.31s1.23,2.65,3.24,2c-1.54,2.22-1.47,3.37.14,4.6a2.44,2.44,0,0,0,3.59-.62c1.08-1.36.73-2.59-1.3-4.32,1-.13,2.1.15,2.36-1.18.38-1.94.78-3.87,1.1-5.82a2,2,0,0,0-.16-1.45c-.24-.31-.89-.29-1.44-.43.13-.73.27-1.49.41-2.25l-2.49-.36c-.23-2-.49-4.17-.75-6.38,2-.63,4.07-1.17,6.05-1.89.74-.27,1-.08,1.35.49,2.19,3.87,4.4,7.72,6.58,11.59.95,1.68.93,1.7,2.62.72.06,0,.16,0,.24,0,1.72,2.63,1.72,2.63,3.83,1.52.07.05.18.08.21.15l10.37,18.25c.61,1.07.87,2.67,2.76,1.93,0,0,.06.07.1.07l3.52.39c1.06,1.85,2.16,3.85,3.34,5.81.22.37.76.54,1.15.8a3.94,3.94,0,0,0-.08-1.47c-1.07-2-2.22-4-3.33-5.95.26-.32.64-.57.68-.86a4.5,4.5,0,0,1,2-3.38c.14-.1.11-.66,0-.9-1.82-3.26-3.68-6.5-5.54-9.75l-5.89-10.31a9.38,9.38,0,0,1,.83-.58c1.64-.92,1.64-.92.74-2.52l-.73-1.22c1.63-.91,1.65-.92.76-2.51l-6.26-11,8-5.31,3.57,4.15c-1.25,1.05-2.47,2.14-3.76,3.13-.65.51-.72.85-.13,1.47a30.06,30.06,0,0,1,2.55,3c.53.73.88.8,1.56.18,1.56-1.41,3.2-2.75,4.8-4.12,1.37-1.16,2.73-2.33,4.15-3.55-1.08-1.28-2.11-2.41-3-3.62-.58-.76-1.05-.93-1.81-.22-1.12,1-2.32,2-3.56,3.07l-3.45-4.05c2.92-2.55,5.85-5,8.64-7.63a1.75,1.75,0,0,1,2.47-.29,76.35,76.35,0,0,1,12.93,9.82,2.77,2.77,0,0,1-1.18,4.66,1.7,1.7,0,0,0-1.31,2.09L232.2,242c-.6,1.83-1.5,3.32-2,4.93a8.63,8.63,0,0,0-.4,3.71c.26,2.43,1.87,4,3.94,5.06a6.82,6.82,0,0,0,3.25,7.15c2.86,1.61,5.58,1.18,8.08-.94a5.62,5.62,0,0,0,4.71,1.61,6.26,6.26,0,0,0,4.14-3c2.95,1.45,5.65,1.11,7.89-1.08,2.59-2.52,2.77-5.53,1-8.7,2-1.11,3.25-2.61,3.25-5a5.45,5.45,0,0,0-2.84-4.71,19.39,19.39,0,0,0,.64-4.44,6.74,6.74,0,0,0-6.54-6.1c-.27,0-.68-.13-.78-.32a7,7,0,0,0-4.39-3.46c1.23-1.44,2.41-2.75,3.49-4.14.27-.34.18-1,.26-1.44.45-.14,1.07-.14,1.33-.44,2-2.26,3.86-4.56,5.74-6.88,1.21-1.49,2.32-3.06,3.56-4.51,1.47-1.73,3.06-3.35,4.53-5.07a1.22,1.22,0,0,0-.18-1.15c-1.87-1.66-3.78-3.28-5.74-4.84-.29-.23-.9-.06-1.36-.08-.1-.45,0-1.05-.31-1.34a13.23,13.23,0,0,0-2.23-1.84,1,1,0,0,0-1,0c-1.34,1.52-2.62,3.08-3.88,4.66-.18.24-.11.67-.15,1h0a5.37,5.37,0,0,0-1.37.78c-1.24,1.35-2.4,2.78-3.64,4.22-3.87-3.24-7.63-6.38-11.37-9.54a1,1,0,0,1-.29-.9c.89-2.36,1.85-4.69,2.79-7,1.13.28,2.21.5,3.26.82a1.12,1.12,0,0,1,.64.67,12.9,12.9,0,0,1,.22,2c.08,1.24,2.8,4.07,4.06,4a4.08,4.08,0,0,0,1.54-.64,6,6,0,0,0,.75-.49c1.24-.86,2.48-1.71,3.7-2.58.17-.12.37-.4.34-.56-.33-1.53-.63-3.08-1.1-4.58-.17-.56-.83-.94-1.14-1.48-.78-1.37-4.54-2-5.67-.86a1.07,1.07,0,0,0-.18.19c-.51.9-1,1.8-1.62,2.87L242.9,186l1.6-5.34c3.59.74,7,1.42,10.38,2.16,4.16.9,8.31,1.86,12.47,2.76,3.18.69,6.37,1.28,9.54,2,4.29.92,8.57,1.89,12.86,2.84,3.38.75,6.78,1.45,10.15,2.27,1.14.28,1.65-.09,1.76-1.08l4.95,1.1a38.8,38.8,0,0,1-.86,3.85c-.31.93.17,1.13.82,1.27a23.9,23.9,0,0,1,3,.62c1.08.4,1.34-.09,1.52-1,.6-2.88,1.21-5.76,1.85-8.64.18-.79-.06-1.17-.85-1.28a18.46,18.46,0,0,1-2.47-.42c-1.69-.46-1.85-.39-2.1,1.33,0,.3,0,.62-.11.92-.48,2.14-.49,2.19-2.64,1.84a23.44,23.44,0,0,1-2.59-.72c.54-1.41,1-2.57,1.43-3.68a14.1,14.1,0,0,1,1.7.4c.82.29,1.28.27,1.42-.8a33.8,33.8,0,0,1,.91-3.7c2.79.6,5.57,1.23,8.36,1.8,1.66.34,3.34.57,5,.86V184A4.71,4.71,0,0,1,320.05,184ZM49.45,96.08c-.78-1.74.56-2,1.3-2.65Zm5.72-9.54,1.14-1.43c.19.84.37,1.58.61,2.63Zm-31.94,101,1.16-.39.23,1.88-1.16.12Zm.94,4.62-.55-1.69,1.24-.39.45,1.77ZM25.53,187l1.1-.42.35,1.94C25.88,188.86,25.88,188.86,25.53,187Zm1,4.65c-.88-1.65-.87-1.68.73-2.06l.26,1.75Zm23.21-14.52-2.09.57-.38-2.11,1.79-.49Zm-.9-3.73c-2.06.78-2.06.78-2.16-1.48C48.54,171.22,48.8,171.41,48.88,173.44Zm-3,2.46.35,1.92-1.86.54-.44-2.25Zm-2.24-1.31-.44-2.15,1.94-.28.39,2.21Zm3.22,6.95L45,182l-.3-1.89C46.47,179.09,46.71,179.23,46.85,181.54Zm1.37-11.73-1.94.54-.39-2.18,2-.32Zm-.7-3.47-1.89.24-.58-2.11,2.13-.32Zm-1.11-6,.39,2.19-1.82.38-.6-1.95Zm-1.47,10.21-2,.36-.41-2,1.82-.56ZM37.25,178c.28-.47,1-.7,1.73-1.21l.51,2.46a5.37,5.37,0,0,1-1.91.12C37.32,179.28,37.07,178.3,37.25,178ZM37,176c-.94-2.19-.87-2.31,1.48-2.37l.24,1.86Zm2.84,4.82a7,7,0,0,1,.14,2c-.05.23-1.21.51-1.36.34a8,8,0,0,1-1-2Zm0-7.57,1.89-.42.43,2.09-1.87.44Zm2.64,3.21.41,2.16-1.84.31-.57-2Zm1.5-9.64c-.07.27-1.3.6-1.45.43a6.89,6.89,0,0,1-.86-2l2.06-.46A5.23,5.23,0,0,1,43.94,166.8Zm-2.74-5.12c1.77-.9,2.13-.65,2.1,1.5C41.15,163.72,41.15,163.72,41.2,161.68Zm.12,9.42c-2,.72-2,.72-2.09-1.51C41.09,169,41.09,169,41.32,171.1Zm-.65-3.65-1.85.56-.42-2.24,1.92-.23Zm-1.13-5.61.54,2.12-2,.31-.4-2.22ZM38.08,172l-1.9.23-.63-2.06,2.06-.34Zm-3.24,2.19.62,2-2.11.38-.36-2Zm-2.7-3.32,2.16-.4a7.28,7.28,0,0,1,.07,2.07c0,.21-1.22.47-1.38.28A7.52,7.52,0,0,1,32.14,170.86ZM35.58,178l.6,1.95-2,.35C33.58,177.84,33.58,177.84,35.58,178Zm1.74-9.71-1.89.3-.5-2,2-.43Zm-1.2-5.8.48,2.06-1.92.49-.4-2.14Zm-2.27,6.38c-.81.07-1.58,1-2.1-.37-.62-1.65.81-1.33,1.8-2Zm-1-5.74.34,2-1.79.53-.66-2.07Zm-5.38,1.09,1.9-.37.52,2.05-2.08.36Zm.7,3.68,1.83-.44.64,2.12-2.09.39Zm1.26,5.8c-.68-2.21-.68-2.21,1.32-2.53l.55,2Zm.59,3.64-.36-2,1.87-.62.37,2.13Zm.32,1.49,1.76-.28c.92,2,.67,2.41-1.42,2.24Zm.71,3.75,1.87-.41.45,2.06-1.92.38Zm.59,3.69,2-.48.49,2.06-1.87.48ZM33,192l-.66-2.1,2.12-.45.32,2Zm3.39-10.35.37,1.75L35,184C34.2,181.74,34.35,181.49,36.37,181.68Zm-1.09,3.89,1.79-.51.34,2C35.61,187.93,35.38,187.78,35.28,185.57Zm.93,5.6-.34-2,1.72-.35C38.58,190.77,38.33,191.21,36.21,191.17Zm2.54-5.3c-.06-.29-.16-.57-.26-.94l1.87-.42.66,2.11c-.54.06-.88.08-1.22.13s-.57.13-.93.21C38.83,186.55,38.81,186.21,38.75,185.87Zm1,4.75c-.56-2.34-.56-2.34,1.39-2.35l.59,2Zm3.52-10.34.36,2.05-1.78.25C40.83,180.3,40.83,180.3,43.23,180.28Zm-1,3.93c0-.2,1.22-.46,1.4-.26a5.8,5.8,0,0,1,.76,1.82l-2.09.64A8.67,8.67,0,0,1,42.21,184.21Zm.89,5.49c-.24-.07-.48-1.06-.29-1.38s.94-.68,1.69-1.17l.55,2.44A5.35,5.35,0,0,1,43.1,189.7Zm2.21-6.11,1.91-.45.48,2.09-1.89.45Zm1.25,5.66-.62-1.93,2.07-.56.38,2.22ZM48,179.32l1.88-.55.54,2.11-1.93.42Zm.75,3.48,1.94-.31.35,2.23-1.87.23Zm1.09,5.9-.36-2.16,1.87-.35.41,2ZM70,241.18l-2.34,2.65L65,241.51l2.35-2.74Zm-6.34-5.62,2.63,2.35-2.3,2.7-2.72-2.37Zm-3.5,3.74,2.64,2.4-2.35,2.72c-.87-.81-1.72-1.58-2.62-2.4Zm-6.24,12.51c-.17,0-.22,0-.25-.05-.8-.74-2.16-1.44-2.22-2.23s1.2-1.69,2-2.65l1.39,1.2,1.34,1.18Zm3.21-3.64-2.68-2.35,2.39-2.71,2.61,2.4Zm1,.89,2.37-2.73,2.66,2.44-2.39,2.62Zm3,9.11c-.18-.05-.28-.05-.34-.1-2.58-2.12-2.58-2.12-.07-4.74l2.65,2.27Zm.38-13,2.35-2.63L66.48,245l-2.4,2.72Zm6.17,5.53L65,248.4l2.35-2.74c.88.81,1.73,1.57,2.63,2.39Zm3.5-3.8-2.68-2.34,2.35-2.7,2.67,2.37Zm168-131.09c1.36-.59,2.74-1.16,4.14-1.64a1.1,1.1,0,0,1,.93.5c.78,1.67.75,1.68,2.2.42l.79-.68.36.22c-.57,1-.9,2.59-1.79,3s-2.45,0-4-.1l.33,1.68-2,.75c-.51-1.15-1.05-2.28-1.49-3.44C238.55,116.44,238.87,116,239.11,115.86Zm-.71-7a2.58,2.58,0,0,1-3.07.13,2.42,2.42,0,0,1-.74-3c.43-1.17,1.41-1.58,3.36-1.28a11.53,11.53,0,0,0-1.08,1.35,6.16,6.16,0,0,0-.41,1.32,8.24,8.24,0,0,0,1.24-.69,7.88,7.88,0,0,0,1-1.08C239.39,107,239.29,108.05,238.4,108.85Zm-1.62-10,2.25,3.43-4.4-.45Zm1,4.56c-3.06.32-4,1-4.61,3.08L230.32,102l2.34-.41C233.63,103.72,235.92,102.49,237.79,103.41Zm-7.63-7.52c1.09-.54,2.39,0,3.21,1.54h-1.74c-1.09,0-1.21.51-.75,1.33.3.54.66,1,1,1.56a2,2,0,0,1-2.89-1A2.68,2.68,0,0,1,230.16,95.89ZM209.52,71.54a2.53,2.53,0,0,1,3.26-.36,2.65,2.65,0,0,1,1,3.14c-1.2,2-2.49,4-3.79,6.1l-4.24-3.14C207,75.32,208.19,73.38,209.52,71.54Zm-3.6-3.44-1.21,1.79L203,68.73,204,67Zm-1.74,2.67L203,72.53l-1.69-1.09,1-1.89Zm-2.8-5.52,1.76,1.18L202,68.22l-1.8-1.17Zm-1.69,2.68L201.47,69l-1.07,1.73C198.29,69.65,198.3,70,199.69,67.93Zm-13.57-8.85,3.37,2.72-.18.29-3.92-1.61Zm-2-.53c.26.06.35.75.52,1.16l-.45.22-2.29-1.19C182.63,57.47,183.48,58.38,184.15,58.55ZM181,63.94q3.16,1.09,6.27,2.33c.31.13.49.56.73.85l-.26.22-7.61-2.83-.13-.32C180.36,64.1,180.75,63.84,181,63.94Zm-24.83-6.82c.2-3.39.44-6.79.55-10.18.09-3,.13-3.21,2.91-2.42s5-.5,7.57-1c-.85,5.74-1.7,11.42-2.58,17.3l-8.72-.92C156,59,156.13,58.06,156.19,57.12ZM114.81,37.86l-2.52.79-.79-2.49,2.53-.92ZM113.32,34c-.23.51-1.33.64-2.16,1l-1-2.6,2.65-.81C113.06,32.48,113.58,33.41,113.32,34Zm-2.1-6.24c1.61,1.77,1.24,2.63-1.38,3.22L109,28.54Zm-2.82,3.81-2.49.76-.81-2.53,2.55-.86Zm-2.15-6.4.9,2.46-2.51.87-.89-2.62Zm-5.63,4.3c-.34-.05-.88-1.42-.66-1.77.4-.62,1.3-.93,2.19-1.5.23.69.35,1.09.5,1.49s.29.72.54,1.34A7.47,7.47,0,0,1,100.62,29.46Zm1.68,5.59,2.53-.95.85,2.55-2.46.86Zm2,6.25-.75-2.6,2.5-.84c.28.89.53,1.7.78,2.53Zm3-5.15c-1.27-2.26-1.27-2.26,1.44-3.35l.9,2.48ZM66,32.89l16-.61v.37l-16,.71Zm.83,1.54,15.94-.74,0,.42-15.94.62Zm.79,1.42,15.75-.74,0,.54-15.77.48Zm.84,1.42,15.69-.72,0,.42-15.69.7ZM69,38.62l15.89-.56,0,.31L69,39.11Zm.71,1.46,16-.56v.28l-16,.76Zm.84,1.52,15.93-.74,0,.42-15.94.61ZM71.2,43,87,42.28l0,.53-15.87.49ZM72,44.44l15.77-.73-.07.42-15.68.71Zm.72,1.33,15.81-.54,0,.3-15.81.74Zm.46,1.48,15.93-.55V47l-15.92.73ZM74,48.76,90,48l0,.44-16,.59Zm.82,1.71v-.28l15.76-.74V50Zm.85,1.13,15.6-.72,0,.41L75.7,52Zm.59,1.34,15.85-.55,0,.32-15.8.73Zm.6,1.47L93,53.86v.35l-16.11.7Zm2.32,4.29L95,58l0,.43-15.8.73Zm.74,1.39,15.88-.52v.29l-15.89.75Zm.48,1.5L96.3,61v.29L80.41,62Zm.85,1.5,15.91-.74v.46l-15.9.56Zm.82,1.43,15.67-.73,0,.5L82,64.82Zm.78,1.42,15.53-.73,0,.42-15.55.71Zm.64,1.33,15.76-.53,0,.3-15.77.74Zm.56,1.5,16-.6v.3l-16,.73Zm.84,1.85c2-.73,15.38-1.17,16-.63ZM79.59,80.74l1,1.22-1.15-1.1Zm53,179.66-3.62-.86.73-2.56,3.54.84Zm-2.48-4.76c.16-.83.32-1.65.49-2.51.95.19,1.8.34,2.65.54s1.23.6.74,1.5a7.92,7.92,0,0,0-.44,1.4Zm7.26,6-3.53-.94.64-2.54,3.57.92Zm1.55-5.57a11.72,11.72,0,0,1-.59,1.66l-3.45-.85.53-2.59c1.14.3,2.23.56,3.28.91C138.83,255.27,139,255.81,138.9,256.08Zm22.55,5.32c-.46.06-.85.7-1.21,1l-1.06-8.78,3.65-.46c0,.88.09,1.61.14,2.44l-1.61.31c.61.85,1.15,1.56,1.64,2.31C164,259.7,163.18,261.18,161.45,261.4Zm6.86-2.88,1.1,2.71c-1.1-.61-2.67-1-2.72-2.39,0-1.18.68-2.39,1.14-3.81l-1.73.15c0-.79-.1-1.57-.16-2.47.74-.11,1.43-.19,2.11-.32s1.24-.29,1.92-.46c.27,2.15.52,4.11.78,6.14Zm66.31-17.26c.14-1.09.24-1.88.35-2.8l1.33,1ZM250,207.12c-1.27,1.52-2.48,2.91-3.61,4.36a3,3,0,0,0-.31,1.21c-.34.08-.8,0-1,.24-1.49,1.73-2.92,3.51-4.45,5.38a19,19,0,0,1,2.14,1.85,14.28,14.28,0,0,0,2.95,2.48c1.55,1.1,2.93,2.45,4.51,3.8a8.16,8.16,0,0,0-5.82,3.83c-.47.77-1.7,1.07-2.88,1.76l1.05-2.17a1.75,1.75,0,0,0-1.82,1.72,3.45,3.45,0,0,1-1.24,2,1.68,1.68,0,0,1-2.3-.07,117.66,117.66,0,0,1-12.74-14.07l3.85-4.84.25.1c-.08.33-.06.75-.26,1-.91,1.08-.25,1.78.52,2.45s1.44.3,2.17-.32a24.89,24.89,0,0,1,3.81-2.72c2.17-1.23,3.41-3.25,4.74-5.21.26-.39.51-.8.82-1.3,1.2,1,2.43,1.55,3.91.89.12-.05.31,0,.39-.06a11,11,0,0,0,1.28-1.45c.06-.09-.43-.78-.54-.75a3.93,3.93,0,0,0-1.72.77c-.4.4-.66,1.06-1.28.7-.8-.48-2-1.09-2.11-1.76-.18-1.54-1.31-2.11-2.17-3-.2-.2-.65-.18-1-.17-.58,0-1.17.11-1.94.18,1.15-2.26,2.2-4.32,3.31-6.52Zm-15.89.42c-1.21,1.59-2.09,3.47-3.6,4.8l-.33-.28,3.67-5.68.28,0C234.09,206.79,234.25,207.3,234.07,207.54Zm1.77,4.29c1,.77.66,1.25-1.92,2.46Zm-85.53,35.6a90.52,90.52,0,1,1,90.52-90.53A90.62,90.62,0,0,1,150.31,247.43Zm92.16-121.06c-.41-1.1-.82-2.18-1.25-3.34l1.88-.9c.08,0,.19,0,.22.09.86,1.54.85,1.54,1.92.08a10,10,0,0,1,.86-1,1.89,1.89,0,0,1,3.22.71c.18.46.73.78,1.12,1.19Zm10.35,31.5c-1.54-.33-3.1-.59-4.63-1a1.25,1.25,0,0,1-.8-.86c-.09-1.41,0-2.83,0-4.29l27-1.66a45.69,45.69,0,0,0-5.3,4.54,45.54,45.54,0,0,0-3.74,5.94C261.31,159.71,257.07,158.78,252.82,157.87Zm47.32,30.28c-1.74-.35-3.48-.66-5.22-1-3.3-.73-6.59-1.51-9.89-2.23-3.52-.76-7-1.47-10.57-2.21-4.17-.88-8.35-1.71-12.48-2.7-.63-.15-2.22.19-1.79-1.49,5.53,1.15,11,2.25,16.43,3.42,5.75,1.24,11.49,2.54,17.23,3.81,1.89.42,3.78.8,5.65,1.26.35.09.61.51.9.78Zm.68-3.58L260.94,176v-1.1c3.61.76,7.17,1.48,10.72,2.24,3.39.73,6.76,1.52,10.15,2.25,4,.86,8.07,1.68,12.1,2.54,2.1.45,4.2.93,6.28,1.46.37.09.66.5,1,.76Zm-.91-4c-3.22-.7-6.43-1.42-9.65-2.11q-5.34-1.16-10.68-2.28c-4.08-.86-8.16-1.69-12.23-2.56-1.67-.36-3.34-.76-5-1.23-.33-.09-.55-.55-.83-.83l.36-.26c4.21.86,8.42,1.7,12.62,2.6,4.54,1,9.07,2,13.61,3,4,.88,8.07,1.68,12.1,2.57a6.11,6.11,0,0,1,1.61.93C301.27,181.35,300.56,180.75,299.91,180.6Zm1.8-3.42c-2.8-.55-5.59-1.16-8.38-1.75-4.08-.86-8.17-1.69-12.24-2.57-4.55-1-9.09-2-13.63-3l-4.95-1.08v-1.12l40.15,8.68.1.5C302.41,177,302,177.24,301.71,177.18Zm.26-3.56q-7.34-1.55-14.65-3.17c-5.78-1.27-11.56-2.58-17.33-3.86-2-.45-4-.86-6-1.35-.33-.08-.57-.51-.85-.77l.25-.35,40.12,8.6C303.36,174.07,302.52,173.73,302,173.62Z"/><path class="cls-1" d="M199.15,23.38a2.08,2.08,0,0,1,1,1.3,5.34,5.34,0,0,0,3.5,4.47,16.71,16.71,0,0,0,2.76.48,6.09,6.09,0,0,1,0,.74c-.38,4,2.34,6.58,6.36,6.08a1.92,1.92,0,0,1,1.33.53,5.46,5.46,0,0,0,5,1.37,2.26,2.26,0,0,1,1.44.29,5.35,5.35,0,0,0,6-.39,2.82,2.82,0,0,1,1.64-.5,6.17,6.17,0,0,0,3.61-11.61,2.58,2.58,0,0,1-1.07-1.34,5.63,5.63,0,0,0-3.76-4c-.85-.26-1-.66-1.09-1.48a5.66,5.66,0,0,0-7.52-5.05c-.49.17-1,.41-1.45.63a3.21,3.21,0,0,1-.37-.45,6.75,6.75,0,0,0-10.36-1.88,1.35,1.35,0,0,1-1.2,0,6.17,6.17,0,0,0-8.72,2.19A6.24,6.24,0,0,0,199.15,23.38Z"/><path class="cls-1" d="M65,20.76c1.31,2.22,3.59,2.62,6.33,1.18a1.18,1.18,0,0,1,1,.08c2.58,1.59,4.89,1.06,6.48-1.45A1.42,1.42,0,0,1,80,20a4.16,4.16,0,0,0,3.73-.87,1.73,1.73,0,0,1,1.78-.41,4.19,4.19,0,0,0,5-5.23c-.09-.33-.17-.66-.25-1,2.13-1.62,2.66-3.1,1.77-4.74s-2.29-2-4.9-1.14c-1.79-3.9-3.69-4.42-7.77-2.16-1.31-1.76-3-2.61-5.18-1.79-2.49.94-3,3-2.65,5.37-3.88.88-4.68,2.11-4.24,6.39-.07.06-.12.15-.19.18A4.25,4.25,0,0,0,65,20.76Z"/><path class="cls-2" d="M147.28,236.4c0-1.24-.08-2.48-.14-3.71,0-.63-.06-1.25-.1-1.88s-.08-1.25-.13-1.88c-.1-1.25-.23-2.49-.41-3.73,0-.22-.06-.43-.1-.65,0,0,0-.08,0-.12-.08-.45-.16-.89-.26-1.32-.47-2.18-1.15-4.27-1.82-6.39-.2-.63-.4-1.26-.59-1.9-.15-.49-.29-1-.43-1.49a49.32,49.32,0,0,1-1-4.83,54.92,54.92,0,0,1-.64-9.15,25.89,25.89,0,0,1,1.29-8.87c.58-1.54,1.21-3.48,2.47-4.61.19-.18.55-.38.71-.55l.18-.15c0-.28.1-.55.14-.83a.17.17,0,0,1,0-.07,1.3,1.3,0,0,0-.34,0,7.06,7.06,0,0,0-1.6.65c-1.36.59-2.75,1.09-4.1,1.7-.63.27-1.26.57-1.87.86s-1.06.78-1.65,1.07-1.19.57-1.79.84l-.23.11c-.51.23-1,.45-1.53.69a14.65,14.65,0,0,0,1.4,2.8,0,0,0,0,1,0,0l-.06.19a45.36,45.36,0,0,1-2.15,4.51c-.15.32-.26.64-.38,1l-.06.16h0c.31.16.32.54.42.86.87,2.68-.55,4.23-.94,6.73-.31,2,.44,3.83.36,5.79-.06,1.26-.76,2.34-1.08,3.54a12.72,12.72,0,0,0-.33,1.63c-.72,5.23-1.9,10.43-2.92,15.62-.25,1.24-.46,2.59-.78,3.9v0c.2,2.46.3,4.95.33,7.44a89.14,89.14,0,0,0,20.2,3c0-1.24.08-2.48.09-3.71C147.42,241.22,147.36,238.83,147.28,236.4Zm-4.44-7a1.1,1.1,0,0,1,.84-1.56,1,1,0,0,1,.86.21c.62.49.36,1.28-.08,1.79S143.07,229.89,142.84,229.37Zm2.33,12.12c-.43.51-1.39.07-1.62-.44a1.11,1.11,0,0,1,.84-1.57,1,1,0,0,1,.85.22C145.87,240.18,145.6,241,145.17,241.49Z"/><path class="cls-3" d="M152.39,181.42v0a10.53,10.53,0,0,0,5.5-2.33l0,0c-.07.52,0,1.1-.08,1.57a18.81,18.81,0,0,0-.05,2.81,23.09,23.09,0,0,1-3.24.25,13.67,13.67,0,0,1-3.74-.87,12.22,12.22,0,0,1-2.82-1.73,13.25,13.25,0,0,1-1.57-1.52l-.29-.35c.59.33,1.2.65,1.81,1a12.34,12.34,0,0,0,2.38.88A9.1,9.1,0,0,0,152.39,181.42Z"/><path class="cls-4" d="M144.54,228c.62.48.36,1.28-.07,1.79s-1.4.07-1.63-.44a1.11,1.11,0,0,1,.85-1.57A1.06,1.06,0,0,1,144.54,228Z"/><path class="cls-2" d="M189.39,238.55q-3.19,1.53-6.52,2.81c-.28.12-.57.23-.86.33h0q-3,1.13-6.06,2a1.91,1.91,0,0,1-.34.1A89.39,89.39,0,0,1,159.66,247c0-.75,0-1.5,0-2.25,0-.25,0-.5,0-.76s0-.74-.05-1.11,0-.85-.09-1.28a55.83,55.83,0,0,1-.25-6.33c.05-1.74-.09-3.49,0-5.24.06-2,.49-3.9.57-5.86a25.15,25.15,0,0,1,.62-4.31c.08-.38.14-.76.19-1.14,0-.19,0-.38.07-.57.06-.47.11-.93.17-1.4q0-.31.09-.63l.09-.51c0-.11,0-.21.07-.32h0c0-.13.06-.26.1-.39.45-1.66.93-3.3,1.26-5,.3-1.54.48-3.1.8-4.63a28.9,28.9,0,0,0,.17-10.49c-.17-1-.24-2-.49-3a10.34,10.34,0,0,0-2.94-5.27c-.57-.51-1.36-.76-1.91-1.23-.05-.27-.12-.55-.17-.83a.13.13,0,0,0,0-.06,4.61,4.61,0,0,1,2,.6c1.37.55,2.78,1,4.15,1.57.64.26,1.28.53,1.89.8s1.09.75,1.69,1,1.36.6,2.05.88a34.23,34.23,0,0,1,4.31,2,20.25,20.25,0,0,1,5,3.67,24.93,24.93,0,0,1,3.36,5.13,40.75,40.75,0,0,1,2.52,6.17,12,12,0,0,1,.52,1.53c.18,1,.25,2,.4,3s.31,2.25.45,3.37c.29,2.29.52,4.59.72,6.88.25,2.93.22,5.88.53,8.8s1.43,5.43,1.91,8.24C189.35,238.13,189.37,238.34,189.39,238.55Z"/><path class="cls-5" d="M122.77,196.7c-.1-.46-.16-.93-.25-1.41s-.2-1-.31-1.49a11.13,11.13,0,0,1-.18-6.08c.59-1.86,1.61-3.57,2-5.48a14.6,14.6,0,0,0,.19-4c0-1.64,0-3.28,0-4.92,0-1.14-.12-2.81,1-3.51a.79.79,0,0,1,.87,0c1,.44,1.16,1.9,1.21,2.83.11,2.6,0,5.2,0,7.8,0,.14,0,.23,0,.36a3.43,3.43,0,0,1,1.06.13c1.52.46,2.55,1.81,3.48,3a3,3,0,0,1,1.64-2.28,1.09,1.09,0,0,1,.81-.06,1.74,1.74,0,0,1,1,.84c.44.9,0,2-.21,2.93a8,8,0,0,0-.3,1.89c0,.71.12,1.41.14,2.12a16.65,16.65,0,0,1,0,1.73,9.17,9.17,0,0,1-.37,2.08,47.79,47.79,0,0,1-2.16,4.51c-.16.37-.3.75-.44,1.13a5.84,5.84,0,0,1-1.78,3,4,4,0,0,1-4.45-.11,6.93,6.93,0,0,1-1.91-1.67,2.13,2.13,0,0,1-.47-1.09,17.32,17.32,0,0,0-.57-1.72C122.85,197,122.8,196.87,122.77,196.7Z"/><path class="cls-6" d="M156,170.92c.31.77-.37,1.63-.87,2.15a3.71,3.71,0,0,1-3.17,1.21,3.93,3.93,0,0,1-1.82-.63,5.55,5.55,0,0,1-1.41-1.28,1.46,1.46,0,0,1-.2-1.58,1.42,1.42,0,0,1,1.25-.46c.41,0,.83,0,1.24.08a10.84,10.84,0,0,0,1.14,0c.51,0,1,0,1.51-.07a3.92,3.92,0,0,1,1.36-.14A1.22,1.22,0,0,1,156,170.92Z"/><path class="cls-7" d="M136.47,164.91c-.07-.5-.12-1-.18-1.49a9,9,0,0,0-.28-1.62c-.34-1.05-1-2-1.34-3a4,4,0,0,1-.26-1.46c0-.56.08-1.12.13-1.69a19,19,0,0,1,.5-2.79,11,11,0,0,0,.59-3.71c0-.15,0-.29,0-.44a3.84,3.84,0,0,1,.64-2.46,7.33,7.33,0,0,1,2.94-3.1c1.41-.74,3.13-1,4.59-1.63a12.19,12.19,0,0,0,1.82-1,7.5,7.5,0,0,1,.67-.48c.38-.2.77-.36,1.16-.52a6.74,6.74,0,0,1,1.45-.44,10.54,10.54,0,0,1,4.64.24,4.35,4.35,0,0,1,3.31,2.88c.09.41.4.37.77.37a4.65,4.65,0,0,1,3.22.53c1.41.77,1.89,2.11,2.65,3.42a27.66,27.66,0,0,0,2.44,3.18,6,6,0,0,1,1.59,4.6,13,13,0,0,0-.23,2.4,10.11,10.11,0,0,1-.57,2.58,13.68,13.68,0,0,1-.39,1.56,8.35,8.35,0,0,0-.51,3.64c0,.09,0,.18,0,.27a8.22,8.22,0,0,1,0,1,2.28,2.28,0,0,1-.13.69c-.07.2-.23.5-.47.54-.78.11-.63-2.15-.64-2.56a7.73,7.73,0,0,0-1.07-4.07,6.34,6.34,0,0,1-.83-2.07,9.52,9.52,0,0,1-.23-2.32,6.78,6.78,0,0,0-.58-3.64,3.72,3.72,0,0,0-3-1.57c-.28,0-.45,0-.72,0a11.76,11.76,0,0,0-5.39.73,4.07,4.07,0,0,1-1.72.31,23.66,23.66,0,0,1-4.39-.93,7.62,7.62,0,0,0-2.13-.14,3.7,3.7,0,0,0-2.13.58,3.57,3.57,0,0,0-1.17,1.73,7,7,0,0,0-.28,1.43c-.06.61.11,1.19.06,1.79a7.34,7.34,0,0,1-.79,3c-.13.25-.22.51-.33.76a3.85,3.85,0,0,1-.39.6,8.9,8.9,0,0,0-.83,1.4c-.47,1.15-.17,2.41-.16,3.61a2.08,2.08,0,0,1-.32,1.42c-.33.42-.77.3-1.09-.07a2.63,2.63,0,0,1-.45-1.36C136.54,165.35,136.5,165.13,136.47,164.91Z"/><path class="cls-8" d="M157.89,184.29a.13.13,0,0,0,0,.06.06.06,0,0,1-.05-.06Z"/><path class="cls-9" d="M158.46,163.16a1.75,1.75,0,0,1-.3,1.27,1.17,1.17,0,0,1-1.29.33,1.29,1.29,0,0,1-.59-2.16,1.31,1.31,0,0,1,1.5-.39A1.56,1.56,0,0,1,158.46,163.16Z"/><path class="cls-4" d="M145.25,239.7c.62.48.36,1.28-.08,1.79s-1.39.07-1.62-.44a1.11,1.11,0,0,1,.85-1.57A1.06,1.06,0,0,1,145.25,239.7Z"/><path class="cls-2" d="M131.91,212.24c-.06,1.26-.76,2.34-1.08,3.54a12.72,12.72,0,0,0-.33,1.63c-.72,5.23-1.9,10.43-2.92,15.62-.25,1.24-.46,2.59-.78,3.9v0a11.72,11.72,0,0,1-2,4.55,7.12,7.12,0,0,1-1.91,1.65c-2.87,1.77-7.12,2.06-9.6-.21a8.79,8.79,0,0,1-2.46-4.63,16,16,0,0,1-.38-2.21c-.57-5.38,1-11.15,2.86-16.15.63-1.76,1.48-3.42,2.12-5.17a19.8,19.8,0,0,0,1.18-5,9.43,9.43,0,0,1,1-3.54c.7-1.29,1.9-2.21,2.32-3.65.58-2,.21-4.23,2.2-5.49a3.59,3.59,0,0,0,.66-.39,4.7,4.7,0,0,0,.12.51c.17.57.45,1.14.56,1.72a2.24,2.24,0,0,0,.48,1.09,6.79,6.79,0,0,0,1.91,1.67,4,4,0,0,0,4.44.11A5.57,5.57,0,0,0,132,199l.06-.16c.31.16.32.54.42.86.87,2.68-.55,4.23-.94,6.73C131.24,208.46,132,210.28,131.91,212.24Z"/><path class="cls-5" d="M146.08,184.39v-.13a25.83,25.83,0,0,0,0-2.64c0-.44-.07-.88-.14-1.32,0-.18-.09-.36-.12-.54s0-.42-.1-.55l.08-.14.32.18.29.35a13.25,13.25,0,0,0,1.57,1.52,12.22,12.22,0,0,0,2.82,1.73,13.67,13.67,0,0,0,3.74.87,23.09,23.09,0,0,0,3.24-.25c0,.16,0,.32.05.48s0,.22,0,.34h0a.06.06,0,0,0,.05.06c0,.28.11.55.16.83a5,5,0,0,1,.1,1.16,5.35,5.35,0,0,1-.57,2.1,6,6,0,0,1-3.13,2.9l-.8.32a4.28,4.28,0,0,1-1.55.21,7.59,7.59,0,0,1-1.57-.27,6.09,6.09,0,0,1-2.23-1,5.86,5.86,0,0,1-2.23-3.22,2.7,2.7,0,0,1,0-1.38,4.17,4.17,0,0,0,.05-.71C146.09,185,146.07,184.7,146.08,184.39Z"/><path class="cls-7" d="M159.62,158.25a.48.48,0,0,1-.36.76,2.21,2.21,0,0,1-1-.21l-.45-.15a2.1,2.1,0,0,0-.56,0,4.43,4.43,0,0,0-1.51.35.61.61,0,0,1-.44,0c-.45-.27-.1-.72.18-1a1.82,1.82,0,0,1,.61-.37,5.12,5.12,0,0,1,1-.3,3.62,3.62,0,0,1,.87,0A2.41,2.41,0,0,1,159.62,158.25Z"/><path class="cls-7" d="M147.77,158.25a.48.48,0,0,1-.36.76,2.21,2.21,0,0,1-1-.21c-.15-.05-.3-.11-.45-.15a2.1,2.1,0,0,0-.56,0,4.43,4.43,0,0,0-1.51.35.58.58,0,0,1-.43,0c-.46-.27-.1-.72.17-1a1.82,1.82,0,0,1,.61-.37,5.12,5.12,0,0,1,1-.3,3.62,3.62,0,0,1,.87,0A2.41,2.41,0,0,1,147.77,158.25Z"/><path class="cls-9" d="M146.79,163.16a1.74,1.74,0,0,1-.29,1.27,1.18,1.18,0,0,1-1.3.33,1.29,1.29,0,0,1-.58-2.16,1.31,1.31,0,0,1,1.5-.39A1.55,1.55,0,0,1,146.79,163.16Z"/><path class="cls-5" d="M168.27,165c-.39-.94-1.81-1.45-2.47-.46h0a2.44,2.44,0,0,0,0,.27,6.59,6.59,0,0,1,0,1,2.7,2.7,0,0,1-.12.7c-.07.19-.23.49-.47.53-.78.11-.63-2.14-.64-2.56a7.69,7.69,0,0,0-1.07-4.06,6.48,6.48,0,0,1-.83-2.08,9.53,9.53,0,0,1-.24-2.32,6.89,6.89,0,0,0-.57-3.64,3.72,3.72,0,0,0-3-1.57c-.27,0-.45,0-.71,0a11.77,11.77,0,0,0-5.39.74,4.44,4.44,0,0,1-1.72.31,23.79,23.79,0,0,1-4.4-.94,7.58,7.58,0,0,0-2.12-.14,3.78,3.78,0,0,0-2.13.58,3.55,3.55,0,0,0-1.17,1.73,7,7,0,0,0-.29,1.43c-.06.61.12,1.19.07,1.79a7.38,7.38,0,0,1-.79,3c-.13.24-.22.5-.33.75a3.43,3.43,0,0,1-.39.6,7.59,7.59,0,0,0-.83,1.4c-.47,1.15-.18,2.41-.16,3.61a2.17,2.17,0,0,1-.32,1.43c-.33.41-.78.3-1.1-.08a2.72,2.72,0,0,1-.45-1.36c0-.22-.07-.45-.1-.67-.39-.51-.64-1-1.38-1a1.62,1.62,0,0,0-1.31,1,3.12,3.12,0,0,0-.08,2,6.61,6.61,0,0,0,.36.93,3.82,3.82,0,0,0,.49.72,5.52,5.52,0,0,0,1.78,1.55c.67.38,1.21.48,1.69,1.12s.76,1.29,1.22,1.88,1,1.3,1.55,2a14.36,14.36,0,0,0,3.23,2.89c.59.41,1.18.78,1.79,1.13l.32.18c.59.33,1.19.65,1.81,1a11.15,11.15,0,0,0,2.38.88,9,9,0,0,0,2.06.32v0a10.46,10.46,0,0,0,5.5-2.33,11.47,11.47,0,0,0,.89-.77,34.09,34.09,0,0,0,2.7-2.81A19.08,19.08,0,0,0,164,171.1h0c.53-.27,1.08-.5,1.59-.8a5.67,5.67,0,0,0,1.84-1.6A3.82,3.82,0,0,0,168,168a6.15,6.15,0,0,0,.37-1A3.24,3.24,0,0,0,168.27,165Zm-21.78-.53a1.19,1.19,0,0,1-1.29.34,1.29,1.29,0,0,1-.59-2.16,1.32,1.32,0,0,1,1.5-.4,1.56,1.56,0,0,1,.68.95A1.74,1.74,0,0,1,146.49,164.43Zm.92-5.42a2.09,2.09,0,0,1-1-.21l-.46-.15a2.54,2.54,0,0,0-.55,0,4.38,4.38,0,0,0-1.51.35.56.56,0,0,1-.44,0c-.46-.27-.1-.71.18-1a1.72,1.72,0,0,1,.61-.37,4.91,4.91,0,0,1,1-.3,3.54,3.54,0,0,1,.86,0,2.45,2.45,0,0,1,1.69.92A.49.49,0,0,1,147.41,159Zm7.67,14.06a3.68,3.68,0,0,1-3.16,1.21,3.93,3.93,0,0,1-1.82-.63,5.26,5.26,0,0,1-1.42-1.28,1.46,1.46,0,0,1-.19-1.58,1.37,1.37,0,0,1,1.24-.45c.41,0,.83,0,1.24.07a8.83,8.83,0,0,0,1.15,0c.5,0,1,0,1.51-.06a3.93,3.93,0,0,1,1.36-.15,1.25,1.25,0,0,1,1,.72C156.27,171.69,155.59,172.55,155.08,173.07Zm3.08-8.64a1.2,1.2,0,0,1-1.3.34,1.29,1.29,0,0,1-.58-2.16,1.32,1.32,0,0,1,1.5-.4,1.6,1.6,0,0,1,.68.95A1.78,1.78,0,0,1,158.16,164.43Zm1.1-5.42a2.09,2.09,0,0,1-1-.21l-.46-.15a2.54,2.54,0,0,0-.55,0,4.38,4.38,0,0,0-1.51.35.56.56,0,0,1-.44,0c-.46-.27-.1-.71.18-1a1.77,1.77,0,0,1,.6-.37,5.21,5.21,0,0,1,1-.3,3.54,3.54,0,0,1,.86,0,2.45,2.45,0,0,1,1.69.92A.49.49,0,0,1,159.26,159Z"/><path class="cls-10" d="M162.77,211.54c-.12,2.26-2.14,3.89-3.14,5.92a14,14,0,0,0-1,5.79"/><path class="cls-11" d="M147.33,247.38c0-1.24.08-2.48.09-3.71,0-2.45-.06-4.84-.14-7.27,0-1.24-.08-2.48-.14-3.71,0-.1,0-.2,0-.3,0-.53,0-1-.09-1.58s-.07-1.25-.13-1.88c-.1-1.25-.23-2.49-.41-3.73,0-.22-.06-.43-.1-.65a40.93,40.93,0,0,1,1.59,9.11,10.28,10.28,0,0,0,.22,1.85,18.57,18.57,0,0,1,.2,2.48c.15,1.67.34,3.34.62,5a12.32,12.32,0,0,0,.32,2,3.51,3.51,0,0,1,.14.58,2.68,2.68,0,0,1,0,.3c0,.17.05.34.07.51s0,.31,0,.47,0,.33,0,.49a.13.13,0,0,1,0,.06C148.91,247.42,148.12,247.41,147.33,247.38Z"/><path class="cls-12" d="M163.23,205.22c-.32,1.53-.5,3.09-.8,4.63-.33,1.69-.81,3.33-1.26,5,0,.13-.07.26-.1.39h0c0,.11,0,.21-.07.32s-.07.34-.09.51-.07.42-.09.63c-.06.47-.11.93-.17,1.4,0,.19,0,.38-.07.57-.05.38-.11.76-.19,1.14a25.15,25.15,0,0,0-.62,4.31c-.08,2-.51,3.9-.57,5.86-.06,1.75.08,3.5,0,5.24a55.83,55.83,0,0,0,.25,6.33c0,.43.07.86.09,1.28s0,.74.05,1.11,0,.51,0,.76c0,.75,0,1.5,0,2.25a90.33,90.33,0,0,1-9.35.48h-.6a.13.13,0,0,0,0-.06c0-.16,0-.32,0-.49s0-.31,0-.47,0-.34-.07-.51a2.68,2.68,0,0,0,0-.3,3.51,3.51,0,0,0-.14-.58,12.32,12.32,0,0,1-.32-2c-.28-1.66-.47-3.33-.62-5a18.57,18.57,0,0,0-.2-2.48,10.28,10.28,0,0,1-.22-1.85,40.93,40.93,0,0,0-1.59-9.11s0-.08,0-.12c-.08-.45-.16-.89-.26-1.32-.47-2.18-1.15-4.27-1.82-6.39-.2-.63-.4-1.26-.59-1.9-.15-.49-.29-1-.43-1.49a49.32,49.32,0,0,1-1-4.83,54.92,54.92,0,0,1-.64-9.15,25.89,25.89,0,0,1,1.29-8.87c.58-1.54,1.21-3.48,2.47-4.61.19-.18.55-.38.71-.55a3.35,3.35,0,0,1-.06.71,2.85,2.85,0,0,0,0,1.39,5.89,5.89,0,0,0,2.23,3.21,6.14,6.14,0,0,0,2.24,1,7.59,7.59,0,0,0,1.57.27,4.28,4.28,0,0,0,1.55-.21l.8-.32a6,6,0,0,0,3.13-2.9,5.3,5.3,0,0,0,.57-2.1,5,5,0,0,0-.1-1.16c.55.47,1.34.72,1.91,1.23a10.34,10.34,0,0,1,2.94,5.27c.25,1,.32,2,.49,3A28.9,28.9,0,0,1,163.23,205.22Z"/><path d="M153.84,150a.18.18,0,0,1-.12-.05.18.18,0,0,1,0-.25,9.8,9.8,0,0,0,2.26-4.47.18.18,0,0,1,.22-.12.17.17,0,0,1,.12.21A9.62,9.62,0,0,1,154,150,.21.21,0,0,1,153.84,150Z"/><path d="M156.65,150.1a.18.18,0,0,1-.06-.34,7.48,7.48,0,0,0,2.48-1.44.17.17,0,0,1,.25,0,.16.16,0,0,1,0,.24,7.81,7.81,0,0,1-2.59,1.51Z"/><path d="M148.63,148.4a.17.17,0,0,1-.17-.14,5.08,5.08,0,0,0-2.8-3.77.18.18,0,1,1,.13-.33,5.42,5.42,0,0,1,3,4,.18.18,0,0,1-.13.21Z"/><path d="M142.74,148.32l-.08,0a4.82,4.82,0,0,0-3-.69.17.17,0,0,1-.2-.15.18.18,0,0,1,.15-.19,5.12,5.12,0,0,1,3.23.72.18.18,0,0,1-.09.33Z"/><path class="cls-13" d="M152.44,168.05a1.45,1.45,0,0,1-.58-.14,2.62,2.62,0,0,1-.8-.5.18.18,0,0,1,0-.25.17.17,0,0,1,.24,0,2.11,2.11,0,0,0,.7.44,1.06,1.06,0,0,0,.56.1,1.29,1.29,0,0,0,.38-.12c.17-.08.67-.31.34-1.4-.11-.35-.24-.71-.36-1.06s-.23-.65-.34-1a2.74,2.74,0,0,1-.09-.55,1.9,1.9,0,0,0,0-.25,8.11,8.11,0,0,1,0-1.91.18.18,0,0,1,.35,0,7.38,7.38,0,0,0,0,1.82l0,.27a2,2,0,0,0,.08.48q.15.48.33,1c.12.35.25.72.36,1.08.35,1.14-.09,1.62-.52,1.82a1.74,1.74,0,0,1-.48.14Z"/><path class="cls-13" d="M137,169.11a.19.19,0,0,1-.16-.09,1.19,1.19,0,0,0-.44-.42,1.34,1.34,0,0,1-.56-.59,1.09,1.09,0,0,1,0-.78,1.53,1.53,0,0,0,.07-.29.49.49,0,0,0-.05-.28l-.06-.16a.66.66,0,0,0-.2-.39,1.08,1.08,0,0,0-.7-.32.41.41,0,0,0-.24.16.18.18,0,0,1-.24.05.18.18,0,0,1,0-.25.66.66,0,0,1,.47-.3,1.3,1.3,0,0,1,1,.39,1,1,0,0,1,.32.57.69.69,0,0,0,.05.13,1,1,0,0,1,.07.46,2.66,2.66,0,0,1-.08.33.77.77,0,0,0-.05.55,1,1,0,0,0,.44.43,1.47,1.47,0,0,1,.56.55.18.18,0,0,1-.08.24Z"/><path class="cls-13" d="M165.25,169.32a.11.11,0,0,1-.08,0,.17.17,0,0,1-.08-.23,1.58,1.58,0,0,1,.58-.57,1.12,1.12,0,0,0,.45-.44.81.81,0,0,0-.05-.57,2,2,0,0,1-.08-.35.9.9,0,0,1,.07-.47.69.69,0,0,0,.05-.13,1,1,0,0,1,.33-.59,1.38,1.38,0,0,1,1-.4.71.71,0,0,1,.49.31.17.17,0,0,1,0,.24.18.18,0,0,1-.25,0,.34.34,0,0,0-.24-.16,1.09,1.09,0,0,0-.73.32.73.73,0,0,0-.21.41l-.06.16a.67.67,0,0,0-.06.3c0,.1,0,.19.08.29a1.17,1.17,0,0,1,0,.81,1.3,1.3,0,0,1-.58.6,1.39,1.39,0,0,0-.46.44A.16.16,0,0,1,165.25,169.32Z"/><path class="cls-13" d="M131.4,189.62h-.12a.17.17,0,0,1-.16-.19.19.19,0,0,1,.19-.16l.09,0h0c.47,0,.87-.55,1-.92a4.19,4.19,0,0,0,.2-2.12,3.81,3.81,0,0,0-.58-1.84l-.2-.27a.17.17,0,1,1,.27-.21l.21.26a4.2,4.2,0,0,1,.65,2,4.56,4.56,0,0,1-.23,2.3,2.31,2.31,0,0,1-.49.76,1.16,1.16,0,0,1-.84.38Z"/><path class="cls-13" d="M125.34,181.72a.19.19,0,0,1-.14-.07.19.19,0,0,1,0-.25,4,4,0,0,1,2-.76.17.17,0,0,1,.19.16.18.18,0,0,1-.16.19,3.57,3.57,0,0,0-1.84.69A.13.13,0,0,1,125.34,181.72Z"/><path class="cls-13" d="M128.9,192.28a.81.81,0,0,1-.62-.23l-.08-.05a.35.35,0,0,1-.27-.3.18.18,0,0,1,.16-.19.18.18,0,0,1,.18.14l.07,0a.47.47,0,0,1,.19.12c.27.28,1,0,1.33-.19a3.17,3.17,0,0,0,1-3.68,2.16,2.16,0,0,0-.33-.56l-.15-.22a4.1,4.1,0,0,0-2.23-2,5.35,5.35,0,0,0-2.08.06.18.18,0,0,1-.21-.14.17.17,0,0,1,.14-.2,5.69,5.69,0,0,1,2.23-.06,4.36,4.36,0,0,1,2.45,2.12c0,.07.09.14.14.21a2.73,2.73,0,0,1,.37.64,3.55,3.55,0,0,1-1.12,4.09A2.3,2.3,0,0,1,128.9,192.28Z"/><path class="cls-13" d="M126.55,194.14a1,1,0,0,1-.84-.44,1.51,1.51,0,0,1-.32-.78c0-.11,0-.22,0-.32a.94.94,0,0,0,0-.45,2.14,2.14,0,0,0-.68-.73l-.09-.08a.17.17,0,0,1,0-.24.17.17,0,0,1,.24,0l.09.07a2.52,2.52,0,0,1,.78.87,1.2,1.2,0,0,1,0,.62c0,.09,0,.18,0,.27a1.26,1.26,0,0,0,.25.59.7.7,0,0,0,1,.15,2.56,2.56,0,0,0,.93-2,3.34,3.34,0,0,0-.16-1.14,2.91,2.91,0,0,0-.8-1.1l-.08-.08a3.49,3.49,0,0,0-1.28-.86.16.16,0,0,1-.1-.22.18.18,0,0,1,.22-.11,4,4,0,0,1,1.41.94l.08.08a3.27,3.27,0,0,1,.88,1.25,3.51,3.51,0,0,1,.18,1.25,2.84,2.84,0,0,1-1.08,2.3A1.19,1.19,0,0,1,126.55,194.14Z"/><path class="cls-13" d="M128.65,194.5h-.05a.18.18,0,0,1-.12-.22,6.36,6.36,0,0,1,1-2l.21-.29.3-.41a.18.18,0,0,1,.25,0,.17.17,0,0,1,0,.24l-.3.41c-.07.09-.14.18-.21.29a5.88,5.88,0,0,0-.93,1.93A.19.19,0,0,1,128.65,194.5Z"/><path class="cls-14" d="M126.83,237h0a.19.19,0,0,1-.13-.21c.21-.86.37-1.74.52-2.58.08-.41.15-.8.23-1.18.25-1.29.52-2.6.78-3.86.78-3.85,1.6-7.83,2.14-11.76a15.5,15.5,0,0,1,.33-1.65,11.3,11.3,0,0,1,.47-1.31,6.71,6.71,0,0,0,.61-2.19,13.76,13.76,0,0,0-.21-2.5,10.69,10.69,0,0,1-.15-3.31,14.63,14.63,0,0,1,.63-2.31,6.19,6.19,0,0,0,.32-4.34l-.06-.24c-.06-.23-.11-.43-.28-.52a.18.18,0,0,1-.07-.24.17.17,0,0,1,.24-.07,1,1,0,0,1,.45.75,1.6,1.6,0,0,0,0,.21,6.53,6.53,0,0,1-.32,4.56,13.05,13.05,0,0,0-.61,2.26,10.65,10.65,0,0,0,.14,3.2,14.34,14.34,0,0,1,.22,2.56,7,7,0,0,1-.64,2.31c-.16.41-.33.84-.45,1.27a12.73,12.73,0,0,0-.32,1.61c-.55,3.94-1.36,7.93-2.15,11.78-.26,1.26-.53,2.57-.78,3.85-.08.39-.15.77-.22,1.18-.16.85-.32,1.73-.53,2.6A.17.17,0,0,1,126.83,237Z"/><path class="cls-14" d="M126.52,210.61a.17.17,0,0,1-.13-.05,50,50,0,0,1-4.34-5.16.17.17,0,0,1,0-.24.16.16,0,0,1,.24,0,50.67,50.67,0,0,0,4.32,5.13.16.16,0,0,1,0,.24A.15.15,0,0,1,126.52,210.61Z"/><path class="cls-14" d="M123.69,214.57a8.76,8.76,0,0,1-2.67-.46.18.18,0,0,1-.11-.22.17.17,0,0,1,.22-.12,7,7,0,0,0,3.89.3.18.18,0,0,1,.21.13.18.18,0,0,1-.13.21A6,6,0,0,1,123.69,214.57Z"/><path class="cls-14" d="M175.89,242.36c0,.45,0,.9.05,1.36a1.91,1.91,0,0,1-.34.1c0-.49-.06-1-.06-1.45,0-1.93-.13-3.89-.22-5.78,0-.69-.07-1.39-.1-2.09-.19-4.1-.47-8-.86-11.94a76.34,76.34,0,0,1-.51-12.23,38.18,38.18,0,0,1,2-9.52.18.18,0,0,1,.22-.11.17.17,0,0,1,.12.22,37.6,37.6,0,0,0-2,9.43,75.82,75.82,0,0,0,.51,12.18c.39,3.93.67,7.84.86,12,0,.69.07,1.4.1,2.08C175.76,238.47,175.86,240.43,175.89,242.36Z"/><path class="cls-14" d="M185.5,237.8a13,13,0,0,1-2.63,3.56c-.28.12-.57.23-.86.33a13.38,13.38,0,0,0,3.18-4,.17.17,0,1,1,.31.14Z"/><path class="cls-14" d="M144,225.59a.16.16,0,0,1-.17-.15,30.19,30.19,0,0,0-1.3-5.07c-.16-.51-.37-1-.56-1.55a15.14,15.14,0,0,1-1-3.38.17.17,0,0,1,.15-.2.17.17,0,0,1,.19.15,15.38,15.38,0,0,0,1,3.31c.2.51.41,1,.58,1.56a30.69,30.69,0,0,1,1.3,5.13.17.17,0,0,1-.15.2Z"/><path class="cls-14" d="M176.81,199.64h-.07a.18.18,0,0,1-.1-.23,13,13,0,0,1,1.08-1.94c.27-.41.54-.84.77-1.28a.16.16,0,0,1,.23-.07.17.17,0,0,1,.08.23c-.24.45-.52.89-.78,1.31a12,12,0,0,0-1.05,1.89A.18.18,0,0,1,176.81,199.64Z"/><g id="User"><circle class="cls-15" cx="205.71" cy="157.17" r="24"/><path class="cls-16" d="M225,171.47a24,24,0,0,0-38.53,0,24,24,0,0,0,38.53,0Z"/><circle class="cls-16" cx="205.71" cy="149.42" r="9.29"/></g><circle class="cls-15" cx="149.87" cy="106.77" r="22.04"/><circle class="cls-15" cx="92.98" cy="157.17" r="24.65"/><path class="cls-17" d="M173.54,110.61a1.45,1.45,0,0,0-1.2-1c-.71-.09-1.41-.16-2.12-.21a1.47,1.47,0,0,1-1.25-.91h0a1.47,1.47,0,0,1,.25-1.53q.69-.79,1.35-1.65a1.45,1.45,0,0,0,.14-1.55,7.51,7.51,0,0,0-3.32-3.32,1.43,1.43,0,0,0-1.55.15c-.57.43-1.12.88-1.65,1.34a1.46,1.46,0,0,1-1.52.25h0a1.45,1.45,0,0,1-.91-1.25c0-.71-.12-1.41-.21-2.12a1.45,1.45,0,0,0-1-1.2,7.58,7.58,0,0,0-4.71,0,1.47,1.47,0,0,0-1,1.2c-.09.71-.16,1.41-.21,2.12a1.45,1.45,0,0,1-.91,1.25h0a1.47,1.47,0,0,1-1.53-.25c-.53-.46-1.08-.91-1.64-1.34a1.45,1.45,0,0,0-1.56-.15,7.51,7.51,0,0,0-3.32,3.32,1.43,1.43,0,0,0,.15,1.55q.64.85,1.35,1.65a1.49,1.49,0,0,1,.24,1.53h0a1.45,1.45,0,0,1-1.25.91c-.7,0-1.41.12-2.12.21a1.45,1.45,0,0,0-1.2,1,7.58,7.58,0,0,0,0,4.71,1.45,1.45,0,0,0,1.2,1c.71.09,1.42.16,2.12.21a1.45,1.45,0,0,1,1.25.91h0a1.49,1.49,0,0,1-.24,1.53q-.71.8-1.35,1.65a1.43,1.43,0,0,0-.15,1.55,7.51,7.51,0,0,0,3.32,3.32,1.45,1.45,0,0,0,1.56-.15c.56-.43,1.11-.88,1.64-1.35a1.49,1.49,0,0,1,1.53-.24h0a1.45,1.45,0,0,1,.91,1.25c0,.71.12,1.41.21,2.12a1.47,1.47,0,0,0,1,1.2,7.58,7.58,0,0,0,4.71,0,1.45,1.45,0,0,0,1-1.2c.09-.71.16-1.41.21-2.12a1.45,1.45,0,0,1,.91-1.25h0a1.48,1.48,0,0,1,1.52.24q.8.7,1.65,1.35a1.43,1.43,0,0,0,1.55.15,7.51,7.51,0,0,0,3.32-3.32,1.45,1.45,0,0,0-.14-1.55q-.66-.86-1.35-1.65a1.47,1.47,0,0,1-.25-1.53h0a1.47,1.47,0,0,1,1.25-.91c.71,0,1.41-.12,2.12-.21a1.45,1.45,0,0,0,1.2-1A7.58,7.58,0,0,0,173.54,110.61Zm-15.36,9.32a7,7,0,1,1,7-7A7,7,0,0,1,158.18,119.93Z"/><path class="cls-18" d="M147.39,122.55a1.56,1.56,0,0,1,.15-1.61c.43-.59.88-1.16,1.35-1.72a1.58,1.58,0,0,0,.24-1.59v0a1.47,1.47,0,0,0-1.25-.94c-.7,0-1.41-.13-2.11-.22a1.49,1.49,0,0,1-1.21-1,8.22,8.22,0,0,1,0-4.91,1.48,1.48,0,0,1,1.21-1c.7-.09,1.41-.17,2.11-.22a1.46,1.46,0,0,0,1.25-1h0a1.57,1.57,0,0,0-.24-1.59c-.47-.56-.92-1.13-1.35-1.72a1.57,1.57,0,0,1-.15-1.62,7.7,7.7,0,0,1,2.63-3,1.47,1.47,0,0,0-1.05.11,7.51,7.51,0,0,0-3.32,3.32,1.43,1.43,0,0,0,.15,1.55q.64.85,1.35,1.65a1.49,1.49,0,0,1,.24,1.53h0a1.45,1.45,0,0,1-1.25.91c-.7,0-1.41.12-2.12.21a1.46,1.46,0,0,0-1.2,1,7.58,7.58,0,0,0,0,4.71,1.45,1.45,0,0,0,1.2,1c.71.09,1.42.16,2.12.21a1.45,1.45,0,0,1,1.25.91h0a1.49,1.49,0,0,1-.24,1.53q-.71.8-1.35,1.65a1.43,1.43,0,0,0-.15,1.55,7.51,7.51,0,0,0,3.32,3.32,1.47,1.47,0,0,0,1.05.11,7.73,7.73,0,0,1-2.63-3Zm9.18,5.17c-.09-.73-.16-1.47-.2-2.2a1.56,1.56,0,0,0-.91-1.31h0a1.43,1.43,0,0,0-1.13,0,1.47,1.47,0,0,1,.31.81c0,.7.12,1.41.21,2.12a1.47,1.47,0,0,0,1,1.2,8.28,8.28,0,0,0,1.17.28,1.61,1.61,0,0,1-.42-.89Zm-.75-30.12a1.47,1.47,0,0,0-1,1.2c-.09.71-.16,1.41-.21,2.12a1.47,1.47,0,0,1-.31.81,1.43,1.43,0,0,0,1.13,0h0a1.53,1.53,0,0,0,.91-1.3c0-.73.11-1.47.2-2.21a1.62,1.62,0,0,1,.42-.88,7.1,7.1,0,0,0-1.17.28Z"/><path class="cls-17" d="M152.1,89a.89.89,0,0,0-.75-.62c-.45-.06-.89-.1-1.34-.13a.92.92,0,0,1-.78-.58h0a.93.93,0,0,1,.15-1c.3-.33.58-.68.85-1a.92.92,0,0,0,.1-1,4.8,4.8,0,0,0-2.09-2.09.94.94,0,0,0-1,.09c-.36.28-.7.56-1,.85a.91.91,0,0,1-1,.15h0a.94.94,0,0,1-.57-.79c0-.44-.07-.88-.13-1.33a.91.91,0,0,0-.62-.75,4.68,4.68,0,0,0-3,0,.91.91,0,0,0-.63.75c-.05.45-.1.89-.13,1.33a.9.9,0,0,1-.57.79h0a.91.91,0,0,1-1-.15c-.33-.29-.68-.57-1-.85a.94.94,0,0,0-1-.09,4.75,4.75,0,0,0-2.09,2.09.92.92,0,0,0,.09,1c.27.35.56.7.85,1a.91.91,0,0,1,.15,1h0a.94.94,0,0,1-.79.58c-.44,0-.89.07-1.33.13a.91.91,0,0,0-.76.62,4.83,4.83,0,0,0,0,3,.91.91,0,0,0,.76.62c.44.06.89.1,1.33.14a.92.92,0,0,1,.79.57h0a.91.91,0,0,1-.15,1c-.29.33-.58.68-.85,1a.92.92,0,0,0-.09,1,4.7,4.7,0,0,0,2.09,2.09.94.94,0,0,0,1-.09c.35-.28.7-.56,1-.85a.91.91,0,0,1,1-.15h0a.9.9,0,0,1,.57.79c0,.44.08.88.13,1.33a.93.93,0,0,0,.63.76,4.83,4.83,0,0,0,3,0,.94.94,0,0,0,.62-.76c.06-.45.1-.89.13-1.33a.94.94,0,0,1,.57-.79h0a.91.91,0,0,1,1,.15c.34.29.68.57,1,.85a.94.94,0,0,0,1,.09,4.75,4.75,0,0,0,2.09-2.09.92.92,0,0,0-.1-1c-.27-.35-.55-.7-.85-1a.93.93,0,0,1-.15-1h0a.89.89,0,0,1,.78-.57c.45,0,.89-.08,1.34-.14a.89.89,0,0,0,.75-.62A4.68,4.68,0,0,0,152.1,89Zm-9.66,5.86a4.38,4.38,0,1,1,4.38-4.38A4.38,4.38,0,0,1,142.44,94.83Z"/><path class="cls-18" d="M135.65,96.48a1,1,0,0,1,.1-1c.27-.37.55-.73.85-1.08a1,1,0,0,0,.15-1v0a.91.91,0,0,0-.78-.59c-.45,0-.89-.08-1.34-.14a.93.93,0,0,1-.75-.65,5.06,5.06,0,0,1,0-3.08.93.93,0,0,1,.75-.65c.45-.06.89-.11,1.34-.14a.91.91,0,0,0,.78-.59v0a1,1,0,0,0-.15-1c-.3-.35-.58-.7-.85-1.07a1,1,0,0,1-.1-1,5,5,0,0,1,1.65-1.92.87.87,0,0,0-.65.07,4.75,4.75,0,0,0-2.09,2.09.92.92,0,0,0,.09,1c.27.35.56.7.85,1a.91.91,0,0,1,.15,1h0a.94.94,0,0,1-.79.58c-.44,0-.89.07-1.33.13a.91.91,0,0,0-.76.62,4.83,4.83,0,0,0,0,3,.91.91,0,0,0,.76.62c.44.06.89.1,1.33.14a.92.92,0,0,1,.79.57h0a.91.91,0,0,1-.15,1c-.29.33-.58.68-.85,1a.92.92,0,0,0-.09,1,4.7,4.7,0,0,0,2.09,2.09.87.87,0,0,0,.65.07A5,5,0,0,1,135.65,96.48Zm5.78,3.25c-.06-.46-.1-.92-.13-1.38a1,1,0,0,0-.57-.82h0a.9.9,0,0,0-.72,0,.85.85,0,0,1,.2.51c0,.44.08.88.13,1.33a.91.91,0,0,0,.63.75,4.86,4.86,0,0,0,.73.18,1,1,0,0,1-.26-.56ZM141,80.79a.91.91,0,0,0-.63.75c-.05.45-.1.89-.13,1.33a.85.85,0,0,1-.2.51.9.9,0,0,0,.72,0h0a1,1,0,0,0,.57-.81c0-.47.07-.93.13-1.39a1,1,0,0,1,.26-.56A4.86,4.86,0,0,0,141,80.79Z"/><path class="cls-17" d="M139.94,107a.69.69,0,0,0-.55-.45q-.48-.06-1-.09a.69.69,0,0,1-.57-.41h0a.64.64,0,0,1,.11-.69c.21-.25.41-.49.61-.75a.64.64,0,0,0,.07-.7,3.39,3.39,0,0,0-1.51-1.51.64.64,0,0,0-.7.07c-.26.19-.51.4-.75.61a.69.69,0,0,1-.69.11h0a.66.66,0,0,1-.41-.56c0-.32-.05-.64-.1-1a.65.65,0,0,0-.45-.55,3.37,3.37,0,0,0-2.13,0,.66.66,0,0,0-.45.55q-.06.48-.09,1a.65.65,0,0,1-.42.56h0a.7.7,0,0,1-.7-.11c-.24-.21-.49-.42-.74-.61a.66.66,0,0,0-.71-.07,3.37,3.37,0,0,0-1.5,1.51.66.66,0,0,0,.06.7c.2.26.4.5.61.75a.64.64,0,0,1,.11.69h0a.67.67,0,0,1-.57.41q-.48,0-1,.09a.68.68,0,0,0-.54.45,3.4,3.4,0,0,0,0,2.14.68.68,0,0,0,.54.45q.48.06,1,.09a.67.67,0,0,1,.57.41h0a.65.65,0,0,1-.11.69c-.21.25-.41.49-.61.75a.66.66,0,0,0-.06.7,3.37,3.37,0,0,0,1.5,1.51.66.66,0,0,0,.71-.07c.25-.19.5-.4.74-.61a.7.7,0,0,1,.7-.11h0a.65.65,0,0,1,.42.56q0,.48.09,1a.66.66,0,0,0,.45.55,3.37,3.37,0,0,0,2.13,0,.65.65,0,0,0,.45-.55c.05-.32.08-.64.1-1A.66.66,0,0,1,135,113h0a.69.69,0,0,1,.69.11c.24.21.49.42.75.61a.64.64,0,0,0,.7.07,3.39,3.39,0,0,0,1.51-1.51.64.64,0,0,0-.07-.7c-.2-.26-.4-.5-.61-.75a.65.65,0,0,1-.11-.69h0a.69.69,0,0,1,.57-.41q.48,0,1-.09a.69.69,0,0,0,.55-.45,3.55,3.55,0,0,0,0-2.14Zm-7,3.07a2,2,0,1,1,2-2A2,2,0,0,1,133,110.06Z"/><path class="cls-18" d="M128.08,112.41a.71.71,0,0,1,.06-.73c.2-.27.4-.53.61-.78a.7.7,0,0,0,.11-.72h0a.66.66,0,0,0-.57-.43c-.32,0-.64-.06-1-.1a.67.67,0,0,1-.54-.47,3.66,3.66,0,0,1,0-2.22.65.65,0,0,1,.54-.47c.32,0,.64-.08,1-.1a.68.68,0,0,0,.57-.43h0a.7.7,0,0,0-.11-.72c-.21-.25-.41-.51-.61-.78a.71.71,0,0,1-.06-.73,3.41,3.41,0,0,1,1.19-1.38.67.67,0,0,0-.48,0,3.37,3.37,0,0,0-1.5,1.51.66.66,0,0,0,.06.7c.2.26.4.5.61.75a.64.64,0,0,1,.11.69h0a.67.67,0,0,1-.57.41q-.48,0-1,.09a.68.68,0,0,0-.54.45,3.4,3.4,0,0,0,0,2.14.68.68,0,0,0,.54.45q.48.06,1,.09a.67.67,0,0,1,.57.41h0a.65.65,0,0,1-.11.69c-.21.25-.41.49-.61.75a.66.66,0,0,0-.06.7,3.37,3.37,0,0,0,1.5,1.51.67.67,0,0,0,.48.05,3.41,3.41,0,0,1-1.19-1.38Zm4.16,2.34c0-.33-.07-.66-.09-1a.69.69,0,0,0-.42-.59h0a.67.67,0,0,0-.52,0,.61.61,0,0,1,.15.36q0,.48.09,1a.66.66,0,0,0,.45.55,3.41,3.41,0,0,0,.53.13.74.74,0,0,1-.19-.41Zm-.34-13.66a.66.66,0,0,0-.45.55q-.06.48-.09,1a.68.68,0,0,1-.15.36.67.67,0,0,0,.52,0h0a.69.69,0,0,0,.42-.59c0-.34,0-.67.09-1a.74.74,0,0,1,.19-.41A3.41,3.41,0,0,0,131.9,101.09Z"/><g id="surface1"><path class="cls-19" d="M100.83,174.81H85.13a7.89,7.89,0,0,0,2.68-6.06H98.15A7.89,7.89,0,0,0,100.83,174.81Z"/><path class="cls-20" d="M98.15,168.75H95.81a7.9,7.9,0,0,0,2.67,6.06h2.35A7.89,7.89,0,0,1,98.15,168.75Z"/><path class="cls-21" d="M112.28,169.17H73.68a1.29,1.29,0,0,1-1.29-1.29V143.94a1.29,1.29,0,0,1,1.29-1.29h38.6a1.3,1.3,0,0,1,1.3,1.29v23.94A1.3,1.3,0,0,1,112.28,169.17Z"/><path class="cls-22" d="M112.28,142.65H109.8a1.29,1.29,0,0,1,1.29,1.29v23.94a1.29,1.29,0,0,1-1.29,1.29h2.48a1.3,1.3,0,0,0,1.3-1.29V143.94A1.3,1.3,0,0,0,112.28,142.65Z"/><path class="cls-19" d="M74.87,166.36v-20.9a.33.33,0,0,1,.33-.33h35.57a.32.32,0,0,1,.32.33v20.9a.32.32,0,0,1-.32.32H75.2A.32.32,0,0,1,74.87,166.36Z"/><path class="cls-21" d="M103.67,176.88H82.29a1.25,1.25,0,0,1,0-2.49h21.38a1.25,1.25,0,1,1,0,2.49Z"/><path class="cls-22" d="M103.67,174.39h-2.49a1.25,1.25,0,0,1,0,2.49h2.49a1.25,1.25,0,1,0,0-2.49Z"/><path class="cls-23" d="M105.44,137.53a1.24,1.24,0,1,1-1.24-1.24A1.24,1.24,0,0,1,105.44,137.53Z"/><path class="cls-23" d="M94.23,137.53A1.25,1.25,0,1,1,93,136.29,1.25,1.25,0,0,1,94.23,137.53Z"/><path class="cls-23" d="M83,137.53a1.25,1.25,0,1,1-1.25-1.24A1.25,1.25,0,0,1,83,137.53Z"/><path class="cls-22" d="M106.05,137.53a1.85,1.85,0,1,0-2.45,1.75v.88H98a.61.61,0,0,0-.61.61v9.28a.61.61,0,0,0,1.21,0v-8.68h5.59a.6.6,0,0,0,.6-.6v-1.49A1.85,1.85,0,0,0,106.05,137.53Zm-1.85.64a.64.64,0,0,1-.64-.64.64.64,0,0,1,1.28,0A.64.64,0,0,1,104.2,138.17Z"/><path class="cls-22" d="M93,135.69a1.85,1.85,0,0,0-.6,3.59v8.41a.61.61,0,0,0,1.21,0v-8.41a1.85,1.85,0,0,0-.61-3.59Zm0,2.48a.64.64,0,0,1-.64-.64.64.64,0,0,1,1.28,0A.64.64,0,0,1,93,138.17Z"/><path class="cls-22" d="M88,140.16H82.37v-.88a1.85,1.85,0,1,0-1.21,0v1.49a.6.6,0,0,0,.6.6h5.59v8.68a.61.61,0,0,0,1.21,0v-9.28A.6.6,0,0,0,88,140.16Zm-6.2-3.27a.64.64,0,1,1-.64.64A.64.64,0,0,1,81.76,136.89Z"/><path class="cls-23" d="M101,151.23v9.52a.49.49,0,0,1-.27.44l-2.18,1-5.38,2.57a.47.47,0,0,1-.42,0l-7.55-3.61a.49.49,0,0,1-.28-.44v-9.52A.5.5,0,0,1,85,151a.55.55,0,0,1,.2-.17l5.46-2.61,2.09-1a.51.51,0,0,1,.42,0l7.56,3.61a.52.52,0,0,1,.19.17A.5.5,0,0,1,101,151.23Z"/><path class="cls-24" d="M93,154.76v10.09a.54.54,0,0,1-.21,0l-7.55-3.61a.49.49,0,0,1-.28-.44v-9.52A.5.5,0,0,1,85,151Z"/><path class="cls-25" d="M101,151.23v9.52a.49.49,0,0,1-.27.44l-2.18,1-5.38,2.57a.54.54,0,0,1-.21,0V154.76l5.55-2.65,2.41-1.15A.5.5,0,0,1,101,151.23Z"/><path class="cls-26" d="M100.94,151l-2.41,1.15-7.85-3.93,2.09-1a.51.51,0,0,1,.42,0l7.56,3.61A.52.52,0,0,1,100.94,151Z"/><path class="cls-27" d="M101,151.23v9.52a.49.49,0,0,1-.27.44l-2.18,1,0-10.12,2.41-1.15A.5.5,0,0,1,101,151.23Z"/></g><circle class="cls-28" cx="27.93" cy="157.17" r="25.43"/><path class="cls-6" d="M27.93,134.24A22.93,22.93,0,1,1,5,157.17a22.93,22.93,0,0,1,22.93-22.93m0-5a27.93,27.93,0,1,0,27.93,27.93,28,28,0,0,0-27.93-27.93Z"/><line class="cls-29" x1="50.86" y1="157.17" x2="65.94" y2="157.17"/><circle class="cls-28" cx="149.87" cy="35.22" r="25.43"/><path class="cls-6" d="M149.87,12.29a22.93,22.93,0,1,1-22.93,22.93,22.93,22.93,0,0,1,22.93-22.93m0-5A27.93,27.93,0,1,0,177.8,35.22,28,28,0,0,0,149.87,7.29Z"/><line class="cls-29" x1="149.87" y1="58.15" x2="149.87" y2="73.23"/><circle class="cls-28" cx="271.82" cy="157.17" r="25.43"/><path class="cls-6" d="M271.82,134.24a22.93,22.93,0,1,1-22.93,22.93,22.92,22.92,0,0,1,22.93-22.93m0-5a27.93,27.93,0,1,0,27.92,27.93,28,28,0,0,0-27.92-27.93Z"/><line class="cls-29" x1="248.89" y1="157.17" x2="233.81" y2="157.17"/><path class="cls-28" d="M263.26,69.21a25.43,25.43,0,1,1,18-7.45A25.27,25.27,0,0,1,263.26,69.21Z"/><path class="cls-6" d="M263.26,20.85a22.93,22.93,0,1,1-16.21,6.71,22.9,22.9,0,0,1,16.21-6.71m0-5A27.93,27.93,0,1,0,283,24a27.74,27.74,0,0,0-19.75-8.18Z"/><line class="cls-29" x1="247.05" y1="59.99" x2="236.39" y2="70.65"/><path class="cls-6" d="M32.28,150.09a1.53,1.53,0,0,1-1.48,1.63c-.9,0-1.61-.66-2.93-.66-.94,0-1.8.51-1.8,1.43,0,2.27,7.35.81,7.35,6.49,0,3.15-2.6,5.1-5.63,5.1-1.7,0-5.35-.39-5.35-2.46a1.46,1.46,0,0,1,1.47-1.56c1,0,2.27.86,3.7.86s2.24-.82,2.24-1.9c0-2.59-7.34-1-7.34-6.13,0-3.08,2.53-5,5.45-5C29.19,147.89,32.28,148.35,32.28,150.09Z"/><path class="cls-6" d="M143.26,28.71a1.65,1.65,0,1,1,3.3,0v4.66h6.91V28.71a1.65,1.65,0,1,1,3.3,0v12.5a1.65,1.65,0,1,1-3.3,0v-4.8h-6.91v4.8a1.65,1.65,0,1,1-3.3,0Z"/><path class="cls-6" d="M259.16,38.26c0-1.1.55-1.92,1.72-1.92h5.45a1.46,1.46,0,0,1,1.56,1.52,1.48,1.48,0,0,1-1.56,1.52h-3.87v3.21h3.61a1.48,1.48,0,0,1,1.6,1.52,1.51,1.51,0,0,1-1.6,1.52h-3.61V49h4.07a1.46,1.46,0,0,1,1.56,1.52A1.49,1.49,0,0,1,266.53,52h-5.68a1.61,1.61,0,0,1-1.69-1.65Z"/><path class="cls-6" d="M268.12,149.74a1.65,1.65,0,1,1,3.3,0v11h3.92a1.49,1.49,0,0,1,1.58,1.58,1.54,1.54,0,0,1-1.58,1.45h-5.5a1.63,1.63,0,0,1-1.72-1.8Z"/></g></g></svg>