<svg xmlns="http://www.w3.org/2000/svg" xmlns:xlink="http://www.w3.org/1999/xlink" viewBox="0 0 851.37 282.37"><defs><style>.cls-1{fill:none;}.cls-2,.cls-26{fill:#fff;}.cls-3{opacity:0.46;}.cls-4{clip-path:url(#clip-path);}.cls-5{fill:#acd29d;}.cls-6{fill:#198780;}.cls-7{fill:#74baa2;}.cls-8{fill:#93d500;}.cls-9{clip-path:url(#clip-path-2);}.cls-10{clip-path:url(#clip-path-3);}.cls-11{fill:#e5e5ff;}.cls-12{fill:#b7b7ff;}.cls-13{fill:#e0e0ff;}.cls-14{fill:#9192ff;}.cls-15{fill:#5254cf;}.cls-16,.cls-19,.cls-23{fill:#1b1b43;}.cls-16{opacity:0.6;}.cls-17{clip-path:url(#clip-path-4);}.cls-18{fill:#ffbc96;}.cls-20{fill:#d28572;}.cls-21{fill:#656590;}.cls-22{fill:#ffb147;}.cls-23{opacity:0.2;}.cls-24{fill:#fff5e8;}.cls-25{fill:#fe5b52;opacity:0.4;}.cls-26{stroke:#00953b;stroke-miterlimit:10;stroke-width:2px;}.cls-27{fill:#00953b;}</style><clipPath id="clip-path"><rect class="cls-1" x="185.65" y="73.57" width="159.79" height="9.79"/></clipPath><clipPath id="clip-path-2"><rect class="cls-1" x="185.65" y="151.15" width="159.79" height="9.79"/></clipPath><clipPath id="clip-path-3"><rect class="cls-1" x="185.65" y="228.73" width="159.79" height="9.79"/></clipPath><clipPath id="clip-path-4"><circle class="cls-2" cx="120.17" cy="100.77" r="18.62"/></clipPath></defs><g id="Capa_2" data-name="Capa 2"><g id="Capa_1-2" data-name="Capa 1"><g class="cls-3"><g class="cls-4"><path class="cls-5" d="M345.43,78.47c0,2.7-35.77,4.89-79.89,4.89s-79.89-2.19-79.89-4.89,35.77-4.9,79.89-4.9,79.89,2.19,79.89,4.9"/></g></g><path class="cls-6" d="M396.44,20.66c4.94-.89,3.17-6-1-5.77-3.67.22-7.49,3.06-8.39,3.78a52.83,52.83,0,0,0,2.52-6.47,15.67,15.67,0,0,0,3.76-8.59c.3-5-5.1-4.5-5.85-.36-.59,3.25.86,7.11,1.51,8.62a46.48,46.48,0,0,1-1.86,5c-.14-1.93-.63-5.33-2.3-7.66-2.45-3.41-7.55-1.55-5.13,2.84a15.6,15.6,0,0,0,6.88,6,77.68,77.68,0,0,1-3.65,7c-.13-1.92-.6-5.39-2.3-7.76-2.45-3.41-7.55-1.55-5.13,2.84a15.55,15.55,0,0,0,6.79,6,79.41,79.41,0,0,1-4.76,7c-.07-1.67-.43-5.75-2.35-8.41-2.45-3.41-7.54-1.55-5.12,2.84a15.66,15.66,0,0,0,7,6.12,62.14,62.14,0,0,1-6.62,7.21c0-1.18-.22-5.91-2.36-8.87-2.45-3.41-7.54-1.56-5.12,2.83a15.73,15.73,0,0,0,7.27,6.23,46.13,46.13,0,0,1-8.16,6c0-.83-.11-5.9-2.36-9-2.45-3.41-7.54-1.55-5.12,2.84,2.2,4,6.57,5.93,7.36,6.26a37.62,37.62,0,0,1-5.83,2.69.31.31,0,0,0-.19.4.3.3,0,0,0,.31.21h.09a38.91,38.91,0,0,0,5.81-2.68,15.68,15.68,0,0,0,7.67,5.4c4.85,1.29,5.42-4.09,1.52-5.65-2.72-1.09-6.24-.7-8.12-.37a47.1,47.1,0,0,0,7.09-5.27,15.6,15.6,0,0,0,8.6,3.65c5,.26,4.44-5.13.3-5.84-2.83-.49-6.13.58-7.92,1.3A62.62,62.62,0,0,0,377.71,34c.72.63,4.34,3.62,8.81,3.84,5,.26,4.45-5.13.31-5.85-3.5-.6-7.68,1.16-8.9,1.72,1.11-1.42,2.1-2.81,3-4.13.64-.95,1.25-1.91,1.83-2.85a15.82,15.82,0,0,0,8.79,3.82c5,.25,4.44-5.14.3-5.85-3.47-.6-7.61,1.12-8.87,1.7,0,0,0,0,0-.05a79.17,79.17,0,0,0,4-7.45c.69.38,5,2.59,9.51,1.78"/><path class="cls-6" d="M376.25,44.22c-11.93-.84-19.31,8.33-19.31,8.33s6,10.12,18,11,25.24-7.92,25.24-7.92-12-10.54-23.89-11.37"/><path class="cls-7" d="M366.34,49.94a26.57,26.57,0,0,1,2.54-1.74,14.1,14.1,0,0,1,1.87-.92c.45-.17.72-.24.72-.24a15.9,15.9,0,0,0-2.23,1.66c-.65.56-1.41,1.24-2.23,2l-1.29,1.22-.32.31c2.56.2,5,.41,7.36.62l.05,0a22,22,0,0,1,6.13-4.32,10.72,10.72,0,0,1,2.15-.75,7.3,7.3,0,0,1,.82-.15l-.76.33a15.64,15.64,0,0,0-1.92,1.1,37.49,37.49,0,0,0-4.87,4c2.68.25,5.14.5,7.33.74l.1-.09.53-.5c.35-.32.7-.63,1-.9A13.21,13.21,0,0,1,385.29,51a9.1,9.1,0,0,1,1.44-.64,5.26,5.26,0,0,1,.56-.13l-.52.22a10.56,10.56,0,0,0-1.32.81,19,19,0,0,0-1.76,1.46c-.31.29-.64.6-1,.93l-.26.26c6,.66,9.71,1.17,9.71,1.17s-3.76,0-9.77-.2l.21.29c.29.37.56.73.84,1.06A18,18,0,0,0,385,57.87a9.16,9.16,0,0,0,1.19,1l.49.3a4.79,4.79,0,0,1-.53-.22,7.6,7.6,0,0,1-1.35-.83,14,14,0,0,1-1.72-1.58c-.3-.32-.6-.67-.91-1-.14-.19-.3-.38-.45-.57l-.08-.1c-2.2-.07-4.68-.17-7.36-.29a38.32,38.32,0,0,0,4.26,4.63,17.28,17.28,0,0,0,1.75,1.36l.7.43a7.33,7.33,0,0,1-.79-.26,11.7,11.7,0,0,1-2-1,22.09,22.09,0,0,1-5.46-5.13l0,0c-2.33-.12-4.81-.25-7.38-.41l.28.34,1.1,1.4c.71.88,1.36,1.66,1.93,2.3a15.42,15.42,0,0,0,2,2,6,6,0,0,1-.67-.34,12.25,12.25,0,0,1-1.72-1.17,26.42,26.42,0,0,1-2.28-2.07c-.4-.41-.81-.86-1.23-1.33l-1-1.2-2.17-.14c-1.55-.11-2.86-.25-3.94-.4-.37-.51-.57-.84-.57-.84s.24-.29.68-.75c1.09,0,2.4.05,3.95.16l2.18.16c.4-.36.8-.71,1.19-1s.94-.79,1.4-1.14"/><path class="cls-6" d="M394.05,36.44a9.46,9.46,0,0,0-4.41,6.91,9.45,9.45,0,0,0,8.19-.38c4-2.34,6.42-8.08,6.42-8.08s-6.17-.78-10.2,1.55"/><path class="cls-7" d="M392.1,40.45a9.51,9.51,0,0,1,.44-1.11,5.61,5.61,0,0,1,.4-.71l.18-.23a7.12,7.12,0,0,0-.36,1c-.09.33-.18.71-.28,1.14,0,.22-.09.44-.14.68a.85.85,0,0,0,0,.17c.87-.5,1.71-1,2.51-1.41v0a8.59,8.59,0,0,1,1-2.74,4.79,4.79,0,0,1,.53-.71l.23-.23-.17.27a7.22,7.22,0,0,0-.38.78,15.8,15.8,0,0,0-.7,2.35l2.53-1.36v-.05c0-.1.05-.19.07-.28a4.42,4.42,0,0,1,.14-.52,5.4,5.4,0,0,1,.33-.85,3.19,3.19,0,0,1,.33-.52l.15-.17-.12.19a3.29,3.29,0,0,0-.25.55,8.11,8.11,0,0,0-.25.85c0,.17-.08.34-.11.52l0,.14c2.08-1.1,3.39-1.75,3.39-1.75s-1.22.82-3.2,2.08l.14,0c.17.06.34.12.5.16a6.24,6.24,0,0,0,.86.21,3.07,3.07,0,0,0,.6.06h.22l-.22,0a2.78,2.78,0,0,1-.61,0,5.57,5.57,0,0,1-.9-.13l-.52-.14-.27-.09h0l-2.44,1.52a16.36,16.36,0,0,0,2.38.56,8.43,8.43,0,0,0,.87.06l.32,0-.31.09a4.48,4.48,0,0,1-.89.1,8.49,8.49,0,0,1-2.88-.46h0c-.78.48-1.61,1-2.47,1.48l.16.05.66.21,1.13.33a6.53,6.53,0,0,0,1.07.2l-.3,0a5.63,5.63,0,0,1-.81,0,8.58,8.58,0,0,1-1.18-.17c-.22,0-.45-.1-.69-.16l-.6-.16-.73.43c-.53.3-1,.54-1.36.73a2.72,2.72,0,0,1-.36-.15s0-.14.05-.39c.35-.23.79-.5,1.31-.81l.74-.42q.08-.31.15-.6c.07-.24.14-.46.21-.68"/><rect class="cls-8" x="164" y="18.99" width="203.08" height="59.48" rx="10.09"/><g class="cls-3"><g class="cls-9"><path class="cls-5" d="M345.43,156.05c0,2.7-35.77,4.89-79.89,4.89s-79.89-2.19-79.89-4.89,35.77-4.9,79.89-4.9,79.89,2.19,79.89,4.9"/></g></g><path class="cls-6" d="M396.44,98.24c4.94-.89,3.17-6-1-5.77-3.67.22-7.49,3.06-8.39,3.78a52.83,52.83,0,0,0,2.52-6.47,15.67,15.67,0,0,0,3.76-8.59c.3-5-5.1-4.5-5.85-.36-.59,3.25.86,7.12,1.51,8.62a46.48,46.48,0,0,1-1.86,5c-.14-1.93-.63-5.33-2.3-7.66-2.45-3.41-7.55-1.55-5.13,2.84a15.6,15.6,0,0,0,6.88,6,77.68,77.68,0,0,1-3.65,7c-.13-1.91-.6-5.39-2.3-7.76-2.45-3.41-7.55-1.55-5.13,2.84a15.55,15.55,0,0,0,6.79,6,79.41,79.41,0,0,1-4.76,7c-.07-1.67-.43-5.75-2.35-8.41-2.45-3.41-7.54-1.55-5.12,2.84a15.66,15.66,0,0,0,7,6.12,62.14,62.14,0,0,1-6.62,7.21c0-1.18-.22-5.91-2.36-8.87-2.45-3.41-7.54-1.56-5.12,2.83a15.73,15.73,0,0,0,7.27,6.23,46.13,46.13,0,0,1-8.16,6c0-.83-.11-5.9-2.36-9-2.45-3.41-7.54-1.55-5.12,2.84,2.2,4,6.57,5.93,7.36,6.26a37.62,37.62,0,0,1-5.83,2.69.31.31,0,0,0-.19.4.3.3,0,0,0,.31.21h.09a38.91,38.91,0,0,0,5.81-2.68,15.68,15.68,0,0,0,7.67,5.4c4.85,1.3,5.42-4.09,1.52-5.65-2.72-1.09-6.24-.7-8.12-.37a47.1,47.1,0,0,0,7.09-5.27,15.6,15.6,0,0,0,8.6,3.65c5,.26,4.44-5.13.3-5.84-2.83-.49-6.13.58-7.92,1.3a62.62,62.62,0,0,0,6.41-7c.72.63,4.34,3.62,8.81,3.84,5,.26,4.45-5.13.31-5.84-3.5-.6-7.68,1.15-8.9,1.71,1.11-1.42,2.1-2.81,3-4.13.64-1,1.25-1.91,1.83-2.85a15.82,15.82,0,0,0,8.79,3.82c5,.25,4.44-5.14.3-5.85-3.47-.6-7.61,1.13-8.87,1.7,0,0,0,0,0,0a79.17,79.17,0,0,0,4-7.45c.69.38,5,2.59,9.51,1.78"/><path class="cls-6" d="M376.25,121.8c-11.93-.84-19.31,8.33-19.31,8.33s6,10.12,18,11,25.24-7.92,25.24-7.92-12-10.54-23.89-11.37"/><path class="cls-7" d="M366.34,127.52a24.6,24.6,0,0,1,2.54-1.73,13.2,13.2,0,0,1,1.87-.93c.45-.17.72-.24.72-.24a15.9,15.9,0,0,0-2.23,1.66c-.65.56-1.41,1.24-2.23,2l-1.29,1.22-.32.31c2.56.2,5,.41,7.36.63l.05-.05a22,22,0,0,1,6.13-4.32,11.4,11.4,0,0,1,2.15-.75,7.3,7.3,0,0,1,.82-.15l-.76.33a15.64,15.64,0,0,0-1.92,1.1,37.49,37.49,0,0,0-4.87,4c2.68.25,5.14.5,7.33.74l.1-.09.53-.5c.35-.32.7-.63,1-.9a13.21,13.21,0,0,1,1.93-1.33,8.08,8.08,0,0,1,1.44-.63,4.36,4.36,0,0,1,.56-.14l-.52.22a10.56,10.56,0,0,0-1.32.81,19,19,0,0,0-1.76,1.46c-.31.29-.64.6-1,.93l-.26.26c6,.66,9.71,1.17,9.71,1.17s-3.76,0-9.77-.2l.21.29c.29.37.56.73.84,1.06a18,18,0,0,0,1.53,1.69,9.16,9.16,0,0,0,1.19,1l.49.3s-.19-.06-.53-.21a7.77,7.77,0,0,1-1.35-.84,14,14,0,0,1-1.72-1.58c-.3-.32-.6-.67-.91-1-.14-.19-.3-.38-.45-.57l-.08-.1c-2.2-.07-4.68-.17-7.36-.29a38.32,38.32,0,0,0,4.26,4.63,17.28,17.28,0,0,0,1.75,1.36l.7.43a7.33,7.33,0,0,1-.79-.26,11.7,11.7,0,0,1-2-1,22.09,22.09,0,0,1-5.46-5.13l0-.05c-2.33-.12-4.81-.25-7.38-.41l.28.34,1.1,1.4c.71.88,1.36,1.66,1.93,2.3a15.42,15.42,0,0,0,2,2,6,6,0,0,1-.67-.34,12.25,12.25,0,0,1-1.72-1.17,26.42,26.42,0,0,1-2.28-2.07c-.4-.41-.81-.86-1.23-1.33l-1-1.2-2.17-.14c-1.55-.11-2.86-.25-3.94-.4-.37-.51-.57-.84-.57-.84s.24-.29.68-.75c1.09,0,2.4.05,3.95.16l2.18.16c.4-.36.8-.71,1.19-1s.94-.79,1.4-1.14"/><path class="cls-6" d="M394.05,114a9.46,9.46,0,0,0-4.41,6.91,9.45,9.45,0,0,0,8.19-.38c4-2.34,6.42-8.08,6.42-8.08s-6.17-.78-10.2,1.55"/><path class="cls-7" d="M392.1,118a9.51,9.51,0,0,1,.44-1.11,4.76,4.76,0,0,1,.4-.7,2.87,2.87,0,0,1,.18-.24,7.12,7.12,0,0,0-.36,1c-.09.33-.18.71-.28,1.14,0,.22-.09.45-.14.68a.85.85,0,0,0,0,.17c.87-.5,1.71-1,2.51-1.41v0a8.59,8.59,0,0,1,1-2.74,4.79,4.79,0,0,1,.53-.71l.23-.23-.17.27a7.22,7.22,0,0,0-.38.78,15.8,15.8,0,0,0-.7,2.35l2.53-1.36v0c0-.1.05-.19.07-.28a4.42,4.42,0,0,1,.14-.52,5.4,5.4,0,0,1,.33-.85,3.7,3.7,0,0,1,.33-.52l.15-.17-.12.19a3.29,3.29,0,0,0-.25.55,7.67,7.67,0,0,0-.25.86c0,.16-.08.33-.11.51l0,.14c2.08-1.1,3.39-1.75,3.39-1.75s-1.22.82-3.2,2.08l.14,0c.17.06.34.12.5.16a6.24,6.24,0,0,0,.86.21,3.07,3.07,0,0,0,.6.06h.22l-.22.05a2.78,2.78,0,0,1-.61,0,5.57,5.57,0,0,1-.9-.13l-.52-.14-.27-.08,0,0-2.44,1.52a16.36,16.36,0,0,0,2.38.56,8.43,8.43,0,0,0,.87.06l.32,0-.31.09a4.48,4.48,0,0,1-.89.1,8.49,8.49,0,0,1-2.88-.46h0c-.78.48-1.61,1-2.47,1.48l.16.06.66.2,1.13.33a6.53,6.53,0,0,0,1.07.2l-.3,0a5.63,5.63,0,0,1-.81,0,8.58,8.58,0,0,1-1.18-.17c-.22,0-.45-.1-.69-.16l-.6-.16-.73.43c-.53.3-1,.54-1.36.73a2.72,2.72,0,0,1-.36-.15s0-.14.05-.39c.35-.23.79-.5,1.31-.81l.74-.42q.08-.32.15-.6c.07-.24.14-.46.21-.68"/><rect class="cls-8" x="164" y="96.57" width="203.08" height="59.48" rx="10.09"/><g class="cls-3"><g class="cls-10"><path class="cls-5" d="M345.43,233.63c0,2.7-35.77,4.89-79.89,4.89s-79.89-2.19-79.89-4.89,35.77-4.9,79.89-4.9,79.89,2.19,79.89,4.9"/></g></g><path class="cls-6" d="M396.44,175.82c4.94-.89,3.17-6-1-5.77-3.67.22-7.49,3.06-8.39,3.78a52.83,52.83,0,0,0,2.52-6.47,15.67,15.67,0,0,0,3.76-8.59c.3-5-5.1-4.5-5.85-.36-.59,3.25.86,7.12,1.51,8.62a46.48,46.48,0,0,1-1.86,5c-.14-1.93-.63-5.33-2.3-7.66-2.45-3.4-7.55-1.55-5.13,2.84a15.6,15.6,0,0,0,6.88,6.05,77.68,77.68,0,0,1-3.65,7c-.13-1.91-.6-5.39-2.3-7.76-2.45-3.41-7.55-1.55-5.13,2.84a15.55,15.55,0,0,0,6.79,6,79.41,79.41,0,0,1-4.76,7c-.07-1.67-.43-5.74-2.35-8.41-2.45-3.41-7.54-1.55-5.12,2.84a15.66,15.66,0,0,0,7,6.12,62.14,62.14,0,0,1-6.62,7.21c0-1.18-.22-5.91-2.36-8.87-2.45-3.41-7.54-1.56-5.12,2.83a15.73,15.73,0,0,0,7.27,6.23,46.68,46.68,0,0,1-8.16,6c0-.84-.11-5.91-2.36-9-2.45-3.41-7.54-1.55-5.12,2.84,2.2,4,6.57,5.93,7.36,6.26a37.62,37.62,0,0,1-5.83,2.69.31.31,0,0,0-.19.4.3.3,0,0,0,.31.21h.09a38.91,38.91,0,0,0,5.81-2.68,15.68,15.68,0,0,0,7.67,5.4c4.85,1.3,5.42-4.09,1.52-5.65-2.72-1.09-6.24-.7-8.12-.37a47.1,47.1,0,0,0,7.09-5.27,15.67,15.67,0,0,0,8.6,3.66c5,.25,4.44-5.14.3-5.85-2.83-.49-6.13.58-7.92,1.3a62.62,62.62,0,0,0,6.41-7.05c.72.63,4.34,3.62,8.81,3.84,5,.26,4.45-5.13.31-5.84-3.5-.6-7.68,1.15-8.9,1.71,1.11-1.42,2.1-2.81,3-4.13.64-.95,1.25-1.91,1.83-2.85a15.82,15.82,0,0,0,8.79,3.82c5,.25,4.44-5.14.3-5.85-3.47-.6-7.61,1.13-8.87,1.7,0,0,0,0,0,0a79.17,79.17,0,0,0,4-7.45c.69.38,5,2.59,9.51,1.78"/><path class="cls-6" d="M376.25,199.38c-11.93-.84-19.31,8.33-19.31,8.33s6,10.12,18,11,25.24-7.92,25.24-7.92-12-10.54-23.89-11.37"/><path class="cls-7" d="M366.34,205.1a24.6,24.6,0,0,1,2.54-1.73,13.2,13.2,0,0,1,1.87-.93c.45-.17.72-.24.72-.24a15.9,15.9,0,0,0-2.23,1.66c-.65.56-1.41,1.24-2.23,2l-1.29,1.22-.32.31c2.56.2,5,.41,7.36.63l.05,0a22,22,0,0,1,6.13-4.32,11.4,11.4,0,0,1,2.15-.75,7.3,7.3,0,0,1,.82-.15l-.76.33a15.64,15.64,0,0,0-1.92,1.1,37.49,37.49,0,0,0-4.87,4c2.68.25,5.14.5,7.33.74l.1-.09.53-.5c.35-.32.7-.63,1-.9a14,14,0,0,1,1.93-1.33,8.08,8.08,0,0,1,1.44-.63,4.36,4.36,0,0,1,.56-.14l-.52.22a10.56,10.56,0,0,0-1.32.81,19,19,0,0,0-1.76,1.46c-.31.29-.64.6-1,.93l-.26.26c6,.66,9.71,1.17,9.71,1.17s-3.76,0-9.77-.2l.21.29c.29.37.56.73.84,1.06A18,18,0,0,0,385,213a9.16,9.16,0,0,0,1.19,1l.49.3s-.19-.06-.53-.21a7.77,7.77,0,0,1-1.35-.84,14,14,0,0,1-1.72-1.58c-.3-.32-.6-.67-.91-1-.14-.19-.3-.38-.45-.57l-.08-.1c-2.2-.07-4.68-.17-7.36-.29a38.32,38.32,0,0,0,4.26,4.63,15.92,15.92,0,0,0,1.75,1.36l.7.43a7.33,7.33,0,0,1-.79-.26,11.7,11.7,0,0,1-2-1.05,22.09,22.09,0,0,1-5.46-5.13l0,0c-2.33-.12-4.81-.25-7.38-.41l.28.34,1.1,1.4c.71.88,1.36,1.66,1.93,2.3a15.42,15.42,0,0,0,2,2,6,6,0,0,1-.67-.34,12.25,12.25,0,0,1-1.72-1.17,26.42,26.42,0,0,1-2.28-2.07c-.4-.41-.81-.86-1.23-1.33l-1-1.2-2.17-.14c-1.55-.11-2.86-.25-3.94-.4-.37-.51-.57-.84-.57-.84s.24-.29.68-.75c1.09,0,2.4,0,3.95.16l2.18.16c.4-.35.8-.71,1.19-1s.94-.79,1.4-1.14"/><path class="cls-6" d="M394.05,191.6a9.46,9.46,0,0,0-4.41,6.91,9.45,9.45,0,0,0,8.19-.38c4-2.34,6.42-8.08,6.42-8.08s-6.17-.78-10.2,1.55"/><path class="cls-7" d="M392.1,195.62a9,9,0,0,1,.44-1.12,4.76,4.76,0,0,1,.4-.7,2.87,2.87,0,0,1,.18-.24,7.12,7.12,0,0,0-.36,1c-.09.33-.18.71-.28,1.14,0,.22-.09.45-.14.68a1,1,0,0,0,0,.17c.87-.5,1.71-1,2.51-1.41v0a8.59,8.59,0,0,1,1-2.74,4.79,4.79,0,0,1,.53-.71l.23-.23-.17.27a7.22,7.22,0,0,0-.38.78,16.18,16.18,0,0,0-.7,2.35l2.53-1.36v-.05c0-.1.05-.19.07-.28a4.42,4.42,0,0,1,.14-.52,5.4,5.4,0,0,1,.33-.85,3.7,3.7,0,0,1,.33-.52l.15-.17-.12.19a3.29,3.29,0,0,0-.25.55,7.67,7.67,0,0,0-.25.86c0,.16-.08.33-.11.51l0,.14c2.08-1.1,3.39-1.75,3.39-1.75s-1.22.82-3.2,2.08l.14,0c.17.06.34.12.5.16a6.24,6.24,0,0,0,.86.21,3.07,3.07,0,0,0,.6.06h.22l-.22,0a2.78,2.78,0,0,1-.61,0,5.57,5.57,0,0,1-.9-.13l-.52-.14-.27-.08,0,0-2.44,1.52a16.36,16.36,0,0,0,2.38.56,6.3,6.3,0,0,0,.87.06l.32,0-.31.09a5.2,5.2,0,0,1-.89.11,8.79,8.79,0,0,1-2.88-.47h0c-.78.48-1.61,1-2.47,1.48l.16.06.66.2c.43.13.81.25,1.13.33a6.53,6.53,0,0,0,1.07.2l-.3,0a4.46,4.46,0,0,1-.81,0,8.58,8.58,0,0,1-1.18-.17c-.22,0-.45-.1-.69-.16l-.6-.16-.73.43c-.53.3-1,.54-1.36.73a2.72,2.72,0,0,1-.36-.15s0-.14.05-.39c.35-.23.79-.5,1.31-.81l.74-.42q.08-.31.15-.6c.07-.24.14-.46.21-.67"/><rect class="cls-8" x="164" y="174.15" width="203.08" height="59.48" rx="10.09"/><rect class="cls-11" x="51.92" y="18.87" width="97.05" height="172.55" rx="8.38"/><rect class="cls-2" x="64.78" y="68.37" width="69.49" height="73.54"/><rect class="cls-12" x="71.06" y="116.95" width="4.83" height="16.91"/><rect class="cls-13" x="79.74" y="119.33" width="4.83" height="14.53"/><rect class="cls-12" x="88.42" y="110.12" width="4.83" height="23.74"/><rect class="cls-13" x="97.1" y="111.82" width="4.83" height="22.04"/><rect class="cls-12" x="105.79" y="104.21" width="4.83" height="29.65"/><rect class="cls-13" x="114.47" y="100.1" width="4.83" height="33.76"/><rect class="cls-12" x="123.15" y="96.44" width="4.83" height="37.43"/><polygon class="cls-12" points="81.31 107.68 72.19 104.03 72.36 103.59 81.23 107.14 90.26 99.66 98.69 99.86 124.09 84.18 124.33 84.58 98.82 100.33 90.43 100.14 81.31 107.68"/><rect class="cls-12" x="70.18" y="82.94" width="9.91" height="4.12"/><rect class="cls-12" x="83.37" y="85.3" width="9.27" height="0.48"/><rect class="cls-2" x="65.96" y="151.45" width="74.68" height="28.55"/><path class="cls-12" d="M90.77,180.07v.18h.37v-.18Zm24.75,0v.18h.36v-.18ZM66,151.52V180h.36V151.88h74.25v-.36Zm74.24,28.55v.18h.37v-.18Z"/><rect class="cls-12" x="66.21" y="174.35" width="74.43" height="0.36"/><rect class="cls-12" x="66.21" y="168.64" width="74.43" height="0.37"/><rect class="cls-12" x="66.21" y="162.94" width="74.43" height="0.36"/><rect class="cls-12" x="66.21" y="157.23" width="74.43" height="0.36"/><rect class="cls-12" x="140.27" y="151.7" width="0.37" height="28.55"/><rect class="cls-12" x="115.52" y="151.7" width="0.36" height="28.55"/><rect class="cls-12" x="90.77" y="151.7" width="0.36" height="28.55"/><path class="cls-14" d="M140.27,177.2a1.45,1.45,0,0,0,.37.11v.51a1.66,1.66,0,0,1-.37-.09l-.11,0c-1.18-.41-1.67-1.78-1.91-3a2.58,2.58,0,0,1-.06-.37c0-.18-.07-.36-.09-.52a26.7,26.7,0,0,1-.18-4.81c0-.13,0-.25,0-.38.06-1.78.21-3.56.2-5.34,0-.12,0-.23,0-.35h0c0-1.43.06-3.88-.77-5.35a2.9,2.9,0,0,0-.25-.36,1.73,1.73,0,0,0-.26-.28c-.65-.59-1.42-.27-2,.28l-.35.36a4.5,4.5,0,0,0-.53.78,11.52,11.52,0,0,0-.92,4.57V163c0,.1,0,.2,0,.3a35.41,35.41,0,0,1-.45,5.34l-.09.38a8.6,8.6,0,0,1-.31,1,2.88,2.88,0,0,1-1.61,2c-.93.28-1.49-.46-1.74-1.26a12.3,12.3,0,0,1-.22-1.71,1.43,1.43,0,0,0,0-.22l0-.16c-.1-.51-.19-.66-.89-.63s-.78.09-1,.63l0,.12a1.1,1.1,0,0,0-.06.26,3.25,3.25,0,0,0-.11.42c-.27,1.16-.59,2.43-1.89,2.75a2.36,2.36,0,0,1-2.38-.9,3.72,3.72,0,0,1-.67-2.27c0-.12,0-.25,0-.38,0-.73.1-1.49.1-2.16a21.29,21.29,0,0,0-.25-3.18l-.06-.36a24.56,24.56,0,0,0-.72-3.05c-.26-.84-.56-2-1.45-2.3a2,2,0,0,0-.37-.09,1.82,1.82,0,0,0-.77.09,3.56,3.56,0,0,0-1.31.88,6.42,6.42,0,0,0-.75.89q-.18.27-.36.57a15.07,15.07,0,0,0-1.22,3c0,.13-.07.24-.11.36s-.13.44-.19.66a37.28,37.28,0,0,0-.94,4.68L113,169l-.09.59c-.21,1.41-.68,4.36-2.49,4.65a2.58,2.58,0,0,1-2.3-1.3c-.73-1.18-.47-2.63-.72-3.94a2.38,2.38,0,0,0-.06-.37h0a2.78,2.78,0,0,0-.35-.86c-.32-.43-.54-.43-1-.39a1.33,1.33,0,0,0-1.06.64,5.91,5.91,0,0,0-.41.61c-.08.14-.15.26-.23.38s-.11.17-.18.25c-.35.46-.85,1-1.47.73a1.46,1.46,0,0,1-.74-1,3.7,3.7,0,0,1-.07-.38,10.93,10.93,0,0,1-.07-1.93c0-1.13,0-2.27,0-3.41a2.16,2.16,0,0,1,0-.36c0-.62,0-1.24,0-1.86,0-1.07-.11-2.74-.83-3.49a1.11,1.11,0,0,0-.7-.36,1.3,1.3,0,0,0-.44,0,3.05,3.05,0,0,0-.9.35h0c-1.81,1-2.69,3.39-3.38,5.22l0,.13c-.05.12-.09.24-.13.36-.67,1.77-1.31,3.57-2,5.34l-.15.38a36.75,36.75,0,0,1-2,4.11c-.1.18-.2.37-.31.55l-.06.09c-.11.19-.23.39-.36.58s-.16.24-.25.37a4.24,4.24,0,0,1-2.29,1.79,3.48,3.48,0,0,1-3.17-.95,6,6,0,0,1-.77-.84c-.08-.12-.17-.24-.25-.37A9.67,9.67,0,0,1,82.55,169v-.38c0-.65,0-1.31,0-2a9.49,9.49,0,0,0-.67-3.38c-.06-.12-.12-.24-.19-.36a2.14,2.14,0,0,0-2.93-1,6,6,0,0,0-1.68,1l-.39.36a12,12,0,0,0-1.84,2.38,17.81,17.81,0,0,0-1.41,3c-.05.13-.1.25-.14.38a47.84,47.84,0,0,1-2.15,5.33c-.07.13-.13.24-.21.37a10,10,0,0,1-.64,1c-.18.24-.6,0-.42-.25s.35-.51.5-.76.14-.24.22-.37A37.22,37.22,0,0,0,72.77,169l.14-.38a19.35,19.35,0,0,1,1.43-3.06A15,15,0,0,1,76,163.3l.35-.36c1.26-1.3,2.85-2.29,4.39-1.63a3.24,3.24,0,0,1,1.63,1.63c.06.12.11.24.16.36a15,15,0,0,1,.52,5.34c0,.14,0,.25,0,.38,0,.38,0,.73,0,1a7.64,7.64,0,0,0,1.25,4.29,3.37,3.37,0,0,0,.29.37,5.67,5.67,0,0,0,.48.5c1.63,1.48,3.26.83,4.45-.5a3.47,3.47,0,0,0,.3-.37,5.47,5.47,0,0,0,.52-.74c.16-.26.31-.53.46-.8l.37-.68c.52-1,1-2.06,1.42-3.11.06-.13.11-.25.16-.38.71-1.76,1.35-3.57,2-5.34l.15-.36c.12-.32.24-.64.37-1a13.22,13.22,0,0,1,2.65-4.39c.15-.13.29-.25.44-.36a2.39,2.39,0,0,1,2.37-.38,1.83,1.83,0,0,1,.58.38,2,2,0,0,1,.3.36,4.29,4.29,0,0,1,.53,1.76,26.77,26.77,0,0,1,.1,3.59c0,.13,0,.25,0,.36V164c0,1.14,0,2.27,0,3.42a5.86,5.86,0,0,0,.12,1.24,3.44,3.44,0,0,0,.11.38c.18.41.5.62,1.06.2a2.31,2.31,0,0,0,.24-.2,2,2,0,0,0,.27-.38c.37-.56.59-1.24,1.25-1.59,1.55-.8,2.18.23,2.48,1.59,0,.13,0,.25.07.38.19,1.09.22,2.29.37,2.87.24.86,1.11,2.07,2.15,1.88.62-.1,1-.72,1.25-1.25a11.2,11.2,0,0,0,.89-3.31c0-.07,0-.13,0-.19s0-.25,0-.38a42.56,42.56,0,0,1,1-5.34c0-.12.07-.23.1-.36a13,13,0,0,1,1.82-3.9l.36-.48h0a4.63,4.63,0,0,1,1.08-1,3.3,3.3,0,0,1,.73-.36,2.21,2.21,0,0,1,1.64,0,1.78,1.78,0,0,1,.56.36,2.78,2.78,0,0,1,.7,1,16.81,16.81,0,0,1,1.15,4.35,2.33,2.33,0,0,1,0,.36c0,.27.08.54.11.79a20.66,20.66,0,0,1,.12,3.24c0,.42,0,.87-.06,1.31a2.41,2.41,0,0,0,0,.38,3.7,3.7,0,0,0,.33,1.58,1.85,1.85,0,0,0,2.61.91c.85-.56.87-1.6,1.1-2.49a2.78,2.78,0,0,1,.12-.38h0c.28-.78,1.06-1.75,2-1.39a1.64,1.64,0,0,1,.89,1.4,2.65,2.65,0,0,1,0,.38,2.4,2.4,0,0,1,0,.37,4.19,4.19,0,0,0,.22,1.35,1,1,0,0,0,1.55.53,3.67,3.67,0,0,0,1-1.86c0-.14.08-.26.11-.39a2.62,2.62,0,0,0,.09-.38,30.73,30.73,0,0,0,.47-5.34c0-.12,0-.23,0-.36,0-.44,0-.87.1-1.31a9.16,9.16,0,0,1,1.18-4,4.22,4.22,0,0,1,.27-.36,3,3,0,0,1,1.6-1,1.73,1.73,0,0,1,2,1l.18.36a15.43,15.43,0,0,1,.72,5.35v.36c0,.53,0,.95,0,1.23,0,1.37-.13,2.74-.18,4.11,0,.13,0,.25,0,.38s0,.19,0,.29a23.11,23.11,0,0,0,.23,5,2.49,2.49,0,0,0,.09.37,7,7,0,0,0,.42,1.24A2.24,2.24,0,0,0,140.27,177.2Z"/><path class="cls-2" d="M32.59,93.16a16.19,16.19,0,1,0-11.93,15.61l5.61,4.7-.58-7A16.17,16.17,0,0,0,32.59,93.16Z"/><path class="cls-15" d="M26.56,114l-6-5a16.42,16.42,0,1,1,5.34-2.5Zm-5.84-5.52L26,112.92l-.55-6.62.12-.08a15.93,15.93,0,1,0-4.95,2.32Z"/><polygon class="cls-15" points="16.2 98.21 11.62 93.62 11.96 93.28 16.05 97.37 20.78 86.58 21.23 86.77 16.2 98.21"/><path class="cls-15" d="M104.4,114.37l-4.34,2.54-46.12,27c-1.42.84-3.08.64-3.74-.44h0c-.66-1.08-.08-2.65,1.31-3.53l45-28.63,4.34-2.75Z"/><path class="cls-16" d="M104.4,114.37l-4.34,2.54a14.53,14.53,0,0,1-2.22-2.76,14.69,14.69,0,0,1-1.31-2.82l4.34-2.75Z"/><path class="cls-2" d="M98.31,115.81a1.45,1.45,0,1,1,.48-2A1.45,1.45,0,0,1,98.31,115.81Z"/><circle class="cls-15" cx="120.17" cy="100.77" r="22.96"/><circle class="cls-2" cx="120.17" cy="100.77" r="18.62"/><g class="cls-17"><rect class="cls-12" x="106.76" y="107.06" width="5.84" height="35.83"/><rect class="cls-13" x="117.25" y="102.34" width="5.84" height="40.8"/><rect class="cls-12" x="127.74" y="97.26" width="5.84" height="45.23"/><rect class="cls-12" x="99.75" y="94.68" width="28.09" height="0.73" transform="translate(-23.55 39.19) rotate(-17.74)"/><path class="cls-12" d="M125.39,93.88l-.59-.42L126.56,91,124,90.11l.23-.68,2.82,1a.49.49,0,0,1,.33.34.53.53,0,0,1-.1.48Zm1.43-2.8h0Zm-.1-.32v0Z"/></g><path class="cls-18" d="M74.22,271.69l-9.82.15c0-1.31.08-2.62.14-3.82.13-3,.3-5.28.3-5.28l8.37-.06s0,.84,0,2.08A26.6,26.6,0,0,0,74.22,271.69Z"/><path class="cls-19" d="M77.46,275.78c-1.6-.5-2.61-2.14-3.24-4.09l-9.82.15a50.2,50.2,0,0,0,.25,7.93,1.57,1.57,0,0,0,1.54,1.31H80.58a2,2,0,0,0,2.07-2.15C82.5,277.54,80.85,276.83,77.46,275.78Z"/><path class="cls-20" d="M73.21,264.76,64.54,268c.13-3,.3-5.28.3-5.28l8.37-.06S73.17,263.52,73.21,264.76Z"/><path class="cls-21" d="M68.86,281a4.4,4.4,0,0,0-1.81-3,3.46,3.46,0,0,0-2.48-.35l-.14-.46a3.88,3.88,0,0,1,2.86.39,4.81,4.81,0,0,1,2,3.34Z"/><path class="cls-18" d="M31.21,261.12a36,36,0,0,0-1.59,4.81,21.25,21.25,0,0,0-.65,4l-9.24-3.34c1.18-2.91,2.45-5.76,3.13-7.26l0,0,.48-1.05Z"/><path class="cls-19" d="M30.56,274.87c-1.33-1-1.69-2.92-1.59-5l-9.24-3.33a50.11,50.11,0,0,0-2.57,7.51,1.56,1.56,0,0,0,1,1.77l13.46,5.09a2,2,0,0,0,2.69-1.28C34.64,278.3,33.36,277.05,30.56,274.87Z"/><path class="cls-20" d="M31.21,261.12a36,36,0,0,0-1.59,4.81l-7-5.91.26-.73,0,0,.48-1.05Z"/><path class="cls-21" d="M20.29,276.58l-.43-.22a3.71,3.71,0,0,0-1.51-5.24l.23-.43A4.25,4.25,0,0,1,20.29,276.58Z"/><path class="cls-15" d="M77.32,264.38l-15.4,1.21-3.22-55-4.77-18.08-6.24-23.64-.33-1.24L45.86,162l-.22-.86,2.94-.26L64.5,159.4l1,4.35h0L75,206.88a23.53,23.53,0,0,1,.54,4.27Z"/><path class="cls-15" d="M55.15,180.28l-1.22,12.24-2,19.8A27.49,27.49,0,0,1,50.43,219L34,264.38l-13.78-5.32,12.82-46.45c3.3-19.11,2.75-33.79,3.61-43.09,0-.58.11-1.14.17-1.68a19,19,0,0,1,1.78-6.75l7.24.86,5.1.6,1.1,4.68.23,1Z"/><path class="cls-16" d="M65.46,163.75l.17,1.86s-21.61,5.8-29,3.91c0-.58.11-1.14.17-1.68a19,19,0,0,1,1.78-6.75l7.24.86-.22-.86,2.94-.26L64.5,159.4Z"/><polygon class="cls-19" points="58.46 210.86 51.24 182.33 45.32 180.43 45.47 179.97 51.64 181.95 51.67 182.08 58.93 210.74 58.46 210.86"/><path class="cls-19" d="M69.55,212.12l-.17-.46a33.6,33.6,0,0,0,5.88-2.76l.26.41A33.63,33.63,0,0,1,69.55,212.12Z"/><path class="cls-19" d="M51.05,217a54.65,54.65,0,0,1-7.29-1.34l.12-.47a54.69,54.69,0,0,0,7.22,1.33Z"/><rect class="cls-19" x="28.22" y="250.21" width="0.48" height="14.95" transform="translate(-223.21 195.44) rotate(-69.81)"/><rect class="cls-19" x="61.7" y="260.81" width="15.4" height="0.48" transform="translate(-18.18 5.52) rotate(-4.03)"/><path class="cls-22" d="M44.55,126.1,38,128.74a7.63,7.63,0,0,0-4.21,4.14L28.29,146a6.55,6.55,0,0,0,1.82,7.52h0a6.56,6.56,0,0,0,6.49,1.15L41.24,153Z"/><path class="cls-18" d="M89.8,114.16c-1.22.6-2.63,3.18-2.1,4.1.44.76,1.46-.27,1.8-.62.62-.64,2.22-2.37,1.34-3.35A.8.8,0,0,0,89.8,114.16Z"/><path class="cls-18" d="M86.84,115.09c-1,.91-1.68,3.77-.91,4.51.62.62,1.33-.65,1.56-1.08.42-.79,1.5-2.88.38-3.59A.81.81,0,0,0,86.84,115.09Z"/><path class="cls-18" d="M84.88,116.52c-1,.88-1.75,3.59-1,4.27s1.34-.64,1.57-1.05c.44-.75,1.55-2.74.46-3.38A.83.83,0,0,0,84.88,116.52Z"/><path class="cls-18" d="M83,117.19c-1,.88-1.75,3.59-1,4.27s1.33-.64,1.57-1c.44-.75,1.55-2.74.46-3.39A.85.85,0,0,0,83,117.19Z"/><path class="cls-22" d="M44.55,126.18l-6.82,11.71s1.78,19.35.49,21.73-4.2,4.24-2.42,5.6,15.8,3.73,31,.17c4.19-1.19,1.29-3.4.32-4.41s-2.26-26.65-2.26-26.65l-8.71-8-6.44-1.73Z"/><path class="cls-23" d="M56,126.38c-1.21,2.12-15.45,4.3-11.43-.28l4.11-.86Z"/><path class="cls-22" d="M74.42,140.17l-5.62-8.33a8.93,8.93,0,0,0-5.86-4.09l-6.82-1.37,4,15.12s6.29,8.83,12,10.89c5.1,1.84,11.87-1.19,15.6-21.13l-8.46-1.15Z"/><path class="cls-18" d="M92.36,119.41c-.86-.11-3.79,4.31-3.79,4.31l-4.74,1.62a6.79,6.79,0,0,0-4,3.51l-.61,1.26,8.46,1.15c.14-.74.27-1.5.41-2.3C91,126.34,94.25,119.65,92.36,119.41Z"/><path class="cls-20" d="M57.28,107.69,59,110.07a.75.75,0,0,1-.37,1.14l-1.83.7L55.49,109Z"/><path class="cls-18" d="M46.19,120.73a71.85,71.85,0,0,0,.25-8.74l7.82.57a21.54,21.54,0,0,0,0,2.67,35.49,35.49,0,0,0,.43,4.27c.12.77.26,1.53.41,2.25Z"/><path class="cls-20" d="M54.65,119.5a9,9,0,0,1-4.58-4.32l4.15,0A35.49,35.49,0,0,0,54.65,119.5Z"/><path class="cls-24" d="M46.19,120.73l-1.64,5.37a28.49,28.49,0,0,0,11.57.28l-1.06-4.63Z"/><path class="cls-18" d="M57.08,103.69l.81,10.81a1.46,1.46,0,0,1-.61,1.26,3.51,3.51,0,0,1-2.56.9l-5.54-.23-4-4.44,3.07-9.43,5.56-.08Z"/><path class="cls-19" d="M48,110.12s1.45,4.53-1.63,6.83c-3.33-1.09-9.49-11.19-1.81-14.39a6,6,0,0,1,7.86-3.39c5.07,1.76,6.41,4.84,6.41,4.84a7.18,7.18,0,0,1-7.74.18S51.5,109.57,48,110.12Z"/><path class="cls-18" d="M50,108.26a2.37,2.37,0,1,1-3.47-.54A2.5,2.5,0,0,1,50,108.26Z"/><path class="cls-19" d="M48.93,110.87c0-.08-.51-1.93-1.81-1.64l-.07-.36c1.31-.28,2,1.13,2.23,1.91Z"/><circle class="cls-25" cx="54.26" cy="110.46" r="1.61" transform="translate(-65.71 137.89) rotate(-76.72)"/><path class="cls-19" d="M37.56,166.22c-1.47-.35-2.3-.9-2.54-1.67-.39-1.25.9-2.69,2-4l.51-.57a2.94,2.94,0,0,0,.63-1.26c1.06-5-.7-20.68-.72-20.84l.48-.06c.08.65,1.79,15.9.71,21a3.21,3.21,0,0,1-.74,1.47l-.51.58c-1,1.12-2.26,2.51-2,3.5.18.59.92,1,2.19,1.34Z"/><path class="cls-19" d="M65.64,165.85l0-.48c1.65-.08,2.66-.47,2.92-1.14s-.21-1.69-1.31-2.78a2,2,0,0,1-.56-1c-.87-3.91-1.8-16.84-1.8-17l.48,0c0,.13.93,13,1.79,16.89a1.64,1.64,0,0,0,.43.8c1.26,1.24,1.76,2.41,1.42,3.29S67.53,165.77,65.64,165.85Z"/><polygon class="cls-19" points="73.55 142.33 73.11 142.12 79.12 129.84 87.75 131.02 87.69 131.5 79.4 130.37 73.55 142.33"/><rect class="cls-19" y="280.83" width="367.08" height="0.48"/><rect class="cls-26" x="430.37" y="18.99" width="420" height="250" rx="9.3"/><path class="cls-27" d="M519,8.64H457.61a.94.94,0,0,1,0-1.88H519a.94.94,0,0,1,0,1.88Z"/><path class="cls-27" d="M463.51,12.94H441.67a.94.94,0,1,1,0-1.87h21.84a.94.94,0,1,1,0,1.87Z"/><path class="cls-27" d="M447.09,8h-5.42a.94.94,0,1,1,0-1.87h5.42a.94.94,0,0,1,0,1.87Z"/><path class="cls-27" d="M434.33,14.54h-3a.94.94,0,0,1,0-1.88h3a.94.94,0,0,1,0,1.88Z"/><path class="cls-27" d="M750.26,276.47h61.39a.94.94,0,1,0,0-1.87H750.26a.94.94,0,1,0,0,1.87Z"/><path class="cls-27" d="M805.75,280.78H827.6a.94.94,0,0,0,0-1.88H805.75a.94.94,0,0,0,0,1.88Z"/><path class="cls-27" d="M822.18,275.83h5.42a.94.94,0,0,0,0-1.87h-5.42a.94.94,0,1,0,0,1.87Z"/><path class="cls-27" d="M834.93,282.37h3a.94.94,0,1,0,0-1.87h-3a.94.94,0,0,0,0,1.87Z"/></g></g></svg>