<svg xmlns="http://www.w3.org/2000/svg" xmlns:xlink="http://www.w3.org/1999/xlink" viewBox="0 0 291.46 88.86"><defs><style>.cls-1{fill:none;}.cls-2{opacity:0.46;}.cls-3{clip-path:url(#clip-path);}.cls-4{fill:#90a4c1;}.cls-5{fill:#198780;}.cls-6{fill:#74baa2;}.cls-7{fill:#466898;}</style><clipPath id="clip-path"><rect class="cls-1" x="61.79" y="77.29" width="167.88" height="10.29"/></clipPath></defs><g id="Capa_2" data-name="Capa 2"><g id="Capa_1-2" data-name="Capa 1"><g class="cls-2"><g class="cls-3"><path class="cls-4" d="M229.67,82.44c0,2.84-37.58,5.14-83.94,5.14S61.8,85.28,61.8,82.44s37.58-5.15,83.93-5.15,83.94,2.31,83.94,5.15"/></g></g><path class="cls-5" d="M8.2,21.7c-5.18-.93-3.32-6.31,1.08-6,3.85.22,7.87,3.21,8.81,4a54,54,0,0,1-2.64-6.79,16.46,16.46,0,0,1-3.95-9c-.32-5.26,5.35-4.72,6.14-.38.62,3.42-.91,7.48-1.59,9.06a51.85,51.85,0,0,0,2,5.21c.15-2,.66-5.6,2.42-8,2.57-3.58,7.92-1.63,5.38,3A16.39,16.39,0,0,1,18.58,19a82.92,82.92,0,0,0,3.83,7.39c.14-2,.64-5.67,2.43-8.15,2.57-3.58,7.93-1.63,5.38,3a16.17,16.17,0,0,1-7.13,6.31,79.8,79.8,0,0,0,5,7.34c.07-1.75.45-6,2.46-8.83,2.57-3.58,7.92-1.63,5.38,3a16.49,16.49,0,0,1-7.39,6.43,64.07,64.07,0,0,0,7,7.57c0-1.24.23-6.21,2.48-9.32,2.57-3.58,7.92-1.63,5.38,3-2.24,4.06-6.62,6.11-7.64,6.54a48.21,48.21,0,0,0,8.57,6.31c0-.88.12-6.2,2.48-9.48,2.57-3.58,7.93-1.63,5.38,3-2.31,4.18-6.9,6.23-7.73,6.58a40.09,40.09,0,0,0,6.13,2.82.35.35,0,0,1,.2.43.33.33,0,0,1-.33.22l-.1,0a39.36,39.36,0,0,1-6.1-2.81,16.55,16.55,0,0,1-8.06,5.68c-5.09,1.35-5.69-4.31-1.6-5.95,2.86-1.14,6.56-.73,8.54-.38A49.61,49.61,0,0,1,35.64,44a16.38,16.38,0,0,1-9,3.84c-5.26.27-4.67-5.4-.32-6.14,3-.52,6.45.61,8.33,1.36a65.12,65.12,0,0,1-6.73-7.4c-.76.67-4.57,3.8-9.27,4-5.26.27-4.67-5.4-.32-6.15C22,33,26.37,34.81,27.65,35.4c-1.16-1.49-2.2-3-3.13-4.34q-1-1.51-1.92-3c-.82.71-4.59,3.78-9.23,4-5.26.27-4.67-5.4-.32-6.14,3.64-.63,8,1.18,9.31,1.79v-.06a84.72,84.72,0,0,1-4.16-7.82c-.73.39-5.25,2.72-10,1.86"/><path class="cls-5" d="M21.31,76.58c-2.81-.12-2.47,2.9-.15,3.28a9.74,9.74,0,0,0,5.06-1A29.67,29.67,0,0,0,24,82.06a8.8,8.8,0,0,0-3.12,4.24c-.78,2.7,2.23,3.09,3.15.92a9.51,9.51,0,0,0,.25-4.91A25.48,25.48,0,0,1,26,79.83a8.79,8.79,0,0,0,.31,4.47c.92,2.17,3.94,1.78,3.15-.92a8.73,8.73,0,0,0-3-4.16,42.43,42.43,0,0,1,2.86-3.4,9,9,0,0,0,.31,4.53c.92,2.17,3.93,1.78,3.15-.92a8.61,8.61,0,0,0-3-4.12,40.29,40.29,0,0,1,3.47-3.23A9.37,9.37,0,0,0,33.46,77c.92,2.17,3.94,1.78,3.16-.92a8.9,8.9,0,0,0-3.1-4.22A34.66,34.66,0,0,1,38,68.7a9.74,9.74,0,0,0,.2,5.14c.92,2.17,3.93,1.79,3.15-.92a8.9,8.9,0,0,0-3.21-4.3,26,26,0,0,1,5.21-2.28,9.93,9.93,0,0,0,.17,5.23c.92,2.17,3.94,1.78,3.16-.92a8.84,8.84,0,0,0-3.26-4.33A20.92,20.92,0,0,1,47,65.56a.18.18,0,0,0,.15-.19.19.19,0,0,0-.14-.16h-.06a21.24,21.24,0,0,0-3.51.75,8.78,8.78,0,0,0-3.53-3.91c-2.49-1.3-3.47,1.58-1.53,2.91a9.06,9.06,0,0,0,4.4,1.2,27.67,27.67,0,0,0-4.53,2A8.73,8.73,0,0,0,34,65.11c-2.71-.76-3.07,2.26-.89,3.16a9,9,0,0,0,4.5.27,35.9,35.9,0,0,0-4.38,3.06,8.93,8.93,0,0,0-4.35-3.19c-2.71-.75-3.07,2.27-.89,3.17a9.61,9.61,0,0,0,5.08.15c-.78.65-1.5,1.28-2.14,1.9-.47.44-.92.89-1.35,1.33a8.91,8.91,0,0,0-4.34-3.17c-2.71-.76-3.07,2.26-.89,3.16a9.56,9.56,0,0,0,5.06.16v0a43.73,43.73,0,0,0-3.09,3.59,9,9,0,0,0-5-2.15"/><path class="cls-5" d="M21.87,88.83a1.07,1.07,0,0,1-.27-.07c-.69-.24-1.34-1.05-.91-2.53a9.07,9.07,0,0,1,3.16-4.33,26.65,26.65,0,0,1,1.63-2.48,8.85,8.85,0,0,1-4.36.68h0a2.24,2.24,0,0,1-2-2.28c.07-.73.71-1.55,2.24-1.48h0a9,9,0,0,1,4.94,2c.77-1,1.6-2,2.47-2.9a9.07,9.07,0,0,1-4.49-.3,2.25,2.25,0,0,1-1.48-2.69c.24-.69,1-1.36,2.53-.94a9.09,9.09,0,0,1,4.29,3c.37-.38.76-.76,1.16-1.14s1-.89,1.47-1.32a9,9,0,0,1-4.33-.33,2.24,2.24,0,0,1-1.48-2.69c.24-.69,1-1.35,2.52-.93a9,9,0,0,1,4.33,3.08,36.56,36.56,0,0,1,3.26-2.35A8,8,0,0,1,33,68.5a2.25,2.25,0,0,1-1.47-2.69c.24-.69,1-1.35,2.52-.93a8.81,8.81,0,0,1,4.25,3,29.33,29.33,0,0,1,3.34-1.55,8.09,8.09,0,0,1-3.41-1.15,2.25,2.25,0,0,1-.88-2.94c.38-.62,1.31-1.1,2.67-.38a8.9,8.9,0,0,1,3.54,3.83A21.49,21.49,0,0,1,46.9,65H47a.43.43,0,0,1,0,.84,19.25,19.25,0,0,0-3,.61,8.87,8.87,0,0,1,2.95,4.16c.43,1.48-.22,2.29-.91,2.54a2.25,2.25,0,0,1-2.7-1.45,9.54,9.54,0,0,1-.27-5,26.08,26.08,0,0,0-4.45,2,8.75,8.75,0,0,1,3,4.21c.43,1.47-.22,2.28-.91,2.53A2.24,2.24,0,0,1,38,73.94a9.27,9.27,0,0,1-.3-4.76,33.64,33.64,0,0,0-3.79,2.64A8.76,8.76,0,0,1,36.85,76c.43,1.47-.22,2.28-.91,2.53a2.25,2.25,0,0,1-2.7-1.45,8.89,8.89,0,0,1-.36-4.38c-1,.81-1.88,1.69-2.77,2.61A8.83,8.83,0,0,1,33,79.36c.43,1.48-.22,2.29-.91,2.54a2.25,2.25,0,0,1-2.7-1.45,8.48,8.48,0,0,1-.41-3.9c-.78.86-1.51,1.74-2.2,2.63a8.84,8.84,0,0,1,2.92,4.14c.42,1.47-.23,2.28-.91,2.53A2.25,2.25,0,0,1,26,84.4a8.1,8.1,0,0,1-.44-3.66c-.4.58-.75,1.13-1,1.62a9.68,9.68,0,0,1-.27,5A2.29,2.29,0,0,1,21.87,88.83Zm2.2-6.49a8.58,8.58,0,0,0-2.92,4c-.28,1,0,1.7.61,1.94a1.77,1.77,0,0,0,2.09-1.19,9.22,9.22,0,0,0,.23-4.76Zm2.18-2.92-.06.44a8.76,8.76,0,0,0,.29,4.35,1.77,1.77,0,0,0,2.09,1.18c.66-.23.89-1,.61-1.94A8.42,8.42,0,0,0,26.25,79.42Zm3.31-4-.06.39a8.85,8.85,0,0,0,.29,4.4,1.77,1.77,0,0,0,2.09,1.18c.65-.24.89-1,.61-1.94a8.52,8.52,0,0,0-2.89-4ZM21.3,76.82h0c-1,0-1.67.36-1.74,1.05a1.75,1.75,0,0,0,1.62,1.75h0a9.19,9.19,0,0,0,4.7-.91A8.41,8.41,0,0,0,21.3,76.82Zm12.16-4.74v0a9.07,9.07,0,0,0,.23,4.75,1.77,1.77,0,0,0,2.09,1.18c.65-.23.88-1,.6-1.94A8.6,8.6,0,0,0,33.46,72.08ZM24.84,72c-.81-.14-1.42.11-1.62.7a1.77,1.77,0,0,0,1.2,2.08,9.22,9.22,0,0,0,4.79.17A8.56,8.56,0,0,0,25.15,72Zm13.39-3a9.29,9.29,0,0,0,.22,4.78,1.76,1.76,0,0,0,2.09,1.18c.65-.23.89-1,.61-1.94A8.6,8.6,0,0,0,38.23,69Zm-9.75-.4c-.81-.14-1.42.12-1.62.7a1.77,1.77,0,0,0,1.2,2.08,9.24,9.24,0,0,0,4.79.18,8.46,8.46,0,0,0-4.06-2.88Zm15.07-1.88a9.34,9.34,0,0,0,.23,4.79,1.77,1.77,0,0,0,2.09,1.18c.65-.23.88-1,.6-1.94A8.42,8.42,0,0,0,43.55,66.69ZM33.6,65.27c-.81-.14-1.42.12-1.62.7a1.76,1.76,0,0,0,1.2,2.08,8.79,8.79,0,0,0,4.37.25l.42-.07a8.6,8.6,0,0,0-4.06-2.89ZM39,62a1.14,1.14,0,0,0-1.25.49,1.76,1.76,0,0,0,.74,2.28,8.82,8.82,0,0,0,4.27,1.16l.37,0a8.49,8.49,0,0,0-3.36-3.67A3,3,0,0,0,39,62Z"/><path class="cls-5" d="M29.42,46.45C42,45.57,49.7,55.21,49.7,55.21S43.37,65.84,30.84,66.72,4.31,58.4,4.31,58.4,16.88,47.33,29.42,46.45"/><path class="cls-6" d="M39.83,52.46a27.23,27.23,0,0,0-2.67-1.82,14.08,14.08,0,0,0-2-1,6.78,6.78,0,0,0-.76-.26,16.87,16.87,0,0,1,2.35,1.75c.68.58,1.47,1.3,2.34,2.12l1.35,1.28.34.32c-2.7.21-5.29.44-7.74.66l0,0A23.34,23.34,0,0,0,26.6,51a13.55,13.55,0,0,0-2.27-.79,8.22,8.22,0,0,0-.86-.15l.8.34a17.62,17.62,0,0,1,2,1.16,40.84,40.84,0,0,1,5.11,4.19c-2.81.27-5.4.53-7.7.78l-.1-.09-.55-.53c-.38-.34-.74-.66-1.1-.95a14.22,14.22,0,0,0-2-1.39,8.62,8.62,0,0,0-1.51-.67,4.84,4.84,0,0,0-.59-.14l.55.23a11.15,11.15,0,0,1,1.38.85,22.41,22.41,0,0,1,1.85,1.53q.49.47,1,1l.27.26c-6.28.7-10.2,1.23-10.2,1.23s4,0,10.27-.2l-.23.3c-.3.39-.59.77-.88,1.11a18.69,18.69,0,0,1-1.61,1.78,10.14,10.14,0,0,1-1.25,1l-.51.31a5.31,5.31,0,0,0,.56-.22A8.27,8.27,0,0,0,20.45,61a13.89,13.89,0,0,0,1.81-1.66c.32-.34.64-.7.95-1.09l.48-.6.09-.11c2.31-.07,4.91-.17,7.73-.3A39.17,39.17,0,0,1,27,62.14a16.12,16.12,0,0,1-1.83,1.43l-.74.46s.3-.08.83-.28a12.49,12.49,0,0,0,2.13-1.1,23,23,0,0,0,5.73-5.4l.05,0c2.45-.12,5-.26,7.75-.43l-.29.37L39.5,58.6c-.74.93-1.43,1.75-2,2.42a15.75,15.75,0,0,1-2.08,2.06,5.67,5.67,0,0,0,.71-.36,12.94,12.94,0,0,0,1.81-1.23,27.18,27.18,0,0,0,2.39-2.17c.42-.44.86-.9,1.29-1.4l1.09-1.26L45,56.51c1.63-.12,3-.26,4.14-.41.39-.55.59-.89.59-.89s-.25-.31-.71-.79c-1.14,0-2.52.06-4.15.17l-2.29.17c-.42-.38-.84-.74-1.25-1.1s-1-.83-1.47-1.2"/><path class="cls-5" d="M10.72,38.29a9.94,9.94,0,0,1,4.63,7.26,9.94,9.94,0,0,1-8.6-.41C2.51,42.69,0,36.66,0,36.66s6.48-.83,10.72,1.63"/><path class="cls-6" d="M12.77,42.5a9.78,9.78,0,0,0-.47-1.17,4.49,4.49,0,0,0-.42-.74,1.65,1.65,0,0,0-.19-.25,6.18,6.18,0,0,1,.38,1.08c.09.34.19.74.29,1.2.05.22.1.46.16.71a1.36,1.36,0,0,0,0,.17L9.91,42v0a9,9,0,0,0-1.09-2.87,4.81,4.81,0,0,0-.56-.75c-.15-.16-.24-.24-.24-.24l.18.28a8,8,0,0,1,.4.82,15.86,15.86,0,0,1,.74,2.47c-1-.53-1.86-1-2.66-1.43v-.05c0-.1,0-.2-.07-.29a4,4,0,0,0-.15-.55,5.2,5.2,0,0,0-.34-.89A3.13,3.13,0,0,0,5.76,38l-.16-.18.13.2a4.29,4.29,0,0,1,.26.58,7.79,7.79,0,0,1,.26.9q.06.25.12.54l0,.14C4.22,39,2.83,38.3,2.83,38.3s1.29.86,3.37,2.18l-.14.05-.53.16a7.36,7.36,0,0,1-.91.22A3.34,3.34,0,0,1,4,41H3.76A1.16,1.16,0,0,0,4,41a3,3,0,0,0,.64,0,6.24,6.24,0,0,0,1-.14l.55-.15.28-.09h.06c.76.48,1.62,1,2.56,1.59a15.93,15.93,0,0,1-2.51.59,5.53,5.53,0,0,1-.91.06H5.28L5.6,43a4.82,4.82,0,0,0,.93.11,9.2,9.2,0,0,0,3-.49h0l2.6,1.56-.17,0-.7.22c-.44.14-.84.26-1.18.34A6.61,6.61,0,0,1,9,45a1.44,1.44,0,0,0,.31,0,4.73,4.73,0,0,0,.85,0,11.59,11.59,0,0,0,1.24-.18c.24,0,.48-.1.73-.17l.62-.17.77.45c.55.32,1,.58,1.43.77l.38-.15s0-.16,0-.41c-.37-.25-.83-.54-1.38-.86l-.77-.44c-.06-.21-.12-.43-.17-.63s-.14-.48-.21-.71"/><path class="cls-5" d="M283.26,21.7c5.19-.93,3.33-6.31-1.08-6-3.85.22-7.86,3.21-8.81,4A55.86,55.86,0,0,0,276,12.82c.92-1.09,3.69-4.66,4-9,.31-5.26-5.36-4.72-6.14-.38-.62,3.42.9,7.48,1.58,9.06a49.11,49.11,0,0,1-2,5.21c-.15-2-.67-5.6-2.42-8-2.58-3.58-7.93-1.63-5.38,3A16.33,16.33,0,0,0,272.88,19a82.92,82.92,0,0,1-3.83,7.39c-.14-2-.64-5.67-2.43-8.15-2.57-3.58-7.92-1.63-5.38,3a16.28,16.28,0,0,0,7.13,6.31,81.68,81.68,0,0,1-5,7.34c-.07-1.75-.45-6-2.46-8.83-2.58-3.58-7.93-1.63-5.39,3a16.5,16.5,0,0,0,7.4,6.43A64.16,64.16,0,0,1,256,43c0-1.24-.23-6.21-2.47-9.32-2.58-3.58-7.93-1.63-5.38,3,2.23,4.06,6.62,6.11,7.64,6.54a48.65,48.65,0,0,1-8.58,6.31c0-.88-.12-6.2-2.47-9.48-2.58-3.58-7.93-1.63-5.39,3,2.31,4.18,6.9,6.23,7.73,6.58a39.55,39.55,0,0,1-6.12,2.82.34.34,0,0,0-.2.43.32.32,0,0,0,.32.22l.1,0a39.47,39.47,0,0,0,6.11-2.81,16.45,16.45,0,0,0,8.06,5.68c5.08,1.35,5.69-4.31,1.59-5.95-2.86-1.14-6.56-.73-8.53-.38A49.51,49.51,0,0,0,255.82,44a16.42,16.42,0,0,0,9,3.84c5.26.27,4.67-5.4.32-6.14-3-.52-6.44.61-8.33,1.36a65.24,65.24,0,0,0,6.74-7.4c.75.67,4.56,3.8,9.26,4,5.26.27,4.67-5.4.32-6.15-3.67-.63-8.07,1.22-9.34,1.81,1.15-1.49,2.2-3,3.13-4.34.67-1,1.31-2,1.91-3,.82.71,4.59,3.78,9.24,4,5.25.27,4.66-5.4.32-6.14-3.65-.63-8,1.18-9.32,1.79v-.06a82.59,82.59,0,0,0,4.17-7.82c.72.39,5.24,2.72,10,1.86"/><path class="cls-5" d="M270.15,76.58c2.81-.12,2.48,2.9.15,3.28a9.7,9.7,0,0,1-5.05-1,29.67,29.67,0,0,1,2.18,3.23,8.86,8.86,0,0,1,3.11,4.24c.79,2.7-2.23,3.09-3.15.92a9.38,9.38,0,0,1-.24-4.91c-.38-.66-.93-1.51-1.63-2.48a9,9,0,0,1-.31,4.47c-.93,2.17-3.94,1.78-3.16-.92a8.8,8.8,0,0,1,3-4.16c-.8-1-1.76-2.21-2.87-3.4a8.9,8.9,0,0,1-.3,4.53c-.92,2.17-3.94,1.78-3.16-.92a8.74,8.74,0,0,1,3-4.12,41.65,41.65,0,0,0-3.46-3.23A9.39,9.39,0,0,1,258,77c-.92,2.17-3.93,1.78-3.15-.92a8.84,8.84,0,0,1,3.09-4.22,34.66,34.66,0,0,0-4.51-3.12,9.71,9.71,0,0,1-.19,5.14c-.92,2.17-3.94,1.79-3.16-.92a8.84,8.84,0,0,1,3.22-4.3,26.3,26.3,0,0,0-5.21-2.28,10,10,0,0,1-.18,5.23c-.92,2.17-3.94,1.78-3.15-.92A8.84,8.84,0,0,1,248,66.32a20.81,20.81,0,0,0-3.52-.76.18.18,0,0,1-.16-.19.19.19,0,0,1,.15-.16h.05A21.24,21.24,0,0,1,248,66a8.78,8.78,0,0,1,3.53-3.91c2.49-1.3,3.47,1.58,1.53,2.91a9,9,0,0,1-4.4,1.2,27.67,27.67,0,0,1,4.53,2,8.77,8.77,0,0,1,4.26-3.06c2.7-.76,3.06,2.26.89,3.16a9,9,0,0,1-4.5.27,36.69,36.69,0,0,1,4.38,3.06,8.88,8.88,0,0,1,4.35-3.19c2.7-.75,3.06,2.27.89,3.17a9.65,9.65,0,0,1-5.09.15c.78.65,1.5,1.28,2.15,1.9.46.44.91.89,1.35,1.33a8.87,8.87,0,0,1,4.33-3.17c2.71-.76,3.07,2.26.89,3.16a9.57,9.57,0,0,1-5.06.16v0a45.76,45.76,0,0,1,3.09,3.59,8.91,8.91,0,0,1,5-2.15"/><path class="cls-5" d="M267.17,87.31a9.59,9.59,0,0,1-.28-5c-.27-.49-.62-1-1-1.62a8.24,8.24,0,0,1-.44,3.66,2.25,2.25,0,0,1-2.7,1.45c-.69-.25-1.34-1.06-.91-2.53a8.76,8.76,0,0,1,2.91-4.14c-.68-.89-1.42-1.77-2.19-2.63a8.49,8.49,0,0,1-.42,3.9,2.25,2.25,0,0,1-2.7,1.45c-.69-.25-1.34-1.06-.91-2.54a8.83,8.83,0,0,1,2.84-4.07c-.89-.92-1.82-1.8-2.76-2.61a9,9,0,0,1-.36,4.38,2.26,2.26,0,0,1-2.71,1.45c-.68-.25-1.33-1.06-.91-2.53a8.83,8.83,0,0,1,2.94-4.16,34.47,34.47,0,0,0-3.78-2.64,9.28,9.28,0,0,1-.31,4.76,2.24,2.24,0,0,1-2.7,1.45c-.69-.25-1.34-1.06-.91-2.53a8.82,8.82,0,0,1,3-4.21,25.65,25.65,0,0,0-4.44-2,9.65,9.65,0,0,1-.27,5,2.26,2.26,0,0,1-2.71,1.45c-.68-.25-1.33-1.06-.91-2.54a8.81,8.81,0,0,1,3-4.16,19.48,19.48,0,0,0-3-.61.44.44,0,0,1-.37-.47.42.42,0,0,1,.35-.37h.12a21.49,21.49,0,0,1,3.35.7,9,9,0,0,1,3.55-3.83c1.36-.72,2.28-.24,2.66.38a2.25,2.25,0,0,1-.88,2.94,8.09,8.09,0,0,1-3.41,1.15,29.33,29.33,0,0,1,3.34,1.55,8.81,8.81,0,0,1,4.25-3c1.48-.42,2.29.24,2.52.93a2.25,2.25,0,0,1-1.47,2.69,8,8,0,0,1-3.52.41,36.56,36.56,0,0,1,3.26,2.35,9,9,0,0,1,4.33-3.08c1.49-.42,2.29.24,2.52.93a2.25,2.25,0,0,1-1.47,2.69,9,9,0,0,1-4.33.33c.5.43,1,.87,1.46,1.32s.79.76,1.16,1.14a9.08,9.08,0,0,1,4.3-3c1.48-.42,2.28.25,2.52.94a2.25,2.25,0,0,1-1.47,2.69,9.1,9.1,0,0,1-4.5.3c.87.94,1.7,1.91,2.47,2.9a9,9,0,0,1,4.94-2h0c1.54-.07,2.17.75,2.25,1.48a2.24,2.24,0,0,1-2,2.28h0a8.79,8.79,0,0,1-4.35-.68,26.38,26.38,0,0,1,1.62,2.48,9,9,0,0,1,3.17,4.33c.43,1.48-.22,2.29-.91,2.53a1.34,1.34,0,0,1-.27.07A2.29,2.29,0,0,1,267.17,87.31Zm.22-5a9.2,9.2,0,0,0,.22,4.76,1.78,1.78,0,0,0,2.09,1.19c.66-.24.89-1,.61-1.94a8.58,8.58,0,0,0-2.92-4Zm-5.11,1.09c-.27,1,0,1.71.61,1.94A1.77,1.77,0,0,0,265,84.21a8.78,8.78,0,0,0,.3-4.35l-.07-.44A8.49,8.49,0,0,0,262.28,83.45Zm-.42-8a8.45,8.45,0,0,0-2.88,4c-.28,1-.05,1.7.6,1.94a1.77,1.77,0,0,0,2.09-1.18,8.73,8.73,0,0,0,.29-4.4l-.06-.39Zm3.7,3.21a9.22,9.22,0,0,0,4.7.91h0a1.75,1.75,0,0,0,1.61-1.75c-.07-.69-.73-1.09-1.74-1.05h0A8.49,8.49,0,0,0,265.56,78.71Zm-10.48-2.6c-.28,1-.05,1.71.61,1.94a1.77,1.77,0,0,0,2.09-1.18,9.29,9.29,0,0,0,.23-4.75v0A8.67,8.67,0,0,0,255.08,76.11ZM266.31,72a8.52,8.52,0,0,0-4.05,2.88,9.18,9.18,0,0,0,4.78-.17,1.76,1.76,0,0,0,1.2-2.08c-.2-.59-.81-.84-1.62-.7Zm-16,1c-.28,1,0,1.71.6,1.94A1.76,1.76,0,0,0,253,73.75a9.31,9.31,0,0,0,.23-4.78A8.47,8.47,0,0,0,250.32,73Zm12.35-4.34a8.47,8.47,0,0,0-4.05,2.88,9.2,9.2,0,0,0,4.78-.18,1.76,1.76,0,0,0,1.2-2.08c-.2-.58-.81-.84-1.62-.7ZM245,70.72c-.28,1-.05,1.71.61,1.94a1.77,1.77,0,0,0,2.09-1.18,9.32,9.32,0,0,0,.22-4.79A8.48,8.48,0,0,0,245,70.72Zm12.56-5.38a8.65,8.65,0,0,0-4.06,2.89l.43.07a8.75,8.75,0,0,0,4.36-.25,1.76,1.76,0,0,0,1.2-2.08c-.2-.58-.81-.84-1.62-.7Zm-5.87-3.07a8.49,8.49,0,0,0-3.36,3.67l.37,0A8.76,8.76,0,0,0,253,64.76a1.75,1.75,0,0,0,.74-2.28,1.13,1.13,0,0,0-1.25-.49A3,3,0,0,0,251.68,62.27Z"/><path class="cls-5" d="M262.05,46.45c-12.53-.88-20.29,8.76-20.29,8.76s6.33,10.63,18.87,11.51,26.52-8.32,26.52-8.32-12.57-11.07-25.1-11.95"/><path class="cls-6" d="M251.64,52.46a26.08,26.08,0,0,1,2.67-1.82,13.55,13.55,0,0,1,2-1,7.19,7.19,0,0,1,.75-.26,17.22,17.22,0,0,0-2.34,1.75c-.69.58-1.48,1.3-2.34,2.12L251,54.57l-.34.32c2.7.21,5.29.44,7.74.66l.05,0A23.37,23.37,0,0,1,264.87,51a13.2,13.2,0,0,1,2.26-.79A8.22,8.22,0,0,1,268,50l-.79.34a16.81,16.81,0,0,0-2,1.16,40.14,40.14,0,0,0-5.12,4.19c2.82.27,5.4.53,7.7.78l.11-.09.55-.53c.37-.34.73-.66,1.1-.95a14.76,14.76,0,0,1,2-1.39,9,9,0,0,1,1.52-.67,4.39,4.39,0,0,1,.59-.14l-.55.23a11.13,11.13,0,0,0-1.39.85,20.86,20.86,0,0,0-1.84,1.53c-.34.31-.68.64-1,1l-.27.26c6.28.7,10.21,1.23,10.21,1.23s-4,0-10.28-.2l.23.3c.3.39.59.77.88,1.11a20.14,20.14,0,0,0,1.61,1.78,11,11,0,0,0,1.25,1l.51.31a5.31,5.31,0,0,1-.56-.22A8.27,8.27,0,0,1,271,61a13.89,13.89,0,0,1-1.81-1.66c-.31-.34-.63-.7-.95-1.09-.16-.2-.31-.4-.48-.6l-.08-.11c-2.32-.07-4.92-.17-7.74-.3a40,40,0,0,0,4.48,4.86,16.07,16.07,0,0,0,1.84,1.43L267,64s-.29-.08-.82-.28a12.49,12.49,0,0,1-2.13-1.1,22.88,22.88,0,0,1-5.74-5.4l0,0c-2.46-.12-5.06-.26-7.76-.43l.29.37L252,58.6c.75.93,1.43,1.75,2,2.42a16.14,16.14,0,0,0,2.07,2.06,5.67,5.67,0,0,1-.71-.36,13,13,0,0,1-1.8-1.23,24.6,24.6,0,0,1-2.39-2.17c-.43-.44-.86-.9-1.3-1.4l-1.08-1.26-2.29-.15c-1.63-.12-3-.26-4.13-.41-.39-.55-.6-.89-.6-.89s.25-.31.72-.79c1.14,0,2.52.06,4.15.17l2.28.17,1.25-1.1c.5-.43,1-.83,1.48-1.2"/><path class="cls-5" d="M280.75,38.29a10,10,0,0,0-4.64,7.26,10,10,0,0,0,8.61-.41c4.24-2.45,6.74-8.48,6.74-8.48s-6.47-.83-10.71,1.63"/><path class="cls-6" d="M278.7,42.5a12,12,0,0,1,.46-1.17,6.66,6.66,0,0,1,.42-.74c.12-.17.19-.25.19-.25a6.84,6.84,0,0,0-.37,1.08q-.15.51-.3,1.2c-.05.22-.1.46-.15.71a.85.85,0,0,0,0,.17c.91-.52,1.8-1,2.64-1.47v0a9,9,0,0,1,1.08-2.87,4.81,4.81,0,0,1,.56-.75l.24-.24-.18.28a8,8,0,0,0-.4.82,16,16,0,0,0-.73,2.47c1-.53,1.86-1,2.66-1.43v-.05l.06-.29c.05-.2.09-.38.15-.55a5.16,5.16,0,0,1,.35-.89,3.19,3.19,0,0,1,.34-.55l.16-.18-.13.2a4.29,4.29,0,0,0-.26.58,7.79,7.79,0,0,0-.26.9c0,.17-.08.35-.11.54l0,.14c2.18-1.15,3.56-1.83,3.56-1.83s-1.28.86-3.36,2.18l.14.05.52.16a7.36,7.36,0,0,0,.91.22,3.41,3.41,0,0,0,.63.06h.24a1.16,1.16,0,0,1-.23,0,3.05,3.05,0,0,1-.65,0,6.42,6.42,0,0,1-.95-.14c-.17,0-.36-.09-.54-.15l-.29-.09H285l-2.56,1.59a15.59,15.59,0,0,0,2.5.59,5.53,5.53,0,0,0,.91.06h.34l-.33.09a4.62,4.62,0,0,1-.93.11,9.24,9.24,0,0,1-3-.49h0c-.81.5-1.68,1-2.59,1.56l.17,0,.69.22c.45.14.85.26,1.19.34a6.61,6.61,0,0,0,1.12.21,1.61,1.61,0,0,1-.31,0,4.73,4.73,0,0,1-.85,0,11.74,11.74,0,0,1-1.25-.18c-.23,0-.47-.1-.72-.17l-.63-.17-.77.45c-.55.32-1,.58-1.43.77l-.38-.15a3.4,3.4,0,0,1,.06-.41c.37-.25.82-.54,1.38-.86l.77-.44c.05-.21.11-.43.16-.63s.14-.48.22-.71"/><rect class="cls-7" x="39.05" y="19.95" width="213.36" height="62.49" rx="10.09"/></g></g></svg>