<svg xmlns="http://www.w3.org/2000/svg" xmlns:xlink="http://www.w3.org/1999/xlink" viewBox="0 0 434.89 226.96"><defs><style>.cls-1,.cls-12,.cls-13,.cls-14,.cls-15,.cls-47{fill:none;}.cls-2{isolation:isolate;}.cls-3{clip-path:url(#clip-path);}.cls-4{clip-path:url(#clip-path-2);}.cls-5{mix-blend-mode:multiply;}.cls-6{clip-path:url(#clip-path-3);}.cls-7{clip-path:url(#clip-path-4);}.cls-8{fill:url(#Degradado_sin_nombre_1016);}.cls-9{fill:#198680;}.cls-10{fill:#b4dff1;}.cls-11{fill:#74b9a1;}.cls-12,.cls-13,.cls-14,.cls-15{stroke:#fff;}.cls-12,.cls-13,.cls-14,.cls-15,.cls-47{stroke-miterlimit:10;}.cls-12{stroke-width:1.11px;}.cls-13,.cls-14{stroke-linecap:round;}.cls-13{stroke-width:0.7px;}.cls-14{stroke-width:0.76px;}.cls-15{stroke-width:1.01px;}.cls-16{clip-path:url(#clip-path-5);}.cls-17{fill:#32324c;opacity:0.1;}.cls-18{fill:#fff;}.cls-19{fill:#264a99;}.cls-20{fill:#6f81a6;}.cls-21{fill:#591914;}.cls-22{fill:#f2b90c;}.cls-23{fill:#f8b498;}.cls-24{fill:#ee66b2;}.cls-25{fill:#3859b6;}.cls-26{fill:#fff7cf;}.cls-27{fill:#f7ac92;}.cls-28{fill:#464f7c;}.cls-29{fill:#5d69a5;}.cls-30{fill:#3f1817;}.cls-31{fill:#db7e68;}.cls-32{fill:#702c2b;}.cls-33{fill:#b65f2e;}.cls-34{fill:#f7931e;}.cls-35{fill:#b96e16;}.cls-36{fill:#f8e000;}.cls-37{fill:#d6e9fa;}.cls-38{fill:#99c8f2;}.cls-39{fill:#f1a289;}.cls-40{fill:#220d58;}.cls-41{fill:#ef6901;}.cls-42{fill:#2d1175;}.cls-43{fill:#53617d;}.cls-44{fill:#b9cbf0;}.cls-45{fill:#ad7435;}.cls-46{fill:#825728;}.cls-47{stroke:#00953b;stroke-width:0.8px;}</style><clipPath id="clip-path"><rect class="cls-1" x="600.49" y="-312.67" width="265.36" height="284.21"/></clipPath><clipPath id="clip-path-2"><rect class="cls-1" x="510.28" y="21.96" width="10.37" height="26.15" transform="matrix(0.74, -0.67, 0.67, 0.74, 110.73, 356.16)"/></clipPath><clipPath id="clip-path-3"><rect class="cls-1" x="434.78" y="-43.86" width="170.72" height="162.69"/></clipPath><clipPath id="clip-path-4"><path class="cls-1" d="M529.87,47.72c-46.83,44.56-89.16,76.11-94.53,70.45s28.22-46.35,75.06-90.92,89.15-76.11,94.53-70.46S576.7,3.16,529.87,47.72"/></clipPath><radialGradient id="Degradado_sin_nombre_1016" cx="-2548.24" cy="-1271.04" r="1" gradientTransform="matrix(0, 14.12, -117.05, 0.02, -148251.15, 36049.85)" gradientUnits="userSpaceOnUse"><stop offset="0" stop-color="#6a613f"/><stop offset="0.22" stop-color="#99937b"/><stop offset="0.45" stop-color="#c4c1b4"/><stop offset="0.65" stop-color="#e4e3dd"/><stop offset="0.81" stop-color="#f8f7f6"/><stop offset="0.9" stop-color="#fff"/><stop offset="1" stop-color="#fff"/></radialGradient><clipPath id="clip-path-5"><path class="cls-1" d="M306.14,200.46c37-23.45,58.21-59.23,67-94.2,4.87-19.37,6.53-40.06-5.26-57.95-13.91-21.1-44.81-35-77.17-41.2C238.88-2.83,171.64-4.15,124.19,15,81.72,32.06,51.53,63,44.52,96.57c-8.76,42,17.85,81.73,66.15,106.71a213.34,213.34,0,0,0,119.5,22.51C260.66,222.52,285.79,213.35,306.14,200.46Z"/></clipPath></defs><g class="cls-2"><g id="Capa_1" data-name="Capa 1"><g class="cls-3"><g class="cls-4"><g class="cls-5"><g class="cls-6"><g class="cls-7"><rect class="cls-8" x="395.29" y="-87.22" width="249.69" height="249.42" transform="translate(117.44 368.82) rotate(-43.57)"/></g></g></g></g></g><path class="cls-9" d="M23.09,137.76c-4.85,2.42-6.63-3.17-2.83-5.66,3.32-2.18,8.47-2.18,9.71-2.14a55.1,55.1,0,0,1-6.35-4c-1.43-.32-5.91-1.58-8.81-5-3.49-4.15,1.53-7.18,4.84-4.08,2.61,2.44,3.85,6.73,4.26,8.45a51.46,51.46,0,0,0,4.81,3.11c-1.12-1.77-2.89-5-2.94-8.13-.07-4.54,5.54-6.21,6.27-.84A16.82,16.82,0,0,1,30,129.14a84.44,84.44,0,0,0,7.7,3.75c-1.12-1.75-2.95-5.07-3-8.22-.07-4.54,5.55-6.21,6.28-.84a16.78,16.78,0,0,1-2,9.59,83.18,83.18,0,0,0,8.64,3c-1-1.48-3.33-5.26-3.39-8.8-.07-4.54,5.55-6.21,6.28-.84.6,4.41-1.42,8.52-2.16,9.85a66,66,0,0,0,10.39,2c-.75-1-3.62-5.26-3.68-9.21-.07-4.55,5.55-6.22,6.28-.85.64,4.73-1.72,9.11-2.3,10.1a50.22,50.22,0,0,0,11-.06c-.54-.72-3.71-5.19-3.78-9.35-.07-4.54,5.55-6.21,6.28-.84.66,4.87-1.88,9.39-2.35,10.18a41.35,41.35,0,0,0,6.8-1.43.34.34,0,0,1,.42.23.35.35,0,0,1-.13.39l-.1,0a41.33,41.33,0,0,1-6.76,1.43c0,1.44-.36,6.09-3.17,9.63-3.37,4.25-7.35-.06-5-3.93,1.66-2.7,5-4.63,6.81-5.55a51.63,51.63,0,0,1-9.55,0,16.89,16.89,0,0,1-5.11,8.71c-4.18,3.45-7.17-1.59-4-4.88,2.15-2.25,5.7-3.45,7.72-4a67.55,67.55,0,0,1-10.11-2c-.22,1-1.44,5.94-5.17,9-4.18,3.45-7.18-1.59-4-4.88,2.65-2.77,7.41-3.95,8.83-4.24-1.88-.53-3.64-1.09-5.25-1.67-1.17-.41-2.32-.85-3.43-1.3-.23,1.09-1.47,5.94-5.16,9-4.18,3.45-7.17-1.59-4-4.88,2.63-2.75,7.33-3.93,8.8-4.24l0,0a83.19,83.19,0,0,1-8.24-3.91c-.36.78-2.67,5.47-7.11,7.68"/><path class="cls-9" d="M59.85,188.15c-3.5,2.37-.38,5.72,2.77,4.1,2.75-1.42,4.73-4.93,5.18-5.78a43.6,43.6,0,0,0,.27,5.85,13.17,13.17,0,0,0,0,7.91c1.48,4,5.47,1.73,4.64-1.72-.66-2.71-3.1-5.2-4.11-6.13a41.42,41.42,0,0,1-.27-4.47,13.59,13.59,0,0,0,4.4,5.12c3.06,1.79,6.35-1.38,3-3.94a13.08,13.08,0,0,0-7.38-2.31c0-2,.14-4.25.41-6.68a13.57,13.57,0,0,0,4.44,5.19c3.05,1.79,6.35-1.38,3-3.94A13,13,0,0,0,68.9,179a63.4,63.4,0,0,1,1.29-7c.62,1.26,2.29,4.29,4.68,5.68,3.06,1.8,6.35-1.38,3-3.94a13.11,13.11,0,0,0-7.52-2.31A51.53,51.53,0,0,1,73,163.62c.42.91,2.19,4.49,4.85,6,3.06,1.8,6.36-1.38,3-3.94a13.27,13.27,0,0,0-7.74-2.31A39.14,39.14,0,0,1,77.31,156c.29.64,2.11,4.52,4.91,6.16,3,1.79,6.35-1.38,3-3.94a13.31,13.31,0,0,0-7.82-2.32A32,32,0,0,1,81,151.81a.27.27,0,0,0,0-.38.27.27,0,0,0-.31-.05.18.18,0,0,0-.07.05,32.27,32.27,0,0,0-3.57,4,13.24,13.24,0,0,0-7.76-1.54c-4.18.66-2.79,5,.76,4.88a13.59,13.59,0,0,0,6.39-2.49,40,40,0,0,0-3.67,6.49,13.22,13.22,0,0,0-7.88.12c-4,1.52-1.68,5.49,1.76,4.62a13.45,13.45,0,0,0,5.67-3.72,53.18,53.18,0,0,0-2.53,7.63,13.4,13.4,0,0,0-8.12,0c-4,1.52-1.67,5.49,1.76,4.62,2.91-.73,5.53-3.52,6.28-4.37-.36,1.48-.66,2.89-.89,4.21-.16.95-.31,1.9-.43,2.82a13.37,13.37,0,0,0-8.09.06c-3.94,1.52-1.67,5.49,1.77,4.62,2.88-.73,5.49-3.47,6.26-4.35l0,0a65.42,65.42,0,0,0-.52,7.11,13.33,13.33,0,0,0-7.95,1.88"/><path class="cls-9" d="M92.2,170c2-1,6.78.24,8.35,5.35-2.72-2-5.1-2.37-5.45-.84s1.72,1.12,3.38,1.89a4.41,4.41,0,0,1,2.65,2.69c.19.82-.46,4.23-1.47,6.45-.52-3-3.41-6.65-4.63-5.12s3.52,2.26,2.72,8.41a15.88,15.88,0,0,1-3,3.45s-1.49-5.92-3.22-4.62,1.74,3.2,1.25,6c-1.63.79-6,3.54-6,3.54l-4.16-5.55a8.47,8.47,0,0,1,2.74-3.51c1.72-1,.87-2.2-.27-1.91a6,6,0,0,0-3.52,3.57c-1-1.53-1.81-4.34-1.65-5.13s1.78-4.13,4.49-4.93c1-.3,1.28-.78,1.13-1.33s-.95-.66-2-.4a7.87,7.87,0,0,0-4,3.38,15.27,15.27,0,0,1,1-6.45c.44-.73,2.49-1.65,4.67-1.52.92.14,2.3.55,2.58-.39s-.44-1.18-2.08-1.51a5.4,5.4,0,0,0-3.35.33A8.07,8.07,0,0,1,87,168.79,6,6,0,0,1,92.2,170"/><path class="cls-10" d="M93.35,165.85l-.69-.13-1.31,6.48L79.42,180c0,.29,0,.58,0,.86l.82-.54A7.59,7.59,0,0,1,83.5,178l.35-.07,7.31-4.77L90.39,177l-10,6.57a4.78,4.78,0,0,0-.47,1.15h0l10.33-6.74-.79,3.91-8.9,5.81.27.67,8.44-5.5-.79,3.9-4.89,3.2a10.26,10.26,0,0,0-.8,1.37l5.49-3.59-.61,3-3.85,2.52.42.57,3.24-2.11-1,5.07.32.42.36-.23,1-5.2,2.4,3.12.62-.36-2.84-3.68.59-2.89,3.89,5a4.51,4.51,0,0,0-.52-1.83L89.09,187l.8-4L96,191c.16-.16.33-.34.49-.52l-6.44-8.33.8-4,7,9a8,8,0,0,0-.15-1.36l-6.63-8.59.76-3.82,8.34,10.8c.09-.27.18-.55.26-.83L92,172.53Z"/><path class="cls-9" d="M55.8,145.18c9.81-8.42,22.14-5.22,22.14-5.22s1.29,12.67-8.52,21.09-27,9.41-27,9.41S46,153.6,55.8,145.18"/><path class="cls-11" d="M68.09,143.76a25.81,25.81,0,0,0-3.32.13,15.29,15.29,0,0,0-2.21.4c-.51.15-.78.26-.78.26a16.93,16.93,0,0,1,3,0c.93.06,2,.17,3.24.32l1.91.22.47.06c-2.1,1.83-4.1,3.61-6,5.3h-.07a23.85,23.85,0,0,0-8.11.2,12.8,12.8,0,0,0-2.35.73c-.53.24-.81.4-.81.4l.87-.2a18.39,18.39,0,0,1,2.38-.28,41.37,41.37,0,0,1,6.79.32C61,153.56,59,155.36,57.25,157H57.1l-.78-.1c-.51-.05-1-.09-1.49-.11a14.15,14.15,0,0,0-2.52.1,8.51,8.51,0,0,0-1.67.37l-.57.24.6-.14a10.38,10.38,0,0,1,1.66-.15,21,21,0,0,1,2.47.14c.46,0,.94.11,1.45.18l.38.06C51.87,162,49,164.84,49,164.84s3.26-2.45,8.36-6.48v.39c0,.5,0,1,0,1.46a19.53,19.53,0,0,1-.24,2.45,9.25,9.25,0,0,1-.4,1.62c-.14.37-.23.58-.23.58s.13-.19.33-.54a8.21,8.21,0,0,0,.62-1.58,14.69,14.69,0,0,0,.48-2.49c.05-.47.09-1,.12-1.49,0-.25,0-.52,0-.78v-.15c1.86-1.48,4-3.15,6.2-5a40.79,40.79,0,0,1-.72,6.76,16.84,16.84,0,0,1-.63,2.31l-.33.83s.2-.25.51-.74a13.3,13.3,0,0,0,1.09-2.21,23.93,23.93,0,0,0,1.42-8s0-.05,0-.07c2-1.61,4-3.32,6.14-5.11,0,.15,0,.32,0,.47q0,1-.06,1.92c0,1.23-.1,2.33-.18,3.25a16.4,16.4,0,0,1-.46,3,5.8,5.8,0,0,0,.37-.73,13.26,13.26,0,0,0,.74-2.13,27.71,27.71,0,0,0,.64-3.26c.08-.62.15-1.27.21-1.94s.08-1.13.12-1.71l1.79-1.53c1.28-1.1,2.33-2.06,3.17-2.88,0-.69,0-1.1,0-1.1s-.4-.1-1.08-.21c-.94.7-2,1.59-3.32,2.69-.61.51-1.2,1-1.79,1.54l-1.7-.14c-.68-.05-1.33-.08-2-.08"/><path class="cls-9" d="M35.35,149.91a10.26,10.26,0,0,1,8.28,3.16A10.24,10.24,0,0,1,36.28,158c-5,.58-10.79-2.86-10.79-2.86s4.85-4.66,9.86-5.24"/><path class="cls-11" d="M39.63,152.14a9.84,9.84,0,0,0-1.11-.68,5.36,5.36,0,0,0-.8-.36l-.31-.08a5.79,5.79,0,0,1,1,.65c.29.22.62.5,1,.81l.57.49.14.12c-1.08.14-2.12.27-3.09.41l0,0a9.39,9.39,0,0,0-2.66-1.71,5.89,5.89,0,0,0-.93-.28l-.34,0,.32.12a7.56,7.56,0,0,1,.83.43,15.7,15.7,0,0,1,2.12,1.59l-3.07.45,0,0-.23-.2-.46-.36a6.41,6.41,0,0,0-.83-.52,3.07,3.07,0,0,0-.63-.24l-.23-.05.22.09a3.82,3.82,0,0,1,.57.31,9.12,9.12,0,0,1,.77.58l.43.38.11.1c-2.51.39-4.07.67-4.07.67s1.59-.07,4.12-.26l-.09.12c-.11.17-.22.32-.33.47a8.89,8.89,0,0,1-.62.74,3.85,3.85,0,0,1-.48.43l-.2.14.22-.1a4,4,0,0,0,.55-.38,5.12,5.12,0,0,0,.7-.7q.18-.21.36-.45l.18-.25,0-.05,3.1-.25a16.3,16.3,0,0,1-1.71,2,5.9,5.9,0,0,1-.71.61l-.29.2.33-.13a4.64,4.64,0,0,0,.83-.48A9.33,9.33,0,0,0,37,154.18v0l3.1-.31L40,154l-.44.6c-.28.39-.54.73-.76,1a6.17,6.17,0,0,1-.8.86,2.12,2.12,0,0,0,.28-.15,5.84,5.84,0,0,0,.7-.53,11.08,11.08,0,0,0,.92-.91c.16-.18.33-.38.49-.58l.42-.53.91-.1q1-.12,1.65-.24a3.48,3.48,0,0,0,.22-.36,4.13,4.13,0,0,0-.3-.31c-.45,0-1,.07-1.66.14l-.91.11-.52-.42-.61-.45"/><path class="cls-9" d="M42.29,181.3c3.9-5.86,10.82-6,10.82-6s2.55,6.44-1.35,12.3S39,196.52,39,196.52s-.61-9.36,3.29-15.22"/><path class="cls-11" d="M48.52,178.74a14,14,0,0,0-1.72.56,8.06,8.06,0,0,0-1.1.54,4.39,4.39,0,0,0-.38.25,8.59,8.59,0,0,1,1.58-.44c.49-.11,1.08-.21,1.74-.32l1-.16.26,0c-.83,1.27-1.62,2.49-2.35,3.66h0a13.41,13.41,0,0,0-4.22,1.3,6.33,6.33,0,0,0-1.12.74c-.24.2-.36.32-.36.32l.42-.23a10.27,10.27,0,0,1,1.21-.5,22.58,22.58,0,0,1,3.6-.83c-.84,1.33-1.61,2.57-2.28,3.68h-.08l-.42.07c-.28,0-.55.1-.8.16a8.82,8.82,0,0,0-1.31.42,5.68,5.68,0,0,0-.82.44l-.26.21.29-.16a6.56,6.56,0,0,1,.85-.32,12.36,12.36,0,0,1,1.31-.3l.79-.11.21,0c-1.84,3-2.95,4.94-2.95,4.94S43,190.84,45,188l0,.2.2.77a12.46,12.46,0,0,1,.23,1.33,6,6,0,0,1,0,.9c0,.21,0,.34,0,.34s0-.12.09-.33a4.88,4.88,0,0,0,.09-.92,7.15,7.15,0,0,0-.12-1.38c0-.25-.09-.52-.15-.79s-.07-.28-.11-.42l0-.07c.76-1.05,1.61-2.24,2.52-3.53a23.25,23.25,0,0,1,.62,3.64,9.66,9.66,0,0,1,0,1.31c0,.31,0,.48,0,.48s.06-.16.16-.46a8,8,0,0,0,.24-1.32,13.34,13.34,0,0,0-.43-4.39v0c.79-1.13,1.61-2.33,2.46-3.58l.06.25c.09.35.17.69.25,1,.16.65.29,1.24.39,1.73a9.06,9.06,0,0,1,.2,1.62,4.11,4.11,0,0,0,.08-.43,6.82,6.82,0,0,0,.07-1.23,14,14,0,0,0-.14-1.8q-.07-.51-.18-1.05c-.06-.29-.12-.6-.18-.91l.71-1.07c.5-.76.91-1.42,1.23-2-.11-.36-.19-.57-.19-.57l-.6,0c-.38.5-.83,1.14-1.34,1.9l-.7,1.07-.92.18c-.36.07-.71.15-1,.24"/><path class="cls-12" d="M21.62,104.21a2.92,2.92,0,1,1-3.88-1.45A2.92,2.92,0,0,1,21.62,104.21Z"/><path class="cls-12" d="M15.72,126.65a2.19,2.19,0,1,1-2.91-1.08A2.19,2.19,0,0,1,15.72,126.65Z"/><path class="cls-12" d="M2.42,109.93a1,1,0,1,1-1.3-.48A1,1,0,0,1,2.42,109.93Z"/><path class="cls-12" d="M36.52,169.42a1.47,1.47,0,1,1-1.94-.73A1.47,1.47,0,0,1,36.52,169.42Z"/><line class="cls-13" x1="33.86" y1="176.82" x2="35.21" y2="179.78"/><line class="cls-13" x1="36.53" y1="182.66" x2="37.88" y2="185.62"/><line class="cls-13" x1="40.27" y1="179.21" x2="37.31" y2="180.56"/><line class="cls-13" x1="34.43" y1="181.87" x2="31.47" y2="183.23"/><line class="cls-14" x1="36.61" y1="103.7" x2="38.09" y2="106.94"/><line class="cls-14" x1="39.53" y1="110.07" x2="41.01" y2="113.31"/><line class="cls-14" x1="43.61" y1="106.31" x2="40.38" y2="107.79"/><line class="cls-14" x1="37.24" y1="109.22" x2="34" y2="110.7"/><circle class="cls-15" cx="15.72" cy="150.04" r="3.64" transform="translate(-104.84 59.35) rotate(-47.07)"/><path class="cls-15" d="M55,203.06a3.94,3.94,0,1,1-5.22-1.94A3.93,3.93,0,0,1,55,203.06Z"/><path class="cls-9" d="M411.8,137.76c4.85,2.42,6.62-3.17,2.83-5.66-3.32-2.18-8.48-2.18-9.72-2.14a55.35,55.35,0,0,0,6.36-4,16.88,16.88,0,0,0,8.8-5c3.49-4.15-1.52-7.18-4.84-4.08-2.61,2.44-3.84,6.73-4.25,8.45a50.49,50.49,0,0,1-4.82,3.11c1.13-1.77,2.9-5,2.95-8.13.07-4.54-5.55-6.21-6.28-.84a16.81,16.81,0,0,0,2.07,9.69c-2.23,1.23-4.83,2.52-7.71,3.75,1.12-1.75,2.95-5.07,3-8.22.08-4.54-5.54-6.21-6.27-.84a16.79,16.79,0,0,0,2,9.59,82.19,82.19,0,0,1-8.63,3c1-1.48,3.33-5.26,3.38-8.8.08-4.54-5.54-6.21-6.27-.84a16.83,16.83,0,0,0,2.16,9.85,66.26,66.26,0,0,1-10.39,2c.74-1,3.61-5.26,3.67-9.21.08-4.55-5.54-6.22-6.27-.85-.64,4.73,1.72,9.11,2.3,10.1a50.22,50.22,0,0,1-11-.06c.54-.72,3.71-5.19,3.77-9.35.08-4.54-5.54-6.21-6.27-.84-.67,4.87,1.87,9.39,2.34,10.18a41.24,41.24,0,0,1-6.79-1.43.35.35,0,0,0-.43.23.37.37,0,0,0,.14.39l.09,0a41.67,41.67,0,0,0,6.77,1.43c0,1.44.36,6.09,3.17,9.63,3.37,4.25,7.35-.06,5-3.93-1.66-2.7-5-4.63-6.82-5.55a51.74,51.74,0,0,0,9.56,0,16.92,16.92,0,0,0,5.1,8.71c4.18,3.45,7.17-1.59,4-4.88-2.15-2.25-5.7-3.45-7.72-4a68.06,68.06,0,0,0,10.11-2c.21,1,1.43,5.94,5.17,9,4.18,3.45,7.17-1.59,4-4.88-2.65-2.77-7.41-3.95-8.83-4.24,1.87-.53,3.63-1.09,5.25-1.67,1.17-.41,2.31-.85,3.42-1.3.24,1.09,1.48,5.94,5.17,9,4.18,3.45,7.17-1.59,4-4.88-2.62-2.75-7.33-3.93-8.79-4.24l0,0a83.42,83.42,0,0,0,8.25-3.91c.35.78,2.66,5.47,7.11,7.68"/><path class="cls-9" d="M375,188.15c3.51,2.37.39,5.72-2.76,4.1-2.76-1.42-4.73-4.93-5.18-5.78a43.6,43.6,0,0,1-.27,5.85,13.27,13.27,0,0,1,0,7.91c-1.48,4-5.47,1.73-4.63-1.72.65-2.71,3.1-5.2,4.11-6.13a41.79,41.79,0,0,0,.26-4.47,13.47,13.47,0,0,1-4.39,5.12c-3.06,1.79-6.36-1.38-3-3.94a13.1,13.1,0,0,1,7.38-2.31c0-2-.14-4.25-.41-6.68a13.54,13.54,0,0,1-4.43,5.19c-3.06,1.79-6.35-1.38-3-3.94A13,13,0,0,1,366,179a63.3,63.3,0,0,0-1.28-7c-.62,1.26-2.3,4.29-4.68,5.68-3.06,1.8-6.36-1.38-3-3.94a13.13,13.13,0,0,1,7.52-2.31,50.45,50.45,0,0,0-2.64-7.83c-.41.91-2.19,4.49-4.85,6-3.06,1.8-6.35-1.38-3-3.94a13.25,13.25,0,0,1,7.74-2.31,38.65,38.65,0,0,0-4.25-7.43c-.28.64-2.1,4.52-4.9,6.16-3.06,1.79-6.35-1.38-3-3.94a13.31,13.31,0,0,1,7.82-2.32,31.92,31.92,0,0,0-3.57-4.07.26.26,0,0,1,0-.38.27.27,0,0,1,.31-.05l.07.05a33.09,33.09,0,0,1,3.57,4,13.2,13.2,0,0,1,7.76-1.54c4.18.66,2.78,5-.76,4.88a13.54,13.54,0,0,1-6.39-2.49,41.53,41.53,0,0,1,3.67,6.49,13.21,13.21,0,0,1,7.88.12c4,1.52,1.67,5.49-1.77,4.62a13.58,13.58,0,0,1-5.67-3.72,53.27,53.27,0,0,1,2.54,7.63,13.39,13.39,0,0,1,8.12,0c3.95,1.52,1.67,5.49-1.77,4.62-2.9-.73-5.53-3.52-6.27-4.37.36,1.48.65,2.89.88,4.21.17.95.31,1.9.43,2.82a13.38,13.38,0,0,1,8.09.06c3.95,1.52,1.67,5.49-1.76,4.62-2.88-.73-5.49-3.47-6.26-4.35l0,0a67.86,67.86,0,0,1,.51,7.11,13.33,13.33,0,0,1,7.95,1.88"/><path class="cls-9" d="M342.68,170c-2-1-6.78.24-8.34,5.35,2.71-2,5.1-2.37,5.45-.84s-1.72,1.12-3.38,1.89a4.43,4.43,0,0,0-2.66,2.69c-.18.82.46,4.23,1.47,6.45.53-3,3.42-6.65,4.63-5.12s-3.52,2.26-2.71,8.41a15.93,15.93,0,0,0,3,3.45s1.49-5.92,3.22-4.62-1.73,3.2-1.25,6c1.63.79,6,3.54,6,3.54l4.16-5.55a8.47,8.47,0,0,0-2.74-3.51c-1.72-1-.88-2.2.26-1.91a6,6,0,0,1,3.53,3.57c.94-1.53,1.81-4.34,1.65-5.13s-1.79-4.13-4.49-4.93c-1.06-.3-1.28-.78-1.14-1.33s.95-.66,2-.4a7.91,7.91,0,0,1,4.05,3.38,15.27,15.27,0,0,0-1-6.45c-.45-.73-2.49-1.65-4.67-1.52-.92.14-2.31.55-2.58-.39s.43-1.18,2.07-1.51a5.43,5.43,0,0,1,3.36.33,8.11,8.11,0,0,0-4.64-3.07,6,6,0,0,0-5.26,1.18"/><path class="cls-10" d="M341.53,165.85l.7-.13,1.3,6.48L355.46,180a8.26,8.26,0,0,1,0,.86l-.82-.54a7.57,7.57,0,0,0-3.26-2.29L351,178l-7.3-4.77.76,3.78,10.06,6.57a5.82,5.82,0,0,1,.47,1.15h0l-10.33-6.74.78,3.91,8.9,5.81c-.08.23-.17.45-.26.67l-8.44-5.5.79,3.9,4.89,3.2a10.26,10.26,0,0,1,.8,1.37l-5.5-3.59.61,3,3.86,2.52-.43.57-3.23-2.11,1,5.07-.32.42-.37-.23-1-5.2-2.41,3.12c-.21-.13-.41-.25-.62-.36l2.84-3.68L346,188l-3.89,5a4.36,4.36,0,0,1,.52-1.83l3.18-4.13-.79-4L338.87,191c-.16-.16-.33-.34-.49-.52l6.43-8.33-.8-4-7,9a8,8,0,0,1,.14-1.36l6.64-8.59-.77-3.82-8.33,10.8c-.1-.27-.19-.55-.27-.83l8.42-10.89Z"/><path class="cls-9" d="M379.08,145.18C369.27,136.76,357,140,357,140s-1.3,12.67,8.51,21.09,27,9.41,27,9.41-3.59-16.86-13.4-25.28"/><path class="cls-11" d="M366.79,143.76a26.05,26.05,0,0,1,3.33.13,15.56,15.56,0,0,1,2.21.4c.51.15.78.26.78.26a17,17,0,0,0-3,0c-.92.06-2,.17-3.23.32l-1.91.22-.48.06c2.1,1.83,4.11,3.61,6,5.3h.07a23.8,23.8,0,0,1,8.1.2,13,13,0,0,1,2.36.73c.53.24.8.4.8.4l-.87-.2a18.16,18.16,0,0,0-2.38-.28,41.37,41.37,0,0,0-6.79.32c2.16,1.95,4.13,3.75,5.88,5.37h.14l.78-.1c.52-.05,1-.09,1.49-.11a14.31,14.31,0,0,1,2.53.1,8.38,8.38,0,0,1,1.66.37l.58.24-.6-.14a10.38,10.38,0,0,0-1.66-.15,20.87,20.87,0,0,0-2.47.14c-.46,0-.95.11-1.45.18l-.39.06c4.77,4.42,7.68,7.28,7.68,7.28s-3.26-2.45-8.36-6.48v.39c0,.5,0,1,0,1.46a21.61,21.61,0,0,0,.24,2.45,10.25,10.25,0,0,0,.4,1.62l.23.58s-.12-.19-.32-.54a8.13,8.13,0,0,1-.63-1.58,14.76,14.76,0,0,1-.47-2.49c-.06-.47-.1-1-.12-1.49l0-.78v-.15c-1.87-1.48-4-3.15-6.2-5a40.92,40.92,0,0,0,.71,6.76,16.61,16.61,0,0,0,.64,2.31l.33.83s-.2-.25-.52-.74a12.64,12.64,0,0,1-1.08-2.21,23.91,23.91,0,0,1-1.43-8v-.07c-2-1.61-4-3.32-6.14-5.11,0,.15,0,.32,0,.47,0,.67,0,1.31.07,1.92,0,1.23.1,2.33.18,3.25a17.1,17.1,0,0,0,.45,3s-.15-.25-.37-.73a13.41,13.41,0,0,1-.73-2.13,25.8,25.8,0,0,1-.64-3.26c-.09-.62-.16-1.27-.22-1.94s-.08-1.13-.12-1.71l-1.79-1.53q-1.9-1.65-3.16-2.88c0-.69.05-1.1.05-1.1s.4-.1,1.08-.21c.93.7,2,1.59,3.32,2.69l1.78,1.54,1.71-.14c.67-.05,1.33-.08,2-.08"/><path class="cls-9" d="M399.54,149.91a10.27,10.27,0,0,0-8.29,3.16,10.25,10.25,0,0,0,7.36,4.94c5,.58,10.78-2.86,10.78-2.86s-4.84-4.66-9.85-5.24"/><path class="cls-11" d="M395.26,152.14a10.78,10.78,0,0,1,1.1-.68,5.39,5.39,0,0,1,.81-.36l.3-.08a6.32,6.32,0,0,0-1,.65c-.28.22-.61.5-1,.81L395,153l-.14.12,3.09.41,0,0a9.25,9.25,0,0,1,2.66-1.71,6.16,6.16,0,0,1,.92-.28l.35,0-.33.12a8.59,8.59,0,0,0-.83.43,16.36,16.36,0,0,0-2.12,1.59l3.07.45.05,0,.23-.2q.22-.2.45-.36a6.46,6.46,0,0,1,.84-.52,3,3,0,0,1,.62-.24l.24-.05-.23.09a3.82,3.82,0,0,0-.57.31,9.12,9.12,0,0,0-.76.58l-.43.38-.11.1c2.5.39,4.07.67,4.07.67s-1.59-.07-4.12-.26l.09.12c.11.17.22.32.33.47a7.31,7.31,0,0,0,.61.74,3.23,3.23,0,0,0,.49.43l.2.14-.23-.1a4,4,0,0,1-.54-.38,5.12,5.12,0,0,1-.7-.7q-.18-.21-.36-.45l-.18-.25,0-.05-3.09-.25a15.48,15.48,0,0,0,1.71,2,5.9,5.9,0,0,0,.71.61l.29.2-.33-.13a4.66,4.66,0,0,1-.84-.48,9.5,9.5,0,0,1-2.2-2.26l0,0-3.1-.31.11.15.44.6c.28.39.54.73.77,1a6.17,6.17,0,0,0,.8.86,1.56,1.56,0,0,1-.28-.15,5.13,5.13,0,0,1-.7-.53,9.73,9.73,0,0,1-.92-.91c-.17-.18-.33-.38-.5-.58l-.41-.53-.91-.1c-.66-.08-1.2-.16-1.65-.24-.15-.22-.23-.36-.23-.36l.3-.31c.46,0,1,.07,1.66.14l.92.11.52-.42.61-.45"/><path class="cls-9" d="M392.6,181.3c-3.9-5.86-10.83-6-10.83-6s-2.54,6.44,1.35,12.3,12.76,8.92,12.76,8.92.61-9.36-3.28-15.22"/><path class="cls-11" d="M386.37,178.74a14.54,14.54,0,0,1,1.72.56,8.7,8.7,0,0,1,1.1.54,3.23,3.23,0,0,1,.37.25,8.62,8.62,0,0,0-1.57-.44c-.5-.11-1.09-.21-1.75-.32l-1-.16-.26,0q1.24,1.91,2.36,3.66h0a13.26,13.26,0,0,1,4.21,1.3,6.33,6.33,0,0,1,1.12.74c.25.2.37.32.37.32l-.43-.23a9.33,9.33,0,0,0-1.2-.5,22.47,22.47,0,0,0-3.61-.83c.85,1.33,1.61,2.57,2.29,3.68h.08l.42.07c.28,0,.54.1.79.16a9,9,0,0,1,1.32.42,5.47,5.47,0,0,1,.81.44l.27.21-.3-.16a6,6,0,0,0-.85-.32,11.81,11.81,0,0,0-1.31-.3l-.78-.11-.21,0c1.84,3,2.94,4.94,2.94,4.94s-1.35-1.76-3.42-4.62l-.06.2c-.07.27-.14.53-.19.77a10.56,10.56,0,0,0-.24,1.33,6,6,0,0,0,0,.9c0,.21,0,.34,0,.34s0-.12-.09-.33a4.74,4.74,0,0,1-.1-.92,9.2,9.2,0,0,1,.12-1.38c0-.25.1-.52.16-.79s.07-.28.1-.42l0-.07c-.76-1.05-1.6-2.24-2.51-3.53a21.11,21.11,0,0,0-.62,3.64,8.25,8.25,0,0,0,0,1.31c0,.31.05.48.05.48a4.48,4.48,0,0,1-.16-.46,7,7,0,0,1-.24-1.32,12.82,12.82,0,0,1,.43-4.39v0c-.79-1.13-1.62-2.33-2.47-3.58L384,180c-.08.35-.17.69-.25,1-.16.65-.29,1.24-.38,1.73a9.06,9.06,0,0,0-.2,1.62,2.72,2.72,0,0,1-.09-.43,6.82,6.82,0,0,1-.07-1.23,14.18,14.18,0,0,1,.15-1.8c0-.34.1-.69.17-1.05s.13-.6.19-.91c-.24-.35-.47-.71-.71-1.07-.51-.76-.92-1.42-1.23-2,.1-.36.18-.57.18-.57l.6,0c.39.5.84,1.14,1.34,1.9.24.36.48.71.71,1.07l.91.18c.37.07.71.15,1,.24"/><path class="cls-12" d="M413.26,104.21a2.93,2.93,0,1,0,3.88-1.45A2.93,2.93,0,0,0,413.26,104.21Z"/><path class="cls-12" d="M419.16,126.65a2.2,2.2,0,1,0,2.91-1.08A2.19,2.19,0,0,0,419.16,126.65Z"/><path class="cls-12" d="M432.47,109.93a1,1,0,1,0,1.29-.48A1,1,0,0,0,432.47,109.93Z"/><path class="cls-12" d="M398.37,169.42a1.46,1.46,0,1,0,1.94-.73A1.47,1.47,0,0,0,398.37,169.42Z"/><line class="cls-13" x1="401.03" y1="176.82" x2="399.67" y2="179.78"/><line class="cls-13" x1="398.36" y1="182.66" x2="397" y2="185.62"/><line class="cls-13" x1="394.61" y1="179.21" x2="397.58" y2="180.56"/><line class="cls-13" x1="400.45" y1="181.87" x2="403.41" y2="183.23"/><line class="cls-14" x1="398.27" y1="103.7" x2="396.79" y2="106.94"/><line class="cls-14" x1="395.36" y1="110.07" x2="393.88" y2="113.31"/><line class="cls-14" x1="391.27" y1="106.31" x2="394.51" y2="107.79"/><line class="cls-14" x1="397.65" y1="109.22" x2="400.88" y2="110.7"/><circle class="cls-15" cx="419.17" cy="150.04" r="3.64" transform="translate(10.08 325.7) rotate(-42.93)"/><path class="cls-15" d="M379.86,203.06a3.94,3.94,0,1,0,5.22-1.94A3.94,3.94,0,0,0,379.86,203.06Z"/><g class="cls-16"><path class="cls-17" d="M93.26,239.2s48.85-102.3,138.6-125.85C279.54,100.84,299.72,49,336.17,41.11s48.32,62.1,54.67,115.75-3.42,84.23-3.42,84.23Z"/><path class="cls-18" d="M214.36,142.26s38.72,7,46.15,1.09c0,0-7.34-44.22-7.34-47S248,66.62,248,66.62l-13.16-1.27-13,51.57Z"/><path class="cls-19" d="M309.26,81.13C307.25,84.72,304,107,303,107c-.66,0-4.11-5.25-6.86-9.86-1.71.59-3,1.93-4.75,2.16,2.09,5.45,4.64,11.72,5.78,12.86,2.07,2.08,5.48,5.26,10.18,2.49s5.56-16.22,5.56-16.22l.6-21.46S311.34,77.42,309.26,81.13Z"/><path class="cls-18" d="M226.62,70.52l-4.85-2.16s-25.26,20.26-29.12,21.31l3.07,8.63s17.45-2.45,27.79-11.55S226.62,70.52,226.62,70.52Z"/><path class="cls-20" d="M191.64,76.85s.56-.56-.88-1.23a5.66,5.66,0,0,0-2.82-.48c-1.07.07-2.65.3-3.1,1-.05.08,3.12,19.59,3.12,19.59h7.76Z"/><path class="cls-21" d="M329.86,111.57c.46-1.82,2.08-30.12.36-30.44S329.86,111.57,329.86,111.57Z"/><path class="cls-22" d="M313.47,81.31s-3.77,9.09-7.65,14.22-4.08,47.94-1.88,47.94,7.17-1.79,7.17-1.79Z"/><path class="cls-23" d="M324,188.14s.83,10.91,2.17,14.18-1.06,46.38-2.19,49.86a10.39,10.39,0,0,1-.95,2.07c-1.24,2.12-1.52,2.55.14,2.55,2.14,0,4-.4,4.42-1.27.72-1.51,1.35-6.71,2.81-6.7,0,0,1-1.94.75-3-.38-1.53-1.42-.75-1.41-2.88s7.08-34.57,6-39.29-1.89-5.29-1.87-10.91S324,188.14,324,188.14Z"/><path class="cls-23" d="M319.21,176.7s-8,15.18-7.45,19.67,2.19,8.13.74,14.26S299.64,239,299.37,243.09c-.12,1.71.4,1.87.4,1.87,0,3-.94,6.13-1.56,6.74-.78.78-1.67,4.68-2.42,4.67s-7.08.68-7.08.68c-.16-1.45,1.77-.29,2.91-3.28s1.82-7.48,3.26-13.54,7.36-33.72,7.39-40.09-.57-6.39.42-10.58,4.68-12,4.68-12Z"/><path class="cls-23" d="M311.76,196.37c-.51-4.49,7.45-19.67,7.45-19.67l-11.84.82s-3.69,7.85-4.68,12a18.56,18.56,0,0,0-.49,6.65c2.26.48,5.78,1.19,9.8,1.84C311.91,197.5,311.82,196.94,311.76,196.37Z"/><path class="cls-23" d="M333.88,192.79c0-5.61-9.84-4.65-9.84-4.65s.53,7,1.42,11.42a44.7,44.7,0,0,0,9.09-.33A22.54,22.54,0,0,1,333.88,192.79Z"/><path class="cls-24" d="M313.47,81.31s3.69-2.84,16.18,0c.34.08.65,13.63.65,13.63s-5.79,22.69-4.69,28.35c0,0-6.63,5.6-16.51.73,0,0,1.28-17.82.38-21.79s-2.69-7.57-.14-11.69A46.79,46.79,0,0,0,313.47,81.31Z"/><path class="cls-25" d="M306.06,151.14c1.05-5.09,3-27.14,3-27.14s1.28-17.82.38-21.79-2.69-7.57-.14-11.69a46.79,46.79,0,0,0,4.13-9.21s3.69-2.84,16.18,0c.34.08.65,13.63.65,13.63s-5.79,22.69-4.69,28.35c0,0,6.63,10.84,8.14,16.79s.42,52.27.42,52.27c-6.44,2.25-32.75,0-32.75,0S305,156.24,306.06,151.14Z"/><path class="cls-22" d="M324.32,80s-5.94,48.83-3.7,54.11,7.41,15.35,16.6,12.61L330.3,98.88l-.08-17.75Z"/><path class="cls-26" d="M323.07,91h7.2l0-3.13h-6.83C323.31,88.83,323.19,89.87,323.07,91Z"/><path class="cls-26" d="M322,101h8.58l-.31-2.13v-1h-8C322.24,98.91,322.13,100,322,101Z"/><path d="M311.88,52s1.18-3,8.31-3,8.59,7,7.67,8.78.64,5.25,2.29,5.73,5.76,2.73,3.53,5,1.77,2.1,1.77,4.11-1.22,3.33-4,3.69S311.88,52,311.88,52Z"/><path class="cls-23" d="M313.49,71.44s1,8.6,1,14.19c0,.86,4.41,0,5.27-.67,1.37-1,2.34-1.66,2.58-3.54.16-1.25-3.49-13.57-3.49-13.57Z"/><path class="cls-27" d="M319.39,69.62c-.81,2.65-2.26,5.54-5,6.5a2.47,2.47,0,0,1-.43.11c-.25-2.74-.49-4.79-.49-4.79l5.38-3.59S319.07,68.55,319.39,69.62Z"/><path class="cls-23" d="M310.62,53.57a6,6,0,0,0-2.52,3.24c-.72,2.23.4,5,.1,6.95s1.83,11.65,6.62,10.18,5.52-8.5,5.77-10.06-1.07-7.31-3.52-9S310.62,53.57,310.62,53.57Z"/><path d="M308.1,56.81a6,6,0,0,1,2.52-3.24s4-.36,6.45,1.32,3.76,7.43,3.52,9c-.19,1.2-.66,5.58-3,8.24-.25-2.72,1.7-6.76.89-10.64a5.31,5.31,0,0,1-1.8.22c-2.21-.11.86-3.25-1.15-6.35-1.24-.93-1.28-1-2.1-1.24-.26,2.5-2.69,6.87-5.19,9.37C308.4,61.57,307.41,58.93,308.1,56.81Z"/><path d="M311.54,63.31a32,32,0,0,1-.77,3.85,2.34,2.34,0,0,0,1.36.34,2.18,2.18,0,0,1-1.59-.23A32.09,32.09,0,0,1,311.54,63.31Z"/><path d="M313.84,61.52a4.52,4.52,0,0,1,2.05-.66c1.08,0,2.46,1.31,2.46,1.31a5.79,5.79,0,0,0-2.27-1,4,4,0,0,0-1.46.47Z"/><path d="M311.27,61.35a3.87,3.87,0,0,0-1.64-1c-.89-.2-2.17.93-2.17.93s1.39-.81,2-.65a3.39,3.39,0,0,1,1.16.68Z"/><path class="cls-18" d="M314.65,68.92c-2.8,1.69-3.73,1.64-4.56,1.37C311.08,71.87,313.4,70.79,314.65,68.92Z"/><path d="M314.4,63.15a.62.62,0,1,0,.49-.78A.66.66,0,0,0,314.4,63.15Z"/><path d="M309.27,63c.05.38.31.65.57.6s.43-.39.37-.77-.31-.64-.57-.6S309.21,62.63,309.27,63Z"/><path d="M311.88,52a6.82,6.82,0,0,0-4.64,1.17c-2.13,1.55-2.35,7.74-1.23,9s-4,3-1.24,3.19C308.69,65.72,314.29,52.65,311.88,52Z"/><polygon class="cls-28" points="238.64 153.2 226.59 195.54 231 246.58 223.24 246.58 212.57 192.6 223.24 130.79 238.64 153.2"/><path class="cls-29" d="M223.24,129.15l7.17,24.08s11,36,12.77,56.75,0,35,0,35l9.81,1.58s5.66-43.18,3.55-57.66.47-49.77.47-49.77l-4-10Z"/><path class="cls-18" d="M226.15,114.52l-4.38-46.16a54.75,54.75,0,0,1,23.82-1C257.86,69.76,261.8,74,261.8,74s-9.9,37-9.9,42.22,2.36,16.12,2.36,16.12l-31-1.51Z"/><path class="cls-22" d="M248,66.62s-3.35,42.73-3.35,56.27,3.77,21.83,15.89,20.46l-2.73-40.41s-1.25-24.36,4.12-29.74C261.9,73.2,253.38,66.42,248,66.62Z"/><path class="cls-22" d="M234.81,65.35s-2.92,72.57-9.2,74.92a29.57,29.57,0,0,1-11.25,2s8.94-60.7,7.41-73.9Z"/><path class="cls-26" d="M247.14,77.64c-.08,1.23-.18,2.54-.28,3.9l11.69,1a39.32,39.32,0,0,1,.77-3.86Z"/><path class="cls-26" d="M234.05,80.41c.08-1.37.15-2.67.22-3.9l-12.38-1.09c0,1.22-.11,2.53-.19,3.91Z"/><path class="cls-26" d="M246.28,90c-.09,1.29-.18,2.59-.26,3.91l11.65,1c0-1.24.05-2.56.11-3.92Z"/><path class="cls-26" d="M233.26,92.76c.09-1.33.18-2.63.27-3.91l-12.47-1.09c-.11,1.27-.23,2.57-.36,3.89Z"/><path class="cls-18" d="M261.49,73.67c7.56,0,18.57,45.08,16.28,50-2.45,5.25-30.25-11.75-30.25-11.75l1.67-9.16s11.51,5.65,12.61,4.56-3.94-18.14-3.94-18.14S259.76,73.67,261.49,73.67Z"/><path class="cls-23" d="M292.62,90.75c-.92-2.49.14-5.7-1.39-7.22s-1-3.74-1.24-3.46-1.61,1.16-.33,3,.69,1.69.08,1.69-5.46-7.27-6.15-6.58,4.76,6.69,4.13,7.33-1.66-1.61-1.66-1.61l-.56,4.82,2.74,2.1s1.39,3.94,3.11,8.45c1.73-.23,3-1.57,4.75-2.16A60,60,0,0,1,292.62,90.75Z"/><path class="cls-23" d="M286.53,83.07s5.48,4.49,4.89,5.81-3.9-3.06-4.52-2.44,2.91,2.38,2.66,3.47-3.42-1.61-3.42-1.61,1.92,1.66,1.92,2.45-1.14.52-2.28-.62-1-3.07-1-4.44S286.53,83.07,286.53,83.07Z"/><polygon class="cls-30" points="244.28 48.9 232.49 54.13 230.83 53.54 231.12 51.03 235.42 47.41 246.17 42.99 252.06 42.26 252.25 42.89 251.47 44.38 244.28 48.9"/><path class="cls-31" d="M245.48,60.15c-.34,1-.19,8.12-.46,9.92s-8.34,4.51-8.5-1.93.48-14,.48-14Z"/><path class="cls-31" d="M245.48,60.15h0l-2.82-2-5.66-4h0s0,.07,0,.15c0,.23-.06.7-.1,1.35h0l0,.41v0c0,.47-.07,1-.1,1.6v.1c0,.14,0,.28,0,.43h0c0,.08,0,.16,0,.23v.15a.76.76,0,0,0,0,.15c1.05,3.45,5,7.2,8.47,7.65,0-.24,0-.48,0-.72A40,40,0,0,1,245.48,60.15Z"/><path class="cls-31" d="M236.68,48.23a12.42,12.42,0,0,0,1.38,10.84c2.47,3.57,5.87,5.4,8.31,3.61s3.14-13.07,1.38-16S238.26,44.3,236.68,48.23Z"/><path class="cls-32" d="M237.22,61.31s-.55-3.69-2-4.58S233.2,55.28,233,54s-3.39-4-2.62-6.11,2.88-1.35,4.76-5.07,3.9-5.78,8.28-4.43,5,4,5,4a3.1,3.1,0,0,1,3.11,2,4,4,0,0,1-.42,4.71s.16-3.05-.89-2.84,0,3.57,0,3.57a28.25,28.25,0,0,1-3.25-3.28c-1.67-2-1.26.34-.77,2.86s-3.22.15-4.87-1.68-4-.12-4.88,2.47S239.26,56.84,237.22,61.31Z"/><path class="cls-31" d="M237.5,52.27s-1.55-2.64-2.35-1.49-.14,4.57,1.56,4.6S237.5,52.27,237.5,52.27Z"/><path class="cls-31" d="M236.62,52.46s.06-1.53-.77-1,0,3,.77,2.91S236.62,52.46,236.62,52.46Z"/><path d="M245.38,51.75a9.7,9.7,0,0,1,.62,2.18,6,6,0,0,1,0,2.41c-.19,0-.69-.11-1.36-.28.43,0,.85,0,1.27,0l-.14.11A29.23,29.23,0,0,0,245.38,51.75Z"/><path d="M243.29,52.15a.77.77,0,0,1-.45,1c-.33.07-.68-.25-.77-.71a.76.76,0,0,1,.45-1C242.86,51.37,243.2,51.69,243.29,52.15Z"/><path d="M247.92,51.49a.76.76,0,0,1-.45.95c-.34.07-.68-.25-.77-.71a.77.77,0,0,1,.44-.95C247.48,50.71,247.83,51,247.92,51.49Z"/><path d="M240.66,51a3.29,3.29,0,0,1,1.9-1.48c1.18-.24.82.75.55.81S240.62,50.75,240.66,51Z"/><path d="M246.3,48.92s1.41.42,1.67,1.06c0,0-1.48-.12-1.75-.47A.39.39,0,0,1,246.3,48.92Z"/><path class="cls-18" d="M241.65,58s3.61,1.36,5.58,0c0,0-.55,1.82-1,2.15C245.12,60.92,242.53,60.4,241.65,58Z"/><path class="cls-22" d="M234.47,38.2c0,.08,3.05,7.68,3,7.59,3.07-1.12,7.42-2.39,10.57-3.21-.53-1.31-1.35-3.35-2.66-4.1-1.76-1-4.79-2.63-7.2-2.2A7.73,7.73,0,0,0,234.47,38.2Z"/><path class="cls-22" d="M234.79,37.92l3.13,7.76c3.24-1.18,9.12-3.18,12.44-4a12.67,12.67,0,0,0-2.27-3.54,9.38,9.38,0,0,0-4.69-2.45,8.89,8.89,0,0,0-4.77.2,13.85,13.85,0,0,0-3.48,1.8A2.56,2.56,0,0,0,234.79,37.92Z"/><path class="cls-33" d="M232.87,38.78l3.68,7.41c.09,0,4.13-1.61,9.95-3.19-.53-2-1.26-4.16-3-5.44a7.1,7.1,0,0,0-5.9-1.15,7.48,7.48,0,0,0-2.48,1.23A12.12,12.12,0,0,0,232.87,38.78Z"/><path class="cls-34" d="M230.22,51c1.23-3.8,10.33-6.39,14.41-7.49-.24-1.06-.73-3.77-1.75-4.79-3.8-3.82-13.28-.83-14,6.23C228.77,46.51,229.66,49.42,230.22,51Z"/><path class="cls-35" d="M230.22,51h0c1.11-3.8,9.64-6.13,13.63-7.28,2.19-.68,8.64-3.14,9.14-1.3.19.7-.34,1.12-1.52,1.93-.18-.26,1.36-1.85-1.31-1.3-4.86,1-12,1.85-18.28,8.11-1.3,1.3-.28,2.41.61,2.94A2.29,2.29,0,0,1,230.22,51Z"/><path class="cls-36" d="M230,51c1.45-5.52,20.32-11.16,23.11-9.78,1.18.59.38,2-1.68,3.18.9-.69,1.2-1,1.3-1.36,1-3.38-16.31,2.86-20.24,5.61a5.64,5.64,0,0,0-2.13,2.42h0a2.43,2.43,0,0,0-.07,1.51,2.06,2.06,0,0,0,.85,1.27C229.49,53.32,230,51,230,51Z"/><path class="cls-25" d="M95.05,110.3s2.51-23.32,13.86-32c0,0,7.57,20.71,4.14,24.14s-8.55,9.69-8.55,9.69S103.91,112.42,95.05,110.3Z"/><path class="cls-20" d="M156.24,145.9l32.33-37.52s2.12-1.54-3.66-4.62-7.86-1.76-9.43,0c0,0-27.63,41.6-26.22,41.6S156.24,145.9,156.24,145.9Z"/><path class="cls-25" d="M147.2,79.85s9.17,41.25,21,46.45l-7.84,6.59a46,46,0,0,1-16-17.22C137.91,103.75,147.2,79.85,147.2,79.85Z"/><polygon class="cls-28" points="124.28 169.53 135.98 210.65 131.7 260.21 139.24 260.21 149.6 207.79 139.24 147.77 124.28 169.53"/><path class="cls-29" d="M139.24,146.17l-8.1,24.8s-9.54,33.5-11.27,53.7,0,34,0,34l-9.52,1.53s-5.5-41.93-3.46-56-.45-48.32-.45-48.32l3.91-9.72Z"/><polygon class="cls-25" points="118.49 126.3 106.44 149.1 139.57 149.67 144.38 129.93 118.49 126.3"/><path class="cls-25" d="M121,75.06s12.58,3.31,16,1.56l.36,20.53L124,96.83Z"/><path class="cls-25" d="M147.2,79.85s-20.2-4.19-30.79-3c-5.83.64-7.5,1.43-7.5,1.43l9.62,56.1s24.05,1.54,24.63,1S146.47,89.85,147.2,79.85Z"/><path class="cls-22" d="M121,75.06s9.24,53.12.16,60.39S104.28,145,104.28,145L110,105.69s1.65-26.35.17-27.83Z"/><path class="cls-22" d="M137.05,76.62s.65,58.27,3.31,63.35,5.23,5.93,5.23,5.93l1.61-66.05Z"/><path class="cls-22" d="M137.05,76.62s.65,58.27,3.31,63.35,5.23,5.93,5.23,5.93l1.61-66.05Z"/><path class="cls-26" d="M146.87,93.44,147,88h-9.77c0,1.7.07,3.54.12,5.48Z"/><path class="cls-26" d="M123.62,93.44q-.33-2.88-.67-5.48H110.72c0,1.78-.09,3.65-.15,5.48Z"/><path class="cls-26" d="M146.63,103.21l.13-5.47h-9.31c.05,1.78.1,3.61.16,5.47Z"/><path class="cls-26" d="M124.58,103.21c-.15-1.84-.31-3.68-.49-5.47h-13.7c-.1,2.15-.2,4.06-.28,5.47Z"/><path class="cls-37" d="M183,108,152.78,145.9s-5.58-.39-4.43-1.54,27.13-40.6,27.13-40.6S174.14,112.23,183,108Z"/><path class="cls-38" d="M116.22,102.39s-.67,7.43,2.89,11,63.69,4.81,69.46-5l-32.9,38.48a49.78,49.78,0,0,1-22.13-1c-12.51-3.27-20.4,1.15-26.56-1.16a44.86,44.86,0,0,0-10.77-2.69Z"/><path class="cls-39" d="M103.71,110.69s3.91,3.08,1.09,14.33l-5,5.22s-9.16-11.86-4.74-19.94C95.05,110.3,100.44,107.42,103.71,110.69Z"/><path class="cls-39" d="M111,131.28s-4.17-1.83-5.2-4-.07-3-.7-3.58-3.08-.14-3.71.5-2.48,1.39-2.1,3.69-2,3.08-2,4.14a6.82,6.82,0,0,0,1.6,3.84c.85.85,3.89,1,6,.36s-2.59-2-2.59-2,5.58,1.06,6.54.1S104.1,132,104.1,132a57.91,57.91,0,0,0,6.25,1.06C111.7,133,111,131.28,111,131.28Z"/><path class="cls-39" d="M170.46,129.81s-3.1-1.81-3.1-.46,1.72,2.26,1.72,2.26-2.32-1.3-2.83-.33,1,1.53,1,1.53-1.81-.3-2.4.29.89,2,.89,2-1.6-.65-1.6,0,1.58,1.87,3,1.87,3-.06,3.49-1.09.9-.77,1.45-1.92S170.46,130.45,170.46,129.81Z"/><path class="cls-40" d="M122.55,53.34c.78,0,1.82-.1,2.9-.19h0c2.43-.18,4.78-.26,7,.84-1,1.65.22,4,.52,5.89-3.17.64-7,1.23-10,0a18.17,18.17,0,0,1-1.72-5.72C121.58,53.93,122,53.64,122.55,53.34Z"/><path class="cls-22" d="M128.41,44.31l.91,7.93c3.18-.28,7.6-.37,10.78-.33-.16-1.38-.41-3.5-1.46-4.55-1.4-1.4-3.84-3.69-6.22-3.91A7.6,7.6,0,0,0,128.41,44.31Z"/><path class="cls-22" d="M128.78,44.13l1,8.11c3.35-.28,9.41-.67,12.76-.64a12,12,0,0,0-1.24-3.92,9.09,9.09,0,0,0-3.79-3.5,8.57,8.57,0,0,0-4.54-1,13.58,13.58,0,0,0-3.74.81A3,3,0,0,0,128.78,44.13Z"/><path class="cls-33" d="M126.76,44.45l1.57,7.92c.09,0,4.31-.46,10.2-.46,0-2-.13-4.25-1.42-5.89a6.92,6.92,0,0,0-5.27-2.59,7.27,7.27,0,0,0-2.64.53A10.86,10.86,0,0,0,126.76,44.45Z"/><path class="cls-34" d="M121.13,55.32c2.13-3.27,11.37-3.39,15.49-3.39,0-1,.28-3.73-.42-5-2.61-4.56-12.31-4.16-14.76,2.31C120.92,50.68,121,53.66,121.13,55.32Z"/><path class="cls-21" d="M126,46.92h0l1.44-.36a.11.11,0,1,0,0-.21l-1.44.36a.11.11,0,0,0-.08.13A.11.11,0,0,0,126,46.92Z"/><path class="cls-21" d="M126.12,47.74h0l1.29-.35a.11.11,0,0,0,.08-.13.11.11,0,0,0-.13-.08l-1.3.36a.09.09,0,0,0-.07.13A.1.1,0,0,0,126.12,47.74Z"/><path class="cls-21" d="M122.85,48.08h0l1.34-.52a.1.1,0,0,0,.06-.13.11.11,0,0,0-.14-.07l-1.33.52a.1.1,0,0,0-.06.14A.1.1,0,0,0,122.85,48.08Z"/><path class="cls-21" d="M122.85,48.73h0l1.34-.48a.11.11,0,0,0-.08-.2l-1.33.48a.1.1,0,0,0-.06.13A.09.09,0,0,0,122.85,48.73Z"/><path class="cls-21" d="M124.76,47.42a.29.29,0,1,0,.29-.29A.29.29,0,0,0,124.76,47.42Z"/><path class="cls-39" d="M141,54a.8.8,0,0,1,.7.49,9.09,9.09,0,0,1,.51,1.65c.74,3.73,1.67,9.71,1.67,9.71l-1.66.05a18.45,18.45,0,0,0-1.23,5.58c.06,2.22-3.49.93-5.53,1s-6.61-1.57-8.55-7.9a35.9,35.9,0,0,1-1.72-7.69c2.27-.57,4.54-1.87,6.81-2.35A46.9,46.9,0,0,1,141,54Z"/><path class="cls-39" d="M123.33,77S126,87.67,133.5,84.4c1.21-.53,1.05-11.08,1.25-13.67-.46-1.06-3.94-9.14-3.72-8.62h0l-.72-1.66Z"/><path class="cls-41" d="M132.05,54.52c-.14,2.16,1.6,5.59.66,7.29l-1.83.41s-.41-1.08-1.15-1.06-.79,5.62-2,5.66-3.64-4.67-4.81-6.86c-.11-.22-.24-.48-.37-.79a2.39,2.39,0,0,1,.94-2.59C126,55.32,128.39,55,132.05,54.52Z"/><path class="cls-42" d="M125.38,55.8l-.52.2Z"/><path class="cls-42" d="M123.51,56.58a1.51,1.51,0,0,0-.26.18A1.51,1.51,0,0,1,123.51,56.58Z"/><path class="cls-42" d="M124.44,56.15c-.29.12-.57.26-.86.4C123.87,56.41,124.15,56.27,124.44,56.15Z"/><path class="cls-42" d="M122.73,57.5l-.06.13Z"/><path class="cls-42" d="M122.93,57.15a.86.86,0,0,0-.1.16A.86.86,0,0,1,122.93,57.15Z"/><path class="cls-42" d="M123.17,56.85,123,57Z"/><path class="cls-42" d="M130.7,54.7l-.46.07Z"/><path class="cls-42" d="M126.33,55.51l-.44.13Z"/><path class="cls-42" d="M129.49,54.88,129,55Z"/><path class="cls-42" d="M127.33,55.27l-.44.11Z"/><path class="cls-42" d="M128.37,55.06l-.44.09Z"/><path class="cls-42" d="M122.5,58.24s0,0,0,.06S122.5,58.26,122.5,58.24Z"/><path class="cls-42" d="M122.47,58.6v0Z"/><path class="cls-41" d="M131.94,54.53c2.38-.39,3.36-.53,9-.53.6,0,.75.61.9,1-2,.11-5.89.57-9.65,1.14C132.09,55.59,132,54.53,131.94,54.53Z"/><path class="cls-42" d="M122.59,57.87l0,.1Z"/><path class="cls-42" d="M130.7,54.7l1.24-.17h0Z"/><path class="cls-42" d="M127.93,55.15l-.6.12Z"/><path class="cls-42" d="M122.67,57.63a2.25,2.25,0,0,0-.08.24A2.25,2.25,0,0,1,122.67,57.63Z"/><path class="cls-42" d="M122.5,58.93a1.53,1.53,0,0,1,0-.3A1.53,1.53,0,0,0,122.5,58.93Z"/><path class="cls-42" d="M129,55l-.65.1Z"/><path class="cls-42" d="M130.24,54.77l-.75.11Z"/><path class="cls-42" d="M126.89,55.38l-.56.13Z"/><path class="cls-42" d="M123.51,56.58h0l.07,0-.07,0Z"/><path class="cls-42" d="M123.25,56.76l-.08.09Z"/><path class="cls-42" d="M122.56,58a1.31,1.31,0,0,0-.06.27A1.31,1.31,0,0,1,122.56,58Z"/><path class="cls-42" d="M122.83,57.31a1.14,1.14,0,0,0-.1.19A1.14,1.14,0,0,1,122.83,57.31Z"/><path class="cls-42" d="M123,57l-.09.14Z"/><path class="cls-42" d="M125.89,55.64l-.51.16Z"/><path class="cls-42" d="M122.49,58.3c0,.1,0,.2,0,.3C122.47,58.5,122.48,58.4,122.49,58.3Z"/><path class="cls-42" d="M124.86,56l-.42.15Z"/><path class="cls-41" d="M132.05,54.52a7.06,7.06,0,0,0,.15,1.66C124,57.44,123,58,122.5,58.93,122,55.67,127.72,55.11,132.05,54.52Z"/><path d="M140.19,57.43l.17.87A3.29,3.29,0,0,0,138,59c-.82.87-.93,1-.93,1A3.69,3.69,0,0,1,140.19,57.43Z"/><path d="M139.31,61c.9,0,.85-1.64-.05-1.61C138.89,59.38,138.41,61,139.31,61Z"/><path class="cls-18" d="M140.14,68.3a2.21,2.21,0,0,1-2-.82,1.76,1.76,0,0,1-.21-.68.27.27,0,0,0-.53.08C137.57,67.88,138.61,68.59,140.14,68.3Z"/><path class="cls-39" d="M131.26,59.09s.19,3.64-.69,3.67-2.86-2-2.6-4.2S130.79,56.55,131.26,59.09Z"/><path class="cls-39" d="M130.63,58.71s.48,1.44-.16,2.11-1.95-.86-1.29-2.07S130.47,57.88,130.63,58.71Z"/><path class="cls-35" d="M121.13,55.33h0c2-3.3,10.65-3.32,14.71-3.39,2.23-.08,8.94-.75,8.94,1.11,0,.71-1.6,1.49-3,1.8-.11-.29-.2-.8-.8-.79-4.86.07-13.13.34-17.47,2.53a2.47,2.47,0,0,0-1,2.24A2.24,2.24,0,0,1,121.13,55.33Z"/><path class="cls-36" d="M121,55.23c2.77-4.84,22-5.34,24.27-3.32,1,.85-.24,2.1-2.48,2.67a3.46,3.46,0,0,0,1.66-1.06c1.85-2.91-16.1-1.47-20.51.13a5.45,5.45,0,0,0-2.62,1.74h0a2.45,2.45,0,0,0-.45,1.41,2,2,0,0,0,.47,1.41C119.86,57.3,121,55.23,121,55.23Z"/><path class="cls-43" d="M191.31,86.65s-2.2.44-2.1.64c.18.4,2.49.56,2.49.56Z"/><path class="cls-44" d="M186.21,77.29s4.17.54,5.52-.82l7.35,40.85h-1.49Z"/><path class="cls-38" d="M228.69,75.1S202.41,80,194.27,79.48s-9.43-3.38-9.43-3.38-1.17,1.63,3.12,19.59,8.15,29,8.15,29L244,126.52Z"/><path class="cls-31" d="M186.76,92s-1.08.2-1.72,1.86-1.81,3.95-1.26,5.82,2.95,4.11,3.71,4.87,7.45-2.19,7.56-3.78-2.51.54-3.76.54,3.15-1.23,3-2.19-3.77.56-4.38.29,2.15-.29,2.28-1.18-3.31-.45-3.31-.45-1.38-2.2-1-2.57,1.74.49,2.15-.47S187.88,91.25,186.76,92Z"/><path class="cls-31" d="M249,103.8s-8.21-1.19-10.67-2.07-5.51.92-7.49.53-1.13,1.57.66,1.57,3.81-.61,3.81,0-3.11.83-5.38.35-2.28-.48-2.28.27,3.33,2.32,7.75,1.75c0,0,1,.19.7.52s-5.39-.61-6.79,0-.52,1.71,2.81,2,4,0,4.24.62-4.95-.44-5.21.39,6.88,2.41,8.19,2.19,8.6-2.23,8.6-2.23Z"/><polygon class="cls-45" points="272.72 84.86 285.9 114.25 306.91 116.96 302.11 88.16 272.72 84.86"/><polygon class="cls-46" points="302.11 88.16 272.72 84.86 285.9 114.25 275.63 87.3 302.11 88.16"/><path class="cls-19" d="M328.15,78.62s.66-.05-.81,8.37.54,17.16-1.87,19.57-13.77-3.21-13.77-2.41-1.2,7.22-1.2,7.22,16.58,5.21,21.52-.8S335.37,77,328.15,78.62Z"/><path d="M314.59,55.88a7.71,7.71,0,0,0-3.73-1.68,9.07,9.07,0,0,0-.91,0c-.32,0-.52.09-.59.08a.88.88,0,0,1,.1-.24,4.92,4.92,0,0,1,4.87-2.76h.32a23.45,23.45,0,0,1,6,.62,7.83,7.83,0,0,1,3.13,1.81,4.88,4.88,0,0,1,1.2,3.7c.06,2.6-.51,5.25.15,7.81a9.5,9.5,0,0,0,4.33,6,6.18,6.18,0,0,1,3.19,5,12.09,12.09,0,0,1-1.25,6.84c-1.92,3.67-5.78,2-5.78,2s2.8-1.76,2.25-2.52c0,0-2.7,3.63-4.95,3.9a5.57,5.57,0,0,1-5.53-2.43s5-.85,2.95-3.26c-1.45-1.67-1.68-4-3.29-6.74-.88-1.49-.07-4,.6-6.78.05-.32.18-.89.34-1.55a12,12,0,0,0,.15-4.62,2,2,0,0,1-1.11.23c-1.27-.07-1.27-.84-1.32-2A8.93,8.93,0,0,0,314.59,55.88Z"/><path class="cls-23" d="M313,106.69s-4.58-5.31-5.42-6.15-7.62-2.92-7.62-2,.39,1,0,2-.8.7-.4,2-.16,1.13-.16,2.19,3.24,3,5.58,3.88a56.73,56.73,0,0,0,8,1.67Z"/></g><path class="cls-47" d="M99.93,50.63c-19.65,18.86-28.65,43.58-26.8,67.54,2.65,34.26,27.37,67.2,65.07,86.71,50.92,26.35,116.33,26.5,165.45-1.24,45.9-25.93,72.92-69,76.24-111.58.82-10.52.13-21.39-5.55-31C360.54,37.6,324.88,39.35,296,41.91c-24,2.13-30.92-7.1-50.77-14.8a150.9,150.9,0,0,0-57.08-9.89c-31.1.68-61.61,11.16-82.58,28.38Q102.63,48,99.93,50.63Z"/></g></g></svg>