<svg xmlns="http://www.w3.org/2000/svg" viewBox="0 0 42 42"><defs><style>.cls-1{fill:#00877a;}.cls-2{fill:#fff;}</style></defs><g id="Capa_2" data-name="Capa 2"><g id="Capa_1-2" data-name="Capa 1"><path class="cls-1" d="M41.43,16.18A21,21,0,1,0,25.82,41.43,21,21,0,0,0,41.43,16.18Z"/><path class="cls-2" d="M21.09,8.72a8.46,8.46,0,0,0-8.46,8.46v8.51a8.46,8.46,0,0,0,16.92,0V17.18A8.47,8.47,0,0,0,21.09,8.72Zm-.53,4.73a.53.53,0,0,1,.53-.53.53.53,0,0,1,.53.53v3.2a.53.53,0,0,1-.53.53.53.53,0,0,1-.53-.53Zm7,12.24a6.44,6.44,0,1,1-12.87,0V17.18a6.37,6.37,0,0,1,5.43-6.35v.81A2.07,2.07,0,0,0,19,13.45v3.2a2.07,2.07,0,0,0,1.06,1.81v.93a.47.47,0,0,0,.48.48h1.06a.47.47,0,0,0,.48-.48v-.93a2.07,2.07,0,0,0,1.06-1.81v-3.2a2.07,2.07,0,0,0-1.06-1.81v-.81a6.37,6.37,0,0,1,5.42,6.35Z"/></g></g></svg>