<svg xmlns="http://www.w3.org/2000/svg" viewBox="0 0 42 42"><defs><style>.cls-1{fill:#00877a;}.cls-2{fill:#fff;}</style></defs><g id="Capa_2" data-name="Capa 2"><g id="Capa_1-2" data-name="Capa 1"><circle class="cls-1" cx="21" cy="21" r="21"/><path class="cls-2" d="M30.67,19.77v-.49a9.58,9.58,0,0,0-19.16,0v.49A2.88,2.88,0,0,0,9,22.63v4.18a2.9,2.9,0,0,0,2.88,2.89h3.35a1.22,1.22,0,0,0,1.22-1.22V21a1.22,1.22,0,0,0-1.22-1.21H13.94v-.46a7.15,7.15,0,1,1,14.3,0v.46h-1.3A1.21,1.21,0,0,0,25.73,21v7.53a1.22,1.22,0,0,0,1.21,1.22h3.35a2.91,2.91,0,0,0,2.89-2.89V22.63A2.9,2.9,0,0,0,30.67,19.77Zm.08,2.86v4.18a.45.45,0,0,1-.46.46H28.16v-5.1h2.13A.45.45,0,0,1,30.75,22.63ZM14,22.17v5.1H11.88a.46.46,0,0,1-.46-.46V22.63a.46.46,0,0,1,.46-.46Z"/></g></g></svg>