<svg xmlns="http://www.w3.org/2000/svg" viewBox="0 0 42 42"><defs><style>.cls-1{fill:#00877a;}.cls-2{fill:#fff;}</style></defs><g id="Capa_2" data-name="Capa 2"><g id="Capa_1-2" data-name="Capa 1"><circle class="cls-1" cx="21" cy="21" r="21"/><path class="cls-2" d="M32.23,23.2A1.25,1.25,0,0,0,33.48,22V15.29a4.11,4.11,0,0,0-4.11-4.1H12.63a4.11,4.11,0,0,0-4.11,4.1V26.71a4.11,4.11,0,0,0,4.11,4.1H29.37a4.11,4.11,0,0,0,4.11-4.1,1.25,1.25,0,0,0-2.5,0,1.61,1.61,0,0,1-1.61,1.61H12.63A1.61,1.61,0,0,1,11,26.71V15.29a1.61,1.61,0,0,1,1.61-1.61H29.37A1.61,1.61,0,0,1,31,15.29V22A1.25,1.25,0,0,0,32.23,23.2Z"/><path class="cls-2" d="M16.89,18.36h0a1.31,1.31,0,0,1,1.23.86,1.11,1.11,0,0,0,1.05.71,1.06,1.06,0,0,0,1-1.42,3.48,3.48,0,0,0-3.29-2.33h0a3.52,3.52,0,0,0-3.46,3.54v2.57a3.52,3.52,0,0,0,3.46,3.53h0a3.48,3.48,0,0,0,3.29-2.33,1.08,1.08,0,0,0-.13-1,1.1,1.1,0,0,0-.88-.45h0a1.1,1.1,0,0,0-1,.72,1.31,1.31,0,0,1-1.2.86h0a1.34,1.34,0,0,1-.93-.38,1.32,1.32,0,0,1-.39-.94V19.7A1.34,1.34,0,0,1,16.89,18.36Z"/><path class="cls-2" d="M25,18.36h0a1.31,1.31,0,0,1,1.23.86,1.1,1.1,0,0,0,1.05.71,1.07,1.07,0,0,0,1-1.42,3.49,3.49,0,0,0-3.29-2.33h0a3.56,3.56,0,0,0-3.46,3.54v2.57A3.52,3.52,0,0,0,25,25.82h0a3.48,3.48,0,0,0,3.29-2.33,1,1,0,0,0-.14-1,1.08,1.08,0,0,0-.87-.45h0a1.09,1.09,0,0,0-1,.71,1.32,1.32,0,0,1-1.2.87h0a1.3,1.3,0,0,1-.92-.38,1.29,1.29,0,0,1-.4-.94V19.7A1.33,1.33,0,0,1,25,18.36Z"/></g></g></svg>