<svg xmlns="http://www.w3.org/2000/svg" xmlns:xlink="http://www.w3.org/1999/xlink" viewBox="0 0 150.11 90.12"><defs><style>.cls-1{fill:url(#Degradado_sin_nombre_29);}.cls-2{fill:url(#Degradado_sin_nombre_33);}.cls-3{fill:url(#Degradado_sin_nombre_33-2);}</style><linearGradient id="Degradado_sin_nombre_29" x1="12.16" y1="77.83" x2="238.12" y2="-40.12" gradientUnits="userSpaceOnUse"><stop offset="0" stop-color="#00953b"/><stop offset="0.54" stop-color="#00953b" stop-opacity="0"/></linearGradient><linearGradient id="Degradado_sin_nombre_33" x1="146.85" y1="22.93" x2="-12.18" y2="72.04" gradientUnits="userSpaceOnUse"><stop offset="0" stop-color="#00953b"/><stop offset="1" stop-color="#00953b" stop-opacity="0.09"/></linearGradient><linearGradient id="Degradado_sin_nombre_33-2" x1="0.11" y1="85.48" x2="179.01" y2="-11.2" xlink:href="#Degradado_sin_nombre_33"/></defs><g id="Capa_2" data-name="Capa 2"><g id="Capa_1-2" data-name="Capa 1"><path class="cls-1" d="M125,83.67H24.69A17.5,17.5,0,0,1,7.21,66.19V24A17.5,17.5,0,0,1,24.69,6.49H125a17.88,17.88,0,0,1,17.86,17.86V65.8A17.88,17.88,0,0,1,125,83.67ZM24.69,13.49A10.49,10.49,0,0,0,14.21,24V66.19A10.49,10.49,0,0,0,24.69,76.67H125A10.88,10.88,0,0,0,135.89,65.8V24.35A10.87,10.87,0,0,0,125,13.49Z"/><path class="cls-2" d="M126.38,88H23.94A21.56,21.56,0,0,1,2.4,66.45V23.71A21.56,21.56,0,0,1,23.94,2.18H126.38a21.18,21.18,0,0,1,21.15,21.15v43.5A21.18,21.18,0,0,1,126.38,88ZM23.94,5.18A18.56,18.56,0,0,0,5.4,23.71V66.45A18.56,18.56,0,0,0,23.94,85H126.38a18.17,18.17,0,0,0,18.15-18.15V23.33A18.17,18.17,0,0,0,126.38,5.18Z"/><path class="cls-3" d="M127.05,90.12H22.67A22.7,22.7,0,0,1,0,67.44V22.67A22.7,22.7,0,0,1,22.67,0H127.05a23.09,23.09,0,0,1,23.06,23.06v44A23.09,23.09,0,0,1,127.05,90.12ZM22.67,1A21.69,21.69,0,0,0,1,22.67V67.44A21.7,21.7,0,0,0,22.67,89.12H127.05a22.09,22.09,0,0,0,22.06-22.06v-44A22.08,22.08,0,0,0,127.05,1Z"/></g></g></svg>