<svg xmlns="http://www.w3.org/2000/svg" xmlns:xlink="http://www.w3.org/1999/xlink" viewBox="0 0 251.8 251.8"><defs><style>.cls-1{isolation:isolate;}.cls-2,.cls-6{fill:#fff;}.cls-3{fill:none;stroke:#93d500;stroke-linecap:round;stroke-miterlimit:10;stroke-width:2px;stroke-dasharray:11.32 4.72 6.6 7.55 18.87 11.32;}.cls-4{fill:url(#linear-gradient);}.cls-5{fill:#bdd0fb;}.cls-6{mix-blend-mode:soft-light;}.cls-7{fill:#91b3fa;}.cls-8{fill:url(#linear-gradient-2);}.cls-9{fill:url(#linear-gradient-3);}.cls-10{fill:url(#linear-gradient-4);}.cls-11{fill:url(#linear-gradient-5);}.cls-12{fill:url(#linear-gradient-6);}.cls-13{fill:url(#linear-gradient-7);}.cls-14{fill:#7d97f4;}.cls-15{fill:url(#linear-gradient-8);}.cls-16{fill:url(#linear-gradient-9);}.cls-17{fill:url(#linear-gradient-10);}.cls-18{fill:url(#linear-gradient-11);}.cls-19{fill:url(#linear-gradient-12);}.cls-20{fill:url(#linear-gradient-13);}.cls-21{fill:url(#linear-gradient-14);}.cls-22{fill:url(#linear-gradient-15);}.cls-23{fill:url(#linear-gradient-16);}.cls-24{fill:url(#linear-gradient-17);}.cls-25{fill:url(#linear-gradient-18);}.cls-26{fill:url(#linear-gradient-19);}.cls-27{fill:url(#linear-gradient-20);}.cls-28{fill:url(#linear-gradient-21);}.cls-29{fill:url(#linear-gradient-22);}.cls-30{fill:url(#linear-gradient-23);}.cls-31{fill:url(#linear-gradient-24);}.cls-32{fill:url(#linear-gradient-25);}.cls-33{fill:url(#linear-gradient-26);}.cls-34{fill:url(#linear-gradient-27);}.cls-35{fill:url(#linear-gradient-28);}.cls-36{fill:url(#linear-gradient-29);}.cls-37{fill:url(#linear-gradient-30);}.cls-38{fill:url(#linear-gradient-31);}.cls-39{fill:url(#linear-gradient-32);}</style><linearGradient id="linear-gradient" x1="212.24" y1="225.03" x2="93.6" y2="96.97" gradientUnits="userSpaceOnUse"><stop offset="0" stop-color="#dae3fe"/><stop offset="1" stop-color="#e9effd"/></linearGradient><linearGradient id="linear-gradient-2" x1="94.03" y1="-11.25" x2="148.44" y2="177.6" gradientUnits="userSpaceOnUse"><stop offset="0" stop-color="#09005d"/><stop offset="1" stop-color="#1a0f91"/></linearGradient><linearGradient id="linear-gradient-3" x1="107.81" y1="-15.22" x2="162.22" y2="173.63" xlink:href="#linear-gradient-2"/><linearGradient id="linear-gradient-4" x1="144.21" y1="14.64" x2="144.21" y2="50.94" gradientUnits="userSpaceOnUse"><stop offset="0" stop-color="#4f52ff"/><stop offset="1" stop-color="#4042e2"/></linearGradient><linearGradient id="linear-gradient-5" x1="147.37" y1="57.53" x2="193.39" y2="6.25" xlink:href="#linear-gradient-4"/><linearGradient id="linear-gradient-6" x1="134.02" y1="115.13" x2="153.81" y2="115.13" xlink:href="#linear-gradient-4"/><linearGradient id="linear-gradient-7" x1="196.87" y1="100.71" x2="252.08" y2="39.19" xlink:href="#linear-gradient-4"/><linearGradient id="linear-gradient-8" x1="-9473.4" y1="192.91" x2="-9474.86" y2="199.81" gradientTransform="matrix(-1, 0, 0, 1, -9419.08, 0)" xlink:href="#linear-gradient-2"/><linearGradient id="linear-gradient-9" x1="-9475.34" y1="199" x2="-9471.95" y2="212.81" gradientTransform="matrix(-1, 0, 0, 1, -9419.08, 0)" xlink:href="#linear-gradient-2"/><linearGradient id="linear-gradient-10" x1="-9469.47" y1="180.2" x2="-9482.29" y2="199.65" gradientTransform="matrix(-1, 0, 0, 1, -9419.08, 0)" gradientUnits="userSpaceOnUse"><stop offset="0" stop-color="#febbba"/><stop offset="1" stop-color="#ff928e"/></linearGradient><linearGradient id="linear-gradient-11" x1="70.88" y1="150.27" x2="96.89" y2="224.88" xlink:href="#linear-gradient-2"/><linearGradient id="linear-gradient-12" x1="-9478.71" y1="199.09" x2="-9516.59" y2="209.74" xlink:href="#linear-gradient-10"/><linearGradient id="linear-gradient-13" x1="96.99" y1="169.69" x2="139.4" y2="76.06" xlink:href="#linear-gradient-2"/><linearGradient id="linear-gradient-14" x1="166.95" y1="111.33" x2="143.84" y2="126.63" gradientUnits="userSpaceOnUse"><stop offset="0" stop-color="#ff928e"/><stop offset="1" stop-color="#fe7062"/></linearGradient><linearGradient id="linear-gradient-15" x1="-9510.17" y1="143.63" x2="-9499.93" y2="143.63" xlink:href="#linear-gradient-10"/><linearGradient id="linear-gradient-16" x1="-9129.84" y1="1520.71" x2="-9119.93" y2="1510.54" gradientTransform="matrix(-0.96, 0.27, 0.27, 0.96, -9099.36, 1130.64)" xlink:href="#linear-gradient-10"/><linearGradient id="linear-gradient-17" x1="-9115.33" y1="1504.09" x2="-9127.88" y2="1520.69" gradientTransform="matrix(-0.96, 0.27, 0.27, 0.96, -9099.36, 1130.64)" xlink:href="#linear-gradient-10"/><linearGradient id="linear-gradient-18" x1="-9124.92" y1="1508.04" x2="-9109.92" y2="1508.04" gradientTransform="matrix(-0.96, 0.27, 0.27, 0.96, -9099.36, 1130.64)" xlink:href="#linear-gradient-2"/><linearGradient id="linear-gradient-19" x1="-9133.71" y1="1517.24" x2="-9123.65" y2="1506.91" gradientTransform="matrix(-0.96, 0.27, 0.27, 0.96, -9099.36, 1130.64)" xlink:href="#linear-gradient-10"/><linearGradient id="linear-gradient-20" x1="124.28" y1="135.36" x2="101.17" y2="150.67" xlink:href="#linear-gradient-14"/><linearGradient id="linear-gradient-21" x1="149.08" y1="111.32" x2="67.76" y2="189.64" gradientUnits="userSpaceOnUse"><stop offset="0" stop-color="#e1473d"/><stop offset="1" stop-color="#e9605a"/></linearGradient><linearGradient id="linear-gradient-22" x1="93.01" y1="149.46" x2="86.01" y2="170.86" xlink:href="#linear-gradient-21"/><linearGradient id="linear-gradient-23" x1="-571.15" y1="-10214.49" x2="-564.42" y2="-10214.49" gradientTransform="matrix(-0.07, -1, -1, 0.07, -10126.89, 321.31)" xlink:href="#linear-gradient-10"/><linearGradient id="linear-gradient-24" x1="194.36" y1="183.2" x2="172.73" y2="224.29" xlink:href="#linear-gradient-14"/><linearGradient id="linear-gradient-25" x1="2438.47" y1="98.94" x2="2500.4" y2="17.85" gradientTransform="translate(-2369.8)" xlink:href="#linear-gradient-14"/><linearGradient id="linear-gradient-26" x1="2447.02" y1="110.74" x2="2445.17" y2="50.06" gradientTransform="translate(-2369.8)" xlink:href="#linear-gradient-2"/><linearGradient id="linear-gradient-27" x1="2361.53" y1="265.49" x2="2385.23" y2="212.98" gradientTransform="translate(-2369.8)" xlink:href="#linear-gradient-14"/><linearGradient id="linear-gradient-28" x1="2363.7" y1="266.47" x2="2387.4" y2="213.96" gradientTransform="translate(-2369.8)" xlink:href="#linear-gradient-14"/><linearGradient id="linear-gradient-29" x1="2365.87" y1="267.45" x2="2389.57" y2="214.94" gradientTransform="translate(-2369.8)" xlink:href="#linear-gradient-14"/><linearGradient id="linear-gradient-30" x1="2368.04" y1="268.43" x2="2391.74" y2="215.92" gradientTransform="translate(-2369.8)" xlink:href="#linear-gradient-14"/><linearGradient id="linear-gradient-31" x1="2370.21" y1="269.41" x2="2393.91" y2="216.9" gradientTransform="translate(-2369.8)" xlink:href="#linear-gradient-14"/><linearGradient id="linear-gradient-32" x1="2372.38" y1="270.39" x2="2396.08" y2="217.88" gradientTransform="translate(-2369.8)" xlink:href="#linear-gradient-14"/></defs><g class="cls-1"><g id="Capa_2" data-name="Capa 2"><g id="Capa_1-2" data-name="Capa 1"><circle class="cls-2" cx="125.9" cy="125.9" r="119.26"/><circle class="cls-3" cx="125.9" cy="125.9" r="124.9"/><path class="cls-4" d="M195.71,152.05c-16.31,38.11-59.34,54.48-93.06,51.69-9.2-.77-27.73-2.3-42.19-16C32.69,161.5,37,106.59,63.55,74.27c3.43-4.16,27.13-32,64.06-31.68,27,.28,46,15.55,48.33,17.45a74.89,74.89,0,0,1,15.14,17.18C204.7,98.52,205.89,128.24,195.71,152.05Z"/><path class="cls-5" d="M181.6,48.82a1,1,0,0,0-1.7-.61c-5.72,7.39-18.86,28.89-9.55,61.31,11.69,40.66,5.47,57.18-3.81,68.13a46.91,46.91,0,0,0,20.91-23.54C204.24,112.75,180.92,65.17,181.6,48.82Z"/><path class="cls-6" d="M178.55,62.6c-.1,4.75-.11,9.5,0,14.24s.42,9.49.85,14.21,1,9.43,1.72,14.11,1.64,9.34,2.57,14,1.85,9.37,2.32,14.17a48.29,48.29,0,0,1-.63,14.49c-.25,1.19-.52,2.38-.86,3.54s-.69,2.32-1.08,3.47a50,50,0,0,1-11.26,18.47.92.92,0,0,1-1.35-1.24h0c.78-.88,1.55-1.76,2.28-2.67.37-.45.72-.92,1.08-1.38s.71-.93,1-1.42a48.5,48.5,0,0,0,3.6-6,53.39,53.39,0,0,0,4.58-13.18,47.26,47.26,0,0,0,.85-6.91,52.8,52.8,0,0,0-.18-7c-.42-4.67-1.31-9.33-2.19-14s-1.71-9.38-2.36-14.11c-.33-2.37-.61-4.74-.86-7.11-.13-1.19-.23-2.38-.34-3.56s-.19-2.38-.27-3.57q-.47-7.14-.5-14.3c0-4.77.14-9.53.46-14.29a.25.25,0,1,1,.49,0Z"/><path class="cls-7" d="M181.13,187.61a2.39,2.39,0,0,0,3.9.7,72.77,72.77,0,0,0,19.61-59.37c-3.12-27.09-2.24-42.08-1.37-48.86a1.5,1.5,0,0,0-2.57-1.22C189.68,90.37,156.78,131.2,181.13,187.61Z"/><path class="cls-6" d="M183.42,187.48l.12.06a.67.67,0,0,0,.84-.41c.13-.4,13.51-39.61,10.87-77.48a.65.65,0,0,0-.7-.61.66.66,0,0,0-.62.7c2.62,37.6-10.67,76.56-10.8,77A.65.65,0,0,0,183.42,187.48Z"/><path class="cls-8" d="M176.31,207h-64.2a7.52,7.52,0,0,1-7.52-7.81l3.22-81.37a7.52,7.52,0,0,1,7.51-7.22H174a7.53,7.53,0,0,1,7.52,7.3l2.36,81.37A7.52,7.52,0,0,1,176.31,207Z"/><path class="cls-9" d="M160.45,102.87h0a3.4,3.4,0,0,1-3.36-2.92l-3.41-24.2H134.74L131.33,100a3.4,3.4,0,0,1-3.36,2.92h0A5.17,5.17,0,0,0,122.8,108v6.88h42.82V108A5.17,5.17,0,0,0,160.45,102.87Z"/><rect class="cls-10" x="133.13" y="72.74" width="22.16" height="7.1" rx="3.44"/><rect class="cls-11" x="133.16" y="49.29" width="22.16" height="23.45" rx="7.81"/><circle class="cls-12" cx="143.92" cy="115.13" r="9.9"/><path class="cls-13" d="M167.43,180.76h-47a3.39,3.39,0,0,1-3.38-3.58l2.19-37.77a3.39,3.39,0,0,1,3.38-3.19h44.85a3.38,3.38,0,0,1,3.38,3.39v37.76A3.38,3.38,0,0,1,167.43,180.76Z"/><path class="cls-7" d="M110.45,144.82h0c-.1,0-.12,0,0-3.25.1-1.76.24-4.27.43-7.45.35-5.81.78-12.57,1-16.08a3.14,3.14,0,0,1,3.08-3l7.74-.16a.11.11,0,0,1,.1.1.09.09,0,0,1-.1.1l-7.73.16a2.94,2.94,0,0,0-2.89,2.77c-1,16-1.61,26-1.56,26.62a.07.07,0,0,1,0,.09A.09.09,0,0,1,110.45,144.82Z"/><path class="cls-7" d="M161.45,201.84a.1.1,0,0,1-.1-.09.1.1,0,0,1,.1-.11l14.69-.72a2.91,2.91,0,0,0,2.79-3l-1.22-54.28a.09.09,0,0,1,.09-.1.12.12,0,0,1,.11.1l1.22,54.28a3.11,3.11,0,0,1-3,3.2l-14.69.72Z"/><path class="cls-7" d="M164.32,176.23H125.73a2.94,2.94,0,0,1-2.94-3.11l1.62-29.37a3,3,0,0,1,2.94-2.79h36.07a2.94,2.94,0,0,1,3,2.86l.9,29.37a2.94,2.94,0,0,1-3,3Zm-37-35.07a2.75,2.75,0,0,0-2.74,2.6L123,173.13a2.74,2.74,0,0,0,2.74,2.9h38.59a2.73,2.73,0,0,0,2.75-2.83l-.9-29.37a2.74,2.74,0,0,0-2.75-2.67Zm-4.46,32Z"/><path class="cls-7" d="M136.28,69.29a.09.09,0,0,1-.1-.1V52.41a.09.09,0,0,1,.1-.1.1.1,0,0,1,.1.1V69.19A.1.1,0,0,1,136.28,69.29Z"/><path class="cls-7" d="M139.29,69.29a.09.09,0,0,1-.1-.1V52.41a.09.09,0,0,1,.1-.1.1.1,0,0,1,.1.1V69.19A.1.1,0,0,1,139.29,69.29Z"/><path class="cls-7" d="M142.3,69.29a.1.1,0,0,1-.1-.1V52.41a.1.1,0,0,1,.1-.1.09.09,0,0,1,.1.1V69.19A.09.09,0,0,1,142.3,69.29Z"/><path class="cls-7" d="M145.31,69.29a.1.1,0,0,1-.1-.1V52.41a.1.1,0,0,1,.1-.1.09.09,0,0,1,.1.1V69.19A.09.09,0,0,1,145.31,69.29Z"/><path class="cls-7" d="M148.33,69.29a.09.09,0,0,1-.1-.1V52.41a.09.09,0,0,1,.1-.1.1.1,0,0,1,.1.1V69.19A.1.1,0,0,1,148.33,69.29Z"/><path class="cls-7" d="M151.34,69.29a.09.09,0,0,1-.1-.1V52.41a.09.09,0,0,1,.1-.1.1.1,0,0,1,.1.1V69.19A.1.1,0,0,1,151.34,69.29Z"/><path class="cls-7" d="M153.49,69.29a.1.1,0,0,1-.1-.1V52.41a.1.1,0,0,1,.1-.1.09.09,0,0,1,.1.1V69.19A.09.09,0,0,1,153.49,69.29Z"/><rect class="cls-14" x="107.65" y="180.53" width="2.45" height="26.52"/><path class="cls-14" d="M98.14,207.56h21.48v-.73a.87.87,0,0,0-.87-.86H99.08a.94.94,0,0,0-.94.93Z"/><rect class="cls-14" x="94.95" y="174.59" width="27.01" height="7.66" rx="2.64"/><path class="cls-15" d="M60,203c-1.1-.53-9.52-3.53-11.63-6.73a.73.73,0,0,1,.37-.15,26.27,26.27,0,0,1,11.34.93L62.28,199a4.48,4.48,0,0,1-.72,4A1.7,1.7,0,0,1,60,203Z"/><path class="cls-7" d="M48.33,196.29c2.11,3.2,10.53,6.2,11.63,6.73a1.7,1.7,0,0,0,1.6,0h0a1.41,1.41,0,0,1-1.71.52c-2.37-.93-8.41-3.46-11.54-6.05A.75.75,0,0,1,48.33,196.29Z"/><path class="cls-16" d="M60.25,205.83c-1.1-.54-9.52-3.54-11.63-6.74a.73.73,0,0,1,.37-.15,26.27,26.27,0,0,1,11.34.93l2.24,1.91a4.48,4.48,0,0,1-.72,4A1.69,1.69,0,0,1,60.25,205.83Z"/><path class="cls-7" d="M48.62,199.09c2.11,3.2,10.53,6.2,11.63,6.74a1.69,1.69,0,0,0,1.6,0h0a1.4,1.4,0,0,1-1.7.52c-2.37-.93-8.42-3.46-11.55-6A.75.75,0,0,1,48.62,199.09Z"/><path class="cls-17" d="M61.79,195.25a5.2,5.2,0,0,0,2.54,2.58l-2.21,1.54a2.36,2.36,0,0,1-1.69-.52,1.24,1.24,0,0,1-.15-1.67C60.78,196.52,61.28,195.88,61.79,195.25Z"/><path class="cls-18" d="M61.74,194.55c17.86-22,39.91-27.76,39.91-27.76l-.56,5.45L64,198.2a5.77,5.77,0,0,1-2.34-2.74A.88.88,0,0,1,61.74,194.55Z"/><path class="cls-19" d="M62.27,197.24a4.48,4.48,0,0,0,2.32,3.23c-.68.52-1.33,1-2,1.57a1.05,1.05,0,0,1-.9.23,2.21,2.21,0,0,1-1.83-1.7,1,1,0,0,1,.2-.86C60.48,199.27,61.22,198.4,62.27,197.24Z"/><path class="cls-20" d="M62.13,196.93c5.57-6.1,19.28-19.39,34.34-24.91a5.16,5.16,0,0,0,2.85-2.6l2.25-4.7s11-2.57,17.75,4.51c0,0-.42,6.74-8.91,9.2-7.94,2.3-31.44,11.64-45.3,22.1a.9.9,0,0,1-1.08,0,6.81,6.81,0,0,1-2.09-2.67A.93.93,0,0,1,62.13,196.93Z"/><path class="cls-21" d="M120.51,169.14s-2.24,1-6.08-.79-14.28-1.95-14.28-1.95,3.38-12.66-4.14-21.72c0,0-6.05,11.33-10.31,13l-1.9.09V149.7s1.61-10,11.84-17.43l3.18-2.87s11.19-2.25,18.8,11.1S120.51,169.14,120.51,169.14Z"/><path class="cls-22" d="M83.15,134.23a4.22,4.22,0,0,1,1.21-3.47,3.53,3.53,0,0,1,4.13-1,7.13,7.13,0,0,1,2.56,3.56.59.59,0,0,1-.83.73l-1-.53c-.33.95-3.55,2-3.55,2h0c0,2.08,0,8.15,1.5,12.38.58,1.65,1.76,4.73-2.13,10l-2.14-.08S78.11,149.59,83.15,134.23Z"/><path class="cls-23" d="M94,121.89l6,8.42a1.39,1.39,0,0,1-.12,1.77,7.49,7.49,0,0,1-3.62,2.35,1.14,1.14,0,0,1-1.16-.5l-3.17-4.86S91.31,121.43,94,121.89Z"/><path class="cls-24" d="M82,121.26c0,.16,6.38,9.08,6.38,9.08l5-3.72-4.75-9.35S81.22,118.6,82,121.26Z"/><path class="cls-25" d="M88.39,120.11l2.77,4.53a.9.9,0,0,1,.13.32c.13.5.31,1.82-1.12,2a10.22,10.22,0,0,0-2.81.65,1.12,1.12,0,0,0-.4,1.67,33.65,33.65,0,0,0,2.83,3.44,1.13,1.13,0,0,0,1.54.07A24.45,24.45,0,0,0,95,129a1.11,1.11,0,0,0,.09-1.15c-.69-1.4-2.38-4.89-2.72-6s.52-2.07,1-2.58a1.13,1.13,0,0,0,.3-.88,1.93,1.93,0,0,0-2.13-1.92,1.15,1.15,0,0,1-1.16-1,2,2,0,0,0-2.12-1.81,2.79,2.79,0,0,0-2.7,1.94,1.1,1.1,0,0,1-1,.67.59.59,0,0,0-.39.17,1.11,1.11,0,0,1-1.43.13,2.29,2.29,0,0,0-2.81,0c-2.3,1.53-1.36,4.43,0,5.76s3.79-.47,4.77-1.89a3.15,3.15,0,0,1,2.88-.94A1.12,1.12,0,0,1,88.39,120.11Z"/><path class="cls-26" d="M93.38,123.62s-2.3-2.42-1.55-3.59,2.47-1.5,3,.74C95.59,123.55,93.38,123.62,93.38,123.62Z"/><path class="cls-27" d="M110.11,130.62s12,7.67,14.64,16.56-3.25,10.65-8.86,11.44l-.42-6.79s3.92,0,1.42-3.72-9.24-6.19-9.24-6.19S90.6,125.83,110.11,130.62Z"/><path class="cls-28" d="M115.47,152c.07,0,1.69,0,2.24-1,.37-.7.14-1.68-.69-2.91-2.51-3.72-9-6.15-9.31-6.25a.16.16,0,0,0-.11.29c.07,0,6.71,2.5,9.16,6.13.76,1.13,1,2,.67,2.59-.46.87-2,.88-2,.88a.16.16,0,0,0-.16.16A.16.16,0,0,0,115.47,152Z"/><path class="cls-5" d="M89.9,157.77h4.63a1.11,1.11,0,0,0,1.11-1.05l.6-11.45a1.11,1.11,0,0,0-1.11-1.18H89.54a1.12,1.12,0,0,0-1.12,1.15l.36,11.45A1.12,1.12,0,0,0,89.9,157.77Z"/><path class="cls-29" d="M95.22,149.85,94.69,156a1,1,0,0,1-1,.91H90.82a1,1,0,0,1-1-.89l-.67-6.6Z"/><path class="cls-7" d="M93.31,207.56a.94.94,0,0,0,.37-.07,1,1,0,0,0,.48-1.24l-19.33-46a.91.91,0,0,0-1.21-.49,1,1,0,0,0-.48,1.24l19.33,46A.91.91,0,0,0,93.31,207.56Z"/><path class="cls-7" d="M71.54,207.56a.92.92,0,0,0,.85-.57l19.33-46a1,1,0,0,0-.49-1.24.91.91,0,0,0-1.21.49l-19.33,46a1,1,0,0,0,.49,1.24A.92.92,0,0,0,71.54,207.56Z"/><path class="cls-14" d="M62.51,158.85a1.93,1.93,0,0,1,.09-.81c.09-.22.21-.35.34-.35h44.93c.18,0,.34.2.43.52a2.27,2.27,0,0,1,0,1.07l-.49,2.31c-.11.53-.35.87-.62.87h-44c-.25,0-.46-.39-.5-.92Z"/><path class="cls-30" d="M115.89,158.62a6.07,6.07,0,0,0-.56-6.37l-15.51,2.57s-7.43-1.26-7.78-1.23-5.21,3-5.21,3,.17.35,1.32.28.4.14.4.14l0,.59A1.6,1.6,0,0,0,90,157.1a5.84,5.84,0,0,1,2.44-1s3.8,2.81,7.54,1.45Z"/><path class="cls-5" d="M198.82,207.26H179.37c-2.49,0-4.55-1.12-4.68-2.54l-2.54-27.55c-.14-1.54,2-2.83,4.69-2.83h23.5c2.66,0,4.78,1.25,4.7,2.77l-1.52,27.55C203.44,206.11,201.36,207.26,198.82,207.26Z"/><path class="cls-31" d="M176.47,188.2l2.21,14.8c.19,1.24,2,2.18,4.15,2.18H195c2.14,0,3.93-.92,4.14-2.14l2.8-15.88Z"/><path class="cls-32" d="M130.13,61.63a19.32,19.32,0,0,0-1.86,7.21,20.8,20.8,0,0,1-1.76,7.24c-1.15,2.21-3.39,4-5.88,4-3.24-.09-5.7-3.19-8.9-3.68-3.49-.53-6.7,2.23-8.41,5.33s-2.45,6.66-4.22,9.72c-3,5.21-8.67,8.36-14.34,10.41a37.14,37.14,0,0,1-15.64,2.49A21,21,0,0,1,55,97.69C51.79,94,50.29,89,49.93,84.09a32,32,0,0,1,8.23-24.21c6-6.37,15.29-9.72,23.91-8.08a14.38,14.38,0,0,1,5.84,2.32c2.16,1.58,3.6,3.93,5.3,6a5.83,5.83,0,0,0,2.66,2.07,5.91,5.91,0,0,0,2.58,0,43.52,43.52,0,0,1,6.31-.87,8.18,8.18,0,0,1,5.88,2c1.72,1.71,2.21,4.34,3.81,6.17a6.66,6.66,0,0,0,8.39,1.12c4.35-2.89,4-9.92,8.08-13.14,1.05-.81,6.72-2,5.5-.55-.48.58-2.79,1-3.59,1.62A9.86,9.86,0,0,0,130.13,61.63Z"/><path class="cls-33" d="M76.1,56.18c-10.21,0-18.49,8.23-18.49,17.87a13.13,13.13,0,0,0,5.64,11.14,4.45,4.45,0,0,1,1.88,3.62v5.71a3,3,0,0,0,3,3H84a3,3,0,0,0,3-3V88.81A4.42,4.42,0,0,1,89,85.19a13.13,13.13,0,0,0,5.64-11.14C94.59,64.41,86.31,56.18,76.1,56.18ZM67.74,79a4.4,4.4,0,0,1-4.39-4.39c0-2.43,2.8-4.39,5.23-4.39s3.55,2,3.55,4.39A4.39,4.39,0,0,1,67.74,79Zm7.77,2.45c-.5,2.58-3.26,3.78-3.43,2.4-.14-1.13,2-2.27,3-2.73A.3.3,0,0,1,75.51,81.41Zm4.61,2.4c-.17,1.38-2.93.18-3.43-2.4a.3.3,0,0,1,.42-.33C78.11,81.54,80.26,82.68,80.12,83.81Zm4.34-4.65a4.38,4.38,0,0,1-4.39-4.38c0-2.43,1.13-4.39,3.55-4.39s5.23,2,5.23,4.39A4.39,4.39,0,0,1,84.46,79.16Z"/><path class="cls-34" d="M69.57,96.82a.21.21,0,0,1-.21-.21v-7.1a.21.21,0,0,1,.21-.21.2.2,0,0,1,.2.21v7.1A.2.2,0,0,1,69.57,96.82Z"/><path class="cls-35" d="M72.18,96.82a.21.21,0,0,1-.21-.21v-7.1a.21.21,0,0,1,.21-.21.21.21,0,0,1,.21.21v7.1A.21.21,0,0,1,72.18,96.82Z"/><path class="cls-36" d="M74.79,96.82a.21.21,0,0,1-.21-.21v-7.1a.21.21,0,1,1,.42,0v7.1A.21.21,0,0,1,74.79,96.82Z"/><path class="cls-37" d="M77.4,96.82a.21.21,0,0,1-.21-.21v-7.1a.21.21,0,0,1,.21-.21.21.21,0,0,1,.21.21v7.1A.21.21,0,0,1,77.4,96.82Z"/><path class="cls-38" d="M80,96.82a.21.21,0,0,1-.21-.21v-7.1A.21.21,0,0,1,80,89.3a.21.21,0,0,1,.21.21v7.1A.21.21,0,0,1,80,96.82Z"/><path class="cls-39" d="M82.63,96.82a.21.21,0,0,1-.21-.21v-7.1a.21.21,0,0,1,.21-.21.2.2,0,0,1,.2.21v7.1A.2.2,0,0,1,82.63,96.82Z"/></g></g></g></svg>