<svg id="Capa_1" data-name="Capa 1" xmlns="http://www.w3.org/2000/svg" viewBox="0 0 191.05 138.45"><defs><style>.cls-1{opacity:0.3;}.cls-2{fill:#fff;}.cls-3{fill:#96989b;}.cls-4{fill:#231f20;}</style></defs><path class="cls-1" d="M4.28,19c8.34-12.78,27.79-8.27,42.66-8.3,2.67-.05,5.4-.15,8.18-.27,19.47-.85,41.38-2.89,59.44-1.39a93.4,93.4,0,0,1,12.16,1.73c35.86,12.32,23.11,56.27,21.05,79.41,5.37,6.7,15.75,15,34.86,17,0,0-19.21,1.56-34.08,6.42-.66,8.61-4.07,16.57-16.89,22.06a40.43,40.43,0,0,1-10.22,1.18c-3.79.13-7.48.14-11.12.08s-7.24-.19-10.83-.33c-10.59-.88-21.29-.46-32,0-2.67.13-5.34.26-8,.37-17.62-.47-41.5,7.19-51.23-9C-4.08,108.5,3.88,84.68.94,62.88c-.3-2.4-.58-4.78-.76-7.14C-.35,48.69.11,25.06,4.28,19Z"/><path class="cls-2" d="M9.87,11.51C18.2-1.27,37.66,3.24,52.53,3.22c2.66-.06,5.39-.16,8.18-.28C80.17,2.1,102.09.05,120.15,1.55a95.15,95.15,0,0,1,12.16,1.73c31.47,10.82,25.49,49.88,22.17,70.8a16.68,16.68,0,0,0,6.83,16.14c6.05,4.37,14.7,8.22,26.91,9.48a193.54,193.54,0,0,0-26.94,4.38,11,11,0,0,0-8.07,7.69c-1.73,6.39-6,12.15-16,16.41A40.46,40.46,0,0,1,127,129.35c-3.79.14-7.48.15-11.12.09s-7.23-.19-10.82-.33c-10.6-.89-21.29-.46-32,0l-8,.37c-17.61-.47-41.49,7.19-51.22-9C1.5,101,9.47,77.15,6.53,55.36c-.3-2.41-.59-4.79-.76-7.14C5.23,41.17,5.7,17.53,9.87,11.51Z"/><path class="cls-3" d="M155,81.3A16.55,16.55,0,0,1,151.16,68c1.92-12,4.7-41.37.72-51.84,8.47,11.5,4.9,43.46,2.6,58A16.41,16.41,0,0,0,155,81.3Z"/><path class="cls-3" d="M61.8,123.41l8-.36c10.67-.5,21.37-.93,32,0,3.6.14,7.19.27,10.83.33s7.33,0,11.12-.08a40.43,40.43,0,0,0,10.22-1.18c9.95-4.26,14.23-10,16-16.4A11,11,0,0,1,158,98c4.35-1.08,8.74-1.92,12.69-2.57a61.27,61.27,0,0,0,17.56,4.29,193.54,193.54,0,0,0-26.94,4.38,11,11,0,0,0-8.07,7.69c-1.73,6.39-6,12.15-16,16.41A40.46,40.46,0,0,1,127,129.35c-3.79.14-7.48.15-11.12.09s-7.23-.19-10.82-.33c-10.6-.89-21.29-.46-32,0l-8,.37c-17.61-.47-41.49,7.19-51.22-9A40.72,40.72,0,0,1,11,115C20.92,130.39,44.41,123,61.8,123.41Z"/><path class="cls-4" d="M13,121.07c-8.23-13-7.65-28-7.1-42.45.3-7.68.6-15.61-.41-23.14-.31-2.45-.59-4.85-.77-7.19C4.23,41.92,4.36,17.63,9,11,16,.29,30.34,1.11,43,1.84c3.34.19,6.5.36,9.47.36,2.47-.05,5.14-.14,8.15-.27,4.7-.21,9.65-.49,14.44-.76C90.52.3,106.47-.6,120.24.54a94.69,94.69,0,0,1,12.3,1.75l.12,0c30.28,10.41,26.85,47.91,23.53,67.86-.23,1.35-.45,2.7-.67,4a15.66,15.66,0,0,0,6.42,15.17c7.05,5.09,13.79,8,24.25,9l4.86.61c-.14,0-16.3,3.21-29.29,6.43-3.59.88-6.61,3.14-7.53,6.55-2.08,7.71-7.34,13.13-16.55,17.07l-.16.06a41.93,41.93,0,0,1-10.46,1.21c-3.46.12-7.12.15-11.18.08-3.74-.06-7.41-.19-10.89-.33-10.23-.86-20.47-.49-31.82,0l-1.72.09-6.37.28a134,134,0,0,0-14,.68c-4.49.37-9,.74-13.39.74C27.5,132,18.31,129.92,13,121.07Zm52.08,7.43,6.28-.29,1.71-.08c11.44-.53,21.75-.9,32.06,0,3.42.13,7.08.27,10.8.33,4,.07,7.64,0,11.11-.09a39,39,0,0,0,9.87-1.12c8.52-3.66,13.38-8.65,15.28-15.69A12,12,0,0,1,161,103.1a180.44,180.44,0,0,1,19.51-3.57A52.21,52.21,0,0,1,160.67,91a17.65,17.65,0,0,1-7.24-17.11c.22-1.34.44-2.7.67-4,3.33-20,6.47-55.76-22.09-65.61a95.24,95.24,0,0,0-12-1.7c-13.61-1.12-29.48-.22-44.82.64-4.8.27-9.76.56-14.48.76-3,.13-5.7.22-8.22.28-3.06,0-6.25-.18-9.61-.37-12.71-.73-25.86-1.48-32.16,8.19v0c-4.28,6.16-4.39,30-3.93,36.07.17,2.29.46,4.66.76,7.07,1,7.7.73,15.72.43,23.47C7.44,93.53,6.9,107.54,14.8,120c7,11.54,21.76,10.33,36.08,9.15,4.4-.36,8.59-.7,12.52-.7C64,128.48,64.52,128.48,65.07,128.5Z"/><path d="M20.81,34.66c0,.13,0,.25,0,.34a1.09,1.09,0,0,1-.06.23.28.28,0,0,1-.08.12.15.15,0,0,1-.11,0H18.33v7.13a.2.2,0,0,1,0,.13.49.49,0,0,1-.15.09,1.43,1.43,0,0,1-.28,0l-.43,0-.44,0a1.46,1.46,0,0,1-.27,0,.49.49,0,0,1-.15-.09.2.2,0,0,1,0-.13V35.39H14.31a.15.15,0,0,1-.11,0s-.06-.07-.09-.12a1.14,1.14,0,0,1,0-.23c0-.09,0-.21,0-.34s0-.25,0-.35a1.14,1.14,0,0,1,0-.23A.38.38,0,0,1,14.2,34a.21.21,0,0,1,.11,0h6.24a.21.21,0,0,1,.11,0,.36.36,0,0,1,.08.12,1.09,1.09,0,0,1,.06.23C20.81,34.41,20.81,34.53,20.81,34.66Z"/><path d="M25.9,39.31a.69.69,0,0,1-.14.47.5.5,0,0,1-.39.15H21.66a2.53,2.53,0,0,0,.09.7,1.29,1.29,0,0,0,.3.54,1.21,1.21,0,0,0,.52.34,2.13,2.13,0,0,0,.76.12,3.74,3.74,0,0,0,.79-.07,4.71,4.71,0,0,0,.59-.14l.42-.14a.63.63,0,0,1,.26-.07l.11,0a.2.2,0,0,1,.06.09.61.61,0,0,1,0,.17,2.44,2.44,0,0,1,0,.29V42c0,.08,0,.14,0,.19a.21.21,0,0,1,0,.12.23.23,0,0,1-.07.1.77.77,0,0,1-.24.13,2.82,2.82,0,0,1-.51.16c-.2.05-.44.1-.7.14a5.77,5.77,0,0,1-.85.06,4.33,4.33,0,0,1-1.42-.21,2.61,2.61,0,0,1-1-.62,2.72,2.72,0,0,1-.61-1.05,5.12,5.12,0,0,1-.2-1.49,4.79,4.79,0,0,1,.21-1.47A3.16,3.16,0,0,1,20.74,37a2.64,2.64,0,0,1,1-.69,3.35,3.35,0,0,1,1.3-.24,3.23,3.23,0,0,1,1.31.23,2.3,2.3,0,0,1,.89.62,2.58,2.58,0,0,1,.52,1A4.45,4.45,0,0,1,25.9,39Zm-1.67-.49a1.79,1.79,0,0,0-.29-1.14,1.12,1.12,0,0,0-1-.41,1.26,1.26,0,0,0-.57.12,1.08,1.08,0,0,0-.4.33,1.51,1.51,0,0,0-.25.49,2.36,2.36,0,0,0-.1.61Z"/><path d="M31,37c0,.16,0,.3,0,.4a1.18,1.18,0,0,1,0,.25.22.22,0,0,1-.07.12.21.21,0,0,1-.12,0,.3.3,0,0,1-.12,0l-.15,0-.19-.05a.85.85,0,0,0-.23,0,.71.71,0,0,0-.28.06,1.19,1.19,0,0,0-.3.18,2,2,0,0,0-.32.33,4.9,4.9,0,0,0-.36.51v3.8a.28.28,0,0,1,0,.12.37.37,0,0,1-.14.08.93.93,0,0,1-.27,0l-.41,0-.42,0a.8.8,0,0,1-.26,0,.26.26,0,0,1-.14-.08.21.21,0,0,1,0-.12v-6.1a.21.21,0,0,1,0-.12.31.31,0,0,1,.12-.09l.23,0h.72a.9.9,0,0,1,.22,0,.35.35,0,0,1,.11.09.21.21,0,0,1,0,.12v.76a4.2,4.2,0,0,1,.46-.57,3,3,0,0,1,.4-.35,1.64,1.64,0,0,1,.38-.18,1.73,1.73,0,0,1,.38-.05h.2l.21,0,.19.06.12.06a.35.35,0,0,1,.05.08.29.29,0,0,1,0,.11c0,.05,0,.12,0,.22Z"/><path d="M37.21,39.31a.69.69,0,0,1-.14.47.53.53,0,0,1-.39.15H33a2.53,2.53,0,0,0,.09.7,1.19,1.19,0,0,0,.3.54,1.24,1.24,0,0,0,.51.34,2.22,2.22,0,0,0,.77.12,3.74,3.74,0,0,0,.79-.07,5.18,5.18,0,0,0,.59-.14l.41-.14a.67.67,0,0,1,.27-.07l.1,0a.22.22,0,0,1,.07.09.61.61,0,0,1,0,.17,2.44,2.44,0,0,1,0,.29,1.85,1.85,0,0,1,0,.25.92.92,0,0,1,0,.19.34.34,0,0,1,0,.12.36.36,0,0,1-.07.1.77.77,0,0,1-.24.13,3.1,3.1,0,0,1-.51.16c-.2.05-.44.1-.7.14a5.77,5.77,0,0,1-.85.06,4.44,4.44,0,0,1-1.43-.21,2.64,2.64,0,0,1-1-.62,2.6,2.6,0,0,1-.61-1.05,5.12,5.12,0,0,1-.2-1.49,4.79,4.79,0,0,1,.21-1.47A3.16,3.16,0,0,1,32.05,37a2.56,2.56,0,0,1,1-.69,3.35,3.35,0,0,1,1.3-.24,3.23,3.23,0,0,1,1.31.23,2.3,2.3,0,0,1,.89.62,2.56,2.56,0,0,1,.51,1A4.07,4.07,0,0,1,37.21,39Zm-1.67-.49a1.79,1.79,0,0,0-.29-1.14,1.12,1.12,0,0,0-1-.41,1.26,1.26,0,0,0-.57.12,1.2,1.2,0,0,0-.41.33,1.49,1.49,0,0,0-.24.49,2.36,2.36,0,0,0-.1.61Z"/><path d="M42.63,40.81a2,2,0,0,1-.19.92,1.76,1.76,0,0,1-.55.66,2.51,2.51,0,0,1-.84.4,3.92,3.92,0,0,1-1,.14,4.65,4.65,0,0,1-.66,0,5.61,5.61,0,0,1-.55-.13,2.84,2.84,0,0,1-.41-.17.83.83,0,0,1-.24-.15.51.51,0,0,1-.12-.22,1.86,1.86,0,0,1,0-.46,2.92,2.92,0,0,1,0-.32c0-.08,0-.14,0-.19s0-.08.07-.09a.17.17,0,0,1,.1,0,.52.52,0,0,1,.23.09l.36.19c.15.06.32.13.51.19a2.29,2.29,0,0,0,.66.09,1.64,1.64,0,0,0,.41,0,.94.94,0,0,0,.32-.14.53.53,0,0,0,.2-.22A.68.68,0,0,0,41,41a.49.49,0,0,0-.13-.35,1.12,1.12,0,0,0-.33-.26,4.15,4.15,0,0,0-.47-.2l-.54-.21a4.53,4.53,0,0,1-.54-.27,1.92,1.92,0,0,1-.48-.37,1.76,1.76,0,0,1-.33-.53A2,2,0,0,1,38,38a2,2,0,0,1,.17-.81,1.76,1.76,0,0,1,.5-.62,2.22,2.22,0,0,1,.78-.41,3.66,3.66,0,0,1,1-.14,3.36,3.36,0,0,1,.56,0,4.67,4.67,0,0,1,.49.1,1.92,1.92,0,0,1,.37.14.9.9,0,0,1,.21.12.31.31,0,0,1,.1.1.5.5,0,0,1,0,.13.72.72,0,0,1,0,.17,2.1,2.1,0,0,1,0,.27,2.63,2.63,0,0,1,0,.3.74.74,0,0,1,0,.18s0,.08-.07.09a.14.14,0,0,1-.09,0,.56.56,0,0,1-.19-.07l-.33-.16-.45-.15a2.1,2.1,0,0,0-.58-.07,1.68,1.68,0,0,0-.41,0,1,1,0,0,0-.28.14.54.54,0,0,0-.16.21.55.55,0,0,0-.06.26.52.52,0,0,0,.13.35,1,1,0,0,0,.35.25,2.67,2.67,0,0,0,.48.21l.54.21a3.94,3.94,0,0,1,.55.26,1.92,1.92,0,0,1,.48.37,1.67,1.67,0,0,1,.34.52A1.81,1.81,0,0,1,42.63,40.81Z"/><path d="M45.5,34.37a1,1,0,0,1-.21.72,1.19,1.19,0,0,1-.79.2,1.13,1.13,0,0,1-.78-.19.92.92,0,0,1-.2-.69,1,1,0,0,1,.2-.72,1.68,1.68,0,0,1,1.57,0A.92.92,0,0,1,45.5,34.37Zm-.13,8.17a.19.19,0,0,1,0,.12.37.37,0,0,1-.14.08.93.93,0,0,1-.27,0l-.41,0-.42,0a.8.8,0,0,1-.26,0,.26.26,0,0,1-.14-.08.19.19,0,0,1,0-.12V36.45a.19.19,0,0,1,0-.12.33.33,0,0,1,.14-.09,1.2,1.2,0,0,1,.26-.05,2.56,2.56,0,0,1,.42,0,2.37,2.37,0,0,1,.41,0,1.46,1.46,0,0,1,.27.05.56.56,0,0,1,.14.09.19.19,0,0,1,0,.12Z"/><path d="M50.41,41.94a2.69,2.69,0,0,1,0,.46.57.57,0,0,1-.1.22.51.51,0,0,1-.18.12l-.28.09-.35.06-.38,0a2.93,2.93,0,0,1-.89-.13,1.48,1.48,0,0,1-.62-.4,1.54,1.54,0,0,1-.36-.68,3.52,3.52,0,0,1-.12-1V37.6h-.73c-.09,0-.15-.05-.2-.16a1.43,1.43,0,0,1-.07-.54,2.92,2.92,0,0,1,0-.33,1,1,0,0,1,.05-.22.24.24,0,0,1,.08-.11.27.27,0,0,1,.12,0h.73V34.85a.2.2,0,0,1,0-.13.36.36,0,0,1,.13-.09,1.46,1.46,0,0,1,.27-.05l.41,0,.42,0a1.31,1.31,0,0,1,.27.05.36.36,0,0,1,.13.09.21.21,0,0,1,0,.13v1.36h1.32a.21.21,0,0,1,.12,0s.06.06.09.11a1,1,0,0,1,0,.22,3.22,3.22,0,0,1,0,.33,1.73,1.73,0,0,1-.06.54c-.05.11-.11.16-.2.16H48.82v2.87a1.44,1.44,0,0,0,.15.74.61.61,0,0,0,.56.25,1,1,0,0,0,.25,0l.19,0,.15-.06a.2.2,0,0,1,.1,0,.11.11,0,0,1,.08,0,.14.14,0,0,1,.06.1,1.49,1.49,0,0,1,0,.19A2.92,2.92,0,0,1,50.41,41.94Z"/><path d="M56.44,42.56a.21.21,0,0,1-.07.15.68.68,0,0,1-.22.08l-.43,0-.45,0a.55.55,0,0,1-.2-.08.2.2,0,0,1,0-.15v-.49a2.89,2.89,0,0,1-.86.63,2.5,2.5,0,0,1-1.07.23,3.08,3.08,0,0,1-.89-.13,1.87,1.87,0,0,1-.71-.38,1.64,1.64,0,0,1-.46-.61,2.14,2.14,0,0,1-.16-.87,2,2,0,0,1,.2-.92,1.7,1.7,0,0,1,.63-.65,3,3,0,0,1,1-.38,7.45,7.45,0,0,1,1.42-.12h.6V38.5a2,2,0,0,0-.06-.51.79.79,0,0,0-.19-.35.81.81,0,0,0-.36-.22,2.09,2.09,0,0,0-.55-.06,3.07,3.07,0,0,0-.77.09l-.59.21-.44.21a.56.56,0,0,1-.28.1.24.24,0,0,1-.14,0,.33.33,0,0,1-.09-.13,1.16,1.16,0,0,1-.06-.22,2.48,2.48,0,0,1,0-.29,1,1,0,0,1,0-.33.51.51,0,0,1,.12-.23,1.67,1.67,0,0,1,.34-.22,4.37,4.37,0,0,1,.56-.22,6,6,0,0,1,.7-.17,5,5,0,0,1,.78-.06,4.84,4.84,0,0,1,1.23.14,2.09,2.09,0,0,1,.84.43,1.62,1.62,0,0,1,.48.75,3.5,3.5,0,0,1,.15,1.09ZM54.75,40h-.66a3.62,3.62,0,0,0-.71.06,1.5,1.5,0,0,0-.48.18.77.77,0,0,0-.27.3,1,1,0,0,0-.08.4.77.77,0,0,0,.24.6,1,1,0,0,0,.67.22,1.29,1.29,0,0,0,.67-.18,3.27,3.27,0,0,0,.62-.54Z"/><path d="M66.54,45a.19.19,0,0,1,0,.12.24.24,0,0,1-.14.09.77.77,0,0,1-.26.06l-.41,0-.42,0a.77.77,0,0,1-.26-.06.24.24,0,0,1-.14-.09.28.28,0,0,1,0-.12v-2.9a4.11,4.11,0,0,1-.48.39,2.75,2.75,0,0,1-.46.27,1.81,1.81,0,0,1-.48.16,2.87,2.87,0,0,1-.52,0,2.26,2.26,0,0,1-1.14-.27,2.34,2.34,0,0,1-.77-.73,3.2,3.2,0,0,1-.43-1.07,6,6,0,0,1-.14-1.29,5.45,5.45,0,0,1,.18-1.46A3.26,3.26,0,0,1,61.11,37a2.11,2.11,0,0,1,.84-.7,2.5,2.5,0,0,1,1.15-.25,2.63,2.63,0,0,1,.49.05,1.75,1.75,0,0,1,.46.18,2.63,2.63,0,0,1,.49.33c.16.13.35.3.55.49v-.66a.21.21,0,0,1,0-.12.48.48,0,0,1,.13-.09.9.9,0,0,1,.22,0h.7a.9.9,0,0,1,.22,0,.31.31,0,0,1,.12.09.21.21,0,0,1,0,.12Zm-1.71-6.5a3.93,3.93,0,0,0-.7-.71,1.24,1.24,0,0,0-.71-.24,1,1,0,0,0-.58.16,1.31,1.31,0,0,0-.39.45,2.47,2.47,0,0,0-.22.63,3.26,3.26,0,0,0-.07.7,4.56,4.56,0,0,0,.06.75,2.36,2.36,0,0,0,.2.65,1.2,1.2,0,0,0,.38.45,1,1,0,0,0,.58.17,1.34,1.34,0,0,0,.35,0,1.2,1.2,0,0,0,.34-.17,2.38,2.38,0,0,0,.36-.3c.12-.13.26-.28.4-.46Z"/><path d="M73.77,42.54a.27.27,0,0,1,0,.12.23.23,0,0,1-.12.08.65.65,0,0,1-.22,0l-.36,0-.36,0a.66.66,0,0,1-.23,0,.24.24,0,0,1-.11-.08.28.28,0,0,1,0-.12v-.71a3.71,3.71,0,0,1-1,.82,2.24,2.24,0,0,1-1.09.28,2.34,2.34,0,0,1-1-.21,1.75,1.75,0,0,1-.69-.56,2.29,2.29,0,0,1-.38-.82A4.84,4.84,0,0,1,68,40.17V36.44a.21.21,0,0,1,0-.12.56.56,0,0,1,.14-.09,1.46,1.46,0,0,1,.27,0h.83a1.2,1.2,0,0,1,.26,0,.42.42,0,0,1,.14.09.16.16,0,0,1,0,.12v3.44a3.47,3.47,0,0,0,.06.74,1.69,1.69,0,0,0,.19.43,1,1,0,0,0,.32.28,1,1,0,0,0,.46.1,1.12,1.12,0,0,0,.66-.24,4.18,4.18,0,0,0,.71-.7V36.44a.21.21,0,0,1,0-.12.42.42,0,0,1,.14-.09,1.33,1.33,0,0,1,.26,0h.84a1.33,1.33,0,0,1,.26,0,.36.36,0,0,1,.13.09.16.16,0,0,1,0,.12Z"/><path d="M80.86,39.31a.69.69,0,0,1-.14.47.53.53,0,0,1-.39.15H76.62a2.53,2.53,0,0,0,.09.7,1.27,1.27,0,0,0,.29.54,1.35,1.35,0,0,0,.52.34,2.22,2.22,0,0,0,.77.12,3.74,3.74,0,0,0,.79-.07,5.18,5.18,0,0,0,.59-.14l.41-.14a.67.67,0,0,1,.27-.07l.1,0a.22.22,0,0,1,.07.09.61.61,0,0,1,0,.17,2.44,2.44,0,0,1,0,.29,1.85,1.85,0,0,1,0,.25.92.92,0,0,1,0,.19.34.34,0,0,1,0,.12.36.36,0,0,1-.07.1.77.77,0,0,1-.24.13,3.1,3.1,0,0,1-.51.16c-.2.05-.44.1-.7.14a5.77,5.77,0,0,1-.85.06,4.44,4.44,0,0,1-1.43-.21,2.57,2.57,0,0,1-1-.62,2.6,2.6,0,0,1-.61-1.05,5.12,5.12,0,0,1-.2-1.49,4.79,4.79,0,0,1,.21-1.47A3.16,3.16,0,0,1,75.7,37a2.56,2.56,0,0,1,1-.69,3.31,3.31,0,0,1,1.3-.24,3.27,3.27,0,0,1,1.31.23,2.3,2.3,0,0,1,.89.62,2.56,2.56,0,0,1,.51,1A4.07,4.07,0,0,1,80.86,39Zm-1.67-.49a1.79,1.79,0,0,0-.29-1.14,1.12,1.12,0,0,0-1-.41,1.26,1.26,0,0,0-.57.12,1.11,1.11,0,0,0-.41.33,1.49,1.49,0,0,0-.24.49,2.36,2.36,0,0,0-.1.61Z"/><path d="M86.73,34.37a1,1,0,0,1-.21.72,1.19,1.19,0,0,1-.79.2A1.13,1.13,0,0,1,85,35.1a.92.92,0,0,1-.2-.69,1,1,0,0,1,.2-.72,1.68,1.68,0,0,1,1.57,0A.92.92,0,0,1,86.73,34.37Zm-.13,8.17a.19.19,0,0,1,0,.12.37.37,0,0,1-.14.08.93.93,0,0,1-.27,0l-.41,0-.42,0a.8.8,0,0,1-.26,0,.3.3,0,0,1-.14-.08.19.19,0,0,1,0-.12V36.45a.19.19,0,0,1,0-.12.42.42,0,0,1,.14-.09,1.2,1.2,0,0,1,.26-.05,2.56,2.56,0,0,1,.42,0,2.37,2.37,0,0,1,.41,0,1.46,1.46,0,0,1,.27.05.56.56,0,0,1,.14.09.19.19,0,0,1,0,.12Z"/><path d="M93.86,42.54a.19.19,0,0,1,0,.12.37.37,0,0,1-.14.08.8.8,0,0,1-.26,0l-.42,0-.42,0a.8.8,0,0,1-.26,0,.37.37,0,0,1-.14-.08.28.28,0,0,1,0-.12V39.06a3.18,3.18,0,0,0-.06-.7,1.55,1.55,0,0,0-.19-.43.79.79,0,0,0-.32-.28.93.93,0,0,0-.45-.1,1.17,1.17,0,0,0-.67.24,3.73,3.73,0,0,0-.69.69v4.06a.28.28,0,0,1,0,.12.37.37,0,0,1-.14.08.93.93,0,0,1-.27,0l-.41,0-.42,0a.8.8,0,0,1-.26,0,.26.26,0,0,1-.14-.08.21.21,0,0,1,0-.12v-6.1a.21.21,0,0,1,0-.12.31.31,0,0,1,.12-.09l.23,0h.72a.9.9,0,0,1,.22,0,.35.35,0,0,1,.11.09.21.21,0,0,1,0,.12v.7a4.35,4.35,0,0,1,1-.82,2.37,2.37,0,0,1,1.09-.27,2.49,2.49,0,0,1,1,.2,1.83,1.83,0,0,1,.69.56,2.11,2.11,0,0,1,.38.83,4.6,4.6,0,0,1,.12,1.13Z"/><path d="M98.75,41.94a2.52,2.52,0,0,1,0,.46.57.57,0,0,1-.1.22.51.51,0,0,1-.18.12l-.28.09-.35.06-.38,0a2.93,2.93,0,0,1-.89-.13,1.48,1.48,0,0,1-.62-.4,1.64,1.64,0,0,1-.36-.68,3.52,3.52,0,0,1-.12-1V37.6H94.7c-.09,0-.15-.05-.2-.16a1.67,1.67,0,0,1-.07-.54,2.92,2.92,0,0,1,0-.33,1,1,0,0,1,0-.22.2.2,0,0,1,.09-.11.21.21,0,0,1,.12,0h.72V34.85a.2.2,0,0,1,0-.13.33.33,0,0,1,.14-.09,1.2,1.2,0,0,1,.26-.05l.42,0,.42,0a1.2,1.2,0,0,1,.26.05.56.56,0,0,1,.14.09.28.28,0,0,1,0,.13v1.36h1.32a.21.21,0,0,1,.12,0,.2.2,0,0,1,.09.11,1,1,0,0,1,0,.22,2.92,2.92,0,0,1,0,.33,1.67,1.67,0,0,1-.07.54c-.05.11-.11.16-.2.16H97.15v2.87a1.44,1.44,0,0,0,.15.74.62.62,0,0,0,.56.25.94.94,0,0,0,.25,0l.2,0,.14-.06a.22.22,0,0,1,.11,0,.1.1,0,0,1,.07,0,.14.14,0,0,1,.06.1.69.69,0,0,1,0,.19A2.58,2.58,0,0,1,98.75,41.94Z"/><path d="M105.17,39.31a.65.65,0,0,1-.14.47.49.49,0,0,1-.38.15h-3.72a2.52,2.52,0,0,0,.1.7,1.25,1.25,0,0,0,.81.88,2.16,2.16,0,0,0,.76.12,3.84,3.84,0,0,0,.8-.07,5.75,5.75,0,0,0,.59-.14l.41-.14a.67.67,0,0,1,.27-.07l.1,0a.22.22,0,0,1,.07.09.61.61,0,0,1,0,.17c0,.08,0,.17,0,.29s0,.18,0,.25,0,.14,0,.19a.34.34,0,0,1,0,.12.25.25,0,0,1-.08.1.66.66,0,0,1-.24.13,3,3,0,0,1-.5.16c-.21.05-.44.1-.71.14a5.53,5.53,0,0,1-.84.06,4.4,4.4,0,0,1-1.43-.21,2.44,2.44,0,0,1-1.63-1.67,4.78,4.78,0,0,1-.21-1.49,4.5,4.5,0,0,1,.22-1.47A3.14,3.14,0,0,1,100,37a2.73,2.73,0,0,1,1-.69,3.38,3.38,0,0,1,1.3-.24,3.2,3.2,0,0,1,1.31.23,2.34,2.34,0,0,1,.9.62,2.56,2.56,0,0,1,.51,1,4.08,4.08,0,0,1,.16,1.19Zm-1.67-.49a1.73,1.73,0,0,0-.29-1.14,1.09,1.09,0,0,0-1-.41,1.26,1.26,0,0,0-.57.12,1.16,1.16,0,0,0-.4.33,1.51,1.51,0,0,0-.25.49,2.88,2.88,0,0,0-.1.61Z"/><path d="M110.23,37c0,.16,0,.3,0,.4a1.18,1.18,0,0,1,0,.25.22.22,0,0,1-.07.12.2.2,0,0,1-.11,0,.32.32,0,0,1-.13,0l-.15,0-.19-.05a.78.78,0,0,0-.22,0,.72.72,0,0,0-.29.06,1.19,1.19,0,0,0-.3.18,2,2,0,0,0-.32.33q-.17.21-.36.51v3.8a.19.19,0,0,1,0,.12.3.3,0,0,1-.14.08.86.86,0,0,1-.26,0l-.42,0-.42,0a.86.86,0,0,1-.26,0,.3.3,0,0,1-.14-.08.19.19,0,0,1,0-.12v-6.1a.21.21,0,0,1,0-.12.36.36,0,0,1,.13-.09,1,1,0,0,1,.23,0h.71a.9.9,0,0,1,.22,0,.35.35,0,0,1,.11.09.16.16,0,0,1,0,.12v.76a5.16,5.16,0,0,1,.45-.57,3,3,0,0,1,.4-.35,1.7,1.7,0,0,1,.39-.18,1.58,1.58,0,0,1,.38-.05h.19l.21,0,.19.06a.33.33,0,0,1,.12.06.21.21,0,0,1,.06.08.81.81,0,0,1,0,.11c0,.05,0,.12,0,.22S110.23,36.84,110.23,37Z"/><path d="M116.48,39.31a.69.69,0,0,1-.14.47.5.5,0,0,1-.39.15h-3.71a2.53,2.53,0,0,0,.09.7,1.29,1.29,0,0,0,.3.54,1.27,1.27,0,0,0,.52.34,2.13,2.13,0,0,0,.76.12,3.68,3.68,0,0,0,.79-.07,4.71,4.71,0,0,0,.59-.14l.42-.14a.67.67,0,0,1,.26-.07l.11,0a.35.35,0,0,1,.07.09.65.65,0,0,1,0,.17,2.44,2.44,0,0,1,0,.29V42a1.76,1.76,0,0,0,0,.19.33.33,0,0,1,0,.12.23.23,0,0,1-.07.1.77.77,0,0,1-.24.13,2.82,2.82,0,0,1-.51.16c-.2.05-.44.1-.7.14a5.67,5.67,0,0,1-.85.06,4.38,4.38,0,0,1-1.42-.21,2.5,2.5,0,0,1-1-.62,2.62,2.62,0,0,1-.62-1.05,5.12,5.12,0,0,1-.2-1.49,4.79,4.79,0,0,1,.21-1.47,3.33,3.33,0,0,1,.62-1.11,2.64,2.64,0,0,1,1-.69,3.38,3.38,0,0,1,1.3-.24,3.23,3.23,0,0,1,1.31.23,2.3,2.3,0,0,1,.89.62,2.44,2.44,0,0,1,.52,1,4.08,4.08,0,0,1,.16,1.19Zm-1.67-.49a1.73,1.73,0,0,0-.29-1.14,1.12,1.12,0,0,0-1-.41,1.26,1.26,0,0,0-.57.12,1.08,1.08,0,0,0-.4.33,1.51,1.51,0,0,0-.25.49,2.36,2.36,0,0,0-.1.61Z"/><path d="M121.91,40.81a2,2,0,0,1-.2.92,1.76,1.76,0,0,1-.55.66,2.34,2.34,0,0,1-.84.4,3.86,3.86,0,0,1-1,.14,4.4,4.4,0,0,1-.65,0,5.22,5.22,0,0,1-.56-.13,3.41,3.41,0,0,1-.41-.17.83.83,0,0,1-.24-.15.51.51,0,0,1-.12-.22,2.52,2.52,0,0,1,0-.46,2.58,2.58,0,0,1,0-.32.78.78,0,0,1,0-.19c0-.05,0-.08.07-.09a.15.15,0,0,1,.1,0,.5.5,0,0,1,.22.09l.37.19a4.69,4.69,0,0,0,.51.19,2.19,2.19,0,0,0,.66.09,1.7,1.7,0,0,0,.41,0,1,1,0,0,0,.31-.14.53.53,0,0,0,.2-.22.68.68,0,0,0,.07-.32.53.53,0,0,0-.12-.35,1.33,1.33,0,0,0-.34-.26,3.49,3.49,0,0,0-.47-.2l-.54-.21q-.27-.12-.54-.27a1.87,1.87,0,0,1-.47-.37,1.79,1.79,0,0,1-.34-.53,2,2,0,0,1-.12-.73,1.81,1.81,0,0,1,.17-.81,1.73,1.73,0,0,1,.49-.62,2.32,2.32,0,0,1,.78-.41,3.74,3.74,0,0,1,1-.14,3.43,3.43,0,0,1,.56,0,4.45,4.45,0,0,1,.48.1,1.92,1.92,0,0,1,.37.14,1,1,0,0,1,.22.12.41.41,0,0,1,.09.1.5.5,0,0,1,0,.13s0,.1,0,.17,0,.16,0,.27,0,.22,0,.3a.69.69,0,0,1,0,.18.13.13,0,0,1-.06.09.17.17,0,0,1-.1,0,.64.64,0,0,1-.19-.07l-.32-.16-.46-.15a2,2,0,0,0-.58-.07,1.54,1.54,0,0,0-.4,0,.81.81,0,0,0-.28.14.56.56,0,0,0-.17.21.71.71,0,0,0,0,.26.48.48,0,0,0,.13.35,1,1,0,0,0,.34.25,2.67,2.67,0,0,0,.48.21l.55.21a4.43,4.43,0,0,1,.54.26,2.18,2.18,0,0,1,.49.37,1.87,1.87,0,0,1,.34.52A2,2,0,0,1,121.91,40.81Z"/><path d="M128.12,42.56a.21.21,0,0,1-.07.15.68.68,0,0,1-.22.08l-.43,0-.45,0a.55.55,0,0,1-.2-.08.2.2,0,0,1-.06-.15v-.49a2.73,2.73,0,0,1-.85.63,2.54,2.54,0,0,1-1.07.23,3.21,3.21,0,0,1-.9-.13,1.9,1.9,0,0,1-.7-.38,1.64,1.64,0,0,1-.46-.61,2.14,2.14,0,0,1-.17-.87,1.92,1.92,0,0,1,.21-.92,1.7,1.7,0,0,1,.63-.65,3,3,0,0,1,1-.38,7.56,7.56,0,0,1,1.43-.12h.6V38.5a2,2,0,0,0-.06-.51.79.79,0,0,0-.19-.35.81.81,0,0,0-.36-.22,2.15,2.15,0,0,0-.55-.06,3.07,3.07,0,0,0-.77.09l-.6.21-.43.21a.59.59,0,0,1-.28.1.24.24,0,0,1-.14,0,.33.33,0,0,1-.09-.13.71.71,0,0,1-.06-.22,2.48,2.48,0,0,1,0-.29,1.42,1.42,0,0,1,0-.33.65.65,0,0,1,.13-.23,1.67,1.67,0,0,1,.34-.22,4.37,4.37,0,0,1,.56-.22,6,6,0,0,1,.7-.17,4.93,4.93,0,0,1,.78-.06,4.84,4.84,0,0,1,1.23.14,2.09,2.09,0,0,1,.84.43,1.71,1.71,0,0,1,.48.75,3.5,3.5,0,0,1,.15,1.09ZM126.43,40h-.66a3.62,3.62,0,0,0-.71.06,1.34,1.34,0,0,0-.48.18.77.77,0,0,0-.27.3.87.87,0,0,0-.08.4.77.77,0,0,0,.24.6,1,1,0,0,0,.67.22,1.29,1.29,0,0,0,.67-.18,3.27,3.27,0,0,0,.62-.54Z"/><path d="M135.38,42.54a.21.21,0,0,1,0,.12.26.26,0,0,1-.13.08.87.87,0,0,1-.27,0l-.41,0-.42,0a.8.8,0,0,1-.26,0,.3.3,0,0,1-.14-.08.19.19,0,0,1,0-.12V39.06a2.6,2.6,0,0,0-.07-.7,1.3,1.3,0,0,0-.18-.43.86.86,0,0,0-.32-.28,1,1,0,0,0-.46-.1,1.17,1.17,0,0,0-.66.24,4.08,4.08,0,0,0-.7.69v4.06a.19.19,0,0,1,0,.12.26.26,0,0,1-.14.08.8.8,0,0,1-.26,0l-.42,0-.41,0a.93.93,0,0,1-.27,0,.37.37,0,0,1-.14-.08.28.28,0,0,1,0-.12v-6.1a.16.16,0,0,1,0-.12.31.31,0,0,1,.12-.09,1,1,0,0,1,.23,0h.71a.8.8,0,0,1,.22,0,.41.41,0,0,1,.12.09.21.21,0,0,1,0,.12v.7a4.16,4.16,0,0,1,1-.82,2.34,2.34,0,0,1,1.09-.27,2.52,2.52,0,0,1,1.05.2,2,2,0,0,1,.69.56,2.26,2.26,0,0,1,.38.83,4.6,4.6,0,0,1,.12,1.13Z"/><path d="M140.26,41.94a2.69,2.69,0,0,1,0,.46.57.57,0,0,1-.1.22.51.51,0,0,1-.18.12l-.28.09-.35.06-.38,0a2.93,2.93,0,0,1-.89-.13,1.48,1.48,0,0,1-.62-.4,1.66,1.66,0,0,1-.37-.68,4,4,0,0,1-.11-1V37.6h-.73a.21.21,0,0,1-.2-.16,1.43,1.43,0,0,1-.07-.54,2.92,2.92,0,0,1,0-.33,1,1,0,0,1,.05-.22.24.24,0,0,1,.08-.11.27.27,0,0,1,.12,0H137V34.85a.2.2,0,0,1,0-.13.36.36,0,0,1,.13-.09,1.46,1.46,0,0,1,.27-.05l.41,0,.42,0a1.46,1.46,0,0,1,.27.05.36.36,0,0,1,.13.09.2.2,0,0,1,0,.13v1.36H140a.21.21,0,0,1,.12,0,.35.35,0,0,1,.09.11,1,1,0,0,1,.05.22,3.22,3.22,0,0,1,0,.33,1.73,1.73,0,0,1-.06.54c0,.11-.12.16-.2.16h-1.34v2.87a1.43,1.43,0,0,0,.16.74.61.61,0,0,0,.56.25,1,1,0,0,0,.25,0l.19,0,.15-.06a.18.18,0,0,1,.1,0,.11.11,0,0,1,.08,0,.14.14,0,0,1,.06.1,1.49,1.49,0,0,1,0,.19A2.92,2.92,0,0,1,140.26,41.94Z"/><path d="M146.69,39.31a.69.69,0,0,1-.14.47.5.5,0,0,1-.39.15h-3.71a2.53,2.53,0,0,0,.09.7,1.29,1.29,0,0,0,.3.54,1.21,1.21,0,0,0,.52.34,2.13,2.13,0,0,0,.76.12,3.74,3.74,0,0,0,.79-.07,4.71,4.71,0,0,0,.59-.14l.42-.14a.63.63,0,0,1,.26-.07l.11,0a.2.2,0,0,1,.06.09.61.61,0,0,1,0,.17,2.44,2.44,0,0,1,0,.29V42c0,.08,0,.14,0,.19a.21.21,0,0,1,0,.12.23.23,0,0,1-.07.1.77.77,0,0,1-.24.13,2.82,2.82,0,0,1-.51.16c-.2.05-.44.1-.7.14a5.77,5.77,0,0,1-.85.06,4.33,4.33,0,0,1-1.42-.21,2.61,2.61,0,0,1-1-.62,2.72,2.72,0,0,1-.61-1.05,5.12,5.12,0,0,1-.2-1.49,4.79,4.79,0,0,1,.21-1.47,3.16,3.16,0,0,1,.62-1.11,2.64,2.64,0,0,1,1-.69,3.35,3.35,0,0,1,1.3-.24,3.23,3.23,0,0,1,1.31.23,2.3,2.3,0,0,1,.89.62,2.58,2.58,0,0,1,.52,1,4.45,4.45,0,0,1,.16,1.19ZM145,38.82a1.79,1.79,0,0,0-.29-1.14,1.12,1.12,0,0,0-1-.41,1.26,1.26,0,0,0-.57.12,1.08,1.08,0,0,0-.4.33,1.51,1.51,0,0,0-.25.49,2.36,2.36,0,0,0-.1.61Z"/><path d="M32.54,54.47a.62.62,0,0,1-.14.46.49.49,0,0,1-.38.15H28.31a2.6,2.6,0,0,0,.09.71,1.41,1.41,0,0,0,.29.54,1.35,1.35,0,0,0,.52.34,2.18,2.18,0,0,0,.76.11,4.66,4.66,0,0,0,.8-.06,5.75,5.75,0,0,0,.59-.14l.41-.15a.83.83,0,0,1,.27-.06.16.16,0,0,1,.1,0,.22.22,0,0,1,.07.09.61.61,0,0,1,0,.17c0,.08,0,.17,0,.28a2,2,0,0,1,0,.26.9.9,0,0,1,0,.18.5.5,0,0,1,0,.13.61.61,0,0,1-.07.1,1,1,0,0,1-.25.13,4.27,4.27,0,0,1-.5.16,5.68,5.68,0,0,1-.71.13,5.53,5.53,0,0,1-.84.06,4.75,4.75,0,0,1-1.43-.2,2.62,2.62,0,0,1-1-.62,2.58,2.58,0,0,1-.61-1.06,5.41,5.41,0,0,1,0-3,3,3,0,0,1,.61-1.11,2.61,2.61,0,0,1,1-.69,3.4,3.4,0,0,1,1.31-.24,3.46,3.46,0,0,1,1.31.22,2.32,2.32,0,0,1,.89.63,2.52,2.52,0,0,1,.51.94,4.17,4.17,0,0,1,.16,1.19ZM30.88,54a1.81,1.81,0,0,0-.29-1.13,1.12,1.12,0,0,0-1-.42,1.21,1.21,0,0,0-.58.13,1.16,1.16,0,0,0-.4.33,1.32,1.32,0,0,0-.24.49,2.35,2.35,0,0,0-.1.6Z"/><path d="M38,56a2.07,2.07,0,0,1-.19.92,2,2,0,0,1-.55.66,2.51,2.51,0,0,1-.84.4,4,4,0,0,1-1.06.13,3.49,3.49,0,0,1-.65,0,3.86,3.86,0,0,1-.56-.13,2.34,2.34,0,0,1-.41-.16.83.83,0,0,1-.24-.15.55.55,0,0,1-.11-.23,1.72,1.72,0,0,1,0-.45,2.82,2.82,0,0,1,0-.32.78.78,0,0,1,0-.19.2.2,0,0,1,.07-.1l.1,0a.62.62,0,0,1,.23.08,3.78,3.78,0,0,0,.36.19,4.23,4.23,0,0,0,.51.19,2.19,2.19,0,0,0,.66.09,1.32,1.32,0,0,0,.41,0,1,1,0,0,0,.32-.13.63.63,0,0,0,.2-.23.62.62,0,0,0,.07-.31.48.48,0,0,0-.13-.35,1,1,0,0,0-.33-.26l-.48-.21-.54-.21c-.18-.08-.36-.16-.54-.26a2.4,2.4,0,0,1-.47-.37,1.69,1.69,0,0,1-.33-.53,1.85,1.85,0,0,1-.13-.74,1.91,1.91,0,0,1,.17-.8,1.88,1.88,0,0,1,.49-.63,2.55,2.55,0,0,1,.79-.4,3.33,3.33,0,0,1,1-.14,3.43,3.43,0,0,1,.56,0,3.26,3.26,0,0,1,.49.1,2.25,2.25,0,0,1,.37.13.86.86,0,0,1,.21.13.24.24,0,0,1,.1.1.83.83,0,0,1,0,.12c0,.05,0,.11,0,.18a2,2,0,0,1,0,.26,2.45,2.45,0,0,1,0,.3c0,.08,0,.14,0,.19a.22.22,0,0,1-.07.09.15.15,0,0,1-.09,0,.43.43,0,0,1-.2-.07,2,2,0,0,0-.32-.15,3.33,3.33,0,0,0-.45-.16,2.58,2.58,0,0,0-.59-.07,1.56,1.56,0,0,0-.4,0,.74.74,0,0,0-.28.14.54.54,0,0,0-.16.21.54.54,0,0,0-.06.25.52.52,0,0,0,.13.36,1.3,1.3,0,0,0,.34.25,4.79,4.79,0,0,0,.49.21l.54.2a5.6,5.6,0,0,1,.55.27,1.92,1.92,0,0,1,.48.37,1.56,1.56,0,0,1,.34.52A1.75,1.75,0,0,1,38,56Z"/><path d="M42.44,57.09a2.43,2.43,0,0,1,0,.46.55.55,0,0,1-.1.23.5.5,0,0,1-.18.11,1,1,0,0,1-.28.09,1.82,1.82,0,0,1-.35.06,2.42,2.42,0,0,1-.38,0,2.65,2.65,0,0,1-.89-.13,1.39,1.39,0,0,1-.62-.4,1.7,1.7,0,0,1-.36-.68,3.43,3.43,0,0,1-.12-1V52.76h-.73c-.09,0-.15-.06-.2-.16a1.67,1.67,0,0,1-.07-.54,2.92,2.92,0,0,1,0-.33.8.8,0,0,1,0-.22.2.2,0,0,1,.09-.11.16.16,0,0,1,.12,0h.72V50a.19.19,0,0,1,0-.12.21.21,0,0,1,.14-.09.77.77,0,0,1,.26-.06h.84a.77.77,0,0,1,.26.06.22.22,0,0,1,.18.21v1.36h1.32a.16.16,0,0,1,.12,0,.2.2,0,0,1,.09.11.8.8,0,0,1,.05.22,2.92,2.92,0,0,1,0,.33,1.67,1.67,0,0,1-.07.54c0,.1-.11.16-.2.16H40.84v2.86a1.5,1.5,0,0,0,.15.75.62.62,0,0,0,.57.25l.24,0,.2-.06.14,0a.23.23,0,0,1,.11,0,.11.11,0,0,1,.07,0s0,0,.06.09a.88.88,0,0,1,0,.2A2.41,2.41,0,0,1,42.44,57.09Z"/><path d="M48.86,54.47a.62.62,0,0,1-.14.46.49.49,0,0,1-.38.15H44.62a2.59,2.59,0,0,0,.1.71,1.41,1.41,0,0,0,.29.54,1.35,1.35,0,0,0,.52.34,2.18,2.18,0,0,0,.76.11,4.74,4.74,0,0,0,.8-.06,5.75,5.75,0,0,0,.59-.14l.41-.15a.83.83,0,0,1,.27-.06.16.16,0,0,1,.1,0,.22.22,0,0,1,.07.09.61.61,0,0,1,0,.17c0,.08,0,.17,0,.28s0,.19,0,.26,0,.13,0,.18a.5.5,0,0,1,0,.13.61.61,0,0,1-.07.1,1.26,1.26,0,0,1-.25.13,4.27,4.27,0,0,1-.5.16A5.68,5.68,0,0,1,47,58a5.53,5.53,0,0,1-.84.06,4.7,4.7,0,0,1-1.43-.2,2.62,2.62,0,0,1-1-.62,2.47,2.47,0,0,1-.61-1.06,5.17,5.17,0,0,1,0-3,3,3,0,0,1,.61-1.11,2.61,2.61,0,0,1,1-.69,3.82,3.82,0,0,1,2.61,0,2.36,2.36,0,0,1,.9.63,2.52,2.52,0,0,1,.51.94,4.17,4.17,0,0,1,.16,1.19ZM47.2,54a1.75,1.75,0,0,0-.3-1.13,1.1,1.1,0,0,0-1-.42,1.2,1.2,0,0,0-1,.46,1.51,1.51,0,0,0-.25.49,2.89,2.89,0,0,0-.1.6Z"/><path d="M57.18,56a2.08,2.08,0,0,1-.2.92,1.84,1.84,0,0,1-.55.66,2.51,2.51,0,0,1-.84.4,3.92,3.92,0,0,1-1.05.13,3.53,3.53,0,0,1-.66,0,3.71,3.71,0,0,1-.55-.13,2.06,2.06,0,0,1-.41-.16.83.83,0,0,1-.24-.15.55.55,0,0,1-.12-.23,1.72,1.72,0,0,1,0-.45c0-.14,0-.24,0-.32s0-.14,0-.19a.29.29,0,0,1,.07-.1l.11,0a.59.59,0,0,1,.22.08l.36.19a4.23,4.23,0,0,0,.51.19,2.29,2.29,0,0,0,.66.09,1.34,1.34,0,0,0,.42,0,1,1,0,0,0,.31-.13.55.55,0,0,0,.2-.23.62.62,0,0,0,.07-.31.48.48,0,0,0-.13-.35A1,1,0,0,0,55,55.5l-.47-.21L54,55.08a4.49,4.49,0,0,1-.54-.26,1.85,1.85,0,0,1-.81-.9,2,2,0,0,1-.13-.74,1.77,1.77,0,0,1,.18-.8,1.66,1.66,0,0,1,.49-.63,2.39,2.39,0,0,1,.78-.4,3.36,3.36,0,0,1,1-.14,3.31,3.31,0,0,1,.55,0,3,3,0,0,1,.49.1,2,2,0,0,1,.37.13,1.27,1.27,0,0,1,.22.13.28.28,0,0,1,.09.1.34.34,0,0,1,0,.12.9.9,0,0,1,0,.18,2,2,0,0,1,0,.26,2.45,2.45,0,0,1,0,.3.5.5,0,0,1,0,.19.22.22,0,0,1-.07.09.13.13,0,0,1-.09,0,.4.4,0,0,1-.19-.07l-.33-.15a3.33,3.33,0,0,0-.45-.16,2.49,2.49,0,0,0-.58-.07,1.64,1.64,0,0,0-.41,0,.82.82,0,0,0-.28.14.65.65,0,0,0-.16.21.54.54,0,0,0-.06.25.57.57,0,0,0,.13.36,1.21,1.21,0,0,0,.35.25l.48.21.55.2q.27.12.54.27a1.92,1.92,0,0,1,.48.37,1.59,1.59,0,0,1,.35.52A1.93,1.93,0,0,1,57.18,56Z"/><path d="M60,49.53a1,1,0,0,1-.21.72,1.17,1.17,0,0,1-.79.2,1.19,1.19,0,0,1-.78-.19,1,1,0,0,1-.2-.69,1,1,0,0,1,.21-.73,1.17,1.17,0,0,1,.79-.2,1.16,1.16,0,0,1,.78.2A1,1,0,0,1,60,49.53Zm-.13,8.16a.16.16,0,0,1,0,.12.24.24,0,0,1-.14.09,1.33,1.33,0,0,1-.26.05l-.42,0-.42,0a1.33,1.33,0,0,1-.26-.05.24.24,0,0,1-.14-.09.16.16,0,0,1,0-.12V51.61a.16.16,0,0,1,0-.12.42.42,0,0,1,.14-.09l.26-.06.42,0,.42,0,.26.06a.42.42,0,0,1,.14.09.16.16,0,0,1,0,.12Z"/><path d="M65.64,56a2.08,2.08,0,0,1-.2.92,1.74,1.74,0,0,1-.55.66,2.34,2.34,0,0,1-.84.4,3.87,3.87,0,0,1-1,.13,3.43,3.43,0,0,1-.65,0,3.57,3.57,0,0,1-.56-.13,2.34,2.34,0,0,1-.41-.16.83.83,0,0,1-.24-.15.45.45,0,0,1-.11-.23,1.64,1.64,0,0,1-.05-.45,2.45,2.45,0,0,1,0-.32.78.78,0,0,1,0-.19.2.2,0,0,1,.07-.1l.1,0a.59.59,0,0,1,.22.08l.37.19a3.25,3.25,0,0,0,.51.19,2.19,2.19,0,0,0,.66.09,1.32,1.32,0,0,0,.41,0,.88.88,0,0,0,.31-.13.66.66,0,0,0,.21-.23.75.75,0,0,0,.06-.31.51.51,0,0,0-.12-.35,1.14,1.14,0,0,0-.34-.26c-.14-.07-.29-.14-.47-.21l-.54-.21c-.18-.08-.36-.16-.54-.26a2.4,2.4,0,0,1-.47-.37,1.69,1.69,0,0,1-.33-.53,1.85,1.85,0,0,1-.13-.74,1.8,1.8,0,0,1,.66-1.43,2.61,2.61,0,0,1,.78-.4,3.4,3.4,0,0,1,1-.14,3.43,3.43,0,0,1,.56,0,3.26,3.26,0,0,1,.49.1,2.12,2.12,0,0,1,.36.13.78.78,0,0,1,.22.13.28.28,0,0,1,.09.1.34.34,0,0,1,0,.12l0,.18c0,.07,0,.16,0,.26s0,.23,0,.3a.78.78,0,0,1,0,.19.15.15,0,0,1-.06.09.16.16,0,0,1-.1,0,.44.44,0,0,1-.19-.07,2.44,2.44,0,0,0-.32-.15,3.33,3.33,0,0,0-.45-.16,2.65,2.65,0,0,0-.59-.07,1.56,1.56,0,0,0-.4,0,.67.67,0,0,0-.28.14.56.56,0,0,0-.17.21.7.7,0,0,0,0,.25.52.52,0,0,0,.13.36,1.3,1.3,0,0,0,.34.25l.48.21.55.2c.18.08.37.17.55.27a1.92,1.92,0,0,1,.48.37A1.7,1.7,0,0,1,65.64,56Z"/><path d="M70.1,57.09a2.61,2.61,0,0,1,0,.46.38.38,0,0,1-.29.34,1,1,0,0,1-.27.09,2,2,0,0,1-.35.06,2.48,2.48,0,0,1-.38,0,2.65,2.65,0,0,1-.89-.13,1.39,1.39,0,0,1-.62-.4,1.6,1.6,0,0,1-.37-.68,3.87,3.87,0,0,1-.11-1V52.76h-.73a.22.22,0,0,1-.2-.16,1.43,1.43,0,0,1-.07-.54,2.92,2.92,0,0,1,0-.33.8.8,0,0,1,0-.22.24.24,0,0,1,.08-.11.19.19,0,0,1,.12,0h.73V50a.19.19,0,0,1,0-.12.22.22,0,0,1,.13-.09.9.9,0,0,1,.27-.06h.83a.9.9,0,0,1,.27.06.22.22,0,0,1,.13.09.19.19,0,0,1,0,.12v1.36h1.33a.16.16,0,0,1,.12,0,.24.24,0,0,1,.08.11.75.75,0,0,1,.06.22,3.22,3.22,0,0,1,0,.33,1.43,1.43,0,0,1-.07.54.22.22,0,0,1-.19.16H68.5v2.86a1.49,1.49,0,0,0,.16.75.61.61,0,0,0,.56.25l.25,0,.19-.06.15,0a.19.19,0,0,1,.1,0,.11.11,0,0,1,.08,0s0,0,.06.09,0,.12,0,.2A2.73,2.73,0,0,1,70.1,57.09Z"/><path d="M76.53,54.47a.67.67,0,0,1-.14.46.5.5,0,0,1-.39.15H72.29a2.6,2.6,0,0,0,.09.71,1.42,1.42,0,0,0,.3.54,1.27,1.27,0,0,0,.52.34,2.14,2.14,0,0,0,.76.11,4.54,4.54,0,0,0,.79-.06,4.71,4.71,0,0,0,.59-.14c.17-.06.31-.1.42-.15a.84.84,0,0,1,.26-.06.18.18,0,0,1,.11,0,.35.35,0,0,1,.07.09.65.65,0,0,1,0,.17,2.35,2.35,0,0,1,0,.28v.26a1.41,1.41,0,0,0,0,.18.5.5,0,0,1,0,.13.3.3,0,0,1-.07.1,1.08,1.08,0,0,1-.24.13,3.94,3.94,0,0,1-.51.16,5.51,5.51,0,0,1-.7.13,5.67,5.67,0,0,1-.85.06,4.63,4.63,0,0,1-1.42-.2,2.47,2.47,0,0,1-1.64-1.68,5.07,5.07,0,0,1-.2-1.49,4.72,4.72,0,0,1,.21-1.46,3.14,3.14,0,0,1,.62-1.11,2.53,2.53,0,0,1,1-.69,3.38,3.38,0,0,1,1.3-.24,3.42,3.42,0,0,1,1.31.22,2.32,2.32,0,0,1,.89.63,2.4,2.4,0,0,1,.52.94,4.17,4.17,0,0,1,.16,1.19ZM74.86,54a1.69,1.69,0,0,0-.29-1.13,1.12,1.12,0,0,0-1-.42,1.14,1.14,0,0,0-.57.13,1.08,1.08,0,0,0-.4.33,1.51,1.51,0,0,0-.25.49,2.35,2.35,0,0,0-.1.6Z"/><path d="M87.36,57.69a.16.16,0,0,1,0,.12.22.22,0,0,1-.13.09,1.33,1.33,0,0,1-.26.05l-.42,0-.42,0a1.46,1.46,0,0,1-.27-.05.22.22,0,0,1-.13-.09.16.16,0,0,1,0-.12V54.08a2.34,2.34,0,0,0-.06-.56,1.35,1.35,0,0,0-.18-.44.89.89,0,0,0-.3-.28.94.94,0,0,0-.43-.1,1,1,0,0,0-.62.24,4.16,4.16,0,0,0-.69.7v4a.16.16,0,0,1,0,.12.24.24,0,0,1-.14.09,1.2,1.2,0,0,1-.26.05l-.41,0-.42,0a1.2,1.2,0,0,1-.26-.05.24.24,0,0,1-.14-.09.16.16,0,0,1,0-.12V54.08a2.34,2.34,0,0,0-.06-.56,1.35,1.35,0,0,0-.18-.44.74.74,0,0,0-.3-.28.94.94,0,0,0-.43-.1,1,1,0,0,0-.63.24,3.79,3.79,0,0,0-.67.7v4a.21.21,0,0,1,0,.12.28.28,0,0,1-.14.09,1.46,1.46,0,0,1-.27.05l-.41,0-.42,0a1.2,1.2,0,0,1-.26-.05.21.21,0,0,1-.14-.09.17.17,0,0,1,0-.12V51.6a.21.21,0,0,1,0-.12.19.19,0,0,1,.12-.09l.23,0,.35,0,.37,0a.9.9,0,0,1,.22,0,.2.2,0,0,1,.11.09.21.21,0,0,1,0,.12v.7a4,4,0,0,1,1-.82,2.22,2.22,0,0,1,1-.27,2.84,2.84,0,0,1,.68.07,2,2,0,0,1,.53.23,1.76,1.76,0,0,1,.41.35,2,2,0,0,1,.29.46,5.06,5.06,0,0,1,.54-.51,3.47,3.47,0,0,1,.51-.34,2.41,2.41,0,0,1,.52-.2,2.24,2.24,0,0,1,.52-.06,2.28,2.28,0,0,1,1,.2,1.83,1.83,0,0,1,.67.56,2.37,2.37,0,0,1,.37.82,4.65,4.65,0,0,1,.1,1Z"/><path d="M94,57.71a.16.16,0,0,1-.07.15.4.4,0,0,1-.21.08,2.44,2.44,0,0,1-.44,0,2.49,2.49,0,0,1-.45,0,.28.28,0,0,1-.19-.08.18.18,0,0,1-.06-.15v-.48a2.77,2.77,0,0,1-.86.63,2.5,2.5,0,0,1-1.07.22,3.14,3.14,0,0,1-.89-.12,2.11,2.11,0,0,1-.71-.38,1.68,1.68,0,0,1-.46-.62,2.06,2.06,0,0,1-.16-.86,2,2,0,0,1,.21-.93,1.67,1.67,0,0,1,.62-.65,3,3,0,0,1,1-.37A6.71,6.71,0,0,1,91.69,54h.59v-.37a1.85,1.85,0,0,0-.06-.5.89.89,0,0,0-.19-.36.93.93,0,0,0-.35-.21,1.82,1.82,0,0,0-.56-.07,2.54,2.54,0,0,0-.76.1,3.48,3.48,0,0,0-.6.21l-.44.21a.56.56,0,0,1-.28.1.21.21,0,0,1-.13-.05.39.39,0,0,1-.1-.14,2.18,2.18,0,0,1-.06-.22,2.3,2.3,0,0,1,0-.28,1.05,1.05,0,0,1,0-.34.46.46,0,0,1,.13-.22,1.09,1.09,0,0,1,.33-.22,4.37,4.37,0,0,1,.56-.22,4.78,4.78,0,0,1,.7-.17,5.16,5.16,0,0,1,.79-.06,4.4,4.4,0,0,1,1.22.14,2,2,0,0,1,.84.43,1.62,1.62,0,0,1,.48.75A3.43,3.43,0,0,1,94,53.61ZM92.28,55.1h-.66a3.69,3.69,0,0,0-.71.06,1.5,1.5,0,0,0-.48.19.77.77,0,0,0-.27.3,1,1,0,0,0-.08.4.78.78,0,0,0,.24.6,1,1,0,0,0,.67.22,1.28,1.28,0,0,0,.67-.19,2.68,2.68,0,0,0,.62-.54Z"/><path d="M98,56.53a2.93,2.93,0,0,1,.16-1,2.16,2.16,0,0,1,.45-.78,2.2,2.2,0,0,1,.7-.53,2.86,2.86,0,0,1,.89-.25l.06-1.33c0-.08.07-.15.19-.19a1.94,1.94,0,0,1,.55-.06h.38a1.19,1.19,0,0,1,.24,0,.32.32,0,0,1,.13.07.29.29,0,0,1,0,.13l.06,1.61a1.89,1.89,0,0,1,0,.36.41.41,0,0,1-.1.21.36.36,0,0,1-.18.12,1,1,0,0,1-.26,0h-.1a1.64,1.64,0,0,0-.62.11,1.29,1.29,0,0,0-.44.31,1.41,1.41,0,0,0-.25.45,2,2,0,0,0-.07.56,1.89,1.89,0,0,0,.09.6,1.2,1.2,0,0,0,.75.77,1.9,1.9,0,0,0,.66.11,2.3,2.3,0,0,0,.62-.07,2.26,2.26,0,0,0,.46-.15,2.44,2.44,0,0,0,.32-.15.5.5,0,0,1,.19-.07.16.16,0,0,1,.09,0,.22.22,0,0,1,.07.12,1,1,0,0,1,0,.23,3.79,3.79,0,0,1,0,.38,2.61,2.61,0,0,1,0,.35.31.31,0,0,1-.09.18,1.21,1.21,0,0,1-.26.16,3,3,0,0,1-.46.17,4.32,4.32,0,0,1-.59.13,3.85,3.85,0,0,1-.69.06A4.08,4.08,0,0,1,99.64,59a2.71,2.71,0,0,1-.94-.6,2.34,2.34,0,0,1-.53-.86A3,3,0,0,1,98,56.53Zm2-5.86a2.17,2.17,0,0,1,0-.47.7.7,0,0,1,.16-.31.72.72,0,0,1,.3-.16,1.56,1.56,0,0,1,.46-.06,1.53,1.53,0,0,1,.47.06.58.58,0,0,1,.46.47,2.17,2.17,0,0,1,0,.47,2.21,2.21,0,0,1,0,.48.65.65,0,0,1-.16.32.55.55,0,0,1-.3.17,2,2,0,0,1-.47,0,2,2,0,0,1-.46,0,.64.64,0,0,1-.3-.17.74.74,0,0,1-.16-.32A2.21,2.21,0,0,1,100,50.67Z"/><path d="M108.79,56a2,2,0,0,1-.2.92,1.74,1.74,0,0,1-.55.66,2.34,2.34,0,0,1-.84.4,3.87,3.87,0,0,1-1,.13,3.43,3.43,0,0,1-.65,0,3.86,3.86,0,0,1-.56-.13,2.34,2.34,0,0,1-.41-.16.83.83,0,0,1-.24-.15.45.45,0,0,1-.11-.23,1.64,1.64,0,0,1-.05-.45,2.45,2.45,0,0,1,0-.32.78.78,0,0,1,0-.19.2.2,0,0,1,.07-.1l.1,0a.59.59,0,0,1,.22.08l.37.19a3.25,3.25,0,0,0,.51.19,2.19,2.19,0,0,0,.66.09,1.32,1.32,0,0,0,.41,0,.88.88,0,0,0,.31-.13.66.66,0,0,0,.21-.23.75.75,0,0,0,.06-.31.51.51,0,0,0-.12-.35,1.14,1.14,0,0,0-.34-.26c-.14-.07-.29-.14-.47-.21l-.54-.21c-.18-.08-.36-.16-.54-.26a2.4,2.4,0,0,1-.47-.37,1.69,1.69,0,0,1-.33-.53,1.85,1.85,0,0,1-.13-.74,1.91,1.91,0,0,1,.17-.8,1.76,1.76,0,0,1,.49-.63,2.61,2.61,0,0,1,.78-.4,3.4,3.4,0,0,1,1-.14,3.43,3.43,0,0,1,.56,0,3.26,3.26,0,0,1,.49.1,2.64,2.64,0,0,1,.37.13.86.86,0,0,1,.21.13.28.28,0,0,1,.09.1.34.34,0,0,1,0,.12q0,.08,0,.18c0,.07,0,.16,0,.26s0,.23,0,.3a.78.78,0,0,1,0,.19.15.15,0,0,1-.06.09.16.16,0,0,1-.1,0,.44.44,0,0,1-.19-.07,2.44,2.44,0,0,0-.32-.15,3.33,3.33,0,0,0-.45-.16,2.65,2.65,0,0,0-.59-.07,1.56,1.56,0,0,0-.4,0,.67.67,0,0,0-.28.14.56.56,0,0,0-.17.21.7.7,0,0,0,0,.25.52.52,0,0,0,.13.36,1.3,1.3,0,0,0,.34.25l.48.21.55.2c.18.08.37.17.55.27a1.92,1.92,0,0,1,.48.37,1.7,1.7,0,0,1,.47,1.24Z"/><path d="M115,57.71a.18.18,0,0,1-.07.15.41.41,0,0,1-.22.08,2.31,2.31,0,0,1-.43,0,2.34,2.34,0,0,1-.45,0,.34.34,0,0,1-.2-.08.18.18,0,0,1-.06-.15v-.48a2.73,2.73,0,0,1-.85.63,2.5,2.5,0,0,1-1.07.22,3.21,3.21,0,0,1-.9-.12,2.06,2.06,0,0,1-.7-.38,1.68,1.68,0,0,1-.46-.62,2.06,2.06,0,0,1-.16-.86,2,2,0,0,1,.2-.93,1.78,1.78,0,0,1,.63-.65,3,3,0,0,1,1-.37,6.83,6.83,0,0,1,1.43-.13h.6v-.37a1.85,1.85,0,0,0-.06-.5.89.89,0,0,0-.19-.36.9.9,0,0,0-.36-.21,1.71,1.71,0,0,0-.55-.07,2.66,2.66,0,0,0-.77.1,3.67,3.67,0,0,0-.59.21l-.44.21a.56.56,0,0,1-.28.1.24.24,0,0,1-.14-.05.38.38,0,0,1-.09-.14.64.64,0,0,1-.06-.22,2.3,2.3,0,0,1,0-.28,1.52,1.52,0,0,1,0-.34.71.71,0,0,1,.13-.22,1.33,1.33,0,0,1,.34-.22,4.37,4.37,0,0,1,.56-.22,4.48,4.48,0,0,1,.7-.17,4.93,4.93,0,0,1,.78-.06,4.43,4.43,0,0,1,1.23.14,2,2,0,0,1,.84.43,1.62,1.62,0,0,1,.48.75,3.43,3.43,0,0,1,.15,1.08Zm-1.69-2.61h-.66a3.62,3.62,0,0,0-.71.06,1.42,1.42,0,0,0-.48.19.77.77,0,0,0-.27.3,1,1,0,0,0-.08.4.78.78,0,0,0,.24.6,1,1,0,0,0,.67.22,1.3,1.3,0,0,0,.67-.19,2.68,2.68,0,0,0,.62-.54Z"/><path d="M122.57,54.56a5.58,5.58,0,0,1-.18,1.47,3.2,3.2,0,0,1-.51,1.1,2.32,2.32,0,0,1-.82.71,2.51,2.51,0,0,1-1.11.24,2.65,2.65,0,0,1-.58-.06,1.82,1.82,0,0,1-.51-.18,3.43,3.43,0,0,1-.48-.33,5.41,5.41,0,0,1-.48-.48v.66a.18.18,0,0,1,0,.13.31.31,0,0,1-.12.09l-.23,0-.35,0-.35,0a1,1,0,0,1-.22,0,.31.31,0,0,1-.12-.09.18.18,0,0,1,0-.13v-9a.22.22,0,0,1,.18-.21.9.9,0,0,1,.27-.06l.41,0,.42,0a.77.77,0,0,1,.26.06.21.21,0,0,1,.14.09.19.19,0,0,1,0,.12v3.37a4,4,0,0,1,.47-.39,3.22,3.22,0,0,1,.46-.27,3,3,0,0,1,.48-.16,3,3,0,0,1,.52,0,2.28,2.28,0,0,1,1.15.27,2.22,2.22,0,0,1,.77.72,3.29,3.29,0,0,1,.43,1.07A5.43,5.43,0,0,1,122.57,54.56Zm-1.78.13a4.77,4.77,0,0,0-.06-.76,2.4,2.4,0,0,0-.2-.64,1.2,1.2,0,0,0-.38-.45.94.94,0,0,0-.57-.16,1.27,1.27,0,0,0-.34,0,1.54,1.54,0,0,0-.34.17,4.07,4.07,0,0,0-.36.3,4,4,0,0,0-.39.46v2a3.93,3.93,0,0,0,.7.71,1.16,1.16,0,0,0,.69.24,1,1,0,0,0,.57-.17,1.33,1.33,0,0,0,.39-.45,2.16,2.16,0,0,0,.22-.62A4,4,0,0,0,120.79,54.69Z"/><path d="M129.3,54.47a.67.67,0,0,1-.14.46.5.5,0,0,1-.39.15h-3.71a2.6,2.6,0,0,0,.09.71,1.3,1.3,0,0,0,.3.54,1.21,1.21,0,0,0,.52.34,2.14,2.14,0,0,0,.76.11,4.62,4.62,0,0,0,.79-.06,4.71,4.71,0,0,0,.59-.14c.17-.06.31-.1.42-.15a.78.78,0,0,1,.26-.06.2.2,0,0,1,.11,0,.2.2,0,0,1,.06.09.61.61,0,0,1,0,.17,2.35,2.35,0,0,1,0,.28,2,2,0,0,1,0,.26.9.9,0,0,1,0,.18.28.28,0,0,1,0,.13.61.61,0,0,1-.07.1,1.08,1.08,0,0,1-.24.13,3.94,3.94,0,0,1-.51.16,5.51,5.51,0,0,1-.7.13,5.77,5.77,0,0,1-.85.06,4.63,4.63,0,0,1-1.42-.2,2.73,2.73,0,0,1-1-.62,2.69,2.69,0,0,1-.61-1.06,5.07,5.07,0,0,1-.2-1.49,4.72,4.72,0,0,1,.21-1.46,3,3,0,0,1,.62-1.11,2.53,2.53,0,0,1,1-.69,3.35,3.35,0,0,1,1.3-.24,3.42,3.42,0,0,1,1.31.22,2.32,2.32,0,0,1,.89.63,2.38,2.38,0,0,1,.51.94,4.17,4.17,0,0,1,.17,1.19Zm-1.67-.5a1.75,1.75,0,0,0-.29-1.13,1.12,1.12,0,0,0-1-.42,1.14,1.14,0,0,0-.57.13,1.08,1.08,0,0,0-.4.33,1.51,1.51,0,0,0-.25.49,2.35,2.35,0,0,0-.1.6Z"/><path d="M134.73,56a2.08,2.08,0,0,1-.2.92,1.84,1.84,0,0,1-.55.66,2.51,2.51,0,0,1-.84.4,3.87,3.87,0,0,1-1,.13,3.36,3.36,0,0,1-.65,0,3.57,3.57,0,0,1-.56-.13,2.06,2.06,0,0,1-.41-.16.83.83,0,0,1-.24-.15.55.55,0,0,1-.12-.23,1.72,1.72,0,0,1,0-.45c0-.14,0-.24,0-.32a.74.74,0,0,1,0-.19.19.19,0,0,1,.06-.1l.11,0a.59.59,0,0,1,.22.08l.36.19a4.23,4.23,0,0,0,.51.19,2.29,2.29,0,0,0,.66.09,1.34,1.34,0,0,0,.42,0,1,1,0,0,0,.31-.13.55.55,0,0,0,.2-.23.62.62,0,0,0,.07-.31.51.51,0,0,0-.12-.35,1.14,1.14,0,0,0-.34-.26l-.47-.21q-.27-.09-.54-.21a4.49,4.49,0,0,1-.54-.26,2.13,2.13,0,0,1-.47-.37,1.93,1.93,0,0,1-.34-.53,2,2,0,0,1-.12-.74,1.77,1.77,0,0,1,.17-.8,1.66,1.66,0,0,1,.49-.63,2.39,2.39,0,0,1,.78-.4,3.36,3.36,0,0,1,1-.14,3.31,3.31,0,0,1,.55,0,3,3,0,0,1,.49.1,2,2,0,0,1,.37.13,1.27,1.27,0,0,1,.22.13.28.28,0,0,1,.09.1.34.34,0,0,1,0,.12.9.9,0,0,1,0,.18,2,2,0,0,1,0,.26,2.45,2.45,0,0,1,0,.3.5.5,0,0,1,0,.19.35.35,0,0,1-.06.09.16.16,0,0,1-.1,0,.4.4,0,0,1-.19-.07l-.33-.15a3.33,3.33,0,0,0-.45-.16,2.49,2.49,0,0,0-.58-.07,1.64,1.64,0,0,0-.41,0,.82.82,0,0,0-.28.14.65.65,0,0,0-.16.21.53.53,0,0,0-.05.25.52.52,0,0,0,.13.36,1.15,1.15,0,0,0,.34.25l.48.21.55.2q.27.12.54.27a1.92,1.92,0,0,1,.48.37,1.59,1.59,0,0,1,.35.52A1.93,1.93,0,0,1,134.73,56Z"/><path d="M20.14,72.85a.28.28,0,0,1,0,.13.24.24,0,0,1-.11.08,1,1,0,0,1-.23,0h-.7a1,1,0,0,1-.22,0,.23.23,0,0,1-.12-.08.2.2,0,0,1,0-.13v-.68a3.78,3.78,0,0,1-1,.79,2.29,2.29,0,0,1-1.14.28A2.37,2.37,0,0,1,15.37,73a2.21,2.21,0,0,1-.79-.73,3.13,3.13,0,0,1-.44-1.07A6,6,0,0,1,14,69.88a5.45,5.45,0,0,1,.18-1.46,3.15,3.15,0,0,1,.51-1.11,2.24,2.24,0,0,1,.83-.7,2.52,2.52,0,0,1,1.15-.25,2.05,2.05,0,0,1,.93.21,3.39,3.39,0,0,1,.83.61v-3.3a.21.21,0,0,1,0-.12.39.39,0,0,1,.14-.1l.26,0a4.42,4.42,0,0,1,.84,0,1.2,1.2,0,0,1,.26,0,.39.39,0,0,1,.14.1.21.21,0,0,1,0,.12Zm-1.71-4.08a4,4,0,0,0-.71-.71,1.21,1.21,0,0,0-.71-.24.92.92,0,0,0-.57.17,1.21,1.21,0,0,0-.4.44,2.46,2.46,0,0,0-.21.63,3.29,3.29,0,0,0-.08.71,4.53,4.53,0,0,0,.07.74,2.15,2.15,0,0,0,.2.65,1.18,1.18,0,0,0,.37.45.94.94,0,0,0,.59.17,1,1,0,0,0,.34,0,1.13,1.13,0,0,0,.35-.17,1.81,1.81,0,0,0,.35-.3c.13-.13.26-.28.41-.46Z"/><path d="M23.44,64.69a1,1,0,0,1-.21.71,1.16,1.16,0,0,1-.79.2,1.13,1.13,0,0,1-.78-.19.92.92,0,0,1-.2-.69,1,1,0,0,1,.2-.72,1.19,1.19,0,0,1,.79-.2,1.13,1.13,0,0,1,.78.19A.93.93,0,0,1,23.44,64.69Zm-.13,8.16a.28.28,0,0,1,0,.12.37.37,0,0,1-.14.08,1.37,1.37,0,0,1-.27.06H22a1.12,1.12,0,0,1-.26-.06.26.26,0,0,1-.14-.08.19.19,0,0,1,0-.12V66.77a.16.16,0,0,1,0-.12.21.21,0,0,1,.14-.09A.77.77,0,0,1,22,66.5a2.56,2.56,0,0,1,.42,0,2.43,2.43,0,0,1,.41,0,.9.9,0,0,1,.27.06.28.28,0,0,1,.14.09.21.21,0,0,1,0,.12Z"/><path d="M28.42,64.43a2.92,2.92,0,0,1,0,.32.69.69,0,0,1,0,.18.35.35,0,0,1-.06.09l-.08,0-.1,0L28,65l-.2,0a1.12,1.12,0,0,0-.27,0,.76.76,0,0,0-.32.06.55.55,0,0,0-.22.18.82.82,0,0,0-.13.33,2.41,2.41,0,0,0,0,.5v.56h1.11a.2.2,0,0,1,.11,0,.23.23,0,0,1,.09.12.81.81,0,0,1,.05.21,3,3,0,0,1,0,.34,1.55,1.55,0,0,1-.07.53c-.05.11-.11.16-.2.16H26.8v4.94a.21.21,0,0,1-.05.12.26.26,0,0,1-.13.08,1.22,1.22,0,0,1-.27.06h-.83a1.37,1.37,0,0,1-.27-.06.26.26,0,0,1-.13-.08.19.19,0,0,1,0-.12V67.91h-.77a.21.21,0,0,1-.19-.16,1.55,1.55,0,0,1-.07-.53,3,3,0,0,1,0-.34.81.81,0,0,1,.05-.21.28.28,0,0,1,.08-.12.27.27,0,0,1,.12,0h.76V66a4.37,4.37,0,0,1,.12-1.09,1.79,1.79,0,0,1,.39-.78,1.54,1.54,0,0,1,.67-.47,2.54,2.54,0,0,1,1-.16,2.76,2.76,0,0,1,.51.05l.37.09.19.1a.32.32,0,0,1,.07.13.6.6,0,0,1,.05.22A3,3,0,0,1,28.42,64.43Z"/><path d="M34.28,69.62a.69.69,0,0,1-.14.47.5.5,0,0,1-.39.15H30a2.65,2.65,0,0,0,.09.71,1.42,1.42,0,0,0,.3.54,1.26,1.26,0,0,0,.52.33,2.13,2.13,0,0,0,.76.12,3.68,3.68,0,0,0,.79-.07,5.39,5.39,0,0,0,.6-.14l.41-.14a.67.67,0,0,1,.27-.07.17.17,0,0,1,.1,0,.19.19,0,0,1,.07.08.66.66,0,0,1,0,.18,2.27,2.27,0,0,1,0,.28v.26c0,.07,0,.13,0,.18a.83.83,0,0,1,0,.12.39.39,0,0,1-.08.1.61.61,0,0,1-.24.13,3,3,0,0,1-.5.16,5.58,5.58,0,0,1-.71.14,5.67,5.67,0,0,1-.85.06A4.38,4.38,0,0,1,30.13,73a2.4,2.4,0,0,1-1-.62,2.62,2.62,0,0,1-.62-1,5.12,5.12,0,0,1-.2-1.49,4.83,4.83,0,0,1,.21-1.47,3.33,3.33,0,0,1,.62-1.11,2.73,2.73,0,0,1,1-.69,3.74,3.74,0,0,1,2.61,0,2.41,2.41,0,0,1,.89.62,2.44,2.44,0,0,1,.52,1,4.08,4.08,0,0,1,.16,1.19Zm-1.67-.49A1.73,1.73,0,0,0,32.32,68a1.14,1.14,0,0,0-1-.41,1.26,1.26,0,0,0-.57.12,1.08,1.08,0,0,0-.4.33,1.56,1.56,0,0,0-.25.5,2.28,2.28,0,0,0-.1.6Z"/><path d="M39.33,67.32c0,.16,0,.3,0,.4a1.18,1.18,0,0,1,0,.25.22.22,0,0,1-.07.12.21.21,0,0,1-.12,0l-.12,0-.15,0-.19,0a.8.8,0,0,0-.23,0,.71.71,0,0,0-.28.06,1.19,1.19,0,0,0-.3.18,3.4,3.4,0,0,0-.32.33q-.16.21-.36.51v3.8a.28.28,0,0,1,0,.12.37.37,0,0,1-.14.08,1.37,1.37,0,0,1-.27.06h-.83a1.12,1.12,0,0,1-.26-.06.26.26,0,0,1-.14-.08.19.19,0,0,1,0-.12v-6.1a.27.27,0,0,1,0-.12.23.23,0,0,1,.12-.08.71.71,0,0,1,.23,0,1.83,1.83,0,0,1,.35,0,2,2,0,0,1,.37,0,.6.6,0,0,1,.22,0,.24.24,0,0,1,.11.08.28.28,0,0,1,0,.12v.76a3.53,3.53,0,0,1,.45-.56,2.54,2.54,0,0,1,.4-.36,1.64,1.64,0,0,1,.38-.18,1.74,1.74,0,0,1,.39,0h.19l.21,0,.19,0a.27.27,0,0,1,.12.07l.06.07,0,.11c0,.05,0,.12,0,.22Z"/><path d="M45.59,69.62a.69.69,0,0,1-.14.47.51.51,0,0,1-.39.15H41.35a2.65,2.65,0,0,0,.09.71,1.3,1.3,0,0,0,.3.54,1.2,1.2,0,0,0,.52.33,2.13,2.13,0,0,0,.76.12,3.74,3.74,0,0,0,.79-.07,4.71,4.71,0,0,0,.59-.14l.42-.14a.6.6,0,0,1,.26-.07.15.15,0,0,1,.1,0s0,0,.07.08a.6.6,0,0,1,0,.18,2.27,2.27,0,0,1,0,.28,2,2,0,0,1,0,.26.9.9,0,0,1,0,.18.34.34,0,0,1,0,.12.36.36,0,0,1-.07.1.61.61,0,0,1-.24.13,2.82,2.82,0,0,1-.51.16,5.4,5.4,0,0,1-.7.14,5.77,5.77,0,0,1-.85.06A4.33,4.33,0,0,1,41.44,73a2.5,2.5,0,0,1-1-.62,2.72,2.72,0,0,1-.61-1,5.12,5.12,0,0,1-.2-1.49,4.83,4.83,0,0,1,.21-1.47,3.16,3.16,0,0,1,.62-1.11,2.64,2.64,0,0,1,1-.69,3.35,3.35,0,0,1,1.3-.24,3.41,3.41,0,0,1,1.31.23,2.41,2.41,0,0,1,.89.62,2.56,2.56,0,0,1,.51,1,4.07,4.07,0,0,1,.17,1.19Zm-1.67-.49A1.79,1.79,0,0,0,43.63,68a1.14,1.14,0,0,0-1-.41,1.26,1.26,0,0,0-.57.12,1.08,1.08,0,0,0-.4.33,1.56,1.56,0,0,0-.25.5,2.28,2.28,0,0,0-.1.6Z"/><path d="M52.55,72.85a.28.28,0,0,1,0,.12.37.37,0,0,1-.14.08,1.12,1.12,0,0,1-.26.06h-.84a1.12,1.12,0,0,1-.26-.06.37.37,0,0,1-.14-.08.28.28,0,0,1,0-.12V69.37a3.18,3.18,0,0,0-.06-.7,1.55,1.55,0,0,0-.19-.43.79.79,0,0,0-.32-.28.93.93,0,0,0-.45-.1,1.17,1.17,0,0,0-.67.24,3.52,3.52,0,0,0-.69.7v4a.21.21,0,0,1-.05.12.26.26,0,0,1-.14.08,1.12,1.12,0,0,1-.26.06h-.83a1.37,1.37,0,0,1-.27-.06.37.37,0,0,1-.14-.08.28.28,0,0,1,0-.12v-6.1a.28.28,0,0,1,0-.12.23.23,0,0,1,.12-.08.71.71,0,0,1,.23,0,1.78,1.78,0,0,1,.35,0,1.84,1.84,0,0,1,.36,0,.66.66,0,0,1,.23,0,.24.24,0,0,1,.11.08.27.27,0,0,1,0,.12v.71a3.75,3.75,0,0,1,1-.82,2.24,2.24,0,0,1,1.09-.28,2.34,2.34,0,0,1,1,.21,1.72,1.72,0,0,1,.69.55,2.26,2.26,0,0,1,.38.83,4.6,4.6,0,0,1,.12,1.13Z"/><path d="M58.57,71.88a2.63,2.63,0,0,1,0,.3c0,.08,0,.14,0,.2a.4.4,0,0,1,0,.13.45.45,0,0,1-.1.13,1.64,1.64,0,0,1-.28.19,2.77,2.77,0,0,1-.46.2,3.63,3.63,0,0,1-.55.15,4.07,4.07,0,0,1-.61,0A3.28,3.28,0,0,1,55.24,73a2.35,2.35,0,0,1-.91-.64,3.1,3.1,0,0,1-.56-1.05,5,5,0,0,1-.18-1.4,4.76,4.76,0,0,1,.23-1.59,3,3,0,0,1,.63-1.1,2.59,2.59,0,0,1,1-.65,3.45,3.45,0,0,1,1.23-.21,3.15,3.15,0,0,1,1,.18,2,2,0,0,1,.41.18,1.11,1.11,0,0,1,.26.18.58.58,0,0,1,.11.13.33.33,0,0,1,0,.13.56.56,0,0,1,0,.2,2.53,2.53,0,0,1,0,.29,1.51,1.51,0,0,1-.07.56c0,.1-.1.16-.17.16a.4.4,0,0,1-.25-.1l-.31-.21a2.06,2.06,0,0,0-.42-.21,1.52,1.52,0,0,0-.59-.1,1.14,1.14,0,0,0-1,.52,2.63,2.63,0,0,0-.36,1.51,3.75,3.75,0,0,0,.09.87,2,2,0,0,0,.26.63,1.07,1.07,0,0,0,.44.38,1.48,1.48,0,0,0,.61.13,1.58,1.58,0,0,0,.61-.11,2.38,2.38,0,0,0,.45-.24,2.44,2.44,0,0,0,.32-.23.41.41,0,0,1,.22-.11.12.12,0,0,1,.1,0,.22.22,0,0,1,.07.12c0,.06,0,.14,0,.24S58.57,71.73,58.57,71.88Z"/><path d="M61.39,64.69a.91.91,0,0,1-.22.71,1.11,1.11,0,0,1-.78.2,1.13,1.13,0,0,1-.78-.19.92.92,0,0,1-.21-.69,1,1,0,0,1,.21-.72,1.68,1.68,0,0,1,1.57,0A.93.93,0,0,1,61.39,64.69Zm-.13,8.16a.28.28,0,0,1,0,.12.35.35,0,0,1-.15.08,1.12,1.12,0,0,1-.26.06H60a1.12,1.12,0,0,1-.26-.06.35.35,0,0,1-.15-.08.28.28,0,0,1,0-.12V66.77a.21.21,0,0,1,0-.12.27.27,0,0,1,.15-.09A.77.77,0,0,1,60,66.5a2.56,2.56,0,0,1,.42,0,2.49,2.49,0,0,1,.41,0,.77.77,0,0,1,.26.06.27.27,0,0,1,.15.09.21.21,0,0,1,0,.12Z"/><path d="M67.89,72.87a.18.18,0,0,1-.07.15.51.51,0,0,1-.21.08l-.44,0-.45,0a.34.34,0,0,1-.19-.08.2.2,0,0,1-.06-.15v-.49a2.77,2.77,0,0,1-.86.63,2.5,2.5,0,0,1-1.07.23,2.82,2.82,0,0,1-.89-.13,2.09,2.09,0,0,1-.71-.37,1.76,1.76,0,0,1-.46-.62,2.13,2.13,0,0,1-.16-.86,1.94,1.94,0,0,1,.21-.93,1.61,1.61,0,0,1,.62-.65,3,3,0,0,1,1-.38,7.49,7.49,0,0,1,1.43-.12h.59v-.37a1.85,1.85,0,0,0-.06-.5A.78.78,0,0,0,66,68a.73.73,0,0,0-.35-.21,1.82,1.82,0,0,0-.56-.07,2.93,2.93,0,0,0-.76.09q-.35.1-.6.21a4.48,4.48,0,0,0-.44.22.64.64,0,0,1-.28.09.15.15,0,0,1-.13,0,.34.34,0,0,1-.1-.13,2.18,2.18,0,0,1-.06-.22,2.48,2.48,0,0,1,0-.29,1,1,0,0,1,0-.33.42.42,0,0,1,.13-.22,1.09,1.09,0,0,1,.33-.22,4.32,4.32,0,0,1,.56-.23,6.56,6.56,0,0,1,.7-.16,4.15,4.15,0,0,1,.79-.07,4.82,4.82,0,0,1,1.22.14,2.22,2.22,0,0,1,.84.43,1.73,1.73,0,0,1,.48.75,3.54,3.54,0,0,1,.15,1.09ZM66.2,70.26h-.66a3.69,3.69,0,0,0-.71.06,1.5,1.5,0,0,0-.48.18,1,1,0,0,0-.27.3,1,1,0,0,0-.08.4.75.75,0,0,0,.24.6,1,1,0,0,0,.67.22,1.27,1.27,0,0,0,.67-.18,3.27,3.27,0,0,0,.62-.54Z"/><path d="M73.24,67.32c0,.16,0,.3,0,.4s0,.19,0,.25a.23.23,0,0,1-.08.12.18.18,0,0,1-.11,0,.3.3,0,0,1-.12,0l-.16,0-.18,0a.85.85,0,0,0-.23,0A.79.79,0,0,0,72,68a1.35,1.35,0,0,0-.29.18,2.53,2.53,0,0,0-.32.33,3.75,3.75,0,0,0-.36.51v3.8A.28.28,0,0,1,71,73a.35.35,0,0,1-.15.08,1.12,1.12,0,0,1-.26.06h-.83a1.12,1.12,0,0,1-.26-.06.35.35,0,0,1-.15-.08.28.28,0,0,1,0-.12v-6.1a.28.28,0,0,1,0-.12.23.23,0,0,1,.12-.08.71.71,0,0,1,.23,0,1.78,1.78,0,0,1,.35,0,1.84,1.84,0,0,1,.36,0,.66.66,0,0,1,.23,0,.24.24,0,0,1,.11.08.27.27,0,0,1,0,.12v.76a4.19,4.19,0,0,1,.45-.56,3.1,3.1,0,0,1,.41-.36,1.64,1.64,0,0,1,.38-.18,1.73,1.73,0,0,1,.38,0h.2l.21,0,.19,0a.35.35,0,0,1,.12.07.18.18,0,0,1,.05.07l0,.11a1.09,1.09,0,0,1,0,.22C73.24,67,73.24,67.15,73.24,67.32Z"/><path d="M78.63,72.85a.28.28,0,0,1,0,.12.37.37,0,0,1-.14.08,1.37,1.37,0,0,1-.27.06h-.83a1.12,1.12,0,0,1-.26-.06A.26.26,0,0,1,77,73a.21.21,0,0,1,0-.12v-9a.17.17,0,0,1,0-.12.27.27,0,0,1,.14-.1,1.2,1.2,0,0,1,.26,0,2.56,2.56,0,0,1,.42,0,2.43,2.43,0,0,1,.41,0,1.46,1.46,0,0,1,.27,0,.39.39,0,0,1,.14.1.21.21,0,0,1,0,.12Z"/><path d="M85.26,72.87a.18.18,0,0,1-.07.15.46.46,0,0,1-.21.08l-.44,0-.45,0A.34.34,0,0,1,83.9,73a.2.2,0,0,1-.06-.15v-.49A2.77,2.77,0,0,1,83,73a2.5,2.5,0,0,1-1.07.23,2.82,2.82,0,0,1-.89-.13,2.09,2.09,0,0,1-.71-.37,1.76,1.76,0,0,1-.46-.62,2.13,2.13,0,0,1-.16-.86,1.94,1.94,0,0,1,.21-.93,1.68,1.68,0,0,1,.62-.65,3,3,0,0,1,1-.38A7.49,7.49,0,0,1,83,69.18h.59v-.37a1.85,1.85,0,0,0-.06-.5.78.78,0,0,0-.19-.36.73.73,0,0,0-.35-.21,1.79,1.79,0,0,0-.55-.07,3,3,0,0,0-.77.09q-.34.1-.6.21l-.44.22a.64.64,0,0,1-.28.09.17.17,0,0,1-.13,0,.34.34,0,0,1-.1-.13,2.18,2.18,0,0,1-.06-.22,2.48,2.48,0,0,1,0-.29,1,1,0,0,1,0-.33.42.42,0,0,1,.13-.22,1.09,1.09,0,0,1,.33-.22,4.32,4.32,0,0,1,.56-.23,6.56,6.56,0,0,1,.7-.16,4.15,4.15,0,0,1,.79-.07,4.82,4.82,0,0,1,1.22.14,2.22,2.22,0,0,1,.84.43,1.73,1.73,0,0,1,.48.75,3.54,3.54,0,0,1,.15,1.09Zm-1.69-2.61h-.66a3.69,3.69,0,0,0-.71.06,1.36,1.36,0,0,0-.47.18.88.88,0,0,0-.28.3,1,1,0,0,0-.08.4.75.75,0,0,0,.24.6,1,1,0,0,0,.68.22,1.26,1.26,0,0,0,.66-.18,3.27,3.27,0,0,0,.62-.54Z"/><path d="M93.26,64.43a2.58,2.58,0,0,1,0,.32.44.44,0,0,1,0,.18.35.35,0,0,1-.06.09l-.07,0L93,65l-.14,0-.21,0a1,1,0,0,0-.27,0A.79.79,0,0,0,92,65a.63.63,0,0,0-.22.18,1,1,0,0,0-.13.33,2.41,2.41,0,0,0,0,.5v.56h1.11a.24.24,0,0,1,.12,0,.28.28,0,0,1,.08.12.54.54,0,0,1,0,.21,1.67,1.67,0,0,1,0,.34,1.34,1.34,0,0,1-.07.53.21.21,0,0,1-.2.16H91.63v4.94a.19.19,0,0,1,0,.12.3.3,0,0,1-.14.08,1.12,1.12,0,0,1-.26.06h-.83a1.1,1.1,0,0,1-.27-.06A.3.3,0,0,1,90,73a.28.28,0,0,1,0-.12V67.91h-.76c-.09,0-.15,0-.2-.16a1.62,1.62,0,0,1-.06-.53,3,3,0,0,1,0-.34.87.87,0,0,1,0-.21.23.23,0,0,1,.09-.12.21.21,0,0,1,.12,0h.75V66A4.34,4.34,0,0,1,90,64.92a1.9,1.9,0,0,1,.38-.78,1.6,1.6,0,0,1,.67-.47,2.58,2.58,0,0,1,1-.16,2.76,2.76,0,0,1,.51.05l.38.09a.67.67,0,0,1,.18.1.32.32,0,0,1,.08.13.62.62,0,0,1,0,.22A2.63,2.63,0,0,1,93.26,64.43Z"/><path d="M99.51,72.85a.27.27,0,0,1,0,.12.23.23,0,0,1-.12.08.94.94,0,0,1-.23.06h-.72a1,1,0,0,1-.22-.06.24.24,0,0,1-.11-.08.19.19,0,0,1,0-.12v-.71A3.84,3.84,0,0,1,97,73a2.33,2.33,0,0,1-1.08.27A2.41,2.41,0,0,1,94.87,73a1.8,1.8,0,0,1-.69-.56,2.2,2.2,0,0,1-.37-.82,4.84,4.84,0,0,1-.11-1.17V66.75a.27.27,0,0,1,0-.12.3.3,0,0,1,.14-.08.87.87,0,0,1,.27,0,2.49,2.49,0,0,1,.41,0,2.56,2.56,0,0,1,.42,0,.86.86,0,0,1,.26,0,.3.3,0,0,1,.14.08.19.19,0,0,1,0,.12V70.2a3.36,3.36,0,0,0,.06.73,1.3,1.3,0,0,0,.19.43.79.79,0,0,0,.32.28,1,1,0,0,0,.46.1,1.17,1.17,0,0,0,.66-.24,4.08,4.08,0,0,0,.7-.69V66.75a.28.28,0,0,1,0-.12.3.3,0,0,1,.14-.08.8.8,0,0,1,.26,0,2.56,2.56,0,0,1,.42,0,2.37,2.37,0,0,1,.41,0,.8.8,0,0,1,.26,0,.3.3,0,0,1,.14.08.19.19,0,0,1,0,.12Z"/><path d="M106.79,72.85a.28.28,0,0,1,0,.12.37.37,0,0,1-.14.08,1.12,1.12,0,0,1-.26.06h-.84a1.12,1.12,0,0,1-.26-.06.37.37,0,0,1-.14-.08.19.19,0,0,1,0-.12V69.37a3.18,3.18,0,0,0-.06-.7,1.55,1.55,0,0,0-.19-.43.79.79,0,0,0-.32-.28.93.93,0,0,0-.45-.1,1.17,1.17,0,0,0-.67.24,3.52,3.52,0,0,0-.69.7v4a.21.21,0,0,1,0,.12.26.26,0,0,1-.14.08,1.12,1.12,0,0,1-.26.06h-.83a1.37,1.37,0,0,1-.27-.06A.37.37,0,0,1,101,73a.28.28,0,0,1,0-.12v-6.1a.19.19,0,0,1,0-.12.23.23,0,0,1,.12-.08.71.71,0,0,1,.23,0,1.78,1.78,0,0,1,.35,0,1.84,1.84,0,0,1,.36,0,.55.55,0,0,1,.22,0,.23.23,0,0,1,.12.08.27.27,0,0,1,0,.12v.71a3.75,3.75,0,0,1,1-.82,2.24,2.24,0,0,1,1.09-.28,2.34,2.34,0,0,1,1,.21,1.72,1.72,0,0,1,.69.55,2.26,2.26,0,0,1,.38.83,4.6,4.6,0,0,1,.12,1.13Z"/><path d="M112.81,71.88a2.63,2.63,0,0,1,0,.3c0,.08,0,.14,0,.2a.4.4,0,0,1,0,.13.53.53,0,0,1-.11.13,1.09,1.09,0,0,1-.28.19,2.34,2.34,0,0,1-.45.2,4,4,0,0,1-.55.15,4.07,4.07,0,0,1-.61,0,3.28,3.28,0,0,1-1.25-.22,2.35,2.35,0,0,1-.91-.64,2.94,2.94,0,0,1-.56-1.05,5,5,0,0,1-.18-1.4,5,5,0,0,1,.22-1.59,3.19,3.19,0,0,1,.64-1.1,2.63,2.63,0,0,1,1-.65,3.55,3.55,0,0,1,1.24-.21,3.15,3.15,0,0,1,1,.18,2,2,0,0,1,.41.18,1.39,1.39,0,0,1,.26.18.58.58,0,0,1,.11.13.33.33,0,0,1,0,.13.56.56,0,0,1,0,.2,2.53,2.53,0,0,1,0,.29,1.51,1.51,0,0,1-.07.56c0,.1-.1.16-.17.16a.4.4,0,0,1-.25-.1l-.31-.21a2.06,2.06,0,0,0-.42-.21,1.52,1.52,0,0,0-.59-.1,1.14,1.14,0,0,0-1,.52,2.63,2.63,0,0,0-.36,1.51,3.75,3.75,0,0,0,.09.87,2,2,0,0,0,.26.63,1.07,1.07,0,0,0,.44.38,1.44,1.44,0,0,0,.61.13,1.58,1.58,0,0,0,.61-.11,2.38,2.38,0,0,0,.45-.24,3.38,3.38,0,0,0,.32-.23.41.41,0,0,1,.22-.11.12.12,0,0,1,.1,0,.22.22,0,0,1,.07.12c0,.06,0,.14,0,.24S112.81,71.73,112.81,71.88Z"/><path d="M115.63,64.69a.91.91,0,0,1-.22.71,1.11,1.11,0,0,1-.78.2,1.13,1.13,0,0,1-.78-.19.92.92,0,0,1-.21-.69,1,1,0,0,1,.21-.72,1.68,1.68,0,0,1,1.57,0A.93.93,0,0,1,115.63,64.69Zm-.13,8.16a.21.21,0,0,1,0,.12.26.26,0,0,1-.14.08,1.12,1.12,0,0,1-.26.06h-.83a1.37,1.37,0,0,1-.27-.06.37.37,0,0,1-.14-.08.28.28,0,0,1,0-.12V66.77a.21.21,0,0,1,0-.12.28.28,0,0,1,.14-.09.9.9,0,0,1,.27-.06,2.49,2.49,0,0,1,.41,0,2.56,2.56,0,0,1,.42,0,.77.77,0,0,1,.26.06.21.21,0,0,1,.14.09.17.17,0,0,1,0,.12Z"/><path d="M123.1,69.74a4.55,4.55,0,0,1-.21,1.42A2.81,2.81,0,0,1,121.23,73a4.11,4.11,0,0,1-1.47.25,4,4,0,0,1-1.42-.23,2.67,2.67,0,0,1-1-.65,2.8,2.8,0,0,1-.59-1.06,5.23,5.23,0,0,1-.19-1.44,4.55,4.55,0,0,1,.21-1.42,3,3,0,0,1,.63-1.11,2.77,2.77,0,0,1,1-.72,4.11,4.11,0,0,1,1.47-.25,4.32,4.32,0,0,1,1.42.22,2.47,2.47,0,0,1,1,.66,2.73,2.73,0,0,1,.59,1.06A5.23,5.23,0,0,1,123.1,69.74Zm-1.77.07a5.25,5.25,0,0,0-.07-.83,1.78,1.78,0,0,0-.25-.66,1.12,1.12,0,0,0-.45-.44,1.42,1.42,0,0,0-.72-.16,1.6,1.6,0,0,0-.67.14,1.32,1.32,0,0,0-.47.41,2,2,0,0,0-.27.65,3.25,3.25,0,0,0-.1.87,4.33,4.33,0,0,0,.08.83,2.15,2.15,0,0,0,.24.66,1.12,1.12,0,0,0,.46.43,1.49,1.49,0,0,0,.71.15,1.41,1.41,0,0,0,.67-.14,1.16,1.16,0,0,0,.48-.4,2,2,0,0,0,.27-.65A3.72,3.72,0,0,0,121.33,69.81Zm-1.16-6.05a.47.47,0,0,1,.11-.13.46.46,0,0,1,.17-.09l.26,0,.39,0a3.1,3.1,0,0,1,.49,0,.8.8,0,0,1,.26.08.12.12,0,0,1,.07.12.21.21,0,0,1-.07.14l-1.32,1.59-.11.11a.31.31,0,0,1-.14.07.67.67,0,0,1-.22,0l-.32,0-.38,0a.5.5,0,0,1-.2-.07.09.09,0,0,1,0-.11.31.31,0,0,1,.07-.16Z"/><path d="M130,72.85a.19.19,0,0,1,0,.12.3.3,0,0,1-.14.08,1.12,1.12,0,0,1-.26.06h-.83a1.37,1.37,0,0,1-.27-.06.32.32,0,0,1-.13-.08.19.19,0,0,1,0-.12V69.37a2.6,2.6,0,0,0-.07-.7,1.13,1.13,0,0,0-.19-.43.76.76,0,0,0-.31-.28,1,1,0,0,0-.46-.1,1.12,1.12,0,0,0-.66.24,3.29,3.29,0,0,0-.7.7v4a.19.19,0,0,1,0,.12.3.3,0,0,1-.14.08,1.26,1.26,0,0,1-.26.06h-.84a1.26,1.26,0,0,1-.26-.06.3.3,0,0,1-.14-.08.19.19,0,0,1,0-.12v-6.1a.27.27,0,0,1,0-.12.32.32,0,0,1,.13-.08.66.66,0,0,1,.23,0,1.78,1.78,0,0,1,.35,0,1.94,1.94,0,0,1,.36,0,.6.6,0,0,1,.22,0,.24.24,0,0,1,.11.08.19.19,0,0,1,0,.12v.71a3.75,3.75,0,0,1,1-.82,2.24,2.24,0,0,1,1.09-.28,2.4,2.4,0,0,1,1,.21,1.87,1.87,0,0,1,.69.55,2.43,2.43,0,0,1,.38.83,5.2,5.2,0,0,1,.11,1.13Z"/><path d="M140.08,72.85a.2.2,0,0,1,0,.13.24.24,0,0,1-.11.08,1,1,0,0,1-.22,0H139a1,1,0,0,1-.23,0,.36.36,0,0,1-.12-.08.28.28,0,0,1,0-.13v-.68a3.91,3.91,0,0,1-1,.79,2.36,2.36,0,0,1-1.15.28,2.39,2.39,0,0,1-1.18-.27,2.3,2.3,0,0,1-.79-.73,3.13,3.13,0,0,1-.44-1.07,6,6,0,0,1-.13-1.29,5.47,5.47,0,0,1,.17-1.46,3.55,3.55,0,0,1,.51-1.11,2.24,2.24,0,0,1,.83-.7,2.52,2.52,0,0,1,1.15-.25,2.05,2.05,0,0,1,.93.21,3.21,3.21,0,0,1,.83.61v-3.3a.16.16,0,0,1,0-.12.28.28,0,0,1,.13-.1,1.46,1.46,0,0,1,.27,0,2.49,2.49,0,0,1,.41,0,2.56,2.56,0,0,1,.42,0,1.2,1.2,0,0,1,.26,0,.39.39,0,0,1,.14.1.16.16,0,0,1,0,.12Zm-1.71-4.08a4,4,0,0,0-.71-.71,1.19,1.19,0,0,0-.71-.24.92.92,0,0,0-.57.17,1.28,1.28,0,0,0-.39.44,2.47,2.47,0,0,0-.22.63,3.29,3.29,0,0,0-.07.71,4.52,4.52,0,0,0,.06.74,2.48,2.48,0,0,0,.2.65,1.18,1.18,0,0,0,.37.45.94.94,0,0,0,.59.17,1.06,1.06,0,0,0,.35,0,1.2,1.2,0,0,0,.34-.17,2.19,2.19,0,0,0,.36-.3l.4-.46Z"/><path d="M147.16,69.62a.69.69,0,0,1-.14.47.49.49,0,0,1-.38.15h-3.72a2.3,2.3,0,0,0,.1.71,1.41,1.41,0,0,0,.29.54,1.26,1.26,0,0,0,.52.33,2.16,2.16,0,0,0,.76.12,3.68,3.68,0,0,0,.79-.07,5.39,5.39,0,0,0,.6-.14l.41-.14a.67.67,0,0,1,.27-.07.17.17,0,0,1,.1,0s.05,0,.07.08a.42.42,0,0,1,0,.18,2.27,2.27,0,0,1,0,.28v.26c0,.07,0,.13,0,.18a.83.83,0,0,1,0,.12.39.39,0,0,1-.08.1.61.61,0,0,1-.24.13,3,3,0,0,1-.5.16,6.35,6.35,0,0,1-1.56.2A4.38,4.38,0,0,1,143,73a2.4,2.4,0,0,1-1-.62,2.62,2.62,0,0,1-.62-1,5.12,5.12,0,0,1-.2-1.49,4.54,4.54,0,0,1,.22-1.47,3.14,3.14,0,0,1,.61-1.11,2.73,2.73,0,0,1,1-.69,3.74,3.74,0,0,1,2.61,0A2.31,2.31,0,0,1,147,68.16a4.08,4.08,0,0,1,.16,1.19Zm-1.67-.49A1.73,1.73,0,0,0,145.2,68a1.12,1.12,0,0,0-1-.41,1.26,1.26,0,0,0-.57.12,1.16,1.16,0,0,0-.4.33,1.56,1.56,0,0,0-.25.5,2.78,2.78,0,0,0-.1.6Z"/><path d="M26.45,88a.17.17,0,0,1-.05.12.28.28,0,0,1-.14.09,1.33,1.33,0,0,1-.28.06l-.43,0-.44,0a1.1,1.1,0,0,1-.27-.06.27.27,0,0,1-.15-.09.16.16,0,0,1,0-.12V84.42H21.34V88a.16.16,0,0,1,0,.12.28.28,0,0,1-.14.09,1.33,1.33,0,0,1-.28.06l-.43,0-.44,0a1.49,1.49,0,0,1-.28-.06.28.28,0,0,1-.14-.09.17.17,0,0,1-.05-.12V79.64a.21.21,0,0,1,.05-.13.37.37,0,0,1,.14-.08,1,1,0,0,1,.28-.06l.44,0,.43,0a.9.9,0,0,1,.28.06.37.37,0,0,1,.14.08.2.2,0,0,1,0,.13v3.24h3.31V79.64a.2.2,0,0,1,0-.13.35.35,0,0,1,.15-.08.77.77,0,0,1,.27-.06l.44,0,.43,0a.9.9,0,0,1,.28.06.37.37,0,0,1,.14.08.21.21,0,0,1,.05.13Z"/><path d="M29.84,79.84a1,1,0,0,1-.21.72,1.16,1.16,0,0,1-.78.2,1.24,1.24,0,0,1-.79-.19,1.31,1.31,0,0,1,0-1.41,1.12,1.12,0,0,1,.79-.21,1.16,1.16,0,0,1,.78.2A.92.92,0,0,1,29.84,79.84ZM29.71,88a.16.16,0,0,1,0,.12.21.21,0,0,1-.14.09,1.2,1.2,0,0,1-.26.05l-.42,0-.41,0a1.46,1.46,0,0,1-.27-.05.28.28,0,0,1-.14-.09A.21.21,0,0,1,28,88V81.92a.28.28,0,0,1,0-.12.56.56,0,0,1,.14-.09l.27-.06.41,0,.42,0,.26.06a.33.33,0,0,1,.14.09.19.19,0,0,1,0,.12Z"/><path d="M36.93,88a.23.23,0,0,1,0,.13s-.06.06-.12.09a.62.62,0,0,1-.22,0l-.34,0-.36,0a.67.67,0,0,1-.22,0c-.06,0-.1,0-.12-.09a.17.17,0,0,1,0-.13v-.67a3.85,3.85,0,0,1-1,.78,2.32,2.32,0,0,1-1.14.28,2.37,2.37,0,0,1-1.18-.27,2.19,2.19,0,0,1-.79-.72,3.3,3.3,0,0,1-.44-1.07A6,6,0,0,1,30.8,85,5.45,5.45,0,0,1,31,83.58a3,3,0,0,1,.51-1.11,2.27,2.27,0,0,1,.83-.71,2.63,2.63,0,0,1,1.15-.24,2.05,2.05,0,0,1,.93.21,3.39,3.39,0,0,1,.83.61V79a.28.28,0,0,1,0-.13.42.42,0,0,1,.14-.09l.26-.06.42,0,.42,0,.26.06a.36.36,0,0,1,.13.09.2.2,0,0,1,0,.13Zm-1.7-4.07a3.94,3.94,0,0,0-.71-.71,1.23,1.23,0,0,0-.71-.25,1,1,0,0,0-.58.17,1.23,1.23,0,0,0-.39.45,2.39,2.39,0,0,0-.22.62,4.17,4.17,0,0,0-.07.71,4.56,4.56,0,0,0,.06.75,2.09,2.09,0,0,0,.21.64,1.2,1.2,0,0,0,.37.46,1,1,0,0,0,.59.17,1.33,1.33,0,0,0,.34,0,1.35,1.35,0,0,0,.34-.17,2.38,2.38,0,0,0,.36-.3,5.3,5.3,0,0,0,.41-.47Z"/><path d="M42.3,82.47c0,.17,0,.3,0,.41s0,.18,0,.24a.32.32,0,0,1-.08.13.18.18,0,0,1-.11,0l-.12,0-.16-.05-.18-.06-.23,0a.79.79,0,0,0-.29.06,1.35,1.35,0,0,0-.29.18,1.69,1.69,0,0,0-.32.33,3.09,3.09,0,0,0-.36.5V88a.21.21,0,0,1,0,.12.27.27,0,0,1-.15.09,1.2,1.2,0,0,1-.26.05l-.42,0-.41,0a1.2,1.2,0,0,1-.26-.05.27.27,0,0,1-.15-.09.21.21,0,0,1,0-.12V81.91a.21.21,0,0,1,0-.12.19.19,0,0,1,.12-.09l.23,0,.35,0,.36,0a1,1,0,0,1,.23,0,.2.2,0,0,1,.11.09.21.21,0,0,1,0,.12v.76a5.16,5.16,0,0,1,.45-.57,3,3,0,0,1,.41-.35,1.09,1.09,0,0,1,.38-.18,1.28,1.28,0,0,1,.38,0h.19l.22,0,.19.06.12.06a.22.22,0,0,1,.05.08.53.53,0,0,1,0,.11,1.06,1.06,0,0,1,0,.21C42.3,82.18,42.3,82.31,42.3,82.47Z"/><path d="M49.07,84.89a4.62,4.62,0,0,1-.2,1.43,3.05,3.05,0,0,1-.62,1.1,2.81,2.81,0,0,1-1,.72,3.9,3.9,0,0,1-1.47.25,4,4,0,0,1-1.41-.22,2.5,2.5,0,0,1-1-.66,2.61,2.61,0,0,1-.59-1.06A4.81,4.81,0,0,1,42.54,85a4.62,4.62,0,0,1,.21-1.43,3.16,3.16,0,0,1,.62-1.11,2.91,2.91,0,0,1,1.05-.71,3.81,3.81,0,0,1,1.46-.25,4,4,0,0,1,1.42.22,2.52,2.52,0,0,1,1,.65,2.66,2.66,0,0,1,.58,1.06A4.88,4.88,0,0,1,49.07,84.89ZM47.3,85a4.35,4.35,0,0,0-.07-.83,2.15,2.15,0,0,0-.24-.66,1.24,1.24,0,0,0-.45-.43,1.42,1.42,0,0,0-.72-.16,1.44,1.44,0,0,0-.67.14,1.16,1.16,0,0,0-.47.41,1.94,1.94,0,0,0-.28.65,3.72,3.72,0,0,0-.09.86,4.25,4.25,0,0,0,.08.83,2,2,0,0,0,.24.66,1.19,1.19,0,0,0,.45.44,1.52,1.52,0,0,0,.71.15,1.59,1.59,0,0,0,.68-.14,1.16,1.16,0,0,0,.47-.41,1.71,1.71,0,0,0,.28-.64A3.85,3.85,0,0,0,47.3,85Z"/><path d="M58.82,88a.23.23,0,0,1,0,.13s-.06.06-.12.09a.62.62,0,0,1-.22,0l-.34,0-.36,0a.67.67,0,0,1-.22,0c-.06,0-.1,0-.12-.09a.17.17,0,0,1,0-.13v-.67a3.85,3.85,0,0,1-1,.78,2.32,2.32,0,0,1-1.14.28,2.37,2.37,0,0,1-1.18-.27,2.19,2.19,0,0,1-.79-.72,3.3,3.3,0,0,1-.44-1.07A6,6,0,0,1,52.69,85a5.45,5.45,0,0,1,.18-1.46,3,3,0,0,1,.51-1.11,2.27,2.27,0,0,1,.83-.71,2.63,2.63,0,0,1,1.15-.24,2.05,2.05,0,0,1,.93.21,3.17,3.17,0,0,1,.82.61V79a.28.28,0,0,1,0-.13.42.42,0,0,1,.14-.09l.26-.06.42,0,.42,0,.26.06a.36.36,0,0,1,.13.09.2.2,0,0,1,0,.13Zm-1.71-4.07a3.63,3.63,0,0,0-.7-.71A1.23,1.23,0,0,0,55.7,83a1,1,0,0,0-.58.17,1.23,1.23,0,0,0-.39.45,2.39,2.39,0,0,0-.22.62,4.17,4.17,0,0,0-.07.71,4.56,4.56,0,0,0,.06.75,2.4,2.4,0,0,0,.2.64,1.32,1.32,0,0,0,.38.46,1,1,0,0,0,.59.17,1.33,1.33,0,0,0,.34,0,1.35,1.35,0,0,0,.34-.17,2.38,2.38,0,0,0,.36-.3,5.34,5.34,0,0,0,.4-.47Z"/><path d="M65.91,84.78a.67.67,0,0,1-.14.46.53.53,0,0,1-.39.15H61.67a2.6,2.6,0,0,0,.09.71,1.41,1.41,0,0,0,.29.54,1.35,1.35,0,0,0,.52.34,2.18,2.18,0,0,0,.77.12,4.55,4.55,0,0,0,.79-.07,5.18,5.18,0,0,0,.59-.14l.41-.15a.83.83,0,0,1,.27-.06l.1,0a.22.22,0,0,1,.07.09.61.61,0,0,1,0,.17c0,.08,0,.17,0,.29a1.85,1.85,0,0,1,0,.25.9.9,0,0,1,0,.18.4.4,0,0,1,0,.13.61.61,0,0,1-.07.1,1.08,1.08,0,0,1-.24.13,4.51,4.51,0,0,1-.51.16c-.2,0-.44.1-.7.14a7.62,7.62,0,0,1-.85,0,4.45,4.45,0,0,1-1.43-.2,2.43,2.43,0,0,1-1.63-1.68,5.07,5.07,0,0,1-.2-1.49,4.72,4.72,0,0,1,.21-1.46,3.13,3.13,0,0,1,.61-1.11,2.68,2.68,0,0,1,1-.69,3.31,3.31,0,0,1,1.3-.24,3.46,3.46,0,0,1,1.31.22,2.32,2.32,0,0,1,.89.63,2.56,2.56,0,0,1,.51.95,4.05,4.05,0,0,1,.17,1.18Zm-1.67-.49A1.82,1.82,0,0,0,64,83.15a1.12,1.12,0,0,0-1-.42,1.26,1.26,0,0,0-.57.13,1.11,1.11,0,0,0-.41.33,1.49,1.49,0,0,0-.24.49,2.36,2.36,0,0,0-.1.61Z"/><path d="M71.65,88a.16.16,0,0,1,0,.12.28.28,0,0,1-.14.09,1.46,1.46,0,0,1-.27.05l-.41,0-.42,0a1.2,1.2,0,0,1-.26-.05.21.21,0,0,1-.14-.09.16.16,0,0,1,0-.12V79a.2.2,0,0,1,0-.13.33.33,0,0,1,.14-.09l.26-.06.42,0,.41,0,.27.06a.56.56,0,0,1,.14.09.2.2,0,0,1,0,.13Z"/><path d="M78.28,88a.18.18,0,0,1-.07.15.47.47,0,0,1-.21.07,2.44,2.44,0,0,1-.44,0,2.49,2.49,0,0,1-.45,0,.34.34,0,0,1-.19-.07.2.2,0,0,1-.06-.15v-.49a2.77,2.77,0,0,1-.86.63,2.5,2.5,0,0,1-1.07.22,3.14,3.14,0,0,1-.89-.12,2.11,2.11,0,0,1-.71-.38,1.71,1.71,0,0,1-.46-.62,2.06,2.06,0,0,1-.16-.86,1.92,1.92,0,0,1,.21-.92,1.61,1.61,0,0,1,.62-.65,3.12,3.12,0,0,1,1-.38A6.71,6.71,0,0,1,76,84.33h.59V84a1.9,1.9,0,0,0-.06-.5.89.89,0,0,0-.19-.36.93.93,0,0,0-.35-.21,2.17,2.17,0,0,0-.55-.07,2.57,2.57,0,0,0-.77.1,3.48,3.48,0,0,0-.6.21l-.43.21a.62.62,0,0,1-.29.1.21.21,0,0,1-.13,0,.39.39,0,0,1-.1-.14q0-.09-.06-.21a2.64,2.64,0,0,1,0-.29,1.51,1.51,0,0,1,0-.34.46.46,0,0,1,.13-.22,1.09,1.09,0,0,1,.33-.22,4.37,4.37,0,0,1,.56-.22,6.52,6.52,0,0,1,.7-.17,5.16,5.16,0,0,1,.79-.06,4.35,4.35,0,0,1,1.22.14,2,2,0,0,1,.84.43,1.62,1.62,0,0,1,.48.75,3.43,3.43,0,0,1,.15,1.08Zm-1.69-2.62h-.65a3,3,0,0,0-.72.07,1.36,1.36,0,0,0-.47.18.64.64,0,0,0-.27.3.84.84,0,0,0-.09.4.78.78,0,0,0,.24.6,1,1,0,0,0,.68.22A1.18,1.18,0,0,0,76,87a2.49,2.49,0,0,0,.62-.54Z"/><path d="M88.38,88a.23.23,0,0,1,0,.13s-.06.06-.12.09a.62.62,0,0,1-.22,0l-.34,0-.36,0a.67.67,0,0,1-.22,0c-.06,0-.1,0-.12-.09a.17.17,0,0,1,0-.13v-.67a3.85,3.85,0,0,1-1,.78,2.58,2.58,0,0,1-2.32,0,2.19,2.19,0,0,1-.79-.72,3.3,3.3,0,0,1-.44-1.07A6,6,0,0,1,82.25,85a5.45,5.45,0,0,1,.18-1.46,3,3,0,0,1,.51-1.11,2.27,2.27,0,0,1,.83-.71,2.63,2.63,0,0,1,1.15-.24,2.05,2.05,0,0,1,.93.21,3.17,3.17,0,0,1,.82.61V79a.28.28,0,0,1,0-.13.42.42,0,0,1,.14-.09l.26-.06.42,0,.42,0,.26.06a.36.36,0,0,1,.13.09.2.2,0,0,1,0,.13Zm-1.71-4.07a3.63,3.63,0,0,0-.7-.71,1.23,1.23,0,0,0-.71-.25,1,1,0,0,0-.58.17,1.23,1.23,0,0,0-.39.45,2.39,2.39,0,0,0-.22.62,4.17,4.17,0,0,0-.07.71,4.56,4.56,0,0,0,.06.75,2.4,2.4,0,0,0,.2.64,1.32,1.32,0,0,0,.38.46,1,1,0,0,0,.59.17,1.33,1.33,0,0,0,.34,0,1.35,1.35,0,0,0,.34-.17,2.38,2.38,0,0,0,.36-.3,5.34,5.34,0,0,0,.4-.47Z"/><path d="M95.47,84.78a.67.67,0,0,1-.14.46.53.53,0,0,1-.39.15H91.23a2.6,2.6,0,0,0,.09.71,1.41,1.41,0,0,0,.29.54,1.35,1.35,0,0,0,.52.34,2.22,2.22,0,0,0,.77.12,4.55,4.55,0,0,0,.79-.07,5.18,5.18,0,0,0,.59-.14l.41-.15a.83.83,0,0,1,.27-.06l.1,0a.22.22,0,0,1,.07.09.61.61,0,0,1,0,.17,2.44,2.44,0,0,1,0,.29,1.85,1.85,0,0,1,0,.25.9.9,0,0,1,0,.18.4.4,0,0,1,0,.13.61.61,0,0,1-.07.1,1.08,1.08,0,0,1-.24.13,4.51,4.51,0,0,1-.51.16c-.2,0-.44.1-.7.14a7.62,7.62,0,0,1-.85,0,4.45,4.45,0,0,1-1.43-.2,2.64,2.64,0,0,1-1-.62,2.58,2.58,0,0,1-.61-1.06,5.07,5.07,0,0,1-.2-1.49,4.72,4.72,0,0,1,.21-1.46,3,3,0,0,1,.62-1.11,2.56,2.56,0,0,1,1-.69,3.35,3.35,0,0,1,1.3-.24,3.46,3.46,0,0,1,1.31.22,2.32,2.32,0,0,1,.89.63,2.56,2.56,0,0,1,.51.95,4.05,4.05,0,0,1,.17,1.18Zm-1.67-.49a1.76,1.76,0,0,0-.29-1.14,1.12,1.12,0,0,0-1-.42,1.26,1.26,0,0,0-.57.13,1.2,1.2,0,0,0-.41.33,1.49,1.49,0,0,0-.24.49,2.36,2.36,0,0,0-.1.61Z"/><path d="M104.83,85.58a2.79,2.79,0,0,1-.26,1.23,2.63,2.63,0,0,1-.7.88,3.19,3.19,0,0,1-1,.53,4.38,4.38,0,0,1-1.27.17,4.5,4.5,0,0,1-.85-.07,4.72,4.72,0,0,1-.7-.18,3.51,3.51,0,0,1-.5-.22,1.69,1.69,0,0,1-.29-.21.53.53,0,0,1-.13-.26,2.88,2.88,0,0,1,0-.48c0-.14,0-.26,0-.35a1.19,1.19,0,0,1,0-.24.23.23,0,0,1,.09-.12.16.16,0,0,1,.12,0,.65.65,0,0,1,.27.11,3.27,3.27,0,0,0,.44.25,3.81,3.81,0,0,0,.66.25,2.86,2.86,0,0,0,.87.12,2.1,2.1,0,0,0,.59-.08,1.41,1.41,0,0,0,.44-.23.87.87,0,0,0,.28-.35,1.2,1.2,0,0,0,.1-.47.83.83,0,0,0-.17-.52,1.6,1.6,0,0,0-.43-.38,4.6,4.6,0,0,0-.59-.32c-.23-.09-.46-.2-.69-.31a5.7,5.7,0,0,1-.69-.37,2.42,2.42,0,0,1-.6-.5,2.18,2.18,0,0,1-.43-.69,2.84,2.84,0,0,1,.07-2.06,2.29,2.29,0,0,1,.64-.8,2.61,2.61,0,0,1,.94-.48,4.32,4.32,0,0,1,1.15-.16,4.46,4.46,0,0,1,.63,0,4.68,4.68,0,0,1,.59.13,3.69,3.69,0,0,1,.48.19.71.71,0,0,1,.28.17.47.47,0,0,1,.1.11s0,.08,0,.13a1,1,0,0,1,0,.2,2.63,2.63,0,0,1,0,.3,3.22,3.22,0,0,1,0,.33c0,.09,0,.17,0,.23a.32.32,0,0,1-.07.13.21.21,0,0,1-.12,0,.52.52,0,0,1-.24-.1l-.41-.21a4.3,4.3,0,0,0-.55-.2,2.5,2.5,0,0,0-.69-.09,1.53,1.53,0,0,0-.51.07,1,1,0,0,0-.37.2.73.73,0,0,0-.22.3,1,1,0,0,0-.07.38.84.84,0,0,0,.16.51,1.6,1.6,0,0,0,.43.38,5.77,5.77,0,0,0,.61.31l.7.31a6.8,6.8,0,0,1,.7.38,2.92,2.92,0,0,1,.61.49,2.68,2.68,0,0,1,.43.69A2.36,2.36,0,0,1,104.83,85.58Z"/><path d="M112,86.9a2.53,2.53,0,0,1,0,.29.56.56,0,0,1,0,.2.53.53,0,0,1,0,.15.6.6,0,0,1-.11.14,1.51,1.51,0,0,1-.29.2,4.54,4.54,0,0,1-.53.24,5.16,5.16,0,0,1-.71.19,4.68,4.68,0,0,1-.86.07,4.44,4.44,0,0,1-1.64-.28,3.29,3.29,0,0,1-1.25-.84,3.68,3.68,0,0,1-.78-1.39,6,6,0,0,1-.28-1.94,6.14,6.14,0,0,1,.3-2,4.05,4.05,0,0,1,.84-1.47,3.46,3.46,0,0,1,1.3-.9,4.27,4.27,0,0,1,1.66-.31,4.27,4.27,0,0,1,1.35.22,3.55,3.55,0,0,1,.52.23,1.86,1.86,0,0,1,.32.22.43.43,0,0,1,.13.16l.06.15c0,.07,0,.14,0,.23s0,.19,0,.32a3.32,3.32,0,0,1,0,.35.71.71,0,0,1,0,.23.32.32,0,0,1-.08.13.15.15,0,0,1-.11,0,.52.52,0,0,1-.26-.12,4.53,4.53,0,0,0-.4-.27,4.31,4.31,0,0,0-.6-.26,2.49,2.49,0,0,0-.82-.12,2,2,0,0,0-.94.21,2.1,2.1,0,0,0-.71.62,3,3,0,0,0-.44,1,4.92,4.92,0,0,0-.15,1.27,5.32,5.32,0,0,0,.16,1.35,2.5,2.5,0,0,0,.46.94,2,2,0,0,0,.72.56,2.4,2.4,0,0,0,1,.18,2.49,2.49,0,0,0,.82-.12,2.41,2.41,0,0,0,.6-.25l.41-.24a.55.55,0,0,1,.25-.11.18.18,0,0,1,.11,0s0,0,.07.11a1,1,0,0,1,0,.22C112,86.6,112,86.73,112,86.9Z"/><path d="M120.3,87.57a1.59,1.59,0,0,1,.1.39.21.21,0,0,1-.05.21.43.43,0,0,1-.27.09l-.52,0H119a1.43,1.43,0,0,1-.29,0,.27.27,0,0,1-.15-.09.91.91,0,0,1-.07-.14l-.59-1.78h-3.32L114,88a.59.59,0,0,1-.07.16.28.28,0,0,1-.15.1.67.67,0,0,1-.28.05l-.47,0-.5,0a.41.41,0,0,1-.24-.1.26.26,0,0,1,0-.22,2.23,2.23,0,0,1,.1-.39l2.73-7.84a.67.67,0,0,1,.1-.19.27.27,0,0,1,.17-.11,1.28,1.28,0,0,1,.33,0h1.2a1.67,1.67,0,0,1,.38,0,.32.32,0,0,1,.19.11.69.69,0,0,1,.1.21Zm-4.06-6.49h0L115,84.84h2.51Z"/><path d="M128.61,83.68a6.12,6.12,0,0,1-.32,2.09,3.66,3.66,0,0,1-.91,1.41,3.72,3.72,0,0,1-1.45.8,7.1,7.1,0,0,1-2,.26h-2.11a.57.57,0,0,1-.38-.14.53.53,0,0,1-.15-.43V80a.57.57,0,0,1,.15-.44.62.62,0,0,1,.38-.13h2.27a6.21,6.21,0,0,1,2,.28,3.64,3.64,0,0,1,1.39.82,3.5,3.5,0,0,1,.85,1.34A5.28,5.28,0,0,1,128.61,83.68Zm-1.86.07a4.36,4.36,0,0,0-.15-1.17,2.45,2.45,0,0,0-.47-.94,2.27,2.27,0,0,0-.83-.62A3.38,3.38,0,0,0,124,80.8h-.91v6H124a3.46,3.46,0,0,0,1.24-.2,2,2,0,0,0,.84-.57,2.46,2.46,0,0,0,.51-1A4.9,4.9,0,0,0,126.75,83.75Z"/><path d="M136.72,87.57a1.59,1.59,0,0,1,.1.39.21.21,0,0,1,0,.21.43.43,0,0,1-.27.09l-.52,0h-.55a1.43,1.43,0,0,1-.29,0,.27.27,0,0,1-.15-.09.91.91,0,0,1-.07-.14l-.59-1.78H131L130.45,88a1.26,1.26,0,0,1-.07.16.28.28,0,0,1-.15.1.67.67,0,0,1-.28.05l-.47,0-.5,0a.41.41,0,0,1-.24-.1.26.26,0,0,1-.05-.22,2.23,2.23,0,0,1,.1-.39l2.73-7.84a.67.67,0,0,1,.1-.19.27.27,0,0,1,.17-.11,1.28,1.28,0,0,1,.33,0h1.2a1.67,1.67,0,0,1,.38,0,.32.32,0,0,1,.19.11.69.69,0,0,1,.1.21Zm-4.06-6.49h0l-1.25,3.76h2.51Z"/><path d="M142.06,81.48a3,3,0,0,1-.16,1,2.34,2.34,0,0,1-.45.77,2.16,2.16,0,0,1-.7.53,2.61,2.61,0,0,1-.9.25l0,1.34c0,.08-.07.14-.19.18a1.94,1.94,0,0,1-.55.06h-.38a.75.75,0,0,1-.24,0,.23.23,0,0,1-.13-.07.22.22,0,0,1-.05-.12l-.06-1.62a1.78,1.78,0,0,1,0-.35.45.45,0,0,1,.1-.22.34.34,0,0,1,.18-.11,1,1,0,0,1,.26,0h.1a1.46,1.46,0,0,0,.62-.12,1.29,1.29,0,0,0,.44-.31,1.41,1.41,0,0,0,.25-.45,2,2,0,0,0,.07-.55,1.89,1.89,0,0,0-.09-.6,1.22,1.22,0,0,0-.28-.48,1.19,1.19,0,0,0-.47-.3,1.92,1.92,0,0,0-.67-.11,2.77,2.77,0,0,0-.61.07l-.46.15-.32.15a.4.4,0,0,1-.19.07.14.14,0,0,1-.09,0,.23.23,0,0,1-.07-.11,1.07,1.07,0,0,1,0-.24,2.06,2.06,0,0,1,0-.38,2.74,2.74,0,0,1,0-.35.26.26,0,0,1,.09-.17.78.78,0,0,1,.26-.16,3,3,0,0,1,.46-.18,5.91,5.91,0,0,1,.59-.13,3.82,3.82,0,0,1,.68,0,3.77,3.77,0,0,1,1.38.22,2.67,2.67,0,0,1,1,.6,2.26,2.26,0,0,1,.53.86A2.88,2.88,0,0,1,142.06,81.48Zm-2,5.86a2,2,0,0,1,0,.47.69.69,0,0,1-.15.31.74.74,0,0,1-.3.17,2.23,2.23,0,0,1-.94,0,.64.64,0,0,1-.29-.17.61.61,0,0,1-.16-.31,2,2,0,0,1-.05-.47,2.14,2.14,0,0,1,.05-.48.58.58,0,0,1,.16-.31.65.65,0,0,1,.29-.18,2.23,2.23,0,0,1,.94,0,.75.75,0,0,1,.3.18.64.64,0,0,1,.15.31A2.14,2.14,0,0,1,140,87.34Z"/></svg>