<svg id="Capa_1" data-name="Capa 1" xmlns="http://www.w3.org/2000/svg" viewBox="0 0 198.31 134.35"><defs><style>.cls-1{opacity:0.3;}.cls-2{fill:#fff;}.cls-3{fill:#96989b;}.cls-4{fill:#231f20;}</style></defs><path class="cls-1" d="M192.83,22.62C184.31,9,164.41,13.83,149.21,13.8q-4.1-.09-8.36-.29c-19.91-.9-42.32-3.07-60.79-1.48a93.63,93.63,0,0,0-12.43,1.84C31,27,44,55.77,46.11,80.37c-5.5,7.12-16.12,16-35.65,18.08,0,0,19.64,1.65,34.84,6.81.68,9.16,4.17,17.63,17.28,23.46A39.45,39.45,0,0,0,73,130c3.88.15,7.65.16,11.37.09s7.4-.2,11.07-.35c10.84-.94,21.77-.48,32.69,0,2.73.13,5.45.27,8.18.39,18-.5,42.43,7.64,52.38-9.54,12.66-20.81,4.52-46.13,7.53-69.31.3-2.55.59-5.09.78-7.59C197.57,36.21,197.1,29,192.83,22.62Z"/><path class="cls-2" d="M187.12,14.62C178.59,1,158.7,5.83,143.49,5.8q-4.08-.09-8.36-.29C115.23,4.61,92.82,2.44,74.35,4A93.39,93.39,0,0,0,61.92,5.87C29.73,17.37,35.84,41,39.24,63.2a18,18,0,0,1-7,17.16c-6.19,4.65-15,8.75-27.52,10.09a189.07,189.07,0,0,1,27.55,4.66,11.42,11.42,0,0,1,8.25,8.17c1.77,6.8,6.15,12.91,16.32,17.44A39.53,39.53,0,0,0,67.32,122c3.87.15,7.65.16,11.37.09s7.39-.2,11.07-.35c10.83-.94,21.77-.48,32.68.05l8.19.39c18-.5,42.43,7.64,52.38-9.54,12.66-20.81,4.52-46.13,7.52-69.31.31-2.55.6-5.09.78-7.59C191.86,28.21,191.38,21,187.12,14.62Z"/><path class="cls-3" d="M38.75,70.89a18.07,18.07,0,0,0,3.88-14.18c-2-12.8-4.8-26-.73-37.18-8.66,12.23-5,28.28-2.66,43.67A18.08,18.08,0,0,1,38.75,70.89Z"/><path class="cls-3" d="M134,115.66c-2.73-.12-5.46-.26-8.19-.39-10.91-.53-21.85-1-32.68,0-3.68.15-7.35.29-11.07.35s-7.5.06-11.37-.09a39.53,39.53,0,0,1-10.46-1.25C50.08,109.7,45.7,103.59,43.93,96.79a11.42,11.42,0,0,0-8.25-8.17c-4.45-1.15-8.95-2-13-2.73a61,61,0,0,1-18,4.56,189.07,189.07,0,0,1,27.55,4.66,11.42,11.42,0,0,1,8.25,8.17c1.77,6.8,6.15,12.91,16.32,17.44A39.53,39.53,0,0,0,67.32,122c3.87.15,7.65.16,11.37.09s7.39-.2,11.07-.35c10.83-.94,21.77-.48,32.68.05l8.19.39c18-.5,42.43,7.64,52.38-9.54a44.45,44.45,0,0,0,3-5.87C175.82,123.08,151.8,115.17,134,115.66Z"/><path class="cls-4" d="M158.69,124.74c-4.46,0-9.1-.4-13.69-.79a130,130,0,0,0-14.34-.72l-6.51-.31-1.76-.08c-11.61-.57-22.08-1-32.54,0-3.56.14-7.31.29-11.14.35-4.15.07-7.89,0-11.43-.09a41,41,0,0,1-10.69-1.28l-.17-.06c-9.41-4.19-14.79-10-16.92-18.16-.94-3.61-4-6-7.71-7C18.51,93.17,2,89.77,1.85,89.76l5-.66c10.7-1.14,17.6-4.19,24.8-9.6a16.91,16.91,0,0,0,6.56-16.13c-.21-1.43-.44-2.86-.67-4.3-3.4-21.21-6.91-43.15,24-54.22l.13,0A92.54,92.54,0,0,1,74.26,3c14.08-1.21,30.38-.25,46.15.68,4.9.28,10,.58,14.77.8,3.08.14,5.81.23,8.34.29,3,0,6.27-.19,9.67-.39,13-.77,27.71-1.64,34.84,9.71,4.72,7.09,4.85,15,4.36,21.75-.18,2.49-.47,5-.78,7.64-1,8-.73,16.44-.43,24.6.57,15.4,1.16,31.32-7.25,45.14C178.48,122.58,169.09,124.74,158.69,124.74ZM132.38,121c4,0,8.3.37,12.8.75,14.65,1.25,29.79,2.55,36.89-9.72,8.09-13.29,7.54-28.19,7-44-.3-8.24-.62-16.77.44-25,.31-2.57.6-5.08.77-7.53.47-6.41.36-13.85-4-20.41l0,0c-6.44-10.28-19.88-9.48-32.88-8.71-3.44.21-6.69.39-9.83.39-2.57,0-5.31-.15-8.41-.29-4.82-.22-9.89-.52-14.8-.81-15.69-.92-31.91-1.87-45.84-.67a91.25,91.25,0,0,0-12.22,1.8C33,17.38,36.23,37.47,39.63,58.73c.23,1.44.46,2.88.68,4.31a19.1,19.1,0,0,1-7.4,18.19,52.36,52.36,0,0,1-20.31,9,177.55,177.55,0,0,1,20,3.79,12.54,12.54,0,0,1,9,9c1.95,7.49,6.91,12.79,15.63,16.69a38.87,38.87,0,0,0,10.09,1.19c3.55.13,7.25.16,11.36.09,3.81-.06,7.54-.21,11-.35,10.55-.92,21.09-.52,32.79.05l1.75.08,6.42.31C131.24,121.05,131.8,121,132.38,121Z"/><path d="M79.46,46.38a2.62,2.62,0,0,1,.06-.61.84.84,0,0,1,.2-.4.78.78,0,0,1,.38-.21,2.61,2.61,0,0,1,1.2,0,.74.74,0,0,1,.38.21.84.84,0,0,1,.2.4,2.62,2.62,0,0,1,.06.61,2.77,2.77,0,0,1-.06.62.84.84,0,0,1-.2.4.75.75,0,0,1-.38.22,2.61,2.61,0,0,1-1.2,0,.8.8,0,0,1-.38-.22.84.84,0,0,1-.2-.4A2.77,2.77,0,0,1,79.46,46.38ZM79.73,49a.44.44,0,0,1,.06-.16.49.49,0,0,1,.15-.12,1.33,1.33,0,0,1,.3-.07,3,3,0,0,1,.46,0,2.86,2.86,0,0,1,.46,0,1.33,1.33,0,0,1,.3.07.49.49,0,0,1,.15.12.44.44,0,0,1,.06.16l.22,8a.33.33,0,0,1,0,.2.38.38,0,0,1-.19.15,1.38,1.38,0,0,1-.37.08,4.62,4.62,0,0,1-.58,0,4.51,4.51,0,0,1-.58,0,1.54,1.54,0,0,1-.37-.09.49.49,0,0,1-.19-.14.34.34,0,0,1-.06-.2Z"/><path d="M90.86,55.29a.67.67,0,0,1-.12.24.4.4,0,0,1-.22.14,2.11,2.11,0,0,1-.43.06l-.72,0h-.6l-.42,0a1.55,1.55,0,0,1-.29,0l-.18-.09a.37.37,0,0,1-.12-.13,1.31,1.31,0,0,1-.07-.19L84.3,45.18a3.39,3.39,0,0,1-.13-.5.32.32,0,0,1,.09-.28.69.69,0,0,1,.38-.11c.17,0,.42,0,.73,0H86a1.77,1.77,0,0,1,.35.07.29.29,0,0,1,.17.13,1.65,1.65,0,0,1,.09.22l2.77,8.77h0l2.72-8.73a1,1,0,0,1,.08-.24.45.45,0,0,1,.18-.15,2,2,0,0,1,.37-.07h.65l.63,0a.42.42,0,0,1,.3.13.34.34,0,0,1,.06.29,3.63,3.63,0,0,1-.14.49Z"/><path d="M101.4,55.42a.22.22,0,0,1-.09.19.57.57,0,0,1-.28.1,3.5,3.5,0,0,1-.56,0,3.54,3.54,0,0,1-.57,0,.49.49,0,0,1-.26-.1.24.24,0,0,1-.07-.19V54.8a3.57,3.57,0,0,1-1.1.8,3.16,3.16,0,0,1-1.38.29,3.81,3.81,0,0,1-1.15-.16,2.59,2.59,0,0,1-.9-.48,2.28,2.28,0,0,1-.6-.8,2.67,2.67,0,0,1-.21-1.1,2.53,2.53,0,0,1,.27-1.2,2.26,2.26,0,0,1,.8-.83,4.18,4.18,0,0,1,1.32-.49,9.92,9.92,0,0,1,1.84-.16h.77V50.2a2.51,2.51,0,0,0-.08-.65,1,1,0,0,0-.25-.46,1,1,0,0,0-.45-.27,2.41,2.41,0,0,0-.71-.09,3.73,3.73,0,0,0-1,.12,7.47,7.47,0,0,0-.77.28l-.56.27a.79.79,0,0,1-.36.12.27.27,0,0,1-.17-.06.43.43,0,0,1-.12-.17,1,1,0,0,1-.08-.29,2.05,2.05,0,0,1,0-.37,1.63,1.63,0,0,1,0-.43.59.59,0,0,1,.17-.28,1.38,1.38,0,0,1,.43-.28,4.14,4.14,0,0,1,.72-.29,5.42,5.42,0,0,1,.9-.21,5.47,5.47,0,0,1,1-.09,6,6,0,0,1,1.58.18,2.64,2.64,0,0,1,1.08.56,2.17,2.17,0,0,1,.61,1,4.45,4.45,0,0,1,.2,1.4Zm-2.17-3.36h-.85a4.73,4.73,0,0,0-.91.08,1.67,1.67,0,0,0-.62.24.88.88,0,0,0-.34.38,1.08,1.08,0,0,0-.11.52,1,1,0,0,0,.31.77,1.22,1.22,0,0,0,.86.28,1.62,1.62,0,0,0,.86-.24,3.74,3.74,0,0,0,.8-.69Z"/><path d="M116.07,55.39a.24.24,0,0,1,0,.16.38.38,0,0,1-.17.11,1.39,1.39,0,0,1-.34.06,3.89,3.89,0,0,1-.53,0,4,4,0,0,1-.55,0,1.39,1.39,0,0,1-.34-.06.38.38,0,0,1-.17-.11.24.24,0,0,1,0-.16V50.74a3.24,3.24,0,0,0-.08-.72,1.71,1.71,0,0,0-.22-.55,1.08,1.08,0,0,0-.95-.49,1.31,1.31,0,0,0-.8.31,5.29,5.29,0,0,0-.88.89v5.21a.3.3,0,0,1,0,.16.5.5,0,0,1-.18.11,1.39,1.39,0,0,1-.34.06,4.7,4.7,0,0,1-1.06,0,1.31,1.31,0,0,1-.34-.06.37.37,0,0,1-.18-.11.24.24,0,0,1-.05-.16V50.74a3.24,3.24,0,0,0-.08-.72,1.71,1.71,0,0,0-.22-.55,1,1,0,0,0-.39-.36,1.09,1.09,0,0,0-.55-.13,1.31,1.31,0,0,0-.81.31,4.93,4.93,0,0,0-.87.89v5.21a.3.3,0,0,1,0,.16.5.5,0,0,1-.18.11,1.39,1.39,0,0,1-.34.06,4,4,0,0,1-.54,0,4.06,4.06,0,0,1-.54,0,1.22,1.22,0,0,1-.33-.06.37.37,0,0,1-.18-.11.25.25,0,0,1-.06-.16V47.55a.27.27,0,0,1,.05-.15.34.34,0,0,1,.16-.11,1.37,1.37,0,0,1,.29-.07l.45,0,.47,0a1.13,1.13,0,0,1,.28.07.37.37,0,0,1,.15.11.26.26,0,0,1,0,.15v.91a5.46,5.46,0,0,1,1.3-1.06,2.83,2.83,0,0,1,1.35-.35,3.85,3.85,0,0,1,.87.1,2.7,2.7,0,0,1,.69.29,2.29,2.29,0,0,1,.52.46,2.36,2.36,0,0,1,.37.59,5.15,5.15,0,0,1,.69-.65,4.14,4.14,0,0,1,.67-.45,3,3,0,0,1,.66-.25,2.52,2.52,0,0,1,.67-.09,2.93,2.93,0,0,1,1.32.27,2.22,2.22,0,0,1,.86.71,2.84,2.84,0,0,1,.47,1.06,5.37,5.37,0,0,1,.14,1.29Z"/><path d="M126.17,51.39a5.87,5.87,0,0,1-.26,1.83,3.93,3.93,0,0,1-.8,1.43,3.65,3.65,0,0,1-1.34.92,5.8,5.8,0,0,1-3.71,0,3.22,3.22,0,0,1-1.29-.84A3.4,3.4,0,0,1,118,53.4a6.18,6.18,0,0,1-.25-1.85,5.86,5.86,0,0,1,.27-1.83,4,4,0,0,1,.8-1.42,3.53,3.53,0,0,1,1.34-.92,5,5,0,0,1,1.89-.33,5.32,5.32,0,0,1,1.83.29,3.25,3.25,0,0,1,1.28.84,3.66,3.66,0,0,1,.75,1.36A6.53,6.53,0,0,1,126.17,51.39Zm-2.27.09a5.19,5.19,0,0,0-.1-1.07,2.4,2.4,0,0,0-.31-.84,1.59,1.59,0,0,0-.58-.57,2,2,0,0,0-.92-.2,1.91,1.91,0,0,0-.86.18,1.56,1.56,0,0,0-.61.53,2.5,2.5,0,0,0-.35.83,4.75,4.75,0,0,0-.12,1.12,5.82,5.82,0,0,0,.09,1.06,2.59,2.59,0,0,0,.32.85,1.42,1.42,0,0,0,.58.56,2.18,2.18,0,0,0,1.78,0,1.56,1.56,0,0,0,.61-.53,2.17,2.17,0,0,0,.35-.83A4.6,4.6,0,0,0,123.9,51.48Z"/><path d="M133.44,53.18a2.62,2.62,0,0,1-.25,1.18,2.33,2.33,0,0,1-.71.85,3,3,0,0,1-1.08.51,4.8,4.8,0,0,1-1.35.17,5.73,5.73,0,0,1-.84-.06,5.48,5.48,0,0,1-.72-.17,4.09,4.09,0,0,1-.52-.2,1.67,1.67,0,0,1-.31-.2.53.53,0,0,1-.15-.29,2.25,2.25,0,0,1-.05-.59c0-.17,0-.3,0-.41a1,1,0,0,1,.06-.24.23.23,0,0,1,.08-.12.21.21,0,0,1,.14,0,.68.68,0,0,1,.28.11c.13.08.29.16.47.25a5.49,5.49,0,0,0,.66.24,2.77,2.77,0,0,0,.85.12,1.79,1.79,0,0,0,.53-.07,1.21,1.21,0,0,0,.4-.17.72.72,0,0,0,.26-.29.88.88,0,0,0,.09-.41.73.73,0,0,0-.16-.45,1.87,1.87,0,0,0-.43-.33,5.89,5.89,0,0,0-.61-.26q-.34-.12-.69-.27a6.53,6.53,0,0,1-.7-.35,2.55,2.55,0,0,1-.61-.47,2.13,2.13,0,0,1-.43-.68,2.45,2.45,0,0,1-.16-.95,2.29,2.29,0,0,1,.85-1.83,2.84,2.84,0,0,1,1-.52,4.6,4.6,0,0,1,2-.13,3.68,3.68,0,0,1,.63.13,3.14,3.14,0,0,1,.47.17,1.3,1.3,0,0,1,.28.16.49.49,0,0,1,.12.13.6.6,0,0,1,.05.16c0,.06,0,.13,0,.23a3.22,3.22,0,0,1,0,.33c0,.16,0,.29,0,.39a1.19,1.19,0,0,1,0,.24c0,.06,0,.1-.09.12a.21.21,0,0,1-.12,0,.63.63,0,0,1-.25-.09,2.78,2.78,0,0,0-.42-.2,3.87,3.87,0,0,0-.58-.2,2.75,2.75,0,0,0-.75-.09,1.88,1.88,0,0,0-.51.06,1.15,1.15,0,0,0-.37.17.9.9,0,0,0-.21.27,1,1,0,0,0-.07.33.67.67,0,0,0,.17.46,1.52,1.52,0,0,0,.44.32,4,4,0,0,0,.62.27c.23.08.47.17.7.27a7.51,7.51,0,0,1,.71.33,2.86,2.86,0,0,1,.62.48,2.43,2.43,0,0,1,.44.67A2.38,2.38,0,0,1,133.44,53.18Z"/><path d="M145.85,55.42a.22.22,0,0,1-.09.19.53.53,0,0,1-.27.1,3.6,3.6,0,0,1-.56,0,3.69,3.69,0,0,1-.58,0,.45.45,0,0,1-.25-.1.24.24,0,0,1-.08-.19V54.8a3.57,3.57,0,0,1-1.1.8,3.09,3.09,0,0,1-1.37.29,3.81,3.81,0,0,1-1.15-.16,2.73,2.73,0,0,1-.91-.48,2.25,2.25,0,0,1-.59-.8,2.67,2.67,0,0,1-.21-1.1,2.53,2.53,0,0,1,.27-1.2,2.19,2.19,0,0,1,.8-.83,4,4,0,0,1,1.32-.49,9.92,9.92,0,0,1,1.84-.16h.76V50.2a2.54,2.54,0,0,0-.07-.65,1,1,0,0,0-.25-.46,1,1,0,0,0-.46-.27,2.33,2.33,0,0,0-.7-.09,3.73,3.73,0,0,0-1,.12,6.7,6.7,0,0,0-.77.28l-.56.27a.83.83,0,0,1-.36.12.28.28,0,0,1-.18-.06.43.43,0,0,1-.12-.17,1,1,0,0,1-.07-.29,2.05,2.05,0,0,1,0-.37,1.69,1.69,0,0,1,0-.43.68.68,0,0,1,.17-.28,1.51,1.51,0,0,1,.43-.28,4.9,4.9,0,0,1,.72-.29,5.93,5.93,0,0,1,.9-.21,5.58,5.58,0,0,1,1-.09,6.08,6.08,0,0,1,1.58.18,2.66,2.66,0,0,1,1.07.56,2.19,2.19,0,0,1,.62,1,4.47,4.47,0,0,1,.19,1.4Zm-2.17-3.36h-.84a4.84,4.84,0,0,0-.92.08,1.62,1.62,0,0,0-.61.24.91.91,0,0,0-.35.38,1.21,1.21,0,0,0-.11.52,1,1,0,0,0,.31.77,1.25,1.25,0,0,0,.87.28,1.64,1.64,0,0,0,.86-.24,3.71,3.71,0,0,0,.79-.69Z"/><path d="M75.16,70.58a.23.23,0,0,1-.09.19.53.53,0,0,1-.27.1,3.88,3.88,0,0,1-.56,0,4,4,0,0,1-.58,0,.45.45,0,0,1-.25-.1.26.26,0,0,1-.08-.19V70a3.45,3.45,0,0,1-1.1.81,3.23,3.23,0,0,1-1.37.29,3.81,3.81,0,0,1-1.15-.16,2.58,2.58,0,0,1-.91-.49,2.13,2.13,0,0,1-.59-.79A2.75,2.75,0,0,1,68,68.5a2.49,2.49,0,0,1,.27-1.19,2.05,2.05,0,0,1,.8-.83A3.79,3.79,0,0,1,70.39,66a9.13,9.13,0,0,1,1.84-.16H73v-.47a2.49,2.49,0,0,0-.07-.65,1.07,1.07,0,0,0-.25-.46.89.89,0,0,0-.46-.27,2.33,2.33,0,0,0-.7-.09,3.73,3.73,0,0,0-1,.12,5.27,5.27,0,0,0-.77.27,5.81,5.81,0,0,0-.56.28.83.83,0,0,1-.37.12.27.27,0,0,1-.17-.06.41.41,0,0,1-.12-.18,1,1,0,0,1-.07-.28,2.05,2.05,0,0,1,0-.37,1.69,1.69,0,0,1,0-.43.72.72,0,0,1,.17-.29,2.12,2.12,0,0,1,.43-.28,6.39,6.39,0,0,1,.72-.28,7.41,7.41,0,0,1,.9-.22,6.66,6.66,0,0,1,1-.08,6.08,6.08,0,0,1,1.58.18,2.65,2.65,0,0,1,1.07.55,2.19,2.19,0,0,1,.62,1,4.52,4.52,0,0,1,.19,1.4ZM73,67.22h-.84a4.14,4.14,0,0,0-.92.08,1.81,1.81,0,0,0-.61.23,1,1,0,0,0-.35.39,1.19,1.19,0,0,0-.11.51,1,1,0,0,0,.31.77,1.25,1.25,0,0,0,.87.29,1.58,1.58,0,0,0,.85-.24,3.34,3.34,0,0,0,.8-.7Z"/><path d="M84.33,62.7a.45.45,0,0,1,0,.11.62.62,0,0,1,0,.13,1.36,1.36,0,0,1,0,.17,1,1,0,0,1-.06.22l-2.35,7.1a.67.67,0,0,1-.12.24.46.46,0,0,1-.25.14,1.71,1.71,0,0,1-.46.07c-.2,0-.45,0-.77,0l-.76,0A2,2,0,0,1,79,70.8a.46.46,0,0,1-.24-.14.71.71,0,0,1-.12-.23l-2.36-7.1c0-.11-.06-.22-.08-.31l0-.2V62.7a.2.2,0,0,1,0-.15.32.32,0,0,1,.17-.11,1.23,1.23,0,0,1,.34-.06,4.19,4.19,0,0,1,.54,0l.58,0a1.93,1.93,0,0,1,.34.06.32.32,0,0,1,.18.12.51.51,0,0,1,.09.18l1.79,5.75,0,.22,0-.22,1.76-5.75a.75.75,0,0,1,.08-.18.41.41,0,0,1,.18-.12,2.19,2.19,0,0,1,.33-.06l.54,0a4.19,4.19,0,0,1,.54,0,1.22,1.22,0,0,1,.32.06c.07,0,.13.06.15.11A.25.25,0,0,1,84.33,62.7Z"/><path d="M92.7,66.4a.91.91,0,0,1-.17.6.66.66,0,0,1-.5.19H87.26a3.2,3.2,0,0,0,.11.91,1.82,1.82,0,0,0,.38.7,1.65,1.65,0,0,0,.67.43,2.84,2.84,0,0,0,1,.15,6,6,0,0,0,1-.08,7,7,0,0,0,.76-.19c.21-.06.39-.13.53-.18a1,1,0,0,1,.34-.09.21.21,0,0,1,.14,0,.21.21,0,0,1,.08.1.66.66,0,0,1,0,.23,3.53,3.53,0,0,1,0,.36c0,.13,0,.24,0,.33s0,.17,0,.24a.75.75,0,0,1,0,.16l-.09.13a1.27,1.27,0,0,1-.32.16,5,5,0,0,1-.65.21,7.93,7.93,0,0,1-.9.18,7.59,7.59,0,0,1-1.09.07,6,6,0,0,1-1.84-.26,3.4,3.4,0,0,1-1.31-.8,3.31,3.31,0,0,1-.78-1.36A6.09,6.09,0,0,1,85,66.72a6.16,6.16,0,0,1,.27-1.89,3.85,3.85,0,0,1,.79-1.42,3.25,3.25,0,0,1,1.26-.89A4.21,4.21,0,0,1,89,62.21a4.49,4.49,0,0,1,1.69.29,3,3,0,0,1,1.14.8,3.28,3.28,0,0,1,.66,1.22,5.34,5.34,0,0,1,.21,1.53Zm-2.14-.63a2.33,2.33,0,0,0-.37-1.47A1.47,1.47,0,0,0,89,63.77a1.67,1.67,0,0,0-.73.16,1.56,1.56,0,0,0-.52.43,2.08,2.08,0,0,0-.32.63,3.18,3.18,0,0,0-.12.78Z"/><path d="M99.56,63.44c0,.21,0,.38,0,.52a1.66,1.66,0,0,1-.05.31.27.27,0,0,1-.09.16.25.25,0,0,1-.15,0l-.16,0a.84.84,0,0,0-.19-.07l-.25-.07a1.23,1.23,0,0,0-.29,0,.94.94,0,0,0-.36.08,1.33,1.33,0,0,0-.39.23,3.3,3.3,0,0,0-.41.42,7,7,0,0,0-.46.65v4.89a.25.25,0,0,1,0,.15.4.4,0,0,1-.18.11,2,2,0,0,1-.34.07l-.54,0-.53,0a1.65,1.65,0,0,1-.34-.07.31.31,0,0,1-.18-.11.2.2,0,0,1-.06-.15V62.71a.25.25,0,0,1,0-.15.29.29,0,0,1,.16-.11,1,1,0,0,1,.29-.07l.45,0,.47,0a1,1,0,0,1,.29.07.31.31,0,0,1,.14.11.24.24,0,0,1,0,.15v1A6.41,6.41,0,0,1,97,63a3.84,3.84,0,0,1,.52-.45,2,2,0,0,1,.49-.24,2.14,2.14,0,0,1,.5-.06h.24l.28.05.24.07a.35.35,0,0,1,.15.08.25.25,0,0,1,.08.1l0,.14a1.8,1.8,0,0,1,0,.28C99.56,63.06,99.56,63.23,99.56,63.44Z"/><path d="M103.3,60.06A1.25,1.25,0,0,1,103,61a1.5,1.5,0,0,1-1,.25,1.55,1.55,0,0,1-1-.24,1.23,1.23,0,0,1-.25-.89,1.26,1.26,0,0,1,.26-.93,1.51,1.51,0,0,1,1-.26,1.53,1.53,0,0,1,1,.25A1.21,1.21,0,0,1,103.3,60.06Zm-.16,10.49a.2.2,0,0,1-.06.15.31.31,0,0,1-.18.11,1.68,1.68,0,0,1-.33.07l-.54,0-.54,0a2,2,0,0,1-.34-.07.32.32,0,0,1-.17-.11.2.2,0,0,1-.06-.15V62.73a.25.25,0,0,1,.06-.16.38.38,0,0,1,.17-.11,1.9,1.9,0,0,1,.34-.08l.54,0,.54,0a1.59,1.59,0,0,1,.33.08.37.37,0,0,1,.18.11.25.25,0,0,1,.06.16Z"/><path d="M112.41,63.25a1.44,1.44,0,0,1-.1.63c-.06.13-.14.2-.23.2h-.93a1.29,1.29,0,0,1,.28.48,1.73,1.73,0,0,1,.08.56,3,3,0,0,1-.23,1.22,2.42,2.42,0,0,1-.65.89,3,3,0,0,1-1,.56,4.67,4.67,0,0,1-1.34.18,2.84,2.84,0,0,1-.72-.09,1.94,1.94,0,0,1-.53-.21,1.17,1.17,0,0,0-.19.27.78.78,0,0,0-.08.35.52.52,0,0,0,.22.42,1.12,1.12,0,0,0,.63.18l1.91.07a4.63,4.63,0,0,1,1.19.19,2.7,2.7,0,0,1,.88.45,2,2,0,0,1,.54.71,2.19,2.19,0,0,1,.19.94,2.46,2.46,0,0,1-.25,1.1,2.5,2.5,0,0,1-.77.89,4.05,4.05,0,0,1-1.27.6,6.93,6.93,0,0,1-1.8.22,8.28,8.28,0,0,1-1.71-.16,3.8,3.8,0,0,1-1.16-.44,1.83,1.83,0,0,1-.66-.67,1.79,1.79,0,0,1-.21-.86,2,2,0,0,1,.08-.55,1.92,1.92,0,0,1,.22-.51,2.44,2.44,0,0,1,.35-.46,3.37,3.37,0,0,1,.49-.42,1.57,1.57,0,0,1-.59-.55,1.44,1.44,0,0,1-.2-.76,2,2,0,0,1,.23-1,3.23,3.23,0,0,1,.62-.77,2.18,2.18,0,0,1-.49-.73,2.64,2.64,0,0,1-.19-1.08,3,3,0,0,1,.24-1.22,2.6,2.6,0,0,1,.68-.92,2.9,2.9,0,0,1,1-.57,4.25,4.25,0,0,1,1.32-.2,5.39,5.39,0,0,1,.71,0,5,5,0,0,1,.63.12h2.49c.1,0,.18.07.24.19A1.69,1.69,0,0,1,112.41,63.25Zm-2.32,8.12a.69.69,0,0,0-.32-.61,1.64,1.64,0,0,0-.87-.23l-1.57,0a3.16,3.16,0,0,0-.37.32,1.61,1.61,0,0,0-.21.29.71.71,0,0,0-.11.28,1.12,1.12,0,0,0,0,.27.74.74,0,0,0,.44.67,2.88,2.88,0,0,0,1.26.22,2.93,2.93,0,0,0,.84-.1,1.48,1.48,0,0,0,.55-.26,1.05,1.05,0,0,0,.3-.38A1.07,1.07,0,0,0,110.09,71.37Zm-.52-6.26a1.37,1.37,0,0,0-.35-1,1.36,1.36,0,0,0-1-.35,1.5,1.5,0,0,0-.58.11,1.24,1.24,0,0,0-.4.3,1.36,1.36,0,0,0-.25.44,1.81,1.81,0,0,0-.07.52,1.25,1.25,0,0,0,.35,1,1.32,1.32,0,0,0,1,.35,1.43,1.43,0,0,0,.58-.11,1.13,1.13,0,0,0,.41-.29,1.22,1.22,0,0,0,.25-.43A1.69,1.69,0,0,0,109.57,65.11Z"/><path d="M121.31,70.55a.24.24,0,0,1,0,.15.3.3,0,0,1-.15.11,1.67,1.67,0,0,1-.3.07l-.45,0-.47,0a1.26,1.26,0,0,1-.28-.07.3.3,0,0,1-.15-.11.25.25,0,0,1,0-.15v-.91a5,5,0,0,1-1.32,1.06,3,3,0,0,1-1.39.35,3.23,3.23,0,0,1-1.36-.26,2.44,2.44,0,0,1-.89-.72A2.93,2.93,0,0,1,114,69a6.31,6.31,0,0,1-.15-1.5v-4.8a.25.25,0,0,1,0-.15.31.31,0,0,1,.18-.11,1.26,1.26,0,0,1,.34-.07l.53,0,.54,0a1.35,1.35,0,0,1,.34.07.4.4,0,0,1,.18.11.25.25,0,0,1,.05.15v4.43a4.42,4.42,0,0,0,.08.94,1.58,1.58,0,0,0,.24.56,1.29,1.29,0,0,0,.41.36,1.38,1.38,0,0,0,.59.13,1.51,1.51,0,0,0,.85-.31,5.85,5.85,0,0,0,.91-.9V62.71a.24.24,0,0,1,0-.15.35.35,0,0,1,.18-.11,1.26,1.26,0,0,1,.34-.07l.53,0,.54,0a1.17,1.17,0,0,1,.33.07.31.31,0,0,1,.18.11.2.2,0,0,1,0,.15Z"/><path d="M130.22,70.58a.23.23,0,0,1-.09.19.57.57,0,0,1-.28.1,3.78,3.78,0,0,1-.56,0,3.85,3.85,0,0,1-.57,0,.49.49,0,0,1-.26-.1.25.25,0,0,1-.07-.19V70a3.38,3.38,0,0,1-1.11.81,3.23,3.23,0,0,1-1.37.29,3.81,3.81,0,0,1-1.15-.16,2.45,2.45,0,0,1-.9-.49,2.05,2.05,0,0,1-.6-.79,2.75,2.75,0,0,1-.21-1.11,2.49,2.49,0,0,1,.27-1.19,2.19,2.19,0,0,1,.8-.83,4,4,0,0,1,1.32-.49,9.13,9.13,0,0,1,1.84-.16h.77v-.47a2.46,2.46,0,0,0-.08-.65,1,1,0,0,0-.25-.46.86.86,0,0,0-.45-.27,2.41,2.41,0,0,0-.71-.09,3.73,3.73,0,0,0-1,.12,5.73,5.73,0,0,0-.77.27,5.81,5.81,0,0,0-.56.28.79.79,0,0,1-.36.12.27.27,0,0,1-.17-.06.41.41,0,0,1-.12-.18,1,1,0,0,1-.08-.28,2.05,2.05,0,0,1,0-.37,1.63,1.63,0,0,1,0-.43.69.69,0,0,1,.16-.29,2.26,2.26,0,0,1,.44-.28,5.17,5.17,0,0,1,.72-.28,6,6,0,0,1,1.9-.3,6,6,0,0,1,1.58.18,2.63,2.63,0,0,1,1.08.55,2.17,2.17,0,0,1,.61,1,4.5,4.5,0,0,1,.2,1.4Zm-2.17-3.36h-.85a4,4,0,0,0-.91.08,1.87,1.87,0,0,0-.62.23,1,1,0,0,0-.34.39,1.06,1.06,0,0,0-.11.51,1,1,0,0,0,.31.77,1.22,1.22,0,0,0,.86.29,1.62,1.62,0,0,0,.86-.24,3.54,3.54,0,0,0,.8-.7Z"/><path d="M137.46,63.44c0,.21,0,.38,0,.52a1.66,1.66,0,0,1-.05.31.45.45,0,0,1-.09.16.25.25,0,0,1-.15,0l-.16,0-.19-.07-.25-.07a1.23,1.23,0,0,0-.29,0,1,1,0,0,0-.37.08,1.43,1.43,0,0,0-.38.23,3.3,3.3,0,0,0-.41.42,5.54,5.54,0,0,0-.46.65v4.89a.2.2,0,0,1-.06.15.31.31,0,0,1-.18.11,1.68,1.68,0,0,1-.33.07l-.54,0-.54,0a2,2,0,0,1-.34-.07.32.32,0,0,1-.17-.11.2.2,0,0,1-.06-.15V62.71a.25.25,0,0,1,.05-.15.3.3,0,0,1,.15-.11,1.11,1.11,0,0,1,.3-.07l.45,0,.47,0a.81.81,0,0,1,.28.07.3.3,0,0,1,.15.11.24.24,0,0,1,0,.15v1a6.41,6.41,0,0,1,.58-.73,3.32,3.32,0,0,1,.52-.45,1.85,1.85,0,0,1,.49-.24,2.14,2.14,0,0,1,.5-.06h.24l.27.05a1.26,1.26,0,0,1,.25.07.35.35,0,0,1,.15.08.17.17,0,0,1,.07.1.39.39,0,0,1,0,.14,1.58,1.58,0,0,1,0,.28C137.46,63.06,137.46,63.23,137.46,63.44Z"/><path d="M141,70.55a.2.2,0,0,1-.06.15.31.31,0,0,1-.18.11,1.65,1.65,0,0,1-.34.07l-.53,0-.54,0a2,2,0,0,1-.34-.07.4.4,0,0,1-.18-.11.25.25,0,0,1-.05-.15V59a.3.3,0,0,1,.05-.16.7.7,0,0,1,.18-.12,2,2,0,0,1,.34-.07,4,4,0,0,1,.54,0,3.79,3.79,0,0,1,.53,0,1.65,1.65,0,0,1,.34.07.46.46,0,0,1,.18.12A.25.25,0,0,1,141,59Z"/><path d="M151.17,66.55a6.18,6.18,0,0,1-.26,1.83,4,4,0,0,1-.8,1.42,3.62,3.62,0,0,1-1.35.93,5.19,5.19,0,0,1-1.89.32,5.26,5.26,0,0,1-1.82-.29,3.25,3.25,0,0,1-1.28-.84,3.58,3.58,0,0,1-.76-1.37,6.41,6.41,0,0,1-.24-1.84,6.18,6.18,0,0,1,.26-1.83,3.87,3.87,0,0,1,.81-1.43,3.68,3.68,0,0,1,1.34-.92,5.16,5.16,0,0,1,1.89-.32,5.24,5.24,0,0,1,1.82.28,3.18,3.18,0,0,1,1.28.84,3.44,3.44,0,0,1,.75,1.37A6.09,6.09,0,0,1,151.17,66.55Zm-2.28.09a5.93,5.93,0,0,0-.09-1.07,2.45,2.45,0,0,0-.31-.85,1.51,1.51,0,0,0-.59-.56A1.89,1.89,0,0,0,147,64a2,2,0,0,0-.87.18,1.52,1.52,0,0,0-.6.53,2.43,2.43,0,0,0-.36.83,4.72,4.72,0,0,0-.12,1.11,5.9,5.9,0,0,0,.1,1.07,2.68,2.68,0,0,0,.31.85,1.59,1.59,0,0,0,.59.56,1.92,1.92,0,0,0,.91.19,2,2,0,0,0,.87-.18,1.53,1.53,0,0,0,.61-.52,2.42,2.42,0,0,0,.35-.83A4.75,4.75,0,0,0,148.89,66.64Z"/><path d="M156.31,69.7a2.52,2.52,0,0,1-.06.6.73.73,0,0,1-.2.4.74.74,0,0,1-.38.21,2.61,2.61,0,0,1-1.2,0,.74.74,0,0,1-.38-.21.8.8,0,0,1-.2-.4,2.52,2.52,0,0,1-.06-.6,2.65,2.65,0,0,1,.06-.62.88.88,0,0,1,.2-.41.83.83,0,0,1,.38-.22,3,3,0,0,1,1.2,0,.83.83,0,0,1,.38.22.79.79,0,0,1,.2.41A2.65,2.65,0,0,1,156.31,69.7ZM156,67.12a.43.43,0,0,1,0,.16.34.34,0,0,1-.16.12,1,1,0,0,1-.3.07,3,3,0,0,1-.46,0,2.86,2.86,0,0,1-.46,0,1,1,0,0,1-.3-.07.31.31,0,0,1-.15-.12.3.3,0,0,1,0-.16l-.23-8a.35.35,0,0,1,.05-.2.38.38,0,0,1,.19-.15,1.92,1.92,0,0,1,.37-.08,4.62,4.62,0,0,1,.58,0,4.51,4.51,0,0,1,.58,0,2,2,0,0,1,.37.09.49.49,0,0,1,.19.14.36.36,0,0,1,.06.2Z"/></svg>