<svg xmlns="http://www.w3.org/2000/svg" viewBox="0 0 145.51 46.79"><defs><style>.cls-1{fill:#9a9fbd;}.cls-2{fill:#b2c91f;}.cls-3{fill:#28203a;}.cls-4{fill:#fff;}</style></defs><g id="Capa_2" data-name="Capa 2"><g id="Capa_1-2" data-name="Capa 1"><rect class="cls-1" x="1.99" y="2.34" width="143.53" height="44.45" rx="5.36"/><rect class="cls-2" width="143.53" height="44.45" rx="5.36"/><path class="cls-3" d="M14.06,19.37l3-7.87h1.13l3.22,7.87H20.24L19.32,17H16l-.86,2.38Zm2.27-3.23H19L18.18,14c-.25-.67-.44-1.21-.56-1.64a10.28,10.28,0,0,1-.42,1.51Z"/><path class="cls-3" d="M21.91,19.37v-5.7h.87v.86a2.37,2.37,0,0,1,.61-.8,1.08,1.08,0,0,1,.62-.19,1.88,1.88,0,0,1,1,.31l-.34.9a1.36,1.36,0,0,0-.71-.21.91.91,0,0,0-.57.19,1.09,1.09,0,0,0-.36.53,4,4,0,0,0-.16,1.12v3Z"/><path class="cls-3" d="M25.36,19.37v-5.7h.87v.8a1.93,1.93,0,0,1,.71-.68,2,2,0,0,1,1-.25,1.91,1.91,0,0,1,1,.26,1.43,1.43,0,0,1,.58.74,2,2,0,0,1,1.76-1,1.7,1.7,0,0,1,1.3.47,2,2,0,0,1,.46,1.45v3.91h-1V15.78a2.43,2.43,0,0,0-.1-.84.79.79,0,0,0-.34-.41,1.06,1.06,0,0,0-.58-.15,1.35,1.35,0,0,0-1,.4,1.77,1.77,0,0,0-.39,1.28v3.31h-1V15.66a1.58,1.58,0,0,0-.24-1,.86.86,0,0,0-.77-.32,1.42,1.42,0,0,0-.75.21,1.19,1.19,0,0,0-.51.63,3.62,3.62,0,0,0-.15,1.19v3Z"/><path class="cls-3" d="M33.94,16.52a3,3,0,0,1,.88-2.35,2.69,2.69,0,0,1,1.8-.63,2.54,2.54,0,0,1,1.92.77,2.91,2.91,0,0,1,.75,2.13A3.78,3.78,0,0,1,39,18.17a2.33,2.33,0,0,1-1,1,2.83,2.83,0,0,1-1.38.35,2.58,2.58,0,0,1-1.94-.77A3.07,3.07,0,0,1,33.94,16.52Zm1,0a2.41,2.41,0,0,0,.48,1.64,1.6,1.6,0,0,0,2.4,0,2.5,2.5,0,0,0,.47-1.67,2.38,2.38,0,0,0-.48-1.61,1.59,1.59,0,0,0-2.39,0A2.41,2.41,0,0,0,34.94,16.52Z"/><path class="cls-3" d="M40.2,19.37v-5.7h.87v.81a2.05,2.05,0,0,1,1.82-.94,2.39,2.39,0,0,1,.94.18,1.53,1.53,0,0,1,.65.49,1.68,1.68,0,0,1,.3.71,5,5,0,0,1,.06.94v3.51h-1V15.9a2.73,2.73,0,0,0-.11-.88,1,1,0,0,0-.4-.47,1.25,1.25,0,0,0-.68-.17,1.56,1.56,0,0,0-1.06.39,1.92,1.92,0,0,0-.45,1.49v3.11Z"/><path class="cls-3" d="M46.1,12.61V11.5h1v1.11Zm0,6.76v-5.7h1v5.7Z"/><path class="cls-3" d="M47.81,19.37v-.78l3.63-4.17-1.09,0H48v-.78h4.66v.64L49.6,17.93l-.59.66c.43,0,.83-.05,1.21-.05h2.64v.83Z"/><path class="cls-3" d="M57.32,18.67a3.45,3.45,0,0,1-1,.64,2.9,2.9,0,0,1-1.07.19A2.06,2.06,0,0,1,53.78,19a1.51,1.51,0,0,1-.5-1.17,1.54,1.54,0,0,1,.19-.77,1.4,1.4,0,0,1,.5-.55,2.19,2.19,0,0,1,.69-.32,7.59,7.59,0,0,1,.86-.15,8.4,8.4,0,0,0,1.72-.33c0-.13,0-.22,0-.25a1.06,1.06,0,0,0-.27-.83,1.64,1.64,0,0,0-1.11-.33,1.67,1.67,0,0,0-1,.24,1.42,1.42,0,0,0-.48.84l-1-.13a2.39,2.39,0,0,1,.43-1,1.78,1.78,0,0,1,.85-.57,3.64,3.64,0,0,1,1.29-.2,3.53,3.53,0,0,1,1.19.17,1.5,1.5,0,0,1,.67.43,1.39,1.39,0,0,1,.3.66,4.58,4.58,0,0,1,0,.89V17a14.19,14.19,0,0,0,.06,1.71,2.24,2.24,0,0,0,.25.68h-1A2.05,2.05,0,0,1,57.32,18.67Zm-.08-2.16a7.22,7.22,0,0,1-1.57.36,3.41,3.41,0,0,0-.85.2.83.83,0,0,0-.38.31.82.82,0,0,0-.13.46.79.79,0,0,0,.29.64,1.21,1.21,0,0,0,.86.26,2,2,0,0,0,1-.24,1.53,1.53,0,0,0,.64-.67,2.43,2.43,0,0,0,.15-1Z"/><path class="cls-3" d="M59.49,19.37v-5.7h.87v.86a2.5,2.5,0,0,1,.61-.8,1.09,1.09,0,0,1,.63-.19,1.88,1.88,0,0,1,1,.31l-.33.9a1.41,1.41,0,0,0-.71-.21.91.91,0,0,0-.57.19,1,1,0,0,0-.36.53,3.65,3.65,0,0,0-.16,1.12v3Z"/><path class="cls-3" d="M65.76,19.37V11.5h1v7.87Z"/><path class="cls-3" d="M71.73,18.67a3.62,3.62,0,0,1-1,.64,2.85,2.85,0,0,1-1.06.19A2.07,2.07,0,0,1,68.18,19a1.51,1.51,0,0,1-.5-1.17,1.54,1.54,0,0,1,.19-.77,1.4,1.4,0,0,1,.5-.55,2.19,2.19,0,0,1,.69-.32,7.59,7.59,0,0,1,.86-.15,8.68,8.68,0,0,0,1.73-.33V15.5a1.06,1.06,0,0,0-.27-.83,1.62,1.62,0,0,0-1.1-.33,1.71,1.71,0,0,0-1,.24,1.42,1.42,0,0,0-.48.84l-1-.13a2.39,2.39,0,0,1,.43-1,1.78,1.78,0,0,1,.85-.57,3.66,3.66,0,0,1,1.3-.2,3.51,3.51,0,0,1,1.18.17,1.5,1.5,0,0,1,.67.43,1.39,1.39,0,0,1,.3.66,4.58,4.58,0,0,1,.05.89V17a14.19,14.19,0,0,0,.06,1.71,2.54,2.54,0,0,0,.25.68h-1A1.85,1.85,0,0,1,71.73,18.67Zm-.08-2.16a7.49,7.49,0,0,1-1.58.36,3.41,3.41,0,0,0-.85.2.83.83,0,0,0-.38.31.82.82,0,0,0-.13.46.79.79,0,0,0,.29.64,1.23,1.23,0,0,0,.86.26,2,2,0,0,0,1-.24,1.53,1.53,0,0,0,.64-.67,2.4,2.4,0,0,0,.16-1Z"/><path class="cls-3" d="M73.51,17.67l1-.15a1.32,1.32,0,0,0,.45.88,1.58,1.58,0,0,0,1,.3,1.54,1.54,0,0,0,1-.27.82.82,0,0,0,.32-.63.6.6,0,0,0-.29-.52A4.87,4.87,0,0,0,76,17a9.25,9.25,0,0,1-1.48-.46,1.43,1.43,0,0,1-.62-.54,1.46,1.46,0,0,1-.21-.77,1.4,1.4,0,0,1,.17-.7,1.58,1.58,0,0,1,.48-.55,2,2,0,0,1,.61-.28,3.5,3.5,0,0,1,2,.08,1.6,1.6,0,0,1,.75.52,2,2,0,0,1,.34.89l-1,.13a1,1,0,0,0-.37-.69,1.41,1.41,0,0,0-.87-.25,1.65,1.65,0,0,0-1,.22.64.64,0,0,0-.28.52.54.54,0,0,0,.12.34.81.81,0,0,0,.37.25c.1,0,.38.12.85.25a10.42,10.42,0,0,1,1.43.45,1.49,1.49,0,0,1,.64.51,1.44,1.44,0,0,1,.23.82,1.58,1.58,0,0,1-.28.91,1.86,1.86,0,0,1-.81.67A3.11,3.11,0,0,1,76,19.5,2.66,2.66,0,0,1,74.26,19,2.18,2.18,0,0,1,73.51,17.67Z"/><path class="cls-3" d="M82,19.37v-5.7h.87v.86a2.37,2.37,0,0,1,.61-.8,1.08,1.08,0,0,1,.62-.19,1.88,1.88,0,0,1,1,.31l-.34.9a1.36,1.36,0,0,0-.71-.21.91.91,0,0,0-.57.19,1.09,1.09,0,0,0-.36.53A4,4,0,0,0,83,16.38v3Z"/><path class="cls-3" d="M89.37,17.53l1,.13A2.41,2.41,0,0,1,89.49,19a3,3,0,0,1-3.62-.29,3,3,0,0,1-.73-2.16,3.18,3.18,0,0,1,.74-2.24,2.49,2.49,0,0,1,1.92-.79,2.42,2.42,0,0,1,1.87.78,3.07,3.07,0,0,1,.73,2.19s0,.14,0,.26H86.14a2.18,2.18,0,0,0,.53,1.44,1.59,1.59,0,0,0,1.19.49,1.51,1.51,0,0,0,.91-.27A1.92,1.92,0,0,0,89.37,17.53ZM86.19,16h3.19A2,2,0,0,0,89,14.89a1.5,1.5,0,0,0-1.2-.56,1.55,1.55,0,0,0-1.12.45A1.76,1.76,0,0,0,86.19,16Z"/><path class="cls-3" d="M91.34,19.37V11.5h1v7.87Z"/><path class="cls-3" d="M97.3,18.67a3.45,3.45,0,0,1-1,.64,2.9,2.9,0,0,1-1.07.19A2.06,2.06,0,0,1,93.76,19a1.52,1.52,0,0,1-.51-1.17,1.66,1.66,0,0,1,.19-.77,1.57,1.57,0,0,1,.5-.55,2.35,2.35,0,0,1,.7-.32,7.59,7.59,0,0,1,.86-.15,8.55,8.55,0,0,0,1.72-.33c0-.13,0-.22,0-.25a1,1,0,0,0-.28-.83,1.59,1.59,0,0,0-1.1-.33,1.67,1.67,0,0,0-1,.24,1.42,1.42,0,0,0-.48.84l-1-.13a2.53,2.53,0,0,1,.42-1,1.86,1.86,0,0,1,.86-.57,3.64,3.64,0,0,1,1.29-.2,3.53,3.53,0,0,1,1.19.17,1.55,1.55,0,0,1,.67.43,1.49,1.49,0,0,1,.3.66,5.58,5.58,0,0,1,0,.89V17a14.19,14.19,0,0,0,.06,1.71,2.24,2.24,0,0,0,.25.68h-1A2.05,2.05,0,0,1,97.3,18.67Zm-.08-2.16a7.2,7.2,0,0,1-1.58.36,3.43,3.43,0,0,0-.84.2.83.83,0,0,0-.38.31.82.82,0,0,0-.13.46.79.79,0,0,0,.29.64,1.2,1.2,0,0,0,.85.26,2,2,0,0,0,1-.24,1.53,1.53,0,0,0,.64-.67,2.43,2.43,0,0,0,.15-1Z"/><path class="cls-3" d="M103.2,17.28l1,.12a2.47,2.47,0,0,1-.79,1.54,2.35,2.35,0,0,1-1.58.56,2.44,2.44,0,0,1-1.88-.77,3.08,3.08,0,0,1-.72-2.19,4.07,4.07,0,0,1,.31-1.62,2.15,2.15,0,0,1,.93-1,2.77,2.77,0,0,1,1.36-.34,2.32,2.32,0,0,1,1.52.47,2.12,2.12,0,0,1,.76,1.33l-.94.15a1.62,1.62,0,0,0-.47-.87,1.27,1.27,0,0,0-.83-.29,1.51,1.51,0,0,0-1.19.53,2.5,2.5,0,0,0-.45,1.65,2.51,2.51,0,0,0,.44,1.67,1.42,1.42,0,0,0,1.15.52,1.37,1.37,0,0,0,1-.34A1.78,1.78,0,0,0,103.2,17.28Z"/><path class="cls-3" d="M104.76,12.61V11.5h1v1.11Zm0,6.76v-5.7h1v5.7Z"/><path class="cls-3" d="M106.62,16.52a3,3,0,0,1,.88-2.35,2.69,2.69,0,0,1,1.8-.63,2.54,2.54,0,0,1,1.92.77,2.91,2.91,0,0,1,.75,2.13,3.78,3.78,0,0,1-.33,1.73,2.33,2.33,0,0,1-1,1,2.83,2.83,0,0,1-1.38.35,2.58,2.58,0,0,1-1.94-.77A3.07,3.07,0,0,1,106.62,16.52Zm1,0a2.41,2.41,0,0,0,.48,1.64,1.6,1.6,0,0,0,2.4,0,2.5,2.5,0,0,0,.47-1.67,2.38,2.38,0,0,0-.48-1.61,1.59,1.59,0,0,0-2.39,0A2.41,2.41,0,0,0,107.62,16.52Z"/><path class="cls-3" d="M112.88,19.37v-5.7h.87v.81a2.05,2.05,0,0,1,1.82-.94,2.39,2.39,0,0,1,.94.18,1.53,1.53,0,0,1,.65.49,1.82,1.82,0,0,1,.3.71,5,5,0,0,1,.06.94v3.51h-1V15.9a2.73,2.73,0,0,0-.11-.88,1,1,0,0,0-.4-.47,1.27,1.27,0,0,0-.68-.17,1.56,1.56,0,0,0-1.06.39,1.92,1.92,0,0,0-.45,1.49v3.11Z"/><path class="cls-3" d="M122.68,17.53l1,.13a2.46,2.46,0,0,1-.87,1.36,2.66,2.66,0,0,1-1.64.48,2.62,2.62,0,0,1-2-.77,3,3,0,0,1-.73-2.16,3.14,3.14,0,0,1,.74-2.24,2.49,2.49,0,0,1,1.92-.79,2.44,2.44,0,0,1,1.87.78,3.11,3.11,0,0,1,.73,2.19s0,.14,0,.26h-4.25a2.18,2.18,0,0,0,.53,1.44,1.58,1.58,0,0,0,1.19.49,1.53,1.53,0,0,0,.91-.27A1.84,1.84,0,0,0,122.68,17.53ZM119.51,16h3.18a1.92,1.92,0,0,0-.36-1.08,1.5,1.5,0,0,0-1.2-.56,1.53,1.53,0,0,0-1.12.45A1.76,1.76,0,0,0,119.51,16Z"/><path class="cls-3" d="M124.29,17.67l1-.15a1.35,1.35,0,0,0,.44.88,1.6,1.6,0,0,0,1,.3,1.5,1.5,0,0,0,1-.27.79.79,0,0,0,.32-.63.59.59,0,0,0-.28-.52,4.81,4.81,0,0,0-1-.33,9,9,0,0,1-1.47-.46,1.4,1.4,0,0,1-.63-.54,1.46,1.46,0,0,1-.21-.77,1.4,1.4,0,0,1,.18-.7,1.55,1.55,0,0,1,.47-.55,2.12,2.12,0,0,1,.62-.28,3.14,3.14,0,0,1,.83-.11,3.28,3.28,0,0,1,1.18.19,1.6,1.6,0,0,1,.75.52,2.12,2.12,0,0,1,.33.89l-.94.13a1,1,0,0,0-.38-.69,1.37,1.37,0,0,0-.87-.25,1.64,1.64,0,0,0-1,.22.64.64,0,0,0-.28.52.6.6,0,0,0,.11.34.86.86,0,0,0,.37.25c.1,0,.39.12.86.25a10.92,10.92,0,0,1,1.43.45,1.55,1.55,0,0,1,.64.51,1.44,1.44,0,0,1,.23.82,1.65,1.65,0,0,1-.28.91,1.83,1.83,0,0,1-.82.67,3,3,0,0,1-1.2.23A2.69,2.69,0,0,1,125,19,2.22,2.22,0,0,1,124.29,17.67Z"/><path class="cls-3" d="M17.4,28.59l1,.12a2.48,2.48,0,0,1-.8,1.54,2.33,2.33,0,0,1-1.58.56A2.46,2.46,0,0,1,14.09,30a3.12,3.12,0,0,1-.71-2.19,3.87,3.87,0,0,1,.31-1.62,2.1,2.1,0,0,1,.93-1A2.75,2.75,0,0,1,16,24.85a2.37,2.37,0,0,1,1.52.46,2.19,2.19,0,0,1,.76,1.34l-.94.15a1.53,1.53,0,0,0-.48-.87,1.24,1.24,0,0,0-.82-.29,1.49,1.49,0,0,0-1.19.52,2.53,2.53,0,0,0-.46,1.66,2.59,2.59,0,0,0,.44,1.67A1.44,1.44,0,0,0,16,30a1.31,1.31,0,0,0,.95-.35A1.71,1.71,0,0,0,17.4,28.59Z"/><path class="cls-3" d="M18.59,27.83a2.94,2.94,0,0,1,.89-2.35,2.64,2.64,0,0,1,1.79-.63,2.52,2.52,0,0,1,1.92.77,2.91,2.91,0,0,1,.75,2.13,3.78,3.78,0,0,1-.33,1.73,2.33,2.33,0,0,1-1,1,2.83,2.83,0,0,1-1.38.35A2.59,2.59,0,0,1,19.33,30,3.07,3.07,0,0,1,18.59,27.83Zm1,0a2.43,2.43,0,0,0,.48,1.64,1.54,1.54,0,0,0,1.2.54,1.52,1.52,0,0,0,1.2-.55A2.47,2.47,0,0,0,23,27.79a2.35,2.35,0,0,0-.48-1.6,1.6,1.6,0,0,0-2.4,0A2.41,2.41,0,0,0,19.59,27.83Z"/><path class="cls-3" d="M24.85,30.68V25h.87v.82a2.05,2.05,0,0,1,1.82-.94,2.47,2.47,0,0,1,.95.18,1.48,1.48,0,0,1,.64.49,1.68,1.68,0,0,1,.3.71,5,5,0,0,1,.06.94v3.51h-1V27.21a2.8,2.8,0,0,0-.11-.89.94.94,0,0,0-.4-.46,1.25,1.25,0,0,0-.68-.18,1.52,1.52,0,0,0-1.06.4,1.91,1.91,0,0,0-.45,1.48v3.12Z"/><path class="cls-3" d="M33.57,30.68V22.8h1v7.88Z"/><path class="cls-3" d="M35.45,27.83a2.93,2.93,0,0,1,.88-2.35,2.67,2.67,0,0,1,1.8-.63,2.54,2.54,0,0,1,1.92.77,2.91,2.91,0,0,1,.74,2.13,3.78,3.78,0,0,1-.33,1.73,2.33,2.33,0,0,1-1,1,2.82,2.82,0,0,1-1.37.35A2.58,2.58,0,0,1,36.19,30,3.07,3.07,0,0,1,35.45,27.83Zm1,0a2.43,2.43,0,0,0,.48,1.64,1.54,1.54,0,0,0,1.21.54,1.5,1.5,0,0,0,1.19-.55,2.47,2.47,0,0,0,.48-1.67,2.35,2.35,0,0,0-.48-1.6,1.6,1.6,0,0,0-2.4,0A2.41,2.41,0,0,0,36.44,27.83Z"/><path class="cls-3" d="M41.32,29l1-.15a1.32,1.32,0,0,0,.45.88,1.55,1.55,0,0,0,1,.3,1.5,1.5,0,0,0,1-.27.8.8,0,0,0,.33-.64.59.59,0,0,0-.29-.51,3.79,3.79,0,0,0-1-.33,9,9,0,0,1-1.47-.46,1.4,1.4,0,0,1-.62-.55,1.35,1.35,0,0,1-.22-.76,1.44,1.44,0,0,1,.18-.71,1.61,1.61,0,0,1,.47-.54,2.12,2.12,0,0,1,.62-.28,2.82,2.82,0,0,1,.83-.11,3.28,3.28,0,0,1,1.18.19,1.6,1.6,0,0,1,.75.52,2.07,2.07,0,0,1,.33.89l-.94.12a1,1,0,0,0-.37-.68,1.36,1.36,0,0,0-.88-.25,1.56,1.56,0,0,0-.95.22.64.64,0,0,0-.28.52.52.52,0,0,0,.12.33.77.77,0,0,0,.37.26c.09,0,.38.12.85.25a10.92,10.92,0,0,1,1.43.45A1.36,1.36,0,0,1,46.06,29a1.68,1.68,0,0,1-.28.91,1.75,1.75,0,0,1-.82.66,2.86,2.86,0,0,1-1.2.24,2.7,2.7,0,0,1-1.69-.46A2.18,2.18,0,0,1,41.32,29Z"/><path class="cls-3" d="M49.65,31.15l.94.14a.91.91,0,0,0,.32.63,1.62,1.62,0,0,0,1,.27,1.69,1.69,0,0,0,1-.27,1.29,1.29,0,0,0,.5-.75,6.42,6.42,0,0,0,.07-1.24,2,2,0,0,1-1.58.75,2.15,2.15,0,0,1-1.82-.85,3.27,3.27,0,0,1-.65-2,3.72,3.72,0,0,1,.3-1.5,2.36,2.36,0,0,1,.86-1.07,2.29,2.29,0,0,1,1.31-.37,2.05,2.05,0,0,1,1.67.81V25h.89V29.9a4.7,4.7,0,0,1-.27,1.89,2,2,0,0,1-.86.88A2.91,2.91,0,0,1,51.9,33a2.71,2.71,0,0,1-1.65-.46A1.54,1.54,0,0,1,49.65,31.15Zm.8-3.43a2.51,2.51,0,0,0,.44,1.64,1.47,1.47,0,0,0,2.24,0,2.37,2.37,0,0,0,.45-1.6,2.33,2.33,0,0,0-.47-1.58A1.41,1.41,0,0,0,52,25.65a1.38,1.38,0,0,0-1.09.52A2.33,2.33,0,0,0,50.45,27.72Z"/><path class="cls-3" d="M55.71,30.68V25h.87v.87a2.27,2.27,0,0,1,.62-.8,1,1,0,0,1,.62-.19,1.88,1.88,0,0,1,1,.31l-.33.89a1.41,1.41,0,0,0-.71-.21,1,1,0,0,0-.57.19,1.05,1.05,0,0,0-.36.53,3.72,3.72,0,0,0-.16,1.13v3Z"/><path class="cls-3" d="M62.9,30.68v-.84a2.09,2.09,0,0,1-1.81,1,2.3,2.3,0,0,1-.94-.2,1.6,1.6,0,0,1-.65-.48,2,2,0,0,1-.3-.72,4.82,4.82,0,0,1-.06-.9V25h1v3.17a5.62,5.62,0,0,0,.06,1,1,1,0,0,0,.39.6,1.22,1.22,0,0,0,.73.22,1.55,1.55,0,0,0,.81-.23,1.18,1.18,0,0,0,.54-.61A2.89,2.89,0,0,0,62.8,28V25h1v5.71Z"/><path class="cls-3" d="M65.06,32.86V25h.88v.75a2.31,2.31,0,0,1,.71-.66,2,2,0,0,1,.95-.21,2.29,2.29,0,0,1,1.29.37,2.35,2.35,0,0,1,.84,1.06,3.89,3.89,0,0,1,.28,1.5,3.81,3.81,0,0,1-.31,1.58,2.41,2.41,0,0,1-2.17,1.45,1.81,1.81,0,0,1-.87-.21,1.77,1.77,0,0,1-.63-.51v2.77Zm.88-5a2.54,2.54,0,0,0,.44,1.63,1.37,1.37,0,0,0,1.08.52,1.42,1.42,0,0,0,1.11-.54A2.64,2.64,0,0,0,69,27.78a2.55,2.55,0,0,0-.45-1.64,1.36,1.36,0,0,0-1.07-.54,1.41,1.41,0,0,0-1.1.58A2.61,2.61,0,0,0,65.94,27.86Z"/><path class="cls-3" d="M70.6,27.83a2.93,2.93,0,0,1,.88-2.35,2.67,2.67,0,0,1,1.8-.63,2.54,2.54,0,0,1,1.92.77,2.91,2.91,0,0,1,.74,2.13,3.78,3.78,0,0,1-.33,1.73,2.33,2.33,0,0,1-1,1,2.82,2.82,0,0,1-1.37.35A2.58,2.58,0,0,1,71.34,30,3.07,3.07,0,0,1,70.6,27.83Zm1,0a2.43,2.43,0,0,0,.48,1.64,1.54,1.54,0,0,0,1.21.54,1.5,1.5,0,0,0,1.19-.55A2.47,2.47,0,0,0,75,27.79a2.35,2.35,0,0,0-.48-1.6,1.6,1.6,0,0,0-2.4,0A2.41,2.41,0,0,0,71.59,27.83Z"/><path class="cls-3" d="M76.47,29l1-.15a1.32,1.32,0,0,0,.45.88,1.55,1.55,0,0,0,1,.3,1.5,1.5,0,0,0,1-.27.8.8,0,0,0,.33-.64.59.59,0,0,0-.29-.51,3.79,3.79,0,0,0-1-.33,9,9,0,0,1-1.47-.46,1.48,1.48,0,0,1-.63-.55,1.43,1.43,0,0,1-.21-.76,1.44,1.44,0,0,1,.18-.71,1.61,1.61,0,0,1,.47-.54A2.12,2.12,0,0,1,77.9,25a2.82,2.82,0,0,1,.83-.11,3.28,3.28,0,0,1,1.18.19,1.6,1.6,0,0,1,.75.52,2.07,2.07,0,0,1,.33.89l-.94.12a1,1,0,0,0-.37-.68,1.36,1.36,0,0,0-.88-.25,1.56,1.56,0,0,0-1,.22.64.64,0,0,0-.28.52.52.52,0,0,0,.12.33.77.77,0,0,0,.37.26c.09,0,.38.12.85.25a10.92,10.92,0,0,1,1.43.45A1.36,1.36,0,0,1,81.21,29a1.68,1.68,0,0,1-.28.91,1.75,1.75,0,0,1-.82.66,2.86,2.86,0,0,1-1.2.24,2.7,2.7,0,0,1-1.69-.46A2.18,2.18,0,0,1,76.47,29Z"/><path class="cls-3" d="M88.68,30.68V30a1.81,1.81,0,0,1-1.6.85,2.24,2.24,0,0,1-1.25-.38,2.42,2.42,0,0,1-.89-1.05,3.61,3.61,0,0,1-.31-1.55,4.07,4.07,0,0,1,.28-1.55,2.2,2.2,0,0,1,.85-1.06A2.28,2.28,0,0,1,87,24.85a2,2,0,0,1,.92.21,2.11,2.11,0,0,1,.65.57V22.8h1v7.88Zm-3.06-2.85a2.47,2.47,0,0,0,.46,1.64,1.4,1.4,0,0,0,1.09.54,1.37,1.37,0,0,0,1.08-.52,2.4,2.4,0,0,0,.44-1.58,2.7,2.7,0,0,0-.45-1.72,1.39,1.39,0,0,0-1.11-.54,1.34,1.34,0,0,0-1.08.52A2.6,2.6,0,0,0,85.62,27.83Z"/><path class="cls-3" d="M94.78,28.84l1,.13a2.42,2.42,0,0,1-.88,1.35,2.59,2.59,0,0,1-1.63.49,2.63,2.63,0,0,1-2-.77,3,3,0,0,1-.73-2.17,3.18,3.18,0,0,1,.74-2.23,2.5,2.5,0,0,1,1.92-.79,2.42,2.42,0,0,1,1.87.77,3.08,3.08,0,0,1,.73,2.2c0,.05,0,.14,0,.25H91.55a2.14,2.14,0,0,0,.53,1.44,1.56,1.56,0,0,0,1.19.5,1.45,1.45,0,0,0,.91-.28A1.84,1.84,0,0,0,94.78,28.84ZM91.6,27.28h3.19a2,2,0,0,0-.37-1.08,1.48,1.48,0,0,0-1.2-.56,1.55,1.55,0,0,0-1.12.45A1.74,1.74,0,0,0,91.6,27.28Z"/><path class="cls-3" d="M99.61,23.92V22.8h1v1.12Zm0,6.76V25h1v5.71Z"/><path class="cls-3" d="M101.83,30.68V25h.87v.82a2,2,0,0,1,1.81-.94,2.44,2.44,0,0,1,.95.18,1.46,1.46,0,0,1,.65.49,2,2,0,0,1,.3.71,5.21,5.21,0,0,1,0,.94v3.51h-1V27.21a2.8,2.8,0,0,0-.11-.89.94.94,0,0,0-.4-.46,1.28,1.28,0,0,0-.68-.18,1.55,1.55,0,0,0-1.07.4,2,2,0,0,0-.44,1.48v3.12Z"/><path class="cls-3" d="M109.84,29.81l.14.86a3.38,3.38,0,0,1-.73.08,1.68,1.68,0,0,1-.82-.16,1,1,0,0,1-.41-.44A3.4,3.4,0,0,1,107.9,29V25.73h-.7V25h.7V23.56l1-.58v2h1v.76h-1v3.33a1.47,1.47,0,0,0,0,.53.42.42,0,0,0,.16.19.62.62,0,0,0,.33.07A2.62,2.62,0,0,0,109.84,29.81Z"/><path class="cls-3" d="M114.47,28.84l1,.13a2.42,2.42,0,0,1-.88,1.35,2.57,2.57,0,0,1-1.63.49,2.63,2.63,0,0,1-2-.77,3.08,3.08,0,0,1-.73-2.17,3.18,3.18,0,0,1,.74-2.23,2.53,2.53,0,0,1,1.93-.79,2.41,2.41,0,0,1,1.86.77,3.08,3.08,0,0,1,.73,2.2c0,.05,0,.14,0,.25h-4.25a2.19,2.19,0,0,0,.53,1.44A1.56,1.56,0,0,0,113,30a1.45,1.45,0,0,0,.91-.28A1.84,1.84,0,0,0,114.47,28.84Zm-3.18-1.56h3.19a1.91,1.91,0,0,0-.37-1.08,1.46,1.46,0,0,0-1.19-.56,1.52,1.52,0,0,0-1.12.45A1.75,1.75,0,0,0,111.29,27.28Z"/><path class="cls-3" d="M116.45,30.68V25h.87v.87a2.27,2.27,0,0,1,.62-.8,1,1,0,0,1,.62-.19,1.88,1.88,0,0,1,1,.31l-.33.89a1.41,1.41,0,0,0-.71-.21,1,1,0,0,0-.57.19,1.05,1.05,0,0,0-.36.53,3.72,3.72,0,0,0-.16,1.13v3Z"/><path class="cls-3" d="M123.81,28.84l1,.13a2.42,2.42,0,0,1-.88,1.35,2.57,2.57,0,0,1-1.63.49,2.64,2.64,0,0,1-2-.77,3.08,3.08,0,0,1-.73-2.17,3.18,3.18,0,0,1,.74-2.23,2.53,2.53,0,0,1,1.93-.79,2.44,2.44,0,0,1,1.87.77,3.12,3.12,0,0,1,.72,2.2c0,.05,0,.14,0,.25h-4.25a2.19,2.19,0,0,0,.53,1.44,1.56,1.56,0,0,0,1.19.5,1.45,1.45,0,0,0,.91-.28A1.84,1.84,0,0,0,123.81,28.84Zm-3.18-1.56h3.19a1.84,1.84,0,0,0-.37-1.08,1.46,1.46,0,0,0-1.19-.56,1.52,1.52,0,0,0-1.12.45A1.75,1.75,0,0,0,120.63,27.28Zm1.05-3,.71-1.51h1.27l-1.18,1.51Z"/><path class="cls-3" d="M125.42,29l1-.15a1.36,1.36,0,0,0,.45.88,1.6,1.6,0,0,0,1,.3,1.54,1.54,0,0,0,1-.27.82.82,0,0,0,.32-.64.59.59,0,0,0-.29-.51,3.82,3.82,0,0,0-1-.33,9.61,9.61,0,0,1-1.48-.46,1.45,1.45,0,0,1-.62-.55,1.52,1.52,0,0,1,0-1.47,1.76,1.76,0,0,1,.48-.54,2,2,0,0,1,.61-.28,2.84,2.84,0,0,1,.84-.11,3.32,3.32,0,0,1,1.18.19,1.62,1.62,0,0,1,.74.52,2,2,0,0,1,.34.89l-.95.12a1,1,0,0,0-.37-.68,1.35,1.35,0,0,0-.87-.25,1.54,1.54,0,0,0-1,.22.65.65,0,0,0-.29.52.52.52,0,0,0,.12.33A.82.82,0,0,0,127,27c.1,0,.38.12.85.25a10.42,10.42,0,0,1,1.43.45,1.31,1.31,0,0,1,.64.51,1.35,1.35,0,0,1,.23.82,1.6,1.6,0,0,1-.28.91,1.77,1.77,0,0,1-.81.66,2.94,2.94,0,0,1-1.21.24,2.72,2.72,0,0,1-1.69-.46A2.12,2.12,0,0,1,125.42,29Z"/><rect class="cls-4" x="136.61" y="6.07" width="0.85" height="32.3" rx="0.42"/><rect class="cls-4" x="7.43" y="6.07" width="0.85" height="32.3" rx="0.42"/></g></g></svg>