<svg xmlns="http://www.w3.org/2000/svg" viewBox="0 0 598.88 103.63"><defs><style>.cls-1{fill:#eacea2;}.cls-2{fill:#28203a;}.cls-3,.cls-6,.cls-7,.cls-8{fill:none;stroke-miterlimit:10;}.cls-3{stroke:#cb8517;stroke-width:2px;}.cls-4{fill:#cb8517;}.cls-5{fill:#33a0dc;}.cls-6,.cls-7,.cls-8{stroke:#9d9d9c;stroke-linecap:round;}.cls-7{stroke-dasharray:0 3.99;}.cls-8{stroke-dasharray:0 3.98;}</style></defs><g id="Capa_2" data-name="Capa 2"><g id="Capa_1-2" data-name="Capa 1"><rect class="cls-1" x="0.5" y="12.28" width="37.3" height="91.35"/><path class="cls-2" d="M19,90.81a4.28,4.28,0,0,1-3.07-1A3.58,3.58,0,0,1,14.79,87a3.86,3.86,0,0,1,.52-2,3.36,3.36,0,0,1,1.46-1.33,5,5,0,0,1,4.25,0,3.32,3.32,0,0,1,1.43,1.37A3.85,3.85,0,0,1,22.94,87a3.69,3.69,0,0,1-.54,2,3.41,3.41,0,0,1-1.46,1.33A4.48,4.48,0,0,1,19,90.81Zm0-1.07A3.17,3.17,0,0,0,21.23,89a2.67,2.67,0,0,0,0-3.86,3.37,3.37,0,0,0-2.35-.76,4,4,0,0,0-1.68.33A2.5,2.5,0,0,0,15.69,87a2.66,2.66,0,0,0,.76,1.91A3.41,3.41,0,0,0,19,89.74Z"/><path class="cls-2" d="M25,82.06H17.1v-.88h.74a2.13,2.13,0,0,1-.65-.7,1.91,1.91,0,0,1-.22-1,2.26,2.26,0,0,1,1.44-2.14,3.89,3.89,0,0,1,1.5-.28,3.84,3.84,0,0,1,1.58.31,2.41,2.41,0,0,1,1.07.92,2.34,2.34,0,0,1,.37,1.26,1.73,1.73,0,0,1-.2.86,1.91,1.91,0,0,1-.52.63H25Zm-5-.87a2.45,2.45,0,0,0,1.62-.45,1.38,1.38,0,0,0,.53-1.08,1.37,1.37,0,0,0-.55-1.1,2.55,2.55,0,0,0-1.69-.46,2.52,2.52,0,0,0-1.63.45,1.33,1.33,0,0,0-.54,1.07,1.38,1.38,0,0,0,.58,1.09A2.55,2.55,0,0,0,20,81.19Z"/><path class="cls-2" d="M21,72l.12-1a2.45,2.45,0,0,1,1.36.87,2.66,2.66,0,0,1,.48,1.64,2.58,2.58,0,0,1-.77,2,3,3,0,0,1-2.16.74,3.12,3.12,0,0,1-2.23-.75A2.5,2.5,0,0,1,17,73.6a2.44,2.44,0,0,1,.78-1.87A3.11,3.11,0,0,1,19.94,71h.26v4.26a2.2,2.2,0,0,0,1.44-.54,1.57,1.57,0,0,0,.5-1.19,1.47,1.47,0,0,0-.28-.91A1.81,1.81,0,0,0,21,72Zm-1.56,3.17V72a1.92,1.92,0,0,0-1.08.36,1.47,1.47,0,0,0-.56,1.2,1.56,1.56,0,0,0,.44,1.12A1.78,1.78,0,0,0,19.41,75.21Z"/><path class="cls-2" d="M22.81,69.83H17.1V69H18a2.29,2.29,0,0,1-.8-.62,1.07,1.07,0,0,1-.2-.62,1.91,1.91,0,0,1,.31-1l.9.33a1.38,1.38,0,0,0-.21.71.91.91,0,0,0,.19.57,1.05,1.05,0,0,0,.53.36,3.67,3.67,0,0,0,1.13.16h3Z"/><path class="cls-2" d="M22.1,62.44a3.64,3.64,0,0,1,.65,1,3.16,3.16,0,0,1,.18,1.07A2.12,2.12,0,0,1,22.48,66a1.55,1.55,0,0,1-1.18.5,1.51,1.51,0,0,1-.76-.19,1.59,1.59,0,0,1-.56-.5,2.35,2.35,0,0,1-.32-.7,5.68,5.68,0,0,1-.14-.85,9.12,9.12,0,0,0-.34-1.73h-.25a1.07,1.07,0,0,0-.83.27,1.61,1.61,0,0,0-.33,1.1,1.71,1.71,0,0,0,.24,1,1.53,1.53,0,0,0,.85.48l-.13.94a2.21,2.21,0,0,1-1-.42,1.92,1.92,0,0,1-.58-.85,4,4,0,0,1-.2-1.3,3.57,3.57,0,0,1,.17-1.19,1.63,1.63,0,0,1,.44-.67,1.56,1.56,0,0,1,.65-.3,5.83,5.83,0,0,1,.9-.05h1.28a14.19,14.19,0,0,0,1.71-.06,2.18,2.18,0,0,0,.69-.24v1A2.18,2.18,0,0,1,22.1,62.44Zm-2.16.08a6.7,6.7,0,0,1,.37,1.58,3.29,3.29,0,0,0,.19.84.87.87,0,0,0,.31.39.94.94,0,0,0,.46.13.84.84,0,0,0,.65-.29,1.28,1.28,0,0,0,.26-.86,1.92,1.92,0,0,0-.25-1,1.43,1.43,0,0,0-.67-.64,2.19,2.19,0,0,0-1-.16Z"/><path class="cls-2" d="M20.72,56.32l.12-1a2.5,2.5,0,0,1,1.54.8,2.32,2.32,0,0,1,.55,1.58,2.45,2.45,0,0,1-.76,1.88,3.13,3.13,0,0,1-2.2.71A3.85,3.85,0,0,1,18.36,60a2.1,2.1,0,0,1-1-.93A2.78,2.78,0,0,1,17,57.74a2.38,2.38,0,0,1,.47-1.52,2.19,2.19,0,0,1,1.34-.76l.14.94a1.54,1.54,0,0,0-.86.48,1.19,1.19,0,0,0-.29.82,1.5,1.5,0,0,0,.52,1.19,2.51,2.51,0,0,0,1.66.46,2.61,2.61,0,0,0,1.67-.44,1.44,1.44,0,0,0,.52-1.15,1.36,1.36,0,0,0-.35-.95A1.71,1.71,0,0,0,20.72,56.32Z"/><path class="cls-2" d="M16,54.54H14.93v-1H16Zm6.77,0H17.1v-1h5.71Z"/><path class="cls-2" d="M20,52.46a2.91,2.91,0,0,1-2.34-.88A2.62,2.62,0,0,1,17,49.79a2.58,2.58,0,0,1,.77-1.93,2.94,2.94,0,0,1,2.13-.74,3.75,3.75,0,0,1,1.73.33,2.27,2.27,0,0,1,1,1,2.72,2.72,0,0,1,.35,1.38,2.56,2.56,0,0,1-.76,1.93A3.1,3.1,0,0,1,20,52.46Zm0-1A2.41,2.41,0,0,0,21.59,51a1.58,1.58,0,0,0,0-2.4,2.47,2.47,0,0,0-1.67-.48,2.35,2.35,0,0,0-1.6.48,1.52,1.52,0,0,0-.55,1.2,1.54,1.54,0,0,0,.54,1.2A2.43,2.43,0,0,0,20,51.47Z"/><path class="cls-2" d="M22.81,46H17.1v-.87h.81A2.06,2.06,0,0,1,17,43.3a2.27,2.27,0,0,1,.19-.95,1.5,1.5,0,0,1,.48-.65,2,2,0,0,1,.72-.3,6.37,6.37,0,0,1,.94,0h3.51v1H19.34a2.49,2.49,0,0,0-.89.12,1,1,0,0,0-.47.4,1.31,1.31,0,0,0-.17.67,1.59,1.59,0,0,0,.39,1.07,1.93,1.93,0,0,0,1.49.45h3.12Z"/><path class="cls-2" d="M21,36l.12-1a2.44,2.44,0,0,1,1.36.88,3,3,0,0,1-.29,3.62,3,3,0,0,1-2.16.73,3.16,3.16,0,0,1-2.23-.74,2.53,2.53,0,0,1-.8-1.93,2.42,2.42,0,0,1,.78-1.86,3.07,3.07,0,0,1,2.19-.73h.26v4.26a2.19,2.19,0,0,0,1.44-.53,1.61,1.61,0,0,0,.5-1.2,1.44,1.44,0,0,0-.28-.9A1.89,1.89,0,0,0,21,36Zm-1.56,3.18V36a1.85,1.85,0,0,0-1.07.37,1.44,1.44,0,0,0-.56,1.19,1.51,1.51,0,0,0,.44,1.12A1.79,1.79,0,0,0,19.41,39.14Z"/><path class="cls-2" d="M21.1,34.13l-.15-1a1.39,1.39,0,0,0,.88-.45,1.91,1.91,0,0,0,0-2,.83.83,0,0,0-.64-.32.57.57,0,0,0-.51.29,3.82,3.82,0,0,0-.33,1,9.35,9.35,0,0,1-.47,1.48,1.43,1.43,0,0,1-.54.62,1.45,1.45,0,0,1-.76.21,1.43,1.43,0,0,1-.71-.17,1.56,1.56,0,0,1-.54-.48,1.83,1.83,0,0,1-.28-.61,2.84,2.84,0,0,1-.12-.84,3.56,3.56,0,0,1,.19-1.18,1.63,1.63,0,0,1,.53-.74,1.91,1.91,0,0,1,.88-.34l.13.95a1,1,0,0,0-.69.37,1.41,1.41,0,0,0-.24.87,1.54,1.54,0,0,0,.22.95.64.64,0,0,0,.51.29.52.52,0,0,0,.34-.12.9.9,0,0,0,.26-.37c0-.1.12-.38.25-.85a13.7,13.7,0,0,1,.44-1.44,1.46,1.46,0,0,1,.51-.63,1.38,1.38,0,0,1,.83-.23,1.62,1.62,0,0,1,.91.28,1.91,1.91,0,0,1,.66.81,2.94,2.94,0,0,1,.23,1.21,2.66,2.66,0,0,1-.46,1.69A2.1,2.1,0,0,1,21.1,34.13Z"/><line class="cls-3" x1="349.59" y1="24.44" x2="349.59" y2="2.29"/><polygon class="cls-4" points="352.98 6.27 349.58 2.88 346.19 6.27 346.19 3.39 349.58 0 352.98 3.39 352.98 6.27"/><line class="cls-5" x1="0.5" y1="12.22" x2="335.91" y2="12.22"/><line class="cls-6" x1="0.5" y1="12.22" x2="0.5" y2="12.22"/><line class="cls-7" x1="4.49" y1="12.22" x2="333.91" y2="12.22"/><line class="cls-6" x1="335.91" y1="12.22" x2="335.91" y2="12.22"/><line class="cls-5" x1="367.36" y1="12.22" x2="598.38" y2="12.22"/><line class="cls-6" x1="367.36" y1="12.22" x2="367.36" y2="12.22"/><line class="cls-8" x1="371.35" y1="12.22" x2="596.39" y2="12.22"/><line class="cls-6" x1="598.38" y1="12.22" x2="598.38" y2="12.22"/><polyline class="cls-3" points="526.62 35.73 526.62 24.7 178.39 24.7 178.39 35.73"/></g></g></svg>