<svg xmlns="http://www.w3.org/2000/svg" viewBox="0 0 37.3 91.35"><defs><style>.cls-1{fill:#f4eaae;}.cls-2{fill:#28203a;}</style></defs><g id="Capa_2" data-name="Capa 2"><g id="Capa_1-2" data-name="Capa 1"><rect class="cls-1" width="37.3" height="91.35"/><path class="cls-2" d="M16.48,71.86h-.93V68.52h2.92a5.75,5.75,0,0,1,.92,1.59,4.59,4.59,0,0,1,.31,1.68,4.46,4.46,0,0,1-.5,2.1,3.24,3.24,0,0,1-1.43,1.43,4.45,4.45,0,0,1-2.1.49,4.9,4.9,0,0,1-2.15-.48A3.18,3.18,0,0,1,12,73.94a4.33,4.33,0,0,1-.48-2.07,4.24,4.24,0,0,1,.27-1.55,2.68,2.68,0,0,1,.77-1.08,3.51,3.51,0,0,1,1.29-.6l.26.94a3.05,3.05,0,0,0-.94.44,1.76,1.76,0,0,0-.55.76,2.67,2.67,0,0,0-.21,1.08,3.12,3.12,0,0,0,.22,1.24,2.31,2.31,0,0,0,.57.84,2.77,2.77,0,0,0,.78.49,4.08,4.08,0,0,0,1.58.3,3.86,3.86,0,0,0,1.76-.36,2.3,2.3,0,0,0,1.06-1.05,3.31,3.31,0,0,0,.34-1.48,3.57,3.57,0,0,0-.26-1.32,3.18,3.18,0,0,0-.56-1H16.48Z"/><path class="cls-2" d="M17.73,63.21l.12-1a2.45,2.45,0,0,1,1.36.87,2.66,2.66,0,0,1,.48,1.64,2.58,2.58,0,0,1-.77,2,3,3,0,0,1-2.16.73,3.11,3.11,0,0,1-2.23-.74,2.5,2.5,0,0,1-.8-1.92,2.44,2.44,0,0,1,.78-1.87,3.11,3.11,0,0,1,2.19-.72H17v4.26a2.2,2.2,0,0,0,1.44-.54,1.57,1.57,0,0,0,.5-1.19,1.47,1.47,0,0,0-.28-.91A1.81,1.81,0,0,0,17.73,63.21Zm-1.56,3.17V63.2a1.92,1.92,0,0,0-1.08.36,1.47,1.47,0,0,0-.56,1.2A1.56,1.56,0,0,0,15,65.88,1.78,1.78,0,0,0,16.17,66.38Z"/><path class="cls-2" d="M19.57,61H13.86v-.87h.81a2,2,0,0,1-.94-1.81,2.27,2.27,0,0,1,.19-1,1.5,1.5,0,0,1,.48-.65,2,2,0,0,1,.72-.3,6.37,6.37,0,0,1,.94,0h3.51v1H16.1a2.54,2.54,0,0,0-.89.11.89.89,0,0,0-.46.4,1.24,1.24,0,0,0-.18.67A1.59,1.59,0,0,0,15,59.58a1.93,1.93,0,0,0,1.49.45h3.12Z"/><path class="cls-2" d="M17.73,51l.12-1a2.41,2.41,0,0,1,1.36.88,2.63,2.63,0,0,1,.48,1.63,2.59,2.59,0,0,1-.77,2,3,3,0,0,1-2.16.73,3.16,3.16,0,0,1-2.23-.74,2.53,2.53,0,0,1-.8-1.92,2.42,2.42,0,0,1,.78-1.87,3.07,3.07,0,0,1,2.19-.73H17V54.2a2.19,2.19,0,0,0,1.44-.53,1.6,1.6,0,0,0,.5-1.19,1.45,1.45,0,0,0-.28-.91A1.89,1.89,0,0,0,17.73,51Zm-1.56,3.18V51a1.91,1.91,0,0,0-1.08.37,1.44,1.44,0,0,0-.56,1.19A1.55,1.55,0,0,0,15,53.64,1.79,1.79,0,0,0,16.17,54.15Z"/><path class="cls-2" d="M19.57,48.77H13.86V47.9h.87a2.39,2.39,0,0,1-.8-.61,1.1,1.1,0,0,1-.2-.63,2,2,0,0,1,.31-1l.9.33a1.41,1.41,0,0,0-.21.71,1,1,0,0,0,.19.57,1.05,1.05,0,0,0,.53.36,3.72,3.72,0,0,0,1.13.16h3Z"/><path class="cls-2" d="M18.86,41.37a3.67,3.67,0,0,1,.65,1,3.06,3.06,0,0,1,.18,1.06,2.12,2.12,0,0,1-.45,1.45,1.62,1.62,0,0,1-2.5-.19,2.43,2.43,0,0,1-.32-.69,8.08,8.08,0,0,1-.14-.86A9.47,9.47,0,0,0,16,41.45h-.26a1.07,1.07,0,0,0-.83.27,1.62,1.62,0,0,0-.33,1.1,1.71,1.71,0,0,0,.24,1,1.42,1.42,0,0,0,.85.48l-.13.95a2.33,2.33,0,0,1-1-.43,1.86,1.86,0,0,1-.58-.85,4,4,0,0,1-.2-1.3,3.51,3.51,0,0,1,.17-1.18,1.5,1.5,0,0,1,.44-.67,1.34,1.34,0,0,1,.66-.3,4.58,4.58,0,0,1,.89-.05h1.29a14.1,14.1,0,0,0,1.7-.06,2.49,2.49,0,0,0,.69-.25v1A2.11,2.11,0,0,1,18.86,41.37Zm-2.16.08A6.83,6.83,0,0,1,17.07,43a4.08,4.08,0,0,0,.19.85.85.85,0,0,0,.32.38.86.86,0,0,0,1.1-.16,1.28,1.28,0,0,0,.26-.86,1.92,1.92,0,0,0-.25-1,1.48,1.48,0,0,0-.67-.64,2.35,2.35,0,0,0-1-.16Z"/><path class="cls-2" d="M17.48,35.26l.12-.95a2.42,2.42,0,0,1,1.54.79,2.34,2.34,0,0,1,.55,1.58,2.43,2.43,0,0,1-.76,1.88,3.07,3.07,0,0,1-2.19.71,4,4,0,0,1-1.62-.3,2.2,2.2,0,0,1-1-.93,2.79,2.79,0,0,1-.35-1.37,2.4,2.4,0,0,1,.47-1.52,2.18,2.18,0,0,1,1.34-.75l.14.94a1.59,1.59,0,0,0-.86.47,1.2,1.2,0,0,0-.29.83,1.48,1.48,0,0,0,.52,1.18,2.46,2.46,0,0,0,1.66.46,2.61,2.61,0,0,0,1.67-.44,1.42,1.42,0,0,0,.52-1.15,1.36,1.36,0,0,0-.35-.95A1.7,1.7,0,0,0,17.48,35.26Z"/><path class="cls-2" d="M12.8,33.47H11.69v-1H12.8Zm6.77,0H13.86v-1h5.71Z"/><path class="cls-2" d="M13.15,29.26l-1.5-.72V27.27l1.5,1.19Zm3.56,2.13a2.91,2.91,0,0,1-2.34-.88,2.62,2.62,0,0,1-.64-1.79,2.56,2.56,0,0,1,.77-1.92,2.94,2.94,0,0,1,2.13-.75,3.82,3.82,0,0,1,1.74.33,2.38,2.38,0,0,1,1,1,2.82,2.82,0,0,1,.34,1.38,2.58,2.58,0,0,1-.76,1.94A3.1,3.1,0,0,1,16.71,31.39Zm0-1a2.41,2.41,0,0,0,1.64-.48,1.58,1.58,0,0,0,0-2.4A2.47,2.47,0,0,0,16.68,27a2.35,2.35,0,0,0-1.6.48,1.58,1.58,0,0,0,0,2.4A2.39,2.39,0,0,0,16.71,30.4Z"/><path class="cls-2" d="M19.57,24.92H13.86v-.87h.81a2.08,2.08,0,0,1-.94-1.82,2.3,2.3,0,0,1,.19-.95,1.46,1.46,0,0,1,.48-.64,1.67,1.67,0,0,1,.72-.3,5,5,0,0,1,.94-.06h3.51v1H16.1a2.8,2.8,0,0,0-.89.11.94.94,0,0,0-.46.4,1.25,1.25,0,0,0-.18.68A1.56,1.56,0,0,0,15,23.5a1.93,1.93,0,0,0,1.49.45h3.12Z"/><path class="cls-2" d="M30.07,63.1h-.72a1.78,1.78,0,0,1,.84,1.6A2.23,2.23,0,0,1,29.82,66a2.49,2.49,0,0,1-1.05.89,3.64,3.64,0,0,1-1.55.31,4.24,4.24,0,0,1-1.55-.28A2.36,2.36,0,0,1,24.6,66a2.33,2.33,0,0,1-.37-1.27,2,2,0,0,1,.22-.92,1.92,1.92,0,0,1,.57-.66H22.19v-1h7.88Zm-2.85,3.06a2.47,2.47,0,0,0,1.64-.47,1.38,1.38,0,0,0,.54-1.09,1.34,1.34,0,0,0-.52-1.07,2.35,2.35,0,0,0-1.58-.45,2.64,2.64,0,0,0-1.72.46A1.4,1.4,0,0,0,25,64.65a1.32,1.32,0,0,0,.53,1.07A2.58,2.58,0,0,0,27.22,66.16Z"/><path class="cls-2" d="M28.23,56.78l.12-1a2.45,2.45,0,0,1,1.36.87,2.68,2.68,0,0,1,.48,1.64,2.58,2.58,0,0,1-.77,2,3,3,0,0,1-2.16.74A3.12,3.12,0,0,1,25,60.26a2.5,2.5,0,0,1-.8-1.92A2.45,2.45,0,0,1,25,56.47a3.11,3.11,0,0,1,2.19-.72h.26V60a2.2,2.2,0,0,0,1.44-.54,1.57,1.57,0,0,0,.5-1.19,1.49,1.49,0,0,0-.28-.91A1.81,1.81,0,0,0,28.23,56.78ZM26.67,60V56.77a1.92,1.92,0,0,0-1.08.36,1.47,1.47,0,0,0-.56,1.2,1.56,1.56,0,0,0,.44,1.12A1.78,1.78,0,0,0,26.67,60Z"/><path class="cls-2" d="M30.07,49.92l-5.71,2.17v-1l3.42-1.22c.37-.13.75-.26,1.15-.37a11.37,11.37,0,0,1-1.09-.36l-3.48-1.26v-1L30.07,49Z"/><path class="cls-2" d="M29.36,42.29a3.5,3.5,0,0,1,.65,1,3.12,3.12,0,0,1,.18,1.07,2.09,2.09,0,0,1-.45,1.44,1.52,1.52,0,0,1-1.18.51,1.61,1.61,0,0,1-.76-.19,1.7,1.7,0,0,1-.56-.5,2.63,2.63,0,0,1-.32-.7,8.08,8.08,0,0,1-.14-.86,9.33,9.33,0,0,0-.33-1.72h-.26a1,1,0,0,0-.83.28,1.59,1.59,0,0,0-.33,1.1,1.67,1.67,0,0,0,.24,1,1.42,1.42,0,0,0,.85.48l-.13,1a2.46,2.46,0,0,1-1-.42,2,2,0,0,1-.58-.86,3.88,3.88,0,0,1-.2-1.29,3.53,3.53,0,0,1,.17-1.19,1.37,1.37,0,0,1,1.1-1,5.58,5.58,0,0,1,.89,0h1.29a14.1,14.1,0,0,0,1.7-.06,2,2,0,0,0,.69-.25v1A2.11,2.11,0,0,1,29.36,42.29Zm-2.16.08A6.7,6.7,0,0,1,27.57,44a4,4,0,0,0,.19.84.85.85,0,0,0,.32.38.81.81,0,0,0,.46.14.81.81,0,0,0,.64-.3,1.25,1.25,0,0,0,.26-.85,1.93,1.93,0,0,0-.25-1,1.48,1.48,0,0,0-.67-.64,2.37,2.37,0,0,0-1-.15Z"/><path class="cls-2" d="M30.07,39.91H22.19V39h7.88Z"/><path class="cls-2" d="M27.21,37.81a2.94,2.94,0,0,1-2.34-.88,2.63,2.63,0,0,1-.64-1.8A2.58,2.58,0,0,1,25,33.21a2.94,2.94,0,0,1,2.13-.75,3.82,3.82,0,0,1,1.74.33,2.35,2.35,0,0,1,1,1,2.78,2.78,0,0,1,.34,1.37,2.57,2.57,0,0,1-.76,1.94A3.1,3.1,0,0,1,27.21,37.81Zm0-1a2.47,2.47,0,0,0,1.64-.47,1.6,1.6,0,0,0,0-2.41,2.52,2.52,0,0,0-1.67-.47,2.35,2.35,0,0,0-1.6.48,1.58,1.58,0,0,0,0,2.4A2.44,2.44,0,0,0,27.21,36.81Z"/><path class="cls-2" d="M30.07,31.34H24.36v-.87h.87a2.39,2.39,0,0,1-.8-.61,1.09,1.09,0,0,1-.2-.62,2,2,0,0,1,.31-1l.9.33a1.41,1.41,0,0,0-.21.71,1,1,0,0,0,.19.57,1.05,1.05,0,0,0,.53.36,3.72,3.72,0,0,0,1.13.16h3Z"/></g></g></svg>