<svg xmlns="http://www.w3.org/2000/svg" viewBox="0 0 145.51 46.79"><defs><style>.cls-1{fill:#9a9fbd;}.cls-2{fill:#cb8517;}.cls-3{fill:#28203a;}.cls-4{fill:#fff;}</style></defs><g id="Capa_2" data-name="Capa 2"><g id="Capa_1-2" data-name="Capa 1"><rect class="cls-1" x="1.99" y="2.34" width="143.53" height="44.45" rx="5.36"/><rect class="cls-2" width="143.53" height="44.45" rx="5.36"/><path class="cls-3" d="M17.28,15.54a4.28,4.28,0,0,1,1-3.07,3.58,3.58,0,0,1,2.72-1.11,3.73,3.73,0,0,1,2,.52,3.41,3.41,0,0,1,1.34,1.45,4.81,4.81,0,0,1,.46,2.11,4.57,4.57,0,0,1-.49,2.15A3.32,3.32,0,0,1,23,19a3.93,3.93,0,0,1-1.91.49,3.74,3.74,0,0,1-2-.54,3.48,3.48,0,0,1-1.32-1.47A4.43,4.43,0,0,1,17.28,15.54Zm1.07,0a3.14,3.14,0,0,0,.77,2.24,2.67,2.67,0,0,0,3.85,0,3.36,3.36,0,0,0,.76-2.35,4.16,4.16,0,0,0-.32-1.68,2.53,2.53,0,0,0-.95-1.11,2.63,2.63,0,0,0-1.41-.4,2.68,2.68,0,0,0-1.9.76A3.42,3.42,0,0,0,18.35,15.55Z"/><path class="cls-3" d="M26,21.56V13.67h.89v.74a2,2,0,0,1,.7-.65,1.88,1.88,0,0,1,.95-.22,2.25,2.25,0,0,1,1.29.37A2.35,2.35,0,0,1,30.69,15,3.91,3.91,0,0,1,31,16.48a3.8,3.8,0,0,1-.32,1.57,2.37,2.37,0,0,1-.91,1.08,2.34,2.34,0,0,1-1.26.37,1.92,1.92,0,0,1-.87-.2,2.14,2.14,0,0,1-.63-.52v2.78Zm.88-5a2.48,2.48,0,0,0,.45,1.63,1.34,1.34,0,0,0,1.08.52,1.4,1.4,0,0,0,1.1-.54A2.57,2.57,0,0,0,30,16.47a2.5,2.5,0,0,0-.45-1.63,1.37,1.37,0,0,0-1.07-.55,1.4,1.4,0,0,0-1.09.58A2.59,2.59,0,0,0,26.9,16.55Z"/><path class="cls-3" d="M34.25,18.51l.14.85a3.37,3.37,0,0,1-.73.09,1.63,1.63,0,0,1-.81-.17.91.91,0,0,1-.41-.44,3.4,3.4,0,0,1-.12-1.14V14.42h-.71v-.75h.71V12.25l1-.58v2h1v.75h-1v3.33a1.89,1.89,0,0,0,0,.54.42.42,0,0,0,.17.18.62.62,0,0,0,.33.07Z"/><path class="cls-3" d="M35.2,12.61V11.5h1v1.11Zm0,6.76v-5.7h1v5.7Z"/><path class="cls-3" d="M37.64,19.37v-5.7h.87v.8a2.1,2.1,0,0,1,.71-.68,2,2,0,0,1,1-.25,1.93,1.93,0,0,1,1,.26,1.41,1.41,0,0,1,.57.74,2,2,0,0,1,1.76-1,1.72,1.72,0,0,1,1.31.47,2,2,0,0,1,.45,1.44v3.92h-1V15.78a2.78,2.78,0,0,0-.09-.84.9.9,0,0,0-.34-.41,1.11,1.11,0,0,0-.58-.15,1.32,1.32,0,0,0-1,.4,1.72,1.72,0,0,0-.4,1.28v3.31H41V15.66a1.66,1.66,0,0,0-.23-1,.89.89,0,0,0-.78-.32,1.42,1.42,0,0,0-.75.21,1.18,1.18,0,0,0-.5.63,3.33,3.33,0,0,0-.16,1.19v3Z"/><path class="cls-3" d="M46.81,12.61V11.5h1v1.11Zm0,6.76v-5.7h1v5.7Z"/><path class="cls-3" d="M48.74,19.37v-.78l3.63-4.17-1.09,0H49v-.78h4.67v.64l-3.09,3.62-.6.66c.44,0,.84-.05,1.22-.05h2.64v.83Z"/><path class="cls-3" d="M58.47,18.67a3.58,3.58,0,0,1-1,.64,2.9,2.9,0,0,1-1.07.19A2,2,0,0,1,54.93,19a1.52,1.52,0,0,1-.51-1.17,1.57,1.57,0,0,1,.69-1.32,2.35,2.35,0,0,1,.7-.32,7.19,7.19,0,0,1,.86-.15,8.55,8.55,0,0,0,1.72-.33c0-.13,0-.22,0-.25a1,1,0,0,0-.28-.83,1.59,1.59,0,0,0-1.1-.33,1.67,1.67,0,0,0-1,.24,1.48,1.48,0,0,0-.49.84l-.94-.13a2.53,2.53,0,0,1,.42-1,1.81,1.81,0,0,1,.86-.57,3.64,3.64,0,0,1,1.29-.2,3.57,3.57,0,0,1,1.19.17,1.55,1.55,0,0,1,.67.43,1.61,1.61,0,0,1,.3.66,5.58,5.58,0,0,1,0,.89V17a14.19,14.19,0,0,0,.06,1.71,2,2,0,0,0,.25.68h-1A1.85,1.85,0,0,1,58.47,18.67Zm-.08-2.16a7.34,7.34,0,0,1-1.58.36,3.31,3.31,0,0,0-.84.2.78.78,0,0,0-.38.31.83.83,0,0,0-.14.46.8.8,0,0,0,.3.64,1.2,1.2,0,0,0,.85.26,2,2,0,0,0,1-.24,1.59,1.59,0,0,0,.64-.67,2.43,2.43,0,0,0,.15-1Z"/><path class="cls-3" d="M60.86,19.37v-5.7h.87v.86a2.37,2.37,0,0,1,.61-.8,1.08,1.08,0,0,1,.62-.19,1.88,1.88,0,0,1,1,.31l-.34.9a1.36,1.36,0,0,0-.71-.21.86.86,0,0,0-.56.19,1,1,0,0,0-.37.53,4,4,0,0,0-.16,1.12v3Z"/><path class="cls-3" d="M71.49,17.53l1,.13A2.52,2.52,0,0,1,71.62,19,2.66,2.66,0,0,1,70,19.5a2.62,2.62,0,0,1-2-.77,3,3,0,0,1-.73-2.16A3.14,3.14,0,0,1,68,14.33a2.49,2.49,0,0,1,1.92-.79,2.44,2.44,0,0,1,1.87.78,3.11,3.11,0,0,1,.72,2.19v.26H68.27a2.14,2.14,0,0,0,.53,1.43,1.67,1.67,0,0,0,2.1.23A1.84,1.84,0,0,0,71.49,17.53ZM68.32,16H71.5a1.92,1.92,0,0,0-.36-1.08,1.5,1.5,0,0,0-1.2-.56,1.53,1.53,0,0,0-1.12.45A1.76,1.76,0,0,0,68.32,16Z"/><path class="cls-3" d="M73.68,19.37V11.5h1v7.87Z"/><path class="cls-3" d="M82.91,19.37v-.72a1.79,1.79,0,0,1-1.6.85,2.24,2.24,0,0,1-1.25-.38,2.49,2.49,0,0,1-.89-1.05,3.61,3.61,0,0,1-.31-1.55A4.07,4.07,0,0,1,79.14,15,2.25,2.25,0,0,1,80,13.91a2.28,2.28,0,0,1,1.28-.37,1.87,1.87,0,0,1,.92.22,2,2,0,0,1,.65.56V11.5h1v7.87Zm-3.06-2.85a2.47,2.47,0,0,0,.46,1.64,1.38,1.38,0,0,0,2.17,0,2.45,2.45,0,0,0,.44-1.59,2.65,2.65,0,0,0-.45-1.71,1.37,1.37,0,0,0-1.11-.55,1.34,1.34,0,0,0-1.08.52A2.62,2.62,0,0,0,79.85,16.52Z"/><path class="cls-3" d="M89.23,17.53l1,.13A2.48,2.48,0,0,1,89.35,19a3,3,0,0,1-3.62-.29A3,3,0,0,1,85,16.57a3.18,3.18,0,0,1,.74-2.24,2.52,2.52,0,0,1,1.92-.79,2.42,2.42,0,0,1,1.87.78,3.07,3.07,0,0,1,.73,2.19s0,.14,0,.26H86a2.14,2.14,0,0,0,.53,1.43,1.56,1.56,0,0,0,1.19.5,1.51,1.51,0,0,0,.91-.27A1.92,1.92,0,0,0,89.23,17.53ZM86.05,16h3.19a2,2,0,0,0-.37-1.08,1.48,1.48,0,0,0-1.19-.56,1.52,1.52,0,0,0-1.12.45A1.77,1.77,0,0,0,86.05,16Z"/><path class="cls-3" d="M91.05,17.67l1-.15a1.32,1.32,0,0,0,.45.88,1.58,1.58,0,0,0,1,.3,1.54,1.54,0,0,0,1-.27.82.82,0,0,0,.32-.63.6.6,0,0,0-.29-.52,4.24,4.24,0,0,0-1-.33,9,9,0,0,1-1.47-.46,1.43,1.43,0,0,1-.62-.54,1.46,1.46,0,0,1-.21-.77,1.4,1.4,0,0,1,.17-.7,1.53,1.53,0,0,1,.47-.54,2,2,0,0,1,.62-.29,3.2,3.2,0,0,1,.83-.11,3.25,3.25,0,0,1,1.18.19,1.6,1.6,0,0,1,.75.52,2.13,2.13,0,0,1,.34.89l-1,.13a1,1,0,0,0-.37-.69,1.35,1.35,0,0,0-.87-.25,1.65,1.65,0,0,0-1,.22.64.64,0,0,0-.28.52.54.54,0,0,0,.12.34.81.81,0,0,0,.37.25c.09,0,.38.12.85.25a10.42,10.42,0,0,1,1.43.45,1.49,1.49,0,0,1,.64.51,1.44,1.44,0,0,1,.23.82,1.58,1.58,0,0,1-.28.91,1.86,1.86,0,0,1-.81.67,3.11,3.11,0,0,1-1.21.23A2.66,2.66,0,0,1,91.8,19,2.18,2.18,0,0,1,91.05,17.67Z"/><path class="cls-3" d="M100.66,18.67a3.58,3.58,0,0,1-1,.64,2.9,2.9,0,0,1-1.07.19A2,2,0,0,1,97.12,19a1.52,1.52,0,0,1-.51-1.17,1.57,1.57,0,0,1,.69-1.32,2.35,2.35,0,0,1,.7-.32,7.59,7.59,0,0,1,.86-.15,8.55,8.55,0,0,0,1.72-.33c0-.13,0-.22,0-.25a1,1,0,0,0-.28-.83,1.59,1.59,0,0,0-1.1-.33,1.67,1.67,0,0,0-1,.24,1.42,1.42,0,0,0-.48.84l-1-.13a2.53,2.53,0,0,1,.42-1,1.86,1.86,0,0,1,.86-.57,3.64,3.64,0,0,1,1.29-.2,3.57,3.57,0,0,1,1.19.17,1.55,1.55,0,0,1,.67.43,1.61,1.61,0,0,1,.3.66,5.58,5.58,0,0,1,0,.89V17a14.19,14.19,0,0,0,.06,1.71,2,2,0,0,0,.25.68h-1A2.05,2.05,0,0,1,100.66,18.67Zm-.08-2.16a7.34,7.34,0,0,1-1.58.36,3.31,3.31,0,0,0-.84.2.78.78,0,0,0-.38.31.83.83,0,0,0-.14.46.8.8,0,0,0,.3.64,1.2,1.2,0,0,0,.85.26,2,2,0,0,0,1-.24,1.59,1.59,0,0,0,.64-.67,2.43,2.43,0,0,0,.15-1Z"/><path class="cls-3" d="M103.05,19.37v-5.7h.87v.86a2.5,2.5,0,0,1,.61-.8,1.08,1.08,0,0,1,.62-.19,1.88,1.88,0,0,1,1,.31l-.34.9a1.36,1.36,0,0,0-.71-.21.86.86,0,0,0-.56.19,1,1,0,0,0-.36.53,3.65,3.65,0,0,0-.16,1.12v3Z"/><path class="cls-3" d="M106.71,19.37v-5.7h.87v.86a2.5,2.5,0,0,1,.61-.8,1.09,1.09,0,0,1,.63-.19,1.88,1.88,0,0,1,1,.31l-.33.9a1.41,1.41,0,0,0-.71-.21.91.91,0,0,0-.57.19,1,1,0,0,0-.36.53,3.65,3.65,0,0,0-.16,1.12v3Z"/><path class="cls-3" d="M110,16.52a2.94,2.94,0,0,1,.89-2.35,2.64,2.64,0,0,1,1.79-.63,2.54,2.54,0,0,1,1.92.77,2.91,2.91,0,0,1,.75,2.13,3.78,3.78,0,0,1-.33,1.73,2.33,2.33,0,0,1-1,1,2.83,2.83,0,0,1-1.38.35,2.59,2.59,0,0,1-1.94-.77A3.07,3.07,0,0,1,110,16.52Zm1,0a2.41,2.41,0,0,0,.48,1.64,1.6,1.6,0,0,0,2.4,0,2.5,2.5,0,0,0,.48-1.67,2.38,2.38,0,0,0-.48-1.61,1.55,1.55,0,0,0-1.2-.54,1.52,1.52,0,0,0-1.2.54A2.41,2.41,0,0,0,111,16.52Z"/><path class="cls-3" d="M116.48,19.37V11.5h1v7.87Z"/><path class="cls-3" d="M118.92,19.37V11.5h1v7.87Z"/><path class="cls-3" d="M121,16.52a2.93,2.93,0,0,1,.88-2.35,2.66,2.66,0,0,1,1.79-.63,2.55,2.55,0,0,1,1.93.77,2.91,2.91,0,0,1,.74,2.13,3.78,3.78,0,0,1-.33,1.73,2.33,2.33,0,0,1-1,1,2.83,2.83,0,0,1-1.38.35,2.57,2.57,0,0,1-1.93-.77A3.07,3.07,0,0,1,121,16.52Zm1,0a2.41,2.41,0,0,0,.48,1.64,1.6,1.6,0,0,0,2.4,0,2.5,2.5,0,0,0,.48-1.67,2.38,2.38,0,0,0-.48-1.61,1.6,1.6,0,0,0-2.4,0A2.41,2.41,0,0,0,122,16.52Z"/><path class="cls-3" d="M36.14,30.68V30a1.78,1.78,0,0,1-1.6.85,2.24,2.24,0,0,1-1.25-.38,2.49,2.49,0,0,1-.89-1.05,3.61,3.61,0,0,1-.31-1.55,4.07,4.07,0,0,1,.28-1.55,2.22,2.22,0,0,1,.86-1.06,2.25,2.25,0,0,1,1.27-.37,2,2,0,0,1,.92.21,1.9,1.9,0,0,1,.65.57V22.8h1v7.88Zm-3.06-2.85a2.47,2.47,0,0,0,.47,1.64,1.38,1.38,0,0,0,1.09.54,1.34,1.34,0,0,0,1.07-.52,2.35,2.35,0,0,0,.44-1.58,2.7,2.7,0,0,0-.45-1.72,1.4,1.4,0,0,0-1.11-.55,1.32,1.32,0,0,0-1.07.53A2.59,2.59,0,0,0,33.08,27.83Z"/><path class="cls-3" d="M42.46,28.84l1,.13a2.46,2.46,0,0,1-.87,1.35A3,3,0,0,1,39,30a3,3,0,0,1-.74-2.17A3.12,3.12,0,0,1,39,25.64a2.49,2.49,0,0,1,1.92-.79,2.44,2.44,0,0,1,1.87.77,3.11,3.11,0,0,1,.72,2.19v.26H39.23a2.2,2.2,0,0,0,.54,1.44A1.54,1.54,0,0,0,41,30a1.44,1.44,0,0,0,.9-.28A1.77,1.77,0,0,0,42.46,28.84Zm-3.17-1.56h3.18a1.92,1.92,0,0,0-.36-1.08,1.5,1.5,0,0,0-1.2-.56,1.53,1.53,0,0,0-1.12.45A1.74,1.74,0,0,0,39.29,27.28Z"/><path class="cls-3" d="M47.71,30.68V22.8h1v7.88Z"/><path class="cls-3" d="M49.81,27.83a3,3,0,0,1,.88-2.35,2.69,2.69,0,0,1,1.8-.63,2.54,2.54,0,0,1,1.92.77,2.91,2.91,0,0,1,.75,2.13,3.78,3.78,0,0,1-.33,1.73,2.33,2.33,0,0,1-1,1,2.83,2.83,0,0,1-1.38.35A2.58,2.58,0,0,1,50.55,30,3.07,3.07,0,0,1,49.81,27.83Zm1,0a2.43,2.43,0,0,0,.48,1.64,1.59,1.59,0,0,0,2.4,0,2.47,2.47,0,0,0,.47-1.67,2.35,2.35,0,0,0-.48-1.6,1.57,1.57,0,0,0-2.39,0A2.41,2.41,0,0,0,50.81,27.83Z"/><path class="cls-3" d="M55.9,29l1-.16a1.32,1.32,0,0,0,.45.89,1.58,1.58,0,0,0,1,.3,1.54,1.54,0,0,0,1-.27.82.82,0,0,0,.32-.64.59.59,0,0,0-.29-.51,3.79,3.79,0,0,0-1-.33,9.4,9.4,0,0,1-1.47-.46,1.45,1.45,0,0,1-.62-.55,1.52,1.52,0,0,1,0-1.47,1.76,1.76,0,0,1,.48-.54,2,2,0,0,1,.61-.28,2.84,2.84,0,0,1,.84-.11,3.23,3.23,0,0,1,1.17.19,1.6,1.6,0,0,1,.75.52,2,2,0,0,1,.34.89l-1,.12a1,1,0,0,0-.37-.68,1.35,1.35,0,0,0-.87-.25,1.58,1.58,0,0,0-1,.22.67.67,0,0,0-.28.52.52.52,0,0,0,.12.33.82.82,0,0,0,.37.26c.1,0,.38.12.85.25a10.42,10.42,0,0,1,1.43.45,1.36,1.36,0,0,1,.64.51,1.42,1.42,0,0,1,.23.82,1.6,1.6,0,0,1-.28.91,1.77,1.77,0,0,1-.81.66,2.94,2.94,0,0,1-1.21.24,2.72,2.72,0,0,1-1.69-.46A2.18,2.18,0,0,1,55.9,29Z"/><path class="cls-3" d="M64.85,32.86V25h.88v.75a2.29,2.29,0,0,1,.7-.66,2,2,0,0,1,.95-.21,2.25,2.25,0,0,1,1.29.37,2.37,2.37,0,0,1,.85,1.06,4.08,4.08,0,0,1,.28,1.5,4,4,0,0,1-.31,1.58,2.31,2.31,0,0,1-.92,1.07,2.35,2.35,0,0,1-1.26.38,1.74,1.74,0,0,1-.86-.21,1.9,1.9,0,0,1-.64-.51v2.77Zm.87-5a2.48,2.48,0,0,0,.45,1.63,1.37,1.37,0,0,0,1.08.52,1.39,1.39,0,0,0,1.1-.54,2.58,2.58,0,0,0,.46-1.69,2.55,2.55,0,0,0-.45-1.64,1.34,1.34,0,0,0-1.07-.54,1.41,1.41,0,0,0-1.09.58A2.55,2.55,0,0,0,65.72,27.86Z"/><path class="cls-3" d="M71,30.68V25h.87v.87a2.39,2.39,0,0,1,.62-.8,1.06,1.06,0,0,1,.62-.19,1.82,1.82,0,0,1,1,.31l-.33.89a1.38,1.38,0,0,0-.71-.21,1,1,0,0,0-.57.19,1.05,1.05,0,0,0-.36.53,3.72,3.72,0,0,0-.16,1.13v3Z"/><path class="cls-3" d="M74.27,27.83a2.93,2.93,0,0,1,.88-2.35,2.66,2.66,0,0,1,1.79-.63,2.55,2.55,0,0,1,1.93.77,3,3,0,0,1,.74,2.13,3.78,3.78,0,0,1-.33,1.73,2.33,2.33,0,0,1-1,1,2.83,2.83,0,0,1-1.38.35A2.57,2.57,0,0,1,75,30,3.07,3.07,0,0,1,74.27,27.83Zm1,0a2.43,2.43,0,0,0,.48,1.64,1.54,1.54,0,0,0,1.2.54,1.52,1.52,0,0,0,1.2-.55,2.47,2.47,0,0,0,.48-1.67,2.35,2.35,0,0,0-.48-1.6,1.58,1.58,0,0,0-2.4,0A2.41,2.41,0,0,0,75.26,27.83Z"/><path class="cls-3" d="M80.7,32.88,80.6,32a2.43,2.43,0,0,0,.55.08,1.05,1.05,0,0,0,.51-.1,1,1,0,0,0,.32-.31,4.64,4.64,0,0,0,.3-.71,1.33,1.33,0,0,1,.08-.24L80.2,25h1l1.19,3.31c.15.42.29.86.41,1.32a10.9,10.9,0,0,1,.4-1.3L84.46,25h1l-2.17,5.8a11,11,0,0,1-.54,1.3,1.91,1.91,0,0,1-.59.7,1.38,1.38,0,0,1-.79.22A2.2,2.2,0,0,1,80.7,32.88Z"/><path class="cls-3" d="M90.15,28.84l1,.13a2.42,2.42,0,0,1-.88,1.35,2.57,2.57,0,0,1-1.63.49,2.62,2.62,0,0,1-2-.77,3,3,0,0,1-.74-2.17,3.12,3.12,0,0,1,.75-2.23,2.49,2.49,0,0,1,1.92-.79,2.44,2.44,0,0,1,1.87.77,3.11,3.11,0,0,1,.72,2.19v.26H86.92a2.25,2.25,0,0,0,.53,1.44,1.57,1.57,0,0,0,1.2.5,1.44,1.44,0,0,0,.9-.28A1.77,1.77,0,0,0,90.15,28.84ZM87,27.28h3.18a1.92,1.92,0,0,0-.36-1.08,1.5,1.5,0,0,0-1.2-.56,1.52,1.52,0,0,0-1.12.45A1.74,1.74,0,0,0,87,27.28Z"/><path class="cls-3" d="M96.09,28.59l1,.12a2.48,2.48,0,0,1-.8,1.54,2.35,2.35,0,0,1-1.58.56A2.44,2.44,0,0,1,92.78,30a3.12,3.12,0,0,1-.71-2.19,4,4,0,0,1,.3-1.62,2.17,2.17,0,0,1,.94-1,2.75,2.75,0,0,1,1.36-.34,2.39,2.39,0,0,1,1.52.46,2.18,2.18,0,0,1,.75,1.34L96,26.8a1.53,1.53,0,0,0-.48-.87,1.25,1.25,0,0,0-.83-.29,1.48,1.48,0,0,0-1.18.52,2.46,2.46,0,0,0-.46,1.66,2.59,2.59,0,0,0,.44,1.67,1.44,1.44,0,0,0,1.15.52,1.31,1.31,0,0,0,.95-.35A1.71,1.71,0,0,0,96.09,28.59Z"/><path class="cls-3" d="M100,29.81l.14.86a3.32,3.32,0,0,1-.73.08,1.64,1.64,0,0,1-.81-.16.91.91,0,0,1-.41-.44A3.4,3.4,0,0,1,98,29V25.73h-.71V25H98V23.56L99,23v2h1v.76H99v3.33a1.8,1.8,0,0,0,0,.53.44.44,0,0,0,.17.19.62.62,0,0,0,.33.07A2.43,2.43,0,0,0,100,29.81Z"/><path class="cls-3" d="M100.56,27.83a2.93,2.93,0,0,1,.88-2.35,2.66,2.66,0,0,1,1.79-.63,2.55,2.55,0,0,1,1.93.77,2.91,2.91,0,0,1,.74,2.13,3.78,3.78,0,0,1-.33,1.73,2.33,2.33,0,0,1-1,1,2.83,2.83,0,0,1-1.38.35A2.57,2.57,0,0,1,101.3,30,3.07,3.07,0,0,1,100.56,27.83Zm1,0a2.43,2.43,0,0,0,.48,1.64,1.54,1.54,0,0,0,1.2.54,1.52,1.52,0,0,0,1.2-.55,2.47,2.47,0,0,0,.48-1.67,2.35,2.35,0,0,0-.48-1.6,1.58,1.58,0,0,0-2.4,0A2.41,2.41,0,0,0,101.55,27.83Z"/><path class="cls-3" d="M106.65,29l1-.16a1.32,1.32,0,0,0,.45.89,1.55,1.55,0,0,0,1,.3,1.5,1.5,0,0,0,1-.27.79.79,0,0,0,.32-.64.58.58,0,0,0-.28-.51,3.79,3.79,0,0,0-1-.33,9,9,0,0,1-1.47-.46,1.48,1.48,0,0,1-.63-.55,1.43,1.43,0,0,1-.21-.76,1.44,1.44,0,0,1,.18-.71,1.61,1.61,0,0,1,.47-.54,2.12,2.12,0,0,1,.62-.28,2.78,2.78,0,0,1,.83-.11,3.28,3.28,0,0,1,1.18.19,1.6,1.6,0,0,1,.75.52,2.07,2.07,0,0,1,.33.89l-.94.12a1,1,0,0,0-.38-.68,1.31,1.31,0,0,0-.87-.25,1.56,1.56,0,0,0-1,.22.64.64,0,0,0-.28.52.57.57,0,0,0,.11.33.88.88,0,0,0,.37.26c.1,0,.39.12.86.25a10.92,10.92,0,0,1,1.43.45,1.36,1.36,0,0,1,.87,1.33,1.68,1.68,0,0,1-.28.91,1.75,1.75,0,0,1-.82.66,2.86,2.86,0,0,1-1.2.24,2.75,2.75,0,0,1-1.7-.46A2.22,2.22,0,0,1,106.65,29Z"/><rect class="cls-4" x="6.07" y="6.07" width="0.85" height="32.3" rx="0.42"/><rect class="cls-4" x="136.61" y="6.07" width="0.85" height="32.3" rx="0.42"/></g></g></svg>