<svg xmlns="http://www.w3.org/2000/svg" viewBox="0 0 192.42 46.79"><defs><style>.cls-1{fill:#9a9fbd;}.cls-2{fill:#b2c91f;}.cls-3{fill:#28203a;}.cls-4{fill:#fff;}.cls-5{fill:none;stroke:#b2c91f;stroke-miterlimit:10;stroke-width:2px;}</style></defs><g id="Capa_2" data-name="Capa 2"><g id="Capa_1-2" data-name="Capa 1"><rect class="cls-1" x="26.43" y="2.34" width="143.53" height="44.45" rx="5.36"/><rect class="cls-2" x="24.44" width="143.53" height="44.45" rx="5.36"/><path class="cls-3" d="M42.08,19.37l3-7.87h1.12l3.23,7.87H48.26L47.34,17H44.05l-.87,2.38Zm2.27-3.23H47L46.2,14c-.25-.67-.44-1.21-.56-1.64a9.22,9.22,0,0,1-.43,1.51Z"/><path class="cls-3" d="M52.26,18.51l.14.85a3.37,3.37,0,0,1-.73.09,1.63,1.63,0,0,1-.81-.17.91.91,0,0,1-.41-.44,3.4,3.4,0,0,1-.12-1.14V14.42h-.71v-.75h.71V12.25l1-.58v2h1v.75h-1v3.33a1.89,1.89,0,0,0,.05.54.42.42,0,0,0,.17.18.62.62,0,0,0,.33.07Z"/><path class="cls-3" d="M57.11,17.53l1,.13A2.46,2.46,0,0,1,57.24,19a3,3,0,0,1-3.62-.29,3,3,0,0,1-.73-2.16,3.14,3.14,0,0,1,.74-2.24,2.49,2.49,0,0,1,1.92-.79,2.44,2.44,0,0,1,1.87.78,3.11,3.11,0,0,1,.73,2.19s0,.14,0,.26H53.89a2.18,2.18,0,0,0,.53,1.44,1.58,1.58,0,0,0,1.19.49,1.51,1.51,0,0,0,.91-.27A1.84,1.84,0,0,0,57.11,17.53ZM53.94,16h3.19a2,2,0,0,0-.37-1.08,1.5,1.5,0,0,0-1.2-.56,1.53,1.53,0,0,0-1.12.45A1.76,1.76,0,0,0,53.94,16Z"/><path class="cls-3" d="M59.33,19.37v-5.7h.87v.81A2,2,0,0,1,62,13.54a2.44,2.44,0,0,1,1,.18,1.53,1.53,0,0,1,.65.49,2,2,0,0,1,.3.71,5.27,5.27,0,0,1,.05.94v3.51H63V15.9a2.43,2.43,0,0,0-.12-.88.91.91,0,0,0-.4-.47,1.22,1.22,0,0,0-.67-.17,1.59,1.59,0,0,0-1.07.39,1.92,1.92,0,0,0-.45,1.49v3.11Z"/><path class="cls-3" d="M69.15,19.37v-.72a1.79,1.79,0,0,1-1.6.85,2.24,2.24,0,0,1-1.25-.38,2.49,2.49,0,0,1-.89-1.05,3.61,3.61,0,0,1-.31-1.55A4.07,4.07,0,0,1,65.38,15a2.27,2.27,0,0,1,.86-1.06,2.23,2.23,0,0,1,1.27-.37,1.91,1.91,0,0,1,1.57.78V11.5h1v7.87Zm-3.06-2.85a2.47,2.47,0,0,0,.46,1.64,1.38,1.38,0,0,0,2.17,0,2.45,2.45,0,0,0,.44-1.59,2.65,2.65,0,0,0-.45-1.71,1.37,1.37,0,0,0-1.11-.55,1.34,1.34,0,0,0-1.08.52A2.62,2.62,0,0,0,66.09,16.52Z"/><path class="cls-3" d="M75.47,17.53l1,.13A2.48,2.48,0,0,1,75.59,19,3,3,0,0,1,72,18.73a3.05,3.05,0,0,1-.73-2.16A3.18,3.18,0,0,1,72,14.33a2.52,2.52,0,0,1,1.92-.79,2.42,2.42,0,0,1,1.87.78,3.07,3.07,0,0,1,.73,2.19s0,.14,0,.26H72.24a2.24,2.24,0,0,0,.53,1.44A1.59,1.59,0,0,0,74,18.7a1.51,1.51,0,0,0,.91-.27A1.92,1.92,0,0,0,75.47,17.53ZM72.29,16h3.19a1.91,1.91,0,0,0-.37-1.08,1.48,1.48,0,0,0-1.19-.56,1.52,1.52,0,0,0-1.12.45A1.77,1.77,0,0,0,72.29,16Z"/><path class="cls-3" d="M77.67,19.37v-5.7h.87v.86a2.5,2.5,0,0,1,.61-.8,1.09,1.09,0,0,1,.63-.19,1.88,1.88,0,0,1,1,.31l-.33.9a1.41,1.41,0,0,0-.71-.21.89.89,0,0,0-.57.19,1,1,0,0,0-.36.53,3.65,3.65,0,0,0-.16,1.12v3Z"/><path class="cls-3" d="M84.4,12.61V11.5h1v1.11Zm0,6.76v-5.7h1v5.7Z"/><path class="cls-3" d="M86.84,19.37v-5.7h.87v.81a2.05,2.05,0,0,1,1.82-.94,2.47,2.47,0,0,1,1,.18,1.5,1.5,0,0,1,.64.49,1.83,1.83,0,0,1,.31.71,6.47,6.47,0,0,1,0,.94v3.51h-1V15.9A2.73,2.73,0,0,0,90.4,15a1,1,0,0,0-.4-.47,1.24,1.24,0,0,0-.67-.17,1.57,1.57,0,0,0-1.07.39,1.92,1.92,0,0,0-.45,1.49v3.11Z"/><path class="cls-3" d="M95.07,18.51l.14.85a3.37,3.37,0,0,1-.73.09,1.7,1.7,0,0,1-.82-.17.94.94,0,0,1-.4-.44,3.4,3.4,0,0,1-.12-1.14V14.42h-.71v-.75h.71V12.25l1-.58v2h1v.75h-1v3.33a1.89,1.89,0,0,0,.05.54.42.42,0,0,0,.17.18.58.58,0,0,0,.33.07Z"/><path class="cls-3" d="M99.92,17.53l1,.13a2.52,2.52,0,0,1-.87,1.36,2.66,2.66,0,0,1-1.64.48,2.62,2.62,0,0,1-2-.77,3,3,0,0,1-.73-2.16,3.14,3.14,0,0,1,.74-2.24,2.49,2.49,0,0,1,1.92-.79,2.44,2.44,0,0,1,1.87.78,3.11,3.11,0,0,1,.72,2.19v.26H96.7a2.18,2.18,0,0,0,.53,1.44,1.56,1.56,0,0,0,1.19.49,1.53,1.53,0,0,0,.91-.27A1.84,1.84,0,0,0,99.92,17.53ZM96.75,16h3.18a1.92,1.92,0,0,0-.36-1.08,1.5,1.5,0,0,0-1.2-.56,1.53,1.53,0,0,0-1.12.45A1.76,1.76,0,0,0,96.75,16Z"/><path class="cls-3" d="M102,19.84l.94.14a.93.93,0,0,0,.33.64,1.58,1.58,0,0,0,1,.27,1.69,1.69,0,0,0,1-.27,1.32,1.32,0,0,0,.5-.76,6.42,6.42,0,0,0,.07-1.24,2,2,0,0,1-1.58.75,2.15,2.15,0,0,1-1.82-.85,3.24,3.24,0,0,1-.65-2,3.73,3.73,0,0,1,.3-1.51,2.36,2.36,0,0,1,.86-1.07,2.3,2.3,0,0,1,1.32-.37,2,2,0,0,1,1.66.81v-.68h.89V18.6a4.64,4.64,0,0,1-.27,1.88,1.93,1.93,0,0,1-.86.88,2.91,2.91,0,0,1-1.45.33,2.78,2.78,0,0,1-1.65-.46A1.57,1.57,0,0,1,102,19.84Zm.8-3.42a2.53,2.53,0,0,0,.44,1.64,1.48,1.48,0,0,0,2.24,0,2.4,2.4,0,0,0,.45-1.61,2.33,2.33,0,0,0-.47-1.58,1.45,1.45,0,0,0-1.12-.53,1.38,1.38,0,0,0-1.09.52A2.34,2.34,0,0,0,102.76,16.42Z"/><path class="cls-3" d="M108.24,19.37v-5.7h.87v.86a2.37,2.37,0,0,1,.62-.8,1,1,0,0,1,.62-.19,1.88,1.88,0,0,1,1,.31l-.33.9a1.41,1.41,0,0,0-.71-.21.91.91,0,0,0-.57.19,1,1,0,0,0-.36.53,3.65,3.65,0,0,0-.16,1.12v3Z"/><path class="cls-3" d="M115.64,18.67a3.49,3.49,0,0,1-1,.64,2.85,2.85,0,0,1-1.06.19,2.07,2.07,0,0,1-1.45-.46,1.63,1.63,0,0,1-.31-1.94,1.48,1.48,0,0,1,.5-.55,2.42,2.42,0,0,1,.69-.32,7.59,7.59,0,0,1,.86-.15,8.68,8.68,0,0,0,1.73-.33V15.5a1.06,1.06,0,0,0-.27-.83,1.61,1.61,0,0,0-1.1-.33,1.71,1.71,0,0,0-1,.24,1.42,1.42,0,0,0-.48.84l-.94-.13a2.26,2.26,0,0,1,.42-1,1.83,1.83,0,0,1,.85-.57,3.74,3.74,0,0,1,1.3-.2,3.57,3.57,0,0,1,1.19.17,1.34,1.34,0,0,1,1,1.09,6,6,0,0,1,0,.89V17a13.38,13.38,0,0,0,.07,1.71,2.21,2.21,0,0,0,.24.68h-1A2.05,2.05,0,0,1,115.64,18.67Zm-.08-2.16a7.34,7.34,0,0,1-1.58.36,3.2,3.2,0,0,0-.84.2.81.81,0,0,0-.39.31.86.86,0,0,0,.16,1.1,1.23,1.23,0,0,0,.86.26,2,2,0,0,0,1-.24,1.48,1.48,0,0,0,.64-.67,2.24,2.24,0,0,0,.16-1Z"/><path class="cls-3" d="M118,19.37V11.5h1v7.87Z"/><path class="cls-3" d="M120.48,19.37v-5.7h.86v.8a2,2,0,0,1,.72-.68,2,2,0,0,1,1-.25,1.93,1.93,0,0,1,1,.26,1.41,1.41,0,0,1,.57.74,2,2,0,0,1,1.76-1,1.71,1.71,0,0,1,1.31.47,2,2,0,0,1,.46,1.45v3.91h-1V15.78a2.78,2.78,0,0,0-.09-.84.84.84,0,0,0-.34-.41,1.11,1.11,0,0,0-.58-.15,1.33,1.33,0,0,0-1,.4,1.77,1.77,0,0,0-.4,1.28v3.31h-1V15.66a1.58,1.58,0,0,0-.24-1,.89.89,0,0,0-.77-.32,1.43,1.43,0,0,0-.76.21,1.18,1.18,0,0,0-.5.63,3.58,3.58,0,0,0-.16,1.19v3Z"/><path class="cls-3" d="M133.55,17.53l1,.13a2.41,2.41,0,0,1-.87,1.36,3,3,0,0,1-3.62-.29,3,3,0,0,1-.73-2.16,3.18,3.18,0,0,1,.74-2.24,2.5,2.5,0,0,1,1.92-.79,2.42,2.42,0,0,1,1.87.78,3.07,3.07,0,0,1,.73,2.19s0,.14,0,.26h-4.25a2.18,2.18,0,0,0,.53,1.44,1.59,1.59,0,0,0,1.19.49,1.51,1.51,0,0,0,.91-.27A1.92,1.92,0,0,0,133.55,17.53ZM130.37,16h3.19a2,2,0,0,0-.37-1.08,1.5,1.5,0,0,0-1.2-.56,1.55,1.55,0,0,0-1.12.45A1.76,1.76,0,0,0,130.37,16Z"/><path class="cls-3" d="M135.76,19.37v-5.7h.87v.81a2,2,0,0,1,1.81-.94,2.44,2.44,0,0,1,.95.18,1.53,1.53,0,0,1,.65.49,2,2,0,0,1,.3.71,5.27,5.27,0,0,1,0,.94v3.51h-1V15.9a2.43,2.43,0,0,0-.12-.88.87.87,0,0,0-.4-.47,1.22,1.22,0,0,0-.67-.17,1.59,1.59,0,0,0-1.07.39,1.92,1.92,0,0,0-.45,1.49v3.11Z"/><path class="cls-3" d="M144,18.51l.14.85a3.53,3.53,0,0,1-.73.09,1.64,1.64,0,0,1-.82-.17,1,1,0,0,1-.41-.44,3.4,3.4,0,0,1-.12-1.14V14.42h-.71v-.75h.71V12.25l1-.58v2h1v.75h-1v3.33a1.49,1.49,0,0,0,.06.54.35.35,0,0,0,.16.18.62.62,0,0,0,.33.07Z"/><path class="cls-3" d="M148.84,17.53l1,.13A2.48,2.48,0,0,1,149,19a3,3,0,0,1-3.62-.29,3,3,0,0,1-.73-2.16,3.18,3.18,0,0,1,.74-2.24,2.52,2.52,0,0,1,1.92-.79,2.42,2.42,0,0,1,1.87.78,3.07,3.07,0,0,1,.73,2.19s0,.14,0,.26h-4.25a2.18,2.18,0,0,0,.53,1.44,1.59,1.59,0,0,0,1.19.49,1.51,1.51,0,0,0,.91-.27A1.92,1.92,0,0,0,148.84,17.53ZM145.66,16h3.19a2,2,0,0,0-.37-1.08,1.48,1.48,0,0,0-1.2-.56,1.55,1.55,0,0,0-1.12.45A1.81,1.81,0,0,0,145.66,16Z"/><path class="cls-3" d="M79,30a3.86,3.86,0,0,1-1,.64,3.07,3.07,0,0,1-1.06.19,2.12,2.12,0,0,1-1.45-.46,1.55,1.55,0,0,1-.5-1.18,1.51,1.51,0,0,1,.19-.76,1.59,1.59,0,0,1,.5-.56,2.28,2.28,0,0,1,.69-.31,7.59,7.59,0,0,1,.86-.15,8.68,8.68,0,0,0,1.73-.33v-.25A1.08,1.08,0,0,0,78.6,26a1.66,1.66,0,0,0-1.1-.32,1.79,1.79,0,0,0-1,.23,1.45,1.45,0,0,0-.48.85l-.94-.13a2.26,2.26,0,0,1,.42-1,1.83,1.83,0,0,1,.85-.57,3.74,3.74,0,0,1,1.3-.2,3.27,3.27,0,0,1,1.18.17,1.6,1.6,0,0,1,.68.43,1.55,1.55,0,0,1,.3.66,6,6,0,0,1,0,.89v1.29a13.07,13.07,0,0,0,.07,1.7,2.18,2.18,0,0,0,.24.69h-1A2.12,2.12,0,0,1,79,30Zm-.08-2.16a7.34,7.34,0,0,1-1.58.36,3.79,3.79,0,0,0-.84.19.89.89,0,0,0-.39.32.86.86,0,0,0,.16,1.1,1.28,1.28,0,0,0,.86.26,2,2,0,0,0,1-.24,1.53,1.53,0,0,0,.64-.67,2.24,2.24,0,0,0,.16-1Z"/><path class="cls-3" d="M81.32,30.68V22.8h1v7.88Z"/><path class="cls-3" d="M90.57,28.59l1,.12a2.48,2.48,0,0,1-.8,1.54,2.33,2.33,0,0,1-1.58.56A2.46,2.46,0,0,1,87.26,30a3.12,3.12,0,0,1-.71-2.19,3.87,3.87,0,0,1,.31-1.62,2.1,2.1,0,0,1,.93-1,2.75,2.75,0,0,1,1.36-.34,2.39,2.39,0,0,1,1.52.46,2.24,2.24,0,0,1,.76,1.34l-.94.15a1.53,1.53,0,0,0-.48-.87,1.24,1.24,0,0,0-.82-.29,1.49,1.49,0,0,0-1.19.52,2.48,2.48,0,0,0-.46,1.66A2.59,2.59,0,0,0,88,29.49a1.44,1.44,0,0,0,1.15.52,1.31,1.31,0,0,0,1-.35A1.71,1.71,0,0,0,90.57,28.59Z"/><path class="cls-3" d="M92.32,30.68V22.8h1v7.88Z"/><path class="cls-3" d="M94.79,23.92V22.8h1v1.12Zm0,6.76V25h1v5.71Z"/><path class="cls-3" d="M101.14,28.84l1,.13a2.35,2.35,0,0,1-.87,1.35,2.59,2.59,0,0,1-1.63.49,2.63,2.63,0,0,1-2-.77,3,3,0,0,1-.73-2.17,3.18,3.18,0,0,1,.74-2.23,2.49,2.49,0,0,1,1.92-.79,2.42,2.42,0,0,1,1.87.77,3.08,3.08,0,0,1,.73,2.2c0,.05,0,.14,0,.25H97.91a2.14,2.14,0,0,0,.53,1.44,1.55,1.55,0,0,0,1.19.5,1.45,1.45,0,0,0,.91-.28A1.84,1.84,0,0,0,101.14,28.84ZM98,27.28h3.19a2,2,0,0,0-.37-1.08,1.5,1.5,0,0,0-1.2-.56,1.55,1.55,0,0,0-1.12.45A1.74,1.74,0,0,0,98,27.28Z"/><path class="cls-3" d="M103.35,30.68V25h.87v.82a2,2,0,0,1,1.81-.94,2.44,2.44,0,0,1,1,.18,1.46,1.46,0,0,1,.65.49,2,2,0,0,1,.3.71,5.21,5.21,0,0,1,0,.94v3.51h-1V27.21a2.49,2.49,0,0,0-.12-.89.85.85,0,0,0-.4-.46,1.22,1.22,0,0,0-.67-.18,1.55,1.55,0,0,0-1.07.4,2,2,0,0,0-.44,1.48v3.12Z"/><path class="cls-3" d="M111.58,29.81l.14.86a3.38,3.38,0,0,1-.73.08,1.68,1.68,0,0,1-.82-.16,1,1,0,0,1-.41-.44,3.4,3.4,0,0,1-.12-1.14V25.73h-.7V25h.7V23.56l1-.58v2h1v.76h-1v3.33a1.47,1.47,0,0,0,0,.53.42.42,0,0,0,.16.19.62.62,0,0,0,.33.07A2.62,2.62,0,0,0,111.58,29.81Z"/><path class="cls-3" d="M116.43,28.84l1,.13a2.42,2.42,0,0,1-.88,1.35,2.59,2.59,0,0,1-1.63.49,2.63,2.63,0,0,1-2-.77,3.08,3.08,0,0,1-.73-2.17,3.18,3.18,0,0,1,.74-2.23,2.52,2.52,0,0,1,1.92-.79,2.42,2.42,0,0,1,1.87.77,3.08,3.08,0,0,1,.73,2.2c0,.05,0,.14,0,.25H113.2a2.19,2.19,0,0,0,.53,1.44,1.56,1.56,0,0,0,1.19.5,1.45,1.45,0,0,0,.91-.28A1.84,1.84,0,0,0,116.43,28.84Zm-3.18-1.56h3.19a1.91,1.91,0,0,0-.37-1.08,1.46,1.46,0,0,0-1.19-.56,1.52,1.52,0,0,0-1.12.45A1.75,1.75,0,0,0,113.25,27.28Z"/><rect class="cls-4" x="30.52" y="6.07" width="0.85" height="32.3" rx="0.42"/><rect class="cls-4" x="161.05" y="6.07" width="0.85" height="32.3" rx="0.42"/><line class="cls-5" x1="167.97" y1="21.46" x2="190.13" y2="21.46"/><polygon class="cls-2" points="186.15 24.85 189.54 21.46 186.15 18.07 189.03 18.07 192.42 21.46 189.03 24.85 186.15 24.85"/><line class="cls-5" x1="24.44" y1="21.46" x2="2.29" y2="21.46"/><polygon class="cls-2" points="6.27 18.07 2.88 21.46 6.27 24.85 3.39 24.85 0 21.46 3.39 18.07 6.27 18.07"/></g></g></svg>