<svg xmlns="http://www.w3.org/2000/svg" viewBox="0 0 145.51 46.79"><defs><style>.cls-1{fill:#9a9fbd;}.cls-2{fill:#cb8517;}.cls-3{fill:#28203a;}.cls-4{fill:#fff;}</style></defs><g id="Capa_2" data-name="Capa 2"><g id="Capa_1-2" data-name="Capa 1"><rect class="cls-1" x="1.99" y="2.34" width="143.53" height="44.45" rx="5.36"/><rect class="cls-2" width="143.53" height="44.45" rx="5.36"/><path class="cls-3" d="M21,16.28v-.92h3.33v2.92a6,6,0,0,1-1.58.93,4.85,4.85,0,0,1-1.68.31,4.46,4.46,0,0,1-2.1-.5,3.29,3.29,0,0,1-1.44-1.44,4.57,4.57,0,0,1-.48-2.1,4.83,4.83,0,0,1,.48-2.14,3.16,3.16,0,0,1,1.38-1.48A4.29,4.29,0,0,1,21,11.36a4,4,0,0,1,1.55.28,2.5,2.5,0,0,1,1.08.77,3.51,3.51,0,0,1,.6,1.29l-.94.26a3.12,3.12,0,0,0-.44-1,1.85,1.85,0,0,0-.76-.55A2.67,2.67,0,0,0,21,12.25a3.31,3.31,0,0,0-1.24.22,2.59,2.59,0,0,0-.84.57,2.69,2.69,0,0,0-.49.78,4,4,0,0,0-.31,1.59,3.85,3.85,0,0,0,.37,1.76,2.32,2.32,0,0,0,1.05,1,3.27,3.27,0,0,0,1.47.34,3.39,3.39,0,0,0,1.33-.26,3.18,3.18,0,0,0,1-.55V16.28Z"/><path class="cls-3" d="M29.61,17.53l1,.13A2.48,2.48,0,0,1,29.73,19a3,3,0,0,1-3.61-.29,3,3,0,0,1-.74-2.16,3.14,3.14,0,0,1,.75-2.24,2.49,2.49,0,0,1,1.92-.79,2.45,2.45,0,0,1,1.87.78,3.11,3.11,0,0,1,.72,2.19v.26H26.38a2.24,2.24,0,0,0,.53,1.43,1.57,1.57,0,0,0,1.2.5,1.5,1.5,0,0,0,.9-.27A1.85,1.85,0,0,0,29.61,17.53ZM26.44,16h3.18a1.92,1.92,0,0,0-.36-1.08,1.5,1.5,0,0,0-1.2-.56,1.53,1.53,0,0,0-1.12.45A1.76,1.76,0,0,0,26.44,16Z"/><path class="cls-3" d="M31.44,17.67l.95-.15a1.41,1.41,0,0,0,.45.88,1.6,1.6,0,0,0,1,.3,1.54,1.54,0,0,0,1-.27.82.82,0,0,0,.32-.63.59.59,0,0,0-.28-.52,4.64,4.64,0,0,0-1-.33,9.61,9.61,0,0,1-1.48-.46,1.43,1.43,0,0,1-.62-.54,1.46,1.46,0,0,1-.21-.77,1.51,1.51,0,0,1,.17-.7,1.56,1.56,0,0,1,.48-.54,1.83,1.83,0,0,1,.61-.29,3.22,3.22,0,0,1,.84-.11,3.28,3.28,0,0,1,1.18.19,1.6,1.6,0,0,1,.75.52,2.12,2.12,0,0,1,.33.89l-1,.13a1,1,0,0,0-.37-.69,1.33,1.33,0,0,0-.87-.25,1.62,1.62,0,0,0-1,.22.65.65,0,0,0-.29.52.54.54,0,0,0,.12.34.81.81,0,0,0,.37.25c.1,0,.38.12.86.25a10.92,10.92,0,0,1,1.43.45,1.46,1.46,0,0,1,.63.51,1.37,1.37,0,0,1,.23.82,1.58,1.58,0,0,1-.28.91,1.86,1.86,0,0,1-.81.67,3.09,3.09,0,0,1-1.2.23,2.67,2.67,0,0,1-1.7-.46A2.12,2.12,0,0,1,31.44,17.67Z"/><path class="cls-3" d="M39.43,18.51l.14.85a3.37,3.37,0,0,1-.73.09,1.63,1.63,0,0,1-.81-.17.91.91,0,0,1-.41-.44,3.4,3.4,0,0,1-.12-1.14V14.42h-.71v-.75h.71V12.25l1-.58v2h1v.75h-1v3.33a1.89,1.89,0,0,0,0,.54.42.42,0,0,0,.17.18.62.62,0,0,0,.33.07Z"/><path class="cls-3" d="M40.39,12.61V11.5h1v1.11Zm0,6.76v-5.7h1v5.7Z"/><path class="cls-3" d="M42.46,16.52a3,3,0,0,1,.88-2.35,2.69,2.69,0,0,1,1.8-.63,2.54,2.54,0,0,1,1.92.77,2.91,2.91,0,0,1,.75,2.13,3.78,3.78,0,0,1-.33,1.73,2.33,2.33,0,0,1-1,1,2.83,2.83,0,0,1-1.38.35,2.59,2.59,0,0,1-1.94-.77A3.07,3.07,0,0,1,42.46,16.52Zm1,0a2.41,2.41,0,0,0,.48,1.64,1.6,1.6,0,0,0,2.4,0,2.5,2.5,0,0,0,.47-1.67,2.38,2.38,0,0,0-.48-1.61,1.59,1.59,0,0,0-2.39,0A2.41,2.41,0,0,0,43.46,16.52Z"/><path class="cls-3" d="M48.94,19.37v-5.7h.87v.81a2.05,2.05,0,0,1,1.82-.94,2.39,2.39,0,0,1,.94.18,1.53,1.53,0,0,1,.65.49,1.68,1.68,0,0,1,.3.71,5,5,0,0,1,.06.94v3.51h-1V15.9A2.73,2.73,0,0,0,52.5,15a1,1,0,0,0-.4-.47,1.25,1.25,0,0,0-.68-.17,1.56,1.56,0,0,0-1.06.39,1.92,1.92,0,0,0-.45,1.49v3.11Z"/><path class="cls-3" d="M58.78,18.67a3.58,3.58,0,0,1-1,.64,2.9,2.9,0,0,1-1.07.19A2,2,0,0,1,55.24,19a1.52,1.52,0,0,1-.51-1.17,1.57,1.57,0,0,1,.69-1.32,2.35,2.35,0,0,1,.7-.32,7.19,7.19,0,0,1,.86-.15,8.55,8.55,0,0,0,1.72-.33c0-.13,0-.22,0-.25a1,1,0,0,0-.28-.83,1.59,1.59,0,0,0-1.1-.33,1.73,1.73,0,0,0-1,.24,1.53,1.53,0,0,0-.48.84l-.94-.13a2.39,2.39,0,0,1,.42-1,1.81,1.81,0,0,1,.86-.57,3.64,3.64,0,0,1,1.29-.2,3.57,3.57,0,0,1,1.19.17,1.55,1.55,0,0,1,.67.43,1.61,1.61,0,0,1,.3.66,5.58,5.58,0,0,1,0,.89V17a14.19,14.19,0,0,0,.06,1.71,2.21,2.21,0,0,0,.24.68H59A2.05,2.05,0,0,1,58.78,18.67Zm-.08-2.16a7.34,7.34,0,0,1-1.58.36,3.2,3.2,0,0,0-.84.2.78.78,0,0,0-.38.31.83.83,0,0,0-.14.46.8.8,0,0,0,.3.64,1.2,1.2,0,0,0,.85.26,2.05,2.05,0,0,0,1-.24,1.59,1.59,0,0,0,.64-.67,2.43,2.43,0,0,0,.15-1Z"/><path class="cls-3" d="M61.17,19.37v-5.7H62v.86a2.37,2.37,0,0,1,.61-.8,1.08,1.08,0,0,1,.62-.19,1.88,1.88,0,0,1,1,.31l-.34.9a1.36,1.36,0,0,0-.71-.21.91.91,0,0,0-.57.19,1.09,1.09,0,0,0-.36.53,4,4,0,0,0-.16,1.12v3Z"/><path class="cls-3" d="M67.87,19.37V11.5h1v7.87Z"/><path class="cls-3" d="M74.06,18.67a3.58,3.58,0,0,1-1,.64A2.9,2.9,0,0,1,72,19.5,2,2,0,0,1,70.52,19,1.52,1.52,0,0,1,70,17.87a1.57,1.57,0,0,1,.69-1.32,2.35,2.35,0,0,1,.7-.32,7.19,7.19,0,0,1,.86-.15A8.55,8.55,0,0,0,74,15.75c0-.13,0-.22,0-.25a1,1,0,0,0-.28-.83,1.59,1.59,0,0,0-1.1-.33,1.67,1.67,0,0,0-1,.24,1.48,1.48,0,0,0-.49.84l-.94-.13a2.39,2.39,0,0,1,.42-1,1.81,1.81,0,0,1,.86-.57,3.64,3.64,0,0,1,1.29-.2,3.57,3.57,0,0,1,1.19.17,1.55,1.55,0,0,1,.67.43,1.61,1.61,0,0,1,.3.66,5.58,5.58,0,0,1,0,.89V17A14.19,14.19,0,0,0,75,18.69a2,2,0,0,0,.25.68h-1A2.05,2.05,0,0,1,74.06,18.67ZM74,16.51a7.34,7.34,0,0,1-1.58.36,3.31,3.31,0,0,0-.84.2.78.78,0,0,0-.38.31.83.83,0,0,0-.14.46.8.8,0,0,0,.3.64,1.2,1.2,0,0,0,.85.26,2,2,0,0,0,1-.24,1.59,1.59,0,0,0,.64-.67,2.43,2.43,0,0,0,.15-1Z"/><path class="cls-3" d="M79.13,17.67l1-.15a1.41,1.41,0,0,0,.45.88,1.6,1.6,0,0,0,1,.3,1.54,1.54,0,0,0,1-.27.82.82,0,0,0,.32-.63.59.59,0,0,0-.28-.52,4.64,4.64,0,0,0-1-.33,9.61,9.61,0,0,1-1.48-.46A1.43,1.43,0,0,1,79.5,16a1.46,1.46,0,0,1-.21-.77,1.51,1.51,0,0,1,.17-.7,1.56,1.56,0,0,1,.48-.54,1.83,1.83,0,0,1,.61-.29,3.22,3.22,0,0,1,.84-.11,3.28,3.28,0,0,1,1.18.19,1.6,1.6,0,0,1,.75.52,2.12,2.12,0,0,1,.33.89l-1,.13a1,1,0,0,0-.37-.69,1.33,1.33,0,0,0-.87-.25,1.62,1.62,0,0,0-.95.22.65.65,0,0,0-.29.52.54.54,0,0,0,.12.34.81.81,0,0,0,.37.25c.1,0,.38.12.86.25a10.92,10.92,0,0,1,1.43.45,1.46,1.46,0,0,1,.63.51,1.37,1.37,0,0,1,.23.82,1.58,1.58,0,0,1-.28.91,1.86,1.86,0,0,1-.81.67,3.09,3.09,0,0,1-1.2.23,2.67,2.67,0,0,1-1.7-.46A2.12,2.12,0,0,1,79.13,17.67Z"/><path class="cls-3" d="M88.92,17.53l1,.13A2.48,2.48,0,0,1,89,19a3,3,0,0,1-3.62-.29,3.05,3.05,0,0,1-.73-2.16,3.18,3.18,0,0,1,.74-2.24,2.53,2.53,0,0,1,1.93-.79,2.42,2.42,0,0,1,1.86.78A3.07,3.07,0,0,1,90,16.51s0,.14,0,.26H85.69a2.19,2.19,0,0,0,.53,1.43,1.56,1.56,0,0,0,1.19.5,1.51,1.51,0,0,0,.91-.27A1.92,1.92,0,0,0,88.92,17.53ZM85.74,16h3.19a1.91,1.91,0,0,0-.37-1.08,1.46,1.46,0,0,0-1.19-.56,1.52,1.52,0,0,0-1.12.45A1.77,1.77,0,0,0,85.74,16Z"/><path class="cls-3" d="M91,19.84l.94.14a.93.93,0,0,0,.33.64,1.61,1.61,0,0,0,1,.27,1.72,1.72,0,0,0,1-.27,1.32,1.32,0,0,0,.5-.76,6.42,6.42,0,0,0,.07-1.24,2,2,0,0,1-1.58.75,2.13,2.13,0,0,1-1.82-.85,3.24,3.24,0,0,1-.65-2,3.73,3.73,0,0,1,.3-1.51,2.22,2.22,0,0,1,2.17-1.44,2.05,2.05,0,0,1,1.67.81v-.68h.89V18.6a4.68,4.68,0,0,1-.27,1.88,1.93,1.93,0,0,1-.86.88,2.93,2.93,0,0,1-1.45.33,2.78,2.78,0,0,1-1.65-.46A1.58,1.58,0,0,1,91,19.84Zm.8-3.42a2.44,2.44,0,0,0,.45,1.63,1.41,1.41,0,0,0,1.12.52,1.42,1.42,0,0,0,1.11-.51,2.35,2.35,0,0,0,.46-1.61,2.33,2.33,0,0,0-.47-1.58,1.45,1.45,0,0,0-1.12-.53,1.38,1.38,0,0,0-1.09.52A2.34,2.34,0,0,0,91.75,16.42Z"/><path class="cls-3" d="M101,19.37v-.84a2.09,2.09,0,0,1-1.81,1,2.26,2.26,0,0,1-.94-.19,1.57,1.57,0,0,1-.66-.49,1.73,1.73,0,0,1-.29-.72,4.82,4.82,0,0,1-.06-.9V13.67h1v3.16a5.47,5.47,0,0,0,.06,1,1,1,0,0,0,.39.6,1.24,1.24,0,0,0,.73.22,1.61,1.61,0,0,0,.82-.23,1.26,1.26,0,0,0,.54-.6,3.2,3.2,0,0,0,.16-1.12v-3h1v5.7Z"/><path class="cls-3" d="M103.36,19.37v-5.7h.87v.86a2.37,2.37,0,0,1,.61-.8,1.08,1.08,0,0,1,.62-.19,1.88,1.88,0,0,1,1,.31l-.34.9a1.36,1.36,0,0,0-.71-.21.91.91,0,0,0-.57.19,1.09,1.09,0,0,0-.36.53,4,4,0,0,0-.16,1.12v3Z"/><path class="cls-3" d="M107,12.61V11.5h1v1.11Zm0,6.76v-5.7h1v5.7Z"/><path class="cls-3" d="M113.17,19.37v-.72a1.76,1.76,0,0,1-1.59.85,2.27,2.27,0,0,1-1.26-.38,2.46,2.46,0,0,1-.88-1.05,3.61,3.61,0,0,1-.32-1.55,4.08,4.08,0,0,1,.29-1.55,2.25,2.25,0,0,1,.85-1.06,2.28,2.28,0,0,1,1.28-.37,1.8,1.8,0,0,1,.91.22,1.9,1.9,0,0,1,.66.56V11.5h1v7.87Zm-3-2.85a2.47,2.47,0,0,0,.46,1.64,1.38,1.38,0,0,0,2.17,0,2.45,2.45,0,0,0,.44-1.59,2.65,2.65,0,0,0-.45-1.71,1.37,1.37,0,0,0-1.11-.55,1.34,1.34,0,0,0-1.08.52A2.62,2.62,0,0,0,110.12,16.52Z"/><path class="cls-3" d="M119.31,18.67a3.45,3.45,0,0,1-1,.64,2.9,2.9,0,0,1-1.07.19,2.06,2.06,0,0,1-1.44-.46,1.52,1.52,0,0,1-.51-1.17,1.57,1.57,0,0,1,.69-1.32,2.35,2.35,0,0,1,.7-.32,7.59,7.59,0,0,1,.86-.15,8.55,8.55,0,0,0,1.72-.33c0-.13,0-.22,0-.25a1,1,0,0,0-.28-.83,1.59,1.59,0,0,0-1.1-.33,1.67,1.67,0,0,0-1,.24,1.42,1.42,0,0,0-.48.84l-.95-.13a2.53,2.53,0,0,1,.42-1,1.86,1.86,0,0,1,.86-.57,3.64,3.64,0,0,1,1.29-.2,3.53,3.53,0,0,1,1.19.17,1.55,1.55,0,0,1,.67.43,1.49,1.49,0,0,1,.3.66,5.58,5.58,0,0,1,0,.89V17a14.19,14.19,0,0,0,.06,1.71,2.24,2.24,0,0,0,.25.68h-1A2.05,2.05,0,0,1,119.31,18.67Zm-.08-2.16a7.2,7.2,0,0,1-1.58.36,3.43,3.43,0,0,0-.84.2.83.83,0,0,0-.38.31.82.82,0,0,0-.13.46.79.79,0,0,0,.29.64,1.2,1.2,0,0,0,.85.26,2,2,0,0,0,1-.24,1.59,1.59,0,0,0,.64-.67,2.43,2.43,0,0,0,.15-1Z"/><path class="cls-3" d="M125.41,19.37v-.72a1.76,1.76,0,0,1-1.6.85,2.24,2.24,0,0,1-1.25-.38,2.49,2.49,0,0,1-.89-1.05,3.61,3.61,0,0,1-.31-1.55,4.07,4.07,0,0,1,.28-1.55,2.25,2.25,0,0,1,2.13-1.43,1.84,1.84,0,0,1,.92.22,1.9,1.9,0,0,1,.66.56V11.5h1v7.87Zm-3.06-2.85a2.47,2.47,0,0,0,.47,1.64,1.38,1.38,0,0,0,1.09.54,1.36,1.36,0,0,0,1.07-.51,2.39,2.39,0,0,0,.45-1.59,2.59,2.59,0,0,0-.46-1.71,1.37,1.37,0,0,0-1.11-.55,1.31,1.31,0,0,0-1.07.52A2.61,2.61,0,0,0,122.35,16.52Z"/><path class="cls-3" d="M43.69,27.83a3,3,0,0,1,.88-2.35,2.67,2.67,0,0,1,1.8-.63,2.54,2.54,0,0,1,1.92.77A2.91,2.91,0,0,1,49,27.75a3.78,3.78,0,0,1-.33,1.73,2.35,2.35,0,0,1-1,1,2.82,2.82,0,0,1-1.37.35A2.58,2.58,0,0,1,44.43,30,3.07,3.07,0,0,1,43.69,27.83Zm1,0a2.43,2.43,0,0,0,.47,1.64,1.54,1.54,0,0,0,1.21.54,1.48,1.48,0,0,0,1.19-.55A2.47,2.47,0,0,0,48,27.79a2.35,2.35,0,0,0-.48-1.6,1.58,1.58,0,0,0-2.4,0A2.41,2.41,0,0,0,44.69,27.83Z"/><path class="cls-3" d="M50.17,32.86V25h.88v.75a2.29,2.29,0,0,1,.7-.66,2,2,0,0,1,1-.21,2.25,2.25,0,0,1,1.29.37,2.3,2.3,0,0,1,.85,1.06,3.89,3.89,0,0,1,.28,1.5,3.81,3.81,0,0,1-.31,1.58,2.31,2.31,0,0,1-.92,1.07,2.35,2.35,0,0,1-1.26.38,1.74,1.74,0,0,1-.86-.21,1.77,1.77,0,0,1-.63-.51v2.77Zm.87-5a2.48,2.48,0,0,0,.45,1.63,1.37,1.37,0,0,0,1.08.52,1.39,1.39,0,0,0,1.1-.54,2.58,2.58,0,0,0,.46-1.69,2.55,2.55,0,0,0-.45-1.64,1.33,1.33,0,0,0-1.07-.54,1.41,1.41,0,0,0-1.09.58A2.55,2.55,0,0,0,51,27.86Z"/><path class="cls-3" d="M60.19,28.84l1,.13a2.46,2.46,0,0,1-.87,1.35A3,3,0,0,1,56.7,30,3,3,0,0,1,56,27.87a3.12,3.12,0,0,1,.75-2.23,2.49,2.49,0,0,1,1.92-.79,2.44,2.44,0,0,1,1.87.77,3.11,3.11,0,0,1,.72,2.19v.26H57a2.2,2.2,0,0,0,.54,1.44,1.54,1.54,0,0,0,1.19.5,1.49,1.49,0,0,0,.91-.28A1.83,1.83,0,0,0,60.19,28.84ZM57,27.28H60.2a1.92,1.92,0,0,0-.36-1.08,1.5,1.5,0,0,0-1.2-.56,1.53,1.53,0,0,0-1.12.45A1.74,1.74,0,0,0,57,27.28Z"/><path class="cls-3" d="M62.39,30.68V25h.87v.87a2.39,2.39,0,0,1,.62-.8,1.06,1.06,0,0,1,.62-.19,1.85,1.85,0,0,1,1,.31l-.33.89a1.38,1.38,0,0,0-.71-.21,1,1,0,0,0-.57.19,1.05,1.05,0,0,0-.36.53,3.72,3.72,0,0,0-.16,1.13v3Z"/><path class="cls-3" d="M69.79,30a3.82,3.82,0,0,1-1,.64,3.17,3.17,0,0,1-1.07.19,2.12,2.12,0,0,1-1.45-.46,1.55,1.55,0,0,1-.5-1.18,1.51,1.51,0,0,1,.19-.76,1.59,1.59,0,0,1,.5-.56,2.33,2.33,0,0,1,.7-.31,7.19,7.19,0,0,1,.86-.15,8.55,8.55,0,0,0,1.72-.33v-.25a1.08,1.08,0,0,0-.27-.84,1.61,1.61,0,0,0-1.1-.33,1.81,1.81,0,0,0-1,.24,1.57,1.57,0,0,0-.48.85l-.94-.13a2.26,2.26,0,0,1,.42-1,1.83,1.83,0,0,1,.85-.57,3.74,3.74,0,0,1,1.3-.2,3.33,3.33,0,0,1,1.19.17,1.62,1.62,0,0,1,.67.43,1.55,1.55,0,0,1,.3.66,5.58,5.58,0,0,1,0,.89v1.29a13.86,13.86,0,0,0,.06,1.7,2.18,2.18,0,0,0,.24.69H70A2.12,2.12,0,0,1,69.79,30Zm-.08-2.17a6.7,6.7,0,0,1-1.58.37,3.79,3.79,0,0,0-.84.19.81.81,0,0,0-.38.32.84.84,0,0,0,.15,1.1,1.28,1.28,0,0,0,.86.26,2,2,0,0,0,1-.24,1.53,1.53,0,0,0,.64-.67,2.24,2.24,0,0,0,.16-1Z"/><path class="cls-3" d="M75.91,28.59l1,.12a2.48,2.48,0,0,1-.8,1.54,2.33,2.33,0,0,1-1.58.56A2.46,2.46,0,0,1,72.6,30a3.12,3.12,0,0,1-.71-2.19,3.87,3.87,0,0,1,.31-1.62,2.1,2.1,0,0,1,.93-1,2.77,2.77,0,0,1,1.36-.34,2.37,2.37,0,0,1,1.52.46,2.19,2.19,0,0,1,.76,1.34l-.94.15a1.53,1.53,0,0,0-.48-.87,1.24,1.24,0,0,0-.82-.29,1.49,1.49,0,0,0-1.19.52,2.51,2.51,0,0,0-.46,1.66,2.59,2.59,0,0,0,.44,1.67,1.44,1.44,0,0,0,1.15.52,1.31,1.31,0,0,0,1-.35A1.71,1.71,0,0,0,75.91,28.59Z"/><path class="cls-3" d="M77.69,23.92V22.8h1v1.12Zm0,6.76V25h1v5.71Z"/><path class="cls-3" d="M79.77,27.83a2.93,2.93,0,0,1,.88-2.35,2.66,2.66,0,0,1,1.79-.63,2.55,2.55,0,0,1,1.93.77,3,3,0,0,1,.74,2.13,3.78,3.78,0,0,1-.33,1.73,2.33,2.33,0,0,1-1,1,2.83,2.83,0,0,1-1.38.35A2.57,2.57,0,0,1,80.51,30,3.07,3.07,0,0,1,79.77,27.83Zm1,0a2.43,2.43,0,0,0,.48,1.64,1.54,1.54,0,0,0,1.2.54,1.52,1.52,0,0,0,1.2-.55,2.47,2.47,0,0,0,.48-1.67,2.35,2.35,0,0,0-.48-1.6,1.58,1.58,0,0,0-2.4,0A2.41,2.41,0,0,0,80.76,27.83Z"/><path class="cls-3" d="M86.25,30.68V25h.87v.82a2,2,0,0,1,1.81-.94,2.44,2.44,0,0,1,.95.18,1.51,1.51,0,0,1,.65.49,2,2,0,0,1,.3.71,6.37,6.37,0,0,1,0,.94v3.51h-1V27.21a2.49,2.49,0,0,0-.12-.89.89.89,0,0,0-.4-.46,1.22,1.22,0,0,0-.67-.18,1.59,1.59,0,0,0-1.07.39,2,2,0,0,0-.45,1.49v3.12Z"/><path class="cls-3" d="M96.09,30a3.86,3.86,0,0,1-1,.64,3.07,3.07,0,0,1-1.06.19,2.12,2.12,0,0,1-1.45-.46,1.55,1.55,0,0,1-.5-1.18,1.6,1.6,0,0,1,.69-1.32,2.17,2.17,0,0,1,.69-.31,7.59,7.59,0,0,1,.86-.15A8.68,8.68,0,0,0,96,27.06v-.25a1.08,1.08,0,0,0-.27-.84,1.62,1.62,0,0,0-1.1-.33,1.79,1.79,0,0,0-1,.24,1.45,1.45,0,0,0-.48.85l-1-.13a2.39,2.39,0,0,1,.43-1,1.78,1.78,0,0,1,.85-.57,3.7,3.7,0,0,1,1.3-.2A3.27,3.27,0,0,1,96,25a1.5,1.5,0,0,1,.67.43,1.45,1.45,0,0,1,.31.66A6,6,0,0,1,97,27v1.29a11.39,11.39,0,0,0,.07,1.7,2.18,2.18,0,0,0,.24.69h-1A2.12,2.12,0,0,1,96.09,30ZM96,27.81a6.7,6.7,0,0,1-1.58.37,4.08,4.08,0,0,0-.85.19.92.92,0,0,0-.38.32.82.82,0,0,0-.13.46.84.84,0,0,0,.29.64,1.28,1.28,0,0,0,.86.26,2,2,0,0,0,1-.24,1.59,1.59,0,0,0,.64-.67,2.4,2.4,0,0,0,.16-1Z"/><path class="cls-3" d="M98.46,30.68V22.8h1v7.88Z"/><rect class="cls-4" x="136.61" y="6.07" width="0.85" height="32.3" rx="0.42"/><rect class="cls-4" x="7.43" y="6.07" width="0.85" height="32.3" rx="0.42"/></g></g></svg>