<svg xmlns="http://www.w3.org/2000/svg" viewBox="0 0 598.88 103.69"><defs><style>.cls-1{fill:#e0e9a5;}.cls-2{fill:#28203a;}.cls-3{fill:#33a0dc;}.cls-4,.cls-5,.cls-6,.cls-7{fill:none;stroke-miterlimit:10;}.cls-4,.cls-5,.cls-6{stroke:#9d9d9c;stroke-linecap:round;}.cls-5{stroke-dasharray:0 3.99;}.cls-6{stroke-dasharray:0 3.98;}.cls-7{stroke:#b2c91f;stroke-width:2px;}.cls-8{fill:#b2c91f;}</style></defs><g id="Capa_2" data-name="Capa 2"><g id="Capa_1-2" data-name="Capa 1"><rect class="cls-1" x="0.5" y="12.33" width="37.3" height="91.35"/><path class="cls-2" d="M14.32,78.64l.27-1a3.5,3.5,0,0,1,1.95,1.18,3.25,3.25,0,0,1,.68,2.08,3.78,3.78,0,0,1-.52,2.07,3.24,3.24,0,0,1-1.5,1.21,5.33,5.33,0,0,1-2.11.42,4.7,4.7,0,0,1-2.15-.47,3.21,3.21,0,0,1-1.39-1.34,3.86,3.86,0,0,1-.47-1.91,3.21,3.21,0,0,1,.6-2,3.09,3.09,0,0,1,1.69-1.13l.24,1a2.46,2.46,0,0,0-1.25.79A2.14,2.14,0,0,0,10,80.86a2.53,2.53,0,0,0,.43,1.52,2.31,2.31,0,0,0,1.17.86,4.83,4.83,0,0,0,1.51.25,4.73,4.73,0,0,0,1.76-.3A2.17,2.17,0,0,0,16,82.28,2.62,2.62,0,0,0,16.33,81a2.25,2.25,0,0,0-.51-1.49A2.58,2.58,0,0,0,14.32,78.64Z"/><path class="cls-2" d="M17.08,76.46H9.21v-1h7.87Z"/><path class="cls-2" d="M10.32,74H9.21V73h1.11Zm6.76,0h-5.7V73h5.7Z"/><path class="cls-2" d="M15.25,67.65l.12-1a2.43,2.43,0,0,1,1.36.87,2.66,2.66,0,0,1,.48,1.64,2.58,2.58,0,0,1-.77,2,3,3,0,0,1-2.16.73,3.11,3.11,0,0,1-2.23-.74,2.5,2.5,0,0,1-.8-1.92A2.44,2.44,0,0,1,12,67.34a3.11,3.11,0,0,1,2.19-.72h.26v4.25a2.18,2.18,0,0,0,1.44-.53,1.58,1.58,0,0,0,.5-1.19,1.54,1.54,0,0,0-.28-.91A1.86,1.86,0,0,0,15.25,67.65Zm-1.57,3.17V67.64A1.92,1.92,0,0,0,12.6,68a1.49,1.49,0,0,0-.55,1.2,1.52,1.52,0,0,0,.44,1.12A1.78,1.78,0,0,0,13.68,70.82Z"/><path class="cls-2" d="M17.08,65.43h-5.7v-.87h.81a2,2,0,0,1-.94-1.81,2.27,2.27,0,0,1,.19-1,1.5,1.5,0,0,1,.48-.65,2,2,0,0,1,.72-.3,6.37,6.37,0,0,1,.94-.05h3.5v1H13.61a2.47,2.47,0,0,0-.88.12,1,1,0,0,0-.47.4,1.31,1.31,0,0,0-.17.67A1.59,1.59,0,0,0,12.48,64a1.93,1.93,0,0,0,1.49.45h3.11Z"/><path class="cls-2" d="M16.22,57.21l.85-.14a3.37,3.37,0,0,1,.09.73,1.63,1.63,0,0,1-.17.81.87.87,0,0,1-.44.41,3.4,3.4,0,0,1-1.14.12H12.13v.71h-.75v-.71H10l-.58-1h2v-1h.75v1h3.34a1.85,1.85,0,0,0,.53,0,.44.44,0,0,0,.19-.17.74.74,0,0,0,.07-.33A4.12,4.12,0,0,0,16.22,57.21Z"/><path class="cls-2" d="M15.25,52.35l.12-1a2.38,2.38,0,0,1,1.36.87,2.65,2.65,0,0,1,.48,1.63,2.59,2.59,0,0,1-.77,2,3,3,0,0,1-2.16.73,3.16,3.16,0,0,1-2.23-.74,2.5,2.5,0,0,1-.8-1.92A2.44,2.44,0,0,1,12,52.05a3.11,3.11,0,0,1,2.19-.73h.26v4.25a2.18,2.18,0,0,0,1.44-.53,1.6,1.6,0,0,0,.5-1.19,1.51,1.51,0,0,0-.28-.91A1.94,1.94,0,0,0,15.25,52.35Zm-1.57,3.18V52.34a2,2,0,0,0-1.08.37,1.49,1.49,0,0,0-.55,1.2A1.54,1.54,0,0,0,12.49,55,1.78,1.78,0,0,0,13.68,55.53Z"/><path class="cls-2" d="M15.38,50.53l-.15-1a1.3,1.3,0,0,0,.88-.45,1.89,1.89,0,0,0,0-2,.8.8,0,0,0-.64-.32.59.59,0,0,0-.52.28,4.41,4.41,0,0,0-.32,1,8.8,8.8,0,0,1-.47,1.47,1.39,1.39,0,0,1-1.31.84,1.4,1.4,0,0,1-.7-.18,1.44,1.44,0,0,1-.54-.47,1.89,1.89,0,0,1-.28-.62,2.82,2.82,0,0,1-.12-.83,3.28,3.28,0,0,1,.19-1.18,1.61,1.61,0,0,1,.53-.75,2,2,0,0,1,.88-.33L13,47a1,1,0,0,0-.69.38,1.37,1.37,0,0,0-.24.87,1.56,1.56,0,0,0,.22.95.61.61,0,0,0,.51.28.52.52,0,0,0,.34-.12.84.84,0,0,0,.26-.37c0-.09.12-.38.24-.85.19-.68.34-1.16.45-1.43a1.55,1.55,0,0,1,.51-.64,1.45,1.45,0,0,1,.83-.23,1.7,1.7,0,0,1,.91.28,1.88,1.88,0,0,1,.66.82,3,3,0,0,1,.23,1.2,2.69,2.69,0,0,1-.46,1.7A2.19,2.19,0,0,1,15.38,50.53Z"/><path class="cls-2" d="M19.28,41.63l-.91.11a2.15,2.15,0,0,0,.09-.56,1.07,1.07,0,0,0-.11-.51.84.84,0,0,0-.3-.32,5.54,5.54,0,0,0-.72-.3L17.09,40l-5.71,2.16v-1l3.3-1.19c.42-.15.86-.29,1.32-.41a12.17,12.17,0,0,1-1.3-.4l-3.32-1.22v-1l5.8,2.17a10,10,0,0,1,1.29.54,2,2,0,0,1,.71.59,1.47,1.47,0,0,1,.22.8A1.93,1.93,0,0,1,19.28,41.63Z"/><path class="cls-2" d="M27.58,81.63h-5.7v-.86h.8a2,2,0,0,1-.67-.72,2,2,0,0,1-.26-1A1.93,1.93,0,0,1,22,78a1.41,1.41,0,0,1,.74-.57,2,2,0,0,1-1-1.76,1.75,1.75,0,0,1,.47-1.31,2,2,0,0,1,1.45-.46h3.91v1H24a2.82,2.82,0,0,0-.84.09.84.84,0,0,0-.41.34,1.09,1.09,0,0,0-.15.58,1.35,1.35,0,0,0,.4,1,1.78,1.78,0,0,0,1.28.4h3.31v1h-3.7a1.63,1.63,0,0,0-1,.24.91.91,0,0,0-.32.77,1.43,1.43,0,0,0,.21.76,1.26,1.26,0,0,0,.63.5,3.62,3.62,0,0,0,1.19.16h3Z"/><path class="cls-2" d="M25.75,68.56l.12-1a2.38,2.38,0,0,1,1.36.87,2.65,2.65,0,0,1,.48,1.63,2.59,2.59,0,0,1-.77,2,3,3,0,0,1-2.16.73,3.16,3.16,0,0,1-2.23-.74,2.5,2.5,0,0,1-.8-1.92,2.44,2.44,0,0,1,.78-1.87,3.11,3.11,0,0,1,2.19-.73H25v4.25a2.18,2.18,0,0,0,1.44-.53,1.6,1.6,0,0,0,.5-1.19,1.51,1.51,0,0,0-.28-.91A1.94,1.94,0,0,0,25.75,68.56Zm-1.57,3.18V68.55a2,2,0,0,0-1.08.37,1.49,1.49,0,0,0-.55,1.2A1.54,1.54,0,0,0,23,71.24,1.78,1.78,0,0,0,24.18,71.74Z"/><path class="cls-2" d="M27.58,66.36h-5.7v-.87h.86a2.37,2.37,0,0,1-.8-.61,1.08,1.08,0,0,1-.19-.62,1.88,1.88,0,0,1,.31-1l.9.34a1.36,1.36,0,0,0-.21.71.91.91,0,0,0,.19.57,1.06,1.06,0,0,0,.53.35,3.67,3.67,0,0,0,1.13.17h3Z"/><path class="cls-2" d="M25.49,59l.13-.95a2.49,2.49,0,0,1,1.54.79,2.34,2.34,0,0,1,.55,1.58A2.43,2.43,0,0,1,27,62.27a3.08,3.08,0,0,1-2.2.71,4,4,0,0,1-1.61-.3,2.16,2.16,0,0,1-1-.93,2.79,2.79,0,0,1-.35-1.37,2.4,2.4,0,0,1,.47-1.52,2.16,2.16,0,0,1,1.34-.75l.14.94a1.53,1.53,0,0,0-.86.47,1.2,1.2,0,0,0-.29.83,1.48,1.48,0,0,0,.52,1.18,2.46,2.46,0,0,0,1.66.46,2.61,2.61,0,0,0,1.67-.44,1.45,1.45,0,0,0,.52-1.15,1.36,1.36,0,0,0-.35-.95A1.7,1.7,0,0,0,25.49,59Z"/><path class="cls-2" d="M26.88,53.47a3.45,3.45,0,0,1,.64,1,2.9,2.9,0,0,1,.19,1.07A2.06,2.06,0,0,1,27.25,57a1.49,1.49,0,0,1-1.17.51,1.69,1.69,0,0,1-.77-.19,1.66,1.66,0,0,1-.55-.5,2.35,2.35,0,0,1-.32-.7,6.11,6.11,0,0,1-.14-.86A9.16,9.16,0,0,0,24,53.55h-.25a1,1,0,0,0-.83.28,1.59,1.59,0,0,0-.33,1.1,1.67,1.67,0,0,0,.24,1,1.42,1.42,0,0,0,.85.48l-.13,1a2.46,2.46,0,0,1-1-.42,2,2,0,0,1-.58-.86,3.88,3.88,0,0,1-.2-1.29,3.53,3.53,0,0,1,.17-1.19,1.65,1.65,0,0,1,.43-.67,1.54,1.54,0,0,1,.66-.3,5.68,5.68,0,0,1,.89,0h1.29a14.19,14.19,0,0,0,1.71-.06,2.06,2.06,0,0,0,.68-.25v1A2.05,2.05,0,0,1,26.88,53.47Zm-2.16.08a7.1,7.1,0,0,1,.37,1.58,3.53,3.53,0,0,0,.19.84.9.9,0,0,0,.31.38.83.83,0,0,0,.46.14.82.82,0,0,0,.65-.3,1.25,1.25,0,0,0,.26-.85,2,2,0,0,0-.25-1A1.53,1.53,0,0,0,26,53.7a2.4,2.4,0,0,0-1-.15Z"/><path class="cls-2" d="M27.58,47.37h-.72a1.76,1.76,0,0,1,.85,1.6,2.23,2.23,0,0,1-.37,1.25,2.49,2.49,0,0,1-1.05.89,3.64,3.64,0,0,1-1.55.31,4,4,0,0,1-1.55-.28A2.24,2.24,0,0,1,21.75,49a1.87,1.87,0,0,1,.22-.92,1.9,1.9,0,0,1,.56-.66H19.71v-1h7.87Zm-2.84,3.06A2.44,2.44,0,0,0,26.37,50a1.36,1.36,0,0,0,0-2.16,2.36,2.36,0,0,0-1.58-.45,2.62,2.62,0,0,0-1.72.46,1.37,1.37,0,0,0-.55,1.11A1.32,1.32,0,0,0,23.08,50,2.58,2.58,0,0,0,24.74,50.43Z"/><path class="cls-2" d="M24.73,45.31a3,3,0,0,1-2.35-.88,2.66,2.66,0,0,1-.63-1.79,2.55,2.55,0,0,1,.77-1.92A2.94,2.94,0,0,1,24.65,40a3.78,3.78,0,0,1,1.73.33,2.33,2.33,0,0,1,1,1,2.72,2.72,0,0,1,.35,1.38,2.55,2.55,0,0,1-.77,1.94A3.07,3.07,0,0,1,24.73,45.31Zm0-1a2.41,2.41,0,0,0,1.64-.48,1.52,1.52,0,0,0,.55-1.2,1.55,1.55,0,0,0-.55-1.2A2.48,2.48,0,0,0,24.7,41a2.34,2.34,0,0,0-1.6.48,1.52,1.52,0,0,0-.55,1.2,1.54,1.54,0,0,0,.54,1.2A2.43,2.43,0,0,0,24.73,44.32Z"/><line class="cls-3" x1="0.5" y1="12.33" x2="335.91" y2="12.33"/><line class="cls-4" x1="0.5" y1="12.33" x2="0.5" y2="12.33"/><line class="cls-5" x1="4.49" y1="12.33" x2="333.91" y2="12.33"/><line class="cls-4" x1="335.91" y1="12.33" x2="335.91" y2="12.33"/><line class="cls-3" x1="367.36" y1="12.33" x2="598.38" y2="12.33"/><line class="cls-4" x1="367.36" y1="12.33" x2="367.36" y2="12.33"/><line class="cls-6" x1="371.35" y1="12.33" x2="596.39" y2="12.33"/><line class="cls-4" x1="598.38" y1="12.33" x2="598.38" y2="12.33"/><line class="cls-7" x1="349.59" y1="24.44" x2="349.59" y2="2.29"/><polygon class="cls-8" points="352.98 6.27 349.58 2.88 346.19 6.27 346.19 3.39 349.58 0 352.98 3.39 352.98 6.27"/><polyline class="cls-7" points="526.62 35.73 526.62 24.7 178.39 24.7 178.39 35.73"/></g></g></svg>