<svg xmlns="http://www.w3.org/2000/svg" viewBox="0 0 145.51 46.79"><defs><style>.cls-1{fill:#9a9fbd;}.cls-2{fill:#b2c91f;}.cls-3{fill:#28203a;}.cls-4{fill:#fff;}</style></defs><g id="Capa_2" data-name="Capa 2"><g id="Capa_1-2" data-name="Capa 1"><rect class="cls-1" x="1.99" y="2.34" width="143.53" height="44.45" rx="5.36"/><rect class="cls-2" width="143.53" height="44.45" rx="5.36"/><path class="cls-3" d="M45.52,16.61l1,.26a3.49,3.49,0,0,1-1.17,2,3.28,3.28,0,0,1-2.09.68A3.83,3.83,0,0,1,41.23,19,3.3,3.3,0,0,1,40,17.49a5.35,5.35,0,0,1-.42-2.12,4.69,4.69,0,0,1,.47-2.14,3.22,3.22,0,0,1,1.34-1.39,3.9,3.9,0,0,1,1.91-.48,3.24,3.24,0,0,1,2,.6,3.1,3.1,0,0,1,1.12,1.7l-1,.24a2.36,2.36,0,0,0-.79-1.25,2.13,2.13,0,0,0-1.31-.4,2.55,2.55,0,0,0-1.52.44,2.29,2.29,0,0,0-.85,1.17,4.56,4.56,0,0,0-.25,1.51A4.9,4.9,0,0,0,41,17.12a2.18,2.18,0,0,0,.91,1.12,2.53,2.53,0,0,0,1.34.37,2.26,2.26,0,0,0,1.48-.5A2.56,2.56,0,0,0,45.52,16.61Z"/><path class="cls-3" d="M47.71,19.37v-5.7h.87v.86a2.5,2.5,0,0,1,.62-.8,1.06,1.06,0,0,1,.62-.19,1.82,1.82,0,0,1,1,.31l-.33.9a1.38,1.38,0,0,0-.71-.21.91.91,0,0,0-.57.19,1,1,0,0,0-.36.53,3.65,3.65,0,0,0-.16,1.12v3Z"/><path class="cls-3" d="M55.29,17.53l1,.13A2.46,2.46,0,0,1,55.42,19a2.66,2.66,0,0,1-1.64.48,2.62,2.62,0,0,1-2-.77,3,3,0,0,1-.73-2.16,3.14,3.14,0,0,1,.74-2.24,2.49,2.49,0,0,1,1.92-.79,2.44,2.44,0,0,1,1.87.78,3.11,3.11,0,0,1,.72,2.19v.26H52.07a2.18,2.18,0,0,0,.53,1.44,1.58,1.58,0,0,0,1.19.49,1.53,1.53,0,0,0,.91-.27A1.84,1.84,0,0,0,55.29,17.53ZM52.12,16H55.3a1.92,1.92,0,0,0-.36-1.08,1.5,1.5,0,0,0-1.2-.56,1.53,1.53,0,0,0-1.12.45A1.76,1.76,0,0,0,52.12,16Z"/><path class="cls-3" d="M61.23,17.28l1,.12a2.48,2.48,0,0,1-.8,1.54,2.33,2.33,0,0,1-1.58.56,2.46,2.46,0,0,1-1.88-.77,3.12,3.12,0,0,1-.71-2.19,3.9,3.9,0,0,1,.31-1.62,2.1,2.1,0,0,1,.93-1,2.77,2.77,0,0,1,1.36-.34,2.32,2.32,0,0,1,1.52.47,2.17,2.17,0,0,1,.76,1.33l-.94.15a1.57,1.57,0,0,0-.48-.87,1.24,1.24,0,0,0-.82-.29,1.51,1.51,0,0,0-1.19.53,2.5,2.5,0,0,0-.46,1.65,2.57,2.57,0,0,0,.44,1.67,1.44,1.44,0,0,0,1.15.52,1.35,1.35,0,0,0,1-.34A1.73,1.73,0,0,0,61.23,17.28Z"/><path class="cls-3" d="M66.91,17.53l1,.13A2.48,2.48,0,0,1,67,19a3,3,0,0,1-3.61-.29,3,3,0,0,1-.74-2.16,3.14,3.14,0,0,1,.75-2.24,2.49,2.49,0,0,1,1.92-.79,2.45,2.45,0,0,1,1.87.78,3.11,3.11,0,0,1,.72,2.19v.26H63.68a2.29,2.29,0,0,0,.53,1.44,1.6,1.6,0,0,0,1.2.49,1.5,1.5,0,0,0,.9-.27A1.92,1.92,0,0,0,66.91,17.53ZM63.74,16h3.18a1.92,1.92,0,0,0-.36-1.08,1.5,1.5,0,0,0-1.2-.56,1.52,1.52,0,0,0-1.12.45A1.76,1.76,0,0,0,63.74,16Z"/><path class="cls-3" d="M69.11,19.37v-5.7H70v.86a2.37,2.37,0,0,1,.62-.8,1.06,1.06,0,0,1,.62-.19,1.88,1.88,0,0,1,1,.31l-.33.9a1.38,1.38,0,0,0-.71-.21.91.91,0,0,0-.57.19,1,1,0,0,0-.36.53,3.65,3.65,0,0,0-.16,1.12v3Z"/><path class="cls-3" d="M79.75,17.53l1,.13A2.48,2.48,0,0,1,79.87,19a3,3,0,0,1-3.62-.29,3.05,3.05,0,0,1-.73-2.16,3.18,3.18,0,0,1,.74-2.24,2.52,2.52,0,0,1,1.92-.79,2.42,2.42,0,0,1,1.87.78,3.07,3.07,0,0,1,.73,2.19s0,.14,0,.26H76.52a2.24,2.24,0,0,0,.53,1.44,1.59,1.59,0,0,0,1.19.49,1.51,1.51,0,0,0,.91-.27A1.92,1.92,0,0,0,79.75,17.53ZM76.57,16h3.19a1.91,1.91,0,0,0-.37-1.08,1.46,1.46,0,0,0-1.19-.56,1.52,1.52,0,0,0-1.12.45A1.77,1.77,0,0,0,76.57,16Z"/><path class="cls-3" d="M82,19.37v-5.7h.87v.81a2,2,0,0,1,1.82-.94,2.39,2.39,0,0,1,.94.18,1.53,1.53,0,0,1,.65.49,1.82,1.82,0,0,1,.3.71,5,5,0,0,1,.06.94v3.51h-1V15.9a2.73,2.73,0,0,0-.11-.88,1,1,0,0,0-.4-.47,1.25,1.25,0,0,0-.68-.17,1.56,1.56,0,0,0-1.06.39,1.92,1.92,0,0,0-.45,1.49v3.11Z"/><path class="cls-3" d="M91.11,19.37V11.5h1v7.87Z"/><path class="cls-3" d="M93.22,16.52a2.93,2.93,0,0,1,.88-2.35,2.66,2.66,0,0,1,1.79-.63,2.55,2.55,0,0,1,1.93.77,3,3,0,0,1,.74,2.13,3.78,3.78,0,0,1-.33,1.73,2.33,2.33,0,0,1-1,1,2.83,2.83,0,0,1-1.38.35A2.55,2.55,0,0,1,94,18.73,3,3,0,0,1,93.22,16.52Zm1,0a2.41,2.41,0,0,0,.48,1.64,1.6,1.6,0,0,0,2.4,0,2.5,2.5,0,0,0,.48-1.67,2.38,2.38,0,0,0-.48-1.61,1.6,1.6,0,0,0-2.4,0A2.41,2.41,0,0,0,94.21,16.52Z"/><path class="cls-3" d="M99.31,17.67l1-.15a1.35,1.35,0,0,0,.44.88,1.6,1.6,0,0,0,1,.3,1.5,1.5,0,0,0,1-.27.82.82,0,0,0,.32-.63.59.59,0,0,0-.28-.52,4.81,4.81,0,0,0-1-.33,9,9,0,0,1-1.47-.46,1.4,1.4,0,0,1-.63-.54,1.46,1.46,0,0,1-.21-.77,1.51,1.51,0,0,1,.17-.7,1.69,1.69,0,0,1,.48-.55,2.17,2.17,0,0,1,.61-.28,3.22,3.22,0,0,1,.84-.11,3.28,3.28,0,0,1,1.18.19,1.6,1.6,0,0,1,.75.52,2.12,2.12,0,0,1,.33.89l-.94.13a1,1,0,0,0-.38-.69,1.37,1.37,0,0,0-.87-.25,1.64,1.64,0,0,0-1,.22.65.65,0,0,0-.29.52.54.54,0,0,0,.12.34.86.86,0,0,0,.37.25c.1,0,.38.12.86.25a10.92,10.92,0,0,1,1.43.45,1.46,1.46,0,0,1,.63.51,1.37,1.37,0,0,1,.24.82,1.59,1.59,0,0,1-.29.91,1.8,1.8,0,0,1-.81.67,3.06,3.06,0,0,1-1.2.23,2.69,2.69,0,0,1-1.7-.46A2.17,2.17,0,0,1,99.31,17.67Z"/><path class="cls-3" d="M48.34,30.68V25h.86v.8a2.11,2.11,0,0,1,.72-.67,2,2,0,0,1,1-.25,1.82,1.82,0,0,1,1,.26,1.45,1.45,0,0,1,.58.73,2,2,0,0,1,1.76-1,1.73,1.73,0,0,1,1.3.46,2,2,0,0,1,.46,1.45v3.92h-1V27.09a2.43,2.43,0,0,0-.1-.84.75.75,0,0,0-.34-.41,1,1,0,0,0-.58-.16,1.39,1.39,0,0,0-1,.4,1.8,1.8,0,0,0-.39,1.28v3.32h-1V27a1.58,1.58,0,0,0-.24-1,.87.87,0,0,0-.77-.33,1.49,1.49,0,0,0-.76.22,1.22,1.22,0,0,0-.5.63,3.62,3.62,0,0,0-.15,1.19v3Z"/><path class="cls-3" d="M61.41,28.84l1,.13a2.42,2.42,0,0,1-.88,1.35,2.59,2.59,0,0,1-1.63.49,2.63,2.63,0,0,1-2-.77,3.08,3.08,0,0,1-.73-2.17,3.18,3.18,0,0,1,.74-2.23,2.52,2.52,0,0,1,1.92-.79,2.42,2.42,0,0,1,1.87.77,3.08,3.08,0,0,1,.73,2.2c0,.05,0,.14,0,.25H58.18a2.19,2.19,0,0,0,.53,1.44,1.56,1.56,0,0,0,1.19.5,1.45,1.45,0,0,0,.91-.28A1.84,1.84,0,0,0,61.41,28.84Zm-3.18-1.56h3.19a1.91,1.91,0,0,0-.37-1.08,1.46,1.46,0,0,0-1.19-.56,1.52,1.52,0,0,0-1.12.45A1.75,1.75,0,0,0,58.23,27.28Z"/><path class="cls-3" d="M63.61,30.68V25h.87v.87a2.27,2.27,0,0,1,.62-.8,1,1,0,0,1,.62-.19,1.88,1.88,0,0,1,1,.31l-.33.89a1.41,1.41,0,0,0-.71-.21,1,1,0,0,0-.57.19,1.05,1.05,0,0,0-.36.53,3.72,3.72,0,0,0-.16,1.13v3Z"/><path class="cls-3" d="M71,28.59l.95.12a2.48,2.48,0,0,1-.8,1.54,2.35,2.35,0,0,1-1.58.56A2.44,2.44,0,0,1,67.7,30,3.12,3.12,0,0,1,67,27.85a4,4,0,0,1,.3-1.62,2.17,2.17,0,0,1,.94-1,2.75,2.75,0,0,1,1.36-.34,2.39,2.39,0,0,1,1.52.46,2.18,2.18,0,0,1,.75,1.34l-.93.15a1.53,1.53,0,0,0-.48-.87,1.25,1.25,0,0,0-.83-.29,1.48,1.48,0,0,0-1.18.52A2.48,2.48,0,0,0,68,27.82a2.59,2.59,0,0,0,.44,1.67,1.44,1.44,0,0,0,1.15.52,1.31,1.31,0,0,0,1-.35A1.71,1.71,0,0,0,71,28.59Z"/><path class="cls-3" d="M76.51,30a3.86,3.86,0,0,1-1,.64,3.11,3.11,0,0,1-1.06.19A2.12,2.12,0,0,1,73,30.35a1.62,1.62,0,0,1,.19-2.5,2.17,2.17,0,0,1,.69-.31,7.59,7.59,0,0,1,.86-.15,8.68,8.68,0,0,0,1.73-.33v-.25a1.08,1.08,0,0,0-.27-.84,1.68,1.68,0,0,0-1.1-.32,1.79,1.79,0,0,0-1,.23,1.45,1.45,0,0,0-.48.85l-.95-.13a2.39,2.39,0,0,1,.43-1,1.78,1.78,0,0,1,.85-.57,3.64,3.64,0,0,1,1.29-.2,3.3,3.3,0,0,1,1.19.17,1.5,1.5,0,0,1,.67.43,1.34,1.34,0,0,1,.3.66,4.58,4.58,0,0,1,.05.89v1.29a13.86,13.86,0,0,0,.06,1.7,2.49,2.49,0,0,0,.25.69h-1A1.9,1.9,0,0,1,76.51,30Zm-.08-2.16a7.49,7.49,0,0,1-1.58.36,4.08,4.08,0,0,0-.85.19.92.92,0,0,0-.38.32.82.82,0,0,0-.13.46.79.79,0,0,0,.29.64,1.28,1.28,0,0,0,.86.26,2,2,0,0,0,1-.24,1.59,1.59,0,0,0,.64-.67,2.4,2.4,0,0,0,.16-1Z"/><path class="cls-3" d="M82.6,30.68V30a1.78,1.78,0,0,1-1.59.85,2.25,2.25,0,0,1-1.26-.38,2.46,2.46,0,0,1-.88-1.05,3.61,3.61,0,0,1-.32-1.55,4.08,4.08,0,0,1,.29-1.55,2.2,2.2,0,0,1,.85-1.06A2.25,2.25,0,0,1,81,24.85a2,2,0,0,1,.92.21,2,2,0,0,1,.66.57V22.8h1v7.88Zm-3-2.85A2.47,2.47,0,0,0,80,29.47,1.4,1.4,0,0,0,81.1,30a1.37,1.37,0,0,0,1.08-.52,2.4,2.4,0,0,0,.44-1.58,2.7,2.7,0,0,0-.45-1.72,1.39,1.39,0,0,0-1.11-.54,1.34,1.34,0,0,0-1.08.52A2.6,2.6,0,0,0,79.55,27.83Z"/><path class="cls-3" d="M84.66,27.83a2.93,2.93,0,0,1,.88-2.35,2.66,2.66,0,0,1,1.79-.63,2.55,2.55,0,0,1,1.93.77A2.91,2.91,0,0,1,90,27.75a3.78,3.78,0,0,1-.33,1.73,2.33,2.33,0,0,1-1,1,2.83,2.83,0,0,1-1.38.35A2.57,2.57,0,0,1,85.4,30,3.07,3.07,0,0,1,84.66,27.83Zm1,0a2.43,2.43,0,0,0,.48,1.64,1.54,1.54,0,0,0,1.2.54,1.52,1.52,0,0,0,1.2-.55A2.47,2.47,0,0,0,89,27.79a2.35,2.35,0,0,0-.48-1.6,1.6,1.6,0,0,0-2.4,0A2.41,2.41,0,0,0,85.65,27.83Z"/><path class="cls-3" d="M90.75,29l1-.15a1.35,1.35,0,0,0,.44.88,1.6,1.6,0,0,0,1,.3,1.5,1.5,0,0,0,1-.27.79.79,0,0,0,.32-.64.58.58,0,0,0-.28-.51,3.79,3.79,0,0,0-1-.33,9,9,0,0,1-1.47-.46,1.48,1.48,0,0,1-.63-.55,1.43,1.43,0,0,1-.21-.76,1.44,1.44,0,0,1,.18-.71,1.61,1.61,0,0,1,.47-.54,2.12,2.12,0,0,1,.62-.28,2.78,2.78,0,0,1,.83-.11,3.28,3.28,0,0,1,1.18.19,1.6,1.6,0,0,1,.75.52,2.07,2.07,0,0,1,.33.89l-.94.12a1,1,0,0,0-.38-.68,1.31,1.31,0,0,0-.87-.25,1.56,1.56,0,0,0-1,.22.64.64,0,0,0-.28.52.57.57,0,0,0,.11.33.88.88,0,0,0,.37.26c.1,0,.39.12.86.25a10.92,10.92,0,0,1,1.43.45A1.36,1.36,0,0,1,95.49,29a1.68,1.68,0,0,1-.28.91,1.75,1.75,0,0,1-.82.66,2.86,2.86,0,0,1-1.2.24,2.75,2.75,0,0,1-1.7-.46A2.17,2.17,0,0,1,90.75,29Z"/><rect class="cls-4" x="6.07" y="6.07" width="0.85" height="32.3" rx="0.42"/><rect class="cls-4" x="136.61" y="6.07" width="0.85" height="32.3" rx="0.42"/></g></g></svg>