<svg xmlns="http://www.w3.org/2000/svg" viewBox="0 0 145.51 46.79"><defs><style>.cls-1{fill:#9a9fbd;}.cls-2{fill:#e3ca34;}.cls-3{fill:#28203a;}.cls-4{fill:#fff;}</style></defs><g id="Capa_2" data-name="Capa 2"><g id="Capa_1-2" data-name="Capa 1"><rect class="cls-1" x="1.99" y="2.34" width="143.53" height="44.45" rx="5.36"/><rect class="cls-2" width="143.53" height="44.45" rx="5.36"/><path class="cls-3" d="M17.46,19.37V11.5h1v7.87Z"/><path class="cls-3" d="M20.21,19.37v-5.7h.87v.81a2.05,2.05,0,0,1,1.82-.94,2.47,2.47,0,0,1,1,.18,1.6,1.6,0,0,1,.65.49,2,2,0,0,1,.3.71,6.47,6.47,0,0,1,.05.94v3.51h-1V15.9a2.73,2.73,0,0,0-.11-.88,1,1,0,0,0-.4-.47,1.24,1.24,0,0,0-.67-.17,1.57,1.57,0,0,0-1.07.39,1.93,1.93,0,0,0-.45,1.49v3.11Z"/><path class="cls-3" d="M30.05,17.28l1,.13a2.53,2.53,0,0,1-.8,1.53,2.35,2.35,0,0,1-1.58.56,2.41,2.41,0,0,1-1.88-.77A3.07,3.07,0,0,1,26,16.54a4.11,4.11,0,0,1,.3-1.62,2.18,2.18,0,0,1,.93-1,2.71,2.71,0,0,1,1.37-.35,2.34,2.34,0,0,1,1.52.47,2.16,2.16,0,0,1,.75,1.33l-.94.15a1.56,1.56,0,0,0-.47-.87,1.25,1.25,0,0,0-.83-.29,1.49,1.49,0,0,0-1.18.53A2.45,2.45,0,0,0,27,16.51a2.57,2.57,0,0,0,.44,1.67,1.43,1.43,0,0,0,1.15.53,1.36,1.36,0,0,0,.95-.35A1.68,1.68,0,0,0,30.05,17.28Z"/><path class="cls-3" d="M31.82,19.37v-5.7h.87v.86a2.37,2.37,0,0,1,.62-.8,1,1,0,0,1,.62-.19,1.88,1.88,0,0,1,1,.31l-.33.9a1.41,1.41,0,0,0-.71-.21.91.91,0,0,0-.57.19,1,1,0,0,0-.36.53,3.67,3.67,0,0,0-.16,1.13v3Z"/><path class="cls-3" d="M39.4,17.53l1,.13A2.48,2.48,0,0,1,39.52,19a3,3,0,0,1-3.61-.29,3,3,0,0,1-.74-2.16,3.18,3.18,0,0,1,.74-2.24,2.53,2.53,0,0,1,1.93-.79,2.45,2.45,0,0,1,1.87.78,3.11,3.11,0,0,1,.72,2.19v.26H36.17a2.24,2.24,0,0,0,.53,1.44,1.61,1.61,0,0,0,1.2.5,1.51,1.51,0,0,0,.9-.28A1.92,1.92,0,0,0,39.4,17.53ZM36.23,16h3.18a1.92,1.92,0,0,0-.36-1.08,1.5,1.5,0,0,0-1.2-.56,1.52,1.52,0,0,0-1.12.45A1.71,1.71,0,0,0,36.23,16Z"/><path class="cls-3" d="M41.61,19.37v-5.7h.87v.8a2,2,0,0,1,1.73-.93,1.93,1.93,0,0,1,1,.26,1.41,1.41,0,0,1,.57.74,2,2,0,0,1,1.76-1,1.69,1.69,0,0,1,1.3.47,2,2,0,0,1,.46,1.45v3.91h-1V15.78a2.78,2.78,0,0,0-.09-.84.9.9,0,0,0-.34-.41,1.11,1.11,0,0,0-.58-.15,1.32,1.32,0,0,0-1,.4,1.72,1.72,0,0,0-.4,1.28v3.31H45v-3.7a1.69,1.69,0,0,0-.23-1,.89.89,0,0,0-.78-.32,1.42,1.42,0,0,0-.75.21,1.18,1.18,0,0,0-.5.63,3.37,3.37,0,0,0-.16,1.19v3Z"/><path class="cls-3" d="M54.68,17.53l1,.13A2.48,2.48,0,0,1,54.8,19a3,3,0,0,1-3.61-.29,3,3,0,0,1-.74-2.16,3.14,3.14,0,0,1,.75-2.24,2.49,2.49,0,0,1,1.92-.79,2.45,2.45,0,0,1,1.87.78,3.11,3.11,0,0,1,.72,2.19v.26H51.45A2.29,2.29,0,0,0,52,18.21a1.61,1.61,0,0,0,1.2.5,1.51,1.51,0,0,0,.9-.28A1.85,1.85,0,0,0,54.68,17.53ZM51.51,16h3.18a1.92,1.92,0,0,0-.36-1.08,1.5,1.5,0,0,0-1.2-.56,1.52,1.52,0,0,0-1.12.45A1.76,1.76,0,0,0,51.51,16Z"/><path class="cls-3" d="M56.89,19.37v-5.7h.87v.81a2.05,2.05,0,0,1,1.82-.94,2.47,2.47,0,0,1,1,.18,1.56,1.56,0,0,1,.64.49,1.68,1.68,0,0,1,.3.71,5,5,0,0,1,.06.94v3.51h-1V15.9a2.73,2.73,0,0,0-.11-.88,1,1,0,0,0-.4-.47,1.24,1.24,0,0,0-.67-.17,1.57,1.57,0,0,0-1.07.39,1.93,1.93,0,0,0-.45,1.49v3.11Z"/><path class="cls-3" d="M65.12,18.51l.14.85a3.37,3.37,0,0,1-.73.09,1.7,1.7,0,0,1-.82-.17.89.89,0,0,1-.4-.44,3.4,3.4,0,0,1-.12-1.14V14.42h-.71v-.75h.71V12.25l1-.58v2h1v.75h-1v3.33a1.89,1.89,0,0,0,0,.54.37.37,0,0,0,.17.18.58.58,0,0,0,.33.07Z"/><path class="cls-3" d="M69.79,18.67a3.58,3.58,0,0,1-1,.64,2.94,2.94,0,0,1-1.07.19A2.07,2.07,0,0,1,66.24,19a1.63,1.63,0,0,1-.31-1.94,1.56,1.56,0,0,1,.5-.55,2.35,2.35,0,0,1,.7-.32,6.94,6.94,0,0,1,.85-.15,8.68,8.68,0,0,0,1.73-.33V15.5a1.06,1.06,0,0,0-.27-.83,1.61,1.61,0,0,0-1.1-.33,1.71,1.71,0,0,0-1,.24,1.53,1.53,0,0,0-.48.84l-.94-.13a2.26,2.26,0,0,1,.42-1,1.91,1.91,0,0,1,.85-.57,4,4,0,0,1,1.3-.2,3.57,3.57,0,0,1,1.19.17,1.62,1.62,0,0,1,.67.43,1.67,1.67,0,0,1,.3.66,5.68,5.68,0,0,1,0,.89V17a14.19,14.19,0,0,0,.06,1.71,2.21,2.21,0,0,0,.24.68H70A2.05,2.05,0,0,1,69.79,18.67Zm-.08-2.16a7.34,7.34,0,0,1-1.58.36,3.66,3.66,0,0,0-.84.2.81.81,0,0,0-.39.31.91.91,0,0,0-.13.46.82.82,0,0,0,.29.64,1.23,1.23,0,0,0,.86.26,2,2,0,0,0,1-.24,1.48,1.48,0,0,0,.64-.67,2.24,2.24,0,0,0,.16-1Z"/><path class="cls-3" d="M72.17,19.37v-5.7H73v.86a2.5,2.5,0,0,1,.62-.8,1.06,1.06,0,0,1,.62-.19,1.85,1.85,0,0,1,1,.31l-.33.9a1.38,1.38,0,0,0-.71-.21.91.91,0,0,0-.57.19,1,1,0,0,0-.36.53,3.67,3.67,0,0,0-.16,1.13v3Z"/><path class="cls-3" d="M80.49,19.37l-2.17-5.7h1l1.22,3.41c.14.37.26.76.37,1.15a11.3,11.3,0,0,1,.36-1.08l1.27-3.48h1l-2.16,5.7Z"/><path class="cls-3" d="M88.13,18.67a3.62,3.62,0,0,1-1,.64A2.85,2.85,0,0,1,86,19.5,2.07,2.07,0,0,1,84.58,19a1.51,1.51,0,0,1-.5-1.17,1.54,1.54,0,0,1,.19-.77,1.47,1.47,0,0,1,.5-.55,2.19,2.19,0,0,1,.69-.32,7.59,7.59,0,0,1,.86-.15,8.68,8.68,0,0,0,1.73-.33V15.5a1.06,1.06,0,0,0-.27-.83,1.62,1.62,0,0,0-1.1-.33,1.71,1.71,0,0,0-1,.24,1.42,1.42,0,0,0-.48.84l-1-.13a2.39,2.39,0,0,1,.43-1,1.85,1.85,0,0,1,.85-.57,4,4,0,0,1,1.3-.2,3.51,3.51,0,0,1,1.18.17,1.5,1.5,0,0,1,.67.43,1.43,1.43,0,0,1,.3.66,4.64,4.64,0,0,1,0,.89V17a11.65,11.65,0,0,0,.07,1.71,2.21,2.21,0,0,0,.24.68h-1A1.85,1.85,0,0,1,88.13,18.67Zm-.08-2.16a7.49,7.49,0,0,1-1.58.36,3.94,3.94,0,0,0-.85.2.83.83,0,0,0-.38.31.86.86,0,0,0,.16,1.1,1.23,1.23,0,0,0,.86.26,2,2,0,0,0,1-.24,1.53,1.53,0,0,0,.64-.67,2.4,2.4,0,0,0,.16-1Z"/><path class="cls-3" d="M90.5,19.37V11.5h1v7.87Z"/><path class="cls-3" d="M92.61,16.52a2.93,2.93,0,0,1,.88-2.35,2.66,2.66,0,0,1,1.79-.63,2.56,2.56,0,0,1,1.92.77A2.91,2.91,0,0,1,98,16.44a3.78,3.78,0,0,1-.33,1.73,2.33,2.33,0,0,1-1,1,2.83,2.83,0,0,1-1.38.35,2.59,2.59,0,0,1-1.94-.77A3.07,3.07,0,0,1,92.61,16.52Zm1,0a2.41,2.41,0,0,0,.48,1.64,1.58,1.58,0,0,0,2.4,0A2.48,2.48,0,0,0,97,16.49a2.38,2.38,0,0,0-.48-1.61,1.6,1.6,0,0,0-2.4,0A2.41,2.41,0,0,0,93.6,16.52Z"/><path class="cls-3" d="M99.07,19.37v-5.7h.87v.86a2.37,2.37,0,0,1,.62-.8,1.06,1.06,0,0,1,.62-.19,1.88,1.88,0,0,1,1,.31l-.33.9a1.38,1.38,0,0,0-.71-.21.91.91,0,0,0-.57.19,1,1,0,0,0-.36.53,3.67,3.67,0,0,0-.16,1.13v3Z"/><path class="cls-3" d="M105.8,21.56V13.67h.88v.74a2.16,2.16,0,0,1,.71-.65,1.86,1.86,0,0,1,1-.22,2.29,2.29,0,0,1,1.29.37,2.35,2.35,0,0,1,.84,1.06,3.91,3.91,0,0,1,.29,1.51,3.76,3.76,0,0,1-.32,1.57,2.37,2.37,0,0,1-.91,1.08,2.34,2.34,0,0,1-1.26.37,1.86,1.86,0,0,1-1.5-.72v2.78Zm.88-5a2.52,2.52,0,0,0,.44,1.63,1.38,1.38,0,0,0,1.08.53,1.43,1.43,0,0,0,1.11-.55,2.62,2.62,0,0,0,.46-1.69,2.5,2.5,0,0,0-.45-1.63,1.36,1.36,0,0,0-1.07-.54,1.4,1.4,0,0,0-1.1.57A2.65,2.65,0,0,0,106.68,16.55Z"/><path class="cls-3" d="M115.64,18.67a3.58,3.58,0,0,1-1,.64,2.9,2.9,0,0,1-1.07.19A2,2,0,0,1,112.1,19a1.52,1.52,0,0,1-.51-1.17,1.57,1.57,0,0,1,.69-1.32,2.35,2.35,0,0,1,.7-.32,7.59,7.59,0,0,1,.86-.15,8.55,8.55,0,0,0,1.72-.33c0-.13,0-.22,0-.25a1,1,0,0,0-.28-.83,1.59,1.59,0,0,0-1.1-.33,1.67,1.67,0,0,0-1,.24,1.42,1.42,0,0,0-.48.84l-.95-.13a2.53,2.53,0,0,1,.42-1,1.94,1.94,0,0,1,.86-.57,3.88,3.88,0,0,1,1.29-.2,3.57,3.57,0,0,1,1.19.17,1.55,1.55,0,0,1,.67.43,1.67,1.67,0,0,1,.3.66,5.68,5.68,0,0,1,.05.89V17a14.19,14.19,0,0,0,.06,1.71,2,2,0,0,0,.25.68h-1A2.05,2.05,0,0,1,115.64,18.67Zm-.08-2.16a7.34,7.34,0,0,1-1.58.36,3.81,3.81,0,0,0-.84.2.78.78,0,0,0-.38.31.83.83,0,0,0-.14.46.8.8,0,0,0,.3.64,1.2,1.2,0,0,0,.85.26,2,2,0,0,0,1-.24,1.53,1.53,0,0,0,.64-.67,2.43,2.43,0,0,0,.15-1Z"/><path class="cls-3" d="M118,19.37v-5.7h.87v.86a2.37,2.37,0,0,1,.61-.8,1.08,1.08,0,0,1,.62-.19,1.88,1.88,0,0,1,1,.31l-.34.9a1.36,1.36,0,0,0-.71-.21.91.91,0,0,0-.57.19,1.09,1.09,0,0,0-.36.53,4,4,0,0,0-.16,1.13v3Z"/><path class="cls-3" d="M125.42,18.67a3.58,3.58,0,0,1-1,.64,2.9,2.9,0,0,1-1.07.19,2,2,0,0,1-1.44-.46,1.52,1.52,0,0,1-.51-1.17,1.57,1.57,0,0,1,.69-1.32,2.35,2.35,0,0,1,.7-.32,7.59,7.59,0,0,1,.86-.15,8.55,8.55,0,0,0,1.72-.33c0-.13,0-.22,0-.25a1,1,0,0,0-.28-.83,1.59,1.59,0,0,0-1.1-.33,1.67,1.67,0,0,0-1,.24,1.42,1.42,0,0,0-.48.84l-.95-.13a2.53,2.53,0,0,1,.42-1,1.94,1.94,0,0,1,.86-.57,3.88,3.88,0,0,1,1.29-.2,3.53,3.53,0,0,1,1.19.17,1.55,1.55,0,0,1,.67.43,1.67,1.67,0,0,1,.3.66,5.68,5.68,0,0,1,0,.89V17a14.19,14.19,0,0,0,.06,1.71,2,2,0,0,0,.25.68h-1A2.05,2.05,0,0,1,125.42,18.67Zm-.08-2.16a7.34,7.34,0,0,1-1.58.36,4,4,0,0,0-.84.2.83.83,0,0,0-.52.77.8.8,0,0,0,.3.64,1.2,1.2,0,0,0,.85.26,2,2,0,0,0,1-.24,1.53,1.53,0,0,0,.64-.67,2.43,2.43,0,0,0,.15-1Z"/><path class="cls-3" d="M21.41,30.68V22.81h1v7.87Z"/><path class="cls-3" d="M23.51,27.83a2.94,2.94,0,0,1,.89-2.35,2.64,2.64,0,0,1,1.79-.63,2.54,2.54,0,0,1,1.92.77,2.91,2.91,0,0,1,.75,2.13,3.78,3.78,0,0,1-.33,1.73,2.33,2.33,0,0,1-1,1,2.83,2.83,0,0,1-1.38.35A2.59,2.59,0,0,1,24.25,30,3.07,3.07,0,0,1,23.51,27.83Zm1,0A2.43,2.43,0,0,0,25,29.47a1.6,1.6,0,0,0,2.4,0,2.51,2.51,0,0,0,.48-1.68,2.32,2.32,0,0,0-.49-1.6,1.59,1.59,0,0,0-2.39,0A2.41,2.41,0,0,0,24.51,27.83Z"/><path class="cls-3" d="M29.61,29l.95-.15a1.36,1.36,0,0,0,.45.88,1.6,1.6,0,0,0,1,.3,1.54,1.54,0,0,0,1-.27.82.82,0,0,0,.32-.64.6.6,0,0,0-.29-.51,3.82,3.82,0,0,0-1-.33,9.61,9.61,0,0,1-1.48-.46,1.43,1.43,0,0,1-.62-.54,1.49,1.49,0,0,1-.21-.77,1.43,1.43,0,0,1,.17-.71,1.76,1.76,0,0,1,.48-.54A2,2,0,0,1,31,25a2.84,2.84,0,0,1,.84-.11,3.32,3.32,0,0,1,1.18.19,1.71,1.71,0,0,1,.75.52,2.07,2.07,0,0,1,.33.89l-1,.13a1,1,0,0,0-.37-.69,1.35,1.35,0,0,0-.87-.25,1.54,1.54,0,0,0-1,.22.65.65,0,0,0-.29.52.56.56,0,0,0,.12.34.89.89,0,0,0,.37.25c.1,0,.38.12.85.25a10,10,0,0,1,1.43.45,1.31,1.31,0,0,1,.64.51,1.35,1.35,0,0,1,.23.82,1.58,1.58,0,0,1-.28.91,1.77,1.77,0,0,1-.81.66,2.94,2.94,0,0,1-1.21.24,2.72,2.72,0,0,1-1.69-.46A2.12,2.12,0,0,1,29.61,29Z"/><path class="cls-3" d="M38.37,31.15l.94.14a.93.93,0,0,0,.33.64,1.67,1.67,0,0,0,1,.26,1.82,1.82,0,0,0,1-.26,1.3,1.3,0,0,0,.49-.76,5.67,5.67,0,0,0,.07-1.24,2,2,0,0,1-1.58.75,2.15,2.15,0,0,1-1.82-.85,3.27,3.27,0,0,1-.64-2,3.89,3.89,0,0,1,.29-1.5,2.43,2.43,0,0,1,.86-1.07,2.3,2.3,0,0,1,1.32-.37,2,2,0,0,1,1.66.81V25h.9v4.94a4.64,4.64,0,0,1-.28,1.88,1.92,1.92,0,0,1-.86.88,2.89,2.89,0,0,1-1.44.32A2.71,2.71,0,0,1,39,32.53,1.55,1.55,0,0,1,38.37,31.15Zm.8-3.43a2.45,2.45,0,0,0,.45,1.64,1.39,1.39,0,0,0,1.11.52,1.43,1.43,0,0,0,1.12-.51,2.42,2.42,0,0,0,.45-1.61,2.33,2.33,0,0,0-.46-1.58,1.41,1.41,0,0,0-1.12-.53,1.4,1.4,0,0,0-1.1.52A2.33,2.33,0,0,0,39.17,27.72Z"/><path class="cls-3" d="M44.66,30.68V25h.87v.87a2.27,2.27,0,0,1,.61-.8,1.08,1.08,0,0,1,.62-.19,1.82,1.82,0,0,1,1,.31l-.33.89a1.37,1.37,0,0,0-.71-.2.91.91,0,0,0-.57.19,1,1,0,0,0-.36.52,4.06,4.06,0,0,0-.16,1.13v3Z"/><path class="cls-3" d="M52.07,30.68v-.84a2.09,2.09,0,0,1-1.81,1,2.34,2.34,0,0,1-.95-.2,1.58,1.58,0,0,1-.65-.48,1.79,1.79,0,0,1-.29-.72,4.82,4.82,0,0,1-.06-.9V25h1v3.17a5.62,5.62,0,0,0,.06,1,1,1,0,0,0,.39.6,1.23,1.23,0,0,0,.73.21,1.6,1.6,0,0,0,.82-.22,1.3,1.3,0,0,0,.54-.6A3.24,3.24,0,0,0,52,28V25h1v5.71Z"/><path class="cls-3" d="M54.45,32.86V25h.88v.75a2.18,2.18,0,0,1,.7-.66,2,2,0,0,1,.95-.21,2.25,2.25,0,0,1,1.29.37,2.35,2.35,0,0,1,.84,1.06,3.89,3.89,0,0,1,.29,1.5,3.81,3.81,0,0,1-.32,1.58,2.29,2.29,0,0,1-.91,1.07,2.35,2.35,0,0,1-1.26.38A1.81,1.81,0,0,1,56,30.6a2,2,0,0,1-.63-.51v2.77Zm.87-5a2.48,2.48,0,0,0,.45,1.63,1.34,1.34,0,0,0,1.08.52,1.4,1.4,0,0,0,1.1-.54,2.58,2.58,0,0,0,.46-1.69A2.5,2.5,0,0,0,58,26.15a1.34,1.34,0,0,0-1.07-.55,1.4,1.4,0,0,0-1.09.58A2.59,2.59,0,0,0,55.32,27.86Z"/><path class="cls-3" d="M60.2,27.83a2.94,2.94,0,0,1,.89-2.35,2.64,2.64,0,0,1,1.79-.63,2.54,2.54,0,0,1,1.92.77,2.91,2.91,0,0,1,.75,2.13,3.78,3.78,0,0,1-.33,1.73,2.33,2.33,0,0,1-1,1,2.83,2.83,0,0,1-1.38.35A2.58,2.58,0,0,1,60.94,30,3.07,3.07,0,0,1,60.2,27.83Zm1,0a2.43,2.43,0,0,0,.48,1.64,1.6,1.6,0,0,0,2.4,0,2.51,2.51,0,0,0,.47-1.68,2.37,2.37,0,0,0-.48-1.6,1.59,1.59,0,0,0-2.39,0A2.41,2.41,0,0,0,61.2,27.83Z"/><path class="cls-3" d="M66.3,29l1-.15a1.36,1.36,0,0,0,.45.88,1.6,1.6,0,0,0,1,.3,1.54,1.54,0,0,0,1-.27A.82.82,0,0,0,70,29.1a.6.6,0,0,0-.29-.51,3.82,3.82,0,0,0-1-.33,9.61,9.61,0,0,1-1.48-.46,1.43,1.43,0,0,1-.62-.54,1.49,1.49,0,0,1-.21-.77,1.43,1.43,0,0,1,.17-.71,1.76,1.76,0,0,1,.48-.54,2,2,0,0,1,.61-.28,2.84,2.84,0,0,1,.84-.11,3.32,3.32,0,0,1,1.18.19,1.62,1.62,0,0,1,.74.52,2,2,0,0,1,.34.89l-.95.13a1,1,0,0,0-.37-.69,1.35,1.35,0,0,0-.87-.25,1.54,1.54,0,0,0-.95.22.65.65,0,0,0-.29.52.56.56,0,0,0,.12.34.89.89,0,0,0,.37.25c.1,0,.38.12.85.25a11.2,11.2,0,0,1,1.44.45,1.33,1.33,0,0,1,.63.51A1.35,1.35,0,0,1,71,29a1.58,1.58,0,0,1-.28.91,1.77,1.77,0,0,1-.81.66,2.94,2.94,0,0,1-1.21.24A2.72,2.72,0,0,1,67,30.35,2.12,2.12,0,0,1,66.3,29Z"/><path class="cls-3" d="M78.94,30.68V30a1.78,1.78,0,0,1-1.6.85,2.24,2.24,0,0,1-1.25-.38,2.49,2.49,0,0,1-.89-1.05,3.61,3.61,0,0,1-.31-1.55,4.07,4.07,0,0,1,.28-1.55A2.22,2.22,0,0,1,76,25.22a2.25,2.25,0,0,1,1.27-.37,2,2,0,0,1,.92.21,1.9,1.9,0,0,1,.65.57V22.81h1v7.87Zm-3.06-2.85a2.53,2.53,0,0,0,.46,1.64,1.41,1.41,0,0,0,1.09.54,1.34,1.34,0,0,0,1.08-.52A2.35,2.35,0,0,0,79,27.91a2.7,2.7,0,0,0-.45-1.72,1.39,1.39,0,0,0-1.11-.54,1.34,1.34,0,0,0-1.08.52A2.66,2.66,0,0,0,75.88,27.83Z"/><path class="cls-3" d="M85.26,28.84l1,.13a2.42,2.42,0,0,1-.88,1.35,2.57,2.57,0,0,1-1.63.49,2.62,2.62,0,0,1-2-.77A3,3,0,0,1,81,27.88a3.14,3.14,0,0,1,.75-2.24,2.69,2.69,0,0,1,3.79,0,3.12,3.12,0,0,1,.72,2.2v.25H82a2.25,2.25,0,0,0,.53,1.44,1.57,1.57,0,0,0,1.2.5,1.44,1.44,0,0,0,.9-.28A1.77,1.77,0,0,0,85.26,28.84Zm-3.17-1.56h3.18a1.92,1.92,0,0,0-.36-1.08,1.5,1.5,0,0,0-1.2-.56,1.52,1.52,0,0,0-1.12.45A1.74,1.74,0,0,0,82.09,27.28Z"/><path class="cls-3" d="M90.54,23.92V22.81h1v1.11Zm0,6.76V25h1v5.71Z"/><path class="cls-3" d="M93,30.68V25h.87v.82a2.05,2.05,0,0,1,1.82-.94,2.47,2.47,0,0,1,1,.18,1.48,1.48,0,0,1,.64.49,1.68,1.68,0,0,1,.3.71,5,5,0,0,1,.06.94v3.51h-1V27.21a2.69,2.69,0,0,0-.11-.88.92.92,0,0,0-.4-.47,1.24,1.24,0,0,0-.67-.18,1.53,1.53,0,0,0-1.07.4,1.91,1.91,0,0,0-.45,1.48v3.12Z"/><path class="cls-3" d="M101.2,29.81l.14.86a4.06,4.06,0,0,1-.73.08,1.71,1.71,0,0,1-.82-.16.89.89,0,0,1-.4-.44A3.4,3.4,0,0,1,99.27,29V25.73h-.71V25h.71V23.56l1-.58v2h1v.76h-1v3.33a1.76,1.76,0,0,0,0,.53.35.35,0,0,0,.17.19.58.58,0,0,0,.33.07A2.52,2.52,0,0,0,101.2,29.81Z"/><path class="cls-3" d="M106.05,28.84l1,.13a2.46,2.46,0,0,1-.87,1.35,3,3,0,0,1-3.62-.28,3,3,0,0,1-.74-2.16,3.14,3.14,0,0,1,.75-2.24,2.69,2.69,0,0,1,3.79,0,3.12,3.12,0,0,1,.72,2.2v.25h-4.26a2.2,2.2,0,0,0,.54,1.44,1.54,1.54,0,0,0,1.19.5,1.47,1.47,0,0,0,.91-.28A1.76,1.76,0,0,0,106.05,28.84Zm-3.17-1.56h3.18a1.92,1.92,0,0,0-.36-1.08,1.5,1.5,0,0,0-1.2-.56,1.53,1.53,0,0,0-1.12.45A1.74,1.74,0,0,0,102.88,27.28Z"/><path class="cls-3" d="M108.25,30.68V25h.87v.87a2.39,2.39,0,0,1,.62-.8,1.06,1.06,0,0,1,.62-.19,1.85,1.85,0,0,1,1,.31l-.33.89a1.37,1.37,0,0,0-.71-.2.91.91,0,0,0-.57.19,1,1,0,0,0-.36.52,3.72,3.72,0,0,0-.16,1.13v3Z"/><path class="cls-3" d="M115.83,28.84l1,.13a2.46,2.46,0,0,1-.87,1.35,3,3,0,0,1-3.62-.28,3,3,0,0,1-.73-2.16,3.14,3.14,0,0,1,.74-2.24,2.69,2.69,0,0,1,3.79,0,3.12,3.12,0,0,1,.72,2.2v.25h-4.25a2.14,2.14,0,0,0,.53,1.44,1.55,1.55,0,0,0,1.19.5,1.47,1.47,0,0,0,.91-.28A1.76,1.76,0,0,0,115.83,28.84Zm-3.17-1.56h3.18a1.92,1.92,0,0,0-.36-1.08,1.5,1.5,0,0,0-1.2-.56,1.53,1.53,0,0,0-1.12.45A1.74,1.74,0,0,0,112.66,27.28Zm1-3,.72-1.51h1.26l-1.18,1.51Z"/><path class="cls-3" d="M117.66,29l1-.15a1.35,1.35,0,0,0,.44.88,1.6,1.6,0,0,0,1,.3,1.5,1.5,0,0,0,1-.27.79.79,0,0,0,.32-.64.59.59,0,0,0-.28-.51,3.79,3.79,0,0,0-1-.33,9,9,0,0,1-1.47-.46,1.4,1.4,0,0,1-.63-.54,1.49,1.49,0,0,1-.21-.77,1.55,1.55,0,0,1,.17-.71,1.76,1.76,0,0,1,.48-.54,2.12,2.12,0,0,1,.62-.28,2.73,2.73,0,0,1,.83-.11,3.28,3.28,0,0,1,1.18.19,1.6,1.6,0,0,1,.75.52,2.07,2.07,0,0,1,.33.89l-.94.13a1,1,0,0,0-.38-.69,1.31,1.31,0,0,0-.87-.25,1.56,1.56,0,0,0-.95.22.65.65,0,0,0-.29.52.56.56,0,0,0,.12.34,1,1,0,0,0,.37.25c.1,0,.39.12.86.25a10.92,10.92,0,0,1,1.43.45A1.36,1.36,0,0,1,122.4,29a1.59,1.59,0,0,1-.29.91,1.72,1.72,0,0,1-.81.66,2.86,2.86,0,0,1-1.2.24,2.75,2.75,0,0,1-1.7-.46A2.17,2.17,0,0,1,117.66,29Z"/><rect class="cls-4" x="6.07" y="6.07" width="0.85" height="32.3" rx="0.42"/><rect class="cls-4" x="136.61" y="6.07" width="0.85" height="32.3" rx="0.42"/></g></g></svg>