<svg xmlns="http://www.w3.org/2000/svg" viewBox="0 0 192.42 46.79"><defs><style>.cls-1{fill:#9a9fbd;}.cls-2{fill:#cb8517;}.cls-3{fill:#28203a;}.cls-4{fill:#fff;}.cls-5{fill:none;stroke:#cb8517;stroke-miterlimit:10;stroke-width:2px;}</style></defs><g id="Capa_2" data-name="Capa 2"><g id="Capa_1-2" data-name="Capa 1"><rect class="cls-1" x="26.43" y="2.34" width="143.53" height="44.45" rx="5.36"/><rect class="cls-2" x="24.44" width="143.53" height="44.45" rx="5.36"/><path class="cls-3" d="M64.65,15.54a4.28,4.28,0,0,1,1-3.07,3.58,3.58,0,0,1,2.72-1.11,3.77,3.77,0,0,1,2,.52,3.45,3.45,0,0,1,1.33,1.45,4.67,4.67,0,0,1,.46,2.11,4.69,4.69,0,0,1-.48,2.15A3.38,3.38,0,0,1,70.33,19a4,4,0,0,1-1.92.49,3.68,3.68,0,0,1-2-.54A3.44,3.44,0,0,1,65.1,17.5,4.43,4.43,0,0,1,64.65,15.54Zm1.07,0a3.14,3.14,0,0,0,.77,2.24,2.5,2.5,0,0,0,1.92.82,2.53,2.53,0,0,0,1.94-.82,3.4,3.4,0,0,0,.76-2.35,4,4,0,0,0-.33-1.68,2.47,2.47,0,0,0-1-1.11,2.6,2.6,0,0,0-1.4-.4,2.7,2.7,0,0,0-1.91.76A3.42,3.42,0,0,0,65.72,15.55Z"/><path class="cls-3" d="M73.4,21.56V13.67h.88v.74a2.13,2.13,0,0,1,.7-.65,1.91,1.91,0,0,1,1-.22,2.25,2.25,0,0,1,1.29.37A2.3,2.3,0,0,1,78.07,15a3.9,3.9,0,0,1,.28,1.51A3.79,3.79,0,0,1,78,18.05a2.39,2.39,0,0,1-.92,1.08,2.34,2.34,0,0,1-1.26.37,1.85,1.85,0,0,1-.86-.2,1.91,1.91,0,0,1-.63-.52v2.78Zm.88-5a2.48,2.48,0,0,0,.44,1.63,1.37,1.37,0,0,0,1.08.52,1.39,1.39,0,0,0,1.1-.54,2.57,2.57,0,0,0,.46-1.69,2.5,2.5,0,0,0-.45-1.63,1.36,1.36,0,0,0-1.07-.55,1.41,1.41,0,0,0-1.09.58A2.59,2.59,0,0,0,74.28,16.55Z"/><path class="cls-3" d="M81.63,18.51l.14.85a3.53,3.53,0,0,1-.73.09,1.67,1.67,0,0,1-.82-.17,1,1,0,0,1-.41-.44,3.4,3.4,0,0,1-.12-1.14V14.42H79v-.75h.7V12.25l1-.58v2h1v.75h-1v3.33a1.49,1.49,0,0,0,.06.54.4.4,0,0,0,.16.18.62.62,0,0,0,.33.07Z"/><path class="cls-3" d="M82.58,12.61V11.5h1v1.11Zm0,6.76v-5.7h1v5.7Z"/><path class="cls-3" d="M85,19.37v-5.7h.86v.8a2,2,0,0,1,.72-.68,2,2,0,0,1,1-.25,1.93,1.93,0,0,1,1,.26,1.41,1.41,0,0,1,.57.74,2,2,0,0,1,1.76-1,1.71,1.71,0,0,1,1.31.47,2,2,0,0,1,.46,1.44v3.92h-1V15.78a2.78,2.78,0,0,0-.09-.84.84.84,0,0,0-.34-.41,1.11,1.11,0,0,0-.58-.15,1.33,1.33,0,0,0-1,.4,1.77,1.77,0,0,0-.4,1.28v3.31h-1V15.66a1.58,1.58,0,0,0-.24-1,.89.89,0,0,0-.77-.32,1.43,1.43,0,0,0-.76.21,1.18,1.18,0,0,0-.5.63A3.58,3.58,0,0,0,86,16.41v3Z"/><path class="cls-3" d="M94.19,12.61V11.5h1v1.11Zm0,6.76v-5.7h1v5.7Z"/><path class="cls-3" d="M96.11,19.37v-.78l3.63-4.17-1.09,0H96.33v-.78H101v.64L97.9,17.93l-.59.66c.43,0,.84-.05,1.22-.05h2.63v.83Z"/><path class="cls-3" d="M105.85,18.67a3.62,3.62,0,0,1-1,.64,2.89,2.89,0,0,1-1.06.19A2.07,2.07,0,0,1,102.3,19a1.51,1.51,0,0,1-.5-1.17,1.54,1.54,0,0,1,.19-.77,1.47,1.47,0,0,1,.5-.55,2.19,2.19,0,0,1,.69-.32,7.59,7.59,0,0,1,.86-.15,8.68,8.68,0,0,0,1.73-.33V15.5a1.06,1.06,0,0,0-.27-.83,1.62,1.62,0,0,0-1.1-.33,1.71,1.71,0,0,0-1,.24,1.42,1.42,0,0,0-.48.84l-1-.13a2.39,2.39,0,0,1,.43-1,1.78,1.78,0,0,1,.85-.57,3.64,3.64,0,0,1,1.29-.2,3.53,3.53,0,0,1,1.19.17,1.5,1.5,0,0,1,.67.43,1.39,1.39,0,0,1,.3.66,4.58,4.58,0,0,1,0,.89V17a14.19,14.19,0,0,0,.06,1.71,2.54,2.54,0,0,0,.25.68h-1A1.85,1.85,0,0,1,105.85,18.67Zm-.08-2.16a7.49,7.49,0,0,1-1.58.36,3.41,3.41,0,0,0-.85.2.83.83,0,0,0-.38.31.82.82,0,0,0-.13.46.79.79,0,0,0,.29.64,1.23,1.23,0,0,0,.86.26,2,2,0,0,0,1-.24,1.59,1.59,0,0,0,.64-.67,2.4,2.4,0,0,0,.16-1Z"/><path class="cls-3" d="M108.23,19.37v-5.7h.87v.86a2.37,2.37,0,0,1,.62-.8,1,1,0,0,1,.62-.19,1.88,1.88,0,0,1,1,.31l-.33.9a1.41,1.41,0,0,0-.71-.21.91.91,0,0,0-.57.19,1,1,0,0,0-.36.53,3.65,3.65,0,0,0-.16,1.12v3Z"/><path class="cls-3" d="M114.94,19.37V11.5h1v7.87Z"/><path class="cls-3" d="M117,16.52a2.94,2.94,0,0,1,.89-2.35,2.64,2.64,0,0,1,1.79-.63,2.54,2.54,0,0,1,1.92.77,2.91,2.91,0,0,1,.75,2.13,3.78,3.78,0,0,1-.33,1.73,2.33,2.33,0,0,1-1,1,2.83,2.83,0,0,1-1.38.35,2.59,2.59,0,0,1-1.94-.77A3.07,3.07,0,0,1,117,16.52Zm1,0a2.41,2.41,0,0,0,.48,1.64,1.6,1.6,0,0,0,2.4,0,2.5,2.5,0,0,0,.48-1.67,2.33,2.33,0,0,0-.49-1.61,1.59,1.59,0,0,0-2.39,0A2.41,2.41,0,0,0,118,16.52Z"/><path class="cls-3" d="M123.13,17.67l1-.15a1.32,1.32,0,0,0,.45.88,1.58,1.58,0,0,0,1,.3,1.54,1.54,0,0,0,1-.27.82.82,0,0,0,.32-.63.6.6,0,0,0-.29-.52,4.28,4.28,0,0,0-1-.33,9.25,9.25,0,0,1-1.48-.46,1.43,1.43,0,0,1-.62-.54,1.46,1.46,0,0,1-.21-.77,1.4,1.4,0,0,1,.17-.7,1.56,1.56,0,0,1,.48-.54,1.83,1.83,0,0,1,.61-.29,3.5,3.5,0,0,1,2,.08,1.6,1.6,0,0,1,.75.52,2,2,0,0,1,.34.89l-1,.13a1,1,0,0,0-.37-.69,1.35,1.35,0,0,0-.87-.25,1.59,1.59,0,0,0-1,.22.65.65,0,0,0-.29.52.54.54,0,0,0,.12.34.81.81,0,0,0,.37.25c.1,0,.38.12.85.25a10.42,10.42,0,0,1,1.43.45,1.43,1.43,0,0,1,.64.51,1.37,1.37,0,0,1,.23.82,1.58,1.58,0,0,1-.28.91,1.86,1.86,0,0,1-.81.67,3.11,3.11,0,0,1-1.21.23,2.66,2.66,0,0,1-1.69-.46A2.18,2.18,0,0,1,123.13,17.67Z"/><path class="cls-3" d="M74.62,32.86V25h.88v.75a2.18,2.18,0,0,1,.7-.66,2,2,0,0,1,1-.21,2.25,2.25,0,0,1,1.29.37,2.35,2.35,0,0,1,.84,1.06,3.89,3.89,0,0,1,.29,1.5,3.81,3.81,0,0,1-.32,1.58,2.29,2.29,0,0,1-.91,1.07,2.35,2.35,0,0,1-1.26.38,1.81,1.81,0,0,1-.87-.21,2,2,0,0,1-.63-.51v2.77Zm.87-5a2.48,2.48,0,0,0,.45,1.63A1.34,1.34,0,0,0,77,30a1.4,1.4,0,0,0,1.1-.54,2.58,2.58,0,0,0,.46-1.69,2.55,2.55,0,0,0-.45-1.64,1.36,1.36,0,0,0-1.07-.54,1.4,1.4,0,0,0-1.09.58A2.55,2.55,0,0,0,75.49,27.86Z"/><path class="cls-3" d="M80.72,30.68V25h.87v.87a2.39,2.39,0,0,1,.62-.8,1.06,1.06,0,0,1,.62-.19,1.85,1.85,0,0,1,1,.31l-.33.89a1.38,1.38,0,0,0-.71-.21,1,1,0,0,0-.57.19,1.05,1.05,0,0,0-.36.53,3.72,3.72,0,0,0-.16,1.13v3Z"/><path class="cls-3" d="M84,27.83a2.93,2.93,0,0,1,.88-2.35,2.66,2.66,0,0,1,1.79-.63,2.51,2.51,0,0,1,1.92.77,2.91,2.91,0,0,1,.75,2.13,3.78,3.78,0,0,1-.33,1.73,2.33,2.33,0,0,1-1,1,2.83,2.83,0,0,1-1.38.35A2.55,2.55,0,0,1,84.78,30,3,3,0,0,1,84,27.83Zm1,0a2.43,2.43,0,0,0,.48,1.64,1.54,1.54,0,0,0,1.2.54,1.52,1.52,0,0,0,1.2-.55,2.47,2.47,0,0,0,.48-1.67,2.35,2.35,0,0,0-.48-1.6,1.58,1.58,0,0,0-2.4,0A2.41,2.41,0,0,0,85,27.83Z"/><path class="cls-3" d="M94.24,28.59l1,.12a2.48,2.48,0,0,1-.8,1.54,2.33,2.33,0,0,1-1.58.56A2.44,2.44,0,0,1,90.93,30a3.12,3.12,0,0,1-.71-2.19,3.87,3.87,0,0,1,.31-1.62,2.1,2.1,0,0,1,.93-1,2.75,2.75,0,0,1,1.36-.34,2.39,2.39,0,0,1,1.52.46,2.24,2.24,0,0,1,.76,1.34l-.94.15a1.53,1.53,0,0,0-.48-.87,1.24,1.24,0,0,0-.82-.29,1.49,1.49,0,0,0-1.19.52,2.46,2.46,0,0,0-.46,1.66,2.59,2.59,0,0,0,.44,1.67A1.44,1.44,0,0,0,92.8,30a1.31,1.31,0,0,0,1-.35A1.71,1.71,0,0,0,94.24,28.59Z"/><path class="cls-3" d="M99.92,28.84l1,.13a2.42,2.42,0,0,1-.88,1.35,2.57,2.57,0,0,1-1.63.49,2.63,2.63,0,0,1-2-.77,3.08,3.08,0,0,1-.73-2.17,3.16,3.16,0,0,1,.74-2.23,2.53,2.53,0,0,1,1.93-.79,2.41,2.41,0,0,1,1.86.77,3.07,3.07,0,0,1,.73,2.19v.26H96.69a2.19,2.19,0,0,0,.53,1.44,1.56,1.56,0,0,0,1.19.5,1.45,1.45,0,0,0,.91-.28A1.84,1.84,0,0,0,99.92,28.84Zm-3.18-1.56h3.19a1.91,1.91,0,0,0-.37-1.08,1.46,1.46,0,0,0-1.19-.56,1.52,1.52,0,0,0-1.12.45A1.75,1.75,0,0,0,96.74,27.28Z"/><path class="cls-3" d="M101.74,29l1-.16a1.32,1.32,0,0,0,.45.89,1.6,1.6,0,0,0,1,.3,1.54,1.54,0,0,0,1-.27.82.82,0,0,0,.32-.64.59.59,0,0,0-.29-.51,3.82,3.82,0,0,0-1-.33,9.61,9.61,0,0,1-1.48-.46,1.45,1.45,0,0,1-.62-.55,1.52,1.52,0,0,1,0-1.47,1.76,1.76,0,0,1,.48-.54,2,2,0,0,1,.61-.28,2.84,2.84,0,0,1,.84-.11,3.32,3.32,0,0,1,1.18.19,1.62,1.62,0,0,1,.74.52,2,2,0,0,1,.34.89l-1,.12a1,1,0,0,0-.37-.68,1.35,1.35,0,0,0-.87-.25,1.54,1.54,0,0,0-1,.22.65.65,0,0,0-.29.52.52.52,0,0,0,.12.33.82.82,0,0,0,.37.26c.1,0,.38.12.85.25a10.42,10.42,0,0,1,1.43.45,1.31,1.31,0,0,1,.64.51,1.35,1.35,0,0,1,.23.82,1.6,1.6,0,0,1-.28.91,1.77,1.77,0,0,1-.81.66,2.94,2.94,0,0,1-1.21.24,2.72,2.72,0,0,1-1.69-.46A2.18,2.18,0,0,1,101.74,29Z"/><path class="cls-3" d="M107.27,27.83a3,3,0,0,1,.88-2.35,2.67,2.67,0,0,1,1.8-.63,2.54,2.54,0,0,1,1.92.77,2.91,2.91,0,0,1,.75,2.13,3.78,3.78,0,0,1-.33,1.73,2.29,2.29,0,0,1-1,1,2.79,2.79,0,0,1-1.37.35A2.58,2.58,0,0,1,108,30,3.07,3.07,0,0,1,107.27,27.83Zm1,0a2.49,2.49,0,0,0,.47,1.64A1.54,1.54,0,0,0,110,30a1.52,1.52,0,0,0,1.2-.55,2.52,2.52,0,0,0,.47-1.67,2.35,2.35,0,0,0-.48-1.6,1.58,1.58,0,0,0-2.4,0A2.47,2.47,0,0,0,108.27,27.83Z"/><path class="cls-3" d="M113.36,29l1-.16a1.32,1.32,0,0,0,.45.89,1.58,1.58,0,0,0,1,.3,1.49,1.49,0,0,0,1-.27.8.8,0,0,0,.33-.64.59.59,0,0,0-.29-.51,3.79,3.79,0,0,0-1-.33,9,9,0,0,1-1.47-.46,1.45,1.45,0,0,1-.62-.55,1.52,1.52,0,0,1,0-1.47,1.73,1.73,0,0,1,.47-.54,2.12,2.12,0,0,1,.62-.28,2.82,2.82,0,0,1,.83-.11,3.25,3.25,0,0,1,1.18.19,1.6,1.6,0,0,1,.75.52,2.21,2.21,0,0,1,.34.89l-1,.12a1,1,0,0,0-.37-.68,1.35,1.35,0,0,0-.87-.25,1.58,1.58,0,0,0-1,.22.64.64,0,0,0-.28.52.52.52,0,0,0,.12.33A.82.82,0,0,0,115,27c.09,0,.38.12.85.25a10.42,10.42,0,0,1,1.43.45,1.36,1.36,0,0,1,.64.51,1.42,1.42,0,0,1,.23.82,1.6,1.6,0,0,1-.28.91,1.77,1.77,0,0,1-.81.66,2.94,2.94,0,0,1-1.21.24,2.72,2.72,0,0,1-1.69-.46A2.18,2.18,0,0,1,113.36,29Z"/><rect class="cls-4" x="30.52" y="6.07" width="0.85" height="32.3" rx="0.42"/><rect class="cls-4" x="161.05" y="6.07" width="0.85" height="32.3" rx="0.42"/><line class="cls-5" x1="167.97" y1="21.46" x2="190.13" y2="21.46"/><polygon class="cls-2" points="186.15 24.85 189.54 21.46 186.15 18.07 189.03 18.07 192.42 21.46 189.03 24.85 186.15 24.85"/><line class="cls-5" x1="24.44" y1="21.46" x2="2.29" y2="21.46"/><polygon class="cls-2" points="6.27 18.07 2.88 21.46 6.27 24.85 3.39 24.85 0 21.46 3.39 18.07 6.27 18.07"/></g></g></svg>