<svg xmlns="http://www.w3.org/2000/svg" viewBox="0 0 169.96 46.79"><defs><style>.cls-1{fill:#9a9fbd;}.cls-2{fill:#33a0dc;}.cls-3{fill:#28203a;}.cls-4{fill:#fff;}.cls-5{fill:none;stroke:#33a0dc;stroke-miterlimit:10;stroke-width:2px;}</style></defs><g id="Capa_2" data-name="Capa 2"><g id="Capa_1-2" data-name="Capa 1"><rect class="cls-1" x="26.43" y="2.34" width="143.53" height="44.45" rx="5.36"/><rect class="cls-2" x="24.44" width="143.53" height="44.45" rx="5.36"/><path class="cls-3" d="M50.54,19.37V11.5h1v6.94h3.88v.93Z"/><path class="cls-3" d="M56.22,16.52a2.93,2.93,0,0,1,.88-2.35,2.66,2.66,0,0,1,1.79-.63,2.55,2.55,0,0,1,1.93.77,3,3,0,0,1,.74,2.13,3.78,3.78,0,0,1-.33,1.73,2.33,2.33,0,0,1-1,1,2.83,2.83,0,0,1-1.38.35A2.55,2.55,0,0,1,57,18.73,3,3,0,0,1,56.22,16.52Zm1,0a2.41,2.41,0,0,0,.48,1.64,1.6,1.6,0,0,0,2.4,0,2.5,2.5,0,0,0,.48-1.67,2.38,2.38,0,0,0-.48-1.61,1.6,1.6,0,0,0-2.4,0A2.41,2.41,0,0,0,57.21,16.52Z"/><path class="cls-3" d="M62.52,19.84l.94.14a.93.93,0,0,0,.33.64,1.58,1.58,0,0,0,1,.27,1.74,1.74,0,0,0,1-.27,1.35,1.35,0,0,0,.49-.76,6.42,6.42,0,0,0,.07-1.24,2,2,0,0,1-1.58.75A2.15,2.15,0,0,1,63,18.52a3.24,3.24,0,0,1-.65-2,3.73,3.73,0,0,1,.3-1.51,2.36,2.36,0,0,1,.86-1.07,2.3,2.3,0,0,1,1.32-.37,2,2,0,0,1,1.66.81v-.68h.89V18.6a4.68,4.68,0,0,1-.27,1.88,1.93,1.93,0,0,1-.86.88,2.91,2.91,0,0,1-1.45.33,2.78,2.78,0,0,1-1.65-.46A1.57,1.57,0,0,1,62.52,19.84Zm.8-3.42a2.5,2.5,0,0,0,.44,1.63,1.41,1.41,0,0,0,1.12.52A1.43,1.43,0,0,0,66,18.06a2.4,2.4,0,0,0,.45-1.61A2.33,2.33,0,0,0,66,14.87a1.43,1.43,0,0,0-1.12-.53,1.38,1.38,0,0,0-1.09.52A2.34,2.34,0,0,0,63.32,16.42Z"/><path class="cls-3" d="M68.8,19.37v-5.7h.87v.86a2.37,2.37,0,0,1,.62-.8,1.06,1.06,0,0,1,.62-.19,1.88,1.88,0,0,1,1,.31l-.33.9a1.38,1.38,0,0,0-.71-.21.91.91,0,0,0-.57.19,1,1,0,0,0-.36.53,3.65,3.65,0,0,0-.16,1.12v3Z"/><path class="cls-3" d="M76.2,18.67a3.49,3.49,0,0,1-1,.64,2.85,2.85,0,0,1-1.06.19A2.07,2.07,0,0,1,72.65,19a1.63,1.63,0,0,1-.31-1.94,1.56,1.56,0,0,1,.5-.55,2.42,2.42,0,0,1,.69-.32,7.59,7.59,0,0,1,.86-.15,8.68,8.68,0,0,0,1.73-.33V15.5a1.06,1.06,0,0,0-.27-.83,1.61,1.61,0,0,0-1.1-.33,1.71,1.71,0,0,0-1,.24,1.42,1.42,0,0,0-.48.84l-.94-.13a2.26,2.26,0,0,1,.42-1,1.83,1.83,0,0,1,.85-.57,3.74,3.74,0,0,1,1.3-.2,3.57,3.57,0,0,1,1.19.17,1.34,1.34,0,0,1,1,1.09,5.58,5.58,0,0,1,0,.89V17a14.19,14.19,0,0,0,.06,1.71,2.21,2.21,0,0,0,.24.68h-1A2.05,2.05,0,0,1,76.2,18.67Zm-.08-2.16a7.34,7.34,0,0,1-1.58.36,3.2,3.2,0,0,0-.84.2.81.81,0,0,0-.39.31.91.91,0,0,0-.13.46.82.82,0,0,0,.29.64,1.23,1.23,0,0,0,.86.26,2,2,0,0,0,1-.24,1.53,1.53,0,0,0,.64-.67,2.24,2.24,0,0,0,.16-1Z"/><path class="cls-3" d="M78.58,19.37v-5.7h.87v.86a2.5,2.5,0,0,1,.62-.8,1.06,1.06,0,0,1,.62-.19,1.85,1.85,0,0,1,1,.31l-.33.9a1.38,1.38,0,0,0-.71-.21.91.91,0,0,0-.57.19,1,1,0,0,0-.36.53,3.65,3.65,0,0,0-.16,1.12v3Z"/><path class="cls-3" d="M85.29,19.37V11.5h1v7.87Z"/><path class="cls-3" d="M91.48,18.67a3.49,3.49,0,0,1-1,.64,2.85,2.85,0,0,1-1.06.19A2.07,2.07,0,0,1,87.93,19a1.63,1.63,0,0,1-.31-1.94,1.56,1.56,0,0,1,.5-.55,2.42,2.42,0,0,1,.69-.32,7.59,7.59,0,0,1,.86-.15,8.68,8.68,0,0,0,1.73-.33V15.5a1.06,1.06,0,0,0-.27-.83,1.61,1.61,0,0,0-1.1-.33,1.71,1.71,0,0,0-1,.24,1.47,1.47,0,0,0-.48.84l-.94-.13a2.26,2.26,0,0,1,.42-1,1.83,1.83,0,0,1,.85-.57,3.74,3.74,0,0,1,1.3-.2,3.57,3.57,0,0,1,1.19.17,1.34,1.34,0,0,1,1,1.09,5.58,5.58,0,0,1,0,.89V17a14.19,14.19,0,0,0,.06,1.71,2.21,2.21,0,0,0,.24.68h-1A2.05,2.05,0,0,1,91.48,18.67Zm-.08-2.16a7.34,7.34,0,0,1-1.58.36,3.2,3.2,0,0,0-.84.2.81.81,0,0,0-.39.31.91.91,0,0,0-.13.46.82.82,0,0,0,.29.64,1.23,1.23,0,0,0,.86.26,2,2,0,0,0,1-.24,1.53,1.53,0,0,0,.64-.67,2.24,2.24,0,0,0,.16-1Z"/><path class="cls-3" d="M100.84,17.53l1,.13A2.41,2.41,0,0,1,101,19a3,3,0,0,1-3.62-.29,3,3,0,0,1-.73-2.16,3.18,3.18,0,0,1,.74-2.24,2.49,2.49,0,0,1,1.92-.79,2.42,2.42,0,0,1,1.87.78,3.07,3.07,0,0,1,.73,2.19s0,.14,0,.26H97.61a2.14,2.14,0,0,0,.53,1.43,1.55,1.55,0,0,0,1.19.5,1.51,1.51,0,0,0,.91-.27A1.92,1.92,0,0,0,100.84,17.53ZM97.66,16h3.19a2,2,0,0,0-.37-1.08,1.5,1.5,0,0,0-1.2-.56,1.55,1.55,0,0,0-1.12.45A1.76,1.76,0,0,0,97.66,16Z"/><path class="cls-3" d="M104.63,19.37l-2.17-5.7h1l1.23,3.41c.13.37.25.75.36,1.15q.14-.45.36-1.08l1.27-3.48h1l-2.15,5.7Z"/><path class="cls-3" d="M108.19,16.52a2.93,2.93,0,0,1,.88-2.35,2.66,2.66,0,0,1,1.79-.63,2.55,2.55,0,0,1,1.93.77,3,3,0,0,1,.74,2.13,3.78,3.78,0,0,1-.33,1.73,2.33,2.33,0,0,1-1,1,2.83,2.83,0,0,1-1.38.35,2.55,2.55,0,0,1-1.93-.77A3,3,0,0,1,108.19,16.52Zm1,0a2.41,2.41,0,0,0,.48,1.64,1.6,1.6,0,0,0,2.4,0,2.5,2.5,0,0,0,.48-1.67,2.38,2.38,0,0,0-.48-1.61,1.6,1.6,0,0,0-2.4,0A2.41,2.41,0,0,0,109.18,16.52Z"/><path class="cls-3" d="M114.64,19.37V11.5h1v7.87Z"/><path class="cls-3" d="M120.85,19.37v-.84a2.09,2.09,0,0,1-1.81,1,2.26,2.26,0,0,1-.94-.19,1.57,1.57,0,0,1-.66-.49,1.73,1.73,0,0,1-.29-.72,4.82,4.82,0,0,1-.06-.9V13.67h1v3.16a5.47,5.47,0,0,0,.06,1,1,1,0,0,0,.39.6,1.24,1.24,0,0,0,.73.22,1.61,1.61,0,0,0,.82-.23,1.26,1.26,0,0,0,.54-.6,3.2,3.2,0,0,0,.16-1.12v-3h1v5.7Z"/><path class="cls-3" d="M127,17.28l1,.12a2.43,2.43,0,0,1-.8,1.54,2.3,2.3,0,0,1-1.57.56,2.48,2.48,0,0,1-1.89-.77,3.12,3.12,0,0,1-.71-2.19,3.9,3.9,0,0,1,.31-1.62,2.1,2.1,0,0,1,.93-1,2.77,2.77,0,0,1,1.36-.34,2.32,2.32,0,0,1,1.52.47,2.12,2.12,0,0,1,.76,1.33l-.94.15a1.57,1.57,0,0,0-.48-.87,1.23,1.23,0,0,0-.82-.29,1.51,1.51,0,0,0-1.19.53,2.5,2.5,0,0,0-.45,1.65,2.51,2.51,0,0,0,.44,1.67,1.41,1.41,0,0,0,1.15.52,1.35,1.35,0,0,0,1-.35A1.73,1.73,0,0,0,127,17.28Z"/><path class="cls-3" d="M128.73,12.61V11.5h1v1.11Zm0,6.76v-5.7h1v5.7Z"/><path class="cls-3" d="M130.81,16.52a3,3,0,0,1,.88-2.35,2.67,2.67,0,0,1,1.8-.63,2.54,2.54,0,0,1,1.92.77,2.91,2.91,0,0,1,.75,2.13,3.78,3.78,0,0,1-.33,1.73,2.29,2.29,0,0,1-1,1,2.82,2.82,0,0,1-1.37.35,2.58,2.58,0,0,1-1.94-.77A3.07,3.07,0,0,1,130.81,16.52Zm1,0a2.47,2.47,0,0,0,.47,1.64,1.54,1.54,0,0,0,1.21.54,1.5,1.5,0,0,0,1.19-.54,2.5,2.5,0,0,0,.48-1.67,2.38,2.38,0,0,0-.48-1.61,1.6,1.6,0,0,0-2.4,0A2.47,2.47,0,0,0,131.81,16.52ZM133,13l.71-1.51h1.27L133.75,13Z"/><path class="cls-3" d="M137.29,19.37v-5.7h.87v.81a2,2,0,0,1,1.81-.94,2.44,2.44,0,0,1,.95.18,1.53,1.53,0,0,1,.65.49,2,2,0,0,1,.3.71,5.27,5.27,0,0,1,0,.94v3.51h-1V15.9a2.73,2.73,0,0,0-.11-.88.93.93,0,0,0-.41-.47,1.22,1.22,0,0,0-.67-.17,1.59,1.59,0,0,0-1.07.39,2,2,0,0,0-.44,1.49v3.11Z"/><path class="cls-3" d="M82.93,28.59l.95.12a2.48,2.48,0,0,1-.8,1.54,2.35,2.35,0,0,1-1.58.56A2.44,2.44,0,0,1,79.62,30a3.07,3.07,0,0,1-.71-2.19,4,4,0,0,1,.3-1.62,2.17,2.17,0,0,1,.94-1,2.75,2.75,0,0,1,1.36-.34,2.39,2.39,0,0,1,1.52.46,2.18,2.18,0,0,1,.75,1.34l-.93.15a1.53,1.53,0,0,0-.48-.87,1.25,1.25,0,0,0-.83-.29,1.48,1.48,0,0,0-1.18.52,2.46,2.46,0,0,0-.46,1.66,2.59,2.59,0,0,0,.44,1.67,1.44,1.44,0,0,0,1.15.52,1.31,1.31,0,0,0,1-.35A1.71,1.71,0,0,0,82.93,28.59Z"/><path class="cls-3" d="M88.44,30.68v-.84a2.1,2.1,0,0,1-1.81,1,2.26,2.26,0,0,1-.94-.2,1.6,1.6,0,0,1-.65-.48,2,2,0,0,1-.3-.72,4.82,4.82,0,0,1-.06-.9V25h1v3.17a5.62,5.62,0,0,0,.06,1,1.06,1.06,0,0,0,.38.6,1.24,1.24,0,0,0,.73.22,1.59,1.59,0,0,0,.82-.23,1.23,1.23,0,0,0,.54-.61A2.89,2.89,0,0,0,88.34,28V25h1v5.71Z"/><path class="cls-3" d="M90.8,30.68V22.8h1v7.88Z"/><path class="cls-3" d="M95.38,29.81l.14.86a3.47,3.47,0,0,1-.74.08,1.64,1.64,0,0,1-.81-.16.91.91,0,0,1-.41-.44A3.4,3.4,0,0,1,93.44,29V25.73h-.71V25h.71V23.56l1-.58v2h1v.76h-1v3.33a1.8,1.8,0,0,0,0,.53.44.44,0,0,0,.17.19.62.62,0,0,0,.33.07A2.62,2.62,0,0,0,95.38,29.81Z"/><path class="cls-3" d="M100.06,30.68v-.84a2.11,2.11,0,0,1-1.81,1,2.26,2.26,0,0,1-.94-.2,1.53,1.53,0,0,1-.65-.48,1.8,1.8,0,0,1-.3-.72,4.82,4.82,0,0,1-.06-.9V25h1v3.17a7.21,7.21,0,0,0,0,1,1.07,1.07,0,0,0,.39.6,1.24,1.24,0,0,0,.73.22,1.61,1.61,0,0,0,.82-.23,1.28,1.28,0,0,0,.54-.61A3.1,3.1,0,0,0,100,28V25h1v5.71Z"/><path class="cls-3" d="M102.43,30.68V25h.87v.87a2.39,2.39,0,0,1,.61-.8,1.08,1.08,0,0,1,.62-.19,1.88,1.88,0,0,1,1,.31l-.34.89a1.36,1.36,0,0,0-.71-.21.92.92,0,0,0-.56.19,1.05,1.05,0,0,0-.36.53,3.72,3.72,0,0,0-.17,1.13v3Z"/><path class="cls-3" d="M109.82,30a3.67,3.67,0,0,1-1,.64,3.12,3.12,0,0,1-1.07.19,2.11,2.11,0,0,1-1.44-.46,1.52,1.52,0,0,1-.51-1.18,1.61,1.61,0,0,1,.19-.76,1.7,1.7,0,0,1,.5-.56,2.33,2.33,0,0,1,.7-.31,7.59,7.59,0,0,1,.86-.15,8.55,8.55,0,0,0,1.72-.33c0-.13,0-.22,0-.25a1,1,0,0,0-.28-.84,1.59,1.59,0,0,0-1.1-.33,1.75,1.75,0,0,0-1,.24,1.45,1.45,0,0,0-.48.85l-1-.13a2.53,2.53,0,0,1,.42-1,1.86,1.86,0,0,1,.86-.57,3.64,3.64,0,0,1,1.29-.2,3.3,3.3,0,0,1,1.19.17,1.55,1.55,0,0,1,.67.43,1.44,1.44,0,0,1,.3.66,5.58,5.58,0,0,1,0,.89v1.29a13.86,13.86,0,0,0,.06,1.7,2,2,0,0,0,.25.69h-1A2.12,2.12,0,0,1,109.82,30Zm-.08-2.17a6.57,6.57,0,0,1-1.58.37,4.11,4.11,0,0,0-.84.19.92.92,0,0,0-.38.32.82.82,0,0,0-.13.46.81.81,0,0,0,.29.64,1.25,1.25,0,0,0,.85.26,2,2,0,0,0,1-.24,1.59,1.59,0,0,0,.64-.67,2.43,2.43,0,0,0,.15-1Z"/><path class="cls-3" d="M112.2,30.68V22.8h1v7.88Z"/><rect class="cls-4" x="30.52" y="6.07" width="0.85" height="32.3" rx="0.42"/><rect class="cls-4" x="161.05" y="6.07" width="0.85" height="32.3" rx="0.42"/><line class="cls-5" x1="24.44" y1="21.46" x2="2.29" y2="21.46"/><polygon class="cls-2" points="6.27 18.07 2.88 21.46 6.27 24.85 3.39 24.85 0 21.46 3.39 18.07 6.27 18.07"/></g></g></svg>