<svg xmlns="http://www.w3.org/2000/svg" viewBox="0 0 598.88 103.52"><defs><style>.cls-1{fill:#add9f1;}.cls-2{fill:#28203a;}.cls-3{fill:#33a0dc;}.cls-4,.cls-5,.cls-6,.cls-7{fill:none;stroke-miterlimit:10;}.cls-4,.cls-5,.cls-6{stroke:#9d9d9c;stroke-linecap:round;}.cls-5{stroke-dasharray:0 3.99;}.cls-6{stroke-dasharray:0 3.98;}.cls-7{stroke:#33a0dc;stroke-width:2px;}</style></defs><g id="Capa_2" data-name="Capa 2"><g id="Capa_1-2" data-name="Capa 1"><rect class="cls-1" x="0.5" y="12.17" width="37.3" height="91.35"/><path class="cls-2" d="M19.15,89.35l-7.87-3V85.21L19.15,82v1.18l-2.38.92v3.29l2.38.87Zm-3.23-2.27V84.41l-2.18.83c-.67.25-1.21.43-1.64.55a10.33,10.33,0,0,1,1.51.43Z"/><path class="cls-2" d="M21.34,81.28H13.45V80.4h.74a2.31,2.31,0,0,1-.66-.71,2,2,0,0,1-.21-1,2.27,2.27,0,0,1,.37-1.29,2.35,2.35,0,0,1,1.06-.84,3.89,3.89,0,0,1,1.5-.29,3.81,3.81,0,0,1,1.58.32,2.37,2.37,0,0,1,1.08.91,2.42,2.42,0,0,1,.37,1.26,1.81,1.81,0,0,1-.21.87,1.87,1.87,0,0,1-.51.63h2.78Zm-5-.88A2.54,2.54,0,0,0,18,80a1.37,1.37,0,0,0,.52-1.08,1.42,1.42,0,0,0-.54-1.11,2.62,2.62,0,0,0-1.69-.46,2.5,2.5,0,0,0-1.63.45,1.34,1.34,0,0,0-.55,1.07,1.41,1.41,0,0,0,.58,1.1A2.65,2.65,0,0,0,16.33,80.4Z"/><path class="cls-2" d="M19.15,75.17h-5.7V74.3h.86a2.37,2.37,0,0,1-.8-.62,1,1,0,0,1-.19-.62,1.88,1.88,0,0,1,.31-1l.9.33a1.41,1.41,0,0,0-.21.71.91.91,0,0,0,.19.57A1,1,0,0,0,15,74a3.65,3.65,0,0,0,1.12.16h3Z"/><path class="cls-2" d="M17.31,67.59l.13-1a2.48,2.48,0,0,1,1.36.88,3,3,0,0,1-.29,3.62,3.07,3.07,0,0,1-2.16.73,3.18,3.18,0,0,1-2.24-.74,2.52,2.52,0,0,1-.79-1.92,2.42,2.42,0,0,1,.78-1.87,3.05,3.05,0,0,1,2.19-.73h.25v4.25A2.19,2.19,0,0,0,18,70.29a1.56,1.56,0,0,0,.5-1.19,1.45,1.45,0,0,0-.28-.91A1.84,1.84,0,0,0,17.31,67.59Zm-1.56,3.18V67.58a1.91,1.91,0,0,0-1.08.37,1.46,1.46,0,0,0-.56,1.19,1.52,1.52,0,0,0,.45,1.12A1.75,1.75,0,0,0,15.75,70.77Z"/><path class="cls-2" d="M19.15,65.38h-5.7v-.87h.81a2.05,2.05,0,0,1-.94-1.82,2.39,2.39,0,0,1,.18-.94A1.53,1.53,0,0,1,14,61.1a1.68,1.68,0,0,1,.71-.3,5,5,0,0,1,.94-.06h3.51v1H15.68a2.73,2.73,0,0,0-.88.11,1,1,0,0,0-.47.4,1.25,1.25,0,0,0-.18.68,1.57,1.57,0,0,0,.4,1.06,1.91,1.91,0,0,0,1.48.45h3.12Z"/><path class="cls-2" d="M19.15,55.56h-.72a1.76,1.76,0,0,1,.85,1.6,2.24,2.24,0,0,1-.38,1.25,2.4,2.4,0,0,1-1,.88,3.61,3.61,0,0,1-1.55.32,4.28,4.28,0,0,1-1.55-.28,2.28,2.28,0,0,1-1.06-.86,2.25,2.25,0,0,1-.37-1.27,2,2,0,0,1,.21-.92,2,2,0,0,1,.57-.66H11.28v-1h7.87ZM16.3,58.62a2.47,2.47,0,0,0,1.64-.47,1.38,1.38,0,0,0,.54-1.09A1.36,1.36,0,0,0,18,56a2.39,2.39,0,0,0-1.59-.45,2.64,2.64,0,0,0-1.72.46,1.39,1.39,0,0,0-.54,1.11,1.31,1.31,0,0,0,.52,1.07A2.59,2.59,0,0,0,16.3,58.62Z"/><path class="cls-2" d="M12.39,53.14H11.28v-1h1.11Zm6.76,0h-5.7v-1h5.7Z"/><path class="cls-2" d="M19.15,51.21h-.78L14.2,47.58c0,.41,0,.77,0,1.09V51h-.78V46.33h.63l3.63,3.09.66.6c0-.44-.05-.84-.05-1.22V46.16h.83Z"/><path class="cls-2" d="M18.45,41.48a3.58,3.58,0,0,1,.64,1,2.9,2.9,0,0,1,.19,1.07A2,2,0,0,1,18.82,45a1.52,1.52,0,0,1-1.17.51,1.66,1.66,0,0,1-.77-.19,1.7,1.7,0,0,1-.56-.5,2.33,2.33,0,0,1-.31-.7,7.19,7.19,0,0,1-.15-.86,8.55,8.55,0,0,0-.33-1.72h-.25a1.06,1.06,0,0,0-.84.28,1.64,1.64,0,0,0-.32,1.1,1.67,1.67,0,0,0,.24,1,1.48,1.48,0,0,0,.84.49l-.13.94a2.53,2.53,0,0,1-1-.42,1.81,1.81,0,0,1-.57-.86,3.64,3.64,0,0,1-.2-1.29,3.33,3.33,0,0,1,.17-1.19,1.34,1.34,0,0,1,1.09-1,5.58,5.58,0,0,1,.89-.05h1.29a14.19,14.19,0,0,0,1.71-.06,2,2,0,0,0,.68-.25v1A2.12,2.12,0,0,1,18.45,41.48Zm-2.16.08a7.34,7.34,0,0,1,.36,1.58,3.31,3.31,0,0,0,.2.84.78.78,0,0,0,.31.38.83.83,0,0,0,.46.14.8.8,0,0,0,.64-.3,1.2,1.2,0,0,0,.26-.85,2,2,0,0,0-.24-1,1.59,1.59,0,0,0-.67-.64,2.43,2.43,0,0,0-1-.15Z"/><path class="cls-2" d="M12.4,39.09H11.28v-1H12.4Zm9,1.22-.82-.18a2,2,0,0,0,.08-.46.53.53,0,0,0-.2-.44,2,2,0,0,0-1-.14h-6v-1h6a2.89,2.89,0,0,1,1.47.27,1.28,1.28,0,0,1,.53,1.16A2.68,2.68,0,0,1,21.36,40.31Z"/><path class="cls-2" d="M17.31,32.73l.13-1a2.48,2.48,0,0,1,1.36.88,3,3,0,0,1-.29,3.62,3.07,3.07,0,0,1-2.16.73,3.18,3.18,0,0,1-2.24-.74,2.52,2.52,0,0,1-.79-1.92,2.42,2.42,0,0,1,.78-1.87,3.05,3.05,0,0,1,2.19-.73h.25V36A2.19,2.19,0,0,0,18,35.43a1.56,1.56,0,0,0,.5-1.19,1.45,1.45,0,0,0-.28-.91A1.84,1.84,0,0,0,17.31,32.73Zm-1.56,3.18V32.72a1.91,1.91,0,0,0-1.08.37,1.46,1.46,0,0,0-.56,1.19,1.52,1.52,0,0,0,.45,1.12A1.75,1.75,0,0,0,15.75,35.91Z"/><path class="cls-2" d="M31.85,88l-.91.11a2,2,0,0,0,.08-.56,1.08,1.08,0,0,0-.1-.51.84.84,0,0,0-.3-.32,4.68,4.68,0,0,0-.72-.29l-.24-.09L24,88.54v-1l3.3-1.18a12.74,12.74,0,0,1,1.32-.42,11.5,11.5,0,0,1-1.3-.4L24,84.29v-1l5.8,2.17A11.45,11.45,0,0,1,31,86a1.91,1.91,0,0,1,.7.59,1.39,1.39,0,0,1,.22.8A1.89,1.89,0,0,1,31.85,88Z"/><path class="cls-2" d="M29.65,75.74h-.72a1.76,1.76,0,0,1,.85,1.6,2.24,2.24,0,0,1-.38,1.25,2.4,2.4,0,0,1-1,.88,3.61,3.61,0,0,1-1.55.32,4.08,4.08,0,0,1-1.55-.29,2.2,2.2,0,0,1-1.06-.85,2.25,2.25,0,0,1-.37-1.27,2,2,0,0,1,.21-.92,2,2,0,0,1,.57-.66H21.78v-1h7.87ZM26.8,78.8a2.47,2.47,0,0,0,1.64-.47A1.38,1.38,0,0,0,29,77.24a1.36,1.36,0,0,0-.51-1.07,2.39,2.39,0,0,0-1.59-.45,2.7,2.7,0,0,0-1.72.45,1.42,1.42,0,0,0-.54,1.12,1.31,1.31,0,0,0,.52,1.07A2.59,2.59,0,0,0,26.8,78.8Z"/><path class="cls-2" d="M27.81,69.42l.13-1a2.52,2.52,0,0,1,1.36.87,2.66,2.66,0,0,1,.48,1.64,2.62,2.62,0,0,1-.77,2,3,3,0,0,1-2.16.74,3.14,3.14,0,0,1-2.24-.75A2.49,2.49,0,0,1,23.82,71a2.44,2.44,0,0,1,.78-1.87,3.09,3.09,0,0,1,2.19-.72H27v4.26a2.2,2.2,0,0,0,1.44-.54,1.54,1.54,0,0,0,.5-1.19A1.47,1.47,0,0,0,28.7,70,1.76,1.76,0,0,0,27.81,69.42Zm-1.56,3.17V69.41a1.92,1.92,0,0,0-1.08.36,1.5,1.5,0,0,0-.56,1.2,1.53,1.53,0,0,0,.45,1.12A1.74,1.74,0,0,0,26.25,72.59Z"/><path class="cls-2" d="M28,67.59l-.15-1a1.41,1.41,0,0,0,.88-.45,1.6,1.6,0,0,0,.3-1,1.52,1.52,0,0,0-.27-1,.82.82,0,0,0-.63-.32.59.59,0,0,0-.52.28,4.43,4.43,0,0,0-.33,1,9.61,9.61,0,0,1-.46,1.48,1.43,1.43,0,0,1-.54.62,1.49,1.49,0,0,1-.77.21,1.58,1.58,0,0,1-.71-.17,1.76,1.76,0,0,1-.54-.48,2,2,0,0,1-.28-.61,3.22,3.22,0,0,1-.11-.84A3.28,3.28,0,0,1,24,64.15a1.6,1.6,0,0,1,.52-.75,2.07,2.07,0,0,1,.89-.33l.13.94a1,1,0,0,0-.69.38,1.33,1.33,0,0,0-.25.87,1.54,1.54,0,0,0,.22.95.65.65,0,0,0,.52.29.54.54,0,0,0,.34-.12.81.81,0,0,0,.25-.37c0-.1.12-.38.25-.86a10.92,10.92,0,0,1,.45-1.43,1.39,1.39,0,0,1,.51-.63,1.35,1.35,0,0,1,.82-.24,1.59,1.59,0,0,1,.91.29,1.86,1.86,0,0,1,.67.81,3.09,3.09,0,0,1,.23,1.2,2.73,2.73,0,0,1-.46,1.7A2.12,2.12,0,0,1,28,67.59Z"/><path class="cls-2" d="M29,58a3.62,3.62,0,0,1,.64,1,2.85,2.85,0,0,1,.19,1.06,2.07,2.07,0,0,1-.46,1.45,1.51,1.51,0,0,1-1.17.5,1.54,1.54,0,0,1-.77-.19,1.5,1.5,0,0,1-.56-.5,2.17,2.17,0,0,1-.31-.69,7.59,7.59,0,0,1-.15-.86A8.68,8.68,0,0,0,26,58.06h-.25a1.1,1.1,0,0,0-.84.27,1.68,1.68,0,0,0-.32,1.1,1.71,1.71,0,0,0,.24,1,1.42,1.42,0,0,0,.84.48l-.13.95a2.39,2.39,0,0,1-1-.43,1.78,1.78,0,0,1-.57-.85,3.7,3.7,0,0,1-.2-1.3A3.27,3.27,0,0,1,24,58.11a1.5,1.5,0,0,1,.43-.67,1.45,1.45,0,0,1,.66-.31,6,6,0,0,1,.89,0h1.29A11.65,11.65,0,0,0,29,57a2.21,2.21,0,0,0,.68-.24v1A1.9,1.9,0,0,1,29,58Zm-2.16.08a7.49,7.49,0,0,1,.36,1.58,3.41,3.41,0,0,0,.2.85.83.83,0,0,0,.31.38.86.86,0,0,0,1.1-.16,1.23,1.23,0,0,0,.26-.86,2,2,0,0,0-.24-1,1.59,1.59,0,0,0-.67-.64,2.4,2.4,0,0,0-1-.16Z"/><path class="cls-2" d="M29.65,55.6H24v-.87h.86a2.37,2.37,0,0,1-.8-.62,1.06,1.06,0,0,1-.19-.62,1.88,1.88,0,0,1,.31-1l.9.33a1.38,1.38,0,0,0-.21.71.91.91,0,0,0,.19.57,1,1,0,0,0,.53.36,3.65,3.65,0,0,0,1.12.16h3Z"/><path class="cls-2" d="M29.65,51.93H24v-.86h.86a2.5,2.5,0,0,1-.8-.62,1.06,1.06,0,0,1-.19-.62,1.82,1.82,0,0,1,.31-1l.9.33a1.38,1.38,0,0,0-.21.71.91.91,0,0,0,.19.57,1,1,0,0,0,.53.36,3.65,3.65,0,0,0,1.12.16h3Z"/><path class="cls-2" d="M26.8,48.62a2.93,2.93,0,0,1-2.35-.88A2.66,2.66,0,0,1,23.82,46,2.55,2.55,0,0,1,24.59,44a3,3,0,0,1,2.13-.74,3.78,3.78,0,0,1,1.73.33,2.33,2.33,0,0,1,1,1A2.83,2.83,0,0,1,29.78,46,2.55,2.55,0,0,1,29,47.88,3,3,0,0,1,26.8,48.62Zm0-1a2.41,2.41,0,0,0,1.64-.48,1.6,1.6,0,0,0,0-2.4,2.5,2.5,0,0,0-1.67-.48,2.38,2.38,0,0,0-1.61.48,1.6,1.6,0,0,0,0,2.4A2.41,2.41,0,0,0,26.8,47.63Z"/><path class="cls-2" d="M29.65,42.17H21.78v-1h7.87Z"/><path class="cls-2" d="M29.65,39.72H21.78v-1h7.87Z"/><path class="cls-2" d="M26.8,37.62a3,3,0,0,1-2.35-.88,2.67,2.67,0,0,1-.63-1.8A2.54,2.54,0,0,1,24.59,33a2.91,2.91,0,0,1,2.13-.75,3.78,3.78,0,0,1,1.73.33,2.33,2.33,0,0,1,1,1,2.83,2.83,0,0,1,.35,1.38A2.58,2.58,0,0,1,29,36.88,3.07,3.07,0,0,1,26.8,37.62Zm0-1a2.41,2.41,0,0,0,1.64-.48,1.6,1.6,0,0,0,0-2.4,2.5,2.5,0,0,0-1.67-.47,2.38,2.38,0,0,0-1.61.48,1.59,1.59,0,0,0,0,2.39A2.41,2.41,0,0,0,26.8,36.62Z"/><line class="cls-3" x1="0.5" y1="12.22" x2="335.91" y2="12.22"/><line class="cls-4" x1="0.5" y1="12.22" x2="0.5" y2="12.22"/><line class="cls-5" x1="4.49" y1="12.22" x2="333.91" y2="12.22"/><line class="cls-4" x1="335.91" y1="12.22" x2="335.91" y2="12.22"/><line class="cls-3" x1="367.36" y1="12.22" x2="598.38" y2="12.22"/><line class="cls-4" x1="367.36" y1="12.22" x2="367.36" y2="12.22"/><line class="cls-6" x1="371.35" y1="12.22" x2="596.39" y2="12.22"/><line class="cls-4" x1="598.38" y1="12.22" x2="598.38" y2="12.22"/><line class="cls-7" x1="349.59" y1="24.44" x2="349.59" y2="2.29"/><polygon class="cls-3" points="352.98 6.27 349.58 2.88 346.19 6.27 346.19 3.39 349.58 0 352.98 3.39 352.98 6.27"/></g></g></svg>