<svg xmlns="http://www.w3.org/2000/svg" viewBox="0 0 142.64 101.03"><defs><style>.cls-1{fill:#cb8517;}.cls-2{fill:#28203a;}.cls-3{fill:#986411;}.cls-4{fill:#fff;}</style></defs><g id="Capa_2" data-name="Capa 2"><g id="Capa_1-2" data-name="Capa 1"><rect class="cls-1" width="142.64" height="28.77" rx="14.38"/><path class="cls-2" d="M41.22,9.54a4.24,4.24,0,0,1,.29-1.65,3.12,3.12,0,0,1,.6-.88A2.35,2.35,0,0,1,43,6.43a3.5,3.5,0,0,1,1.38-.26,3,3,0,0,1,2.28.89,3.39,3.39,0,0,1,.86,2.45A3.38,3.38,0,0,1,46.62,12a3.37,3.37,0,0,1-4.55,0A3.32,3.32,0,0,1,41.22,9.54Zm1.34,0a2.46,2.46,0,0,0,.5,1.66,1.65,1.65,0,0,0,1.29.56,1.61,1.61,0,0,0,1.27-.56,2.41,2.41,0,0,0,.5-1.68,2.43,2.43,0,0,0-.48-1.65,1.67,1.67,0,0,0-1.29-.54,1.65,1.65,0,0,0-1.3.55A2.4,2.4,0,0,0,42.56,9.5Z"/><path class="cls-2" d="M48.44,8.06h1.15v.68a1.76,1.76,0,0,1,.61-.57A1.7,1.7,0,0,1,51,8a1.77,1.77,0,0,1,1.38.64A2.59,2.59,0,0,1,53,10.37a2.64,2.64,0,0,1-.57,1.81,1.76,1.76,0,0,1-1.39.65,1.63,1.63,0,0,1-.7-.15,2.29,2.29,0,0,1-.66-.53V14.5H48.44Zm1.22,2.25A1.82,1.82,0,0,0,50,11.48a1,1,0,0,0,.76.37.89.89,0,0,0,.72-.34,1.8,1.8,0,0,0,.28-1.14,1.69,1.69,0,0,0-.29-1.09.93.93,0,0,0-.73-.35,1,1,0,0,0-.75.35A1.54,1.54,0,0,0,49.66,10.31Z"/><path class="cls-2" d="M56.11,8.06V9h-.84v1.88a6.69,6.69,0,0,0,0,.67.29.29,0,0,0,.11.16.37.37,0,0,0,.21.06,1.64,1.64,0,0,0,.5-.12l.1,1a2.5,2.5,0,0,1-1,.18,1.66,1.66,0,0,1-.61-.11.93.93,0,0,1-.39-.29,1.18,1.18,0,0,1-.17-.48,5.57,5.57,0,0,1,0-.87V9h-.57v-1H54V7.13l1.24-.72V8.06Z"/><path class="cls-2" d="M57,7.43V6.28H58.2V7.43Zm0,5.3V8.06H58.2v4.67Z"/><path class="cls-2" d="M59.38,8.06h1.13V8.7A1.84,1.84,0,0,1,62,8a1.5,1.5,0,0,1,.78.19,1.39,1.39,0,0,1,.54.56A2,2,0,0,1,64,8.14,1.56,1.56,0,0,1,64.71,8a1.7,1.7,0,0,1,.87.21,1.26,1.26,0,0,1,.53.61,2.58,2.58,0,0,1,.13,1v3H65V10.06a2.09,2.09,0,0,0-.13-.9.6.6,0,0,0-.53-.26.84.84,0,0,0-.49.16.89.89,0,0,0-.33.46,3.62,3.62,0,0,0-.1,1v2.25H62.2V10.17a3.17,3.17,0,0,0-.07-.88.52.52,0,0,0-.2-.29.61.61,0,0,0-.38-.1.9.9,0,0,0-.51.15.86.86,0,0,0-.33.45,3.11,3.11,0,0,0-.1,1v2.27H59.38Z"/><path class="cls-2" d="M67.47,7.43V6.28h1.24V7.43Zm0,5.3V8.06h1.24v4.67Z"/><path class="cls-2" d="M69.47,12.73v-1l1.75-2c.29-.33.5-.57.64-.7H69.65v-1H73.5v.87L71.72,11l-.63.68.64,0h1.91v1.09Z"/><path class="cls-2" d="M75.39,9.48l-1.12-.2a1.81,1.81,0,0,1,.65-1A2.37,2.37,0,0,1,76.29,8a3,3,0,0,1,1.24.2,1.2,1.2,0,0,1,.56.5,2.48,2.48,0,0,1,.17,1.1v1.44a5,5,0,0,0,.06.91,2.38,2.38,0,0,0,.22.63H77.31a2.3,2.3,0,0,1-.12-.37.93.93,0,0,0,0-.14,2.23,2.23,0,0,1-.67.46,2,2,0,0,1-.77.15,1.61,1.61,0,0,1-1.14-.39,1.28,1.28,0,0,1-.41-1,1.35,1.35,0,0,1,.18-.7,1.29,1.29,0,0,1,.53-.48,4.63,4.63,0,0,1,1-.29,6.74,6.74,0,0,0,1.2-.3V9.56a.63.63,0,0,0-.18-.51,1.07,1.07,0,0,0-.66-.15.89.89,0,0,0-.52.13A.93.93,0,0,0,75.39,9.48Zm1.66,1a5.45,5.45,0,0,1-.76.19,2.53,2.53,0,0,0-.67.22.51.51,0,0,0-.24.43.62.62,0,0,0,.19.45.68.68,0,0,0,.5.19,1,1,0,0,0,.63-.22.8.8,0,0,0,.3-.41,2.45,2.45,0,0,0,0-.6Z"/><path class="cls-2" d="M80.66,12.73H79.42V8.06h1.15v.66a2.05,2.05,0,0,1,.53-.62A1,1,0,0,1,81.63,8a1.53,1.53,0,0,1,.82.24l-.38,1.07a1.15,1.15,0,0,0-.58-.2.7.7,0,0,0-.44.14,1,1,0,0,0-.29.52,7.31,7.31,0,0,0-.1,1.56Z"/><path class="cls-2" d="M85.48,12.73V6.28h1.23v6.45Z"/><path class="cls-2" d="M87.7,10.33A2.53,2.53,0,0,1,88,9.14a2,2,0,0,1,.86-.88A2.46,2.46,0,0,1,90.1,8a2.32,2.32,0,0,1,1.73.69,2.35,2.35,0,0,1,.68,1.74,2.44,2.44,0,0,1-.68,1.76,2.33,2.33,0,0,1-1.72.69,2.78,2.78,0,0,1-1.23-.29,2,2,0,0,1-.88-.85A2.85,2.85,0,0,1,87.7,10.33Zm1.26.06a1.56,1.56,0,0,0,.33,1.07,1.07,1.07,0,0,0,.81.37,1,1,0,0,0,.81-.37,1.59,1.59,0,0,0,.33-1.08,1.54,1.54,0,0,0-.33-1.05A1,1,0,0,0,90.1,9a1,1,0,0,0-.81.37A1.55,1.55,0,0,0,89,10.39Z"/><path class="cls-2" d="M93,11.39l1.24-.18a.87.87,0,0,0,.32.54,1.06,1.06,0,0,0,.68.19,1.19,1.19,0,0,0,.72-.18.38.38,0,0,0,.16-.33.32.32,0,0,0-.09-.23.91.91,0,0,0-.41-.16,6.7,6.7,0,0,1-1.89-.6,1.23,1.23,0,0,1-.56-1,1.28,1.28,0,0,1,.48-1A2.23,2.23,0,0,1,95.18,8a2.65,2.65,0,0,1,1.42.31,1.58,1.58,0,0,1,.64.93l-1.16.21A.68.68,0,0,0,95.8,9a1,1,0,0,0-.6-.15,1.34,1.34,0,0,0-.7.14.3.3,0,0,0-.14.25.26.26,0,0,0,.12.22,4.91,4.91,0,0,0,1.16.35,3.45,3.45,0,0,1,1.38.55,1.16,1.16,0,0,1,.38.92,1.44,1.44,0,0,1-.53,1.1,2.38,2.38,0,0,1-1.59.46,2.58,2.58,0,0,1-1.51-.39A1.77,1.77,0,0,1,93,11.39Z"/><path class="cls-2" d="M49.93,18.06h1.15v.68a2,2,0,0,1,.61-.57,1.76,1.76,0,0,1,.85-.22,1.8,1.8,0,0,1,1.38.64,2.59,2.59,0,0,1,.57,1.78,2.59,2.59,0,0,1-.58,1.81,1.75,1.75,0,0,1-1.38.65,1.6,1.6,0,0,1-.7-.15,2.29,2.29,0,0,1-.66-.53V24.5H49.93Zm1.22,2.25a1.82,1.82,0,0,0,.32,1.17,1,1,0,0,0,.76.37.88.88,0,0,0,.71-.34,1.79,1.79,0,0,0,.29-1.14,1.75,1.75,0,0,0-.29-1.09.93.93,0,0,0-.73-.35,1,1,0,0,0-.76.35A1.54,1.54,0,0,0,51.15,20.31Z"/><path class="cls-2" d="M56.65,22.73H55.41V18.06h1.15v.66a2.05,2.05,0,0,1,.53-.62,1,1,0,0,1,.53-.15,1.53,1.53,0,0,1,.82.24l-.38,1.07a1.15,1.15,0,0,0-.58-.2.7.7,0,0,0-.44.14,1,1,0,0,0-.29.52,7.31,7.31,0,0,0-.1,1.56Z"/><path class="cls-2" d="M58.68,20.33A2.43,2.43,0,0,1,59,19.14a2,2,0,0,1,.86-.88A2.46,2.46,0,0,1,61.09,18a2.32,2.32,0,0,1,1.73.69,2.39,2.39,0,0,1,.68,1.74,2.44,2.44,0,0,1-.68,1.76,2.33,2.33,0,0,1-1.72.69,2.78,2.78,0,0,1-1.23-.29,2,2,0,0,1-.88-.85A2.73,2.73,0,0,1,58.68,20.33Zm1.27.06a1.56,1.56,0,0,0,.33,1.07,1.07,1.07,0,0,0,1.62,0,1.59,1.59,0,0,0,.33-1.08,1.54,1.54,0,0,0-.33-1.05,1.07,1.07,0,0,0-1.62,0A1.55,1.55,0,0,0,60,20.39Z"/><path class="cls-2" d="M68.54,19.44l-1.22.22a.86.86,0,0,0-.28-.55.84.84,0,0,0-.56-.18.92.92,0,0,0-.74.31,1.67,1.67,0,0,0-.28,1.07,1.93,1.93,0,0,0,.28,1.17.93.93,0,0,0,.75.35.85.85,0,0,0,.58-.2,1.31,1.31,0,0,0,.32-.69l1.21.2a2.2,2.2,0,0,1-.73,1.27,2.23,2.23,0,0,1-1.43.42,2.12,2.12,0,0,1-1.64-.65,2.49,2.49,0,0,1-.61-1.78,2.51,2.51,0,0,1,.62-1.8A2.15,2.15,0,0,1,66.46,18a2.25,2.25,0,0,1,1.35.37A2,2,0,0,1,68.54,19.44Z"/><path class="cls-2" d="M72.17,21.24l1.23.21a2,2,0,0,1-.74,1,2.28,2.28,0,0,1-1.29.35,2.08,2.08,0,0,1-1.8-.79,2.74,2.74,0,0,1-.46-1.61,2.55,2.55,0,0,1,.61-1.82A2,2,0,0,1,71.25,18a2.09,2.09,0,0,1,1.65.69,3,3,0,0,1,.57,2.11H70.38a1.25,1.25,0,0,0,.3.85.9.9,0,0,0,.71.31.76.76,0,0,0,.49-.16A1,1,0,0,0,72.17,21.24ZM72.24,20a1.16,1.16,0,0,0-.27-.81.84.84,0,0,0-.64-.28.87.87,0,0,0-.67.29,1.15,1.15,0,0,0-.26.8Z"/><path class="cls-2" d="M74,21.39l1.24-.18a.87.87,0,0,0,.32.54,1.06,1.06,0,0,0,.68.19,1.19,1.19,0,0,0,.72-.18.38.38,0,0,0,.16-.33.32.32,0,0,0-.09-.23,1,1,0,0,0-.41-.16,6.58,6.58,0,0,1-1.89-.6,1.23,1.23,0,0,1-.56-1.05,1.28,1.28,0,0,1,.48-1A2.23,2.23,0,0,1,76.18,18a2.65,2.65,0,0,1,1.42.31,1.58,1.58,0,0,1,.64.93l-1.16.21a.69.69,0,0,0-.29-.41,1,1,0,0,0-.59-.15,1.34,1.34,0,0,0-.7.14.3.3,0,0,0-.14.25.26.26,0,0,0,.12.22,4.74,4.74,0,0,0,1.16.35,3.4,3.4,0,0,1,1.37.55,1.13,1.13,0,0,1,.39.92,1.41,1.41,0,0,1-.54,1.1,2.33,2.33,0,0,1-1.58.46,2.58,2.58,0,0,1-1.51-.39A1.77,1.77,0,0,1,74,21.39Z"/><path class="cls-2" d="M79.2,20.33a2.53,2.53,0,0,1,.3-1.19,2,2,0,0,1,.86-.88A2.46,2.46,0,0,1,81.6,18a2.33,2.33,0,0,1,1.74.69,2.61,2.61,0,0,1,0,3.5,2.33,2.33,0,0,1-1.72.69,2.71,2.71,0,0,1-1.22-.29,2,2,0,0,1-.89-.85A2.85,2.85,0,0,1,79.2,20.33Zm1.26.06a1.56,1.56,0,0,0,.33,1.07,1.08,1.08,0,0,0,1.63,0,1.64,1.64,0,0,0,.32-1.08,1.59,1.59,0,0,0-.32-1.05,1.08,1.08,0,0,0-1.63,0A1.55,1.55,0,0,0,80.46,20.39Z"/><path class="cls-2" d="M84.55,21.39l1.23-.18a.88.88,0,0,0,.33.54,1,1,0,0,0,.67.19,1.19,1.19,0,0,0,.72-.18.39.39,0,0,0,.17-.33.32.32,0,0,0-.09-.23,1,1,0,0,0-.42-.16,6.82,6.82,0,0,1-1.89-.6,1.22,1.22,0,0,1-.55-1.05,1.28,1.28,0,0,1,.48-1A2.2,2.2,0,0,1,86.68,18a2.71,2.71,0,0,1,1.43.31,1.62,1.62,0,0,1,.64.93l-1.17.21A.68.68,0,0,0,87.3,19a1,1,0,0,0-.6-.15A1.39,1.39,0,0,0,86,19a.3.3,0,0,0-.14.25.25.25,0,0,0,.13.22,4.59,4.59,0,0,0,1.15.35,3.39,3.39,0,0,1,1.38.55,1.12,1.12,0,0,1,.38.92,1.4,1.4,0,0,1-.53,1.1,2.38,2.38,0,0,1-1.59.46,2.6,2.6,0,0,1-1.51-.39A1.71,1.71,0,0,1,84.55,21.39Z"/><path class="cls-3" d="M14.57,41.29V34.85h1.31v6.44Z"/><path class="cls-3" d="M21.35,41.29H20.12V38.91a3.79,3.79,0,0,0-.08-1,.71.71,0,0,0-.26-.35.75.75,0,0,0-.43-.12,1,1,0,0,0-.57.18.84.84,0,0,0-.35.46,3.74,3.74,0,0,0-.1,1.08v2.11H17.1V36.62h1.14v.69a1.87,1.87,0,0,1,1.54-.79,1.82,1.82,0,0,1,.75.14A1.22,1.22,0,0,1,21,37a1.19,1.19,0,0,1,.24.52,3.54,3.54,0,0,1,.07.83Z"/><path class="cls-3" d="M26.88,41.29H25.74V40.6a1.84,1.84,0,0,1-.68.6,1.72,1.72,0,0,1-.78.19,1.77,1.77,0,0,1-1.38-.64,2.67,2.67,0,0,1-.57-1.81,2.6,2.6,0,0,1,.56-1.81,1.81,1.81,0,0,1,1.41-.61,1.72,1.72,0,0,1,1.35.65V34.85h1.23Zm-3.29-2.44a2.22,2.22,0,0,0,.2,1.08.93.93,0,0,0,.84.49.91.91,0,0,0,.72-.36,1.71,1.71,0,0,0,.3-1.09,1.82,1.82,0,0,0-.29-1.16.92.92,0,0,0-.74-.35,1,1,0,0,0-.74.35A1.61,1.61,0,0,0,23.59,38.85Z"/><path class="cls-3" d="M28.1,36V34.85h1.24V36Zm0,5.3V36.62h1.24v4.67Z"/><path class="cls-3" d="M34.67,38l-1.22.22a.86.86,0,0,0-.28-.55.84.84,0,0,0-.56-.18.91.91,0,0,0-.74.32,1.63,1.63,0,0,0-.27,1.06A1.82,1.82,0,0,0,31.88,40a.9.9,0,0,0,.75.35.84.84,0,0,0,.57-.2,1.2,1.2,0,0,0,.32-.69l1.21.21A2.19,2.19,0,0,1,34,41a2.28,2.28,0,0,1-1.44.42,2.12,2.12,0,0,1-1.63-.64,2.95,2.95,0,0,1,0-3.59,2.17,2.17,0,0,1,1.65-.64,2.31,2.31,0,0,1,1.36.36A2.11,2.11,0,0,1,34.67,38Z"/><path class="cls-3" d="M36.53,38.05l-1.12-.21a1.71,1.71,0,0,1,.65-1,2.35,2.35,0,0,1,1.37-.32,3,3,0,0,1,1.23.19,1.24,1.24,0,0,1,.57.5,2.55,2.55,0,0,1,.16,1.1v1.45a4.82,4.82,0,0,0,.06.9,2.5,2.5,0,0,0,.22.63H38.44c0-.08-.07-.2-.12-.37s0-.12,0-.14a2.27,2.27,0,0,1-.68.46,2,2,0,0,1-.77.15A1.57,1.57,0,0,1,35.7,41a1.29,1.29,0,0,1-.42-1,1.27,1.27,0,0,1,.19-.7,1.23,1.23,0,0,1,.53-.48,4.07,4.07,0,0,1,1-.28,6.1,6.1,0,0,0,1.2-.31v-.12a.66.66,0,0,0-.17-.51,1.08,1.08,0,0,0-.67-.15.84.84,0,0,0-.51.13A.9.9,0,0,0,36.53,38.05Zm1.65,1-.75.19a2.17,2.17,0,0,0-.67.21.53.53,0,0,0-.24.44.61.61,0,0,0,.19.45.69.69,0,0,0,.49.18,1.06,1.06,0,0,0,.64-.22.71.71,0,0,0,.29-.4,2.15,2.15,0,0,0,0-.61Z"/><path class="cls-3" d="M44.89,41.29H43.75V40.6a1.84,1.84,0,0,1-.68.6,1.72,1.72,0,0,1-.78.19,1.77,1.77,0,0,1-1.38-.64,3.21,3.21,0,0,1,0-3.62,1.84,1.84,0,0,1,1.41-.61,1.73,1.73,0,0,1,1.36.65V34.85h1.23ZM41.6,38.85a2.22,2.22,0,0,0,.2,1.08.93.93,0,0,0,.84.49.91.91,0,0,0,.72-.36,1.71,1.71,0,0,0,.3-1.09,1.82,1.82,0,0,0-.29-1.16.92.92,0,0,0-.74-.35,1,1,0,0,0-.74.35A1.61,1.61,0,0,0,41.6,38.85Z"/><path class="cls-3" d="M45.82,38.89a2.54,2.54,0,0,1,.31-1.19,2,2,0,0,1,.86-.88,2.56,2.56,0,0,1,1.24-.3,2.33,2.33,0,0,1,2.41,2.42A2.44,2.44,0,0,1,50,40.7a2.33,2.33,0,0,1-1.72.69A2.65,2.65,0,0,1,47,41.1a2,2,0,0,1-.88-.85A2.82,2.82,0,0,1,45.82,38.89Zm1.27.06A1.56,1.56,0,0,0,47.42,40a1.07,1.07,0,0,0,.81.37A1,1,0,0,0,49,40a1.88,1.88,0,0,0,0-2.13,1,1,0,0,0-.81-.37,1.07,1.07,0,0,0-.81.37A1.55,1.55,0,0,0,47.09,39Z"/><path class="cls-3" d="M52.79,41.29H51.56V36.62H52.7v.66a1.87,1.87,0,0,1,.53-.61,1,1,0,0,1,.54-.15,1.51,1.51,0,0,1,.81.23l-.38,1.08a1.09,1.09,0,0,0-.58-.21.65.65,0,0,0-.44.15.94.94,0,0,0-.29.51,7.36,7.36,0,0,0-.1,1.57Z"/><path class="cls-3" d="M60.51,41.29H59.27V36.63a4.12,4.12,0,0,1-1.59.94V36.45a3.85,3.85,0,0,0,1-.6,2.23,2.23,0,0,0,.77-1h1Z"/><path class="cls-3" d="M62.85,37.86V36.62h1.24v1.24Zm0,3.43V40.05h1.24v1.24Z"/><path class="cls-2" d="M14.59,51.29V45.56h4.14v.68H15.35V48h3.17v.67H15.35v2h3.52v.68Z"/><path class="cls-2" d="M18.93,52.9l.13-.6a1.19,1.19,0,0,0,.33.05.35.35,0,0,0,.32-.14,1.41,1.41,0,0,0,.11-.71V47.14h.7v4.37a2,2,0,0,1-.2,1.07.93.93,0,0,1-.84.39A2,2,0,0,1,18.93,52.9Zm.89-6.52v-.82h.7v.82Z"/><path class="cls-2" d="M21.6,51.29V47.14h.63v.58a1.53,1.53,0,0,1,.52-.49,1.47,1.47,0,0,1,.74-.18,1.33,1.33,0,0,1,.75.19,1,1,0,0,1,.42.53,1.49,1.49,0,0,1,1.28-.72,1.26,1.26,0,0,1,.95.34,1.47,1.47,0,0,1,.33,1v2.85h-.7V48.68a1.76,1.76,0,0,0-.07-.61.51.51,0,0,0-.24-.3.75.75,0,0,0-.43-.11.94.94,0,0,0-.72.29,1.24,1.24,0,0,0-.29.93v2.41h-.7v-2.7a1.15,1.15,0,0,0-.18-.7.63.63,0,0,0-.56-.23,1.06,1.06,0,0,0-.55.15.87.87,0,0,0-.36.46,2.45,2.45,0,0,0-.12.87v2.15Z"/><path class="cls-2" d="M28.46,47.94v-.8h.8v.8Zm0,3.35v-.8h.8v.8Z"/><path class="cls-2" d="M32.8,51.29V45.56H35a4.75,4.75,0,0,1,.87.06,1.67,1.67,0,0,1,.71.26,1.51,1.51,0,0,1,.46.56,1.79,1.79,0,0,1,.17.78,1.72,1.72,0,0,1-.46,1.23A2.22,2.22,0,0,1,35,49H33.56v2.33Zm.76-3H35a1.58,1.58,0,0,0,1-.27,1,1,0,0,0,.31-.77,1,1,0,0,0-.18-.61.83.83,0,0,0-.48-.34,2.9,2.9,0,0,0-.71,0H33.56Z"/><path class="cls-2" d="M38,51.29V47.14h.63v.63a1.56,1.56,0,0,1,.45-.58.71.71,0,0,1,.45-.14,1.34,1.34,0,0,1,.72.22l-.24.66a.93.93,0,0,0-.52-.16.68.68,0,0,0-.41.14.73.73,0,0,0-.26.39,2.66,2.66,0,0,0-.12.82v2.17Z"/><path class="cls-2" d="M40.45,49.21a2.12,2.12,0,0,1,.64-1.7,1.92,1.92,0,0,1,1.3-.46,1.84,1.84,0,0,1,1.4.56,2.13,2.13,0,0,1,.54,1.55,2.77,2.77,0,0,1-.24,1.26,1.75,1.75,0,0,1-.69.71,2,2,0,0,1-1,.25,1.81,1.81,0,0,1-1.4-.56A2.22,2.22,0,0,1,40.45,49.21Zm.72,0a1.79,1.79,0,0,0,.35,1.2,1.17,1.17,0,0,0,1.74,0,1.8,1.8,0,0,0,.35-1.22A1.71,1.71,0,0,0,43.26,48a1.17,1.17,0,0,0-1.74,0A1.78,1.78,0,0,0,41.17,49.21Z"/><path class="cls-2" d="M47.85,51.29v-.53a1.27,1.27,0,0,1-1.16.62,1.64,1.64,0,0,1-.91-.27,1.83,1.83,0,0,1-.65-.77,2.63,2.63,0,0,1-.23-1.12,2.92,2.92,0,0,1,.21-1.13,1.65,1.65,0,0,1,.62-.77,1.68,1.68,0,0,1,.93-.27,1.31,1.31,0,0,1,1.14.57V45.56h.7v5.73Zm-2.22-2.07A1.82,1.82,0,0,0,46,50.41a1,1,0,0,0,.8.39,1,1,0,0,0,.78-.37,1.77,1.77,0,0,0,.32-1.15A1.93,1.93,0,0,0,47.53,48a1,1,0,0,0-.8-.4,1,1,0,0,0-.79.38A1.91,1.91,0,0,0,45.63,49.22Z"/><path class="cls-2" d="M52.33,51.29v-.61a1.52,1.52,0,0,1-1.32.7,1.64,1.64,0,0,1-.69-.14,1.1,1.1,0,0,1-.47-.35,1.35,1.35,0,0,1-.21-.52,3.37,3.37,0,0,1,0-.66V47.14h.71v2.3a4,4,0,0,0,0,.74.74.74,0,0,0,.28.44.9.9,0,0,0,.53.16,1.12,1.12,0,0,0,.59-.17.86.86,0,0,0,.4-.44,2.34,2.34,0,0,0,.11-.81V47.14H53v4.15Z"/><path class="cls-2" d="M56.76,49.77l.7.09A1.82,1.82,0,0,1,56.88,51a1.71,1.71,0,0,1-1.15.4,1.77,1.77,0,0,1-1.37-.55,2.31,2.31,0,0,1-.52-1.6,2.89,2.89,0,0,1,.23-1.18,1.53,1.53,0,0,1,.67-.75,2,2,0,0,1,1-.25,1.73,1.73,0,0,1,1.11.34,1.6,1.6,0,0,1,.55,1l-.68.1a1.14,1.14,0,0,0-.35-.62.86.86,0,0,0-.6-.22,1.08,1.08,0,0,0-.86.39,1.79,1.79,0,0,0-.33,1.2,1.86,1.86,0,0,0,.32,1.22,1,1,0,0,0,.83.37,1,1,0,0,0,.69-.25A1.24,1.24,0,0,0,56.76,49.77Z"/><path class="cls-2" d="M59.59,50.66l.1.62a2.61,2.61,0,0,1-.53.06,1.21,1.21,0,0,1-.59-.12.66.66,0,0,1-.3-.32,2.46,2.46,0,0,1-.08-.83V47.69h-.52v-.55h.52v-1l.7-.42v1.45h.7v.55h-.7v2.42a1.55,1.55,0,0,0,0,.39.41.41,0,0,0,.12.14.54.54,0,0,0,.24,0Z"/><path class="cls-2" d="M60.28,46.37v-.81H61v.81Zm0,4.92V47.14H61v4.15Z"/><path class="cls-2" d="M63.21,51.29l-1.58-4.15h.74l.89,2.48q.15.41.27.84c.06-.22.15-.48.26-.79l.92-2.53h.73l-1.57,4.15Z"/><path class="cls-2" d="M66.06,46.37v-.81h.7v.81Zm0,4.92V47.14h.7v4.15Z"/><path class="cls-2" d="M70.53,51.29v-.53a1.28,1.28,0,0,1-1.16.62,1.65,1.65,0,0,1-.92-.27,1.81,1.81,0,0,1-.64-.77,2.63,2.63,0,0,1-.23-1.12,2.92,2.92,0,0,1,.21-1.13,1.59,1.59,0,0,1,.62-.77,1.65,1.65,0,0,1,.92-.27,1.44,1.44,0,0,1,.67.15,1.4,1.4,0,0,1,.48.42V45.56h.7v5.73ZM68.3,49.22a1.82,1.82,0,0,0,.34,1.19,1,1,0,0,0,1.58,0,1.77,1.77,0,0,0,.32-1.15A1.93,1.93,0,0,0,70.21,48a1,1,0,0,0-.81-.4,1,1,0,0,0-.78.38A1.9,1.9,0,0,0,68.3,49.22Z"/><path class="cls-2" d="M75,50.78a2.87,2.87,0,0,1-.75.47,2.2,2.2,0,0,1-.78.13,1.54,1.54,0,0,1-1-.33,1.12,1.12,0,0,1-.36-.86,1.14,1.14,0,0,1,.13-.55,1.33,1.33,0,0,1,.37-.41,1.75,1.75,0,0,1,.5-.23,6,6,0,0,1,.63-.1,6.89,6.89,0,0,0,1.25-.24,1.77,1.77,0,0,0,0-.19.77.77,0,0,0-.2-.6,1.18,1.18,0,0,0-.8-.24,1.33,1.33,0,0,0-.74.17,1.14,1.14,0,0,0-.35.62l-.68-.1a1.6,1.6,0,0,1,.31-.71,1.36,1.36,0,0,1,.62-.42,2.7,2.7,0,0,1,.94-.14,2.58,2.58,0,0,1,.86.12,1.13,1.13,0,0,1,.49.32,1.08,1.08,0,0,1,.22.47,4.68,4.68,0,0,1,0,.65v.94a9.55,9.55,0,0,0,0,1.24,1.58,1.58,0,0,0,.18.5h-.74A1.59,1.59,0,0,1,75,50.78Zm-.06-1.57a5.24,5.24,0,0,1-1.15.26,2.64,2.64,0,0,0-.61.14.58.58,0,0,0-.37.57.59.59,0,0,0,.21.46.89.89,0,0,0,.62.19,1.43,1.43,0,0,0,.72-.18,1,1,0,0,0,.47-.48,1.85,1.85,0,0,0,.11-.71Z"/><path class="cls-2" d="M79.42,51.29v-.53a1.26,1.26,0,0,1-1.16.62,1.64,1.64,0,0,1-.91-.27,1.74,1.74,0,0,1-.64-.77,2.63,2.63,0,0,1-.23-1.12,2.92,2.92,0,0,1,.21-1.13,1.54,1.54,0,0,1,.62-.77,1.63,1.63,0,0,1,.92-.27,1.44,1.44,0,0,1,.67.15,1.4,1.4,0,0,1,.48.42V45.56h.7v5.73ZM77.2,49.22a1.76,1.76,0,0,0,.34,1.19,1,1,0,0,0,.79.39,1,1,0,0,0,.78-.37,1.72,1.72,0,0,0,.33-1.15A1.93,1.93,0,0,0,79.11,48a1,1,0,0,0-.81-.4,1,1,0,0,0-.78.38A1.9,1.9,0,0,0,77.2,49.22Z"/><path class="cls-3" d="M14.57,65.32V58.88h1.31v6.44Z"/><path class="cls-3" d="M21.35,65.32H20.12V62.94A3.79,3.79,0,0,0,20,62a.71.71,0,0,0-.26-.35.75.75,0,0,0-.43-.12,1,1,0,0,0-.57.18.84.84,0,0,0-.35.46,3.71,3.71,0,0,0-.1,1.07v2.12H17.1V60.65h1.14v.69a1.87,1.87,0,0,1,1.54-.79,1.82,1.82,0,0,1,.75.14,1.22,1.22,0,0,1,.51.38,1.19,1.19,0,0,1,.24.52,3.54,3.54,0,0,1,.07.83Z"/><path class="cls-3" d="M26.88,65.32H25.74v-.69a1.84,1.84,0,0,1-.68.6,1.72,1.72,0,0,1-.78.19,1.75,1.75,0,0,1-1.38-.65,2.63,2.63,0,0,1-.57-1.8,2.58,2.58,0,0,1,.56-1.81,1.81,1.81,0,0,1,1.41-.61,1.72,1.72,0,0,1,1.35.65V58.88h1.23Zm-3.29-2.44a2.22,2.22,0,0,0,.2,1.08.93.93,0,0,0,.84.49.91.91,0,0,0,.72-.36,1.71,1.71,0,0,0,.3-1.09,1.82,1.82,0,0,0-.29-1.16.92.92,0,0,0-.74-.35,1,1,0,0,0-.74.35A1.61,1.61,0,0,0,23.59,62.88Z"/><path class="cls-3" d="M28.1,60V58.88h1.24V60Zm0,5.3V60.65h1.24v4.67Z"/><path class="cls-3" d="M34.67,62l-1.22.22a.86.86,0,0,0-.28-.55.84.84,0,0,0-.56-.18.91.91,0,0,0-.74.32,1.63,1.63,0,0,0-.27,1.06,1.86,1.86,0,0,0,.28,1.17.9.9,0,0,0,.75.35.84.84,0,0,0,.57-.2,1.24,1.24,0,0,0,.32-.69l1.21.21A2.19,2.19,0,0,1,34,65a2.28,2.28,0,0,1-1.44.42,2.12,2.12,0,0,1-1.63-.64,2.95,2.95,0,0,1,0-3.59,2.17,2.17,0,0,1,1.65-.64,2.31,2.31,0,0,1,1.36.36A2.11,2.11,0,0,1,34.67,62Z"/><path class="cls-3" d="M36.53,62.07l-1.12-.2a1.71,1.71,0,0,1,.65-1,2.35,2.35,0,0,1,1.37-.32,3,3,0,0,1,1.23.19,1.24,1.24,0,0,1,.57.5,2.55,2.55,0,0,1,.16,1.1v1.44a5,5,0,0,0,.06.91,2.64,2.64,0,0,0,.22.63H38.44c0-.08-.07-.21-.12-.37s0-.12,0-.14a2.27,2.27,0,0,1-.68.46,2,2,0,0,1-.77.15A1.57,1.57,0,0,1,35.7,65a1.29,1.29,0,0,1-.42-1,1.27,1.27,0,0,1,.19-.7,1.23,1.23,0,0,1,.53-.48,4.07,4.07,0,0,1,1-.28,6.1,6.1,0,0,0,1.2-.31v-.12a.66.66,0,0,0-.17-.51,1.08,1.08,0,0,0-.67-.15.84.84,0,0,0-.51.13A.91.91,0,0,0,36.53,62.07Zm1.65,1q-.24.08-.75.18a2.4,2.4,0,0,0-.67.22.51.51,0,0,0-.24.44.58.58,0,0,0,.19.44.66.66,0,0,0,.49.19,1.06,1.06,0,0,0,.64-.22.71.71,0,0,0,.29-.4,2.15,2.15,0,0,0,0-.61Z"/><path class="cls-3" d="M44.89,65.32H43.75v-.69a1.84,1.84,0,0,1-.68.6,1.72,1.72,0,0,1-.78.19,1.75,1.75,0,0,1-1.38-.65,3.19,3.19,0,0,1,0-3.61,1.84,1.84,0,0,1,1.41-.61,1.73,1.73,0,0,1,1.36.65V58.88h1.23ZM41.6,62.88A2.22,2.22,0,0,0,41.8,64a.93.93,0,0,0,.84.49.91.91,0,0,0,.72-.36,1.71,1.71,0,0,0,.3-1.09,1.82,1.82,0,0,0-.29-1.16.92.92,0,0,0-.74-.35,1,1,0,0,0-.74.35A1.61,1.61,0,0,0,41.6,62.88Z"/><path class="cls-3" d="M45.82,62.92a2.54,2.54,0,0,1,.31-1.19,2,2,0,0,1,.86-.88,2.56,2.56,0,0,1,1.24-.3,2.31,2.31,0,0,1,1.73.68A2.35,2.35,0,0,1,50.64,63,2.44,2.44,0,0,1,50,64.73a2.33,2.33,0,0,1-1.72.69A2.65,2.65,0,0,1,47,65.13a2,2,0,0,1-.88-.85A2.85,2.85,0,0,1,45.82,62.92Zm1.27.06a1.56,1.56,0,0,0,.33,1.07,1.07,1.07,0,0,0,.81.37,1,1,0,0,0,.81-.37A1.57,1.57,0,0,0,49.37,63,1.55,1.55,0,0,0,49,61.92a1,1,0,0,0-.81-.37,1.07,1.07,0,0,0-.81.37A1.55,1.55,0,0,0,47.09,63Z"/><path class="cls-3" d="M52.79,65.32H51.56V60.65H52.7v.66a2.05,2.05,0,0,1,.53-.62,1,1,0,0,1,.54-.14,1.51,1.51,0,0,1,.81.23l-.38,1.07a1.15,1.15,0,0,0-.58-.2.65.65,0,0,0-.44.15.94.94,0,0,0-.29.51,7.36,7.36,0,0,0-.1,1.57Z"/><path class="cls-3" d="M61.52,64.17v1.15H57.19a3,3,0,0,1,.42-1.23A8,8,0,0,1,59,62.54a8.37,8.37,0,0,0,1-1,1.39,1.39,0,0,0,.26-.76.9.9,0,0,0-.22-.64.88.88,0,0,0-.62-.22.81.81,0,0,0-.61.24,1.22,1.22,0,0,0-.27.77l-1.23-.12A2.09,2.09,0,0,1,58,59.29a2.36,2.36,0,0,1,1.45-.44,2.1,2.1,0,0,1,1.5.51,1.68,1.68,0,0,1,.55,1.28,2.12,2.12,0,0,1-.16.83,3.28,3.28,0,0,1-.49.82,8.17,8.17,0,0,1-.81.83,9.35,9.35,0,0,0-.74.71,1.73,1.73,0,0,0-.25.34Z"/><path class="cls-3" d="M62.85,61.89V60.65h1.24v1.24Zm0,3.43V64.08h1.24v1.24Z"/><path class="cls-2" d="M14.59,75.32V69.59h4.14v.68H15.35V72h3.17v.67H15.35v2h3.52v.68Z"/><path class="cls-2" d="M18.93,76.93l.13-.6a1.19,1.19,0,0,0,.33,0,.35.35,0,0,0,.32-.14,1.41,1.41,0,0,0,.11-.71V71.17h.7v4.37a2,2,0,0,1-.2,1.07.93.93,0,0,1-.84.39A2,2,0,0,1,18.93,76.93Zm.89-6.52v-.82h.7v.82Z"/><path class="cls-2" d="M21.6,75.32V71.17h.63v.58a1.53,1.53,0,0,1,.52-.49,1.47,1.47,0,0,1,.74-.18,1.33,1.33,0,0,1,.75.19,1,1,0,0,1,.42.53,1.49,1.49,0,0,1,1.28-.72,1.26,1.26,0,0,1,.95.34,1.45,1.45,0,0,1,.33,1v2.85h-.7V72.7a1.73,1.73,0,0,0-.07-.6.51.51,0,0,0-.24-.3.75.75,0,0,0-.43-.12,1,1,0,0,0-.72.3,1.24,1.24,0,0,0-.29.93v2.41h-.7v-2.7a1.15,1.15,0,0,0-.18-.7.63.63,0,0,0-.56-.24,1.07,1.07,0,0,0-.55.16.87.87,0,0,0-.36.46,2.45,2.45,0,0,0-.12.87v2.15Z"/><path class="cls-2" d="M28.46,72v-.8h.8V72Zm0,3.35v-.8h.8v.8Z"/><path class="cls-2" d="M36.89,73.31l.75.19a2.6,2.6,0,0,1-.85,1.43,2.43,2.43,0,0,1-1.52.49,2.69,2.69,0,0,1-1.5-.38A2.42,2.42,0,0,1,32.88,74a4,4,0,0,1-.3-1.54,3.48,3.48,0,0,1,.34-1.56,2.33,2.33,0,0,1,1-1,2.83,2.83,0,0,1,1.38-.35,2.36,2.36,0,0,1,1.45.44,2.3,2.3,0,0,1,.82,1.23l-.75.18a1.76,1.76,0,0,0-.58-.91,1.53,1.53,0,0,0-.95-.29,1.89,1.89,0,0,0-1.11.32,1.68,1.68,0,0,0-.62.85,3.38,3.38,0,0,0-.18,1.1,3.52,3.52,0,0,0,.21,1.27,1.62,1.62,0,0,0,.67.82,1.84,1.84,0,0,0,1,.27,1.68,1.68,0,0,0,1.08-.37A2,2,0,0,0,36.89,73.31Z"/><path class="cls-2" d="M38.23,73.24a2.11,2.11,0,0,1,.64-1.7,1.9,1.9,0,0,1,1.3-.46,1.84,1.84,0,0,1,1.4.56,2.13,2.13,0,0,1,.54,1.54,2.71,2.71,0,0,1-.24,1.26,1.68,1.68,0,0,1-.7.72,2,2,0,0,1-1,.25,1.88,1.88,0,0,1-1.41-.56A2.22,2.22,0,0,1,38.23,73.24Zm.72,0a1.76,1.76,0,0,0,.35,1.2,1.11,1.11,0,0,0,.87.39,1.09,1.09,0,0,0,.87-.4,1.8,1.8,0,0,0,.35-1.21A1.76,1.76,0,0,0,41,72.05a1.17,1.17,0,0,0-1.74,0A1.71,1.71,0,0,0,39,73.24Z"/><path class="cls-2" d="M42.65,74.08l.7-.11a1,1,0,0,0,.33.64,1.11,1.11,0,0,0,.74.22,1.09,1.09,0,0,0,.72-.19.61.61,0,0,0,.24-.47.42.42,0,0,0-.21-.37,3.52,3.52,0,0,0-.72-.24,6.18,6.18,0,0,1-1.07-.34,1,1,0,0,1-.45-.39,1,1,0,0,1-.16-.56,1,1,0,0,1,.13-.51,1.19,1.19,0,0,1,.34-.4,1.59,1.59,0,0,1,.45-.2,2,2,0,0,1,.61-.08,2.32,2.32,0,0,1,.86.14,1.17,1.17,0,0,1,.54.38,1.38,1.38,0,0,1,.24.64l-.68.09a.8.8,0,0,0-.27-.5,1,1,0,0,0-.64-.18,1.21,1.21,0,0,0-.69.16.48.48,0,0,0-.21.38.36.36,0,0,0,.09.24.62.62,0,0,0,.27.19,6.05,6.05,0,0,0,.62.18,7.24,7.24,0,0,1,1,.33,1,1,0,0,1,.46.37,1,1,0,0,1,.17.6,1.24,1.24,0,0,1-.2.66,1.31,1.31,0,0,1-.6.48,2.18,2.18,0,0,1-.87.17,2,2,0,0,1-1.23-.33A1.57,1.57,0,0,1,42.65,74.08Z"/><path class="cls-2" d="M48.47,74.69l.1.62a2.69,2.69,0,0,1-.53.06,1.21,1.21,0,0,1-.59-.12.71.71,0,0,1-.3-.32,2.49,2.49,0,0,1-.08-.83V71.72h-.52v-.55h.52v-1l.69-.42v1.45h.71v.55h-.71v2.42a1.4,1.4,0,0,0,0,.39.41.41,0,0,0,.12.14.54.54,0,0,0,.24,0Z"/><path class="cls-2" d="M48.9,73.24a2.11,2.11,0,0,1,.64-1.7,1.9,1.9,0,0,1,1.3-.46,1.84,1.84,0,0,1,1.4.56,2.13,2.13,0,0,1,.54,1.54,2.71,2.71,0,0,1-.24,1.26,1.68,1.68,0,0,1-.7.72,2,2,0,0,1-1,.25,1.88,1.88,0,0,1-1.41-.56A2.26,2.26,0,0,1,48.9,73.24Zm.72,0a1.81,1.81,0,0,0,.35,1.2,1.11,1.11,0,0,0,.87.39,1.09,1.09,0,0,0,.87-.4,1.75,1.75,0,0,0,.35-1.21,1.71,1.71,0,0,0-.35-1.17,1.17,1.17,0,0,0-1.74,0A1.76,1.76,0,0,0,49.62,73.24Z"/><path class="cls-2" d="M53.33,74.08,54,74a1,1,0,0,0,.33.64,1.14,1.14,0,0,0,.75.22,1.13,1.13,0,0,0,.72-.19.63.63,0,0,0,.23-.47.42.42,0,0,0-.21-.37,3.09,3.09,0,0,0-.72-.24,6.18,6.18,0,0,1-1.07-.34,1,1,0,0,1-.45-.39,1.06,1.06,0,0,1,0-1.07,1.22,1.22,0,0,1,.35-.4,1.65,1.65,0,0,1,.44-.2,2,2,0,0,1,.61-.08,2.28,2.28,0,0,1,.86.14,1.12,1.12,0,0,1,.54.38,1.5,1.5,0,0,1,.25.64l-.69.09a.75.75,0,0,0-.27-.5,1,1,0,0,0-.64-.18,1.21,1.21,0,0,0-.69.16.48.48,0,0,0-.21.38.36.36,0,0,0,.09.24.62.62,0,0,0,.27.19l.62.18a6.83,6.83,0,0,1,1,.33,1,1,0,0,1,.46.37,1,1,0,0,1,.17.6,1.24,1.24,0,0,1-.2.66,1.34,1.34,0,0,1-.59.48,2.23,2.23,0,0,1-.88.17,2,2,0,0,1-1.23-.33A1.56,1.56,0,0,1,53.33,74.08Z"/><path class="cls-2" d="M59.8,76.92l-.08-.66a1.62,1.62,0,0,0,.4.06.82.82,0,0,0,.38-.08.69.69,0,0,0,.23-.22,3,3,0,0,0,.21-.52l.07-.17-1.58-4.16h.76l.86,2.4a7.65,7.65,0,0,1,.3,1c.09-.32.18-.64.29-.94l.89-2.42h.7l-1.58,4.22a7.75,7.75,0,0,1-.39.94,1.39,1.39,0,0,1-.43.51,1,1,0,0,1-.58.16A1.65,1.65,0,0,1,59.8,76.92Z"/><path class="cls-2" d="M65.92,75.66l.69.1a.65.65,0,0,0,.24.46,1.15,1.15,0,0,0,.71.2,1.27,1.27,0,0,0,.76-.2,1,1,0,0,0,.35-.54,4.32,4.32,0,0,0,.06-.91,1.45,1.45,0,0,1-1.15.55,1.59,1.59,0,0,1-1.33-.62,2.38,2.38,0,0,1-.47-1.48,2.84,2.84,0,0,1,.22-1.1,1.63,1.63,0,0,1,1.58-1,1.47,1.47,0,0,1,1.21.59v-.5h.65v3.59a3.42,3.42,0,0,1-.2,1.37,1.47,1.47,0,0,1-.62.64,2.26,2.26,0,0,1-1.05.23,2,2,0,0,1-1.2-.33A1.14,1.14,0,0,1,65.92,75.66Zm.59-2.49a1.78,1.78,0,0,0,.32,1.19,1.06,1.06,0,0,0,1.63,0,1.8,1.8,0,0,0,.32-1.17A1.73,1.73,0,0,0,68.45,72a1.08,1.08,0,0,0-.82-.38,1,1,0,0,0-.8.38A1.73,1.73,0,0,0,66.51,73.17Z"/><path class="cls-2" d="M73.21,74.81a2.58,2.58,0,0,1-.75.46,2,2,0,0,1-.78.14,1.54,1.54,0,0,1-1.05-.33,1.14,1.14,0,0,1-.37-.86,1.15,1.15,0,0,1,.14-.55,1.23,1.23,0,0,1,.37-.41,1.64,1.64,0,0,1,.5-.23,6,6,0,0,1,.63-.1,6.13,6.13,0,0,0,1.25-.25V72.5a.77.77,0,0,0-.19-.6,1.19,1.19,0,0,0-.81-.24,1.29,1.29,0,0,0-.73.17,1.14,1.14,0,0,0-.35.62l-.68-.1a1.71,1.71,0,0,1,.3-.71,1.4,1.4,0,0,1,.63-.42,2.7,2.7,0,0,1,.94-.14,2.58,2.58,0,0,1,.86.12,1.22,1.22,0,0,1,.49.31,1.33,1.33,0,0,1,.22.48,4.68,4.68,0,0,1,0,.65v.94a9.55,9.55,0,0,0,0,1.24,1.85,1.85,0,0,0,.17.5h-.73A1.59,1.59,0,0,1,73.21,74.81Zm-.06-1.57A5.24,5.24,0,0,1,72,73.5a2.64,2.64,0,0,0-.61.14.61.61,0,0,0-.38.56.6.6,0,0,0,.22.47.89.89,0,0,0,.62.19,1.43,1.43,0,0,0,.72-.18A1.14,1.14,0,0,0,73,74.2a1.85,1.85,0,0,0,.11-.71Z"/><path class="cls-2" d="M74.67,74.08l.7-.11a.92.92,0,0,0,.32.64,1.14,1.14,0,0,0,.75.22,1.13,1.13,0,0,0,.72-.19.59.59,0,0,0,.23-.47.43.43,0,0,0-.2-.37,3.52,3.52,0,0,0-.72-.24,5.63,5.63,0,0,1-1.07-.34,1,1,0,0,1-.46-.39,1.13,1.13,0,0,1,0-1.07,1.22,1.22,0,0,1,.35-.4,1.59,1.59,0,0,1,.45-.2,2,2,0,0,1,.61-.08,2.23,2.23,0,0,1,.85.14,1.15,1.15,0,0,1,.55.38,1.5,1.5,0,0,1,.24.64l-.69.09a.75.75,0,0,0-.27-.5,1,1,0,0,0-.63-.18,1.22,1.22,0,0,0-.7.16.5.5,0,0,0-.2.38.41.41,0,0,0,.08.24.62.62,0,0,0,.27.19l.62.18a7.49,7.49,0,0,1,1,.33,1.05,1.05,0,0,1,.46.37,1,1,0,0,1,.17.6,1.17,1.17,0,0,1-.21.66,1.29,1.29,0,0,1-.59.48,2.23,2.23,0,0,1-.88.17,2,2,0,0,1-1.23-.33A1.61,1.61,0,0,1,74.67,74.08Z"/><path class="cls-2" d="M80.49,74.69l.1.62a2.77,2.77,0,0,1-.53.06,1.22,1.22,0,0,1-.6-.12.64.64,0,0,1-.29-.32,2.41,2.41,0,0,1-.09-.83V71.72h-.51v-.55h.51v-1l.7-.42v1.45h.71v.55h-.71v2.42a1.09,1.09,0,0,0,0,.39.27.27,0,0,0,.12.14.48.48,0,0,0,.24,0Z"/><path class="cls-2" d="M80.91,73.24a2.14,2.14,0,0,1,.64-1.7,1.94,1.94,0,0,1,1.31-.46,1.85,1.85,0,0,1,1.4.56,2.13,2.13,0,0,1,.54,1.54,2.71,2.71,0,0,1-.24,1.26,1.68,1.68,0,0,1-.7.72,2,2,0,0,1-1,.25,1.88,1.88,0,0,1-1.41-.56A2.22,2.22,0,0,1,80.91,73.24Zm.73,0a1.81,1.81,0,0,0,.34,1.2,1.13,1.13,0,0,0,.88.39,1.09,1.09,0,0,0,.87-.4,1.8,1.8,0,0,0,.35-1.21,1.76,1.76,0,0,0-.35-1.17,1.18,1.18,0,0,0-1.75,0A1.76,1.76,0,0,0,81.64,73.24Z"/><path class="cls-2" d="M85.34,74.08,86,74a1,1,0,0,0,.32.64,1.14,1.14,0,0,0,.75.22,1.11,1.11,0,0,0,.72-.19.61.61,0,0,0,.24-.47.42.42,0,0,0-.21-.37,3.52,3.52,0,0,0-.72-.24,5.89,5.89,0,0,1-1.07-.34,1,1,0,0,1-.46-.39,1.09,1.09,0,0,1-.15-.56,1,1,0,0,1,.13-.51,1.19,1.19,0,0,1,.34-.4,1.59,1.59,0,0,1,.45-.2,2,2,0,0,1,.61-.08,2.23,2.23,0,0,1,.85.14,1.15,1.15,0,0,1,.55.38,1.38,1.38,0,0,1,.24.64l-.69.09a.75.75,0,0,0-.27-.5,1,1,0,0,0-.63-.18,1.16,1.16,0,0,0-.69.16.48.48,0,0,0-.21.38.36.36,0,0,0,.09.24.54.54,0,0,0,.26.19l.63.18a7.7,7.7,0,0,1,1,.33,1.05,1.05,0,0,1,.46.37,1,1,0,0,1,.17.6,1.17,1.17,0,0,1-.21.66,1.24,1.24,0,0,1-.59.48,2.21,2.21,0,0,1-.87.17,2,2,0,0,1-1.24-.33A1.61,1.61,0,0,1,85.34,74.08Z"/><path class="cls-3" d="M14.57,89.35V82.9h1.31v6.45Z"/><path class="cls-3" d="M21.35,89.35H20.12V87A3.79,3.79,0,0,0,20,86a.67.67,0,0,0-.26-.35.75.75,0,0,0-.43-.12,1,1,0,0,0-.57.17.9.9,0,0,0-.35.47,3.66,3.66,0,0,0-.1,1.07v2.12H17.1V84.68h1.14v.69a1.88,1.88,0,0,1,1.54-.8,1.83,1.83,0,0,1,.75.15,1.22,1.22,0,0,1,.51.38,1.19,1.19,0,0,1,.24.52,3.54,3.54,0,0,1,.07.83Z"/><path class="cls-3" d="M26.88,89.35H25.74v-.69a1.84,1.84,0,0,1-.68.6,1.72,1.72,0,0,1-.78.19,1.75,1.75,0,0,1-1.38-.65,2.63,2.63,0,0,1-.57-1.8,2.57,2.57,0,0,1,.56-1.81,1.82,1.82,0,0,1,1.41-.62,1.75,1.75,0,0,1,1.35.65V82.9h1.23Zm-3.29-2.44a2.22,2.22,0,0,0,.2,1.08.93.93,0,0,0,.84.49.89.89,0,0,0,.72-.37,1.66,1.66,0,0,0,.3-1.08,1.82,1.82,0,0,0-.29-1.16.92.92,0,0,0-.74-.35,1,1,0,0,0-.74.35A1.61,1.61,0,0,0,23.59,86.91Z"/><path class="cls-3" d="M28.1,84.05V82.9h1.24v1.15Zm0,5.3V84.68h1.24v4.67Z"/><path class="cls-3" d="M34.67,86.06l-1.22.22a.86.86,0,0,0-.28-.55.84.84,0,0,0-.56-.18.94.94,0,0,0-.74.31,1.68,1.68,0,0,0-.27,1.07,1.86,1.86,0,0,0,.28,1.17.9.9,0,0,0,.75.35.84.84,0,0,0,.57-.2,1.24,1.24,0,0,0,.32-.69l1.21.2A2.19,2.19,0,0,1,34,89a2.28,2.28,0,0,1-1.44.42,2.12,2.12,0,0,1-1.63-.64,2.95,2.95,0,0,1,0-3.59,2.18,2.18,0,0,1,1.65-.65,2.31,2.31,0,0,1,1.36.37A2.11,2.11,0,0,1,34.67,86.06Z"/><path class="cls-3" d="M36.53,86.1l-1.12-.2a1.71,1.71,0,0,1,.65-1,2.35,2.35,0,0,1,1.37-.33,3,3,0,0,1,1.23.2,1.24,1.24,0,0,1,.57.5,2.55,2.55,0,0,1,.16,1.1v1.44a5,5,0,0,0,.06.91,2.64,2.64,0,0,0,.22.63H38.44L38.32,89c0-.07,0-.12,0-.14a2.27,2.27,0,0,1-.68.46,2,2,0,0,1-.77.15,1.57,1.57,0,0,1-1.13-.39,1.29,1.29,0,0,1-.42-1,1.27,1.27,0,0,1,.19-.7,1.23,1.23,0,0,1,.53-.48,4.51,4.51,0,0,1,1-.29,5.6,5.6,0,0,0,1.2-.3v-.12a.66.66,0,0,0-.17-.51,1.08,1.08,0,0,0-.67-.15.84.84,0,0,0-.51.13A.91.91,0,0,0,36.53,86.1Zm1.65,1q-.24.08-.75.18a2.4,2.4,0,0,0-.67.22.51.51,0,0,0-.24.43.58.58,0,0,0,.19.45.66.66,0,0,0,.49.19,1.06,1.06,0,0,0,.64-.22.7.7,0,0,0,.29-.41,2,2,0,0,0,0-.6Z"/><path class="cls-3" d="M44.89,89.35H43.75v-.69a1.84,1.84,0,0,1-.68.6,1.72,1.72,0,0,1-.78.19,1.75,1.75,0,0,1-1.38-.65,3.19,3.19,0,0,1,0-3.61,1.85,1.85,0,0,1,1.41-.62,1.76,1.76,0,0,1,1.36.65V82.9h1.23ZM41.6,86.91A2.22,2.22,0,0,0,41.8,88a.93.93,0,0,0,.84.49.89.89,0,0,0,.72-.37,1.66,1.66,0,0,0,.3-1.08,1.82,1.82,0,0,0-.29-1.16.92.92,0,0,0-.74-.35,1,1,0,0,0-.74.35A1.61,1.61,0,0,0,41.6,86.91Z"/><path class="cls-3" d="M45.82,87a2.54,2.54,0,0,1,.31-1.19,2,2,0,0,1,.86-.88,2.56,2.56,0,0,1,1.24-.31,2.32,2.32,0,0,1,1.73.69A2.35,2.35,0,0,1,50.64,87,2.44,2.44,0,0,1,50,88.76a2.33,2.33,0,0,1-1.72.69A2.65,2.65,0,0,1,47,89.16a2,2,0,0,1-.88-.85A2.85,2.85,0,0,1,45.82,87Zm1.27.06a1.56,1.56,0,0,0,.33,1.07,1.07,1.07,0,0,0,.81.37,1,1,0,0,0,.81-.37A1.57,1.57,0,0,0,49.37,87,1.55,1.55,0,0,0,49,86a1,1,0,0,0-.81-.37,1,1,0,0,0-.81.37A1.55,1.55,0,0,0,47.09,87Z"/><path class="cls-3" d="M52.79,89.35H51.56V84.68H52.7v.66a2.05,2.05,0,0,1,.53-.62,1,1,0,0,1,.54-.15,1.52,1.52,0,0,1,.81.24l-.38,1.07a1.15,1.15,0,0,0-.58-.2.7.7,0,0,0-.44.14,1,1,0,0,0-.29.52,7.36,7.36,0,0,0-.1,1.57Z"/><path class="cls-3" d="M57.3,87.64l1.2-.15a1.11,1.11,0,0,0,.31.7.87.87,0,0,0,1.25,0,1.13,1.13,0,0,0,.26-.78,1.08,1.08,0,0,0-.25-.74.8.8,0,0,0-.61-.27,2.22,2.22,0,0,0-.57.09l.14-1a1.15,1.15,0,0,0,.76-.22.77.77,0,0,0,.26-.62.67.67,0,0,0-.7-.71.76.76,0,0,0-.54.22,1.09,1.09,0,0,0-.28.65l-1.13-.2a2.35,2.35,0,0,1,.35-.93,1.58,1.58,0,0,1,.67-.55,2.17,2.17,0,0,1,1-.2,1.91,1.91,0,0,1,1.46.58,1.47,1.47,0,0,1-.47,2.42,1.47,1.47,0,0,1,.88.54,1.52,1.52,0,0,1,.33,1A1.91,1.91,0,0,1,61,88.86,2.3,2.3,0,0,1,58,89,2,2,0,0,1,57.3,87.64Z"/><path class="cls-3" d="M62.85,85.92V84.68h1.24v1.24Zm0,3.43V88.11h1.24v1.24Z"/><path class="cls-2" d="M14.59,99.35V93.62h4.14v.68H15.35v1.75h3.17v.67H15.35v2h3.52v.68Z"/><path class="cls-2" d="M18.93,101l.13-.6a1.76,1.76,0,0,0,.33,0,.35.35,0,0,0,.32-.14,1.41,1.41,0,0,0,.11-.71V95.2h.7v4.37a2,2,0,0,1-.2,1.07.93.93,0,0,1-.84.39A2,2,0,0,1,18.93,101Zm.89-6.52v-.82h.7v.82Z"/><path class="cls-2" d="M21.6,99.35V95.2h.63v.58a1.44,1.44,0,0,1,.52-.49,1.48,1.48,0,0,1,.74-.19,1.33,1.33,0,0,1,.75.2,1,1,0,0,1,.42.53,1.5,1.5,0,0,1,1.28-.73,1.26,1.26,0,0,1,.95.35,1.45,1.45,0,0,1,.33,1v2.85h-.7V96.73a1.73,1.73,0,0,0-.07-.6.51.51,0,0,0-.24-.3.75.75,0,0,0-.43-.12,1,1,0,0,0-.72.3,1.24,1.24,0,0,0-.29.93v2.41h-.7v-2.7a1.13,1.13,0,0,0-.18-.7.63.63,0,0,0-.56-.24,1.07,1.07,0,0,0-.55.16.84.84,0,0,0-.36.46,2.42,2.42,0,0,0-.12.86v2.16Z"/><path class="cls-2" d="M28.46,96v-.8h.8V96Zm0,3.35v-.8h.8v.8Z"/><path class="cls-2" d="M32.93,99.35V93.62h.76v5.73Z"/><path class="cls-2" d="M34.93,99.35V95.2h.64v.59a1.48,1.48,0,0,1,1.32-.69,1.69,1.69,0,0,1,.68.14,1.2,1.2,0,0,1,.48.35,1.42,1.42,0,0,1,.21.52,3.67,3.67,0,0,1,0,.69v2.55h-.7V96.82a2,2,0,0,0-.08-.64.73.73,0,0,0-.29-.34,1,1,0,0,0-.49-.13A1.16,1.16,0,0,0,36,96a1.39,1.39,0,0,0-.32,1.08v2.27Z"/><path class="cls-2" d="M42.07,99.35v-.53a1.29,1.29,0,0,1-1.16.62,1.64,1.64,0,0,1-.91-.27,1.8,1.8,0,0,1-.64-.77,2.49,2.49,0,0,1-.23-1.12,3.11,3.11,0,0,1,.2-1.13,1.64,1.64,0,0,1,1.55-1.05,1.47,1.47,0,0,1,.67.16,1.62,1.62,0,0,1,.48.42V93.62h.7v5.73Zm-2.22-2.07a1.76,1.76,0,0,0,.34,1.19,1,1,0,0,0,.79.39,1,1,0,0,0,.78-.37,1.73,1.73,0,0,0,.32-1.15,1.93,1.93,0,0,0-.32-1.25,1,1,0,0,0-.81-.4,1,1,0,0,0-.79.38A1.89,1.89,0,0,0,39.85,97.28Z"/><path class="cls-2" d="M43.83,94.43v-.81h.71v.81Zm0,4.92V95.2h.71v4.15Z"/><path class="cls-2" d="M48.32,97.83l.69.09A1.84,1.84,0,0,1,48.43,99a1.71,1.71,0,0,1-1.15.4,1.76,1.76,0,0,1-1.37-.56,2.27,2.27,0,0,1-.52-1.59,2.89,2.89,0,0,1,.23-1.18,1.49,1.49,0,0,1,.67-.75,2,2,0,0,1,1-.26,1.73,1.73,0,0,1,1.11.35,1.52,1.52,0,0,1,.55,1l-.68.1a1.14,1.14,0,0,0-.35-.63.88.88,0,0,0-.6-.21,1.1,1.1,0,0,0-.86.38,1.84,1.84,0,0,0-.33,1.21,1.81,1.81,0,0,0,.32,1.21,1,1,0,0,0,.83.38,1,1,0,0,0,.69-.25A1.24,1.24,0,0,0,48.32,97.83Z"/><path class="cls-2" d="M52.32,98.84a2.75,2.75,0,0,1-.76.46,2.19,2.19,0,0,1-.77.14,1.5,1.5,0,0,1-1-.33,1.11,1.11,0,0,1-.37-.86,1.12,1.12,0,0,1,.14-.55,1.1,1.1,0,0,1,.36-.41,1.69,1.69,0,0,1,.51-.23A5.74,5.74,0,0,1,51,97a6.1,6.1,0,0,0,1.26-.25v-.18a.76.76,0,0,0-.2-.6,1.18,1.18,0,0,0-.8-.24,1.21,1.21,0,0,0-.73.17,1,1,0,0,0-.35.62l-.69-.1a1.72,1.72,0,0,1,.31-.71,1.36,1.36,0,0,1,.62-.42,2.73,2.73,0,0,1,.94-.15,2.62,2.62,0,0,1,.87.13,1.11,1.11,0,0,1,.48.31,1.06,1.06,0,0,1,.22.48,3.25,3.25,0,0,1,0,.65v.94a10.35,10.35,0,0,0,0,1.24,1.58,1.58,0,0,0,.18.5h-.73A1.37,1.37,0,0,1,52.32,98.84Zm-.06-1.58a4.75,4.75,0,0,1-1.15.27,2.76,2.76,0,0,0-.62.14.62.62,0,0,0-.37.56.59.59,0,0,0,.21.47.9.9,0,0,0,.63.19,1.43,1.43,0,0,0,.72-.18,1.12,1.12,0,0,0,.46-.48,1.65,1.65,0,0,0,.12-.71Z"/><path class="cls-2" d="M56.75,99.35v-.53a1.29,1.29,0,0,1-1.16.62,1.62,1.62,0,0,1-.91-.27A1.82,1.82,0,0,1,54,98.4a2.63,2.63,0,0,1-.23-1.12A2.92,2.92,0,0,1,54,96.15a1.62,1.62,0,0,1,1.55-1.05,1.35,1.35,0,0,1,1.14.58V93.62h.7v5.73Zm-2.22-2.07a1.82,1.82,0,0,0,.33,1.19,1,1,0,0,0,.79.39,1,1,0,0,0,.79-.37,1.79,1.79,0,0,0,.32-1.15,1.93,1.93,0,0,0-.33-1.25,1,1,0,0,0-.81-.4,1,1,0,0,0-.78.38A1.89,1.89,0,0,0,54.53,97.28Z"/><path class="cls-2" d="M58.24,97.27a2.11,2.11,0,0,1,.65-1.7,1.91,1.91,0,0,1,1.3-.47,1.85,1.85,0,0,1,1.4.57,2.11,2.11,0,0,1,.54,1.54,2.71,2.71,0,0,1-.24,1.26,1.68,1.68,0,0,1-.7.72,2,2,0,0,1-1,.25,1.88,1.88,0,0,1-1.41-.56A2.22,2.22,0,0,1,58.24,97.27Zm.73,0a1.76,1.76,0,0,0,.35,1.2,1.11,1.11,0,0,0,.87.39,1.09,1.09,0,0,0,.87-.4,1.8,1.8,0,0,0,.35-1.21,1.76,1.76,0,0,0-.35-1.17,1.17,1.17,0,0,0-1.74,0A1.71,1.71,0,0,0,59,97.27Z"/><path class="cls-2" d="M63,99.35V95.2h.63v.63a1.56,1.56,0,0,1,.45-.58.74.74,0,0,1,.45-.15,1.36,1.36,0,0,1,.72.23L65,96a1,1,0,0,0-.52-.15A.68.68,0,0,0,64,96a.74.74,0,0,0-.26.38,2.73,2.73,0,0,0-.12.83v2.17Z"/><path class="cls-2" d="M70.53,99.35v-.53a1.29,1.29,0,0,1-1.16.62,1.64,1.64,0,0,1-.91-.27,1.8,1.8,0,0,1-.64-.77,2.49,2.49,0,0,1-.23-1.12,2.92,2.92,0,0,1,.21-1.13,1.57,1.57,0,0,1,.62-.78,1.63,1.63,0,0,1,.92-.27,1.44,1.44,0,0,1,.67.16,1.5,1.5,0,0,1,.48.42V93.62h.7v5.73Zm-2.22-2.07a1.76,1.76,0,0,0,.34,1.19,1,1,0,0,0,.79.39,1,1,0,0,0,.78-.37,1.73,1.73,0,0,0,.33-1.15,1.93,1.93,0,0,0-.33-1.25,1,1,0,0,0-.81-.4,1,1,0,0,0-.78.38A1.88,1.88,0,0,0,68.31,97.28Z"/><path class="cls-2" d="M75.13,98l.73.09a1.81,1.81,0,0,1-.64,1,2.16,2.16,0,0,1-2.63-.21,2.21,2.21,0,0,1-.53-1.57,2.31,2.31,0,0,1,.54-1.63A1.83,1.83,0,0,1,74,95.1a1.76,1.76,0,0,1,1.36.57,2.22,2.22,0,0,1,.53,1.59v.19h-3.1a1.62,1.62,0,0,0,.39,1,1.15,1.15,0,0,0,.87.36,1,1,0,0,0,.66-.2A1.33,1.33,0,0,0,75.13,98Zm-2.31-1.14h2.32a1.36,1.36,0,0,0-.27-.78,1.07,1.07,0,0,0-.87-.41,1.1,1.1,0,0,0-.81.33A1.29,1.29,0,0,0,72.82,96.87Z"/><path class="cls-2" d="M79,100.94V95.2h.64v.54a1.79,1.79,0,0,1,.52-.48,1.46,1.46,0,0,1,.69-.16,1.66,1.66,0,0,1,1.55,1.05,3,3,0,0,1,0,2.24,1.77,1.77,0,0,1-.67.78,1.69,1.69,0,0,1-.91.27,1.28,1.28,0,0,1-.63-.15,1.42,1.42,0,0,1-.46-.37v2Zm.64-3.64a1.85,1.85,0,0,0,.32,1.18,1,1,0,0,0,1.59,0,1.86,1.86,0,0,0,.34-1.23,1.82,1.82,0,0,0-.33-1.19,1,1,0,0,0-1.57,0A1.87,1.87,0,0,0,79.6,97.3Z"/><path class="cls-2" d="M86.25,98l.73.09a1.81,1.81,0,0,1-.64,1,2.16,2.16,0,0,1-2.63-.21,2.21,2.21,0,0,1-.53-1.57,2.31,2.31,0,0,1,.54-1.63,1.84,1.84,0,0,1,1.4-.58,1.79,1.79,0,0,1,1.36.57A2.26,2.26,0,0,1,87,97.26v.19H83.9a1.62,1.62,0,0,0,.39,1,1.15,1.15,0,0,0,.87.36,1,1,0,0,0,.66-.2A1.33,1.33,0,0,0,86.25,98Zm-2.31-1.14h2.32a1.36,1.36,0,0,0-.27-.78,1.07,1.07,0,0,0-.87-.41,1.1,1.1,0,0,0-.81.33A1.29,1.29,0,0,0,83.94,96.87Zm.76-2.19.52-1.09h.92l-.86,1.09Z"/><path class="cls-2" d="M87.85,99.35V95.2h.64v.63a1.67,1.67,0,0,1,.44-.58.77.77,0,0,1,.46-.15,1.41,1.41,0,0,1,.72.23l-.24.65a1.06,1.06,0,0,0-.52-.15.68.68,0,0,0-.41.14.76.76,0,0,0-.27.38,3.09,3.09,0,0,0-.11.83v2.17Z"/><path class="cls-2" d="M93.22,99.35v-.53a1.3,1.3,0,0,1-1.16.62,1.62,1.62,0,0,1-.91-.27,1.82,1.82,0,0,1-.65-.77,2.63,2.63,0,0,1-.23-1.12,2.92,2.92,0,0,1,.21-1.13,1.62,1.62,0,0,1,.62-.78A1.68,1.68,0,0,1,92,95.1a1.38,1.38,0,0,1,1.14.58V93.62h.7v5.73ZM91,97.28a1.82,1.82,0,0,0,.34,1.19,1,1,0,0,0,1.58,0,1.79,1.79,0,0,0,.32-1.15,1.93,1.93,0,0,0-.33-1.25,1,1,0,0,0-.81-.4,1,1,0,0,0-.78.38A1.88,1.88,0,0,0,91,97.28Z"/><path class="cls-2" d="M95,94.43v-.81h.7v.81Zm0,4.92V95.2h.7v4.15Z"/><path class="cls-2" d="M99.44,99.35v-.53a1.29,1.29,0,0,1-1.16.62,1.64,1.64,0,0,1-.91-.27,1.8,1.8,0,0,1-.64-.77,2.49,2.49,0,0,1-.23-1.12,2.92,2.92,0,0,1,.21-1.13,1.57,1.57,0,0,1,.62-.78,1.63,1.63,0,0,1,.92-.27,1.44,1.44,0,0,1,.67.16,1.4,1.4,0,0,1,.48.42V93.62h.7v5.73Zm-2.22-2.07a1.76,1.76,0,0,0,.34,1.19,1,1,0,0,0,.79.39,1,1,0,0,0,.78-.37,1.73,1.73,0,0,0,.33-1.15,1.93,1.93,0,0,0-.33-1.25,1,1,0,0,0-.81-.4,1,1,0,0,0-.78.38A1.88,1.88,0,0,0,97.22,97.28Z"/><path class="cls-2" d="M103.91,98.84a2.58,2.58,0,0,1-.75.46,2.21,2.21,0,0,1-.78.14,1.54,1.54,0,0,1-1-.33,1.14,1.14,0,0,1-.37-.86,1.12,1.12,0,0,1,.14-.55,1.23,1.23,0,0,1,.37-.41,1.53,1.53,0,0,1,.5-.23,6,6,0,0,1,.63-.1,6.13,6.13,0,0,0,1.25-.25v-.18a.72.72,0,0,0-.2-.6,1.14,1.14,0,0,0-.8-.24,1.21,1.21,0,0,0-.73.17,1.08,1.08,0,0,0-.35.62l-.69-.1a1.86,1.86,0,0,1,.31-.71,1.42,1.42,0,0,1,.62-.42,2.75,2.75,0,0,1,.95-.15,2.55,2.55,0,0,1,.86.13,1.22,1.22,0,0,1,.49.31,1.33,1.33,0,0,1,.22.48,4.68,4.68,0,0,1,0,.65v.94a9.55,9.55,0,0,0,0,1.24,1.85,1.85,0,0,0,.17.5h-.73A1.59,1.59,0,0,1,103.91,98.84Zm-.06-1.58a4.63,4.63,0,0,1-1.15.27,2.64,2.64,0,0,0-.61.14.61.61,0,0,0-.38.56.57.57,0,0,0,.22.47.89.89,0,0,0,.62.19,1.43,1.43,0,0,0,.72-.18,1.14,1.14,0,0,0,.47-.48,1.85,1.85,0,0,0,.11-.71Z"/><path class="cls-2" d="M105.37,98.11l.7-.11a.92.92,0,0,0,.32.64,1.14,1.14,0,0,0,.75.22,1.13,1.13,0,0,0,.72-.19.63.63,0,0,0,.23-.47.43.43,0,0,0-.2-.37,3,3,0,0,0-.72-.24,6.07,6.07,0,0,1-1.08-.34,1.08,1.08,0,0,1-.45-.39,1.13,1.13,0,0,1,0-1.07,1.22,1.22,0,0,1,.35-.4,1.35,1.35,0,0,1,.45-.2,2,2,0,0,1,.6-.09,2.24,2.24,0,0,1,.86.15,1.15,1.15,0,0,1,.55.38,1.65,1.65,0,0,1,.24.64l-.69.09a.75.75,0,0,0-.27-.5,1,1,0,0,0-.63-.18,1.22,1.22,0,0,0-.7.16.48.48,0,0,0-.2.38.41.41,0,0,0,.08.24.62.62,0,0,0,.27.19l.62.18a6.83,6.83,0,0,1,1,.33,1.08,1.08,0,0,1,.47.37,1,1,0,0,1,.17.6,1.17,1.17,0,0,1-.21.66,1.29,1.29,0,0,1-.59.48,2.23,2.23,0,0,1-.88.17,1.9,1.9,0,0,1-1.23-.34A1.56,1.56,0,0,1,105.37,98.11Z"/><rect class="cls-4" x="13.96" y="4.79" width="0.85" height="19.3" rx="0.42"/><rect class="cls-4" x="127.83" y="4.79" width="0.85" height="19.3" rx="0.42"/></g></g></svg>