<svg xmlns="http://www.w3.org/2000/svg" viewBox="0 0 188.73 54.89"><defs><style>.cls-1{fill:#0088d3;}.cls-2{fill:#00669e;}.cls-3{fill:#28203a;}.cls-4{fill:#fff;}.cls-5{fill:#99c3b1;}.cls-6{fill:#00683b;}</style></defs><g id="Capa_2" data-name="Capa 2"><g id="Capa_1-2" data-name="Capa 1"><rect class="cls-1" width="142.64" height="28.77" rx="14.38"/><path class="cls-2" d="M14.58,41.29V34.85h1.3v6.44Z"/><path class="cls-2" d="M21.35,41.29H20.12V38.91a3.79,3.79,0,0,0-.08-1,.71.71,0,0,0-.26-.35.75.75,0,0,0-.43-.12,1,1,0,0,0-.57.18.84.84,0,0,0-.35.46,3.74,3.74,0,0,0-.1,1.08v2.11H17.1V36.62h1.15v.69a1.93,1.93,0,0,1,2.28-.65A1.22,1.22,0,0,1,21,37a1.19,1.19,0,0,1,.24.52,3.54,3.54,0,0,1,.07.83Z"/><path class="cls-2" d="M26.88,41.29H25.74V40.6a1.84,1.84,0,0,1-.68.6,1.72,1.72,0,0,1-.78.19,1.77,1.77,0,0,1-1.38-.64,2.67,2.67,0,0,1-.57-1.81,2.6,2.6,0,0,1,.56-1.81,1.81,1.81,0,0,1,1.41-.61,1.72,1.72,0,0,1,1.35.65V34.85h1.23Zm-3.29-2.44a2.22,2.22,0,0,0,.2,1.08.93.93,0,0,0,.84.49.89.89,0,0,0,.72-.36,1.71,1.71,0,0,0,.3-1.09,1.82,1.82,0,0,0-.29-1.16.92.92,0,0,0-.74-.35,1,1,0,0,0-.74.35A1.61,1.61,0,0,0,23.59,38.85Z"/><path class="cls-2" d="M28.1,36V34.85h1.24V36Zm0,5.3V36.62h1.24v4.67Z"/><path class="cls-2" d="M34.67,38l-1.22.22a.86.86,0,0,0-.28-.55.84.84,0,0,0-.56-.18.91.91,0,0,0-.74.32,1.63,1.63,0,0,0-.27,1.06A1.82,1.82,0,0,0,31.88,40a.9.9,0,0,0,.75.35.84.84,0,0,0,.57-.2,1.2,1.2,0,0,0,.32-.69l1.21.21A2.14,2.14,0,0,1,34,41a2.28,2.28,0,0,1-1.44.42,2.12,2.12,0,0,1-1.63-.64,2.95,2.95,0,0,1,0-3.59,2.17,2.17,0,0,1,1.65-.64,2.31,2.31,0,0,1,1.36.36A2.11,2.11,0,0,1,34.67,38Z"/><path class="cls-2" d="M36.53,38.05l-1.12-.21a1.76,1.76,0,0,1,.65-1,2.35,2.35,0,0,1,1.37-.32,3,3,0,0,1,1.23.19,1.24,1.24,0,0,1,.57.5,2.55,2.55,0,0,1,.16,1.1v1.45a4.82,4.82,0,0,0,.06.9,2.5,2.5,0,0,0,.22.63H38.44c0-.08-.07-.2-.12-.37s0-.12,0-.14a2.27,2.27,0,0,1-.68.46,2,2,0,0,1-.77.15A1.57,1.57,0,0,1,35.7,41a1.29,1.29,0,0,1-.42-1,1.27,1.27,0,0,1,.19-.7,1.23,1.23,0,0,1,.53-.48,4.07,4.07,0,0,1,1-.28,6.1,6.1,0,0,0,1.2-.31v-.12a.66.66,0,0,0-.17-.51,1.08,1.08,0,0,0-.67-.15.84.84,0,0,0-.51.13A1,1,0,0,0,36.53,38.05Zm1.65,1-.75.19a2.17,2.17,0,0,0-.67.21.53.53,0,0,0-.24.44.61.61,0,0,0,.19.45.69.69,0,0,0,.49.18,1.06,1.06,0,0,0,.64-.22.71.71,0,0,0,.29-.4,2.15,2.15,0,0,0,0-.61Z"/><path class="cls-2" d="M44.89,41.29H43.75V40.6a1.84,1.84,0,0,1-.68.6,1.72,1.72,0,0,1-.78.19,1.77,1.77,0,0,1-1.38-.64,3.21,3.21,0,0,1,0-3.62,1.84,1.84,0,0,1,1.41-.61,1.73,1.73,0,0,1,1.36.65V34.85h1.23ZM41.6,38.85a2.22,2.22,0,0,0,.2,1.08.93.93,0,0,0,.84.49.91.91,0,0,0,.72-.36,1.71,1.71,0,0,0,.3-1.09,1.82,1.82,0,0,0-.29-1.16.92.92,0,0,0-.74-.35,1,1,0,0,0-.74.35A1.61,1.61,0,0,0,41.6,38.85Z"/><path class="cls-2" d="M45.83,38.89a2.53,2.53,0,0,1,.3-1.19,2,2,0,0,1,.86-.88,2.56,2.56,0,0,1,1.24-.3,2.33,2.33,0,0,1,2.41,2.42A2.44,2.44,0,0,1,50,40.7a2.33,2.33,0,0,1-1.72.69A2.65,2.65,0,0,1,47,41.1a2,2,0,0,1-.88-.85A2.82,2.82,0,0,1,45.83,38.89Zm1.26.06A1.56,1.56,0,0,0,47.42,40a1.07,1.07,0,0,0,.81.37A1,1,0,0,0,49,40a1.88,1.88,0,0,0,0-2.13,1,1,0,0,0-.81-.37,1.07,1.07,0,0,0-.81.37A1.55,1.55,0,0,0,47.09,39Z"/><path class="cls-2" d="M52.79,41.29H51.56V36.62H52.7v.66a2,2,0,0,1,.53-.61,1,1,0,0,1,.54-.15,1.51,1.51,0,0,1,.81.23l-.38,1.08a1.09,1.09,0,0,0-.58-.21.65.65,0,0,0-.44.15.94.94,0,0,0-.29.51,7.36,7.36,0,0,0-.1,1.57Z"/><path class="cls-2" d="M60.51,41.29H59.27V36.63a4.12,4.12,0,0,1-1.59.94V36.45a3.6,3.6,0,0,0,1-.6,2.23,2.23,0,0,0,.77-1h1Z"/><path class="cls-2" d="M62.85,37.86V36.62h1.24v1.24Zm0,3.43V40.05h1.24v1.24Z"/><path class="cls-3" d="M14.59,51.29V45.56h4.14v.68H15.35V48h3.17v.67H15.35v2h3.52v.68Z"/><path class="cls-3" d="M18.93,52.9l.13-.6a1.19,1.19,0,0,0,.33.05.35.35,0,0,0,.32-.14,1.41,1.41,0,0,0,.11-.71V47.14h.7v4.37a2,2,0,0,1-.2,1.07.93.93,0,0,1-.84.39A2,2,0,0,1,18.93,52.9Zm.89-6.52v-.82h.7v.82Z"/><path class="cls-3" d="M21.6,51.29V47.14h.63v.58a1.53,1.53,0,0,1,.52-.49,1.47,1.47,0,0,1,.74-.18,1.33,1.33,0,0,1,.75.19,1,1,0,0,1,.42.53,1.49,1.49,0,0,1,1.28-.72,1.26,1.26,0,0,1,.95.34,1.47,1.47,0,0,1,.33,1v2.85h-.7V48.68a1.76,1.76,0,0,0-.07-.61.51.51,0,0,0-.24-.3.75.75,0,0,0-.43-.11.94.94,0,0,0-.72.29,1.28,1.28,0,0,0-.29.93v2.41h-.7v-2.7a1.15,1.15,0,0,0-.18-.7.63.63,0,0,0-.56-.23,1.06,1.06,0,0,0-.55.15.87.87,0,0,0-.36.46,2.45,2.45,0,0,0-.12.87v2.15Z"/><path class="cls-3" d="M28.46,47.94v-.8h.8v.8Zm0,3.35v-.8h.8v.8Z"/><path class="cls-3" d="M32.79,51.29V45.56h.78l3,4.5v-4.5h.72v5.73h-.77l-3-4.5v4.5Z"/><path class="cls-3" d="M38.49,46.37v-.81h.7v.81Zm0,4.92V47.14h.7v4.15Z"/><path class="cls-3" d="M41.42,51.29l-1.58-4.15h.74l.89,2.48q.15.41.27.84c.06-.22.15-.48.26-.79l.92-2.53h.72l-1.57,4.15Z"/><path class="cls-3" d="M47.1,50l.73.09a1.72,1.72,0,0,1-.64,1,1.92,1.92,0,0,1-1.18.35,1.89,1.89,0,0,1-1.45-.56A2.21,2.21,0,0,1,44,49.25a2.31,2.31,0,0,1,.54-1.63,1.83,1.83,0,0,1,1.4-.57,1.77,1.77,0,0,1,1.36.56,2.27,2.27,0,0,1,.52,1.6v.18H44.76a1.57,1.57,0,0,0,.38,1,1.15,1.15,0,0,0,.87.36,1,1,0,0,0,.66-.2A1.28,1.28,0,0,0,47.1,50Zm-2.3-1.13h2.31a1.47,1.47,0,0,0-.26-.79A1.15,1.15,0,0,0,45.16,48,1.24,1.24,0,0,0,44.8,48.82Z"/><path class="cls-3" d="M48.7,51.29V45.56h.7v5.73Z"/><path class="cls-3" d="M52.71,51.29V47.14h.63v.58a1.63,1.63,0,0,1,.52-.49,1.5,1.5,0,0,1,.74-.18,1.36,1.36,0,0,1,.76.19,1,1,0,0,1,.41.53,1.5,1.5,0,0,1,1.28-.72,1.26,1.26,0,0,1,1,.34,1.47,1.47,0,0,1,.33,1v2.85h-.69V48.68a2.05,2.05,0,0,0-.07-.61.57.57,0,0,0-.25-.3.73.73,0,0,0-.42-.11,1,1,0,0,0-.73.29,1.28,1.28,0,0,0-.29.93v2.41h-.7v-2.7a1.22,1.22,0,0,0-.17-.7.65.65,0,0,0-.57-.23,1,1,0,0,0-.54.15.94.94,0,0,0-.37.46,2.74,2.74,0,0,0-.11.87v2.15Z"/><path class="cls-3" d="M62.08,50.78a2.87,2.87,0,0,1-.75.47,2.19,2.19,0,0,1-.77.13,1.5,1.5,0,0,1-1.05-.33,1.09,1.09,0,0,1-.37-.86,1.15,1.15,0,0,1,.14-.55,1.19,1.19,0,0,1,.36-.41,1.69,1.69,0,0,1,.51-.23,5.74,5.74,0,0,1,.62-.1A7,7,0,0,0,62,48.66v-.19a.77.77,0,0,0-.2-.6,1.18,1.18,0,0,0-.8-.24,1.29,1.29,0,0,0-.73.17,1,1,0,0,0-.35.62l-.69-.1a1.72,1.72,0,0,1,.31-.71,1.36,1.36,0,0,1,.62-.42,3,3,0,0,1,.94-.14,2.64,2.64,0,0,1,.87.12,1,1,0,0,1,.48.32,1,1,0,0,1,.22.47,3.25,3.25,0,0,1,0,.65v.94a10.35,10.35,0,0,0,0,1.24,1.58,1.58,0,0,0,.18.5h-.73A1.6,1.6,0,0,1,62.08,50.78Zm0-1.57a5.38,5.38,0,0,1-1.15.26,2.76,2.76,0,0,0-.62.14.56.56,0,0,0-.27.23.57.57,0,0,0-.1.34.59.59,0,0,0,.21.46.9.9,0,0,0,.63.19,1.43,1.43,0,0,0,.72-.18,1.07,1.07,0,0,0,.46-.48,1.65,1.65,0,0,0,.12-.71Z"/><path class="cls-3" d="M66.52,51.29v-.53a1.27,1.27,0,0,1-1.16.62,1.62,1.62,0,0,1-.91-.27,1.79,1.79,0,0,1-.65-.76,2.71,2.71,0,0,1-.23-1.13,2.92,2.92,0,0,1,.21-1.13,1.59,1.59,0,0,1,.62-.77,1.68,1.68,0,0,1,.93-.27,1.31,1.31,0,0,1,1.14.57V45.56h.7v5.73ZM64.3,49.22a1.82,1.82,0,0,0,.33,1.19,1,1,0,0,0,.79.39,1,1,0,0,0,.79-.37,1.77,1.77,0,0,0,.32-1.15A1.93,1.93,0,0,0,66.2,48a1,1,0,0,0-.81-.4,1,1,0,0,0-.78.38A1.91,1.91,0,0,0,64.3,49.22Z"/><path class="cls-3" d="M71,51.29v-.61a1.53,1.53,0,0,1-1.32.7,1.61,1.61,0,0,1-.69-.14,1.1,1.1,0,0,1-.47-.35,1.54,1.54,0,0,1-.22-.52,4.76,4.76,0,0,1,0-.66V47.14H69v2.3a3.76,3.76,0,0,0,.05.74.69.69,0,0,0,.28.44.9.9,0,0,0,.53.16,1.12,1.12,0,0,0,.59-.17.86.86,0,0,0,.4-.44,2.34,2.34,0,0,0,.11-.81V47.14h.7v4.15Z"/><path class="cls-3" d="M72.72,51.29V47.14h.63v.63a1.56,1.56,0,0,1,.45-.58.71.71,0,0,1,.45-.14,1.34,1.34,0,0,1,.72.22l-.24.66a.93.93,0,0,0-.52-.16.68.68,0,0,0-.41.14.73.73,0,0,0-.26.39,2.66,2.66,0,0,0-.12.82v2.17Z"/><path class="cls-3" d="M78.23,50,79,50a1.78,1.78,0,0,1-.64,1,2,2,0,0,1-1.19.35,1.87,1.87,0,0,1-1.44-.56,2.16,2.16,0,0,1-.53-1.57,2.3,2.3,0,0,1,.53-1.63,1.85,1.85,0,0,1,1.4-.57,1.75,1.75,0,0,1,1.36.56,2.27,2.27,0,0,1,.53,1.6v.18h-3.1a1.62,1.62,0,0,0,.39,1,1.15,1.15,0,0,0,.87.36,1.08,1.08,0,0,0,.66-.2A1.35,1.35,0,0,0,78.23,50Zm-2.31-1.13h2.32A1.39,1.39,0,0,0,78,48a1.07,1.07,0,0,0-.87-.41,1.1,1.1,0,0,0-.81.33A1.25,1.25,0,0,0,75.92,48.82Z"/><path class="cls-3" d="M79.47,51.29v-.57l2.64-3-.79,0h-1.7v-.57H83v.46l-2.24,2.64-.44.48c.32,0,.62,0,.89,0h1.92v.61Z"/><path class="cls-3" d="M90.24,49.28l.76.19a2.61,2.61,0,0,1-.86,1.43,2.43,2.43,0,0,1-1.52.49,2.71,2.71,0,0,1-1.5-.38,2.34,2.34,0,0,1-.88-1.09,3.78,3.78,0,0,1-.31-1.54,3.51,3.51,0,0,1,.34-1.56,2.39,2.39,0,0,1,1-1,2.84,2.84,0,0,1,1.39-.35,2.35,2.35,0,0,1,1.44.44,2.3,2.3,0,0,1,.82,1.23l-.75.18a1.7,1.7,0,0,0-.58-.91,1.53,1.53,0,0,0-.95-.29,1.84,1.84,0,0,0-1.1.32,1.64,1.64,0,0,0-.63.85,3.38,3.38,0,0,0-.18,1.1,3.48,3.48,0,0,0,.22,1.27,1.56,1.56,0,0,0,.66.82,1.84,1.84,0,0,0,1,.27,1.59,1.59,0,0,0,1.08-.37A1.93,1.93,0,0,0,90.24,49.28Z"/><path class="cls-3" d="M94.55,50.78a2.76,2.76,0,0,1-.76.47,2.19,2.19,0,0,1-.77.13,1.5,1.5,0,0,1-1-.33,1.09,1.09,0,0,1-.37-.86,1.15,1.15,0,0,1,.14-.55,1.19,1.19,0,0,1,.36-.41,1.69,1.69,0,0,1,.51-.23,6.21,6.21,0,0,1,.62-.1,7,7,0,0,0,1.26-.24v-.19a.77.77,0,0,0-.2-.6,1.16,1.16,0,0,0-.8-.24,1.29,1.29,0,0,0-.73.17,1,1,0,0,0-.35.62l-.69-.1a1.72,1.72,0,0,1,.31-.71,1.36,1.36,0,0,1,.62-.42,3,3,0,0,1,.94-.14,2.64,2.64,0,0,1,.87.12,1,1,0,0,1,.48.32,1,1,0,0,1,.22.47,3.25,3.25,0,0,1,0,.65v.94a10.35,10.35,0,0,0,0,1.24,1.58,1.58,0,0,0,.18.5h-.73A1.37,1.37,0,0,1,94.55,50.78Zm-.06-1.57a5.38,5.38,0,0,1-1.15.26,2.64,2.64,0,0,0-.61.14.58.58,0,0,0-.28.23.57.57,0,0,0-.1.34.59.59,0,0,0,.21.46.91.91,0,0,0,.63.19,1.43,1.43,0,0,0,.72-.18,1,1,0,0,0,.46-.48,1.65,1.65,0,0,0,.12-.71Z"/><path class="cls-3" d="M96.29,52.88V47.14h.64v.54a1.65,1.65,0,0,1,.51-.48,1.47,1.47,0,0,1,.69-.15,1.65,1.65,0,0,1,.94.27,1.68,1.68,0,0,1,.61.77,3,3,0,0,1,0,2.24,1.69,1.69,0,0,1-.66.78,1.72,1.72,0,0,1-.92.27,1.33,1.33,0,0,1-.63-.15,1.3,1.3,0,0,1-.46-.37v2Zm.63-3.64a1.77,1.77,0,0,0,.33,1.18,1,1,0,0,0,.78.38,1,1,0,0,0,.81-.39,1.92,1.92,0,0,0,.33-1.23A1.82,1.82,0,0,0,98.84,48a1,1,0,0,0-.77-.39,1,1,0,0,0-.8.42A1.87,1.87,0,0,0,96.92,49.24Z"/><path class="cls-3" d="M103.44,50.78a2.87,2.87,0,0,1-.75.47,2.19,2.19,0,0,1-.77.13,1.5,1.5,0,0,1-1-.33,1.09,1.09,0,0,1-.37-.86,1,1,0,0,1,.14-.55,1.19,1.19,0,0,1,.36-.41,1.69,1.69,0,0,1,.51-.23,5.34,5.34,0,0,1,.62-.1,7,7,0,0,0,1.26-.24v-.19a.77.77,0,0,0-.2-.6,1.18,1.18,0,0,0-.8-.24,1.27,1.27,0,0,0-.73.17,1,1,0,0,0-.35.62l-.69-.1a1.72,1.72,0,0,1,.31-.71,1.36,1.36,0,0,1,.62-.42,3,3,0,0,1,.94-.14,2.54,2.54,0,0,1,.86.12,1,1,0,0,1,.49.32,1,1,0,0,1,.22.47,4.27,4.27,0,0,1,0,.65v.94a10.35,10.35,0,0,0,0,1.24,1.58,1.58,0,0,0,.18.5h-.74A1.59,1.59,0,0,1,103.44,50.78Zm0-1.57a5.38,5.38,0,0,1-1.15.26,2.76,2.76,0,0,0-.62.14.56.56,0,0,0-.27.23.57.57,0,0,0-.1.34.59.59,0,0,0,.21.46.89.89,0,0,0,.62.19,1.44,1.44,0,0,0,.73-.18,1.07,1.07,0,0,0,.46-.48,1.65,1.65,0,0,0,.12-.71Z"/><path class="cls-3" d="M107.89,49.77l.69.09A1.72,1.72,0,0,1,108,51a1.67,1.67,0,0,1-1.14.4,1.77,1.77,0,0,1-1.37-.55,2.27,2.27,0,0,1-.52-1.6,3.07,3.07,0,0,1,.22-1.18,1.6,1.6,0,0,1,.68-.75,2,2,0,0,1,1-.25,1.73,1.73,0,0,1,1.11.34,1.6,1.6,0,0,1,.55,1l-.69.1a1.13,1.13,0,0,0-.34-.62.87.87,0,0,0-.6-.22A1.08,1.08,0,0,0,106,48a1.74,1.74,0,0,0-.34,1.2,1.92,1.92,0,0,0,.32,1.22,1.07,1.07,0,0,0,.84.37,1,1,0,0,0,.69-.25A1.24,1.24,0,0,0,107.89,49.77Z"/><path class="cls-3" d="M109.19,46.37v-.81h.7v.81Zm0,4.92V47.14h.7v4.15Z"/><path class="cls-3" d="M113.66,51.29v-.53a1.28,1.28,0,0,1-1.16.62,1.65,1.65,0,0,1-.92-.27,1.84,1.84,0,0,1-.64-.76,2.71,2.71,0,0,1-.23-1.13,2.92,2.92,0,0,1,.21-1.13,1.54,1.54,0,0,1,.62-.77,1.63,1.63,0,0,1,.92-.27,1.44,1.44,0,0,1,.67.15,1.4,1.4,0,0,1,.48.42V45.56h.7v5.73Zm-2.23-2.07a1.76,1.76,0,0,0,.34,1.19,1,1,0,0,0,.79.39,1,1,0,0,0,.78-.37,1.72,1.72,0,0,0,.33-1.15,1.93,1.93,0,0,0-.33-1.25,1,1,0,0,0-.81-.4,1,1,0,0,0-.78.38A1.9,1.9,0,0,0,111.43,49.22Z"/><path class="cls-3" d="M118.12,50.78a2.87,2.87,0,0,1-.75.47,2.2,2.2,0,0,1-.78.13,1.54,1.54,0,0,1-1-.33,1.13,1.13,0,0,1-.37-.86,1.15,1.15,0,0,1,.14-.55,1.33,1.33,0,0,1,.37-.41,1.75,1.75,0,0,1,.5-.23,6,6,0,0,1,.63-.1,7.08,7.08,0,0,0,1.25-.24c0-.1,0-.16,0-.19a.77.77,0,0,0-.2-.6,1.18,1.18,0,0,0-.8-.24,1.3,1.3,0,0,0-.74.17,1.14,1.14,0,0,0-.35.62l-.68-.1a1.71,1.71,0,0,1,.3-.71,1.46,1.46,0,0,1,.63-.42,3,3,0,0,1,.94-.14,2.58,2.58,0,0,1,.86.12,1.13,1.13,0,0,1,.49.32,1.08,1.08,0,0,1,.22.47,4.68,4.68,0,0,1,0,.65v.94a9.55,9.55,0,0,0,0,1.24,1.58,1.58,0,0,0,.18.5h-.74A1.59,1.59,0,0,1,118.12,50.78Zm-.06-1.57a5.24,5.24,0,0,1-1.15.26,2.64,2.64,0,0,0-.61.14.63.63,0,0,0-.28.23.65.65,0,0,0-.1.34.6.6,0,0,0,.22.46.89.89,0,0,0,.62.19,1.43,1.43,0,0,0,.72-.18,1.09,1.09,0,0,0,.47-.48,1.85,1.85,0,0,0,.11-.71Z"/><path class="cls-3" d="M122.55,51.29v-.53a1.27,1.27,0,0,1-1.16.62,1.64,1.64,0,0,1-.91-.27,1.77,1.77,0,0,1-.64-.76,2.57,2.57,0,0,1-.23-1.13,2.92,2.92,0,0,1,.21-1.13,1.54,1.54,0,0,1,.62-.77,1.63,1.63,0,0,1,.92-.27,1.47,1.47,0,0,1,.67.15,1.5,1.5,0,0,1,.48.42V45.56h.7v5.73Zm-2.22-2.07a1.76,1.76,0,0,0,.34,1.19,1,1,0,0,0,.79.39,1,1,0,0,0,.78-.37,1.72,1.72,0,0,0,.33-1.15,1.93,1.93,0,0,0-.33-1.25,1,1,0,0,0-.81-.4,1,1,0,0,0-.78.38A1.9,1.9,0,0,0,120.33,49.22Z"/><path class="cls-3" d="M127.15,50l.73.09a1.78,1.78,0,0,1-.64,1,1.93,1.93,0,0,1-1.19.35,1.88,1.88,0,0,1-1.44-.56,2.16,2.16,0,0,1-.53-1.57,2.31,2.31,0,0,1,.54-1.63,1.82,1.82,0,0,1,1.39-.57,1.75,1.75,0,0,1,1.36.56,2.23,2.23,0,0,1,.53,1.6v.18h-3.1a1.62,1.62,0,0,0,.39,1,1.15,1.15,0,0,0,.87.36,1,1,0,0,0,.66-.2A1.35,1.35,0,0,0,127.15,50Zm-2.31-1.13h2.32a1.39,1.39,0,0,0-.27-.79,1.07,1.07,0,0,0-.87-.41,1.1,1.1,0,0,0-.81.33A1.3,1.3,0,0,0,124.84,48.82Z"/><path class="cls-3" d="M128.48,50.05l.69-.11a1,1,0,0,0,.33.64,1.14,1.14,0,0,0,.75.22,1.13,1.13,0,0,0,.72-.19.63.63,0,0,0,.23-.47.43.43,0,0,0-.2-.37,3.52,3.52,0,0,0-.72-.24,6.07,6.07,0,0,1-1.08-.34,1,1,0,0,1-.45-.39,1.09,1.09,0,0,1-.15-.56,1.13,1.13,0,0,1,.12-.51,1.1,1.1,0,0,1,.35-.39,1.35,1.35,0,0,1,.45-.21,2,2,0,0,1,.6-.08,2.25,2.25,0,0,1,.86.14,1.15,1.15,0,0,1,.55.38,1.65,1.65,0,0,1,.24.64l-.69.09a.75.75,0,0,0-.27-.5,1,1,0,0,0-.64-.18,1.21,1.21,0,0,0-.69.16.5.5,0,0,0-.2.38.39.39,0,0,0,.08.25.71.71,0,0,0,.27.18l.62.18a8.23,8.23,0,0,1,1,.33,1.08,1.08,0,0,1,.47.37,1,1,0,0,1,.16.6,1.16,1.16,0,0,1-.2.66,1.29,1.29,0,0,1-.59.48,2.06,2.06,0,0,1-.88.17,2,2,0,0,1-1.23-.33A1.61,1.61,0,0,1,128.48,50.05Z"/><path class="cls-3" d="M134.72,49.21a2.16,2.16,0,0,1,.64-1.7,1.92,1.92,0,0,1,1.31-.46,1.85,1.85,0,0,1,1.4.56,2.13,2.13,0,0,1,.54,1.55,2.77,2.77,0,0,1-.24,1.26,1.77,1.77,0,0,1-.7.71,2,2,0,0,1-1,.25,1.85,1.85,0,0,1-1.41-.56A2.22,2.22,0,0,1,134.72,49.21Zm.72,0a1.79,1.79,0,0,0,.35,1.2,1.13,1.13,0,0,0,.88.39,1.11,1.11,0,0,0,.87-.39,1.85,1.85,0,0,0,.35-1.22,1.76,1.76,0,0,0-.35-1.17,1.18,1.18,0,0,0-1.75,0A1.78,1.78,0,0,0,135.44,49.21Z"/><path class="cls-3" d="M139.42,51.29V47.14h.64v.63a1.67,1.67,0,0,1,.44-.58.76.76,0,0,1,.46-.14,1.39,1.39,0,0,1,.72.22l-.24.66a1,1,0,0,0-.52-.16.7.7,0,0,0-.67.53,2.66,2.66,0,0,0-.12.82v2.17Z"/><path class="cls-3" d="M142,51.63l.68.1a.65.65,0,0,0,.24.46,1.15,1.15,0,0,0,.71.2,1.27,1.27,0,0,0,.76-.2.93.93,0,0,0,.36-.54,5.47,5.47,0,0,0,.05-.9,1.45,1.45,0,0,1-1.15.54,1.56,1.56,0,0,1-1.32-.62,2.32,2.32,0,0,1-.47-1.48A2.79,2.79,0,0,1,142,48.1a1.62,1.62,0,0,1,1.58-1.05,1.46,1.46,0,0,1,1.21.59v-.5h.65v3.59a3.46,3.46,0,0,1-.19,1.37,1.49,1.49,0,0,1-.63.64,2.2,2.2,0,0,1-1,.23,2,2,0,0,1-1.2-.33A1.12,1.12,0,0,1,142,51.63Zm.58-2.49a1.84,1.84,0,0,0,.32,1.19,1.06,1.06,0,0,0,1.63,0,2.18,2.18,0,0,0,0-2.32,1.08,1.08,0,0,0-.82-.38,1,1,0,0,0-.79.38A1.68,1.68,0,0,0,142.55,49.14Z"/><path class="cls-3" d="M149.25,50.78a2.87,2.87,0,0,1-.75.47,2.19,2.19,0,0,1-.77.13,1.55,1.55,0,0,1-1.06-.33,1.12,1.12,0,0,1-.36-.86,1,1,0,0,1,.14-.55,1.19,1.19,0,0,1,.36-.41,1.69,1.69,0,0,1,.51-.23,5.34,5.34,0,0,1,.62-.1,6.71,6.71,0,0,0,1.25-.24,1.77,1.77,0,0,0,0-.19.77.77,0,0,0-.2-.6,1.18,1.18,0,0,0-.8-.24,1.27,1.27,0,0,0-.73.17,1,1,0,0,0-.35.62l-.69-.1a1.6,1.6,0,0,1,.31-.71,1.36,1.36,0,0,1,.62-.42,3,3,0,0,1,.94-.14,2.58,2.58,0,0,1,.86.12,1.07,1.07,0,0,1,.49.32,1,1,0,0,1,.22.47,4.27,4.27,0,0,1,0,.65v.94a10.35,10.35,0,0,0,0,1.24,1.58,1.58,0,0,0,.18.5h-.74A1.59,1.59,0,0,1,149.25,50.78Zm-.06-1.57a5.12,5.12,0,0,1-1.14.26,2.76,2.76,0,0,0-.62.14.56.56,0,0,0-.27.23.57.57,0,0,0-.1.34.59.59,0,0,0,.21.46.89.89,0,0,0,.62.19,1.46,1.46,0,0,0,.73-.18,1.07,1.07,0,0,0,.46-.48,1.67,1.67,0,0,0,.11-.71Z"/><path class="cls-3" d="M151,51.29V47.14h.63v.59a1.47,1.47,0,0,1,1.32-.68,1.73,1.73,0,0,1,.69.13,1.16,1.16,0,0,1,.47.35,1.43,1.43,0,0,1,.22.52,4.82,4.82,0,0,1,0,.69v2.55h-.71V48.76a1.78,1.78,0,0,0-.08-.64.68.68,0,0,0-.29-.34,1,1,0,0,0-.49-.12,1.15,1.15,0,0,0-.78.28A1.43,1.43,0,0,0,151.7,49v2.27Z"/><path class="cls-3" d="M155.64,51.29v-.8h.8v.8Z"/><rect class="cls-4" x="13.96" y="4.79" width="0.85" height="19.3" rx="0.42"/><rect class="cls-4" x="127.83" y="4.79" width="0.85" height="19.3" rx="0.42"/><path class="cls-3" d="M20,6.52h2.38a4.82,4.82,0,0,1,1.23.12,2.22,2.22,0,0,1,1,.59,2.8,2.8,0,0,1,.61,1,4.76,4.76,0,0,1,.21,1.52,4.28,4.28,0,0,1-.19,1.37,2.94,2.94,0,0,1-.7,1.14,2.21,2.21,0,0,1-.91.51,4,4,0,0,1-1.15.14H20Zm1.3,1.09v4.26h1a3.62,3.62,0,0,0,.79-.06,1.16,1.16,0,0,0,.53-.27,1.42,1.42,0,0,0,.34-.62,4.53,4.53,0,0,0,.13-1.18A4,4,0,0,0,24,8.6,1.48,1.48,0,0,0,23.59,8a1.22,1.22,0,0,0-.6-.3,6.14,6.14,0,0,0-1.07-.06Z"/><path class="cls-3" d="M29.23,11.47l1.23.21a2.06,2.06,0,0,1-.75,1,2.17,2.17,0,0,1-1.28.35,2.08,2.08,0,0,1-1.8-.79,2.67,2.67,0,0,1-.46-1.61,2.61,2.61,0,0,1,.6-1.82,2,2,0,0,1,1.54-.65A2.09,2.09,0,0,1,30,8.87,3.09,3.09,0,0,1,30.53,11h-3.1a1.28,1.28,0,0,0,.3.86.94.94,0,0,0,.71.3.72.72,0,0,0,.49-.16A1,1,0,0,0,29.23,11.47Zm.07-1.25A1.18,1.18,0,0,0,29,9.41a.83.83,0,0,0-.64-.28.86.86,0,0,0-.67.3,1.16,1.16,0,0,0-.26.79Z"/><path class="cls-3" d="M31.1,11.63l1.24-.19a.87.87,0,0,0,.32.54,1,1,0,0,0,.67.19,1.27,1.27,0,0,0,.72-.17.42.42,0,0,0,.17-.33.34.34,0,0,0-.09-.24,1.13,1.13,0,0,0-.41-.16,6.81,6.81,0,0,1-1.9-.6,1.19,1.19,0,0,1-.55-1.05,1.28,1.28,0,0,1,.48-1,2.2,2.2,0,0,1,1.48-.41,2.59,2.59,0,0,1,1.43.31,1.6,1.6,0,0,1,.64.92l-1.17.22a.7.7,0,0,0-.28-.42,1,1,0,0,0-.6-.15,1.32,1.32,0,0,0-.69.14.28.28,0,0,0-.14.25.26.26,0,0,0,.12.22,4.17,4.17,0,0,0,1.15.35,3.39,3.39,0,0,1,1.38.55,1.14,1.14,0,0,1,.39.92,1.4,1.4,0,0,1-.54,1.1,2.38,2.38,0,0,1-1.59.46,2.64,2.64,0,0,1-1.5-.38A1.74,1.74,0,0,1,31.1,11.63Z"/><path class="cls-3" d="M37.46,9.72l-1.12-.21a1.76,1.76,0,0,1,.65-1,2.35,2.35,0,0,1,1.37-.32,3,3,0,0,1,1.23.19,1.24,1.24,0,0,1,.57.5,2.52,2.52,0,0,1,.17,1.1l0,1.45a4.82,4.82,0,0,0,.06.9,3,3,0,0,0,.22.63H39.37c0-.08-.07-.2-.12-.37s0-.12,0-.14a2.27,2.27,0,0,1-.68.46,2,2,0,0,1-.77.15,1.57,1.57,0,0,1-1.13-.39,1.29,1.29,0,0,1-.42-1,1.36,1.36,0,0,1,.19-.7,1.23,1.23,0,0,1,.53-.48,4.22,4.22,0,0,1,1-.28,6.1,6.1,0,0,0,1.2-.31V9.79a.66.66,0,0,0-.17-.51,1.08,1.08,0,0,0-.67-.15.84.84,0,0,0-.51.13A1,1,0,0,0,37.46,9.72Zm1.65,1c-.15,0-.41.11-.75.19a2.17,2.17,0,0,0-.67.21.53.53,0,0,0-.24.44.61.61,0,0,0,.19.45.69.69,0,0,0,.49.18,1,1,0,0,0,.64-.22.71.71,0,0,0,.29-.4,2.15,2.15,0,0,0,0-.61Z"/><path class="cls-3" d="M42.73,13H41.49V8.29h1.15V9a1.76,1.76,0,0,1,.53-.61.94.94,0,0,1,.53-.15,1.51,1.51,0,0,1,.81.23L44.13,9.5a1.06,1.06,0,0,0-.58-.21.67.67,0,0,0-.44.15.94.94,0,0,0-.28.51,7.36,7.36,0,0,0-.1,1.57Z"/><path class="cls-3" d="M46.23,13H45V8.29h1.15V9a1.87,1.87,0,0,1,.53-.61,1,1,0,0,1,.53-.15,1.55,1.55,0,0,1,.82.23L47.63,9.5a1,1,0,0,0-.58-.21.67.67,0,0,0-.44.15.94.94,0,0,0-.28.51,7.36,7.36,0,0,0-.1,1.57Z"/><path class="cls-3" d="M48.26,10.56a2.43,2.43,0,0,1,.31-1.19,2,2,0,0,1,.85-.88,2.6,2.6,0,0,1,1.25-.3,2.35,2.35,0,0,1,1.73.68,2.39,2.39,0,0,1,.68,1.74,2.44,2.44,0,0,1-.68,1.76,2.34,2.34,0,0,1-1.73.69,2.64,2.64,0,0,1-1.22-.29,1.91,1.91,0,0,1-.88-.85A2.71,2.71,0,0,1,48.26,10.56Zm1.27.06a1.56,1.56,0,0,0,.33,1.07,1.07,1.07,0,0,0,1.62,0,1.56,1.56,0,0,0,.33-1.07,1.55,1.55,0,0,0-.33-1.06,1.07,1.07,0,0,0-1.62,0A1.55,1.55,0,0,0,49.53,10.62Z"/><path class="cls-3" d="M54.05,13V6.52h1.23V13Z"/><path class="cls-3" d="M56.55,13V6.52h1.23V13Z"/><path class="cls-3" d="M60,9.72l-1.12-.21a1.71,1.71,0,0,1,.65-1,2.35,2.35,0,0,1,1.37-.32,3,3,0,0,1,1.23.19,1.24,1.24,0,0,1,.57.5,2.55,2.55,0,0,1,.16,1.1v1.45a4.82,4.82,0,0,0,.06.9,2.5,2.5,0,0,0,.22.63H61.88c0-.08-.07-.2-.12-.37s0-.12,0-.14a2.27,2.27,0,0,1-.68.46,2,2,0,0,1-.77.15,1.57,1.57,0,0,1-1.13-.39,1.29,1.29,0,0,1-.42-1,1.27,1.27,0,0,1,.19-.7,1.23,1.23,0,0,1,.53-.48,4.07,4.07,0,0,1,1-.28,6.1,6.1,0,0,0,1.2-.31V9.79a.66.66,0,0,0-.17-.51,1.08,1.08,0,0,0-.67-.15.84.84,0,0,0-.51.13A1,1,0,0,0,60,9.72Zm1.65,1-.75.19a2.17,2.17,0,0,0-.67.21.53.53,0,0,0-.24.44.61.61,0,0,0,.19.45.69.69,0,0,0,.49.18,1.06,1.06,0,0,0,.64-.22.71.71,0,0,0,.29-.4,2.15,2.15,0,0,0,0-.61Z"/><path class="cls-3" d="M65.23,13H64V8.29h1.15V9a1.76,1.76,0,0,1,.53-.61.94.94,0,0,1,.53-.15,1.51,1.51,0,0,1,.81.23L66.64,9.5a1.06,1.06,0,0,0-.58-.21.67.67,0,0,0-.44.15.94.94,0,0,0-.28.51,7.14,7.14,0,0,0-.11,1.57Z"/><path class="cls-3" d="M74.12,9.67l-1.21.22a.91.91,0,0,0-.28-.55.88.88,0,0,0-.57-.18.89.89,0,0,0-.73.32,1.57,1.57,0,0,0-.28,1.06,1.89,1.89,0,0,0,.28,1.17.93.93,0,0,0,.75.35.85.85,0,0,0,.58-.2,1.2,1.2,0,0,0,.31-.69l1.22.21a2.2,2.2,0,0,1-.73,1.26,2.28,2.28,0,0,1-1.44.42,2.14,2.14,0,0,1-1.63-.64,2.54,2.54,0,0,1-.61-1.79,2.55,2.55,0,0,1,.61-1.8,2.18,2.18,0,0,1,1.66-.64,2.27,2.27,0,0,1,1.35.36A2,2,0,0,1,74.12,9.67Z"/><path class="cls-3" d="M76,9.72l-1.12-.21a1.81,1.81,0,0,1,.65-1,2.37,2.37,0,0,1,1.37-.32,3,3,0,0,1,1.23.19,1.24,1.24,0,0,1,.57.5,2.52,2.52,0,0,1,.17,1.1l0,1.45a4.82,4.82,0,0,0,.06.9,2.55,2.55,0,0,0,.23.63H77.89a3,3,0,0,1-.11-.37.93.93,0,0,0,0-.14,2.23,2.23,0,0,1-.67.46,2,2,0,0,1-.77.15,1.61,1.61,0,0,1-1.14-.39,1.28,1.28,0,0,1-.41-1,1.35,1.35,0,0,1,.18-.7,1.29,1.29,0,0,1,.53-.48,4.18,4.18,0,0,1,1-.28,6.54,6.54,0,0,0,1.2-.31V9.79a.63.63,0,0,0-.18-.51,1.07,1.07,0,0,0-.66-.15.89.89,0,0,0-.52.13A1,1,0,0,0,76,9.72Zm1.66,1-.76.19a2.27,2.27,0,0,0-.67.21.53.53,0,0,0-.24.44.61.61,0,0,0,.19.45.71.71,0,0,0,.5.18,1,1,0,0,0,.63-.22.78.78,0,0,0,.3-.4,2.61,2.61,0,0,0,0-.61Z"/><path class="cls-3" d="M80,8.29h1.15V9a1.6,1.6,0,0,1,.61-.57,1.63,1.63,0,0,1,.85-.22A1.79,1.79,0,0,1,84,8.82a2.64,2.64,0,0,1,.56,1.78A2.68,2.68,0,0,1,84,12.42a1.77,1.77,0,0,1-1.38.64,1.6,1.6,0,0,1-.7-.15,2.29,2.29,0,0,1-.66-.53v2.35H80Zm1.22,2.26a1.85,1.85,0,0,0,.31,1.16,1,1,0,0,0,.76.37.89.89,0,0,0,.72-.34,1.78,1.78,0,0,0,.29-1.13A1.67,1.67,0,0,0,83,9.52a.9.9,0,0,0-.73-.36,1,1,0,0,0-.75.35A1.56,1.56,0,0,0,81.25,10.55Z"/><path class="cls-3" d="M86.49,9.72l-1.12-.21a1.71,1.71,0,0,1,.65-1,2.33,2.33,0,0,1,1.37-.32,3,3,0,0,1,1.23.19,1.24,1.24,0,0,1,.57.5,2.55,2.55,0,0,1,.16,1.1v1.45a4.82,4.82,0,0,0,.06.9,2.5,2.5,0,0,0,.22.63H88.4c0-.08-.07-.2-.12-.37a1.19,1.19,0,0,1,0-.14,2.4,2.4,0,0,1-.68.46,2,2,0,0,1-.77.15,1.61,1.61,0,0,1-1.14-.39,1.32,1.32,0,0,1-.41-1,1.27,1.27,0,0,1,.19-.7A1.18,1.18,0,0,1,86,10.5a3.94,3.94,0,0,1,1-.28,6.1,6.1,0,0,0,1.2-.31V9.79A.63.63,0,0,0,88,9.28a1,1,0,0,0-.66-.15.74.74,0,0,0-.81.59Zm1.65,1-.75.19a2.26,2.26,0,0,0-.68.21.53.53,0,0,0-.24.44.62.62,0,0,0,.2.45.67.67,0,0,0,.49.18A1.08,1.08,0,0,0,87.8,12a.76.76,0,0,0,.29-.4,2.61,2.61,0,0,0,0-.61Z"/><path class="cls-3" d="M94.64,9.67l-1.22.22a.86.86,0,0,0-.28-.55.84.84,0,0,0-.56-.18.9.9,0,0,0-.74.32,1.63,1.63,0,0,0-.27,1.06,1.82,1.82,0,0,0,.28,1.17.9.9,0,0,0,.74.35.85.85,0,0,0,.58-.2,1.27,1.27,0,0,0,.32-.69l1.21.21A2.2,2.2,0,0,1,94,12.64a2.23,2.23,0,0,1-1.43.42,2.11,2.11,0,0,1-1.63-.64,2.49,2.49,0,0,1-.61-1.79,2.5,2.5,0,0,1,.61-1.8,2.15,2.15,0,0,1,1.65-.64,2.25,2.25,0,0,1,1.35.36A2.06,2.06,0,0,1,94.64,9.67Z"/><path class="cls-3" d="M95.57,7.66V6.52h1.24V7.66Zm0,5.3V8.29h1.24V13Z"/><path class="cls-3" d="M102.35,13h-1.14v-.69a1.84,1.84,0,0,1-.68.6,1.72,1.72,0,0,1-.78.19,1.77,1.77,0,0,1-1.38-.64,2.67,2.67,0,0,1-.57-1.81,2.6,2.6,0,0,1,.56-1.81,1.81,1.81,0,0,1,1.41-.61,1.72,1.72,0,0,1,1.35.65V6.52h1.23Zm-3.29-2.44a2.09,2.09,0,0,0,.21,1.08.9.9,0,0,0,.83.49.93.93,0,0,0,.73-.36,1.77,1.77,0,0,0,.29-1.09,1.82,1.82,0,0,0-.29-1.16.95.95,0,0,0-1.47,0A1.56,1.56,0,0,0,99.06,10.52Z"/><path class="cls-3" d="M104.5,9.72l-1.13-.21a1.81,1.81,0,0,1,.65-1,2.39,2.39,0,0,1,1.38-.32,3,3,0,0,1,1.23.19,1.29,1.29,0,0,1,.57.5,2.72,2.72,0,0,1,.16,1.1v1.45a4.82,4.82,0,0,0,.06.9,2.5,2.5,0,0,0,.22.63h-1.22a1.77,1.77,0,0,1-.12-.37.93.93,0,0,0-.05-.14,2.23,2.23,0,0,1-.67.46,2,2,0,0,1-.77.15,1.61,1.61,0,0,1-1.14-.39,1.28,1.28,0,0,1-.41-1,1.27,1.27,0,0,1,.19-.7,1.21,1.21,0,0,1,.52-.48,4.18,4.18,0,0,1,1-.28,6.54,6.54,0,0,0,1.2-.31V9.79a.63.63,0,0,0-.18-.51,1.07,1.07,0,0,0-.66-.15.72.72,0,0,0-.81.59Zm1.65,1-.75.19a2.26,2.26,0,0,0-.68.21.53.53,0,0,0-.24.44.65.65,0,0,0,.19.45.71.71,0,0,0,.5.18,1,1,0,0,0,.63-.22.78.78,0,0,0,.3-.4,2.61,2.61,0,0,0,.05-.61Z"/><path class="cls-3" d="M112.86,13h-1.15v-.69a1.81,1.81,0,0,1-.67.6,1.73,1.73,0,0,1-.79.19,1.8,1.8,0,0,1-1.38-.64,2.67,2.67,0,0,1-.57-1.81,2.65,2.65,0,0,1,.56-1.81,1.81,1.81,0,0,1,1.41-.61,1.72,1.72,0,0,1,1.35.65V6.52h1.24Zm-3.3-2.44a2.09,2.09,0,0,0,.21,1.08.93.93,0,0,0,.83.49.91.91,0,0,0,.73-.36,1.71,1.71,0,0,0,.3-1.09,1.88,1.88,0,0,0-.29-1.16.94.94,0,0,0-.75-.35.93.93,0,0,0-.73.35A1.56,1.56,0,0,0,109.56,10.52Z"/><path class="cls-3" d="M116.78,11.47l1.23.21a2.06,2.06,0,0,1-.75,1,2.17,2.17,0,0,1-1.28.35,2.08,2.08,0,0,1-1.8-.79,2.67,2.67,0,0,1-.47-1.61,2.62,2.62,0,0,1,.61-1.82,2,2,0,0,1,1.53-.65,2.1,2.1,0,0,1,1.65.68,3,3,0,0,1,.57,2.11H115a1.28,1.28,0,0,0,.3.86.94.94,0,0,0,.71.3.74.74,0,0,0,.49-.16A1,1,0,0,0,116.78,11.47Zm.07-1.25a1.18,1.18,0,0,0-.28-.81.83.83,0,0,0-.64-.28.86.86,0,0,0-.67.3,1.16,1.16,0,0,0-.26.79Z"/><path class="cls-3" d="M118.65,11.63l1.23-.19a.88.88,0,0,0,.33.54,1,1,0,0,0,.67.19,1.27,1.27,0,0,0,.72-.17.42.42,0,0,0,.17-.33.34.34,0,0,0-.09-.24,1.12,1.12,0,0,0-.42-.16,6.82,6.82,0,0,1-1.89-.6,1.19,1.19,0,0,1-.55-1.05,1.28,1.28,0,0,1,.48-1,2.2,2.2,0,0,1,1.48-.41,2.62,2.62,0,0,1,1.43.31,1.6,1.6,0,0,1,.64.92l-1.17.22a.7.7,0,0,0-.28-.42,1,1,0,0,0-.6-.15,1.39,1.39,0,0,0-.7.14.3.3,0,0,0-.14.25.25.25,0,0,0,.13.22,4.17,4.17,0,0,0,1.15.35,3.39,3.39,0,0,1,1.38.55,1.14,1.14,0,0,1,.38.92,1.39,1.39,0,0,1-.53,1.1,2.38,2.38,0,0,1-1.59.46,2.68,2.68,0,0,1-1.51-.38A1.77,1.77,0,0,1,118.65,11.63Z"/><path class="cls-3" d="M35.26,20.56a2.53,2.53,0,0,1,.3-1.19,2,2,0,0,1,.86-.88,2.58,2.58,0,0,1,1.24-.3,2.36,2.36,0,0,1,1.74.68,2.58,2.58,0,0,1,0,3.5,2.31,2.31,0,0,1-1.72.69,2.61,2.61,0,0,1-1.22-.29,1.93,1.93,0,0,1-.89-.85A2.82,2.82,0,0,1,35.26,20.56Zm1.27.06a1.56,1.56,0,0,0,.32,1.07,1.09,1.09,0,0,0,.82.37,1.07,1.07,0,0,0,.81-.37,1.56,1.56,0,0,0,.33-1.07,1.55,1.55,0,0,0-.33-1.06,1.07,1.07,0,0,0-.81-.37,1.09,1.09,0,0,0-.82.37A1.54,1.54,0,0,0,36.53,20.62Z"/><path class="cls-3" d="M42.22,23H41V18.29h1.15V19a1.76,1.76,0,0,1,.53-.61.94.94,0,0,1,.53-.15,1.51,1.51,0,0,1,.81.23l-.38,1.08a1.06,1.06,0,0,0-.58-.21.67.67,0,0,0-.44.15.94.94,0,0,0-.28.51,7.14,7.14,0,0,0-.11,1.57Z"/><path class="cls-3" d="M44.43,23.27l1.41.17a.57.57,0,0,0,.16.34,1,1,0,0,0,.56.13,1.38,1.38,0,0,0,.72-.15.61.61,0,0,0,.25-.31,1.78,1.78,0,0,0,.06-.57V22.2a1.67,1.67,0,0,1-1.4.76,1.73,1.73,0,0,1-1.49-.8,2.68,2.68,0,0,1-.43-1.56,2.59,2.59,0,0,1,.56-1.79,1.82,1.82,0,0,1,1.41-.62,1.69,1.69,0,0,1,1.42.76v-.66h1.16v4.19a3.82,3.82,0,0,1-.14,1.23,1.48,1.48,0,0,1-.38.65,1.75,1.75,0,0,1-.65.36,3.42,3.42,0,0,1-1,.13,2.72,2.72,0,0,1-1.69-.4,1.28,1.28,0,0,1-.49-1Zm1.1-2.74a1.71,1.71,0,0,0,.29,1.09.88.88,0,0,0,.71.34,1,1,0,0,0,.77-.35,1.6,1.6,0,0,0,.31-1.05,1.66,1.66,0,0,0-.3-1.08,1,1,0,0,0-.76-.35.92.92,0,0,0-.73.35A1.62,1.62,0,0,0,45.53,20.53Z"/><path class="cls-3" d="M51,19.72l-1.13-.21a1.77,1.77,0,0,1,.66-1,2.33,2.33,0,0,1,1.37-.32,3,3,0,0,1,1.23.19,1.24,1.24,0,0,1,.57.5,2.55,2.55,0,0,1,.16,1.1v1.45a4.82,4.82,0,0,0,.06.9,2.5,2.5,0,0,0,.22.63H52.88a2.69,2.69,0,0,1-.12-.37.93.93,0,0,0,0-.14,2.23,2.23,0,0,1-.67.46,2,2,0,0,1-.77.15,1.61,1.61,0,0,1-1.14-.39,1.32,1.32,0,0,1-.41-1,1.27,1.27,0,0,1,.19-.7,1.18,1.18,0,0,1,.53-.48,3.94,3.94,0,0,1,1-.28,6.1,6.1,0,0,0,1.2-.31v-.12a.63.63,0,0,0-.18-.51,1,1,0,0,0-.66-.15.72.72,0,0,0-.81.59Zm1.65,1-.75.19a2.26,2.26,0,0,0-.68.21.53.53,0,0,0-.24.44.62.62,0,0,0,.2.45.67.67,0,0,0,.49.18,1.08,1.08,0,0,0,.64-.22.81.81,0,0,0,.29-.4,2.61,2.61,0,0,0,0-.61Z"/><path class="cls-3" d="M59.29,23H58.06V20.58a3.79,3.79,0,0,0-.08-1,.71.71,0,0,0-.26-.35.75.75,0,0,0-.43-.12,1,1,0,0,0-.57.18.84.84,0,0,0-.35.46,4.15,4.15,0,0,0-.1,1.08V23H55V18.29h1.15V19a1.85,1.85,0,0,1,1.53-.79,1.79,1.79,0,0,1,.75.14,1.22,1.22,0,0,1,.51.38,1.32,1.32,0,0,1,.25.52,4.34,4.34,0,0,1,.06.83Z"/><path class="cls-3" d="M60.55,17.66V16.52h1.23v1.14Zm0,5.3V18.29h1.23V23Z"/><path class="cls-3" d="M62.55,23V22l1.75-2c.29-.33.5-.56.64-.7l-.57,0H62.72v-1h3.86v.88l-1.79,2-.62.68.63,0h1.92V23Z"/><path class="cls-3" d="M68.47,19.72l-1.12-.21a1.71,1.71,0,0,1,.65-1,2.35,2.35,0,0,1,1.37-.32,3,3,0,0,1,1.23.19,1.24,1.24,0,0,1,.57.5,2.55,2.55,0,0,1,.16,1.1v1.45a4.82,4.82,0,0,0,.06.9,2.5,2.5,0,0,0,.22.63H70.38c0-.08-.07-.2-.12-.37s0-.12,0-.14a2.27,2.27,0,0,1-.68.46,2,2,0,0,1-.77.15,1.57,1.57,0,0,1-1.13-.39,1.29,1.29,0,0,1-.42-1,1.27,1.27,0,0,1,.19-.7,1.23,1.23,0,0,1,.53-.48,4.07,4.07,0,0,1,1-.28,6.1,6.1,0,0,0,1.2-.31v-.12a.66.66,0,0,0-.17-.51,1.08,1.08,0,0,0-.67-.15.74.74,0,0,0-.81.59Zm1.65,1-.75.19a2.17,2.17,0,0,0-.67.21.53.53,0,0,0-.24.44.61.61,0,0,0,.19.45.69.69,0,0,0,.49.18,1.06,1.06,0,0,0,.64-.22.71.71,0,0,0,.29-.4,2.15,2.15,0,0,0,.05-.61Z"/><path class="cls-3" d="M76.62,19.67l-1.22.22a.86.86,0,0,0-.28-.55.84.84,0,0,0-.56-.18.91.91,0,0,0-.74.32,1.63,1.63,0,0,0-.27,1.06,1.82,1.82,0,0,0,.28,1.17.9.9,0,0,0,.75.35.84.84,0,0,0,.57-.2,1.2,1.2,0,0,0,.32-.69l1.21.21A2.19,2.19,0,0,1,76,22.64a2.28,2.28,0,0,1-1.44.42,2.12,2.12,0,0,1-1.63-.64,2.49,2.49,0,0,1-.61-1.79,2.5,2.5,0,0,1,.61-1.8,2.17,2.17,0,0,1,1.65-.64,2.31,2.31,0,0,1,1.36.36A2.11,2.11,0,0,1,76.62,19.67Z"/><path class="cls-3" d="M77.56,17.66V16.52h1.23v1.14Zm0,5.3V18.29h1.23V23Z"/><path class="cls-3" d="M79.77,20.56a2.43,2.43,0,0,1,.31-1.19,2,2,0,0,1,.85-.88,2.6,2.6,0,0,1,1.25-.3,2.35,2.35,0,0,1,1.73.68,2.58,2.58,0,0,1,0,3.5,2.3,2.3,0,0,1-1.72.69A2.64,2.64,0,0,1,81,22.77a1.91,1.91,0,0,1-.88-.85A2.71,2.71,0,0,1,79.77,20.56Zm1.27.06a1.56,1.56,0,0,0,.33,1.07,1.07,1.07,0,0,0,1.62,0,1.56,1.56,0,0,0,.33-1.07A1.55,1.55,0,0,0,83,19.56a1.07,1.07,0,0,0-1.62,0A1.55,1.55,0,0,0,81,20.62Z"/><path class="cls-3" d="M89.8,23H88.57V20.58a3.79,3.79,0,0,0-.08-1,.77.77,0,0,0-.26-.35.75.75,0,0,0-.43-.12,1,1,0,0,0-.58.18.83.83,0,0,0-.34.46,3.74,3.74,0,0,0-.1,1.08V23H85.55V18.29h1.14V19A1.94,1.94,0,0,1,89,18.33a1.36,1.36,0,0,1,.51.38,1.19,1.19,0,0,1,.24.52,3.54,3.54,0,0,1,.07.83Z"/><path class="cls-3" d="M92,19.72l-1.13-.21a1.81,1.81,0,0,1,.65-1,2.39,2.39,0,0,1,1.38-.32,3,3,0,0,1,1.23.19,1.24,1.24,0,0,1,.57.5,2.55,2.55,0,0,1,.16,1.1v1.45a4.82,4.82,0,0,0,.06.9,2.5,2.5,0,0,0,.22.63H93.89a2.69,2.69,0,0,1-.12-.37.93.93,0,0,0,0-.14,2.23,2.23,0,0,1-.67.46,2,2,0,0,1-.77.15,1.61,1.61,0,0,1-1.14-.39,1.32,1.32,0,0,1-.41-1,1.27,1.27,0,0,1,.19-.7,1.18,1.18,0,0,1,.53-.48,3.94,3.94,0,0,1,1-.28,6.31,6.31,0,0,0,1.2-.31v-.12a.63.63,0,0,0-.18-.51,1.07,1.07,0,0,0-.66-.15.72.72,0,0,0-.81.59Zm1.65,1-.75.19a2.26,2.26,0,0,0-.68.21.53.53,0,0,0-.24.44.62.62,0,0,0,.2.45.67.67,0,0,0,.49.18,1.08,1.08,0,0,0,.64-.22.81.81,0,0,0,.29-.4,2.61,2.61,0,0,0,0-.61Z"/><path class="cls-3" d="M96.06,23V16.52h1.23V23Z"/><path class="cls-3" d="M101.26,21.47l1.23.21a2.06,2.06,0,0,1-.75,1,2.17,2.17,0,0,1-1.28.35,2.08,2.08,0,0,1-1.8-.79,2.67,2.67,0,0,1-.46-1.61,2.61,2.61,0,0,1,.6-1.82,2,2,0,0,1,1.54-.65,2.09,2.09,0,0,1,1.64.68,3,3,0,0,1,.58,2.11h-3.1a1.28,1.28,0,0,0,.3.86.94.94,0,0,0,.71.3A.72.72,0,0,0,101,22,1,1,0,0,0,101.26,21.47Zm.07-1.25a1.18,1.18,0,0,0-.28-.81.87.87,0,0,0-1.3,0,1.07,1.07,0,0,0-.26.79Z"/><path class="cls-3" d="M103.13,21.63l1.24-.19a.87.87,0,0,0,.32.54,1.06,1.06,0,0,0,.68.19,1.32,1.32,0,0,0,.72-.17.44.44,0,0,0,.16-.33.34.34,0,0,0-.09-.24,1.13,1.13,0,0,0-.41-.16,6.81,6.81,0,0,1-1.9-.6,1.19,1.19,0,0,1-.55-1.05,1.28,1.28,0,0,1,.48-1,2.2,2.2,0,0,1,1.48-.41,2.59,2.59,0,0,1,1.43.31,1.6,1.6,0,0,1,.64.92l-1.17.22a.66.66,0,0,0-.28-.42,1,1,0,0,0-.59-.15,1.34,1.34,0,0,0-.7.14.28.28,0,0,0-.14.25.26.26,0,0,0,.12.22,4.31,4.31,0,0,0,1.15.35,3.39,3.39,0,0,1,1.38.55,1.14,1.14,0,0,1,.39.92,1.4,1.4,0,0,1-.54,1.1,2.35,2.35,0,0,1-1.58.46,2.66,2.66,0,0,1-1.51-.38A1.78,1.78,0,0,1,103.13,21.63Z"/><circle class="cls-5" cx="182.34" cy="48.49" r="6.39"/><path class="cls-6" d="M185.34,51.43h-1.26l-.5-1.3H181.3l-.48,1.3H179.6l2.23-5.73h1.22Zm-2.13-2.27L182.42,47l-.77,2.12Z"/></g></g></svg>