<svg xmlns="http://www.w3.org/2000/svg" viewBox="0 0 171.95 55.32"><defs><style>.cls-1{fill:#0088d3;}.cls-2{fill:#fff;}.cls-3{fill:#00669e;}.cls-4{fill:#28203a;}.cls-5{fill:#009a5c;}</style></defs><g id="Capa_2" data-name="Capa 2"><g id="Capa_1-2" data-name="Capa 1"><rect class="cls-1" width="142.64" height="28.77" rx="14.38"/><rect class="cls-2" x="13.96" y="4.79" width="0.85" height="19.3" rx="0.42"/><rect class="cls-2" x="127.83" y="4.79" width="0.85" height="19.3" rx="0.42"/><path class="cls-3" d="M14.57,41.06V34.61h1.31v6.45Z"/><path class="cls-3" d="M21.35,41.06H20.12V38.67a3.7,3.7,0,0,0-.08-1,.67.67,0,0,0-.26-.35.75.75,0,0,0-.43-.12,1,1,0,0,0-.57.17.9.9,0,0,0-.35.47,3.66,3.66,0,0,0-.1,1.07v2.12H17.1V36.39h1.14v.69a1.88,1.88,0,0,1,1.54-.8,1.83,1.83,0,0,1,.75.15,1.22,1.22,0,0,1,.51.38,1.19,1.19,0,0,1,.24.52,3.54,3.54,0,0,1,.07.83Z"/><path class="cls-3" d="M26.88,41.06H25.74v-.69a1.84,1.84,0,0,1-.68.6,1.72,1.72,0,0,1-.78.19,1.75,1.75,0,0,1-1.38-.65,2.64,2.64,0,0,1-.57-1.81,2.56,2.56,0,0,1,.56-1.8,1.82,1.82,0,0,1,1.41-.62,1.75,1.75,0,0,1,1.35.65V34.61h1.23Zm-3.29-2.44a2.22,2.22,0,0,0,.2,1.08.93.93,0,0,0,.84.49.89.89,0,0,0,.72-.37,1.66,1.66,0,0,0,.3-1.08,1.8,1.8,0,0,0-.29-1.16.92.92,0,0,0-.74-.35,1,1,0,0,0-.74.35A1.61,1.61,0,0,0,23.59,38.62Z"/><path class="cls-3" d="M28.1,35.76V34.61h1.24v1.15Zm0,5.3V36.39h1.24v4.67Z"/><path class="cls-3" d="M34.67,37.77,33.45,38a.86.86,0,0,0-.28-.55.84.84,0,0,0-.56-.18.94.94,0,0,0-.74.31,1.68,1.68,0,0,0-.27,1.07,1.86,1.86,0,0,0,.28,1.17.9.9,0,0,0,.75.35.84.84,0,0,0,.57-.2,1.24,1.24,0,0,0,.32-.69l1.21.2A2.19,2.19,0,0,1,34,40.74a2.28,2.28,0,0,1-1.44.42,2.12,2.12,0,0,1-1.63-.64,2.95,2.95,0,0,1,0-3.59,2.18,2.18,0,0,1,1.65-.65,2.31,2.31,0,0,1,1.36.37A2.11,2.11,0,0,1,34.67,37.77Z"/><path class="cls-3" d="M36.53,37.81l-1.12-.2a1.71,1.71,0,0,1,.65-1,2.35,2.35,0,0,1,1.37-.33,3,3,0,0,1,1.23.2,1.24,1.24,0,0,1,.57.5,2.52,2.52,0,0,1,.16,1.1v1.44a5,5,0,0,0,.06.91,2.8,2.8,0,0,0,.22.63H38.44l-.12-.37c0-.07,0-.12,0-.14a2.27,2.27,0,0,1-.68.46,2,2,0,0,1-.77.15,1.57,1.57,0,0,1-1.13-.39,1.29,1.29,0,0,1-.42-1,1.27,1.27,0,0,1,.19-.7A1.23,1.23,0,0,1,36,38.6a4.51,4.51,0,0,1,1-.29,5.6,5.6,0,0,0,1.2-.3v-.12a.66.66,0,0,0-.17-.51,1.08,1.08,0,0,0-.67-.15.84.84,0,0,0-.51.13A.91.91,0,0,0,36.53,37.81Zm1.65,1q-.24.07-.75.18a2.4,2.4,0,0,0-.67.22.51.51,0,0,0-.24.43.58.58,0,0,0,.19.45.66.66,0,0,0,.49.19,1.06,1.06,0,0,0,.64-.22.7.7,0,0,0,.29-.41,2,2,0,0,0,0-.6Z"/><path class="cls-3" d="M44.89,41.06H43.75v-.69a1.84,1.84,0,0,1-.68.6,1.72,1.72,0,0,1-.78.19,1.75,1.75,0,0,1-1.38-.65,2.64,2.64,0,0,1-.57-1.81,2.6,2.6,0,0,1,.55-1.8,1.85,1.85,0,0,1,1.41-.62,1.76,1.76,0,0,1,1.36.65V34.61h1.23ZM41.6,38.62a2.22,2.22,0,0,0,.2,1.08.93.93,0,0,0,.84.49.89.89,0,0,0,.72-.37,1.66,1.66,0,0,0,.3-1.08,1.8,1.8,0,0,0-.29-1.16.92.92,0,0,0-.74-.35,1,1,0,0,0-.74.35A1.61,1.61,0,0,0,41.6,38.62Z"/><path class="cls-3" d="M45.82,38.66a2.54,2.54,0,0,1,.31-1.19,2,2,0,0,1,.86-.88,2.46,2.46,0,0,1,1.24-.31A2.32,2.32,0,0,1,50,37a2.35,2.35,0,0,1,.68,1.74A2.44,2.44,0,0,1,50,40.47a2.33,2.33,0,0,1-1.72.69A2.65,2.65,0,0,1,47,40.87a2,2,0,0,1-.88-.85A2.85,2.85,0,0,1,45.82,38.66Zm1.27.06a1.56,1.56,0,0,0,.33,1.07,1.07,1.07,0,0,0,.81.37,1,1,0,0,0,.81-.37,1.59,1.59,0,0,0,.33-1.08A1.54,1.54,0,0,0,49,37.66a1,1,0,0,0-.81-.37,1,1,0,0,0-.81.37A1.55,1.55,0,0,0,47.09,38.72Z"/><path class="cls-3" d="M52.79,41.06H51.56V36.39H52.7v.66a2.05,2.05,0,0,1,.53-.62,1,1,0,0,1,.54-.15,1.52,1.52,0,0,1,.81.24l-.38,1.07a1.15,1.15,0,0,0-.58-.2.7.7,0,0,0-.44.14,1,1,0,0,0-.29.52,7.36,7.36,0,0,0-.1,1.57Z"/><path class="cls-3" d="M60.51,41.06H59.27V36.4a4.25,4.25,0,0,1-1.59.94V36.22a3.85,3.85,0,0,0,1-.6,2.28,2.28,0,0,0,.77-1h1Z"/><path class="cls-3" d="M62.85,37.62V36.39h1.24v1.23Zm0,3.44V39.82h1.24v1.24Z"/><path class="cls-4" d="M14.59,51.06V45.33h4.14V46H15.35v1.75h3.17v.67H15.35v2h3.52v.68Z"/><path class="cls-4" d="M18.93,52.67l.13-.6a1.76,1.76,0,0,0,.33,0,.35.35,0,0,0,.32-.14,1.41,1.41,0,0,0,.11-.71V46.91h.7v4.37a2,2,0,0,1-.2,1.07.93.93,0,0,1-.84.39A2,2,0,0,1,18.93,52.67Zm.89-6.52v-.82h.7v.82Z"/><path class="cls-4" d="M21.8,51.06v-.8h.8v.8Z"/><path class="cls-4" d="M24,47.71v-.8h.8v.8Zm0,3.35v-.8h.8v.8Z"/><path class="cls-4" d="M27.29,51.06l2.2-5.73h.81l2.35,5.73h-.87l-.66-1.74h-2.4l-.63,1.74Zm1.65-2.36h1.94l-.6-1.58c-.18-.48-.31-.88-.4-1.19a9.05,9.05,0,0,1-.31,1.1Z"/><path class="cls-4" d="M35.87,49.54l.69.09A1.79,1.79,0,0,1,36,50.75a1.68,1.68,0,0,1-1.15.4,1.77,1.77,0,0,1-1.36-.56A2.22,2.22,0,0,1,33,49a2.89,2.89,0,0,1,.22-1.18,1.51,1.51,0,0,1,.68-.75,2,2,0,0,1,1-.26,1.69,1.69,0,0,1,1.1.35,1.52,1.52,0,0,1,.55,1l-.68.1a1.13,1.13,0,0,0-.34-.63.91.91,0,0,0-.6-.21,1.11,1.11,0,0,0-.87.38A1.84,1.84,0,0,0,33.67,49,1.86,1.86,0,0,0,34,50.19a1,1,0,0,0,.84.38,1,1,0,0,0,.69-.25A1.29,1.29,0,0,0,35.87,49.54Z"/><path class="cls-4" d="M39.87,49.54l.69.09A1.79,1.79,0,0,1,40,50.75a1.68,1.68,0,0,1-1.15.4,1.77,1.77,0,0,1-1.36-.56A2.22,2.22,0,0,1,37,49a2.89,2.89,0,0,1,.22-1.18,1.51,1.51,0,0,1,.68-.75,2,2,0,0,1,1-.26,1.69,1.69,0,0,1,1.1.35,1.52,1.52,0,0,1,.55,1l-.68.1a1.13,1.13,0,0,0-.34-.63.91.91,0,0,0-.6-.21,1.11,1.11,0,0,0-.87.38A1.84,1.84,0,0,0,37.67,49,1.86,1.86,0,0,0,38,50.19a1,1,0,0,0,.84.38,1,1,0,0,0,.69-.25A1.29,1.29,0,0,0,39.87,49.54Z"/><path class="cls-4" d="M41.17,46.14v-.81h.7v.81Zm0,4.92V46.91h.7v4.15Z"/><path class="cls-4" d="M42.68,49a2.11,2.11,0,0,1,.64-1.7,1.92,1.92,0,0,1,1.3-.47,1.88,1.88,0,0,1,1.4.56,2.16,2.16,0,0,1,.55,1.55,2.58,2.58,0,0,1-.25,1.26,1.71,1.71,0,0,1-.69.72,2,2,0,0,1-1,.25,1.84,1.84,0,0,1-1.4-.56A2.22,2.22,0,0,1,42.68,49Zm.72,0a1.81,1.81,0,0,0,.35,1.2,1.11,1.11,0,0,0,.87.39,1.09,1.09,0,0,0,.87-.4A1.75,1.75,0,0,0,45.84,49a1.71,1.71,0,0,0-.35-1.17,1.17,1.17,0,0,0-1.74,0A1.76,1.76,0,0,0,43.4,49Z"/><path class="cls-4" d="M47.39,51.06V46.91H48v.59a1.5,1.5,0,0,1,1.32-.69A1.74,1.74,0,0,1,50,47a1.1,1.1,0,0,1,.47.35,1.28,1.28,0,0,1,.22.52,3.67,3.67,0,0,1,0,.69v2.55h-.7V48.53a2,2,0,0,0-.08-.64.75.75,0,0,0-.3-.34,1,1,0,0,0-.49-.13,1.13,1.13,0,0,0-.77.29,1.39,1.39,0,0,0-.33,1.08v2.27Z"/><path class="cls-4" d="M54.68,49.72l.72.09a1.74,1.74,0,0,1-.63,1,2,2,0,0,1-1.19.35,1.89,1.89,0,0,1-1.44-.56A2.17,2.17,0,0,1,51.6,49a2.31,2.31,0,0,1,.54-1.63,1.85,1.85,0,0,1,1.4-.58,1.76,1.76,0,0,1,1.36.57A2.26,2.26,0,0,1,55.43,49a1.42,1.42,0,0,1,0,.19H52.33a1.62,1.62,0,0,0,.39,1.05,1.15,1.15,0,0,0,.86.36,1.1,1.1,0,0,0,.66-.2A1.34,1.34,0,0,0,54.68,49.72Zm-2.31-1.14h2.32a1.44,1.44,0,0,0-.27-.78,1.07,1.07,0,0,0-.87-.41,1.09,1.09,0,0,0-.81.33A1.25,1.25,0,0,0,52.37,48.58Z"/><path class="cls-4" d="M56,49.82l.69-.11a1,1,0,0,0,.33.64,1.14,1.14,0,0,0,.75.22,1,1,0,0,0,.71-.2.57.57,0,0,0,.24-.46.42.42,0,0,0-.21-.37,2.66,2.66,0,0,0-.72-.24A6.18,6.18,0,0,1,56.73,49a1,1,0,0,1-.45-.39,1.06,1.06,0,0,1,0-1.07,1.22,1.22,0,0,1,.35-.4,1.39,1.39,0,0,1,.44-.2,2,2,0,0,1,.61-.09,2.5,2.5,0,0,1,.86.14,1.2,1.2,0,0,1,.54.39,1.5,1.5,0,0,1,.25.64l-.69.09a.75.75,0,0,0-.27-.5,1,1,0,0,0-.64-.18,1.21,1.21,0,0,0-.69.16.47.47,0,0,0-.21.38.36.36,0,0,0,.09.24.62.62,0,0,0,.27.19l.62.18a7.24,7.24,0,0,1,1,.33,1,1,0,0,1,.46.37,1,1,0,0,1,.17.6,1.24,1.24,0,0,1-.2.66,1.31,1.31,0,0,1-.6.48,2.14,2.14,0,0,1-.87.17,1.9,1.9,0,0,1-1.23-.34A1.51,1.51,0,0,1,56,49.82Z"/><path class="cls-4" d="M65.35,49.72l.73.09a1.81,1.81,0,0,1-.64,1,2,2,0,0,1-1.19.35,1.91,1.91,0,0,1-1.44-.56A2.16,2.16,0,0,1,62.28,49a2.31,2.31,0,0,1,.54-1.63,1.82,1.82,0,0,1,1.39-.58,1.76,1.76,0,0,1,1.36.57A2.26,2.26,0,0,1,66.1,49v.19H63a1.62,1.62,0,0,0,.39,1.05,1.21,1.21,0,0,0,1.53.16A1.4,1.4,0,0,0,65.35,49.72ZM63,48.58h2.32a1.36,1.36,0,0,0-.27-.78,1.07,1.07,0,0,0-.87-.41,1.1,1.1,0,0,0-.81.33A1.29,1.29,0,0,0,63,48.58Z"/><path class="cls-4" d="M68.11,51.06l-1.58-4.15h.75l.89,2.48c.09.27.18.55.26.84.06-.22.15-.48.26-.79l.93-2.53h.72l-1.57,4.15Z"/><path class="cls-4" d="M70.7,49a2.11,2.11,0,0,1,.64-1.7,1.92,1.92,0,0,1,1.3-.47,1.88,1.88,0,0,1,1.4.56,2.15,2.15,0,0,1,.54,1.55,2.71,2.71,0,0,1-.24,1.26,1.71,1.71,0,0,1-.69.72,2,2,0,0,1-1,.25,1.84,1.84,0,0,1-1.4-.56A2.22,2.22,0,0,1,70.7,49Zm.72,0a1.81,1.81,0,0,0,.35,1.2,1.11,1.11,0,0,0,.87.39,1.09,1.09,0,0,0,.87-.4A1.75,1.75,0,0,0,73.86,49a1.71,1.71,0,0,0-.35-1.17,1.17,1.17,0,0,0-1.74,0A1.76,1.76,0,0,0,71.42,49Z"/><path class="cls-4" d="M75.39,51.06V45.33h.71v5.73Z"/><path class="cls-4" d="M79.9,51.06v-.61a1.5,1.5,0,0,1-1.31.7A1.74,1.74,0,0,1,77.9,51a1.1,1.1,0,0,1-.47-.35,1.6,1.6,0,0,1-.22-.53,4.48,4.48,0,0,1,0-.65V46.91h.7v2.3a3.76,3.76,0,0,0,0,.74.69.69,0,0,0,.28.44.9.9,0,0,0,.53.15,1.11,1.11,0,0,0,.59-.16.9.9,0,0,0,.4-.44,2.38,2.38,0,0,0,.11-.81V46.91h.7v4.15Z"/><path class="cls-4" d="M84.34,49.54l.69.09a1.75,1.75,0,0,1-.58,1.12,1.67,1.67,0,0,1-1.14.4,1.78,1.78,0,0,1-1.37-.56A2.22,2.22,0,0,1,81.42,49a2.89,2.89,0,0,1,.22-1.18,1.56,1.56,0,0,1,.68-.75,2,2,0,0,1,1-.26,1.73,1.73,0,0,1,1.11.35,1.57,1.57,0,0,1,.55,1l-.69.1a1.13,1.13,0,0,0-.34-.63.91.91,0,0,0-.6-.21,1.09,1.09,0,0,0-.86.38A1.78,1.78,0,0,0,82.14,49a1.86,1.86,0,0,0,.32,1.21,1,1,0,0,0,.84.38,1,1,0,0,0,.69-.25A1.24,1.24,0,0,0,84.34,49.54Z"/><path class="cls-4" d="M85.64,46.14v-.81h.7v.81Zm0,4.92V46.91h.7v4.15Z"/><path class="cls-4" d="M87.15,49a2.11,2.11,0,0,1,.64-1.7,1.93,1.93,0,0,1,1.31-.47,1.85,1.85,0,0,1,1.39.56A2.11,2.11,0,0,1,91,48.92a2.71,2.71,0,0,1-.24,1.26,1.74,1.74,0,0,1-.7.72,2,2,0,0,1-1,.25,1.88,1.88,0,0,1-1.41-.56A2.22,2.22,0,0,1,87.15,49Zm.72,0a1.81,1.81,0,0,0,.35,1.2,1.12,1.12,0,0,0,.88.39,1.09,1.09,0,0,0,.87-.4A1.8,1.8,0,0,0,90.32,49,1.76,1.76,0,0,0,90,47.79a1.14,1.14,0,0,0-.87-.39,1.12,1.12,0,0,0-.88.39A1.76,1.76,0,0,0,87.87,49Zm.84-2.59.52-1.09h.92l-.86,1.09Z"/><path class="cls-4" d="M91.86,51.06V46.91h.63v.59a1.5,1.5,0,0,1,1.33-.69,1.69,1.69,0,0,1,.68.14,1.2,1.2,0,0,1,.48.35,1.42,1.42,0,0,1,.21.52,3.67,3.67,0,0,1,0,.69v2.55h-.7V48.53a2,2,0,0,0-.08-.64.73.73,0,0,0-.29-.34,1,1,0,0,0-.49-.13,1.16,1.16,0,0,0-.78.29,1.39,1.39,0,0,0-.32,1.08v2.27Z"/><path class="cls-4" d="M101.24,49.54l.69.09a1.79,1.79,0,0,1-.58,1.12,1.67,1.67,0,0,1-1.14.4,1.78,1.78,0,0,1-1.37-.56A2.22,2.22,0,0,1,98.32,49a2.89,2.89,0,0,1,.22-1.18,1.56,1.56,0,0,1,.68-.75,2,2,0,0,1,1-.26,1.73,1.73,0,0,1,1.11.35,1.62,1.62,0,0,1,.55,1l-.69.1a1.13,1.13,0,0,0-.34-.63.91.91,0,0,0-.6-.21,1.12,1.12,0,0,0-.87.38A1.84,1.84,0,0,0,99,49a1.86,1.86,0,0,0,.32,1.21,1,1,0,0,0,.84.38,1,1,0,0,0,.69-.25A1.29,1.29,0,0,0,101.24,49.54Z"/><path class="cls-4" d="M105.25,51.06v-.61a1.5,1.5,0,0,1-1.31.7,1.74,1.74,0,0,1-.69-.14,1.1,1.1,0,0,1-.47-.35,1.41,1.41,0,0,1-.22-.53,3.38,3.38,0,0,1,0-.65V46.91h.7v2.3a5.24,5.24,0,0,0,0,.74.75.75,0,0,0,.29.44.9.9,0,0,0,.53.15,1.11,1.11,0,0,0,.59-.16.83.83,0,0,0,.39-.44,2.12,2.12,0,0,0,.12-.81V46.91h.7v4.15Z"/><path class="cls-4" d="M107,51.06V45.33h.7v5.73Z"/><path class="cls-4" d="M110.3,50.43l.1.62a2.77,2.77,0,0,1-.53.06,1.22,1.22,0,0,1-.6-.12.64.64,0,0,1-.29-.32,2.41,2.41,0,0,1-.09-.83V47.45h-.52v-.54h.52v-1l.7-.42v1.45h.71v.54h-.71v2.43a1.09,1.09,0,0,0,0,.39.22.22,0,0,0,.12.13.39.39,0,0,0,.24.05A1.9,1.9,0,0,0,110.3,50.43Z"/><path class="cls-4" d="M113.7,51.06v-.61a1.5,1.5,0,0,1-1.31.7,1.74,1.74,0,0,1-.69-.14,1.1,1.1,0,0,1-.47-.35,1.27,1.27,0,0,1-.22-.53,3.38,3.38,0,0,1,0-.65V46.91h.7v2.3a5.24,5.24,0,0,0,0,.74.78.78,0,0,0,.28.44,1,1,0,0,0,.54.15,1.11,1.11,0,0,0,.59-.16.88.88,0,0,0,.39-.44,2.12,2.12,0,0,0,.12-.81V46.91h.7v4.15Z"/><path class="cls-4" d="M115.42,51.06V46.91h.64v.63a1.85,1.85,0,0,1,.44-.59.83.83,0,0,1,.46-.14,1.41,1.41,0,0,1,.72.23l-.24.65a1.06,1.06,0,0,0-.52-.15.68.68,0,0,0-.41.14.76.76,0,0,0-.27.38,3.07,3.07,0,0,0-.11.82v2.18Z"/><path class="cls-4" d="M120.8,50.54a2.42,2.42,0,0,1-.75.47,2.19,2.19,0,0,1-.77.14,1.5,1.5,0,0,1-1-.33,1.11,1.11,0,0,1-.37-.86,1,1,0,0,1,.14-.55,1.1,1.1,0,0,1,.36-.41,1.69,1.69,0,0,1,.51-.23,5.34,5.34,0,0,1,.62-.1,5.84,5.84,0,0,0,1.25-.25,1.53,1.53,0,0,0,0-.18.8.8,0,0,0-.2-.61,1.23,1.23,0,0,0-.8-.23,1.19,1.19,0,0,0-.73.17,1,1,0,0,0-.35.62l-.69-.1a1.6,1.6,0,0,1,.31-.71,1.36,1.36,0,0,1,.62-.42,2.69,2.69,0,0,1,.94-.15,2.55,2.55,0,0,1,.86.13,1.09,1.09,0,0,1,.49.31,1.06,1.06,0,0,1,.22.48,4.27,4.27,0,0,1,0,.65v.94a10.35,10.35,0,0,0,0,1.24,1.58,1.58,0,0,0,.18.5h-.74A1.59,1.59,0,0,1,120.8,50.54ZM120.74,49a4.54,4.54,0,0,1-1.14.27,2.76,2.76,0,0,0-.62.14.62.62,0,0,0-.37.56.59.59,0,0,0,.21.47.89.89,0,0,0,.62.19,1.46,1.46,0,0,0,.73-.18,1.12,1.12,0,0,0,.46-.48,1.67,1.67,0,0,0,.11-.71Z"/><path class="cls-4" d="M122.53,51.06V45.33h.7v5.73Z"/><path class="cls-4" d="M129.32,48.81v-.67h2.42v2.13a4.25,4.25,0,0,1-1.15.67,3.42,3.42,0,0,1-1.22.22,3.26,3.26,0,0,1-1.53-.36,2.38,2.38,0,0,1-1-1,3.26,3.26,0,0,1-.36-1.53,3.57,3.57,0,0,1,.35-1.56,2.41,2.41,0,0,1,1-1.08,3.2,3.2,0,0,1,1.51-.35,3,3,0,0,1,1.12.2,1.88,1.88,0,0,1,.79.56,2.41,2.41,0,0,1,.43.94l-.68.19a2,2,0,0,0-.32-.69,1.29,1.29,0,0,0-.55-.4,2,2,0,0,0-.78-.15,2.23,2.23,0,0,0-.9.16,1.53,1.53,0,0,0-.61.41,2.22,2.22,0,0,0-.37.57,3.13,3.13,0,0,0-.21,1.15,2.73,2.73,0,0,0,.26,1.28,1.64,1.64,0,0,0,.77.77,2.31,2.31,0,0,0,1.07.25,2.49,2.49,0,0,0,1-.19,2.42,2.42,0,0,0,.71-.4V48.81Z"/><path class="cls-4" d="M132.76,51.06V46.91h.63v.63a1.71,1.71,0,0,1,.45-.59.82.82,0,0,1,.45-.14A1.36,1.36,0,0,1,135,47l-.24.65a1,1,0,0,0-.51-.15.68.68,0,0,0-.42.14.74.74,0,0,0-.26.38,2.71,2.71,0,0,0-.12.82v2.18Z"/><path class="cls-4" d="M138.15,51.06v-.61a1.51,1.51,0,0,1-1.32.7,1.72,1.72,0,0,1-.68-.14,1.1,1.1,0,0,1-.47-.35,1.27,1.27,0,0,1-.22-.53,3.38,3.38,0,0,1,0-.65V46.91h.7v2.3a4,4,0,0,0,0,.74.78.78,0,0,0,.28.44.93.93,0,0,0,.54.15,1.14,1.14,0,0,0,.59-.16.92.92,0,0,0,.39-.44,2.12,2.12,0,0,0,.12-.81V46.91h.7v4.15Z"/><path class="cls-4" d="M139.88,52.65V46.91h.64v.54A1.65,1.65,0,0,1,141,47a1.48,1.48,0,0,1,.7-.16,1.65,1.65,0,0,1,.93.28,1.7,1.7,0,0,1,.62.77,3,3,0,0,1,.2,1.09,2.66,2.66,0,0,1-.23,1.15,1.69,1.69,0,0,1-.66.78,1.72,1.72,0,0,1-.92.27A1.33,1.33,0,0,1,141,51a1.53,1.53,0,0,1-.46-.37v2Zm.64-3.64a1.85,1.85,0,0,0,.32,1.18,1,1,0,0,0,1.59,0,1.92,1.92,0,0,0,.33-1.23,1.82,1.82,0,0,0-.32-1.19,1,1,0,0,0-1.58,0A1.87,1.87,0,0,0,140.52,49Z"/><path class="cls-4" d="M144.07,49a2.11,2.11,0,0,1,.64-1.7,1.92,1.92,0,0,1,1.3-.47,1.88,1.88,0,0,1,1.4.56,2.11,2.11,0,0,1,.55,1.55,2.71,2.71,0,0,1-.24,1.26,1.74,1.74,0,0,1-.7.72,2,2,0,0,1-1,.25,1.84,1.84,0,0,1-1.4-.56A2.22,2.22,0,0,1,144.07,49Zm.72,0a1.81,1.81,0,0,0,.35,1.2,1.11,1.11,0,0,0,.87.39,1.12,1.12,0,0,0,.88-.4,1.8,1.8,0,0,0,.34-1.21,1.71,1.71,0,0,0-.35-1.17,1.17,1.17,0,0,0-1.74,0A1.76,1.76,0,0,0,144.79,49Z"/><path class="cls-4" d="M30.5,12.73V6.34h1.3v5.3H35v1.09Z"/><path class="cls-4" d="M35.67,10.33A2.53,2.53,0,0,1,36,9.14a2,2,0,0,1,.86-.88A2.46,2.46,0,0,1,38.07,8a2.33,2.33,0,0,1,1.74.69,2.38,2.38,0,0,1,.67,1.74,2.37,2.37,0,0,1-.68,1.75,2.28,2.28,0,0,1-1.72.7,2.71,2.71,0,0,1-1.22-.29,2,2,0,0,1-.89-.85A2.85,2.85,0,0,1,35.67,10.33Zm1.26.06a1.56,1.56,0,0,0,.33,1.07,1.08,1.08,0,0,0,1.63,0,1.58,1.58,0,0,0,.32-1.08,1.53,1.53,0,0,0-.32-1.05,1.08,1.08,0,0,0-1.63,0A1.55,1.55,0,0,0,36.93,10.39Z"/><path class="cls-4" d="M41.34,13l1.41.17a.44.44,0,0,0,.16.34.91.91,0,0,0,.55.13,1.41,1.41,0,0,0,.73-.14.65.65,0,0,0,.25-.31,2.27,2.27,0,0,0,.05-.57V12a1.68,1.68,0,0,1-1.4.76,1.71,1.71,0,0,1-1.48-.8,2.68,2.68,0,0,1-.44-1.56,2.58,2.58,0,0,1,.57-1.8A1.83,1.83,0,0,1,43.14,8a1.72,1.72,0,0,1,1.43.76V8.06h1.16v4.19a4.13,4.13,0,0,1-.14,1.23,1.54,1.54,0,0,1-.38.64,1.68,1.68,0,0,1-.66.37,3.38,3.38,0,0,1-1,.13,2.68,2.68,0,0,1-1.68-.41,1.27,1.27,0,0,1-.5-1A.86.86,0,0,1,41.34,13Zm1.1-2.73a1.68,1.68,0,0,0,.29,1.08.89.89,0,0,0,.71.35,1,1,0,0,0,.76-.36,1.5,1.5,0,0,0,.31-1,1.68,1.68,0,0,0-.29-1.08,1,1,0,0,0-.76-.35.9.9,0,0,0-.73.34A1.64,1.64,0,0,0,42.44,10.3Z"/><path class="cls-4" d="M48.13,12.73H46.9V8.06H48v.66a2.2,2.2,0,0,1,.53-.62A1,1,0,0,1,49.11,8a1.52,1.52,0,0,1,.81.24l-.38,1.07a1.12,1.12,0,0,0-.58-.2.7.7,0,0,0-.44.14,1,1,0,0,0-.28.52,7.09,7.09,0,0,0-.11,1.56Z"/><path class="cls-4" d="M51.37,9.48l-1.12-.2a1.81,1.81,0,0,1,.65-1A2.38,2.38,0,0,1,52.28,8a3,3,0,0,1,1.23.2,1.16,1.16,0,0,1,.56.5,2.48,2.48,0,0,1,.17,1.1v1.44a5,5,0,0,0,.06.91,2.38,2.38,0,0,0,.22.63H53.29a2.3,2.3,0,0,1-.12-.37.93.93,0,0,0-.05-.14,2.23,2.23,0,0,1-.67.46,2,2,0,0,1-.77.15,1.61,1.61,0,0,1-1.14-.39,1.28,1.28,0,0,1-.41-1,1.27,1.27,0,0,1,.19-.7,1.21,1.21,0,0,1,.52-.48,4.63,4.63,0,0,1,1-.29,7.77,7.77,0,0,0,1.2-.3V9.56a.63.63,0,0,0-.18-.51,1.07,1.07,0,0,0-.66-.15.89.89,0,0,0-.52.13A.93.93,0,0,0,51.37,9.48Zm1.66,1a5.62,5.62,0,0,1-.75.19,2.5,2.5,0,0,0-.68.22.51.51,0,0,0-.24.43.62.62,0,0,0,.19.45.68.68,0,0,0,.5.19,1,1,0,0,0,.63-.22.8.8,0,0,0,.3-.41,2.45,2.45,0,0,0,.05-.6Z"/><path class="cls-4" d="M56.64,12.73H55.4V8.06h1.15v.66a2.05,2.05,0,0,1,.53-.62A1,1,0,0,1,57.61,8a1.53,1.53,0,0,1,.82.24l-.38,1.07a1.15,1.15,0,0,0-.58-.2A.7.7,0,0,0,57,9.2a1,1,0,0,0-.29.52,7.31,7.31,0,0,0-.1,1.56Z"/><path class="cls-4" d="M61.46,12.73V6.28h1.23v6.45Z"/><path class="cls-4" d="M64.88,9.48l-1.12-.2a1.81,1.81,0,0,1,.65-1A2.37,2.37,0,0,1,65.78,8a3,3,0,0,1,1.23.2,1.18,1.18,0,0,1,.57.5,2.48,2.48,0,0,1,.17,1.1v1.44a5.23,5.23,0,0,0,.05.91,2.88,2.88,0,0,0,.23.63H66.79c0-.09-.07-.21-.11-.37s0-.12-.05-.14a2.15,2.15,0,0,1-.68.46,1.94,1.94,0,0,1-.76.15,1.61,1.61,0,0,1-1.14-.39,1.29,1.29,0,0,1-.42-1,1.36,1.36,0,0,1,.19-.7,1.29,1.29,0,0,1,.53-.48,4.63,4.63,0,0,1,1-.29,7.27,7.27,0,0,0,1.19-.3V9.56a.63.63,0,0,0-.17-.51,1.07,1.07,0,0,0-.66-.15.87.87,0,0,0-.52.13A.93.93,0,0,0,64.88,9.48Zm1.65,1a4.89,4.89,0,0,1-.75.19,2.53,2.53,0,0,0-.67.22.51.51,0,0,0-.24.43.58.58,0,0,0,.19.45.68.68,0,0,0,.5.19,1,1,0,0,0,.63-.22.8.8,0,0,0,.3-.41,2.63,2.63,0,0,0,0-.6Z"/><path class="cls-4" d="M74.17,11.24l1.23.21a2.06,2.06,0,0,1-.75,1,2.24,2.24,0,0,1-1.28.35,2.08,2.08,0,0,1-1.8-.79,2.67,2.67,0,0,1-.46-1.61,2.59,2.59,0,0,1,.6-1.82A2,2,0,0,1,73.25,8a2.07,2.07,0,0,1,1.64.69,3,3,0,0,1,.57,2.11H72.37a1.25,1.25,0,0,0,.3.85.92.92,0,0,0,.71.31.72.72,0,0,0,.49-.16A1,1,0,0,0,74.17,11.24ZM74.24,10A1.15,1.15,0,0,0,74,9.18a.83.83,0,0,0-.64-.28.88.88,0,0,0-.67.29,1.2,1.2,0,0,0-.26.8Z"/><path class="cls-4" d="M77.75,12.73,75.87,8.06h1.3l.88,2.38.25.8.13-.4c0-.14.09-.27.13-.4l.89-2.38h1.27l-1.85,4.67Z"/><path class="cls-4" d="M81.19,10.33a2.53,2.53,0,0,1,.3-1.19,2.09,2.09,0,0,1,.86-.88A2.48,2.48,0,0,1,83.59,8a2.33,2.33,0,0,1,1.74.69A2.39,2.39,0,0,1,86,10.38a2.38,2.38,0,0,1-.69,1.75,2.28,2.28,0,0,1-1.72.7,2.77,2.77,0,0,1-1.22-.29,2,2,0,0,1-.89-.85A2.85,2.85,0,0,1,81.19,10.33Zm1.27.06a1.56,1.56,0,0,0,.33,1.07,1.07,1.07,0,0,0,1.62,0,1.59,1.59,0,0,0,.33-1.08,1.54,1.54,0,0,0-.33-1.05,1.07,1.07,0,0,0-1.62,0A1.55,1.55,0,0,0,82.46,10.39Z"/><path class="cls-4" d="M87,12.73V6.28h1.23v6.45Z"/><path class="cls-4" d="M92.55,12.73V12a1.91,1.91,0,0,1-.67.59,1.93,1.93,0,0,1-.88.21,1.66,1.66,0,0,1-.84-.21,1.17,1.17,0,0,1-.54-.58,2.4,2.4,0,0,1-.17-1V8.06h1.23V10.2a6.38,6.38,0,0,0,.07,1.21.69.69,0,0,0,.25.35.74.74,0,0,0,.46.13,1,1,0,0,0,.56-.17.9.9,0,0,0,.35-.43A5.11,5.11,0,0,0,92.46,10v-2h1.23v4.67Z"/><path class="cls-4" d="M99,9.44l-1.22.22a.87.87,0,0,0-.27-.55A.89.89,0,0,0,97,8.92a1,1,0,0,0-.74.32A1.66,1.66,0,0,0,96,10.31a1.86,1.86,0,0,0,.28,1.17.93.93,0,0,0,.75.35.8.8,0,0,0,.57-.21,1.17,1.17,0,0,0,.32-.68l1.21.2a2.13,2.13,0,0,1-.72,1.27,2.28,2.28,0,0,1-1.44.42,2.1,2.1,0,0,1-1.63-.65,2.47,2.47,0,0,1-.61-1.78,2.5,2.5,0,0,1,.61-1.8A2.18,2.18,0,0,1,97,8a2.31,2.31,0,0,1,1.36.37A2,2,0,0,1,99,9.44Z"/><path class="cls-4" d="M100,7.43V6.28h1.23V7.43Zm0,5.3V8.06h1.23v4.67Z"/><path class="cls-4" d="M102.19,10.33a2.43,2.43,0,0,1,.31-1.19,2,2,0,0,1,.86-.88A2.46,2.46,0,0,1,104.6,8a2.32,2.32,0,0,1,1.73.69,2.39,2.39,0,0,1,.68,1.74,2.41,2.41,0,0,1-.68,1.75,2.3,2.3,0,0,1-1.72.7,2.78,2.78,0,0,1-1.23-.29,2,2,0,0,1-.88-.85A2.73,2.73,0,0,1,102.19,10.33Zm1.27.06a1.56,1.56,0,0,0,.33,1.07,1.07,1.07,0,0,0,1.62,0,1.59,1.59,0,0,0,.33-1.08,1.54,1.54,0,0,0-.33-1.05,1.07,1.07,0,0,0-1.62,0A1.55,1.55,0,0,0,103.46,10.39Zm.52-2.9.6-1.32H106l-1.21,1.32Z"/><path class="cls-4" d="M112.22,12.73H111V10.34a3.7,3.7,0,0,0-.08-1,.72.72,0,0,0-.26-.35.75.75,0,0,0-.43-.12,1,1,0,0,0-.57.17.9.9,0,0,0-.35.47,3.66,3.66,0,0,0-.1,1.07v2.12H108V8.06h1.14v.68A1.89,1.89,0,0,1,110.65,8a1.86,1.86,0,0,1,.75.15,1.2,1.2,0,0,1,.51.38,1.19,1.19,0,0,1,.24.52,3.48,3.48,0,0,1,.07.83Z"/><path class="cls-4" d="M59.78,19.44l-1.22.22a.83.83,0,0,0-.28-.55.84.84,0,0,0-.56-.19,1,1,0,0,0-.74.32,1.66,1.66,0,0,0-.27,1.07A1.86,1.86,0,0,0,57,21.48a.9.9,0,0,0,.75.35.8.8,0,0,0,.57-.21,1.17,1.17,0,0,0,.32-.68l1.21.2a2.13,2.13,0,0,1-.72,1.27,2.28,2.28,0,0,1-1.44.42,2.1,2.1,0,0,1-1.63-.65,2.47,2.47,0,0,1-.61-1.78,2.5,2.5,0,0,1,.61-1.8A2.18,2.18,0,0,1,57.7,18a2.31,2.31,0,0,1,1.36.37A2.07,2.07,0,0,1,59.78,19.44Z"/><path class="cls-4" d="M63.79,22.73V22a1.83,1.83,0,0,1-.67.59,1.93,1.93,0,0,1-.88.21,1.69,1.69,0,0,1-.84-.21,1.17,1.17,0,0,1-.54-.58,2.56,2.56,0,0,1-.17-1v-3h1.24V20.2A6.78,6.78,0,0,0,62,21.41a.69.69,0,0,0,.25.35.74.74,0,0,0,.46.13,1,1,0,0,0,.57-.17.93.93,0,0,0,.34-.43A5.11,5.11,0,0,0,63.7,20v-2h1.24v4.67Z"/><path class="cls-4" d="M66.22,22.73V16.28h1.23v6.45Z"/><path class="cls-4" d="M70.86,18.06v1H70v1.88a3.82,3.82,0,0,0,0,.67.28.28,0,0,0,.11.16.32.32,0,0,0,.2.06,1.58,1.58,0,0,0,.5-.12l.11,1a2.55,2.55,0,0,1-1,.18,1.64,1.64,0,0,1-.6-.11.87.87,0,0,1-.39-.29,1,1,0,0,1-.18-.48,7.26,7.26,0,0,1,0-.87V19h-.56v-1h.56v-.93L70,16.41v1.65Z"/><path class="cls-4" d="M74.78,22.73V22a1.83,1.83,0,0,1-.67.59,1.86,1.86,0,0,1-.87.21,1.7,1.7,0,0,1-.85-.21,1.22,1.22,0,0,1-.54-.58,2.58,2.58,0,0,1-.16-1v-3h1.23V20.2A5.58,5.58,0,0,0,73,21.41a.64.64,0,0,0,.25.35.74.74,0,0,0,.46.13,1,1,0,0,0,.56-.17.87.87,0,0,0,.34-.43A4.48,4.48,0,0,0,74.7,20v-2h1.23v4.67Z"/><path class="cls-4" d="M78.39,22.73H77.16V18.06H78.3v.66a2.2,2.2,0,0,1,.53-.62,1,1,0,0,1,.54-.15,1.52,1.52,0,0,1,.81.24l-.38,1.07a1.12,1.12,0,0,0-.58-.2.72.72,0,0,0-.44.14,1,1,0,0,0-.28.52,7.09,7.09,0,0,0-.11,1.56Z"/><path class="cls-4" d="M81.64,19.48l-1.12-.2a1.71,1.71,0,0,1,.65-1A2.33,2.33,0,0,1,82.54,18a3,3,0,0,1,1.23.2,1.18,1.18,0,0,1,.57.5,2.52,2.52,0,0,1,.16,1.1v1.44a5,5,0,0,0,.06.91,2.8,2.8,0,0,0,.22.63H83.55l-.12-.37a1.19,1.19,0,0,1,0-.14,2.4,2.4,0,0,1-.68.46,2,2,0,0,1-.77.15,1.61,1.61,0,0,1-1.14-.39,1.32,1.32,0,0,1-.41-1,1.27,1.27,0,0,1,.19-.7,1.18,1.18,0,0,1,.53-.48,4.34,4.34,0,0,1,1-.29,7.18,7.18,0,0,0,1.2-.3v-.12a.63.63,0,0,0-.18-.51,1.07,1.07,0,0,0-.66-.15.89.89,0,0,0-.52.13A.86.86,0,0,0,81.64,19.48Zm1.65,1a5.62,5.62,0,0,1-.75.19,2.5,2.5,0,0,0-.68.22.51.51,0,0,0-.24.43.59.59,0,0,0,.2.45.66.66,0,0,0,.49.19,1.08,1.08,0,0,0,.64-.22.84.84,0,0,0,.29-.41,2.45,2.45,0,0,0,.05-.6Z"/><path class="cls-4" d="M85.72,22.73V16.28H87v6.45Z"/><circle class="cls-5" cx="165.56" cy="48.93" r="6.39"/><path class="cls-2" d="M165,51.86V47.1h-1.7v-1h4.55v1h-1.7v4.76Z"/></g></g></svg>