<svg xmlns="http://www.w3.org/2000/svg" viewBox="0 0 164.09 53.6"><defs><style>.cls-1{fill:#cb8517;}.cls-2{fill:#986411;}.cls-3{fill:#28203a;}.cls-4{fill:#fff;}.cls-5{fill:#00683b;}</style></defs><g id="Capa_2" data-name="Capa 2"><g id="Capa_1-2" data-name="Capa 1"><rect class="cls-1" width="142.64" height="28.77" rx="14.38"/><path class="cls-2" d="M15.9,41.29V34.85h1.3v6.44Z"/><path class="cls-2" d="M22.67,41.29H21.44V38.91a3.79,3.79,0,0,0-.08-1,.71.71,0,0,0-.26-.35.74.74,0,0,0-.42-.12,1,1,0,0,0-.58.18.84.84,0,0,0-.35.46,4.28,4.28,0,0,0-.09,1.08v2.11H18.42V36.62h1.15v.69a1.87,1.87,0,0,1,1.54-.79,1.78,1.78,0,0,1,.74.14,1.22,1.22,0,0,1,.51.38,1.32,1.32,0,0,1,.25.52,4.34,4.34,0,0,1,.06.83Z"/><path class="cls-2" d="M28.21,41.29H27.06V40.6a1.89,1.89,0,0,1-.67.6,1.76,1.76,0,0,1-.79.19,1.79,1.79,0,0,1-1.38-.64,3.18,3.18,0,0,1,0-3.62,1.81,1.81,0,0,1,1.41-.61,1.72,1.72,0,0,1,1.35.65V34.85h1.24Zm-3.3-2.44a2.09,2.09,0,0,0,.21,1.08.93.93,0,0,0,.83.49.91.91,0,0,0,.73-.36A1.71,1.71,0,0,0,27,39a1.88,1.88,0,0,0-.29-1.16.94.94,0,0,0-.75-.35.93.93,0,0,0-.73.35A1.56,1.56,0,0,0,24.91,38.85Z"/><path class="cls-2" d="M29.42,36V34.85h1.24V36Zm0,5.3V36.62h1.24v4.67Z"/><path class="cls-2" d="M36,38l-1.21.22a.91.91,0,0,0-.28-.55.88.88,0,0,0-.57-.18.89.89,0,0,0-.73.32,1.57,1.57,0,0,0-.28,1.06A1.89,1.89,0,0,0,33.2,40a.93.93,0,0,0,.75.35.87.87,0,0,0,.58-.2,1.2,1.2,0,0,0,.31-.69l1.22.21A2.2,2.2,0,0,1,35.33,41a2.28,2.28,0,0,1-1.44.42,2.14,2.14,0,0,1-1.63-.64A2.49,2.49,0,0,1,31.65,39a2.55,2.55,0,0,1,.61-1.8,2.18,2.18,0,0,1,1.66-.64,2.27,2.27,0,0,1,1.35.36A2,2,0,0,1,36,38Z"/><path class="cls-2" d="M37.85,38.05l-1.12-.21a1.76,1.76,0,0,1,.65-1,2.37,2.37,0,0,1,1.37-.32,3,3,0,0,1,1.23.19,1.24,1.24,0,0,1,.57.5,2.52,2.52,0,0,1,.17,1.1l0,1.45a4.82,4.82,0,0,0,.06.9,2.55,2.55,0,0,0,.23.63H39.76c0-.08-.07-.2-.12-.37s0-.12,0-.14a2.27,2.27,0,0,1-.68.46,1.94,1.94,0,0,1-.76.15A1.61,1.61,0,0,1,37,41a1.29,1.29,0,0,1-.42-1,1.36,1.36,0,0,1,.19-.7,1.29,1.29,0,0,1,.53-.48,4.18,4.18,0,0,1,1-.28,6.15,6.15,0,0,0,1.19-.31v-.12a.63.63,0,0,0-.17-.51,1.07,1.07,0,0,0-.66-.15.87.87,0,0,0-.52.13A1,1,0,0,0,37.85,38.05Zm1.65,1c-.15.05-.4.11-.75.19a2.27,2.27,0,0,0-.67.21.53.53,0,0,0-.24.44.61.61,0,0,0,.19.45.71.71,0,0,0,.49.18,1,1,0,0,0,.64-.22.78.78,0,0,0,.3-.4,2.79,2.79,0,0,0,0-.61Z"/><path class="cls-2" d="M46.22,41.29H45.07V40.6a1.84,1.84,0,0,1-.68.6,1.69,1.69,0,0,1-.78.19,1.77,1.77,0,0,1-1.38-.64,2.67,2.67,0,0,1-.57-1.81,2.6,2.6,0,0,1,.56-1.81,1.81,1.81,0,0,1,1.41-.61,1.72,1.72,0,0,1,1.35.65V34.85h1.24Zm-3.3-2.44a2.09,2.09,0,0,0,.21,1.08.94.94,0,0,0,1.56.13A1.71,1.71,0,0,0,45,39a1.89,1.89,0,0,0-.28-1.16,1,1,0,0,0-.75-.35.92.92,0,0,0-.73.35A1.56,1.56,0,0,0,42.92,38.85Z"/><path class="cls-2" d="M47.15,38.89a2.53,2.53,0,0,1,.3-1.19,2,2,0,0,1,.86-.88,2.56,2.56,0,0,1,1.24-.3,2.36,2.36,0,0,1,1.74.68,2.61,2.61,0,0,1,0,3.5,2.31,2.31,0,0,1-1.72.69,2.61,2.61,0,0,1-1.22-.29,1.93,1.93,0,0,1-.89-.85A2.82,2.82,0,0,1,47.15,38.89Zm1.26.06A1.56,1.56,0,0,0,48.74,40a1.08,1.08,0,0,0,1.63,0,1.93,1.93,0,0,0,0-2.13,1.08,1.08,0,0,0-1.63,0A1.55,1.55,0,0,0,48.41,39Z"/><path class="cls-2" d="M54.11,41.29H52.88V36.62H54v.66a2,2,0,0,1,.53-.61,1,1,0,0,1,.54-.15,1.51,1.51,0,0,1,.81.23l-.38,1.08a1.06,1.06,0,0,0-.58-.21.67.67,0,0,0-.44.15.88.88,0,0,0-.28.51,7.14,7.14,0,0,0-.11,1.57Z"/><path class="cls-2" d="M61.83,41.29H60.59V36.63a4.12,4.12,0,0,1-1.59.94V36.45a3.85,3.85,0,0,0,1-.6,2.25,2.25,0,0,0,.78-1h1Z"/><path class="cls-2" d="M64.18,37.86V36.62h1.23v1.24Zm0,3.43V40.05h1.23v1.24Z"/><path class="cls-3" d="M15.92,51.29V45.56h4.14v.68H16.67V48h3.17v.67H16.67v2h3.52v.68Z"/><path class="cls-3" d="M20.09,52.9l.13-.6a1.26,1.26,0,0,0,.34.05.36.36,0,0,0,.32-.14,1.45,1.45,0,0,0,.1-.71V47.14h.7v4.37a2.09,2.09,0,0,1-.19,1.07.93.93,0,0,1-.85.39A2,2,0,0,1,20.09,52.9ZM21,46.38v-.82h.7v.82Z"/><path class="cls-3" d="M22.6,51.29V47.14h.63v.58a1.63,1.63,0,0,1,.52-.49,1.5,1.5,0,0,1,.74-.18,1.36,1.36,0,0,1,.76.19,1,1,0,0,1,.41.53,1.5,1.5,0,0,1,1.28-.72,1.26,1.26,0,0,1,.95.34,1.47,1.47,0,0,1,.33,1v2.85h-.7V48.68a2.14,2.14,0,0,0-.06-.61.57.57,0,0,0-.25-.3.73.73,0,0,0-.42-.11,1,1,0,0,0-.73.29,1.28,1.28,0,0,0-.29.93v2.41h-.7v-2.7a1.22,1.22,0,0,0-.17-.7.66.66,0,0,0-.57-.23,1.08,1.08,0,0,0-.55.15.92.92,0,0,0-.36.46,2.48,2.48,0,0,0-.11.87v2.15Z"/><path class="cls-3" d="M29.3,47.94v-.8h.8v.8Zm0,3.35v-.8h.8v.8Z"/><path class="cls-3" d="M33.45,51.29V45.56h.76v5.73Z"/><path class="cls-3" d="M35.3,51.29V47.14h.63v.59a1.47,1.47,0,0,1,1.32-.68,1.73,1.73,0,0,1,.69.13,1.16,1.16,0,0,1,.47.35,1.43,1.43,0,0,1,.22.52,4.82,4.82,0,0,1,0,.69v2.55H38V48.76a1.78,1.78,0,0,0-.08-.64.68.68,0,0,0-.29-.34,1,1,0,0,0-.49-.12,1.15,1.15,0,0,0-.78.28A1.43,1.43,0,0,0,36,49v2.27Z"/><path class="cls-3" d="M40.74,51.29l-1.58-4.15h.74l.89,2.48q.15.41.27.84c.06-.22.15-.48.26-.79l.92-2.53H43l-1.57,4.15Z"/><path class="cls-3" d="M46.26,50,47,50a1.72,1.72,0,0,1-.64,1,1.92,1.92,0,0,1-1.18.35,1.89,1.89,0,0,1-1.45-.56,2.21,2.21,0,0,1-.53-1.57,2.31,2.31,0,0,1,.54-1.63,1.83,1.83,0,0,1,1.4-.57,1.77,1.77,0,0,1,1.36.56,2.27,2.27,0,0,1,.52,1.6v.18H43.92a1.57,1.57,0,0,0,.38,1,1.15,1.15,0,0,0,.87.36,1,1,0,0,0,.66-.2A1.28,1.28,0,0,0,46.26,50ZM44,48.82h2.31A1.47,1.47,0,0,0,46,48,1.15,1.15,0,0,0,44.32,48,1.24,1.24,0,0,0,44,48.82Z"/><path class="cls-3" d="M47.71,51.29V47.14h.63v.63a1.56,1.56,0,0,1,.45-.58.71.71,0,0,1,.45-.14,1.39,1.39,0,0,1,.72.22l-.24.66a1,1,0,0,0-.52-.16.68.68,0,0,0-.41.14.73.73,0,0,0-.26.39,2.66,2.66,0,0,0-.12.82v2.17Z"/><path class="cls-3" d="M49.94,50.05l.69-.11a1,1,0,0,0,.33.64,1.14,1.14,0,0,0,.75.22,1.13,1.13,0,0,0,.72-.19.63.63,0,0,0,.23-.47.42.42,0,0,0-.21-.37,3.09,3.09,0,0,0-.72-.24,6.18,6.18,0,0,1-1.07-.34,1,1,0,0,1-.45-.39,1.1,1.1,0,0,1-.16-.56,1.14,1.14,0,0,1,.13-.51,1.1,1.1,0,0,1,.35-.39,1.39,1.39,0,0,1,.44-.21,2,2,0,0,1,.61-.08,2.28,2.28,0,0,1,.86.14,1.12,1.12,0,0,1,.54.38,1.5,1.5,0,0,1,.25.64l-.69.09a.75.75,0,0,0-.27-.5,1,1,0,0,0-.64-.18,1.21,1.21,0,0,0-.69.16.48.48,0,0,0-.21.38.4.4,0,0,0,.09.25.71.71,0,0,0,.27.18l.62.18a8.23,8.23,0,0,1,1,.33,1,1,0,0,1,.46.37,1,1,0,0,1,.17.6,1.24,1.24,0,0,1-.2.66,1.34,1.34,0,0,1-.59.48,2.06,2.06,0,0,1-.88.17,2,2,0,0,1-1.23-.33A1.61,1.61,0,0,1,49.94,50.05Z"/><path class="cls-3" d="M54.06,46.37v-.81h.71v.81Zm0,4.92V47.14h.71v4.15Z"/><path class="cls-3" d="M55.41,49.21a2.16,2.16,0,0,1,.64-1.7,1.94,1.94,0,0,1,1.31-.46,1.85,1.85,0,0,1,1.4.56,2.13,2.13,0,0,1,.54,1.55,2.77,2.77,0,0,1-.24,1.26,1.71,1.71,0,0,1-.7.71,2,2,0,0,1-1,.25A1.85,1.85,0,0,1,56,50.82,2.22,2.22,0,0,1,55.41,49.21Zm.73,0a1.79,1.79,0,0,0,.34,1.2,1.15,1.15,0,0,0,.88.39,1.11,1.11,0,0,0,.87-.39,1.85,1.85,0,0,0,.35-1.22A1.76,1.76,0,0,0,58.23,48a1.13,1.13,0,0,0-.87-.39,1.15,1.15,0,0,0-.88.39A1.78,1.78,0,0,0,56.14,49.21Z"/><path class="cls-3" d="M60,51.29V47.14h.64v.59a1.47,1.47,0,0,1,1.32-.68,1.73,1.73,0,0,1,.69.13,1.16,1.16,0,0,1,.47.35,1.63,1.63,0,0,1,.22.52,4.82,4.82,0,0,1,0,.69v2.55h-.71V48.76a2,2,0,0,0-.08-.64.68.68,0,0,0-.29-.34,1,1,0,0,0-.49-.12,1.15,1.15,0,0,0-.78.28A1.43,1.43,0,0,0,60.67,49v2.27Z"/><path class="cls-3" d="M67.09,50l.73.09a1.72,1.72,0,0,1-.64,1,1.92,1.92,0,0,1-1.18.35,1.89,1.89,0,0,1-1.45-.56A2.21,2.21,0,0,1,64,49.25a2.31,2.31,0,0,1,.54-1.63,1.83,1.83,0,0,1,1.4-.57,1.78,1.78,0,0,1,1.36.56,2.27,2.27,0,0,1,.52,1.6v.18H64.75a1.57,1.57,0,0,0,.38,1,1.15,1.15,0,0,0,.87.36,1,1,0,0,0,.66-.2A1.28,1.28,0,0,0,67.09,50Zm-2.31-1.13H67.1a1.47,1.47,0,0,0-.26-.79A1.15,1.15,0,0,0,65.15,48,1.3,1.3,0,0,0,64.78,48.82Z"/><path class="cls-3" d="M68.26,50.05l.7-.11a1,1,0,0,0,.32.64,1.14,1.14,0,0,0,.75.22,1.13,1.13,0,0,0,.72-.19.59.59,0,0,0,.23-.47.43.43,0,0,0-.2-.37,3.52,3.52,0,0,0-.72-.24A5.63,5.63,0,0,1,69,49.19a1,1,0,0,1-.46-.39,1.09,1.09,0,0,1-.15-.56,1,1,0,0,1,.13-.51,1.07,1.07,0,0,1,.34-.39,1.35,1.35,0,0,1,.45-.21,2,2,0,0,1,.61-.08,2.23,2.23,0,0,1,.85.14,1.15,1.15,0,0,1,.55.38,1.38,1.38,0,0,1,.24.64l-.69.09a.75.75,0,0,0-.27-.5,1,1,0,0,0-.63-.18,1.16,1.16,0,0,0-.69.16.48.48,0,0,0-.21.38.46.46,0,0,0,.08.25.71.71,0,0,0,.27.18l.62.18a9.16,9.16,0,0,1,1,.33,1.05,1.05,0,0,1,.46.37,1,1,0,0,1,.17.6,1.17,1.17,0,0,1-.21.66,1.29,1.29,0,0,1-.59.48,2.06,2.06,0,0,1-.88.17,2,2,0,0,1-1.23-.33A1.61,1.61,0,0,1,68.26,50.05Z"/><path class="cls-3" d="M74.54,51.29V45.56H76.7a4.75,4.75,0,0,1,.87.06,1.62,1.62,0,0,1,.7.26,1.42,1.42,0,0,1,.46.56,1.66,1.66,0,0,1,.18.78,1.73,1.73,0,0,1-.47,1.23,2.22,2.22,0,0,1-1.68.51H75.29v2.33Zm.75-3h1.48a1.61,1.61,0,0,0,1-.27,1,1,0,0,0,.31-.77,1,1,0,0,0-.19-.61.84.84,0,0,0-.47-.34,3,3,0,0,0-.71,0H75.29Z"/><path class="cls-3" d="M79.61,51.29V47.14h.64v.63a1.67,1.67,0,0,1,.44-.58.75.75,0,0,1,.45-.14,1.4,1.4,0,0,1,.73.22l-.24.66a1,1,0,0,0-.52-.16.68.68,0,0,0-.41.14.75.75,0,0,0-.27.39,3,3,0,0,0-.11.82v2.17Z"/><path class="cls-3" d="M81.86,49.21a2.16,2.16,0,0,1,.64-1.7,1.94,1.94,0,0,1,1.31-.46,1.84,1.84,0,0,1,1.4.56,2.13,2.13,0,0,1,.54,1.55,2.77,2.77,0,0,1-.24,1.26,1.71,1.71,0,0,1-.7.71,2,2,0,0,1-1,.25,1.85,1.85,0,0,1-1.41-.56A2.22,2.22,0,0,1,81.86,49.21Zm.73,0a1.79,1.79,0,0,0,.34,1.2,1.15,1.15,0,0,0,.88.39,1.11,1.11,0,0,0,.87-.39A1.85,1.85,0,0,0,85,49.19,1.76,1.76,0,0,0,84.68,48a1.13,1.13,0,0,0-.87-.39,1.15,1.15,0,0,0-.88.39A1.78,1.78,0,0,0,82.59,49.21Z"/><path class="cls-3" d="M86.38,52.89l-.07-.66a1.55,1.55,0,0,0,.4.06.78.78,0,0,0,.37-.08.54.54,0,0,0,.23-.22,2.74,2.74,0,0,0,.22-.52,1.2,1.2,0,0,1,.06-.17L86,47.14h.75l.87,2.4q.17.47.3,1a7.84,7.84,0,0,1,.29-.94l.88-2.42h.71l-1.58,4.22a7.36,7.36,0,0,1-.4.94,1.3,1.3,0,0,1-.43.51,1,1,0,0,1-.57.16A1.65,1.65,0,0,1,86.38,52.89Z"/><path class="cls-3" d="M89.86,51.29v-.8h.8v.8Z"/><path class="cls-3" d="M93.79,46.37v-.81h.7v.81Zm0,4.92V47.14h.7v4.15Z"/><path class="cls-3" d="M95.4,51.29V47.14H96v.59a1.47,1.47,0,0,1,1.32-.68,1.73,1.73,0,0,1,.69.13,1.16,1.16,0,0,1,.47.35,1.63,1.63,0,0,1,.22.52,5.29,5.29,0,0,1,0,.69v2.55h-.7V48.76a2,2,0,0,0-.08-.64.73.73,0,0,0-.29-.34,1,1,0,0,0-.49-.12,1.15,1.15,0,0,0-.78.28A1.43,1.43,0,0,0,96.11,49v2.27Z"/><path class="cls-3" d="M99.86,51.29v-3.6h-.62v-.55h.62V46.7a2.24,2.24,0,0,1,.07-.62.93.93,0,0,1,.36-.45,1.32,1.32,0,0,1,.72-.17,4.13,4.13,0,0,1,.66.07l-.11.62a2,2,0,0,0-.41,0,.59.59,0,0,0-.46.14.73.73,0,0,0-.13.51v.38h.81v.55h-.81v3.6Z"/><path class="cls-3" d="M101.75,51.29V47.14h.63v.63a1.56,1.56,0,0,1,.45-.58.71.71,0,0,1,.45-.14,1.34,1.34,0,0,1,.72.22l-.24.66a.93.93,0,0,0-.52-.16.68.68,0,0,0-.41.14.73.73,0,0,0-.26.39,2.66,2.66,0,0,0-.12.82v2.17Z"/><path class="cls-3" d="M107,50.78a2.76,2.76,0,0,1-.76.47,2.15,2.15,0,0,1-.77.13,1.5,1.5,0,0,1-1-.33,1.09,1.09,0,0,1-.37-.86,1.15,1.15,0,0,1,.14-.55,1.19,1.19,0,0,1,.36-.41A1.69,1.69,0,0,1,105,49a6.21,6.21,0,0,1,.62-.1,7,7,0,0,0,1.26-.24v-.19a.74.74,0,0,0-.2-.6,1.16,1.16,0,0,0-.8-.24,1.29,1.29,0,0,0-.73.17,1,1,0,0,0-.35.62l-.69-.1a1.72,1.72,0,0,1,.31-.71,1.36,1.36,0,0,1,.62-.42,2.73,2.73,0,0,1,.94-.14,2.64,2.64,0,0,1,.87.12,1,1,0,0,1,.48.32,1,1,0,0,1,.22.47,3.25,3.25,0,0,1,0,.65v.94a10.35,10.35,0,0,0,0,1.24,1.58,1.58,0,0,0,.18.5h-.73A1.37,1.37,0,0,1,107,50.78Zm-.06-1.57a5.38,5.38,0,0,1-1.15.26,2.64,2.64,0,0,0-.61.14.58.58,0,0,0-.28.23.57.57,0,0,0-.1.34.59.59,0,0,0,.21.46.91.91,0,0,0,.63.19,1.43,1.43,0,0,0,.72-.18,1,1,0,0,0,.46-.48,1.65,1.65,0,0,0,.12-.71Z"/><path class="cls-3" d="M111.39,50l.72.09a1.71,1.71,0,0,1-.63,1,2,2,0,0,1-1.19.35,1.85,1.85,0,0,1-1.44-.56,2.17,2.17,0,0,1-.54-1.57,2.31,2.31,0,0,1,.54-1.63,1.85,1.85,0,0,1,1.4-.57,1.75,1.75,0,0,1,1.36.56,2.27,2.27,0,0,1,.53,1.6,1.36,1.36,0,0,1,0,.18H109a1.62,1.62,0,0,0,.39,1,1.15,1.15,0,0,0,.86.36,1,1,0,0,0,.66-.2A1.29,1.29,0,0,0,111.39,50Zm-2.31-1.13h2.32a1.47,1.47,0,0,0-.27-.79,1.07,1.07,0,0,0-.87-.41,1.12,1.12,0,0,0-.82.33A1.29,1.29,0,0,0,109.08,48.82Z"/><path class="cls-3" d="M112.56,50.05l.69-.11a1,1,0,0,0,.33.64,1.14,1.14,0,0,0,.75.22,1.13,1.13,0,0,0,.72-.19.63.63,0,0,0,.23-.47.42.42,0,0,0-.21-.37,3.09,3.09,0,0,0-.72-.24,6.18,6.18,0,0,1-1.07-.34,1,1,0,0,1-.45-.39,1.1,1.1,0,0,1-.16-.56,1.14,1.14,0,0,1,.13-.51,1.1,1.1,0,0,1,.35-.39,1.39,1.39,0,0,1,.44-.21,2,2,0,0,1,.61-.08,2.28,2.28,0,0,1,.86.14,1.07,1.07,0,0,1,.54.38,1.5,1.5,0,0,1,.25.64l-.69.09a.75.75,0,0,0-.27-.5,1,1,0,0,0-.64-.18,1.21,1.21,0,0,0-.69.16.48.48,0,0,0-.21.38.4.4,0,0,0,.09.25.71.71,0,0,0,.27.18l.62.18a8.23,8.23,0,0,1,1,.33,1,1,0,0,1,.46.37,1,1,0,0,1,.17.6,1.24,1.24,0,0,1-.2.66,1.34,1.34,0,0,1-.59.48,2.06,2.06,0,0,1-.88.17,2,2,0,0,1-1.23-.33A1.61,1.61,0,0,1,112.56,50.05Z"/><path class="cls-3" d="M118.21,50.66l.1.62a2.61,2.61,0,0,1-.53.06,1.21,1.21,0,0,1-.59-.12.66.66,0,0,1-.3-.32,2.76,2.76,0,0,1-.08-.83V47.69h-.52v-.55h.52v-1l.7-.42v1.45h.7v.55h-.7v2.42a1.55,1.55,0,0,0,0,.39.41.41,0,0,0,.12.14.54.54,0,0,0,.24,0Z"/><path class="cls-3" d="M118.73,51.29V47.14h.64v.63a1.67,1.67,0,0,1,.44-.58.75.75,0,0,1,.45-.14,1.4,1.4,0,0,1,.73.22l-.25.66a.93.93,0,0,0-.51-.16.7.7,0,0,0-.68.53,3,3,0,0,0-.11.82v2.17Z"/><path class="cls-3" d="M124,51.29v-.61a1.5,1.5,0,0,1-1.31.7,1.58,1.58,0,0,1-.69-.14,1.1,1.1,0,0,1-.47-.35,1.36,1.36,0,0,1-.22-.52,3.57,3.57,0,0,1,0-.66V47.14h.7v2.3a3.76,3.76,0,0,0,0,.74.69.69,0,0,0,.28.44.9.9,0,0,0,.53.16,1.12,1.12,0,0,0,.59-.17.8.8,0,0,0,.39-.44,2.09,2.09,0,0,0,.12-.81V47.14h.7v4.15Z"/><path class="cls-3" d="M128.24,49.77l.69.09a1.77,1.77,0,0,1-.58,1.12,1.67,1.67,0,0,1-1.14.4,1.77,1.77,0,0,1-1.37-.55,2.27,2.27,0,0,1-.52-1.6,2.89,2.89,0,0,1,.22-1.18,1.6,1.6,0,0,1,.68-.75,2,2,0,0,1,1-.25,1.68,1.68,0,0,1,1.1.34,1.61,1.61,0,0,1,.56,1l-.69.1a1.13,1.13,0,0,0-.34-.62.87.87,0,0,0-.6-.22,1.1,1.1,0,0,0-.87.39,1.79,1.79,0,0,0-.33,1.2,1.92,1.92,0,0,0,.32,1.22,1.05,1.05,0,0,0,.84.37,1,1,0,0,0,.69-.25A1.29,1.29,0,0,0,128.24,49.77Z"/><path class="cls-3" d="M130.91,50.66l.1.62a2.69,2.69,0,0,1-.53.06,1.18,1.18,0,0,1-.59-.12.62.62,0,0,1-.3-.32,2.37,2.37,0,0,1-.09-.83V47.69H129v-.55h.51v-1l.7-.42v1.45h.71v.55h-.71v2.42a1.09,1.09,0,0,0,0,.39.27.27,0,0,0,.12.14.54.54,0,0,0,.24,0Z"/><path class="cls-3" d="M134.16,51.29v-.61a1.53,1.53,0,0,1-1.32.7,1.61,1.61,0,0,1-.69-.14,1.1,1.1,0,0,1-.47-.35,1.54,1.54,0,0,1-.22-.52,4.76,4.76,0,0,1,0-.66V47.14h.7v2.3a3.76,3.76,0,0,0,0,.74.74.74,0,0,0,.28.44.9.9,0,0,0,.53.16,1.12,1.12,0,0,0,.59-.17.86.86,0,0,0,.4-.44,2.34,2.34,0,0,0,.11-.81V47.14h.7v4.15Z"/><path class="cls-3" d="M135.72,51.29V47.14h.63v.63a1.56,1.56,0,0,1,.45-.58.73.73,0,0,1,.45-.14,1.34,1.34,0,0,1,.72.22l-.24.66a.93.93,0,0,0-.52-.16.68.68,0,0,0-.41.14.73.73,0,0,0-.26.39,2.66,2.66,0,0,0-.12.82v2.17Z"/><path class="cls-3" d="M140.94,50.78a2.76,2.76,0,0,1-.76.47,2.15,2.15,0,0,1-.77.13,1.5,1.5,0,0,1-1-.33,1.09,1.09,0,0,1-.37-.86,1.15,1.15,0,0,1,.14-.55,1.19,1.19,0,0,1,.36-.41A1.69,1.69,0,0,1,139,49a6.21,6.21,0,0,1,.62-.1,7,7,0,0,0,1.26-.24v-.19a.74.74,0,0,0-.2-.6,1.16,1.16,0,0,0-.8-.24,1.29,1.29,0,0,0-.73.17,1.08,1.08,0,0,0-.35.62l-.69-.1a1.86,1.86,0,0,1,.31-.71,1.36,1.36,0,0,1,.62-.42,2.73,2.73,0,0,1,.94-.14,2.6,2.6,0,0,1,.87.12,1.13,1.13,0,0,1,.49.32,1.07,1.07,0,0,1,.21.47,3.25,3.25,0,0,1,0,.65v.94a10.35,10.35,0,0,0,0,1.24,1.58,1.58,0,0,0,.18.5h-.73A1.37,1.37,0,0,1,140.94,50.78Zm-.06-1.57a5.38,5.38,0,0,1-1.15.26,2.64,2.64,0,0,0-.61.14.58.58,0,0,0-.28.23.57.57,0,0,0-.1.34.59.59,0,0,0,.21.46.91.91,0,0,0,.63.19,1.43,1.43,0,0,0,.72-.18,1.09,1.09,0,0,0,.47-.48,1.85,1.85,0,0,0,.11-.71Z"/><path class="cls-3" d="M23,9.54a4.06,4.06,0,0,1,.29-1.65,3.12,3.12,0,0,1,.6-.88,2.41,2.41,0,0,1,.83-.58,3.55,3.55,0,0,1,1.39-.26,3,3,0,0,1,2.28.89,3.39,3.39,0,0,1,.86,2.45A3.38,3.38,0,0,1,28.35,12a3,3,0,0,1-2.27.89A3.07,3.07,0,0,1,23.79,12,3.36,3.36,0,0,1,23,9.54Zm1.34,0a2.41,2.41,0,0,0,.5,1.66,1.64,1.64,0,0,0,1.28.56,1.61,1.61,0,0,0,1.28-.56,2.46,2.46,0,0,0,.5-1.68,2.38,2.38,0,0,0-.49-1.65,1.8,1.8,0,0,0-2.58,0A2.4,2.4,0,0,0,24.29,9.5Z"/><path class="cls-3" d="M30.17,8.06h1.15v.68a1.82,1.82,0,0,1,.6-.57A1.76,1.76,0,0,1,32.77,8a1.8,1.8,0,0,1,1.38.64,2.59,2.59,0,0,1,.57,1.78,2.64,2.64,0,0,1-.57,1.81,1.76,1.76,0,0,1-1.39.65,1.63,1.63,0,0,1-.7-.15,2.29,2.29,0,0,1-.66-.53V14.5H30.17Zm1.22,2.25a1.82,1.82,0,0,0,.31,1.17,1,1,0,0,0,.76.37.89.89,0,0,0,.72-.34,1.8,1.8,0,0,0,.28-1.14,1.75,1.75,0,0,0-.29-1.09.93.93,0,0,0-.73-.35,1,1,0,0,0-.75.35A1.54,1.54,0,0,0,31.39,10.31Z"/><path class="cls-3" d="M37.84,8.06V9H37v1.88a4.43,4.43,0,0,0,0,.67.29.29,0,0,0,.11.16.37.37,0,0,0,.21.06,1.54,1.54,0,0,0,.49-.12l.11,1a2.5,2.5,0,0,1-1,.18,1.66,1.66,0,0,1-.61-.11.87.87,0,0,1-.39-.29A1.18,1.18,0,0,1,35.8,12a5.57,5.57,0,0,1,0-.87V9h-.57v-1h.57V7.13L37,6.41V8.06Z"/><path class="cls-3" d="M38.7,7.43V6.28h1.23V7.43Zm0,5.3V8.06h1.23v4.67Z"/><path class="cls-3" d="M41.1,8.06h1.14V8.7A1.84,1.84,0,0,1,43.7,8a1.5,1.5,0,0,1,.78.19A1.39,1.39,0,0,1,45,8.7a2,2,0,0,1,.66-.56A1.56,1.56,0,0,1,46.44,8a1.7,1.7,0,0,1,.87.21,1.32,1.32,0,0,1,.53.61,2.58,2.58,0,0,1,.13,1v3H46.73V10.06a2.14,2.14,0,0,0-.12-.9.6.6,0,0,0-.53-.26.82.82,0,0,0-.49.16.89.89,0,0,0-.33.46,3.24,3.24,0,0,0-.1,1v2.25H43.93V10.17a3.65,3.65,0,0,0-.07-.88.52.52,0,0,0-.2-.29.63.63,0,0,0-.38-.1.9.9,0,0,0-.51.15.77.77,0,0,0-.33.45,3.11,3.11,0,0,0-.1,1v2.27H41.1Z"/><path class="cls-3" d="M49.2,7.43V6.28h1.23V7.43Zm0,5.3V8.06h1.23v4.67Z"/><path class="cls-3" d="M51.2,12.73v-1l1.75-2c.29-.33.5-.57.64-.7H51.37v-1h3.86v.87L53.45,11l-.63.68.64,0h1.91v1.09Z"/><path class="cls-3" d="M57.12,9.48,56,9.28a1.76,1.76,0,0,1,.65-1A2.37,2.37,0,0,1,58,8a3,3,0,0,1,1.23.2,1.18,1.18,0,0,1,.57.5A2.48,2.48,0,0,1,60,9.75l0,1.44a5,5,0,0,0,.06.91,2.88,2.88,0,0,0,.23.63H59l-.12-.37c0-.07,0-.12,0-.14a2.27,2.27,0,0,1-.68.46,1.94,1.94,0,0,1-.76.15,1.59,1.59,0,0,1-1.14-.39,1.29,1.29,0,0,1-.42-1,1.36,1.36,0,0,1,.19-.7,1.29,1.29,0,0,1,.53-.48,4.7,4.7,0,0,1,1-.29,6.29,6.29,0,0,0,1.2-.3V9.56a.63.63,0,0,0-.17-.51,1.08,1.08,0,0,0-.67-.15.86.86,0,0,0-.51.13A.93.93,0,0,0,57.12,9.48Zm1.65,1a4.89,4.89,0,0,1-.75.19,2.53,2.53,0,0,0-.67.22.51.51,0,0,0-.24.43.58.58,0,0,0,.19.45.67.67,0,0,0,.49.19,1,1,0,0,0,.64-.22.8.8,0,0,0,.3-.41,2.63,2.63,0,0,0,0-.6Z"/><path class="cls-3" d="M62.39,12.73H61.15V8.06H62.3v.66a2.05,2.05,0,0,1,.53-.62A1,1,0,0,1,63.36,8a1.58,1.58,0,0,1,.82.24l-.39,1.07a1.09,1.09,0,0,0-.58-.2.72.72,0,0,0-.44.14,1,1,0,0,0-.28.52,7.31,7.31,0,0,0-.1,1.56Z"/><path class="cls-3" d="M69.91,11.24l1.23.21a2.06,2.06,0,0,1-.75,1,2.24,2.24,0,0,1-1.28.35,2.08,2.08,0,0,1-1.8-.79,2.67,2.67,0,0,1-.46-1.61,2.59,2.59,0,0,1,.6-1.82A2,2,0,0,1,69,8a2.07,2.07,0,0,1,1.64.69,3.09,3.09,0,0,1,.58,2.11h-3.1a1.25,1.25,0,0,0,.3.85.92.92,0,0,0,.71.31.72.72,0,0,0,.49-.16A1,1,0,0,0,69.91,11.24ZM70,10a1.16,1.16,0,0,0-.28-.81.83.83,0,0,0-.64-.28.88.88,0,0,0-.67.29,1.15,1.15,0,0,0-.25.8Z"/><path class="cls-3" d="M72.21,12.73V6.28h1.24v6.45Z"/><path class="cls-3" d="M81.49,12.73H80.35V12a1.84,1.84,0,0,1-.68.6,1.72,1.72,0,0,1-.78.19,1.75,1.75,0,0,1-1.38-.65,2.64,2.64,0,0,1-.57-1.81,2.56,2.56,0,0,1,.56-1.8A1.82,1.82,0,0,1,78.91,8a1.75,1.75,0,0,1,1.35.65V6.28h1.23ZM78.2,10.29a2.09,2.09,0,0,0,.21,1.08.92.92,0,0,0,.83.49.94.94,0,0,0,.73-.37,1.72,1.72,0,0,0,.29-1.08A1.87,1.87,0,0,0,80,9.25a1,1,0,0,0-.75-.35.89.89,0,0,0-.73.35A1.56,1.56,0,0,0,78.2,10.29Z"/><path class="cls-3" d="M85.41,11.24l1.23.21a2,2,0,0,1-.74,1,2.28,2.28,0,0,1-1.29.35,2.08,2.08,0,0,1-1.8-.79,2.74,2.74,0,0,1-.46-1.61A2.55,2.55,0,0,1,83,8.61,2,2,0,0,1,84.49,8a2.09,2.09,0,0,1,1.65.69,3,3,0,0,1,.57,2.11H83.62a1.25,1.25,0,0,0,.3.85.9.9,0,0,0,.71.31.76.76,0,0,0,.49-.16A1,1,0,0,0,85.41,11.24ZM85.48,10a1.16,1.16,0,0,0-.27-.81.84.84,0,0,0-.64-.28.87.87,0,0,0-.67.29,1.15,1.15,0,0,0-.26.8Z"/><path class="cls-3" d="M87.28,11.39l1.24-.18a.87.87,0,0,0,.32.54,1.06,1.06,0,0,0,.68.19,1.19,1.19,0,0,0,.72-.18.38.38,0,0,0,.16-.33.32.32,0,0,0-.09-.23A1,1,0,0,0,89.9,11a6.58,6.58,0,0,1-1.89-.6,1.23,1.23,0,0,1-.56-1,1.28,1.28,0,0,1,.48-1A2.23,2.23,0,0,1,89.42,8a2.65,2.65,0,0,1,1.42.31,1.58,1.58,0,0,1,.64.93l-1.16.21A.69.69,0,0,0,90,9a1,1,0,0,0-.59-.15,1.34,1.34,0,0,0-.7.14.3.3,0,0,0-.14.25.26.26,0,0,0,.12.22,4.74,4.74,0,0,0,1.16.35,3.4,3.4,0,0,1,1.37.55,1.13,1.13,0,0,1,.39.92,1.41,1.41,0,0,1-.54,1.1,2.33,2.33,0,0,1-1.58.46A2.58,2.58,0,0,1,88,12.44,1.77,1.77,0,0,1,87.28,11.39Z"/><path class="cls-3" d="M93.64,9.48l-1.12-.2a1.77,1.77,0,0,1,.66-1A2.33,2.33,0,0,1,94.55,8a3,3,0,0,1,1.23.2,1.18,1.18,0,0,1,.57.5,2.52,2.52,0,0,1,.16,1.1v1.44a5,5,0,0,0,.06.91,2.8,2.8,0,0,0,.22.63H95.56a2.3,2.3,0,0,1-.12-.37.93.93,0,0,0,0-.14,2.23,2.23,0,0,1-.67.46,2,2,0,0,1-.77.15,1.61,1.61,0,0,1-1.14-.39,1.32,1.32,0,0,1-.41-1,1.27,1.27,0,0,1,.19-.7,1.18,1.18,0,0,1,.53-.48,4.34,4.34,0,0,1,1-.29,6.51,6.51,0,0,0,1.2-.3V9.56a.63.63,0,0,0-.18-.51,1.07,1.07,0,0,0-.66-.15.89.89,0,0,0-.52.13A.93.93,0,0,0,93.64,9.48Zm1.66,1a5.62,5.62,0,0,1-.75.19,2.5,2.5,0,0,0-.68.22.51.51,0,0,0-.24.43.59.59,0,0,0,.2.45.64.64,0,0,0,.49.19,1.08,1.08,0,0,0,.64-.22.84.84,0,0,0,.29-.41,2.45,2.45,0,0,0,0-.6Z"/><path class="cls-3" d="M98.91,12.73H97.68V8.06h1.14v.66a2.2,2.2,0,0,1,.53-.62A1,1,0,0,1,99.89,8a1.52,1.52,0,0,1,.81.24l-.38,1.07a1.12,1.12,0,0,0-.58-.2.7.7,0,0,0-.44.14,1,1,0,0,0-.29.52,7.31,7.31,0,0,0-.1,1.56Z"/><path class="cls-3" d="M102.41,12.73h-1.23V8.06h1.14v.66a2.2,2.2,0,0,1,.53-.62,1,1,0,0,1,.54-.15,1.52,1.52,0,0,1,.81.24l-.38,1.07a1.12,1.12,0,0,0-.58-.2.72.72,0,0,0-.44.14,1,1,0,0,0-.28.52,7.09,7.09,0,0,0-.11,1.56Z"/><path class="cls-3" d="M104.45,10.33a2.53,2.53,0,0,1,.3-1.19,2,2,0,0,1,.86-.88A2.46,2.46,0,0,1,106.85,8a2.33,2.33,0,0,1,1.74.69,2.38,2.38,0,0,1,.67,1.74,2.4,2.4,0,0,1-.68,1.76,2.33,2.33,0,0,1-1.72.69,2.71,2.71,0,0,1-1.22-.29,2,2,0,0,1-.89-.85A2.85,2.85,0,0,1,104.45,10.33Zm1.26.06a1.56,1.56,0,0,0,.33,1.07,1.08,1.08,0,0,0,1.63,0,1.64,1.64,0,0,0,.32-1.08,1.59,1.59,0,0,0-.32-1.05,1.08,1.08,0,0,0-1.63,0A1.55,1.55,0,0,0,105.71,10.39Z"/><path class="cls-3" d="M110.23,12.73V6.28h1.24v6.45Z"/><path class="cls-3" d="M112.73,12.73V6.28H114v6.45Z"/><path class="cls-3" d="M115,10.33a2.53,2.53,0,0,1,.3-1.19,2,2,0,0,1,.86-.88A2.46,2.46,0,0,1,117.35,8a2.34,2.34,0,0,1,1.74.69,2.38,2.38,0,0,1,.67,1.74,2.44,2.44,0,0,1-.68,1.76,2.33,2.33,0,0,1-1.72.69,2.78,2.78,0,0,1-1.23-.29,2,2,0,0,1-.88-.85A2.85,2.85,0,0,1,115,10.33Zm1.26.06a1.56,1.56,0,0,0,.33,1.07,1.07,1.07,0,0,0,.81.37,1,1,0,0,0,.81-.37,1.59,1.59,0,0,0,.33-1.08,1.54,1.54,0,0,0-.33-1.05,1,1,0,0,0-.81-.37,1,1,0,0,0-.81.37A1.55,1.55,0,0,0,116.21,10.39Z"/><path class="cls-3" d="M40.48,22.73H39.34V22a1.84,1.84,0,0,1-.68.6,1.72,1.72,0,0,1-.78.19,1.75,1.75,0,0,1-1.38-.65,2.64,2.64,0,0,1-.57-1.81,2.56,2.56,0,0,1,.56-1.8A1.82,1.82,0,0,1,37.9,18a1.75,1.75,0,0,1,1.35.65V16.28h1.23Zm-3.29-2.44a2.22,2.22,0,0,0,.2,1.08,1,1,0,0,0,.84.49.91.91,0,0,0,.72-.37,1.66,1.66,0,0,0,.3-1.08A1.8,1.8,0,0,0,39,19.25a1,1,0,0,0-1.48,0A1.61,1.61,0,0,0,37.19,20.29Z"/><path class="cls-3" d="M44.4,21.24l1.23.21a2,2,0,0,1-.74,1,2.28,2.28,0,0,1-1.29.35A2.08,2.08,0,0,1,41.8,22a2.67,2.67,0,0,1-.46-1.61A2.55,2.55,0,0,1,42,18.61,2,2,0,0,1,43.48,18a2.05,2.05,0,0,1,1.64.69,3,3,0,0,1,.58,2.11H42.61a1.25,1.25,0,0,0,.29.85.94.94,0,0,0,.72.31.71.71,0,0,0,.48-.16A.92.92,0,0,0,44.4,21.24ZM44.47,20a1.16,1.16,0,0,0-.27-.81.84.84,0,0,0-.64-.28.87.87,0,0,0-.67.29,1.15,1.15,0,0,0-.26.8Z"/><path class="cls-3" d="M49.21,22.73V16.28h1.23v6.45Z"/><path class="cls-3" d="M51.42,20.33a2.43,2.43,0,0,1,.31-1.19,2,2,0,0,1,.85-.88A2.52,2.52,0,0,1,53.83,18a2.32,2.32,0,0,1,1.73.69,2.39,2.39,0,0,1,.68,1.74,2.44,2.44,0,0,1-.68,1.76,2.33,2.33,0,0,1-1.72.69,2.78,2.78,0,0,1-1.23-.29,2,2,0,0,1-.88-.85A2.73,2.73,0,0,1,51.42,20.33Zm1.27.06A1.56,1.56,0,0,0,53,21.46a1.07,1.07,0,0,0,1.62,0A1.59,1.59,0,0,0,55,20.38a1.54,1.54,0,0,0-.33-1.05,1.07,1.07,0,0,0-1.62,0A1.55,1.55,0,0,0,52.69,20.39Z"/><path class="cls-3" d="M56.77,21.39,58,21.21a.87.87,0,0,0,.32.54,1.06,1.06,0,0,0,.68.19,1.19,1.19,0,0,0,.72-.18.38.38,0,0,0,.16-.33.32.32,0,0,0-.09-.23,1,1,0,0,0-.41-.16,6.81,6.81,0,0,1-1.9-.6,1.24,1.24,0,0,1-.55-1.05,1.28,1.28,0,0,1,.48-1A2.21,2.21,0,0,1,58.91,18a2.67,2.67,0,0,1,1.42.31,1.62,1.62,0,0,1,.64.93l-1.16.21a.69.69,0,0,0-.29-.41,1,1,0,0,0-.59-.15,1.34,1.34,0,0,0-.7.14.3.3,0,0,0-.14.25.26.26,0,0,0,.12.22,4.76,4.76,0,0,0,1.15.35,3.39,3.39,0,0,1,1.38.55,1.13,1.13,0,0,1,.39.92,1.41,1.41,0,0,1-.54,1.1,2.33,2.33,0,0,1-1.58.46,2.58,2.58,0,0,1-1.51-.39A1.73,1.73,0,0,1,56.77,21.39Z"/><path class="cls-3" d="M64.68,18.06h1.15v.68a1.82,1.82,0,0,1,.6-.57,1.76,1.76,0,0,1,.85-.22,1.8,1.8,0,0,1,1.38.64,2.59,2.59,0,0,1,.57,1.78,2.64,2.64,0,0,1-.57,1.81,1.77,1.77,0,0,1-1.39.65,1.63,1.63,0,0,1-.7-.15,2.29,2.29,0,0,1-.66-.53V24.5H64.68Zm1.22,2.25a1.82,1.82,0,0,0,.31,1.17,1,1,0,0,0,.76.37.89.89,0,0,0,.72-.34A1.8,1.8,0,0,0,68,20.37a1.75,1.75,0,0,0-.29-1.09.93.93,0,0,0-.73-.35.94.94,0,0,0-.75.35A1.54,1.54,0,0,0,65.9,20.31Z"/><path class="cls-3" d="M71.39,22.73H70.16V18.06H71.3v.66a2.2,2.2,0,0,1,.53-.62,1,1,0,0,1,.54-.15,1.52,1.52,0,0,1,.81.24l-.38,1.07a1.12,1.12,0,0,0-.58-.2.7.7,0,0,0-.44.14,1,1,0,0,0-.29.52,8.08,8.08,0,0,0-.1,1.56Z"/><path class="cls-3" d="M73.43,20.33a2.53,2.53,0,0,1,.3-1.19,2,2,0,0,1,.86-.88A2.46,2.46,0,0,1,75.83,18a2.32,2.32,0,0,1,1.73.69,2.35,2.35,0,0,1,.68,1.74,2.44,2.44,0,0,1-.68,1.76,2.33,2.33,0,0,1-1.72.69,2.78,2.78,0,0,1-1.23-.29,2,2,0,0,1-.88-.85A2.85,2.85,0,0,1,73.43,20.33Zm1.26.06A1.56,1.56,0,0,0,75,21.46a1.07,1.07,0,0,0,.81.37,1,1,0,0,0,.81-.37A1.59,1.59,0,0,0,77,20.38a1.54,1.54,0,0,0-.33-1.05,1,1,0,0,0-.81-.37,1,1,0,0,0-.81.37A1.55,1.55,0,0,0,74.69,20.39Z"/><path class="cls-3" d="M78.62,18.06h1.32l1.12,3.31,1.08-3.31h1.28l-1.64,4.49-.3.81a3.35,3.35,0,0,1-.31.63,1.42,1.42,0,0,1-.34.35,1.36,1.36,0,0,1-.47.21,2.88,2.88,0,0,1-.63.07,4.05,4.05,0,0,1-.7-.07l-.11-1a2.69,2.69,0,0,0,.53.06.76.76,0,0,0,.63-.26,1.67,1.67,0,0,0,.32-.64Z"/><path class="cls-3" d="M86.92,21.24l1.23.21a2.06,2.06,0,0,1-.75,1,2.24,2.24,0,0,1-1.28.35,2.08,2.08,0,0,1-1.8-.79,2.67,2.67,0,0,1-.47-1.61,2.6,2.6,0,0,1,.61-1.82A2,2,0,0,1,86,18a2.07,2.07,0,0,1,1.65.69,3,3,0,0,1,.57,2.11H85.12a1.25,1.25,0,0,0,.3.85.92.92,0,0,0,.71.31.74.74,0,0,0,.49-.16A1,1,0,0,0,86.92,21.24ZM87,20a1.16,1.16,0,0,0-.28-.81.83.83,0,0,0-.64-.28.88.88,0,0,0-.67.29,1.2,1.2,0,0,0-.26.8Z"/><path class="cls-3" d="M93.29,19.44l-1.22.22a.86.86,0,0,0-.28-.55.84.84,0,0,0-.56-.18.94.94,0,0,0-.74.31,1.68,1.68,0,0,0-.27,1.07,1.86,1.86,0,0,0,.28,1.17.9.9,0,0,0,.75.35.84.84,0,0,0,.57-.2,1.24,1.24,0,0,0,.32-.69l1.21.2a2.24,2.24,0,0,1-.72,1.27,2.28,2.28,0,0,1-1.44.42,2.1,2.1,0,0,1-1.63-.65A2.45,2.45,0,0,1,89,20.4a2.5,2.5,0,0,1,.61-1.8A2.18,2.18,0,0,1,91.21,18a2.31,2.31,0,0,1,1.36.37A2.07,2.07,0,0,1,93.29,19.44Z"/><path class="cls-3" d="M96.36,18.06v1h-.84v1.88a3.82,3.82,0,0,0,0,.67.27.27,0,0,0,.1.16.37.37,0,0,0,.21.06,1.58,1.58,0,0,0,.5-.12l.11,1a2.55,2.55,0,0,1-1,.18,1.64,1.64,0,0,1-.6-.11,1,1,0,0,1-.4-.29,1.18,1.18,0,0,1-.17-.48,7.26,7.26,0,0,1,0-.87V19h-.56v-1h.56v-.93l1.24-.72v1.65Z"/><path class="cls-3" d="M96.94,20.33a2.53,2.53,0,0,1,.3-1.19,2,2,0,0,1,.86-.88A2.46,2.46,0,0,1,99.34,18a2.33,2.33,0,0,1,1.74.69,2.61,2.61,0,0,1,0,3.5,2.33,2.33,0,0,1-1.72.69,2.71,2.71,0,0,1-1.22-.29,2,2,0,0,1-.89-.85A2.85,2.85,0,0,1,96.94,20.33Zm1.26.06a1.56,1.56,0,0,0,.33,1.07,1.08,1.08,0,0,0,1.63,0,1.64,1.64,0,0,0,.32-1.08,1.59,1.59,0,0,0-.32-1.05,1.08,1.08,0,0,0-1.63,0A1.55,1.55,0,0,0,98.2,20.39Z"/><path class="cls-3" d="M102.28,21.39l1.24-.18a.88.88,0,0,0,.33.54,1,1,0,0,0,.67.19,1.19,1.19,0,0,0,.72-.18.38.38,0,0,0,.16-.33.31.31,0,0,0-.08-.23,1,1,0,0,0-.42-.16,6.82,6.82,0,0,1-1.89-.6,1.22,1.22,0,0,1-.55-1.05,1.3,1.3,0,0,1,.47-1,2.23,2.23,0,0,1,1.49-.42,2.65,2.65,0,0,1,1.42.31,1.64,1.64,0,0,1,.65.93l-1.17.21A.68.68,0,0,0,105,19a1,1,0,0,0-.6-.15,1.36,1.36,0,0,0-.7.14.3.3,0,0,0-.14.25.25.25,0,0,0,.13.22,4.59,4.59,0,0,0,1.15.35,3.39,3.39,0,0,1,1.38.55,1.12,1.12,0,0,1,.38.92,1.4,1.4,0,0,1-.53,1.1,2.38,2.38,0,0,1-1.59.46,2.6,2.6,0,0,1-1.51-.39A1.77,1.77,0,0,1,102.28,21.39Z"/><rect class="cls-4" x="13.96" y="4.79" width="0.85" height="19.3" rx="0.42"/><rect class="cls-4" x="127.83" y="4.79" width="0.85" height="19.3" rx="0.42"/><circle class="cls-5" cx="157.7" cy="47.2" r="6.39"/><path class="cls-4" d="M154.93,50.14V44.41h1.73l1,3.91,1-3.91h1.73v5.73h-1.07V45.63l-1.14,4.51h-1.11L156,45.63v4.51Z"/></g></g></svg>