<svg xmlns="http://www.w3.org/2000/svg" viewBox="0 0 188.73 101.59"><defs><style>.cls-1{fill:#cb8517;}.cls-2{fill:#986411;}.cls-3{fill:#28203a;}.cls-4{fill:#fff;}.cls-5{fill:#009a5c;}.cls-6{fill:#99c3b1;}.cls-7{fill:#00683b;}</style></defs><g id="Capa_2" data-name="Capa 2"><g id="Capa_1-2" data-name="Capa 1"><rect class="cls-1" width="142.64" height="28.77" rx="14.38"/><path class="cls-2" d="M14.58,41.29V34.85h1.3v6.44Z"/><path class="cls-2" d="M21.35,41.29H20.12V38.91a3.79,3.79,0,0,0-.08-1,.71.71,0,0,0-.26-.35.75.75,0,0,0-.43-.12,1,1,0,0,0-.57.18.84.84,0,0,0-.35.46,3.74,3.74,0,0,0-.1,1.08v2.11H17.1V36.62h1.15v.69a1.83,1.83,0,0,1,1.53-.79,2,2,0,0,1,.75.14A1.22,1.22,0,0,1,21,37a1.19,1.19,0,0,1,.24.52,3.54,3.54,0,0,1,.07.83Z"/><path class="cls-2" d="M26.88,41.29H25.74V40.6a1.84,1.84,0,0,1-.68.6,1.72,1.72,0,0,1-.78.19,1.77,1.77,0,0,1-1.38-.64,2.67,2.67,0,0,1-.57-1.81,2.6,2.6,0,0,1,.56-1.81,1.81,1.81,0,0,1,1.41-.61,1.72,1.72,0,0,1,1.35.65V34.85h1.23Zm-3.29-2.44a2.29,2.29,0,0,0,.2,1.09.94.94,0,0,0,.84.48.89.89,0,0,0,.72-.36,1.71,1.71,0,0,0,.3-1.09,1.77,1.77,0,0,0-.29-1.15.9.9,0,0,0-.74-.36,1,1,0,0,0-.74.35A1.61,1.61,0,0,0,23.59,38.85Z"/><path class="cls-2" d="M28.1,36V34.85h1.24V36Zm0,5.3V36.62h1.24v4.67Z"/><path class="cls-2" d="M34.67,38l-1.22.22a.86.86,0,0,0-.28-.55.84.84,0,0,0-.56-.18.91.91,0,0,0-.74.32,1.63,1.63,0,0,0-.27,1.06A1.82,1.82,0,0,0,31.88,40a.9.9,0,0,0,.75.35.84.84,0,0,0,.57-.2,1.2,1.2,0,0,0,.32-.69l1.21.21A2.14,2.14,0,0,1,34,41a2.28,2.28,0,0,1-1.44.42,2.12,2.12,0,0,1-1.63-.64,2.95,2.95,0,0,1,0-3.59,2.17,2.17,0,0,1,1.65-.64,2.31,2.31,0,0,1,1.36.36A2.11,2.11,0,0,1,34.67,38Z"/><path class="cls-2" d="M36.53,38.05l-1.12-.21a1.76,1.76,0,0,1,.65-1,2.35,2.35,0,0,1,1.37-.32,3,3,0,0,1,1.23.19,1.24,1.24,0,0,1,.57.5,2.55,2.55,0,0,1,.16,1.1v1.45a4.82,4.82,0,0,0,.06.9,2.5,2.5,0,0,0,.22.63H38.44c0-.08-.07-.2-.12-.37s0-.12,0-.14a2.27,2.27,0,0,1-.68.46,2,2,0,0,1-.77.15A1.57,1.57,0,0,1,35.7,41a1.38,1.38,0,0,1-.23-1.69,1.23,1.23,0,0,1,.53-.48,4.07,4.07,0,0,1,1-.28,6.1,6.1,0,0,0,1.2-.31v-.12a.66.66,0,0,0-.17-.51,1.08,1.08,0,0,0-.67-.15.84.84,0,0,0-.51.13A1,1,0,0,0,36.53,38.05Zm1.65,1-.75.19a2.17,2.17,0,0,0-.67.21.53.53,0,0,0-.24.44.61.61,0,0,0,.19.45.69.69,0,0,0,.49.18,1.06,1.06,0,0,0,.64-.22.71.71,0,0,0,.29-.4,2.15,2.15,0,0,0,0-.61Z"/><path class="cls-2" d="M44.89,41.29H43.75V40.6a1.84,1.84,0,0,1-.68.6,1.72,1.72,0,0,1-.78.19,1.77,1.77,0,0,1-1.38-.64,3.21,3.21,0,0,1,0-3.62,1.84,1.84,0,0,1,1.41-.61,1.73,1.73,0,0,1,1.36.65V34.85h1.23ZM41.6,38.85a2.29,2.29,0,0,0,.2,1.09.94.94,0,0,0,.84.48.91.91,0,0,0,.72-.36,1.71,1.71,0,0,0,.3-1.09,1.77,1.77,0,0,0-.29-1.15.9.9,0,0,0-.74-.36,1,1,0,0,0-.74.35A1.61,1.61,0,0,0,41.6,38.85Z"/><path class="cls-2" d="M45.83,38.89a2.53,2.53,0,0,1,.3-1.19,2.09,2.09,0,0,1,.86-.88,2.56,2.56,0,0,1,1.24-.3,2.33,2.33,0,0,1,2.41,2.42A2.44,2.44,0,0,1,50,40.7a2.33,2.33,0,0,1-1.72.69A2.65,2.65,0,0,1,47,41.1a2,2,0,0,1-.88-.85A2.82,2.82,0,0,1,45.83,38.89Zm1.26.06A1.56,1.56,0,0,0,47.42,40a1,1,0,0,0,.81.37A1,1,0,0,0,49,40a1.88,1.88,0,0,0,0-2.13,1,1,0,0,0-.81-.37,1.07,1.07,0,0,0-.81.37A1.55,1.55,0,0,0,47.09,39Z"/><path class="cls-2" d="M52.79,41.29H51.56V36.62H52.7v.66a2.13,2.13,0,0,1,.53-.61,1,1,0,0,1,.54-.15,1.51,1.51,0,0,1,.81.23l-.38,1.08a1.09,1.09,0,0,0-.58-.21.65.65,0,0,0-.44.15.94.94,0,0,0-.29.51,7.36,7.36,0,0,0-.1,1.57Z"/><path class="cls-2" d="M60.51,41.29H59.27V36.63a4.12,4.12,0,0,1-1.59.94V36.45a3.39,3.39,0,0,0,1-.6,2.23,2.23,0,0,0,.77-1h1Z"/><path class="cls-2" d="M62.85,37.86V36.62h1.24v1.24Zm0,3.43V40.05h1.24v1.24Z"/><path class="cls-3" d="M14.59,51.29V45.56h4.14v.68H15.35V48h3.17v.67H15.35v2h3.52v.68Z"/><path class="cls-3" d="M18.93,52.9l.13-.6a1.29,1.29,0,0,0,.33.06.36.36,0,0,0,.32-.15,1.41,1.41,0,0,0,.11-.71V47.14h.7v4.38a2,2,0,0,1-.2,1.06.93.93,0,0,1-.84.39A2,2,0,0,1,18.93,52.9Zm.89-6.52v-.82h.7v.82Z"/><path class="cls-3" d="M21.8,51.29v-.8h.8v.8Z"/><path class="cls-3" d="M24,47.94v-.8h.8v.8Zm0,3.35v-.8h.8v.8Z"/><path class="cls-3" d="M31,49v-.67h2.42v2.12a4.1,4.1,0,0,1-1.15.67,3.39,3.39,0,0,1-1.22.23A3.26,3.26,0,0,1,29.56,51a2.4,2.4,0,0,1-1-1.05,3.22,3.22,0,0,1-.35-1.53,3.49,3.49,0,0,1,.35-1.56,2.27,2.27,0,0,1,1-1.07A3.09,3.09,0,0,1,31,45.46a2.92,2.92,0,0,1,1.13.21,1.83,1.83,0,0,1,.78.56,2.51,2.51,0,0,1,.44.93l-.69.19a2,2,0,0,0-.32-.69,1.34,1.34,0,0,0-.54-.4,2,2,0,0,0-.79-.15,2.41,2.41,0,0,0-.9.16,1.74,1.74,0,0,0-.61.42,1.78,1.78,0,0,0-.36.56A3,3,0,0,0,29,48.41a2.89,2.89,0,0,0,.26,1.28,1.67,1.67,0,0,0,.77.76,2.34,2.34,0,0,0,1.07.25,2.45,2.45,0,0,0,1-.19,2.42,2.42,0,0,0,.71-.4V49Z"/><path class="cls-3" d="M34.56,51.29V45.56H35.7l1.35,4.06c.13.37.22.66.28.84.06-.2.16-.51.3-.91l1.37-4h1v5.73h-.73V46.5l-1.66,4.79h-.69l-1.65-4.88v4.88Z"/><path class="cls-3" d="M43.92,49v-.67h2.43v2.12a4.25,4.25,0,0,1-1.15.67,3.43,3.43,0,0,1-1.22.23A3.26,3.26,0,0,1,42.45,51a2.4,2.4,0,0,1-1-1.05,3.23,3.23,0,0,1-.36-1.53,3.63,3.63,0,0,1,.35-1.56,2.33,2.33,0,0,1,1-1.07,3.09,3.09,0,0,1,1.51-.36,2.87,2.87,0,0,1,1.12.21,1.8,1.8,0,0,1,.79.56,2.36,2.36,0,0,1,.43.93l-.68.19a2,2,0,0,0-.32-.69,1.38,1.38,0,0,0-.55-.4,2,2,0,0,0-.79-.15,2.4,2.4,0,0,0-.89.16,1.78,1.78,0,0,0-.62.42,2.23,2.23,0,0,0-.36.56,3.15,3.15,0,0,0-.22,1.16,2.75,2.75,0,0,0,.27,1.28,1.62,1.62,0,0,0,.77.76,2.31,2.31,0,0,0,1.07.25,2.53,2.53,0,0,0,1-.19,2.42,2.42,0,0,0,.71-.4V49Z"/><path class="cls-3" d="M46.84,51.29,49,45.56h.81l2.35,5.73h-.87l-.66-1.74h-2.4l-.63,1.74Zm1.65-2.35h1.94l-.6-1.59c-.18-.48-.31-.88-.4-1.19a7.21,7.21,0,0,1-.31,1.1Z"/><path class="cls-3" d="M55.84,53a7,7,0,0,1-1-1.72,5.45,5.45,0,0,1-.4-2,5.32,5.32,0,0,1,.3-1.78,7.75,7.75,0,0,1,1.09-2h.5c-.31.55-.52.93-.62,1.16a6.26,6.26,0,0,0-.38,1.13,6.7,6.7,0,0,0-.17,1.47A7,7,0,0,0,56.34,53Z"/><path class="cls-3" d="M59.93,49v-.67h2.42v2.12a4.1,4.1,0,0,1-1.15.67,3.39,3.39,0,0,1-1.22.23A3.26,3.26,0,0,1,58.45,51a2.4,2.4,0,0,1-1-1.05,3.22,3.22,0,0,1-.35-1.53,3.49,3.49,0,0,1,.35-1.56,2.31,2.31,0,0,1,1-1.07,3.09,3.09,0,0,1,1.51-.36,2.92,2.92,0,0,1,1.13.21,1.83,1.83,0,0,1,.78.56,2.37,2.37,0,0,1,.44.93l-.69.19a2,2,0,0,0-.32-.69,1.28,1.28,0,0,0-.54-.4,2,2,0,0,0-.79-.15,2.41,2.41,0,0,0-.9.16,1.74,1.74,0,0,0-.61.42,1.78,1.78,0,0,0-.36.56,3,3,0,0,0-.22,1.16,2.89,2.89,0,0,0,.26,1.28,1.67,1.67,0,0,0,.77.76,2.34,2.34,0,0,0,1.07.25,2.45,2.45,0,0,0,1-.19,2.42,2.42,0,0,0,.71-.4V49Z"/><path class="cls-3" d="M66.22,50,67,50a1.78,1.78,0,0,1-.64,1,2.16,2.16,0,0,1-2.63-.21,2.21,2.21,0,0,1-.53-1.57,2.31,2.31,0,0,1,.54-1.63,1.82,1.82,0,0,1,1.39-.57,1.79,1.79,0,0,1,1.36.56,2.23,2.23,0,0,1,.53,1.6v.18h-3.1a1.62,1.62,0,0,0,.39,1,1.15,1.15,0,0,0,.87.36,1,1,0,0,0,.66-.2A1.28,1.28,0,0,0,66.22,50Zm-2.31-1.13h2.32A1.39,1.39,0,0,0,66,48a1.07,1.07,0,0,0-.87-.41,1.1,1.1,0,0,0-.81.33A1.3,1.3,0,0,0,63.91,48.82Z"/><path class="cls-3" d="M67.55,50.05l.7-.11a.92.92,0,0,0,.32.64,1.14,1.14,0,0,0,.75.22,1.13,1.13,0,0,0,.72-.19.61.61,0,0,0,.23-.47.44.44,0,0,0-.2-.37,3.52,3.52,0,0,0-.72-.24,6.07,6.07,0,0,1-1.08-.34,1,1,0,0,1-.45-.39,1.09,1.09,0,0,1-.15-.56,1.13,1.13,0,0,1,.12-.51,1.1,1.1,0,0,1,.35-.39,1.35,1.35,0,0,1,.45-.21,2,2,0,0,1,.6-.08,2.25,2.25,0,0,1,.86.14,1.15,1.15,0,0,1,.55.38,1.65,1.65,0,0,1,.24.64l-.69.09a.75.75,0,0,0-.27-.5,1,1,0,0,0-.63-.18,1.22,1.22,0,0,0-.7.16.5.5,0,0,0-.2.38.39.39,0,0,0,.08.25.71.71,0,0,0,.27.18l.62.18a8.23,8.23,0,0,1,1,.33,1.08,1.08,0,0,1,.47.37,1,1,0,0,1,.17.6,1.15,1.15,0,0,1-.21.66,1.29,1.29,0,0,1-.59.48,2.06,2.06,0,0,1-.88.17,2,2,0,0,1-1.23-.33A1.61,1.61,0,0,1,67.55,50.05Z"/><path class="cls-3" d="M73.37,50.66l.1.62a2.77,2.77,0,0,1-.53.06,1.22,1.22,0,0,1-.6-.12.6.6,0,0,1-.29-.32,2.37,2.37,0,0,1-.09-.83V47.69h-.52v-.55H72v-1l.7-.42v1.45h.71v.55h-.71v2.42a1.09,1.09,0,0,0,0,.39.27.27,0,0,0,.12.14.48.48,0,0,0,.24,0Z"/><path class="cls-3" d="M74.06,46.37v-.81h.7v.81Zm0,4.92V47.14h.7v4.15Z"/><path class="cls-3" d="M75.57,49.21a2.12,2.12,0,0,1,.64-1.7,1.92,1.92,0,0,1,1.3-.46,1.84,1.84,0,0,1,1.4.56,2.1,2.1,0,0,1,.55,1.55,2.77,2.77,0,0,1-.24,1.26,1.77,1.77,0,0,1-.7.71,2,2,0,0,1-1,.25,1.81,1.81,0,0,1-1.4-.56A2.22,2.22,0,0,1,75.57,49.21Zm.72,0a1.79,1.79,0,0,0,.35,1.2,1.11,1.11,0,0,0,.87.39,1.15,1.15,0,0,0,.88-.39,1.83,1.83,0,0,0,.34-1.22A1.66,1.66,0,0,0,78.38,48a1.09,1.09,0,0,0-.87-.4,1.11,1.11,0,0,0-.87.39A1.78,1.78,0,0,0,76.29,49.21Zm.83-2.59.52-1.09h.93l-.86,1.09Z"/><path class="cls-3" d="M80.28,51.29V47.14h.63v.59a1.49,1.49,0,0,1,1.32-.68,1.73,1.73,0,0,1,.69.13,1.1,1.1,0,0,1,.47.35,1.28,1.28,0,0,1,.22.52,3.67,3.67,0,0,1,0,.69v2.55H83V48.77a2.06,2.06,0,0,0-.08-.65.79.79,0,0,0-.29-.34,1,1,0,0,0-.5-.12,1.14,1.14,0,0,0-.77.28A1.39,1.39,0,0,0,81,49v2.27Z"/><path class="cls-3" d="M86,51.29l2.2-5.73H89l2.34,5.73h-.86l-.67-1.74H87.41l-.63,1.74Zm1.65-2.35h1.95L89,47.35c-.18-.48-.32-.88-.41-1.19a6.22,6.22,0,0,1-.31,1.1Z"/><path class="cls-3" d="M94.55,49.77l.7.09A1.78,1.78,0,0,1,94.66,51a1.67,1.67,0,0,1-1.14.4,1.77,1.77,0,0,1-1.37-.55,2.27,2.27,0,0,1-.52-1.6,3.07,3.07,0,0,1,.22-1.18,1.6,1.6,0,0,1,.68-.75,2,2,0,0,1,1-.25,1.73,1.73,0,0,1,1.11.34,1.6,1.6,0,0,1,.55,1l-.68.1a1.21,1.21,0,0,0-.35-.62.87.87,0,0,0-.6-.22,1.08,1.08,0,0,0-.86.39,1.74,1.74,0,0,0-.34,1.2,1.92,1.92,0,0,0,.32,1.22,1.07,1.07,0,0,0,.84.37,1,1,0,0,0,.69-.25A1.24,1.24,0,0,0,94.55,49.77Z"/><path class="cls-3" d="M97.38,50.66l.1.62a2.61,2.61,0,0,1-.53.06,1.21,1.21,0,0,1-.59-.12.66.66,0,0,1-.3-.32,2.46,2.46,0,0,1-.08-.83V47.69h-.52v-.55H96v-1l.69-.42v1.45h.71v.55h-.71v2.42a1.4,1.4,0,0,0,0,.39.41.41,0,0,0,.12.14.54.54,0,0,0,.24,0Z"/><path class="cls-3" d="M98.07,46.37v-.81h.71v.81Zm0,4.92V47.14h.71v4.15Z"/><path class="cls-3" d="M101,51.29l-1.58-4.15h.74l.89,2.48q.15.41.27.84c.06-.22.15-.48.26-.79l.92-2.53h.73l-1.57,4.15Z"/><path class="cls-3" d="M103.58,49.21a2.13,2.13,0,0,1,.65-1.7,1.9,1.9,0,0,1,1.3-.46,1.84,1.84,0,0,1,1.4.56,2.13,2.13,0,0,1,.54,1.55,2.77,2.77,0,0,1-.24,1.26,1.71,1.71,0,0,1-.7.71,2,2,0,0,1-1,.25,1.85,1.85,0,0,1-1.41-.56A2.22,2.22,0,0,1,103.58,49.21Zm.73,0a1.74,1.74,0,0,0,.35,1.2,1.17,1.17,0,0,0,1.74,0,1.83,1.83,0,0,0,.35-1.22A1.71,1.71,0,0,0,106.4,48a1.09,1.09,0,0,0-.87-.4,1.11,1.11,0,0,0-.87.39A1.73,1.73,0,0,0,104.31,49.21Z"/><path class="cls-3" d="M108,50.05l.7-.11a1,1,0,0,0,.33.64,1.4,1.4,0,0,0,1.46,0,.59.59,0,0,0,.24-.47.43.43,0,0,0-.21-.37,3.52,3.52,0,0,0-.72-.24,6.18,6.18,0,0,1-1.07-.34,1,1,0,0,1-.45-.39,1.06,1.06,0,0,1,0-1.07,1.07,1.07,0,0,1,.34-.39,1.35,1.35,0,0,1,.45-.21,2,2,0,0,1,.61-.08,2.32,2.32,0,0,1,.86.14,1.17,1.17,0,0,1,.54.38,1.38,1.38,0,0,1,.24.64l-.68.09a.81.81,0,0,0-.28-.5,1,1,0,0,0-.63-.18,1.21,1.21,0,0,0-.69.16.48.48,0,0,0-.21.38.4.4,0,0,0,.09.25.64.64,0,0,0,.27.18,6.05,6.05,0,0,0,.62.18,8.83,8.83,0,0,1,1,.33,1,1,0,0,1,.46.37,1,1,0,0,1,.17.6,1.15,1.15,0,0,1-.21.66,1.24,1.24,0,0,1-.59.48,2,2,0,0,1-.87.17,2,2,0,0,1-1.23-.33A1.57,1.57,0,0,1,108,50.05Z"/><path class="cls-3" d="M112.76,53h-.51a7,7,0,0,0,1.17-3.75,6,6,0,0,0-.17-1.46,6.13,6.13,0,0,0-.37-1.12,11.86,11.86,0,0,0-.63-1.18h.51a7.41,7.41,0,0,1,1.08,2,5.32,5.32,0,0,1,.3,1.78,5.26,5.26,0,0,1-.4,2A7.29,7.29,0,0,1,112.76,53Z"/><path class="cls-2" d="M14.58,65.32V58.88h1.3v6.44Z"/><path class="cls-2" d="M21.35,65.32H20.12V62.94A3.79,3.79,0,0,0,20,62a.71.71,0,0,0-.26-.35.75.75,0,0,0-.43-.12,1,1,0,0,0-.57.18.84.84,0,0,0-.35.46,3.71,3.71,0,0,0-.1,1.07v2.12H17.1V60.65h1.15v.69a1.93,1.93,0,0,1,2.28-.65,1.22,1.22,0,0,1,.51.38,1.19,1.19,0,0,1,.24.52,3.54,3.54,0,0,1,.07.83Z"/><path class="cls-2" d="M26.88,65.32H25.74v-.69a1.84,1.84,0,0,1-.68.6,1.72,1.72,0,0,1-.78.19,1.77,1.77,0,0,1-1.38-.64A2.67,2.67,0,0,1,22.33,63a2.58,2.58,0,0,1,.56-1.81,1.81,1.81,0,0,1,1.41-.61,1.72,1.72,0,0,1,1.35.65V58.88h1.23Zm-3.29-2.44a2.22,2.22,0,0,0,.2,1.08.93.93,0,0,0,.84.49.89.89,0,0,0,.72-.36,1.71,1.71,0,0,0,.3-1.09,1.82,1.82,0,0,0-.29-1.16.92.92,0,0,0-.74-.35,1,1,0,0,0-.74.35A1.61,1.61,0,0,0,23.59,62.88Z"/><path class="cls-2" d="M28.1,60V58.88h1.24V60Zm0,5.3V60.65h1.24v4.67Z"/><path class="cls-2" d="M34.67,62l-1.22.22a.86.86,0,0,0-.28-.55.84.84,0,0,0-.56-.18.91.91,0,0,0-.74.32,1.63,1.63,0,0,0-.27,1.06,1.84,1.84,0,0,0,.28,1.17.9.9,0,0,0,.75.35.84.84,0,0,0,.57-.2,1.2,1.2,0,0,0,.32-.69l1.21.21A2.14,2.14,0,0,1,34,65a2.28,2.28,0,0,1-1.44.42,2.12,2.12,0,0,1-1.63-.64,2.95,2.95,0,0,1,0-3.59,2.17,2.17,0,0,1,1.65-.64,2.31,2.31,0,0,1,1.36.36A2.11,2.11,0,0,1,34.67,62Z"/><path class="cls-2" d="M36.53,62.07l-1.12-.2a1.76,1.76,0,0,1,.65-1,2.35,2.35,0,0,1,1.37-.32,3,3,0,0,1,1.23.19,1.24,1.24,0,0,1,.57.5,2.55,2.55,0,0,1,.16,1.1v1.44a5,5,0,0,0,.06.91,2.5,2.5,0,0,0,.22.63H38.44c0-.08-.07-.21-.12-.37s0-.12,0-.14a2.27,2.27,0,0,1-.68.46,2,2,0,0,1-.77.15A1.57,1.57,0,0,1,35.7,65a1.29,1.29,0,0,1-.42-1,1.27,1.27,0,0,1,.19-.7,1.23,1.23,0,0,1,.53-.48,4.07,4.07,0,0,1,1-.28,6.1,6.1,0,0,0,1.2-.31v-.12a.66.66,0,0,0-.17-.51,1.08,1.08,0,0,0-.67-.15.84.84,0,0,0-.51.13A1,1,0,0,0,36.53,62.07Zm1.65,1-.75.19a2.17,2.17,0,0,0-.67.21.53.53,0,0,0-.24.44.58.58,0,0,0,.19.44.66.66,0,0,0,.49.19,1.06,1.06,0,0,0,.64-.22.71.71,0,0,0,.29-.4,2.15,2.15,0,0,0,0-.61Z"/><path class="cls-2" d="M44.89,65.32H43.75v-.69a1.84,1.84,0,0,1-.68.6,1.72,1.72,0,0,1-.78.19,1.77,1.77,0,0,1-1.38-.64A2.67,2.67,0,0,1,40.34,63a2.63,2.63,0,0,1,.55-1.81,1.84,1.84,0,0,1,1.41-.61,1.73,1.73,0,0,1,1.36.65V58.88h1.23ZM41.6,62.88A2.22,2.22,0,0,0,41.8,64a.93.93,0,0,0,.84.49.91.91,0,0,0,.72-.36,1.71,1.71,0,0,0,.3-1.09,1.82,1.82,0,0,0-.29-1.16.92.92,0,0,0-.74-.35,1,1,0,0,0-.74.35A1.61,1.61,0,0,0,41.6,62.88Z"/><path class="cls-2" d="M45.83,62.92a2.53,2.53,0,0,1,.3-1.19,2,2,0,0,1,.86-.88,2.56,2.56,0,0,1,1.24-.3A2.33,2.33,0,0,1,50.64,63,2.44,2.44,0,0,1,50,64.73a2.33,2.33,0,0,1-1.72.69A2.65,2.65,0,0,1,47,65.13a2,2,0,0,1-.88-.85A2.85,2.85,0,0,1,45.83,62.92Zm1.26.06a1.56,1.56,0,0,0,.33,1.07,1.07,1.07,0,0,0,.81.37,1,1,0,0,0,.81-.37A1.57,1.57,0,0,0,49.37,63,1.55,1.55,0,0,0,49,61.92a1,1,0,0,0-.81-.37,1.07,1.07,0,0,0-.81.37A1.55,1.55,0,0,0,47.09,63Z"/><path class="cls-2" d="M52.79,65.32H51.56V60.65H52.7v.66a2.2,2.2,0,0,1,.53-.62,1.09,1.09,0,0,1,.54-.14,1.51,1.51,0,0,1,.81.23l-.38,1.08a1.09,1.09,0,0,0-.58-.21.65.65,0,0,0-.44.15.94.94,0,0,0-.29.51,7.36,7.36,0,0,0-.1,1.57Z"/><path class="cls-2" d="M61.52,64.17v1.15H57.19a3,3,0,0,1,.42-1.23A8,8,0,0,1,59,62.54a8.37,8.37,0,0,0,1-1,1.39,1.39,0,0,0,.26-.76.86.86,0,0,0-.22-.63.85.85,0,0,0-.62-.23.81.81,0,0,0-.61.24,1.22,1.22,0,0,0-.27.77l-1.23-.12A2.09,2.09,0,0,1,58,59.29a2.36,2.36,0,0,1,1.45-.44,2.1,2.1,0,0,1,1.5.51,1.68,1.68,0,0,1,.55,1.28,2.12,2.12,0,0,1-.16.83,3.28,3.28,0,0,1-.49.82,7.23,7.23,0,0,1-.81.83,9.35,9.35,0,0,0-.74.71,1.73,1.73,0,0,0-.25.34Z"/><path class="cls-2" d="M62.85,61.89V60.65h1.24v1.24Zm0,3.43V64.08h1.24v1.24Z"/><path class="cls-3" d="M14.59,75.32V69.59h4.14v.68H15.35V72h3.17v.67H15.35v2h3.52v.68Z"/><path class="cls-3" d="M18.93,76.93l.13-.6a1.19,1.19,0,0,0,.33,0,.35.35,0,0,0,.32-.14,1.41,1.41,0,0,0,.11-.71V71.17h.7v4.37a2,2,0,0,1-.2,1.07.93.93,0,0,1-.84.39A2,2,0,0,1,18.93,76.93Zm.89-6.52v-.82h.7v.82Z"/><path class="cls-3" d="M21.8,75.32v-.8h.8v.8Z"/><path class="cls-3" d="M24,72v-.8h.8V72Zm0,3.35v-.8h.8v.8Z"/><path class="cls-3" d="M28.49,75.32V69.59h.76v5.73Z"/><path class="cls-3" d="M30.55,75.32V69.59h.76v5h2.82v.68Z"/><path class="cls-3" d="M35.16,75.32V69.59h.76v5.73Z"/><path class="cls-3" d="M39.41,69.24l.52-1.09h.92L40,69.24Zm.19,6.08V69.59h.76v5.73Z"/><path class="cls-3" d="M41.61,75.32V71.17h.63v.59a1.49,1.49,0,0,1,1.32-.68,1.73,1.73,0,0,1,.69.13,1.1,1.1,0,0,1,.47.35,1.28,1.28,0,0,1,.22.52,3.67,3.67,0,0,1,0,.69v2.55h-.7V72.79a1.74,1.74,0,0,0-.09-.64.68.68,0,0,0-.29-.34,1,1,0,0,0-.49-.12,1.13,1.13,0,0,0-.77.28,1.39,1.39,0,0,0-.33,1.08v2.27Z"/><path class="cls-3" d="M48.75,75.32v-.53a1.27,1.27,0,0,1-1.16.62,1.62,1.62,0,0,1-.91-.27,1.76,1.76,0,0,1-.65-.77,2.63,2.63,0,0,1-.23-1.12A2.92,2.92,0,0,1,46,72.12a1.65,1.65,0,0,1,.62-.77,1.68,1.68,0,0,1,.93-.27,1.31,1.31,0,0,1,1.14.57V69.59h.7v5.73Zm-2.22-2.07a1.82,1.82,0,0,0,.33,1.19,1,1,0,0,0,.8.39,1,1,0,0,0,.78-.37,1.77,1.77,0,0,0,.32-1.15,1.93,1.93,0,0,0-.33-1.25,1,1,0,0,0-.81-.4,1,1,0,0,0-.78.38A1.91,1.91,0,0,0,46.53,73.25Z"/><path class="cls-3" d="M50.51,70.4v-.81h.7v.81Zm0,4.92V71.17h.7v4.15Z"/><path class="cls-3" d="M55,73.8l.69.09A1.79,1.79,0,0,1,55.1,75a1.67,1.67,0,0,1-1.14.4,1.77,1.77,0,0,1-1.37-.55,2.27,2.27,0,0,1-.52-1.6,2.89,2.89,0,0,1,.22-1.18,1.6,1.6,0,0,1,.68-.75,2,2,0,0,1,1-.25,1.73,1.73,0,0,1,1.11.34,1.6,1.6,0,0,1,.55,1l-.69.1a1.2,1.2,0,0,0-.34-.63.91.91,0,0,0-.6-.21,1.12,1.12,0,0,0-.87.38,1.84,1.84,0,0,0-.33,1.21,1.86,1.86,0,0,0,.32,1.21,1,1,0,0,0,.84.38,1,1,0,0,0,.69-.25A1.29,1.29,0,0,0,55,73.8Z"/><path class="cls-3" d="M59.12,74l.73.09a1.72,1.72,0,0,1-.64,1,1.92,1.92,0,0,1-1.18.35,1.89,1.89,0,0,1-1.45-.56,2.21,2.21,0,0,1-.53-1.57,2.31,2.31,0,0,1,.54-1.63,1.83,1.83,0,0,1,1.4-.57,1.77,1.77,0,0,1,1.36.56,2.27,2.27,0,0,1,.52,1.6v.18H56.78a1.57,1.57,0,0,0,.38,1,1.15,1.15,0,0,0,.87.36,1,1,0,0,0,.66-.2A1.33,1.33,0,0,0,59.12,74Zm-2.3-1.13h2.31a1.47,1.47,0,0,0-.26-.79A1.15,1.15,0,0,0,57.18,72,1.24,1.24,0,0,0,56.82,72.85Z"/><path class="cls-3" d="M65.65,75.32v-.53a1.28,1.28,0,0,1-1.16.62,1.62,1.62,0,0,1-.91-.27,1.76,1.76,0,0,1-.65-.77,2.63,2.63,0,0,1-.23-1.12,2.92,2.92,0,0,1,.21-1.13,1.59,1.59,0,0,1,.62-.77,1.68,1.68,0,0,1,.93-.27,1.34,1.34,0,0,1,1.14.57V69.59h.7v5.73Zm-2.23-2.07a1.82,1.82,0,0,0,.34,1.19,1,1,0,0,0,1.58,0,1.77,1.77,0,0,0,.32-1.15,1.93,1.93,0,0,0-.33-1.25,1,1,0,0,0-.81-.4,1,1,0,0,0-.78.38A1.9,1.9,0,0,0,63.42,73.25Z"/><path class="cls-3" d="M70.25,74l.72.09a1.72,1.72,0,0,1-.64,1,2.16,2.16,0,0,1-2.63-.21,2.21,2.21,0,0,1-.53-1.57,2.31,2.31,0,0,1,.54-1.63,1.85,1.85,0,0,1,1.4-.57,1.77,1.77,0,0,1,1.36.56,2.27,2.27,0,0,1,.53,1.6s0,.1,0,.18H67.9a1.57,1.57,0,0,0,.38,1,1.17,1.17,0,0,0,.87.36,1,1,0,0,0,.66-.2A1.41,1.41,0,0,0,70.25,74Zm-2.31-1.13h2.31a1.47,1.47,0,0,0-.26-.79A1.15,1.15,0,0,0,68.3,72,1.24,1.24,0,0,0,67.94,72.85Z"/><path class="cls-3" d="M74.06,75.32V69.59h.7v5.73Z"/><path class="cls-3" d="M78.69,74l.73.09a1.72,1.72,0,0,1-.64,1,1.92,1.92,0,0,1-1.18.35,1.89,1.89,0,0,1-1.45-.56,2.21,2.21,0,0,1-.53-1.57,2.31,2.31,0,0,1,.54-1.63,1.83,1.83,0,0,1,1.4-.57,1.77,1.77,0,0,1,1.36.56,2.27,2.27,0,0,1,.52,1.6v.18H76.35a1.57,1.57,0,0,0,.38,1,1.15,1.15,0,0,0,.87.36,1,1,0,0,0,.66-.2A1.33,1.33,0,0,0,78.69,74Zm-2.3-1.13H78.7a1.47,1.47,0,0,0-.26-.79A1.15,1.15,0,0,0,76.75,72,1.24,1.24,0,0,0,76.39,72.85Z"/><path class="cls-3" d="M80,74.08l.7-.11a1,1,0,0,0,.32.64,1.14,1.14,0,0,0,.75.22,1.11,1.11,0,0,0,.72-.19.61.61,0,0,0,.24-.47.42.42,0,0,0-.21-.37,3.52,3.52,0,0,0-.72-.24,5.89,5.89,0,0,1-1.07-.34,1,1,0,0,1-.46-.39,1.09,1.09,0,0,1-.15-.56,1,1,0,0,1,.13-.51,1.19,1.19,0,0,1,.34-.4,1.59,1.59,0,0,1,.45-.2,2,2,0,0,1,.61-.08,2.23,2.23,0,0,1,.85.14,1.15,1.15,0,0,1,.55.38,1.38,1.38,0,0,1,.24.64l-.69.09a.75.75,0,0,0-.27-.5,1,1,0,0,0-.63-.18,1.16,1.16,0,0,0-.69.16.48.48,0,0,0-.21.38.4.4,0,0,0,.09.25.6.6,0,0,0,.26.18l.63.18a9.52,9.52,0,0,1,1,.33,1.05,1.05,0,0,1,.46.37,1,1,0,0,1,.17.6,1.17,1.17,0,0,1-.21.66,1.24,1.24,0,0,1-.59.48,2,2,0,0,1-.87.17,2,2,0,0,1-1.24-.33A1.61,1.61,0,0,1,80,74.08Z"/><path class="cls-3" d="M84.31,70.4v-.81H85v.81Zm0,4.92V71.17H85v4.15Z"/><path class="cls-3" d="M85.82,73.24a2.12,2.12,0,0,1,.64-1.7,1.92,1.92,0,0,1,1.3-.46,1.84,1.84,0,0,1,1.4.56,2.1,2.1,0,0,1,.55,1.55,2.7,2.7,0,0,1-.24,1.25,1.74,1.74,0,0,1-.7.72,2,2,0,0,1-1,.25,1.81,1.81,0,0,1-1.4-.56A2.22,2.22,0,0,1,85.82,73.24Zm.72,0a1.79,1.79,0,0,0,.35,1.2,1.11,1.11,0,0,0,.87.39,1.15,1.15,0,0,0,.88-.39A1.85,1.85,0,0,0,89,73.22a1.71,1.71,0,0,0-.35-1.17,1.17,1.17,0,0,0-1.74,0A1.78,1.78,0,0,0,86.54,73.24Z"/><path class="cls-3" d="M90.53,75.32V71.17h.63v.59a1.49,1.49,0,0,1,1.32-.68,1.73,1.73,0,0,1,.69.13,1.1,1.1,0,0,1,.47.35,1.28,1.28,0,0,1,.22.52,3.67,3.67,0,0,1,0,.69v2.55h-.7V72.79a2,2,0,0,0-.08-.64.79.79,0,0,0-.29-.34,1,1,0,0,0-.5-.12,1.14,1.14,0,0,0-.77.28,1.39,1.39,0,0,0-.33,1.08v2.27Z"/><path class="cls-3" d="M97.82,74l.73.09a1.78,1.78,0,0,1-.64,1,2,2,0,0,1-1.19.35,1.87,1.87,0,0,1-1.44-.56,2.16,2.16,0,0,1-.53-1.57,2.3,2.3,0,0,1,.53-1.63,1.85,1.85,0,0,1,1.4-.57,1.75,1.75,0,0,1,1.36.56,2.27,2.27,0,0,1,.53,1.6v.18h-3.1a1.62,1.62,0,0,0,.39,1,1.15,1.15,0,0,0,.87.36,1.08,1.08,0,0,0,.66-.2A1.4,1.4,0,0,0,97.82,74Zm-2.31-1.13h2.32a1.39,1.39,0,0,0-.27-.79,1.07,1.07,0,0,0-.87-.41,1.1,1.1,0,0,0-.81.33A1.25,1.25,0,0,0,95.51,72.85Z"/><path class="cls-3" d="M99.15,74.08l.69-.11a1,1,0,0,0,.33.64,1.14,1.14,0,0,0,.75.22,1.13,1.13,0,0,0,.72-.19.63.63,0,0,0,.23-.47.42.42,0,0,0-.21-.37,3.09,3.09,0,0,0-.72-.24,6.18,6.18,0,0,1-1.07-.34,1,1,0,0,1-.45-.39,1.06,1.06,0,0,1,0-1.07,1.22,1.22,0,0,1,.35-.4,1.65,1.65,0,0,1,.44-.2,2,2,0,0,1,.61-.08,2.28,2.28,0,0,1,.86.14,1.07,1.07,0,0,1,.54.38,1.5,1.5,0,0,1,.25.64l-.69.09a.75.75,0,0,0-.27-.5,1,1,0,0,0-.64-.18,1.21,1.21,0,0,0-.69.16.48.48,0,0,0-.21.38.4.4,0,0,0,.09.25.71.71,0,0,0,.27.18l.62.18a8.23,8.23,0,0,1,1,.33,1,1,0,0,1,.46.37,1,1,0,0,1,.17.6,1.24,1.24,0,0,1-.2.66,1.34,1.34,0,0,1-.59.48,2.06,2.06,0,0,1-.88.17,2,2,0,0,1-1.23-.33A1.61,1.61,0,0,1,99.15,74.08Z"/><path class="cls-3" d="M105.66,70.4v-.81h.7v.81Zm0,4.92V71.17h.7v4.15Z"/><path class="cls-3" d="M107.43,75.32V71.17h.63v.59a1.49,1.49,0,0,1,1.32-.68,1.73,1.73,0,0,1,.69.13,1.1,1.1,0,0,1,.47.35,1.28,1.28,0,0,1,.22.52,3.67,3.67,0,0,1,0,.69v2.55h-.7V72.79a1.74,1.74,0,0,0-.09-.64.68.68,0,0,0-.29-.34,1,1,0,0,0-.49-.12,1.13,1.13,0,0,0-.77.28,1.39,1.39,0,0,0-.33,1.08v2.27Z"/><path class="cls-3" d="M114.58,73.8l.7.09A1.84,1.84,0,0,1,114.7,75a1.71,1.71,0,0,1-1.15.4,1.79,1.79,0,0,1-1.37-.55,2.31,2.31,0,0,1-.52-1.6,2.89,2.89,0,0,1,.23-1.18,1.53,1.53,0,0,1,.67-.75,2,2,0,0,1,1-.25,1.73,1.73,0,0,1,1.11.34,1.55,1.55,0,0,1,.55,1l-.68.1a1.21,1.21,0,0,0-.35-.63.88.88,0,0,0-.6-.21,1.1,1.1,0,0,0-.86.38,1.84,1.84,0,0,0-.33,1.21,1.81,1.81,0,0,0,.32,1.21,1,1,0,0,0,.83.38,1,1,0,0,0,.69-.25A1.19,1.19,0,0,0,114.58,73.8Z"/><path class="cls-3" d="M118.58,74.81a2.87,2.87,0,0,1-.75.47,2.19,2.19,0,0,1-.77.13,1.5,1.5,0,0,1-1-.33,1.09,1.09,0,0,1-.37-.86,1.15,1.15,0,0,1,.14-.55,1.1,1.1,0,0,1,.36-.41,1.69,1.69,0,0,1,.51-.23,5.74,5.74,0,0,1,.62-.1,7,7,0,0,0,1.26-.24V72.5a.77.77,0,0,0-.2-.6,1.18,1.18,0,0,0-.8-.24,1.29,1.29,0,0,0-.73.17,1,1,0,0,0-.35.62l-.69-.1a1.72,1.72,0,0,1,.31-.71,1.36,1.36,0,0,1,.62-.42,2.73,2.73,0,0,1,.94-.14,2.64,2.64,0,0,1,.87.12,1,1,0,0,1,.48.32,1,1,0,0,1,.22.47,3.25,3.25,0,0,1,0,.65v.94a10.35,10.35,0,0,0,0,1.24,1.58,1.58,0,0,0,.18.5h-.73A1.6,1.6,0,0,1,118.58,74.81Zm0-1.57a5.38,5.38,0,0,1-1.15.26,2.76,2.76,0,0,0-.62.14.62.62,0,0,0-.37.56.59.59,0,0,0,.21.47.9.9,0,0,0,.63.19,1.43,1.43,0,0,0,.72-.18,1.07,1.07,0,0,0,.46-.48,1.65,1.65,0,0,0,.12-.71Z"/><path class="cls-3" d="M120.33,76.91V71.17H121v.54a1.65,1.65,0,0,1,.51-.48,1.47,1.47,0,0,1,.69-.15,1.65,1.65,0,0,1,.94.27,1.68,1.68,0,0,1,.61.77,3,3,0,0,1,0,2.24,1.69,1.69,0,0,1-.66.78,1.72,1.72,0,0,1-.92.27,1.33,1.33,0,0,1-.63-.15,1.42,1.42,0,0,1-.46-.37v2Zm.63-3.64a1.77,1.77,0,0,0,.33,1.18,1,1,0,0,0,.78.38,1,1,0,0,0,.81-.39,1.92,1.92,0,0,0,.33-1.23,1.82,1.82,0,0,0-.33-1.19,1,1,0,0,0-.78-.39,1,1,0,0,0-.79.42A1.87,1.87,0,0,0,121,73.27Z"/><path class="cls-3" d="M127.48,74.81a2.87,2.87,0,0,1-.75.47,2.19,2.19,0,0,1-.77.13,1.5,1.5,0,0,1-1-.33,1.09,1.09,0,0,1-.37-.86,1,1,0,0,1,.14-.55,1.1,1.1,0,0,1,.36-.41,1.69,1.69,0,0,1,.51-.23,5.34,5.34,0,0,1,.62-.1,6.71,6.71,0,0,0,1.25-.24,1.77,1.77,0,0,0,0-.19.77.77,0,0,0-.2-.6,1.18,1.18,0,0,0-.8-.24,1.27,1.27,0,0,0-.73.17,1,1,0,0,0-.35.62l-.69-.1a1.6,1.6,0,0,1,.31-.71,1.36,1.36,0,0,1,.62-.42,2.7,2.7,0,0,1,.94-.14,2.58,2.58,0,0,1,.86.12,1,1,0,0,1,.49.32,1,1,0,0,1,.22.47,4.27,4.27,0,0,1,0,.65v.94a10.35,10.35,0,0,0,0,1.24,1.58,1.58,0,0,0,.18.5h-.74A1.59,1.59,0,0,1,127.48,74.81Zm-.06-1.57a5.12,5.12,0,0,1-1.14.26,2.76,2.76,0,0,0-.62.14.62.62,0,0,0-.37.56.59.59,0,0,0,.21.47.89.89,0,0,0,.62.19,1.46,1.46,0,0,0,.73-.18,1.07,1.07,0,0,0,.46-.48,1.67,1.67,0,0,0,.11-.71Z"/><path class="cls-3" d="M131.93,73.8l.69.09A1.75,1.75,0,0,1,132,75a1.67,1.67,0,0,1-1.14.4,1.77,1.77,0,0,1-1.37-.55,2.27,2.27,0,0,1-.52-1.6,2.89,2.89,0,0,1,.22-1.18,1.6,1.6,0,0,1,.68-.75,2,2,0,0,1,1-.25,1.73,1.73,0,0,1,1.11.34,1.6,1.6,0,0,1,.55,1l-.69.1a1.2,1.2,0,0,0-.34-.63.91.91,0,0,0-.6-.21,1.09,1.09,0,0,0-.86.38,1.78,1.78,0,0,0-.34,1.21,1.86,1.86,0,0,0,.32,1.21,1,1,0,0,0,.84.38,1,1,0,0,0,.69-.25A1.24,1.24,0,0,0,131.93,73.8Z"/><path class="cls-3" d="M133.23,70.4v-.81h.7v.81Zm0,4.92V71.17h.7v4.15Z"/><path class="cls-3" d="M136.54,74.69l.1.62a2.77,2.77,0,0,1-.53.06,1.25,1.25,0,0,1-.6-.12.64.64,0,0,1-.29-.32,2.37,2.37,0,0,1-.09-.83V71.72h-.51v-.55h.51v-1l.7-.42v1.45h.71v.55h-.71v2.42a1.09,1.09,0,0,0,0,.39.27.27,0,0,0,.12.14.48.48,0,0,0,.24,0Z"/><path class="cls-3" d="M139.93,74.81a2.87,2.87,0,0,1-.75.47,2.19,2.19,0,0,1-.77.13,1.55,1.55,0,0,1-1.06-.33,1.12,1.12,0,0,1-.36-.86,1,1,0,0,1,.14-.55,1.1,1.1,0,0,1,.36-.41A1.69,1.69,0,0,1,138,73a5.34,5.34,0,0,1,.62-.1,6.71,6.71,0,0,0,1.25-.24,1.77,1.77,0,0,0,0-.19.77.77,0,0,0-.2-.6,1.18,1.18,0,0,0-.8-.24,1.27,1.27,0,0,0-.73.17,1,1,0,0,0-.35.62l-.69-.1a1.6,1.6,0,0,1,.31-.71,1.36,1.36,0,0,1,.62-.42,2.7,2.7,0,0,1,.94-.14,2.58,2.58,0,0,1,.86.12,1.07,1.07,0,0,1,.49.32,1,1,0,0,1,.22.47,4.68,4.68,0,0,1,0,.65v.94a9.55,9.55,0,0,0,0,1.24,1.58,1.58,0,0,0,.18.5h-.74A1.59,1.59,0,0,1,139.93,74.81Zm-.06-1.57a5.12,5.12,0,0,1-1.14.26,2.76,2.76,0,0,0-.62.14.58.58,0,0,0-.37.56.59.59,0,0,0,.21.47.89.89,0,0,0,.62.19,1.49,1.49,0,0,0,.73-.18,1.07,1.07,0,0,0,.46-.48,1.67,1.67,0,0,0,.11-.71Z"/><path class="cls-3" d="M141.67,75.32V71.17h.64v.59a1.47,1.47,0,0,1,1.32-.68,1.73,1.73,0,0,1,.69.13,1.16,1.16,0,0,1,.47.35,1.63,1.63,0,0,1,.22.52,4.82,4.82,0,0,1,0,.69v2.55h-.71V72.79a1.78,1.78,0,0,0-.08-.64.68.68,0,0,0-.29-.34,1,1,0,0,0-.49-.12,1.15,1.15,0,0,0-.78.28,1.43,1.43,0,0,0-.32,1.08v2.27Z"/><path class="cls-3" d="M147.66,74.69l.1.62a2.69,2.69,0,0,1-.53.06,1.18,1.18,0,0,1-.59-.12.66.66,0,0,1-.3-.32,2.37,2.37,0,0,1-.09-.83V71.72h-.51v-.55h.51v-1l.7-.42v1.45h.71v.55H147v2.42a1.09,1.09,0,0,0,0,.39.27.27,0,0,0,.12.14.54.54,0,0,0,.24,0Z"/><path class="cls-3" d="M151.19,74l.72.09a1.71,1.71,0,0,1-.63,1,2,2,0,0,1-1.19.35,1.85,1.85,0,0,1-1.44-.56,2.17,2.17,0,0,1-.54-1.57,2.31,2.31,0,0,1,.54-1.63,1.85,1.85,0,0,1,1.4-.57,1.77,1.77,0,0,1,1.36.56,2.27,2.27,0,0,1,.53,1.6,1.36,1.36,0,0,1,0,.18h-3.09a1.57,1.57,0,0,0,.39,1,1.15,1.15,0,0,0,.86.36,1,1,0,0,0,.66-.2A1.34,1.34,0,0,0,151.19,74Zm-2.31-1.13h2.31a1.47,1.47,0,0,0-.26-.79,1.09,1.09,0,0,0-.87-.41,1.11,1.11,0,0,0-.82.33A1.24,1.24,0,0,0,148.88,72.85Z"/><path class="cls-3" d="M152.51,74.08l.7-.11a1,1,0,0,0,.33.64,1.4,1.4,0,0,0,1.46,0,.61.61,0,0,0,.24-.47.42.42,0,0,0-.21-.37,3.52,3.52,0,0,0-.72-.24,6.18,6.18,0,0,1-1.07-.34,1,1,0,0,1-.45-.39,1,1,0,0,1-.16-.56,1,1,0,0,1,.13-.51,1.19,1.19,0,0,1,.34-.4,1.59,1.59,0,0,1,.45-.2,2,2,0,0,1,.61-.08,2.32,2.32,0,0,1,.86.14,1.17,1.17,0,0,1,.54.38,1.38,1.38,0,0,1,.24.64l-.68.09a.81.81,0,0,0-.28-.5,1,1,0,0,0-.63-.18,1.21,1.21,0,0,0-.69.16.48.48,0,0,0-.21.38.4.4,0,0,0,.09.25.64.64,0,0,0,.27.18,6.05,6.05,0,0,0,.62.18,8.83,8.83,0,0,1,1,.33,1,1,0,0,1,.46.37,1,1,0,0,1,.17.6,1.17,1.17,0,0,1-.21.66,1.24,1.24,0,0,1-.59.48,2,2,0,0,1-.87.17,2,2,0,0,1-1.23-.33A1.57,1.57,0,0,1,152.51,74.08Z"/><path class="cls-2" d="M14.58,89.35V82.9h1.3v6.45Z"/><path class="cls-2" d="M21.35,89.35H20.12V87A3.7,3.7,0,0,0,20,86a.67.67,0,0,0-.26-.35.75.75,0,0,0-.43-.12,1,1,0,0,0-.57.17.9.9,0,0,0-.35.47,3.66,3.66,0,0,0-.1,1.07v2.12H17.1V84.68h1.15v.68a1.86,1.86,0,0,1,1.53-.79,1.83,1.83,0,0,1,.75.15,1.14,1.14,0,0,1,.51.38,1.19,1.19,0,0,1,.24.52,3.54,3.54,0,0,1,.07.83Z"/><path class="cls-2" d="M26.88,89.35H25.74v-.69a1.84,1.84,0,0,1-.68.6,1.72,1.72,0,0,1-.78.19,1.75,1.75,0,0,1-1.38-.65A2.64,2.64,0,0,1,22.33,87a2.56,2.56,0,0,1,.56-1.8,1.82,1.82,0,0,1,1.41-.62,1.75,1.75,0,0,1,1.35.65V82.9h1.23Zm-3.29-2.44a2.22,2.22,0,0,0,.2,1.08.93.93,0,0,0,.84.49.88.88,0,0,0,.72-.37,1.66,1.66,0,0,0,.3-1.08,1.8,1.8,0,0,0-.29-1.16.92.92,0,0,0-.74-.35,1,1,0,0,0-.74.35A1.61,1.61,0,0,0,23.59,86.91Z"/><path class="cls-2" d="M28.1,84.05V82.9h1.24v1.15Zm0,5.3V84.68h1.24v4.67Z"/><path class="cls-2" d="M34.67,86.06l-1.22.22a.86.86,0,0,0-.28-.55.84.84,0,0,0-.56-.18.94.94,0,0,0-.74.31,1.68,1.68,0,0,0-.27,1.07,1.86,1.86,0,0,0,.28,1.17.9.9,0,0,0,.75.35.84.84,0,0,0,.57-.2,1.24,1.24,0,0,0,.32-.69l1.21.2A2.13,2.13,0,0,1,34,89a2.28,2.28,0,0,1-1.44.42,2.12,2.12,0,0,1-1.63-.64,2.95,2.95,0,0,1,0-3.59,2.18,2.18,0,0,1,1.65-.65,2.31,2.31,0,0,1,1.36.37A2.11,2.11,0,0,1,34.67,86.06Z"/><path class="cls-2" d="M36.53,86.1l-1.12-.2a1.76,1.76,0,0,1,.65-1,2.35,2.35,0,0,1,1.37-.33,3,3,0,0,1,1.23.2,1.24,1.24,0,0,1,.57.5,2.52,2.52,0,0,1,.16,1.1v1.44a5,5,0,0,0,.06.91,2.8,2.8,0,0,0,.22.63H38.44L38.32,89c0-.07,0-.12,0-.14a2.27,2.27,0,0,1-.68.46,2,2,0,0,1-.77.15,1.57,1.57,0,0,1-1.13-.39,1.29,1.29,0,0,1-.42-1,1.27,1.27,0,0,1,.19-.7,1.23,1.23,0,0,1,.53-.48,4.51,4.51,0,0,1,1-.29,5.6,5.6,0,0,0,1.2-.3v-.12a.66.66,0,0,0-.17-.51,1.08,1.08,0,0,0-.67-.15.84.84,0,0,0-.51.13A1,1,0,0,0,36.53,86.1Zm1.65,1q-.24.08-.75.18a2.4,2.4,0,0,0-.67.22.51.51,0,0,0-.24.43.58.58,0,0,0,.19.45.66.66,0,0,0,.49.19,1.06,1.06,0,0,0,.64-.22.73.73,0,0,0,.29-.41,2,2,0,0,0,0-.6Z"/><path class="cls-2" d="M44.89,89.35H43.75v-.69a1.84,1.84,0,0,1-.68.6,1.72,1.72,0,0,1-.78.19,1.75,1.75,0,0,1-1.38-.65A2.64,2.64,0,0,1,40.34,87a2.6,2.6,0,0,1,.55-1.8,1.85,1.85,0,0,1,1.41-.62,1.76,1.76,0,0,1,1.36.65V82.9h1.23ZM41.6,86.91A2.22,2.22,0,0,0,41.8,88a.93.93,0,0,0,.84.49.89.89,0,0,0,.72-.37,1.66,1.66,0,0,0,.3-1.08,1.8,1.8,0,0,0-.29-1.16.92.92,0,0,0-.74-.35,1,1,0,0,0-.74.35A1.61,1.61,0,0,0,41.6,86.91Z"/><path class="cls-2" d="M45.83,87a2.53,2.53,0,0,1,.3-1.19,2,2,0,0,1,.86-.88,2.46,2.46,0,0,1,1.24-.31,2.32,2.32,0,0,1,1.73.69A2.35,2.35,0,0,1,50.64,87,2.44,2.44,0,0,1,50,88.76a2.33,2.33,0,0,1-1.72.69A2.65,2.65,0,0,1,47,89.16a2,2,0,0,1-.88-.85A2.85,2.85,0,0,1,45.83,87Zm1.26.06a1.56,1.56,0,0,0,.33,1.07,1.07,1.07,0,0,0,.81.37,1,1,0,0,0,.81-.37A1.59,1.59,0,0,0,49.37,87,1.54,1.54,0,0,0,49,86a1,1,0,0,0-.81-.37,1,1,0,0,0-.81.37A1.55,1.55,0,0,0,47.09,87Z"/><path class="cls-2" d="M52.79,89.35H51.56V84.68H52.7v.66a2.2,2.2,0,0,1,.53-.62,1,1,0,0,1,.54-.15,1.52,1.52,0,0,1,.81.24l-.38,1.07a1.15,1.15,0,0,0-.58-.2.7.7,0,0,0-.44.14,1,1,0,0,0-.29.52,7.31,7.31,0,0,0-.1,1.56Z"/><path class="cls-2" d="M57.3,87.64l1.2-.15a1.11,1.11,0,0,0,.31.7.87.87,0,0,0,1.25,0,1.13,1.13,0,0,0,.26-.78,1.08,1.08,0,0,0-.25-.74.8.8,0,0,0-.61-.27,2.22,2.22,0,0,0-.57.09l.14-1a1.13,1.13,0,0,0,.76-.22.77.77,0,0,0,.26-.62.67.67,0,0,0-.7-.71.77.77,0,0,0-.54.22,1.09,1.09,0,0,0-.28.64l-1.13-.19a2.35,2.35,0,0,1,.35-.93,1.58,1.58,0,0,1,.67-.55,2.17,2.17,0,0,1,1-.2,1.91,1.91,0,0,1,1.46.58,1.47,1.47,0,0,1-.47,2.42,1.51,1.51,0,0,1,.88.53,1.56,1.56,0,0,1,.33,1A1.91,1.91,0,0,1,61,88.86,2.3,2.3,0,0,1,58,89,2,2,0,0,1,57.3,87.64Z"/><path class="cls-2" d="M62.85,85.91V84.68h1.24v1.23Zm0,3.44V88.11h1.24v1.24Z"/><path class="cls-3" d="M14.59,99.35V93.62h4.14v.68H15.35v1.75h3.17v.67H15.35v2h3.52v.68Z"/><path class="cls-3" d="M18.93,101l.13-.6a1.76,1.76,0,0,0,.33,0,.37.37,0,0,0,.32-.14,1.41,1.41,0,0,0,.11-.71V95.2h.7v4.37a2,2,0,0,1-.2,1.07.93.93,0,0,1-.84.39A2,2,0,0,1,18.93,101Zm.89-6.52v-.82h.7v.82Z"/><path class="cls-3" d="M21.8,99.35v-.8h.8v.8Z"/><path class="cls-3" d="M24,96v-.8h.8V96Zm0,3.35v-.8h.8v.8Z"/><path class="cls-3" d="M28.49,99.35V93.62h.76v5.73Z"/><path class="cls-3" d="M33.26,97.1v-.67h2.43v2.13a4.3,4.3,0,0,1-1.16.67,3.36,3.36,0,0,1-1.21.22,3.27,3.27,0,0,1-1.54-.36,2.43,2.43,0,0,1-1-1,3.38,3.38,0,0,1-.35-1.53A3.57,3.57,0,0,1,30.74,95a2.36,2.36,0,0,1,1-1.08,3.18,3.18,0,0,1,1.51-.35,3.1,3.1,0,0,1,1.12.2,2,2,0,0,1,.79.56,2.56,2.56,0,0,1,.43.94l-.68.19a2.47,2.47,0,0,0-.32-.69,1.29,1.29,0,0,0-.55-.4,2,2,0,0,0-.79-.15,2.26,2.26,0,0,0-.9.16,1.68,1.68,0,0,0-.61.41,2.48,2.48,0,0,0-.36.57,2.94,2.94,0,0,0-.22,1.15,2.86,2.86,0,0,0,.26,1.28,1.74,1.74,0,0,0,.77.77,2.34,2.34,0,0,0,1.07.25,2.45,2.45,0,0,0,1-.19,2.52,2.52,0,0,0,.71-.4V97.1Z"/><path class="cls-3" d="M36.17,99.35l2.2-5.73h.82l2.34,5.73h-.86L40,97.61H37.61L37,99.35ZM37.83,97h1.94l-.6-1.58c-.18-.48-.32-.88-.41-1.19a7.5,7.5,0,0,1-.3,1.1Z"/><path class="cls-3" d="M42.16,99.35V93.62H46.3v.68H42.91v1.75h3.17v.67H42.91v2h3.52v.68Z"/><path class="cls-3" d="M49.63,93.27l.52-1.1h.92l-.86,1.1Zm.2,6.08V93.62h.75v5.73Z"/><path class="cls-3" d="M51.83,99.35V95.2h.63v.59a1.5,1.5,0,0,1,1.32-.69,1.74,1.74,0,0,1,.69.14,1.1,1.1,0,0,1,.47.35,1.28,1.28,0,0,1,.22.52,3.67,3.67,0,0,1,0,.69v2.55h-.7V96.82a2,2,0,0,0-.08-.64.73.73,0,0,0-.29-.34,1,1,0,0,0-.49-.13,1.16,1.16,0,0,0-.78.29,1.39,1.39,0,0,0-.33,1.08v2.27Z"/><path class="cls-3" d="M59,99.35v-.53a1.29,1.29,0,0,1-1.16.62,1.64,1.64,0,0,1-.91-.27,1.89,1.89,0,0,1-.65-.77A2.63,2.63,0,0,1,56,97.28a3.11,3.11,0,0,1,.2-1.13,1.62,1.62,0,0,1,1.55-1.05,1.47,1.47,0,0,1,.67.16,1.56,1.56,0,0,1,.47.41v-2h.7v5.73Zm-2.22-2.07a1.84,1.84,0,0,0,.33,1.19,1,1,0,0,0,.8.39,1,1,0,0,0,.78-.37A1.75,1.75,0,0,0,59,97.33a2,2,0,0,0-.32-1.25,1,1,0,0,0-.81-.39,1,1,0,0,0-.79.38A1.89,1.89,0,0,0,56.75,97.28Z"/><path class="cls-3" d="M60.73,94.43v-.81h.71v.81Zm0,4.92V95.2h.71v4.15Z"/><path class="cls-3" d="M65.21,97.83l.7.09A1.84,1.84,0,0,1,65.33,99a1.71,1.71,0,0,1-1.15.4,1.78,1.78,0,0,1-1.37-.56,2.22,2.22,0,0,1-.52-1.59,3.07,3.07,0,0,1,.22-1.18,1.56,1.56,0,0,1,.68-.75,2,2,0,0,1,1-.26,1.73,1.73,0,0,1,1.11.35,1.57,1.57,0,0,1,.55,1l-.68.1a1.2,1.2,0,0,0-.35-.63.91.91,0,0,0-.6-.21,1.1,1.1,0,0,0-.86.38A1.78,1.78,0,0,0,63,97.27a1.86,1.86,0,0,0,.32,1.21,1,1,0,0,0,.84.38,1,1,0,0,0,.69-.25A1.24,1.24,0,0,0,65.21,97.83Z"/><path class="cls-3" d="M69.35,98l.72.09a1.74,1.74,0,0,1-.63,1,2,2,0,0,1-1.19.35,1.89,1.89,0,0,1-1.44-.56,2.17,2.17,0,0,1-.54-1.57,2.31,2.31,0,0,1,.54-1.63,1.85,1.85,0,0,1,1.4-.58,1.77,1.77,0,0,1,1.36.57,2.26,2.26,0,0,1,.53,1.59,1.42,1.42,0,0,1,0,.19H67a1.57,1.57,0,0,0,.39,1,1.15,1.15,0,0,0,.86.36,1.1,1.1,0,0,0,.66-.2A1.34,1.34,0,0,0,69.35,98ZM67,96.87h2.31a1.44,1.44,0,0,0-.26-.78,1.09,1.09,0,0,0-.87-.41,1.11,1.11,0,0,0-.82.33A1.24,1.24,0,0,0,67,96.87Z"/><path class="cls-3" d="M75.87,99.35v-.53a1.29,1.29,0,0,1-1.16.62,1.64,1.64,0,0,1-.91-.27,1.89,1.89,0,0,1-.65-.77,2.63,2.63,0,0,1-.23-1.12,2.92,2.92,0,0,1,.21-1.13,1.62,1.62,0,0,1,1.55-1.05,1.47,1.47,0,0,1,.67.16,1.56,1.56,0,0,1,.47.41v-2h.7v5.73Zm-2.22-2.07A1.84,1.84,0,0,0,74,98.47a1,1,0,0,0,.8.39,1,1,0,0,0,.78-.37,1.8,1.8,0,0,0,.32-1.16,2,2,0,0,0-.33-1.25,1,1,0,0,0-.8-.39,1,1,0,0,0-.79.38A1.89,1.89,0,0,0,73.65,97.28Z"/><path class="cls-3" d="M80.47,98l.72.09a1.74,1.74,0,0,1-.63,1,2,2,0,0,1-1.19.35,1.89,1.89,0,0,1-1.44-.56,2.17,2.17,0,0,1-.54-1.57,2.31,2.31,0,0,1,.54-1.63,1.85,1.85,0,0,1,1.4-.58,1.76,1.76,0,0,1,1.36.57,2.26,2.26,0,0,1,.53,1.59,1.42,1.42,0,0,1,0,.19H78.12a1.62,1.62,0,0,0,.39,1,1.15,1.15,0,0,0,.86.36,1.1,1.1,0,0,0,.66-.2A1.34,1.34,0,0,0,80.47,98Zm-2.31-1.14h2.32a1.44,1.44,0,0,0-.27-.78,1.07,1.07,0,0,0-.87-.41,1.12,1.12,0,0,0-.82.33A1.24,1.24,0,0,0,78.16,96.87Z"/><path class="cls-3" d="M84.17,99.69l.68.1a.65.65,0,0,0,.24.46,1.2,1.2,0,0,0,.72.2,1.26,1.26,0,0,0,.75-.2.93.93,0,0,0,.36-.54,4.56,4.56,0,0,0,0-.91,1.43,1.43,0,0,1-1.15.55,1.56,1.56,0,0,1-1.32-.62A2.4,2.4,0,0,1,84,97.25a2.67,2.67,0,0,1,.22-1.1,1.7,1.7,0,0,1,.62-.77,1.62,1.62,0,0,1,1-.28,1.48,1.48,0,0,1,1.21.6v-.5h.65v3.58a3.44,3.44,0,0,1-.2,1.38,1.44,1.44,0,0,1-.63.64,2.2,2.2,0,0,1-1,.23,2,2,0,0,1-1.2-.33A1.15,1.15,0,0,1,84.17,99.69Zm.58-2.49a1.78,1.78,0,0,0,.33,1.19,1,1,0,0,0,.81.37,1,1,0,0,0,.81-.37A1.74,1.74,0,0,0,87,97.22a1.68,1.68,0,0,0-.34-1.15,1,1,0,0,0-.81-.38,1,1,0,0,0-.8.38A1.68,1.68,0,0,0,84.75,97.2Z"/><path class="cls-3" d="M91.59,98l.73.09a1.81,1.81,0,0,1-.64,1,2,2,0,0,1-1.19.35,1.89,1.89,0,0,1-1.44-.56,2.17,2.17,0,0,1-.54-1.57,2.31,2.31,0,0,1,.54-1.63,1.85,1.85,0,0,1,1.4-.58,1.76,1.76,0,0,1,1.36.57,2.26,2.26,0,0,1,.53,1.59,1.42,1.42,0,0,1,0,.19H89.24a1.62,1.62,0,0,0,.39,1,1.21,1.21,0,0,0,1.53.16A1.4,1.4,0,0,0,91.59,98Zm-2.31-1.14H91.6a1.36,1.36,0,0,0-.27-.78,1.07,1.07,0,0,0-.87-.41,1.1,1.1,0,0,0-.81.33A1.25,1.25,0,0,0,89.28,96.87Z"/><path class="cls-3" d="M92.92,98.11l.69-.11a1,1,0,0,0,.33.64,1.14,1.14,0,0,0,.75.22,1.07,1.07,0,0,0,.72-.2.59.59,0,0,0,.23-.46.42.42,0,0,0-.21-.37,2.66,2.66,0,0,0-.72-.24,6.18,6.18,0,0,1-1.07-.34,1,1,0,0,1-.45-.39A1.1,1.1,0,0,1,93,96.3a1.07,1.07,0,0,1,.13-.51,1.22,1.22,0,0,1,.35-.4,1.39,1.39,0,0,1,.44-.2,2,2,0,0,1,.61-.09,2.5,2.5,0,0,1,.86.14,1.2,1.2,0,0,1,.54.39,1.5,1.5,0,0,1,.25.64l-.69.09a.75.75,0,0,0-.27-.5,1,1,0,0,0-.64-.18,1.21,1.21,0,0,0-.69.16.47.47,0,0,0-.21.38.36.36,0,0,0,.09.24.62.62,0,0,0,.27.19l.62.18a6.83,6.83,0,0,1,1,.33.94.94,0,0,1,.46.37,1,1,0,0,1,.17.6,1.24,1.24,0,0,1-.2.66,1.34,1.34,0,0,1-.59.48,2.23,2.23,0,0,1-.88.17,1.9,1.9,0,0,1-1.23-.34A1.56,1.56,0,0,1,92.92,98.11Z"/><path class="cls-3" d="M98.73,98.72l.1.62a2.61,2.61,0,0,1-.53.06,1.21,1.21,0,0,1-.59-.12.71.71,0,0,1-.3-.32,2.81,2.81,0,0,1-.08-.83V95.74h-.52V95.2h.52v-1l.7-.42V95.2h.7v.54H98v2.43a1.55,1.55,0,0,0,0,.39.37.37,0,0,0,.12.13.43.43,0,0,0,.24,0A1.84,1.84,0,0,0,98.73,98.72Z"/><path class="cls-3" d="M99.42,94.43v-.81h.71v.81Zm0,4.92V95.2h.71v4.15Z"/><path class="cls-3" d="M100.94,97.27a2.11,2.11,0,0,1,.64-1.7,1.91,1.91,0,0,1,1.3-.47,1.88,1.88,0,0,1,1.4.56,2.15,2.15,0,0,1,.54,1.55,2.71,2.71,0,0,1-.24,1.26,1.68,1.68,0,0,1-.7.72,2,2,0,0,1-1,.25,1.88,1.88,0,0,1-1.41-.56A2.26,2.26,0,0,1,100.94,97.27Zm.72,0a1.81,1.81,0,0,0,.35,1.2,1.11,1.11,0,0,0,.87.39,1.09,1.09,0,0,0,.87-.4,1.8,1.8,0,0,0,.35-1.21,1.76,1.76,0,0,0-.35-1.17,1.17,1.17,0,0,0-1.74,0A1.76,1.76,0,0,0,101.66,97.27Zm.83-2.59.52-1.09h.92l-.86,1.09Z"/><path class="cls-3" d="M105.65,99.35V95.2h.63v.59a1.49,1.49,0,0,1,1.32-.69,1.74,1.74,0,0,1,.69.14,1.1,1.1,0,0,1,.47.35,1.28,1.28,0,0,1,.22.52,3.67,3.67,0,0,1,0,.69v2.55h-.7V96.82a1.74,1.74,0,0,0-.09-.64.68.68,0,0,0-.29-.34,1,1,0,0,0-.49-.13,1.12,1.12,0,0,0-.77.29,1.39,1.39,0,0,0-.33,1.08v2.27Z"/><path class="cls-3" d="M115,98.83a2.35,2.35,0,0,1-.76.47,2.15,2.15,0,0,1-.77.14,1.5,1.5,0,0,1-1-.33,1.11,1.11,0,0,1-.37-.86,1.12,1.12,0,0,1,.14-.55,1.1,1.1,0,0,1,.36-.41,1.69,1.69,0,0,1,.51-.23,6.21,6.21,0,0,1,.62-.1,6.1,6.1,0,0,0,1.26-.25v-.18a.76.76,0,0,0-.2-.61,1.57,1.57,0,0,0-1.53-.06,1,1,0,0,0-.35.62l-.69-.1a1.72,1.72,0,0,1,.31-.71,1.36,1.36,0,0,1,.62-.42,2.73,2.73,0,0,1,.94-.15,2.62,2.62,0,0,1,.87.13,1.11,1.11,0,0,1,.48.31,1.06,1.06,0,0,1,.22.48,3.25,3.25,0,0,1,0,.65v.94a10.35,10.35,0,0,0,0,1.24,1.58,1.58,0,0,0,.18.5h-.73A1.37,1.37,0,0,1,115,98.83ZM115,97.26a4.75,4.75,0,0,1-1.15.27,2.64,2.64,0,0,0-.61.14.58.58,0,0,0-.28.23.56.56,0,0,0-.1.33.59.59,0,0,0,.21.47.91.91,0,0,0,.63.19,1.43,1.43,0,0,0,.72-.18,1.06,1.06,0,0,0,.46-.48,1.65,1.65,0,0,0,.12-.71Z"/><path class="cls-3" d="M116.77,99.35V95.2h.63v.58a1.44,1.44,0,0,1,.52-.49,1.48,1.48,0,0,1,.74-.19,1.35,1.35,0,0,1,.75.2,1,1,0,0,1,.42.53,1.5,1.5,0,0,1,1.28-.73,1.26,1.26,0,0,1,1,.35,1.45,1.45,0,0,1,.33,1v2.85h-.7V96.73a1.73,1.73,0,0,0-.07-.6.53.53,0,0,0-.25-.3.74.74,0,0,0-.42-.12,1,1,0,0,0-.72.29,1.28,1.28,0,0,0-.29.94v2.41h-.71v-2.7a1.13,1.13,0,0,0-.17-.7.63.63,0,0,0-.56-.24,1.07,1.07,0,0,0-.55.16.9.9,0,0,0-.37.46,2.72,2.72,0,0,0-.11.86v2.16Z"/><path class="cls-3" d="M124.08,99.35h-.65V93.62h.7v2a1.41,1.41,0,0,1,1.14-.56,1.76,1.76,0,0,1,.72.16,1.54,1.54,0,0,1,.57.43,2.17,2.17,0,0,1,.34.68,2.84,2.84,0,0,1,.13.84,2.39,2.39,0,0,1-.53,1.65,1.64,1.64,0,0,1-1.27.58,1.31,1.31,0,0,1-1.15-.61Zm0-2.11a2.09,2.09,0,0,0,.21,1.08,1,1,0,0,0,1.69.14,1.78,1.78,0,0,0,.34-1.19,1.89,1.89,0,0,0-.32-1.2,1,1,0,0,0-.78-.39,1,1,0,0,0-.8.4A1.8,1.8,0,0,0,124.07,97.24Z"/><path class="cls-3" d="M127.89,94.43v-.81h.7v.81Zm0,4.92V95.2h.7v4.15Z"/><path class="cls-3" d="M132.5,98l.73.09a1.81,1.81,0,0,1-.64,1,2,2,0,0,1-1.19.35,1.89,1.89,0,0,1-1.44-.56,2.17,2.17,0,0,1-.54-1.57,2.31,2.31,0,0,1,.54-1.63,1.85,1.85,0,0,1,1.4-.58,1.76,1.76,0,0,1,1.36.57,2.26,2.26,0,0,1,.53,1.59v.19h-3.1a1.62,1.62,0,0,0,.39,1,1.21,1.21,0,0,0,1.53.16A1.4,1.4,0,0,0,132.5,98Zm-2.31-1.14h2.32a1.36,1.36,0,0,0-.27-.78,1.07,1.07,0,0,0-.87-.41,1.1,1.1,0,0,0-.81.33A1.25,1.25,0,0,0,130.19,96.87Z"/><path class="cls-3" d="M134.11,99.35V95.2h.63v.59a1.5,1.5,0,0,1,1.32-.69,1.74,1.74,0,0,1,.69.14,1.1,1.1,0,0,1,.47.35,1.28,1.28,0,0,1,.22.52,3.67,3.67,0,0,1,0,.69v2.55h-.7V96.82a1.74,1.74,0,0,0-.09-.64.68.68,0,0,0-.29-.34,1,1,0,0,0-.49-.13,1.13,1.13,0,0,0-.77.29,1.39,1.39,0,0,0-.33,1.08v2.27Z"/><path class="cls-3" d="M140.09,98.72l.1.62a2.61,2.61,0,0,1-.53.06,1.21,1.21,0,0,1-.59-.12.71.71,0,0,1-.3-.32,2.49,2.49,0,0,1-.08-.83V95.74h-.52V95.2h.52v-1l.7-.42V95.2h.7v.54h-.7v2.43a1.55,1.55,0,0,0,0,.39.37.37,0,0,0,.12.13.43.43,0,0,0,.24,0A1.9,1.9,0,0,0,140.09,98.72Z"/><path class="cls-3" d="M143.49,98.83a2.42,2.42,0,0,1-.75.47,2.25,2.25,0,0,1-.78.14,1.5,1.5,0,0,1-1.05-.33,1.11,1.11,0,0,1-.37-.86,1.12,1.12,0,0,1,.14-.55,1.1,1.1,0,0,1,.36-.41,1.69,1.69,0,0,1,.51-.23,6.21,6.21,0,0,1,.62-.1,6.1,6.1,0,0,0,1.26-.25v-.18a.76.76,0,0,0-.2-.61,1.57,1.57,0,0,0-1.53-.06,1.08,1.08,0,0,0-.35.62l-.69-.1a1.86,1.86,0,0,1,.31-.71,1.42,1.42,0,0,1,.62-.42,2.73,2.73,0,0,1,.94-.15,2.57,2.57,0,0,1,.87.13,1.22,1.22,0,0,1,.49.31,1.17,1.17,0,0,1,.21.48,3.25,3.25,0,0,1,0,.65v.94a10.35,10.35,0,0,0,0,1.24,1.58,1.58,0,0,0,.18.5h-.73A1.37,1.37,0,0,1,143.49,98.83Zm-.06-1.57a4.75,4.75,0,0,1-1.15.27,2.64,2.64,0,0,0-.61.14.63.63,0,0,0-.28.23.56.56,0,0,0-.1.33.59.59,0,0,0,.21.47.91.91,0,0,0,.63.19,1.43,1.43,0,0,0,.72-.18,1.14,1.14,0,0,0,.47-.48,1.85,1.85,0,0,0,.11-.71Z"/><path class="cls-3" d="M145.21,99.35V93.62h.71v5.73Z"/><path class="cls-3" d="M152.07,98l.73.09a1.81,1.81,0,0,1-.64,1,2,2,0,0,1-1.19.35,1.91,1.91,0,0,1-1.44-.56,2.16,2.16,0,0,1-.53-1.57,2.3,2.3,0,0,1,.53-1.63,1.85,1.85,0,0,1,1.4-.58,1.76,1.76,0,0,1,1.36.57,2.26,2.26,0,0,1,.53,1.59v.19h-3.1a1.62,1.62,0,0,0,.39,1,1.21,1.21,0,0,0,1.53.16A1.4,1.4,0,0,0,152.07,98Zm-2.31-1.14h2.32a1.36,1.36,0,0,0-.27-.78,1.07,1.07,0,0,0-.87-.41,1.1,1.1,0,0,0-.81.33A1.25,1.25,0,0,0,149.76,96.87Z"/><path class="cls-3" d="M153.68,99.35V95.2h.63v.58a1.44,1.44,0,0,1,.52-.49,1.48,1.48,0,0,1,.74-.19,1.35,1.35,0,0,1,.75.2,1,1,0,0,1,.42.53A1.5,1.5,0,0,1,158,95.1a1.26,1.26,0,0,1,.95.35,1.45,1.45,0,0,1,.33,1v2.85h-.7V96.73a1.73,1.73,0,0,0-.07-.6.53.53,0,0,0-.25-.3.74.74,0,0,0-.42-.12,1,1,0,0,0-.72.29,1.28,1.28,0,0,0-.29.94v2.41h-.71v-2.7A1.13,1.13,0,0,0,156,96a.63.63,0,0,0-.56-.24,1.07,1.07,0,0,0-.55.16.84.84,0,0,0-.36.46,2.42,2.42,0,0,0-.12.86v2.16Z"/><path class="cls-3" d="M160.34,100.94V95.2H161v.54a1.57,1.57,0,0,1,.52-.48,1.46,1.46,0,0,1,.69-.16,1.57,1.57,0,0,1,.93.28,1.7,1.7,0,0,1,.62.77,3,3,0,0,1,.2,1.09,2.81,2.81,0,0,1-.22,1.15,1.77,1.77,0,0,1-.67.78,1.69,1.69,0,0,1-.91.27,1.34,1.34,0,0,1-.64-.15,1.49,1.49,0,0,1-.45-.37v2ZM161,97.3a1.85,1.85,0,0,0,.32,1.18,1,1,0,0,0,1.59,0,1.92,1.92,0,0,0,.34-1.23,1.82,1.82,0,0,0-.33-1.19,1,1,0,0,0-1.57,0A1.86,1.86,0,0,0,161,97.3Z"/><path class="cls-3" d="M165,99.35v-.8h.8v.8Z"/><path class="cls-3" d="M26,10.36V9.27h2.8v2.57a3.6,3.6,0,0,1-1.18.69,4.14,4.14,0,0,1-1.58.3,3.55,3.55,0,0,1-1.76-.42,2.76,2.76,0,0,1-1.13-1.21,4,4,0,0,1-.37-1.72,3.75,3.75,0,0,1,.42-1.79,2.85,2.85,0,0,1,1.23-1.2A3.41,3.41,0,0,1,26,6.17a3.07,3.07,0,0,1,1.88.51,2.27,2.27,0,0,1,.87,1.39l-1.3.24A1.34,1.34,0,0,0,27,7.56,1.56,1.56,0,0,0,26,7.28a1.79,1.79,0,0,0-1.35.54,2.29,2.29,0,0,0-.5,1.61,2.52,2.52,0,0,0,.51,1.72,1.7,1.7,0,0,0,1.33.57,2.17,2.17,0,0,0,.82-.16,2.55,2.55,0,0,0,.71-.39v-.81Z"/><path class="cls-3" d="M32.73,11.24l1.23.21a2,2,0,0,1-.74,1,2.28,2.28,0,0,1-1.29.35,2.08,2.08,0,0,1-1.8-.79,2.76,2.76,0,0,1-.46-1.61,2.55,2.55,0,0,1,.61-1.82A2,2,0,0,1,31.81,8a2.09,2.09,0,0,1,1.65.69A3,3,0,0,1,34,10.75H30.94a1.2,1.2,0,0,0,.3.85.9.9,0,0,0,.71.31.76.76,0,0,0,.49-.16A1,1,0,0,0,32.73,11.24ZM32.8,10a1.14,1.14,0,0,0-.27-.81.84.84,0,0,0-.64-.28.87.87,0,0,0-.67.29A1.14,1.14,0,0,0,31,10Z"/><path class="cls-3" d="M34.6,11.39l1.24-.19a.89.89,0,0,0,.32.55,1.06,1.06,0,0,0,.68.19,1.19,1.19,0,0,0,.72-.18.38.38,0,0,0,.16-.33.32.32,0,0,0-.09-.23,1,1,0,0,0-.41-.16,6.58,6.58,0,0,1-1.89-.6,1.23,1.23,0,0,1-.56-1,1.28,1.28,0,0,1,.48-1A2.23,2.23,0,0,1,36.74,8a2.65,2.65,0,0,1,1.42.31,1.58,1.58,0,0,1,.64.93l-1.16.21A.69.69,0,0,0,37.35,9a1,1,0,0,0-.59-.15,1.34,1.34,0,0,0-.7.14.29.29,0,0,0-.14.25.26.26,0,0,0,.12.22,4.74,4.74,0,0,0,1.16.35,3.4,3.4,0,0,1,1.37.55,1.13,1.13,0,0,1,.39.92,1.41,1.41,0,0,1-.54,1.1,2.33,2.33,0,0,1-1.58.46,2.58,2.58,0,0,1-1.51-.39A1.77,1.77,0,0,1,34.6,11.39Z"/><path class="cls-3" d="M42.18,8.06V9h-.84v1.88a6.69,6.69,0,0,0,0,.67.33.33,0,0,0,.11.15.31.31,0,0,0,.21.07,1.58,1.58,0,0,0,.5-.12l.1,1a2.47,2.47,0,0,1-1,.18,1.57,1.57,0,0,1-.6-.11,1,1,0,0,1-.4-.29,1.18,1.18,0,0,1-.17-.48,5.57,5.57,0,0,1,0-.87V9h-.57v-1h.57V7.13l1.24-.72V8.06Z"/><path class="cls-3" d="M43,7.43V6.28h1.23V7.43Zm0,5.3V8.06h1.23v4.67Z"/><path class="cls-3" d="M45.25,10.33a2.54,2.54,0,0,1,.31-1.19,2,2,0,0,1,.86-.88A2.46,2.46,0,0,1,47.66,8a2.32,2.32,0,0,1,1.73.69,2.39,2.39,0,0,1,.68,1.74,2.41,2.41,0,0,1-.68,1.75,2.3,2.3,0,0,1-1.72.7,2.78,2.78,0,0,1-1.23-.29,2,2,0,0,1-.88-.85A2.85,2.85,0,0,1,45.25,10.33Zm1.27.06a1.56,1.56,0,0,0,.33,1.07,1.09,1.09,0,0,0,1.62,0,1.59,1.59,0,0,0,.33-1.08,1.52,1.52,0,0,0-.33-1.05,1.07,1.07,0,0,0-1.62,0A1.53,1.53,0,0,0,46.52,10.39Z"/><path class="cls-3" d="M55.28,12.73H54.05V10.34a3.7,3.7,0,0,0-.08-1A.67.67,0,0,0,53.71,9a.75.75,0,0,0-.43-.12,1,1,0,0,0-.57.17.9.9,0,0,0-.35.47,3.66,3.66,0,0,0-.1,1.07v2.12H51V8.06h1.15v.68A1.87,1.87,0,0,1,53.71,8a1.79,1.79,0,0,1,.75.15,1.14,1.14,0,0,1,.51.38,1.2,1.2,0,0,1,.24.51,3.6,3.6,0,0,1,.07.83Z"/><path class="cls-3" d="M57.46,9.48l-1.12-.2a1.68,1.68,0,0,1,.65-1A2.33,2.33,0,0,1,58.36,8a3,3,0,0,1,1.23.2,1.18,1.18,0,0,1,.57.5,2.52,2.52,0,0,1,.16,1.1v1.44a5,5,0,0,0,.06.91,2.8,2.8,0,0,0,.22.63H59.37l-.12-.37c0-.07,0-.12,0-.14a2.48,2.48,0,0,1-.68.46,2,2,0,0,1-.77.15,1.61,1.61,0,0,1-1.14-.39,1.32,1.32,0,0,1-.41-1,1.27,1.27,0,0,1,.19-.7,1.18,1.18,0,0,1,.53-.48,4.51,4.51,0,0,1,1-.29,7.18,7.18,0,0,0,1.2-.3V9.56a.63.63,0,0,0-.18-.51,1,1,0,0,0-.66-.15.84.84,0,0,0-.51.13A.81.81,0,0,0,57.46,9.48Zm1.65,1a5.62,5.62,0,0,1-.75.19,2.4,2.4,0,0,0-.67.22.52.52,0,0,0-.25.43.59.59,0,0,0,.2.45.66.66,0,0,0,.49.19,1.06,1.06,0,0,0,.64-.22.78.78,0,0,0,.29-.41,2.45,2.45,0,0,0,0-.6Z"/><path class="cls-3" d="M62.72,12.73H61.49V8.06h1.14v.66a2.2,2.2,0,0,1,.53-.62A1,1,0,0,1,63.7,8a1.52,1.52,0,0,1,.81.24l-.38,1.07a1.12,1.12,0,0,0-.58-.2.72.72,0,0,0-.44.14,1,1,0,0,0-.28.52,7.09,7.09,0,0,0-.11,1.56Z"/><path class="cls-3" d="M67.54,12.73V6.28h1.24v6.45Z"/><path class="cls-3" d="M71,9.48l-1.12-.2a1.68,1.68,0,0,1,.65-1A2.33,2.33,0,0,1,71.87,8a3,3,0,0,1,1.23.2,1.18,1.18,0,0,1,.57.5,2.52,2.52,0,0,1,.16,1.1v1.44a5,5,0,0,0,.06.91,2.8,2.8,0,0,0,.22.63H72.88l-.12-.37a1.19,1.19,0,0,1,0-.14,2.63,2.63,0,0,1-.68.46,2,2,0,0,1-.77.15,1.61,1.61,0,0,1-1.14-.39,1.32,1.32,0,0,1-.41-1,1.27,1.27,0,0,1,.19-.7,1.18,1.18,0,0,1,.53-.48,4.34,4.34,0,0,1,1-.29,7.18,7.18,0,0,0,1.2-.3V9.56a.63.63,0,0,0-.18-.51,1,1,0,0,0-.66-.15.84.84,0,0,0-.51.13A.81.81,0,0,0,71,9.48Zm1.65,1a5.62,5.62,0,0,1-.75.19,2.28,2.28,0,0,0-.67.22.5.5,0,0,0-.25.43.59.59,0,0,0,.2.45.66.66,0,0,0,.49.19,1.08,1.08,0,0,0,.64-.22.78.78,0,0,0,.29-.41,2.45,2.45,0,0,0,.05-.6Z"/><path class="cls-3" d="M77.11,11.39l1.24-.19a.94.94,0,0,0,.32.55,1.08,1.08,0,0,0,.68.19,1.19,1.19,0,0,0,.72-.18.38.38,0,0,0,.16-.33.31.31,0,0,0-.08-.23,1,1,0,0,0-.42-.16,6.82,6.82,0,0,1-1.89-.6,1.22,1.22,0,0,1-.55-1,1.3,1.3,0,0,1,.47-1A2.23,2.23,0,0,1,79.25,8a2.65,2.65,0,0,1,1.42.31,1.64,1.64,0,0,1,.65.93l-1.17.21A.68.68,0,0,0,79.87,9a1,1,0,0,0-.6-.15,1.36,1.36,0,0,0-.7.14.29.29,0,0,0-.14.25.25.25,0,0,0,.13.22,4.59,4.59,0,0,0,1.15.35,3.39,3.39,0,0,1,1.38.55,1.16,1.16,0,0,1,.38.92,1.44,1.44,0,0,1-.53,1.1,2.38,2.38,0,0,1-1.59.46,2.6,2.6,0,0,1-1.51-.39A1.77,1.77,0,0,1,77.11,11.39Z"/><path class="cls-3" d="M85.26,11.24l1.23.21a2.06,2.06,0,0,1-.75,1,2.24,2.24,0,0,1-1.28.35,2.08,2.08,0,0,1-1.8-.79,2.69,2.69,0,0,1-.47-1.61,2.6,2.6,0,0,1,.61-1.82A2,2,0,0,1,84.33,8,2.07,2.07,0,0,1,86,8.64a3,3,0,0,1,.57,2.11H83.46a1.25,1.25,0,0,0,.3.85.92.92,0,0,0,.71.31.74.74,0,0,0,.49-.16A1,1,0,0,0,85.26,11.24ZM85.33,10a1.15,1.15,0,0,0-.28-.81.84.84,0,0,0-.64-.28.88.88,0,0,0-.67.29,1.18,1.18,0,0,0-.26.8Z"/><path class="cls-3" d="M87.45,13l1.41.17a.44.44,0,0,0,.16.34.91.91,0,0,0,.55.13,1.41,1.41,0,0,0,.73-.14.58.58,0,0,0,.24-.31,1.83,1.83,0,0,0,.06-.57V12a1.68,1.68,0,0,1-1.4.76,1.74,1.74,0,0,1-1.49-.8,2.75,2.75,0,0,1-.43-1.56,2.58,2.58,0,0,1,.57-1.8A1.81,1.81,0,0,1,89.25,8a1.72,1.72,0,0,1,1.43.76V8.06h1.16v4.19a4.13,4.13,0,0,1-.14,1.23,1.54,1.54,0,0,1-.38.64,1.75,1.75,0,0,1-.66.37,3.72,3.72,0,0,1-1,.13,2.68,2.68,0,0,1-1.68-.41,1.27,1.27,0,0,1-.5-1A.86.86,0,0,1,87.45,13Zm1.1-2.73a1.62,1.62,0,0,0,.29,1.08.89.89,0,0,0,.71.35,1,1,0,0,0,.76-.36,1.5,1.5,0,0,0,.31-1,1.62,1.62,0,0,0-.3-1.08,1,1,0,0,0-.75-.35.9.9,0,0,0-.73.34A1.58,1.58,0,0,0,88.55,10.3Z"/><path class="cls-3" d="M96.13,12.73V12a1.83,1.83,0,0,1-.67.59,1.93,1.93,0,0,1-.88.21,1.69,1.69,0,0,1-.84-.21A1.17,1.17,0,0,1,93.2,12,2.56,2.56,0,0,1,93,11V8.06h1.24V10.2a6.78,6.78,0,0,0,.06,1.21.69.69,0,0,0,.25.35.76.76,0,0,0,.46.13,1,1,0,0,0,.57-.17.93.93,0,0,0,.34-.43A5.23,5.23,0,0,0,96,10v-2h1.24v4.67Z"/><path class="cls-3" d="M99.74,12.73H98.5V8.06h1.15v.66a2.05,2.05,0,0,1,.53-.62,1,1,0,0,1,.53-.15,1.56,1.56,0,0,1,.82.24l-.39,1.07a1.09,1.09,0,0,0-.58-.2.72.72,0,0,0-.44.14,1,1,0,0,0-.28.52,7.31,7.31,0,0,0-.1,1.56Z"/><path class="cls-3" d="M102.06,7.43V6.28h1.23V7.43Zm0,5.3V8.06h1.23v4.67Z"/><path class="cls-3" d="M108.84,12.73h-1.15V12a1.9,1.9,0,0,1-.67.6,1.73,1.73,0,0,1-.79.19,1.81,1.81,0,0,1-1.38-.65,2.64,2.64,0,0,1-.57-1.81,2.6,2.6,0,0,1,.56-1.8A1.82,1.82,0,0,1,106.25,8a1.75,1.75,0,0,1,1.35.65V6.28h1.24Zm-3.3-2.44a2.09,2.09,0,0,0,.21,1.08,1,1,0,0,0,.83.49.92.92,0,0,0,.73-.37,1.66,1.66,0,0,0,.3-1.08,1.86,1.86,0,0,0-.29-1.16.94.94,0,0,0-.74-.35.91.91,0,0,0-.74.35A1.56,1.56,0,0,0,105.54,10.29Z"/><path class="cls-3" d="M111,9.48l-1.12-.2a1.68,1.68,0,0,1,.65-1A2.35,2.35,0,0,1,111.88,8a3,3,0,0,1,1.23.2,1.18,1.18,0,0,1,.57.5,2.52,2.52,0,0,1,.16,1.1v1.44a5,5,0,0,0,.06.91,2.8,2.8,0,0,0,.22.63h-1.22l-.12-.37c0-.07,0-.12,0-.14a2.48,2.48,0,0,1-.68.46,2,2,0,0,1-.77.15,1.57,1.57,0,0,1-1.13-.39,1.29,1.29,0,0,1-.42-1,1.27,1.27,0,0,1,.19-.7,1.23,1.23,0,0,1,.53-.48,4.51,4.51,0,0,1,1-.29,7.18,7.18,0,0,0,1.2-.3V9.56a.66.66,0,0,0-.17-.51,1.08,1.08,0,0,0-.67-.15.84.84,0,0,0-.51.13A.81.81,0,0,0,111,9.48Zm1.65,1a5.62,5.62,0,0,1-.75.19,2.4,2.4,0,0,0-.67.22.51.51,0,0,0-.24.43.58.58,0,0,0,.19.45.66.66,0,0,0,.49.19,1.06,1.06,0,0,0,.64-.22.73.73,0,0,0,.29-.41,2,2,0,0,0,0-.6Z"/><path class="cls-3" d="M119.34,12.73h-1.15V12a1.9,1.9,0,0,1-.67.6,1.72,1.72,0,0,1-.78.19,1.78,1.78,0,0,1-1.38-.65,2.64,2.64,0,0,1-.58-1.81,2.6,2.6,0,0,1,.56-1.8A1.82,1.82,0,0,1,116.75,8a1.77,1.77,0,0,1,1.36.65V6.28h1.23Zm-3.29-2.44a2.11,2.11,0,0,0,.2,1.08,1,1,0,0,0,.84.49.92.92,0,0,0,.72-.37,1.66,1.66,0,0,0,.3-1.08,1.86,1.86,0,0,0-.29-1.16,1,1,0,0,0-1.48,0A1.56,1.56,0,0,0,116.05,10.29Z"/><path class="cls-3" d="M46.25,20.33a2.43,2.43,0,0,1,.31-1.19,2,2,0,0,1,.85-.88A2.52,2.52,0,0,1,48.66,18a2.32,2.32,0,0,1,1.73.69,2.57,2.57,0,0,1,0,3.49,2.27,2.27,0,0,1-1.72.7,2.77,2.77,0,0,1-1.22-.29,2,2,0,0,1-.88-.85A2.73,2.73,0,0,1,46.25,20.33Zm1.27.06a1.56,1.56,0,0,0,.33,1.07,1.09,1.09,0,0,0,1.62,0,1.59,1.59,0,0,0,.33-1.08,1.52,1.52,0,0,0-.33-1.05,1.07,1.07,0,0,0-1.62,0A1.53,1.53,0,0,0,47.52,20.39Z"/><path class="cls-3" d="M52,18.06h1.15v.68a1.76,1.76,0,0,1,.61-.57,1.73,1.73,0,0,1,.85-.22,1.8,1.8,0,0,1,1.38.64,2.64,2.64,0,0,1,.56,1.78A2.64,2.64,0,0,1,56,22.18a1.78,1.78,0,0,1-1.38.65,1.6,1.6,0,0,1-.7-.15,2.47,2.47,0,0,1-.66-.53V24.5H52Zm1.22,2.25a1.88,1.88,0,0,0,.31,1.17,1,1,0,0,0,.76.37.89.89,0,0,0,.72-.34,1.79,1.79,0,0,0,.29-1.14,1.69,1.69,0,0,0-.3-1.09,1,1,0,0,0-1.48,0A1.54,1.54,0,0,0,53.22,20.31Z"/><path class="cls-3" d="M60.24,21.24l1.23.21a2.06,2.06,0,0,1-.75,1,2.27,2.27,0,0,1-1.28.35A2.09,2.09,0,0,1,57.63,22a2.76,2.76,0,0,1-.46-1.61,2.55,2.55,0,0,1,.61-1.82A2,2,0,0,1,59.31,18a2.09,2.09,0,0,1,1.65.69,3,3,0,0,1,.57,2.11H58.44a1.25,1.25,0,0,0,.3.85.9.9,0,0,0,.71.31.76.76,0,0,0,.49-.16A1,1,0,0,0,60.24,21.24ZM60.31,20a1.15,1.15,0,0,0-.28-.81.84.84,0,0,0-.64-.28.88.88,0,0,0-.67.29,1.14,1.14,0,0,0-.26.8Z"/><path class="cls-3" d="M63.72,22.73H62.49V18.06h1.14v.66a2.05,2.05,0,0,1,.53-.62A1,1,0,0,1,64.7,18a1.52,1.52,0,0,1,.81.24l-.38,1.07a1.12,1.12,0,0,0-.58-.2.7.7,0,0,0-.44.14,1,1,0,0,0-.29.52,7.31,7.31,0,0,0-.1,1.56Z"/><path class="cls-3" d="M67,19.48l-1.12-.2a1.78,1.78,0,0,1,.65-1A2.37,2.37,0,0,1,67.86,18a2.92,2.92,0,0,1,1.23.2,1.18,1.18,0,0,1,.57.5,2.48,2.48,0,0,1,.17,1.1v1.44a5.23,5.23,0,0,0,.05.91,2.88,2.88,0,0,0,.23.63H68.87c0-.09-.07-.21-.11-.37a.93.93,0,0,0-.05-.14,2.43,2.43,0,0,1-.67.46,2,2,0,0,1-.77.15,1.61,1.61,0,0,1-1.14-.39,1.28,1.28,0,0,1-.41-1,1.35,1.35,0,0,1,.18-.7,1.29,1.29,0,0,1,.53-.48,4.63,4.63,0,0,1,1-.29,7.77,7.77,0,0,0,1.2-.3v-.12a.63.63,0,0,0-.18-.51,1.07,1.07,0,0,0-.66-.15.89.89,0,0,0-.52.13A.93.93,0,0,0,67,19.48Zm1.66,1a5.45,5.45,0,0,1-.76.19,2.53,2.53,0,0,0-.67.22.51.51,0,0,0-.24.43.58.58,0,0,0,.19.45.68.68,0,0,0,.5.19,1,1,0,0,0,.63-.22.8.8,0,0,0,.3-.41,2.45,2.45,0,0,0,.05-.6Z"/><path class="cls-3" d="M75.12,19.44l-1.22.22a.88.88,0,0,0-.28-.55.87.87,0,0,0-.57-.19.93.93,0,0,0-.73.32A1.6,1.6,0,0,0,72,20.31a1.93,1.93,0,0,0,.28,1.17.92.92,0,0,0,.75.34.8.8,0,0,0,.58-.2,1.17,1.17,0,0,0,.31-.68l1.22.2a2.14,2.14,0,0,1-.73,1.26,2.21,2.21,0,0,1-1.44.43,2.11,2.11,0,0,1-1.63-.65,2.51,2.51,0,0,1-.61-1.78,2.55,2.55,0,0,1,.61-1.8,2.53,2.53,0,0,1,3-.28A2,2,0,0,1,75.12,19.44Z"/><path class="cls-3" d="M76.05,17.43V16.28h1.24v1.15Zm0,5.3V18.06h1.24v4.67Z"/><path class="cls-3" d="M78.27,20.33a2.53,2.53,0,0,1,.3-1.19,2,2,0,0,1,.86-.88A2.46,2.46,0,0,1,80.67,18a2.33,2.33,0,0,1,1.74.69,2.38,2.38,0,0,1,.67,1.74,2.41,2.41,0,0,1-.68,1.75,2.3,2.3,0,0,1-1.72.7,2.71,2.71,0,0,1-1.22-.29,2,2,0,0,1-.89-.85A2.85,2.85,0,0,1,78.27,20.33Zm1.26.06a1.56,1.56,0,0,0,.33,1.07,1.1,1.1,0,0,0,1.63,0,1.64,1.64,0,0,0,.32-1.08,1.57,1.57,0,0,0-.32-1.05,1.08,1.08,0,0,0-1.63,0A1.53,1.53,0,0,0,79.53,20.39Z"/><path class="cls-3" d="M88.29,22.73H87.06V20.34a3.7,3.7,0,0,0-.08-1,.67.67,0,0,0-.26-.35.75.75,0,0,0-.43-.12,1,1,0,0,0-.57.17.9.9,0,0,0-.35.47,4.19,4.19,0,0,0-.09,1.07v2.12H84V18.06h1.15v.68A1.88,1.88,0,0,1,86.73,18a1.78,1.78,0,0,1,.74.15,1.14,1.14,0,0,1,.51.38,1.35,1.35,0,0,1,.25.51,4.41,4.41,0,0,1,.06.83Z"/><path class="cls-3" d="M90.47,19.48l-1.12-.2a1.73,1.73,0,0,1,.65-1A2.35,2.35,0,0,1,91.37,18a3,3,0,0,1,1.23.2,1.18,1.18,0,0,1,.57.5,2.52,2.52,0,0,1,.16,1.1v1.44a5,5,0,0,0,.06.91,3.41,3.41,0,0,0,.22.63H92.38l-.12-.37c0-.07,0-.12,0-.14a2.48,2.48,0,0,1-.68.46,2,2,0,0,1-.77.15,1.57,1.57,0,0,1-1.13-.39,1.29,1.29,0,0,1-.42-1,1.36,1.36,0,0,1,.19-.7,1.23,1.23,0,0,1,.53-.48,4.7,4.7,0,0,1,1-.29,7.18,7.18,0,0,0,1.2-.3v-.12a.66.66,0,0,0-.17-.51,1.08,1.08,0,0,0-.67-.15.84.84,0,0,0-.51.13A.93.93,0,0,0,90.47,19.48Zm1.65,1a5.62,5.62,0,0,1-.75.19,2.4,2.4,0,0,0-.67.22.51.51,0,0,0-.24.43.58.58,0,0,0,.19.45.66.66,0,0,0,.49.19,1,1,0,0,0,.64-.22.73.73,0,0,0,.29-.41,2,2,0,0,0,.05-.6Z"/><path class="cls-3" d="M94.55,22.73V16.28h1.24v6.45Z"/><rect class="cls-4" x="13.96" y="4.79" width="0.85" height="19.3" rx="0.42"/><rect class="cls-4" x="127.83" y="4.79" width="0.85" height="19.3" rx="0.42"/><circle class="cls-5" cx="182.34" cy="71.17" r="6.39"/><path class="cls-4" d="M181.76,74.1V69.34h-1.7v-1h4.56v1h-1.7V74.1Z"/><circle class="cls-6" cx="182.34" cy="95.19" r="6.39"/><path class="cls-7" d="M185.34,98.13h-1.26l-.5-1.3H181.3l-.48,1.3H179.6l2.23-5.73h1.22Zm-2.13-2.27-.79-2.12-.77,2.12Z"/><circle class="cls-6" cx="182.34" cy="47.14" r="6.39"/><path class="cls-7" d="M185.34,50.07h-1.26l-.5-1.3H181.3l-.48,1.3H179.6l2.23-5.73h1.22Zm-2.13-2.27-.79-2.12-.77,2.12Z"/></g></g></svg>