<svg xmlns="http://www.w3.org/2000/svg" viewBox="0 0 122.21 111.05"><defs><style>.cls-1{opacity:0.3;}.cls-2{fill:#fff;}.cls-3{fill:#96999c;}.cls-4{fill:#231f20;}</style></defs><g id="Capa_2" data-name="Capa 2"><g id="Capa_1-2" data-name="Capa 1"><path class="cls-1" d="M5.32,82.73s37-.61,32.82-36.48C33.64,7.72,85,1.53,105,20.07c35.07,32.52,11.47,79.72-26.67,88.35S22.19,103.32,5.32,82.73Z"/><path class="cls-2" d="M2.58,69.73s37,1.63,35-34.43C35.4-3.43,87-6.5,105.88,13.23c33,34.58,6.62,80.26-32,86.57S18.18,91.3,2.58,69.73Z"/><path class="cls-3" d="M115.08,25.71C121.83,54.41,99.23,83,69.31,87.85,38.24,92.93,21.08,84.32,7.43,69.51a37.37,37.37,0,0,1-4.85.22C18.18,91.3,35.31,106.11,73.9,99.8,108,94.23,132.57,57.93,115.08,25.71Z"/><path class="cls-4" d="M57.07,102.56c-26.45,0-41.37-12.5-55.52-32.09L0,68.33l2.64.12c.16,0,16.29.58,26.1-9.36,5.57-5.64,8.11-13.62,7.54-23.72-.82-14.75,5.94-26,19-31.68,16.86-7.31,40-3.42,51.5,8.65,14.26,14.93,18.81,33,12.83,50.87-6.55,19.54-24.42,34.4-45.53,37.85A105.94,105.94,0,0,1,57.07,102.56ZM5.09,71c16,21.39,33.41,33.31,68.61,27.56,20.18-3.3,37.26-17.49,43.51-36.15,5.67-16.92,1.32-34.07-12.25-48.28C94.28,2.94,72-.76,56.33,6c-12,5.22-18.25,15.59-17.49,29.19.6,10.86-2.18,19.49-8.29,25.67C22.27,69.27,10.31,70.75,5.09,71Z"/><path d="M57.4,40.43a.54.54,0,0,1-.08.17.36.36,0,0,1-.15.1,1.68,1.68,0,0,1-.29,0H55.71l-.19,0a.23.23,0,0,1-.12-.06.18.18,0,0,1-.08-.09.33.33,0,0,1,0-.12L53,33.51a1.74,1.74,0,0,1-.09-.34A.2.2,0,0,1,53,33a.46.46,0,0,1,.25-.08h.92l.24,0a.2.2,0,0,1,.11.09.52.52,0,0,1,.06.15l1.86,6h0l1.82-6a.91.91,0,0,1,.06-.16.23.23,0,0,1,.12-.1.73.73,0,0,1,.25-.05h.86a.34.34,0,0,1,.2.09.25.25,0,0,1,0,.2l-.09.33Z"/><path d="M64.66,37.67a.56.56,0,0,1-.12.4.43.43,0,0,1-.34.14H61a2.39,2.39,0,0,0,.08.62,1.29,1.29,0,0,0,.25.48,1.17,1.17,0,0,0,.45.29,1.82,1.82,0,0,0,.66.11,3.37,3.37,0,0,0,.68-.06,3.75,3.75,0,0,0,.51-.13L64,39.4a.65.65,0,0,1,.23-.06l.09,0a.22.22,0,0,1,.06.07.57.57,0,0,1,0,.16,1.78,1.78,0,0,1,0,.25,1.41,1.41,0,0,1,0,.22c0,.07,0,.12,0,.16a.28.28,0,0,1,0,.11.24.24,0,0,1-.06.09.83.83,0,0,1-.21.12l-.44.14-.6.12a5.74,5.74,0,0,1-.74.05,3.8,3.8,0,0,1-1.23-.18,2.16,2.16,0,0,1-.88-.55,2.23,2.23,0,0,1-.53-.93,4.63,4.63,0,0,1-.17-1.31,4.28,4.28,0,0,1,.18-1.29,2.67,2.67,0,0,1,.53-1,2.4,2.4,0,0,1,.85-.62,2.87,2.87,0,0,1,1.12-.21,2.93,2.93,0,0,1,1.13.2,2.11,2.11,0,0,1,.77.55,2.43,2.43,0,0,1,.45.84,3.84,3.84,0,0,1,.14,1Zm-1.44-.44a1.58,1.58,0,0,0-.25-1,1,1,0,0,0-.83-.36,1.07,1.07,0,0,0-.49.1,1,1,0,0,0-.35.3,1.17,1.17,0,0,0-.22.43,2.94,2.94,0,0,0-.08.53Z"/><path d="M70.12,40.52a.22.22,0,0,1-.05.14.58.58,0,0,1-.19.07l-.38,0-.38,0a.39.39,0,0,1-.17-.07.17.17,0,0,1,0-.14V40.1a2.59,2.59,0,0,1-.74.55,2.18,2.18,0,0,1-.93.2,2.7,2.7,0,0,1-.77-.11,2.11,2.11,0,0,1-.61-.33,1.45,1.45,0,0,1-.39-.55,1.78,1.78,0,0,1-.15-.76,1.73,1.73,0,0,1,.18-.81,1.47,1.47,0,0,1,.54-.57,2.67,2.67,0,0,1,.89-.34,6.31,6.31,0,0,1,1.23-.11h.52V37a1.84,1.84,0,0,0,0-.44.75.75,0,0,0-.17-.32.74.74,0,0,0-.31-.19,1.53,1.53,0,0,0-.47-.06A2.19,2.19,0,0,0,67,36a3.9,3.9,0,0,0-.52.18l-.38.19a.51.51,0,0,1-.24.09.21.21,0,0,1-.12-.05.23.23,0,0,1-.08-.12.74.74,0,0,1,0-.19,2,2,0,0,1,0-.25,1.15,1.15,0,0,1,0-.3.52.52,0,0,1,.11-.19,1.3,1.3,0,0,1,.29-.2,3.35,3.35,0,0,1,.49-.19,4.78,4.78,0,0,1,.6-.15,3.82,3.82,0,0,1,.68-.06,4,4,0,0,1,1.06.13,1.77,1.77,0,0,1,.72.38A1.4,1.4,0,0,1,70,36a3,3,0,0,1,.13.95Zm-1.45-2.3H68.1a2.68,2.68,0,0,0-.61.06,1.15,1.15,0,0,0-.42.16.71.71,0,0,0-.23.26.83.83,0,0,0-.07.36.69.69,0,0,0,.21.53.86.86,0,0,0,.58.19,1.11,1.11,0,0,0,.57-.16,2.33,2.33,0,0,0,.54-.48Z"/><path d="M79.74,40.51a.13.13,0,0,1,0,.1.23.23,0,0,1-.12.08,1,1,0,0,1-.22,0l-.36,0-.37,0a1,1,0,0,1-.22,0,.23.23,0,0,1-.12-.08.17.17,0,0,1,0-.1V37.32a2.46,2.46,0,0,0-.05-.49,1.21,1.21,0,0,0-.16-.38.69.69,0,0,0-.26-.25.72.72,0,0,0-.37-.09.88.88,0,0,0-.54.21,3.57,3.57,0,0,0-.59.62v3.57a.17.17,0,0,1,0,.1.36.36,0,0,1-.12.08l-.23,0-.36,0-.36,0a1,1,0,0,1-.22,0,.23.23,0,0,1-.12-.08.13.13,0,0,1,0-.1V37.32a2.46,2.46,0,0,0,0-.49,1,1,0,0,0-.15-.38.69.69,0,0,0-.26-.25.75.75,0,0,0-.37-.09.88.88,0,0,0-.54.21,3.24,3.24,0,0,0-.59.62v3.57a.17.17,0,0,1,0,.1.32.32,0,0,1-.13.08,1,1,0,0,1-.22,0l-.36,0-.36,0-.23,0a.23.23,0,0,1-.12-.08.18.18,0,0,1,0-.1V35.14a.2.2,0,0,1,0-.11A.23.23,0,0,1,71.5,35l.2-.05h.61a.72.72,0,0,1,.2.05.22.22,0,0,1,.09.07.2.2,0,0,1,0,.11v.62A3.46,3.46,0,0,1,73.5,35a1.76,1.76,0,0,1,.91-.25,2.56,2.56,0,0,1,.58.07,2,2,0,0,1,.47.2,1.73,1.73,0,0,1,.35.31,1.87,1.87,0,0,1,.25.41,3.22,3.22,0,0,1,.46-.45A2.35,2.35,0,0,1,77,35a2,2,0,0,1,.44-.18,1.74,1.74,0,0,1,.45-.06,2,2,0,0,1,.89.18,1.66,1.66,0,0,1,.58.5,1.81,1.81,0,0,1,.31.72,3.6,3.6,0,0,1,.1.88Z"/><path d="M86.28,37.77A4.15,4.15,0,0,1,86.1,39a2.62,2.62,0,0,1-.54,1,2.35,2.35,0,0,1-.9.64,3.8,3.8,0,0,1-2.49,0,2.08,2.08,0,0,1-.86-.58,2.33,2.33,0,0,1-.51-.93,4.43,4.43,0,0,1-.16-1.26,4.17,4.17,0,0,1,.18-1.26,2.62,2.62,0,0,1,.54-1,2.44,2.44,0,0,1,.9-.63,3.26,3.26,0,0,1,1.26-.23,3.52,3.52,0,0,1,1.23.2,2.16,2.16,0,0,1,.86.57,2.57,2.57,0,0,1,.5.94A4.44,4.44,0,0,1,86.28,37.77Zm-1.53.06a4.07,4.07,0,0,0-.06-.73,1.59,1.59,0,0,0-.21-.58,1,1,0,0,0-.39-.39,1.29,1.29,0,0,0-.62-.14,1.21,1.21,0,0,0-.58.13,1.08,1.08,0,0,0-.41.36,2,2,0,0,0-.24.57,3.41,3.41,0,0,0-.08.76,4.11,4.11,0,0,0,.07.73,1.66,1.66,0,0,0,.21.58,1,1,0,0,0,.39.38,1.29,1.29,0,0,0,.62.14,1.34,1.34,0,0,0,.58-.12,1.29,1.29,0,0,0,.41-.36,1.84,1.84,0,0,0,.23-.57A3.48,3.48,0,0,0,84.75,37.83Z"/><path d="M90.92,39a1.92,1.92,0,0,1-.17.81,1.58,1.58,0,0,1-.48.58,2,2,0,0,1-.72.35,3.34,3.34,0,0,1-.91.12,4,4,0,0,1-1-.16,2.53,2.53,0,0,1-.35-.14L87,40.41a.53.53,0,0,1-.1-.2,2,2,0,0,1,0-.4,2.27,2.27,0,0,1,0-.28.53.53,0,0,1,0-.16.13.13,0,0,1,0-.09l.09,0a.41.41,0,0,1,.19.08l.32.16a3.12,3.12,0,0,0,.44.17,2,2,0,0,0,.57.08,2,2,0,0,0,.36,0,1.11,1.11,0,0,0,.27-.12.65.65,0,0,0,.17-.2.64.64,0,0,0,.06-.28.49.49,0,0,0-.11-.31,1,1,0,0,0-.29-.23,4.14,4.14,0,0,0-.41-.18l-.46-.18a4.16,4.16,0,0,1-.47-.24,1.76,1.76,0,0,1-.4-.32,1.33,1.33,0,0,1-.29-.47,1.58,1.58,0,0,1-.11-.65,1.78,1.78,0,0,1,.14-.7,1.45,1.45,0,0,1,.43-.55,1.77,1.77,0,0,1,.68-.36,3,3,0,0,1,.89-.13,3.88,3.88,0,0,1,.48,0,2.2,2.2,0,0,1,.42.09l.32.12a1,1,0,0,1,.19.11l.08.09,0,.1a.78.78,0,0,1,0,.16,1.55,1.55,0,0,1,0,.23,2.1,2.1,0,0,1,0,.27.35.35,0,0,1,0,.16.12.12,0,0,1,0,.08.13.13,0,0,1-.09,0,.4.4,0,0,1-.16-.06L90,36.06c-.11,0-.24-.09-.39-.13a2,2,0,0,0-.51-.06,1.18,1.18,0,0,0-.34,0,.83.83,0,0,0-.25.12.49.49,0,0,0-.14.18.59.59,0,0,0,0,.23.42.42,0,0,0,.11.31,1,1,0,0,0,.29.22,2.31,2.31,0,0,0,.42.18l.47.19a2.92,2.92,0,0,1,.47.23,1.94,1.94,0,0,1,.42.32,1.59,1.59,0,0,1,.41,1.1Z"/><path d="M54.73,52.09a.18.18,0,0,1,0,.11.21.21,0,0,1-.1.08l-.19,0H53.8l-.19,0a.21.21,0,0,1-.1-.08.18.18,0,0,1,0-.11V51.5a3.58,3.58,0,0,1-.85.69,2.08,2.08,0,0,1-1,.25,2,2,0,0,1-1-.24,1.9,1.9,0,0,1-.68-.64,2.62,2.62,0,0,1-.38-.94,5.24,5.24,0,0,1-.12-1.14,5.08,5.08,0,0,1,.15-1.29,2.79,2.79,0,0,1,.44-1,1.87,1.87,0,0,1,.72-.62,2.12,2.12,0,0,1,1-.22,1.77,1.77,0,0,1,.8.18,3.38,3.38,0,0,1,.72.54V44.2a.2.2,0,0,1,0-.11.23.23,0,0,1,.12-.08.6.6,0,0,1,.22,0,1.94,1.94,0,0,1,.36,0,1.84,1.84,0,0,1,.36,0,.66.66,0,0,1,.23,0,.36.36,0,0,1,.12.08.2.2,0,0,1,0,.11Zm-1.47-3.58a3.36,3.36,0,0,0-.61-.63,1.07,1.07,0,0,0-.62-.22.81.81,0,0,0-.49.15,1.07,1.07,0,0,0-.34.39,2.3,2.3,0,0,0-.19.56,3.18,3.18,0,0,0-.06.62A4.62,4.62,0,0,0,51,50a1.82,1.82,0,0,0,.18.57,1,1,0,0,0,.32.4.8.8,0,0,0,.5.15,1,1,0,0,0,.3,0,1.05,1.05,0,0,0,.3-.15,2.38,2.38,0,0,0,.31-.27c.1-.11.22-.24.35-.4Z"/><path d="M60.85,49.25a.55.55,0,0,1-.13.41.42.42,0,0,1-.33.13h-3.2a2.09,2.09,0,0,0,.08.63,1.12,1.12,0,0,0,.25.47,1.19,1.19,0,0,0,.45.3,1.83,1.83,0,0,0,.66.1,3.44,3.44,0,0,0,.68-.06,3.88,3.88,0,0,0,.51-.12l.36-.13a.56.56,0,0,1,.23,0,.15.15,0,0,1,.09,0,.22.22,0,0,1,.06.07l0,.15c0,.07,0,.15,0,.25a1.55,1.55,0,0,1,0,.23.7.7,0,0,1,0,.16.35.35,0,0,1,0,.11l-.06.09a.91.91,0,0,1-.21.11,2.55,2.55,0,0,1-.44.14,4.39,4.39,0,0,1-.61.12,4.23,4.23,0,0,1-.73.06,3.8,3.8,0,0,1-1.23-.18,2.32,2.32,0,0,1-.88-.55,2.36,2.36,0,0,1-.53-.93,4.91,4.91,0,0,1,0-2.6,2.72,2.72,0,0,1,.53-1,2.29,2.29,0,0,1,.85-.61,2.83,2.83,0,0,1,1.12-.21,2.93,2.93,0,0,1,1.13.2,2.08,2.08,0,0,1,.77.55,2.21,2.21,0,0,1,.44.83,3.55,3.55,0,0,1,.15,1Zm-1.44-.43a1.63,1.63,0,0,0-.25-1,1,1,0,0,0-.83-.37,1.12,1.12,0,0,0-.5.11,1,1,0,0,0-.34.29,1.3,1.3,0,0,0-.22.44,1.78,1.78,0,0,0-.08.53Z"/><path d="M69.31,54.22a.15.15,0,0,1,0,.11.24.24,0,0,1-.11.08.66.66,0,0,1-.23.05,1.84,1.84,0,0,1-.36,0,1.94,1.94,0,0,1-.36,0,.71.71,0,0,1-.23-.05.24.24,0,0,1-.11-.08.15.15,0,0,1,0-.11V51.67c-.14.13-.28.25-.41.35a2.12,2.12,0,0,1-.4.24,1.51,1.51,0,0,1-.41.13,2.22,2.22,0,0,1-.45,0,1.84,1.84,0,0,1-1.65-.88,3,3,0,0,1-.38-.94A5.25,5.25,0,0,1,64,49.48a5.08,5.08,0,0,1,.15-1.29,2.8,2.8,0,0,1,.45-1,1.94,1.94,0,0,1,.72-.62,2.14,2.14,0,0,1,1-.22,1.86,1.86,0,0,1,.42,0,1.63,1.63,0,0,1,.4.15,4,4,0,0,1,.42.29c.14.12.3.27.47.44v-.59a.17.17,0,0,1,0-.1.31.31,0,0,1,.11-.08l.19,0,.31,0,.3,0,.19,0a.21.21,0,0,1,.1.08.17.17,0,0,1,0,.1Zm-1.48-5.71a2.83,2.83,0,0,0-.61-.63,1,1,0,0,0-.61-.22.84.84,0,0,0-.5.15,1,1,0,0,0-.33.39,2,2,0,0,0-.19.56,3.18,3.18,0,0,0-.06.62,3.67,3.67,0,0,0,0,.66,2.38,2.38,0,0,0,.17.57,1,1,0,0,0,.33.39.8.8,0,0,0,.5.15,1,1,0,0,0,.3,0,1.05,1.05,0,0,0,.3-.15,2.38,2.38,0,0,0,.31-.27c.1-.11.22-.24.34-.4Z"/><path d="M75.55,52.09a.36.36,0,0,1,0,.11.23.23,0,0,1-.11.07.74.74,0,0,1-.19,0h-.62a.64.64,0,0,1-.19,0s-.09,0-.1-.07a.2.2,0,0,1,0-.11v-.62a3.52,3.52,0,0,1-.89.72,1.87,1.87,0,0,1-.94.25,2.08,2.08,0,0,1-.91-.18,1.73,1.73,0,0,1-.6-.5,2,2,0,0,1-.32-.72,4.32,4.32,0,0,1-.1-1V46.72a.17.17,0,0,1,0-.1.36.36,0,0,1,.12-.08l.23,0,.36,0,.36,0,.23,0a.36.36,0,0,1,.12.08.17.17,0,0,1,0,.1v3a2.6,2.6,0,0,0,.06.64,1,1,0,0,0,.16.38.68.68,0,0,0,.28.25.8.8,0,0,0,.39.09,1,1,0,0,0,.57-.21,3.59,3.59,0,0,0,.61-.62V46.72a.17.17,0,0,1,0-.1.23.23,0,0,1,.12-.08l.23,0,.36,0,.36,0a1,1,0,0,1,.22,0,.23.23,0,0,1,.12.08.17.17,0,0,1,0,.1Z"/><path d="M81.67,49.25a.59.59,0,0,1-.12.41.42.42,0,0,1-.34.13H78a2.47,2.47,0,0,0,.08.63,1.25,1.25,0,0,0,.25.47,1.19,1.19,0,0,0,.45.3,1.83,1.83,0,0,0,.66.1,3.37,3.37,0,0,0,.68-.06,4.51,4.51,0,0,0,.52-.12L81,51a.6.6,0,0,1,.23,0s.07,0,.09,0a.22.22,0,0,1,.06.07.33.33,0,0,1,0,.15,1.85,1.85,0,0,1,0,.25,1.55,1.55,0,0,1,0,.23.76.76,0,0,1,0,.16.36.36,0,0,1,0,.11.24.24,0,0,1-.06.09.91.91,0,0,1-.21.11,2.29,2.29,0,0,1-.44.14,4.23,4.23,0,0,1-.6.12,4.35,4.35,0,0,1-.74.06,3.88,3.88,0,0,1-1.23-.18,2.4,2.4,0,0,1-.88-.55,2.49,2.49,0,0,1-.53-.93,4.63,4.63,0,0,1-.17-1.31,4.28,4.28,0,0,1,.18-1.29,2.72,2.72,0,0,1,.53-1,2.46,2.46,0,0,1,.85-.61,2.87,2.87,0,0,1,1.12-.21,2.93,2.93,0,0,1,1.13.2,2,2,0,0,1,.77.55,2.23,2.23,0,0,1,.45.83,3.92,3.92,0,0,1,.14,1Zm-1.44-.43a1.57,1.57,0,0,0-.25-1,1,1,0,0,0-.83-.37,1.07,1.07,0,0,0-.49.11,1,1,0,0,0-.35.29,1.28,1.28,0,0,0-.21.44,2.17,2.17,0,0,0-.09.53Zm-.83-4.73a.38.38,0,0,1,.1-.12l.14-.07.23,0h.33l.43,0a.63.63,0,0,1,.22.07.1.1,0,0,1,.06.11.17.17,0,0,1-.06.12l-1.14,1.4-.09.1a.52.52,0,0,1-.13.06.69.69,0,0,1-.18,0H79l-.33,0a.3.3,0,0,1-.17-.06.1.1,0,0,1,0-.09.42.42,0,0,1,.06-.14Z"/><path d="M88.85,50.58a1.85,1.85,0,0,1-.17.8,1.53,1.53,0,0,1-.48.59,2.2,2.2,0,0,1-.72.35,3.34,3.34,0,0,1-.91.12,3.45,3.45,0,0,1-.57,0l-.48-.11a2.44,2.44,0,0,1-.35-.15A1,1,0,0,1,85,52a.53.53,0,0,1-.1-.2,2,2,0,0,1,0-.4,2.18,2.18,0,0,1,0-.28c0-.07,0-.13,0-.17a.18.18,0,0,1,.06-.08.15.15,0,0,1,.09,0,.37.37,0,0,1,.19.07l.32.17.44.17a2,2,0,0,0,.57.07,1.37,1.37,0,0,0,.36,0,1.11,1.11,0,0,0,.27-.12.55.55,0,0,0,.17-.2.6.6,0,0,0,.06-.27.47.47,0,0,0-.11-.31,1,1,0,0,0-.29-.23,4.14,4.14,0,0,0-.41-.18l-.46-.19a2.92,2.92,0,0,1-.47-.23,1.86,1.86,0,0,1-.41-.33,1.32,1.32,0,0,1-.28-.46,1.61,1.61,0,0,1-.11-.65,1.83,1.83,0,0,1,.14-.71,1.62,1.62,0,0,1,.43-.55,1.9,1.9,0,0,1,.68-.35,2.73,2.73,0,0,1,.89-.13,2.59,2.59,0,0,1,.48,0,2.2,2.2,0,0,1,.42.09,1.19,1.19,0,0,1,.32.12l.19.1.08.09,0,.11a.7.7,0,0,1,0,.16,1.55,1.55,0,0,1,0,.23,2.1,2.1,0,0,1,0,.27.38.38,0,0,1,0,.16.16.16,0,0,1-.05.08l-.09,0a.4.4,0,0,1-.16-.06l-.28-.14a2.54,2.54,0,0,0-.39-.13,1.61,1.61,0,0,0-.51-.07,1.67,1.67,0,0,0-.34,0,.83.83,0,0,0-.25.12.62.62,0,0,0-.14.19.54.54,0,0,0,0,.22.45.45,0,0,0,.11.32,1,1,0,0,0,.29.22l.42.18.47.18a4.16,4.16,0,0,1,.47.24,1.46,1.46,0,0,1,.42.32,1.44,1.44,0,0,1,.29.46A1.56,1.56,0,0,1,88.85,50.58Z"/><path d="M94.58,49.25a.59.59,0,0,1-.12.41.42.42,0,0,1-.33.13H90.92a2.47,2.47,0,0,0,.08.63,1.27,1.27,0,0,0,.26.47,1,1,0,0,0,.45.3,1.81,1.81,0,0,0,.65.1,3.54,3.54,0,0,0,.69-.06,4.3,4.3,0,0,0,.51-.12l.36-.13a.56.56,0,0,1,.23,0,.15.15,0,0,1,.09,0,.13.13,0,0,1,.05.07.54.54,0,0,1,0,.15v.48a.7.7,0,0,1,0,.16l0,.11-.07.09a.6.6,0,0,1-.21.11,2.41,2.41,0,0,1-.43.14,4.39,4.39,0,0,1-.61.12,4.23,4.23,0,0,1-.73.06A3.8,3.8,0,0,1,91,52.26a2.32,2.32,0,0,1-.88-.55,2.25,2.25,0,0,1-.53-.93,4.28,4.28,0,0,1-.18-1.31,4,4,0,0,1,.19-1.29,2.72,2.72,0,0,1,.53-1,2.33,2.33,0,0,1,.84-.61,3.22,3.22,0,0,1,2.26,0,2.08,2.08,0,0,1,.77.55,2.21,2.21,0,0,1,.44.83,3.56,3.56,0,0,1,.14,1Zm-1.44-.43a1.51,1.51,0,0,0-.25-1,.94.94,0,0,0-.83-.37,1.07,1.07,0,0,0-.49.11,1,1,0,0,0-.35.29,1.49,1.49,0,0,0-.21.44,2.17,2.17,0,0,0-.09.53Z"/><path d="M49.56,62.82a2.1,2.1,0,0,1,0,.27c0,.07,0,.13,0,.17a.83.83,0,0,1,0,.12.36.36,0,0,1-.09.12,1.63,1.63,0,0,1-.24.16,2.32,2.32,0,0,1-.39.18,3.36,3.36,0,0,1-.48.13,3,3,0,0,1-.53,0,2.76,2.76,0,0,1-1.07-.2,1.81,1.81,0,0,1-.79-.57,2.55,2.55,0,0,1-.48-.91,4.29,4.29,0,0,1-.16-1.24,4.52,4.52,0,0,1,.19-1.4,2.78,2.78,0,0,1,.56-1,2.17,2.17,0,0,1,.83-.57A3.08,3.08,0,0,1,47.91,58a2.4,2.4,0,0,1,.46.05,1.85,1.85,0,0,1,.42.11,2.43,2.43,0,0,1,.36.16.89.89,0,0,1,.22.16l.09.11a.34.34,0,0,1,0,.12s0,.11,0,.18,0,.15,0,.25a1.67,1.67,0,0,1-.06.49c0,.1-.1.14-.16.14a.4.4,0,0,1-.21-.08,2.43,2.43,0,0,0-.27-.19,1.51,1.51,0,0,0-.36-.18A1.29,1.29,0,0,0,48,59.2a1,1,0,0,0-.88.46A2.31,2.31,0,0,0,46.78,61a2.91,2.91,0,0,0,.08.76,1.68,1.68,0,0,0,.22.56.92.92,0,0,0,.38.33,1.12,1.12,0,0,0,.53.11,1.44,1.44,0,0,0,.53-.09,2,2,0,0,0,.38-.21,1.7,1.7,0,0,0,.28-.21.35.35,0,0,1,.19-.09.14.14,0,0,1,.09,0,.23.23,0,0,1,0,.11,1.12,1.12,0,0,1,0,.21C49.55,62.58,49.56,62.69,49.56,62.82Z"/><path d="M55.66,60.94a4.06,4.06,0,0,1-.18,1.25,2.67,2.67,0,0,1-.54,1,2.44,2.44,0,0,1-.9.63,3.31,3.31,0,0,1-1.27.22,3.22,3.22,0,0,1-1.22-.2,2.1,2.1,0,0,1-.86-.57,2.44,2.44,0,0,1-.51-.94A4.41,4.41,0,0,1,50,61.05a4.17,4.17,0,0,1,.18-1.26,2.7,2.7,0,0,1,.54-1,2.44,2.44,0,0,1,.9-.63A3.28,3.28,0,0,1,52.9,58a3.53,3.53,0,0,1,1.23.19,2.26,2.26,0,0,1,.86.58,2.44,2.44,0,0,1,.5.93A4.44,4.44,0,0,1,55.66,60.94ZM54.13,61a3.35,3.35,0,0,0-.07-.73,1.66,1.66,0,0,0-.21-.58,1,1,0,0,0-.39-.39,1.25,1.25,0,0,0-.61-.13,1.28,1.28,0,0,0-.58.12,1,1,0,0,0-.41.36,1.63,1.63,0,0,0-.24.57,3.48,3.48,0,0,0-.08.76,3.29,3.29,0,0,0,.07.73,1.59,1.59,0,0,0,.21.58.92.92,0,0,0,.39.39,1.25,1.25,0,0,0,.61.13,1.35,1.35,0,0,0,.59-.12,1,1,0,0,0,.4-.36,1.63,1.63,0,0,0,.24-.57A3.41,3.41,0,0,0,54.13,61Z"/><path d="M65,63.68a.17.17,0,0,1,0,.1.36.36,0,0,1-.12.08.68.68,0,0,1-.23,0,1.78,1.78,0,0,1-.35,0,2,2,0,0,1-.37,0,.68.68,0,0,1-.23,0,.36.36,0,0,1-.12-.08.17.17,0,0,1,0-.1V60.5a2.49,2.49,0,0,0,0-.5,1.08,1.08,0,0,0-.15-.38.77.77,0,0,0-.26-.25.76.76,0,0,0-.38-.08.88.88,0,0,0-.53.21,3.47,3.47,0,0,0-.59.61v3.57a.18.18,0,0,1,0,.1.23.23,0,0,1-.12.08.68.68,0,0,1-.23,0,1.78,1.78,0,0,1-.35,0,1.84,1.84,0,0,1-.36,0,.68.68,0,0,1-.23,0,.23.23,0,0,1-.12-.08.17.17,0,0,1,0-.1V60.5A1.9,1.9,0,0,0,60,60a1.08,1.08,0,0,0-.15-.38.63.63,0,0,0-.26-.25.72.72,0,0,0-.37-.08.88.88,0,0,0-.54.21,3.13,3.13,0,0,0-.58.61v3.57a.18.18,0,0,1,0,.1.23.23,0,0,1-.12.08.68.68,0,0,1-.23,0,1.84,1.84,0,0,1-.36,0,1.94,1.94,0,0,1-.36,0,.73.73,0,0,1-.23,0,.36.36,0,0,1-.12-.08.17.17,0,0,1,0-.1V58.31a.17.17,0,0,1,0-.1.21.21,0,0,1,.1-.08l.2,0,.31,0,.31,0a.69.69,0,0,1,.19,0,.21.21,0,0,1,.1.08.17.17,0,0,1,0,.1v.62a3.46,3.46,0,0,1,.87-.72,1.84,1.84,0,0,1,.9-.24,2.17,2.17,0,0,1,.59.07,1.37,1.37,0,0,1,.46.2,1.15,1.15,0,0,1,.35.31,1.8,1.8,0,0,1,.25.4,6.38,6.38,0,0,1,.46-.45,2.93,2.93,0,0,1,.45-.3,2.27,2.27,0,0,1,.44-.18,2.31,2.31,0,0,1,.46-.05,1.94,1.94,0,0,1,.88.18,1.47,1.47,0,0,1,.58.49,2,2,0,0,1,.32.72,4.17,4.17,0,0,1,.09.88Z"/><path d="M71.48,60.92a5.19,5.19,0,0,1-.15,1.29,3,3,0,0,1-.44,1,2.14,2.14,0,0,1-.72.62,2.25,2.25,0,0,1-1,.21,1.87,1.87,0,0,1-.42,0,1.66,1.66,0,0,1-.37-.14,2.41,2.41,0,0,1-.36-.23c-.12-.1-.24-.2-.37-.33v2.53a.2.2,0,0,1,0,.11.23.23,0,0,1-.12.08,1,1,0,0,1-.23,0l-.36,0-.36,0-.23,0a.36.36,0,0,1-.12-.08.2.2,0,0,1,0-.11v-7.5a.17.17,0,0,1,0-.1.21.21,0,0,1,.1-.08.77.77,0,0,1,.2,0l.3,0,.3,0,.19,0a.24.24,0,0,1,.11.08.17.17,0,0,1,0,.1v.63a4.32,4.32,0,0,1,.45-.42,2.26,2.26,0,0,1,.45-.31,2.07,2.07,0,0,1,.47-.18,2.26,2.26,0,0,1,.53-.06,1.9,1.9,0,0,1,1,.23,2,2,0,0,1,.67.63,3,3,0,0,1,.37.94A5.27,5.27,0,0,1,71.48,60.92Zm-1.55.1a4.62,4.62,0,0,0-.05-.65,2,2,0,0,0-.17-.57,1.12,1.12,0,0,0-.32-.39.77.77,0,0,0-.49-.15.93.93,0,0,0-.29.05,1.35,1.35,0,0,0-.3.14,2.38,2.38,0,0,0-.31.27c-.1.11-.22.24-.34.4v1.77a3.25,3.25,0,0,0,.6.62.94.94,0,0,0,.59.22.79.79,0,0,0,.49-.15,1.17,1.17,0,0,0,.34-.39,2.23,2.23,0,0,0,.19-.55A3.26,3.26,0,0,0,69.93,61Z"/><path d="M77.75,60.94a4.06,4.06,0,0,1-.18,1.25,2.67,2.67,0,0,1-.54,1,2.44,2.44,0,0,1-.9.63,3.31,3.31,0,0,1-1.27.22,3.25,3.25,0,0,1-1.22-.2,2.16,2.16,0,0,1-.86-.57,2.44,2.44,0,0,1-.51-.94,4.41,4.41,0,0,1-.17-1.26,4.17,4.17,0,0,1,.18-1.26,2.7,2.7,0,0,1,.54-1,2.44,2.44,0,0,1,.9-.63A3.31,3.31,0,0,1,75,58a3.53,3.53,0,0,1,1.23.19,2.26,2.26,0,0,1,.86.58,2.44,2.44,0,0,1,.5.93A4.44,4.44,0,0,1,77.75,60.94ZM76.22,61a4.15,4.15,0,0,0-.06-.73,1.89,1.89,0,0,0-.21-.58,1.07,1.07,0,0,0-.4-.39,1.23,1.23,0,0,0-.61-.13,1.31,1.31,0,0,0-.58.12,1,1,0,0,0-.41.36,2.13,2.13,0,0,0-.24.57,3.48,3.48,0,0,0-.08.76,3.29,3.29,0,0,0,.07.73,1.59,1.59,0,0,0,.21.58.92.92,0,0,0,.39.39,1.28,1.28,0,0,0,.61.13,1.35,1.35,0,0,0,.59-.12,1.08,1.08,0,0,0,.41-.36,1.84,1.84,0,0,0,.23-.57A3.41,3.41,0,0,0,76.22,61Z"/><path d="M83.71,63.68a.13.13,0,0,1,0,.1.23.23,0,0,1-.12.08.62.62,0,0,1-.22,0,1.94,1.94,0,0,1-.36,0,1.84,1.84,0,0,1-.36,0,.63.63,0,0,1-.23,0,.28.28,0,0,1-.12-.08.17.17,0,0,1,0-.1V60.62a2.53,2.53,0,0,0-.06-.62,1.32,1.32,0,0,0-.16-.38.68.68,0,0,0-.28-.25.8.8,0,0,0-.39-.08,1,1,0,0,0-.57.21,2.9,2.9,0,0,0-.6.61v3.57a.18.18,0,0,1,0,.1.23.23,0,0,1-.12.08.68.68,0,0,1-.23,0,1.84,1.84,0,0,1-.36,0,1.94,1.94,0,0,1-.36,0,.62.62,0,0,1-.22,0,.32.32,0,0,1-.13-.08.17.17,0,0,1,0-.1V58.31a.17.17,0,0,1,0-.1.21.21,0,0,1,.1-.08l.2,0,.31,0,.31,0a.69.69,0,0,1,.19,0,.21.21,0,0,1,.1.08.17.17,0,0,1,0,.1v.62a3.36,3.36,0,0,1,.89-.72,2,2,0,0,1,.94-.24,2,2,0,0,1,.9.18,1.53,1.53,0,0,1,.6.49,2.16,2.16,0,0,1,.33.72,4.75,4.75,0,0,1,.1,1Z"/><path d="M89.79,60.84a.61.61,0,0,1-.12.41.44.44,0,0,1-.34.13h-3.2a2.33,2.33,0,0,0,.08.62,1.22,1.22,0,0,0,.25.48,1.19,1.19,0,0,0,.45.3,2.08,2.08,0,0,0,.66.1,3.37,3.37,0,0,0,.68-.06l.51-.12.36-.13a.6.6,0,0,1,.23-.06l.09,0a.28.28,0,0,1,.06.08,1.3,1.3,0,0,1,0,.15,1.85,1.85,0,0,1,0,.25,1.62,1.62,0,0,1,0,.23c0,.06,0,.11,0,.16a.36.36,0,0,1,0,.11l-.06.08a.83.83,0,0,1-.21.12,3.88,3.88,0,0,1-.44.14,4.39,4.39,0,0,1-.61.12,5.46,5.46,0,0,1-.73,0,3.8,3.8,0,0,1-1.23-.18,2.16,2.16,0,0,1-.88-.55,2.25,2.25,0,0,1-.53-.92,4.68,4.68,0,0,1-.17-1.31,4.39,4.39,0,0,1,.18-1.3,2.75,2.75,0,0,1,.53-1,2.26,2.26,0,0,1,.85-.61A2.87,2.87,0,0,1,87.3,58a2.75,2.75,0,0,1,1.13.2,1.9,1.9,0,0,1,.77.55,2.29,2.29,0,0,1,.45.83,3.86,3.86,0,0,1,.14,1.05Zm-1.44-.43a1.61,1.61,0,0,0-.25-1,1,1,0,0,0-.83-.36,1.12,1.12,0,0,0-.5.11,1,1,0,0,0-.34.29,1.25,1.25,0,0,0-.22.43,2.34,2.34,0,0,0-.08.54Z"/><path d="M92.51,63a1.08,1.08,0,0,1-.19.75,1,1,0,0,1-.69.19.94.94,0,0,1-.68-.19,1,1,0,0,1-.19-.72,1.16,1.16,0,0,1,.19-.76,1,1,0,0,1,.7-.19,1,1,0,0,1,.68.19A1.09,1.09,0,0,1,92.51,63Z"/><path d="M95.5,63a1.08,1.08,0,0,1-.19.75,1,1,0,0,1-.69.19.92.92,0,0,1-.68-.19,1,1,0,0,1-.19-.72,1.11,1.11,0,0,1,.19-.76,1,1,0,0,1,.69-.19,1,1,0,0,1,.68.19A1,1,0,0,1,95.5,63Z"/><path d="M98.49,63a1.13,1.13,0,0,1-.19.75,1.35,1.35,0,0,1-1.38,0,1,1,0,0,1-.19-.72,1.1,1.1,0,0,1,.2-.76,1,1,0,0,1,.69-.19,1,1,0,0,1,.68.19A1.08,1.08,0,0,1,98.49,63Z"/></g></g></svg>