<svg xmlns="http://www.w3.org/2000/svg" viewBox="0 0 138.5 91.64"><defs><style>.cls-1{opacity:0.3;}.cls-2{fill:#fff;}.cls-3{fill:#96989b;}.cls-4{fill:#231f20;}</style></defs><g id="Capa_2" data-name="Capa 2"><g id="Capa_1-2" data-name="Capa 1"><path class="cls-1" d="M3.1,14.35C9.15,4.72,23.25,8.12,34,8.1Q36.92,8,40,7.89c14.11-.64,30-2.18,43.09-1a65.79,65.79,0,0,1,8.81,1.31c26,9.29,16.76,29.7,15.26,47.14,3.9,5.05,11.42,11.33,25.27,12.82,0,0-13.92,1.17-24.7,4.83-.48,6.49-3,12.49-12.24,16.63a28.7,28.7,0,0,1-7.42.89c-2.74.1-5.42.1-8.06.06s-5.24-.14-7.84-.25A172.42,172.42,0,0,0,49,90.3l-5.8.28C30.39,90.23,13.07,96,6,83.82-3,69.07,2.81,51.11.68,34.68.47,32.87.26,31.08.13,29.3-.26,24,.08,18.89,3.1,14.35Z"/><path class="cls-2" d="M7.15,8.68C13.2-1,27.3,2.44,38.08,2.43Q41,2.35,44,2.22C58.12,1.58,74,0,87.1,1.17a65.79,65.79,0,0,1,8.81,1.31C118.73,10.63,114.4,27.36,112,43.12a12.81,12.81,0,0,0,5,12.17c4.39,3.29,10.65,6.2,19.5,7.14a135.09,135.09,0,0,0-19.52,3.31,8.11,8.11,0,0,0-5.86,5.79c-1.25,4.82-4.35,9.16-11.56,12.37a28.28,28.28,0,0,1-7.42.88c-2.74.11-5.42.11-8.06.07s-5.24-.15-7.84-.25a170.78,170.78,0,0,0-23.18,0l-5.8.28c-12.76-.35-30.08,5.42-37.13-6.77C1.09,63.4,6.86,45.44,4.73,29c-.21-1.81-.42-3.61-.55-5.38C3.79,18.31,4.13,13.21,7.15,8.68Z"/><path class="cls-3" d="M112.34,48.57a12.84,12.84,0,0,1-2.76-10c1.39-9.08,3.41-18.47.52-26.36,6.14,8.67,3.56,20,1.89,31A12.65,12.65,0,0,0,112.34,48.57Z"/><path class="cls-3" d="M44.8,80.31,50.6,80a170.64,170.64,0,0,1,23.17,0c2.61.1,5.21.2,7.85.25s5.31,0,8.06-.07a28.15,28.15,0,0,0,7.41-.88c7.22-3.21,10.32-7.55,11.57-12.37a8.09,8.09,0,0,1,5.86-5.79c3.15-.82,6.34-1.45,9.2-1.94a42.92,42.92,0,0,0,12.72,3.23,135.09,135.09,0,0,0-19.52,3.31,8.11,8.11,0,0,0-5.86,5.79c-1.25,4.82-4.35,9.16-11.56,12.37a28.28,28.28,0,0,1-7.42.88c-2.74.11-5.42.11-8.06.07s-5.24-.15-7.84-.25a170.78,170.78,0,0,0-23.18,0l-5.8.28c-12.76-.35-30.08,5.42-37.13-6.77A31.41,31.41,0,0,1,7.94,74C15.16,85.57,32.19,80,44.8,80.31Z"/><path class="cls-4" d="M9.41,78.54c-6-9.8-5.54-21.08-5.14-32A105.65,105.65,0,0,0,4,29.1c-.22-1.85-.43-3.65-.56-5.41-.34-4.81-.25-10.4,3.1-15.43C11.56.22,22,.84,31.2,1.38c2.42.15,4.71.28,6.86.28,1.8,0,3.73-.11,5.91-.21,3.41-.15,7-.36,10.48-.57C65.62.22,77.18-.46,87.16.4a65.43,65.43,0,0,1,8.92,1.33l.09,0c22,7.85,19.46,23.4,17.06,38.44-.17,1-.33,2-.48,3a12,12,0,0,0,4.65,11.44A32.43,32.43,0,0,0,135,61.48l3.52.47c-.1,0-11.82,2.41-21.23,4.84a7.16,7.16,0,0,0-5.46,4.94c-1.51,5.81-5.33,9.9-12,12.87l-.12,0a29.27,29.27,0,0,1-7.58.91c-2.51.09-5.16.11-8.1.06-2.72,0-5.37-.14-7.9-.25A170.89,170.89,0,0,0,53,85.4l-1.24.06c-1.53.07-3,.15-4.62.21A96.51,96.51,0,0,0,37,86.18c-3.25.28-6.54.56-9.7.56C19.94,86.74,13.27,85.21,9.41,78.54Zm37.76,5.6,4.55-.21L53,83.86a171.71,171.71,0,0,1,23.24,0c2.48.1,5.13.2,7.83.25,2.91,0,5.53,0,8-.06a27.21,27.21,0,0,0,7.15-.85c6.18-2.76,9.7-6.52,11.08-11.83A8.9,8.9,0,0,1,116.73,65a127.31,127.31,0,0,1,14.15-2.68,37.19,37.19,0,0,1-14.4-6.41A13.53,13.53,0,0,1,111.23,43c.15-1,.32-2,.48-3,2.41-15.07,4.69-29.32-16-36.74A67.21,67.21,0,0,0,87,1.93c-9.87-.85-21.37-.17-32.49.48-3.48.21-7.08.42-10.5.57-2.19.1-4.14.17-6,.21-2.22,0-4.53-.13-7-.27C21.9,2.37,12.37,1.8,7.8,9.09h0C4.69,13.75,4.61,19,4.94,23.57c.13,1.74.34,3.52.55,5.34A107.67,107.67,0,0,1,5.8,46.6C5.39,57.78,5,68.34,10.73,77.76c5,8.7,15.77,7.78,26.15,6.9,3.19-.28,6.23-.54,9.08-.54Z"/><path d="M29.87,32.44a3.51,3.51,0,0,1,.19-1.2,2.71,2.71,0,0,1,.53-.92,2.65,2.65,0,0,1,.82-.62,3.09,3.09,0,0,1,1.06-.3l.07-1.57c0-.1.08-.17.23-.22a2.13,2.13,0,0,1,.64-.07h.45a1.68,1.68,0,0,1,.29,0,.27.27,0,0,1,.15.09.34.34,0,0,1,.06.15l.07,1.9a1.68,1.68,0,0,1,0,.42.57.57,0,0,1-.11.26.38.38,0,0,1-.22.13.91.91,0,0,1-.3,0h-.12a1.88,1.88,0,0,0-.74.14,1.57,1.57,0,0,0-.51.36,1.44,1.44,0,0,0-.29.53,2.39,2.39,0,0,0-.1.66,2.3,2.3,0,0,0,.11.71,1.68,1.68,0,0,0,.33.55,1.42,1.42,0,0,0,.56.36,2.11,2.11,0,0,0,.79.13,3.11,3.11,0,0,0,.72-.08,3,3,0,0,0,.55-.18,2.57,2.57,0,0,0,.37-.18.62.62,0,0,1,.23-.08.17.17,0,0,1,.11,0,.26.26,0,0,1,.08.13,1.43,1.43,0,0,1,0,.28c0,.12,0,.27,0,.45a3.66,3.66,0,0,1,0,.41.42.42,0,0,1-.11.21,1.21,1.21,0,0,1-.31.19,3.65,3.65,0,0,1-.54.2,5.6,5.6,0,0,1-.7.16,5.32,5.32,0,0,1-.81.06,4.43,4.43,0,0,1-1.63-.26,3.1,3.1,0,0,1-1.11-.7,2.72,2.72,0,0,1-.63-1A3.49,3.49,0,0,1,29.87,32.44Zm2.39-6.92a2.28,2.28,0,0,1,.05-.56.77.77,0,0,1,.18-.36.79.79,0,0,1,.36-.2,2.55,2.55,0,0,1,1.1,0,.75.75,0,0,1,.35.2.78.78,0,0,1,.19.36,2.9,2.9,0,0,1,0,.56,3.1,3.1,0,0,1,0,.57.87.87,0,0,1-.19.37.75.75,0,0,1-.35.2,2.55,2.55,0,0,1-1.1,0,.79.79,0,0,1-.36-.2.86.86,0,0,1-.18-.37A2.42,2.42,0,0,1,32.26,25.52Z"/><path d="M44.19,33.25c0,.16,0,.29,0,.4a.83.83,0,0,1-.06.25A.39.39,0,0,1,44,34a.24.24,0,0,1-.13.05H38.63a.69.69,0,0,1-.45-.16.67.67,0,0,1-.18-.52v-9.1a.67.67,0,0,1,.18-.52.68.68,0,0,1,.45-.15h5.21a.2.2,0,0,1,.13,0,.27.27,0,0,1,.1.14.83.83,0,0,1,.06.26c0,.1,0,.24,0,.4a3.79,3.79,0,0,1,0,.38.7.7,0,0,1-.06.25.36.36,0,0,1-.1.15.2.2,0,0,1-.13,0H40.11v2.55h3.16a.21.21,0,0,1,.13,0,.27.27,0,0,1,.1.13.83.83,0,0,1,.06.25,2.3,2.3,0,0,1,0,.39,2.12,2.12,0,0,1,0,.38.7.7,0,0,1-.06.25.23.23,0,0,1-.1.13.2.2,0,0,1-.13,0H40.11v3h3.77a.24.24,0,0,1,.13,0,.32.32,0,0,1,.1.14.76.76,0,0,1,.06.25C44.18,33,44.19,33.1,44.19,33.25Z"/><path d="M52.82,33.81a.19.19,0,0,1,0,.14.28.28,0,0,1-.16.1,1.06,1.06,0,0,1-.31.06,6,6,0,0,1-1,0,1,1,0,0,1-.31-.06.35.35,0,0,1-.17-.1.23.23,0,0,1,0-.14V29.7a3.47,3.47,0,0,0-.08-.82,1.89,1.89,0,0,0-.22-.52,1.1,1.1,0,0,0-.38-.33,1.27,1.27,0,0,0-.54-.11,1.33,1.33,0,0,0-.78.28A4.21,4.21,0,0,0,48,29v4.79a.24.24,0,0,1,0,.14.31.31,0,0,1-.17.1,1.13,1.13,0,0,1-.31.06,6,6,0,0,1-1,0,1.06,1.06,0,0,1-.31-.06A.31.31,0,0,1,46,34a.24.24,0,0,1-.05-.14v-7.2a.29.29,0,0,1,0-.14.28.28,0,0,1,.15-.1.9.9,0,0,1,.27-.06,2.49,2.49,0,0,1,.41,0,2.62,2.62,0,0,1,.43,0,.83.83,0,0,1,.27.06.27.27,0,0,1,.13.1.21.21,0,0,1,0,.14v.83a4.73,4.73,0,0,1,1.21-1,2.83,2.83,0,0,1,1.29-.32,2.89,2.89,0,0,1,1.24.24,2.14,2.14,0,0,1,.82.66,2.78,2.78,0,0,1,.44,1,5.25,5.25,0,0,1,.14,1.34Z"/><path d="M65.39,36.67a.24.24,0,0,1,0,.14.33.33,0,0,1-.16.11,1.1,1.1,0,0,1-.31.07,3.28,3.28,0,0,1-.49,0,3.43,3.43,0,0,1-.5,0,1.19,1.19,0,0,1-.31-.07.33.33,0,0,1-.16-.11.23.23,0,0,1,0-.14V33.25c-.2.17-.39.33-.57.46a2.81,2.81,0,0,1-.55.32,1.93,1.93,0,0,1-.56.18,3.11,3.11,0,0,1-.62.06A2.68,2.68,0,0,1,59.73,34a2.5,2.5,0,0,1-.91-.86,3.76,3.76,0,0,1-.52-1.26,7.46,7.46,0,0,1-.16-1.52,6.56,6.56,0,0,1,.21-1.73A3.88,3.88,0,0,1,59,27.27a2.72,2.72,0,0,1,1-.83,3,3,0,0,1,1.36-.29,2.78,2.78,0,0,1,.58.06,2.21,2.21,0,0,1,.55.21,4.15,4.15,0,0,1,.57.39c.19.16.41.35.65.58v-.78a.21.21,0,0,1,0-.14.28.28,0,0,1,.15-.1.77.77,0,0,1,.26-.06,2.56,2.56,0,0,1,.42,0,2.49,2.49,0,0,1,.41,0,.83.83,0,0,1,.26.06.3.3,0,0,1,.14.1.29.29,0,0,1,0,.14Zm-2-7.67a4.15,4.15,0,0,0-.84-.84,1.35,1.35,0,0,0-.83-.29,1.13,1.13,0,0,0-.69.2,1.45,1.45,0,0,0-.46.52,2.93,2.93,0,0,0-.25.74,3.93,3.93,0,0,0-.09.84,5.06,5.06,0,0,0,.07.88,2.78,2.78,0,0,0,.24.77,1.53,1.53,0,0,0,.44.53,1.18,1.18,0,0,0,.7.2,1.34,1.34,0,0,0,.4-.06,1.71,1.71,0,0,0,.41-.2,2.61,2.61,0,0,0,.42-.36,7.19,7.19,0,0,0,.48-.54Z"/><path d="M74.26,33.81a.23.23,0,0,1,0,.14.26.26,0,0,1-.14.1.9.9,0,0,1-.27.06,2.49,2.49,0,0,1-.41,0,2.76,2.76,0,0,1-.44,0,.83.83,0,0,1-.26-.06.3.3,0,0,1-.14-.1.33.33,0,0,1,0-.14V33a4.56,4.56,0,0,1-1.21,1,2.79,2.79,0,0,1-1.28.32A2.9,2.9,0,0,1,68.78,34a2,2,0,0,1-.81-.66,2.67,2.67,0,0,1-.45-1A5.83,5.83,0,0,1,67.39,31V26.61a.21.21,0,0,1,0-.14.32.32,0,0,1,.16-.1,1.22,1.22,0,0,1,.32-.06,6,6,0,0,1,1,0,1.13,1.13,0,0,1,.31.06.35.35,0,0,1,.17.1.22.22,0,0,1,0,.14v4.07a3.83,3.83,0,0,0,.07.86,1.49,1.49,0,0,0,.22.51,1,1,0,0,0,.38.34,1.27,1.27,0,0,0,.54.11,1.33,1.33,0,0,0,.78-.28,4.86,4.86,0,0,0,.83-.82V26.61a.22.22,0,0,1,.05-.14.25.25,0,0,1,.16-.1,1.06,1.06,0,0,1,.31-.06,6,6,0,0,1,1,0,1.13,1.13,0,0,1,.31.06.28.28,0,0,1,.16.1.22.22,0,0,1,.05.14Z"/><path d="M83,30a.79.79,0,0,1-.17.55.59.59,0,0,1-.46.18H78a3.09,3.09,0,0,0,.11.83,1.53,1.53,0,0,0,.35.64,1.48,1.48,0,0,0,.61.4,2.66,2.66,0,0,0,.9.14,5.15,5.15,0,0,0,.94-.08,6.57,6.57,0,0,0,.7-.17l.48-.17a1,1,0,0,1,.32-.08.21.21,0,0,1,.12,0,.21.21,0,0,1,.08.1.56.56,0,0,1,0,.21,2.92,2.92,0,0,1,0,.33c0,.12,0,.22,0,.31a1.18,1.18,0,0,1,0,.21.54.54,0,0,1,0,.15.94.94,0,0,1-.09.12.81.81,0,0,1-.28.15,3.9,3.9,0,0,1-.6.19,7.22,7.22,0,0,1-.83.16,6.5,6.5,0,0,1-1,.07A5.32,5.32,0,0,1,78.05,34a2.91,2.91,0,0,1-1.93-2,6.34,6.34,0,0,1,0-3.49,3.62,3.62,0,0,1,.73-1.31A3.1,3.1,0,0,1,78,26.43a4,4,0,0,1,1.54-.28,4.13,4.13,0,0,1,1.54.26,2.93,2.93,0,0,1,1.06.74,3.1,3.1,0,0,1,.6,1.12,4.85,4.85,0,0,1,.2,1.41Zm-2-.58a2.12,2.12,0,0,0-.35-1.35,1.32,1.32,0,0,0-1.13-.48,1.45,1.45,0,0,0-.68.14,1.38,1.38,0,0,0-.47.39,1.67,1.67,0,0,0-.29.58,2.85,2.85,0,0,0-.12.72Zm-1.14-6.35a.64.64,0,0,1,.13-.15.68.68,0,0,1,.21-.1,1.76,1.76,0,0,1,.3-.06H81a4.4,4.4,0,0,1,.58,0,.82.82,0,0,1,.31.09.15.15,0,0,1,.08.15.24.24,0,0,1-.08.16l-1.56,1.88-.13.13a.68.68,0,0,1-.17.09l-.25,0a2.3,2.3,0,0,1-.39,0l-.45,0a.59.59,0,0,1-.23-.08.14.14,0,0,1,0-.13.43.43,0,0,1,.08-.19Z"/><path d="M35.11,46.26a3.32,3.32,0,0,1,0,.35,1.57,1.57,0,0,1,0,.24A.53.53,0,0,1,35,47a.66.66,0,0,1-.12.16,2.64,2.64,0,0,1-.33.22,3.37,3.37,0,0,1-.54.24,3.85,3.85,0,0,1-.65.17,4.18,4.18,0,0,1-.72.07,4,4,0,0,1-1.47-.26,2.71,2.71,0,0,1-1.08-.77,3.3,3.3,0,0,1-.66-1.23,5.61,5.61,0,0,1-.22-1.66,5.77,5.77,0,0,1,.27-1.87,3.59,3.59,0,0,1,.75-1.3A3.07,3.07,0,0,1,31.39,40a4,4,0,0,1,1.46-.25,3.36,3.36,0,0,1,.63.06,2.59,2.59,0,0,1,.58.15,2.67,2.67,0,0,1,.48.22,1.34,1.34,0,0,1,.31.21.64.64,0,0,1,.12.15.52.52,0,0,1,.06.15l0,.24c0,.1,0,.21,0,.35a1.67,1.67,0,0,1-.08.65c-.05.13-.12.19-.21.19a.46.46,0,0,1-.29-.11,4.37,4.37,0,0,0-.36-.25,2.59,2.59,0,0,0-.5-.25,1.87,1.87,0,0,0-.7-.11,1.38,1.38,0,0,0-1.21.61,3.12,3.12,0,0,0-.42,1.78,4.52,4.52,0,0,0,.11,1,2.09,2.09,0,0,0,.31.74,1.37,1.37,0,0,0,.51.45,1.67,1.67,0,0,0,.73.15,1.75,1.75,0,0,0,.72-.13,2.91,2.91,0,0,0,.53-.27l.38-.28a.42.42,0,0,1,.26-.13.21.21,0,0,1,.12,0,.35.35,0,0,1,.08.15c0,.07,0,.17,0,.28S35.11,46.08,35.11,46.26Z"/><path d="M43.78,43.73a5.59,5.59,0,0,1-.24,1.68,3.66,3.66,0,0,1-.74,1.31,3.21,3.21,0,0,1-1.24.84,4.57,4.57,0,0,1-1.73.3,4.92,4.92,0,0,1-1.67-.26A3,3,0,0,1,37,46.82a3.18,3.18,0,0,1-.7-1.25,5.84,5.84,0,0,1-.22-1.7,5.59,5.59,0,0,1,.24-1.68A3.82,3.82,0,0,1,37,40.88,3.37,3.37,0,0,1,38.27,40a4.63,4.63,0,0,1,1.74-.3,5,5,0,0,1,1.68.26,3.1,3.1,0,0,1,1.17.77A3.2,3.2,0,0,1,43.55,42,5.83,5.83,0,0,1,43.78,43.73Zm-2.09.08a5,5,0,0,0-.09-1,2.07,2.07,0,0,0-.29-.78,1.47,1.47,0,0,0-.53-.52,2.06,2.06,0,0,0-1.64,0,1.36,1.36,0,0,0-.55.49,2.19,2.19,0,0,0-.33.76,4.52,4.52,0,0,0-.11,1,5,5,0,0,0,.09,1,2.48,2.48,0,0,0,.28.78,1.46,1.46,0,0,0,.54.51,2.06,2.06,0,0,0,1.64,0,1.47,1.47,0,0,0,.56-.49,2.21,2.21,0,0,0,.32-.76A4.49,4.49,0,0,0,41.69,43.81Z"/><path d="M52.26,47.4a.21.21,0,0,1,0,.14.36.36,0,0,1-.17.11l-.31.06-.49,0-.49,0-.31-.06a.29.29,0,0,1-.16-.11.17.17,0,0,1,0-.14V43.29a3.47,3.47,0,0,0-.08-.82,1.71,1.71,0,0,0-.22-.51.87.87,0,0,0-.38-.33,1.12,1.12,0,0,0-.53-.12,1.36,1.36,0,0,0-.79.28,4,4,0,0,0-.82.83V47.4a.22.22,0,0,1-.05.14.32.32,0,0,1-.17.11l-.31.06-.49,0-.49,0-.31-.06a.32.32,0,0,1-.17-.11.22.22,0,0,1,0-.14V40.2a.33.33,0,0,1,0-.14.36.36,0,0,1,.15-.1.9.9,0,0,1,.27-.06l.42,0,.42,0A.83.83,0,0,1,47,40a.34.34,0,0,1,.13.1.23.23,0,0,1,0,.14V41a4.6,4.6,0,0,1,1.22-1,2.79,2.79,0,0,1,1.28-.32,2.86,2.86,0,0,1,1.24.24,2.14,2.14,0,0,1,.82.66,2.79,2.79,0,0,1,.45,1A5.85,5.85,0,0,1,52.26,43Z"/><path d="M59.33,45.37a2.45,2.45,0,0,1-.23,1.08,2.23,2.23,0,0,1-.65.78,3,3,0,0,1-1,.48,5,5,0,0,1-1.25.15,4.81,4.81,0,0,1-.77-.06,5.38,5.38,0,0,1-.66-.15,4,4,0,0,1-.48-.19,1,1,0,0,1-.28-.18.57.57,0,0,1-.14-.27,2.34,2.34,0,0,1-.05-.54,3.41,3.41,0,0,1,0-.37,1.2,1.2,0,0,1,0-.23.35.35,0,0,1,.08-.11.28.28,0,0,1,.13,0,.72.72,0,0,1,.26.1,4.19,4.19,0,0,0,.43.22,3.42,3.42,0,0,0,.6.23,2.67,2.67,0,0,0,.78.11,1.83,1.83,0,0,0,.49-.06,1.25,1.25,0,0,0,.37-.16.62.62,0,0,0,.24-.27.87.87,0,0,0,.08-.37.64.64,0,0,0-.15-.42,1.54,1.54,0,0,0-.39-.3,5,5,0,0,0-.56-.24l-.64-.25A5.46,5.46,0,0,1,55,44a2.1,2.1,0,0,1-.55-.43A1.89,1.89,0,0,1,54,43a2.35,2.35,0,0,1-.15-.88,2.23,2.23,0,0,1,.2-.94,2.1,2.1,0,0,1,.58-.74,2.73,2.73,0,0,1,.93-.48,4.18,4.18,0,0,1,1.22-.17,4.65,4.65,0,0,1,.66,0,4.56,4.56,0,0,1,.58.12,2.61,2.61,0,0,1,.43.16,1.16,1.16,0,0,1,.26.14.6.6,0,0,1,.11.12.54.54,0,0,1,0,.15l0,.21a2.54,2.54,0,0,1,0,.31,3.36,3.36,0,0,1,0,.36.87.87,0,0,1,0,.21.19.19,0,0,1-.07.11.24.24,0,0,1-.12,0,.59.59,0,0,1-.22-.08l-.39-.19-.53-.18a2.84,2.84,0,0,0-.69-.08,2.28,2.28,0,0,0-.48,0,1,1,0,0,0-.33.17.72.72,0,0,0-.19.24.82.82,0,0,0-.07.31.6.6,0,0,0,.16.41,1.14,1.14,0,0,0,.4.3,5.12,5.12,0,0,0,.57.25l.65.24a6.25,6.25,0,0,1,.64.31,2.48,2.48,0,0,1,.57.44,2.09,2.09,0,0,1,.41.62A2.19,2.19,0,0,1,59.33,45.37Z"/><path d="M63,37.76a1.14,1.14,0,0,1-.25.85,1.34,1.34,0,0,1-.93.23,1.39,1.39,0,0,1-.92-.22,1.1,1.1,0,0,1-.24-.82A1.14,1.14,0,0,1,61,37a1.33,1.33,0,0,1,.93-.24,1.38,1.38,0,0,1,.92.23A1.13,1.13,0,0,1,63,37.76Zm-.15,9.64a.22.22,0,0,1,0,.14.33.33,0,0,1-.16.11l-.32.06-.49,0-.49,0-.31-.06a.32.32,0,0,1-.17-.11.22.22,0,0,1,0-.14V40.22a.22.22,0,0,1,0-.14.38.38,0,0,1,.17-.11,1.61,1.61,0,0,1,.31-.07l.49,0,.49,0a1.73,1.73,0,0,1,.32.07.41.41,0,0,1,.16.11.22.22,0,0,1,0,.14Z"/><path d="M70,45.37a2.45,2.45,0,0,1-.23,1.08,2.23,2.23,0,0,1-.65.78,3,3,0,0,1-1,.48,4.84,4.84,0,0,1-1.24.15,4.72,4.72,0,0,1-.77-.06,5,5,0,0,1-.66-.15,4,4,0,0,1-.48-.19,1.34,1.34,0,0,1-.29-.18.57.57,0,0,1-.13-.27,1.89,1.89,0,0,1-.05-.54c0-.15,0-.28,0-.37a1.14,1.14,0,0,1,0-.23.24.24,0,0,1,.08-.11l.12,0a.76.76,0,0,1,.27.1,4.19,4.19,0,0,0,.43.22,3.42,3.42,0,0,0,.6.23,2.67,2.67,0,0,0,.78.11,1.83,1.83,0,0,0,.49-.06,1.38,1.38,0,0,0,.37-.16.78.78,0,0,0,.24-.27.87.87,0,0,0,.08-.37.64.64,0,0,0-.15-.42,1.44,1.44,0,0,0-.4-.3,4.77,4.77,0,0,0-.55-.24l-.64-.25a5.46,5.46,0,0,1-.64-.32,2.32,2.32,0,0,1-.56-.43,2,2,0,0,1-.39-.62,2.35,2.35,0,0,1-.15-.88,2.23,2.23,0,0,1,.2-.94,2,2,0,0,1,.58-.74,2.56,2.56,0,0,1,.93-.48,4.18,4.18,0,0,1,1.22-.17,4.77,4.77,0,0,1,.66,0,4.06,4.06,0,0,1,.57.12,2.43,2.43,0,0,1,.44.16,1.45,1.45,0,0,1,.26.14.35.35,0,0,1,.1.12.33.33,0,0,1,.05.15q0,.09,0,.21a2.82,2.82,0,0,1,0,.31c0,.15,0,.26,0,.36a.87.87,0,0,1,0,.21.16.16,0,0,1-.08.11.2.2,0,0,1-.11,0,.69.69,0,0,1-.23-.08,3.33,3.33,0,0,0-.38-.19l-.53-.18a2.84,2.84,0,0,0-.69-.08,2.21,2.21,0,0,0-.48,0,1,1,0,0,0-.33.17.61.61,0,0,0-.19.24.67.67,0,0,0-.07.31.56.56,0,0,0,.16.41,1.14,1.14,0,0,0,.4.3,5.12,5.12,0,0,0,.57.25c.21.07.43.15.64.24a5.51,5.51,0,0,1,.65.31,2.71,2.71,0,0,1,.57.44,1.89,1.89,0,0,1,.4.62A2,2,0,0,1,70,45.37Z"/><path d="M75.59,46.69a2.62,2.62,0,0,1,0,.55.57.57,0,0,1-.12.26.55.55,0,0,1-.21.14,2.27,2.27,0,0,1-.34.11l-.41.07-.45,0a3.32,3.32,0,0,1-1-.15,1.76,1.76,0,0,1-.73-.48,2,2,0,0,1-.43-.8,4.25,4.25,0,0,1-.14-1.15V41.57h-.86a.25.25,0,0,1-.23-.19,1.59,1.59,0,0,1-.08-.63,2.36,2.36,0,0,1,0-.4.76.76,0,0,1,.06-.25.23.23,0,0,1,.1-.13.21.21,0,0,1,.14,0h.85V38.32a.3.3,0,0,1,0-.15.28.28,0,0,1,.16-.1A1.09,1.09,0,0,1,72.2,38l.48,0,.5,0a1,1,0,0,1,.31.07.28.28,0,0,1,.16.1.3.3,0,0,1,0,.15v1.61h1.57a.23.23,0,0,1,.14,0,.28.28,0,0,1,.1.13.76.76,0,0,1,.06.25c0,.11,0,.24,0,.4a1.8,1.8,0,0,1-.08.63.25.25,0,0,1-.23.19H73.7V45a1.62,1.62,0,0,0,.19.88.71.71,0,0,0,.66.3,1.29,1.29,0,0,0,.29,0l.23-.07.17-.06.12,0a.17.17,0,0,1,.1,0,.19.19,0,0,1,.07.11c0,.06,0,.13,0,.23A3.57,3.57,0,0,1,75.59,46.69Z"/><path d="M83.51,43.59a.79.79,0,0,1-.16.55.62.62,0,0,1-.46.18H78.51a3,3,0,0,0,.1.83,1.58,1.58,0,0,0,.35.64,1.45,1.45,0,0,0,.61.4,2.7,2.7,0,0,0,.9.14,5.15,5.15,0,0,0,.94-.08,4.8,4.8,0,0,0,.7-.17,3.88,3.88,0,0,0,.49-.17.88.88,0,0,1,.31-.07.21.21,0,0,1,.12,0s.06.05.09.1a.69.69,0,0,1,0,.2,3.33,3.33,0,0,1,0,.34,2.63,2.63,0,0,1,0,.3,1.25,1.25,0,0,1,0,.21.53.53,0,0,1,0,.15l-.08.12a.89.89,0,0,1-.29.15,3.9,3.9,0,0,1-.6.19,7.1,7.1,0,0,1-.83.17,7.91,7.91,0,0,1-1,.06,5.32,5.32,0,0,1-1.68-.24,2.89,2.89,0,0,1-1.21-.73,3,3,0,0,1-.72-1.25,5.76,5.76,0,0,1-.24-1.76,5.52,5.52,0,0,1,.25-1.73,3.69,3.69,0,0,1,.72-1.31A3.31,3.31,0,0,1,78.57,40a4.18,4.18,0,0,1,1.54-.28,4,4,0,0,1,1.55.27,2.6,2.6,0,0,1,1,.74,2.86,2.86,0,0,1,.61,1.11,4.91,4.91,0,0,1,.19,1.41Zm-2-.58a2.07,2.07,0,0,0-.34-1.34,1.34,1.34,0,0,0-1.14-.49,1.57,1.57,0,0,0-.67.14,1.43,1.43,0,0,0-.48.4,1.85,1.85,0,0,0-.29.58,2.35,2.35,0,0,0-.11.71Z"/><path d="M44.75,51.69c0,.17,0,.3,0,.41a.77.77,0,0,1-.06.26.37.37,0,0,1-.11.15.18.18,0,0,1-.12.05H41v2.81h3.21a.17.17,0,0,1,.12,0,.33.33,0,0,1,.11.14.76.76,0,0,1,.06.25c0,.11,0,.25,0,.41s0,.29,0,.4a.9.9,0,0,1-.06.27.37.37,0,0,1-.11.15.17.17,0,0,1-.12,0H41V61a.3.3,0,0,1-.05.16.38.38,0,0,1-.17.11,1.68,1.68,0,0,1-.33.07l-.52,0-.51,0a2.09,2.09,0,0,1-.33-.07.45.45,0,0,1-.17-.11.3.3,0,0,1,0-.16V51.49a.65.65,0,0,1,.18-.51.64.64,0,0,1,.45-.16h4.92a.18.18,0,0,1,.12,0,.4.4,0,0,1,.11.14.9.9,0,0,1,.06.27C44.74,51.4,44.75,51.53,44.75,51.69Z"/><path d="M52.45,58.14a3.25,3.25,0,0,1-.3,1.44,3,3,0,0,1-.83,1,3.58,3.58,0,0,1-1.23.63,5.23,5.23,0,0,1-1.5.21,5.34,5.34,0,0,1-1-.09,5.09,5.09,0,0,1-.82-.22,3.33,3.33,0,0,1-.59-.26,1.71,1.71,0,0,1-.35-.24.7.7,0,0,1-.14-.3,2.79,2.79,0,0,1,0-.57c0-.17,0-.31,0-.42a1.43,1.43,0,0,1,.05-.28.28.28,0,0,1,.1-.15.21.21,0,0,1,.14,0,.68.68,0,0,1,.32.13,4.54,4.54,0,0,0,.53.3,5.47,5.47,0,0,0,.77.29,3.58,3.58,0,0,0,1,.13,2.53,2.53,0,0,0,.7-.09,1.59,1.59,0,0,0,.52-.26,1.14,1.14,0,0,0,.33-.42,1.43,1.43,0,0,0,.11-.56,1.05,1.05,0,0,0-.19-.61,1.87,1.87,0,0,0-.51-.45,5.09,5.09,0,0,0-.7-.37L48,56.61a7.23,7.23,0,0,1-.82-.44,3,3,0,0,1-.7-.59,2.79,2.79,0,0,1-.51-.81,3.32,3.32,0,0,1,.09-2.44,2.6,2.6,0,0,1,.75-.95A3.22,3.22,0,0,1,48,50.82a5,5,0,0,1,1.36-.18,6.3,6.3,0,0,1,.75,0,5,5,0,0,1,.69.16,3.11,3.11,0,0,1,.57.21,1.25,1.25,0,0,1,.33.21.53.53,0,0,1,.11.13.53.53,0,0,1,.05.15.78.78,0,0,1,0,.24c0,.09,0,.21,0,.35s0,.29,0,.39,0,.2,0,.27a.35.35,0,0,1-.08.15.2.2,0,0,1-.15,0,.59.59,0,0,1-.28-.11,5.15,5.15,0,0,0-.48-.25,3.71,3.71,0,0,0-.65-.24,3,3,0,0,0-.81-.11,1.82,1.82,0,0,0-.61.09,1.11,1.11,0,0,0-.43.23.93.93,0,0,0-.26.36,1.12,1.12,0,0,0-.09.44,1,1,0,0,0,.19.61,1.87,1.87,0,0,0,.51.45,7.08,7.08,0,0,0,.73.37l.82.37a7.23,7.23,0,0,1,.82.44,3.15,3.15,0,0,1,.72.59,2.74,2.74,0,0,1,.51.8A2.85,2.85,0,0,1,52.45,58.14Z"/><path d="M66.25,61a.28.28,0,0,1,0,.15.34.34,0,0,1-.16.1,1.61,1.61,0,0,1-.31.07l-.5,0-.48,0a1.61,1.61,0,0,1-.31-.07.4.4,0,0,1-.16-.1.3.3,0,0,1-.05-.15v-8.5h0L61.2,61a.42.42,0,0,1-.11.18.43.43,0,0,1-.19.1,1.3,1.3,0,0,1-.32.06h-.47l-.47,0a1.18,1.18,0,0,1-.32-.07.75.75,0,0,1-.2-.1A.37.37,0,0,1,59,61L56.1,52.48h0V61a.3.3,0,0,1-.05.15.34.34,0,0,1-.16.1,1.8,1.8,0,0,1-.31.07l-.49,0-.49,0a1.8,1.8,0,0,1-.31-.07.4.4,0,0,1-.16-.1.28.28,0,0,1,0-.15V51.67A.85.85,0,0,1,54.3,51a.78.78,0,0,1,.58-.22h1.39a2.86,2.86,0,0,1,.63.06,1.29,1.29,0,0,1,.46.2,1.23,1.23,0,0,1,.33.38,2.61,2.61,0,0,1,.22.57l2.26,6.22h0L62.55,52a2.81,2.81,0,0,1,.23-.57,1.27,1.27,0,0,1,.29-.38.92.92,0,0,1,.39-.21,2.06,2.06,0,0,1,.52-.06h1.43a1.08,1.08,0,0,1,.38.06.76.76,0,0,1,.26.16.89.89,0,0,1,.15.27,1,1,0,0,1,0,.36Z"/><path d="M74.38,53.29a3.51,3.51,0,0,1-.19,1.2,2.71,2.71,0,0,1-.53.92,2.65,2.65,0,0,1-.82.62,3.09,3.09,0,0,1-1.06.3l-.07,1.57c0,.1-.08.17-.23.22a2.13,2.13,0,0,1-.64.07h-.45l-.29,0a.27.27,0,0,1-.15-.09.34.34,0,0,1-.06-.15L69.82,56a1.72,1.72,0,0,1,0-.42.57.57,0,0,1,.11-.26.45.45,0,0,1,.22-.13.91.91,0,0,1,.3,0h.12a1.88,1.88,0,0,0,.74-.14,1.57,1.57,0,0,0,.51-.36,1.44,1.44,0,0,0,.29-.53,2.07,2.07,0,0,0,.1-.66,2.3,2.3,0,0,0-.11-.71,1.53,1.53,0,0,0-.33-.55,1.42,1.42,0,0,0-.56-.36,2.11,2.11,0,0,0-.79-.13,3,3,0,0,0-.72.08,4.45,4.45,0,0,0-.55.18,2.57,2.57,0,0,0-.37.18.62.62,0,0,1-.23.08.17.17,0,0,1-.11,0,.26.26,0,0,1-.08-.13,1.43,1.43,0,0,1,0-.28c0-.12,0-.27,0-.45a2,2,0,0,1,0-.41.35.35,0,0,1,.1-.21,1.21,1.21,0,0,1,.31-.19,3.65,3.65,0,0,1,.54-.2,5.6,5.6,0,0,1,.7-.16,5.32,5.32,0,0,1,.81-.06,4.43,4.43,0,0,1,1.63.26,3.1,3.1,0,0,1,1.11.7,2.72,2.72,0,0,1,.63,1A3.49,3.49,0,0,1,74.38,53.29ZM72,60.21a2.28,2.28,0,0,1,0,.56.68.68,0,0,1-.18.36.79.79,0,0,1-.36.2,2.55,2.55,0,0,1-1.1,0,.75.75,0,0,1-.35-.2.78.78,0,0,1-.19-.36,2.9,2.9,0,0,1-.05-.56,3.1,3.1,0,0,1,.05-.57.87.87,0,0,1,.19-.37.75.75,0,0,1,.35-.2,2.55,2.55,0,0,1,1.1,0,.79.79,0,0,1,.36.2.76.76,0,0,1,.18.37A2.42,2.42,0,0,1,72,60.21Z"/></g></g></svg>