<svg xmlns="http://www.w3.org/2000/svg" viewBox="0 0 40 40"><defs><style>.cls-1{fill:#00877a;}.cls-2{fill:#eef7da;}</style></defs><g id="Capa_2" data-name="Capa 2"><g id="Capa_1-2" data-name="Capa 1"><circle class="cls-1" cx="20" cy="20" r="20" transform="translate(-2.95 36.54) rotate(-80.78)"/><path class="cls-2" d="M12.33,13.89a2.32,2.32,0,0,1,2.11-1.65,2.23,2.23,0,0,1,2.12,1.65l3.87,10.75a2.29,2.29,0,0,1,.16.73,1.32,1.32,0,0,1-1.36,1.31,1.4,1.4,0,0,1-1.45-1l-.59-1.86h-5.5l-.59,1.84a1.37,1.37,0,0,1-1.42,1.05,1.43,1.43,0,0,1-1.47-1.39,1.49,1.49,0,0,1,.15-.65Zm.22,7.17H16.3l-1.83-5.73h-.05Z"/><path class="cls-2" d="M30.61,19.38a1.19,1.19,0,0,1,0,2.38H22.5a1.19,1.19,0,1,1,0-2.38Z"/></g></g></svg>