<svg xmlns="http://www.w3.org/2000/svg" viewBox="0 0 40 40"><defs><style>.cls-1{fill:#00877a;}.cls-2{fill:#eef7da;}</style></defs><g id="Capa_2" data-name="Capa 2"><g id="Capa_1-2" data-name="Capa 1"><circle class="cls-1" cx="20" cy="20" r="20" transform="translate(-2.95 36.54) rotate(-80.78)"/><path class="cls-2" d="M25.74,32.38H14.26a2.69,2.69,0,0,1-2.69-2.68V11.91a2.69,2.69,0,0,1,2.69-2.68H15a.58.58,0,0,1,0,1.16h-.78a1.53,1.53,0,0,0-1.53,1.52V29.7a1.53,1.53,0,0,0,1.53,1.52H25.74a1.53,1.53,0,0,0,1.53-1.52V11.91a1.53,1.53,0,0,0-1.53-1.52H25a.58.58,0,0,1,0-1.16h.71a2.69,2.69,0,0,1,2.69,2.68V29.7A2.69,2.69,0,0,1,25.74,32.38Z"/><path class="cls-2" d="M23.57,12.52H16.43a.58.58,0,0,1-.58-.58V7.81a.58.58,0,0,1,.58-.58h7.14a.58.58,0,0,1,.58.58v4.13A.58.58,0,0,1,23.57,12.52ZM17,11.36h6v-3H17Z"/><path class="cls-2" d="M20.25,7.82a.25.25,0,1,1-.5,0,.25.25,0,0,1,.5,0Z"/><path class="cls-2" d="M25.39,16.33H14.61a.58.58,0,1,1,0-1.16H25.39a.58.58,0,0,1,0,1.16Z"/><path class="cls-2" d="M25.39,20.62H14.61a.58.58,0,1,1,0-1.16H25.39a.58.58,0,0,1,0,1.16Z"/><path class="cls-2" d="M25.39,24.91H14.61a.58.58,0,1,1,0-1.16H25.39a.58.58,0,0,1,0,1.16Z"/><path class="cls-2" d="M19.54,30.43l-.14,0a.58.58,0,0,1-.43-.49,1.79,1.79,0,0,0-1.06-1.32.58.58,0,0,1,.41-1.09,2.72,2.72,0,0,1,1.41,1.2c.74-.79,2-1.84,3.39-1.58a.58.58,0,0,1-.21,1.14c-1.11-.2-2.47,1.31-2.9,1.91A.56.56,0,0,1,19.54,30.43Z"/></g></g></svg>