<svg xmlns="http://www.w3.org/2000/svg" viewBox="0 0 40 40"><defs><style>.cls-1{fill:#00877a;}.cls-2{fill:#eef7da;}</style></defs><g id="Capa_2" data-name="Capa 2"><g id="Capa_1-2" data-name="Capa 1"><circle class="cls-1" cx="20" cy="20" r="20" transform="translate(-2.95 36.54) rotate(-80.78)"/><path class="cls-2" d="M12.4,14a2.3,2.3,0,0,1,2.11-1.64A2.24,2.24,0,0,1,16.63,14L20.5,24.78a2.23,2.23,0,0,1,.16.73,1.32,1.32,0,0,1-1.37,1.31,1.39,1.39,0,0,1-1.44-1l-.59-1.86h-5.5l-.59,1.84a1.39,1.39,0,0,1-1.42,1.05,1.42,1.42,0,0,1-1.47-1.39,1.53,1.53,0,0,1,.14-.65Zm.22,7.18h3.74l-1.83-5.74h0Z"/><path class="cls-2" d="M25.43,16.65a1.19,1.19,0,1,1,2.37,0v2.87h2.87a1.19,1.19,0,0,1,0,2.37H27.8v2.87a1.19,1.19,0,0,1-2.37,0V21.89H22.56a1.19,1.19,0,1,1,0-2.37h2.87Z"/></g></g></svg>