<svg xmlns="http://www.w3.org/2000/svg" viewBox="0 0 40 40"><defs><style>.cls-1{fill:#00877a;}.cls-2{fill:#eef7da;}</style></defs><g id="Capa_2" data-name="Capa 2"><g id="Capa_1-2" data-name="Capa 1"><circle class="cls-1" cx="20" cy="20" r="20" transform="translate(-2.95 36.54) rotate(-80.78)"/><path class="cls-2" d="M9.69,31.15a2,2,0,0,1-1.71-3l7.35-12.54a.79.79,0,0,0-.13-1l-2.32-2.33a2,2,0,0,1,1.4-3.39H27.94a2,2,0,0,1,2,2V24.57h0A2,2,0,0,1,26.54,26l-2.33-2.33a.8.8,0,0,0-1-.12L10.7,30.87A2,2,0,0,1,9.69,31.15Zm4.59-21a.78.78,0,0,0-.74.5.79.79,0,0,0,.17.88L16,13.81a2,2,0,0,1,.31,2.41L9,28.75a.79.79,0,0,0,.13,1,.76.76,0,0,0,1,.12l12.54-7.34a2,2,0,0,1,2.41.31l2.32,2.32a.78.78,0,0,0,.88.18.81.81,0,0,0,.5-.75V10.92a.8.8,0,0,0-.8-.81Z"/></g></g></svg>