<svg xmlns="http://www.w3.org/2000/svg" viewBox="0 0 170.96 113.12"><defs><style>.cls-1{opacity:0.3;}.cls-2{fill:#fff;}.cls-3{fill:#a4a6a9;}.cls-4{fill:#221f20;}</style></defs><g id="Capa_2" data-name="Capa 2"><g id="Capa_1-2" data-name="Capa 1"><path class="cls-1" d="M167.13,17.71C159.67,5.82,142.26,10,129,10c-2.38-.06-4.83-.15-7.32-.26-17.42-.79-37-2.69-53.18-1.3a82,82,0,0,0-10.89,1.62C25.48,21.52,36.88,46.72,38.73,68.25c-4.81,6.23-14.1,14-31.2,15.82,0,0,17.19,1.44,30.5,6,.59,8,3.64,15.43,15.11,20.53a34.57,34.57,0,0,0,9.15,1.1c3.39.12,6.69.13,9.95.07s6.47-.17,9.69-.3c9.48-.83,19-.43,28.6,0l7.16.34c15.76-.44,37.13,6.69,45.84-8.35,11.08-18.21,4-40.37,6.58-60.65.27-2.23.53-4.45.69-6.64C171.27,29.61,170.86,23.31,167.13,17.71Z"/><path class="cls-2" d="M162.13,10.71C154.67-1.18,137.26,3,124,3c-2.38-.05-4.83-.14-7.31-.25C99.21,2,79.61.05,63.45,1.44A80,80,0,0,0,52.57,3.06C24.4,13.12,29.75,33.77,32.72,53.22a15.78,15.78,0,0,1-6.11,15C21.2,72.31,13.46,75.9,2.53,77.07a167.25,167.25,0,0,1,24.11,4.07,10,10,0,0,1,7.22,7.16c1.55,5.94,5.38,11.3,14.28,15.26a34.58,34.58,0,0,0,9.15,1.09c3.39.13,6.7.14,9.95.08s6.47-.17,9.69-.3c9.48-.83,19-.43,28.6,0l7.16.34c15.76-.44,37.13,6.69,45.84-8.35,11.08-18.21,4-40.37,6.59-60.65.26-2.24.52-4.45.68-6.64C166.27,22.61,165.86,16.31,162.13,10.71Z"/><path class="cls-3" d="M32.29,60a15.84,15.84,0,0,0,3.4-12.4C34,36.34,31.49,24.75,35.05,15c-7.58,10.7-4.39,24.74-2.33,38.21A15.86,15.86,0,0,1,32.29,60Z"/><path class="cls-3" d="M115.66,99.13l-7.16-.34c-9.55-.47-19.12-.87-28.61,0-3.21.13-6.42.25-9.68.3s-6.56,0-9.95-.07a34.57,34.57,0,0,1-9.15-1.1c-8.91-4-12.74-9.32-14.28-15.26a10,10,0,0,0-7.23-7.15c-3.89-1-7.83-1.79-11.36-2.39a53.65,53.65,0,0,1-15.71,4,167.25,167.25,0,0,1,24.11,4.07,10,10,0,0,1,7.22,7.16c1.55,5.94,5.38,11.3,14.28,15.26a34.58,34.58,0,0,0,9.15,1.09c3.39.13,6.7.14,9.95.08s6.47-.17,9.69-.3c9.48-.83,19-.43,28.6,0l7.16.34c15.76-.44,37.13,6.69,45.84-8.35a38.29,38.29,0,0,0,2.62-5.14C152.24,105.62,131.22,98.7,115.66,99.13Z"/><path class="cls-4" d="M137.25,107.07c-3.9,0-8-.34-12-.69a116.32,116.32,0,0,0-12.55-.63l-5.7-.26-1.53-.08c-10.17-.49-19.33-.84-28.48,0-3.12.13-6.4.25-9.75.31-3.63.06-6.9,0-10-.08a35.73,35.73,0,0,1-9.36-1.13l-.14,0C39.52,100.76,34.81,95.71,33,88.54c-.83-3.17-3.53-5.27-6.75-6.1-11.62-3-26.08-6-26.2-6l4.34-.58c9.37-1,15.4-3.67,21.71-8.4a14.82,14.82,0,0,0,5.74-14.12c-.19-1.25-.39-2.5-.59-3.76-3-18.56-6.05-37.76,21.05-47.45l.11,0A81.35,81.35,0,0,1,63.36.5C75.69-.56,90,.28,103.75,1.09c4.29.25,8.72.51,12.93.7,2.69.12,5.08.21,7.29.26,2.66,0,5.49-.16,8.47-.34C143.81,1,156.69.27,162.92,10.2c4.14,6.21,4.25,13.11,3.82,19-.16,2.17-.41,4.4-.68,6.68-.91,7-.64,14.39-.38,21.53.5,13.47,1,27.41-6.34,39.5C154.57,105.18,146.35,107.07,137.25,107.07Zm-23-3.23c3.52,0,7.27.32,11.21.66,12.81,1.09,26.06,2.22,32.28-8.52,7.08-11.62,6.59-24.66,6.08-38.46-.26-7.22-.54-14.68.39-21.83.26-2.25.52-4.45.67-6.59.41-5.62.31-12.13-3.51-17.86v0c-5.64-9-17.4-8.3-28.78-7.62-3,.18-5.86.34-8.6.34-2.25,0-4.65-.13-7.36-.26-4.22-.19-8.66-.45-13-.7-13.73-.81-27.93-1.64-40.11-.59A80.63,80.63,0,0,0,52.83,4C27.27,13.13,30.08,30.71,33.06,49.31c.21,1.26.41,2.52.6,3.77A16.72,16.72,0,0,1,27.18,69,45.68,45.68,0,0,1,9.41,76.91a155,155,0,0,1,17.46,3.32,11,11,0,0,1,7.91,7.83c1.7,6.55,6,11.19,13.68,14.6a33.69,33.69,0,0,0,8.82,1c3.11.11,6.35.14,10,.08,3.33-.06,6.6-.19,9.66-.31,9.23-.8,18.45-.46,28.69,0l1.53.08,5.62.26Z"/><path d="M61,36.73v3.33a.21.21,0,0,1,0,.13.34.34,0,0,1-.16.1l-.29.06-.47,0-.47,0-.29-.06a.34.34,0,0,1-.16-.1.2.2,0,0,1,0-.13V36.73l-2.6-5.17a2.87,2.87,0,0,1-.18-.42.21.21,0,0,1,.05-.22.51.51,0,0,1,.31-.1l.63,0,.54,0a2,2,0,0,1,.32.05.56.56,0,0,1,.17.11.85.85,0,0,1,.1.17l1.06,2.33c.1.22.2.46.3.71l.31.78h0c.09-.26.19-.52.29-.77s.19-.48.28-.71l1-2.31a1.14,1.14,0,0,1,.09-.19.42.42,0,0,1,.17-.11,1,1,0,0,1,.3-.06l.5,0,.65,0a.55.55,0,0,1,.32.1.22.22,0,0,1,0,.23,2.44,2.44,0,0,1-.18.41Z"/><path d="M73.68,36.62a.73.73,0,0,1-.15.5.57.57,0,0,1-.41.16h-4a2.59,2.59,0,0,0,.1.76,1.37,1.37,0,0,0,.31.57,1.48,1.48,0,0,0,.56.37,2.43,2.43,0,0,0,.81.12,4.22,4.22,0,0,0,.85-.07,4,4,0,0,0,.64-.15l.44-.16a1,1,0,0,1,.29-.07.2.2,0,0,1,.11,0,.22.22,0,0,1,.07.09.78.78,0,0,1,0,.19,2.63,2.63,0,0,1,0,.3,2.35,2.35,0,0,1,0,.28,1,1,0,0,1,0,.19.47.47,0,0,1,0,.14l-.08.1a.79.79,0,0,1-.26.14,3.16,3.16,0,0,1-.54.17,6,6,0,0,1-.76.15,6.37,6.37,0,0,1-.9.06,4.7,4.7,0,0,1-1.53-.22,2.77,2.77,0,0,1-1.1-.66,2.8,2.8,0,0,1-.65-1.13,5.69,5.69,0,0,1,0-3.17,3.36,3.36,0,0,1,.66-1.19,2.9,2.9,0,0,1,1-.74,3.64,3.64,0,0,1,1.4-.25,3.69,3.69,0,0,1,1.4.24A2.44,2.44,0,0,1,73,34a2.54,2.54,0,0,1,.55,1,4.35,4.35,0,0,1,.18,1.28Zm-1.79-.53a1.88,1.88,0,0,0-.31-1.22,1.22,1.22,0,0,0-1-.44,1.31,1.31,0,0,0-.61.13,1.26,1.26,0,0,0-.43.36,1.43,1.43,0,0,0-.27.52,2.76,2.76,0,0,0-.1.65Z"/><path d="M79.49,38.23a2.17,2.17,0,0,1-.21,1,1.9,1.9,0,0,1-.58.71,2.64,2.64,0,0,1-.91.43,4,4,0,0,1-1.12.14,3.91,3.91,0,0,1-.7-.05,5.39,5.39,0,0,1-.6-.14,3.41,3.41,0,0,1-.44-.17,1.3,1.3,0,0,1-.26-.17.54.54,0,0,1-.12-.24,2,2,0,0,1,0-.49,3.33,3.33,0,0,1,0-.34.88.88,0,0,1,0-.2.17.17,0,0,1,.08-.1.18.18,0,0,1,.11,0,.6.6,0,0,1,.24.09,3.43,3.43,0,0,0,.39.2,3.59,3.59,0,0,0,.54.21,2.6,2.6,0,0,0,.71.09,1.52,1.52,0,0,0,.44,0,1.16,1.16,0,0,0,.34-.14.63.63,0,0,0,.21-.25.7.7,0,0,0,.08-.33.56.56,0,0,0-.14-.38,1,1,0,0,0-.36-.27,2.59,2.59,0,0,0-.5-.22l-.58-.23a6.27,6.27,0,0,1-.58-.29,2.11,2.11,0,0,1-.5-.39,1.85,1.85,0,0,1-.36-.57,2.07,2.07,0,0,1-.14-.79,1.89,1.89,0,0,1,.71-1.53,2.56,2.56,0,0,1,.84-.43,3.82,3.82,0,0,1,1.11-.15,3.94,3.94,0,0,1,.6,0,3.65,3.65,0,0,1,.52.11,2.3,2.3,0,0,1,.4.14l.23.13.1.11a.47.47,0,0,1,0,.14c0,.05,0,.11,0,.19s0,.17,0,.28,0,.24,0,.32a.88.88,0,0,1,0,.2.2.2,0,0,1-.07.1l-.1,0a.46.46,0,0,1-.21-.07,2.3,2.3,0,0,0-.35-.17,3.85,3.85,0,0,0-.48-.16,2,2,0,0,0-.63-.08,1.81,1.81,0,0,0-.43,0,.71.71,0,0,0-.3.15.51.51,0,0,0-.17.22.66.66,0,0,0-.06.27.54.54,0,0,0,.14.39,1.3,1.3,0,0,0,.36.27c.15.07.33.15.52.22s.39.14.59.22a5.12,5.12,0,0,1,.58.28,2.25,2.25,0,0,1,.52.4,1.69,1.69,0,0,1,.36.56A1.83,1.83,0,0,1,79.49,38.23Z"/><path d="M87.18,36.74A4.92,4.92,0,0,1,87,38.27a3,3,0,0,1-.66,1.18,2.88,2.88,0,0,1-1.12.77,4.25,4.25,0,0,1-1.58.27,4.31,4.31,0,0,1-1.51-.24,2.66,2.66,0,0,1-1.07-.7,2.76,2.76,0,0,1-.63-1.14,5.15,5.15,0,0,1-.21-1.53,4.91,4.91,0,0,1,.23-1.53,3.1,3.1,0,0,1,.67-1.19,2.93,2.93,0,0,1,1.11-.76,4.2,4.2,0,0,1,1.57-.27,4.4,4.4,0,0,1,1.53.23,2.73,2.73,0,0,1,1.06.7A3,3,0,0,1,87,35.2,5.18,5.18,0,0,1,87.18,36.74Zm-1.89.08a4.82,4.82,0,0,0-.08-.89,2.14,2.14,0,0,0-.26-.71,1.23,1.23,0,0,0-.49-.47,1.55,1.55,0,0,0-.76-.17,1.62,1.62,0,0,0-.72.15,1.32,1.32,0,0,0-.5.44,1.93,1.93,0,0,0-.3.7,3.71,3.71,0,0,0-.1.92,4.82,4.82,0,0,0,.08.89,2.06,2.06,0,0,0,.26.71,1.23,1.23,0,0,0,.49.47,1.84,1.84,0,0,0,1.48,0,1.25,1.25,0,0,0,.51-.43,2.11,2.11,0,0,0,.29-.7A3.71,3.71,0,0,0,85.29,36.82Z"/><path d="M97.63,42.67a.2.2,0,0,1,0,.13.36.36,0,0,1-.15.1.9.9,0,0,1-.28.06,3,3,0,0,1-.45,0,2.76,2.76,0,0,1-.44,0A.9.9,0,0,1,96,42.9a.3.3,0,0,1-.15-.1.2.2,0,0,1,0-.13V39.56q-.27.24-.51.42a3.89,3.89,0,0,1-.5.3,2.5,2.5,0,0,1-.51.16,2.59,2.59,0,0,1-.56.05,2.38,2.38,0,0,1-1.23-.29,2.35,2.35,0,0,1-.82-.78,3.25,3.25,0,0,1-.46-1.14,6.21,6.21,0,0,1-.15-1.38,5.82,5.82,0,0,1,.19-1.57,3.54,3.54,0,0,1,.56-1.19,2.42,2.42,0,0,1,.9-.75A2.7,2.7,0,0,1,94,33.13a2.24,2.24,0,0,1,.52,0,2,2,0,0,1,.49.19,3.65,3.65,0,0,1,.52.35c.18.15.37.32.59.53v-.71a.2.2,0,0,1,0-.13.48.48,0,0,1,.13-.09,1.11,1.11,0,0,1,.24,0l.38,0,.37,0a1.11,1.11,0,0,1,.24,0,.31.31,0,0,1,.12.09.2.2,0,0,1,0,.13Zm-1.83-7A4.17,4.17,0,0,0,95,35a1.23,1.23,0,0,0-.76-.26,1.15,1.15,0,0,0-.62.17,1.28,1.28,0,0,0-.41.48A2.43,2.43,0,0,0,93,36a3.84,3.84,0,0,0-.08.76,5.18,5.18,0,0,0,.07.8,2.3,2.3,0,0,0,.22.7,1.26,1.26,0,0,0,.4.48,1,1,0,0,0,.63.18,1.57,1.57,0,0,0,.37,0A1.51,1.51,0,0,0,95,38.7a1.9,1.9,0,0,0,.39-.33c.13-.13.27-.3.43-.49Z"/><path d="M105.38,40.08a.17.17,0,0,1,0,.12.24.24,0,0,1-.13.1,1.11,1.11,0,0,1-.24.05l-.37,0-.4,0a1.11,1.11,0,0,1-.24-.05.4.4,0,0,1-.12-.1.25.25,0,0,1,0-.12v-.76a4.09,4.09,0,0,1-1.1.88,2.4,2.4,0,0,1-1.16.29,2.53,2.53,0,0,1-1.13-.22,1.82,1.82,0,0,1-.74-.6,2.29,2.29,0,0,1-.4-.88,5.45,5.45,0,0,1-.12-1.25v-4a.2.2,0,0,1,0-.13.33.33,0,0,1,.14-.09,1.55,1.55,0,0,1,.29,0l.44,0,.45,0,.28,0a.49.49,0,0,1,.15.09.2.2,0,0,1,0,.13v3.69a3.74,3.74,0,0,0,.07.79,1.29,1.29,0,0,0,.2.46.92.92,0,0,0,.35.3,1.06,1.06,0,0,0,.48.11,1.22,1.22,0,0,0,.71-.26,4.32,4.32,0,0,0,.76-.74V33.54a.2.2,0,0,1,0-.13.42.42,0,0,1,.14-.09,1.72,1.72,0,0,1,.29,0l.44,0,.45,0a1.43,1.43,0,0,1,.28,0,.33.33,0,0,1,.14.09.21.21,0,0,1,0,.13Z"/><path d="M113,36.62a.73.73,0,0,1-.15.5.57.57,0,0,1-.42.16h-4a3,3,0,0,0,.1.76,1.39,1.39,0,0,0,.32.57,1.41,1.41,0,0,0,.56.37,2.39,2.39,0,0,0,.81.12,4.29,4.29,0,0,0,.85-.07,4,4,0,0,0,.64-.15l.44-.16a1,1,0,0,1,.28-.07.18.18,0,0,1,.11,0,.24.24,0,0,1,.08.09.78.78,0,0,1,0,.19c0,.08,0,.18,0,.3a2.35,2.35,0,0,1,0,.28,1,1,0,0,1,0,.19.46.46,0,0,1,0,.14.3.3,0,0,1-.07.1.79.79,0,0,1-.26.14,3.16,3.16,0,0,1-.54.17,6.54,6.54,0,0,1-1.67.21,4.64,4.64,0,0,1-1.52-.22,2.7,2.7,0,0,1-1.1-.66,2.8,2.8,0,0,1-.65-1.13,5.16,5.16,0,0,1-.22-1.6,4.84,4.84,0,0,1,.23-1.57,3.36,3.36,0,0,1,.66-1.19,2.74,2.74,0,0,1,1-.74,4.09,4.09,0,0,1,2.79,0,2.48,2.48,0,0,1,1,.67,2.67,2.67,0,0,1,.55,1,4.35,4.35,0,0,1,.18,1.28Zm-1.79-.53a1.94,1.94,0,0,0-.31-1.22,1.22,1.22,0,0,0-1-.44,1.28,1.28,0,0,0-.61.13,1.29,1.29,0,0,0-.44.36,1.59,1.59,0,0,0-.26.52,2.76,2.76,0,0,0-.11.65Z"/><path d="M123.51,40.08a.17.17,0,0,1,0,.12.36.36,0,0,1-.15.1,1.43,1.43,0,0,1-.28.05l-.44,0-.45,0a1.3,1.3,0,0,1-.28-.05.36.36,0,0,1-.15-.1.18.18,0,0,1,0-.12V36.35a3,3,0,0,0-.07-.75,1.29,1.29,0,0,0-.2-.46.83.83,0,0,0-.34-.3,1.06,1.06,0,0,0-.48-.11,1.13,1.13,0,0,0-.71.26,4,4,0,0,0-.75.74v4.35a.18.18,0,0,1-.05.12.36.36,0,0,1-.15.1,1.43,1.43,0,0,1-.28.05l-.44,0-.45,0a1.43,1.43,0,0,1-.28-.05.36.36,0,0,1-.15-.1.18.18,0,0,1,0-.12V33.54a.2.2,0,0,1,0-.13.36.36,0,0,1,.13-.09l.25,0,.37,0,.39,0a1.11,1.11,0,0,1,.24,0,.31.31,0,0,1,.12.09.28.28,0,0,1,0,.13v.76a4.09,4.09,0,0,1,1.1-.88,2.42,2.42,0,0,1,1.17-.29,2.51,2.51,0,0,1,1.12.22,1.89,1.89,0,0,1,.74.59,2.55,2.55,0,0,1,.41.88,5.41,5.41,0,0,1,.12,1.22Z"/><path d="M131.63,36.74a5.23,5.23,0,0,1-.22,1.53,3.19,3.19,0,0,1-.67,1.18,2.88,2.88,0,0,1-1.12.77,4.2,4.2,0,0,1-1.57.27,4.33,4.33,0,0,1-1.52-.24,2.66,2.66,0,0,1-1.07-.7,3,3,0,0,1-.63-1.14,5.16,5.16,0,0,1-.2-1.53,4.92,4.92,0,0,1,.22-1.53,3.23,3.23,0,0,1,.67-1.19,3,3,0,0,1,1.12-.76,4.16,4.16,0,0,1,1.57-.27,4.38,4.38,0,0,1,1.52.23,2.77,2.77,0,0,1,1.07.7,2.86,2.86,0,0,1,.62,1.14A5.17,5.17,0,0,1,131.63,36.74Zm-1.9.08a4.82,4.82,0,0,0-.08-.89,1.94,1.94,0,0,0-.26-.71,1.27,1.27,0,0,0-.48-.47,1.62,1.62,0,0,0-.77-.17,1.66,1.66,0,0,0-.72.15,1.32,1.32,0,0,0-.5.44,2.35,2.35,0,0,0-.3.7,4.25,4.25,0,0,0-.1.92,4.82,4.82,0,0,0,.08.89,2.28,2.28,0,0,0,.26.71,1.3,1.3,0,0,0,.49.47,1.61,1.61,0,0,0,.76.16,1.67,1.67,0,0,0,.73-.15,1.29,1.29,0,0,0,.5-.43,2.35,2.35,0,0,0,.3-.7A4.28,4.28,0,0,0,129.73,36.82Z"/><path d="M139.74,39.43a2.17,2.17,0,0,1,0,.5.54.54,0,0,1-.1.24.62.62,0,0,1-.2.12,1.5,1.5,0,0,1-.3.1,3.58,3.58,0,0,1-.37.06l-.41,0a2.75,2.75,0,0,1-.95-.14,1.52,1.52,0,0,1-.67-.43,1.77,1.77,0,0,1-.38-.72,3.61,3.61,0,0,1-.13-1V34.79h-.78a.22.22,0,0,1-.21-.17,1.59,1.59,0,0,1-.08-.58,3.53,3.53,0,0,1,0-.36.64.64,0,0,1,.06-.23.19.19,0,0,1,.09-.12.25.25,0,0,1,.12,0h.78V31.84a.23.23,0,0,1,0-.14.48.48,0,0,1,.15-.1,1.43,1.43,0,0,1,.28-.05,5.07,5.07,0,0,1,.9,0,1.43,1.43,0,0,1,.28.05.48.48,0,0,1,.15.1.33.33,0,0,1,0,.14v1.45h1.42a.28.28,0,0,1,.13,0,.19.19,0,0,1,.09.12,1,1,0,0,1,.05.23,1.94,1.94,0,0,1,0,.36,1.64,1.64,0,0,1-.07.58c0,.11-.12.17-.21.17H138v3.07a1.47,1.47,0,0,0,.17.8.65.65,0,0,0,.6.27,1,1,0,0,0,.26,0l.21-.06.15-.06.12,0,.08,0a.15.15,0,0,1,.06.11.88.88,0,0,1,0,.2A1.67,1.67,0,0,1,139.74,39.43Z"/><path d="M146.63,36.62a.73.73,0,0,1-.15.5.57.57,0,0,1-.41.16h-4a2.59,2.59,0,0,0,.1.76,1.37,1.37,0,0,0,.31.57,1.48,1.48,0,0,0,.56.37,2.43,2.43,0,0,0,.81.12,4.22,4.22,0,0,0,.85-.07,4,4,0,0,0,.64-.15l.44-.16a1,1,0,0,1,.29-.07.2.2,0,0,1,.11,0,.22.22,0,0,1,.07.09.78.78,0,0,1,0,.19,2.63,2.63,0,0,1,0,.3,2.35,2.35,0,0,1,0,.28,1,1,0,0,1,0,.19.47.47,0,0,1,0,.14l-.08.1a.79.79,0,0,1-.26.14,3.16,3.16,0,0,1-.54.17,6,6,0,0,1-.76.15,6.37,6.37,0,0,1-.9.06,4.7,4.7,0,0,1-1.53-.22,2.77,2.77,0,0,1-1.1-.66,2.8,2.8,0,0,1-.65-1.13,5.69,5.69,0,0,1,0-3.17,3.36,3.36,0,0,1,.66-1.19,2.9,2.9,0,0,1,1.05-.74,3.64,3.64,0,0,1,1.4-.25,3.69,3.69,0,0,1,1.4.24,2.37,2.37,0,0,1,1,.67,2.54,2.54,0,0,1,.55,1,4.35,4.35,0,0,1,.18,1.28Zm-1.79-.53a1.88,1.88,0,0,0-.31-1.22,1.22,1.22,0,0,0-1-.44,1.31,1.31,0,0,0-.61.13,1.26,1.26,0,0,0-.43.36,1.43,1.43,0,0,0-.27.52,2.76,2.76,0,0,0-.1.65Z"/><path d="M71,52.41a.18.18,0,0,1,0,.12.39.39,0,0,1-.14.1,1.55,1.55,0,0,1-.29,0l-.44,0-.45,0a1.43,1.43,0,0,1-.28,0,.36.36,0,0,1-.15-.1.17.17,0,0,1,0-.12V48.68a3.52,3.52,0,0,0-.07-.75,1.77,1.77,0,0,0-.2-.46.89.89,0,0,0-.34-.3,1,1,0,0,0-.49-.11,1.23,1.23,0,0,0-.71.25,4.07,4.07,0,0,0-.75.75v4.35a.17.17,0,0,1,0,.12.36.36,0,0,1-.15.1l-.28,0-.45,0-.45,0a1.43,1.43,0,0,1-.28,0,.36.36,0,0,1-.15-.1.17.17,0,0,1,0-.12V42.77a.22.22,0,0,1,0-.13.36.36,0,0,1,.15-.1l.28-.06.45,0,.45,0,.28.06a.36.36,0,0,1,.15.1.22.22,0,0,1,0,.13v3.62a3.34,3.34,0,0,1,1-.7,2.32,2.32,0,0,1,1-.24,2.74,2.74,0,0,1,1.13.22,2,2,0,0,1,.73.6,2.47,2.47,0,0,1,.41.9A5.33,5.33,0,0,1,71,48.4Z"/><path d="M78.49,49a.73.73,0,0,1-.15.5.57.57,0,0,1-.41.16H74a2.59,2.59,0,0,0,.1.76,1.37,1.37,0,0,0,.31.57,1.48,1.48,0,0,0,.56.37,2.49,2.49,0,0,0,.82.12,4.36,4.36,0,0,0,.85-.07,5.9,5.9,0,0,0,.63-.15c.18-.06.33-.11.44-.16A1,1,0,0,1,78,51a.2.2,0,0,1,.11,0,.22.22,0,0,1,.07.09.78.78,0,0,1,0,.19,2.63,2.63,0,0,1,0,.3,2.35,2.35,0,0,1,0,.28,1,1,0,0,1,0,.19.57.57,0,0,1,0,.14l-.08.1a.79.79,0,0,1-.26.14,3.16,3.16,0,0,1-.54.17,6.2,6.2,0,0,1-.75.15,6.62,6.62,0,0,1-.91.06A4.75,4.75,0,0,1,74,52.6,2.66,2.66,0,0,1,73,51.94a2.71,2.71,0,0,1-.66-1.13,5.47,5.47,0,0,1-.22-1.6,5.13,5.13,0,0,1,.23-1.57A3.36,3.36,0,0,1,73,46.45,2.9,2.9,0,0,1,74,45.71a3.64,3.64,0,0,1,1.4-.26,3.69,3.69,0,0,1,1.4.25,2.37,2.37,0,0,1,1,.67,2.54,2.54,0,0,1,.55,1,4.35,4.35,0,0,1,.18,1.28Zm-1.79-.53a1.88,1.88,0,0,0-.31-1.22,1.21,1.21,0,0,0-1-.44,1.31,1.31,0,0,0-.61.13,1.26,1.26,0,0,0-.43.36,1.41,1.41,0,0,0-.26.52,2.33,2.33,0,0,0-.11.65Z"/><path d="M93.19,52.41a.18.18,0,0,1,0,.12.27.27,0,0,1-.14.1,1.43,1.43,0,0,1-.28,0l-.45,0-.45,0a1.43,1.43,0,0,1-.28,0,.36.36,0,0,1-.15-.1.17.17,0,0,1,0-.12V48.53a2.77,2.77,0,0,0-.06-.6,1.48,1.48,0,0,0-.19-.46.91.91,0,0,0-.32-.3.88.88,0,0,0-.47-.11,1.12,1.12,0,0,0-.67.25,5.27,5.27,0,0,0-.73.75v4.35a.17.17,0,0,1,0,.12.36.36,0,0,1-.15.1l-.28,0-.44,0-.45,0a1.43,1.43,0,0,1-.28,0,.36.36,0,0,1-.15-.1.18.18,0,0,1-.05-.12V48.53a2.77,2.77,0,0,0-.06-.6,1.27,1.27,0,0,0-.19-.46.84.84,0,0,0-.32-.3.85.85,0,0,0-.46-.11,1.1,1.1,0,0,0-.67.25,4.37,4.37,0,0,0-.73.75v4.35a.17.17,0,0,1,0,.12.36.36,0,0,1-.15.1l-.28,0-.45,0-.45,0a1.43,1.43,0,0,1-.28,0,.36.36,0,0,1-.15-.1.17.17,0,0,1,0-.12V45.87a.28.28,0,0,1,0-.13.48.48,0,0,1,.13-.09l.25,0,.38,0,.38,0a.89.89,0,0,1,.24,0,.31.31,0,0,1,.12.09.2.2,0,0,1,0,.13v.76a4.18,4.18,0,0,1,1.08-.88,2.27,2.27,0,0,1,1.12-.3,2.75,2.75,0,0,1,.73.09,2.27,2.27,0,0,1,.57.24,1.8,1.8,0,0,1,.44.38,2.41,2.41,0,0,1,.31.49,5.6,5.6,0,0,1,.57-.54,3.37,3.37,0,0,1,.56-.37,2.53,2.53,0,0,1,.55-.22,2.64,2.64,0,0,1,1.66.15,1.93,1.93,0,0,1,.72.6,2.52,2.52,0,0,1,.39.88,4.68,4.68,0,0,1,.12,1.07Z"/><path d="M101.3,49.07a4.92,4.92,0,0,1-.22,1.53,3,3,0,0,1-.66,1.18,3,3,0,0,1-1.12.77,4.25,4.25,0,0,1-1.58.27,4.31,4.31,0,0,1-1.51-.24,2.66,2.66,0,0,1-1.07-.7,2.76,2.76,0,0,1-.63-1.14,5.17,5.17,0,0,1-.21-1.54,4.89,4.89,0,0,1,.23-1.52,3.1,3.1,0,0,1,.67-1.19,2.93,2.93,0,0,1,1.11-.76,4.19,4.19,0,0,1,1.57-.28,4.39,4.39,0,0,1,1.53.24,2.63,2.63,0,0,1,1.06.7,3,3,0,0,1,.63,1.14A5.18,5.18,0,0,1,101.3,49.07Zm-1.89.08a4.82,4.82,0,0,0-.08-.89,2.14,2.14,0,0,0-.26-.71,1.23,1.23,0,0,0-.49-.47,1.55,1.55,0,0,0-.76-.17,1.62,1.62,0,0,0-.72.15,1.32,1.32,0,0,0-.5.44,1.86,1.86,0,0,0-.3.7,3.71,3.71,0,0,0-.1.92,4.82,4.82,0,0,0,.08.89,2.06,2.06,0,0,0,.26.71,1.23,1.23,0,0,0,.49.47,1.84,1.84,0,0,0,1.48,0,1.25,1.25,0,0,0,.51-.43,2.11,2.11,0,0,0,.29-.7A3.71,3.71,0,0,0,99.41,49.15Z"/><path d="M107.06,50.56a2.17,2.17,0,0,1-.21,1,1.92,1.92,0,0,1-.59.71,2.51,2.51,0,0,1-.9.43,4.74,4.74,0,0,1-1.83.09,4,4,0,0,1-.59-.14,3.41,3.41,0,0,1-.44-.17,1.3,1.3,0,0,1-.26-.17.54.54,0,0,1-.12-.24,1.93,1.93,0,0,1-.05-.49,3,3,0,0,1,0-.34.88.88,0,0,1,0-.2.18.18,0,0,1,.19-.13.52.52,0,0,1,.23.09l.4.2a3.59,3.59,0,0,0,.54.21,2.55,2.55,0,0,0,.71.09,1.52,1.52,0,0,0,.44,0,1,1,0,0,0,.34-.15.61.61,0,0,0,.21-.24.7.7,0,0,0,.08-.33.56.56,0,0,0-.14-.38,1.15,1.15,0,0,0-.36-.28l-.5-.22c-.19-.06-.38-.14-.58-.22a6.27,6.27,0,0,1-.58-.29,2.46,2.46,0,0,1-.51-.39,2,2,0,0,1-.35-.57,2.07,2.07,0,0,1-.14-.79,2,2,0,0,1,.18-.86,1.9,1.9,0,0,1,.53-.67,2.38,2.38,0,0,1,.84-.43,3.81,3.81,0,0,1,1.11-.16,4,4,0,0,1,.6,0,3.65,3.65,0,0,1,.52.11,1.92,1.92,0,0,1,.39.14l.24.13.1.11a1.27,1.27,0,0,1,0,.14.92.92,0,0,1,0,.19,1.91,1.91,0,0,1,0,.28,2.58,2.58,0,0,1,0,.32.94.94,0,0,1,0,.2.2.2,0,0,1-.07.1l-.1,0a.46.46,0,0,1-.21-.07,2.3,2.3,0,0,0-.35-.17,3.85,3.85,0,0,0-.48-.16,2,2,0,0,0-.63-.08,1.81,1.81,0,0,0-.43.05.71.71,0,0,0-.3.15.55.55,0,0,0-.18.22.86.86,0,0,0-.05.27.54.54,0,0,0,.14.39,1.3,1.3,0,0,0,.36.27,5.44,5.44,0,0,0,.52.22c.19.06.39.14.58.22a4.53,4.53,0,0,1,.59.28,2.49,2.49,0,0,1,.52.4,1.69,1.69,0,0,1,.36.56A2,2,0,0,1,107.06,50.56Z"/><path d="M111.85,51.76a3,3,0,0,1,0,.5.67.67,0,0,1-.11.24.53.53,0,0,1-.2.12,1.5,1.5,0,0,1-.3.1l-.37.06-.41,0a3,3,0,0,1-1-.14,1.44,1.44,0,0,1-.66-.43,1.65,1.65,0,0,1-.39-.73,3.56,3.56,0,0,1-.13-1V47.12h-.78c-.09,0-.16-.06-.21-.17a1.59,1.59,0,0,1-.08-.58,3.53,3.53,0,0,1,0-.36.64.64,0,0,1,.06-.23.23.23,0,0,1,.09-.12.28.28,0,0,1,.13,0h.77V44.17a.33.33,0,0,1,0-.14.27.27,0,0,1,.15-.09,1,1,0,0,1,.29-.06,2.82,2.82,0,0,1,.44,0,3,3,0,0,1,.45,0,.9.9,0,0,1,.28.06.27.27,0,0,1,.15.09.23.23,0,0,1,0,.14v1.45h1.42a.28.28,0,0,1,.13,0,.23.23,0,0,1,.09.12.64.64,0,0,1,.06.23,3.53,3.53,0,0,1,0,.36,1.59,1.59,0,0,1-.08.58c0,.11-.12.17-.21.17h-1.43v3.07a1.56,1.56,0,0,0,.17.8.65.65,0,0,0,.6.27,1,1,0,0,0,.26,0l.21-.06.16-.06.11,0,.08,0a.19.19,0,0,1,.07.11c0,.05,0,.12,0,.2A3,3,0,0,1,111.85,51.76Z"/><path d="M117.07,46.48c0,.18,0,.32,0,.43s0,.2,0,.27a.32.32,0,0,1-.08.13.21.21,0,0,1-.12,0,.32.32,0,0,1-.13,0l-.17-.06-.2,0a.88.88,0,0,0-.24,0,.7.7,0,0,0-.31.07,1.22,1.22,0,0,0-.32.19,2.28,2.28,0,0,0-.34.35q-.18.23-.39.54v4.08a.17.17,0,0,1,0,.12.36.36,0,0,1-.15.1,1.43,1.43,0,0,1-.28,0l-.45,0-.45,0-.28,0a.36.36,0,0,1-.15-.1.17.17,0,0,1,0-.12V45.87a.28.28,0,0,1,0-.13.42.42,0,0,1,.14-.09,1.11,1.11,0,0,1,.24,0l.38,0,.39,0a.89.89,0,0,1,.23,0,.48.48,0,0,1,.13.09.28.28,0,0,1,0,.13v.82a4.19,4.19,0,0,1,.49-.61,2.86,2.86,0,0,1,.43-.38,1.38,1.38,0,0,1,.41-.19,1.4,1.4,0,0,1,.41-.06l.2,0a1.81,1.81,0,0,1,.23,0l.21.06.12.07a.16.16,0,0,1,.06.08l0,.12c0,.05,0,.13,0,.23Z"/><path d="M123.15,52.43a.19.19,0,0,1-.08.16.41.41,0,0,1-.23.08,2.61,2.61,0,0,1-.46,0,2.72,2.72,0,0,1-.48,0,.34.34,0,0,1-.21-.08.19.19,0,0,1-.07-.16v-.52a2.87,2.87,0,0,1-.92.67,2.64,2.64,0,0,1-1.14.24,3.23,3.23,0,0,1-1-.13,2.1,2.1,0,0,1-.75-.41,1.66,1.66,0,0,1-.5-.66,2.36,2.36,0,0,1-.17-.92,2.07,2.07,0,0,1,.22-1,1.8,1.8,0,0,1,.67-.7,3.37,3.37,0,0,1,1.1-.41,8.56,8.56,0,0,1,1.53-.13h.64v-.39a2.12,2.12,0,0,0-.06-.54,1.22,1.22,0,0,0-.21-.39.89.89,0,0,0-.38-.22,2,2,0,0,0-.59-.08,2.91,2.91,0,0,0-.82.11,4.11,4.11,0,0,0-.65.22l-.46.23a.69.69,0,0,1-.3.1.2.2,0,0,1-.15,0,.36.36,0,0,1-.1-.15.7.7,0,0,1-.06-.23,1.47,1.47,0,0,1,0-.31,1.73,1.73,0,0,1,0-.36.62.62,0,0,1,.14-.23,1.57,1.57,0,0,1,.36-.24,6.22,6.22,0,0,1,.6-.24,6.89,6.89,0,0,1,.75-.18,5.71,5.71,0,0,1,.84-.07,5.43,5.43,0,0,1,1.31.15,2.26,2.26,0,0,1,.9.47,1.72,1.72,0,0,1,.52.8,4,4,0,0,1,.16,1.16Zm-1.81-2.8h-.71a3.39,3.39,0,0,0-.76.07,1.51,1.51,0,0,0-.51.19.88.88,0,0,0-.29.32,1,1,0,0,0-.09.43.82.82,0,0,0,.26.64,1,1,0,0,0,.72.24,1.33,1.33,0,0,0,.71-.2,2.85,2.85,0,0,0,.67-.58Z"/><path d="M130.88,52.41a.2.2,0,0,1,0,.13.19.19,0,0,1-.12.09.72.72,0,0,1-.24,0l-.37,0-.38,0a.72.72,0,0,1-.24,0,.25.25,0,0,1-.13-.09.2.2,0,0,1,0-.13v-.73a4.08,4.08,0,0,1-1.06.84,2.77,2.77,0,0,1-2.49,0,2.41,2.41,0,0,1-.84-.78,3.34,3.34,0,0,1-.47-1.14,6.21,6.21,0,0,1-.15-1.38,5.82,5.82,0,0,1,.19-1.57,3.52,3.52,0,0,1,.54-1.19,2.42,2.42,0,0,1,.9-.75,2.65,2.65,0,0,1,1.23-.27,2.16,2.16,0,0,1,1,.23,3.66,3.66,0,0,1,.89.65V42.8a.23.23,0,0,1,0-.14.35.35,0,0,1,.15-.09,1.26,1.26,0,0,1,.28-.07l.45,0,.44,0a1.26,1.26,0,0,1,.28.07.35.35,0,0,1,.15.09.23.23,0,0,1,0,.14ZM129.05,48a3.88,3.88,0,0,0-.76-.76,1.23,1.23,0,0,0-.76-.26,1,1,0,0,0-.61.17,1.22,1.22,0,0,0-.42.48,2.8,2.8,0,0,0-.24.67,3.84,3.84,0,0,0-.07.76,5.19,5.19,0,0,0,.06.8,2.66,2.66,0,0,0,.22.69,1.22,1.22,0,0,0,.4.49,1,1,0,0,0,.63.18,1.57,1.57,0,0,0,.37,0,1.51,1.51,0,0,0,.36-.18,1.9,1.9,0,0,0,.39-.33c.13-.13.27-.3.43-.49Z"/><path d="M139,49.07a4.92,4.92,0,0,1-.22,1.53,3.19,3.19,0,0,1-.67,1.18,2.91,2.91,0,0,1-1.12.77,4.2,4.2,0,0,1-1.57.27,4.37,4.37,0,0,1-1.52-.24,2.73,2.73,0,0,1-1.07-.7,3,3,0,0,1-.63-1.14,5.53,5.53,0,0,1-.2-1.54,4.9,4.9,0,0,1,.22-1.52,3.23,3.23,0,0,1,.67-1.19,3,3,0,0,1,1.12-.76,4.19,4.19,0,0,1,1.57-.28,4.33,4.33,0,0,1,1.52.24,2.66,2.66,0,0,1,1.07.7,3,3,0,0,1,.63,1.14A5.53,5.53,0,0,1,139,49.07Zm-1.9.08a4.87,4.87,0,0,0-.07-.89,2.14,2.14,0,0,0-.26-.71,1.38,1.38,0,0,0-.49-.47,1.79,1.79,0,0,0-1.48,0,1.28,1.28,0,0,0-.51.44,2.24,2.24,0,0,0-.3.7,4.28,4.28,0,0,0-.09.92A4.09,4.09,0,0,0,134,50a2.06,2.06,0,0,0,.26.71,1.27,1.27,0,0,0,.48.47,1.63,1.63,0,0,0,.77.16,1.66,1.66,0,0,0,.72-.15,1.4,1.4,0,0,0,.51-.43,2.11,2.11,0,0,0,.29-.7A4.28,4.28,0,0,0,137.14,49.15Z"/><path d="M58,63.7c0,.12,0,.23,0,.31s0,.16,0,.22a.72.72,0,0,1,0,.14.32.32,0,0,1-.11.14,1.48,1.48,0,0,1-.3.21,2.49,2.49,0,0,1-.49.21,3.28,3.28,0,0,1-.58.16,3.68,3.68,0,0,1-.66.06,3.52,3.52,0,0,1-1.34-.24,2.43,2.43,0,0,1-1-.69,2.94,2.94,0,0,1-.6-1.12,5,5,0,0,1-.2-1.51,5.3,5.3,0,0,1,.24-1.69,3.18,3.18,0,0,1,.69-1.18,2.63,2.63,0,0,1,1-.7A3.73,3.73,0,0,1,56,57.79a3.66,3.66,0,0,1,.57.05,4.1,4.1,0,0,1,.53.14,3.62,3.62,0,0,1,.44.2,1.19,1.19,0,0,1,.27.19.69.69,0,0,1,.12.14.72.72,0,0,1,0,.14c0,.06,0,.13,0,.22s0,.18,0,.31a1.58,1.58,0,0,1-.08.59c0,.12-.11.18-.19.18a.45.45,0,0,1-.26-.11l-.33-.22a2.37,2.37,0,0,0-.45-.23,1.74,1.74,0,0,0-.63-.1,1.24,1.24,0,0,0-1.1.55,2.81,2.81,0,0,0-.38,1.62,4.31,4.31,0,0,0,.09.93,2,2,0,0,0,.28.68,1.2,1.2,0,0,0,.47.4,1.53,1.53,0,0,0,.66.14,1.6,1.6,0,0,0,.65-.12,2.15,2.15,0,0,0,.48-.25l.35-.25a.37.37,0,0,1,.23-.11.18.18,0,0,1,.11,0,.3.3,0,0,1,.07.14,1.31,1.31,0,0,1,0,.25A3.9,3.9,0,0,1,58,63.7Z"/><path d="M65.6,61.4a4.92,4.92,0,0,1-.22,1.53,3.17,3.17,0,0,1-.66,1.18,3,3,0,0,1-1.12.77,4.25,4.25,0,0,1-1.58.27,4.31,4.31,0,0,1-1.51-.24,2.66,2.66,0,0,1-1.07-.7,2.76,2.76,0,0,1-.63-1.14,5.55,5.55,0,0,1,0-3.06,3.38,3.38,0,0,1,.67-1.19,3,3,0,0,1,1.12-.76,4.19,4.19,0,0,1,1.57-.28,4.39,4.39,0,0,1,1.53.24,2.63,2.63,0,0,1,1.06.7,3,3,0,0,1,.63,1.14A5.53,5.53,0,0,1,65.6,61.4Zm-1.89.08a4.82,4.82,0,0,0-.08-.89,2.14,2.14,0,0,0-.26-.71,1.3,1.3,0,0,0-.49-.47,1.79,1.79,0,0,0-1.48,0,1.35,1.35,0,0,0-.51.44,2,2,0,0,0-.29.7,3.71,3.71,0,0,0-.1.92,4.82,4.82,0,0,0,.08.89,2.06,2.06,0,0,0,.26.71,1.23,1.23,0,0,0,.49.47,1.56,1.56,0,0,0,.76.16,1.59,1.59,0,0,0,.72-.15,1.25,1.25,0,0,0,.51-.43,2.11,2.11,0,0,0,.29-.7A4.25,4.25,0,0,0,63.71,61.48ZM62.46,55a.57.57,0,0,1,.13-.14l.18-.09.28,0,.41,0a3.7,3.7,0,0,1,.53,0,1,1,0,0,1,.28.08s.08.08.07.13a.31.31,0,0,1-.07.16l-1.42,1.7a.68.68,0,0,1-.12.12.52.52,0,0,1-.15.07l-.23,0H62a2.37,2.37,0,0,1-.41,0,.43.43,0,0,1-.21-.07.13.13,0,0,1,0-.12.34.34,0,0,1,.07-.17Z"/><path d="M77.16,64.74a.18.18,0,0,1,0,.12A.36.36,0,0,1,77,65a1.31,1.31,0,0,1-.27.05l-.45,0-.46,0L75.5,65a.27.27,0,0,1-.14-.1.17.17,0,0,1,0-.12V60.86a2.25,2.25,0,0,0-.07-.6,1.27,1.27,0,0,0-.19-.46.84.84,0,0,0-.32-.3.85.85,0,0,0-.46-.11,1.1,1.1,0,0,0-.67.25,4.37,4.37,0,0,0-.73.75v4.35a.18.18,0,0,1,0,.12.36.36,0,0,1-.15.1,1.43,1.43,0,0,1-.28.05L72,65l-.45,0L71.23,65a.36.36,0,0,1-.15-.1.17.17,0,0,1,0-.12V60.86a2.77,2.77,0,0,0-.06-.6,1.48,1.48,0,0,0-.19-.46.84.84,0,0,0-.32-.3.87.87,0,0,0-.46-.11,1.12,1.12,0,0,0-.68.25,4.77,4.77,0,0,0-.72.75v4.35a.18.18,0,0,1,0,.12.36.36,0,0,1-.15.1,1.43,1.43,0,0,1-.28.05l-.45,0-.44,0A1.43,1.43,0,0,1,67,65a.26.26,0,0,1-.15-.1.18.18,0,0,1,0-.12V58.2a.2.2,0,0,1,0-.13.36.36,0,0,1,.13-.09,1.09,1.09,0,0,1,.25,0l.37,0,.39,0a1.11,1.11,0,0,1,.24,0,.31.31,0,0,1,.12.09.28.28,0,0,1,0,.13V59a4.18,4.18,0,0,1,1.08-.88,2.27,2.27,0,0,1,1.12-.3,2.75,2.75,0,0,1,.73.09,2.44,2.44,0,0,1,.57.24,1.88,1.88,0,0,1,.74.87,5.64,5.64,0,0,1,.58-.54,3,3,0,0,1,.56-.37,2.34,2.34,0,0,1,.55-.22,2.59,2.59,0,0,1,.55-.07,2.53,2.53,0,0,1,1.1.22,2.05,2.05,0,0,1,.73.6,2.52,2.52,0,0,1,.39.88,4.68,4.68,0,0,1,.12,1.07Z"/><path d="M85.27,61.4a4.92,4.92,0,0,1-.22,1.53,3.19,3.19,0,0,1-.67,1.18,3,3,0,0,1-1.12.77,4.2,4.2,0,0,1-1.57.27,4.37,4.37,0,0,1-1.52-.24,2.73,2.73,0,0,1-1.07-.7,3,3,0,0,1-.63-1.14,5.53,5.53,0,0,1-.2-1.54A4.9,4.9,0,0,1,78.49,60a3.23,3.23,0,0,1,.67-1.19,3,3,0,0,1,1.12-.76,4.15,4.15,0,0,1,1.57-.28,4.33,4.33,0,0,1,1.52.24,2.66,2.66,0,0,1,1.07.7,2.86,2.86,0,0,1,.62,1.14A5.17,5.17,0,0,1,85.27,61.4Zm-1.9.08a4.87,4.87,0,0,0-.07-.89,2.14,2.14,0,0,0-.27-.71,1.27,1.27,0,0,0-.48-.47,1.79,1.79,0,0,0-1.48,0,1.28,1.28,0,0,0-.51.44,2.24,2.24,0,0,0-.3.7,4.25,4.25,0,0,0-.1.92,4.82,4.82,0,0,0,.08.89,2.56,2.56,0,0,0,.26.71,1.3,1.3,0,0,0,.49.47,1.61,1.61,0,0,0,.76.16,1.67,1.67,0,0,0,.73-.15,1.29,1.29,0,0,0,.5-.43,2.12,2.12,0,0,0,.3-.7A4.28,4.28,0,0,0,83.37,61.48Z"/><path d="M93.46,55.71a2.82,2.82,0,0,1,0,.34.77.77,0,0,1,0,.2.2.2,0,0,1-.07.1l-.08,0-.11,0L93,56.29l-.22,0a1.23,1.23,0,0,0-.29,0,.83.83,0,0,0-.34.06.52.52,0,0,0-.24.2.86.86,0,0,0-.14.35,2.65,2.65,0,0,0-.05.53V58h1.2A.28.28,0,0,1,93,58a.23.23,0,0,1,.09.12.94.94,0,0,1,.06.23c0,.1,0,.22,0,.36a1.64,1.64,0,0,1-.07.58c-.05.11-.12.17-.21.17h-1.2v5.29a.17.17,0,0,1,0,.12.36.36,0,0,1-.15.1,1.3,1.3,0,0,1-.28.05l-.45,0-.44,0a1.55,1.55,0,0,1-.29-.05.27.27,0,0,1-.14-.1.17.17,0,0,1,0-.12V59.45h-.82a.22.22,0,0,1-.21-.17,1.64,1.64,0,0,1-.07-.58,1.94,1.94,0,0,1,0-.36.66.66,0,0,1,0-.23.23.23,0,0,1,.09-.12.21.21,0,0,1,.12,0h.82V57.4A4.47,4.47,0,0,1,90,56.24a2.07,2.07,0,0,1,.41-.84,1.76,1.76,0,0,1,.72-.5,2.88,2.88,0,0,1,1-.17,3.1,3.1,0,0,1,.54.05,1.92,1.92,0,0,1,.4.1.71.71,0,0,1,.2.1.48.48,0,0,1,.09.14,1.19,1.19,0,0,1,0,.24A3.16,3.16,0,0,1,93.46,55.71Z"/><path d="M100.16,64.74a.17.17,0,0,1,0,.12.24.24,0,0,1-.13.1,1.11,1.11,0,0,1-.24.05l-.37,0L99,65a.89.89,0,0,1-.23-.05.34.34,0,0,1-.13-.1.24.24,0,0,1,0-.12V64a4.33,4.33,0,0,1-1.11.88,2.4,2.4,0,0,1-1.16.29,2.56,2.56,0,0,1-1.13-.22,1.89,1.89,0,0,1-.74-.6,2.36,2.36,0,0,1-.4-.88,5.45,5.45,0,0,1-.12-1.25v-4a.2.2,0,0,1,0-.13.33.33,0,0,1,.14-.09,1.55,1.55,0,0,1,.29,0l.44,0,.45,0a1.43,1.43,0,0,1,.28,0,.49.49,0,0,1,.15.09.21.21,0,0,1,0,.13v3.69a3.88,3.88,0,0,0,.06.79,1.29,1.29,0,0,0,.2.46.92.92,0,0,0,.35.3,1.06,1.06,0,0,0,.48.11,1.22,1.22,0,0,0,.71-.26,4.32,4.32,0,0,0,.76-.74V58.2a.2.2,0,0,1,0-.13.49.49,0,0,1,.15-.09,1.43,1.43,0,0,1,.28,0l.44,0,.45,0a1.43,1.43,0,0,1,.28,0,.49.49,0,0,1,.15.09.2.2,0,0,1,0,.13Z"/><path d="M108,64.74a.17.17,0,0,1,0,.12.36.36,0,0,1-.15.1,1.43,1.43,0,0,1-.28.05L107,65l-.45,0a1.3,1.3,0,0,1-.28-.05.36.36,0,0,1-.15-.1.18.18,0,0,1,0-.12V61a3,3,0,0,0-.07-.75,1.29,1.29,0,0,0-.2-.46.83.83,0,0,0-.34-.3,1,1,0,0,0-.48-.11,1.18,1.18,0,0,0-.71.25,4.07,4.07,0,0,0-.75.75v4.35a.18.18,0,0,1,0,.12.26.26,0,0,1-.15.1,1.43,1.43,0,0,1-.28.05l-.44,0-.45,0a1.43,1.43,0,0,1-.28-.05.36.36,0,0,1-.15-.1.18.18,0,0,1-.05-.12V58.2a.2.2,0,0,1,0-.13.36.36,0,0,1,.13-.09l.25,0,.37,0,.39,0a1.11,1.11,0,0,1,.24,0,.31.31,0,0,1,.12.09.2.2,0,0,1,0,.13V59a4.09,4.09,0,0,1,1.1-.88,2.43,2.43,0,0,1,1.17-.3,2.66,2.66,0,0,1,1.12.22,2,2,0,0,1,.74.6,2.55,2.55,0,0,1,.41.88A5.41,5.41,0,0,1,108,60.7Z"/><path d="M114.41,63.7a2.54,2.54,0,0,1,0,.31.69.69,0,0,1,0,.22.39.39,0,0,1,0,.14.42.42,0,0,1-.11.14,1.48,1.48,0,0,1-.3.21,4.09,4.09,0,0,1-1.08.37,3.76,3.76,0,0,1-2-.18,2.53,2.53,0,0,1-1-.69,3.07,3.07,0,0,1-.59-1.12,5,5,0,0,1-.2-1.51,5.3,5.3,0,0,1,.24-1.69,3.16,3.16,0,0,1,.68-1.18A2.66,2.66,0,0,1,111,58a3.7,3.7,0,0,1,1.89-.18,4.1,4.1,0,0,1,.53.14,3.62,3.62,0,0,1,.44.2,1.19,1.19,0,0,1,.27.19.6.6,0,0,1,.11.14.26.26,0,0,1,0,.14.69.69,0,0,1,0,.22,2.41,2.41,0,0,1,0,.31,1.58,1.58,0,0,1-.08.59c0,.12-.11.18-.19.18a.45.45,0,0,1-.26-.11l-.33-.22a2.19,2.19,0,0,0-.46-.23,1.67,1.67,0,0,0-.63-.1,1.24,1.24,0,0,0-1.09.55,2.81,2.81,0,0,0-.39,1.62,4.27,4.27,0,0,0,.1.93,2,2,0,0,0,.28.68,1.2,1.2,0,0,0,.47.4,1.53,1.53,0,0,0,.66.14,1.6,1.6,0,0,0,.65-.12,2.7,2.7,0,0,0,.48-.25l.35-.25a.37.37,0,0,1,.23-.11.2.2,0,0,1,.11,0,.3.3,0,0,1,.07.14,1.31,1.31,0,0,1,0,.25A3.9,3.9,0,0,1,114.41,63.7Z"/><path d="M117.42,56a1,1,0,0,1-.22.77,1.3,1.3,0,0,1-.85.21,1.27,1.27,0,0,1-.83-.2,1,1,0,0,1-.22-.74,1.09,1.09,0,0,1,.22-.78,1.27,1.27,0,0,1,.85-.21,1.2,1.2,0,0,1,.83.21A1,1,0,0,1,117.42,56Zm-.14,8.75a.17.17,0,0,1,0,.12.36.36,0,0,1-.15.1,1.43,1.43,0,0,1-.28.05l-.45,0-.45,0-.28-.05a.36.36,0,0,1-.15-.1.17.17,0,0,1,0-.12V58.22a.2.2,0,0,1,0-.13.36.36,0,0,1,.15-.1l.28-.06.45,0,.45,0,.28.06a.36.36,0,0,1,.15.1.2.2,0,0,1,0,.13Z"/><path d="M125.43,61.4a4.92,4.92,0,0,1-.22,1.53,3.19,3.19,0,0,1-.67,1.18,3,3,0,0,1-1.12.77,4.2,4.2,0,0,1-1.57.27,4.37,4.37,0,0,1-1.52-.24,2.66,2.66,0,0,1-1.07-.7,3,3,0,0,1-.63-1.14,5.18,5.18,0,0,1-.2-1.54,4.9,4.9,0,0,1,.22-1.52,3.23,3.23,0,0,1,.67-1.19,3,3,0,0,1,1.12-.76,4.15,4.15,0,0,1,1.57-.28,4.37,4.37,0,0,1,1.52.24,2.66,2.66,0,0,1,1.07.7,2.86,2.86,0,0,1,.62,1.14A5.17,5.17,0,0,1,125.43,61.4Zm-1.9.08a4.09,4.09,0,0,0-.08-.89,1.94,1.94,0,0,0-.26-.71,1.27,1.27,0,0,0-.48-.47,1.62,1.62,0,0,0-.77-.17,1.66,1.66,0,0,0-.72.15,1.32,1.32,0,0,0-.5.44,2.24,2.24,0,0,0-.3.7,4.25,4.25,0,0,0-.1.92,4.82,4.82,0,0,0,.08.89,2.28,2.28,0,0,0,.26.71,1.3,1.3,0,0,0,.49.47,1.61,1.61,0,0,0,.76.16,1.67,1.67,0,0,0,.73-.15,1.29,1.29,0,0,0,.5-.43,2.12,2.12,0,0,0,.3-.7A4.28,4.28,0,0,0,123.53,61.48Z"/><path d="M132.83,64.74a.18.18,0,0,1-.05.12.39.39,0,0,1-.14.1,1.55,1.55,0,0,1-.29.05l-.44,0-.45,0a1.43,1.43,0,0,1-.28-.05.36.36,0,0,1-.15-.1.17.17,0,0,1,0-.12V61a3,3,0,0,0-.07-.75,1.49,1.49,0,0,0-.2-.46.89.89,0,0,0-.34-.3,1,1,0,0,0-.49-.11,1.23,1.23,0,0,0-.71.25,4.07,4.07,0,0,0-.75.75v4.35a.17.17,0,0,1,0,.12.36.36,0,0,1-.15.1L128,65l-.45,0-.45,0-.28-.05a.36.36,0,0,1-.15-.1.17.17,0,0,1,0-.12V58.2a.28.28,0,0,1,0-.13.42.42,0,0,1,.14-.09,1.11,1.11,0,0,1,.24,0l.38,0,.39,0a.89.89,0,0,1,.23,0,.31.31,0,0,1,.12.09.2.2,0,0,1,0,.13V59a4.09,4.09,0,0,1,1.1-.88,2.48,2.48,0,0,1,1.17-.3,2.71,2.71,0,0,1,1.13.22,2.09,2.09,0,0,1,.74.6,2.53,2.53,0,0,1,.4.88,5.36,5.36,0,0,1,.13,1.22Z"/><path d="M139.9,64.76a.19.19,0,0,1-.07.16.44.44,0,0,1-.23.08,3.78,3.78,0,0,1-.95,0,.34.34,0,0,1-.21-.08.21.21,0,0,1-.06-.16v-.52a3,3,0,0,1-.92.67,2.69,2.69,0,0,1-1.15.24,3.21,3.21,0,0,1-.95-.13,2.23,2.23,0,0,1-.76-.41,1.73,1.73,0,0,1-.49-.66,2.19,2.19,0,0,1-.18-.92,2.07,2.07,0,0,1,.23-1,1.84,1.84,0,0,1,.66-.7,3.55,3.55,0,0,1,1.1-.41,8.6,8.6,0,0,1,1.54-.13h.63v-.39a2.12,2.12,0,0,0-.06-.54,1,1,0,0,0-.2-.39,1,1,0,0,0-.38-.22,2,2,0,0,0-.59-.08,3,3,0,0,0-.83.11,4.34,4.34,0,0,0-.64.22l-.46.23a.68.68,0,0,1-.31.1.19.19,0,0,1-.14-.05.28.28,0,0,1-.1-.15,1,1,0,0,1-.07-.23,2.69,2.69,0,0,1,0-.31,1.19,1.19,0,0,1,0-.36.51.51,0,0,1,.14-.23,1.57,1.57,0,0,1,.36-.24,6.22,6.22,0,0,1,.6-.24,6.89,6.89,0,0,1,.75-.18,5.71,5.71,0,0,1,.84-.07,4.94,4.94,0,0,1,1.31.16,2.19,2.19,0,0,1,.9.46,1.78,1.78,0,0,1,.51.8,3.65,3.65,0,0,1,.16,1.16ZM138.09,62h-.7a3.33,3.33,0,0,0-.76.07,1.51,1.51,0,0,0-.51.19.8.8,0,0,0-.29.32,1,1,0,0,0-.09.43.81.81,0,0,0,.25.64,1.05,1.05,0,0,0,.73.24,1.39,1.39,0,0,0,.71-.2,2.64,2.64,0,0,0,.66-.58Z"/><path d="M143.49,64a1.32,1.32,0,0,1-.23.9,1.14,1.14,0,0,1-.81.22,1.11,1.11,0,0,1-.8-.22,1.23,1.23,0,0,1-.23-.86,1.27,1.27,0,0,1,.23-.89,1.09,1.09,0,0,1,.81-.23,1.14,1.14,0,0,1,.81.22A1.24,1.24,0,0,1,143.49,64Zm3.4,0a1.32,1.32,0,0,1-.23.9,1.17,1.17,0,0,1-.81.22,1.14,1.14,0,0,1-.81-.22,1.24,1.24,0,0,1-.22-.86,1.28,1.28,0,0,1,.22-.89,1.1,1.1,0,0,1,.82-.23,1.13,1.13,0,0,1,.8.22A1.23,1.23,0,0,1,146.89,64Zm3.39,0a1.32,1.32,0,0,1-.23.9,1.14,1.14,0,0,1-.81.22,1.11,1.11,0,0,1-.8-.22,1.23,1.23,0,0,1-.23-.86,1.27,1.27,0,0,1,.23-.89,1.09,1.09,0,0,1,.81-.23,1.14,1.14,0,0,1,.81.22A1.29,1.29,0,0,1,150.28,64Z"/></g></g></svg>