<svg xmlns="http://www.w3.org/2000/svg" viewBox="0 0 138.94 188.09"><defs><style>.cls-1{opacity:0.3;}.cls-2{fill:#fff;}.cls-3{fill:#a5a7aa;}.cls-4{fill:#221f20;}</style></defs><g id="Capa_2" data-name="Capa 2"><g id="Capa_1-2" data-name="Capa 1"><path class="cls-1" d="M4,117.33C9.64,82.86,4.21,41,5.08,27.86s5.42-17.8,20.68-18,73-4.71,84.7,4.14c0,0,14.66,7.23,7.78,43.2-5,26.3-7.65,48.88-8.14,68.83.09,1.42,1.48,19.49,16.54,21.3,0,0-13,2.95-15.23,15.21.81,16.19-.59,26.39-15.72,25.55-19.52-1.09-65.07-2-77.64-1.61C-4.4,187.06-1.71,151.8,4,117.33Z"/><path class="cls-2" d="M9.86,110c5.67-34.47.24-76.32,1.11-89.47s5.42-17.8,20.68-18,73-4.71,84.7,4.14c0,0,14.66,7.23,7.79,43.2-5,26.3-7.66,48.88-8.15,68.83.09,1.42,1.48,19.49,16.54,21.3,0,0-13,2.95-15.23,15.21.82,16.19-.59,26.39-15.72,25.55-19.52-1.08-65.07-2-77.64-1.61C1.49,179.68,4.18,144.42,9.86,110Z"/><path class="cls-3" d="M116,118.6a32.36,32.36,0,0,0,1.23,6.61,31.27,31.27,0,0,1-3.81-12.71c.48-20,3.12-42.54,8.14-68.83,2.85-14.88,2-24.83,0-31.4,3.38,5.8,6.47,17,2.55,37.5C119.11,76.07,116.48,98.65,116,118.6Z"/><path class="cls-3" d="M21.36,172.94c12.56-.35,58.11.53,77.63,1.61,15.13.84,16.54-9.35,15.73-25.54a18.47,18.47,0,0,1,9.26-12.7,16.14,16.14,0,0,0,8.55,3.59s-13,2.95-15.23,15.21c.82,16.19-.59,26.39-15.72,25.55-19.52-1.08-65.07-2-77.64-1.61-8.67.24-13.58-4.88-16-13.23C10.74,170.48,15.06,173.12,21.36,172.94Z"/><path class="cls-4" d="M101.51,181.75c-20-1.11-65.21-2-77.48-1.61H24c-5.11.14-9.27-1.49-12.36-4.86-10.2-11.13-7.17-39.35-2.87-65.5,3.89-23.6,2.57-50.22,1.6-69.65-.43-8.69-.77-15.55-.5-19.72.92-14,6.42-18.78,21.8-19.08,2.61,0,6.58-.21,11.18-.41C73.78-.42,107.6-1.27,117,5.66c1.46.79,15,9.15,8.28,44.31-5,26-7.64,48.5-8.13,68.57.12,1.9,1.53,18.59,15.55,20.28l6.26.75L132.8,141c-.13,0-12.2,2.89-14.36,14.21.56,11.09,0,18.83-4.54,23.13-2.33,2.21-5.57,3.36-9.88,3.48C103.22,181.81,102.39,181.8,101.51,181.75Zm13.35-63.17c.49-20.28,3.16-42.85,8.16-69,6.6-34.55-7.06-42-7.19-42l-.18-.12C106.27.36,65.06,2.14,42.91,3.1c-4.61.2-8.6.38-11.24.42C17.34,3.77,13,7.58,12.1,20.55c-.26,4,.08,10.85.51,19.48,1,19.52,2.3,46.27-1.63,70.09h0c-4,24.15-7.3,53.21,2.33,63.72,2.66,2.89,6.12,4.24,10.59,4.11H24c12.31-.34,57.61.5,77.68,1.62,4.9.27,8.38-.65,10.66-2.82,3.93-3.74,4.39-11,3.86-21.59V155l0-.12c1.57-8.58,8.19-12.86,12.43-14.77C116.29,136,115,120.56,114.86,118.58Z"/><path d="M26,48.84a1.74,1.74,0,0,1,0-.43.62.62,0,0,1,.15-.29.59.59,0,0,1,.27-.15,1.4,1.4,0,0,1,.44,0,1.37,1.37,0,0,1,.43,0,.58.58,0,0,1,.28.15.71.71,0,0,1,.14.29,1.74,1.74,0,0,1,0,.43,1.92,1.92,0,0,1,0,.45.71.71,0,0,1-.14.29.52.52,0,0,1-.28.16,1.75,1.75,0,0,1-.43,0,1.78,1.78,0,0,1-.44,0,.53.53,0,0,1-.27-.16.62.62,0,0,1-.15-.29A1.92,1.92,0,0,1,26,48.84Zm.2,1.86a.15.15,0,0,1,0-.11.26.26,0,0,1,.11-.09.81.81,0,0,1,.21,0l.34,0,.33,0a.81.81,0,0,1,.21,0,.41.41,0,0,1,.12.09.2.2,0,0,1,0,.11l.17,5.77a.23.23,0,0,1,0,.14.27.27,0,0,1-.14.11,1.12,1.12,0,0,1-.26.06l-.42,0a2.42,2.42,0,0,1-.42,0,.9.9,0,0,1-.27-.06.39.39,0,0,1-.14-.1.33.33,0,0,1,0-.14Z"/><path d="M35.6,54.33c0,.1,0,.19,0,.27s0,.14,0,.19a.58.58,0,0,1-.05.14l-.1.12a1.19,1.19,0,0,1-.27.19,3.24,3.24,0,0,1-.49.22,4.44,4.44,0,0,1-.66.18,5.07,5.07,0,0,1-.8.07,4.34,4.34,0,0,1-1.53-.26,3.09,3.09,0,0,1-1.15-.78,3.53,3.53,0,0,1-.73-1.29,5.81,5.81,0,0,1-.26-1.81,6,6,0,0,1,.28-1.86,4,4,0,0,1,.78-1.36,3.3,3.3,0,0,1,1.21-.84,4,4,0,0,1,1.54-.28,3.53,3.53,0,0,1,.66.05,4.61,4.61,0,0,1,.59.15,2.67,2.67,0,0,1,.48.21,1.34,1.34,0,0,1,.31.21l.11.14a.53.53,0,0,1,.05.15.66.66,0,0,1,0,.21,2.63,2.63,0,0,1,0,.3,3.11,3.11,0,0,1,0,.32,1.09,1.09,0,0,1,0,.22.62.62,0,0,1-.08.12.21.21,0,0,1-.1,0,.39.39,0,0,1-.24-.12L34.72,49a3.13,3.13,0,0,0-.55-.25,2.51,2.51,0,0,0-.77-.11,1.77,1.77,0,0,0-.87.2,1.8,1.8,0,0,0-.66.57,3.11,3.11,0,0,0-.41.9,4.79,4.79,0,0,0-.13,1.18,4.66,4.66,0,0,0,.14,1.26,2.53,2.53,0,0,0,.43.87,1.67,1.67,0,0,0,.67.51,2.23,2.23,0,0,0,.88.17,2.46,2.46,0,0,0,.76-.1,2.69,2.69,0,0,0,.56-.24l.38-.22a.5.5,0,0,1,.23-.11.15.15,0,0,1,.1,0,.2.2,0,0,1,.07.1,1,1,0,0,1,0,.21A3.41,3.41,0,0,1,35.6,54.33Z"/><path d="M38,55.36a.15.15,0,0,1,0,.11.22.22,0,0,1-.13.08,1.19,1.19,0,0,1-.24,0,2.18,2.18,0,0,1-.39,0,2.12,2.12,0,0,1-.38,0,1.18,1.18,0,0,1-.25,0,.32.32,0,0,1-.13-.08.15.15,0,0,1,0-.11V47a.15.15,0,0,1,0-.11.25.25,0,0,1,.13-.09,1.09,1.09,0,0,1,.25-.05,2.12,2.12,0,0,1,.38,0,2.18,2.18,0,0,1,.39,0,1.11,1.11,0,0,1,.24.05.19.19,0,0,1,.13.09A.15.15,0,0,1,38,47Z"/><path d="M44.2,55.38a.2.2,0,0,1-.06.14.66.66,0,0,1-.2.07l-.41,0-.41,0a.5.5,0,0,1-.19-.07.24.24,0,0,1,0-.14v-.45a2.53,2.53,0,0,1-.8.58,2.31,2.31,0,0,1-1,.21,2.73,2.73,0,0,1-.83-.12,1.77,1.77,0,0,1-.65-.35,1.44,1.44,0,0,1-.43-.57,2,2,0,0,1-.15-.8,1.79,1.79,0,0,1,.19-.86,1.54,1.54,0,0,1,.58-.61,3.09,3.09,0,0,1,1-.35A7.44,7.44,0,0,1,42.08,52h.55v-.34a2.12,2.12,0,0,0-.05-.47.81.81,0,0,0-.18-.33.68.68,0,0,0-.33-.2,1.88,1.88,0,0,0-.51-.06,3.11,3.11,0,0,0-.72.08,4.3,4.3,0,0,0-.55.2l-.4.2a.6.6,0,0,1-.27.09.18.18,0,0,1-.12,0,.27.27,0,0,1-.09-.12,1.08,1.08,0,0,1,0-.21,1.1,1.1,0,0,1,0-.26,1.33,1.33,0,0,1,0-.32.47.47,0,0,1,.12-.2,1.1,1.1,0,0,1,.31-.2,2.81,2.81,0,0,1,.52-.21,5.62,5.62,0,0,1,.65-.16,4.4,4.4,0,0,1,.73-.06,4.71,4.71,0,0,1,1.14.13,2.06,2.06,0,0,1,.78.4,1.53,1.53,0,0,1,.44.7,3.33,3.33,0,0,1,.14,1ZM42.63,53H42a3.1,3.1,0,0,0-.66.06,1.19,1.19,0,0,0-.44.17.66.66,0,0,0-.25.28.72.72,0,0,0-.08.37.73.73,0,0,0,.22.56.93.93,0,0,0,.63.2,1.23,1.23,0,0,0,.62-.17,2.79,2.79,0,0,0,.57-.5Z"/><path d="M49.17,50.22c0,.15,0,.28,0,.38a1,1,0,0,1,0,.22.22.22,0,0,1-.07.12.15.15,0,0,1-.1,0l-.12,0-.14-.05-.17,0-.21,0a.66.66,0,0,0-.27.06,1.17,1.17,0,0,0-.28.16,2.23,2.23,0,0,0-.29.31,3.39,3.39,0,0,0-.34.47v3.53a.15.15,0,0,1,0,.11.22.22,0,0,1-.13.08l-.24,0a2.18,2.18,0,0,1-.39,0,2.12,2.12,0,0,1-.38,0,1.18,1.18,0,0,1-.25,0,.32.32,0,0,1-.13-.08.21.21,0,0,1,0-.11V49.69a.17.17,0,0,1,0-.11.26.26,0,0,1,.11-.08.87.87,0,0,1,.21,0l.33,0,.34,0a.88.88,0,0,1,.2,0l.11.08a.23.23,0,0,1,0,.11v.71a4.27,4.27,0,0,1,.42-.52,2.15,2.15,0,0,1,.37-.33,1.18,1.18,0,0,1,.36-.17,1.34,1.34,0,0,1,.35-.05h.18l.2,0,.17.06a.23.23,0,0,1,.12.06l0,.06,0,.11s0,.11,0,.2S49.17,50.07,49.17,50.22Z"/><path d="M55.46,52.47a4.25,4.25,0,0,1-.19,1.32,2.82,2.82,0,0,1-.58,1,2.5,2.5,0,0,1-1,.66,3.55,3.55,0,0,1-1.36.24A3.77,3.77,0,0,1,51,55.51a2.29,2.29,0,0,1-.92-.61,2.55,2.55,0,0,1-.55-1,4.57,4.57,0,0,1-.18-1.34,4.25,4.25,0,0,1,.2-1.32,2.82,2.82,0,0,1,.58-1,2.57,2.57,0,0,1,1-.66,3.52,3.52,0,0,1,1.36-.24,3.77,3.77,0,0,1,1.32.21,2.29,2.29,0,0,1,.92.61,2.39,2.39,0,0,1,.54,1A4.57,4.57,0,0,1,55.46,52.47Zm-1.64.06a3.74,3.74,0,0,0-.07-.77,1.84,1.84,0,0,0-.22-.61,1.13,1.13,0,0,0-.43-.41,1.29,1.29,0,0,0-.66-.14,1.35,1.35,0,0,0-.62.13,1,1,0,0,0-.44.38,1.84,1.84,0,0,0-.26.6,3.8,3.8,0,0,0-.08.8,3.67,3.67,0,0,0,.07.77,1.89,1.89,0,0,0,.22.62,1.24,1.24,0,0,0,.42.4,1.46,1.46,0,0,0,.66.14,1.34,1.34,0,0,0,.63-.13,1,1,0,0,0,.44-.38,1.68,1.68,0,0,0,.26-.59A4,4,0,0,0,53.82,52.53Z"/><path d="M58.91,54.74a1.89,1.89,0,0,1,0,.44.56.56,0,0,1-.14.29.58.58,0,0,1-.28.15,1.69,1.69,0,0,1-.43.05,1.84,1.84,0,0,1-.44-.05.59.59,0,0,1-.27-.15.56.56,0,0,1-.14-.29,1.84,1.84,0,0,1-.05-.44,1.87,1.87,0,0,1,.05-.45.56.56,0,0,1,.14-.29.61.61,0,0,1,.27-.16,1.89,1.89,0,0,1,.44,0,1.74,1.74,0,0,1,.43,0,.59.59,0,0,1,.28.16.56.56,0,0,1,.14.29A1.92,1.92,0,0,1,58.91,54.74Zm-.19-1.86a.56.56,0,0,1,0,.12.24.24,0,0,1-.11.08l-.22.06h-.67l-.21-.06a.24.24,0,0,1-.11-.08.56.56,0,0,1,0-.12l-.16-5.76a.33.33,0,0,1,0-.15.3.3,0,0,1,.14-.1.9.9,0,0,1,.27-.06,2.56,2.56,0,0,1,.42,0l.42,0a1.12,1.12,0,0,1,.26.06.32.32,0,0,1,.14.1.24.24,0,0,1,0,.15Z"/><path d="M67.94,55.38a.2.2,0,0,1-.06.14.57.57,0,0,1-.2.07l-.4,0-.42,0a.39.39,0,0,1-.18-.07.2.2,0,0,1-.06-.14v-.45a2.6,2.6,0,0,1-.79.58,2.33,2.33,0,0,1-1,.21A2.78,2.78,0,0,1,64,55.6a1.77,1.77,0,0,1-.65-.35,1.54,1.54,0,0,1-.43-.57,2,2,0,0,1-.15-.8A1.79,1.79,0,0,1,63,53a1.54,1.54,0,0,1,.58-.61,3.26,3.26,0,0,1,1-.35A7.32,7.32,0,0,1,65.82,52h.55v-.34a1.65,1.65,0,0,0-.05-.47.71.71,0,0,0-.18-.33.68.68,0,0,0-.33-.2,1.88,1.88,0,0,0-.51-.06,3,3,0,0,0-.71.08,4.48,4.48,0,0,0-.56.2c-.16.07-.29.14-.4.2a.61.61,0,0,1-.26.09.21.21,0,0,1-.13,0L63.15,51a1.08,1.08,0,0,1,0-.21,2.11,2.11,0,0,1,0-.26,1.33,1.33,0,0,1,0-.32.47.47,0,0,1,.12-.2,1.28,1.28,0,0,1,.31-.2,3.13,3.13,0,0,1,.52-.21,5.62,5.62,0,0,1,.65-.16,4.4,4.4,0,0,1,.73-.06,4.59,4.59,0,0,1,1.14.13,1.92,1.92,0,0,1,.78.4,1.53,1.53,0,0,1,.44.7,3,3,0,0,1,.14,1ZM66.37,53h-.6a3.1,3.1,0,0,0-.66.06,1.24,1.24,0,0,0-.45.17.74.74,0,0,0-.25.28.84.84,0,0,0-.08.37.74.74,0,0,0,.23.56.91.91,0,0,0,.62.2,1.2,1.2,0,0,0,.62-.17,2.55,2.55,0,0,0,.57-.5Z"/><path d="M74.68,55.36a.2.2,0,0,1,0,.11.32.32,0,0,1-.13.08l-.24,0a2.3,2.3,0,0,1-.39,0,2.18,2.18,0,0,1-.39,0,1.19,1.19,0,0,1-.24,0,.26.26,0,0,1-.13-.08.15.15,0,0,1,0-.11V52.13a2.75,2.75,0,0,0-.06-.65,1.34,1.34,0,0,0-.17-.4.86.86,0,0,0-.3-.27.93.93,0,0,0-.42-.09,1.08,1.08,0,0,0-.62.23,3.21,3.21,0,0,0-.64.64v3.77a.21.21,0,0,1,0,.11.32.32,0,0,1-.13.08,1.31,1.31,0,0,1-.25,0,2.12,2.12,0,0,1-.38,0,2.18,2.18,0,0,1-.39,0l-.25,0a.32.32,0,0,1-.13-.08.2.2,0,0,1,0-.11V47a.2.2,0,0,1,0-.11.25.25,0,0,1,.13-.09l.25-.05a2.18,2.18,0,0,1,.39,0,2.12,2.12,0,0,1,.38,0l.25.05a.25.25,0,0,1,.13.09.21.21,0,0,1,0,.11v3.13a3.09,3.09,0,0,1,.84-.61,2.1,2.1,0,0,1,.89-.2,2.33,2.33,0,0,1,1,.19,1.65,1.65,0,0,1,.64.52,2.19,2.19,0,0,1,.36.77,4.84,4.84,0,0,1,.1,1.08Z"/><path d="M81.72,52.47a4.25,4.25,0,0,1-.19,1.32,2.82,2.82,0,0,1-.58,1,2.57,2.57,0,0,1-1,.66,3.59,3.59,0,0,1-1.36.24,3.73,3.73,0,0,1-1.32-.21,2.39,2.39,0,0,1-.93-.61,2.67,2.67,0,0,1-.54-1,4.57,4.57,0,0,1-.18-1.34,4.25,4.25,0,0,1,.19-1.32,3,3,0,0,1,.58-1,2.65,2.65,0,0,1,1-.66,3.55,3.55,0,0,1,1.36-.24,3.73,3.73,0,0,1,1.32.21,2.32,2.32,0,0,1,.93.61,2.51,2.51,0,0,1,.54,1A4.57,4.57,0,0,1,81.72,52.47Zm-1.65.06a4.63,4.63,0,0,0-.06-.77,1.84,1.84,0,0,0-.23-.61,1,1,0,0,0-.42-.41,1.34,1.34,0,0,0-.66-.14,1.32,1.32,0,0,0-.62.13,1,1,0,0,0-.44.38,1.65,1.65,0,0,0-.26.6,3.2,3.2,0,0,0-.09.8,4.49,4.49,0,0,0,.07.77,2.16,2.16,0,0,0,.23.62,1.08,1.08,0,0,0,.42.4,1.46,1.46,0,0,0,.66.14,1.39,1.39,0,0,0,.63-.13,1.07,1.07,0,0,0,.44-.38,1.67,1.67,0,0,0,.25-.59A3.37,3.37,0,0,0,80.07,52.53Z"/><path d="M86.36,50.22a3.79,3.79,0,0,1,0,.38,1.06,1.06,0,0,1,0,.22.22.22,0,0,1-.07.12.17.17,0,0,1-.1,0L86,51l-.14-.05-.18,0-.21,0a.65.65,0,0,0-.26.06,1.17,1.17,0,0,0-.28.16,3,3,0,0,0-.3.31,4.58,4.58,0,0,0-.33.47v3.53a.15.15,0,0,1,0,.11.26.26,0,0,1-.13.08l-.24,0a2.18,2.18,0,0,1-.39,0,2.24,2.24,0,0,1-.39,0l-.24,0a.26.26,0,0,1-.13-.08.15.15,0,0,1,0-.11V49.69a.23.23,0,0,1,0-.11.31.31,0,0,1,.12-.08.87.87,0,0,1,.21,0l.33,0,.33,0a.87.87,0,0,1,.21,0,.29.29,0,0,1,.1.08.15.15,0,0,1,0,.11v.71a4.27,4.27,0,0,1,.42-.52,2.61,2.61,0,0,1,.38-.33,1.25,1.25,0,0,1,.35-.17,1.49,1.49,0,0,1,.36-.05h.18l.19,0,.18.06a.17.17,0,0,1,.11.06.13.13,0,0,1,0,.06l0,.11a.88.88,0,0,1,0,.2C86.36,50,86.36,50.07,86.36,50.22Z"/><path d="M91.62,55.38a.2.2,0,0,1-.06.14.66.66,0,0,1-.2.07l-.41,0-.41,0a.5.5,0,0,1-.19-.07.24.24,0,0,1,0-.14v-.45a2.53,2.53,0,0,1-.8.58,2.31,2.31,0,0,1-1,.21,2.73,2.73,0,0,1-.83-.12,1.77,1.77,0,0,1-.65-.35,1.44,1.44,0,0,1-.43-.57,2,2,0,0,1-.15-.8,1.79,1.79,0,0,1,.19-.86,1.54,1.54,0,0,1,.58-.61,3.09,3.09,0,0,1,1-.35A7.44,7.44,0,0,1,89.5,52h.55v-.34a2.12,2.12,0,0,0,0-.47.81.81,0,0,0-.18-.33.68.68,0,0,0-.33-.2,1.88,1.88,0,0,0-.51-.06,3,3,0,0,0-.71.08,4.48,4.48,0,0,0-.56.2,3.69,3.69,0,0,0-.4.2.6.6,0,0,1-.27.09.21.21,0,0,1-.12,0,.27.27,0,0,1-.09-.12,1.08,1.08,0,0,1,0-.21,1.1,1.1,0,0,1,0-.26,1.33,1.33,0,0,1,0-.32.47.47,0,0,1,.12-.2,1.1,1.1,0,0,1,.31-.2,2.81,2.81,0,0,1,.52-.21,5.62,5.62,0,0,1,.65-.16,4.4,4.4,0,0,1,.73-.06,4.71,4.71,0,0,1,1.14.13,2.06,2.06,0,0,1,.78.4,1.53,1.53,0,0,1,.44.7,3.33,3.33,0,0,1,.14,1ZM90.05,53h-.61a3.1,3.1,0,0,0-.66.06,1.19,1.19,0,0,0-.44.17.66.66,0,0,0-.25.28.72.72,0,0,0-.08.37.73.73,0,0,0,.22.56.93.93,0,0,0,.63.2,1.23,1.23,0,0,0,.62-.17,2.55,2.55,0,0,0,.57-.5Z"/><path d="M97.23,55.36a.2.2,0,0,1,0,.11.32.32,0,0,1-.13.08l-.25,0a2.18,2.18,0,0,1-.39,0,2.12,2.12,0,0,1-.38,0,1.31,1.31,0,0,1-.25,0,.32.32,0,0,1-.13-.08.21.21,0,0,1,0-.11V47a.21.21,0,0,1,0-.11.25.25,0,0,1,.13-.09l.25-.05a2.12,2.12,0,0,1,.38,0,2.18,2.18,0,0,1,.39,0l.25.05a.25.25,0,0,1,.13.09.2.2,0,0,1,0,.11Z"/><path d="M103.8,52.36a.63.63,0,0,1-.13.43.45.45,0,0,1-.36.14H99.86a2.29,2.29,0,0,0,.09.66,1.11,1.11,0,0,0,.27.5,1.14,1.14,0,0,0,.48.31,1.89,1.89,0,0,0,.71.11,4.1,4.1,0,0,0,.74-.06,5,5,0,0,0,.55-.13l.38-.13a.69.69,0,0,1,.25-.06s.07,0,.09,0,0,0,.07.08a1.16,1.16,0,0,1,0,.16,2,2,0,0,1,0,.26,1.7,1.7,0,0,1,0,.24.79.79,0,0,1,0,.17.53.53,0,0,1,0,.12l-.07.09a.73.73,0,0,1-.23.12,3.3,3.3,0,0,1-.47.15,4.75,4.75,0,0,1-.65.12,4.88,4.88,0,0,1-.79.06,4.08,4.08,0,0,1-1.32-.19A2.34,2.34,0,0,1,99,55a2.49,2.49,0,0,1-.57-1,4.71,4.71,0,0,1-.18-1.38,4.43,4.43,0,0,1,.19-1.36,2.78,2.78,0,0,1,.57-1,2.57,2.57,0,0,1,.91-.65,3.34,3.34,0,0,1,1.21-.22,3.17,3.17,0,0,1,1.22.21,2.29,2.29,0,0,1,.83.58,2.4,2.4,0,0,1,.47.88,3.59,3.59,0,0,1,.16,1.11Zm-1.55-.46a1.66,1.66,0,0,0-.27-1,1,1,0,0,0-.89-.39,1.09,1.09,0,0,0-.53.12,1,1,0,0,0-.38.31,1.47,1.47,0,0,0-.23.45,2.62,2.62,0,0,0-.09.56Z"/><path d="M28.49,64a.2.2,0,0,1,0,.07.34.34,0,0,1,0,.1s0,.08,0,.13,0,.1-.05.15L26.7,69.6a.54.54,0,0,1-.08.17.4.4,0,0,1-.18.11,2.08,2.08,0,0,1-.34.05H25a2.12,2.12,0,0,1-.34-.06.33.33,0,0,1-.25-.27L22.7,64.47c0-.08,0-.16-.06-.22s0-.12,0-.15V64a.2.2,0,0,1,0-.11.23.23,0,0,1,.12-.08,1.09,1.09,0,0,1,.25,0h.39l.42,0a1.31,1.31,0,0,1,.25,0,.32.32,0,0,1,.13.08l.06.13,1.29,4.16,0,.16,0-.16L26.91,64a.31.31,0,0,1,.06-.13.26.26,0,0,1,.13-.08l.23,0,.4,0h.38a.89.89,0,0,1,.23,0,.2.2,0,0,1,.11.08A.15.15,0,0,1,28.49,64Z"/><path d="M34.28,66.69a.63.63,0,0,1-.13.43.45.45,0,0,1-.36.14H30.34a2.29,2.29,0,0,0,.09.66,1.11,1.11,0,0,0,.27.5,1.14,1.14,0,0,0,.48.31,1.89,1.89,0,0,0,.71.11,4.1,4.1,0,0,0,.74-.06,4.31,4.31,0,0,0,.54-.13l.39-.13a.53.53,0,0,1,.25-.06.13.13,0,0,1,.09,0,.1.1,0,0,1,.06.08.46.46,0,0,1,0,.16A2,2,0,0,1,34,69a1.7,1.7,0,0,1,0,.24.79.79,0,0,1,0,.17.53.53,0,0,1,0,.12l-.07.09a.73.73,0,0,1-.23.12,3.78,3.78,0,0,1-.47.15,4.75,4.75,0,0,1-.65.12,5,5,0,0,1-.79.06,4.37,4.37,0,0,1-1.32-.19,2.34,2.34,0,0,1-1-.58,2.49,2.49,0,0,1-.57-1,4.71,4.71,0,0,1-.18-1.38,4.43,4.43,0,0,1,.19-1.36,2.78,2.78,0,0,1,.57-1,2.43,2.43,0,0,1,.91-.64,3.46,3.46,0,0,1,2.43,0,2.29,2.29,0,0,1,.83.58,2.4,2.4,0,0,1,.47.88,3.59,3.59,0,0,1,.16,1.11Zm-1.55-.46a1.64,1.64,0,0,0-.27-1,1,1,0,0,0-.89-.39,1.09,1.09,0,0,0-.53.12,1,1,0,0,0-.38.31,1.47,1.47,0,0,0-.23.45,2.52,2.52,0,0,0-.09.56Z"/><path d="M41.06,66.8a4.57,4.57,0,0,1-.19,1.32,2.82,2.82,0,0,1-.58,1,2.57,2.57,0,0,1-1,.66,3.61,3.61,0,0,1-1.37.24,3.71,3.71,0,0,1-1.31-.21,2.39,2.39,0,0,1-.93-.61,2.46,2.46,0,0,1-.54-1A4.57,4.57,0,0,1,35,66.91a4.25,4.25,0,0,1,.19-1.32,2.82,2.82,0,0,1,.58-1,2.57,2.57,0,0,1,1-.66,3.55,3.55,0,0,1,1.36-.24,3.73,3.73,0,0,1,1.32.21,2.49,2.49,0,0,1,.93.6,2.63,2.63,0,0,1,.54,1A4.57,4.57,0,0,1,41.06,66.8Zm-1.65.06a4.63,4.63,0,0,0-.06-.77,1.84,1.84,0,0,0-.23-.61,1.18,1.18,0,0,0-.42-.41,1.36,1.36,0,0,0-.67-.14,1.38,1.38,0,0,0-.62.13,1.14,1.14,0,0,0-.44.38,1.84,1.84,0,0,0-.25.6,3.2,3.2,0,0,0-.09.8,4.49,4.49,0,0,0,.07.77,1.9,1.9,0,0,0,.23.62,1.08,1.08,0,0,0,.42.4,1.46,1.46,0,0,0,.66.14,1.39,1.39,0,0,0,.63-.13,1.07,1.07,0,0,0,.44-.38,1.67,1.67,0,0,0,.25-.59A4,4,0,0,0,39.41,66.86Z"/><path d="M53.74,69.69a.2.2,0,0,1,0,.11.32.32,0,0,1-.13.08l-.24.05h-.78l-.25-.05a.23.23,0,0,1-.12-.08.15.15,0,0,1,0-.11V66.33a2.78,2.78,0,0,0,0-.52,1.12,1.12,0,0,0-.17-.4.73.73,0,0,0-.28-.27.82.82,0,0,0-.4-.09,1,1,0,0,0-.58.22,4.39,4.39,0,0,0-.63.65v3.77a.15.15,0,0,1,0,.11.26.26,0,0,1-.13.08l-.24.05h-.77l-.25-.05a.32.32,0,0,1-.13-.08.2.2,0,0,1,0-.11V66.33a2.12,2.12,0,0,0-.06-.52,1.12,1.12,0,0,0-.16-.4.8.8,0,0,0-.28-.27.84.84,0,0,0-.4-.09,1,1,0,0,0-.58.22,3.57,3.57,0,0,0-.63.65v3.77a.15.15,0,0,1,0,.11.32.32,0,0,1-.13.08l-.25.05h-.77l-.24-.05a.22.22,0,0,1-.13-.08.15.15,0,0,1,0-.11V64a.23.23,0,0,1,0-.11.24.24,0,0,1,.11-.08l.22,0,.32,0,.34,0a.87.87,0,0,1,.21,0,.21.21,0,0,1,.1.08.23.23,0,0,1,0,.11v.66a3.87,3.87,0,0,1,.94-.76,2,2,0,0,1,1-.26,2.35,2.35,0,0,1,.63.08,1.4,1.4,0,0,1,.5.21,1.47,1.47,0,0,1,.38.32,2.05,2.05,0,0,1,.26.43,4.25,4.25,0,0,1,.5-.47,3.14,3.14,0,0,1,.49-.32,1.72,1.72,0,0,1,.47-.19,2,2,0,0,1,.49-.06,2.26,2.26,0,0,1,1,.19,1.59,1.59,0,0,1,.62.52,1.93,1.93,0,0,1,.34.77,3.93,3.93,0,0,1,.1.92Z"/><path d="M59.88,69.71a.16.16,0,0,1-.06.13.46.46,0,0,1-.2.08l-.41,0-.41,0a.37.37,0,0,1-.19-.08.19.19,0,0,1,0-.13v-.45a2.69,2.69,0,0,1-.8.58,2.31,2.31,0,0,1-1,.21,2.73,2.73,0,0,1-.83-.12,1.77,1.77,0,0,1-.65-.35,1.44,1.44,0,0,1-.43-.57,2,2,0,0,1-.15-.8,1.79,1.79,0,0,1,.19-.86,1.54,1.54,0,0,1,.58-.61,3.09,3.09,0,0,1,1-.35,7.36,7.36,0,0,1,1.33-.11h.55v-.35a2.09,2.09,0,0,0-.05-.46.81.81,0,0,0-.18-.33.68.68,0,0,0-.33-.2,1.88,1.88,0,0,0-.51-.06,2.64,2.64,0,0,0-.72.08,4.3,4.3,0,0,0-.55.2,3.69,3.69,0,0,0-.4.2.6.6,0,0,1-.27.09.18.18,0,0,1-.12,0,.25.25,0,0,1-.09-.13.83.83,0,0,1-.05-.2,1.14,1.14,0,0,1,0-.27,1.3,1.3,0,0,1,0-.31.47.47,0,0,1,.12-.2,1.1,1.1,0,0,1,.31-.2,2.81,2.81,0,0,1,.52-.21,4.12,4.12,0,0,1,.65-.16,4.4,4.4,0,0,1,.73-.06,4.71,4.71,0,0,1,1.14.13,1.94,1.94,0,0,1,.77.4,1.47,1.47,0,0,1,.45.7,3.33,3.33,0,0,1,.14,1Zm-1.57-2.43H57.7a3.1,3.1,0,0,0-.66.06,1.19,1.19,0,0,0-.44.17.66.66,0,0,0-.25.28.72.72,0,0,0-.08.37.73.73,0,0,0,.22.56.93.93,0,0,0,.63.2,1.23,1.23,0,0,0,.62-.17,2.79,2.79,0,0,0,.57-.5Zm-.56-6,.11-.12L58,61l.24,0h.36a2.86,2.86,0,0,1,.46,0,.57.57,0,0,1,.24.07.1.1,0,0,1,.06.11.19.19,0,0,1-.06.13l-1.23,1.48-.1.1-.13.07a1.06,1.06,0,0,1-.2,0l-.31,0L57,63a.31.31,0,0,1-.18-.06.09.09,0,0,1,0-.11.33.33,0,0,1,.06-.14Z"/><path d="M65.2,68.09a1.93,1.93,0,0,1-.18.85,1.6,1.6,0,0,1-.52.61,2.27,2.27,0,0,1-.78.38,3.74,3.74,0,0,1-1,.12,3.86,3.86,0,0,1-.61,0,3.62,3.62,0,0,1-.52-.12,3,3,0,0,1-.38-.15,1.21,1.21,0,0,1-.22-.14.52.52,0,0,1-.11-.21,2.12,2.12,0,0,1,0-.42,2.23,2.23,0,0,1,0-.3q0-.1,0-.18a.22.22,0,0,1,.07-.09l.09,0a.51.51,0,0,1,.21.08,3.36,3.36,0,0,0,.34.18,3.61,3.61,0,0,0,.47.17,2,2,0,0,0,.62.09,1.46,1.46,0,0,0,.38,0,1.1,1.1,0,0,0,.29-.12.63.63,0,0,0,.19-.21.73.73,0,0,0,.06-.3.47.47,0,0,0-.12-.32,1,1,0,0,0-.31-.24,3.46,3.46,0,0,0-.43-.19l-.51-.2a3.89,3.89,0,0,1-.5-.25,1.79,1.79,0,0,1-.44-.34,1.71,1.71,0,0,1-.31-.49,2,2,0,0,1-.11-.68,1.71,1.71,0,0,1,.16-.75,1.5,1.5,0,0,1,.45-.58,2.18,2.18,0,0,1,.73-.37,3.13,3.13,0,0,1,1-.14,3.47,3.47,0,0,1,1,.14,1.65,1.65,0,0,1,.34.12.84.84,0,0,1,.2.11l.09.1a.36.36,0,0,1,0,.11c0,.05,0,.1,0,.17a1.7,1.7,0,0,1,0,.24,2.18,2.18,0,0,1,0,.28c0,.07,0,.13,0,.17a.23.23,0,0,1-.06.09l-.09,0a.38.38,0,0,1-.18-.07l-.3-.14a3,3,0,0,0-.42-.14,1.81,1.81,0,0,0-.54-.07,1.4,1.4,0,0,0-.38,0,.89.89,0,0,0-.26.12.59.59,0,0,0-.15.2.6.6,0,0,0-.05.24.48.48,0,0,0,.12.33,1.39,1.39,0,0,0,.32.23,3.21,3.21,0,0,0,.45.19l.5.19a4.81,4.81,0,0,1,.51.25,1.9,1.9,0,0,1,.45.34,1.66,1.66,0,0,1,.32.49A1.71,1.71,0,0,1,65.2,68.09Z"/><path d="M72.8,68.09a1.93,1.93,0,0,1-.18.85,1.67,1.67,0,0,1-.51.61,2.36,2.36,0,0,1-.78.38,3.81,3.81,0,0,1-1,.12,4.07,4.07,0,0,1-.61,0,3.19,3.19,0,0,1-.51-.12,3,3,0,0,1-.38-.15,1.36,1.36,0,0,1-.23-.14.51.51,0,0,1-.1-.21,1.56,1.56,0,0,1,0-.42,2.54,2.54,0,0,1,0-.3.8.8,0,0,1,0-.18.35.35,0,0,1,.06-.09l.1,0a.48.48,0,0,1,.2.08l.34.18a3.79,3.79,0,0,0,.48.17,1.91,1.91,0,0,0,.61.09,1.46,1.46,0,0,0,.38,0,1.17,1.17,0,0,0,.3-.12.6.6,0,0,0,.18-.21.6.6,0,0,0,.07-.3.47.47,0,0,0-.12-.32,1.11,1.11,0,0,0-.31-.24,3.63,3.63,0,0,0-.44-.19l-.5-.2a3.33,3.33,0,0,1-.5-.25,1.62,1.62,0,0,1-.44-.34,1.52,1.52,0,0,1-.31-.49,1.76,1.76,0,0,1-.12-.68,1.71,1.71,0,0,1,.16-.75,1.62,1.62,0,0,1,.46-.58,2.23,2.23,0,0,1,.72-.37,3.22,3.22,0,0,1,1-.14,4.38,4.38,0,0,1,.52,0l.46.1a1.9,1.9,0,0,1,.34.12l.2.11a.31.31,0,0,1,.08.1.36.36,0,0,1,0,.11.79.79,0,0,1,0,.17,1.7,1.7,0,0,1,0,.24,2.18,2.18,0,0,1,0,.28.4.4,0,0,1,0,.17.12.12,0,0,1-.06.09l-.09,0a.39.39,0,0,1-.17-.07L71.81,65a3.26,3.26,0,0,0-.41-.14,1.84,1.84,0,0,0-.55-.07,1.32,1.32,0,0,0-.37,0,.79.79,0,0,0-.26.12.48.48,0,0,0-.15.2.47.47,0,0,0,0,.24.48.48,0,0,0,.12.33,1.31,1.31,0,0,0,.31.23,3.21,3.21,0,0,0,.45.19l.51.19c.17.07.34.16.51.25a2.07,2.07,0,0,1,.44.34,1.66,1.66,0,0,1,.32.49A1.71,1.71,0,0,1,72.8,68.09Z"/><path d="M79,66.69a.58.58,0,0,1-.13.43.45.45,0,0,1-.36.14H75a2.3,2.3,0,0,0,.08.66,1.34,1.34,0,0,0,.27.5,1.18,1.18,0,0,0,.49.31,1.84,1.84,0,0,0,.7.11,4,4,0,0,0,.74-.06,4.5,4.5,0,0,0,.55-.13l.38-.13a.59.59,0,0,1,.25-.06.16.16,0,0,1,.1,0,.18.18,0,0,1,.06.08.46.46,0,0,1,0,.16v.5c0,.07,0,.12,0,.17a.56.56,0,0,1,0,.12l-.06.09a.88.88,0,0,1-.23.12,3.78,3.78,0,0,1-.47.15,5.06,5.06,0,0,1-.65.12,5,5,0,0,1-.79.06,4.33,4.33,0,0,1-1.32-.19,2.34,2.34,0,0,1-1-.58,2.27,2.27,0,0,1-.57-1,4.91,4.91,0,0,1,0-2.74,2.78,2.78,0,0,1,.57-1,2.35,2.35,0,0,1,.91-.64,3.44,3.44,0,0,1,2.42,0,2.21,2.21,0,0,1,.83.58,2.28,2.28,0,0,1,.48.88A3.92,3.92,0,0,1,79,66.44Zm-1.55-.46a1.53,1.53,0,0,0-.27-1,1,1,0,0,0-.89-.39,1.12,1.12,0,0,0-.53.12,1,1,0,0,0-.37.31,1.28,1.28,0,0,0-.23.45,2.05,2.05,0,0,0-.09.56Z"/><path d="M85.43,69.69a.2.2,0,0,1,0,.11.32.32,0,0,1-.13.08l-.24.05h-.78L84,69.88a.26.26,0,0,1-.13-.08.15.15,0,0,1,0-.11V66.46a2.75,2.75,0,0,0-.06-.65,1.34,1.34,0,0,0-.17-.4.86.86,0,0,0-.3-.27.93.93,0,0,0-.42-.09,1.14,1.14,0,0,0-.62.22,3.59,3.59,0,0,0-.64.65v3.77a.21.21,0,0,1,0,.11.32.32,0,0,1-.13.08l-.25.05h-.77l-.25-.05a.32.32,0,0,1-.13-.08.2.2,0,0,1,0-.11V64a.23.23,0,0,1,0-.11.24.24,0,0,1,.11-.08l.21,0,.33,0,.34,0a.69.69,0,0,1,.2,0,.24.24,0,0,1,.11.08.23.23,0,0,1,0,.11v.66a3.45,3.45,0,0,1,1-.76,2.14,2.14,0,0,1,1-.26,2.33,2.33,0,0,1,1,.19,1.65,1.65,0,0,1,.64.52,2.11,2.11,0,0,1,.36.77,4.56,4.56,0,0,1,.1,1Z"/><path d="M92.15,63.81a.51.51,0,0,1,.37.11.49.49,0,0,1,.11.33v5.44a.21.21,0,0,1,0,.11.32.32,0,0,1-.13.08l-.24.05h-.78l-.24-.05a.32.32,0,0,1-.13-.08.21.21,0,0,1,0-.11V65.1H88.49v2.66a1.44,1.44,0,0,0,.14.7.59.59,0,0,0,.52.23l.23,0,.18,0,.14-.05a.19.19,0,0,1,.1,0,.11.11,0,0,1,.07,0,.13.13,0,0,1,0,.09.6.6,0,0,1,0,.18,2.36,2.36,0,0,1,0,.29,2.19,2.19,0,0,1,0,.42.41.41,0,0,1-.09.21.45.45,0,0,1-.17.11,1.31,1.31,0,0,1-.26.09l-.33.05-.35,0a2.49,2.49,0,0,1-.82-.12,1.38,1.38,0,0,1-.58-.37,1.73,1.73,0,0,1-.34-.63,3.49,3.49,0,0,1-.11-.91V65.1h-.67A.21.21,0,0,1,86,65a1.42,1.42,0,0,1-.06-.49,3,3,0,0,1,0-.32A.64.64,0,0,1,86,64a.24.24,0,0,1,.08-.11.2.2,0,0,1,.11,0h.67V62.55a.25.25,0,0,1,0-.12.22.22,0,0,1,.13-.08.54.54,0,0,1,.24-.05,2.3,2.3,0,0,1,.39,0,2.24,2.24,0,0,1,.39,0,.54.54,0,0,1,.24.05.32.32,0,0,1,.13.08.17.17,0,0,1,0,.12v1.26Zm.6-1.7a.88.88,0,0,1-.19.66,1,1,0,0,1-.73.19,1.09,1.09,0,0,1-.73-.18.89.89,0,0,1-.19-.64.91.91,0,0,1,.2-.67,1.51,1.51,0,0,1,1.45,0A.87.87,0,0,1,92.75,62.11Z"/><path d="M99.34,69.69a.2.2,0,0,1,0,.11.19.19,0,0,1-.11.08.83.83,0,0,1-.2.05h-.65a.81.81,0,0,1-.21-.05A.19.19,0,0,1,98,69.8a.15.15,0,0,1,0-.11v-.63a3.83,3.83,0,0,1-.92.73,2.22,2.22,0,0,1-1.06.26,2.14,2.14,0,0,1-1.09-.25,2,2,0,0,1-.73-.68,2.76,2.76,0,0,1-.41-1,5.74,5.74,0,0,1,0-2.56,3.2,3.2,0,0,1,.47-1,2.06,2.06,0,0,1,.78-.66,2.39,2.39,0,0,1,1.06-.23,1.92,1.92,0,0,1,.87.2,3.4,3.4,0,0,1,.77.56V61.36a.27.27,0,0,1,0-.12.32.32,0,0,1,.13-.08l.24-.06h.78l.24.06a.32.32,0,0,1,.13.08.27.27,0,0,1,0,.12ZM97.76,65.9a4.09,4.09,0,0,0-.66-.66,1.13,1.13,0,0,0-.66-.23,1,1,0,0,0-.53.16,1.17,1.17,0,0,0-.37.42,2.32,2.32,0,0,0-.2.58,3.49,3.49,0,0,0-.06.65,4,4,0,0,0,0,.7,2.22,2.22,0,0,0,.19.6,1.19,1.19,0,0,0,.35.42.91.91,0,0,0,.54.16,1.13,1.13,0,0,0,.32,0,1.36,1.36,0,0,0,.32-.16,1.64,1.64,0,0,0,.33-.28c.12-.12.24-.26.38-.43Z"/><path d="M106.42,66.8a4.57,4.57,0,0,1-.19,1.32,2.82,2.82,0,0,1-.58,1,2.57,2.57,0,0,1-1,.66,3.61,3.61,0,0,1-1.37.24,3.71,3.71,0,0,1-1.31-.21,2.39,2.39,0,0,1-.93-.61,2.46,2.46,0,0,1-.54-1,4.57,4.57,0,0,1-.18-1.34,4.25,4.25,0,0,1,.19-1.32,2.82,2.82,0,0,1,.58-1,2.57,2.57,0,0,1,1-.66,3.55,3.55,0,0,1,1.36-.24,3.73,3.73,0,0,1,1.32.21,2.49,2.49,0,0,1,.93.6,2.63,2.63,0,0,1,.54,1A4.57,4.57,0,0,1,106.42,66.8Zm-1.65.06a3.74,3.74,0,0,0-.07-.77,1.64,1.64,0,0,0-.22-.61,1.18,1.18,0,0,0-.42-.41,1.36,1.36,0,0,0-.67-.14,1.38,1.38,0,0,0-.62.13,1.07,1.07,0,0,0-.44.38,1.65,1.65,0,0,0-.25.6,3.2,3.2,0,0,0-.09.8,3.67,3.67,0,0,0,.07.77,1.9,1.9,0,0,0,.23.62,1.08,1.08,0,0,0,.42.4,1.46,1.46,0,0,0,.66.14,1.39,1.39,0,0,0,.63-.13,1.07,1.07,0,0,0,.44-.38,1.87,1.87,0,0,0,.25-.59A4,4,0,0,0,104.77,66.86Z"/><path d="M28.71,84a.2.2,0,0,1-.06.14.66.66,0,0,1-.2.07l-.41,0-.41,0a.5.5,0,0,1-.19-.07.24.24,0,0,1-.05-.14v-.46a2.56,2.56,0,0,1-.8.59,2.31,2.31,0,0,1-1,.21,2.73,2.73,0,0,1-.83-.12,1.77,1.77,0,0,1-.65-.35,1.44,1.44,0,0,1-.43-.57,2,2,0,0,1-.15-.8,1.79,1.79,0,0,1,.19-.86,1.54,1.54,0,0,1,.58-.61,3.09,3.09,0,0,1,1-.35,7.36,7.36,0,0,1,1.33-.11h.55v-.35a2.09,2.09,0,0,0-.05-.46.75.75,0,0,0-.18-.33.68.68,0,0,0-.33-.2,1.85,1.85,0,0,0-.51-.07,2.63,2.63,0,0,0-.72.09,4.3,4.3,0,0,0-.55.2,3.69,3.69,0,0,0-.4.2.6.6,0,0,1-.27.09.18.18,0,0,1-.12,0,.25.25,0,0,1-.09-.13.83.83,0,0,1-.05-.2,1.1,1.1,0,0,1,0-.26,1.33,1.33,0,0,1,0-.32.47.47,0,0,1,.12-.2,1.34,1.34,0,0,1,.31-.21,3.78,3.78,0,0,1,.52-.2,4.12,4.12,0,0,1,.65-.16,4.4,4.4,0,0,1,.73-.06,4.71,4.71,0,0,1,1.14.13,1.94,1.94,0,0,1,.77.4,1.47,1.47,0,0,1,.45.7,3.33,3.33,0,0,1,.14,1Zm-1.57-2.43h-.61a3.1,3.1,0,0,0-.66.06,1.19,1.19,0,0,0-.44.17.7.7,0,0,0-.25.27.79.79,0,0,0-.08.38.73.73,0,0,0,.22.56.93.93,0,0,0,.63.2,1.23,1.23,0,0,0,.62-.17,2.79,2.79,0,0,0,.57-.5Z"/><path d="M34.32,84a.17.17,0,0,1,0,.11.26.26,0,0,1-.13.08,1.19,1.19,0,0,1-.24,0l-.39,0-.39,0a1.19,1.19,0,0,1-.24,0,.26.26,0,0,1-.13-.08.17.17,0,0,1,0-.11V75.67a.19.19,0,0,1,0-.12.26.26,0,0,1,.13-.08,1.11,1.11,0,0,1,.24,0,2.3,2.3,0,0,1,.39,0,2.18,2.18,0,0,1,.39,0,1.11,1.11,0,0,1,.24,0,.26.26,0,0,1,.13.08.19.19,0,0,1,0,.12Z"/><path d="M40.48,84a.17.17,0,0,1-.07.14.5.5,0,0,1-.2.07l-.4,0-.41,0a.5.5,0,0,1-.19-.07.24.24,0,0,1-.05-.14v-.46a2.56,2.56,0,0,1-.8.59,2.31,2.31,0,0,1-1,.21,2.73,2.73,0,0,1-.83-.12,1.77,1.77,0,0,1-.65-.35,1.44,1.44,0,0,1-.43-.57,2,2,0,0,1-.15-.8,1.79,1.79,0,0,1,.19-.86,1.54,1.54,0,0,1,.58-.61,3.09,3.09,0,0,1,1-.35,7.36,7.36,0,0,1,1.33-.11h.55v-.35a2.09,2.09,0,0,0,0-.46.75.75,0,0,0-.18-.33.68.68,0,0,0-.33-.2,1.85,1.85,0,0,0-.51-.07,2.63,2.63,0,0,0-.72.09,4.3,4.3,0,0,0-.55.2l-.41.2a.54.54,0,0,1-.26.09.18.18,0,0,1-.12,0,.25.25,0,0,1-.09-.13.83.83,0,0,1,0-.2,1.1,1.1,0,0,1,0-.26,1.33,1.33,0,0,1,0-.32.47.47,0,0,1,.12-.2,1.34,1.34,0,0,1,.31-.21,3.78,3.78,0,0,1,.52-.2,4.12,4.12,0,0,1,.65-.16A4.4,4.4,0,0,1,38,78a4.71,4.71,0,0,1,1.14.13,1.94,1.94,0,0,1,.77.4,1.47,1.47,0,0,1,.45.7,3.33,3.33,0,0,1,.14,1Zm-1.57-2.43H38.3a3.1,3.1,0,0,0-.66.06,1.19,1.19,0,0,0-.44.17.7.7,0,0,0-.25.27.79.79,0,0,0-.08.38.73.73,0,0,0,.22.56.93.93,0,0,0,.63.2,1.23,1.23,0,0,0,.62-.17,2.79,2.79,0,0,0,.57-.5Z"/><path d="M46.21,76.44a.88.88,0,0,1-.19.66,1.53,1.53,0,0,1-1.46,0,.84.84,0,0,1-.19-.64.91.91,0,0,1,.2-.67,1,1,0,0,1,.73-.19,1.06,1.06,0,0,1,.72.18A.87.87,0,0,1,46.21,76.44ZM46.09,84a.17.17,0,0,1,0,.11.22.22,0,0,1-.13.08,1.19,1.19,0,0,1-.24,0l-.39,0-.38,0a1.18,1.18,0,0,1-.25,0,.32.32,0,0,1-.13-.08.17.17,0,0,1,0-.11V78.37a.14.14,0,0,1,0-.11.33.33,0,0,1,.13-.09,1.09,1.09,0,0,1,.25,0l.38,0,.39,0a1.11,1.11,0,0,1,.24,0c.07,0,.11,0,.13.09a.14.14,0,0,1,0,.11Z"/><path d="M56.43,84a.23.23,0,0,1,0,.11.32.32,0,0,1-.13.08,1.19,1.19,0,0,1-.24,0l-.39,0-.39,0a1.18,1.18,0,0,1-.25,0,.32.32,0,0,1-.13-.08.23.23,0,0,1,0-.11V80.66a2.7,2.7,0,0,0-.05-.52,1.26,1.26,0,0,0-.17-.41.87.87,0,0,0-.28-.26.84.84,0,0,0-.4-.09,1,1,0,0,0-.58.22,3.94,3.94,0,0,0-.63.65V84a.25.25,0,0,1,0,.11.32.32,0,0,1-.13.08,1.31,1.31,0,0,1-.25,0l-.38,0-.38,0a1.18,1.18,0,0,1-.25,0,.32.32,0,0,1-.13-.08.25.25,0,0,1,0-.11V80.66a2.09,2.09,0,0,0-.05-.52,1.52,1.52,0,0,0-.16-.41,1,1,0,0,0-.28-.26.87.87,0,0,0-.4-.09,1,1,0,0,0-.59.22,3.93,3.93,0,0,0-.62.65V84a.25.25,0,0,1,0,.11.32.32,0,0,1-.13.08,1.31,1.31,0,0,1-.25,0l-.38,0-.39,0-.25,0a.32.32,0,0,1-.13-.08.23.23,0,0,1,0-.11V78.35a.2.2,0,0,1,0-.11.24.24,0,0,1,.11-.08l.21,0,.33,0,.34,0a.69.69,0,0,1,.2,0,.24.24,0,0,1,.11.08.2.2,0,0,1,0,.11V79a3.69,3.69,0,0,1,.94-.76,2,2,0,0,1,1-.26,3,3,0,0,1,.63.07,1.88,1.88,0,0,1,.5.21,2,2,0,0,1,.38.33,2.05,2.05,0,0,1,.26.43,4.25,4.25,0,0,1,.5-.47,2.67,2.67,0,0,1,.48-.32,1.92,1.92,0,0,1,.48-.19,2,2,0,0,1,.48-.06,2.28,2.28,0,0,1,1,.19,1.75,1.75,0,0,1,.62.52,2.08,2.08,0,0,1,.34.77,3.93,3.93,0,0,1,.1.92Z"/><path d="M63.44,81.1a5.13,5.13,0,0,1-.16,1.36,3.32,3.32,0,0,1-.47,1,2.13,2.13,0,0,1-.78.65,2.39,2.39,0,0,1-1.06.23,2.14,2.14,0,0,1-.45,0,1.49,1.49,0,0,1-.4-.15,2.06,2.06,0,0,1-.39-.24l-.39-.34v2.66a.17.17,0,0,1,0,.12.26.26,0,0,1-.13.08,1,1,0,0,1-.24.06l-.39,0-.39,0a1,1,0,0,1-.24-.06.26.26,0,0,1-.13-.08.17.17,0,0,1,0-.12V78.35a.2.2,0,0,1,0-.11.24.24,0,0,1,.11-.08l.21,0,.33,0,.32,0a.87.87,0,0,1,.21,0,.24.24,0,0,1,.11.08.2.2,0,0,1,0,.11V79a6.49,6.49,0,0,1,.49-.45,3.34,3.34,0,0,1,.48-.32,2.37,2.37,0,0,1,2.14,0,1.9,1.9,0,0,1,.71.67,2.94,2.94,0,0,1,.4,1A5.13,5.13,0,0,1,63.44,81.1Zm-1.66.12a4,4,0,0,0-.06-.7,1.77,1.77,0,0,0-.18-.59,1.28,1.28,0,0,0-.34-.42.92.92,0,0,0-.53-.15,1.17,1.17,0,0,0-.32,0,1.91,1.91,0,0,0-.32.16,2.47,2.47,0,0,0-.33.28,4.25,4.25,0,0,0-.36.42v1.87a4.06,4.06,0,0,0,.64.66,1.07,1.07,0,0,0,.64.23.88.88,0,0,0,.53-.16,1.13,1.13,0,0,0,.35-.42,1.74,1.74,0,0,0,.21-.58A3.48,3.48,0,0,0,61.78,81.22Z"/><path d="M70.18,81.13A4.25,4.25,0,0,1,70,82.45a2.82,2.82,0,0,1-.58,1,2.5,2.5,0,0,1-1,.66,3.55,3.55,0,0,1-1.36.24,3.77,3.77,0,0,1-1.32-.21,2.29,2.29,0,0,1-.92-.61,2.55,2.55,0,0,1-.55-1,4.57,4.57,0,0,1-.18-1.34,4.25,4.25,0,0,1,.2-1.32,2.82,2.82,0,0,1,.58-1,2.46,2.46,0,0,1,1-.66A3.52,3.52,0,0,1,67.22,78a3.81,3.81,0,0,1,1.32.21,2.37,2.37,0,0,1,.92.6,2.5,2.5,0,0,1,.54,1A4.53,4.53,0,0,1,70.18,81.13Zm-1.64.06a3.67,3.67,0,0,0-.07-.77,1.76,1.76,0,0,0-.22-.61,1.13,1.13,0,0,0-.43-.41,1.29,1.29,0,0,0-.66-.14,1.35,1.35,0,0,0-.62.13,1,1,0,0,0-.44.38,1.84,1.84,0,0,0-.26.6,3.8,3.8,0,0,0-.08.8,3.67,3.67,0,0,0,.07.77,1.89,1.89,0,0,0,.22.62,1.24,1.24,0,0,0,.42.4,1.46,1.46,0,0,0,.66.14,1.34,1.34,0,0,0,.63-.13,1,1,0,0,0,.44-.38,1.49,1.49,0,0,0,.25-.6A3.2,3.2,0,0,0,68.54,81.19Z"/><path d="M74.82,78.88c0,.15,0,.28,0,.38a1,1,0,0,1,0,.22.22.22,0,0,1-.07.12.15.15,0,0,1-.1,0l-.11,0-.15,0-.17,0-.21,0a.86.86,0,0,0-.27.05,1.34,1.34,0,0,0-.27.17,1.78,1.78,0,0,0-.3.31,3.39,3.39,0,0,0-.34.47V84a.23.23,0,0,1,0,.11.32.32,0,0,1-.13.08l-.25,0-.39,0-.38,0a1.31,1.31,0,0,1-.25,0,.32.32,0,0,1-.13-.08.25.25,0,0,1,0-.11V78.35a.21.21,0,0,1,0-.11.24.24,0,0,1,.11-.08l.21,0,.33,0,.34,0a.88.88,0,0,1,.2,0,.24.24,0,0,1,.11.08.2.2,0,0,1,0,.11v.71a5.46,5.46,0,0,1,.42-.53,2.55,2.55,0,0,1,.37-.32A1.18,1.18,0,0,1,73.7,78a1.48,1.48,0,0,1,.35-.05h.18l.2,0,.18,0,.11.06,0,.07a.81.81,0,0,1,0,.11s0,.11,0,.2Z"/><path d="M78.9,83.46a1.65,1.65,0,0,1,0,.43.37.37,0,0,1-.09.2.36.36,0,0,1-.17.11l-.26.09-.32,0-.35,0a2.55,2.55,0,0,1-.83-.12,1.52,1.52,0,0,1-.58-.37,1.58,1.58,0,0,1-.33-.63,3.11,3.11,0,0,1-.11-.91v-2.9h-.68c-.08,0-.14-.05-.19-.15a1.42,1.42,0,0,1-.06-.49,2.73,2.73,0,0,1,0-.32.88.88,0,0,1,0-.2.44.44,0,0,1,.08-.1.24.24,0,0,1,.12,0h.67V76.88a.21.21,0,0,1,0-.12.32.32,0,0,1,.13-.08,1,1,0,0,1,.25-.06H77a1,1,0,0,1,.25.06.23.23,0,0,1,.12.08.16.16,0,0,1,0,.12v1.26h1.23a.18.18,0,0,1,.11,0,.2.2,0,0,1,.08.1.53.53,0,0,1,0,.2,2.73,2.73,0,0,1,0,.32,1.18,1.18,0,0,1-.07.49q-.06.15-.18.15H77.41v2.66a1.32,1.32,0,0,0,.15.7.58.58,0,0,0,.52.23l.23,0,.18,0,.13,0,.1,0a.11.11,0,0,1,.07,0s0,0,.06.08,0,.11,0,.19A2.07,2.07,0,0,1,78.9,83.46Z"/><path d="M84.49,84a.2.2,0,0,1-.06.14.66.66,0,0,1-.2.07l-.41,0-.41,0a.5.5,0,0,1-.19-.07.24.24,0,0,1,0-.14v-.46a2.56,2.56,0,0,1-.8.59,2.31,2.31,0,0,1-1,.21,2.73,2.73,0,0,1-.83-.12,1.77,1.77,0,0,1-.65-.35,1.44,1.44,0,0,1-.43-.57,2,2,0,0,1-.15-.8,1.79,1.79,0,0,1,.19-.86,1.54,1.54,0,0,1,.58-.61,3.09,3.09,0,0,1,1-.35,7.44,7.44,0,0,1,1.33-.11h.55v-.35a2.09,2.09,0,0,0,0-.46.75.75,0,0,0-.18-.33.68.68,0,0,0-.33-.2,1.85,1.85,0,0,0-.51-.07,2.63,2.63,0,0,0-.72.09,4.3,4.3,0,0,0-.55.2,3.69,3.69,0,0,0-.4.2.6.6,0,0,1-.27.09.21.21,0,0,1-.12,0,.25.25,0,0,1-.09-.13.83.83,0,0,1,0-.2,1.1,1.1,0,0,1,0-.26,1.33,1.33,0,0,1,0-.32.47.47,0,0,1,.12-.2,1.34,1.34,0,0,1,.31-.21,3.78,3.78,0,0,1,.52-.2,4.12,4.12,0,0,1,.65-.16A4.4,4.4,0,0,1,82,78a4.71,4.71,0,0,1,1.14.13,2.06,2.06,0,0,1,.78.4,1.53,1.53,0,0,1,.44.7,3.33,3.33,0,0,1,.14,1Zm-1.57-2.43h-.61a3.1,3.1,0,0,0-.66.06,1.19,1.19,0,0,0-.44.17.7.7,0,0,0-.25.27.79.79,0,0,0-.08.38.73.73,0,0,0,.22.56.93.93,0,0,0,.63.2,1.23,1.23,0,0,0,.62-.17,2.79,2.79,0,0,0,.57-.5Z"/><path d="M91.23,84a.17.17,0,0,1,0,.11.28.28,0,0,1-.12.08,1.31,1.31,0,0,1-.25,0l-.38,0-.39,0a1.18,1.18,0,0,1-.25,0,.32.32,0,0,1-.13-.08.23.23,0,0,1,0-.11V80.79a2.7,2.7,0,0,0-.06-.65,1.28,1.28,0,0,0-.18-.41.81.81,0,0,0-.29-.26.94.94,0,0,0-.43-.09,1.11,1.11,0,0,0-.61.22,3.61,3.61,0,0,0-.65.65V84a.17.17,0,0,1,0,.11.22.22,0,0,1-.13.08,1.19,1.19,0,0,1-.24,0l-.39,0-.38,0a1.18,1.18,0,0,1-.25,0,.32.32,0,0,1-.13-.08.17.17,0,0,1,0-.11V78.35a.2.2,0,0,1,0-.11.23.23,0,0,1,.12-.08.87.87,0,0,1,.21,0l.33,0,.33,0a.87.87,0,0,1,.21,0,.31.31,0,0,1,.11.08.2.2,0,0,1,0,.11V79a3.56,3.56,0,0,1,1-.76,2.18,2.18,0,0,1,1-.26,2.36,2.36,0,0,1,1,.19,1.73,1.73,0,0,1,.64.52,2.09,2.09,0,0,1,.35.77,4.51,4.51,0,0,1,.11,1Z"/><path d="M96.82,83.11a2.27,2.27,0,0,1,0,.28.92.92,0,0,1,0,.19.34.34,0,0,1,0,.12.44.44,0,0,1-.1.12,1.39,1.39,0,0,1-.26.18,2.76,2.76,0,0,1-.42.19,3.15,3.15,0,0,1-.51.13,3.45,3.45,0,0,1-.57.05,3.15,3.15,0,0,1-1.15-.2,2.26,2.26,0,0,1-.85-.6,2.74,2.74,0,0,1-.52-1,4.38,4.38,0,0,1-.17-1.31,4.65,4.65,0,0,1,.21-1.47,2.83,2.83,0,0,1,.59-1,2.45,2.45,0,0,1,.9-.6,3.05,3.05,0,0,1,1.15-.2,2.63,2.63,0,0,1,.49,0,2.8,2.8,0,0,1,.46.12,1.91,1.91,0,0,1,.38.18,1.09,1.09,0,0,1,.24.16.77.77,0,0,1,.1.12.34.34,0,0,1,0,.12c0,.05,0,.11,0,.19s0,.16,0,.27a1.59,1.59,0,0,1-.06.52c0,.09-.1.14-.17.14a.38.38,0,0,1-.23-.08l-.28-.2a2.48,2.48,0,0,0-.4-.2,1.45,1.45,0,0,0-.54-.09,1.09,1.09,0,0,0-1,.48,2.49,2.49,0,0,0-.33,1.41,3.2,3.2,0,0,0,.09.8,1.59,1.59,0,0,0,.24.59,1,1,0,0,0,.41.35,1.26,1.26,0,0,0,.57.12,1.37,1.37,0,0,0,.56-.1,2.73,2.73,0,0,0,.42-.22,2.94,2.94,0,0,0,.3-.22.41.41,0,0,1,.2-.1.13.13,0,0,1,.1,0,.36.36,0,0,1,.06.11c0,.06,0,.13,0,.22A3.33,3.33,0,0,1,96.82,83.11Z"/><path d="M99.44,76.44a.88.88,0,0,1-.2.66,1,1,0,0,1-.73.19,1.09,1.09,0,0,1-.73-.18.89.89,0,0,1-.18-.64.91.91,0,0,1,.19-.67,1,1,0,0,1,.73-.19,1.09,1.09,0,0,1,.73.18A.87.87,0,0,1,99.44,76.44ZM99.32,84a.17.17,0,0,1,0,.11.32.32,0,0,1-.13.08,1.19,1.19,0,0,1-.24,0l-.39,0-.39,0a1.19,1.19,0,0,1-.24,0,.26.26,0,0,1-.13-.08.17.17,0,0,1,0-.11V78.37a.14.14,0,0,1,0-.11s.07-.06.13-.09a1.11,1.11,0,0,1,.24,0l.39,0,.39,0a1.11,1.11,0,0,1,.24,0,.33.33,0,0,1,.13.09.14.14,0,0,1,0,.11Z"/><path d="M105.48,84a.21.21,0,0,1-.07.14.57.57,0,0,1-.2.07l-.4,0-.42,0a.45.45,0,0,1-.18-.07.19.19,0,0,1,0-.14v-.46a2.68,2.68,0,0,1-.8.59,2.31,2.31,0,0,1-1,.21,2.68,2.68,0,0,1-.83-.12,1.82,1.82,0,0,1-.66-.35,1.65,1.65,0,0,1-.43-.57,2,2,0,0,1-.15-.8,1.79,1.79,0,0,1,.2-.86,1.51,1.51,0,0,1,.57-.61,3.26,3.26,0,0,1,1-.35,7.36,7.36,0,0,1,1.33-.11h.55v-.35a1.6,1.6,0,0,0-.06-.46.65.65,0,0,0-.17-.33.79.79,0,0,0-.33-.2,1.87,1.87,0,0,0-.52-.07,2.6,2.6,0,0,0-.71.09,4.3,4.3,0,0,0-.55.2,4,4,0,0,0-.41.2.57.57,0,0,1-.26.09.17.17,0,0,1-.12,0,.25.25,0,0,1-.09-.13.52.52,0,0,1-.06-.2,2.11,2.11,0,0,1,0-.26,1.33,1.33,0,0,1,0-.32.63.63,0,0,1,.13-.2,1.34,1.34,0,0,1,.31-.21,3.34,3.34,0,0,1,.52-.2,3.86,3.86,0,0,1,.65-.16A4.2,4.2,0,0,1,103,78a4.59,4.59,0,0,1,1.14.13,1.92,1.92,0,0,1,.78.4,1.63,1.63,0,0,1,.45.7,3.33,3.33,0,0,1,.14,1Zm-1.57-2.43h-.61a3.1,3.1,0,0,0-.66.06,1.32,1.32,0,0,0-.45.17.91.91,0,0,0-.25.27.92.92,0,0,0-.08.38.74.74,0,0,0,.23.56.92.92,0,0,0,.62.2,1.2,1.2,0,0,0,.62-.17,2.82,2.82,0,0,0,.58-.5Z"/><path d="M34.19,100.59a.17.17,0,0,1,0,.12.28.28,0,0,1-.12.08,1,1,0,0,1-.25.06l-.38,0-.39,0a1,1,0,0,1-.24-.06.22.22,0,0,1-.13-.08.25.25,0,0,1,0-.12V97.9c-.15.14-.3.26-.44.37a2.39,2.39,0,0,1-.43.25,1.81,1.81,0,0,1-.45.14,2.44,2.44,0,0,1-.48,0,2.19,2.19,0,0,1-1.06-.25,2.1,2.1,0,0,1-.71-.68,3,3,0,0,1-.41-1,5.81,5.81,0,0,1-.12-1.2,5.23,5.23,0,0,1,.16-1.36,3.16,3.16,0,0,1,.48-1,2.3,2.3,0,0,1,.78-.65A2.45,2.45,0,0,1,31,92.32a2.3,2.3,0,0,1,.45.05,1.88,1.88,0,0,1,.43.16,4.6,4.6,0,0,1,.45.31c.15.12.32.28.51.46v-.62a.2.2,0,0,1,0-.11.28.28,0,0,1,.12-.08.88.88,0,0,1,.2,0l.33,0,.32,0a.87.87,0,0,1,.21,0,.24.24,0,0,1,.11.08.2.2,0,0,1,0,.11Zm-1.59-6A3.7,3.7,0,0,0,32,93.9a1.13,1.13,0,0,0-.66-.23,1,1,0,0,0-.54.16,1.06,1.06,0,0,0-.36.42,2,2,0,0,0-.2.58,2.81,2.81,0,0,0-.07.65,4,4,0,0,0,.06.7,2.22,2.22,0,0,0,.19.6,1.17,1.17,0,0,0,.34.42,1,1,0,0,0,.55.16,1.19,1.19,0,0,0,.32,0,1.36,1.36,0,0,0,.32-.16,2.47,2.47,0,0,0,.33-.28c.11-.12.24-.26.37-.43Z"/><path d="M40.91,98.35a.15.15,0,0,1,0,.11.2.2,0,0,1-.11.08.87.87,0,0,1-.21,0l-.32,0-.34,0a.87.87,0,0,1-.21,0,.24.24,0,0,1-.11-.08.2.2,0,0,1,0-.11v-.66a3.56,3.56,0,0,1-.95.76,2.17,2.17,0,0,1-1,.26,2.34,2.34,0,0,1-1-.19A1.65,1.65,0,0,1,36,98a2,2,0,0,1-.35-.77,4.66,4.66,0,0,1-.11-1.08V92.68a.21.21,0,0,1,0-.11.22.22,0,0,1,.13-.08,1.19,1.19,0,0,1,.24,0l.39,0,.39,0,.24,0a.32.32,0,0,1,.13.08.21.21,0,0,1,0,.11v3.2a3.7,3.7,0,0,0,0,.68,1.28,1.28,0,0,0,.18.41.94.94,0,0,0,.3.26.93.93,0,0,0,.42.09,1.09,1.09,0,0,0,.61-.22,3.63,3.63,0,0,0,.66-.65V92.68a.2.2,0,0,1,0-.11.32.32,0,0,1,.13-.08,1.18,1.18,0,0,1,.25,0l.38,0,.39,0,.24,0a.32.32,0,0,1,.13.08.21.21,0,0,1,0,.11Z"/><path d="M47.48,95.35a.58.58,0,0,1-.13.43.43.43,0,0,1-.36.14H43.55a2.71,2.71,0,0,0,.08.66,1.3,1.3,0,0,0,.28.5,1.08,1.08,0,0,0,.48.31,1.89,1.89,0,0,0,.71.11,3.91,3.91,0,0,0,.73-.06,4.5,4.5,0,0,0,.55-.13l.39-.13a.75.75,0,0,1,.24-.07.17.17,0,0,1,.1,0,.13.13,0,0,1,.06.08.46.46,0,0,1,0,.16c0,.07,0,.16,0,.26s0,.17,0,.24a.79.79,0,0,1,0,.17.56.56,0,0,1,0,.12.47.47,0,0,1-.06.09.88.88,0,0,1-.23.12,3.78,3.78,0,0,1-.47.15,5.06,5.06,0,0,1-.65.12,5,5,0,0,1-.79.06,4.37,4.37,0,0,1-1.32-.19,2.34,2.34,0,0,1-1-.58,2.38,2.38,0,0,1-.57-1,4.69,4.69,0,0,1-.19-1.38,4.42,4.42,0,0,1,.2-1.36,2.78,2.78,0,0,1,.57-1,2.49,2.49,0,0,1,.91-.65,3.3,3.3,0,0,1,1.21-.22,3.21,3.21,0,0,1,1.22.21,2.26,2.26,0,0,1,.83.58,2.4,2.4,0,0,1,.47.88,3.92,3.92,0,0,1,.15,1.11Zm-1.55-.46a1.53,1.53,0,0,0-.27-1,1,1,0,0,0-.89-.39,1.12,1.12,0,0,0-.53.12,1.09,1.09,0,0,0-.37.3,1.42,1.42,0,0,0-.23.46,2.52,2.52,0,0,0-.09.56Z"/><path d="M56.74,92.47a.54.54,0,0,1,.38.11.48.48,0,0,1,.1.33v5.44a.15.15,0,0,1,0,.11.23.23,0,0,1-.12.08,1.18,1.18,0,0,1-.25,0l-.38,0-.39,0a1.18,1.18,0,0,1-.25,0,.23.23,0,0,1-.12-.08.15.15,0,0,1,0-.11V93.76H53.08v2.66a1.32,1.32,0,0,0,.15.7.58.58,0,0,0,.52.23l.23,0,.18,0,.13,0,.1,0a.09.09,0,0,1,.07,0s0,0,.06.08,0,.11,0,.19a2.07,2.07,0,0,1,0,.29,2.26,2.26,0,0,1,0,.42.51.51,0,0,1-.09.21.56.56,0,0,1-.17.11l-.27.09-.32,0-.35,0a2.55,2.55,0,0,1-.83-.12,1.52,1.52,0,0,1-.58-.37,1.58,1.58,0,0,1-.33-.63,3.49,3.49,0,0,1-.11-.91v-2.9h-.68q-.12,0-.18-.15a1.18,1.18,0,0,1-.07-.49,2.73,2.73,0,0,1,0-.32.83.83,0,0,1,.05-.2.2.2,0,0,1,.08-.1.18.18,0,0,1,.11,0h.67V91.21a.21.21,0,0,1,0-.12.32.32,0,0,1,.13-.08A1.15,1.15,0,0,1,51.9,91h.77a1,1,0,0,1,.25.06.23.23,0,0,1,.12.08.16.16,0,0,1,0,.12v1.26Zm.61-1.7a.88.88,0,0,1-.2.66,1.51,1.51,0,0,1-1.45,0,.84.84,0,0,1-.19-.64.91.91,0,0,1,.19-.67,1,1,0,0,1,.73-.19,1.09,1.09,0,0,1,.73.18A.92.92,0,0,1,57.35,90.77Z"/><path d="M63.8,95.35a.58.58,0,0,1-.13.43.45.45,0,0,1-.36.14H59.86a2.29,2.29,0,0,0,.09.66,1.42,1.42,0,0,0,.27.5,1.21,1.21,0,0,0,.48.31,1.93,1.93,0,0,0,.71.11,4,4,0,0,0,.74-.06,5,5,0,0,0,.55-.13l.38-.13a.8.8,0,0,1,.25-.07.12.12,0,0,1,.09,0s0,0,.07.08a.5.5,0,0,1,0,.16,2,2,0,0,1,0,.26v.24c0,.07,0,.12,0,.17a.56.56,0,0,1,0,.12l-.07.09a.77.77,0,0,1-.22.12,4.42,4.42,0,0,1-.47.15,4.92,4.92,0,0,1-.66.12,4.75,4.75,0,0,1-.78.06,4.39,4.39,0,0,1-1.33-.19,2.41,2.41,0,0,1-.95-.58,2.36,2.36,0,0,1-.56-1,5,5,0,0,1,0-2.74,2.94,2.94,0,0,1,.58-1,2.49,2.49,0,0,1,.91-.65,3.26,3.26,0,0,1,1.21-.22,3.12,3.12,0,0,1,1.21.21,2.18,2.18,0,0,1,.83.58,2.42,2.42,0,0,1,.48.88,3.92,3.92,0,0,1,.15,1.11Zm-1.55-.46a1.64,1.64,0,0,0-.27-1,1,1,0,0,0-.89-.39,1.16,1.16,0,0,0-.91.42,1.65,1.65,0,0,0-.23.46,2.52,2.52,0,0,0-.09.56Z"/><path d="M70.26,98.35a.15.15,0,0,1,0,.11.23.23,0,0,1-.12.08,1.18,1.18,0,0,1-.25,0l-.38,0-.39,0a1.18,1.18,0,0,1-.25,0,.23.23,0,0,1-.12-.08.15.15,0,0,1,0-.11V95.12a2.7,2.7,0,0,0-.06-.65,1.28,1.28,0,0,0-.18-.41.81.81,0,0,0-.29-.26.93.93,0,0,0-.42-.09,1.12,1.12,0,0,0-.62.22,3.61,3.61,0,0,0-.65.65v3.77a.15.15,0,0,1,0,.11.22.22,0,0,1-.13.08l-.24,0-.39,0-.38,0a1.18,1.18,0,0,1-.25,0,.32.32,0,0,1-.13-.08.21.21,0,0,1,0-.11V92.68a.15.15,0,0,1,0-.11.2.2,0,0,1,.11-.08.87.87,0,0,1,.21,0l.33,0,.34,0a.88.88,0,0,1,.2,0,.31.31,0,0,1,.11.08.2.2,0,0,1,0,.11v.66a3.56,3.56,0,0,1,1-.76,2.18,2.18,0,0,1,1-.26,2.33,2.33,0,0,1,1,.19,1.73,1.73,0,0,1,.64.52,2.09,2.09,0,0,1,.35.77,4,4,0,0,1,.11,1Z"/><path d="M76.8,95.35a.58.58,0,0,1-.13.43.45.45,0,0,1-.36.14H72.86a2.29,2.29,0,0,0,.09.66,1.42,1.42,0,0,0,.27.5,1.21,1.21,0,0,0,.48.31,1.93,1.93,0,0,0,.71.11,4,4,0,0,0,.74-.06,5,5,0,0,0,.55-.13l.38-.13a.8.8,0,0,1,.25-.07.17.17,0,0,1,.1,0,.18.18,0,0,1,.06.08.32.32,0,0,1,0,.16,2,2,0,0,1,0,.26v.24c0,.07,0,.12,0,.17a.56.56,0,0,1,0,.12l-.07.09a.64.64,0,0,1-.22.12,4.42,4.42,0,0,1-.47.15,4.92,4.92,0,0,1-.66.12,4.75,4.75,0,0,1-.78.06,4.39,4.39,0,0,1-1.33-.19,2.41,2.41,0,0,1-1-.58,2.36,2.36,0,0,1-.56-1,4.38,4.38,0,0,1-.19-1.38,4.14,4.14,0,0,1,.2-1.36,2.78,2.78,0,0,1,.57-1,2.49,2.49,0,0,1,.91-.65,3.3,3.3,0,0,1,1.21-.22,3.12,3.12,0,0,1,1.21.21,2.18,2.18,0,0,1,.83.58,2.28,2.28,0,0,1,.48.88,3.92,3.92,0,0,1,.15,1.11Zm-1.55-.46a1.64,1.64,0,0,0-.27-1,1,1,0,0,0-.89-.39,1.16,1.16,0,0,0-.91.42,1.4,1.4,0,0,0-.22.46,2.05,2.05,0,0,0-.1.56Z"/><path d="M85.76,95.35a.58.58,0,0,1-.13.43.42.42,0,0,1-.35.14H81.83a2.71,2.71,0,0,0,.08.66,1.3,1.3,0,0,0,.28.5,1.08,1.08,0,0,0,.48.31,1.89,1.89,0,0,0,.71.11,3.91,3.91,0,0,0,.73-.06,4.09,4.09,0,0,0,.55-.13l.39-.13a.75.75,0,0,1,.24-.07.15.15,0,0,1,.1,0,.1.1,0,0,1,.06.08.46.46,0,0,1,0,.16c0,.07,0,.16,0,.26a1.77,1.77,0,0,1,0,.24.79.79,0,0,1,0,.17.56.56,0,0,1,0,.12.24.24,0,0,1-.06.09.73.73,0,0,1-.23.12,3.78,3.78,0,0,1-.47.15,5.06,5.06,0,0,1-.65.12,5,5,0,0,1-.79.06,4.37,4.37,0,0,1-1.32-.19,2.34,2.34,0,0,1-1-.58,2.38,2.38,0,0,1-.57-1,4.69,4.69,0,0,1-.19-1.38,4.42,4.42,0,0,1,.2-1.36,2.78,2.78,0,0,1,.57-1,2.57,2.57,0,0,1,.91-.65,3.3,3.3,0,0,1,1.21-.22,3.17,3.17,0,0,1,1.22.21,2.26,2.26,0,0,1,.83.58,2.4,2.4,0,0,1,.47.88,3.92,3.92,0,0,1,.15,1.11Zm-1.54-.46a1.64,1.64,0,0,0-.27-1,1.05,1.05,0,0,0-.9-.39,1.12,1.12,0,0,0-.53.12,1.09,1.09,0,0,0-.37.3,1.42,1.42,0,0,0-.23.46,2.52,2.52,0,0,0-.09.56Z"/><path d="M90.81,96.75a1.93,1.93,0,0,1-.19.85,1.67,1.67,0,0,1-.51.61,2.17,2.17,0,0,1-.78.37,3.35,3.35,0,0,1-1,.13,3.86,3.86,0,0,1-.61,0,3.33,3.33,0,0,1-.52-.12,3,3,0,0,1-.38-.15,1.21,1.21,0,0,1-.22-.14.52.52,0,0,1-.11-.21,2.24,2.24,0,0,1,0-.72.84.84,0,0,1,0-.18.22.22,0,0,1,.07-.09l.09,0a.51.51,0,0,1,.21.08l.34.18a3.14,3.14,0,0,0,.47.17,2,2,0,0,0,.61.09,1.48,1.48,0,0,0,.39,0,1.1,1.1,0,0,0,.29-.12.76.76,0,0,0,.19-.21.73.73,0,0,0,.06-.3.47.47,0,0,0-.12-.32,1.11,1.11,0,0,0-.31-.24,3.05,3.05,0,0,0-.44-.19l-.5-.2a3.33,3.33,0,0,1-.5-.25,1.79,1.79,0,0,1-.44-.34,1.52,1.52,0,0,1-.31-.49,1.76,1.76,0,0,1-.12-.68,1.87,1.87,0,0,1,.16-.75,1.62,1.62,0,0,1,.46-.58,2,2,0,0,1,.73-.37,3.13,3.13,0,0,1,1-.14,4.38,4.38,0,0,1,.52,0l.45.1a1.22,1.22,0,0,1,.34.12.84.84,0,0,1,.2.11.41.41,0,0,1,.09.1.36.36,0,0,1,0,.11,1.28,1.28,0,0,0,0,.17,1.7,1.7,0,0,1,0,.24,2.18,2.18,0,0,1,0,.28c0,.07,0,.13,0,.17a.23.23,0,0,1-.06.09l-.09,0a.38.38,0,0,1-.18-.07l-.3-.14a3,3,0,0,0-.42-.14,1.81,1.81,0,0,0-.54-.07,1.4,1.4,0,0,0-.38,0,.89.89,0,0,0-.26.12.48.48,0,0,0-.15.2.59.59,0,0,0,0,.23.49.49,0,0,0,.12.34,1.39,1.39,0,0,0,.32.23,3.63,3.63,0,0,0,.44.19l.51.19c.17.07.34.16.51.25a1.67,1.67,0,0,1,.77.83A1.67,1.67,0,0,1,90.81,96.75Z"/><path d="M95,97.79a1.65,1.65,0,0,1,0,.43.41.41,0,0,1-.09.21.45.45,0,0,1-.17.1l-.26.09-.32,0-.35,0a2.55,2.55,0,0,1-.83-.12,1.41,1.41,0,0,1-.57-.37,1.48,1.48,0,0,1-.34-.63,3.49,3.49,0,0,1-.11-.91v-2.9h-.68q-.12,0-.18-.15a1.18,1.18,0,0,1-.07-.49,2.73,2.73,0,0,1,0-.32.83.83,0,0,1,.05-.2.2.2,0,0,1,.19-.13h.67V91.21a.16.16,0,0,1,0-.12A.23.23,0,0,1,92,91a1.15,1.15,0,0,1,.25-.06h.77a1,1,0,0,1,.25.06.32.32,0,0,1,.13.08.21.21,0,0,1,0,.12v1.26H94.7a.23.23,0,0,1,.11,0,.44.44,0,0,1,.08.1.88.88,0,0,1,0,.2,2.73,2.73,0,0,1,0,.32,1.42,1.42,0,0,1-.06.49c0,.1-.11.15-.19.15H93.46v2.66a1.32,1.32,0,0,0,.15.7.58.58,0,0,0,.52.23l.23,0,.18,0,.13,0,.1,0a.09.09,0,0,1,.07,0,.1.1,0,0,1,.06.08s0,.11,0,.19A2.07,2.07,0,0,1,95,97.79Z"/><path d="M100.54,98.37a.2.2,0,0,1-.06.14.57.57,0,0,1-.2.07l-.4,0-.42,0a.39.39,0,0,1-.18-.07.2.2,0,0,1-.06-.14v-.46a2.64,2.64,0,0,1-.79.59,2.33,2.33,0,0,1-1,.21,2.78,2.78,0,0,1-.83-.12,1.77,1.77,0,0,1-.65-.35,1.54,1.54,0,0,1-.43-.57,2,2,0,0,1-.15-.8,1.79,1.79,0,0,1,.19-.86,1.54,1.54,0,0,1,.58-.61,3.26,3.26,0,0,1,1-.35,7.32,7.32,0,0,1,1.32-.11H99v-.35a1.6,1.6,0,0,0-.06-.46.66.66,0,0,0-.18-.33.68.68,0,0,0-.33-.2,1.74,1.74,0,0,0-.51-.07,2.6,2.6,0,0,0-.71.09,4.48,4.48,0,0,0-.56.2l-.4.2a.61.61,0,0,1-.26.09.21.21,0,0,1-.13,0,.48.48,0,0,1-.09-.13.83.83,0,0,1,0-.2,2.11,2.11,0,0,1,0-.26,1.33,1.33,0,0,1,0-.32.47.47,0,0,1,.12-.2,1.62,1.62,0,0,1,.31-.21,4.36,4.36,0,0,1,.52-.2,4,4,0,0,1,.66-.16,4.2,4.2,0,0,1,.72-.06,4.59,4.59,0,0,1,1.14.13,1.92,1.92,0,0,1,.78.4,1.53,1.53,0,0,1,.44.7,3,3,0,0,1,.14,1ZM99,95.94h-.61a3.1,3.1,0,0,0-.66.06,1.24,1.24,0,0,0-.45.17.79.79,0,0,0-.25.27.92.92,0,0,0-.08.38.74.74,0,0,0,.23.56.91.91,0,0,0,.62.2,1.2,1.2,0,0,0,.62-.17,2.82,2.82,0,0,0,.58-.5Z"/><path d="M30.91,112.68a.2.2,0,0,1,0,.11.49.49,0,0,1-.13.08,1.19,1.19,0,0,1-.24,0l-.39,0-.39,0-.24,0a.36.36,0,0,1-.13-.08.15.15,0,0,1,0-.11v-3.24a2.66,2.66,0,0,0-.06-.64,1.53,1.53,0,0,0-.17-.41.94.94,0,0,0-.3-.26.93.93,0,0,0-.42-.09,1.14,1.14,0,0,0-.62.22,3.59,3.59,0,0,0-.64.65v3.77a.21.21,0,0,1,0,.11.49.49,0,0,1-.13.08,1.31,1.31,0,0,1-.25,0l-.38,0-.39,0-.25,0a.49.49,0,0,1-.13-.08.2.2,0,0,1,0-.11v-8.35a.27.27,0,0,1,0-.12.32.32,0,0,1,.13-.08l.25-.06h.77l.25.06a.32.32,0,0,1,.13.08.28.28,0,0,1,0,.12v3.13a3.09,3.09,0,0,1,.84-.61,2.1,2.1,0,0,1,.89-.2,2.33,2.33,0,0,1,1,.19,1.65,1.65,0,0,1,.64.52,2,2,0,0,1,.36.77,4.75,4.75,0,0,1,.1,1.07Z"/><path d="M37.45,109.68a.6.6,0,0,1-.13.43.46.46,0,0,1-.36.14H33.52a2.71,2.71,0,0,0,.08.66,1.3,1.3,0,0,0,.28.5,1.08,1.08,0,0,0,.48.31,1.89,1.89,0,0,0,.71.11,3.91,3.91,0,0,0,.73-.06,4.09,4.09,0,0,0,.55-.13l.39-.13a.56.56,0,0,1,.24-.07.17.17,0,0,1,.1,0,.1.1,0,0,1,.06.08.46.46,0,0,1,0,.16c0,.07,0,.16,0,.26a1.77,1.77,0,0,1,0,.24.88.88,0,0,1,0,.17.56.56,0,0,1,0,.12.47.47,0,0,1-.06.09.88.88,0,0,1-.23.12,3.78,3.78,0,0,1-.47.15,5.06,5.06,0,0,1-.65.12,5,5,0,0,1-.79.06,4.37,4.37,0,0,1-1.32-.19,2.34,2.34,0,0,1-1-.58,2.38,2.38,0,0,1-.57-1,4.69,4.69,0,0,1-.19-1.38,4.37,4.37,0,0,1,.2-1.36,2.78,2.78,0,0,1,.57-1,2.49,2.49,0,0,1,.91-.65,3.3,3.3,0,0,1,1.21-.22,3.17,3.17,0,0,1,1.22.21,2.26,2.26,0,0,1,.83.58,2.4,2.4,0,0,1,.47.88,3.92,3.92,0,0,1,.15,1.11Zm-1.54-.46a1.64,1.64,0,0,0-.27-1,1.05,1.05,0,0,0-.9-.39,1.12,1.12,0,0,0-.53.12,1,1,0,0,0-.37.3,1.42,1.42,0,0,0-.23.46,2.52,2.52,0,0,0-.09.56Z"/><path d="M42.15,107.54a3.79,3.79,0,0,1,0,.38c0,.09,0,.17,0,.22a.22.22,0,0,1-.07.12.18.18,0,0,1-.11,0l-.11,0-.14,0-.18,0-.21,0a.8.8,0,0,0-.26,0,1.4,1.4,0,0,0-.28.17,1.78,1.78,0,0,0-.3.31,4.58,4.58,0,0,0-.33.47v3.53a.15.15,0,0,1,0,.11.49.49,0,0,1-.13.08,1.19,1.19,0,0,1-.24,0l-.39,0-.39,0-.24,0a.36.36,0,0,1-.13-.08.15.15,0,0,1,0-.11V107a.2.2,0,0,1,0-.11.24.24,0,0,1,.11-.08l.22,0a1.47,1.47,0,0,1,.32,0,1.67,1.67,0,0,1,.34,0,.87.87,0,0,1,.21,0,.21.21,0,0,1,.1.08.2.2,0,0,1,0,.11v.71a5.46,5.46,0,0,1,.42-.53,2.58,2.58,0,0,1,.38-.32,1,1,0,0,1,.35-.17,1.49,1.49,0,0,1,.36,0h.18l.19,0,.18,0,.11.06.05.07a.81.81,0,0,1,0,.11.88.88,0,0,1,0,.2C42.14,107.27,42.15,107.39,42.15,107.54Z"/><path d="M46.51,107.54a3.79,3.79,0,0,1,0,.38,1.06,1.06,0,0,1,0,.22.22.22,0,0,1-.07.12.18.18,0,0,1-.11,0l-.11,0-.14,0-.18,0-.21,0a.8.8,0,0,0-.26,0,1.75,1.75,0,0,0-.28.17,2.24,2.24,0,0,0-.3.31,4.58,4.58,0,0,0-.33.47v3.53a.15.15,0,0,1,0,.11.36.36,0,0,1-.13.08,1.19,1.19,0,0,1-.24,0l-.39,0-.39,0-.24,0a.36.36,0,0,1-.13-.08.15.15,0,0,1,0-.11V107a.2.2,0,0,1,0-.11.24.24,0,0,1,.11-.08l.22,0a1.47,1.47,0,0,1,.32,0,1.67,1.67,0,0,1,.34,0,.87.87,0,0,1,.21,0,.21.21,0,0,1,.1.08.2.2,0,0,1,0,.11v.71a5.46,5.46,0,0,1,.42-.53,2.58,2.58,0,0,1,.38-.32,1.13,1.13,0,0,1,.35-.17,1.49,1.49,0,0,1,.36,0h.18l.19,0,.18,0,.11.06.05.07a.81.81,0,0,1,0,.11.88.88,0,0,1,0,.2C46.5,107.27,46.51,107.39,46.51,107.54Z"/><path d="M51.77,112.69a.17.17,0,0,1-.06.14.46.46,0,0,1-.2.08l-.41,0-.41,0a.37.37,0,0,1-.19-.08.2.2,0,0,1,0-.14v-.45a2.56,2.56,0,0,1-.8.59,2.31,2.31,0,0,1-1,.21,2.73,2.73,0,0,1-.83-.12,1.77,1.77,0,0,1-.65-.35,1.51,1.51,0,0,1-.43-.57,2,2,0,0,1-.15-.8,1.79,1.79,0,0,1,.19-.86,1.54,1.54,0,0,1,.58-.61,3.09,3.09,0,0,1,1-.35,6.61,6.61,0,0,1,1.33-.11h.55v-.35a2.09,2.09,0,0,0-.05-.46.85.85,0,0,0-.18-.34.76.76,0,0,0-.33-.19,1.85,1.85,0,0,0-.51-.07,2.63,2.63,0,0,0-.72.09,4.3,4.3,0,0,0-.55.2,3.69,3.69,0,0,0-.4.2.6.6,0,0,1-.27.09.21.21,0,0,1-.12,0,.25.25,0,0,1-.09-.13.83.83,0,0,1,0-.2,1.14,1.14,0,0,1,0-.27,1.3,1.3,0,0,1,0-.31.47.47,0,0,1,.12-.2,1.34,1.34,0,0,1,.31-.21,3.78,3.78,0,0,1,.52-.2,4.12,4.12,0,0,1,.65-.16,4.4,4.4,0,0,1,.73-.06,4.71,4.71,0,0,1,1.14.13,2.06,2.06,0,0,1,.78.4,1.53,1.53,0,0,1,.44.7,3.33,3.33,0,0,1,.14,1Zm-1.57-2.42h-.61a3.1,3.1,0,0,0-.66.06,1.19,1.19,0,0,0-.44.17.64.64,0,0,0-.25.27.79.79,0,0,0-.08.38.69.69,0,0,0,.22.55.89.89,0,0,0,.63.21,1.23,1.23,0,0,0,.62-.17,2.38,2.38,0,0,0,.57-.51Z"/><path d="M62.11,112.68a.15.15,0,0,1,0,.11.41.41,0,0,1-.12.08,1.18,1.18,0,0,1-.25,0l-.38,0-.4,0-.24,0a.49.49,0,0,1-.13-.08.2.2,0,0,1,0-.11v-3.36a2.06,2.06,0,0,0-.06-.52,1.25,1.25,0,0,0-.16-.41,1,1,0,0,0-.28-.26.84.84,0,0,0-.4-.09,1,1,0,0,0-.58.22,4,4,0,0,0-.64.65v3.77a.2.2,0,0,1,0,.11.49.49,0,0,1-.13.08l-.25,0-.38,0-.39,0-.24,0a.36.36,0,0,1-.13-.08.15.15,0,0,1,0-.11v-3.36a2.7,2.7,0,0,0-.05-.52,1.26,1.26,0,0,0-.17-.41.84.84,0,0,0-.27-.26.88.88,0,0,0-.41-.09,1,1,0,0,0-.58.22,4.39,4.39,0,0,0-.63.65v3.77a.15.15,0,0,1,0,.11.29.29,0,0,1-.13.08l-.24,0-.39,0-.38,0a1.18,1.18,0,0,1-.25,0,.49.49,0,0,1-.13-.08.21.21,0,0,1,0-.11V107a.15.15,0,0,1,0-.11.2.2,0,0,1,.11-.08.87.87,0,0,1,.21,0,1.62,1.62,0,0,1,.33,0,1.72,1.72,0,0,1,.34,0,.88.88,0,0,1,.2,0,.31.31,0,0,1,.11.08.2.2,0,0,1,0,.11v.66a3.66,3.66,0,0,1,.93-.76,2.05,2.05,0,0,1,1-.26,3,3,0,0,1,.63.07,2,2,0,0,1,.5.21,1.68,1.68,0,0,1,.37.33,1.73,1.73,0,0,1,.27.43,4.25,4.25,0,0,1,.5-.47,2.67,2.67,0,0,1,.48-.32,1.92,1.92,0,0,1,.48-.19,2,2,0,0,1,.48-.06,2.2,2.2,0,0,1,.95.19,1.7,1.7,0,0,1,.63.52,2.11,2.11,0,0,1,.34.76,4.08,4.08,0,0,1,.1.93Z"/><path d="M65.14,105.1a.88.88,0,0,1-.2.66,1,1,0,0,1-.73.19,1.09,1.09,0,0,1-.73-.18.89.89,0,0,1-.18-.64.91.91,0,0,1,.19-.67,1,1,0,0,1,.73-.19,1.09,1.09,0,0,1,.73.18A.87.87,0,0,1,65.14,105.1ZM65,112.68a.21.21,0,0,1,0,.11.49.49,0,0,1-.13.08,1.18,1.18,0,0,1-.25,0l-.38,0-.39,0a1.19,1.19,0,0,1-.24,0,.29.29,0,0,1-.13-.08.15.15,0,0,1,0-.11V107a.14.14,0,0,1,0-.11s.06-.06.13-.09a1.11,1.11,0,0,1,.24,0l.39,0,.38,0a1.09,1.09,0,0,1,.25,0,.33.33,0,0,1,.13.09.18.18,0,0,1,0,.11Z"/><path d="M71.58,109.68a.6.6,0,0,1-.13.43.49.49,0,0,1-.36.14H67.65a2.3,2.3,0,0,0,.08.66,1.42,1.42,0,0,0,.27.5,1.18,1.18,0,0,0,.49.31,1.84,1.84,0,0,0,.7.11,4,4,0,0,0,.74-.06,4.5,4.5,0,0,0,.55-.13l.38-.13a.6.6,0,0,1,.25-.07.17.17,0,0,1,.1,0,.18.18,0,0,1,.06.08.32.32,0,0,1,0,.16,2,2,0,0,1,0,.26v.24c0,.06,0,.12,0,.17a.56.56,0,0,1,0,.12l-.07.09a.64.64,0,0,1-.22.12,3.78,3.78,0,0,1-.47.15,5.06,5.06,0,0,1-.65.12,5,5,0,0,1-.79.06,4.39,4.39,0,0,1-1.33-.19,2.37,2.37,0,0,1-.94-.58,2.27,2.27,0,0,1-.57-1,4.91,4.91,0,0,1,0-2.74,2.78,2.78,0,0,1,.57-1,2.49,2.49,0,0,1,.91-.65,3.3,3.3,0,0,1,1.21-.22,3.12,3.12,0,0,1,1.21.21,2.1,2.1,0,0,1,.83.58,2.28,2.28,0,0,1,.48.88,3.92,3.92,0,0,1,.15,1.11ZM70,109.22a1.64,1.64,0,0,0-.27-1,1,1,0,0,0-.89-.39,1.12,1.12,0,0,0-.53.12,1,1,0,0,0-.37.3,1.42,1.42,0,0,0-.23.46,1.73,1.73,0,0,0-.09.56Z"/><path d="M78,112.68a.2.2,0,0,1,0,.11.49.49,0,0,1-.13.08,1.18,1.18,0,0,1-.25,0l-.38,0-.39,0a1.07,1.07,0,0,1-.24,0,.36.36,0,0,1-.13-.08.15.15,0,0,1,0-.11v-3.24a2.66,2.66,0,0,0-.06-.64,1.53,1.53,0,0,0-.17-.41.94.94,0,0,0-.3-.26.93.93,0,0,0-.42-.09,1.12,1.12,0,0,0-.62.22,3.59,3.59,0,0,0-.64.65v3.77a.21.21,0,0,1,0,.11.49.49,0,0,1-.13.08,1.31,1.31,0,0,1-.25,0l-.38,0-.39,0-.25,0a.49.49,0,0,1-.13-.08.2.2,0,0,1,0-.11V107a.2.2,0,0,1,0-.11.24.24,0,0,1,.11-.08l.21,0a1.62,1.62,0,0,1,.33,0,1.67,1.67,0,0,1,.34,0,.69.69,0,0,1,.2,0,.24.24,0,0,1,.11.08.2.2,0,0,1,0,.11v.66a3.45,3.45,0,0,1,1-.76,2.14,2.14,0,0,1,1-.26,2.33,2.33,0,0,1,1,.19,1.65,1.65,0,0,1,.64.52,2.14,2.14,0,0,1,.36.76,4.71,4.71,0,0,1,.1,1.06Z"/><path d="M82.58,112.12a2.39,2.39,0,0,1,0,.43.87.87,0,0,1-.09.21.55.55,0,0,1-.17.1L82,113l-.33,0-.35,0a2.49,2.49,0,0,1-.82-.12,1.38,1.38,0,0,1-.58-.37,1.57,1.57,0,0,1-.34-.64,3.35,3.35,0,0,1-.11-.9v-2.9h-.67a.2.2,0,0,1-.19-.15,1.42,1.42,0,0,1-.06-.49,3,3,0,0,1,0-.32.83.83,0,0,1,0-.2.27.27,0,0,1,.08-.1.2.2,0,0,1,.11,0h.67v-1.27a.21.21,0,0,1,0-.11.22.22,0,0,1,.13-.08.7.7,0,0,1,.24-.06h.78a.7.7,0,0,1,.24.06.32.32,0,0,1,.13.08.21.21,0,0,1,0,.11v1.27h1.23a.2.2,0,0,1,.11,0,.27.27,0,0,1,.08.1.83.83,0,0,1,0,.2,3,3,0,0,1,0,.32,1.42,1.42,0,0,1-.06.49q-.06.15-.18.15H81.1v2.66a1.44,1.44,0,0,0,.14.7.58.58,0,0,0,.52.23l.23,0,.18,0,.14,0a.19.19,0,0,1,.1,0l.07,0a.12.12,0,0,1,0,.08s0,.11,0,.19A2.36,2.36,0,0,1,82.58,112.12Z"/><path d="M88.18,112.69a.17.17,0,0,1-.07.14.42.42,0,0,1-.2.08l-.4,0-.42,0a.38.38,0,0,1-.18-.08.16.16,0,0,1,0-.14v-.45a2.68,2.68,0,0,1-.8.59,2.31,2.31,0,0,1-1,.21,2.68,2.68,0,0,1-.83-.12,1.9,1.9,0,0,1-.66-.35,1.6,1.6,0,0,1-.42-.57,1.84,1.84,0,0,1-.16-.8,1.79,1.79,0,0,1,.2-.86,1.59,1.59,0,0,1,.57-.61,3.26,3.26,0,0,1,1-.35,6.55,6.55,0,0,1,1.33-.11h.55v-.35a1.6,1.6,0,0,0-.06-.46.73.73,0,0,0-.17-.34.89.89,0,0,0-.33-.19,1.87,1.87,0,0,0-.52-.07,2.6,2.6,0,0,0-.71.09,4.3,4.3,0,0,0-.55.2,4,4,0,0,0-.41.2.57.57,0,0,1-.26.09.17.17,0,0,1-.12,0,.25.25,0,0,1-.09-.13.52.52,0,0,1-.06-.2,2.13,2.13,0,0,1,0-.27,1.3,1.3,0,0,1,0-.31.63.63,0,0,1,.13-.2,1.34,1.34,0,0,1,.31-.21,3.34,3.34,0,0,1,.52-.2,3.86,3.86,0,0,1,.65-.16,4.2,4.2,0,0,1,.72-.06,4.59,4.59,0,0,1,1.14.13,1.92,1.92,0,0,1,.78.4,1.63,1.63,0,0,1,.45.7,3.33,3.33,0,0,1,.14,1Zm-1.57-2.42H86a3.1,3.1,0,0,0-.66.06,1.32,1.32,0,0,0-.45.17.8.8,0,0,0-.25.27.92.92,0,0,0-.08.38.7.7,0,0,0,.23.55.88.88,0,0,0,.62.21,1.2,1.2,0,0,0,.62-.17,2.61,2.61,0,0,0,.58-.51Z"/><path d="M97.42,109.68a.65.65,0,0,1-.13.43.49.49,0,0,1-.36.14H93.48a2.29,2.29,0,0,0,.09.66,1.28,1.28,0,0,0,.27.5,1.21,1.21,0,0,0,.48.31,1.93,1.93,0,0,0,.71.11,4,4,0,0,0,.74-.06,5,5,0,0,0,.55-.13l.38-.13a.56.56,0,0,1,.25-.07.12.12,0,0,1,.09,0s0,0,.07.08a.5.5,0,0,1,0,.16,2,2,0,0,1,0,.26v.24a1.11,1.11,0,0,0,0,.17s0,.08,0,.12l-.07.09a.77.77,0,0,1-.22.12,4.42,4.42,0,0,1-.47.15,4.92,4.92,0,0,1-.66.12,4.84,4.84,0,0,1-.78.06,4.39,4.39,0,0,1-1.33-.19,2.41,2.41,0,0,1-1-.58,2.49,2.49,0,0,1-.57-1,4.71,4.71,0,0,1-.18-1.38,4.38,4.38,0,0,1,.19-1.36,2.94,2.94,0,0,1,.58-1,2.41,2.41,0,0,1,.91-.65,3.25,3.25,0,0,1,1.2-.22,3.17,3.17,0,0,1,1.22.21,2.18,2.18,0,0,1,.83.58,2.58,2.58,0,0,1,.48.88,3.92,3.92,0,0,1,.15,1.11Zm-1.55-.46a1.64,1.64,0,0,0-.27-1,1,1,0,0,0-.89-.39,1.09,1.09,0,0,0-.53.12,1,1,0,0,0-.38.3,1.65,1.65,0,0,0-.23.46,2.52,2.52,0,0,0-.09.56Z"/><path d="M103.88,112.68a.15.15,0,0,1,0,.11.31.31,0,0,1-.12.08,1.18,1.18,0,0,1-.25,0l-.38,0-.39,0a1.18,1.18,0,0,1-.25,0,.31.31,0,0,1-.12-.08.15.15,0,0,1,0-.11v-3.24a2.66,2.66,0,0,0-.06-.64,1.28,1.28,0,0,0-.18-.41.81.81,0,0,0-.29-.26.94.94,0,0,0-.43-.09,1.11,1.11,0,0,0-.61.22,3.61,3.61,0,0,0-.65.65v3.77a.15.15,0,0,1,0,.11.29.29,0,0,1-.13.08,1.19,1.19,0,0,1-.24,0l-.39,0-.38,0a1.18,1.18,0,0,1-.25,0,.49.49,0,0,1-.13-.08.21.21,0,0,1,0-.11V107a.2.2,0,0,1,0-.11.28.28,0,0,1,.12-.08.87.87,0,0,1,.21,0,1.62,1.62,0,0,1,.33,0,1.57,1.57,0,0,1,.33,0,.87.87,0,0,1,.21,0,.31.31,0,0,1,.11.08.2.2,0,0,1,0,.11v.66a3.56,3.56,0,0,1,1-.76,2.18,2.18,0,0,1,1-.26,2.36,2.36,0,0,1,1,.19,1.73,1.73,0,0,1,.64.52,2.12,2.12,0,0,1,.35.76,4.67,4.67,0,0,1,.11,1.06Z"/><path d="M27.59,127a.17.17,0,0,1,0,.11.26.26,0,0,1-.13.08l-.24,0-.39,0-.38,0a1.18,1.18,0,0,1-.25,0,.32.32,0,0,1-.13-.08.23.23,0,0,1,0-.11v-3.24a2.66,2.66,0,0,0-.06-.64,1.28,1.28,0,0,0-.18-.41.8.8,0,0,0-.29-.26,1,1,0,0,0-.43-.09,1.09,1.09,0,0,0-.61.22,3.31,3.31,0,0,0-.65.65V127a.17.17,0,0,1,0,.11.26.26,0,0,1-.13.08,1.19,1.19,0,0,1-.24,0l-.39,0-.39,0a1.19,1.19,0,0,1-.24,0,.26.26,0,0,1-.13-.08.17.17,0,0,1,0-.11v-5.67a.2.2,0,0,1,0-.11.23.23,0,0,1,.12-.08l.21-.05h.66l.21.05a.21.21,0,0,1,.1.08.2.2,0,0,1,0,.11V122a3.55,3.55,0,0,1,1-.76,2.14,2.14,0,0,1,1-.26,2.38,2.38,0,0,1,1,.19,1.73,1.73,0,0,1,.64.52,2.12,2.12,0,0,1,.35.76,4.67,4.67,0,0,1,.11,1.06Z"/><path d="M34.27,127a.23.23,0,0,1,0,.11.28.28,0,0,1-.12.08.87.87,0,0,1-.21,0l-.32,0-.34,0a.87.87,0,0,1-.21,0,.31.31,0,0,1-.11-.08.23.23,0,0,1,0-.11v-.66a3.56,3.56,0,0,1-.95.76,2.17,2.17,0,0,1-1,.26,2.38,2.38,0,0,1-1-.19,1.73,1.73,0,0,1-.64-.52,2.17,2.17,0,0,1-.35-.77,4.72,4.72,0,0,1-.1-1.08v-3.47a.2.2,0,0,1,0-.11.26.26,0,0,1,.13-.08l.25-.05h.77l.24.05a.26.26,0,0,1,.13.08.15.15,0,0,1,0,.11v3.2a2.92,2.92,0,0,0,.06.68,1,1,0,0,0,.17.4.86.86,0,0,0,.3.27.93.93,0,0,0,.42.09,1.09,1.09,0,0,0,.61-.22,3.63,3.63,0,0,0,.66-.65v-3.77a.15.15,0,0,1,0-.11.23.23,0,0,1,.12-.08l.25-.05h.77l.24.05a.32.32,0,0,1,.13.08.21.21,0,0,1,0,.11Z"/><path d="M40.84,124a.6.6,0,0,1-.13.43.45.45,0,0,1-.35.14H36.91a2.71,2.71,0,0,0,.08.66,1.3,1.3,0,0,0,.28.5,1.08,1.08,0,0,0,.48.31,1.89,1.89,0,0,0,.71.11,3.91,3.91,0,0,0,.73-.06,4.09,4.09,0,0,0,.55-.13l.39-.14a.69.69,0,0,1,.24-.06.15.15,0,0,1,.1,0,.1.1,0,0,1,.06.08.46.46,0,0,1,0,.16,1.93,1.93,0,0,1,0,.26,1.77,1.77,0,0,1,0,.24.88.88,0,0,1,0,.17.36.36,0,0,1,0,.11.21.21,0,0,1-.06.1.73.73,0,0,1-.23.12,3.78,3.78,0,0,1-.47.15c-.19,0-.41.09-.65.12a5,5,0,0,1-.79.06,4.37,4.37,0,0,1-1.32-.19,2.34,2.34,0,0,1-1-.58,2.44,2.44,0,0,1-.57-1,4.69,4.69,0,0,1-.19-1.38,4.37,4.37,0,0,1,.2-1.36,2.78,2.78,0,0,1,.57-1,2.57,2.57,0,0,1,.91-.65,3.3,3.3,0,0,1,1.21-.22,3.17,3.17,0,0,1,1.22.21,2.26,2.26,0,0,1,.83.58,2.4,2.4,0,0,1,.47.88,3.92,3.92,0,0,1,.15,1.11Zm-1.54-.46a1.64,1.64,0,0,0-.27-1,1.05,1.05,0,0,0-.9-.39,1.12,1.12,0,0,0-.53.12,1,1,0,0,0-.37.3A1.33,1.33,0,0,0,37,123a2.52,2.52,0,0,0-.09.56Z"/><path d="M45.88,125.41a1.93,1.93,0,0,1-.18.85,1.67,1.67,0,0,1-.51.61,2.17,2.17,0,0,1-.78.37,3.37,3.37,0,0,1-1,.13,3.83,3.83,0,0,1-.6-.05,3.33,3.33,0,0,1-.52-.12,3,3,0,0,1-.38-.15.93.93,0,0,1-.22-.14.52.52,0,0,1-.11-.21,2.24,2.24,0,0,1,0-.72.84.84,0,0,1,0-.18.22.22,0,0,1,.07-.09l.09,0a.51.51,0,0,1,.21.08l.34.18a3.14,3.14,0,0,0,.47.17,1.91,1.91,0,0,0,.61.09,1.54,1.54,0,0,0,.39,0,.86.86,0,0,0,.29-.13.55.55,0,0,0,.19-.21.65.65,0,0,0,.06-.29.47.47,0,0,0-.12-.32,1,1,0,0,0-.31-.24,3.05,3.05,0,0,0-.44-.19l-.5-.2a3.33,3.33,0,0,1-.5-.25A1.79,1.79,0,0,1,42,124a1.64,1.64,0,0,1-.31-.49,1.76,1.76,0,0,1-.12-.68,1.87,1.87,0,0,1,.16-.75,1.62,1.62,0,0,1,.46-.58,2.19,2.19,0,0,1,.73-.38,3.48,3.48,0,0,1,1-.13,2.78,2.78,0,0,1,.51,0l.46.09a1.86,1.86,0,0,1,.34.13l.2.11a.41.41,0,0,1,.09.1s0,.07,0,.11a1.28,1.28,0,0,0,0,.17c0,.06,0,.14,0,.24s0,.21,0,.28,0,.13,0,.17a.23.23,0,0,1-.06.09l-.09,0a.38.38,0,0,1-.18-.07l-.3-.14a3,3,0,0,0-.42-.14,1.81,1.81,0,0,0-.54-.07,1.4,1.4,0,0,0-.38,0,.89.89,0,0,0-.26.12.48.48,0,0,0-.15.2.59.59,0,0,0,0,.23.45.45,0,0,0,.12.33,1.16,1.16,0,0,0,.32.24,3.63,3.63,0,0,0,.44.19l.51.19a4,4,0,0,1,.51.25,1.9,1.9,0,0,1,.45.34,1.64,1.64,0,0,1,.31.49A1.67,1.67,0,0,1,45.88,125.41Z"/><path d="M50,126.45a1.65,1.65,0,0,1,0,.43.41.41,0,0,1-.09.2.36.36,0,0,1-.17.11,1.34,1.34,0,0,1-.26.08,1.52,1.52,0,0,1-.32.06l-.35,0a2.55,2.55,0,0,1-.83-.12,1.41,1.41,0,0,1-.57-.37,1.46,1.46,0,0,1-.34-.64,3.35,3.35,0,0,1-.11-.9v-2.9h-.68q-.12,0-.18-.15a1.2,1.2,0,0,1-.07-.5,2.69,2.69,0,0,1,0-.31.83.83,0,0,1,.05-.2.2.2,0,0,1,.19-.13H47v-1.27a.15.15,0,0,1,0-.11.31.31,0,0,1,.12-.09l.25,0h.77a1.09,1.09,0,0,1,.25,0,.48.48,0,0,1,.13.09.2.2,0,0,1,0,.11v1.27h1.24a.23.23,0,0,1,.11,0,.44.44,0,0,1,.08.1.88.88,0,0,1,0,.2,2.69,2.69,0,0,1,0,.31,1.45,1.45,0,0,1-.06.5c0,.1-.11.15-.19.15H48.54v2.66a1.32,1.32,0,0,0,.15.7.58.58,0,0,0,.52.23l.23,0,.18,0,.13,0,.1,0a.09.09,0,0,1,.07,0A.1.1,0,0,1,50,126s0,.11,0,.18A2.36,2.36,0,0,1,50,126.45Z"/><path d="M54.56,121.87c0,.15,0,.28,0,.37a1,1,0,0,1,0,.23.33.33,0,0,1-.06.12.2.2,0,0,1-.11,0l-.11,0-.15,0-.17,0-.21,0a.86.86,0,0,0-.27,0,1.34,1.34,0,0,0-.27.17,1.78,1.78,0,0,0-.3.31,2.73,2.73,0,0,0-.33.47V127a.25.25,0,0,1,0,.11.32.32,0,0,1-.13.08,1.31,1.31,0,0,1-.25,0l-.38,0-.39,0-.25,0a.32.32,0,0,1-.13-.08.23.23,0,0,1,0-.11v-5.67a.2.2,0,0,1,0-.11.24.24,0,0,1,.11-.08l.21-.05H52a1.13,1.13,0,0,1,.2.05.24.24,0,0,1,.11.08.2.2,0,0,1,0,.11v.71a5.46,5.46,0,0,1,.42-.53,3.21,3.21,0,0,1,.37-.32,1.18,1.18,0,0,1,.36-.17,1.48,1.48,0,0,1,.35,0H54l.2,0,.18,0,.11.06,0,.07a.81.81,0,0,1,0,.11s0,.11,0,.2Z"/><path d="M60.85,124.12a4.25,4.25,0,0,1-.19,1.32,2.8,2.8,0,0,1-.57,1,2.61,2.61,0,0,1-1,.66,3.55,3.55,0,0,1-1.36.24,3.71,3.71,0,0,1-1.31-.21,2.36,2.36,0,0,1-.93-.61,2.52,2.52,0,0,1-.55-1,4.46,4.46,0,0,1-.18-1.33,4.25,4.25,0,0,1,.2-1.32,2.82,2.82,0,0,1,.58-1,2.46,2.46,0,0,1,1-.66,3.52,3.52,0,0,1,1.36-.24,3.73,3.73,0,0,1,1.32.21,2.37,2.37,0,0,1,.92.6,2.52,2.52,0,0,1,.55,1A4.9,4.9,0,0,1,60.85,124.12Zm-1.64.06a3.67,3.67,0,0,0-.07-.77,1.76,1.76,0,0,0-.22-.61,1.13,1.13,0,0,0-.43-.41,1.29,1.29,0,0,0-.66-.15,1.49,1.49,0,0,0-.62.13,1.17,1.17,0,0,0-.44.39,1.84,1.84,0,0,0-.26.6,3.8,3.8,0,0,0-.08.8,3.67,3.67,0,0,0,.07.77,2.16,2.16,0,0,0,.22.62,1.18,1.18,0,0,0,.43.4,1.61,1.61,0,0,0,1.29,0,1.12,1.12,0,0,0,.43-.38,1.65,1.65,0,0,0,.26-.6A3.8,3.8,0,0,0,59.21,124.18Z"/><path d="M70.24,124.09a5.16,5.16,0,0,1-.17,1.36,2.8,2.8,0,0,1-.47,1,2,2,0,0,1-.77.66,2.43,2.43,0,0,1-1.06.23,2.16,2.16,0,0,1-.46-.05,1.63,1.63,0,0,1-.4-.15,2,2,0,0,1-.38-.24,4,4,0,0,1-.39-.34v2.66a.25.25,0,0,1,0,.12.32.32,0,0,1-.13.08,1.15,1.15,0,0,1-.25.06l-.38,0-.39,0a1.31,1.31,0,0,1-.25-.06.32.32,0,0,1-.13-.08.24.24,0,0,1,0-.12v-7.91a.2.2,0,0,1,0-.11.24.24,0,0,1,.11-.08l.21-.05h.65l.2.05a.28.28,0,0,1,.12.08.2.2,0,0,1,0,.11V122a5,5,0,0,1,.48-.45,2.94,2.94,0,0,1,.49-.32,1.84,1.84,0,0,1,.51-.19,2.34,2.34,0,0,1,1.62.18,2,2,0,0,1,.72.67,3.16,3.16,0,0,1,.4,1A5.66,5.66,0,0,1,70.24,124.09Zm-1.67.12a4,4,0,0,0,0-.7,2,2,0,0,0-.19-.59,1.09,1.09,0,0,0-.34-.42.9.9,0,0,0-.53-.15,1.1,1.1,0,0,0-.31,0,1.59,1.59,0,0,0-.32.16,1.64,1.64,0,0,0-.33.28,2.61,2.61,0,0,0-.36.42v1.87a3.68,3.68,0,0,0,.64.66,1,1,0,0,0,.63.23.84.84,0,0,0,.53-.16,1.14,1.14,0,0,0,.36-.42,2.33,2.33,0,0,0,.21-.58A3.47,3.47,0,0,0,68.57,124.21Z"/><path d="M74.89,121.87c0,.15,0,.28,0,.37a1,1,0,0,1,0,.23.22.22,0,0,1-.07.12.17.17,0,0,1-.1,0l-.12,0-.14,0-.17,0-.21,0a.86.86,0,0,0-.27,0,1.75,1.75,0,0,0-.28.17,2.23,2.23,0,0,0-.29.31,3.39,3.39,0,0,0-.34.47V127a.17.17,0,0,1,0,.11.22.22,0,0,1-.13.08l-.24,0-.39,0-.38,0a1.18,1.18,0,0,1-.25,0,.32.32,0,0,1-.13-.08.25.25,0,0,1,0-.11v-5.67a.2.2,0,0,1,0-.11.28.28,0,0,1,.12-.08l.21-.05h.67l.2.05a.31.31,0,0,1,.11.08.2.2,0,0,1,0,.11v.71a5.46,5.46,0,0,1,.42-.53,2.55,2.55,0,0,1,.37-.32,1.18,1.18,0,0,1,.36-.17,1.34,1.34,0,0,1,.35,0h.18l.2,0,.17,0,.11.06a.19.19,0,0,1,.06.07.81.81,0,0,1,0,.11s0,.11,0,.2S74.89,121.72,74.89,121.87Z"/><path d="M81.18,124.12a4.25,4.25,0,0,1-.19,1.32,2.82,2.82,0,0,1-.58,1,2.5,2.5,0,0,1-1,.66,3.55,3.55,0,0,1-1.36.24,3.77,3.77,0,0,1-1.32-.21,2.39,2.39,0,0,1-.92-.61,2.52,2.52,0,0,1-.55-1,4.46,4.46,0,0,1-.18-1.33,4.25,4.25,0,0,1,.2-1.32,2.82,2.82,0,0,1,.58-1,2.46,2.46,0,0,1,1-.66,3.52,3.52,0,0,1,1.36-.24,3.81,3.81,0,0,1,1.32.21,2.37,2.37,0,0,1,.92.6,2.5,2.5,0,0,1,.54,1A4.53,4.53,0,0,1,81.18,124.12Zm-1.64.06a3.67,3.67,0,0,0-.07-.77,1.76,1.76,0,0,0-.22-.61,1.13,1.13,0,0,0-.43-.41,1.29,1.29,0,0,0-.66-.15,1.49,1.49,0,0,0-.62.13,1.1,1.1,0,0,0-.44.39,1.84,1.84,0,0,0-.26.6,3.8,3.8,0,0,0-.08.8,3.67,3.67,0,0,0,.07.77,1.89,1.89,0,0,0,.22.62,1.24,1.24,0,0,0,.42.4,1.46,1.46,0,0,0,.66.14,1.34,1.34,0,0,0,.63-.13,1.08,1.08,0,0,0,.44-.38,1.49,1.49,0,0,0,.25-.6A3.2,3.2,0,0,0,79.54,124.18Z"/><path d="M86.47,126.1c0,.11,0,.21,0,.28s0,.14,0,.19l0,.12-.1.12A1.39,1.39,0,0,1,86,127a4.08,4.08,0,0,1-.42.19,3.8,3.8,0,0,1-.51.13,3.66,3.66,0,0,1-.57,0,3.2,3.2,0,0,1-1.16-.2,2.26,2.26,0,0,1-.85-.6,2.57,2.57,0,0,1-.51-1,4.37,4.37,0,0,1-.18-1.31,4.61,4.61,0,0,1,.21-1.47,2.84,2.84,0,0,1,.6-1,2.44,2.44,0,0,1,.9-.61,3.25,3.25,0,0,1,1.14-.19,2.74,2.74,0,0,1,.5,0,3.45,3.45,0,0,1,.46.12,3.34,3.34,0,0,1,.38.17,1,1,0,0,1,.23.17.48.48,0,0,1,.1.12.33.33,0,0,1,0,.12.92.92,0,0,1,0,.19,2.1,2.1,0,0,1,0,.27,1.48,1.48,0,0,1-.06.51c0,.1-.1.15-.17.15a.37.37,0,0,1-.22-.09l-.29-.19a2.36,2.36,0,0,0-.39-.2,1.55,1.55,0,0,0-.55-.09,1.09,1.09,0,0,0-1,.48,2.49,2.49,0,0,0-.33,1.41,3.8,3.8,0,0,0,.08.8,1.78,1.78,0,0,0,.25.59,1,1,0,0,0,.4.35,1.26,1.26,0,0,0,.57.12,1.42,1.42,0,0,0,.57-.1,2.22,2.22,0,0,0,.41-.22,2.94,2.94,0,0,0,.3-.22.41.41,0,0,1,.2-.1.13.13,0,0,1,.1,0,.15.15,0,0,1,.06.11,1.09,1.09,0,0,1,0,.22C86.46,125.85,86.47,126,86.47,126.1Z"/><path d="M92.59,124a.6.6,0,0,1-.13.43.46.46,0,0,1-.36.14H88.66a2.71,2.71,0,0,0,.08.66,1.3,1.3,0,0,0,.28.5,1.08,1.08,0,0,0,.48.31,1.89,1.89,0,0,0,.71.11,3.91,3.91,0,0,0,.73-.06,4.09,4.09,0,0,0,.55-.13l.39-.14a.69.69,0,0,1,.24-.06.17.17,0,0,1,.1,0,.13.13,0,0,1,.06.08.46.46,0,0,1,0,.16c0,.07,0,.15,0,.26a1.77,1.77,0,0,1,0,.24.88.88,0,0,1,0,.17.36.36,0,0,1,0,.11.33.33,0,0,1-.06.1A.88.88,0,0,1,92,127a3.78,3.78,0,0,1-.47.15c-.19,0-.41.09-.65.12a5,5,0,0,1-.79.06,4.37,4.37,0,0,1-1.32-.19,2.34,2.34,0,0,1-.95-.58,2.44,2.44,0,0,1-.57-1,4.69,4.69,0,0,1-.19-1.38,4.37,4.37,0,0,1,.2-1.36,2.78,2.78,0,0,1,.57-1,2.49,2.49,0,0,1,.91-.65,3.3,3.3,0,0,1,1.21-.22,3.17,3.17,0,0,1,1.22.21,2.26,2.26,0,0,1,.83.58,2.4,2.4,0,0,1,.47.88,3.92,3.92,0,0,1,.15,1.11ZM91,123.55a1.58,1.58,0,0,0-.26-1,1.06,1.06,0,0,0-.9-.39,1.12,1.12,0,0,0-.53.12,1,1,0,0,0-.37.3,1.33,1.33,0,0,0-.23.46,2.52,2.52,0,0,0-.09.56Z"/><path d="M97.63,125.41a1.93,1.93,0,0,1-.18.85,1.67,1.67,0,0,1-.51.61,2.17,2.17,0,0,1-.78.37,3.37,3.37,0,0,1-1,.13,3.83,3.83,0,0,1-.6-.05,3.33,3.33,0,0,1-.52-.12,3,3,0,0,1-.38-.15.93.93,0,0,1-.22-.14.52.52,0,0,1-.11-.21,2.24,2.24,0,0,1,0-.72.84.84,0,0,1,0-.18.22.22,0,0,1,.07-.09l.09,0a.51.51,0,0,1,.21.08l.34.18a3.14,3.14,0,0,0,.47.17,1.91,1.91,0,0,0,.61.09,1.54,1.54,0,0,0,.39,0,.86.86,0,0,0,.29-.13.55.55,0,0,0,.19-.21.65.65,0,0,0,.06-.29.47.47,0,0,0-.12-.32,1,1,0,0,0-.31-.24,3.05,3.05,0,0,0-.44-.19l-.5-.2a3.33,3.33,0,0,1-.5-.25,1.79,1.79,0,0,1-.44-.34,1.64,1.64,0,0,1-.31-.49,1.76,1.76,0,0,1-.12-.68,1.87,1.87,0,0,1,.16-.75,1.62,1.62,0,0,1,.46-.58,2.19,2.19,0,0,1,.73-.38,3.48,3.48,0,0,1,1-.13,2.78,2.78,0,0,1,.51,0l.46.09a1.86,1.86,0,0,1,.34.13l.2.11a.41.41,0,0,1,.09.1s0,.07,0,.11a1.28,1.28,0,0,0,0,.17c0,.06,0,.14,0,.24s0,.21,0,.28,0,.13,0,.17a.23.23,0,0,1-.06.09l-.09,0a.38.38,0,0,1-.18-.07l-.3-.14a3,3,0,0,0-.42-.14,1.81,1.81,0,0,0-.54-.07,1.4,1.4,0,0,0-.38,0,.89.89,0,0,0-.26.12.48.48,0,0,0-.15.2.59.59,0,0,0-.05.23A.45.45,0,0,0,95,123a1.16,1.16,0,0,0,.32.24,3.63,3.63,0,0,0,.44.19l.51.19a4,4,0,0,1,.51.25,1.9,1.9,0,0,1,.45.34,1.64,1.64,0,0,1,.31.49A1.67,1.67,0,0,1,97.63,125.41Z"/><path d="M104.3,124.12a4.25,4.25,0,0,1-.19,1.32,2.82,2.82,0,0,1-.58,1,2.57,2.57,0,0,1-1,.66,3.55,3.55,0,0,1-1.36.24,3.73,3.73,0,0,1-1.32-.21,2.51,2.51,0,0,1-.93-.61,2.63,2.63,0,0,1-.54-1,4.46,4.46,0,0,1-.18-1.33,4.57,4.57,0,0,1,.19-1.32,2.83,2.83,0,0,1,.59-1,2.43,2.43,0,0,1,1-.66,3.59,3.59,0,0,1,1.36-.24,3.83,3.83,0,0,1,1.33.21,2.37,2.37,0,0,1,.92.6,2.63,2.63,0,0,1,.54,1A4.53,4.53,0,0,1,104.3,124.12Zm-1.64.06a4.49,4.49,0,0,0-.07-.77,1.76,1.76,0,0,0-.23-.61,1,1,0,0,0-.42-.41,1.32,1.32,0,0,0-.66-.15,1.46,1.46,0,0,0-.62.13,1.1,1.1,0,0,0-.44.39,1.65,1.65,0,0,0-.26.6,3.23,3.23,0,0,0-.08.8,3.67,3.67,0,0,0,.07.77,1.89,1.89,0,0,0,.22.62,1.08,1.08,0,0,0,.42.4,1.46,1.46,0,0,0,.66.14,1.39,1.39,0,0,0,.63-.13,1.15,1.15,0,0,0,.44-.38,1.65,1.65,0,0,0,.25-.6A3.2,3.2,0,0,0,102.66,124.18Z"/><path d="M107.18,126.31a1.1,1.1,0,0,1-.21.79,1,1,0,0,1-.74.2,1,1,0,0,1-.73-.2,1,1,0,0,1-.21-.76,1.1,1.1,0,0,1,.21-.79,1.05,1.05,0,0,1,.75-.21,1.06,1.06,0,0,1,.73.2A1.13,1.13,0,0,1,107.18,126.31Z"/></g></g></svg>