<svg xmlns="http://www.w3.org/2000/svg" viewBox="0 0 99.33 67.81"><defs><style>.cls-1{fill:#c6c6c6;}.cls-2{fill:#00683b;}.cls-3{fill:#fff;}.cls-4{fill:#009a5c;}.cls-5{fill:#66a489;}.cls-6{fill:#99c3b1;}</style></defs><g id="Capa_2" data-name="Capa 2"><g id="Capa_1-2" data-name="Capa 1"><rect class="cls-1" width="99.33" height="67.81"/><circle class="cls-2" cx="39.88" cy="8.43" r="6.39"/><path class="cls-3" d="M37.11,11.37V5.64h1.74l1,3.91,1-3.91h1.74v5.73H41.57V6.86l-1.13,4.51H39.32L38.19,6.86v4.51Z"/><circle class="cls-4" cx="39.88" cy="25.42" r="6.39"/><path class="cls-3" d="M39.31,28.35V23.59h-1.7v-1h4.55v1H40.47v4.76Z"/><circle class="cls-5" cx="39.89" cy="42.4" r="6.39"/><path class="cls-3" d="M37.51,43.47l1.12-.11a1.45,1.45,0,0,0,.41.83,1.24,1.24,0,0,0,.84.26,1.32,1.32,0,0,0,.84-.23.71.71,0,0,0,.29-.56.5.5,0,0,0-.12-.34.91.91,0,0,0-.42-.25c-.13,0-.44-.13-.92-.25a3,3,0,0,1-1.31-.57,1.48,1.48,0,0,1-.53-1.15,1.54,1.54,0,0,1,.25-.82,1.67,1.67,0,0,1,.72-.58,2.88,2.88,0,0,1,1.12-.2,2.42,2.42,0,0,1,1.63.48A1.67,1.67,0,0,1,42,41.24l-1.16,0a1,1,0,0,0-.31-.63,1.19,1.19,0,0,0-.74-.2,1.32,1.32,0,0,0-.79.21.42.42,0,0,0-.18.35.44.44,0,0,0,.17.35,3.09,3.09,0,0,0,1.06.38,5.93,5.93,0,0,1,1.25.42,1.63,1.63,0,0,1,.64.58,1.7,1.7,0,0,1,.22.91,1.68,1.68,0,0,1-.27.92,1.62,1.62,0,0,1-.77.64,3.26,3.26,0,0,1-1.25.21,2.52,2.52,0,0,1-1.67-.5A2.2,2.2,0,0,1,37.51,43.47Z"/><circle class="cls-6" cx="39.89" cy="59.38" r="6.39"/><path class="cls-2" d="M42.89,62.31H41.63l-.5-1.3H38.85l-.48,1.3H37.15l2.23-5.73H40.6Zm-2.13-2.26L40,57.92l-.77,2.13Z"/><path d="M52.52,11.37l1.2-5.73h.94l.58,3.71c.07.49.12,1,.14,1.4a17,17,0,0,1,.8-1.56l2-3.55h1L58,11.37H57.2l.6-2.79a20,20,0,0,1,.59-2.16c-.17.37-.37.77-.61,1.2l-2.13,3.75h-.74l-.58-3.68a11.15,11.15,0,0,1-.11-1.17c-.06.5-.13.9-.19,1.19l-.76,3.66Z"/><path d="M62.15,10l.68.07a2,2,0,0,1-.68,1,1.86,1.86,0,0,1-1.27.46,1.69,1.69,0,0,1-.84-.21,1.41,1.41,0,0,1-.59-.62,2.12,2.12,0,0,1-.2-.93,3,3,0,0,1,.31-1.32,2.27,2.27,0,0,1,.82-1,2.05,2.05,0,0,1,1.08-.31,1.58,1.58,0,0,1,1.18.46,1.74,1.74,0,0,1,.45,1.26,3.44,3.44,0,0,1-.06.63H60a1.8,1.8,0,0,0,0,.22,1.29,1.29,0,0,0,.27.88.83.83,0,0,0,.65.31,1.24,1.24,0,0,0,.72-.24A1.57,1.57,0,0,0,62.15,10Zm-2.06-1h2.33V8.77A1.13,1.13,0,0,0,62.16,8a.91.91,0,0,0-.69-.29,1.25,1.25,0,0,0-.82.32A1.81,1.81,0,0,0,60.09,8.93Z"/><path d="M63.55,11.37l.87-4.15h.64l-.16.72a3.37,3.37,0,0,1,.79-.62,1.52,1.52,0,0,1,.74-.2,1.08,1.08,0,0,1,.79.28,1,1,0,0,1,.29.73,4.06,4.06,0,0,1-.11.72l-.52,2.52h-.71l.55-2.63a2.67,2.67,0,0,0,.08-.57.42.42,0,0,0-.14-.34.61.61,0,0,0-.41-.12,1.39,1.39,0,0,0-1,.39,2.46,2.46,0,0,0-.62,1.34l-.4,1.93Z"/><path d="M68.06,10l.71,0a1.15,1.15,0,0,0,.1.52.73.73,0,0,0,.34.36,1.25,1.25,0,0,0,.59.13,1.06,1.06,0,0,0,.7-.19.54.54,0,0,0,.24-.44.53.53,0,0,0-.14-.34,2.33,2.33,0,0,0-.71-.41,6.66,6.66,0,0,1-.72-.34,1.16,1.16,0,0,1-.39-.37.93.93,0,0,1-.13-.5A1.12,1.12,0,0,1,69,7.47a1.59,1.59,0,0,1,1.09-.35,1.75,1.75,0,0,1,1.19.36,1.28,1.28,0,0,1,.42,1l-.69,0a.8.8,0,0,0-.26-.59,1,1,0,0,0-.71-.22.9.9,0,0,0-.57.17.45.45,0,0,0-.2.36.47.47,0,0,0,.17.35,3.43,3.43,0,0,0,.61.31,4.12,4.12,0,0,1,1,.55,1,1,0,0,1,.34.79,1.18,1.18,0,0,1-.19.61,1.31,1.31,0,0,1-.58.47,2.16,2.16,0,0,1-.92.18,2,2,0,0,1-1.22-.36A1.28,1.28,0,0,1,68.06,10Z"/><path d="M74.83,10.62a2.1,2.1,0,0,1-1.53.84,1,1,0,0,1-.77-.28.86.86,0,0,1-.3-.67,5.38,5.38,0,0,1,.14-.9l.5-2.39h.7L73,9.87a2.41,2.41,0,0,0-.07.52.49.49,0,0,0,.14.36.59.59,0,0,0,.42.13,1.34,1.34,0,0,0,.58-.14,1.69,1.69,0,0,0,.49-.39,1.88,1.88,0,0,0,.33-.59,4.1,4.1,0,0,0,.2-.75l.38-1.79h.7l-.86,4.15h-.66Z"/><path d="M79.24,10.85a2.62,2.62,0,0,1-.7.46,1.8,1.8,0,0,1-.73.15,1.29,1.29,0,0,1-.93-.34,1.15,1.15,0,0,1-.35-.86,1.24,1.24,0,0,1,.16-.62,1.33,1.33,0,0,1,.42-.43A1.93,1.93,0,0,1,77.75,9a7.43,7.43,0,0,1,.91-.08,2.83,2.83,0,0,0,1-.14,1.59,1.59,0,0,0,.08-.48.45.45,0,0,0-.18-.38,1.11,1.11,0,0,0-.71-.2,1.26,1.26,0,0,0-.73.2,1.15,1.15,0,0,0-.42.56l-.71-.06a2,2,0,0,1,.69-1,2.07,2.07,0,0,1,1.2-.33,1.91,1.91,0,0,1,1.22.37.86.86,0,0,1,.34.71A3.88,3.88,0,0,1,80.3,9l-.24,1a4,4,0,0,0-.1.8,2.52,2.52,0,0,0,.08.57h-.71A2.91,2.91,0,0,1,79.24,10.85Zm.27-1.59a1.68,1.68,0,0,1-.32.09c-.12,0-.31.05-.57.07a4.31,4.31,0,0,0-.87.14.71.71,0,0,0-.51.67.63.63,0,0,0,.2.49.82.82,0,0,0,.59.19,1.35,1.35,0,0,0,1.18-.7A2.87,2.87,0,0,0,79.51,9.26Z"/><path d="M80.84,11.37,82,5.64h.7l-1.19,5.73Z"/><path class="cls-3" d="M10.87,60.22H5.14V56.29h1v2.77H7.47V56.67h1v2.39h2.43Z"/><path class="cls-3" d="M10.87,54.3v1.09H6.72v-1h.59a1.7,1.7,0,0,1-.55-.47.85.85,0,0,1-.13-.47,1.45,1.45,0,0,1,.2-.72l1,.34a.93.93,0,0,0-.18.51.58.58,0,0,0,.13.39.79.79,0,0,0,.46.25,6.37,6.37,0,0,0,1.39.1Z"/><path class="cls-3" d="M9.55,49.83l.18-1.09a1.82,1.82,0,0,1,.92.66A2,2,0,0,1,11,50.54a1.85,1.85,0,0,1-.7,1.6,2.35,2.35,0,0,1-1.43.41A2.3,2.3,0,0,1,7.21,52a1.76,1.76,0,0,1-.58-1.36,1.83,1.83,0,0,1,.61-1.46,2.65,2.65,0,0,1,1.87-.51v2.75a1.11,1.11,0,0,0,.76-.27.83.83,0,0,0,.27-.63A.62.62,0,0,0,10,50.1.82.82,0,0,0,9.55,49.83Zm-1.11-.06a1.07,1.07,0,0,0-.72.24.75.75,0,0,0-.25.57.76.76,0,0,0,.26.6,1,1,0,0,0,.71.23Z"/><path class="cls-3" d="M8,44.17l.19,1.08a.77.77,0,0,0-.49.25.79.79,0,0,0-.16.5.81.81,0,0,0,.28.65,1.42,1.42,0,0,0,1,.25,1.7,1.7,0,0,0,1-.25.81.81,0,0,0,.31-.67.72.72,0,0,0-.18-.51,1.05,1.05,0,0,0-.61-.28l.18-1.08a1.87,1.87,0,0,1,1.12.65A1.92,1.92,0,0,1,11,46a1.9,1.9,0,0,1-.57,1.45A2.2,2.2,0,0,1,8.8,48a2.19,2.19,0,0,1-1.6-.55A1.93,1.93,0,0,1,6.63,46,2,2,0,0,1,7,44.81,1.8,1.8,0,0,1,8,44.17Z"/><path class="cls-3" d="M10.87,40.6h-.62A1.7,1.7,0,0,1,11,42a1.54,1.54,0,0,1-.18.75,1.1,1.1,0,0,1-.52.48,2.23,2.23,0,0,1-.91.15H6.72v-1.1H8.63A5.32,5.32,0,0,0,9.7,42.2.58.58,0,0,0,10,42a.66.66,0,0,0,.12-.41.9.9,0,0,0-.16-.5.81.81,0,0,0-.38-.31,4.75,4.75,0,0,0-1.12-.08H6.72v-1.1h4.15Z"/><path class="cls-3" d="M9.55,36.05,9.73,35a1.78,1.78,0,0,1,.92.67A1.94,1.94,0,0,1,11,36.76a1.86,1.86,0,0,1-.7,1.6,2.42,2.42,0,0,1-1.43.41,2.3,2.3,0,0,1-1.62-.54,1.76,1.76,0,0,1-.58-1.36,1.85,1.85,0,0,1,.61-1.47,2.75,2.75,0,0,1,1.87-.51v2.75a1.06,1.06,0,0,0,.76-.26.84.84,0,0,0,.27-.64.64.64,0,0,0-.14-.43A.76.76,0,0,0,9.55,36.05ZM8.44,36a1,1,0,0,0-.72.25.75.75,0,0,0-.25.57.73.73,0,0,0,.26.59,1,1,0,0,0,.71.23Z"/><path class="cls-3" d="M10.87,30.22v1.1H8.75a3.6,3.6,0,0,0-.87.07.64.64,0,0,0-.3.23.61.61,0,0,0-.11.38.9.9,0,0,0,.15.51.75.75,0,0,0,.42.31,3.33,3.33,0,0,0,1,.09h1.88V34H6.72V33h.61a1.67,1.67,0,0,1-.7-1.37A1.59,1.59,0,0,1,6.76,31a1.09,1.09,0,0,1,.33-.46,1.28,1.28,0,0,1,.46-.21,3.35,3.35,0,0,1,.74-.07Z"/><path class="cls-3" d="M8,25.49l.19,1.09a.68.68,0,0,0-.65.75.81.81,0,0,0,.28.65,1.49,1.49,0,0,0,1,.24,1.71,1.71,0,0,0,1-.24.81.81,0,0,0,.31-.67.72.72,0,0,0-.18-.51,1.05,1.05,0,0,0-.61-.28l.18-1.08a1.91,1.91,0,0,1,1.12.64A2,2,0,0,1,11,27.36a1.9,1.9,0,0,1-.57,1.45,2.24,2.24,0,0,1-1.59.54,2.23,2.23,0,0,1-1.6-.54,1.93,1.93,0,0,1-.57-1.47A2,2,0,0,1,7,26.14,1.81,1.81,0,0,1,8,25.49Z"/><path class="cls-3" d="M6.16,24.66h-1v-1.1h1Zm4.71,0H6.72v-1.1h4.15Z"/><path class="cls-3" d="M8,21.62l-.18,1A1.57,1.57,0,0,1,6.92,22a2.08,2.08,0,0,1-.29-1.22,2.6,2.6,0,0,1,.17-1.1,1.15,1.15,0,0,1,.44-.5,2.23,2.23,0,0,1,1-.15H9.51a4,4,0,0,0,.8,0,2.11,2.11,0,0,0,.56-.2v1.09l-.32.11-.13,0a2.18,2.18,0,0,1,.41.61,1.72,1.72,0,0,1,.13.68,1.42,1.42,0,0,1-.34,1,1.16,1.16,0,0,1-.88.37,1.19,1.19,0,0,1-.63-.17,1.13,1.13,0,0,1-.42-.47,3.38,3.38,0,0,1-.26-.87,6.59,6.59,0,0,0-.27-1.07H8.05a.55.55,0,0,0-.45.16.93.93,0,0,0-.13.59.75.75,0,0,0,.11.45A.82.82,0,0,0,8,21.62Zm.89-1.47c0,.14.1.36.17.67a1.81,1.81,0,0,0,.19.6.46.46,0,0,0,.38.21.54.54,0,0,0,.4-.17.6.6,0,0,0,.17-.44.94.94,0,0,0-.2-.56.72.72,0,0,0-.36-.27,2.72,2.72,0,0,0-.53,0Z"/><path class="cls-3" d="M10.87,12v1h-.61a1.67,1.67,0,0,1,.53.6,1.64,1.64,0,0,1,.17.7,1.57,1.57,0,0,1-.57,1.22A2.36,2.36,0,0,1,8.78,16a2.3,2.3,0,0,1-1.6-.49,1.61,1.61,0,0,1-.55-1.26,1.54,1.54,0,0,1,.58-1.2H5.14V12ZM8.71,14.89a1.94,1.94,0,0,0,1-.18A.85.85,0,0,0,10.1,14a.81.81,0,0,0-.33-.65,1.51,1.51,0,0,0-1-.26,1.64,1.64,0,0,0-1,.25.83.83,0,0,0-.31.66.82.82,0,0,0,.31.66A1.41,1.41,0,0,0,8.71,14.89Z"/><path class="cls-3" d="M9.55,8.48l.18-1.09a1.82,1.82,0,0,1,.92.66A1.94,1.94,0,0,1,11,9.19a1.86,1.86,0,0,1-.7,1.6,2.42,2.42,0,0,1-1.43.41,2.3,2.3,0,0,1-1.62-.54A1.76,1.76,0,0,1,6.63,9.3a1.82,1.82,0,0,1,.61-1.46,2.65,2.65,0,0,1,1.87-.51v2.75a1.11,1.11,0,0,0,.76-.27.83.83,0,0,0,.27-.63A.66.66,0,0,0,10,8.74.88.88,0,0,0,9.55,8.48ZM8.44,8.42a1,1,0,0,0-.72.24.75.75,0,0,0-.25.57.76.76,0,0,0,.26.6,1,1,0,0,0,.71.23Z"/><path class="cls-3" d="M14.72,58.26v-1h.61a1.65,1.65,0,0,1-.51-.54,1.51,1.51,0,0,1-.19-.76,1.55,1.55,0,0,1,.56-1.22,2.29,2.29,0,0,1,1.58-.51,2.38,2.38,0,0,1,1.62.51A1.59,1.59,0,0,1,19,56a1.38,1.38,0,0,1-.13.62,2.17,2.17,0,0,1-.47.59h2.09v1.1Zm2-1.09a1.64,1.64,0,0,0,1-.27.86.86,0,0,0,.33-.68.81.81,0,0,0-.3-.64,1.68,1.68,0,0,0-1-.25,1.52,1.52,0,0,0-1,.26.82.82,0,0,0-.32.65.87.87,0,0,0,.31.67A1.38,1.38,0,0,0,16.72,57.17Z"/><path class="cls-3" d="M18.87,52.29v1.1H14.72v-1h.59a1.84,1.84,0,0,1-.55-.47.86.86,0,0,1-.13-.48,1.45,1.45,0,0,1,.2-.72l1,.34a1,1,0,0,0-.18.52.59.59,0,0,0,.13.39.85.85,0,0,0,.46.25,6.6,6.6,0,0,0,1.39.09Z"/><path class="cls-3" d="M17.55,47.83l.18-1.1a1.83,1.83,0,0,1,.92.67A1.94,1.94,0,0,1,19,48.54a1.86,1.86,0,0,1-.7,1.6,2.42,2.42,0,0,1-1.43.41A2.3,2.3,0,0,1,15.21,50a1.76,1.76,0,0,1-.58-1.36,1.82,1.82,0,0,1,.61-1.46,2.7,2.7,0,0,1,1.87-.52v2.75a1.06,1.06,0,0,0,.76-.26.83.83,0,0,0,.27-.63.65.65,0,0,0-.14-.44A.82.82,0,0,0,17.55,47.83Zm-1.11-.07a1,1,0,0,0-.72.25.75.75,0,0,0-.25.57.73.73,0,0,0,.26.59,1,1,0,0,0,.71.23Z"/><path class="cls-3" d="M17.69,46.17l-.17-1.11a.78.78,0,0,0,.48-.28,1,1,0,0,0,.17-.6,1,1,0,0,0-.16-.64.34.34,0,0,0-.29-.15.32.32,0,0,0-.21.08.91.91,0,0,0-.14.37,6.15,6.15,0,0,1-.54,1.68,1.05,1.05,0,0,1-.93.49,1.17,1.17,0,0,1-.91-.42,2,2,0,0,1-.36-1.32A2.38,2.38,0,0,1,14.9,43a1.5,1.5,0,0,1,.82-.57l.2,1a.59.59,0,0,0-.37.25.88.88,0,0,0-.13.53,1.21,1.21,0,0,0,.12.62.25.25,0,0,0,.22.12.25.25,0,0,0,.2-.1,4.82,4.82,0,0,0,.31-1,2.84,2.84,0,0,1,.49-1.22,1,1,0,0,1,.81-.35,1.24,1.24,0,0,1,1,.48A2.08,2.08,0,0,1,19,44.18a2.31,2.31,0,0,1-.34,1.34A1.63,1.63,0,0,1,17.69,46.17Z"/><path class="cls-3" d="M17.55,38.93l.18-1.1a1.83,1.83,0,0,1,.92.67A1.94,1.94,0,0,1,19,39.64a1.86,1.86,0,0,1-.7,1.6,2.42,2.42,0,0,1-1.43.41,2.3,2.3,0,0,1-1.62-.54,1.76,1.76,0,0,1-.58-1.36,1.82,1.82,0,0,1,.61-1.46,2.65,2.65,0,0,1,1.87-.51v2.75a1.11,1.11,0,0,0,.76-.27.83.83,0,0,0,.27-.63.66.66,0,0,0-.14-.44A.88.88,0,0,0,17.55,38.93Zm-1.11-.06a1,1,0,0,0-.72.24.75.75,0,0,0-.25.57.76.76,0,0,0,.26.6,1,1,0,0,0,.71.23Z"/><path class="cls-3" d="M18.87,33.11v1.1H16.75a3.13,3.13,0,0,0-.87.07.57.57,0,0,0-.3.22.64.64,0,0,0-.11.39.9.9,0,0,0,.15.51.86.86,0,0,0,.42.31,3.9,3.9,0,0,0,.95.08h1.88v1.1H14.72v-1h.61a1.66,1.66,0,0,1-.7-1.37,1.59,1.59,0,0,1,.13-.66,1.16,1.16,0,0,1,.33-.46,1.28,1.28,0,0,1,.46-.21,3.47,3.47,0,0,1,.74-.06Z"/><path class="cls-3" d="M14.72,30.09h.88v.75h1.67a3.45,3.45,0,0,0,.59,0,.26.26,0,0,0,.14-.1.35.35,0,0,0,.05-.18,1.37,1.37,0,0,0-.1-.44l.85-.1a2.21,2.21,0,0,1,.16.87,1.25,1.25,0,0,1-.1.53.74.74,0,0,1-.25.35,1,1,0,0,1-.43.16,6.36,6.36,0,0,1-.78,0H15.6v.51h-.88v-.51H13.9l-.64-1.1h1.46Z"/><path class="cls-3" d="M16,28.51l-.18,1a1.57,1.57,0,0,1-.89-.58,2.08,2.08,0,0,1-.29-1.22,2.52,2.52,0,0,1,.17-1.09,1.12,1.12,0,0,1,.44-.51,2.23,2.23,0,0,1,1-.15h1.29a4,4,0,0,0,.8,0,2.11,2.11,0,0,0,.56-.2v1.09l-.32.11a.39.39,0,0,0-.13,0,2,2,0,0,1,.41.6,1.72,1.72,0,0,1,.13.68,1.42,1.42,0,0,1-.34,1,1.16,1.16,0,0,1-.88.37,1.19,1.19,0,0,1-.63-.17,1.13,1.13,0,0,1-.42-.47,3.38,3.38,0,0,1-.26-.87A6.89,6.89,0,0,0,16.16,27h-.11a.55.55,0,0,0-.45.16.93.93,0,0,0-.13.59.73.73,0,0,0,.11.45A.82.82,0,0,0,16,28.51ZM16.88,27c0,.14.1.36.17.67a1.81,1.81,0,0,0,.19.6.46.46,0,0,0,.38.21.54.54,0,0,0,.4-.17.6.6,0,0,0,.17-.44.94.94,0,0,0-.2-.56.72.72,0,0,0-.36-.27,2.72,2.72,0,0,0-.53,0Z"/><path class="cls-3" d="M16,21.26l.19,1.09a.68.68,0,0,0-.65.75.81.81,0,0,0,.28.65,1.49,1.49,0,0,0,.95.24,1.71,1.71,0,0,0,1-.24.81.81,0,0,0,.31-.67.72.72,0,0,0-.18-.51,1.05,1.05,0,0,0-.61-.28l.18-1.08a1.91,1.91,0,0,1,1.12.64A2,2,0,0,1,19,23.13a1.9,1.9,0,0,1-.57,1.45,2.24,2.24,0,0,1-1.59.54,2.23,2.23,0,0,1-1.6-.54,1.93,1.93,0,0,1-.57-1.47,2,2,0,0,1,.32-1.2A1.81,1.81,0,0,1,16,21.26Z"/><path class="cls-3" d="M14.16,20.43h-1v-1.1h1Zm4.71,0H14.72v-1.1h4.15Z"/><path class="cls-3" d="M14.21,16.88l-1.16-.54V15.11l1.16,1.07Zm2.53,1.58a2.23,2.23,0,0,1-1.06-.27,1.85,1.85,0,0,1-.78-.76,2.27,2.27,0,0,1-.27-1.1,2.07,2.07,0,0,1,.61-1.55,2.29,2.29,0,0,1,3.1,0A2,2,0,0,1,19,16.32a2.45,2.45,0,0,1-.25,1.09,1.85,1.85,0,0,1-.76.78A2.52,2.52,0,0,1,16.74,18.46Zm.06-1.12a1.39,1.39,0,0,0,.94-.29,1,1,0,0,0,0-1.45,1.42,1.42,0,0,0-.95-.29,1.39,1.39,0,0,0-.94.29,1,1,0,0,0,0,1.45A1.4,1.4,0,0,0,16.8,17.34Z"/><path class="cls-3" d="M18.87,9.55v1.1H16.75a3.13,3.13,0,0,0-.87.07.53.53,0,0,0-.3.23.59.59,0,0,0-.11.38.9.9,0,0,0,.15.51.86.86,0,0,0,.42.31,3.9,3.9,0,0,0,.95.08h1.88v1.1H14.72v-1h.61a1.66,1.66,0,0,1-.7-1.37,1.59,1.59,0,0,1,.13-.66,1.16,1.16,0,0,1,.33-.46,1.28,1.28,0,0,1,.46-.21,3.47,3.47,0,0,1,.74-.06Z"/><path d="M54,28.35l1.06-5.08H53.17l.13-.65h4.51l-.14.65H55.81l-1.06,5.08Z"/><path d="M56.73,28.35l.87-4.15h.62l-.17.85a2.83,2.83,0,0,1,.62-.71,1,1,0,0,1,.63-.23,1.27,1.27,0,0,1,.52.15l-.29.65a.73.73,0,0,0-.4-.13,1.08,1.08,0,0,0-.76.42,3,3,0,0,0-.62,1.48l-.35,1.67Z"/><path d="M59.37,28.35l.86-4.15h.71l-.87,4.15Zm1-4.93.16-.8h.71l-.17.8Z"/><path d="M61.17,28.35,62,24.2h.71l-.14.68a3,3,0,0,1,.7-.61,1.41,1.41,0,0,1,.67-.16.94.94,0,0,1,1,.77,2.36,2.36,0,0,1,.67-.58,1.48,1.48,0,0,1,.74-.19,1.09,1.09,0,0,1,.77.24.9.9,0,0,1,.26.69,3.74,3.74,0,0,1-.09.64l-.55,2.67h-.71l.57-2.74a2.55,2.55,0,0,0,.07-.48.42.42,0,0,0-.13-.33.53.53,0,0,0-.36-.11,1.24,1.24,0,0,0-.64.19,1.36,1.36,0,0,0-.51.5,3.43,3.43,0,0,0-.32,1l-.42,2H63.6l.59-2.8a2.32,2.32,0,0,0,.06-.41.43.43,0,0,0-.46-.45,1.23,1.23,0,0,0-.63.19,1.52,1.52,0,0,0-.54.53,3.55,3.55,0,0,0-.34,1l-.41,2Z"/><path d="M70.88,26.94l.69.07a2.14,2.14,0,0,1-.68,1,1.87,1.87,0,0,1-1.27.46,1.76,1.76,0,0,1-.85-.21,1.42,1.42,0,0,1-.59-.62,2.12,2.12,0,0,1-.2-.93,2.91,2.91,0,0,1,.32-1.31,2.2,2.2,0,0,1,.81-.95,2,2,0,0,1,1.08-.31,1.57,1.57,0,0,1,1.19.46,1.73,1.73,0,0,1,.44,1.25,4.46,4.46,0,0,1,0,.63H68.71a1.7,1.7,0,0,0,0,.22,1.32,1.32,0,0,0,.27.89.82.82,0,0,0,.65.3,1.3,1.3,0,0,0,.71-.23A1.53,1.53,0,0,0,70.88,26.94Zm-2-1h2.32a1,1,0,0,0,0-.16,1.13,1.13,0,0,0-.27-.81.87.87,0,0,0-.68-.28,1.26,1.26,0,0,0-.83.31A1.84,1.84,0,0,0,68.83,25.91Z"/><path d="M72.35,26.93l.71,0a1.38,1.38,0,0,0,.09.52.74.74,0,0,0,.35.35,1.18,1.18,0,0,0,.58.13,1.16,1.16,0,0,0,.71-.18.59.59,0,0,0,.23-.44.54.54,0,0,0-.14-.35,2.24,2.24,0,0,0-.7-.41,7.49,7.49,0,0,1-.72-.33,1.22,1.22,0,0,1-.4-.38,1,1,0,0,1-.13-.5,1.08,1.08,0,0,1,.39-.84,1.56,1.56,0,0,1,1.1-.35,1.76,1.76,0,0,1,1.19.36,1.24,1.24,0,0,1,.42,1l-.69,0a.81.81,0,0,0-.27-.6,1,1,0,0,0-.7-.22.86.86,0,0,0-.57.17.46.46,0,0,0-.21.36.45.45,0,0,0,.18.35,2.94,2.94,0,0,0,.6.31,4.06,4.06,0,0,1,1,.55,1.07,1.07,0,0,1,.33.79,1.09,1.09,0,0,1-.19.61,1.22,1.22,0,0,1-.57.47,2.19,2.19,0,0,1-.92.18,2.09,2.09,0,0,1-1.22-.35A1.26,1.26,0,0,1,72.35,26.93Z"/><path d="M77.94,27.77l-.12.58a1.71,1.71,0,0,1-.49.07,1,1,0,0,1-.68-.21.52.52,0,0,1-.18-.42,3.64,3.64,0,0,1,.1-.63l.5-2.41h-.56l.12-.55h.56l.21-1,.81-.49-.32,1.51h.7l-.12.55h-.69L77.3,27a4.48,4.48,0,0,0-.09.52.22.22,0,0,0,.07.19.33.33,0,0,0,.24.07A1.86,1.86,0,0,0,77.94,27.77Z"/><path d="M78.51,28.35l.86-4.15H80l-.18.85a3,3,0,0,1,.63-.71,1,1,0,0,1,.63-.23,1.27,1.27,0,0,1,.52.15l-.29.65a.76.76,0,0,0-.41-.13,1.09,1.09,0,0,0-.76.42,3.13,3.13,0,0,0-.61,1.48l-.35,1.67Z"/><path d="M84,27.83a3,3,0,0,1-.71.47,2,2,0,0,1-.73.14,1.25,1.25,0,0,1-.92-.34,1.11,1.11,0,0,1-.35-.86,1.26,1.26,0,0,1,.15-.62,1.33,1.33,0,0,1,.42-.43,2.19,2.19,0,0,1,.64-.23,8.14,8.14,0,0,1,.91-.07,3.47,3.47,0,0,0,1-.14,1.77,1.77,0,0,0,.09-.48.46.46,0,0,0-.18-.39,1.16,1.16,0,0,0-.72-.2,1.26,1.26,0,0,0-.73.2,1.07,1.07,0,0,0-.41.56l-.72-.06a1.9,1.9,0,0,1,.7-.95,2.09,2.09,0,0,1,1.19-.32,1.89,1.89,0,0,1,1.22.36.88.88,0,0,1,.35.71A3.88,3.88,0,0,1,85,26l-.23,1a3.49,3.49,0,0,0-.11.81,3.19,3.19,0,0,0,.08.56h-.71A2.28,2.28,0,0,1,84,27.83Zm.26-1.58a1.68,1.68,0,0,1-.32.09l-.57.06a5.19,5.19,0,0,0-.87.14.73.73,0,0,0-.38.27.67.67,0,0,0-.13.41.64.64,0,0,0,.2.48.84.84,0,0,0,.59.19,1.35,1.35,0,0,0,.67-.18,1.37,1.37,0,0,0,.52-.52A3.08,3.08,0,0,0,84.23,26.25Z"/><path d="M85.56,28.35l1.2-5.73h.71l-1.2,5.73Z"/><path d="M52.73,43.48l.75-.07v.2a1.22,1.22,0,0,0,.16.6,1,1,0,0,0,.5.43,2.14,2.14,0,0,0,.84.15,1.64,1.64,0,0,0,1.05-.3.88.88,0,0,0,.36-.69.77.77,0,0,0-.19-.49,3.58,3.58,0,0,0-1.07-.59,8.85,8.85,0,0,1-.92-.45,1.79,1.79,0,0,1-.57-.56,1.29,1.29,0,0,1-.19-.68,1.3,1.3,0,0,1,.25-.79,1.51,1.51,0,0,1,.7-.55,3,3,0,0,1,1.06-.18,2.64,2.64,0,0,1,1.18.23,1.51,1.51,0,0,1,.69.62,1.52,1.52,0,0,1,.22.75v.12l-.74.06a1.76,1.76,0,0,0,0-.38,1,1,0,0,0-.25-.4,1.23,1.23,0,0,0-.45-.27,2.1,2.1,0,0,0-.64-.1,1.53,1.53,0,0,0-1,.28.73.73,0,0,0-.16.95,1.17,1.17,0,0,0,.4.33l1,.45a5.28,5.28,0,0,1,.85.43,1.35,1.35,0,0,1,.48.5,1.33,1.33,0,0,1,.17.67,1.4,1.4,0,0,1-.28.85,1.74,1.74,0,0,1-.79.61,2.73,2.73,0,0,1-1.14.22A2.69,2.69,0,0,1,53.35,45,1.74,1.74,0,0,1,52.73,43.48Z"/><path d="M60.82,43.92l.69.07a2.09,2.09,0,0,1-.69,1,1.84,1.84,0,0,1-1.27.46,1.72,1.72,0,0,1-.84-.21,1.42,1.42,0,0,1-.59-.62,2.11,2.11,0,0,1-.2-.92,2.91,2.91,0,0,1,.31-1.32,2.22,2.22,0,0,1,.82-1,2,2,0,0,1,1.08-.31,1.57,1.57,0,0,1,1.19.46,1.76,1.76,0,0,1,.44,1.26,4.44,4.44,0,0,1,0,.62H58.65a1.8,1.8,0,0,0,0,.22,1.32,1.32,0,0,0,.27.89.86.86,0,0,0,.66.31,1.24,1.24,0,0,0,.71-.24A1.53,1.53,0,0,0,60.82,43.92Zm-2.06-1h2.33c0-.07,0-.12,0-.15a1.14,1.14,0,0,0-.27-.82.9.9,0,0,0-.68-.28,1.24,1.24,0,0,0-.83.31A1.92,1.92,0,0,0,58.76,42.89Z"/><path d="M62.22,45.33l.86-4.15h.71l-.14.68a2.7,2.7,0,0,1,.7-.6,1.32,1.32,0,0,1,.68-.17,1,1,0,0,1,.64.2,1,1,0,0,1,.34.57,2.36,2.36,0,0,1,.67-.58,1.48,1.48,0,0,1,.74-.19,1.14,1.14,0,0,1,.78.24.94.94,0,0,1,.26.69,5.17,5.17,0,0,1-.09.64l-.56,2.67H67.1l.57-2.74a2.55,2.55,0,0,0,.07-.48.41.41,0,0,0-.12-.32.53.53,0,0,0-.37-.12,1.24,1.24,0,0,0-.64.19,1.44,1.44,0,0,0-.51.5,3.43,3.43,0,0,0-.32,1l-.42,2h-.71l.59-2.8a2.32,2.32,0,0,0,.06-.41.43.43,0,0,0-.46-.45,1.23,1.23,0,0,0-.63.19,1.61,1.61,0,0,0-.54.53,3.55,3.55,0,0,0-.34,1l-.41,2Z"/><path d="M71.93,43.92l.69.07a2.14,2.14,0,0,1-.68,1,1.87,1.87,0,0,1-1.27.46,1.76,1.76,0,0,1-.85-.21,1.42,1.42,0,0,1-.59-.62,2.11,2.11,0,0,1-.2-.92,2.92,2.92,0,0,1,.32-1.32,2.2,2.2,0,0,1,.81-1,2,2,0,0,1,1.08-.31,1.57,1.57,0,0,1,1.19.46,1.71,1.71,0,0,1,.44,1.26,4.44,4.44,0,0,1-.05.62H69.76a1.7,1.7,0,0,0,0,.22,1.32,1.32,0,0,0,.27.89.83.83,0,0,0,.65.31,1.24,1.24,0,0,0,.71-.24A1.53,1.53,0,0,0,71.93,43.92Zm-2.05-1h2.33v-.15a1.14,1.14,0,0,0-.27-.82.87.87,0,0,0-.68-.28,1.26,1.26,0,0,0-.83.31A1.84,1.84,0,0,0,69.88,42.89Z"/><path d="M73.4,43.91l.71,0a1.38,1.38,0,0,0,.09.52.74.74,0,0,0,.35.35,1.21,1.21,0,0,0,.58.14,1.16,1.16,0,0,0,.71-.19.57.57,0,0,0,.23-.44.51.51,0,0,0-.14-.35,2.15,2.15,0,0,0-.7-.4,6.7,6.7,0,0,1-.72-.34,1.1,1.1,0,0,1-.39-.38.92.92,0,0,1-.14-.5,1.08,1.08,0,0,1,.39-.84,1.56,1.56,0,0,1,1.1-.35,1.76,1.76,0,0,1,1.19.36,1.26,1.26,0,0,1,.42.95l-.69.05a.81.81,0,0,0-.27-.6,1,1,0,0,0-.7-.22.86.86,0,0,0-.57.17.48.48,0,0,0-.21.37.43.43,0,0,0,.18.34,2.94,2.94,0,0,0,.6.31,4,4,0,0,1,1,.56,1.06,1.06,0,0,1,.33.79,1.09,1.09,0,0,1-.19.6,1.3,1.3,0,0,1-.57.48,2.36,2.36,0,0,1-.92.17,2.09,2.09,0,0,1-1.22-.35A1.25,1.25,0,0,1,73.4,43.91Z"/><path d="M79,44.76l-.12.57a1.71,1.71,0,0,1-.49.07,1,1,0,0,1-.67-.21.5.5,0,0,1-.19-.42,4,4,0,0,1,.1-.63l.5-2.41h-.56l.12-.55h.56l.21-1,.81-.49-.32,1.51h.7l-.12.55h-.69L78.35,44a4.48,4.48,0,0,0-.09.52.26.26,0,0,0,.07.2.38.38,0,0,0,.24.06A1.87,1.87,0,0,0,79,44.76Z"/><path d="M79.56,45.33l.86-4.15h.63l-.18.85a3,3,0,0,1,.63-.71,1,1,0,0,1,.63-.23,1.27,1.27,0,0,1,.52.15l-.29.66a.67.67,0,0,0-.4-.14,1.09,1.09,0,0,0-.77.42,3.13,3.13,0,0,0-.61,1.49l-.35,1.66Z"/><path d="M85,44.81a3,3,0,0,1-.71.47,2,2,0,0,1-.73.14,1.28,1.28,0,0,1-.92-.33,1.15,1.15,0,0,1-.35-.87,1.19,1.19,0,0,1,.57-1,1.91,1.91,0,0,1,.65-.24,7.9,7.9,0,0,1,.9-.07,3.47,3.47,0,0,0,.95-.14,1.65,1.65,0,0,0,.09-.48.46.46,0,0,0-.18-.39,1.16,1.16,0,0,0-.72-.19,1.26,1.26,0,0,0-.73.19,1.07,1.07,0,0,0-.41.56l-.72-.06a1.84,1.84,0,0,1,.7-.94,2,2,0,0,1,1.19-.33,1.89,1.89,0,0,1,1.22.36.89.89,0,0,1,.35.72,3.88,3.88,0,0,1-.1.76l-.23,1a3.35,3.35,0,0,0-.11.8,3.19,3.19,0,0,0,.08.56H85.1A2.28,2.28,0,0,1,85,44.81Zm.26-1.58a1.68,1.68,0,0,1-.32.09l-.57.06a5.19,5.19,0,0,0-.87.14.73.73,0,0,0-.38.27.67.67,0,0,0-.13.41.61.61,0,0,0,.21.48.8.8,0,0,0,.58.2A1.42,1.42,0,0,0,85,44.17,3.08,3.08,0,0,0,85.28,43.23Z"/><path d="M86.62,45.33l1.19-5.73h.71l-1.2,5.73Z"/><path d="M52,62.31l3.25-5.72h.9l.94,5.72h-.74l-.28-1.65H53.77l-.92,1.65Zm2.09-2.24H56l-.22-1.43a14.11,14.11,0,0,1-.16-1.43A10.13,10.13,0,0,1,55,58.38Z"/><path d="M57.77,62.31l.87-4.15h.64l-.15.73a3.36,3.36,0,0,1,.78-.63,1.66,1.66,0,0,1,.74-.19,1.1,1.1,0,0,1,.79.27,1,1,0,0,1,.29.73,4.82,4.82,0,0,1-.1.73l-.53,2.51h-.71l.55-2.63a2.69,2.69,0,0,0,.09-.56.43.43,0,0,0-.15-.34.56.56,0,0,0-.41-.13,1.41,1.41,0,0,0-1,.39,2.5,2.5,0,0,0-.62,1.34l-.4,1.93Z"/><path d="M65.05,61.56a2.08,2.08,0,0,1-1.52.85,1.13,1.13,0,0,1-.78-.28.87.87,0,0,1-.29-.67,4.83,4.83,0,0,1,.13-.9l.5-2.4h.71l-.56,2.66a2.41,2.41,0,0,0-.07.51.5.5,0,0,0,.14.37.66.66,0,0,0,.42.13,1.22,1.22,0,0,0,.58-.15,1.41,1.41,0,0,0,.49-.39,1.83,1.83,0,0,0,.33-.58,4.1,4.1,0,0,0,.2-.75l.38-1.8h.71l-.87,4.15H64.9Z"/><path d="M69.47,61.8a2.93,2.93,0,0,1-.71.46,1.8,1.8,0,0,1-.73.15,1.29,1.29,0,0,1-.92-.34,1.15,1.15,0,0,1-.35-.87,1.23,1.23,0,0,1,.15-.61,1.33,1.33,0,0,1,.42-.43,1.73,1.73,0,0,1,.64-.23,5.81,5.81,0,0,1,.91-.08,3.12,3.12,0,0,0,1-.14,1.65,1.65,0,0,0,.09-.48.48.48,0,0,0-.18-.39,1.16,1.16,0,0,0-.72-.19,1.19,1.19,0,0,0-.73.2,1,1,0,0,0-.41.56l-.72-.07a1.88,1.88,0,0,1,.7-.94,2,2,0,0,1,1.19-.33,1.83,1.83,0,0,1,1.22.37.87.87,0,0,1,.35.71,4,4,0,0,1-.1.77l-.23,1a3.42,3.42,0,0,0-.11.8,3.08,3.08,0,0,0,.08.56h-.71A2.18,2.18,0,0,1,69.47,61.8Zm.26-1.59a1.68,1.68,0,0,1-.32.09l-.57.07a3.69,3.69,0,0,0-.87.14.7.7,0,0,0-.31,1.16.84.84,0,0,0,.59.19,1.26,1.26,0,0,0,.67-.19,1.34,1.34,0,0,0,.52-.51A3.25,3.25,0,0,0,69.73,60.21Z"/><path d="M71.06,62.31l1.2-5.72H73l-1.2,5.72Z"/></g></g></svg>