<svg xmlns="http://www.w3.org/2000/svg" viewBox="0 0 173.22 111.97"><defs><style>.cls-1{opacity:0.3;}.cls-2{fill:#fff;}.cls-3{fill:#9c9fa2;}.cls-4{fill:#231f20;}.cls-5{stroke:#000;stroke-miterlimit:10;stroke-width:0.1px;}</style></defs><g id="Capa_2" data-name="Capa 2"><g id="Capa_1-2" data-name="Capa 1"><path class="cls-1" d="M3.88,15.4c7.56-10.34,25.2-6.69,38.68-6.71,2.42,0,4.89-.13,7.41-.22,17.66-.69,37.52-2.34,53.9-1.13a96.21,96.21,0,0,1,11,1.4c32.51,10,21,45.51,19.09,64.22,4.87,5.43,14.28,12.17,31.6,13.76,0,0-17.41,1.25-30.89,5.18-.61,7-3.69,13.41-15.32,17.85a41.05,41.05,0,0,1-9.27,1c-3.43.11-6.78.11-10.08.07s-6.56-.16-9.81-.27a250.35,250.35,0,0,0-29,0c-2.42.1-4.83.21-7.25.3-16-.38-37.62,5.82-46.44-7.26C-3.7,87.75,3.52,68.48.85,50.85.58,48.91.32,47,.16,45.08-.32,39.38.1,20.26,3.88,15.4Z"/><path class="cls-2" d="M8.94,9.31C16.5-1,34.15,2.62,47.63,2.6c2.41,0,4.89-.12,7.41-.22C72.69,1.7,92.56,0,108.93,1.25a94.43,94.43,0,0,1,11,1.41c28.54,8.75,23.12,40.33,20.1,57.25-.89,5,1.48,10,6.19,13,5.49,3.54,13.33,6.66,24.4,7.67a195,195,0,0,0-24.42,3.55,9.55,9.55,0,0,0-7.32,6.21c-1.57,5.17-5.45,9.83-14.47,13.27a40.55,40.55,0,0,1-9.27,1c-3.44.11-6.78.12-10.08.07s-6.56-.15-9.82-.27a250.19,250.19,0,0,0-29,0l-7.25.29c-16-.37-37.63,5.82-46.45-7.25C1.36,81.66,8.58,62.4,5.92,44.77c-.27-1.94-.53-3.87-.69-5.77C4.74,33.29,5.16,14.18,8.94,9.31Z"/><path class="cls-3" d="M140.5,65.75A12.36,12.36,0,0,1,137.06,55c1.73-9.74,4.25-33.46.64-41.93,7.68,9.31,4.45,35.16,2.36,46.87A11.9,11.9,0,0,0,140.5,65.75Z"/><path class="cls-3" d="M56,99.81c2.42-.09,4.83-.2,7.25-.3a250.35,250.35,0,0,1,29,0c3.25.11,6.51.21,9.81.26s6.65.05,10.08-.06a41,41,0,0,0,9.27-1c9-3.44,12.91-8.09,14.47-13.26a9.56,9.56,0,0,1,7.32-6.22c3.95-.87,7.93-1.55,11.52-2.07a61.76,61.76,0,0,0,15.91,3.46,195,195,0,0,0-24.42,3.55,9.55,9.55,0,0,0-7.32,6.21c-1.57,5.17-5.45,9.83-14.47,13.27a40.55,40.55,0,0,1-9.27,1c-3.44.11-6.78.12-10.08.07s-6.56-.15-9.82-.27a250.19,250.19,0,0,0-29,0l-7.25.29c-16-.37-37.63,5.82-46.45-7.25A32.19,32.19,0,0,1,9.94,93C19,105.46,40.26,99.44,56,99.81Z"/><path class="cls-4" d="M11.77,97.92C4.31,87.4,4.84,75.29,5.34,63.58,5.61,57.38,5.89,51,5,44.87c-.28-2-.54-3.92-.7-5.81C3.83,33.9,4,14.26,8.14,8.87,14.46.24,27.51.9,39,1.49c3,.15,5.88.29,8.58.29,2.24,0,4.66-.12,7.39-.22,4.26-.17,8.75-.39,13.09-.61C82.07.24,96.53-.49,109,.43a97.44,97.44,0,0,1,11.16,1.42l.11,0c27.46,8.42,24.34,38.75,21.33,54.89-.2,1.09-.41,2.18-.6,3.26-.84,4.72,1.39,9.42,5.82,12.27,6.38,4.12,12.5,6.44,22,7.31l4.4.5c-.13,0-14.78,2.59-26.55,5.19-3.26.72-6,2.55-6.83,5.3-1.89,6.24-6.66,10.62-15,13.81l-.15,0a42.22,42.22,0,0,1-9.48,1c-3.14.1-6.45.13-10.13.07-3.4,0-6.72-.16-9.88-.27-9.28-.69-18.55-.39-28.85,0l-1.56.06-5.77.24c-4-.1-8.21.21-12.72.54-4.07.3-8.18.6-12.13.6C24.93,106.71,16.6,105.07,11.77,97.92Zm47.22,6,5.7-.23,1.55-.06c10.37-.44,19.72-.74,29.07,0,3.1.11,6.42.22,9.79.27,3.65,0,6.93,0,10.08-.07a39.69,39.69,0,0,0,8.94-.91c7.73-3,12.13-7,13.86-12.69a10.47,10.47,0,0,1,8-6.81c6.39-1.41,13-2.33,17.69-2.89a50.18,50.18,0,0,1-18-6.87c-5-3.22-7.51-8.52-6.57-13.84.2-1.09.4-2.18.61-3.27,3-16.18,5.86-45.1-20-53.06a94.94,94.94,0,0,0-10.84-1.38c-12.35-.91-26.73-.18-40.64.52-4.35.22-8.85.45-13.13.61-2.74.11-5.17.18-7.45.23-2.78,0-5.67-.15-8.72-.3C27.39,2.54,15.47,1.94,9.76,9.75l0,0c-3.87,5-4,24.29-3.56,29.17.16,1.85.42,3.77.69,5.72.94,6.22.66,12.71.39,19-.52,12-1,23.33,6.16,33.44,6.3,9.33,19.73,8.35,32.71,7.4,4-.3,7.79-.58,11.35-.58Z"/><path class="cls-5" d="M20.36,30.09a1.68,1.68,0,0,1,.09.33.21.21,0,0,1-.05.18.33.33,0,0,1-.23.08h-.91a1.3,1.3,0,0,1-.26,0,.22.22,0,0,1-.12-.07.53.53,0,0,1-.06-.13l-.51-1.52H15.47L15,30.41a.46.46,0,0,1-.07.14.19.19,0,0,1-.12.09.75.75,0,0,1-.24,0h-.83a.29.29,0,0,1-.21-.09.23.23,0,0,1,0-.19,1.68,1.68,0,0,1,.09-.33l2.33-6.71a1.31,1.31,0,0,1,.09-.17.27.27,0,0,1,.15-.09,1.42,1.42,0,0,1,.28,0h1a2,2,0,0,1,.32,0,.24.24,0,0,1,.16.1.54.54,0,0,1,.09.17Zm-3.48-5.56h0l-1.07,3.22H18Z"/><path class="cls-5" d="M29,32.53a.2.2,0,0,1,0,.11.28.28,0,0,1-.12.08.9.9,0,0,1-.22.05H27.9a1,1,0,0,1-.22-.05.23.23,0,0,1-.12-.08.2.2,0,0,1,0-.11V30.05c-.14.13-.28.24-.41.34a2.73,2.73,0,0,1-.4.23,1.51,1.51,0,0,1-.41.13,2.12,2.12,0,0,1-.44,0,1.9,1.9,0,0,1-1-.23,1.87,1.87,0,0,1-.66-.62,2.82,2.82,0,0,1-.37-.92,4.88,4.88,0,0,1-.12-1.1,4.81,4.81,0,0,1,.15-1.25,2.89,2.89,0,0,1,.45-1,1.9,1.9,0,0,1,.72-.6,2.19,2.19,0,0,1,1-.21,1.84,1.84,0,0,1,.41,0,1.49,1.49,0,0,1,.4.15,3.82,3.82,0,0,1,.42.28l.47.43v-.57a.17.17,0,0,1,0-.1.21.21,0,0,1,.1-.08l.19,0h.6a.69.69,0,0,1,.19,0,.21.21,0,0,1,.1.08.17.17,0,0,1,0,.1ZM27.53,27a3.18,3.18,0,0,0-.61-.61,1,1,0,0,0-.6-.21.84.84,0,0,0-.5.15.94.94,0,0,0-.33.38,2.15,2.15,0,0,0-.19.54,2.91,2.91,0,0,0-.06.6,4.48,4.48,0,0,0,.05.64,2.17,2.17,0,0,0,.18.56,1.15,1.15,0,0,0,.31.38.85.85,0,0,0,.51.15.93.93,0,0,0,.29-.05,1,1,0,0,0,.3-.14,1.74,1.74,0,0,0,.3-.26,5.24,5.24,0,0,0,.35-.4Z"/><path class="cls-5" d="M35.43,30.46a.17.17,0,0,1,0,.1.24.24,0,0,1-.11.08l-.19,0h-.61a.69.69,0,0,1-.19,0,.21.21,0,0,1-.1-.08.17.17,0,0,1,0-.1v-.6a3.6,3.6,0,0,1-.88.7,1.94,1.94,0,0,1-.93.23,2.08,2.08,0,0,1-.91-.17,1.64,1.64,0,0,1-.59-.48,2,2,0,0,1-.32-.71,4.51,4.51,0,0,1-.1-1v-3.2a.13.13,0,0,1,0-.1.24.24,0,0,1,.11-.08l.23,0h.71l.23,0a.23.23,0,0,1,.12.08.17.17,0,0,1,0,.1v3a2.57,2.57,0,0,0,.06.63,1,1,0,0,0,.16.37.78.78,0,0,0,.27.24.93.93,0,0,0,.39.08,1,1,0,0,0,.57-.2,3.38,3.38,0,0,0,.6-.6V25.24a.17.17,0,0,1,0-.1.28.28,0,0,1,.12-.08l.23,0h.71a1,1,0,0,1,.22,0,.23.23,0,0,1,.12.08.18.18,0,0,1,0,.1Z"/><path class="cls-5" d="M41.73,27.7a.58.58,0,0,1-.12.4.45.45,0,0,1-.33.12H38.1a2.25,2.25,0,0,0,.08.61,1.14,1.14,0,0,0,.25.46,1,1,0,0,0,.45.29,1.81,1.81,0,0,0,.65.1,4.5,4.5,0,0,0,.68-.05,4,4,0,0,0,.5-.13,3,3,0,0,0,.36-.12.56.56,0,0,1,.23-.05.11.11,0,0,1,.08,0,.09.09,0,0,1,.06.07.28.28,0,0,1,0,.15,1.63,1.63,0,0,1,0,.24V30c0,.06,0,.11,0,.16a.3.3,0,0,1,0,.1.24.24,0,0,1-.06.09.62.62,0,0,1-.2.11,3.88,3.88,0,0,1-.44.14,6,6,0,0,1-.6.11,4.26,4.26,0,0,1-.73.05,3.79,3.79,0,0,1-1.22-.17,2.24,2.24,0,0,1-.87-.53,2.21,2.21,0,0,1-.53-.91,4.34,4.34,0,0,1-.17-1.27,4.12,4.12,0,0,1,.18-1.26,2.53,2.53,0,0,1,.53-.94,2.31,2.31,0,0,1,.84-.6,2.83,2.83,0,0,1,1.12-.2,2.92,2.92,0,0,1,1.12.19,2.12,2.12,0,0,1,.76.53,2.23,2.23,0,0,1,.44.82,3.62,3.62,0,0,1,.14,1Zm-1.43-.42a1.52,1.52,0,0,0-.25-1,1,1,0,0,0-.82-.35,1.07,1.07,0,0,0-.49.1,1,1,0,0,0-.34.29,1,1,0,0,0-.21.42,2.09,2.09,0,0,0-.09.52Z"/><path class="cls-5" d="M50.64,30.46a.13.13,0,0,1,0,.1.24.24,0,0,1-.11.08l-.23,0h-.71a1,1,0,0,1-.23,0,.36.36,0,0,1-.12-.08.17.17,0,0,1,0-.1v-3a2.41,2.41,0,0,0-.06-.6,1.38,1.38,0,0,0-.16-.37.78.78,0,0,0-.27-.24.93.93,0,0,0-.39-.08,1,1,0,0,0-.57.2,3.06,3.06,0,0,0-.59.6v3.47a.18.18,0,0,1,0,.1.23.23,0,0,1-.12.08l-.23,0H46a1,1,0,0,1-.22,0,.23.23,0,0,1-.12-.08.13.13,0,0,1,0-.1V25.24a.17.17,0,0,1,0-.1.21.21,0,0,1,.1-.08l.2,0h.61a.69.69,0,0,1,.19,0,.21.21,0,0,1,.1.08.17.17,0,0,1,0,.1v.6a3.42,3.42,0,0,1,.88-.7,1.94,1.94,0,0,1,.93-.23,2,2,0,0,1,.9.17,1.56,1.56,0,0,1,.59.48,2,2,0,0,1,.33.7,4.55,4.55,0,0,1,.1,1Z"/><path class="cls-5" d="M57.36,27.8A4.28,4.28,0,0,1,57.19,29a2.57,2.57,0,0,1-.54.94,2.3,2.3,0,0,1-.89.62,3.47,3.47,0,0,1-1.26.21,3.42,3.42,0,0,1-1.21-.19,2.14,2.14,0,0,1-.86-.56,2.43,2.43,0,0,1-.5-.91,4.22,4.22,0,0,1-.16-1.23,4.28,4.28,0,0,1,.17-1.22,2.62,2.62,0,0,1,.54-.95,2.57,2.57,0,0,1,.89-.61,3.95,3.95,0,0,1,2.48,0,2.07,2.07,0,0,1,.85.56,2.31,2.31,0,0,1,.5.9A4.24,4.24,0,0,1,57.36,27.8Zm-1.51.06a3.11,3.11,0,0,0-.07-.71,1.82,1.82,0,0,0-.2-.57,1.06,1.06,0,0,0-.39-.37,1.25,1.25,0,0,0-.61-.14,1.34,1.34,0,0,0-.58.12,1,1,0,0,0-.4.35,1.58,1.58,0,0,0-.24.56,3.22,3.22,0,0,0-.08.74,3.17,3.17,0,0,0,.07.71,1.56,1.56,0,0,0,.21.56,1,1,0,0,0,.38.38,1.41,1.41,0,0,0,.61.13,1.28,1.28,0,0,0,.58-.12,1.07,1.07,0,0,0,.41-.35,1.72,1.72,0,0,0,.23-.55A3.36,3.36,0,0,0,55.85,27.86Z"/><path class="cls-5" d="M65.19,29.63a1.78,1.78,0,0,1,0,.25c0,.07,0,.13,0,.18s0,.08,0,.11a.27.27,0,0,1-.09.11,1.54,1.54,0,0,1-.24.17,2.4,2.4,0,0,1-.39.17,2.93,2.93,0,0,1-.47.12,3,3,0,0,1-.52.05,2.76,2.76,0,0,1-1.07-.19,2,2,0,0,1-.78-.55,2.54,2.54,0,0,1-.48-.89A4.12,4.12,0,0,1,60.92,28a4.28,4.28,0,0,1,.2-1.36,2.61,2.61,0,0,1,.54-.94,2.26,2.26,0,0,1,.84-.56,3,3,0,0,1,1-.18A3.57,3.57,0,0,1,64,25l.42.11a2.29,2.29,0,0,1,.35.16,1.33,1.33,0,0,1,.22.15l.09.11a.34.34,0,0,1,0,.12s0,.1,0,.17V26a1.45,1.45,0,0,1,0,.48c0,.09-.09.13-.16.13a.35.35,0,0,1-.21-.08l-.26-.18a1.51,1.51,0,0,0-.36-.18,1.3,1.3,0,0,0-.51-.08,1,1,0,0,0-.87.44,2.19,2.19,0,0,0-.31,1.29,3.32,3.32,0,0,0,.08.75,1.65,1.65,0,0,0,.22.54,1,1,0,0,0,.38.32,1.21,1.21,0,0,0,.52.11,1.35,1.35,0,0,0,.52-.09,2.36,2.36,0,0,0,.39-.2,2.33,2.33,0,0,0,.27-.21A.35.35,0,0,1,65,29a.12.12,0,0,1,.09,0,.23.23,0,0,1,0,.11.88.88,0,0,1,0,.2C65.18,29.4,65.19,29.5,65.19,29.63Z"/><path class="cls-5" d="M71.47,27.8A4.28,4.28,0,0,1,71.3,29a2.7,2.7,0,0,1-.53.94,2.42,2.42,0,0,1-.9.62,3.47,3.47,0,0,1-1.26.21,3.42,3.42,0,0,1-1.21-.19,2.11,2.11,0,0,1-.85-.56,2.32,2.32,0,0,1-.51-.91,4.22,4.22,0,0,1-.16-1.23,4,4,0,0,1,.18-1.22,2.6,2.6,0,0,1,.53-.95,2.52,2.52,0,0,1,.9-.61,3.37,3.37,0,0,1,1.25-.21A3.47,3.47,0,0,1,70,25.1a2.07,2.07,0,0,1,.85.56,2.31,2.31,0,0,1,.5.9A4.24,4.24,0,0,1,71.47,27.8ZM70,27.86a3.84,3.84,0,0,0-.06-.71,1.61,1.61,0,0,0-.21-.57,1.06,1.06,0,0,0-.39-.37,1.25,1.25,0,0,0-.61-.14,1.34,1.34,0,0,0-.58.12,1.12,1.12,0,0,0-.4.35,2.06,2.06,0,0,0-.24.56,3.22,3.22,0,0,0-.08.74,3.88,3.88,0,0,0,.07.71,1.56,1.56,0,0,0,.21.56,1,1,0,0,0,.39.38,1.33,1.33,0,0,0,.6.13,1.28,1.28,0,0,0,.58-.12,1.07,1.07,0,0,0,.41-.35,1.72,1.72,0,0,0,.23-.55A3.36,3.36,0,0,0,70,27.86Z"/><path class="cls-5" d="M77.63,30.46a.18.18,0,0,1,0,.1.23.23,0,0,1-.12.08,1,1,0,0,1-.22,0h-.72a1,1,0,0,1-.22,0,.23.23,0,0,1-.12-.08.17.17,0,0,1,0-.1v-3a2.41,2.41,0,0,0-.06-.6,1.38,1.38,0,0,0-.16-.37.78.78,0,0,0-.27-.24.93.93,0,0,0-.39-.08,1,1,0,0,0-.57.2,3.38,3.38,0,0,0-.6.6v3.47a.17.17,0,0,1,0,.1.23.23,0,0,1-.12.08l-.23,0H73l-.23,0a.36.36,0,0,1-.12-.08.17.17,0,0,1,0-.1V25.24a.17.17,0,0,1,0-.1.21.21,0,0,1,.1-.08.88.88,0,0,1,.2,0h.61a.69.69,0,0,1,.19,0,.21.21,0,0,1,.1.08.17.17,0,0,1,0,.1v.6a3.42,3.42,0,0,1,.88-.7,1.94,1.94,0,0,1,.93-.23,2,2,0,0,1,.9.17,1.64,1.64,0,0,1,.59.48,2,2,0,0,1,.33.7,4.55,4.55,0,0,1,.1,1Z"/><path class="cls-5" d="M84.35,27.8A4.28,4.28,0,0,1,84.18,29a2.57,2.57,0,0,1-.54.94,2.38,2.38,0,0,1-.89.62,3.47,3.47,0,0,1-1.26.21,3.38,3.38,0,0,1-1.21-.19,2.14,2.14,0,0,1-.86-.56,2.43,2.43,0,0,1-.5-.91,4.22,4.22,0,0,1-.16-1.23,4,4,0,0,1,.17-1.22,2.62,2.62,0,0,1,.54-.95,2.48,2.48,0,0,1,.89-.61,3.47,3.47,0,0,1,1.26-.21,3.38,3.38,0,0,1,1.21.19,2,2,0,0,1,.86.56,2.31,2.31,0,0,1,.5.9A4.24,4.24,0,0,1,84.35,27.8Zm-1.52.06a3.84,3.84,0,0,0-.06-.71,1.82,1.82,0,0,0-.2-.57,1.06,1.06,0,0,0-.39-.37,1.43,1.43,0,0,0-1.19,0,1,1,0,0,0-.4.35,1.58,1.58,0,0,0-.24.56,3.22,3.22,0,0,0-.08.74,3.17,3.17,0,0,0,.07.71,1.76,1.76,0,0,0,.2.56,1.09,1.09,0,0,0,.39.38,1.41,1.41,0,0,0,.61.13,1.31,1.31,0,0,0,.58-.12,1,1,0,0,0,.4-.35,1.53,1.53,0,0,0,.24-.55A3.38,3.38,0,0,0,82.83,27.86Z"/><path class="cls-5" d="M89.47,29.63c0,.1,0,.19,0,.25s0,.13,0,.18l0,.11a.27.27,0,0,1-.09.11,1.54,1.54,0,0,1-.24.17,2.85,2.85,0,0,1-.39.17,2.93,2.93,0,0,1-.47.12,3,3,0,0,1-.52.05,2.73,2.73,0,0,1-1.07-.19,2,2,0,0,1-.78-.55,2.54,2.54,0,0,1-.48-.89A4.12,4.12,0,0,1,85.2,28a4,4,0,0,1,.2-1.36,2.61,2.61,0,0,1,.54-.94,2.22,2.22,0,0,1,.83-.56,3,3,0,0,1,1.06-.18,3.57,3.57,0,0,1,.46,0l.42.11a2.29,2.29,0,0,1,.35.16,1.33,1.33,0,0,1,.22.15l.09.11a.34.34,0,0,1,0,.12.72.72,0,0,1,0,.17,1.85,1.85,0,0,1,0,.25,1.4,1.4,0,0,1-.06.48.16.16,0,0,1-.15.13.35.35,0,0,1-.21-.08l-.26-.18a1.51,1.51,0,0,0-.36-.18,1.33,1.33,0,0,0-.51-.08,1,1,0,0,0-.88.44,2.28,2.28,0,0,0-.3,1.29,3.32,3.32,0,0,0,.08.75,1.65,1.65,0,0,0,.22.54,1,1,0,0,0,.38.32,1.21,1.21,0,0,0,.52.11,1.35,1.35,0,0,0,.52-.09,2.36,2.36,0,0,0,.39-.2,2.33,2.33,0,0,0,.27-.21.35.35,0,0,1,.19-.09.16.16,0,0,1,.09,0,.23.23,0,0,1,0,.11.56.56,0,0,1,0,.2A2.73,2.73,0,0,1,89.47,29.63Z"/><path class="cls-5" d="M92,30.46a.13.13,0,0,1,0,.1.23.23,0,0,1-.12.08,1,1,0,0,1-.22,0h-.72a1,1,0,0,1-.22,0,.23.23,0,0,1-.12-.08.13.13,0,0,1,0-.1V25.24a.13.13,0,0,1,0-.1.23.23,0,0,1,.12-.08,1,1,0,0,1,.22,0h.72a1,1,0,0,1,.22,0,.23.23,0,0,1,.12.08.13.13,0,0,1,0,.1Zm-.57-7.78a.55.55,0,0,1,.1-.11.36.36,0,0,1,.15-.08l.22,0h.33a2.46,2.46,0,0,1,.43,0,.53.53,0,0,1,.22.06.14.14,0,0,1,.06.11.19.19,0,0,1-.06.12l-1.13,1.36-.1.09a.23.23,0,0,1-.12.06l-.18,0h-.28a1.52,1.52,0,0,1-.33,0,.49.49,0,0,1-.17-.05.1.1,0,0,1,0-.1.22.22,0,0,1,.06-.13Z"/><path class="cls-5" d="M97.92,30.48a.19.19,0,0,1,0,.13.38.38,0,0,1-.19.06,3.53,3.53,0,0,1-.75,0,.3.3,0,0,1-.17-.06.15.15,0,0,1-.05-.13v-.42a2.43,2.43,0,0,1-.74.54,2.09,2.09,0,0,1-.91.19,2.71,2.71,0,0,1-.77-.1,1.75,1.75,0,0,1-.6-.33,1.43,1.43,0,0,1-.4-.53,1.83,1.83,0,0,1-.14-.73,1.69,1.69,0,0,1,.18-.8,1.42,1.42,0,0,1,.54-.55,2.53,2.53,0,0,1,.88-.33,6.33,6.33,0,0,1,1.22-.1h.51V27a1.81,1.81,0,0,0,0-.43.83.83,0,0,0-.16-.31.73.73,0,0,0-.31-.18,1.58,1.58,0,0,0-.47-.06,2.19,2.19,0,0,0-.66.09,3,3,0,0,0-.51.18,2.57,2.57,0,0,0-.37.18.59.59,0,0,1-.25.08.15.15,0,0,1-.11,0,.36.36,0,0,1-.08-.12.78.78,0,0,1-.05-.18,2,2,0,0,1,0-.25,1.12,1.12,0,0,1,0-.29.52.52,0,0,1,.11-.19,1.13,1.13,0,0,1,.29-.18,2.4,2.4,0,0,1,.48-.19A4.38,4.38,0,0,1,95,25a3.64,3.64,0,0,1,.67-.05,4,4,0,0,1,1,.12,1.76,1.76,0,0,1,.72.37,1.45,1.45,0,0,1,.41.64,3.18,3.18,0,0,1,.12.93Zm-1.44-2.24h-.56a2.68,2.68,0,0,0-.61.06,1,1,0,0,0-.41.15.63.63,0,0,0-.23.26.74.74,0,0,0-.08.34.67.67,0,0,0,.21.52.86.86,0,0,0,.58.18,1,1,0,0,0,.57-.16,2.14,2.14,0,0,0,.53-.46Z"/><path class="cls-5" d="M103.07,29a1.79,1.79,0,0,1-.17.78,1.44,1.44,0,0,1-.47.57,2.18,2.18,0,0,1-.72.34,3.22,3.22,0,0,1-.9.11,3.43,3.43,0,0,1-.56,0,4.11,4.11,0,0,1-.47-.11,2.73,2.73,0,0,1-.36-.14,1,1,0,0,1-.2-.13.43.43,0,0,1-.1-.19,1.79,1.79,0,0,1,0-.39,1.65,1.65,0,0,1,0-.27.4.4,0,0,1,0-.17.18.18,0,0,1,.06-.08l.09,0a.44.44,0,0,1,.19.07l.31.16a3.12,3.12,0,0,0,.44.17,1.91,1.91,0,0,0,.56.07,1.37,1.37,0,0,0,.36,0,.89.89,0,0,0,.26-.11.57.57,0,0,0,.18-.2.6.6,0,0,0,.06-.27.48.48,0,0,0-.11-.3,1,1,0,0,0-.29-.22,3,3,0,0,0-.4-.17l-.47-.19a4.81,4.81,0,0,1-.46-.22,1.76,1.76,0,0,1-.4-.32,1.29,1.29,0,0,1-.29-.45,1.73,1.73,0,0,1-.11-.63,1.57,1.57,0,0,1,.57-1.23,2.11,2.11,0,0,1,.67-.34,3,3,0,0,1,.89-.12,3.87,3.87,0,0,1,.48,0,2.26,2.26,0,0,1,.41.09,1.69,1.69,0,0,1,.32.11.63.63,0,0,1,.18.11.22.22,0,0,1,.08.09.3.3,0,0,1,0,.1s0,.09,0,.15,0,.14,0,.23,0,.19,0,.26,0,.12,0,.16a.11.11,0,0,1-.06.07.11.11,0,0,1-.08,0,.4.4,0,0,1-.16-.06l-.28-.13a2.54,2.54,0,0,0-.39-.13,1.85,1.85,0,0,0-.5-.06,1.18,1.18,0,0,0-.34,0,.67.67,0,0,0-.24.12.55.55,0,0,0-.14.17.59.59,0,0,0,0,.22.45.45,0,0,0,.11.31,1.38,1.38,0,0,0,.29.22,3.33,3.33,0,0,0,.42.17l.47.18a4.81,4.81,0,0,1,.46.22,1.94,1.94,0,0,1,.42.32,1.58,1.58,0,0,1,.29.45A1.64,1.64,0,0,1,103.07,29Z"/><path class="cls-5" d="M110,30a1.33,1.33,0,0,1,0,.39.34.34,0,0,1-.08.19.49.49,0,0,1-.16.1,1,1,0,0,1-.24.08l-.29.05-.33,0a2.49,2.49,0,0,1-.76-.11,1.32,1.32,0,0,1-.84-.93,2.9,2.9,0,0,1-.1-.83V26.24h-.63a.2.2,0,0,1-.17-.14,1.27,1.27,0,0,1-.06-.46,2.19,2.19,0,0,1,0-.29.6.6,0,0,1,0-.18.21.21,0,0,1,.08-.1.15.15,0,0,1,.1,0h.62V23.88a.2.2,0,0,1,0-.11.23.23,0,0,1,.12-.08.89.89,0,0,1,.23-.05h.71a.8.8,0,0,1,.22.05.23.23,0,0,1,.12.08.15.15,0,0,1,0,.11V25h1.13a.2.2,0,0,1,.11,0,.29.29,0,0,1,.07.1.6.6,0,0,1,0,.18,2.19,2.19,0,0,1,0,.29,1.27,1.27,0,0,1-.06.46.2.2,0,0,1-.17.14h-1.14v2.45a1.22,1.22,0,0,0,.13.64.53.53,0,0,0,.48.21.68.68,0,0,0,.21,0l.17-.05.12,0a.18.18,0,0,1,.09,0,.08.08,0,0,1,.07,0,.12.12,0,0,1,.05.08s0,.1,0,.17A1.87,1.87,0,0,1,110,30Z"/><path class="cls-5" d="M116.2,27.8A4,4,0,0,1,116,29a2.7,2.7,0,0,1-.53.94,2.42,2.42,0,0,1-.9.62,3.47,3.47,0,0,1-1.26.21,3.42,3.42,0,0,1-1.21-.19,2.11,2.11,0,0,1-.85-.56,2.32,2.32,0,0,1-.51-.91,4.22,4.22,0,0,1-.16-1.23,4,4,0,0,1,.18-1.22,2.6,2.6,0,0,1,.53-.95,2.52,2.52,0,0,1,.9-.61,3.37,3.37,0,0,1,1.25-.21,3.47,3.47,0,0,1,1.22.19,2,2,0,0,1,.85.56,2.31,2.31,0,0,1,.5.9A4.24,4.24,0,0,1,116.2,27.8Zm-1.51.06a3.84,3.84,0,0,0-.06-.71,1.61,1.61,0,0,0-.21-.57,1.06,1.06,0,0,0-.39-.37,1.25,1.25,0,0,0-.61-.14,1.34,1.34,0,0,0-.58.12,1.12,1.12,0,0,0-.4.35,2.06,2.06,0,0,0-.24.56,3.22,3.22,0,0,0-.08.74,3.88,3.88,0,0,0,.07.71,1.56,1.56,0,0,0,.21.56,1,1,0,0,0,.39.38,1.33,1.33,0,0,0,.6.13,1.28,1.28,0,0,0,.58-.12,1.07,1.07,0,0,0,.41-.35,1.72,1.72,0,0,0,.23-.55A3.36,3.36,0,0,0,114.69,27.86Z"/><path class="cls-5" d="M122.32,30.46a.2.2,0,0,1,0,.11.2.2,0,0,1-.1.07.45.45,0,0,1-.19,0h-.6a.49.49,0,0,1-.19,0,.2.2,0,0,1-.1-.07.15.15,0,0,1,0-.11v-.58a3.39,3.39,0,0,1-.84.67,2,2,0,0,1-1,.24,2,2,0,0,1-1-.23,1.82,1.82,0,0,1-.67-.62,2.63,2.63,0,0,1-.38-.92,4.88,4.88,0,0,1-.12-1.1,4.81,4.81,0,0,1,.15-1.25,2.69,2.69,0,0,1,.44-1,1.87,1.87,0,0,1,.71-.6,2.17,2.17,0,0,1,1-.21,1.88,1.88,0,0,1,.8.17,3,3,0,0,1,.71.53V22.78a.17.17,0,0,1,0-.1.23.23,0,0,1,.12-.08.9.9,0,0,1,.22-.05l.36,0,.36,0a1,1,0,0,1,.22.05.36.36,0,0,1,.12.08.17.17,0,0,1,0,.1ZM120.86,27a3.5,3.5,0,0,0-.61-.61,1,1,0,0,0-.6-.21.82.82,0,0,0-.5.15.94.94,0,0,0-.33.38,1.82,1.82,0,0,0-.19.54,2.91,2.91,0,0,0-.06.6,4.48,4.48,0,0,0,.05.64,2.09,2.09,0,0,0,.17.55,1.12,1.12,0,0,0,.32.39.83.83,0,0,0,.51.15.93.93,0,0,0,.29-.05.86.86,0,0,0,.29-.14,1.78,1.78,0,0,0,.31-.26,5.24,5.24,0,0,0,.35-.4Z"/><path class="cls-5" d="M129.08,27.8a4.28,4.28,0,0,1-.17,1.22,2.57,2.57,0,0,1-.54.94,2.38,2.38,0,0,1-.89.62,3.47,3.47,0,0,1-1.26.21A3.38,3.38,0,0,1,125,30.6a2.14,2.14,0,0,1-.86-.56,2.43,2.43,0,0,1-.5-.91,4.22,4.22,0,0,1-.16-1.23,4,4,0,0,1,.17-1.22,2.62,2.62,0,0,1,.54-.95,2.57,2.57,0,0,1,.89-.61,3.95,3.95,0,0,1,2.48,0,2.07,2.07,0,0,1,.85.56,2.31,2.31,0,0,1,.5.9A4.24,4.24,0,0,1,129.08,27.8Zm-1.51.06a3.79,3.79,0,0,0-.07-.71,1.82,1.82,0,0,0-.2-.57,1.06,1.06,0,0,0-.39-.37,1.29,1.29,0,0,0-.62-.14,1.32,1.32,0,0,0-.57.12,1,1,0,0,0-.4.35,1.58,1.58,0,0,0-.24.56,3.22,3.22,0,0,0-.08.74,3.17,3.17,0,0,0,.07.71,1.76,1.76,0,0,0,.2.56,1.09,1.09,0,0,0,.39.38,1.41,1.41,0,0,0,.61.13,1.31,1.31,0,0,0,.58-.12,1,1,0,0,0,.4-.35,1.53,1.53,0,0,0,.24-.55A3.36,3.36,0,0,0,127.57,27.86Z"/><path class="cls-5" d="M23.13,40.14a.58.58,0,0,1-.12.4.45.45,0,0,1-.33.13H19.5a2.23,2.23,0,0,0,.08.6,1.07,1.07,0,0,0,.25.47,1.17,1.17,0,0,0,.44.29,2.13,2.13,0,0,0,.66.1,3.51,3.51,0,0,0,.68-.06l.5-.12.36-.13a.82.82,0,0,1,.22,0l.09,0s0,0,.06.07a.33.33,0,0,1,0,.15,1.77,1.77,0,0,1,0,.24v.22c0,.06,0,.12,0,.16a.36.36,0,0,1,0,.11.21.21,0,0,1-.06.08.46.46,0,0,1-.21.11,2.17,2.17,0,0,1-.43.14c-.18,0-.38.08-.6.12a5.58,5.58,0,0,1-.73.05,3.78,3.78,0,0,1-1.22-.18,2.13,2.13,0,0,1-.87-.53,2.24,2.24,0,0,1-.53-.9A4.46,4.46,0,0,1,18,40.35a4.06,4.06,0,0,1,.18-1.25,2.58,2.58,0,0,1,.53-1,2.31,2.31,0,0,1,.84-.6,3,3,0,0,1,1.11-.2,2.88,2.88,0,0,1,1.12.19,2.06,2.06,0,0,1,.77.54,2.27,2.27,0,0,1,.44.81,3.64,3.64,0,0,1,.14,1Zm-1.43-.42a1.49,1.49,0,0,0-.25-1,1,1,0,0,0-.82-.36,1.07,1.07,0,0,0-.49.11,1.06,1.06,0,0,0-.35.28,1.38,1.38,0,0,0-.21.42,2.17,2.17,0,0,0-.08.52Z"/><path class="cls-5" d="M25.81,42.9a.2.2,0,0,1,0,.11.22.22,0,0,1-.12.07l-.23,0-.35,0-.36,0-.23,0a.35.35,0,0,1-.12-.07.2.2,0,0,1,0-.11V35.21a.2.2,0,0,1,0-.11.36.36,0,0,1,.12-.08l.23-.05h.71a1,1,0,0,1,.23.05.23.23,0,0,1,.12.08.2.2,0,0,1,0,.11Z"/><path class="cls-5" d="M35.25,40.22a4.81,4.81,0,0,1-.15,1.25,2.61,2.61,0,0,1-.44,1A1.89,1.89,0,0,1,34,43a2.21,2.21,0,0,1-1,.21,1.86,1.86,0,0,1-.42-.05,1.55,1.55,0,0,1-.36-.13,2.41,2.41,0,0,1-.36-.23,3.31,3.31,0,0,1-.36-.31V45a.14.14,0,0,1,0,.1.23.23,0,0,1-.12.08.9.9,0,0,1-.22.05l-.36,0-.36,0a.9.9,0,0,1-.22-.05.23.23,0,0,1-.12-.08.14.14,0,0,1,0-.1v-7.3a.17.17,0,0,1,0-.1.26.26,0,0,1,.1-.07l.2,0h.59l.2,0a.2.2,0,0,1,.1.07.17.17,0,0,1,0,.1v.62a4.32,4.32,0,0,1,.45-.42,2.66,2.66,0,0,1,.45-.29,1.91,1.91,0,0,1,.47-.18,2.1,2.1,0,0,1,.51-.06,2,2,0,0,1,1,.22,1.87,1.87,0,0,1,.66.62,2.82,2.82,0,0,1,.37.92A4.84,4.84,0,0,1,35.25,40.22Zm-1.53.1a4.48,4.48,0,0,0,0-.64,2.21,2.21,0,0,0-.17-.55,1.08,1.08,0,0,0-.32-.38.84.84,0,0,0-.49-.14,1,1,0,0,0-.29,0,1.53,1.53,0,0,0-.29.14,3.29,3.29,0,0,0-.31.26,4.77,4.77,0,0,0-.33.39v1.73a3.06,3.06,0,0,0,.59.6,1,1,0,0,0,.58.21.77.77,0,0,0,.49-.14,1.1,1.1,0,0,0,.33-.38,1.82,1.82,0,0,0,.19-.54A3.07,3.07,0,0,0,33.72,40.32Z"/><path class="cls-5" d="M41.7,40.24a3.91,3.91,0,0,1-.17,1.22,2.68,2.68,0,0,1-.53.95,2.39,2.39,0,0,1-.9.61,3.26,3.26,0,0,1-1.26.22,3.41,3.41,0,0,1-1.21-.2,2,2,0,0,1-.85-.56,2.25,2.25,0,0,1-.51-.91,4.1,4.1,0,0,1-.16-1.22,3.86,3.86,0,0,1,.18-1.22,2.66,2.66,0,0,1,.53-1,2.28,2.28,0,0,1,.9-.61A3.17,3.17,0,0,1,39,37.35a3.44,3.44,0,0,1,1.22.19,2.11,2.11,0,0,1,.85.56,2.23,2.23,0,0,1,.5.91A4.17,4.17,0,0,1,41.7,40.24Zm-1.51.06a3.84,3.84,0,0,0-.06-.71,1.61,1.61,0,0,0-.21-.57,1.06,1.06,0,0,0-.39-.37,1.41,1.41,0,0,0-1.18,0,1,1,0,0,0-.41.36,1.86,1.86,0,0,0-.24.55,3.32,3.32,0,0,0-.07.74,3.84,3.84,0,0,0,.06.71,1.61,1.61,0,0,0,.21.57.93.93,0,0,0,.39.37,1.23,1.23,0,0,0,.61.13,1.34,1.34,0,0,0,.58-.12,1.12,1.12,0,0,0,.4-.35,1.63,1.63,0,0,0,.23-.55A3.29,3.29,0,0,0,40.19,40.3Z"/><path class="cls-5" d="M46,42.39a1.92,1.92,0,0,1,0,.39.37.37,0,0,1-.09.2.48.48,0,0,1-.15.1l-.24.07-.3.05-.33,0a2.49,2.49,0,0,1-.76-.11,1.38,1.38,0,0,1-.53-.34,1.51,1.51,0,0,1-.31-.59,2.9,2.9,0,0,1-.1-.83V38.68H42.5a.18.18,0,0,1-.17-.14,1.23,1.23,0,0,1-.06-.46,2.53,2.53,0,0,1,0-.29.65.65,0,0,1,0-.18.2.2,0,0,1,.07-.1.17.17,0,0,1,.1,0h.62V36.32a.2.2,0,0,1,0-.11.41.41,0,0,1,.12-.08l.23,0,.35,0,.36,0,.23,0,.12.08a.2.2,0,0,1,0,.11v1.16h1.14a.17.17,0,0,1,.1,0,.2.2,0,0,1,.07.1.65.65,0,0,1,.05.18,2.53,2.53,0,0,1,0,.29,1.23,1.23,0,0,1-.06.46c0,.09-.09.14-.17.14H44.59v2.45a1.19,1.19,0,0,0,.14.64.53.53,0,0,0,.48.21.75.75,0,0,0,.21,0l.16,0,.13-.05.09,0,.06,0s0,0,0,.08a.61.61,0,0,1,0,.17A2.1,2.1,0,0,1,46,42.39Z"/><path class="cls-5" d="M51.7,40.14a.58.58,0,0,1-.12.4.45.45,0,0,1-.33.13H48.07a2.23,2.23,0,0,0,.08.6,1.18,1.18,0,0,0,.25.47,1.29,1.29,0,0,0,.45.29,2.06,2.06,0,0,0,.65.1,3.37,3.37,0,0,0,.68-.06l.51-.12.35-.13a.8.8,0,0,1,.23,0l.09,0a.13.13,0,0,1,0,.07.54.54,0,0,1,0,.15c0,.07,0,.15,0,.24s0,.16,0,.22a.7.7,0,0,1,0,.16l0,.11-.06.08a.63.63,0,0,1-.21.11,2.29,2.29,0,0,1-.44.14,5.76,5.76,0,0,1-.6.12,5.43,5.43,0,0,1-.72.05,3.69,3.69,0,0,1-1.22-.18,2.07,2.07,0,0,1-1.4-1.43,4.12,4.12,0,0,1-.18-1.28,3.77,3.77,0,0,1,.19-1.25,2.56,2.56,0,0,1,.52-1,2.31,2.31,0,0,1,.84-.6,3,3,0,0,1,1.12-.2,2.92,2.92,0,0,1,1.12.19,2,2,0,0,1,.76.54,2.13,2.13,0,0,1,.44.81,3.64,3.64,0,0,1,.14,1Zm-1.43-.42a1.55,1.55,0,0,0-.24-1,1,1,0,0,0-.83-.36,1.1,1.1,0,0,0-.49.11.93.93,0,0,0-.34.28,1.38,1.38,0,0,0-.21.42,2.18,2.18,0,0,0-.09.52Z"/><path class="cls-5" d="M57.9,42.9a.15.15,0,0,1,0,.11.23.23,0,0,1-.11.07l-.23,0-.35,0-.36,0-.23,0a.23.23,0,0,1-.11-.07.15.15,0,0,1,0-.11v-3a2.27,2.27,0,0,0-.06-.59,1,1,0,0,0-.16-.37.62.62,0,0,0-.27-.24.8.8,0,0,0-.39-.09,1,1,0,0,0-.56.21,2.55,2.55,0,0,0-.6.59V42.9a.15.15,0,0,1,0,.11.22.22,0,0,1-.12.07,1,1,0,0,1-.22,0l-.36,0-.36,0a1,1,0,0,1-.22,0A.22.22,0,0,1,53,43a.15.15,0,0,1,0-.11V37.68a.17.17,0,0,1,0-.1.23.23,0,0,1,.11-.07.74.74,0,0,1,.19,0h.62a.74.74,0,0,1,.19,0,.22.22,0,0,1,.09.07.17.17,0,0,1,0,.1v.61a3.27,3.27,0,0,1,.88-.71,2.07,2.07,0,0,1,.94-.23,2.14,2.14,0,0,1,.89.17,1.68,1.68,0,0,1,.6.48,2,2,0,0,1,.32.71,3.91,3.91,0,0,1,.1,1Z"/><path class="cls-5" d="M63.3,42.07c0,.1,0,.19,0,.26s0,.12,0,.17a.81.81,0,0,1,0,.11.36.36,0,0,1-.09.12l-.24.16a2.85,2.85,0,0,1-.39.17,2.93,2.93,0,0,1-.47.12,2.24,2.24,0,0,1-.52,0A2.73,2.73,0,0,1,60.45,43a1.88,1.88,0,0,1-.78-.55,2.45,2.45,0,0,1-.48-.89A4,4,0,0,1,59,40.39a3.92,3.92,0,0,1,.2-1.35,2.66,2.66,0,0,1,.54-.95,2.19,2.19,0,0,1,.83-.55,3,3,0,0,1,1.06-.18,2.38,2.38,0,0,1,.46,0,1.85,1.85,0,0,1,.42.11,1.61,1.61,0,0,1,.35.16.69.69,0,0,1,.22.15l.09.11a.23.23,0,0,1,0,.11.79.79,0,0,1,0,.17,1.85,1.85,0,0,1,0,.25,1.32,1.32,0,0,1-.06.48c0,.09-.09.14-.15.14a.37.37,0,0,1-.21-.09l-.26-.18a3,3,0,0,0-.36-.18,1.56,1.56,0,0,0-.51-.08,1,1,0,0,0-.88.44,2.34,2.34,0,0,0-.3,1.3,3.22,3.22,0,0,0,.08.74,1.57,1.57,0,0,0,.22.54,1,1,0,0,0,.38.32,1.08,1.08,0,0,0,.52.11,1.35,1.35,0,0,0,.52-.09,2.37,2.37,0,0,0,.66-.4.35.35,0,0,1,.19-.09.16.16,0,0,1,.09,0,.19.19,0,0,1,0,.1.62.62,0,0,1,0,.21A2.41,2.41,0,0,1,63.3,42.07Z"/><path class="cls-5" d="M66,35.92a.82.82,0,0,1-.18.61,1,1,0,0,1-.68.17,1.07,1.07,0,0,1-.67-.16.84.84,0,0,1-.17-.6.82.82,0,0,1,.18-.61,1,1,0,0,1,.68-.18,1,1,0,0,1,.66.17A.8.8,0,0,1,66,35.92Zm-.11,7a.15.15,0,0,1,0,.11.22.22,0,0,1-.12.07,1,1,0,0,1-.22,0l-.36,0-.36,0a1,1,0,0,1-.22,0A.22.22,0,0,1,64.4,43a.15.15,0,0,1,0-.11V37.69a.14.14,0,0,1,0-.1.22.22,0,0,1,.12-.07.6.6,0,0,1,.22-.05,3.25,3.25,0,0,1,.72,0,.6.6,0,0,1,.22.05.22.22,0,0,1,.12.07.14.14,0,0,1,0,.1Z"/><path class="cls-5" d="M71.75,42.92a.14.14,0,0,1,0,.13.5.5,0,0,1-.19.07l-.37,0-.38,0a.39.39,0,0,1-.17-.07.14.14,0,0,1,0-.13v-.41a2.24,2.24,0,0,1-.74.53,2.09,2.09,0,0,1-.91.2,2.7,2.7,0,0,1-.77-.11,1.73,1.73,0,0,1-.6-.32,1.61,1.61,0,0,1-.4-.53,1.88,1.88,0,0,1-.13-.74,1.64,1.64,0,0,1,.17-.79,1.45,1.45,0,0,1,.54-.56,2.53,2.53,0,0,1,.88-.32,6.27,6.27,0,0,1,1.22-.11h.51v-.32a1.88,1.88,0,0,0,0-.43.72.72,0,0,0-.16-.3.64.64,0,0,0-.31-.18,1.58,1.58,0,0,0-.47-.06,2.21,2.21,0,0,0-.66.08,3,3,0,0,0-.51.18l-.37.18a.48.48,0,0,1-.25.08.15.15,0,0,1-.11,0,.24.24,0,0,1-.08-.11.87.87,0,0,1,0-.19,2,2,0,0,1,0-.25,1,1,0,0,1,0-.28.45.45,0,0,1,.11-.19,1.11,1.11,0,0,1,.29-.19,3.2,3.2,0,0,1,.48-.19,4.38,4.38,0,0,1,.6-.15,4.8,4.8,0,0,1,.67,0,4,4,0,0,1,1,.12,1.76,1.76,0,0,1,.72.37,1.51,1.51,0,0,1,.41.64,3.18,3.18,0,0,1,.12.93Zm-1.44-2.23h-.56a2.73,2.73,0,0,0-.61.05,1,1,0,0,0-.41.16.61.61,0,0,0-.23.25.74.74,0,0,0-.08.34.67.67,0,0,0,.21.52.86.86,0,0,0,.58.19,1.11,1.11,0,0,0,.57-.16,2.45,2.45,0,0,0,.53-.47Z"/><path class="cls-5" d="M74.7,42.9a.15.15,0,0,1,0,.11.22.22,0,0,1-.12.07,1,1,0,0,1-.22,0l-.36,0-.35,0-.23,0a.22.22,0,0,1-.12-.07.21.21,0,0,1,0-.11V35.21a.21.21,0,0,1,0-.11.23.23,0,0,1,.12-.08,1,1,0,0,1,.23-.05h.71a.9.9,0,0,1,.22.05.23.23,0,0,1,.12.08.15.15,0,0,1,0,.11Z"/><path class="cls-5" d="M83.83,45a.19.19,0,0,1,0,.1.36.36,0,0,1-.12.08,1,1,0,0,1-.22.05l-.36,0-.36,0a.9.9,0,0,1-.22-.05.23.23,0,0,1-.12-.08.19.19,0,0,1,0-.1V42.49a3.87,3.87,0,0,1-.41.34,2.39,2.39,0,0,1-.4.23,1.53,1.53,0,0,1-.41.14,3.14,3.14,0,0,1-.45,0,2,2,0,0,1-1-.23,2,2,0,0,1-.66-.63,2.76,2.76,0,0,1-.37-.91,5,5,0,0,1-.12-1.11,4.81,4.81,0,0,1,.15-1.25,2.7,2.7,0,0,1,.45-1,1.9,1.9,0,0,1,.72-.6,2.19,2.19,0,0,1,1-.21,1.84,1.84,0,0,1,.41,0,1.34,1.34,0,0,1,.4.16,2.3,2.3,0,0,1,.41.28,5.33,5.33,0,0,1,.47.42v-.57a.13.13,0,0,1,0-.1.2.2,0,0,1,.1-.07.74.74,0,0,1,.19,0h.6a.74.74,0,0,1,.19,0,.2.2,0,0,1,.1.07.17.17,0,0,1,0,.1Zm-1.46-5.56a3.18,3.18,0,0,0-.61-.61,1,1,0,0,0-.6-.21.82.82,0,0,0-.5.14.94.94,0,0,0-.33.38,1.82,1.82,0,0,0-.19.54,3.05,3.05,0,0,0-.06.6,4.37,4.37,0,0,0,0,.64,2.17,2.17,0,0,0,.17.56,1,1,0,0,0,.32.38.83.83,0,0,0,.51.15.92.92,0,0,0,.29,0,1,1,0,0,0,.29-.15,1.43,1.43,0,0,0,.31-.26,4.92,4.92,0,0,0,.35-.39Z"/><path class="cls-5" d="M90.26,42.9a.2.2,0,0,1,0,.11.2.2,0,0,1-.1.07l-.19,0-.3,0-.32,0-.19,0A.26.26,0,0,1,89,43a.2.2,0,0,1,0-.11v-.6a3.08,3.08,0,0,1-.88.7,1.91,1.91,0,0,1-.92.24,2.08,2.08,0,0,1-.91-.18,1.64,1.64,0,0,1-.59-.48,1.87,1.87,0,0,1-.32-.7,4.06,4.06,0,0,1-.1-1v-3.2a.17.17,0,0,1,0-.1.27.27,0,0,1,.12-.07,1,1,0,0,1,.23,0h.71l.23,0a.35.35,0,0,1,.12.07.17.17,0,0,1,0,.1v3a3.24,3.24,0,0,0,0,.63,1.25,1.25,0,0,0,.16.37.92.92,0,0,0,.28.24.8.8,0,0,0,.39.09.93.93,0,0,0,.56-.21,3.09,3.09,0,0,0,.61-.6V37.68a.17.17,0,0,1,0-.1.22.22,0,0,1,.12-.07,1,1,0,0,1,.22,0h.72a.9.9,0,0,1,.22,0,.27.27,0,0,1,.12.07.17.17,0,0,1,0,.1Z"/><path class="cls-5" d="M96.57,40.14a.58.58,0,0,1-.12.4.45.45,0,0,1-.33.13H92.94a1.9,1.9,0,0,0,.08.6,1.07,1.07,0,0,0,.25.47,1.17,1.17,0,0,0,.44.29,2.13,2.13,0,0,0,.66.1,3.51,3.51,0,0,0,.68-.06l.5-.12.36-.13a.74.74,0,0,1,.22,0l.09,0a.22.22,0,0,1,.06.07.33.33,0,0,1,0,.15,1.77,1.77,0,0,1,0,.24v.22c0,.06,0,.12,0,.16a.36.36,0,0,1,0,.11.21.21,0,0,1-.06.08.46.46,0,0,1-.21.11,2.17,2.17,0,0,1-.43.14c-.18,0-.38.08-.6.12a5.58,5.58,0,0,1-.73.05A3.78,3.78,0,0,1,93,43.06a2.13,2.13,0,0,1-.87-.53,2.24,2.24,0,0,1-.53-.9,4.46,4.46,0,0,1-.17-1.28,4.06,4.06,0,0,1,.18-1.25,2.58,2.58,0,0,1,.53-1,2.31,2.31,0,0,1,.84-.6,3,3,0,0,1,1.11-.2,2.88,2.88,0,0,1,1.12.19,2.06,2.06,0,0,1,.77.54,2.27,2.27,0,0,1,.44.81,3.64,3.64,0,0,1,.14,1Zm-1.43-.42a1.49,1.49,0,0,0-.25-1,1,1,0,0,0-.82-.36,1.07,1.07,0,0,0-.49.11,1,1,0,0,0-.35.28,1.38,1.38,0,0,0-.21.42,2.17,2.17,0,0,0-.08.52Z"/><path class="cls-5" d="M105.59,37.48a.46.46,0,0,1,.34.11.45.45,0,0,1,.1.3v5a.21.21,0,0,1,0,.11.22.22,0,0,1-.12.07,1,1,0,0,1-.22,0l-.36,0-.36,0a1,1,0,0,1-.22,0,.22.22,0,0,1-.12-.07.2.2,0,0,1,0-.11V38.68h-2.35v2.45a1.2,1.2,0,0,0,.13.64.53.53,0,0,0,.48.21.68.68,0,0,0,.21,0l.17,0,.12-.05.09,0,.07,0a.12.12,0,0,1,0,.08s0,.1,0,.17a1.87,1.87,0,0,1,0,.27,1.92,1.92,0,0,1,0,.39.49.49,0,0,1-.08.19.5.5,0,0,1-.16.11l-.24.07-.3.05-.33,0a2.49,2.49,0,0,1-.76-.11,1.38,1.38,0,0,1-.53-.34,1.51,1.51,0,0,1-.31-.59,2.9,2.9,0,0,1-.1-.83V38.68h-.63a.2.2,0,0,1-.17-.14,1.28,1.28,0,0,1,0-.46,2.53,2.53,0,0,1,0-.29.69.69,0,0,1,0-.18.21.21,0,0,1,.08-.1.17.17,0,0,1,.1,0h.62V36.32a.2.2,0,0,1,0-.11.31.31,0,0,1,.12-.08l.23,0,.35,0,.36,0,.23,0a.35.35,0,0,1,.11.08.15.15,0,0,1,0,.11v1.16Zm.55-1.56a.82.82,0,0,1-.18.61,1,1,0,0,1-.67.17,1.05,1.05,0,0,1-.67-.16.8.8,0,0,1-.18-.6.82.82,0,0,1,.18-.61,1,1,0,0,1,.68-.18,1,1,0,0,1,.67.17A.84.84,0,0,1,106.14,35.92Z"/><path class="cls-5" d="M112.33,40.14a.58.58,0,0,1-.12.4.45.45,0,0,1-.33.13H108.7a2.23,2.23,0,0,0,.08.6,1.18,1.18,0,0,0,.25.47,1.21,1.21,0,0,0,.45.29,2,2,0,0,0,.65.1,3.44,3.44,0,0,0,.68-.06l.5-.12.36-.13a.8.8,0,0,1,.23,0l.08,0a.11.11,0,0,1,.06.07.33.33,0,0,1,0,.15,1.77,1.77,0,0,1,0,.24v.22c0,.06,0,.12,0,.16a.36.36,0,0,1,0,.11.21.21,0,0,1-.06.08.47.47,0,0,1-.2.11,2.55,2.55,0,0,1-.44.14c-.17,0-.38.08-.6.12a5.58,5.58,0,0,1-.73.05,3.78,3.78,0,0,1-1.22-.18,2.13,2.13,0,0,1-.87-.53,2.24,2.24,0,0,1-.53-.9,4.46,4.46,0,0,1-.17-1.28,4.06,4.06,0,0,1,.18-1.25,2.58,2.58,0,0,1,.53-1,2.31,2.31,0,0,1,.84-.6,3,3,0,0,1,1.11-.2,2.94,2.94,0,0,1,1.13.19,2,2,0,0,1,.76.54,2.27,2.27,0,0,1,.44.81,3.64,3.64,0,0,1,.14,1Zm-1.43-.42a1.49,1.49,0,0,0-.25-1,1,1,0,0,0-.82-.36,1.07,1.07,0,0,0-.49.11.93.93,0,0,0-.34.28,1.2,1.2,0,0,0-.22.42,2.83,2.83,0,0,0-.08.52Z"/><path class="cls-5" d="M118.53,42.9a.15.15,0,0,1,0,.11.22.22,0,0,1-.12.07,1,1,0,0,1-.22,0l-.35,0-.36,0a1,1,0,0,1-.23,0,.27.27,0,0,1-.12-.07.2.2,0,0,1,0-.11v-3a2.27,2.27,0,0,0-.06-.59,1.15,1.15,0,0,0-.16-.37.62.62,0,0,0-.27-.24.8.8,0,0,0-.39-.09,1,1,0,0,0-.57.21,2.73,2.73,0,0,0-.59.59V42.9a.21.21,0,0,1,0,.11.22.22,0,0,1-.12.07l-.23,0-.35,0-.36,0-.23,0a.35.35,0,0,1-.12-.07.2.2,0,0,1,0-.11V37.68a.17.17,0,0,1,0-.1.2.2,0,0,1,.1-.07l.2,0h.61a.64.64,0,0,1,.19,0,.2.2,0,0,1,.1.07.17.17,0,0,1,0,.1v.61a3.27,3.27,0,0,1,.88-.71,2.06,2.06,0,0,1,.93-.23,2.16,2.16,0,0,1,.9.17,1.56,1.56,0,0,1,.59.48,2,2,0,0,1,.33.71,4.45,4.45,0,0,1,.1,1Z"/><path class="cls-5" d="M124.8,40.14a.58.58,0,0,1-.12.4.46.46,0,0,1-.34.13h-3.17a1.9,1.9,0,0,0,.08.6,1.07,1.07,0,0,0,.25.47,1.17,1.17,0,0,0,.44.29,2.06,2.06,0,0,0,.65.1,3.37,3.37,0,0,0,.68-.06l.51-.12.35-.13a.87.87,0,0,1,.23,0l.09,0a.22.22,0,0,1,.06.07l0,.15a1.77,1.77,0,0,1,0,.24,1.41,1.41,0,0,1,0,.22c0,.06,0,.12,0,.16a.36.36,0,0,1,0,.11s0,0-.06.08a.63.63,0,0,1-.21.11,2.41,2.41,0,0,1-.43.14c-.18,0-.38.08-.6.12a5.58,5.58,0,0,1-.73.05,3.78,3.78,0,0,1-1.22-.18,2.23,2.23,0,0,1-.88-.53,2.35,2.35,0,0,1-.52-.9,4.46,4.46,0,0,1-.17-1.28,4.06,4.06,0,0,1,.18-1.25,2.58,2.58,0,0,1,.53-1,2.31,2.31,0,0,1,.84-.6,3,3,0,0,1,1.11-.2,2.88,2.88,0,0,1,1.12.19,2.06,2.06,0,0,1,.77.54,2.25,2.25,0,0,1,.43.81,3.31,3.31,0,0,1,.15,1Zm-1.43-.42a1.49,1.49,0,0,0-.25-1,1,1,0,0,0-.82-.36,1.07,1.07,0,0,0-.49.11,1,1,0,0,0-.35.28,1.38,1.38,0,0,0-.21.42,1.77,1.77,0,0,0-.08.52Z"/><path class="cls-5" d="M30.29,53.28a2.31,2.31,0,0,1-.22,1,2.21,2.21,0,0,1-.6.75,2.43,2.43,0,0,1-.89.46,3.83,3.83,0,0,1-1.09.15,4.23,4.23,0,0,1-.73-.06,5.47,5.47,0,0,1-.59-.16,2.2,2.2,0,0,1-.43-.19,1.3,1.3,0,0,1-.25-.17.51.51,0,0,1-.11-.22,2.26,2.26,0,0,1,0-.42,2.63,2.63,0,0,1,0-.3.88.88,0,0,1,0-.2.23.23,0,0,1,.07-.11.17.17,0,0,1,.1,0,.43.43,0,0,1,.23.1l.39.21a2.88,2.88,0,0,0,.55.21,2.5,2.5,0,0,0,.76.1,1.59,1.59,0,0,0,.5-.07,1.13,1.13,0,0,0,.38-.19.76.76,0,0,0,.23-.3.91.91,0,0,0,.09-.41.72.72,0,0,0-.14-.44,1.71,1.71,0,0,0-.37-.33,4,4,0,0,0-.51-.26l-.59-.27a4.19,4.19,0,0,1-.59-.32,2.38,2.38,0,0,1-.52-.43,1.83,1.83,0,0,1-.36-.59,2,2,0,0,1-.14-.81,2.12,2.12,0,0,1,.2-1,2,2,0,0,1,.54-.68A2.38,2.38,0,0,1,27,48a3.54,3.54,0,0,1,1-.13,3.27,3.27,0,0,1,.54,0,3.67,3.67,0,0,1,.5.11,3.36,3.36,0,0,1,.42.16l.24.14.07.1a.36.36,0,0,1,0,.11.79.79,0,0,1,0,.17c0,.07,0,.15,0,.26s0,.2,0,.28,0,.15,0,.2a.54.54,0,0,1-.06.11.17.17,0,0,1-.1,0,.43.43,0,0,1-.21-.08l-.34-.18a3.79,3.79,0,0,0-.48-.17A1.83,1.83,0,0,0,28,49a1.46,1.46,0,0,0-.44.06.92.92,0,0,0-.31.17.7.7,0,0,0-.19.26.87.87,0,0,0-.06.32.74.74,0,0,0,.14.44,1.17,1.17,0,0,0,.37.32,3.17,3.17,0,0,0,.52.27l.6.27a4.83,4.83,0,0,1,.59.32,2.44,2.44,0,0,1,.53.43,1.89,1.89,0,0,1,.36.58A2,2,0,0,1,30.29,53.28Z"/><path class="cls-5" d="M36.71,54.4a1.85,1.85,0,0,1,0,.25.74.74,0,0,1,0,.17.5.5,0,0,1,0,.13l-.1.12a1.27,1.27,0,0,1-.24.17,2.88,2.88,0,0,1-.46.2,3.07,3.07,0,0,1-.6.16,3.51,3.51,0,0,1-.74.07,3.93,3.93,0,0,1-1.41-.24A2.7,2.7,0,0,1,32,54.71a3.15,3.15,0,0,1-.68-1.19,5.5,5.5,0,0,1-.23-1.66,5.06,5.06,0,0,1,.26-1.72,3.4,3.4,0,0,1,.72-1.25,3,3,0,0,1,1.1-.78,3.91,3.91,0,0,1,1.43-.26,4.07,4.07,0,0,1,.61,0,3.86,3.86,0,0,1,.54.14,2.34,2.34,0,0,1,.45.2,1.21,1.21,0,0,1,.28.19.5.5,0,0,1,.1.13.39.39,0,0,1,0,.13c0,.06,0,.12,0,.2s0,.16,0,.27a2.36,2.36,0,0,1,0,.3.54.54,0,0,1,0,.2.23.23,0,0,1-.07.11.12.12,0,0,1-.09,0,.38.38,0,0,1-.22-.1c-.09-.07-.21-.14-.35-.23a2.44,2.44,0,0,0-.51-.22,2.1,2.1,0,0,0-.7-.11,1.64,1.64,0,0,0-.81.19,1.67,1.67,0,0,0-.6.52,2.54,2.54,0,0,0-.38.83,4.15,4.15,0,0,0-.13,1.1,4.31,4.31,0,0,0,.14,1.15,2.19,2.19,0,0,0,.39.81,1.62,1.62,0,0,0,.61.47,2.14,2.14,0,0,0,.82.15,2.38,2.38,0,0,0,.7-.09,3.7,3.7,0,0,0,.52-.22,2.15,2.15,0,0,0,.35-.21.43.43,0,0,1,.21-.09l.09,0a.14.14,0,0,1,.06.1.69.69,0,0,1,0,.19A3.33,3.33,0,0,1,36.71,54.4Z"/><path class="cls-5" d="M44,55a1.57,1.57,0,0,1,.09.34.21.21,0,0,1,0,.18.38.38,0,0,1-.23.08h-.91a1.43,1.43,0,0,1-.26,0,.18.18,0,0,1-.12-.08l-.06-.12L42,53.82H39.13l-.48,1.48a1,1,0,0,1-.06.14.48.48,0,0,1-.13.09,1,1,0,0,1-.24,0h-.4a2.43,2.43,0,0,1-.42,0,.35.35,0,0,1-.22-.08.28.28,0,0,1,0-.19,1.68,1.68,0,0,1,.09-.33l2.34-6.72a.48.48,0,0,1,.08-.16A.27.27,0,0,1,39.8,48a1,1,0,0,1,.28,0h1a1.25,1.25,0,0,1,.32,0,.27.27,0,0,1,.16.09.44.44,0,0,1,.09.18Zm-3.48-5.55h0l-1.07,3.22h2.14Z"/><path class="cls-5" d="M51.37,51.65a5.21,5.21,0,0,1-.27,1.78,3,3,0,0,1-.78,1.21,3.19,3.19,0,0,1-1.24.69,6.27,6.27,0,0,1-1.73.22H45.54a.48.48,0,0,1-.33-.12.45.45,0,0,1-.13-.37v-6.6a.45.45,0,0,1,.13-.37.48.48,0,0,1,.33-.12h1.94a5.41,5.41,0,0,1,1.72.24,3.21,3.21,0,0,1,1.19.7,3.1,3.1,0,0,1,.73,1.15A4.58,4.58,0,0,1,51.37,51.65Zm-1.59.05a3.56,3.56,0,0,0-.13-1,2,2,0,0,0-.4-.8,1.73,1.73,0,0,0-.71-.53,2.87,2.87,0,0,0-1.15-.19h-.78v5.15h.81a3,3,0,0,0,1.06-.17,1.66,1.66,0,0,0,.72-.49,2.08,2.08,0,0,0,.44-.82A4.36,4.36,0,0,0,49.78,51.7Z"/><path class="cls-5" d="M58.56,55a1.57,1.57,0,0,1,.09.34.21.21,0,0,1,0,.18.38.38,0,0,1-.23.08h-.91a1.43,1.43,0,0,1-.26,0,.18.18,0,0,1-.12-.08.67.67,0,0,1-.06-.12l-.51-1.52H53.67l-.48,1.48a.46.46,0,0,1-.07.14.31.31,0,0,1-.12.09l-.24,0h-.4a2.56,2.56,0,0,1-.43,0,.34.34,0,0,1-.21-.08.24.24,0,0,1,0-.19,1.68,1.68,0,0,1,.09-.33l2.34-6.72a.48.48,0,0,1,.08-.16.27.27,0,0,1,.15-.09.93.93,0,0,1,.28,0h1A1.25,1.25,0,0,1,56,48a.27.27,0,0,1,.16.09.6.6,0,0,1,.09.18Zm-3.48-5.55h0L54,52.64h2.14Z"/><path class="cls-5" d="M65.27,55.55l-.63,1.85a.45.45,0,0,1-.29.21,3,3,0,0,1-.69.06l-.37,0a.43.43,0,0,1-.21-.07.17.17,0,0,1-.08-.11.38.38,0,0,1,0-.17l.69-1.75a.45.45,0,0,1-.13-.11.51.51,0,0,1-.09-.16l-1.8-4.8a1,1,0,0,1-.08-.31A.24.24,0,0,1,61.7,50a.45.45,0,0,1,.24-.08,2.59,2.59,0,0,1,.44,0h.4l.23,0a.32.32,0,0,1,.12.11.71.71,0,0,1,.08.21l1.23,3.5h0l1.12-3.57a.54.54,0,0,1,.09-.2.38.38,0,0,1,.19-.07,2.2,2.2,0,0,1,.45,0,2.42,2.42,0,0,1,.42,0A.45.45,0,0,1,67,50a.21.21,0,0,1,.08.18.85.85,0,0,1,0,.25Z"/><path class="cls-5" d="M74.58,54.52a1.85,1.85,0,0,1,0,.25.72.72,0,0,1,0,.17.34.34,0,0,1,0,.12.35.35,0,0,1-.09.11,1.63,1.63,0,0,1-.24.16,2.69,2.69,0,0,1-.38.18,3.37,3.37,0,0,1-.48.12,3.31,3.31,0,0,1-1.59-.14,2,2,0,0,1-.78-.56,2.45,2.45,0,0,1-.48-.89,4.36,4.36,0,0,1-.16-1.2,4.19,4.19,0,0,1,.2-1.36,2.49,2.49,0,0,1,.55-.94,2.14,2.14,0,0,1,.83-.56,3,3,0,0,1,1-.18,2.32,2.32,0,0,1,.46,0,2.58,2.58,0,0,1,.42.11,2.29,2.29,0,0,1,.35.16,1,1,0,0,1,.22.15.27.27,0,0,1,.09.11.36.36,0,0,1,0,.11q0,.08,0,.18c0,.06,0,.15,0,.24a1.32,1.32,0,0,1-.06.48c0,.09-.09.14-.15.14a.42.42,0,0,1-.22-.08,2,2,0,0,0-.26-.18,2,2,0,0,0-.36-.19A1.5,1.5,0,0,0,73,51a1,1,0,0,0-.88.44,2.25,2.25,0,0,0-.31,1.3,3.22,3.22,0,0,0,.08.74,1.69,1.69,0,0,0,.22.54.92.92,0,0,0,.38.33,1.21,1.21,0,0,0,.52.11,1.4,1.4,0,0,0,.53-.09,2.7,2.7,0,0,0,.38-.21,2.37,2.37,0,0,0,.27-.2.35.35,0,0,1,.19-.09.12.12,0,0,1,.09,0,.36.36,0,0,1,.06.11s0,.12,0,.2A2.92,2.92,0,0,1,74.58,54.52Z"/><path class="cls-5" d="M80.87,52.68a3.91,3.91,0,0,1-.18,1.22,2.6,2.6,0,0,1-.53,1,2.39,2.39,0,0,1-.9.61,3.26,3.26,0,0,1-1.26.22,3.45,3.45,0,0,1-1.21-.19,2.22,2.22,0,0,1-.85-.56,2.32,2.32,0,0,1-.51-.91,4.22,4.22,0,0,1-.16-1.23,3.91,3.91,0,0,1,.18-1.22,2.54,2.54,0,0,1,.54-1,2.28,2.28,0,0,1,.89-.61,3.17,3.17,0,0,1,1.25-.22,3.68,3.68,0,0,1,1.22.19,2.22,2.22,0,0,1,.85.56,2.3,2.3,0,0,1,.5.91A4.2,4.2,0,0,1,80.87,52.68Zm-1.52.06a4,4,0,0,0-.06-.71,1.56,1.56,0,0,0-.21-.56,1.09,1.09,0,0,0-.39-.38,1.23,1.23,0,0,0-.61-.13,1.26,1.26,0,0,0-.57.12,1,1,0,0,0-.41.35,1.72,1.72,0,0,0-.23.55,2.85,2.85,0,0,0-.08.74,4,4,0,0,0,.06.72,1.63,1.63,0,0,0,.21.56.93.93,0,0,0,.39.37,1.25,1.25,0,0,0,.61.13,1.34,1.34,0,0,0,.58-.12A1,1,0,0,0,79,54a1.57,1.57,0,0,0,.23-.56A3.22,3.22,0,0,0,79.35,52.74Zm-1-5.18a.48.48,0,0,1,.09-.11.52.52,0,0,1,.15-.07l.22,0h.33l.43,0a.71.71,0,0,1,.22.07.12.12,0,0,1,.06.1.17.17,0,0,1-.06.12L78.67,49l-.1.1-.12.06-.18,0H78l-.33,0a.34.34,0,0,1-.17-.06.08.08,0,0,1,0-.09.24.24,0,0,1,.06-.14Z"/><path class="cls-5" d="M90.34,55.35a.18.18,0,0,1,0,.1.22.22,0,0,1-.12.07.8.8,0,0,1-.22,0h-.72a.9.9,0,0,1-.22,0,.22.22,0,0,1-.12-.07.17.17,0,0,1,0-.1v-3.1a2.44,2.44,0,0,0-.05-.48,1.58,1.58,0,0,0-.15-.37.85.85,0,0,0-.26-.24.75.75,0,0,0-.37-.09.88.88,0,0,0-.54.21,3.35,3.35,0,0,0-.58.6v3.47a.13.13,0,0,1,0,.1.22.22,0,0,1-.12.07.9.9,0,0,1-.22,0h-.71l-.23,0a.35.35,0,0,1-.12-.07.17.17,0,0,1,0-.1v-3.1a2.44,2.44,0,0,0,0-.48,1,1,0,0,0-.15-.37.75.75,0,0,0-.26-.24.72.72,0,0,0-.37-.09.85.85,0,0,0-.53.21,3,3,0,0,0-.58.6v3.47a.18.18,0,0,1,0,.1.22.22,0,0,1-.12.07,1,1,0,0,1-.22,0h-.72a.9.9,0,0,1-.22,0,.22.22,0,0,1-.12-.07.13.13,0,0,1,0-.1V50.13a.2.2,0,0,1,0-.11.19.19,0,0,1,.11-.07l.19,0,.3,0,.31,0a.61.61,0,0,1,.19,0,.2.2,0,0,1,.1.07.2.2,0,0,1,0,.11v.6a3.48,3.48,0,0,1,.86-.7,1.84,1.84,0,0,1,.9-.24,2.49,2.49,0,0,1,.58.07,1.59,1.59,0,0,1,.46.19,1.72,1.72,0,0,1,.35.3,1.47,1.47,0,0,1,.24.4,4.62,4.62,0,0,1,.46-.44,2.28,2.28,0,0,1,.45-.29,2,2,0,0,1,.44-.17,1.63,1.63,0,0,1,.45-.06,1.93,1.93,0,0,1,.87.18,1.59,1.59,0,0,1,.58.47,1.9,1.9,0,0,1,.31.71,3.38,3.38,0,0,1,.1.86Z"/><path class="cls-5" d="M97.06,52.68a4.23,4.23,0,0,1-.17,1.22,2.62,2.62,0,0,1-.54,1,2.36,2.36,0,0,1-.89.61,3.26,3.26,0,0,1-1.26.22A3.42,3.42,0,0,1,93,55.49a2.25,2.25,0,0,1-.86-.56,2.43,2.43,0,0,1-.5-.91,4.63,4.63,0,0,1,0-2.45,2.54,2.54,0,0,1,.54-1,2.44,2.44,0,0,1,.89-.61,3.26,3.26,0,0,1,1.26-.22,3.72,3.72,0,0,1,1.22.19,2.29,2.29,0,0,1,.85.56,2.43,2.43,0,0,1,.5.91A4.22,4.22,0,0,1,97.06,52.68Zm-1.51.06a3.23,3.23,0,0,0-.07-.71,1.76,1.76,0,0,0-.2-.56,1.09,1.09,0,0,0-.39-.38,1.25,1.25,0,0,0-.61-.13,1.34,1.34,0,0,0-.58.12,1,1,0,0,0-.4.35,1.53,1.53,0,0,0-.24.55,3.36,3.36,0,0,0-.08.74,3.26,3.26,0,0,0,.07.72,1.85,1.85,0,0,0,.2.56,1.06,1.06,0,0,0,.39.37,1.28,1.28,0,0,0,.61.13,1.31,1.31,0,0,0,.58-.12,1,1,0,0,0,.41-.34,1.78,1.78,0,0,0,.23-.56A3.22,3.22,0,0,0,95.55,52.74Z"/><path class="cls-5" d="M105.92,55.35a.17.17,0,0,1,0,.1.27.27,0,0,1-.12.07.9.9,0,0,1-.22,0h-.72a.9.9,0,0,1-.22,0,.22.22,0,0,1-.12-.07.18.18,0,0,1,0-.1v-3a2.43,2.43,0,0,0,0-.6,1.25,1.25,0,0,0-.16-.37.78.78,0,0,0-.27-.24.86.86,0,0,0-.39-.09,1,1,0,0,0-.57.21,3.07,3.07,0,0,0-.6.6v3.47a.17.17,0,0,1,0,.1.35.35,0,0,1-.12.07l-.23,0h-.71a1,1,0,0,1-.23,0,.22.22,0,0,1-.12-.07.17.17,0,0,1,0-.1V50.13a.2.2,0,0,1,0-.11.2.2,0,0,1,.1-.07l.2,0,.3,0,.31,0,.19,0a.26.26,0,0,1,.1.07.2.2,0,0,1,0,.11v.6a3.25,3.25,0,0,1,.89-.7,1.92,1.92,0,0,1,.93-.24,2.06,2.06,0,0,1,.9.18,1.62,1.62,0,0,1,.59.47,1.91,1.91,0,0,1,.32.71,3.91,3.91,0,0,1,.1,1Z"/><path class="cls-5" d="M112.65,52.68a3.91,3.91,0,0,1-.18,1.22,2.46,2.46,0,0,1-.53,1,2.39,2.39,0,0,1-.9.61,3.17,3.17,0,0,1-1.25.22,3.47,3.47,0,0,1-1.22-.19A2.14,2.14,0,0,1,107.22,54a4.2,4.2,0,0,1-.17-1.23,3.91,3.91,0,0,1,.18-1.22,2.54,2.54,0,0,1,.54-1,2.28,2.28,0,0,1,.89-.61,3.24,3.24,0,0,1,1.25-.22,3.68,3.68,0,0,1,1.22.19,2.14,2.14,0,0,1,.85.56,2.32,2.32,0,0,1,.51.91A4.58,4.58,0,0,1,112.65,52.68Zm-1.52.06a4,4,0,0,0-.06-.71,1.56,1.56,0,0,0-.21-.56,1,1,0,0,0-.39-.38,1.23,1.23,0,0,0-.61-.13,1.26,1.26,0,0,0-.57.12.91.91,0,0,0-.4.35,1.53,1.53,0,0,0-.24.55,3.36,3.36,0,0,0-.08.74,4,4,0,0,0,.06.72,2.17,2.17,0,0,0,.21.56,1.06,1.06,0,0,0,.39.37,1.25,1.25,0,0,0,.61.13,1.34,1.34,0,0,0,.58-.12,1,1,0,0,0,.4-.34,1.58,1.58,0,0,0,.24-.56A3.26,3.26,0,0,0,111.13,52.74Z"/><path class="cls-5" d="M117.49,53.87a1.8,1.8,0,0,1-.17.79,1.59,1.59,0,0,1-.47.56,2,2,0,0,1-.72.35,3.7,3.7,0,0,1-.9.11,3.36,3.36,0,0,1-.56,0,4.32,4.32,0,0,1-.48-.11l-.35-.14a1,1,0,0,1-.2-.13.34.34,0,0,1-.1-.2,1.65,1.65,0,0,1,0-.39,1.87,1.87,0,0,1,0-.27.35.35,0,0,1,0-.16s0-.07.06-.08,0,0,.09,0a.44.44,0,0,1,.19.07l.31.16a2.75,2.75,0,0,0,.44.16,1.89,1.89,0,0,0,.56.08,1.25,1.25,0,0,0,.35,0,.85.85,0,0,0,.27-.12.47.47,0,0,0,.18-.19.6.6,0,0,0,.06-.27.44.44,0,0,0-.11-.3.93.93,0,0,0-.29-.22l-.4-.18-.47-.18a3.29,3.29,0,0,1-.46-.23,1.72,1.72,0,0,1-.4-.31,1.51,1.51,0,0,1-.29-.45,1.75,1.75,0,0,1-.11-.64,1.54,1.54,0,0,1,.15-.68,1.58,1.58,0,0,1,.42-.54,1.92,1.92,0,0,1,.67-.34,2.73,2.73,0,0,1,.89-.13,2.42,2.42,0,0,1,.47,0,2.2,2.2,0,0,1,.42.09,1.69,1.69,0,0,1,.32.11l.18.1a.22.22,0,0,1,.08.09.36.36,0,0,1,0,.11,1,1,0,0,0,0,.15c0,.06,0,.14,0,.23s0,.19,0,.25a1.57,1.57,0,0,1,0,.16s0,.07-.06.08l-.08,0a.4.4,0,0,1-.16-.06,2.51,2.51,0,0,0-.28-.13,2.54,2.54,0,0,0-.39-.13,1.51,1.51,0,0,0-.5-.07,1.11,1.11,0,0,0-.34.05.53.53,0,0,0-.24.11.4.4,0,0,0-.14.18.54.54,0,0,0,0,.22.44.44,0,0,0,.11.3.93.93,0,0,0,.29.22l.42.18a4.37,4.37,0,0,1,.46.18,2.86,2.86,0,0,1,.47.22,1.87,1.87,0,0,1,.42.32,1.53,1.53,0,0,1,.29.44A1.67,1.67,0,0,1,117.49,53.87Z"/><path class="cls-5" d="M17.34,60.58a2.1,2.1,0,0,1,0,.27.53.53,0,0,1,0,.16.16.16,0,0,1-.05.08l-.06,0-.1,0L17,61l-.17,0a.86.86,0,0,0-.23,0,.61.61,0,0,0-.28.05.45.45,0,0,0-.19.15.76.76,0,0,0-.11.29,2.42,2.42,0,0,0,0,.42v.48h.95a.17.17,0,0,1,.1,0,.2.2,0,0,1,.07.1.6.6,0,0,1,0,.18,2.19,2.19,0,0,1,0,.29,1.3,1.3,0,0,1-.06.46.19.19,0,0,1-.17.13H16v4.23a.18.18,0,0,1,0,.1.23.23,0,0,1-.12.08,1,1,0,0,1-.22,0h-.72a1,1,0,0,1-.22,0,.23.23,0,0,1-.12-.08.17.17,0,0,1,0-.1V63.56h-.66a.19.19,0,0,1-.17-.13A1.67,1.67,0,0,1,13.6,63a2.44,2.44,0,0,1,0-.29,1.27,1.27,0,0,1,0-.18.21.21,0,0,1,.08-.1.15.15,0,0,1,.1,0h.65v-.44a3.68,3.68,0,0,1,.1-.93,1.68,1.68,0,0,1,.33-.67,1.34,1.34,0,0,1,.58-.4,2.23,2.23,0,0,1,.82-.14,2.86,2.86,0,0,1,.43,0l.32.08a.45.45,0,0,1,.16.09.23.23,0,0,1,.07.11.78.78,0,0,1,0,.19A2.27,2.27,0,0,1,17.34,60.58Z"/><path class="cls-5" d="M22.24,67.81a.18.18,0,0,1-.06.13A.38.38,0,0,1,22,68a2,2,0,0,1-.38,0,1.9,1.9,0,0,1-.38,0,.3.3,0,0,1-.17-.06.21.21,0,0,1-.05-.13v-.42a2.39,2.39,0,0,1-.73.54,2.13,2.13,0,0,1-.92.19,2.59,2.59,0,0,1-.76-.1,1.71,1.71,0,0,1-.61-.33,1.38,1.38,0,0,1-.39-.53,1.92,1.92,0,0,1,0-1.53,1.4,1.4,0,0,1,.53-.55,2.53,2.53,0,0,1,.88-.33,6.33,6.33,0,0,1,1.22-.1h.51v-.32a1.41,1.41,0,0,0-.05-.43.76.76,0,0,0-.16-.31.73.73,0,0,0-.31-.18,1.53,1.53,0,0,0-.47-.06,2.17,2.17,0,0,0-.65.09,2.86,2.86,0,0,0-.52.18,2.57,2.57,0,0,0-.37.18.6.6,0,0,1-.24.08.19.19,0,0,1-.12,0,.36.36,0,0,1-.08-.12.74.74,0,0,1-.05-.19,1.66,1.66,0,0,1,0-.24,1.12,1.12,0,0,1,0-.29.44.44,0,0,1,.12-.19,1.31,1.31,0,0,1,.28-.19c.14-.06.3-.13.48-.19l.6-.14a3.71,3.71,0,0,1,.67,0,4,4,0,0,1,1.05.12,1.87,1.87,0,0,1,.72.36,1.47,1.47,0,0,1,.41.64,3.28,3.28,0,0,1,.13.94Zm-1.45-2.24h-.56a3.49,3.49,0,0,0-.61.05,1.3,1.3,0,0,0-.41.16A.71.71,0,0,0,19,66a.74.74,0,0,0-.07.34.64.64,0,0,0,.21.51.79.79,0,0,0,.57.19,1,1,0,0,0,.57-.16,2.18,2.18,0,0,0,.53-.46Z"/><path class="cls-5" d="M27.66,67a1.78,1.78,0,0,1,0,.25c0,.07,0,.13,0,.18a.36.36,0,0,1,0,.11.27.27,0,0,1-.09.11,1.54,1.54,0,0,1-.24.17,2.4,2.4,0,0,1-.39.17,2.93,2.93,0,0,1-.47.12,3,3,0,0,1-.52.05,2.76,2.76,0,0,1-1.07-.19,2,2,0,0,1-.78-.55,2.5,2.5,0,0,1-.48-.9,4,4,0,0,1-.16-1.2,4.24,4.24,0,0,1,.2-1.36,2.49,2.49,0,0,1,.55-.94,2.14,2.14,0,0,1,.83-.56A3,3,0,0,1,26,62.24a3.42,3.42,0,0,1,.46,0l.42.11a2.29,2.29,0,0,1,.35.16,1,1,0,0,1,.22.15l.09.11a.34.34,0,0,1,0,.12s0,.1,0,.17,0,.15,0,.25a1.29,1.29,0,0,1-.06.47c0,.1-.09.14-.16.14a.43.43,0,0,1-.21-.08L27,63.7a1.51,1.51,0,0,0-.36-.18,1.3,1.3,0,0,0-.51-.08,1,1,0,0,0-.87.44,2.19,2.19,0,0,0-.31,1.29,3.38,3.38,0,0,0,.08.75,1.65,1.65,0,0,0,.22.54,1,1,0,0,0,.38.32,1.21,1.21,0,0,0,.52.11,1.44,1.44,0,0,0,.53-.09,2.69,2.69,0,0,0,.38-.2l.27-.21a.35.35,0,0,1,.19-.09.12.12,0,0,1,.09,0,.23.23,0,0,1,.05.11.88.88,0,0,1,0,.2C27.65,66.72,27.66,66.83,27.66,67Z"/><path class="cls-5" d="M30.31,60.8a.85.85,0,0,1-.18.62,1,1,0,0,1-.68.17,1,1,0,0,1-.67-.17.81.81,0,0,1-.17-.59.85.85,0,0,1,.18-.62,1,1,0,0,1,.68-.17,1,1,0,0,1,.66.17A.79.79,0,0,1,30.31,60.8Zm-.11,7a.13.13,0,0,1,0,.1A.23.23,0,0,1,30,68a1,1,0,0,1-.22,0H29.1l-.22,0a.23.23,0,0,1-.12-.08.18.18,0,0,1,0-.1V62.58a.18.18,0,0,1,0-.1.23.23,0,0,1,.12-.08,1,1,0,0,1,.22,0l.36,0,.36,0a.9.9,0,0,1,.22,0,.23.23,0,0,1,.12.08.13.13,0,0,1,0,.1Z"/><path class="cls-5" d="M33.14,67.79a.17.17,0,0,1,0,.1A.36.36,0,0,1,33,68l-.23,0h-.71l-.23,0a.36.36,0,0,1-.12-.08.17.17,0,0,1,0-.1v-7.7a.17.17,0,0,1,0-.1.36.36,0,0,1,.12-.08,1,1,0,0,1,.23,0l.35,0,.36,0a1,1,0,0,1,.23,0,.36.36,0,0,1,.12.08.17.17,0,0,1,0,.1Z"/><path class="cls-5" d="M36.2,60.8a.85.85,0,0,1-.18.62,1,1,0,0,1-.68.17,1,1,0,0,1-.67-.17.81.81,0,0,1-.17-.59.85.85,0,0,1,.18-.62,1,1,0,0,1,.68-.17,1,1,0,0,1,.66.17A.79.79,0,0,1,36.2,60.8Zm-.11,7a.13.13,0,0,1,0,.1.23.23,0,0,1-.12.08,1,1,0,0,1-.22,0H35a1,1,0,0,1-.22,0,.23.23,0,0,1-.12-.08.13.13,0,0,1,0-.1V62.58a.13.13,0,0,1,0-.1.23.23,0,0,1,.12-.08.9.9,0,0,1,.22,0l.36,0,.36,0a.9.9,0,0,1,.22,0,.23.23,0,0,1,.12.08.13.13,0,0,1,0,.1Z"/><path class="cls-5" d="M40.65,67.28a1.33,1.33,0,0,1,0,.39.34.34,0,0,1-.08.19.49.49,0,0,1-.16.1,1,1,0,0,1-.24.08l-.29,0-.33,0a2.2,2.2,0,0,1-.76-.12,1.19,1.19,0,0,1-.53-.34,1.35,1.35,0,0,1-.31-.58,2.9,2.9,0,0,1-.1-.83V63.56h-.63a.19.19,0,0,1-.17-.13A1.3,1.3,0,0,1,37,63a2.19,2.19,0,0,1,0-.29.6.6,0,0,1,0-.18.21.21,0,0,1,.08-.1.15.15,0,0,1,.1,0h.62V61.21a.2.2,0,0,1,0-.11A.23.23,0,0,1,38,61a.89.89,0,0,1,.23-.05h.71a.8.8,0,0,1,.22.05.23.23,0,0,1,.12.08.15.15,0,0,1,0,.11v1.16h1.13a.2.2,0,0,1,.11,0,.29.29,0,0,1,.07.1.6.6,0,0,1,0,.18,2.19,2.19,0,0,1,0,.29,1.3,1.3,0,0,1-.06.46.19.19,0,0,1-.17.13H39.28V66a1.25,1.25,0,0,0,.13.64.53.53,0,0,0,.48.21l.21,0,.17,0,.12,0a.18.18,0,0,1,.09,0,.08.08,0,0,1,.07,0,.12.12,0,0,1,.05.08s0,.1,0,.17A1.87,1.87,0,0,1,40.65,67.28Z"/><path class="cls-5" d="M46,67.81a.18.18,0,0,1-.06.13.38.38,0,0,1-.18.06,1.84,1.84,0,0,1-.37,0A2,2,0,0,1,45,68a.27.27,0,0,1-.16-.06.17.17,0,0,1-.05-.13v-.42a2.43,2.43,0,0,1-.74.54,2.1,2.1,0,0,1-.92.19,2.64,2.64,0,0,1-.76-.1,1.75,1.75,0,0,1-.6-.33,1.52,1.52,0,0,1-.4-.53,1.83,1.83,0,0,1-.14-.73,1.69,1.69,0,0,1,.18-.8,1.47,1.47,0,0,1,.53-.55,2.61,2.61,0,0,1,.88-.33,6.44,6.44,0,0,1,1.23-.1h.51v-.32a1.81,1.81,0,0,0-.05-.43.78.78,0,0,0-.17-.31.64.64,0,0,0-.3-.18,1.58,1.58,0,0,0-.47-.06,2.19,2.19,0,0,0-.66.09,3,3,0,0,0-.51.18,2.57,2.57,0,0,0-.37.18.59.59,0,0,1-.25.08.15.15,0,0,1-.11,0,.36.36,0,0,1-.08-.12.74.74,0,0,1-.05-.19,1.66,1.66,0,0,1,0-.24,1.12,1.12,0,0,1,0-.29.52.52,0,0,1,.11-.19,1.19,1.19,0,0,1,.29-.19,4,4,0,0,1,.48-.19c.18,0,.38-.1.6-.14a3.64,3.64,0,0,1,.67,0,4,4,0,0,1,1,.12,1.76,1.76,0,0,1,.71.36,1.39,1.39,0,0,1,.41.64,3,3,0,0,1,.13.94ZM44.6,65.57H44a3.4,3.4,0,0,0-.61.05,1.21,1.21,0,0,0-.41.16.57.57,0,0,0-.23.26.74.74,0,0,0-.08.34.64.64,0,0,0,.21.51.81.81,0,0,0,.58.19,1.07,1.07,0,0,0,.57-.16,2.38,2.38,0,0,0,.53-.46Z"/><path class="cls-5" d="M51.7,67.79a.13.13,0,0,1,0,.1.23.23,0,0,1-.12.08,1,1,0,0,1-.22,0H50.6a1,1,0,0,1-.22,0,.23.23,0,0,1-.12-.08.13.13,0,0,1,0-.1v-7.7a.13.13,0,0,1,0-.1.23.23,0,0,1,.12-.08.9.9,0,0,1,.22,0l.36,0,.36,0a.9.9,0,0,1,.22,0,.23.23,0,0,1,.12.08.13.13,0,0,1,0,.1Z"/><path class="cls-5" d="M57.61,67.81a.17.17,0,0,1,0,.13.38.38,0,0,1-.19.06,3.53,3.53,0,0,1-.75,0,.3.3,0,0,1-.17-.06.17.17,0,0,1-.05-.13v-.42a2.43,2.43,0,0,1-.74.54,2.09,2.09,0,0,1-.91.19A2.71,2.71,0,0,1,54,68a1.75,1.75,0,0,1-.6-.33,1.38,1.38,0,0,1-.39-.53,2,2,0,0,1,0-1.53,1.42,1.42,0,0,1,.54-.55,2.53,2.53,0,0,1,.88-.33,6.33,6.33,0,0,1,1.22-.1h.51v-.32a1.81,1.81,0,0,0-.05-.43.76.76,0,0,0-.16-.31.73.73,0,0,0-.31-.18,1.53,1.53,0,0,0-.47-.06,2.19,2.19,0,0,0-.66.09,3,3,0,0,0-.51.18,2.57,2.57,0,0,0-.37.18.6.6,0,0,1-.24.08.16.16,0,0,1-.12,0,.36.36,0,0,1-.08-.12.74.74,0,0,1-.05-.19,1.66,1.66,0,0,1,0-.24,1.12,1.12,0,0,1,0-.29.52.52,0,0,1,.11-.19,1.44,1.44,0,0,1,.29-.19c.14-.06.3-.13.48-.19s.38-.1.6-.14a3.71,3.71,0,0,1,.67,0,4,4,0,0,1,1,.12,1.87,1.87,0,0,1,.72.36,1.57,1.57,0,0,1,.41.64,3.3,3.3,0,0,1,.12.94Zm-1.44-2.24h-.56a3.49,3.49,0,0,0-.61.05,1.21,1.21,0,0,0-.41.16.63.63,0,0,0-.23.26.74.74,0,0,0-.08.34.64.64,0,0,0,.21.51.81.81,0,0,0,.58.19,1,1,0,0,0,.57-.16,2.38,2.38,0,0,0,.53-.46Z"/><path class="cls-5" d="M62.76,66.32a1.79,1.79,0,0,1-.17.78,1.52,1.52,0,0,1-.47.57,2.18,2.18,0,0,1-.72.34,3.22,3.22,0,0,1-.9.11,3.43,3.43,0,0,1-.56,0,4.11,4.11,0,0,1-.47-.11,2.73,2.73,0,0,1-.36-.14,1,1,0,0,1-.2-.13.43.43,0,0,1-.1-.19,1.92,1.92,0,0,1,0-.39,2.18,2.18,0,0,1,0-.28.65.65,0,0,1,0-.16.18.18,0,0,1,.06-.08l.09,0a.44.44,0,0,1,.19.07l.31.16a3.12,3.12,0,0,0,.44.17,1.91,1.91,0,0,0,.56.07,1.37,1.37,0,0,0,.36,0,1.11,1.11,0,0,0,.27-.12.52.52,0,0,0,.17-.19.6.6,0,0,0,.06-.27.46.46,0,0,0-.11-.3,1,1,0,0,0-.29-.22,3,3,0,0,0-.4-.17l-.46-.19a4,4,0,0,1-.47-.22,2.08,2.08,0,0,1-.4-.32,1.51,1.51,0,0,1-.29-.45,1.73,1.73,0,0,1-.11-.63,1.57,1.57,0,0,1,.57-1.23,2.22,2.22,0,0,1,.67-.34,3.09,3.09,0,0,1,.89-.12,3.87,3.87,0,0,1,.48,0,2.26,2.26,0,0,1,.41.09,1.69,1.69,0,0,1,.32.11.63.63,0,0,1,.18.11.22.22,0,0,1,.08.09.23.23,0,0,1,0,.1s0,.09,0,.15,0,.14,0,.23,0,.19,0,.26a1.3,1.3,0,0,1,0,.15.1.1,0,0,1-.06.08.11.11,0,0,1-.08,0,.4.4,0,0,1-.16-.06l-.28-.13a2.54,2.54,0,0,0-.39-.13,1.85,1.85,0,0,0-.5-.06,1.18,1.18,0,0,0-.34,0,.54.54,0,0,0-.24.12.55.55,0,0,0-.14.17.59.59,0,0,0-.05.22.47.47,0,0,0,.11.31,1,1,0,0,0,.3.21,2,2,0,0,0,.41.18l.47.18a4.81,4.81,0,0,1,.46.22,1.67,1.67,0,0,1,.42.32,1.45,1.45,0,0,1,.29.45A1.64,1.64,0,0,1,62.76,66.32Z"/><path class="cls-5" d="M68.05,67.79a.17.17,0,0,1,0,.1.36.36,0,0,1-.12.08l-.23,0H67l-.23,0a.36.36,0,0,1-.12-.08.17.17,0,0,1,0-.1v-7.7a.17.17,0,0,1,0-.1.36.36,0,0,1,.12-.08,1,1,0,0,1,.23,0l.35,0,.36,0a1,1,0,0,1,.23,0A.36.36,0,0,1,68,60a.17.17,0,0,1,0,.1Z"/><path class="cls-5" d="M74,67.81a.18.18,0,0,1-.06.13.38.38,0,0,1-.18.06,1.89,1.89,0,0,1-.37,0A2,2,0,0,1,73,68a.34.34,0,0,1-.17-.06.21.21,0,0,1,0-.13v-.42a2.39,2.39,0,0,1-.73.54,2.13,2.13,0,0,1-.92.19,2.59,2.59,0,0,1-.76-.1,1.66,1.66,0,0,1-.6-.33,1.41,1.41,0,0,1-.4-.53,1.83,1.83,0,0,1-.14-.73,1.69,1.69,0,0,1,.18-.8,1.4,1.4,0,0,1,.53-.55,2.61,2.61,0,0,1,.88-.33,6.33,6.33,0,0,1,1.22-.1h.51v-.32a1.41,1.41,0,0,0,0-.43.66.66,0,0,0-.16-.31.75.75,0,0,0-.3-.18,1.65,1.65,0,0,0-.48-.06,2.17,2.17,0,0,0-.65.09,2.86,2.86,0,0,0-.52.18,3.21,3.21,0,0,0-.37.18.6.6,0,0,1-.24.08.15.15,0,0,1-.11,0,.27.27,0,0,1-.09-.12,1.67,1.67,0,0,1,0-.19,1.77,1.77,0,0,1,0-.24,1.12,1.12,0,0,1,0-.29.34.34,0,0,1,.11-.19,1.31,1.31,0,0,1,.28-.19c.14-.06.3-.13.48-.19l.6-.14a3.71,3.71,0,0,1,.67,0,4,4,0,0,1,1,.12,1.87,1.87,0,0,1,.72.36,1.39,1.39,0,0,1,.41.64,3,3,0,0,1,.13.94Zm-1.45-2.24H72a3.49,3.49,0,0,0-.61.05,1.4,1.4,0,0,0-.41.16.71.71,0,0,0-.23.26.74.74,0,0,0-.07.34.64.64,0,0,0,.21.51.8.8,0,0,0,.57.19,1,1,0,0,0,.57-.16,2.18,2.18,0,0,0,.53-.46Z"/><path class="cls-5" d="M80.69,65.11a4.81,4.81,0,0,1-.15,1.25,2.69,2.69,0,0,1-.44,1,1.92,1.92,0,0,1-.7.6,2.11,2.11,0,0,1-1,.21,1.89,1.89,0,0,1-.49-.05,1.37,1.37,0,0,1-.44-.16,1.76,1.76,0,0,1-.41-.28,4,4,0,0,1-.41-.41v.57a.2.2,0,0,1,0,.11.3.3,0,0,1-.11.07l-.2,0h-.6l-.19,0a.2.2,0,0,1-.1-.07.2.2,0,0,1,0-.11v-7.7a.17.17,0,0,1,0-.1.36.36,0,0,1,.12-.08l.23,0,.36,0,.35,0a1,1,0,0,1,.23,0,.23.23,0,0,1,.12.08.17.17,0,0,1,0,.1V63a3.82,3.82,0,0,1,.4-.34,2.73,2.73,0,0,1,.4-.23,1.51,1.51,0,0,1,.41-.13,2.15,2.15,0,0,1,.45,0,1.9,1.9,0,0,1,1,.23,1.87,1.87,0,0,1,.66.62,2.82,2.82,0,0,1,.37.92A4.89,4.89,0,0,1,80.69,65.11Zm-1.52.1a4.48,4.48,0,0,0,0-.64,1.78,1.78,0,0,0-.18-.55,1,1,0,0,0-.31-.38.8.8,0,0,0-.5-.15,1.26,1.26,0,0,0-.28,0,1.11,1.11,0,0,0-.29.14,2.38,2.38,0,0,0-.31.26,4.75,4.75,0,0,0-.34.39v1.74a3.38,3.38,0,0,0,.6.6,1,1,0,0,0,.59.21.79.79,0,0,0,.49-.15,1.12,1.12,0,0,0,.33-.38,1.66,1.66,0,0,0,.19-.53A3.05,3.05,0,0,0,79.17,65.21Z"/><path class="cls-5" d="M87.15,65.13A4.16,4.16,0,0,1,87,66.34a2.54,2.54,0,0,1-.54,1,2.38,2.38,0,0,1-.89.62,3.47,3.47,0,0,1-1.26.21,3.38,3.38,0,0,1-1.21-.19,2.25,2.25,0,0,1-.86-.56,2.43,2.43,0,0,1-.5-.91,4.22,4.22,0,0,1-.16-1.23A4,4,0,0,1,81.73,64a2.62,2.62,0,0,1,.54-1,2.57,2.57,0,0,1,.89-.61,3.95,3.95,0,0,1,2.48,0,2.16,2.16,0,0,1,.85.55,2.43,2.43,0,0,1,.5.91A4.24,4.24,0,0,1,87.15,65.13Zm-1.51.06a4,4,0,0,0-.07-.72,1.85,1.85,0,0,0-.2-.56,1.09,1.09,0,0,0-.39-.38,1.27,1.27,0,0,0-.62-.13,1.32,1.32,0,0,0-.57.12,1,1,0,0,0-.4.35,1.58,1.58,0,0,0-.24.56,3.22,3.22,0,0,0-.08.74,3.17,3.17,0,0,0,.07.71,1.76,1.76,0,0,0,.2.56,1.09,1.09,0,0,0,.39.38,1.41,1.41,0,0,0,.61.13,1.31,1.31,0,0,0,.58-.12,1,1,0,0,0,.4-.35,1.53,1.53,0,0,0,.24-.55A3.36,3.36,0,0,0,85.64,65.19Z"/><path class="cls-5" d="M91.67,63.05c0,.14,0,.26,0,.35a.87.87,0,0,1,0,.21.17.17,0,0,1-.06.11.14.14,0,0,1-.09,0,.23.23,0,0,1-.11,0l-.13,0-.16,0a.65.65,0,0,0-.2,0,.52.52,0,0,0-.24.05,1,1,0,0,0-.26.15,2.44,2.44,0,0,0-.27.28,3.64,3.64,0,0,0-.31.44v3.25a.17.17,0,0,1,0,.1.36.36,0,0,1-.12.08l-.23,0H88.7l-.23,0a.23.23,0,0,1-.12-.08.17.17,0,0,1,0-.1V62.57a.2.2,0,0,1,.13-.18.88.88,0,0,1,.2,0l.3,0,.31,0,.19,0a.27.27,0,0,1,.1.08.16.16,0,0,1,0,.1v.65a3.63,3.63,0,0,1,.39-.48,2.36,2.36,0,0,1,.35-.31,1.3,1.3,0,0,1,.32-.15,1.24,1.24,0,0,1,.33,0h.17l.18,0,.16,0,.1.06a.13.13,0,0,1,.05.06.62.62,0,0,1,0,.1s0,.1,0,.18A3,3,0,0,1,91.67,63.05Z"/><path class="cls-5" d="M97.27,65a.58.58,0,0,1-.12.4.45.45,0,0,1-.33.12H93.64a1.92,1.92,0,0,0,.08.61,1,1,0,0,0,.25.46,1,1,0,0,0,.44.29,1.83,1.83,0,0,0,.66.1,4.36,4.36,0,0,0,.67-.05,3.75,3.75,0,0,0,.51-.13l.36-.12a.56.56,0,0,1,.22-.06l.09,0a.28.28,0,0,1,.06.08.43.43,0,0,1,0,.15,1.63,1.63,0,0,1,0,.24,1.41,1.41,0,0,1,0,.22c0,.06,0,.11,0,.15a.28.28,0,0,1,0,.11.24.24,0,0,1-.06.09.72.72,0,0,1-.21.11,3.11,3.11,0,0,1-.43.14c-.18,0-.38.08-.6.11a4.26,4.26,0,0,1-.73.05A3.79,3.79,0,0,1,93.71,68a2.24,2.24,0,0,1-.87-.53,2.21,2.21,0,0,1-.53-.91,4.34,4.34,0,0,1-.17-1.27A4.12,4.12,0,0,1,92.32,64a2.66,2.66,0,0,1,.53-.95,2.29,2.29,0,0,1,.84-.59,2.82,2.82,0,0,1,1.11-.2,2.88,2.88,0,0,1,1.12.19,2.16,2.16,0,0,1,.77.53,2.27,2.27,0,0,1,.44.81,3.75,3.75,0,0,1,.14,1Zm-1.43-.42a1.52,1.52,0,0,0-.25-1,1,1,0,0,0-.82-.35,1.07,1.07,0,0,0-.49.1,1,1,0,0,0-.35.29,1.38,1.38,0,0,0-.21.42,2.1,2.1,0,0,0-.08.52Z"/><path class="cls-5" d="M102.15,66.32a1.78,1.78,0,0,1-.16.78,1.73,1.73,0,0,1-.47.57,2.39,2.39,0,0,1-.72.34,3.29,3.29,0,0,1-.91.11,3.43,3.43,0,0,1-.56,0L98.86,68a2.53,2.53,0,0,1-.35-.14.86.86,0,0,1-.21-.13.56.56,0,0,1-.1-.19,1.92,1.92,0,0,1,0-.39,2.18,2.18,0,0,1,0-.28c0-.06,0-.12,0-.16a.18.18,0,0,1,.06-.08l.09,0a.4.4,0,0,1,.19.07l.31.16a3.12,3.12,0,0,0,.44.17,2,2,0,0,0,.56.07,1.32,1.32,0,0,0,.36,0,1.11,1.11,0,0,0,.27-.12.52.52,0,0,0,.17-.19.6.6,0,0,0,.06-.27.46.46,0,0,0-.11-.3,1,1,0,0,0-.29-.22,3,3,0,0,0-.4-.17l-.46-.19a3.88,3.88,0,0,1-.46-.22,2.15,2.15,0,0,1-.41-.32,1.42,1.42,0,0,1-.39-1.08,1.52,1.52,0,0,1,.56-1.23,2.22,2.22,0,0,1,.67-.34,3.09,3.09,0,0,1,.89-.12,3.75,3.75,0,0,1,.48,0,2.59,2.59,0,0,1,.42.09,1.58,1.58,0,0,1,.31.11,1,1,0,0,1,.19.11l.08.09a.62.62,0,0,1,0,.1.61.61,0,0,1,0,.15,1.55,1.55,0,0,1,0,.23,2,2,0,0,1,0,.26.31.31,0,0,1,0,.15.12.12,0,0,1,0,.08.12.12,0,0,1-.08,0,.43.43,0,0,1-.17-.06l-.28-.13a2.8,2.8,0,0,0-.38-.13,2,2,0,0,0-.5-.06,1.2,1.2,0,0,0-.35,0,.54.54,0,0,0-.24.12.55.55,0,0,0-.14.17.59.59,0,0,0,0,.22.47.47,0,0,0,.11.31,1.14,1.14,0,0,0,.3.21,2.2,2.2,0,0,0,.41.18l.47.18a5,5,0,0,1,.47.22,1.81,1.81,0,0,1,.41.32,1.29,1.29,0,0,1,.29.45A1.46,1.46,0,0,1,102.15,66.32Z"/><path class="cls-5" d="M110.79,65a.58.58,0,0,1-.12.4.45.45,0,0,1-.33.12h-3.18a2.25,2.25,0,0,0,.08.61,1.27,1.27,0,0,0,.25.46,1.06,1.06,0,0,0,.45.29,1.81,1.81,0,0,0,.65.1,4.4,4.4,0,0,0,.68-.05,4.18,4.18,0,0,0,.51-.13l.35-.12a.65.65,0,0,1,.23-.06l.09,0a.28.28,0,0,1,.06.08,1,1,0,0,1,0,.15c0,.06,0,.14,0,.24s0,.16,0,.22a.61.61,0,0,1,0,.15.29.29,0,0,1,0,.11l-.06.09a.91.91,0,0,1-.21.11,3.64,3.64,0,0,1-.43.14c-.18,0-.38.08-.61.11a4.14,4.14,0,0,1-.72.05,3.75,3.75,0,0,1-1.22-.17,2.36,2.36,0,0,1-.88-.53,2.2,2.2,0,0,1-.52-.91,4,4,0,0,1-.17-1.27,4.12,4.12,0,0,1,.18-1.26,2.64,2.64,0,0,1,.52-.95,2.29,2.29,0,0,1,.84-.59,2.83,2.83,0,0,1,1.12-.2,2.88,2.88,0,0,1,1.12.19,2,2,0,0,1,1.2,1.34,3.4,3.4,0,0,1,.14,1Zm-1.43-.42a1.52,1.52,0,0,0-.24-1,1,1,0,0,0-.83-.35,1.1,1.1,0,0,0-.49.1,1.05,1.05,0,0,0-.34.29,1.38,1.38,0,0,0-.21.42,2.09,2.09,0,0,0-.09.52Z"/><path class="cls-5" d="M117,67.79a.17.17,0,0,1,0,.1.36.36,0,0,1-.12.08l-.23,0h-.71l-.23,0a.24.24,0,0,1-.11-.08.13.13,0,0,1,0-.1v-3a3.12,3.12,0,0,0,0-.6,1.38,1.38,0,0,0-.16-.37.81.81,0,0,0-.28-.24.93.93,0,0,0-.39-.08,1,1,0,0,0-.56.2,3.08,3.08,0,0,0-.6.6v3.47a.13.13,0,0,1,0,.1.23.23,0,0,1-.12.08,1,1,0,0,1-.22,0h-.72l-.22,0a.23.23,0,0,1-.12-.08.18.18,0,0,1,0-.1V62.57a.17.17,0,0,1,0-.1.24.24,0,0,1,.11-.08l.19,0,.31,0,.31,0,.19,0a.24.24,0,0,1,.09.08.17.17,0,0,1,0,.1v.6a3.42,3.42,0,0,1,.88-.7,2,2,0,0,1,.94-.23,2.07,2.07,0,0,1,.9.17,1.64,1.64,0,0,1,.59.48,2,2,0,0,1,.32.7,4,4,0,0,1,.1,1Z"/><path class="cls-5" d="M126,65a.58.58,0,0,1-.12.4.45.45,0,0,1-.33.12h-3.18a2.25,2.25,0,0,0,.08.61,1.14,1.14,0,0,0,.25.46,1,1,0,0,0,.45.29,1.81,1.81,0,0,0,.65.1,4.5,4.5,0,0,0,.68-.05,4,4,0,0,0,.5-.13,3,3,0,0,0,.36-.12.6.6,0,0,1,.23-.06l.08,0a.12.12,0,0,1,.06.08.28.28,0,0,1,0,.15,1.63,1.63,0,0,1,0,.24v.22c0,.06,0,.11,0,.15a.28.28,0,0,1,0,.11.24.24,0,0,1-.06.09.62.62,0,0,1-.2.11A3.88,3.88,0,0,1,125,68a6,6,0,0,1-.6.11,4.26,4.26,0,0,1-.73.05,3.79,3.79,0,0,1-1.22-.17,2.24,2.24,0,0,1-.87-.53,2.21,2.21,0,0,1-.53-.91,4.34,4.34,0,0,1-.17-1.27A4.12,4.12,0,0,1,121,64a2.66,2.66,0,0,1,.53-.95,2.29,2.29,0,0,1,.84-.59,2.83,2.83,0,0,1,1.12-.2,2.92,2.92,0,0,1,1.12.19,2,2,0,0,1,1.2,1.34,3.75,3.75,0,0,1,.14,1Zm-1.43-.42a1.52,1.52,0,0,0-.25-1,1,1,0,0,0-.82-.35,1.07,1.07,0,0,0-.49.1,1,1,0,0,0-.34.29,1,1,0,0,0-.21.42,2.09,2.09,0,0,0-.09.52Z"/><path class="cls-5" d="M128.66,67.79a.18.18,0,0,1,0,.1.23.23,0,0,1-.12.08l-.22,0h-.72a1,1,0,0,1-.22,0,.23.23,0,0,1-.12-.08.13.13,0,0,1,0-.1v-7.7a.13.13,0,0,1,0-.1.23.23,0,0,1,.12-.08.9.9,0,0,1,.22,0l.36,0,.36,0a1,1,0,0,1,.22,0,.23.23,0,0,1,.12.08.18.18,0,0,1,0,.1Z"/><path class="cls-5" d="M45.2,74a2.63,2.63,0,0,1,0,.3.78.78,0,0,1,0,.19.36.36,0,0,1-.06.11.17.17,0,0,1-.1,0,.58.58,0,0,1-.24-.11,3.06,3.06,0,0,0-.45-.23,5.18,5.18,0,0,0-.67-.23,3.52,3.52,0,0,0-.91-.1,2.46,2.46,0,0,0-1,.19,2,2,0,0,0-.76.54,2.37,2.37,0,0,0-.49.83,3.4,3.4,0,0,0-.17,1.08,3.35,3.35,0,0,0,.18,1.15,2.27,2.27,0,0,0,.48.83,1.9,1.9,0,0,0,.74.5,2.74,2.74,0,0,0,1,.17,2.22,2.22,0,0,0,.51-.06,2.29,2.29,0,0,0,.46-.17V77.29H42.22c-.07,0-.12,0-.16-.13a1.21,1.21,0,0,1-.06-.45,2.35,2.35,0,0,1,0-.28.58.58,0,0,1,.05-.17.2.2,0,0,1,.07-.1.15.15,0,0,1,.09,0h2.56a.38.38,0,0,1,.16,0,.3.3,0,0,1,.13.09.51.51,0,0,1,.09.16.66.66,0,0,1,0,.21v3a.75.75,0,0,1-.06.31.48.48,0,0,1-.26.21,3.78,3.78,0,0,1-.47.15,4.92,4.92,0,0,1-.58.14,6,6,0,0,1-.61.09c-.2,0-.41,0-.62,0A4.83,4.83,0,0,1,41,80.3a3.18,3.18,0,0,1-1.21-.75A3.3,3.3,0,0,1,39,78.34a4.73,4.73,0,0,1-.26-1.61A4.61,4.61,0,0,1,39,75.06a3.53,3.53,0,0,1,.8-1.26,3.49,3.49,0,0,1,1.24-.8,4.68,4.68,0,0,1,1.63-.27,4.94,4.94,0,0,1,.89.07,5,5,0,0,1,.71.16,2.69,2.69,0,0,1,.5.21,1.64,1.64,0,0,1,.28.19.49.49,0,0,1,.11.23A2.44,2.44,0,0,1,45.2,74Z"/><path class="cls-5" d="M50,75.5a3.33,3.33,0,0,1,0,.34q0,.14,0,.21a.27.27,0,0,1-.06.11.17.17,0,0,1-.1,0l-.11,0-.13,0-.16,0-.19,0a.74.74,0,0,0-.25,0,1,1,0,0,0-.25.15,2.62,2.62,0,0,0-.28.29,3.49,3.49,0,0,0-.3.43v3.25a.21.21,0,0,1,0,.11.31.31,0,0,1-.12.07l-.22,0-.36,0-.36,0a1,1,0,0,1-.22,0,.31.31,0,0,1-.12-.07.15.15,0,0,1,0-.11V75a.17.17,0,0,1,0-.1.19.19,0,0,1,.11-.07.74.74,0,0,1,.19,0h.61a.64.64,0,0,1,.19,0,.2.2,0,0,1,.1.07.17.17,0,0,1,0,.1v.65a5.77,5.77,0,0,1,.38-.48,2.17,2.17,0,0,1,.35-.3,1,1,0,0,1,.33-.16,1.24,1.24,0,0,1,.33,0h.16a.57.57,0,0,1,.18,0l.17,0,.1.06.05.06a.44.44,0,0,0,0,.1s0,.1,0,.18Z"/><path class="cls-5" d="M55.89,80.23a.2.2,0,0,1,0,.11.29.29,0,0,1-.1.07l-.19,0-.3,0-.32,0-.19,0-.1-.07a.2.2,0,0,1,0-.11v-.6a3.08,3.08,0,0,1-.88.7,1.91,1.91,0,0,1-.92.24,2.08,2.08,0,0,1-.91-.18,1.64,1.64,0,0,1-.59-.48,1.87,1.87,0,0,1-.32-.7,4.06,4.06,0,0,1-.1-1V75a.17.17,0,0,1,0-.1.27.27,0,0,1,.12-.07,1,1,0,0,1,.23,0H52l.23,0a.35.35,0,0,1,.12.07.17.17,0,0,1,0,.1V78a3.24,3.24,0,0,0,0,.63,1.25,1.25,0,0,0,.16.37.92.92,0,0,0,.28.24.8.8,0,0,0,.39.09.93.93,0,0,0,.56-.21,3.4,3.4,0,0,0,.61-.6V75a.17.17,0,0,1,0-.1.22.22,0,0,1,.12-.07,1,1,0,0,1,.22,0h.72a.9.9,0,0,1,.22,0,.27.27,0,0,1,.12.07.17.17,0,0,1,0,.1Z"/><path class="cls-5" d="M62.63,77.55a4.81,4.81,0,0,1-.15,1.25,2.69,2.69,0,0,1-.44,1,2,2,0,0,1-.71.61,2.17,2.17,0,0,1-1,.21,1.86,1.86,0,0,1-.42,0,1.74,1.74,0,0,1-.36-.13,2.41,2.41,0,0,1-.36-.23,3.31,3.31,0,0,1-.36-.31v2.46a.14.14,0,0,1,0,.1.23.23,0,0,1-.12.08.9.9,0,0,1-.22.05l-.36,0-.36,0a1,1,0,0,1-.22-.05.23.23,0,0,1-.12-.08.21.21,0,0,1,0-.1V75a.17.17,0,0,1,0-.1.23.23,0,0,1,.11-.07.64.64,0,0,1,.19,0h.6a.74.74,0,0,1,.19,0,.2.2,0,0,1,.1.07.17.17,0,0,1,0,.1v.62a4.32,4.32,0,0,1,.45-.42,2.66,2.66,0,0,1,.45-.29,1.91,1.91,0,0,1,.47-.18,2.12,2.12,0,0,1,.52-.06,2,2,0,0,1,1,.22,1.87,1.87,0,0,1,.66.62,2.64,2.64,0,0,1,.37.91A5,5,0,0,1,62.63,77.55Zm-1.53.1a4.48,4.48,0,0,0-.05-.64,2.21,2.21,0,0,0-.17-.55,1.08,1.08,0,0,0-.32-.38.84.84,0,0,0-.49-.14,1,1,0,0,0-.29,0,1.53,1.53,0,0,0-.29.14,3.29,3.29,0,0,0-.31.26l-.33.39v1.72a3.14,3.14,0,0,0,.59.61,1,1,0,0,0,.59.21.76.76,0,0,0,.48-.14,1,1,0,0,0,.33-.39,1.66,1.66,0,0,0,.19-.53A2.46,2.46,0,0,0,61.1,77.65Z"/><path class="cls-5" d="M69.09,77.57a4,4,0,0,1-.18,1.22,2.68,2.68,0,0,1-.53.95,2.39,2.39,0,0,1-.9.61,3.74,3.74,0,0,1-2.47,0,2.11,2.11,0,0,1-.85-.56,2.25,2.25,0,0,1-.51-.91,4.1,4.1,0,0,1-.16-1.22,3.86,3.86,0,0,1,.18-1.22,2.66,2.66,0,0,1,.53-.95,2.28,2.28,0,0,1,.9-.61,3.17,3.17,0,0,1,1.25-.22,3.44,3.44,0,0,1,1.22.19,2.11,2.11,0,0,1,.85.56,2.23,2.23,0,0,1,.5.91A4.15,4.15,0,0,1,69.09,77.57Zm-1.52.06a3.84,3.84,0,0,0-.06-.71,1.61,1.61,0,0,0-.21-.57,1.06,1.06,0,0,0-.39-.37,1.22,1.22,0,0,0-.61-.14,1.26,1.26,0,0,0-.57.12,1.07,1.07,0,0,0-.41.35,1.78,1.78,0,0,0-.23.56,2.8,2.8,0,0,0-.08.74,3.84,3.84,0,0,0,.06.71,1.61,1.61,0,0,0,.21.57.93.93,0,0,0,.39.37,1.23,1.23,0,0,0,.61.13,1.34,1.34,0,0,0,.58-.12,1.12,1.12,0,0,0,.4-.35,1.63,1.63,0,0,0,.23-.55A3.29,3.29,0,0,0,67.57,77.63Z"/><path class="cls-5" d="M77.54,79.83a2,2,0,0,1,0,.28.78.78,0,0,1,0,.19.26.26,0,0,1-.07.1.19.19,0,0,1-.1,0h-3.8a.52.52,0,0,1-.33-.11.46.46,0,0,1-.13-.37V73.34a.46.46,0,0,1,.13-.37.52.52,0,0,1,.33-.11h3.78l.09,0a.2.2,0,0,1,.07.1.78.78,0,0,1,0,.19,2.07,2.07,0,0,1,0,.29,2.16,2.16,0,0,1,0,.28.8.8,0,0,1,0,.18.2.2,0,0,1-.07.1l-.09,0H74.58v1.85h2.29a.13.13,0,0,1,.1,0,.2.2,0,0,1,.07.1.6.6,0,0,1,0,.18,2,2,0,0,1,0,.28,2.16,2.16,0,0,1,0,.28A.61.61,0,0,1,77,77a.2.2,0,0,1-.07.1.17.17,0,0,1-.1,0H74.58v2.14h2.73a.19.19,0,0,1,.1,0,.2.2,0,0,1,.07.1.78.78,0,0,1,0,.19A2,2,0,0,1,77.54,79.83Z"/><path class="cls-5" d="M84.08,75.16a2.88,2.88,0,0,1-.2,1.13,2.12,2.12,0,0,1-.58.83,2.6,2.6,0,0,1-.93.51,4.23,4.23,0,0,1-1.3.17h-.63v2.42a.21.21,0,0,1,0,.11.32.32,0,0,1-.13.07,1,1,0,0,1-.23,0l-.38,0-.37,0a1.11,1.11,0,0,1-.24,0,.27.27,0,0,1-.12-.07.2.2,0,0,1,0-.11V73.41A.53.53,0,0,1,79,73a.5.5,0,0,1,.38-.14H81.2l.51,0a3.87,3.87,0,0,1,.59.09,2.32,2.32,0,0,1,.69.25,2.2,2.2,0,0,1,.59.45,2,2,0,0,1,.37.65A2.47,2.47,0,0,1,84.08,75.16Zm-1.61.11a1.32,1.32,0,0,0-.14-.66,1.06,1.06,0,0,0-.34-.38,1.16,1.16,0,0,0-.43-.15,3.59,3.59,0,0,0-.47,0h-.65v2.57h.69a1.77,1.77,0,0,0,.61-.1,1,1,0,0,0,.41-.28,1.07,1.07,0,0,0,.24-.43A1.8,1.8,0,0,0,82.47,75.27Z"/><path class="cls-5" d="M94.1,80.22a.2.2,0,0,1,0,.11.22.22,0,0,1-.12.07.9.9,0,0,1-.22,0l-.36,0-.35,0a.9.9,0,0,1-.22,0,.22.22,0,0,1-.12-.07.2.2,0,0,1,0-.11V74.06h0l-2.19,6.16a.25.25,0,0,1-.08.12.37.37,0,0,1-.14.08l-.23,0h-.34l-.34,0-.23,0-.15-.08a.41.41,0,0,1-.07-.11l-2.12-6.16h0v6.16a.2.2,0,0,1,0,.11.22.22,0,0,1-.12.07,1,1,0,0,1-.22,0l-.36,0-.35,0a.9.9,0,0,1-.22,0,.22.22,0,0,1-.12-.07.2.2,0,0,1,0-.11V73.47a.61.61,0,0,1,.15-.45.57.57,0,0,1,.43-.16h1a2,2,0,0,1,.46,0,.88.88,0,0,1,.34.15.87.87,0,0,1,.23.27,2.31,2.31,0,0,1,.17.41l1.63,4.51h0l1.7-4.5a2.34,2.34,0,0,1,.16-.41.89.89,0,0,1,.21-.28.73.73,0,0,1,.29-.15,1.43,1.43,0,0,1,.38,0h1a.79.79,0,0,1,.28,0A.57.57,0,0,1,94,73a.45.45,0,0,1,.11.19.75.75,0,0,1,0,.26Z"/><path class="cls-5" d="M97.4,79.59a1.07,1.07,0,0,1-.19.73,1,1,0,0,1-.68.19.92.92,0,0,1-.68-.19,1,1,0,0,1-.19-.7,1,1,0,0,1,.19-.73,1.34,1.34,0,0,1,1.36,0A1,1,0,0,1,97.4,79.59Z"/><path class="cls-5" d="M100.6,79.59a1,1,0,0,1-.19.73.94.94,0,0,1-.68.19.92.92,0,0,1-.68-.19,1,1,0,0,1-.19-.7,1,1,0,0,1,.19-.73,1.34,1.34,0,0,1,1.36,0A1,1,0,0,1,100.6,79.59Z"/><path class="cls-5" d="M103.8,79.59a1,1,0,0,1-.19.73.94.94,0,0,1-.68.19.92.92,0,0,1-.68-.19,1,1,0,0,1-.19-.7,1.07,1.07,0,0,1,.19-.73,1.34,1.34,0,0,1,1.36,0A1,1,0,0,1,103.8,79.59Z"/></g></g></svg>