<svg xmlns="http://www.w3.org/2000/svg" viewBox="0 0 153.62 175.9"><defs><style>.cls-1{opacity:0.3;}.cls-2{fill:#fff;}.cls-3{fill:#9ea0a3;}.cls-4{fill:#231f20;}.cls-5{stroke:#000;stroke-miterlimit:10;stroke-width:0.1px;}</style></defs><g id="Capa_2" data-name="Capa 2"><g id="Capa_1-2" data-name="Capa 1"><path class="cls-1" d="M4.38,109.73c6.28-32.24.27-71.37,1.23-83.68s6-16.64,22.87-16.88,80.69-4.4,93.66,3.88c0,0,16.21,6.76,8.6,40.4-5.55,24.59-8.46,45.71-9,64.37.1,1.32,1.63,18.22,18.29,19.92,0,0-14.36,2.76-16.84,14.22.9,15.14-.66,24.68-17.39,23.89-21.58-1-71.95-1.84-85.84-1.5C-4.87,174.94-1.89,142,4.38,109.73Z"/><path class="cls-2" d="M10.9,102.83c6.28-32.24.27-71.37,1.23-83.68S18.12,2.51,35,2.27s80.69-4.4,93.66,3.88c0,0,16.21,6.76,8.61,40.4-5.56,24.59-8.47,45.71-9,64.37.1,1.32,1.64,18.22,18.29,19.92,0,0-14.36,2.76-16.84,14.22.9,15.14-.65,24.68-17.38,23.89-21.59-1-71.95-1.84-85.85-1.51C1.65,168,4.62,135.07,10.9,102.83Z"/><path class="cls-3" d="M128.25,110.92a26.53,26.53,0,0,0,1.35,6.18,25.81,25.81,0,0,1-4.2-11.89c.53-18.66,3.44-39.78,9-64.37,3.14-13.92,2.21-23.22,0-29.37,3.73,5.43,7.16,15.87,2.82,35.08C131.7,71.14,128.79,92.26,128.25,110.92Z"/><path class="cls-3" d="M23.61,161.74c13.9-.34,64.27.49,85.85,1.5,16.73.79,18.28-8.75,17.38-23.89,1.34-6.17,6.12-9.82,10.24-11.87a19.64,19.64,0,0,0,9.46,3.36s-14.36,2.76-16.84,14.22c.9,15.14-.65,24.68-17.38,23.89-21.59-1-71.95-1.84-85.85-1.51-9.59.24-15-4.56-17.72-12.37C11.88,159.43,16.65,161.9,23.61,161.74Z"/><path class="cls-4" d="M112.24,170c-22.15-1-72.1-1.83-85.67-1.51H26.5c-5.66.13-10.26-1.4-13.67-4.55-11.28-10.4-7.94-36.8-3.18-61.25,4.3-22.08,2.84-47,1.77-65.14-.48-8.13-.85-14.55-.55-18.44C11.89,6,18,1.53,35,1.25c2.89,0,7.28-.2,12.36-.39,34.25-1.26,71.65-2,82,4.43,1.62.74,16.59,8.56,9.16,41.44-5.51,24.35-8.44,45.36-9,64.13.13,1.77,1.69,17.38,17.19,19l6.92.71-6.79,1.3c-.13,0-13.48,2.71-15.87,13.29.61,10.38,0,17.61-5,21.63-2.58,2.07-6.16,3.15-10.92,3.26C114.14,170,113.21,170,112.24,170ZM127,110.89c.54-19,3.49-40.07,9-64.53,7.3-32.31-7.8-39.24-8-39.3l-.2-.11C117.5.33,71.93,2,47.45,2.9c-5.11.19-9.51.35-12.44.39-15.83.23-20.68,3.8-21.63,15.93-.29,3.78.08,10.15.56,18.22C15,55.7,16.48,80.71,12.14,103h0c-4.39,22.58-8.07,49.75,2.58,59.58,2.93,2.71,6.76,4,11.7,3.85h.08c13.61-.32,63.69.47,85.89,1.51,5.41.25,9.26-.6,11.78-2.63,4.35-3.5,4.86-10.32,4.27-20.19V145l0-.11c1.74-8,9-12,13.74-13.81C128.58,127.23,127.13,112.75,127,110.89Z"/><path class="cls-5" d="M32.12,43.41a2.45,2.45,0,0,1-.11.74,2.3,2.3,0,0,1-.31.58,2.15,2.15,0,0,1-.47.43,2.8,2.8,0,0,1-.6.3,3.77,3.77,0,0,1-.7.17,5.08,5.08,0,0,1-.82.06h-2a.43.43,0,0,1-.45-.49V38.6a.43.43,0,0,1,.45-.49H29a4.93,4.93,0,0,1,1.18.12,2.28,2.28,0,0,1,.82.35,1.52,1.52,0,0,1,.5.6,1.91,1.91,0,0,1,.18.86,1.81,1.81,0,0,1-.07.52,1.78,1.78,0,0,1-.21.44,1.56,1.56,0,0,1-.33.35,1.7,1.7,0,0,1-.44.24,2,2,0,0,1,.59.21,1.57,1.57,0,0,1,.47.38,1.61,1.61,0,0,1,.32.54A1.88,1.88,0,0,1,32.12,43.41Zm-2-3.19a1.1,1.1,0,0,0-.07-.41.81.81,0,0,0-.21-.3.87.87,0,0,0-.36-.18,2.1,2.1,0,0,0-.57-.07h-.77v2H29a1.31,1.31,0,0,0,.53-.08.93.93,0,0,0,.33-.21,1,1,0,0,0,.2-.33A1.23,1.23,0,0,0,30.13,40.22Zm.39,3.25a1.13,1.13,0,0,0-.09-.47.81.81,0,0,0-.25-.35,1.14,1.14,0,0,0-.44-.22,2.48,2.48,0,0,0-.68-.08h-.91v2.16h1.11a1.73,1.73,0,0,0,.54-.07,1.07,1.07,0,0,0,.38-.2.83.83,0,0,0,.25-.33A1,1,0,0,0,30.52,43.47Z"/><path class="cls-5" d="M38.22,45.49a.17.17,0,0,1,0,.1.2.2,0,0,1-.1.07.83.83,0,0,1-.2.05h-.61a.74.74,0,0,1-.19-.05.2.2,0,0,1-.1-.07.17.17,0,0,1,0-.1v-.61a3.27,3.27,0,0,1-.88.71,2.06,2.06,0,0,1-.93.23,2,2,0,0,1-.9-.18,1.4,1.4,0,0,1-.59-.48,2,2,0,0,1-.33-.7,4.68,4.68,0,0,1-.09-1V40.27a.2.2,0,0,1,0-.11.22.22,0,0,1,.12-.07,1,1,0,0,1,.23,0L34,40l.36,0a1,1,0,0,1,.22,0,.22.22,0,0,1,.12.07.15.15,0,0,1,0,.11v2.95a3.13,3.13,0,0,0,0,.62,1.15,1.15,0,0,0,.16.37.6.6,0,0,0,.28.24.8.8,0,0,0,.39.09,1,1,0,0,0,.56-.21,3.29,3.29,0,0,0,.61-.59V40.27a.2.2,0,0,1,0-.11.23.23,0,0,1,.11-.07l.23,0,.36,0,.35,0,.23,0a.23.23,0,0,1,.11.07.15.15,0,0,1,0,.11Z"/><path class="cls-5" d="M44.52,42.72a.56.56,0,0,1-.12.4.42.42,0,0,1-.33.13H40.89a2.37,2.37,0,0,0,.08.61,1.23,1.23,0,0,0,.26.46,1.06,1.06,0,0,0,.44.29,2.06,2.06,0,0,0,.65.1,3.37,3.37,0,0,0,.68-.06,4.3,4.3,0,0,0,.51-.12l.35-.12a.65.65,0,0,1,.23-.06l.09,0,.06.07,0,.15c0,.07,0,.15,0,.25a1.48,1.48,0,0,1,0,.22.61.61,0,0,1,0,.15.35.35,0,0,1,0,.11l-.06.08a.83.83,0,0,1-.21.12,3.84,3.84,0,0,1-.43.13,4.39,4.39,0,0,1-.61.12,5.43,5.43,0,0,1-.72,0A3.73,3.73,0,0,1,41,45.64a2.12,2.12,0,0,1-.88-.53,2.23,2.23,0,0,1-.52-.9,4.66,4.66,0,0,1,0-2.53,2.64,2.64,0,0,1,.52-1,2.17,2.17,0,0,1,.84-.59,2.87,2.87,0,0,1,1.12-.21,3.08,3.08,0,0,1,1.12.19,2,2,0,0,1,.76.54,2.13,2.13,0,0,1,.44.81,3.31,3.31,0,0,1,.14,1Zm-1.43-.42a1.49,1.49,0,0,0-.24-1A1,1,0,0,0,42,41a1.1,1.1,0,0,0-.49.11,1,1,0,0,0-.34.28,1.38,1.38,0,0,0-.21.42,2.27,2.27,0,0,0-.09.52Z"/><path class="cls-5" d="M50.72,45.49a.17.17,0,0,1,0,.1.35.35,0,0,1-.12.07,1,1,0,0,1-.23.05h-.71a1,1,0,0,1-.23-.05.23.23,0,0,1-.11-.07.13.13,0,0,1,0-.1v-3a3,3,0,0,0,0-.6,1.25,1.25,0,0,0-.16-.37.81.81,0,0,0-.28-.24.8.8,0,0,0-.39-.09,1,1,0,0,0-.56.21,2.82,2.82,0,0,0-.6.6v3.47a.13.13,0,0,1,0,.1.22.22,0,0,1-.12.07.9.9,0,0,1-.22.05h-.72a1,1,0,0,1-.22-.05.22.22,0,0,1-.12-.07.18.18,0,0,1,0-.1V40.27a.2.2,0,0,1,0-.11.23.23,0,0,1,.11-.07l.2,0,.3,0,.31,0,.19,0a.22.22,0,0,1,.09.07.2.2,0,0,1,0,.11v.6a3.22,3.22,0,0,1,.88-.7,2,2,0,0,1,.94-.24,2.06,2.06,0,0,1,.9.18,1.52,1.52,0,0,1,.59.47,1.91,1.91,0,0,1,.32.71,3.91,3.91,0,0,1,.1,1Z"/><path class="cls-5" d="M57.45,42.82A3.91,3.91,0,0,1,57.27,44a2.6,2.6,0,0,1-.53,1,2.39,2.39,0,0,1-.9.61,3.26,3.26,0,0,1-1.26.22,3.45,3.45,0,0,1-1.21-.19,2.13,2.13,0,0,1-.85-.57,2.21,2.21,0,0,1-.51-.9,4.22,4.22,0,0,1-.16-1.23A3.91,3.91,0,0,1,52,41.71a2.54,2.54,0,0,1,.54-1,2.28,2.28,0,0,1,.89-.61,3.17,3.17,0,0,1,1.25-.22,3.68,3.68,0,0,1,1.22.19,2.22,2.22,0,0,1,.85.56,2.3,2.3,0,0,1,.5.91A4.2,4.2,0,0,1,57.45,42.82Zm-1.52.06a3.92,3.92,0,0,0-.06-.71,1.56,1.56,0,0,0-.21-.56,1.09,1.09,0,0,0-.39-.38,1.23,1.23,0,0,0-.61-.13,1.26,1.26,0,0,0-.57.12,1,1,0,0,0-.41.35,1.72,1.72,0,0,0-.23.55,2.85,2.85,0,0,0-.08.74,4,4,0,0,0,.06.72,1.63,1.63,0,0,0,.21.56.93.93,0,0,0,.39.37,1.25,1.25,0,0,0,.61.13,1.34,1.34,0,0,0,.58-.12,1,1,0,0,0,.4-.34,1.57,1.57,0,0,0,.23-.56A3.22,3.22,0,0,0,55.93,42.88Z"/><path class="cls-5" d="M64.35,45.69l-.63,1.85a.45.45,0,0,1-.29.21,3,3,0,0,1-.69.06l-.37,0a.47.47,0,0,1-.21-.07.17.17,0,0,1-.08-.11.38.38,0,0,1,0-.17l.69-1.75a.45.45,0,0,1-.13-.11.51.51,0,0,1-.09-.16l-1.8-4.8a1,1,0,0,1-.08-.31.24.24,0,0,1,.07-.17.55.55,0,0,1,.24-.09l.44,0h.4l.23,0a.32.32,0,0,1,.12.11.71.71,0,0,1,.08.21l1.23,3.49h0l1.12-3.56a.54.54,0,0,1,.09-.2.37.37,0,0,1,.19-.08l.45,0,.42,0a.55.55,0,0,1,.24.09.21.21,0,0,1,.08.18.85.85,0,0,1,0,.25Z"/><path class="cls-5" d="M72.15,42.82A3.91,3.91,0,0,1,72,44a2.37,2.37,0,0,1-1.42,1.56,3.26,3.26,0,0,1-1.26.22,3.38,3.38,0,0,1-1.21-.19,2.16,2.16,0,0,1-.86-.57,2.19,2.19,0,0,1-.5-.9,4.2,4.2,0,0,1-.17-1.23,3.91,3.91,0,0,1,.18-1.22,2.54,2.54,0,0,1,.54-1,2.36,2.36,0,0,1,.89-.61,3.26,3.26,0,0,1,1.26-.22,3.66,3.66,0,0,1,1.21.19,2.25,2.25,0,0,1,.86.56,2.43,2.43,0,0,1,.5.91A4.58,4.58,0,0,1,72.15,42.82Zm-1.52.06a3.92,3.92,0,0,0-.06-.71,1.56,1.56,0,0,0-.21-.56,1,1,0,0,0-.38-.38,1.48,1.48,0,0,0-1.19,0,1,1,0,0,0-.4.35,1.53,1.53,0,0,0-.24.55,3.36,3.36,0,0,0-.08.74,4,4,0,0,0,.06.72,2.17,2.17,0,0,0,.21.56,1.06,1.06,0,0,0,.39.37,1.28,1.28,0,0,0,.61.13,1.31,1.31,0,0,0,.58-.12,1,1,0,0,0,.4-.34,1.58,1.58,0,0,0,.24-.56A3.26,3.26,0,0,0,70.63,42.88Z"/><path class="cls-5" d="M79.11,45a2.1,2.1,0,0,1,0,.4.33.33,0,0,1-.24.29l-.24.08-.3,0H78a2.18,2.18,0,0,1-.76-.11,1.22,1.22,0,0,1-.53-.34,1.41,1.41,0,0,1-.31-.58,3,3,0,0,1-.1-.83V41.26h-.63a.2.2,0,0,1-.17-.14,1.23,1.23,0,0,1-.06-.46,2.16,2.16,0,0,1,0-.28.78.78,0,0,1,0-.19.22.22,0,0,1,.07-.09.2.2,0,0,1,.11,0h.62V38.9a.17.17,0,0,1,0-.1.23.23,0,0,1,.12-.08.9.9,0,0,1,.22,0h.72a.9.9,0,0,1,.22,0,.23.23,0,0,1,.12.08.17.17,0,0,1,0,.1v1.17h1.14a.17.17,0,0,1,.1,0,.24.24,0,0,1,.08.09.78.78,0,0,1,0,.19,2.35,2.35,0,0,1,0,.28,1.28,1.28,0,0,1,0,.46.2.2,0,0,1-.17.14H77.74v2.45a1.19,1.19,0,0,0,.14.64.51.51,0,0,0,.48.22l.21,0,.17,0,.12,0,.09,0,.07,0a.15.15,0,0,1,0,.09,1.57,1.57,0,0,1,0,.16A2.1,2.1,0,0,1,79.11,45Z"/><path class="cls-5" d="M84.51,45.5a.15.15,0,0,1-.06.13.38.38,0,0,1-.18.07l-.37,0-.39,0a.34.34,0,0,1-.17-.07.17.17,0,0,1,0-.13v-.41a2.39,2.39,0,0,1-.73.54,2.13,2.13,0,0,1-.92.19,2.63,2.63,0,0,1-.76-.11,1.73,1.73,0,0,1-.6-.32,1.41,1.41,0,0,1-.4-.53,1.88,1.88,0,0,1-.14-.74,1.65,1.65,0,0,1,.18-.79,1.57,1.57,0,0,1,.53-.56,2.84,2.84,0,0,1,.88-.32,6.31,6.31,0,0,1,1.23-.11h.51V42a1.75,1.75,0,0,0,0-.43.71.71,0,0,0-.17-.31.69.69,0,0,0-.3-.18,1.63,1.63,0,0,0-.47-.06,2.59,2.59,0,0,0-.66.08l-.52.18-.37.18a.51.51,0,0,1-.24.09.21.21,0,0,1-.11,0,.38.38,0,0,1-.09-.12,1.67,1.67,0,0,1,0-.19A1.77,1.77,0,0,1,80,41a1.07,1.07,0,0,1,0-.29.37.37,0,0,1,.11-.19,1,1,0,0,1,.28-.19,3.69,3.69,0,0,1,.48-.19,3.75,3.75,0,0,1,.6-.14,3.71,3.71,0,0,1,.67-.06,4.13,4.13,0,0,1,1.06.12,1.72,1.72,0,0,1,.71.37,1.39,1.39,0,0,1,.41.64,2.86,2.86,0,0,1,.13.93Zm-1.44-2.23H82.5a3.58,3.58,0,0,0-.61,0,1.24,1.24,0,0,0-.4.16.64.64,0,0,0-.24.25.78.78,0,0,0-.07.35.65.65,0,0,0,.21.51.8.8,0,0,0,.57.19,1,1,0,0,0,.57-.16,2.21,2.21,0,0,0,.54-.46Z"/><path class="cls-5" d="M94.29,45.49a.18.18,0,0,1,0,.1.22.22,0,0,1-.12.07.9.9,0,0,1-.22.05h-.72a.9.9,0,0,1-.22-.05.22.22,0,0,1-.12-.07.17.17,0,0,1,0-.1v-3.1a2.28,2.28,0,0,0,0-.48,1.25,1.25,0,0,0-.16-.37.72.72,0,0,0-.25-.24.75.75,0,0,0-.37-.09.88.88,0,0,0-.54.21,3.35,3.35,0,0,0-.58.6v3.47a.13.13,0,0,1,0,.1.22.22,0,0,1-.12.07.9.9,0,0,1-.22.05h-.71l-.23-.05a.35.35,0,0,1-.12-.07.17.17,0,0,1,0-.1v-3.1a2.28,2.28,0,0,0-.05-.48,1,1,0,0,0-.15-.37.75.75,0,0,0-.26-.24.72.72,0,0,0-.37-.09.88.88,0,0,0-.54.21,3.34,3.34,0,0,0-.57.6v3.47a.18.18,0,0,1,0,.1.22.22,0,0,1-.12.07,1,1,0,0,1-.23.05h-.71a.9.9,0,0,1-.22-.05.22.22,0,0,1-.12-.07.13.13,0,0,1,0-.1V40.27a.2.2,0,0,1,0-.11.2.2,0,0,1,.1-.07l.2,0,.3,0,.31,0a.69.69,0,0,1,.19,0,.2.2,0,0,1,.1.07.2.2,0,0,1,0,.11v.6a3.48,3.48,0,0,1,.86-.7,1.84,1.84,0,0,1,.9-.24,2,2,0,0,1,.58.07,1.71,1.71,0,0,1,.46.19,2,2,0,0,1,.35.3,1.47,1.47,0,0,1,.24.4,4.62,4.62,0,0,1,.46-.44,2.28,2.28,0,0,1,.45-.29A1.49,1.49,0,0,1,92,40a1.61,1.61,0,0,1,.44-.06,1.94,1.94,0,0,1,.88.18,1.49,1.49,0,0,1,.58.47,1.9,1.9,0,0,1,.31.71,3.88,3.88,0,0,1,.1.85Z"/><path class="cls-5" d="M101,42.8a5,5,0,0,1-.15,1.26,2.88,2.88,0,0,1-.44.95,2,2,0,0,1-.71.6,2.21,2.21,0,0,1-1,.21,1.87,1.87,0,0,1-.42,0,1.66,1.66,0,0,1-.37-.14,2.25,2.25,0,0,1-.35-.22,3.45,3.45,0,0,1-.36-.32v2.46a.18.18,0,0,1,0,.1.18.18,0,0,1-.12.08,1,1,0,0,1-.22,0l-.36,0-.36,0a.9.9,0,0,1-.22,0,.18.18,0,0,1-.12-.08.13.13,0,0,1,0-.1V40.27a.2.2,0,0,1,0-.11.2.2,0,0,1,.1-.07.88.88,0,0,1,.2,0l.3,0,.29,0,.2,0a.2.2,0,0,1,.1.07.2.2,0,0,1,0,.11v.61a4.18,4.18,0,0,1,.45-.41,2.45,2.45,0,0,1,.44-.3,2.27,2.27,0,0,1,.47-.18,2.24,2.24,0,0,1,.52-.06,2,2,0,0,1,1,.23,1.84,1.84,0,0,1,.66.61,2.91,2.91,0,0,1,.37.92A5,5,0,0,1,101,42.8Zm-1.54.11a3.43,3.43,0,0,0,0-.65,1.8,1.8,0,0,0-.17-.54,1.1,1.1,0,0,0-.31-.39.86.86,0,0,0-.49-.14,1.45,1.45,0,0,0-.29,0,1,1,0,0,0-.29.15,1.71,1.71,0,0,0-.31.26,2.24,2.24,0,0,0-.33.39v1.72a3.06,3.06,0,0,0,.59.6.92.92,0,0,0,.58.22.79.79,0,0,0,.49-.15A1,1,0,0,0,99.2,44a1.82,1.82,0,0,0,.19-.54A3,3,0,0,0,99.45,42.91Z"/><path class="cls-5" d="M107.44,42.82a4.23,4.23,0,0,1-.17,1.22,2.75,2.75,0,0,1-.53,1,2.39,2.39,0,0,1-.9.61,3.26,3.26,0,0,1-1.26.22,3.42,3.42,0,0,1-1.21-.19,2.13,2.13,0,0,1-.85-.57,2.21,2.21,0,0,1-.51-.9,4.22,4.22,0,0,1-.16-1.23,3.91,3.91,0,0,1,.18-1.22,2.52,2.52,0,0,1,.53-1,2.44,2.44,0,0,1,.89-.61,3.26,3.26,0,0,1,1.26-.22,3.72,3.72,0,0,1,1.22.19,2.29,2.29,0,0,1,.85.56,2.43,2.43,0,0,1,.5.91A4.22,4.22,0,0,1,107.44,42.82Zm-1.51.06a3.92,3.92,0,0,0-.06-.71,1.77,1.77,0,0,0-.21-.56,1.09,1.09,0,0,0-.39-.38,1.25,1.25,0,0,0-.61-.13,1.34,1.34,0,0,0-.58.12,1,1,0,0,0-.4.35,1.73,1.73,0,0,0-.24.55,3.36,3.36,0,0,0-.08.74,4,4,0,0,0,.07.72,1.63,1.63,0,0,0,.21.56.93.93,0,0,0,.39.37,1.21,1.21,0,0,0,.6.13,1.28,1.28,0,0,0,.58-.12,1,1,0,0,0,.41-.34,1.78,1.78,0,0,0,.23-.56A3.22,3.22,0,0,0,105.93,42.88Z"/><path class="cls-5" d="M112.56,44.66a1.85,1.85,0,0,1,0,.25c0,.07,0,.13,0,.17a.34.34,0,0,1,0,.12.35.35,0,0,1-.09.11,1.63,1.63,0,0,1-.24.16,1.9,1.9,0,0,1-.38.17,2.42,2.42,0,0,1-.48.13,3.31,3.31,0,0,1-1.59-.14,2,2,0,0,1-.78-.56,2.45,2.45,0,0,1-.48-.89,4.36,4.36,0,0,1-.16-1.2,4.19,4.19,0,0,1,.2-1.36,2.41,2.41,0,0,1,.55-.94,2.14,2.14,0,0,1,.83-.56,3,3,0,0,1,1-.18,2.32,2.32,0,0,1,.46,0,2.58,2.58,0,0,1,.42.11,2.29,2.29,0,0,1,.35.16,1,1,0,0,1,.22.15l.09.11a.36.36,0,0,1,0,.11q0,.08,0,.18c0,.06,0,.15,0,.24a1.32,1.32,0,0,1-.06.48c0,.09-.09.14-.16.14a.43.43,0,0,1-.21-.08l-.26-.19a3,3,0,0,0-.36-.18,1.5,1.5,0,0,0-.5-.08,1,1,0,0,0-.88.44,2.25,2.25,0,0,0-.31,1.3,3.22,3.22,0,0,0,.08.74,1.49,1.49,0,0,0,.22.54,1,1,0,0,0,.38.33,1.21,1.21,0,0,0,.52.1,1.26,1.26,0,0,0,.53-.09,1.94,1.94,0,0,0,.38-.2,2.37,2.37,0,0,0,.27-.2.35.35,0,0,1,.19-.09.12.12,0,0,1,.09,0,.27.27,0,0,1,.06.11s0,.12,0,.2A2.92,2.92,0,0,1,112.56,44.66Z"/><path class="cls-5" d="M118.85,42.82a3.91,3.91,0,0,1-.18,1.22,2.6,2.6,0,0,1-.53,1,2.39,2.39,0,0,1-.9.61,3.26,3.26,0,0,1-1.26.22,3.42,3.42,0,0,1-1.21-.19,2.13,2.13,0,0,1-.85-.57,2.21,2.21,0,0,1-.51-.9,4.22,4.22,0,0,1-.16-1.23,3.91,3.91,0,0,1,.18-1.22,2.66,2.66,0,0,1,.53-1,2.39,2.39,0,0,1,.9-.61,3.17,3.17,0,0,1,1.25-.22,3.68,3.68,0,0,1,1.22.19,2.22,2.22,0,0,1,.85.56,2.3,2.3,0,0,1,.5.91A4.2,4.2,0,0,1,118.85,42.82Zm-1.52.06a3.92,3.92,0,0,0-.06-.71,1.56,1.56,0,0,0-.21-.56,1.09,1.09,0,0,0-.39-.38,1.23,1.23,0,0,0-.61-.13,1.26,1.26,0,0,0-.57.12,1,1,0,0,0-.41.35,1.72,1.72,0,0,0-.23.55,2.85,2.85,0,0,0-.08.74,4,4,0,0,0,.06.72,1.63,1.63,0,0,0,.21.56.93.93,0,0,0,.39.37,1.23,1.23,0,0,0,.61.13,1.34,1.34,0,0,0,.58-.12,1.09,1.09,0,0,0,.4-.34,1.78,1.78,0,0,0,.23-.56A3.22,3.22,0,0,0,117.33,42.88Z"/><path class="cls-5" d="M25.92,59.1c0,.1,0,.18,0,.25s0,.13,0,.18l0,.11-.09.11a1.09,1.09,0,0,1-.24.16,2,2,0,0,1-.39.18,2.93,2.93,0,0,1-.47.12,3,3,0,0,1-.52,0,2.92,2.92,0,0,1-1.07-.19,2.09,2.09,0,0,1-.78-.55,2.5,2.5,0,0,1-.48-.9,4,4,0,0,1-.16-1.2,4.25,4.25,0,0,1,.19-1.36,2.78,2.78,0,0,1,.55-.94,2.22,2.22,0,0,1,.83-.56,3,3,0,0,1,1.06-.18,2.38,2.38,0,0,1,.46,0l.42.11.35.16a1.33,1.33,0,0,1,.22.15l.09.11a.34.34,0,0,1,0,.12.72.72,0,0,1,0,.17,1.85,1.85,0,0,1,0,.25,1.29,1.29,0,0,1-.06.47c0,.1-.09.14-.15.14a.37.37,0,0,1-.21-.08,2,2,0,0,0-.26-.18,1.42,1.42,0,0,0-.37-.18,1.24,1.24,0,0,0-.5-.09,1,1,0,0,0-.88.45,2.28,2.28,0,0,0-.3,1.29,2.88,2.88,0,0,0,.08.75,1.51,1.51,0,0,0,.22.53.9.9,0,0,0,.37.33,1.29,1.29,0,0,0,.53.11,1.35,1.35,0,0,0,.52-.09,2.36,2.36,0,0,0,.39-.2l.27-.21a.32.32,0,0,1,.19-.09l.09,0a.23.23,0,0,1,.05.11.56.56,0,0,1,0,.2A2.58,2.58,0,0,1,25.92,59.1Z"/><path class="cls-5" d="M32.2,57.27A4.16,4.16,0,0,1,32,58.48a2.54,2.54,0,0,1-.54,1,2.38,2.38,0,0,1-.89.62,3.47,3.47,0,0,1-1.26.21,3.38,3.38,0,0,1-1.21-.19,2.25,2.25,0,0,1-.86-.56,2.43,2.43,0,0,1-.5-.91,4.22,4.22,0,0,1-.16-1.23,4,4,0,0,1,.17-1.22,2.62,2.62,0,0,1,.54-.95,2.57,2.57,0,0,1,.89-.61,3.46,3.46,0,0,1,1.26-.22,3.72,3.72,0,0,1,1.22.19,2.29,2.29,0,0,1,.85.56A2.43,2.43,0,0,1,32,56,4.24,4.24,0,0,1,32.2,57.27Zm-1.51,0a4,4,0,0,0-.07-.71,1.85,1.85,0,0,0-.2-.56,1.09,1.09,0,0,0-.39-.38,1.29,1.29,0,0,0-.62-.13,1.32,1.32,0,0,0-.57.12,1,1,0,0,0-.4.35,1.51,1.51,0,0,0-.24.56,3.55,3.55,0,0,0,0,1.45,1.85,1.85,0,0,0,.2.56,1.09,1.09,0,0,0,.39.38,1.41,1.41,0,0,0,.61.13A1.31,1.31,0,0,0,30,59a1,1,0,0,0,.4-.35,1.53,1.53,0,0,0,.24-.55A3.38,3.38,0,0,0,30.69,57.32Z"/><path class="cls-5" d="M38.35,59.93a.17.17,0,0,1,0,.1.2.2,0,0,1-.12.07.9.9,0,0,1-.22,0h-.72a.9.9,0,0,1-.22,0,.19.19,0,0,1-.16-.17V57a3.12,3.12,0,0,0-.05-.6,1.25,1.25,0,0,0-.16-.37.78.78,0,0,0-.27-.24.94.94,0,0,0-1,.12,3.38,3.38,0,0,0-.6.6v3.47a.17.17,0,0,1,0,.1.24.24,0,0,1-.12.07l-.23,0h-.71a1,1,0,0,1-.23,0A.18.18,0,0,1,33.4,60a.17.17,0,0,1,0-.1V54.71a.2.2,0,0,1,.13-.18.88.88,0,0,1,.2,0l.3,0,.31,0,.19,0a.27.27,0,0,1,.1.08.3.3,0,0,1,0,.1v.6a3.46,3.46,0,0,1,.89-.7,1.9,1.9,0,0,1,.93-.24,2.06,2.06,0,0,1,.9.18,1.64,1.64,0,0,1,.59.48,1.8,1.8,0,0,1,.32.7,4,4,0,0,1,.1,1Z"/><path class="cls-5" d="M45.08,57.27a3.84,3.84,0,0,1-.18,1.21,2.39,2.39,0,0,1-.53,1,2.42,2.42,0,0,1-.9.62,3.41,3.41,0,0,1-1.25.21A3.47,3.47,0,0,1,41,60.07a2.14,2.14,0,0,1-1.35-1.47,4.2,4.2,0,0,1-.17-1.23,4,4,0,0,1,.18-1.22,2.62,2.62,0,0,1,.54-.95,2.39,2.39,0,0,1,.89-.61,3.4,3.4,0,0,1,1.25-.22,3.68,3.68,0,0,1,1.22.19,2.14,2.14,0,0,1,.85.56,2.18,2.18,0,0,1,.5.91A4.22,4.22,0,0,1,45.08,57.27Zm-1.52,0a4,4,0,0,0-.06-.71,1.63,1.63,0,0,0-.21-.56,1,1,0,0,0-.39-.38,1.23,1.23,0,0,0-.61-.13,1.26,1.26,0,0,0-.57.12,1,1,0,0,0-.4.35,1.51,1.51,0,0,0-.24.56,3.22,3.22,0,0,0-.08.74,4,4,0,0,0,.06.71,2.17,2.17,0,0,0,.21.56,1.09,1.09,0,0,0,.39.38,1.38,1.38,0,0,0,.61.13,1.34,1.34,0,0,0,.58-.12,1,1,0,0,0,.4-.35,1.53,1.53,0,0,0,.24-.55A3.42,3.42,0,0,0,43.56,57.32Z"/><path class="cls-5" d="M49.77,59.53a1.28,1.28,0,0,1,0,.29.78.78,0,0,1,0,.19.24.24,0,0,1-.08.09.17.17,0,0,1-.1,0H46.11a.3.3,0,0,1-.24-.11.52.52,0,0,1-.08-.34v-.27a1.09,1.09,0,0,1,0-.19.51.51,0,0,1,0-.17l.07-.16.11-.18,2-3H46.12c-.07,0-.13,0-.18-.14a1.16,1.16,0,0,1-.07-.45,2,2,0,0,1,0-.28.6.6,0,0,1,0-.18.21.21,0,0,1,.08-.1.2.2,0,0,1,.11,0h3.19l.14,0a.21.21,0,0,1,.1.06.81.81,0,0,1,.06.13,1,1,0,0,1,0,.2v.29a1.25,1.25,0,0,1,0,.21.86.86,0,0,1,0,.17,1.22,1.22,0,0,1-.07.17l-.1.17-1.94,3h2.06a.2.2,0,0,1,.1,0,.17.17,0,0,1,.07.09.39.39,0,0,1,0,.18A1.19,1.19,0,0,1,49.77,59.53Z"/><path class="cls-5" d="M54.62,59.1a1.85,1.85,0,0,1,0,.25c0,.07,0,.13,0,.18a.36.36,0,0,1,0,.11.27.27,0,0,1-.09.11,1.09,1.09,0,0,1-.24.16,1.76,1.76,0,0,1-.39.18,2.93,2.93,0,0,1-.47.12,3,3,0,0,1-1.59-.14,2.09,2.09,0,0,1-.78-.55,2.5,2.5,0,0,1-.48-.9,4,4,0,0,1-.16-1.2,4.24,4.24,0,0,1,.2-1.36,2.49,2.49,0,0,1,.55-.94,2.14,2.14,0,0,1,.83-.56,3,3,0,0,1,1-.18,2.32,2.32,0,0,1,.46,0l.42.11a2.29,2.29,0,0,1,.35.16,1,1,0,0,1,.22.15l.09.11a.34.34,0,0,1,0,.12s0,.1,0,.17,0,.15,0,.25a1.29,1.29,0,0,1-.06.47c0,.1-.09.14-.16.14a.43.43,0,0,1-.21-.08,2,2,0,0,0-.26-.18,1.51,1.51,0,0,0-.36-.18,1.29,1.29,0,0,0-.51-.09,1,1,0,0,0-.87.45,2.19,2.19,0,0,0-.31,1.29,3.38,3.38,0,0,0,.08.75,1.51,1.51,0,0,0,.22.53.92.92,0,0,0,.38.33,1.21,1.21,0,0,0,.52.11,1.44,1.44,0,0,0,.53-.09,2.69,2.69,0,0,0,.38-.2l.27-.21a.35.35,0,0,1,.19-.09.12.12,0,0,1,.09,0,.23.23,0,0,1,0,.11.88.88,0,0,1,0,.2C54.61,58.86,54.62,59,54.62,59.1Z"/><path class="cls-5" d="M60.9,57.27a3.85,3.85,0,0,1-.17,1.21,2.52,2.52,0,0,1-.53,1,2.42,2.42,0,0,1-.9.62,3.47,3.47,0,0,1-1.26.21,3.42,3.42,0,0,1-1.21-.19,2.22,2.22,0,0,1-.85-.56,2.32,2.32,0,0,1-.51-.91,4.22,4.22,0,0,1-.16-1.23,4,4,0,0,1,.18-1.22A2.75,2.75,0,0,1,56,55.2a2.52,2.52,0,0,1,.9-.61,3.37,3.37,0,0,1,1.25-.22,3.68,3.68,0,0,1,1.22.19,2.22,2.22,0,0,1,.85.56,2.3,2.3,0,0,1,.5.91A4.24,4.24,0,0,1,60.9,57.27Zm-1.51,0a4,4,0,0,0-.06-.71,1.63,1.63,0,0,0-.21-.56,1.09,1.09,0,0,0-.39-.38,1.46,1.46,0,0,0-1.18,0,1.07,1.07,0,0,0-.41.35,1.93,1.93,0,0,0-.24.56,3.26,3.26,0,0,0-.07.74,4,4,0,0,0,.06.71,1.63,1.63,0,0,0,.21.56,1,1,0,0,0,.39.38,1.48,1.48,0,0,0,1.19,0,1.12,1.12,0,0,0,.4-.35,1.72,1.72,0,0,0,.23-.55A3.38,3.38,0,0,0,59.39,57.32Z"/><path class="cls-5" d="M73.09,59.93a.19.19,0,0,1-.16.17.9.9,0,0,1-.22,0H72a.9.9,0,0,1-.22,0,.18.18,0,0,1-.12-.07.17.17,0,0,1,0-.1v-3.1a2.44,2.44,0,0,0-.05-.48,1.25,1.25,0,0,0-.16-.37.72.72,0,0,0-.25-.24.87.87,0,0,0-.37-.08.93.93,0,0,0-.54.2,3.73,3.73,0,0,0-.58.6v3.47a.13.13,0,0,1,0,.1.18.18,0,0,1-.12.07.9.9,0,0,1-.22,0h-.71l-.23,0a.24.24,0,0,1-.12-.07.17.17,0,0,1,0-.1v-3.1a2.44,2.44,0,0,0,0-.48A1,1,0,0,0,68,56a.75.75,0,0,0-.26-.24.84.84,0,0,0-.37-.08.93.93,0,0,0-.54.2,3.34,3.34,0,0,0-.57.6v3.47a.19.19,0,0,1-.16.17,1,1,0,0,1-.23,0h-.71a.9.9,0,0,1-.22,0,.18.18,0,0,1-.12-.07.13.13,0,0,1,0-.1V54.71a.17.17,0,0,1,0-.1.21.21,0,0,1,.1-.08l.2,0,.3,0,.31,0a.69.69,0,0,1,.19,0,.21.21,0,0,1,.1.08.17.17,0,0,1,0,.1v.6a3.53,3.53,0,0,1,.86-.7,1.84,1.84,0,0,1,.9-.24,2.49,2.49,0,0,1,.58.07,1.73,1.73,0,0,1,.46.2,1.43,1.43,0,0,1,.35.3,1.51,1.51,0,0,1,.24.39,4.45,4.45,0,0,1,.46-.43,2.35,2.35,0,0,1,.45-.3,1.82,1.82,0,0,1,.44-.17,1.61,1.61,0,0,1,.44-.06,1.94,1.94,0,0,1,.88.18,1.61,1.61,0,0,1,.58.48,1.94,1.94,0,0,1,.31.7,4,4,0,0,1,.1.86Z"/><path class="cls-5" d="M79.48,59.93a.17.17,0,0,1,0,.1.15.15,0,0,1-.1.07.74.74,0,0,1-.19,0h-.62a.74.74,0,0,1-.19,0,.18.18,0,0,1-.1-.07.17.17,0,0,1,0-.1v-.6a3.26,3.26,0,0,1-.88.7,1.9,1.9,0,0,1-.92.23,2.24,2.24,0,0,1-.91-.17,1.64,1.64,0,0,1-.59-.48,1.91,1.91,0,0,1-.32-.71,4.06,4.06,0,0,1-.1-1V54.71a.17.17,0,0,1,0-.1.28.28,0,0,1,.12-.08l.23,0,.35,0,.36,0,.23,0a.36.36,0,0,1,.12.08.17.17,0,0,1,0,.1v2.95a3.13,3.13,0,0,0,0,.62,1.32,1.32,0,0,0,.16.38.92.92,0,0,0,.28.24.93.93,0,0,0,.39.08,1,1,0,0,0,.56-.2,3.4,3.4,0,0,0,.61-.6V54.71a.17.17,0,0,1,0-.1.23.23,0,0,1,.12-.08l.22,0,.36,0,.36,0a1,1,0,0,1,.22,0,.28.28,0,0,1,.12.08.17.17,0,0,1,0,.1Z"/><path class="cls-5" d="M84.91,59.1v.25q0,.1,0,.18l0,.11-.09.11a1.09,1.09,0,0,1-.24.16,2,2,0,0,1-.39.18,2.93,2.93,0,0,1-.47.12,3,3,0,0,1-.52,0,2.92,2.92,0,0,1-1.07-.19,2.09,2.09,0,0,1-.78-.55,2.36,2.36,0,0,1-.48-.9,4,4,0,0,1-.16-1.2,4.25,4.25,0,0,1,.19-1.36,2.63,2.63,0,0,1,.55-.94,2.14,2.14,0,0,1,.83-.56,3,3,0,0,1,1.06-.18,2.45,2.45,0,0,1,.46,0l.42.11.35.16.22.15.09.11a.34.34,0,0,1,0,.12.72.72,0,0,1,0,.17,1.85,1.85,0,0,1,0,.25,1.29,1.29,0,0,1-.06.47c0,.1-.09.14-.15.14a.37.37,0,0,1-.21-.08,2,2,0,0,0-.26-.18,1.59,1.59,0,0,0-.37-.18,1.28,1.28,0,0,0-.5-.09,1,1,0,0,0-.88.45,2.28,2.28,0,0,0-.3,1.29,3.42,3.42,0,0,0,.07.75,1.52,1.52,0,0,0,.23.53.9.9,0,0,0,.37.33,1.25,1.25,0,0,0,.53.11,1.35,1.35,0,0,0,.52-.09,2.36,2.36,0,0,0,.39-.2l.27-.21a.32.32,0,0,1,.19-.09.16.16,0,0,1,.09,0,.23.23,0,0,1,.05.11.94.94,0,0,1,0,.2A2.92,2.92,0,0,1,84.91,59.1Z"/><path class="cls-5" d="M91,59.93a.19.19,0,0,1-.16.17.9.9,0,0,1-.22,0h-.72a.9.9,0,0,1-.22,0,.2.2,0,0,1-.12-.07.17.17,0,0,1,0-.1V57a2.41,2.41,0,0,0-.06-.6,1.25,1.25,0,0,0-.16-.37.78.78,0,0,0-.27-.24.93.93,0,0,0-.39-.08,1,1,0,0,0-.57.2,3.38,3.38,0,0,0-.6.6v3.47a.17.17,0,0,1,0,.1.18.18,0,0,1-.12.07,1,1,0,0,1-.23,0h-.71l-.23,0A.24.24,0,0,1,86,60a.17.17,0,0,1,0-.1v-7.7a.17.17,0,0,1,0-.1.36.36,0,0,1,.12-.08l.23,0,.36,0,.35,0a1,1,0,0,1,.23,0,.23.23,0,0,1,.12.08.17.17,0,0,1,0,.1v2.89a2.92,2.92,0,0,1,.78-.56,2,2,0,0,1,.82-.19,2,2,0,0,1,.9.18,1.64,1.64,0,0,1,.59.48,2,2,0,0,1,.33.71,4.58,4.58,0,0,1,.1,1Z"/><path class="cls-5" d="M97.69,57.27a4.16,4.16,0,0,1-.17,1.21,2.54,2.54,0,0,1-.54,1,2.38,2.38,0,0,1-.89.62,3.47,3.47,0,0,1-1.26.21,3.38,3.38,0,0,1-1.21-.19,2.25,2.25,0,0,1-.86-.56,2.43,2.43,0,0,1-.5-.91,4.22,4.22,0,0,1-.16-1.23,4,4,0,0,1,.17-1.22,2.62,2.62,0,0,1,.54-.95,2.57,2.57,0,0,1,.89-.61A3.46,3.46,0,0,1,95,54.37a3.72,3.72,0,0,1,1.22.19,2.29,2.29,0,0,1,.85.56,2.43,2.43,0,0,1,.5.91A4.24,4.24,0,0,1,97.69,57.27Zm-1.51,0a4,4,0,0,0-.07-.71,1.85,1.85,0,0,0-.2-.56,1.09,1.09,0,0,0-.39-.38,1.27,1.27,0,0,0-.62-.13,1.32,1.32,0,0,0-.57.12,1,1,0,0,0-.4.35,1.51,1.51,0,0,0-.24.56,3.55,3.55,0,0,0,0,1.45,1.85,1.85,0,0,0,.2.56,1.09,1.09,0,0,0,.39.38,1.41,1.41,0,0,0,.61.13,1.31,1.31,0,0,0,.58-.12,1,1,0,0,0,.4-.35,1.53,1.53,0,0,0,.24-.55A3.38,3.38,0,0,0,96.18,57.32Z"/><path class="cls-5" d="M106.82,57.24a4.84,4.84,0,0,1-.15,1.26,2.86,2.86,0,0,1-.43,1,1.9,1.9,0,0,1-.72.6,2.16,2.16,0,0,1-1,.21,1.76,1.76,0,0,1-.42,0,1.66,1.66,0,0,1-.37-.14,2.32,2.32,0,0,1-.36-.22l-.36-.32V62a.2.2,0,0,1,0,.11.62.62,0,0,1-.12.08l-.23.05H102l-.23-.05a.31.31,0,0,1-.12-.08.2.2,0,0,1,0-.11V54.71a.2.2,0,0,1,.13-.18l.19,0,.3,0,.3,0,.19,0a.21.21,0,0,1,.1.08.17.17,0,0,1,0,.1v.61c.16-.15.3-.29.45-.41a2.93,2.93,0,0,1,.45-.3,2.07,2.07,0,0,1,.47-.18,2.12,2.12,0,0,1,.52-.06,2,2,0,0,1,1,.23,1.92,1.92,0,0,1,.65.62,2.77,2.77,0,0,1,.38.91A5.65,5.65,0,0,1,106.82,57.24Zm-1.53.11a4.37,4.37,0,0,0-.05-.64,1.77,1.77,0,0,0-.17-.55,1,1,0,0,0-.32-.38.77.77,0,0,0-.49-.15.92.92,0,0,0-.28,0,1,1,0,0,0-.3.14,2.25,2.25,0,0,0-.31.26,3.68,3.68,0,0,0-.33.39v1.72a3.85,3.85,0,0,0,.59.61,1,1,0,0,0,.59.21.81.81,0,0,0,.49-.15,1.12,1.12,0,0,0,.33-.38,2.22,2.22,0,0,0,.19-.53A3.05,3.05,0,0,0,105.29,57.35Z"/><path class="cls-5" d="M112.82,57.17a.54.54,0,0,1-.12.39.42.42,0,0,1-.33.13h-3.18a2.25,2.25,0,0,0,.08.61,1.21,1.21,0,0,0,.25.46,1.06,1.06,0,0,0,.45.29,1.81,1.81,0,0,0,.65.1,4.4,4.4,0,0,0,.68,0,4.71,4.71,0,0,0,.51-.13l.35-.12a.6.6,0,0,1,.23-.06l.09,0a.16.16,0,0,1,0,.08.39.39,0,0,1,0,.15c0,.06,0,.14,0,.24s0,.16,0,.22a.61.61,0,0,1,0,.15.81.81,0,0,1,0,.11l-.06.09-.21.11a3.64,3.64,0,0,1-.43.14c-.18,0-.38.08-.61.11a4.14,4.14,0,0,1-.72,0,4,4,0,0,1-1.22-.17,2.25,2.25,0,0,1-.88-.54,2.1,2.1,0,0,1-.52-.9,4,4,0,0,1-.18-1.27,3.79,3.79,0,0,1,.19-1.26,2.64,2.64,0,0,1,.52-.95,2.29,2.29,0,0,1,.84-.59,2.83,2.83,0,0,1,1.12-.21,2.91,2.91,0,0,1,1.12.2,2,2,0,0,1,1.2,1.34,3.4,3.4,0,0,1,.14,1Zm-1.43-.42a1.59,1.59,0,0,0-.24-1,1,1,0,0,0-.83-.35,1.1,1.1,0,0,0-.49.1,1,1,0,0,0-.34.29,1.27,1.27,0,0,0-.21.42,2.09,2.09,0,0,0-.09.52Z"/><path class="cls-5" d="M117.39,55.19c0,.14,0,.26,0,.35a.87.87,0,0,1,0,.21.36.36,0,0,1-.06.11l-.1,0a.2.2,0,0,1-.1,0l-.14,0-.16,0a.55.55,0,0,0-.19,0,.52.52,0,0,0-.24.05.87.87,0,0,0-.26.15,1.45,1.45,0,0,0-.27.28,3.64,3.64,0,0,0-.31.44v3.25a.13.13,0,0,1,0,.1.18.18,0,0,1-.12.07.9.9,0,0,1-.22,0h-.72a.9.9,0,0,1-.22,0,.18.18,0,0,1-.12-.07.13.13,0,0,1,0-.1V54.71a.17.17,0,0,1,0-.1.24.24,0,0,1,.11-.08l.19,0,.3,0,.32,0,.19,0a.24.24,0,0,1,.09.08.17.17,0,0,1,0,.1v.65a3.63,3.63,0,0,1,.39-.48,2.33,2.33,0,0,1,.34-.31,1.21,1.21,0,0,1,.33-.15,1.26,1.26,0,0,1,.33-.05h.16l.18,0,.17.05.1.06a.15.15,0,0,1,0,.06.25.25,0,0,1,0,.1.74.74,0,0,1,0,.18C117.38,54.94,117.39,55.05,117.39,55.19Z"/><path class="cls-5" d="M123.43,57.27a3.84,3.84,0,0,1-.18,1.21,2.52,2.52,0,0,1-.53,1,2.42,2.42,0,0,1-.9.62,3.92,3.92,0,0,1-2.47,0,2.22,2.22,0,0,1-.85-.56,2.32,2.32,0,0,1-.51-.91,4.58,4.58,0,0,1-.16-1.23,4,4,0,0,1,.18-1.22,2.62,2.62,0,0,1,.54-.95,2.39,2.39,0,0,1,.89-.61,3.37,3.37,0,0,1,1.25-.22,3.68,3.68,0,0,1,1.22.19,2.22,2.22,0,0,1,.85.56,2.3,2.3,0,0,1,.5.91A4.22,4.22,0,0,1,123.43,57.27Zm-1.52,0a4,4,0,0,0-.06-.71,1.63,1.63,0,0,0-.21-.56,1.09,1.09,0,0,0-.39-.38,1.23,1.23,0,0,0-.61-.13,1.26,1.26,0,0,0-.57.12,1.07,1.07,0,0,0-.41.35,1.69,1.69,0,0,0-.23.56,2.75,2.75,0,0,0-.08.74,4,4,0,0,0,.06.71,1.63,1.63,0,0,0,.21.56A1,1,0,0,0,120,59a1.38,1.38,0,0,0,.61.13,1.34,1.34,0,0,0,.58-.12,1,1,0,0,0,.4-.35,1.52,1.52,0,0,0,.23-.55A2.88,2.88,0,0,0,121.91,57.32Z"/><path class="cls-5" d="M32.15,73.86a1.92,1.92,0,0,1,0,.39.41.41,0,0,1-.09.2.65.65,0,0,1-.15.1l-.24.07-.3,0-.33,0a2.49,2.49,0,0,1-.76-.11,1.38,1.38,0,0,1-.53-.34,1.51,1.51,0,0,1-.31-.59,2.9,2.9,0,0,1-.1-.83V70.15h-.63a.2.2,0,0,1-.17-.14,1.62,1.62,0,0,1-.05-.46,2.53,2.53,0,0,1,0-.29.69.69,0,0,1,0-.18.21.21,0,0,1,.08-.1.17.17,0,0,1,.1,0h.62V67.79a.2.2,0,0,1,0-.11.23.23,0,0,1,.12-.08l.23,0,.35,0,.36,0,.23,0a.24.24,0,0,1,.11.08.15.15,0,0,1,0,.11V69h1.13A.2.2,0,0,1,32,69a.2.2,0,0,1,.07.1.69.69,0,0,1,0,.18,2.33,2.33,0,0,1,0,.29,1.27,1.27,0,0,1-.06.46.2.2,0,0,1-.17.14H30.78V72.6a1.22,1.22,0,0,0,.13.64.53.53,0,0,0,.48.21.68.68,0,0,0,.21,0l.17,0,.12,0,.1,0,.06,0a.12.12,0,0,1,.05.08s0,.1,0,.17A1.87,1.87,0,0,1,32.15,73.86Z"/><path class="cls-5" d="M37.89,71.61a.58.58,0,0,1-.12.4.45.45,0,0,1-.33.13H34.26a2.23,2.23,0,0,0,.08.6,1.25,1.25,0,0,0,.25.47,1.15,1.15,0,0,0,.45.28,1.81,1.81,0,0,0,.65.1,3.49,3.49,0,0,0,.68,0l.5-.12.36-.13a.8.8,0,0,1,.23-.05.11.11,0,0,1,.08,0,.11.11,0,0,1,.06.07.54.54,0,0,1,0,.15v.46c0,.06,0,.11,0,.16l0,.11-.07.08a.62.62,0,0,1-.2.11,3.88,3.88,0,0,1-.44.14l-.6.12a5.58,5.58,0,0,1-.73,0,3.78,3.78,0,0,1-1.22-.18,2.19,2.19,0,0,1-.87-.53,2.23,2.23,0,0,1-.52-.9,4.12,4.12,0,0,1-.18-1.28,4.06,4.06,0,0,1,.18-1.25,2.73,2.73,0,0,1,.53-.95,2.31,2.31,0,0,1,.84-.6,3,3,0,0,1,1.12-.2,2.92,2.92,0,0,1,1.12.19,2,2,0,0,1,.76.54,2.13,2.13,0,0,1,.44.81,3.64,3.64,0,0,1,.14,1Zm-1.43-.42a1.52,1.52,0,0,0-.25-1A1.14,1.14,0,0,0,34.9,70a.93.93,0,0,0-.34.28,1.38,1.38,0,0,0-.21.42,2.18,2.18,0,0,0-.09.52Z"/><path class="cls-5" d="M44.09,74.37a.15.15,0,0,1,0,.11.35.35,0,0,1-.11.07l-.23,0-.35,0-.36,0-.23,0-.12-.07a.2.2,0,0,1,0-.11v-3a2.27,2.27,0,0,0-.06-.59,1.09,1.09,0,0,0-.16-.38.67.67,0,0,0-.27-.23.8.8,0,0,0-.39-.09,1,1,0,0,0-.57.2,3.06,3.06,0,0,0-.59.6v3.47a.15.15,0,0,1,0,.11.31.31,0,0,1-.12.07l-.22,0-.36,0-.36,0a1,1,0,0,1-.22,0,.31.31,0,0,1-.12-.07.15.15,0,0,1,0-.11V69.15a.17.17,0,0,1,0-.1.23.23,0,0,1,.11-.07.74.74,0,0,1,.19,0H40a.56.56,0,0,1,.19,0,.2.2,0,0,1,.1.07.17.17,0,0,1,0,.1v.6a3.42,3.42,0,0,1,.88-.7,2.06,2.06,0,0,1,.93-.23,2.16,2.16,0,0,1,.9.17,1.56,1.56,0,0,1,.59.48,2,2,0,0,1,.33.71,3.91,3.91,0,0,1,.1,1Z"/><path class="cls-5" d="M50.24,69.51a1.1,1.1,0,0,1-.06.42c0,.09-.1.13-.16.13H49.4a.88.88,0,0,1,.19.32,1.58,1.58,0,0,1,0,.38,2.09,2.09,0,0,1-.15.81,1.61,1.61,0,0,1-.44.59,1.72,1.72,0,0,1-.68.37,2.77,2.77,0,0,1-.89.13A1.86,1.86,0,0,1,47,72.6a1,1,0,0,1-.35-.15.83.83,0,0,0-.13.18.48.48,0,0,0-.06.24.35.35,0,0,0,.15.28.8.8,0,0,0,.42.12l1.27,0a3.72,3.72,0,0,1,.8.13,1.68,1.68,0,0,1,.58.3,1.26,1.26,0,0,1,.36.47,1.45,1.45,0,0,1,.13.63,1.66,1.66,0,0,1-.17.73,1.51,1.51,0,0,1-.51.59,2.68,2.68,0,0,1-.85.4,4.28,4.28,0,0,1-1.2.15,5.37,5.37,0,0,1-1.14-.11,2.38,2.38,0,0,1-.77-.29,1.12,1.12,0,0,1-.44-.45,1.2,1.2,0,0,1-.14-.57,1.5,1.5,0,0,1,0-.37,2,2,0,0,1,.15-.33,1.72,1.72,0,0,1,.24-.31,2.21,2.21,0,0,1,.32-.28.93.93,0,0,1-.39-.37,1,1,0,0,1-.14-.5,1.34,1.34,0,0,1,.16-.63,2.24,2.24,0,0,1,.41-.52,1.41,1.41,0,0,1-.33-.49,1.85,1.85,0,0,1-.12-.71,1.94,1.94,0,0,1,.16-.82,1.83,1.83,0,0,1,.45-.61,2.14,2.14,0,0,1,.68-.38,3.06,3.06,0,0,1,.88-.13,3.48,3.48,0,0,1,.47,0l.42.08H50a.2.2,0,0,1,.16.13A1.12,1.12,0,0,1,50.24,69.51Zm-1.55,5.41a.47.47,0,0,0-.21-.41,1.15,1.15,0,0,0-.58-.15l-1,0a1.94,1.94,0,0,0-.25.22.77.77,0,0,0-.14.19.71.71,0,0,0-.08.18,1.09,1.09,0,0,0,0,.18.49.49,0,0,0,.29.45,1.91,1.91,0,0,0,.84.15,1.82,1.82,0,0,0,.56-.07,1.15,1.15,0,0,0,.37-.17.76.76,0,0,0,.2-.25A.71.71,0,0,0,48.69,74.92Zm-.34-4.17a.82.82,0,0,0-.9-.89.92.92,0,0,0-.38.07.79.79,0,0,0-.27.2,1,1,0,0,0-.16.29,1.41,1.41,0,0,0,0,.35.85.85,0,0,0,.23.63.86.86,0,0,0,.65.23.94.94,0,0,0,.39-.07.66.66,0,0,0,.27-.19.78.78,0,0,0,.16-.28A1,1,0,0,0,48.35,70.75Z"/><path class="cls-5" d="M56.38,71.71a4,4,0,0,1-.18,1.22,2.54,2.54,0,0,1-.53.95,2.36,2.36,0,0,1-.89.61,3.46,3.46,0,0,1-1.26.22,3.37,3.37,0,0,1-1.21-.2,2.14,2.14,0,0,1-.86-.56A2.36,2.36,0,0,1,51,73a4.11,4.11,0,0,1-.17-1.23A4,4,0,0,1,51,70.59a2.57,2.57,0,0,1,.54-.94,2.38,2.38,0,0,1,.89-.62,3.47,3.47,0,0,1,1.26-.21,3.42,3.42,0,0,1,1.21.19,2.14,2.14,0,0,1,.86.56,2.39,2.39,0,0,1,.5.9A4.66,4.66,0,0,1,56.38,71.71Zm-1.52.06a3.84,3.84,0,0,0-.06-.71,1.61,1.61,0,0,0-.21-.57,1,1,0,0,0-.38-.37,1.43,1.43,0,0,0-1.19,0,1,1,0,0,0-.4.35,1.58,1.58,0,0,0-.24.56,3.29,3.29,0,0,0-.08.74,3.84,3.84,0,0,0,.06.71,2.12,2.12,0,0,0,.21.57,1.06,1.06,0,0,0,.39.37,1.28,1.28,0,0,0,.61.13,1.31,1.31,0,0,0,.58-.12,1,1,0,0,0,.4-.35,1.46,1.46,0,0,0,.24-.55A3.32,3.32,0,0,0,54.86,71.77Z"/><path class="cls-5" d="M65.21,74.37a.2.2,0,0,1,0,.11.35.35,0,0,1-.11.07.69.69,0,0,1-.19,0l-.3,0-.31,0a.69.69,0,0,1-.19,0,.29.29,0,0,1-.1-.07.2.2,0,0,1,0-.11v-.6a3.22,3.22,0,0,1-.88.7,2,2,0,0,1-.93.24,2,2,0,0,1-.9-.18,1.6,1.6,0,0,1-.6-.48,2,2,0,0,1-.32-.7,4.68,4.68,0,0,1-.09-1v-3.2a.17.17,0,0,1,0-.1.23.23,0,0,1,.11-.07l.23,0h.71a1,1,0,0,1,.23,0,.22.22,0,0,1,.12.07.17.17,0,0,1,0,.1V72.1a2.57,2.57,0,0,0,.06.63,1,1,0,0,0,.16.37.78.78,0,0,0,.27.24.8.8,0,0,0,.39.08.94.94,0,0,0,.57-.2,3.38,3.38,0,0,0,.6-.6V69.15a.13.13,0,0,1,0-.1.23.23,0,0,1,.11-.07,1,1,0,0,1,.23,0h.71a.8.8,0,0,1,.22,0,.22.22,0,0,1,.12.07.18.18,0,0,1,0,.1Z"/><path class="cls-5" d="M71.67,74.37a.2.2,0,0,1,0,.11.31.31,0,0,1-.12.07,1,1,0,0,1-.22,0l-.36,0-.36,0a1,1,0,0,1-.22,0,.31.31,0,0,1-.12-.07.21.21,0,0,1,0-.11v-3a2.34,2.34,0,0,0,0-.59,1.32,1.32,0,0,0-.16-.38.67.67,0,0,0-.27-.23.8.8,0,0,0-.39-.09,1,1,0,0,0-.57.2,3.38,3.38,0,0,0-.6.6v3.47a.2.2,0,0,1,0,.11l-.12.07-.23,0-.36,0-.35,0-.23,0-.12-.07a.2.2,0,0,1,0-.11V69.15a.17.17,0,0,1,0-.1.2.2,0,0,1,.1-.07.83.83,0,0,1,.2,0h.61a.64.64,0,0,1,.19,0,.26.26,0,0,1,.1.07.17.17,0,0,1,0,.1v.6a3.26,3.26,0,0,1,.88-.7,2.06,2.06,0,0,1,.93-.23,2.22,2.22,0,0,1,.9.17,1.64,1.64,0,0,1,.59.48,1.84,1.84,0,0,1,.32.71,3.91,3.91,0,0,1,.1,1Z"/><path class="cls-5" d="M84.14,74.37a.21.21,0,0,1,0,.11.31.31,0,0,1-.12.07,1,1,0,0,1-.22,0l-.36,0-.36,0a1,1,0,0,1-.22,0,.31.31,0,0,1-.12-.07.2.2,0,0,1,0-.11V71.28a2.28,2.28,0,0,0,0-.48,1.32,1.32,0,0,0-.16-.38.61.61,0,0,0-.25-.23.75.75,0,0,0-.37-.09.93.93,0,0,0-.54.2,3.73,3.73,0,0,0-.58.6v3.47a.15.15,0,0,1,0,.11.31.31,0,0,1-.12.07,1,1,0,0,1-.22,0l-.35,0-.36,0-.23,0-.12-.07a.2.2,0,0,1,0-.11V71.28a2.28,2.28,0,0,0,0-.48,1.08,1.08,0,0,0-.15-.38.64.64,0,0,0-.26-.23.72.72,0,0,0-.37-.09.93.93,0,0,0-.54.2,3.34,3.34,0,0,0-.57.6v3.47a.21.21,0,0,1,0,.11.31.31,0,0,1-.12.07l-.23,0-.35,0-.36,0a1,1,0,0,1-.22,0,.5.5,0,0,1-.13-.07.2.2,0,0,1,0-.11V69.15a.17.17,0,0,1,0-.1A.2.2,0,0,1,76,69a1,1,0,0,1,.2,0h.61A.64.64,0,0,1,77,69a.2.2,0,0,1,.1.07.17.17,0,0,1,0,.1v.6a3.53,3.53,0,0,1,.86-.7,1.94,1.94,0,0,1,.9-.23,2,2,0,0,1,.58.07,1.52,1.52,0,0,1,.81.49,2,2,0,0,1,.24.39,4.45,4.45,0,0,1,.46-.43,2.93,2.93,0,0,1,.45-.3,2.35,2.35,0,0,1,.44-.17,2.12,2.12,0,0,1,.44-.05,2.09,2.09,0,0,1,.88.17,1.61,1.61,0,0,1,.58.48,2,2,0,0,1,.31.71,3.88,3.88,0,0,1,.1.85Z"/><path class="cls-5" d="M90,74.39a.16.16,0,0,1-.06.13.52.52,0,0,1-.18.07l-.38,0-.38,0a.46.46,0,0,1-.17-.07.19.19,0,0,1,0-.13V74a2.24,2.24,0,0,1-.73.54,2.14,2.14,0,0,1-.92.2,2.58,2.58,0,0,1-.76-.11,1.78,1.78,0,0,1-.61-.32,1.46,1.46,0,0,1-.39-.53,1.88,1.88,0,0,1-.14-.74,1.62,1.62,0,0,1,.18-.79,1.42,1.42,0,0,1,.53-.56,2.84,2.84,0,0,1,.88-.33,6.33,6.33,0,0,1,1.22-.1h.51v-.32a1.45,1.45,0,0,0,0-.43.62.62,0,0,0-.16-.3.67.67,0,0,0-.3-.19,2.14,2.14,0,0,0-.48,0,2.18,2.18,0,0,0-.65.08,2.86,2.86,0,0,0-.52.18l-.37.18a.48.48,0,0,1-.24.08.19.19,0,0,1-.12,0,.28.28,0,0,1-.08-.12.78.78,0,0,1,0-.18,2,2,0,0,1,0-.25,2.19,2.19,0,0,1,0-.29.44.44,0,0,1,.12-.19,1.36,1.36,0,0,1,.28-.18,3.69,3.69,0,0,1,.48-.19,5.26,5.26,0,0,1,.6-.15,4.91,4.91,0,0,1,.67-.05,4,4,0,0,1,1,.12,1.76,1.76,0,0,1,.72.37,1.34,1.34,0,0,1,.41.64,2.86,2.86,0,0,1,.13.93Zm-1.45-2.24H88a2.68,2.68,0,0,0-.61.06,1,1,0,0,0-.41.16.68.68,0,0,0-.23.25.74.74,0,0,0-.07.34.67.67,0,0,0,.21.52.85.85,0,0,0,.57.18,1.1,1.1,0,0,0,.57-.15,2.24,2.24,0,0,0,.53-.47Z"/><path class="cls-5" d="M94.48,73.86a1.92,1.92,0,0,1,0,.39.54.54,0,0,1-.09.2.65.65,0,0,1-.15.1l-.24.07-.3,0-.33,0a2.49,2.49,0,0,1-.76-.11,1.38,1.38,0,0,1-.53-.34,1.51,1.51,0,0,1-.31-.59,2.9,2.9,0,0,1-.1-.83V70.15H91a.2.2,0,0,1-.17-.14,1.27,1.27,0,0,1-.06-.46,2.33,2.33,0,0,1,0-.29.69.69,0,0,1,0-.18.21.21,0,0,1,.08-.1.17.17,0,0,1,.1,0h.62V67.79a.2.2,0,0,1,0-.11.23.23,0,0,1,.12-.08l.23,0,.35,0,.36,0,.23,0a.24.24,0,0,1,.11.08.15.15,0,0,1,0,.11V69h1.13a.2.2,0,0,1,.11,0,.2.2,0,0,1,.07.1.69.69,0,0,1,0,.18,2.33,2.33,0,0,1,0,.29,1.27,1.27,0,0,1-.06.46.2.2,0,0,1-.17.14H93.11V72.6a1.22,1.22,0,0,0,.13.64.53.53,0,0,0,.48.21.68.68,0,0,0,.21,0l.17,0,.12,0,.09,0,.07,0a.12.12,0,0,1,.05.08s0,.1,0,.17A1.87,1.87,0,0,1,94.48,73.86Z"/><path class="cls-5" d="M100.22,71.61a.58.58,0,0,1-.12.4.45.45,0,0,1-.33.13H96.59a2.23,2.23,0,0,0,.08.6,1.25,1.25,0,0,0,.25.47,1.15,1.15,0,0,0,.45.28,1.81,1.81,0,0,0,.65.1,3.49,3.49,0,0,0,.68,0l.5-.12.36-.13a.8.8,0,0,1,.23-.05.11.11,0,0,1,.08,0,.11.11,0,0,1,.06.07.54.54,0,0,1,0,.15v.46c0,.06,0,.11,0,.16l0,.11-.07.08a.62.62,0,0,1-.2.11,3.88,3.88,0,0,1-.44.14l-.6.12a5.58,5.58,0,0,1-.73,0,3.78,3.78,0,0,1-1.22-.18,2.19,2.19,0,0,1-.87-.53,2.23,2.23,0,0,1-.52-.9,4.12,4.12,0,0,1-.18-1.28,4.06,4.06,0,0,1,.18-1.25,2.73,2.73,0,0,1,.53-.95,2.31,2.31,0,0,1,.84-.6,3,3,0,0,1,1.12-.2,2.92,2.92,0,0,1,1.12.19,2,2,0,0,1,.76.54,2.13,2.13,0,0,1,.44.81,3.64,3.64,0,0,1,.14,1Zm-1.43-.42a1.52,1.52,0,0,0-.25-1A1.14,1.14,0,0,0,97.23,70a.93.93,0,0,0-.34.28,1.38,1.38,0,0,0-.21.42,2.18,2.18,0,0,0-.09.52Z"/><path class="cls-5" d="M104.79,69.64a3,3,0,0,1,0,.34,1,1,0,0,1,0,.21.36.36,0,0,1-.06.11.17.17,0,0,1-.1,0l-.1,0-.14,0-.16,0-.19,0a.79.79,0,0,0-.25,0,1,1,0,0,0-.25.15,2,2,0,0,0-.28.29,5.08,5.08,0,0,0-.3.43v3.25a.15.15,0,0,1,0,.11.31.31,0,0,1-.12.07l-.22,0-.36,0-.36,0a1,1,0,0,1-.22,0,.31.31,0,0,1-.12-.07.15.15,0,0,1,0-.11V69.15a.17.17,0,0,1,0-.1.23.23,0,0,1,.11-.07.74.74,0,0,1,.19,0h.61a.56.56,0,0,1,.19,0,.2.2,0,0,1,.1.07.17.17,0,0,1,0,.1v.65a4.23,4.23,0,0,1,.39-.48,1.78,1.78,0,0,1,.34-.3,1,1,0,0,1,.33-.16,1.24,1.24,0,0,1,.33,0h.16a.57.57,0,0,1,.18,0l.17,0,.1.06,0,.06s0,.06,0,.1a.74.74,0,0,1,0,.18C104.78,69.39,104.79,69.5,104.79,69.64Z"/><path class="cls-5" d="M107.28,67.38a.83.83,0,0,1-.18.62,1,1,0,0,1-.68.17,1,1,0,0,1-.67-.17.8.8,0,0,1-.17-.59.82.82,0,0,1,.18-.61,1,1,0,0,1,.68-.18,1,1,0,0,1,.66.17A.79.79,0,0,1,107.28,67.38Zm-.11,7a.15.15,0,0,1,0,.11.31.31,0,0,1-.12.07,1,1,0,0,1-.22,0l-.36,0-.36,0a1,1,0,0,1-.22,0,.31.31,0,0,1-.12-.07.15.15,0,0,1,0-.11V69.16a.13.13,0,0,1,0-.1.31.31,0,0,1,.12-.08,1,1,0,0,1,.22,0,3.25,3.25,0,0,1,.72,0,1,1,0,0,1,.22,0,.31.31,0,0,1,.12.08.13.13,0,0,1,0,.1Z"/><path class="cls-5" d="M113.08,74.39a.15.15,0,0,1,0,.13.5.5,0,0,1-.19.07l-.37,0-.38,0a.39.39,0,0,1-.17-.07.15.15,0,0,1,0-.13V74a2.27,2.27,0,0,1-.74.54,2.09,2.09,0,0,1-.91.2,2.7,2.7,0,0,1-.77-.11,1.73,1.73,0,0,1-.6-.32,1.61,1.61,0,0,1-.4-.53,1.88,1.88,0,0,1-.13-.74,1.62,1.62,0,0,1,.17-.79,1.45,1.45,0,0,1,.54-.56,2.74,2.74,0,0,1,.88-.33,6.33,6.33,0,0,1,1.22-.1h.51v-.32a1.88,1.88,0,0,0,0-.43.72.72,0,0,0-.16-.3.65.65,0,0,0-.31-.19,2,2,0,0,0-.47,0A2.21,2.21,0,0,0,110,70a3,3,0,0,0-.51.18l-.37.18a.48.48,0,0,1-.25.08.15.15,0,0,1-.11,0,.28.28,0,0,1-.08-.12.78.78,0,0,1,0-.18,2,2,0,0,1,0-.25,1.17,1.17,0,0,1,0-.29.52.52,0,0,1,.11-.19,1.5,1.5,0,0,1,.29-.18,3.2,3.2,0,0,1,.48-.19,4.38,4.38,0,0,1,.6-.15,4.8,4.8,0,0,1,.67-.05,4,4,0,0,1,1,.12,1.76,1.76,0,0,1,.72.37A1.51,1.51,0,0,1,113,70a3.18,3.18,0,0,1,.12.93Zm-1.44-2.24h-.56a2.68,2.68,0,0,0-.61.06.9.9,0,0,0-.41.16.61.61,0,0,0-.23.25.74.74,0,0,0-.08.34.67.67,0,0,0,.21.52.86.86,0,0,0,.58.18,1.1,1.1,0,0,0,.57-.15,2.45,2.45,0,0,0,.53-.47Z"/><path class="cls-5" d="M116,74.37a.15.15,0,0,1,0,.11.31.31,0,0,1-.12.07,1,1,0,0,1-.22,0l-.36,0-.35,0-.23,0a.31.31,0,0,1-.12-.07.21.21,0,0,1,0-.11V66.68a.21.21,0,0,1,0-.11.23.23,0,0,1,.12-.08,1,1,0,0,1,.23,0l.35,0,.36,0a.9.9,0,0,1,.22,0,.23.23,0,0,1,.12.08.15.15,0,0,1,0,.11Z"/><path class="cls-5" d="M32.57,90.89a.18.18,0,0,1,0,.1.23.23,0,0,1-.12.08.9.9,0,0,1-.22.05l-.36,0-.35,0a1,1,0,0,1-.23-.05.23.23,0,0,1-.12-.08.17.17,0,0,1,0-.1V88.41c-.14.12-.28.24-.41.33a1.85,1.85,0,0,1-.4.24,1.79,1.79,0,0,1-.41.13,2.06,2.06,0,0,1-.44,0,2,2,0,0,1-1-.23,1.9,1.9,0,0,1-.66-.63,2.76,2.76,0,0,1-.37-.91,5,5,0,0,1-.11-1.1A4.44,4.44,0,0,1,27.47,85a3,3,0,0,1,.44-1,2.07,2.07,0,0,1,.72-.6,2.25,2.25,0,0,1,1-.21,1.93,1.93,0,0,1,.42,0,1,1,0,0,1,.39.15,2.36,2.36,0,0,1,.42.28,5.33,5.33,0,0,1,.47.42v-.57a.19.19,0,0,1,0-.1.23.23,0,0,1,.11-.07.64.64,0,0,1,.19,0h.6a.74.74,0,0,1,.19,0,.26.26,0,0,1,.1.07.19.19,0,0,1,0,.1ZM31.1,85.33a3.16,3.16,0,0,0-.6-.61,1,1,0,0,0-.61-.21.86.86,0,0,0-.49.14,1.14,1.14,0,0,0-.34.38,2.63,2.63,0,0,0-.19.54,3.08,3.08,0,0,0-.06.61,3.47,3.47,0,0,0,.06.64,1.77,1.77,0,0,0,.17.55,1,1,0,0,0,.32.39.87.87,0,0,0,.5.14,1,1,0,0,0,.3,0,1.53,1.53,0,0,0,.29-.14,2.38,2.38,0,0,0,.31-.27,3.64,3.64,0,0,0,.34-.39Z"/><path class="cls-5" d="M39,88.82a.19.19,0,0,1,0,.1.26.26,0,0,1-.1.07.83.83,0,0,1-.2.05h-.61a.64.64,0,0,1-.19-.05.2.2,0,0,1-.1-.07.19.19,0,0,1,0-.1v-.61a3.22,3.22,0,0,1-.88.7,2,2,0,0,1-.93.24A2,2,0,0,1,35,89a1.4,1.4,0,0,1-.59-.48,1.81,1.81,0,0,1-.33-.7,4.68,4.68,0,0,1-.09-1v-3.2a.19.19,0,0,1,0-.1.22.22,0,0,1,.12-.07.9.9,0,0,1,.22,0h.72a1,1,0,0,1,.22,0,.22.22,0,0,1,.12.07.21.21,0,0,1,0,.1v3a2.55,2.55,0,0,0,0,.63,1,1,0,0,0,.16.37.62.62,0,0,0,.27.24.86.86,0,0,0,.39.09,1,1,0,0,0,.57-.21,3,3,0,0,0,.6-.59V83.59a.14.14,0,0,1,0-.1.23.23,0,0,1,.11-.07l.23,0h.71a1,1,0,0,1,.23,0,.23.23,0,0,1,.11.07.14.14,0,0,1,0,.1Z"/><path class="cls-5" d="M45.3,86.05a.56.56,0,0,1-.12.4.42.42,0,0,1-.33.13H41.67a2.37,2.37,0,0,0,.08.61,1.21,1.21,0,0,0,.25.46,1.29,1.29,0,0,0,.45.29,2.06,2.06,0,0,0,.65.1,3.44,3.44,0,0,0,.68-.06l.51-.12.35-.12a.6.6,0,0,1,.23-.06l.09,0a.13.13,0,0,1,0,.07.54.54,0,0,1,0,.15c0,.07,0,.15,0,.25s0,.16,0,.22a.61.61,0,0,1,0,.15l0,.11-.06.08a.63.63,0,0,1-.21.11,2.55,2.55,0,0,1-.44.14,4,4,0,0,1-.6.12,5.43,5.43,0,0,1-.72.05A3.69,3.69,0,0,1,41.75,89a2.12,2.12,0,0,1-.88-.53,2.23,2.23,0,0,1-.52-.9,4.08,4.08,0,0,1-.18-1.28A3.77,3.77,0,0,1,40.36,85a2.64,2.64,0,0,1,.52-1,2.17,2.17,0,0,1,.84-.59,2.83,2.83,0,0,1,1.12-.21,3.12,3.12,0,0,1,1.12.19,2,2,0,0,1,.76.54,2.13,2.13,0,0,1,.44.81,3.64,3.64,0,0,1,.14,1Zm-1.43-.42a1.49,1.49,0,0,0-.25-1,.94.94,0,0,0-.82-.36,1.07,1.07,0,0,0-.49.11.93.93,0,0,0-.34.28,1.38,1.38,0,0,0-.21.42,2.27,2.27,0,0,0-.09.52Z"/><path class="cls-5" d="M57.53,88.82a.14.14,0,0,1,0,.1.23.23,0,0,1-.11.07,1,1,0,0,1-.23.05h-.72a.9.9,0,0,1-.22-.05.22.22,0,0,1-.12-.07.19.19,0,0,1,0-.1v-3.1a2.28,2.28,0,0,0-.05-.48,1,1,0,0,0-.15-.37.66.66,0,0,0-.26-.24.72.72,0,0,0-.37-.09.88.88,0,0,0-.54.21,3.61,3.61,0,0,0-.58.59v3.48a.14.14,0,0,1,0,.1A.22.22,0,0,1,54,89a.9.9,0,0,1-.22.05H53A.9.9,0,0,1,52.8,89a.22.22,0,0,1-.12-.07.14.14,0,0,1,0-.1v-3.1a2.28,2.28,0,0,0,0-.48,1,1,0,0,0-.15-.37.55.55,0,0,0-.26-.24.69.69,0,0,0-.36-.09.88.88,0,0,0-.54.21,3,3,0,0,0-.58.59v3.48a.14.14,0,0,1,0,.1.22.22,0,0,1-.12.07.9.9,0,0,1-.22.05H49.6a.9.9,0,0,1-.22-.05.22.22,0,0,1-.12-.07.14.14,0,0,1,0-.1V83.59a.19.19,0,0,1,0-.1.23.23,0,0,1,.11-.07.74.74,0,0,1,.19,0h.61a.72.72,0,0,1,.2,0,.22.22,0,0,1,.09.07.19.19,0,0,1,0,.1v.61a3.48,3.48,0,0,1,.86-.7,1.84,1.84,0,0,1,.9-.24,2,2,0,0,1,.58.07,1.59,1.59,0,0,1,.46.19,1.72,1.72,0,0,1,.35.3,1.8,1.8,0,0,1,.25.4,3.74,3.74,0,0,1,.46-.44,2.22,2.22,0,0,1,.44-.29,1.6,1.6,0,0,1,.44-.17,1.63,1.63,0,0,1,.45-.06,1.9,1.9,0,0,1,.87.18,1.42,1.42,0,0,1,.58.47,1.83,1.83,0,0,1,.31.71,3.36,3.36,0,0,1,.1.85Z"/><path class="cls-5" d="M63.8,86.05a.56.56,0,0,1-.12.4.42.42,0,0,1-.33.13H60.17a2,2,0,0,0,.08.61,1.09,1.09,0,0,0,.25.46,1.17,1.17,0,0,0,.44.29,2.08,2.08,0,0,0,.66.1,3.51,3.51,0,0,0,.68-.06l.5-.12.36-.12a.56.56,0,0,1,.22-.06l.09,0a.22.22,0,0,1,.06.07.33.33,0,0,1,0,.15,1.85,1.85,0,0,1,0,.25,1.48,1.48,0,0,1,0,.22c0,.06,0,.11,0,.15a.36.36,0,0,1,0,.11.16.16,0,0,1-.06.08.54.54,0,0,1-.21.11,2.17,2.17,0,0,1-.43.14,4.54,4.54,0,0,1-.6.12,5.58,5.58,0,0,1-.73.05A3.78,3.78,0,0,1,60.24,89a2,2,0,0,1-.87-.53,2.24,2.24,0,0,1-.53-.9,4.41,4.41,0,0,1-.17-1.28A4.06,4.06,0,0,1,58.85,85a2.66,2.66,0,0,1,.53-1,2.17,2.17,0,0,1,.84-.59,2.82,2.82,0,0,1,1.11-.21,3.08,3.08,0,0,1,1.12.19,2.06,2.06,0,0,1,.77.54,2.27,2.27,0,0,1,.44.81,3.64,3.64,0,0,1,.14,1Zm-1.43-.42a1.49,1.49,0,0,0-.25-1,1,1,0,0,0-.82-.36,1.07,1.07,0,0,0-.49.11,1,1,0,0,0-.35.28,1.38,1.38,0,0,0-.21.42,2.25,2.25,0,0,0-.08.52Z"/><path class="cls-5" d="M71.67,88a1.93,1.93,0,0,1,0,.26c0,.07,0,.12,0,.17a.83.83,0,0,1,0,.12.35.35,0,0,1-.09.11,1.63,1.63,0,0,1-.24.16,1.76,1.76,0,0,1-.39.17,2.91,2.91,0,0,1-.47.13A3.31,3.31,0,0,1,68.82,89,2,2,0,0,1,68,88.4a2.45,2.45,0,0,1-.48-.89,4,4,0,0,1-.16-1.21A4.17,4.17,0,0,1,67.6,85a2.53,2.53,0,0,1,.55-1,2.12,2.12,0,0,1,.83-.55,3,3,0,0,1,1-.18,2.32,2.32,0,0,1,.46,0,2.58,2.58,0,0,1,.42.11,2.29,2.29,0,0,1,.35.16,1.33,1.33,0,0,1,.22.15l.09.11a.28.28,0,0,1,0,.11l0,.17c0,.07,0,.16,0,.25a1.32,1.32,0,0,1-.06.48c0,.09-.09.14-.16.14a.43.43,0,0,1-.21-.08L71,84.72a3,3,0,0,0-.36-.18,1.52,1.52,0,0,0-.51-.08,1,1,0,0,0-.87.44,2.25,2.25,0,0,0-.31,1.3,3.22,3.22,0,0,0,.08.74,1.49,1.49,0,0,0,.22.54,1,1,0,0,0,.38.33,1.21,1.21,0,0,0,.52.1,1.44,1.44,0,0,0,.53-.09,1.94,1.94,0,0,0,.38-.2,2.37,2.37,0,0,0,.27-.2.35.35,0,0,1,.19-.09.12.12,0,0,1,.09,0,.19.19,0,0,1,.05.11.88.88,0,0,1,0,.2C71.66,87.75,71.67,87.86,71.67,88Z"/><path class="cls-5" d="M78,86.15a3.91,3.91,0,0,1-.17,1.22,2.6,2.6,0,0,1-.53.95,2.39,2.39,0,0,1-.9.61,3.26,3.26,0,0,1-1.26.22A3.66,3.66,0,0,1,73.88,89a2.13,2.13,0,0,1-.85-.57,2.21,2.21,0,0,1-.51-.9,4.22,4.22,0,0,1-.16-1.23A3.91,3.91,0,0,1,72.54,85a2.66,2.66,0,0,1,.53-1,2.39,2.39,0,0,1,.9-.61,3.17,3.17,0,0,1,1.25-.22,3.44,3.44,0,0,1,1.22.19,2.11,2.11,0,0,1,.85.56,2.3,2.3,0,0,1,.5.91A4.22,4.22,0,0,1,78,86.15Zm-1.51.06a3.92,3.92,0,0,0-.06-.71,1.56,1.56,0,0,0-.21-.56,1,1,0,0,0-.39-.38,1.46,1.46,0,0,0-1.18,0,1,1,0,0,0-.41.35,2,2,0,0,0-.24.55,3.38,3.38,0,0,0-.07.74,3.84,3.84,0,0,0,.06.71,1.61,1.61,0,0,0,.21.57.93.93,0,0,0,.39.37,1.23,1.23,0,0,0,.61.13,1.34,1.34,0,0,0,.58-.12,1,1,0,0,0,.4-.35,1.63,1.63,0,0,0,.23-.55A3.29,3.29,0,0,0,76.44,86.21Z"/><path class="cls-5" d="M87.43,88.82a.21.21,0,0,1,0,.1.22.22,0,0,1-.12.07.9.9,0,0,1-.22.05h-.72a.9.9,0,0,1-.22-.05.22.22,0,0,1-.12-.07.19.19,0,0,1,0-.1v-3.1a2.28,2.28,0,0,0,0-.48,1.25,1.25,0,0,0-.16-.37.58.58,0,0,0-.25-.24.75.75,0,0,0-.37-.09.88.88,0,0,0-.54.21,3.25,3.25,0,0,0-.58.59v3.48a.14.14,0,0,1,0,.1.22.22,0,0,1-.12.07.9.9,0,0,1-.22.05h-.71a1,1,0,0,1-.23-.05.35.35,0,0,1-.12-.07.19.19,0,0,1,0-.1v-3.1a2.28,2.28,0,0,0-.05-.48,1,1,0,0,0-.15-.37.6.6,0,0,0-.26-.24.72.72,0,0,0-.37-.09.88.88,0,0,0-.54.21,2.94,2.94,0,0,0-.57.59v3.48a.21.21,0,0,1,0,.1.22.22,0,0,1-.12.07,1,1,0,0,1-.23.05H79.5a.9.9,0,0,1-.22-.05.32.32,0,0,1-.13-.07.19.19,0,0,1,0-.1V83.59a.19.19,0,0,1,0-.1.2.2,0,0,1,.1-.07,1,1,0,0,1,.2,0h.61a.64.64,0,0,1,.19,0,.2.2,0,0,1,.1.07.19.19,0,0,1,0,.1v.61a3.31,3.31,0,0,1,.86-.7,1.84,1.84,0,0,1,.9-.24,2,2,0,0,1,.58.07,1.71,1.71,0,0,1,.46.19,2,2,0,0,1,.35.3,1.77,1.77,0,0,1,.24.4,4.62,4.62,0,0,1,.46-.44,2.28,2.28,0,0,1,.45-.29,1.49,1.49,0,0,1,.44-.17,1.61,1.61,0,0,1,.44-.06,1.94,1.94,0,0,1,.88.18,1.49,1.49,0,0,1,.58.47,2,2,0,0,1,.31.71,3.88,3.88,0,0,1,.1.85Z"/><path class="cls-5" d="M94.13,86.13A4.81,4.81,0,0,1,94,87.38a2.93,2.93,0,0,1-.44,1,2,2,0,0,1-.71.6,2.21,2.21,0,0,1-1,.21,2.72,2.72,0,0,1-.42,0,1.66,1.66,0,0,1-.37-.14,2.25,2.25,0,0,1-.35-.22,3.45,3.45,0,0,1-.36-.32v2.46a.18.18,0,0,1,0,.1.23.23,0,0,1-.12.08,1,1,0,0,1-.22.05l-.36,0-.36,0a.9.9,0,0,1-.22-.05.23.23,0,0,1-.12-.08.13.13,0,0,1,0-.1v-7.3a.19.19,0,0,1,0-.1.2.2,0,0,1,.1-.07.83.83,0,0,1,.2,0h.59a.83.83,0,0,1,.2,0,.26.26,0,0,1,.1.07.19.19,0,0,1,0,.1v.62a4.18,4.18,0,0,1,.45-.41,2.45,2.45,0,0,1,.44-.3,2.27,2.27,0,0,1,.47-.18,2.24,2.24,0,0,1,.52-.06,2,2,0,0,1,1,.23,1.84,1.84,0,0,1,.66.61A2.91,2.91,0,0,1,94,85,4.84,4.84,0,0,1,94.13,86.13Zm-1.54.1a3.39,3.39,0,0,0,0-.64,1.8,1.8,0,0,0-.17-.54,1.1,1.1,0,0,0-.31-.39.86.86,0,0,0-.49-.14.92.92,0,0,0-.29,0,1,1,0,0,0-.29.15,1.7,1.7,0,0,0-.31.25,2.81,2.81,0,0,0-.33.4v1.72a3.06,3.06,0,0,0,.59.6.9.9,0,0,0,.58.22.79.79,0,0,0,.49-.15,1.1,1.1,0,0,0,.33-.38,1.82,1.82,0,0,0,.19-.54A3.05,3.05,0,0,0,92.59,86.23Z"/><path class="cls-5" d="M99.75,88.83a.15.15,0,0,1-.06.13.38.38,0,0,1-.18.07l-.37,0-.39,0a.34.34,0,0,1-.17-.07.17.17,0,0,1,0-.13v-.41a2.39,2.39,0,0,1-.73.54,2.26,2.26,0,0,1-.92.19,2.63,2.63,0,0,1-.76-.11,1.73,1.73,0,0,1-.6-.32,1.52,1.52,0,0,1-.4-.53,1.88,1.88,0,0,1-.14-.74,1.65,1.65,0,0,1,.18-.79,1.49,1.49,0,0,1,.53-.56,2.84,2.84,0,0,1,.88-.32,6.31,6.31,0,0,1,1.23-.11h.51v-.31a1.75,1.75,0,0,0,0-.43.71.71,0,0,0-.17-.31.69.69,0,0,0-.3-.18,1.63,1.63,0,0,0-.47-.06,2.59,2.59,0,0,0-.66.08c-.19.06-.37.12-.51.18l-.37.18a.54.54,0,0,1-.25.09.16.16,0,0,1-.11,0,.19.19,0,0,1-.08-.11.53.53,0,0,1,0-.19,1,1,0,0,1,0-.25,1,1,0,0,1,0-.28.37.37,0,0,1,.11-.19,1,1,0,0,1,.29-.19,2.82,2.82,0,0,1,.48-.19,3.31,3.31,0,0,1,.6-.14,3.63,3.63,0,0,1,.67-.06,4,4,0,0,1,1,.12,1.66,1.66,0,0,1,.71.37,1.39,1.39,0,0,1,.41.64,2.86,2.86,0,0,1,.13.93ZM98.31,86.6h-.57a2.64,2.64,0,0,0-.6.05,1.21,1.21,0,0,0-.41.16.64.64,0,0,0-.24.25,1,1,0,0,0-.07.35.65.65,0,0,0,.21.51.86.86,0,0,0,.58.19,1.17,1.17,0,0,0,.57-.16,2.67,2.67,0,0,0,.53-.46Z"/><path class="cls-5" d="M104.58,84.08a3.16,3.16,0,0,1,0,.35,1,1,0,0,1,0,.21.29.29,0,0,1-.06.1.17.17,0,0,1-.1,0l-.1,0-.14,0-.16,0-.19,0a.79.79,0,0,0-.25,0,1.48,1.48,0,0,0-.25.16,1.84,1.84,0,0,0-.28.28c-.09.12-.19.26-.3.43v3.26a.14.14,0,0,1,0,.1.22.22,0,0,1-.12.07.9.9,0,0,1-.22.05h-.72a.9.9,0,0,1-.22-.05.22.22,0,0,1-.12-.07.14.14,0,0,1,0-.1V83.59a.19.19,0,0,1,0-.1.23.23,0,0,1,.11-.07.74.74,0,0,1,.19,0h.61a.56.56,0,0,1,.19,0,.2.2,0,0,1,.1.07.19.19,0,0,1,0,.1v.65a4.23,4.23,0,0,1,.39-.48,1.78,1.78,0,0,1,.34-.3,1,1,0,0,1,.33-.15,1.26,1.26,0,0,1,.33,0H104l.18,0a.69.69,0,0,1,.17,0,.23.23,0,0,1,.1.05.18.18,0,0,1,0,.07.64.64,0,0,1,0,.09.78.78,0,0,1,0,.19C104.57,83.83,104.58,83.94,104.58,84.08Z"/><path class="cls-5" d="M110.58,83.4a.45.45,0,0,1,.34.1.41.41,0,0,1,.1.31v5a.14.14,0,0,1,0,.1.23.23,0,0,1-.11.07,1,1,0,0,1-.23.05h-.71a1,1,0,0,1-.23-.05.23.23,0,0,1-.11-.07.14.14,0,0,1,0-.1V84.59H107.2V87a1.19,1.19,0,0,0,.14.64.51.51,0,0,0,.48.22l.21,0,.16,0,.13,0,.09,0,.07,0a.28.28,0,0,1,0,.08s0,.1,0,.17a2.1,2.1,0,0,1,0,.27,1.92,1.92,0,0,1,0,.39.37.37,0,0,1-.08.19.41.41,0,0,1-.16.11l-.24.07a1.34,1.34,0,0,1-.3,0,1.72,1.72,0,0,1-.32,0,2.39,2.39,0,0,1-.76-.11,1.25,1.25,0,0,1-.54-.34,1.54,1.54,0,0,1-.31-.58,3.45,3.45,0,0,1-.1-.84V84.59h-.62c-.08,0-.13,0-.17-.14a1.23,1.23,0,0,1-.06-.46,2.27,2.27,0,0,1,0-.28.74.74,0,0,1,0-.19.26.26,0,0,1,.07-.1l.1,0h.62V82.23a.13.13,0,0,1,0-.1.19.19,0,0,1,.11-.08.71.71,0,0,1,.23,0l.36,0,.36,0a.6.6,0,0,1,.22,0,.21.21,0,0,1,.12.08.17.17,0,0,1,0,.1V83.4Zm.56-1.57a.78.78,0,0,1-.19.61,1.44,1.44,0,0,1-1.34,0,1.13,1.13,0,0,1,0-1.21,1,1,0,0,1,.67-.17,1,1,0,0,1,.67.16A.8.8,0,0,1,111.14,81.83Z"/><path class="cls-5" d="M117.78,86.15a3.91,3.91,0,0,1-.18,1.22,2.37,2.37,0,0,1-1.42,1.56,3.26,3.26,0,0,1-1.26.22,3.61,3.61,0,0,1-1.21-.19,2.16,2.16,0,0,1-.86-.57,2.19,2.19,0,0,1-.5-.9,4.2,4.2,0,0,1-.17-1.23,3.91,3.91,0,0,1,.18-1.22,2.54,2.54,0,0,1,.54-1,2.36,2.36,0,0,1,.89-.61,3.26,3.26,0,0,1,1.26-.22,3.42,3.42,0,0,1,1.21.19,2,2,0,0,1,.85.56,2.32,2.32,0,0,1,.51.91A4.58,4.58,0,0,1,117.78,86.15Zm-1.52.06a3.92,3.92,0,0,0-.06-.71,1.56,1.56,0,0,0-.21-.56.93.93,0,0,0-.38-.38,1.48,1.48,0,0,0-1.19,0,1,1,0,0,0-.4.35,1.53,1.53,0,0,0-.24.55,3.36,3.36,0,0,0-.08.74,3.84,3.84,0,0,0,.06.71,2.12,2.12,0,0,0,.21.57,1.06,1.06,0,0,0,.39.37A1.28,1.28,0,0,0,115,88a1.31,1.31,0,0,0,.58-.12,1,1,0,0,0,.4-.35,1.46,1.46,0,0,0,.24-.55A3.32,3.32,0,0,0,116.26,86.21Zm-1-5.18a.52.52,0,0,1,.1-.11.37.37,0,0,1,.14-.07l.23,0h.32a2.56,2.56,0,0,1,.43,0,.63.63,0,0,1,.22.07c.05,0,.07.06.06.1a.17.17,0,0,1-.06.12l-1.13,1.36-.09.1-.13.06a.74.74,0,0,1-.18,0l-.28,0-.33,0a.27.27,0,0,1-.16-.06.09.09,0,0,1,0-.09.53.53,0,0,1,.06-.14Z"/><path class="cls-5" d="M26.66,103.26a.3.3,0,0,1,0,.1.23.23,0,0,1-.11.07.74.74,0,0,1-.19,0h-.61l-.2,0s-.08,0-.09-.07a.17.17,0,0,1,0-.1v-.6a3.6,3.6,0,0,1-.88.7,2.06,2.06,0,0,1-.93.23,2.24,2.24,0,0,1-.91-.17,1.64,1.64,0,0,1-.59-.48,1.91,1.91,0,0,1-.32-.71,4.61,4.61,0,0,1-.1-1V98a.12.12,0,0,1,0-.1.24.24,0,0,1,.11-.08l.23,0,.35,0,.36,0,.23,0a.36.36,0,0,1,.12.08.15.15,0,0,1,0,.1V101a2.43,2.43,0,0,0,.06.62.93.93,0,0,0,.16.38.78.78,0,0,0,.27.24.93.93,0,0,0,.39.08,1,1,0,0,0,.57-.2,3.75,3.75,0,0,0,.6-.6V98a.15.15,0,0,1,0-.1.23.23,0,0,1,.12-.08l.23,0,.35,0,.36,0a1,1,0,0,1,.22,0,.23.23,0,0,1,.12.08.15.15,0,0,1,0,.1Z"/><path class="cls-5" d="M33.13,103.26a.17.17,0,0,1,0,.1.35.35,0,0,1-.12.07.89.89,0,0,1-.23,0H32a.8.8,0,0,1-.22,0,.22.22,0,0,1-.12-.07.13.13,0,0,1,0-.1v-3a3.12,3.12,0,0,0-.05-.6,1.25,1.25,0,0,0-.16-.37.73.73,0,0,0-.28-.24.8.8,0,0,0-.39-.08.94.94,0,0,0-.56.2,3.38,3.38,0,0,0-.6.6v3.47a.17.17,0,0,1,0,.1.35.35,0,0,1-.12.07l-.23,0h-.71a1,1,0,0,1-.23,0,.22.22,0,0,1-.12-.07.17.17,0,0,1,0-.1V98a.15.15,0,0,1,0-.1.24.24,0,0,1,.11-.08l.2,0,.3,0,.31,0,.19,0a.18.18,0,0,1,.09.08.15.15,0,0,1,0,.1v.6a3.37,3.37,0,0,1,.88-.7,2,2,0,0,1,.94-.24,2.06,2.06,0,0,1,.9.18,1.64,1.64,0,0,1,.59.48,1.8,1.8,0,0,1,.32.7,4,4,0,0,1,.1,1Z"/><path class="cls-5" d="M41.24,102.43a1.85,1.85,0,0,1,0,.25c0,.07,0,.13,0,.17a.34.34,0,0,1,0,.12.27.27,0,0,1-.09.11,1.09,1.09,0,0,1-.24.16,1.76,1.76,0,0,1-.39.18,2.93,2.93,0,0,1-.47.12,3,3,0,0,1-1.59-.14,2.09,2.09,0,0,1-.78-.55,2.5,2.5,0,0,1-.48-.9,4.36,4.36,0,0,1-.16-1.2,4.24,4.24,0,0,1,.2-1.36,2.49,2.49,0,0,1,.55-.94,2.14,2.14,0,0,1,.83-.56,3,3,0,0,1,1.05-.18,2.32,2.32,0,0,1,.46,0l.42.11a2.29,2.29,0,0,1,.35.16,1,1,0,0,1,.22.15l.09.11a.36.36,0,0,1,0,.11s0,.11,0,.18,0,.15,0,.25a1.29,1.29,0,0,1-.06.47c0,.1-.09.14-.16.14a.43.43,0,0,1-.21-.08,2,2,0,0,0-.26-.18,1.51,1.51,0,0,0-.36-.18,1.29,1.29,0,0,0-.51-.09,1,1,0,0,0-.87.45,2.19,2.19,0,0,0-.31,1.29,3.38,3.38,0,0,0,.08.75,1.51,1.51,0,0,0,.22.53.92.92,0,0,0,.38.33,1.21,1.21,0,0,0,.52.11,1.44,1.44,0,0,0,.53-.09,2,2,0,0,0,.38-.21,2.37,2.37,0,0,0,.27-.2.35.35,0,0,1,.19-.09.12.12,0,0,1,.09,0,.23.23,0,0,1,0,.11.88.88,0,0,1,0,.2A2.92,2.92,0,0,1,41.24,102.43Z"/><path class="cls-5" d="M47.53,100.6a3.84,3.84,0,0,1-.18,1.21,2.52,2.52,0,0,1-.53,1,2.42,2.42,0,0,1-.9.62,3.47,3.47,0,0,1-1.26.21,3.42,3.42,0,0,1-1.21-.19,2.22,2.22,0,0,1-.85-.56,2.32,2.32,0,0,1-.51-.91,4.22,4.22,0,0,1-.16-1.23,4,4,0,0,1,.18-1.22,2.75,2.75,0,0,1,.53-1,2.52,2.52,0,0,1,.9-.61,3.37,3.37,0,0,1,1.25-.22,3.68,3.68,0,0,1,1.22.19,2.22,2.22,0,0,1,.85.56,2.3,2.3,0,0,1,.5.91A4.22,4.22,0,0,1,47.53,100.6Zm-1.52.05a4,4,0,0,0-.06-.71,1.63,1.63,0,0,0-.21-.56,1.09,1.09,0,0,0-.39-.38,1.23,1.23,0,0,0-.61-.13,1.26,1.26,0,0,0-.57.12,1.07,1.07,0,0,0-.41.35,1.69,1.69,0,0,0-.23.56,2.75,2.75,0,0,0-.08.74,4,4,0,0,0,.06.71,1.63,1.63,0,0,0,.21.56.87.87,0,0,0,.39.37,1.22,1.22,0,0,0,.61.14,1.34,1.34,0,0,0,.58-.12,1.12,1.12,0,0,0,.4-.35,1.69,1.69,0,0,0,.23-.56A3.22,3.22,0,0,0,46,100.65Z"/><path class="cls-5" d="M50.17,103.26a.18.18,0,0,1,0,.1.22.22,0,0,1-.12.07,1,1,0,0,1-.23,0h-.71a.9.9,0,0,1-.22,0,.22.22,0,0,1-.12-.07.13.13,0,0,1,0-.1v-7.7a.13.13,0,0,1,0-.1.23.23,0,0,1,.12-.08.9.9,0,0,1,.22,0l.36,0,.35,0a1,1,0,0,1,.23,0,.23.23,0,0,1,.12.08.18.18,0,0,1,0,.1Z"/><path class="cls-5" d="M56.46,100.5a.54.54,0,0,1-.12.39A.42.42,0,0,1,56,101H52.83a2.25,2.25,0,0,0,.08.61,1.09,1.09,0,0,0,.25.46,1.06,1.06,0,0,0,.44.29,1.87,1.87,0,0,0,.66.1,3.51,3.51,0,0,0,.68-.06,2.83,2.83,0,0,0,.5-.12l.36-.12a.61.61,0,0,1,.22-.06l.09,0a.17.17,0,0,1,.06.08.28.28,0,0,1,0,.15,1.63,1.63,0,0,1,0,.24v.22c0,.06,0,.11,0,.15a.28.28,0,0,1,0,.11.24.24,0,0,1-.06.09.85.85,0,0,1-.21.11l-.43.14c-.17,0-.38.08-.6.11a4.26,4.26,0,0,1-.73,0,4.08,4.08,0,0,1-1.22-.17,2.14,2.14,0,0,1-.87-.54,2.11,2.11,0,0,1-.53-.9,4.39,4.39,0,0,1-.17-1.27,4.08,4.08,0,0,1,.18-1.26,2.66,2.66,0,0,1,.53-1,2.29,2.29,0,0,1,.84-.59A2.82,2.82,0,0,1,54,97.7a2.88,2.88,0,0,1,1.12.2,2.16,2.16,0,0,1,.77.53,2.27,2.27,0,0,1,.44.81,3.75,3.75,0,0,1,.14,1ZM55,100.07a1.51,1.51,0,0,0-.25-1,1,1,0,0,0-.82-.35,1.07,1.07,0,0,0-.49.1,1.09,1.09,0,0,0-.35.29,1.18,1.18,0,0,0-.21.42,2.09,2.09,0,0,0-.08.51Z"/><path class="cls-5" d="M62.37,98.4a1.1,1.1,0,0,1-.06.42.18.18,0,0,1-.16.13h-.61a.78.78,0,0,1,.18.32,1.15,1.15,0,0,1,.06.37,2,2,0,0,1-.15.81,1.67,1.67,0,0,1-.44.6,2.07,2.07,0,0,1-.69.37,3,3,0,0,1-.89.12,1.86,1.86,0,0,1-.48-.06,1.33,1.33,0,0,1-.35-.14.83.83,0,0,0-.13.18.59.59,0,0,0,0,.23.32.32,0,0,0,.15.28.8.8,0,0,0,.42.12l1.27,0a2.72,2.72,0,0,1,.79.13,1.73,1.73,0,0,1,.59.3,1.51,1.51,0,0,1,.36.47,1.54,1.54,0,0,1,.12.63,1.57,1.57,0,0,1-.17.73,1.74,1.74,0,0,1-.5.59,2.74,2.74,0,0,1-.86.4,4.27,4.27,0,0,1-1.19.14,5.3,5.3,0,0,1-1.14-.1,2.53,2.53,0,0,1-.77-.29,1.18,1.18,0,0,1-.44-.45,1.26,1.26,0,0,1-.14-.57,1.5,1.5,0,0,1,0-.37,1.14,1.14,0,0,1,.15-.34,1.6,1.6,0,0,1,.23-.3,3,3,0,0,1,.32-.29,1.12,1.12,0,0,1-.39-.36,1,1,0,0,1-.13-.51,1.23,1.23,0,0,1,.16-.63,1.81,1.81,0,0,1,.41-.51,1.51,1.51,0,0,1-.33-.49,1.85,1.85,0,0,1-.13-.72,1.92,1.92,0,0,1,.17-.81,1.68,1.68,0,0,1,.44-.61,2,2,0,0,1,.69-.38,2.71,2.71,0,0,1,.88-.13,3.59,3.59,0,0,1,.47,0,2.61,2.61,0,0,1,.42.08h1.65c.07,0,.12,0,.16.13A1.09,1.09,0,0,1,62.37,98.4Zm-1.54,5.4a.45.45,0,0,0-.21-.4,1.18,1.18,0,0,0-.58-.15l-1,0a1.29,1.29,0,0,0-.24.21,2.08,2.08,0,0,0-.15.2.67.67,0,0,0-.07.18,1.1,1.1,0,0,0,0,.18.49.49,0,0,0,.3.45,1.84,1.84,0,0,0,.83.15,2.19,2.19,0,0,0,.56-.07.85.85,0,0,0,.37-.18.59.59,0,0,0,.2-.25A.72.72,0,0,0,60.83,103.8Zm-.35-4.16a.87.87,0,0,0-.23-.66,1.06,1.06,0,0,0-1-.16.68.68,0,0,0-.27.2.64.64,0,0,0-.16.29,1,1,0,0,0-.06.35.85.85,0,0,0,.24.63.89.89,0,0,0,.65.23.92.92,0,0,0,.38-.07.77.77,0,0,0,.27-.19.85.85,0,0,0,.17-.29A.91.91,0,0,0,60.48,99.64Z"/><path class="cls-5" d="M67.6,103.28a.18.18,0,0,1-.06.13.38.38,0,0,1-.19.06,1.79,1.79,0,0,1-.37,0,1.9,1.9,0,0,1-.38,0,.3.3,0,0,1-.17-.06.21.21,0,0,1-.05-.13v-.42a2.43,2.43,0,0,1-.74.54,2.09,2.09,0,0,1-.91.19,2.39,2.39,0,0,1-.77-.11,1.73,1.73,0,0,1-.6-.32,1.38,1.38,0,0,1-.39-.53,2,2,0,0,1,0-1.53,1.42,1.42,0,0,1,.54-.55,2.53,2.53,0,0,1,.88-.33,6.33,6.33,0,0,1,1.22-.1h.51V99.8a1.81,1.81,0,0,0-.05-.43.76.76,0,0,0-.16-.31.73.73,0,0,0-.31-.18,1.53,1.53,0,0,0-.47-.06,2.59,2.59,0,0,0-.66.08,4.23,4.23,0,0,0-.51.19,2.57,2.57,0,0,0-.37.18.6.6,0,0,1-.24.08.16.16,0,0,1-.12,0,.36.36,0,0,1-.08-.12.74.74,0,0,1,0-.19,1.66,1.66,0,0,1,0-.24,1.12,1.12,0,0,1,0-.29.52.52,0,0,1,.11-.19,1.11,1.11,0,0,1,.29-.19c.14-.06.3-.13.48-.19a4.43,4.43,0,0,1,.6-.14,3.71,3.71,0,0,1,.67-.06,4,4,0,0,1,1,.12,1.89,1.89,0,0,1,.72.37,1.57,1.57,0,0,1,.41.64,3.26,3.26,0,0,1,.13.93ZM66.15,101h-.56a3.49,3.49,0,0,0-.61,0,1.3,1.3,0,0,0-.41.16.63.63,0,0,0-.23.26.74.74,0,0,0-.07.34.63.63,0,0,0,.2.51.81.81,0,0,0,.58.19,1,1,0,0,0,.57-.16,2.38,2.38,0,0,0,.53-.46Z"/><path class="cls-5" d="M70.8,102.38a2.81,2.81,0,0,1,0,.43,2.29,2.29,0,0,1-.07.36,2.33,2.33,0,0,1-.14.33,3.24,3.24,0,0,1-.2.33L69.57,105a.28.28,0,0,1-.09.1.23.23,0,0,1-.12.06.61.61,0,0,1-.17,0l-.25,0-.27,0a.39.39,0,0,1-.15,0,.08.08,0,0,1,0-.08.15.15,0,0,1,0-.11l.72-1.61v-.93a1,1,0,0,1,0-.32.36.36,0,0,1,.15-.19.61.61,0,0,1,.25-.08,2,2,0,0,1,.37,0,1.83,1.83,0,0,1,.35,0,.52.52,0,0,1,.24.08.34.34,0,0,1,.14.19A.93.93,0,0,1,70.8,102.38Z"/><path class="cls-5" d="M75,97.25a2.25,2.25,0,0,1,0-.4.5.5,0,0,1,.14-.26.53.53,0,0,1,.25-.15,2,2,0,0,1,.8,0,.56.56,0,0,1,.26.15.58.58,0,0,1,.13.26,2.15,2.15,0,0,1,0,.4,2.3,2.3,0,0,1,0,.42.68.68,0,0,1-.13.27.65.65,0,0,1-.26.14,1.63,1.63,0,0,1-.8,0,.61.61,0,0,1-.25-.14.58.58,0,0,1-.14-.27A2.42,2.42,0,0,1,75,97.25ZM75.22,99a.2.2,0,0,1,0-.11.35.35,0,0,1,.11-.08l.19,0h.62l.2,0a.29.29,0,0,1,.1.08.36.36,0,0,1,0,.11l.15,5.31a.23.23,0,0,1,0,.14.19.19,0,0,1-.12.09.76.76,0,0,1-.25.06l-.39,0-.38,0-.25-.06a.34.34,0,0,1-.13-.1.25.25,0,0,1,0-.13Z"/><path class="cls-5" d="M84,98.18a3,3,0,0,1-.19,1.13,2.26,2.26,0,0,1-.58.83,2.44,2.44,0,0,1-.94.51,4.21,4.21,0,0,1-1.3.18H80.4v2.42a.18.18,0,0,1,0,.1.32.32,0,0,1-.13.08l-.23,0h-.75l-.23,0a.32.32,0,0,1-.13-.08.17.17,0,0,1,0-.1V96.43A.56.56,0,0,1,79,96a.54.54,0,0,1,.38-.14h1.78l.52,0,.58.09a2.89,2.89,0,0,1,.69.25,2,2,0,0,1,1,1.11A2.73,2.73,0,0,1,84,98.18Zm-1.61.12a1.29,1.29,0,0,0-.14-.66.91.91,0,0,0-.34-.38,1.4,1.4,0,0,0-.43-.16,3.59,3.59,0,0,0-.47,0H80.4v2.57h.69a1.65,1.65,0,0,0,.62-.1,1,1,0,0,0,.4-.28,1,1,0,0,0,.24-.42A1.61,1.61,0,0,0,82.43,98.3Z"/><path class="cls-5" d="M90.24,100.6a3.84,3.84,0,0,1-.18,1.21,2.52,2.52,0,0,1-.53,1,2.42,2.42,0,0,1-.9.62,3.41,3.41,0,0,1-1.25.21,3.47,3.47,0,0,1-1.22-.19,2.22,2.22,0,0,1-.85-.56,2.18,2.18,0,0,1-.5-.91,4.2,4.2,0,0,1-.17-1.23,4,4,0,0,1,.18-1.22,2.62,2.62,0,0,1,.54-1,2.39,2.39,0,0,1,.89-.61,3.4,3.4,0,0,1,1.25-.22,3.68,3.68,0,0,1,1.22.19,2.14,2.14,0,0,1,.85.56,2.3,2.3,0,0,1,.5.91A4.22,4.22,0,0,1,90.24,100.6Zm-1.52.05a4,4,0,0,0-.06-.71,1.63,1.63,0,0,0-.21-.56,1,1,0,0,0-.39-.38,1.23,1.23,0,0,0-.61-.13,1.26,1.26,0,0,0-.57.12,1.07,1.07,0,0,0-.41.35,1.69,1.69,0,0,0-.23.56,2.75,2.75,0,0,0-.08.74,4,4,0,0,0,.06.71,1.86,1.86,0,0,0,.21.56.93.93,0,0,0,.39.37,1.25,1.25,0,0,0,.61.14,1.34,1.34,0,0,0,.58-.12,1,1,0,0,0,.4-.35,1.69,1.69,0,0,0,.24-.56A3.26,3.26,0,0,0,88.72,100.65Z"/><path class="cls-5" d="M96.35,103.26a.2.2,0,0,1,0,.11s0,0-.09.07l-.2,0h-.59l-.2,0a.26.26,0,0,1-.1-.07.2.2,0,0,1,0-.11v-.58a3.25,3.25,0,0,1-.85.67,2.22,2.22,0,0,1-2,0,1.9,1.9,0,0,1-.67-.62,2.63,2.63,0,0,1-.38-.92,4.94,4.94,0,0,1-.12-1.1,4.76,4.76,0,0,1,.15-1.25,2.88,2.88,0,0,1,.44-1,2.08,2.08,0,0,1,.71-.61,2.25,2.25,0,0,1,1-.21,1.73,1.73,0,0,1,.79.18,2.79,2.79,0,0,1,.71.53V95.58a.23.23,0,0,1,0-.11A.22.22,0,0,1,95,95.4a.66.66,0,0,1,.23-.05,1.78,1.78,0,0,1,.35,0,1.84,1.84,0,0,1,.36,0,.6.6,0,0,1,.22.05.22.22,0,0,1,.12.07.23.23,0,0,1,0,.11Zm-1.46-3.49a3.18,3.18,0,0,0-.61-.61,1,1,0,0,0-.6-.21.92.92,0,0,0-.5.14,1.14,1.14,0,0,0-.33.39,2.22,2.22,0,0,0-.19.53,3.08,3.08,0,0,0-.06.61,4.48,4.48,0,0,0,.05.64,2.22,2.22,0,0,0,.18.55,1,1,0,0,0,.32.39.8.8,0,0,0,.5.15.93.93,0,0,0,.29,0,1,1,0,0,0,.3-.14,2.25,2.25,0,0,0,.31-.26c.1-.11.22-.24.34-.4Z"/><path class="cls-5" d="M102.66,100.5a.54.54,0,0,1-.12.39.42.42,0,0,1-.33.13H99a2.25,2.25,0,0,0,.08.61,1.09,1.09,0,0,0,.25.46,1.06,1.06,0,0,0,.44.29,1.87,1.87,0,0,0,.66.1,3.51,3.51,0,0,0,.68-.06,2.83,2.83,0,0,0,.5-.12l.36-.12a.61.61,0,0,1,.22-.06l.09,0a.12.12,0,0,1,.06.08.28.28,0,0,1,0,.15,1.63,1.63,0,0,1,0,.24v.22c0,.06,0,.11,0,.15a.28.28,0,0,1,0,.11.24.24,0,0,1-.06.09.85.85,0,0,1-.21.11l-.43.14c-.17,0-.38.08-.6.11a4.26,4.26,0,0,1-.73,0,4.08,4.08,0,0,1-1.22-.17,2.14,2.14,0,0,1-.87-.54,2.11,2.11,0,0,1-.53-.9,4.39,4.39,0,0,1-.17-1.27,4.08,4.08,0,0,1,.18-1.26,2.66,2.66,0,0,1,.53-1,2.29,2.29,0,0,1,.84-.59,2.82,2.82,0,0,1,1.11-.21,2.88,2.88,0,0,1,1.12.2,2.16,2.16,0,0,1,.77.53,2.27,2.27,0,0,1,.44.81,3.75,3.75,0,0,1,.14,1Zm-1.43-.43a1.51,1.51,0,0,0-.25-1,1,1,0,0,0-.82-.35,1.07,1.07,0,0,0-.49.1,1.09,1.09,0,0,0-.35.29,1.18,1.18,0,0,0-.21.42,2.72,2.72,0,0,0-.08.51Z"/><path class="cls-5" d="M112.17,103.26a.17.17,0,0,1,0,.1.22.22,0,0,1-.12.07.9.9,0,0,1-.22,0h-.72a.9.9,0,0,1-.22,0,.22.22,0,0,1-.12-.07.17.17,0,0,1,0-.1v-3.1a2.44,2.44,0,0,0,0-.48,1.25,1.25,0,0,0-.16-.37.72.72,0,0,0-.25-.24.76.76,0,0,0-.38-.08.86.86,0,0,0-.53.2,3.73,3.73,0,0,0-.58.6v3.47a.18.18,0,0,1,0,.1.22.22,0,0,1-.12.07,1,1,0,0,1-.22,0h-.71a1,1,0,0,1-.23,0,.35.35,0,0,1-.12-.07.17.17,0,0,1,0-.1v-3.1a2.44,2.44,0,0,0-.05-.48,1.58,1.58,0,0,0-.15-.37.75.75,0,0,0-.26-.24.72.72,0,0,0-.37-.08.86.86,0,0,0-.54.2,3.73,3.73,0,0,0-.58.6v3.47a.17.17,0,0,1,0,.1.22.22,0,0,1-.12.07,1,1,0,0,1-.23,0h-.71l-.23,0a.35.35,0,0,1-.12-.07.17.17,0,0,1,0-.1V98a.15.15,0,0,1,0-.1.21.21,0,0,1,.1-.08l.2,0,.3,0,.31,0a.69.69,0,0,1,.19,0,.21.21,0,0,1,.1.08.15.15,0,0,1,0,.1v.6a3.31,3.31,0,0,1,.86-.7,1.84,1.84,0,0,1,.9-.24,2.56,2.56,0,0,1,.58.07,2.11,2.11,0,0,1,.46.19,1.73,1.73,0,0,1,.35.31,1.51,1.51,0,0,1,.24.39,4.45,4.45,0,0,1,.46-.43,2.35,2.35,0,0,1,.45-.3,1.82,1.82,0,0,1,.44-.17,1.61,1.61,0,0,1,.44-.06,1.94,1.94,0,0,1,.88.18,1.61,1.61,0,0,1,.58.48,1.94,1.94,0,0,1,.31.7,4,4,0,0,1,.09.86Z"/><path class="cls-5" d="M118.9,100.6a3.84,3.84,0,0,1-.18,1.21,2.39,2.39,0,0,1-.53,1,2.46,2.46,0,0,1-.89.62,3.47,3.47,0,0,1-1.26.21,3.38,3.38,0,0,1-1.21-.19,2.25,2.25,0,0,1-.86-.56,2.3,2.3,0,0,1-.5-.91,4.2,4.2,0,0,1-.17-1.23,4,4,0,0,1,.18-1.22,2.62,2.62,0,0,1,.54-1,2.48,2.48,0,0,1,.89-.61,3.46,3.46,0,0,1,1.26-.22,3.66,3.66,0,0,1,1.21.19,2.25,2.25,0,0,1,.86.56,2.43,2.43,0,0,1,.5.91A4.61,4.61,0,0,1,118.9,100.6Zm-1.52.05a4,4,0,0,0-.06-.71,1.63,1.63,0,0,0-.21-.56,1,1,0,0,0-.38-.38,1.48,1.48,0,0,0-1.19,0,1,1,0,0,0-.4.35,1.51,1.51,0,0,0-.24.56,3.22,3.22,0,0,0-.08.74,4,4,0,0,0,.06.71,2.17,2.17,0,0,0,.21.56,1,1,0,0,0,.39.37,1.28,1.28,0,0,0,.61.14,1.31,1.31,0,0,0,.58-.12,1,1,0,0,0,.4-.35,1.51,1.51,0,0,0,.24-.56A3.26,3.26,0,0,0,117.38,100.65Z"/><path class="cls-5" d="M123.74,101.78a1.8,1.8,0,0,1-.17.79,1.6,1.6,0,0,1-.47.57,2.18,2.18,0,0,1-.72.34,3.64,3.64,0,0,1-.9.11,3.43,3.43,0,0,1-.56,0,4.91,4.91,0,0,1-.48-.11,3.17,3.17,0,0,1-.35-.14,1,1,0,0,1-.2-.13.43.43,0,0,1-.1-.19,1.79,1.79,0,0,1,0-.39,1.91,1.91,0,0,1,0-.28.38.38,0,0,1,0-.16.18.18,0,0,1,.06-.08s0,0,.09,0a.44.44,0,0,1,.19.07l.31.16.44.17a1.91,1.91,0,0,0,.56.07,1.37,1.37,0,0,0,.36,0,.89.89,0,0,0,.26-.12.47.47,0,0,0,.18-.19.6.6,0,0,0,.06-.27.44.44,0,0,0-.11-.3,1,1,0,0,0-.29-.22l-.4-.18L121,101a3.29,3.29,0,0,1-.46-.23,1.72,1.72,0,0,1-.4-.31,1.51,1.51,0,0,1-.29-.45,1.73,1.73,0,0,1-.11-.63,1.57,1.57,0,0,1,.57-1.23,1.92,1.92,0,0,1,.67-.34,3,3,0,0,1,.89-.13,3.88,3.88,0,0,1,.48,0,2.26,2.26,0,0,1,.41.09,1.69,1.69,0,0,1,.32.11.63.63,0,0,1,.18.11.29.29,0,0,1,.08.08.36.36,0,0,1,0,.11s0,.09,0,.15,0,.14,0,.23,0,.19,0,.25a1.57,1.57,0,0,1,0,.16.1.1,0,0,1-.06.08.11.11,0,0,1-.08,0,.4.4,0,0,1-.16-.06l-.28-.13a2.54,2.54,0,0,0-.39-.13,1.85,1.85,0,0,0-.5-.06,1.13,1.13,0,0,0-.34,0,.53.53,0,0,0-.24.11.59.59,0,0,0-.14.18.54.54,0,0,0,0,.22.49.49,0,0,0,.11.31,1.08,1.08,0,0,0,.29.21,2.79,2.79,0,0,0,.42.18l.47.18a4.81,4.81,0,0,1,.46.22,1.67,1.67,0,0,1,.42.32,1.45,1.45,0,0,1,.29.45A1.62,1.62,0,0,1,123.74,101.78Z"/><path class="cls-5" d="M36.25,113a3.33,3.33,0,0,1,0,.34q0,.14,0,.21a.23.23,0,0,1-.07.11.12.12,0,0,1-.09,0l-.11,0-.13,0-.16,0-.19,0a.7.7,0,0,0-.25,0,.83.83,0,0,0-.25.15,2.46,2.46,0,0,0-.28.28,4.67,4.67,0,0,0-.31.44v3.25a.17.17,0,0,1,0,.1.23.23,0,0,1-.12.08l-.23,0-.35,0-.36,0-.23,0a.36.36,0,0,1-.12-.08.17.17,0,0,1,0-.1v-5.22a.17.17,0,0,1,0-.1.15.15,0,0,1,.1-.07.83.83,0,0,1,.2,0h.61a.64.64,0,0,1,.19,0,.15.15,0,0,1,.1.07.17.17,0,0,1,0,.1v.65a3.5,3.5,0,0,1,.38-.48,1.81,1.81,0,0,1,.35-.3,1,1,0,0,1,.33-.16,1.12,1.12,0,0,1,.32,0h.17a.57.57,0,0,1,.18,0,.62.62,0,0,1,.16,0l.11.06,0,.06,0,.1s0,.1,0,.18Z"/><path class="cls-5" d="M41.85,114.94a.58.58,0,0,1-.12.4.45.45,0,0,1-.33.13H38.22a1.9,1.9,0,0,0,.08.6,1,1,0,0,0,.25.46,1,1,0,0,0,.44.29,1.87,1.87,0,0,0,.66.1,4.61,4.61,0,0,0,.68,0l.5-.12.36-.13a.55.55,0,0,1,.22-.05s.07,0,.09,0,0,0,.06.07a.33.33,0,0,1,0,.15,1.63,1.63,0,0,1,0,.24v.22c0,.06,0,.11,0,.16a.36.36,0,0,1,0,.11l-.06.08a.6.6,0,0,1-.21.11,3.11,3.11,0,0,1-.43.14l-.6.12a5.58,5.58,0,0,1-.73.05,3.78,3.78,0,0,1-1.22-.18,2.13,2.13,0,0,1-.87-.53,2.24,2.24,0,0,1-.53-.9,4.46,4.46,0,0,1-.17-1.28,4.17,4.17,0,0,1,.18-1.26,2.62,2.62,0,0,1,.53-.94,2.31,2.31,0,0,1,.84-.6,3,3,0,0,1,1.11-.2,2.88,2.88,0,0,1,1.12.19,2.06,2.06,0,0,1,.77.54,2.11,2.11,0,0,1,.44.81,3.64,3.64,0,0,1,.14,1Zm-1.43-.42a1.52,1.52,0,0,0-.25-1,1,1,0,0,0-.82-.35,1.07,1.07,0,0,0-.49.1,1.09,1.09,0,0,0-.35.29,1.38,1.38,0,0,0-.21.42,2.1,2.1,0,0,0-.08.52Z"/><path class="cls-5" d="M47.81,112.48a.56.56,0,0,0,0,.07.34.34,0,0,1,0,.09s0,.07,0,.11a1.55,1.55,0,0,0,0,.15l-1.57,4.72a.48.48,0,0,1-.08.16.4.4,0,0,1-.16.1,1.23,1.23,0,0,1-.31,0l-.51,0-.51,0a1.82,1.82,0,0,1-.31,0,.26.26,0,0,1-.16-.1.53.53,0,0,1-.08-.15l-1.57-4.72c0-.08,0-.15,0-.21s0-.11,0-.14v-.07a.2.2,0,0,1,0-.11.22.22,0,0,1,.12-.07,1,1,0,0,1,.22,0h.75l.23,0a.23.23,0,0,1,.12.08.67.67,0,0,1,.06.12l1.19,3.83,0,.15,0-.15,1.17-3.83a.33.33,0,0,1,0-.12.36.36,0,0,1,.12-.08l.22,0h.72a.87.87,0,0,1,.21,0,.23.23,0,0,1,.11.07A.2.2,0,0,1,47.81,112.48Z"/><path class="cls-5" d="M50.26,110.71a.85.85,0,0,1-.18.62,1,1,0,0,1-.68.17,1,1,0,0,1-.67-.17.81.81,0,0,1-.17-.59.87.87,0,0,1,.18-.62,1,1,0,0,1,.67-.17,1,1,0,0,1,.67.17A.79.79,0,0,1,50.26,110.71Zm-.11,7a.13.13,0,0,1,0,.1.23.23,0,0,1-.12.08,1,1,0,0,1-.22,0l-.36,0-.36,0a1,1,0,0,1-.22,0,.23.23,0,0,1-.12-.08.13.13,0,0,1,0-.1v-5.21a.13.13,0,0,1,0-.1.31.31,0,0,1,.12-.08l.22,0h.72l.22,0a.31.31,0,0,1,.12.08.13.13,0,0,1,0,.1Z"/><path class="cls-5" d="M55.29,116.23a1.63,1.63,0,0,1-.17.78,1.44,1.44,0,0,1-.47.57,2,2,0,0,1-.72.34,3.16,3.16,0,0,1-.9.12,3.43,3.43,0,0,1-.56-.05,3,3,0,0,1-.47-.11,1.69,1.69,0,0,1-.35-.14.63.63,0,0,1-.21-.13.38.38,0,0,1-.1-.19,1.92,1.92,0,0,1,0-.39,2,2,0,0,1,0-.27.65.65,0,0,1,0-.17.18.18,0,0,1,.06-.08l.09,0a.4.4,0,0,1,.19.07,2.2,2.2,0,0,0,.31.16,3.12,3.12,0,0,0,.44.17A1.91,1.91,0,0,0,53,117a1.32,1.32,0,0,0,.36,0,.81.81,0,0,0,.27-.11.55.55,0,0,0,.17-.2.54.54,0,0,0,.06-.27.48.48,0,0,0-.11-.3,1.16,1.16,0,0,0-.29-.22,3,3,0,0,0-.4-.17l-.46-.18-.47-.23a1.76,1.76,0,0,1-.4-.32,1.45,1.45,0,0,1-.29-.45,1.7,1.7,0,0,1-.1-.63,1.58,1.58,0,0,1,.14-.69,1.46,1.46,0,0,1,.42-.53,2,2,0,0,1,.67-.35,3.09,3.09,0,0,1,.89-.12,3.87,3.87,0,0,1,.48,0c.15,0,.29,0,.42.09a2.68,2.68,0,0,1,.31.11l.19.11.08.09,0,.1a.61.61,0,0,1,0,.15,1.62,1.62,0,0,1,0,.23,1.93,1.93,0,0,1,0,.26.65.65,0,0,1,0,.16.16.16,0,0,1-.05.08l-.09,0a.33.33,0,0,1-.16-.07l-.28-.13-.38-.13a2,2,0,0,0-.51-.06,1.18,1.18,0,0,0-.34,0,.67.67,0,0,0-.24.12.49.49,0,0,0-.14.18.51.51,0,0,0-.05.22.44.44,0,0,0,.11.3,1.46,1.46,0,0,0,.3.22,2.67,2.67,0,0,0,.41.17l.47.18a4,4,0,0,1,.47.23,1.77,1.77,0,0,1,.41.31,1.51,1.51,0,0,1,.29.45A1.64,1.64,0,0,1,55.29,116.23Z"/><path class="cls-5" d="M60.85,117.72a.16.16,0,0,1-.06.13.5.5,0,0,1-.19.07l-.37,0-.38,0a.39.39,0,0,1-.17-.07.19.19,0,0,1,0-.13v-.42a2.43,2.43,0,0,1-.74.54,2.09,2.09,0,0,1-.91.2,2.7,2.7,0,0,1-.77-.11,1.91,1.91,0,0,1-.6-.32,1.46,1.46,0,0,1-.39-.53,1.75,1.75,0,0,1-.14-.74,1.81,1.81,0,0,1,.17-.8,1.49,1.49,0,0,1,.54-.55,2.53,2.53,0,0,1,.88-.33,6.33,6.33,0,0,1,1.22-.1h.51v-.32a1.88,1.88,0,0,0,0-.43.72.72,0,0,0-.16-.3.65.65,0,0,0-.31-.19,1.57,1.57,0,0,0-.47,0,2.3,2.3,0,0,0-.66.08,3,3,0,0,0-.51.18l-.37.18a.6.6,0,0,1-.24.08.17.17,0,0,1-.12,0,.36.36,0,0,1-.08-.12.78.78,0,0,1,0-.18,2,2,0,0,1,0-.25,1.12,1.12,0,0,1,0-.29.52.52,0,0,1,.11-.19,1.13,1.13,0,0,1,.29-.18,2.67,2.67,0,0,1,.48-.19,4.38,4.38,0,0,1,.6-.15,4.91,4.91,0,0,1,.67,0,4,4,0,0,1,1.05.12,1.76,1.76,0,0,1,.72.37,1.42,1.42,0,0,1,.41.64,3.16,3.16,0,0,1,.13.93Zm-1.45-2.24h-.56a2.68,2.68,0,0,0-.61.06,1.1,1.1,0,0,0-.41.15.71.71,0,0,0-.23.26.74.74,0,0,0-.07.34.7.7,0,0,0,.2.52.86.86,0,0,0,.58.18,1.1,1.1,0,0,0,.57-.15,2.45,2.45,0,0,0,.53-.47Z"/><path class="cls-5" d="M65.67,113a3.33,3.33,0,0,1,0,.34.87.87,0,0,1,0,.21.17.17,0,0,1-.06.11.14.14,0,0,1-.09,0l-.11,0-.13,0-.16,0-.2,0a.69.69,0,0,0-.24,0,1,1,0,0,0-.26.15,2.44,2.44,0,0,0-.27.28,4.67,4.67,0,0,0-.31.44v3.25a.17.17,0,0,1,0,.1.36.36,0,0,1-.12.08l-.23,0-.36,0-.35,0-.23,0a.23.23,0,0,1-.12-.08.17.17,0,0,1,0-.1v-5.22a.17.17,0,0,1,0-.1.13.13,0,0,1,.1-.07.83.83,0,0,1,.2,0h.61a.74.74,0,0,1,.19,0,.18.18,0,0,1,.1.07.16.16,0,0,1,0,.1v.65a4.43,4.43,0,0,1,.39-.48,1.81,1.81,0,0,1,.35-.3,1.06,1.06,0,0,1,.32-.16,1.24,1.24,0,0,1,.33,0h.17l.18,0,.16,0a.29.29,0,0,1,.1.06.13.13,0,0,1,.05.06l0,.1s0,.1,0,.18A3.23,3.23,0,0,1,65.67,113Z"/><path class="cls-5" d="M68.05,117.7a.17.17,0,0,1,0,.1.36.36,0,0,1-.12.08l-.23,0-.36,0-.35,0-.23,0a.36.36,0,0,1-.12-.08.17.17,0,0,1,0-.1V110a.19.19,0,0,1,0-.1.36.36,0,0,1,.12-.08,1,1,0,0,1,.23,0l.35,0,.36,0a1,1,0,0,1,.23,0,.36.36,0,0,1,.12.08.19.19,0,0,1,0,.1Z"/><path class="cls-5" d="M74.8,115a4.28,4.28,0,0,1-.17,1.22,2.57,2.57,0,0,1-.54.94,2.38,2.38,0,0,1-.89.62,3.46,3.46,0,0,1-1.26.22,3.37,3.37,0,0,1-1.21-.2,2.14,2.14,0,0,1-.86-.56,2.43,2.43,0,0,1-.5-.91,4.22,4.22,0,0,1-.16-1.23,4,4,0,0,1,.17-1.22,2.57,2.57,0,0,1,.54-.94,2.38,2.38,0,0,1,.89-.62,3.47,3.47,0,0,1,1.26-.21,3.38,3.38,0,0,1,1.21.19,2,2,0,0,1,.86.56,2.31,2.31,0,0,1,.5.9A4.24,4.24,0,0,1,74.8,115Zm-1.52.06a3.84,3.84,0,0,0-.06-.71,1.82,1.82,0,0,0-.2-.57,1.06,1.06,0,0,0-.39-.37,1.29,1.29,0,0,0-.62-.14,1.32,1.32,0,0,0-.57.12,1,1,0,0,0-.4.35,1.58,1.58,0,0,0-.24.56,3.29,3.29,0,0,0-.08.74,3.17,3.17,0,0,0,.07.71,1.82,1.82,0,0,0,.2.57,1.06,1.06,0,0,0,.39.37,1.41,1.41,0,0,0,.61.13,1.31,1.31,0,0,0,.58-.12,1,1,0,0,0,.4-.35,1.53,1.53,0,0,0,.24-.55A3.38,3.38,0,0,0,73.28,115.1Z"/><path class="cls-5" d="M80.26,117.88a3.82,3.82,0,0,1-.1,1,1.67,1.67,0,0,1-.32.64,1.34,1.34,0,0,1-.54.4,2.1,2.1,0,0,1-.75.13,1.62,1.62,0,0,1-.41,0l-.25-.06a.22.22,0,0,1-.1-.09.61.61,0,0,1-.05-.12s0-.1,0-.15a1.41,1.41,0,0,1,0-.22,2.1,2.1,0,0,1,0-.27c0-.08,0-.13,0-.18l.06-.09a.08.08,0,0,1,.07,0l.12,0h.2a.67.67,0,0,0,.26,0,.38.38,0,0,0,.18-.15.7.7,0,0,0,.11-.26,3.13,3.13,0,0,0,0-.51v-5.36a.13.13,0,0,1,0-.1.35.35,0,0,1,.11-.08l.23,0h.71l.23,0a.62.62,0,0,1,.12.08.17.17,0,0,1,0,.1Zm.11-7.17a.85.85,0,0,1-.18.62,1,1,0,0,1-.67.17,1,1,0,0,1-.67-.17.77.77,0,0,1-.17-.59.87.87,0,0,1,.18-.62,1,1,0,0,1,.67-.17,1,1,0,0,1,.67.17A.79.79,0,0,1,80.37,110.71Z"/><path class="cls-5" d="M86.69,117.7a.17.17,0,0,1,0,.1.21.21,0,0,1-.1.08.88.88,0,0,1-.2,0l-.3,0-.31,0-.19,0a.21.21,0,0,1-.1-.08.17.17,0,0,1,0-.1v-.6a3.22,3.22,0,0,1-.88.7,2,2,0,0,1-.93.24,2,2,0,0,1-.9-.18,1.56,1.56,0,0,1-.59-.48,2,2,0,0,1-.33-.71,4.58,4.58,0,0,1-.09-1v-3.2a.17.17,0,0,1,0-.1.18.18,0,0,1,.12-.07.89.89,0,0,1,.23,0h.71a.9.9,0,0,1,.22,0,.18.18,0,0,1,.12.07.13.13,0,0,1,0,.1v3a2.65,2.65,0,0,0,0,.63,1.25,1.25,0,0,0,.16.37.73.73,0,0,0,.28.24.8.8,0,0,0,.39.08.94.94,0,0,0,.56-.2,3.76,3.76,0,0,0,.61-.6v-3.47a.17.17,0,0,1,0-.1.18.18,0,0,1,.11-.07l.23,0h.71a1,1,0,0,1,.23,0,.18.18,0,0,1,.11.07.13.13,0,0,1,0,.1Z"/><path class="cls-5" d="M93.16,117.7a.13.13,0,0,1,0,.1.23.23,0,0,1-.12.08,1,1,0,0,1-.22,0l-.35,0-.36,0a1,1,0,0,1-.23,0,.28.28,0,0,1-.12-.08.17.17,0,0,1,0-.1v-3a2.27,2.27,0,0,0-.06-.59,1.32,1.32,0,0,0-.16-.38.78.78,0,0,0-.27-.24.93.93,0,0,0-.39-.08,1,1,0,0,0-.57.2,3.06,3.06,0,0,0-.59.6v3.47a.18.18,0,0,1,0,.1.23.23,0,0,1-.12.08l-.23,0-.35,0-.36,0-.23,0a.36.36,0,0,1-.12-.08.17.17,0,0,1,0-.1v-5.22a.17.17,0,0,1,0-.1.15.15,0,0,1,.1-.07,1,1,0,0,1,.2,0h.61a.64.64,0,0,1,.19,0,.15.15,0,0,1,.1.07.17.17,0,0,1,0,.1v.6a3.42,3.42,0,0,1,.88-.7,2.06,2.06,0,0,1,.93-.23,2.16,2.16,0,0,1,.9.17,1.56,1.56,0,0,1,.59.48,2,2,0,0,1,.33.71,4.38,4.38,0,0,1,.1,1Z"/><path class="cls-5" d="M97.58,117.19a1.92,1.92,0,0,1,0,.39.34.34,0,0,1-.09.19.28.28,0,0,1-.15.1,1.35,1.35,0,0,1-.24.08l-.3,0-.32,0a2.39,2.39,0,0,1-.76-.11,1.27,1.27,0,0,1-.54-.35,1.4,1.4,0,0,1-.31-.58,3.31,3.31,0,0,1-.1-.83v-2.67h-.62c-.08,0-.13,0-.17-.14a1.27,1.27,0,0,1-.06-.46,2.53,2.53,0,0,1,0-.29.56.56,0,0,1,0-.18.2.2,0,0,1,.07-.1.17.17,0,0,1,.1,0h.62v-1.16a.15.15,0,0,1,0-.11.24.24,0,0,1,.11-.08l.23,0,.35,0,.36,0,.23,0a.36.36,0,0,1,.12.08.2.2,0,0,1,0,.11v1.16h1.14a.17.17,0,0,1,.1,0,.2.2,0,0,1,.07.1.56.56,0,0,1,0,.18,2.53,2.53,0,0,1,0,.29,1.27,1.27,0,0,1-.06.46c0,.09-.09.14-.17.14H96.21v2.45a1.22,1.22,0,0,0,.14.64.53.53,0,0,0,.48.21.75.75,0,0,0,.21,0l.16,0,.13,0,.09,0,.07,0s0,0,0,.08a.61.61,0,0,1,0,.17A2.1,2.1,0,0,1,97.58,117.19Z"/><path class="cls-5" d="M103.81,115a4,4,0,0,1-.18,1.22,2.41,2.41,0,0,1-1.43,1.56,3.71,3.71,0,0,1-2.46,0,2.14,2.14,0,0,1-.86-.56,2.3,2.3,0,0,1-.5-.91,4.2,4.2,0,0,1-.17-1.23,4,4,0,0,1,.18-1.22,2.57,2.57,0,0,1,.54-.94,2.3,2.3,0,0,1,.89-.62,3.92,3.92,0,0,1,2.47,0,2,2,0,0,1,.85.56,2.21,2.21,0,0,1,.51.9A4.61,4.61,0,0,1,103.81,115Zm-1.52.06a3.84,3.84,0,0,0-.06-.71,1.61,1.61,0,0,0-.21-.57.93.93,0,0,0-.39-.37,1.22,1.22,0,0,0-.61-.14,1.26,1.26,0,0,0-.57.12,1,1,0,0,0-.4.35,1.58,1.58,0,0,0-.24.56,3.29,3.29,0,0,0-.08.74,3.92,3.92,0,0,0,.06.71,2.12,2.12,0,0,0,.21.57,1.06,1.06,0,0,0,.39.37,1.38,1.38,0,0,0,.61.13,1.34,1.34,0,0,0,.58-.12,1,1,0,0,0,.4-.35,1.53,1.53,0,0,0,.24-.55A3.38,3.38,0,0,0,102.29,115.1Z"/><path class="cls-5" d="M108.65,116.23a1.76,1.76,0,0,1-.17.78,1.44,1.44,0,0,1-.47.57,2,2,0,0,1-.72.34,3.21,3.21,0,0,1-.9.12,3.43,3.43,0,0,1-.56-.05,2.71,2.71,0,0,1-.47-.11,1.8,1.8,0,0,1-.36-.14.69.69,0,0,1-.2-.13.38.38,0,0,1-.1-.19,1.79,1.79,0,0,1,0-.39,1.76,1.76,0,0,1,0-.27.4.4,0,0,1,0-.17.18.18,0,0,1,.06-.08l.09,0a.44.44,0,0,1,.19.07,2.2,2.2,0,0,0,.31.16,3.12,3.12,0,0,0,.44.17,1.91,1.91,0,0,0,.56.07,1.37,1.37,0,0,0,.36,0,.81.81,0,0,0,.27-.11.55.55,0,0,0,.17-.2.54.54,0,0,0,.06-.27.48.48,0,0,0-.11-.3,1.16,1.16,0,0,0-.29-.22,3,3,0,0,0-.4-.17l-.47-.18-.46-.23a1.76,1.76,0,0,1-.4-.32,1.29,1.29,0,0,1-.29-.45,1.69,1.69,0,0,1-.11-.63,1.58,1.58,0,0,1,.15-.69,1.46,1.46,0,0,1,.42-.53,1.94,1.94,0,0,1,.67-.35,3,3,0,0,1,.89-.12,3.87,3.87,0,0,1,.48,0,3.62,3.62,0,0,1,.41.09l.32.11a1,1,0,0,1,.18.11.22.22,0,0,1,.08.09.3.3,0,0,1,0,.1s0,.09,0,.15,0,.14,0,.23,0,.19,0,.26,0,.12,0,.16a.12.12,0,0,1-.06.08l-.08,0a.33.33,0,0,1-.16-.07l-.28-.13-.39-.13a1.85,1.85,0,0,0-.5-.06,1.18,1.18,0,0,0-.34,0,.67.67,0,0,0-.24.12.49.49,0,0,0-.14.18.51.51,0,0,0,0,.22.44.44,0,0,0,.11.3,1.23,1.23,0,0,0,.3.22,2.67,2.67,0,0,0,.41.17l.47.18a3.29,3.29,0,0,1,.46.23,1.63,1.63,0,0,1,.42.31,1.74,1.74,0,0,1,.29.45A1.64,1.64,0,0,1,108.65,116.23Z"/><path class="cls-5" d="M112,117.13a2.27,2.27,0,0,1,0,.41.55.55,0,0,1-.14.26.44.44,0,0,1-.25.14,1.62,1.62,0,0,1-.8,0,.47.47,0,0,1-.26-.14.64.64,0,0,1-.13-.26,2.12,2.12,0,0,1,0-.82.68.68,0,0,1,.13-.27.47.47,0,0,1,.26-.14,1.62,1.62,0,0,1,.8,0,.44.44,0,0,1,.25.14.58.58,0,0,1,.14.27A2.27,2.27,0,0,1,112,117.13Zm-.19-1.71a.17.17,0,0,1,0,.1.2.2,0,0,1-.1.08.83.83,0,0,1-.2.05l-.31,0-.31,0a.83.83,0,0,1-.2-.05.16.16,0,0,1-.1-.08.17.17,0,0,1,0-.1l-.16-5.32a.2.2,0,0,1,0-.13.25.25,0,0,1,.12-.1,1.22,1.22,0,0,1,.25-.05l.39,0,.39,0a.7.7,0,0,1,.24.06.33.33,0,0,1,.13.09.28.28,0,0,1,0,.13Z"/></g></g></svg>