<svg xmlns="http://www.w3.org/2000/svg" xmlns:xlink="http://www.w3.org/1999/xlink" viewBox="0 0 293.97 299.94"><defs><style>.cls-1{mask:url(#mask);filter:url(#luminosity-noclip-2);}.cls-2,.cls-9{mix-blend-mode:multiply;}.cls-2{fill:url(#radial-gradient);}.cls-3{fill:none;}.cls-4{isolation:isolate;}.cls-5{fill:#007b5e;}.cls-6{clip-path:url(#clip-path);}.cls-7{opacity:0.57;}.cls-8{mask:url(#mask-2);}.cls-9{fill:url(#Degradado_sin_nombre_2);}.cls-10{filter:url(#luminosity-noclip);}</style><filter id="luminosity-noclip" x="-10.56" y="-9145.85" width="308.99" height="32766" filterUnits="userSpaceOnUse" color-interpolation-filters="sRGB"><feFlood flood-color="#fff" result="bg"/><feBlend in="SourceGraphic" in2="bg"/></filter><mask id="mask" x="-10.56" y="-9145.85" width="308.99" height="32766" maskUnits="userSpaceOnUse"><g class="cls-10"/></mask><radialGradient id="radial-gradient" cx="-1363.44" cy="-969.64" r="112.66" gradientTransform="matrix(0.96, 0.22, -0.98, 0.21, 509.9, 780.44)" gradientUnits="userSpaceOnUse"><stop offset="0.5" stop-color="#a6a6a6"/><stop offset="0.6" stop-color="#a3a3a3"/><stop offset="0.67" stop-color="#999"/><stop offset="0.75" stop-color="#888"/><stop offset="0.81" stop-color="#707070"/><stop offset="0.88" stop-color="#515151"/><stop offset="0.94" stop-color="#2c2c2c"/><stop offset="1"/></radialGradient><clipPath id="clip-path"><circle class="cls-3" cx="147.52" cy="139.89" r="119.22"/></clipPath><filter id="luminosity-noclip-2" x="-10.56" y="245.16" width="308.99" height="68.15" filterUnits="userSpaceOnUse" color-interpolation-filters="sRGB"><feFlood flood-color="#fff" result="bg"/><feBlend in="SourceGraphic" in2="bg"/></filter><mask id="mask-2" x="-10.56" y="245.16" width="308.99" height="68.15" maskUnits="userSpaceOnUse"><g class="cls-1"><path class="cls-2" d="M298.42,280.21c-.56,18.81-70.22,33.62-155.55,33.09s-154-16.23-153.43-35.05S59.74,244.63,145,245.17,299,261.4,298.42,280.21Z"/></g></mask><radialGradient id="Degradado_sin_nombre_2" cx="-1363.44" cy="-969.64" r="112.66" gradientTransform="matrix(0.96, 0.22, -0.98, 0.21, 509.9, 780.44)" gradientUnits="userSpaceOnUse"><stop offset="0" stop-color="#3c3c3b"/><stop offset="0.13" stop-color="#646463" stop-opacity="0.79"/><stop offset="0.47" stop-color="#b9b9b9" stop-opacity="0.36"/><stop offset="0.77" stop-color="#ededed" stop-opacity="0.09"/><stop offset="1" stop-color="#fff" stop-opacity="0"/></radialGradient></defs><g class="cls-4"><g id="Capa_1" data-name="Capa 1"><path class="cls-5" d="M87.78,20.9a1.1,1.1,0,0,1-.49-2.09A133.83,133.83,0,0,1,121.14,7.26a1.1,1.1,0,1,1,.43,2.16,132.12,132.12,0,0,0-33.3,11.36A1.11,1.11,0,0,1,87.78,20.9Z"/><path class="cls-5" d="M126.05,8.6a1.1,1.1,0,0,1-.17-2.19c1.06-.17,2.12-.33,3.18-.47a1.11,1.11,0,0,1,.3,2.19c-1.05.14-2.09.29-3.13.46Z"/><path class="cls-5" d="M204,19.55a1,1,0,0,1-.47-.11A132.86,132.86,0,0,0,144.8,6.94a1.1,1.1,0,0,1-1.12-1.08,1.11,1.11,0,0,1,1.08-1.13A135.28,135.28,0,0,1,204.5,17.45a1.1,1.1,0,0,1-.47,2.1Z"/><path class="cls-5" d="M219.37,28.06a1.11,1.11,0,0,1-.6-.18c-.74-.48-1.48-.95-2.23-1.41a1.1,1.1,0,1,1,1.16-1.88L220,26a1.11,1.11,0,0,1-.6,2Z"/><path class="cls-5" d="M235.46,40.26a1.08,1.08,0,0,1-.73-.28,132.86,132.86,0,0,0-11.58-9.15A1.11,1.11,0,1,1,224.42,29a136.12,136.12,0,0,1,11.77,9.3,1.11,1.11,0,0,1-.73,1.94Z"/><path class="cls-5" d="M265.67,79a1.1,1.1,0,0,1-1-.6,132.23,132.23,0,0,0-18.61-27.11,1.1,1.1,0,1,1,1.65-1.47,134.36,134.36,0,0,1,18.92,27.56,1.1,1.1,0,0,1-.47,1.49A1.07,1.07,0,0,1,265.67,79Z"/><path class="cls-5" d="M273.73,98.21a1.11,1.11,0,0,1-1.05-.76c-.63-1.88-1.29-3.74-2-5.53a1.1,1.1,0,1,1,2.06-.79c.7,1.82,1.37,3.71,2,5.63a1.11,1.11,0,0,1-.7,1.39A1.12,1.12,0,0,1,273.73,98.21Z"/><path class="cls-5" d="M280.46,146.46h0a1.11,1.11,0,0,1-1.05-1.16,133.58,133.58,0,0,0-5.4-43.77,1.11,1.11,0,1,1,2.12-.63,135.82,135.82,0,0,1,5.48,44.5A1.1,1.1,0,0,1,280.46,146.46Z"/><path class="cls-5" d="M269.15,194.37a1.17,1.17,0,0,1-.45-.09,1.1,1.1,0,0,1-.56-1.46A131.24,131.24,0,0,0,278,159.37a1.11,1.11,0,0,1,2.19.33,133.45,133.45,0,0,1-10,34A1.11,1.11,0,0,1,269.15,194.37Z"/><path class="cls-5" d="M265.24,202.42a1.16,1.16,0,0,1-.51-.12,1.11,1.11,0,0,1-.46-1.5c.49-.92,1-1.85,1.43-2.79a1.1,1.1,0,1,1,2,1c-.47.95-.95,1.9-1.45,2.84A1.11,1.11,0,0,1,265.24,202.42Z"/><path class="cls-5" d="M254.3,219.86a1.11,1.11,0,0,1-.89-1.76c1-1.3,1.9-2.61,2.8-3.92a1.09,1.09,0,0,1,1.53-.28,1.11,1.11,0,0,1,.29,1.53c-.91,1.33-1.86,2.67-2.84,4A1.11,1.11,0,0,1,254.3,219.86Z"/><path class="cls-5" d="M225.23,248.36a1.12,1.12,0,0,1-.9-.46,1.11,1.11,0,0,1,.26-1.54,130.58,130.58,0,0,0,25.28-23.71,1.11,1.11,0,1,1,1.71,1.4,133.15,133.15,0,0,1-25.7,24.11A1.11,1.11,0,0,1,225.23,248.36Z"/><path class="cls-5" d="M216.45,254.14a1.1,1.1,0,0,1-.57-2c1.39-.84,2.8-1.73,4.2-2.64a1.11,1.11,0,0,1,1.21,1.85c-1.42.93-2.86,1.83-4.27,2.68A1.1,1.1,0,0,1,216.45,254.14Z"/><path class="cls-5" d="M175,270.52a1.11,1.11,0,0,1-.23-2.19A133.6,133.6,0,0,0,210.73,255a1.1,1.1,0,0,1,1.05,1.94,135.58,135.58,0,0,1-36.51,13.51Z"/><path class="cls-5" d="M163.16,272.5a1.1,1.1,0,0,1-.13-2.2c2.24-.27,4.49-.6,6.68-1a1.1,1.1,0,1,1,.37,2.17c-2.22.39-4.51.72-6.79,1Z"/><path class="cls-5" d="M147,273.47a134.55,134.55,0,0,1-15.95-1,1.1,1.1,0,0,1,.26-2.19,134,134,0,0,0,23.88.68,1.1,1.1,0,1,1,.13,2.2C152.6,273.38,149.82,273.47,147,273.47Z"/><path class="cls-5" d="M126.23,271.84l-.18,0c-1.5-.24-3-.5-4.46-.78a1.1,1.1,0,0,1-.87-1.3,1.09,1.09,0,0,1,1.29-.87c1.43.28,2.91.54,4.39.77a1.11,1.11,0,0,1-.17,2.2Z"/><path class="cls-5" d="M113,269a1,1,0,0,1-.29,0,134.1,134.1,0,0,1-33-13.69,1.11,1.11,0,0,1,1.12-1.91,131.92,131.92,0,0,0,32.49,13.47A1.1,1.1,0,0,1,113,269Z"/><path class="cls-5" d="M73.56,251.3a1.11,1.11,0,0,1-.61-.18l-2.12-1.43a1.11,1.11,0,1,1,1.26-1.82l2.08,1.41a1.1,1.1,0,0,1,.31,1.53A1.12,1.12,0,0,1,73.56,251.3Z"/><path class="cls-5" d="M66.93,246.61a1.09,1.09,0,0,1-.66-.22,134.39,134.39,0,0,1-21.2-19.93A1.11,1.11,0,1,1,46.75,225,132.25,132.25,0,0,0,67.6,244.63a1.1,1.1,0,0,1,.22,1.55A1.13,1.13,0,0,1,66.93,246.61Z"/><path class="cls-5" d="M36.51,214.42a1.09,1.09,0,0,1-.92-.49c-2.1-3.13-4.11-6.41-6-9.74a1.1,1.1,0,1,1,1.93-1.07c1.81,3.27,3.79,6.5,5.85,9.59a1.1,1.1,0,0,1-.3,1.53A1.14,1.14,0,0,1,36.51,214.42Z"/><path class="cls-5" d="M28.33,200.47a1.1,1.1,0,0,1-1-.61c-.76-1.5-1.48-3-2.13-4.4a1.1,1.1,0,1,1,2-.93c.65,1.4,1.36,2.86,2.1,4.33a1.1,1.1,0,0,1-1,1.61Z"/><path class="cls-5" d="M20.67,182.11a1.12,1.12,0,0,1-1.05-.76c-.29-.89-.58-1.77-.85-2.66a1.1,1.1,0,1,1,2.11-.65q.4,1.31.84,2.61a1.11,1.11,0,0,1-.7,1.4A1.07,1.07,0,0,1,20.67,182.11Z"/><path class="cls-5" d="M18.16,173.61a1.11,1.11,0,0,1-1.07-.82,130.8,130.8,0,0,1-3.5-19.22,1.11,1.11,0,0,1,2.2-.23,127.63,127.63,0,0,0,3.44,18.89,1.11,1.11,0,0,1-.79,1.35Z"/><path class="cls-5" d="M13.94,140.42a1.1,1.1,0,0,1-1.1-1.1,136.4,136.4,0,0,1,.93-16.06,1.11,1.11,0,0,1,2.2.26,132,132,0,0,0-.92,15.8,1.11,1.11,0,0,1-1.11,1.1Z"/><path class="cls-5" d="M15.56,119.41h-.17a1.11,1.11,0,0,1-.92-1.26c.23-1.49.5-3,.79-4.53a1.1,1.1,0,1,1,2.17.41c-.29,1.49-.55,3-.78,4.46A1.1,1.1,0,0,1,15.56,119.41Z"/><path class="cls-5" d="M20,100.41a1,1,0,0,1-.33,0A1.11,1.11,0,0,1,18.91,99a130.08,130.08,0,0,1,6-15.6,1.11,1.11,0,0,1,2,.92A128.59,128.59,0,0,0,21,99.63,1.09,1.09,0,0,1,20,100.41Z"/><path class="cls-5" d="M33.13,71.3a1.1,1.1,0,0,1-.57-.16,1.11,1.11,0,0,1-.37-1.52c.59-1,1.2-1.94,1.81-2.9a1.11,1.11,0,1,1,1.86,1.2c-.61.94-1.2,1.89-1.78,2.85A1.11,1.11,0,0,1,33.13,71.3Z"/><path class="cls-5" d="M38.46,63.22a1.11,1.11,0,0,1-.9-1.75A136.38,136.38,0,0,1,65.78,32.23,1.11,1.11,0,0,1,67.13,34,134.38,134.38,0,0,0,39.36,62.75,1.08,1.08,0,0,1,38.46,63.22Z"/><path class="cls-5" d="M71.24,30.72a1.12,1.12,0,0,1-.91-.47,1.11,1.11,0,0,1,.27-1.54c1.2-.84,2.45-1.68,3.72-2.5a1.1,1.1,0,1,1,1.2,1.85c-1.25.82-2.48,1.64-3.65,2.46A1.14,1.14,0,0,1,71.24,30.72Z"/><path class="cls-5" d="M211.34,33.09a1.1,1.1,0,0,1-.57-.16,123.4,123.4,0,0,0-30.24-13,1.11,1.11,0,0,1,.59-2.13A125.42,125.42,0,0,1,211.91,31a1.1,1.1,0,0,1-.57,2.05Z"/><path class="cls-5" d="M217.62,37.11a1.1,1.1,0,0,1-.62-.19c-.82-.56-1.64-1.1-2.47-1.64a1.11,1.11,0,1,1,1.21-1.85c.84.54,1.67,1.1,2.5,1.66a1.11,1.11,0,0,1-.62,2Z"/><path class="cls-5" d="M262.44,92a1.1,1.1,0,0,1-1-.68,124.3,124.3,0,0,0-33-45.54,1.11,1.11,0,0,1,1.45-1.67,126.56,126.56,0,0,1,33.55,46.36,1.11,1.11,0,0,1-.59,1.45A1.09,1.09,0,0,1,262.44,92Z"/><path class="cls-5" d="M267.76,107.55a1.11,1.11,0,0,1-1.07-.82c-.21-.79-.44-1.58-.66-2.37a1.1,1.1,0,1,1,2.11-.62c.24.8.47,1.61.68,2.42a1.1,1.1,0,0,1-.78,1.35A.9.9,0,0,1,267.76,107.55Z"/><path class="cls-5" d="M271.27,126.13a1.1,1.1,0,0,1-1.09-1,122.12,122.12,0,0,0-2.3-13.62,1.12,1.12,0,0,1,.83-1.33A1.1,1.1,0,0,1,270,111a121.85,121.85,0,0,1,2.34,13.86,1.1,1.1,0,0,1-1,1.22Z"/><path class="cls-5" d="M267.93,172a1,1,0,0,1-.29,0,1.1,1.1,0,0,1-.78-1.35,123.91,123.91,0,0,0,4.09-30.5,1.09,1.09,0,0,1,1.1-1.09h0a1.09,1.09,0,0,1,1.09,1.11A126,126,0,0,1,269,171.21,1.12,1.12,0,0,1,267.93,172Z"/><path class="cls-5" d="M261.48,190.41a1.12,1.12,0,0,1-.44-.09,1.1,1.1,0,0,1-.57-1.45c.75-1.7,1.45-3.41,2.11-5.08a1.1,1.1,0,0,1,1.43-.63,1.11,1.11,0,0,1,.63,1.43c-.67,1.7-1.39,3.44-2.14,5.16A1.11,1.11,0,0,1,261.48,190.41Z"/><path class="cls-5" d="M235.87,228.16a1.11,1.11,0,0,1-.78-1.88,125,125,0,0,0,23.72-33.78,1.1,1.1,0,1,1,2,.95,127.48,127.48,0,0,1-24.14,34.38A1.11,1.11,0,0,1,235.87,228.16Z"/><path class="cls-5" d="M197.93,254.35a1.1,1.1,0,0,1-.44-2.11,123.09,123.09,0,0,0,27.82-17.06,1.11,1.11,0,1,1,1.4,1.72,124.83,124.83,0,0,1-28.33,17.35A1,1,0,0,1,197.93,254.35Z"/><path class="cls-5" d="M190.17,257.49a1.1,1.1,0,0,1-.38-2.14c.92-.34,1.83-.68,2.74-1a1.11,1.11,0,0,1,.81,2.06l-2.79,1.05A1.06,1.06,0,0,1,190.17,257.49Z"/><path class="cls-5" d="M171.62,262.74a1.12,1.12,0,0,1-1.09-.89,1.1,1.1,0,0,1,.87-1.3c1.47-.29,2.95-.62,4.4-1a1.1,1.1,0,0,1,.51,2.15c-1.47.35-3,.69-4.47,1Z"/><path class="cls-5" d="M147.66,265.1a126.19,126.19,0,0,1-14.25-.81,1.11,1.11,0,1,1,.25-2.2,122.1,122.1,0,0,0,32.42-.6,1.1,1.1,0,1,1,.34,2.18A123.65,123.65,0,0,1,147.66,265.1Z"/><path class="cls-5" d="M128.42,263.6h-.17c-1.57-.25-3.13-.52-4.66-.82a1.11,1.11,0,0,1,.42-2.17c1.5.29,3,.57,4.58.81a1.1,1.1,0,0,1-.17,2.19Z"/><path class="cls-5" d="M118.33,261.6a1.09,1.09,0,0,1-.26,0A127.29,127.29,0,0,1,84.2,248a1.11,1.11,0,1,1,1.1-1.92,125.1,125.1,0,0,0,33.28,13.31,1.1,1.1,0,0,1-.25,2.18Z"/><path class="cls-5" d="M80.55,245.64a1.18,1.18,0,0,1-.59-.17c-1.79-1.14-3.59-2.34-5.34-3.58a1.1,1.1,0,1,1,1.27-1.8c1.72,1.21,3.49,2.4,5.25,3.51a1.1,1.1,0,0,1,.35,1.52A1.12,1.12,0,0,1,80.55,245.64Z"/><path class="cls-5" d="M69.34,237.66a1.13,1.13,0,0,1-.69-.24,127.45,127.45,0,0,1-16.44-15.73,1.11,1.11,0,1,1,1.67-1.45A124.28,124.28,0,0,0,70,235.69a1.11,1.11,0,0,1-.69,2Z"/><path class="cls-5" d="M50,218.45a1.09,1.09,0,0,1-.86-.41c-.91-1.13-1.79-2.26-2.61-3.35a1.1,1.1,0,1,1,1.77-1.32c.8,1.06,1.66,2.17,2.56,3.28a1.1,1.1,0,0,1-.86,1.8Z"/><path class="cls-5" d="M42.57,208.19a1.1,1.1,0,0,1-.93-.51,125.7,125.7,0,0,1-14.36-30.27,1.11,1.11,0,1,1,2.11-.67A123.19,123.19,0,0,0,43.5,206.48a1.11,1.11,0,0,1-.93,1.71Z"/><path class="cls-5" d="M26.3,171.12a1.09,1.09,0,0,1-1.06-.83c-.2-.78-.39-1.55-.58-2.33a1.11,1.11,0,1,1,2.16-.5c.18.76.36,1.52.56,2.29a1.1,1.1,0,0,1-.8,1.34Z"/><path class="cls-5" d="M24.65,163.71a1.11,1.11,0,0,1-1.09-.9,126,126,0,0,1-2.21-27.17,1.11,1.11,0,1,1,2.21.06,123.46,123.46,0,0,0,2.17,26.69,1.1,1.1,0,0,1-.87,1.3Z"/><path class="cls-5" d="M23.72,122.24h-.16a1.11,1.11,0,0,1-.94-1.25c.51-3.49,1.17-7,2-10.52a1.11,1.11,0,0,1,2.16.5c-.8,3.43-1.46,6.91-2,10.33A1.11,1.11,0,0,1,23.72,122.24Z"/><path class="cls-5" d="M26.79,107.41a1,1,0,0,1-.29,0,1.1,1.1,0,0,1-.77-1.35c.41-1.52.84-3,1.28-4.41a1.11,1.11,0,0,1,2.11.66c-.43,1.38-.85,2.84-1.26,4.33A1.1,1.1,0,0,1,26.79,107.41Z"/><path class="cls-5" d="M33,89.84a1.1,1.1,0,0,1-1-1.55c.35-.79.71-1.59,1.08-2.38a1.1,1.1,0,1,1,2,.94c-.36.77-.71,1.55-1.06,2.33A1.09,1.09,0,0,1,33,89.84Z"/><path class="cls-5" d="M36.59,82.37a1,1,0,0,1-.51-.13,1.11,1.11,0,0,1-.47-1.49A122.25,122.25,0,0,1,45.24,65.2,1.11,1.11,0,0,1,47,66.5a119.72,119.72,0,0,0-9.46,15.27A1.11,1.11,0,0,1,36.59,82.37Z"/><path class="cls-5" d="M54.49,56.66a1.1,1.1,0,0,1-.82-1.84A127.57,127.57,0,0,1,64.41,44.24a1.11,1.11,0,0,1,1.56.11,1.1,1.1,0,0,1-.11,1.55A127.73,127.73,0,0,0,55.31,56.3,1.11,1.11,0,0,1,54.49,56.66Z"/><path class="cls-5" d="M68.81,43.08a1.1,1.1,0,0,1-.7-2c1.07-.87,2.18-1.74,3.39-2.66a1.1,1.1,0,0,1,1.55.22,1.09,1.09,0,0,1-.21,1.54c-1.2.91-2.29,1.76-3.33,2.61A1.11,1.11,0,0,1,68.81,43.08Z"/><path class="cls-5" d="M83.8,32.65a1.12,1.12,0,0,1-1-.55,1.11,1.11,0,0,1,.39-1.51,122,122,0,0,1,14-7.1,1.1,1.1,0,0,1,.87,2,119.88,119.88,0,0,0-13.69,7A1.06,1.06,0,0,1,83.8,32.65Z"/><path class="cls-5" d="M111.22,20.69a1.11,1.11,0,0,1-.31-2.17c1-.3,2-.59,3.07-.87a1.1,1.1,0,1,1,.58,2.13c-1,.27-2,.56-3,.86A1.12,1.12,0,0,1,111.22,20.69Z"/><path class="cls-5" d="M120,18.41a1.1,1.1,0,0,1-.24-2.18,127.72,127.72,0,0,1,38-2.6,1.1,1.1,0,1,1-.18,2.2,125.3,125.3,0,0,0-37.33,2.56A1,1,0,0,1,120,18.41Z"/><path class="cls-5" d="M167.28,17h-.17c-1.39-.23-2.77-.43-4.08-.59a1.11,1.11,0,0,1-1-1.24,1.09,1.09,0,0,1,1.23-.95c1.35.17,2.74.37,4.16.59a1.11,1.11,0,0,1-.18,2.2Z"/><g class="cls-6"><image width="1920" height="1280" transform="translate(-21.61 19.31) scale(0.19 0.19)" xlink:href="../Ima%CC%81genes/washing-hands-with-soap-for-prevent-disease.png"/></g><g class="cls-7"><g class="cls-8"><path class="cls-9" d="M298.42,280.21c-.56,18.81-70.22,33.62-155.55,33.09s-154-16.23-153.43-35.05S59.74,244.63,145,245.17,299,261.4,298.42,280.21Z"/></g></g></g></g></svg>