<svg xmlns="http://www.w3.org/2000/svg" xmlns:xlink="http://www.w3.org/1999/xlink" viewBox="0 0 105.46 183.67"><defs><style>.cls-1{mask:url(#mask);filter:url(#luminosity-noclip-3);}.cls-2,.cls-31,.cls-4,.cls-45,.cls-47{mix-blend-mode:multiply;}.cls-2{fill:url(#radial-gradient);}.cls-3{mask:url(#mask-2);filter:url(#luminosity-noclip-4);}.cls-4{fill:url(#radial-gradient-2);}.cls-5{isolation:isolate;}.cls-6{fill:url(#radial-gradient-3);}.cls-7{fill:#69361f;}.cls-8{fill:url(#radial-gradient-4);}.cls-9{fill:url(#radial-gradient-5);}.cls-10{fill:url(#radial-gradient-6);}.cls-11{fill:url(#radial-gradient-7);}.cls-12{fill:url(#radial-gradient-8);}.cls-13{fill:url(#radial-gradient-9);}.cls-14{fill:url(#radial-gradient-10);}.cls-15{fill:url(#radial-gradient-11);}.cls-16{fill:url(#radial-gradient-12);}.cls-17{fill:url(#radial-gradient-13);}.cls-18{fill:url(#radial-gradient-14);}.cls-19{fill:url(#radial-gradient-15);}.cls-20{fill:url(#radial-gradient-16);}.cls-21{fill:url(#radial-gradient-17);}.cls-22{fill:url(#radial-gradient-18);}.cls-23{fill:url(#radial-gradient-19);}.cls-24{fill:url(#linear-gradient);}.cls-25{fill:url(#linear-gradient-2);}.cls-26{fill:url(#linear-gradient-3);}.cls-27{fill:url(#linear-gradient-4);}.cls-28{fill:url(#linear-gradient-5);}.cls-29{fill:url(#linear-gradient-6);}.cls-30{fill:url(#linear-gradient-7);}.cls-31{opacity:0.6;}.cls-32{fill:url(#radial-gradient-20);}.cls-33{fill:url(#radial-gradient-21);}.cls-34{fill:url(#radial-gradient-22);}.cls-35{fill:url(#linear-gradient-8);}.cls-36{fill:url(#linear-gradient-9);}.cls-37{fill:url(#linear-gradient-10);}.cls-38{fill:url(#linear-gradient-11);}.cls-39{fill:url(#linear-gradient-12);}.cls-40{fill:url(#linear-gradient-13);}.cls-41{fill:url(#linear-gradient-14);}.cls-42{fill:url(#linear-gradient-15);}.cls-43{fill:url(#linear-gradient-16);}.cls-44{mask:url(#mask-3);}.cls-45{fill:url(#radial-gradient-23);}.cls-46{mask:url(#mask-4);}.cls-47{fill:url(#radial-gradient-24);}.cls-48{mix-blend-mode:screen;opacity:0.5;}.cls-49{fill:url(#radial-gradient-25);}.cls-50{fill:url(#radial-gradient-26);}.cls-51{opacity:0.8;fill:url(#linear-gradient-17);}.cls-52{filter:url(#luminosity-noclip-2);}.cls-53{filter:url(#luminosity-noclip);}</style><filter id="luminosity-noclip" x="6.04" y="-8661.46" width="96.4" height="32766" filterUnits="userSpaceOnUse" color-interpolation-filters="sRGB"><feFlood flood-color="#fff" result="bg"/><feBlend in="SourceGraphic" in2="bg"/></filter><mask id="mask" x="6.04" y="-8661.46" width="96.4" height="32766" maskUnits="userSpaceOnUse"><g class="cls-53"/></mask><radialGradient id="radial-gradient" cx="683.34" cy="23.31" r="135.85" gradientTransform="matrix(-0.98, 0.06, 0.06, 0.97, 754.8, -16.03)" gradientUnits="userSpaceOnUse"><stop offset="0.16" stop-color="#1a1a1a"/><stop offset="0.25" stop-color="#414141"/><stop offset="0.4" stop-color="#7a7a7a"/><stop offset="0.54" stop-color="#aaa"/><stop offset="0.68" stop-color="#cfcfcf"/><stop offset="0.8" stop-color="#e9e9e9"/><stop offset="0.91" stop-color="#f9f9f9"/><stop offset="1" stop-color="#fff"/></radialGradient><filter id="luminosity-noclip-2" x="22.93" y="-8661.46" width="18.47" height="32766" filterUnits="userSpaceOnUse" color-interpolation-filters="sRGB"><feFlood flood-color="#fff" result="bg"/><feBlend in="SourceGraphic" in2="bg"/></filter><mask id="mask-2" x="22.93" y="-8661.46" width="18.47" height="32766" maskUnits="userSpaceOnUse"><g class="cls-52"/></mask><radialGradient id="radial-gradient-2" cx="686.75" cy="78.64" r="135.88" gradientTransform="matrix(-0.98, 0.06, 0.06, 0.97, 754.8, -16.03)" gradientUnits="userSpaceOnUse"><stop offset="0.16" stop-color="#1a1a1a"/><stop offset="0.34" stop-color="#454545"/><stop offset="0.72" stop-color="#b0b0b0"/><stop offset="1" stop-color="#fff"/></radialGradient><radialGradient id="radial-gradient-3" cx="726.3" cy="86.46" fx="666.0750486523656" r="71.97" gradientTransform="matrix(-0.98, 0.06, 0.06, 0.97, 754.8, -16.03)" gradientUnits="userSpaceOnUse"><stop offset="0.07" stop-color="#e9ab45"/><stop offset="0.49" stop-color="#d48849"/><stop offset="0.6" stop-color="#c57c44"/><stop offset="0.8" stop-color="#9d5b36"/><stop offset="0.93" stop-color="#81452c"/></radialGradient><radialGradient id="radial-gradient-4" cx="19.3" cy="93.27" r="75.78" gradientTransform="translate(10.13 9.02) scale(0.98 0.98)" gradientUnits="userSpaceOnUse"><stop offset="0" stop-color="#ffd000"/><stop offset="0.12" stop-color="#e09b2f"/><stop offset="0.4" stop-color="#c77637"/><stop offset="0.82" stop-color="#6d3420"/><stop offset="1" stop-color="#522717"/></radialGradient><radialGradient id="radial-gradient-5" cx="737.27" cy="38.64" r="38.58" gradientTransform="matrix(-0.98, 0.06, 0.06, 0.97, 754.8, -16.03)" gradientUnits="userSpaceOnUse"><stop offset="0" stop-color="#ffd000"/><stop offset="0.12" stop-color="#e09b2f"/><stop offset="0.26" stop-color="#c77637"/><stop offset="0.34" stop-color="#ad6330"/><stop offset="0.46" stop-color="#914f29"/><stop offset="0.58" stop-color="#7d4024"/><stop offset="0.7" stop-color="#713721"/><stop offset="0.82" stop-color="#6d3420"/><stop offset="1" stop-color="#522717"/></radialGradient><radialGradient id="radial-gradient-6" cx="676.74" cy="65.2" r="78.03" xlink:href="#radial-gradient-5"/><radialGradient id="radial-gradient-7" cx="676.74" cy="65.19" r="78.02" gradientTransform="matrix(-0.98, 0.06, 0.06, 0.97, 754.8, -16.03)" gradientUnits="userSpaceOnUse"><stop offset="0" stop-color="#ffd831"/><stop offset="0.22" stop-color="#e9ab45"/><stop offset="0.39" stop-color="#d48849"/><stop offset="0.67" stop-color="#81452c"/></radialGradient><radialGradient id="radial-gradient-8" cx="711.92" cy="57.54" r="69.52" gradientTransform="matrix(-0.98, 0.06, 0.06, 0.97, 754.8, -16.03)" gradientUnits="userSpaceOnUse"><stop offset="0.16" stop-color="#c77637"/><stop offset="0.82" stop-color="#6d3420"/><stop offset="1" stop-color="#522717"/></radialGradient><radialGradient id="radial-gradient-9" cx="676.73" cy="65.2" r="78.03" xlink:href="#radial-gradient-7"/><radialGradient id="radial-gradient-10" cx="676.72" cy="65.2" r="78.04" xlink:href="#radial-gradient-7"/><radialGradient id="radial-gradient-11" cx="676.77" cy="65.21" r="78.02" xlink:href="#radial-gradient-7"/><radialGradient id="radial-gradient-12" cx="22.82" cy="83.36" r="67.87" gradientTransform="translate(10.13 9.02) scale(0.98 0.98)" gradientUnits="userSpaceOnUse"><stop offset="0" stop-color="#ffd000"/><stop offset="0.29" stop-color="#e09b2f"/><stop offset="0.54" stop-color="#c77637"/><stop offset="0.82" stop-color="#6d3420"/><stop offset="1" stop-color="#522717"/></radialGradient><radialGradient id="radial-gradient-13" cx="32.79" cy="83.49" r="74.83" xlink:href="#radial-gradient-12"/><radialGradient id="radial-gradient-14" cx="37.53" cy="83.38" r="74.58" xlink:href="#radial-gradient-12"/><radialGradient id="radial-gradient-15" cx="684.57" cy="92.84" fx="654.5316838105633" fy="72.90052584864172" r="91.47" gradientTransform="matrix(-0.98, 0.06, 0.06, 0.97, 754.8, -16.03)" xlink:href="#radial-gradient-12"/><radialGradient id="radial-gradient-16" cx="672.04" cy="89.49" r="96.97" xlink:href="#radial-gradient-7"/><radialGradient id="radial-gradient-17" cx="57.9" cy="97.44" r="98.41" gradientTransform="translate(10.13 9.02) scale(0.98 0.98)" xlink:href="#radial-gradient-7"/><radialGradient id="radial-gradient-18" cx="8.83" cy="118.44" fx="-28.409083800462092" fy="99.23617872121832" r="88.04" gradientTransform="translate(10.13 9.02) scale(0.98 0.98)" xlink:href="#radial-gradient-7"/><radialGradient id="radial-gradient-19" cx="678.98" cy="99.93" r="77.88" xlink:href="#radial-gradient-7"/><linearGradient id="linear-gradient" x1="670.08" y1="157.56" x2="669.99" y2="156.81" gradientTransform="matrix(-1, 0.06, 0.06, 1, 755.79, -26.25)" xlink:href="#radial-gradient-7"/><linearGradient id="linear-gradient-2" x1="699.17" y1="168.21" x2="689.14" y2="84.48" gradientTransform="matrix(-1, 0.06, 0.06, 1, 755.79, -26.25)" xlink:href="#radial-gradient-7"/><linearGradient id="linear-gradient-3" x1="710.44" y1="166.87" x2="700.4" y2="83.1" gradientTransform="matrix(-1, 0.06, 0.06, 1, 755.79, -26.25)" xlink:href="#radial-gradient-7"/><linearGradient id="linear-gradient-4" x1="711.84" y1="166.75" x2="701.8" y2="82.87" gradientTransform="matrix(-1, 0.06, 0.06, 1, 755.79, -26.25)" xlink:href="#radial-gradient-7"/><linearGradient id="linear-gradient-5" x1="710.8" y1="166.8" x2="700.78" y2="83.12" gradientTransform="matrix(-1, 0.06, 0.06, 1, 755.79, -26.25)" xlink:href="#radial-gradient-7"/><linearGradient id="linear-gradient-6" x1="720.42" y1="165.68" x2="710.39" y2="81.91" gradientTransform="matrix(-1, 0.06, 0.06, 1, 755.79, -26.25)" xlink:href="#radial-gradient-7"/><linearGradient id="linear-gradient-7" x1="720.47" y1="165.71" x2="710.42" y2="81.83" gradientTransform="matrix(-1, 0.06, 0.06, 1, 755.79, -26.25)" xlink:href="#radial-gradient-7"/><radialGradient id="radial-gradient-20" cx="705.91" cy="159.84" r="48.66" gradientTransform="matrix(-0.98, 0.06, 0.06, 0.97, 754.8, -16.03)" xlink:href="#radial-gradient-12"/><radialGradient id="radial-gradient-21" cx="705.9" cy="159.83" r="48.67" gradientTransform="matrix(-0.98, 0.06, 0.06, 0.97, 754.8, -16.03)" xlink:href="#radial-gradient-12"/><radialGradient id="radial-gradient-22" cx="705.91" cy="159.82" r="48.66" gradientTransform="matrix(-0.98, 0.06, 0.06, 0.97, 754.8, -16.03)" xlink:href="#radial-gradient-12"/><linearGradient id="linear-gradient-8" x1="712.28" y1="202.23" x2="690.47" y2="20.15" gradientTransform="matrix(-1, 0.08, 0.08, 1, 742.61, -44.72)" xlink:href="#radial-gradient-7"/><linearGradient id="linear-gradient-9" x1="710.16" y1="172.02" x2="700.13" y2="88.24" gradientTransform="matrix(-1, 0.08, 0.08, 1, 742.61, -44.72)" xlink:href="#radial-gradient-7"/><linearGradient id="linear-gradient-10" x1="706.6" y1="172.44" x2="696.57" y2="88.67" gradientTransform="matrix(-1, 0.08, 0.08, 1, 742.61, -44.72)" xlink:href="#radial-gradient-7"/><linearGradient id="linear-gradient-11" x1="707.03" y1="167.27" x2="697" y2="83.52" gradientTransform="matrix(-1, 0.06, 0.06, 1, 755.79, -26.25)" xlink:href="#radial-gradient-7"/><linearGradient id="linear-gradient-12" x1="714.56" y1="198.6" x2="695.66" y2="40.79" gradientTransform="matrix(-1, 0.06, 0.06, 1, 755.79, -26.25)" xlink:href="#radial-gradient-7"/><linearGradient id="linear-gradient-13" x1="721.44" y1="242.08" x2="693.79" y2="11.18" gradientTransform="matrix(-1, 0.06, 0.06, 1, 755.79, -26.25)" xlink:href="#radial-gradient-7"/><linearGradient id="linear-gradient-14" x1="724.56" y1="266.14" x2="690.69" y2="-16.7" gradientTransform="matrix(-1, 0.06, 0.06, 1, 755.79, -26.25)" xlink:href="#radial-gradient-7"/><linearGradient id="linear-gradient-15" x1="727.54" y1="186.7" x2="708.14" y2="24.78" gradientTransform="matrix(-1, 0.06, 0.06, 1, 755.79, -26.25)" xlink:href="#radial-gradient-7"/><linearGradient id="linear-gradient-16" x1="725.84" y1="165.04" x2="715.8" y2="81.26" gradientTransform="matrix(-1, 0.06, 0.06, 1, 755.79, -26.25)" xlink:href="#radial-gradient-7"/><filter id="luminosity-noclip-3" x="6.04" y="-18.01" width="96.4" height="199.02" filterUnits="userSpaceOnUse" color-interpolation-filters="sRGB"><feFlood flood-color="#fff" result="bg"/><feBlend in="SourceGraphic" in2="bg"/></filter><mask id="mask-3" x="6.04" y="-18.01" width="96.4" height="199.02" maskUnits="userSpaceOnUse"><g class="cls-1"><path class="cls-2" d="M7.62,118.59c1.48-3.36,5.26-3,8.16-1.94a34.21,34.21,0,0,0,3.75,1.23,12,12,0,0,0,3.53,1.06,23.45,23.45,0,0,0,4.34.48,10.13,10.13,0,0,0-5.3,5.68c-.09.16-.19.32-.28.49a.39.39,0,0,0,0,.4l0,.08c-.19.6.61,1.23,1,.62A12.17,12.17,0,0,1,25,124.34a7.12,7.12,0,0,1,3.12-1,42.38,42.38,0,0,1,5,.18,19.92,19.92,0,0,0,7.1-.87,7.79,7.79,0,0,0,7-1,11,11,0,0,0,1-.86,18.48,18.48,0,0,0,7.8-2.18c.5-.26,1-.54,1.5-.84a17,17,0,0,0,3,1.34c3.33,1,6.8.69,10.23,1.14a11.63,11.63,0,0,1,4.66,1.32,22.54,22.54,0,0,0,3.09,1.59c.37.15.83-.32.52-.65-.76-.82-1.4-1.72-2.12-2.51-.42-.79-.83-1.59-1.24-2.38,1.82.29,3.65.54,5.43.93,2.17.46,4.12,1.34,6.23,2a12.85,12.85,0,0,0,5,.68c1.31-.13,2.59-.44,3.89-.66,2.1.49,3.91,1.79,6,2.34.16.05.23-.18.12-.27l0,0a.18.18,0,0,0-.09-.2,9,9,0,0,1-1.44-1.23c-1.12-1.44-2.21-3-3.88-3.67a9.31,9.31,0,0,0-3.58-.54c-.2,0-.4-.07-.61-.09a14.12,14.12,0,0,1-2.64-.72h0a10.34,10.34,0,0,0-.77-.91.57.57,0,0,0-.11-.42,26.46,26.46,0,0,0-4.38-4.83,8.44,8.44,0,0,0-3-1.77l-.15,0c-.59-.54-1.25-1-1.87-1.5a11.08,11.08,0,0,0-3-3.08l-.2-.08c-1.22-1.56-2.31-3.21-3.57-4.76a39.7,39.7,0,0,1-3.85-9.44,54.37,54.37,0,0,1-1.56-14.15c0-2.65.11-5.3.15-7.94a30.08,30.08,0,0,0-.18-5.77,64.71,64.71,0,0,0-.11-10.6,47.35,47.35,0,0,0-1.31-8.63c-.09-.32-.17-.64-.26-1-.71-4.79-1.14-9.71,2.7-13.06,1.88-1.64,4.06-2.8,6.07-4.25a18.51,18.51,0,0,0,3.46-3.26,19.24,19.24,0,0,0,2.66-3.79c.16-.24-.18-.53-.36-.28a20.53,20.53,0,0,1-2,2.92,11.42,11.42,0,0,1-4.56,2.42,29.75,29.75,0,0,0-7.06,3.19l-.16.11c.92-2.67,2-5.31,2.9-8A74,74,0,0,0,72.16,7c.09-.47-.68-.7-.83-.23A53.05,53.05,0,0,1,67.53,15,28.84,28.84,0,0,0,69,7.26c.16-2.49-.52-5.08,0-7.52.06-.25-.3-.32-.4-.12a9,9,0,0,0-1,3.05,46.05,46.05,0,0,0-1.3-6.45c-.13-.48-.92-.27-.84.2,1.3,7.49-1,15.23-4.56,21.79a33.79,33.79,0,0,0-3.83,9.63c0,.13,0,.25-.07.36v-.28a97.82,97.82,0,0,1,.47-13.48c.08-.59.16-1.19.26-1.77.2-.88.35-1.77.5-2.67.15-.65.31-1.29.5-1.93A27.66,27.66,0,0,0,60,2c.19-3.93-.29-7.8-.29-11.72,0-.23-.37-.22-.4,0-.1.71-.19,1.43-.27,2.14a42.84,42.84,0,0,0-3.2-8.46.27.27,0,0,0-.51.2C56.75-10.55,58-5.08,57,.44c-.19,1-.41,2-.64,3a31.18,31.18,0,0,0-1-4C54-4.82,51.78-9,51-13.44a.4.4,0,0,0-.8.1c.08.9.2,1.78.33,2.66a14.4,14.4,0,0,0-1.72-2.41c-1.51-1.71-3.31-3.12-4.76-4.88a.13.13,0,0,0-.22.13,24.72,24.72,0,0,0,3.25,5.37,22.42,22.42,0,0,1,3.39,6.34C51.28-4.08,52.11-2,52.83.11A45.31,45.31,0,0,1,53.36,14c-.2,2.48-.5,4.95-.76,7.43-.18,1.69-.27,3.41-.46,5.1-.18-.51-.38-1-.6-1.51-1.67-3.56-3.79-6.88-5.62-10.35-.5-.94-1-1.9-1.38-2.85C44,8,42.76,4.38,42.46.56c-.33-4.17-.69-8.24-2.15-12.21-.15-.39-.81-.24-.72.19a54.9,54.9,0,0,1,1,6.65c.17,2.3.06,4.59.18,6.89,0,.28,0,.58.06.86,0-.1-.09-.21-.14-.3a15.87,15.87,0,0,1-.94-4c0-.39-.7-.41-.71,0S39-.65,39-.3a23.41,23.41,0,0,0-3-2.92c-.22-.22-.54.12-.38.35A24.84,24.84,0,0,1,38,2.39c.62,1.55,1.23,3.1,1.77,4.68a85.13,85.13,0,0,0,3.55,9.32,49.93,49.93,0,0,0,1.82,6.55A32.93,32.93,0,0,0,48,28.86a27.91,27.91,0,0,1,1.32,11.83c-.13,1.06-.28,2.12-.42,3.18-1-1.58-1.69-3.26-2.55-4.88-2.07-3.88-4.76-7.39-7-11.17A39.31,39.31,0,0,1,34.44,14a21.47,21.47,0,0,0-2.22-6.8c-1.08-2-2.63-3.75-3.17-6-.08-.33-.66-.42-.67,0,0,2.23.92,4.14,1.66,6.21a44,44,0,0,1,1.68,8.18c.08.54.18,1.07.28,1.6a64,64,0,0,0-4.1-5.59c-1.87-2.28-4.09-4.46-5.57-7-.22-.37-.78,0-.64.35a38.32,38.32,0,0,0,4.15,8.14c1.76,2.63,3.13,5.48,4.72,8.21a42.89,42.89,0,0,1,4.21,8.3c-2.48-1.74-5.1-3.27-7.75-4.89-4.61-2.82-9.95-5.88-13-10.46-.19-.28-.69,0-.54.3a23.34,23.34,0,0,0,4.29,6.58,38.58,38.58,0,0,0,2.93,2.67c-.83-.27-1.67-.52-2.51-.76-4.43-1.29-8-4.18-11.76-6.76-.21-.14-.54.11-.35.33A26.3,26.3,0,0,0,17,24.29c3.56,1.22,7,2.89,10.49,4.15a51.8,51.8,0,0,1,8.23,6.19c.56.85,1.11,1.71,1.7,2.51a37.89,37.89,0,0,1,3.24,5.13,45.71,45.71,0,0,1,4.18,12,58.24,58.24,0,0,1,1.14,12.57c-.1,3.84-.66,7.88-.4,11.77a36,36,0,0,0-1.17,4.76c0,.27-.08.54-.13.81-.45.9-.9,1.79-1.3,2.65-1.85,4-3.06,8.2-4.75,12.26-1.4,3.35-3.41,6.24-5.18,9.38-.45.79-.89,1.58-1.32,2.38a19.7,19.7,0,0,0-4.3,1.15,13.8,13.8,0,0,1-7.07.6c-2.13-.23-4-.5-5.94.51a9,9,0,0,0-2.68.13,5.79,5.79,0,0,0-3.06,1.69A8.52,8.52,0,0,0,7,118.33.33.33,0,0,0,7.62,118.59ZM45.25,29.66c.06-.14.12-.28.19-.42s.27-.23.42-.34c-.08.12-.17.24-.24.36S45.37,29.52,45.25,29.66Z"/></g></mask><radialGradient id="radial-gradient-23" cx="9.36" cy="79.41" r="153" gradientTransform="translate(10.13 9.02) scale(0.98 0.98)" gradientUnits="userSpaceOnUse"><stop offset="0.16" stop-color="#e9ab45"/><stop offset="0.26" stop-color="#d69840"/><stop offset="0.48" stop-color="#b17438"/><stop offset="0.68" stop-color="#975a31"/><stop offset="0.86" stop-color="#874b2d"/><stop offset="1" stop-color="#81452c"/></radialGradient><filter id="luminosity-noclip-4" x="22.93" y="156.42" width="18.47" height="17.5" filterUnits="userSpaceOnUse" color-interpolation-filters="sRGB"><feFlood flood-color="#fff" result="bg"/><feBlend in="SourceGraphic" in2="bg"/></filter><mask id="mask-4" x="22.93" y="156.42" width="18.47" height="17.5" maskUnits="userSpaceOnUse"><g class="cls-3"><path class="cls-4" d="M31.17,169.85c3.35-1.61,4.46-2.29,6.11-5.63s4.12-7.8,4.12-7.8a74.12,74.12,0,0,0-3.55,8.46,8.18,8.18,0,0,0-2,3.46,3.92,3.92,0,0,0-1.69,1.23,10.9,10.9,0,0,0-5.39,4,6.06,6.06,0,0,0-2.2.36c.27-.15.54-.3.83-.43a24.34,24.34,0,0,1-4.34-.49l-.13,0C26.76,173.34,28.47,171.14,31.17,169.85Z"/></g></mask><radialGradient id="radial-gradient-24" cx="686.75" cy="78.64" r="135.88" gradientTransform="matrix(-0.98, 0.06, 0.06, 0.97, 754.8, -16.03)" gradientUnits="userSpaceOnUse"><stop offset="0.16" stop-color="#e9ab45"/><stop offset="0.52" stop-color="#be813b"/><stop offset="1" stop-color="#81452c"/></radialGradient><radialGradient id="radial-gradient-25" cx="683.32" cy="95.13" fx="683.3218108321671" r="98.47" xlink:href="#radial-gradient-3"/><radialGradient id="radial-gradient-26" cx="646.47" cy="103.44" fx="646.472234860913" r="212.81" xlink:href="#radial-gradient-3"/><linearGradient id="linear-gradient-17" x1="685.59" y1="169.82" x2="675.56" y2="86.09" gradientTransform="matrix(-1, 0.06, 0.06, 1, 755.79, -26.25)" xlink:href="#radial-gradient-7"/></defs><g class="cls-5"><g id="Capa_1" data-name="Capa 1"><path class="cls-6" d="M7,172.39A8.54,8.54,0,0,1,8.67,169a5.86,5.86,0,0,1,3.05-1.69,9,9,0,0,1,2.68-.12c1.92-1,3.81-.76,6-.52a13.77,13.77,0,0,0,7.06-.6,20.37,20.37,0,0,1,4.31-1.15c.43-.79.86-1.59,1.31-2.38,1.77-3.14,3.78-6,5.18-9.38,1.69-4,2.9-8.27,4.76-12.25.39-.86.84-1.75,1.29-2.65.05-.27.09-.55.14-.81.29-1.64.65-37,1.16-38.55-.26-3.89.3-7.93.4-11.77a58.48,58.48,0,0,0-1.14-12.59,45.66,45.66,0,0,0-4.18-12,39.07,39.07,0,0,0-3.24-5.12c-.59-.8-1.14-1.66-1.7-2.51a51.21,51.21,0,0,0-8.23-6.19c-3.53-1.26-6.93-2.93-10.48-4.15A26.08,26.08,0,0,1,6.14,36.9c-.2-.21.12-.47.34-.32,3.74,2.57,7.32,5.47,11.75,6.76.84.24,1.68.49,2.51.76a38.63,38.63,0,0,1-2.92-2.67,23,23,0,0,1-4.29-6.59c-.15-.31.33-.58.53-.29,3,4.58,8.38,7.64,13,10.46,2.66,1.62,5.29,3.15,7.77,4.89a43.5,43.5,0,0,0-4.22-8.3c-1.58-2.73-3-5.59-4.72-8.21a38.79,38.79,0,0,1-4.15-8.14c-.13-.38.43-.72.64-.35,1.47,2.55,3.7,4.73,5.57,7A64,64,0,0,1,32,37.5c-.1-.53-.19-1.06-.28-1.6a43,43,0,0,0-1.68-8.18c-.74-2.07-1.69-4-1.66-6.22,0-.41.6-.32.67,0,.54,2.23,2.1,4,3.17,6a21.47,21.47,0,0,1,2.22,6.8A39.58,39.58,0,0,0,39.38,48.1c2.25,3.77,4.95,7.29,7,11.17.86,1.62,1.58,3.3,2.54,4.88.15-1.06.3-2.12.42-3.18a28.13,28.13,0,0,0-1.31-11.84,32.56,32.56,0,0,1-2.94-5.91,50.37,50.37,0,0,1-1.82-6.55,83.08,83.08,0,0,1-3.54-9.32c-.55-1.58-1.16-3.13-1.78-4.68a25.63,25.63,0,0,0-2.27-5.26c-.17-.24.16-.57.37-.35A22.07,22.07,0,0,1,39,20c0-.35,0-.7,0-1.06s.67-.38.7,0a16.13,16.13,0,0,0,.94,4,2.92,2.92,0,0,1,.14.31c0-.29,0-.58,0-.86-.13-2.3,0-4.59-.19-6.9a53.53,53.53,0,0,0-1-6.65c-.09-.42.57-.57.72-.17,1.45,3.95,1.82,8,2.15,12.2.3,3.82,1.52,7.45,2.09,11.21C45,33,45.45,34,46,34.91c1.84,3.47,3.95,6.79,5.62,10.35.22.49.42,1,.6,1.51.19-1.7.28-3.41.46-5.1.26-2.48.55-5,.76-7.43a45.3,45.3,0,0,0-.52-13.85c-.74-2.11-1.56-4.19-2.33-6.24a22.28,22.28,0,0,0-3.39-6.34,23.77,23.77,0,0,1-3.24-5.38c-.06-.13.12-.22.21-.12,1.44,1.76,3.26,3.17,4.76,4.87a16,16,0,0,1,1.73,2.41c-.14-.88-.26-1.76-.34-2.65a.41.41,0,0,1,.81-.1c.73,4.44,2.94,8.62,4.29,12.89a31.74,31.74,0,0,1,1,4c.24-1,.46-2,.64-3,1-5.52-.2-11-1.59-16.31a.27.27,0,0,1,.51-.2,42.23,42.23,0,0,1,3.2,8.46c.08-.72.17-1.43.27-2.14,0-.22.41-.23.41,0,0,3.92.47,7.79.28,11.72a27.12,27.12,0,0,1-1.26,6.1c-.18.64-.34,1.28-.48,1.93-.15.9-.31,1.79-.51,2.67-.1.59-.18,1.17-.25,1.77a96.28,96.28,0,0,0-.47,13.48v.28c0-.12,0-.23.06-.36A33.58,33.58,0,0,1,61,38.48c3.53-6.55,5.86-14.29,4.55-21.78-.08-.47.71-.68.84-.2a46.24,46.24,0,0,1,1.31,6.44,9.16,9.16,0,0,1,.94-3c.12-.2.47-.13.42.12-.54,2.44.14,5,0,7.52a28.84,28.84,0,0,1-1.47,7.72A53.05,53.05,0,0,0,71.36,27c.15-.47.92-.24.83.23a74,74,0,0,1-2.55,10.26c-.91,2.67-2,5.31-2.9,8l.16-.11A29.57,29.57,0,0,1,74,42.17a11.54,11.54,0,0,0,4.56-2.42,21.47,21.47,0,0,0,2-2.92c.17-.25.51,0,.36.28-1.31,2.13-2.13,3.69-4.31,5.08s-4.63,2.65-6.94,4a18.25,18.25,0,0,0-4,3,27,27,0,0,0-.74,9.6c.5,4.6,1.47,9.11,1.83,13.74.71,9.16-.57,52.1.08,61.24A47,47,0,0,0,69,145.32a37.8,37.8,0,0,0,2.27,5.32c1,1.86,2.33,3.46,3.18,5.36l0,.11A19.81,19.81,0,0,1,76.27,158a19.49,19.49,0,0,0,2.34,3c.85.73,2.26.83,3.3,1.16a8.66,8.66,0,0,1,3.26,2.06c1.44,1.38,2.15,3.18,3.12,4.81a7.84,7.84,0,0,0,1.84,1.07c2.27.93,4.83.82,7.1,1.88,2.1,1,3.17,3.13,5,4.37a.23.23,0,0,1,.1.2l0,0c.11.1,0,.32-.11.28-2.12-.55-3.93-1.87-6-2.35-1.28.22-2.57.53-3.88.66a12.85,12.85,0,0,1-5-.68c-2.11-.63-4.06-1.5-6.22-2-1.8-.39-3.62-.64-5.43-.93.4.79.8,1.59,1.23,2.38.73.8,1.36,1.69,2.12,2.51.32.34-.16.8-.52.65a22.54,22.54,0,0,1-3.09-1.59,11.63,11.63,0,0,0-4.66-1.32c-3.43-.45-6.9-.08-10.23-1.15a15.38,15.38,0,0,1-3-1.34c-.5.31-1,.59-1.5.85a18.63,18.63,0,0,1-7.8,2.19c-.33.31-.67.59-1,.86a7.82,7.82,0,0,1-7,1,19.89,19.89,0,0,1-7.09.86,44.86,44.86,0,0,0-5-.18,7.16,7.16,0,0,0-3.12,1,12.1,12.1,0,0,0-2.16,2.35c-.44.61-1.22,0-1-.61l0-.09a.37.37,0,0,1,0-.4c.09-.17.19-.33.29-.49a10.09,10.09,0,0,1,5.29-5.67A24,24,0,0,1,23.1,173a11.86,11.86,0,0,1-3.53-1.06,34.37,34.37,0,0,1-3.76-1.23c-2.9-1-6.67-1.42-8.16,1.95C7.48,173,6.91,172.79,7,172.39Z"/><path class="cls-7" d="M22.39,181.09a.72.72,0,0,1-.55-.31.77.77,0,0,1-.13-.67l0-.05a.5.5,0,0,1,.05-.45c.09-.18.19-.33.28-.49a10.07,10.07,0,0,1,5-5.55,24.18,24.18,0,0,1-4-.49l-.23,0a11.58,11.58,0,0,1-3.32-1,27.65,27.65,0,0,1-3-1l-.71-.26a11.54,11.54,0,0,0-3.72-.72,4.32,4.32,0,0,0-4.33,2.62.39.39,0,0,1-.36.24.49.49,0,0,1-.36-.18.46.46,0,0,1,0-.38c.08-.23.16-.46.23-.69a6.64,6.64,0,0,1,1.41-2.77,5.92,5.92,0,0,1,3.11-1.71,9.36,9.36,0,0,1,2.67-.13,6.72,6.72,0,0,1,3.23-.73,21.69,21.69,0,0,1,2.48.19l.26,0c.83.08,1.81.18,2.77.18a11.16,11.16,0,0,0,4.26-.78,20.2,20.2,0,0,1,4.28-1.14c.35-.66.81-1.5,1.29-2.35s1.14-1.95,1.7-2.89a49.48,49.48,0,0,0,3.48-6.48c.73-1.74,1.37-3.52,2-5.25.84-2.32,1.7-4.72,2.76-7,.36-.79.76-1.58,1.18-2.41l.12-.23,0-.3.09-.5c.33-1.87.7-37.17,1.16-38.54a56.74,56.74,0,0,1,.18-7.6c.09-1.37.18-2.79.22-4.16a58.81,58.81,0,0,0-1.14-12.57,45.43,45.43,0,0,0-4.18-12,36.33,36.33,0,0,0-3.23-5.11c-.44-.59-.85-1.24-1.27-1.85L35.63,55a51.39,51.39,0,0,0-8.2-6.16c-1.66-.6-3.33-1.3-4.94-2-1.81-.76-3.66-1.54-5.53-2.18C13.08,43.32,9.63,40.88,6.07,37A.27.27,0,0,1,6,36.66a.37.37,0,0,1,.52-.15l1.86,1.31c3,2.14,6.18,4.36,9.87,5.44.77.22,1.46.43,2.09.63-.89-.76-1.77-1.56-2.6-2.4a23.2,23.2,0,0,1-4.3-6.61.34.34,0,0,1,0-.34.45.45,0,0,1,.37-.19.34.34,0,0,1,.3.15c2.84,4.28,7.77,7.27,12.1,9.91l.86.52,1.59,1c2.08,1.25,4,2.45,6,3.78a37.33,37.33,0,0,0-3.47-6.92c-.23-.37-.45-.75-.66-1.12-.58-1-1.13-2-1.67-3-1-1.74-1.93-3.53-3-5.2a37.62,37.62,0,0,1-4.16-8.16.4.4,0,0,1,.05-.41.51.51,0,0,1,.4-.22.4.4,0,0,1,.34.21,33.17,33.17,0,0,0,3.84,5c.58.65,1.17,1.33,1.72,2,1.4,1.72,2.68,3.45,3.87,5.24-.08-.41-.15-.8-.21-1.18s-.13-.89-.19-1.34A35.83,35.83,0,0,0,30,27.74c-.15-.41-.3-.82-.46-1.22a13.2,13.2,0,0,1-1.2-5,.34.34,0,0,1,.36-.36.49.49,0,0,1,.48.36,13.78,13.78,0,0,0,2,4.1c.38.59.79,1.21,1.13,1.85a22,22,0,0,1,2.23,6.83,38.93,38.93,0,0,0,4.9,13.78c.93,1.57,2,3.11,3,4.61,1.4,2.11,2.85,4.28,4.06,6.55.32.61.63,1.24.93,1.84.46.94.94,1.91,1.49,2.84l0-.13c.12-.92.25-1.87.36-2.81A27.87,27.87,0,0,0,48,49.17,32.66,32.66,0,0,1,45,43.25a49.72,49.72,0,0,1-1.82-6.56,65.87,65.87,0,0,1-3-7.86c-.17-.49-.33-1-.51-1.45-.53-1.56-1.11-3-1.77-4.68-.2-.48-.37-1-.55-1.49a15.37,15.37,0,0,0-1.72-3.75.33.33,0,0,1,0-.36.33.33,0,0,1,.52-.1c.3.3.64.59,1,.91A13.34,13.34,0,0,1,39,19.7c0-.27,0-.53,0-.78a.39.39,0,0,1,.42-.38.44.44,0,0,1,.46.39,15.34,15.34,0,0,0,.87,3.79c0-.12,0-.24,0-.36,0-1-.06-2.09-.07-3.11,0-1.24,0-2.52-.12-3.77a53.47,53.47,0,0,0-1-6.65.4.4,0,0,1,.07-.34A.54.54,0,0,1,40,8.32a.44.44,0,0,1,.42.28c1.41,3.83,1.8,7.65,2.16,12.24a46.14,46.14,0,0,0,1.15,6.56c.34,1.51.69,3.07.93,4.63.49,1.1.92,2,1.37,2.84.7,1.33,1.46,2.65,2.18,3.94,1.18,2.07,2.41,4.21,3.43,6.41.17.36.33.74.49,1.17.07-.77.14-1.55.2-2.3s.13-1.62.21-2.44.15-1.42.23-2.14c.19-1.73.39-3.52.54-5.28a45.6,45.6,0,0,0-.53-13.82c-.51-1.5-1.09-3-1.64-4.44-.23-.6-.46-1.19-.68-1.79a22.41,22.41,0,0,0-3.38-6.32,24.3,24.3,0,0,1-3.26-5.39.18.18,0,0,1,0-.19.23.23,0,0,1,.35,0A30.41,30.41,0,0,0,46.75,4.9c.74.71,1.5,1.44,2.19,2.23a15.34,15.34,0,0,1,1.52,2.05c-.12-.83-.22-1.55-.27-2.24a.42.42,0,0,1,.12-.37.52.52,0,0,1,.37-.15.48.48,0,0,1,.48.41,41,41,0,0,0,2.59,8.24c.6,1.51,1.21,3.08,1.7,4.64a32.47,32.47,0,0,1,.9,3.59c.24-1,.41-1.83.55-2.6,1-5.46-.17-10.81-1.58-16.27a.38.38,0,0,1,.06-.34A.35.35,0,0,1,55.65,4a.37.37,0,0,1,.33.21,43.73,43.73,0,0,1,3.09,8c.07-.64.14-1.18.22-1.7a.3.3,0,0,1,.3-.24.25.25,0,0,1,.2.09.21.21,0,0,1,.07.17c0,1.66.09,3.34.17,5,.11,2.21.23,4.5.12,6.77a27.88,27.88,0,0,1-1.24,6.06l0,.05c-.17.6-.34,1.24-.49,1.93-.14.85-.3,1.76-.51,2.67-.09.57-.18,1.16-.25,1.75a93.68,93.68,0,0,0-.48,12.91,35.66,35.66,0,0,1,3.75-9.19c2.87-5.32,6-13.42,4.55-21.72a.47.47,0,0,1,.1-.38.61.61,0,0,1,.45-.2.45.45,0,0,1,.45.33,47.23,47.23,0,0,1,1.24,5.9,8.61,8.61,0,0,1,.86-2.51.34.34,0,0,1,.29-.16.31.31,0,0,1,.23.1.28.28,0,0,1,0,.23,15.57,15.57,0,0,0-.1,4.42,22.78,22.78,0,0,1,.08,3.09A28.89,28.89,0,0,1,68,34.35,47,47,0,0,0,71.28,27a.43.43,0,0,1,.44-.31.59.59,0,0,1,.45.21.43.43,0,0,1,.1.38,75.09,75.09,0,0,1-2.55,10.27c-.45,1.34-1,2.68-1.45,4s-.93,2.48-1.36,3.74a29.73,29.73,0,0,1,7-3.16,11.38,11.38,0,0,0,4.53-2.41,8.79,8.79,0,0,0,1.3-1.83c.22-.36.44-.74.68-1.07a.29.29,0,0,1,.5,0,.3.3,0,0,1,0,.34c-.11.18-.23.36-.33.55a12.23,12.23,0,0,1-4,4.56c-1.52,1-3.13,1.85-4.68,2.71-.74.4-1.52.82-2.27,1.25a18,18,0,0,0-4,3A27,27,0,0,0,65,58.77c.22,2,.52,4,.83,5.95.39,2.54.8,5.17,1,7.8a129.52,129.52,0,0,1,0,13.93c-.15,4.43-.3,42.8,0,47.31a46.75,46.75,0,0,0,2.24,11.54,40.16,40.16,0,0,0,2.26,5.31c.44.82,1,1.6,1.44,2.36a20.22,20.22,0,0,1,1.74,3s0,.05,0,.08v0A19.94,19.94,0,0,1,76.34,158c.28.34.53.72.78,1.09a9.42,9.42,0,0,0,1.54,1.9,5.34,5.34,0,0,0,2.25.88c.36.08.7.16,1,.26a9.06,9.06,0,0,1,3.31,2.08,13.64,13.64,0,0,1,2.39,3.51c.23.43.47.88.72,1.3a7.9,7.9,0,0,0,1.82,1.05,16.31,16.31,0,0,0,3.3.84,15.69,15.69,0,0,1,3.8,1.05,9.84,9.84,0,0,1,2.91,2.4,12.67,12.67,0,0,0,2.15,2,.24.24,0,0,1,.13.22h0a.23.23,0,0,1,.07.28.22.22,0,0,1-.26.14,17.45,17.45,0,0,1-2.94-1.16,15,15,0,0,0-3.07-1.18l-1.18.22a26,26,0,0,1-2.69.43,6.49,6.49,0,0,1-.88.05,14.46,14.46,0,0,1-4.12-.73c-.81-.24-1.62-.53-2.41-.8a30.53,30.53,0,0,0-3.8-1.17c-1.37-.29-2.78-.51-4.15-.72l-1.1-.18c.11.24.23.48.36.71.26.51.51,1,.78,1.52s.67.77,1,1.15.74.91,1.14,1.34a.43.43,0,0,1,.09.48.6.6,0,0,1-.71.31,23,23,0,0,1-3.11-1.59,11.65,11.65,0,0,0-4.62-1.32c-1.24-.16-2.5-.21-3.72-.27a25,25,0,0,1-6.52-.88,15.46,15.46,0,0,1-3-1.31c-.44.27-.92.53-1.46.82a18.71,18.71,0,0,1-7.81,2.19c-.33.31-.66.6-1,.85a7.28,7.28,0,0,1-4.45,1.43,9,9,0,0,1-2.63-.39,19.91,19.91,0,0,1-7.11.87c-.53,0-1.06-.06-1.57-.1-.81-.06-1.63-.12-2.45-.12-.36,0-.69,0-1,0a7,7,0,0,0-3.07,1,11.63,11.63,0,0,0-2.14,2.33A.6.6,0,0,1,22.39,181.09ZM12.06,169.9a11.36,11.36,0,0,1,3.78.74l.71.25a28.18,28.18,0,0,0,3,1h0a11,11,0,0,0,3.29,1l.21,0a23.18,23.18,0,0,0,4.32.48l0,.17a10,10,0,0,0-5.25,5.62c-.11.17-.2.33-.3.5a.34.34,0,0,0,0,.32v.06a.07.07,0,0,1,0,.05l0,0a.62.62,0,0,0,.11.52.53.53,0,0,0,.41.24.48.48,0,0,0,.37-.21A11.28,11.28,0,0,1,25,178.34a7,7,0,0,1,3.15-1.06c.33,0,.67,0,1,0,.82,0,1.66.06,2.45.12.52,0,1.06.08,1.58.1a19.88,19.88,0,0,0,7.07-.86h.05a9.58,9.58,0,0,0,2.61.38,7,7,0,0,0,4.34-1.4c.33-.25.66-.54,1-.85l0,0h0a18.36,18.36,0,0,0,7.77-2.17c.55-.29,1-.57,1.49-.85l.05,0,0,0a13.94,13.94,0,0,0,3,1.33,24.37,24.37,0,0,0,6.48.87c1.22.06,2.49.11,3.72.28a11.78,11.78,0,0,1,4.7,1.33,23.79,23.79,0,0,0,3.08,1.58.41.41,0,0,0,.49-.22.26.26,0,0,0-.06-.29c-.41-.44-.78-.9-1.14-1.35s-.65-.79-1-1.16v0c-.27-.5-.54-1-.8-1.52l-.44-.85-.07-.16.16,0,1.28.2c1.36.21,2.78.43,4.15.72A32.24,32.24,0,0,1,85,173.64c.78.27,1.59.56,2.4.8a14.11,14.11,0,0,0,4.07.72,6.11,6.11,0,0,0,.86,0c.9-.09,1.81-.26,2.68-.43.4-.08.8-.16,1.2-.22h0a15.49,15.49,0,0,1,3.12,1.2,16.75,16.75,0,0,0,2.91,1.14s.05,0,.05,0a.09.09,0,0,0,0-.09l-.06-.05v-.06s0-.08-.06-.11a13,13,0,0,1-2.18-2,9.54,9.54,0,0,0-2.86-2.37,15.15,15.15,0,0,0-3.75-1,16.21,16.21,0,0,1-3.34-.85,8.29,8.29,0,0,1-1.86-1.08l0,0c-.25-.44-.5-.89-.73-1.33a13.62,13.62,0,0,0-2.37-3.47,8.6,8.6,0,0,0-3.23-2c-.31-.1-.64-.17-1-.26a5.37,5.37,0,0,1-2.31-.91A9.85,9.85,0,0,1,77,159.16c-.24-.36-.5-.73-.76-1.08a21.22,21.22,0,0,0-1.74-1.91l0,0v0a.14.14,0,0,1,0-.06,20.87,20.87,0,0,0-1.73-3c-.49-.76-1-1.55-1.44-2.37A37,37,0,0,1,69,145.35a47,47,0,0,1-2.26-11.58c-.32-4.52-.17-42.89,0-47.33a129.16,129.16,0,0,0-.05-13.91c-.2-2.62-.61-5.24-1-7.78-.29-2-.61-4-.82-6a27.2,27.2,0,0,1,.74-9.63v0l0,0a17.65,17.65,0,0,1,4-3c.75-.43,1.51-.86,2.27-1.26C73.4,44,75,43.1,76.52,42.12a11.74,11.74,0,0,0,3.94-4.5l.33-.55a.17.17,0,0,0,0-.17.13.13,0,0,0-.23,0c-.23.34-.45.7-.65,1.06a9.23,9.23,0,0,1-1.34,1.87A11.44,11.44,0,0,1,74,42.25a29.83,29.83,0,0,0-7,3.18l-.08.06-.07,0-.21.14.08-.24c.46-1.34,1-2.69,1.45-4s1-2.65,1.45-4a76.31,76.31,0,0,0,2.55-10.25A.27.27,0,0,0,72,27a.44.44,0,0,0-.32-.14.26.26,0,0,0-.27.19A49.31,49.31,0,0,1,68,34.6l-.38.7-.15-.07a28.37,28.37,0,0,0,1.46-7.7,24,24,0,0,0-.08-3.06A15.57,15.57,0,0,1,69,20a.13.13,0,0,0,0-.09.18.18,0,0,0-.24,0,9,9,0,0,0-.94,3H67.6a44.5,44.5,0,0,0-1.31-6.43.27.27,0,0,0-.28-.21.44.44,0,0,0-.32.14.3.3,0,0,0-.07.24C67.08,25,64,33.17,61.06,38.52a34.06,34.06,0,0,0-3.83,9.62l0,.2,0,.16-.17,0V48.2a95.75,95.75,0,0,1,.47-13.5c.07-.59.16-1.18.26-1.76.2-.91.36-1.82.5-2.67.16-.7.32-1.33.49-1.95l0-.05a27,27,0,0,0,1.24-6c.11-2.26,0-4.55-.12-6.75-.08-1.62-.17-3.3-.17-5a.14.14,0,0,0,0-.06.14.14,0,0,0-.21.07c-.1.62-.18,1.3-.28,2.14l-.16,0a42.05,42.05,0,0,0-3.2-8.45.19.19,0,0,0-.31,0,.21.21,0,0,0,0,.18c1.42,5.48,2.61,10.86,1.59,16.35-.16.88-.36,1.8-.64,3h-.17a30.7,30.7,0,0,0-1-4c-.49-1.55-1.11-3.12-1.7-4.63A41.77,41.77,0,0,1,51,6.86a.31.31,0,0,0-.31-.28.36.36,0,0,0-.25.11.28.28,0,0,0-.07.24c.07.79.17,1.63.32,2.65l-.15.05a15.31,15.31,0,0,0-1.71-2.39c-.69-.78-1.45-1.51-2.19-2.22a29.27,29.27,0,0,1-2.57-2.65.05.05,0,0,0-.08,0v0a23.74,23.74,0,0,0,3.24,5.35,23.33,23.33,0,0,1,3.41,6.37c.22.6.44,1.19.68,1.79.55,1.44,1.12,2.95,1.64,4.45a46.07,46.07,0,0,1,.53,13.89c-.15,1.76-.35,3.55-.54,5.28-.07.71-.15,1.43-.22,2.14s-.15,1.64-.22,2.43-.15,1.79-.24,2.68l-.17,0a13,13,0,0,0-.6-1.5c-1-2.2-2.25-4.34-3.43-6.41-.72-1.29-1.49-2.61-2.19-3.94-.44-.84-.88-1.75-1.38-2.86v0c-.24-1.55-.58-3.12-.93-4.63a46.16,46.16,0,0,1-1.15-6.58c-.36-4.58-.74-8.38-2.15-12.19A.25.25,0,0,0,40,8.49a.35.35,0,0,0-.26.11.21.21,0,0,0,0,.19,56.2,56.2,0,0,1,1,6.67c.09,1.27.1,2.55.11,3.78,0,1,0,2.08.07,3.11,0,.29,0,.57.07.86l-.17,0-.06-.13L40.6,23a15.74,15.74,0,0,1-.94-4,.28.28,0,0,0-.29-.23.24.24,0,0,0-.26.21c0,.34,0,.68,0,1l0,.3L39,20A11.37,11.37,0,0,0,37,18c-.37-.32-.7-.62-1-.93a.16.16,0,0,0-.25.07.15.15,0,0,0,0,.18,15.77,15.77,0,0,1,1.74,3.8c.17.49.35,1,.54,1.48.63,1.58,1.24,3.13,1.78,4.68.16.49.34,1,.5,1.45a66.68,66.68,0,0,0,3,7.87,50.72,50.72,0,0,0,1.82,6.55,33.1,33.1,0,0,0,2.93,5.9v0A28.1,28.1,0,0,1,49.46,61c-.11.94-.25,1.89-.37,2.82l-.08.6-.13-.21c-.61-1-1.13-2-1.63-3.06-.29-.6-.61-1.22-.92-1.82-1.21-2.27-2.66-4.44-4-6.55-1-1.5-2-3-3-4.61a39.26,39.26,0,0,1-4.92-13.84,21.81,21.81,0,0,0-2.21-6.78c-.34-.63-.74-1.25-1.13-1.84A14,14,0,0,1,29,21.53a.33.33,0,0,0-.31-.22.17.17,0,0,0-.19.19,13,13,0,0,0,1.19,5c.15.4.31.8.46,1.22a36.15,36.15,0,0,1,1.49,6.86c.06.45.13.89.2,1.34s.17,1,.28,1.59l-.16.06A64.83,64.83,0,0,0,27.86,32c-.54-.67-1.13-1.35-1.71-2a32.08,32.08,0,0,1-3.86-5,.22.22,0,0,0-.19-.12.37.37,0,0,0-.26.15.27.27,0,0,0,0,.25A37.51,37.51,0,0,0,26,33.34c1.11,1.68,2.1,3.48,3.05,5.22.53,1,1.09,2,1.66,3l.66,1.13a35.12,35.12,0,0,1,3.56,7.19l.09.24L34.76,50c-2-1.4-4-2.62-6.17-3.93l-1.59-1-.85-.52c-4.36-2.65-9.29-5.66-12.16-10a.18.18,0,0,0-.16-.09.29.29,0,0,0-.22.12.17.17,0,0,0,0,.18,23.44,23.44,0,0,0,4.27,6.56A36.63,36.63,0,0,0,20.8,44l-.08.15c-.75-.24-1.57-.49-2.51-.76C14.5,42.34,11.34,40.11,8.3,38l-1.87-1.3a.19.19,0,0,0-.26.08.11.11,0,0,0,0,.12c3.54,3.89,7,6.32,10.82,7.64,1.88.65,3.74,1.43,5.54,2.18,1.62.68,3.28,1.38,5,2a50.92,50.92,0,0,1,8.24,6.2c.17.23.31.45.46.67.41.62.83,1.25,1.26,1.85a36.62,36.62,0,0,1,3.24,5.14,45.54,45.54,0,0,1,4.19,12A57.71,57.71,0,0,1,46.05,87.1c0,1.37-.13,2.8-.23,4.17a58.37,58.37,0,0,0-.17,7.59v0h0c-.45,1.38-.82,36.67-1.15,38.54a4.54,4.54,0,0,0-.09.51l-.06.32-.12.24c-.43.84-.81,1.63-1.18,2.41-1.06,2.28-1.92,4.68-2.75,7-.63,1.74-1.27,3.53-2,5.26a51.19,51.19,0,0,1-3.5,6.51c-.57.94-1.15,1.91-1.7,2.89s-1,1.72-1.31,2.37l0,0h-.05a20.23,20.23,0,0,0-4.28,1.15,11.47,11.47,0,0,1-4.32.79,26.35,26.35,0,0,1-2.79-.18l-.26,0a23.76,23.76,0,0,0-2.46-.18,6.59,6.59,0,0,0-3.17.72h0a8.87,8.87,0,0,0-2.65.12,5.85,5.85,0,0,0-3,1.67,6.6,6.6,0,0,0-1.37,2.7c-.07.23-.14.46-.22.69a.28.28,0,0,0,0,.23.31.31,0,0,0,.22.12.23.23,0,0,0,.2-.15A4.49,4.49,0,0,1,12.06,169.9Z"/><path class="cls-8" d="M30.54,27.38c2.15,5.39,2.25,11.4,4.52,16.76.77,1.84,1.66,3.65,2.61,5.45a.27.27,0,0,0,0,.27l.3.5c1.65,5.2,4.83,10.08,7.42,14.79a.1.1,0,0,0,.18-.06,37.74,37.74,0,0,0-1.9-4.78c.9,1.74,1.8,3.48,2.77,5.18.07.12.22.06.26,0A39,39,0,0,1,48,71.06a.22.22,0,0,0,.43,0A20.94,20.94,0,0,0,48,66.62c.17.32.32.64.5.95a.23.23,0,0,0,.14.12A32.74,32.74,0,0,1,50,74.09c0,.19.32.15.31,0a36.32,36.32,0,0,0-.94-6.6c.44,1.3.86,2.6,1.26,3.92,0,.07.13,0,.13,0s0-.26,0-.4c.09.32.18.62.27.92s.46.14.4-.1a17.29,17.29,0,0,1-.26-6.45,25.32,25.32,0,0,0,.46-5.83c0-.13-.2-.1-.2,0a40.23,40.23,0,0,1-1,6.17c0-1.12,0-2.23.09-3.34a38.27,38.27,0,0,0,.23-4.66c-.16-3.4-1.66-6.5-3-9.54-.05-.08-.18,0-.15,0,1.24,3.51,2.33,7,2.09,10.76-.11,1.65-.41,3.43-.45,5.17A56.78,56.78,0,0,0,45,56.71c-2.06-3.34-4.16-6.66-6.08-10.08A47,47,0,0,1,34.36,34c-.9-3.79-2.73-7-4.32-10.49a.12.12,0,0,0-.23.06,26,26,0,0,0,1.82,5.26,43.79,43.79,0,0,1,2,6.53c.09.39.19.78.29,1.17h-.05c-.17-.7-.32-1.39-.5-2.08a39.44,39.44,0,0,0-2.58-7.13C30.69,27.17,30.48,27.25,30.54,27.38Zm12.84,29.5c.28.51.57,1,.84,1.54.88,2.26,1.73,4.5,2.43,6.8-.86-1.9-1.69-3.89-2.57-5.87.13.17.25.35.38.53s.32,0,.25-.13C44.21,58.82,43.79,57.85,43.38,56.88Z"/><path class="cls-9" d="M21.87,24.34c2.1,2.81,4.85,4.91,7.15,7.53a19,19,0,0,1,3.92,7.69.29.29,0,0,1-.18.35,22.57,22.57,0,0,1,1.6,3.77.11.11,0,0,1-.14.13c.42,1,.87,2,1.34,3,0,.06-.05.1-.1.06a19.38,19.38,0,0,1-3.11-5.08,10.94,10.94,0,0,1-2-3.21c-.88-1.67-1.67-3.37-2.71-5-1.25-1.93-2.92-3.49-4-5.55-.05-.1.12-.2.18-.1a25.23,25.23,0,0,0,2.87,3.7c-.54-.77-1.08-1.55-1.59-2.35a.17.17,0,0,1,.11-.25,47.47,47.47,0,0,1-3.38-4.64C21.78,24.34,21.85,24.3,21.87,24.34Z"/><path class="cls-10" d="M14.81,35.67c.09.13.19.25.27.38-.17-.3-.33-.61-.48-.92-.07-.13.15-.24.22-.12A23.15,23.15,0,0,0,19.31,40,33.85,33.85,0,0,0,24.7,44c.88.52,1.77,1,2.66,1.5,1.25.63,2.49,1.25,3.67,2l0,0a29.74,29.74,0,0,1,4.82,3.29.18.18,0,0,1-.18.3c-.25-.1-.5-.22-.74-.34A18.29,18.29,0,0,0,36.39,52a.1.1,0,0,1,0,.15c.23.2.45.4.66.61a18.76,18.76,0,0,1,3.1,4.68c.06.12-.14.22-.21.11a26.81,26.81,0,0,0-4.13-5c-.93-.85-1.88-1.63-2.76-2.51-1-.69-2-1.35-3.09-2-2-1.2-4.19-2.09-6.21-3.31-3.74-2.27-7.42-4.87-9.33-8.91A.21.21,0,0,1,14.81,35.67Z"/><path class="cls-11" d="M4.48,34.83c2.93,2,5.36,4.53,8.51,6.28s6.75,2,9.84,3.76c.14.09.05.33-.12.25a12.86,12.86,0,0,0-1.94-.72c1.22.52,2.41,1.14,3.63,1.59a.09.09,0,0,1,0,.17,27.17,27.17,0,0,1-6.06-2.38l-1.15-.29a20.92,20.92,0,0,1-4.91-2.11,33.39,33.39,0,0,1-8.1-6.21C3.93,35,4.27,34.68,4.48,34.83Z"/><path class="cls-12" d="M42.24,25.46c0,.13.06.26.1.39-.3-2.53-.3-5.07-.45-7.63-.21-3.46-1.45-6.71-1.85-10.14,0-.2.26-.23.3,0a24.94,24.94,0,0,0,1.89,4.9,15.9,15.9,0,0,1,1,4.46c.37,3.43.21,6.83.81,10.24a32.41,32.41,0,0,0,3.8,10.23,46.93,46.93,0,0,1,2.36,4.77c.22.45.42.91.62,1.37a22.89,22.89,0,0,1,2.49,8.12c0,.12-.17.17-.2,0a31.57,31.57,0,0,0-1.21-3.55,6.61,6.61,0,0,1-.39-.68c.19.48.38.94.56,1.42.06.14-.13.2-.19.08l0,0a31.85,31.85,0,0,1,.77,8.63c0,.13-.23.13-.24,0a37.87,37.87,0,0,0-.63-5.37l-.18-.33a25.08,25.08,0,0,1,0,2.6c0,.09-.16.11-.18,0-.65-2.38-.94-4.86-1.48-7.27a17.74,17.74,0,0,0-.84-2.31c-.57-1.25-1.24-2.43-1.89-3.63.58,1.54,1.2,3.07,1.78,4.64a.14.14,0,1,1-.27.1c-1.38-2.84-3-5.54-3.95-8.5a30.81,30.81,0,0,1-1.4-4.27,49,49,0,0,1-1.16-8.26S42.23,25.42,42.24,25.46Z"/><path class="cls-13" d="M36.46,16.39a34.54,34.54,0,0,1,2.11,3.19A16.38,16.38,0,0,1,38.33,17c0-.4.61-.64.76-.18a42.29,42.29,0,0,1,1.43,6.65c.63,1.8,1,3.72,1.47,5.55,0,0-.05.07-.06,0-.26-.61-.52-1.21-.77-1.83A.13.13,0,0,1,41,27.1c-.34-.87-.7-1.74-1-2.63a.31.31,0,0,1-.35-.16c-1.29-2.52-2.17-5.24-3.41-7.79C36.14,16.38,36.36,16.26,36.46,16.39Z"/><path class="cls-14" d="M50.68,5.32a.19.19,0,0,1,.37,0c1.16,7.55,5.84,14.21,4.74,22.07a.13.13,0,0,1-.25,0c.12-4-1.12-7.94-2.37-11.7C52.06,12.29,50.7,8.85,50.68,5.32Z"/><path class="cls-15" d="M46.4,4.07a18.51,18.51,0,0,1,5.26,8.66c0,.1-.13.15-.17.06C49.86,9.85,48.11,7,46.21,4.25,46.13,4.14,46.29,4,46.4,4.07Z"/><path class="cls-16" d="M54.18,52.71c0,.09.21.1.21,0a13.45,13.45,0,0,1,.45-2.61A.2.2,0,0,0,55,50a10.71,10.71,0,0,0,.6-2.37c-.06,1.31-.17,2.62-.32,3.94a.16.16,0,0,0,.31,0c.18-.77.32-1.54.44-2.32a65.42,65.42,0,0,1-1.3,6.89s.08.07.08,0c1-3.14,2.24-6,2.34-9.34a83.16,83.16,0,0,1,.47-10c.26-1.67.62-3.33.81-5s.26-3.52.61-5.24a58.14,58.14,0,0,0,1.22-10.83.22.22,0,0,0-.36-.17c-.07-1-.18-2.07-.3-3.11a.1.1,0,0,0-.2,0c0,1.81,0,3.61.12,5.41,0,.21-.07.42-.1.62a28.07,28.07,0,0,0-.2-3.16A25.49,25.49,0,0,0,58,9.64a40.3,40.3,0,0,1-2-6,.17.17,0,0,0-.34,0,17.71,17.71,0,0,0,1.23,5.64,27.85,27.85,0,0,1,1.26,6.12c.07.64.11,1.28.14,1.92a29.73,29.73,0,0,0-.88,6.45c-.17,2.68-.48,5.31-.88,8s-.94,5.68-1.2,8.57a33.29,33.29,0,0,1,1-10.75c0-.1-.13-.14-.16,0a25.37,25.37,0,0,0-1.81,9.92,62.25,62.25,0,0,1,.32,8.29c-.08.47-.17.94-.28,1.41C54.16,50.29,53.63,51.65,54.18,52.71ZM58.11,23a33.68,33.68,0,0,1,.23-4.49A41.93,41.93,0,0,1,58.11,23Z"/><path class="cls-17" d="M61.53,43.47c.39-.72.79-1.46,1.18-2.2a20.26,20.26,0,0,0-2.09,5.6.15.15,0,0,0,.29,0,28.7,28.7,0,0,1,3-6.81c-.65,1.73-1.35,3.45-2,5.2a.29.29,0,0,0,0,.26A45.72,45.72,0,0,0,60.13,50c-.06.17.19.29.26.11a39.67,39.67,0,0,1,1.77-3.87l-.27.74a15.33,15.33,0,0,0-1.26,6.33.07.07,0,0,0,.13,0A24.18,24.18,0,0,1,62.49,46c1-2.11,2-4.2,3-6.32a.1.1,0,0,0,0-.13c.35-.63.68-1.27,1-1.92a18.75,18.75,0,0,0,3.13-8.45c.34-4-1.3-7.85-.37-11.85,0-.16-.19-.2-.27-.08-1.89,3.22-.46,7.19-.65,10.66a15.6,15.6,0,0,1-1,4.72A14.52,14.52,0,0,0,67.59,31a.23.23,0,0,0-.2-.27,26.3,26.3,0,0,0-.15-8.64.11.11,0,0,0-.21,0,46.81,46.81,0,0,1-.76,9.9c.08-.51.15-1,.2-1.55a.12.12,0,0,0-.23,0A29.1,29.1,0,0,1,63.44,38c.55-1.59,1-3.19,1.44-4.82,0-.12-.19-.19-.24-.06-1.58,4.65-3.68,9.2-4.77,14,0,.1.14.15.17.05.44-1.21.9-2.41,1.36-3.62A.36.36,0,0,0,61.53,43.47Zm4.43-10c-.07.28-.13.57-.21.85s-.18.67-.27,1l-.39.87A27,27,0,0,0,66,33.43Z"/><path class="cls-18" d="M62.67,52.47c.15-.61.32-1.22.5-1.83a.27.27,0,0,0,.29.08,14.1,14.1,0,0,0,0,4.49c0,.2.3.16.3,0A20.85,20.85,0,0,1,66,46.59a31.57,31.57,0,0,0,3.53-7.48c1.1-4.16,2.51-8.43,2.36-12.77,0-.18-.28-.18-.3,0A83.49,83.49,0,0,1,68.92,37c-.1.23-.19.45-.3.68-.26.28-.5.56-.74.86a6.11,6.11,0,0,0,.87-3.1c0-.1-.14-.1-.16,0-.44,2-1.79,3.73-2.51,5.68l-.12.32a41,41,0,0,0-3.56,11C62.36,52.61,62.62,52.64,62.67,52.47Zm3.55-8.74c.29-.76.61-1.52,1-2.27s.63-1.31,1-2a.75.75,0,0,0,.07-.12A26.75,26.75,0,0,1,66.81,43l0,0C66.59,43.22,66.4,43.47,66.22,43.73Z"/><path class="cls-19" d="M15.35,169.35c-.16-.1,0-.35.18-.28a44.35,44.35,0,0,0,6.94,2.4A36.54,36.54,0,0,1,18,169.66a.27.27,0,0,1,.21-.49,19.19,19.19,0,0,0,7.46,1.42,8.25,8.25,0,0,1-3-.9.23.23,0,0,1,.12-.43,33.52,33.52,0,0,0,5.11,0,11.8,11.8,0,0,0,2.74-.67l.16-.06c-1.59-.08-3.19.06-4.78-.12-.21,0-.16-.32,0-.32a12.77,12.77,0,0,0,2.95-.41,3,3,0,0,1,2-.85,6.67,6.67,0,0,1,2,0s0,0,.05-.05c-.41,0-.82-.08-1.22-.08a24.74,24.74,0,0,0-4,.32c-.18,0-.2-.22,0-.26,1.13-.24,2.51-.72,3.89-1h-.39c-.15,0-.22-.21-.07-.26a8,8,0,0,1,3-.3,66.67,66.67,0,0,0,3.07-6.16c.8-1.62,1.87-3.11,2.8-4.66a26.6,26.6,0,0,0,2.64-6.55c1.21-4.2,2.11-8.48,3.18-12.72.54-2.11,1.08-38,1.35-40.17s.29-4.58.65-6.84a.05.05,0,0,1,.1,0c-.17,2.32,0,4.61,0,6.93s-.46,38.42-1,40.71c.25-.7.48-35.19.7-35.89q.18-1.72.27-3.45c.25-4.91.27-9.79.72-14.7,0-.12.23-.12.23,0,0,2.81.21,5.6.37,8.4.21-4.26.49-8.52.54-12.77,0-.14.23-.17.23,0,.08,5.08.71,10.09.63,15.18s-.3,44-1.65,48.91a76.33,76.33,0,0,1-5.36,13.29c-.88,1.81-1.8,3.61-2.85,5.33-.17.34-.37.69-.56,1A15.74,15.74,0,0,1,39,164.25a16.06,16.06,0,0,1,4-.39.18.18,0,0,1,0,.35q-.47.09-.9.21a.17.17,0,0,1-.13.19,9.59,9.59,0,0,0-2.63,1,23.42,23.42,0,0,1,3,0,.13.13,0,1,1,0,.25c-1.89.45-3.51.39-4.91,1.91-.5.54-1.07,1.13-1.78.86l-.36.2a7.18,7.18,0,0,1,3.13,0c.19,0,.2.33,0,.34a11.14,11.14,0,0,0-5.41,1.63,8.42,8.42,0,0,0-2.21,1.56,6.56,6.56,0,0,0-.43.57.58.58,0,0,1-.3.55,12.69,12.69,0,0,1,2.2.48.1.1,0,0,1,0,.19A23.86,23.86,0,0,0,26,175c-.11,0-.22-.09-.13-.18a4,4,0,0,1,1.65-1.11.25.25,0,0,1,0-.41c.06-.05.13-.09.18-.14a4.52,4.52,0,0,1-1,.23C22.52,173.85,18.67,171.36,15.35,169.35Z"/><path class="cls-20" d="M58.63,80.82c0-1.16.08-2.32.13-3.47,0-.73-.07-1.46-.1-2.18-.27-6.74-.67-13.63.7-20.27,0-.17.29-.13.27,0a51.82,51.82,0,0,0-.26,10.65c.24-3.58.57-7.15,1.06-10.75a.13.13,0,0,1,.26,0,134.44,134.44,0,0,0-.57,17.95c0,1.25,0,2.5,0,3.74.32,6.79,1,13.58.47,20.37-.07,2.57-.29,38.92.11,41.48,0,.24-.33.27-.38,0-.46-2.28-.42-38.37-.31-40.69a.19.19,0,0,1,0-.07c-.14-3-.32-6-.5-9l-.09,1.33a.26.26,0,0,1-.18.25,40.31,40.31,0,0,0,.23,8.43c0,.24-.33.28-.38.05a29.41,29.41,0,0,1-.61-6.35C57.43,88.64,58,84.71,58.63,80.82Z"/><path class="cls-21" d="M63.85,144.78a28.7,28.7,0,0,0,5.83,11c.16.19.32.38.49.56-.21-.17-.41-.36-.62-.55a31,31,0,0,1-4.82-6.13c-.15-.24-.56,0-.43.22a29.35,29.35,0,0,0,7,8.92,8.79,8.79,0,0,1-3.17-2.48.17.17,0,0,0-.3.17,7.43,7.43,0,0,0,3.06,3.22l1,.62a8.24,8.24,0,0,0-1.74.75c-.16.08,0,.33.14.26a6,6,0,0,1,2.34-.6l.35.16a6.69,6.69,0,0,0-3.13.92c-.13.07,0,.28.12.22a5.66,5.66,0,0,1,2.93-.51,6.24,6.24,0,0,0-3,1.4c-.25.22,0,.62.3.42,2.09-1.49,4.3-1.11,6.36-.16a6.39,6.39,0,0,0-2.91,2.29.11.11,0,0,0,.16.16A11.23,11.23,0,0,1,78,163.93l.33.18c-1,.52-2,1.23-3.06,1.69-.15.06-.1.32.07.28,1.15-.25,2.18-.67,3.19-.93a7.47,7.47,0,0,0-3,1.72c-.11.11,0,.31.16.21a6,6,0,0,1,4.85-1.15,3.92,3.92,0,0,0-2.18,1.86c-.09.15.15.27.25.15,1.56-1.67,3.54-1.59,5.48-.73,1.47,1.06,3.07,2.32,3.33,4.1-.38.1-.75.2-1.12.32-.15.05-.08.26.07.25,1,0,1.89,0,2.81,0a8.69,8.69,0,0,0,.86.29c-.87.17-1.73.37-2.58.53a.09.09,0,1,0,0,.17c1.46-.11,2.87-.27,4.27-.32l.42.07a14,14,0,0,1-2.92.5c-.09,0-.09.16,0,.16a54.7,54.7,0,0,0,6.41-.3,8.38,8.38,0,0,1,5.43,3.21c0,.06.12,0,.08-.06a4.37,4.37,0,0,0-.37-.48,16,16,0,0,0,1.4,1.19c0,.05.12,0,.07-.09-1.7-1.59-2.9-4.36-5.21-5.21a9.4,9.4,0,0,0-3.59-.55,11.65,11.65,0,0,0-2.51-.16l-.39-.11a7.71,7.71,0,0,0-1.13-1.45.59.59,0,0,0-.11-.43c-1.71-2.22-4.07-5.44-7-6.19a18.81,18.81,0,0,0-2.33-1.95,11.08,11.08,0,0,0-3-3.08.48.48,0,0,0-.2-.07c-1.22-1.57-2.31-3.21-3.56-4.77a39.39,39.39,0,0,1-3.86-9.44c-1.22-4.64-1.58-43.15-1.55-47.93,0-2.65.1-5.3.14-8a29.22,29.22,0,0,0-.18-5.76,64.69,64.69,0,0,0-.1-10.6,48.5,48.5,0,0,0-1.32-8.64c-.09-.31-.17-.63-.25-.95-.71-4.78-1.15-9.7,2.69-13.05,1.89-1.64,4.06-2.8,6.08-4.25a19.15,19.15,0,0,0,4.57-4.76.1.1,0,0,0-.16-.12c-1.73,2.13-4.57,3.43-6.87,4.88-.69.43-1.4.87-2.08,1.33.46-.43.94-.86,1.42-1.29a.09.09,0,0,0-.09-.16,10.23,10.23,0,0,0-4.73,4.21c-.13.13-.24.26-.37.4a8.3,8.3,0,0,1,1.45-2.35c.09-.09,0-.24-.15-.16a9,9,0,0,0-2.67,4.58,8.81,8.81,0,0,0-.63,1.64c0-.17-.27-.22-.29,0a29.24,29.24,0,0,0,.1,5.69,54.5,54.5,0,0,0,1.29,8.43c.17,1.15.33,2.3.43,3.44.06.7.11,1.39.15,2.09-.11-1.1-.24-2.2-.43-3.26C65.2,66,64,63.42,63.83,60.61c0-.11-.17-.08-.17,0,0,2.8,1.17,5.41,1.28,8.18,0,1.18.13,2.36.21,3.54-.65-3-1.55-6-2.05-9.07a.26.26,0,0,0-.51,0c.51,4.54,2,9,2.2,13.53.07,2.11-.15,4.21-.17,6.32-.55-4.53-1.45-9-1.73-13.58,0-.22-.35-.17-.35,0,.08,5.36,1,10.63,1.38,16,.19,2.5-.16,5,.13,7.51.07.69.17,1.37.28,2.06,0,2.91.12,39.64.54,42.54-.3-.93-.61-1.86-.91-2.78-.18-8.31-.87-50.38-2.06-58.6a.19.19,0,0,0-.37,0c.64,7,.86,14.13,1.42,21.19-.44-2.8-.81-5.6-1.05-8.44,0-.13-.21-.1-.2,0,.33,6.86,1.24,47.46,2.92,54.13.06.26.48.22.43-.06l-1-5.69c0-.4,0-.8,0-1.19,1.13,4.47,2,9.18,4.29,13.22a18.54,18.54,0,0,0,2.36,4.07c1.12,1.44,2.36,2.81,3.64,4.16l.41.51-.5-.31A34.66,34.66,0,0,1,67,148.13c-.14-.26-.56-.12-.45.18a31.94,31.94,0,0,0,2.08,4.13,28.43,28.43,0,0,1-4.36-7.81C64.14,144.38,63.78,144.53,63.85,144.78ZM65.78,83c0,.51,0,1,0,1.53V84C65.77,83.65,65.77,83.34,65.78,83ZM97.43,173a.31.31,0,0,0,.25-.11l.31.22c.38.3.73.61,1.08.93A11.32,11.32,0,0,0,97.43,173ZM74.8,161a.34.34,0,0,0,.06-.06c.33.08.66.17,1,.28A9.81,9.81,0,0,0,74.8,161Z"/><path class="cls-22" d="M23.6,179.21c.91-2.2,4.22-1.74,6.14-1.71a27.94,27.94,0,0,0,3.29-.14c1.9.29,4.47.34,5.78-.36a.45.45,0,0,0,.22,0,1.15,1.15,0,0,0,.48-.4,10.92,10.92,0,0,0,5.41.15,3.91,3.91,0,0,0,2.4-1.38.46.46,0,0,0,.23,0,3,3,0,0,0,.85-.48,9.41,9.41,0,0,0,3.48-.68,8.91,8.91,0,0,0,1.16-.43c.68-.28,1.37-.57,2-.81a7.62,7.62,0,0,1,2.52-.69,13.17,13.17,0,0,1,2.24.41,3.89,3.89,0,0,0,2.4-.32.09.09,0,0,0,0-.18,4.15,4.15,0,0,1-.79-.07.15.15,0,0,0,0-.27c-1.48-.68-3-1.58-4.56-1.47A11.1,11.1,0,0,1,54,168.43a11.24,11.24,0,0,1-2-3.64l.1-.08A14.88,14.88,0,0,1,54,162.8a18.21,18.21,0,0,1,2-1.35c.23-.13,0-.48-.21-.39-.5.19-1.15.42-1.8.72.81-1.16,1.6-2.33,3.19-2.35.27,0,.26-.41,0-.46a4.22,4.22,0,0,0-2.38.21s0-.06,0-.09a.54.54,0,0,0,.35-.63.25.25,0,0,0,.11-.15.19.19,0,0,0,0-.08l.08-.06.07,0a8,8,0,0,1,4.78,1.77,17.93,17.93,0,0,0-3.59-.17c-.36,0-.38.61,0,.63a13.1,13.1,0,0,1,3.94.58,5.5,5.5,0,0,1,1.34.74l.3.43a7.69,7.69,0,0,0-6-.08.15.15,0,0,0,.07.29,10.07,10.07,0,0,1,3,.11,11.17,11.17,0,0,0-5.07,2.72.15.15,0,0,0,.18.24,11.13,11.13,0,0,1,6.53-2,7.09,7.09,0,0,0-6.33,3.08c-.14.21.14.44.3.25a5.74,5.74,0,0,1,4.39-2,7.1,7.1,0,0,0-2.19,1.49c-.11.1.07.28.19.19a7.36,7.36,0,0,1,5.29-1.33l1.66.38a7.52,7.52,0,0,0-4.95,1.63.16.16,0,0,0,.19.25,6.55,6.55,0,0,1,5.61-.84,8.52,8.52,0,0,0-4.89,3.69c-.17.3.28.52.5.3A8.38,8.38,0,0,1,63,168.9a4.15,4.15,0,0,0-.51,1.08c-.05.15.16.3.26.15a4.33,4.33,0,0,1,4.81-1.91,12.45,12.45,0,0,0-3.78,1.24c-.14.08-.11.35.08.31a24.29,24.29,0,0,1,4-.61,4,4,0,0,0-1.43,1.07.15.15,0,0,0,.17.23,6.32,6.32,0,0,1,3.42-.28,1.71,1.71,0,0,0-1.76,1.21.13.13,0,0,0,.23.13c1.43-1.88,4.81,1.32,6.22,2h0a14.4,14.4,0,0,0,6.85,3.23c.18,0,.22-.22,0-.26a11.43,11.43,0,0,1-2.43-.93.43.43,0,0,0-.08-.46c-.7-.66-1.7-1.62-2.85-2.6-.18-.21-.36-.44-.54-.67l-.31-.49a5.11,5.11,0,0,1,.8-.35c.92-.29,2.09-.62,2.93,0,.16.12.35-.11.2-.23a4.13,4.13,0,0,0-1.24-.74,14.44,14.44,0,0,1,3,.53c.17,0,.2-.19.08-.27-2-1.16-4.87-1.75-6.75-.35l-.21-.26a2.74,2.74,0,0,1,.41-.34A9.32,9.32,0,0,0,76,168.12c.15-.16-.08-.4-.25-.27a18.13,18.13,0,0,1-2.05.9l-.2.13-.1-.09A9.46,9.46,0,0,0,70,165.86a16.09,16.09,0,0,0-1.3-1,3.85,3.85,0,0,1,2,.06c.15,0,.26-.2.13-.28a3,3,0,0,0-2.32-.39l-.37.08.09,0a6.61,6.61,0,0,1,2.43-.25.11.11,0,0,0,0-.22,8,8,0,0,0-3.39.18l-.33-.18A15,15,0,0,0,63.78,158c-.19-.48-.41-1-.65-1.43-.33-1.09-.65-2.19-1-3.32-1.05-3.77-2.39-7.48-2.82-11.39a.09.09,0,0,0-.18,0c.15,3.88,1.25,7.42,2.16,11.13,0-.12-.09-.23-.13-.34-.93-2.52-1.81-5.06-2.58-7.62,0-.07-.12,0-.11,0,.63,2.68,1.22,5.42,2.05,8.08a4.17,4.17,0,0,0-.67-.59,26.3,26.3,0,0,1-1.51-4.2c0-.16-.3-.09-.28.07a22.07,22.07,0,0,0,.67,3.33l-.29-.26a.3.3,0,0,0-.49.22,1.86,1.86,0,0,0-.33,0l.09,0c.2-.05.18-.36,0-.33a6.46,6.46,0,0,0-2,.59,2.47,2.47,0,0,1,1.37-.8c.17,0,.21-.33,0-.34a2.84,2.84,0,0,0-1.5.38c-.1-1.14-.22-2.26-.31-3.32-.3-3.77-.74-7.71-.22-11.47a.08.08,0,1,0-.16,0,35.45,35.45,0,0,0-.67,11c.1,1.63.23,3.27.3,4.91l-.1.14a23.34,23.34,0,0,0-.47-5c0-1.32,0-2.65,0-4,.15-5.85.5-45.47,1-51.3s1.42-11.57,1.71-17.35A29.19,29.19,0,0,0,56.12,67c-.62-2.79-1.24-5.85-.54-8.68,0-.12-.19-.17-.23-.06-1.66,5.32.23,10.73-.19,16.2-.35,4.5-1,9-1.46,13.47.18-2.32.38-4.64.54-7a99.68,99.68,0,0,0-.34-15.55.12.12,0,0,0-.24,0A92.69,92.69,0,0,1,53.25,76c0-2.17-.11-4.34-.26-6.51,0-.18-.29-.15-.28,0,.24,5.52-.44,11-.52,16.58-.35,3.8-.58,7.59-.82,11.42-.17,2.63,0,39.06-.3,41.69-.27,2.39-1,4.74-1.13,7.14,0,.17,0,.33,0,.5A40.78,40.78,0,0,1,48.83,151a29.78,29.78,0,0,0-1.19,3.89l-.93,1.25a4,4,0,0,0-1.37,1.64.19.19,0,0,0,0,.18.86.86,0,0,0-.07.1c-.11.15.1.33.22.18s.23-.27.35-.4a16,16,0,0,1,1.76-.87,1.23,1.23,0,0,1,0,.19,4,4,0,0,0-.8.54.22.22,0,0,0,.21.38,6.32,6.32,0,0,1,1.39-.27s0,0,0,.07a1.06,1.06,0,0,1-.12.2h-.18c-1.94,0-3.5.46-4.47,2.21-.09.16.16.29.27.16a4.27,4.27,0,0,1,3.33-1.2,5.38,5.38,0,0,0-.48.59,1.09,1.09,0,0,0-.08.15,7.79,7.79,0,0,0-2.41,1.24.18.18,0,0,0,.21.28,5.84,5.84,0,0,1,2.87-.77.52.52,0,0,0,.27.34c1.13.58,2.75,1,3.36,2.16a3.29,3.29,0,0,0-.9-.68,6.47,6.47,0,0,0-4.3-.3.25.25,0,0,0,.06.5,5.86,5.86,0,0,1,3.68.7,2.5,2.5,0,0,1,.76.85,3.71,3.71,0,0,0-3-.65.16.16,0,0,0,0,.32,3.16,3.16,0,0,1,3.16,1.62,9.83,9.83,0,0,1,.76,2.15,5,5,0,0,0-3.46-2.65.22.22,0,0,0-.12.41,4.94,4.94,0,0,1,3.13,4,2.52,2.52,0,0,1-1.38,2.87,7.8,7.8,0,0,0-2.62-4.77c-.12-.1-.24.07-.14.17a6,6,0,0,1,1.88,3.58,3.91,3.91,0,0,1,0,1.34.45.45,0,0,0-.1.14l-.26.1c-.07-1.77-1.56-3.61-2.93-4.58a8,8,0,0,0-5.8-1.59c-.18,0-.14.29,0,.28A6.72,6.72,0,0,1,43,168c-1.6-.45-3.1-.25-4,1.42-.1.2.2.31.3.14,1-1.71,3.63-.66,4.88.19a8.22,8.22,0,0,1,1.88,1.64l.11.24c-1.18-1.65-3.48-3.12-5-2.26-.13.08,0,.26.11.25a5.07,5.07,0,0,1,3.41,1.56,4,4,0,0,1,1.12,1.59c.16.58-.08.88-.28,1.4a.4.4,0,0,0,0,.24l-.42.16a5.54,5.54,0,0,0-1.48-3.13c-.12-.12-.35.09-.23.22a4.6,4.6,0,0,1,1.14,1.89,1.49,1.49,0,0,1-.5,1.83c-.24,0-.48,0-.73,0-.74,0-1.59-.18-2.4-.26.55-1.69-2-3.38-3.35-3.8-.16,0-.26.17-.11.23a4.81,4.81,0,0,1,2.14,1.45,3.54,3.54,0,0,1,.63,1.1,3,3,0,0,1,0,1h-.39c-.15-1.71-3-3-4.28-3.44-.2-.06-.34.23-.14.3a7.38,7.38,0,0,1,2.44,1.45,1.94,1.94,0,0,0-.53-.05.37.37,0,0,0-.21.06,3.75,3.75,0,0,0-.81-.16,3.46,3.46,0,0,0-.82-.52c-.16-.07-.26.17-.11.25a1.49,1.49,0,0,1,.87,1.43c-.09.54-.68.7-1.1.95l-.11.08a27,27,0,0,1-5.66.65c-2.29,0-5.57.26-6.11,3C23.26,179.29,23.54,179.37,23.6,179.21Zm33.63-21.64a3.33,3.33,0,0,1,2.16.24c.58.29,1.12.63,1.7.92l0,.06.63.82-.57-.45A7.87,7.87,0,0,0,57.23,157.57Z"/><path class="cls-23" d="M24.42,176.11a13,13,0,0,0,1-1,0,0,0,1,1,0,0,5.32,5.32,0,0,1-1,1C24.43,176.24,24.36,176.16,24.42,176.11Z"/><path class="cls-24" d="M96.08,171.71a5.35,5.35,0,0,1,1.19.39c-.22,0-.44-.1-.66-.13A5.2,5.2,0,0,0,96.08,171.71Z"/><path class="cls-25" d="M58.17,157.51c-.13,0-.1-.2,0-.19,3.77.11,7.39,3.46,8.24,7.15a5.78,5.78,0,0,1,1.61,1.32,4.15,4.15,0,0,1,3.39,1.93,5.3,5.3,0,0,1,2.7,2.57A4.42,4.42,0,0,1,76.26,172a.29.29,0,0,1-.25.45l.52.61a14.39,14.39,0,0,0,3.89,3.85.08.08,0,0,1-.07.15,6.39,6.39,0,0,1-3-2.25,16,16,0,0,0-6.3-3.53s0-.08,0-.07a13.75,13.75,0,0,1,3.27,1,5.38,5.38,0,0,0-3.45-1.1c-.11,0-.17-.16-.06-.19a4.14,4.14,0,0,1,2-.17l-.35-.23a4.45,4.45,0,0,0-2-.06.13.13,0,0,1-.07-.25,5,5,0,0,1,1-.25,2.18,2.18,0,0,0-.23-.09,6.32,6.32,0,0,0-3.58.07c-.16,0-.21-.2-.07-.26a7,7,0,0,1,3.43-.57,6.5,6.5,0,0,0-4.61-.81c-.19,0-.27-.28-.09-.33a6.79,6.79,0,0,1,1.4-.22,7.28,7.28,0,0,0-4.35.66.12.12,0,1,1-.14-.19A7.48,7.48,0,0,1,68,166.94l-.48-.45h0l-.74-.11a.24.24,0,0,1-.26,0l0,0a14.21,14.21,0,0,0-3.33.18c-.18,0-.2-.23,0-.27.77-.16,1.69-.34,2.62-.44a5.65,5.65,0,0,0-1.46-.83,8.31,8.31,0,0,0-2.85-.37.14.14,0,0,1,0-.27,8.39,8.39,0,0,1,2.51-.05,8,8,0,0,0-5.22-.24.12.12,0,0,1-.09-.22,9.18,9.18,0,0,1,5.89-.18,14.91,14.91,0,0,0-1-1.66,5.71,5.71,0,0,0-2.82-2.17c-.15-.05-.08-.3.07-.26a5.56,5.56,0,0,1,2.75,1.69,9.28,9.28,0,0,1,1.77,2.67l.1,0C64.2,160.83,61.74,157.89,58.17,157.51Z"/><path class="cls-26" d="M53.32,156.79a6,6,0,0,1,8.47.19,5.92,5.92,0,0,1,1.8,1.71c.07.11-.07.26-.17.17-2.21-2.06-4.6-2.89-7.5-1.84a.17.17,0,0,1-.17-.3,3.76,3.76,0,0,1,2.57-.84,5.93,5.93,0,0,0-4.91,1A.07.07,0,0,1,53.32,156.79Z"/><path class="cls-27" d="M53.35,155.26a5.51,5.51,0,0,1,7.64.3c.13.15-.07.4-.24.3-2.39-1.29-4.76-2.17-7.22-.41C53.42,155.53,53.25,155.36,53.35,155.26Z"/><path class="cls-28" d="M55,153.76a3.7,3.7,0,0,1,2-.66,3.46,3.46,0,0,0-2-.1c-.13,0-.27-.14-.12-.23,1.44-.87,3.5-.22,4.76.72a.18.18,0,0,1,.06.25,8.39,8.39,0,0,1,1.83,1.2.11.11,0,0,1-.12.18A26,26,0,0,0,59,154a6,6,0,0,0-3.74.14A.2.2,0,0,1,55,153.76Z"/><path class="cls-29" d="M44.7,161.64c.94-1.52,3.22-1.38,4.89-.75a8.48,8.48,0,0,0-.86-.41,6.21,6.21,0,0,0-3.2-.3.12.12,0,0,1-.09,0l-.35,0c-.18,0-.19-.23,0-.27s.67-.16,1.06-.23a.22.22,0,0,1,0-.29,2,2,0,0,1,.5-.33h-.08a.16.16,0,0,1-.08-.3A2.73,2.73,0,0,1,49,159a.27.27,0,0,1,.08.24,8.05,8.05,0,0,1,1.28.67c.09.06,0,.19-.09.15a5.39,5.39,0,0,0-3.25-.55c1.22-.14,2.49,0,3.09,1.05a.23.23,0,0,1,0,.24c.4.26.78.55,1.13.82.08.06,0,.17-.09.12l-.44-.26a.08.08,0,0,1-.08,0,6.86,6.86,0,0,0-2.51-.69,3.86,3.86,0,0,0-1,0,3.22,3.22,0,0,1,1.3.14c1.41.46,2,1.59,3.07,2.55a.05.05,0,0,1-.06.08c-.74-.49-1.36-1.09-2.07-1.62a3.39,3.39,0,0,0-2.12-.62,6.81,6.81,0,0,0-1.91.68.22.22,0,0,1-.27-.32l-.17.1A.16.16,0,0,1,44.7,161.64Z"/><path class="cls-30" d="M47,158.21c.85-.1,2-.21,2.68.43a.24.24,0,0,1-.24.4c-.39-.13-.73-.31-1.14-.41a5.87,5.87,0,0,0-1.25-.11C46.82,158.52,46.78,158.23,47,158.21Z"/><g class="cls-31"><path class="cls-32" d="M42.75,176.94a5.34,5.34,0,0,0,1.24-.3,1.34,1.34,0,0,0,.8-1.22.09.09,0,0,1,.17,0,1.57,1.57,0,0,1-.35,1.34A2.43,2.43,0,0,0,46,174.21a0,0,0,0,1,.08,0,2.27,2.27,0,0,1,0,1.66h0l.37-.15c.77-1.51-.5-3.94-1.71-5.08,0,0,0-.07,0,0,1.11,1,2.53,3.3,2.22,4.88a3.2,3.2,0,0,0,.88-.64,3.09,3.09,0,0,0,.78-2.35.12.12,0,0,1,.23,0,3.58,3.58,0,0,1-.26,2.25,3.05,3.05,0,0,0,1-1.62.13.13,0,0,1,.25,0,2.94,2.94,0,0,1-.41,1.36,6.2,6.2,0,0,0,1-.68,4.85,4.85,0,0,0,.25-.51,9.49,9.49,0,0,0,.49-2.26,7.1,7.1,0,0,0-.65-2.15.1.1,0,0,1,.17-.1,5.82,5.82,0,0,1,.71,1.21.12.12,0,0,1,.12.14.45.45,0,0,1,0,.11,5,5,0,0,1,.32,1,8.52,8.52,0,0,0-.81-3c0-.09.1-.17.16-.09a10.31,10.31,0,0,1,1.1,3.22,5.47,5.47,0,0,0-1.07-4.62c-.07-.09.06-.17.14-.09a8.48,8.48,0,0,1,.6.72,6.78,6.78,0,0,0-3.38-4,.07.07,0,1,1,0-.12,6.53,6.53,0,0,1,4,5.35,4.23,4.23,0,0,1-.27,4.16c0,1.13-.48,2-1.66,1.92a6.7,6.7,0,0,1-.78.53,2.12,2.12,0,0,1-.56.29c-.3.14-.61.25-.9.36a.3.3,0,0,1-.29,0,3.7,3.7,0,0,1-2,.73,2.82,2.82,0,0,1-1,.41,1.71,1.71,0,0,1-1.61.46.31.31,0,0,1-.11-.08,1.23,1.23,0,0,1-1-.1C42.51,177.16,42.62,177,42.75,176.94Z"/><path class="cls-33" d="M36.42,177.61a2.45,2.45,0,0,0,1-1.2,2.6,2.6,0,0,0-.12-1.82.1.1,0,0,1,.18-.07,3.18,3.18,0,0,1,.22,2.27,1.3,1.3,0,0,0,.29-1,3.06,3.06,0,0,0-.59-1.65c0-.06,0-.15.09-.09a3.12,3.12,0,0,1,.89,2,1,1,0,0,1,0,.3,1.75,1.75,0,0,0-.28-2,5,5,0,0,0-1.64-1.45.08.08,0,0,1,.07-.15c1.41.53,3.82,2.7,2,4.16a.19.19,0,0,1-.27,0,1.09,1.09,0,0,1-.29.44,2.34,2.34,0,0,0,1.36-2.8.09.09,0,0,1,.17-.07,2.62,2.62,0,0,1-.15,2.24,1.37,1.37,0,0,0,.7-1.36.13.13,0,0,1,.25,0,1.57,1.57,0,0,1-.92,1.84.18.18,0,0,1-.25-.1,2.53,2.53,0,0,1-2.45,1.06.18.18,0,0,1-.15-.11A.18.18,0,0,1,36.42,177.61Z"/><path class="cls-34" d="M34.58,177.3a5.14,5.14,0,0,0,1.46-.08c.49-.29,1.08-.57.92-1.24,0-.08.12-.11.15,0a1.1,1.1,0,0,1-.52,1.25,0,0,0,0,1,0,0,1.94,1.94,0,0,1-2.07.35A.14.14,0,0,1,34.58,177.3Z"/></g><path class="cls-35" d="M50.87,152.86a9.71,9.71,0,0,1-.93,2.15c0,.06,0,.13-.08.2s0,0-.06.06c-.23.44-.47.88-.66,1.34,0,.07-.13,0-.1,0,.16-.44.35-.87.53-1.29a.19.19,0,0,1-.06-.21,1.45,1.45,0,0,1,.09-.25,53.13,53.13,0,0,0,2-15.8.07.07,0,1,1,.14,0,37.74,37.74,0,0,1-.12,7.88,75.62,75.62,0,0,0,1.07-9.46.08.08,0,0,1,.12-.07c.15-2.86.28-39.5.38-42.35a.05.05,0,0,1,.1,0c0,3.33,0,40.44-.09,43.76.14-1.32.28-2.65.4-4a0,0,0,0,1,.08,0c-.21,5.54-.74,11.08-1.15,16.61a.12.12,0,0,1-.19.08c-.17,1.3-.35,2.61-.58,3.92,0,.12-.21.1-.19,0,.22-2.58.42-5.15.6-7.74,0,.31-.11.62-.17.92a.06.06,0,0,1,0,.07c-.35,3-.83,6.22-2.71,8.67a.09.09,0,0,1-.14-.1,16,16,0,0,0,2.12-5.72c-.1.35-.21.7-.34,1C50.92,152.65,50.9,152.75,50.87,152.86Z"/><path class="cls-36" d="M50.05,150a27.91,27.91,0,0,0,.46-7.07c0-.17.25-.21.27,0a23.45,23.45,0,0,1-.17,5.86,12.16,12.16,0,0,1-.57,2.61c-.41,1.11-1.2,2-1.39,3.22a.08.08,0,1,1-.16,0C48.65,152.92,49.7,151.54,50.05,150Z"/><path class="cls-37" d="M53.72,143.65c0-.1.18-.1.19,0a29.93,29.93,0,0,1-.17,3.15c0,1,0,2.09,0,3.13,0,.15-.27.15-.27,0s0-.44,0-.66c-.18,1.32-.36,2.64-.44,4,0,.14-.24.14-.26,0C52.54,150,53.67,146.88,53.72,143.65Z"/><path class="cls-38" d="M61.76,140.89c.22,1.57.48,3.12.75,4.67a30.32,30.32,0,0,0,1,5.45c.05.12-.14.19-.19.07a21,21,0,0,1-.93-4.15,55.51,55.51,0,0,1-.84-6A.09.09,0,0,1,61.76,140.89Z"/><path class="cls-39" d="M59.52,134.52c.1,1.75.33,3.51.55,5.24a24.2,24.2,0,0,0,1.09,5.67c0,.06.08.07.12,0a9.77,9.77,0,0,0,.75,2.45c0,.09.19,0,.15-.06a11.5,11.5,0,0,1-.78-3.47.2.2,0,0,0,.07-.15c0-.37,0-.74,0-1.1.16,1,.34,2.07.55,3.1,0,.13.26.11.23,0-1.25-6-1.38-46-1.81-52.1-.22-3.06-.24-6.14-.47-9.21a69.74,69.74,0,0,1-.4-9c0-.07-.11-.09-.12,0a79.14,79.14,0,0,0-.09,11,.1.1,0,0,0,0,.07c0,1.75,0,3.55,0,5.36-.16-2.45-.28-4.92-.28-7.37,0-.08-.13-.08-.14,0C58.48,90.23,58.84,129.28,59.52,134.52Zm1.36,4.19c0-.24-.09-.48-.13-.72s0-.2,0-.3.05,0,.06,0C60.81,138,60.84,138.36,60.88,138.71Zm-.61.87c.25,1.57.52,3.13.79,4.7a.29.29,0,0,0,.06.11c0,.16,0,.32.07.49A27.33,27.33,0,0,1,60.27,139.58Z"/><path class="cls-40" d="M58.26,96.79c-.18-3-.13-6.07-.24-9.08,0-.08.11-.09.12,0,.38,4.47.79,42.72,1.2,47.19,0,0,.07,0,.07.1.06,1.7.37,3.37.59,5.05,0,.14-.12.19-.22.15,0,.15.07.3.11.45s-.14.18-.17.07a35.37,35.37,0,0,1-.86-4.88c-.27-1.42-.43-36.64-.54-38.09,0-.27-.08-.55-.13-.82A.1.1,0,0,1,58.26,96.79Z"/><path class="cls-41" d="M57.9,93.76s.05,0,.05,0c.12,4.74,1.06,43.18,1.25,47.91,0,.16-.25.19-.26,0C58.5,137,57.91,98.49,57.9,93.76Z"/><path class="cls-42" d="M39.66,159.56a60.33,60.33,0,0,0,3.59-8,2.21,2.21,0,0,0,0,.25.13.13,0,0,0,.25.08c.54-1.38,1-2.75,1.55-4.14-.33,1.16-.67,2.32-1.09,3.45l-.74,1.86c-.31.69-.65,1.38-1,2.06,0,.07.09.15.13.08a18.13,18.13,0,0,0,1-1.88.17.17,0,0,0,.19-.1,39.44,39.44,0,0,0,2.43-5.72,38.41,38.41,0,0,0,2.15-5.89c.36-1.07.71-2.15,1-3.22.81-2.78.78-39.46,1-42.31,0,0,0,0,0,0-.31,3-.52,39.62-1.28,42.5,1-4.77,1.32-43.49,1.36-48.29,0-.07-.11-.07-.13,0-.25,2.23-.43,4.47-.66,6.69a.12.12,0,0,0-.12.1L49,98.48c.07-.45.12-.9.17-1.34.15-1.55-.23-3.29.34-4.77,0-.07-.07-.12-.12-.05-.76,1.32-.42,3-.61,4.42-.33,2.43-.89,38.64-1.43,41,0,.11-.06.24-.08.36.12-1.08.21-2.17.25-3.27,0-.12-.19-.15-.19,0a40,40,0,0,1-.57,5.46,53.42,53.42,0,0,1-1.59,5.42l-.59,1.58c.34-1.32.66-2.66,1.06-4,0-.12-.13-.19-.17-.08-.89,2.78-1.48,5.63-2.55,8.35s-2.2,5.29-3.45,7.87C39.38,159.61,39.59,159.69,39.66,159.56Zm8.79-22.42c.17-1,.34-1.93.49-2.89-.11.75-.22,1.52-.37,2.28Zm-3.08,10.13.38-1.49c.07-.26.13-.53.2-.8.66-2,1.26-4.12,1.73-6.23-.22,1-.46,2.09-.71,3.14C46.51,143.72,46,145.51,45.37,147.27Z"/><path class="cls-43" d="M41.16,152.29c1.51-4,3.3-8,4.77-12,0-.06.11,0,.09,0-1.39,4.08-3,8.08-4.72,12A.07.07,0,1,1,41.16,152.29Z"/><g class="cls-44"><path class="cls-45" d="M7.62,172.66c1.48-3.37,5.26-3,8.16-1.94A36.49,36.49,0,0,0,19.53,172,12.23,12.23,0,0,0,23.06,173a24.34,24.34,0,0,0,4.34.49,10.11,10.11,0,0,0-5.3,5.67c-.09.16-.19.32-.28.49a.39.39,0,0,0,0,.4l0,.09c-.19.6.61,1.22,1,.62A12.23,12.23,0,0,1,25,178.4a7.12,7.12,0,0,1,3.12-1,44.6,44.6,0,0,1,5,.18,19.69,19.69,0,0,0,7.1-.86,7.82,7.82,0,0,0,7-1c.34-.26.67-.55,1-.86a18.63,18.63,0,0,0,7.8-2.19c.5-.26,1-.54,1.5-.84a15.72,15.72,0,0,0,3,1.34c3.33,1.06,6.8.7,10.23,1.14a11.64,11.64,0,0,1,4.66,1.33,23.65,23.65,0,0,0,3.09,1.58c.37.15.83-.31.52-.65-.76-.82-1.4-1.71-2.12-2.51-.42-.79-.83-1.59-1.24-2.37,1.82.29,3.65.53,5.43.92,2.17.47,4.12,1.35,6.23,2a12.67,12.67,0,0,0,5,.68c1.31-.13,2.59-.43,3.89-.66,2.1.49,3.91,1.8,6,2.35.16,0,.23-.18.12-.28l0,0a.17.17,0,0,0-.09-.19,9,9,0,0,1-1.44-1.23c-1.12-1.45-2.21-3-3.88-3.67a9.13,9.13,0,0,0-3.58-.54,6,6,0,0,0-.61-.1,14.1,14.1,0,0,1-2.64-.71h0a9.07,9.07,0,0,0-.77-.91.6.6,0,0,0-.11-.43A26.46,26.46,0,0,0,84.83,164a8.41,8.41,0,0,0-3-1.76l-.15,0c-.59-.54-1.25-1-1.87-1.49a10.82,10.82,0,0,0-3-3.08.5.5,0,0,0-.2-.08c-1.22-1.57-2.31-3.21-3.57-4.77a39.36,39.36,0,0,1-3.85-9.44c-1.22-4.64-1.58-43.15-1.56-47.93,0-2.65.11-5.3.15-7.94a30.08,30.08,0,0,0-.18-5.77,64.69,64.69,0,0,0-.11-10.6,47.35,47.35,0,0,0-1.31-8.63c-.09-.32-.17-.64-.26-1-.71-4.79-1.14-9.71,2.7-13.06,1.88-1.64,4.06-2.8,6.07-4.25a18.51,18.51,0,0,0,3.46-3.26,19.24,19.24,0,0,0,2.66-3.79c.16-.24-.18-.53-.36-.28a20.53,20.53,0,0,1-2,2.92,11.42,11.42,0,0,1-4.56,2.42,29.75,29.75,0,0,0-7.06,3.19l-.16.11c.92-2.67,2-5.31,2.9-8a74,74,0,0,0,2.55-10.26c.09-.47-.68-.7-.83-.23a53.05,53.05,0,0,1-3.8,8.26A28.84,28.84,0,0,0,69,27.54c.16-2.49-.52-5.08,0-7.52.06-.25-.3-.32-.4-.12a9,9,0,0,0-1,3,46.2,46.2,0,0,0-1.3-6.44c-.13-.48-.92-.27-.84.2,1.3,7.49-1,15.23-4.56,21.79a33.79,33.79,0,0,0-3.83,9.63c0,.13,0,.25-.07.36V48.2a97.82,97.82,0,0,1,.47-13.48c.08-.59.16-1.18.26-1.77.2-.88.35-1.77.5-2.67.15-.65.31-1.29.5-1.93A27.66,27.66,0,0,0,60,22.25c.19-3.93-.29-7.8-.29-11.72,0-.23-.37-.22-.4,0-.1.71-.19,1.43-.27,2.14a42.84,42.84,0,0,0-3.2-8.46.27.27,0,0,0-.51.2C56.75,9.73,58,15.2,57,20.72c-.19,1-.41,2-.64,3a31.74,31.74,0,0,0-1-4C54,15.46,51.78,11.28,51,6.84a.4.4,0,0,0-.8.1c.08.9.2,1.78.33,2.66a14.4,14.4,0,0,0-1.72-2.41c-1.51-1.71-3.31-3.12-4.76-4.88-.08-.1-.27,0-.22.12a24.56,24.56,0,0,0,3.25,5.38,22.42,22.42,0,0,1,3.39,6.34c.77,2,1.6,4.13,2.32,6.24a45.31,45.31,0,0,1,.53,13.85c-.2,2.48-.5,4.95-.76,7.43-.18,1.69-.27,3.41-.46,5.1-.18-.51-.38-1-.6-1.51-1.67-3.56-3.79-6.88-5.62-10.35-.5-.94-1-1.9-1.38-2.85-.56-3.77-1.78-7.4-2.08-11.22-.33-4.17-.69-8.24-2.15-12.2-.15-.4-.81-.25-.72.17a55.35,55.35,0,0,1,1,6.66c.17,2.3.06,4.59.18,6.89,0,.28,0,.58.06.86,0-.1-.09-.21-.14-.3a15.87,15.87,0,0,1-.94-4c0-.39-.7-.41-.71,0s0,.7,0,1.05a23.41,23.41,0,0,0-3-2.92c-.22-.22-.54.12-.38.35A24.84,24.84,0,0,1,38,22.67c.62,1.55,1.23,3.1,1.77,4.68a85.13,85.13,0,0,0,3.55,9.32,50.37,50.37,0,0,0,1.82,6.55A32.93,32.93,0,0,0,48,49.14,27.91,27.91,0,0,1,49.34,61c-.13,1.06-.28,2.12-.42,3.18-1-1.58-1.69-3.26-2.55-4.88-2.07-3.88-4.76-7.39-7-11.17a39.26,39.26,0,0,1-4.91-13.8,21.44,21.44,0,0,0-2.22-6.81c-1.08-2-2.63-3.75-3.17-6-.08-.33-.66-.42-.67,0,0,2.24.92,4.15,1.66,6.22a44,44,0,0,1,1.68,8.18c.08.54.18,1.07.28,1.6a64,64,0,0,0-4.1-5.59c-1.87-2.28-4.09-4.46-5.57-7-.22-.37-.78,0-.64.35a38.08,38.08,0,0,0,4.15,8.14C27.6,36,29,38.88,30.56,41.6a42.89,42.89,0,0,1,4.21,8.3C32.29,48.16,29.67,46.63,27,45c-4.61-2.82-9.95-5.88-13-10.46a.31.31,0,0,0-.54.3,23.34,23.34,0,0,0,4.29,6.58,38.58,38.58,0,0,0,2.93,2.67c-.83-.27-1.67-.52-2.51-.76-4.43-1.29-8-4.18-11.76-6.76-.21-.14-.54.11-.35.33A26.3,26.3,0,0,0,17,44.57c3.56,1.22,7,2.89,10.49,4.15a51.8,51.8,0,0,1,8.23,6.19c.56.85,1.11,1.71,1.7,2.51a38.52,38.52,0,0,1,3.24,5.13,45.71,45.71,0,0,1,4.18,12A58.24,58.24,0,0,1,45.93,87.1c-.1,3.84-.66,7.88-.4,11.77-.51,1.55-.87,36.91-1.17,38.55,0,.27-.08.54-.13.81-.45.9-.9,1.79-1.3,2.65-1.85,4-3.06,8.2-4.75,12.25-1.4,3.35-3.41,6.24-5.18,9.39-.45.79-.89,1.58-1.32,2.38a19.16,19.16,0,0,0-4.3,1.15,13.91,13.91,0,0,1-7.07.59c-2.13-.23-4-.49-5.94.52a9,9,0,0,0-2.68.12A5.92,5.92,0,0,0,8.63,169,8.56,8.56,0,0,0,7,172.4.33.33,0,0,0,7.62,172.66ZM45.25,49.94c.06-.14.12-.28.19-.42s.27-.23.42-.34c-.08.12-.17.24-.24.36S45.37,49.8,45.25,49.94Z"/></g><g class="cls-31"><g class="cls-46"><path class="cls-47" d="M31.17,169.85c3.35-1.61,4.46-2.29,6.11-5.63s4.12-7.8,4.12-7.8a74.12,74.12,0,0,0-3.55,8.46,8.18,8.18,0,0,0-2,3.46,3.92,3.92,0,0,0-1.69,1.23,10.9,10.9,0,0,0-5.39,4,6.06,6.06,0,0,0-2.2.36c.27-.15.54-.3.83-.43a24.34,24.34,0,0,1-4.34-.49l-.13,0C26.76,173.34,28.47,171.14,31.17,169.85Z"/></g></g><g class="cls-48"><path class="cls-49" d="M65.58,89.23c0-.15.24-.11.23,0-.18,4.91,0,43.56.62,48.44,0-.88-.06-1.75-.1-2.62s-.08-35.51-.09-36.36c0-.08,0-.17,0-.24-.22-4.33-.2-8.64,0-13,0-.1.18-.1.18,0,0,1.83.07,3.66.14,5.48.13-2,.28-4.1.38-6.14,0-.16.29-.16.29,0,0,1.07,0,2.13,0,3.2a1.23,1.23,0,0,1,0-.19c.21-2.83.1-5.68,0-8.52,0-.12.18-.15.18,0a97.36,97.36,0,0,1-.17,13.77c-.22,2.57.07,38.77.34,41.32s.32,5.23.66,7.83c0,.1-.15.12-.16,0-.45-2.37-.58-4.77-.84-7.17-.1-.83-.22-35.44-.33-36.26v.27c.22,3.93.25,41.63.71,45.54,0,.13-.19.19-.22.06a30.92,30.92,0,0,1-.9-6.17.21.21,0,0,1-.38-.09C65.23,133.37,65.17,94.36,65.58,89.23Z"/><path class="cls-50" d="M64.81,89.46c0-.13.22-.12.22,0,0,3.54.25,40.84.27,44.37,0,.21-.31.26-.33,0C64.72,130.34,64.7,93,64.81,89.46Z"/></g><path class="cls-51" d="M69.26,154.48A27,27,0,0,0,72,158a31.23,31.23,0,0,1-3-2.5c-.11-.1-.24.08-.14.18a32.28,32.28,0,0,0,4.08,3.9,10.55,10.55,0,0,0-1.92-.64c-.14,0-.18.18-.07.23.83.35,1.59.92,2.41,1.27l-.53.14c-.13,0-.08.21,0,.24a6.81,6.81,0,0,0,2.25-.09,5.8,5.8,0,0,0,1.5.31,14.36,14.36,0,0,0-2.65.62c-.12,0-.06.23.06.22a15.45,15.45,0,0,1,4.5-.16,5.12,5.12,0,0,1,1.19.44,5.65,5.65,0,0,0-2.94,1.09.12.12,0,0,0,.12.21,8.58,8.58,0,0,1,4.31-.23,2.77,2.77,0,0,0-1.82.94c-.09.1.06.22.15.16a4.21,4.21,0,0,1,4,.05,6.19,6.19,0,0,0-4.39.49c-.12.06,0,.25.1.2,2.1-.92,4.43-.13,6.39,1a8.78,8.78,0,0,0-4-.3c-.1,0-.12.19,0,.2a10.86,10.86,0,0,1,6,2,11.35,11.35,0,0,1,2.38,2.65,4.75,4.75,0,0,0-1.72.69c-.13.08,0,.24.11.21a6.9,6.9,0,0,1,2-.26l0,0a.35.35,0,0,0,.55,0,8.62,8.62,0,0,1,.87.11,7,7,0,0,0-1,.29.09.09,0,0,0,0,.18A13.06,13.06,0,0,1,94,172l.38.1a7.1,7.1,0,0,0-1.49.51.1.1,0,0,0,0,.19,32.68,32.68,0,0,1,3.55-.13l.28.06h.11a3.71,3.71,0,0,1,1.25.46c1.56.92,2.66,2.41,4.06,3.53a0,0,0,0,0,0,0c-1.16-1.1-2.23-3-3.69-4a4.36,4.36,0,0,0-2.22-1.56,6.47,6.47,0,0,0-2.69-.21,7.84,7.84,0,0,0-2.64-.41c-.25-1.28-2-2.63-2.89-3.22l-.46-.3a.34.34,0,0,0-.06-.45l-.13-.12a6.71,6.71,0,0,0-1.73-1.66.34.34,0,0,0-.1-.26,6.74,6.74,0,0,0-3.84-2.22c-.17-.15-.36-.28-.54-.41a4.82,4.82,0,0,0-1.5-1.27,52.61,52.61,0,0,1-7-8.91,46.07,46.07,0,0,1-4.61-12.74c0-.06-.12,0-.1,0a40.47,40.47,0,0,0,3.6,12.44,37.28,37.28,0,0,1-3-5.66,0,0,0,0,0-.09,0,34.65,34.65,0,0,0,4.23,8.72,38.64,38.64,0,0,0,3.38,4.26c-3.07-2.6-5.19-6-7.36-9.47-.06-.09-.19,0-.14.1a54,54,0,0,0,4.62,7.7c.35.45.74.92,1.15,1.39a12,12,0,0,1-3.87-4c-.06-.11-.23,0-.19.07a9.67,9.67,0,0,0,.66,1.38c-.67-.82-1.28-1.67-1.91-2.52a36.35,36.35,0,0,1-4.5-7.87.11.11,0,0,0-.21.09A35.2,35.2,0,0,0,69.26,154.48Z"/></g></g></svg>