<svg xmlns="http://www.w3.org/2000/svg" xmlns:xlink="http://www.w3.org/1999/xlink" viewBox="0 0 68.87 72.88"><defs><style>.cls-1{mask:url(#mask);filter:url(#luminosity-noclip-3);}.cls-2,.cls-4,.cls-7,.cls-9{mix-blend-mode:multiply;}.cls-2{fill:url(#radial-gradient);}.cls-3{mask:url(#mask-2);filter:url(#luminosity-noclip-4);}.cls-4{fill:url(#radial-gradient-2);}.cls-5{isolation:isolate;}.cls-6{mask:url(#mask-3);}.cls-7{fill:url(#Degradado_sin_nombre_153);}.cls-8{mask:url(#mask-4);}.cls-9{fill:url(#Degradado_sin_nombre_151);}.cls-10{fill:url(#Degradado_sin_nombre_159);}.cls-11{fill:#fff;}.cls-12{filter:url(#luminosity-noclip-2);}.cls-13{filter:url(#luminosity-noclip);}</style><filter id="luminosity-noclip" x="10.86" y="-9734.63" width="57.46" height="32766" filterUnits="userSpaceOnUse" color-interpolation-filters="sRGB"><feFlood flood-color="#fff" result="bg"/><feBlend in="SourceGraphic" in2="bg"/></filter><mask id="mask" x="10.86" y="-9734.63" width="57.46" height="32766" maskUnits="userSpaceOnUse"><g class="cls-13"/></mask><radialGradient id="radial-gradient" cx="-4391" cy="-2515.03" r="20.39" gradientTransform="matrix(0.98, 0.27, -1.01, 0.11, 1789.11, 1533.7)" gradientUnits="userSpaceOnUse"><stop offset="0.5" stop-color="#a6a6a6"/><stop offset="0.6" stop-color="#a3a3a3"/><stop offset="0.67" stop-color="#999"/><stop offset="0.75" stop-color="#888"/><stop offset="0.81" stop-color="#707070"/><stop offset="0.88" stop-color="#515151"/><stop offset="0.94" stop-color="#2c2c2c"/><stop offset="1"/></radialGradient><filter id="luminosity-noclip-2" x="0" y="-9734.63" width="57.46" height="32766" filterUnits="userSpaceOnUse" color-interpolation-filters="sRGB"><feFlood flood-color="#fff" result="bg"/><feBlend in="SourceGraphic" in2="bg"/></filter><mask id="mask-2" x="0" y="-9734.63" width="57.46" height="32766" maskUnits="userSpaceOnUse"><g class="cls-12"/></mask><radialGradient id="radial-gradient-2" cx="-4450.34" cy="-2376.17" r="20.39" gradientTransform="matrix(-0.98, 0.27, 1.01, 0.11, -1919.62, 1533.7)" xlink:href="#radial-gradient"/><filter id="luminosity-noclip-3" x="10.86" y="60.98" width="57.46" height="11.9" filterUnits="userSpaceOnUse" color-interpolation-filters="sRGB"><feFlood flood-color="#fff" result="bg"/><feBlend in="SourceGraphic" in2="bg"/></filter><mask id="mask-3" x="10.86" y="60.98" width="57.46" height="11.9" maskUnits="userSpaceOnUse"><g class="cls-1"><path class="cls-2" d="M68.32,69.14c-.27,3-13.35,4.53-29.22,3.31s-28.51-4.69-28.23-7.74,13.37-4.53,29.22-3.31S68.6,66.09,68.32,69.14Z"/></g></mask><radialGradient id="Degradado_sin_nombre_153" cx="-4391" cy="-2515.03" r="20.39" gradientTransform="matrix(0.98, 0.27, -1.01, 0.11, 1789.11, 1533.7)" gradientUnits="userSpaceOnUse"><stop offset="0" stop-color="#3c3c3b"/><stop offset="1" stop-color="#fff" stop-opacity="0"/></radialGradient><filter id="luminosity-noclip-4" x="0" y="60.98" width="57.46" height="11.9" filterUnits="userSpaceOnUse" color-interpolation-filters="sRGB"><feFlood flood-color="#fff" result="bg"/><feBlend in="SourceGraphic" in2="bg"/></filter><mask id="mask-4" x="0" y="60.98" width="57.46" height="11.9" maskUnits="userSpaceOnUse"><g class="cls-3"><path class="cls-4" d="M0,69.14c.27,3,13.36,4.53,29.23,3.31s28.5-4.69,28.23-7.74S44.09,60.18,28.24,61.4-.27,66.09,0,69.14Z"/></g></mask><radialGradient id="Degradado_sin_nombre_151" cx="-4450.34" cy="-2376.17" r="20.39" gradientTransform="matrix(-0.98, 0.27, 1.01, 0.11, -1919.62, 1533.7)" gradientUnits="userSpaceOnUse"><stop offset="0" stop-color="#3c3c3b"/><stop offset="0" stop-color="#3d3d3c"/><stop offset="1" stop-color="#fff" stop-opacity="0"/></radialGradient><linearGradient id="Degradado_sin_nombre_159" x1="34.58" y1="68.59" x2="34.58" gradientTransform="translate(16 -10.72) rotate(22.82)" gradientUnits="userSpaceOnUse"><stop offset="0" stop-color="#005c68"/><stop offset="1" stop-color="#00b87c"/></linearGradient></defs><g class="cls-5"><g id="Capa_2" data-name="Capa 2"><g id="Capa_1-2" data-name="Capa 1"><g class="cls-6"><path class="cls-7" d="M68.32,69.14c-.27,3-13.35,4.53-29.22,3.31s-28.51-4.69-28.23-7.74,13.37-4.53,29.22-3.31S68.6,66.09,68.32,69.14Z"/></g><g class="cls-8"><path class="cls-9" d="M0,69.14c.27,3,13.36,4.53,29.23,3.31s28.5-4.69,28.23-7.74S44.09,60.18,28.24,61.4-.27,66.09,0,69.14Z"/></g><circle class="cls-10" cx="34.58" cy="34.29" r="34.29" transform="translate(-10.59 16.09) rotate(-22.82)"/><path class="cls-11" d="M40.12,38.3H34a2.73,2.73,0,0,1-2.73-2.73v-.85a10.61,10.61,0,1,1,16.42-8.87.83.83,0,0,1-1.66,0,8.94,8.94,0,0,0-9.38-8.94,9,9,0,0,0-8.51,8.41,8.94,8.94,0,0,0,4.38,8.22.84.84,0,0,1,.41.72v1.31A1.07,1.07,0,0,0,34,36.64h6.16a1.07,1.07,0,0,0,1.07-1.07V34.26a.83.83,0,0,1,1.66,0v1.31A2.73,2.73,0,0,1,40.12,38.3Z"/><path class="cls-11" d="M42,35.08a.82.82,0,0,1-.71-.4.82.82,0,0,1,.29-1.14,9,9,0,0,0,3.86-4.64.83.83,0,1,1,1.55.57A10.64,10.64,0,0,1,42.44,35,.78.78,0,0,1,42,35.08Z"/><path class="cls-11" d="M40.84,40.71h-7.6a.83.83,0,1,1,0-1.66h7.6a.83.83,0,1,1,0,1.66Z"/><path class="cls-11" d="M40.12,38.3H34a.83.83,0,0,1,0-1.66h6.16a.83.83,0,0,1,0,1.66Z"/><path class="cls-11" d="M38.27,43.13H35.81a.83.83,0,1,1,0-1.66h2.46a.83.83,0,0,1,0,1.66Z"/><path class="cls-11" d="M37,38.3a.83.83,0,0,1-.83-.83V22.63a.83.83,0,0,1,1.66,0V37.47A.83.83,0,0,1,37,38.3Z"/><path class="cls-11" d="M37,30.88a.86.86,0,0,1-.59-.24l-3.18-3.19a.83.83,0,0,1,1.17-1.17l3.19,3.18a.85.85,0,0,1,0,1.18A.86.86,0,0,1,37,30.88Z"/><path class="cls-11" d="M33.68,50.33a.85.85,0,0,1-.38-.09l-7.77-3.7a.89.89,0,1,1,.76-1.6l7.77,3.7a.89.89,0,0,1,.42,1.18A.9.9,0,0,1,33.68,50.33Z"/><path class="cls-11" d="M32.62,54.41A4.45,4.45,0,0,1,30.7,54L19.39,48.62l-4.88,1.26a.87.87,0,0,1-.76-.16.88.88,0,0,1-.34-.7V40.35a.88.88,0,0,1,.88-.89H21.1a.85.85,0,0,1,.38.09l11.11,5.3A3.82,3.82,0,0,1,34.76,48l5.14-2.44a4.48,4.48,0,0,1,6,2.12.88.88,0,0,1-.42,1.18L34.53,54A4.43,4.43,0,0,1,32.62,54.41ZM19.48,46.8a.84.84,0,0,1,.38.08l11.6,5.5a2.67,2.67,0,0,0,2.31,0l10-4.72a2.69,2.69,0,0,0-3.07-.55l-6.6,3.13a.88.88,0,0,1-1-.16.86.86,0,0,1-.21-1,2.09,2.09,0,0,0-1-2.66L20.9,41.23H15.17v6.65l4.09-1.06A.82.82,0,0,1,19.48,46.8Z"/></g></g></g></svg>