<svg xmlns="http://www.w3.org/2000/svg" xmlns:xlink="http://www.w3.org/1999/xlink" viewBox="0 0 68.87 72.88"><defs><style>.cls-1{mask:url(#mask);filter:url(#luminosity-noclip-3);}.cls-2,.cls-4,.cls-7,.cls-9{mix-blend-mode:multiply;}.cls-2{fill:url(#radial-gradient);}.cls-3{mask:url(#mask-2);filter:url(#luminosity-noclip-4);}.cls-4{fill:url(#radial-gradient-2);}.cls-5{isolation:isolate;}.cls-6{mask:url(#mask-3);}.cls-7{fill:url(#Degradado_sin_nombre_153);}.cls-8{mask:url(#mask-4);}.cls-9{fill:url(#Degradado_sin_nombre_151);}.cls-10{fill:url(#Degradado_sin_nombre_159);}.cls-11,.cls-12{fill:#fff;}.cls-12{stroke:#fff;stroke-miterlimit:10;stroke-width:0.8px;}.cls-13{filter:url(#luminosity-noclip-2);}.cls-14{filter:url(#luminosity-noclip);}</style><filter id="luminosity-noclip" x="10.86" y="-9734.63" width="57.46" height="32766" filterUnits="userSpaceOnUse" color-interpolation-filters="sRGB"><feFlood flood-color="#fff" result="bg"/><feBlend in="SourceGraphic" in2="bg"/></filter><mask id="mask" x="10.86" y="-9734.63" width="57.46" height="32766" maskUnits="userSpaceOnUse"><g class="cls-14"/></mask><radialGradient id="radial-gradient" cx="-4391" cy="-2515.03" r="20.39" gradientTransform="matrix(0.98, 0.27, -1.01, 0.11, 1789.11, 1533.7)" gradientUnits="userSpaceOnUse"><stop offset="0.5" stop-color="#a6a6a6"/><stop offset="0.6" stop-color="#a3a3a3"/><stop offset="0.67" stop-color="#999"/><stop offset="0.75" stop-color="#888"/><stop offset="0.81" stop-color="#707070"/><stop offset="0.88" stop-color="#515151"/><stop offset="0.94" stop-color="#2c2c2c"/><stop offset="1"/></radialGradient><filter id="luminosity-noclip-2" x="0" y="-9734.63" width="57.46" height="32766" filterUnits="userSpaceOnUse" color-interpolation-filters="sRGB"><feFlood flood-color="#fff" result="bg"/><feBlend in="SourceGraphic" in2="bg"/></filter><mask id="mask-2" x="0" y="-9734.63" width="57.46" height="32766" maskUnits="userSpaceOnUse"><g class="cls-13"/></mask><radialGradient id="radial-gradient-2" cx="-4450.34" cy="-2376.17" r="20.39" gradientTransform="matrix(-0.98, 0.27, 1.01, 0.11, -1919.62, 1533.7)" xlink:href="#radial-gradient"/><filter id="luminosity-noclip-3" x="10.86" y="60.98" width="57.46" height="11.9" filterUnits="userSpaceOnUse" color-interpolation-filters="sRGB"><feFlood flood-color="#fff" result="bg"/><feBlend in="SourceGraphic" in2="bg"/></filter><mask id="mask-3" x="10.86" y="60.98" width="57.46" height="11.9" maskUnits="userSpaceOnUse"><g class="cls-1"><path class="cls-2" d="M68.32,69.14c-.27,3-13.35,4.53-29.22,3.31s-28.51-4.69-28.23-7.74,13.37-4.53,29.22-3.31S68.6,66.09,68.32,69.14Z"/></g></mask><radialGradient id="Degradado_sin_nombre_153" cx="-4391" cy="-2515.03" r="20.39" gradientTransform="matrix(0.98, 0.27, -1.01, 0.11, 1789.11, 1533.7)" gradientUnits="userSpaceOnUse"><stop offset="0" stop-color="#3c3c3b"/><stop offset="1" stop-color="#fff" stop-opacity="0"/></radialGradient><filter id="luminosity-noclip-4" x="0" y="60.98" width="57.46" height="11.9" filterUnits="userSpaceOnUse" color-interpolation-filters="sRGB"><feFlood flood-color="#fff" result="bg"/><feBlend in="SourceGraphic" in2="bg"/></filter><mask id="mask-4" x="0" y="60.98" width="57.46" height="11.9" maskUnits="userSpaceOnUse"><g class="cls-3"><path class="cls-4" d="M0,69.14c.27,3,13.36,4.53,29.23,3.31s28.5-4.69,28.23-7.74S44.09,60.18,28.24,61.4-.27,66.09,0,69.14Z"/></g></mask><radialGradient id="Degradado_sin_nombre_151" cx="-4450.34" cy="-2376.17" r="20.39" gradientTransform="matrix(-0.98, 0.27, 1.01, 0.11, -1919.62, 1533.7)" gradientUnits="userSpaceOnUse"><stop offset="0" stop-color="#3c3c3b"/><stop offset="0" stop-color="#3d3d3c"/><stop offset="1" stop-color="#fff" stop-opacity="0"/></radialGradient><linearGradient id="Degradado_sin_nombre_159" x1="34.58" y1="68.59" x2="34.58" gradientTransform="translate(16 -10.72) rotate(22.82)" gradientUnits="userSpaceOnUse"><stop offset="0" stop-color="#005c68"/><stop offset="1" stop-color="#00b87c"/></linearGradient></defs><g class="cls-5"><g id="Capa_2" data-name="Capa 2"><g id="Capa_1-2" data-name="Capa 1"><g class="cls-6"><path class="cls-7" d="M68.32,69.14c-.27,3-13.35,4.53-29.22,3.31s-28.51-4.69-28.23-7.74,13.37-4.53,29.22-3.31S68.6,66.09,68.32,69.14Z"/></g><g class="cls-8"><path class="cls-9" d="M0,69.14c.27,3,13.36,4.53,29.23,3.31s28.5-4.69,28.23-7.74S44.09,60.18,28.24,61.4-.27,66.09,0,69.14Z"/></g><circle class="cls-10" cx="34.58" cy="34.29" r="34.29" transform="translate(-10.59 16.09) rotate(-22.82)"/><path class="cls-11" d="M42.87,56.14h-16a.88.88,0,0,1-.87-.78L23.84,35.18A.87.87,0,0,1,25.57,35l2,19.4H42.08l2-19.4a.87.87,0,1,1,1.73.19L43.73,55.36A.87.87,0,0,1,42.87,56.14Z"/><path class="cls-11" d="M47,33.14H22.71a.87.87,0,0,1-.87-.87V27.78a.87.87,0,0,1,.87-.87H47a.86.86,0,0,1,.86.87v4.49A.86.86,0,0,1,47,33.14ZM23.58,31.4H46.11V28.65H23.58Z"/><path class="cls-11" d="M35.1,50.43a.87.87,0,1,1,0-1.74,5.56,5.56,0,0,0,5.55-5.55.87.87,0,0,1,1.74,0A7.3,7.3,0,0,1,35.1,50.43Z"/><path class="cls-11" d="M40.66,40.8a.86.86,0,0,1-.75-.43,5.55,5.55,0,0,0-7.58-2,.87.87,0,1,1-.87-1.51,7.29,7.29,0,0,1,9.95,2.67.86.86,0,0,1-.75,1.3Z"/><path class="cls-11" d="M31.89,49.57a1,1,0,0,1-.43-.11,7.29,7.29,0,0,1-2.67-10A.87.87,0,0,1,30,39.18a.88.88,0,0,1,.32,1.19,5.54,5.54,0,0,0,2,7.58.87.87,0,0,1-.44,1.62Z"/><path class="cls-11" d="M36.25,51.37a.87.87,0,0,1-.55-.2l-1.15-.93A.88.88,0,0,1,34.43,49l.94-1.14A.87.87,0,1,1,36.71,49l-.38.47.47.39a.87.87,0,0,1-.55,1.54Z"/><path class="cls-11" d="M40.66,40.8h-.14l-1.46-.24a.87.87,0,1,1,.28-1.71l.6.1.1-.61a.87.87,0,0,1,1.72.28l-.24,1.46a.86.86,0,0,1-.86.73Z"/><path class="cls-11" d="M30.07,42.19a.9.9,0,0,1-.82-.56L29,41.05l-.57.22a.87.87,0,0,1-.62-1.63l1.39-.52a.87.87,0,0,1,1.12.51L30.88,41a.87.87,0,0,1-.51,1.12A.8.8,0,0,1,30.07,42.19Z"/><path class="cls-12" d="M34.93,25.21a.4.4,0,1,1,0-.8,4.33,4.33,0,0,0,4.33-4.33c0-1.87-2.89-5.41-4.33-7-1.43,1.56-4.33,5.1-4.33,7a4.32,4.32,0,0,0,2.73,4,.4.4,0,1,1-.3.74,5.1,5.1,0,0,1-3.23-4.77c0-2.74,4.64-7.63,4.84-7.83a.41.41,0,0,1,.58,0c.2.2,4.84,5.09,4.84,7.83A5.13,5.13,0,0,1,34.93,25.21Z"/><path class="cls-12" d="M34.93,25.21a.39.39,0,0,1-.15,0,.42.42,0,0,1-.22-.53L36.42,20H32.85a.39.39,0,0,1-.32-.16.4.4,0,0,1-.07-.35l2.09-7.07a.4.4,0,0,1,.49-.27.4.4,0,0,1,.28.5l-1.94,6.55H37a.42.42,0,0,1,.34.18.41.41,0,0,1,0,.37L35.3,25A.39.39,0,0,1,34.93,25.21Z"/></g></g></g></svg>