<svg xmlns="http://www.w3.org/2000/svg" xmlns:xlink="http://www.w3.org/1999/xlink" viewBox="0 0 68.87 72.88"><defs><style>.cls-1{mask:url(#mask);filter:url(#luminosity-noclip-3);}.cls-2,.cls-4,.cls-7,.cls-9{mix-blend-mode:multiply;}.cls-2{fill:url(#radial-gradient);}.cls-3{mask:url(#mask-2);filter:url(#luminosity-noclip-4);}.cls-4{fill:url(#radial-gradient-2);}.cls-5{isolation:isolate;}.cls-6{mask:url(#mask-3);}.cls-7{fill:url(#Degradado_sin_nombre_153);}.cls-8{mask:url(#mask-4);}.cls-9{fill:url(#Degradado_sin_nombre_151);}.cls-10{fill:url(#Degradado_sin_nombre_159);}.cls-11{fill:#fff;}.cls-12{filter:url(#luminosity-noclip-2);}.cls-13{filter:url(#luminosity-noclip);}</style><filter id="luminosity-noclip" x="10.86" y="-9734.63" width="57.46" height="32766" filterUnits="userSpaceOnUse" color-interpolation-filters="sRGB"><feFlood flood-color="#fff" result="bg"/><feBlend in="SourceGraphic" in2="bg"/></filter><mask id="mask" x="10.86" y="-9734.63" width="57.46" height="32766" maskUnits="userSpaceOnUse"><g class="cls-13"/></mask><radialGradient id="radial-gradient" cx="-4391" cy="-2515.03" r="20.39" gradientTransform="matrix(0.98, 0.27, -1.01, 0.11, 1789.11, 1533.7)" gradientUnits="userSpaceOnUse"><stop offset="0.5" stop-color="#a6a6a6"/><stop offset="0.6" stop-color="#a3a3a3"/><stop offset="0.67" stop-color="#999"/><stop offset="0.75" stop-color="#888"/><stop offset="0.81" stop-color="#707070"/><stop offset="0.88" stop-color="#515151"/><stop offset="0.94" stop-color="#2c2c2c"/><stop offset="1"/></radialGradient><filter id="luminosity-noclip-2" x="0" y="-9734.63" width="57.46" height="32766" filterUnits="userSpaceOnUse" color-interpolation-filters="sRGB"><feFlood flood-color="#fff" result="bg"/><feBlend in="SourceGraphic" in2="bg"/></filter><mask id="mask-2" x="0" y="-9734.63" width="57.46" height="32766" maskUnits="userSpaceOnUse"><g class="cls-12"/></mask><radialGradient id="radial-gradient-2" cx="-4450.34" cy="-2376.17" r="20.39" gradientTransform="matrix(-0.98, 0.27, 1.01, 0.11, -1919.62, 1533.7)" xlink:href="#radial-gradient"/><filter id="luminosity-noclip-3" x="10.86" y="60.98" width="57.46" height="11.9" filterUnits="userSpaceOnUse" color-interpolation-filters="sRGB"><feFlood flood-color="#fff" result="bg"/><feBlend in="SourceGraphic" in2="bg"/></filter><mask id="mask-3" x="10.86" y="60.98" width="57.46" height="11.9" maskUnits="userSpaceOnUse"><g class="cls-1"><path class="cls-2" d="M68.32,69.14c-.27,3-13.35,4.53-29.22,3.31s-28.51-4.69-28.23-7.74,13.37-4.53,29.22-3.31S68.6,66.09,68.32,69.14Z"/></g></mask><radialGradient id="Degradado_sin_nombre_153" cx="-4391" cy="-2515.03" r="20.39" gradientTransform="matrix(0.98, 0.27, -1.01, 0.11, 1789.11, 1533.7)" gradientUnits="userSpaceOnUse"><stop offset="0" stop-color="#3c3c3b"/><stop offset="1" stop-color="#fff" stop-opacity="0"/></radialGradient><filter id="luminosity-noclip-4" x="0" y="60.98" width="57.46" height="11.9" filterUnits="userSpaceOnUse" color-interpolation-filters="sRGB"><feFlood flood-color="#fff" result="bg"/><feBlend in="SourceGraphic" in2="bg"/></filter><mask id="mask-4" x="0" y="60.98" width="57.46" height="11.9" maskUnits="userSpaceOnUse"><g class="cls-3"><path class="cls-4" d="M0,69.14c.27,3,13.36,4.53,29.23,3.31s28.5-4.69,28.23-7.74S44.09,60.18,28.24,61.4-.27,66.09,0,69.14Z"/></g></mask><radialGradient id="Degradado_sin_nombre_151" cx="-4450.34" cy="-2376.17" r="20.39" gradientTransform="matrix(-0.98, 0.27, 1.01, 0.11, -1919.62, 1533.7)" gradientUnits="userSpaceOnUse"><stop offset="0" stop-color="#3c3c3b"/><stop offset="0" stop-color="#3d3d3c"/><stop offset="1" stop-color="#fff" stop-opacity="0"/></radialGradient><linearGradient id="Degradado_sin_nombre_159" x1="34.58" y1="68.59" x2="34.58" gradientTransform="translate(16 -10.72) rotate(22.82)" gradientUnits="userSpaceOnUse"><stop offset="0" stop-color="#005c68"/><stop offset="1" stop-color="#00b87c"/></linearGradient></defs><g class="cls-5"><g id="Capa_2" data-name="Capa 2"><g id="Capa_1-2" data-name="Capa 1"><g class="cls-6"><path class="cls-7" d="M68.32,69.14c-.27,3-13.35,4.53-29.22,3.31s-28.51-4.69-28.23-7.74,13.37-4.53,29.22-3.31S68.6,66.09,68.32,69.14Z"/></g><g class="cls-8"><path class="cls-9" d="M0,69.14c.27,3,13.36,4.53,29.23,3.31s28.5-4.69,28.23-7.74S44.09,60.18,28.24,61.4-.27,66.09,0,69.14Z"/></g><circle class="cls-10" cx="34.58" cy="34.29" r="34.29" transform="translate(-10.59 16.09) rotate(-22.82)"/><path class="cls-11" d="M41.25,36.05a.68.68,0,0,1-.6-1,7.19,7.19,0,0,0,.89-3.46,7.1,7.1,0,1,0-13.33,3.38.7.7,0,1,1-1.22.67,8.48,8.48,0,1,1,14.87.09A.68.68,0,0,1,41.25,36.05Z"/><path class="cls-11" d="M37.91,44H31a.7.7,0,0,1-.64-.43l-3.33-8a.7.7,0,0,1,.64-1h13.6a.71.71,0,0,1,.58.31.7.7,0,0,1,.06.66l-3.34,8A.69.69,0,0,1,37.91,44Zm-6.46-1.39h6l2.76-6.6H28.69Z"/><path class="cls-11" d="M37.49,46.27H31.41a.7.7,0,0,1,0-1.39h6.08a.7.7,0,0,1,0,1.39Z"/><path class="cls-11" d="M37.91,44H31a.7.7,0,0,1,0-1.39h6.93a.7.7,0,1,1,0,1.39Z"/><path class="cls-11" d="M35.08,48.49H33.82a.7.7,0,0,1,0-1.39h1.26a.7.7,0,0,1,0,1.39Z"/><path class="cls-11" d="M36.7,53.26a.94.94,0,1,1,0-1.88A14.48,14.48,0,0,0,51.16,36.91a.94.94,0,0,1,1.88,0A16.36,16.36,0,0,1,36.7,53.26Z"/><path class="cls-11" d="M47.75,25.58a.94.94,0,0,1-.81-.47,14.49,14.49,0,0,0-19.76-5.29,1,1,0,0,1-1.29-.35.94.94,0,0,1,.35-1.28,16.36,16.36,0,0,1,22.33,6,1,1,0,0,1-.35,1.29A1,1,0,0,1,47.75,25.58Z"/><path class="cls-11" d="M24.28,49.77a.9.9,0,0,1-.47-.13,16.36,16.36,0,0,1-6-22.33A.93.93,0,0,1,19.11,27a1,1,0,0,1,.35,1.29A14.48,14.48,0,0,0,24.75,48a1,1,0,0,1,.35,1.29A1,1,0,0,1,24.28,49.77Z"/><path class="cls-11" d="M39.45,55.51a1,1,0,0,1-.6-.21L36.1,53.05A1,1,0,0,1,36,51.72L38.22,49a.94.94,0,0,1,1.46,1.2l-1.66,2,2,1.65a.94.94,0,0,1,.14,1.33A1,1,0,0,1,39.45,55.51Z"/><path class="cls-11" d="M47.75,25.58H47.6L44.09,25a.94.94,0,0,1-.77-1.09.93.93,0,0,1,1.08-.77l2.57.42L47.4,21a.94.94,0,1,1,1.85.31l-.57,3.5A.94.94,0,0,1,47.75,25.58Z"/><path class="cls-11" d="M19.9,32.05a.94.94,0,0,1-.88-.61L18.09,29l-2.44.92A.94.94,0,0,1,15,28.16l3.32-1.26a.94.94,0,0,1,1.21.55l1.26,3.33A.94.94,0,0,1,20.23,32,1,1,0,0,1,19.9,32.05Z"/></g></g></g></svg>