<svg xmlns="http://www.w3.org/2000/svg" xmlns:xlink="http://www.w3.org/1999/xlink" viewBox="0 0 68.87 72.88"><defs><style>.cls-1{mask:url(#mask);filter:url(#luminosity-noclip-3);}.cls-2,.cls-4,.cls-7,.cls-9{mix-blend-mode:multiply;}.cls-2{fill:url(#radial-gradient);}.cls-3{mask:url(#mask-2);filter:url(#luminosity-noclip-4);}.cls-4{fill:url(#radial-gradient-2);}.cls-5{isolation:isolate;}.cls-6{mask:url(#mask-3);}.cls-7{fill:url(#Degradado_sin_nombre_153);}.cls-8{mask:url(#mask-4);}.cls-9{fill:url(#Degradado_sin_nombre_151);}.cls-10{fill:url(#Degradado_sin_nombre_159);}.cls-11{fill:#fff;}.cls-12{filter:url(#luminosity-noclip-2);}.cls-13{filter:url(#luminosity-noclip);}</style><filter id="luminosity-noclip" x="10.86" y="-9734.63" width="57.46" height="32766" filterUnits="userSpaceOnUse" color-interpolation-filters="sRGB"><feFlood flood-color="#fff" result="bg"/><feBlend in="SourceGraphic" in2="bg"/></filter><mask id="mask" x="10.86" y="-9734.63" width="57.46" height="32766" maskUnits="userSpaceOnUse"><g class="cls-13"/></mask><radialGradient id="radial-gradient" cx="-4391" cy="-2515.03" r="20.39" gradientTransform="matrix(0.98, 0.27, -1.01, 0.11, 1789.11, 1533.7)" gradientUnits="userSpaceOnUse"><stop offset="0.5" stop-color="#a6a6a6"/><stop offset="0.6" stop-color="#a3a3a3"/><stop offset="0.67" stop-color="#999"/><stop offset="0.75" stop-color="#888"/><stop offset="0.81" stop-color="#707070"/><stop offset="0.88" stop-color="#515151"/><stop offset="0.94" stop-color="#2c2c2c"/><stop offset="1"/></radialGradient><filter id="luminosity-noclip-2" x="0" y="-9734.63" width="57.46" height="32766" filterUnits="userSpaceOnUse" color-interpolation-filters="sRGB"><feFlood flood-color="#fff" result="bg"/><feBlend in="SourceGraphic" in2="bg"/></filter><mask id="mask-2" x="0" y="-9734.63" width="57.46" height="32766" maskUnits="userSpaceOnUse"><g class="cls-12"/></mask><radialGradient id="radial-gradient-2" cx="-4450.34" cy="-2376.17" r="20.39" gradientTransform="matrix(-0.98, 0.27, 1.01, 0.11, -1919.62, 1533.7)" xlink:href="#radial-gradient"/><filter id="luminosity-noclip-3" x="10.86" y="60.98" width="57.46" height="11.9" filterUnits="userSpaceOnUse" color-interpolation-filters="sRGB"><feFlood flood-color="#fff" result="bg"/><feBlend in="SourceGraphic" in2="bg"/></filter><mask id="mask-3" x="10.86" y="60.98" width="57.46" height="11.9" maskUnits="userSpaceOnUse"><g class="cls-1"><path class="cls-2" d="M68.32,69.14c-.27,3-13.35,4.53-29.22,3.31s-28.51-4.69-28.23-7.74,13.37-4.53,29.22-3.31S68.6,66.09,68.32,69.14Z"/></g></mask><radialGradient id="Degradado_sin_nombre_153" cx="-4391" cy="-2515.03" r="20.39" gradientTransform="matrix(0.98, 0.27, -1.01, 0.11, 1789.11, 1533.7)" gradientUnits="userSpaceOnUse"><stop offset="0" stop-color="#3c3c3b"/><stop offset="1" stop-color="#fff" stop-opacity="0"/></radialGradient><filter id="luminosity-noclip-4" x="0" y="60.98" width="57.46" height="11.9" filterUnits="userSpaceOnUse" color-interpolation-filters="sRGB"><feFlood flood-color="#fff" result="bg"/><feBlend in="SourceGraphic" in2="bg"/></filter><mask id="mask-4" x="0" y="60.98" width="57.46" height="11.9" maskUnits="userSpaceOnUse"><g class="cls-3"><path class="cls-4" d="M0,69.14c.27,3,13.36,4.53,29.23,3.31s28.5-4.69,28.23-7.74S44.09,60.18,28.24,61.4-.27,66.09,0,69.14Z"/></g></mask><radialGradient id="Degradado_sin_nombre_151" cx="-4450.34" cy="-2376.17" r="20.39" gradientTransform="matrix(-0.98, 0.27, 1.01, 0.11, -1919.62, 1533.7)" gradientUnits="userSpaceOnUse"><stop offset="0" stop-color="#3c3c3b"/><stop offset="0" stop-color="#3d3d3c"/><stop offset="1" stop-color="#fff" stop-opacity="0"/></radialGradient><linearGradient id="Degradado_sin_nombre_159" x1="34.58" y1="68.59" x2="34.58" gradientTransform="translate(16 -10.72) rotate(22.82)" gradientUnits="userSpaceOnUse"><stop offset="0" stop-color="#005c68"/><stop offset="1" stop-color="#00b87c"/></linearGradient></defs><g class="cls-5"><g id="Capa_2" data-name="Capa 2"><g id="Capa_1-2" data-name="Capa 1"><g class="cls-6"><path class="cls-7" d="M68.32,69.14c-.27,3-13.35,4.53-29.22,3.31s-28.51-4.69-28.23-7.74,13.37-4.53,29.22-3.31S68.6,66.09,68.32,69.14Z"/></g><g class="cls-8"><path class="cls-9" d="M0,69.14c.27,3,13.36,4.53,29.23,3.31s28.5-4.69,28.23-7.74S44.09,60.18,28.24,61.4-.27,66.09,0,69.14Z"/></g><circle class="cls-10" cx="34.58" cy="34.29" r="34.29" transform="translate(-10.59 16.09) rotate(-22.82)"/><path class="cls-11" d="M39.59,53.89H29.76a1.13,1.13,0,1,1,0-2.25h9.83a1.13,1.13,0,1,1,0,2.25Z"/><path class="cls-11" d="M35.69,57.5h-2a1.13,1.13,0,1,1,0-2.25h2a1.13,1.13,0,0,1,0,2.25Z"/><path class="cls-11" d="M41.88,40a4.17,4.17,0,0,1-4.16-4.16V20.5a1.92,1.92,0,0,0-1.92-1.91H33.55a1.92,1.92,0,0,0-1.92,1.91V35.84a4.17,4.17,0,0,1-8.33,0V19.66a1.13,1.13,0,0,1,2.25,0V35.84a1.92,1.92,0,0,0,3.83,0V20.5a4.17,4.17,0,0,1,4.17-4.16H35.8A4.17,4.17,0,0,1,40,20.5V35.84a1.92,1.92,0,0,0,3.83,0V19.66a1.13,1.13,0,0,1,2.25,0V35.84A4.17,4.17,0,0,1,41.88,40Z"/><path class="cls-11" d="M38,50.29H31.32a6.11,6.11,0,0,1-5.73-4L24.35,42.8a1.11,1.11,0,0,1,.13-1,1.15,1.15,0,0,1,.93-.48H43.94a1.15,1.15,0,0,1,.93.48,1.11,1.11,0,0,1,.13,1l-1.24,3.46A6.11,6.11,0,0,1,38,50.29ZM27,43.54l.7,2A3.85,3.85,0,0,0,31.32,48H38a3.85,3.85,0,0,0,3.61-2.54l.7-2Z"/></g></g></g></svg>