<svg xmlns="http://www.w3.org/2000/svg" viewBox="0 0 284.01 324.06"><defs><style>.cls-1{isolation:isolate;}.cls-2{fill:#c4c0ad;}.cls-3{fill:#91c65b;}.cls-4{fill:#89b552;}.cls-26,.cls-5{fill:#dd9f64;}.cls-19,.cls-21,.cls-6{mix-blend-mode:multiply;}.cls-6{opacity:0.48;}.cls-7{fill:#cfab89;}.cls-10,.cls-11,.cls-12,.cls-13,.cls-14,.cls-15,.cls-16,.cls-17,.cls-18,.cls-19,.cls-20,.cls-7,.cls-8,.cls-9{fill-rule:evenodd;}.cls-8{fill:#e5d6c4;}.cls-9{fill:#c8956e;}.cls-10{fill:#af8061;}.cls-11{fill:#dabfa3;}.cls-12,.cls-21{fill:#a36a42;}.cls-13{fill:#512f20;}.cls-14{fill:#75472f;}.cls-15{fill:#503224;}.cls-16{fill:#80624d;}.cls-17{fill:#231813;}.cls-18,.cls-19{fill:#b57b54;}.cls-20{fill:#bf835d;}.cls-21{opacity:0.7;}.cls-22{fill:#662f15;}.cls-23,.cls-24,.cls-25{fill:#cc7e43;}.cls-23{opacity:0.32;}.cls-25{opacity:0.19;}.cls-26{mix-blend-mode:screen;opacity:0.2;}.cls-27{fill:#598c3f;}.cls-28{fill:#4b7734;}.cls-29{fill:#f4a82f;}.cls-30{fill:#eb4224;}.cls-31{fill:#b2c935;}.cls-32{fill:#e8c8a9;opacity:0.56;}</style></defs><g class="cls-1"><g id="Capa_1" data-name="Capa 1"><ellipse class="cls-2" cx="127.62" cy="289.21" rx="64.16" ry="12.5"/><path class="cls-3" d="M82.07,289.21s9.47-62.81-8.2-82.38c0,0,18.93,13.26,18.93,58.7,0,0,3.79-31.56-3.78-61.22,0,0,14.51,20.2,11.36,63.75,0,0,1.26-56.18,7.57-70.06,0,0-5.68,57.43,3.16,73.84,0,0,5-36.6,3.78-59.33,0,0,10.73,32.19,4.42,58.07,0,0,14.08-39.76,2-72.58,0,0,19.33,32.82,14,74.48,0,0,9.85-67.54,27.52-69.43,0,0-15.15,17.67-9.46,68.16,0,0,13-24.54,9.46-45.72,0,0,5.62,16.06.6,48.25,0,0,16.44-62.42,42.95-48.25,0,0-26.51-6-30.92,63.72Z"/><path class="cls-4" d="M178.56,263.9h0c-11,20.4-96.49,25.31-96.49,25.31h93.42A197.23,197.23,0,0,1,178.56,263.9Z"/><rect class="cls-5" x="19.35" y="161.95" width="236.37" height="14.69" transform="translate(-31.76 306.83) rotate(-90)"/><g class="cls-6"><path class="cls-7" d="M132.51,91.3v41.76c-.63-6.14-.69-12.67-1.55-18.65V100C132.57,97.77,131.07,92.83,132.51,91.3Zm-.78,12.86c-.89,1-.13,3.07-.38,4.47v4.46C132.25,110.64,131.48,107.05,131.73,104.16Z"/><path class="cls-8" d="M131,132.79a35,35,0,0,0,0-11.55Z"/><path class="cls-9" d="M131,167.2v5.51c.84,0,.17-.93.39-1.31,1.11,0-.34,1.8.77,1.84a17.74,17.74,0,0,0-.77-6Z"/><path class="cls-10" d="M131,172.71v2.89c.88.37.15,1.83.39,2.63,1.07-.12-.3,1.43.77,1.31v-6.3c-1.11,0,.34-1.8-.77-1.84C131.13,171.78,131.8,172.76,131,172.71Z"/><path class="cls-9" d="M131,175.6v8.67h.39v-6C131.11,177.43,131.84,176,131,175.6Z"/><path class="cls-7" d="M131.35,184.27H131v24.16c0,4.11,1.22,12.72.77,15.5-.15.94-.11.22-.77,0v3.94c.64.28.64,2.34,0,2.62v4.2a26.18,26.18,0,0,1,0,10v7.88c1.11,0-.33-1.8.77-1.83v-1.58c.26-1.75-.51-4.2.39-5.52V212.11c-.89-1-.13-3.06-.39-4.47v-5.78c-.89-1.4-.13-3.93-.38-5.77Z"/><path class="cls-11" d="M131,227.87v2.62C131.6,230.21,131.6,228.15,131,227.87Z"/><path class="cls-11" d="M131,234.69v10A26.18,26.18,0,0,0,131,234.69Z"/><path class="cls-9" d="M131,252.55v8.15c1.58-2.43.42-6.73.77-10C130.63,250.75,132.07,252.52,131,252.55Z"/><path class="cls-10" d="M131,260.7v5.51c.85,0,.16-1.11.39-1.57,1.13.36-.36,2.52.77,2.88V249.14h-.39v1.58C131.38,254,132.54,258.27,131,260.7Z"/><path class="cls-12" d="M131,266.21v7.09c.88-.28.15-1.65.39-2.36.88.36.14,1.83.38,2.63.82.19.2-2.84.39-3.95v-2.1c-1.13-.36.36-2.52-.77-2.88C131.12,265.1,131.81,266.18,131,266.21Z"/><path class="cls-13" d="M131,282v5.51h5.8c-1.42-3.49-3.09-6.83-3.09-11.29-1.39,1.86-.5,5.27-1.16,7.62-1.2-.06-.66-1.31-.78-2.1C131.35,281.71,131.27,281.92,131,282Z"/><path class="cls-9" d="M131.73,104.16c-.89,1-.13,3.07-.38,4.47v4.46C132.25,110.64,131.48,107.05,131.73,104.16Z"/><path class="cls-12" d="M131.35,178.23v2.62c.9,4.56.13,10.25.38,15.24v6.3c.3.06.45.22.39.53.9-2.89.13-6.92.39-10.25v-6.3c-.9-1.32-.14-3.76-.39-5.52v-1.31C131.05,179.66,132.42,178.11,131.35,178.23Z"/><path class="cls-10" d="M131.35,180.85v15.24h.38C131.48,191.1,132.25,185.41,131.35,180.85Z"/><path class="cls-9" d="M131.73,196.09h-.38c.25,1.84-.51,4.37.38,5.77Z"/><path class="cls-14" d="M132.12,51.64c-.89.53-.14,2.18-.39,3.15C132.62,54.25,131.87,52.61,132.12,51.64Z"/><path class="cls-11" d="M131.73,141.2c.79-.26.84-1,.78-1.84C131.4,139.4,131.8,140.45,131.73,141.2Z"/><path class="cls-9" d="M132.12,207.64h-.39c.26,1.41-.5,3.5.39,4.47v-4.47Z"/><path class="cls-9" d="M132.12,243.62c-.9,1.32-.13,3.77-.39,5.52h.39v-5.52Z"/><path class="cls-9" d="M132.51,176.92h-.39v3.93h.39v-3.93Z"/><path class="cls-10" d="M132.51,180.85h-.39c.25,1.76-.51,4.2.39,5.52Z"/><path class="cls-10" d="M132.12,209v6.83A12.39,12.39,0,0,0,132.12,209Z"/><path class="cls-10" d="M132.12,218.15v10.77a38.24,38.24,0,0,1,0,12.08v6c.87-2,.07-5.21,1.16-7.09V236C132.36,230.42,133.35,223.53,132.12,218.15Z"/><path class="cls-9" d="M132.12,228.92V241A38.24,38.24,0,0,0,132.12,228.92Z"/><path class="cls-14" d="M132.89,51.11h-.38v4.2C133.4,54.43,132.64,52.43,132.89,51.11Z"/><path class="cls-10" d="M132.51,93.92v3.15C133.15,96.62,133.15,94.38,132.51,93.92Z"/><path class="cls-7" d="M132.51,177.44v11h.38C132.64,184.88,133.41,180.59,132.51,177.44Z"/><path class="cls-9" d="M132.89,188.47h-.38v4.2h.38v-4.2Z"/><path class="cls-12" d="M132.89,69.76a10.31,10.31,0,0,0,.39,3.94c.87-.11.16-1.29.39-1.84C132.55,71.74,134,69.88,132.89,69.76Z"/><path class="cls-7" d="M133.28,109.42c-.89.71-.14,2.53-.39,3.67C133.78,112.39,133,110.56,133.28,109.42Z"/><path class="cls-7" d="M132.89,190.31v11.82h.39C133,197.76,133.91,193.85,132.89,190.31Z"/><path class="cls-9" d="M133.28,202.13h-.39c.25,1.14-.5,3,.39,3.67Z"/><path class="cls-9" d="M133.28,89.46c1.07-2.09.25-4.15,1.16-6.57-.12-3.85.23-6,0-6.56.75,1.84-2.45,9.57-1.16,12.87Z"/><path class="cls-7" d="M133.28,188.21c1.19-3.27-.45-3.83,0,0Z"/><path class="cls-9" d="M133.28,241.52v16.29c1.11,0,.71-1.1.77-1.84.88.19.16,1.47.39,2.1,1-1,1.69-4.2,2.32-6.83V240.73c-.35,3.18-2.36,5.23-1.93,8.94-.9-1.5-.13-4.12-.39-6-.51,0-.35.47-.77.53a7.26,7.26,0,0,0,0-2.63Z"/><path class="cls-7" d="M133.67,206.59c1.18-3.27-.46-3.82,0,0Z"/><path class="cls-7" d="M134.44,172.19a73.83,73.83,0,0,0,0,16.81v-4.21a1.15,1.15,0,0,1,.77-1.31v-6.83c-.29-3.68-.52,1.82-.38,3.15C133.93,177.79,134.7,174.64,134.44,172.19Z"/><path class="cls-7" d="M134.44,195.56c-.89.62-.14,2.36-.39,3.42C134.94,198.36,134.19,196.62,134.44,195.56Z"/><path class="cls-9" d="M134.44,85c.25,1.67-.51,4,.39,5.26C134.57,88.58,135.34,86.22,134.44,85Z"/><path class="cls-10" d="M135.21,152.75c-.89,1.58-.13,4.29-.38,6.31.77.71.22-3.83.38-5.26Z"/><path class="cls-12" d="M135.6,74.75h-.39C135,77.62,135.87,77.62,135.6,74.75Z"/><path class="cls-7" d="M135.6,188.47h-.39v16.81c.9-2.28.13-5.69.39-8.4Z"/><path class="cls-7" d="M135.6,117c.26,2.11-.51,4.9.39,6.57C135.73,121.5,136.5,118.7,135.6,117Z"/><path class="cls-10" d="M135.6,188.47v8.41H136v-3.16c-.08-2.2.1-5.79,0-7.88-.05-.89,0-3.71-.39-1.57C135.5,184.88,135.67,186.72,135.6,188.47Z"/><path class="cls-12" d="M136.76,75h-.39v3.68C137.27,78,136.51,76.16,136.76,75Z"/><path class="cls-7" d="M137.15,86.31c.11,4.39-2.63,12-.78,17.85.24.74.44-1.67.39-1.31C137.39,98.71,136.89,92.08,137.15,86.31Z"/><path class="cls-7" d="M136.76,105.22c-.89.62-.14,2.35-.39,3.41V112C137.27,110.29,136.51,107.41,136.76,105.22Z"/><path class="cls-11" d="M137.15,150.91a25.78,25.78,0,0,0,0,10Z"/><path class="cls-9" d="M136.76,252.82c-.3,3.44.61,6.06,1.16,8.93V251C137.11,251.3,137.67,252.56,136.76,252.82Z"/><path class="cls-10" d="M137.15,166.93v15.24c0,1.65.65,0,.38-.79.1-1.25-.28-6.43.39-4.73,1.17-3.07-.13-6.74-.39-9.72Z"/><path class="cls-9" d="M137.15,217.89v13.92c.3.05.45.22.38.52,1.15-4.54-.53-9.44,0-14.44Z"/><path class="cls-13" d="M137.15,287.48h1.16c.52-1.58-.77-1.93-.78-3.15C136.65,284.87,137.4,286.51,137.15,287.48Z"/><path class="cls-7" d="M138.31,115.46c-1,.82.13,3.07-.78,3.94.79,3.79.21,8.08.78,11.82.37,2.45.38-3.13.38-5.52C138.69,122,139,117.42,138.31,115.46Z"/><path class="cls-9" d="M137.92,247.56c1.11,0-.33,1.81.78,1.84-.14-1.74.34-3.91-.39-5.25C137.91,241,137.84,246.39,137.92,247.56Z"/><path class="cls-12" d="M138.69,75h-.38v5.78C139.2,79.39,138.44,76.85,138.69,75Z"/><path class="cls-9" d="M138.7,251.76c.49,2.91-1,7.17.77,9.2,0-1.28-.21-2.77.38-3.68,2.1.9.8-2.94,1.16-4.73-1-2.67.27-8.16-1.54-9.45.52-2.26-.91-2.09-.39-3.15C137.77,242.64,140.41,249.9,138.7,251.76Z"/><path class="cls-9" d="M139.08,81.32c1.14.62-.37,3.05.77,3.67-.2-2.75.44-6.07-.38-8.4C138.57,77.64,139.33,79.82,139.08,81.32Z"/><path class="cls-11" d="M139.47,160.89v3.94C140.52,163.18,139.42,153.5,139.47,160.89Z"/><path class="cls-9" d="M139.85,88.14c.2,1.53-.43,3.63.39,4.73.9-1.4.13-3.94.39-5.78C139.58,86.91,140.9,88.33,139.85,88.14Z"/><path class="cls-9" d="M140.63,258.07c-1.73.69.53,5.75,0,0Z"/><path class="cls-10" d="M140.24,209.75v.78c.21,1.35-.45,4.68.39,4.73C140.37,213.51,141.14,211.06,140.24,209.75Z"/><path class="cls-15" d="M140.24,287.48h3.87c.64-2.71-1.14-3.77-1.16-6-.53,0-.82,2.42-.77,3.68-.67-1.2-.83-1.09-.78.53-.86-.12-.15-1.3-.39-1.84C139.9,284.45,140.32,286.14,140.24,287.48Z"/><path class="cls-9" d="M140.63,82.63c.9,1.53.47,2.33.77,4.2.51,0,.35-.46.78-.52.25,1.49-.51,3.67.38,4.72.26-4.81-.53-8.92-1.16-13.13C139.79,78.56,141,81.13,140.63,82.63Z"/><path class="cls-11" d="M141,159.84h-.38v5.26c.89-1,.13-3.06.38-4.47Z"/><path class="cls-14" d="M141.4,51.11H141v3.94C141.91,54.26,141.15,52.34,141.4,51.11Z"/><path class="cls-9" d="M141,159.84v.79c.3.06.45.22.39.53v7.61c.88-.28.15-1.65.39-2.36.05-3.21-.08-7.62,0-10v-.53c-.3-.05-.45-.21-.39-.52.29-2-.46-4.94-.39-1.31Z"/><path class="cls-9" d="M141,244.41h.39v-4.2C140.51,241.09,141.27,243.1,141,244.41Z"/><path class="cls-10" d="M141.4,244.41H141v3.94h.39Z"/><path class="cls-9" d="M141.79,117.56c-.9,5.69-.13,12.52-.39,18.65C142.3,130.52,141.53,123.69,141.79,117.56Z"/><path class="cls-9" d="M142.56,201.86H143c.24-.71-.49-2.08.38-2.36v-4.73a6.63,6.63,0,0,1,0,5c.24,7.91-.06,14.18,0,21.8,0,2.74-.54,7.68.78,7.36v-2.11c.25-2-.52-4.72.38-6.3v-5c-.9-2-.13-5.16-.38-7.61V191.36c-1.15-.88.37-3.58-.78-4.47-1.2.05,1.38.91,0,2.11.31-.26-.74-3.55-.77-3.94-.29-4.39.23-12.28,0-15.5,1.15,1-.37,3.76.77,4.73a45.52,45.52,0,0,1,.39-9.72c-.74-.57-.24,1.92-.39,2.63-1.11-.64-.69-2.33-.77-3.68-.91,3.61-.63,7.74-.38,12.35-.89-.46-.15-2-.39-2.9-.58,7.95,1.26,19.09.77,28.63Z"/><path class="cls-11" d="M141.79,207.91v3.67A3.75,3.75,0,0,0,141.79,207.91Z"/><path class="cls-14" d="M142.56,51.11h-.38v3.42C143.06,53.91,142.31,52.17,142.56,51.11Z"/><path class="cls-9" d="M143,93.4h-.39v6.3C143.46,98.12,142.69,95.41,143,93.4Z"/><path class="cls-10" d="M143,201.86h-.39v4.21H143Z"/><path class="cls-9" d="M143,206.07h-.39v12.34C143.46,214.82,142.69,210.1,143,206.07Z"/><path class="cls-9" d="M143,86h.38V77.9C142.44,80.09,143.2,83.42,143,86Z"/><path class="cls-9" d="M143.33,101.28c-.89,1.49-.13,4.11-.38,6v18.91C143.85,118.43,143.08,109.51,143.33,101.28Z"/><path class="cls-9" d="M143.72,86.31h-.39c.25,1-.5,2.61.39,3.15V86.31Z"/><path class="cls-10" d="M143.33,199.5v.26a6.63,6.63,0,0,0,0-5Z"/><path class="cls-12" d="M144.11,88.67h-.39v6h.39Z"/><path class="cls-10" d="M144.11,94.71h-.39v13.13c.9-3.68.13-8.49.39-12.6Z"/><path class="cls-9" d="M143.72,107.84c0,4.53-.24,9.27.77,13.13V95.24h-.38C143.85,99.35,144.62,104.16,143.72,107.84Z"/><path class="cls-11" d="M144.11,134.89c.25-1.4-.51-3.49.38-4.46V126C143.72,128.33,143.25,132.3,144.11,134.89Z"/><path class="cls-9" d="M144.11,171.93a6.63,6.63,0,0,0,0,5Z"/><path class="cls-9" d="M144.11,178.49c-.67,1.68-.62,6.54,0,7.35Z"/><path class="cls-10" d="M144.49,61.09c-.9,3.59-.13,8.32-.38,12.35h.38V61.09Z"/><path class="cls-9" d="M144.49,73.44h-.38V80h.38Z"/><path class="cls-7" d="M144.49,80h-.38V95.24h.38V80Z"/><path class="cls-11" d="M144.49,197.93h-.38v10h.38Z"/><path class="cls-7" d="M144.49,207.91h-.38c.25,2.45-.52,5.6.38,7.61v-7.61Z"/><path class="cls-7" d="M144.49,220.51c-.9,1.58-.13,4.29-.38,6.3h.38Z"/><path class="cls-7" d="M144.49,247.3h-.38v10h.38Z"/><path class="cls-9" d="M144.49,257.28h-.38c.25,2-.52,4.72.38,6.3Z"/><path class="cls-12" d="M144.49,272.51h-.38V277h.38v-4.47Z"/><path class="cls-16" d="M144.49,277h-.38c.25,1.14-.51,3,.38,3.68Z"/><path class="cls-17" d="M144.88,51.11h-.39V62.67h.39Z"/><path class="cls-15" d="M144.88,62.67h-.39V90h.39Z"/><path class="cls-14" d="M144.88,90h-.39v28.89h.39Z"/><path class="cls-15" d="M144.88,118.87h-.39v16.55h.39Z"/><path class="cls-14" d="M144.88,135.42h-.39v76.69h.39Z"/><path class="cls-15" d="M144.88,212.11h-.39v29.68h.39Z"/><path class="cls-15" d="M144.88,245.73h-.39v29.15h.39Z"/><path class="cls-17" d="M144.88,274.88h-.39v12.6h.39Z"/><path class="cls-9" d="M131.73,89.72c.26-1.67-.51-4,.39-5.25,1.3,1.48-.76,5.24,1.16,6.3-.22,12.56.5,24.28.77,37-1.32,1.32.31,8.72,0,8.93,1.22-.82-.94-4.39,0-5.25.38,7.1,1.37,13.78,1.16,21.27-.89,1.58-.13,4.29-.38,6.31.77.71.22-3.83.38-5.26a10.06,10.06,0,0,1,.78,7.36c-.63,2.2-.66,8.48,0,11.55,0,.16,0,.31.38.26.32-1.22-.74-5.45.78-4.2v13.4c0,1.65.65,0,.38-.79.1-1.25-.28-6.43.39-4.73,1.17-3.07-.13-6.74-.39-9.72h-.38v-16c.73-6.74-1.8-14-.39-19.43.93,2.17-.22,5.75.77,7.88-.25-8.14.73-17.13-1.16-24.16-.62,3.76,1.08,8.7-.38,11.29V123.6c-.26-2.1.51-4.9-.39-6.57v-.78c.28-7.94-.73-13.47-.77-21.28.71-1.48.38-4.09.38-6,0-1.19,0-5.15.39-3.41.61,3-.76,5.88.39,10.5.3-3.47-.74-7.85.77-10.5.25-1.67-.51-4,.39-5.25.25,1.75-.51,4.19.38,5.51.08-1.35-.34-3,.78-3.68.16,1.12-.49,4.88.77,2.89v9.46c.27,1.48-.4,4.3-.39,1.31,0-.66,0-1.5,0-2.36-.07-4.36-.23-.25-.77.52-.25-1.32.51-3.32-.39-4.2.17,7.13-.29,14,.39,20.22,1-3.18-.3-7.91,1.16-10.76.44,5.72-.07,13,.77,19.17.2-3.81-.43-8.18.39-11.56-.17-1.74.17-8.08.39-3.41-.34,10.65.51,21.88,0,31.78-.22-.46.47-1.55-.39-1.58.85,8.27.17,17.57.39,26.26v5.26c0,15.07,1.67,27.92,1.16,42.81v.78c-.8-.51-1.1.25-1.16.53-.71,3.06,1.19,9.62,0,12.87v3.15c-.89-.45-.14-2-.39-2.89-.25-2,.51-4.72-.39-6.3.5,1.63-.59,3-.38,3.41-1.21-2.46.89-9.49,0-12.6-.12-2.72.08-5.87.38-3.42.15,1.17-.4,5.95.39,7.09.21,1.35-.45,4.68.39,4.73-.26-1.75.51-4.2-.39-5.51V197.4a2.73,2.73,0,0,0,0-2.1c.9-2.28.13-5.69.39-8.41.43-2,.44,1.6.38,2.37.26,1.32-.5,3.32.39,4.2a59.54,59.54,0,0,0-1.16-14.18c-.24.63.49,1.9-.39,2.1.09-13.47,1.24-28.26-.38-41.23-.26,2,.51,4.72-.39,6.3-.29-2.94.26-8.93-.77-12.87.4,9.82-1.8,19.26-.39,28.89.25-1.23-.5-3.14.39-3.94.23.54-.48,1.73.38,1.84v-9.19c1.16,2.63-.38,7.09.78,9.71v10c0,1.58.28,5.35-.39,4.72-.09-.2,0-.52-.39-.52-.69,3.38.08,7.75-.77,11-.06-.31.07-.75-.39-.79-.25,1.58.51,3.85-.38,5-.3-1.46-.13-3.24-.78-4.47-.25,2.55.52,5.78-.38,7.88-.08-2.2.1-5.79,0-7.88-.05-.89,0-3.71-.39-1.57-.1.61.07,2.45,0,4.2h-.39V176.65c-.29-3.68-.52,1.82-.38,3.15-.9-2-.13-5.16-.39-7.61v-4.73c.2-7.27.16-18.68-.77-26.53-.18-1.49-.36-8.34-1.16-3.67V97.07c.64-.45.64-2.69,0-3.15V91.3c-1.44,1.53.06,6.47-1.55,8.66V74.22C132.12,78.78,130.58,85.17,131.73,89.72Zm5.42-3.41c.11,4.39-2.63,12-.78,17.85.24.74.44-1.67.39-1.31C137.39,98.71,136.89,92.08,137.15,86.31Zm-3.87,23.11c-.89.71-.14,2.53-.39,3.67C133.78,112.39,133,110.56,133.28,109.42Zm3.48-4.2c-.89.62-.14,2.35-.39,3.41V112C137.27,110.29,136.51,107.41,136.76,105.22Zm1.55,10.24c-1,.82.13,3.07-.78,3.94.79,3.79.21,8.08.78,11.82.37,2.45.38-3.13.38-5.52C138.69,122,139,117.42,138.31,115.46Z"/><path class="cls-11" d="M131,114.41v6.83a35,35,0,0,1,0,11.55v29.94c.84.05.17-.93.39-1.31,1.05,1.18-.33,2.42.38,3.68.91-4.91.13-10.95.39-16.29-2.14,1.46,1.72,3.56-.39,5,.11-.07-.38-7.49-.38-8.66v-8.93c1.29.34-.74,2.95,1.16,2.89v-6C131.88,126.92,131.82,120.39,131,114.41Z"/><path class="cls-11" d="M131,208.43v15.5c.66.22.62.94.77,0C132.18,221.15,130.92,212.54,131,208.43Z"/><path class="cls-18" d="M132.12,247v19.7h.39c-.3-1.43.47-2.13.38-3.42.9.62.14,2.36.39,3.42.88.36.15,1.82.39,2.62v2.37c1-2.11.42-.45,1.16.78.8-.06.1-1.15.77-1.31.65.52.42,1.64.77,2.37.68-.07.89-.46.78-1.06.71.57.42,1.82,1.16,2.37.86-.73.8-2.08.77-3.42,1,.3-.15,2,.77,2.37.43-.13.09-1.47,1.16-1.84.76.95-.51,2.06.78,2.36,1.51-1.25-.2-4.45.39-7.35,1,1.22-.23,4,.77,5.25.58,2.45.2-3.54,1.16-4.2-.25-1.23.5-3.15-.39-3.94-.12,1.06-.27,2.09-1.16,2.63a20,20,0,0,0-.77-6.83v6.56c0,1.67,0,6.35-.39,3.15-.08-1.34.34-3-.77-3.67-.21,1.43.11,3.22-1.16,3.94-.21-.38.45-1.36-.39-1.32a2.11,2.11,0,0,1-.77,2.11c-1.13-.73-.73-2.49-.78-3.94-.42.06-.26.52-.77.52-.22-.46.47-1.54-.39-1.57,0,.41.19,1-.38,1.05-.24-.72.49-2.09-.39-2.37a7.27,7.27,0,0,1-1.16,2.89c-.24-.8.5-2.26-.39-2.62-.07.49.26,2.59-.38,1.83.16-3.08-.69-5.48-.39-8.66V240C132.19,241.83,133,245,132.12,247Z"/><path class="cls-19" d="M131,244.67V222.35a36.62,36.62,0,0,1,0-11.82v-3.15a5.42,5.42,0,0,1,0-4.46v-.53a294.59,294.59,0,0,1,0-33.62v-8.14c-.64-24.77-.64-51.39,0-76.16V51.11h-.77V287.48H131V244.67Z"/><path class="cls-10" d="M134.05,131.48c.37-.57-.23-2.36,0-3.68-1.32,1.32.31,8.72,0,8.93C135.27,135.91,133.11,132.34,134.05,131.48Z"/><path class="cls-14" d="M136.76,51.11h-1.55v8.67c-.2,1.41.27,6.92.39,2.63.06-2.07.5-4.45.39-6.83.85,0,.16,1.11.38,1.57C137.27,55.66,136.51,53,136.76,51.11Z"/><path class="cls-9" d="M135.21,208.43c.88,5.18-1,10.63,0,16.28.66-8.89,1.35-19,.78-27.83h-.39c-.26,2.71.51,6.12-.39,8.4Z"/><path class="cls-10" d="M136,172.71c.06-4.73.36-7.41,0-11.55C135.36,163.36,135.33,169.64,136,172.71Z"/><path class="cls-20" d="M141,55.05c.9-.79.14-2.71.39-3.94h.78v3.42c.88-.62.13-2.36.38-3.42h.77c.26,4.64-.51,10,.39,14.19-.08-4.88.68-9.17.39-14.19h.38v10c-.9,3.59-.13,8.32-.38,12.35V88.67h-.39V86.31c-.16-6.29.4-13.06-1.16-18.39-.25,1.41.51,3.5-.38,4.47-.62-1.77.1-4.45-1.17-5.78-1.83,1.28,1.2,6.81-.38,7.88.9-.62-.94-7.54-1.55-7.36a55.83,55.83,0,0,1-.39,7.88h-.38c-.82-2.05,1.35-5.66-.39-6.3.32.12-.28,1.22-.39,1.05-.56-.84.52-2.11-.77-2.1V75h-.39c-.25-2.54.52-5.77-.38-7.88.29,2.83-.45,5-.39,7.62h-.39c-.6-3.7-.65-7.79-1.16-11.56-.05,3-.63,5.52-.38,8.67-1.12-.12.34-2-.78-2.1-.22-1.77.6-4.26-.77-5.25-.18.94.41,3.76-.39,3.41,0-1.59.11-3.22-.77-4.2V51.11h1.55v4.2c.89-.88.13-2.88.38-4.2h2.32v8.67c-.2,1.41.27,6.92.39,2.63.06-2.07.5-4.45.39-6.83.85,0,.16,1.11.38,1.57.9-1.49.14-4.11.39-6H141Zm-8.89-3.41c-.89.53-.14,2.18-.39,3.15C132.62,54.25,131.87,52.61,132.12,51.64Z"/><path class="cls-12" d="M142.56,91V93.4H143V86c.25-2.62-.51-6,.38-8.14v8.41h.39c-.16-6.29.4-13.06-1.16-18.39-.25,1.41.51,3.5-.38,4.47-.62-1.77.1-4.45-1.17-5.78-1.83,1.28,1.2,6.81-.38,7.88.9-.62-.94-7.54-1.55-7.36a55.83,55.83,0,0,1-.39,7.88c-.25,1.84.51,4.38-.38,5.78V75c-.82-2.05,1.35-5.66-.39-6.3.32.12-.28,1.22-.39,1.05-.56-.84.52-2.11-.77-2.1V75c-.25,1.15.51,3-.39,3.68V75c-.25-2.54.52-5.77-.38-7.88.29,2.83-.45,5-.39,7.62.27,2.87-.65,2.87-.39,0-.6-3.7-.65-7.79-1.16-11.56-.05,3-.63,5.52-.38,8.67-.23.55.48,1.73-.39,1.84a10.31,10.31,0,0,1-.39-3.94c-.22-1.77.6-4.26-.77-5.25-.18.94.41,3.76-.39,3.41,0-1.59.11-3.22-.77-4.2v10.5c1.16,4.56-.38,11,.77,15.5.26-1.67-.51-4,.39-5.25,1.3,1.48-.76,5.24,1.16,6.3V89.2c-1.29-3.3,1.91-11,1.16-12.87.23.55-.12,2.71,0,6.56V85c.9,1.23.13,3.59.39,5.26V95c.71-1.48.38-4.09.38-6,0-1.19,0-5.15.39-3.41.61,3-.76,5.88.39,10.5.3-3.47-.74-7.85.77-10.5.25-1.67-.51-4,.39-5.25.25,1.75-.51,4.19.38,5.51.08-1.35-.34-3,.78-3.68.16,1.12-.49,4.88.77,2.89V81.32c.25-1.5-.51-3.68.39-4.73.82,2.33.18,5.65.38,8.4v3.15c1.05.19-.27-1.23.78-1V82.63c.38-1.5-.84-4.07.77-4.73C142,82.11,142.82,86.22,142.56,91Z"/><path class="cls-10" d="M143.33,186.89v-12.6c-1.14-1,.38-3.76-.77-4.73.23,3.22-.29,11.11,0,15.5,0,.39,1.08,3.68.77,3.94C144.71,187.8,142.13,186.94,143.33,186.89Z"/><path class="cls-14" d="M144.11,51.11h-.78c.26,4.64-.51,10,.39,14.19C143.64,60.42,144.4,56.13,144.11,51.11Z"/><path class="cls-11" d="M144.11,178.49v7.35h.38V166.93h-.38v11.56Z"/><path class="cls-7" d="M144.49,185.84h-.38c-.62-.81-.67-5.67,0-7.35v-1.57a6.63,6.63,0,0,1,0-5V155.12c-1.75.91-.3,4-.78,5.77-1.21.16.78-5.35-1.54-4.46-.08,2.36.05,6.77,0,10-.24.71.49,2.08-.39,2.36v-7.61c.06-.31-.09-.47-.39-.53-.25,1.41.51,3.5-.38,4.47,0,15.07,1.67,27.92,1.16,42.81a3.75,3.75,0,0,1,0,3.67c1.28,10.52,0,22.21.39,33.88,0,.7-.3,4.07.38,2.1V245.2a21.08,21.08,0,0,0,.39-5.78c.89,1,.13,3.06.38,4.47,0,.43-.21,2.38.39,1.57.26-4.2-.51-9.1.39-12.87v-3.67c-1.32.32-.75-4.62-.78-7.36-.06-7.62.24-13.89,0-21.8v-.26c-.87.28-.14,1.65-.38,2.36v4.21c-.26,4,.51,8.75-.39,12.34V201.6c.49-9.54-1.35-20.68-.77-28.63.24.89-.5,2.44.39,2.9-.25-4.61-.53-8.74.38-12.35.08,1.35-.34,3,.77,3.68.15-.71-.35-3.2.39-2.63a45.52,45.52,0,0,0-.39,9.72v12.6c1.15.89-.37,3.59.78,4.47.25-1.4-.51-3.5.38-4.47Z"/><path class="cls-8" d="M144.11,191.36v6.57h.38v-11C143.6,187.86,144.36,190,144.11,191.36Z"/><path class="cls-11" d="M144.11,232.59V247.3h.38V226.81h-.38v5.78Z"/><path class="cls-14" d="M144.49,241.79v3.94h.39v-3.94Z"/><path class="cls-7" d="M131.35,161.42c1.05,1.18-.33,2.42.38,3.68.91-4.91.13-10.95.39-16.29-2.14,1.46,1.72,3.56-.39,5,.11-.07-.38-7.49-.38-8.66v-8.93c1.29.34-.74,2.95,1.16,2.89v-1.84c.8-4.67,1,2.18,1.16,3.67.93,7.85,1,19.26.77,26.53-1.42-8.4-.16-18.62-1.55-27.05-.63,12.07-.51,24.58-.38,36.51h-.39v-3.68a17.74,17.74,0,0,0-.77-6H131v-4.47C131.8,162.78,131.13,161.8,131.35,161.42Zm.38-20.22c.79-.26.84-1,.78-1.84C131.4,139.4,131.8,140.45,131.73,141.2Z"/><path class="cls-9" d="M141.4,248.35H141v2.37c1.16,1.75-.38,5.33.78,7.09v-5c1.14.79-.37,3.4.77,4.2,0-1.26,0-2.47.77-3.15.23.54-.47,1.72.39,1.83.26-2-.51-4.72.39-6.3V232.59c-.9,3.77-.13,8.67-.39,12.87-.6.81-.34-1.14-.39-1.57-.25-1.41.51-3.5-.38-4.47a21.08,21.08,0,0,1-.39,5.78v2.36c-.68,2-.36-1.4-.38-2.1-.44-11.67.89-23.36-.39-33.88v-.26c-.46,2.55-1.06,8.71.39,10-.91,7-.13,15.15-.39,22.59C141.84,245.32,141.84,252.13,141.4,248.35Z"/><path class="cls-10" d="M131.73,202.39v5.25h.39c.23-.54-.48-1.72.39-1.84,1.09,2.5-.34,6.71.77,9.2v-9.2c-.89-.7-.14-2.53-.39-3.67v-9.46h-.38c-.26,3.33.51,7.36-.39,10.25C132.18,202.61,132,202.45,131.73,202.39Z"/><path class="cls-20" d="M131,273.3V282c.31-.05.39-.26.77-.26.12.79-.42,2,.78,2.1.66-2.35-.23-5.76,1.16-7.62,0,4.46,1.67,7.8,3.09,11.29h.39c.25-1-.5-2.61.38-3.15,0,1.22,1.3,1.57.78,3.15h1.93c.08-1.34-.34-3,.77-3.67.24.54-.47,1.72.39,1.84-.05-1.62.11-1.73.78-.53-.05-1.26.24-3.67.77-3.68,0,2.27,1.8,3.33,1.16,6h.38v-6.82c-.89-.71-.13-2.54-.38-3.68v-2.36a4.53,4.53,0,0,0-.78,3.15c-.57-.4-.62-1.16-.77-1.84-.89.88-.13,2.88-.38,4.2-.53-.08-.33-.66-.39-1.05-.84,0-.18.93-.39,1.31-.76-.36-.21-1.61-.77-2.1-.84,0-.18.93-.39,1.32-.84,0-.83-.67-.77-1.32-.59-.46-.37,1.84-.77,2.37-.83-.67-.45-2.15-1.17-2.89-.55.06-.13.78-.77.79-.8-.69-.82-1.9-.77-3.16-.85,0-.83.66-.78,1.32-1.11-.65-.69-2.33-.77-3.68-.91,1.55-.79-.14-.77-1.31v-2.37c-.88-.36-.15-1.82-.39-2.62-.25-1.06.51-2.8-.39-3.42.09,1.29-.68,2-.38,3.42-.25.88.5,2.44-.39,2.88-.19,1.11.43,4.14-.39,3.95-.24-.8.5-2.27-.38-2.63C131.11,271.65,131.84,273,131,273.3Z"/></g><rect class="cls-21" x="12.55" y="168.75" width="236.37" height="1.1" transform="translate(300.03 38.56) rotate(90)"/><path class="cls-22" d="M265.52,12.44a1477.22,1477.22,0,0,0-247.44,0c-1.66.14-3.44,1.88-4,3.89A266.94,266.94,0,0,0,8.39,44.87c-.29,2,.92,3.58,2.67,3.51q14.49-.54,29-1c4.17-.12,3.44,6.94-.43,7q-14.66.33-29.3.77a4,4,0,0,0-3.53,3.73,250.16,250.16,0,0,0,.47,48.56,4.11,4.11,0,0,0,3.59,3.75q10.89.39,21.78.71c3,.08,4.09,3.65,3.13,5.65-1.21,2.5-2.79.83-24,.46-1.74-.08-2.92,1.49-2.59,3.49a270.35,270.35,0,0,0,5.74,26.53c.54,2,2.34,3.76,4,3.9a1398.18,1398.18,0,0,0,245.87,0c1.64-.14,3.44-1.89,4-3.9a266.87,266.87,0,0,0,5.74-26.53c.33-2-.84-3.57-2.58-3.49l-1.51.06c-2.2.1-2.88-2.11-2.32-4,1-3.4,4.36-2.72,4.72-2.84a4.11,4.11,0,0,0,3.59-3.75q.73-6.93,1.1-13.86A3.21,3.21,0,0,0,274.4,90l-20,.19c-4.25,0-3.94-7,0-7l20.24,0a3.46,3.46,0,0,0,3.23-3.64,257.59,257.59,0,0,0-8.3-63.25C269,14.32,267.17,12.58,265.52,12.44Z"/><path class="cls-5" d="M67.66,49.18A87,87,0,0,0,43.2,46c.16,1.91-1,4.2-3.25,4.26q-14.61.39-29.22.89a4,4,0,0,0-3.56,3.64A251,251,0,0,0,6.71,102a3.91,3.91,0,0,0,3.52,3.62q10.93.31,21.87.58c3,.06,4,3.53,3,5.48,77.79,6.86,155.28,3.08,233.55-3.32a3.5,3.5,0,0,1,3.32-2.7l1.36,0a3.9,3.9,0,0,0,3.51-3.62q.57-6.75.78-13.48A3.27,3.27,0,0,0,274.53,85q-10,.06-20.07.09c-4.25,0-4.05-6.78-.15-6.77l20.24.06a3.31,3.31,0,0,0,3.16-3.53,253.52,253.52,0,0,0-2.3-28.51,330.57,330.57,0,0,0-33.77,3.47C184.24,58.8,126.27,63.53,67.66,49.18Z"/><path class="cls-23" d="M191.71,84.65h-.51l-1.23,0h0l-18-.34h0l18,.34h0l1.23,0H192c17.54.27,22,.52-111.61-2.23-23.3-3.81-49.72-6-74.6-3.11Q5.74,90.65,6.71,102a4.16,4.16,0,0,0,.34,1.3A131.31,131.31,0,0,0,58.82,98.6C94.71,88,221.76,100.74,275.7,104.51a4.13,4.13,0,0,0,1.18-2.54q.57-6.75.78-13.48a3.56,3.56,0,0,0-.89-2.51c-42.37-.54-68.91-1-84.74-1.32Z"/><path class="cls-24" d="M95.05,54.5q-3-.45-6-1c-14.88,2.59-53.34,1.62-81.84,1a1.37,1.37,0,0,0,0,.19c-.09.86-.18,1.71-.26,2.56,19,.47,39.72.89,54.88.67C83.56,57.65,91.79,56.09,95.05,54.5Z"/><path class="cls-24" d="M276.12,52c-7.49-1-16.76-2.21-26.45-3.31-2.68.35-5.35.72-8,1.1l-3.33.5C252,51.66,266,53.39,276.43,54.74,276.33,53.82,276.23,52.91,276.12,52Z"/><path class="cls-24" d="M205,54.76q-4,.45-8,.87c17.21,4.69,52.69,7.16,80.28,8.59-.06-.92-.12-1.83-.19-2.74C249.88,59.94,221.91,57.74,205,54.76Z"/><path class="cls-24" d="M191.71,84.65h0Z"/><path class="cls-24" d="M171.92,84.28Z"/><path class="cls-24" d="M171.92,84.28h0Z"/><path class="cls-24" d="M171.66,84.28h0Z"/><path class="cls-24" d="M171.61,84.28h0Z"/><path class="cls-24" d="M5.86,75.75c0,1.19,0,2.38,0,3.57,24.88-2.89,51.3-.7,74.6,3.11,133.63,2.75,129.15,2.5,111.61,2.23,15.83.28,42.37.78,84.74,1.32a3,3,0,0,0-2.24-1q-10,.06-20.07.09a3.1,3.1,0,0,1-3.13-3.39c-57-3-115.24-4.71-170.54-5.14C57.06,73.14,30.73,71.71,5.86,75.75Z"/><path class="cls-24" d="M171.55,84.28h0Z"/><path class="cls-24" d="M171.67,84.28h0Z"/><path class="cls-24" d="M192,84.66h0Z"/><path class="cls-24" d="M191.2,84.64l-1.23,0Z"/><path class="cls-24" d="M190,84.62h0Z"/><path class="cls-24" d="M190,84.62l-18-.34Z"/><path class="cls-24" d="M238.2,71c-20.79,2.59-77.33-8.9-110.07-12.3-20.6-2.24-84.82,4.29-122,8.81,0,.94-.1,1.88-.14,2.81,184.73-10,81.84-5.39,202.3,4.85C246,78.34,246.65,71,277.67,73.54q0-1.4-.09-2.79C264.13,69.16,250.81,68.87,238.2,71Z"/><path class="cls-24" d="M58.82,98.6a131.13,131.13,0,0,1-51.77,4.67,4.22,4.22,0,0,0,1,1.44A131.49,131.49,0,0,0,59.18,100c35-10.29,157.85,1.8,213.2,5.65l1,0a3.44,3.44,0,0,0,2.33-1.08C221.76,100.74,94.71,88,58.82,98.6Z"/><path class="cls-24" d="M200.38,111.76a1.27,1.27,0,0,0-.31-1.29c-4.68-5.06-31-6.2-32.45-6.28-4.67-.59-45.22-6.12-48.56-.29-3.89,7,26.92,10.07,50.65,10.54q14.29-.51,28.6-1.28C199.89,112.7,200.23,112.21,200.38,111.76Zm-80.27-6.3c-2.89-6.36,41.41-.58,47.37.18,5.81.27,27.24,1.65,31.6,5.78C193.53,115.27,123.4,112.66,120.11,105.46Z"/><path class="cls-22" d="M275.43,46.42c-33.59,2.84-52.72,9.79-116,12.36-18.08,1.16-32.91.19-48-1-42.7-5-46.83-11-68.25-11.76l0-.23c25.91-1.21,45.64,12.43,116.23,11.66C205,57.39,240,46.09,275.38,46.2,275.4,46.27,275.41,46.35,275.43,46.42Z"/><path class="cls-5" d="M264.73,9.53a1398.18,1398.18,0,0,0-245.87,0c-1.64.14-3.42,1.85-3.95,3.8A266.77,266.77,0,0,0,9,41.08c-.31,2,.88,3.46,2.62,3.39q14.43-.6,28.86-1.08A2.55,2.55,0,0,1,43.2,46a87,87,0,0,1,24.46,3.23c58.61,14.35,116.58,9.62,174,.6a330.57,330.57,0,0,1,33.77-3.47,265.7,265.7,0,0,0-6.73-33C268.16,11.38,266.37,9.67,264.73,9.53Z"/><path class="cls-25" d="M176.53,25.15c-.11,0-8.76-3.2-9.3-3.4h0C125.88,4.66,84.56,33.23,11.73,26.37q-.46,2.16-.9,4.32c23,1.25,81.36,7.14,96,4.52,14.31-3.35,116.32,5.26,167.43,3.4Q272.1,26,268.68,13.33a4.48,4.48,0,0,0-.16-.52C241.9,22.92,206.38,34.58,176.53,25.15Z"/><path class="cls-24" d="M16.52,10.7a5.74,5.74,0,0,0-1.61,2.63c-.31,1.14-.61,2.29-.9,3.43,63,7.42,89.53-17.6,133.73-8.27,38.52,8.57,46.31,13.72,66.81-2.48l-8.06-.4c-14.81,9.82-22.52,5.68-51.31-1.43q-31.05-.3-62.11.79C74.6,9.19,52.06,13.18,16.52,10.7Z"/><path class="cls-24" d="M167.23,21.75Z"/><path class="cls-24" d="M176.85,23a146.52,146.52,0,0,0-27.95-8.21l-4.72-.53C108.44,10.9,74.67,31,12.05,24.92c-.11.49-.21,1-.32,1.45,72.83,6.86,114.15-21.7,155.5-4.62.54.2,9.19,3.37,9.3,3.4,29.85,9.43,65.37-2.23,92-12.34a5.9,5.9,0,0,0-1.58-2.22C240.09,20.92,205.81,32.1,176.85,23Z"/><path class="cls-24" d="M167.22,21.74Z"/><path class="cls-24" d="M97.34,52.16c.32-.95.34-2.41-1.41-4C86.19,39.22,41,38.37,9.16,39.84c-.06.41-.13.82-.2,1.24A3.72,3.72,0,0,0,9,42.58c33.87-1.4,81.67-.26,86,8.68-.67,1-2.79,1.71-6,2.28q3,.51,6,1A3.67,3.67,0,0,0,97.34,52.16Z"/><path class="cls-24" d="M106.8,35.21c-14.61,2.62-72.95-3.27-96-4.52-.18.91-.36,1.81-.53,2.72C33.75,34.8,92,40.77,107,38.07c14.31-3.28,115.56,5.45,167.62,3.22-.14-.89-.28-1.78-.43-2.68C223.12,40.47,121.11,31.86,106.8,35.21Z"/><path class="cls-24" d="M186.83,48.32c-1.2,2.9,2.82,5.31,10.12,7.31q4-.42,8-.87c-8.6-1.52-14.37-3.24-15.81-5.19,3.2-2.94,25.74-1.68,49.16.71l3.33-.5c2.68-.38,5.35-.75,8-1.1C221.08,45.38,189,43.18,186.83,48.32Z"/><path class="cls-5" d="M272.64,112.22l-1.52,0c-2.2.09-2.95-2.06-2.43-3.94-78.27,6.4-155.76,10.18-233.55,3.32a2.33,2.33,0,0,1-2.27,1.3q-11-.33-21.92-.73a2.75,2.75,0,0,0-2.7,3.41q1.8,12.9,4.93,25.8a5,5,0,0,0,3.9,3.77,1590.38,1590.38,0,0,0,249.43,0,5,5,0,0,0,3.91-3.77q3.12-12.9,4.93-25.8A2.76,2.76,0,0,0,272.64,112.22Z"/><path class="cls-25" d="M47.52,134c11.57,3,31.2,18.83,43.26,11.75,27.73-15.78,99.64-4,141.38,1.8q14.63-.84,29.23-1.93c-17.64-3.63-49.41-10.81-61.3-9.45-17.33,2.55-75.66-7.59-84.58-7.91-8.59-.07-24.16,9.07-38.45,9.41-14.81.33-13.36-9-23.26-10.85-5.16-1-25.18.06-43.58.87.45,2.42.94,4.83,1.46,7.25C25.49,133.7,41.55,132.42,47.52,134Z"/><path class="cls-24" d="M132.82,123c15.84,3.72,33.91,8.12,48.83,4-1.85-.28,24.09-10.52,90.17,8.31.1-.5.21-1,.32-1.49-66.11-20-89.26-10.08-93-9-25.16,3.69-39.85-5.33-64.67-8.6-16-2.15-70.92-.65-106,.37.12.85.24,1.7.38,2.56C107.57,117.76,112.27,117.67,132.82,123Z"/><path class="cls-24" d="M193.71,114a29.14,29.14,0,0,0,4.6-.79q-14.31.77-28.6,1.28A225,225,0,0,0,193.71,114Z"/><path class="cls-24" d="M47.5,135.34c3.41.9,7.77,3,12.34,5.32,27.3,13.77,25.54,7.45,39.82,3,13.86-4.85,43.75-7.89,124.57,4.35l7.93-.43c-41.74-5.83-113.65-17.58-141.38-1.8-12.06,7.08-31.69-8.8-43.26-11.75-6-1.56-22-.28-35.84.94.1.46.2.92.31,1.38C25.72,135.1,41.72,133.82,47.5,135.34Z"/><path class="cls-24" d="M53.8,126.8c9.9,1.9,8.45,11.18,23.26,10.85,14.29-.34,29.86-9.48,38.45-9.41,8.92.32,67.25,10.46,84.58,7.91,11.89-1.36,43.66,5.82,61.3,9.45l5.12-.4a3.87,3.87,0,0,0,2.16-1c-15.78-3.21-54.48-12.43-68.53-10.91-11.26,1.46-39.6-2-60.71-5-26.56-3.75-24.37-4.4-40.06,1.07-40,13.67-30.13-2.6-45.55-5.37-5.39-1-25.55.06-44.1.93.16.9.33,1.8.5,2.71C28.62,126.86,48.64,125.81,53.8,126.8Z"/><path class="cls-22" d="M268.69,108.44C194,115.28,105.85,120.6,35.14,111.76c0-.07,0-.15,0-.22,93.41,4.55,141,3.13,233.57-3.32Z"/><path class="cls-24" d="M147.83,26.62c0,1.73-5.83,3.1-13.06,3.12s-13.05-1.31-13-3,5.9-3.18,13.05-3.2S147.81,24.9,147.83,26.62Z"/><path class="cls-26" d="M40,50.21q-14.61.39-29.22.89a4,4,0,0,0-3.56,3.64A251.48,251.48,0,0,0,6,90c28.53,13.37,70,23.55,115.07,23.79,54.36.35,103.38-14.06,130.31-32.58a3,3,0,0,1,2.95-2.89h.95C266.54,69.4,272.4,59.6,271.1,49c-1.81-15-17.62-29.53-39.72-42A1398.88,1398.88,0,0,0,18.86,9.53c-1.64.14-3.42,1.85-3.95,3.8A266.77,266.77,0,0,0,9,41.08c-.31,2,.88,3.46,2.62,3.39q14.43-.6,28.86-1.08A2.55,2.55,0,0,1,43.2,46C43.36,47.86,42.17,50.15,40,50.21Z"/><ellipse class="cls-2" cx="131.13" cy="301.57" rx="64.16" ry="12.5"/><path class="cls-27" d="M84.46,301.57s-10.89-27.46,0-46.39c0,0-2.36,17.51,4.26,20.82,0,0,3.79-23.66-2.36-34.55,0,0,9.94,14.67,9.94,26,0,0,.94-15.62,6.15-19.41,0,0-4.73,27.46,2.84,31.72,0,0,4.73-7.1,3.31-18,0,0,6.63,10.42,3.79,18.46,0,0,10.42-20.35,2.37-38.81,0,0,10.84,16.57,3,36,0,0,9.26-8.52,7.84-25.08,0,0,7.57,18,3.31,26.5,0,0,3.79-8,3.31-25.56s4.74-27,11.84-28.4c0,0-9.94,15.15-4.26,27s4.26,27.93,4.26,27.93,9-16.09,3.31-29.82c0,0,8.05,19.41,5.21,27,0,0,1.65-26,11.71-34.08,0,0-10.06,25.09,0,34.55,0,0,6.75-6.62,5.8-19.88,0,0,5.21,18,2.84,28.88,0,0,3.32-34.08,27-29.35,0,0-25.57,4.74-18.47,44.5Z"/><path class="cls-28" d="M181.19,278.88h0c-9.64,17.1-96.71,22.7-96.71,22.7h97C179.83,292.18,180,284.76,181.19,278.88Z"/><path class="cls-2" d="M65.91,300.57c0,2.33-8.71,4.22-19.46,4.22S27,302.9,27,300.57s8.72-4.22,19.46-4.22S65.91,298.24,65.91,300.57Z"/><path class="cls-29" d="M57.22,205.58S54.37,188.79,58.27,190s5.82,8.8,5.82,8.8S69,189.23,73,192.32s.73,10.48.73,10.48,7.5-2,9.62.46-13.78,9.24-13.78,9.24Z"/><path class="cls-30" d="M57.2,205.26S45,198.59,56.49,200c0,0,3.36-5.74,6.32,1.39,0,0,6.33-3.21,5,3.68,0,0,7.72-2.32,4.49,4.45,0,0,3.5,3.07,2.49,4.36s-5.17-1.36-5.17-1.36L63.63,212l-6.5-6.45"/><path class="cls-31" d="M59.13,216.61s-4.7-2.93-1.93-11.35c0,0,8.91,1.11,12.37,7.24,0,0-.83,4.9-9.36,4.73Z"/><path class="cls-31" d="M44.14,300.55C44,300,29.36,242.38,58.07,213.07l2.86,3.79c-28.07,28.65-15.29,82.75-15.15,83.29Z"/><path class="cls-31" d="M48.63,233.94s11.59-9.95,20.94-4.11C69.57,229.83,57,242.93,48.63,233.94Z"/><path class="cls-31" d="M41.37,250.64s.47-15.28-10.26-16.39C31.11,234.25,25.43,247,41.37,250.64Z"/><path class="cls-31" d="M41.37,269.6s8.68-14.52,18.46-10.26C59.83,259.34,54.63,274.49,41.37,269.6Z"/><path class="cls-32" d="M55.76,14.7a8.44,8.44,0,0,0-4.09,10.64c3.12,7.92,6.21,20.69-2.28,27.88-12.94,11-20.91,4-18.91,19.91s7.29,11.36,6,24.89,4.64,20.57,2.65,25.54-13.93,12.28-3.65,16.26c35.39,13.7,40.32-1.85,60.72-.66s38.09-6.4,51.1,0,21.56,2.65,39.48,1.66,30.53.66,36.5.66,25.22.66,27.21-3.32,9-4.31,8-16.26,9.95-18.91,2-22.89-3.07.27-6.06-8.78-12.52-18.76-2.57-21.74,12.61-9.3,8.63-19.25-.62-11.3-11-21.9c-12.94-13.27-20.9-1.66-25.88-3.65s-13.93-11.28-31.85-9.29S161,3.13,153.57,7.43s-10.62,4-24.55,7-9,12-25.88,2-23.89-5-29.86-3c-4,1.32-9.29.88-12.39.44a8.48,8.48,0,0,0-5,.8Z"/></g></g></svg>