<svg xmlns="http://www.w3.org/2000/svg" viewBox="0 0 292.64 229.83"><defs><style>.cls-1{isolation:isolate;}.cls-2{fill:#5b7b82;}.cls-3{fill:#95adb5;}.cls-4{fill:#dd9f64;}.cls-10,.cls-11,.cls-12,.cls-13,.cls-14,.cls-15,.cls-16,.cls-17,.cls-18,.cls-19,.cls-4,.cls-6,.cls-7,.cls-8,.cls-9{fill-rule:evenodd;}.cls-18,.cls-20,.cls-5{mix-blend-mode:multiply;}.cls-5{opacity:0.48;}.cls-6{fill:#cfab89;}.cls-7{fill:#e5d6c4;}.cls-8{fill:#c8956e;}.cls-9{fill:#af8061;}.cls-10{fill:#dabfa3;}.cls-11,.cls-20{fill:#a36a42;}.cls-12{fill:#512f20;}.cls-13{fill:#75472f;}.cls-14{fill:#503224;}.cls-15{fill:#80624d;}.cls-16{fill:#231813;}.cls-17,.cls-18{fill:#b57b54;}.cls-19{fill:#bf835d;}.cls-20{opacity:0.7;}.cls-21{fill:#d1e4e8;}.cls-22{fill:#e8c8a9;opacity:0.55;}</style></defs><g class="cls-1"><g id="Capa_1" data-name="Capa 1"><path class="cls-2" d="M139.72,15.65a2.2,2.2,0,0,1,0-3.1L142,10.32a2.2,2.2,0,0,1,3.1,3.11l-2.23,2.22A2.18,2.18,0,0,1,139.72,15.65Zm4.51-4.5a1,1,0,0,0-1.45,0l-2.23,2.23A1,1,0,0,0,142,14.83l2.23-2.23A1,1,0,0,0,144.23,11.15Z"/><rect class="cls-2" x="144.86" y="8.48" width="1.24" height="2.82" transform="translate(49.61 -99.97) rotate(45)"/><path class="cls-2" d="M133.54,21.84a2.18,2.18,0,0,1,0-3.1l2.23-2.23a2.19,2.19,0,0,1,3.1,3.1l-2.23,2.23A2.19,2.19,0,0,1,133.54,21.84Zm4.5-4.51a1,1,0,0,0-1.45,0l-2.23,2.23A1,1,0,0,0,135.81,21L138,18.78A1,1,0,0,0,138,17.33Z"/><rect class="cls-2" x="138.68" y="14.67" width="1.24" height="2.82" transform="translate(52.17 -93.79) rotate(45)"/><path class="cls-2" d="M127.35,28a2.2,2.2,0,0,1,0-3.1l2.23-2.23a2.19,2.19,0,0,1,3.1,3.1L130.46,28A2.2,2.2,0,0,1,127.35,28Zm4.51-4.5a1,1,0,0,0-1.45,0l-2.23,2.23a1,1,0,1,0,1.45,1.45L131.86,25A1,1,0,0,0,131.86,23.52Z"/><rect class="cls-2" x="132.49" y="20.85" width="1.24" height="2.82" transform="translate(54.73 -87.6) rotate(45)"/><path class="cls-2" d="M121.17,34.21a2.2,2.2,0,0,1,0-3.11l2.23-2.22a2.19,2.19,0,0,1,3.1,3.1l-2.23,2.23A2.2,2.2,0,0,1,121.17,34.21Zm4.5-4.51a1,1,0,0,0-1.45,0L122,31.93a1,1,0,0,0,0,1.45,1,1,0,0,0,1.45,0l2.23-2.23A1,1,0,0,0,125.67,29.7Z"/><path class="cls-2" d="M115,40.39a2.2,2.2,0,0,1,0-3.1l2.23-2.23a2.2,2.2,0,0,1,3.11,3.1l-2.23,2.23A2.2,2.2,0,0,1,115,40.39Zm4.51-4.5a1,1,0,0,0-1.45,0l-2.23,2.23a1,1,0,0,0,0,1.45,1,1,0,0,0,1.45,0l2.23-2.23A1,1,0,0,0,119.49,35.89Z"/><rect class="cls-2" x="120.12" y="33.22" width="1.24" height="2.82" transform="translate(59.85 -75.23) rotate(45)"/><rect class="cls-2" x="126.31" y="27.04" width="1.24" height="2.82" transform="translate(57.29 -81.42) rotate(45)"/><path class="cls-2" d="M108.8,46.58a2.2,2.2,0,0,1,0-3.11L111,41.24a2.2,2.2,0,0,1,3.1,3.11l-2.23,2.23A2.2,2.2,0,0,1,108.8,46.58Zm4.5-4.51a1,1,0,0,0-1.45,0l-2.22,2.23a1,1,0,0,0,0,1.45,1,1,0,0,0,1.44,0l2.23-2.23A1,1,0,0,0,113.3,42.07Z"/><rect class="cls-2" x="113.94" y="39.41" width="1.24" height="2.82" transform="translate(62.42 -69.05) rotate(45)"/><path class="cls-2" d="M102.61,52.76a2.2,2.2,0,0,1,0-3.1l2.23-2.23a2.2,2.2,0,1,1,3.11,3.1l-2.23,2.23A2.2,2.2,0,0,1,102.61,52.76Zm4.51-4.5a1,1,0,0,0-1.45,0l-2.23,2.23a1,1,0,0,0,0,1.44,1,1,0,0,0,1.45,0l2.23-2.22A1,1,0,0,0,107.12,48.26Z"/><rect class="cls-2" x="107.75" y="45.59" width="1.24" height="2.82" transform="translate(64.98 -62.86) rotate(45)"/><path class="cls-2" d="M96.43,59a2.2,2.2,0,0,1,0-3.11l2.23-2.23a2.2,2.2,0,1,1,3.1,3.11L99.53,59A2.2,2.2,0,0,1,96.43,59Zm4.5-4.51a1,1,0,0,0-1.44,0l-2.23,2.23a1,1,0,0,0,0,1.45,1,1,0,0,0,1.44,0l2.23-2.23A1,1,0,0,0,100.93,54.44Z"/><rect class="cls-2" x="101.57" y="51.78" width="1.24" height="2.82" transform="translate(67.54 -56.68) rotate(45)"/><path class="cls-2" d="M90.24,65.13a2.2,2.2,0,0,1,0-3.1l2.23-2.23a2.2,2.2,0,1,1,3.11,3.1l-2.23,2.23A2.2,2.2,0,0,1,90.24,65.13Zm4.51-4.5a1,1,0,0,0-1.45,0l-2.23,2.23a1,1,0,0,0,0,1.44,1,1,0,0,0,1.45,0l2.23-2.23A1,1,0,0,0,94.75,60.63Z"/><rect class="cls-2" x="95.38" y="57.96" width="1.24" height="2.82" transform="translate(70.1 -50.49) rotate(45)"/><path class="cls-2" d="M84.06,71.32a2.2,2.2,0,0,1,0-3.11L86.29,66a2.2,2.2,0,1,1,3.1,3.11l-2.23,2.23A2.2,2.2,0,0,1,84.06,71.32Zm4.5-4.51a1,1,0,0,0-1.44,0L84.89,69a1,1,0,0,0,1.45,1.45l2.22-2.23A1,1,0,0,0,88.56,66.81Z"/><rect class="cls-2" x="89.2" y="64.15" width="1.24" height="2.82" transform="translate(72.66 -44.31) rotate(45)"/><path class="cls-2" d="M151,15.65l-2.23-2.22a2.2,2.2,0,1,1,3.1-3.11l2.23,2.23a2.19,2.19,0,0,1-3.1,3.1ZM149.6,12.6l2.23,2.23a1,1,0,1,0,1.45-1.45l-2.23-2.23a1,1,0,0,0-1.45,0A1,1,0,0,0,149.6,12.6Z"/><rect class="cls-2" x="147.73" y="8.48" width="1.24" height="2.82" transform="translate(260.24 -88.01) rotate(135)"/><path class="cls-2" d="M157.19,21.84,155,19.61a2.2,2.2,0,1,1,3.11-3.1l2.22,2.23a2.19,2.19,0,1,1-3.1,3.1Zm-1.4-3.06L158,21a1,1,0,0,0,1.45-1.45l-2.23-2.23a1,1,0,1,0-1.45,1.45Z"/><rect class="cls-2" x="153.92" y="14.67" width="1.24" height="2.82" transform="translate(275.18 -81.82) rotate(135)"/><path class="cls-2" d="M163.38,28l-2.23-2.23a2.19,2.19,0,1,1,3.1-3.1l2.23,2.23a2.19,2.19,0,1,1-3.1,3.1ZM162,25l2.23,2.23a1,1,0,1,0,1.45-1.45l-2.23-2.23A1,1,0,1,0,162,25Z"/><rect class="cls-2" x="160.1" y="20.85" width="1.24" height="2.82" transform="translate(290.11 -75.64) rotate(135)"/><path class="cls-2" d="M169.56,34.21,167.33,32a2.19,2.19,0,1,1,3.1-3.1l2.23,2.22a2.2,2.2,0,1,1-3.1,3.11Zm-1.4-3.06,2.23,2.23a1,1,0,1,0,1.45-1.45l-2.23-2.23a1,1,0,1,0-1.45,1.45Z"/><path class="cls-2" d="M175.74,40.39l-2.22-2.23a2.19,2.19,0,1,1,3.1-3.1l2.23,2.23a2.2,2.2,0,1,1-3.11,3.1Zm-1.4-3,2.23,2.23a1,1,0,0,0,1.45,0,1,1,0,0,0,0-1.45l-2.23-2.23a1,1,0,0,0-1.45,1.45Z"/><rect class="cls-2" x="172.47" y="33.22" width="1.24" height="2.82" transform="translate(319.97 -63.27) rotate(135)"/><rect class="cls-2" x="166.29" y="27.04" width="1.24" height="2.82" transform="translate(305.04 -69.45) rotate(135)"/><path class="cls-2" d="M181.93,46.58l-2.23-2.23a2.2,2.2,0,0,1,3.1-3.11L185,43.47a2.2,2.2,0,1,1-3.1,3.11Zm-1.4-3.06,2.23,2.23a1,1,0,0,0,1.45,0,1,1,0,0,0,0-1.45L182,42.07a1,1,0,0,0-1.45,1.45Z"/><rect class="cls-2" x="178.66" y="39.41" width="1.24" height="2.82" transform="translate(334.9 -57.09) rotate(135)"/><path class="cls-2" d="M188.11,52.76l-2.23-2.23a2.2,2.2,0,0,1,3.11-3.1l2.23,2.23a2.2,2.2,0,1,1-3.11,3.1Zm-1.4-3,2.23,2.22a1,1,0,0,0,1.45,0,1,1,0,0,0,0-1.44l-2.23-2.23a1,1,0,0,0-1.45,1.45Z"/><rect class="cls-2" x="184.84" y="45.59" width="1.24" height="2.82" transform="translate(349.83 -50.9) rotate(135)"/><path class="cls-2" d="M194.3,59l-2.23-2.23a2.2,2.2,0,0,1,3.1-3.11l2.23,2.23A2.2,2.2,0,1,1,194.3,59Zm-1.4-3.06,2.23,2.23a1,1,0,0,0,1.44,0,1,1,0,0,0,0-1.45l-2.22-2.23a1,1,0,0,0-1.45,1.45Z"/><rect class="cls-2" x="191.03" y="51.78" width="1.24" height="2.82" transform="translate(364.76 -44.72) rotate(135)"/><path class="cls-2" d="M200.48,65.13l-2.23-2.23a2.2,2.2,0,1,1,3.11-3.1L203.59,62a2.2,2.2,0,1,1-3.11,3.1Zm-1.4-3.06,2.23,2.23a1,1,0,0,0,1.45,0,1,1,0,0,0,0-1.44l-2.23-2.23a1,1,0,0,0-1.45,0A1,1,0,0,0,199.08,62.07Z"/><rect class="cls-2" x="197.21" y="57.96" width="1.24" height="2.82" transform="translate(379.7 -38.52) rotate(135)"/><path class="cls-2" d="M206.67,71.32l-2.23-2.23a2.2,2.2,0,0,1,3.1-3.11l2.23,2.23a2.2,2.2,0,0,1-3.1,3.11Zm-1.4-3.06,2.23,2.23a1,1,0,0,0,1.44,0,1,1,0,0,0,0-1.45l-2.23-2.23a1,1,0,0,0-1.44,0A1,1,0,0,0,205.27,68.26Z"/><rect class="cls-2" x="203.4" y="64.15" width="1.24" height="2.82" transform="translate(394.63 -32.34) rotate(135)"/><circle class="cls-3" cx="86.04" cy="69.15" r="3.07"/><path class="cls-2" d="M86,72.49a3.34,3.34,0,1,1,3.34-3.34A3.35,3.35,0,0,1,86,72.49Zm0-6.15a2.81,2.81,0,1,0,2.81,2.81A2.81,2.81,0,0,0,86,66.34Z"/><rect class="cls-2" x="83.09" y="68.81" width="5.92" height="0.69"/><circle class="cls-3" cx="207.85" cy="69.15" r="3.07"/><path class="cls-2" d="M207.85,72.49a3.34,3.34,0,1,1,3.34-3.34A3.35,3.35,0,0,1,207.85,72.49Zm0-6.15a2.81,2.81,0,1,0,2.81,2.81A2.81,2.81,0,0,0,207.85,66.34Z"/><rect class="cls-2" x="204.9" y="68.81" width="5.92" height="0.69"/><circle class="cls-3" cx="146.98" cy="9.76" r="4.09"/><path class="cls-2" d="M143.84,12.91a4.44,4.44,0,1,1,6.28,0A4.44,4.44,0,0,1,143.84,12.91Zm5.78-5.79a3.74,3.74,0,1,0,0,5.29A3.74,3.74,0,0,0,149.62,7.12Z"/><rect class="cls-2" x="143.04" y="9.31" width="7.87" height="0.91" transform="translate(49.95 -101.07) rotate(45)"/><path class="cls-4" d="M4.36,89.25a359,359,0,0,1,285.18,0q-9.21,21.25-18.41,42.53a312.69,312.69,0,0,0-248.37,0Q13.56,110.51,4.36,89.25Z"/><g class="cls-5"><path class="cls-6" d="M62.05,110.21l2.81-.76,3.38-.88a320.82,320.82,0,0,1,39-7.35c-6.44,2.8-13.48,4.11-19.38,8q-7.7,1.47-15.35,3.33C68.93,108.16,64.85,114.11,62.05,110.21Zm14.35-1.09c1.66,2.51,3.36-.32,5,.14,1.59-.34,3.18-.66,4.77-1C83,106,79.65,109.2,76.4,109.12Z"/><path class="cls-7" d="M107.54,106.1a13.18,13.18,0,0,0-12.4,1.81Q101.34,106.89,107.54,106.1Z"/><path class="cls-8" d="M144.68,103.63h1.7c1.42,0,2.84,0,4.26,0,.08-2.65-1-.56-1.41-1.24.07-3.49,2,1.08,2-2.42-2.54-.66-4.57,1-6.59,2.42C144.67,102.81,144.67,103.23,144.68,103.63Z"/><path class="cls-9" d="M150.64,103.65l3.13,0c.45-2.77,2-.41,2.87-1.15,0-3.4,1.53,1,1.51-2.39l-2.87-.09-4-.08c-.08,3.5-2-1.07-2,2.42C149.64,103.09,150.72,101,150.64,103.65Z"/><path class="cls-8" d="M153.77,103.7c3.12.07,6.25.18,9.37.34l.06-1.22-3.71-.17-2.85-.1C155.76,103.29,154.22,100.93,153.77,103.7Z"/><path class="cls-6" d="M163.2,102.82l-.06,1.22q9.78.51,19.54,1.62l.57.06q2.4.28,4.8.6l1.13.15c4.35.66,14.29-1.69,17,.29.92.66.17.39-.46,2.4l4.2.83c.71-1.92,2.92-1.46,2.8.58,1.49.32,3,.65,4.46,1a10.18,10.18,0,0,1,10.55,2.61c2.77.73,5.53,1.51,8.29,2.32.94-3.37-2.19.45-1.26-2.91l-1.66-.48c-1.66-1.3-4.87.33-5.55-2.77l-2.8-.72q-6.47-1.62-13-3-5.81-1.22-11.63-2.2l-2.56-.42-4-.62c-1.45,2.64-3.37-.05-5,.53q-2.84-.37-5.69-.7l-.57-.06c-1.83,2.64-4.31,0-6.38.57Q169.61,103.16,163.2,102.82Z"/><path class="cls-10" d="M210,110l2.8.58C212.89,108.53,210.68,108.07,210,110Z"/><path class="cls-10" d="M217.23,111.56q5.29,1.22,10.55,2.61A10.18,10.18,0,0,0,217.23,111.56Z"/><path class="cls-8" d="M236.07,116.49q4.26,1.26,8.5,2.64c-1-5.58-6.65-3.5-9.76-5.55C233.88,116.94,237,113.12,236.07,116.49Z"/><path class="cls-9" d="M244.57,119.13q2.87.93,5.72,1.92c.85-2.56-1-.88-1.23-1.72,1.54-3.25,2.25,2,3.81-1.25l-.82-.29q-9.23-3.23-18.57-5.86c-.11.39-.23.78-.33,1.17l1.66.48C237.92,115.63,243.56,113.55,244.57,119.13Z"/><path class="cls-11" d="M250.29,121.05q3.68,1.28,7.33,2.65c.68-2.71-1.54-1.08-2-2,1.34-2.48,2.06.26,3.15-.14,1.1-2.33-2.74-1.67-3.68-2.65-.73-.27-1.47-.53-2.2-.78-1.56,3.23-2.27-2-3.81,1.25C249.31,120.17,251.14,118.49,250.29,121.05Z"/><path class="cls-12" d="M266.49,127.18q2.82,1.16,5.61,2.36,3.64-8.4,7.27-16.79c-5.55,2.49-11,5.91-15.71,4.11.36,4.84,4.95,3.63,6.59,6.59-1.52,3.47-2.14,1.35-3.1,1.36C266.69,125.94,266.82,126.24,266.49,127.18Z"/><path class="cls-8" d="M76.4,109.12c1.66,2.51,3.36-.32,5,.14,1.59-.34,3.18-.66,4.77-1C83,106,79.65,109.2,76.4,109.12Z"/><path class="cls-11" d="M156.64,102.55l2.85.1c5.09-2.65,11.16.18,16.63-.12q3.13.28,6.27.64l.57.06c.17-.93.4-1.38.71-1.14-2.84-3.2-7.51-1.23-11.07-2.32-1.53-.12-3.07-.23-4.6-.33l-2.31-.15c-1.6,2.74-4.14.2-6.1.93l-1.44-.06C158.17,103.55,156.62,99.15,156.64,102.55Z"/><path class="cls-9" d="M159.49,102.65l3.71.17q6.41.33,12.81.92c0-.4.07-.81.11-1.21C170.65,102.83,164.58,100,159.49,102.65Z"/><path class="cls-8" d="M176.12,102.53c0,.4-.08.81-.11,1.21,2.07-.62,4.55,2.07,6.38-.57Q179.26,102.81,176.12,102.53Z"/><path class="cls-13" d="M20.88,126c1.65,2.34,2.41-.55,3.71-.25C23,123.35,22.18,126.24,20.88,126Z"/><path class="cls-10" d="M116.35,102.66c-.51-2.45-1.35-2.51-2.24-2.23C114.51,103.9,115.52,102.53,116.35,102.66Z"/><path class="cls-8" d="M188.81,102.72c-.05.4-.1.81-.16,1.21,1.64-.58,3.56,2.11,5-.53-1.14-.16-2.28-.33-3.42-.48Z"/><path class="cls-8" d="M227.6,110.33c.68,3.1,3.89,1.47,5.55,2.77.1-.39.22-.78.33-1.17l-2.24-.62Z"/><path class="cls-8" d="M155.31,98.85l0,1.22,2.87.09,1.44.06c0-.41,0-.82,0-1.22-1.25,0-2.5-.1-3.75-.13Z"/><path class="cls-9" d="M159.64,99c0,.4,0,.81,0,1.22,2-.73,4.5,1.81,6.1-.93C163.67,99.17,161.66,99.08,159.64,99Z"/><path class="cls-9" d="M190.24,102.92c1.14.15,2.28.32,3.42.48l4,.62A5.32,5.32,0,0,0,190.24,102.92Z"/><path class="cls-9" d="M200.21,104.44q5.83,1,11.63,2.2a14.68,14.68,0,0,1,13,3l2.8.72,3.64,1c-1.46-3.24-5.49-1.69-6.69-5.53q-2.13-.52-4.26-1C213.62,106.16,206.74,101.59,200.21,104.44Z"/><path class="cls-8" d="M211.84,106.64q6.49,1.35,13,3A14.68,14.68,0,0,0,211.84,106.64Z"/><path class="cls-13" d="M19.37,123.94l.49,1.12,4.33-1.84C22.19,121,21,124.08,19.37,123.94Z"/><path class="cls-9" d="M64.86,109.45l3.38-.88A1.76,1.76,0,0,0,64.86,109.45Z"/><path class="cls-6" d="M155.89,98.87c1.25,0,2.5.08,3.75.13,2,.08,4,.17,6.05.29l2.31.15c0-.41.05-.81.08-1.22C164.1,98.77,159.45,96.12,155.89,98.87Z"/><path class="cls-8" d="M168.08,98.22c0,.41-.06.81-.08,1.22,1.53.1,3.07.21,4.6.33,0-.4.07-.81.1-1.21l-2.6-.2Z"/><path class="cls-11" d="M38.83,116.26c1.58-.36,3-.92,3.77-2.6-1-2.54-1.54,0-2.36-.48C41.29,116.55,37.77,112.9,38.83,116.26Z"/><path class="cls-6" d="M81,103.12c1.34,2.58,2.84-.15,4.24.38C84,100.89,82.43,103.62,81,103.12Z"/><path class="cls-6" d="M170.1,98.36l2.6.2q5.2.42,10.39,1c0-.4.09-.81.14-1.21C178.34,98.75,174.25,95.44,170.1,98.36Z"/><path class="cls-8" d="M183.23,98.35l-.14,1.21c1.35-.64,3.06,2,4.18-.72Z"/><path class="cls-8" d="M59.43,108.41c-3.18-2.6-4.68.54-8.11-1.43-4,1.66-6.71,1.4-7.09,2.26,1.33-3,12.58,4.11,14.92-.75Z"/><path class="cls-6" d="M167.87,97c-3.4-4-4.32,1.16,0,0Z"/><path class="cls-8" d="M226.26,106.21q8.79,2.24,17.49,5c1-3.34-.51-2.5-1.24-2.94,1-2.57,1.73,0,2.63-.46-.09-3.4-3-6.53-5.36-9.27q-4.8-1.4-9.65-2.64l-2-.52c3.3,2,3.9,8.69,8.29,8.52-2.39,2.26-4.6-.84-6.92-.62-.4,1.56.22,1.21,0,2.51-1.2-1.13-1.29-.56-2.85-.73Z"/><path class="cls-6" d="M188.29,97.74c-3.16-4.17-4.4.89,0,0Z"/><path class="cls-6" d="M150.18,92.66a32.56,32.56,0,0,0,18.8.73l-1.46-.1-3.23-.18c-.74.14-1.19-.69-1.35-2.51-2.57-.13-5.13-.22-7.7-.29-4.17.83,2,1.69,3.51,1.33C156.4,94.39,153,91.88,150.18,92.66Z"/><path class="cls-6" d="M176.32,94c.43,2.86,2.58.68,3.68,1.58C179.59,92.69,177.42,94.86,176.32,94Z"/><path class="cls-8" d="M53.59,106.29c1.59-1.31,4.8.28,5.38-2.82C57.37,104.74,54.12,103.18,53.59,106.29Z"/><path class="cls-9" d="M128.3,90.74c1.93,2.72,4.84.16,7.14.89.72-2.48-4.33-.53-6-1Z"/><path class="cls-11" d="M41.37,106.35l.39,1.15C45.13,107.26,44.22,104.5,41.37,106.35Z"/><path class="cls-6" d="M168.64,89.7c0,.41,0,.81-.08,1.22q9.47.61,18.89,1.79c-2.22-3.13-6.36-1.16-9.32-2.24C175,90.16,171.8,89.91,168.64,89.7Z"/><path class="cls-6" d="M88,94.29c2.23-1.22,5.74.64,7.16-2.45C93,93,89.4,91.16,88,94.29Z"/><path class="cls-9" d="M168.64,89.7c3.16.21,6.33.47,9.49.77,0-.41.07-.82.11-1.22l-3.57-.32c-2.51,0-6.54-.82-8.93-.63-1,.08-4.22-.08-1.85,1.12C164.57,89.77,166.67,89.35,168.64,89.7Z"/><path class="cls-11" d="M40.48,102.78l.39,1.16c1.35-.45,2.69-.9,4-1.33C43.26,100.18,42,103.11,40.48,102.78Z"/><path class="cls-6" d="M52.61,97.68C57.5,95.85,68,102,73.15,94.85c.66-.9-2.19-.93-1.74-.85C66.29,93.15,59.23,96.57,52.61,97.68Z"/><path class="cls-6" d="M74.06,93.39c1.31,2.58,2.74-.16,4.09.36L82,93C79.45,90.57,76.68,93.62,74.06,93.39Z"/><path class="cls-10" d="M125.84,84.77a11.86,11.86,0,0,0,11.46-.53Q131.57,84.41,125.84,84.77Z"/><path class="cls-8" d="M241.53,99c3.54,2,7.27.2,11-.39-4-1.31-8-2.56-12-3.72C240.15,97.48,242.06,96.18,241.53,99Z"/><path class="cls-9" d="M144.23,84.11h2.12q6.18,0,12.36.21l3,.12c1.89,0,.09-2.05-.86-1.25-1.43-.38-7.43.66-5.41-1.4-3.49-3.79-7.84.28-11.24,1.12C144.23,83.3,144.23,83.72,144.23,84.11Z"/><path class="cls-8" d="M202.56,88.76q7.91,1.32,15.77,3c.26-.9.55-1.32.85-1-4.42-4.69-11.05-.57-16.42-3.19C202.7,88,202.63,88.36,202.56,88.76Z"/><path class="cls-12" d="M279.85,111.63l1.46-3.36c-1.08-2.26-3.06,1.31-4.38.79C276.42,111.88,279.11,110.46,279.85,111.63Z"/><path class="cls-6" d="M84.7,86.22c1.5,2.86,3.44-1,4.94,1.59,3.92-3.18,9.12-2.14,13.19-4.47,2.68-1.54-3.78-.75-6.54-.31C92,83.66,86.56,83.72,84.7,86.22Z"/><path class="cls-8" d="M236.67,93.83c1-3.36,1.75,1.58,2.73-1.77-2.08-.15-4.15-2.27-6.27-.45C229.21,91.87,235.29,93.69,236.67,93.83Z"/><path class="cls-11" d="M38.54,97l.39,1.16c2.14-.73,4.3-1.43,6.45-2.11C43,93.86,40.84,97.07,38.54,97Z"/><path class="cls-8" d="M242.07,92.82c3.76-.54,7.1,5.48,11.11.89-1.41-.61-3.33-.38-3.8-2.49,3-6-2.62-3.47-4.35-5.15-4,2.22-9.23-3.48-12.17,1.69-2.17-2.28-3.09,2.16-3.9.27C231,92.74,241.42,87,242.07,92.82Z"/><path class="cls-8" d="M45.25,93.55c-.36-3.67,3.78,0,3.45-3.61-2.94,1.54-7.34.81-9.16,4.16C41.61,96.39,43.31,93.31,45.25,93.55Z"/><path class="cls-10" d="M137.09,76.94c1.54,0,3.08-.08,4.62-.11C139.68,73.5,128.39,77.39,137.09,76.94Z"/><path class="cls-8" d="M52.3,88.88c1.58-1.11,4.5.16,5.1-2.68-2.37-2.3-4.65.84-7,.68C51.12,90.13,51.6,85.64,52.3,88.88Z"/><path class="cls-8" d="M251,89.17c-.88,5.44,7.07.52,0,0Z"/><path class="cls-9" d="M194.64,77.67l.93.13c1.69-.43,5.26,2.22,5.73-.37C199.13,77.89,196.59,75.08,194.64,77.67Z"/><path class="cls-14" d="M283.73,102.68c1.61-3.74,3.23-7.46,4.84-11.2-2.33-3.19-5.74,1.46-8.33.47-.61,1.53,1.77,3.51,3.24,4-2.17,1.37-2.23,1.88-.36,2.5-1.19,2.45-1.64-.17-2.53.25C280,102.24,282.33,101.8,283.73,102.68Z"/><path class="cls-8" d="M45.29,88.42c.93-3.26,2.25-2.25,4.14-3.79-.45-1.55-.84-.91-1.29-2.16,1.52-1.28,4.71.31,5.19-2.75-5.88.77-10,4.64-14.2,8.09C41.45,92.4,43.21,87.81,45.29,88.42Z"/><path class="cls-10" d="M135.69,72.1l0,1.21q3.12-.09,6.23-.14c-1.19-2.81-3.64-.36-5.33-1.1Z"/><path class="cls-13" d="M8.72,99.32l.48,1.12c1.47-.63,2.94-1.26,4.41-1.87C11.63,96.34,10.4,99.45,8.72,99.32Z"/><path class="cls-8" d="M135.69,72.1l.94,0c0-.95.22-1.43.59-1.24,2-.06,4-.09,6-.12l3.14,0c-.34-2.77-2-.45-2.83-1.2-3.86-.15-9.13.45-12,.33l-.63,0c0,1-.19,1.43-.57,1.25-2.46-.79-5.8,1.77-1.5,1.3Q132.26,72.21,135.69,72.1Z"/><path class="cls-8" d="M235.61,83.44c.11-.39.21-.79.32-1.18L231,81C231.37,84,234.28,82.26,235.61,83.44Z"/><path class="cls-9" d="M235.93,82.26c-.11.39-.21.79-.32,1.18,1.53.4,3,.81,4.57,1.24l.33-1.18C239,83.08,237.45,82.66,235.93,82.26Z"/><path class="cls-8" d="M85.17,75c7.2,1.58,14.89-2,22.31-2C100.35,70.88,92.53,74.47,85.17,75Z"/><path class="cls-8" d="M186.2,69.23c.05-.4.09-.81.14-1.21-.78-.85-2.68,1.27-2.73-1.52q-2.85-.3-5.72-.55a3.76,3.76,0,0,1,6,.58c9.66.28,17.12,2.31,26.29,3.76,3.32.51,8.86,3.46,9.31-.68-.84-.17-1.68-.35-2.53-.51-2.29-1.28-6,.49-7.4-2.63q-3-.54-6.06-1c-2.89,2.41-6.34-.56-9.44-.16Q188,64.47,182,63.87c-2.67-.26-5.34-.5-8-.7-1.33,3.53-4.29-1.48-5.6,2.07-.18,3.79,1.38-4.28,2.55.17-.26-1-4.44,2.07-4.91,2.14-5.32.6-14.8-1.27-18.7-.51,1.19-3.63,4.52,1.2,5.74-2.39-5.47.24-7.32.5-11.83-1.23-.65,2.35,2.35.74,3.21,1.19-.75,3.52-2.79,2.22-4.41,2.5,4.39,2.8,9.29,1.89,14.87,1.23-.6,2.78-2.42.4-3.49,1.16,9.38,1.91,23.12-3.18,34.53-.3Z"/><path class="cls-10" d="M193.13,72.54l.94.13c1,.14,2.08.28,3.12.44l.32,0A2.37,2.37,0,0,0,193.13,72.54Z"/><path class="cls-13" d="M7.27,96c.16.36.32.74.48,1.11C9,96.52,10.32,96,11.6,95.44,9.82,93.15,8.77,96.17,7.27,96Z"/><path class="cls-8" d="M55.8,77.79c.1.39.2.78.31,1.18q3.7-1,7.43-1.9C61,74.77,58.37,77.93,55.8,77.79Z"/><path class="cls-9" d="M186.34,68c-.05.4-.09.81-.14,1.21,1.69.19,3.37.39,5.05.61l.15-1.21C189.71,68.41,188,68.21,186.34,68Z"/><path class="cls-8" d="M191.4,68.63l-.15,1.21c4.94.62,9.86,1.36,14.78,2.19C202.19,68.48,196.12,70,191.4,68.63Z"/><path class="cls-8" d="M47.14,80.22c-.11-.39-.23-.78-.34-1.17-3.2,1-6.38,1.93-9.56,3C40.66,83.88,43.81,80.36,47.14,80.22Z"/><path class="cls-8" d="M64.84,74.25c2.41,2.32,5-.74,7.46-.45q3.75-.81,7.51-1.54,7.53-1.45,15.11-2.59C85.08,68.25,74.76,72.7,64.84,74.25Z"/><path class="cls-8" d="M46.76,77.79c.12.39.23.78.35,1.17.93-1.09,3.51.63,3.38-2.25l-.93.27C48.63,77.24,47.69,77.51,46.76,77.79Z"/><path class="cls-9" d="M183.61,66.5l.32,0a3.76,3.76,0,0,0-6-.58Q180.76,66.21,183.61,66.5Z"/><path class="cls-11" d="M49.22,75.8c.12.4.23.79.34,1.18l.93-.27c2.08-.58,4.15-1.15,6.24-1.69-.11-.39-.21-.79-.32-1.19Q52.81,74.77,49.22,75.8Z"/><path class="cls-9" d="M56.41,73.83,56.73,75q7.8-2.05,15.68-3.74c-5-1.83-10.28,1.89-15.37,2.39Z"/><path class="cls-8" d="M72.41,71.28c5.43-1.27,11.24-1.49,15.4-5.42l-2.56.44q-14.34,2.51-28.51,6.2l.3,1.17C62.13,73.17,67.38,69.45,72.41,71.28Z"/><path class="cls-10" d="M104.91,64.64c-1.81-.59-4,2.12-5.59-.52q-2.73.38-5.44.78C97.13,66.88,102.07,67.7,104.91,64.64Z"/><path class="cls-8" d="M150.16,62.16a3.83,3.83,0,0,0,6.11.11Q153.23,62.19,150.16,62.16Z"/><path class="cls-8" d="M158.2,62.33c2,2.15,7.88,2.27,9,.39Q162.7,62.47,158.2,62.33Z"/><path class="cls-9" d="M16.39,85.61c5.19,1,9.83-3.3,14.84-4.16l-.39-1.15q-6.33,2.17-12.61,4.6Z"/><path class="cls-8" d="M30.84,80.3l.39,1.15q3.85-1.33,7.73-2.56l-.37-1.15C36,78.56,33.42,79.42,30.84,80.3Z"/><path class="cls-6" d="M38.59,77.74,39,78.89q5.11-1.62,10.26-3.09,3.59-1,7.19-2l.63-.16-.3-1.17c-2.1.54-4.19,1.11-6.28,1.69Q44.51,75.87,38.59,77.74Z"/><path class="cls-10" d="M182.06,62.67c0,.4-.08.81-.11,1.2q6.08.6,12.15,1.41c.05-.39.11-.8.16-1.2Q188.17,63.27,182.06,62.67Z"/><path class="cls-6" d="M194.26,64.08c0,.4-.11.81-.16,1.2,3.1-.4,6.55,2.57,9.44.16l-4.16-.64C197.67,64.55,196,64.31,194.26,64.08Z"/><path class="cls-6" d="M209.6,66.47c1.41,3.12,5.11,1.35,7.4,2.63l.24-1.19Q213.43,67.15,209.6,66.47Z"/><path class="cls-6" d="M241.87,73.76c-.1.39-.21.78-.32,1.17l2.5.69q4.68,1.34,9.34,2.78l.36-1.15Q247.84,75.41,241.87,73.76Z"/><path class="cls-8" d="M253.75,77.25l-.36,1.15c2.63,0,5.06,3.33,7.81,1.27C258.72,78.83,256.24,78,253.75,77.25Z"/><path class="cls-11" d="M271.69,83.39l-.43,1.13,2.45.92,2.74,1.06c.15-.37.3-.76.44-1.13l-2.44-1Z"/><path class="cls-15" d="M276.89,85.37c-.14.37-.29.76-.44,1.13,1.62-.21,2.85,2.83,4.72.57C279.75,86.49,278.32,85.93,276.89,85.37Z"/><path class="cls-16" d="M4.36,89.25l.48,1.12q5.75-2.49,11.55-4.76l1.84-.71c-.15-.39-.3-.77-.44-1.15Q11,86.36,4.36,89.25Z"/><path class="cls-14" d="M17.79,83.75c.14.38.29.76.44,1.15q6.27-2.43,12.61-4.6c2.58-.88,5.16-1.74,7.75-2.56q5.91-1.87,11.87-3.55L50.13,73Q33.78,77.6,17.79,83.75Z"/><path class="cls-13" d="M50.13,73l.33,1.17c2.09-.58,4.18-1.15,6.28-1.69q14.15-3.69,28.51-6.2L85,65.09Q67.44,68.18,50.13,73Z"/><path class="cls-14" d="M85,65.09l.21,1.21,2.56-.44q3-.51,6.07-1,2.72-.41,5.44-.78,3-.41,6.09-.76c0-.41-.1-.82-.14-1.22Q95.13,63.33,85,65.09Z"/><path class="cls-13" d="M105.27,62.14c0,.4.09.81.14,1.22A359.27,359.27,0,0,1,144.05,61q11.61-.09,23.21.57l1.29.07c4.51.28,9,.63,13.51,1.08q6.12.6,12.2,1.41c1.71.23,3.41.47,5.12.72l.18-1.21A359.1,359.1,0,0,0,105.27,62.14Z"/><path class="cls-14" d="M199.56,63.59l-.18,1.21,4.16.64q3,.5,6.06,1,3.83.68,7.64,1.44,9.06,1.82,18,4.1c.1-.4.2-.79.31-1.18A357.07,357.07,0,0,0,199.56,63.59Z"/><path class="cls-14" d="M240.31,72.07c-.11.38-.21.78-.32,1.18l1.88.51q6,1.63,11.88,3.49c2.49.78,5,1.58,7.45,2.42q5.26,1.77,10.49,3.72l2.76,1,.43-1.14A357.88,357.88,0,0,0,240.31,72.07Z"/><path class="cls-16" d="M274.88,83.28l-.43,1.14,2.44,1c1.43.56,2.86,1.12,4.28,1.7,2.64,1.06,5.26,2.16,7.88,3.3l.49-1.12Q282.27,86.1,274.88,83.28Z"/><path class="cls-8" d="M61,113c-2-.27-3.79,2.77-5.9.45.43-4.4,6.21.67,5.71-5.45,13.66-3.06,25.93-8,40-10.86,2,3.9,9.52-2.23,9.9-1.26-1.37-3.72-4.51,3.54-5.82.7,7.68-2.18,14.92-6,23.43-5.86,1.93,2.72,4.84.16,7.14.89.72-2.48-4.33-.53-6-1,2.81-4.11,5-4.64,8.22-2.77,2.56,1.89,9.61,1.89,13.13-.11.18-.07.35-.17.31-1.21-1.4-1-6.22,2.3-4.79-2.48q6.18,0,12.36.21l3,.12c1.89,0,.09-2.05-.86-1.25-1.43-.38-7.43.66-5.41-1.4-3.49-3.79-7.84.28-11.24,1.12,0,.4,0,.82,0,1.21-2.31,0-4.62.07-6.93.13q-5.73.17-11.46.53c-8-1.81-15.4,7-22.08,3.37,2.12-3.23,6.62-.11,8.72-3.48-9.19,1.74-20.07.24-26.95,7.62,4.54,1.12,9.28-5.07,12.92-.94l-3.26.5C93,93,89.4,91.16,88,94.29l-.88.16c-9.06.8-14.53,5.29-23,7.62-2.18-1.74-4.81,0-6.93.63-1.31.36-5.66,1.55-4.08-.08,2.75-2.81,7.08.43,11.26-4.39-4.13.06-8,4.56-12.3.88-2.09-.22-4,2.89-6.18.61,1.71-1.38,5.12.11,5.78-3-1.58.21-3.06,2.06-4.83-1.09,1.11-.87,5.93-.17,2.55-3.31q5.35-1.61,10.74-3c1.48-1.29,5.22-.05,1.8.78-.74.23-1.72.4-2.68.71-4.89,1.56-.08.78,1.22,2.2-1.27,1.16-4.17-.53-4.4,2.46C64,92.67,72,92.23,78.64,88.66c-4.3-2.27-8.77,2.89-13.1-.78,6.25-3,14.95-3.19,21.63-7.06C82.61,81,78,84,73.49,82.28c-1.9,1-9.49,1.64-4.23-.3,12.56-1.82,25.32-6.72,37.26-6.48-.46.76-2-1.24-1.71,1.44,9.44-3.87,20.69-2.63,30.92-3.63q3.12-.09,6.23-.14c17.75-.3,33.53-4.54,51.17-.63l.94.13c-.94,2.4-.17,3.46.12,3.7,3.25,2.67,11.94-2,15.12,2.43l3.69.7c-1.05,2.64-2.42,0-3.6.56-2.49.36-5.26-2.57-7.56-.07,2.16-1.24,3.18,2.42,3.77,1.87-3.45,3.22-10.61-4.58-14.67-2.23-3.21,0-6.82-1.09-3.84-1.7,1.44-.31,6.78,2.14,8.47-.13,1.69-.43,5.26,2.22,5.73-.37-2.17.46-4.71-2.35-6.66.24q-7.23-1-14.51-1.72c-1.15-1-1.16-1-2.48-.23-2.44-3.07-6.69-1-9.84-2-2.32-1.49,2-1.29,2.89-1,1.63-.69,3.81,1.88,5.09-.84-6.12-1.45-11.7.4-17,2.67.71.76,2.31-1.45,2.43,1.31-15.72-1-33.63-4-48.4,2.63,2.42.56,5.39-2.13,7.47.56-3.34,1.15-10.52.13-14.7,3.93,11.33-2.67,22.61,3.49,33.5-1.23-1.45-.75-3.58,1.7-4.6-1.08.61-.75,2.05,1.44,2.09-1.29-3.57.11-7.13.27-10.7.5,2.87-3.85,8.31.77,11.25-3,1.54,0,3.08-.08,4.62-.11,1.78,0,4.65,0,7.09,0,1.86,0,6.3-.8,5.52,1.3-.24.26-.61,0-.64,1.2,3.87,2.25,9,0,12.71,2.93-.37.17-.85-.26-1,1.17,1.77.89,4.54-1.33,5.66,1.57-1.74.81-3.74.17-5.26,2.12,2.83,1,6.7-1.2,8.86,1.84-2.51,0-6.54-.82-8.93-.63-1,.08-4.22-.08-1.85,1.12.68.35,2.78-.07,4.75.28,0,.41,0,.81-.08,1.22-1.87-.12-3.75-.23-5.62-.32-2.57-.13-5.13-.22-7.7-.29-4.17.83,2,1.69,3.51,1.33-2.35,2.75-5.8.24-8.57,1-1.76,0-3.52,0-5.29,0-8.13-.63-21,.14-29.42,4-1.61.7-9.07,2.12-3.66,4.06q-2.3.25-4.59.54a320.82,320.82,0,0,0-39,7.35,1.76,1.76,0,0,0-3.38.88l-2.81.76c2.8,3.9,6.88-2,10.44,2.34q-8.19,2-16.31,4.43-5.35,1.6-10.67,3.42C49.12,115.29,57.26,117.86,61,113ZM52.61,97.68C57.5,95.85,68,102,73.15,94.85c.66-.9-2.19-.93-1.74-.85C66.29,93.15,59.23,96.57,52.61,97.68ZM81,103.12c1.34,2.58,2.84-.15,4.24.38C84,100.89,82.43,103.62,81,103.12Zm-7-9.73c1.31,2.58,2.74-.16,4.09.36L82,93C79.45,90.57,76.68,93.62,74.06,93.39ZM84.7,86.22c1.5,2.86,3.44-1,4.94,1.59,3.92-3.18,9.12-2.14,13.19-4.47,2.68-1.54-3.78-.75-6.54-.31C92,83.66,86.56,83.72,84.7,86.22Z"/><path class="cls-10" d="M87.84,109.22c2.43-.47,4.87-.9,7.3-1.31a13.18,13.18,0,0,1,12.4-1.81q15-1.89,30-2.33c.75,0,1.51,0,2.27-.06,0-2.65-1-.53-1.45-1.19,1.2-3.35,2.65,1,4-1.3-5.42-2.78-12-.07-17.82-.47,2,6.64,3.56-5.67,5.51.88-.11-.37-8.07,1.72-9.33,1.86-4,.33-7.63.72-9.66,1-.07-4.1,3.45,2,2.75-4l-2,.22q-2.3.25-4.59.54C100.78,104,93.74,105.33,87.84,109.22Z"/><path class="cls-10" d="M189.18,106.47l2.26.31q6.33.9,12.65,2.07l1.68.31c.63-2,1.38-1.74.46-2.4C203.47,104.78,193.53,107.13,189.18,106.47Z"/><path class="cls-17" d="M231.24,111.31l2.24.62q9.35,2.64,18.57,5.86c.13-.39.26-.77.4-1.16-1.8.36-1.75-2.19-3.21-2.39,1.56-2.44,2.64.44,4,.09,1.31-2.49,2.09.25,3.2-.16l2.5.91c-1.2-3.63,0-1.41,2.11-3.12.81-2.4-1.12-.77-.57-2.81,1.27-1.73,2.23-.59,3.41-1.33.69-2,.48-2.8-.29-2.72,1.4-1.87,2.45-.49,3.88-2.45.18-2.85-1.41-3.24-2.93-3.69,1.41-2.81,2.1,1.29,3.5-1.31.33-1.32-1.54-.87-.8-4.2,1.92-1.84,1.77,2.39,3.55-1.28.24-5-5.31-1.33-8-4.22,2.51-2.61,4.37,2.31,6.88-.1,3.48-.7-3.86-2.12-3.63-5.22-1.7.23-3.17-2.79-5-.45,1.11.79,2.17,1.65,1.86,4.52-2.82-1.13-5.7-1.72-8.66-.34,1.61.52,4.83,1.58,7.56,2.53,1.92.66,7.26,2.59,3.19,2.43-1.61-.32-3.11-2.25-5,.82,1.41,1.19,3.78,1,3.22,5-.65.46-1-1.89-1.88.62,1.09.17,1.77,1,1.51,3.13-2,3-3.51,1.16-5.17.74-.37,1.28.3,1-.23,2.51-.74.48-1.21-2-2.13.55.42.25,1.29-.17.75,1.55-1,.45-1.77-2.25-3,.27,1.24.6,1.38,2.9,1.92,4.53-1.1.42-1.92-2.32-3.21.19.45.4,3,.18,1.57,1.82-3.13-1.62-6.53.07-9.63-1.9q-8.69-2.73-17.49-5l-1.71-.43C225.75,109.62,229.78,108.07,231.24,111.31Z"/><path class="cls-18" d="M227.78,114.17q-5.25-1.4-10.55-2.61c-1.49-.34-3-.67-4.46-1L210,110l-4.2-.83-1.68-.31a14.8,14.8,0,0,1-12.65-2.07l-2.26-.31-1.13-.15a2.69,2.69,0,0,1-4.8-.6l-.57-.06a166.46,166.46,0,0,1-36.3-2h-1.7c-1.61,0-3.22,0-4.83.08-.76,0-1.52,0-2.27.06A718.84,718.84,0,0,0,56.18,117q-5.35,1.6-10.67,3.42t-10.85,3.91q-6.46,2.47-12.86,5.23l1,2.24q14.27-6.16,29-10.86,6.39-2,12.83-3.8,5.22-1.43,10.46-2.67,3.45-.81,6.92-1.55,7.89-1.68,15.86-3,11.58-1.85,23.26-2.81,5.89-.49,11.82-.76c2.53-.11,5.07-.2,7.61-.25q9-.18,18,.15,3.39.12,6.76.32a313,313,0,0,1,78.55,14.84l2.71.9q5,1.68,10,3.54t9.88,3.88c1.59.66,3.18,1.34,4.76,2,.33-.75.65-1.49,1-2.24q-2.79-1.2-5.61-2.36-4.41-1.82-8.87-3.48-3.66-1.38-7.33-2.65-2.85-1-5.72-1.92-4.24-1.38-8.5-2.64C233.31,115.68,230.55,114.9,227.78,114.17Z"/><path class="cls-9" d="M104.87,96.6c-.79-1-2.52,1.09-4.08.56,2,3.9,9.52-2.23,9.9-1.26C109.32,92.18,106.18,99.44,104.87,96.6Z"/><path class="cls-13" d="M14.53,112.75l1.94,4.48q4.58-2,9.2-3.82c1.73,0,7.11-3.63,2.36-2.24-2.28.68-5.34.42-7.77,1.8-1-2.5,1-1,1.23-1.82C18.81,109.18,16.9,112.6,14.53,112.75Z"/><path class="cls-8" d="M191,93.17c6.24-1.93,11.34,5,18.17,3-9.46-4-20.66-7.75-30.91-6.9,0,.4-.07.81-.11,1.22,3,1.08,7.1-.89,9.32,2.24Z"/><path class="cls-9" d="M150.83,87.79c-5.37-.24-8.44-1.16-13.13.11C140.26,89.79,147.31,89.79,150.83,87.79Z"/><path class="cls-19" d="M13.61,98.57c-2-2.23-3.21.88-4.89.75-.32-.74-.65-1.49-1-2.24C9,96.52,10.32,96,11.6,95.44c-1.78-2.29-2.83.73-4.33.53-.33-.75-.65-1.5-1-2.24,5-3.06,12-3.24,15.85-7.72-5.54,2.36-11.41,2.14-16.83,5.47-.15-.37-.32-.74-.48-1.11q5.75-2.49,11.55-4.76c5.19,1,9.83-3.3,14.84-4.16q3.85-1.33,7.73-2.56,5.11-1.62,10.26-3.09c.12.4.23.79.34,1.18-.93.26-1.87.53-2.8.81-7.24,2.64-15.82,3.65-20.31,10.53,1.88.15,3.51-3,5.55-.68-1.38,2.54-5.23,1.51-5.36,5.81,3.4,4.9,6.48-6.32,9.35-2C34.34,89,28.41,97.23,29.34,99c2.95-1.8,6.13-1.41,9.2-2l.39,1.16c-1.43,3.2-7.73-1.85-6.6,3.59-.2-1,1.64.34,1.58.73-.33,2-2.88-.68-1.48,3.13q4-1.47,8-2.83l.39,1.16c-2.5,1.69-6.86.66-8.17,4.17,2.75-2,5.84-.59,8.67-1.76l.39,1.15c-3.4,3.15-7.71,4.87-11.13,7.9,3.18-1,6.54-.31,9.61-2.22,1,3.37-2.47-.28-1.41,3.08-1.62,1.33-5.14-.13-4.65,4.32,1.17.15,3.48-2.66,4-.18-1.67.54-3.48.92-3.49,3.91q-6.46,2.47-12.86,5.23c-.65-1.49-1.3-3-1.94-4.48l4.33-1.84c-2-2.22-3.15.86-4.82.72-1-2.23-1.93-4.47-2.9-6.71q4.58-2,9.2-3.82c1.73,0,7.11-3.63,2.36-2.24-2.28.68-5.34.42-7.77,1.8-1-2.5,1-1,1.23-1.82-2.68-2-4.59,1.45-7,1.6q-2.65-6.15-5.33-12.31C10.67,99.81,12.14,99.18,13.61,98.57ZM20.88,126c1.65,2.34,2.41-.55,3.71-.25C23,123.35,22.18,126.24,20.88,126Z"/><path class="cls-11" d="M53.33,79.72,56.11,79c-.11-.4-.21-.79-.31-1.18-2.9.77-5.78,1.58-8.66,2.43-3.33.14-6.48,3.66-9.9,1.8,3.18-1,6.36-2,9.56-3l.31-.09c-.12-.39-.23-.78-.35-1.17-7.24,2.64-15.82,3.65-20.31,10.53,1.88.15,3.51-3,5.55-.68-1.38,2.54-5.23,1.51-5.36,5.81,3.4,4.9,6.48-6.32,9.35-2C34.34,89,28.41,97.23,29.34,99c2.95-1.8,6.13-1.41,9.2-2,2.3.07,4.41-3.14,6.84-1-2.15.68-4.31,1.38-6.45,2.11-1.43,3.2-7.73-1.85-6.6,3.59-.2-1,1.64.34,1.58.73-.33,2-2.88-.68-1.48,3.13q4-1.47,8-2.83c1.51.33,2.78-2.6,4.43-.17-1.35.43-2.69.88-4,1.33-2.5,1.69-6.86.66-8.17,4.17,2.75-2,5.84-.59,8.67-1.76,2.85-1.85,3.76.91.39,1.15-3.4,3.15-7.71,4.87-11.13,7.9,3.18-1,6.54-.31,9.61-2.22.82.49,1.35-2.06,2.36.48-.74,1.68-2.19,2.24-3.77,2.6-1.62,1.33-5.14-.13-4.65,4.32,1.17.15,3.48-2.66,4-.18-1.67.54-3.48.92-3.49,3.91q5.4-2.06,10.85-3.91c3.61-5.11,11.75-2.54,15.52-7.38-2-.27-3.79,2.77-5.9.45.43-4.4,6.21.67,5.71-5.45l-1.41.39-.28.08c-2.34,4.86-13.59-2.22-14.92.75.38-.86,3-.6,7.09-2.26l2.27-.69c.53-3.11,3.78-1.55,5.38-2.82,1.71-.48,3.44-1,5.16-1.4-2.18-1.74-4.81,0-6.93.63-1.31.36-5.66,1.55-4.08-.08,2.75-2.81,7.08.43,11.26-4.39-4.13.06-8,4.56-12.3.88-2.09-.22-4,2.89-6.18.61,1.71-1.38,5.12.11,5.78-3-1.58.21-3.06,2.06-4.83-1.09,1.11-.87,5.93-.17,2.55-3.31-1.39.41-2.77.83-4.15,1.27-1.94-.24-3.64,2.84-5.71.55,1.82-3.35,6.22-2.62,9.16-4.16l3.6-1.06c-.7-3.24-1.18,1.25-1.88-2-1.72.5-3.42,1-5.13,1.54-2.08-.61-3.84,4-6.16-.61C43.35,84.36,47.45,80.49,53.33,79.72Z"/><path class="cls-9" d="M168.33,65.24q-7.65-.45-15.32-.59c-1.22,3.59-4.55-1.24-5.74,2.39,3.9-.76,13.38,1.11,18.7.51.47-.07,4.65-3.12,4.91-2.14C169.71,61,168.15,69,168.33,65.24Z"/><path class="cls-13" d="M5.32,91.48l1,2.25c5-3.06,12-3.24,15.85-7.72C16.61,88.37,10.74,88.15,5.32,91.48Z"/><path class="cls-10" d="M158.2,62.33q4.5.14,9,.39c0-.39.05-.8.07-1.2q-11.59-.66-23.21-.57c0,.4,0,.81,0,1.21,2,0,4.07,0,6.1,0s4.08.06,6.11.11Z"/><path class="cls-6" d="M167.26,61.52c0,.4,0,.81-.07,1.2-1.11,1.88-7,1.76-9-.39l-1.93-.06a3.83,3.83,0,0,1-6.11-.11c-2,0-4.07,0-6.1,0q-7.25.06-14.46.41c1.37,5.46,4.9.74,7.13,2.18.32,3.8-6.6-2.22-5.21,5.07,2.84.12,8.11-.48,12-.33.85.75,2.49-1.57,2.83,1.2l-3.14,0c-2,0-4,.06-6,.12-.37-.19-.55.29-.59,1.24,1.69.74,4.14-1.71,5.33,1.1,17.75-.3,33.53-4.54,51.17-.63a2.37,2.37,0,0,1,4.38.61c13.2-2.17,26.36,4.75,40.27,7.07.83.14,4.51,2.2,2.78-.5L237.79,79c-1.56-2.06-4.12-2.39-6.52-2.93,1.83-2.46,3.74.49,5.59.16.56,0,2.65,1.39,2.19-.69-4.81-2.13-11.21-1.18-15.09-5l-4.43-1c-.45,4.14-6,1.19-9.31.68-9.17-1.45-16.63-3.48-26.29-3.76l-.32,0c0,2.79,1.95.67,2.73,1.52,1.69.19,3.37.39,5.06.61,4.72,1.4,10.79-.15,14.63,3.4-4.92-.83-9.84-1.57-14.78-2.19-1.68-.22-3.36-.42-5.05-.61l-.31,0c-11.41-2.88-25.15,2.21-34.53.3,1.07-.76,2.89,1.62,3.49-1.16-5.58.66-10.48,1.57-14.87-1.23,1.62-.28,3.66,1,4.41-2.5-.86-.45-3.86,1.16-3.21-1.19,4.51,1.73,6.36,1.47,11.83,1.23q7.67.13,15.32.59c1.31-3.55,4.27,1.46,5.6-2.07-1.66-.92-4.37,1.31-5.38-1.58Z"/><path class="cls-7" d="M173.93,63.17c2.68.2,5.35.44,8,.7,0-.39.07-.8.11-1.2-4.5-.45-9-.8-13.51-1.08C169.56,64.48,172.27,62.25,173.93,63.17Z"/><path class="cls-10" d="M224,70.56q8.83,1.95,17.59,4.37c.11-.39.22-.78.32-1.17L240,73.25c-1.57-.43-3.14-.84-4.72-1.24q-9-2.28-18-4.1L217,69.1l2.53.51Z"/><path class="cls-13" d="M235.27,72c1.58.4,3.15.81,4.72,1.24.11-.4.21-.8.32-1.18-1.58-.43-3.16-.84-4.73-1.24C235.47,71.22,235.37,71.61,235.27,72Z"/><path class="cls-6" d="M138.4,102.52c1.2-3.35,2.65,1,4-1.3-5.42-2.78-12-.07-17.82-.47,2,6.64,3.56-5.67,5.51.88-.11-.37-8.07,1.72-9.33,1.86-4,.33-7.63.72-9.66,1-.07-4.1,3.45,2,2.75-4l-2,.22c-5.41-1.94,2-3.36,3.66-4.06,8.41-3.83,21.29-4.6,29.42-4-9.26,4.52-20.82,1.15-29.75,6.45,13.43.66,27.05-.18,40.17-.25l0,1.22-4-.08c-2.54-.66-4.57,1-6.59,2.42,0,.4,0,.82,0,1.22-1.61,0-3.22,0-4.83.08C139.84,101.06,138.82,103.18,138.4,102.52Zm-22.05.14c-.51-2.45-1.35-2.51-2.24-2.23C114.51,103.9,115.52,102.53,116.35,102.66Z"/><path class="cls-8" d="M240.51,83.5l-.33,1.18,2.73.77c3.06-2.91,5.81,3,8.9.13q-2.88-.9-5.78-1.76c2-3.19,3.61,2.31,5.59-.85-1.5-.32-2.89-.81-3-3.46.85-.5,1.59,2.06,2.52-.51-2.16-1.5-6-.12-7.12-3.38l-2.5-.69q-8.75-2.42-17.59-4.37c3.88,3.77,10.28,2.82,15.09,5,.46,2.08-1.63.69-2.19.69-1.85.33-3.76-2.62-5.59-.16,2.4.54,5,.87,6.52,2.93l2.77.75c1.73,2.7-1.95.64-2.78.5-13.91-2.32-27.07-9.24-40.27-7.07l-.32,0c2.85,1.85,9.75,4.91,12.07.72,7.77,4.28,17.83,4,26.36,7.09C237.35,81.16,245.28,83.41,240.51,83.5Z"/><path class="cls-9" d="M183,103.23q2.85.33,5.69.7c.06-.4.11-.81.16-1.21-.49-.8-2.06,1.25-1.84-1.47,3.19-3.09,7.16,2,10.4-1q-5-.8-10.1-1.43c-1.12,2.69-2.83.08-4.18.72q-5.19-.59-10.39-1c0,.4-.07.81-.1,1.21,3.56,1.09,8.23-.88,11.07,2.32C183.36,101.85,183.13,102.3,183,103.23Z"/><path class="cls-19" d="M257.62,123.7q4.45,1.67,8.87,3.48c.33-.94.2-1.24.66-2.37,1,0,1.58,2.11,3.1-1.36-1.64-3-6.23-1.75-6.59-6.59,4.69,1.8,10.16-1.62,15.71-4.11l.48-1.12c-.74-1.17-3.43.25-2.92-2.57,1.32.52,3.3-3,4.38-.79.8-1.86,1.61-3.73,2.42-5.59-1.4-.88-3.78-.44-3.14-4,.89-.42,1.34,2.2,2.53-.25-1.87-.62-1.81-1.13.36-2.5-1.47-.48-3.85-2.46-3.24-4,2.59,1,6-3.66,8.33-.47l.48-1.11c-2.62-1.14-5.24-2.24-7.88-3.3-1.87,2.26-3.1-.78-4.72-.57l-2.74-1.06c.16,2.3,1.26,3.26,2.76,3.69-1.12,1.51-2,1.31-3,1.46,0,3,3.14,1.67,4.35,3-.72,1.5-1.13.64-1.65.66-1,2.44.85.93,1,1.73-1.3,2.05-2.06-.12-3.27,1.32-1,2.44.84.92,1,1.72-1,2.45-1.71,2.14-2.36,1.68-1.2,1.53,1.61,1.89,1.71,3.31-1.71,2.1-2.89.36-4.53,2.14-.57,1.65.7.73,0,2.6-1.67,2-3,1.61-4.3.95-.91,2.5-.23,2.72.53,2.82-2,3-3.26,1.08-4.79.78.63,3.32-1,2.26-2.24,1.77l-2.5-.91c-1.33,2.47-2.09-.26-3.2.16-1.37.35-2.45-2.53-4-.09,1.46.2,1.41,2.75,3.21,2.39.67,1.05,3.09-.57,2.62,2.23.94,1,4.78.32,3.68,2.65-1.09.4-1.81-2.34-3.15.14C256.08,122.62,258.3,121,257.62,123.7Z"/></g><path class="cls-20" d="M272.51,128.6a316.23,316.23,0,0,0-251.12,0c.46,1.06.92,2.12,1.37,3.18a312.69,312.69,0,0,1,248.37,0Z"/><path class="cls-4" d="M4.36,135.7a359.05,359.05,0,0,1,285.18,0q-9.21,21.27-18.41,42.53a312.78,312.78,0,0,0-248.37,0Q13.56,157,4.36,135.7Z"/><g class="cls-5"><path class="cls-6" d="M62.05,156.66l2.81-.76c1.13-.3,2.25-.59,3.38-.87a318.94,318.94,0,0,1,39-7.36c-6.44,2.81-13.48,4.12-19.38,8q-7.7,1.47-15.35,3.33C68.93,154.62,64.85,160.56,62.05,156.66Zm14.35-1.09c1.66,2.51,3.36-.32,5,.14,1.59-.33,3.18-.66,4.77-1C83,152.47,79.65,155.65,76.4,155.57Z"/><path class="cls-7" d="M107.54,152.55a13.16,13.16,0,0,0-12.4,1.82Q101.34,153.34,107.54,152.55Z"/><path class="cls-8" d="M144.68,150.09h1.7c1.42,0,2.84,0,4.26,0,.08-2.64-1-.56-1.41-1.24.07-3.49,2,1.08,2-2.41-2.54-.66-4.57,1-6.59,2.41C144.67,149.27,144.67,149.68,144.68,150.09Z"/><path class="cls-9" d="M150.64,150.1l3.13.05c.45-2.77,2-.41,2.87-1.15,0-3.4,1.53,1,1.51-2.38-1,0-1.91-.07-2.87-.09-1.34,0-2.68-.06-4-.08-.08,3.49-2-1.08-2,2.41C149.64,149.54,150.72,147.46,150.64,150.1Z"/><path class="cls-8" d="M153.77,150.15c3.12.07,6.25.19,9.37.35l.06-1.23c-1.24-.06-2.47-.12-3.71-.16l-2.85-.11C155.76,149.74,154.22,147.38,153.77,150.15Z"/><path class="cls-6" d="M163.2,149.27l-.06,1.23q9.78.5,19.54,1.61l.57.07c1.6.18,3.2.38,4.8.59l1.13.15c4.35.66,14.29-1.69,17,.3.92.66.17.39-.46,2.4,1.4.26,2.8.54,4.2.82.71-1.91,2.92-1.45,2.8.59,1.49.32,3,.65,4.46,1a10.17,10.17,0,0,1,10.55,2.6q4.16,1.11,8.29,2.32c.94-3.37-2.19.46-1.26-2.91l-1.66-.47c-1.66-1.3-4.87.33-5.55-2.77-.93-.25-1.87-.49-2.8-.72q-6.47-1.63-13-3-5.81-1.2-11.63-2.19l-2.56-.43-4-.61c-1.45,2.63-3.37-.06-5,.53q-2.84-.37-5.69-.71l-.57-.06c-1.83,2.64-4.31,0-6.38.57Q169.61,149.61,163.2,149.27Z"/><path class="cls-10" d="M210,156.44l2.8.59C212.89,155,210.68,154.53,210,156.44Z"/><path class="cls-10" d="M217.23,158q5.29,1.2,10.55,2.6A10.17,10.17,0,0,0,217.23,158Z"/><path class="cls-8" d="M236.07,162.94q4.26,1.26,8.5,2.64c-1-5.58-6.65-3.49-9.76-5.55C233.88,163.4,237,159.57,236.07,162.94Z"/><path class="cls-9" d="M244.57,165.58c1.91.62,3.82,1.27,5.72,1.93.85-2.56-1-.89-1.23-1.72,1.54-3.26,2.25,2,3.81-1.26l-.82-.29q-9.23-3.23-18.57-5.86c-.11.39-.23.79-.33,1.18l1.66.47C237.92,162.09,243.56,160,244.57,165.58Z"/><path class="cls-11" d="M250.29,167.51q3.68,1.28,7.33,2.64c.68-2.7-1.54-1.07-2-2.05,1.34-2.47,2.06.27,3.15-.14,1.1-2.33-2.74-1.67-3.68-2.65l-2.2-.78c-1.56,3.24-2.27-2-3.81,1.26C249.31,166.62,251.14,165,250.29,167.51Z"/><path class="cls-12" d="M266.49,173.64q2.82,1.14,5.61,2.36,3.64-8.4,7.27-16.8c-5.55,2.5-11,5.92-15.71,4.11.36,4.84,4.95,3.63,6.59,6.59-1.52,3.48-2.14,1.35-3.1,1.36C266.69,172.39,266.82,172.7,266.49,173.64Z"/><path class="cls-8" d="M76.4,155.57c1.66,2.51,3.36-.32,5,.14,1.59-.33,3.18-.66,4.77-1C83,152.47,79.65,155.65,76.4,155.57Z"/><path class="cls-11" d="M156.64,149l2.85.11c5.09-2.66,11.16.17,16.63-.13,2.09.19,4.18.41,6.27.64l.57.06c.17-.93.4-1.37.71-1.14-2.84-3.2-7.51-1.22-11.07-2.31-1.53-.13-3.07-.24-4.6-.34l-2.31-.14c-1.6,2.74-4.14.19-6.1.92l-1.44,0C158.17,150,156.62,145.6,156.64,149Z"/><path class="cls-9" d="M159.49,149.11c1.24,0,2.47.1,3.71.16q6.41.33,12.81.92c0-.4.07-.8.11-1.21C170.65,149.28,164.58,146.45,159.49,149.11Z"/><path class="cls-8" d="M176.12,149c0,.41-.08.81-.11,1.21,2.07-.61,4.55,2.07,6.38-.57C180.3,149.39,178.21,149.17,176.12,149Z"/><path class="cls-13" d="M20.88,172.4c1.65,2.34,2.41-.55,3.71-.24C23,169.8,22.18,172.69,20.88,172.4Z"/><path class="cls-10" d="M116.35,149.11c-.51-2.44-1.35-2.51-2.24-2.22C114.51,150.35,115.52,149,116.35,149.11Z"/><path class="cls-8" d="M188.81,149.18c-.05.4-.1.81-.16,1.21,1.64-.59,3.56,2.1,5-.53l-3.42-.49Z"/><path class="cls-8" d="M227.6,156.79c.68,3.1,3.89,1.47,5.55,2.77.1-.39.22-.79.33-1.18l-2.24-.62Z"/><path class="cls-8" d="M155.31,145.31l0,1.22c1,0,1.92.05,2.87.09l1.44,0c0-.41,0-.81,0-1.22l-3.75-.13Z"/><path class="cls-9" d="M159.64,145.45c0,.41,0,.81,0,1.22,2-.73,4.5,1.82,6.1-.92C163.67,145.63,161.66,145.53,159.64,145.45Z"/><path class="cls-9" d="M190.24,149.37l3.42.49,4,.61A5.32,5.32,0,0,0,190.24,149.37Z"/><path class="cls-9" d="M200.21,150.9q5.83,1,11.63,2.19a14.68,14.68,0,0,1,13,3c.93.23,1.87.47,2.8.72l3.64,1c-1.46-3.24-5.49-1.69-6.69-5.52-1.42-.35-2.84-.7-4.26-1C213.62,152.61,206.74,148,200.21,150.9Z"/><path class="cls-8" d="M211.84,153.09q6.49,1.35,13,3A14.68,14.68,0,0,0,211.84,153.09Z"/><path class="cls-13" d="M19.37,170.4c.17.37.33.75.49,1.12,1.44-.63,2.89-1.24,4.33-1.84C22.19,167.46,21,170.54,19.37,170.4Z"/><path class="cls-9" d="M64.86,155.9c1.13-.3,2.25-.59,3.38-.87A1.76,1.76,0,0,0,64.86,155.9Z"/><path class="cls-6" d="M155.89,145.32l3.75.13c2,.08,4,.18,6.05.3l2.31.14c0-.4.05-.81.08-1.22C164.1,145.22,159.45,142.57,155.89,145.32Z"/><path class="cls-8" d="M168.08,144.67c0,.41-.06.82-.08,1.22,1.53.1,3.07.21,4.6.34,0-.41.07-.81.1-1.22l-2.6-.2Z"/><path class="cls-11" d="M38.83,162.72c1.58-.37,3-.92,3.77-2.61-1-2.54-1.54,0-2.36-.48C41.29,163,37.77,159.35,38.83,162.72Z"/><path class="cls-6" d="M81,149.57c1.34,2.59,2.84-.15,4.24.38C84,147.35,82.43,150.08,81,149.57Z"/><path class="cls-6" d="M170.1,144.81l2.6.2c3.47.28,6.93.61,10.39,1,0-.41.09-.82.14-1.21C178.34,145.2,174.25,141.9,170.1,144.81Z"/><path class="cls-8" d="M183.23,144.81l-.14,1.21c1.35-.65,3.06,2,4.18-.73Z"/><path class="cls-8" d="M59.43,154.87c-3.18-2.61-4.68.53-8.11-1.44-4,1.66-6.71,1.4-7.09,2.27,1.33-3,12.58,4.1,14.92-.76Z"/><path class="cls-6" d="M167.87,143.44c-3.4-3.95-4.32,1.16,0,0Z"/><path class="cls-8" d="M226.26,152.67q8.79,2.22,17.49,5c1-3.34-.51-2.49-1.24-2.94,1-2.57,1.73,0,2.63-.46-.09-3.39-3-6.52-5.36-9.27q-4.8-1.4-9.65-2.64l-2-.52c3.3,2,3.9,8.69,8.29,8.53-2.39,2.26-4.6-.85-6.92-.62-.4,1.56.22,1.2,0,2.51-1.2-1.14-1.29-.56-2.85-.74Z"/><path class="cls-6" d="M188.29,144.19c-3.16-4.16-4.4.89,0,0Z"/><path class="cls-6" d="M150.18,139.11a32.39,32.39,0,0,0,18.8.73l-1.46-.09-3.23-.19c-.74.15-1.19-.69-1.35-2.51-2.57-.12-5.13-.22-7.7-.28-4.17.82,2,1.68,3.51,1.32C156.4,140.84,153,138.33,150.18,139.11Z"/><path class="cls-6" d="M176.32,140.42c.43,2.86,2.58.68,3.68,1.59C179.59,139.14,177.42,141.31,176.32,140.42Z"/><path class="cls-8" d="M53.59,152.75c1.59-1.31,4.8.27,5.38-2.83C57.37,151.2,54.12,149.64,53.59,152.75Z"/><path class="cls-9" d="M128.3,137.19c1.93,2.73,4.84.16,7.14.89.72-2.48-4.33-.53-6-1Z"/><path class="cls-11" d="M41.37,152.8l.39,1.16C45.13,153.71,44.22,151,41.37,152.8Z"/><path class="cls-6" d="M168.64,136.16c0,.4,0,.81-.08,1.21q9.47.63,18.89,1.8c-2.22-3.14-6.36-1.16-9.32-2.25C175,136.62,171.8,136.36,168.64,136.16Z"/><path class="cls-6" d="M88,140.75c2.23-1.23,5.74.63,7.16-2.46C93,139.46,89.4,137.61,88,140.75Z"/><path class="cls-9" d="M168.64,136.16c3.16.21,6.33.46,9.49.76,0-.41.07-.81.11-1.21-1.19-.12-2.38-.22-3.57-.32-2.51,0-6.54-.82-8.93-.63-1,.08-4.22-.09-1.85,1.12C164.57,136.22,166.67,135.81,168.64,136.16Z"/><path class="cls-11" d="M40.48,149.23l.39,1.16,4-1.33C43.26,146.64,42,149.56,40.48,149.23Z"/><path class="cls-6" d="M52.61,144.13c4.89-1.82,15.43,4.29,20.54-2.83.66-.9-2.19-.92-1.74-.85C66.29,139.6,59.23,143,52.61,144.13Z"/><path class="cls-6" d="M74.06,139.84c1.31,2.59,2.74-.15,4.09.36l3.84-.78C79.45,137,76.68,140.08,74.06,139.84Z"/><path class="cls-10" d="M125.84,131.22a11.86,11.86,0,0,0,11.46-.52Q131.57,130.87,125.84,131.22Z"/><path class="cls-8" d="M241.53,145.48c3.54,2,7.27.19,11-.39-4-1.32-8-2.56-12-3.73C240.15,143.94,242.06,142.63,241.53,145.48Z"/><path class="cls-9" d="M144.23,130.57h2.12q6.18,0,12.36.2l3,.12c1.89.05.09-2-.86-1.25-1.43-.38-7.43.67-5.41-1.4-3.49-3.78-7.84.28-11.24,1.12C144.23,129.76,144.23,130.17,144.23,130.57Z"/><path class="cls-8" d="M202.56,135.21q7.91,1.33,15.77,3c.26-.91.55-1.33.85-1.06-4.42-4.68-11.05-.57-16.42-3.19C202.7,134.41,202.63,134.82,202.56,135.21Z"/><path class="cls-12" d="M279.85,158.08c.49-1.11,1-2.23,1.46-3.35-1.08-2.27-3.06,1.31-4.38.78C276.42,158.33,279.11,156.91,279.85,158.08Z"/><path class="cls-6" d="M84.7,132.68c1.5,2.85,3.44-1.05,4.94,1.59,3.92-3.19,9.12-2.14,13.19-4.48,2.68-1.53-3.78-.74-6.54-.31C92,130.11,86.56,130.18,84.7,132.68Z"/><path class="cls-8" d="M236.67,140.28c1-3.35,1.75,1.58,2.73-1.77-2.08-.15-4.15-2.27-6.27-.45C229.21,138.33,235.29,140.14,236.67,140.28Z"/><path class="cls-11" d="M38.54,143.46l.39,1.15c2.14-.72,4.3-1.42,6.45-2.1C43,140.31,40.84,143.52,38.54,143.46Z"/><path class="cls-8" d="M242.07,139.28c3.76-.55,7.1,5.47,11.11.88-1.41-.61-3.33-.38-3.8-2.49,3-6-2.62-3.46-4.35-5.14-4,2.22-9.23-3.48-12.17,1.68-2.17-2.28-3.09,2.16-3.9.27C231,139.2,241.42,133.43,242.07,139.28Z"/><path class="cls-8" d="M45.25,140c-.36-3.67,3.78.05,3.45-3.61-2.94,1.54-7.34.81-9.16,4.16C41.61,142.84,43.31,139.76,45.25,140Z"/><path class="cls-10" d="M137.09,123.39c1.54,0,3.08-.08,4.62-.1C139.68,120,128.39,123.84,137.09,123.39Z"/><path class="cls-8" d="M52.3,135.34c1.58-1.11,4.5.15,5.1-2.69-2.37-2.29-4.65.84-7,.69C51.12,136.58,51.6,132.09,52.3,135.34Z"/><path class="cls-8" d="M251,135.62c-.88,5.44,7.07.52,0,0Z"/><path class="cls-9" d="M194.64,124.12l.93.13c1.69-.43,5.26,2.22,5.73-.37C199.13,124.35,196.59,121.54,194.64,124.12Z"/><path class="cls-14" d="M283.73,149.13q2.41-5.59,4.84-11.2c-2.33-3.19-5.74,1.46-8.33.48-.61,1.53,1.77,3.5,3.24,4-2.17,1.37-2.23,1.89-.36,2.5-1.19,2.46-1.64-.16-2.53.26C280,148.7,282.33,148.26,283.73,149.13Z"/><path class="cls-8" d="M45.29,134.87c.93-3.26,2.25-2.25,4.14-3.78-.45-1.55-.84-.92-1.29-2.17,1.52-1.28,4.71.31,5.19-2.74-5.88.76-10,4.64-14.2,8.09C41.45,138.85,43.21,134.26,45.29,134.87Z"/><path class="cls-10" d="M135.69,118.55l0,1.22q3.12-.1,6.23-.15c-1.19-2.81-3.64-.36-5.33-1.1Z"/><path class="cls-13" d="M8.72,145.77l.48,1.13q2.21-1,4.41-1.87C11.63,142.8,10.4,145.9,8.72,145.77Z"/><path class="cls-8" d="M135.69,118.55l.94,0c0-1,.22-1.42.59-1.24q3-.07,6-.11l3.14,0c-.34-2.77-2-.46-2.83-1.2-3.86-.16-9.13.44-12,.32l-.63,0c0,1-.19,1.43-.57,1.25-2.46-.8-5.8,1.76-1.5,1.29C131.11,118.72,133.4,118.63,135.69,118.55Z"/><path class="cls-8" d="M235.61,129.89c.11-.39.21-.79.32-1.18l-4.9-1.26C231.37,130.44,234.28,128.72,235.61,129.89Z"/><path class="cls-9" d="M235.93,128.71c-.11.39-.21.79-.32,1.18,1.53.4,3,.82,4.57,1.24l.33-1.18Z"/><path class="cls-8" d="M85.17,121.43c7.2,1.59,14.89-2,22.31-2C100.35,117.33,92.53,120.92,85.17,121.43Z"/><path class="cls-8" d="M186.2,115.69c.05-.41.09-.81.14-1.21-.78-.86-2.68,1.26-2.73-1.52-1.9-.2-3.81-.39-5.72-.55a3.76,3.76,0,0,1,6,.58c9.66.27,17.12,2.31,26.29,3.76,3.32.51,8.86,3.45,9.31-.68l-2.53-.52c-2.29-1.28-6,.5-7.4-2.63q-3-.54-6.06-1c-2.89,2.4-6.34-.56-9.44-.17q-6.07-.81-12.15-1.41-4-.39-8-.69c-1.33,3.53-4.29-1.49-5.6,2.07-.18,3.78,1.38-4.28,2.55.16-.26-1-4.44,2.07-4.91,2.15-5.32.59-14.8-1.28-18.7-.52,1.19-3.63,4.52,1.21,5.74-2.39-5.47.25-7.32.5-11.83-1.23-.65,2.35,2.35.74,3.21,1.19-.75,3.53-2.79,2.22-4.41,2.5,4.39,2.8,9.29,1.9,14.87,1.24-.6,2.78-2.42.4-3.49,1.16,9.38,1.9,23.12-3.19,34.53-.31Z"/><path class="cls-10" d="M193.13,119l.94.13,3.12.44.32,0A2.37,2.37,0,0,0,193.13,119Z"/><path class="cls-13" d="M7.27,142.42l.48,1.11,3.85-1.64C9.82,139.6,8.77,142.62,7.27,142.42Z"/><path class="cls-8" d="M55.8,124.24c.1.4.2.79.31,1.18q3.7-1,7.43-1.9C61,121.22,58.37,124.38,55.8,124.24Z"/><path class="cls-9" d="M186.34,114.48c-.05.4-.09.8-.14,1.21,1.69.19,3.37.39,5.05.6l.15-1.21C189.71,114.87,188,114.67,186.34,114.48Z"/><path class="cls-8" d="M191.4,115.08l-.15,1.21q7.41.94,14.78,2.2C202.19,114.94,196.12,116.49,191.4,115.08Z"/><path class="cls-8" d="M47.14,126.68c-.11-.39-.23-.79-.34-1.17q-4.8,1.41-9.56,3C40.66,130.33,43.81,126.81,47.14,126.68Z"/><path class="cls-8" d="M64.84,120.7c2.41,2.33,5-.73,7.46-.44,2.5-.55,5-1.06,7.51-1.55q7.53-1.45,15.11-2.58C85.08,114.7,74.76,119.15,64.84,120.7Z"/><path class="cls-8" d="M46.76,124.24l.35,1.18c.93-1.09,3.51.62,3.38-2.25l-.93.26Z"/><path class="cls-9" d="M183.61,113l.32,0a3.76,3.76,0,0,0-6-.58C179.8,112.57,181.71,112.76,183.61,113Z"/><path class="cls-11" d="M49.22,122.25c.12.4.23.79.34,1.18l.93-.26c2.08-.59,4.15-1.15,6.24-1.7-.11-.39-.21-.79-.32-1.18Q52.81,121.24,49.22,122.25Z"/><path class="cls-9" d="M56.41,120.29c.11.39.21.79.32,1.18q7.8-2.06,15.68-3.74c-5-1.83-10.28,1.9-15.37,2.39Z"/><path class="cls-8" d="M72.41,117.73c5.43-1.27,11.24-1.48,15.4-5.42l-2.56.44q-14.34,2.52-28.51,6.2c.1.39.2.79.3,1.17C62.13,119.63,67.38,115.9,72.41,117.73Z"/><path class="cls-10" d="M104.91,111.09c-1.81-.58-4,2.12-5.59-.51q-2.73.36-5.44.77C97.13,113.33,102.07,114.16,104.91,111.09Z"/><path class="cls-8" d="M150.16,108.62a3.84,3.84,0,0,0,6.11.11C154.24,108.67,152.2,108.64,150.16,108.62Z"/><path class="cls-8" d="M158.2,108.78c2,2.15,7.88,2.28,9,.4Q162.7,108.93,158.2,108.78Z"/><path class="cls-9" d="M16.39,132.06c5.19,1,9.83-3.3,14.84-4.16l-.39-1.14q-6.33,2.17-12.61,4.59Z"/><path class="cls-8" d="M30.84,126.76l.39,1.14q3.85-1.32,7.73-2.55c-.12-.38-.25-.77-.37-1.16C36,125,33.42,125.87,30.84,126.76Z"/><path class="cls-6" d="M38.59,124.19c.12.39.25.78.37,1.16q5.11-1.63,10.26-3.1,3.59-1,7.19-2l.63-.17c-.1-.38-.2-.78-.3-1.17-2.1.55-4.19,1.11-6.28,1.7Q44.51,122.32,38.59,124.19Z"/><path class="cls-10" d="M182.06,109.12c0,.4-.08.81-.11,1.2q6.08.6,12.15,1.41c.05-.39.11-.8.16-1.2Q188.17,109.72,182.06,109.12Z"/><path class="cls-6" d="M194.26,110.53c0,.4-.11.81-.16,1.2,3.1-.39,6.55,2.57,9.44.17-1.39-.23-2.77-.44-4.16-.64C197.67,111,196,110.76,194.26,110.53Z"/><path class="cls-6" d="M209.6,112.92c1.41,3.13,5.11,1.35,7.4,2.63l.24-1.19C214.7,113.86,212.15,113.37,209.6,112.92Z"/><path class="cls-6" d="M241.87,120.21c-.1.39-.21.79-.32,1.17l2.5.7q4.68,1.32,9.34,2.78l.36-1.16Q247.84,121.85,241.87,120.21Z"/><path class="cls-8" d="M253.75,123.7l-.36,1.16c2.63,0,5.06,3.32,7.81,1.26Q257.48,124.88,253.75,123.7Z"/><path class="cls-11" d="M271.69,129.84c-.14.38-.29.76-.43,1.13l2.45.92,2.74,1.06c.15-.37.3-.75.44-1.13l-2.44-.94Z"/><path class="cls-15" d="M276.89,131.82c-.14.38-.29.76-.44,1.13,1.62-.2,2.85,2.84,4.72.57C279.75,132.94,278.32,132.38,276.89,131.82Z"/><path class="cls-16" d="M4.36,135.7l.48,1.12q5.75-2.48,11.55-4.76l1.84-.71-.44-1.14Q11,132.81,4.36,135.7Z"/><path class="cls-14" d="M17.79,130.21l.44,1.14q6.27-2.41,12.61-4.59c2.58-.89,5.16-1.74,7.75-2.57q5.91-1.87,11.87-3.54l-.33-1.18Q33.78,124,17.79,130.21Z"/><path class="cls-13" d="M50.13,119.47l.33,1.18c2.09-.59,4.18-1.15,6.28-1.7q14.15-3.69,28.51-6.2l-.21-1.2A357.66,357.66,0,0,0,50.13,119.47Z"/><path class="cls-14" d="M85,111.55l.21,1.2,2.56-.44c2-.33,4-.66,6.07-1q2.72-.41,5.44-.77,3-.4,6.09-.77c0-.41-.1-.81-.14-1.21Q95.13,109.79,85,111.55Z"/><path class="cls-13" d="M105.27,108.6c0,.4.09.8.14,1.21a356.7,356.7,0,0,1,38.64-2.4q11.61-.1,23.21.56l1.29.08q6.76.4,13.51,1.07,6.12.6,12.2,1.41c1.71.23,3.41.47,5.12.73.06-.41.12-.82.18-1.21A359.1,359.1,0,0,0,105.27,108.6Z"/><path class="cls-14" d="M199.56,110.05c-.06.39-.12.8-.18,1.21,1.39.2,2.77.41,4.16.64q3,.48,6.06,1c2.55.45,5.1.94,7.64,1.44q9.06,1.81,18,4.1c.1-.39.2-.78.31-1.18A359.82,359.82,0,0,0,199.56,110.05Z"/><path class="cls-14" d="M240.31,118.52c-.11.39-.21.78-.32,1.18l1.88.51q6,1.65,11.88,3.49,3.74,1.17,7.45,2.42c3.51,1.19,7,2.42,10.49,3.72l2.76,1c.14-.39.29-.77.43-1.14A358,358,0,0,0,240.31,118.52Z"/><path class="cls-16" d="M274.88,129.74c-.14.37-.29.75-.43,1.14l2.44.94c1.43.56,2.86,1.12,4.28,1.7,2.64,1.07,5.26,2.17,7.88,3.3l.49-1.12Q282.27,132.55,274.88,129.74Z"/><path class="cls-8" d="M61,159.48c-2-.27-3.79,2.76-5.9.45.43-4.41,6.21.67,5.71-5.46,13.66-3.06,25.93-8,40-10.85,2,3.89,9.52-2.23,9.9-1.27-1.37-3.71-4.51,3.54-5.82.71,7.68-2.18,14.92-6,23.43-5.87,1.93,2.73,4.84.16,7.14.89.72-2.48-4.33-.53-6-1,2.81-4.12,5-4.65,8.22-2.78,2.56,1.9,9.61,1.89,13.13-.1.18-.07.35-.18.31-1.22-1.4-1-6.22,2.31-4.79-2.47q6.18,0,12.36.2l3,.12c1.89.05.09-2-.86-1.25-1.43-.38-7.43.67-5.41-1.4-3.49-3.78-7.84.28-11.24,1.12,0,.41,0,.82,0,1.22q-3.47,0-6.93.13-5.73.17-11.46.52c-8-1.81-15.4,7-22.08,3.37,2.12-3.23,6.62-.11,8.72-3.47-9.19,1.73-20.07.23-26.95,7.61,4.54,1.12,9.28-5.07,12.92-.93l-3.26.49c-2.22,1.17-5.79-.68-7.16,2.46l-.88.16c-9.06.79-14.53,5.28-23,7.62-2.18-1.74-4.81,0-6.93.63-1.31.36-5.66,1.55-4.08-.09,2.75-2.8,7.08.43,11.26-4.38-4.13.05-8,4.56-12.3.87-2.09-.21-4,2.89-6.18.62,1.71-1.39,5.12.1,5.78-3-1.58.21-3.06,2.05-4.83-1.09,1.11-.88,5.93-.18,2.55-3.32q5.35-1.6,10.74-3c1.48-1.29,5.22-.05,1.8.79-.74.23-1.72.39-2.68.7-4.89,1.57-.08.78,1.22,2.2-1.27,1.16-4.17-.53-4.4,2.47,7.87-2.74,15.92-3.19,22.56-6.75-4.3-2.28-8.77,2.88-13.1-.78,6.25-3,14.95-3.19,21.63-7.07-4.56.17-9.22,3.13-13.68,1.46-1.9,1-9.49,1.64-4.23-.3,12.56-1.81,25.32-6.72,37.26-6.47-.46.76-2-1.25-1.71,1.43,9.44-3.86,20.69-2.62,30.92-3.62q3.12-.1,6.23-.15c17.75-.3,33.53-4.54,51.17-.63l.94.13c-.94,2.41-.17,3.47.12,3.71,3.25,2.66,11.94-2,15.12,2.43,1.23.22,2.46.46,3.69.69-1.05,2.64-2.42,0-3.6.56-2.49.36-5.26-2.57-7.56-.07,2.16-1.23,3.18,2.43,3.77,1.87-3.45,3.22-10.61-4.58-14.67-2.22-3.21,0-6.82-1.09-3.84-1.71,1.44-.3,6.78,2.15,8.47-.13,1.69-.43,5.26,2.22,5.73-.37-2.17.47-4.71-2.34-6.66.24q-7.23-1-14.51-1.71c-1.15-1-1.16-1-2.48-.23-2.44-3.08-6.69-1-9.84-2-2.32-1.5,2-1.29,2.89-1,1.63-.68,3.81,1.88,5.09-.84-6.12-1.44-11.7.4-17,2.67.71.77,2.31-1.45,2.43,1.31-15.72-1-33.63-4-48.4,2.64,2.42.56,5.39-2.13,7.47.56-3.34,1.14-10.52.12-14.7,3.92,11.33-2.67,22.61,3.5,33.5-1.22-1.45-.76-3.58,1.69-4.6-1.09.61-.74,2.05,1.44,2.09-1.29-3.57.11-7.13.28-10.7.5,2.87-3.85,8.31.77,11.25-3,1.54,0,3.08-.08,4.62-.1,1.78,0,4.65-.05,7.09,0,1.86,0,6.3-.79,5.52,1.3-.24.26-.61,0-.64,1.2,3.87,2.26,9,0,12.71,2.93-.37.18-.85-.26-1,1.17,1.77.9,4.54-1.33,5.66,1.58-1.74.8-3.74.17-5.26,2.11,2.83,1,6.7-1.19,8.86,1.85-2.51,0-6.54-.82-8.93-.63-1,.08-4.22-.09-1.85,1.12.68.34,2.78-.07,4.75.28,0,.4,0,.81-.08,1.21-1.87-.12-3.75-.23-5.62-.32-2.57-.12-5.13-.22-7.7-.28-4.17.82,2,1.68,3.51,1.32-2.35,2.75-5.8.24-8.57,1-1.76,0-3.52,0-5.29,0-8.13-.64-21,.13-29.42,4-1.61.7-9.07,2.13-3.66,4.06l-4.59.54a318.94,318.94,0,0,0-39,7.36,1.76,1.76,0,0,0-3.38.87l-2.81.76c2.8,3.9,6.88-2,10.44,2.34q-8.19,2-16.31,4.43-5.35,1.62-10.67,3.42C49.12,161.75,57.26,164.32,61,159.48Zm-8.42-15.35c4.89-1.82,15.43,4.29,20.54-2.83.66-.9-2.19-.92-1.74-.85C66.29,139.6,59.23,143,52.61,144.13ZM81,149.57c1.34,2.59,2.84-.15,4.24.38C84,147.35,82.43,150.08,81,149.57Zm-7-9.73c1.31,2.59,2.74-.15,4.09.36l3.84-.78C79.45,137,76.68,140.08,74.06,139.84Zm10.64-7.16c1.5,2.85,3.44-1.05,4.94,1.59,3.92-3.19,9.12-2.14,13.19-4.48,2.68-1.53-3.78-.74-6.54-.31C92,130.11,86.56,130.18,84.7,132.68Z"/><path class="cls-10" d="M87.84,155.67c2.43-.46,4.87-.9,7.3-1.3a13.16,13.16,0,0,1,12.4-1.82q15-1.87,30-2.33l2.27-.06c0-2.65-1-.53-1.45-1.19,1.2-3.35,2.65,1,4-1.3-5.42-2.77-12-.07-17.82-.46,2,6.64,3.56-5.67,5.51.88-.11-.38-8.07,1.71-9.33,1.85-4,.33-7.63.72-9.66,1-.07-4.11,3.45,2,2.75-4l-2,.21-4.59.54C100.78,150.48,93.74,151.79,87.84,155.67Z"/><path class="cls-10" d="M189.18,152.92l2.26.31q6.33.92,12.65,2.07l1.68.32c.63-2,1.38-1.74.46-2.4C203.47,151.23,193.53,153.58,189.18,152.92Z"/><path class="cls-17" d="M231.24,157.76l2.24.62q9.35,2.64,18.57,5.86c.13-.39.26-.77.4-1.15-1.8.36-1.75-2.2-3.21-2.39,1.56-2.44,2.64.43,4,.09,1.31-2.49,2.09.25,3.2-.17l2.5.91c-1.2-3.63,0-1.41,2.11-3.12.81-2.4-1.12-.77-.57-2.8,1.27-1.73,2.23-.6,3.41-1.34.69-2,.48-2.79-.29-2.72,1.4-1.86,2.45-.48,3.88-2.44.18-2.85-1.41-3.24-2.93-3.7,1.41-2.81,2.1,1.29,3.5-1.3.33-1.33-1.54-.88-.8-4.2,1.92-1.85,1.77,2.38,3.55-1.29.24-5-5.31-1.33-8-4.21,2.51-2.61,4.37,2.3,6.88-.11,3.48-.69-3.86-2.11-3.63-5.22-1.7.24-3.17-2.79-5-.44,1.11.78,2.17,1.64,1.86,4.51-2.82-1.13-5.7-1.71-8.66-.34,1.61.52,4.83,1.59,7.56,2.54,1.92.65,7.26,2.59,3.19,2.43-1.61-.33-3.11-2.26-5,.82,1.41,1.18,3.78,1,3.22,5-.65.47-1-1.89-1.88.62,1.09.18,1.77,1,1.51,3.14-2,3-3.51,1.15-5.17.74-.37,1.27.3,1-.23,2.5-.74.49-1.21-2-2.13.56.42.25,1.29-.18.75,1.55-1,.44-1.77-2.25-3,.26,1.24.6,1.38,2.9,1.92,4.54-1.1.42-1.92-2.32-3.21.18.45.41,3,.18,1.57,1.82-3.13-1.62-6.53.07-9.63-1.9q-8.69-2.73-17.49-5l-1.71-.43C225.75,156.07,229.78,154.52,231.24,157.76Z"/><path class="cls-18" d="M227.78,160.62q-5.25-1.4-10.55-2.6c-1.49-.34-3-.67-4.46-1l-2.8-.59c-1.4-.28-2.8-.56-4.2-.82l-1.68-.32a14.8,14.8,0,0,1-12.65-2.07l-2.26-.31-1.13-.15a2.69,2.69,0,0,1-4.8-.59l-.57-.07a165.84,165.84,0,0,1-36.3-2h-1.7c-1.61,0-3.22,0-4.83.07l-2.27.06a718.84,718.84,0,0,0-81.4,13.21q-5.35,1.62-10.67,3.42t-10.85,3.91Q28.2,173.24,21.8,176l1,2.23q14.27-6.16,29-10.86,6.39-2,12.83-3.8,5.22-1.42,10.46-2.66,3.45-.82,6.92-1.56,7.89-1.68,15.86-2.94,11.58-1.84,23.26-2.82c3.93-.32,7.87-.58,11.82-.75,2.53-.12,5.07-.2,7.61-.26q9-.18,18,.15,3.39.12,6.76.32a312.62,312.62,0,0,1,78.55,14.85l2.71.89c3.34,1.13,6.66,2.3,10,3.54s6.6,2.54,9.88,3.89q2.38,1,4.76,2l1-2.23q-2.79-1.22-5.61-2.36-4.41-1.81-8.87-3.49-3.66-1.36-7.33-2.64c-1.9-.66-3.81-1.31-5.72-1.93q-4.24-1.38-8.5-2.64T227.78,160.62Z"/><path class="cls-9" d="M104.87,143.06c-.79-1.06-2.52,1.08-4.08.56,2,3.89,9.52-2.23,9.9-1.27C109.32,138.64,106.18,145.89,104.87,143.06Z"/><path class="cls-13" d="M14.53,159.2c.65,1.5,1.29,3,1.94,4.48q4.58-2,9.2-3.81c1.73,0,7.11-3.64,2.36-2.24-2.28.68-5.34.41-7.77,1.8-1-2.51,1-1,1.23-1.83C18.81,155.64,16.9,159.05,14.53,159.2Z"/><path class="cls-8" d="M191,139.62c6.24-1.92,11.34,5,18.17,3-9.46-3.95-20.66-7.74-30.91-6.89,0,.4-.07.8-.11,1.21,3,1.09,7.1-.89,9.32,2.25Z"/><path class="cls-9" d="M150.83,134.25c-5.37-.25-8.44-1.16-13.13.1C140.26,136.25,147.31,136.24,150.83,134.25Z"/><path class="cls-19" d="M13.61,145c-2-2.23-3.21.87-4.89.74-.32-.74-.65-1.49-1-2.24l3.85-1.64c-1.78-2.29-2.83.73-4.33.53-.33-.75-.65-1.5-1-2.24,5-3.05,12-3.24,15.85-7.72-5.54,2.36-11.41,2.15-16.83,5.47-.15-.36-.32-.74-.48-1.11q5.75-2.48,11.55-4.76c5.19,1,9.83-3.3,14.84-4.16q3.85-1.32,7.73-2.55,5.11-1.63,10.26-3.1c.12.4.23.79.34,1.18l-2.8.81c-7.24,2.65-15.82,3.66-20.31,10.54,1.88.15,3.51-3,5.55-.69-1.38,2.54-5.23,1.51-5.36,5.81,3.4,4.9,6.48-6.32,9.35-2-1.65-2.48-7.58,5.8-6.65,7.53,2.95-1.8,6.13-1.4,9.2-1.95l.39,1.15c-1.43,3.21-7.73-1.84-6.6,3.6-.2-1,1.64.33,1.58.73-.33,2-2.88-.69-1.48,3.12,2.68-1,5.36-1.92,8-2.83l.39,1.16c-2.5,1.69-6.86.66-8.17,4.18,2.75-2,5.84-.6,8.67-1.77l.39,1.16c-3.4,3.15-7.71,4.86-11.13,7.9,3.18-1,6.54-.32,9.61-2.23,1,3.37-2.47-.28-1.41,3.09-1.62,1.32-5.14-.13-4.65,4.31,1.17.15,3.48-2.66,4-.18-1.67.54-3.48.93-3.49,3.91Q28.2,173.24,21.8,176q-1-2.25-1.94-4.48c1.44-.63,2.89-1.24,4.33-1.84-2-2.22-3.15.86-4.82.72l-2.9-6.72q4.58-2,9.2-3.81c1.73,0,7.11-3.64,2.36-2.24-2.28.68-5.34.41-7.77,1.8-1-2.51,1-1,1.23-1.83-2.68-2-4.59,1.45-7,1.6C12.76,155.1,11,151,9.2,146.9Q11.41,145.94,13.61,145Zm7.27,27.37c1.65,2.34,2.41-.55,3.71-.24C23,169.8,22.18,172.69,20.88,172.4Z"/><path class="cls-11" d="M53.33,126.18l2.78-.76c-.11-.39-.21-.78-.31-1.18-2.9.78-5.78,1.59-8.66,2.44-3.33.13-6.48,3.65-9.9,1.79q4.77-1.55,9.56-3l.31-.09-.35-1.18c-7.24,2.65-15.82,3.66-20.31,10.54,1.88.15,3.51-3,5.55-.69-1.38,2.54-5.23,1.51-5.36,5.81,3.4,4.9,6.48-6.32,9.35-2-1.65-2.48-7.58,5.8-6.65,7.53,2.95-1.8,6.13-1.4,9.2-1.95,2.3.06,4.41-3.15,6.84-1-2.15.68-4.31,1.38-6.45,2.1-1.43,3.21-7.73-1.84-6.6,3.6-.2-1,1.64.33,1.58.73-.33,2-2.88-.69-1.48,3.12,2.68-1,5.36-1.92,8-2.83,1.51.33,2.78-2.59,4.43-.17l-4,1.33c-2.5,1.69-6.86.66-8.17,4.18,2.75-2,5.84-.6,8.67-1.77,2.85-1.85,3.76.91.39,1.16-3.4,3.15-7.71,4.86-11.13,7.9,3.18-1,6.54-.32,9.61-2.23.82.49,1.35-2.06,2.36.48-.74,1.69-2.19,2.24-3.77,2.61-1.62,1.32-5.14-.13-4.65,4.31,1.17.15,3.48-2.66,4-.18-1.67.54-3.48.93-3.49,3.91q5.4-2.06,10.85-3.91c3.61-5.1,11.75-2.53,15.52-7.37-2-.27-3.79,2.76-5.9.45.43-4.41,6.21.67,5.71-5.46l-1.41.4-.28.07c-2.34,4.86-13.59-2.21-14.92.76.38-.87,3-.61,7.09-2.27l2.27-.68c.53-3.11,3.78-1.55,5.38-2.83,1.71-.48,3.44-.94,5.16-1.39-2.18-1.74-4.81,0-6.93.63-1.31.36-5.66,1.55-4.08-.09,2.75-2.8,7.08.43,11.26-4.38-4.13.05-8,4.56-12.3.87-2.09-.21-4,2.89-6.18.62,1.71-1.39,5.12.1,5.78-3-1.58.21-3.06,2.05-4.83-1.09,1.11-.88,5.93-.18,2.55-3.32-1.39.41-2.77.84-4.15,1.27-1.94-.24-3.64,2.84-5.71.55,1.82-3.35,6.22-2.62,9.16-4.16l3.6-1c-.7-3.25-1.18,1.24-1.88-2-1.72.5-3.42,1-5.13,1.53-2.08-.61-3.84,4-6.16-.6C43.35,130.82,47.45,127,53.33,126.18Z"/><path class="cls-9" d="M168.33,111.7q-7.65-.47-15.32-.6c-1.22,3.6-4.55-1.24-5.74,2.39,3.9-.76,13.38,1.11,18.7.52.47-.08,4.65-3.13,4.91-2.15C169.71,107.42,168.15,115.48,168.33,111.7Z"/><path class="cls-13" d="M5.32,137.93l1,2.25c5-3.05,12-3.24,15.85-7.72C16.61,134.82,10.74,134.61,5.32,137.93Z"/><path class="cls-10" d="M158.2,108.78q4.5.15,9,.4c0-.4.05-.81.07-1.21q-11.59-.66-23.21-.56c0,.4,0,.81,0,1.21,2,0,4.07,0,6.1,0s4.08,0,6.11.11Z"/><path class="cls-6" d="M167.26,108c0,.4,0,.81-.07,1.21-1.11,1.88-7,1.75-9-.4l-1.93,0a3.84,3.84,0,0,1-6.11-.11c-2,0-4.07,0-6.1,0q-7.25,0-14.46.41c1.37,5.45,4.9.73,7.13,2.17.32,3.8-6.6-2.22-5.21,5.07,2.84.12,8.11-.48,12-.32.85.74,2.49-1.57,2.83,1.2l-3.14,0q-3,0-6,.11c-.37-.18-.55.29-.59,1.24,1.69.74,4.14-1.71,5.33,1.1,17.75-.3,33.53-4.54,51.17-.63a2.37,2.37,0,0,1,4.38.62c13.2-2.17,26.36,4.75,40.27,7.07.83.14,4.51,2.2,2.78-.5l-2.77-.76c-1.56-2.06-4.12-2.38-6.52-2.93,1.83-2.46,3.74.49,5.59.16.56,0,2.65,1.39,2.19-.68-4.81-2.14-11.21-1.18-15.09-5-1.48-.33-3-.65-4.43-1-.45,4.13-6,1.19-9.31.68-9.17-1.45-16.63-3.49-26.29-3.76l-.32,0c0,2.78,1.95.66,2.73,1.52,1.69.19,3.37.39,5.06.6,4.72,1.41,10.79-.14,14.63,3.41q-7.38-1.26-14.78-2.2c-1.68-.21-3.36-.41-5.05-.6l-.31,0c-11.41-2.88-25.15,2.21-34.53.31,1.07-.76,2.89,1.62,3.49-1.16-5.58.66-10.48,1.56-14.87-1.24,1.62-.28,3.66,1,4.41-2.5-.86-.45-3.86,1.16-3.21-1.19,4.51,1.73,6.36,1.48,11.83,1.23q7.67.14,15.32.6c1.31-3.56,4.27,1.46,5.6-2.07-1.66-.92-4.37,1.3-5.38-1.58Z"/><path class="cls-7" d="M173.93,109.63q4,.3,8,.69c0-.39.07-.8.11-1.2q-6.75-.66-13.51-1.07C169.56,110.93,172.27,108.71,173.93,109.63Z"/><path class="cls-10" d="M224,117q8.83,2,17.59,4.36c.11-.38.22-.78.32-1.17L240,119.7l-4.72-1.24q-9-2.28-18-4.1l-.24,1.19,2.53.52C221,116.37,222.48,116.69,224,117Z"/><path class="cls-13" d="M235.27,118.46,240,119.7c.11-.4.21-.79.32-1.18-1.58-.42-3.16-.84-4.73-1.24C235.47,117.68,235.37,118.07,235.27,118.46Z"/><path class="cls-6" d="M138.4,149c1.2-3.35,2.65,1,4-1.3-5.42-2.77-12-.07-17.82-.46,2,6.64,3.56-5.67,5.51.88-.11-.38-8.07,1.71-9.33,1.85-4,.33-7.63.72-9.66,1-.07-4.11,3.45,2,2.75-4l-2,.21c-5.41-1.93,2-3.36,3.66-4.06,8.41-3.83,21.29-4.6,29.42-4-9.26,4.52-20.82,1.14-29.75,6.45,13.43.66,27.05-.19,40.17-.25l0,1.22c-1.34,0-2.68-.06-4-.08-2.54-.66-4.57,1-6.59,2.41,0,.41,0,.82,0,1.23-1.61,0-3.22,0-4.83.07C139.84,147.51,138.82,149.63,138.4,149Zm-22.05.14c-.51-2.44-1.35-2.51-2.24-2.22C114.51,150.35,115.52,149,116.35,149.11Z"/><path class="cls-8" d="M240.51,130l-.33,1.18c.91.26,1.82.51,2.73.78,3.06-2.92,5.81,3,8.9.13q-2.88-.91-5.78-1.77c2-3.19,3.61,2.31,5.59-.84-1.5-.32-2.89-.81-3-3.46.85-.51,1.59,2.05,2.52-.52-2.16-1.5-6-.12-7.12-3.37l-2.5-.7Q232.81,119,224,117c3.88,3.77,10.28,2.81,15.09,5,.46,2.07-1.63.68-2.19.68-1.85.33-3.76-2.62-5.59-.16,2.4.55,5,.87,6.52,2.93l2.77.76c1.73,2.7-1.95.64-2.78.5-13.91-2.32-27.07-9.24-40.27-7.07l-.32,0c2.85,1.85,9.75,4.91,12.07.73,7.77,4.28,17.83,4,26.36,7.08C237.35,127.61,245.28,129.86,240.51,130Z"/><path class="cls-9" d="M183,149.68c1.9.22,3.8.45,5.69.71.06-.4.11-.81.16-1.21-.49-.81-2.06,1.25-1.84-1.47,3.19-3.09,7.16,2,10.4-1q-5-.79-10.1-1.44c-1.12,2.69-2.83.08-4.18.73-3.46-.4-6.92-.73-10.39-1,0,.41-.07.81-.1,1.22,3.56,1.09,8.23-.89,11.07,2.31C183.36,148.31,183.13,148.75,183,149.68Z"/><path class="cls-19" d="M257.62,170.15q4.45,1.68,8.87,3.49c.33-.94.2-1.25.66-2.38,1,0,1.58,2.12,3.1-1.36-1.64-3-6.23-1.75-6.59-6.59,4.69,1.81,10.16-1.61,15.71-4.11l.48-1.12c-.74-1.17-3.43.25-2.92-2.57,1.32.53,3.3-3,4.38-.78q1.2-2.8,2.42-5.6c-1.4-.87-3.78-.43-3.14-4,.89-.42,1.34,2.2,2.53-.26-1.87-.61-1.81-1.13.36-2.5-1.47-.48-3.85-2.45-3.24-4,2.59,1,6-3.67,8.33-.48.16-.36.32-.74.48-1.11-2.62-1.13-5.24-2.23-7.88-3.3-1.87,2.27-3.1-.77-4.72-.57l-2.74-1.06c.16,2.3,1.26,3.26,2.76,3.7-1.12,1.5-2,1.3-3,1.45,0,3,3.14,1.67,4.35,3-.72,1.5-1.13.64-1.65.65-1,2.44.85.94,1,1.73-1.3,2.05-2.06-.11-3.27,1.32-1,2.44.84.93,1,1.72-1,2.46-1.71,2.14-2.36,1.69-1.2,1.52,1.61,1.88,1.71,3.3-1.71,2.11-2.89.36-4.53,2.14-.57,1.66.7.73,0,2.61-1.67,2.05-3,1.6-4.3.94-.91,2.51-.23,2.72.53,2.82-2,3-3.26,1.09-4.79.78.63,3.33-1,2.27-2.24,1.77l-2.5-.91c-1.33,2.48-2.09-.26-3.2.17-1.37.34-2.45-2.53-4-.09,1.46.19,1.41,2.75,3.21,2.39.67,1,3.09-.58,2.62,2.22.94,1,4.78.32,3.68,2.65-1.09.41-1.81-2.33-3.15.14C256.08,169.08,258.3,167.45,257.62,170.15Z"/></g><path class="cls-20" d="M275.36,175.16a316.15,316.15,0,0,0-251.12,0c.46,1.06.92,2.12,1.37,3.18a312.69,312.69,0,0,1,248.37,0Z"/><path class="cls-4" d="M4.36,181.71a359.05,359.05,0,0,1,285.18,0q-9.21,21.27-18.41,42.53a312.69,312.69,0,0,0-248.37,0Q13.56,203,4.36,181.71Z"/><g class="cls-5"><path class="cls-6" d="M62.05,202.67l2.81-.76c1.13-.3,2.25-.59,3.38-.87a318.94,318.94,0,0,1,39-7.36c-6.44,2.81-13.48,4.11-19.38,8q-7.7,1.47-15.35,3.33C68.93,200.63,64.85,206.57,62.05,202.67Zm14.35-1.09c1.66,2.51,3.36-.32,5,.14,1.59-.33,3.18-.66,4.77-1C83,198.48,79.65,201.66,76.4,201.58Z"/><path class="cls-7" d="M107.54,198.56a13.16,13.16,0,0,0-12.4,1.82Q101.34,199.35,107.54,198.56Z"/><path class="cls-8" d="M144.68,196.1h1.7c1.42,0,2.84,0,4.26,0,.08-2.64-1-.56-1.41-1.24.07-3.49,2,1.08,2-2.41-2.54-.66-4.57,1-6.59,2.41C144.67,195.28,144.67,195.69,144.68,196.1Z"/><path class="cls-9" d="M150.64,196.11l3.13,0c.45-2.77,2-.41,2.87-1.15,0-3.4,1.53,1,1.51-2.39l-2.87-.08c-1.34,0-2.68-.07-4-.08-.08,3.49-2-1.08-2,2.41C149.64,195.55,150.72,193.47,150.64,196.11Z"/><path class="cls-8" d="M153.77,196.16c3.12.07,6.25.18,9.37.34l.06-1.22-3.71-.17-2.85-.1C155.76,195.75,154.22,193.39,153.77,196.16Z"/><path class="cls-6" d="M163.2,195.28l-.06,1.22q9.78.51,19.54,1.62l.57.07c1.6.18,3.2.38,4.8.59l1.13.15c4.35.66,14.29-1.69,17,.3.92.66.17.39-.46,2.4,1.4.26,2.8.54,4.2.82.71-1.92,2.92-1.45,2.8.59,1.49.32,3,.64,4.46,1a10.2,10.2,0,0,1,10.55,2.61q4.16,1.11,8.29,2.32c.94-3.37-2.19.45-1.26-2.91l-1.66-.48c-1.66-1.29-4.87.33-5.55-2.76-.93-.25-1.87-.49-2.8-.72q-6.47-1.64-13-3-5.81-1.2-11.63-2.19l-2.56-.43c-1.33-.21-2.66-.42-4-.61-1.45,2.63-3.37-.06-5,.53-1.89-.26-3.79-.49-5.69-.71l-.57-.06c-1.83,2.64-4.31,0-6.38.57Q169.61,195.62,163.2,195.28Z"/><path class="cls-10" d="M210,202.45l2.8.59C212.89,201,210.68,200.53,210,202.45Z"/><path class="cls-10" d="M217.23,204q5.29,1.22,10.55,2.61A10.18,10.18,0,0,0,217.23,204Z"/><path class="cls-8" d="M236.07,209q4.26,1.26,8.5,2.64c-1-5.58-6.65-3.49-9.76-5.55C233.88,209.4,237,205.58,236.07,209Z"/><path class="cls-9" d="M244.57,211.59q2.87.93,5.72,1.93c.85-2.57-1-.89-1.23-1.72,1.54-3.26,2.25,2,3.81-1.26l-.82-.29q-9.23-3.23-18.57-5.86c-.11.39-.23.79-.33,1.17l1.66.48C237.92,208.1,243.56,206,244.57,211.59Z"/><path class="cls-11" d="M250.29,213.52q3.68,1.28,7.33,2.64c.68-2.71-1.54-1.07-2-2,1.34-2.48,2.06.27,3.15-.14,1.1-2.33-2.74-1.67-3.68-2.65l-2.2-.78c-1.56,3.24-2.27-2-3.81,1.26C249.31,212.63,251.14,211,250.29,213.52Z"/><path class="cls-12" d="M266.49,219.64q2.82,1.16,5.61,2.37,3.64-8.4,7.27-16.8c-5.55,2.5-11,5.91-15.71,4.11.36,4.84,4.95,3.63,6.59,6.59-1.52,3.48-2.14,1.35-3.1,1.36C266.69,218.4,266.82,218.7,266.49,219.64Z"/><path class="cls-8" d="M76.4,201.58c1.66,2.51,3.36-.32,5,.14,1.59-.33,3.18-.66,4.77-1C83,198.48,79.65,201.66,76.4,201.58Z"/><path class="cls-11" d="M156.64,195l2.85.1c5.09-2.65,11.16.18,16.63-.12q3.13.28,6.27.64l.57.06c.17-.93.4-1.38.71-1.14-2.84-3.2-7.51-1.22-11.07-2.31-1.53-.13-3.07-.24-4.6-.34l-2.31-.14c-1.6,2.74-4.14.19-6.1.92l-1.44-.06C158.17,196,156.62,191.61,156.64,195Z"/><path class="cls-9" d="M159.49,195.11l3.71.17q6.41.33,12.81.92c0-.4.07-.81.11-1.21C170.65,195.29,164.58,192.46,159.49,195.11Z"/><path class="cls-8" d="M176.12,195c0,.4-.08.81-.11,1.21,2.07-.61,4.55,2.07,6.38-.57Q179.26,195.27,176.12,195Z"/><path class="cls-13" d="M20.88,218.41c1.65,2.34,2.41-.55,3.71-.25C23,215.81,22.18,218.7,20.88,218.41Z"/><path class="cls-10" d="M116.35,195.12c-.51-2.44-1.35-2.51-2.24-2.22C114.51,196.36,115.52,195,116.35,195.12Z"/><path class="cls-8" d="M188.81,195.19c-.05.4-.1.8-.16,1.21,1.64-.59,3.56,2.1,5-.53l-3.42-.49Z"/><path class="cls-8" d="M227.6,202.8c.68,3.09,3.89,1.47,5.55,2.76.1-.38.22-.78.33-1.17l-2.24-.62C230,203.44,228.82,203.11,227.6,202.8Z"/><path class="cls-8" d="M155.31,191.32l0,1.22,2.87.08,1.44.06c0-.41,0-.81,0-1.22l-3.75-.13Z"/><path class="cls-9" d="M159.64,191.46c0,.41,0,.81,0,1.22,2-.73,4.5,1.82,6.1-.92C163.67,191.64,161.66,191.54,159.64,191.46Z"/><path class="cls-9" d="M190.24,195.38l3.42.49c1.33.19,2.66.4,4,.61A5.32,5.32,0,0,0,190.24,195.38Z"/><path class="cls-9" d="M200.21,196.91q5.83,1,11.63,2.19a14.68,14.68,0,0,1,13,3c.93.23,1.87.47,2.8.72,1.22.31,2.43.64,3.64,1-1.46-3.24-5.49-1.69-6.69-5.52-1.42-.35-2.84-.7-4.26-1C213.62,198.62,206.74,194.05,200.21,196.91Z"/><path class="cls-8" d="M211.84,199.1q6.49,1.35,13,3A14.65,14.65,0,0,0,211.84,199.1Z"/><path class="cls-13" d="M19.37,216.41c.17.37.33.74.49,1.12,1.44-.63,2.89-1.24,4.33-1.84C22.19,213.47,21,216.55,19.37,216.41Z"/><path class="cls-9" d="M64.86,201.91c1.13-.3,2.25-.59,3.38-.87A1.76,1.76,0,0,0,64.86,201.91Z"/><path class="cls-6" d="M155.89,191.33l3.75.13c2,.08,4,.18,6.05.3l2.31.14c0-.41.05-.81.08-1.22C164.1,191.23,159.45,188.58,155.89,191.33Z"/><path class="cls-8" d="M168.08,190.68c0,.41-.06.81-.08,1.22,1.53.1,3.07.21,4.6.34,0-.41.07-.81.1-1.22l-2.6-.2Z"/><path class="cls-11" d="M38.83,208.73c1.58-.37,3-.93,3.77-2.61-1-2.54-1.54,0-2.36-.48C41.29,209,37.77,205.36,38.83,208.73Z"/><path class="cls-6" d="M81,195.58c1.34,2.59,2.84-.15,4.24.38C84,193.36,82.43,196.09,81,195.58Z"/><path class="cls-6" d="M170.1,190.82l2.6.2c3.47.28,6.93.61,10.39,1,0-.41.09-.82.14-1.21C178.34,191.21,174.25,187.9,170.1,190.82Z"/><path class="cls-8" d="M183.23,190.82l-.14,1.21c1.35-.65,3.06,2,4.18-.73Z"/><path class="cls-8" d="M59.43,200.87c-3.18-2.6-4.68.54-8.11-1.43-4,1.66-6.71,1.4-7.09,2.27,1.33-3,12.58,4.1,14.92-.76Z"/><path class="cls-6" d="M167.87,189.45c-3.4-3.95-4.32,1.16,0,0Z"/><path class="cls-8" d="M226.26,198.68q8.79,2.22,17.49,5c1-3.34-.51-2.49-1.24-2.94,1-2.57,1.73,0,2.63-.46-.09-3.39-3-6.52-5.36-9.27q-4.8-1.4-9.65-2.64l-2-.52c3.3,2,3.9,8.69,8.29,8.53-2.39,2.26-4.6-.85-6.92-.62-.4,1.55.22,1.2,0,2.51-1.2-1.14-1.29-.56-2.85-.74Z"/><path class="cls-6" d="M188.29,190.2c-3.16-4.16-4.4.89,0,0Z"/><path class="cls-6" d="M150.18,185.12a32.39,32.39,0,0,0,18.8.73l-1.46-.09-3.23-.19c-.74.14-1.19-.69-1.35-2.51-2.57-.12-5.13-.22-7.7-.28-4.17.82,2,1.68,3.51,1.32C156.4,186.85,153,184.34,150.18,185.12Z"/><path class="cls-6" d="M176.32,186.43c.43,2.86,2.58.68,3.68,1.59C179.59,185.15,177.42,187.32,176.32,186.43Z"/><path class="cls-8" d="M53.59,198.76c1.59-1.31,4.8.27,5.38-2.83C57.37,197.21,54.12,195.65,53.59,198.76Z"/><path class="cls-9" d="M128.3,183.2c1.93,2.73,4.84.16,7.14.89.72-2.48-4.33-.53-6-1Z"/><path class="cls-11" d="M41.37,198.81l.39,1.15C45.13,199.72,44.22,197,41.37,198.81Z"/><path class="cls-6" d="M168.64,182.17c0,.4,0,.81-.08,1.21q9.47.63,18.89,1.8c-2.22-3.14-6.36-1.16-9.32-2.25C175,182.63,171.8,182.37,168.64,182.17Z"/><path class="cls-6" d="M88,186.76c2.23-1.23,5.74.63,7.16-2.46C93,185.47,89.4,183.62,88,186.76Z"/><path class="cls-9" d="M168.64,182.17c3.16.2,6.33.46,9.49.76,0-.41.07-.81.11-1.21-1.19-.12-2.38-.22-3.57-.32-2.51,0-6.54-.82-8.93-.63-1,.07-4.22-.09-1.85,1.12C164.57,182.23,166.67,181.82,168.64,182.17Z"/><path class="cls-11" d="M40.48,195.24l.39,1.16,4-1.33C43.26,192.65,42,195.57,40.48,195.24Z"/><path class="cls-6" d="M52.61,190.14c4.89-1.83,15.43,4.29,20.54-2.83.66-.9-2.19-.92-1.74-.85C66.29,185.61,59.23,189,52.61,190.14Z"/><path class="cls-6" d="M74.06,185.85c1.31,2.59,2.74-.16,4.09.36l3.84-.79C79.45,183,76.68,186.09,74.06,185.85Z"/><path class="cls-10" d="M125.84,177.23a11.86,11.86,0,0,0,11.46-.52Q131.57,176.88,125.84,177.23Z"/><path class="cls-8" d="M241.53,191.48c3.54,2.05,7.27.2,11-.38-4-1.32-8-2.56-12-3.73C240.15,190,242.06,188.64,241.53,191.48Z"/><path class="cls-9" d="M144.23,176.58h2.12q6.18,0,12.36.2l3,.12c1.89.05.09-2-.86-1.25-1.43-.38-7.43.66-5.41-1.4-3.49-3.78-7.84.28-11.24,1.12C144.23,175.77,144.23,176.18,144.23,176.58Z"/><path class="cls-8" d="M202.56,181.22q7.91,1.34,15.77,3.05c.26-.91.55-1.33.85-1.06-4.42-4.68-11.05-.57-16.42-3.19C202.7,180.42,202.63,180.83,202.56,181.22Z"/><path class="cls-12" d="M279.85,204.09l1.46-3.35c-1.08-2.27-3.06,1.31-4.38.78C276.42,204.34,279.11,202.92,279.85,204.09Z"/><path class="cls-6" d="M84.7,178.69c1.5,2.85,3.44-1.05,4.94,1.59,3.92-3.19,9.12-2.14,13.19-4.48,2.68-1.54-3.78-.74-6.54-.31C92,176.12,86.56,176.19,84.7,178.69Z"/><path class="cls-8" d="M236.67,186.29c1-3.35,1.75,1.58,2.73-1.77-2.08-.15-4.15-2.27-6.27-.45C229.21,184.34,235.29,186.15,236.67,186.29Z"/><path class="cls-11" d="M38.54,189.47l.39,1.15c2.14-.72,4.3-1.42,6.45-2.1C43,186.32,40.84,189.53,38.54,189.47Z"/><path class="cls-8" d="M242.07,185.29c3.76-.55,7.1,5.47,11.11.88-1.41-.61-3.33-.38-3.8-2.49,3-6-2.62-3.46-4.35-5.15-4,2.23-9.23-3.47-12.17,1.69-2.17-2.28-3.09,2.16-3.9.27C231,185.21,241.42,179.44,242.07,185.29Z"/><path class="cls-8" d="M45.25,186c-.36-3.67,3.78,0,3.45-3.61-2.94,1.54-7.34.81-9.16,4.16C41.61,188.85,43.31,185.77,45.25,186Z"/><path class="cls-10" d="M137.09,169.4c1.54-.05,3.08-.08,4.62-.1C139.68,166,128.39,169.85,137.09,169.4Z"/><path class="cls-8" d="M52.3,181.35c1.58-1.12,4.5.15,5.1-2.69-2.37-2.29-4.65.84-7,.69C51.12,182.59,51.6,178.1,52.3,181.35Z"/><path class="cls-8" d="M251,181.63c-.88,5.44,7.07.52,0,0Z"/><path class="cls-9" d="M194.64,170.13l.93.13c1.69-.43,5.26,2.22,5.73-.37C199.13,170.36,196.59,167.55,194.64,170.13Z"/><path class="cls-14" d="M283.73,195.14q2.41-5.59,4.84-11.2c-2.33-3.19-5.74,1.46-8.33.48-.61,1.53,1.77,3.5,3.24,4-2.17,1.37-2.23,1.88-.36,2.5-1.19,2.45-1.64-.16-2.53.26C280,194.71,282.33,194.27,283.73,195.14Z"/><path class="cls-8" d="M45.29,180.88c.93-3.26,2.25-2.25,4.14-3.78-.45-1.55-.84-.92-1.29-2.17,1.52-1.28,4.71.31,5.19-2.74-5.88.76-10,4.64-14.2,8.09C41.45,184.86,43.21,180.27,45.29,180.88Z"/><path class="cls-10" d="M135.69,164.56l0,1.22q3.12-.1,6.23-.15c-1.19-2.81-3.64-.36-5.33-1.1Z"/><path class="cls-13" d="M8.72,191.78l.48,1.12L13.61,191C11.63,188.8,10.4,191.91,8.72,191.78Z"/><path class="cls-8" d="M135.69,164.56l.94,0c0-.95.22-1.43.59-1.24q3-.07,6-.11l3.14,0c-.34-2.77-2-.46-2.83-1.21-3.86-.15-9.13.45-12,.33l-.63,0c0,.95-.19,1.43-.57,1.24-2.46-.79-5.8,1.77-1.5,1.3C131.11,164.73,133.4,164.64,135.69,164.56Z"/><path class="cls-8" d="M235.61,175.9c.11-.39.21-.79.32-1.18l-4.9-1.26C231.37,176.45,234.28,174.72,235.61,175.9Z"/><path class="cls-9" d="M235.93,174.72c-.11.39-.21.79-.32,1.18,1.53.4,3,.82,4.57,1.24l.33-1.18C239,175.54,237.45,175.12,235.93,174.72Z"/><path class="cls-8" d="M85.17,167.44c7.2,1.59,14.89-2,22.31-2C100.35,163.34,92.53,166.93,85.17,167.44Z"/><path class="cls-8" d="M186.2,161.7c.05-.41.09-.81.14-1.21-.78-.86-2.68,1.26-2.73-1.53-1.9-.19-3.81-.38-5.72-.54a3.76,3.76,0,0,1,6,.58c9.66.27,17.12,2.31,26.29,3.76,3.32.51,8.86,3.45,9.31-.68l-2.53-.52c-2.29-1.28-6,.5-7.4-2.63q-3-.54-6.06-1c-2.89,2.4-6.34-.56-9.44-.17q-6.07-.81-12.15-1.41-4-.39-8-.7c-1.33,3.53-4.29-1.48-5.6,2.08-.18,3.78,1.38-4.28,2.55.16-.26-1-4.44,2.07-4.91,2.15-5.32.59-14.8-1.28-18.7-.52,1.19-3.63,4.52,1.21,5.74-2.39-5.47.25-7.32.5-11.83-1.23-.65,2.35,2.35.74,3.21,1.19-.75,3.53-2.79,2.22-4.41,2.5,4.39,2.8,9.29,1.89,14.87,1.23-.6,2.79-2.42.41-3.49,1.17,9.38,1.9,23.12-3.19,34.53-.31Z"/><path class="cls-10" d="M193.13,165l.94.13,3.12.44.32,0A2.37,2.37,0,0,0,193.13,165Z"/><path class="cls-13" d="M7.27,188.43l.48,1.11,3.85-1.64C9.82,185.61,8.77,188.63,7.27,188.43Z"/><path class="cls-8" d="M55.8,170.25c.1.39.2.79.31,1.18q3.7-1,7.43-1.9C61,167.23,58.37,170.39,55.8,170.25Z"/><path class="cls-9" d="M186.34,160.49c-.05.4-.09.8-.14,1.21,1.69.19,3.37.39,5.05.6l.15-1.21C189.71,160.88,188,160.68,186.34,160.49Z"/><path class="cls-8" d="M191.4,161.09l-.15,1.21q7.41.94,14.78,2.2C202.19,161,196.12,162.5,191.4,161.09Z"/><path class="cls-8" d="M47.14,172.69c-.11-.39-.23-.79-.34-1.17q-4.8,1.41-9.56,3C40.66,176.34,43.81,172.82,47.14,172.69Z"/><path class="cls-8" d="M64.84,166.71c2.41,2.33,5-.74,7.46-.44,2.5-.55,5-1.06,7.51-1.55q7.53-1.46,15.11-2.58C85.08,160.71,74.76,165.16,64.84,166.71Z"/><path class="cls-8" d="M46.76,170.25c.12.39.23.78.35,1.18.93-1.09,3.51.62,3.38-2.25l-.93.26Z"/><path class="cls-9" d="M183.61,159l.32,0a3.76,3.76,0,0,0-6-.58C179.8,158.58,181.71,158.77,183.61,159Z"/><path class="cls-11" d="M49.22,168.26c.12.4.23.79.34,1.18l.93-.26c2.08-.59,4.15-1.15,6.24-1.7-.11-.39-.21-.79-.32-1.19Q52.81,167.24,49.22,168.26Z"/><path class="cls-9" d="M56.41,166.29c.11.4.21.8.32,1.19q7.8-2.05,15.68-3.74c-5-1.83-10.28,1.9-15.37,2.39Z"/><path class="cls-8" d="M72.41,163.74c5.43-1.27,11.24-1.48,15.4-5.42l-2.56.44q-14.34,2.51-28.51,6.2c.1.39.2.79.3,1.17C62.13,165.64,67.38,161.91,72.41,163.74Z"/><path class="cls-10" d="M104.91,157.1c-1.81-.58-4,2.12-5.59-.51q-2.73.36-5.44.77C97.13,159.34,102.07,160.17,104.91,157.1Z"/><path class="cls-8" d="M150.16,154.63a3.84,3.84,0,0,0,6.11.1Q153.23,154.66,150.16,154.63Z"/><path class="cls-8" d="M158.2,154.79c2,2.15,7.88,2.28,9,.4C164.2,155,161.2,154.88,158.2,154.79Z"/><path class="cls-9" d="M16.39,178.07c5.19,1,9.83-3.3,14.84-4.16l-.39-1.15q-6.33,2.18-12.61,4.6Z"/><path class="cls-8" d="M30.84,172.76l.39,1.15q3.85-1.32,7.73-2.55c-.12-.38-.25-.77-.37-1.16Q34.71,171.45,30.84,172.76Z"/><path class="cls-6" d="M38.59,170.2c.12.39.25.78.37,1.16q5.11-1.63,10.26-3.1,3.59-1,7.19-2l.63-.16c-.1-.38-.2-.78-.3-1.17-2.1.55-4.19,1.11-6.28,1.7Q44.51,168.33,38.59,170.2Z"/><path class="cls-10" d="M182.06,155.13c0,.4-.08.81-.11,1.2q6.08.6,12.15,1.41c.05-.39.11-.8.16-1.2Q188.17,155.73,182.06,155.13Z"/><path class="cls-6" d="M194.26,156.54c0,.4-.11.81-.16,1.2,3.1-.39,6.55,2.57,9.44.17-1.39-.23-2.77-.44-4.16-.65C197.67,157,196,156.77,194.26,156.54Z"/><path class="cls-6" d="M209.6,158.93c1.41,3.13,5.11,1.35,7.4,2.63l.24-1.19Q213.43,159.61,209.6,158.93Z"/><path class="cls-6" d="M241.87,166.22c-.1.39-.21.78-.32,1.17l2.5.7q4.68,1.32,9.34,2.78l.36-1.16Q247.84,167.86,241.87,166.22Z"/><path class="cls-8" d="M253.75,169.71l-.36,1.16c2.63,0,5.06,3.32,7.81,1.26Q257.48,170.89,253.75,169.71Z"/><path class="cls-11" d="M271.69,175.85l-.43,1.13,2.45.92,2.74,1.06c.15-.37.3-.75.44-1.13l-2.44-.94Z"/><path class="cls-15" d="M276.89,177.83c-.14.38-.29.76-.44,1.13,1.62-.2,2.85,2.84,4.72.57C279.75,179,278.32,178.39,276.89,177.83Z"/><path class="cls-16" d="M4.36,181.71l.48,1.12q5.75-2.47,11.55-4.76l1.84-.71-.44-1.14Q11,178.82,4.36,181.71Z"/><path class="cls-14" d="M17.79,176.22l.44,1.14q6.27-2.42,12.61-4.6,3.87-1.32,7.75-2.56,5.91-1.87,11.87-3.54l-.33-1.18Q33.78,170.06,17.79,176.22Z"/><path class="cls-13" d="M50.13,165.48l.33,1.18c2.09-.59,4.18-1.15,6.28-1.7q14.15-3.69,28.51-6.2-.1-.62-.21-1.2A357.66,357.66,0,0,0,50.13,165.48Z"/><path class="cls-14" d="M85,157.56q.1.58.21,1.2l2.56-.44q3-.51,6.07-1,2.72-.41,5.44-.77c2-.28,4.06-.53,6.09-.77,0-.41-.1-.81-.14-1.21Q95.13,155.8,85,157.56Z"/><path class="cls-13" d="M105.27,154.61c0,.4.09.8.14,1.21a356.7,356.7,0,0,1,38.64-2.4q11.61-.1,23.21.56l1.29.08q6.76.41,13.51,1.07,6.12.6,12.2,1.41c1.71.23,3.41.47,5.12.72l.18-1.21A359.1,359.1,0,0,0,105.27,154.61Z"/><path class="cls-14" d="M199.56,156.05l-.18,1.21c1.39.21,2.77.42,4.16.65q3,.48,6.06,1,3.83.67,7.64,1.44,9.06,1.81,18,4.1c.1-.4.2-.78.31-1.18A359.86,359.86,0,0,0,199.56,156.05Z"/><path class="cls-14" d="M240.31,164.53c-.11.39-.21.78-.32,1.18l1.88.51q6,1.65,11.88,3.49,3.74,1.17,7.45,2.42,5.26,1.77,10.49,3.72l2.76,1c.14-.39.29-.77.43-1.14A358,358,0,0,0,240.31,164.53Z"/><path class="cls-16" d="M274.88,175.75c-.14.37-.29.75-.43,1.14l2.44.94c1.43.56,2.86,1.12,4.28,1.7,2.64,1.07,5.26,2.17,7.88,3.3l.49-1.12Q282.27,178.56,274.88,175.75Z"/><path class="cls-8" d="M61,205.49c-2-.27-3.79,2.76-5.9.45.43-4.41,6.21.67,5.71-5.46,13.66-3.06,25.93-8,40-10.85,2,3.89,9.52-2.24,9.9-1.27-1.37-3.72-4.51,3.54-5.82.71,7.68-2.18,14.92-6,23.43-5.87,1.93,2.73,4.84.16,7.14.89.72-2.48-4.33-.53-6-1,2.81-4.12,5-4.65,8.22-2.78,2.56,1.9,9.61,1.89,13.13-.1.18-.07.35-.18.31-1.22-1.4-1-6.22,2.31-4.79-2.47q6.18,0,12.36.2l3,.12c1.89.05.09-2-.86-1.25-1.43-.38-7.43.66-5.41-1.4-3.49-3.78-7.84.28-11.24,1.12,0,.41,0,.82,0,1.22q-3.47,0-6.93.13-5.73.16-11.46.52c-8-1.81-15.4,7-22.08,3.37,2.12-3.23,6.62-.11,8.72-3.48-9.19,1.74-20.07.24-26.95,7.62,4.54,1.12,9.28-5.07,12.92-.93l-3.26.49c-2.22,1.17-5.79-.68-7.16,2.46l-.88.16c-9.06.79-14.53,5.28-23,7.62-2.18-1.74-4.81,0-6.93.63-1.31.36-5.66,1.55-4.08-.09,2.75-2.8,7.08.43,11.26-4.38-4.13.05-8,4.56-12.3.87-2.09-.22-4,2.89-6.18.62,1.71-1.39,5.12.1,5.78-3-1.58.21-3.06,2-4.83-1.09,1.11-.88,5.93-.18,2.55-3.32q5.35-1.61,10.74-3c1.48-1.29,5.22-.05,1.8.78-.74.23-1.72.4-2.68.71-4.89,1.57-.08.78,1.22,2.2-1.27,1.16-4.17-.53-4.4,2.47,7.87-2.75,15.92-3.19,22.56-6.76-4.3-2.27-8.77,2.89-13.1-.78,6.25-3,14.95-3.18,21.63-7.06-4.56.16-9.22,3.13-13.68,1.46-1.9.95-9.49,1.64-4.23-.3,12.56-1.82,25.32-6.72,37.26-6.47-.46.76-2-1.25-1.71,1.43,9.44-3.86,20.69-2.62,30.92-3.62q3.12-.1,6.23-.15c17.75-.3,33.53-4.54,51.17-.63l.94.13c-.94,2.41-.17,3.46.12,3.71,3.25,2.66,11.94-2,15.12,2.43q1.84.33,3.69.69c-1.05,2.64-2.42,0-3.6.56-2.49.36-5.26-2.57-7.56-.07,2.16-1.24,3.18,2.42,3.77,1.87-3.45,3.22-10.61-4.58-14.67-2.22-3.21-.06-6.82-1.1-3.84-1.71,1.44-.3,6.78,2.15,8.47-.13,1.69-.43,5.26,2.22,5.73-.37-2.17.47-4.71-2.34-6.66.24q-7.23-1-14.51-1.71c-1.15-1-1.16-1-2.48-.23-2.44-3.08-6.69-1-9.84-2-2.32-1.5,2-1.29,2.89-1,1.63-.68,3.81,1.88,5.09-.84-6.12-1.44-11.7.4-17,2.67.71.77,2.31-1.45,2.43,1.31-15.72-1-33.63-4-48.4,2.64,2.42.55,5.39-2.13,7.47.56-3.34,1.14-10.52.12-14.7,3.92,11.33-2.67,22.61,3.5,33.5-1.23-1.45-.75-3.58,1.7-4.6-1.08.61-.74,2.05,1.44,2.09-1.29-3.57.11-7.13.28-10.7.5,2.87-3.85,8.31.77,11.25-2.95,1.54-.05,3.08-.08,4.62-.1,1.78,0,4.65-.05,7.09,0,1.86,0,6.3-.79,5.52,1.3-.24.26-.61,0-.64,1.2,3.87,2.26,9,0,12.71,2.93-.37.18-.85-.26-1,1.17,1.77.9,4.54-1.33,5.66,1.58-1.74.8-3.74.16-5.26,2.11,2.83,1,6.7-1.19,8.86,1.85-2.51,0-6.54-.82-8.93-.63-1,.07-4.22-.09-1.85,1.12.68.34,2.78-.07,4.75.28,0,.4,0,.81-.08,1.21-1.87-.12-3.75-.23-5.62-.32-2.57-.12-5.13-.22-7.7-.28-4.17.82,2,1.68,3.51,1.32-2.35,2.75-5.8.24-8.57,1-1.76,0-3.52,0-5.29,0-8.13-.63-21,.14-29.42,4-1.61.7-9.07,2.13-3.66,4.06l-4.59.54a318.94,318.94,0,0,0-39,7.36,1.76,1.76,0,0,0-3.38.87l-2.81.76c2.8,3.9,6.88-2,10.44,2.34q-8.19,2-16.31,4.43-5.35,1.62-10.67,3.42C49.12,207.76,57.26,210.32,61,205.49Zm-8.42-15.35c4.89-1.83,15.43,4.29,20.54-2.83.66-.9-2.19-.92-1.74-.85C66.29,185.61,59.23,189,52.61,190.14ZM81,195.58c1.34,2.59,2.84-.15,4.24.38C84,193.36,82.43,196.09,81,195.58Zm-7-9.73c1.31,2.59,2.74-.16,4.09.36l3.84-.79C79.45,183,76.68,186.09,74.06,185.85Zm10.64-7.16c1.5,2.85,3.44-1.05,4.94,1.59,3.92-3.19,9.12-2.14,13.19-4.48,2.68-1.54-3.78-.74-6.54-.31C92,176.12,86.56,176.19,84.7,178.69Z"/><path class="cls-10" d="M87.84,201.68c2.43-.46,4.87-.9,7.3-1.3a13.16,13.16,0,0,1,12.4-1.82q15-1.89,30-2.33l2.27-.06c0-2.65-1-.53-1.45-1.19,1.2-3.35,2.65,1,4-1.3-5.42-2.78-12-.07-17.82-.46,2,6.63,3.56-5.67,5.51.87-.11-.37-8.07,1.72-9.33,1.86-4,.33-7.63.72-9.66,1-.07-4.11,3.45,2,2.75-4l-2,.21-4.59.54C100.78,196.49,93.74,197.79,87.84,201.68Z"/><path class="cls-10" d="M189.18,198.93l2.26.31q6.33.91,12.65,2.07l1.68.32c.63-2,1.38-1.74.46-2.4C203.47,197.24,193.53,199.59,189.18,198.93Z"/><path class="cls-17" d="M231.24,203.77l2.24.62q9.35,2.64,18.57,5.86c.13-.39.26-.77.4-1.15-1.8.35-1.75-2.2-3.21-2.39,1.56-2.44,2.64.43,4,.09,1.31-2.5,2.09.25,3.2-.17l2.5.91c-1.2-3.63,0-1.41,2.11-3.12.81-2.4-1.12-.77-.57-2.8,1.27-1.74,2.23-.6,3.41-1.34.69-2,.48-2.79-.29-2.72,1.4-1.86,2.45-.48,3.88-2.44.18-2.86-1.41-3.24-2.93-3.7,1.41-2.81,2.1,1.29,3.5-1.3.33-1.33-1.54-.88-.8-4.21,1.92-1.84,1.77,2.39,3.55-1.28.24-5-5.31-1.33-8-4.21,2.51-2.61,4.37,2.3,6.88-.11,3.48-.7-3.86-2.11-3.63-5.22-1.7.24-3.17-2.79-5-.44,1.11.78,2.17,1.64,1.86,4.51-2.82-1.13-5.7-1.71-8.66-.34,1.61.52,4.83,1.59,7.56,2.54,1.92.65,7.26,2.58,3.19,2.42-1.61-.32-3.11-2.25-5,.82,1.41,1.19,3.78,1,3.22,5-.65.47-1-1.89-1.88.62,1.09.18,1.77,1,1.51,3.13-2,3.05-3.51,1.16-5.17.75-.37,1.27.3,1-.23,2.5-.74.49-1.21-2-2.13.56.42.25,1.29-.18.75,1.55-1,.44-1.77-2.26-3,.26,1.24.6,1.38,2.9,1.92,4.54-1.1.42-1.92-2.32-3.21.18.45.4,3,.18,1.57,1.82-3.13-1.62-6.53.07-9.63-1.9q-8.69-2.73-17.49-5l-1.71-.43C225.75,202.08,229.78,200.53,231.24,203.77Z"/><path class="cls-18" d="M227.78,206.63q-5.25-1.4-10.55-2.61c-1.49-.34-3-.66-4.46-1l-2.8-.59c-1.4-.28-2.8-.56-4.2-.82l-1.68-.32a14.8,14.8,0,0,1-12.65-2.07l-2.26-.31-1.13-.15a2.69,2.69,0,0,1-4.8-.59l-.57-.07a165.84,165.84,0,0,1-36.3-2h-1.7c-1.61,0-3.22,0-4.83.07l-2.27.06a718.84,718.84,0,0,0-81.4,13.21q-5.35,1.62-10.67,3.42t-10.85,3.91Q28.2,219.24,21.8,222l1,2.23q14.27-6.17,29-10.86,6.39-2,12.83-3.8,5.22-1.43,10.46-2.67,3.45-.81,6.92-1.55,7.89-1.68,15.86-2.94,11.58-1.84,23.26-2.82,5.89-.49,11.82-.76,3.79-.17,7.61-.25,9-.18,18,.15,3.39.12,6.76.32a312.62,312.62,0,0,1,78.55,14.85l2.71.89q5,1.68,10,3.54t9.88,3.89q2.38,1,4.76,2l1-2.23q-2.79-1.22-5.61-2.37c-2.94-1.2-5.9-2.37-8.87-3.48q-3.66-1.36-7.33-2.64-2.85-1-5.72-1.93-4.24-1.38-8.5-2.64T227.78,206.63Z"/><path class="cls-9" d="M104.87,189.07c-.79-1.06-2.52,1.08-4.08.56,2,3.89,9.52-2.24,9.9-1.27C109.32,184.64,106.18,191.9,104.87,189.07Z"/><path class="cls-13" d="M14.53,205.21c.65,1.5,1.29,3,1.94,4.48q4.58-2,9.2-3.82c1.73,0,7.11-3.63,2.36-2.23-2.28.67-5.34.41-7.77,1.8-1-2.51,1-1,1.23-1.83C18.81,201.65,16.9,205.06,14.53,205.21Z"/><path class="cls-8" d="M191,185.63c6.24-1.92,11.34,5,18.17,3-9.46-4-20.66-7.74-30.91-6.89,0,.4-.07.8-.11,1.21,3,1.09,7.1-.89,9.32,2.25Z"/><path class="cls-9" d="M150.83,180.26c-5.37-.25-8.44-1.16-13.13.1C140.26,182.26,147.31,182.25,150.83,180.26Z"/><path class="cls-19" d="M13.61,191c-2-2.23-3.21.88-4.89.75-.32-.74-.65-1.49-1-2.24l3.85-1.64c-1.78-2.29-2.83.73-4.33.53-.33-.75-.65-1.5-1-2.24,5-3.05,12-3.24,15.85-7.72-5.54,2.36-11.41,2.15-16.83,5.47-.15-.36-.32-.74-.48-1.11q5.75-2.47,11.55-4.76c5.19,1,9.83-3.3,14.84-4.16q3.85-1.32,7.73-2.55,5.11-1.63,10.26-3.1c.12.4.23.79.34,1.18l-2.8.81c-7.24,2.65-15.82,3.66-20.31,10.54,1.88.15,3.51-3,5.55-.69-1.38,2.54-5.23,1.51-5.36,5.81,3.4,4.9,6.48-6.32,9.35-2-1.65-2.48-7.58,5.8-6.65,7.53,2.95-1.8,6.13-1.4,9.2-1.95l.39,1.15c-1.43,3.2-7.73-1.84-6.6,3.59-.2-1,1.64.34,1.58.74-.33,2-2.88-.69-1.48,3.12q4-1.47,8-2.83l.39,1.16c-2.5,1.69-6.86.66-8.17,4.18,2.75-2,5.84-.6,8.67-1.77l.39,1.15c-3.4,3.16-7.71,4.87-11.13,7.91,3.18-1,6.54-.32,9.61-2.23,1,3.37-2.47-.28-1.41,3.09-1.62,1.32-5.14-.13-4.65,4.31,1.17.15,3.48-2.66,4-.18-1.67.54-3.48.93-3.49,3.91Q28.2,219.24,21.8,222q-1-2.25-1.94-4.48c1.44-.63,2.89-1.24,4.33-1.84-2-2.22-3.15.86-4.82.72l-2.9-6.72q4.58-2,9.2-3.82c1.73,0,7.11-3.63,2.36-2.23-2.28.67-5.34.41-7.77,1.8-1-2.51,1-1,1.23-1.83-2.68-2-4.59,1.45-7,1.6q-2.65-6.15-5.33-12.31Zm7.27,27.38c1.65,2.34,2.41-.55,3.71-.25C23,215.81,22.18,218.7,20.88,218.41Z"/><path class="cls-11" d="M53.33,172.19l2.78-.76c-.11-.39-.21-.79-.31-1.18-2.9.78-5.78,1.59-8.66,2.44-3.33.13-6.48,3.65-9.9,1.79q4.77-1.54,9.56-3l.31-.09c-.12-.4-.23-.79-.35-1.18-7.24,2.65-15.82,3.66-20.31,10.54,1.88.15,3.51-3,5.55-.69-1.38,2.54-5.23,1.51-5.36,5.81,3.4,4.9,6.48-6.32,9.35-2-1.65-2.48-7.58,5.8-6.65,7.53,2.95-1.8,6.13-1.4,9.2-1.95,2.3.06,4.41-3.15,6.84-.95-2.15.68-4.31,1.38-6.45,2.1-1.43,3.2-7.73-1.84-6.6,3.59-.2-1,1.64.34,1.58.74-.33,2-2.88-.69-1.48,3.12q4-1.47,8-2.83c1.51.33,2.78-2.59,4.43-.17l-4,1.33c-2.5,1.69-6.86.66-8.17,4.18,2.75-2,5.84-.6,8.67-1.77,2.85-1.85,3.76.91.39,1.15-3.4,3.16-7.71,4.87-11.13,7.91,3.18-1,6.54-.32,9.61-2.23.82.49,1.35-2.06,2.36.48-.74,1.68-2.19,2.24-3.77,2.61-1.62,1.32-5.14-.13-4.65,4.31,1.17.15,3.48-2.66,4-.18-1.67.54-3.48.93-3.49,3.91q5.4-2.06,10.85-3.91c3.61-5.1,11.75-2.54,15.52-7.37-2-.27-3.79,2.76-5.9.45.43-4.41,6.21.67,5.71-5.46l-1.41.39-.28.08c-2.34,4.86-13.59-2.22-14.92.76.38-.87,3-.61,7.09-2.27l2.27-.68c.53-3.11,3.78-1.55,5.38-2.83,1.71-.48,3.44-.94,5.16-1.39-2.18-1.74-4.81,0-6.93.63-1.31.36-5.66,1.55-4.08-.09,2.75-2.8,7.08.43,11.26-4.38-4.13.05-8,4.56-12.3.87-2.09-.22-4,2.89-6.18.62,1.71-1.39,5.12.1,5.78-3-1.58.21-3.06,2-4.83-1.09,1.11-.88,5.93-.18,2.55-3.32-1.39.41-2.77.84-4.15,1.27-1.94-.24-3.64,2.84-5.71.55,1.82-3.35,6.22-2.62,9.16-4.16q1.8-.54,3.6-1.05c-.7-3.25-1.18,1.24-1.88-2-1.72.5-3.42,1-5.13,1.53-2.08-.61-3.84,4-6.16-.6C43.35,176.83,47.45,173,53.33,172.19Z"/><path class="cls-9" d="M168.33,157.71q-7.65-.47-15.32-.6c-1.22,3.6-4.55-1.24-5.74,2.39,3.9-.76,13.38,1.11,18.7.52.47-.08,4.65-3.13,4.91-2.15C169.71,153.43,168.15,161.49,168.33,157.71Z"/><path class="cls-13" d="M5.32,183.94l1,2.25c5-3.05,12-3.24,15.85-7.72C16.61,180.83,10.74,180.62,5.32,183.94Z"/><path class="cls-10" d="M158.2,154.79c3,.09,6,.23,9,.4,0-.4.05-.81.07-1.21q-11.59-.66-23.21-.56c0,.4,0,.81,0,1.2,2,0,4.07,0,6.1,0s4.08.05,6.11.1Z"/><path class="cls-6" d="M167.26,154c0,.4,0,.81-.07,1.21-1.11,1.88-7,1.75-9-.4l-1.93-.06a3.84,3.84,0,0,1-6.11-.1c-2,0-4.07,0-6.1,0q-7.25.06-14.46.41c1.37,5.46,4.9.74,7.13,2.18.32,3.8-6.6-2.22-5.21,5.07,2.84.12,8.11-.48,12-.33.85.75,2.49-1.56,2.83,1.21l-3.14,0q-3,0-6,.11c-.37-.19-.55.29-.59,1.24,1.69.74,4.14-1.71,5.33,1.1,17.75-.3,33.53-4.54,51.17-.63a2.37,2.37,0,0,1,4.38.61c13.2-2.16,26.36,4.76,40.27,7.08.83.13,4.51,2.2,2.78-.5l-2.77-.76c-1.56-2.06-4.12-2.38-6.52-2.93,1.83-2.46,3.74.49,5.59.16.56,0,2.65,1.39,2.19-.68-4.81-2.14-11.21-1.18-15.09-5-1.48-.32-3-.64-4.43-.94-.45,4.13-6,1.19-9.31.68-9.17-1.45-16.63-3.49-26.29-3.76l-.32,0c0,2.79,1.95.67,2.73,1.53,1.69.19,3.37.39,5.06.6,4.72,1.41,10.79-.14,14.63,3.41q-7.38-1.26-14.78-2.2c-1.68-.21-3.36-.41-5.05-.6l-.31,0c-11.41-2.88-25.15,2.21-34.53.31,1.07-.76,2.89,1.62,3.49-1.17-5.58.66-10.48,1.57-14.87-1.23,1.62-.28,3.66,1,4.41-2.5-.86-.45-3.86,1.16-3.21-1.19,4.51,1.73,6.36,1.48,11.83,1.23q7.67.13,15.32.6c1.31-3.56,4.27,1.45,5.6-2.08-1.66-.92-4.37,1.31-5.38-1.57Z"/><path class="cls-7" d="M173.93,155.63q4,.31,8,.7c0-.39.07-.8.11-1.2q-6.75-.66-13.51-1.07C169.56,156.94,172.27,154.71,173.93,155.63Z"/><path class="cls-10" d="M224,163q8.83,2,17.59,4.37c.11-.39.22-.78.32-1.17l-1.88-.51c-1.57-.42-3.14-.84-4.72-1.24q-9-2.28-18-4.1l-.24,1.19,2.53.52C221,162.38,222.48,162.7,224,163Z"/><path class="cls-13" d="M235.27,164.47c1.58.4,3.15.82,4.72,1.24.11-.4.21-.79.32-1.18-1.58-.43-3.16-.84-4.73-1.24C235.47,163.69,235.37,164.07,235.27,164.47Z"/><path class="cls-6" d="M138.4,195c1.2-3.35,2.65,1,4-1.3-5.42-2.78-12-.07-17.82-.46,2,6.63,3.56-5.67,5.51.87-.11-.37-8.07,1.72-9.33,1.86-4,.33-7.63.72-9.66,1-.07-4.11,3.45,2,2.75-4l-2,.21c-5.41-1.93,2-3.36,3.66-4.06,8.41-3.83,21.29-4.6,29.42-4-9.26,4.53-20.82,1.15-29.75,6.46,13.43.66,27.05-.19,40.17-.25l0,1.22c-1.34,0-2.68-.07-4-.08-2.54-.66-4.57,1-6.59,2.41,0,.41,0,.82,0,1.23-1.61,0-3.22,0-4.83.07C139.84,193.52,138.82,195.64,138.4,195Zm-22.05.14c-.51-2.44-1.35-2.51-2.24-2.22C114.51,196.36,115.52,195,116.35,195.12Z"/><path class="cls-8" d="M240.51,176l-.33,1.18,2.73.78c3.06-2.92,5.81,3,8.9.13q-2.88-.92-5.78-1.77c2-3.19,3.61,2.31,5.59-.84-1.5-.32-2.89-.81-3-3.47.85-.5,1.59,2.06,2.52-.51-2.16-1.5-6-.12-7.12-3.37l-2.5-.7Q232.81,165,224,163c3.88,3.78,10.28,2.82,15.09,5,.46,2.07-1.63.68-2.19.68-1.85.33-3.76-2.62-5.59-.16,2.4.55,5,.87,6.52,2.93l2.77.76c1.73,2.7-1.95.63-2.78.5-13.91-2.32-27.07-9.24-40.27-7.08l-.32,0c2.85,1.85,9.75,4.91,12.07.73,7.77,4.28,17.83,4,26.36,7.08C237.35,173.62,245.28,175.87,240.51,176Z"/><path class="cls-9" d="M183,195.69c1.9.22,3.8.45,5.69.71.06-.41.11-.81.16-1.21-.49-.81-2.06,1.25-1.84-1.47,3.19-3.1,7.16,2.05,10.4-1q-5-.8-10.1-1.44c-1.12,2.69-2.83.08-4.18.73-3.46-.4-6.92-.73-10.39-1,0,.41-.07.81-.1,1.22,3.56,1.09,8.23-.89,11.07,2.31C183.36,194.31,183.13,194.76,183,195.69Z"/><path class="cls-19" d="M257.62,216.16c3,1.11,5.93,2.28,8.87,3.48.33-.94.2-1.24.66-2.37,1,0,1.58,2.12,3.1-1.36-1.64-3-6.23-1.75-6.59-6.59,4.69,1.81,10.16-1.61,15.71-4.11l.48-1.12c-.74-1.17-3.43.25-2.92-2.57,1.32.53,3.3-3.05,4.38-.78q1.2-2.81,2.42-5.6c-1.4-.87-3.78-.43-3.14-4,.89-.42,1.34,2.19,2.53-.26-1.87-.62-1.81-1.13.36-2.5-1.47-.48-3.85-2.45-3.24-4,2.59,1,6-3.67,8.33-.48.16-.36.32-.74.48-1.11-2.62-1.13-5.24-2.23-7.88-3.3-1.87,2.27-3.1-.77-4.72-.57l-2.74-1.06c.16,2.3,1.26,3.26,2.76,3.7-1.12,1.5-2,1.3-3,1.45,0,3,3.14,1.67,4.35,3-.72,1.5-1.13.64-1.65.65-1,2.44.85.93,1,1.73-1.3,2.05-2.06-.12-3.27,1.32-1,2.44.84.93,1,1.72-1,2.46-1.71,2.14-2.36,1.69-1.2,1.52,1.61,1.88,1.71,3.3-1.71,2.11-2.89.36-4.53,2.14-.57,1.66.7.73,0,2.61-1.67,2.05-3,1.6-4.3.94-.91,2.51-.23,2.72.53,2.82-2,3-3.26,1.09-4.79.78.63,3.33-1,2.27-2.24,1.77l-2.5-.91c-1.33,2.48-2.09-.26-3.2.17-1.37.34-2.45-2.53-4-.09,1.46.19,1.41,2.74,3.21,2.39.67,1.05,3.09-.58,2.62,2.22.94,1,4.78.32,3.68,2.65-1.09.41-1.81-2.34-3.15.14C256.08,215.09,258.3,213.45,257.62,216.16Z"/></g><path class="cls-20" d="M272.51,221.07a316.15,316.15,0,0,0-251.12,0l1.37,3.17a312.69,312.69,0,0,1,248.37,0Z"/><path class="cls-21" d="M265.72,92.38a2.1,2.1,0,1,1,2.63,1.38A2.09,2.09,0,0,1,265.72,92.38Z"/><path class="cls-2" d="M267,89.57a2.29,2.29,0,1,1-1.5,2.87A2.29,2.29,0,0,1,267,89.57Zm1.26,4a1.92,1.92,0,1,0-2.41-1.26A1.93,1.93,0,0,0,268.3,93.59Z"/><rect class="cls-2" x="265.7" y="91.52" width="4.05" height="0.47" transform="translate(550.63 99.38) rotate(162.63)"/><path class="cls-21" d="M267.1,108.25a2.1,2.1,0,1,1-1.38,2.64A2.1,2.1,0,0,1,267.1,108.25Z"/><path class="cls-2" d="M269.9,109.58a2.28,2.28,0,1,1-2.86-1.5A2.28,2.28,0,0,1,269.9,109.58Zm-4,1.25a1.92,1.92,0,1,0,1.26-2.41A1.93,1.93,0,0,0,265.89,110.83Z"/><rect class="cls-2" x="265.7" y="110.02" width="4.05" height="0.47" transform="translate(242.39 398.69) rotate(-107.36)"/><path class="cls-21" d="M24.17,92.38a2.1,2.1,0,1,1,2.63,1.38A2.09,2.09,0,0,1,24.17,92.38Z"/><path class="cls-2" d="M25.49,89.57A2.29,2.29,0,1,1,24,92.44,2.31,2.31,0,0,1,25.49,89.57Zm1.26,4a1.92,1.92,0,1,0-2.41-1.26A1.93,1.93,0,0,0,26.75,93.59Z"/><rect class="cls-2" x="24.15" y="91.52" width="4.05" height="0.47" transform="translate(78.55 171.51) rotate(162.63)"/><path class="cls-21" d="M25.55,108.25a2.1,2.1,0,1,1-1.38,2.64A2.09,2.09,0,0,1,25.55,108.25Z"/><path class="cls-2" d="M28.36,109.58a2.29,2.29,0,1,1-2.87-1.5A2.29,2.29,0,0,1,28.36,109.58Zm-4,1.25a1.92,1.92,0,1,0,1.26-2.41A1.93,1.93,0,0,0,24.34,110.83Z"/><rect class="cls-2" x="24.15" y="110.02" width="4.05" height="0.47" transform="translate(-71.25 168.14) rotate(-107.36)"/><path class="cls-21" d="M265.89,141.54a2.1,2.1,0,1,1,1.94,1.07A2.11,2.11,0,0,1,265.89,141.54Z"/><path class="cls-2" d="M266.52,138.56a2.29,2.29,0,1,1-1.08,2.06A2.26,2.26,0,0,1,266.52,138.56Zm1.78,3.78a1.92,1.92,0,1,0-2.41-1.26A1.93,1.93,0,0,0,268.3,142.34Z"/><rect class="cls-2" x="265.7" y="140.27" width="4.05" height="0.47" transform="translate(565.19 194.66) rotate(162.63)"/><path class="cls-21" d="M266.68,157.18a2.1,2.1,0,1,1-1.06,1.94A2.11,2.11,0,0,1,266.68,157.18Z"/><path class="cls-2" d="M269.67,157.8a2.29,2.29,0,1,1-2.07-1.08A2.29,2.29,0,0,1,269.67,157.8Zm-3.78,1.78a1.92,1.92,0,1,0,1.26-2.41A1.93,1.93,0,0,0,265.89,159.58Z"/><rect class="cls-2" x="265.7" y="158.77" width="4.05" height="0.47" transform="translate(195.86 461.98) rotate(-107.36)"/><path class="cls-21" d="M24.34,141.54a2.11,2.11,0,1,1,1.94,1.07A2.11,2.11,0,0,1,24.34,141.54Z"/><path class="cls-2" d="M25,138.56a2.29,2.29,0,1,1-1.08,2.06A2.29,2.29,0,0,1,25,138.56Zm1.78,3.78a1.92,1.92,0,1,0-2.41-1.26A1.93,1.93,0,0,0,26.75,142.34Z"/><rect class="cls-2" x="24.15" y="140.27" width="4.05" height="0.47" transform="translate(93.11 266.78) rotate(162.63)"/><path class="cls-21" d="M25.14,157.18a2.1,2.1,0,1,1-1.07,1.94A2.11,2.11,0,0,1,25.14,157.18Z"/><path class="cls-2" d="M28.12,157.8a2.29,2.29,0,1,1-2.06-1.08A2.29,2.29,0,0,1,28.12,157.8Zm-3.78,1.78a1.92,1.92,0,1,0,1.26-2.41A1.93,1.93,0,0,0,24.34,159.58Z"/><rect class="cls-2" x="24.15" y="158.77" width="4.05" height="0.47" transform="translate(-117.77 231.44) rotate(-107.36)"/><path class="cls-21" d="M265.89,187.56a2.1,2.1,0,1,1,1.94,1.06A2.08,2.08,0,0,1,265.89,187.56Z"/><path class="cls-2" d="M266.52,184.58a2.29,2.29,0,1,1-1.08,2.06A2.26,2.26,0,0,1,266.52,184.58Zm1.78,3.78a1.92,1.92,0,1,0-1.15-3.67,1.91,1.91,0,0,0-1.26,2.4A1.93,1.93,0,0,0,268.3,188.36Z"/><rect class="cls-2" x="265.7" y="186.29" width="4.05" height="0.47" transform="translate(578.93 284.59) rotate(162.63)"/><path class="cls-21" d="M266.68,203.19a2.11,2.11,0,1,1-1.06,1.95A2.12,2.12,0,0,1,266.68,203.19Z"/><path class="cls-2" d="M269.67,203.82a2.29,2.29,0,1,1-2.07-1.08A2.29,2.29,0,0,1,269.67,203.82Zm-3.78,1.78a1.92,1.92,0,1,0,1.26-2.41A1.93,1.93,0,0,0,265.89,205.6Z"/><rect class="cls-2" x="265.7" y="204.79" width="4.05" height="0.47" transform="translate(151.94 521.74) rotate(-107.36)"/><path class="cls-21" d="M24.34,187.56a2.11,2.11,0,1,1,1.94,1.06A2.08,2.08,0,0,1,24.34,187.56Z"/><path class="cls-2" d="M25,184.58a2.29,2.29,0,1,1-1.08,2.06A2.29,2.29,0,0,1,25,184.58Zm1.78,3.78a1.92,1.92,0,1,0-2.41-1.27A1.93,1.93,0,0,0,26.75,188.36Z"/><rect class="cls-2" x="24.15" y="186.29" width="4.05" height="0.47" transform="translate(106.85 356.72) rotate(162.63)"/><path class="cls-21" d="M25.14,203.19a2.11,2.11,0,1,1-1.07,1.95A2.11,2.11,0,0,1,25.14,203.19Z"/><path class="cls-2" d="M28.12,203.82a2.29,2.29,0,1,1-2.06-1.08A2.29,2.29,0,0,1,28.12,203.82Zm-3.78,1.78a1.92,1.92,0,1,0,1.26-2.41A1.93,1.93,0,0,0,24.34,205.6Z"/><rect class="cls-2" x="24.15" y="204.79" width="4.05" height="0.47" transform="translate(-161.7 291.2) rotate(-107.36)"/><path class="cls-22" d="M53.4,74.67c-4.12,1.83-6,6.17-4.31,10,3.29,7.43,6.54,19.41-2.41,26.16-13.62,10.27-22,3.73-19.91,18.68s7.68,10.66,6.29,23.35,4.89,19.3,2.8,24S21.18,188.34,32,192.08c37.26,12.85,42.45-1.74,63.93-.62s40.1-6,53.79,0S172.44,194,191.3,193s32.14.63,38.43.63,26.54.62,28.64-3.12,9.43-4.05,8.38-15.25,10.48-17.75,2.1-21.49-3.24.26-6.38-8.23-13.18-17.61-2.7-20.41,13.27-8.72,9.08-18.06-.65-10.61-11.53-20.55c-13.62-12.45-22-1.55-27.25-3.42s-14.67-10.59-33.53-8.72-32.34-10.58-40.17-6.54-11.18,3.74-25.85,6.54-9.43,11.21-27.25,1.87-25.15-4.67-31.43-2.8c-4.2,1.24-9.79.83-13.05.41a10,10,0,0,0-5.29.75Z"/></g></g></svg>