<svg xmlns="http://www.w3.org/2000/svg" viewBox="0 0 271.96 363.4"><defs><style>.cls-1{isolation:isolate;}.cls-2{fill:#c4c0ad;}.cls-3{fill:#91c65b;}.cls-4{fill:#89b552;}.cls-28,.cls-5{fill:#dd9f64;}.cls-19,.cls-21,.cls-6{mix-blend-mode:multiply;}.cls-6{opacity:0.48;}.cls-7{fill:#cfab89;}.cls-10,.cls-11,.cls-12,.cls-13,.cls-14,.cls-15,.cls-16,.cls-17,.cls-18,.cls-19,.cls-20,.cls-7,.cls-8,.cls-9{fill-rule:evenodd;}.cls-8{fill:#e5d6c4;}.cls-9{fill:#c8956e;}.cls-10{fill:#af8061;}.cls-11{fill:#dabfa3;}.cls-12,.cls-21{fill:#a36a42;}.cls-13{fill:#512f20;}.cls-14{fill:#75472f;}.cls-15{fill:#503224;}.cls-16{fill:#80624d;}.cls-17{fill:#231813;}.cls-18,.cls-19{fill:#b57b54;}.cls-20{fill:#bf835d;}.cls-21{opacity:0.7;}.cls-22{fill:#598c3f;}.cls-23{fill:#4b7734;}.cls-24{fill:#662f15;}.cls-25,.cls-26,.cls-27{fill:#cc7e43;}.cls-25{opacity:0.32;}.cls-27{opacity:0.19;}.cls-28{mix-blend-mode:screen;opacity:0.2;}.cls-29{fill:#761e14;}.cls-30{fill:#4a813d;}.cls-31{fill:#ec4523;}.cls-32{fill:#e8c8a9;opacity:0.55;}.cls-33{fill:#535658;}.cls-34{fill:#cac05a;}.cls-35{fill:#407181;}.cls-36{fill:#d7dad9;}.cls-37{fill:#777a7b;}.cls-38{fill:#a39252;}.cls-39{fill:#fff;}.cls-40{fill:#241f20;}</style></defs><g class="cls-1"><g id="Capa_2" data-name="Capa 2"><g id="Capa_1-2" data-name="Capa 1"><ellipse class="cls-2" cx="119.56" cy="338.54" rx="64.16" ry="12.5"/><path class="cls-3" d="M74,338.54s9.46-62.8-8.21-82.37c0,0,18.94,13.25,18.94,58.7,0,0,3.78-31.56-3.79-61.23,0,0,14.52,20.2,11.36,63.75,0,0,1.26-56.17,7.57-70.06,0,0-5.68,57.44,3.16,73.85,0,0,5-36.61,3.79-59.33,0,0,10.73,32.19,4.41,58.07,0,0,14.08-39.77,2-72.59,0,0,19.33,32.82,14,74.48,0,0,9.85-67.53,27.53-69.43,0,0-15.15,17.67-9.47,68.17,0,0,13-24.54,9.47-45.73,0,0,5.61,16.06.59,48.25,0,0,16.45-62.42,43-48.25,0,0-26.51-6-30.93,63.72Z"/><path class="cls-4" d="M170.49,313.23h0C159.5,333.63,74,338.54,74,338.54h93.41A197.23,197.23,0,0,1,170.49,313.23Z"/><rect class="cls-5" x="9.66" y="211.29" width="236.37" height="14.69" transform="translate(-90.79 346.48) rotate(-90)"/><g class="cls-6"><path class="cls-7" d="M122.82,140.63v41.76c-.63-6.14-.69-12.66-1.55-18.65V149.3C122.88,147.11,121.38,142.16,122.82,140.63ZM122,153.5c-.89,1-.13,3.06-.38,4.47v4.46C122.55,160,121.79,156.39,122,153.5Z"/><path class="cls-8" d="M121.27,182.13a35,35,0,0,0,0-11.56Z"/><path class="cls-9" d="M121.27,216.53v5.52c.84,0,.17-.93.39-1.32,1.1,0-.34,1.81.77,1.84a17.74,17.74,0,0,0-.77-6Z"/><path class="cls-10" d="M121.27,222.05v2.89c.88.36.14,1.82.39,2.62,1.07-.12-.31,1.44.77,1.32v-6.31c-1.11,0,.33-1.8-.77-1.84C121.44,221.12,122.11,222.09,121.27,222.05Z"/><path class="cls-9" d="M121.27,224.94v8.66h.39v-6C121.41,226.76,122.15,225.3,121.27,224.94Z"/><path class="cls-7" d="M121.66,233.6h-.39v24.17c0,4.1,1.21,12.72.77,15.49-.15.94-.11.22-.77,0v3.94c.64.28.64,2.34,0,2.63V284a26.18,26.18,0,0,1,0,10v7.88c1.11,0-.33-1.8.77-1.84v-1.58c.26-1.75-.51-4.2.39-5.51V261.44c-.89-1-.14-3.06-.39-4.46V251.2c-.9-1.4-.13-3.94-.38-5.78Z"/><path class="cls-11" d="M121.27,277.2v2.63C121.91,279.54,121.91,277.48,121.27,277.2Z"/><path class="cls-11" d="M121.27,284v10A26.18,26.18,0,0,0,121.27,284Z"/><path class="cls-9" d="M121.27,301.89V310c1.58-2.43.42-6.72.77-10C120.94,300.09,122.38,301.85,121.27,301.89Z"/><path class="cls-10" d="M121.27,310v5.52c.85,0,.16-1.12.39-1.58,1.13.37-.37,2.52.77,2.89V298.47H122v1.58C121.69,303.31,122.85,307.6,121.27,310Z"/><path class="cls-12" d="M121.27,315.55v7.09c.88-.28.15-1.65.39-2.37.88.37.14,1.83.38,2.63.82.19.2-2.84.39-3.94v-2.1c-1.14-.37.36-2.52-.77-2.89C121.43,314.43,122.12,315.51,121.27,315.55Z"/><path class="cls-13" d="M121.27,331.3v5.52h5.8c-1.42-3.5-3.09-6.83-3.09-11.29-1.39,1.85-.5,5.26-1.16,7.61-1.21-.06-.66-1.3-.78-2.1C121.66,331,121.58,331.25,121.27,331.3Z"/><path class="cls-9" d="M122,153.5c-.89,1-.13,3.06-.38,4.47v4.46C122.55,160,121.79,156.39,122,153.5Z"/><path class="cls-12" d="M121.66,227.56v2.63c.9,4.55.13,10.24.38,15.23v6.31c.3.05.45.22.39.52.9-2.89.13-6.91.39-10.24V235.7c-.9-1.31-.14-3.76-.39-5.51v-1.31C121.35,229,122.73,227.44,121.66,227.56Z"/><path class="cls-10" d="M121.66,230.19v15.23H122C121.79,240.43,122.56,234.74,121.66,230.19Z"/><path class="cls-9" d="M122,245.42h-.38c.25,1.84-.52,4.38.38,5.78Z"/><path class="cls-14" d="M122.43,101c-.89.54-.14,2.18-.39,3.15C122.93,103.59,122.18,101.94,122.43,101Z"/><path class="cls-11" d="M122,190.53c.79-.25.84-1,.78-1.84C121.71,188.73,122.11,189.79,122,190.53Z"/><path class="cls-9" d="M122.43,257H122c.25,1.4-.5,3.49.39,4.46V257Z"/><path class="cls-9" d="M122.43,293c-.9,1.31-.13,3.76-.39,5.51h.39V293Z"/><path class="cls-9" d="M122.82,226.25h-.39v3.94h.39v-3.94Z"/><path class="cls-10" d="M122.82,230.19h-.39c.25,1.75-.51,4.2.39,5.51Z"/><path class="cls-10" d="M122.43,258.29v6.83A12.39,12.39,0,0,0,122.43,258.29Z"/><path class="cls-10" d="M122.43,267.48v10.77a38.24,38.24,0,0,1,0,12.08v6c.87-2,.07-5.2,1.16-7.09v-3.94C122.67,279.75,123.66,272.86,122.43,267.48Z"/><path class="cls-9" d="M122.43,278.25v12.08A38.24,38.24,0,0,0,122.43,278.25Z"/><path class="cls-14" d="M123.2,100.45h-.38v4.2C123.71,103.77,123,101.77,123.2,100.45Z"/><path class="cls-10" d="M122.82,143.26v3.15C123.46,146,123.46,143.71,122.82,143.26Z"/><path class="cls-7" d="M122.82,226.77v11h.38C122.94,234.22,123.72,229.93,122.82,226.77Z"/><path class="cls-9" d="M123.2,237.81h-.38V242h.38v-4.2Z"/><path class="cls-12" d="M123.2,119.09a10.1,10.1,0,0,0,.39,3.94c.86-.11.15-1.29.39-1.83C122.86,121.08,124.32,119.21,123.2,119.09Z"/><path class="cls-7" d="M123.59,158.75c-.89.71-.14,2.54-.39,3.68C124.09,161.72,123.34,159.9,123.59,158.75Z"/><path class="cls-7" d="M123.2,239.64v11.82h.39C123.29,247.09,124.22,243.18,123.2,239.64Z"/><path class="cls-9" d="M123.59,251.46h-.39c.25,1.15-.5,3,.39,3.68Z"/><path class="cls-9" d="M123.59,138.79c1.07-2.09.24-4.15,1.16-6.56-.12-3.86.22-6,0-6.57.75,1.85-2.45,9.58-1.16,12.87Z"/><path class="cls-7" d="M123.59,237.54c1.18-3.27-.45-3.82,0,0Z"/><path class="cls-9" d="M123.59,290.86v16.28c1.11,0,.7-1.09.77-1.84.87.2.15,1.48.39,2.1,1-1,1.69-4.19,2.32-6.82V290.07c-.35,3.18-2.36,5.23-1.93,8.93-.9-1.49-.14-4.11-.39-6-.51,0-.35.46-.77.52a7.43,7.43,0,0,0,0-2.62Z"/><path class="cls-7" d="M124,255.93c1.18-3.28-.46-3.83,0,0Z"/><path class="cls-7" d="M124.75,221.52a72.7,72.7,0,0,0,0,16.81v-4.2a1.15,1.15,0,0,1,.77-1.31V226c-.29-3.69-.52,1.82-.38,3.15C124.24,227.12,125,224,124.75,221.52Z"/><path class="cls-7" d="M124.75,244.9c-.89.62-.14,2.35-.39,3.41C125.25,247.69,124.5,246,124.75,244.9Z"/><path class="cls-9" d="M124.75,134.33c.25,1.66-.51,4,.39,5.25C124.88,137.91,125.64,135.56,124.75,134.33Z"/><path class="cls-10" d="M125.52,202.09c-.9,1.58-.13,4.28-.38,6.3.77.72.22-3.82.38-5.25Z"/><path class="cls-12" d="M125.91,124.09h-.39C125.26,127,126.18,127,125.91,124.09Z"/><path class="cls-7" d="M125.91,237.81h-.39v16.8c.9-2.27.13-5.69.39-8.4Z"/><path class="cls-7" d="M125.91,166.37c.25,2.1-.51,4.9.39,6.56C126,170.83,126.81,168,125.91,166.37Z"/><path class="cls-10" d="M125.91,237.81v8.4h.39v-3.15c-.08-2.21.1-5.79,0-7.88,0-.9,0-3.72-.39-1.58C125.81,234.22,126,236.05,125.91,237.81Z"/><path class="cls-12" d="M127.07,124.35h-.39V128C127.57,127.32,126.82,125.49,127.07,124.35Z"/><path class="cls-7" d="M127.46,135.64c.11,4.39-2.63,12-.78,17.86.23.73.44-1.68.39-1.31C127.7,148.05,127.2,141.41,127.46,135.64Z"/><path class="cls-7" d="M127.07,154.55c-.89.62-.14,2.36-.39,3.42v3.41C127.58,159.63,126.81,156.74,127.07,154.55Z"/><path class="cls-11" d="M127.46,200.25a25.78,25.78,0,0,0,0,10Z"/><path class="cls-9" d="M127.07,302.15c-.3,3.45.61,6.06,1.16,8.93V300.31C127.41,300.64,128,301.89,127.07,302.15Z"/><path class="cls-10" d="M127.46,216.27V231.5c0,1.65.65,0,.38-.78.1-1.25-.28-6.43.39-4.73,1.17-3.08-.13-6.74-.39-9.72Z"/><path class="cls-9" d="M127.46,267.22v13.92c.3.06.44.22.38.53,1.15-4.55-.53-9.44,0-14.45Z"/><path class="cls-13" d="M127.46,336.82h1.16c.52-1.58-.77-1.93-.78-3.15C127,334.2,127.7,335.85,127.46,336.82Z"/><path class="cls-7" d="M128.62,164.79c-1,.83.13,3.07-.78,3.94.78,3.79.21,8.08.78,11.82.37,2.45.38-3.12.38-5.51C129,171.35,129.28,166.75,128.62,164.79Z"/><path class="cls-9" d="M128.23,296.9c1.11,0-.34,1.8.77,1.84-.13-1.75.34-3.91-.38-5.26C128.22,290.29,128.15,295.73,128.23,296.9Z"/><path class="cls-12" d="M129,124.35h-.38v5.78C129.51,128.72,128.75,126.19,129,124.35Z"/><path class="cls-9" d="M129,301.1c.5,2.9-1,7.16.78,9.19,0-1.28-.21-2.76.38-3.67,2.1.9.8-2.94,1.16-4.73-1-2.67.27-8.17-1.54-9.46.52-2.25-.91-2.08-.39-3.15C128.08,292,130.71,299.24,129,301.1Z"/><path class="cls-9" d="M129.39,130.65c1.14.63-.37,3,.77,3.68-.2-2.75.44-6.08-.38-8.41C128.88,127,129.64,129.16,129.39,130.65Z"/><path class="cls-11" d="M129.78,210.23v3.94C130.83,212.51,129.72,202.83,129.78,210.23Z"/><path class="cls-9" d="M130.16,137.48c.2,1.53-.43,3.62.39,4.73.9-1.41.13-3.94.39-5.78C129.89,136.24,131.21,137.67,130.16,137.48Z"/><path class="cls-9" d="M130.94,307.4c-1.73.69.53,5.75,0,0Z"/><path class="cls-10" d="M130.55,259.08v.79c.21,1.35-.45,4.67.39,4.72C130.68,262.84,131.45,260.4,130.55,259.08Z"/><path class="cls-15" d="M130.55,336.82h3.87c.63-2.71-1.14-3.78-1.16-6-.53,0-.82,2.41-.78,3.68-.66-1.2-.82-1.09-.77.52-.87-.11-.16-1.29-.39-1.84C130.21,333.79,130.63,335.47,130.55,336.82Z"/><path class="cls-9" d="M130.94,132c.9,1.53.47,2.33.77,4.21.51,0,.35-.46.77-.53.25,1.49-.51,3.67.39,4.73.26-4.82-.53-8.92-1.16-13.13C130.1,127.89,131.31,130.47,130.94,132Z"/><path class="cls-11" d="M131.32,209.18h-.38v5.25c.89-1,.13-3.06.38-4.46Z"/><path class="cls-14" d="M131.71,100.45h-.39v3.94C132.22,103.59,131.46,101.68,131.71,100.45Z"/><path class="cls-9" d="M131.32,209.18V210c.3.05.45.22.39.52v7.62c.88-.28.15-1.65.39-2.37.05-3.2-.09-7.62,0-10v-.52c-.31-.06-.45-.22-.39-.53.29-2-.46-4.93-.39-1.31Z"/><path class="cls-9" d="M131.32,293.75h.39v-4.21C130.82,290.43,131.57,292.43,131.32,293.75Z"/><path class="cls-10" d="M131.71,293.75h-.39v3.94h.39Z"/><path class="cls-9" d="M132.1,166.89c-.91,5.7-.13,12.52-.39,18.65C132.61,179.85,131.84,173,132.1,166.89Z"/><path class="cls-9" d="M132.87,251.2h.39c.24-.71-.5-2.08.38-2.36v-4.73a6.63,6.63,0,0,1,0,5c.24,7.9-.06,14.18,0,21.8,0,2.74-.54,7.68.78,7.35v-2.1c.25-2-.52-4.72.38-6.3v-5c-.9-2-.13-5.17-.38-7.62V240.69c-1.15-.88.37-3.58-.78-4.46-1.2.05,1.38.91,0,2.1.3-.26-.74-3.54-.77-3.94-.29-4.38.23-12.27,0-15.49,1.15,1-.38,3.75.77,4.72a44.75,44.75,0,0,1,.39-9.71c-.74-.57-.24,1.92-.39,2.62-1.11-.64-.69-2.33-.77-3.67-.92,3.6-.64,7.73-.39,12.34-.88-.45-.14-2-.38-2.89-.59,7.94,1.26,19.09.77,28.63Z"/><path class="cls-11" d="M132.1,257.24v3.68A3.77,3.77,0,0,0,132.1,257.24Z"/><path class="cls-14" d="M132.87,100.45h-.39v3.41C133.37,103.24,132.62,101.5,132.87,100.45Z"/><path class="cls-9" d="M133.26,142.73h-.39V149C133.77,147.46,133,144.75,133.26,142.73Z"/><path class="cls-10" d="M133.26,251.2h-.39v4.2h.39Z"/><path class="cls-9" d="M133.26,255.4h-.39v12.35C133.77,264.16,133,259.43,133.26,255.4Z"/><path class="cls-9" d="M133.26,135.38h.38v-8.14C132.74,129.43,133.51,132.75,133.26,135.38Z"/><path class="cls-9" d="M133.64,150.61c-.89,1.49-.13,4.11-.38,6v18.91C134.16,167.77,133.39,158.84,133.64,150.61Z"/><path class="cls-9" d="M134,135.64h-.39c.25,1-.5,2.62.39,3.15v-3.15Z"/><path class="cls-10" d="M133.64,248.84v.26a6.63,6.63,0,0,0,0-5Z"/><path class="cls-12" d="M134.42,138H134v6h.39Z"/><path class="cls-10" d="M134.42,144H134v13.14c.9-3.68.13-8.49.39-12.61Z"/><path class="cls-9" d="M134,157.18c0,4.53-.24,9.27.77,13.13V144.57h-.38C134.16,148.69,134.93,153.5,134,157.18Z"/><path class="cls-11" d="M134.42,184.23c.25-1.41-.51-3.5.38-4.47V175.3C134,177.66,133.56,181.63,134.42,184.23Z"/><path class="cls-9" d="M134.42,221.26a6.63,6.63,0,0,0,0,5Z"/><path class="cls-9" d="M134.42,227.83c-.67,1.68-.62,6.54,0,7.35Z"/><path class="cls-10" d="M134.8,110.43c-.9,3.59-.13,8.31-.38,12.34h.38V110.43Z"/><path class="cls-9" d="M134.8,122.77h-.38v6.57h.38Z"/><path class="cls-7" d="M134.8,129.34h-.38v15.23h.38V129.34Z"/><path class="cls-11" d="M134.8,247.26h-.38v10h.38Z"/><path class="cls-7" d="M134.8,257.24h-.38c.25,2.45-.52,5.6.38,7.62v-7.62Z"/><path class="cls-7" d="M134.8,269.85c-.9,1.58-.13,4.29-.38,6.3h.38Z"/><path class="cls-7" d="M134.8,296.64h-.38v10h.38Z"/><path class="cls-9" d="M134.8,306.62h-.38c.25,2-.52,4.72.38,6.3Z"/><path class="cls-12" d="M134.8,321.85h-.38v4.46h.38v-4.46Z"/><path class="cls-16" d="M134.8,326.31h-.38c.24,1.15-.51,3,.38,3.68Z"/><path class="cls-17" d="M135.19,100.45h-.39V112h.39Z"/><path class="cls-15" d="M135.19,112h-.39v27.32h.39Z"/><path class="cls-14" d="M135.19,139.32h-.39v28.89h.39Z"/><path class="cls-15" d="M135.19,168.21h-.39v16.54h.39Z"/><path class="cls-14" d="M135.19,184.75h-.39v76.69h.39Z"/><path class="cls-15" d="M135.19,261.44h-.39v29.68h.39Z"/><path class="cls-15" d="M135.19,295.06h-.39v29.15h.39Z"/><path class="cls-17" d="M135.19,324.21h-.39v12.61h.39Z"/><path class="cls-9" d="M122,139.05c.26-1.66-.51-4,.39-5.25,1.29,1.49-.76,5.25,1.16,6.31-.22,12.55.5,24.27.77,37-1.32,1.31.31,8.72,0,8.93,1.22-.83-1-4.39,0-5.26.37,7.11,1.37,13.78,1.16,21.28-.9,1.58-.13,4.28-.38,6.3.77.72.22-3.82.38-5.25a10,10,0,0,1,.78,7.35c-.64,2.2-.66,8.48,0,11.56,0,.16,0,.31.38.26.32-1.23-.74-5.46.78-4.2V231.5c0,1.65.65,0,.38-.78.1-1.25-.28-6.43.39-4.73,1.17-3.08-.13-6.74-.39-9.72h-.38v-16c.73-6.74-1.8-14-.39-19.44.93,2.18-.22,5.76.77,7.88-.25-8.14.73-17.12-1.16-24.16-.62,3.77,1.08,8.7-.38,11.29v-2.89c-.26-2.1.51-4.9-.39-6.56v-.79c.28-7.93-.73-13.47-.77-21.27.7-1.48.38-4.1.38-6,0-1.19,0-5.16.39-3.42.61,3-.76,5.89.39,10.51.3-3.47-.74-7.85.77-10.51.25-1.66-.51-4,.39-5.25.25,1.75-.51,4.2.38,5.52.08-1.35-.34-3,.78-3.68.16,1.12-.49,4.88.77,2.89v9.45c.27,1.48-.4,4.3-.39,1.31,0-.66,0-1.5,0-2.36-.07-4.36-.23-.24-.77.53-.25-1.32.51-3.32-.39-4.21.16,7.13-.29,14,.39,20.23,1-3.19-.3-7.91,1.16-10.77.44,5.73-.07,13,.77,19.17.2-3.8-.43-8.17.39-11.55-.17-1.75.17-8.08.39-3.42-.35,10.65.51,21.89,0,31.78-.23-.46.46-1.54-.39-1.57.85,8.26.17,17.56.39,26.26v5.25c0,15.07,1.66,27.93,1.16,42.81V258c-.8-.51-1.1.25-1.16.52-.71,3.07,1.19,9.62,0,12.87v3.15c-.89-.44-.15-2-.39-2.89-.26-2,.51-4.72-.39-6.3.5,1.63-.59,3-.38,3.42-1.21-2.47.89-9.5,0-12.61-.12-2.72.08-5.86.38-3.41.15,1.17-.4,5.94.39,7.09.21,1.35-.45,4.67.39,4.72-.26-1.75.51-4.19-.39-5.51V246.74a2.76,2.76,0,0,0,0-2.11c.9-2.27.13-5.68.39-8.4.42-2,.44,1.59.38,2.36.25,1.32-.5,3.32.39,4.21a59.59,59.59,0,0,0-1.16-14.19c-.24.63.48,1.91-.39,2.11.09-13.48,1.24-28.26-.38-41.24-.26,2,.51,4.73-.39,6.3-.29-2.94.25-8.92-.77-12.86.4,9.81-1.81,19.26-.39,28.88.25-1.23-.51-3.14.39-3.93.23.54-.48,1.72.38,1.83v-9.19c1.16,2.63-.38,7.09.78,9.72v10c0,1.59.27,5.35-.39,4.73-.09-.21,0-.52-.39-.53-.69,3.38.08,7.76-.77,11-.06-.31.07-.74-.39-.79-.25,1.58.51,3.85-.38,5-.3-1.46-.14-3.23-.78-4.46-.25,2.54.52,5.78-.38,7.88-.08-2.21.1-5.79,0-7.88,0-.9,0-3.72-.39-1.58-.1.62.07,2.45,0,4.21h-.39V226c-.29-3.69-.52,1.82-.38,3.15-.9-2-.13-5.16-.39-7.62V216.8c.2-7.28.16-18.69-.77-26.53-.18-1.5-.36-8.34-1.16-3.68V146.41c.64-.45.64-2.7,0-3.15v-2.63c-1.44,1.53.06,6.48-1.55,8.67V123.56C122.43,128.11,120.88,134.5,122,139.05Zm5.42-3.41c.11,4.39-2.63,12-.78,17.86.23.73.44-1.68.39-1.31C127.7,148.05,127.2,141.41,127.46,135.64Zm-3.87,23.11c-.89.71-.14,2.54-.39,3.68C124.09,161.72,123.34,159.9,123.59,158.75Zm3.48-4.2c-.89.62-.14,2.36-.39,3.42v3.41C127.58,159.63,126.81,156.74,127.07,154.55Zm1.55,10.24c-1,.83.13,3.07-.78,3.94.78,3.79.21,8.08.78,11.82.37,2.45.38-3.12.38-5.51C129,171.35,129.28,166.75,128.62,164.79Z"/><path class="cls-11" d="M121.27,163.74v6.83a35,35,0,0,1,0,11.56v29.94c.84,0,.17-.93.39-1.31,1,1.18-.34,2.41.38,3.67.9-4.9.13-10.94.39-16.28-2.15,1.46,1.72,3.56-.39,5,.11-.08-.38-7.49-.38-8.67v-8.93c1.29.35-.74,3,1.16,2.89v-6C122.19,176.25,122.13,169.73,121.27,163.74Z"/><path class="cls-11" d="M121.27,257.77v15.49c.66.22.62.94.77,0C122.48,270.49,121.23,261.87,121.27,257.77Z"/><path class="cls-18" d="M122.43,296.37v19.7h.39c-.3-1.42.47-2.13.38-3.41.89.62.14,2.35.39,3.41.88.36.14,1.83.39,2.63v2.36c1-2.1.41-.44,1.16.79.8-.07.1-1.15.77-1.31.65.51.42,1.63.77,2.36.68-.06.88-.45.78-1,.71.57.41,1.82,1.16,2.36.86-.72.8-2.08.77-3.41,1,.29-.15,2,.77,2.36.43-.13.09-1.46,1.16-1.84.76.95-.51,2.07.78,2.37,1.51-1.26-.2-4.46.38-7.36,1.05,1.22-.22,4,.78,5.26.58,2.45.2-3.55,1.16-4.21-.25-1.23.5-3.14-.39-3.93-.12,1.05-.27,2.09-1.16,2.62a20,20,0,0,0-.77-6.83v6.57c0,1.66,0,6.34-.39,3.15-.08-1.35.34-3-.77-3.68-.21,1.44.1,3.23-1.16,3.94-.21-.38.45-1.35-.39-1.31a2.1,2.1,0,0,1-.77,2.1c-1.13-.73-.73-2.48-.78-3.94-.42.06-.26.52-.77.53-.22-.47.47-1.55-.39-1.58,0,.41.19,1-.38,1.05-.25-.71.49-2.08-.39-2.36a7.33,7.33,0,0,1-1.16,2.89c-.24-.8.49-2.27-.39-2.63-.07.5.26,2.6-.38,1.84.16-3.09-.69-5.49-.39-8.67V289.28C122.5,291.17,123.3,294.34,122.43,296.37Z"/><path class="cls-19" d="M121.27,294V271.68a36,36,0,0,1,0-11.81v-3.15a5.44,5.44,0,0,1,0-4.47v-.52a290.07,290.07,0,0,1,0-33.62V210c-.65-24.78-.65-51.39,0-76.17V100.45h-.78V336.82h.78V294Z"/><path class="cls-10" d="M124.36,180.81c.37-.57-.23-2.35,0-3.67-1.32,1.31.31,8.72,0,8.93C125.58,185.24,123.41,181.68,124.36,180.81Z"/><path class="cls-14" d="M127.07,100.45h-1.55v8.66c-.2,1.41.26,6.92.39,2.63.06-2.07.5-4.44.39-6.83.85,0,.16,1.12.38,1.58C127.58,105,126.81,102.38,127.07,100.45Z"/><path class="cls-9" d="M125.52,257.77c.87,5.18-1,10.62,0,16.28.66-8.9,1.34-19,.78-27.84h-.39c-.26,2.71.51,6.13-.39,8.4Z"/><path class="cls-10" d="M126.3,222.05c.06-4.74.36-7.41,0-11.56C125.66,212.69,125.64,219,126.3,222.05Z"/><path class="cls-20" d="M131.32,104.39c.9-.8.14-2.71.39-3.94h.77v3.41c.89-.62.14-2.36.39-3.41h.77c.26,4.64-.51,10,.39,14.18-.08-4.87.68-9.17.39-14.18h.38v10c-.9,3.59-.13,8.31-.38,12.34V138H134v-2.37c-.16-6.28.4-13-1.16-18.38-.25,1.4.51,3.49-.39,4.46-.61-1.77.1-4.44-1.16-5.78-1.83,1.28,1.19,6.81-.38,7.88.9-.61-.94-7.54-1.55-7.35a56,56,0,0,1-.39,7.88h-.38c-.82-2,1.35-5.66-.39-6.31.32.12-.28,1.22-.39,1-.56-.84.52-2.1-.77-2.1v7.36h-.39c-.25-2.54.52-5.78-.38-7.88.28,2.82-.46,4.94-.39,7.62h-.39c-.6-3.71-.65-7.79-1.16-11.56,0,2.94-.63,5.52-.38,8.67-1.12-.12.34-2-.78-2.11-.22-1.77.6-4.25-.77-5.25-.18.94.4,3.77-.39,3.42,0-1.59.11-3.23-.77-4.21v-12.6h1.55v4.2c.89-.88.13-2.88.38-4.2h2.32v8.66c-.2,1.41.26,6.92.39,2.63.06-2.07.5-4.44.39-6.83.85,0,.16,1.12.38,1.58.9-1.49.13-4.11.39-6h4.25ZM122.43,101c-.89.54-.14,2.18-.39,3.15C122.93,103.59,122.18,101.94,122.43,101Z"/><path class="cls-12" d="M132.87,140.37v2.36h.39v-7.35c.25-2.63-.52-5.95.38-8.14v8.4H134c-.16-6.28.4-13-1.16-18.38-.25,1.4.51,3.49-.39,4.46-.61-1.77.1-4.44-1.16-5.78-1.83,1.28,1.19,6.81-.38,7.88.9-.61-.94-7.54-1.55-7.35a56,56,0,0,1-.39,7.88c-.25,1.84.51,4.37-.38,5.78v-5.78c-.82-2,1.35-5.66-.39-6.31.32.12-.28,1.22-.39,1-.56-.84.52-2.1-.77-2.1v7.36c-.25,1.14.5,3-.39,3.67v-3.67c-.25-2.54.52-5.78-.38-7.88.28,2.82-.46,4.94-.39,7.62.27,2.86-.65,2.86-.39,0-.6-3.71-.65-7.79-1.16-11.56,0,2.94-.63,5.52-.38,8.67-.24.54.47,1.72-.39,1.83a10.1,10.1,0,0,1-.39-3.94c-.22-1.77.6-4.25-.77-5.25-.18.94.4,3.77-.39,3.42,0-1.59.11-3.23-.77-4.21v10.51c1.16,4.55-.39,10.94.77,15.49.26-1.66-.51-4,.39-5.25,1.29,1.49-.76,5.25,1.16,6.31v-1.58c-1.29-3.29,1.91-11,1.16-12.87.22.56-.12,2.71,0,6.57v2.1c.89,1.23.13,3.58.39,5.25v4.73c.7-1.48.38-4.1.38-6,0-1.19,0-5.16.39-3.42.61,3-.76,5.89.39,10.51.3-3.47-.74-7.85.77-10.51.25-1.66-.51-4,.39-5.25.25,1.75-.51,4.2.38,5.52.08-1.35-.34-3,.78-3.68.16,1.12-.49,4.88.77,2.89v-3.68c.25-1.49-.51-3.67.39-4.73.82,2.33.18,5.66.38,8.41v3.15c1.05.19-.27-1.24.78-1V132c.37-1.49-.84-4.07.77-4.72C132.34,131.45,133.13,135.55,132.87,140.37Z"/><path class="cls-10" d="M133.64,236.23V223.62c-1.15-1,.38-3.75-.77-4.72.23,3.22-.29,11.11,0,15.49,0,.4,1.07,3.68.77,3.94C135,237.14,132.44,236.28,133.64,236.23Z"/><path class="cls-14" d="M134.42,100.45h-.78c.26,4.64-.51,10,.39,14.18C134,109.76,134.71,105.46,134.42,100.45Z"/><path class="cls-11" d="M134.42,227.83v7.35h.38V216.27h-.38v11.56Z"/><path class="cls-7" d="M134.8,235.18h-.38c-.62-.81-.67-5.67,0-7.35v-1.58a6.63,6.63,0,0,1,0-5V204.45c-1.75.91-.3,4-.78,5.78-1.21.16.78-5.36-1.54-4.47-.09,2.36.05,6.78,0,10-.24.72.49,2.09-.39,2.37v-7.62c.06-.3-.09-.47-.39-.52-.25,1.4.51,3.49-.38,4.46,0,15.07,1.66,27.93,1.16,42.81a3.77,3.77,0,0,1,0,3.68c1.28,10.51,0,22.21.38,33.88,0,.69-.29,4.06.39,2.1v-2.36a21.11,21.11,0,0,0,.39-5.78c.89,1,.13,3.06.38,4.46.05.44-.21,2.38.39,1.58.26-4.21-.52-9.11.39-12.87v-3.68c-1.32.33-.75-4.61-.78-7.35-.06-7.62.24-13.9,0-21.8v-.26c-.88.28-.14,1.65-.38,2.36v4.2c-.26,4,.51,8.76-.39,12.35V250.94c.49-9.54-1.36-20.69-.77-28.63.24.88-.5,2.44.38,2.89-.25-4.61-.53-8.74.39-12.34.08,1.34-.34,3,.77,3.67.15-.7-.35-3.19.39-2.62a44.75,44.75,0,0,0-.39,9.71v12.61c1.15.88-.37,3.58.78,4.46.25-1.4-.51-3.49.38-4.46Z"/><path class="cls-8" d="M134.42,240.69v6.57h.38v-11C133.91,237.2,134.67,239.29,134.42,240.69Z"/><path class="cls-11" d="M134.42,281.93v14.71h.38V276.15h-.38v5.78Z"/><path class="cls-14" d="M134.8,291.12v3.94h.39v-3.94Z"/><path class="cls-7" d="M121.66,210.76c1,1.18-.34,2.41.38,3.67.9-4.9.13-10.94.39-16.28-2.15,1.46,1.72,3.56-.39,5,.11-.08-.38-7.49-.38-8.67v-8.93c1.29.35-.74,3,1.16,2.89v-1.84c.8-4.66,1,2.18,1.16,3.68.93,7.84,1,19.25.77,26.53-1.43-8.4-.16-18.63-1.55-27.06-.63,12.07-.52,24.59-.38,36.51h-.39v-3.68a17.74,17.74,0,0,0-.77-6h-.39v-4.46C122.11,212.11,121.44,211.14,121.66,210.76Zm.38-20.23c.79-.25.84-1,.78-1.84C121.71,188.73,122.11,189.79,122,190.53Z"/><path class="cls-9" d="M131.71,297.69h-.39v2.36c1.16,1.75-.38,5.34.78,7.09v-5c1.14.8-.38,3.41.77,4.2-.05-1.25,0-2.47.77-3.15.23.55-.48,1.73.39,1.84.25-2-.51-4.72.39-6.3V281.93c-.91,3.76-.13,8.66-.39,12.87-.6.8-.34-1.14-.39-1.58-.25-1.4.51-3.5-.38-4.46a21.11,21.11,0,0,1-.39,5.78v2.36c-.68,2-.36-1.41-.39-2.1-.43-11.67.9-23.37-.38-33.88v-.27c-.46,2.56-1.06,8.71.38,10-.9,7-.13,15.15-.38,22.59C132.15,294.65,132.14,301.47,131.71,297.69Z"/><path class="cls-10" d="M122,251.73V257h.39c.23-.55-.48-1.73.39-1.84,1.09,2.49-.34,6.71.77,9.19v-9.19c-.89-.71-.14-2.53-.39-3.68V242h-.38c-.26,3.33.51,7.35-.39,10.24C122.49,252,122.34,251.78,122,251.73Z"/><path class="cls-20" d="M121.27,322.64v8.66c.31-.05.39-.26.77-.26.12.8-.43,2,.78,2.1.66-2.35-.23-5.76,1.16-7.61,0,4.46,1.67,7.79,3.09,11.29h.39c.24-1-.5-2.62.38-3.15,0,1.22,1.3,1.57.78,3.15h1.93c.08-1.35-.34-3,.77-3.68.23.55-.48,1.73.39,1.84-.05-1.61.11-1.72.77-.52,0-1.27.25-3.68.78-3.68,0,2.26,1.79,3.33,1.16,6h.38V330c-.89-.71-.14-2.53-.38-3.68V324a4.48,4.48,0,0,0-.78,3.15c-.57-.4-.62-1.15-.77-1.84-.9.88-.14,2.89-.39,4.21-.52-.09-.32-.66-.38-1.06-.84,0-.18.94-.39,1.32-.76-.36-.21-1.61-.77-2.1-.84-.05-.18.93-.39,1.31-.85,0-.83-.66-.77-1.31-.59-.47-.37,1.83-.78,2.36-.82-.67-.44-2.15-1.16-2.89-.55.06-.13.79-.77.79-.8-.68-.82-1.9-.77-3.15-.85,0-.83.66-.78,1.31-1.11-.64-.69-2.33-.77-3.68-.92,1.55-.79-.14-.77-1.31V318.7c-.89-.37-.15-1.83-.39-2.63-.25-1.06.5-2.79-.39-3.41.09,1.28-.68,2-.38,3.41-.25.89.49,2.44-.39,2.89-.19,1.1.43,4.13-.39,3.94-.24-.8.5-2.26-.38-2.63C121.42,321,122.15,322.36,121.27,322.64Z"/></g><rect class="cls-21" x="2.86" y="218.08" width="236.37" height="1.1" transform="translate(339.68 97.59) rotate(90)"/><ellipse class="cls-2" cx="121.44" cy="350.9" rx="64.16" ry="12.5"/><path class="cls-22" d="M74.77,350.9s-10.89-27.45,0-46.39c0,0-2.37,17.52,4.26,20.83,0,0,3.79-23.67-2.37-34.56,0,0,10,14.68,10,26,0,0,.94-15.62,6.15-19.41,0,0-4.73,27.46,2.84,31.72,0,0,4.73-7.1,3.31-18,0,0,6.63,10.41,3.79,18.46,0,0,10.41-20.36,2.37-38.82,0,0,10.83,16.57,3.05,36,0,0,9.25-8.52,7.83-25.09,0,0,7.58,18,3.32,26.51,0,0,3.79-8.05,3.31-25.56s4.74-27,11.84-28.41c0,0-9.94,15.15-4.26,27s4.26,27.93,4.26,27.93,9-16.1,3.31-29.83c0,0,8.05,19.41,5.21,27,0,0,1.65-26,11.71-34.09,0,0-10.06,25.09,0,34.56,0,0,6.75-6.63,5.8-19.88,0,0,5.21,18,2.84,28.87,0,0,3.32-34.08,27-29.35,0,0-25.57,4.74-18.47,44.5Z"/><path class="cls-23" d="M171.49,328.21h0c-9.65,17.1-96.71,22.7-96.71,22.7h97C170.14,341.51,170.29,334.09,171.49,328.21Z"/><path class="cls-24" d="M259.7,54.24a1405.4,1405.4,0,0,0-247.44,0c-1.65.14-3.44,2-4,4.08a291.12,291.12,0,0,0-5.72,30c-.29,2.11.92,3.76,2.67,3.69q14.48-.57,29-1c4.16-.13,3.44,7.3-.43,7.38q-14.65.36-29.31.81C2.72,99.28,1.13,101,1,103.14a277.82,277.82,0,0,0,.48,51.1c.22,2.11,1.84,3.87,3.59,3.94q10.89.4,21.77.74c3,.09,4.1,3.84,3.14,6-1.22,2.63-2.79.87-24,.48C4.17,165.27,3,166.91,3.33,169q2.16,14,5.74,27.91c.54,2.11,2.34,3.95,4,4.1a1331.17,1331.17,0,0,0,245.87,0c1.64-.16,3.44-2,4-4.11q3.57-14,5.74-27.91c.33-2.11-.85-3.75-2.59-3.67l-1.51.07c-2.19.1-2.88-2.22-2.31-4.25,1-3.59,4.35-2.87,4.72-3,1.75-.07,3.37-1.83,3.58-3.94q.75-7.29,1.1-14.58c.11-2.11-1.27-3.81-3.05-3.79l-20,.21c-4.25,0-3.94-7.32,0-7.32l20.24-.06a3.57,3.57,0,0,0,3.22-3.83,283.83,283.83,0,0,0-8.3-66.54C263.14,56.22,261.36,54.39,259.7,54.24Z"/><path class="cls-5" d="M61.84,92.89a83.32,83.32,0,0,0-24.46-3.4c.17,2-1,4.42-3.25,4.48q-14.61.42-29.21.94a4.14,4.14,0,0,0-3.57,3.83A277.59,277.59,0,0,0,.9,148.42a4,4,0,0,0,3.51,3.81q10.93.33,21.88.61c3,.07,4,3.72,3,5.77,77.79,7.21,155.29,3.23,233.56-3.5a3.53,3.53,0,0,1,3.31-2.83l1.36-.05a4,4,0,0,0,3.52-3.81q.57-7.08.78-14.18a3.38,3.38,0,0,0-3.13-3.7l-20.07.1c-4.25,0-4.05-7.14-.15-7.12l20.24,0a3.4,3.4,0,0,0,3.15-3.7,277.86,277.86,0,0,0-2.3-30,318.13,318.13,0,0,0-33.77,3.65C178.42,103,120.45,108,61.84,92.89Z"/><path class="cls-25" d="M185.9,130.21h-.52l-1.22,0h0l-18.05-.35h0l18.05.35h0l1.22,0h.84c17.53.28,22,.56-111.62-2.34-23.3-4-49.72-6.31-74.6-3.27q-.06,11.91.9,23.82a4.82,4.82,0,0,0,.33,1.37A125.07,125.07,0,0,0,53,144.88c35.9-11.12,163,2.25,216.89,6.21a4.47,4.47,0,0,0,1.18-2.67q.57-7.08.78-14.18a3.84,3.84,0,0,0-.9-2.63c-42.37-.57-68.91-1.1-84.73-1.4Z"/><path class="cls-26" d="M89.23,98.49q-3-.48-6-1c-14.87,2.73-53.33,1.7-81.83,1.07l0,.19c-.09.9-.17,1.8-.25,2.7,19,.49,39.72.93,54.88.7C77.75,101.8,86,100.16,89.23,98.49Z"/><path class="cls-26" d="M270.31,95.85c-7.49-1.06-16.77-2.32-26.46-3.48q-4,.55-8,1.15l-3.33.53c13.68,1.45,27.65,3.27,38.12,4.69C270.52,97.78,270.42,96.81,270.31,95.85Z"/><path class="cls-26" d="M199.14,98.76q-4,.48-8,.92c17.2,4.93,52.69,7.53,80.28,9-.06-1-.13-1.92-.2-2.88C244.07,104.22,216.1,101.9,199.14,98.76Z"/><path class="cls-26" d="M185.9,130.21h0Z"/><path class="cls-26" d="M166.1,129.82Z"/><path class="cls-26" d="M165.82,129.81h0Z"/><path class="cls-26" d="M166.1,129.82h0Z"/><path class="cls-26" d="M165.85,129.82h0Z"/><path class="cls-26" d="M165.8,129.81h0Z"/><path class="cls-26" d="M.05,120.84c0,1.26,0,2.51,0,3.76,24.88-3,51.3-.73,74.6,3.27,133.63,2.9,129.15,2.62,111.62,2.34,15.82.3,42.36.83,84.73,1.4a2.92,2.92,0,0,0-2.23-1.07l-20.07.1c-2.14,0-3.14-1.78-3.13-3.57-57-3.14-115.24-4.95-170.54-5.41C51.25,118.09,24.92,116.59.05,120.84Z"/><path class="cls-26" d="M165.73,129.81h0Z"/><path class="cls-26" d="M165.86,129.82h0Z"/><path class="cls-26" d="M186.22,130.21h0Z"/><path class="cls-26" d="M185.38,130.2l-1.22,0Z"/><path class="cls-26" d="M184.16,130.18h0Z"/><path class="cls-26" d="M184.15,130.17c-11.42-.21-16.66-.32-18.05-.35Z"/><path class="cls-26" d="M232.39,115.83c-20.8,2.73-77.33-9.35-110.07-12.93-20.6-2.36-84.82,4.51-122,9.26,0,1-.09,2-.13,3,184.72-10.56,81.84-5.67,202.29,5.1,37.68,3.35,38.32-4.41,69.35-1.7,0-1-.06-2-.1-2.94C258.31,113.92,245,113.61,232.39,115.83Z"/><path class="cls-26" d="M53,144.88a125.07,125.07,0,0,1-51.77,4.91,4.47,4.47,0,0,0,1.06,1.52,125.4,125.4,0,0,0,51.08-5c35-10.83,157.85,1.89,213.19,5.93l1,0a3.36,3.36,0,0,0,2.34-1.14C216,147.13,88.9,133.76,53,144.88Z"/><path class="cls-26" d="M194.57,158.73a1.39,1.39,0,0,0-.31-1.36c-4.69-5.33-31-6.52-32.45-6.61-4.67-.62-45.23-6.44-48.57-.31-3.88,7.33,26.93,10.6,50.66,11.1q14.28-.54,28.6-1.36C194.08,159.71,194.42,159.2,194.57,158.73Zm-80.28-6.64c-2.89-6.69,41.42-.61,47.38.19,5.81.29,27.23,1.75,31.6,6.09C187.72,162.41,117.58,159.67,114.29,152.09Z"/><path class="cls-24" d="M269.61,90c-33.58,3-52.72,10.3-115.94,13-18.08,1.21-32.91.19-48-1C62.92,96.76,58.78,90.4,37.37,89.61a1.94,1.94,0,0,0,0-.24C63.3,88.1,83,102.44,153.63,101.63c45.52-.1,80.57-12,115.94-11.87C269.58,89.83,269.6,89.91,269.61,90Z"/><path class="cls-5" d="M258.92,51.18a1330.3,1330.3,0,0,0-245.87,0c-1.64.15-3.43,2-4,4A293.29,293.29,0,0,0,3.15,84.37c-.31,2,.87,3.65,2.62,3.57Q20.2,87.3,34.62,86.8a2.61,2.61,0,0,1,2.76,2.69,83.32,83.32,0,0,1,24.46,3.4c58.61,15.1,116.58,10.12,174,.63a318.13,318.13,0,0,1,33.77-3.65,290.62,290.62,0,0,0-6.72-34.69C262.34,53.13,260.56,51.33,258.92,51.18Z"/><path class="cls-27" d="M170.71,67.62,161.42,64h0c-41.36-18-82.68,12.08-155.5,4.86-.32,1.51-.62,3-.91,4.54C28,74.76,86.37,81,101,78.2c14.31-3.53,116.33,5.53,167.43,3.58q-2.13-13.31-5.54-26.6a4.26,4.26,0,0,0-.17-.54C236.08,65.27,200.57,77.53,170.71,67.62Z"/><path class="cls-26" d="M10.71,52.41A6,6,0,0,0,9.1,55.18c-.31,1.2-.62,2.41-.91,3.61,63,7.8,89.54-18.52,133.73-8.7,38.53,9,46.32,14.43,66.81-2.61-2.68-.15-5.37-.28-8.06-.42-14.8,10.32-22.51,6-51.3-1.5q-31.07-.31-62.12.82C68.78,50.83,46.24,55,10.71,52.41Z"/><path class="cls-26" d="M161.42,64Z"/><path class="cls-26" d="M171,65.34a143,143,0,0,0-28-8.64l-4.71-.55C102.62,52.62,68.86,73.8,6.24,67.37c-.11.51-.22,1-.32,1.53C78.74,76.11,120.06,46.07,161.42,64l9.29,3.58c29.86,9.91,65.37-2.35,92-13a6.16,6.16,0,0,0-1.57-2.35C234.27,63.17,200,74.92,171,65.34Z"/><path class="cls-26" d="M161.4,64Z"/><path class="cls-26" d="M91.52,96c.33-1,.35-2.54-1.4-4.21-9.74-9.41-54.94-10.3-86.77-8.76-.07.44-.13.87-.2,1.31A3.76,3.76,0,0,0,3.22,86c33.86-1.47,81.67-.28,86,9.13-.67,1-2.79,1.8-6,2.4q3,.52,6,1A3.75,3.75,0,0,0,91.52,96Z"/><path class="cls-26" d="M101,78.2C86.37,81,28,74.76,5,73.44c-.18,1-.35,1.91-.53,2.86,23.45,1.46,81.68,7.74,96.75,4.9,14.31-3.44,115.55,5.74,167.62,3.39-.14-.93-.29-1.87-.44-2.81C217.31,83.73,115.29,74.67,101,78.2Z"/><path class="cls-26" d="M181,92c-1.2,3.05,2.81,5.59,10.12,7.69q4-.44,8-.92c-8.6-1.59-14.37-3.41-15.81-5.46,3.2-3.09,25.75-1.76,49.16.75l3.33-.53q4-.6,8-1.15C215.27,88.9,183.14,86.58,181,92Z"/><path class="cls-5" d="M266.83,159.21l-1.52,0c-2.21.09-2.95-2.17-2.43-4.15-78.27,6.73-155.77,10.71-233.56,3.5A2.32,2.32,0,0,1,27.06,160q-11-.36-21.93-.77c-1.75-.07-3,1.54-2.7,3.59q1.8,13.56,4.93,27.14c.48,2.05,2.24,3.82,3.91,4a1511.92,1511.92,0,0,0,249.43,0c1.66-.14,3.43-1.91,3.9-4q3.13-13.58,4.93-27.14C269.81,160.75,268.58,159.14,266.83,159.21Z"/><path class="cls-27" d="M41.71,182.1c11.56,3.1,31.2,19.81,43.26,12.36,27.73-16.61,99.64-4.24,141.38,1.89q14.61-.87,29.23-2c-17.65-3.81-49.41-11.37-61.31-9.94-17.32,2.68-75.65-8-84.57-8.32-8.59-.07-24.17,9.54-38.46,9.9-14.81.35-13.35-9.41-23.25-11.41-5.16-1.05-25.19.06-43.59.91.46,2.54.95,5.09,1.47,7.63C19.67,181.8,35.74,180.45,41.71,182.1Z"/><path class="cls-26" d="M127,170.57c15.84,3.91,33.91,8.54,48.83,4.24-1.86-.3,24.08-11.07,90.16,8.74.11-.52.22-1.05.32-1.57-66.1-21-89.26-10.6-93-9.42-25.17,3.88-39.85-5.61-64.68-9.05-16-2.26-70.91-.69-106,.39.12.89.25,1.79.38,2.69C101.75,165,106.46,164.94,127,170.57Z"/><path class="cls-26" d="M187.89,161a26.77,26.77,0,0,0,4.61-.84q-14.31.81-28.6,1.36A214.92,214.92,0,0,0,187.89,161Z"/><path class="cls-26" d="M41.69,183.53c3.41.95,7.76,3.2,12.34,5.59,27.29,14.5,25.54,7.85,39.82,3.11,13.85-5.11,43.75-8.3,124.57,4.57,2.64-.14,5.29-.29,7.93-.45-41.74-6.13-113.65-18.5-141.38-1.89-12.06,7.45-31.7-9.26-43.26-12.36-6-1.65-22-.29-35.84,1l.3,1.45C19.9,183.28,35.91,181.93,41.69,183.53Z"/><path class="cls-26" d="M48,174.55c9.9,2,8.44,11.76,23.25,11.41,14.29-.36,29.87-10,38.46-9.9,8.92.34,67.25,11,84.57,8.32,11.9-1.43,43.66,6.13,61.31,9.94l5.12-.42a3.76,3.76,0,0,0,2.16-1c-15.79-3.38-54.49-13.07-68.53-11.47-11.27,1.53-39.61-2.1-60.72-5.24-26.56-3.94-24.37-4.62-40.05,1.13-40,14.38-30.14-2.73-45.55-5.65-5.4-1.07-25.55.07-44.1,1,.16.95.32,1.9.49,2.85C22.8,174.61,42.83,173.5,48,174.55Z"/><path class="cls-24" d="M262.87,155.23C188.21,162.43,100,168,29.33,158.73a1.93,1.93,0,0,1,0-.24c93.41,4.78,141,3.3,233.57-3.49C262.88,155.08,262.88,155.15,262.87,155.23Z"/><path class="cls-26" d="M142,69.16c0,1.82-5.82,3.26-13,3.29s-13.05-1.39-13-3.2,5.9-3.34,13.05-3.37S142,67.35,142,69.16Z"/><path class="cls-28" d="M34.13,94q-14.61.42-29.21.94a4.14,4.14,0,0,0-3.57,3.83A278.25,278.25,0,0,0,.17,135.8c28.53,14.07,70,24.78,115.07,25,54.36.36,103.38-14.79,130.31-34.27.18-1.6,1.18-3,2.95-3h.94c11.28-9.36,17.15-19.66,15.84-30.8-1.8-15.74-17.61-31.06-39.71-44.21A1330,1330,0,0,0,13.05,51.18c-1.64.15-3.43,2-4,4A293.29,293.29,0,0,0,3.15,84.37c-.31,2,.87,3.65,2.62,3.57Q20.2,87.3,34.62,86.8a2.61,2.61,0,0,1,2.76,2.69C37.55,91.51,36.36,93.91,34.13,94Z"/><path class="cls-2" d="M223.52,355c0,2.33-8.71,4.22-19.46,4.22S184.6,357.34,184.6,355s8.72-4.22,19.46-4.22S223.52,352.68,223.52,355Z"/><path class="cls-29" d="M186.87,267.74s-16.21,11.08-18-1.68,11.54-13,17.72-7c0,0-14.4-13.88,0-18.81s11.31,15.49,11.31,15.49,7.33-18.33,16-10.16-.61,25.75-13.27,17.42l-13.66,3.76"/><path class="cls-30" d="M202.46,355c0-.3-.58-61.84-5.65-79.73l1.54-.44c5.12,18.09,5.71,79.83,5.71,80.15Z"/><path class="cls-31" d="M186.71,267.66s-7.6,3.15-8.87-1.46,2-10,8.67-7.22c0,0-2.56-7.28,3.82-9.14,6.78-2,7.49,6,7.49,6s5.89-6.55,9.5-.52c2.87,4.79-3.26,10-6.9,7.81Z"/><path class="cls-30" d="M186.71,267.66s2.14,9.74,11.64,7.16c0,0,4.53-1.81,2.07-11.71C200.42,263.11,190.93,262.79,186.71,267.66Z"/><path class="cls-30" d="M200.44,294.15s5.58-17.67,16.7-16.1C217.14,278.05,213.64,293.83,200.44,294.15Z"/><path class="cls-30" d="M201.15,311.19s-5.07-13-17.7-11.69C183.45,299.5,186.66,314,201.15,311.19Z"/><path class="cls-30" d="M201.78,327.63s5.82-18.33,15.36-18C217.14,309.61,224.52,325.44,201.78,327.63Z"/><path class="cls-32" d="M49.18,60.05a8.46,8.46,0,0,0-4.1,10.65c3.13,7.92,6.22,20.69-2.28,27.88-12.94,10.94-20.9,4-18.91,19.9s7.29,11.37,6,24.89,4.65,20.57,2.66,25.55-13.94,12.27-3.65,16.25c35.38,13.7,40.32-1.85,60.72-.66s38.09-6.39,51.09,0,21.57,2.66,39.49,1.66,30.52.66,36.49.66,25.22.67,27.21-3.31,9-4.32,8-16.26,10-18.91,2-22.9-3.08.27-6.07-8.77-12.51-18.77-2.56-21.75,12.61-9.29,8.63-19.25-.62-11.3-11-21.89C229.94,59.42,222,71,217,69.05s-13.94-11.29-31.86-9.29-30.71-11.28-38.15-7-10.62,4-24.56,7-9,11.94-25.88,2-23.88-5-29.86-3c-4,1.33-9.29.88-12.38.44a8.62,8.62,0,0,0-5,.8Z"/><polygon class="cls-33" points="154.78 56.05 152.75 57.81 155.7 57.29 184.07 36.63 173.54 38.43 154.61 54.88 154.78 56.05"/><path class="cls-33" d="M204.51,37.87l.23,3a.31.31,0,0,0,.31.28H206a.39.39,0,0,0,.39-.41l-.21-3.3Z"/><path class="cls-33" d="M204.79,41l4.32,8.09a1.23,1.23,0,0,0,1.54-.74l-4.29-7.63-1-.92Z"/><path class="cls-33" d="M215.73,49.2a1.3,1.3,0,0,0-.71-.38c-1.06-.19-4.06-.77-4.9-1.38a1.13,1.13,0,0,0-1.68.4,8.59,8.59,0,0,1-2.37,2.72,3.45,3.45,0,0,0-1.49,2.6v.12a.07.07,0,0,0,.14,0A2.33,2.33,0,0,1,206,51.91a2,2,0,0,0,.54-.36c.66-.58,2.28-1.92,3.31-2,1.33-.09,3.14,1.33,3.14,1.33a2.85,2.85,0,0,1,.61.6.08.08,0,0,0,.15-.07,3.15,3.15,0,0,0-.25-.61,2.11,2.11,0,0,0-.49-.54l-1.52-1.16a10,10,0,0,1,3.74.41l.42.15a1.69,1.69,0,0,1,.75.47s.07,0,.05,0A3.77,3.77,0,0,0,215.73,49.2Z"/><path class="cls-33" d="M197.47,35,197.24,38a.29.29,0,0,0,.23.32l.84.14a.35.35,0,0,0,.4-.34l.3-3.24Z"/><path class="cls-33" d="M197.26,38.11l2.7,8.57a1.05,1.05,0,0,0,1.49-.47l-2.74-8.13-.77-1Z"/><path class="cls-33" d="M205.88,47.87a1.15,1.15,0,0,0-.58-.49c-.92-.35-3.53-1.4-4.19-2.12a1,1,0,0,0-1.58.12A7.9,7.9,0,0,1,197,47.65,3.41,3.41,0,0,0,195.29,50s0,.07,0,.11a.07.07,0,0,0,.13,0A2.09,2.09,0,0,1,196.7,49a2,2,0,0,0,.54-.27c.68-.46,2.33-1.51,3.27-1.42,1.2.12,2.62,1.8,2.62,1.8a2.89,2.89,0,0,1,.47.68.07.07,0,0,0,.14,0,2.9,2.9,0,0,0-.14-.63,1.86,1.86,0,0,0-.36-.61L202,47.1a8.72,8.72,0,0,1,3.31,1l.35.21a1.6,1.6,0,0,1,.6.58,0,0,0,0,0,.06,0A4,4,0,0,0,205.88,47.87Z"/><path class="cls-34" d="M226.92,7.56l.13-.86S223.16-2.77,213.53.81a15.83,15.83,0,0,0-5.43,3.48l-4.3,4.18.41.48a413.32,413.32,0,0,0-36.36,32.87A131.61,131.61,0,0,0,186.47,39s30.42,11,38.1-21.7c.37-1.58.38-3.35,1.2-4.47l.95-4h0l.29-1.2Z"/><path class="cls-35" d="M212.85,21.1s10.64.77-35.64,15.21l14.71-9.43L208.12,20Z"/><path class="cls-35" d="M225.77,12.81l.95-4h0l.29-1.2-.09-.1.13-.86S223.16-2.77,213.53.81a15.83,15.83,0,0,0-5.43,3.48l-2.37,2.3a9.2,9.2,0,0,0,4.4,2.92c2.1.73,4.33,1,6.43,1.76a8.29,8.29,0,0,1,5.05,4.06,19.25,19.25,0,0,1,.84,3.28,5.56,5.56,0,0,0,1.1,2.37c.37-1.16.71-2.39,1-3.7C224.94,15.7,225,13.93,225.77,12.81Z"/><path class="cls-35" d="M156.81,51.42s-.63-.16-10.69,9.25c0,0,.85.46,5.06-1.5l40.29-34.89Z"/><path class="cls-36" d="M152.57,54.76s30.66-22,39.68-26.27l-2.15-4.21-9.81,5.35Z"/><path class="cls-33" d="M177.61,29.31s-1.86,1.75-4.37,4.52a.84.84,0,0,0,.84,1.38c8-2.12,31.62-8.7,39.6-14.11l-.91-4.53-33.2,11.7Z"/><path class="cls-37" d="M183.65,22.13s-5,4.92-7.45,7.85a.64.64,0,0,0,.71,1l33.18-11.86-10-2.29Z"/><path class="cls-36" d="M193.18,15.32a91.92,91.92,0,0,0-13.67,10.42.66.66,0,0,0,.7,1.09l24.33-9.93Z"/><path class="cls-36" d="M226.33,10.49l-2-.79s-3.88,1.43-6.51-1.07-7.67.88-7.67.88,9.22,5.45,8,9.58S222,24.28,222,24.28l.32-.05a44.78,44.78,0,0,0,2.21-6.95c.37-1.58.38-3.35,1.2-4.47l.56-2.32Z"/><path class="cls-38" d="M203.8,8.47s-7.56,4.92-12.88,8.29a.76.76,0,0,0,.57,1.39l4.26-.95c.15,0,.23.18.09.24l-.64.32a.63.63,0,0,0,.36,1.2l4.7-.59a.22.22,0,0,1,.13.41l-1.32.67a.61.61,0,0,0,.38,1.15l5.24-.89a.25.25,0,0,1,.16.47l-2.22,1.18a.31.31,0,0,0,.19.58l5.64-.8-1.79,1.54a.6.6,0,0,0,.44,1.05l4.42-.39a4.63,4.63,0,0,0,3.31-1.77C216.49,19.4,216.73,15.08,203.8,8.47Z"/><path class="cls-33" d="M234.91,10.55a44.93,44.93,0,0,1-9.14,2.26s-1.05-2.44-1.46-3.11l3.78-.88Z"/><path class="cls-37" d="M227.05,6.7s4.48,2,8.12,3.85a106.67,106.67,0,0,1-10.86-.85A28.8,28.8,0,0,0,227.05,6.7Z"/><path class="cls-39" d="M221.44,9a1.65,1.65,0,1,1,1.64-1.64A1.64,1.64,0,0,1,221.44,9Z"/><path class="cls-40" d="M222.63,7.33a1.19,1.19,0,1,1-1.19-1.19A1.19,1.19,0,0,1,222.63,7.33Z"/><path class="cls-39" d="M222,7.05a.23.23,0,0,0-.23.24.23.23,0,0,0,.23.23.23.23,0,0,0,.24-.23A.24.24,0,0,0,222,7.05Z"/></g></g></g></svg>