<svg xmlns="http://www.w3.org/2000/svg" xmlns:xlink="http://www.w3.org/1999/xlink" viewBox="0 0 572.1 531.07"><defs><style>.cls-1{mask:url(#mask);filter:url(#luminosity-noclip-5);}.cls-11,.cls-13,.cls-15,.cls-17,.cls-2,.cls-4,.cls-6,.cls-8{mix-blend-mode:multiply;}.cls-2{fill:url(#radial-gradient);}.cls-3{mask:url(#mask-2);filter:url(#luminosity-noclip-6);}.cls-4{fill:url(#radial-gradient-2);}.cls-5{mask:url(#mask-3);filter:url(#luminosity-noclip-7);}.cls-6{fill:url(#radial-gradient-3);}.cls-7{mask:url(#mask-4);filter:url(#luminosity-noclip-8);}.cls-8{fill:url(#radial-gradient-4);}.cls-9{isolation:isolate;}.cls-10{mask:url(#mask-5);}.cls-11{fill:url(#Degradado_sin_nombre_153);}.cls-12{mask:url(#mask-6);}.cls-13{fill:url(#Degradado_sin_nombre_151);}.cls-14{mask:url(#mask-7);}.cls-15{fill:url(#Degradado_sin_nombre_153-2);}.cls-16{mask:url(#mask-8);}.cls-17{fill:url(#Degradado_sin_nombre_151-2);}.cls-18,.cls-31{fill:#00d4c9;}.cls-19{fill:#3fd494;}.cls-20{fill:#94e8c7;}.cls-21{fill:#87d2b5;}.cls-22{fill:#bbe6d5;}.cls-23{fill:#afe5e2;}.cls-24{fill:#c3e4e2;}.cls-25,.cls-32,.cls-37,.cls-41,.cls-45,.cls-48,.cls-52{font-size:27.27px;font-family:Calibri-Bold, Calibri;font-weight:700;}.cls-25{fill:#005045;}.cls-25,.cls-32,.cls-39,.cls-48,.cls-52{letter-spacing:-0.02em;}.cls-26{letter-spacing:-0.03em;}.cls-27{letter-spacing:-0.04em;}.cls-28,.cls-37,.cls-45{letter-spacing:-0.02em;}.cls-29{letter-spacing:-0.03em;}.cls-30{letter-spacing:-0.03em;}.cls-31{stroke:#00d4c9;stroke-miterlimit:10;stroke-width:1.3px;}.cls-32{fill:#fff;}.cls-33{letter-spacing:-0.03em;}.cls-34{letter-spacing:-0.04em;}.cls-35{letter-spacing:-0.04em;}.cls-36{letter-spacing:-0.03em;}.cls-37{fill:#335044;}.cls-38{letter-spacing:-0.02em;}.cls-40{letter-spacing:-0.03em;}.cls-41{fill:#436a5b;letter-spacing:-0.1em;}.cls-42{letter-spacing:-0.03em;}.cls-43{letter-spacing:-0.03em;}.cls-44{letter-spacing:-0.03em;}.cls-45{fill:#4a5d55;}.cls-46{letter-spacing:-0.03em;}.cls-47{letter-spacing:-0.03em;}.cls-48{fill:#526a68;}.cls-49{letter-spacing:-0.03em;}.cls-50{letter-spacing:-0.03em;}.cls-51{letter-spacing:-0.02em;}.cls-52{fill:#435856;}.cls-53{filter:url(#luminosity-noclip-4);}.cls-54{filter:url(#luminosity-noclip-3);}.cls-55{filter:url(#luminosity-noclip-2);}.cls-56{filter:url(#luminosity-noclip);}</style><filter id="luminosity-noclip" x="177.04" y="-11156.2" width="357.37" height="32766" filterUnits="userSpaceOnUse" color-interpolation-filters="sRGB"><feFlood flood-color="#fff" result="bg"/><feBlend in="SourceGraphic" in2="bg"/></filter><mask id="mask" x="177.04" y="-11156.2" width="357.37" height="32766" maskUnits="userSpaceOnUse"><g class="cls-56"/></mask><radialGradient id="radial-gradient" cx="-5533.96" cy="-4003.26" r="65.94" gradientTransform="matrix(1.88, 0.27, -1.95, 0.11, 2960.01, 2442.09)" gradientUnits="userSpaceOnUse"><stop offset="0.5" stop-color="#a6a6a6"/><stop offset="0.6" stop-color="#a3a3a3"/><stop offset="0.67" stop-color="#999"/><stop offset="0.75" stop-color="#888"/><stop offset="0.81" stop-color="#707070"/><stop offset="0.88" stop-color="#515151"/><stop offset="0.94" stop-color="#2c2c2c"/><stop offset="1"/></radialGradient><filter id="luminosity-noclip-2" x="109.38" y="-11156.2" width="357.53" height="32766" filterUnits="userSpaceOnUse" color-interpolation-filters="sRGB"><feFlood flood-color="#fff" result="bg"/><feBlend in="SourceGraphic" in2="bg"/></filter><mask id="mask-2" x="109.38" y="-11156.2" width="357.53" height="32766" maskUnits="userSpaceOnUse"><g class="cls-55"/></mask><radialGradient id="radial-gradient-2" cx="-6311.07" cy="-2184.64" r="65.94" gradientTransform="matrix(-1.88, 0.27, 1.95, 0.12, -7346.94, 2427.93)" xlink:href="#radial-gradient"/><filter id="luminosity-noclip-3" x="31.74" y="-11156.2" width="61.37" height="32766" filterUnits="userSpaceOnUse" color-interpolation-filters="sRGB"><feFlood flood-color="#fff" result="bg"/><feBlend in="SourceGraphic" in2="bg"/></filter><mask id="mask-3" x="31.74" y="-11156.2" width="61.37" height="32766" maskUnits="userSpaceOnUse"><g class="cls-54"/></mask><radialGradient id="radial-gradient-3" cx="-7156.24" cy="-1795.65" r="51.07" gradientTransform="matrix(0.42, 0.23, -0.43, 0.1, 2271.35, 2329.09)" xlink:href="#radial-gradient"/><filter id="luminosity-noclip-4" x="20.12" y="-11156.2" width="61.4" height="32766" filterUnits="userSpaceOnUse" color-interpolation-filters="sRGB"><feFlood flood-color="#fff" result="bg"/><feBlend in="SourceGraphic" in2="bg"/></filter><mask id="mask-4" x="20.12" y="-11156.2" width="61.4" height="32766" maskUnits="userSpaceOnUse"><g class="cls-53"/></mask><radialGradient id="radial-gradient-4" cx="-5652.35" cy="-5315.11" r="51.07" gradientTransform="matrix(-0.42, 0.23, 0.43, 0.1, -14.28, 2316.96)" xlink:href="#radial-gradient"/><filter id="luminosity-noclip-5" x="177.04" y="475" width="357.37" height="38.67" filterUnits="userSpaceOnUse" color-interpolation-filters="sRGB"><feFlood flood-color="#fff" result="bg"/><feBlend in="SourceGraphic" in2="bg"/></filter><mask id="mask-5" x="177.04" y="475" width="357.37" height="38.67" maskUnits="userSpaceOnUse"><g class="cls-1"><path class="cls-2" d="M534.38,501.75c-1.73,9.86-83.16,14.54-181.84,10.45s-177.23-15.4-175.47-25.27,83.25-14.54,181.84-10.44S536.16,491.89,534.38,501.75Z"/></g></mask><radialGradient id="Degradado_sin_nombre_153" cx="-5533.96" cy="-4003.26" r="65.94" gradientTransform="matrix(1.88, 0.27, -1.95, 0.11, 2960.01, 2442.09)" gradientUnits="userSpaceOnUse"><stop offset="0" stop-color="#3c3c3b"/><stop offset="1" stop-color="#fff" stop-opacity="0"/></radialGradient><filter id="luminosity-noclip-6" x="109.38" y="475.09" width="357.53" height="38.32" filterUnits="userSpaceOnUse" color-interpolation-filters="sRGB"><feFlood flood-color="#fff" result="bg"/><feBlend in="SourceGraphic" in2="bg"/></filter><mask id="mask-6" x="109.38" y="475.09" width="357.53" height="38.32" maskUnits="userSpaceOnUse"><g class="cls-3"><path class="cls-4" d="M109.4,501.17c1.61,9.86,83,14.76,181.72,10.94s177.41-14.91,175.76-24.78-83.08-14.77-181.72-10.94S107.74,491.3,109.4,501.17Z"/></g></mask><radialGradient id="Degradado_sin_nombre_151" cx="-6311.07" cy="-2184.64" r="65.94" gradientTransform="matrix(-1.88, 0.27, 1.95, 0.12, -7346.94, 2427.93)" gradientUnits="userSpaceOnUse"><stop offset="0" stop-color="#3c3c3b"/><stop offset="0" stop-color="#3d3d3c"/><stop offset="1" stop-color="#fff" stop-opacity="0"/></radialGradient><filter id="luminosity-noclip-7" x="31.74" y="484.4" width="61.37" height="25.64" filterUnits="userSpaceOnUse" color-interpolation-filters="sRGB"><feFlood flood-color="#fff" result="bg"/><feBlend in="SourceGraphic" in2="bg"/></filter><mask id="mask-7" x="31.74" y="484.4" width="61.37" height="25.64" maskUnits="userSpaceOnUse"><g class="cls-5"><path class="cls-6" d="M93.11,502.13c-.29,6.54-14.28,9.64-31.23,6.93S31.45,498.85,31.75,492.3s14.3-9.63,31.23-6.92S93.42,495.59,93.11,502.13Z"/></g></mask><radialGradient id="Degradado_sin_nombre_153-2" cx="-7156.24" cy="-1795.65" r="51.07" gradientTransform="matrix(0.42, 0.23, -0.43, 0.1, 2271.35, 2329.09)" xlink:href="#Degradado_sin_nombre_153"/><filter id="luminosity-noclip-8" x="20.12" y="484.45" width="61.4" height="25.41" filterUnits="userSpaceOnUse" color-interpolation-filters="sRGB"><feFlood flood-color="#fff" result="bg"/><feBlend in="SourceGraphic" in2="bg"/></filter><mask id="mask-8" x="20.12" y="484.45" width="61.4" height="25.41" maskUnits="userSpaceOnUse"><g class="cls-7"><path class="cls-8" d="M20.13,501.75c.27,6.53,14.25,9.78,31.21,7.25s30.46-9.89,30.18-16.43-14.27-9.79-31.21-7.25S19.84,495.2,20.13,501.75Z"/></g></mask><radialGradient id="Degradado_sin_nombre_151-2" cx="-5652.35" cy="-5315.11" r="51.07" gradientTransform="matrix(-0.42, 0.23, 0.43, 0.1, -14.28, 2316.96)" xlink:href="#Degradado_sin_nombre_151"/></defs><g class="cls-9"><g id="Capa_1" data-name="Capa 1"><g class="cls-10"><path class="cls-11" d="M534.38,501.75c-1.73,9.86-83.16,14.54-181.84,10.45s-177.23-15.4-175.47-25.27,83.25-14.54,181.84-10.44S536.16,491.89,534.38,501.75Z"/></g><g class="cls-12"><path class="cls-13" d="M109.4,501.17c1.61,9.86,83,14.76,181.72,10.94s177.41-14.91,175.76-24.78-83.08-14.77-181.72-10.94S107.74,491.3,109.4,501.17Z"/></g><g class="cls-14"><path class="cls-15" d="M93.11,502.13c-.29,6.54-14.28,9.64-31.23,6.93S31.45,498.85,31.75,492.3s14.3-9.63,31.23-6.92S93.42,495.59,93.11,502.13Z"/></g><g class="cls-16"><path class="cls-17" d="M20.13,501.75c.27,6.53,14.25,9.78,31.21,7.25s30.46-9.89,30.18-16.43-14.27-9.79-31.21-7.25S19.84,495.2,20.13,501.75Z"/></g><path class="cls-18" d="M522.27,22.78a1.24,1.24,0,0,1-.69-1.6l6.34-14a1.23,1.23,0,1,1,2.28.91l-6.33,14A1.24,1.24,0,0,1,522.27,22.78Z"/><path class="cls-18" d="M531.57,29a1.29,1.29,0,0,1-.42-.28,1.23,1.23,0,0,1,0-1.74l10.59-10.61a1.23,1.23,0,1,1,1.74,1.74L532.89,28.67A1.23,1.23,0,0,1,531.57,29Z"/><path class="cls-18" d="M538.79,38.26a1.22,1.22,0,0,1-.67-.65,1.23,1.23,0,0,1,.64-1.62l12.41-5.65a1.23,1.23,0,0,1,1,2.26l-12.41,5.65A1.25,1.25,0,0,1,538.79,38.26Z"/><path class="cls-18" d="M541.14,49.45a1.23,1.23,0,0,1,.44-2.38l13.56-.22a1.23,1.23,0,1,1,0,2.46l-13.56.22A1.06,1.06,0,0,1,541.14,49.45Z"/><circle class="cls-18" cx="545.59" cy="14.36" r="1.35"/><circle class="cls-18" cx="559.23" cy="47.77" r="1.35"/><circle class="cls-18" cx="548.9" cy="10.5" r="1.01"/><rect class="cls-19" x="105.02" y="29" width="422.46" height="73.11" rx="36.55"/><rect class="cls-20" x="105.02" y="188.39" width="422.46" height="73.11" rx="36.55"/><rect class="cls-21" x="105.02" y="108.7" width="422.46" height="73.11" rx="36.55"/><rect class="cls-22" x="105.02" y="268.09" width="422.46" height="73.11" rx="36.55"/><rect class="cls-23" x="105.02" y="348.18" width="422.46" height="73.11" rx="36.55"/><rect class="cls-24" x="105.02" y="427.88" width="422.46" height="73.11" rx="36.55"/><text class="cls-25" transform="translate(171.69 72.59)">P<tspan class="cls-26" x="13.97" y="0">r</tspan><tspan x="22.79" y="0">og</tspan><tspan class="cls-27" x="49.29" y="0">r</tspan><tspan class="cls-28" x="57.84" y="0">amación ce</tspan><tspan class="cls-29" x="180.21" y="0">n</tspan><tspan x="194.05" y="0">t</tspan><tspan class="cls-27" x="202.96" y="0">r</tspan><tspan class="cls-28" x="211.51" y="0">ali</tspan><tspan class="cls-30" x="236.73" y="0">z</tspan><tspan class="cls-28" x="246.68" y="0">ada</tspan></text><rect class="cls-31" x="-179.4" y="228.48" width="471.04" height="73.11" rx="36.55" transform="translate(-208.92 321.15) rotate(-90)"/><text class="cls-32" transform="translate(63.15 477.01) rotate(-90)">I<tspan class="cls-33" x="6.73" y="0">n</tspan><tspan class="cls-34" x="20.67" y="0">f</tspan><tspan x="28.34" y="0">ormación pa</tspan><tspan class="cls-35" x="164.02" y="0">r</tspan><tspan class="cls-28" x="172.57" y="0">a la </tspan><tspan class="cls-36" x="215.8" y="0">t</tspan><tspan x="224.44" y="0">oma de decisiones</tspan></text><text class="cls-37" transform="translate(206.11 152.48)">M<tspan class="cls-38" x="23.29" y="0">o</tspan><tspan class="cls-39" x="37.33" y="0">vilidad ope</tspan><tspan class="cls-27" x="156.25" y="0">r</tspan><tspan class="cls-29" x="164.8" y="0">a</tspan><tspan class="cls-39" x="177.47" y="0">ti</tspan><tspan class="cls-40" x="192.89" y="0">v</tspan><tspan class="cls-39" x="204.85" y="0">a</tspan></text><text class="cls-41" transform="translate(199.19 231.43)">T<tspan class="cls-28" x="10.89" y="0">a</tspan><tspan class="cls-42" x="23.81" y="0">r</tspan><tspan class="cls-28" x="32.65" y="0">eas de </tspan><tspan class="cls-43" x="107.61" y="0">v</tspan><tspan class="cls-28" x="119.71" y="0">erifi</tspan><tspan class="cls-44" x="162.77" y="0">c</tspan><tspan class="cls-28" x="173.47" y="0">ación</tspan></text><text class="cls-45" transform="translate(144.42 311.29)">Sopor<tspan class="cls-46" x="63.82" y="0">t</tspan><tspan x="72.39" y="0">e a </tspan><tspan class="cls-47" x="109.74" y="0">g</tspan><tspan x="121.83" y="0">e</tspan><tspan class="cls-42" x="135.01" y="0">s</tspan><tspan x="145.04" y="0">tión de m</tspan><tspan class="cls-29" x="248.82" y="0">a</tspan><tspan class="cls-26" x="261.49" y="0">t</tspan><tspan class="cls-39" x="270.07" y="0">eriales</tspan></text><text class="cls-48" transform="translate(166.51 392.06)">Ce<tspan class="cls-49" x="27.07" y="0">r</tspan><tspan class="cls-50" x="35.84" y="0">c</tspan><tspan class="cls-28" x="46.54" y="0">anía </tspan><tspan class="cls-51" x="98.24" y="0">c</tspan><tspan x="108.98" y="0">on </tspan><tspan class="cls-51" x="142.8" y="0">c</tspan><tspan x="153.54" y="0">olabo</tspan><tspan class="cls-35" x="214.93" y="0">r</tspan><tspan class="cls-28" x="223.48" y="0">ado</tspan><tspan class="cls-42" x="264.61" y="0">r</tspan><tspan x="273.45" y="0">es</tspan></text><text class="cls-52" transform="translate(195.14 469.92)">Ce<tspan class="cls-49" x="27.07" y="0">r</tspan><tspan class="cls-50" x="35.84" y="0">c</tspan><tspan class="cls-28" x="46.54" y="0">anía </tspan><tspan class="cls-51" x="98.24" y="0">c</tspan><tspan x="108.98" y="0">on el clie</tspan><tspan class="cls-29" x="204.12" y="0">n</tspan><tspan class="cls-46" x="217.96" y="0">t</tspan><tspan class="cls-28" x="226.53" y="0">e</tspan></text></g></g></svg>