<svg xmlns="http://www.w3.org/2000/svg" xmlns:xlink="http://www.w3.org/1999/xlink" viewBox="0 0 582.96 492.61"><defs><style>.cls-1{fill:none;}.cls-2{isolation:isolate;}.cls-3{fill:#009794;}.cls-4{clip-path:url(#clip-path);}.cls-5{fill:#585872;}.cls-6{fill:#e8b184;}.cls-7{fill:#e8977c;}.cls-8{fill:#d67d66;}.cls-9{fill:#23242b;}.cls-10{fill:#9e4c2e;}.cls-11{fill:#f7d5be;}.cls-12{fill:#fff;}.cls-13{fill:#69799d;}.cls-14{fill:#8ba0c7;}.cls-15{fill:#014a74;}.cls-16{fill:#306e8a;}.cls-17{fill:#41415b;}.cls-18{fill:#c7c7d4;}.cls-19{fill:#f5947c;}.cls-20{fill:#b46255;}.cls-21{fill:#36303a;}.cls-22{fill:#fae9e9;}.cls-23{fill:#fdb269;}.cls-24{fill:#d86357;}.cls-25{fill:#914d44;}.cls-26{fill:#d6c1c1;}.cls-27{fill:#a6683d;}.cls-28{fill:#ca3333;}.cls-29{fill:#e4acac;}.cls-30{fill:#ba2425;}.cls-31{fill:#c47e45;}.cls-32{fill:#afc5d1;}.cls-33{fill:#88a7b5;}.cls-34{fill:#cc6665;}.cls-35{fill:#236286;}.cls-36{fill:#012146;}.cls-37{fill:#d69052;}.cls-38{fill:#c4c0ad;}.cls-39{fill:#91c65b;}.cls-40{fill:#89b552;}.cls-41{fill:#598c3f;}.cls-42{fill:#4b7734;}.cls-43{fill:#f4a82f;}.cls-44{fill:#eb4224;}.cls-45{fill:#b2c935;}.cls-46{fill:#761e14;}.cls-47{fill:#4a813d;}.cls-48{fill:#ec4523;}.cls-49{fill:#e39773;}.cls-50{fill:#706c6c;}.cls-51{fill:#a3a3a3;}.cls-52{fill:#6c3910;}.cls-53{fill:#fdb58d;}.cls-54{fill:#d6c5b9;}.cls-55{fill:#db870f;}.cls-56{fill:#ec9e25;}.cls-57{fill:#25596e;}.cls-58{fill:#306c7f;mix-blend-mode:multiply;opacity:0.5;}.cls-59{fill:#c3b0a4;}.cls-60{fill:#fdae3f;}.cls-61{fill:#afadab;}.cls-62{fill:#979594;}.cls-63{fill:#e69a77;}.cls-64{fill:#5d291b;}</style><clipPath id="clip-path"><path class="cls-1" d="M408.83,123A75.55,75.55,0,0,0,419,85.05c0-42.76-.29-90.45-78.59-90.45-74.34,0-80.23,47.69-80.23,90.45a75.51,75.51,0,0,0,5.54,28.4A135.39,135.39,0,1,0,408.83,123Z"/></clipPath></defs><g class="cls-2"><g id="Capa_1" data-name="Capa 1"><path class="cls-3" d="M269.66,113.44a1.1,1.1,0,0,1-.5-2.09A133.77,133.77,0,0,1,303,99.8a1.11,1.11,0,0,1,.42,2.17,131.26,131.26,0,0,0-33.29,11.36A1.09,1.09,0,0,1,269.66,113.44Z"/><path class="cls-3" d="M307.93,101.15a1.11,1.11,0,0,1-1.09-.94,1.1,1.1,0,0,1,.92-1.26c1.06-.17,2.12-.33,3.18-.47a1.1,1.1,0,1,1,.29,2.19c-1,.14-2.08.3-3.12.46Z"/><path class="cls-3" d="M385.91,112.09a1.1,1.1,0,0,1-.47-.1,132.92,132.92,0,0,0-58.76-12.5,1.11,1.11,0,0,1-1.12-1.09,1.1,1.1,0,0,1,1.08-1.12A135.27,135.27,0,0,1,386.38,110a1.11,1.11,0,0,1,.53,1.47A1.1,1.1,0,0,1,385.91,112.09Z"/><path class="cls-3" d="M401.25,120.6a1.08,1.08,0,0,1-.6-.18c-.74-.48-1.48-.94-2.23-1.41a1.1,1.1,0,1,1,1.16-1.88c.76.47,1.52,1,2.27,1.44a1.1,1.1,0,0,1,.33,1.52A1.12,1.12,0,0,1,401.25,120.6Z"/><path class="cls-3" d="M417.34,132.8a1.08,1.08,0,0,1-.73-.28A133.4,133.4,0,0,0,405,123.37a1.11,1.11,0,0,1,1.27-1.81,134.46,134.46,0,0,1,11.78,9.31,1.11,1.11,0,0,1,.1,1.56A1.14,1.14,0,0,1,417.34,132.8Z"/><path class="cls-3" d="M447.55,171.57a1.12,1.12,0,0,1-1-.6A132,132,0,0,0,428,143.86a1.11,1.11,0,0,1,1.66-1.47A134.82,134.82,0,0,1,448.53,170a1.1,1.1,0,0,1-1,1.61Z"/><path class="cls-3" d="M455.61,190.75a1.1,1.1,0,0,1-1.05-.75c-.63-1.89-1.29-3.75-2-5.54a1.1,1.1,0,0,1,2.06-.78c.69,1.81,1.37,3.71,2,5.62a1.1,1.1,0,0,1-.7,1.4A1.33,1.33,0,0,1,455.61,190.75Z"/><path class="cls-3" d="M462.34,239h0a1.11,1.11,0,0,1-1.06-1.15,133.6,133.6,0,0,0-5.39-43.78,1.09,1.09,0,0,1,.74-1.37,1.11,1.11,0,0,1,1.38.74,136.09,136.09,0,0,1,5.48,44.5A1.1,1.1,0,0,1,462.34,239Z"/><path class="cls-3" d="M451,286.92a1.13,1.13,0,0,1-.44-.1,1.1,1.1,0,0,1-.56-1.46,131.12,131.12,0,0,0,9.84-33.45,1.1,1.1,0,1,1,2.18.33,132.65,132.65,0,0,1-10,34A1.1,1.1,0,0,1,451,286.92Z"/><path class="cls-3" d="M447.12,295a1.08,1.08,0,0,1-.52-.13,1.11,1.11,0,0,1-.46-1.49c.49-.93,1-1.86,1.43-2.79a1.1,1.1,0,0,1,2,1c-.48.95-1,1.9-1.45,2.84A1.13,1.13,0,0,1,447.12,295Z"/><path class="cls-3" d="M436.18,312.41a1.14,1.14,0,0,1-.66-.22,1.11,1.11,0,0,1-.23-1.55c1-1.29,1.9-2.61,2.79-3.91a1.11,1.11,0,0,1,1.83,1.25c-.91,1.32-1.87,2.66-2.85,4A1.1,1.1,0,0,1,436.18,312.41Z"/><path class="cls-3" d="M407.11,340.91a1.13,1.13,0,0,1-.9-.47,1.11,1.11,0,0,1,.26-1.54,131.13,131.13,0,0,0,25.28-23.7,1.09,1.09,0,0,1,1.55-.16,1.11,1.11,0,0,1,.16,1.55,133.2,133.2,0,0,1-25.71,24.11A1.09,1.09,0,0,1,407.11,340.91Z"/><path class="cls-3" d="M398.33,346.68a1.1,1.1,0,0,1-.57-2.05c1.38-.83,2.8-1.72,4.2-2.64a1.11,1.11,0,1,1,1.21,1.85c-1.42.93-2.86,1.83-4.27,2.68A1.1,1.1,0,0,1,398.33,346.68Z"/><path class="cls-3" d="M356.91,363.06a1.1,1.1,0,0,1-1.08-.87,1.12,1.12,0,0,1,.85-1.32,133.35,133.35,0,0,0,35.92-13.29,1.11,1.11,0,0,1,1.5.45,1.09,1.09,0,0,1-.44,1.49A135.88,135.88,0,0,1,357.14,363Z"/><path class="cls-3" d="M345,365a1.1,1.1,0,0,1-.13-2.2c2.24-.27,4.49-.6,6.67-1A1.11,1.11,0,0,1,352,364c-2.23.38-4.51.72-6.79,1Z"/><path class="cls-3" d="M328.92,366a134.42,134.42,0,0,1-15.95-.94,1.12,1.12,0,0,1-1-1.23,1.1,1.1,0,0,1,1.23-1,133.07,133.07,0,0,0,23.88.68,1.1,1.1,0,0,1,1.17,1,1.12,1.12,0,0,1-1,1.17C334.47,365.93,331.69,366,328.92,366Z"/><path class="cls-3" d="M308.1,364.38h-.17c-1.51-.24-3-.51-4.46-.79a1.11,1.11,0,0,1,.42-2.17c1.43.28,2.91.54,4.38.78a1.1,1.1,0,0,1-.17,2.19Z"/><path class="cls-3" d="M294.86,361.57a1.33,1.33,0,0,1-.28,0,134.13,134.13,0,0,1-33-13.7,1.1,1.1,0,1,1,1.11-1.91,131.83,131.83,0,0,0,32.5,13.47,1.1,1.1,0,0,1-.29,2.17Z"/><path class="cls-3" d="M255.43,343.85a1.07,1.07,0,0,1-.61-.19c-.71-.47-1.41-1-2.11-1.43a1.1,1.1,0,0,1,1.25-1.82c.69.48,1.39.95,2.09,1.41a1.11,1.11,0,0,1-.62,2Z"/><path class="cls-3" d="M248.81,339.16a1.09,1.09,0,0,1-.66-.22A134.45,134.45,0,0,1,227,319a1.11,1.11,0,0,1,1.68-1.44,131.81,131.81,0,0,0,20.85,19.61,1.1,1.1,0,0,1,.21,1.55A1.08,1.08,0,0,1,248.81,339.16Z"/><path class="cls-3" d="M218.38,307a1.12,1.12,0,0,1-.92-.49c-2.1-3.14-4.1-6.42-6-9.75a1.11,1.11,0,0,1,.43-1.5,1.1,1.1,0,0,1,1.5.43c1.82,3.28,3.79,6.5,5.86,9.59a1.1,1.1,0,0,1-.3,1.53A1.08,1.08,0,0,1,218.38,307Z"/><path class="cls-3" d="M210.21,293a1.09,1.09,0,0,1-1-.61c-.76-1.5-1.48-3-2.14-4.4a1.11,1.11,0,0,1,2-.93c.65,1.4,1.35,2.86,2.1,4.34a1.09,1.09,0,0,1-.49,1.48A1.11,1.11,0,0,1,210.21,293Z"/><path class="cls-3" d="M202.55,274.65a1.1,1.1,0,0,1-1.05-.76c-.29-.88-.58-1.77-.85-2.66a1.1,1.1,0,1,1,2.11-.65c.27.88.55,1.75.84,2.62a1.11,1.11,0,0,1-1,1.45Z"/><path class="cls-3" d="M200,266.16a1.1,1.1,0,0,1-1.06-.83,129.36,129.36,0,0,1-3.5-19.21,1.1,1.1,0,1,1,2.19-.23,129.06,129.06,0,0,0,3.44,18.88,1.09,1.09,0,0,1-.79,1.35A1.26,1.26,0,0,1,200,266.16Z"/><path class="cls-3" d="M195.82,233a1.11,1.11,0,0,1-1.11-1.11,138.41,138.41,0,0,1,.94-16.05,1.1,1.1,0,1,1,2.19.25,136.31,136.31,0,0,0-.92,15.8,1.11,1.11,0,0,1-1.1,1.11Z"/><path class="cls-3" d="M197.44,212l-.17,0a1.1,1.1,0,0,1-.92-1.26c.23-1.49.5-3,.78-4.53a1.11,1.11,0,0,1,1.29-.88,1.09,1.09,0,0,1,.88,1.29c-.28,1.5-.54,3-.77,4.46A1.1,1.1,0,0,1,197.44,212Z"/><path class="cls-3" d="M201.85,193a1.26,1.26,0,0,1-.33-.05,1.11,1.11,0,0,1-.73-1.39,129.69,129.69,0,0,1,6-15.6,1.1,1.1,0,1,1,2,.93,127.25,127.25,0,0,0-5.86,15.33A1.11,1.11,0,0,1,201.85,193Z"/><path class="cls-3" d="M215,163.84a1.1,1.1,0,0,1-.57-.16,1.11,1.11,0,0,1-.37-1.52c.59-1,1.19-1.94,1.81-2.89a1.11,1.11,0,0,1,1.53-.33,1.1,1.1,0,0,1,.33,1.52c-.61.95-1.2,1.9-1.78,2.85A1.12,1.12,0,0,1,215,163.84Z"/><path class="cls-3" d="M220.34,155.76a1.08,1.08,0,0,1-.64-.2,1.11,1.11,0,0,1-.26-1.54,136.19,136.19,0,0,1,28.22-29.25,1.11,1.11,0,1,1,1.34,1.76,134.11,134.11,0,0,0-27.76,28.77A1.12,1.12,0,0,1,220.34,155.76Z"/><path class="cls-3" d="M253.11,123.26a1.08,1.08,0,0,1-.9-.47,1.11,1.11,0,0,1,.27-1.54c1.19-.83,2.44-1.67,3.72-2.5a1.11,1.11,0,0,1,1.2,1.86c-1.25.81-2.48,1.63-3.65,2.45A1.1,1.1,0,0,1,253.11,123.26Z"/><path class="cls-3" d="M393.22,125.63a1.07,1.07,0,0,1-.57-.16,123.46,123.46,0,0,0-30.25-13,1.1,1.1,0,1,1,.6-2.12,125.39,125.39,0,0,1,30.79,13.23,1.1,1.1,0,0,1-.57,2Z"/><path class="cls-3" d="M399.5,129.65a1.13,1.13,0,0,1-.63-.19c-.81-.56-1.63-1.1-2.46-1.64a1.1,1.1,0,0,1,1.2-1.85c.85.55,1.68,1.1,2.51,1.67a1.11,1.11,0,0,1,.29,1.53A1.08,1.08,0,0,1,399.5,129.65Z"/><path class="cls-3" d="M444.32,184.56a1.12,1.12,0,0,1-1-.68,124.53,124.53,0,0,0-33-45.55,1.11,1.11,0,0,1,1.45-1.67A126.74,126.74,0,0,1,445.34,183a1.1,1.1,0,0,1-.6,1.44A1.06,1.06,0,0,1,444.32,184.56Z"/><path class="cls-3" d="M449.63,200.09a1.1,1.1,0,0,1-1.06-.81c-.22-.8-.44-1.59-.67-2.38a1.1,1.1,0,1,1,2.12-.62c.24.81.46,1.61.68,2.42a1.09,1.09,0,0,1-.78,1.35A.92.92,0,0,1,449.63,200.09Z"/><path class="cls-3" d="M453.15,218.67a1.1,1.1,0,0,1-1.09-1,124.47,124.47,0,0,0-2.3-13.62,1.1,1.1,0,0,1,2.15-.49,126.86,126.86,0,0,1,2.34,13.86,1.1,1.1,0,0,1-1,1.22Z"/><path class="cls-3" d="M449.81,264.57a1,1,0,0,1-.29,0,1.09,1.09,0,0,1-.78-1.35,123.83,123.83,0,0,0,4.08-30.5,1.11,1.11,0,0,1,1.11-1.09h0A1.09,1.09,0,0,1,455,232.7a125.44,125.44,0,0,1-4.16,31.05A1.11,1.11,0,0,1,449.81,264.57Z"/><path class="cls-3" d="M443.36,283a1,1,0,0,1-.44-.1,1.09,1.09,0,0,1-.57-1.45c.74-1.69,1.45-3.4,2.1-5.08a1.1,1.1,0,0,1,2.06.8c-.66,1.71-1.38,3.45-2.14,5.17A1.11,1.11,0,0,1,443.36,283Z"/><path class="cls-3" d="M417.75,320.7a1.1,1.1,0,0,1-.79-1.88A125,125,0,0,0,440.68,285a1.11,1.11,0,0,1,1.47-.52,1.09,1.09,0,0,1,.52,1.47,126.92,126.92,0,0,1-24.13,34.38A1.11,1.11,0,0,1,417.75,320.7Z"/><path class="cls-3" d="M379.81,346.89a1.1,1.1,0,0,1-.45-2.11,123.26,123.26,0,0,0,27.83-17,1.1,1.1,0,1,1,1.39,1.71,124.94,124.94,0,0,1-28.32,17.36A1.17,1.17,0,0,1,379.81,346.89Z"/><path class="cls-3" d="M372,350a1.09,1.09,0,0,1-1-.73,1.11,1.11,0,0,1,.65-1.42c.92-.33,1.84-.68,2.75-1a1.1,1.1,0,0,1,.8,2.06c-.92.36-1.85.72-2.78,1.06A1.07,1.07,0,0,1,372,350Z"/><path class="cls-3" d="M353.49,355.28a1.11,1.11,0,0,1-.21-2.19c1.46-.29,2.94-.62,4.39-1a1.1,1.1,0,1,1,.52,2.14c-1.48.36-3,.69-4.48,1Z"/><path class="cls-3" d="M329.54,357.64a126.23,126.23,0,0,1-14.26-.81,1.11,1.11,0,0,1,.25-2.2A122.17,122.17,0,0,0,348,354a1.1,1.1,0,0,1,1.26.93,1.11,1.11,0,0,1-.92,1.26A123.74,123.74,0,0,1,329.54,357.64Z"/><path class="cls-3" d="M310.3,356.15l-.17,0c-1.57-.24-3.14-.52-4.66-.82a1.11,1.11,0,1,1,.42-2.17c1.5.3,3,.57,4.58.81a1.11,1.11,0,0,1-.17,2.2Z"/><path class="cls-3" d="M300.2,354.14l-.26,0a127.56,127.56,0,0,1-33.87-13.54,1.1,1.1,0,1,1,1.11-1.91A124.94,124.94,0,0,0,300.46,352a1.1,1.1,0,0,1-.26,2.18Z"/><path class="cls-3" d="M262.43,338.18a1.06,1.06,0,0,1-.59-.17c-1.8-1.13-3.6-2.34-5.35-3.57a1.11,1.11,0,0,1,1.28-1.81c1.72,1.22,3.49,2.4,5.25,3.51a1.11,1.11,0,0,1-.59,2Z"/><path class="cls-3" d="M251.22,330.2a1.09,1.09,0,0,1-.69-.24,126.14,126.14,0,0,1-16.44-15.73,1.1,1.1,0,0,1,1.66-1.45,124.36,124.36,0,0,0,16.16,15.45,1.11,1.11,0,0,1,.17,1.55A1.09,1.09,0,0,1,251.22,330.2Z"/><path class="cls-3" d="M231.88,311a1.11,1.11,0,0,1-.86-.41c-.91-1.13-1.78-2.26-2.6-3.35a1.09,1.09,0,0,1,.22-1.54,1.1,1.1,0,0,1,1.55.22c.8,1.07,1.66,2.17,2.55,3.28a1.11,1.11,0,0,1-.16,1.56A1.14,1.14,0,0,1,231.88,311Z"/><path class="cls-3" d="M224.45,300.73a1.1,1.1,0,0,1-.93-.5A125.5,125.5,0,0,1,209.16,270a1.1,1.1,0,0,1,2.1-.68A123.56,123.56,0,0,0,225.37,299a1.1,1.1,0,0,1-.32,1.53A1.13,1.13,0,0,1,224.45,300.73Z"/><path class="cls-3" d="M208.18,263.67a1.12,1.12,0,0,1-1.07-.84c-.19-.77-.39-1.55-.57-2.32a1.1,1.1,0,1,1,2.15-.51c.18.76.37,1.53.56,2.29a1.1,1.1,0,0,1-.8,1.34A1.26,1.26,0,0,1,208.18,263.67Z"/><path class="cls-3" d="M206.52,256.25a1.11,1.11,0,0,1-1.08-.9,126,126,0,0,1-2.21-27.17,1.11,1.11,0,0,1,1.13-1.08,1.12,1.12,0,0,1,1.08,1.14,123.55,123.55,0,0,0,2.17,26.7,1.1,1.1,0,0,1-.88,1.29Z"/><path class="cls-3" d="M205.59,214.78h-.16a1.1,1.1,0,0,1-.93-1.25c.5-3.49,1.17-7,2-10.51a1.1,1.1,0,1,1,2.15.5c-.79,3.42-1.45,6.9-1.94,10.33A1.11,1.11,0,0,1,205.59,214.78Z"/><path class="cls-3" d="M208.67,200l-.29,0a1.1,1.1,0,0,1-.77-1.36c.41-1.52.84-3,1.28-4.41a1.09,1.09,0,0,1,1.38-.72,1.11,1.11,0,0,1,.73,1.38c-.43,1.38-.86,2.84-1.26,4.33A1.11,1.11,0,0,1,208.67,200Z"/><path class="cls-3" d="M214.88,182.39a1,1,0,0,1-.45-.1,1.1,1.1,0,0,1-.56-1.45c.35-.8.71-1.6,1.08-2.39a1.09,1.09,0,0,1,1.46-.53,1.11,1.11,0,0,1,.54,1.47c-.37.77-.72,1.56-1.06,2.34A1.11,1.11,0,0,1,214.88,182.39Z"/><path class="cls-3" d="M218.46,174.91a1.19,1.19,0,0,1-.51-.12,1.11,1.11,0,0,1-.47-1.49,121.73,121.73,0,0,1,9.64-15.56,1.1,1.1,0,1,1,1.78,1.3,119.07,119.07,0,0,0-9.45,15.28A1.13,1.13,0,0,1,218.46,174.91Z"/><path class="cls-3" d="M236.37,149.2a1.09,1.09,0,0,1-.74-.28,1.11,1.11,0,0,1-.08-1.56,127.46,127.46,0,0,1,10.73-10.58,1.11,1.11,0,0,1,1.46,1.67,124.56,124.56,0,0,0-10.55,10.39A1.11,1.11,0,0,1,236.37,149.2Z"/><path class="cls-3" d="M250.69,135.62a1.08,1.08,0,0,1-.86-.4,1.1,1.1,0,0,1,.16-1.56c1.07-.87,2.18-1.73,3.39-2.65a1.11,1.11,0,1,1,1.34,1.76c-1.2.9-2.29,1.76-3.34,2.61A1.11,1.11,0,0,1,250.69,135.62Z"/><path class="cls-3" d="M265.67,125.19a1.13,1.13,0,0,1-.95-.54,1.11,1.11,0,0,1,.39-1.52A121.88,121.88,0,0,1,279.06,116a1.1,1.1,0,0,1,.87,2,119,119,0,0,0-13.69,7A1.07,1.07,0,0,1,265.67,125.19Z"/><path class="cls-3" d="M293.1,113.23a1.11,1.11,0,0,1-.32-2.17c1-.3,2.05-.59,3.08-.87a1.1,1.1,0,1,1,.58,2.13l-3,.86A1.12,1.12,0,0,1,293.1,113.23Z"/><path class="cls-3" d="M301.87,111a1.11,1.11,0,0,1-1.08-.87,1.12,1.12,0,0,1,.84-1.32,128.06,128.06,0,0,1,38-2.6,1.1,1.1,0,0,1-.18,2.2,126,126,0,0,0-37.33,2.56Z"/><path class="cls-3" d="M349.16,109.54H349c-1.38-.22-2.76-.42-4.07-.59a1.1,1.1,0,0,1-1-1.23,1.09,1.09,0,0,1,1.23-1c1.34.17,2.74.37,4.16.6a1.1,1.1,0,0,1-.18,2.19Z"/><g class="cls-4"><path class="cls-5" d="M311.27,146.24s21.86-6.51,53.65,0L366.51,164H308.22Z"/><path class="cls-6" d="M407.18,60.87c0-22.85-30.72-41.37-68.62-41.37S269.94,38,269.94,60.87s30.73,41.37,68.62,41.37S407.18,83.72,407.18,60.87Z"/><path class="cls-7" d="M316.3,112.24s1.38,32.17,0,37.43-14.23,13.75-27.41,19.93c0,0,15.32,47.82,48.45,47.13s43.18-39.13,48.44-46.68c0,0-25.27-8.68-25.87-19.43s0-38.38,0-38.38Z"/><path class="cls-8" d="M337.8,142.5c10.48,0,17.77-6.83,21.86-12.48.06-9.54.25-17.78.25-17.78H316.3s.37,8.23.53,17.34C320.34,135.28,327.05,142.5,337.8,142.5Z"/><path class="cls-7" d="M309,80.27s-1.81-5.3-8.91-4.67c-6.86.6-4.53,18.23,1.51,21.13s8-5.86,8-5.86Z"/><path class="cls-7" d="M369.1,80.27S370.91,75,378,75.6c6.86.6,4.53,18.23-1.51,21.13s-8-5.86-8-5.86Z"/><path class="cls-7" d="M375,78.88c-3,37.72-13.6,55.82-35.9,55.82s-33-14.95-35.9-55.82c-2.13-30.17,13.68-48.83,35.9-48.83S377.47,47.56,375,78.88Z"/><path class="cls-9" d="M320.44,85a2.26,2.26,0,1,1-2.24-2.59A2.42,2.42,0,0,1,320.44,85Z"/><path class="cls-9" d="M361.31,85a2.27,2.27,0,1,1-2.24-2.59A2.43,2.43,0,0,1,361.31,85Z"/><path class="cls-10" d="M310.49,76.75a1.31,1.31,0,0,1-.89-.34,1.33,1.33,0,0,1-.1-1.89c2.09-2.32,7.24-7.21,14.69-2.31a1.41,1.41,0,0,1,.59,1.8,1.35,1.35,0,0,1-1.8.59,9.66,9.66,0,0,0-11.49,1.71A1.32,1.32,0,0,1,310.49,76.75Z"/><path class="cls-10" d="M368.43,76.75a1.31,1.31,0,0,0,.89-.34,1.33,1.33,0,0,0,.1-1.89c-2.09-2.32-7.24-7.21-14.69-2.31a1.41,1.41,0,0,0-.59,1.8,1.34,1.34,0,0,0,1.8.59,9.66,9.66,0,0,1,11.49,1.71A1.32,1.32,0,0,0,368.43,76.75Z"/><path class="cls-8" d="M338.5,106.73c-1.88-.06-3.37-.57-4.08-2-2.18-4.34,2-11.33,2.35-12.19.27-.59.68-1,1.27-.68s.37,1.06.1,1.65c-1.27,2.82-2.05,8-.89,10a1.66,1.66,0,0,0,1.46.8,1.2,1.2,0,0,1,1.07,1.28C339.73,106.78,338.54,106.73,338.5,106.73Z"/><path class="cls-10" d="M300.93,75.55s-14.53-54.67,22.55-50c0,0,12.43-14.78,33.34-3.68,25.38,13.47,21.09,34.83,19.92,53.71l-1.9,4.65s-.79-5.21-1.95-6.77S349.61,62.37,341.14,48c0,0,3.66,10.5,12.13,17.12a24,24,0,0,1-14.19-7.39s4.47,5.75,6,6.81c0,0-13.09-1.73-23.67-14.53,0,0-11.45,16.74-16.45,22.71,0,0-1.87,5.6-1.72,7.46C303.25,80.2,301.7,76.14,300.93,75.55Z"/><path class="cls-6" d="M299,42.42S296.2,4.53,336.79,4.53s38.42,39.21,38.42,39.21Z"/><path class="cls-6" d="M407.18,60.87c0-22.85-30.72-41.37-68.62-41.37S269.94,38,269.94,60.87c0,10.41,6.4,19.92,16.94,27.19a31.41,31.41,0,0,1-.23-3.77c0-22.85,23.66-41.37,52.85-41.37s52.85,18.52,52.85,41.37c0,.78,0,1.55-.09,2.32C401.59,79.54,407.18,70.6,407.18,60.87Z"/><path class="cls-11" d="M338.56,23.25c36.88,0,67,17.54,68.54,39.54,0-.64.08-1.28.08-1.92,0-22.85-30.72-41.37-68.62-41.37S269.94,38,269.94,60.87c0,.65,0,1.3.08,2C271.58,40.81,301.67,23.25,338.56,23.25Z"/><path class="cls-12" d="M328.63,112.23s7.81,1.32,20.13,0A11.19,11.19,0,0,1,338.23,119C330.94,119,328.63,112.23,328.63,112.23Z"/><path class="cls-13" d="M336.38,209.63C332,198,327.7,180.52,327.7,180.52c-15.3-23.85-16.5-34.29-16.55-34.25-3.72,3.22-12.7,12.49-15.88,14.24v2.65c-14.32,7.41-33,16.93-42.31,22.61,0,0,16.87,134,17.14,192.35,0,0,69.49,5.87,133.66,0,0,0,16.36-186.67,15.89-192.35,0,0-19.53-11-40.55-21.85l0-2.15c-1.06-1.49-12.75-13.71-14.14-15.5a99.3,99.3,0,0,1-20.73,34.64C341.83,183.43,336.38,209.63,336.38,209.63Z"/><path class="cls-14" d="M306.23,200.45l-10.1-34.61a.8.8,0,0,1,.55-1,.79.79,0,0,1,1,.54L307,197.55l18.53-17a.79.79,0,0,1,1.12,0,.8.8,0,0,1,0,1.13Z"/><path class="cls-14" d="M364.76,200.36,345,182.09a.79.79,0,0,1,1.08-1.16l18,16.71,13.27-32.33a.8.8,0,0,1,1-.43.79.79,0,0,1,.43,1Z"/><path class="cls-15" d="M265.39,378.12s-7.77-12.61-1.08-26.52l-1.51-42.12s13.63-38.16,16.28-66.77c0,0,65.18-4.24,114.45,0,0,0-1.32,45.83,19.34,66.76l-3.7,43.19s10.5,15-.62,25.46C408.55,378.12,348.13,401.46,265.39,378.12Z"/><path class="cls-16" d="M292.68,271.06s50-2.12,86,0c0,0,1.05,51.4-41.74,51.4C289.94,322.46,292.68,271.06,292.68,271.06Z"/><path class="cls-17" d="M266.89,312.66a.76.76,0,0,1-.38-.11.79.79,0,0,1-.31-1.08c.19-.35,14.78-35.41,16.86-63.78l.05-.7.7,0c.59,0,59.56-3.11,104.85,0l.66,0,.07.67c.05.45-.69,45.71,19,63.57a.8.8,0,0,1,.05,1.12.79.79,0,0,1-1.12.06c-19.05-17.29-18.75-58-19.43-63.92-42.43-2.89-96.55-.36-103.29,0-2.37,28.6-16.81,63.4-17,63.75A.81.81,0,0,1,266.89,312.66Z"/><path class="cls-17" d="M335.84,318.77c-30.53,0-38-27-39.73-43.12l-.09-.84.84,0c.23,0,23-1.06,45.57-1.06,13.28,0,23.9.36,31.58,1.06l.74.07,0,.74c0,.42-1.37,42.1-37.34,43.17Zm-38.06-42.45c1.88,15.92,9.55,41.73,39.56,40.84,14.43-.43,24.84-7.52,30.93-21.08a60.58,60.58,0,0,0,4.84-19.79c-7.57-.66-17.88-1-30.68-1C322.34,275.3,302.12,276.13,297.78,276.32Z"/><path class="cls-15" d="M393.53,242.71s5.5-50.47,8.08-68.15l-17.81-9.34s-4.55,27.51-11.45,76.21c0,0-1.57,11.22,8.63,12.74C389.89,255.5,392.61,248.34,393.53,242.71Z"/><path class="cls-17" d="M376.18,239.93H376a.79.79,0,0,1-.64-.92c3.73-21,9.54-70,9.59-70.5a.8.8,0,0,1,.89-.69.79.79,0,0,1,.69.88c-.05.49-5.87,49.54-9.61,70.58A.79.79,0,0,1,376.18,239.93Z"/><path class="cls-17" d="M390.09,239.93H390a.8.8,0,0,1-.71-.88c2.95-27.71,7.9-63.45,7.95-63.81a.8.8,0,0,1,1.58.22c-.06.36-5,36.07-7.95,63.76A.79.79,0,0,1,390.09,239.93Z"/><path class="cls-18" d="M373,220l.68-7.12c.21-2.18,1.84-3.82,3.64-3.65L396.27,211c1.8.17,3.1,2.09,2.89,4.27l-.68,7.12c-.21,2.18-1.85,3.81-3.65,3.64l-18.93-1.81C374.1,224.07,372.81,222.16,373,220Zm4-7.6a.74.74,0,0,0-.73.73l-.68,7.12a.73.73,0,0,0,.58.85l18.93,1.82a.74.74,0,0,0,.73-.73l.68-7.12a.75.75,0,0,0-.58-.86Z"/><path class="cls-18" d="M387.11,245.57a5.07,5.07,0,1,0-5.07,5.07A5.07,5.07,0,0,0,387.11,245.57Z"/><path class="cls-15" d="M279.08,242.71,272.46,174s11.56-6.28,17-8.35c0,0,6.38,30.23,10.08,76.06,0,0,.63,11.07-8.17,12.17C283.9,254.76,279.74,249.8,279.08,242.71Z"/><path class="cls-17" d="M282.59,241.62a.79.79,0,0,1-.79-.72c-2.55-26.41-7.21-66.64-7.25-67.05a.8.8,0,1,1,1.58-.18c0,.41,4.7,40.66,7.25,67.08a.8.8,0,0,1-.71.87Z"/><path class="cls-17" d="M295.9,239.93a.8.8,0,0,1-.79-.73c-1.37-17.26-9.08-68.78-9.16-69.29a.81.81,0,0,1,.67-.91.78.78,0,0,1,.9.67c.08.52,7.8,52.09,9.18,69.4a.81.81,0,0,1-.73.86Z"/><path class="cls-18" d="M296.92,224.25,278,226.06c-1.8.17-3.43-1.46-3.64-3.64l-.68-7.12c-.21-2.18,1.08-4.1,2.88-4.27l18.93-1.82c1.8-.17,3.44,1.47,3.64,3.65l.69,7.12C300,222.16,298.72,224.07,296.92,224.25Zm-20.07-10.06a.75.75,0,0,0-.57.86l.68,7.12a.74.74,0,0,0,.73.73l18.93-1.82a.73.73,0,0,0,.58-.85l-.69-7.12a.73.73,0,0,0-.72-.73Z"/><path class="cls-18" d="M294.91,245.57a5.07,5.07,0,1,0-5.07,5.07A5.07,5.07,0,0,0,294.91,245.57Z"/><path class="cls-13" d="M419.66,185.77s22.89,16.6,20.77,40.68C434.77,290.77,415.36,323,415.36,323s-20.42-17.57-36.51-31.35l20.46-63.36S408.64,189.46,419.66,185.77Z"/><path class="cls-13" d="M253.08,185.77a70.19,70.19,0,0,0-20.63,36c-11.87,52.94-11.87,78.5-11.87,78.5s22.85-3.22,43.55-14.85l3.56-52.85S267.88,197.18,253.08,185.77Z"/><path class="cls-7" d="M357.12,267.25s18.61-5.75,31.16-5.78l-7.66,24.74s-12.74,1.77-19,1.77C361.65,288,357.12,275.2,357.12,267.25Z"/><path class="cls-7" d="M288.58,269s-11.18-19.63-27.64-24.43c0,0-18-9.36-26.06,1.37a2.71,2.71,0,0,0,3.15,2.43c2.27-.35,11.58-4.45,19.33,3.89,0,0-12.76-2.63-20.31,2.48a3.08,3.08,0,0,0-.68,3.18c.53,2.2,2,12.27,3.64,15.09a4,4,0,0,0,4.57,1.18c1.21-.38,10-1.76,12.44-.35,0,0,5.1,2.59,5.65,3.31,5.61,7.44,19.72,7.48,19.72,7.48S289.11,272.5,288.58,269Z"/><path class="cls-13" d="M269.67,319.51c-22.85,8.44-42.72,7.56-48.31-12.39-4.83-17.23,12.15-28.06,38.57-31.12C259.47,291.14,265.58,310.86,269.67,319.51Z"/><path class="cls-7" d="M260.18,278.48c43.58-6.33,96.94-11.23,96.94-11.23L361.65,288S314.12,304,268.25,316.4A86.67,86.67,0,0,1,260.18,278.48Z"/><path class="cls-5" d="M289.7,313s3.34,3.23-1.85,4.56c-1.52.39-16.27,6.84-19.3,4.62s-19.63-19.28-10.41-45.76c0,0,1.11-2.74,6.27-2.43s14.48-3.08,16.68.69S275.45,297.5,289.7,313Z"/><path class="cls-13" d="M367,329.87c23.51,5.54,43.2,5.21,49.16-8.36,7.75-17.6-10.73-29-35.85-34.2C379.47,302.44,371.75,321.59,367,329.87Z"/><path class="cls-7" d="M379.59,291.87c-40.77-10.41-91-22.88-91-22.88l-6.19,15.63s40.66,28.89,86.23,42.27C373.41,318.61,378.8,307,379.59,291.87Z"/><path class="cls-5" d="M347.54,321.71s-3.6,2.94,1.45,4.7c1.49.51,15.66,8.16,18.86,6.2S389,315,382,287.87c0,0-.88-2.83-6-2.94a40.64,40.64,0,0,0-8,.5L358.6,288C356.1,291.55,363,307.46,347.54,321.71Z"/><path class="cls-14" d="M225.63,290a.8.8,0,0,1-.59-1.33c9.11-10.27,31.57-13,32.52-13.16a.8.8,0,0,1,.88.7.79.79,0,0,1-.69.88c-.23,0-22.82,2.82-31.52,12.64A.84.84,0,0,1,225.63,290Z"/><path class="cls-14" d="M400.4,294.39a.93.93,0,0,1-.29-.05,149.52,149.52,0,0,0-17-5.59.79.79,0,0,1-.59-1,.81.81,0,0,1,1-.58,147.25,147.25,0,0,1,17.19,5.64.8.8,0,0,1,.46,1A.78.78,0,0,1,400.4,294.39Z"/><path class="cls-14" d="M395,242.42a.62.62,0,0,1-.23,0,.78.78,0,0,1-.53-1c.33-1.13,8.27-27.71,10.08-32.48a.79.79,0,1,1,1.48.56c-1.78,4.72-10,32.09-10,32.37A.8.8,0,0,1,395,242.42Z"/><path class="cls-14" d="M267.67,244.7a.8.8,0,0,1-.79-.71l-3.76-33.32a.81.81,0,0,1,.71-.88.78.78,0,0,1,.87.7l3.76,33.33a.8.8,0,0,1-.7.88Z"/><path class="cls-8" d="M314.25,303.91a.8.8,0,0,1-.24-1.55l42.87-13.63a.8.8,0,0,1,.48,1.52L314.5,303.87A.73.73,0,0,1,314.25,303.91Z"/><path class="cls-8" d="M282.37,276.22a.7.7,0,0,1-.62-.72.77.77,0,0,1,.61-.86l20-2.14a.72.72,0,0,1,.71.73.78.78,0,0,1-.61.86l-20,2.13Z"/><path class="cls-8" d="M238.38,260.59a.39.39,0,0,1-.38-.27.39.39,0,0,1,.26-.5c.12,0,12.47-3.87,24.17-.5a.4.4,0,0,1,.28.49.41.41,0,0,1-.5.27c-11.46-3.3-23.59.46-23.71.5Z"/><path class="cls-8" d="M240,268.25a.41.41,0,0,1-.38-.28.4.4,0,0,1,.25-.5c.56-.18,13.78-4.47,23.54,0a.39.39,0,0,1,.2.52.4.4,0,0,1-.53.2c-9.48-4.36-22.82,0-23,0Z"/><path class="cls-8" d="M262.85,253.84a.32.32,0,0,1-.14,0,20.31,20.31,0,0,0-4.6-1,.4.4,0,1,1,.08-.79,20.86,20.86,0,0,1,4.81,1.08.4.4,0,0,1,.22.52A.4.4,0,0,1,262.85,253.84Z"/></g><path class="cls-19" d="M113.18,434.38c-.13.61-.29,1.21-.46,1.8-.37,1.31-.54,2.95.94,3.7a3.74,3.74,0,0,0,1.09.29,30.63,30.63,0,0,0,9-.54,13.68,13.68,0,0,0,3.81-.85,1.31,1.31,0,0,0,.5-.37,1.05,1.05,0,0,0,0-1.07,3.69,3.69,0,0,0-.76-.82c-2.38-2.26-2.78-5.2-2.53-8.3.18-2.18.34-4.35.49-6.53q1-13.6,1.34-27.25c.06-2.38.09-4.87-.93-7a9.12,9.12,0,0,0-4.5-4.15c-3.17-1.45-9.06-1.63-9.87,3.05a41.8,41.8,0,0,0-.23,8.95c0,4.2.39,8.45.62,12.65.24,4.53.52,9.06.88,13.58q.26,3.39.59,6.77c.13,1.35.31,2.69.33,4A9.85,9.85,0,0,1,113.18,434.38Z"/><path class="cls-20" d="M143.86,444.06h-.37c1-.61-.66-2.46-1.53-2.91-2.59-1.36-5.5-2.09-8.16-3.32a32.06,32.06,0,0,1-6.65-4.48,2.36,2.36,0,0,0-.72-.45c-1-.29-1.77.68-2.43,1.43-2,2.18-5.72,3.48-8.49,2.13a12.23,12.23,0,0,0-2-1c-1.15-.32-1.24.6-1.6,1.64a11.44,11.44,0,0,0-.65,3.42c0,.73-.75,3.17,0,3.52h-.4a.52.52,0,1,0,0,1h33a.52.52,0,1,0,0-1Z"/><path class="cls-21" d="M127.13,437.35c.1.87,1.28.91,1.91.78a3.46,3.46,0,0,0,1.75-.92.48.48,0,0,0,.37-.17,4,4,0,0,0,.4-2.61,3.71,3.71,0,0,0-.31-1.14,1.72,1.72,0,0,0-.81-.91.91.91,0,0,0-1.11.39,2.4,2.4,0,0,0-.18,1.32,5.84,5.84,0,0,0,.8,2.2,3,3,0,0,0-1.3-.19C128,436.16,127.05,436.59,127.13,437.35Zm3.55-1.37a5.77,5.77,0,0,1-.58-1.38,3.39,3.39,0,0,1-.08-1.19,1.76,1.76,0,0,1,.12-.45v0a3.06,3.06,0,0,1,.58,1.85A6.33,6.33,0,0,1,130.68,436Zm-2.69,1.3c0-.48.6-.74,1-.72a2.65,2.65,0,0,1,1.1.39,2.92,2.92,0,0,1-1,.65C128.72,437.72,128,437.88,128,437.28Z"/><path class="cls-21" d="M131.84,438.69l0,0c.22-.29.43-.6.65-.9a.37.37,0,0,1,.2-.14.74.74,0,0,1,.33,0,.43.43,0,0,1,.26.11.15.15,0,0,1,0,.18l-.45.63-.22.3a.93.93,0,0,1-.13.15.77.77,0,0,1-.45.14.53.53,0,0,1-.3-.07c-.06,0-.14-.09-.13-.17S131.75,438.73,131.84,438.69Z"/><path class="cls-21" d="M133.81,439.49l.17-.2c.19-.26.38-.53.55-.81a.54.54,0,0,1,.53-.16.43.43,0,0,1,.26.11.15.15,0,0,1,0,.18,8.85,8.85,0,0,1-.81,1.12.41.41,0,0,1-.25.11.72.72,0,0,1-.33,0c-.07,0-.17-.07-.2-.15A.16.16,0,0,1,133.81,439.49Z"/><path class="cls-19" d="M90.37,434.38c.13.61.3,1.21.47,1.8.36,1.31.53,2.95-1,3.7a3.58,3.58,0,0,1-1.09.29,30.58,30.58,0,0,1-8.94-.54,13.67,13.67,0,0,1-3.82-.85,1.28,1.28,0,0,1-.49-.37,1,1,0,0,1,0-1.07,3.64,3.64,0,0,1,.75-.82c2.39-2.26,2.78-5.2,2.53-8.3-.17-2.18-.34-4.35-.49-6.53q-.95-13.6-1.33-27.25c-.07-2.38-.1-4.87.92-7a9.14,9.14,0,0,1,4.51-4.15c3.17-1.45,9-1.63,9.86,3.05a41.16,41.16,0,0,1,.23,8.95c0,4.2-.39,8.45-.61,12.65-.25,4.53-.53,9.06-.88,13.58-.18,2.26-.37,4.52-.59,6.77-.13,1.35-.32,2.69-.33,4A9.19,9.19,0,0,0,90.37,434.38Z"/><path class="cls-20" d="M92.7,444.06h-.4c.78-.35.06-2.79,0-3.52a12.11,12.11,0,0,0-.65-3.42c-.36-1-.46-2-1.61-1.64a11.76,11.76,0,0,0-2,1c-2.77,1.35-6.53.05-8.49-2.13-.67-.75-1.48-1.72-2.43-1.43a2.53,2.53,0,0,0-.73.45,32,32,0,0,1-6.64,4.48c-2.66,1.23-5.57,2-8.17,3.32-.87.45-2.58,2.3-1.52,2.91h-.38a.52.52,0,0,0,0,1h33a.52.52,0,0,0,0-1Z"/><path class="cls-21" d="M74.91,436.1a3.05,3.05,0,0,0-1.31.19,5.67,5.67,0,0,0,.8-2.2,2.49,2.49,0,0,0-.17-1.32.91.91,0,0,0-1.11-.39,1.74,1.74,0,0,0-.82.91,3.69,3.69,0,0,0-.3,1.14,3.87,3.87,0,0,0,.4,2.61.48.48,0,0,0,.36.17,3.5,3.5,0,0,0,1.75.92c.64.13,1.81.09,1.91-.78S75.52,436.16,74.91,436.1Zm-2.08-1.27A3.12,3.12,0,0,1,73.4,433l0,0a1.76,1.76,0,0,1,.12.45,3.17,3.17,0,0,1-.09,1.19,5.39,5.39,0,0,1-.58,1.38A5.54,5.54,0,0,1,72.83,434.83Zm1.65,2.77a2.75,2.75,0,0,1-1-.65,2.6,2.6,0,0,1,1.1-.39c.4,0,1,.24,1,.72S74.84,437.72,74.48,437.6Z"/><path class="cls-21" d="M71.71,438.69l0,0c-.22-.29-.43-.6-.64-.9a.46.46,0,0,0-.2-.14.74.74,0,0,0-.33,0,.41.41,0,0,0-.26.11s-.09.12,0,.18l.45.63.22.3A.88.88,0,0,0,71,439a.83.83,0,0,0,.46.14.53.53,0,0,0,.3-.07s.13-.09.13-.17S71.81,438.73,71.71,438.69Z"/><path class="cls-21" d="M69.74,439.49l-.16-.2a8.87,8.87,0,0,1-.55-.81.54.54,0,0,0-.53-.16.41.41,0,0,0-.26.11.15.15,0,0,0,0,.18,9.89,9.89,0,0,0,.8,1.12.41.41,0,0,0,.26.11.74.74,0,0,0,.33,0c.07,0,.17-.07.2-.15S69.79,439.55,69.74,439.49Z"/><path class="cls-15" d="M104.13,294.51c-.8,6.37-1.61,12.73-2.35,19.11-.14,1.17-.27,2.34-.4,3.51-.2,1.79-.39,3.57-.57,5.36q-.44,4.31-.82,8.63c-1.41,15.52-2.38,31.07-3.11,46.64-.49,10.31-.86,20.64-1.18,31q-.3,9.5-.53,19c-.06,2.6-4,3.07-8.7,2.86l-1.9-.12-.85-.07-1.42-.14c-2.08-.21-4.1-.48-5.82-.67-1.07-.13-2-.22-2.75-.26-1.16-.06-1.87,0-1.87.33q-.3-19.36-1-38.74-.67-18.63-1.6-37.26c-1.8-36.84-4.09-73.69-5.74-110.49-.28-6.12.77-13.31,4.17-18.69a18,18,0,0,1,2.2-2.85,16.48,16.48,0,0,1,2.73-2.33,15.89,15.89,0,0,1,2.76-1.5,17.5,17.5,0,0,1,1.77-.62,18.41,18.41,0,0,1,6.28-.76,18.6,18.6,0,0,1,2.26.26c.58.1,1.16.22,1.73.36.9.23,1.8.5,2.72.81,1.23.41,2.48.88,3.8,1.38,2,.77,4,1.33,5.76,2.1a13.8,13.8,0,0,1,1.72.86l.38.24.16.1a10.63,10.63,0,0,1,2.21,1.91,11.67,11.67,0,0,1,1.64,2.44,21,21,0,0,1,2,6.76,52.71,52.71,0,0,1,.43,6.77C108.5,258.56,106.39,276.54,104.13,294.51Z"/><path class="cls-15" d="M140.07,243.16c-2.8,62.1-7.4,124.35-8.38,186.49,0-.21-.3-.31-.84-.34a20.49,20.49,0,0,0-2.75.15c-1.17.12-2.55.3-4,.48l-2.3.26c-1.42.15-2.88.28-4.28.36q-1.44.07-2.76.06c-.33,0-.65,0-1,0a14.76,14.76,0,0,1-2.25-.27c-1.87-.38-3.09-1.17-3.12-2.6q-.26-9.51-.53-19c-.73-23.72-1.77-47.45-3.73-71.1q-.63-7.58-1.39-15.13-.45-4.44-1-8.87c-.13-1.13-.26-2.24-.4-3.36q-.43-3.63-.89-7.26c-.67-5.33-1.35-10.65-2-16-1.87-15.49-3.41-31-3.21-46.63a51,51,0,0,1,.44-6.77,21.18,21.18,0,0,1,2-6.76,11.73,11.73,0,0,1,1.85-2.67,10.49,10.49,0,0,1,1.77-1.52l.38-.26.16-.09a15.79,15.79,0,0,1,2.21-1.12c1.71-.72,3.57-1.25,5.51-2,1.15-.43,2.26-.85,3.34-1.23.77-.26,1.54-.51,2.29-.72a22.94,22.94,0,0,1,3.1-.68,18,18,0,0,1,2.76-.21,18.77,18.77,0,0,1,5.3.79,16.23,16.23,0,0,1,2.86,1.13,16.33,16.33,0,0,1,4,2.91,18.53,18.53,0,0,1,2.51,3.13C139.29,229.74,140.35,237,140.07,243.16Z"/><path class="cls-22" d="M147.16,129c0,.44,0,.89,0,1.34-.12,3.86-.5,7.59-.65,10.26-.75,13-3,25.77-3.88,38.71-.86,12-1.24,24.05-1.68,36.1-.06,1.65-.1,3.3-.12,4.94,0,.94,0,1.88,0,2.83,0,2.66,0,5.32,0,8H61.75c0-2.65,0-5.31,0-8,0-.95,0-1.89,0-2.83,0-1.64-.06-3.29-.12-4.94-.44-12-.82-24.06-1.68-36.1-.93-12.94-3.13-25.74-3.88-38.71-.15-2.67-.53-6.4-.65-10.26,0-.45,0-.9,0-1.34-.06-5.73.6-11.48,3.62-14.24,6.22-5.69,15.87-8.7,23.43-11.91l.12,0c.56-.25,1.14-.54,1.72-.85l1.37-.71.19-.09c.32-.17.64-.32,1-.47A10.19,10.19,0,0,1,90,99.72a68.41,68.41,0,0,1,8.82-.27c.83,0,1.67,0,2.51,0s1.68,0,2.51,0a68.41,68.41,0,0,1,8.82.27,10.19,10.19,0,0,1,3.13.94c.32.15.64.3,1,.47l.19.09,1.37.71c.59.31,1.16.6,1.72.85l.12,0c7.56,3.21,17.21,6.22,23.44,11.91C146.56,117.5,147.22,123.25,147.16,129Z"/><path class="cls-19" d="M116.71,101.13l-.47.41-.42.31a12.63,12.63,0,0,1-4.19,2.66,28.11,28.11,0,0,1-3.8,1.24l-.76.17-.19,0-.39.09a27.57,27.57,0,0,1-4.36.48h-1.68a27.57,27.57,0,0,1-4.36-.48L95.7,106l-.19,0-.76-.17a28.57,28.57,0,0,1-3.8-1.24,12.63,12.63,0,0,1-4.19-2.66l-.42-.31-.47-.41c.32-.17.64-.32,1-.47A10.19,10.19,0,0,1,90,99.72a68.41,68.41,0,0,1,8.82-.27c.83,0,1.67,0,2.51,0s1.68,0,2.51,0a68.41,68.41,0,0,1,8.82.27,10.19,10.19,0,0,1,3.13.94C116.07,100.81,116.39,101,116.71,101.13Z"/><path class="cls-22" d="M147.65,121.56a104.66,104.66,0,0,1,11.44,27.12c2.59,9.53,4.71,19.67,5,29.58.15,5-1.6,8.73-7,9.17a18.51,18.51,0,0,1-8.71-1.1,10.09,10.09,0,0,1-5.89-6.23,16,16,0,0,1-.35-5c.12-3.42-.81-5.87-1.75-9.15-2.31-8.11-3.35-16.52-5.63-24.64-.16-.57-.33-1.13-.5-1.69-1.15-3.77-2.61-7.45-3.44-11.3a20.65,20.65,0,0,1,.4-11.64c.66-1.71,2-4.49,3.6-5.55,1.87-1.26,4.29.4,5.81,1.68a26.08,26.08,0,0,1,4.61,5.06Q146.51,119.68,147.65,121.56Z"/><path class="cls-22" d="M53.61,121.56A106.36,106.36,0,0,0,42.32,149c-2.62,9.63-4.88,19.89-4.4,29.92a12.43,12.43,0,0,0,1.65,6.47,9,9,0,0,0,3.77,3,13.25,13.25,0,0,0,14.73-2.89c3.84-4.06,4.63-10.09,4.69-15.68a108.91,108.91,0,0,1,3.73-28.51c.16-.57.32-1.13.5-1.69,1.15-3.77,2.61-7.45,3.44-11.3A20.57,20.57,0,0,0,70,116.69c-.65-1.71-2-4.49-3.59-5.55-1.87-1.26-4.3.4-5.81,1.68A26.08,26.08,0,0,0,56,117.88Q54.77,119.68,53.61,121.56Z"/><path class="cls-23" d="M132.33,60.91c0,13.3-13.78,24.09-30.78,24.09S70.78,74.21,70.78,60.91s13.78-24.08,30.77-24.08S132.33,47.61,132.33,60.91Z"/><path class="cls-19" d="M112.9,101.59l0-.32q-.54-6-1.09-12a8.38,8.38,0,0,0-.33-1.94,5.36,5.36,0,0,0-2.73-2.89,12.78,12.78,0,0,0-3.9-1.08,19.38,19.38,0,0,0-6.75,0c-2.23.45-5.72,2.11-6.73,4.3a7.36,7.36,0,0,0-.54,2.71c-.13,2.67.16,5.34-.13,8-.12,1.11-.33,2.21-.35,3.31Z"/><path class="cls-24" d="M110.39,87.33a7,7,0,0,1-.51,5.67c-1.45,2.72-4.5,4.23-7.47,4.56a8.28,8.28,0,0,1-4.36-.48,12.22,12.22,0,0,1-4-3.16,6.9,6.9,0,0,1-1.2-1.75c-.83-1.92.24-3.82,1.45-5.28A6.7,6.7,0,0,1,99,84.46a34.34,34.34,0,0,1,6.42.5c1.59.28,4.17.67,5,2.32Z"/><path class="cls-19" d="M117.15,71.89a31.9,31.9,0,0,0,0-4.48,24.61,24.61,0,0,0-3.13-11q-.22-.37-.48-.72a12.93,12.93,0,0,0-12.38-5.25,12.91,12.91,0,0,0-12.42,5.15c-.16.23-.33.47-.48.73C86,60,85.81,64,85.89,68.16a68,68,0,0,0,1,12.1,20.32,20.32,0,0,0,3,7.94c1.46,2.12,3.57,4.62,6,5.7a13.76,13.76,0,0,0,8.54.8c5.55-1.24,8.74-5.53,10.44-10.69a38.51,38.51,0,0,0,1-3.82A54.53,54.53,0,0,0,117.15,71.89Z"/><path class="cls-20" d="M102.41,49.36a24.55,24.55,0,0,1,4.87.34A8.38,8.38,0,0,1,111.69,52a18.71,18.71,0,0,1,1.49,1.89,20.9,20.9,0,0,0,2.21,1.86,9.23,9.23,0,0,1,2.33,4.17c1.26,4.44.94,9.45.53,14-.08.82-.29,1.8-1.08,2a.64.64,0,0,1-.49,0c-.32-.16-.35-.6-.34-1,0-.82,0-1.64,0-2.46a26.61,26.61,0,0,0-1.21-7.62,25.46,25.46,0,0,0-1.43-3.66c-.07-.16-1.2-2-1.16-2-.29.32-.59.63-.89.94s-.82.86-1.27,1.25a9.34,9.34,0,0,1-3.76,2,2.29,2.29,0,0,1-1.37,0c-1-.35-.3-1-.65-1.54-.8.6-1.71,1-2.55,1.54a7.8,7.8,0,0,1-3,1.38,2,2,0,0,1-1.46-.18.9.9,0,0,1-.24-1.29c-1.69.8-3.1,2.33-5,2.53a1.55,1.55,0,0,1-1-.2c-.69-.49,0-1.17,0-1.78A13,13,0,0,0,88.85,66a11.6,11.6,0,0,0-1.64,2.3,8.86,8.86,0,0,0-1.1,5.6c.19,1.45-.92,1.92-1.34.32-2.28-8.6-.9-18.83,8.18-22.67A26,26,0,0,1,102.41,49.36Z"/><path class="cls-19" d="M86.83,72a4,4,0,0,0-1.8-.64,3,3,0,0,0-3.14,2,4,4,0,0,0,0,1.76,11,11,0,0,0,4.1,7.25,4.43,4.43,0,0,0,1.5.84A2.2,2.2,0,0,0,89.15,83a2.47,2.47,0,0,0,.94-1.8,11.08,11.08,0,0,0-1.79-7.78A5.23,5.23,0,0,0,86.83,72Z"/><path class="cls-19" d="M115.75,72a4,4,0,0,1,1.8-.64,3,3,0,0,1,3.14,2,4,4,0,0,1,0,1.76,11,11,0,0,1-4.1,7.25,4.43,4.43,0,0,1-1.5.84,2.2,2.2,0,0,1-1.71-.16,2.47,2.47,0,0,1-.94-1.8,11.08,11.08,0,0,1,1.79-7.78A5.23,5.23,0,0,1,115.75,72Z"/><path class="cls-20" d="M93.92,68a7.94,7.94,0,0,0-3.39,1.41,12.23,12.23,0,0,0-1.31,1.07c-.56.54.12.42.5.27.62-.24,1.18-.58,1.84-.78a13.5,13.5,0,0,1,2-.45,13.81,13.81,0,0,1,4.16,0c.11,0,.62,0,.56-.23-.24-.82-.65-1-1.46-1.23A6.58,6.58,0,0,0,94.38,68C94.22,68,94.07,68,93.92,68Z"/><path class="cls-20" d="M108.83,68a8,8,0,0,1,3.38,1.41,12.23,12.23,0,0,1,1.31,1.07c.56.54-.12.42-.49.27-.63-.24-1.19-.58-1.84-.78a13.63,13.63,0,0,0-2-.45,13.81,13.81,0,0,0-4.16,0c-.11,0-.62,0-.55-.23.23-.82.64-1,1.45-1.23a6.58,6.58,0,0,1,2.42-.12C108.52,68,108.67,68,108.83,68Z"/><path class="cls-24" d="M101,79.69c-.93-.31-1.82-.82-1.5-2a10.43,10.43,0,0,1,.57-1.33,10.86,10.86,0,0,0,.5-1.49,6.74,6.74,0,0,0-.81-5.45c-.14-.2-.81-.11-.66.1a6.85,6.85,0,0,1,.48,6.3c-.32.85-1.06,1.83-.77,2.78.24.8,1.13,1.13,1.84,1.37C100.88,80.1,101.39,79.83,101,79.69Z"/><path class="cls-24" d="M105.83,83A6,6,0,0,1,102,84.61a4.8,4.8,0,0,1-4-1.48c-.15-.18-.81-.07-.59.19A5.62,5.62,0,0,0,102,85a6.89,6.89,0,0,0,4.41-1.83C106.66,82.94,106,82.81,105.83,83Z"/><path class="cls-21" d="M95.77,72.9a1.4,1.4,0,0,0-.28-.59,1.22,1.22,0,0,0-.37-.3,1,1,0,0,0-1.28.23.85.85,0,0,0-.15.42A1.86,1.86,0,0,0,94,74.41a.78.78,0,0,0,.41.24,1.13,1.13,0,0,0,.42.11.9.9,0,0,0,.92-.7A3,3,0,0,0,95.77,72.9Z"/><path class="cls-21" d="M109,72.9a1.28,1.28,0,0,0-.27-.59,1.22,1.22,0,0,0-.37-.3,1,1,0,0,0-1.28.23.85.85,0,0,0-.15.42,1.86,1.86,0,0,0,.26,1.75.78.78,0,0,0,.41.24,1.08,1.08,0,0,0,.42.11.91.91,0,0,0,.92-.7A2.84,2.84,0,0,0,109,72.9Z"/><path class="cls-25" d="M110.7,56.12a16.06,16.06,0,0,1-6,4.5c-.27.11.06.29.23.21a16.33,16.33,0,0,0,6.2-4.58C111.23,56.08,110.8,56,110.7,56.12Z"/><path class="cls-25" d="M107.22,54.86a34.09,34.09,0,0,1-6.74,4.55c-.23.12.18.25.32.18A34.27,34.27,0,0,0,107.61,55C107.77,54.84,107.34,54.75,107.22,54.86Z"/><path class="cls-25" d="M99,54.93a19.37,19.37,0,0,1-6,3.29c-.29.1,0,.28.23.22a20,20,0,0,0,6.16-3.38C99.6,54.93,99.17,54.83,99,54.93Z"/><path class="cls-26" d="M69.86,130q-2.77,9.78-5.15,19.69c-.44,1.87-.88,3.74-1.3,5.61,0,.15.41.18.45,0q2.25-9.91,4.91-19.73.75-2.76,1.53-5.5C70.35,129.87,69.9,129.84,69.86,130Z"/><path class="cls-26" d="M131.17,129.57c-.37-1.25-.75-2.5-1.16-3.74,0-.15-.5-.12-.44.07q2.12,6.54,3.68,13.23c.29,1.25.57,2.51.83,3.76,0,.18.49.16.46,0C133.6,138.41,132.48,134,131.17,129.57Z"/><path class="cls-20" d="M73.56,177.49l-3.63-.3a81.5,81.5,0,0,1,5.47-23.84c2.52-6.24,6.69-15,13.79-19.46A27.65,27.65,0,0,1,98,130.64c8.46-1.86,17.84,3.17,21.83,11.71a105.36,105.36,0,0,1,5.77,15.35,86,86,0,0,1,2,9.18c.36,2,.73,4.14,1.2,6.16l-3.55.82c-.49-2.12-.87-4.27-1.23-6.35a84.57,84.57,0,0,0-1.87-8.8,102,102,0,0,0-5.57-14.82c-3.28-7-10.92-11.2-17.75-9.69A23.9,23.9,0,0,0,91.11,137c-6.2,3.86-10,12-12.34,17.73A78,78,0,0,0,73.56,177.49Z"/><path class="cls-27" d="M83.14,136.17s-.53-6.4,2.45-7.53l1.07,1s-2.9,1.89-2.69,6.47Z"/><path class="cls-28" d="M81.42,135.91s-13.12-.11-9.26,13.18,7.5,15.16,10.65,13.44a1.57,1.57,0,0,1,1.57-.22,2.57,2.57,0,0,0,2.59,0,1.68,1.68,0,0,1,1.73-.38c.9.45,3.25.23,3.86-.95s14-25.75-6-25.45C86.55,135.51,84,135.81,81.42,135.91Z"/><path class="cls-29" d="M77.76,137.4a4.6,4.6,0,0,0-.85.38A8.83,8.83,0,0,0,75,139.19,7.51,7.51,0,0,0,73.3,142a10.28,10.28,0,0,0-.4,4.27,9.8,9.8,0,0,0,1,3.79,5.42,5.42,0,0,0,1.28,1.75c.32.25.6.12.68-.25a33.41,33.41,0,0,0,.21-4.13,29.58,29.58,0,0,1,.52-3.86A12.17,12.17,0,0,1,77.79,140a10,10,0,0,1,1.31-1.53c.28-.32.75-.87.11-1.12A2.41,2.41,0,0,0,77.76,137.4Z"/><path class="cls-27" d="M125.48,134.24s3.75-5.23,6.74-4.16l.19,1.45s-3.44-.45-6.24,3.18Z"/><path class="cls-30" d="M124.34,132.92s-9.92-8.58-15.6,4-4.1,16.41-.59,17.14a1.59,1.59,0,0,1,1.35.85,2.54,2.54,0,0,0,2,1.66c.72.07,1.32.26,1.56.83.4.92,2.33,2.28,3.56,1.78s27.35-10.55,11.91-23.28C128.51,135.94,126.34,134.48,124.34,132.92Z"/><path class="cls-29" d="M120.59,131.68a5.2,5.2,0,0,0-.9-.26,8.7,8.7,0,0,0-2.34-.13,7.37,7.37,0,0,0-3.13,1,10.33,10.33,0,0,0-3.07,3,9.9,9.9,0,0,0-1.69,3.54,5.62,5.62,0,0,0-.16,2.16.39.39,0,0,0,.69.24,31,31,0,0,0,2.83-3,28.62,28.62,0,0,1,2.9-2.6,12.24,12.24,0,0,1,3.22-2,10.32,10.32,0,0,1,2-.32c.42-.05,1.14-.17.82-.78A2.49,2.49,0,0,0,120.59,131.68Z"/><path class="cls-27" d="M113.7,149.79s3.75-5.23,6.74-4.16l.19,1.45s-3.44-.45-6.24,3.18Z"/><path class="cls-28" d="M112.56,148.47s-9.92-8.58-15.59,4-4.11,16.41-.6,17.14a1.59,1.59,0,0,1,1.35.85,2.54,2.54,0,0,0,2,1.66c.72.07,1.32.26,1.56.83.4.92,2.33,2.28,3.56,1.78s27.35-10.54,11.91-23.28C116.73,151.49,114.56,150,112.56,148.47Z"/><path class="cls-29" d="M108.81,147.23a5.36,5.36,0,0,0-.89-.26,9.23,9.23,0,0,0-2.35-.13,7.37,7.37,0,0,0-3.13,1,10.33,10.33,0,0,0-3.07,3,9.9,9.9,0,0,0-1.69,3.54,5.62,5.62,0,0,0-.16,2.16.39.39,0,0,0,.69.24,31,31,0,0,0,2.83-3,28.62,28.62,0,0,1,2.9-2.6,12.24,12.24,0,0,1,3.22-2,10.32,10.32,0,0,1,2-.32c.42,0,1.14-.17.82-.78A2.49,2.49,0,0,0,108.81,147.23Z"/><path class="cls-27" d="M80.83,152.8s-1.76-6.18.94-7.86l1.24.75s-2.48,2.41-1.38,6.87Z"/><path class="cls-30" d="M79.09,152.87s-12.89,2.44-6.54,14.73S82.85,181,85.61,178.72a1.56,1.56,0,0,1,1.5-.52,2.54,2.54,0,0,0,2.54-.53,1.69,1.69,0,0,1,1.62-.7c1,.26,3.23-.4,3.6-1.68s8.75-28-10.83-23.8C84,151.49,81.56,152.28,79.09,152.87Z"/><path class="cls-29" d="M75.79,155a4.54,4.54,0,0,0-.76.54,9,9,0,0,0-1.56,1.75,7.38,7.38,0,0,0-1.17,3.07,10.31,10.31,0,0,0,.43,4.27,9.9,9.9,0,0,0,1.73,3.52,5.19,5.19,0,0,0,1.59,1.47c.36.18.62,0,.62-.38a33.58,33.58,0,0,0-.59-4.09,29.76,29.76,0,0,1-.24-3.89,12.08,12.08,0,0,1,.47-3.74,9.73,9.73,0,0,1,1-1.75c.22-.37.57-1-.1-1.13A2.52,2.52,0,0,0,75.79,155Z"/><path class="cls-27" d="M118.88,163s-6.26-1.45-6.43-4.63l1.27-.72s.91,3.34,5.34,4.54Z"/><path class="cls-30" d="M118.1,164.51S114,177,127.83,177.36s16.72-2.53,16-6.05a1.55,1.55,0,0,1,.27-1.56,2.57,2.57,0,0,0,.77-2.47,1.67,1.67,0,0,1,.17-1.77c.69-.71,1.21-3,.27-4s-20.25-21.2-26.07-2.05C119.29,159.5,118.78,162.07,118.1,164.51Z"/><path class="cls-29" d="M118.4,168.45a5.77,5.77,0,0,0,.11.92,8.62,8.62,0,0,0,.78,2.22,7.32,7.32,0,0,0,2.12,2.51,10.24,10.24,0,0,0,3.94,1.68,10,10,0,0,0,3.92.2,5.3,5.3,0,0,0,2-.69c.34-.22.3-.53,0-.72a32.63,32.63,0,0,0-3.86-1.47,27,27,0,0,1-3.52-1.67,12.18,12.18,0,0,1-3-2.22,10.37,10.37,0,0,1-1.06-1.71c-.21-.37-.6-1-1-.46A2.55,2.55,0,0,0,118.4,168.45Z"/><path class="cls-27" d="M67.44,145.78s.09-6.45,3.16-7.29l1,1.1s-3.07,1.56-3.29,6.19Z"/><path class="cls-28" d="M65.75,145.31s-13-1.36-10.47,12.23,6,15.81,9.32,14.4a1.58,1.58,0,0,1,1.59-.07,2.56,2.56,0,0,0,2.58.22,1.7,1.7,0,0,1,1.76-.21c.85.53,3.21.54,3.93-.57S90.85,147,70.9,145.4C70.9,145.4,68.29,145.45,65.75,145.31Z"/><path class="cls-29" d="M62,146.44a5.48,5.48,0,0,0-.89.3,8.69,8.69,0,0,0-2,1.23,7.36,7.36,0,0,0-2,2.61,10.42,10.42,0,0,0-.8,4.21,10,10,0,0,0,.64,3.87A5.42,5.42,0,0,0,58,160.52c.29.28.59.18.7-.19a34.59,34.59,0,0,0,.61-4.08,27.54,27.54,0,0,1,.88-3.8A12.38,12.38,0,0,1,61.75,149a10,10,0,0,1,1.45-1.39c.32-.29.84-.8.23-1.11A2.4,2.4,0,0,0,62,146.44Z"/><path class="cls-20" d="M149.05,160.58v14.95a40.12,40.12,0,0,1-40.12,40.12H93.6a40.12,40.12,0,0,1-40.12-40.12V160.58Z"/><path class="cls-20" d="M99.32,130.4c-.46.06-.92.14-1.37.24a27.65,27.65,0,0,0-8.76,3.25c-7.1,4.42-11.27,13.22-13.79,19.46a81.5,81.5,0,0,0-5.47,23.84l3.63.3a78,78,0,0,1,5.21-22.78C81.1,149,84.91,140.84,91.11,137a23.9,23.9,0,0,1,7.62-2.78c.19,0,.39-.08.59-.12Z"/><path class="cls-25" d="M77.6,160.58v11.33a1,1,0,0,1-1,1h-4a1,1,0,0,1-1-1V160.58Z"/><path class="cls-25" d="M125.23,183.22H122a1.75,1.75,0,0,0-.81.19c-.14.08-.35.25-.33.44,0,.5.76.63,1.14.63h3.25a1.66,1.66,0,0,0,.81-.19c.14-.08.34-.25.33-.44C126.33,183.36,125.61,183.22,125.23,183.22Z"/><path class="cls-25" d="M137.63,174.55H135a1.7,1.7,0,0,0-.8.18c-.14.08-.35.25-.34.44,0,.5.76.63,1.14.63h2.64a1.7,1.7,0,0,0,.8-.18c.14-.08.35-.25.33-.45C138.72,174.68,138,174.55,137.63,174.55Z"/><path class="cls-25" d="M107.57,168c-.69,0-1.37,0-2.06,0l-1-.05h0l-.25,0-.57-.06a2.18,2.18,0,0,0-.88.06c-.17.06-.45.19-.52.38-.18.46.43.73.79.77a30.6,30.6,0,0,0,4.49.16,1.85,1.85,0,0,0,.8-.19c.14-.08.35-.25.34-.44C108.67,168.18,108,168,107.57,168Z"/><path class="cls-25" d="M128.19,166.2c-.25-.45-1-.51-1.4-.44l-.79.1h-.18l-.38,0a14.2,14.2,0,0,1-1.6,0,1.64,1.64,0,0,0-.81.19c-.14.08-.35.25-.33.44,0,.51.76.6,1.14.63a17,17,0,0,0,3.56-.15,1.43,1.43,0,0,0,.68-.29A.42.42,0,0,0,128.19,166.2Z"/><path class="cls-25" d="M103.87,196c-.26-.46-1-.48-1.4-.43l-.55.05h-.08l-.22,0c-.35,0-.71,0-1.06,0q-1.07,0-2.13,0c-.36,0-1.14.14-1.14.62s.79.61,1.14.63a30,30,0,0,0,4.64-.13C103.39,196.7,104.11,196.4,103.87,196Z"/><path class="cls-25" d="M110.67,187.25h-2.79a1.66,1.66,0,0,0-.81.19c-.14.08-.34.25-.33.44,0,.49.76.62,1.14.62h2.79a1.7,1.7,0,0,0,.8-.18c.14-.08.35-.25.34-.44C111.76,187.38,111.05,187.25,110.67,187.25Z"/><path class="cls-25" d="M87.12,184.9a15,15,0,0,0-4.33.1,1.21,1.21,0,0,0-.67.28.42.42,0,0,0-.12.49c.24.43,1,.51,1.4.43.29,0,.59-.09.89-.12l.23,0h0l.43,0a8.19,8.19,0,0,1,.86,0h.28l.42,0a2,2,0,0,0,.88-.06c.17-.06.45-.19.52-.37C88.09,185.2,87.48,184.94,87.12,184.9Z"/><path class="cls-25" d="M100.3,178.55a.9.9,0,0,0-.53-.38,2,2,0,0,0-.87-.06l-.66.1-.3,0h-.11c-.42,0-.84,0-1.26,0a1.65,1.65,0,0,0-.81.18c-.14.08-.34.25-.33.44,0,.51.76.61,1.14.63a13.06,13.06,0,0,0,2.93-.2,1.39,1.39,0,0,0,.68-.29A.42.42,0,0,0,100.3,178.55Z"/><path class="cls-25" d="M85.88,164c-.58,0-1.17,0-1.75,0l-.42,0-.21,0h0c-.3,0-.6-.06-.9-.09a2,2,0,0,0-.88.06.86.86,0,0,0-.52.37c-.18.47.43.73.79.77a21.77,21.77,0,0,0,3.87.17,1.7,1.7,0,0,0,.8-.18c.14-.08.35-.25.34-.44C87,164.15,86.26,164,85.88,164Z"/><path class="cls-25" d="M83.55,164Z"/><path class="cls-25" d="M60.47,164.47l-3.72.19a1.84,1.84,0,0,0-.8.18c-.14.08-.35.26-.34.45,0,.48.76.64,1.14.62l3.72-.18a1.85,1.85,0,0,0,.8-.19c.14-.08.35-.25.34-.44C61.57,164.62,60.85,164.46,60.47,164.47Z"/><path class="cls-25" d="M68.22,181.39l-3.1.16a1.77,1.77,0,0,0-.81.18c-.14.08-.34.25-.33.45,0,.48.76.64,1.14.62l3.1-.16a1.7,1.7,0,0,0,.8-.18c.14-.08.35-.25.34-.44C69.32,181.54,68.6,181.37,68.22,181.39Z"/><path class="cls-25" d="M102.49,209.9a1.75,1.75,0,0,0-.81-.18H99.82a1.7,1.7,0,0,0-.8.18c-.14.08-.35.25-.34.44a.58.58,0,0,0,.34.45,1.7,1.7,0,0,0,.8.18h1.86a1.77,1.77,0,0,0,.81-.18c.14-.08.34-.25.33-.45A.58.58,0,0,0,102.49,209.9Z"/><path class="cls-25" d="M147.55,168.2a.82.82,0,0,0-.52-.37,6.3,6.3,0,0,0-1.21-.23c-.26,0-.51,0-.76,0s-.51,0-.76,0a1.2,1.2,0,0,0-.68.29.41.41,0,0,0-.12.48c.24.43.85.47,1.3.45h.54l.52.08h0a2,2,0,0,0,.88.06,1.26,1.26,0,0,0,.68-.29A.4.4,0,0,0,147.55,168.2Z"/><path class="cls-19" d="M69.35,192.46c-.22-.18-.45-.36-.68-.56a51.71,51.71,0,0,1-4.73-5.38L54.4,175.65c-2.95-3.37-6.37-5.83-11.17-4-3.33,1.27-4.28,4.88-4.18,8.19.19,6,5,10.27,9.94,13,3.22,1.82,6.19,4,9.4,5.88,2.42,1.4,4.85,2.88,7.31,4.29.82.47,1.64.92,2.47,1.37a3.09,3.09,0,0,0,2.25.51,2.92,2.92,0,0,0,1.19-.87c1.28-1.36,4-3.9,3.33-6-.35-1.11-1.75-2.14-2.53-3A22.21,22.21,0,0,0,69.35,192.46Z"/><path class="cls-22" d="M63.6,184.85a3.87,3.87,0,0,0-.82-1.45c-3-3.7-6.88-6.84-9-11.24-.83-1.74-1.35-3.62-2.24-5.33A7.16,7.16,0,0,0,47.44,163c-4.53-1.26-7.07,4.89-8.11,8.2a58.1,58.1,0,0,0-1.45,6.34c-.62,3.21,1,6.76,2.91,9.29a41,41,0,0,0,7.28,7.07l3.54,2.93c.59.48,1.6,2,2.46,1.88s2.33-2.66,2.87-3.47c1.88-2.83,3.47-5.88,5.85-8.34A2.16,2.16,0,0,0,63.6,184.85Z"/><path class="cls-19" d="M71.38,195.23a3.32,3.32,0,0,0-1.84.77,8.64,8.64,0,0,0-1.49,2.12c-.38.68-.73,1.38-1,2.09-.63,1.39-.93,2.21.11,3.52,1.83,2.3,4.71,4.14,7.1,5.93,2.24,1.67,4.48,3.67,7.42,4.24a3.22,3.22,0,0,0,1.45,0,.89.89,0,0,0,.41-.21.59.59,0,0,0,0-.78,1.74,1.74,0,0,0-.7-.44,45.19,45.19,0,0,1-4.67-3.16l.2-.23c-.1.12,5.22,2.89,5.63,3.09a5.07,5.07,0,0,0,2.5.74c.58,0,1.29-.38,1.34-.94s-.32-.73-.65-1c-1.37-1-2.88-1.64-4.29-2.52L80,206.72c.07-.09.13-.19.19-.28s3.21,1.77,3.52,1.95a16.69,16.69,0,0,0,4.45,1.86,2.42,2.42,0,0,0,1,.12,1.14,1.14,0,0,0,.84-.53.88.88,0,0,0,0-.82,2,2,0,0,0-.58-.58c-1-.75-2.19-1.26-3.27-1.92l-4.32-2.63c0-.08.1-.16.14-.24,1.17.6,2.39,1.12,3.53,1.69a22.82,22.82,0,0,0,3.06,1.5,1.5,1.5,0,0,0,1.52-.25c.24-.19.63-.83.34-1.07A44,44,0,0,0,85.67,202a53.88,53.88,0,0,0-4.86-2.45c-.07,0-.14-.08-.11-.15s.15-.08.23-.06a10.08,10.08,0,0,0,2.46.36c1.38,0,2.51-.4,3-1.76.42-1.09-1.94-.92-2.57-.9a25.58,25.58,0,0,1-6.74-.85c-1.63-.39-3.35-1.27-5.06-1.09C71.82,195.17,71.6,195.19,71.38,195.23Z"/><path class="cls-19" d="M132.17,192.46c.23-.18.46-.36.68-.56a51.8,51.8,0,0,0,4.74-5.38l9.54-10.87c3-3.37,6.37-5.83,11.17-4,3.33,1.27,4.28,4.88,4.18,8.19-.19,6-5,10.27-9.94,13-3.22,1.82-6.2,4-9.4,5.88-2.43,1.4-4.85,2.88-7.31,4.29-.82.47-1.65.92-2.48,1.37a3.05,3.05,0,0,1-2.24.51,2.92,2.92,0,0,1-1.19-.87c-1.28-1.36-4-3.9-3.33-6,.35-1.11,1.75-2.14,2.52-3A23.46,23.46,0,0,1,132.17,192.46Z"/><path class="cls-22" d="M162.2,171.2a25.17,25.17,0,0,0-1.2-3.14H149.38c-.58,1.35-1,2.77-1.66,4.1-2.1,4.4-5.95,7.54-9,11.24a3.74,3.74,0,0,0-.82,1.45,2.15,2.15,0,0,0,.8,2.05c2.39,2.46,4,5.51,5.86,8.34.54.81,1.86,3.37,2.87,3.47.86.09,1.87-1.4,2.46-1.88l3.54-2.93a40.91,40.91,0,0,0,7.27-7.07c1.87-2.53,3.54-6.08,2.91-9.29A55.81,55.81,0,0,0,162.2,171.2Z"/><path class="cls-19" d="M130.15,195.23A3.26,3.26,0,0,1,132,196a8.42,8.42,0,0,1,1.5,2.12c.38.68.72,1.38,1,2.09.62,1.39.92,2.21-.12,3.52-1.82,2.3-4.7,4.14-7.09,5.93s-4.48,3.67-7.42,4.24a3.22,3.22,0,0,1-1.45,0,.85.85,0,0,1-.41-.21.59.59,0,0,1,0-.78,1.78,1.78,0,0,1,.69-.44,44.35,44.35,0,0,0,4.68-3.16c-.07-.08-.14-.15-.2-.23.1.12-5.22,2.89-5.63,3.09a5.1,5.1,0,0,1-2.5.74c-.58,0-1.29-.38-1.34-.94s.32-.73.65-1c1.37-1,2.88-1.64,4.29-2.52l2.83-1.78-.18-.28s-3.22,1.77-3.52,1.95a17,17,0,0,1-4.45,1.86,2.42,2.42,0,0,1-1,.12,1.13,1.13,0,0,1-.84-.53.85.85,0,0,1,0-.82,1.79,1.79,0,0,1,.58-.58c1-.75,2.19-1.26,3.26-1.92l4.33-2.63-.15-.24c-1.16.6-2.38,1.12-3.53,1.69a22.12,22.12,0,0,1-3.05,1.5,1.49,1.49,0,0,1-1.52-.25c-.24-.19-.63-.83-.34-1.07a44,44,0,0,1,4.73-3.48,52.59,52.59,0,0,1,4.86-2.45c.06,0,.13-.08.11-.15s-.15-.08-.23-.06a10.15,10.15,0,0,1-2.46.36c-1.38,0-2.51-.4-3-1.76-.41-1.09,2-.92,2.58-.9a25.58,25.58,0,0,0,6.74-.85c1.63-.39,3.35-1.27,5.06-1.09C129.7,195.17,129.93,195.19,130.15,195.23Z"/><path class="cls-31" d="M257.12,389.54a1.81,1.81,0,0,1-2,1.61l-2.74-.28a1.8,1.8,0,0,1-1.62-2l13.08-129.15a1.81,1.81,0,0,1,2-1.61l2.74.28a1.81,1.81,0,0,1,1.62,2Z"/><rect class="cls-32" x="239.77" y="385.91" width="28.67" height="10.62" rx="1.81" transform="translate(-160.73 604.62) rotate(-84.22)"/><path class="cls-32" d="M272.7,421.84c-.08.82-1.1,11.29-5.67,15.18,0,0-11.58,10.58-18.58,9.83s-16.09-13.23-16.09-13.23c-3.87-4.58-2.59-16.43-2.5-17.24l2.2-21.8a1.43,1.43,0,0,1,1.54-1.34l40.18,4.07a1.41,1.41,0,0,1,1.24,1.62Z"/><path class="cls-33" d="M234.71,396.27s15.48,1.33,16,4.52-1.61,24.29-1.61,24.29-.41-18.75-1.82-22.6S234.71,396.27,234.71,396.27Z"/><path class="cls-33" d="M271.61,400s-15.43-1.81-16.58,1.22-3.29,24.11-3.29,24.11,4.16-18.28,6.32-21.77S271.61,400,271.61,400Z"/><rect class="cls-32" x="251.92" y="253.7" width="31.14" height="10.62" rx="1.81" transform="translate(-17.14 499.05) rotate(-84.22)"/><path class="cls-32" d="M268.46,250.13c-2.36-.24-4.45-2-5.74-4.79l-10.28-19.58c-.46-1-1.55-3.45-.18-5.34s4-1.68,6.7-1.4l25.61,2.59c1.79.18,4,.4,4.91,2.37s-.56,4-1.26,5l-.05.07-14,18.17C272.08,250,269.7,250.26,268.46,250.13Zm-11.27-26.25,10.11,19.28c.6,1.34,1.33,1.89,1.67,1.93s.69-.31,1.08-.86l.05-.06,13.59-17.62-1-.16-24.19-2.45C258.13,223.91,257.66,223.92,257.19,223.88Z"/><path class="cls-5" d="M186.28,125s-9.89-2.92-24.27,0l-.72,8.05h26.37Z"/><ellipse class="cls-6" cx="178.08" cy="87.85" rx="31.04" ry="18.72"/><path class="cls-7" d="M184,109.37s-.62,14.49,0,16.87,6.44,6.19,12.41,9c0,0-6.93,21.62-21.92,21.31S155,138.82,152.57,135.41c0,0,11.43-3.87,11.71-8.73s0-17.31,0-17.31Z"/><path class="cls-8" d="M174.28,122.94c-4.74,0-8-3-9.89-5.59,0-4.31-.11-8-.11-8H184s-.16,3.66-.24,7.78C182.18,119.73,179.14,122.94,174.28,122.94Z"/><path class="cls-7" d="M189,96.63s.81-2.4,4-2.12,2,8.25-.69,9.56-3.63-2.65-3.63-2.65Z"/><path class="cls-7" d="M164.26,96.63s-.81-2.4-4-2.12-2.06,8.25.68,9.56,3.63-2.65,3.63-2.65Z"/><path class="cls-7" d="M161.62,96c1.37,17.06,6.15,25.25,16.24,25.25S192.8,114.49,194.1,96c1-13.65-6.19-22.1-16.24-22.1S160.48,81.83,161.62,96Z"/><path class="cls-9" d="M189,98.75a1,1,0,1,0,2,0,1,1,0,1,0-2,0Z"/><path class="cls-9" d="M173.78,98.75a1,1,0,1,0,1-1.17A1.1,1.1,0,0,0,173.78,98.75Z"/><path class="cls-10" d="M193.54,95a.63.63,0,0,0,.41-.15.6.6,0,0,0,0-.86c-.94-1-3.27-3.26-6.64-1a.63.63,0,0,0-.27.81.61.61,0,0,0,.82.27,4.36,4.36,0,0,1,5.19.77A.59.59,0,0,0,193.54,95Z"/><path class="cls-10" d="M170.56,95a.63.63,0,0,1-.41-.15.6.6,0,0,1,0-.86c.94-1,3.27-3.26,6.64-1a.63.63,0,0,1,.27.81.61.61,0,0,1-.82.27,4.36,4.36,0,0,0-5.19.77A.59.59,0,0,1,170.56,95Z"/><path class="cls-8" d="M185,108.59a1.92,1.92,0,0,0,1.85-.88c1-2-.89-5.13-1.06-5.52s-.31-.42-.57-.3-.17.47,0,.74c.57,1.28.93,3.64.4,4.54a.75.75,0,0,1-.66.36.53.53,0,0,0-.48.58C184.46,108.62,185,108.59,185,108.59Z"/><path class="cls-34" d="M182.51,113.13a5.38,5.38,0,0,0,3.51-1.39.63.63,0,0,0,.09-.73.34.34,0,0,0-.55-.11,4.63,4.63,0,0,1-6.21,0,.35.35,0,0,0-.54.19.61.61,0,0,0,.14.71A5.69,5.69,0,0,0,182.51,113.13Z"/><path class="cls-10" d="M195.11,94.49s6.57-24.74-10.21-22.63c0,0-5.62-6.69-15.08-1.67-11.48,6.09-9.54,15.76-9,24.3l.86,2.1a10.77,10.77,0,0,1,.88-3.06c.52-.71,10.53-5,14.36-11.5a18.88,18.88,0,0,1-5.48,7.75,10.81,10.81,0,0,0,6.41-3.34,27.34,27.34,0,0,1-2.71,3.08,18.41,18.41,0,0,0,10.7-6.58s5.18,7.58,7.45,10.28a15.06,15.06,0,0,1,.78,3.37A9.44,9.44,0,0,1,195.11,94.49Z"/><path class="cls-6" d="M196,79.5s1.24-17.14-17.12-17.14S161.5,80.1,161.5,80.1Z"/><path class="cls-6" d="M147,87.85c0-10.34,13.9-18.72,31-18.72s31,8.38,31,18.72c0,4.71-2.89,9-7.66,12.3a13.77,13.77,0,0,0,.11-1.71c0-10.33-10.71-18.71-23.91-18.71s-23.91,8.38-23.91,18.71c0,.35,0,.7,0,1C149.57,96.3,147,92.25,147,87.85Z"/><path class="cls-11" d="M178.08,70.83c-16.69,0-30.29,7.93-31,17.89q0-.43,0-.87c0-10.34,13.9-18.72,31-18.72s31,8.38,31,18.72c0,.29,0,.59,0,.88C208.38,78.77,194.77,70.83,178.08,70.83Z"/><path class="cls-13" d="M174.92,153.66c2-5.25,3.93-13.17,3.93-13.17,6.92-10.78,7.28-15.51,7.31-15.49,1.68,1.46,6.28,5.65,7,6.44v1.2c6.12,3.36,15.12,7.66,19.32,10.23,0,0-7.54,60.61-7.66,87,0,0-31.39,2.66-60.42,0,0,0-7.39-84.45-7.17-87,0,0,8.84-5,18.35-9.88l0-1c.48-.67,5.77-6.2,6.4-7a44.83,44.83,0,0,0,9.38,15.67C172.45,141.81,174.92,153.66,174.92,153.66Z"/><path class="cls-14" d="M188.56,149.51l4.57-15.66a.35.35,0,0,0-.24-.44.35.35,0,0,0-.45.24L188.2,148.2l-8.39-7.7a.36.36,0,1,0-.48.53Z"/><path class="cls-14" d="M162.08,149.47l8.92-8.26a.36.36,0,0,0-.48-.53l-8.16,7.56-6-14.62a.36.36,0,0,0-.47-.2.37.37,0,0,0-.2.47Z"/><path class="cls-15" d="M207,229.89a13.3,13.3,0,0,0,.49-12l.68-19.06s-6.17-17.26-7.37-30.21c0,0-29.48-1.92-51.78,0,0,0,.6,20.74-8.75,30.21L142,218.38s-4.75,6.8.28,11.51C142.27,229.89,169.6,240.45,207,229.89Z"/><path class="cls-35" d="M194.69,181.46s-22.62-1-38.92,0c0,0-.47,23.25,18.88,23.25C195.93,204.71,194.69,181.46,194.69,181.46Z"/><path class="cls-17" d="M206.36,200.28a.34.34,0,0,0,.17-.05.35.35,0,0,0,.14-.49c-.09-.16-6.68-16-7.62-28.86l0-.31-.31,0c-.27,0-27-1.41-47.44,0l-.3,0,0,.3c0,.2.31,20.68-8.59,28.76a.35.35,0,0,0,0,.51.34.34,0,0,0,.5,0c8.62-7.82,8.49-26.23,8.79-28.92,19.2-1.3,43.68-.16,46.73,0,1.08,12.94,7.61,28.68,7.69,28.84A.37.37,0,0,0,206.36,200.28Z"/><path class="cls-17" d="M174.46,203c-16.27-.48-16.88-19.34-16.89-19.53v-.33l.34,0c3.47-.32,8.28-.48,14.29-.48,10.21,0,20.51.47,20.61.48h.38l0,.38c-.78,7.29-4.16,19.51-18,19.51Zm-2.27-19.65c-5.79,0-10.46.15-13.88.44a27.1,27.1,0,0,0,2.19,9c2.75,6.13,7.46,9.34,14,9.53,13.57.41,17-11.27,17.89-18.47C190.42,183.75,181.27,183.38,172.19,183.38Z"/><path class="cls-15" d="M149.06,168.63s-2.48-22.83-3.65-30.83l8.06-4.23s2.06,12.45,5.18,34.48c0,0,.71,5.08-3.91,5.77C150.71,174.42,149.48,171.18,149.06,168.63Z"/><path class="cls-17" d="M156.92,167.37H157a.37.37,0,0,0,.29-.42c-1.69-9.5-4.32-31.67-4.34-31.89a.37.37,0,0,0-.4-.32.37.37,0,0,0-.32.4c0,.23,2.66,22.42,4.35,31.94A.36.36,0,0,0,156.92,167.37Z"/><path class="cls-17" d="M150.62,167.37h0A.36.36,0,0,0,151,167c-1.33-12.54-3.57-28.71-3.6-28.87a.35.35,0,0,0-.4-.31.36.36,0,0,0-.31.41c0,.16,2.26,16.32,3.6,28.84A.34.34,0,0,0,150.62,167.37Z"/><path class="cls-18" d="M157,160.28l-8.56.82a1.66,1.66,0,0,1-1.65-1.65l-.31-3.22a1.66,1.66,0,0,1,1.3-1.93l8.57-.82a1.67,1.67,0,0,1,1.65,1.65l.31,3.22A1.67,1.67,0,0,1,157,160.28ZM148,155.73a.34.34,0,0,0-.26.39l.31,3.22a.34.34,0,0,0,.33.33l8.56-.82a.35.35,0,0,0,.27-.39l-.31-3.22a.33.33,0,0,0-.33-.33Z"/><path class="cls-18" d="M152,169.93a2.3,2.3,0,1,1,2.29,2.29A2.3,2.3,0,0,1,152,169.93Z"/><path class="cls-15" d="M200.84,168.63l3-31.1s-5.23-2.84-7.67-3.78a300.67,300.67,0,0,0-4.56,34.41s-.29,5,3.7,5.51C198.67,174.09,200.55,171.84,200.84,168.63Z"/><path class="cls-17" d="M199.26,168.14a.35.35,0,0,0,.35-.33c1.16-11.94,3.27-30.15,3.29-30.33a.37.37,0,0,0-.32-.4.36.36,0,0,0-.4.32c0,.18-2.13,18.39-3.28,30.35a.36.36,0,0,0,.32.39Z"/><path class="cls-17" d="M193.23,167.37a.35.35,0,0,0,.36-.33c.62-7.81,4.11-31.11,4.15-31.35a.36.36,0,1,0-.71-.1c0,.23-3.53,23.56-4.15,31.4a.35.35,0,0,0,.33.38Z"/><path class="cls-18" d="M191.47,158.35l.31-3.22a1.66,1.66,0,0,1,1.64-1.65l8.57.82a1.66,1.66,0,0,1,1.3,1.93l-.3,3.22a1.67,1.67,0,0,1-1.65,1.65l-8.57-.82A1.66,1.66,0,0,1,191.47,158.35Zm1.82-3.44c-.17,0-.31.13-.33.33l-.31,3.22a.34.34,0,0,0,.26.39l8.56.82a.33.33,0,0,0,.33-.33l.31-3.22a.34.34,0,0,0-.26-.39Z"/><path class="cls-18" d="M193.68,169.93a2.3,2.3,0,1,1,2.3,2.29A2.3,2.3,0,0,1,193.68,169.93Z"/><path class="cls-15" d="M158,407.18c1.05-11.85,15.36-115.91,16.59-130.71a424,424,0,0,1,8.3,63.82c.29,5.8-.92,30.43.55,66.89H199c.76-16.83,6.81-42.84,8.66-70.26,2.79-41.47-1-86.14-.66-107H142.27s.33,131.45.18,177.29Z"/><path class="cls-36" d="M174.54,276.47s4.74-3.59,6.27-4.58S176.42,286,176.42,286Z"/><path class="cls-31" d="M181.44,432.17s-.64.24-.65.49.16,5.62.24,6.31c0,0,5.25,2.3,7.69,3.33,0,0,1.69-1.18,2-.47a4.46,4.46,0,0,0,2,2.08s9.07,2.72,14.76,2.81c5.51.09,7.59-2.56,8.35-3.91.38-.67,1-3.4.45-4.65Z"/><path class="cls-37" d="M200.82,401.2s-10.19-.36-19,0l.54,22.38s-.85,2.5-.92,8.59c0,0,5.62,4.2,21.89,9.25,0,0,7,2.43,11.49-.36,0,0,2-1.36,1.47-3.28s-3.48-3.54-5.29-4.84-10.23-6.12-12.62-10.8Z"/><path class="cls-31" d="M139.39,447.18c.3,1.57.75,3.17,1.59,3.8,1.4,1,4.22,1,6.63,1,2.85,0,5.44-.1,6.88-1.19,1-.76,1.22-2.08,1.49-3.8-1.49,1-4.19,1.24-8.39,1.3C143.57,448.39,140.72,447.8,139.39,447.18Z"/><path class="cls-37" d="M159.79,401s-10.43-.52-18.43,0l.86,22.48s-1.56,2.59-2.84,13.41c-1,8.36.12,10.81.12,10.81s8.76,3.2,16.48-.72c0,0,.65-7.57-.43-22.13Z"/><path class="cls-13" d="M226,213.82c-6.13-2.54-12.83-10.88-18.06-30.38-2.27-8.44-2.51-12.28-2.09-23.8.31-8.66,6.7-16.77,6.7-16.77,7.33,5.54,11.76,18.24,11.76,18.24s10.82,33.6,10.73,36a35.56,35.56,0,0,1,6.63,2.15,61.77,61.77,0,0,1-2.85,17.52C234.52,216.85,228.85,215,226,213.82Z"/><path class="cls-7" d="M241.45,200.36c8.63,3.07,8.55,3.82,29.3,10.21a20.85,20.85,0,0,1-2.35,9.82s-11.76-2.08-29.61-3.57C238.5,208.31,239.42,204.08,241.45,200.36Z"/><path class="cls-5" d="M242.23,215.33s-1.26,2.59-1.89,2.56-6.46-.25-7.24-1.44,4-10.56,4.51-18.62a2.7,2.7,0,0,1,2.95-.43c1.87.72,5.27,1.92,5.49,3.59S244.44,209.66,242.23,215.33Z"/><path class="cls-14" d="M234.57,198a.34.34,0,0,0,.05-.35.37.37,0,0,0-.38-.23,20.69,20.69,0,0,0-4,.95.36.36,0,0,0-.18.47.35.35,0,0,0,.47.19,13.6,13.6,0,0,1,2.33-.65,16.55,16.55,0,0,0-3.28,3.58.35.35,0,0,0,.11.49.36.36,0,0,0,.5-.11,17.69,17.69,0,0,1,4.25-4.26A.6.6,0,0,0,234.57,198Z"/><path class="cls-14" d="M208.47,180.25a.36.36,0,0,0,.35-.33l2-21.54a.35.35,0,0,0-.32-.39.35.35,0,0,0-.39.32l-2,21.55a.37.37,0,0,0,.33.39Z"/><path class="cls-7" d="M273.71,211.7s10.56,3.94,16,9.8c2.05,2.2,3.87,3.38,3.45,6.45,0,0-.28,3.82-1.08,4.75a1.94,1.94,0,0,1-1.8-1.48c-.58-1.55-.34-4.43-2.37-5.28-1.65-.69-7.28-3.5-7.33-2.41s6.56,5.45,5.25,7.34c0,0-.33.52-2.47-.46s-9.89-5.75-11.08-7.07a38.38,38.38,0,0,0-5.32-3.89s-2.21-7.39,3.08-9.26Z"/><path class="cls-7" d="M132.86,230a6.05,6.05,0,0,1,2.14-3.75c.09-.06,9.33-5.28,9.43-5.32,1.56-.69,6.08-.29,7.48,0a34.63,34.63,0,0,1,4.55,2.52c.35.23,2.57,2.66,2.65,2.74.63.68-.22,1.75-1.42,1.32a12.52,12.52,0,0,1-2.59-1.73,16.27,16.27,0,0,0-3.42-1.79,35.46,35.46,0,0,0-3.65-.23,20.18,20.18,0,0,1,7.38,3.5,18.58,18.58,0,0,1,2.94,2.79c.91,1.23-1.28,1.75-2.07,1.26-.41-.26-1.1-.89-2-1.52a16.53,16.53,0,0,0-3.45-1.89c-1.07-.32-2.84-.72-4.26-1a33.11,33.11,0,0,1,4,1.51,23.94,23.94,0,0,1,3,1.85,16,16,0,0,1,2.54,2.35c1,1.28-1.19,2-2,1.35-1.49-1.16-1.89-1.51-2.35-1.83a18.21,18.21,0,0,0-3-1.55,15.2,15.2,0,0,0-3.71-.77,12.33,12.33,0,0,1,2.18,1.92,25.22,25.22,0,0,1,2.43,2.81,28.89,28.89,0,0,1,1.66,2.37c.42.78-1.2,1.36-1.91.83s-.86-1.05-1.36-1.62a14.67,14.67,0,0,0-2.4-2.23,10.54,10.54,0,0,0-2.7-1.6c-.57,1.09-1.11,2.18-1.53,3.23-2,4.93-8.27,0-8.27,0C132,233.28,132.86,230,132.86,230Z"/><path class="cls-13" d="M97.05,193c-3.24-7.25,10.09-21.56,28.58-40.46a72.21,72.21,0,0,1,11.6-9.71s3.93,8.62,3.93,16.91c0,9.19-1.41,14.11-1.41,14.11s-20.84,15.52-22.85,16.92c0,0,.63,1.94,2.36,5.76a61,61,0,0,1-15.7,8.29C101,201.47,98.32,195.89,97.05,193Z"/><path class="cls-7" d="M119.26,196.57c2.6,5.73,7.67,15.69,16.84,29.74,0,0,1.23,7.07-2.83,9.17,0,0-18.93-16.51-29.71-30.62A61,61,0,0,0,119.26,196.57Z"/><path class="cls-5" d="M107.56,207.92s-2.58.79-2.93.27-4.43-5.05-3.95-6.39,10.43-4.58,17.15-9.05c0,0,1.23.14,1.78,2.06s2.71,4.1,1.51,5.28S113.42,206.27,107.56,207.92Z"/><path class="cls-14" d="M116.32,191.06a.37.37,0,0,0,.31-.17.36.36,0,0,0,0-.44,19.48,19.48,0,0,0-3.14-2.58.36.36,0,0,0-.49.13.37.37,0,0,0,.14.49A13.19,13.19,0,0,1,115,190a16.41,16.41,0,0,0-4.83-.47.36.36,0,0,0-.33.39.37.37,0,0,0,.39.33,17.76,17.76,0,0,1,6,.82Z"/><ellipse class="cls-38" cx="373.92" cy="456.01" rx="50.4" ry="9.82"/><path class="cls-39" d="M338.13,456s7.44-49.34-6.44-64.71c0,0,14.87,10.41,14.87,46.11,0,0,3-24.79-3-48.1,0,0,11.4,15.87,8.92,50.08,0,0,1-44.13,5.95-55,0,0-4.46,45.12,2.48,58,0,0,4-28.76,3-46.61,0,0,8.43,25.29,3.47,45.62,0,0,11.06-31.24,1.56-57,0,0,15.18,25.78,11,58.5,0,0,7.74-53.05,21.62-54.54,0,0-11.9,13.89-7.44,53.55,0,0,10.19-19.28,7.44-35.92,0,0,4.41,12.62.47,37.91,0,0,12.92-49,33.74-37.91,0,0-20.82-4.73-24.29,50.06Z"/><path class="cls-40" d="M413.93,436.13h0c-8.63,16-75.8,19.88-75.8,19.88h73.39A155.89,155.89,0,0,1,413.93,436.13Z"/><ellipse class="cls-38" cx="94.64" cy="446.62" rx="53.43" ry="10.41"/><path class="cls-39" d="M56.71,446.62s7.88-52.31-6.84-68.6c0,0,15.77,11,15.77,48.88,0,0,3.16-26.28-3.15-51,0,0,12.09,16.83,9.46,53.1,0,0,1-46.79,6.31-58.35,0,0-4.73,47.83,2.63,61.5,0,0,4.2-30.49,3.15-49.41,0,0,8.94,26.81,3.68,48.36,0,0,11.72-33.12,1.66-60.45,0,0,16.09,27.33,11.69,62,0,0,8.2-56.25,22.92-57.83,0,0-12.61,14.72-7.88,56.77,0,0,10.79-20.43,7.88-38.08,0,0,4.68,13.38.5,40.19,0,0,13.69-52,35.77-40.19,0,0-22.08-5-25.76,53.07Z"/><path class="cls-40" d="M137.06,425.54h0c-9.15,17-80.35,21.08-80.35,21.08H134.5A168.43,168.43,0,0,1,137.06,425.54Z"/><ellipse class="cls-38" cx="97.56" cy="456.92" rx="53.43" ry="10.41"/><path class="cls-41" d="M58.7,456.92s-9.07-22.87,0-38.64c0,0-2,14.59,3.55,17.34,0,0,3.15-19.71-2-28.78,0,0,8.28,12.23,8.28,21.69,0,0,.79-13,5.13-16.17,0,0-3.94,22.87,2.36,26.42a23.2,23.2,0,0,0,2.76-15s5.52,8.67,3.16,15.37c0,0,8.67-16.95,2-32.33,0,0,9,13.8,2.54,30,0,0,7.71-7.1,6.53-20.9,0,0,6.3,15,2.76,22.08,0,0,3.15-6.7,2.76-21.29s3.94-22.47,9.85-23.65c0,0-8.28,12.61-3.55,22.47s3.55,23.26,3.55,23.26,7.49-13.41,2.76-24.84c0,0,6.7,16.16,4.34,22.47,0,0,1.38-21.68,9.75-28.38,0,0-8.37,20.89,0,28.78,0,0,5.62-5.52,4.84-16.56,0,0,4.33,15,2.36,24.05,0,0,2.76-28.39,22.47-24.45,0,0-21.29,3.95-15.37,37.07Z"/><path class="cls-42" d="M139.25,438h0c-8,14.24-80.54,18.91-80.54,18.91h80.82C138.12,449.1,138.25,442.92,139.25,438Z"/><path class="cls-38" d="M43.25,456.08C43.25,458,36,459.6,27,459.6s-16.2-1.58-16.2-3.52,7.25-3.51,16.2-3.51S43.25,454.14,43.25,456.08Z"/><path class="cls-43" d="M36,377s-2.38-14,.87-12.94,4.85,7.33,4.85,7.33,4.1-8,7.42-5.43.61,8.73.61,8.73,6.24-1.63,8,.38-11.47,7.7-11.47,7.7Z"/><path class="cls-44" d="M36,376.71s-10.18-5.56-.59-4.4c0,0,2.8-4.78,5.27,1.16,0,0,5.27-2.68,4.12,3.06,0,0,6.42-1.93,3.74,3.71,0,0,2.91,2.55,2.07,3.63s-4.3-1.13-4.3-1.13l-5-.4L35.93,377"/><path class="cls-45" d="M37.6,386.16s-3.91-2.44-1.61-9.45c0,0,7.42.92,10.31,6,0,0-.7,4.08-7.8,3.93Z"/><path class="cls-45" d="M25.11,456.07c-.11-.46-12.31-48.45,11.61-72.86l2.38,3.16c-23.38,23.86-12.73,68.92-12.62,69.37Z"/><path class="cls-45" d="M28.85,400.59s9.66-8.28,17.45-3.42C46.3,397.17,35.82,408.08,28.85,400.59Z"/><path class="cls-45" d="M22.81,414.5s.39-12.73-8.55-13.65C14.26,400.85,9.54,411.46,22.81,414.5Z"/><path class="cls-45" d="M22.81,430.29S30,418.2,38.18,421.75C38.18,421.75,33.85,434.36,22.81,430.29Z"/><path class="cls-38" d="M455.59,469c0,1.83-6.84,3.31-15.29,3.31S425,470.78,425,469s6.84-3.32,15.28-3.32S455.59,467.12,455.59,469Z"/><path class="cls-46" d="M426.8,400.38s-12.74,8.71-14.17-1.31,9.06-10.19,13.92-5.5c0,0-11.31-10.9,0-14.77S435.4,391,435.4,391s5.76-14.4,12.54-8-.48,20.24-10.42,13.69l-10.73,3"/><path class="cls-47" d="M439.05,468.93c0-.24-.46-48.58-4.44-62.63l1.2-.35c4,14.21,4.49,62.71,4.49,63Z"/><path class="cls-48" d="M426.67,400.32s-6,2.48-7-1.14,1.61-7.87,6.81-5.67c0,0-2-5.72,3-7.18,5.32-1.56,5.88,4.69,5.88,4.69s4.63-5.15,7.47-.41c2.25,3.77-2.57,7.86-5.43,6.14Z"/><path class="cls-47" d="M426.67,400.32s1.68,7.65,9.14,5.63c0,0,3.57-1.42,1.63-9.2C437.44,396.75,430,396.5,426.67,400.32Z"/><path class="cls-47" d="M437.46,421.13s4.38-13.88,13.12-12.64C450.58,408.49,447.83,420.88,437.46,421.13Z"/><path class="cls-47" d="M438,434.52s-4-10.18-13.91-9.18C424.11,425.34,426.63,436.75,438,434.52Z"/><path class="cls-47" d="M438.51,447.43s4.57-14.4,12.07-14.15C450.58,433.28,456.37,445.72,438.51,447.43Z"/><ellipse class="cls-38" cx="437.67" cy="401" rx="53.43" ry="10.41"/><path class="cls-39" d="M399.73,401s7.89-52.3-6.83-68.6c0,0,15.77,11,15.77,48.89,0,0,3.15-26.29-3.15-51,0,0,12.09,16.82,9.46,53.09,0,0,1-46.78,6.31-58.35,0,0-4.73,47.84,2.62,61.5,0,0,4.21-30.48,3.16-49.41,0,0,8.94,26.81,3.68,48.36,0,0,11.72-33.11,1.66-60.45,0,0,16.09,27.34,11.68,62,0,0,8.21-56.25,22.93-57.82,0,0-12.62,14.72-7.89,56.77,0,0,10.8-20.44,7.89-38.08,0,0,4.67,13.37.5,40.18,0,0,13.69-52,35.77-40.18,0,0-22.08-5-25.76,53.06Z"/><path class="cls-40" d="M480.09,379.93h0c-9.15,17-80.36,21.07-80.36,21.07h77.8A164.35,164.35,0,0,1,480.09,379.93Z"/><ellipse class="cls-38" cx="440.59" cy="411.3" rx="53.43" ry="10.41"/><path class="cls-41" d="M401.72,411.3s-9.06-22.87,0-38.64c0,0-2,14.59,3.55,17.35,0,0,3.16-19.71-2-28.78,0,0,8.28,12.22,8.28,21.68,0,0,.79-13,5.13-16.16,0,0-3.95,22.86,2.36,26.41a23.27,23.27,0,0,0,2.76-15s5.52,8.67,3.16,15.38c0,0,8.67-17,2-32.33,0,0,9,13.8,2.54,30,0,0,7.71-7.1,6.52-20.89,0,0,6.31,15,2.76,22.07,0,0,3.16-6.7,2.76-21.29s3.95-22.47,9.86-23.65c0,0-8.28,12.62-3.55,22.47s3.55,23.26,3.55,23.26,7.49-13.4,2.76-24.84c0,0,6.7,16.17,4.34,22.48,0,0,1.37-21.69,9.75-28.39,0,0-8.38,20.9,0,28.78,0,0,5.62-5.52,4.83-16.56,0,0,4.34,15,2.37,24.05,0,0,2.76-28.38,22.47-24.44,0,0-21.29,3.95-15.37,37.06Z"/><path class="cls-42" d="M482.28,392.4h0c-8,14.25-80.55,18.91-80.55,18.91h80.83C481.15,403.48,481.28,397.3,482.28,392.4Z"/><path class="cls-38" d="M386.27,410.47c0,1.94-7.25,3.51-16.2,3.51s-16.21-1.57-16.21-3.51,7.26-3.52,16.21-3.52S386.27,408.53,386.27,410.47Z"/><path class="cls-43" d="M379,331.35s-2.37-14,.88-12.93,4.85,7.33,4.85,7.33,4.1-8,7.42-5.44.61,8.73.61,8.73,6.24-1.62,8,.38-11.48,7.7-11.48,7.7Z"/><path class="cls-44" d="M379,331.09s-10.18-5.56-.6-4.4c0,0,2.8-4.78,5.27,1.16,0,0,5.27-2.68,4.12,3.07,0,0,6.43-1.94,3.74,3.7,0,0,2.92,2.56,2.08,3.63s-4.31-1.13-4.31-1.13l-4.95-.39L379,331.36"/><path class="cls-45" d="M380.63,340.54s-3.92-2.44-1.61-9.45c0,0,7.42.93,10.3,6,0,0-.69,4.08-7.79,3.94Z"/><path class="cls-45" d="M368.14,410.45C368,410,355.83,362,379.75,337.59l2.37,3.16c-23.37,23.86-12.73,68.92-12.61,69.37Z"/><path class="cls-45" d="M371.88,355s9.65-8.28,17.44-3.41C389.32,351.56,378.84,362.46,371.88,355Z"/><path class="cls-45" d="M365.84,368.88s.39-12.72-8.55-13.64C357.29,355.24,352.56,365.84,365.84,368.88Z"/><path class="cls-45" d="M365.84,384.67s7.22-12.09,15.37-8.54C381.21,376.13,376.88,388.75,365.84,384.67Z"/><path class="cls-49" d="M417.23,213.58c-.67,2.25-1.36,4.22-2,5.91-2.92,7.38-5.54,9.76-5.54,9.76l-10.4-10.77s-6.61,2-9-.28-6.37-10.36-3.91-15,9.64-13,12.46-11.45c.95.55,2.52,2.42,4.17,4.67,3.22,4.41,6.78,10.22,6.78,10.22Z"/><path class="cls-50" d="M576.87,152.61c-14.39,15.7-35,16.26-35,16.26s-.65-2.46-1.66-6.24c-2.14-7.89-5.76-21.53-8-30.39-3.35-13.07-1.7-16.65,1.88-19.43,9.19-7.13,30.75,22.14,39.24,34.51C575.55,150.54,576.87,152.61,576.87,152.61Z"/><path class="cls-51" d="M576.87,152.61c-14.39,15.7-35,16.26-35,16.26s-.65-2.46-1.66-6.24c8.2-1.68,23.8-5.64,33.07-15.31C575.55,150.54,576.87,152.61,576.87,152.61Z"/><path class="cls-52" d="M332.46,236.9,534.2,116a3.87,3.87,0,0,1,5.15,1.09h0a3.87,3.87,0,0,1-1.16,5.55L336.9,244.27a4.3,4.3,0,0,1-6.11-1.83h0A4.3,4.3,0,0,1,332.46,236.9Z"/><path class="cls-53" d="M417.23,213.58c-.67,2.25-1.36,4.22-2,5.91-2.75-2.9-6.48-6.91-7.64-8.82-1.43-2.3-3.53-10.14-4.57-14.24,3.22,4.41,6.78,10.22,6.78,10.22Z"/><path class="cls-53" d="M381.91,202.67A6,6,0,0,0,382,208c1.29,2.75,2.27,4.3,3.18,4.65s2.52.42,2.64-1.68a1.86,1.86,0,0,0,2.65-.08,2.6,2.6,0,0,0,.89-2.79,2.31,2.31,0,0,0,3.21-.19,3.8,3.8,0,0,0,1-3.44s2,1.57,3.57.35.69-3.42-.71-6.65.33-5.26-.31-6.59-4.48-2.16-5.66,1a4,4,0,0,0-4.94,3.92s-4,1.29-4.1,4.35Z"/><path class="cls-53" d="M409.45,209.45a1.06,1.06,0,0,1-.16.32c-1,1.78-5.57,5.77-8.64,3.76-1.26-.82-1.49-2.68-1.28-4.65a23.82,23.82,0,0,1,1.05-4.73c.35-1.13.66-1.89.66-1.89s-6,2.77-8.74,1.69a1.35,1.35,0,0,1-.35-2.28c.48-.41,1.12-.94,1.85-1.52,2-1.58,4.51-3.45,5.93-3.83,2.57-.71,6.47.43,9,1.67S410,207.91,409.45,209.45Z"/><path class="cls-49" d="M401.08,202.26s-6,2.77-8.74,1.69a1.35,1.35,0,0,1-.35-2.28c.48-.41,1.12-.94,1.85-1.52-.06.86,0,3.14,3.16,1.64a14,14,0,0,1,6.18-1.7,20.48,20.48,0,0,0-2.76,4.06C400.77,203,401.08,202.26,401.08,202.26Z"/><path class="cls-49" d="M409.29,209.77c-1,1.78-5.57,5.77-8.64,3.76-1.26-.82-1.49-2.68-1.28-4.65C400.6,211.13,405.86,211.68,409.29,209.77Z"/><path class="cls-54" d="M459.21,217c-6.09,12.15-14.62,39.56-23.37,38.86s-30.28-28.16-30.28-28.16a15.07,15.07,0,0,1,2.49-9.3c3.82-5.44,10.6-6.29,10.6-6.29l12.62,10.59a164.51,164.51,0,0,0,9.82-27.13c4.06-15.31,10.05-20,10.05-20l2,1,1,.5C461.7,182.68,465.3,204.87,459.21,217Z"/><path class="cls-55" d="M467,441.54a92.29,92.29,0,0,1,2.72,22.83s-61,3.3-61.58,2.1a7.33,7.33,0,0,1,1.57-6.88,8.3,8.3,0,0,1,4.13-2.43c6.47-1.77,29.9-12.14,31.46-16.26a1,1,0,0,0,.08-.26c.61-3.91,2.1-29.43,2.1-30.65l23.73-.59Z"/><path class="cls-56" d="M443,449.43c-6.62,5.06-21.28,10.51-27.9,10.37-2.48,0-4.21-.12-5.38-.21a8.3,8.3,0,0,1,4.13-2.43c6.47-1.77,29.9-12.14,31.46-16.26l.17.21S449.66,444.36,443,449.43Z"/><path class="cls-57" d="M492.57,268l-.22,1.56-5.69,40.65s-5.44,43.55-6.34,65.79.45,24.51-6.36,35.85-27.22,5.89-31.77-.91c-1.56-2.33-2.09-5-2.09-8.56,0-6.78,2.11-16.61,3-32.74.95-17.12,4.79-60.21,6.55-85,.74-10.69,1.12-18,.71-18.4l41,1.76Z"/><path class="cls-58" d="M447.45,359.18A31.43,31.43,0,0,0,459.14,361c6.49-.26-3.9,10.91-7,12.46S442.52,356.32,447.45,359.18Z"/><path class="cls-58" d="M492.35,269.51l-5.69,40.65s-5.44,43.55-6.34,65.79.45,24.51-6.36,35.85-27.22,5.89-31.77-.91c-1.56-2.33-2.09-5-2.09-8.56,25.62,1.18,31.21-11.08,30.47-38.47-.64-23.5,4.69-37.42,5.39-39.22-.08.14-.19.36-.33.65-2.34,4.68-17.53,28-14,8.18s21.81-37,9.35-40.12c-8.36-2.09-16.71-6.28-21.3-8.8.74-10.69,1.12-18,.71-18.4l41,1.76C491.68,268.44,492,269,492.35,269.51Z"/><path class="cls-55" d="M521.12,411.2l9.32,42.06s-3.61,16.22-2.71,22.53,12,8.41,18.93,7.51,10.81-6.61,10.81-8.41S548.76,453,548.76,453s-1.5-37.85-3-46.57S521.12,411.2,521.12,411.2Z"/><path class="cls-56" d="M533.41,454s.26,12.33.65,17.14,15.06,1.81,16.75-2.21-2.08-11.56-3.51-13.9S544.71,455.26,533.41,454Z"/><path class="cls-57" d="M547.93,402.71v.19c-.13,19.32-20,16.6-27.69,12.53s-12.7-32.67-18.61-57.18c-5.73-23.84-23.94-86.39-24.47-88L518,262.52s1.43,4,3.36,9.53c.88,2.54,1.84,5.41,2.83,8.38,2.46,7.51,5,15.71,6.07,20.94.19.91.34,1.73.44,2.44C532.05,313.79,547.93,383.21,547.93,402.71Z"/><path class="cls-58" d="M530.24,301.37l-2.8-.23a12.22,12.22,0,0,0-1.44,2.21c-.39.91-4.14,1.17-5.31.39s-1.7-5.45-1.7-5.45-3.11-.78-2.46-3.65c.58-2.52,6.31-12,7.64-14.21C526.63,287.94,529.15,296.14,530.24,301.37Z"/><path class="cls-58" d="M547.93,402.9c-.13,19.32-20,16.6-27.69,12.53s-12.7-32.67-18.61-57.18c-5.73-23.84-23.94-86.39-24.47-88L518,262.52s1.43,4,3.36,9.53a65.09,65.09,0,0,1-26.11,10.78c-20.77,3.9,11.44,40.78,16.36,50.13s3.38,5.19-8.3-2.6S514.71,362,516.8,367.49s-4.94-.78-6.5-1.56,3.89,19.74,20.77,14.55,7.27,7-1.3,9.6C522.92,392.15,537,407.17,547.93,402.9Z"/><path class="cls-54" d="M519.32,269.9c-4.53,3.24-57.2,5.83-67.53,1.62s-3.88-33.28-4.21-50.08,0-32.62,3.56-45.87c0,0,20.67-15.52,31-18.09s36.18,14.21,37.8,15.83c.23.22.45,1.72.65,4.13,1.06,12.39,1.84,49.21,2.74,66.35.16,3.07.32,5.5.49,7.05C525.13,262.8,523.84,266.68,519.32,269.9Z"/><path class="cls-59" d="M523.35,243.79a93.41,93.41,0,0,1-9.28-19.65c-7.54-23.11-1.19-47,3.11-47.52a10.71,10.71,0,0,1,3.43.82C521.67,189.83,522.45,226.65,523.35,243.79Z"/><path class="cls-53" d="M546.7,261.13l-1.39,7.32-1.29,6.8c-.91,6.51-.95,17.51-1.64,19.39a.45.45,0,0,1-.11.22c-.81.95-2.84.81-2.84.81a8,8,0,0,1-2.41,2.15,5,5,0,0,1-2.82-.26s-1.75,1.6-3.1,1.48-3.63-2.56-3.63-2.56a8,8,0,0,1-1.61,2.15c-.93.81-4.17.27-5.11-.54s.25-5,.47-5.77a.41.41,0,0,0,0-.12L518,290.27a25,25,0,0,1,.17-6h0a12.81,12.81,0,0,1,1.12-3.67c1.93-3.88,11.62-7.76,11.62-7.76l1.5-6.88,1.73-8Z"/><path class="cls-49" d="M522.56,285.51c-.14.69-1.32,6.28-1.31,6.69L518,290.27a25,25,0,0,1,.17-6c.39,1.23,1.07,2.95,2,3.52C521.45,288.6,522.39,286,522.56,285.51Z"/><path class="cls-49" d="M542.38,294.64a.45.45,0,0,1-.11.22c-.81.95-2.84.81-2.84.81a8,8,0,0,1-2.41,2.15,5,5,0,0,1-2.82-.26s-1.75,1.6-3.1,1.48-3.63-2.56-3.63-2.56l.87-2.29s2.67,1.62,4.36,1.3a6.93,6.93,0,0,0,2.71-1.1,4,4,0,0,0,4.1-.06A6.52,6.52,0,0,0,542.38,294.64Z"/><path class="cls-49" d="M546.7,261.13l-1.39,7.32c-4.88.14-10.14-1.51-12.87-2.52l1.73-8Z"/><path class="cls-54" d="M548.71,262.48c-9.37,6.14-20-1.94-20-1.94l.33-2.34,3.55-25.44a118.39,118.39,0,0,1-8.3-9.57,132.5,132.5,0,0,1-10.11-14.66c-8.4-14.23,2.24-37.43,5.81-35.22,6.78,4.19,35.54,46.2,35.87,51.37S548.71,262.48,548.71,262.48Z"/><path class="cls-59" d="M545.36,233c4.86-1.94.18,5.85-6.05,6.92-4.6.78-8.54,12.3-10.3,18.31l3.55-25.44a118.39,118.39,0,0,1-8.3-9.57,30.26,30.26,0,0,0,7.56,4.42,19.49,19.49,0,0,0,14.91-.57c4.17-1.95,2.71,4-4.88,4.76S540.49,234.92,545.36,233Z"/><path class="cls-57" d="M459.55,169.61a844.6,844.6,0,0,0-1.7,104.49l6.8.68s-4.08-75.56.68-108.91Z"/><path class="cls-57" d="M502.73,161.81s-8.37,44.62-2.37,112.29l6.89-.77s-3.46-74.82,1.31-108.17Z"/><path class="cls-53" d="M490.93,161.6s-6.82,9.87-11.83,9.39-5-6.46-5-6.46c.07-1,.11-1.87.13-2.73a30.81,30.81,0,0,0-1.11-9.85c6.09-8.41,18.54-10.86,18.54-10.86-.42,2.92-.68,5.6-.84,8A68.47,68.47,0,0,0,490.93,161.6Z"/><path class="cls-49" d="M491.66,141.09c-.42,2.92-.68,5.6-.84,8-1.84,5.43-6.25,11.32-16.59,12.75a30.81,30.81,0,0,0-1.11-9.85C479.21,143.54,491.66,141.09,491.66,141.09Z"/><path class="cls-60" d="M462.89,105.78a109.94,109.94,0,0,0,5.21-11.51s7.39-8.11,23.27-.72,14.9,19.5,14.9,19.5a52.59,52.59,0,0,0-6.67,12.48S475.62,123,462.89,105.78Z"/><path class="cls-56" d="M449.08,108.93c-3.39,8.24,13.45,11.63,24.72,15.39s27.86,18.29,31.62,5.57-17.08-28.11-35.5-28.11S449.08,108.93,449.08,108.93Z"/><path class="cls-53" d="M491.46,129.75c-1.07,12.2-2.77,23.53-14.76,24.38s-15.83-3.21-15.39-11.76c.3-6-1-11.23-1.7-15.75a28.58,28.58,0,0,1-.45-5.43c.22-5.56,3.8-9.59,12-10a22.81,22.81,0,0,1,11.16,2.08C488.27,116.11,492.16,121.85,491.46,129.75Z"/><path class="cls-49" d="M482.3,113.22a11.77,11.77,0,0,1-1,3.86c-5.44,12.33-18.45,10.27-21.68,9.54a28.58,28.58,0,0,1-.45-5.43c.22-5.56,3.8-9.59,12-10A22.81,22.81,0,0,1,482.3,113.22Z"/><path class="cls-61" d="M478.2,110.23a0,0,0,0,0,0,0C472.76,104.48,455,106,453.74,115c0,.22-.05.44-.06.67-.5,9.68,6.35,9.43,15.55,8.57s12.35-7.35,12.35-7.35.61,8,2.09,10.15a20.06,20.06,0,0,0,2.1,2.54c1.53,1.64,3.15,3.1,3.15,3.1l-.3,3.42-.06.76c-2.33,5.39-9.18,7-9.18,7a32.16,32.16,0,0,0-6.12-3.8,10.12,10.12,0,0,0-5.26-1,9,9,0,0,0-4.52,1.11,8.16,8.16,0,0,0-4.05,4.66,18.25,18.25,0,0,0-1.14,3.89c-1.12,7,4.44,9.8,17.42,9a18.53,18.53,0,0,0,4.36-.78,14.33,14.33,0,0,0,5-2.72c5.78-4.94,5.72-13.28,5.72-13.28,6-6.23,6.36-17.75,6.36-17.75C491,113.11,479,110.38,478.2,110.23Zm-15,34.87a6.49,6.49,0,0,0,4.79-3.32s.43,2.13,5.14,2.58a4.41,4.41,0,0,1,3.18,1.44c1.29,1.63.09,4-3.06,3.95-4.53-.12-3.8-3.06-3.8-3.06l-2,.1s0,3-2.56,2.34S463.21,145.1,463.21,145.1Z"/><path class="cls-62" d="M483,153.18a30.24,30.24,0,0,1-2.9,3.74,18.53,18.53,0,0,1-4.36.78c-13,.84-18.54-2-17.42-9,.19,1.34.64,3.59,1.57,4.5a4.59,4.59,0,0,0,3.15,1.31c-.08,0-.25-.23-.36-1.76,0,0,1,1.76,4.29,2.54a7.2,7.2,0,0,1-.72-3.5,12.17,12.17,0,0,0,5.06,3.69l-.2-2a6,6,0,0,0,3.44,2.15c2.23.49,4.86-1.9,5.11-2.12a3.49,3.49,0,0,1-.95,1.86S480.18,155.25,483,153.18Z"/><path class="cls-62" d="M478.45,147.09a6.33,6.33,0,0,0-2.13-1.29,4.41,4.41,0,0,0-3.18-1.44c-4.71-.45-5.14-2.58-5.14-2.58a6.49,6.49,0,0,1-4.79,3.32s-.47.26-2-.55a4,4,0,0,0,2.52-1.11l-.31.53s3.3-1.1,4.08-3.55l.27.69.15-1.2a5.73,5.73,0,0,0,4.55,2.76,4.68,4.68,0,0,1-1.14.23s2.17.45,4.44,1.14A4.08,4.08,0,0,1,478.45,147.09Z"/><path class="cls-62" d="M497.12,123.17s-.35,11.52-6.36,17.75c0,0,.06,8.34-5.72,13.28a19.31,19.31,0,0,0,2.54-6.6,15,15,0,0,1-3.68,3.18,14.35,14.35,0,0,0,2.37-2.79c1.76-2.4,2.47-6.62,2.47-6.62l-1,.72a14.26,14.26,0,0,0,.91-6,18.76,18.76,0,0,0-.32-3.15,20.58,20.58,0,0,1-2.53-3.37,19.6,19.6,0,0,1-2.8-7.72,23.61,23.61,0,0,0,5.64,6.74c-3.57-4.41-4.8-10.9-4.8-10.9,2.93,6.76,7.28,9.41,7.28,9.41a28.87,28.87,0,0,1-3.65-7.4c2,2.13,5.05,5.06,5.42,5.42a36.57,36.57,0,0,0-3.14-5.61c-2.65-4.21-11-9-11.52-9.33C479,110.38,491,113.11,497.12,123.17Z"/><path class="cls-62" d="M481.58,116.93s-3.18,6.49-12.35,7.35-16.05,1.11-15.55-8.57c0-.23,0-.45.06-.67.78,2,2.16,4.55,4.3,5.75,3.69,2.07,11.54-.78,13.49-6.3,0,0-.25,5.07-4.08,7.2,0,0,7.67-1,9.93-7.85a8.33,8.33,0,0,1-3,6.82,11.79,11.79,0,0,0,7.65-7.79A15.32,15.32,0,0,1,481.58,116.93Z"/><path class="cls-53" d="M489.33,135.65a5.07,5.07,0,0,1,7.18-4.46l.13.07c4.53,2.32-.23,13.26-8.07,10.81Z"/><path class="cls-63" d="M492.45,134.33a10,10,0,0,0-.39,2.43,3.11,3.11,0,0,1-1.54,2.18s.64,1.92,4.15-.73,2.43-5,.25-5.21S492.45,134.33,492.45,134.33Z"/><path class="cls-64" d="M494.92,133s-2-.51-3.41,2.14c0,0,.85.72.08,2.13a22.24,22.24,0,0,1-1.36,2.22s2.22-1.39,2.51-2.82c.25-1.22-.25-1.57-.25-1.57S493.26,133.13,494.92,133Z"/><path class="cls-62" d="M461.91,126.65a7.91,7.91,0,0,0-3.36,1.39,13.7,13.7,0,0,0-1.3,1.07c-.56.53.12.42.49.27a19.64,19.64,0,0,1,1.83-.77,13.11,13.11,0,0,1,2-.46,13.94,13.94,0,0,1,4.13,0c.11,0,.62,0,.55-.23-.24-.82-.64-1-1.45-1.23a6.68,6.68,0,0,0-2.4-.12Z"/><path class="cls-62" d="M476.72,126.65a7.91,7.91,0,0,1,3.36,1.39,13.7,13.7,0,0,1,1.3,1.07c.56.53-.12.42-.49.27a19.64,19.64,0,0,0-1.83-.77,13.11,13.11,0,0,0-2-.46,13.94,13.94,0,0,0-4.13,0c-.11,0-.62,0-.55-.23.24-.82.64-1,1.45-1.23a6.68,6.68,0,0,1,2.4-.12Z"/><path class="cls-24" d="M467.08,138.91c-.92-.31-1.8-.81-1.49-1.94a12.74,12.74,0,0,1,.56-1.32,9.54,9.54,0,0,0,.5-1.48,6.73,6.73,0,0,0-.8-5.41c-.14-.2-.81-.11-.66.1a6.83,6.83,0,0,1,.48,6.26c-.32.84-1.06,1.82-.77,2.76.24.79,1.12,1.12,1.83,1.35C467,139.32,467.5,139.05,467.08,138.91Z"/><path class="cls-24" d="M471.33,144.65a4.47,4.47,0,0,1-2.8,1.14,3.61,3.61,0,0,1-2.89-1c-.11-.13-.59,0-.44.13a4.24,4.24,0,0,0,3.33,1.17,5.17,5.17,0,0,0,3.24-1.28C471.94,144.62,471.46,144.53,471.33,144.65Z"/><path class="cls-21" d="M463.75,131.49a1.3,1.3,0,0,0-.28-.59,1.07,1.07,0,0,0-.36-.3,1,1,0,0,0-1.28.23,1.06,1.06,0,0,0-.15.41A1.87,1.87,0,0,0,462,133a.75.75,0,0,0,.4.24,1.13,1.13,0,0,0,.42.11.89.89,0,0,0,.91-.7A2.93,2.93,0,0,0,463.75,131.49Z"/><path class="cls-21" d="M476.86,131.49a1.3,1.3,0,0,0-.28-.59,1.07,1.07,0,0,0-.36-.3,1,1,0,0,0-1.28.23,1.06,1.06,0,0,0-.15.41,1.87,1.87,0,0,0,.27,1.74.71.71,0,0,0,.4.24,1.08,1.08,0,0,0,.42.11.89.89,0,0,0,.91-.7A2.93,2.93,0,0,0,476.86,131.49Z"/><ellipse class="cls-38" cx="375.4" cy="465.72" rx="50.4" ry="9.82"/><path class="cls-41" d="M338.74,465.72s-8.56-21.57,0-36.45c0,0-1.86,13.76,3.34,16.37,0,0,3-18.6-1.86-27.15,0,0,7.81,11.53,7.81,20.45,0,0,.75-12.27,4.84-15.25,0,0-3.72,21.57,2.23,24.92a21.92,21.92,0,0,0,2.6-14.13s5.21,8.18,3,14.5c0,0,8.18-16,1.86-30.49,0,0,8.51,13,2.39,28.26,0,0,7.27-6.69,6.16-19.71,0,0,6,14.13,2.6,20.83,0,0,3-6.33,2.6-20.08s3.72-21.2,9.3-22.32c0,0-7.81,11.9-3.35,21.2s3.35,21.94,3.35,21.94,7.07-12.64,2.6-23.43c0,0,6.33,15.25,4.1,21.2,0,0,1.29-20.45,9.2-26.78,0,0-7.91,19.71,0,27.15,0,0,5.3-5.21,4.55-15.62,0,0,4.1,14.13,2.24,22.69,0,0,2.6-26.78,21.19-23.06,0,0-20.08,3.73-14.5,35Z"/><path class="cls-42" d="M414.72,447.89h0c-7.58,13.43-76,17.83-76,17.83H415C413.65,458.34,413.78,452.51,414.72,447.89Z"/></g></g></svg>