<svg xmlns="http://www.w3.org/2000/svg" xmlns:xlink="http://www.w3.org/1999/xlink" viewBox="0 0 876.93 416.3"><defs><style>.cls-1{mask:url(#mask);filter:url(#luminosity-noclip-15);}.cls-10,.cls-12,.cls-14,.cls-16,.cls-18,.cls-2,.cls-20,.cls-22,.cls-24,.cls-26,.cls-28,.cls-35,.cls-4,.cls-47,.cls-49,.cls-51,.cls-53,.cls-56,.cls-58,.cls-6,.cls-61,.cls-63,.cls-66,.cls-68,.cls-71,.cls-73,.cls-8,.cls-93,.cls-98{mix-blend-mode:multiply;}.cls-2{fill:url(#radial-gradient);}.cls-3{mask:url(#mask-2);filter:url(#luminosity-noclip-20);}.cls-4{fill:url(#radial-gradient-2);}.cls-5{mask:url(#mask-3);filter:url(#luminosity-noclip-21);}.cls-6{fill:url(#radial-gradient-3);}.cls-7{mask:url(#mask-4);filter:url(#luminosity-noclip-22);}.cls-8{fill:url(#radial-gradient-4);}.cls-9{mask:url(#mask-5);filter:url(#luminosity-noclip-23);}.cls-10{fill:url(#radial-gradient-5);}.cls-11{mask:url(#mask-6);filter:url(#luminosity-noclip-24);}.cls-12{fill:url(#radial-gradient-6);}.cls-13{mask:url(#mask-7);filter:url(#luminosity-noclip-16);}.cls-14{fill:url(#radial-gradient-7);}.cls-15{mask:url(#mask-8);filter:url(#luminosity-noclip-25);}.cls-16{fill:url(#radial-gradient-8);}.cls-17{mask:url(#mask-9);filter:url(#luminosity-noclip-26);}.cls-18{fill:url(#radial-gradient-9);}.cls-19{mask:url(#mask-10);filter:url(#luminosity-noclip-27);}.cls-20{fill:url(#radial-gradient-10);}.cls-21{mask:url(#mask-11);filter:url(#luminosity-noclip-28);}.cls-22{fill:url(#radial-gradient-11);}.cls-23{mask:url(#mask-12);filter:url(#luminosity-noclip-17);}.cls-24{fill:url(#radial-gradient-12);}.cls-25{mask:url(#mask-13);filter:url(#luminosity-noclip-18);}.cls-26{fill:url(#radial-gradient-13);}.cls-27{mask:url(#mask-14);filter:url(#luminosity-noclip-19);}.cls-28{fill:url(#radial-gradient-14);}.cls-29{isolation:isolate;}.cls-30{fill:#662f15;}.cls-31{fill:#4d2411;}.cls-32{fill:#eee4b5;}.cls-33,.cls-36,.cls-75{fill:#fff;}.cls-34{fill:#eeca2f;}.cls-35{opacity:0.4;}.cls-36{font-size:10.07px;}.cls-36,.cls-75,.cls-86{font-family:Calibri-Bold, Calibri;font-weight:700;}.cls-37{letter-spacing:-0.01em;}.cls-38{letter-spacing:-0.01em;}.cls-39{letter-spacing:-0.01em;}.cls-40{letter-spacing:-0.01em;}.cls-41{letter-spacing:-0.01em;}.cls-42{letter-spacing:-0.01em;}.cls-43{letter-spacing:-0.01em;}.cls-44{letter-spacing:-0.01em;}.cls-45{letter-spacing:-0.01em;}.cls-46{mask:url(#mask-15);}.cls-47{fill:url(#Degradado_sin_nombre_153);}.cls-48{mask:url(#mask-16);}.cls-49{fill:url(#Degradado_sin_nombre_153-2);}.cls-50{mask:url(#mask-17);}.cls-51{fill:url(#Degradado_sin_nombre_153-3);}.cls-52{mask:url(#mask-18);}.cls-53{fill:url(#Degradado_sin_nombre_151);}.cls-54{fill:#00cd92;}.cls-55{mask:url(#mask-19);}.cls-56{fill:url(#Degradado_sin_nombre_153-4);}.cls-57{mask:url(#mask-20);}.cls-58{fill:url(#Degradado_sin_nombre_151-2);}.cls-59{fill:#00be80;}.cls-60{mask:url(#mask-21);}.cls-61{fill:url(#Degradado_sin_nombre_153-5);}.cls-62{mask:url(#mask-22);}.cls-63{fill:url(#Degradado_sin_nombre_151-3);}.cls-64{fill:#00a993;}.cls-65{mask:url(#mask-23);}.cls-66{fill:url(#Degradado_sin_nombre_153-6);}.cls-67{mask:url(#mask-24);}.cls-68{fill:url(#Degradado_sin_nombre_151-4);}.cls-69{fill:#009794;}.cls-70{mask:url(#mask-25);}.cls-71{fill:url(#Degradado_sin_nombre_153-7);}.cls-72{mask:url(#mask-26);}.cls-73{fill:url(#Degradado_sin_nombre_151-5);}.cls-74{fill:#008180;}.cls-75{font-size:12.71px;}.cls-76{letter-spacing:-0.01em;}.cls-77{letter-spacing:-0.01em;}.cls-78{letter-spacing:-0.01em;}.cls-79{letter-spacing:-0.01em;}.cls-80{letter-spacing:0em;}.cls-81{letter-spacing:-0.01em;}.cls-82{letter-spacing:-0.01em;}.cls-83{letter-spacing:-0.01em;}.cls-84{letter-spacing:-0.02em;}.cls-85{fill:#bdd4cb;}.cls-86{font-size:9.82px;fill:#225d5c;}.cls-87{letter-spacing:-0.01em;}.cls-88{letter-spacing:-0.01em;}.cls-89{letter-spacing:-0.02em;}.cls-90{letter-spacing:-0.01em;}.cls-91{letter-spacing:0em;}.cls-92{mask:url(#mask-27);}.cls-93{fill:url(#Degradado_sin_nombre_153-8);}.cls-94{letter-spacing:-0.01em;}.cls-95{letter-spacing:-0.01em;}.cls-96{letter-spacing:-0.01em;}.cls-97{mask:url(#mask-28);}.cls-98{fill:url(#Degradado_sin_nombre_153-9);}.cls-99{filter:url(#luminosity-noclip-14);}.cls-100{filter:url(#luminosity-noclip-13);}.cls-101{filter:url(#luminosity-noclip-12);}.cls-102{filter:url(#luminosity-noclip-11);}.cls-103{filter:url(#luminosity-noclip-10);}.cls-104{filter:url(#luminosity-noclip-9);}.cls-105{filter:url(#luminosity-noclip-8);}.cls-106{filter:url(#luminosity-noclip-7);}.cls-107{filter:url(#luminosity-noclip-6);}.cls-108{filter:url(#luminosity-noclip-5);}.cls-109{filter:url(#luminosity-noclip-4);}.cls-110{filter:url(#luminosity-noclip-3);}.cls-111{filter:url(#luminosity-noclip-2);}.cls-112{filter:url(#luminosity-noclip);}</style><filter id="luminosity-noclip" x="155.48" y="-8574.01" width="33.63" height="32766" filterUnits="userSpaceOnUse" color-interpolation-filters="sRGB"><feFlood flood-color="#fff" result="bg"/><feBlend in="SourceGraphic" in2="bg"/></filter><mask id="mask" x="155.48" y="-8574.01" width="33.63" height="32766" maskUnits="userSpaceOnUse"><g class="cls-112"/></mask><radialGradient id="radial-gradient" cx="-1309.64" cy="-1427.06" r="10.46" gradientTransform="matrix(1.13, 0.22, -1.14, 0.21, 26.92, 684.53)" gradientUnits="userSpaceOnUse"><stop offset="0.5" stop-color="#a6a6a6"/><stop offset="0.6" stop-color="#a3a3a3"/><stop offset="0.67" stop-color="#999"/><stop offset="0.75" stop-color="#888"/><stop offset="0.81" stop-color="#707070"/><stop offset="0.88" stop-color="#515151"/><stop offset="0.94" stop-color="#2c2c2c"/><stop offset="1"/></radialGradient><filter id="luminosity-noclip-2" x="270.96" y="-8574.01" width="92.55" height="32766" filterUnits="userSpaceOnUse" color-interpolation-filters="sRGB"><feFlood flood-color="#fff" result="bg"/><feBlend in="SourceGraphic" in2="bg"/></filter><mask id="mask-2" x="270.96" y="-8574.01" width="92.55" height="32766" maskUnits="userSpaceOnUse"><g class="cls-111"/></mask><radialGradient id="radial-gradient-2" cx="746.56" cy="804.91" r="35.04" gradientTransform="matrix(-0.92, 0.25, 0.95, 0.13, 241.95, -129.4)" xlink:href="#radial-gradient"/><filter id="luminosity-noclip-3" x="405.71" y="-8574.01" width="92.34" height="32766" filterUnits="userSpaceOnUse" color-interpolation-filters="sRGB"><feFlood flood-color="#fff" result="bg"/><feBlend in="SourceGraphic" in2="bg"/></filter><mask id="mask-3" x="405.71" y="-8574.01" width="92.34" height="32766" maskUnits="userSpaceOnUse"><g class="cls-110"/></mask><radialGradient id="radial-gradient-3" cx="825.88" cy="604.37" r="35.04" gradientTransform="matrix(0.91, 0.28, -0.95, 0.1, 272.68, -128.95)" xlink:href="#radial-gradient"/><filter id="luminosity-noclip-4" x="388.12" y="-8574.01" width="92.55" height="32766" filterUnits="userSpaceOnUse" color-interpolation-filters="sRGB"><feFlood flood-color="#fff" result="bg"/><feBlend in="SourceGraphic" in2="bg"/></filter><mask id="mask-4" x="388.12" y="-8574.01" width="92.55" height="32766" maskUnits="userSpaceOnUse"><g class="cls-109"/></mask><radialGradient id="radial-gradient-4" cx="704.71" cy="887.94" r="35.04" gradientTransform="matrix(-0.92, 0.25, 0.95, 0.13, 241.95, -129.4)" xlink:href="#radial-gradient"/><filter id="luminosity-noclip-5" x="521.1" y="-8574.01" width="92.34" height="32766" filterUnits="userSpaceOnUse" color-interpolation-filters="sRGB"><feFlood flood-color="#fff" result="bg"/><feBlend in="SourceGraphic" in2="bg"/></filter><mask id="mask-5" x="521.1" y="-8574.01" width="92.34" height="32766" maskUnits="userSpaceOnUse"><g class="cls-108"/></mask><radialGradient id="radial-gradient-5" cx="858.22" cy="514.02" r="35.04" gradientTransform="matrix(0.91, 0.28, -0.95, 0.1, 272.68, -128.95)" xlink:href="#radial-gradient"/><filter id="luminosity-noclip-6" x="503.51" y="-8574.01" width="92.55" height="32766" filterUnits="userSpaceOnUse" color-interpolation-filters="sRGB"><feFlood flood-color="#fff" result="bg"/><feBlend in="SourceGraphic" in2="bg"/></filter><mask id="mask-6" x="503.51" y="-8574.01" width="92.55" height="32766" maskUnits="userSpaceOnUse"><g class="cls-107"/></mask><radialGradient id="radial-gradient-6" cx="663.5" cy="969.71" r="35.04" gradientTransform="matrix(-0.92, 0.25, 0.95, 0.13, 241.95, -129.4)" xlink:href="#radial-gradient"/><filter id="luminosity-noclip-7" x="256.88" y="-8574.01" width="33.63" height="32766" filterUnits="userSpaceOnUse" color-interpolation-filters="sRGB"><feFlood flood-color="#fff" result="bg"/><feBlend in="SourceGraphic" in2="bg"/></filter><mask id="mask-7" x="256.88" y="-8574.01" width="33.63" height="32766" maskUnits="userSpaceOnUse"><g class="cls-106"/></mask><radialGradient id="radial-gradient-7" cx="-1265.87" cy="-1472.53" r="10.46" xlink:href="#radial-gradient"/><filter id="luminosity-noclip-8" x="643.58" y="-8574.01" width="92.34" height="32766" filterUnits="userSpaceOnUse" color-interpolation-filters="sRGB"><feFlood flood-color="#fff" result="bg"/><feBlend in="SourceGraphic" in2="bg"/></filter><mask id="mask-8" x="643.58" y="-8574.01" width="92.34" height="32766" maskUnits="userSpaceOnUse"><g class="cls-105"/></mask><radialGradient id="radial-gradient-8" cx="892.54" cy="418.12" r="35.04" gradientTransform="matrix(0.91, 0.28, -0.95, 0.1, 272.68, -128.95)" xlink:href="#radial-gradient"/><filter id="luminosity-noclip-9" x="626" y="-8574.01" width="92.55" height="32766" filterUnits="userSpaceOnUse" color-interpolation-filters="sRGB"><feFlood flood-color="#fff" result="bg"/><feBlend in="SourceGraphic" in2="bg"/></filter><mask id="mask-9" x="626" y="-8574.01" width="92.55" height="32766" maskUnits="userSpaceOnUse"><g class="cls-104"/></mask><radialGradient id="radial-gradient-9" cx="619.75" cy="1056.51" r="35.04" gradientTransform="matrix(-0.92, 0.25, 0.95, 0.13, 241.95, -129.4)" xlink:href="#radial-gradient"/><filter id="luminosity-noclip-10" x="592.51" y="-8574.01" width="33.63" height="32766" filterUnits="userSpaceOnUse" color-interpolation-filters="sRGB"><feFlood flood-color="#fff" result="bg"/><feBlend in="SourceGraphic" in2="bg"/></filter><mask id="mask-10" x="592.51" y="-8574.01" width="33.63" height="32766" maskUnits="userSpaceOnUse"><g class="cls-103"/></mask><radialGradient id="radial-gradient-10" cx="-1120.98" cy="-1623.04" r="10.46" xlink:href="#radial-gradient"/><filter id="luminosity-noclip-11" x="698.88" y="-8574.01" width="33.63" height="32766" filterUnits="userSpaceOnUse" color-interpolation-filters="sRGB"><feFlood flood-color="#fff" result="bg"/><feBlend in="SourceGraphic" in2="bg"/></filter><mask id="mask-11" x="698.88" y="-8574.01" width="33.63" height="32766" maskUnits="userSpaceOnUse"><g class="cls-102"/></mask><radialGradient id="radial-gradient-11" cx="-1075.06" cy="-1670.75" r="10.46" xlink:href="#radial-gradient"/><filter id="luminosity-noclip-12" x="170.06" y="-8574.01" width="92.34" height="32766" filterUnits="userSpaceOnUse" color-interpolation-filters="sRGB"><feFlood flood-color="#fff" result="bg"/><feBlend in="SourceGraphic" in2="bg"/></filter><mask id="mask-12" x="170.06" y="-8574.01" width="92.34" height="32766" maskUnits="userSpaceOnUse"><g class="cls-101"/></mask><radialGradient id="radial-gradient-12" cx="759.85" cy="788.88" r="35.04" gradientTransform="matrix(0.91, 0.28, -0.95, 0.1, 272.68, -128.95)" xlink:href="#radial-gradient"/><filter id="luminosity-noclip-13" x="152.47" y="-8574.01" width="92.55" height="32766" filterUnits="userSpaceOnUse" color-interpolation-filters="sRGB"><feFlood flood-color="#fff" result="bg"/><feBlend in="SourceGraphic" in2="bg"/></filter><mask id="mask-13" x="152.47" y="-8574.01" width="92.55" height="32766" maskUnits="userSpaceOnUse"><g class="cls-100"/></mask><radialGradient id="radial-gradient-13" cx="788.88" cy="720.94" r="35.04" gradientTransform="matrix(-0.92, 0.25, 0.95, 0.13, 241.95, -129.4)" xlink:href="#radial-gradient"/><filter id="luminosity-noclip-14" x="288.55" y="-8574.01" width="92.34" height="32766" filterUnits="userSpaceOnUse" color-interpolation-filters="sRGB"><feFlood flood-color="#fff" result="bg"/><feBlend in="SourceGraphic" in2="bg"/></filter><mask id="mask-14" x="288.55" y="-8574.01" width="92.34" height="32766" maskUnits="userSpaceOnUse"><g class="cls-99"/></mask><radialGradient id="radial-gradient-14" cx="793.05" cy="696.1" r="35.04" gradientTransform="matrix(0.91, 0.28, -0.95, 0.1, 272.68, -128.95)" xlink:href="#radial-gradient"/><filter id="luminosity-noclip-15" x="155.48" y="96.9" width="33.63" height="6.33" filterUnits="userSpaceOnUse" color-interpolation-filters="sRGB"><feFlood flood-color="#fff" result="bg"/><feBlend in="SourceGraphic" in2="bg"/></filter><mask id="mask-15" x="155.48" y="96.9" width="33.63" height="6.33" maskUnits="userSpaceOnUse"><g class="cls-1"><path class="cls-2" d="M189.11,100.12c0,1.75-7.59,3.14-16.88,3.11s-16.78-1.48-16.75-3.23,7.6-3.13,16.88-3.1S189.14,98.38,189.11,100.12Z"/></g></mask><radialGradient id="Degradado_sin_nombre_153" cx="-1309.64" cy="-1427.06" r="10.46" gradientTransform="matrix(1.13, 0.22, -1.14, 0.21, 26.92, 684.53)" gradientUnits="userSpaceOnUse"><stop offset="0" stop-color="#3c3c3b"/><stop offset="1" stop-color="#fff" stop-opacity="0"/></radialGradient><filter id="luminosity-noclip-16" x="256.88" y="96.9" width="33.63" height="6.33" filterUnits="userSpaceOnUse" color-interpolation-filters="sRGB"><feFlood flood-color="#fff" result="bg"/><feBlend in="SourceGraphic" in2="bg"/></filter><mask id="mask-16" x="256.88" y="96.9" width="33.63" height="6.33" maskUnits="userSpaceOnUse"><g class="cls-13"><path class="cls-14" d="M290.51,100.12c0,1.75-7.59,3.14-16.88,3.11s-16.79-1.48-16.75-3.23,7.6-3.13,16.88-3.1S290.54,98.38,290.51,100.12Z"/></g></mask><radialGradient id="Degradado_sin_nombre_153-2" cx="-1265.87" cy="-1472.53" r="10.46" xlink:href="#Degradado_sin_nombre_153"/><filter id="luminosity-noclip-17" x="170.06" y="154.15" width="92.34" height="20.97" filterUnits="userSpaceOnUse" color-interpolation-filters="sRGB"><feFlood flood-color="#fff" result="bg"/><feBlend in="SourceGraphic" in2="bg"/></filter><mask id="mask-17" x="170.06" y="154.15" width="92.34" height="20.97" maskUnits="userSpaceOnUse"><g class="cls-23"><path class="cls-24" d="M262.39,169.12c-.51,5.23-21.6,7.46-47.1,5s-45.74-8.72-45.22-14,21.62-7.47,47.09-5S262.91,163.88,262.39,169.12Z"/></g></mask><radialGradient id="Degradado_sin_nombre_153-3" cx="759.85" cy="788.88" r="35.04" gradientTransform="matrix(0.91, 0.28, -0.95, 0.1, 272.68, -128.95)" xlink:href="#Degradado_sin_nombre_153"/><filter id="luminosity-noclip-18" x="152.47" y="154.37" width="92.55" height="20.01" filterUnits="userSpaceOnUse" color-interpolation-filters="sRGB"><feFlood flood-color="#fff" result="bg"/><feBlend in="SourceGraphic" in2="bg"/></filter><mask id="mask-18" x="152.47" y="154.37" width="92.55" height="20.01" maskUnits="userSpaceOnUse"><g class="cls-25"><path class="cls-26" d="M152.48,167.51c.35,5.25,21.37,8.1,46.93,6.37s46-7.38,45.61-12.63-21.4-8.1-46.93-6.37S152.11,162.26,152.48,167.51Z"/></g></mask><radialGradient id="Degradado_sin_nombre_151" cx="788.88" cy="720.94" r="35.04" gradientTransform="matrix(-0.92, 0.25, 0.95, 0.13, 241.95, -129.4)" gradientUnits="userSpaceOnUse"><stop offset="0" stop-color="#3c3c3b"/><stop offset="0" stop-color="#3d3d3c"/><stop offset="1" stop-color="#fff" stop-opacity="0"/></radialGradient><filter id="luminosity-noclip-19" x="288.55" y="154.15" width="92.34" height="20.97" filterUnits="userSpaceOnUse" color-interpolation-filters="sRGB"><feFlood flood-color="#fff" result="bg"/><feBlend in="SourceGraphic" in2="bg"/></filter><mask id="mask-19" x="288.55" y="154.15" width="92.34" height="20.97" maskUnits="userSpaceOnUse"><g class="cls-27"><path class="cls-28" d="M380.88,169.12c-.51,5.23-21.6,7.46-47.1,5s-45.74-8.72-45.22-14,21.62-7.47,47.1-5S381.4,163.88,380.88,169.12Z"/></g></mask><radialGradient id="Degradado_sin_nombre_153-4" cx="793.05" cy="696.1" r="35.04" gradientTransform="matrix(0.91, 0.28, -0.95, 0.1, 272.68, -128.95)" xlink:href="#Degradado_sin_nombre_153"/><filter id="luminosity-noclip-20" x="270.96" y="154.37" width="92.55" height="20.01" filterUnits="userSpaceOnUse" color-interpolation-filters="sRGB"><feFlood flood-color="#fff" result="bg"/><feBlend in="SourceGraphic" in2="bg"/></filter><mask id="mask-20" x="270.96" y="154.37" width="92.55" height="20.01" maskUnits="userSpaceOnUse"><g class="cls-3"><path class="cls-4" d="M271,167.51c.35,5.25,21.37,8.1,46.93,6.37s46-7.38,45.61-12.63-21.39-8.1-46.93-6.37S270.6,162.26,271,167.51Z"/></g></mask><radialGradient id="Degradado_sin_nombre_151-2" cx="746.56" cy="804.91" r="35.04" xlink:href="#Degradado_sin_nombre_151"/><filter id="luminosity-noclip-21" x="405.71" y="154.15" width="92.34" height="20.97" filterUnits="userSpaceOnUse" color-interpolation-filters="sRGB"><feFlood flood-color="#fff" result="bg"/><feBlend in="SourceGraphic" in2="bg"/></filter><mask id="mask-21" x="405.71" y="154.15" width="92.34" height="20.97" maskUnits="userSpaceOnUse"><g class="cls-5"><path class="cls-6" d="M498,169.12c-.5,5.23-21.6,7.46-47.09,5s-45.75-8.72-45.23-14,21.62-7.47,47.1-5S498.56,163.88,498,169.12Z"/></g></mask><radialGradient id="Degradado_sin_nombre_153-5" cx="825.88" cy="604.37" r="35.04" gradientTransform="matrix(0.91, 0.28, -0.95, 0.1, 272.68, -128.95)" xlink:href="#Degradado_sin_nombre_153"/><filter id="luminosity-noclip-22" x="388.12" y="154.37" width="92.55" height="20.01" filterUnits="userSpaceOnUse" color-interpolation-filters="sRGB"><feFlood flood-color="#fff" result="bg"/><feBlend in="SourceGraphic" in2="bg"/></filter><mask id="mask-22" x="388.12" y="154.37" width="92.55" height="20.01" maskUnits="userSpaceOnUse"><g class="cls-7"><path class="cls-8" d="M388.13,167.51c.35,5.25,21.37,8.1,46.93,6.37s46-7.38,45.61-12.63-21.39-8.1-46.93-6.37S387.76,162.26,388.13,167.51Z"/></g></mask><radialGradient id="Degradado_sin_nombre_151-3" cx="704.71" cy="887.94" r="35.04" xlink:href="#Degradado_sin_nombre_151"/><filter id="luminosity-noclip-23" x="521.1" y="154.15" width="92.34" height="20.97" filterUnits="userSpaceOnUse" color-interpolation-filters="sRGB"><feFlood flood-color="#fff" result="bg"/><feBlend in="SourceGraphic" in2="bg"/></filter><mask id="mask-23" x="521.1" y="154.15" width="92.34" height="20.97" maskUnits="userSpaceOnUse"><g class="cls-9"><path class="cls-10" d="M613.43,169.12c-.51,5.23-21.6,7.46-47.1,5s-45.74-8.72-45.22-14,21.62-7.47,47.09-5S614,163.88,613.43,169.12Z"/></g></mask><radialGradient id="Degradado_sin_nombre_153-6" cx="858.22" cy="514.02" r="35.04" gradientTransform="matrix(0.91, 0.28, -0.95, 0.1, 272.68, -128.95)" xlink:href="#Degradado_sin_nombre_153"/><filter id="luminosity-noclip-24" x="503.51" y="154.37" width="92.55" height="20.01" filterUnits="userSpaceOnUse" color-interpolation-filters="sRGB"><feFlood flood-color="#fff" result="bg"/><feBlend in="SourceGraphic" in2="bg"/></filter><mask id="mask-24" x="503.51" y="154.37" width="92.55" height="20.01" maskUnits="userSpaceOnUse"><g class="cls-11"><path class="cls-12" d="M503.52,167.51c.35,5.25,21.37,8.1,46.93,6.37s46-7.38,45.61-12.63-21.4-8.1-46.93-6.37S503.15,162.26,503.52,167.51Z"/></g></mask><radialGradient id="Degradado_sin_nombre_151-4" cx="663.5" cy="969.71" r="35.04" xlink:href="#Degradado_sin_nombre_151"/><filter id="luminosity-noclip-25" x="643.58" y="154.15" width="92.34" height="20.97" filterUnits="userSpaceOnUse" color-interpolation-filters="sRGB"><feFlood flood-color="#fff" result="bg"/><feBlend in="SourceGraphic" in2="bg"/></filter><mask id="mask-25" x="643.58" y="154.15" width="92.34" height="20.97" maskUnits="userSpaceOnUse"><g class="cls-15"><path class="cls-16" d="M735.92,169.12c-.51,5.23-21.61,7.46-47.1,5s-45.74-8.72-45.23-14,21.63-7.47,47.1-5S736.44,163.88,735.92,169.12Z"/></g></mask><radialGradient id="Degradado_sin_nombre_153-7" cx="892.54" cy="418.12" r="35.04" gradientTransform="matrix(0.91, 0.28, -0.95, 0.1, 272.68, -128.95)" xlink:href="#Degradado_sin_nombre_153"/><filter id="luminosity-noclip-26" x="626" y="154.37" width="92.55" height="20.01" filterUnits="userSpaceOnUse" color-interpolation-filters="sRGB"><feFlood flood-color="#fff" result="bg"/><feBlend in="SourceGraphic" in2="bg"/></filter><mask id="mask-26" x="626" y="154.37" width="92.55" height="20.01" maskUnits="userSpaceOnUse"><g class="cls-17"><path class="cls-18" d="M626,167.51c.36,5.25,21.38,8.1,46.93,6.37s46-7.38,45.62-12.63-21.4-8.1-46.93-6.37S625.63,162.26,626,167.51Z"/></g></mask><radialGradient id="Degradado_sin_nombre_151-5" cx="619.75" cy="1056.51" r="35.04" xlink:href="#Degradado_sin_nombre_151"/><filter id="luminosity-noclip-27" x="592.51" y="96.9" width="33.63" height="6.33" filterUnits="userSpaceOnUse" color-interpolation-filters="sRGB"><feFlood flood-color="#fff" result="bg"/><feBlend in="SourceGraphic" in2="bg"/></filter><mask id="mask-27" x="592.51" y="96.9" width="33.63" height="6.33" maskUnits="userSpaceOnUse"><g class="cls-19"><path class="cls-20" d="M626.13,100.12c0,1.75-7.59,3.14-16.87,3.11s-16.79-1.48-16.75-3.23,7.6-3.13,16.87-3.1S626.17,98.38,626.13,100.12Z"/></g></mask><radialGradient id="Degradado_sin_nombre_153-8" cx="-1120.98" cy="-1623.04" r="10.46" xlink:href="#Degradado_sin_nombre_153"/><filter id="luminosity-noclip-28" x="698.88" y="96.9" width="33.63" height="6.33" filterUnits="userSpaceOnUse" color-interpolation-filters="sRGB"><feFlood flood-color="#fff" result="bg"/><feBlend in="SourceGraphic" in2="bg"/></filter><mask id="mask-28" x="698.88" y="96.9" width="33.63" height="6.33" maskUnits="userSpaceOnUse"><g class="cls-21"><path class="cls-22" d="M732.51,100.12c0,1.75-7.59,3.14-16.88,3.11s-16.78-1.48-16.75-3.23,7.6-3.13,16.88-3.1S732.54,98.38,732.51,100.12Z"/></g></mask><radialGradient id="Degradado_sin_nombre_153-9" cx="-1075.06" cy="-1670.75" r="10.46" xlink:href="#Degradado_sin_nombre_153"/></defs><g class="cls-29"><g id="Capa_1" data-name="Capa 1"><path class="cls-30" d="M844.29,4.67c15.62,0,27.37,11.62,27.37,27V384.65c0,15.42-11.75,28.13-27.37,28.13H76.36c-15.62,0-27.13-12.71-27.13-28.13V31.71c0-15.42,11.51-27,27.13-27Z"/><path class="cls-31" d="M61.91,8.43c11.2,8.24,22.27,15.93,33.35,24.88H812.84c15.63,0,26.6,12,26.6,27.43v321c12.53,4.59,19.83,9.35,29.37,14.32a27.87,27.87,0,0,0,2.85-11.37V31.71c0-15.42-11.75-27-27.37-27H76.36A28.16,28.16,0,0,0,61.91,8.43Z"/><polygon class="cls-32" points="842.04 27.31 851.7 386.04 73.24 395.51 71.63 21.4 842.04 27.31"/><polygon class="cls-33" points="847 31.16 844.91 387.49 66.36 384.46 68.45 28.13 847 31.16"/><path class="cls-34" d="M37.09,136.05v32.56a24.82,24.82,0,0,0-2.88-.14c-16.49,0-30.14,16-30.14,35.66s13.8,35.67,30.28,35.67a21.86,21.86,0,0,0,2.74-.14v28.23c0,14.33,15.15,25.94,36.36,25.94V110.12C52.24,110.12,37.09,121.73,37.09,136.05ZM47.4,205.21c0,6-5.14,10.81-11.48,10.81s-11.48-4.84-11.48-10.81,5.14-10.8,11.48-10.8S47.4,199.25,47.4,205.21Z"/><g class="cls-35"><path class="cls-34" d="M73.45,110.8c-19.7,0-34.54,10-36.74,22.78,6.67-4.79,15.53-7.76,26.13-7.76V293.48a73.45,73.45,0,0,0,10.61,1Z"/></g><text class="cls-36" transform="translate(236.99 17.19)">No<tspan class="cls-37" x="12.04" y="0">t</tspan><tspan x="15.43" y="0">a: Los indi</tspan><tspan class="cls-38" x="57.17" y="0">c</tspan><tspan x="61.32" y="0">ado</tspan><tspan class="cls-39" x="77.11" y="0">r</tspan><tspan x="80.57" y="0">es e</tspan><tspan class="cls-39" x="97" y="0">s</tspan><tspan class="cls-40" x="100.9" y="0">t</tspan><tspan x="104.3" y="0">án asociados a p</tspan><tspan class="cls-41" x="172.75" y="0">r</tspan><tspan class="cls-38" x="176.21" y="0">o</tspan><tspan class="cls-39" x="181.56" y="0">y</tspan><tspan x="186.21" y="0">ec</tspan><tspan class="cls-37" x="195.5" y="0">t</tspan><tspan x="198.89" y="0">os, inici</tspan><tspan class="cls-42" x="230.22" y="0">a</tspan><tspan x="235.09" y="0">ti</tspan><tspan class="cls-43" x="240.99" y="0">v</tspan><tspan x="245.6" y="0">as, planes, p</tspan><tspan class="cls-44" x="297.07" y="0">r</tspan><tspan x="300.52" y="0">ocesos o si</tspan><tspan class="cls-39" x="345.11" y="0">s</tspan><tspan class="cls-41" x="349.01" y="0">t</tspan><tspan x="352.38" y="0">emas de </tspan><tspan class="cls-45" x="389.64" y="0">g</tspan><tspan x="394.31" y="0">e</tspan><tspan class="cls-39" x="399.38" y="0">st</tspan><tspan x="403.28" y="0">ión. </tspan></text><g class="cls-46"><path class="cls-47" d="M189.11,100.12c0,1.75-7.59,3.14-16.88,3.11s-16.78-1.48-16.75-3.23,7.6-3.13,16.88-3.1S189.14,98.38,189.11,100.12Z"/></g><g class="cls-48"><path class="cls-49" d="M290.51,100.12c0,1.75-7.59,3.14-16.88,3.11s-16.79-1.48-16.75-3.23,7.6-3.13,16.88-3.1S290.54,98.38,290.51,100.12Z"/></g><g class="cls-50"><path class="cls-51" d="M262.39,169.12c-.51,5.23-21.6,7.46-47.1,5s-45.74-8.72-45.22-14,21.62-7.47,47.09-5S262.91,163.88,262.39,169.12Z"/></g><g class="cls-52"><path class="cls-53" d="M152.48,167.51c.35,5.25,21.37,8.1,46.93,6.37s46-7.38,45.61-12.63-21.4-8.1-46.93-6.37S152.11,162.26,152.48,167.51Z"/></g><path class="cls-54" d="M170.6,112.73h72.28a11.12,11.12,0,0,1,8.52,4l12.29,14.67a11.13,11.13,0,0,1-.17,14.48l-13.79,15.68a11.13,11.13,0,0,1-8.35,3.78H170.49A11.12,11.12,0,0,1,159.84,151l2.72-9.08a11.23,11.23,0,0,0,0-6.47L160,127.12A11.12,11.12,0,0,1,170.6,112.73Z"/><g class="cls-55"><path class="cls-56" d="M380.88,169.12c-.51,5.23-21.6,7.46-47.1,5s-45.74-8.72-45.22-14,21.62-7.47,47.1-5S381.4,163.88,380.88,169.12Z"/></g><g class="cls-57"><path class="cls-58" d="M271,167.51c.35,5.25,21.37,8.1,46.93,6.37s46-7.38,45.61-12.63-21.39-8.1-46.93-6.37S270.6,162.26,271,167.51Z"/></g><path class="cls-59" d="M289.09,112.73h72.28a11.15,11.15,0,0,1,8.53,4l12.28,14.67a11.12,11.12,0,0,1-.17,14.48l-13.79,15.68a11.12,11.12,0,0,1-8.35,3.78H289A11.12,11.12,0,0,1,278.33,151l2.72-9.08a11.14,11.14,0,0,0,0-6.47l-2.57-8.34A11.12,11.12,0,0,1,289.09,112.73Z"/><g class="cls-60"><path class="cls-61" d="M498,169.12c-.5,5.23-21.6,7.46-47.09,5s-45.75-8.72-45.23-14,21.62-7.47,47.1-5S498.56,163.88,498,169.12Z"/></g><g class="cls-62"><path class="cls-63" d="M388.13,167.51c.35,5.25,21.37,8.1,46.93,6.37s46-7.38,45.61-12.63-21.39-8.1-46.93-6.37S387.76,162.26,388.13,167.51Z"/></g><path class="cls-64" d="M406.25,112.73h72.28a11.14,11.14,0,0,1,8.53,4l12.28,14.67a11.12,11.12,0,0,1-.17,14.48l-13.79,15.68a11.12,11.12,0,0,1-8.35,3.78H406.14A11.12,11.12,0,0,1,395.49,151l2.72-9.08a11.06,11.06,0,0,0,0-6.47l-2.57-8.34A11.12,11.12,0,0,1,406.25,112.73Z"/><g class="cls-65"><path class="cls-66" d="M613.43,169.12c-.51,5.23-21.6,7.46-47.1,5s-45.74-8.72-45.22-14,21.62-7.47,47.09-5S614,163.88,613.43,169.12Z"/></g><g class="cls-67"><path class="cls-68" d="M503.52,167.51c.35,5.25,21.37,8.1,46.93,6.37s46-7.38,45.61-12.63-21.4-8.1-46.93-6.37S503.15,162.26,503.52,167.51Z"/></g><path class="cls-69" d="M521.64,112.73h72.28a11.12,11.12,0,0,1,8.52,4l12.29,14.67a11.13,11.13,0,0,1-.17,14.48l-13.79,15.68a11.13,11.13,0,0,1-8.35,3.78H521.53A11.12,11.12,0,0,1,510.88,151l2.72-9.08a11.23,11.23,0,0,0,0-6.47L511,127.12A11.12,11.12,0,0,1,521.64,112.73Z"/><g class="cls-70"><path class="cls-71" d="M735.92,169.12c-.51,5.23-21.61,7.46-47.1,5s-45.74-8.72-45.23-14,21.63-7.47,47.1-5S736.44,163.88,735.92,169.12Z"/></g><g class="cls-72"><path class="cls-73" d="M626,167.51c.36,5.25,21.38,8.1,46.93,6.37s46-7.38,45.62-12.63-21.4-8.1-46.93-6.37S625.63,162.26,626,167.51Z"/></g><path class="cls-74" d="M644.12,112.73h72.29a11.12,11.12,0,0,1,8.52,4l12.29,14.67a11.12,11.12,0,0,1-.18,14.48l-13.79,15.68a11.12,11.12,0,0,1-8.35,3.78H644A11.13,11.13,0,0,1,633.36,151l2.73-9.08a11.14,11.14,0,0,0,0-6.47l-2.57-8.34A11.12,11.12,0,0,1,644.12,112.73Z"/><text class="cls-75" transform="translate(174.77 131.34)">D<tspan class="cls-76" x="8.01" y="0">e</tspan><tspan x="14.31" y="0">finición de </tspan><tspan x="-1.07" y="11.24">eleme</tspan><tspan class="cls-77" x="31.57" y="11.24">n</tspan><tspan class="cls-78" x="38.27" y="11.24">t</tspan><tspan x="42.56" y="11.24">os de </tspan><tspan x="10.36" y="22.47">medición</tspan></text><text class="cls-75" transform="translate(295.29 130)">Moni<tspan class="cls-78" x="27.88" y="0">t</tspan><tspan x="32.16" y="0">o</tspan><tspan class="cls-79" x="38.99" y="0">r</tspan><tspan x="43.36" y="0">eo y </tspan><tspan x="-5.82" y="11.24">medición de la </tspan><tspan x="7.61" y="22.47">ejecución</tspan></text><text class="cls-75" transform="translate(423.05 130.66)">Análisis y <tspan class="cls-80" x="-11.82" y="11.24">e</tspan><tspan class="cls-81" x="-5.49" y="11.24">v</tspan><tspan x="0.34" y="11.24">aluación de </tspan><tspan class="cls-79" x="-2.93" y="22.47">r</tspan><tspan x="1.44" y="22.47">esul</tspan><tspan class="cls-78" x="22.84" y="22.47">t</tspan><tspan x="27.13" y="22.47">ados</tspan></text><text class="cls-75" transform="translate(526.36 129.78)">Ide<tspan class="cls-77" x="16.6" y="0">n</tspan><tspan x="23.3" y="0">tifi</tspan><tspan class="cls-82" x="37.78" y="0">c</tspan><tspan x="43.03" y="0">ación </tspan><tspan x="-0.93" y="11.24">de b</tspan><tspan class="cls-79" x="21.98" y="11.24">r</tspan><tspan x="26.35" y="11.24">echas de </tspan><tspan x="4.75" y="22.47">desempeño</tspan></text><text class="cls-75" transform="translate(649.49 128)">P<tspan class="cls-79" x="6.76" y="0">r</tspan><tspan x="11.14" y="0">ese</tspan><tspan class="cls-77" x="29" y="0">n</tspan><tspan class="cls-78" x="35.7" y="0">t</tspan><tspan x="39.98" y="0">ación </tspan><tspan x="2.7" y="11.24">i</tspan><tspan class="cls-83" x="5.82" y="11.24">n</tspan><tspan class="cls-84" x="12.57" y="11.24">f</tspan><tspan x="16.4" y="11.24">ormes de </tspan><tspan x="1.62" y="22.47">seguimie</tspan><tspan class="cls-77" x="48.91" y="22.47">n</tspan><tspan class="cls-78" x="55.61" y="22.47">t</tspan><tspan x="59.89" y="22.47">o</tspan></text><path class="cls-85" d="M138.47,54h70.68c5.19,0,9.41,3.63,9.41,8.11v17.6c0,3.32-2.35,6.3-5.92,7.54l-33.37,11.5a10.77,10.77,0,0,1-7,0L135,86c-3.59-1.22-5.94-4.21-5.94-7.54V62.11C129.06,57.63,133.27,54,138.47,54Z"/><path class="cls-85" d="M240.49,54h70.68c5.19,0,9.41,3.63,9.41,8.11v17.6c0,3.32-2.35,6.3-5.92,7.54l-33.37,11.5a10.77,10.77,0,0,1-7,0L237,86c-3.59-1.22-5.94-4.21-5.94-7.54V62.11C231.08,57.63,235.29,54,240.49,54Z"/><text class="cls-86" transform="translate(138.27 72.14)">Di<tspan class="cls-87" x="8.6" y="0">r</tspan><tspan x="11.98" y="0">eccionamie</tspan><tspan class="cls-88" x="58.29" y="0">nt</tspan><tspan x="66.77" y="0">o </tspan><tspan x="13.69" y="8.68">E</tspan><tspan class="cls-87" x="18.48" y="8.68">s</tspan><tspan x="22.29" y="8.68">t</tspan><tspan class="cls-89" x="25.69" y="8.68">r</tspan><tspan class="cls-88" x="28.97" y="8.68">a</tspan><tspan class="cls-90" x="33.72" y="8.68">t</tspan><tspan x="37.01" y="8.68">égi</tspan><tspan class="cls-91" x="49.02" y="8.68">c</tspan><tspan x="53.08" y="8.68">o</tspan></text><g class="cls-92"><path class="cls-93" d="M626.13,100.12c0,1.75-7.59,3.14-16.87,3.11s-16.79-1.48-16.75-3.23,7.6-3.13,16.87-3.1S626.17,98.38,626.13,100.12Z"/></g><path class="cls-85" d="M575.49,54h70.68c5.2,0,9.41,3.63,9.41,8.11v17.6c0,3.32-2.34,6.3-5.91,7.54L616.3,98.75a10.77,10.77,0,0,1-7,0L572,86c-3.59-1.22-5.95-4.21-5.95-7.54V62.11C566.08,57.63,570.29,54,575.49,54Z"/><text class="cls-86" transform="translate(250.54 67.41)">Ge<tspan class="cls-87" x="11.2" y="0">s</tspan><tspan x="15.01" y="0">tión del </tspan><tspan x="-8.26" y="8.68">desempeño del </tspan><tspan class="cls-94" x="-9.63" y="17.36">t</tspan><tspan x="-6.33" y="17.36">ale</tspan><tspan class="cls-88" x="5.88" y="17.36">n</tspan><tspan class="cls-95" x="11.05" y="17.36">t</tspan><tspan x="14.36" y="17.36">o humano</tspan></text><text class="cls-86" transform="translate(582.87 76.06)">Planifi<tspan class="cls-96" x="25.6" y="0">c</tspan><tspan x="29.66" y="0">ación</tspan></text><g class="cls-97"><path class="cls-98" d="M732.51,100.12c0,1.75-7.59,3.14-16.88,3.11s-16.78-1.48-16.75-3.23,7.6-3.13,16.88-3.1S732.54,98.38,732.51,100.12Z"/></g><path class="cls-85" d="M679.38,54h70.68c5.2,0,9.41,3.63,9.41,8.11v17.6c0,3.32-2.34,6.3-5.92,7.54l-33.37,11.5a10.74,10.74,0,0,1-6.95,0L675.91,86c-3.58-1.22-5.94-4.21-5.94-7.54V62.11C670,57.63,674.18,54,679.38,54Z"/><text class="cls-86" transform="translate(694.81 72.38)">Análisis del <tspan x="6.69" y="8.68">E</tspan><tspan class="cls-88" x="11.48" y="8.68">nt</tspan><tspan x="19.97" y="8.68">orno</tspan></text></g></g></svg>