<svg xmlns="http://www.w3.org/2000/svg" viewBox="0 0 111.51 373.36"><defs><style>.cls-1{fill:#706f6f;}.cls-2{fill:#f6f6f6;}.cls-3{fill:#28203a;}.cls-4{fill:#dadada;}.cls-5{fill:#fff;}</style></defs><g id="Capa_2" data-name="Capa 2"><g id="Capa_1-2" data-name="Capa 1"><path class="cls-1" d="M3.71,0H107.79a3.71,3.71,0,0,1,3.71,3.71V26.08a0,0,0,0,1,0,0H0a0,0,0,0,1,0,0V3.71A3.71,3.71,0,0,1,3.71,0Z"/><rect class="cls-2" y="26.08" width="111.51" height="57.88"/><path class="cls-3" d="M33.18,52.45V46.73h1.16v5.72Z"/><path class="cls-3" d="M39.21,52.45h-1.1V50.34a3.6,3.6,0,0,0-.07-.87.67.67,0,0,0-.23-.31.68.68,0,0,0-.38-.11.84.84,0,0,0-.51.16.7.7,0,0,0-.31.41,3.37,3.37,0,0,0-.09,1v1.87h-1.1V48.31h1v.61a1.68,1.68,0,0,1,1.37-.71,1.76,1.76,0,0,1,.66.13,1.11,1.11,0,0,1,.46.34,1.21,1.21,0,0,1,.21.46,3.35,3.35,0,0,1,.07.74Z"/><path class="cls-3" d="M39.93,51.27,41,51.1a.78.78,0,0,0,.29.49,1,1,0,0,0,.6.17,1.12,1.12,0,0,0,.64-.16.34.34,0,0,0,.15-.29.29.29,0,0,0-.08-.21,1,1,0,0,0-.37-.15,5.67,5.67,0,0,1-1.68-.53,1.07,1.07,0,0,1-.5-.93,1.17,1.17,0,0,1,.43-.91,2,2,0,0,1,1.32-.37,2.28,2.28,0,0,1,1.27.28,1.5,1.5,0,0,1,.57.82l-1,.19a.65.65,0,0,0-.25-.37.9.9,0,0,0-.53-.13,1.18,1.18,0,0,0-.62.12.28.28,0,0,0-.13.23.24.24,0,0,0,.11.19,3.68,3.68,0,0,0,1,.31,3.19,3.19,0,0,1,1.22.49,1,1,0,0,1,.35.82,1.24,1.24,0,0,1-.48,1,2.14,2.14,0,0,1-1.41.41,2.29,2.29,0,0,1-1.34-.35A1.55,1.55,0,0,1,39.93,51.27Z"/><path class="cls-3" d="M46.67,48.31v.87h-.75v1.67a5.46,5.46,0,0,0,0,.6.26.26,0,0,0,.1.13.28.28,0,0,0,.18.06,1.5,1.5,0,0,0,.45-.11l.09.85a2.18,2.18,0,0,1-.87.17,1.29,1.29,0,0,1-.53-.1.75.75,0,0,1-.35-.26.94.94,0,0,1-.16-.43,6.05,6.05,0,0,1,0-.77V49.18h-.51v-.87h.51v-.83l1.1-.64v1.47Z"/><path class="cls-3" d="M48.25,49.57l-1-.18a1.54,1.54,0,0,1,.57-.89,2.15,2.15,0,0,1,1.22-.29,2.58,2.58,0,0,1,1.1.18,1,1,0,0,1,.5.44,2.2,2.2,0,0,1,.15,1v1.28a4.14,4.14,0,0,0,.05.81,2.31,2.31,0,0,0,.2.55H50a3.23,3.23,0,0,1-.1-.32.79.79,0,0,1,0-.13,2.07,2.07,0,0,1-.6.41,1.81,1.81,0,0,1-.69.14,1.42,1.42,0,0,1-1-.35,1.23,1.23,0,0,1-.2-1.5,1.09,1.09,0,0,1,.47-.43,3.9,3.9,0,0,1,.87-.25,6.59,6.59,0,0,0,1.07-.27v-.11a.55.55,0,0,0-.16-.45.92.92,0,0,0-.59-.14.75.75,0,0,0-.45.12A.78.78,0,0,0,48.25,49.57Zm1.47.89a4.8,4.8,0,0,1-.67.17,2.21,2.21,0,0,0-.59.19.45.45,0,0,0-.22.39.56.56,0,0,0,.17.4.62.62,0,0,0,.44.17,1,1,0,0,0,.57-.2.7.7,0,0,0,.26-.36,2.24,2.24,0,0,0,0-.54Z"/><path class="cls-3" d="M55.65,52.45H54.56V50.34a3.6,3.6,0,0,0-.07-.87.67.67,0,0,0-.23-.31.68.68,0,0,0-.38-.11.84.84,0,0,0-.51.16.76.76,0,0,0-.32.41,3.94,3.94,0,0,0-.08,1v1.87h-1.1V48.31h1v.61a1.67,1.67,0,0,1,1.37-.71,1.76,1.76,0,0,1,.66.13,1.11,1.11,0,0,1,.46.34,1.21,1.21,0,0,1,.21.46,3.47,3.47,0,0,1,.06.74Z"/><path class="cls-3" d="M60.38,49.53l-1.08.2a.75.75,0,0,0-.25-.49.72.72,0,0,0-.5-.16.81.81,0,0,0-.65.28,1.46,1.46,0,0,0-.25,1,1.7,1.7,0,0,0,.25,1,.83.83,0,0,0,.67.3.72.72,0,0,0,.51-.17,1.09,1.09,0,0,0,.28-.61l1.08.18a1.9,1.9,0,0,1-.65,1.12,2,2,0,0,1-1.27.38A1.87,1.87,0,0,1,57.07,52a2.22,2.22,0,0,1-.54-1.59,2.26,2.26,0,0,1,.54-1.6,1.93,1.93,0,0,1,1.47-.57,2,2,0,0,1,1.2.33A1.81,1.81,0,0,1,60.38,49.53Z"/><path class="cls-3" d="M61.22,47.74v-1h1.09v1Zm0,4.71V48.31h1.09v4.14Z"/><path class="cls-3" d="M64.26,49.57l-1-.18a1.6,1.6,0,0,1,.58-.89,2.15,2.15,0,0,1,1.22-.29,2.5,2.5,0,0,1,1.09.18,1.07,1.07,0,0,1,.51.44,2.2,2.2,0,0,1,.15,1l0,1.28a4,4,0,0,0,.06.81,2.25,2.25,0,0,0,.19.55H66c0-.07-.06-.18-.11-.32s0-.11,0-.13a1.83,1.83,0,0,1-.6.41,1.72,1.72,0,0,1-.68.14,1.42,1.42,0,0,1-1-.35,1.13,1.13,0,0,1-.37-.88,1.18,1.18,0,0,1,.17-.62,1.09,1.09,0,0,1,.47-.43,3.9,3.9,0,0,1,.87-.25,6.89,6.89,0,0,0,1.07-.27v-.11a.55.55,0,0,0-.16-.45.92.92,0,0,0-.59-.14.73.73,0,0,0-.45.12A.78.78,0,0,0,64.26,49.57Zm1.47.89a4.8,4.8,0,0,1-.67.17,2.47,2.47,0,0,0-.6.19.46.46,0,0,0-.21.39.56.56,0,0,0,.17.4.6.6,0,0,0,.44.17.94.94,0,0,0,.56-.2.72.72,0,0,0,.27-.36,2.94,2.94,0,0,0,0-.54Z"/><path class="cls-3" d="M73.92,52.45h-1v-.6a1.64,1.64,0,0,1-.6.52,1.52,1.52,0,0,1-.7.18A1.54,1.54,0,0,1,70.38,52a2.83,2.83,0,0,1,0-3.21,1.64,1.64,0,0,1,1.26-.55,1.57,1.57,0,0,1,1.2.58V46.73h1.1ZM71,50.29a1.94,1.94,0,0,0,.18,1,.84.84,0,0,0,1.39.11,1.55,1.55,0,0,0,.26-1,1.57,1.57,0,0,0-.26-1,.81.81,0,0,0-.66-.32.84.84,0,0,0-.65.31A1.39,1.39,0,0,0,71,50.29Z"/><path class="cls-3" d="M77.4,51.13l1.09.19a1.79,1.79,0,0,1-.66.91,2,2,0,0,1-1.14.32,1.85,1.85,0,0,1-1.6-.71,2.33,2.33,0,0,1-.41-1.43,2.27,2.27,0,0,1,.54-1.61,1.77,1.77,0,0,1,1.36-.59,1.86,1.86,0,0,1,1.46.61,2.69,2.69,0,0,1,.51,1.88H75.8a1.13,1.13,0,0,0,.27.76.83.83,0,0,0,.63.27.67.67,0,0,0,.43-.14A.9.9,0,0,0,77.4,51.13Zm.06-1.1a1.07,1.07,0,0,0-.24-.73.8.8,0,0,0-1.17,0,1.09,1.09,0,0,0-.23.72Z"/><path class="cls-3" d="M32.38,59.43l1.1-.17a.83.83,0,0,0,.29.49,1,1,0,0,0,.6.17,1.09,1.09,0,0,0,.64-.16.34.34,0,0,0,.15-.29.3.3,0,0,0-.08-.21.91.91,0,0,0-.37-.14A6,6,0,0,1,33,58.58a1.05,1.05,0,0,1-.49-.93,1.17,1.17,0,0,1,.42-.91,2,2,0,0,1,1.32-.37,2.37,2.37,0,0,1,1.27.28,1.5,1.5,0,0,1,.57.82l-1,.19a.65.65,0,0,0-.25-.37,1,1,0,0,0-.53-.13,1.18,1.18,0,0,0-.62.12.29.29,0,0,0-.13.23.27.27,0,0,0,.11.2,4.29,4.29,0,0,0,1,.3,3.19,3.19,0,0,1,1.22.49,1,1,0,0,1,.35.82,1.24,1.24,0,0,1-.48,1,2.14,2.14,0,0,1-1.41.41A2.31,2.31,0,0,1,33,60.37,1.58,1.58,0,0,1,32.38,59.43Z"/><path class="cls-3" d="M39.62,59.3l1.09.18a1.82,1.82,0,0,1-.66.92,2,2,0,0,1-1.14.31,1.86,1.86,0,0,1-1.6-.71,2.37,2.37,0,0,1-.41-1.43A2.29,2.29,0,0,1,37.44,57a1.77,1.77,0,0,1,1.36-.59,1.82,1.82,0,0,1,1.46.62,2.65,2.65,0,0,1,.51,1.87H38a1.13,1.13,0,0,0,.27.76.83.83,0,0,0,.63.27.72.72,0,0,0,.44-.14A.93.93,0,0,0,39.62,59.3Zm.06-1.11a1.07,1.07,0,0,0-.24-.73.79.79,0,0,0-.57-.25.77.77,0,0,0-.6.27,1,1,0,0,0-.23.71Z"/><path class="cls-3" d="M41.57,60.89l1.25.15a.42.42,0,0,0,.14.3.84.84,0,0,0,.5.12,1.22,1.22,0,0,0,.64-.13.53.53,0,0,0,.22-.28,1.8,1.8,0,0,0,0-.5v-.61a1.49,1.49,0,0,1-1.24.68,1.55,1.55,0,0,1-1.33-.71,2.45,2.45,0,0,1-.38-1.39,2.32,2.32,0,0,1,.5-1.6,1.65,1.65,0,0,1,1.25-.55,1.53,1.53,0,0,1,1.27.68v-.58h1v3.72a3.75,3.75,0,0,1-.12,1.1,1.44,1.44,0,0,1-.34.57,1.51,1.51,0,0,1-.59.32,3,3,0,0,1-.92.12,2.43,2.43,0,0,1-1.5-.36,1.15,1.15,0,0,1-.44-.92A.66.66,0,0,1,41.57,60.89Zm1-2.43a1.47,1.47,0,0,0,.25,1,.78.78,0,0,0,.63.31.87.87,0,0,0,.68-.32,1.33,1.33,0,0,0,.28-.93,1.4,1.4,0,0,0-.27-.95.85.85,0,0,0-1.32,0A1.45,1.45,0,0,0,42.55,58.46Z"/><path class="cls-3" d="M49.29,60.62V60a1.61,1.61,0,0,1-.6.53,1.66,1.66,0,0,1-.78.19,1.54,1.54,0,0,1-.75-.18,1.15,1.15,0,0,1-.48-.52,2.29,2.29,0,0,1-.15-.92V56.47h1.1v1.9a5.45,5.45,0,0,0,.06,1.08.58.58,0,0,0,.22.31.66.66,0,0,0,.41.11.89.89,0,0,0,.5-.15.73.73,0,0,0,.3-.38,4.13,4.13,0,0,0,.09-1.12V56.47H50.3v4.15Z"/><path class="cls-3" d="M51.44,55.91v-1h1.1v1Zm0,4.71V56.47h1.1v4.15Z"/><path class="cls-3" d="M53.58,56.47h1V57a1.65,1.65,0,0,1,1.3-.66,1.41,1.41,0,0,1,.69.17,1.33,1.33,0,0,1,.48.49,1.9,1.9,0,0,1,.59-.49,1.42,1.42,0,0,1,.67-.17,1.55,1.55,0,0,1,.78.19,1.09,1.09,0,0,1,.47.54,2.32,2.32,0,0,1,.11.86v2.66H58.59V58.24a1.65,1.65,0,0,0-.12-.79.52.52,0,0,0-.47-.24.78.78,0,0,0-.43.14.8.8,0,0,0-.29.42,2.9,2.9,0,0,0-.09.85v2h-1.1V58.34a3.11,3.11,0,0,0-.06-.78.51.51,0,0,0-.18-.26.54.54,0,0,0-.33-.09.81.81,0,0,0-.46.14.72.72,0,0,0-.29.39,2.93,2.93,0,0,0-.09.86v2h-1.1Z"/><path class="cls-3" d="M60.78,55.91v-1h1.1v1Zm0,4.71V56.47h1.1v4.15Z"/><path class="cls-3" d="M65.4,59.3l1.1.18a1.83,1.83,0,0,1-.67.92,2,2,0,0,1-1.14.31,1.86,1.86,0,0,1-1.6-.71,2.37,2.37,0,0,1-.41-1.43A2.29,2.29,0,0,1,63.22,57a1.77,1.77,0,0,1,1.36-.59A1.82,1.82,0,0,1,66,57a2.65,2.65,0,0,1,.51,1.87H63.8a1.13,1.13,0,0,0,.27.76.83.83,0,0,0,.63.27.7.7,0,0,0,.44-.14A.93.93,0,0,0,65.4,59.3Zm.06-1.11a1,1,0,0,0-.24-.73.79.79,0,0,0-.57-.25.77.77,0,0,0-.6.27,1,1,0,0,0-.23.71Z"/><path class="cls-3" d="M71.22,60.62h-1.1V58.5a3.13,3.13,0,0,0-.07-.87.63.63,0,0,0-.22-.31.7.7,0,0,0-.38-.11.91.91,0,0,0-.52.16.79.79,0,0,0-.31.41,4,4,0,0,0-.08,1v1.88h-1.1V56.47h1v.61a1.67,1.67,0,0,1,1.37-.71,1.76,1.76,0,0,1,.66.13,1.18,1.18,0,0,1,.46.34,1.21,1.21,0,0,1,.21.46,3.47,3.47,0,0,1,.06.74Z"/><path class="cls-3" d="M74.24,56.47v.87h-.75V59a5.46,5.46,0,0,0,0,.6.21.21,0,0,0,.1.13.28.28,0,0,0,.18.06,1.45,1.45,0,0,0,.44-.11l.1.86a2.21,2.21,0,0,1-.87.16,1.25,1.25,0,0,1-.53-.1.75.75,0,0,1-.35-.26.94.94,0,0,1-.16-.43,6.05,6.05,0,0,1,0-.77V57.34h-.51v-.87h.51v-.83l1.1-.64v1.47Z"/><path class="cls-3" d="M74.75,58.48A2.29,2.29,0,0,1,75,57.42a1.85,1.85,0,0,1,.76-.78,2.27,2.27,0,0,1,1.1-.27,2.17,2.17,0,1,1,0,4.34,2.46,2.46,0,0,1-1.09-.26A1.77,1.77,0,0,1,75,59.7,2.56,2.56,0,0,1,74.75,58.48Zm1.12.06a1.42,1.42,0,0,0,.29,1,1,1,0,0,0,1.45,0,1.43,1.43,0,0,0,.29-1,1.38,1.38,0,0,0-.29-.93,1,1,0,0,0-1.45,0A1.39,1.39,0,0,0,75.87,58.54Z"/><rect class="cls-4" y="83.96" width="111.51" height="57.88"/><path class="cls-3" d="M35.22,115.66v-5.73h1.85a7.59,7.59,0,0,1,1.38.08,1.54,1.54,0,0,1,.82.56,1.8,1.8,0,0,1,.33,1.12,1.86,1.86,0,0,1-.19.89,1.66,1.66,0,0,1-.48.56,1.6,1.6,0,0,1-.6.27,6.24,6.24,0,0,1-1.2.08h-.76v2.17Zm1.15-4.76v1.62H37a3,3,0,0,0,.91-.09.77.77,0,0,0,.36-.28.74.74,0,0,0,.13-.44.77.77,0,0,0-.18-.52.75.75,0,0,0-.47-.25,4.89,4.89,0,0,0-.83,0Z"/><path class="cls-3" d="M40.54,115.66v-5.73h1.1v5.73Z"/><path class="cls-3" d="M43.59,112.77l-1-.18a1.55,1.55,0,0,1,.58-.89,2.13,2.13,0,0,1,1.22-.29,2.53,2.53,0,0,1,1.09.18A1.07,1.07,0,0,1,46,112a2.23,2.23,0,0,1,.14,1v1.28a3.9,3.9,0,0,0,.06.81,2.47,2.47,0,0,0,.19.56H45.29c0-.08-.07-.19-.11-.33s0-.11,0-.13a2,2,0,0,1-.6.41,1.72,1.72,0,0,1-.68.14,1.41,1.41,0,0,1-1-.35,1.13,1.13,0,0,1-.37-.88,1.15,1.15,0,0,1,.64-1,3.9,3.9,0,0,1,.87-.25,6.89,6.89,0,0,0,1.07-.27v-.11a.58.58,0,0,0-.16-.45.92.92,0,0,0-.59-.14.78.78,0,0,0-.46.12A.77.77,0,0,0,43.59,112.77Zm1.47.89a5.22,5.22,0,0,1-.67.17,2.18,2.18,0,0,0-.6.19.46.46,0,0,0-.21.39.52.52,0,0,0,.17.4.6.6,0,0,0,.44.17,1,1,0,0,0,.56-.2.7.7,0,0,0,.26-.36,2.1,2.1,0,0,0,.05-.54Z"/><path class="cls-3" d="M51,115.66h-1.1v-2.12a3.13,3.13,0,0,0-.07-.87.56.56,0,0,0-.23-.31.66.66,0,0,0-.38-.11.84.84,0,0,0-.51.16.79.79,0,0,0-.31.41,3.48,3.48,0,0,0-.08,1v1.88h-1.1v-4.15h1v.61a1.67,1.67,0,0,1,1.37-.71,1.76,1.76,0,0,1,.66.13,1.07,1.07,0,0,1,.45.34,1.09,1.09,0,0,1,.22.46,3.47,3.47,0,0,1,.06.74Z"/><path class="cls-3" d="M54.51,114.33l1.09.19a1.75,1.75,0,0,1-.67.91,1.94,1.94,0,0,1-1.14.32,1.86,1.86,0,0,1-1.6-.71,2.4,2.4,0,0,1-.41-1.43,2.27,2.27,0,0,1,.54-1.61,1.79,1.79,0,0,1,1.37-.59,1.88,1.88,0,0,1,1.46.61,2.8,2.8,0,0,1,.51,1.88H52.91a1.12,1.12,0,0,0,.26.76.84.84,0,0,0,.64.27.69.69,0,0,0,.43-.14A.9.9,0,0,0,54.51,114.33Zm.06-1.1a1.07,1.07,0,0,0-.25-.73.79.79,0,0,0-1.16,0,1,1,0,0,0-.23.72Z"/><path class="cls-3" d="M57.37,112.77l-1-.18a1.51,1.51,0,0,1,.58-.89,2.1,2.1,0,0,1,1.21-.29,2.58,2.58,0,0,1,1.1.18,1,1,0,0,1,.5.44,2.2,2.2,0,0,1,.15,1v1.28a5,5,0,0,0,.05.81,2.54,2.54,0,0,0,.2.56H59.07c0-.08-.06-.19-.1-.33s0-.11,0-.13a2.07,2.07,0,0,1-.6.41,1.81,1.81,0,0,1-.69.14,1.44,1.44,0,0,1-1-.35,1.23,1.23,0,0,1-.2-1.5,1.09,1.09,0,0,1,.47-.43,4,4,0,0,1,.88-.25,6.69,6.69,0,0,0,1.06-.27v-.11a.58.58,0,0,0-.15-.45,1,1,0,0,0-.59-.14.76.76,0,0,0-.46.12A.78.78,0,0,0,57.37,112.77Zm1.47.89a4.8,4.8,0,0,1-.67.17,2.21,2.21,0,0,0-.59.19.45.45,0,0,0-.22.39.56.56,0,0,0,.17.4A.62.62,0,0,0,58,115a1,1,0,0,0,.57-.2.7.7,0,0,0,.26-.36,2.24,2.24,0,0,0,0-.54Z"/><path class="cls-3" d="M64.62,112.73l-1.08.2a.79.79,0,0,0-.25-.49.75.75,0,0,0-.5-.16.83.83,0,0,0-.66.28,1.47,1.47,0,0,0-.24,1,1.64,1.64,0,0,0,.25,1,.8.8,0,0,0,.66.3.72.72,0,0,0,.51-.17,1.09,1.09,0,0,0,.29-.61l1.07.18a1.89,1.89,0,0,1-.64,1.12,2,2,0,0,1-1.28.38,1.88,1.88,0,0,1-1.45-.58,2.61,2.61,0,0,1,0-3.18,1.91,1.91,0,0,1,1.47-.58,2,2,0,0,1,1.21.33A1.87,1.87,0,0,1,64.62,112.73Z"/><path class="cls-3" d="M65.45,110.94v-1h1.1v1Zm0,4.72v-4.15h1.1v4.15Z"/><path class="cls-3" d="M67.42,113.52a2.26,2.26,0,0,1,.27-1.06,1.85,1.85,0,0,1,.76-.78,2.28,2.28,0,0,1,1.11-.27,2.1,2.1,0,0,1,1.54.61,2.13,2.13,0,0,1,.6,1.55,2.11,2.11,0,0,1-.61,1.56,2,2,0,0,1-1.53.62,2.39,2.39,0,0,1-1.08-.26,1.74,1.74,0,0,1-.79-.75A2.56,2.56,0,0,1,67.42,113.52Zm1.12.06a1.37,1.37,0,0,0,.3,1,1,1,0,0,0,1.44,0,1.38,1.38,0,0,0,.29-1,1.31,1.31,0,0,0-.29-.93,1,1,0,0,0-1.44,0A1.33,1.33,0,0,0,68.54,113.58ZM69,111l.53-1.17h1.24L69.7,111Z"/><path class="cls-3" d="M76.33,115.66H75.24v-2.12a3.6,3.6,0,0,0-.07-.87.67.67,0,0,0-.23-.31.68.68,0,0,0-.38-.11.89.89,0,0,0-.52.16.79.79,0,0,0-.31.41,3.94,3.94,0,0,0-.08,1v1.88h-1.1v-4.15h1v.61a1.67,1.67,0,0,1,1.37-.71,1.76,1.76,0,0,1,.66.13,1.11,1.11,0,0,1,.46.34,1.21,1.21,0,0,1,.21.46,3.47,3.47,0,0,1,.06.74Z"/><path class="cls-5" d="M44.77,17.25V6.52h4.56a7.66,7.66,0,0,1,2.51.29,2.39,2.39,0,0,1,1.24,1,3,3,0,0,1,.47,1.69,2.82,2.82,0,0,1-.71,2,3.39,3.39,0,0,1-2.12,1,5,5,0,0,1,1.16.9,11.35,11.35,0,0,1,1.23,1.74l1.31,2.09H51.83l-1.57-2.33a13.49,13.49,0,0,0-1.14-1.58,1.6,1.6,0,0,0-.65-.45,3.58,3.58,0,0,0-1.09-.12h-.44v4.48Zm2.17-6.19h1.6a8.85,8.85,0,0,0,2-.13,1.18,1.18,0,0,0,.61-.46,1.35,1.35,0,0,0,.22-.8A1.3,1.3,0,0,0,51,8.79a1.32,1.32,0,0,0-.82-.42c-.17,0-.7,0-1.58,0H46.94Z"/><path class="cls-5" d="M55.11,13.26a4.29,4.29,0,0,1,.5-2A3.47,3.47,0,0,1,57,9.81a4.23,4.23,0,0,1,2.07-.51A3.89,3.89,0,0,1,62,10.45a4,4,0,0,1,1.12,2.89A4,4,0,0,1,62,16.27a3.87,3.87,0,0,1-2.87,1.16,4.5,4.5,0,0,1-2-.48,3.39,3.39,0,0,1-1.48-1.42A4.79,4.79,0,0,1,55.11,13.26Zm2.11.11a2.55,2.55,0,0,0,.55,1.77,1.8,1.8,0,0,0,2.7,0A2.64,2.64,0,0,0,61,13.35a2.59,2.59,0,0,0-.55-1.76,1.8,1.8,0,0,0-2.7,0A2.56,2.56,0,0,0,57.22,13.37Z"/><path class="cls-5" d="M64.74,17.25V6.52H66.8V17.25Z"/><rect class="cls-2" y="141.84" width="111.51" height="57.88"/><path class="cls-3" d="M27.08,168.22H25.82l-.5-1.31H23l-.48,1.31H21.34l2.23-5.73h1.22ZM25,166l-.79-2.13L23.39,166Z"/><path class="cls-3" d="M31.33,168.22h-1v-.61a1.77,1.77,0,0,1-.6.53,1.59,1.59,0,0,1-.69.17,1.57,1.57,0,0,1-1.23-.58,2.8,2.8,0,0,1,0-3.21A1.64,1.64,0,0,1,29,164a1.54,1.54,0,0,1,1.2.58v-2.06h1.1Zm-2.93-2.17a1.82,1.82,0,0,0,.19,1,.83.83,0,0,0,1.38.11,1.48,1.48,0,0,0,.27-1,1.64,1.64,0,0,0-.26-1,.81.81,0,0,0-.66-.32.83.83,0,0,0-.65.31A1.39,1.39,0,0,0,28.4,166.05Z"/><path class="cls-3" d="M32.17,164.07h1v.56a1.65,1.65,0,0,1,1.3-.66,1.41,1.41,0,0,1,.69.17,1.33,1.33,0,0,1,.48.49,1.9,1.9,0,0,1,.59-.49,1.42,1.42,0,0,1,.67-.17,1.46,1.46,0,0,1,.78.19,1.09,1.09,0,0,1,.47.54,2.32,2.32,0,0,1,.11.86v2.66H37.18v-2.38a1.65,1.65,0,0,0-.12-.79.52.52,0,0,0-.47-.24.78.78,0,0,0-.43.14.76.76,0,0,0-.29.42,2.9,2.9,0,0,0-.09.85v2h-1.1v-2.28a3.11,3.11,0,0,0-.06-.78.51.51,0,0,0-.18-.26.54.54,0,0,0-.33-.09.81.81,0,0,0-.46.14.72.72,0,0,0-.29.39,2.93,2.93,0,0,0-.09.86v2h-1.1Z"/><path class="cls-3" d="M39.21,163.5v-1H40.3v1Zm0,4.72v-4.15H40.3v4.15Z"/><path class="cls-3" d="M45,168.22H44V166.1a3.6,3.6,0,0,0-.07-.87.67.67,0,0,0-.23-.31.68.68,0,0,0-.38-.11,1,1,0,0,0-.52.16.79.79,0,0,0-.31.41,3.94,3.94,0,0,0-.08,1v1.88h-1.1v-4.15h1v.61a1.67,1.67,0,0,1,1.37-.71,1.76,1.76,0,0,1,.66.13,1.11,1.11,0,0,1,.46.34,1.21,1.21,0,0,1,.21.46,3.47,3.47,0,0,1,.06.74Z"/><path class="cls-3" d="M46,163.5v-1h1.09v1Zm0,4.72v-4.15h1.09v4.15Z"/><path class="cls-3" d="M47.67,167l1.1-.17a.83.83,0,0,0,.29.49,1,1,0,0,0,.6.17,1.09,1.09,0,0,0,.64-.16.34.34,0,0,0,.15-.29.29.29,0,0,0-.08-.21.91.91,0,0,0-.37-.14,6,6,0,0,1-1.68-.54,1.06,1.06,0,0,1-.49-.93,1.16,1.16,0,0,1,.42-.91,2,2,0,0,1,1.32-.37,2.37,2.37,0,0,1,1.27.28,1.5,1.5,0,0,1,.57.82l-1,.19a.65.65,0,0,0-.25-.37.88.88,0,0,0-.53-.13,1.18,1.18,0,0,0-.62.12.28.28,0,0,0-.13.23.24.24,0,0,0,.11.19,3.68,3.68,0,0,0,1,.31,3.19,3.19,0,0,1,1.22.49,1,1,0,0,1,.35.82,1.24,1.24,0,0,1-.48,1,2.14,2.14,0,0,1-1.41.41,2.39,2.39,0,0,1-1.34-.34A1.61,1.61,0,0,1,47.67,167Z"/><path class="cls-3" d="M54.25,164.07v.87H53.5v1.67a5.46,5.46,0,0,0,0,.6.26.26,0,0,0,.1.13.29.29,0,0,0,.19.06,1.52,1.52,0,0,0,.44-.11l.09.85a2.14,2.14,0,0,1-.87.17,1.32,1.32,0,0,1-.53-.1.75.75,0,0,1-.35-.26.94.94,0,0,1-.16-.43,6.05,6.05,0,0,1,0-.77v-1.81h-.5v-.87h.5v-.83l1.1-.64v1.47Z"/><path class="cls-3" d="M55.9,168.22H54.81v-4.15h1v.59a1.6,1.6,0,0,1,.47-.55.84.84,0,0,1,.47-.14,1.37,1.37,0,0,1,.72.21l-.34,1a.93.93,0,0,0-.51-.18.61.61,0,0,0-.39.12.87.87,0,0,0-.25.46,5.83,5.83,0,0,0-.1,1.39Z"/><path class="cls-3" d="M58.63,165.33l-1-.18a1.51,1.51,0,0,1,.58-.89,2.13,2.13,0,0,1,1.22-.29,2.53,2.53,0,0,1,1.09.18,1.07,1.07,0,0,1,.51.44,2.4,2.4,0,0,1,.14,1v1.28a5,5,0,0,0,.05.81,2.54,2.54,0,0,0,.2.56H60.33c0-.08-.07-.19-.11-.33s0-.11,0-.13a2.07,2.07,0,0,1-.6.41,1.72,1.72,0,0,1-.68.14,1.41,1.41,0,0,1-1-.35,1.13,1.13,0,0,1-.37-.88,1.17,1.17,0,0,1,.16-.62,1.11,1.11,0,0,1,.48-.43,3.9,3.9,0,0,1,.87-.25,6.39,6.39,0,0,0,1.06-.27v-.11a.58.58,0,0,0-.15-.45.94.94,0,0,0-.59-.14.76.76,0,0,0-.46.12A.72.72,0,0,0,58.63,165.33Zm1.46.89a5,5,0,0,1-.66.17,2.18,2.18,0,0,0-.6.19.47.47,0,0,0-.22.39.53.53,0,0,0,.18.4.6.6,0,0,0,.43.17,1,1,0,0,0,.57-.2.7.7,0,0,0,.26-.36,2.24,2.24,0,0,0,0-.54Z"/><path class="cls-3" d="M65.9,168.22h-1v-.61a1.77,1.77,0,0,1-.6.53,1.6,1.6,0,0,1-.7.17,1.57,1.57,0,0,1-1.22-.58,2.33,2.33,0,0,1-.51-1.6,2.29,2.29,0,0,1,.5-1.61A1.62,1.62,0,0,1,63.6,164a1.57,1.57,0,0,1,1.2.58v-2.06h1.1ZM63,166.05a1.94,1.94,0,0,0,.18,1,.84.84,0,0,0,.75.43.82.82,0,0,0,.64-.32,1.48,1.48,0,0,0,.27-1,1.64,1.64,0,0,0-.26-1,.81.81,0,0,0-.66-.32.86.86,0,0,0-.66.31A1.45,1.45,0,0,0,63,166.05Z"/><path class="cls-3" d="M66.57,166.08a2.29,2.29,0,0,1,.27-1.06,1.85,1.85,0,0,1,.76-.78,2.28,2.28,0,0,1,1.11-.27,2.1,2.1,0,0,1,1.54.61,2.13,2.13,0,0,1,.6,1.55,2.11,2.11,0,0,1-.61,1.56,2,2,0,0,1-1.53.62,2.46,2.46,0,0,1-1.09-.26,1.77,1.77,0,0,1-.78-.75A2.56,2.56,0,0,1,66.57,166.08Zm1.12.06a1.37,1.37,0,0,0,.3,1,1,1,0,0,0,1.44,0,1.43,1.43,0,0,0,.29-1,1.36,1.36,0,0,0-.29-.93,1,1,0,0,0-1.44,0A1.33,1.33,0,0,0,67.69,166.14Z"/><path class="cls-3" d="M72.6,168.22H71.5v-4.15h1v.59a1.71,1.71,0,0,1,.47-.55.87.87,0,0,1,.48-.14,1.37,1.37,0,0,1,.72.21l-.34,1a1,1,0,0,0-.52-.18.65.65,0,0,0-.39.12.94.94,0,0,0-.25.46,6.67,6.67,0,0,0-.09,1.39Z"/><path class="cls-3" d="M80.24,166.11l1.12.36a2.54,2.54,0,0,1-.86,1.39,2.71,2.71,0,0,1-3.4-.33,3,3,0,0,1-.73-2.13,3.15,3.15,0,0,1,.74-2.22,2.52,2.52,0,0,1,1.94-.79,2.41,2.41,0,0,1,1.71.62,2.29,2.29,0,0,1,.58,1.06l-1.14.27a1.18,1.18,0,0,0-.43-.7,1.2,1.2,0,0,0-.78-.26,1.28,1.28,0,0,0-1,.46,2.18,2.18,0,0,0-.4,1.48,2.38,2.38,0,0,0,.39,1.54,1.26,1.26,0,0,0,1,.46,1.14,1.14,0,0,0,.79-.29A1.71,1.71,0,0,0,80.24,166.11Z"/><path class="cls-3" d="M82.17,168.22v-5.73H83.9l1,3.9,1-3.9h1.74v5.73H86.63v-4.51l-1.14,4.51H84.38l-1.13-4.51v4.51Z"/><path class="cls-3" d="M88.66,168.22v-5.73h1.16v5.73Z"/><path class="cls-3" d="M39.77,173.37v-.84H42v2a2.79,2.79,0,0,1-.93.55,3.47,3.47,0,0,1-1.22.23,2.75,2.75,0,0,1-1.37-.33,2.11,2.11,0,0,1-.88-.94,3.16,3.16,0,0,1-.29-1.34,2.88,2.88,0,0,1,.33-1.39,2.21,2.21,0,0,1,1-.93,2.54,2.54,0,0,1,1.2-.25,2.41,2.41,0,0,1,1.46.39,1.75,1.75,0,0,1,.67,1.08l-1,.19a1.06,1.06,0,0,0-.4-.58,1.17,1.17,0,0,0-.73-.22,1.39,1.39,0,0,0-1.06.42,1.78,1.78,0,0,0-.39,1.25,1.93,1.93,0,0,0,.4,1.34,1.31,1.31,0,0,0,1,.45,1.77,1.77,0,0,0,.63-.13,1.91,1.91,0,0,0,.55-.3v-.64Z"/><path class="cls-3" d="M43.38,175.22h-1v-3.63h.89v.51a1.61,1.61,0,0,1,.41-.48.76.76,0,0,1,.42-.12,1.21,1.21,0,0,1,.63.18l-.3.84a.88.88,0,0,0-.45-.16.52.52,0,0,0-.34.12.71.71,0,0,0-.22.4,5.92,5.92,0,0,0-.08,1.21Z"/><path class="cls-3" d="M47.16,175.22v-.55a1.39,1.39,0,0,1-.53.46,1.46,1.46,0,0,1-.68.17,1.39,1.39,0,0,1-.65-.16.91.91,0,0,1-.42-.45,2,2,0,0,1-.13-.81v-2.29h1v1.66a4.36,4.36,0,0,0,0,.94.51.51,0,0,0,.19.28.66.66,0,0,0,.36.1.77.77,0,0,0,.44-.14.71.71,0,0,0,.27-.33,4.42,4.42,0,0,0,.07-1v-1.53h1v3.63Z"/><path class="cls-3" d="M48.59,171.59h.9v.53a1.45,1.45,0,0,1,.47-.45,1.35,1.35,0,0,1,.66-.17,1.38,1.38,0,0,1,1.07.5,2,2,0,0,1,.44,1.38,2,2,0,0,1-.44,1.41,1.38,1.38,0,0,1-1.08.51,1.19,1.19,0,0,1-.54-.12,2,2,0,0,1-.52-.41v1.83h-1Zm.95,1.75a1.33,1.33,0,0,0,.25.9.72.72,0,0,0,.59.29.7.7,0,0,0,.56-.26,1.45,1.45,0,0,0,.22-.88,1.33,1.33,0,0,0-.23-.85.69.69,0,0,0-.57-.28.73.73,0,0,0-.58.27A1.21,1.21,0,0,0,49.54,173.34Z"/><path class="cls-3" d="M52.26,173.35a1.94,1.94,0,0,1,.23-.93,1.63,1.63,0,0,1,.67-.68,2,2,0,0,1,1-.24A1.81,1.81,0,0,1,56,173.39a1.87,1.87,0,0,1-.53,1.37,1.79,1.79,0,0,1-1.34.54,2.11,2.11,0,0,1-1-.23,1.57,1.57,0,0,1-.69-.66A2.16,2.16,0,0,1,52.26,173.35Zm1,.05a1.21,1.21,0,0,0,.26.83.85.85,0,0,0,1.26,0,1.22,1.22,0,0,0,.25-.84,1.2,1.2,0,0,0-.25-.82.85.85,0,0,0-1.26,0A1.21,1.21,0,0,0,53.24,173.4Z"/><path class="cls-3" d="M57.87,175.22v-5h3.71v.85h-2.7v1.11h2.51V173H58.88v1.36h2.8v.85Z"/><path class="cls-3" d="M62.11,175.22v-5h1.63a5.8,5.8,0,0,1,1.2.08,1.27,1.27,0,0,1,.72.49,1.81,1.81,0,0,1,.12,1.75,1.39,1.39,0,0,1-.42.5,1.45,1.45,0,0,1-.53.23,5.55,5.55,0,0,1-1,.07h-.66v1.9Zm1-4.17v1.42h.55a2.81,2.81,0,0,0,.8-.07.7.7,0,0,0,.31-.25.65.65,0,0,0,.12-.39.64.64,0,0,0-.16-.45.69.69,0,0,0-.41-.22,3.83,3.83,0,0,0-.73,0Z"/><path class="cls-3" d="M66.35,175.22v-5h1.51l.91,3.42.9-3.42h1.52v5h-.94v-3.95l-1,3.95h-1l-1-3.95v3.95Z"/><path class="cls-3" d="M72.78,175.3,74,170.12h.72l-1.25,5.18Z"/><path class="cls-3" d="M20,182.21v-5h1L23,180.55V177.2H24v5H23l-2-3.26v3.26Z"/><path class="cls-3" d="M26.71,181.06l1,.16a1.56,1.56,0,0,1-.58.8,1.76,1.76,0,0,1-1,.28,1.63,1.63,0,0,1-1.4-.62,2.08,2.08,0,0,1-.36-1.25A2,2,0,0,1,24.8,179a1.58,1.58,0,0,1,1.2-.51,1.62,1.62,0,0,1,1.28.54,2.33,2.33,0,0,1,.44,1.64h-2.4a.93.93,0,0,0,.23.66.72.72,0,0,0,.55.24.6.6,0,0,0,.38-.12A.82.82,0,0,0,26.71,181.06Zm.06-1a1,1,0,0,0-.22-.64.65.65,0,0,0-.49-.21.64.64,0,0,0-.52.23.88.88,0,0,0-.21.62Z"/><path class="cls-3" d="M28,182.45l1.09.14a.43.43,0,0,0,.13.26.72.72,0,0,0,.43.1,1.11,1.11,0,0,0,.57-.11.52.52,0,0,0,.19-.24,1.5,1.5,0,0,0,0-.44v-.53a1.3,1.3,0,0,1-1.08.58,1.33,1.33,0,0,1-1.16-.61,2.07,2.07,0,0,1-.34-1.22,2,2,0,0,1,.44-1.4,1.42,1.42,0,0,1,1.09-.48,1.33,1.33,0,0,1,1.11.59v-.51h.9v3.26a3.29,3.29,0,0,1-.1,1,1.17,1.17,0,0,1-.3.5,1.39,1.39,0,0,1-.51.29,3,3,0,0,1-.81.1,2.09,2.09,0,0,1-1.31-.32,1,1,0,0,1-.39-.8S28,182.5,28,182.45Zm.86-2.13a1.31,1.31,0,0,0,.22.85.69.69,0,0,0,.55.27.76.76,0,0,0,.6-.28,1.19,1.19,0,0,0,.24-.81,1.3,1.3,0,0,0-.23-.84.75.75,0,0,0-.59-.27.71.71,0,0,0-.57.27A1.22,1.22,0,0,0,28.86,180.32Z"/><path class="cls-3" d="M31.72,180.35a2,2,0,0,1,.24-.93,1.6,1.6,0,0,1,.66-.68,2,2,0,0,1,1-.24,1.8,1.8,0,0,1,1.35.54,2,2,0,0,1,0,2.71,1.76,1.76,0,0,1-1.33.55,2.15,2.15,0,0,1-1-.23,1.5,1.5,0,0,1-.68-.66A2.16,2.16,0,0,1,31.72,180.35Zm1,.05a1.23,1.23,0,0,0,.26.83.85.85,0,0,0,1.26,0,1.24,1.24,0,0,0,.26-.84,1.2,1.2,0,0,0-.26-.82.83.83,0,0,0-1.26,0A1.21,1.21,0,0,0,32.7,180.4Z"/><path class="cls-3" d="M39,179.66l-.94.17a.77.77,0,0,0-.22-.43.68.68,0,0,0-.44-.14.7.7,0,0,0-.57.25,1.26,1.26,0,0,0-.22.82,1.51,1.51,0,0,0,.22.92.71.71,0,0,0,.58.26.64.64,0,0,0,.45-.15.94.94,0,0,0,.25-.54L39,181a1.64,1.64,0,0,1-.56,1,1.7,1.7,0,0,1-1.12.34,1.66,1.66,0,0,1-1.27-.51,1.9,1.9,0,0,1-.47-1.39,2,2,0,0,1,.47-1.4,1.72,1.72,0,0,1,1.29-.5,1.74,1.74,0,0,1,1,.29A1.56,1.56,0,0,1,39,179.66Z"/><path class="cls-3" d="M39.27,178.09v-.89h1v.89Zm0,4.12v-3.63h1v3.63Z"/><path class="cls-3" d="M40.57,180.35a2,2,0,0,1,.24-.93,1.63,1.63,0,0,1,.67-.68,2,2,0,0,1,1-.24,1.8,1.8,0,0,1,1.35.54,1.83,1.83,0,0,1,.53,1.35,1.87,1.87,0,0,1-.53,1.36,1.78,1.78,0,0,1-1.34.55,2.11,2.11,0,0,1-1-.23,1.57,1.57,0,0,1-.69-.66A2.16,2.16,0,0,1,40.57,180.35Zm1,.05a1.18,1.18,0,0,0,.26.83.85.85,0,0,0,1.26,0,1.24,1.24,0,0,0,.25-.84,1.2,1.2,0,0,0-.25-.82.83.83,0,0,0-1.26,0A1.17,1.17,0,0,0,41.56,180.4Z"/><path class="cls-3" d="M44.31,181.18l1-.15a.69.69,0,0,0,.25.43.87.87,0,0,0,.52.14,1,1,0,0,0,.56-.13.3.3,0,0,0,.13-.26.24.24,0,0,0-.07-.18.7.7,0,0,0-.32-.13,5.11,5.11,0,0,1-1.47-.47.91.91,0,0,1-.43-.81,1,1,0,0,1,.37-.8A1.75,1.75,0,0,1,46,178.5a1.94,1.94,0,0,1,1.11.25,1.24,1.24,0,0,1,.5.71l-.91.17a.52.52,0,0,0-.21-.32.8.8,0,0,0-.47-.12,1,1,0,0,0-.54.11.22.22,0,0,0,0,.37,4.15,4.15,0,0,0,.9.27,2.55,2.55,0,0,1,1.07.43.87.87,0,0,1,.3.71,1.09,1.09,0,0,1-.41.86,1.85,1.85,0,0,1-1.24.36,2,2,0,0,1-1.17-.3A1.41,1.41,0,0,1,44.31,181.18Z"/><path class="cls-3" d="M49.14,182.3l1.24-5.18h.72l-1.26,5.18Z"/><path class="cls-3" d="M52.71,182.21v-5h3.71v.85h-2.7v1.11h2.51V180H53.72v1.36h2.8v.84Z"/><path class="cls-3" d="M56.88,178.58h.88v.5a1.46,1.46,0,0,1,1.13-.58,1.17,1.17,0,0,1,.61.15,1.09,1.09,0,0,1,.42.43,1.67,1.67,0,0,1,.51-.43,1.27,1.27,0,0,1,.6-.15,1.38,1.38,0,0,1,.67.16,1,1,0,0,1,.42.48,2.24,2.24,0,0,1,.1.75v2.32h-1v-2.07a1.72,1.72,0,0,0-.09-.7.47.47,0,0,0-.41-.2.67.67,0,0,0-.64.48,2.69,2.69,0,0,0-.08.75v1.74h-1v-2a3,3,0,0,0,0-.69.44.44,0,0,0-.16-.23.5.5,0,0,0-.29-.07.69.69,0,0,0-.66.46,2.68,2.68,0,0,0-.07.75v1.76h-1Z"/><path class="cls-3" d="M62.72,178.58h.9v.54a1.45,1.45,0,0,1,.47-.45,1.35,1.35,0,0,1,.66-.17,1.41,1.41,0,0,1,1.08.5,2.41,2.41,0,0,1,0,2.79,1.36,1.36,0,0,1-1.07.51,1.2,1.2,0,0,1-.55-.12,2,2,0,0,1-.51-.41v1.83h-1Zm1,1.76a1.38,1.38,0,0,0,.24.9.72.72,0,0,0,.59.29.7.7,0,0,0,.56-.26,1.45,1.45,0,0,0,.22-.88,1.33,1.33,0,0,0-.23-.85.69.69,0,0,0-.57-.28.73.73,0,0,0-.58.27A1.19,1.19,0,0,0,63.68,180.34Z"/><path class="cls-3" d="M67.53,182.21h-1v-3.63h.89v.52a1.61,1.61,0,0,1,.41-.48.74.74,0,0,1,.42-.12,1.23,1.23,0,0,1,.63.18l-.3.84a.88.88,0,0,0-.45-.16.5.5,0,0,0-.34.12.66.66,0,0,0-.22.4,5.25,5.25,0,0,0-.08,1.21Z"/><path class="cls-3" d="M71,181.06l1,.16a1.56,1.56,0,0,1-.58.8,1.76,1.76,0,0,1-1,.28,1.63,1.63,0,0,1-1.4-.62,2.08,2.08,0,0,1-.36-1.25A2,2,0,0,1,69.1,179a1.58,1.58,0,0,1,1.2-.51,1.62,1.62,0,0,1,1.28.54,2.33,2.33,0,0,1,.44,1.64h-2.4a.93.93,0,0,0,.23.66.72.72,0,0,0,.55.24.6.6,0,0,0,.38-.12A.82.82,0,0,0,71,181.06Zm.06-1a1,1,0,0,0-.22-.64.65.65,0,0,0-.49-.21.64.64,0,0,0-.52.23.88.88,0,0,0-.21.62Z"/><path class="cls-3" d="M72.05,181.18l1-.15a.69.69,0,0,0,.25.43.9.9,0,0,0,.53.14,1,1,0,0,0,.56-.13.32.32,0,0,0,.12-.26.28.28,0,0,0-.06-.18.76.76,0,0,0-.33-.13,5.23,5.23,0,0,1-1.47-.47.91.91,0,0,1-.43-.81,1,1,0,0,1,.37-.8,1.78,1.78,0,0,1,1.16-.32,2,2,0,0,1,1.11.25,1.23,1.23,0,0,1,.49.71l-.9.17a.53.53,0,0,0-.22-.32.78.78,0,0,0-.47-.12,1,1,0,0,0-.54.11.23.23,0,0,0-.11.19.21.21,0,0,0,.1.18,3.76,3.76,0,0,0,.9.27,2.61,2.61,0,0,1,1.07.43.87.87,0,0,1,.3.71,1.1,1.1,0,0,1-.42.86,1.84,1.84,0,0,1-1.23.36,2,2,0,0,1-1.18-.3A1.39,1.39,0,0,1,72.05,181.18Z"/><path class="cls-3" d="M76.58,179.69l-.87-.16a1.26,1.26,0,0,1,.5-.77,1.86,1.86,0,0,1,1.07-.26,2.11,2.11,0,0,1,1,.16,1,1,0,0,1,.45.38,2.07,2.07,0,0,1,.13.86l0,1.12a3.92,3.92,0,0,0,0,.71,2.14,2.14,0,0,0,.17.48h-1l-.09-.28c0-.06,0-.09,0-.11a1.78,1.78,0,0,1-.53.36,1.53,1.53,0,0,1-.6.12,1.2,1.2,0,0,1-.88-.31,1,1,0,0,1-.32-.77,1.15,1.15,0,0,1,.14-.55.93.93,0,0,1,.42-.36,3.16,3.16,0,0,1,.76-.23,5.09,5.09,0,0,0,.93-.23v-.1a.48.48,0,0,0-.13-.39.84.84,0,0,0-.52-.12.68.68,0,0,0-.4.1A.67.67,0,0,0,76.58,179.69Zm1.28.78-.58.15a1.79,1.79,0,0,0-.53.17.39.39,0,0,0-.18.33.47.47,0,0,0,.15.35.5.5,0,0,0,.38.15.83.83,0,0,0,.49-.17.55.55,0,0,0,.23-.32,1.65,1.65,0,0,0,0-.47Z"/><path class="cls-3" d="M80.34,182.3l1.24-5.18h.72l-1.25,5.18Z"/><path class="cls-3" d="M85.19,182.21l-1.79-5h1.1l1.26,3.71L87,177.2h1.08l-1.8,5Z"/><path class="cls-3" d="M88.16,182.21v-5h1.63a5.8,5.8,0,0,1,1.2.08,1.27,1.27,0,0,1,.72.49,1.58,1.58,0,0,1,.29,1,1.65,1.65,0,0,1-.17.77,1.39,1.39,0,0,1-.42.5,1.64,1.64,0,0,1-.53.23,5.6,5.6,0,0,1-1,.07h-.66v1.89Zm1-4.16v1.42h.56a2.4,2.4,0,0,0,.8-.08.62.62,0,0,0,.31-.24.65.65,0,0,0,.12-.39.69.69,0,0,0-.16-.45.72.72,0,0,0-.41-.22,3.83,3.83,0,0,0-.73,0Z"/><rect class="cls-4" y="199.72" width="111.51" height="57.88"/><path class="cls-3" d="M34.16,222.09H32.91l-.5-1.3H30.12l-.48,1.3H28.42l2.23-5.72h1.22ZM32,219.83l-.78-2.13-.78,2.13Z"/><path class="cls-3" d="M38.57,222.09h-1v-.61a1.58,1.58,0,0,1-.6.53,1.48,1.48,0,0,1-.69.18,1.6,1.6,0,0,1-1.23-.58,2.8,2.8,0,0,1,0-3.21,1.6,1.6,0,0,1,1.25-.55,1.55,1.55,0,0,1,1.21.58v-2.06h1.09Zm-2.93-2.16a1.92,1.92,0,0,0,.19,1,.83.83,0,0,0,1.38.11,1.5,1.5,0,0,0,.27-1,1.62,1.62,0,0,0-.26-1,.81.81,0,0,0-.66-.32.8.8,0,0,0-.65.31A1.39,1.39,0,0,0,35.64,219.93Z"/><path class="cls-3" d="M39.57,218h1v.56a1.65,1.65,0,0,1,1.3-.66,1.41,1.41,0,0,1,.69.17,1.26,1.26,0,0,1,.48.49,1.77,1.77,0,0,1,.59-.49,1.46,1.46,0,0,1,.68-.17,1.44,1.44,0,0,1,.77.19,1.09,1.09,0,0,1,.47.54,2.32,2.32,0,0,1,.11.86v2.65H44.58v-2.37a1.65,1.65,0,0,0-.12-.79.5.5,0,0,0-.46-.24.79.79,0,0,0-.44.14.83.83,0,0,0-.29.41,3,3,0,0,0-.09.86v2h-1.1v-2.27A3.11,3.11,0,0,0,42,219a.47.47,0,0,0-.18-.26.54.54,0,0,0-.33-.09.83.83,0,0,0-.46.14.72.72,0,0,0-.29.39,2.89,2.89,0,0,0-.09.86v2h-1.1Z"/><path class="cls-3" d="M46.77,217.38v-1h1.1v1Zm0,4.71V218h1.1v4.14Z"/><path class="cls-3" d="M52.76,222.09H51.67V220a3.6,3.6,0,0,0-.07-.87.67.67,0,0,0-.23-.31.68.68,0,0,0-.38-.11.84.84,0,0,0-.51.16.7.7,0,0,0-.31.41,3.33,3.33,0,0,0-.09,1v1.88H49V218h1v.6a1.7,1.7,0,0,1,1.37-.7A1.76,1.76,0,0,1,52,218a1.11,1.11,0,0,1,.46.34,1.21,1.21,0,0,1,.21.46,3.47,3.47,0,0,1,.06.74Z"/><path class="cls-3" d="M53.88,217.38v-1H55v1Zm0,4.71V218H55v4.14Z"/><path class="cls-3" d="M55.71,220.91l1.11-.17a.77.77,0,0,0,.28.49,1,1,0,0,0,.6.16,1.1,1.1,0,0,0,.64-.15.35.35,0,0,0,.15-.29.29.29,0,0,0-.08-.21,1,1,0,0,0-.37-.15,5.91,5.91,0,0,1-1.68-.53,1.08,1.08,0,0,1-.49-.94,1.15,1.15,0,0,1,.42-.9,2,2,0,0,1,1.32-.37,2.28,2.28,0,0,1,1.27.28,1.46,1.46,0,0,1,.57.82l-1,.19a.61.61,0,0,0-.25-.37.88.88,0,0,0-.53-.13,1.21,1.21,0,0,0-.62.12.26.26,0,0,0-.12.22.22.22,0,0,0,.11.2,3.56,3.56,0,0,0,1,.31,3.1,3.1,0,0,1,1.23.49,1.05,1.05,0,0,1,.34.82,1.26,1.26,0,0,1-.48,1,2.14,2.14,0,0,1-1.41.41,2.31,2.31,0,0,1-1.34-.35A1.63,1.63,0,0,1,55.71,220.91Z"/><path class="cls-3" d="M62.45,218v.87H61.7v1.67a5.07,5.07,0,0,0,0,.59.24.24,0,0,0,.1.14.29.29,0,0,0,.19.06,1.45,1.45,0,0,0,.44-.11l.09.85a2.14,2.14,0,0,1-.87.17,1.51,1.51,0,0,1-.53-.1.75.75,0,0,1-.35-.26,1,1,0,0,1-.15-.43,4.28,4.28,0,0,1,0-.77v-1.81h-.5V218h.5v-.83l1.1-.64V218Z"/><path class="cls-3" d="M64.26,222.09H63.17V218h1v.58a1.82,1.82,0,0,1,.47-.55,1,1,0,0,1,.47-.13,1.37,1.37,0,0,1,.72.21l-.34,1a.93.93,0,0,0-.51-.18.62.62,0,0,0-.39.12.87.87,0,0,0-.25.46,5.83,5.83,0,0,0-.1,1.39Z"/><path class="cls-3" d="M67.15,219.21l-1-.18a1.55,1.55,0,0,1,.58-.89,2.13,2.13,0,0,1,1.22-.29A2.53,2.53,0,0,1,69,218a1.07,1.07,0,0,1,.51.44,2.23,2.23,0,0,1,.14,1v1.28a4,4,0,0,0,.06.81,2.25,2.25,0,0,0,.19.55H68.85a2.8,2.8,0,0,1-.11-.32,1.11,1.11,0,0,0,0-.13,2.07,2.07,0,0,1-.6.41,1.72,1.72,0,0,1-.68.14,1.41,1.41,0,0,1-1-.35A1.13,1.13,0,0,1,66,221a1.15,1.15,0,0,1,.17-.63,1.07,1.07,0,0,1,.47-.42,3.43,3.43,0,0,1,.87-.25,6.89,6.89,0,0,0,1.07-.27v-.11a.58.58,0,0,0-.16-.45.92.92,0,0,0-.59-.14.76.76,0,0,0-.46.12A.72.72,0,0,0,67.15,219.21Zm1.47.89c-.14.05-.37.1-.67.17a1.88,1.88,0,0,0-.6.19.46.46,0,0,0-.21.39.54.54,0,0,0,.17.4.6.6,0,0,0,.44.16,1,1,0,0,0,.56-.19.7.7,0,0,0,.26-.36,2.1,2.1,0,0,0,.05-.54Z"/><path class="cls-3" d="M74.58,222.09h-1v-.61a1.58,1.58,0,0,1-.6.53,1.49,1.49,0,0,1-.7.18,1.6,1.6,0,0,1-1.22-.58,2.8,2.8,0,0,1,0-3.21,1.6,1.6,0,0,1,1.25-.55,1.54,1.54,0,0,1,1.2.58v-2.06h1.1Zm-2.93-2.16a1.94,1.94,0,0,0,.18,1,.84.84,0,0,0,.75.43.82.82,0,0,0,.64-.32,1.5,1.5,0,0,0,.27-1,1.62,1.62,0,0,0-.26-1,.81.81,0,0,0-.66-.32.8.8,0,0,0-.65.31A1.39,1.39,0,0,0,71.65,219.93Z"/><path class="cls-3" d="M75.41,220a2.26,2.26,0,0,1,.27-1.06,1.85,1.85,0,0,1,.76-.78,2.28,2.28,0,0,1,1.11-.27,2.1,2.1,0,0,1,1.54.61,2.13,2.13,0,0,1,.6,1.55,2.11,2.11,0,0,1-.61,1.56,2,2,0,0,1-1.53.62,2.39,2.39,0,0,1-1.08-.26,1.71,1.71,0,0,1-.79-.76A2.49,2.49,0,0,1,75.41,220Zm1.12.06a1.33,1.33,0,0,0,.3.94,1,1,0,0,0,1.44,0,1.38,1.38,0,0,0,.29-1,1.41,1.41,0,0,0-.29-.94,1,1,0,0,0-1.44,0A1.37,1.37,0,0,0,76.53,220Z"/><path class="cls-3" d="M81.6,222.09H80.5V218h1v.58A2,2,0,0,1,82,218a1,1,0,0,1,.48-.13,1.37,1.37,0,0,1,.72.21l-.34,1a1,1,0,0,0-.52-.18.65.65,0,0,0-.39.12.94.94,0,0,0-.25.46,6.67,6.67,0,0,0-.09,1.39Z"/><path class="cls-3" d="M38.33,225.54v-1h1.09v1Zm0,4.71v-4.14h1.09v4.14Z"/><path class="cls-3" d="M44.32,230.25h-1.1v-2.11a3.13,3.13,0,0,0-.07-.87.56.56,0,0,0-.23-.31.66.66,0,0,0-.38-.11A.84.84,0,0,0,42,227a.79.79,0,0,0-.31.41,3.94,3.94,0,0,0-.08,1v1.87h-1.1v-4.14h1v.61a1.67,1.67,0,0,1,1.37-.71,1.76,1.76,0,0,1,.66.13,1.18,1.18,0,0,1,.46.34,1.21,1.21,0,0,1,.21.46,3.47,3.47,0,0,1,.06.74Z"/><path class="cls-3" d="M49.24,230.25h-1v-.6a1.64,1.64,0,0,1-.6.52,1.49,1.49,0,0,1-.7.18,1.57,1.57,0,0,1-1.22-.58,2.83,2.83,0,0,1,0-3.21,1.66,1.66,0,0,1,1.26-.55,1.54,1.54,0,0,1,1.2.58v-2.06h1.1Zm-2.93-2.16a1.94,1.94,0,0,0,.18,1,.84.84,0,0,0,.75.43.82.82,0,0,0,.64-.32,1.48,1.48,0,0,0,.27-1,1.64,1.64,0,0,0-.26-1,.81.81,0,0,0-.66-.32.86.86,0,0,0-.66.31A1.45,1.45,0,0,0,46.31,228.09Z"/><path class="cls-3" d="M50.32,225.54v-1h1.1v1Zm0,4.71v-4.14h1.1v4.14Z"/><path class="cls-3" d="M56.16,227.33l-1.08.2a.79.79,0,0,0-.25-.49.73.73,0,0,0-.5-.16.84.84,0,0,0-.66.28,1.47,1.47,0,0,0-.24,1,1.64,1.64,0,0,0,.25,1,.88.88,0,0,0,1.18.13,1.16,1.16,0,0,0,.28-.62l1.08.19a2,2,0,0,1-.65,1.12,2,2,0,0,1-1.28.38,1.88,1.88,0,0,1-1.45-.58,2.22,2.22,0,0,1-.54-1.59,2.26,2.26,0,0,1,.54-1.6,2,2,0,0,1,1.47-.57,2,2,0,0,1,1.21.33A1.81,1.81,0,0,1,56.16,227.33Z"/><path class="cls-3" d="M57.81,227.37l-1-.18a1.51,1.51,0,0,1,.58-.89,2.12,2.12,0,0,1,1.21-.29,2.58,2.58,0,0,1,1.1.18,1,1,0,0,1,.5.44,2.2,2.2,0,0,1,.15,1v1.28a5,5,0,0,0,0,.81,2.31,2.31,0,0,0,.2.55H59.51a3.23,3.23,0,0,1-.1-.32c0-.06,0-.11,0-.13a2.07,2.07,0,0,1-.6.41,1.77,1.77,0,0,1-.69.14,1.44,1.44,0,0,1-1-.35,1.17,1.17,0,0,1-.37-.88,1.24,1.24,0,0,1,.17-.63,1.13,1.13,0,0,1,.47-.42,4,4,0,0,1,.88-.25,6.69,6.69,0,0,0,1.06-.27v-.11a.58.58,0,0,0-.15-.45.94.94,0,0,0-.59-.14.76.76,0,0,0-.46.12A.78.78,0,0,0,57.81,227.37Zm1.47.89a4.8,4.8,0,0,1-.67.17,2.21,2.21,0,0,0-.59.19.45.45,0,0,0-.22.39.58.58,0,0,0,.17.4.61.61,0,0,0,.44.16,1,1,0,0,0,.57-.19.7.7,0,0,0,.26-.36,2.24,2.24,0,0,0,0-.54Z"/><path class="cls-3" d="M65.25,230.25h-1v-.6a1.64,1.64,0,0,1-.6.52,1.49,1.49,0,0,1-.7.18,1.55,1.55,0,0,1-1.22-.58,2.83,2.83,0,0,1,0-3.21A1.64,1.64,0,0,1,63,226a1.54,1.54,0,0,1,1.2.58v-2.06h1.1Zm-2.93-2.16a1.94,1.94,0,0,0,.18,1,.84.84,0,0,0,1.39.11,1.55,1.55,0,0,0,.26-1,1.64,1.64,0,0,0-.25-1,.85.85,0,0,0-1.32,0A1.45,1.45,0,0,0,62.32,228.09Z"/><path class="cls-3" d="M66.08,228.12a2.37,2.37,0,0,1,.26-1.06,1.87,1.87,0,0,1,.77-.78,2.27,2.27,0,0,1,1.1-.27,2.09,2.09,0,0,1,2.15,2.16,2.15,2.15,0,0,1-.61,1.56,2.08,2.08,0,0,1-1.53.62,2.46,2.46,0,0,1-1.09-.26,1.76,1.76,0,0,1-.79-.76A2.61,2.61,0,0,1,66.08,228.12Zm1.12.06a1.42,1.42,0,0,0,.29.95,1,1,0,0,0,1.45,0,1.43,1.43,0,0,0,.29-1,1.36,1.36,0,0,0-.29-.93,1,1,0,0,0-1.45,0A1.37,1.37,0,0,0,67.2,228.18Z"/><path class="cls-3" d="M72.27,230.25h-1.1v-4.14h1v.59a1.6,1.6,0,0,1,.47-.55.86.86,0,0,1,.47-.14,1.43,1.43,0,0,1,.73.21l-.34,1A1,1,0,0,0,73,227a.65.65,0,0,0-.39.12.87.87,0,0,0-.25.46,6.67,6.67,0,0,0-.09,1.39Z"/><path class="cls-3" d="M27.89,236.31v-1h2.49v2.28a3.2,3.2,0,0,1-1.05.62,4,4,0,0,1-1.4.26,3.17,3.17,0,0,1-1.57-.37,2.38,2.38,0,0,1-1-1.08,3.57,3.57,0,0,1-.34-1.53,3.34,3.34,0,0,1,.38-1.59,2.51,2.51,0,0,1,1.1-1.06,2.93,2.93,0,0,1,1.37-.29,2.71,2.71,0,0,1,1.66.45,2.06,2.06,0,0,1,.78,1.24l-1.15.21a1.27,1.27,0,0,0-.46-.67,1.38,1.38,0,0,0-.83-.24,1.57,1.57,0,0,0-1.21.48,2.07,2.07,0,0,0-.44,1.43,2.25,2.25,0,0,0,.45,1.53,1.51,1.51,0,0,0,1.19.51,1.86,1.86,0,0,0,.72-.15,2.34,2.34,0,0,0,.63-.34v-.73Z"/><path class="cls-3" d="M32.49,238.42h-1.1v-4.15h1v.59a1.84,1.84,0,0,1,.47-.55.87.87,0,0,1,.48-.14,1.37,1.37,0,0,1,.72.21l-.34,1a1,1,0,0,0-.52-.18.65.65,0,0,0-.39.12.94.94,0,0,0-.25.46,6.74,6.74,0,0,0-.09,1.39Z"/><path class="cls-3" d="M37.28,238.42v-.63a1.58,1.58,0,0,1-.59.53,1.66,1.66,0,0,1-.78.19,1.54,1.54,0,0,1-.75-.18,1.15,1.15,0,0,1-.48-.52,2.29,2.29,0,0,1-.15-.92v-2.62h1.1v1.9a5.45,5.45,0,0,0,.06,1.08.58.58,0,0,0,.22.31.63.63,0,0,0,.4.11.9.9,0,0,0,.51-.15.73.73,0,0,0,.3-.38A4.29,4.29,0,0,0,37.2,236v-1.75h1.1v4.15Z"/><path class="cls-3" d="M39.41,234.27h1v.61a1.47,1.47,0,0,1,.54-.51,1.5,1.5,0,0,1,.75-.2,1.58,1.58,0,0,1,1.23.57,2.27,2.27,0,0,1,.5,1.58,2.34,2.34,0,0,1-.5,1.61,1.57,1.57,0,0,1-1.23.58,1.46,1.46,0,0,1-.63-.14,2.08,2.08,0,0,1-.59-.47V240H39.41Zm1.08,2a1.6,1.6,0,0,0,.28,1,.84.84,0,0,0,.68.34.78.78,0,0,0,.63-.31,1.56,1.56,0,0,0,.26-1,1.52,1.52,0,0,0-.26-1,.85.85,0,0,0-1.32,0A1.38,1.38,0,0,0,40.49,236.27Z"/><path class="cls-3" d="M44.07,236.28a2.29,2.29,0,0,1,.27-1.06,1.9,1.9,0,0,1,.76-.78,2.28,2.28,0,0,1,1.11-.27,2.09,2.09,0,0,1,1.54.61,2.32,2.32,0,0,1,0,3.11,2.08,2.08,0,0,1-1.53.62,2.43,2.43,0,0,1-1.09-.26,1.74,1.74,0,0,1-.79-.75A2.56,2.56,0,0,1,44.07,236.28Zm1.13.06a1.37,1.37,0,0,0,.29.95.92.92,0,0,0,.72.33.91.91,0,0,0,.72-.33,1.38,1.38,0,0,0,.29-1,1.33,1.33,0,0,0-.29-.93.91.91,0,0,0-.72-.33.92.92,0,0,0-.72.33A1.34,1.34,0,0,0,45.2,236.34Z"/><path class="cls-3" d="M50.85,238.51l1.42-5.92h.82l-1.43,5.92Z"/><path class="cls-3" d="M55.9,238.42v-5.73H57l2.35,3.82v-3.82h1.07v5.73H59.28L57,234.68v3.74Z"/><path class="cls-3" d="M64.06,237.1l1.09.18a1.82,1.82,0,0,1-.66.92,2,2,0,0,1-1.14.31,1.85,1.85,0,0,1-1.6-.71,2.33,2.33,0,0,1-.41-1.43,2.29,2.29,0,0,1,.54-1.61,1.77,1.77,0,0,1,1.36-.59,1.86,1.86,0,0,1,1.46.61,2.69,2.69,0,0,1,.51,1.88H62.46a1.13,1.13,0,0,0,.27.76.83.83,0,0,0,.63.27.67.67,0,0,0,.43-.14A.91.91,0,0,0,64.06,237.1Zm.06-1.11a1.12,1.12,0,0,0-.24-.73.79.79,0,0,0-.57-.25.77.77,0,0,0-.6.27,1,1,0,0,0-.23.71Z"/><path class="cls-3" d="M66,238.69l1.26.15a.42.42,0,0,0,.14.3.84.84,0,0,0,.5.12,1.22,1.22,0,0,0,.64-.13.53.53,0,0,0,.22-.28,1.8,1.8,0,0,0,0-.5v-.61a1.49,1.49,0,0,1-1.24.68,1.55,1.55,0,0,1-1.33-.71,2.45,2.45,0,0,1-.38-1.39,2.32,2.32,0,0,1,.5-1.6,1.65,1.65,0,0,1,1.25-.55,1.53,1.53,0,0,1,1.27.68v-.58h1V238a3.75,3.75,0,0,1-.12,1.1,1.44,1.44,0,0,1-.34.57,1.51,1.51,0,0,1-.59.32,3,3,0,0,1-.92.12,2.43,2.43,0,0,1-1.5-.36,1.15,1.15,0,0,1-.44-.92Zm1-2.43a1.47,1.47,0,0,0,.25,1,.78.78,0,0,0,.63.31.87.87,0,0,0,.68-.32,1.34,1.34,0,0,0,.28-.93,1.4,1.4,0,0,0-.27-.95.85.85,0,0,0-1.32,0A1.45,1.45,0,0,0,67,236.26Z"/><path class="cls-3" d="M70.74,236.28a2.29,2.29,0,0,1,.27-1.06,1.85,1.85,0,0,1,.76-.78,2.28,2.28,0,0,1,1.11-.27,2.1,2.1,0,0,1,1.54.61,2.13,2.13,0,0,1,.6,1.55,2.11,2.11,0,0,1-.61,1.56,2,2,0,0,1-1.53.62,2.39,2.39,0,0,1-1.08-.26,1.74,1.74,0,0,1-.79-.75A2.56,2.56,0,0,1,70.74,236.28Zm1.12.06a1.37,1.37,0,0,0,.3.95,1,1,0,0,0,1.44,0,1.43,1.43,0,0,0,.29-1,1.38,1.38,0,0,0-.29-.93,1,1,0,0,0-1.44,0A1.34,1.34,0,0,0,71.86,236.34Z"/><path class="cls-3" d="M79.5,235.49l-1.08.2a.79.79,0,0,0-.25-.49.75.75,0,0,0-.5-.16.81.81,0,0,0-.66.28,1.47,1.47,0,0,0-.24,1,1.71,1.71,0,0,0,.24,1,.84.84,0,0,0,.67.31.72.72,0,0,0,.51-.18,1,1,0,0,0,.28-.61l1.08.18a1.94,1.94,0,0,1-.64,1.12,2,2,0,0,1-1.28.38,1.9,1.9,0,0,1-1.45-.57,2.25,2.25,0,0,1-.54-1.59,2.23,2.23,0,0,1,.54-1.6,1.9,1.9,0,0,1,1.47-.58,2,2,0,0,1,1.2.33A1.82,1.82,0,0,1,79.5,235.49Z"/><path class="cls-3" d="M80.33,233.7v-1h1.1v1Zm0,4.72v-4.15h1.1v4.15Z"/><path class="cls-3" d="M82.3,236.28a2.29,2.29,0,0,1,.27-1.06,1.85,1.85,0,0,1,.76-.78,2.27,2.27,0,0,1,1.1-.27,2.11,2.11,0,0,1,1.55.61,2.13,2.13,0,0,1,.6,1.55,2.11,2.11,0,0,1-.61,1.56,2,2,0,0,1-1.53.62,2.46,2.46,0,0,1-1.09-.26,1.77,1.77,0,0,1-.78-.75A2.56,2.56,0,0,1,82.3,236.28Zm1.12.06a1.37,1.37,0,0,0,.3.95.91.91,0,0,0,.72.33.94.94,0,0,0,.72-.33,1.43,1.43,0,0,0,.29-1,1.38,1.38,0,0,0-.29-.93.94.94,0,0,0-.72-.33.91.91,0,0,0-.72.33A1.34,1.34,0,0,0,83.42,236.34Z"/><rect class="cls-2" y="257.6" width="111.51" height="57.88"/><path class="cls-3" d="M40.16,284H38.9l-.5-1.3H36.11l-.47,1.3H34.41l2.23-5.72h1.23ZM38,281.71l-.79-2.13-.77,2.13Z"/><path class="cls-3" d="M44.54,284h-1.1v-2.11a3.13,3.13,0,0,0-.07-.87.61.61,0,0,0-.23-.31.66.66,0,0,0-.38-.11.84.84,0,0,0-.51.16.79.79,0,0,0-.31.41,3.48,3.48,0,0,0-.08,1V284h-1.1v-4.14h1v.61a1.65,1.65,0,0,1,1.36-.71,1.78,1.78,0,0,1,.67.13,1.07,1.07,0,0,1,.45.34,1.09,1.09,0,0,1,.22.46,3.47,3.47,0,0,1,.06.74Z"/><path class="cls-3" d="M46.47,281.09l-1-.18a1.54,1.54,0,0,1,.57-.89,2.15,2.15,0,0,1,1.22-.29,2.58,2.58,0,0,1,1.1.18,1,1,0,0,1,.5.44,2.2,2.2,0,0,1,.15,1v1.28a5.12,5.12,0,0,0,.05.81,2.31,2.31,0,0,0,.2.55H48.17a3.23,3.23,0,0,1-.1-.32,1.11,1.11,0,0,0,0-.13,2.07,2.07,0,0,1-.6.41,1.81,1.81,0,0,1-.69.14,1.44,1.44,0,0,1-1-.35,1.17,1.17,0,0,1-.37-.88,1.24,1.24,0,0,1,.17-.63,1.13,1.13,0,0,1,.47-.42,4,4,0,0,1,.88-.25,6.69,6.69,0,0,0,1.06-.27v-.11a.58.58,0,0,0-.15-.45,1,1,0,0,0-.59-.14.76.76,0,0,0-.46.12A.78.78,0,0,0,46.47,281.09Zm1.47.89a6.87,6.87,0,0,1-.67.17,2.21,2.21,0,0,0-.59.19.45.45,0,0,0-.22.39.58.58,0,0,0,.17.4.61.61,0,0,0,.44.16,1,1,0,0,0,.57-.19.7.7,0,0,0,.26-.36,2.24,2.24,0,0,0,0-.54Z"/><path class="cls-3" d="M50.1,284v-5.72h1.1V284Z"/><path class="cls-3" d="M52.32,279.26v-1h1.1v1Zm0,4.71v-4.14h1.1V284Z"/><path class="cls-3" d="M54.16,282.79l1.1-.17a.78.78,0,0,0,.29.49,1,1,0,0,0,.6.17,1.12,1.12,0,0,0,.64-.16.33.33,0,0,0,.14-.29.28.28,0,0,0-.07-.21,1,1,0,0,0-.37-.15,5.89,5.89,0,0,1-1.69-.53,1.08,1.08,0,0,1-.49-.93,1.14,1.14,0,0,1,.43-.91,2,2,0,0,1,1.32-.37,2.22,2.22,0,0,1,1.26.28,1.37,1.37,0,0,1,.57.82l-1,.19a.65.65,0,0,0-.25-.37.9.9,0,0,0-.53-.13,1.18,1.18,0,0,0-.62.12.26.26,0,0,0-.13.23.24.24,0,0,0,.11.19,3.68,3.68,0,0,0,1,.31,3.19,3.19,0,0,1,1.22.49,1,1,0,0,1,.35.82,1.26,1.26,0,0,1-.48,1,2.14,2.14,0,0,1-1.41.41,2.29,2.29,0,0,1-1.34-.35A1.58,1.58,0,0,1,54.16,282.79Z"/><path class="cls-3" d="M60.9,279.83v.87h-.75v1.67a5.07,5.07,0,0,0,0,.59.21.21,0,0,0,.1.14.28.28,0,0,0,.18.06,1.45,1.45,0,0,0,.44-.11l.1.85a2.21,2.21,0,0,1-.87.17,1.47,1.47,0,0,1-.53-.1.75.75,0,0,1-.35-.26.94.94,0,0,1-.16-.43,6.05,6.05,0,0,1,0-.77V280.7h-.51v-.87h.51V279l1.1-.64v1.47Z"/><path class="cls-3" d="M62.48,281.09l-1-.18a1.6,1.6,0,0,1,.58-.89,2.15,2.15,0,0,1,1.22-.29,2.58,2.58,0,0,1,1.1.18,1.09,1.09,0,0,1,.5.44,2.2,2.2,0,0,1,.15,1v1.28a4.14,4.14,0,0,0,0,.81,1.94,1.94,0,0,0,.2.55H64.18c0-.07-.06-.18-.11-.32s0-.11,0-.13a2,2,0,0,1-.61.41,1.72,1.72,0,0,1-.68.14,1.42,1.42,0,0,1-1-.35,1.13,1.13,0,0,1-.37-.88,1.24,1.24,0,0,1,.17-.63,1.13,1.13,0,0,1,.47-.42,3.9,3.9,0,0,1,.87-.25,6.59,6.59,0,0,0,1.07-.27v-.11a.55.55,0,0,0-.16-.45.92.92,0,0,0-.59-.14.75.75,0,0,0-.45.12A.78.78,0,0,0,62.48,281.09ZM64,282a6.87,6.87,0,0,1-.67.17,2.47,2.47,0,0,0-.6.19.46.46,0,0,0-.21.39.58.58,0,0,0,.17.4.6.6,0,0,0,.44.16.92.92,0,0,0,.56-.19.72.72,0,0,0,.27-.36,2.94,2.94,0,0,0,0-.54Z"/><path class="cls-3" d="M72.14,284h-1v-.6a1.64,1.64,0,0,1-.6.52,1.52,1.52,0,0,1-.7.18,1.55,1.55,0,0,1-1.22-.58,2.83,2.83,0,0,1,0-3.21,1.61,1.61,0,0,1,1.26-.55,1.54,1.54,0,0,1,1.2.58v-2.06h1.1Zm-2.93-2.16a1.94,1.94,0,0,0,.18,1,.84.84,0,0,0,1.39.11,1.55,1.55,0,0,0,.26-1,1.64,1.64,0,0,0-.25-1,.85.85,0,0,0-1.32,0A1.39,1.39,0,0,0,69.21,281.81Z"/><path class="cls-3" d="M75.62,282.65l1.09.19a1.79,1.79,0,0,1-.66.91,1.94,1.94,0,0,1-1.14.32,1.86,1.86,0,0,1-1.6-.71,2.4,2.4,0,0,1-.41-1.43,2.27,2.27,0,0,1,.54-1.61,1.77,1.77,0,0,1,1.36-.59,1.85,1.85,0,0,1,1.46.61,2.69,2.69,0,0,1,.51,1.88H74a1.13,1.13,0,0,0,.27.76.83.83,0,0,0,.63.27.72.72,0,0,0,.44-.14A1,1,0,0,0,75.62,282.65Zm.06-1.11a1.06,1.06,0,0,0-.24-.72.8.8,0,0,0-1.17,0,1.06,1.06,0,0,0-.23.71Z"/><path class="cls-3" d="M38.33,287.42v-1h1.09v1Zm0,4.72V288h1.09v4.15Z"/><path class="cls-3" d="M44.32,292.14h-1.1V290a3.13,3.13,0,0,0-.07-.87.63.63,0,0,0-.22-.31.71.71,0,0,0-.39-.11.84.84,0,0,0-.51.16.79.79,0,0,0-.31.41,4,4,0,0,0-.08,1v1.88h-1.1V288h1v.61a1.67,1.67,0,0,1,1.37-.71,1.76,1.76,0,0,1,.66.13,1.18,1.18,0,0,1,.46.34,1.21,1.21,0,0,1,.21.46,3.47,3.47,0,0,1,.06.74Z"/><path class="cls-3" d="M49.24,292.14h-1v-.61a1.77,1.77,0,0,1-.6.53,1.6,1.6,0,0,1-.7.17,1.57,1.57,0,0,1-1.22-.58,2.33,2.33,0,0,1-.51-1.6,2.29,2.29,0,0,1,.5-1.61,1.62,1.62,0,0,1,1.25-.55,1.57,1.57,0,0,1,1.2.58v-2.06h1.1ZM46.31,290a1.94,1.94,0,0,0,.18,1,.84.84,0,0,0,.75.43.82.82,0,0,0,.64-.32,1.48,1.48,0,0,0,.27-1,1.64,1.64,0,0,0-.26-1,.81.81,0,0,0-.66-.32.86.86,0,0,0-.66.31A1.45,1.45,0,0,0,46.31,290Z"/><path class="cls-3" d="M50.32,287.42v-1h1.1v1Zm0,4.72V288h1.1v4.15Z"/><path class="cls-3" d="M56.16,289.21l-1.08.2a.79.79,0,0,0-.25-.49.73.73,0,0,0-.5-.16.81.81,0,0,0-.65.28,1.41,1.41,0,0,0-.25.95,1.64,1.64,0,0,0,.25,1,.82.82,0,0,0,.67.3.75.75,0,0,0,.51-.17,1.16,1.16,0,0,0,.28-.61l1.08.18a2,2,0,0,1-.65,1.12,2,2,0,0,1-1.28.38,1.91,1.91,0,0,1-1.45-.57,2.25,2.25,0,0,1-.54-1.59,2.19,2.19,0,0,1,.55-1.6,1.89,1.89,0,0,1,1.46-.58,2,2,0,0,1,1.21.33A1.81,1.81,0,0,1,56.16,289.21Z"/><path class="cls-3" d="M57.81,289.25l-1-.18a1.51,1.51,0,0,1,.58-.89,2.13,2.13,0,0,1,1.22-.29,2.56,2.56,0,0,1,1.09.18,1,1,0,0,1,.5.44,2.2,2.2,0,0,1,.15,1v1.28a5,5,0,0,0,0,.81,2.54,2.54,0,0,0,.2.56H59.51c0-.08-.06-.19-.1-.33s0-.11,0-.13a1.89,1.89,0,0,1-.6.41,1.77,1.77,0,0,1-.69.14,1.44,1.44,0,0,1-1-.35,1.27,1.27,0,0,1-.2-1.5,1.15,1.15,0,0,1,.47-.43,4.19,4.19,0,0,1,.88-.25,6.69,6.69,0,0,0,1.06-.27v-.11a.58.58,0,0,0-.15-.45.94.94,0,0,0-.59-.14.76.76,0,0,0-.46.12A.83.83,0,0,0,57.81,289.25Zm1.47.89a5,5,0,0,1-.66.17,2.18,2.18,0,0,0-.6.19.45.45,0,0,0-.22.39.56.56,0,0,0,.17.4.64.64,0,0,0,.44.17,1,1,0,0,0,.57-.2.7.7,0,0,0,.26-.36,2.24,2.24,0,0,0,0-.54Z"/><path class="cls-3" d="M65.25,292.14h-1v-.61a1.77,1.77,0,0,1-.6.53,1.6,1.6,0,0,1-.7.17,1.57,1.57,0,0,1-1.22-.58,2.83,2.83,0,0,1,0-3.21,1.64,1.64,0,0,1,1.26-.55,1.57,1.57,0,0,1,1.2.58v-2.06h1.1ZM62.32,290a1.94,1.94,0,0,0,.18,1,.84.84,0,0,0,1.39.11,1.48,1.48,0,0,0,.26-1,1.64,1.64,0,0,0-.25-1,.84.84,0,0,0-.66-.32.86.86,0,0,0-.66.31A1.45,1.45,0,0,0,62.32,290Z"/><path class="cls-3" d="M66.08,290a2.26,2.26,0,0,1,.27-1.06,1.85,1.85,0,0,1,.76-.78,2.27,2.27,0,0,1,1.1-.27,2.2,2.2,0,0,1,1.54,3.72,2.08,2.08,0,0,1-1.53.62,2.46,2.46,0,0,1-1.09-.26,1.77,1.77,0,0,1-.78-.75A2.56,2.56,0,0,1,66.08,290Zm1.12.06a1.42,1.42,0,0,0,.29.95,1,1,0,0,0,1.45,0,1.43,1.43,0,0,0,.29-1,1.36,1.36,0,0,0-.29-.93,1,1,0,0,0-1.45,0A1.37,1.37,0,0,0,67.2,290.06Z"/><path class="cls-3" d="M72.27,292.14h-1.1V288h1v.59a1.7,1.7,0,0,1,.47-.55.86.86,0,0,1,.47-.14,1.4,1.4,0,0,1,.73.21l-.34,1a1,1,0,0,0-.52-.18.65.65,0,0,0-.39.12.87.87,0,0,0-.25.46,6.74,6.74,0,0,0-.09,1.39Z"/><path class="cls-4" d="M0,315.48H111.51a0,0,0,0,1,0,0v54.17a3.71,3.71,0,0,1-3.71,3.71H3.71A3.71,3.71,0,0,1,0,369.65V315.48A0,0,0,0,1,0,315.48Z"/><path class="cls-3" d="M37,330.28H39.1a4.23,4.23,0,0,1,1.09.11,2,2,0,0,1,.87.53,2.38,2.38,0,0,1,.54.93,4.11,4.11,0,0,1,.19,1.35,4,4,0,0,1-.17,1.22,2.48,2.48,0,0,1-.62,1,2,2,0,0,1-.81.46,3.56,3.56,0,0,1-1,.12H37Zm1.16,1v3.8H39a2.89,2.89,0,0,0,.7-.06,1,1,0,0,0,.47-.24,1.22,1.22,0,0,0,.3-.55,3.69,3.69,0,0,0,.12-1.05,3.37,3.37,0,0,0-.12-1,1.35,1.35,0,0,0-.33-.55,1.16,1.16,0,0,0-.53-.27,4.87,4.87,0,0,0-.95-.06Z"/><path class="cls-3" d="M42.76,331.3v-1h1.1v1Zm0,4.71v-4.15h1.1V336Z"/><path class="cls-3" d="M46,336h-1.1v-4.15h1v.59a1.7,1.7,0,0,1,.47-.55.85.85,0,0,1,.47-.13,1.4,1.4,0,0,1,.73.21l-.34.95a1,1,0,0,0-.52-.18.65.65,0,0,0-.39.13.87.87,0,0,0-.25.46,6.6,6.6,0,0,0-.09,1.39Z"/><path class="cls-3" d="M50.5,334.69l1.1.18a1.79,1.79,0,0,1-.67.92,1.94,1.94,0,0,1-1.14.32,1.86,1.86,0,0,1-1.6-.71,2.42,2.42,0,0,1-.41-1.43,2.3,2.3,0,0,1,.54-1.62,1.76,1.76,0,0,1,1.36-.58,1.82,1.82,0,0,1,1.46.61,2.66,2.66,0,0,1,.51,1.87H48.9a1.11,1.11,0,0,0,.27.76.83.83,0,0,0,.63.27.66.66,0,0,0,.44-.14A.88.88,0,0,0,50.5,334.69Zm.06-1.11a1,1,0,0,0-.24-.72.75.75,0,0,0-.57-.25.79.79,0,0,0-.6.26,1.06,1.06,0,0,0-.23.71Z"/><path class="cls-3" d="M56.17,333.09l-1.09.19a.79.79,0,0,0-.24-.48.77.77,0,0,0-.51-.17.81.81,0,0,0-.65.29,1.44,1.44,0,0,0-.24.94,1.74,1.74,0,0,0,.24,1.05.83.83,0,0,0,.67.3.72.72,0,0,0,.51-.18,1.05,1.05,0,0,0,.28-.61l1.08.19a2,2,0,0,1-.64,1.12,2,2,0,0,1-1.28.38,1.9,1.9,0,0,1-1.45-.58,2.22,2.22,0,0,1-.54-1.59,2.25,2.25,0,0,1,.54-1.6,1.93,1.93,0,0,1,1.47-.57,2,2,0,0,1,1.2.33A1.75,1.75,0,0,1,56.17,333.09Z"/><path class="cls-3" d="M58.9,331.86v.88h-.75v1.67a5.07,5.07,0,0,0,0,.59.28.28,0,0,0,.1.14.29.29,0,0,0,.19.06,1.52,1.52,0,0,0,.44-.11l.09.85a2.14,2.14,0,0,1-.87.17,1.47,1.47,0,0,1-.53-.1.82.82,0,0,1-.35-.26,1,1,0,0,1-.16-.43,6.28,6.28,0,0,1,0-.77v-1.81h-.51v-.88h.51V331l1.1-.64v1.46Z"/><path class="cls-3" d="M59.66,331.3v-1h1.1v1Zm0,4.71v-4.15h1.1V336Z"/><path class="cls-3" d="M63,336l-1.68-4.15h1.16l.78,2.12.22.71.12-.36c0-.12.07-.23.11-.35l.79-2.12h1.13L64,336Z"/><path class="cls-3" d="M66.08,333.88a2.23,2.23,0,0,1,.27-1.06,1.85,1.85,0,0,1,.76-.78,2.28,2.28,0,0,1,1.11-.27,2.06,2.06,0,0,1,1.54.61,2.12,2.12,0,0,1,.6,1.55,2.14,2.14,0,0,1-.61,1.56,2,2,0,0,1-1.53.62,2.39,2.39,0,0,1-1.08-.26,1.76,1.76,0,0,1-.79-.76A2.49,2.49,0,0,1,66.08,333.88Zm1.13.06a1.34,1.34,0,0,0,.29.94,1,1,0,0,0,1.44,0,1.68,1.68,0,0,0,0-1.89,1,1,0,0,0-1.44,0A1.37,1.37,0,0,0,67.21,333.94Z"/><path class="cls-3" d="M70.83,334.83l1.11-.17a.8.8,0,0,0,.28.49,1,1,0,0,0,.6.16,1.1,1.1,0,0,0,.64-.15.36.36,0,0,0,.15-.3.28.28,0,0,0-.08-.2.88.88,0,0,0-.37-.15,5.91,5.91,0,0,1-1.68-.53A1.08,1.08,0,0,1,71,333a1.14,1.14,0,0,1,.42-.9,2,2,0,0,1,1.32-.37,2.28,2.28,0,0,1,1.27.28,1.43,1.43,0,0,1,.57.82l-1,.19a.58.58,0,0,0-.25-.37.88.88,0,0,0-.53-.13,1.21,1.21,0,0,0-.62.12.26.26,0,0,0-.12.22.22.22,0,0,0,.11.2,4,4,0,0,0,1,.31,3.1,3.1,0,0,1,1.23.49,1,1,0,0,1,.34.81,1.28,1.28,0,0,1-.48,1,2.12,2.12,0,0,1-1.41.41,2.31,2.31,0,0,1-1.34-.35A1.63,1.63,0,0,1,70.83,334.83Z"/><path class="cls-3" d="M24.7,344.17H23.6V340h1v.59a2,2,0,0,1,.47-.55.86.86,0,0,1,.48-.13,1.37,1.37,0,0,1,.72.21l-.34.95a1,1,0,0,0-.52-.18A.65.65,0,0,0,25,341a.94.94,0,0,0-.25.46,6.67,6.67,0,0,0-.09,1.39Z"/><path class="cls-3" d="M29.16,342.85l1.1.19a1.75,1.75,0,0,1-.67.91,1.94,1.94,0,0,1-1.14.32,1.86,1.86,0,0,1-1.6-.71,2.42,2.42,0,0,1-.41-1.43,2.3,2.3,0,0,1,.54-1.62,1.76,1.76,0,0,1,1.36-.58,1.82,1.82,0,0,1,1.46.61,2.71,2.71,0,0,1,.52,1.87H27.57a1.06,1.06,0,0,0,.26.76.81.81,0,0,0,.63.28.7.7,0,0,0,.44-.14A.89.89,0,0,0,29.16,342.85Zm.07-1.11A1,1,0,0,0,29,341a.79.79,0,0,0-1.16,0,1,1,0,0,0-.23.71Z"/><path class="cls-3" d="M30.82,343l1.11-.17a.8.8,0,0,0,.28.49,1,1,0,0,0,.6.16,1.1,1.1,0,0,0,.64-.15.36.36,0,0,0,.15-.3.28.28,0,0,0-.08-.2,1,1,0,0,0-.37-.15,5.91,5.91,0,0,1-1.68-.53,1.08,1.08,0,0,1-.49-.94,1.14,1.14,0,0,1,.42-.9,2,2,0,0,1,1.32-.37,2.28,2.28,0,0,1,1.27.28,1.46,1.46,0,0,1,.57.82l-1,.19a.58.58,0,0,0-.25-.37.88.88,0,0,0-.53-.13,1.21,1.21,0,0,0-.62.12.26.26,0,0,0-.12.22.22.22,0,0,0,.11.2,3.56,3.56,0,0,0,1,.31,3.1,3.1,0,0,1,1.23.49,1,1,0,0,1,.34.82,1.26,1.26,0,0,1-.48,1,2.12,2.12,0,0,1-1.41.41,2.31,2.31,0,0,1-1.34-.35A1.63,1.63,0,0,1,30.82,343Z"/><path class="cls-3" d="M35.63,340h1v.61a1.63,1.63,0,0,1,.54-.5,1.51,1.51,0,0,1,.76-.2,1.56,1.56,0,0,1,1.22.57,2.25,2.25,0,0,1,.51,1.57,2.35,2.35,0,0,1-.51,1.62,1.6,1.6,0,0,1-1.23.58,1.46,1.46,0,0,1-.63-.14,2.1,2.1,0,0,1-.58-.47v2.09h-1.1Zm1.08,2a1.62,1.62,0,0,0,.28,1,.87.87,0,0,0,.68.34.79.79,0,0,0,.63-.31,1.59,1.59,0,0,0,.26-1,1.54,1.54,0,0,0-.26-1,.81.81,0,0,0-.65-.31.84.84,0,0,0-.67.31A1.37,1.37,0,0,0,36.71,342Z"/><path class="cls-3" d="M40.29,342a2.26,2.26,0,0,1,.27-1.06,1.87,1.87,0,0,1,.77-.78,2.24,2.24,0,0,1,1.1-.27,2,2,0,0,1,1.54.61,2.12,2.12,0,0,1,.6,1.55,2.17,2.17,0,0,1-.6,1.56,2.08,2.08,0,0,1-1.53.62,2.43,2.43,0,0,1-1.09-.26,1.76,1.76,0,0,1-.79-.76A2.49,2.49,0,0,1,40.29,342Zm1.13.06a1.39,1.39,0,0,0,.29.94.94.94,0,0,0,.72.33.91.91,0,0,0,.72-.33,1.64,1.64,0,0,0,0-1.89.91.91,0,0,0-.72-.33.94.94,0,0,0-.72.33A1.42,1.42,0,0,0,41.42,342.1Z"/><path class="cls-3" d="M49.21,344.17h-1.1v-2.11a3.13,3.13,0,0,0-.07-.87.57.57,0,0,0-.23-.31.66.66,0,0,0-.38-.11.84.84,0,0,0-.51.16.74.74,0,0,0-.31.41,3.33,3.33,0,0,0-.09,1v1.88H45.43V340h1v.61a1.7,1.7,0,0,1,2-.57,1.07,1.07,0,0,1,.45.34,1.16,1.16,0,0,1,.22.46,3.36,3.36,0,0,1,.06.73Z"/><path class="cls-3" d="M49.93,343l1.11-.17a.8.8,0,0,0,.28.49,1,1,0,0,0,.6.16,1.1,1.1,0,0,0,.64-.15.36.36,0,0,0,.15-.3.28.28,0,0,0-.08-.2,1,1,0,0,0-.37-.15,5.91,5.91,0,0,1-1.68-.53,1.08,1.08,0,0,1-.49-.94,1.14,1.14,0,0,1,.42-.9,2,2,0,0,1,1.32-.37,2.28,2.28,0,0,1,1.27.28,1.46,1.46,0,0,1,.57.82l-1,.19a.62.62,0,0,0-.25-.37.88.88,0,0,0-.53-.13,1.21,1.21,0,0,0-.62.12.26.26,0,0,0-.12.22.23.23,0,0,0,.1.2,3.82,3.82,0,0,0,1,.31,3,3,0,0,1,1.22.49,1,1,0,0,1,.35.82,1.26,1.26,0,0,1-.48,1,2.14,2.14,0,0,1-1.41.41,2.31,2.31,0,0,1-1.34-.35A1.63,1.63,0,0,1,49.93,343Z"/><path class="cls-3" d="M55.59,341.29l-1-.18a1.6,1.6,0,0,1,.58-.89,2.15,2.15,0,0,1,1.22-.29,2.68,2.68,0,0,1,1.09.17,1.14,1.14,0,0,1,.51.45,2.17,2.17,0,0,1,.15,1l0,1.28a4,4,0,0,0,.06.81,2.06,2.06,0,0,0,.2.55H57.29c0-.07-.06-.18-.11-.32a.39.39,0,0,0,0-.13,1.83,1.83,0,0,1-.6.41,1.72,1.72,0,0,1-.68.14,1.42,1.42,0,0,1-1-.35,1.15,1.15,0,0,1-.37-.88,1.24,1.24,0,0,1,.17-.63,1.13,1.13,0,0,1,.47-.42,3.43,3.43,0,0,1,.87-.25,6.89,6.89,0,0,0,1.07-.27v-.11a.54.54,0,0,0-.16-.45.92.92,0,0,0-.59-.14.73.73,0,0,0-.45.12A.78.78,0,0,0,55.59,341.29Zm1.47.89a6.87,6.87,0,0,1-.67.17,2.09,2.09,0,0,0-.6.19.46.46,0,0,0-.21.39.54.54,0,0,0,.17.39.57.57,0,0,0,.44.17.92.92,0,0,0,.56-.19.7.7,0,0,0,.27-.37,2.72,2.72,0,0,0,0-.53Z"/><path class="cls-3" d="M59.17,344.17v-5.72h1.1v2.06a1.54,1.54,0,0,1,1.2-.58,1.61,1.61,0,0,1,1.26.55,2.28,2.28,0,0,1,.49,1.58,2.43,2.43,0,0,1-.5,1.63,1.6,1.6,0,0,1-1.23.58,1.49,1.49,0,0,1-.7-.18,1.77,1.77,0,0,1-.6-.53v.61ZM60.26,342a1.79,1.79,0,0,0,.2.95.9.9,0,0,0,.76.44.77.77,0,0,0,.62-.31,1.53,1.53,0,0,0,.26-1,1.65,1.65,0,0,0-.26-1,.81.81,0,0,0-.66-.31.83.83,0,0,0-.66.31A1.41,1.41,0,0,0,60.26,342Z"/><path class="cls-3" d="M64.11,344.17v-5.72H65.2v5.72Z"/><path class="cls-3" d="M68.73,342.85l1.09.19a1.79,1.79,0,0,1-.66.91,2,2,0,0,1-1.14.32,1.85,1.85,0,0,1-1.6-.71,2.35,2.35,0,0,1-.41-1.43,2.3,2.3,0,0,1,.54-1.62,1.76,1.76,0,0,1,1.36-.58,1.83,1.83,0,0,1,1.46.61,2.66,2.66,0,0,1,.51,1.87H67.13a1.11,1.11,0,0,0,.27.76.81.81,0,0,0,.63.28.67.67,0,0,0,.43-.14A.9.9,0,0,0,68.73,342.85Zm.06-1.11a1,1,0,0,0-.24-.72.75.75,0,0,0-.57-.25.79.79,0,0,0-.6.26,1.06,1.06,0,0,0-.23.71Z"/><path class="cls-3" d="M70.39,343l1.1-.17a.81.81,0,0,0,.29.49,1,1,0,0,0,.6.16,1.12,1.12,0,0,0,.64-.15.35.35,0,0,0,.14-.3.27.27,0,0,0-.07-.2,1,1,0,0,0-.37-.15,5.67,5.67,0,0,1-1.68-.53,1.09,1.09,0,0,1-.5-.94,1.12,1.12,0,0,1,.43-.9,2,2,0,0,1,1.32-.37,2.22,2.22,0,0,1,1.26.28,1.37,1.37,0,0,1,.57.82l-1,.19a.62.62,0,0,0-.25-.37.9.9,0,0,0-.53-.13,1.18,1.18,0,0,0-.62.12.25.25,0,0,0-.13.22.24.24,0,0,0,.11.2,3.68,3.68,0,0,0,1,.31,3,3,0,0,1,1.22.49,1,1,0,0,1,.35.82,1.26,1.26,0,0,1-.48,1,2.14,2.14,0,0,1-1.41.41,2.29,2.29,0,0,1-1.34-.35A1.58,1.58,0,0,1,70.39,343Z"/><path class="cls-3" d="M81.25,344.17h-1v-.61a1.45,1.45,0,0,1-.6.53,1.48,1.48,0,0,1-.69.18,1.6,1.6,0,0,1-1.23-.58,2.8,2.8,0,0,1,0-3.21,1.6,1.6,0,0,1,1.25-.55,1.55,1.55,0,0,1,1.21.58v-2.06h1.09ZM78.32,342a1.92,1.92,0,0,0,.19,1,.83.83,0,0,0,1.38.11,1.5,1.5,0,0,0,.27-1,1.65,1.65,0,0,0-.26-1,.85.85,0,0,0-1.31,0A1.39,1.39,0,0,0,78.32,342Z"/><path class="cls-3" d="M84.74,342.85l1.09.19a1.79,1.79,0,0,1-.66.91,2,2,0,0,1-1.14.32,1.85,1.85,0,0,1-1.6-.71,2.72,2.72,0,0,1,.12-3.05,1.78,1.78,0,0,1,1.37-.58,1.83,1.83,0,0,1,1.46.61,2.66,2.66,0,0,1,.51,1.87H83.14a1.11,1.11,0,0,0,.27.76.81.81,0,0,0,.63.28.67.67,0,0,0,.43-.14A.9.9,0,0,0,84.74,342.85Zm.06-1.11a1,1,0,0,0-.25-.72.72.72,0,0,0-.57-.25.79.79,0,0,0-.59.26,1,1,0,0,0-.23.71Z"/><path class="cls-3" d="M86.79,344.17v-5.72h1.09v5.72Z"/><path class="cls-3" d="M37.9,352.33h-1v-.61a1.49,1.49,0,0,1-.59.53,1.55,1.55,0,0,1-.7.18,1.57,1.57,0,0,1-1.23-.58,2.8,2.8,0,0,1,0-3.21,1.6,1.6,0,0,1,1.25-.55,1.55,1.55,0,0,1,1.21.58v-2.06H37.9ZM35,350.17a1.92,1.92,0,0,0,.19,1,.83.83,0,0,0,1.38.11,1.48,1.48,0,0,0,.27-1,1.64,1.64,0,0,0-.26-1,.81.81,0,0,0-.66-.32.8.8,0,0,0-.65.31A1.39,1.39,0,0,0,35,350.17Z"/><path class="cls-3" d="M41.39,351l1.09.19a1.79,1.79,0,0,1-.66.91,2,2,0,0,1-1.14.32,1.85,1.85,0,0,1-1.6-.71,2.33,2.33,0,0,1-.41-1.43,2.27,2.27,0,0,1,.54-1.61,1.76,1.76,0,0,1,1.36-.59,1.86,1.86,0,0,1,1.46.61,2.69,2.69,0,0,1,.51,1.88H39.79a1.13,1.13,0,0,0,.27.76.83.83,0,0,0,.63.27.67.67,0,0,0,.43-.14A.9.9,0,0,0,41.39,351Zm.06-1.11a1.09,1.09,0,0,0-.24-.72.76.76,0,0,0-.58-.25.79.79,0,0,0-.59.26,1,1,0,0,0-.23.71Z"/><path class="cls-3" d="M43.05,351.15l1.1-.17a.78.78,0,0,0,.29.49,1,1,0,0,0,.6.16,1.14,1.14,0,0,0,.64-.15.36.36,0,0,0,.14-.29.25.25,0,0,0-.08-.21.89.89,0,0,0-.36-.15,5.89,5.89,0,0,1-1.69-.53,1.1,1.1,0,0,1-.49-.93,1.14,1.14,0,0,1,.43-.91,2,2,0,0,1,1.32-.37,2.24,2.24,0,0,1,1.26.28,1.37,1.37,0,0,1,.57.82l-1,.19a.7.7,0,0,0-.25-.37.9.9,0,0,0-.53-.13,1.18,1.18,0,0,0-.62.12.25.25,0,0,0-.13.22.24.24,0,0,0,.11.2,3.68,3.68,0,0,0,1,.31,3.19,3.19,0,0,1,1.22.49,1,1,0,0,1,.34.82,1.28,1.28,0,0,1-.47,1,2.14,2.14,0,0,1-1.41.41,2.27,2.27,0,0,1-1.34-.35A1.58,1.58,0,0,1,43.05,351.15Z"/><path class="cls-3" d="M50.29,351l1.09.19a1.75,1.75,0,0,1-.67.91,1.93,1.93,0,0,1-1.13.32,1.87,1.87,0,0,1-1.61-.71,2.4,2.4,0,0,1-.41-1.43,2.27,2.27,0,0,1,.54-1.61,1.79,1.79,0,0,1,1.37-.59,1.88,1.88,0,0,1,1.46.61,2.74,2.74,0,0,1,.51,1.88H48.69a1.13,1.13,0,0,0,.27.76.8.8,0,0,0,.63.27.69.69,0,0,0,.43-.14A.9.9,0,0,0,50.29,351Zm.06-1.11a1,1,0,0,0-.25-.72.72.72,0,0,0-.57-.25.77.77,0,0,0-.59.26,1,1,0,0,0-.23.71Z"/><path class="cls-3" d="M52.25,348.19h1v.56a1.65,1.65,0,0,1,1.3-.66,1.41,1.41,0,0,1,.69.17,1.33,1.33,0,0,1,.48.49,1.9,1.9,0,0,1,.59-.49,1.42,1.42,0,0,1,.67-.17,1.46,1.46,0,0,1,.78.19,1.09,1.09,0,0,1,.47.54,2.32,2.32,0,0,1,.11.86v2.65H57.26V350a1.65,1.65,0,0,0-.12-.79.52.52,0,0,0-.47-.24.78.78,0,0,0-.43.14.77.77,0,0,0-.29.41,3,3,0,0,0-.09.86v2h-1.1v-2.27a3.11,3.11,0,0,0-.06-.78.47.47,0,0,0-.18-.26.54.54,0,0,0-.33-.09.81.81,0,0,0-.46.14.72.72,0,0,0-.29.39,2.89,2.89,0,0,0-.09.86v2h-1.1Z"/><path class="cls-3" d="M59.42,348.19h1v.6a1.53,1.53,0,0,1,.54-.5,1.5,1.5,0,0,1,.75-.2,1.59,1.59,0,0,1,1.23.57,2.32,2.32,0,0,1,.5,1.58,2.39,2.39,0,0,1-.5,1.61,1.58,1.58,0,0,1-1.24.58,1.44,1.44,0,0,1-.62-.14,2.28,2.28,0,0,1-.59-.47v2.09H59.42Zm1.08,2a1.55,1.55,0,0,0,.28,1,.83.83,0,0,0,.68.34.81.81,0,0,0,.63-.31,1.57,1.57,0,0,0,.26-1,1.45,1.45,0,0,0-.27-1,.78.78,0,0,0-.64-.32.82.82,0,0,0-.67.31A1.37,1.37,0,0,0,60.5,350.19Z"/><path class="cls-3" d="M66.74,351l1.09.19a1.75,1.75,0,0,1-.67.91,1.93,1.93,0,0,1-1.13.32,1.87,1.87,0,0,1-1.61-.71,2.4,2.4,0,0,1-.41-1.43,2.27,2.27,0,0,1,.54-1.61,1.79,1.79,0,0,1,1.37-.59,1.88,1.88,0,0,1,1.46.61,2.8,2.8,0,0,1,.51,1.88H65.14a1.18,1.18,0,0,0,.26.76.84.84,0,0,0,.64.27.69.69,0,0,0,.43-.14A.9.9,0,0,0,66.74,351Zm.06-1.11a1,1,0,0,0-.25-.72.72.72,0,0,0-.57-.25.76.76,0,0,0-.59.26,1,1,0,0,0-.23.71Z"/><path class="cls-3" d="M72.56,352.33h-1.1v-2.11a3.13,3.13,0,0,0-.07-.87.61.61,0,0,0-.23-.31.68.68,0,0,0-.38-.11.84.84,0,0,0-.51.16.74.74,0,0,0-.31.41,3.33,3.33,0,0,0-.09.95v1.88H68.78v-4.14h1v.6a1.7,1.7,0,0,1,1.37-.7,1.82,1.82,0,0,1,.67.13,1.07,1.07,0,0,1,.45.34,1.23,1.23,0,0,1,.22.46,3.47,3.47,0,0,1,.06.74Zm-2.74-4.7h-.5c0-.06,0-.11,0-.14a.9.9,0,0,1,.2-.63.68.68,0,0,1,.52-.23,1,1,0,0,1,.25,0,3.89,3.89,0,0,1,.43.17,1.34,1.34,0,0,0,.48.14.29.29,0,0,0,.21-.08.42.42,0,0,0,.11-.26H72a1.2,1.2,0,0,1-.2.75.6.6,0,0,1-.5.23,1.15,1.15,0,0,1-.26,0,4.57,4.57,0,0,1-.45-.16,1.65,1.65,0,0,0-.52-.13.26.26,0,0,0-.2.07A.44.44,0,0,0,69.82,347.63Z"/><path class="cls-3" d="M73.42,350.2a2.26,2.26,0,0,1,.27-1.06,1.85,1.85,0,0,1,.76-.78,2.27,2.27,0,0,1,1.1-.27,2.2,2.2,0,0,1,1.54,3.72,2.08,2.08,0,0,1-1.53.62,2.46,2.46,0,0,1-1.09-.26,1.74,1.74,0,0,1-.78-.76A2.49,2.49,0,0,1,73.42,350.2Zm1.12.06a1.37,1.37,0,0,0,.29.94,1,1,0,0,0,1.45,0,1.38,1.38,0,0,0,.29-.95,1.41,1.41,0,0,0-.29-.94,1,1,0,0,0-1.45,0A1.42,1.42,0,0,0,74.54,350.26Z"/><path class="cls-3" d="M31.9,360.49h-1v-.6a1.64,1.64,0,0,1-.6.52,1.48,1.48,0,0,1-.69.18,1.57,1.57,0,0,1-1.23-.58,2.8,2.8,0,0,1,0-3.21,1.64,1.64,0,0,1,1.25-.55,1.54,1.54,0,0,1,1.2.58v-2.06h1.1ZM29,358.33a1.82,1.82,0,0,0,.19,1,.83.83,0,0,0,1.38.11,1.48,1.48,0,0,0,.27-1,1.64,1.64,0,0,0-.26-1,.81.81,0,0,0-.66-.32.83.83,0,0,0-.65.31A1.39,1.39,0,0,0,29,358.33Z"/><path class="cls-3" d="M35.39,359.17l1.09.19a1.75,1.75,0,0,1-.67.91,1.93,1.93,0,0,1-1.13.32,1.87,1.87,0,0,1-1.61-.71,2.4,2.4,0,0,1-.41-1.43,2.27,2.27,0,0,1,.54-1.61,1.79,1.79,0,0,1,1.37-.59,1.88,1.88,0,0,1,1.46.61,2.8,2.8,0,0,1,.51,1.88H33.79a1.18,1.18,0,0,0,.26.76.84.84,0,0,0,.64.27.69.69,0,0,0,.43-.14A.9.9,0,0,0,35.39,359.17Zm.06-1.1a1.07,1.07,0,0,0-.25-.73.76.76,0,0,0-.57-.25.77.77,0,0,0-.59.26,1,1,0,0,0-.23.72Z"/><path class="cls-3" d="M39.66,355.78v-1h1.09v1Zm0,4.71v-4.14h1.09v4.14Z"/><path class="cls-3" d="M45.65,360.49h-1.1v-2.11a3.13,3.13,0,0,0-.07-.87.63.63,0,0,0-.22-.31.7.7,0,0,0-.38-.11.85.85,0,0,0-.52.16.79.79,0,0,0-.31.41,3.94,3.94,0,0,0-.08,1v1.87h-1.1v-4.14h1V357a1.67,1.67,0,0,1,1.37-.71,1.76,1.76,0,0,1,.66.13,1.18,1.18,0,0,1,.46.34,1.21,1.21,0,0,1,.21.46,3.47,3.47,0,0,1,.06.74Z"/><path class="cls-3" d="M50.57,360.49h-1v-.6a1.64,1.64,0,0,1-.6.52,1.49,1.49,0,0,1-.7.18A1.57,1.57,0,0,1,47,360a2.33,2.33,0,0,1-.51-1.6,2.29,2.29,0,0,1,.5-1.61,1.62,1.62,0,0,1,1.25-.55,1.57,1.57,0,0,1,1.2.58v-2.06h1.1Zm-2.93-2.16a1.94,1.94,0,0,0,.18,1,.84.84,0,0,0,.75.43.82.82,0,0,0,.64-.32,1.48,1.48,0,0,0,.27-1,1.64,1.64,0,0,0-.26-1,.81.81,0,0,0-.66-.32.86.86,0,0,0-.66.31A1.45,1.45,0,0,0,47.64,358.33Z"/><path class="cls-3" d="M51.65,355.78v-1h1.1v1Zm0,4.71v-4.14h1.1v4.14Z"/><path class="cls-3" d="M57.49,357.57l-1.08.2a.79.79,0,0,0-.25-.49.73.73,0,0,0-.5-.16.81.81,0,0,0-.65.28,1.41,1.41,0,0,0-.25,1,1.64,1.64,0,0,0,.25,1,.82.82,0,0,0,.67.3.8.8,0,0,0,.51-.17,1.16,1.16,0,0,0,.28-.61l1.08.18a2,2,0,0,1-.65,1.12,2,2,0,0,1-1.28.38,1.88,1.88,0,0,1-1.45-.58,2.61,2.61,0,0,1,0-3.19,1.92,1.92,0,0,1,1.46-.57,2,2,0,0,1,1.21.33A1.81,1.81,0,0,1,57.49,357.57Z"/><path class="cls-3" d="M59.14,357.61l-1-.18a1.51,1.51,0,0,1,.58-.89,2.13,2.13,0,0,1,1.22-.29,2.56,2.56,0,0,1,1.09.18,1,1,0,0,1,.5.44,2.2,2.2,0,0,1,.15,1v1.28a5,5,0,0,0,0,.81,2.31,2.31,0,0,0,.2.55H60.84c0-.07-.06-.18-.1-.32s0-.11,0-.13a2.07,2.07,0,0,1-.6.41,1.77,1.77,0,0,1-.69.14,1.44,1.44,0,0,1-1-.35,1.27,1.27,0,0,1-.2-1.5,1.15,1.15,0,0,1,.47-.43,4.19,4.19,0,0,1,.88-.25,6.39,6.39,0,0,0,1.06-.27v-.11a.58.58,0,0,0-.15-.45.94.94,0,0,0-.59-.14.76.76,0,0,0-.46.12A.78.78,0,0,0,59.14,357.61Zm1.47.89a5,5,0,0,1-.66.17,2.18,2.18,0,0,0-.6.19.45.45,0,0,0-.22.39.58.58,0,0,0,.17.4.64.64,0,0,0,.44.17,1,1,0,0,0,.57-.2.7.7,0,0,0,.26-.36,2.24,2.24,0,0,0,0-.54Z"/><path class="cls-3" d="M66.58,360.49h-1v-.6a1.64,1.64,0,0,1-.6.52,1.49,1.49,0,0,1-.7.18A1.57,1.57,0,0,1,63,360a2.83,2.83,0,0,1,0-3.21,1.64,1.64,0,0,1,1.26-.55,1.57,1.57,0,0,1,1.2.58v-2.06h1.1Zm-2.93-2.16a1.94,1.94,0,0,0,.18,1,.84.84,0,0,0,1.39.11,1.48,1.48,0,0,0,.26-1,1.64,1.64,0,0,0-.25-1,.84.84,0,0,0-.66-.32.86.86,0,0,0-.66.31A1.45,1.45,0,0,0,63.65,358.33Z"/><path class="cls-3" d="M67.41,358.36a2.26,2.26,0,0,1,.27-1.06,1.85,1.85,0,0,1,.76-.78,2.27,2.27,0,0,1,1.1-.27A2.2,2.2,0,0,1,71.08,360a2.07,2.07,0,0,1-1.53.62,2.46,2.46,0,0,1-1.09-.26,1.74,1.74,0,0,1-.78-.76A2.49,2.49,0,0,1,67.41,358.36Zm1.12.06a1.42,1.42,0,0,0,.29.95,1,1,0,0,0,1.45,0,1.43,1.43,0,0,0,.29-1,1.36,1.36,0,0,0-.29-.93,1,1,0,0,0-1.45,0A1.37,1.37,0,0,0,68.53,358.42Z"/><path class="cls-3" d="M73.6,360.49H72.5v-4.14h1v.59a1.6,1.6,0,0,1,.47-.55.86.86,0,0,1,.47-.14,1.4,1.4,0,0,1,.73.21l-.34,1a1,1,0,0,0-.52-.18.65.65,0,0,0-.39.12.87.87,0,0,0-.25.46,6.67,6.67,0,0,0-.09,1.39Z"/><path class="cls-3" d="M78.06,359.17l1.1.19a1.81,1.81,0,0,1-.67.91,1.94,1.94,0,0,1-1.14.32,1.86,1.86,0,0,1-1.6-.71,2.4,2.4,0,0,1-.41-1.43,2.27,2.27,0,0,1,.54-1.61,1.77,1.77,0,0,1,1.36-.59,1.85,1.85,0,0,1,1.46.61,2.69,2.69,0,0,1,.51,1.88H76.46a1.13,1.13,0,0,0,.27.76.83.83,0,0,0,.63.27.7.7,0,0,0,.44-.14A1,1,0,0,0,78.06,359.17Zm.06-1.1a1,1,0,0,0-.24-.73.8.8,0,0,0-1.17,0,1.09,1.09,0,0,0-.23.72Z"/><path class="cls-3" d="M79.72,359.31l1.1-.17a.83.83,0,0,0,.29.49,1,1,0,0,0,.6.17,1.09,1.09,0,0,0,.64-.16.34.34,0,0,0,.15-.29.29.29,0,0,0-.08-.21,1,1,0,0,0-.37-.15,5.79,5.79,0,0,1-1.68-.53,1.06,1.06,0,0,1-.49-.93,1.17,1.17,0,0,1,.42-.91,2,2,0,0,1,1.32-.37,2.37,2.37,0,0,1,1.27.28,1.46,1.46,0,0,1,.57.82l-1,.19a.65.65,0,0,0-.25-.37.88.88,0,0,0-.53-.13,1.18,1.18,0,0,0-.62.12.28.28,0,0,0-.13.23.24.24,0,0,0,.11.19,3.68,3.68,0,0,0,1,.31,3.19,3.19,0,0,1,1.22.49,1,1,0,0,1,.35.82,1.24,1.24,0,0,1-.48,1,2.14,2.14,0,0,1-1.41.41,2.31,2.31,0,0,1-1.34-.35A1.55,1.55,0,0,1,79.72,359.31Z"/></g></g></svg>