<svg xmlns="http://www.w3.org/2000/svg" xmlns:xlink="http://www.w3.org/1999/xlink" viewBox="0 0 222.25 237.43"><defs><style>.cls-1{mask:url(#mask);filter:url(#luminosity-noclip-5);}.cls-12,.cls-14,.cls-18,.cls-2,.cls-20,.cls-23,.cls-24,.cls-4,.cls-6,.cls-8{mix-blend-mode:multiply;}.cls-2{fill:url(#radial-gradient);}.cls-3{mask:url(#mask-2);filter:url(#luminosity-noclip-6);}.cls-4{fill:url(#radial-gradient-2);}.cls-5{mask:url(#mask-3);filter:url(#luminosity-noclip-7);}.cls-6{fill:url(#radial-gradient-3);}.cls-7{mask:url(#mask-4);filter:url(#luminosity-noclip-8);}.cls-8{fill:url(#radial-gradient-4);}.cls-9{fill:none;}.cls-10{isolation:isolate;}.cls-11{mask:url(#mask-5);}.cls-12{fill:url(#Degradado_sin_nombre_153);}.cls-13{mask:url(#mask-6);}.cls-14{fill:url(#Degradado_sin_nombre_151);}.cls-15{fill:#ececec;}.cls-16{clip-path:url(#clip-path);}.cls-17{mask:url(#mask-7);}.cls-18{fill:url(#Degradado_sin_nombre_153-2);}.cls-19{mask:url(#mask-8);}.cls-20{fill:url(#Degradado_sin_nombre_151-2);}.cls-21{fill:#93d500;}.cls-22{font-size:17.29px;fill:#fefefe;font-family:VAGRounded-Bold, VAG Rounded;font-weight:700;}.cls-23{fill:url(#radial-gradient-5);}.cls-24{fill:url(#radial-gradient-6);}.cls-25{fill:#1f3b51;}.cls-26{fill:#307c9e;}.cls-27,.cls-29{fill:#ebebeb;}.cls-27{opacity:0.3;}.cls-28{fill:#ccc;}.cls-30{fill:#03698e;}.cls-31{fill:#fff;}.cls-32{filter:url(#luminosity-noclip-4);}.cls-33{filter:url(#luminosity-noclip-3);}.cls-34{filter:url(#luminosity-noclip-2);}.cls-35{filter:url(#luminosity-noclip);}</style><filter id="luminosity-noclip" x="105.37" y="-8682.54" width="112.37" height="32766" filterUnits="userSpaceOnUse" color-interpolation-filters="sRGB"><feFlood flood-color="#fff" result="bg"/><feBlend in="SourceGraphic" in2="bg"/></filter><mask id="mask" x="105.37" y="-8682.54" width="112.37" height="32766" maskUnits="userSpaceOnUse"><g class="cls-35"/></mask><radialGradient id="radial-gradient" cx="-315.27" cy="305.85" r="39.98" gradientTransform="matrix(0.98, 0.3, -1.01, 0.13, 778.5, 281.08)" gradientUnits="userSpaceOnUse"><stop offset="0.5" stop-color="#a6a6a6"/><stop offset="0.6" stop-color="#a3a3a3"/><stop offset="0.67" stop-color="#999"/><stop offset="0.75" stop-color="#888"/><stop offset="0.81" stop-color="#707070"/><stop offset="0.88" stop-color="#515151"/><stop offset="0.94" stop-color="#2c2c2c"/><stop offset="1"/></radialGradient><filter id="luminosity-noclip-2" x="5.06" y="-8682.54" width="112.37" height="32766" filterUnits="userSpaceOnUse" color-interpolation-filters="sRGB"><feFlood flood-color="#fff" result="bg"/><feBlend in="SourceGraphic" in2="bg"/></filter><mask id="mask-2" x="5.06" y="-8682.54" width="112.37" height="32766" maskUnits="userSpaceOnUse"><g class="cls-34"/></mask><radialGradient id="radial-gradient-2" cx="157.13" cy="-799.7" r="39.98" gradientTransform="matrix(-0.98, 0.3, 1.01, 0.13, 1022.97, 281.08)" xlink:href="#radial-gradient"/><filter id="luminosity-noclip-3" x="110.05" y="-8682.54" width="92.69" height="32766" filterUnits="userSpaceOnUse" color-interpolation-filters="sRGB"><feFlood flood-color="#fff" result="bg"/><feBlend in="SourceGraphic" in2="bg"/></filter><mask id="mask-3" x="110.05" y="-8682.54" width="92.69" height="32766" maskUnits="userSpaceOnUse"><g class="cls-33"/></mask><radialGradient id="radial-gradient-3" cx="-437.16" cy="-869.85" r="33.28" gradientTransform="matrix(0.97, 0.3, -1, 0.13, -291.87, 281.08)" xlink:href="#radial-gradient"/><filter id="luminosity-noclip-4" x="28.03" y="-8682.54" width="92.69" height="32766" filterUnits="userSpaceOnUse" color-interpolation-filters="sRGB"><feFlood flood-color="#fff" result="bg"/><feBlend in="SourceGraphic" in2="bg"/></filter><mask id="mask-4" x="28.03" y="-8682.54" width="92.69" height="32766" maskUnits="userSpaceOnUse"><g class="cls-32"/></mask><radialGradient id="radial-gradient-4" cx="-610.01" cy="-465.34" r="33.28" gradientTransform="matrix(-0.97, 0.3, 1, 0.13, -49.65, 281.08)" xlink:href="#radial-gradient"/><filter id="luminosity-noclip-5" x="105.37" y="213.05" width="112.37" height="25.94" filterUnits="userSpaceOnUse" color-interpolation-filters="sRGB"><feFlood flood-color="#fff" result="bg"/><feBlend in="SourceGraphic" in2="bg"/></filter><mask id="mask-5" x="105.37" y="213.05" width="112.37" height="25.94" maskUnits="userSpaceOnUse"><g class="cls-1"><path class="cls-2" d="M217.73,230.85c-.52,6.64-26.12,9.87-57.14,7.21s-55.75-10.22-55.21-16.87,26.14-9.87,57.14-7.21S218.27,224.2,217.73,230.85Z"/></g></mask><radialGradient id="Degradado_sin_nombre_153" cx="-315.27" cy="305.85" r="39.98" gradientTransform="matrix(0.98, 0.3, -1.01, 0.13, 778.5, 281.08)" gradientUnits="userSpaceOnUse"><stop offset="0" stop-color="#3c3c3b"/><stop offset="1" stop-color="#fff" stop-opacity="0"/></radialGradient><filter id="luminosity-noclip-6" x="5.06" y="213.05" width="112.37" height="25.94" filterUnits="userSpaceOnUse" color-interpolation-filters="sRGB"><feFlood flood-color="#fff" result="bg"/><feBlend in="SourceGraphic" in2="bg"/></filter><mask id="mask-6" x="5.06" y="213.05" width="112.37" height="25.94" maskUnits="userSpaceOnUse"><g class="cls-3"><path class="cls-4" d="M5.07,230.85c.52,6.64,26.12,9.87,57.14,7.21s55.75-10.22,55.21-16.87S91.28,211.32,60.28,214,4.53,224.2,5.07,230.85Z"/></g></mask><radialGradient id="Degradado_sin_nombre_151" cx="157.13" cy="-799.7" r="39.98" gradientTransform="matrix(-0.98, 0.3, 1.01, 0.13, 1022.97, 281.08)" gradientUnits="userSpaceOnUse"><stop offset="0" stop-color="#3c3c3b"/><stop offset="0" stop-color="#3d3d3c"/><stop offset="1" stop-color="#fff" stop-opacity="0"/></radialGradient><clipPath id="clip-path"><rect class="cls-9" x="33.34" y="41.49" width="163.4" height="10.43"/></clipPath><filter id="luminosity-noclip-7" x="110.05" y="29" width="92.69" height="21.6" filterUnits="userSpaceOnUse" color-interpolation-filters="sRGB"><feFlood flood-color="#fff" result="bg"/><feBlend in="SourceGraphic" in2="bg"/></filter><mask id="mask-7" x="110.05" y="29" width="92.69" height="21.6" maskUnits="userSpaceOnUse"><g class="cls-5"><path class="cls-6" d="M202.72,43.82c-.43,5.53-21.54,8.22-47.13,6s-46-8.5-45.54-14,21.57-8.22,47.14-6S203.17,38.29,202.72,43.82Z"/></g></mask><radialGradient id="Degradado_sin_nombre_153-2" cx="-437.16" cy="-869.85" r="33.28" gradientTransform="matrix(0.97, 0.3, -1, 0.13, -291.87, 281.08)" xlink:href="#Degradado_sin_nombre_153"/><filter id="luminosity-noclip-8" x="28.03" y="29" width="92.69" height="21.6" filterUnits="userSpaceOnUse" color-interpolation-filters="sRGB"><feFlood flood-color="#fff" result="bg"/><feBlend in="SourceGraphic" in2="bg"/></filter><mask id="mask-8" x="28.03" y="29" width="92.69" height="21.6" maskUnits="userSpaceOnUse"><g class="cls-7"><path class="cls-8" d="M28,43.82c.44,5.53,21.55,8.22,47.14,6s46-8.5,45.54-14-21.57-8.22-47.14-6S27.59,38.29,28,43.82Z"/></g></mask><radialGradient id="Degradado_sin_nombre_151-2" cx="-610.01" cy="-465.34" r="33.28" gradientTransform="matrix(-0.97, 0.3, 1, 0.13, -49.65, 281.08)" xlink:href="#Degradado_sin_nombre_151"/><radialGradient id="radial-gradient-5" cx="-404.82" cy="-4900.06" fx="-440.4271173156786" fy="-4908.459667011522" r="57.83" gradientTransform="translate(435.08 703.84) scale(0.67 0.11)" gradientUnits="userSpaceOnUse"><stop offset="0" stop-color="#666"/><stop offset="0.25" stop-color="#838383" stop-opacity="0.79"/><stop offset="0.78" stop-color="#cdcdcd" stop-opacity="0.25"/><stop offset="1" stop-color="#efefef" stop-opacity="0"/></radialGradient><radialGradient id="radial-gradient-6" cx="10368.53" cy="-4900.06" fx="10332.9279059377" fy="-4908.4596704327205" r="57.83" gradientTransform="matrix(-0.67, 0, 0, 0.11, 6997.4, 703.84)" xlink:href="#radial-gradient-5"/></defs><g class="cls-10"><g id="Capa_1" data-name="Capa 1"><g class="cls-11"><path class="cls-12" d="M217.73,230.85c-.52,6.64-26.12,9.87-57.14,7.21s-55.75-10.22-55.21-16.87,26.14-9.87,57.14-7.21S218.27,224.2,217.73,230.85Z"/></g><g class="cls-13"><path class="cls-14" d="M5.07,230.85c.52,6.64,26.12,9.87,57.14,7.21s55.75-10.22,55.21-16.87S91.28,211.32,60.28,214,4.53,224.2,5.07,230.85Z"/></g><rect class="cls-15" x="4.09" y="13.11" width="214.28" height="216.19" rx="21.6"/><g class="cls-16"><g class="cls-17"><path class="cls-18" d="M202.72,43.82c-.43,5.53-21.54,8.22-47.13,6s-46-8.5-45.54-14,21.57-8.22,47.14-6S203.17,38.29,202.72,43.82Z"/></g><g class="cls-19"><path class="cls-20" d="M28,43.82c.44,5.53,21.55,8.22,47.14,6s46-8.5,45.54-14-21.57-8.22-47.14-6S27.59,38.29,28,43.82Z"/></g></g><rect class="cls-21" x="19.98" y="2.25" width="185.91" height="39.06" rx="18.64"/><text class="cls-22" transform="translate(55.8 29.7)">Rol de consulta</text><path class="cls-23" d="M203.55,180.17c0,3.4-17.32,6.16-38.67,6.16s-38.68-2.76-38.68-6.16S143.52,174,164.88,174,203.55,176.77,203.55,180.17Z"/><path class="cls-24" d="M26.22,180.17c0,3.4,17.31,6.16,38.67,6.16s38.68-2.76,38.68-6.16S86.25,174,64.89,174,26.22,176.77,26.22,180.17Z"/><path class="cls-25" d="M99.3,102.6l8.2,1.71.62-14h0A14.31,14.31,0,0,0,80.35,84.5h0L75,97.53l8.53,1.78a14.28,14.28,0,0,0,15.8,3.29Z"/><path class="cls-26" d="M107.72,102h0a16.62,16.62,0,0,0-32-7h0l-21.2,47.43,53.9,11.24Z"/><path class="cls-25" d="M94.31,153.9l13.77,2.87.5-21.57.09-3.17c.52-11.89-6.79-21.43-18.65-23.9a24.08,24.08,0,0,0-27.51,15.39h0l-9,21.88,14.33,3a24,24,0,0,0,26.5,5.53Z"/><path class="cls-27" d="M96.74,75.34a14,14,0,0,0-5.12-.13l-8,24.25-10.5,32,13.1,2.73,6.37-30.55,5.8-27.83A15.77,15.77,0,0,0,96.74,75.34Z"/><path class="cls-28" d="M106.1,157.81a26.17,26.17,0,1,1-20.27-31A26.15,26.15,0,0,1,106.1,157.81Z"/><path class="cls-29" d="M104,152.17c-2.5,12-14.58,19.61-27,17s-20.43-14.4-17.93-26.39,14.58-19.62,27-17S106.49,140.18,104,152.17Z"/><path class="cls-30" d="M74.74,180.05a28.17,28.17,0,1,1,33.33-21.83A28.2,28.2,0,0,1,74.74,180.05Zm10.68-51.23a24.16,24.16,0,1,0,18.72,28.58A24.19,24.19,0,0,0,85.42,128.82Z"/><path class="cls-31" d="M97.72,153.29a8.52,8.52,0,1,1-6.6-10.08A8.52,8.52,0,0,1,97.72,153.29Z"/><path class="cls-25" d="M129.68,102.6l-8.2,1.71-.62-14h0a14.31,14.31,0,0,1,27.74-5.78h0l5.37,13-8.54,1.78a14.27,14.27,0,0,1-15.79,3.29Z"/><path class="cls-26" d="M121.26,102h0a16.62,16.62,0,0,1,32-7h0l21.2,47.43-53.9,11.24Z"/><path class="cls-25" d="M134.66,153.9l-13.76,2.87-.51-21.57L120.3,132c-.51-11.89,6.79-21.43,18.65-23.9a24.08,24.08,0,0,1,27.51,15.39h0l9,21.88-14.33,3a24,24,0,0,1-26.51,5.53Z"/><path class="cls-27" d="M132.24,75.34a14,14,0,0,1,5.11-.13l8,24.25,10.5,32-13.1,2.73-6.37-30.55-5.8-27.83A15.15,15.15,0,0,1,132.24,75.34Z"/><path class="cls-28" d="M122.87,157.81a26.17,26.17,0,1,0,20.28-31A26.16,26.16,0,0,0,122.87,157.81Z"/><path class="cls-29" d="M125,152.17c2.5,12,14.58,19.61,27,17s20.44-14.4,17.94-26.39-14.58-19.62-27-17S122.49,140.18,125,152.17Z"/><path class="cls-30" d="M120.91,158.22a28.17,28.17,0,1,1,33.32,21.83A28.2,28.2,0,0,1,120.91,158.22Zm3.92-.82a24.16,24.16,0,1,0,18.73-28.58A24.19,24.19,0,0,0,124.83,157.4Z"/><path class="cls-31" d="M131.25,153.29a8.52,8.52,0,1,0,6.61-10.08A8.53,8.53,0,0,0,131.25,153.29Z"/><path class="cls-25" d="M105.6,132.82s7.89-10.22,18.12,0V116.26s-7.88-9.41-17.73.44Z"/><path class="cls-25" d="M106.11,110.32s7.46-9.89,17.1,0l-1.06-16.55s-6.91-8.64-14.83.44Z"/></g></g></svg>