<svg xmlns="http://www.w3.org/2000/svg" xmlns:xlink="http://www.w3.org/1999/xlink" viewBox="0 0 216.84 236.74"><defs><style>.cls-1{mask:url(#mask);filter:url(#luminosity-noclip-5);}.cls-12,.cls-14,.cls-18,.cls-2,.cls-20,.cls-4,.cls-45,.cls-46,.cls-47,.cls-6,.cls-8{mix-blend-mode:multiply;}.cls-2{fill:url(#radial-gradient);}.cls-3{mask:url(#mask-2);filter:url(#luminosity-noclip-6);}.cls-4{fill:url(#radial-gradient-2);}.cls-5{mask:url(#mask-3);filter:url(#luminosity-noclip-7);}.cls-6{fill:url(#radial-gradient-3);}.cls-7{mask:url(#mask-4);filter:url(#luminosity-noclip-8);}.cls-8{fill:url(#radial-gradient-4);}.cls-9{fill:none;}.cls-10{isolation:isolate;}.cls-11{mask:url(#mask-5);}.cls-12{fill:url(#Degradado_sin_nombre_153);}.cls-13{mask:url(#mask-6);}.cls-14{fill:url(#Degradado_sin_nombre_151);}.cls-15{fill:#ececec;}.cls-16{clip-path:url(#clip-path);}.cls-17{mask:url(#mask-7);}.cls-18{fill:url(#Degradado_sin_nombre_153-2);}.cls-19{mask:url(#mask-8);}.cls-20{fill:url(#Degradado_sin_nombre_151-2);}.cls-21{fill:#93d500;}.cls-22{font-size:15.73px;fill:#fefefe;font-family:VAGRounded-Bold, VAG Rounded;font-weight:700;}.cls-23{fill:url(#linear-gradient);}.cls-24{fill:url(#linear-gradient-2);}.cls-25{fill:url(#linear-gradient-3);}.cls-26{fill:url(#linear-gradient-4);}.cls-27{fill:#bab6be;}.cls-28{fill:url(#linear-gradient-5);}.cls-29{fill:url(#linear-gradient-6);}.cls-30{fill:url(#radial-gradient-5);}.cls-31{fill:url(#linear-gradient-7);}.cls-32{fill:url(#linear-gradient-8);}.cls-33{fill:url(#linear-gradient-9);}.cls-34{fill:url(#linear-gradient-10);}.cls-35{fill:url(#linear-gradient-11);}.cls-36{fill:url(#linear-gradient-12);}.cls-37{fill:url(#linear-gradient-13);}.cls-38{opacity:0.2;}.cls-39{fill:#ddd;}.cls-40{fill:#fff;}.cls-41{fill:#931628;}.cls-42{fill:#bdbdc1;}.cls-43{fill:#739ac6;}.cls-44{fill:#e8e8e9;}.cls-45{fill:url(#radial-gradient-6);}.cls-46{fill:url(#radial-gradient-7);}.cls-47{fill:url(#radial-gradient-8);}.cls-48{fill:#1f3b51;}.cls-49{fill:#307c9e;}.cls-50,.cls-52{fill:#ebebeb;}.cls-50{opacity:0.3;}.cls-51{fill:#ccc;}.cls-53{fill:#03698e;}.cls-54{filter:url(#luminosity-noclip-4);}.cls-55{filter:url(#luminosity-noclip-3);}.cls-56{filter:url(#luminosity-noclip-2);}.cls-57{filter:url(#luminosity-noclip);}</style><filter id="luminosity-noclip" x="102.27" y="-8679.63" width="114.57" height="32766" filterUnits="userSpaceOnUse" color-interpolation-filters="sRGB"><feFlood flood-color="#fff" result="bg"/><feBlend in="SourceGraphic" in2="bg"/></filter><mask id="mask" x="102.27" y="-8679.63" width="114.57" height="32766" maskUnits="userSpaceOnUse"><g class="cls-57"/></mask><radialGradient id="radial-gradient" cx="-316.52" cy="304.46" r="39.98" gradientTransform="matrix(1, 0.3, -1.03, 0.13, 788.35, 279.38)" gradientUnits="userSpaceOnUse"><stop offset="0.5" stop-color="#a6a6a6"/><stop offset="0.6" stop-color="#a3a3a3"/><stop offset="0.67" stop-color="#999"/><stop offset="0.75" stop-color="#888"/><stop offset="0.81" stop-color="#707070"/><stop offset="0.88" stop-color="#515151"/><stop offset="0.94" stop-color="#2c2c2c"/><stop offset="1"/></radialGradient><filter id="luminosity-noclip-2" x="0" y="-8679.63" width="114.57" height="32766" filterUnits="userSpaceOnUse" color-interpolation-filters="sRGB"><feFlood flood-color="#fff" result="bg"/><feBlend in="SourceGraphic" in2="bg"/></filter><mask id="mask-2" x="0" y="-8679.63" width="114.57" height="32766" maskUnits="userSpaceOnUse"><g class="cls-56"/></mask><radialGradient id="radial-gradient-2" cx="155.89" cy="-801.09" r="39.98" gradientTransform="matrix(-1, 0.3, 1.03, 0.13, 1037.99, 279.38)" xlink:href="#radial-gradient"/><filter id="luminosity-noclip-3" x="107.23" y="-8679.63" width="92.69" height="32766" filterUnits="userSpaceOnUse" color-interpolation-filters="sRGB"><feFlood flood-color="#fff" result="bg"/><feBlend in="SourceGraphic" in2="bg"/></filter><mask id="mask-3" x="107.23" y="-8679.63" width="92.69" height="32766" maskUnits="userSpaceOnUse"><g class="cls-55"/></mask><radialGradient id="radial-gradient-3" cx="-438.4" cy="-871.24" r="33.28" gradientTransform="matrix(0.97, 0.3, -1, 0.13, -294.87, 279.38)" xlink:href="#radial-gradient"/><filter id="luminosity-noclip-4" x="25.21" y="-8679.63" width="92.69" height="32766" filterUnits="userSpaceOnUse" color-interpolation-filters="sRGB"><feFlood flood-color="#fff" result="bg"/><feBlend in="SourceGraphic" in2="bg"/></filter><mask id="mask-4" x="25.21" y="-8679.63" width="92.69" height="32766" maskUnits="userSpaceOnUse"><g class="cls-54"/></mask><radialGradient id="radial-gradient-4" cx="-611.25" cy="-466.73" r="33.28" gradientTransform="matrix(-0.97, 0.3, 1, 0.13, -52.28, 279.38)" xlink:href="#radial-gradient"/><filter id="luminosity-noclip-5" x="102.27" y="210.8" width="114.57" height="25.94" filterUnits="userSpaceOnUse" color-interpolation-filters="sRGB"><feFlood flood-color="#fff" result="bg"/><feBlend in="SourceGraphic" in2="bg"/></filter><mask id="mask-5" x="102.27" y="210.8" width="114.57" height="25.94" maskUnits="userSpaceOnUse"><g class="cls-1"><path class="cls-2" d="M216.83,228.6c-.54,6.65-26.63,9.87-58.27,7.21s-56.83-10.22-56.28-16.87,26.65-9.87,58.26-7.2S217.38,222,216.83,228.6Z"/></g></mask><radialGradient id="Degradado_sin_nombre_153" cx="-316.52" cy="304.46" r="39.98" gradientTransform="matrix(1, 0.3, -1.03, 0.13, 788.35, 279.38)" gradientUnits="userSpaceOnUse"><stop offset="0" stop-color="#3c3c3b"/><stop offset="1" stop-color="#fff" stop-opacity="0"/></radialGradient><filter id="luminosity-noclip-6" x="0" y="210.8" width="114.57" height="25.94" filterUnits="userSpaceOnUse" color-interpolation-filters="sRGB"><feFlood flood-color="#fff" result="bg"/><feBlend in="SourceGraphic" in2="bg"/></filter><mask id="mask-6" x="0" y="210.8" width="114.57" height="25.94" maskUnits="userSpaceOnUse"><g class="cls-3"><path class="cls-4" d="M0,228.6c.53,6.65,26.63,9.87,58.26,7.21s56.83-10.22,56.29-16.87-26.66-9.87-58.26-7.2S-.54,222,0,228.6Z"/></g></mask><radialGradient id="Degradado_sin_nombre_151" cx="155.89" cy="-801.09" r="39.98" gradientTransform="matrix(-1, 0.3, 1.03, 0.13, 1037.99, 279.38)" gradientUnits="userSpaceOnUse"><stop offset="0" stop-color="#3c3c3b"/><stop offset="0" stop-color="#3d3d3c"/><stop offset="1" stop-color="#fff" stop-opacity="0"/></radialGradient><clipPath id="clip-path"><rect class="cls-9" x="30.53" y="39.25" width="163.4" height="10.43"/></clipPath><filter id="luminosity-noclip-7" x="107.23" y="26.76" width="92.69" height="21.6" filterUnits="userSpaceOnUse" color-interpolation-filters="sRGB"><feFlood flood-color="#fff" result="bg"/><feBlend in="SourceGraphic" in2="bg"/></filter><mask id="mask-7" x="107.23" y="26.76" width="92.69" height="21.6" maskUnits="userSpaceOnUse"><g class="cls-5"><path class="cls-6" d="M199.91,41.58c-.43,5.53-21.54,8.21-47.14,6s-46-8.51-45.53-14,21.56-8.22,47.13-6S200.35,36,199.91,41.58Z"/></g></mask><radialGradient id="Degradado_sin_nombre_153-2" cx="-438.4" cy="-871.24" r="33.28" gradientTransform="matrix(0.97, 0.3, -1, 0.13, -294.87, 279.38)" xlink:href="#Degradado_sin_nombre_153"/><filter id="luminosity-noclip-8" x="25.21" y="26.76" width="92.69" height="21.6" filterUnits="userSpaceOnUse" color-interpolation-filters="sRGB"><feFlood flood-color="#fff" result="bg"/><feBlend in="SourceGraphic" in2="bg"/></filter><mask id="mask-8" x="25.21" y="26.76" width="92.69" height="21.6" maskUnits="userSpaceOnUse"><g class="cls-7"><path class="cls-8" d="M25.22,41.58c.43,5.53,21.54,8.21,47.13,6s46-8.51,45.54-14-21.57-8.22-47.13-6S24.77,36,25.22,41.58Z"/></g></mask><radialGradient id="Degradado_sin_nombre_151-2" cx="-611.25" cy="-466.73" r="33.28" gradientTransform="matrix(-0.97, 0.3, 1, 0.13, -52.28, 279.38)" xlink:href="#Degradado_sin_nombre_151"/><linearGradient id="linear-gradient" x1="-4009.08" y1="-1113.9" x2="-4009.08" y2="-1409" gradientTransform="translate(1662.03 311.33) rotate(-10.76) scale(0.38)" gradientUnits="userSpaceOnUse"><stop offset="0.01" stop-color="#a38368"/><stop offset="1" stop-color="#7f674f"/></linearGradient><linearGradient id="linear-gradient-2" x1="-4008.61" y1="-1113.9" x2="-4008.61" y2="-1409" gradientTransform="translate(1600.39 601.47) scale(0.38)" gradientUnits="userSpaceOnUse"><stop offset="0" stop-color="#7f674f"/><stop offset="1" stop-color="#a38368"/></linearGradient><linearGradient id="linear-gradient-3" x1="-4098.51" y1="-1141.02" x2="-4098.51" y2="-1436.14" gradientTransform="matrix(0.36, -0.07, 0.07, 0.36, 1645.14, 309.8)" gradientUnits="userSpaceOnUse"><stop offset="0.01" stop-color="#c59e7c"/><stop offset="1" stop-color="#cca47f"/></linearGradient><linearGradient id="linear-gradient-4" x1="-4098.51" y1="-1140.55" x2="-4098.51" y2="-1435.64" gradientTransform="matrix(0.36, -0.07, 0.07, 0.36, 1645.21, 310.17)" gradientUnits="userSpaceOnUse"><stop offset="0.01" stop-color="#a38368"/><stop offset="1" stop-color="#be9a7b"/></linearGradient><linearGradient id="linear-gradient-5" x1="2399.11" y1="238.41" x2="2399.11" y2="342.64" gradientTransform="matrix(-0.82, 0.16, -0.17, -0.91, 2111.84, 16.99)" gradientUnits="userSpaceOnUse"><stop offset="0" stop-color="#fff"/><stop offset="0.47" stop-color="#fdfdfd"/><stop offset="0.7" stop-color="#f5f6f6"/><stop offset="0.87" stop-color="#e9e9ea"/><stop offset="1" stop-color="#d8d9da"/></linearGradient><linearGradient id="linear-gradient-6" x1="-201.77" y1="446.39" x2="-192.62" y2="437.24" gradientTransform="matrix(0.82, -0.16, 0.17, 0.91, 165.14, -275.43)" gradientUnits="userSpaceOnUse"><stop offset="0" stop-color="#fff"/><stop offset="0.33" stop-color="#f2f3f3"/><stop offset="0.93" stop-color="#d0d3d4"/><stop offset="1" stop-color="#cccfd0"/></linearGradient><radialGradient id="radial-gradient-5" cx="2046.26" cy="199" r="11.96" gradientTransform="matrix(-1.15, 0.22, -0.24, -1.27, 2477.04, -29.71)" gradientUnits="userSpaceOnUse"><stop offset="0" stop-color="#fff"/><stop offset="0.48" stop-color="#fdfdfd"/><stop offset="0.65" stop-color="#f6f7f7"/><stop offset="0.78" stop-color="#ebebec"/><stop offset="0.88" stop-color="#dadbdc"/><stop offset="0.96" stop-color="#c4c6c8"/><stop offset="1" stop-color="#b7babc"/></radialGradient><linearGradient id="linear-gradient-7" x1="2378.45" y1="363.84" x2="2422.83" y2="319.46" gradientTransform="matrix(-0.82, 0.16, -0.17, -0.91, 2111.84, 16.99)" gradientUnits="userSpaceOnUse"><stop offset="0" stop-color="#cccfd0"/><stop offset="0.47" stop-color="#fff"/><stop offset="0.65" stop-color="#f2f3f3"/><stop offset="0.97" stop-color="#d0d3d4"/><stop offset="1" stop-color="#cccfd0"/></linearGradient><linearGradient id="linear-gradient-8" x1="-3917.24" y1="-2247.72" x2="-3917.24" y2="-2143.85" gradientTransform="matrix(0.23, -0.04, 0.04, 0.23, 1059.55, 401.08)" gradientUnits="userSpaceOnUse"><stop offset="0" stop-color="#cccdcf"/><stop offset="0.28" stop-color="#9a9da0"/><stop offset="0.55" stop-color="#eeeeef"/><stop offset="0.82" stop-color="#9a9da0"/><stop offset="1" stop-color="#7d7e80"/></linearGradient><linearGradient id="linear-gradient-9" x1="-3917.24" y1="-2248.66" x2="-3917.24" y2="-2144.8" gradientTransform="matrix(0.23, -0.04, 0.04, 0.23, 1059.46, 400.63)" gradientUnits="userSpaceOnUse"><stop offset="0" stop-color="#e5e5e6"/><stop offset="0.28" stop-color="#9a9da0"/><stop offset="0.55" stop-color="#f8f8f8"/><stop offset="0.82" stop-color="#b5b8ba"/><stop offset="1" stop-color="#eff0f0"/></linearGradient><linearGradient id="linear-gradient-10" x1="-5777.46" y1="-2776.87" x2="-5777.46" y2="-2766.08" gradientTransform="matrix(0.16, -0.03, 0.03, 0.16, 1113.74, 341.42)" gradientUnits="userSpaceOnUse"><stop offset="0" stop-color="#cccdcf"/><stop offset="0.28" stop-color="#9a9da0"/><stop offset="0.55" stop-color="#eeeeef"/><stop offset="0.82" stop-color="#9a9da0"/><stop offset="1" stop-color="#dcddde"/></linearGradient><linearGradient id="linear-gradient-11" x1="-5777.46" y1="-2773.58" x2="-5777.46" y2="-2762.8" gradientTransform="matrix(0.16, -0.03, 0.03, 0.16, 1113.96, 342.57)" xlink:href="#linear-gradient-10"/><linearGradient id="linear-gradient-12" x1="-5777.46" y1="-2770.3" x2="-5777.46" y2="-2759.52" gradientTransform="matrix(0.16, -0.03, 0.03, 0.16, 1114.18, 343.72)" xlink:href="#linear-gradient-10"/><linearGradient id="linear-gradient-13" x1="-5777.46" y1="-2767" x2="-5777.46" y2="-2756.22" gradientTransform="matrix(0.16, -0.03, 0.03, 0.16, 1114.4, 344.87)" xlink:href="#linear-gradient-10"/><radialGradient id="radial-gradient-6" cx="460.46" cy="-4781.1" fx="424.8575838492755" fy="-4789.497333515141" r="57.83" gradientTransform="translate(-283.56 701.24) scale(0.81 0.11)" gradientUnits="userSpaceOnUse"><stop offset="0" stop-color="#666"/><stop offset="0.25" stop-color="#838383" stop-opacity="0.79"/><stop offset="0.78" stop-color="#cdcdcd" stop-opacity="0.25"/><stop offset="1" stop-color="#efefef" stop-opacity="0"/></radialGradient><radialGradient id="radial-gradient-7" cx="-403.35" cy="-4687.08" fx="-424.63285432434736" fy="-4687.082051598936" r="34.57" gradientTransform="translate(434.15 701.24) scale(0.67 0.11)" xlink:href="#radial-gradient-6"/><radialGradient id="radial-gradient-8" cx="10301.8" cy="-4687.08" fx="10280.517388003083" fy="-4687.082055020135" r="34.57" gradientTransform="matrix(-0.67, 0, 0, 0.11, 6992.7, 701.24)" xlink:href="#radial-gradient-6"/></defs><g class="cls-10"><g id="Capa_2" data-name="Capa 2"><g id="Capa_1-2" data-name="Capa 1"><g class="cls-11"><path class="cls-12" d="M216.83,228.6c-.54,6.65-26.63,9.87-58.27,7.21s-56.83-10.22-56.28-16.87,26.65-9.87,58.26-7.2S217.38,222,216.83,228.6Z"/></g><g class="cls-13"><path class="cls-14" d="M0,228.6c.53,6.65,26.63,9.87,58.26,7.21s56.83-10.22,56.29-16.87-26.66-9.87-58.26-7.2S-.54,222,0,228.6Z"/></g><rect class="cls-15" x="1.28" y="10.86" width="214.28" height="216.19" rx="21.6"/><g class="cls-16"><g class="cls-17"><path class="cls-18" d="M199.91,41.58c-.43,5.53-21.54,8.21-47.14,6s-46-8.51-45.53-14,21.56-8.22,47.13-6S200.35,36,199.91,41.58Z"/></g><g class="cls-19"><path class="cls-20" d="M25.22,41.58c.43,5.53,21.54,8.21,47.13,6s46-8.51,45.54-14-21.57-8.22-47.13-6S24.77,36,25.22,41.58Z"/></g></g><rect class="cls-21" x="17.17" width="185.91" height="39.06" rx="18.64"/><text class="cls-22" transform="translate(38.4 19.98)">Rol de administrativo <tspan x="47.54" y="13.63">de CMI</tspan></text><path class="cls-23" d="M139.57,168.7a5.55,5.55,0,0,1-4.4,6.47l-70,13.29a5.56,5.56,0,0,1-6.48-4.4L40,85.61a5.54,5.54,0,0,1,4.4-6.47l70-13.3a5.55,5.55,0,0,1,6.47,4.41Z"/><rect class="cls-24" x="49.2" y="71.41" width="82.29" height="111.28" rx="5.54" transform="translate(-22.13 19.1) rotate(-10.76)"/><path class="cls-25" d="M113.59,67.84,45.91,80.7A5.38,5.38,0,0,0,41.65,87l.52,2.72a5.37,5.37,0,0,1,4.26-6.27l67.68-12.86a5.37,5.37,0,0,1,6.26,4.27l-.51-2.72A5.38,5.38,0,0,0,113.59,67.84Z"/><path class="cls-26" d="M133.28,171.43,65.59,184.29A5.37,5.37,0,0,1,59.33,180l.52,2.72A5.37,5.37,0,0,0,66.11,187l67.68-12.86a5.37,5.37,0,0,0,4.27-6.26l-.52-2.72A5.37,5.37,0,0,1,133.28,171.43Z"/><path class="cls-27" d="M132.49,169.75a2.54,2.54,0,0,0,1.87-3.06L116.84,74.53A2.54,2.54,0,0,0,114,72.37L47.39,85a2.55,2.55,0,0,0-1.87,3.06l12,63.16A7.86,7.86,0,0,0,60,155.39l27.69,21a6.4,6.4,0,0,0,4.38,1.08Z"/><path class="cls-28" d="M130.19,168.39a2.54,2.54,0,0,0,1.86-3.06L115,75.77a2.55,2.55,0,0,0-2.86-2.16L48.33,85.74a2.56,2.56,0,0,0-1.86,3.06l11.75,61.85a7.93,7.93,0,0,0,2.52,4.15L87,174.68a6.38,6.38,0,0,0,4.38,1.08Z"/><path class="cls-29" d="M86.44,169.51,84,156.45a4.85,4.85,0,0,0-5.45-4.13l-12.28,2.34Z"/><path class="cls-30" d="M84.3,153.22l5.17,21.29h0l-3-24.87a2.54,2.54,0,0,0-2.85-2.16l-21.5,4.08h0l19.32-.51A2.54,2.54,0,0,1,84.3,153.22Z"/><path class="cls-31" d="M114.54,73.16,46,86.19S73.7,87.7,114.54,73.16Z"/><path class="cls-27" d="M109.49,158.33a1.37,1.37,0,0,1,1-1.63l12.83-2.43a1.35,1.35,0,0,1,1.51,1.15h0a1.34,1.34,0,0,1-1,1.62L111,159.47a1.35,1.35,0,0,1-1.52-1.14Z"/><path class="cls-27" d="M104.3,154a1.34,1.34,0,0,1,1-1.63l17-3.24a1.34,1.34,0,0,1,1.51,1.15h0a1.34,1.34,0,0,1-1,1.62l-17,3.24A1.34,1.34,0,0,1,104.3,154Z"/><path class="cls-27" d="M99.09,149.66a1.35,1.35,0,0,1,1-1.62l21.28-4a1.35,1.35,0,0,1,1.51,1.15h0a1.35,1.35,0,0,1-1,1.62l-21.27,4.05a1.36,1.36,0,0,1-1.52-1.15Z"/><path class="cls-27" d="M68.13,130.38a1.34,1.34,0,0,1,1-1.63l47.63-9a1.35,1.35,0,0,1,1.51,1.15h0a1.35,1.35,0,0,1-1,1.63l-47.63,9a1.35,1.35,0,0,1-1.51-1.15Z"/><path class="cls-27" d="M81.79,135.53a1.34,1.34,0,0,1,1-1.63l35.38-6.72a1.34,1.34,0,0,1,1.51,1.15h0a1.35,1.35,0,0,1-1,1.62L83.3,136.67a1.34,1.34,0,0,1-1.51-1.14Z"/><path class="cls-27" d="M58.9,121a1.36,1.36,0,0,1,1-1.63L114.7,109a1.35,1.35,0,0,1,1.51,1.15h0a1.34,1.34,0,0,1-1,1.62L60.42,122.15A1.35,1.35,0,0,1,58.9,121Z"/><path class="cls-27" d="M57.57,114a1.35,1.35,0,0,1,1-1.62L113.37,102a1.34,1.34,0,0,1,1.51,1.14h0a1.35,1.35,0,0,1-1,1.63l-54.8,10.41A1.35,1.35,0,0,1,57.57,114Z"/><path class="cls-27" d="M56.15,106.52a1.36,1.36,0,0,1,1-1.63L112,94.48a1.36,1.36,0,0,1,1.51,1.15h0a1.34,1.34,0,0,1-1,1.62l-54.8,10.42a1.36,1.36,0,0,1-1.52-1.15Z"/><path class="cls-27" d="M54.82,99.51a1.35,1.35,0,0,1,1-1.62l54.81-10.42a1.36,1.36,0,0,1,1.51,1.15h0a1.36,1.36,0,0,1-1,1.63l-54.8,10.41a1.35,1.35,0,0,1-1.52-1.15Z"/><path class="cls-32" d="M102.3,74.46a4.8,4.8,0,0,0-5.61-3.82l-10.63,2-1-5.55-.08,0a4.4,4.4,0,0,0-.07-.8c-.58-3.06-4.16-4.95-8-4.22S70.38,65.91,71,69a6.25,6.25,0,0,0,.23.77h-.08l1.06,5.55-10.63,2a4.81,4.81,0,0,0-3.82,5.61L58,84.59a6.25,6.25,0,0,0,.16.62,2,2,0,0,0,0,.43l.33,1.77a1.92,1.92,0,0,0,2.24,1.53l2.83-.54L98.8,81.72l2.83-.53a1.92,1.92,0,0,0,1.52-2.25l-.34-1.77a1.48,1.48,0,0,0-.12-.41,4.66,4.66,0,0,0-.08-.64Z"/><path class="cls-33" d="M102.17,73.79A4.81,4.81,0,0,0,96.56,70L85.94,72l-1.06-5.54h-.07a4.23,4.23,0,0,0-.08-.79c-.58-3.06-4.16-5-8-4.22s-6.47,3.8-5.89,6.86a4.75,4.75,0,0,0,.22.76l-.07,0L72,74.63l-10.63,2a4.81,4.81,0,0,0-3.81,5.61l.31,1.66a4.16,4.16,0,0,0,.17.63,1.59,1.59,0,0,0,0,.43l.34,1.77a1.93,1.93,0,0,0,2.24,1.53l2.83-.54,35.15-6.68,2.83-.54A1.91,1.91,0,0,0,103,78.28l-.33-1.77a1.79,1.79,0,0,0-.13-.41,4.78,4.78,0,0,0-.07-.65Z"/><path class="cls-34" d="M82,65.12a.41.41,0,0,1-.33.48l-8,1.53a.42.42,0,0,1-.48-.33h0a.42.42,0,0,1,.33-.48l8-1.53a.41.41,0,0,1,.48.33Z"/><path class="cls-35" d="M82.29,66.81a.41.41,0,0,1-.32.48l-8.06,1.53a.41.41,0,0,1-.48-.33h0a.42.42,0,0,1,.33-.48l8-1.53a.42.42,0,0,1,.48.33Z"/><path class="cls-36" d="M82.61,68.5a.41.41,0,0,1-.32.48l-8.06,1.53a.41.41,0,0,1-.48-.33h0a.41.41,0,0,1,.33-.47l8-1.53a.4.4,0,0,1,.48.32Z"/><path class="cls-37" d="M82.93,70.19a.4.4,0,0,1-.32.48l-8,1.53a.41.41,0,0,1-.48-.33h0a.39.39,0,0,1,.32-.47l8-1.53a.41.41,0,0,1,.48.32Z"/><path class="cls-38" d="M116.93,145.33l52.75,8.24a3.19,3.19,0,0,0,3.64-2.66l.51-3.24,6.31-40.43.51-3.23,1.45-9.28a3.19,3.19,0,0,0-2.66-3.64l-6.61-1,.53-3.39a2.86,2.86,0,0,0-5.65-.88l-.53,3.39L139,84.76l.53-3.39a2.86,2.86,0,1,0-5.65-.89l-.53,3.4-6.61-1a3.19,3.19,0,0,0-3.64,2.66l-1.45,9.28L121.09,98l-6.32,40.43-.5,3.23A3.2,3.2,0,0,0,116.93,145.33Z"/><path class="cls-39" d="M115,99.55h59.77a0,0,0,0,1,0,0v44.2a3.19,3.19,0,0,1-3.19,3.19H118.23a3.19,3.19,0,0,1-3.19-3.19V99.55a0,0,0,0,1,0,0Z" transform="translate(20.76 -20.9) rotate(8.88)"/><path class="cls-40" d="M115.54,96.32h59.77a0,0,0,0,1,0,0v44.2a3.19,3.19,0,0,1-3.19,3.19H118.73a3.19,3.19,0,0,1-3.19-3.19V96.32a0,0,0,0,1,0,0Z" transform="translate(20.27 -21.01) rotate(8.88)"/><path class="cls-41" d="M123.36,84.09h53.39a3.19,3.19,0,0,1,3.19,3.19v9.39a0,0,0,0,1,0,0H120.17a0,0,0,0,1,0,0V87.28A3.19,3.19,0,0,1,123.36,84.09Z" transform="translate(15.75 -22.08) rotate(8.88)"/><rect class="cls-42" x="123.93" y="97.81" width="6.66" height="6.66" transform="translate(17.14 -18.43) rotate(8.88)"/><rect class="cls-42" x="134.29" y="99.43" width="6.66" height="6.66" transform="translate(17.51 -20.01) rotate(8.88)"/><rect class="cls-42" x="150.41" y="132.08" width="6.66" height="6.66" transform="translate(22.75 -22.11) rotate(8.88)"/><rect class="cls-42" x="160.77" y="133.69" width="6.66" height="6.66" transform="translate(23.12 -23.69) rotate(8.88)"/><rect class="cls-42" x="122.38" y="107.69" width="6.66" height="6.66" transform="translate(18.65 -18.08) rotate(8.88)"/><rect class="cls-42" x="132.74" y="109.31" width="6.66" height="6.66" transform="translate(19.02 -19.66) rotate(8.88)"/><rect class="cls-42" x="143.1" y="110.93" width="6.66" height="6.66" transform="translate(19.4 -21.24) rotate(8.88)"/><rect class="cls-43" x="153.46" y="112.55" width="6.66" height="6.66" transform="translate(19.77 -22.82) rotate(8.88)"/><rect class="cls-43" x="163.82" y="114.17" width="6.66" height="6.66" transform="translate(20.14 -24.4) rotate(8.88)"/><rect class="cls-42" x="120.84" y="117.57" width="6.66" height="6.66" transform="translate(20.15 -17.72) rotate(8.88)"/><rect class="cls-41" x="131.2" y="119.19" width="6.66" height="6.66" transform="translate(20.53 -19.3) rotate(8.88)"/><rect class="cls-42" x="141.56" y="120.81" width="6.66" height="6.66" transform="translate(20.9 -20.88) rotate(8.88)"/><rect class="cls-43" x="151.92" y="122.43" width="6.66" height="6.66" transform="matrix(0.99, 0.15, -0.15, 0.99, 21.28, -22.46)"/><rect class="cls-43" x="162.28" y="124.05" width="6.66" height="6.66" transform="translate(21.65 -24.04) rotate(8.88)"/><path class="cls-40" d="M131.79,77.69l-1.06,6.78a2.87,2.87,0,0,0,2.39,3.27l1.94-12.43A2.86,2.86,0,0,0,131.79,77.69Z"/><path class="cls-44" d="M135.06,75.31l-1.94,12.43a2.86,2.86,0,0,0,3.26-2.38l1.06-6.79A2.85,2.85,0,0,0,135.06,75.31Z"/><path class="cls-40" d="M165.67,83l-1.06,6.79A2.86,2.86,0,0,0,167,93l1.94-12.43A2.87,2.87,0,0,0,165.67,83Z"/><path class="cls-44" d="M168.94,80.6,167,93a2.85,2.85,0,0,0,3.26-2.38l1.06-6.78A2.87,2.87,0,0,0,168.94,80.6Z"/><path class="cls-45" d="M139.3,190.26c0,3.41-21.1,6.17-47.13,6.17S45,193.67,45,190.26s21.1-6.16,47.13-6.16S139.3,186.86,139.3,190.26Z"/><path class="cls-46" d="M187.86,200.63c0,2-10.35,3.68-23.11,3.68s-23.12-1.65-23.12-3.68,10.35-3.69,23.12-3.69S187.86,198.59,187.86,200.63Z"/><path class="cls-47" d="M81.88,200.63c0,2,10.34,3.68,23.11,3.68s23.11-1.65,23.11-3.68-10.35-3.69-23.11-3.69S81.88,198.59,81.88,200.63Z"/><path class="cls-48" d="M125.55,154.27l4.9,1,.37-8.38h0a8.55,8.55,0,0,0-16.58-3.46h0L111,151.24l5.1,1.06a8.57,8.57,0,0,0,9.44,2Z"/><path class="cls-49" d="M130.58,153.92h0a9.93,9.93,0,0,0-19.15-4.16h0L98.75,178.11,131,184.82Z"/><path class="cls-48" d="M122.57,184.93l8.23,1.71.3-12.89.06-1.89A13.53,13.53,0,0,0,120,157.57a14.4,14.4,0,0,0-16.44,9.2h0l-5.38,13.07,8.56,1.78a14.35,14.35,0,0,0,15.84,3.31Z"/><path class="cls-50" d="M124,138a8.54,8.54,0,0,0-3.06-.07l-4.75,14.49-6.28,19.13,7.83,1.63,3.81-18.26L125,138.26A8.54,8.54,0,0,0,124,138Z"/><path class="cls-51" d="M129.62,187.26a15.64,15.64,0,1,1-12.12-18.5A15.63,15.63,0,0,1,129.62,187.26Z"/><path class="cls-52" d="M128.35,183.89a13.72,13.72,0,1,1-10.72-15.77A13.48,13.48,0,0,1,128.35,183.89Z"/><path class="cls-53" d="M110.87,200.56a16.84,16.84,0,1,1,19.92-13.05A16.86,16.86,0,0,1,110.87,200.56Zm6.39-30.62A14.44,14.44,0,1,0,128.45,187,14.46,14.46,0,0,0,117.26,169.94Z"/><path class="cls-40" d="M124.61,184.56a5.09,5.09,0,1,1-4-6A5.1,5.1,0,0,1,124.61,184.56Z"/><path class="cls-48" d="M143.71,154.27l-4.9,1-.37-8.38h0A8.55,8.55,0,0,1,155,143.45h0l3.21,7.79-5.1,1.06a8.57,8.57,0,0,1-9.44,2Z"/><path class="cls-49" d="M138.68,153.92h0a9.93,9.93,0,0,1,19.15-4.16h0l12.67,28.35-32.21,6.71Z"/><path class="cls-48" d="M146.69,184.93l-8.23,1.71-.3-12.89-.06-1.89a13.53,13.53,0,0,1,11.15-14.29,14.4,14.4,0,0,1,16.44,9.2h0l5.38,13.07-8.56,1.78a14.35,14.35,0,0,1-15.84,3.31Z"/><path class="cls-50" d="M145.24,138a8.54,8.54,0,0,1,3.06-.07l4.75,14.49,6.28,19.13-7.83,1.63-3.81-18.26-3.47-16.63A8.54,8.54,0,0,1,145.24,138Z"/><path class="cls-51" d="M139.64,187.26a15.64,15.64,0,1,0,12.12-18.5A15.63,15.63,0,0,0,139.64,187.26Z"/><path class="cls-52" d="M140.91,183.89a13.72,13.72,0,1,0,10.71-15.77A13.48,13.48,0,0,0,140.91,183.89Z"/><path class="cls-53" d="M138.47,187.51a16.83,16.83,0,1,1,19.92,13.05A16.85,16.85,0,0,1,138.47,187.51Zm2.34-.49A14.44,14.44,0,1,0,152,169.94,14.47,14.47,0,0,0,140.81,187Z"/><path class="cls-40" d="M144.65,184.56a5.09,5.09,0,1,0,3.95-6A5.1,5.1,0,0,0,144.65,184.56Z"/><path class="cls-48" d="M129.32,172.33s4.72-6.11,10.83,0v-9.9s-4.71-5.62-10.6.27Z"/><path class="cls-48" d="M129.62,158.88s4.46-5.91,10.23,0l-.64-9.9s-4.13-5.16-8.86.27Z"/></g></g></g></svg>