<svg xmlns="http://www.w3.org/2000/svg" xmlns:xlink="http://www.w3.org/1999/xlink" viewBox="0 0 216.84 236.74"><defs><style>.cls-1{mask:url(#mask);filter:url(#luminosity-noclip-5);}.cls-12,.cls-14,.cls-18,.cls-2,.cls-20,.cls-4,.cls-51,.cls-52,.cls-53,.cls-6,.cls-8{mix-blend-mode:multiply;}.cls-2{fill:url(#radial-gradient);}.cls-3{mask:url(#mask-2);filter:url(#luminosity-noclip-6);}.cls-4{fill:url(#radial-gradient-2);}.cls-5{mask:url(#mask-3);filter:url(#luminosity-noclip-7);}.cls-6{fill:url(#radial-gradient-3);}.cls-7{mask:url(#mask-4);filter:url(#luminosity-noclip-8);}.cls-8{fill:url(#radial-gradient-4);}.cls-9{fill:none;}.cls-10{isolation:isolate;}.cls-11{mask:url(#mask-5);}.cls-12{fill:url(#Degradado_sin_nombre_153);}.cls-13{mask:url(#mask-6);}.cls-14{fill:url(#Degradado_sin_nombre_151);}.cls-15{fill:#ececec;}.cls-16{clip-path:url(#clip-path);}.cls-17{mask:url(#mask-7);}.cls-18{fill:url(#Degradado_sin_nombre_153-2);}.cls-19{mask:url(#mask-8);}.cls-20{fill:url(#Degradado_sin_nombre_151-2);}.cls-21{fill:#93d500;}.cls-22{font-size:15.73px;fill:#fefefe;font-family:VAGRounded-Bold, VAG Rounded;font-weight:700;}.cls-23{fill:#78bda3;}.cls-23,.cls-24,.cls-32,.cls-33,.cls-34,.cls-35{fill-rule:evenodd;}.cls-24,.cls-60{fill:#fff;}.cls-25{fill:#cacaca;}.cls-26{fill:#6db2c0;}.cls-27,.cls-35{fill:#4d8cb2;}.cls-28,.cls-34{fill:#90bee7;}.cls-29,.cls-33{fill:#a4c9ee;}.cls-30,.cls-32{fill:#b5d5f4;}.cls-31{fill:#c7e2fa;}.cls-36{fill:url(#linear-gradient);}.cls-37{fill:url(#linear-gradient-2);}.cls-38{fill:url(#linear-gradient-3);}.cls-39{fill:url(#linear-gradient-4);}.cls-40{fill:#bab6be;}.cls-41{fill:url(#linear-gradient-5);}.cls-42{fill:url(#linear-gradient-6);}.cls-43{fill:url(#radial-gradient-5);}.cls-44{fill:url(#linear-gradient-7);}.cls-45{fill:url(#linear-gradient-8);}.cls-46{fill:url(#linear-gradient-9);}.cls-47{fill:url(#linear-gradient-10);}.cls-48{fill:url(#linear-gradient-11);}.cls-49{fill:url(#linear-gradient-12);}.cls-50{fill:url(#linear-gradient-13);}.cls-51{fill:url(#radial-gradient-6);}.cls-52{fill:url(#radial-gradient-7);}.cls-53{fill:url(#radial-gradient-8);}.cls-54{fill:#1f3b51;}.cls-55{fill:#307c9e;}.cls-56,.cls-58{fill:#ebebeb;}.cls-56{opacity:0.3;}.cls-57{fill:#ccc;}.cls-59{fill:#03698e;}.cls-61{filter:url(#luminosity-noclip-4);}.cls-62{filter:url(#luminosity-noclip-3);}.cls-63{filter:url(#luminosity-noclip-2);}.cls-64{filter:url(#luminosity-noclip);}</style><filter id="luminosity-noclip" x="102.27" y="-8680.63" width="114.57" height="32766" filterUnits="userSpaceOnUse" color-interpolation-filters="sRGB"><feFlood flood-color="#fff" result="bg"/><feBlend in="SourceGraphic" in2="bg"/></filter><mask id="mask" x="102.27" y="-8680.63" width="114.57" height="32766" maskUnits="userSpaceOnUse"><g class="cls-64"/></mask><radialGradient id="radial-gradient" cx="-319.11" cy="302.94" r="39.98" gradientTransform="matrix(1, 0.3, -1.03, 0.13, 789.37, 280.35)" gradientUnits="userSpaceOnUse"><stop offset="0.5" stop-color="#a6a6a6"/><stop offset="0.6" stop-color="#a3a3a3"/><stop offset="0.67" stop-color="#999"/><stop offset="0.75" stop-color="#888"/><stop offset="0.81" stop-color="#707070"/><stop offset="0.88" stop-color="#515151"/><stop offset="0.94" stop-color="#2c2c2c"/><stop offset="1"/></radialGradient><filter id="luminosity-noclip-2" x="0" y="-8680.63" width="114.57" height="32766" filterUnits="userSpaceOnUse" color-interpolation-filters="sRGB"><feFlood flood-color="#fff" result="bg"/><feBlend in="SourceGraphic" in2="bg"/></filter><mask id="mask-2" x="0" y="-8680.63" width="114.57" height="32766" maskUnits="userSpaceOnUse"><g class="cls-63"/></mask><radialGradient id="radial-gradient-2" cx="153.1" cy="-802.14" r="39.98" gradientTransform="matrix(-1, 0.3, 1.03, 0.13, 1036.3, 280.35)" xlink:href="#radial-gradient"/><filter id="luminosity-noclip-3" x="107.23" y="-8680.63" width="92.69" height="32766" filterUnits="userSpaceOnUse" color-interpolation-filters="sRGB"><feFlood flood-color="#fff" result="bg"/><feBlend in="SourceGraphic" in2="bg"/></filter><mask id="mask-3" x="107.23" y="-8680.63" width="92.69" height="32766" maskUnits="userSpaceOnUse"><g class="cls-62"/></mask><radialGradient id="radial-gradient-3" cx="-440.99" cy="-872.76" r="33.28" gradientTransform="matrix(0.97, 0.3, -1, 0.13, -293.89, 280.35)" xlink:href="#radial-gradient"/><filter id="luminosity-noclip-4" x="25.21" y="-8680.63" width="92.69" height="32766" filterUnits="userSpaceOnUse" color-interpolation-filters="sRGB"><feFlood flood-color="#fff" result="bg"/><feBlend in="SourceGraphic" in2="bg"/></filter><mask id="mask-4" x="25.21" y="-8680.63" width="92.69" height="32766" maskUnits="userSpaceOnUse"><g class="cls-61"/></mask><radialGradient id="radial-gradient-4" cx="-614.05" cy="-467.78" r="33.28" gradientTransform="matrix(-0.97, 0.3, 1, 0.13, -53.93, 280.35)" xlink:href="#radial-gradient"/><filter id="luminosity-noclip-5" x="102.27" y="210.8" width="114.57" height="25.94" filterUnits="userSpaceOnUse" color-interpolation-filters="sRGB"><feFlood flood-color="#fff" result="bg"/><feBlend in="SourceGraphic" in2="bg"/></filter><mask id="mask-5" x="102.27" y="210.8" width="114.57" height="25.94" maskUnits="userSpaceOnUse"><g class="cls-1"><path class="cls-2" d="M216.83,228.6c-.54,6.65-26.63,9.87-58.27,7.21s-56.83-10.22-56.28-16.87,26.65-9.87,58.26-7.2S217.38,222,216.83,228.6Z"/></g></mask><radialGradient id="Degradado_sin_nombre_153" cx="-319.11" cy="302.94" r="39.98" gradientTransform="matrix(1, 0.3, -1.03, 0.13, 789.37, 280.35)" gradientUnits="userSpaceOnUse"><stop offset="0" stop-color="#3c3c3b"/><stop offset="1" stop-color="#fff" stop-opacity="0"/></radialGradient><filter id="luminosity-noclip-6" x="0" y="210.8" width="114.57" height="25.94" filterUnits="userSpaceOnUse" color-interpolation-filters="sRGB"><feFlood flood-color="#fff" result="bg"/><feBlend in="SourceGraphic" in2="bg"/></filter><mask id="mask-6" x="0" y="210.8" width="114.57" height="25.94" maskUnits="userSpaceOnUse"><g class="cls-3"><path class="cls-4" d="M0,228.6c.53,6.65,26.63,9.87,58.26,7.21s56.83-10.22,56.29-16.87-26.66-9.87-58.26-7.2S-.54,222,0,228.6Z"/></g></mask><radialGradient id="Degradado_sin_nombre_151" cx="153.1" cy="-802.14" r="39.98" gradientTransform="matrix(-1, 0.3, 1.03, 0.13, 1036.3, 280.35)" gradientUnits="userSpaceOnUse"><stop offset="0" stop-color="#3c3c3b"/><stop offset="0" stop-color="#3d3d3c"/><stop offset="1" stop-color="#fff" stop-opacity="0"/></radialGradient><clipPath id="clip-path"><rect class="cls-9" x="30.53" y="39.25" width="163.4" height="10.43"/></clipPath><filter id="luminosity-noclip-7" x="107.23" y="26.76" width="92.69" height="21.6" filterUnits="userSpaceOnUse" color-interpolation-filters="sRGB"><feFlood flood-color="#fff" result="bg"/><feBlend in="SourceGraphic" in2="bg"/></filter><mask id="mask-7" x="107.23" y="26.76" width="92.69" height="21.6" maskUnits="userSpaceOnUse"><g class="cls-5"><path class="cls-6" d="M199.91,41.58c-.43,5.53-21.54,8.21-47.14,6s-46-8.51-45.53-14,21.56-8.22,47.13-6S200.35,36,199.91,41.58Z"/></g></mask><radialGradient id="Degradado_sin_nombre_153-2" cx="-440.99" cy="-872.76" r="33.28" gradientTransform="matrix(0.97, 0.3, -1, 0.13, -293.89, 280.35)" xlink:href="#Degradado_sin_nombre_153"/><filter id="luminosity-noclip-8" x="25.21" y="26.76" width="92.69" height="21.6" filterUnits="userSpaceOnUse" color-interpolation-filters="sRGB"><feFlood flood-color="#fff" result="bg"/><feBlend in="SourceGraphic" in2="bg"/></filter><mask id="mask-8" x="25.21" y="26.76" width="92.69" height="21.6" maskUnits="userSpaceOnUse"><g class="cls-7"><path class="cls-8" d="M25.22,41.58c.43,5.53,21.54,8.21,47.13,6s46-8.51,45.54-14-21.57-8.22-47.13-6S24.77,36,25.22,41.58Z"/></g></mask><radialGradient id="Degradado_sin_nombre_151-2" cx="-614.05" cy="-467.78" r="33.28" gradientTransform="matrix(-0.97, 0.3, 1, 0.13, -53.93, 280.35)" xlink:href="#Degradado_sin_nombre_151"/><linearGradient id="linear-gradient" x1="-4018.44" y1="-1117.31" x2="-4018.44" y2="-1412.41" gradientTransform="translate(1599.56 602.86) scale(0.38)" gradientUnits="userSpaceOnUse"><stop offset="0.01" stop-color="#a38368"/><stop offset="1" stop-color="#7f674f"/></linearGradient><linearGradient id="linear-gradient-2" x1="-4017.97" y1="-1117.31" x2="-4017.97" y2="-1412.41" gradientTransform="translate(1599.93 602.75) scale(0.38)" gradientUnits="userSpaceOnUse"><stop offset="0" stop-color="#7f674f"/><stop offset="1" stop-color="#a38368"/></linearGradient><linearGradient id="linear-gradient-3" x1="-4108.17" y1="-1144.57" x2="-4108.17" y2="-1439.7" gradientTransform="matrix(0.36, -0.07, 0.07, 0.36, 1644.86, 310.41)" gradientUnits="userSpaceOnUse"><stop offset="0.01" stop-color="#c59e7c"/><stop offset="1" stop-color="#cca47f"/></linearGradient><linearGradient id="linear-gradient-4" x1="-4108.17" y1="-1144.11" x2="-4108.17" y2="-1439.2" gradientTransform="matrix(0.36, -0.07, 0.07, 0.36, 1644.93, 310.78)" gradientUnits="userSpaceOnUse"><stop offset="0.01" stop-color="#a38368"/><stop offset="1" stop-color="#be9a7b"/></linearGradient><linearGradient id="linear-gradient-5" x1="2402.84" y1="241.2" x2="2402.84" y2="345.42" gradientTransform="matrix(-0.82, 0.16, -0.17, -0.91, 2111.41, 18.94)" gradientUnits="userSpaceOnUse"><stop offset="0" stop-color="#fff"/><stop offset="0.47" stop-color="#fdfdfd"/><stop offset="0.7" stop-color="#f5f6f6"/><stop offset="0.87" stop-color="#e9e9ea"/><stop offset="1" stop-color="#d8d9da"/></linearGradient><linearGradient id="linear-gradient-6" x1="-206.17" y1="445.59" x2="-197.02" y2="436.44" gradientTransform="matrix(0.82, -0.16, 0.17, 0.91, 164.91, -275.39)" gradientUnits="userSpaceOnUse"><stop offset="0" stop-color="#fff"/><stop offset="0.33" stop-color="#f2f3f3"/><stop offset="0.93" stop-color="#d0d3d4"/><stop offset="1" stop-color="#cccfd0"/></linearGradient><radialGradient id="radial-gradient-5" cx="2048.84" cy="201.28" r="11.96" gradientTransform="matrix(-1.15, 0.22, -0.24, -1.27, 2476.57, -27.38)" gradientUnits="userSpaceOnUse"><stop offset="0" stop-color="#fff"/><stop offset="0.48" stop-color="#fdfdfd"/><stop offset="0.65" stop-color="#f6f7f7"/><stop offset="0.78" stop-color="#ebebec"/><stop offset="0.88" stop-color="#dadbdc"/><stop offset="0.96" stop-color="#c4c6c8"/><stop offset="1" stop-color="#b7babc"/></radialGradient><linearGradient id="linear-gradient-7" x1="2382.18" y1="366.63" x2="2426.56" y2="322.25" gradientTransform="matrix(-0.82, 0.16, -0.17, -0.91, 2111.41, 18.94)" gradientUnits="userSpaceOnUse"><stop offset="0" stop-color="#cccfd0"/><stop offset="0.47" stop-color="#fff"/><stop offset="0.65" stop-color="#f2f3f3"/><stop offset="0.97" stop-color="#d0d3d4"/><stop offset="1" stop-color="#cccfd0"/></linearGradient><linearGradient id="linear-gradient-8" x1="-3932.33" y1="-2253.93" x2="-3932.33" y2="-2150.06" gradientTransform="matrix(0.23, -0.04, 0.04, 0.23, 1059.25, 401.84)" gradientUnits="userSpaceOnUse"><stop offset="0" stop-color="#cccdcf"/><stop offset="0.28" stop-color="#9a9da0"/><stop offset="0.55" stop-color="#eeeeef"/><stop offset="0.82" stop-color="#9a9da0"/><stop offset="1" stop-color="#7d7e80"/></linearGradient><linearGradient id="linear-gradient-9" x1="-3932.33" y1="-2254.87" x2="-3932.33" y2="-2151" gradientTransform="matrix(0.23, -0.04, 0.04, 0.23, 1059.16, 401.38)" gradientUnits="userSpaceOnUse"><stop offset="0" stop-color="#e5e5e6"/><stop offset="0.28" stop-color="#9a9da0"/><stop offset="0.55" stop-color="#f8f8f8"/><stop offset="0.82" stop-color="#b5b8ba"/><stop offset="1" stop-color="#eff0f0"/></linearGradient><linearGradient id="linear-gradient-10" x1="-5798.11" y1="-2785.79" x2="-5798.11" y2="-2775" gradientTransform="matrix(0.16, -0.03, 0.03, 0.16, 1113.43, 342.24)" gradientUnits="userSpaceOnUse"><stop offset="0" stop-color="#cccdcf"/><stop offset="0.28" stop-color="#9a9da0"/><stop offset="0.55" stop-color="#eeeeef"/><stop offset="0.82" stop-color="#9a9da0"/><stop offset="1" stop-color="#dcddde"/></linearGradient><linearGradient id="linear-gradient-11" x1="-5798.11" y1="-2782.5" x2="-5798.11" y2="-2771.72" gradientTransform="matrix(0.16, -0.03, 0.03, 0.16, 1113.65, 343.39)" xlink:href="#linear-gradient-10"/><linearGradient id="linear-gradient-12" x1="-5798.11" y1="-2779.22" x2="-5798.11" y2="-2768.44" gradientTransform="matrix(0.16, -0.03, 0.03, 0.16, 1113.87, 344.54)" xlink:href="#linear-gradient-10"/><linearGradient id="linear-gradient-13" x1="-5798.11" y1="-2775.92" x2="-5798.11" y2="-2765.15" gradientTransform="matrix(0.16, -0.03, 0.03, 0.16, 1114.09, 345.69)" xlink:href="#linear-gradient-10"/><radialGradient id="radial-gradient-6" cx="455.65" cy="-4789.44" fx="420.0464521933609" fy="-4797.830806977335" r="57.83" gradientTransform="translate(-283.62 702.12) scale(0.81 0.11)" gradientUnits="userSpaceOnUse"><stop offset="0" stop-color="#666"/><stop offset="0.25" stop-color="#838383" stop-opacity="0.79"/><stop offset="0.78" stop-color="#cdcdcd" stop-opacity="0.25"/><stop offset="1" stop-color="#efefef" stop-opacity="0"/></radialGradient><radialGradient id="radial-gradient-7" cx="-431.37" cy="-4651.44" fx="-450.27302797945543" fy="-4651.436346078078" r="30.7" gradientTransform="translate(434.04 702.12) scale(0.67 0.11)" xlink:href="#radial-gradient-6"/><radialGradient id="radial-gradient-8" cx="10319.25" cy="-4651.44" fx="10300.348442529943" fy="-4651.436349499277" r="30.7" gradientTransform="matrix(-0.67, 0, 0, 0.11, 6992.15, 702.12)" xlink:href="#radial-gradient-6"/></defs><g class="cls-10"><g id="Capa_2" data-name="Capa 2"><g id="Capa_1-2" data-name="Capa 1"><g class="cls-11"><path class="cls-12" d="M216.83,228.6c-.54,6.65-26.63,9.87-58.27,7.21s-56.83-10.22-56.28-16.87,26.65-9.87,58.26-7.2S217.38,222,216.83,228.6Z"/></g><g class="cls-13"><path class="cls-14" d="M0,228.6c.53,6.65,26.63,9.87,58.26,7.21s56.83-10.22,56.29-16.87-26.66-9.87-58.26-7.2S-.54,222,0,228.6Z"/></g><rect class="cls-15" x="1.28" y="10.86" width="214.28" height="216.19" rx="21.6"/><g class="cls-16"><g class="cls-17"><path class="cls-18" d="M199.91,41.58c-.43,5.53-21.54,8.21-47.14,6s-46-8.51-45.53-14,21.56-8.22,47.13-6S200.35,36,199.91,41.58Z"/></g><g class="cls-19"><path class="cls-20" d="M25.22,41.58c.43,5.53,21.54,8.21,47.13,6s46-8.51,45.54-14-21.57-8.22-47.13-6S24.77,36,25.22,41.58Z"/></g></g><rect class="cls-21" x="17.17" width="185.91" height="39.06" rx="18.64"/><text class="cls-22" transform="translate(38.4 19.98)">Rol de administrativo <tspan x="29.04" y="13.63">de indicador</tspan></text><polygon class="cls-23" points="119.55 73.51 174.13 78.96 183.29 79.87 174.29 170.02 110.55 163.65 119.55 73.51"/><polygon class="cls-24" points="132.33 65.43 184.83 81.31 193.64 83.98 167.41 170.69 106.1 152.15 132.33 65.43"/><rect class="cls-25" x="159.2" y="69.17" width="1.52" height="31.1" transform="translate(32.55 213.29) rotate(-73.17)"/><rect class="cls-25" x="158.1" y="62.2" width="1.52" height="52.3" transform="translate(28.3 214.82) rotate(-73.17)"/><rect class="cls-25" x="157.33" y="64.74" width="1.52" height="52.3" transform="translate(25.32 215.89) rotate(-73.17)"/><rect class="cls-25" x="156.56" y="67.28" width="1.52" height="52.3" transform="translate(22.34 216.96) rotate(-73.17)"/><rect class="cls-25" x="142.49" y="79.69" width="1.52" height="24.51" transform="translate(13.77 202.44) rotate(-73.17)"/><rect class="cls-25" x="147.63" y="106.63" width="0.65" height="48.52" transform="translate(-20.16 234.62) rotate(-73.17)"/><rect class="cls-25" x="113.79" y="108.79" width="30.82" height="0.66" transform="translate(-12.65 201.19) rotate(-73.17)"/><rect class="cls-25" x="122.65" y="111.47" width="30.82" height="0.65" transform="translate(-8.92 211.57) rotate(-73.17)"/><rect class="cls-25" x="131.5" y="114.15" width="30.82" height="0.65" transform="translate(-5.19 221.95) rotate(-73.17)"/><rect class="cls-25" x="140.36" y="116.83" width="30.82" height="0.65" transform="translate(-1.47 232.33) rotate(-73.17)"/><rect class="cls-25" x="149.4" y="119.57" width="30.8" height="0.65" transform="translate(0.84 240.95) rotate(-72.47)"/><rect class="cls-25" x="158.08" y="122.19" width="30.82" height="0.65" transform="translate(5.99 253.1) rotate(-73.17)"/><polygon class="cls-25" points="126.92 116.63 173.37 130.68 173.18 131.31 126.74 117.26 126.92 116.63"/><polygon class="cls-25" points="129.02 109.71 175.36 124.09 175.16 124.72 128.83 110.33 129.02 109.71"/><rect class="cls-25" x="153.91" y="85.86" width="0.65" height="48.52" transform="translate(4.18 225.87) rotate(-73.17)"/><rect class="cls-25" x="156.01" y="78.94" width="0.65" height="48.52" transform="translate(12.29 222.96) rotate(-73.17)"/><polygon class="cls-26" points="140.34 105.7 124.13 123.46 124.85 124.12 140.44 107.05 144.07 122.42 144.2 122.96 144.72 122.76 155.32 118.66 161.86 127.94 162.23 128.47 162.64 127.97 174.57 113.42 176.18 114.73 177.15 109.5 172.21 111.48 173.82 112.8 162.29 126.85 155.9 117.78 155.68 117.46 155.32 117.6 144.89 121.64 141.18 105.92 140.97 105.01 140.34 105.7"/><rect class="cls-25" x="123.53" y="124.07" width="1.43" height="2.82" transform="matrix(0.29, -0.96, 0.96, 0.29, -31.83, 208.08)"/><rect class="cls-25" x="132.39" y="126.75" width="1.43" height="2.82" transform="translate(-28.12 218.41) rotate(-73.15)"/><rect class="cls-25" x="141.25" y="129.43" width="1.43" height="2.82" transform="translate(-24.4 228.79) rotate(-73.15)"/><rect class="cls-25" x="150.11" y="132.11" width="1.43" height="2.82" transform="translate(-20.67 239.17) rotate(-73.15)"/><rect class="cls-25" x="158.96" y="134.79" width="1.43" height="2.82" transform="translate(-16.92 249.6) rotate(-73.17)"/><rect class="cls-25" x="167.82" y="137.47" width="1.43" height="2.82" transform="translate(-13.19 259.98) rotate(-73.17)"/><rect class="cls-25" x="123.85" y="114.85" width="1.43" height="2.82" transform="translate(-22.78 201.83) rotate(-73.17)"/><rect class="cls-25" x="125.94" y="107.93" width="1.43" height="2.82" transform="translate(-14.64 198.95) rotate(-73.19)"/><rect class="cls-25" x="128.04" y="101.01" width="1.43" height="2.82" transform="translate(-6.55 196) rotate(-73.17)"/><rect class="cls-25" x="129.89" y="94.89" width="1.43" height="2.82" transform="translate(0.64 193.46) rotate(-73.19)"/><rect class="cls-25" x="125.02" y="140.93" width="2.99" height="26.36" transform="translate(-57.62 230.58) rotate(-73.17)"/><rect class="cls-27" x="110.48" y="138.99" width="17.15" height="4.69" transform="translate(-50.69 214.37) rotate(-73.17)"/><rect class="cls-28" x="117.97" y="143.65" width="10.68" height="4.69" transform="translate(-52.14 221.75) rotate(-73.17)"/><rect class="cls-29" x="124.44" y="146.95" width="7.06" height="4.69" transform="matrix(0.29, -0.96, 0.96, 0.29, -51.98, 228.56)"/><rect class="cls-30" x="128.45" y="146.94" width="10.38" height="4.69" transform="translate(-47.94 233.97) rotate(-73.17)"/><rect class="cls-31" x="134.68" y="149.92" width="7.42" height="4.69" transform="translate(-47.42 240.64) rotate(-73.17)"/><circle class="cls-31" cx="155.51" cy="153.48" r="10.5" transform="translate(-56.91 204.63) rotate(-58.16)"/><path class="cls-32" d="M147.44,160.19a10.5,10.5,0,0,1-2.26-4.84l10.33-1.87Z"/><path class="cls-33" d="M145.18,155.35a10.5,10.5,0,0,1,6.53-11.66l3.8,9.79Z"/><path class="cls-34" d="M151.71,143.69a10.44,10.44,0,0,1,6.84-.26l-3,10Z"/><path class="cls-35" d="M158.55,143.43l-3,10,9.29-4.88A10.45,10.45,0,0,0,158.55,143.43Z"/><path class="cls-36" d="M50.21,71.51h71.21A5.54,5.54,0,0,1,127,77V177.26a5.54,5.54,0,0,1-5.54,5.54H50.21a5.53,5.53,0,0,1-5.53-5.53V77a5.53,5.53,0,0,1,5.53-5.53Z" transform="translate(-22.23 18.25) rotate(-10.76)"/><rect class="cls-37" x="45.22" y="71.41" width="82.29" height="111.28" rx="5.54" transform="translate(-22.2 18.35) rotate(-10.76)"/><path class="cls-38" d="M109.61,67.84,41.93,80.7A5.38,5.38,0,0,0,37.67,87l.51,2.72a5.38,5.38,0,0,1,4.27-6.27l67.68-12.86a5.37,5.37,0,0,1,6.26,4.27l-.51-2.72A5.38,5.38,0,0,0,109.61,67.84Z"/><path class="cls-39" d="M129.3,171.43,61.61,184.29A5.37,5.37,0,0,1,55.35,180l.52,2.72A5.37,5.37,0,0,0,62.13,187l67.68-12.86a5.37,5.37,0,0,0,4.27-6.26l-.52-2.72A5.37,5.37,0,0,1,129.3,171.43Z"/><path class="cls-40" d="M128.5,169.75a2.53,2.53,0,0,0,1.87-3.06L112.86,74.53A2.54,2.54,0,0,0,110,72.37L43.41,85a2.55,2.55,0,0,0-1.87,3.06l12,63.16a7.8,7.8,0,0,0,2.52,4.15l27.68,21a6.44,6.44,0,0,0,4.39,1.08Z"/><path class="cls-41" d="M126.21,168.39a2.55,2.55,0,0,0,1.86-3.06l-17-89.56a2.55,2.55,0,0,0-2.86-2.16L44.35,85.74a2.55,2.55,0,0,0-1.86,3.06l11.75,61.85a7.93,7.93,0,0,0,2.52,4.15L83,174.68a6.36,6.36,0,0,0,4.38,1.08Z"/><path class="cls-42" d="M82.46,169.51,80,156.45a4.85,4.85,0,0,0-5.45-4.13l-12.28,2.34Z"/><path class="cls-43" d="M80.32,153.22l5.17,21.29h0l-3-24.87a2.55,2.55,0,0,0-2.86-2.16l-21.5,4.08h0l19.33-.51A2.54,2.54,0,0,1,80.32,153.22Z"/><path class="cls-44" d="M110.56,73.16,42,86.19S69.71,87.7,110.56,73.16Z"/><path class="cls-40" d="M105.51,158.33a1.36,1.36,0,0,1,1-1.63l12.83-2.43a1.35,1.35,0,0,1,1.51,1.15h0a1.35,1.35,0,0,1-1,1.62L107,159.47a1.34,1.34,0,0,1-1.52-1.14Z"/><path class="cls-40" d="M100.31,154a1.35,1.35,0,0,1,1-1.63l17-3.24a1.34,1.34,0,0,1,1.51,1.15h0a1.35,1.35,0,0,1-1,1.62l-17,3.24a1.35,1.35,0,0,1-1.52-1.14Z"/><path class="cls-40" d="M95.11,149.66a1.35,1.35,0,0,1,1-1.62l21.27-4a1.35,1.35,0,0,1,1.52,1.15h0a1.35,1.35,0,0,1-1,1.62l-21.27,4.05a1.36,1.36,0,0,1-1.52-1.15Z"/><path class="cls-40" d="M64.14,130.38a1.36,1.36,0,0,1,1-1.63l47.63-9a1.35,1.35,0,0,1,1.51,1.15h0a1.35,1.35,0,0,1-1,1.63l-47.64,9a1.36,1.36,0,0,1-1.51-1.15Z"/><path class="cls-40" d="M77.81,135.53a1.34,1.34,0,0,1,1-1.63l35.38-6.72a1.35,1.35,0,0,1,1.51,1.15h0a1.35,1.35,0,0,1-1,1.62l-35.39,6.72a1.34,1.34,0,0,1-1.51-1.14Z"/><path class="cls-40" d="M54.92,121a1.36,1.36,0,0,1,1-1.63L110.72,109a1.36,1.36,0,0,1,1.51,1.15h0a1.34,1.34,0,0,1-1,1.62l-54.8,10.42A1.35,1.35,0,0,1,54.92,121Z"/><path class="cls-40" d="M53.59,114a1.34,1.34,0,0,1,1-1.62L109.39,102a1.35,1.35,0,0,1,1.51,1.14h0a1.36,1.36,0,0,1-1,1.63l-54.8,10.41A1.35,1.35,0,0,1,53.59,114Z"/><path class="cls-40" d="M52.17,106.52a1.36,1.36,0,0,1,1-1.63L108,94.48a1.36,1.36,0,0,1,1.51,1.15h0a1.35,1.35,0,0,1-1,1.62l-54.8,10.42a1.36,1.36,0,0,1-1.52-1.15Z"/><path class="cls-40" d="M50.84,99.51a1.34,1.34,0,0,1,1-1.62l54.8-10.42a1.36,1.36,0,0,1,1.52,1.15h0a1.36,1.36,0,0,1-1,1.63l-54.8,10.41a1.34,1.34,0,0,1-1.52-1.15Z"/><path class="cls-45" d="M98.32,74.46a4.81,4.81,0,0,0-5.61-3.82l-10.63,2-1-5.55-.08,0a4.4,4.4,0,0,0-.07-.8c-.58-3.06-4.16-4.95-8-4.22S66.4,65.91,67,69a4,4,0,0,0,.23.77h-.08l1.05,5.55-10.63,2a4.81,4.81,0,0,0-3.81,5.61l.32,1.66a6.25,6.25,0,0,0,.16.62,2,2,0,0,0,0,.43l.33,1.77a1.92,1.92,0,0,0,2.24,1.53l2.83-.54,35.15-6.68,2.84-.53a1.93,1.93,0,0,0,1.52-2.25l-.34-1.77a1.51,1.51,0,0,0-.13-.41,3.48,3.48,0,0,0-.07-.64Z"/><path class="cls-46" d="M98.19,73.79A4.81,4.81,0,0,0,92.58,70L82,72l-1-5.54h-.08a4.22,4.22,0,0,0-.07-.79c-.58-3.06-4.16-5-8-4.22s-6.48,3.8-5.89,6.86a4.75,4.75,0,0,0,.22.76l-.08,0,1.06,5.54-10.63,2a4.82,4.82,0,0,0-3.82,5.61l.32,1.66a4.16,4.16,0,0,0,.17.63,1.59,1.59,0,0,0,0,.43l.34,1.77a1.92,1.92,0,0,0,2.24,1.53l2.82-.54,35.16-6.68,2.83-.54A1.91,1.91,0,0,0,99,78.28l-.33-1.77a1.79,1.79,0,0,0-.13-.41,4.78,4.78,0,0,0-.07-.65Z"/><path class="cls-47" d="M78,65.12a.41.41,0,0,1-.33.48l-8,1.53a.42.42,0,0,1-.48-.33h0a.42.42,0,0,1,.33-.48l8.05-1.53a.41.41,0,0,1,.48.33Z"/><path class="cls-48" d="M78.31,66.81a.41.41,0,0,1-.33.48l-8,1.53a.41.41,0,0,1-.48-.33h0a.42.42,0,0,1,.33-.48l8-1.53a.42.42,0,0,1,.48.33Z"/><path class="cls-49" d="M78.63,68.5a.41.41,0,0,1-.33.48l-8,1.53a.41.41,0,0,1-.48-.33h0a.41.41,0,0,1,.33-.47l8.05-1.53a.4.4,0,0,1,.48.32Z"/><path class="cls-50" d="M79,70.19a.41.41,0,0,1-.32.48L70.57,72.2a.42.42,0,0,1-.48-.33h0a.41.41,0,0,1,.33-.47l8-1.53a.41.41,0,0,1,.48.32Z"/><path class="cls-51" d="M135.32,190.26c0,3.41-21.1,6.17-47.13,6.17s-47.13-2.76-47.13-6.17,21.1-6.16,47.13-6.16S135.32,186.86,135.32,190.26Z"/><path class="cls-52" d="M166.4,205.38c0,1.8-9.19,3.27-20.53,3.27s-20.53-1.47-20.53-3.27,9.19-3.28,20.53-3.28S166.4,203.57,166.4,205.38Z"/><path class="cls-53" d="M72.27,205.38c0,1.8,9.19,3.27,20.53,3.27s20.53-1.47,20.53-3.27-9.19-3.28-20.53-3.28S72.27,203.57,72.27,205.38Z"/><path class="cls-54" d="M111.06,164.2l4.35.91.33-7.45h0A7.6,7.6,0,0,0,101,154.59h0l-2.84,6.92,4.53.94a7.46,7.46,0,0,0,3.92,2.17A7.58,7.58,0,0,0,111.06,164.2Z"/><path class="cls-55" d="M115.53,163.89h0a8.82,8.82,0,0,0-17-3.7h0L87.25,185.37l28.62,6Z"/><path class="cls-54" d="M108.41,191.43l7.31,1.52L116,181.5l.05-1.68a12,12,0,0,0-9.9-12.68,12.78,12.78,0,0,0-14.61,8.16h0l-4.78,11.61,7.6,1.59a12.73,12.73,0,0,0,14.07,2.93Z"/><path class="cls-56" d="M109.7,149.73a7.3,7.3,0,0,0-2.71-.07l-4.23,12.87-5.57,17,7,1.45,3.38-16.22L110.6,150A6.63,6.63,0,0,0,109.7,149.73Z"/><path class="cls-57" d="M114.67,193.51a13.89,13.89,0,1,1-10.76-16.44A13.88,13.88,0,0,1,114.67,193.51Z"/><path class="cls-58" d="M113.55,190.51a12.19,12.19,0,1,1-9.52-14A12,12,0,0,1,113.55,190.51Z"/><path class="cls-59" d="M98,205.31a15,15,0,1,1,17.7-11.59A15,15,0,0,1,98,205.31Zm5.67-27.19a12.82,12.82,0,1,0,9.94,15.17A12.83,12.83,0,0,0,103.69,178.12Z"/><path class="cls-60" d="M110.22,191.11a4.52,4.52,0,1,1-3.5-5.35A4.52,4.52,0,0,1,110.22,191.11Z"/><path class="cls-54" d="M127.19,164.2l-4.35.91-.33-7.45h0a7.6,7.6,0,0,1,14.73-3.07h0l2.85,6.92-4.53.94a7.46,7.46,0,0,1-3.92,2.17A7.57,7.57,0,0,1,127.19,164.2Z"/><path class="cls-55" d="M122.72,163.89h0a8.82,8.82,0,0,1,17-3.7h0L151,185.37l-28.62,6Z"/><path class="cls-54" d="M129.84,191.43,122.53,193l-.27-11.45-.05-1.68a12,12,0,0,1,9.9-12.68,12.78,12.78,0,0,1,14.61,8.16h0l4.78,11.61-7.61,1.59a12.72,12.72,0,0,1-14.06,2.93Z"/><path class="cls-56" d="M128.55,149.73a7.29,7.29,0,0,1,2.71-.07l4.23,12.87,5.57,17-7,1.45-3.38-16.22L127.64,150A7.21,7.21,0,0,1,128.55,149.73Z"/><path class="cls-57" d="M123.58,193.51a13.89,13.89,0,1,0,10.76-16.44A13.88,13.88,0,0,0,123.58,193.51Z"/><path class="cls-58" d="M124.7,190.51a12.18,12.18,0,1,0,9.52-14A12,12,0,0,0,124.7,190.51Z"/><path class="cls-59" d="M122.53,193.72a15,15,0,1,1,17.69,11.59A15,15,0,0,1,122.53,193.72Zm2.09-.43a12.83,12.83,0,1,0,9.94-15.17A12.84,12.84,0,0,0,124.62,193.29Z"/><path class="cls-60" d="M128,191.11a4.53,4.53,0,1,0,3.51-5.35A4.53,4.53,0,0,0,128,191.11Z"/><path class="cls-54" d="M114.4,180.24s4.2-5.43,9.62,0v-8.79s-4.18-5-9.41.24Z"/><path class="cls-54" d="M114.68,168.3s4-5.26,9.08,0l-.57-8.79s-3.67-4.59-7.87.23Z"/></g></g></g></svg>