<svg xmlns="http://www.w3.org/2000/svg" xmlns:xlink="http://www.w3.org/1999/xlink" viewBox="0 0 214.28 236.74"><defs><style>.cls-1{mask:url(#mask);filter:url(#luminosity-noclip-5);}.cls-12,.cls-14,.cls-18,.cls-2,.cls-20,.cls-4,.cls-51,.cls-52,.cls-53,.cls-54,.cls-6,.cls-8{mix-blend-mode:multiply;}.cls-2{fill:url(#radial-gradient);}.cls-3{mask:url(#mask-2);filter:url(#luminosity-noclip-6);}.cls-4{fill:url(#radial-gradient-2);}.cls-5{mask:url(#mask-3);filter:url(#luminosity-noclip-7);}.cls-6{fill:url(#radial-gradient-3);}.cls-7{mask:url(#mask-4);filter:url(#luminosity-noclip-8);}.cls-8{fill:url(#radial-gradient-4);}.cls-9{fill:none;}.cls-10{isolation:isolate;}.cls-11{mask:url(#mask-5);}.cls-12{fill:url(#Degradado_sin_nombre_153);}.cls-13{mask:url(#mask-6);}.cls-14{fill:url(#Degradado_sin_nombre_151);}.cls-15{fill:#ececec;}.cls-16{clip-path:url(#clip-path);}.cls-17{mask:url(#mask-7);}.cls-18{fill:url(#Degradado_sin_nombre_153-2);}.cls-19{mask:url(#mask-8);}.cls-20{fill:url(#Degradado_sin_nombre_151-2);}.cls-21{fill:#93d500;}.cls-22{font-size:15.73px;fill:#fefefe;font-family:VAGRounded-Bold, VAG Rounded;font-weight:700;}.cls-23{fill:#78bda3;}.cls-23,.cls-24,.cls-32,.cls-33,.cls-34,.cls-35,.cls-62,.cls-63,.cls-64,.cls-65,.cls-66,.cls-67{fill-rule:evenodd;}.cls-24,.cls-61{fill:#fff;}.cls-25{fill:#cacaca;}.cls-26{fill:#6db2c0;}.cls-27,.cls-35{fill:#4d8cb2;}.cls-28,.cls-34{fill:#90bee7;}.cls-29,.cls-33{fill:#a4c9ee;}.cls-30,.cls-32{fill:#b5d5f4;}.cls-31{fill:#c7e2fa;}.cls-36{fill:url(#linear-gradient);}.cls-37{fill:url(#linear-gradient-2);}.cls-38{fill:url(#linear-gradient-3);}.cls-39{fill:url(#linear-gradient-4);}.cls-40{fill:#bab6be;}.cls-41{fill:url(#linear-gradient-5);}.cls-42{fill:url(#linear-gradient-6);}.cls-43{fill:url(#radial-gradient-5);}.cls-44{fill:url(#linear-gradient-7);}.cls-45{fill:url(#linear-gradient-8);}.cls-46{fill:url(#linear-gradient-9);}.cls-47{fill:url(#linear-gradient-10);}.cls-48{fill:url(#linear-gradient-11);}.cls-49{fill:url(#linear-gradient-12);}.cls-50{fill:url(#linear-gradient-13);}.cls-51{fill:url(#radial-gradient-6);}.cls-52{fill:url(#radial-gradient-7);}.cls-53{fill:url(#radial-gradient-8);}.cls-54{fill:url(#radial-gradient-9);}.cls-55{fill:#1f3b51;}.cls-56{fill:#307c9e;}.cls-57,.cls-59{fill:#ebebeb;}.cls-57{opacity:0.3;}.cls-58{fill:#ccc;}.cls-60{fill:#03698e;}.cls-62{fill:gray;}.cls-63{fill:#4d4d4d;}.cls-64{fill:#e4e4e4;}.cls-65{fill:#ea7b5d;}.cls-66{fill:#d75430;}.cls-67{fill:#666;}.cls-68{filter:url(#luminosity-noclip-4);}.cls-69{filter:url(#luminosity-noclip-3);}.cls-70{filter:url(#luminosity-noclip-2);}.cls-71{filter:url(#luminosity-noclip);}</style><filter id="luminosity-noclip" x="101.28" y="-8680.3" width="112.37" height="32766" filterUnits="userSpaceOnUse" color-interpolation-filters="sRGB"><feFlood flood-color="#fff" result="bg"/><feBlend in="SourceGraphic" in2="bg"/></filter><mask id="mask" x="101.28" y="-8680.3" width="112.37" height="32766" maskUnits="userSpaceOnUse"><g class="cls-71"/></mask><radialGradient id="radial-gradient" cx="-319.37" cy="303.6" r="39.98" gradientTransform="matrix(0.98, 0.3, -1.01, 0.13, 776.13, 280.34)" gradientUnits="userSpaceOnUse"><stop offset="0.5" stop-color="#a6a6a6"/><stop offset="0.6" stop-color="#a3a3a3"/><stop offset="0.67" stop-color="#999"/><stop offset="0.75" stop-color="#888"/><stop offset="0.81" stop-color="#707070"/><stop offset="0.88" stop-color="#515151"/><stop offset="0.94" stop-color="#2c2c2c"/><stop offset="1"/></radialGradient><filter id="luminosity-noclip-2" x="0.97" y="-8680.3" width="112.37" height="32766" filterUnits="userSpaceOnUse" color-interpolation-filters="sRGB"><feFlood flood-color="#fff" result="bg"/><feBlend in="SourceGraphic" in2="bg"/></filter><mask id="mask-2" x="0.97" y="-8680.3" width="112.37" height="32766" maskUnits="userSpaceOnUse"><g class="cls-70"/></mask><radialGradient id="radial-gradient-2" cx="153.04" cy="-801.94" r="39.98" gradientTransform="matrix(-0.98, 0.3, 1.01, 0.13, 1017.16, 280.34)" xlink:href="#radial-gradient"/><filter id="luminosity-noclip-3" x="105.95" y="-8680.3" width="92.69" height="32766" filterUnits="userSpaceOnUse" color-interpolation-filters="sRGB"><feFlood flood-color="#fff" result="bg"/><feBlend in="SourceGraphic" in2="bg"/></filter><mask id="mask-3" x="105.95" y="-8680.3" width="92.69" height="32766" maskUnits="userSpaceOnUse"><g class="cls-69"/></mask><radialGradient id="radial-gradient-3" cx="-441.25" cy="-872.1" r="33.28" gradientTransform="matrix(0.97, 0.3, -1, 0.13, -294.25, 280.34)" xlink:href="#radial-gradient"/><filter id="luminosity-noclip-4" x="23.94" y="-8680.3" width="92.69" height="32766" filterUnits="userSpaceOnUse" color-interpolation-filters="sRGB"><feFlood flood-color="#fff" result="bg"/><feBlend in="SourceGraphic" in2="bg"/></filter><mask id="mask-4" x="23.94" y="-8680.3" width="92.69" height="32766" maskUnits="userSpaceOnUse"><g class="cls-68"/></mask><radialGradient id="radial-gradient-4" cx="-614.1" cy="-467.58" r="33.28" gradientTransform="matrix(-0.97, 0.3, 1, 0.13, -55.45, 280.34)" xlink:href="#radial-gradient"/><filter id="luminosity-noclip-5" x="101.28" y="210.8" width="112.37" height="25.94" filterUnits="userSpaceOnUse" color-interpolation-filters="sRGB"><feFlood flood-color="#fff" result="bg"/><feBlend in="SourceGraphic" in2="bg"/></filter><mask id="mask-5" x="101.28" y="210.8" width="112.37" height="25.94" maskUnits="userSpaceOnUse"><g class="cls-1"><path class="cls-2" d="M213.64,228.6c-.52,6.65-26.12,9.87-57.15,7.21s-55.74-10.22-55.2-16.87,26.14-9.87,57.14-7.2S214.18,222,213.64,228.6Z"/></g></mask><radialGradient id="Degradado_sin_nombre_153" cx="-319.37" cy="303.6" r="39.98" gradientTransform="matrix(0.98, 0.3, -1.01, 0.13, 776.13, 280.34)" gradientUnits="userSpaceOnUse"><stop offset="0" stop-color="#3c3c3b"/><stop offset="1" stop-color="#fff" stop-opacity="0"/></radialGradient><filter id="luminosity-noclip-6" x="0.97" y="210.8" width="112.37" height="25.94" filterUnits="userSpaceOnUse" color-interpolation-filters="sRGB"><feFlood flood-color="#fff" result="bg"/><feBlend in="SourceGraphic" in2="bg"/></filter><mask id="mask-6" x="0.97" y="210.8" width="112.37" height="25.94" maskUnits="userSpaceOnUse"><g class="cls-3"><path class="cls-4" d="M1,228.6c.52,6.65,26.11,9.87,57.14,7.21s55.75-10.22,55.21-16.87-26.15-9.87-57.15-7.2S.43,222,1,228.6Z"/></g></mask><radialGradient id="Degradado_sin_nombre_151" cx="153.04" cy="-801.94" r="39.98" gradientTransform="matrix(-0.98, 0.3, 1.01, 0.13, 1017.16, 280.34)" gradientUnits="userSpaceOnUse"><stop offset="0" stop-color="#3c3c3b"/><stop offset="0" stop-color="#3d3d3c"/><stop offset="1" stop-color="#fff" stop-opacity="0"/></radialGradient><clipPath id="clip-path"><rect class="cls-9" x="29.25" y="39.25" width="163.4" height="10.43"/></clipPath><filter id="luminosity-noclip-7" x="105.95" y="26.76" width="92.69" height="21.6" filterUnits="userSpaceOnUse" color-interpolation-filters="sRGB"><feFlood flood-color="#fff" result="bg"/><feBlend in="SourceGraphic" in2="bg"/></filter><mask id="mask-7" x="105.95" y="26.76" width="92.69" height="21.6" maskUnits="userSpaceOnUse"><g class="cls-5"><path class="cls-6" d="M198.63,41.58c-.43,5.53-21.54,8.21-47.13,6s-46-8.51-45.54-14,21.57-8.22,47.14-6S199.08,36,198.63,41.58Z"/></g></mask><radialGradient id="Degradado_sin_nombre_153-2" cx="-441.25" cy="-872.1" r="33.28" gradientTransform="matrix(0.97, 0.3, -1, 0.13, -294.25, 280.34)" xlink:href="#Degradado_sin_nombre_153"/><filter id="luminosity-noclip-8" x="23.94" y="26.76" width="92.69" height="21.6" filterUnits="userSpaceOnUse" color-interpolation-filters="sRGB"><feFlood flood-color="#fff" result="bg"/><feBlend in="SourceGraphic" in2="bg"/></filter><mask id="mask-8" x="23.94" y="26.76" width="92.69" height="21.6" maskUnits="userSpaceOnUse"><g class="cls-7"><path class="cls-8" d="M23.94,41.58c.43,5.53,21.54,8.21,47.14,6s46-8.51,45.53-14-21.56-8.22-47.13-6S23.5,36,23.94,41.58Z"/></g></mask><radialGradient id="Degradado_sin_nombre_151-2" cx="-614.1" cy="-467.58" r="33.28" gradientTransform="matrix(-0.97, 0.3, 1, 0.13, -55.45, 280.34)" xlink:href="#Degradado_sin_nombre_151"/><linearGradient id="linear-gradient" x1="-4040.36" y1="-1131.07" x2="-4040.36" y2="-1405.76" gradientTransform="translate(1598.88 604.15) scale(0.38)" gradientUnits="userSpaceOnUse"><stop offset="0.01" stop-color="#a38368"/><stop offset="1" stop-color="#7f674f"/></linearGradient><linearGradient id="linear-gradient-2" x1="-4040" y1="-1131.07" x2="-4040" y2="-1405.76" gradientTransform="translate(1599.24 604.05) scale(0.38)" gradientUnits="userSpaceOnUse"><stop offset="0" stop-color="#7f674f"/><stop offset="1" stop-color="#a38368"/></linearGradient><linearGradient id="linear-gradient-3" x1="-4130.8" y1="-1158.6" x2="-4130.8" y2="-1433.32" gradientTransform="matrix(0.36, -0.07, 0.07, 0.36, 1644.28, 310.13)" gradientUnits="userSpaceOnUse"><stop offset="0.01" stop-color="#c59e7c"/><stop offset="1" stop-color="#cca47f"/></linearGradient><linearGradient id="linear-gradient-4" x1="-4130.8" y1="-1158.24" x2="-4130.8" y2="-1432.92" gradientTransform="matrix(0.36, -0.07, 0.07, 0.36, 1644.35, 310.51)" gradientUnits="userSpaceOnUse"><stop offset="0.01" stop-color="#a38368"/><stop offset="1" stop-color="#be9a7b"/></linearGradient><linearGradient id="linear-gradient-5" x1="2411.3" y1="245.86" x2="2411.3" y2="342.88" gradientTransform="matrix(-0.82, 0.16, -0.17, -0.91, 2109.63, 18.46)" gradientUnits="userSpaceOnUse"><stop offset="0" stop-color="#fff"/><stop offset="0.47" stop-color="#fdfdfd"/><stop offset="0.7" stop-color="#f5f6f6"/><stop offset="0.87" stop-color="#e9e9ea"/><stop offset="1" stop-color="#d8d9da"/></linearGradient><linearGradient id="linear-gradient-6" x1="-214.93" y1="441.52" x2="-206.41" y2="433" gradientTransform="matrix(0.82, -0.16, 0.17, 0.91, 164.8, -275.57)" gradientUnits="userSpaceOnUse"><stop offset="0" stop-color="#fff"/><stop offset="0.33" stop-color="#f2f3f3"/><stop offset="0.93" stop-color="#d0d3d4"/><stop offset="1" stop-color="#cccfd0"/></linearGradient><radialGradient id="radial-gradient-5" cx="2053.49" cy="203.74" r="11.13" gradientTransform="matrix(-1.15, 0.22, -0.24, -1.27, 2474.46, -27.93)" gradientUnits="userSpaceOnUse"><stop offset="0" stop-color="#fff"/><stop offset="0.48" stop-color="#fdfdfd"/><stop offset="0.65" stop-color="#f6f7f7"/><stop offset="0.78" stop-color="#ebebec"/><stop offset="0.88" stop-color="#dadbdc"/><stop offset="0.96" stop-color="#c4c6c8"/><stop offset="1" stop-color="#b7babc"/></radialGradient><linearGradient id="linear-gradient-7" x1="2392.07" y1="362.62" x2="2433.38" y2="321.31" gradientTransform="matrix(-0.82, 0.16, -0.17, -0.91, 2109.63, 18.46)" gradientUnits="userSpaceOnUse"><stop offset="0" stop-color="#cccfd0"/><stop offset="0.47" stop-color="#fff"/><stop offset="0.65" stop-color="#f2f3f3"/><stop offset="0.97" stop-color="#d0d3d4"/><stop offset="1" stop-color="#cccfd0"/></linearGradient><linearGradient id="linear-gradient-8" x1="-3967.43" y1="-2239.49" x2="-3967.43" y2="-2142.81" gradientTransform="matrix(0.23, -0.04, 0.04, 0.23, 1058.53, 401.54)" gradientUnits="userSpaceOnUse"><stop offset="0" stop-color="#cccdcf"/><stop offset="0.28" stop-color="#9a9da0"/><stop offset="0.55" stop-color="#eeeeef"/><stop offset="0.82" stop-color="#9a9da0"/><stop offset="1" stop-color="#7d7e80"/></linearGradient><linearGradient id="linear-gradient-9" x1="-3967.43" y1="-2240.23" x2="-3967.43" y2="-2143.55" gradientTransform="matrix(0.23, -0.04, 0.04, 0.23, 1058.44, 401.09)" gradientUnits="userSpaceOnUse"><stop offset="0" stop-color="#e5e5e6"/><stop offset="0.28" stop-color="#9a9da0"/><stop offset="0.55" stop-color="#f8f8f8"/><stop offset="0.82" stop-color="#b5b8ba"/><stop offset="1" stop-color="#eff0f0"/></linearGradient><linearGradient id="linear-gradient-10" x1="-5846.05" y1="-2767.69" x2="-5846.05" y2="-2757.64" gradientTransform="matrix(0.16, -0.03, 0.03, 0.16, 1112.66, 341.94)" gradientUnits="userSpaceOnUse"><stop offset="0" stop-color="#cccdcf"/><stop offset="0.28" stop-color="#9a9da0"/><stop offset="0.55" stop-color="#eeeeef"/><stop offset="0.82" stop-color="#9a9da0"/><stop offset="1" stop-color="#dcddde"/></linearGradient><linearGradient id="linear-gradient-11" x1="-5846.05" y1="-2765.11" x2="-5846.05" y2="-2755.07" gradientTransform="matrix(0.16, -0.03, 0.03, 0.16, 1112.87, 343.09)" xlink:href="#linear-gradient-10"/><linearGradient id="linear-gradient-12" x1="-5846.05" y1="-2762.54" x2="-5846.05" y2="-2752.5" gradientTransform="matrix(0.16, -0.03, 0.03, 0.16, 1113.09, 344.24)" xlink:href="#linear-gradient-10"/><linearGradient id="linear-gradient-13" x1="-5846.05" y1="-2759.95" x2="-5846.05" y2="-2749.92" gradientTransform="matrix(0.16, -0.03, 0.03, 0.16, 1113.31, 345.39)" xlink:href="#linear-gradient-10"/><radialGradient id="radial-gradient-6" cx="444.73" cy="-4829.06" fx="411.58820750870257" fy="-4836.870707117395" r="53.83" gradientTransform="translate(-283.79 701.83) scale(0.81 0.11)" gradientUnits="userSpaceOnUse"><stop offset="0" stop-color="#666"/><stop offset="0.25" stop-color="#838383" stop-opacity="0.79"/><stop offset="0.78" stop-color="#cdcdcd" stop-opacity="0.25"/><stop offset="1" stop-color="#efefef" stop-opacity="0"/></radialGradient><radialGradient id="radial-gradient-7" cx="-2954.86" cy="-4698.82" fx="-2972.1029788268133" fy="-4698.815346363996" r="28" gradientTransform="translate(1519.09 701.83) scale(0.49 0.11)" xlink:href="#radial-gradient-6"/><radialGradient id="radial-gradient-8" cx="-439.79" cy="-4617.15" fx="-461.0697817243438" fy="-4617.150252917133" r="34.57" gradientTransform="translate(433.73 701.83) scale(0.67 0.11)" xlink:href="#radial-gradient-6"/><radialGradient id="radial-gradient-9" cx="10335.68" cy="-4617.15" fx="10314.403313647048" fy="-4617.150256338332" r="34.57" gradientTransform="matrix(-0.67, 0, 0, 0.11, 6990.57, 701.83)" xlink:href="#radial-gradient-6"/></defs><g class="cls-10"><g id="Capa_2" data-name="Capa 2"><g id="Capa_1-2" data-name="Capa 1"><g class="cls-11"><path class="cls-12" d="M213.64,228.6c-.52,6.65-26.12,9.87-57.15,7.21s-55.74-10.22-55.2-16.87,26.14-9.87,57.14-7.2S214.18,222,213.64,228.6Z"/></g><g class="cls-13"><path class="cls-14" d="M1,228.6c.52,6.65,26.11,9.87,57.14,7.21s55.75-10.22,55.21-16.87-26.15-9.87-57.15-7.2S.43,222,1,228.6Z"/></g><rect class="cls-15" y="10.86" width="214.28" height="216.19" rx="21.6"/><g class="cls-16"><g class="cls-17"><path class="cls-18" d="M198.63,41.58c-.43,5.53-21.54,8.21-47.13,6s-46-8.51-45.54-14,21.57-8.22,47.14-6S199.08,36,198.63,41.58Z"/></g><g class="cls-19"><path class="cls-20" d="M23.94,41.58c.43,5.53,21.54,8.21,47.14,6s46-8.51,45.53-14-21.56-8.22-47.13-6S23.5,36,23.94,41.58Z"/></g></g><rect class="cls-21" x="15.89" width="185.91" height="39.06" rx="18.64"/><text class="cls-22" transform="translate(58.52 23.28)">Rol de analista</text><polygon class="cls-23" points="107.88 78.37 162.71 77.07 171.91 76.86 174.06 167.42 110.02 168.94 107.88 78.37"/><polygon class="cls-24" points="119.56 68.79 173.62 78.09 182.69 79.66 167.32 168.93 104.19 158.07 119.56 68.79"/><rect class="cls-25" x="148.59" y="68.98" width="1.52" height="31.1" transform="translate(40.7 217.38) rotate(-80.23)"/><rect class="cls-25" x="147.95" y="62.12" width="1.52" height="52.3" transform="translate(36.49 219.84) rotate(-80.23)"/><rect class="cls-25" x="147.5" y="64.74" width="1.52" height="52.3" transform="translate(33.53 221.57) rotate(-80.23)"/><rect class="cls-25" x="147.05" y="67.35" width="1.52" height="52.3" transform="matrix(0.17, -0.99, 0.99, 0.17, 30.58, 223.3)"/><rect class="cls-25" x="132.91" y="81.5" width="1.52" height="24.51" transform="translate(18.59 209.58) rotate(-80.23)"/><rect class="cls-25" x="142.8" y="107.57" width="0.65" height="48.52" transform="translate(-11.08 250.51) rotate(-80.23)"/><rect class="cls-25" x="106.42" y="112.2" width="30.82" height="0.66" transform="matrix(0.17, -0.99, 0.99, 0.17, -9.74, 213.49)"/><rect class="cls-25" x="115.54" y="113.77" width="30.82" height="0.65" transform="translate(-3.71 223.78) rotate(-80.23)"/><rect class="cls-25" x="124.66" y="115.34" width="30.82" height="0.65" transform="translate(2.31 234.08) rotate(-80.23)"/><rect class="cls-25" x="133.78" y="116.91" width="30.82" height="0.65" transform="translate(8.34 244.36) rotate(-80.23)"/><rect class="cls-25" x="143.09" y="118.52" width="30.8" height="0.65" transform="translate(12.83 253.11) rotate(-79.54)"/><rect class="cls-25" x="152.02" y="120.05" width="30.82" height="0.65" transform="translate(20.39 264.95) rotate(-80.23)"/><polygon class="cls-25" points="120.5 120.26 168.32 128.5 168.21 129.14 120.39 120.91 120.5 120.26"/><polygon class="cls-25" points="121.72 113.14 169.48 121.71 169.36 122.36 121.61 113.78 121.72 113.14"/><rect class="cls-25" x="146.48" y="86.19" width="0.65" height="48.52" transform="translate(13.05 236.38) rotate(-80.23)"/><rect class="cls-25" x="147.7" y="79.06" width="0.65" height="48.52" transform="translate(21.09 231.67) rotate(-80.23)"/><polygon class="cls-26" points="132.47 107.76 118.56 127.38 119.36 127.95 132.73 109.09 138.22 123.89 138.42 124.42 138.91 124.16 148.92 118.78 156.56 127.19 156.99 127.67 157.34 127.13 167.39 111.22 169.14 112.32 169.47 107.01 164.81 109.58 166.56 110.69 156.85 126.06 149.39 117.84 149.13 117.55 148.79 117.73 138.94 123.03 133.33 107.88 133 107 132.47 107.76"/><rect class="cls-25" x="118.21" y="127.96" width="1.43" height="2.82" transform="translate(-28.75 224.62) rotate(-80.23)"/><rect class="cls-25" x="127.33" y="129.53" width="1.43" height="2.82" transform="translate(-22.75 234.87) rotate(-80.22)"/><rect class="cls-25" x="136.45" y="131.1" width="1.43" height="2.82" transform="translate(-16.73 245.16) rotate(-80.22)"/><rect class="cls-25" x="145.57" y="132.67" width="1.43" height="2.82" transform="translate(-10.7 255.45) rotate(-80.22)"/><rect class="cls-25" x="154.69" y="134.24" width="1.43" height="2.82" transform="translate(-4.65 265.79) rotate(-80.23)"/><rect class="cls-25" x="163.81" y="135.81" width="1.43" height="2.82" transform="translate(1.38 276.08) rotate(-80.23)"/><rect class="cls-25" x="117.39" y="118.77" width="1.43" height="2.82" transform="translate(-20.37 216.19) rotate(-80.23)"/><rect class="cls-25" x="118.62" y="111.65" width="1.43" height="2.82" transform="translate(-12.3 211.51) rotate(-80.25)"/><rect class="cls-25" x="119.85" y="104.52" width="1.43" height="2.82" transform="translate(-4.28 206.77) rotate(-80.23)"/><rect class="cls-25" x="120.93" y="98.22" width="1.43" height="2.82" transform="translate(2.85 202.64) rotate(-80.25)"/><rect class="cls-25" x="123.2" y="144.32" width="2.99" height="26.36" transform="matrix(0.17, -0.99, 0.99, 0.17, -51.68, 253.67)"/><rect class="cls-27" x="107.15" y="143.4" width="17.15" height="4.69" transform="translate(-47.54 235.06) rotate(-80.23)"/><rect class="cls-28" x="115.17" y="147.5" width="10.68" height="4.69" transform="translate(-47.61 243.19) rotate(-80.23)"/><rect class="cls-29" x="122.02" y="150.21" width="7.06" height="4.69" transform="translate(-46.09 250.39) rotate(-80.23)"/><rect class="cls-30" x="125.98" y="149.49" width="10.38" height="4.69" transform="translate(-40.72 255.34) rotate(-80.23)"/><rect class="cls-31" x="132.55" y="151.87" width="7.42" height="4.69" transform="translate(-38.84 262.33) rotate(-80.23)"/><circle class="cls-31" cx="153.39" cy="153.31" r="10.5" transform="translate(-50.09 228.34) rotate(-65.22)"/><path class="cls-32" d="M146.21,161a10.55,10.55,0,0,1-2.84-4.53l10-3.13Z"/><path class="cls-33" d="M143.37,156.44a10.51,10.51,0,0,1,5-12.37l5,9.24Z"/><path class="cls-34" d="M148.42,144.07a10.5,10.5,0,0,1,6.75-1.1l-1.78,10.34Z"/><path class="cls-35" d="M155.17,143l-1.78,10.34,8.62-6A10.45,10.45,0,0,0,155.17,143Z"/><path class="cls-36" d="M43.73,75.26H110a5.15,5.15,0,0,1,5.15,5.15v93.28a5.15,5.15,0,0,1-5.15,5.15H43.73a5.16,5.16,0,0,1-5.16-5.16V80.41a5.15,5.15,0,0,1,5.15-5.15Z" transform="translate(-22.37 16.58) rotate(-10.76)"/><path class="cls-37" d="M44.23,75.16h66.29a5.16,5.16,0,0,1,5.16,5.16v93.27a5.16,5.16,0,0,1-5.16,5.16H44.23a5.16,5.16,0,0,1-5.16-5.16V80.32A5.15,5.15,0,0,1,44.23,75.16Z" transform="translate(-22.34 16.68) rotate(-10.76)"/><path class="cls-38" d="M99,71.84l-63,12a5,5,0,0,0-4,5.83l.48,2.53a5,5,0,0,1,4-5.82l63-12a5,5,0,0,1,5.83,4l-.48-2.53A5,5,0,0,0,99,71.84Z"/><path class="cls-39" d="M117.34,168.27l-63,12a5,5,0,0,1-5.83-4L49,178.8a5,5,0,0,0,5.83,4l63-12a5,5,0,0,0,4-5.83l-.48-2.53A5,5,0,0,1,117.34,168.27Z"/><path class="cls-40" d="M116.61,166.71a2.38,2.38,0,0,0,1.74-2.85l-16.3-85.79a2.38,2.38,0,0,0-2.67-2l-62,11.77a2.36,2.36,0,0,0-1.74,2.85l11.17,58.79a7.25,7.25,0,0,0,2.34,3.86l25.77,19.51a5.9,5.9,0,0,0,4.08,1Z"/><path class="cls-41" d="M114.47,165.43a2.36,2.36,0,0,0,1.73-2.85L100.36,79.22a2.37,2.37,0,0,0-2.65-2L38.27,88.5a2.38,2.38,0,0,0-1.73,2.85l10.94,57.58a7.2,7.2,0,0,0,2.35,3.85l24.44,18.51a6,6,0,0,0,4.08,1Z"/><path class="cls-42" d="M73.75,166.48l-2.31-12.16a4.52,4.52,0,0,0-5.08-3.84l-11.42,2.17Z"/><path class="cls-43" d="M71.76,151.32l4.81,19.81h0L73.78,148a2.37,2.37,0,0,0-2.66-2l-20,3.8h0l18-.47A2.38,2.38,0,0,1,71.76,151.32Z"/><path class="cls-44" d="M99.9,76.79,36.08,88.92S61.88,90.33,99.9,76.79Z"/><path class="cls-40" d="M95.2,156.07a1.26,1.26,0,0,1,.92-1.51l11.94-2.27a1.26,1.26,0,0,1,1.41,1.07h0a1.26,1.26,0,0,1-.92,1.51l-11.94,2.27a1.26,1.26,0,0,1-1.41-1.07Z"/><path class="cls-40" d="M90.37,152a1.26,1.26,0,0,1,.92-1.52l15.86-3a1.25,1.25,0,0,1,1.41,1.07h0a1.25,1.25,0,0,1-.92,1.51l-15.86,3A1.24,1.24,0,0,1,90.37,152Z"/><path class="cls-40" d="M85.52,148a1.26,1.26,0,0,1,.92-1.51l19.8-3.76a1.24,1.24,0,0,1,1.41,1.06h0a1.26,1.26,0,0,1-.92,1.52l-19.8,3.76A1.26,1.26,0,0,1,85.52,148Z"/><path class="cls-40" d="M56.7,130.05a1.25,1.25,0,0,1,.91-1.51L102,120.12a1.25,1.25,0,0,1,1.41,1.07h0a1.26,1.26,0,0,1-.92,1.51L58.1,131.12a1.24,1.24,0,0,1-1.4-1.07Z"/><path class="cls-40" d="M69.42,134.84a1.24,1.24,0,0,1,.92-1.51l32.93-6.26a1.26,1.26,0,0,1,1.41,1.07h0a1.28,1.28,0,0,1-.92,1.52l-32.93,6.25a1.24,1.24,0,0,1-1.41-1.07Z"/><path class="cls-40" d="M48.11,121.32a1.26,1.26,0,0,1,.92-1.51l51-9.69a1.26,1.26,0,0,1,1.41,1.07h0a1.26,1.26,0,0,1-.92,1.51l-51,9.69a1.26,1.26,0,0,1-1.41-1.07Z"/><path class="cls-40" d="M46.87,114.8a1.26,1.26,0,0,1,.92-1.51l51-9.69a1.26,1.26,0,0,1,1.41,1.07h0a1.26,1.26,0,0,1-.92,1.51l-51,9.69a1.26,1.26,0,0,1-1.41-1.07Z"/><path class="cls-40" d="M45.55,107.84a1.26,1.26,0,0,1,.92-1.51l51-9.69a1.26,1.26,0,0,1,1.41,1.07h0A1.26,1.26,0,0,1,98,99.22l-51,9.69a1.25,1.25,0,0,1-1.41-1.07Z"/><path class="cls-40" d="M44.31,101.32a1.26,1.26,0,0,1,.92-1.51l51-9.69a1.25,1.25,0,0,1,1.41,1.07h0a1.26,1.26,0,0,1-.92,1.51l-51,9.69a1.26,1.26,0,0,1-1.41-1.07Z"/><path class="cls-45" d="M88.51,78a4.48,4.48,0,0,0-5.23-3.56l-9.89,1.88-1-5.16-.07,0a3.71,3.71,0,0,0-.07-.74c-.54-2.85-3.87-4.61-7.44-3.93s-6,3.54-5.49,6.39a4.44,4.44,0,0,0,.21.71h-.07l1,5.16-9.9,1.88A4.48,4.48,0,0,0,47,85.88l.3,1.55a3.8,3.8,0,0,0,.15.58,2.69,2.69,0,0,0,0,.4l.32,1.65a1.78,1.78,0,0,0,2.08,1.42l2.63-.5,32.73-6.22,2.63-.5a1.78,1.78,0,0,0,1.42-2.08L89,80.53a2.52,2.52,0,0,0-.12-.39,4.43,4.43,0,0,0-.07-.6Z"/><path class="cls-46" d="M88.39,77.38a4.48,4.48,0,0,0-5.22-3.55l-9.9,1.88-1-5.17-.07,0a4.52,4.52,0,0,0-.06-.74c-.54-2.85-3.88-4.61-7.45-3.93s-6,3.54-5.49,6.39a4.44,4.44,0,0,0,.21.71h-.07l1,5.16L50.45,80a4.49,4.49,0,0,0-3.56,5.22l.3,1.55a5.47,5.47,0,0,0,.15.58,2.69,2.69,0,0,0,0,.4l.32,1.65a1.77,1.77,0,0,0,2.08,1.42l2.64-.5,32.72-6.21,2.63-.5a1.79,1.79,0,0,0,1.42-2.09l-.31-1.65a1.53,1.53,0,0,0-.12-.38,4.39,4.39,0,0,0-.07-.61Z"/><path class="cls-47" d="M69.58,69.31a.37.37,0,0,1-.3.44l-7.5,1.43a.38.38,0,0,1-.44-.31h0a.38.38,0,0,1,.3-.44L69.14,69a.38.38,0,0,1,.44.31Z"/><path class="cls-48" d="M69.88,70.88a.38.38,0,0,1-.3.45l-7.5,1.42a.37.37,0,0,1-.44-.3h0a.39.39,0,0,1,.3-.45l7.5-1.43a.38.38,0,0,1,.44.31Z"/><path class="cls-49" d="M70.18,72.45a.39.39,0,0,1-.3.45l-7.5,1.42a.37.37,0,0,1-.44-.3h0a.38.38,0,0,1,.3-.44l7.5-1.43a.38.38,0,0,1,.44.3Z"/><path class="cls-50" d="M70.48,74a.38.38,0,0,1-.3.44l-7.5,1.43a.38.38,0,0,1-.44-.3h0a.38.38,0,0,1,.3-.45L70,73.73a.38.38,0,0,1,.45.3Z"/><path class="cls-51" d="M123,185.8c0,3.16-19.64,5.74-43.87,5.74S35.21,189,35.21,185.8s19.64-5.74,43.87-5.74S123,182.63,123,185.8Z"/><path class="cls-52" d="M70.56,200.06c0,1.65-6.2,3-13.86,3s-13.86-1.34-13.86-3,6.2-3,13.86-3S70.56,198.41,70.56,200.06Z"/><path class="cls-53" d="M163.08,208.68c0,2-10.35,3.69-23.12,3.69s-23.11-1.65-23.11-3.69S127.2,205,140,205,163.08,206.65,163.08,208.68Z"/><path class="cls-54" d="M57.09,208.68c0,2,10.35,3.69,23.11,3.69s23.12-1.65,23.12-3.69S93,205,80.2,205,57.09,206.65,57.09,208.68Z"/><path class="cls-55" d="M100.77,162.32l4.9,1L106,155h0a8.56,8.56,0,0,0-16.59-3.46h0l-3.2,7.79,5.1,1.07a8.53,8.53,0,0,0,9.44,2Z"/><path class="cls-56" d="M105.8,162h0a9.94,9.94,0,0,0-19.15-4.17h0L74,186.16l32.22,6.71Z"/><path class="cls-55" d="M97.79,193,106,194.7l.3-12.89.05-1.9a13.51,13.51,0,0,0-11.15-14.28,14.39,14.39,0,0,0-16.44,9.19h0l-5.39,13.07L82,189.68A14.33,14.33,0,0,0,97.79,193Z"/><path class="cls-57" d="M99.24,146a8.54,8.54,0,0,0-3.06-.08l-4.75,14.5-6.28,19.12L93,181.21l3.81-18.27,3.46-16.63A8.35,8.35,0,0,0,99.24,146Z"/><path class="cls-58" d="M104.84,195.32a15.64,15.64,0,1,1-12.12-18.5A15.65,15.65,0,0,1,104.84,195.32Z"/><path class="cls-59" d="M103.57,192a13.72,13.72,0,1,1-10.72-15.78A13.5,13.5,0,0,1,103.57,192Z"/><path class="cls-60" d="M86.09,208.61A16.84,16.84,0,1,1,106,195.56,16.86,16.86,0,0,1,86.09,208.61ZM92.47,178a14.44,14.44,0,1,0,11.19,17.08A14.47,14.47,0,0,0,92.47,178Z"/><path class="cls-61" d="M99.83,192.62a5.09,5.09,0,1,1-4-6A5.1,5.1,0,0,1,99.83,192.62Z"/><path class="cls-55" d="M118.93,162.32l-4.9,1-.38-8.38h0a8.56,8.56,0,0,1,16.59-3.46h0l3.21,7.79-5.11,1.07a8.52,8.52,0,0,1-9.43,2Z"/><path class="cls-56" d="M113.89,162h0a9.93,9.93,0,0,1,19.14-4.17h0l12.67,28.35-32.21,6.71Z"/><path class="cls-55" d="M121.91,193l-8.23,1.72-.3-12.89-.06-1.9a13.51,13.51,0,0,1,11.15-14.28,14.38,14.38,0,0,1,16.44,9.19h0l5.38,13.07-8.56,1.79a14.33,14.33,0,0,1-15.84,3.3Z"/><path class="cls-57" d="M120.45,146a8.54,8.54,0,0,1,3.06-.08l4.76,14.5,6.27,19.12-7.83,1.64-3.8-18.27-3.47-16.63A8.89,8.89,0,0,1,120.45,146Z"/><path class="cls-58" d="M114.86,195.32A15.64,15.64,0,1,0,127,176.82,15.64,15.64,0,0,0,114.86,195.32Z"/><path class="cls-59" d="M116.12,192a13.72,13.72,0,1,0,10.72-15.78A13.51,13.51,0,0,0,116.12,192Z"/><path class="cls-60" d="M113.68,195.56a16.84,16.84,0,1,1,19.92,13.05A16.86,16.86,0,0,1,113.68,195.56Zm2.35-.49A14.44,14.44,0,1,0,127.22,178,14.45,14.45,0,0,0,116,195.07Z"/><path class="cls-61" d="M119.87,192.62a5.09,5.09,0,1,0,3.94-6A5.09,5.09,0,0,0,119.87,192.62Z"/><path class="cls-55" d="M104.53,180.38s4.72-6.11,10.83,0v-9.89s-4.7-5.63-10.59.26Z"/><path class="cls-55" d="M104.84,166.94s4.46-5.92,10.22,0l-.63-9.89s-4.13-5.16-8.87.26Z"/><path class="cls-62" d="M54.78,193l-6.16,7.26-1.19-9.45L67.7,122.67a2.1,2.1,0,0,1,2.6-1.41l3.35,1a2.11,2.11,0,0,1,1.41,2.6Z"/><path class="cls-63" d="M54.78,193l-6.16,7.26,2.58-8.68L72,121.76l1.68.5a2.11,2.11,0,0,1,1.41,2.6Z"/><path class="cls-24" d="M54.78,193l-6.16,7.26-1.19-9.45,19.39-65.13a21.93,21.93,0,0,1,7.36,2.19Z"/><path class="cls-64" d="M54.78,193l-6.16,7.26,2.58-8.68L70.59,126.4a21.63,21.63,0,0,1,3.59,1.42Z"/><path class="cls-65" d="M54.78,193l-6.16,7.26-1.19-9.45L66.12,128a20.8,20.8,0,0,1,7.36,2.19Z"/><path class="cls-66" d="M54.78,193l-6.16,7.26,2.58-8.68,18.7-62.81a20.91,20.91,0,0,1,3.58,1.44Z"/><path class="cls-24" d="M54.78,193l-6.16,7.26-1.19-9.45a20.87,20.87,0,0,1,3.77.77A21.19,21.19,0,0,1,54.78,193Z"/><path class="cls-64" d="M54.78,193l-6.16,7.26,2.58-8.68A21.19,21.19,0,0,1,54.78,193Z"/><path class="cls-67" d="M50.66,197.81l-2,2.4-.4-3.12a6.29,6.29,0,0,1,1.25.25A8.42,8.42,0,0,1,50.66,197.81Z"/></g></g></g></svg>