<svg xmlns="http://www.w3.org/2000/svg" xmlns:xlink="http://www.w3.org/1999/xlink" viewBox="0 0 378.25 286.01"><defs><style>.cls-1{mask:url(#mask);filter:url(#luminosity-noclip-13);}.cls-10,.cls-12,.cls-14,.cls-16,.cls-18,.cls-2,.cls-20,.cls-22,.cls-24,.cls-27,.cls-29,.cls-33,.cls-35,.cls-37,.cls-4,.cls-40,.cls-42,.cls-44,.cls-46,.cls-48,.cls-50,.cls-52,.cls-6,.cls-8{mix-blend-mode:multiply;}.cls-2{fill:url(#radial-gradient);}.cls-3{mask:url(#mask-2);filter:url(#luminosity-noclip-18);}.cls-4{fill:url(#radial-gradient-2);}.cls-5{mask:url(#mask-3);filter:url(#luminosity-noclip-19);}.cls-6{fill:url(#radial-gradient-3);}.cls-7{mask:url(#mask-4);filter:url(#luminosity-noclip-20);}.cls-8{fill:url(#radial-gradient-4);}.cls-9{mask:url(#mask-5);filter:url(#luminosity-noclip-21);}.cls-10{fill:url(#radial-gradient-5);}.cls-11{mask:url(#mask-6);filter:url(#luminosity-noclip-22);}.cls-12{fill:url(#radial-gradient-6);}.cls-13{mask:url(#mask-7);filter:url(#luminosity-noclip-14);}.cls-14{fill:url(#radial-gradient-7);}.cls-15{mask:url(#mask-8);filter:url(#luminosity-noclip-23);}.cls-16{fill:url(#radial-gradient-8);}.cls-17{mask:url(#mask-9);filter:url(#luminosity-noclip-24);}.cls-18{fill:url(#radial-gradient-9);}.cls-19{mask:url(#mask-10);filter:url(#luminosity-noclip-15);}.cls-20{fill:url(#radial-gradient-10);}.cls-21{mask:url(#mask-11);filter:url(#luminosity-noclip-16);}.cls-22{fill:url(#radial-gradient-11);}.cls-23{mask:url(#mask-12);filter:url(#luminosity-noclip-17);}.cls-24{fill:url(#radial-gradient-12);}.cls-25{isolation:isolate;}.cls-26{mask:url(#mask-13);}.cls-27{fill:url(#Degradado_sin_nombre_153);}.cls-28{mask:url(#mask-14);}.cls-29{fill:url(#Degradado_sin_nombre_151);}.cls-30{fill:#00ae00;}.cls-31{fill:#fefefe;}.cls-32{mask:url(#mask-15);}.cls-33{fill:url(#Degradado_sin_nombre_153-2);}.cls-34{mask:url(#mask-16);}.cls-35{fill:url(#Degradado_sin_nombre_151-2);}.cls-36{mask:url(#mask-17);}.cls-37{fill:url(#Degradado_sin_nombre_153-3);}.cls-38{fill:#007b5e;}.cls-39{mask:url(#mask-18);}.cls-40{fill:url(#Degradado_sin_nombre_153-4);}.cls-41{mask:url(#mask-19);}.cls-42{fill:url(#Degradado_sin_nombre_151-3);}.cls-43{mask:url(#mask-20);}.cls-44{fill:url(#Degradado_sin_nombre_153-5);}.cls-45{mask:url(#mask-21);}.cls-46{fill:url(#Degradado_sin_nombre_151-4);}.cls-47{mask:url(#mask-22);}.cls-48{fill:url(#Degradado_sin_nombre_151-5);}.cls-49{mask:url(#mask-23);}.cls-50{fill:url(#Degradado_sin_nombre_153-6);}.cls-51{mask:url(#mask-24);}.cls-52{fill:url(#Degradado_sin_nombre_151-6);}.cls-53{filter:url(#luminosity-noclip-12);}.cls-54{filter:url(#luminosity-noclip-11);}.cls-55{filter:url(#luminosity-noclip-10);}.cls-56{filter:url(#luminosity-noclip-9);}.cls-57{filter:url(#luminosity-noclip-8);}.cls-58{filter:url(#luminosity-noclip-7);}.cls-59{filter:url(#luminosity-noclip-6);}.cls-60{filter:url(#luminosity-noclip-5);}.cls-61{filter:url(#luminosity-noclip-4);}.cls-62{filter:url(#luminosity-noclip-3);}.cls-63{filter:url(#luminosity-noclip-2);}.cls-64{filter:url(#luminosity-noclip);}</style><filter id="luminosity-noclip" x="91.88" y="-8687.31" width="81.09" height="32766" filterUnits="userSpaceOnUse" color-interpolation-filters="sRGB"><feFlood flood-color="#fff" result="bg"/><feBlend in="SourceGraphic" in2="bg"/></filter><mask id="mask" x="91.88" y="-8687.31" width="81.09" height="32766" maskUnits="userSpaceOnUse"><g class="cls-64"/></mask><radialGradient id="radial-gradient" cx="-915.03" cy="-275.19" r="28.5" gradientTransform="matrix(0.99, 0.3, -1.02, 0.13, 755.17, 439.4)" gradientUnits="userSpaceOnUse"><stop offset="0.5" stop-color="#a6a6a6"/><stop offset="0.6" stop-color="#a3a3a3"/><stop offset="0.67" stop-color="#999"/><stop offset="0.75" stop-color="#888"/><stop offset="0.81" stop-color="#707070"/><stop offset="0.88" stop-color="#515151"/><stop offset="0.94" stop-color="#2c2c2c"/><stop offset="1"/></radialGradient><filter id="luminosity-noclip-2" x="184.56" y="-8687.31" width="138.72" height="32766" filterUnits="userSpaceOnUse" color-interpolation-filters="sRGB"><feFlood flood-color="#fff" result="bg"/><feBlend in="SourceGraphic" in2="bg"/></filter><mask id="mask-2" x="184.56" y="-8687.31" width="138.72" height="32766" maskUnits="userSpaceOnUse"><g class="cls-63"/></mask><radialGradient id="radial-gradient-2" cx="-845.5" cy="-972.9" r="40.63" gradientTransform="matrix(1.19, 0.3, -1.23, 0.13, 62.03, 439.4)" xlink:href="#radial-gradient"/><filter id="luminosity-noclip-3" x="60.73" y="-8687.31" width="138.72" height="32766" filterUnits="userSpaceOnUse" color-interpolation-filters="sRGB"><feFlood flood-color="#fff" result="bg"/><feBlend in="SourceGraphic" in2="bg"/></filter><mask id="mask-3" x="60.73" y="-8687.31" width="138.72" height="32766" maskUnits="userSpaceOnUse"><g class="cls-62"/></mask><radialGradient id="radial-gradient-3" cx="-1141.22" cy="-280.85" r="40.63" gradientTransform="matrix(-1.19, 0.3, 1.23, 0.13, -878.56, 439.4)" xlink:href="#radial-gradient"/><filter id="luminosity-noclip-4" x="165.62" y="-8687.31" width="83.9" height="32766" filterUnits="userSpaceOnUse" color-interpolation-filters="sRGB"><feFlood flood-color="#fff" result="bg"/><feBlend in="SourceGraphic" in2="bg"/></filter><mask id="mask-4" x="165.62" y="-8687.31" width="83.9" height="32766" maskUnits="userSpaceOnUse"><g class="cls-61"/></mask><radialGradient id="radial-gradient-4" cx="-756.35" cy="-299.2" r="28.5" gradientTransform="matrix(1.02, 0.3, -1.06, 0.13, 664.21, 439.4)" xlink:href="#radial-gradient"/><filter id="luminosity-noclip-5" x="149.76" y="-8687.31" width="83.9" height="32766" filterUnits="userSpaceOnUse" color-interpolation-filters="sRGB"><feFlood flood-color="#fff" result="bg"/><feBlend in="SourceGraphic" in2="bg"/></filter><mask id="mask-5" x="149.76" y="-8687.31" width="83.9" height="32766" maskUnits="userSpaceOnUse"><g class="cls-60"/></mask><radialGradient id="radial-gradient-5" cx="-722.57" cy="-378.25" r="28.5" gradientTransform="matrix(-1.02, 0.3, 1.06, 0.13, -146.7, 439.4)" xlink:href="#radial-gradient"/><filter id="luminosity-noclip-6" x="211.23" y="-8687.31" width="75.7" height="32766" filterUnits="userSpaceOnUse" color-interpolation-filters="sRGB"><feFlood flood-color="#fff" result="bg"/><feBlend in="SourceGraphic" in2="bg"/></filter><mask id="mask-6" x="211.23" y="-8687.31" width="75.7" height="32766" maskUnits="userSpaceOnUse"><g class="cls-59"/></mask><radialGradient id="radial-gradient-6" cx="-499.14" cy="-108.25" r="25.72" gradientTransform="matrix(-1.02, 0.3, 1.06, 0.13, -146.7, 439.4)" xlink:href="#radial-gradient"/><filter id="luminosity-noclip-7" x="19.49" y="-8687.31" width="81.09" height="32766" filterUnits="userSpaceOnUse" color-interpolation-filters="sRGB"><feFlood flood-color="#fff" result="bg"/><feBlend in="SourceGraphic" in2="bg"/></filter><mask id="mask-7" x="19.49" y="-8687.31" width="81.09" height="32766" maskUnits="userSpaceOnUse"><g class="cls-58"/></mask><radialGradient id="radial-gradient-7" cx="-757.15" cy="-644.67" r="28.5" gradientTransform="matrix(-0.99, 0.3, 1.02, 0.13, -28.6, 439.4)" xlink:href="#radial-gradient"/><filter id="luminosity-noclip-8" x="101.66" y="-8687.31" width="75.7" height="32766" filterUnits="userSpaceOnUse" color-interpolation-filters="sRGB"><feFlood flood-color="#fff" result="bg"/><feBlend in="SourceGraphic" in2="bg"/></filter><mask id="mask-8" x="101.66" y="-8687.31" width="75.7" height="32766" maskUnits="userSpaceOnUse"><g class="cls-57"/></mask><radialGradient id="radial-gradient-8" cx="-535.98" cy="-22.05" r="25.72" gradientTransform="matrix(1.02, 0.3, -1.06, 0.13, 664.21, 439.4)" xlink:href="#radial-gradient"/><filter id="luminosity-noclip-9" x="34.08" y="-8687.31" width="75.7" height="32766" filterUnits="userSpaceOnUse" color-interpolation-filters="sRGB"><feFlood flood-color="#fff" result="bg"/><feBlend in="SourceGraphic" in2="bg"/></filter><mask id="mask-9" x="34.08" y="-8687.31" width="75.7" height="32766" maskUnits="userSpaceOnUse"><g class="cls-56"/></mask><radialGradient id="radial-gradient-9" cx="-448.53" cy="-226.7" r="25.72" gradientTransform="matrix(-1.02, 0.3, 1.06, 0.13, -146.7, 439.4)" xlink:href="#radial-gradient"/><filter id="luminosity-noclip-10" x="280.93" y="-8687.31" width="83.9" height="32766" filterUnits="userSpaceOnUse" color-interpolation-filters="sRGB"><feFlood flood-color="#fff" result="bg"/><feBlend in="SourceGraphic" in2="bg"/></filter><mask id="mask-10" x="280.93" y="-8687.31" width="83.9" height="32766" maskUnits="userSpaceOnUse"><g class="cls-55"/></mask><radialGradient id="radial-gradient-10" cx="-828.47" cy="-477.77" r="28.5" gradientTransform="matrix(1.02, 0.3, -1.06, 0.13, 664.21, 439.4)" xlink:href="#radial-gradient"/><filter id="luminosity-noclip-11" x="206.03" y="-8687.31" width="83.9" height="32766" filterUnits="userSpaceOnUse" color-interpolation-filters="sRGB"><feFlood flood-color="#fff" result="bg"/><feBlend in="SourceGraphic" in2="bg"/></filter><mask id="mask-11" x="206.03" y="-8687.31" width="83.9" height="32766" maskUnits="userSpaceOnUse"><g class="cls-54"/></mask><radialGradient id="radial-gradient-11" cx="-843.72" cy="-442.1" r="28.5" gradientTransform="matrix(-1.02, 0.3, 1.06, 0.13, -146.7, 439.4)" xlink:href="#radial-gradient"/><filter id="luminosity-noclip-12" x="278.8" y="-8687.31" width="75.7" height="32766" filterUnits="userSpaceOnUse" color-interpolation-filters="sRGB"><feFlood flood-color="#fff" result="bg"/><feBlend in="SourceGraphic" in2="bg"/></filter><mask id="mask-12" x="278.8" y="-8687.31" width="75.7" height="32766" maskUnits="userSpaceOnUse"><g class="cls-53"/></mask><radialGradient id="radial-gradient-12" cx="-485.36" cy="-140.5" r="25.72" gradientTransform="matrix(1.02, 0.3, -1.06, 0.13, 664.21, 439.4)" xlink:href="#radial-gradient"/><filter id="luminosity-noclip-13" x="91.88" y="122.12" width="81.09" height="18.49" filterUnits="userSpaceOnUse" color-interpolation-filters="sRGB"><feFlood flood-color="#fff" result="bg"/><feBlend in="SourceGraphic" in2="bg"/></filter><mask id="mask-13" x="91.88" y="122.12" width="81.09" height="18.49" maskUnits="userSpaceOnUse"><g class="cls-1"><path class="cls-2" d="M173,134.81c-.38,4.74-18.85,7-41.24,5.14s-40.23-7.28-39.84-12,18.87-7,41.24-5.13S173.36,130.07,173,134.81Z"/></g></mask><radialGradient id="Degradado_sin_nombre_153" cx="-915.03" cy="-275.19" r="28.5" gradientTransform="matrix(0.99, 0.3, -1.02, 0.13, 755.17, 439.4)" gradientUnits="userSpaceOnUse"><stop offset="0" stop-color="#3c3c3b"/><stop offset="1" stop-color="#fff" stop-opacity="0"/></radialGradient><filter id="luminosity-noclip-14" x="19.49" y="122.12" width="81.09" height="18.49" filterUnits="userSpaceOnUse" color-interpolation-filters="sRGB"><feFlood flood-color="#fff" result="bg"/><feBlend in="SourceGraphic" in2="bg"/></filter><mask id="mask-14" x="19.49" y="122.12" width="81.09" height="18.49" maskUnits="userSpaceOnUse"><g class="cls-13"><path class="cls-14" d="M19.5,134.81c.38,4.74,18.85,7,41.24,5.14s40.23-7.28,39.84-12-18.87-7-41.24-5.13S19.11,130.07,19.5,134.81Z"/></g></mask><radialGradient id="Degradado_sin_nombre_151" cx="-757.15" cy="-644.67" r="28.5" gradientTransform="matrix(-0.99, 0.3, 1.02, 0.13, -28.6, 439.4)" gradientUnits="userSpaceOnUse"><stop offset="0" stop-color="#3c3c3b"/><stop offset="0" stop-color="#3d3d3c"/><stop offset="1" stop-color="#fff" stop-opacity="0"/></radialGradient><filter id="luminosity-noclip-15" x="280.93" y="122.12" width="83.9" height="18.49" filterUnits="userSpaceOnUse" color-interpolation-filters="sRGB"><feFlood flood-color="#fff" result="bg"/><feBlend in="SourceGraphic" in2="bg"/></filter><mask id="mask-15" x="280.93" y="122.12" width="83.9" height="18.49" maskUnits="userSpaceOnUse"><g class="cls-19"><path class="cls-20" d="M364.82,134.81c-.39,4.74-19.5,7-42.66,5.14s-41.62-7.28-41.22-12,19.52-7,42.66-5.13S365.23,130.07,364.82,134.81Z"/></g></mask><radialGradient id="Degradado_sin_nombre_153-2" cx="-828.47" cy="-477.77" r="28.5" gradientTransform="matrix(1.02, 0.3, -1.06, 0.13, 664.21, 439.4)" xlink:href="#Degradado_sin_nombre_153"/><filter id="luminosity-noclip-16" x="206.03" y="122.12" width="83.9" height="18.49" filterUnits="userSpaceOnUse" color-interpolation-filters="sRGB"><feFlood flood-color="#fff" result="bg"/><feBlend in="SourceGraphic" in2="bg"/></filter><mask id="mask-16" x="206.03" y="122.12" width="83.9" height="18.49" maskUnits="userSpaceOnUse"><g class="cls-21"><path class="cls-22" d="M206,134.81c.39,4.74,19.5,7,42.67,5.14s41.62-7.28,41.22-12-19.52-7-42.67-5.13S205.64,130.07,206,134.81Z"/></g></mask><radialGradient id="Degradado_sin_nombre_151-2" cx="-843.72" cy="-442.1" r="28.5" gradientTransform="matrix(-1.02, 0.3, 1.06, 0.13, -146.7, 439.4)" xlink:href="#Degradado_sin_nombre_151"/><filter id="luminosity-noclip-17" x="278.8" y="268.36" width="75.7" height="16.69" filterUnits="userSpaceOnUse" color-interpolation-filters="sRGB"><feFlood flood-color="#fff" result="bg"/><feBlend in="SourceGraphic" in2="bg"/></filter><mask id="mask-17" x="278.8" y="268.36" width="75.7" height="16.69" maskUnits="userSpaceOnUse"><g class="cls-23"><path class="cls-24" d="M354.5,279.81c-.35,4.28-17.59,6.35-38.5,4.64s-37.55-6.57-37.19-10.85,17.61-6.35,38.5-4.63S354.87,275.54,354.5,279.81Z"/></g></mask><radialGradient id="Degradado_sin_nombre_153-3" cx="-485.36" cy="-140.5" r="25.72" gradientTransform="matrix(1.02, 0.3, -1.06, 0.13, 664.21, 439.4)" xlink:href="#Degradado_sin_nombre_153"/><filter id="luminosity-noclip-18" x="184.56" y="50" width="138.72" height="26.36" filterUnits="userSpaceOnUse" color-interpolation-filters="sRGB"><feFlood flood-color="#fff" result="bg"/><feBlend in="SourceGraphic" in2="bg"/></filter><mask id="mask-18" x="184.56" y="50" width="138.72" height="26.36" maskUnits="userSpaceOnUse"><g class="cls-3"><path class="cls-4" d="M323.28,68.08c-.65,6.76-32.25,10-70.55,7.33S183.91,65,184.57,58.27s32.28-10,70.55-7.32S323.94,61.33,323.28,68.08Z"/></g></mask><radialGradient id="Degradado_sin_nombre_153-4" cx="-845.5" cy="-972.9" r="40.63" gradientTransform="matrix(1.19, 0.3, -1.23, 0.13, 62.03, 439.4)" xlink:href="#Degradado_sin_nombre_153"/><filter id="luminosity-noclip-19" x="60.73" y="50" width="138.72" height="26.36" filterUnits="userSpaceOnUse" color-interpolation-filters="sRGB"><feFlood flood-color="#fff" result="bg"/><feBlend in="SourceGraphic" in2="bg"/></filter><mask id="mask-19" x="60.73" y="50" width="138.72" height="26.36" maskUnits="userSpaceOnUse"><g class="cls-5"><path class="cls-6" d="M60.74,68.08c.65,6.76,32.24,10,70.55,7.33S200.1,65,199.44,58.27s-32.27-10-70.54-7.32S60.07,61.33,60.74,68.08Z"/></g></mask><radialGradient id="Degradado_sin_nombre_151-3" cx="-1141.22" cy="-280.85" r="40.63" gradientTransform="matrix(-1.19, 0.3, 1.23, 0.13, -878.56, 439.4)" xlink:href="#Degradado_sin_nombre_151"/><filter id="luminosity-noclip-20" x="165.62" y="166.39" width="83.9" height="18.49" filterUnits="userSpaceOnUse" color-interpolation-filters="sRGB"><feFlood flood-color="#fff" result="bg"/><feBlend in="SourceGraphic" in2="bg"/></filter><mask id="mask-20" x="165.62" y="166.39" width="83.9" height="18.49" maskUnits="userSpaceOnUse"><g class="cls-7"><path class="cls-8" d="M249.52,179.08c-.4,4.74-19.5,7-42.67,5.14s-41.62-7.28-41.22-12,19.52-7,42.66-5.14S249.92,174.35,249.52,179.08Z"/></g></mask><radialGradient id="Degradado_sin_nombre_153-5" cx="-756.35" cy="-299.2" r="28.5" gradientTransform="matrix(1.02, 0.3, -1.06, 0.13, 664.21, 439.4)" xlink:href="#Degradado_sin_nombre_153"/><filter id="luminosity-noclip-21" x="149.76" y="166.39" width="83.9" height="18.49" filterUnits="userSpaceOnUse" color-interpolation-filters="sRGB"><feFlood flood-color="#fff" result="bg"/><feBlend in="SourceGraphic" in2="bg"/></filter><mask id="mask-21" x="149.76" y="166.39" width="83.9" height="18.49" maskUnits="userSpaceOnUse"><g class="cls-9"><path class="cls-10" d="M149.76,179.08c.4,4.74,19.5,7,42.67,5.14s41.62-7.28,41.22-12-19.52-7-42.66-5.14S149.36,174.35,149.76,179.08Z"/></g></mask><radialGradient id="Degradado_sin_nombre_151-4" cx="-722.57" cy="-378.25" r="28.5" gradientTransform="matrix(-1.02, 0.3, 1.06, 0.13, -146.7, 439.4)" xlink:href="#Degradado_sin_nombre_151"/><filter id="luminosity-noclip-22" x="211.23" y="268.36" width="75.7" height="16.69" filterUnits="userSpaceOnUse" color-interpolation-filters="sRGB"><feFlood flood-color="#fff" result="bg"/><feBlend in="SourceGraphic" in2="bg"/></filter><mask id="mask-22" x="211.23" y="268.36" width="75.7" height="16.69" maskUnits="userSpaceOnUse"><g class="cls-11"><path class="cls-12" d="M211.23,279.81c.35,4.28,17.6,6.35,38.5,4.64s37.55-6.57,37.19-10.85-17.61-6.35-38.5-4.63S210.87,275.54,211.23,279.81Z"/></g></mask><radialGradient id="Degradado_sin_nombre_151-5" cx="-499.14" cy="-108.25" r="25.72" gradientTransform="matrix(-1.02, 0.3, 1.06, 0.13, -146.7, 439.4)" xlink:href="#Degradado_sin_nombre_151"/><filter id="luminosity-noclip-23" x="101.66" y="268.36" width="75.7" height="16.69" filterUnits="userSpaceOnUse" color-interpolation-filters="sRGB"><feFlood flood-color="#fff" result="bg"/><feBlend in="SourceGraphic" in2="bg"/></filter><mask id="mask-23" x="101.66" y="268.36" width="75.7" height="16.69" maskUnits="userSpaceOnUse"><g class="cls-15"><path class="cls-16" d="M177.35,279.81c-.35,4.28-17.59,6.35-38.5,4.64s-37.55-6.57-37.19-10.85,17.61-6.35,38.5-4.63S177.72,275.54,177.35,279.81Z"/></g></mask><radialGradient id="Degradado_sin_nombre_153-6" cx="-535.98" cy="-22.05" r="25.72" gradientTransform="matrix(1.02, 0.3, -1.06, 0.13, 664.21, 439.4)" xlink:href="#Degradado_sin_nombre_153"/><filter id="luminosity-noclip-24" x="34.08" y="268.36" width="75.7" height="16.69" filterUnits="userSpaceOnUse" color-interpolation-filters="sRGB"><feFlood flood-color="#fff" result="bg"/><feBlend in="SourceGraphic" in2="bg"/></filter><mask id="mask-24" x="34.08" y="268.36" width="75.7" height="16.69" maskUnits="userSpaceOnUse"><g class="cls-17"><path class="cls-18" d="M34.08,279.81c.36,4.28,17.6,6.35,38.5,4.64s37.56-6.57,37.19-10.85S92.16,267.25,71.28,269,33.72,275.54,34.08,279.81Z"/></g></mask><radialGradient id="Degradado_sin_nombre_151-6" cx="-448.53" cy="-226.7" r="25.72" gradientTransform="matrix(-1.02, 0.3, 1.06, 0.13, -146.7, 439.4)" xlink:href="#Degradado_sin_nombre_151"/></defs><g class="cls-25"><g id="Capa_1" data-name="Capa 1"><g class="cls-26"><path class="cls-27" d="M173,134.81c-.38,4.74-18.85,7-41.24,5.14s-40.23-7.28-39.84-12,18.87-7,41.24-5.13S173.36,130.07,173,134.81Z"/></g><g class="cls-28"><path class="cls-29" d="M19.5,134.81c.38,4.74,18.85,7,41.24,5.14s40.23-7.28,39.84-12-18.87-7-41.24-5.13S19.11,130.07,19.5,134.81Z"/></g><rect class="cls-30" x="29.54" y="96.35" width="132.92" height="36.51" rx="17.97"/><path class="cls-31" d="M70.47,104.43a.91.91,0,0,1,1-1h2.26a3,3,0,0,1,3.27,3,3,3,0,0,1-3.19,3H72.38v2.09a1,1,0,1,1-1.91,0Zm1.91,3.4h1.3a1.36,1.36,0,0,0,0-2.71h-1.3Z"/><path class="cls-31" d="M77.49,106.58a.91.91,0,0,1,1-.92c.49,0,.89.18.89.77h0a1.45,1.45,0,0,1,1.29-.77.89.89,0,0,1,.89,1c0,.6-.55.64-1.1.9s-1.11.5-1.11,1.22v2.83a.92.92,0,1,1-1.84,0Z"/><path class="cls-31" d="M87.87,109.15a3.3,3.3,0,1,1-6.59,0,3.31,3.31,0,1,1,6.59,0Zm-4.75,0c0,.88.46,1.85,1.45,1.85S86,110,86,109.15s-.45-1.88-1.46-1.88S83.12,108.27,83.12,109.15Z"/><path class="cls-31" d="M93.22,107.63c-.46,0-.87-.36-1.45-.36-1,0-1.55.93-1.55,1.88A1.7,1.7,0,0,0,91.77,111a9.73,9.73,0,0,0,1.36-.38.8.8,0,0,1,.79.8c0,1-1.58,1.27-2.24,1.27a3.35,3.35,0,0,1-3.3-3.54,3.43,3.43,0,0,1,3.3-3.57c.72,0,2.24.27,2.24,1.17C93.92,107.13,93.66,107.63,93.22,107.63Z"/><path class="cls-31" d="M96.05,109.75a1.59,1.59,0,0,0,1.73,1.33c1,0,1.6-.74,2.09-.74a.81.81,0,0,1,.75.79c0,.79-1.64,1.56-3,1.56a3.35,3.35,0,0,1-3.45-3.54,3.31,3.31,0,1,1,6.6-.22c0,.55-.24.82-.8.82Zm2.88-1.23a1.45,1.45,0,0,0-1.46-1.4,1.48,1.48,0,0,0-1.46,1.4Z"/><path class="cls-31" d="M105.3,107.73c-.35,0-1-.54-1.65-.54-.33,0-.63.16-.63.51,0,.86,3.2.73,3.2,2.83,0,1.22-1,2.16-2.62,2.16-1,0-2.57-.59-2.57-1.42a.87.87,0,0,1,.79-.82c.72,0,1,.63,1.91.63.56,0,.72-.18.72-.53,0-.84-3.19-.71-3.19-2.82a2.24,2.24,0,0,1,2.49-2.15c.91,0,2.3.43,2.3,1.33A.8.8,0,0,1,105.3,107.73Z"/><path class="cls-31" d="M113.19,109.15a3.3,3.3,0,1,1-6.59,0,3.31,3.31,0,1,1,6.59,0Zm-4.75,0c0,.88.46,1.85,1.46,1.85s1.45-1,1.45-1.85-.44-1.88-1.45-1.88S108.44,108.27,108.44,109.15Z"/><path class="cls-31" d="M117.84,107.73c-.34,0-1-.54-1.64-.54-.33,0-.63.16-.63.51,0,.86,3.19.73,3.19,2.83,0,1.22-1,2.16-2.61,2.16-1,0-2.57-.59-2.57-1.42a.87.87,0,0,1,.79-.82c.72,0,1,.63,1.9.63.57,0,.73-.18.73-.53,0-.84-3.19-.71-3.19-2.82a2.23,2.23,0,0,1,2.49-2.15c.91,0,2.3.43,2.3,1.33A.8.8,0,0,1,117.84,107.73Z"/><path class="cls-31" d="M70.26,121.87a.92.92,0,0,1-.92,1,.88.88,0,0,1-.92-.76,2,2,0,0,1-1.69.84,3.25,3.25,0,0,1-3-3.46c0-1.79,1-3.64,3-3.64a2.68,2.68,0,0,1,1.75.64V114a.93.93,0,1,1,1.84,0ZM67,117.56c-1,0-1.43,1-1.43,1.87s.47,1.86,1.43,1.86,1.44-1,1.44-1.92S68,117.56,67,117.56Z"/><path class="cls-31" d="M72.79,120a1.59,1.59,0,0,0,1.74,1.33c.94,0,1.6-.74,2.08-.74a.81.81,0,0,1,.75.79c0,.79-1.63,1.56-3,1.56a3.35,3.35,0,0,1-3.45-3.54,3.31,3.31,0,1,1,6.61-.21.7.7,0,0,1-.81.81Zm2.89-1.22a1.46,1.46,0,0,0-1.47-1.41,1.49,1.49,0,0,0-1.46,1.41Z"/><path class="cls-31" d="M81.59,117a.93.93,0,0,1,.92-1,.78.78,0,0,1,.85.67,2,2,0,0,1,1.77-.75,2.36,2.36,0,0,1,2.52,2.48v3.52a.92.92,0,1,1-1.84,0v-3.2a1.19,1.19,0,1,0-2.38,0v3.2a.92.92,0,1,1-1.84,0Z"/><path class="cls-31" d="M90.18,120a1.59,1.59,0,0,0,1.74,1.33c.94,0,1.59-.74,2.08-.74a.81.81,0,0,1,.75.79c0,.79-1.63,1.56-3,1.56a3.35,3.35,0,0,1-3.45-3.54,3.31,3.31,0,1,1,6.61-.21.7.7,0,0,1-.81.81Zm2.89-1.22a1.46,1.46,0,0,0-1.47-1.41,1.49,1.49,0,0,0-1.46,1.41Z"/><path class="cls-31" d="M101.84,122.28c0,2.21-1.44,3.32-3.53,3.32-.76,0-2.9-.37-2.9-1.38a.89.89,0,0,1,.74-.8c.59,0,1.24.57,2.3.57a1.42,1.42,0,0,0,1.56-1.45v-.44h0a2.11,2.11,0,0,1-1.85.87c-1.93,0-2.84-1.7-2.84-3.52s1.18-3.58,3-3.58a2,2,0,0,1,1.69.84.87.87,0,0,1,.92-.76.93.93,0,0,1,.91,1Zm-3.28-4.72c-1,0-1.43,1-1.43,1.85s.47,1.88,1.43,1.88,1.45-.92,1.45-1.82S99.57,117.56,98.56,117.56Z"/><path class="cls-31" d="M109.22,119.43a3.3,3.3,0,1,1-6.59,0,3.3,3.3,0,1,1,6.59,0Zm-4.75,0c0,.88.46,1.86,1.45,1.86s1.46-1,1.46-1.86-.45-1.87-1.46-1.87S104.47,118.55,104.47,119.43Z"/><path class="cls-31" d="M114.57,117.91c-.46,0-.87-.35-1.45-.35-1.05,0-1.55.93-1.55,1.87a1.7,1.7,0,0,0,1.55,1.86,10,10,0,0,0,1.36-.39.8.8,0,0,1,.79.81c0,.94-1.58,1.26-2.24,1.26a3.35,3.35,0,0,1-3.3-3.54,3.43,3.43,0,0,1,3.3-3.56c.72,0,2.24.27,2.24,1.16C115.27,117.42,115,117.91,114.57,117.91Z"/><path class="cls-31" d="M117.84,114.2a1.05,1.05,0,0,1-1,1.06,1.08,1.08,0,0,1-1-1.06,1.06,1.06,0,0,1,1-1A1,1,0,0,1,117.84,114.2Zm-2,2.77a.92.92,0,1,1,1.84,0v4.9a.92.92,0,1,1-1.84,0Z"/><path class="cls-31" d="M125.07,119.43a3.3,3.3,0,1,1-6.59,0,3.3,3.3,0,1,1,6.59,0Zm-4.75,0c0,.88.46,1.86,1.46,1.86s1.45-1,1.45-1.86-.44-1.87-1.45-1.87S120.32,118.55,120.32,119.43Z"/><g class="cls-32"><path class="cls-33" d="M364.82,134.81c-.39,4.74-19.5,7-42.66,5.14s-41.62-7.28-41.22-12,19.52-7,42.66-5.13S365.23,130.07,364.82,134.81Z"/></g><g class="cls-34"><path class="cls-35" d="M206,134.81c.39,4.74,19.5,7,42.67,5.14s41.62-7.28,41.22-12-19.52-7-42.67-5.13S205.64,130.07,206,134.81Z"/></g><rect class="cls-30" x="216.43" y="96.35" width="137.53" height="36.51" rx="18.25"/><path class="cls-31" d="M250.47,104.92a1,1,0,1,1,1.91,0v2.71h4v-2.71a1,1,0,1,1,1.92,0v7.26a1,1,0,1,1-1.92,0v-2.79h-4v2.79a1,1,0,1,1-1.91,0Z"/><path class="cls-31" d="M260.89,110.31a1.59,1.59,0,0,0,1.74,1.33c.94,0,1.59-.74,2.08-.74a.81.81,0,0,1,.75.79c0,.79-1.63,1.56-3,1.56a3.35,3.35,0,0,1-3.45-3.54,3.31,3.31,0,1,1,6.61-.21.7.7,0,0,1-.81.81Zm2.89-1.22a1.46,1.46,0,0,0-1.47-1.41,1.49,1.49,0,0,0-1.46,1.41Z"/><path class="cls-31" d="M266.25,107.15a.9.9,0,0,1,.94-.92c.49,0,.89.18.89.76h0a1.46,1.46,0,0,1,1.29-.76.89.89,0,0,1,.89,1c0,.6-.55.64-1.09.89s-1.12.5-1.12,1.23v2.82a.92.92,0,1,1-1.83,0Z"/><path class="cls-31" d="M270.5,107.15a.9.9,0,0,1,.95-.92c.48,0,.89.18.89.76h0a1.46,1.46,0,0,1,1.29-.76.9.9,0,0,1,.9,1c0,.6-.55.64-1.1.89s-1.11.5-1.11,1.23v2.82a.92.92,0,1,1-1.84,0Z"/><path class="cls-31" d="M281.06,112c0,.48,0,1.2-.88,1.2-.53,0-.75-.29-.88-.78a2.18,2.18,0,0,1-1.75.86c-1.72,0-3-1.47-3-3.54a3.3,3.3,0,0,1,3-3.56,2.11,2.11,0,0,1,1.75.84.88.88,0,0,1,.88-.76c.88,0,.88.72.88,1.2Zm-3.25-.41c1,0,1.41-1,1.41-1.85s-.44-1.87-1.41-1.87-1.46,1-1.46,1.87S276.81,111.56,277.81,111.56Z"/><path class="cls-31" d="M282.11,107.25a.93.93,0,0,1,.92-1,.78.78,0,0,1,.85.69,2.25,2.25,0,0,1,1.71-.77,2.35,2.35,0,0,1,1.9.93,2.76,2.76,0,0,1,1.94-.93,2.31,2.31,0,0,1,2.52,2.48v3.52a.92.92,0,1,1-1.84,0V109c0-.74-.41-1.27-1.07-1.27A1.12,1.12,0,0,0,288,109v3.2a.92.92,0,1,1-1.84,0V109c0-.74-.41-1.27-1.07-1.27S284,108.21,284,109v3.2a.92.92,0,1,1-1.84,0Z"/><path class="cls-31" d="M294.93,104.48a1.06,1.06,0,0,1-1,1.06,1.08,1.08,0,0,1-1-1.06,1,1,0,0,1,2.07,0Zm-2,2.77a.92.92,0,1,1,1.84,0v4.9a.92.92,0,1,1-1.84,0Z"/><path class="cls-31" d="M297.32,110.31a1.59,1.59,0,0,0,1.73,1.33c.95,0,1.6-.74,2.09-.74a.82.82,0,0,1,.75.79c0,.79-1.63,1.56-3,1.56a3.35,3.35,0,0,1-3.45-3.54,3.31,3.31,0,1,1,6.6-.21c0,.55-.24.81-.8.81Zm2.88-1.22a1.45,1.45,0,0,0-1.46-1.41,1.49,1.49,0,0,0-1.46,1.41Z"/><path class="cls-31" d="M302.7,107.25a.93.93,0,0,1,.92-1,.77.77,0,0,1,.84.67,2,2,0,0,1,1.78-.75,2.35,2.35,0,0,1,2.51,2.48v3.52a.92.92,0,1,1-1.84,0V109a1.19,1.19,0,1,0-2.37,0v3.2a.92.92,0,1,1-1.84,0Z"/><path class="cls-31" d="M310.25,107.91h-.41a.74.74,0,0,1-.8-.8.79.79,0,0,1,.8-.81h.41v-1.1a.92.92,0,1,1,1.84,0v1.1h.52a.81.81,0,1,1,0,1.61h-.52v4.24a.92.92,0,1,1-1.84,0Z"/><path class="cls-31" d="M319.87,112c0,.48,0,1.2-.88,1.2-.54,0-.76-.29-.88-.78a2.2,2.2,0,0,1-1.75.86c-1.73,0-3-1.47-3-3.54a3.3,3.3,0,0,1,3-3.56,2.12,2.12,0,0,1,1.75.84.87.87,0,0,1,.88-.76c.88,0,.88.72.88,1.2Zm-3.26-.41c1,0,1.42-1,1.42-1.85s-.45-1.87-1.42-1.87-1.45,1-1.45,1.87S315.62,111.56,316.61,111.56Z"/><path class="cls-31" d="M324.79,108.3c-.35,0-1.05-.54-1.65-.54-.33,0-.63.15-.63.51,0,.86,3.2.73,3.2,2.82,0,1.23-1,2.16-2.62,2.16-1,0-2.57-.59-2.57-1.42a.86.86,0,0,1,.79-.81c.72,0,1,.62,1.91.62.56,0,.73-.18.73-.52,0-.85-3.2-.72-3.2-2.82a2.24,2.24,0,0,1,2.49-2.15c.91,0,2.3.42,2.3,1.33A.8.8,0,0,1,324.79,108.3Z"/><path class="cls-31" d="M256.76,122.44a.93.93,0,0,1-.92,1,.88.88,0,0,1-.92-.77,2,2,0,0,1-1.69.85,3.26,3.26,0,0,1-3-3.46c0-1.79,1-3.64,3-3.64a2.67,2.67,0,0,1,1.75.63v-2.5a.92.92,0,1,1,1.84,0Zm-3.29-4.32c-.95,0-1.43,1-1.43,1.88s.48,1.85,1.43,1.85,1.45-1,1.45-1.91S254.46,118.12,253.47,118.12Z"/><path class="cls-31" d="M259.29,120.6a1.59,1.59,0,0,0,1.73,1.33c1,0,1.6-.74,2.09-.74a.81.81,0,0,1,.75.79c0,.79-1.64,1.56-3,1.56a3.35,3.35,0,0,1-3.45-3.54,3.31,3.31,0,1,1,6.6-.22c0,.55-.24.82-.8.82Zm2.88-1.23a1.45,1.45,0,0,0-1.46-1.4,1.48,1.48,0,0,0-1.46,1.4Z"/><path class="cls-31" d="M268.54,118.2h-.41a.74.74,0,0,1-.8-.81.78.78,0,0,1,.8-.8h.41v-1.1a.92.92,0,1,1,1.84,0v1.1h.52a.81.81,0,1,1,0,1.61h-.52v4.24a.92.92,0,1,1-1.84,0Z"/><path class="cls-31" d="M273.35,120.6a1.6,1.6,0,0,0,1.74,1.33c1,0,1.6-.74,2.08-.74a.81.81,0,0,1,.76.79c0,.79-1.64,1.56-3,1.56a3.35,3.35,0,0,1-3.45-3.54,3.31,3.31,0,1,1,6.6-.22c0,.55-.24.82-.8.82Zm2.89-1.23a1.45,1.45,0,0,0-1.47-1.4,1.47,1.47,0,0,0-1.45,1.4Z"/><path class="cls-31" d="M283.31,118.48c-.46,0-.87-.36-1.46-.36-1.05,0-1.54.93-1.54,1.88a1.68,1.68,0,0,0,1.54,1.85,10.36,10.36,0,0,0,1.37-.38.81.81,0,0,1,.79.8c0,1-1.58,1.27-2.25,1.27a3.35,3.35,0,0,1-3.29-3.54,3.41,3.41,0,0,1,3.29-3.56c.73,0,2.25.26,2.25,1.16C284,118,283.74,118.48,283.31,118.48Z"/><path class="cls-31" d="M284.65,117.53a.93.93,0,0,1,.92-1,.78.78,0,0,1,.84.68,2,2,0,0,1,1.78-.75,2.35,2.35,0,0,1,2.51,2.47v3.53a.92.92,0,1,1-1.83,0v-3.21a1.19,1.19,0,1,0-2.38,0v3.21a.92.92,0,1,1-1.84,0Z"/><path class="cls-31" d="M298.08,120a3.3,3.3,0,1,1-6.59,0,3.3,3.3,0,1,1,6.59,0Zm-4.75,0c0,.88.46,1.85,1.45,1.85s1.46-1,1.46-1.85-.45-1.88-1.46-1.88S293.33,119.12,293.33,120Z"/><path class="cls-31" d="M298.83,114.57a.92.92,0,1,1,1.84,0v7.87a.92.92,0,1,1-1.84,0Z"/><path class="cls-31" d="M308,120a3.3,3.3,0,1,1-6.59,0,3.3,3.3,0,1,1,6.59,0Zm-4.75,0c0,.88.46,1.85,1.45,1.85s1.46-1,1.46-1.85-.45-1.88-1.46-1.88S303.27,119.12,303.27,120Z"/><path class="cls-31" d="M315.08,122.85c0,2.21-1.44,3.32-3.53,3.32-.76,0-2.9-.37-2.9-1.38a.89.89,0,0,1,.74-.81c.58,0,1.24.58,2.3.58a1.41,1.41,0,0,0,1.55-1.46v-.43h0a2.11,2.11,0,0,1-1.85.87c-1.93,0-2.84-1.7-2.84-3.53s1.18-3.57,3-3.57a2,2,0,0,1,1.68.84.88.88,0,0,1,.92-.77.93.93,0,0,1,.92,1Zm-3.28-4.73c-1,0-1.43,1-1.43,1.85s.47,1.88,1.43,1.88,1.44-.92,1.44-1.81S312.81,118.12,311.8,118.12Z"/><path class="cls-31" d="M317.42,113.64a1.38,1.38,0,0,1,.49-.13.81.81,0,0,1,.69.79.75.75,0,0,1-.52.76l-1.44.56c-.37.13-.25.13-.51.13s-.67-.49-.67-.94a.64.64,0,0,1,.35-.51l.11,0Zm-1.31,3.89a.92.92,0,1,1,1.84,0v4.91a.92.92,0,1,1-1.84,0Z"/><path class="cls-31" d="M325.25,122.26c0,.47,0,1.2-.88,1.2-.53,0-.75-.29-.88-.78a2.21,2.21,0,0,1-1.75.86c-1.72,0-3-1.47-3-3.54a3.3,3.3,0,0,1,3-3.56,2.08,2.08,0,0,1,1.75.84.88.88,0,0,1,.88-.77c.88,0,.88.73.88,1.2Zm-3.25-.41c1,0,1.41-1,1.41-1.85s-.44-1.88-1.41-1.88-1.46,1-1.46,1.88S321,121.85,322,121.85Z"/><g class="cls-36"><path class="cls-37" d="M354.5,279.81c-.35,4.28-17.59,6.35-38.5,4.64s-37.55-6.57-37.19-10.85,17.61-6.35,38.5-4.63S354.87,275.54,354.5,279.81Z"/></g><path class="cls-38" d="M194.8,131.34a.85.85,0,0,1-.85-.85V36.74a.85.85,0,1,1,1.69,0v93.75A.85.85,0,0,1,194.8,131.34Z"/><path class="cls-38" d="M194.8,132.72a.86.86,0,0,1-.73-.42l-6.88-11.61a.85.85,0,0,1,.29-1.16.84.84,0,0,1,1.16.3l6.11,10.28,5.59-11a.85.85,0,0,1,1.14-.37.84.84,0,0,1,.37,1.14l-6.29,12.39a.87.87,0,0,1-.73.47Z"/><path class="cls-38" d="M267.44,90.62a.72.72,0,0,1-.54-.25L218.15,31.15a.74.74,0,0,1-.16-.44.7.7,0,0,1,.26-.54.69.69,0,0,1,1,.1L268,89.48a.69.69,0,0,1,.16.45.7.7,0,0,1-.25.53A.68.68,0,0,1,267.44,90.62Z"/><path class="cls-38" d="M268.16,91.48a.67.67,0,0,1-.24,0l-10.39-3.75a.69.69,0,0,1-.41-.89.69.69,0,0,1,.88-.41l9.21,3.32L265,79.84a.69.69,0,1,1,1.35-.3l2.47,11.1a.67.67,0,0,1-.22.67A.63.63,0,0,1,268.16,91.48Z"/><path class="cls-38" d="M123.78,90.62a.65.65,0,0,1-.44-.16.68.68,0,0,1-.26-.53.69.69,0,0,1,.16-.45L172,30.27a.7.7,0,0,1,1-.1.72.72,0,0,1,.25.54.68.68,0,0,1-.16.44L124.31,90.37A.7.7,0,0,1,123.78,90.62Z"/><path class="cls-38" d="M123.06,91.48a.66.66,0,0,1-.46-.17.67.67,0,0,1-.22-.67l2.47-11.1a.69.69,0,1,1,1.35.3L124,89.71l9.2-3.32a.68.68,0,0,1,.88.41.69.69,0,0,1-.41.89l-10.39,3.75A.66.66,0,0,1,123.06,91.48Z"/><g class="cls-39"><path class="cls-40" d="M323.28,68.08c-.65,6.76-32.25,10-70.55,7.33S183.91,65,184.57,58.27s32.28-10,70.55-7.32S323.94,61.33,323.28,68.08Z"/></g><g class="cls-41"><path class="cls-42" d="M60.74,68.08c.65,6.76,32.24,10,70.55,7.33S200.1,65,199.44,58.27s-32.27-10-70.54-7.32S60.07,61.33,60.74,68.08Z"/></g><rect class="cls-38" x="71.52" y="19.28" width="240.18" height="46.01" rx="23.01"/><path class="cls-31" d="M93.84,36.67a1.83,1.83,0,0,1,1.79-1.4,1.94,1.94,0,0,1,1.82,1.31l2.15,7.21h0l2.15-7.21a1.94,1.94,0,0,1,1.82-1.31,1.83,1.83,0,0,1,1.79,1.4l1.7,10.17c0,.11,0,.21,0,.31a1.26,1.26,0,0,1-1.31,1.31c-.93,0-1.29-.42-1.42-1.28l-1.07-7.41h0l-2.19,7.63a1.53,1.53,0,0,1-2.91,0L96,39.77h0l-1.07,7.41c-.13.86-.49,1.28-1.42,1.28a1.26,1.26,0,0,1-1.31-1.31c0-.1,0-.2,0-.31Z"/><path class="cls-31" d="M117.3,43.52a4.71,4.71,0,1,1-9.4,0,4.71,4.71,0,1,1,9.4,0Zm-4.13-9.07a2,2,0,0,1,.69-.19,1.16,1.16,0,0,1,1,1.13,1,1,0,0,1-.75,1.08l-2,.8c-.52.18-.36.18-.73.18-.54,0-1-.69-1-1.33a.9.9,0,0,1,.51-.73l.14-.07Zm-2.65,9.07c0,1.26.66,2.64,2.08,2.64s2.08-1.38,2.08-2.64-.64-2.68-2.08-2.68S110.52,42.26,110.52,43.52Z"/><path class="cls-31" d="M127.37,47a1.33,1.33,0,0,1-1.31,1.46,1.25,1.25,0,0,1-1.31-1.1,2.84,2.84,0,0,1-2.41,1.21c-2.64,0-4.31-2.46-4.31-4.94s1.4-5.19,4.22-5.19a3.81,3.81,0,0,1,2.5.91V35.78a1.32,1.32,0,1,1,2.62,0Zm-4.68-6.16c-1.37,0-2,1.44-2,2.68s.67,2.64,2,2.64,2.06-1.46,2.06-2.73S124.09,40.84,122.69,40.84Z"/><path class="cls-31" d="M128.86,40a1.32,1.32,0,1,1,2.63,0v4.69a1.7,1.7,0,0,0,3.39,0V40a1.32,1.32,0,1,1,2.62,0v4.74c0,2.33-1.55,3.83-4.32,3.83s-4.32-1.5-4.32-3.83Z"/><path class="cls-31" d="M139,35.78a1.32,1.32,0,1,1,2.63,0V47A1.32,1.32,0,1,1,139,47Z"/><path class="cls-31" d="M152.05,43.52a4.71,4.71,0,1,1-9.4,0,4.71,4.71,0,1,1,9.4,0Zm-6.78,0c0,1.26.66,2.64,2.08,2.64s2.08-1.38,2.08-2.64-.64-2.68-2.08-2.68S145.27,42.26,145.27,43.52Z"/><path class="cls-31" d="M160.06,37.89H159a1.18,1.18,0,0,1-1.24-1.26A1.22,1.22,0,0,1,159,35.38h2.58a1.19,1.19,0,0,1,1.23,1.29V47a1.37,1.37,0,1,1-2.74,0Z"/><path class="cls-31" d="M174.4,41.92a1.15,1.15,0,0,1,0,2.29h-3.88a1.15,1.15,0,0,1,0-2.29Z"/><path class="cls-31" d="M189.37,37a1.27,1.27,0,0,1-1.22,1.35c-.75,0-1.33-.55-2.43-.55-.78,0-1.49.42-1.49,1.19,0,1.87,6.09.67,6.09,5.37,0,2.61-2.15,4.23-4.67,4.23-1.4,0-4.43-.33-4.43-2a1.23,1.23,0,0,1,1.22-1.3c.86,0,1.88.71,3.07.71s1.85-.67,1.85-1.56c0-2.15-6.08-.86-6.08-5.09,0-2.55,2.09-4.13,4.52-4.13C186.82,35.16,189.37,35.54,189.37,37Z"/><path class="cls-31" d="M194.16,36.05a1.5,1.5,0,0,1-1.48,1.51,1.53,1.53,0,0,1-1.47-1.51,1.48,1.48,0,0,1,2.95,0Zm-2.79,4A1.32,1.32,0,1,1,194,40v7a1.32,1.32,0,1,1-2.62,0Z"/><path class="cls-31" d="M201,41.5c-.49,0-1.5-.77-2.35-.77-.48,0-.89.22-.89.73,0,1.22,4.55,1,4.55,4,0,1.75-1.48,3.08-3.73,3.08-1.48,0-3.67-.84-3.67-2A1.23,1.23,0,0,1,196,45.38c1,0,1.48.89,2.72.89.8,0,1-.25,1-.75,0-1.2-4.56-1-4.56-4,0-1.82,1.48-3.06,3.55-3.06,1.3,0,3.28.6,3.28,1.89A1.13,1.13,0,0,1,201,41.5Z"/><path class="cls-31" d="M203.84,41h-.58a1.07,1.07,0,0,1-1.15-1.15,1.12,1.12,0,0,1,1.15-1.14h.58V37.09a1.32,1.32,0,1,1,2.63,0v1.57h.75a1.1,1.1,0,0,1,1.25,1.14A1.11,1.11,0,0,1,207.22,41h-.75v6a1.32,1.32,0,1,1-2.63,0Z"/><path class="cls-31" d="M210.71,44.38a2.27,2.27,0,0,0,2.48,1.89c1.35,0,2.28-1.06,3-1.06a1.17,1.17,0,0,1,1.07,1.13c0,1.13-2.33,2.23-4.28,2.23a4.78,4.78,0,0,1-4.92-5,4.72,4.72,0,1,1,9.42-.31c0,.78-.34,1.17-1.15,1.17Zm4.12-1.75a2.09,2.09,0,0,0-2.1-2,2.11,2.11,0,0,0-2.07,2Z"/><path class="cls-31" d="M218.38,40a1.32,1.32,0,0,1,1.31-1.45,1.1,1.1,0,0,1,1.2,1,3.27,3.27,0,0,1,2.44-1.09,3.33,3.33,0,0,1,2.72,1.33,4,4,0,0,1,2.77-1.33A3.29,3.29,0,0,1,232.41,42v5a1.32,1.32,0,1,1-2.63,0V42.43c0-1.06-.58-1.81-1.53-1.81a1.6,1.6,0,0,0-1.55,1.81V47a1.32,1.32,0,1,1-2.62,0V42.43c0-1.06-.58-1.81-1.53-1.81s-1.55.75-1.55,1.81V47a1.32,1.32,0,1,1-2.62,0Z"/><path class="cls-31" d="M242.86,46.75c0,.67,0,1.71-1.26,1.71-.76,0-1.07-.42-1.26-1.11a3.13,3.13,0,0,1-2.49,1.22c-2.46,0-4.34-2.1-4.34-5s1.93-5.08,4.34-5.08a3,3,0,0,1,2.49,1.2,1.25,1.25,0,0,1,1.26-1.09c1.26,0,1.26,1,1.26,1.71Zm-4.65-.59c1.37,0,2-1.38,2-2.64s-.64-2.68-2-2.68-2.07,1.42-2.07,2.68S236.79,46.16,238.21,46.16Z"/><path class="cls-31" d="M249.3,36.69a1.37,1.37,0,1,1,2.74,0v3.86h5.72V36.69a1.37,1.37,0,1,1,2.73,0V47a1.37,1.37,0,1,1-2.73,0v-4H252v4a1.37,1.37,0,1,1-2.74,0Z"/><path class="cls-31" d="M264.8,36.05a1.49,1.49,0,0,1-1.47,1.51,1.54,1.54,0,0,1-1.48-1.51,1.52,1.52,0,0,1,1.48-1.44A1.5,1.5,0,0,1,264.8,36.05ZM262,40a1.32,1.32,0,1,1,2.62,0v7A1.32,1.32,0,1,1,262,47Z"/><path class="cls-31" d="M275.06,47a1.33,1.33,0,0,1-1.31,1.46,1.25,1.25,0,0,1-1.31-1.1A2.87,2.87,0,0,1,270,48.57c-2.64,0-4.32-2.46-4.32-4.94s1.41-5.19,4.23-5.19a3.83,3.83,0,0,1,2.5.91V35.78a1.32,1.32,0,1,1,2.62,0Zm-4.68-6.16c-1.37,0-2,1.44-2,2.68s.67,2.64,2,2.64,2.06-1.46,2.06-2.73S271.78,40.84,270.38,40.84Z"/><path class="cls-31" d="M276.51,39.86a1.29,1.29,0,0,1,1.35-1.31c.69,0,1.28.25,1.28,1.09h0A2.07,2.07,0,0,1,281,38.55a1.28,1.28,0,0,1,1.28,1.4c0,.86-.78.91-1.57,1.27s-1.58.71-1.58,1.75v4a1.32,1.32,0,1,1-2.63,0Z"/><path class="cls-31" d="M291.3,43.52a4.71,4.71,0,1,1-9.4,0,4.71,4.71,0,1,1,9.4,0Zm-6.77,0c0,1.26.65,2.64,2.07,2.64s2.08-1.38,2.08-2.64-.64-2.68-2.08-2.68S284.53,42.26,284.53,43.52Z"/><path class="cls-38" d="M282.05,217.26a.85.85,0,0,1-.85-.84V197.77H106.68v17.75a.85.85,0,1,1-1.69,0V196.93a.85.85,0,0,1,.85-.85H282.05a.85.85,0,0,1,.84.85v19.49A.85.85,0,0,1,282.05,217.26Z"/><path class="cls-38" d="M197.5,197.77a.85.85,0,0,1-.85-.84V171.22a.85.85,0,0,1,1.7,0v25.71A.85.85,0,0,1,197.5,197.77Z"/><g class="cls-43"><path class="cls-44" d="M249.52,179.08c-.4,4.74-19.5,7-42.67,5.14s-41.62-7.28-41.22-12,19.52-7,42.66-5.14S249.92,174.35,249.52,179.08Z"/></g><g class="cls-45"><path class="cls-46" d="M149.76,179.08c.4,4.74,19.5,7,42.67,5.14s41.62-7.28,41.22-12-19.52-7-42.66-5.14S149.36,174.35,149.76,179.08Z"/></g><rect class="cls-30" x="173.08" y="141.22" width="48.47" height="35.91" rx="17.95"/><path class="cls-31" d="M184.15,156.46a.93.93,0,0,1,.92-1,.88.88,0,0,1,.92.77,2.06,2.06,0,0,1,1.75-.85c2,0,3,1.86,3,3.64a3.25,3.25,0,0,1-3,3.47,2.64,2.64,0,0,1-1.69-.64v2.25a.92.92,0,1,1-1.84,0Zm3.28,4.32c1,0,1.43-1,1.43-1.85s-.47-1.88-1.43-1.88S186,158,186,158.86,186.43,160.78,187.43,160.78Z"/><path class="cls-31" d="M197.77,161.19c0,.47,0,1.2-.88,1.2-.54,0-.76-.29-.88-.78a2.23,2.23,0,0,1-1.75.86c-1.73,0-3-1.47-3-3.54a3.3,3.3,0,0,1,3-3.57,2.1,2.1,0,0,1,1.75.85.87.87,0,0,1,.88-.77c.88,0,.88.73.88,1.2Zm-3.26-.41c1,0,1.42-1,1.42-1.85s-.45-1.88-1.42-1.88-1.45,1-1.45,1.88S193.52,160.78,194.51,160.78Z"/><path class="cls-31" d="M198.79,156.36a.91.91,0,0,1,1-.92c.48,0,.89.18.89.77h0a1.45,1.45,0,0,1,1.29-.77.89.89,0,0,1,.89,1c0,.6-.55.64-1.1.9s-1.11.5-1.11,1.22v2.83a.92.92,0,1,1-1.84,0Z"/><path class="cls-31" d="M209.36,161.19c0,.47,0,1.2-.88,1.2-.54,0-.76-.29-.88-.78a2.23,2.23,0,0,1-1.75.86c-1.73,0-3-1.47-3-3.54a3.3,3.3,0,0,1,3-3.57,2.1,2.1,0,0,1,1.75.85.87.87,0,0,1,.88-.77c.88,0,.88.73.88,1.2Zm-3.26-.41c1,0,1.42-1,1.42-1.85s-.45-1.88-1.42-1.88-1.45,1-1.45,1.88S205.11,160.78,206.1,160.78Z"/><g class="cls-47"><path class="cls-48" d="M211.23,279.81c.35,4.28,17.6,6.35,38.5,4.64s37.55-6.57,37.19-10.85-17.61-6.35-38.5-4.63S210.87,275.54,211.23,279.81Z"/></g><rect class="cls-30" x="220.6" y="211.96" width="124.09" height="66.09" rx="33.04"/><path class="cls-31" d="M262.77,223.45a.81.81,0,0,1-.78.86c-.47,0-.84-.35-1.53-.35-.5,0-.95.27-.95.75,0,1.19,3.86.43,3.86,3.41a2.74,2.74,0,0,1-3,2.67c-.89,0-2.8-.21-2.8-1.29a.77.77,0,0,1,.77-.82c.54,0,1.19.45,1.94.45s1.18-.43,1.18-1c0-1.36-3.86-.54-3.86-3.22a2.67,2.67,0,0,1,2.86-2.62C261.15,222.3,262.77,222.54,262.77,223.45Z"/><path class="cls-31" d="M269.73,229.64c0,.42,0,1.08-.8,1.08-.48,0-.68-.26-.79-.7a2,2,0,0,1-1.58.77,2.9,2.9,0,0,1-2.75-3.19,3,3,0,0,1,2.75-3.22,1.9,1.9,0,0,1,1.58.76.78.78,0,0,1,.79-.69c.8,0,.8.65.8,1.08Zm-2.94-.37c.86,0,1.28-.88,1.28-1.67s-.41-1.7-1.28-1.7-1.32.9-1.32,1.7S265.89,229.27,266.79,229.27Z"/><path class="cls-31" d="M271.07,226h-.36a.68.68,0,0,1-.73-.73.71.71,0,0,1,.73-.72h.36v-1a.84.84,0,1,1,1.67,0v1h.47c.42,0,.79.19.79.72a.7.7,0,0,1-.79.73h-.47v3.83a.84.84,0,1,1-1.67,0Z"/><path class="cls-31" d="M275.82,222.87a.94.94,0,0,1-.93.95,1,1,0,0,1-.93-.95.93.93,0,0,1,1.86,0Zm-1.76,2.5a.83.83,0,1,1,1.66,0v4.43a.83.83,0,1,1-1.66,0Z"/><path class="cls-31" d="M280.14,226.32c-.31,0-.95-.49-1.49-.49-.3,0-.57.14-.57.46,0,.78,2.89.66,2.89,2.55,0,1.11-.94,1.95-2.37,1.95-.93,0-2.32-.53-2.32-1.28a.79.79,0,0,1,.72-.74c.65,0,.93.57,1.72.57.51,0,.66-.16.66-.47,0-.77-2.89-.65-2.89-2.55a2,2,0,0,1,2.25-1.94c.82,0,2.08.38,2.08,1.2A.72.72,0,0,1,280.14,226.32Z"/><path class="cls-31" d="M281.93,226h-.37a.67.67,0,0,1-.72-.73.7.7,0,0,1,.72-.72h.37v-.86a1.69,1.69,0,0,1,1.75-1.89c.58,0,1.15.17,1.15.75s-.22.7-.68.7c-.28,0-.56,0-.56.62v.68h.52c.5,0,.85.19.85.72s-.36.73-.85.73h-.52v3.83a.83.83,0,1,1-1.66,0Z"/><path class="cls-31" d="M290.64,229.64c0,.42,0,1.08-.8,1.08-.48,0-.68-.26-.79-.7a2,2,0,0,1-1.58.77,2.9,2.9,0,0,1-2.75-3.19,3,3,0,0,1,2.75-3.22,1.9,1.9,0,0,1,1.58.76.78.78,0,0,1,.79-.69c.8,0,.8.65.8,1.08Zm-2.94-.37c.86,0,1.28-.88,1.28-1.67s-.4-1.7-1.28-1.7-1.32.9-1.32,1.7S286.8,229.27,287.7,229.27Z"/><path class="cls-31" d="M295.71,226.22c-.41,0-.78-.32-1.31-.32-.95,0-1.4.84-1.4,1.7a1.53,1.53,0,0,0,1.4,1.67,8.93,8.93,0,0,0,1.23-.35.74.74,0,0,1,.72.73c0,.85-1.43,1.14-2,1.14a3,3,0,0,1-3-3.19,3.09,3.09,0,0,1,3-3.22c.65,0,2,.24,2,1.05C296.35,225.77,296.1,226.22,295.71,226.22Z"/><path class="cls-31" d="M298.26,228.14a1.43,1.43,0,0,0,1.57,1.2c.85,0,1.44-.67,1.88-.67a.74.74,0,0,1,.68.71c0,.72-1.48,1.41-2.71,1.41a3,3,0,0,1-3.12-3.19,3,3,0,1,1,6-.2c0,.5-.22.74-.73.74Zm2.61-1.11a1.32,1.32,0,0,0-1.33-1.27,1.34,1.34,0,0,0-1.32,1.27Z"/><path class="cls-31" d="M303.09,225.28a.81.81,0,0,1,.85-.83c.44,0,.81.16.81.69h0a1.32,1.32,0,0,1,1.17-.69.81.81,0,0,1,.8.89c0,.54-.49.57-1,.8s-1,.45-1,1.11v2.55a.83.83,0,1,1-1.66,0Z"/><path class="cls-31" d="M246.81,236.26a.84.84,0,0,1,.83-.93.69.69,0,0,1,.76.62,1.81,1.81,0,0,1,1.61-.69,2.13,2.13,0,0,1,2.27,2.24v3.19a.83.83,0,1,1-1.66,0v-2.9a1.08,1.08,0,1,0-2.15,0v2.9a.83.83,0,1,1-1.66,0Z"/><path class="cls-31" d="M254.56,239a1.44,1.44,0,0,0,1.57,1.19c.85,0,1.44-.66,1.88-.66a.73.73,0,0,1,.68.71c0,.72-1.48,1.41-2.71,1.41a3,3,0,0,1-3.12-3.2,3,3,0,1,1,6-.19c0,.49-.22.74-.73.74Zm2.61-1.11a1.32,1.32,0,0,0-2.64,0Z"/><path class="cls-31" d="M263.54,237.11c-.41,0-.78-.32-1.31-.32-1,0-1.4.84-1.4,1.69a1.54,1.54,0,0,0,1.4,1.68,8.93,8.93,0,0,0,1.23-.35.73.73,0,0,1,.72.73c0,.85-1.43,1.14-2,1.14a3,3,0,0,1-3-3.2,3.09,3.09,0,0,1,3-3.22c.65,0,2,.25,2,1.05C264.18,236.66,263.93,237.11,263.54,237.11Z"/><path class="cls-31" d="M266.09,239a1.43,1.43,0,0,0,1.57,1.19c.85,0,1.44-.66,1.88-.66a.73.73,0,0,1,.68.71c0,.72-1.48,1.41-2.71,1.41a3,3,0,0,1-3.12-3.2,3,3,0,1,1,6-.19c0,.49-.22.74-.73.74Zm2.61-1.11a1.33,1.33,0,0,0-2.65,0Z"/><path class="cls-31" d="M274.44,237.2c-.31,0-.95-.48-1.49-.48-.3,0-.57.14-.57.46,0,.77,2.89.66,2.89,2.55,0,1.11-.94,2-2.37,2-.93,0-2.32-.53-2.32-1.28a.79.79,0,0,1,.72-.74c.64,0,.93.56,1.72.56.5,0,.66-.16.66-.47,0-.76-2.89-.64-2.89-2.55a2,2,0,0,1,2.25-1.94c.82,0,2.08.39,2.08,1.2A.71.71,0,0,1,274.44,237.2Z"/><path class="cls-31" d="M277.59,233.75a1,1,0,0,1-.93,1,1,1,0,0,1-.94-1,1,1,0,0,1,.94-.91A.94.94,0,0,1,277.59,233.75Zm-1.76,2.51a.84.84,0,1,1,1.66,0v4.43a.83.83,0,1,1-1.66,0Z"/><path class="cls-31" d="M284.09,240.69a.84.84,0,0,1-.83.92.79.79,0,0,1-.83-.69,1.85,1.85,0,0,1-1.53.76,2.94,2.94,0,0,1-2.73-3.13c0-1.61.89-3.29,2.68-3.29a2.43,2.43,0,0,1,1.58.58v-2.26a.83.83,0,1,1,1.66,0Zm-3-3.9c-.86,0-1.29.91-1.29,1.69s.43,1.68,1.29,1.68,1.31-.93,1.31-1.73S282,236.79,281.12,236.79Z"/><path class="cls-31" d="M290.7,240.52c0,.43,0,1.09-.79,1.09-.49,0-.68-.27-.8-.7a2,2,0,0,1-1.58.77,2.91,2.91,0,0,1-2.74-3.2,3,3,0,0,1,2.74-3.22,1.91,1.91,0,0,1,1.58.77.8.8,0,0,1,.8-.7c.79,0,.79.66.79,1.09Zm-2.94-.36c.87,0,1.28-.88,1.28-1.68s-.4-1.69-1.28-1.69-1.31.9-1.31,1.69S286.86,240.16,287.76,240.16Z"/><path class="cls-31" d="M297.32,240.69a.84.84,0,0,1-.83.92.79.79,0,0,1-.83-.69,1.83,1.83,0,0,1-1.52.76,3,3,0,0,1-2.74-3.13c0-1.61.89-3.29,2.68-3.29a2.41,2.41,0,0,1,1.58.58v-2.26a.83.83,0,1,1,1.66,0Zm-3-3.9c-.87,0-1.3.91-1.3,1.69s.43,1.68,1.3,1.68,1.3-.93,1.3-1.73S295.25,236.79,294.36,236.79Z"/><path class="cls-31" d="M299.6,239a1.44,1.44,0,0,0,1.57,1.19c.85,0,1.44-.66,1.88-.66a.73.73,0,0,1,.68.71c0,.72-1.48,1.41-2.71,1.41a3,3,0,0,1-3.11-3.2,3,3,0,1,1,6-.19c0,.49-.22.74-.73.74Zm2.61-1.11a1.32,1.32,0,0,0-2.64,0Z"/><path class="cls-31" d="M308,237.2c-.31,0-.95-.48-1.49-.48-.3,0-.56.14-.56.46,0,.77,2.88.66,2.88,2.55,0,1.11-.94,2-2.37,2-.93,0-2.31-.53-2.31-1.28a.78.78,0,0,1,.71-.74c.65,0,.94.56,1.72.56.51,0,.66-.16.66-.47,0-.76-2.89-.64-2.89-2.55a2,2,0,0,1,2.25-1.94c.82,0,2.08.39,2.08,1.2A.71.71,0,0,1,308,237.2Z"/><path class="cls-31" d="M312,236.48a1.14,1.14,0,0,1-.08-.43.8.8,0,0,1,.78-.72.84.84,0,0,1,.83.59l1.15,3.13,1.22-3.13a.85.85,0,0,1,.83-.59.79.79,0,0,1,.78.72,1,1,0,0,1-.08.43l-2.78,6.92a.89.89,0,0,1-.78.65c-.57,0-.87-.35-.87-.71a1.4,1.4,0,0,1,.11-.49l.72-1.79Z"/><path class="cls-31" d="M246.62,251.41c0,.43,0,1.09-.8,1.09-.48,0-.68-.27-.79-.71a2,2,0,0,1-1.58.78,2.91,2.91,0,0,1-2.75-3.2,3,3,0,0,1,2.75-3.22,1.9,1.9,0,0,1,1.58.76.78.78,0,0,1,.79-.69c.8,0,.8.66.8,1.08Zm-2.94-.37c.86,0,1.28-.87,1.28-1.67s-.41-1.7-1.28-1.7-1.32.9-1.32,1.7S242.78,251,243.68,251Z"/><path class="cls-31" d="M247.56,247.14a.84.84,0,0,1,.83-.92.79.79,0,0,1,.83.69,1.86,1.86,0,0,1,1.58-.76c1.79,0,2.68,1.67,2.68,3.29a2.94,2.94,0,0,1-2.73,3.13,2.4,2.4,0,0,1-1.53-.58v2a.83.83,0,1,1-1.66,0Zm3,3.9c.86,0,1.29-.9,1.29-1.67s-.43-1.7-1.29-1.7-1.31.83-1.31,1.64S249.61,251,250.53,251Z"/><path class="cls-31" d="M259.89,249.37a3,3,0,1,1-5.95,0,3,3,0,1,1,5.95,0Zm-4.29,0c0,.8.41,1.67,1.31,1.67s1.32-.87,1.32-1.67-.41-1.7-1.32-1.7S255.6,248.57,255.6,249.37Z"/><path class="cls-31" d="M260.17,247.36a1.26,1.26,0,0,1-.08-.42.8.8,0,0,1,.79-.72.85.85,0,0,1,.83.59l1.14,3.12,1.22-3.12a.85.85,0,0,1,.83-.59.8.8,0,0,1,.79.72,1,1,0,0,1-.08.42l-2.78,6.92a.9.9,0,0,1-.79.66.77.77,0,0,1-.86-.71,1.34,1.34,0,0,1,.1-.49l.73-1.8Z"/><path class="cls-31" d="M271.84,249.37a3,3,0,1,1-5.95,0,3,3,0,1,1,5.95,0Zm-4.29,0c0,.8.42,1.67,1.32,1.67s1.31-.87,1.31-1.67-.4-1.7-1.31-1.7S267.55,248.57,267.55,249.37Z"/><path class="cls-31" d="M281.31,251.41c0,.43,0,1.09-.8,1.09-.48,0-.68-.27-.79-.71a2,2,0,0,1-1.58.78,2.91,2.91,0,0,1-2.75-3.2,3,3,0,0,1,2.75-3.22,1.9,1.9,0,0,1,1.58.76.78.78,0,0,1,.79-.69c.8,0,.8.66.8,1.08Zm-2.94-.37c.86,0,1.28-.87,1.28-1.67s-.41-1.7-1.28-1.7-1.32.9-1.32,1.7S277.47,251,278.37,251Z"/><path class="cls-31" d="M285.32,244.47a.84.84,0,1,1,1.66,0v7.1a.84.84,0,1,1-1.66,0Z"/><path class="cls-31" d="M293.58,251.41c0,.43,0,1.09-.8,1.09-.48,0-.68-.27-.8-.71a2,2,0,0,1-1.58.78,2.91,2.91,0,0,1-2.74-3.2,3,3,0,0,1,2.74-3.22,1.9,1.9,0,0,1,1.58.76.8.8,0,0,1,.8-.69c.8,0,.8.66.8,1.08Zm-2.95-.37c.87,0,1.28-.87,1.28-1.67s-.4-1.7-1.28-1.7-1.31.9-1.31,1.7S289.73,251,290.63,251Z"/><path class="cls-31" d="M298,247.74h-.37a.66.66,0,0,1-.72-.72.71.71,0,0,1,.72-.73H298v-1a.84.84,0,1,1,1.66,0v1h.47a.7.7,0,0,1,.8.73c0,.52-.37.72-.8.72h-.47v3.83a.84.84,0,1,1-1.66,0Z"/><path class="cls-31" d="M306.73,249.37a3,3,0,1,1-6,0,3,3,0,1,1,6,0Zm-4.29,0c0,.8.41,1.67,1.31,1.67s1.32-.87,1.32-1.67-.41-1.7-1.32-1.7S302.44,248.57,302.44,249.37Z"/><path class="cls-31" d="M307.43,247.14a.84.84,0,0,1,.83-.92.7.7,0,0,1,.76.62,2.11,2.11,0,0,1,1.55-.69,2.14,2.14,0,0,1,1.72.84,2.48,2.48,0,0,1,1.75-.84,2.08,2.08,0,0,1,2.27,2.24v3.18a.84.84,0,1,1-1.66,0v-2.89c0-.67-.37-1.14-1-1.14a1,1,0,0,0-1,1.14v2.89a.84.84,0,1,1-1.66,0v-2.89c0-.67-.37-1.14-1-1.14s-1,.47-1,1.14v2.89a.84.84,0,1,1-1.66,0Z"/><path class="cls-31" d="M322.93,251.41c0,.43,0,1.09-.8,1.09-.48,0-.68-.27-.79-.71a2,2,0,0,1-1.58.78,2.91,2.91,0,0,1-2.75-3.2,3,3,0,0,1,2.75-3.22,1.9,1.9,0,0,1,1.58.76.78.78,0,0,1,.79-.69c.8,0,.8.66.8,1.08ZM320,251c.86,0,1.28-.87,1.28-1.67s-.41-1.7-1.28-1.7-1.32.9-1.32,1.7S319.09,251,320,251Z"/><path class="cls-31" d="M254.08,262.46a.84.84,0,0,1-.83.92.8.8,0,0,1-.83-.69,1.79,1.79,0,0,1-1.52.76,2.94,2.94,0,0,1-2.73-3.12c0-1.62.88-3.29,2.67-3.29a2.4,2.4,0,0,1,1.58.57v-2.26a.83.83,0,1,1,1.66,0Zm-3-3.9c-.87,0-1.29.91-1.29,1.7s.42,1.67,1.29,1.67,1.3-.92,1.3-1.73S252,258.56,251.12,258.56Z"/><path class="cls-31" d="M256.36,260.8a1.44,1.44,0,0,0,1.57,1.2c.86,0,1.45-.67,1.88-.67a.74.74,0,0,1,.68.71c0,.72-1.47,1.41-2.71,1.41a3,3,0,0,1-3.11-3.19,3,3,0,1,1,6-.2c0,.5-.22.74-.72.74Zm2.61-1.11a1.31,1.31,0,0,0-1.33-1.27,1.34,1.34,0,0,0-1.31,1.27Z"/><path class="cls-31" d="M270,262.46a.84.84,0,0,1-.83.92.79.79,0,0,1-.83-.69,1.8,1.8,0,0,1-1.52.76,2.94,2.94,0,0,1-2.74-3.12c0-1.62.89-3.29,2.68-3.29a2.4,2.4,0,0,1,1.58.57v-2.26a.83.83,0,1,1,1.66,0Zm-3-3.9c-.87,0-1.3.91-1.3,1.7s.43,1.67,1.3,1.67,1.3-.92,1.3-1.73S267.91,258.56,267,258.56Z"/><path class="cls-31" d="M272.26,260.8a1.44,1.44,0,0,0,1.57,1.2c.85,0,1.44-.67,1.88-.67a.74.74,0,0,1,.68.71c0,.72-1.48,1.41-2.71,1.41a3,3,0,0,1-3.11-3.19,3,3,0,1,1,6-.2c0,.5-.22.74-.73.74Zm2.61-1.11a1.32,1.32,0,0,0-1.33-1.27,1.33,1.33,0,0,0-1.31,1.27Z"/><path class="cls-31" d="M281.24,258.88c-.41,0-.78-.32-1.31-.32-.95,0-1.4.84-1.4,1.7a1.53,1.53,0,0,0,1.4,1.67,8.93,8.93,0,0,0,1.23-.35.74.74,0,0,1,.72.73c0,.85-1.43,1.14-2,1.14a3,3,0,0,1-3-3.19,3.09,3.09,0,0,1,3-3.22c.66,0,2,.24,2,1C281.88,258.43,281.64,258.88,281.24,258.88Z"/><path class="cls-31" d="M284.19,255.53a.94.94,0,0,1-.93,1,1,1,0,0,1-.94-1,1,1,0,0,1,.94-.91A.94.94,0,0,1,284.19,255.53Zm-1.76,2.5a.83.83,0,1,1,1.66,0v4.43a.83.83,0,1,1-1.66,0Z"/><path class="cls-31" d="M288.51,259c-.31,0-.95-.49-1.49-.49-.3,0-.57.14-.57.46,0,.78,2.89.66,2.89,2.55,0,1.11-.94,1.95-2.37,1.95-.93,0-2.32-.53-2.32-1.28a.79.79,0,0,1,.72-.74c.64,0,.93.57,1.72.57.5,0,.66-.16.66-.48,0-.76-2.89-.64-2.89-2.54a2,2,0,0,1,2.25-1.94c.82,0,2.08.38,2.08,1.2A.72.72,0,0,1,288.51,259Z"/><path class="cls-31" d="M291.66,255.53a.94.94,0,0,1-.93,1,1,1,0,0,1-.93-1,.93.93,0,0,1,1.86,0ZM289.9,258a.83.83,0,1,1,1.66,0v4.43a.83.83,0,1,1-1.66,0Z"/><path class="cls-31" d="M298.19,260.26a3,3,0,1,1-5.95,0,3,3,0,1,1,5.95,0Zm-4.29,0c0,.79.42,1.67,1.32,1.67s1.31-.88,1.31-1.67-.4-1.7-1.31-1.7S293.9,259.46,293.9,260.26Z"/><path class="cls-31" d="M298.89,258a.84.84,0,0,1,.83-.92.69.69,0,0,1,.76.61,1.81,1.81,0,0,1,1.61-.68,2.13,2.13,0,0,1,2.27,2.24v3.18a.83.83,0,1,1-1.66,0v-2.9a1.08,1.08,0,1,0-2.15,0v2.9a.83.83,0,1,1-1.66,0Z"/><path class="cls-31" d="M306.64,260.8a1.44,1.44,0,0,0,1.57,1.2c.85,0,1.44-.67,1.88-.67a.74.74,0,0,1,.68.71c0,.72-1.48,1.41-2.71,1.41a3,3,0,0,1-3.12-3.19,3,3,0,1,1,6-.2c0,.5-.22.74-.73.74Zm2.61-1.11a1.32,1.32,0,0,0-1.33-1.27,1.33,1.33,0,0,0-1.31,1.27Z"/><path class="cls-31" d="M315,259c-.31,0-.95-.49-1.49-.49-.3,0-.57.14-.57.46,0,.78,2.89.66,2.89,2.55,0,1.11-.94,1.95-2.37,1.95-.93,0-2.32-.53-2.32-1.28a.79.79,0,0,1,.72-.74c.65,0,.93.57,1.72.57.51,0,.66-.16.66-.48,0-.76-2.89-.64-2.89-2.54a2,2,0,0,1,2.25-1.94c.82,0,2.08.38,2.08,1.2A.72.72,0,0,1,315,259Z"/><g class="cls-49"><path class="cls-50" d="M177.35,279.81c-.35,4.28-17.59,6.35-38.5,4.64s-37.55-6.57-37.19-10.85,17.61-6.35,38.5-4.63S177.72,275.54,177.35,279.81Z"/></g><g class="cls-51"><path class="cls-52" d="M34.08,279.81c.36,4.28,17.6,6.35,38.5,4.64s37.56-6.57,37.19-10.85S92.16,267.25,71.28,269,33.72,275.54,34.08,279.81Z"/></g><rect class="cls-30" x="43.45" y="211.96" width="124.09" height="66.09" rx="33.04"/><path class="cls-31" d="M80.51,228.45a.82.82,0,0,1,.88-.9h2c1.77,0,2.87.8,2.87,2.61a2.24,2.24,0,0,1-2.14,2.18l2,2.1a.73.73,0,0,1,.24.51.88.88,0,0,1-1.54.59l-2.56-3.11h0v2.51a.87.87,0,1,1-1.73,0Zm1.73,2.74h1.19a1,1,0,0,0,1.07-1,1,1,0,0,0-1.07-1H82.24Z"/><path class="cls-31" d="M88.21,233.25a1.43,1.43,0,0,0,1.57,1.2c.85,0,1.44-.67,1.88-.67a.74.74,0,0,1,.68.72c0,.71-1.48,1.41-2.71,1.41a3,3,0,0,1-3.12-3.2,3,3,0,1,1,6-.19.63.63,0,0,1-.73.73Zm2.61-1.1a1.32,1.32,0,0,0-1.33-1.27,1.34,1.34,0,0,0-1.32,1.27Z"/><path class="cls-31" d="M98.74,235.28c0,2-1.31,3-3.2,3-.68,0-2.62-.33-2.62-1.24a.82.82,0,0,1,.67-.73c.53,0,1.12.52,2.08.52a1.28,1.28,0,0,0,1.41-1.32v-.39h0a1.89,1.89,0,0,1-1.67.79c-1.74,0-2.56-1.54-2.56-3.19a3,3,0,0,1,2.73-3.23,1.85,1.85,0,0,1,1.53.76.79.79,0,0,1,.83-.69.84.84,0,0,1,.83.92Zm-3-4.26c-.86,0-1.29.89-1.29,1.67s.43,1.69,1.29,1.69,1.31-.83,1.31-1.63S96.68,231,95.77,231Z"/><path class="cls-31" d="M101.42,228a1,1,0,0,1-.93,1,1,1,0,0,1-.94-1,.94.94,0,0,1,1.87,0Zm-1.76,2.5a.83.83,0,1,1,1.66,0v4.43a.84.84,0,1,1-1.66,0Z"/><path class="cls-31" d="M105.73,231.43c-.31,0-.94-.48-1.48-.48-.3,0-.57.13-.57.46,0,.77,2.88.65,2.88,2.55a2.09,2.09,0,0,1-2.36,1.95c-.94,0-2.32-.53-2.32-1.28a.78.78,0,0,1,.72-.74c.64,0,.93.56,1.71.56.51,0,.66-.16.66-.47,0-.76-2.88-.65-2.88-2.55a2,2,0,0,1,2.25-1.94c.82,0,2.07.38,2.07,1.2A.71.71,0,0,1,105.73,231.43Z"/><path class="cls-31" d="M107.55,231.08h-.37a.66.66,0,0,1-.72-.72.71.71,0,0,1,.72-.73h.37v-1a.83.83,0,1,1,1.66,0v1h.48a.73.73,0,1,1,0,1.45h-.48v3.83a.84.84,0,1,1-1.66,0Z"/><path class="cls-31" d="M110.54,230.39a.82.82,0,0,1,.85-.83c.44,0,.81.16.81.69h0a1.32,1.32,0,0,1,1.17-.69.81.81,0,0,1,.8.89c0,.54-.49.58-1,.81s-1,.45-1,1.11v2.54a.84.84,0,1,1-1.66,0Z"/><path class="cls-31" d="M119.9,232.71a3,3,0,1,1-6,0,3,3,0,1,1,6,0Zm-4.29,0c0,.8.42,1.67,1.32,1.67s1.31-.87,1.31-1.67-.4-1.69-1.31-1.69S115.61,231.91,115.61,232.71Z"/><path class="cls-31" d="M123.28,230.7a1,1,0,0,1-.08-.42.79.79,0,0,1,.78-.72.85.85,0,0,1,.83.59l1.14,3.13,1.23-3.13a.83.83,0,0,1,.83-.59.8.8,0,0,1,.78.72.9.9,0,0,1-.08.42l-2.78,6.93a.89.89,0,0,1-.78.65c-.57,0-.87-.35-.87-.71a1.64,1.64,0,0,1,.1-.49l.73-1.8Z"/><path class="cls-31" d="M83.94,242.22c-.41,0-.78-.32-1.31-.32-.95,0-1.4.84-1.4,1.7a1.53,1.53,0,0,0,1.4,1.67,8.53,8.53,0,0,0,1.23-.35.73.73,0,0,1,.72.73c0,.85-1.43,1.14-2,1.14a3,3,0,0,1-3-3.19,3.09,3.09,0,0,1,3-3.22c.66,0,2,.24,2,1.05C84.58,241.78,84.34,242.22,83.94,242.22Z"/><path class="cls-31" d="M90.86,243.6a3,3,0,1,1-6,0,3,3,0,1,1,6,0Zm-4.29,0c0,.79.42,1.67,1.32,1.67s1.31-.88,1.31-1.67-.4-1.7-1.31-1.7S86.57,242.8,86.57,243.6Z"/><path class="cls-31" d="M91.56,241.37a.84.84,0,0,1,.83-.92.69.69,0,0,1,.76.61,1.81,1.81,0,0,1,1.61-.68A2.13,2.13,0,0,1,97,242.62v3.18a.83.83,0,1,1-1.66,0v-2.89a1.08,1.08,0,1,0-2.15,0v2.89a.83.83,0,1,1-1.66,0Z"/><path class="cls-31" d="M98.38,242H98a.68.68,0,0,1-.73-.73.71.71,0,0,1,.73-.72h.37v-1a.84.84,0,1,1,1.66,0v1h.47c.43,0,.8.19.8.72a.71.71,0,0,1-.8.73H100v3.83a.83.83,0,1,1-1.66,0Z"/><path class="cls-31" d="M101.36,241.28a.82.82,0,0,1,.86-.83c.43,0,.8.16.8.69h0a1.3,1.3,0,0,1,1.16-.69.81.81,0,0,1,.81.89c0,.54-.5.57-1,.8s-1,.45-1,1.11v2.55a.83.83,0,1,1-1.66,0Z"/><path class="cls-31" d="M110.73,243.6a3,3,0,1,1-6,0,3,3,0,1,1,6,0Zm-4.29,0c0,.79.41,1.67,1.31,1.67s1.32-.88,1.32-1.67-.41-1.7-1.32-1.7S106.44,242.8,106.44,243.6Z"/><path class="cls-31" d="M111.4,238.7a.84.84,0,1,1,1.67,0v7.1a.84.84,0,1,1-1.67,0Z"/><path class="cls-31" d="M122.75,245.8a.84.84,0,0,1-.83.92.79.79,0,0,1-.83-.69,1.8,1.8,0,0,1-1.52.76,2.94,2.94,0,0,1-2.74-3.12c0-1.62.89-3.29,2.68-3.29a2.41,2.41,0,0,1,1.58.58V238.7a.84.84,0,1,1,1.66,0Zm-3-3.9c-.87,0-1.29.91-1.29,1.7s.42,1.67,1.29,1.67,1.3-.92,1.3-1.73S120.68,241.9,119.79,241.9Z"/><path class="cls-31" d="M125,244.14a1.44,1.44,0,0,0,1.57,1.2c.85,0,1.44-.67,1.88-.67a.74.74,0,0,1,.68.72c0,.71-1.48,1.4-2.71,1.4a3,3,0,0,1-3.11-3.19,3,3,0,1,1,6-.2c0,.5-.22.74-.73.74Zm2.61-1.11a1.32,1.32,0,0,0-1.33-1.27A1.33,1.33,0,0,0,125,243Z"/><path class="cls-31" d="M76.59,249.75a1,1,0,0,1-.93,1,1,1,0,0,1-.94-1,1,1,0,0,1,.94-.91A.94.94,0,0,1,76.59,249.75Zm-1.76,2.51a.83.83,0,1,1,1.66,0v4.43a.83.83,0,1,1-1.66,0Z"/><path class="cls-31" d="M77.41,252.26a.84.84,0,0,1,.83-.92A.69.69,0,0,1,79,252a1.81,1.81,0,0,1,1.61-.68,2.13,2.13,0,0,1,2.27,2.23v3.19a.83.83,0,1,1-1.66,0v-2.9a1.08,1.08,0,1,0-2.15,0v2.9a.83.83,0,1,1-1.66,0Z"/><path class="cls-31" d="M84.2,252.86h-.37a.67.67,0,0,1-.72-.73.71.71,0,0,1,.72-.73h.37v-.85a1.69,1.69,0,0,1,1.74-1.89c.59,0,1.16.17,1.16.75s-.22.7-.68.7c-.28,0-.56,0-.56.61v.68h.52c.5,0,.84.2.84.73s-.35.73-.84.73h-.52v3.83a.83.83,0,1,1-1.66,0Z"/><path class="cls-31" d="M92.94,254.48a3,3,0,1,1-6,0,3,3,0,1,1,6,0Zm-4.29,0c0,.8.42,1.68,1.32,1.68s1.31-.88,1.31-1.68-.4-1.69-1.31-1.69S88.65,253.69,88.65,254.48Z"/><path class="cls-31" d="M93.62,252.17a.81.81,0,0,1,.85-.83c.44,0,.81.16.81.69h0a1.33,1.33,0,0,1,1.17-.69.81.81,0,0,1,.81.88c0,.55-.5.58-1,.81s-1,.45-1,1.11v2.55a.83.83,0,1,1-1.66,0Z"/><path class="cls-31" d="M97.69,252.26a.84.84,0,0,1,.83-.92.7.7,0,0,1,.76.62,2.08,2.08,0,0,1,1.55-.69,2.11,2.11,0,0,1,1.72.84,2.48,2.48,0,0,1,1.75-.84,2.08,2.08,0,0,1,2.27,2.23v3.19a.83.83,0,1,1-1.66,0v-2.9c0-.67-.37-1.14-1-1.14a1,1,0,0,0-1,1.14v2.9a.83.83,0,1,1-1.66,0v-2.9c0-.67-.37-1.14-1-1.14s-1,.47-1,1.14v2.9a.83.83,0,1,1-1.66,0Z"/><path class="cls-31" d="M113.19,256.53c0,.42,0,1.08-.8,1.08-.48,0-.68-.26-.79-.7a2,2,0,0,1-1.58.77,2.91,2.91,0,0,1-2.75-3.2,3,3,0,0,1,2.75-3.21,1.9,1.9,0,0,1,1.58.76.77.77,0,0,1,.79-.69c.8,0,.8.65.8,1.08Zm-2.94-.37c.86,0,1.28-.88,1.28-1.68s-.41-1.69-1.28-1.69-1.32.9-1.32,1.69S109.35,256.16,110.25,256.16Z"/><path class="cls-31" d="M118.26,253.11c-.42,0-.79-.32-1.32-.32-.94,0-1.39.84-1.39,1.69a1.53,1.53,0,0,0,1.39,1.68,9.13,9.13,0,0,0,1.24-.35.73.73,0,0,1,.71.73c0,.85-1.43,1.14-2,1.14a3,3,0,0,1-3-3.2,3.08,3.08,0,0,1,3-3.21c.66,0,2,.24,2,1C118.89,252.66,118.65,253.11,118.26,253.11Z"/><path class="cls-31" d="M121.21,249.75a1,1,0,0,1-.94,1,1,1,0,0,1-.93-1,.94.94,0,0,1,1.87,0Zm-1.77,2.51a.84.84,0,1,1,1.67,0v4.43a.84.84,0,1,1-1.67,0Z"/><path class="cls-31" d="M127.74,254.48a3,3,0,1,1-6,0,3,3,0,1,1,6,0Zm-2.62-5.74a1.22,1.22,0,0,1,.44-.12.74.74,0,0,1,.62.72.67.67,0,0,1-.47.68l-1.3.51c-.33.11-.23.11-.46.11s-.61-.44-.61-.84a.56.56,0,0,1,.33-.46l.09-.05Zm-1.67,5.74c0,.8.41,1.68,1.31,1.68s1.32-.88,1.32-1.68-.41-1.69-1.32-1.69S123.45,253.69,123.45,254.48Z"/><path class="cls-31" d="M128.44,252.26a.83.83,0,0,1,.83-.92.7.7,0,0,1,.76.61,1.79,1.79,0,0,1,1.6-.68,2.12,2.12,0,0,1,2.27,2.23v3.19a.83.83,0,1,1-1.66,0v-2.9a1.07,1.07,0,1,0-2.14,0v2.9a.83.83,0,1,1-1.66,0Z"/></g></g></svg>