<svg xmlns="http://www.w3.org/2000/svg" xmlns:xlink="http://www.w3.org/1999/xlink" viewBox="0 0 217.72 235.83"><defs><style>.cls-1{mask:url(#mask);filter:url(#luminosity-noclip-5);}.cls-12,.cls-14,.cls-18,.cls-2,.cls-20,.cls-4,.cls-45,.cls-46,.cls-47,.cls-6,.cls-8{mix-blend-mode:multiply;}.cls-2{fill:url(#radial-gradient);}.cls-3{mask:url(#mask-2);filter:url(#luminosity-noclip-6);}.cls-4{fill:url(#radial-gradient-2);}.cls-5{mask:url(#mask-3);filter:url(#luminosity-noclip-7);}.cls-6{fill:url(#radial-gradient-3);}.cls-7{mask:url(#mask-4);filter:url(#luminosity-noclip-8);}.cls-8{fill:url(#radial-gradient-4);}.cls-9{fill:none;}.cls-10{isolation:isolate;}.cls-11{mask:url(#mask-5);}.cls-12{fill:url(#Degradado_sin_nombre_153);}.cls-13{mask:url(#mask-6);}.cls-14{fill:url(#Degradado_sin_nombre_151);}.cls-15{fill:#eaeaea;}.cls-16{clip-path:url(#clip-path);}.cls-17{mask:url(#mask-7);}.cls-18{fill:url(#Degradado_sin_nombre_153-2);}.cls-19{mask:url(#mask-8);}.cls-20{fill:url(#Degradado_sin_nombre_151-2);}.cls-21{fill:#93d500;}.cls-22{fill:#fefefe;}.cls-23{fill:url(#linear-gradient);}.cls-24{fill:url(#linear-gradient-2);}.cls-25{fill:url(#linear-gradient-3);}.cls-26{fill:url(#linear-gradient-4);}.cls-27{fill:#b8b4bc;}.cls-28{fill:url(#linear-gradient-5);}.cls-29{fill:url(#linear-gradient-6);}.cls-30{fill:url(#radial-gradient-5);}.cls-31{fill:url(#linear-gradient-7);}.cls-32{fill:url(#linear-gradient-8);}.cls-33{fill:url(#linear-gradient-9);}.cls-34{fill:url(#linear-gradient-10);}.cls-35{fill:url(#linear-gradient-11);}.cls-36{fill:url(#linear-gradient-12);}.cls-37{fill:url(#linear-gradient-13);}.cls-38{opacity:0.2;}.cls-39{fill:#dbdbdb;}.cls-40{fill:#fff;}.cls-41{fill:#911728;}.cls-42{fill:#bbbbbf;}.cls-43{fill:#7398c4;}.cls-44{fill:#e6e6e7;}.cls-45{fill:url(#radial-gradient-6);}.cls-46{fill:url(#radial-gradient-7);}.cls-47{fill:url(#radial-gradient-8);}.cls-48{fill:#1f3b51;}.cls-49{fill:#307c9c;}.cls-50,.cls-52{fill:#e9e9e9;}.cls-50{opacity:0.3;}.cls-51{fill:#cacaca;}.cls-53{fill:#03698c;}.cls-54{filter:url(#luminosity-noclip-4);}.cls-55{filter:url(#luminosity-noclip-3);}.cls-56{filter:url(#luminosity-noclip-2);}.cls-57{filter:url(#luminosity-noclip);}</style><filter id="luminosity-noclip" x="102.72" y="-8574.67" width="114.57" height="32766" filterUnits="userSpaceOnUse" color-interpolation-filters="sRGB"><feFlood flood-color="#fff" result="bg"/><feBlend in="SourceGraphic" in2="bg"/></filter><mask id="mask" x="102.72" y="-8574.67" width="114.57" height="32766" maskUnits="userSpaceOnUse"><g class="cls-57"/></mask><radialGradient id="radial-gradient" cx="-244.69" cy="267.28" r="39.98" gradientTransform="matrix(1, 0.3, -1.03, 0.13, 678.99, 264.15)" gradientUnits="userSpaceOnUse"><stop offset="0.5" stop-color="#a6a6a6"/><stop offset="0.6" stop-color="#a3a3a3"/><stop offset="0.67" stop-color="#999"/><stop offset="0.75" stop-color="#888"/><stop offset="0.81" stop-color="#707070"/><stop offset="0.88" stop-color="#515151"/><stop offset="0.94" stop-color="#2c2c2c"/><stop offset="1"/></radialGradient><filter id="luminosity-noclip-2" x="0.45" y="-8574.67" width="114.57" height="32766" filterUnits="userSpaceOnUse" color-interpolation-filters="sRGB"><feFlood flood-color="#fff" result="bg"/><feBlend in="SourceGraphic" in2="bg"/></filter><mask id="mask-2" x="0.45" y="-8574.67" width="114.57" height="32766" maskUnits="userSpaceOnUse"><g class="cls-56"/></mask><radialGradient id="radial-gradient-2" cx="77.2" cy="-486.03" r="39.98" gradientTransform="matrix(-1, 0.3, 1.03, 0.13, 635.44, 264.15)" xlink:href="#radial-gradient"/><filter id="luminosity-noclip-3" x="107.68" y="-8574.67" width="92.69" height="32766" filterUnits="userSpaceOnUse" color-interpolation-filters="sRGB"><feFlood flood-color="#fff" result="bg"/><feBlend in="SourceGraphic" in2="bg"/></filter><mask id="mask-3" x="107.68" y="-8574.67" width="92.69" height="32766" maskUnits="userSpaceOnUse"><g class="cls-55"/></mask><radialGradient id="radial-gradient-3" cx="-364.39" cy="-913.54" r="33.28" gradientTransform="matrix(0.97, 0.3, -1, 0.13, -408.37, 264.15)" xlink:href="#radial-gradient"/><filter id="luminosity-noclip-4" x="25.66" y="-8574.67" width="92.69" height="32766" filterUnits="userSpaceOnUse" color-interpolation-filters="sRGB"><feFlood flood-color="#fff" result="bg"/><feBlend in="SourceGraphic" in2="bg"/></filter><mask id="mask-4" x="25.66" y="-8574.67" width="92.69" height="32766" maskUnits="userSpaceOnUse"><g class="cls-54"/></mask><radialGradient id="radial-gradient-4" cx="-692.13" cy="-146.55" r="33.28" gradientTransform="matrix(-0.97, 0.3, 1, 0.13, -450.69, 264.15)" xlink:href="#radial-gradient"/><filter id="luminosity-noclip-5" x="102.72" y="212.25" width="114.57" height="25.94" filterUnits="userSpaceOnUse" color-interpolation-filters="sRGB"><feFlood flood-color="#fff" result="bg"/><feBlend in="SourceGraphic" in2="bg"/></filter><mask id="mask-5" x="102.72" y="212.25" width="114.57" height="25.94" maskUnits="userSpaceOnUse"><g class="cls-1"><path class="cls-2" d="M217.28,230.05c-.54,6.65-26.63,9.88-58.27,7.21s-56.83-10.21-56.28-16.87,26.65-9.87,58.26-7.2S217.83,223.41,217.28,230.05Z"/></g></mask><radialGradient id="Degradado_sin_nombre_153" cx="-244.69" cy="267.28" r="39.98" gradientTransform="matrix(1, 0.3, -1.03, 0.13, 678.99, 264.15)" gradientUnits="userSpaceOnUse"><stop offset="0" stop-color="#3c3c3b"/><stop offset="1" stop-color="#fff" stop-opacity="0"/></radialGradient><filter id="luminosity-noclip-6" x="0.45" y="212.25" width="114.57" height="25.94" filterUnits="userSpaceOnUse" color-interpolation-filters="sRGB"><feFlood flood-color="#fff" result="bg"/><feBlend in="SourceGraphic" in2="bg"/></filter><mask id="mask-6" x="0.45" y="212.25" width="114.57" height="25.94" maskUnits="userSpaceOnUse"><g class="cls-3"><path class="cls-4" d="M.46,230.05c.53,6.65,26.63,9.88,58.26,7.21s56.83-10.21,56.29-16.87-26.66-9.87-58.27-7.2S-.09,223.41.46,230.05Z"/></g></mask><radialGradient id="Degradado_sin_nombre_151" cx="77.2" cy="-486.03" r="39.98" gradientTransform="matrix(-1, 0.3, 1.03, 0.13, 635.44, 264.15)" gradientUnits="userSpaceOnUse"><stop offset="0" stop-color="#3c3c3b"/><stop offset="0" stop-color="#3d3d3c"/><stop offset="1" stop-color="#fff" stop-opacity="0"/></radialGradient><clipPath id="clip-path"><rect class="cls-9" x="30.98" y="40.7" width="163.4" height="10.43"/></clipPath><filter id="luminosity-noclip-7" x="107.68" y="28.21" width="92.69" height="21.6" filterUnits="userSpaceOnUse" color-interpolation-filters="sRGB"><feFlood flood-color="#fff" result="bg"/><feBlend in="SourceGraphic" in2="bg"/></filter><mask id="mask-7" x="107.68" y="28.21" width="92.69" height="21.6" maskUnits="userSpaceOnUse"><g class="cls-5"><path class="cls-6" d="M200.36,43c-.44,5.53-21.55,8.22-47.14,6s-46-8.51-45.53-14,21.56-8.22,47.13-6S200.8,37.49,200.36,43Z"/></g></mask><radialGradient id="Degradado_sin_nombre_153-2" cx="-364.39" cy="-913.54" r="33.28" gradientTransform="matrix(0.97, 0.3, -1, 0.13, -408.37, 264.15)" xlink:href="#Degradado_sin_nombre_153"/><filter id="luminosity-noclip-8" x="25.66" y="28.21" width="92.69" height="21.6" filterUnits="userSpaceOnUse" color-interpolation-filters="sRGB"><feFlood flood-color="#fff" result="bg"/><feBlend in="SourceGraphic" in2="bg"/></filter><mask id="mask-8" x="25.66" y="28.21" width="92.69" height="21.6" maskUnits="userSpaceOnUse"><g class="cls-7"><path class="cls-8" d="M25.67,43c.43,5.53,21.54,8.22,47.13,6s46-8.51,45.54-14S96.77,26.77,71.2,29,25.22,37.49,25.67,43Z"/></g></mask><radialGradient id="Degradado_sin_nombre_151-2" cx="-692.13" cy="-146.55" r="33.28" gradientTransform="matrix(-0.97, 0.3, 1, 0.13, -450.69, 264.15)" xlink:href="#Degradado_sin_nombre_151"/><linearGradient id="linear-gradient" x1="-3649.07" y1="-814.27" x2="-3649.07" y2="-1109.38" gradientTransform="translate(1464.85 490.16) scale(0.38)" gradientUnits="userSpaceOnUse"><stop offset="0.01" stop-color="#a18169"/><stop offset="1" stop-color="#7f674f"/></linearGradient><linearGradient id="linear-gradient-2" x1="-3648.6" y1="-814.27" x2="-3648.6" y2="-1109.38" gradientTransform="translate(1465.22 490.05) scale(0.38)" gradientUnits="userSpaceOnUse"><stop offset="0" stop-color="#7f674f"/><stop offset="1" stop-color="#a18169"/></linearGradient><linearGradient id="linear-gradient-3" x1="-3717.89" y1="-827.85" x2="-3717.89" y2="-1122.98" gradientTransform="matrix(0.36, -0.07, 0.07, 0.36, 1487.98, 225)" gradientUnits="userSpaceOnUse"><stop offset="0.01" stop-color="#c39c7c"/><stop offset="1" stop-color="#caa27e"/></linearGradient><linearGradient id="linear-gradient-4" x1="-3717.89" y1="-827.39" x2="-3717.89" y2="-1122.48" gradientTransform="matrix(0.36, -0.07, 0.07, 0.36, 1488.05, 225.38)" gradientUnits="userSpaceOnUse"><stop offset="0.01" stop-color="#a18169"/><stop offset="1" stop-color="#bc987b"/></linearGradient><linearGradient id="linear-gradient-5" x1="1865.88" y1="-31.21" x2="1865.88" y2="73.02" gradientTransform="matrix(-0.82, 0.16, -0.17, -0.91, 1627.34, -143.44)" gradientUnits="userSpaceOnUse"><stop offset="0" stop-color="#fff"/><stop offset="0.47" stop-color="#fdfdfd"/><stop offset="0.69" stop-color="#f5f6f6"/><stop offset="0.86" stop-color="#e9e9ea"/><stop offset="1" stop-color="#d6d7d8"/><stop offset="1" stop-color="#d6d7d8"/></linearGradient><linearGradient id="linear-gradient-6" x1="-180.44" y1="506.08" x2="-171.29" y2="496.93" gradientTransform="matrix(0.82, -0.16, 0.17, 0.91, 137.74, -324.93)" gradientUnits="userSpaceOnUse"><stop offset="0" stop-color="#fff"/><stop offset="0.32" stop-color="#f2f3f3"/><stop offset="0.91" stop-color="#d0d3d4"/><stop offset="1" stop-color="#cacdce"/></linearGradient><radialGradient id="radial-gradient-5" cx="1591.99" cy="-23.73" r="11.96" gradientTransform="matrix(-1.15, 0.22, -0.24, -1.27, 1901.53, -212.22)" gradientUnits="userSpaceOnUse"><stop offset="0" stop-color="#fff"/><stop offset="0.48" stop-color="#fdfdfd"/><stop offset="0.65" stop-color="#f6f7f7"/><stop offset="0.77" stop-color="#ebebec"/><stop offset="0.87" stop-color="#dadbdc"/><stop offset="0.96" stop-color="#c4c6c8"/><stop offset="1" stop-color="#b5b8ba"/></radialGradient><linearGradient id="linear-gradient-7" x1="1845.21" y1="94.22" x2="1889.59" y2="49.85" gradientTransform="matrix(-0.82, 0.16, -0.17, -0.91, 1627.34, -143.44)" gradientUnits="userSpaceOnUse"><stop offset="0" stop-color="#cacdce"/><stop offset="0.47" stop-color="#fff"/><stop offset="0.64" stop-color="#f2f3f3"/><stop offset="0.95" stop-color="#d0d3d4"/><stop offset="1" stop-color="#cacdce"/></linearGradient><linearGradient id="linear-gradient-8" x1="-3165.67" y1="-1690.91" x2="-3165.67" y2="-1587.04" gradientTransform="matrix(0.23, -0.04, 0.04, 0.23, 866.01, 308.87)" gradientUnits="userSpaceOnUse"><stop offset="0" stop-color="#cacbcd"/><stop offset="0.28" stop-color="#989b9e"/><stop offset="0.55" stop-color="#ececed"/><stop offset="0.82" stop-color="#989b9e"/><stop offset="1" stop-color="#7d7e80"/></linearGradient><linearGradient id="linear-gradient-9" x1="-3165.67" y1="-1691.85" x2="-3165.67" y2="-1587.98" gradientTransform="matrix(0.23, -0.04, 0.04, 0.23, 865.93, 308.41)" gradientUnits="userSpaceOnUse"><stop offset="0" stop-color="#e3e3e4"/><stop offset="0.28" stop-color="#989b9e"/><stop offset="0.55" stop-color="#f6f6f6"/><stop offset="0.82" stop-color="#b3b6b8"/><stop offset="1" stop-color="#edeeee"/></linearGradient><linearGradient id="linear-gradient-10" x1="-4646.5" y1="-1970.86" x2="-4646.5" y2="-1960.06" gradientTransform="matrix(0.16, -0.03, 0.03, 0.16, 903.14, 245.72)" gradientUnits="userSpaceOnUse"><stop offset="0" stop-color="#cacbcd"/><stop offset="0.28" stop-color="#989b9e"/><stop offset="0.55" stop-color="#ececed"/><stop offset="0.82" stop-color="#989b9e"/><stop offset="1" stop-color="#dadbdc"/></linearGradient><linearGradient id="linear-gradient-11" x1="-4646.5" y1="-1967.57" x2="-4646.5" y2="-1956.78" gradientTransform="matrix(0.16, -0.03, 0.03, 0.16, 903.35, 246.87)" xlink:href="#linear-gradient-10"/><linearGradient id="linear-gradient-12" x1="-4646.5" y1="-1964.28" x2="-4646.5" y2="-1953.5" gradientTransform="matrix(0.16, -0.03, 0.03, 0.16, 903.57, 248.02)" xlink:href="#linear-gradient-10"/><linearGradient id="linear-gradient-13" x1="-4646.5" y1="-1960.98" x2="-4646.5" y2="-1950.21" gradientTransform="matrix(0.16, -0.03, 0.03, 0.16, 903.79, 249.17)" xlink:href="#linear-gradient-10"/><radialGradient id="radial-gradient-6" cx="519.19" cy="-3888.73" fx="483.5856049691184" fy="-3897.1264408099073" r="57.83" gradientTransform="translate(-330.96 607.47) scale(0.81 0.11)" gradientUnits="userSpaceOnUse"><stop offset="0" stop-color="#666"/><stop offset="0.25" stop-color="#828282" stop-opacity="0.79"/><stop offset="0.78" stop-color="#ccc" stop-opacity="0.25"/><stop offset="1" stop-color="#ededed" stop-opacity="0"/></radialGradient><radialGradient id="radial-gradient-7" cx="-275.8" cy="-3794.71" fx="-297.07606623497406" fy="-3794.711158893702" r="34.57" gradientTransform="translate(349.32 607.47) scale(0.67 0.11)" xlink:href="#radial-gradient-6"/><radialGradient id="radial-gradient-8" cx="9662.33" cy="-3794.71" fx="9641.054312992546" fy="-3794.7111623148717" r="34.57" gradientTransform="matrix(-0.67, 0, 0, 0.11, 6565.62, 607.47)" xlink:href="#radial-gradient-6"/></defs><g class="cls-10"><g id="Capa_1" data-name="Capa 1"><g class="cls-11"><path class="cls-12" d="M217.28,230.05c-.54,6.65-26.63,9.88-58.27,7.21s-56.83-10.21-56.28-16.87,26.65-9.87,58.26-7.2S217.83,223.41,217.28,230.05Z"/></g><g class="cls-13"><path class="cls-14" d="M.46,230.05c.53,6.65,26.63,9.88,58.26,7.21s56.83-10.21,56.29-16.87-26.66-9.87-58.27-7.2S-.09,223.41.46,230.05Z"/></g><rect class="cls-15" x="1.72" y="12.31" width="214.28" height="216.19" rx="21.6"/><g class="cls-16"><g class="cls-17"><path class="cls-18" d="M200.36,43c-.44,5.53-21.55,8.22-47.14,6s-46-8.51-45.53-14,21.56-8.22,47.13-6S200.8,37.49,200.36,43Z"/></g><g class="cls-19"><path class="cls-20" d="M25.67,43c.43,5.53,21.54,8.22,47.13,6s46-8.51,45.54-14S96.77,26.77,71.2,29,25.22,37.49,25.67,43Z"/></g></g><rect class="cls-21" x="17.62" y="1.45" width="185.91" height="39.06" rx="18.64"/><path class="cls-22" d="M39.56,11.46a1.12,1.12,0,0,1,1.21-1.23h2.77c2.42,0,3.91,1.09,3.91,3.56a3,3,0,0,1-2.91,3l2.68,2.87a1,1,0,0,1,.31.69,1.19,1.19,0,0,1-2.09.8L42,16.89h0V20.3a1.18,1.18,0,1,1-2.35,0Zm2.35,3.73h1.63A1.34,1.34,0,0,0,45,13.79a1.32,1.32,0,0,0-1.46-1.39H41.91Z"/><path class="cls-22" d="M56,17.27a4.07,4.07,0,1,1-8.11,0,4.07,4.07,0,1,1,8.11,0Zm-5.85,0c0,1.08.57,2.28,1.79,2.28s1.8-1.2,1.8-2.28S53.21,15,52,15,50.17,16.18,50.17,17.27Z"/><path class="cls-22" d="M57,10.58a1.14,1.14,0,1,1,2.26,0v9.69a1.14,1.14,0,1,1-2.26,0Z"/><path class="cls-22" d="M72.43,20.27a1.15,1.15,0,0,1-1.14,1.26,1.08,1.08,0,0,1-1.13-.94,2.45,2.45,0,0,1-2.08,1c-2.28,0-3.72-2.12-3.72-4.26s1.21-4.48,3.65-4.48a3.27,3.27,0,0,1,2.15.78V10.58a1.14,1.14,0,1,1,2.27,0ZM68.38,15c-1.18,0-1.76,1.25-1.76,2.32s.58,2.28,1.76,2.28,1.78-1.26,1.78-2.36S69.6,15,68.38,15Z"/><path class="cls-22" d="M75.54,18a2,2,0,0,0,2.14,1.63c1.16,0,2-.91,2.56-.91a1,1,0,0,1,.93,1c0,1-2,1.92-3.7,1.92a4.11,4.11,0,0,1-4.24-4.35A4.07,4.07,0,1,1,81.36,17c0,.68-.3,1-1,1Zm3.55-1.51a1.79,1.79,0,0,0-1.81-1.74,1.83,1.83,0,0,0-1.79,1.74Z"/><path class="cls-22" d="M94.11,20.05c0,.58,0,1.48-1.08,1.48-.66,0-.93-.36-1.09-1a2.71,2.71,0,0,1-2.15,1.05c-2.13,0-3.75-1.81-3.75-4.35s1.67-4.39,3.75-4.39a2.58,2.58,0,0,1,2.15,1A1.08,1.08,0,0,1,93,13c1.08,0,1.08.9,1.08,1.48Zm-4-.5c1.18,0,1.75-1.2,1.75-2.28S91.3,15,90.1,15s-1.79,1.23-1.79,2.32S88.87,19.55,90.1,19.55Z"/><path class="cls-22" d="M103.14,20.27A1.14,1.14,0,0,1,102,21.53a1.1,1.1,0,0,1-1.14-.94,2.45,2.45,0,0,1-2.07,1c-2.28,0-3.73-2.12-3.73-4.26s1.21-4.48,3.65-4.48a3.23,3.23,0,0,1,2.15.78V10.58a1.14,1.14,0,1,1,2.27,0ZM99.1,15c-1.18,0-1.77,1.25-1.77,2.32s.59,2.28,1.77,2.28,1.77-1.26,1.77-2.36S100.31,15,99.1,15Z"/><path class="cls-22" d="M104.43,14.23A1.14,1.14,0,0,1,105.56,13a1,1,0,0,1,1,.85,2.79,2.79,0,0,1,2.1-.94A2.88,2.88,0,0,1,111.05,14a3.39,3.39,0,0,1,2.39-1.15,2.84,2.84,0,0,1,3.1,3v4.34a1.14,1.14,0,1,1-2.27,0V16.32c0-.91-.5-1.56-1.32-1.56s-1.33.65-1.33,1.56v3.95a1.14,1.14,0,1,1-2.27,0V16.32c0-.91-.5-1.56-1.32-1.56s-1.34.65-1.34,1.56v3.95a1.14,1.14,0,1,1-2.26,0Z"/><path class="cls-22" d="M120.2,10.82a1.3,1.3,0,0,1-1.27,1.3,1.33,1.33,0,0,1-1.28-1.3,1.28,1.28,0,0,1,2.55,0Zm-2.41,3.41a1.14,1.14,0,1,1,2.27,0v6a1.14,1.14,0,1,1-2.27,0Z"/><path class="cls-22" d="M121.32,14.23A1.14,1.14,0,0,1,122.45,13a1,1,0,0,1,1,.84,2.42,2.42,0,0,1,2.18-.93,2.9,2.9,0,0,1,3.1,3v4.34a1.14,1.14,0,1,1-2.26,0V16.32a1.47,1.47,0,1,0-2.93,0v3.95a1.14,1.14,0,1,1-2.26,0Z"/><path class="cls-22" d="M132.44,10.82a1.3,1.3,0,0,1-1.28,1.3,1.32,1.32,0,0,1-1.27-1.3,1.28,1.28,0,0,1,2.55,0ZM130,14.23a1.14,1.14,0,1,1,2.26,0v6a1.14,1.14,0,1,1-2.26,0Z"/><path class="cls-22" d="M138.32,15.52c-.43,0-1.29-.66-2-.66-.41,0-.77.19-.77.63,0,1,3.93.9,3.93,3.48,0,1.51-1.27,2.65-3.22,2.65-1.28,0-3.17-.72-3.17-1.74a1.07,1.07,0,0,1,1-1c.88,0,1.27.77,2.34.77.7,0,.9-.22.9-.64,0-1-3.93-.88-3.93-3.48,0-1.57,1.27-2.64,3.06-2.64,1.12,0,2.84.52,2.84,1.63A1,1,0,0,1,138.32,15.52Z"/><path class="cls-22" d="M140.8,15.05h-.5a.91.91,0,0,1-1-1,1,1,0,0,1,1-1h.5V11.71a1.14,1.14,0,1,1,2.27,0v1.36h.64c.58,0,1.09.26,1.09,1a1,1,0,0,1-1.09,1h-.64v5.22a1.14,1.14,0,1,1-2.27,0Z"/><path class="cls-22" d="M144.87,14.1A1.12,1.12,0,0,1,146,13c.6,0,1.1.22,1.1.95h0a1.8,1.8,0,0,1,1.59-.95,1.1,1.1,0,0,1,1.1,1.21c0,.74-.68.79-1.35,1.1s-1.37.62-1.37,1.51v3.48a1.14,1.14,0,1,1-2.27,0Z"/><path class="cls-22" d="M157.88,20.05c0,.58,0,1.48-1.08,1.48-.66,0-.93-.36-1.09-1a2.71,2.71,0,0,1-2.15,1.05c-2.13,0-3.75-1.81-3.75-4.35s1.67-4.39,3.75-4.39a2.58,2.58,0,0,1,2.15,1A1.08,1.08,0,0,1,156.8,13c1.08,0,1.08.9,1.08,1.48Zm-4-.5c1.18,0,1.75-1.2,1.75-2.28S155.07,15,153.87,15s-1.79,1.23-1.79,2.32S152.64,19.55,153.87,19.55Z"/><path class="cls-22" d="M159.72,15.05h-.5a.92.92,0,0,1-1-1,1,1,0,0,1,1-1h.5V11.71a1.14,1.14,0,1,1,2.26,0v1.36h.65c.58,0,1.08.26,1.08,1a1,1,0,0,1-1.08,1H162v5.22a1.14,1.14,0,1,1-2.26,0Z"/><path class="cls-22" d="M166.2,10.82a1.3,1.3,0,0,1-1.28,1.3,1.33,1.33,0,0,1-1.27-1.3,1.28,1.28,0,0,1,2.55,0Zm-2.41,3.41a1.14,1.14,0,1,1,2.27,0v6a1.14,1.14,0,1,1-2.27,0Z"/><path class="cls-22" d="M166.8,14.73a1.66,1.66,0,0,1-.15-.66,1.1,1.1,0,0,1,1.18-1.1,1,1,0,0,1,1,.8l1.45,4.47h0l1.45-4.47a1,1,0,0,1,1-.8,1.09,1.09,0,0,1,1.18,1.1,1.63,1.63,0,0,1-.14.66l-2.28,5.86c-.22.58-.45.94-1.23.94s-1-.36-1.22-.94Z"/><path class="cls-22" d="M182.37,17.27a4.07,4.07,0,1,1-8.12,0,4.07,4.07,0,1,1,8.12,0Zm-5.85,0c0,1.08.56,2.28,1.79,2.28s1.79-1.2,1.79-2.28S179.55,15,178.31,15,176.52,16.18,176.52,17.27Z"/><path class="cls-22" d="M94.77,33.9a1.14,1.14,0,0,1-1.13,1.26,1.08,1.08,0,0,1-1.13-.95,2.46,2.46,0,0,1-2.08,1c-2.28,0-3.73-2.12-3.73-4.26s1.21-4.48,3.65-4.48a3.28,3.28,0,0,1,2.16.78V24.21a1.14,1.14,0,1,1,2.26,0Zm-4-5.32c-1.18,0-1.76,1.25-1.76,2.32s.58,2.28,1.76,2.28,1.78-1.26,1.78-2.36S91.94,28.58,90.73,28.58Z"/><path class="cls-22" d="M97.88,31.63A2,2,0,0,0,100,33.27c1.17,0,2-.91,2.57-.91a1,1,0,0,1,.93,1c0,1-2,1.92-3.7,1.92a4.12,4.12,0,0,1-4.25-4.35,4.07,4.07,0,1,1,8.13-.27c0,.67-.29,1-1,1Zm3.56-1.51a1.8,1.8,0,0,0-1.81-1.73,1.82,1.82,0,0,0-1.79,1.73Z"/><path class="cls-22" d="M113.75,23.67c1.15,0,3.39.38,3.39,1.77a1,1,0,0,1-1,1c-.64,0-1.08-.55-2.41-.55-2,0-3,1.65-3,3.57s1,3.48,3,3.48c1.33,0,1.86-.66,2.5-.66a1.11,1.11,0,0,1,1,1.07c0,1.51-2.37,1.85-3.54,1.85-3.19,0-5.41-2.53-5.41-5.79S110.54,23.67,113.75,23.67Z"/><path class="cls-22" d="M119.54,25a1.57,1.57,0,0,1,1.54-1.21,1.67,1.67,0,0,1,1.57,1.13l1.86,6.23h0l1.86-6.23A1.67,1.67,0,0,1,128,23.77,1.57,1.57,0,0,1,129.51,25L131,33.76a2.53,2.53,0,0,1,0,.27,1.09,1.09,0,0,1-1.13,1.13c-.8,0-1.12-.36-1.23-1.1l-.93-6.41h0l-1.89,6.6a1.32,1.32,0,0,1-2.51,0l-1.89-6.6h0l-.93,6.41c-.11.74-.43,1.1-1.23,1.1A1.09,1.09,0,0,1,118.06,34a1.27,1.27,0,0,1,0-.27Z"/><path class="cls-22" d="M132.07,25a1.18,1.18,0,1,1,2.36,0v8.93a1.18,1.18,0,1,1-2.36,0Z"/><rect class="cls-23" x="49.1" y="72.97" width="82.29" height="111.28" rx="5.54" transform="translate(-22.42 19.11) rotate(-10.76)"/><rect class="cls-24" x="49.65" y="72.86" width="82.29" height="111.28" rx="5.54" transform="translate(-22.39 19.21) rotate(-10.76)"/><path class="cls-25" d="M114,69.29,46.36,82.15a5.38,5.38,0,0,0-4.26,6.27l.51,2.72a5.37,5.37,0,0,1,4.27-6.26L114.56,72a5.37,5.37,0,0,1,6.26,4.26l-.51-2.72A5.38,5.38,0,0,0,114,69.29Z"/><path class="cls-26" d="M133.73,172.89,66,185.75a5.37,5.37,0,0,1-6.26-4.26l.52,2.71a5.37,5.37,0,0,0,6.26,4.27l67.68-12.86a5.38,5.38,0,0,0,4.27-6.27l-.52-2.71A5.37,5.37,0,0,1,133.73,172.89Z"/><path class="cls-27" d="M132.93,171.21a2.54,2.54,0,0,0,1.87-3.06L117.29,76a2.56,2.56,0,0,0-2.86-2.16L47.84,86.48A2.55,2.55,0,0,0,46,89.54L58,152.7a7.81,7.81,0,0,0,2.52,4.14l27.68,21a6.39,6.39,0,0,0,4.39,1.08Z"/><path class="cls-28" d="M130.64,169.84a2.55,2.55,0,0,0,1.86-3.06l-17-89.55a2.56,2.56,0,0,0-2.86-2.17L48.78,87.19a2.55,2.55,0,0,0-1.86,3.06l11.75,61.86a7.86,7.86,0,0,0,2.52,4.14l26.26,19.89a6.41,6.41,0,0,0,4.38,1.07Z"/><path class="cls-29" d="M86.89,171,84.41,157.9A4.84,4.84,0,0,0,79,153.78l-12.28,2.33Z"/><path class="cls-30" d="M84.75,154.67,89.92,176h0l-3-24.86a2.56,2.56,0,0,0-2.86-2.17L62.57,153h0l19.33-.52A2.56,2.56,0,0,1,84.75,154.67Z"/><path class="cls-31" d="M115,74.61l-68.57,13S74.14,89.15,115,74.61Z"/><path class="cls-27" d="M109.94,159.78a1.34,1.34,0,0,1,1-1.62l12.83-2.44a1.36,1.36,0,0,1,1.51,1.15h0a1.35,1.35,0,0,1-1,1.62l-12.82,2.44a1.35,1.35,0,0,1-1.52-1.15Z"/><path class="cls-27" d="M104.75,155.45a1.34,1.34,0,0,1,1-1.63l17-3.24a1.34,1.34,0,0,1,1.51,1.16h0a1.34,1.34,0,0,1-1,1.61l-17,3.24a1.34,1.34,0,0,1-1.51-1.14Z"/><path class="cls-27" d="M99.54,151.11a1.35,1.35,0,0,1,1-1.62l21.27-4a1.35,1.35,0,0,1,1.52,1.14h0a1.36,1.36,0,0,1-1,1.63l-21.27,4a1.35,1.35,0,0,1-1.52-1.15Z"/><path class="cls-27" d="M68.57,131.83a1.35,1.35,0,0,1,1-1.62l47.63-9.05a1.34,1.34,0,0,1,1.51,1.15h0a1.35,1.35,0,0,1-1,1.62l-47.64,9a1.35,1.35,0,0,1-1.51-1.15Z"/><path class="cls-27" d="M82.24,137a1.35,1.35,0,0,1,1-1.63l35.38-6.72a1.34,1.34,0,0,1,1.51,1.15h0a1.35,1.35,0,0,1-1,1.62l-35.39,6.73A1.35,1.35,0,0,1,82.24,137Z"/><path class="cls-27" d="M59.35,122.45a1.35,1.35,0,0,1,1-1.62l54.81-10.42a1.35,1.35,0,0,1,1.51,1.15h0a1.35,1.35,0,0,1-1,1.63L60.87,123.6a1.35,1.35,0,0,1-1.52-1.15Z"/><path class="cls-27" d="M58,115.45a1.36,1.36,0,0,1,1-1.63l54.81-10.41a1.35,1.35,0,0,1,1.51,1.15h0a1.35,1.35,0,0,1-1,1.62L59.54,116.6A1.36,1.36,0,0,1,58,115.45Z"/><path class="cls-27" d="M56.6,108a1.35,1.35,0,0,1,1-1.62L112.4,95.93a1.36,1.36,0,0,1,1.51,1.15h0a1.36,1.36,0,0,1-1,1.63l-54.8,10.41A1.35,1.35,0,0,1,56.6,108Z"/><path class="cls-27" d="M55.27,101a1.35,1.35,0,0,1,1-1.63l54.81-10.41a1.35,1.35,0,0,1,1.51,1.15h0a1.35,1.35,0,0,1-1,1.62l-54.8,10.42A1.36,1.36,0,0,1,55.27,101Z"/><path class="cls-32" d="M102.75,75.91a4.82,4.82,0,0,0-5.61-3.82l-10.63,2-1.05-5.54h-.08a4.22,4.22,0,0,0-.07-.79c-.58-3.06-4.16-5-8-4.22s-6.48,3.8-5.9,6.86a3.93,3.93,0,0,0,.23.76l-.08,0,1,5.54L62,78.77a4.81,4.81,0,0,0-3.81,5.61L58.49,86a6.45,6.45,0,0,0,.16.63,2.15,2.15,0,0,0,0,.43L59,88.87a1.92,1.92,0,0,0,2.24,1.52l2.83-.53,35.16-6.68,2.83-.54a1.92,1.92,0,0,0,1.52-2.24l-.34-1.77a1.55,1.55,0,0,0-.12-.42,4.86,4.86,0,0,0-.08-.64Z"/><path class="cls-33" d="M102.62,75.25A4.8,4.8,0,0,0,97,71.43l-10.63,2-1-5.55-.07,0a5.42,5.42,0,0,0-.08-.8c-.58-3.06-4.16-5-8-4.22s-6.47,3.8-5.89,6.86a4.87,4.87,0,0,0,.22.77h-.07l1,5.55-10.63,2A4.81,4.81,0,0,0,58,83.72l.32,1.65a4.16,4.16,0,0,0,.17.63,1.56,1.56,0,0,0,0,.43l.34,1.77a1.91,1.91,0,0,0,2.24,1.53L64,89.19l35.15-6.67L102,82a1.92,1.92,0,0,0,1.52-2.25L103.14,78a2,2,0,0,0-.13-.41,5,5,0,0,0-.07-.65Z"/><path class="cls-34" d="M82.42,66.57a.41.41,0,0,1-.33.48l-8,1.53a.4.4,0,0,1-.48-.33h0a.41.41,0,0,1,.33-.47l8-1.53a.41.41,0,0,1,.48.32Z"/><path class="cls-35" d="M82.74,68.26a.4.4,0,0,1-.33.48l-8,1.53a.4.4,0,0,1-.48-.33h0a.42.42,0,0,1,.33-.48l8.05-1.53a.42.42,0,0,1,.48.33Z"/><path class="cls-36" d="M83.06,70a.4.4,0,0,1-.33.48l-8,1.53a.42.42,0,0,1-.48-.32h0a.41.41,0,0,1,.33-.48l8-1.53a.41.41,0,0,1,.48.32Z"/><path class="cls-37" d="M83.38,71.65a.39.39,0,0,1-.32.47L75,73.65a.42.42,0,0,1-.48-.32h0a.41.41,0,0,1,.33-.48l8.05-1.53a.4.4,0,0,1,.48.33Z"/><path class="cls-38" d="M117.38,146.78,170.13,155a3.19,3.19,0,0,0,3.64-2.66l.51-3.23,6.31-40.43.51-3.24,1.45-9.28a3.19,3.19,0,0,0-2.66-3.64l-6.61-1,.53-3.39a2.86,2.86,0,1,0-5.65-.89l-.53,3.39L139.4,86.21l.53-3.39a2.86,2.86,0,0,0-5.65-.88l-.53,3.39-6.61-1A3.19,3.19,0,0,0,123.5,87l-1.45,9.27-.51,3.24-6.32,40.43-.5,3.24A3.19,3.19,0,0,0,117.38,146.78Z"/><path class="cls-39" d="M115.49,101h59.77a0,0,0,0,1,0,0v44.2a3.19,3.19,0,0,1-3.19,3.19H118.68a3.19,3.19,0,0,1-3.19-3.19V101A0,0,0,0,1,115.49,101Z" transform="translate(20.99 -20.95) rotate(8.88)"/><path class="cls-40" d="M116,97.77h59.77a0,0,0,0,1,0,0V142a3.19,3.19,0,0,1-3.19,3.19H119.18A3.19,3.19,0,0,1,116,142V97.77a0,0,0,0,1,0,0Z" transform="translate(20.5 -21.06) rotate(8.88)"/><path class="cls-41" d="M123.81,85.55H177.2a3.19,3.19,0,0,1,3.19,3.19v9.39a0,0,0,0,1,0,0H120.62a0,0,0,0,1,0,0V88.74a3.19,3.19,0,0,1,3.19-3.19Z" transform="translate(15.98 -22.13) rotate(8.88)"/><rect class="cls-42" x="124.37" y="99.27" width="6.66" height="6.66" transform="matrix(0.99, 0.15, -0.15, 0.99, 17.37, -18.49)"/><rect class="cls-42" x="134.73" y="100.88" width="6.66" height="6.66" transform="translate(17.74 -20.07) rotate(8.88)"/><rect class="cls-42" x="150.86" y="133.53" width="6.66" height="6.66" transform="translate(22.98 -22.16) rotate(8.88)"/><rect class="cls-42" x="161.22" y="135.15" width="6.66" height="6.66" transform="translate(23.35 -23.74) rotate(8.88)"/><rect class="cls-42" x="122.83" y="109.15" width="6.66" height="6.66" transform="translate(18.88 -18.13) rotate(8.88)"/><rect class="cls-42" x="133.19" y="110.77" width="6.66" height="6.66" transform="matrix(0.99, 0.15, -0.15, 0.99, 19.25, -19.71)"/><rect class="cls-42" x="143.55" y="112.38" width="6.66" height="6.66" transform="translate(19.63 -21.29) rotate(8.88)"/><rect class="cls-43" x="153.91" y="114" width="6.66" height="6.66" transform="translate(20 -22.87) rotate(8.88)"/><rect class="cls-43" x="164.27" y="115.62" width="6.66" height="6.66" transform="translate(20.37 -24.45) rotate(8.88)"/><rect class="cls-42" x="121.29" y="119.03" width="6.66" height="6.66" transform="matrix(0.99, 0.15, -0.15, 0.99, 20.38, -17.77)"/><rect class="cls-41" x="131.65" y="120.65" width="6.66" height="6.66" transform="matrix(0.99, 0.15, -0.15, 0.99, 20.76, -19.35)"/><rect class="cls-42" x="142.01" y="122.27" width="6.66" height="6.66" transform="matrix(0.99, 0.15, -0.15, 0.99, 21.13, -20.93)"/><rect class="cls-43" x="152.37" y="123.88" width="6.66" height="6.66" transform="translate(21.51 -22.51) rotate(8.88)"/><rect class="cls-43" x="162.73" y="125.5" width="6.66" height="6.66" transform="matrix(0.99, 0.15, -0.15, 0.99, 21.88, -24.09)"/><path class="cls-40" d="M132.24,79.14l-1.06,6.79a2.86,2.86,0,0,0,2.39,3.26l1.94-12.43A2.87,2.87,0,0,0,132.24,79.14Z"/><path class="cls-44" d="M135.51,76.76l-1.94,12.43a2.85,2.85,0,0,0,3.26-2.38L137.89,80A2.87,2.87,0,0,0,135.51,76.76Z"/><path class="cls-40" d="M166.12,84.44l-1.06,6.78a2.87,2.87,0,0,0,2.38,3.27l1.95-12.43A2.86,2.86,0,0,0,166.12,84.44Z"/><path class="cls-44" d="M169.39,82.06l-1.95,12.43a2.87,2.87,0,0,0,3.27-2.39l1.06-6.78A2.85,2.85,0,0,0,169.39,82.06Z"/><path class="cls-45" d="M139.75,191.72c0,3.4-21.1,6.16-47.13,6.16s-47.13-2.76-47.13-6.16,21.1-6.17,47.13-6.17S139.75,188.31,139.75,191.72Z"/><path class="cls-46" d="M188.31,202.08c0,2-10.35,3.69-23.11,3.69s-23.12-1.65-23.12-3.69,10.35-3.68,23.12-3.68S188.31,200.05,188.31,202.08Z"/><path class="cls-47" d="M82.32,202.08c0,2,10.35,3.69,23.12,3.69s23.11-1.65,23.11-3.69-10.35-3.68-23.11-3.68S82.32,200.05,82.32,202.08Z"/><path class="cls-48" d="M126,155.72l4.9,1,.37-8.38h0a8.55,8.55,0,0,0-16.58-3.46h0l-3.21,7.79,5.1,1.06a8.52,8.52,0,0,0,9.44,2Z"/><path class="cls-49" d="M131,155.38h0a9.93,9.93,0,0,0-19.15-4.16h0L99.2,179.56l32.21,6.71Z"/><path class="cls-48" d="M123,186.38l8.23,1.72.3-12.89,0-1.9A13.5,13.5,0,0,0,120.46,159,14.38,14.38,0,0,0,104,168.22h0l-5.38,13.07,8.56,1.79a14.33,14.33,0,0,0,15.84,3.3Z"/><path class="cls-50" d="M124.47,139.43a8.54,8.54,0,0,0-3.06-.08l-4.75,14.5L110.38,173l7.83,1.64L122,156.34l3.47-16.63A8.51,8.51,0,0,0,124.47,139.43Z"/><path class="cls-51" d="M130.07,188.72A15.64,15.64,0,1,1,118,170.22,15.65,15.65,0,0,1,130.07,188.72Z"/><path class="cls-52" d="M128.8,185.35a13.72,13.72,0,1,1-10.72-15.78A13.5,13.5,0,0,1,128.8,185.35Z"/><path class="cls-53" d="M111.32,202a16.84,16.84,0,1,1,19.92-13A16.84,16.84,0,0,1,111.32,202Zm6.39-30.62a14.44,14.44,0,1,0,11.18,17.08A14.47,14.47,0,0,0,117.71,171.39Z"/><path class="cls-40" d="M125.06,186a5.09,5.09,0,1,1-4-6A5.09,5.09,0,0,1,125.06,186Z"/><path class="cls-48" d="M144.16,155.72l-4.9,1-.37-8.38h0a8.55,8.55,0,0,1,16.58-3.46h0l3.21,7.79-5.1,1.06a8.52,8.52,0,0,1-9.44,2Z"/><path class="cls-49" d="M139.13,155.38h0a9.93,9.93,0,0,1,19.14-4.16h0L171,179.56l-32.21,6.71Z"/><path class="cls-48" d="M147.14,186.38l-8.23,1.72-.3-12.89-.06-1.9A13.51,13.51,0,0,1,149.7,159a14.38,14.38,0,0,1,16.44,9.19h0l5.38,13.07L163,183.08a14.33,14.33,0,0,1-15.84,3.3Z"/><path class="cls-50" d="M145.69,139.43a8.54,8.54,0,0,1,3.06-.08l4.75,14.5L159.78,173l-7.84,1.64-3.8-18.27-3.47-16.63A8.51,8.51,0,0,1,145.69,139.43Z"/><path class="cls-51" d="M140.09,188.72a15.64,15.64,0,1,0,12.12-18.5A15.65,15.65,0,0,0,140.09,188.72Z"/><path class="cls-52" d="M141.36,185.35a13.72,13.72,0,1,0,10.71-15.78A13.49,13.49,0,0,0,141.36,185.35Z"/><path class="cls-53" d="M138.92,189a16.83,16.83,0,1,1,19.91,13A16.86,16.86,0,0,1,138.92,189Zm2.34-.49a14.44,14.44,0,1,0,11.19-17.08A14.46,14.46,0,0,0,141.26,188.47Z"/><path class="cls-40" d="M145.1,186a5.09,5.09,0,1,0,4-6A5.09,5.09,0,0,0,145.1,186Z"/><path class="cls-48" d="M129.76,173.78s4.73-6.11,10.83,0v-9.89s-4.7-5.63-10.59.26Z"/><path class="cls-48" d="M130.07,160.34s4.46-5.92,10.22,0l-.63-9.89s-4.13-5.16-8.86.26Z"/></g></g></svg>