<svg xmlns="http://www.w3.org/2000/svg" xmlns:xlink="http://www.w3.org/1999/xlink" viewBox="0 0 218.32 236.79"><defs><style>.cls-1{mask:url(#mask);filter:url(#luminosity-noclip-5);}.cls-12,.cls-14,.cls-18,.cls-2,.cls-20,.cls-4,.cls-45,.cls-6,.cls-8{mix-blend-mode:multiply;}.cls-2{fill:url(#radial-gradient);}.cls-3{mask:url(#mask-2);filter:url(#luminosity-noclip-6);}.cls-4{fill:url(#radial-gradient-2);}.cls-5{mask:url(#mask-3);filter:url(#luminosity-noclip-7);}.cls-6{fill:url(#radial-gradient-3);}.cls-7{mask:url(#mask-4);filter:url(#luminosity-noclip-8);}.cls-8{fill:url(#radial-gradient-4);}.cls-9{fill:none;}.cls-10{isolation:isolate;}.cls-11{mask:url(#mask-5);}.cls-12{fill:url(#Degradado_sin_nombre_153);}.cls-13{mask:url(#mask-6);}.cls-14{fill:url(#Degradado_sin_nombre_151);}.cls-15{fill:#e4ecec;}.cls-16{clip-path:url(#clip-path);}.cls-17{mask:url(#mask-7);}.cls-18{fill:url(#Degradado_sin_nombre_153-2);}.cls-19{mask:url(#mask-8);}.cls-20{fill:url(#Degradado_sin_nombre_151-2);}.cls-21{fill:#93d500;}.cls-22{fill:#fefefe;}.cls-23{fill:url(#linear-gradient);}.cls-24{fill:url(#linear-gradient-2);}.cls-25{fill:url(#linear-gradient-3);}.cls-26{fill:url(#linear-gradient-4);}.cls-27{fill:#b8b4bc;}.cls-28{fill:url(#linear-gradient-5);}.cls-29{fill:url(#linear-gradient-6);}.cls-30{fill:url(#radial-gradient-5);}.cls-31{fill:url(#linear-gradient-7);}.cls-32{fill:url(#linear-gradient-8);}.cls-33{fill:url(#linear-gradient-9);}.cls-34{fill:url(#linear-gradient-10);}.cls-35{fill:url(#linear-gradient-11);}.cls-36{fill:url(#linear-gradient-12);}.cls-37{fill:url(#linear-gradient-13);}.cls-38{opacity:0.2;}.cls-39{fill:#dbdbdb;}.cls-40{fill:#fff;}.cls-41{fill:#911728;}.cls-42{fill:#bbbbbf;}.cls-43{fill:#7398c4;}.cls-44{fill:#e6e6e7;}.cls-45{fill:url(#radial-gradient-6);}.cls-46{filter:url(#luminosity-noclip-4);}.cls-47{filter:url(#luminosity-noclip-3);}.cls-48{filter:url(#luminosity-noclip-2);}.cls-49{filter:url(#luminosity-noclip);}</style><filter id="luminosity-noclip" x="102.74" y="-8576" width="114.57" height="32766" filterUnits="userSpaceOnUse" color-interpolation-filters="sRGB"><feFlood flood-color="#fff" result="bg"/><feBlend in="SourceGraphic" in2="bg"/></filter><mask id="mask" x="102.74" y="-8576" width="114.57" height="32766" maskUnits="userSpaceOnUse"><g class="cls-49"/></mask><radialGradient id="radial-gradient" cx="-247.1" cy="266.25" r="39.98" gradientTransform="matrix(1, 0.3, -1.03, 0.13, 680.35, 265.47)" gradientUnits="userSpaceOnUse"><stop offset="0.5" stop-color="#a6a6a6"/><stop offset="0.6" stop-color="#a3a3a3"/><stop offset="0.67" stop-color="#999"/><stop offset="0.75" stop-color="#888"/><stop offset="0.81" stop-color="#707070"/><stop offset="0.88" stop-color="#515151"/><stop offset="0.94" stop-color="#2c2c2c"/><stop offset="1"/></radialGradient><filter id="luminosity-noclip-2" x="0.47" y="-8576" width="114.57" height="32766" filterUnits="userSpaceOnUse" color-interpolation-filters="sRGB"><feFlood flood-color="#fff" result="bg"/><feBlend in="SourceGraphic" in2="bg"/></filter><mask id="mask-2" x="0.47" y="-8576" width="114.57" height="32766" maskUnits="userSpaceOnUse"><g class="cls-48"/></mask><radialGradient id="radial-gradient-2" cx="74.46" cy="-486.27" r="39.98" gradientTransform="matrix(-1, 0.3, 1.03, 0.13, 632.97, 265.47)" xlink:href="#radial-gradient"/><filter id="luminosity-noclip-3" x="107.7" y="-8576" width="92.69" height="32766" filterUnits="userSpaceOnUse" color-interpolation-filters="sRGB"><feFlood flood-color="#fff" result="bg"/><feBlend in="SourceGraphic" in2="bg"/></filter><mask id="mask-3" x="107.7" y="-8576" width="92.69" height="32766" maskUnits="userSpaceOnUse"><g class="cls-47"/></mask><radialGradient id="radial-gradient-3" cx="-366.79" cy="-914.57" r="33.28" gradientTransform="matrix(0.97, 0.3, -1, 0.13, -407.06, 265.47)" xlink:href="#radial-gradient"/><filter id="luminosity-noclip-4" x="25.68" y="-8576" width="92.69" height="32766" filterUnits="userSpaceOnUse" color-interpolation-filters="sRGB"><feFlood flood-color="#fff" result="bg"/><feBlend in="SourceGraphic" in2="bg"/></filter><mask id="mask-4" x="25.68" y="-8576" width="92.69" height="32766" maskUnits="userSpaceOnUse"><g class="cls-46"/></mask><radialGradient id="radial-gradient-4" cx="-694.88" cy="-146.78" r="33.28" gradientTransform="matrix(-0.97, 0.3, 1, 0.13, -453.11, 265.47)" xlink:href="#radial-gradient"/><filter id="luminosity-noclip-5" x="102.74" y="212.73" width="114.57" height="25.94" filterUnits="userSpaceOnUse" color-interpolation-filters="sRGB"><feFlood flood-color="#fff" result="bg"/><feBlend in="SourceGraphic" in2="bg"/></filter><mask id="mask-5" x="102.74" y="212.73" width="114.57" height="25.94" maskUnits="userSpaceOnUse"><g class="cls-1"><path class="cls-2" d="M217.29,230.53c-.53,6.64-26.62,9.87-58.26,7.21s-56.83-10.22-56.28-16.87S129.4,211,161,213.66,217.85,223.88,217.29,230.53Z"/></g></mask><radialGradient id="Degradado_sin_nombre_153" cx="-247.1" cy="266.25" r="39.98" gradientTransform="matrix(1, 0.3, -1.03, 0.13, 680.35, 265.47)" gradientUnits="userSpaceOnUse"><stop offset="0" stop-color="#3c3c3b"/><stop offset="1" stop-color="#fff" stop-opacity="0"/></radialGradient><filter id="luminosity-noclip-6" x="0.47" y="212.73" width="114.57" height="25.94" filterUnits="userSpaceOnUse" color-interpolation-filters="sRGB"><feFlood flood-color="#fff" result="bg"/><feBlend in="SourceGraphic" in2="bg"/></filter><mask id="mask-6" x="0.47" y="212.73" width="114.57" height="25.94" maskUnits="userSpaceOnUse"><g class="cls-3"><path class="cls-4" d="M.48,230.53c.53,6.64,26.63,9.87,58.26,7.21s56.83-10.22,56.29-16.87S88.37,211,56.76,213.66-.07,223.88.48,230.53Z"/></g></mask><radialGradient id="Degradado_sin_nombre_151" cx="74.46" cy="-486.27" r="39.98" gradientTransform="matrix(-1, 0.3, 1.03, 0.13, 632.97, 265.47)" gradientUnits="userSpaceOnUse"><stop offset="0" stop-color="#3c3c3b"/><stop offset="0" stop-color="#3d3d3c"/><stop offset="1" stop-color="#fff" stop-opacity="0"/></radialGradient><clipPath id="clip-path"><rect class="cls-9" x="30.99" y="41.17" width="163.4" height="10.43"/></clipPath><filter id="luminosity-noclip-7" x="107.7" y="28.68" width="92.69" height="21.6" filterUnits="userSpaceOnUse" color-interpolation-filters="sRGB"><feFlood flood-color="#fff" result="bg"/><feBlend in="SourceGraphic" in2="bg"/></filter><mask id="mask-7" x="107.7" y="28.68" width="92.69" height="21.6" maskUnits="userSpaceOnUse"><g class="cls-5"><path class="cls-6" d="M200.38,43.5c-.44,5.53-21.55,8.22-47.14,6s-46-8.5-45.53-14,21.56-8.22,47.13-6S200.82,38,200.38,43.5Z"/></g></mask><radialGradient id="Degradado_sin_nombre_153-2" cx="-366.79" cy="-914.57" r="33.28" gradientTransform="matrix(0.97, 0.3, -1, 0.13, -407.06, 265.47)" xlink:href="#Degradado_sin_nombre_153"/><filter id="luminosity-noclip-8" x="25.68" y="28.68" width="92.69" height="21.6" filterUnits="userSpaceOnUse" color-interpolation-filters="sRGB"><feFlood flood-color="#fff" result="bg"/><feBlend in="SourceGraphic" in2="bg"/></filter><mask id="mask-8" x="25.68" y="28.68" width="92.69" height="21.6" maskUnits="userSpaceOnUse"><g class="cls-7"><path class="cls-8" d="M25.69,43.5c.43,5.53,21.54,8.22,47.13,6s46-8.5,45.54-14-21.57-8.22-47.14-6S25.24,38,25.69,43.5Z"/></g></mask><radialGradient id="Degradado_sin_nombre_151-2" cx="-694.88" cy="-146.78" r="33.28" gradientTransform="matrix(-0.97, 0.3, 1, 0.13, -453.11, 265.47)" xlink:href="#Degradado_sin_nombre_151"/><linearGradient id="linear-gradient" x1="-3647.71" y1="-814.89" x2="-3647.71" y2="-1109.99" gradientTransform="translate(1464.36 490.86) scale(0.38)" gradientUnits="userSpaceOnUse"><stop offset="0.01" stop-color="#a18169"/><stop offset="1" stop-color="#7f674f"/></linearGradient><linearGradient id="linear-gradient-2" x1="-3647.24" y1="-814.89" x2="-3647.24" y2="-1109.99" gradientTransform="translate(1464.73 490.76) scale(0.38)" gradientUnits="userSpaceOnUse"><stop offset="0" stop-color="#7f674f"/><stop offset="1" stop-color="#a18169"/></linearGradient><linearGradient id="linear-gradient-3" x1="-3716.47" y1="-828.54" x2="-3716.47" y2="-1123.66" gradientTransform="matrix(0.36, -0.07, 0.07, 0.36, 1487.54, 225.82)" gradientUnits="userSpaceOnUse"><stop offset="0.01" stop-color="#c39c7c"/><stop offset="1" stop-color="#caa27e"/></linearGradient><linearGradient id="linear-gradient-4" x1="-3716.47" y1="-828.07" x2="-3716.47" y2="-1123.16" gradientTransform="matrix(0.36, -0.07, 0.07, 0.36, 1487.61, 226.19)" gradientUnits="userSpaceOnUse"><stop offset="0.01" stop-color="#a18169"/><stop offset="1" stop-color="#bc987b"/></linearGradient><linearGradient id="linear-gradient-5" x1="1864.46" y1="-29.09" x2="1864.46" y2="75.14" gradientTransform="matrix(-0.82, 0.16, -0.17, -0.91, 1626.56, -140.82)" gradientUnits="userSpaceOnUse"><stop offset="0" stop-color="#fff"/><stop offset="0.47" stop-color="#fdfdfd"/><stop offset="0.69" stop-color="#f5f6f6"/><stop offset="0.86" stop-color="#e9e9ea"/><stop offset="1" stop-color="#d6d7d8"/><stop offset="1" stop-color="#d6d7d8"/></linearGradient><linearGradient id="linear-gradient-6" x1="-180.13" y1="506.62" x2="-170.98" y2="497.47" gradientTransform="matrix(0.82, -0.16, 0.17, 0.91, 137.41, -324.89)" gradientUnits="userSpaceOnUse"><stop offset="0" stop-color="#fff"/><stop offset="0.32" stop-color="#f2f3f3"/><stop offset="0.91" stop-color="#d0d3d4"/><stop offset="1" stop-color="#cacdce"/></linearGradient><radialGradient id="radial-gradient-5" cx="1590.82" cy="-21.84" r="11.96" gradientTransform="matrix(-1.15, 0.22, -0.24, -1.27, 1900.67, -209.08)" gradientUnits="userSpaceOnUse"><stop offset="0" stop-color="#fff"/><stop offset="0.48" stop-color="#fdfdfd"/><stop offset="0.65" stop-color="#f6f7f7"/><stop offset="0.77" stop-color="#ebebec"/><stop offset="0.87" stop-color="#dadbdc"/><stop offset="0.96" stop-color="#c4c6c8"/><stop offset="1" stop-color="#b5b8ba"/></radialGradient><linearGradient id="linear-gradient-7" x1="1843.8" y1="96.34" x2="1888.17" y2="51.97" gradientTransform="matrix(-0.82, 0.16, -0.17, -0.91, 1626.56, -140.82)" gradientUnits="userSpaceOnUse"><stop offset="0" stop-color="#cacdce"/><stop offset="0.47" stop-color="#fff"/><stop offset="0.64" stop-color="#f2f3f3"/><stop offset="0.95" stop-color="#d0d3d4"/><stop offset="1" stop-color="#cacdce"/></linearGradient><linearGradient id="linear-gradient-8" x1="-3163.09" y1="-1692.76" x2="-3163.09" y2="-1588.89" gradientTransform="matrix(0.23, -0.04, 0.04, 0.23, 865.53, 309.87)" gradientUnits="userSpaceOnUse"><stop offset="0" stop-color="#cacbcd"/><stop offset="0.28" stop-color="#989b9e"/><stop offset="0.55" stop-color="#ececed"/><stop offset="0.82" stop-color="#989b9e"/><stop offset="1" stop-color="#7d7e80"/></linearGradient><linearGradient id="linear-gradient-9" x1="-3163.09" y1="-1693.7" x2="-3163.09" y2="-1589.84" gradientTransform="matrix(0.23, -0.04, 0.04, 0.23, 865.44, 309.42)" gradientUnits="userSpaceOnUse"><stop offset="0" stop-color="#e3e3e4"/><stop offset="0.28" stop-color="#989b9e"/><stop offset="0.55" stop-color="#f6f6f6"/><stop offset="0.82" stop-color="#b3b6b8"/><stop offset="1" stop-color="#edeeee"/></linearGradient><linearGradient id="linear-gradient-10" x1="-4642.73" y1="-1973.91" x2="-4642.73" y2="-1963.12" gradientTransform="matrix(0.16, -0.03, 0.03, 0.16, 902.63, 246.81)" gradientUnits="userSpaceOnUse"><stop offset="0" stop-color="#cacbcd"/><stop offset="0.28" stop-color="#989b9e"/><stop offset="0.55" stop-color="#ececed"/><stop offset="0.82" stop-color="#989b9e"/><stop offset="1" stop-color="#dadbdc"/></linearGradient><linearGradient id="linear-gradient-11" x1="-4642.73" y1="-1970.62" x2="-4642.73" y2="-1959.84" gradientTransform="matrix(0.16, -0.03, 0.03, 0.16, 902.85, 247.96)" xlink:href="#linear-gradient-10"/><linearGradient id="linear-gradient-12" x1="-4642.73" y1="-1967.33" x2="-4642.73" y2="-1956.56" gradientTransform="matrix(0.16, -0.03, 0.03, 0.16, 903.07, 249.11)" xlink:href="#linear-gradient-10"/><linearGradient id="linear-gradient-13" x1="-4642.73" y1="-1964.04" x2="-4642.73" y2="-1953.26" gradientTransform="matrix(0.16, -0.03, 0.03, 0.16, 903.29, 250.26)" xlink:href="#linear-gradient-10"/><radialGradient id="radial-gradient-6" cx="519.34" cy="-3895.41" fx="483.73542067287417" fy="-3903.8095718327786" r="57.83" gradientTransform="translate(-331.06 608.66) scale(0.81 0.11)" gradientUnits="userSpaceOnUse"><stop offset="0" stop-color="#666"/><stop offset="0.25" stop-color="#828282" stop-opacity="0.79"/><stop offset="0.78" stop-color="#ccc" stop-opacity="0.25"/><stop offset="1" stop-color="#ededed" stop-opacity="0"/></radialGradient></defs><g class="cls-10"><g id="Capa_1" data-name="Capa 1"><g class="cls-11"><path class="cls-12" d="M217.29,230.53c-.53,6.64-26.62,9.87-58.26,7.21s-56.83-10.22-56.28-16.87S129.4,211,161,213.66,217.85,223.88,217.29,230.53Z"/></g><g class="cls-13"><path class="cls-14" d="M.48,230.53c.53,6.64,26.63,9.87,58.26,7.21s56.83-10.22,56.29-16.87S88.37,211,56.76,213.66-.07,223.88.48,230.53Z"/></g><rect class="cls-15" x="1.74" y="12.79" width="214.28" height="216.19" rx="21.6"/><g class="cls-16"><g class="cls-17"><path class="cls-18" d="M200.38,43.5c-.44,5.53-21.55,8.22-47.14,6s-46-8.5-45.53-14,21.56-8.22,47.13-6S200.82,38,200.38,43.5Z"/></g><g class="cls-19"><path class="cls-20" d="M25.69,43.5c.43,5.53,21.54,8.22,47.13,6s46-8.5,45.54-14-21.57-8.22-47.14-6S25.24,38,25.69,43.5Z"/></g></g><rect class="cls-21" x="17.64" y="1.93" width="185.91" height="39.06" rx="18.64"/><path class="cls-22" d="M38.92,12a1.13,1.13,0,0,1,1.23-1.25H43c2.47,0,4,1.11,4,3.62,0,1.76-1.33,2.77-3,3l2.73,2.92A1.05,1.05,0,0,1,47,21a1.22,1.22,0,0,1-2.13.82l-3.56-4.31h0V21a1.2,1.2,0,1,1-2.4,0Zm2.4,3.79H43a1.42,1.42,0,1,0,0-2.83H41.32Z"/><path class="cls-22" d="M55.68,17.88a4.14,4.14,0,1,1-8.26,0,4.14,4.14,0,1,1,8.26,0Zm-6,0c0,1.1.58,2.32,1.83,2.32s1.82-1.22,1.82-2.32-.56-2.36-1.82-2.36S49.72,16.77,49.72,17.88Z"/><path class="cls-22" d="M56.62,11.07a1.16,1.16,0,1,1,2.3,0v9.86a1.16,1.16,0,1,1-2.3,0Z"/><path class="cls-22" d="M72.36,20.93a1.16,1.16,0,0,1-1.15,1.28,1.1,1.1,0,0,1-1.15-1A2.5,2.5,0,0,1,68,22.31c-2.32,0-3.8-2.16-3.8-4.34s1.24-4.56,3.72-4.56a3.32,3.32,0,0,1,2.19.8V11.07a1.16,1.16,0,1,1,2.3,0Zm-4.11-5.41c-1.2,0-1.79,1.27-1.79,2.36s.59,2.32,1.79,2.32,1.81-1.28,1.81-2.4S69.48,15.52,68.25,15.52Z"/><path class="cls-22" d="M75.53,18.63a2,2,0,0,0,2.18,1.66c1.18,0,2-.92,2.61-.92a1,1,0,0,1,.94,1c0,1-2.05,1.95-3.76,1.95a4.19,4.19,0,0,1-4.32-4.43,4.14,4.14,0,1,1,8.27-.28c0,.69-.3,1-1,1Zm3.62-1.54a1.83,1.83,0,0,0-1.84-1.76,1.86,1.86,0,0,0-1.83,1.76Z"/><path class="cls-22" d="M94.43,20.71c0,.59,0,1.5-1.11,1.5-.67,0-.94-.36-1.1-1A2.76,2.76,0,0,1,90,22.31c-2.17,0-3.81-1.84-3.81-4.43s1.69-4.47,3.81-4.47a2.64,2.64,0,0,1,2.19,1.06,1.09,1.09,0,0,1,1.1-1c1.11,0,1.11.91,1.11,1.5Zm-4.08-.51c1.2,0,1.77-1.22,1.77-2.32s-.56-2.36-1.77-2.36-1.83,1.25-1.83,2.36S89.1,20.2,90.35,20.2Z"/><path class="cls-22" d="M103.61,20.93a1.16,1.16,0,0,1-1.15,1.28,1.1,1.1,0,0,1-1.15-1,2.51,2.51,0,0,1-2.12,1.06c-2.32,0-3.79-2.16-3.79-4.34s1.23-4.56,3.71-4.56a3.35,3.35,0,0,1,2.2.8V11.07a1.16,1.16,0,1,1,2.3,0ZM99.5,15.52c-1.2,0-1.8,1.27-1.8,2.36s.6,2.32,1.8,2.32,1.81-1.28,1.81-2.4S100.73,15.52,99.5,15.52Z"/><path class="cls-22" d="M104.92,14.79a1.16,1.16,0,0,1,1.15-1.28,1,1,0,0,1,1.06.86,2.86,2.86,0,0,1,2.14-1,3,3,0,0,1,2.39,1.17,3.46,3.46,0,0,1,2.43-1.17,2.89,2.89,0,0,1,3.15,3.11v4.41a1.16,1.16,0,1,1-2.3,0v-4c0-.93-.51-1.59-1.34-1.59a1.41,1.41,0,0,0-1.37,1.59v4a1.16,1.16,0,1,1-2.3,0v-4c0-.93-.51-1.59-1.35-1.59s-1.36.66-1.36,1.59v4a1.16,1.16,0,1,1-2.3,0Z"/><path class="cls-22" d="M121,11.31a1.32,1.32,0,0,1-1.3,1.33,1.34,1.34,0,0,1-1.29-1.33,1.3,1.3,0,0,1,2.59,0Zm-2.45,3.48a1.16,1.16,0,1,1,2.3,0v6.14a1.16,1.16,0,1,1-2.3,0Z"/><path class="cls-22" d="M122.1,14.79a1.16,1.16,0,0,1,1.16-1.28,1,1,0,0,1,1,.84,2.51,2.51,0,0,1,2.23-.94,3,3,0,0,1,3.15,3.11v4.41a1.16,1.16,0,1,1-2.3,0v-4a1.49,1.49,0,1,0-3,0v4a1.16,1.16,0,1,1-2.31,0Z"/><path class="cls-22" d="M133.42,11.31a1.32,1.32,0,0,1-1.3,1.33,1.35,1.35,0,0,1-1.3-1.33,1.33,1.33,0,0,1,1.3-1.26A1.32,1.32,0,0,1,133.42,11.31ZM131,14.79a1.16,1.16,0,1,1,2.3,0v6.14a1.16,1.16,0,1,1-2.3,0Z"/><path class="cls-22" d="M139.4,16.1c-.43,0-1.31-.67-2.06-.67-.42,0-.79.19-.79.64,0,1.07,4,.91,4,3.53,0,1.54-1.29,2.71-3.28,2.71-1.29,0-3.22-.74-3.22-1.78a1.09,1.09,0,0,1,1-1c.89,0,1.29.78,2.38.78.71,0,.91-.22.91-.65,0-1.06-4-.9-4-3.54,0-1.6,1.3-2.69,3.12-2.69,1.14,0,2.88.53,2.88,1.67A1,1,0,0,1,139.4,16.1Z"/><path class="cls-22" d="M141.93,15.62h-.52a.93.93,0,0,1-1-1,1,1,0,0,1,1-1h.52V12.23a1.16,1.16,0,1,1,2.3,0V13.6h.66a1,1,0,1,1,0,2h-.66v5.31a1.16,1.16,0,1,1-2.3,0Z"/><path class="cls-22" d="M146.07,14.66a1.13,1.13,0,0,1,1.18-1.15c.61,0,1.12.22,1.12,1h0a1.81,1.81,0,0,1,1.61-1,1.12,1.12,0,0,1,1.12,1.23c0,.75-.68.8-1.37,1.12s-1.4.62-1.4,1.54v3.53a1.16,1.16,0,1,1-2.3,0Z"/><path class="cls-22" d="M159.31,20.71c0,.59,0,1.5-1.11,1.5-.67,0-.94-.36-1.1-1a2.79,2.79,0,0,1-2.2,1.07c-2.16,0-3.81-1.84-3.81-4.43s1.7-4.47,3.81-4.47a2.66,2.66,0,0,1,2.2,1.06,1.09,1.09,0,0,1,1.1-1c1.11,0,1.11.91,1.11,1.5Zm-4.09-.51c1.2,0,1.78-1.22,1.78-2.32s-.56-2.36-1.78-2.36-1.82,1.25-1.82,2.36S154,20.2,155.22,20.2Z"/><path class="cls-22" d="M168.49,20.93a1.16,1.16,0,0,1-1.15,1.28,1.11,1.11,0,0,1-1.16-1,2.48,2.48,0,0,1-2.11,1.06c-2.32,0-3.79-2.16-3.79-4.34s1.23-4.56,3.71-4.56a3.31,3.31,0,0,1,2.19.8V11.07a1.16,1.16,0,1,1,2.31,0Zm-4.11-5.41c-1.2,0-1.8,1.27-1.8,2.36s.6,2.32,1.8,2.32,1.8-1.28,1.8-2.4S165.61,15.52,164.38,15.52Z"/><path class="cls-22" d="M177.72,17.88a4.14,4.14,0,1,1-8.26,0,4.14,4.14,0,1,1,8.26,0Zm-5.95,0c0,1.1.57,2.32,1.82,2.32s1.83-1.22,1.83-2.32-.56-2.36-1.83-2.36S171.77,16.77,171.77,17.88Z"/><path class="cls-22" d="M178.66,14.66a1.13,1.13,0,0,1,1.19-1.15c.6,0,1.12.22,1.12,1h0a1.82,1.82,0,0,1,1.62-1,1.12,1.12,0,0,1,1.12,1.23c0,.75-.69.8-1.38,1.12S181,16.48,181,17.4v3.53a1.16,1.16,0,1,1-2.31,0Z"/><path class="cls-22" d="M94.51,34.56a1.16,1.16,0,0,1-1.15,1.28,1.1,1.1,0,0,1-1.15-1,2.5,2.5,0,0,1-2.11,1.06c-2.32,0-3.8-2.16-3.8-4.34S87.54,27,90,27a3.32,3.32,0,0,1,2.19.8V24.7a1.16,1.16,0,1,1,2.3,0ZM90.4,29.15c-1.2,0-1.79,1.27-1.79,2.36s.59,2.32,1.79,2.32,1.81-1.28,1.81-2.4S91.63,29.15,90.4,29.15Z"/><path class="cls-22" d="M97.68,32.26a2,2,0,0,0,2.18,1.66c1.18,0,2-.93,2.61-.93a1,1,0,0,1,.94,1c0,1-2,1.95-3.76,1.95a4.2,4.2,0,0,1-4.32-4.43,4.14,4.14,0,1,1,8.27-.28c0,.69-.3,1-1,1Zm3.62-1.54A1.83,1.83,0,0,0,99.46,29a1.86,1.86,0,0,0-1.83,1.76Z"/><path class="cls-22" d="M113.82,24.16c1.17,0,3.45.38,3.45,1.79a1,1,0,0,1-1,1.07c-.65,0-1.1-.56-2.45-.56-2,0-3,1.68-3,3.64s1,3.53,3,3.53c1.35,0,1.89-.67,2.55-.67a1.13,1.13,0,0,1,1.06,1.09c0,1.54-2.42,1.89-3.61,1.89-3.24,0-5.5-2.58-5.5-5.89S110.56,24.16,113.82,24.16Z"/><path class="cls-22" d="M119.71,25.49a1.61,1.61,0,0,1,1.57-1.24,1.71,1.71,0,0,1,1.6,1.16l1.89,6.34h0l1.89-6.34a1.71,1.71,0,0,1,1.6-1.16,1.61,1.61,0,0,1,1.57,1.24l1.49,8.93a2.53,2.53,0,0,1,0,.27,1.1,1.1,0,0,1-1.15,1.15c-.81,0-1.13-.36-1.25-1.12L128,28.21h0l-1.92,6.71a1.23,1.23,0,0,1-1.28.92,1.21,1.21,0,0,1-1.28-.92l-1.93-6.71h0l-.94,6.51c-.11.76-.43,1.12-1.25,1.12a1.1,1.1,0,0,1-1.15-1.15,2.53,2.53,0,0,1,0-.27Z"/><path class="cls-22" d="M132.46,25.5a1.2,1.2,0,1,1,2.4,0v9.09a1.2,1.2,0,1,1-2.4,0Z"/><path class="cls-23" d="M54.66,73.44h71.21A5.54,5.54,0,0,1,131.41,79V179.18a5.54,5.54,0,0,1-5.54,5.54H54.66a5.53,5.53,0,0,1-5.53-5.53V79a5.54,5.54,0,0,1,5.54-5.54Z" transform="translate(-22.51 19.12) rotate(-10.76)"/><rect class="cls-24" x="49.67" y="73.34" width="82.29" height="111.28" rx="5.54" transform="translate(-22.48 19.22) rotate(-10.76)"/><path class="cls-25" d="M114.06,69.77,46.38,82.63a5.37,5.37,0,0,0-4.26,6.26l.51,2.72a5.37,5.37,0,0,1,4.27-6.26l67.68-12.86a5.37,5.37,0,0,1,6.26,4.26L120.33,74A5.38,5.38,0,0,0,114.06,69.77Z"/><path class="cls-26" d="M133.75,173.36,66.06,186.22A5.37,5.37,0,0,1,59.8,182l.52,2.72a5.37,5.37,0,0,0,6.26,4.26l67.68-12.86a5.37,5.37,0,0,0,4.27-6.26L138,167.1A5.37,5.37,0,0,1,133.75,173.36Z"/><path class="cls-27" d="M133,171.68a2.54,2.54,0,0,0,1.87-3.06L117.31,76.46a2.54,2.54,0,0,0-2.86-2.16L47.86,87A2.55,2.55,0,0,0,46,90l12,63.16a7.77,7.77,0,0,0,2.52,4.14l27.68,21a6.34,6.34,0,0,0,4.39,1.08Z"/><path class="cls-28" d="M130.66,170.31a2.55,2.55,0,0,0,1.86-3.06l-17-89.55a2.57,2.57,0,0,0-2.86-2.17L48.8,87.67a2.54,2.54,0,0,0-1.86,3.06l11.75,61.85a7.86,7.86,0,0,0,2.52,4.14l26.26,19.89a6.47,6.47,0,0,0,4.38,1.08Z"/><path class="cls-29" d="M86.91,171.43l-2.48-13.05A4.85,4.85,0,0,0,79,154.25L66.7,156.58Z"/><path class="cls-30" d="M84.77,155.15l5.17,21.29h0l-3-24.87a2.55,2.55,0,0,0-2.86-2.16l-21.5,4.08h0L81.92,153A2.54,2.54,0,0,1,84.77,155.15Z"/><path class="cls-31" d="M115,75.09l-68.57,13S74.16,89.63,115,75.09Z"/><path class="cls-27" d="M110,160.26a1.35,1.35,0,0,1,1-1.63l12.83-2.44a1.36,1.36,0,0,1,1.51,1.15h0a1.35,1.35,0,0,1-1,1.62l-12.82,2.44a1.35,1.35,0,0,1-1.52-1.14Z"/><path class="cls-27" d="M104.76,155.92a1.35,1.35,0,0,1,1-1.62l17-3.24a1.34,1.34,0,0,1,1.51,1.15h0a1.35,1.35,0,0,1-1,1.62l-17,3.24a1.35,1.35,0,0,1-1.52-1.15Z"/><path class="cls-27" d="M99.56,151.58a1.35,1.35,0,0,1,1-1.62l21.27-4a1.35,1.35,0,0,1,1.52,1.15h0a1.35,1.35,0,0,1-1,1.62l-21.27,4a1.35,1.35,0,0,1-1.52-1.15Z"/><path class="cls-27" d="M68.59,132.3a1.35,1.35,0,0,1,1-1.62l47.63-9.05a1.34,1.34,0,0,1,1.51,1.15h0a1.34,1.34,0,0,1-1,1.62l-47.64,9a1.35,1.35,0,0,1-1.51-1.15Z"/><path class="cls-27" d="M82.26,137.45a1.34,1.34,0,0,1,1-1.62l35.38-6.73a1.35,1.35,0,0,1,1.51,1.15h0a1.35,1.35,0,0,1-1,1.63L83.77,138.6a1.34,1.34,0,0,1-1.51-1.15Z"/><path class="cls-27" d="M59.37,122.92a1.35,1.35,0,0,1,1-1.62l54.81-10.41a1.35,1.35,0,0,1,1.51,1.15h0a1.34,1.34,0,0,1-1,1.62l-54.8,10.41a1.35,1.35,0,0,1-1.52-1.15Z"/><path class="cls-27" d="M58,115.92a1.35,1.35,0,0,1,1-1.62l54.81-10.42a1.35,1.35,0,0,1,1.51,1.15h0a1.35,1.35,0,0,1-1,1.62l-54.8,10.42A1.36,1.36,0,0,1,58,115.92Z"/><path class="cls-27" d="M56.62,108.45a1.36,1.36,0,0,1,1-1.63l54.81-10.41a1.35,1.35,0,0,1,1.51,1.15h0a1.35,1.35,0,0,1-1,1.62l-54.8,10.41a1.35,1.35,0,0,1-1.52-1.14Z"/><path class="cls-27" d="M55.29,101.44a1.35,1.35,0,0,1,1-1.63l54.8-10.41a1.35,1.35,0,0,1,1.52,1.15h0a1.35,1.35,0,0,1-1,1.62l-54.8,10.42a1.35,1.35,0,0,1-1.52-1.15Z"/><path class="cls-32" d="M102.77,76.38a4.82,4.82,0,0,0-5.61-3.82l-10.63,2-1-5.54H85.4a4.29,4.29,0,0,0-.07-.79c-.58-3.06-4.16-5-8-4.22s-6.48,3.8-5.9,6.86a3.73,3.73,0,0,0,.23.76l-.08,0,1,5.54L62,79.24a4.82,4.82,0,0,0-3.81,5.61l.32,1.66a5.8,5.8,0,0,0,.16.63,2.15,2.15,0,0,0,0,.43L59,89.34a1.93,1.93,0,0,0,2.24,1.53l2.83-.54,35.15-6.68,2.84-.54a1.91,1.91,0,0,0,1.52-2.24l-.34-1.77a1.77,1.77,0,0,0-.12-.41,4.81,4.81,0,0,0-.08-.65Z"/><path class="cls-33" d="M102.64,75.72A4.81,4.81,0,0,0,97,71.9l-10.63,2-1.05-5.55-.08,0a4.15,4.15,0,0,0-.07-.79c-.58-3.07-4.16-5-8-4.23s-6.47,3.8-5.89,6.87a5.07,5.07,0,0,0,.22.76h-.08l1.06,5.55-10.63,2a4.81,4.81,0,0,0-3.82,5.61l.32,1.66a4.91,4.91,0,0,0,.17.63,1.49,1.49,0,0,0,0,.42l.34,1.78a1.91,1.91,0,0,0,2.24,1.52L64,89.67,99.14,83l2.83-.54a1.92,1.92,0,0,0,1.52-2.24l-.33-1.78A2,2,0,0,0,103,78a4.64,4.64,0,0,0-.07-.64Z"/><path class="cls-34" d="M82.44,67a.42.42,0,0,1-.33.49l-8,1.53a.42.42,0,0,1-.48-.33h0a.41.41,0,0,1,.33-.48l8-1.53a.41.41,0,0,1,.48.32Z"/><path class="cls-35" d="M82.76,68.73a.42.42,0,0,1-.33.49l-8.05,1.53a.42.42,0,0,1-.48-.33h0a.42.42,0,0,1,.33-.48l8-1.53a.4.4,0,0,1,.48.32Z"/><path class="cls-36" d="M83.08,70.43a.4.4,0,0,1-.33.47l-8,1.53a.41.41,0,0,1-.48-.32h0a.42.42,0,0,1,.33-.48l8-1.53a.41.41,0,0,1,.48.33Z"/><path class="cls-37" d="M83.4,72.12a.42.42,0,0,1-.32.48L75,74.13a.42.42,0,0,1-.48-.33h0a.42.42,0,0,1,.33-.48l8-1.53a.4.4,0,0,1,.48.33Z"/><path class="cls-38" d="M117.4,147.25l52.75,8.24a3.17,3.17,0,0,0,3.64-2.65l.51-3.24,6.31-40.43.51-3.24,1.45-9.27A3.2,3.2,0,0,0,179.91,93l-6.61-1,.53-3.39a2.86,2.86,0,1,0-5.65-.88l-.53,3.39-28.23-4.41.53-3.4a2.86,2.86,0,0,0-5.65-.88l-.53,3.39-6.61-1a3.19,3.19,0,0,0-3.64,2.66l-1.45,9.28-.51,3.23-6.32,40.43-.5,3.24A3.19,3.19,0,0,0,117.4,147.25Z"/><path class="cls-39" d="M115.51,101.48h59.77a0,0,0,0,1,0,0v44.2a3.19,3.19,0,0,1-3.19,3.19H118.7a3.19,3.19,0,0,1-3.19-3.19v-44.2A0,0,0,0,1,115.51,101.48Z" transform="translate(21.07 -20.95) rotate(8.88)"/><path class="cls-40" d="M116,98.24h59.77a0,0,0,0,1,0,0v44.2a3.19,3.19,0,0,1-3.19,3.19H119.2a3.19,3.19,0,0,1-3.19-3.19V98.24a0,0,0,0,1,0,0Z" transform="translate(20.57 -21.06) rotate(8.88)"/><path class="cls-41" d="M123.83,86h53.39a3.19,3.19,0,0,1,3.19,3.19V98.6a0,0,0,0,1,0,0H120.64a0,0,0,0,1,0,0V89.21A3.19,3.19,0,0,1,123.83,86Z" transform="translate(16.06 -22.13) rotate(8.88)"/><rect class="cls-42" x="124.39" y="99.74" width="6.66" height="6.66" transform="translate(17.44 -18.48) rotate(8.88)"/><rect class="cls-42" x="134.75" y="101.36" width="6.66" height="6.66" transform="translate(17.82 -20.06) rotate(8.88)"/><rect class="cls-42" x="150.88" y="134" width="6.66" height="6.66" transform="translate(23.05 -22.16) rotate(8.88)"/><rect class="cls-42" x="161.24" y="135.62" width="6.66" height="6.66" transform="translate(23.43 -23.74) rotate(8.88)"/><rect class="cls-42" x="122.85" y="109.62" width="6.66" height="6.66" transform="translate(18.95 -18.13) rotate(8.88)"/><rect class="cls-42" x="133.21" y="111.24" width="6.66" height="6.66" transform="translate(19.32 -19.71) rotate(8.88)"/><rect class="cls-42" x="143.57" y="112.86" width="6.66" height="6.66" transform="translate(19.7 -21.29) rotate(8.88)"/><rect class="cls-43" x="153.93" y="114.48" width="6.66" height="6.66" transform="translate(20.07 -22.87) rotate(8.88)"/><rect class="cls-43" x="164.29" y="116.09" width="6.66" height="6.66" transform="translate(20.45 -24.45) rotate(8.88)"/><rect class="cls-42" x="121.31" y="119.5" width="6.66" height="6.66" transform="translate(20.46 -17.77) rotate(8.88)"/><rect class="cls-41" x="131.67" y="121.12" width="6.66" height="6.66" transform="translate(20.83 -19.35) rotate(8.88)"/><rect class="cls-42" x="142.03" y="122.74" width="6.66" height="6.66" transform="translate(21.21 -20.93) rotate(8.88)"/><rect class="cls-43" x="152.39" y="124.36" width="6.66" height="6.66" transform="translate(21.58 -22.51) rotate(8.88)"/><rect class="cls-43" x="162.75" y="125.98" width="6.66" height="6.66" transform="translate(21.95 -24.09) rotate(8.88)"/><path class="cls-40" d="M132.26,79.62,131.2,86.4a2.86,2.86,0,0,0,2.39,3.26l1.94-12.43A2.87,2.87,0,0,0,132.26,79.62Z"/><path class="cls-44" d="M135.53,77.23l-1.94,12.43a2.85,2.85,0,0,0,3.26-2.38l1.06-6.78A2.87,2.87,0,0,0,135.53,77.23Z"/><path class="cls-40" d="M166.14,84.91l-1.06,6.78A2.87,2.87,0,0,0,167.46,95l1.95-12.43A2.86,2.86,0,0,0,166.14,84.91Z"/><path class="cls-44" d="M169.41,82.53,167.46,95a2.87,2.87,0,0,0,3.27-2.38l1.06-6.79A2.85,2.85,0,0,0,169.41,82.53Z"/><path class="cls-45" d="M139.77,192.19c0,3.4-21.1,6.16-47.13,6.16s-47.13-2.76-47.13-6.16S66.61,186,92.64,186,139.77,188.79,139.77,192.19Z"/></g></g></svg>