<svg xmlns="http://www.w3.org/2000/svg" xmlns:xlink="http://www.w3.org/1999/xlink" viewBox="0 0 217.72 235.83"><defs><style>.cls-1{mask:url(#mask);filter:url(#luminosity-noclip-5);}.cls-12,.cls-14,.cls-18,.cls-2,.cls-20,.cls-4,.cls-51,.cls-52,.cls-53,.cls-54,.cls-6,.cls-8{mix-blend-mode:multiply;}.cls-2{fill:url(#radial-gradient);}.cls-3{mask:url(#mask-2);filter:url(#luminosity-noclip-6);}.cls-4{fill:url(#radial-gradient-2);}.cls-5{mask:url(#mask-3);filter:url(#luminosity-noclip-7);}.cls-6{fill:url(#radial-gradient-3);}.cls-7{mask:url(#mask-4);filter:url(#luminosity-noclip-8);}.cls-8{fill:url(#radial-gradient-4);}.cls-9{fill:none;}.cls-10{isolation:isolate;}.cls-11{mask:url(#mask-5);}.cls-12{fill:url(#Degradado_sin_nombre_153);}.cls-13{mask:url(#mask-6);}.cls-14{fill:url(#Degradado_sin_nombre_151);}.cls-15{fill:#ececec;}.cls-16{clip-path:url(#clip-path);}.cls-17{mask:url(#mask-7);}.cls-18{fill:url(#Degradado_sin_nombre_153-2);}.cls-19{mask:url(#mask-8);}.cls-20{fill:url(#Degradado_sin_nombre_151-2);}.cls-21{fill:#93d500;}.cls-22{fill:#fefefe;}.cls-23{fill:#78bda3;}.cls-23,.cls-24,.cls-32,.cls-33,.cls-34,.cls-35,.cls-62,.cls-63,.cls-64,.cls-65,.cls-66,.cls-67{fill-rule:evenodd;}.cls-24,.cls-61{fill:#fff;}.cls-25{fill:#cacaca;}.cls-26{fill:#6db2c0;}.cls-27,.cls-35{fill:#4d8cb2;}.cls-28,.cls-34{fill:#90bee7;}.cls-29,.cls-33{fill:#a4c9ee;}.cls-30,.cls-32{fill:#b5d5f4;}.cls-31{fill:#c7e2fa;}.cls-36{fill:url(#linear-gradient);}.cls-37{fill:url(#linear-gradient-2);}.cls-38{fill:url(#linear-gradient-3);}.cls-39{fill:url(#linear-gradient-4);}.cls-40{fill:#bab6be;}.cls-41{fill:url(#linear-gradient-5);}.cls-42{fill:url(#linear-gradient-6);}.cls-43{fill:url(#radial-gradient-5);}.cls-44{fill:url(#linear-gradient-7);}.cls-45{fill:url(#linear-gradient-8);}.cls-46{fill:url(#linear-gradient-9);}.cls-47{fill:url(#linear-gradient-10);}.cls-48{fill:url(#linear-gradient-11);}.cls-49{fill:url(#linear-gradient-12);}.cls-50{fill:url(#linear-gradient-13);}.cls-51{fill:url(#radial-gradient-6);}.cls-52{fill:url(#radial-gradient-7);}.cls-53{fill:url(#radial-gradient-8);}.cls-54{fill:url(#radial-gradient-9);}.cls-55{fill:#1f3b51;}.cls-56{fill:#307c9e;}.cls-57,.cls-59{fill:#ebebeb;}.cls-57{opacity:0.3;}.cls-58{fill:#ccc;}.cls-60{fill:#03698e;}.cls-62{fill:gray;}.cls-63{fill:#4d4d4d;}.cls-64{fill:#e4e4e4;}.cls-65{fill:#ea7b5d;}.cls-66{fill:#d75430;}.cls-67{fill:#666;}.cls-68{filter:url(#luminosity-noclip-4);}.cls-69{filter:url(#luminosity-noclip-3);}.cls-70{filter:url(#luminosity-noclip-2);}.cls-71{filter:url(#luminosity-noclip);}</style><filter id="luminosity-noclip" x="102.72" y="-8574.67" width="114.57" height="32766" filterUnits="userSpaceOnUse" color-interpolation-filters="sRGB"><feFlood flood-color="#fff" result="bg"/><feBlend in="SourceGraphic" in2="bg"/></filter><mask id="mask" x="102.72" y="-8574.67" width="114.57" height="32766" maskUnits="userSpaceOnUse"><g class="cls-71"/></mask><radialGradient id="radial-gradient" cx="-244.69" cy="267.28" r="39.98" gradientTransform="matrix(1, 0.3, -1.03, 0.13, 678.99, 264.15)" gradientUnits="userSpaceOnUse"><stop offset="0.5" stop-color="#a6a6a6"/><stop offset="0.6" stop-color="#a3a3a3"/><stop offset="0.67" stop-color="#999"/><stop offset="0.75" stop-color="#888"/><stop offset="0.81" stop-color="#707070"/><stop offset="0.88" stop-color="#515151"/><stop offset="0.94" stop-color="#2c2c2c"/><stop offset="1"/></radialGradient><filter id="luminosity-noclip-2" x="0.45" y="-8574.67" width="114.57" height="32766" filterUnits="userSpaceOnUse" color-interpolation-filters="sRGB"><feFlood flood-color="#fff" result="bg"/><feBlend in="SourceGraphic" in2="bg"/></filter><mask id="mask-2" x="0.45" y="-8574.67" width="114.57" height="32766" maskUnits="userSpaceOnUse"><g class="cls-70"/></mask><radialGradient id="radial-gradient-2" cx="77.2" cy="-486.03" r="39.98" gradientTransform="matrix(-1, 0.3, 1.03, 0.13, 635.44, 264.15)" xlink:href="#radial-gradient"/><filter id="luminosity-noclip-3" x="107.68" y="-8574.67" width="92.69" height="32766" filterUnits="userSpaceOnUse" color-interpolation-filters="sRGB"><feFlood flood-color="#fff" result="bg"/><feBlend in="SourceGraphic" in2="bg"/></filter><mask id="mask-3" x="107.68" y="-8574.67" width="92.69" height="32766" maskUnits="userSpaceOnUse"><g class="cls-69"/></mask><radialGradient id="radial-gradient-3" cx="-364.39" cy="-913.54" r="33.28" gradientTransform="matrix(0.97, 0.3, -1, 0.13, -408.37, 264.15)" xlink:href="#radial-gradient"/><filter id="luminosity-noclip-4" x="25.66" y="-8574.67" width="92.69" height="32766" filterUnits="userSpaceOnUse" color-interpolation-filters="sRGB"><feFlood flood-color="#fff" result="bg"/><feBlend in="SourceGraphic" in2="bg"/></filter><mask id="mask-4" x="25.66" y="-8574.67" width="92.69" height="32766" maskUnits="userSpaceOnUse"><g class="cls-68"/></mask><radialGradient id="radial-gradient-4" cx="-692.13" cy="-146.55" r="33.28" gradientTransform="matrix(-0.97, 0.3, 1, 0.13, -450.69, 264.15)" xlink:href="#radial-gradient"/><filter id="luminosity-noclip-5" x="102.72" y="212.25" width="114.57" height="25.94" filterUnits="userSpaceOnUse" color-interpolation-filters="sRGB"><feFlood flood-color="#fff" result="bg"/><feBlend in="SourceGraphic" in2="bg"/></filter><mask id="mask-5" x="102.72" y="212.25" width="114.57" height="25.94" maskUnits="userSpaceOnUse"><g class="cls-1"><path class="cls-2" d="M217.28,230.05c-.54,6.65-26.63,9.88-58.27,7.21s-56.83-10.21-56.28-16.87,26.65-9.87,58.26-7.2S217.83,223.41,217.28,230.05Z"/></g></mask><radialGradient id="Degradado_sin_nombre_153" cx="-244.69" cy="267.28" r="39.98" gradientTransform="matrix(1, 0.3, -1.03, 0.13, 678.99, 264.15)" gradientUnits="userSpaceOnUse"><stop offset="0" stop-color="#3c3c3b"/><stop offset="1" stop-color="#fff" stop-opacity="0"/></radialGradient><filter id="luminosity-noclip-6" x="0.45" y="212.25" width="114.57" height="25.94" filterUnits="userSpaceOnUse" color-interpolation-filters="sRGB"><feFlood flood-color="#fff" result="bg"/><feBlend in="SourceGraphic" in2="bg"/></filter><mask id="mask-6" x="0.45" y="212.25" width="114.57" height="25.94" maskUnits="userSpaceOnUse"><g class="cls-3"><path class="cls-4" d="M.46,230.05c.53,6.65,26.63,9.88,58.26,7.21s56.83-10.21,56.29-16.87-26.66-9.87-58.27-7.2S-.09,223.41.46,230.05Z"/></g></mask><radialGradient id="Degradado_sin_nombre_151" cx="77.2" cy="-486.03" r="39.98" gradientTransform="matrix(-1, 0.3, 1.03, 0.13, 635.44, 264.15)" gradientUnits="userSpaceOnUse"><stop offset="0" stop-color="#3c3c3b"/><stop offset="0" stop-color="#3d3d3c"/><stop offset="1" stop-color="#fff" stop-opacity="0"/></radialGradient><clipPath id="clip-path"><rect class="cls-9" x="30.98" y="40.7" width="163.4" height="10.43"/></clipPath><filter id="luminosity-noclip-7" x="107.68" y="28.21" width="92.69" height="21.6" filterUnits="userSpaceOnUse" color-interpolation-filters="sRGB"><feFlood flood-color="#fff" result="bg"/><feBlend in="SourceGraphic" in2="bg"/></filter><mask id="mask-7" x="107.68" y="28.21" width="92.69" height="21.6" maskUnits="userSpaceOnUse"><g class="cls-5"><path class="cls-6" d="M200.36,43c-.44,5.53-21.55,8.22-47.14,6s-46-8.51-45.53-14,21.56-8.22,47.13-6S200.8,37.49,200.36,43Z"/></g></mask><radialGradient id="Degradado_sin_nombre_153-2" cx="-364.39" cy="-913.54" r="33.28" gradientTransform="matrix(0.97, 0.3, -1, 0.13, -408.37, 264.15)" xlink:href="#Degradado_sin_nombre_153"/><filter id="luminosity-noclip-8" x="25.66" y="28.21" width="92.69" height="21.6" filterUnits="userSpaceOnUse" color-interpolation-filters="sRGB"><feFlood flood-color="#fff" result="bg"/><feBlend in="SourceGraphic" in2="bg"/></filter><mask id="mask-8" x="25.66" y="28.21" width="92.69" height="21.6" maskUnits="userSpaceOnUse"><g class="cls-7"><path class="cls-8" d="M25.67,43c.43,5.53,21.54,8.22,47.13,6s46-8.51,45.54-14S96.77,26.77,71.2,29,25.22,37.49,25.67,43Z"/></g></mask><radialGradient id="Degradado_sin_nombre_151-2" cx="-692.13" cy="-146.55" r="33.28" gradientTransform="matrix(-0.97, 0.3, 1, 0.13, -450.69, 264.15)" xlink:href="#Degradado_sin_nombre_151"/><linearGradient id="linear-gradient" x1="-3679.41" y1="-830.38" x2="-3679.41" y2="-1105.07" gradientTransform="translate(1464.63 492.33) scale(0.38)" gradientUnits="userSpaceOnUse"><stop offset="0.01" stop-color="#a38368"/><stop offset="1" stop-color="#7f674f"/></linearGradient><linearGradient id="linear-gradient-2" x1="-3679.04" y1="-830.38" x2="-3679.04" y2="-1105.07" gradientTransform="translate(1465 492.23) scale(0.38)" gradientUnits="userSpaceOnUse"><stop offset="0" stop-color="#7f674f"/><stop offset="1" stop-color="#a38368"/></linearGradient><linearGradient id="linear-gradient-3" x1="-3749.25" y1="-844.31" x2="-3749.25" y2="-1119.03" gradientTransform="matrix(0.36, -0.07, 0.07, 0.36, 1487.98, 225)" gradientUnits="userSpaceOnUse"><stop offset="0.01" stop-color="#c59e7c"/><stop offset="1" stop-color="#cca47f"/></linearGradient><linearGradient id="linear-gradient-4" x1="-3749.25" y1="-843.95" x2="-3749.25" y2="-1118.63" gradientTransform="matrix(0.36, -0.07, 0.07, 0.36, 1488.05, 225.38)" gradientUnits="userSpaceOnUse"><stop offset="0.01" stop-color="#a38368"/><stop offset="1" stop-color="#be9a7b"/></linearGradient><linearGradient id="linear-gradient-5" x1="1879.49" y1="-25.13" x2="1879.49" y2="71.89" gradientTransform="matrix(-0.82, 0.16, -0.17, -0.91, 1627.34, -143.44)" gradientUnits="userSpaceOnUse"><stop offset="0" stop-color="#fff"/><stop offset="0.47" stop-color="#fdfdfd"/><stop offset="0.7" stop-color="#f5f6f6"/><stop offset="0.87" stop-color="#e9e9ea"/><stop offset="1" stop-color="#d8d9da"/></linearGradient><linearGradient id="linear-gradient-6" x1="-192.47" y1="501.25" x2="-183.96" y2="492.74" gradientTransform="matrix(0.82, -0.16, 0.17, 0.91, 137.74, -324.93)" gradientUnits="userSpaceOnUse"><stop offset="0" stop-color="#fff"/><stop offset="0.33" stop-color="#f2f3f3"/><stop offset="0.93" stop-color="#d0d3d4"/><stop offset="1" stop-color="#cccfd0"/></linearGradient><radialGradient id="radial-gradient-5" cx="1600.6" cy="-20.15" r="11.13" gradientTransform="matrix(-1.15, 0.22, -0.24, -1.27, 1901.53, -212.22)" gradientUnits="userSpaceOnUse"><stop offset="0" stop-color="#fff"/><stop offset="0.48" stop-color="#fdfdfd"/><stop offset="0.65" stop-color="#f6f7f7"/><stop offset="0.78" stop-color="#ebebec"/><stop offset="0.88" stop-color="#dadbdc"/><stop offset="0.96" stop-color="#c4c6c8"/><stop offset="1" stop-color="#b7babc"/></radialGradient><linearGradient id="linear-gradient-7" x1="1860.26" y1="91.64" x2="1901.56" y2="50.33" gradientTransform="matrix(-0.82, 0.16, -0.17, -0.91, 1627.34, -143.44)" gradientUnits="userSpaceOnUse"><stop offset="0" stop-color="#cccfd0"/><stop offset="0.47" stop-color="#fff"/><stop offset="0.65" stop-color="#f2f3f3"/><stop offset="0.97" stop-color="#d0d3d4"/><stop offset="1" stop-color="#cccfd0"/></linearGradient><linearGradient id="linear-gradient-8" x1="-3215.13" y1="-1680.51" x2="-3215.13" y2="-1583.83" gradientTransform="matrix(0.23, -0.04, 0.04, 0.23, 866.01, 308.87)" gradientUnits="userSpaceOnUse"><stop offset="0" stop-color="#cccdcf"/><stop offset="0.28" stop-color="#9a9da0"/><stop offset="0.55" stop-color="#eeeeef"/><stop offset="0.82" stop-color="#9a9da0"/><stop offset="1" stop-color="#7d7e80"/></linearGradient><linearGradient id="linear-gradient-9" x1="-3215.13" y1="-1681.25" x2="-3215.13" y2="-1584.57" gradientTransform="matrix(0.23, -0.04, 0.04, 0.23, 865.93, 308.41)" gradientUnits="userSpaceOnUse"><stop offset="0" stop-color="#e5e5e6"/><stop offset="0.28" stop-color="#9a9da0"/><stop offset="0.55" stop-color="#f8f8f8"/><stop offset="0.82" stop-color="#b5b8ba"/><stop offset="1" stop-color="#eff0f0"/></linearGradient><linearGradient id="linear-gradient-10" x1="-4714.55" y1="-1958.44" x2="-4714.55" y2="-1948.39" gradientTransform="matrix(0.16, -0.03, 0.03, 0.16, 903.14, 245.72)" gradientUnits="userSpaceOnUse"><stop offset="0" stop-color="#cccdcf"/><stop offset="0.28" stop-color="#9a9da0"/><stop offset="0.55" stop-color="#eeeeef"/><stop offset="0.82" stop-color="#9a9da0"/><stop offset="1" stop-color="#dcddde"/></linearGradient><linearGradient id="linear-gradient-11" x1="-4714.55" y1="-1955.86" x2="-4714.55" y2="-1945.82" gradientTransform="matrix(0.16, -0.03, 0.03, 0.16, 903.35, 246.87)" xlink:href="#linear-gradient-10"/><linearGradient id="linear-gradient-12" x1="-4714.55" y1="-1953.29" x2="-4714.55" y2="-1943.25" gradientTransform="matrix(0.16, -0.03, 0.03, 0.16, 903.57, 248.02)" xlink:href="#linear-gradient-10"/><linearGradient id="linear-gradient-13" x1="-4714.55" y1="-1950.7" x2="-4714.55" y2="-1940.67" gradientTransform="matrix(0.16, -0.03, 0.03, 0.16, 903.79, 249.17)" xlink:href="#linear-gradient-10"/><radialGradient id="radial-gradient-6" cx="504.73" cy="-3931.13" fx="471.5917295065641" fy="-3938.9441654373604" r="53.83" gradientTransform="translate(-330.96 607.47) scale(0.81 0.11)" gradientUnits="userSpaceOnUse"><stop offset="0" stop-color="#666"/><stop offset="0.25" stop-color="#838383" stop-opacity="0.79"/><stop offset="0.78" stop-color="#cdcdcd" stop-opacity="0.25"/><stop offset="1" stop-color="#efefef" stop-opacity="0"/></radialGradient><radialGradient id="radial-gradient-7" cx="-2691.52" cy="-3800.89" fx="-2708.7587323668977" fy="-3800.888804683961" r="28" gradientTransform="translate(1390.47 607.47) scale(0.49 0.11)" xlink:href="#radial-gradient-6"/><radialGradient id="radial-gradient-8" cx="-310.96" cy="-3719.22" fx="-332.2374927569526" fy="-3719.223711237098" r="34.57" gradientTransform="translate(349.32 607.47) scale(0.67 0.11)" xlink:href="#radial-gradient-6"/><radialGradient id="radial-gradient-9" cx="9697.5" cy="-3719.22" fx="9676.21573951453" fy="-3719.223714658268" r="34.57" gradientTransform="matrix(-0.67, 0, 0, 0.11, 6565.62, 607.47)" xlink:href="#radial-gradient-6"/></defs><g class="cls-10"><g id="Capa_1" data-name="Capa 1"><g class="cls-11"><path class="cls-12" d="M217.28,230.05c-.54,6.65-26.63,9.88-58.27,7.21s-56.83-10.21-56.28-16.87,26.65-9.87,58.26-7.2S217.83,223.41,217.28,230.05Z"/></g><g class="cls-13"><path class="cls-14" d="M.46,230.05c.53,6.65,26.63,9.88,58.26,7.21s56.83-10.21,56.29-16.87-26.66-9.87-58.27-7.2S-.09,223.41.46,230.05Z"/></g><rect class="cls-15" x="1.72" y="12.31" width="214.28" height="216.19" rx="21.6"/><g class="cls-16"><g class="cls-17"><path class="cls-18" d="M200.36,43c-.44,5.53-21.55,8.22-47.14,6s-46-8.51-45.53-14,21.56-8.22,47.13-6S200.8,37.49,200.36,43Z"/></g><g class="cls-19"><path class="cls-20" d="M25.67,43c.43,5.53,21.54,8.22,47.13,6s46-8.51,45.54-14S96.77,26.77,71.2,29,25.22,37.49,25.67,43Z"/></g></g><rect class="cls-21" x="17.62" y="1.45" width="185.91" height="39.06" rx="18.64"/><path class="cls-22" d="M61,14.76a1.11,1.11,0,0,1,1.21-1.22h2.77c2.42,0,3.92,1.08,3.92,3.55a3.07,3.07,0,0,1-2.91,3l2.67,2.86a1,1,0,0,1,.32.69,1.2,1.2,0,0,1-1.18,1.21,1.23,1.23,0,0,1-.92-.41l-3.49-4.23h0v3.42a1.18,1.18,0,1,1-2.36,0Zm2.36,3.73h1.62a1.33,1.33,0,0,0,1.46-1.4,1.31,1.31,0,0,0-1.46-1.38H63.31Z"/><path class="cls-22" d="M77.42,20.57a4.07,4.07,0,1,1-8.12,0,4.07,4.07,0,1,1,8.12,0Zm-5.85,0c0,1.09.56,2.28,1.79,2.28s1.79-1.19,1.79-2.28-.55-2.31-1.79-2.31S71.57,19.48,71.57,20.57Z"/><path class="cls-22" d="M78.34,13.88a1.14,1.14,0,1,1,2.27,0v9.69a1.14,1.14,0,1,1-2.27,0Z"/><path class="cls-22" d="M93.82,23.57a1.14,1.14,0,0,1-1.13,1.26,1.07,1.07,0,0,1-1.13-.94,2.49,2.49,0,0,1-2.08,1c-2.28,0-3.73-2.13-3.73-4.27S87,16.18,89.4,16.18a3.29,3.29,0,0,1,2.16.79V13.88a1.14,1.14,0,1,1,2.26,0Zm-4-5.31C88.6,18.26,88,19.5,88,20.57s.58,2.28,1.76,2.28,1.78-1.26,1.78-2.36S91,18.26,89.78,18.26Z"/><path class="cls-22" d="M96.93,21.31A2,2,0,0,0,99.07,23c1.17,0,2-.92,2.57-.92a1,1,0,0,1,.93,1c0,1-2,1.92-3.7,1.92a4.13,4.13,0,0,1-4.25-4.36,4.07,4.07,0,1,1,8.13-.27c0,.68-.29,1-1,1Zm3.56-1.51a1.8,1.8,0,0,0-3.6,0Z"/><path class="cls-22" d="M115.51,23.35c0,.59,0,1.48-1.09,1.48-.66,0-.93-.36-1.08-1a2.69,2.69,0,0,1-2.16,1.06c-2.12,0-3.74-1.81-3.74-4.36s1.67-4.39,3.74-4.39a2.59,2.59,0,0,1,2.16,1,1.07,1.07,0,0,1,1.08-.95c1.09,0,1.09.9,1.09,1.48Zm-4-.5c1.18,0,1.74-1.19,1.74-2.28s-.55-2.31-1.74-2.31-1.8,1.22-1.8,2.31S110.27,22.85,111.5,22.85Z"/><path class="cls-22" d="M116.79,17.53a1.15,1.15,0,0,1,1.14-1.26,1,1,0,0,1,1,.84,2.44,2.44,0,0,1,2.18-.93,2.9,2.9,0,0,1,3.1,3.05v4.34a1.14,1.14,0,1,1-2.26,0V19.63a1.47,1.47,0,1,0-2.93,0v3.94a1.14,1.14,0,1,1-2.27,0Z"/><path class="cls-22" d="M133.28,23.35c0,.59,0,1.48-1.09,1.48-.66,0-.92-.36-1.08-1A2.69,2.69,0,0,1,129,24.93c-2.12,0-3.74-1.81-3.74-4.36s1.67-4.39,3.74-4.39a2.58,2.58,0,0,1,2.16,1,1.07,1.07,0,0,1,1.08-.95c1.09,0,1.09.9,1.09,1.48Zm-4-.5c1.18,0,1.74-1.19,1.74-2.28s-.55-2.31-1.74-2.31-1.8,1.22-1.8,2.31S128,22.85,129.27,22.85Z"/><path class="cls-22" d="M134.53,13.88a1.14,1.14,0,1,1,2.27,0v9.69a1.14,1.14,0,1,1-2.27,0Z"/><path class="cls-22" d="M140.43,14.12a1.29,1.29,0,0,1-1.27,1.31,1.34,1.34,0,0,1-1.28-1.31,1.28,1.28,0,0,1,2.55,0ZM138,17.53a1.14,1.14,0,1,1,2.26,0v6a1.14,1.14,0,1,1-2.26,0Z"/><path class="cls-22" d="M146.32,18.82c-.43,0-1.29-.66-2-.66-.41,0-.78.19-.78.63,0,1.06,3.94.9,3.94,3.48,0,1.51-1.28,2.66-3.23,2.66-1.27,0-3.16-.73-3.16-1.75a1.08,1.08,0,0,1,1-1c.88,0,1.27.78,2.34.78.69,0,.9-.22.9-.65,0-1-3.94-.88-3.94-3.48,0-1.57,1.28-2.64,3.07-2.64,1.12,0,2.83.52,2.83,1.64A1,1,0,0,1,146.32,18.82Z"/><path class="cls-22" d="M148.8,18.35h-.51a.92.92,0,0,1-1-1,1,1,0,0,1,1-1h.51V15a1.14,1.14,0,1,1,2.26,0v1.35h.65a1,1,0,1,1,0,2h-.65v5.22a1.14,1.14,0,1,1-2.26,0Z"/><path class="cls-22" d="M160.64,23.35c0,.59,0,1.48-1.08,1.48-.66,0-.93-.36-1.09-1a2.69,2.69,0,0,1-2.15,1.06c-2.13,0-3.75-1.81-3.75-4.36s1.67-4.39,3.75-4.39a2.58,2.58,0,0,1,2.15,1,1.09,1.09,0,0,1,1.09-.95c1.08,0,1.08.9,1.08,1.48Zm-4-.5c1.18,0,1.75-1.19,1.75-2.28s-.55-2.31-1.75-2.31-1.79,1.22-1.79,2.31S155.4,22.85,156.63,22.85Z"/><polygon class="cls-23" points="109.6 79.83 164.44 78.53 173.64 78.31 175.78 168.88 111.75 170.39 109.6 79.83"/><polygon class="cls-24" points="121.29 70.24 175.34 79.55 184.41 81.11 169.04 170.39 105.92 159.52 121.29 70.24"/><rect class="cls-25" x="150.32" y="70.44" width="1.52" height="31.1" transform="translate(40.7 220.28) rotate(-80.23)"/><rect class="cls-25" x="149.68" y="63.57" width="1.52" height="52.3" transform="translate(36.49 222.75) rotate(-80.23)"/><rect class="cls-25" x="149.23" y="66.19" width="1.52" height="52.3" transform="translate(33.53 224.48) rotate(-80.23)"/><rect class="cls-25" x="148.77" y="68.81" width="1.52" height="52.3" transform="translate(30.58 226.21) rotate(-80.23)"/><rect class="cls-25" x="134.63" y="82.96" width="1.52" height="24.51" transform="translate(18.58 212.48) rotate(-80.23)"/><rect class="cls-25" x="144.52" y="109.02" width="0.65" height="48.52" transform="translate(-11.08 253.41) rotate(-80.23)"/><rect class="cls-25" x="108.14" y="113.65" width="30.82" height="0.66" transform="matrix(0.17, -0.99, 0.99, 0.17, -9.74, 216.4)"/><rect class="cls-25" x="117.26" y="115.22" width="30.82" height="0.65" transform="translate(-3.71 226.69) rotate(-80.23)"/><rect class="cls-25" x="126.38" y="116.79" width="30.82" height="0.65" transform="matrix(0.17, -0.99, 0.99, 0.17, 2.31, 236.98)"/><rect class="cls-25" x="135.5" y="118.36" width="30.82" height="0.65" transform="translate(8.33 247.27) rotate(-80.23)"/><rect class="cls-25" x="144.81" y="119.98" width="30.8" height="0.65" transform="translate(12.81 256) rotate(-79.54)"/><rect class="cls-25" x="153.74" y="121.5" width="30.82" height="0.65" transform="matrix(0.17, -0.99, 0.99, 0.17, 20.39, 267.86)"/><polygon class="cls-25" points="122.22 121.72 170.04 129.95 169.93 130.59 122.11 122.36 122.22 121.72"/><polygon class="cls-25" points="123.45 114.59 171.2 123.17 171.09 123.81 123.34 115.23 123.45 114.59"/><rect class="cls-25" x="148.2" y="87.64" width="0.65" height="48.52" transform="translate(13.05 239.29) rotate(-80.23)"/><rect class="cls-25" x="149.43" y="80.51" width="0.65" height="48.52" transform="translate(21.09 234.58) rotate(-80.23)"/><polygon class="cls-26" points="134.19 109.22 120.28 128.84 121.08 129.4 134.45 110.54 139.94 125.35 140.14 125.88 140.64 125.61 150.65 120.23 158.28 128.65 158.71 129.13 159.06 128.58 169.12 112.67 170.87 113.78 171.19 108.46 166.53 111.04 168.28 112.14 158.57 127.51 151.12 119.29 150.86 119.01 150.52 119.19 140.67 124.48 135.05 109.33 134.73 108.46 134.19 109.22"/><rect class="cls-25" x="119.94" y="129.42" width="1.43" height="2.82" transform="translate(-28.75 227.53) rotate(-80.23)"/><rect class="cls-25" x="129.06" y="130.99" width="1.43" height="2.82" transform="translate(-22.75 237.78) rotate(-80.22)"/><rect class="cls-25" x="138.18" y="132.56" width="1.43" height="2.82" transform="translate(-16.73 248.07) rotate(-80.22)"/><rect class="cls-25" x="147.3" y="134.13" width="1.43" height="2.82" transform="translate(-10.7 258.36) rotate(-80.22)"/><rect class="cls-25" x="156.42" y="135.7" width="1.43" height="2.82" transform="translate(-4.65 268.69) rotate(-80.23)"/><rect class="cls-25" x="165.54" y="137.27" width="1.43" height="2.82" transform="translate(1.38 278.99) rotate(-80.23)"/><rect class="cls-25" x="119.12" y="120.23" width="1.43" height="2.82" transform="translate(-20.37 219.09) rotate(-80.23)"/><rect class="cls-25" x="120.35" y="113.1" width="1.43" height="2.82" transform="translate(-12.3 214.42) rotate(-80.25)"/><rect class="cls-25" x="121.57" y="105.97" width="1.43" height="2.82" transform="translate(-4.29 209.68) rotate(-80.23)"/><rect class="cls-25" x="122.66" y="99.68" width="1.43" height="2.82" transform="translate(2.85 205.55) rotate(-80.25)"/><rect class="cls-25" x="124.92" y="145.78" width="2.99" height="26.36" transform="translate(-51.69 256.57) rotate(-80.23)"/><rect class="cls-27" x="108.87" y="144.85" width="17.15" height="4.69" transform="translate(-47.54 237.96) rotate(-80.23)"/><rect class="cls-28" x="116.9" y="148.96" width="10.68" height="4.69" transform="translate(-47.61 246.09) rotate(-80.23)"/><rect class="cls-29" x="123.74" y="151.66" width="7.06" height="4.69" transform="translate(-46.09 253.3) rotate(-80.23)"/><rect class="cls-30" x="127.71" y="150.95" width="10.38" height="4.69" transform="translate(-40.72 258.25) rotate(-80.23)"/><rect class="cls-31" x="134.27" y="153.32" width="7.42" height="4.69" transform="translate(-38.84 265.24) rotate(-80.23)"/><circle class="cls-31" cx="155.12" cy="154.77" r="10.5" transform="translate(-50.41 230.75) rotate(-65.22)"/><path class="cls-32" d="M147.94,162.43a10.52,10.52,0,0,1-2.84-4.53l10-3.13Z"/><path class="cls-33" d="M145.1,157.9a10.48,10.48,0,0,1,5-12.37l5,9.24Z"/><path class="cls-34" d="M150.14,145.53a10.4,10.4,0,0,1,6.76-1.1l-1.78,10.34Z"/><path class="cls-35" d="M156.9,144.43l-1.78,10.34,8.62-6A10.44,10.44,0,0,0,156.9,144.43Z"/><path class="cls-36" d="M45.45,76.71h66.29a5.15,5.15,0,0,1,5.15,5.15v93.28a5.16,5.16,0,0,1-5.16,5.16H45.45a5.16,5.16,0,0,1-5.16-5.16V81.87a5.15,5.15,0,0,1,5.15-5.15Z" transform="translate(-22.61 16.93) rotate(-10.76)"/><path class="cls-37" d="M46,76.62h66.29a5.16,5.16,0,0,1,5.16,5.16V175a5.16,5.16,0,0,1-5.16,5.16H46A5.15,5.15,0,0,1,40.8,175V81.77A5.15,5.15,0,0,1,46,76.62Z" transform="translate(-22.58 17.02) rotate(-10.76)"/><path class="cls-38" d="M100.75,73.29l-63,12a5,5,0,0,0-4,5.83l.48,2.53a5,5,0,0,1,4-5.83l63-12a5,5,0,0,1,5.83,4l-.49-2.54A5,5,0,0,0,100.75,73.29Z"/><path class="cls-39" d="M119.07,169.72l-63,12a5,5,0,0,1-5.82-4l.48,2.53a5,5,0,0,0,5.83,4l63-12a5,5,0,0,0,4-5.83l-.49-2.53A5,5,0,0,1,119.07,169.72Z"/><path class="cls-40" d="M118.33,168.16a2.37,2.37,0,0,0,1.74-2.85l-16.3-85.79a2.36,2.36,0,0,0-2.66-2l-62,11.78a2.38,2.38,0,0,0-1.74,2.85l11.17,58.79a7.41,7.41,0,0,0,2.34,3.86L76.67,174.3a5.94,5.94,0,0,0,4.08,1Z"/><path class="cls-41" d="M116.19,166.89a2.38,2.38,0,0,0,1.74-2.85L102.09,80.68a2.37,2.37,0,0,0-2.66-2L40,90a2.37,2.37,0,0,0-1.74,2.84L49.2,150.38a7.33,7.33,0,0,0,2.35,3.86L76,172.75a6,6,0,0,0,4.08,1Z"/><path class="cls-42" d="M75.47,167.93l-2.31-12.15a4.51,4.51,0,0,0-5.07-3.85l-11.43,2.18Z"/><path class="cls-43" d="M73.48,152.77l4.81,19.82h0l-2.78-23.15a2.37,2.37,0,0,0-2.66-2l-20,3.8h0l18-.48A2.37,2.37,0,0,1,73.48,152.77Z"/><path class="cls-44" d="M101.63,78.25,37.8,90.37S63.61,91.78,101.63,78.25Z"/><path class="cls-40" d="M96.93,157.52a1.26,1.26,0,0,1,.92-1.51l11.94-2.27a1.25,1.25,0,0,1,1.4,1.07h0a1.24,1.24,0,0,1-.91,1.51l-11.94,2.27a1.25,1.25,0,0,1-1.41-1.07Z"/><path class="cls-40" d="M92.09,153.49A1.25,1.25,0,0,1,93,152l15.87-3a1.26,1.26,0,0,1,1.41,1.07h0a1.26,1.26,0,0,1-.92,1.51l-15.87,3a1.26,1.26,0,0,1-1.41-1.07Z"/><path class="cls-40" d="M87.25,149.45a1.26,1.26,0,0,1,.92-1.51l19.8-3.76a1.26,1.26,0,0,1,1.41,1.07h0a1.26,1.26,0,0,1-.92,1.51l-19.8,3.76a1.25,1.25,0,0,1-1.41-1.07Z"/><path class="cls-40" d="M58.42,131.51a1.27,1.27,0,0,1,.92-1.52l44.33-8.42a1.26,1.26,0,0,1,1.41,1.07h0a1.25,1.25,0,0,1-.92,1.51l-44.33,8.43a1.26,1.26,0,0,1-1.41-1.07Z"/><path class="cls-40" d="M71.14,136.3a1.25,1.25,0,0,1,.92-1.51L105,128.53a1.24,1.24,0,0,1,1.4,1.07h0a1.25,1.25,0,0,1-.91,1.51l-32.94,6.26a1.26,1.26,0,0,1-1.41-1.07Z"/><path class="cls-40" d="M49.84,122.78a1.26,1.26,0,0,1,.92-1.52l51-9.69a1.26,1.26,0,0,1,1.41,1.07h0a1.25,1.25,0,0,1-.92,1.51l-51,9.69a1.24,1.24,0,0,1-1.41-1.06Z"/><path class="cls-40" d="M48.6,116.26a1.26,1.26,0,0,1,.92-1.52l51-9.69a1.26,1.26,0,0,1,1.41,1.07h0a1.25,1.25,0,0,1-.92,1.51l-51,9.69a1.24,1.24,0,0,1-1.41-1.06Z"/><path class="cls-40" d="M47.28,109.3a1.26,1.26,0,0,1,.92-1.52l51-9.69a1.26,1.26,0,0,1,1.41,1.07h0a1.25,1.25,0,0,1-.92,1.51l-51,9.7a1.25,1.25,0,0,1-1.41-1.07Z"/><path class="cls-40" d="M46,102.78a1.26,1.26,0,0,1,.92-1.52l51-9.69a1.26,1.26,0,0,1,1.41,1.07h0a1.25,1.25,0,0,1-.92,1.51l-51,9.7A1.25,1.25,0,0,1,46,102.78Z"/><path class="cls-45" d="M90.23,79.45A4.48,4.48,0,0,0,85,75.9l-9.89,1.88-1-5.16h-.07a3.78,3.78,0,0,0-.07-.74C73.46,69,70.12,67.28,66.55,68s-6,3.54-5.49,6.39a5.31,5.31,0,0,0,.21.71H61.2l1,5.17-9.89,1.88a4.46,4.46,0,0,0-3.55,5.22L49,88.88a5.66,5.66,0,0,0,.15.59,1.87,1.87,0,0,0,0,.4l.31,1.64a1.79,1.79,0,0,0,2.08,1.43l2.64-.5L87,86.22l2.64-.5A1.79,1.79,0,0,0,91,83.63L90.71,82a1.29,1.29,0,0,0-.12-.38,3.07,3.07,0,0,0-.07-.6Z"/><path class="cls-46" d="M90.11,78.83a4.47,4.47,0,0,0-5.22-3.55L75,77.16,74,72H74a3.71,3.71,0,0,0-.07-.74c-.54-2.85-3.87-4.61-7.45-3.93s-6,3.54-5.48,6.39a4.14,4.14,0,0,0,.2.71l-.07,0,1,5.16L52.17,81.5a4.47,4.47,0,0,0-3.55,5.22l.29,1.54a5.69,5.69,0,0,0,.16.59,1.38,1.38,0,0,0,0,.4l.31,1.65a1.8,1.8,0,0,0,2.09,1.42l2.63-.5L86.85,85.6l2.64-.5A1.79,1.79,0,0,0,90.91,83l-.32-1.65a1.29,1.29,0,0,0-.12-.38,4.07,4.07,0,0,0-.06-.6Z"/><path class="cls-47" d="M71.31,70.76a.39.39,0,0,1-.31.45l-7.49,1.42a.39.39,0,0,1-.45-.3h0a.39.39,0,0,1,.31-.45l7.49-1.42a.38.38,0,0,1,.45.3Z"/><path class="cls-48" d="M71.61,72.33a.39.39,0,0,1-.31.45l-7.49,1.43a.39.39,0,0,1-.45-.31h0a.39.39,0,0,1,.31-.45L71.16,72a.39.39,0,0,1,.45.3Z"/><path class="cls-49" d="M71.91,73.91a.38.38,0,0,1-.31.44l-7.49,1.43a.39.39,0,0,1-.45-.31h0A.38.38,0,0,1,64,75l7.5-1.42a.38.38,0,0,1,.45.3Z"/><path class="cls-50" d="M72.21,75.48a.39.39,0,0,1-.31.45l-7.49,1.42a.39.39,0,0,1-.45-.3h0a.38.38,0,0,1,.3-.44l7.5-1.43a.38.38,0,0,1,.45.3Z"/><path class="cls-51" d="M124.67,187.25c0,3.17-19.64,5.74-43.87,5.74s-43.87-2.57-43.87-5.74,19.64-5.74,43.87-5.74S124.67,184.08,124.67,187.25Z"/><path class="cls-52" d="M72.29,201.52c0,1.64-6.21,3-13.86,3s-13.87-1.34-13.87-3,6.21-3,13.87-3S72.29,199.87,72.29,201.52Z"/><path class="cls-53" d="M164.8,210.14c0,2-10.35,3.68-23.11,3.68s-23.12-1.65-23.12-3.68,10.35-3.69,23.12-3.69S164.8,208.1,164.8,210.14Z"/><path class="cls-54" d="M58.82,210.14c0,2,10.34,3.68,23.11,3.68S105,212.17,105,210.14s-10.34-3.69-23.11-3.69S58.82,208.1,58.82,210.14Z"/><path class="cls-55" d="M102.49,163.78l4.9,1,.38-8.38h0A8.55,8.55,0,0,0,91.17,153h0L88,160.75l5.1,1.06a8.57,8.57,0,0,0,9.44,2Z"/><path class="cls-56" d="M107.52,163.43h0a9.93,9.93,0,0,0-19.14-4.16h0L75.69,187.61l32.21,6.72Z"/><path class="cls-55" d="M99.51,194.44l8.23,1.71.3-12.89.06-1.89A13.53,13.53,0,0,0,97,167.08a14.38,14.38,0,0,0-16.44,9.2h0l-5.38,13.08,8.56,1.78a14.35,14.35,0,0,0,15.84,3.31Z"/><path class="cls-57" d="M101,147.48a8.49,8.49,0,0,0-3-.08l-4.76,14.5L86.88,181l7.83,1.63,3.8-18.26L102,147.77A7,7,0,0,0,101,147.48Z"/><path class="cls-58" d="M106.56,196.77a15.64,15.64,0,1,1-12.12-18.5A15.63,15.63,0,0,1,106.56,196.77Z"/><path class="cls-59" d="M105.3,193.4a13.72,13.72,0,1,1-10.72-15.77A13.5,13.5,0,0,1,105.3,193.4Z"/><path class="cls-60" d="M87.82,210.06a16.83,16.83,0,1,1,19.92-13A16.84,16.84,0,0,1,87.82,210.06Zm6.38-30.61a14.44,14.44,0,1,0,11.19,17.08A14.44,14.44,0,0,0,94.2,179.45Z"/><path class="cls-61" d="M101.55,194.07a5.09,5.09,0,1,1-3.94-6A5.1,5.1,0,0,1,101.55,194.07Z"/><path class="cls-55" d="M120.65,163.78l-4.9,1-.37-8.38h0A8.55,8.55,0,0,1,132,153h0l3.21,7.79-5.1,1.06a8.57,8.57,0,0,1-9.44,2Z"/><path class="cls-56" d="M115.62,163.43h0a9.93,9.93,0,0,1,19.15-4.16h0l12.66,28.35-32.21,6.72Z"/><path class="cls-55" d="M123.63,194.44l-8.23,1.71-.3-12.89,0-1.89a13.52,13.52,0,0,1,11.14-14.29,14.39,14.39,0,0,1,16.45,9.2h0L148,189.35l-8.57,1.78a14.35,14.35,0,0,1-15.84,3.31Z"/><path class="cls-57" d="M122.18,147.48a8.54,8.54,0,0,1,3.06-.08L130,161.9,136.27,181l-7.83,1.63-3.81-18.26-3.47-16.63A7,7,0,0,1,122.18,147.48Z"/><path class="cls-58" d="M116.58,196.77a15.64,15.64,0,1,0,12.12-18.5A15.64,15.64,0,0,0,116.58,196.77Z"/><path class="cls-59" d="M117.85,193.4a13.72,13.72,0,1,0,10.72-15.77A13.49,13.49,0,0,0,117.85,193.4Z"/><path class="cls-60" d="M115.41,197a16.84,16.84,0,1,1,19.92,13A16.85,16.85,0,0,1,115.41,197Zm2.35-.49A14.44,14.44,0,1,0,129,179.45,14.46,14.46,0,0,0,117.76,196.53Z"/><path class="cls-61" d="M121.59,194.07a5.09,5.09,0,1,0,4-6A5.1,5.1,0,0,0,121.59,194.07Z"/><path class="cls-55" d="M106.26,181.84s4.72-6.11,10.83,0v-9.9s-4.71-5.62-10.6.27Z"/><path class="cls-55" d="M106.57,168.39s4.45-5.91,10.22,0l-.64-9.9s-4.13-5.16-8.86.27Z"/><path class="cls-62" d="M56.51,194.41l-6.17,7.25-1.19-9.44,20.27-68.09A2.1,2.1,0,0,1,72,122.72l3.34,1a2.11,2.11,0,0,1,1.41,2.61Z"/><path class="cls-63" d="M56.51,194.41l-6.17,7.25L52.93,193,73.7,123.21l1.67.5a2.11,2.11,0,0,1,1.41,2.61Z"/><path class="cls-24" d="M56.51,194.41l-6.17,7.25-1.19-9.44,19.39-65.14a22.16,22.16,0,0,1,7.36,2.19Z"/><path class="cls-64" d="M56.51,194.41l-6.17,7.25L52.93,193l19.39-65.13a21.19,21.19,0,0,1,3.58,1.42Z"/><path class="cls-65" d="M56.51,194.41l-6.17,7.25-1.19-9.44,18.69-62.79a20.48,20.48,0,0,1,7.36,2.19Z"/><path class="cls-66" d="M56.51,194.41l-6.17,7.25L52.93,193l18.7-62.8a19.31,19.31,0,0,1,3.57,1.44Z"/><path class="cls-24" d="M56.51,194.41l-6.17,7.25-1.19-9.44a21.26,21.26,0,0,1,7.36,2.19Z"/><path class="cls-64" d="M56.51,194.41l-6.17,7.25L52.93,193A21,21,0,0,1,56.51,194.41Z"/><path class="cls-67" d="M52.38,199.27l-2,2.39L50,198.54a8.13,8.13,0,0,1,1.25.25A6.93,6.93,0,0,1,52.38,199.27Z"/></g></g></svg>