<svg xmlns="http://www.w3.org/2000/svg" xmlns:xlink="http://www.w3.org/1999/xlink" viewBox="0 0 218.32 236.79"><defs><style>.cls-1{mask:url(#mask);filter:url(#luminosity-noclip-5);}.cls-12,.cls-14,.cls-18,.cls-2,.cls-20,.cls-23,.cls-37,.cls-4,.cls-45,.cls-6,.cls-8{mix-blend-mode:multiply;}.cls-2{fill:url(#radial-gradient);}.cls-3{mask:url(#mask-2);filter:url(#luminosity-noclip-6);}.cls-4{fill:url(#radial-gradient-2);}.cls-5{mask:url(#mask-3);filter:url(#luminosity-noclip-7);}.cls-6{fill:url(#radial-gradient-3);}.cls-7{mask:url(#mask-4);filter:url(#luminosity-noclip-8);}.cls-8{fill:url(#radial-gradient-4);}.cls-9{fill:none;}.cls-10{isolation:isolate;}.cls-11{mask:url(#mask-5);}.cls-12{fill:url(#Degradado_sin_nombre_153);}.cls-13{mask:url(#mask-6);}.cls-14{fill:url(#Degradado_sin_nombre_151);}.cls-15{fill:#e4ecec;}.cls-16{clip-path:url(#clip-path);}.cls-17{mask:url(#mask-7);}.cls-18{fill:url(#Degradado_sin_nombre_153-2);}.cls-19{mask:url(#mask-8);}.cls-20{fill:url(#Degradado_sin_nombre_151-2);}.cls-21{fill:#93d500;}.cls-22{fill:#fefefe;}.cls-23{fill:url(#radial-gradient-5);}.cls-24{fill:#78bda3;}.cls-24,.cls-25,.cls-33,.cls-34,.cls-35,.cls-36,.cls-38,.cls-39,.cls-40,.cls-41,.cls-42,.cls-43{fill-rule:evenodd;}.cls-25,.cls-46{fill:#fff;}.cls-26{fill:#cacaca;}.cls-27{fill:#6db2c0;}.cls-28,.cls-36{fill:#4d8cb2;}.cls-29,.cls-35{fill:#90bee7;}.cls-30,.cls-34{fill:#a4c9ee;}.cls-31,.cls-33{fill:#b5d5f4;}.cls-32{fill:#c7e2fa;}.cls-37{fill:url(#radial-gradient-6);}.cls-38{fill:gray;}.cls-39{fill:#4d4d4d;}.cls-40{fill:#e4e4e4;}.cls-41{fill:#ea7b5d;}.cls-42{fill:#d75430;}.cls-43{fill:#666;}.cls-44{fill:#00c2b0;}.cls-45{opacity:0.15;}.cls-47{filter:url(#luminosity-noclip-4);}.cls-48{filter:url(#luminosity-noclip-3);}.cls-49{filter:url(#luminosity-noclip-2);}.cls-50{filter:url(#luminosity-noclip);}</style><filter id="luminosity-noclip" x="102.74" y="-8576" width="114.57" height="32766" filterUnits="userSpaceOnUse" color-interpolation-filters="sRGB"><feFlood flood-color="#fff" result="bg"/><feBlend in="SourceGraphic" in2="bg"/></filter><mask id="mask" x="102.74" y="-8576" width="114.57" height="32766" maskUnits="userSpaceOnUse"><g class="cls-50"/></mask><radialGradient id="radial-gradient" cx="-247.1" cy="266.25" r="39.98" gradientTransform="matrix(1, 0.3, -1.03, 0.13, 680.35, 265.47)" gradientUnits="userSpaceOnUse"><stop offset="0.5" stop-color="#a6a6a6"/><stop offset="0.6" stop-color="#a3a3a3"/><stop offset="0.67" stop-color="#999"/><stop offset="0.75" stop-color="#888"/><stop offset="0.81" stop-color="#707070"/><stop offset="0.88" stop-color="#515151"/><stop offset="0.94" stop-color="#2c2c2c"/><stop offset="1"/></radialGradient><filter id="luminosity-noclip-2" x="0.47" y="-8576" width="114.57" height="32766" filterUnits="userSpaceOnUse" color-interpolation-filters="sRGB"><feFlood flood-color="#fff" result="bg"/><feBlend in="SourceGraphic" in2="bg"/></filter><mask id="mask-2" x="0.47" y="-8576" width="114.57" height="32766" maskUnits="userSpaceOnUse"><g class="cls-49"/></mask><radialGradient id="radial-gradient-2" cx="74.46" cy="-486.27" r="39.98" gradientTransform="matrix(-1, 0.3, 1.03, 0.13, 632.97, 265.47)" xlink:href="#radial-gradient"/><filter id="luminosity-noclip-3" x="107.7" y="-8576" width="92.69" height="32766" filterUnits="userSpaceOnUse" color-interpolation-filters="sRGB"><feFlood flood-color="#fff" result="bg"/><feBlend in="SourceGraphic" in2="bg"/></filter><mask id="mask-3" x="107.7" y="-8576" width="92.69" height="32766" maskUnits="userSpaceOnUse"><g class="cls-48"/></mask><radialGradient id="radial-gradient-3" cx="-366.79" cy="-914.57" r="33.28" gradientTransform="matrix(0.97, 0.3, -1, 0.13, -407.06, 265.47)" xlink:href="#radial-gradient"/><filter id="luminosity-noclip-4" x="25.68" y="-8576" width="92.69" height="32766" filterUnits="userSpaceOnUse" color-interpolation-filters="sRGB"><feFlood flood-color="#fff" result="bg"/><feBlend in="SourceGraphic" in2="bg"/></filter><mask id="mask-4" x="25.68" y="-8576" width="92.69" height="32766" maskUnits="userSpaceOnUse"><g class="cls-47"/></mask><radialGradient id="radial-gradient-4" cx="-694.88" cy="-146.78" r="33.28" gradientTransform="matrix(-0.97, 0.3, 1, 0.13, -453.11, 265.47)" xlink:href="#radial-gradient"/><filter id="luminosity-noclip-5" x="102.74" y="212.73" width="114.57" height="25.94" filterUnits="userSpaceOnUse" color-interpolation-filters="sRGB"><feFlood flood-color="#fff" result="bg"/><feBlend in="SourceGraphic" in2="bg"/></filter><mask id="mask-5" x="102.74" y="212.73" width="114.57" height="25.94" maskUnits="userSpaceOnUse"><g class="cls-1"><path class="cls-2" d="M217.29,230.53c-.53,6.64-26.62,9.87-58.26,7.21s-56.83-10.22-56.28-16.87S129.4,211,161,213.66,217.85,223.88,217.29,230.53Z"/></g></mask><radialGradient id="Degradado_sin_nombre_153" cx="-247.1" cy="266.25" r="39.98" gradientTransform="matrix(1, 0.3, -1.03, 0.13, 680.35, 265.47)" gradientUnits="userSpaceOnUse"><stop offset="0" stop-color="#3c3c3b"/><stop offset="1" stop-color="#fff" stop-opacity="0"/></radialGradient><filter id="luminosity-noclip-6" x="0.47" y="212.73" width="114.57" height="25.94" filterUnits="userSpaceOnUse" color-interpolation-filters="sRGB"><feFlood flood-color="#fff" result="bg"/><feBlend in="SourceGraphic" in2="bg"/></filter><mask id="mask-6" x="0.47" y="212.73" width="114.57" height="25.94" maskUnits="userSpaceOnUse"><g class="cls-3"><path class="cls-4" d="M.48,230.53c.53,6.64,26.63,9.87,58.26,7.21s56.83-10.22,56.29-16.87S88.37,211,56.76,213.66-.07,223.88.48,230.53Z"/></g></mask><radialGradient id="Degradado_sin_nombre_151" cx="74.46" cy="-486.27" r="39.98" gradientTransform="matrix(-1, 0.3, 1.03, 0.13, 632.97, 265.47)" gradientUnits="userSpaceOnUse"><stop offset="0" stop-color="#3c3c3b"/><stop offset="0" stop-color="#3d3d3c"/><stop offset="1" stop-color="#fff" stop-opacity="0"/></radialGradient><clipPath id="clip-path"><rect class="cls-9" x="30.99" y="41.17" width="163.4" height="10.43"/></clipPath><filter id="luminosity-noclip-7" x="107.7" y="28.68" width="92.69" height="21.6" filterUnits="userSpaceOnUse" color-interpolation-filters="sRGB"><feFlood flood-color="#fff" result="bg"/><feBlend in="SourceGraphic" in2="bg"/></filter><mask id="mask-7" x="107.7" y="28.68" width="92.69" height="21.6" maskUnits="userSpaceOnUse"><g class="cls-5"><path class="cls-6" d="M200.38,43.5c-.44,5.53-21.55,8.22-47.14,6s-46-8.5-45.53-14,21.56-8.22,47.13-6S200.82,38,200.38,43.5Z"/></g></mask><radialGradient id="Degradado_sin_nombre_153-2" cx="-366.79" cy="-914.57" r="33.28" gradientTransform="matrix(0.97, 0.3, -1, 0.13, -407.06, 265.47)" xlink:href="#Degradado_sin_nombre_153"/><filter id="luminosity-noclip-8" x="25.68" y="28.68" width="92.69" height="21.6" filterUnits="userSpaceOnUse" color-interpolation-filters="sRGB"><feFlood flood-color="#fff" result="bg"/><feBlend in="SourceGraphic" in2="bg"/></filter><mask id="mask-8" x="25.68" y="28.68" width="92.69" height="21.6" maskUnits="userSpaceOnUse"><g class="cls-7"><path class="cls-8" d="M25.69,43.5c.43,5.53,21.54,8.22,47.13,6s46-8.5,45.54-14-21.57-8.22-47.14-6S25.24,38,25.69,43.5Z"/></g></mask><radialGradient id="Degradado_sin_nombre_151-2" cx="-694.88" cy="-146.78" r="33.28" gradientTransform="matrix(-0.97, 0.3, 1, 0.13, -453.11, 265.47)" xlink:href="#Degradado_sin_nombre_151"/><radialGradient id="radial-gradient-5" cx="552.11" cy="-3808.31" fx="518.9714872070713" fy="-3816.1217164233813" r="53.83" gradientTransform="translate(-331.06 608.66) scale(0.81 0.11)" gradientUnits="userSpaceOnUse"><stop offset="0" stop-color="#666"/><stop offset="0.25" stop-color="#838383" stop-opacity="0.79"/><stop offset="0.78" stop-color="#cdcdcd" stop-opacity="0.25"/><stop offset="1" stop-color="#efefef" stop-opacity="0"/></radialGradient><radialGradient id="radial-gradient-6" cx="-2470.91" cy="-3779.59" fx="-2488.146830835691" fy="-3779.5853462222144" r="28" gradientTransform="translate(1390.19 608.66) scale(0.49 0.11)" xlink:href="#radial-gradient-5"/></defs><g class="cls-10"><g id="Capa_1" data-name="Capa 1"><g class="cls-11"><path class="cls-12" d="M217.29,230.53c-.53,6.64-26.62,9.87-58.26,7.21s-56.83-10.22-56.28-16.87S129.4,211,161,213.66,217.85,223.88,217.29,230.53Z"/></g><g class="cls-13"><path class="cls-14" d="M.48,230.53c.53,6.64,26.63,9.87,58.26,7.21s56.83-10.22,56.29-16.87S88.37,211,56.76,213.66-.07,223.88.48,230.53Z"/></g><rect class="cls-15" x="1.74" y="12.79" width="214.28" height="216.19" rx="21.6"/><g class="cls-16"><g class="cls-17"><path class="cls-18" d="M200.38,43.5c-.44,5.53-21.55,8.22-47.14,6s-46-8.5-45.53-14,21.56-8.22,47.13-6S200.82,38,200.38,43.5Z"/></g><g class="cls-19"><path class="cls-20" d="M25.69,43.5c.43,5.53,21.54,8.22,47.13,6s46-8.5,45.54-14-21.57-8.22-47.14-6S25.24,38,25.69,43.5Z"/></g></g><rect class="cls-21" x="17.64" y="1.93" width="185.91" height="39.06" rx="18.64"/><path class="cls-22" d="M60.1,15.27A1.14,1.14,0,0,1,61.34,14h2.81c2.47,0,4,1.11,4,3.62,0,1.76-1.33,2.77-3,3l2.72,2.91a1.06,1.06,0,0,1,.32.71,1.21,1.21,0,0,1-2.13.81l-3.55-4.3h0v3.47a1.2,1.2,0,1,1-2.4,0Zm2.4,3.8h1.65a1.37,1.37,0,0,0,1.49-1.43,1.35,1.35,0,0,0-1.49-1.41H62.5Z"/><path class="cls-22" d="M76.86,21.18a4.14,4.14,0,1,1-8.26,0,4.14,4.14,0,1,1,8.26,0Zm-6,0c0,1.1.58,2.32,1.83,2.32s1.82-1.22,1.82-2.32-.56-2.35-1.82-2.35S70.9,20.08,70.9,21.18Z"/><path class="cls-22" d="M77.8,14.38a1.16,1.16,0,1,1,2.3,0v9.86a1.16,1.16,0,1,1-2.3,0Z"/><path class="cls-22" d="M93.55,24.24a1.16,1.16,0,0,1-1.16,1.28,1.1,1.1,0,0,1-1.15-1,2.51,2.51,0,0,1-2.11,1.05c-2.32,0-3.79-2.16-3.79-4.33s1.23-4.57,3.71-4.57a3.38,3.38,0,0,1,2.19.8V14.38a1.16,1.16,0,1,1,2.31,0Zm-4.12-5.41c-1.2,0-1.79,1.26-1.79,2.35s.59,2.32,1.79,2.32,1.81-1.28,1.81-2.4S90.67,18.83,89.43,18.83Z"/><path class="cls-22" d="M96.71,21.93a2,2,0,0,0,2.18,1.67c1.18,0,2-.93,2.61-.93a1,1,0,0,1,.94,1c0,1-2,1.95-3.76,1.95a4.2,4.2,0,0,1-4.32-4.43,4.14,4.14,0,1,1,8.27-.27c0,.69-.3,1-1,1Zm3.62-1.53a1.83,1.83,0,0,0-1.84-1.77,1.87,1.87,0,0,0-1.83,1.77Z"/><path class="cls-22" d="M115.61,24c0,.59,0,1.51-1.1,1.51-.68,0-1-.37-1.11-1a2.73,2.73,0,0,1-2.19,1.07c-2.16,0-3.81-1.84-3.81-4.43s1.7-4.47,3.81-4.47a2.63,2.63,0,0,1,2.19,1.06,1.1,1.1,0,0,1,1.11-1c1.1,0,1.1.91,1.1,1.5Zm-4.08-.51c1.2,0,1.78-1.22,1.78-2.32s-.56-2.35-1.78-2.35-1.83,1.25-1.83,2.35S110.28,23.5,111.53,23.5Z"/><path class="cls-22" d="M116.92,18.09a1.16,1.16,0,0,1,1.15-1.28,1,1,0,0,1,1.06.85,2.47,2.47,0,0,1,2.22-.95,3,3,0,0,1,3.16,3.11v4.42a1.16,1.16,0,1,1-2.31,0v-4a1.49,1.49,0,1,0-3,0v4a1.16,1.16,0,1,1-2.3,0Z"/><path class="cls-22" d="M133.69,24c0,.59,0,1.51-1.1,1.51-.68,0-1-.37-1.11-1a2.73,2.73,0,0,1-2.19,1.07c-2.16,0-3.81-1.84-3.81-4.43s1.69-4.47,3.81-4.47a2.63,2.63,0,0,1,2.19,1.06,1.1,1.1,0,0,1,1.11-1c1.1,0,1.1.91,1.1,1.5Zm-4.08-.51c1.2,0,1.77-1.22,1.77-2.32s-.56-2.35-1.77-2.35-1.83,1.25-1.83,2.35S128.36,23.5,129.61,23.5Z"/><path class="cls-22" d="M135,14.38a1.16,1.16,0,1,1,2.3,0v9.86a1.16,1.16,0,1,1-2.3,0Z"/><path class="cls-22" d="M141,14.62a1.32,1.32,0,0,1-1.3,1.33,1.36,1.36,0,0,1-1.3-1.33,1.33,1.33,0,0,1,1.3-1.27A1.32,1.32,0,0,1,141,14.62Zm-2.45,3.47a1.16,1.16,0,1,1,2.3,0v6.15a1.16,1.16,0,1,1-2.3,0Z"/><path class="cls-22" d="M147,19.4c-.43,0-1.31-.67-2.06-.67-.42,0-.79.19-.79.64,0,1.07,4,.91,4,3.54,0,1.53-1.29,2.7-3.28,2.7-1.29,0-3.21-.73-3.21-1.77a1.08,1.08,0,0,1,1-1c.89,0,1.29.79,2.38.79.71,0,.92-.23.92-.66,0-1.06-4-.9-4-3.54,0-1.6,1.3-2.69,3.12-2.69,1.14,0,2.89.53,2.89,1.67A1,1,0,0,1,147,19.4Z"/><path class="cls-22" d="M149.48,18.92H149a.93.93,0,0,1-1-1,1,1,0,0,1,1-1h.51V15.53a1.16,1.16,0,1,1,2.3,0v1.38h.66c.59,0,1.1.27,1.1,1a1,1,0,0,1-1.1,1h-.66v5.32a1.16,1.16,0,1,1-2.3,0Z"/><path class="cls-22" d="M161.53,24c0,.59,0,1.51-1.11,1.51-.67,0-.94-.37-1.1-1a2.73,2.73,0,0,1-2.19,1.07c-2.16,0-3.81-1.84-3.81-4.43s1.69-4.47,3.81-4.47a2.63,2.63,0,0,1,2.19,1.06,1.09,1.09,0,0,1,1.1-1c1.11,0,1.11.91,1.11,1.5Zm-4.08-.51c1.2,0,1.77-1.22,1.77-2.32s-.56-2.35-1.77-2.35-1.83,1.25-1.83,2.35S156.2,23.5,157.45,23.5Z"/><path class="cls-23" d="M163.18,201.54c0,3.17-19.64,5.74-43.87,5.74s-43.88-2.57-43.88-5.74,19.64-5.74,43.88-5.74S163.18,198.37,163.18,201.54Z"/><path class="cls-24" d="M53,95.1a8.81,8.81,0,0,1,5.82-11l62.12-19.16,3.42-1.06a8.82,8.82,0,0,1,11,5.82l30.74,99.66a8.81,8.81,0,0,1-5.82,11L94.74,200.58a8.8,8.8,0,0,1-11-5.82Z"/><path class="cls-25" d="M63,79.12A9.19,9.19,0,0,1,71.13,69l64.29-6.78,3.2-.33a9.17,9.17,0,0,1,10.08,8.16l10.86,103a9.17,9.17,0,0,1-8.16,10.08l-67.48,7.12a9.17,9.17,0,0,1-10.08-8.16Z"/><rect class="cls-26" x="85.43" y="78.46" width="41.85" height="2.04" transform="translate(-7.75 11.59) rotate(-6.02)"/><rect class="cls-26" x="71.7" y="83.53" width="70.38" height="2.04" transform="translate(-8.28 11.68) rotate(-6.02)"/><rect class="cls-26" x="72.07" y="87.08" width="70.38" height="2.04" transform="translate(-8.65 11.73) rotate(-6.02)"/><rect class="cls-26" x="72.45" y="90.64" width="70.38" height="2.04" transform="translate(-9.02 11.79) rotate(-6.02)"/><rect class="cls-26" x="72.92" y="96.15" width="32.98" height="2.04" transform="translate(-9.7 9.91) rotate(-6.02)"/><rect class="cls-26" x="82.95" y="142.56" width="65.3" height="0.88" transform="translate(-14.36 12.91) rotate(-6.02)"/><rect class="cls-26" x="80.52" y="105.07" width="0.88" height="41.48" transform="translate(-12.75 9.18) rotate(-6.02)"/><rect class="cls-26" x="92.9" y="103.76" width="0.88" height="41.48" transform="translate(-12.54 10.48) rotate(-6.02)"/><rect class="cls-26" x="105.29" y="102.45" width="0.88" height="41.48" transform="translate(-12.34 11.77) rotate(-6.02)"/><rect class="cls-26" x="117.67" y="101.15" width="0.88" height="41.48" transform="translate(-12.13 13.05) rotate(-6.02)"/><rect class="cls-26" x="130.31" y="99.84" width="0.88" height="41.45" transform="translate(-10.62 12.65) rotate(-5.32)"/><rect class="cls-26" x="142.44" y="98.54" width="0.88" height="41.48" transform="translate(-11.72 15.64) rotate(-6.02)"/><polygon class="cls-26" points="82.07 136.31 147.01 129.46 147.1 130.34 82.16 137.19 82.07 136.31"/><polygon class="cls-26" points="81.05 126.63 146.03 120.25 146.11 121.13 81.14 127.51 81.05 126.63"/><rect class="cls-26" x="79.89" y="113.53" width="65.3" height="0.88" transform="translate(-11.33 12.43) rotate(-6.02)"/><rect class="cls-26" x="78.87" y="103.85" width="65.3" height="0.88" transform="translate(-10.32 12.27) rotate(-6.02)"/><polygon class="cls-27" points="92.99 115.74 82.17 146.24 83.41 146.68 93.82 117.36 106.35 134.53 106.8 135.14 107.34 134.61 118.33 123.98 131.3 132.09 132.04 132.54 132.28 131.71 139.48 107.43 142.16 108.22 140.63 101.22 135.54 106.26 138.21 107.05 131.26 130.5 118.6 122.59 118.16 122.32 117.79 122.68 106.97 133.13 94.15 115.57 93.41 114.56 92.99 115.74"/><rect class="cls-26" x="81.48" y="147.72" width="3.79" height="1.93" transform="translate(-15.13 9.56) rotate(-6.02)"/><rect class="cls-26" x="93.86" y="146.41" width="3.79" height="1.93" transform="translate(-14.89 10.83) rotate(-6)"/><rect class="cls-26" x="106.24" y="145.11" width="3.79" height="1.93" transform="translate(-14.69 12.11) rotate(-6)"/><rect class="cls-26" x="118.63" y="143.8" width="3.79" height="1.93" transform="translate(-14.48 13.4) rotate(-6)"/><rect class="cls-26" x="131.01" y="142.49" width="3.79" height="1.93" transform="translate(-14.31 14.73) rotate(-6.02)"/><rect class="cls-26" x="143.4" y="141.19" width="3.79" height="1.93" transform="translate(-14.11 16.02) rotate(-6.02)"/><rect class="cls-26" x="77.05" y="136.12" width="3.79" height="1.93" transform="translate(-13.94 9.03) rotate(-6.02)"/><rect class="cls-26" x="76.03" y="126.44" width="3.79" height="1.93" transform="matrix(0.99, -0.11, 0.11, 0.99, -12.96, 8.9)"/><rect class="cls-26" x="75.01" y="116.76" width="3.79" height="1.93" transform="translate(-11.92 8.71) rotate(-6.02)"/><rect class="cls-26" x="74.11" y="108.21" width="3.79" height="1.93" transform="translate(-11.06 8.6) rotate(-6.03)"/><rect class="cls-26" x="83.4" y="180.99" width="35.48" height="4.03" transform="translate(-18.63 11.62) rotate(-6.02)"/><rect class="cls-28" x="82.06" y="159.52" width="6.31" height="23.07" transform="translate(-17.47 9.88) rotate(-6.02)"/><rect class="cls-29" x="89.77" y="167.43" width="6.31" height="14.37" transform="translate(-17.8 10.71) rotate(-6.02)"/><rect class="cls-30" x="97.28" y="171.52" width="6.31" height="9.51" transform="translate(-17.93 11.5) rotate(-6.02)"/><rect class="cls-31" x="104.3" y="166.31" width="6.31" height="13.96" transform="translate(-17.58 12.22) rotate(-6.02)"/><rect class="cls-32" x="111.76" y="169.51" width="6.31" height="9.99" transform="translate(-17.67 13.01) rotate(-6.02)"/><circle class="cls-32" cx="136.77" cy="167.07" r="14.12" transform="translate(-49.62 276.06) rotate(-81.01)"/><path class="cls-33" d="M130.28,179.61a14.15,14.15,0,0,1-5.34-4.82l11.83-7.72Z"/><path class="cls-34" d="M124.94,174.79a14.11,14.11,0,0,1,2-17.87l9.82,10.15Z"/><path class="cls-35" d="M127,156.92a14.06,14.06,0,0,1,8.34-3.9l1.48,14Z"/><path class="cls-36" d="M135.29,153l1.48,14,9-10.91A14.09,14.09,0,0,0,135.29,153Z"/><path class="cls-37" d="M181.2,205c0,1.64-6.2,3-13.86,3s-13.86-1.34-13.86-3,6.2-3,13.86-3S181.2,203.33,181.2,205Z"/><path class="cls-38" d="M165.42,197.87l-6.16,7.25-1.19-9.44,20.27-68.1a2.11,2.11,0,0,1,2.6-1.41l3.35,1a2.11,2.11,0,0,1,1.41,2.6Z"/><path class="cls-39" d="M165.42,197.87l-6.16,7.25,2.58-8.68,20.77-69.77,1.68.5a2.11,2.11,0,0,1,1.41,2.6Z"/><path class="cls-25" d="M165.42,197.87l-6.16,7.25-1.19-9.44,19.39-65.14a21.93,21.93,0,0,1,7.36,2.19Z"/><path class="cls-40" d="M165.42,197.87l-6.16,7.25,2.58-8.68,19.39-65.13a21.63,21.63,0,0,1,3.59,1.42Z"/><path class="cls-41" d="M165.42,197.87l-6.16,7.25-1.19-9.44,18.69-62.79a20.6,20.6,0,0,1,7.36,2.19Z"/><path class="cls-42" d="M165.42,197.87l-6.16,7.25,2.58-8.68,18.7-62.8a19.41,19.41,0,0,1,3.58,1.44Z"/><path class="cls-25" d="M165.42,197.87l-6.16,7.25-1.19-9.44a20.83,20.83,0,0,1,3.77.76A20.41,20.41,0,0,1,165.42,197.87Z"/><path class="cls-40" d="M165.42,197.87l-6.16,7.25,2.58-8.68A20.41,20.41,0,0,1,165.42,197.87Z"/><path class="cls-43" d="M161.3,202.72l-2,2.4-.4-3.12a7.09,7.09,0,0,1,1.25.25A8.42,8.42,0,0,1,161.3,202.72Z"/><circle class="cls-44" cx="150.81" cy="90.76" r="16.93"/><path class="cls-45" d="M167.63,88.86l-6.79-6.79c-6.54,2.64-10.48,9.74-11.83,16.46-3.61-.19-6-4.55-9.8-5.47l-.14.14,14.3,14.3a16.94,16.94,0,0,0,14.37-16.74A17.15,17.15,0,0,0,167.63,88.86Z"/><path class="cls-46" d="M141.23,90.23l-2.15,3,9.79,7.41A38.22,38.22,0,0,1,154,88.79c3.58-5,6.93-6.69,6.93-6.69s-4.6.59-9,6.69a24.65,24.65,0,0,0-4.06,7.89Z"/></g></g></svg>