<svg xmlns="http://www.w3.org/2000/svg" xmlns:xlink="http://www.w3.org/1999/xlink" viewBox="0 0 217.72 235.83"><defs><style>.cls-1{mask:url(#mask);filter:url(#luminosity-noclip-5);}.cls-12,.cls-14,.cls-18,.cls-2,.cls-20,.cls-23,.cls-24,.cls-4,.cls-6,.cls-8{mix-blend-mode:multiply;}.cls-2{fill:url(#radial-gradient);}.cls-3{mask:url(#mask-2);filter:url(#luminosity-noclip-6);}.cls-4{fill:url(#radial-gradient-2);}.cls-5{mask:url(#mask-3);filter:url(#luminosity-noclip-7);}.cls-6{fill:url(#radial-gradient-3);}.cls-7{mask:url(#mask-4);filter:url(#luminosity-noclip-8);}.cls-8{fill:url(#radial-gradient-4);}.cls-9{fill:none;}.cls-10{isolation:isolate;}.cls-11{mask:url(#mask-5);}.cls-12{fill:url(#Degradado_sin_nombre_153);}.cls-13{mask:url(#mask-6);}.cls-14{fill:url(#Degradado_sin_nombre_151);}.cls-15{fill:#ececec;}.cls-16{clip-path:url(#clip-path);}.cls-17{mask:url(#mask-7);}.cls-18{fill:url(#Degradado_sin_nombre_153-2);}.cls-19{mask:url(#mask-8);}.cls-20{fill:url(#Degradado_sin_nombre_151-2);}.cls-21{fill:#93d500;}.cls-22{fill:#fefefe;}.cls-23{fill:url(#radial-gradient-5);}.cls-24{fill:url(#radial-gradient-6);}.cls-25{fill:#1f3b51;}.cls-26{fill:#307c9e;}.cls-27,.cls-29{fill:#ebebeb;}.cls-27{opacity:0.3;}.cls-28{fill:#ccc;}.cls-30{fill:#03698e;}.cls-31{fill:#fff;}.cls-32{filter:url(#luminosity-noclip-4);}.cls-33{filter:url(#luminosity-noclip-3);}.cls-34{filter:url(#luminosity-noclip-2);}.cls-35{filter:url(#luminosity-noclip);}</style><filter id="luminosity-noclip" x="102.72" y="-8574.67" width="114.57" height="32766" filterUnits="userSpaceOnUse" color-interpolation-filters="sRGB"><feFlood flood-color="#fff" result="bg"/><feBlend in="SourceGraphic" in2="bg"/></filter><mask id="mask" x="102.72" y="-8574.67" width="114.57" height="32766" maskUnits="userSpaceOnUse"><g class="cls-35"/></mask><radialGradient id="radial-gradient" cx="-244.69" cy="267.28" r="39.98" gradientTransform="matrix(1, 0.3, -1.03, 0.13, 678.99, 264.15)" gradientUnits="userSpaceOnUse"><stop offset="0.5" stop-color="#a6a6a6"/><stop offset="0.6" stop-color="#a3a3a3"/><stop offset="0.67" stop-color="#999"/><stop offset="0.75" stop-color="#888"/><stop offset="0.81" stop-color="#707070"/><stop offset="0.88" stop-color="#515151"/><stop offset="0.94" stop-color="#2c2c2c"/><stop offset="1"/></radialGradient><filter id="luminosity-noclip-2" x="0.45" y="-8574.67" width="114.57" height="32766" filterUnits="userSpaceOnUse" color-interpolation-filters="sRGB"><feFlood flood-color="#fff" result="bg"/><feBlend in="SourceGraphic" in2="bg"/></filter><mask id="mask-2" x="0.45" y="-8574.67" width="114.57" height="32766" maskUnits="userSpaceOnUse"><g class="cls-34"/></mask><radialGradient id="radial-gradient-2" cx="77.2" cy="-486.03" r="39.98" gradientTransform="matrix(-1, 0.3, 1.03, 0.13, 635.44, 264.15)" xlink:href="#radial-gradient"/><filter id="luminosity-noclip-3" x="107.68" y="-8574.67" width="92.69" height="32766" filterUnits="userSpaceOnUse" color-interpolation-filters="sRGB"><feFlood flood-color="#fff" result="bg"/><feBlend in="SourceGraphic" in2="bg"/></filter><mask id="mask-3" x="107.68" y="-8574.67" width="92.69" height="32766" maskUnits="userSpaceOnUse"><g class="cls-33"/></mask><radialGradient id="radial-gradient-3" cx="-364.39" cy="-913.54" r="33.28" gradientTransform="matrix(0.97, 0.3, -1, 0.13, -408.37, 264.15)" xlink:href="#radial-gradient"/><filter id="luminosity-noclip-4" x="25.66" y="-8574.67" width="92.69" height="32766" filterUnits="userSpaceOnUse" color-interpolation-filters="sRGB"><feFlood flood-color="#fff" result="bg"/><feBlend in="SourceGraphic" in2="bg"/></filter><mask id="mask-4" x="25.66" y="-8574.67" width="92.69" height="32766" maskUnits="userSpaceOnUse"><g class="cls-32"/></mask><radialGradient id="radial-gradient-4" cx="-692.13" cy="-146.55" r="33.28" gradientTransform="matrix(-0.97, 0.3, 1, 0.13, -450.69, 264.15)" xlink:href="#radial-gradient"/><filter id="luminosity-noclip-5" x="102.72" y="212.25" width="114.57" height="25.94" filterUnits="userSpaceOnUse" color-interpolation-filters="sRGB"><feFlood flood-color="#fff" result="bg"/><feBlend in="SourceGraphic" in2="bg"/></filter><mask id="mask-5" x="102.72" y="212.25" width="114.57" height="25.94" maskUnits="userSpaceOnUse"><g class="cls-1"><path class="cls-2" d="M217.28,230.05c-.54,6.65-26.63,9.88-58.27,7.21s-56.83-10.21-56.28-16.87,26.65-9.87,58.26-7.2S217.83,223.41,217.28,230.05Z"/></g></mask><radialGradient id="Degradado_sin_nombre_153" cx="-244.69" cy="267.28" r="39.98" gradientTransform="matrix(1, 0.3, -1.03, 0.13, 678.99, 264.15)" gradientUnits="userSpaceOnUse"><stop offset="0" stop-color="#3c3c3b"/><stop offset="1" stop-color="#fff" stop-opacity="0"/></radialGradient><filter id="luminosity-noclip-6" x="0.45" y="212.25" width="114.57" height="25.94" filterUnits="userSpaceOnUse" color-interpolation-filters="sRGB"><feFlood flood-color="#fff" result="bg"/><feBlend in="SourceGraphic" in2="bg"/></filter><mask id="mask-6" x="0.45" y="212.25" width="114.57" height="25.94" maskUnits="userSpaceOnUse"><g class="cls-3"><path class="cls-4" d="M.46,230.05c.53,6.65,26.63,9.88,58.26,7.21s56.83-10.21,56.29-16.87-26.66-9.87-58.27-7.2S-.09,223.41.46,230.05Z"/></g></mask><radialGradient id="Degradado_sin_nombre_151" cx="77.2" cy="-486.03" r="39.98" gradientTransform="matrix(-1, 0.3, 1.03, 0.13, 635.44, 264.15)" gradientUnits="userSpaceOnUse"><stop offset="0" stop-color="#3c3c3b"/><stop offset="0" stop-color="#3d3d3c"/><stop offset="1" stop-color="#fff" stop-opacity="0"/></radialGradient><clipPath id="clip-path"><rect class="cls-9" x="30.98" y="40.7" width="163.4" height="10.43"/></clipPath><filter id="luminosity-noclip-7" x="107.68" y="28.21" width="92.69" height="21.6" filterUnits="userSpaceOnUse" color-interpolation-filters="sRGB"><feFlood flood-color="#fff" result="bg"/><feBlend in="SourceGraphic" in2="bg"/></filter><mask id="mask-7" x="107.68" y="28.21" width="92.69" height="21.6" maskUnits="userSpaceOnUse"><g class="cls-5"><path class="cls-6" d="M200.36,43c-.44,5.53-21.55,8.22-47.14,6s-46-8.51-45.53-14,21.56-8.22,47.13-6S200.8,37.49,200.36,43Z"/></g></mask><radialGradient id="Degradado_sin_nombre_153-2" cx="-364.39" cy="-913.54" r="33.28" gradientTransform="matrix(0.97, 0.3, -1, 0.13, -408.37, 264.15)" xlink:href="#Degradado_sin_nombre_153"/><filter id="luminosity-noclip-8" x="25.66" y="28.21" width="92.69" height="21.6" filterUnits="userSpaceOnUse" color-interpolation-filters="sRGB"><feFlood flood-color="#fff" result="bg"/><feBlend in="SourceGraphic" in2="bg"/></filter><mask id="mask-8" x="25.66" y="28.21" width="92.69" height="21.6" maskUnits="userSpaceOnUse"><g class="cls-7"><path class="cls-8" d="M25.67,43c.43,5.53,21.54,8.22,47.13,6s46-8.51,45.54-14S96.77,26.77,71.2,29,25.22,37.49,25.67,43Z"/></g></mask><radialGradient id="Degradado_sin_nombre_151-2" cx="-692.13" cy="-146.55" r="33.28" gradientTransform="matrix(-0.97, 0.3, 1, 0.13, -450.69, 264.15)" xlink:href="#Degradado_sin_nombre_151"/><radialGradient id="radial-gradient-5" cx="-280.61" cy="-4013.57" fx="-316.216744747732" fy="-4021.9689094599753" r="57.83" gradientTransform="translate(349.32 607.47) scale(0.67 0.11)" gradientUnits="userSpaceOnUse"><stop offset="0" stop-color="#666"/><stop offset="0.25" stop-color="#838383" stop-opacity="0.79"/><stop offset="0.78" stop-color="#cdcdcd" stop-opacity="0.25"/><stop offset="1" stop-color="#efefef" stop-opacity="0"/></radialGradient><radialGradient id="radial-gradient-6" cx="9726.78" cy="-4013.57" fx="9691.177932898972" fy="-4021.9689128811447" r="57.83" gradientTransform="matrix(-0.67, 0, 0, 0.11, 6565.62, 607.47)" xlink:href="#radial-gradient-5"/></defs><g class="cls-10"><g id="Capa_1" data-name="Capa 1"><g class="cls-11"><path class="cls-12" d="M217.28,230.05c-.54,6.65-26.63,9.88-58.27,7.21s-56.83-10.21-56.28-16.87,26.65-9.87,58.26-7.2S217.83,223.41,217.28,230.05Z"/></g><g class="cls-13"><path class="cls-14" d="M.46,230.05c.53,6.65,26.63,9.88,58.26,7.21s56.83-10.21,56.29-16.87-26.66-9.87-58.27-7.2S-.09,223.41.46,230.05Z"/></g><rect class="cls-15" x="1.72" y="12.31" width="214.28" height="216.19" rx="21.6"/><g class="cls-16"><g class="cls-17"><path class="cls-18" d="M200.36,43c-.44,5.53-21.55,8.22-47.14,6s-46-8.51-45.53-14,21.56-8.22,47.13-6S200.8,37.49,200.36,43Z"/></g><g class="cls-19"><path class="cls-20" d="M25.67,43c.43,5.53,21.54,8.22,47.13,6s46-8.51,45.54-14S96.77,26.77,71.2,29,25.22,37.49,25.67,43Z"/></g></g><rect class="cls-21" x="17.62" y="1.45" width="185.91" height="39.06" rx="18.64"/><path class="cls-22" d="M53.86,17a1.22,1.22,0,0,1,1.33-1.35h3c2.66,0,4.31,1.19,4.31,3.91,0,1.9-1.44,3-3.2,3.27l2.94,3.14a1.12,1.12,0,0,1,.34.76A1.31,1.31,0,0,1,61.33,28a1.34,1.34,0,0,1-1-.45l-3.83-4.65h0v3.76a1.3,1.3,0,1,1-2.59,0Zm2.59,4.1h1.78a1.47,1.47,0,0,0,1.61-1.54A1.45,1.45,0,0,0,58.23,18H56.45Z"/><path class="cls-22" d="M72,23.35a4.47,4.47,0,1,1-8.92,0,4.47,4.47,0,1,1,8.92,0Zm-6.43,0c0,1.19.62,2.51,2,2.51s2-1.32,2-2.51-.61-2.54-2-2.54S65.53,22.16,65.53,23.35Z"/><path class="cls-22" d="M73,16a1.25,1.25,0,1,1,2.49,0V26.65a1.25,1.25,0,1,1-2.49,0Z"/><path class="cls-22" d="M90,26.65A1.26,1.26,0,0,1,88.74,28a1.19,1.19,0,0,1-1.24-1,2.71,2.71,0,0,1-2.28,1.14c-2.51,0-4.1-2.34-4.1-4.69s1.33-4.92,4-4.92a3.6,3.6,0,0,1,2.37.86V16A1.25,1.25,0,1,1,90,16Zm-4.44-5.84c-1.3,0-1.94,1.36-1.94,2.54s.64,2.51,1.94,2.51,2-1.39,2-2.6S86.88,20.81,85.55,20.81Z"/><path class="cls-22" d="M93.41,24.16A2.16,2.16,0,0,0,95.76,26c1.28,0,2.17-1,2.82-1a1.1,1.1,0,0,1,1,1.07c0,1.07-2.21,2.11-4.06,2.11a4.54,4.54,0,0,1-4.67-4.79,4.48,4.48,0,1,1,8.94-.3c0,.75-.33,1.11-1.09,1.11Zm3.91-1.66a2,2,0,0,0-2-1.9,2,2,0,0,0-2,1.9Z"/><path class="cls-22" d="M111.52,21.29c-.63,0-1.18-.48-2-.48-1.41,0-2.09,1.26-2.09,2.54a2.3,2.3,0,0,0,2.09,2.51,13.18,13.18,0,0,0,1.85-.52,1.1,1.1,0,0,1,1.08,1.09c0,1.28-2.15,1.71-3,1.71A4.53,4.53,0,0,1,105,23.35a4.63,4.63,0,0,1,4.46-4.82c1,0,3,.36,3,1.57C112.47,20.62,112.1,21.29,111.52,21.29Z"/><path class="cls-22" d="M121.89,23.35a4.47,4.47,0,1,1-8.92,0,4.47,4.47,0,1,1,8.92,0Zm-6.43,0c0,1.19.62,2.51,2,2.51s2-1.32,2-2.51-.61-2.54-2-2.54S115.46,22.16,115.46,23.35Z"/><path class="cls-22" d="M122.94,20a1.26,1.26,0,0,1,1.25-1.38,1.05,1.05,0,0,1,1.14.92,2.67,2.67,0,0,1,2.4-1,3.19,3.19,0,0,1,3.41,3.35v4.77a1.25,1.25,0,1,1-2.49,0V22.31a1.61,1.61,0,1,0-3.22,0v4.34a1.25,1.25,0,1,1-2.49,0Z"/><path class="cls-22" d="M137.79,21.43c-.46,0-1.41-.73-2.23-.73-.45,0-.84.21-.84.69,0,1.16,4.32,1,4.32,3.83,0,1.66-1.4,2.92-3.55,2.92-1.4,0-3.47-.8-3.47-1.92a1.18,1.18,0,0,1,1.07-1.11c1,0,1.4.85,2.58.85.76,0,1-.24,1-.71,0-1.14-4.32-1-4.32-3.82,0-1.73,1.4-2.9,3.37-2.9,1.23,0,3.11.57,3.11,1.79A1.08,1.08,0,0,1,137.79,21.43Z"/><path class="cls-22" d="M139.92,20a1.25,1.25,0,1,1,2.49,0v4.45a1.61,1.61,0,0,0,3.22,0V20a1.25,1.25,0,1,1,2.49,0v4.5c0,2.21-1.47,3.63-4.1,3.63s-4.1-1.42-4.1-3.63Z"/><path class="cls-22" d="M149.5,16A1.25,1.25,0,1,1,152,16V26.65a1.25,1.25,0,1,1-2.49,0Z"/><path class="cls-22" d="M154,20.91h-.56a1,1,0,0,1-1.09-1.09,1.07,1.07,0,0,1,1.09-1.09H154V17.25a1.25,1.25,0,1,1,2.49,0v1.48h.7a1.1,1.1,0,1,1,0,2.18h-.7v5.74a1.25,1.25,0,1,1-2.49,0Z"/><path class="cls-22" d="M167,26.41c0,.64,0,1.62-1.19,1.62-.72,0-1-.39-1.19-1.05a3,3,0,0,1-2.37,1.16c-2.33,0-4.12-2-4.12-4.79s1.84-4.82,4.12-4.82a2.85,2.85,0,0,1,2.37,1.14,1.18,1.18,0,0,1,1.19-1c1.19,0,1.19,1,1.19,1.62Zm-4.41-.55c1.3,0,1.92-1.32,1.92-2.51s-.6-2.54-1.92-2.54-2,1.35-2,2.54S161.24,25.86,162.58,25.86Z"/><path class="cls-23" d="M200.83,178.4c0,3.4-17.32,6.16-38.68,6.16s-38.67-2.76-38.67-6.16,17.31-6.17,38.67-6.17S200.83,175,200.83,178.4Z"/><path class="cls-24" d="M23.5,178.4c0,3.4,17.31,6.16,38.67,6.16s38.67-2.76,38.67-6.16-17.31-6.17-38.67-6.17S23.5,175,23.5,178.4Z"/><path class="cls-25" d="M96.57,100.83l8.21,1.71.62-14h0a14.31,14.31,0,0,0-27.75-5.78h0l-5.36,13,8.53,1.78a14.32,14.32,0,0,0,15.79,3.29Z"/><path class="cls-26" d="M105,100.25h0a16.61,16.61,0,0,0-32-7h0L51.73,140.71,105.63,152Z"/><path class="cls-25" d="M91.59,152.12,105.36,155l.5-21.56.09-3.17c.52-11.9-6.79-21.43-18.65-23.9a24.08,24.08,0,0,0-27.51,15.38h0l-9,21.87,14.32,3a24,24,0,0,0,26.51,5.52Z"/><path class="cls-27" d="M94,73.56a14.5,14.5,0,0,0-5.12-.13L81,97.69l-10.5,32,13.1,2.73,6.36-30.55L95.72,74A14.3,14.3,0,0,0,94,73.56Z"/><path class="cls-28" d="M103.38,156a26.17,26.17,0,1,1-20.27-31A26.17,26.17,0,0,1,103.38,156Z"/><path class="cls-29" d="M101.27,150.4c-2.5,12-14.59,19.61-27,17S53.85,153,56.35,141s14.58-19.61,27-17S103.76,138.41,101.27,150.4Z"/><path class="cls-30" d="M72,178.28a28.18,28.18,0,1,1,33.33-21.83A28.2,28.2,0,0,1,72,178.28ZM82.7,127.05a24.16,24.16,0,1,0,18.72,28.58A24.18,24.18,0,0,0,82.7,127.05Z"/><path class="cls-31" d="M95,151.51a8.52,8.52,0,1,1-6.6-10.07A8.53,8.53,0,0,1,95,151.51Z"/><path class="cls-25" d="M127,100.83l-8.2,1.71-.63-14h0a14.31,14.31,0,0,1,27.75-5.78h0l5.37,13-8.54,1.78A14.32,14.32,0,0,1,127,100.83Z"/><path class="cls-26" d="M118.54,100.25h0a16.61,16.61,0,0,1,32-7h0l21.19,47.43L117.9,152Z"/><path class="cls-25" d="M131.94,152.12,118.17,155l-.5-21.56-.09-3.17c-.52-11.9,6.79-21.43,18.65-23.9a24.08,24.08,0,0,1,27.51,15.38h0l9,21.87-14.33,3a24,24,0,0,1-26.51,5.52Z"/><path class="cls-27" d="M129.51,73.56a14.5,14.5,0,0,1,5.12-.13l8,24.26,10.5,32L140,132.42l-6.36-30.55L127.82,74A13.63,13.63,0,0,1,129.51,73.56Z"/><path class="cls-28" d="M120.15,156a26.17,26.17,0,1,0,20.28-31A26.17,26.17,0,0,0,120.15,156Z"/><path class="cls-29" d="M122.27,150.4c2.5,12,14.58,19.61,27,17S169.68,153,167.19,141s-14.59-19.61-27-17S119.77,138.41,122.27,150.4Z"/><path class="cls-30" d="M118.19,156.45a28.17,28.17,0,1,1,33.32,21.83A28.22,28.22,0,0,1,118.19,156.45Zm3.92-.82a24.16,24.16,0,1,0,18.73-28.58A24.19,24.19,0,0,0,122.11,155.63Z"/><path class="cls-31" d="M128.53,151.51a8.52,8.52,0,1,0,6.6-10.07A8.53,8.53,0,0,0,128.53,151.51Z"/><path class="cls-25" d="M102.87,131s7.9-10.22,18.12,0V114.49s-7.87-9.41-17.73.44Z"/><path class="cls-25" d="M103.39,108.55s7.46-9.9,17.1,0L119.43,92s-6.91-8.63-14.83.45Z"/></g></g></svg>