<svg xmlns="http://www.w3.org/2000/svg" xmlns:xlink="http://www.w3.org/1999/xlink" viewBox="0 0 218.32 236.79"><defs><style>.cls-1{mask:url(#mask);filter:url(#luminosity-noclip-5);}.cls-12,.cls-14,.cls-18,.cls-2,.cls-20,.cls-23,.cls-24,.cls-4,.cls-6,.cls-8{mix-blend-mode:multiply;}.cls-2{fill:url(#radial-gradient);}.cls-3{mask:url(#mask-2);filter:url(#luminosity-noclip-6);}.cls-4{fill:url(#radial-gradient-2);}.cls-5{mask:url(#mask-3);filter:url(#luminosity-noclip-7);}.cls-6{fill:url(#radial-gradient-3);}.cls-7{mask:url(#mask-4);filter:url(#luminosity-noclip-8);}.cls-8{fill:url(#radial-gradient-4);}.cls-9{fill:none;}.cls-10{isolation:isolate;}.cls-11{mask:url(#mask-5);}.cls-12{fill:url(#Degradado_sin_nombre_153);}.cls-13{mask:url(#mask-6);}.cls-14{fill:url(#Degradado_sin_nombre_151);}.cls-15{fill:#e4ecec;}.cls-16{clip-path:url(#clip-path);}.cls-17{mask:url(#mask-7);}.cls-18{fill:url(#Degradado_sin_nombre_153-2);}.cls-19{mask:url(#mask-8);}.cls-20{fill:url(#Degradado_sin_nombre_151-2);}.cls-21{fill:#93d500;}.cls-22{fill:#fefefe;}.cls-23{fill:url(#radial-gradient-5);}.cls-24{fill:url(#radial-gradient-6);}.cls-25{fill:#1f3b51;}.cls-26{fill:#307c9e;}.cls-27,.cls-29{fill:#ebebeb;}.cls-27{opacity:0.3;}.cls-28{fill:#ccc;}.cls-30{fill:#03698e;}.cls-31{fill:#fff;}.cls-32{filter:url(#luminosity-noclip-4);}.cls-33{filter:url(#luminosity-noclip-3);}.cls-34{filter:url(#luminosity-noclip-2);}.cls-35{filter:url(#luminosity-noclip);}</style><filter id="luminosity-noclip" x="102.74" y="-8576" width="114.57" height="32766" filterUnits="userSpaceOnUse" color-interpolation-filters="sRGB"><feFlood flood-color="#fff" result="bg"/><feBlend in="SourceGraphic" in2="bg"/></filter><mask id="mask" x="102.74" y="-8576" width="114.57" height="32766" maskUnits="userSpaceOnUse"><g class="cls-35"/></mask><radialGradient id="radial-gradient" cx="-247.1" cy="266.25" r="39.98" gradientTransform="matrix(1, 0.3, -1.03, 0.13, 680.35, 265.47)" gradientUnits="userSpaceOnUse"><stop offset="0.5" stop-color="#a6a6a6"/><stop offset="0.6" stop-color="#a3a3a3"/><stop offset="0.67" stop-color="#999"/><stop offset="0.75" stop-color="#888"/><stop offset="0.81" stop-color="#707070"/><stop offset="0.88" stop-color="#515151"/><stop offset="0.94" stop-color="#2c2c2c"/><stop offset="1"/></radialGradient><filter id="luminosity-noclip-2" x="0.47" y="-8576" width="114.57" height="32766" filterUnits="userSpaceOnUse" color-interpolation-filters="sRGB"><feFlood flood-color="#fff" result="bg"/><feBlend in="SourceGraphic" in2="bg"/></filter><mask id="mask-2" x="0.47" y="-8576" width="114.57" height="32766" maskUnits="userSpaceOnUse"><g class="cls-34"/></mask><radialGradient id="radial-gradient-2" cx="74.46" cy="-486.27" r="39.98" gradientTransform="matrix(-1, 0.3, 1.03, 0.13, 632.97, 265.47)" xlink:href="#radial-gradient"/><filter id="luminosity-noclip-3" x="107.7" y="-8576" width="92.69" height="32766" filterUnits="userSpaceOnUse" color-interpolation-filters="sRGB"><feFlood flood-color="#fff" result="bg"/><feBlend in="SourceGraphic" in2="bg"/></filter><mask id="mask-3" x="107.7" y="-8576" width="92.69" height="32766" maskUnits="userSpaceOnUse"><g class="cls-33"/></mask><radialGradient id="radial-gradient-3" cx="-366.79" cy="-914.57" r="33.28" gradientTransform="matrix(0.97, 0.3, -1, 0.13, -407.06, 265.47)" xlink:href="#radial-gradient"/><filter id="luminosity-noclip-4" x="25.68" y="-8576" width="92.69" height="32766" filterUnits="userSpaceOnUse" color-interpolation-filters="sRGB"><feFlood flood-color="#fff" result="bg"/><feBlend in="SourceGraphic" in2="bg"/></filter><mask id="mask-4" x="25.68" y="-8576" width="92.69" height="32766" maskUnits="userSpaceOnUse"><g class="cls-32"/></mask><radialGradient id="radial-gradient-4" cx="-694.88" cy="-146.78" r="33.28" gradientTransform="matrix(-0.97, 0.3, 1, 0.13, -453.11, 265.47)" xlink:href="#radial-gradient"/><filter id="luminosity-noclip-5" x="102.74" y="212.73" width="114.57" height="25.94" filterUnits="userSpaceOnUse" color-interpolation-filters="sRGB"><feFlood flood-color="#fff" result="bg"/><feBlend in="SourceGraphic" in2="bg"/></filter><mask id="mask-5" x="102.74" y="212.73" width="114.57" height="25.94" maskUnits="userSpaceOnUse"><g class="cls-1"><path class="cls-2" d="M217.29,230.53c-.53,6.64-26.62,9.87-58.26,7.21s-56.83-10.22-56.28-16.87S129.4,211,161,213.66,217.85,223.88,217.29,230.53Z"/></g></mask><radialGradient id="Degradado_sin_nombre_153" cx="-247.1" cy="266.25" r="39.98" gradientTransform="matrix(1, 0.3, -1.03, 0.13, 680.35, 265.47)" gradientUnits="userSpaceOnUse"><stop offset="0" stop-color="#3c3c3b"/><stop offset="1" stop-color="#fff" stop-opacity="0"/></radialGradient><filter id="luminosity-noclip-6" x="0.47" y="212.73" width="114.57" height="25.94" filterUnits="userSpaceOnUse" color-interpolation-filters="sRGB"><feFlood flood-color="#fff" result="bg"/><feBlend in="SourceGraphic" in2="bg"/></filter><mask id="mask-6" x="0.47" y="212.73" width="114.57" height="25.94" maskUnits="userSpaceOnUse"><g class="cls-3"><path class="cls-4" d="M.48,230.53c.53,6.64,26.63,9.87,58.26,7.21s56.83-10.22,56.29-16.87S88.37,211,56.76,213.66-.07,223.88.48,230.53Z"/></g></mask><radialGradient id="Degradado_sin_nombre_151" cx="74.46" cy="-486.27" r="39.98" gradientTransform="matrix(-1, 0.3, 1.03, 0.13, 632.97, 265.47)" gradientUnits="userSpaceOnUse"><stop offset="0" stop-color="#3c3c3b"/><stop offset="0" stop-color="#3d3d3c"/><stop offset="1" stop-color="#fff" stop-opacity="0"/></radialGradient><clipPath id="clip-path"><rect class="cls-9" x="30.99" y="41.17" width="163.4" height="10.43"/></clipPath><filter id="luminosity-noclip-7" x="107.7" y="28.68" width="92.69" height="21.6" filterUnits="userSpaceOnUse" color-interpolation-filters="sRGB"><feFlood flood-color="#fff" result="bg"/><feBlend in="SourceGraphic" in2="bg"/></filter><mask id="mask-7" x="107.7" y="28.68" width="92.69" height="21.6" maskUnits="userSpaceOnUse"><g class="cls-5"><path class="cls-6" d="M200.38,43.5c-.44,5.53-21.55,8.22-47.14,6s-46-8.5-45.53-14,21.56-8.22,47.13-6S200.82,38,200.38,43.5Z"/></g></mask><radialGradient id="Degradado_sin_nombre_153-2" cx="-366.79" cy="-914.57" r="33.28" gradientTransform="matrix(0.97, 0.3, -1, 0.13, -407.06, 265.47)" xlink:href="#Degradado_sin_nombre_153"/><filter id="luminosity-noclip-8" x="25.68" y="28.68" width="92.69" height="21.6" filterUnits="userSpaceOnUse" color-interpolation-filters="sRGB"><feFlood flood-color="#fff" result="bg"/><feBlend in="SourceGraphic" in2="bg"/></filter><mask id="mask-8" x="25.68" y="28.68" width="92.69" height="21.6" maskUnits="userSpaceOnUse"><g class="cls-7"><path class="cls-8" d="M25.69,43.5c.43,5.53,21.54,8.22,47.13,6s46-8.5,45.54-14-21.57-8.22-47.14-6S25.24,38,25.69,43.5Z"/></g></mask><radialGradient id="Degradado_sin_nombre_151-2" cx="-694.88" cy="-146.78" r="33.28" gradientTransform="matrix(-0.97, 0.3, 1, 0.13, -453.11, 265.47)" xlink:href="#Degradado_sin_nombre_151"/><radialGradient id="radial-gradient-5" cx="-280.31" cy="-4020.26" fx="-315.9132066421891" fy="-4028.6520404828593" r="57.83" gradientTransform="translate(349.13 608.66) scale(0.67 0.11)" gradientUnits="userSpaceOnUse"><stop offset="0" stop-color="#666"/><stop offset="0.25" stop-color="#838383" stop-opacity="0.79"/><stop offset="0.78" stop-color="#cdcdcd" stop-opacity="0.25"/><stop offset="1" stop-color="#efefef" stop-opacity="0"/></radialGradient><radialGradient id="radial-gradient-6" cx="9725.37" cy="-4020.26" fx="9689.768406238609" fy="-4028.6520439040287" r="57.83" gradientTransform="matrix(-0.67, 0, 0, 0.11, 6564.7, 608.66)" xlink:href="#radial-gradient-5"/></defs><g class="cls-10"><g id="Capa_1" data-name="Capa 1"><g class="cls-11"><path class="cls-12" d="M217.29,230.53c-.53,6.64-26.62,9.87-58.26,7.21s-56.83-10.22-56.28-16.87S129.4,211,161,213.66,217.85,223.88,217.29,230.53Z"/></g><g class="cls-13"><path class="cls-14" d="M.48,230.53c.53,6.64,26.63,9.87,58.26,7.21s56.83-10.22,56.29-16.87S88.37,211,56.76,213.66-.07,223.88.48,230.53Z"/></g><rect class="cls-15" x="1.74" y="12.79" width="214.28" height="216.19" rx="21.6"/><g class="cls-16"><g class="cls-17"><path class="cls-18" d="M200.38,43.5c-.44,5.53-21.55,8.22-47.14,6s-46-8.5-45.53-14,21.56-8.22,47.13-6S200.82,38,200.38,43.5Z"/></g><g class="cls-19"><path class="cls-20" d="M25.69,43.5c.43,5.53,21.54,8.22,47.13,6s46-8.5,45.54-14-21.57-8.22-47.14-6S25.24,38,25.69,43.5Z"/></g></g><rect class="cls-21" x="17.64" y="1.93" width="185.91" height="39.06" rx="18.64"/><path class="cls-22" d="M58.09,17.26A1.13,1.13,0,0,1,59.32,16h2.82c2.47,0,4,1.11,4,3.62,0,1.76-1.33,2.77-3,3l2.72,2.91a1.05,1.05,0,0,1,.32.7A1.23,1.23,0,0,1,65,27.51a1.25,1.25,0,0,1-.93-.42l-3.56-4.31h0v3.48a1.2,1.2,0,1,1-2.4,0Zm2.4,3.8h1.65a1.37,1.37,0,0,0,1.49-1.43,1.35,1.35,0,0,0-1.49-1.41H60.49Z"/><path class="cls-22" d="M74.85,23.17a4.14,4.14,0,1,1-8.26,0,4.14,4.14,0,1,1,8.26,0Zm-6,0c0,1.1.58,2.32,1.83,2.32s1.82-1.22,1.82-2.32-.56-2.35-1.82-2.35S68.89,22.06,68.89,23.17Z"/><path class="cls-22" d="M75.79,16.37a1.16,1.16,0,1,1,2.3,0v9.86a1.16,1.16,0,1,1-2.3,0Z"/><path class="cls-22" d="M91.54,26.23a1.17,1.17,0,0,1-1.16,1.28,1.1,1.1,0,0,1-1.15-1,2.51,2.51,0,0,1-2.11,1.05c-2.32,0-3.8-2.16-3.8-4.34S84.56,18.7,87,18.7a3.32,3.32,0,0,1,2.19.8V16.37a1.16,1.16,0,1,1,2.31,0Zm-4.12-5.41c-1.2,0-1.79,1.26-1.79,2.35s.59,2.32,1.79,2.32,1.81-1.28,1.81-2.4S88.65,20.82,87.42,20.82Z"/><path class="cls-22" d="M94.7,23.92a2,2,0,0,0,2.18,1.67c1.18,0,2-.93,2.61-.93a1,1,0,0,1,.94,1c0,1-2.05,2-3.76,2a4.2,4.2,0,0,1-4.32-4.43,4.14,4.14,0,1,1,8.27-.27c0,.68-.3,1-1,1Zm3.62-1.54a1.83,1.83,0,0,0-1.84-1.76,1.86,1.86,0,0,0-1.83,1.76Z"/><path class="cls-22" d="M111.45,21.26c-.57,0-1.08-.44-1.82-.44-1.31,0-1.94,1.16-1.94,2.35a2.13,2.13,0,0,0,1.94,2.32,12.37,12.37,0,0,0,1.71-.48,1,1,0,0,1,1,1c0,1.18-2,1.58-2.81,1.58a4.19,4.19,0,0,1-4.13-4.43,4.29,4.29,0,0,1,4.13-4.47c.91,0,2.81.34,2.81,1.46C112.33,20.64,112,21.26,111.45,21.26Z"/><path class="cls-22" d="M121.06,23.17a4.14,4.14,0,1,1-8.26,0,4.14,4.14,0,1,1,8.26,0Zm-6,0c0,1.1.58,2.32,1.83,2.32s1.82-1.22,1.82-2.32-.56-2.35-1.82-2.35S115.1,22.06,115.1,23.17Z"/><path class="cls-22" d="M122,20.08a1.16,1.16,0,0,1,1.15-1.28,1,1,0,0,1,1.06.85,2.46,2.46,0,0,1,2.22-.95,3,3,0,0,1,3.15,3.11v4.42a1.16,1.16,0,1,1-2.3,0v-4a1.49,1.49,0,1,0-3,0v4a1.16,1.16,0,1,1-2.3,0Z"/><path class="cls-22" d="M135.77,21.39c-.43,0-1.31-.67-2.06-.67-.42,0-.78.19-.78.64,0,1.07,4,.91,4,3.54,0,1.53-1.3,2.7-3.29,2.7-1.29,0-3.21-.73-3.21-1.77a1.08,1.08,0,0,1,1-1c.9,0,1.3.79,2.39.79.7,0,.91-.23.91-.66,0-1.06-4-.9-4-3.54,0-1.6,1.29-2.69,3.12-2.69,1.13,0,2.88.53,2.88,1.67A1,1,0,0,1,135.77,21.39Z"/><path class="cls-22" d="M137.74,20.08a1.16,1.16,0,1,1,2.31,0v4.11a1.49,1.49,0,1,0,3,0V20.08a1.16,1.16,0,1,1,2.31,0v4.16c0,2.05-1.36,3.36-3.8,3.36s-3.79-1.31-3.79-3.36Z"/><path class="cls-22" d="M146.6,16.37a1.16,1.16,0,1,1,2.31,0v9.86a1.16,1.16,0,1,1-2.31,0Z"/><path class="cls-22" d="M150.75,20.91h-.51a.93.93,0,0,1-1-1,1,1,0,0,1,1-1h.51V17.52a1.16,1.16,0,1,1,2.3,0v1.37h.66a1,1,0,1,1,0,2h-.66v5.32a1.16,1.16,0,1,1-2.3,0Z"/><path class="cls-22" d="M162.8,26c0,.59,0,1.51-1.11,1.51-.67,0-.94-.37-1.1-1a2.76,2.76,0,0,1-2.19,1.07c-2.16,0-3.81-1.84-3.81-4.43s1.69-4.47,3.81-4.47a2.63,2.63,0,0,1,2.19,1.06,1.09,1.09,0,0,1,1.1-1c1.11,0,1.11.91,1.11,1.5Zm-4.08-.51c1.2,0,1.77-1.22,1.77-2.32s-.56-2.35-1.77-2.35-1.83,1.24-1.83,2.35S157.47,25.49,158.72,25.49Z"/><path class="cls-23" d="M200.85,178.87c0,3.4-17.32,6.16-38.68,6.16s-38.67-2.76-38.67-6.16,17.31-6.17,38.67-6.17S200.85,175.46,200.85,178.87Z"/><path class="cls-24" d="M23.52,178.87c0,3.4,17.31,6.16,38.67,6.16s38.67-2.76,38.67-6.16-17.31-6.17-38.67-6.17S23.52,175.46,23.52,178.87Z"/><path class="cls-25" d="M96.59,101.3l8.2,1.71.63-14h0A14.31,14.31,0,0,0,77.65,83.2h0l-5.36,13L80.8,98a14.27,14.27,0,0,0,15.79,3.29Z"/><path class="cls-26" d="M105,100.72h0a16.62,16.62,0,0,0-32-7h0L51.75,141.18l53.9,11.24Z"/><path class="cls-25" d="M91.61,152.6l13.77,2.87.5-21.57.09-3.17c.52-11.9-6.79-21.43-18.65-23.9a24.08,24.08,0,0,0-27.51,15.39h0l-9,21.88,14.32,3a24,24,0,0,0,26.51,5.53Z"/><path class="cls-27" d="M94,74a14.27,14.27,0,0,0-5.12-.12L81,98.16l-10.49,32,13.1,2.73,6.36-30.55,5.8-27.83A15.62,15.62,0,0,0,94,74Z"/><path class="cls-28" d="M103.4,156.51a26.17,26.17,0,1,1-20.28-31A26.17,26.17,0,0,1,103.4,156.51Z"/><path class="cls-29" d="M101.29,150.87c-2.5,12-14.59,19.61-27,17s-20.43-14.4-17.94-26.39,14.59-19.62,27-17S103.78,138.88,101.29,150.87Z"/><path class="cls-30" d="M72,178.75a28.17,28.17,0,1,1,33.33-21.83A28.2,28.2,0,0,1,72,178.75Zm10.68-51.23a24.16,24.16,0,1,0,18.72,28.58A24.18,24.18,0,0,0,82.72,127.52Z"/><path class="cls-31" d="M95,152a8.52,8.52,0,1,1-6.6-10.08A8.52,8.52,0,0,1,95,152Z"/><path class="cls-25" d="M127,101.3l-8.2,1.71-.63-14h0a14.31,14.31,0,0,1,27.75-5.78h0l5.36,13L142.77,98A14.27,14.27,0,0,1,127,101.3Z"/><path class="cls-26" d="M118.56,100.72h0a16.62,16.62,0,0,1,32-7h0l21.19,47.43-53.9,11.24Z"/><path class="cls-25" d="M132,152.6l-13.77,2.87-.5-21.57-.09-3.17c-.52-11.9,6.79-21.43,18.65-23.9a24.08,24.08,0,0,1,27.51,15.39h0l9,21.88-14.33,3A24,24,0,0,1,132,152.6Z"/><path class="cls-27" d="M129.53,74a14.27,14.27,0,0,1,5.12-.12l8,24.25,10.5,32L140,132.89l-6.36-30.55-5.81-27.83A16.48,16.48,0,0,1,129.53,74Z"/><path class="cls-28" d="M120.17,156.51a26.17,26.17,0,1,0,20.28-31A26.17,26.17,0,0,0,120.17,156.51Z"/><path class="cls-29" d="M122.29,150.87c2.5,12,14.58,19.61,27,17s20.43-14.4,17.94-26.39-14.59-19.62-27-17S119.79,138.88,122.29,150.87Z"/><path class="cls-30" d="M118.2,156.92a28.18,28.18,0,1,1,33.33,21.83A28.22,28.22,0,0,1,118.2,156.92Zm3.93-.82a24.16,24.16,0,1,0,18.73-28.58A24.19,24.19,0,0,0,122.13,156.1Z"/><path class="cls-31" d="M128.55,152a8.52,8.52,0,1,0,6.6-10.08A8.52,8.52,0,0,0,128.55,152Z"/><path class="cls-25" d="M102.89,131.52s7.9-10.22,18.12,0V115s-7.87-9.41-17.73.44Z"/><path class="cls-25" d="M103.41,109s7.46-9.9,17.1,0l-1.06-16.56s-6.91-8.63-14.83.45Z"/></g></g></svg>