<svg xmlns="http://www.w3.org/2000/svg" xmlns:xlink="http://www.w3.org/1999/xlink" viewBox="0 0 217.72 235.83"><defs><style>.cls-1{mask:url(#mask);filter:url(#luminosity-noclip-5);}.cls-12,.cls-14,.cls-18,.cls-2,.cls-20,.cls-4,.cls-51,.cls-52,.cls-53,.cls-6,.cls-8{mix-blend-mode:multiply;}.cls-2{fill:url(#radial-gradient);}.cls-3{mask:url(#mask-2);filter:url(#luminosity-noclip-6);}.cls-4{fill:url(#radial-gradient-2);}.cls-5{mask:url(#mask-3);filter:url(#luminosity-noclip-7);}.cls-6{fill:url(#radial-gradient-3);}.cls-7{mask:url(#mask-4);filter:url(#luminosity-noclip-8);}.cls-8{fill:url(#radial-gradient-4);}.cls-9{fill:none;}.cls-10{isolation:isolate;}.cls-11{mask:url(#mask-5);}.cls-12{fill:url(#Degradado_sin_nombre_153);}.cls-13{mask:url(#mask-6);}.cls-14{fill:url(#Degradado_sin_nombre_151);}.cls-15{fill:#ececec;}.cls-16{clip-path:url(#clip-path);}.cls-17{mask:url(#mask-7);}.cls-18{fill:url(#Degradado_sin_nombre_153-2);}.cls-19{mask:url(#mask-8);}.cls-20{fill:url(#Degradado_sin_nombre_151-2);}.cls-21{fill:#93d500;}.cls-22{fill:#fefefe;}.cls-23{fill:#78bda3;}.cls-23,.cls-24,.cls-32,.cls-33,.cls-34,.cls-35{fill-rule:evenodd;}.cls-24,.cls-60{fill:#fff;}.cls-25{fill:#cacaca;}.cls-26{fill:#6db2c0;}.cls-27,.cls-35{fill:#4d8cb2;}.cls-28,.cls-34{fill:#90bee7;}.cls-29,.cls-33{fill:#a4c9ee;}.cls-30,.cls-32{fill:#b5d5f4;}.cls-31{fill:#c7e2fa;}.cls-36{fill:url(#linear-gradient);}.cls-37{fill:url(#linear-gradient-2);}.cls-38{fill:url(#linear-gradient-3);}.cls-39{fill:url(#linear-gradient-4);}.cls-40{fill:#bab6be;}.cls-41{fill:url(#linear-gradient-5);}.cls-42{fill:url(#linear-gradient-6);}.cls-43{fill:url(#radial-gradient-5);}.cls-44{fill:url(#linear-gradient-7);}.cls-45{fill:url(#linear-gradient-8);}.cls-46{fill:url(#linear-gradient-9);}.cls-47{fill:url(#linear-gradient-10);}.cls-48{fill:url(#linear-gradient-11);}.cls-49{fill:url(#linear-gradient-12);}.cls-50{fill:url(#linear-gradient-13);}.cls-51{fill:url(#radial-gradient-6);}.cls-52{fill:url(#radial-gradient-7);}.cls-53{fill:url(#radial-gradient-8);}.cls-54{fill:#1f3b51;}.cls-55{fill:#307c9e;}.cls-56,.cls-58{fill:#ebebeb;}.cls-56{opacity:0.3;}.cls-57{fill:#ccc;}.cls-59{fill:#03698e;}.cls-61{filter:url(#luminosity-noclip-4);}.cls-62{filter:url(#luminosity-noclip-3);}.cls-63{filter:url(#luminosity-noclip-2);}.cls-64{filter:url(#luminosity-noclip);}</style><filter id="luminosity-noclip" x="102.72" y="-8574.67" width="114.57" height="32766" filterUnits="userSpaceOnUse" color-interpolation-filters="sRGB"><feFlood flood-color="#fff" result="bg"/><feBlend in="SourceGraphic" in2="bg"/></filter><mask id="mask" x="102.72" y="-8574.67" width="114.57" height="32766" maskUnits="userSpaceOnUse"><g class="cls-64"/></mask><radialGradient id="radial-gradient" cx="-244.69" cy="267.28" r="39.98" gradientTransform="matrix(1, 0.3, -1.03, 0.13, 678.99, 264.15)" gradientUnits="userSpaceOnUse"><stop offset="0.5" stop-color="#a6a6a6"/><stop offset="0.6" stop-color="#a3a3a3"/><stop offset="0.67" stop-color="#999"/><stop offset="0.75" stop-color="#888"/><stop offset="0.81" stop-color="#707070"/><stop offset="0.88" stop-color="#515151"/><stop offset="0.94" stop-color="#2c2c2c"/><stop offset="1"/></radialGradient><filter id="luminosity-noclip-2" x="0.45" y="-8574.67" width="114.57" height="32766" filterUnits="userSpaceOnUse" color-interpolation-filters="sRGB"><feFlood flood-color="#fff" result="bg"/><feBlend in="SourceGraphic" in2="bg"/></filter><mask id="mask-2" x="0.45" y="-8574.67" width="114.57" height="32766" maskUnits="userSpaceOnUse"><g class="cls-63"/></mask><radialGradient id="radial-gradient-2" cx="77.2" cy="-486.03" r="39.98" gradientTransform="matrix(-1, 0.3, 1.03, 0.13, 635.44, 264.15)" xlink:href="#radial-gradient"/><filter id="luminosity-noclip-3" x="107.68" y="-8574.67" width="92.69" height="32766" filterUnits="userSpaceOnUse" color-interpolation-filters="sRGB"><feFlood flood-color="#fff" result="bg"/><feBlend in="SourceGraphic" in2="bg"/></filter><mask id="mask-3" x="107.68" y="-8574.67" width="92.69" height="32766" maskUnits="userSpaceOnUse"><g class="cls-62"/></mask><radialGradient id="radial-gradient-3" cx="-364.39" cy="-913.54" r="33.28" gradientTransform="matrix(0.97, 0.3, -1, 0.13, -408.37, 264.15)" xlink:href="#radial-gradient"/><filter id="luminosity-noclip-4" x="25.66" y="-8574.67" width="92.69" height="32766" filterUnits="userSpaceOnUse" color-interpolation-filters="sRGB"><feFlood flood-color="#fff" result="bg"/><feBlend in="SourceGraphic" in2="bg"/></filter><mask id="mask-4" x="25.66" y="-8574.67" width="92.69" height="32766" maskUnits="userSpaceOnUse"><g class="cls-61"/></mask><radialGradient id="radial-gradient-4" cx="-692.13" cy="-146.55" r="33.28" gradientTransform="matrix(-0.97, 0.3, 1, 0.13, -450.69, 264.15)" xlink:href="#radial-gradient"/><filter id="luminosity-noclip-5" x="102.72" y="212.25" width="114.57" height="25.94" filterUnits="userSpaceOnUse" color-interpolation-filters="sRGB"><feFlood flood-color="#fff" result="bg"/><feBlend in="SourceGraphic" in2="bg"/></filter><mask id="mask-5" x="102.72" y="212.25" width="114.57" height="25.94" maskUnits="userSpaceOnUse"><g class="cls-1"><path class="cls-2" d="M217.28,230.05c-.54,6.65-26.63,9.88-58.27,7.21s-56.83-10.21-56.28-16.87,26.65-9.87,58.26-7.2S217.83,223.41,217.28,230.05Z"/></g></mask><radialGradient id="Degradado_sin_nombre_153" cx="-244.69" cy="267.28" r="39.98" gradientTransform="matrix(1, 0.3, -1.03, 0.13, 678.99, 264.15)" gradientUnits="userSpaceOnUse"><stop offset="0" stop-color="#3c3c3b"/><stop offset="1" stop-color="#fff" stop-opacity="0"/></radialGradient><filter id="luminosity-noclip-6" x="0.45" y="212.25" width="114.57" height="25.94" filterUnits="userSpaceOnUse" color-interpolation-filters="sRGB"><feFlood flood-color="#fff" result="bg"/><feBlend in="SourceGraphic" in2="bg"/></filter><mask id="mask-6" x="0.45" y="212.25" width="114.57" height="25.94" maskUnits="userSpaceOnUse"><g class="cls-3"><path class="cls-4" d="M.46,230.05c.53,6.65,26.63,9.88,58.26,7.21s56.83-10.21,56.29-16.87-26.66-9.87-58.27-7.2S-.09,223.41.46,230.05Z"/></g></mask><radialGradient id="Degradado_sin_nombre_151" cx="77.2" cy="-486.03" r="39.98" gradientTransform="matrix(-1, 0.3, 1.03, 0.13, 635.44, 264.15)" gradientUnits="userSpaceOnUse"><stop offset="0" stop-color="#3c3c3b"/><stop offset="0" stop-color="#3d3d3c"/><stop offset="1" stop-color="#fff" stop-opacity="0"/></radialGradient><clipPath id="clip-path"><rect class="cls-9" x="30.98" y="40.7" width="163.4" height="10.43"/></clipPath><filter id="luminosity-noclip-7" x="107.68" y="28.21" width="92.69" height="21.6" filterUnits="userSpaceOnUse" color-interpolation-filters="sRGB"><feFlood flood-color="#fff" result="bg"/><feBlend in="SourceGraphic" in2="bg"/></filter><mask id="mask-7" x="107.68" y="28.21" width="92.69" height="21.6" maskUnits="userSpaceOnUse"><g class="cls-5"><path class="cls-6" d="M200.36,43c-.44,5.53-21.55,8.22-47.14,6s-46-8.51-45.53-14,21.56-8.22,47.13-6S200.8,37.49,200.36,43Z"/></g></mask><radialGradient id="Degradado_sin_nombre_153-2" cx="-364.39" cy="-913.54" r="33.28" gradientTransform="matrix(0.97, 0.3, -1, 0.13, -408.37, 264.15)" xlink:href="#Degradado_sin_nombre_153"/><filter id="luminosity-noclip-8" x="25.66" y="28.21" width="92.69" height="21.6" filterUnits="userSpaceOnUse" color-interpolation-filters="sRGB"><feFlood flood-color="#fff" result="bg"/><feBlend in="SourceGraphic" in2="bg"/></filter><mask id="mask-8" x="25.66" y="28.21" width="92.69" height="21.6" maskUnits="userSpaceOnUse"><g class="cls-7"><path class="cls-8" d="M25.67,43c.43,5.53,21.54,8.22,47.13,6s46-8.51,45.54-14S96.77,26.77,71.2,29,25.22,37.49,25.67,43Z"/></g></mask><radialGradient id="Degradado_sin_nombre_151-2" cx="-692.13" cy="-146.55" r="33.28" gradientTransform="matrix(-0.97, 0.3, 1, 0.13, -450.69, 264.15)" xlink:href="#Degradado_sin_nombre_151"/><linearGradient id="linear-gradient" x1="-3659.46" y1="-816.25" x2="-3659.46" y2="-1111.35" gradientTransform="translate(1508.18 227.21) rotate(-10.76) scale(0.38)" gradientUnits="userSpaceOnUse"><stop offset="0.01" stop-color="#a38368"/><stop offset="1" stop-color="#7f674f"/></linearGradient><linearGradient id="linear-gradient-2" x1="-3658.99" y1="-816.25" x2="-3658.99" y2="-1111.35" gradientTransform="translate(1465.15 490.8) scale(0.38)" gradientUnits="userSpaceOnUse"><stop offset="0" stop-color="#7f674f"/><stop offset="1" stop-color="#a38368"/></linearGradient><linearGradient id="linear-gradient-3" x1="-3728.62" y1="-829.89" x2="-3728.62" y2="-1125.02" gradientTransform="matrix(0.36, -0.07, 0.07, 0.36, 1487.98, 225)" gradientUnits="userSpaceOnUse"><stop offset="0.01" stop-color="#c59e7c"/><stop offset="1" stop-color="#cca47f"/></linearGradient><linearGradient id="linear-gradient-4" x1="-3728.62" y1="-829.43" x2="-3728.62" y2="-1124.52" gradientTransform="matrix(0.36, -0.07, 0.07, 0.36, 1488.05, 225.38)" gradientUnits="userSpaceOnUse"><stop offset="0.01" stop-color="#a38368"/><stop offset="1" stop-color="#be9a7b"/></linearGradient><linearGradient id="linear-gradient-5" x1="1870.55" y1="-30.41" x2="1870.55" y2="73.82" gradientTransform="matrix(-0.82, 0.16, -0.17, -0.91, 1627.34, -143.44)" gradientUnits="userSpaceOnUse"><stop offset="0" stop-color="#fff"/><stop offset="0.47" stop-color="#fdfdfd"/><stop offset="0.7" stop-color="#f5f6f6"/><stop offset="0.87" stop-color="#e9e9ea"/><stop offset="1" stop-color="#d8d9da"/></linearGradient><linearGradient id="linear-gradient-6" x1="-185.11" y1="505.28" x2="-175.97" y2="496.13" gradientTransform="matrix(0.82, -0.16, 0.17, 0.91, 137.74, -324.93)" gradientUnits="userSpaceOnUse"><stop offset="0" stop-color="#fff"/><stop offset="0.33" stop-color="#f2f3f3"/><stop offset="0.93" stop-color="#d0d3d4"/><stop offset="1" stop-color="#cccfd0"/></linearGradient><radialGradient id="radial-gradient-5" cx="1595.34" cy="-23.15" r="11.96" gradientTransform="matrix(-1.15, 0.22, -0.24, -1.27, 1901.53, -212.22)" gradientUnits="userSpaceOnUse"><stop offset="0" stop-color="#fff"/><stop offset="0.48" stop-color="#fdfdfd"/><stop offset="0.65" stop-color="#f6f7f7"/><stop offset="0.78" stop-color="#ebebec"/><stop offset="0.88" stop-color="#dadbdc"/><stop offset="0.96" stop-color="#c4c6c8"/><stop offset="1" stop-color="#b7babc"/></radialGradient><linearGradient id="linear-gradient-7" x1="1849.89" y1="95.03" x2="1894.26" y2="50.65" gradientTransform="matrix(-0.82, 0.16, -0.17, -0.91, 1627.34, -143.44)" gradientUnits="userSpaceOnUse"><stop offset="0" stop-color="#cccfd0"/><stop offset="0.47" stop-color="#fff"/><stop offset="0.65" stop-color="#f2f3f3"/><stop offset="0.97" stop-color="#d0d3d4"/><stop offset="1" stop-color="#cccfd0"/></linearGradient><linearGradient id="linear-gradient-8" x1="-3182.66" y1="-1694.14" x2="-3182.66" y2="-1590.27" gradientTransform="matrix(0.23, -0.04, 0.04, 0.23, 866.01, 308.87)" gradientUnits="userSpaceOnUse"><stop offset="0" stop-color="#cccdcf"/><stop offset="0.28" stop-color="#9a9da0"/><stop offset="0.55" stop-color="#eeeeef"/><stop offset="0.82" stop-color="#9a9da0"/><stop offset="1" stop-color="#7d7e80"/></linearGradient><linearGradient id="linear-gradient-9" x1="-3182.66" y1="-1695.08" x2="-3182.66" y2="-1591.21" gradientTransform="matrix(0.23, -0.04, 0.04, 0.23, 865.93, 308.41)" gradientUnits="userSpaceOnUse"><stop offset="0" stop-color="#e5e5e6"/><stop offset="0.28" stop-color="#9a9da0"/><stop offset="0.55" stop-color="#f8f8f8"/><stop offset="0.82" stop-color="#b5b8ba"/><stop offset="1" stop-color="#eff0f0"/></linearGradient><linearGradient id="linear-gradient-10" x1="-4669.88" y1="-1975.3" x2="-4669.88" y2="-1964.51" gradientTransform="matrix(0.16, -0.03, 0.03, 0.16, 903.14, 245.72)" gradientUnits="userSpaceOnUse"><stop offset="0" stop-color="#cccdcf"/><stop offset="0.28" stop-color="#9a9da0"/><stop offset="0.55" stop-color="#eeeeef"/><stop offset="0.82" stop-color="#9a9da0"/><stop offset="1" stop-color="#dcddde"/></linearGradient><linearGradient id="linear-gradient-11" x1="-4669.88" y1="-1972.01" x2="-4669.88" y2="-1961.23" gradientTransform="matrix(0.16, -0.03, 0.03, 0.16, 903.35, 246.87)" xlink:href="#linear-gradient-10"/><linearGradient id="linear-gradient-12" x1="-4669.88" y1="-1968.72" x2="-4669.88" y2="-1957.95" gradientTransform="matrix(0.16, -0.03, 0.03, 0.16, 903.57, 248.02)" xlink:href="#linear-gradient-10"/><linearGradient id="linear-gradient-13" x1="-4669.88" y1="-1965.43" x2="-4669.88" y2="-1954.65" gradientTransform="matrix(0.16, -0.03, 0.03, 0.16, 903.79, 249.17)" xlink:href="#linear-gradient-10"/><radialGradient id="radial-gradient-6" cx="514.3" cy="-3888.73" fx="478.6990575987842" fy="-3897.1264408099073" r="57.83" gradientTransform="translate(-330.96 607.47) scale(0.81 0.11)" gradientUnits="userSpaceOnUse"><stop offset="0" stop-color="#666"/><stop offset="0.25" stop-color="#838383" stop-opacity="0.79"/><stop offset="0.78" stop-color="#cdcdcd" stop-opacity="0.25"/><stop offset="1" stop-color="#efefef" stop-opacity="0"/></radialGradient><radialGradient id="radial-gradient-7" cx="-303.98" cy="-3750.73" fx="-322.88072327788643" fy="-3750.73197991065" r="30.7" gradientTransform="translate(349.32 607.47) scale(0.67 0.11)" xlink:href="#radial-gradient-6"/><radialGradient id="radial-gradient-8" cx="9680.61" cy="-3750.73" fx="9661.71344404011" fy="-3750.7319833318197" r="30.7" gradientTransform="matrix(-0.67, 0, 0, 0.11, 6565.62, 607.47)" xlink:href="#radial-gradient-6"/></defs><g class="cls-10"><g id="Capa_1" data-name="Capa 1"><g class="cls-11"><path class="cls-12" d="M217.28,230.05c-.54,6.65-26.63,9.88-58.27,7.21s-56.83-10.21-56.28-16.87,26.65-9.87,58.26-7.2S217.83,223.41,217.28,230.05Z"/></g><g class="cls-13"><path class="cls-14" d="M.46,230.05c.53,6.65,26.63,9.88,58.26,7.21s56.83-10.21,56.29-16.87-26.66-9.87-58.27-7.2S-.09,223.41.46,230.05Z"/></g><rect class="cls-15" x="1.72" y="12.31" width="214.28" height="216.19" rx="21.6"/><g class="cls-16"><g class="cls-17"><path class="cls-18" d="M200.36,43c-.44,5.53-21.55,8.22-47.14,6s-46-8.51-45.53-14,21.56-8.22,47.13-6S200.8,37.49,200.36,43Z"/></g><g class="cls-19"><path class="cls-20" d="M25.67,43c.43,5.53,21.54,8.22,47.13,6s46-8.51,45.54-14S96.77,26.77,71.2,29,25.22,37.49,25.67,43Z"/></g></g><rect class="cls-21" x="17.62" y="1.45" width="185.91" height="39.06" rx="18.64"/><path class="cls-22" d="M39.56,11.46a1.12,1.12,0,0,1,1.21-1.23h2.77c2.42,0,3.91,1.09,3.91,3.56a3,3,0,0,1-2.91,3l2.68,2.87a1,1,0,0,1,.31.69,1.19,1.19,0,0,1-2.09.8L42,16.89h0V20.3a1.18,1.18,0,1,1-2.35,0Zm2.35,3.73h1.63A1.34,1.34,0,0,0,45,13.79a1.32,1.32,0,0,0-1.46-1.39H41.91Z"/><path class="cls-22" d="M56,17.27a4.07,4.07,0,1,1-8.11,0,4.07,4.07,0,1,1,8.11,0Zm-5.85,0c0,1.08.57,2.28,1.79,2.28s1.8-1.2,1.8-2.28S53.21,15,52,15,50.17,16.18,50.17,17.27Z"/><path class="cls-22" d="M57,10.58a1.14,1.14,0,1,1,2.26,0v9.69a1.14,1.14,0,1,1-2.26,0Z"/><path class="cls-22" d="M72.43,20.27a1.15,1.15,0,0,1-1.14,1.26,1.08,1.08,0,0,1-1.13-.94,2.45,2.45,0,0,1-2.08,1c-2.28,0-3.72-2.12-3.72-4.26s1.21-4.48,3.65-4.48a3.27,3.27,0,0,1,2.15.78V10.58a1.14,1.14,0,1,1,2.27,0ZM68.38,15c-1.18,0-1.76,1.25-1.76,2.32s.58,2.28,1.76,2.28,1.78-1.26,1.78-2.36S69.6,15,68.38,15Z"/><path class="cls-22" d="M75.54,18a2,2,0,0,0,2.14,1.63c1.16,0,2-.91,2.56-.91a1,1,0,0,1,.93,1c0,1-2,1.92-3.7,1.92a4.11,4.11,0,0,1-4.24-4.35A4.07,4.07,0,1,1,81.36,17c0,.68-.3,1-1,1Zm3.55-1.51a1.79,1.79,0,0,0-1.81-1.74,1.83,1.83,0,0,0-1.79,1.74Z"/><path class="cls-22" d="M94.11,20.05c0,.58,0,1.48-1.08,1.48-.66,0-.93-.36-1.09-1a2.71,2.71,0,0,1-2.15,1.05c-2.13,0-3.75-1.81-3.75-4.35s1.67-4.39,3.75-4.39a2.58,2.58,0,0,1,2.15,1A1.08,1.08,0,0,1,93,13c1.08,0,1.08.9,1.08,1.48Zm-4-.5c1.18,0,1.75-1.2,1.75-2.28S91.3,15,90.1,15s-1.79,1.23-1.79,2.32S88.87,19.55,90.1,19.55Z"/><path class="cls-22" d="M103.14,20.27A1.14,1.14,0,0,1,102,21.53a1.1,1.1,0,0,1-1.14-.94,2.45,2.45,0,0,1-2.07,1c-2.28,0-3.73-2.12-3.73-4.26s1.21-4.48,3.65-4.48a3.23,3.23,0,0,1,2.15.78V10.58a1.14,1.14,0,1,1,2.27,0ZM99.1,15c-1.18,0-1.77,1.25-1.77,2.32s.59,2.28,1.77,2.28,1.77-1.26,1.77-2.36S100.31,15,99.1,15Z"/><path class="cls-22" d="M104.43,14.23A1.14,1.14,0,0,1,105.56,13a1,1,0,0,1,1,.85,2.79,2.79,0,0,1,2.1-.94A2.88,2.88,0,0,1,111.05,14a3.39,3.39,0,0,1,2.39-1.15,2.84,2.84,0,0,1,3.1,3v4.34a1.14,1.14,0,1,1-2.27,0V16.32c0-.91-.5-1.56-1.32-1.56s-1.33.65-1.33,1.56v3.95a1.14,1.14,0,1,1-2.27,0V16.32c0-.91-.5-1.56-1.32-1.56s-1.34.65-1.34,1.56v3.95a1.14,1.14,0,1,1-2.26,0Z"/><path class="cls-22" d="M120.2,10.82a1.3,1.3,0,0,1-1.27,1.3,1.33,1.33,0,0,1-1.28-1.3,1.28,1.28,0,0,1,2.55,0Zm-2.41,3.41a1.14,1.14,0,1,1,2.27,0v6a1.14,1.14,0,1,1-2.27,0Z"/><path class="cls-22" d="M121.32,14.23A1.14,1.14,0,0,1,122.45,13a1,1,0,0,1,1,.84,2.42,2.42,0,0,1,2.18-.93,2.9,2.9,0,0,1,3.1,3v4.34a1.14,1.14,0,1,1-2.26,0V16.32a1.47,1.47,0,1,0-2.93,0v3.95a1.14,1.14,0,1,1-2.26,0Z"/><path class="cls-22" d="M132.44,10.82a1.3,1.3,0,0,1-1.28,1.3,1.32,1.32,0,0,1-1.27-1.3,1.28,1.28,0,0,1,2.55,0ZM130,14.23a1.14,1.14,0,1,1,2.26,0v6a1.14,1.14,0,1,1-2.26,0Z"/><path class="cls-22" d="M138.32,15.52c-.43,0-1.29-.66-2-.66-.41,0-.77.19-.77.63,0,1,3.93.9,3.93,3.48,0,1.51-1.27,2.65-3.22,2.65-1.28,0-3.17-.72-3.17-1.74a1.07,1.07,0,0,1,1-1c.88,0,1.27.77,2.34.77.7,0,.9-.22.9-.64,0-1-3.93-.88-3.93-3.48,0-1.57,1.27-2.64,3.06-2.64,1.12,0,2.84.52,2.84,1.63A1,1,0,0,1,138.32,15.52Z"/><path class="cls-22" d="M140.8,15.05h-.5a.91.91,0,0,1-1-1,1,1,0,0,1,1-1h.5V11.71a1.14,1.14,0,1,1,2.27,0v1.36h.64c.58,0,1.09.26,1.09,1a1,1,0,0,1-1.09,1h-.64v5.22a1.14,1.14,0,1,1-2.27,0Z"/><path class="cls-22" d="M144.87,14.1A1.12,1.12,0,0,1,146,13c.6,0,1.1.22,1.1.95h0a1.8,1.8,0,0,1,1.59-.95,1.1,1.1,0,0,1,1.1,1.21c0,.74-.68.79-1.35,1.1s-1.37.62-1.37,1.51v3.48a1.14,1.14,0,1,1-2.27,0Z"/><path class="cls-22" d="M157.88,20.05c0,.58,0,1.48-1.08,1.48-.66,0-.93-.36-1.09-1a2.71,2.71,0,0,1-2.15,1.05c-2.13,0-3.75-1.81-3.75-4.35s1.67-4.39,3.75-4.39a2.58,2.58,0,0,1,2.15,1A1.08,1.08,0,0,1,156.8,13c1.08,0,1.08.9,1.08,1.48Zm-4-.5c1.18,0,1.75-1.2,1.75-2.28S155.07,15,153.87,15s-1.79,1.23-1.79,2.32S152.64,19.55,153.87,19.55Z"/><path class="cls-22" d="M159.72,15.05h-.5a.92.92,0,0,1-1-1,1,1,0,0,1,1-1h.5V11.71a1.14,1.14,0,1,1,2.26,0v1.36h.65c.58,0,1.08.26,1.08,1a1,1,0,0,1-1.08,1H162v5.22a1.14,1.14,0,1,1-2.26,0Z"/><path class="cls-22" d="M166.2,10.82a1.3,1.3,0,0,1-1.28,1.3,1.33,1.33,0,0,1-1.27-1.3,1.28,1.28,0,0,1,2.55,0Zm-2.41,3.41a1.14,1.14,0,1,1,2.27,0v6a1.14,1.14,0,1,1-2.27,0Z"/><path class="cls-22" d="M166.8,14.73a1.66,1.66,0,0,1-.15-.66,1.1,1.1,0,0,1,1.18-1.1,1,1,0,0,1,1,.8l1.45,4.47h0l1.45-4.47a1,1,0,0,1,1-.8,1.09,1.09,0,0,1,1.18,1.1,1.63,1.63,0,0,1-.14.66l-2.28,5.86c-.22.58-.45.94-1.23.94s-1-.36-1.22-.94Z"/><path class="cls-22" d="M182.37,17.27a4.07,4.07,0,1,1-8.12,0,4.07,4.07,0,1,1,8.12,0Zm-5.85,0c0,1.08.56,2.28,1.79,2.28s1.79-1.2,1.79-2.28S179.55,15,178.31,15,176.52,16.18,176.52,17.27Z"/><path class="cls-22" d="M76.27,33.9a1.14,1.14,0,0,1-1.13,1.26A1.08,1.08,0,0,1,74,34.21a2.46,2.46,0,0,1-2.08,1c-2.28,0-3.73-2.12-3.73-4.26s1.21-4.48,3.65-4.48a3.28,3.28,0,0,1,2.16.78V24.21a1.14,1.14,0,1,1,2.26,0Zm-4-5.32c-1.18,0-1.76,1.25-1.76,2.32s.58,2.28,1.76,2.28S74,31.92,74,30.82,73.44,28.58,72.23,28.58Z"/><path class="cls-22" d="M79.38,31.63a2,2,0,0,0,2.14,1.64c1.17,0,2-.91,2.57-.91a1,1,0,0,1,.92,1c0,1-2,1.92-3.69,1.92a4.12,4.12,0,0,1-4.25-4.35,4.07,4.07,0,1,1,8.13-.27c0,.67-.3,1-1,1Zm3.56-1.51a1.8,1.8,0,0,0-1.81-1.73,1.84,1.84,0,0,0-1.8,1.73Z"/><path class="cls-22" d="M92.59,24.45a1.29,1.29,0,0,1-1.27,1.3A1.33,1.33,0,0,1,90,24.45a1.31,1.31,0,0,1,1.28-1.25A1.29,1.29,0,0,1,92.59,24.45Zm-2.4,3.41a1.14,1.14,0,1,1,2.26,0v6a1.14,1.14,0,1,1-2.26,0Z"/><path class="cls-22" d="M93.71,27.86a1.14,1.14,0,0,1,1.13-1.26,1,1,0,0,1,1,.83,2.46,2.46,0,0,1,2.19-.92,2.9,2.9,0,0,1,3.09,3V33.9a1.14,1.14,0,1,1-2.26,0V30A1.47,1.47,0,1,0,96,30V33.9a1.14,1.14,0,1,1-2.26,0Z"/><path class="cls-22" d="M110.19,33.9a1.14,1.14,0,0,1-1.13,1.26,1.08,1.08,0,0,1-1.13-.95,2.46,2.46,0,0,1-2.08,1c-2.28,0-3.73-2.12-3.73-4.26s1.21-4.48,3.65-4.48a3.28,3.28,0,0,1,2.16.78V24.21a1.14,1.14,0,1,1,2.26,0Zm-4-5.32c-1.18,0-1.76,1.25-1.76,2.32s.58,2.28,1.76,2.28,1.78-1.26,1.78-2.36S107.36,28.58,106.15,28.58Z"/><path class="cls-22" d="M113.85,24.45a1.29,1.29,0,0,1-1.27,1.3,1.32,1.32,0,0,1-1.27-1.3,1.3,1.3,0,0,1,1.27-1.25A1.29,1.29,0,0,1,113.85,24.45Zm-2.4,3.41a1.14,1.14,0,1,1,2.26,0v6a1.14,1.14,0,1,1-2.26,0Z"/><path class="cls-22" d="M120.6,29c-.56,0-1.07-.44-1.79-.44-1.29,0-1.9,1.15-1.9,2.32a2.08,2.08,0,0,0,1.9,2.28,12.61,12.61,0,0,0,1.68-.48,1,1,0,0,1,1,1c0,1.16-2,1.55-2.77,1.55a4.11,4.11,0,0,1-4.06-4.35,4.22,4.22,0,0,1,4.06-4.39c.9,0,2.77.33,2.77,1.43C121.47,28.41,121.14,29,120.6,29Z"/><path class="cls-22" d="M130,33.68c0,.58,0,1.48-1.08,1.48-.67,0-.93-.36-1.09-1a2.71,2.71,0,0,1-2.16,1c-2.12,0-3.74-1.81-3.74-4.35s1.67-4.39,3.74-4.39a2.6,2.6,0,0,1,2.16,1,1.08,1.08,0,0,1,1.09-.94c1.08,0,1.08.9,1.08,1.48Zm-4-.5c1.18,0,1.75-1.2,1.75-2.28s-.55-2.32-1.75-2.32-1.79,1.23-1.79,2.32S124.75,33.18,126,33.18Z"/><path class="cls-22" d="M139,33.9a1.14,1.14,0,0,1-1.14,1.26,1.09,1.09,0,0,1-1.13-.95,2.43,2.43,0,0,1-2.07,1c-2.29,0-3.73-2.12-3.73-4.26s1.21-4.48,3.65-4.48a3.27,3.27,0,0,1,2.15.78V24.21a1.14,1.14,0,1,1,2.27,0ZM135,28.58c-1.18,0-1.76,1.25-1.76,2.32s.58,2.28,1.76,2.28,1.78-1.26,1.78-2.36S136.19,28.58,135,28.58Z"/><path class="cls-22" d="M148.09,30.9a4.07,4.07,0,1,1-8.12,0,4.07,4.07,0,1,1,8.12,0Zm-5.85,0c0,1.08.57,2.28,1.79,2.28s1.8-1.2,1.8-2.28-.55-2.32-1.8-2.32S142.24,29.81,142.24,30.9Z"/><path class="cls-22" d="M149,27.73a1.11,1.11,0,0,1,1.16-1.13c.6,0,1.1.22,1.1.94h0a1.81,1.81,0,0,1,1.59-.94,1.1,1.1,0,0,1,1.1,1.21c0,.74-.67.79-1.35,1.1s-1.37.62-1.37,1.51V33.9a1.14,1.14,0,1,1-2.26,0Z"/><polygon class="cls-23" points="120 74.96 174.58 80.41 183.74 81.33 174.74 171.47 111 165.1 120 74.96"/><polygon class="cls-24" points="132.78 66.89 185.28 82.77 194.09 85.43 167.86 172.14 106.55 153.6 132.78 66.89"/><rect class="cls-25" x="159.64" y="70.63" width="1.52" height="31.1" transform="translate(31.48 214.76) rotate(-73.17)"/><rect class="cls-25" x="158.55" y="63.65" width="1.52" height="52.3" transform="translate(27.22 216.28) rotate(-73.17)"/><rect class="cls-25" x="157.78" y="66.2" width="1.52" height="52.3" transform="translate(24.25 217.35) rotate(-73.17)"/><rect class="cls-25" x="157.01" y="68.74" width="1.52" height="52.3" transform="translate(21.27 218.42) rotate(-73.17)"/><rect class="cls-25" x="142.94" y="81.15" width="1.52" height="24.51" transform="translate(12.69 203.91) rotate(-73.17)"/><rect class="cls-25" x="148.08" y="108.08" width="0.65" height="48.52" transform="translate(-21.24 236.08) rotate(-73.17)"/><rect class="cls-25" x="114.24" y="110.24" width="30.82" height="0.66" transform="translate(-13.72 202.65) rotate(-73.17)"/><rect class="cls-25" x="123.1" y="112.92" width="30.82" height="0.65" transform="translate(-10 213.03) rotate(-73.17)"/><rect class="cls-25" x="131.95" y="115.6" width="30.82" height="0.65" transform="translate(-6.27 223.41) rotate(-73.17)"/><rect class="cls-25" x="140.81" y="118.28" width="30.82" height="0.65" transform="translate(-2.54 233.79) rotate(-73.17)"/><rect class="cls-25" x="149.85" y="121.03" width="30.8" height="0.65" transform="translate(-0.23 242.39) rotate(-72.47)"/><rect class="cls-25" x="158.52" y="123.64" width="30.82" height="0.65" transform="translate(4.92 254.56) rotate(-73.17)"/><polygon class="cls-25" points="127.37 118.08 173.82 132.13 173.63 132.76 127.19 118.71 127.37 118.08"/><polygon class="cls-25" points="129.47 111.16 175.81 125.55 175.61 126.17 129.28 111.79 129.47 111.16"/><rect class="cls-25" x="154.36" y="87.32" width="0.65" height="48.52" transform="translate(3.1 227.34) rotate(-73.17)"/><rect class="cls-25" x="156.46" y="80.39" width="0.65" height="48.52" transform="translate(11.21 224.42) rotate(-73.17)"/><polygon class="cls-26" points="140.79 107.15 124.58 124.91 125.3 125.58 140.89 108.5 144.52 123.87 144.65 124.42 145.17 124.21 155.77 120.11 162.31 129.4 162.68 129.93 163.09 129.43 175.02 114.87 176.63 116.19 177.6 110.95 172.66 112.93 174.26 114.25 162.74 128.31 156.35 119.23 156.13 118.92 155.77 119.06 145.34 123.1 141.63 107.37 141.42 106.47 140.79 107.15"/><rect class="cls-25" x="123.98" y="125.52" width="1.43" height="2.82" transform="translate(-32.9 209.54) rotate(-73.17)"/><rect class="cls-25" x="132.84" y="128.2" width="1.43" height="2.82" transform="translate(-29.2 219.88) rotate(-73.15)"/><rect class="cls-25" x="141.7" y="130.88" width="1.43" height="2.82" transform="translate(-25.47 230.26) rotate(-73.15)"/><rect class="cls-25" x="150.55" y="133.56" width="1.43" height="2.82" transform="translate(-21.74 240.64) rotate(-73.15)"/><rect class="cls-25" x="159.41" y="136.24" width="1.43" height="2.82" transform="translate(-17.99 251.07) rotate(-73.17)"/><rect class="cls-25" x="168.27" y="138.92" width="1.43" height="2.82" transform="translate(-14.26 261.45) rotate(-73.17)"/><rect class="cls-25" x="124.3" y="116.3" width="1.43" height="2.82" transform="matrix(0.29, -0.96, 0.96, 0.29, -23.85, 203.29)"/><rect class="cls-25" x="126.39" y="109.38" width="1.43" height="2.82" transform="translate(-15.71 200.42) rotate(-73.19)"/><rect class="cls-25" x="128.49" y="102.46" width="1.43" height="2.82" transform="matrix(0.29, -0.96, 0.96, 0.29, -7.62, 197.46)"/><rect class="cls-25" x="130.34" y="96.34" width="1.43" height="2.82" transform="translate(-0.43 194.92) rotate(-73.19)"/><rect class="cls-25" x="125.47" y="142.38" width="2.99" height="26.36" transform="translate(-58.7 232.05) rotate(-73.17)"/><rect class="cls-27" x="110.93" y="140.44" width="17.15" height="4.69" transform="translate(-51.77 215.83) rotate(-73.17)"/><rect class="cls-28" x="118.41" y="145.11" width="10.68" height="4.69" transform="translate(-53.21 223.21) rotate(-73.17)"/><rect class="cls-29" x="124.89" y="148.41" width="7.06" height="4.69" transform="translate(-53.05 230.02) rotate(-73.17)"/><rect class="cls-30" x="128.9" y="148.39" width="10.38" height="4.69" transform="translate(-49.01 235.43) rotate(-73.17)"/><rect class="cls-31" x="135.13" y="151.37" width="7.42" height="4.69" transform="translate(-48.49 242.11) rotate(-73.17)"/><circle class="cls-31" cx="155.96" cy="154.93" r="10.5" transform="matrix(0.53, -0.85, 0.85, 0.53, -57.93, 205.7)"/><path class="cls-32" d="M147.89,161.65a10.53,10.53,0,0,1-2.26-4.85L156,154.93Z"/><path class="cls-33" d="M145.63,156.8a10.48,10.48,0,0,1,6.53-11.65l3.8,9.78Z"/><path class="cls-34" d="M152.16,145.15a10.44,10.44,0,0,1,6.84-.26l-3,10Z"/><path class="cls-35" d="M159,144.89l-3,10,9.29-4.88A10.43,10.43,0,0,0,159,144.89Z"/><path class="cls-36" d="M136,170.15a5.56,5.56,0,0,1-4.4,6.48l-70,13.29a5.55,5.55,0,0,1-6.47-4.41L36.49,87.07a5.56,5.56,0,0,1,4.41-6.48l70-13.29a5.54,5.54,0,0,1,6.47,4.41Z"/><rect class="cls-37" x="45.66" y="72.86" width="82.29" height="111.28" rx="5.54" transform="translate(-22.46 18.46) rotate(-10.76)"/><path class="cls-38" d="M110.06,69.29,42.38,82.15a5.37,5.37,0,0,0-4.26,6.27l.51,2.72a5.37,5.37,0,0,1,4.27-6.26L110.58,72a5.37,5.37,0,0,1,6.26,4.26l-.52-2.72A5.37,5.37,0,0,0,110.06,69.29Z"/><path class="cls-39" d="M129.75,172.89,62.06,185.75a5.37,5.37,0,0,1-6.26-4.26l.52,2.71a5.37,5.37,0,0,0,6.26,4.27l67.68-12.86a5.37,5.37,0,0,0,4.26-6.27l-.51-2.71A5.37,5.37,0,0,1,129.75,172.89Z"/><path class="cls-40" d="M129,171.21a2.54,2.54,0,0,0,1.87-3.06L113.31,76a2.56,2.56,0,0,0-2.86-2.16L43.86,86.48A2.55,2.55,0,0,0,42,89.54L54,152.7a7.86,7.86,0,0,0,2.51,4.14l27.69,21a6.39,6.39,0,0,0,4.39,1.08Z"/><path class="cls-41" d="M126.66,169.84a2.55,2.55,0,0,0,1.86-3.06l-17-89.55a2.55,2.55,0,0,0-2.85-2.17L44.8,87.19a2.55,2.55,0,0,0-1.86,3.06l11.75,61.86a7.8,7.8,0,0,0,2.52,4.14l26.26,19.89a6.4,6.4,0,0,0,4.38,1.07Z"/><path class="cls-42" d="M82.91,171,80.43,157.9A4.84,4.84,0,0,0,75,153.78L62.7,156.11Z"/><path class="cls-43" d="M80.77,154.67,85.94,176h0L83,151.1a2.56,2.56,0,0,0-2.86-2.17L58.59,153h0l19.33-.52A2.56,2.56,0,0,1,80.77,154.67Z"/><path class="cls-44" d="M111,74.61l-68.57,13S70.16,89.15,111,74.61Z"/><path class="cls-40" d="M106,159.78a1.34,1.34,0,0,1,1-1.62l12.82-2.44a1.36,1.36,0,0,1,1.52,1.15h0a1.35,1.35,0,0,1-1,1.62l-12.82,2.44a1.35,1.35,0,0,1-1.52-1.15Z"/><path class="cls-40" d="M100.76,155.45a1.36,1.36,0,0,1,1-1.63l17-3.24a1.34,1.34,0,0,1,1.51,1.16h0a1.33,1.33,0,0,1-1,1.61l-17,3.24a1.35,1.35,0,0,1-1.52-1.14Z"/><path class="cls-40" d="M95.56,151.11a1.35,1.35,0,0,1,1-1.62l21.27-4a1.34,1.34,0,0,1,1.51,1.14h0a1.34,1.34,0,0,1-1,1.63l-21.27,4a1.35,1.35,0,0,1-1.52-1.15Z"/><path class="cls-40" d="M64.59,131.83a1.35,1.35,0,0,1,1-1.62l47.63-9.05a1.35,1.35,0,0,1,1.51,1.15h0a1.34,1.34,0,0,1-1,1.62L66.1,133a1.35,1.35,0,0,1-1.51-1.15Z"/><path class="cls-40" d="M78.26,137a1.35,1.35,0,0,1,1-1.63l35.38-6.72a1.35,1.35,0,0,1,1.51,1.15h0a1.34,1.34,0,0,1-1,1.62l-35.38,6.73A1.35,1.35,0,0,1,78.26,137Z"/><path class="cls-40" d="M55.37,122.45a1.35,1.35,0,0,1,1-1.62l54.81-10.42a1.36,1.36,0,0,1,1.51,1.15h0a1.36,1.36,0,0,1-1,1.63L56.89,123.6a1.35,1.35,0,0,1-1.52-1.15Z"/><path class="cls-40" d="M54,115.45a1.35,1.35,0,0,1,1-1.63l54.81-10.41a1.35,1.35,0,0,1,1.51,1.15h0a1.35,1.35,0,0,1-1,1.62L55.56,116.6A1.35,1.35,0,0,1,54,115.45Z"/><path class="cls-40" d="M52.62,108a1.34,1.34,0,0,1,1-1.62l54.8-10.42a1.36,1.36,0,0,1,1.52,1.15h0a1.36,1.36,0,0,1-1,1.63l-54.8,10.41A1.35,1.35,0,0,1,52.62,108Z"/><path class="cls-40" d="M51.29,101a1.35,1.35,0,0,1,1-1.63l54.8-10.41a1.35,1.35,0,0,1,1.52,1.15h0a1.35,1.35,0,0,1-1,1.62L52.8,102.12A1.35,1.35,0,0,1,51.29,101Z"/><path class="cls-45" d="M98.77,75.91a4.82,4.82,0,0,0-5.61-3.82l-10.63,2-1-5.54H81.4a4.22,4.22,0,0,0-.07-.79c-.58-3.06-4.17-5-8-4.22s-6.48,3.8-5.9,6.86a3.93,3.93,0,0,0,.23.76l-.08,0,1,5.54L58,78.77a4.81,4.81,0,0,0-3.81,5.61L54.5,86c0,.22.11.42.17.63a2.15,2.15,0,0,0,0,.43L55,88.87a1.92,1.92,0,0,0,2.24,1.52l2.83-.53,35.15-6.68,2.84-.54a1.92,1.92,0,0,0,1.52-2.24l-.34-1.77a2,2,0,0,0-.13-.42,3.58,3.58,0,0,0-.07-.64Z"/><path class="cls-46" d="M98.64,75.25A4.8,4.8,0,0,0,93,71.43l-10.63,2L81.35,67.9l-.08,0a4.33,4.33,0,0,0-.07-.8c-.58-3.06-4.16-5-8-4.22s-6.48,3.8-5.89,6.86a4.87,4.87,0,0,0,.22.77h-.08l1.06,5.55-10.63,2a4.81,4.81,0,0,0-3.82,5.61l.32,1.65a5.8,5.8,0,0,0,.16.63,2.09,2.09,0,0,0,0,.43l.34,1.77a1.91,1.91,0,0,0,2.24,1.53L60,89.19l35.16-6.67L98,82a1.92,1.92,0,0,0,1.52-2.25L99.16,78a2,2,0,0,0-.13-.41A3.72,3.72,0,0,0,99,76.9Z"/><path class="cls-47" d="M78.44,66.57a.42.42,0,0,1-.33.48l-8,1.53a.4.4,0,0,1-.48-.33h0a.41.41,0,0,1,.33-.47l8-1.53a.41.41,0,0,1,.48.32Z"/><path class="cls-48" d="M78.76,68.26a.4.4,0,0,1-.33.48l-8.05,1.53a.4.4,0,0,1-.48-.33h0a.42.42,0,0,1,.33-.48l8-1.53a.42.42,0,0,1,.48.33Z"/><path class="cls-49" d="M79.08,70a.4.4,0,0,1-.33.48L70.7,72a.41.41,0,0,1-.48-.32h0a.41.41,0,0,1,.33-.48l8-1.53a.41.41,0,0,1,.48.32Z"/><path class="cls-50" d="M79.4,71.65a.4.4,0,0,1-.33.47l-8,1.53a.41.41,0,0,1-.48-.32h0a.41.41,0,0,1,.33-.48l8-1.53a.4.4,0,0,1,.48.33Z"/><path class="cls-51" d="M135.77,191.72c0,3.4-21.1,6.16-47.13,6.16s-47.13-2.76-47.13-6.16,21.1-6.17,47.13-6.17S135.77,188.31,135.77,191.72Z"/><path class="cls-52" d="M166.85,206.83c0,1.81-9.19,3.27-20.53,3.27s-20.53-1.46-20.53-3.27,9.19-3.27,20.53-3.27S166.85,205,166.85,206.83Z"/><path class="cls-53" d="M72.72,206.83c0,1.81,9.19,3.27,20.53,3.27s20.53-1.46,20.53-3.27-9.19-3.27-20.53-3.27S72.72,205,72.72,206.83Z"/><path class="cls-54" d="M111.51,165.65l4.35.91.33-7.44h0A7.6,7.6,0,0,0,101.45,156h0L98.6,163l4.53.95a7.56,7.56,0,0,0,8.38,1.74Z"/><path class="cls-55" d="M116,165.35h0a8.82,8.82,0,0,0-17-3.69h0L87.7,186.83l28.62,6Z"/><path class="cls-54" d="M108.86,192.88l7.31,1.53.27-11.45,0-1.68a12,12,0,0,0-9.9-12.69A12.78,12.78,0,0,0,92,176.76h0l-4.78,11.62,7.6,1.58a12.73,12.73,0,0,0,14.07,2.93Z"/><path class="cls-56" d="M110.15,151.18a7.51,7.51,0,0,0-2.71-.07L103.21,164l-5.57,17,7,1.44L108,166.2l3.08-14.77A6.63,6.63,0,0,0,110.15,151.18Z"/><path class="cls-57" d="M115.12,195a13.89,13.89,0,1,1-10.76-16.43A13.88,13.88,0,0,1,115.12,195Z"/><path class="cls-58" d="M114,192a12.19,12.19,0,1,1-9.52-14A12,12,0,0,1,114,192Z"/><path class="cls-59" d="M98.47,206.77a15,15,0,1,1,17.7-11.59A15,15,0,0,1,98.47,206.77Zm5.67-27.2a12.82,12.82,0,1,0,9.94,15.17A12.84,12.84,0,0,0,104.14,179.57Z"/><path class="cls-60" d="M110.67,192.56a4.52,4.52,0,1,1-3.5-5.35A4.51,4.51,0,0,1,110.67,192.56Z"/><path class="cls-54" d="M127.64,165.65l-4.35.91-.34-7.44h0A7.6,7.6,0,0,1,137.69,156h0l2.85,6.92-4.53.95a7.56,7.56,0,0,1-8.38,1.74Z"/><path class="cls-55" d="M123.17,165.35h0a8.82,8.82,0,0,1,17-3.69h0l11.25,25.18-28.61,6Z"/><path class="cls-54" d="M130.28,192.88l-7.3,1.53L122.71,183l0-1.68a12,12,0,0,1,9.9-12.69,12.77,12.77,0,0,1,14.6,8.17h0L152,188.37,144.35,190a12.73,12.73,0,0,1-14.07,2.93Z"/><path class="cls-56" d="M129,151.18a7.51,7.51,0,0,1,2.71-.07L135.94,164l5.57,17-7,1.44-3.38-16.22-3.08-14.77A7.21,7.21,0,0,1,129,151.18Z"/><path class="cls-57" d="M124,195a13.89,13.89,0,1,0,10.77-16.43A13.89,13.89,0,0,0,124,195Z"/><path class="cls-58" d="M125.15,192a12.18,12.18,0,1,0,9.52-14A12,12,0,0,0,125.15,192Z"/><path class="cls-59" d="M123,195.18a15,15,0,1,1,17.69,11.59A15,15,0,0,1,123,195.18Zm2.09-.44A12.82,12.82,0,1,0,135,179.57,12.84,12.84,0,0,0,125.07,194.74Z"/><path class="cls-60" d="M128.47,192.56a4.53,4.53,0,1,0,3.51-5.35A4.52,4.52,0,0,0,128.47,192.56Z"/><path class="cls-54" d="M114.85,181.69s4.2-5.42,9.62,0V172.9s-4.18-5-9.41.24Z"/><path class="cls-54" d="M115.13,169.75s4-5.25,9.08,0l-.57-8.79s-3.67-4.58-7.87.24Z"/></g></g></svg>