<svg xmlns="http://www.w3.org/2000/svg" xmlns:xlink="http://www.w3.org/1999/xlink" viewBox="0 0 218.32 236.79"><defs><style>.cls-1{mask:url(#mask);filter:url(#luminosity-noclip-5);}.cls-12,.cls-14,.cls-18,.cls-2,.cls-20,.cls-28,.cls-4,.cls-6,.cls-8{mix-blend-mode:multiply;}.cls-2{fill:url(#radial-gradient);}.cls-3{mask:url(#mask-2);filter:url(#luminosity-noclip-6);}.cls-4{fill:url(#radial-gradient-2);}.cls-5{mask:url(#mask-3);filter:url(#luminosity-noclip-7);}.cls-6{fill:url(#radial-gradient-3);}.cls-7{mask:url(#mask-4);filter:url(#luminosity-noclip-8);}.cls-8{fill:url(#radial-gradient-4);}.cls-9{fill:none;}.cls-10{isolation:isolate;}.cls-11{mask:url(#mask-5);}.cls-12{fill:url(#Degradado_sin_nombre_153);}.cls-13{mask:url(#mask-6);}.cls-14{fill:url(#Degradado_sin_nombre_151);}.cls-15{fill:#e4ecec;}.cls-16{clip-path:url(#clip-path);}.cls-17{mask:url(#mask-7);}.cls-18{fill:url(#Degradado_sin_nombre_153-2);}.cls-19{mask:url(#mask-8);}.cls-20{fill:url(#Degradado_sin_nombre_151-2);}.cls-21{fill:#93d500;}.cls-22{fill:#fefefe;}.cls-23{fill:#6044a2;}.cls-24{opacity:0.4;}.cls-25{fill:#5b434f;stroke:#5b434f;stroke-miterlimit:10;stroke-width:1.59px;}.cls-26{fill:#fff;}.cls-27,.cls-29{fill:#afafaf;}.cls-27,.cls-28{fill-rule:evenodd;}.cls-28{fill:#b5d9df;}.cls-30{fill:#4f69aa;}.cls-31{opacity:0.2;}.cls-32{fill:#f44d4d;}.cls-33{filter:url(#luminosity-noclip-4);}.cls-34{filter:url(#luminosity-noclip-3);}.cls-35{filter:url(#luminosity-noclip-2);}.cls-36{filter:url(#luminosity-noclip);}</style><filter id="luminosity-noclip" x="102.74" y="-8576" width="114.57" height="32766" filterUnits="userSpaceOnUse" color-interpolation-filters="sRGB"><feFlood flood-color="#fff" result="bg"/><feBlend in="SourceGraphic" in2="bg"/></filter><mask id="mask" x="102.74" y="-8576" width="114.57" height="32766" maskUnits="userSpaceOnUse"><g class="cls-36"/></mask><radialGradient id="radial-gradient" cx="-247.1" cy="266.25" r="39.98" gradientTransform="matrix(1, 0.3, -1.03, 0.13, 680.35, 265.47)" gradientUnits="userSpaceOnUse"><stop offset="0.5" stop-color="#a6a6a6"/><stop offset="0.6" stop-color="#a3a3a3"/><stop offset="0.67" stop-color="#999"/><stop offset="0.75" stop-color="#888"/><stop offset="0.81" stop-color="#707070"/><stop offset="0.88" stop-color="#515151"/><stop offset="0.94" stop-color="#2c2c2c"/><stop offset="1"/></radialGradient><filter id="luminosity-noclip-2" x="0.47" y="-8576" width="114.57" height="32766" filterUnits="userSpaceOnUse" color-interpolation-filters="sRGB"><feFlood flood-color="#fff" result="bg"/><feBlend in="SourceGraphic" in2="bg"/></filter><mask id="mask-2" x="0.47" y="-8576" width="114.57" height="32766" maskUnits="userSpaceOnUse"><g class="cls-35"/></mask><radialGradient id="radial-gradient-2" cx="74.46" cy="-486.27" r="39.98" gradientTransform="matrix(-1, 0.3, 1.03, 0.13, 632.97, 265.47)" xlink:href="#radial-gradient"/><filter id="luminosity-noclip-3" x="107.7" y="-8576" width="92.69" height="32766" filterUnits="userSpaceOnUse" color-interpolation-filters="sRGB"><feFlood flood-color="#fff" result="bg"/><feBlend in="SourceGraphic" in2="bg"/></filter><mask id="mask-3" x="107.7" y="-8576" width="92.69" height="32766" maskUnits="userSpaceOnUse"><g class="cls-34"/></mask><radialGradient id="radial-gradient-3" cx="-366.79" cy="-914.57" r="33.28" gradientTransform="matrix(0.97, 0.3, -1, 0.13, -407.06, 265.47)" xlink:href="#radial-gradient"/><filter id="luminosity-noclip-4" x="25.68" y="-8576" width="92.69" height="32766" filterUnits="userSpaceOnUse" color-interpolation-filters="sRGB"><feFlood flood-color="#fff" result="bg"/><feBlend in="SourceGraphic" in2="bg"/></filter><mask id="mask-4" x="25.68" y="-8576" width="92.69" height="32766" maskUnits="userSpaceOnUse"><g class="cls-33"/></mask><radialGradient id="radial-gradient-4" cx="-694.88" cy="-146.78" r="33.28" gradientTransform="matrix(-0.97, 0.3, 1, 0.13, -453.11, 265.47)" xlink:href="#radial-gradient"/><filter id="luminosity-noclip-5" x="102.74" y="212.73" width="114.57" height="25.94" filterUnits="userSpaceOnUse" color-interpolation-filters="sRGB"><feFlood flood-color="#fff" result="bg"/><feBlend in="SourceGraphic" in2="bg"/></filter><mask id="mask-5" x="102.74" y="212.73" width="114.57" height="25.94" maskUnits="userSpaceOnUse"><g class="cls-1"><path class="cls-2" d="M217.29,230.53c-.53,6.64-26.62,9.87-58.26,7.21s-56.83-10.22-56.28-16.87S129.4,211,161,213.66,217.85,223.88,217.29,230.53Z"/></g></mask><radialGradient id="Degradado_sin_nombre_153" cx="-247.1" cy="266.25" r="39.98" gradientTransform="matrix(1, 0.3, -1.03, 0.13, 680.35, 265.47)" gradientUnits="userSpaceOnUse"><stop offset="0" stop-color="#3c3c3b"/><stop offset="1" stop-color="#fff" stop-opacity="0"/></radialGradient><filter id="luminosity-noclip-6" x="0.47" y="212.73" width="114.57" height="25.94" filterUnits="userSpaceOnUse" color-interpolation-filters="sRGB"><feFlood flood-color="#fff" result="bg"/><feBlend in="SourceGraphic" in2="bg"/></filter><mask id="mask-6" x="0.47" y="212.73" width="114.57" height="25.94" maskUnits="userSpaceOnUse"><g class="cls-3"><path class="cls-4" d="M.48,230.53c.53,6.64,26.63,9.87,58.26,7.21s56.83-10.22,56.29-16.87S88.37,211,56.76,213.66-.07,223.88.48,230.53Z"/></g></mask><radialGradient id="Degradado_sin_nombre_151" cx="74.46" cy="-486.27" r="39.98" gradientTransform="matrix(-1, 0.3, 1.03, 0.13, 632.97, 265.47)" gradientUnits="userSpaceOnUse"><stop offset="0" stop-color="#3c3c3b"/><stop offset="0" stop-color="#3d3d3c"/><stop offset="1" stop-color="#fff" stop-opacity="0"/></radialGradient><clipPath id="clip-path"><rect class="cls-9" x="30.99" y="41.17" width="163.4" height="10.43"/></clipPath><filter id="luminosity-noclip-7" x="107.7" y="28.68" width="92.69" height="21.6" filterUnits="userSpaceOnUse" color-interpolation-filters="sRGB"><feFlood flood-color="#fff" result="bg"/><feBlend in="SourceGraphic" in2="bg"/></filter><mask id="mask-7" x="107.7" y="28.68" width="92.69" height="21.6" maskUnits="userSpaceOnUse"><g class="cls-5"><path class="cls-6" d="M200.38,43.5c-.44,5.53-21.55,8.22-47.14,6s-46-8.5-45.53-14,21.56-8.22,47.13-6S200.82,38,200.38,43.5Z"/></g></mask><radialGradient id="Degradado_sin_nombre_153-2" cx="-366.79" cy="-914.57" r="33.28" gradientTransform="matrix(0.97, 0.3, -1, 0.13, -407.06, 265.47)" xlink:href="#Degradado_sin_nombre_153"/><filter id="luminosity-noclip-8" x="25.68" y="28.68" width="92.69" height="21.6" filterUnits="userSpaceOnUse" color-interpolation-filters="sRGB"><feFlood flood-color="#fff" result="bg"/><feBlend in="SourceGraphic" in2="bg"/></filter><mask id="mask-8" x="25.68" y="28.68" width="92.69" height="21.6" maskUnits="userSpaceOnUse"><g class="cls-7"><path class="cls-8" d="M25.69,43.5c.43,5.53,21.54,8.22,47.13,6s46-8.5,45.54-14-21.57-8.22-47.14-6S25.24,38,25.69,43.5Z"/></g></mask><radialGradient id="Degradado_sin_nombre_151-2" cx="-694.88" cy="-146.78" r="33.28" gradientTransform="matrix(-0.97, 0.3, 1, 0.13, -453.11, 265.47)" xlink:href="#Degradado_sin_nombre_151"/></defs><g class="cls-10"><g id="Capa_1" data-name="Capa 1"><g class="cls-11"><path class="cls-12" d="M217.29,230.53c-.53,6.64-26.62,9.87-58.26,7.21s-56.83-10.22-56.28-16.87S129.4,211,161,213.66,217.85,223.88,217.29,230.53Z"/></g><g class="cls-13"><path class="cls-14" d="M.48,230.53c.53,6.64,26.63,9.87,58.26,7.21s56.83-10.22,56.29-16.87S88.37,211,56.76,213.66-.07,223.88.48,230.53Z"/></g><rect class="cls-15" x="1.74" y="12.79" width="214.28" height="216.19" rx="21.6"/><g class="cls-16"><g class="cls-17"><path class="cls-18" d="M200.38,43.5c-.44,5.53-21.55,8.22-47.14,6s-46-8.5-45.53-14,21.56-8.22,47.13-6S200.82,38,200.38,43.5Z"/></g><g class="cls-19"><path class="cls-20" d="M25.69,43.5c.43,5.53,21.54,8.22,47.13,6s46-8.5,45.54-14-21.57-8.22-47.14-6S25.24,38,25.69,43.5Z"/></g></g><rect class="cls-21" x="17.64" y="1.93" width="185.91" height="39.06" rx="18.64"/><path class="cls-22" d="M38.92,12a1.13,1.13,0,0,1,1.23-1.25H43c2.46,0,4,1.11,4,3.62,0,1.76-1.33,2.77-3,3l2.73,2.92A1.05,1.05,0,0,1,47,21a1.22,1.22,0,0,1-2.13.82l-3.56-4.31h0V21a1.2,1.2,0,1,1-2.4,0Zm2.4,3.79H43a1.42,1.42,0,1,0,0-2.83H41.32Z"/><path class="cls-22" d="M55.68,17.88a4.14,4.14,0,1,1-8.26,0,4.14,4.14,0,1,1,8.26,0Zm-6,0c0,1.1.58,2.32,1.83,2.32s1.82-1.22,1.82-2.32-.56-2.36-1.82-2.36S49.72,16.77,49.72,17.88Z"/><path class="cls-22" d="M56.62,11.07a1.16,1.16,0,1,1,2.3,0v9.86a1.16,1.16,0,1,1-2.3,0Z"/><path class="cls-22" d="M72.36,20.93a1.16,1.16,0,0,1-1.15,1.28,1.1,1.1,0,0,1-1.15-1A2.5,2.5,0,0,1,68,22.31c-2.32,0-3.8-2.16-3.8-4.34s1.24-4.56,3.72-4.56a3.32,3.32,0,0,1,2.19.8V11.07a1.16,1.16,0,1,1,2.3,0Zm-4.11-5.41c-1.2,0-1.79,1.27-1.79,2.36s.59,2.32,1.79,2.32,1.81-1.28,1.81-2.4S69.48,15.52,68.25,15.52Z"/><path class="cls-22" d="M75.53,18.63a2,2,0,0,0,2.18,1.66c1.18,0,2-.92,2.6-.92a1,1,0,0,1,1,1c0,1-2.05,1.95-3.76,1.95a4.19,4.19,0,0,1-4.32-4.43,4.14,4.14,0,1,1,8.27-.28c0,.69-.3,1-1,1Zm3.62-1.54a1.83,1.83,0,0,0-1.84-1.76,1.86,1.86,0,0,0-1.83,1.76Z"/><path class="cls-22" d="M94.43,20.71c0,.59,0,1.5-1.11,1.5-.67,0-.94-.36-1.1-1A2.76,2.76,0,0,1,90,22.31c-2.17,0-3.81-1.84-3.81-4.43s1.69-4.47,3.81-4.47a2.64,2.64,0,0,1,2.19,1.06,1.09,1.09,0,0,1,1.1-1c1.11,0,1.11.91,1.11,1.5Zm-4.08-.51c1.2,0,1.77-1.22,1.77-2.32s-.56-2.36-1.77-2.36-1.83,1.25-1.83,2.36S89.1,20.2,90.35,20.2Z"/><path class="cls-22" d="M103.61,20.93a1.16,1.16,0,0,1-1.15,1.28,1.1,1.1,0,0,1-1.15-1,2.51,2.51,0,0,1-2.12,1.06c-2.32,0-3.79-2.16-3.79-4.34s1.23-4.56,3.71-4.56a3.35,3.35,0,0,1,2.2.8V11.07a1.16,1.16,0,1,1,2.3,0ZM99.5,15.52c-1.2,0-1.8,1.27-1.8,2.36s.6,2.32,1.8,2.32,1.81-1.28,1.81-2.4S100.73,15.52,99.5,15.52Z"/><path class="cls-22" d="M104.92,14.79a1.16,1.16,0,0,1,1.15-1.28,1,1,0,0,1,1.06.86,2.86,2.86,0,0,1,2.14-1,3,3,0,0,1,2.39,1.17,3.46,3.46,0,0,1,2.43-1.17,2.89,2.89,0,0,1,3.15,3.11v4.41a1.16,1.16,0,1,1-2.3,0v-4c0-.93-.51-1.59-1.34-1.59a1.41,1.41,0,0,0-1.37,1.59v4a1.16,1.16,0,1,1-2.3,0v-4c0-.93-.51-1.59-1.35-1.59s-1.36.66-1.36,1.59v4a1.16,1.16,0,1,1-2.3,0Z"/><path class="cls-22" d="M121,11.31a1.32,1.32,0,0,1-1.3,1.33,1.34,1.34,0,0,1-1.29-1.33,1.3,1.3,0,0,1,2.59,0Zm-2.45,3.48a1.16,1.16,0,1,1,2.3,0v6.14a1.16,1.16,0,1,1-2.3,0Z"/><path class="cls-22" d="M122.1,14.79a1.16,1.16,0,0,1,1.16-1.28,1,1,0,0,1,1,.84,2.51,2.51,0,0,1,2.23-.94,3,3,0,0,1,3.15,3.11v4.41a1.16,1.16,0,1,1-2.3,0v-4a1.49,1.49,0,1,0-3,0v4a1.16,1.16,0,1,1-2.31,0Z"/><path class="cls-22" d="M133.42,11.31a1.32,1.32,0,0,1-1.3,1.33,1.35,1.35,0,0,1-1.3-1.33,1.33,1.33,0,0,1,1.3-1.26A1.32,1.32,0,0,1,133.42,11.31ZM131,14.79a1.16,1.16,0,1,1,2.3,0v6.14a1.16,1.16,0,1,1-2.3,0Z"/><path class="cls-22" d="M139.4,16.1c-.43,0-1.31-.67-2.06-.67-.42,0-.79.19-.79.64,0,1.07,4,.91,4,3.53,0,1.54-1.29,2.71-3.28,2.71-1.3,0-3.22-.74-3.22-1.78a1.09,1.09,0,0,1,1-1c.89,0,1.29.78,2.38.78.71,0,.91-.22.91-.65,0-1.06-4-.9-4-3.54,0-1.6,1.3-2.69,3.12-2.69,1.14,0,2.88.53,2.88,1.67A1,1,0,0,1,139.4,16.1Z"/><path class="cls-22" d="M141.93,15.62h-.52a.93.93,0,0,1-1-1,1,1,0,0,1,1-1h.52V12.23a1.16,1.16,0,1,1,2.3,0V13.6h.66a1,1,0,0,1,1.1,1,1,1,0,0,1-1.1,1h-.66v5.31a1.16,1.16,0,1,1-2.3,0Z"/><path class="cls-22" d="M146.07,14.66a1.13,1.13,0,0,1,1.18-1.15c.61,0,1.12.22,1.12,1h0a1.81,1.81,0,0,1,1.61-1,1.12,1.12,0,0,1,1.12,1.23c0,.75-.68.8-1.37,1.12s-1.4.62-1.4,1.54v3.53a1.16,1.16,0,1,1-2.3,0Z"/><path class="cls-22" d="M159.31,20.71c0,.59,0,1.5-1.11,1.5-.67,0-.94-.36-1.1-1a2.79,2.79,0,0,1-2.2,1.07c-2.16,0-3.81-1.84-3.81-4.43s1.7-4.47,3.81-4.47a2.66,2.66,0,0,1,2.2,1.06,1.09,1.09,0,0,1,1.1-1c1.11,0,1.11.91,1.11,1.5Zm-4.09-.51c1.2,0,1.78-1.22,1.78-2.32s-.56-2.36-1.78-2.36-1.82,1.25-1.82,2.36S154,20.2,155.22,20.2Z"/><path class="cls-22" d="M168.49,20.93a1.16,1.16,0,0,1-1.15,1.28,1.11,1.11,0,0,1-1.16-1,2.48,2.48,0,0,1-2.11,1.06c-2.32,0-3.79-2.16-3.79-4.34s1.23-4.56,3.71-4.56a3.31,3.31,0,0,1,2.19.8V11.07a1.16,1.16,0,1,1,2.31,0Zm-4.11-5.41c-1.2,0-1.8,1.27-1.8,2.36s.6,2.32,1.8,2.32,1.8-1.28,1.8-2.4S165.61,15.52,164.38,15.52Z"/><path class="cls-22" d="M177.72,17.88a4.14,4.14,0,1,1-8.26,0,4.14,4.14,0,1,1,8.26,0Zm-5.95,0c0,1.1.57,2.32,1.82,2.32s1.83-1.22,1.83-2.32-.57-2.36-1.83-2.36S171.77,16.77,171.77,17.88Z"/><path class="cls-22" d="M178.66,14.66a1.13,1.13,0,0,1,1.19-1.15c.6,0,1.12.22,1.12,1h0a1.81,1.81,0,0,1,1.62-1,1.12,1.12,0,0,1,1.12,1.23c0,.75-.69.8-1.38,1.12S181,16.48,181,17.4v3.53a1.16,1.16,0,1,1-2.31,0Z"/><path class="cls-22" d="M75.69,34.56a1.16,1.16,0,0,1-1.15,1.28,1.1,1.1,0,0,1-1.15-1,2.51,2.51,0,0,1-2.12,1.06c-2.32,0-3.79-2.16-3.79-4.34S68.71,27,71.19,27a3.35,3.35,0,0,1,2.2.8V24.7a1.16,1.16,0,1,1,2.3,0Zm-4.11-5.41c-1.2,0-1.8,1.27-1.8,2.36s.6,2.32,1.8,2.32,1.81-1.28,1.81-2.4S72.81,29.15,71.58,29.15Z"/><path class="cls-22" d="M78.86,32.26A2,2,0,0,0,81,33.92c1.19,0,2-.93,2.61-.93a1,1,0,0,1,1,1c0,1-2,1.95-3.77,1.95a4.2,4.2,0,0,1-4.32-4.43,4.15,4.15,0,1,1,8.28-.28c0,.69-.31,1-1,1Zm3.61-1.54A1.81,1.81,0,0,0,80.63,29a1.86,1.86,0,0,0-1.82,1.76Z"/><path class="cls-22" d="M92.3,24.94A1.32,1.32,0,0,1,91,26.27a1.35,1.35,0,0,1-1.3-1.33A1.33,1.33,0,0,1,91,23.68,1.32,1.32,0,0,1,92.3,24.94Zm-2.45,3.48a1.16,1.16,0,1,1,2.3,0v6.14a1.16,1.16,0,1,1-2.3,0Z"/><path class="cls-22" d="M93.43,28.42a1.16,1.16,0,0,1,1.15-1.28,1,1,0,0,1,1.06.84A2.5,2.5,0,0,1,97.86,27,3,3,0,0,1,101,30.15v4.41a1.16,1.16,0,1,1-2.31,0v-4a1.49,1.49,0,1,0-3,0v4a1.16,1.16,0,1,1-2.31,0Z"/><path class="cls-22" d="M110.2,34.56a1.16,1.16,0,0,1-1.15,1.28,1.1,1.1,0,0,1-1.15-1,2.51,2.51,0,0,1-2.12,1.06c-2.32,0-3.79-2.16-3.79-4.34S103.22,27,105.7,27a3.35,3.35,0,0,1,2.2.8V24.7a1.16,1.16,0,1,1,2.3,0Zm-4.11-5.41c-1.2,0-1.79,1.27-1.79,2.36s.59,2.32,1.79,2.32,1.81-1.28,1.81-2.4S107.32,29.15,106.09,29.15Z"/><path class="cls-22" d="M113.93,24.94a1.32,1.32,0,0,1-1.3,1.33,1.35,1.35,0,0,1-1.3-1.33,1.33,1.33,0,0,1,1.3-1.26A1.32,1.32,0,0,1,113.93,24.94Zm-2.45,3.48a1.16,1.16,0,1,1,2.3,0v6.14a1.16,1.16,0,1,1-2.3,0Z"/><path class="cls-22" d="M120.79,29.6c-.57,0-1.09-.45-1.82-.45-1.32,0-1.94,1.17-1.94,2.36A2.13,2.13,0,0,0,119,33.83a12.79,12.79,0,0,0,1.71-.48,1,1,0,0,1,1,1c0,1.19-2,1.59-2.81,1.59a4.18,4.18,0,0,1-4.13-4.43A4.29,4.29,0,0,1,118.86,27c.91,0,2.81.34,2.81,1.46C121.67,29,121.34,29.6,120.79,29.6Z"/><path class="cls-22" d="M130.35,34.34c0,.59,0,1.5-1.11,1.5-.67,0-.94-.36-1.1-1a2.79,2.79,0,0,1-2.2,1.07c-2.16,0-3.81-1.84-3.81-4.43s1.7-4.47,3.81-4.47a2.66,2.66,0,0,1,2.2,1.06,1.09,1.09,0,0,1,1.1-1c1.11,0,1.11.91,1.11,1.5Zm-4.09-.51c1.2,0,1.78-1.22,1.78-2.32s-.56-2.36-1.78-2.36-1.82,1.25-1.82,2.36S125,33.83,126.26,33.83Z"/><path class="cls-22" d="M139.53,34.56a1.16,1.16,0,0,1-1.15,1.28,1.11,1.11,0,0,1-1.16-1,2.48,2.48,0,0,1-2.11,1.06c-2.32,0-3.79-2.16-3.79-4.34S132.55,27,135,27a3.31,3.31,0,0,1,2.19.8V24.7a1.16,1.16,0,1,1,2.31,0Zm-4.11-5.41c-1.2,0-1.8,1.27-1.8,2.36s.6,2.32,1.8,2.32,1.8-1.28,1.8-2.4S136.65,29.15,135.42,29.15Z"/><path class="cls-22" d="M148.76,31.51a4.14,4.14,0,1,1-8.26,0,4.14,4.14,0,1,1,8.26,0Zm-5.95,0c0,1.1.57,2.32,1.82,2.32s1.83-1.22,1.83-2.32-.57-2.36-1.83-2.36S142.81,30.4,142.81,31.51Z"/><path class="cls-22" d="M149.7,28.29a1.13,1.13,0,0,1,1.19-1.15c.6,0,1.12.22,1.12,1h0a1.81,1.81,0,0,1,1.61-1,1.12,1.12,0,0,1,1.12,1.23c0,.75-.68.8-1.37,1.12S152,30.11,152,31v3.53a1.16,1.16,0,1,1-2.31,0Z"/><path class="cls-23" d="M164.5,77.77l-2.4-1a12.65,12.65,0,0,0,.06-4.5l0,0,2.44-1a1.06,1.06,0,0,0,.59-1.38l-1.68-4.23a1.05,1.05,0,0,0-1.37-.59l-2.62.88a9.61,9.61,0,0,0-3.28-3.24h0l1.25-2.31A1,1,0,0,0,157,59l-4.13-1.77c-.54-.23-.87.08-1.1.61l-1,2.41a12.9,12.9,0,0,0-4.54-.08l-.06,0-1-2.45a1.06,1.06,0,0,0-1.38-.59l-4.24,1.68a1.05,1.05,0,0,0-.59,1.37l.89,2.61a9.38,9.38,0,0,0-3.23,3.27h0l-2.36-1.14a.79.79,0,0,0-1.17.43l-1.78,4.16a.88.88,0,0,0,.44,1.26l2.41,1a12.54,12.54,0,0,0-.05,4.44v0l-2.44,1a1.06,1.06,0,0,0-.59,1.37l1.69,4.23a1.05,1.05,0,0,0,1.37.59l2.54-.92a12.68,12.68,0,0,0,3.21,3.2h0l-1,2.41c-.23.53-.21,1.1.32,1.33l4.19,1.8a1.14,1.14,0,0,0,1.44-.58l.89-2.47a10.46,10.46,0,0,0,4.26,0h0L151,90.65a1.15,1.15,0,0,0,1.44.62l4.27-1.67a1.06,1.06,0,0,0,.61-1.36l-.91-2.55a9.41,9.41,0,0,0,3.22-3.22h0L162,83.62a1.11,1.11,0,0,0,1.48-.42L165.26,79C165.49,78.51,165,78,164.5,77.77Zm-21.18.94-.14-.16a4.78,4.78,0,0,1-.39-.5l-.18-.26c-.06-.09-.11-.18-.16-.27l-.08-.13a6.86,6.86,0,0,1-.38-.83,7.18,7.18,0,0,1-.26-.87c0-.12,0-.24-.07-.36a6.71,6.71,0,0,1-.09-1.1A6.54,6.54,0,0,1,146,68l.45-.14.16,0,.31-.07a7.31,7.31,0,0,1,.94-.11h.32a6.41,6.41,0,0,1,2.55.53,6.62,6.62,0,0,1,2.46,1.84l.2.25.27.39.16.27s.05.09.08.14a2.44,2.44,0,0,1,.14.28,3.3,3.3,0,0,1,.19.43c0,.1.08.19.11.29a5.38,5.38,0,0,1,.21.76,1.88,1.88,0,0,1,.06.31c0,.11,0,.21.05.32s0,.31,0,.47a6.59,6.59,0,0,1-.53,2.87,7,7,0,0,1-.84,1.43l-.2.25-.33.35a2.39,2.39,0,0,1-.23.22l-.16.14-.33.27-.26.18-.21.14a1.18,1.18,0,0,1-.19.11l-.14.08-.28.14-.14.07-.29.13-.15,0a5.26,5.26,0,0,1-.6.19l-.15,0-.31.07-.31,0-.16,0-.31,0a6.57,6.57,0,0,1-3-.52,6.37,6.37,0,0,1-2.06-1.4Z"/><g class="cls-24"><path class="cls-25" d="M168.57,91.79,128,80.17l-3.6-1-21.07-6a5.27,5.27,0,0,0-6.51,3.64l-25.7,90.58a5.29,5.29,0,0,0,3.64,6.52l21.06,6,3.59,1L140,192.52a5.27,5.27,0,0,0,6.52-3.64l25.7-90.57A5.27,5.27,0,0,0,168.57,91.79Z"/></g><path class="cls-26" d="M166.26,88,125.7,76.39l-3.59-1-21.06-6A5.28,5.28,0,0,0,94.52,73L68.83,163.61a5.27,5.27,0,0,0,3.63,6.52l21.07,6,3.59,1,40.56,11.62a5.29,5.29,0,0,0,6.52-3.65l25.7-90.57A5.3,5.3,0,0,0,166.26,88Z"/><polygon class="cls-27" points="84.69 139.53 111.95 147.25 111.44 149.07 84.18 141.35 84.69 139.53"/><polygon class="cls-28" points="86.61 133.28 113.87 141 112.65 145.2 85.4 137.48 86.61 133.28"/><polygon class="cls-28" points="119.27 142.05 146.53 149.77 145.31 153.97 118.06 146.25 119.27 142.05"/><polygon class="cls-28" points="96.64 98.61 123.9 106.32 122.69 110.52 95.43 102.8 96.64 98.61"/><polygon class="cls-28" points="129.3 107.37 156.56 115.09 155.34 119.29 128.09 111.57 129.3 107.37"/><polygon class="cls-28" points="101.81 79.07 129.07 86.79 127.85 90.99 100.59 83.26 101.81 79.07"/><polygon class="cls-28" points="134.47 87.83 161.73 95.55 160.51 99.75 133.25 92.03 134.47 87.83"/><polygon class="cls-27" points="83.8 142.71 111.05 150.42 110.54 152.23 83.29 144.51 83.8 142.71"/><polygon class="cls-27" points="82.9 145.88 110.16 153.58 109.64 155.41 82.39 147.69 82.9 145.88"/><rect class="cls-29" x="94.43" y="139.64" width="1.88" height="28.33" transform="translate(-78.61 203.65) rotate(-74.18)"/><polygon class="cls-27" points="81.11 152.21 108.36 159.93 107.85 161.74 80.59 154.02 81.11 152.21"/><polygon class="cls-27" points="80.21 155.38 107.46 163.1 106.95 164.91 79.69 157.19 80.21 155.38"/><polygon class="cls-27" points="79.31 158.54 106.57 166.27 106.05 168.09 78.8 160.37 79.31 158.54"/><polygon class="cls-27" points="78.41 161.72 92.04 165.58 91.53 167.39 77.9 163.53 78.41 161.72"/><polygon class="cls-27" points="116.83 148.63 144.09 156.35 143.57 158.17 116.33 150.45 116.83 148.63"/><polygon class="cls-27" points="115.94 151.8 143.19 159.53 142.68 161.33 115.42 153.61 115.94 151.8"/><polygon class="cls-27" points="115.03 154.97 142.29 162.69 141.78 164.5 114.52 156.79 115.03 154.97"/><polygon class="cls-27" points="114.14 158.14 141.4 165.86 140.88 167.68 113.62 159.95 114.14 158.14"/><rect class="cls-29" x="125.67" y="151.91" width="1.89" height="28.34" transform="translate(-67.69 242.62) rotate(-74.18)"/><polygon class="cls-27" points="112.34 164.48 139.6 172.2 139.09 174.01 111.83 166.29 112.34 164.48"/><rect class="cls-29" x="123.87" y="158.25" width="1.89" height="28.33" transform="matrix(0.27, -0.96, 0.96, 0.27, -75.09, 245.52)"/><rect class="cls-29" x="118.94" y="164.47" width="1.88" height="19.94" transform="translate(-80.63 242.25) rotate(-74.18)"/><polygon class="cls-27" points="95.16 104.8 122.42 112.52 121.9 114.33 94.65 106.61 95.16 104.8"/><polygon class="cls-27" points="94.26 107.97 121.52 115.68 121 117.5 93.75 109.78 94.26 107.97"/><polygon class="cls-27" points="93.36 111.13 120.62 118.86 120.11 120.67 92.85 112.95 93.36 111.13"/><rect class="cls-29" x="112.74" y="76.63" width="1.89" height="28.33" transform="translate(-4.64 175.45) rotate(-74.2)"/><polygon class="cls-27" points="99.42 89.19 126.68 96.92 126.16 98.73 98.91 91.01 99.42 89.19"/><rect class="cls-29" x="110.95" y="82.96" width="1.88" height="28.33" transform="translate(-12.06 178.31) rotate(-74.18)"/><polygon class="cls-27" points="92.46 114.31 119.72 122.03 119.21 123.84 91.95 116.12 92.46 114.31"/><polygon class="cls-27" points="91.56 117.48 118.83 125.2 118.31 127 91.06 119.29 91.56 117.48"/><rect class="cls-29" x="103.1" y="111.24" width="1.89" height="28.33" transform="translate(-44.99 191.31) rotate(-74.18)"/><polygon class="cls-27" points="89.77 123.81 117.03 131.53 116.51 133.34 89.26 125.62 89.77 123.81"/><polygon class="cls-27" points="88.88 126.99 102.5 130.85 101.99 132.65 88.36 128.79 88.88 126.99"/><rect class="cls-29" x="139.73" y="104.5" width="1.88" height="28.33" transform="matrix(0.27, -0.96, 0.96, 0.27, -11.82, 221.69)"/><polygon class="cls-27" points="126.39 117.07 153.66 124.79 153.14 126.6 125.88 118.88 126.39 117.07"/><polygon class="cls-27" points="125.5 120.24 152.76 127.95 152.24 129.76 124.99 122.05 125.5 120.24"/><rect class="cls-29" x="144.89" y="85.73" width="1.88" height="28.33" transform="translate(9.99 213) rotate(-74.2)"/><rect class="cls-29" x="143.98" y="88.9" width="1.88" height="28.33" transform="translate(6.27 214.42) rotate(-74.19)"/><rect class="cls-29" x="143.08" y="92.07" width="1.88" height="28.33" transform="translate(2.59 215.89) rotate(-74.2)"/><rect class="cls-29" x="137.03" y="114.01" width="1.88" height="28.33" transform="translate(-22.94 226.01) rotate(-74.19)"/><rect class="cls-29" x="136.14" y="117.17" width="1.88" height="28.33" transform="translate(-26.64 227.45) rotate(-74.19)"/><polygon class="cls-27" points="122.81 129.74 150.06 137.47 149.56 139.28 122.29 131.56 122.81 129.74"/><rect class="cls-29" x="134.34" y="123.52" width="1.88" height="28.32" transform="translate(-34.05 230.33) rotate(-74.19)"/><polygon class="cls-27" points="121.01 136.09 140.2 141.52 139.68 143.33 120.5 137.9 121.01 136.09"/><g class="cls-24"><path class="cls-25" d="M124.81,69,84.13,80.24l-3.59,1L59.43,87.1a5.27,5.27,0,0,0-3.66,6.5L81,184.31a5.28,5.28,0,0,0,6.5,3.67l21.09-5.86,3.59-1,40.68-11.2a5.28,5.28,0,0,0,3.68-6.5L131.31,72.71A5.28,5.28,0,0,0,124.81,69Z"/></g><path class="cls-26" d="M120.86,67,80.19,78.21l-3.6,1L55.5,85.08a5.28,5.28,0,0,0-3.68,6.5L77,182.29a5.28,5.28,0,0,0,6.5,3.67l21.1-5.86,3.59-1,40.68-11.2a5.28,5.28,0,0,0,3.67-6.5L127.36,70.69A5.28,5.28,0,0,0,120.86,67Z"/><rect class="cls-29" x="77.79" y="149.64" width="28.33" height="1.89" transform="translate(-37.03 30.2) rotate(-15.57)"/><polygon class="cls-28" points="76.44 147.14 103.73 139.53 104.88 143.75 77.59 151.35 76.44 147.14"/><polygon class="cls-28" points="108.88 137.62 136.18 130.01 137.32 134.23 110.03 141.83 108.88 137.62"/><polygon class="cls-28" points="66.94 112.31 94.24 104.7 95.39 108.92 68.1 116.52 66.94 112.31"/><polygon class="cls-28" points="99.39 102.79 126.68 95.18 127.83 99.4 100.54 107 99.39 102.79"/><polygon class="cls-28" points="61.18 92.94 88.47 85.34 89.62 89.56 62.33 97.15 61.18 92.94"/><polygon class="cls-28" points="93.63 83.42 120.92 75.81 122.07 80.03 94.78 87.63 93.63 83.42"/><polygon class="cls-27" points="78.94 156.65 106.23 149.04 106.74 150.86 79.45 158.46 78.94 156.65"/><polygon class="cls-27" points="79.82 159.82 107.11 152.21 107.62 154.03 80.33 161.63 79.82 159.82"/><rect class="cls-29" x="80.44" y="159.16" width="28.33" height="1.88" transform="translate(-39.48 31.24) rotate(-15.56)"/><polygon class="cls-27" points="81.6 166.16 108.88 158.56 109.39 160.38 82.09 167.98 81.6 166.16"/><polygon class="cls-27" points="82.47 169.34 109.76 161.74 110.27 163.55 82.97 171.16 82.47 169.34"/><polygon class="cls-27" points="83.35 172.51 110.65 164.91 111.15 166.73 83.86 174.33 83.35 172.51"/><polygon class="cls-27" points="84.23 175.68 97.88 171.88 98.39 173.7 84.74 177.5 84.23 175.68"/><polygon class="cls-27" points="110.22 144.51 137.52 136.91 138.02 138.72 110.74 146.32 110.22 144.51"/><polygon class="cls-27" points="111.12 147.68 138.41 140.09 138.91 141.89 111.61 149.5 111.12 147.68"/><rect class="cls-29" x="111.73" y="147.02" width="28.33" height="1.88" transform="translate(-35.09 39.21) rotate(-15.57)"/><polygon class="cls-27" points="112.88 154.03 140.17 146.43 140.68 148.25 113.38 155.84 112.88 154.03"/><polygon class="cls-27" points="113.76 157.2 141.06 149.6 141.57 151.42 114.27 159.02 113.76 157.2"/><rect class="cls-29" x="114.38" y="156.54" width="28.33" height="1.88" transform="translate(-37.55 40.27) rotate(-15.57)"/><rect class="cls-29" x="115.27" y="159.71" width="28.33" height="1.89" transform="translate(-38.35 40.61) rotate(-15.56)"/><rect class="cls-29" x="116.3" y="164.01" width="19.94" height="1.88" transform="matrix(0.96, -0.27, 0.27, 0.96, -39.63, 39.94)"/><polygon class="cls-27" points="68.9 118.37 96.19 110.77 96.7 112.58 69.41 120.18 68.9 118.37"/><polygon class="cls-27" points="69.78 121.55 97.07 113.94 97.58 115.76 70.3 123.35 69.78 121.55"/><polygon class="cls-27" points="70.67 124.71 97.97 117.11 98.47 118.93 71.18 126.53 70.67 124.71"/><rect class="cls-29" x="63.26" y="95.82" width="28.33" height="1.89" transform="translate(-23.14 24.34) rotate(-15.57)"/><polygon class="cls-27" points="64.41 102.83 91.71 95.23 92.21 97.04 64.92 104.64 64.41 102.83"/><rect class="cls-29" x="65.03" y="102.17" width="28.34" height="1.88" transform="translate(-24.75 25.02) rotate(-15.56)"/><rect class="cls-29" x="71.29" y="124.05" width="28.33" height="1.88" transform="translate(-30.41 27.51) rotate(-15.57)"/><polygon class="cls-27" points="72.44 131.06 99.73 123.46 100.23 125.27 72.94 132.87 72.44 131.06"/><polygon class="cls-27" points="73.32 134.23 100.61 126.63 101.12 128.45 73.82 136.05 73.32 134.23"/><polygon class="cls-27" points="74.2 137.4 101.5 129.8 102 131.62 74.71 139.22 74.2 137.4"/><polygon class="cls-27" points="75.09 140.58 88.74 136.78 89.24 138.59 75.59 142.39 75.09 140.58"/><rect class="cls-29" x="100.81" y="105.57" width="28.33" height="1.88" transform="translate(-24.36 34.76) rotate(-15.57)"/><polygon class="cls-27" points="101.96 112.58 129.25 104.98 129.75 106.79 102.47 114.4 101.96 112.58"/><polygon class="cls-27" points="102.84 115.75 130.14 108.15 130.64 109.96 103.35 117.56 102.84 115.75"/><rect class="cls-29" x="95.44" y="86.86" width="28.33" height="1.88" transform="translate(-19.55 32.65) rotate(-15.57)"/><rect class="cls-29" x="96.32" y="90.04" width="28.33" height="1.88" transform="translate(-20.36 33) rotate(-15.57)"/><polygon class="cls-27" points="97.47 97.05 124.77 89.44 125.27 91.26 97.98 98.86 97.47 97.05"/><rect class="cls-29" x="103.46" y="115.09" width="28.33" height="1.88" transform="translate(-26.82 35.82) rotate(-15.57)"/><rect class="cls-29" x="104.34" y="118.26" width="28.33" height="1.88" transform="translate(-27.64 36.17) rotate(-15.57)"/><polygon class="cls-27" points="105.5 125.27 132.79 117.67 133.3 119.48 106 127.09 105.5 125.27"/><rect class="cls-29" x="106.12" y="124.61" width="28.32" height="1.88" transform="translate(-29.27 36.87) rotate(-15.56)"/><polygon class="cls-27" points="107.27 131.62 126.48 126.26 126.97 128.08 107.77 133.43 107.27 131.62"/><path class="cls-30" d="M86.29,148.53,82.73,147a18.72,18.72,0,0,0,.1-6.66l0-.06,3.61-1.47a1.58,1.58,0,0,0,.88-2l-2.5-6.28a1.56,1.56,0,0,0-2-.87L79,130.93a14.07,14.07,0,0,0-4.87-4.8v0L76,122.69a1.43,1.43,0,0,0-.78-1.94L69,118.12c-.79-.34-1.29.12-1.63.91l-1.51,3.58a19.09,19.09,0,0,0-6.72-.13l-.08,0-1.48-3.62a1.59,1.59,0,0,0-2-.88l-6.28,2.5a1.56,1.56,0,0,0-.88,2l1.32,3.86a14,14,0,0,0-4.79,4.84h0l-3.5-1.7a1.16,1.16,0,0,0-1.73.64l-2.64,6.16a1.3,1.3,0,0,0,.66,1.87l3.57,1.52a18,18,0,0,0-.07,6.58l0,0-3.6,1.45a1.56,1.56,0,0,0-.88,2l2.5,6.27a1.56,1.56,0,0,0,2,.87L45,155.52a18.6,18.6,0,0,0,4.75,4.74h0l-1.54,3.57c-.34.79-.32,1.64.47,2l6.21,2.66a1.67,1.67,0,0,0,2.13-.86L58.35,164a15.1,15.1,0,0,0,6.3,0h0l1.65,3.7a1.7,1.7,0,0,0,2.13.92l6.32-2.48a1.56,1.56,0,0,0,.9-2l-1.35-3.77a13.69,13.69,0,0,0,4.77-4.77h0l3.5,1.69a1.64,1.64,0,0,0,2.19-.62l2.65-6.16C87.76,149.62,87.08,148.87,86.29,148.53Zm-31.38,1.38-.2-.22c-.21-.24-.4-.49-.58-.74l-.27-.39-.24-.4-.11-.2a9.76,9.76,0,0,1-.57-1.23,11.25,11.25,0,0,1-.38-1.29c0-.18-.08-.35-.11-.53a9.86,9.86,0,0,1-.13-1.63,9.72,9.72,0,0,1,6.55-9.17c.22-.08.45-.15.67-.21l.23-.05.46-.1a10.77,10.77,0,0,1,1.39-.17c.16,0,.32,0,.48,0a9.52,9.52,0,0,1,3.77.79,9.63,9.63,0,0,1,3.65,2.72c.1.12.2.24.29.37s.28.38.4.58.17.26.25.4l.11.2c.07.14.15.28.21.42s.2.42.29.64l.16.43a11.11,11.11,0,0,1,.31,1.13l.09.46c0,.15.05.3.06.46s0,.47.06.7a9.75,9.75,0,0,1-.78,4.25,9.6,9.6,0,0,1-1.24,2.11l-.3.38c-.16.18-.32.35-.49.52l-.34.33-.23.21-.49.39-.39.27-.31.21-.28.17-.2.11-.42.21-.21.1-.43.19-.22.08a8.39,8.39,0,0,1-.89.28l-.22.06-.46.1-.46.07-.23,0-.47.05a9.7,9.7,0,0,1-7.54-2.85A2.72,2.72,0,0,1,54.91,149.91Z"/><ellipse class="cls-31" cx="157.87" cy="196.9" rx="11.65" ry="2.24"/><path class="cls-32" d="M181.11,155.48h0a23.24,23.24,0,0,0-46.48,0s-1.28,18.35,23.24,41.42C182.38,173.83,181.11,155.48,181.11,155.48Z"/><circle class="cls-26" cx="157.87" cy="155.48" r="10.64"/></g></g></svg>