<svg id="Capa_1" data-name="Capa 1" xmlns="http://www.w3.org/2000/svg" viewBox="0 0 441.23 333.66"><defs><style>.cls-1{opacity:0.22;}.cls-2{fill:#00d6b9;}.cls-3{fill:#00d5c5;opacity:0.35;}.cls-4{fill:#1a1a1a;opacity:0.2;}.cls-10,.cls-12,.cls-13,.cls-14,.cls-15,.cls-16,.cls-17,.cls-18,.cls-19,.cls-20,.cls-23,.cls-4,.cls-6,.cls-7,.cls-8{fill-rule:evenodd;}.cls-5,.cls-7{fill:#fff;}.cls-11,.cls-6{fill:#ccc;}.cls-8,.cls-9{fill:#b3b3b3;}.cls-10{fill:#1e4b73;}.cls-12{fill:#f06358;}.cls-13{fill:#f58982;}.cls-14{fill:#346896;}.cls-15{fill:#ffd500;}.cls-16{fill:#f80;}.cls-17{fill:#ffd4a3;}.cls-18{fill:#ffc685;}.cls-19{fill:#d4453b;}.cls-20,.cls-21{fill:#5896cc;}.cls-22,.cls-23{fill:#ebb588;}</style></defs><g class="cls-1"><circle class="cls-2" cx="328.09" cy="212.08" r="72.8"/><circle class="cls-2" cx="311.27" cy="116.65" r="83.07"/><circle class="cls-2" cx="211.59" cy="111.16" r="60.88" transform="translate(-16.63 182.18) rotate(-45)"/><circle class="cls-2" cx="154.86" cy="122.27" r="60.88" transform="translate(-41.1 145.31) rotate(-45)"/><circle class="cls-2" cx="57.15" cy="192.1" r="40.01" transform="translate(-141.88 168.53) rotate(-66.68)"/><circle class="cls-2" cx="131.62" cy="234.7" r="46.11" transform="translate(-136.02 262.65) rotate(-66.68)"/><circle class="cls-2" cx="247.01" cy="23.64" r="9.78"/><circle class="cls-2" cx="158.21" cy="38.13" r="6.54"/><circle class="cls-2" cx="114.7" cy="15.31" r="11.83" transform="translate(-0.46 26.66) rotate(-13.23)"/><path class="cls-2" d="M124.69,39.09a6,6,0,1,0,4.74-4.75A6,6,0,0,0,124.69,39.09Z"/><path class="cls-2" d="M393.74,56.83a6.05,6.05,0,1,0,4.75-4.75A6.05,6.05,0,0,0,393.74,56.83Z"/><circle class="cls-2" cx="308.71" cy="317.17" r="12.64" transform="translate(-64.82 79.74) rotate(-13.33)"/><circle class="cls-2" cx="146.41" cy="312.07" r="4.3"/><path class="cls-2" d="M116.74,317.1a9,9,0,1,0-9,9A9,9,0,0,0,116.74,317.1Z"/><path class="cls-2" d="M437.66,143.38a8.16,8.16,0,1,0-8.16,8.16A8.16,8.16,0,0,0,437.66,143.38Z"/><circle class="cls-2" cx="394.59" cy="101.14" r="21.77"/><path class="cls-2" d="M38.65,131.45a6.5,6.5,0,1,0-6.5,6.49A6.5,6.5,0,0,0,38.65,131.45Z"/><path class="cls-2" d="M35.31,111.35a4.58,4.58,0,1,0-4.58,4.58A4.58,4.58,0,0,0,35.31,111.35Z"/><path class="cls-2" d="M10.08,145.38a3.81,3.81,0,1,0-3.81,3.81A3.81,3.81,0,0,0,10.08,145.38Z"/><circle class="cls-2" cx="199.53" cy="245.48" r="34.73" transform="translate(-56.84 60.15) rotate(-15.03)"/><circle class="cls-2" cx="255.68" cy="239.63" r="34.73" transform="translate(-53.4 74.52) rotate(-15.03)"/></g><path class="cls-3" d="M415.27,152.49c-7-25-30.2-43.16-62.94-53.07a42.71,42.71,0,0,0-.26-6.68C347,49.65,277.89,22.39,197.75,31.87S56.78,84,61.88,127.06c1.56,13.13,9.05,24.78,21,34.38C46.33,191.87,27.65,227.52,36.51,259c15.83,56.25,113.44,78,218,48.59s176.55-98.88,160.73-155.12"/><path class="cls-4" d="M388.24,182.19a34,34,0,0,1,7.05-.85c6.55-.13,11,2,13.26,4.91a7.86,7.86,0,0,1,1.65,4.49,8.41,8.41,0,0,1-1.26,4.73c-2.16,3.64-7.16,6.82-15.17,7.77a34.64,34.64,0,0,1-5.53.19v-1.84a33.09,33.09,0,0,0,5.31-.17c7.38-.87,11.92-3.69,13.82-6.88a6.74,6.74,0,0,0,1-3.73,6.23,6.23,0,0,0-1.29-3.46c-1.91-2.51-5.87-4.3-11.77-4.19a33.63,33.63,0,0,0-7.08.9ZM352.4,222.55h0c11.25-2.74,23.46,6.65,27.49,21.43s-1.86,29.45-13.22,32.56-24-6.75-27.94-21.32,1.4-28.26,11.87-32.12c.79-8.39,8.88-19.6,14.45-25.59-.8-.33-1.61-.69-2.42-1.05-11.45-5.16-23.62-12.85-35.19-21.95V288.73a4.54,4.54,0,0,1-4.53,4.52H226V158.39h77.6v-2.31H226V72.79H339.31c6.11,0,9.24,2.63,7,11.14l-19.33,72.15H313.47v2.31h9.47a4.54,4.54,0,0,1,4.53,4.52v9.25c11.78,9.41,24.25,17.35,35.94,22.62,1,.43,1.94.85,2.89,1.25a42.22,42.22,0,0,1,18.44-12.87,34.83,34.83,0,0,1,3.5-1v1.87c-1,.24-2,.52-2.92.84a40.13,40.13,0,0,0-17.23,11.86c7.25,2.86,14.09,4.57,20.15,4.83v1.84c-6.46-.27-13.73-2.12-21.4-5.2C358.54,208.44,354.77,214.47,352.4,222.55ZM226,293.25H129a4.54,4.54,0,0,1-4.52-4.52V162.91a4.53,4.53,0,0,1,4.52-4.52h9.48v-2.31h-14L106.12,85c-2.68-10.4-1-12.25,5.93-12.25H226v83.29h-77.6v2.31H226Z"/><path class="cls-5" d="M378.13,173.53a35.59,35.59,0,0,1,7.05-.85c6.55-.12,11,2,13.27,4.92a7.91,7.91,0,0,1,1.65,4.48,8.55,8.55,0,0,1-1.26,4.74c-2.16,3.63-7.16,6.82-15.18,7.76a34.6,34.6,0,0,1-5.53.19v-1.83a33.15,33.15,0,0,0,5.32-.18c7.38-.87,11.91-3.68,13.81-6.88a6.71,6.71,0,0,0,1-3.72A6.12,6.12,0,0,0,397,178.7c-1.91-2.52-5.87-4.3-11.78-4.19a33.71,33.71,0,0,0-7.08.9Zm-62.52-11.44c12.3,10,25.43,18.5,37.7,24,1,.44,1.93.86,2.89,1.26a42.09,42.09,0,0,1,18.44-12.87,34.69,34.69,0,0,1,3.49-1v1.88c-1,.23-1.95.51-2.91.83A40.22,40.22,0,0,0,358,188.1c7.24,2.86,14.08,4.58,20.14,4.84v1.83c-6.45-.27-13.72-2.11-21.39-5.19a54.21,54.21,0,0,0-4.66,6.72,61.7,61.7,0,0,0-8.41,31.94,50.29,50.29,0,0,0,2.52,15l-1.74.58a52.36,52.36,0,0,1-2.61-15.59,63.6,63.6,0,0,1,8.67-32.9,56,56,0,0,1,4.47-6.52c-.8-.34-1.61-.69-2.42-1.06-12.42-5.59-25.68-14.16-38.11-24.28Z"/><path class="cls-6" d="M102,64.14H329.21c6.1,0,9.24,2.63,7,11.14l-19.34,72.15H114.33L96,76.39C93.33,66,95,64.14,102,64.14Z"/><path class="cls-6" d="M345,219c11.37-3.1,23.87,6.44,27.93,21.32S371,269.8,359.66,272.9s-23.88-6.44-27.94-21.32S333.58,222.13,345,219Z"/><path class="cls-7" d="M345.37,220.58c9.42-2.57,19.77,5.33,23.14,17.65s-1.55,24.39-11,27-19.77-5.33-23.13-17.65S336,223.15,345.37,220.58Z"/><path class="cls-8" d="M345,219l.44-.11L349.23,233l-.88.24-3.84-14.06Z"/><rect class="cls-9" x="345.27" y="222.35" width="6.01" height="17.76" rx="1.35" transform="translate(-48.62 99.94) rotate(-15.28)"/><rect class="cls-5" x="346.62" y="223.41" width="3.31" height="15.64" rx="0.74" transform="translate(-48.59 99.85) rotate(-15.26)"/><path class="cls-7" d="M100.62,65.89H331.26A2.7,2.7,0,0,1,334,68.58h0a2.7,2.7,0,0,1-2.69,2.69H100.62a2.7,2.7,0,0,1-2.69-2.69h0A2.7,2.7,0,0,1,100.62,65.89Z"/><rect class="cls-5" x="114.33" y="149.73" width="203.03" height="134.86" rx="4.52"/><path class="cls-8" d="M127.67,149.73h11.24v6.43a1,1,0,0,1-1,1.05h-9.14a1,1,0,0,1-1-1.05Z"/><path class="cls-8" d="M292.78,149.73H304v6.43a1,1,0,0,1-1,1.05h-9.14a1.06,1.06,0,0,1-1.06-1.05Z"/><polygon class="cls-10" points="324.34 82.59 310.28 137.72 121.05 137.72 106.84 82.59 324.34 82.59"/><rect class="cls-5" x="128.33" y="143.9" width="9.92" height="11.38" rx="0.93"/><rect class="cls-5" x="293.45" y="143.9" width="9.92" height="11.38" rx="0.93"/><rect class="cls-11" x="296.31" y="167.71" width="8.85" height="7.24" rx="1.29"/><rect class="cls-11" x="296.31" y="176.59" width="8.85" height="9.47" rx="1.58"/><rect class="cls-11" x="296.31" y="187.7" width="8.85" height="9.47" rx="1.58"/><rect class="cls-11" x="296.31" y="198.8" width="8.85" height="9.47" rx="1.58"/><rect class="cls-11" x="296.31" y="209.91" width="8.85" height="9.47" rx="1.58"/><rect class="cls-11" x="296.31" y="221.02" width="8.85" height="9.47" rx="1.58"/><rect class="cls-11" x="285.25" y="167.71" width="8.85" height="7.24" rx="1.29"/><rect class="cls-11" x="275.03" y="176.59" width="19.08" height="9.47" rx="1.69"/><rect class="cls-11" x="282.23" y="187.7" width="11.87" height="9.47" rx="1.69"/><rect class="cls-11" x="273.78" y="198.8" width="20.32" height="9.47" rx="1.69"/><rect class="cls-11" x="285.25" y="209.91" width="8.85" height="9.47" rx="1.58"/><rect class="cls-11" x="285.25" y="221.02" width="8.85" height="9.47" rx="1.58"/><rect class="cls-11" x="275.03" y="167.71" width="8.01" height="7.24" rx="1.29"/><rect class="cls-11" x="264.64" y="167.71" width="8.01" height="7.24" rx="1.29"/><rect class="cls-11" x="254.25" y="167.71" width="8.01" height="7.24" rx="1.29"/><rect class="cls-11" x="243.86" y="167.71" width="8.01" height="7.24" rx="1.29"/><rect class="cls-11" x="233.47" y="167.71" width="8.01" height="7.24" rx="1.29"/><rect class="cls-11" x="223.08" y="167.71" width="8.01" height="7.24" rx="1.29"/><rect class="cls-11" x="212.69" y="167.71" width="8.01" height="7.24" rx="1.29"/><rect class="cls-11" x="202.3" y="167.71" width="8.01" height="7.24" rx="1.29"/><rect class="cls-11" x="191.91" y="167.71" width="8.01" height="7.24" rx="1.29"/><rect class="cls-11" x="181.52" y="167.71" width="8.01" height="7.24" rx="1.29"/><rect class="cls-11" x="171.14" y="167.71" width="8.01" height="7.24" rx="1.29"/><rect class="cls-11" x="160.75" y="167.71" width="8.01" height="7.24" rx="1.29"/><rect class="cls-11" x="150.36" y="167.71" width="8.01" height="7.24" rx="1.29"/><rect class="cls-11" x="139.97" y="167.71" width="8.01" height="7.24" rx="1.29"/><rect class="cls-11" x="128.3" y="167.71" width="8.85" height="7.24" rx="1.29"/><rect class="cls-11" x="263.96" y="176.59" width="8.69" height="9.47" rx="1.55"/><rect class="cls-11" x="252.68" y="176.59" width="8.69" height="9.47" rx="1.55"/><rect class="cls-11" x="241.41" y="176.59" width="8.69" height="9.47" rx="1.55"/><rect class="cls-11" x="230.14" y="176.59" width="8.69" height="9.47" rx="1.55"/><rect class="cls-11" x="218.87" y="176.59" width="8.69" height="9.47" rx="1.55"/><rect class="cls-11" x="207.6" y="176.59" width="8.69" height="9.47" rx="1.55"/><rect class="cls-11" x="196.33" y="176.59" width="8.69" height="9.47" rx="1.55"/><rect class="cls-11" x="185.05" y="176.59" width="8.69" height="9.47" rx="1.55"/><rect class="cls-11" x="173.78" y="176.59" width="8.69" height="9.47" rx="1.55"/><rect class="cls-11" x="162.51" y="176.59" width="8.69" height="9.47" rx="1.55"/><rect class="cls-11" x="151.24" y="176.59" width="8.69" height="9.47" rx="1.55"/><rect class="cls-11" x="139.97" y="176.59" width="8.69" height="9.47" rx="1.55"/><rect class="cls-11" x="128.3" y="176.59" width="8.85" height="9.47" rx="1.58"/><rect class="cls-11" x="128.3" y="187.7" width="15.09" height="9.47" rx="1.69"/><rect class="cls-11" x="128.3" y="198.8" width="17.3" height="9.47" rx="1.69"/><rect class="cls-11" x="128.3" y="209.91" width="23.34" height="9.47" rx="1.69"/><rect class="cls-11" x="128.3" y="221.02" width="11.67" height="9.47" rx="1.69"/><rect class="cls-11" x="144.8" y="187.7" width="9.31" height="9.47" rx="1.66"/><rect class="cls-11" x="156.28" y="187.7" width="9.31" height="9.47" rx="1.66"/><rect class="cls-11" x="167.76" y="187.7" width="9.31" height="9.47" rx="1.66"/><rect class="cls-11" x="179.25" y="187.7" width="9.31" height="9.47" rx="1.66"/><rect class="cls-11" x="190.73" y="187.7" width="9.31" height="9.47" rx="1.66"/><rect class="cls-11" x="202.21" y="187.7" width="9.31" height="9.47" rx="1.66"/><rect class="cls-11" x="213.7" y="187.7" width="9.31" height="9.47" rx="1.66"/><rect class="cls-11" x="225.18" y="187.7" width="9.31" height="9.47" rx="1.66"/><rect class="cls-11" x="236.66" y="187.7" width="9.31" height="9.47" rx="1.66"/><rect class="cls-11" x="248.15" y="187.7" width="9.31" height="9.47" rx="1.66"/><rect class="cls-11" x="259.63" y="187.7" width="9.31" height="9.47" rx="1.66"/><rect class="cls-11" x="271.11" y="187.7" width="9.31" height="9.47" rx="1.66"/><rect class="cls-11" x="147.99" y="198.8" width="9.31" height="9.47" rx="1.66"/><rect class="cls-11" x="159.48" y="198.8" width="9.31" height="9.47" rx="1.66"/><rect class="cls-11" x="170.96" y="198.8" width="9.31" height="9.47" rx="1.66"/><rect class="cls-11" x="182.44" y="198.8" width="9.31" height="9.47" rx="1.66"/><rect class="cls-11" x="193.92" y="198.8" width="9.31" height="9.47" rx="1.66"/><rect class="cls-11" x="205.41" y="198.8" width="9.31" height="9.47" rx="1.66"/><rect class="cls-11" x="216.89" y="198.8" width="9.31" height="9.47" rx="1.66"/><rect class="cls-11" x="228.37" y="198.8" width="9.31" height="9.47" rx="1.66"/><rect class="cls-11" x="239.86" y="198.8" width="9.31" height="9.47" rx="1.66"/><rect class="cls-11" x="251.34" y="198.8" width="9.31" height="9.47" rx="1.66"/><rect class="cls-11" x="262.82" y="198.8" width="9.31" height="9.47" rx="1.66"/><rect class="cls-11" x="154" y="209.91" width="9.31" height="9.47" rx="1.66"/><rect class="cls-11" x="165.49" y="209.91" width="9.31" height="9.47" rx="1.66"/><rect class="cls-11" x="176.97" y="209.91" width="9.31" height="9.47" rx="1.66"/><rect class="cls-11" x="188.45" y="209.91" width="9.31" height="9.47" rx="1.66"/><rect class="cls-11" x="199.94" y="209.91" width="9.31" height="9.47" rx="1.66"/><rect class="cls-11" x="211.42" y="209.91" width="9.31" height="9.47" rx="1.66"/><rect class="cls-11" x="222.9" y="209.91" width="9.31" height="9.47" rx="1.66"/><rect class="cls-11" x="234.39" y="209.91" width="9.31" height="9.47" rx="1.66"/><rect class="cls-11" x="245.87" y="209.91" width="9.31" height="9.47" rx="1.66"/><rect class="cls-11" x="257.35" y="209.91" width="9.31" height="9.47" rx="1.66"/><rect class="cls-11" x="268.84" y="209.91" width="14.2" height="9.47" rx="1.69"/><rect class="cls-11" x="142.33" y="221.02" width="9.31" height="9.47" rx="1.66"/><rect class="cls-11" x="153.82" y="221.02" width="9.31" height="9.47" rx="1.66"/><rect class="cls-11" x="165.3" y="221.02" width="9.31" height="9.47" rx="1.66"/><rect class="cls-11" x="176.78" y="221.02" width="9.31" height="9.47" rx="1.66"/><rect class="cls-11" x="188.27" y="221.02" width="9.31" height="9.47" rx="1.66"/><rect class="cls-11" x="199.75" y="221.02" width="9.31" height="9.47" rx="1.66"/><rect class="cls-11" x="211.23" y="221.02" width="9.31" height="9.47" rx="1.66"/><rect class="cls-11" x="222.72" y="221.02" width="9.31" height="9.47" rx="1.66"/><rect class="cls-11" x="234.2" y="221.02" width="9.31" height="9.47" rx="1.66"/><rect class="cls-11" x="245.68" y="221.02" width="9.31" height="9.47" rx="1.66"/><rect class="cls-11" x="257.17" y="221.02" width="14.2" height="9.47" rx="1.69"/><rect class="cls-11" x="274.18" y="221.02" width="8.85" height="9.47" rx="1.58"/><rect class="cls-11" x="184.36" y="238.45" width="62.98" height="32" rx="1.65"/><rect class="cls-11" x="184.36" y="272.6" width="30.36" height="6.65" rx="0.34"/><rect class="cls-11" x="216.98" y="272.6" width="30.36" height="6.65" rx="0.34"/><path class="cls-12" d="M120.45,107.54h112.1q.09,6.94.16,13.89c0,4.64.12,9.27.18,13.9H128.29q-2-6.95-3.92-13.9T120.45,107.54Z"/><path class="cls-13" d="M120.45,107.54h112.1c0,.53,0,1,0,1.58H120.89C120.75,108.59,120.61,108.07,120.45,107.54Z"/><path class="cls-14" d="M189.22,111.9c-8.1,0-14.29,2.55-14,4.57s2.76,2.85,6.46,3.68q-.9.94-1.77,1.89l4.77-1.36c1.71.23.65.35,5.59.35s14.18-2,14-4.56S197.31,111.9,189.22,111.9Z"/><path class="cls-7" d="M183.31,115.84c1.08,0,2,.32,2.07.72s-.8.71-1.89.71-2-.32-2-.71S182.23,115.84,183.31,115.84Z"/><path class="cls-7" d="M189.68,115.84c1.09,0,2,.32,2.06.72s-.81.71-1.91.71-2-.32-2-.71S188.58,115.84,189.68,115.84Z"/><path class="cls-7" d="M196,115.84c1.09,0,2,.32,2,.72s-.8.71-1.89.71-2-.32-2-.71S194.94,115.84,196,115.84Z"/><path class="cls-15" d="M159.15,115.35c8,0,14.93,2.55,15.25,4.57s-1.85,2.86-5.25,3.69l2.31,1.89-5.15-1.36c-1.65.22-.51.35-5.41.35s-14.72-2-15.29-4.57S151.12,115.35,159.15,115.35Z"/><path class="cls-7" d="M166.21,119.29c-1.07,0-1.89.33-1.83.72s1,.72,2.07.72,1.89-.32,1.83-.72S167.28,119.29,166.21,119.29Z"/><path class="cls-7" d="M159.91,119.29c-1.09,0-1.91.33-1.81.72s1,.72,2.08.72,1.87-.32,1.81-.72S161,119.29,159.91,119.29Z"/><path class="cls-7" d="M153.6,119.29c-1.07,0-1.89.33-1.79.72s1,.72,2.07.72,1.89-.32,1.81-.72S154.68,119.29,153.6,119.29Z"/><path class="cls-7" d="M187.31,122.82c-7.9,0-13.89,2.55-13.56,4.57s2.74,2.85,6.34,3.69c-.58.62-1.15,1.25-1.69,1.88L183,131.6c1.67.23.63.36,5.43.36s13.77-2.05,13.54-4.57S195.2,122.82,187.31,122.82Z"/><path class="cls-14" d="M181.6,126.76c1.07,0,2,.32,2,.72s-.76.71-1.83.71-2-.32-2-.71S180.54,126.76,181.6,126.76Z"/><path class="cls-14" d="M187.81,126.76c1.06,0,2,.32,2,.72s-.79.71-1.83.71-1.94-.32-2-.71S186.74,126.76,187.81,126.76Z"/><path class="cls-14" d="M194,126.76c1,0,1.95.32,2,.72s-.78.71-1.85.71-1.93-.32-2-.71S192.94,126.76,194,126.76Z"/><path class="cls-16" d="M149.88,88.07H267.23q-.51,7-1,13.9c-.31,4.63-.61,9.26-.93,13.89H155.47c-.95-4.63-1.87-9.26-2.8-13.89S150.8,92.71,149.88,88.07Z"/><path class="cls-17" d="M149.88,88.07H267.23c-.06.53-.1,1.05-.12,1.58H150.18C150.06,89.12,150,88.6,149.88,88.07Z"/><path class="cls-18" d="M186,92.31h43.41l.06,2.94H186.39C186.27,94.27,186.15,93.29,186,92.31Z"/><path class="cls-18" d="M159,96.53h98.1c0-.17,0-.34,0-.52H158.89C158.91,96.19,159,96.36,159,96.53Z"/><path class="cls-7" d="M159.15,97.5h97.9a4.52,4.52,0,0,1,0-.52h-98C159.09,97.15,159.13,97.33,159.15,97.5Z"/><path class="cls-14" d="M159.29,98.31h26.43c.14,1,.26,2,.38,2.94H159.85C159.67,100.27,159.49,99.29,159.29,98.31Z"/><path class="cls-15" d="M194.94,98.31h26.41c0,1,.08,2,.14,2.94H195.26C195.14,100.27,195,99.29,194.94,98.31Z"/><path class="cls-19" d="M230.58,98.31H257l-.12,2.94H230.64Z"/><path class="cls-7" d="M160.07,102.41h26.16l-.06-.51H160C160,102.07,160,102.24,160.07,102.41Z"/><path class="cls-7" d="M160.24,103.39h26.11l-.06-.52H160.14A4.76,4.76,0,0,0,160.24,103.39Z"/><path class="cls-7" d="M160.42,104.36h26.05l-.06-.52H160.32C160.34,104,160.4,104.19,160.42,104.36Z"/><path class="cls-7" d="M160.6,105.33h26c0-.17,0-.34-.08-.52h-26C160.54,105,160.56,105.16,160.6,105.33Z"/><path class="cls-7" d="M195.36,102.41h26.17a4.35,4.35,0,0,1,0-.51H195.32C195.34,102.07,195.34,102.24,195.36,102.41Z"/><path class="cls-7" d="M195.46,103.39h26.09a4.52,4.52,0,0,0,0-.52H195.4Z"/><path class="cls-7" d="M195.56,104.36h26a4.51,4.51,0,0,1,0-.52H195.52C195.52,104,195.56,104.19,195.56,104.36Z"/><path class="cls-7" d="M195.66,105.33h26a4.61,4.61,0,0,0,0-.52h-26Z"/><path class="cls-7" d="M230.66,102.41h26.15a4.35,4.35,0,0,0,0-.51H230.64A4.35,4.35,0,0,1,230.66,102.41Z"/><path class="cls-7" d="M230.68,103.39h26.09c0-.17,0-.35,0-.52H230.66A4.52,4.52,0,0,0,230.68,103.39Z"/><path class="cls-7" d="M230.68,104.36h26c0-.17,0-.34,0-.52H230.68A4.51,4.51,0,0,1,230.68,104.36Z"/><path class="cls-7" d="M230.72,105.33h26v-.52h-26A4.43,4.43,0,0,0,230.72,105.33Z"/><path class="cls-18" d="M160.88,106.87h95.73a4.52,4.52,0,0,0,0-.52H160.78C160.82,106.52,160.84,106.7,160.88,106.87Z"/><path class="cls-7" d="M179,108h27.68c0-.17,0-.34,0-.52H178.9A4.35,4.35,0,0,0,179,108Z"/><path class="cls-7" d="M179.1,108.94h27.62a4.38,4.38,0,0,0,0-.51H179A4.5,4.5,0,0,1,179.1,108.94Z"/><path class="cls-15" d="M161,107.45h13.58c.06.51.14,1,.22,1.52H161.26C161.18,108.47,161.08,108,161,107.45Z"/><path class="cls-7" d="M228.89,108h27.66c0-.17,0-.34,0-.52H228.87C228.87,107.63,228.89,107.8,228.89,108Z"/><path class="cls-7" d="M228.91,108.94h27.6c0-.17,0-.34,0-.51H228.89A4.35,4.35,0,0,1,228.91,108.94Z"/><path class="cls-19" d="M211,107.45h13.58c0,.51,0,1,0,1.52H211.07C211,108.47,211,108,211,107.45Z"/><path class="cls-7" d="M179.25,110.1H206.8a2.19,2.19,0,0,0,0-.51H179.18C179.21,109.76,179.23,109.93,179.25,110.1Z"/><path class="cls-7" d="M179.39,111.08h27.49c0-.17,0-.35,0-.52H179.33A4.6,4.6,0,0,0,179.39,111.08Z"/><path class="cls-14" d="M161.38,109.59h13.5c.08.5.14,1,.24,1.51H161.68C161.56,110.6,161.48,110.09,161.38,109.59Z"/><path class="cls-7" d="M228.93,110.1h27.54a4.34,4.34,0,0,0,0-.51H228.93Z"/><path class="cls-7" d="M229,111.08h27.46a4.55,4.55,0,0,1,0-.52H229Z"/><path class="cls-15" d="M211.11,109.59h13.5c0,.5,0,1,.06,1.51H211.21C211.17,110.6,211.15,110.09,211.11,109.59Z"/><path class="cls-7" d="M179.57,112.24H207l-.06-.52H179.47C179.51,111.89,179.53,112.07,179.57,112.24Z"/><path class="cls-7" d="M179.69,113.21H207a4.73,4.73,0,0,0,0-.52H179.63Z"/><path class="cls-19" d="M161.77,111.72H175.2l.24,1.52H162.05C162,112.73,161.85,112.23,161.77,111.72Z"/><path class="cls-7" d="M229,112.24h27.38a4.51,4.51,0,0,0,0-.52H229A4.52,4.52,0,0,0,229,112.24Z"/><path class="cls-7" d="M229,113.21h27.32c0-.17,0-.34,0-.52H229Z"/><path class="cls-14" d="M211.25,111.72h13.42l.06,1.52H211.35C211.31,112.73,211.27,112.23,211.25,111.72Z"/><path class="cls-14" d="M197.49,99.15h114.4q-1.22,6.94-2.42,13.89T307,126.94H200.13c-.45-4.64-.86-9.27-1.31-13.9S198,103.78,197.49,99.15Z"/><path class="cls-20" d="M197.49,99.15h114.4c-.1.52-.18,1-.28,1.57h-114C197.61,100.2,197.55,99.67,197.49,99.15Z"/><path class="cls-20" d="M216.58,118.38h74.67l-.12.89H216.62C216.6,119,216.6,118.68,216.58,118.38Z"/><path class="cls-16" d="M226,117.64H224.4c0,.79,0,1.58.07,2.37H226C226,119.22,226,118.43,226,117.64Z"/><path class="cls-19" d="M240.58,105.86h23.47c3.34,0,6,1,5.88,2.15s-.17,2.39-.27,3.59-2.85,2.15-6.11,2.15h-23c-3.24,0-5.91-1-5.92-2.15s0-2.39,0-3.59S237.28,105.86,240.58,105.86Z"/><path class="cls-7" d="M246.91,107.5l10.62,2.31-10.72,2.3C246.83,110.57,246.87,109,246.91,107.5Z"/><path class="cls-20" d="M280.65,120.72h2.45c0,.12,0,.24,0,.36h-1.39l-.06.53h-1.08c0-.3.06-.59.1-.89Zm.94,1.3-.06.53h1.37c0,.12,0,.24,0,.36h-2.43c0-.3.06-.59.1-.89Zm5.43-1.3h2.46c0,.3-.06.59-.12.89h-1.07c0-.18,0-.35.08-.53H287a2.2,2.2,0,0,0,0-.36Zm2.3,1.3-.12.89h-2.44c0-.12,0-.24,0-.36h1.37c0-.18,0-.35.08-.53Z"/><path class="cls-20" d="M257.07,120.81l-2.91.49h-1.63c0,.34,0,.68,0,1h1.63l2.87.5C257,122.15,257,121.48,257.07,120.81Z"/><path class="cls-21" d="M258.28,120.74a2.77,2.77,0,0,1,1.61.65.56.56,0,0,1,.18.46.74.74,0,0,1-.28.45,3.17,3.17,0,0,1-1.65.59,1,1,0,0,1-.14-.15,2.66,2.66,0,0,0,1.39-.5.58.58,0,0,0,.24-.39.66.66,0,0,0-.14-.41,2.39,2.39,0,0,0-1.39-.55Z"/><path class="cls-21" d="M258.28,121.09a1.82,1.82,0,0,1,.62.24h0c.24.14.35.3.35.47s-.11.34-.37.49a2.58,2.58,0,0,1-.68.25l-.22-.14a1.57,1.57,0,0,0,.54-.2.57.57,0,0,0,.32-.4.58.58,0,0,0-.3-.38h0a1.45,1.45,0,0,0-.5-.19Z"/><path class="cls-21" d="M247,122.57v-.23h0a.84.84,0,0,0,.33-.06.23.23,0,0,0,.16-.2.19.19,0,0,0-.14-.21.94.94,0,0,0-.37-.07h0v-.2h.11a2.18,2.18,0,0,1,.81.13c.22.09.33.2.32.34s-.1.27-.34.36a2.47,2.47,0,0,1-.9.14Zm0-1.26v-.23h.09a2.84,2.84,0,0,1,.73.09.55.55,0,0,1,.38.27l-.76,0a.12.12,0,0,0-.1-.12.91.91,0,0,0-.3,0Zm0-.23v.23a.8.8,0,0,0-.39.08c-.1,0-.16.16-.2.33a1.58,1.58,0,0,1,.59-.12v.2a1.09,1.09,0,0,0-.37.06c-.1,0-.16.11-.16.19s.06.16.18.21a.82.82,0,0,0,.35.08v.23h0a2.47,2.47,0,0,1-1-.17.57.57,0,0,1-.36-.57.63.63,0,0,1,.42-.57,2.33,2.33,0,0,1,1-.18Zm-12.7,1.49v-.23h0a.61.61,0,0,0,.24,0,.27.27,0,0,0,.16-.11.68.68,0,0,0,.06-.37.76.76,0,0,0,0-.35.41.41,0,0,0-.18-.13,1,1,0,0,0-.24,0h0v-.23h0a2.13,2.13,0,0,1,.89.15.65.65,0,0,1,0,1.19,1.94,1.94,0,0,1-.87.15Zm1.57,0c.3-.5.64-1,.95-1.51h.56l-.95,1.51Zm4.33-.28v.26h-2.66a.49.49,0,0,1,.26-.28,4.65,4.65,0,0,1,.85-.36,5.06,5.06,0,0,0,.64-.23c.08-.05.15-.12.14-.18a.17.17,0,0,0-.12-.14,1.08,1.08,0,0,0-.4,0,1.2,1.2,0,0,0-.36,0c-.11,0-.15.09-.15.18l-.76,0q.06-.24.42-.33a3.21,3.21,0,0,1,.89-.1,3,3,0,0,1,.9.11c.21.08.35.18.35.29a.31.31,0,0,1-.09.19,1.3,1.3,0,0,1-.3.19c-.1,0-.28.1-.52.18l-.44.16-.18.09Zm.8-.52a1.32,1.32,0,0,0,0-.28h.76a1.31,1.31,0,0,1,0,.28Zm0,.78a1.31,1.31,0,0,0,0-.28h.78v.28Zm1.53-.38.8,0c0,.06.06.12.16.15a1.06,1.06,0,0,0,.37.06,1,1,0,0,0,.4-.07.25.25,0,0,0,.18-.22c0-.09-.06-.16-.16-.2a1.09,1.09,0,0,0-.42-.07,1.51,1.51,0,0,0-.59.11l-.62,0a8.33,8.33,0,0,1,.42-.76h2v.26h-1.44a2,2,0,0,0-.13.25,3.23,3.23,0,0,1,.53,0,2.25,2.25,0,0,1,.84.13c.25.1.35.21.34.35a.41.41,0,0,1-.26.33,2.58,2.58,0,0,1-1.08.19,3.12,3.12,0,0,1-.89-.11C242.71,122.38,242.59,122.29,242.53,122.17Zm-8.23-1.09v.23a.83.83,0,0,0-.24,0,.26.26,0,0,0-.16.12.66.66,0,0,0-.08.36.72.72,0,0,0,.06.36.31.31,0,0,0,.18.12.93.93,0,0,0,.24,0v.23a2.22,2.22,0,0,1-.92-.17.59.59,0,0,1-.35-.58.62.62,0,0,1,.39-.59,2.11,2.11,0,0,1,.88-.15Zm-3.07,1.49v-.23h0a.68.68,0,0,0,.23,0,.26.26,0,0,0,.18-.11.68.68,0,0,0,.06-.37c0-.17,0-.28-.06-.35a.41.41,0,0,0-.2-.13,1,1,0,0,0-.22,0v-.23a2.18,2.18,0,0,1,.9.15.66.66,0,0,1,0,1.19,2.09,2.09,0,0,1-.87.15Zm-4.92-1.49a2.1,2.1,0,0,1,.89.15.66.66,0,0,1,0,1.19,2.11,2.11,0,0,1-.9.15h0v-.23h0a.67.67,0,0,0,.24,0,.24.24,0,0,0,.16-.11.62.62,0,0,0,.06-.37.6.6,0,0,0-.08-.35.33.33,0,0,0-.16-.13.9.9,0,0,0-.25,0v-.23Zm4.92,0v.23h0a1,1,0,0,0-.24,0,.31.31,0,0,0-.16.12.56.56,0,0,0-.08.36.59.59,0,0,0,.08.36.28.28,0,0,0,.18.12.59.59,0,0,0,.23,0v.23a2,2,0,0,1-.93-.17.6.6,0,0,1-.36-.58.61.61,0,0,1,.38-.59,2.06,2.06,0,0,1,.9-.15Zm-2.82.69a.66.66,0,0,0,0-.28h.76a1.31,1.31,0,0,1,0,.28Zm0,.78c0-.09,0-.19,0-.28h.76v.28Zm-2.15-1.47h0v.23h0a.75.75,0,0,0-.23,0,.26.26,0,0,0-.16.12.58.58,0,0,0-.08.36.68.68,0,0,0,.08.36.28.28,0,0,0,.18.12.78.78,0,0,0,.22,0v.23a2,2,0,0,1-.9-.17.61.61,0,0,1-.38-.58.58.58,0,0,1,.38-.59A2.07,2.07,0,0,1,226.3,121.08Z"/><path class="cls-20" d="M216.7,120.8l4.59,1-4.47,1Z"/><path class="cls-4" d="M360.08,330.27l-2.42-9.52,3.41-.87-2.69-10.55,3.16-.81-2.14-8.42a9.94,9.94,0,0,1-5.84-3.25l-14.43-18.41-3.56-15.1c1.12-3.42,7.76-7.86,9.38-.54l1.57,7.11,5.07,7.34c-1.23-4.73-2.24-8.74-3.14-12L340.86,243l-4-9.84c-2.21-6.46,7.41-9.5,9.53-3.3l3.71,8.92,6.39,18.69c.36-.37.73-.73,1.12-1.07l-4.34-18.63L348.6,224.5c-1.51-6.47,7.62-8.62,9.81-2.3l4.7,13.54,3.75,16.09a9.23,9.23,0,0,1,1.1-.19l-2.29-15.88L362.26,224c-.87-6,8.9-8.46,10-1.28l3.57,12,2.74,17.9a6.07,6.07,0,0,1,1.36.73l-.7-11.75-2.44-8.94c-1.9-7,9.71-7.82,10.07-.65l2.72,10.23.7,20.35c3.12,13,1.73,22.66-3.39,29l2.49,9.79,3.16-.8,2.68,10.55,3.41-.86,5.07,19.94Z"/><rect class="cls-22" x="351.68" y="278.98" width="28.72" height="40.09" transform="translate(-62.41 99.44) rotate(-14.27)"/><path class="cls-23" d="M338.35,256.57c.9,3.29,1.9,7.3,3.14,12l-5.07-7.35-1.57-7.1c-1.63-7.32-8.26-2.88-9.38.54L329,269.78l14.42,18.41c3.41,4.35,12.06,4.44,19.53,2.76,15.43-3.47,22.26-15.84,17.2-36.94l-.7-20.35-2.73-10.23c-.35-7.17-12-6.35-10.06.65l2.44,8.94.69,11.74a5.84,5.84,0,0,0-1.36-.72l-2.74-17.9-3.56-12c-1.1-7.17-10.88-4.75-10,1.28l3.41,11.74,2.3,15.88a6.42,6.42,0,0,0-1.1.19L353,227.09l-4.7-13.55c-2.19-6.31-11.32-4.16-9.82,2.3l4.64,13.3,4.34,18.63c-.38.34-.76.69-1.11,1.06L340,230.14l-3.71-8.91c-2.13-6.21-11.74-3.17-9.53,3.3l4,9.84Z"/><rect class="cls-5" x="349.08" y="296.16" width="35.24" height="10.89" transform="translate(-63.03 99.69) rotate(-14.27)"/><polygon class="cls-14" points="352.18 330.27 347.56 312.09 388.52 301.67 395.8 330.27 352.18 330.27"/><path class="cls-4" d="M105.42,330.27l15.08-26.33-3-1.75,5.41-9.44L120,291.13l4.41-7.7a11.42,11.42,0,0,0,6.41-1.42l33.82-20.74c-.58-3.62-4.27-9.17-10.93-5.73L138,263.66c2.45-4.23,4.5-7.82,6.25-10.74l22.12-32.31c3.86-5.64-4.6-11.14-8.3-5.73l-19.47,28.43c-.24-.45-.51-.89-.79-1.32l8.19-15.1c3.19-5.83-5.65-10.73-8.84-4.85l-7.06,13a9.6,9.6,0,0,0-1-.48l4.7-10.68c2.45-5.58-6.32-10.53-9.3-3.91l-5.9,12.76a5.86,5.86,0,0,0-1.51.34l2.3-6.75a5.05,5.05,0,1,0-9.52-3.32l-5.23,16.2c-6.48,11.68-7.73,21.37-4.5,28.84l-5,8.77-2.83-1.62-5.41,9.45-3-1.75L56.7,330.27Z"/><rect class="cls-22" x="76.04" y="263.39" width="40.09" height="28.72" transform="translate(-192.69 223.08) rotate(-60.2)"/><path class="cls-23" d="M134.13,244.26c-1.75,2.93-3.79,6.52-6.24,10.75l15.74-8.13c6.67-3.43,10.35,2.12,10.93,5.73l-33.81,20.75c-4.72,2.89-12.81,1-19.55-2.57-14-7.48-17.22-21.22-6.69-40.2l5.24-16.2a5.05,5.05,0,1,1,9.52,3.31l-2.3,6.75a6.22,6.22,0,0,1,1.5-.33l5.91-12.77c3-6.61,11.75-1.67,9.29,3.92L119,226a6,6,0,0,1,1,.48l7.07-13c3.18-5.88,12-1,8.84,4.84l-8.19,15.1c.28.43.54.88.79,1.33L148,206.23c3.7-5.41,12.15.09,8.29,5.73Z"/><rect class="cls-5" x="89.31" y="262.44" width="10.89" height="35.24" transform="translate(-195.36 223.1) rotate(-60.2)"/><polygon class="cls-14" points="90.36 330.27 110.39 295.29 73.71 274.28 41.64 330.27 90.36 330.27"/></svg>