<svg xmlns="http://www.w3.org/2000/svg" xmlns:xlink="http://www.w3.org/1999/xlink" viewBox="0 0 75.82 78.19"><defs><style>.cls-1{mask:url(#mask);filter:url(#luminosity-noclip-3);}.cls-2,.cls-4,.cls-7,.cls-9{mix-blend-mode:multiply;}.cls-2{fill:url(#radial-gradient);}.cls-3{mask:url(#mask-2);filter:url(#luminosity-noclip-4);}.cls-4{fill:url(#radial-gradient-2);}.cls-5{isolation:isolate;}.cls-6{mask:url(#mask-3);}.cls-7{fill:url(#Degradado_sin_nombre_153);}.cls-8{mask:url(#mask-4);}.cls-9{fill:url(#Degradado_sin_nombre_151);}.cls-10{fill:url(#Degradado_sin_nombre_159);}.cls-11{fill:none;stroke:#00c59b;stroke-linecap:round;stroke-linejoin:round;stroke-width:2.21px;}.cls-12{fill:#fff;}.cls-13{filter:url(#luminosity-noclip-2);}.cls-14{filter:url(#luminosity-noclip);}</style><filter id="luminosity-noclip" x="12" y="-8527.01" width="63.49" height="32766" filterUnits="userSpaceOnUse" color-interpolation-filters="sRGB"><feFlood flood-color="#fff" result="bg"/><feBlend in="SourceGraphic" in2="bg"/></filter><mask id="mask" x="12" y="-8527.01" width="63.49" height="32766" maskUnits="userSpaceOnUse"><g class="cls-14"/></mask><radialGradient id="radial-gradient" cx="-608.77" cy="-56.59" r="22.52" gradientTransform="matrix(0.98, 0.27, -1.01, 0.11, 582.36, 243.8)" gradientUnits="userSpaceOnUse"><stop offset="0.5" stop-color="#a6a6a6"/><stop offset="0.6" stop-color="#a3a3a3"/><stop offset="0.67" stop-color="#999"/><stop offset="0.75" stop-color="#888"/><stop offset="0.81" stop-color="#707070"/><stop offset="0.88" stop-color="#515151"/><stop offset="0.94" stop-color="#2c2c2c"/><stop offset="1"/></radialGradient><filter id="luminosity-noclip-2" x="0" y="-8527.01" width="63.49" height="32766" filterUnits="userSpaceOnUse" color-interpolation-filters="sRGB"><feFlood flood-color="#fff" result="bg"/><feBlend in="SourceGraphic" in2="bg"/></filter><mask id="mask-2" x="0" y="-8527.01" width="63.49" height="32766" maskUnits="userSpaceOnUse"><g class="cls-13"/></mask><radialGradient id="radial-gradient-2" cx="-179.29" cy="-1061.69" r="22.52" gradientTransform="matrix(-0.98, 0.27, 1.01, 0.11, 932.34, 243.8)" xlink:href="#radial-gradient"/><filter id="luminosity-noclip-3" x="12" y="67.37" width="63.49" height="13.15" filterUnits="userSpaceOnUse" color-interpolation-filters="sRGB"><feFlood flood-color="#fff" result="bg"/><feBlend in="SourceGraphic" in2="bg"/></filter><mask id="mask-3" x="12" y="67.37" width="63.49" height="13.15" maskUnits="userSpaceOnUse"><g class="cls-1"><path class="cls-2" d="M75.48,76.39c-.29,3.37-14.75,5-32.28,3.65S11.71,74.87,12,71.49s14.77-5,32.28-3.65S75.79,73,75.48,76.39Z"/></g></mask><radialGradient id="Degradado_sin_nombre_153" cx="-608.77" cy="-56.59" r="22.52" gradientTransform="matrix(0.98, 0.27, -1.01, 0.11, 582.36, 243.8)" gradientUnits="userSpaceOnUse"><stop offset="0" stop-color="#3c3c3b"/><stop offset="1" stop-color="#fff" stop-opacity="0"/></radialGradient><filter id="luminosity-noclip-4" x="0" y="67.37" width="63.49" height="13.15" filterUnits="userSpaceOnUse" color-interpolation-filters="sRGB"><feFlood flood-color="#fff" result="bg"/><feBlend in="SourceGraphic" in2="bg"/></filter><mask id="mask-4" x="0" y="67.37" width="63.49" height="13.15" maskUnits="userSpaceOnUse"><g class="cls-3"><path class="cls-4" d="M0,76.39c.3,3.37,14.76,5,32.29,3.65s31.49-5.17,31.19-8.55-14.77-5-32.28-3.65S-.3,73,0,76.39Z"/></g></mask><radialGradient id="Degradado_sin_nombre_151" cx="-179.29" cy="-1061.69" r="22.52" gradientTransform="matrix(-0.98, 0.27, 1.01, 0.11, 932.34, 243.8)" gradientUnits="userSpaceOnUse"><stop offset="0" stop-color="#3c3c3b"/><stop offset="0" stop-color="#3d3d3c"/><stop offset="1" stop-color="#fff" stop-opacity="0"/></radialGradient><linearGradient id="Degradado_sin_nombre_159" x1="37.93" y1="75.78" x2="37.93" gradientTransform="translate(17.66 -11.74) rotate(22.82)" gradientUnits="userSpaceOnUse"><stop offset="0" stop-color="#005c68"/><stop offset="1" stop-color="#00b87c"/></linearGradient></defs><g class="cls-5"><g id="Capa_1" data-name="Capa 1"><g class="cls-6"><path class="cls-7" d="M75.48,76.39c-.29,3.37-14.75,5-32.28,3.65S11.71,74.87,12,71.49s14.77-5,32.28-3.65S75.79,73,75.48,76.39Z"/></g><g class="cls-8"><path class="cls-9" d="M0,76.39c.3,3.37,14.76,5,32.29,3.65s31.49-5.17,31.19-8.55-14.77-5-32.28-3.65S-.3,73,0,76.39Z"/></g><circle class="cls-10" cx="37.93" cy="37.89" r="37.89" transform="translate(-11.72 17.67) rotate(-22.82)"/><path class="cls-11" d="M49.87,8s17.6,5.37,20.53,26.15"/><path class="cls-11" d="M70.4,38.78s.49,4.4-1,6.84"/><path class="cls-12" d="M31.29,39.92a10.21,10.21,0,1,0,9.64,13.57c.69,0,1.32,0,1.83,0,3.14,0,10.42-.33,10.42-3.4V46a1.27,1.27,0,0,0,0-.28,1.24,1.24,0,0,0,0-.27V42.05a1.27,1.27,0,0,0,0-.28,1.24,1.24,0,0,0,0-.27V37.75a1.27,1.27,0,0,0,0-.28,1.44,1.44,0,0,0-.08-.46,1.86,1.86,0,0,0,0-.42V32.44a1.33,1.33,0,0,0,0-.28,1.18,1.18,0,0,0,0-.27V28.14a1.43,1.43,0,0,0,0-.29,1.5,1.5,0,0,0-.08-.47,1.34,1.34,0,0,0-.55-.74c-2.13-1.81-8.92-1.87-9.82-1.87s-7.68.06-9.81,1.87a1.26,1.26,0,0,0-.55.74,1.51,1.51,0,0,0-.09.47,1.43,1.43,0,0,0,0,.29v3.75a1.18,1.18,0,0,0,0,.27,1.33,1.33,0,0,0,0,.28v4.15a1.42,1.42,0,0,0,.06.42,1.22,1.22,0,0,0-.09.46,1.27,1.27,0,0,0,0,.28V40C32,39.94,31.65,39.92,31.29,39.92ZM52,50v.11c-.05,1.14-4.17,2.07-9.23,2.07q-.75,0-1.47,0a10.09,10.09,0,0,0,.21-2.07c0-.18,0-.36,0-.53l1.27,0c2.35,0,7-.19,9.23-1.58Zm0-3.92v.11c-.05,1.14-4.17,2.07-9.23,2.07-.49,0-1,0-1.43,0a10.3,10.3,0,0,0-1.08-3c1,.06,1.83.07,2.51.07,2.35,0,7-.18,9.23-1.57Zm0-9.61v.1c-.05,1.15-4.17,2.07-9.23,2.07s-9.17-.92-9.23-2.07v-2.5c2.2,1.39,6.88,1.58,9.23,1.58s7-.19,9.23-1.57ZM42.76,26.27c5.24,0,8.49,1,9,1.58-.55.61-3.8,1.58-9,1.58s-8.49-1-9-1.58C34.27,27.25,37.52,26.27,42.76,26.27Zm0,4.67c.83,0,6.66-.05,9.23-1.48v2.85c-.05,1.15-4.17,2.07-9.23,2.07s-9.17-.92-9.23-2.07V29.46C36.1,30.89,41.93,30.94,42.76,30.94Zm0,9.61c.83,0,6.66,0,9.23-1.47v2.85C51.94,43.07,47.82,44,42.76,44c-1.21,0-2.37-.06-3.43-.16a10.2,10.2,0,0,0-5.8-3.67V39.08C36.1,40.5,41.93,40.55,42.76,40.55Zm-2.57,9.57a8.9,8.9,0,1,1-8.9-8.89A8.91,8.91,0,0,1,40.19,50.12Z"/><path class="cls-12" d="M24.42,50.12a6.88,6.88,0,1,0,6.87-6.87A6.88,6.88,0,0,0,24.42,50.12Zm12.88,0a6,6,0,1,1-6-6A6,6,0,0,1,37.3,50.12Z"/><path class="cls-12" d="M30.45,45.79v.73a2.52,2.52,0,0,0-.91.61,2.24,2.24,0,0,0-.43,2.38,2.34,2.34,0,0,0,.8.93A4.92,4.92,0,0,0,31,51a1.75,1.75,0,0,1,.61.34.29.29,0,0,1,.08.11.22.22,0,0,1,0,.1.22.22,0,0,1-.09.19.67.67,0,0,1-.43.12,1.94,1.94,0,0,1-1.07-.31l-.25-.18a.46.46,0,0,0-.38,0,.43.43,0,0,0-.27.27l-.41,1.13a.44.44,0,0,0,.16.51l.15.1a2.87,2.87,0,0,0,.88.41l.36.09v.65a.44.44,0,0,0,.44.43h1.11a.44.44,0,0,0,.44-.43v-.77a2.5,2.5,0,0,0,1-.69A2.32,2.32,0,0,0,34,51.51a2.45,2.45,0,0,0-.13-.83,2.33,2.33,0,0,0-.72-1,4.31,4.31,0,0,0-1.1-.62l0,0a2.7,2.7,0,0,1-.74-.39l-.06-.06v-.06a.12.12,0,0,1,0-.09.53.53,0,0,1,.35-.09,1.81,1.81,0,0,1,.58.09,2,2,0,0,1,.35.16l.24.14a.44.44,0,0,0,.37,0,.43.43,0,0,0,.26-.25l.42-1.12a.42.42,0,0,0-.19-.53l-.17-.1a2.92,2.92,0,0,0-1-.37v-.61a.44.44,0,0,0-.44-.44h-1.1A.44.44,0,0,0,30.45,45.79Zm.88,1.05v-.62h.23v.55a.44.44,0,0,0,.39.44,2.53,2.53,0,0,1,.86.23l-.11.3a2.08,2.08,0,0,0-.3-.13,2.71,2.71,0,0,0-.86-.13,1.31,1.31,0,0,0-.95.33,1,1,0,0,0-.3.72.94.94,0,0,0,.09.43,1.06,1.06,0,0,0,.26.35,4,4,0,0,0,1,.55h0a3,3,0,0,1,.89.5A1.42,1.42,0,0,1,33,51a1.8,1.8,0,0,1,.08.54,1.48,1.48,0,0,1-.35,1h0a1.66,1.66,0,0,1-.89.52.43.43,0,0,0-.33.42v.65h-.25v-.59a.43.43,0,0,0-.39-.43,3.19,3.19,0,0,1-.6-.12,2.09,2.09,0,0,1-.5-.2l.11-.3a2.94,2.94,0,0,0,1.33.33,1.47,1.47,0,0,0,1-.32,1.11,1.11,0,0,0,.4-.85,1.06,1.06,0,0,0-.09-.45,1.17,1.17,0,0,0-.26-.38,2.45,2.45,0,0,0-.91-.54,4,4,0,0,1-.93-.48,1.4,1.4,0,0,1-.5-.57,1.37,1.37,0,0,1,.26-1.44,1.73,1.73,0,0,1,.82-.45A.44.44,0,0,0,31.33,46.84Z"/><path class="cls-12" d="M44.47,21.39a.71.71,0,0,0,.77-.59.7.7,0,0,0-.53-.81,34,34,0,0,0-7.13-1C27.36,18.71,21.92,24.42,18,30.53l-2.24-1.42a.7.7,0,0,0-.76,0,.71.71,0,0,0-.32.69l1.24,8.68a.71.71,0,0,0,.35.52.69.69,0,0,0,.61,0L24.7,36a.69.69,0,0,0,.45-.62.72.72,0,0,0-.38-.67l-2.3-1.19C29,19.94,43.84,21.32,44.47,21.39ZM20.89,33.5a.72.72,0,0,0,.32.92l1.53.79L17.2,37.4l-.9-6.27,1.54,1a.73.73,0,0,0,.54.09.71.71,0,0,0,.44-.32c4-6.34,9.07-11.94,19.19-11.48C32.51,21.42,25,24.51,20.89,33.5Z"/></g></g></svg>