<svg xmlns="http://www.w3.org/2000/svg" xmlns:xlink="http://www.w3.org/1999/xlink" viewBox="0 0 75.82 78.19"><defs><style>.cls-1{mask:url(#mask);filter:url(#luminosity-noclip-3);}.cls-2,.cls-4,.cls-7,.cls-9{mix-blend-mode:multiply;}.cls-2{fill:url(#radial-gradient);}.cls-3{mask:url(#mask-2);filter:url(#luminosity-noclip-4);}.cls-4{fill:url(#radial-gradient-2);}.cls-5{isolation:isolate;}.cls-6{mask:url(#mask-3);}.cls-7{fill:url(#Degradado_sin_nombre_153);}.cls-8{mask:url(#mask-4);}.cls-9{fill:url(#Degradado_sin_nombre_151);}.cls-10{fill:url(#Degradado_sin_nombre_159);}.cls-11{fill:none;stroke:#00c59b;stroke-linecap:round;stroke-linejoin:round;stroke-width:2.21px;}.cls-12{fill:#fff;}.cls-13{filter:url(#luminosity-noclip-2);}.cls-14{filter:url(#luminosity-noclip);}</style><filter id="luminosity-noclip" x="12" y="-8527.01" width="63.49" height="32766" filterUnits="userSpaceOnUse" color-interpolation-filters="sRGB"><feFlood flood-color="#fff" result="bg"/><feBlend in="SourceGraphic" in2="bg"/></filter><mask id="mask" x="12" y="-8527.01" width="63.49" height="32766" maskUnits="userSpaceOnUse"><g class="cls-14"/></mask><radialGradient id="radial-gradient" cx="-608.77" cy="-56.59" r="22.52" gradientTransform="matrix(0.98, 0.27, -1.01, 0.11, 582.36, 243.8)" gradientUnits="userSpaceOnUse"><stop offset="0.5" stop-color="#a6a6a6"/><stop offset="0.6" stop-color="#a3a3a3"/><stop offset="0.67" stop-color="#999"/><stop offset="0.75" stop-color="#888"/><stop offset="0.81" stop-color="#707070"/><stop offset="0.88" stop-color="#515151"/><stop offset="0.94" stop-color="#2c2c2c"/><stop offset="1"/></radialGradient><filter id="luminosity-noclip-2" x="0" y="-8527.01" width="63.49" height="32766" filterUnits="userSpaceOnUse" color-interpolation-filters="sRGB"><feFlood flood-color="#fff" result="bg"/><feBlend in="SourceGraphic" in2="bg"/></filter><mask id="mask-2" x="0" y="-8527.01" width="63.49" height="32766" maskUnits="userSpaceOnUse"><g class="cls-13"/></mask><radialGradient id="radial-gradient-2" cx="-179.29" cy="-1061.69" r="22.52" gradientTransform="matrix(-0.98, 0.27, 1.01, 0.11, 932.34, 243.8)" xlink:href="#radial-gradient"/><filter id="luminosity-noclip-3" x="12" y="67.37" width="63.49" height="13.15" filterUnits="userSpaceOnUse" color-interpolation-filters="sRGB"><feFlood flood-color="#fff" result="bg"/><feBlend in="SourceGraphic" in2="bg"/></filter><mask id="mask-3" x="12" y="67.37" width="63.49" height="13.15" maskUnits="userSpaceOnUse"><g class="cls-1"><path class="cls-2" d="M75.48,76.39c-.29,3.37-14.75,5-32.28,3.65S11.71,74.87,12,71.49s14.77-5,32.28-3.65S75.79,73,75.48,76.39Z"/></g></mask><radialGradient id="Degradado_sin_nombre_153" cx="-608.77" cy="-56.59" r="22.52" gradientTransform="matrix(0.98, 0.27, -1.01, 0.11, 582.36, 243.8)" gradientUnits="userSpaceOnUse"><stop offset="0" stop-color="#3c3c3b"/><stop offset="1" stop-color="#fff" stop-opacity="0"/></radialGradient><filter id="luminosity-noclip-4" x="0" y="67.37" width="63.49" height="13.15" filterUnits="userSpaceOnUse" color-interpolation-filters="sRGB"><feFlood flood-color="#fff" result="bg"/><feBlend in="SourceGraphic" in2="bg"/></filter><mask id="mask-4" x="0" y="67.37" width="63.49" height="13.15" maskUnits="userSpaceOnUse"><g class="cls-3"><path class="cls-4" d="M0,76.39c.3,3.37,14.76,5,32.29,3.65s31.49-5.17,31.19-8.55-14.77-5-32.28-3.65S-.3,73,0,76.39Z"/></g></mask><radialGradient id="Degradado_sin_nombre_151" cx="-179.29" cy="-1061.69" r="22.52" gradientTransform="matrix(-0.98, 0.27, 1.01, 0.11, 932.34, 243.8)" gradientUnits="userSpaceOnUse"><stop offset="0" stop-color="#3c3c3b"/><stop offset="0" stop-color="#3d3d3c"/><stop offset="1" stop-color="#fff" stop-opacity="0"/></radialGradient><linearGradient id="Degradado_sin_nombre_159" x1="37.93" y1="75.78" x2="37.93" gradientTransform="translate(17.66 -11.74) rotate(22.82)" gradientUnits="userSpaceOnUse"><stop offset="0" stop-color="#005c68"/><stop offset="1" stop-color="#00b87c"/></linearGradient></defs><g class="cls-5"><g id="Capa_1" data-name="Capa 1"><g class="cls-6"><path class="cls-7" d="M75.48,76.39c-.29,3.37-14.75,5-32.28,3.65S11.71,74.87,12,71.49s14.77-5,32.28-3.65S75.79,73,75.48,76.39Z"/></g><g class="cls-8"><path class="cls-9" d="M0,76.39c.3,3.37,14.76,5,32.29,3.65s31.49-5.17,31.19-8.55-14.77-5-32.28-3.65S-.3,73,0,76.39Z"/></g><circle class="cls-10" cx="37.93" cy="37.89" r="37.89" transform="translate(-11.72 17.67) rotate(-22.82)"/><path class="cls-11" d="M49.87,8s17.6,5.37,20.53,26.15"/><path class="cls-11" d="M70.4,38.78s.49,4.4-1,6.84"/><polygon class="cls-12" points="37.9 63.56 33.65 63.56 34.86 28.91 36.69 28.91 37.9 63.56"/><polygon class="cls-12" points="36.84 29.8 34.46 29.8 35.08 12.16 36.21 12.16 36.84 29.8"/><polygon class="cls-12" points="34 30.07 34.97 27.91 50.8 35.76 50.33 36.8 34 30.07"/><polygon class="cls-12" points="36.56 28.11 37.39 30.33 20.65 35.96 20.25 34.9 36.56 28.11"/><polygon class="cls-12" points="47.13 63.56 44.56 63.56 45.29 42.66 46.4 42.66 47.13 63.56"/><polygon class="cls-12" points="46.49 43.21 45.05 43.21 45.43 32.56 46.11 32.56 46.49 43.21"/><polygon class="cls-12" points="44.77 43.37 45.37 42.06 54.91 46.8 54.62 47.42 44.77 43.37"/><polygon class="cls-12" points="46.32 42.18 46.82 43.52 36.73 46.92 36.48 46.28 46.32 42.18"/></g></g></svg>