<svg xmlns="http://www.w3.org/2000/svg" xmlns:xlink="http://www.w3.org/1999/xlink" viewBox="0 0 40.55 41.96"><defs><style>.cls-1{mask:url(#mask);filter:url(#luminosity-noclip-3);}.cls-2,.cls-4,.cls-7,.cls-9{mix-blend-mode:multiply;}.cls-2{fill:url(#radial-gradient);}.cls-3{mask:url(#mask-2);filter:url(#luminosity-noclip-4);}.cls-4{fill:url(#radial-gradient-2);}.cls-5{isolation:isolate;}.cls-6{mask:url(#mask-3);}.cls-7{fill:url(#Degradado_sin_nombre_153);}.cls-8{mask:url(#mask-4);}.cls-9{fill:url(#Degradado_sin_nombre_151);}.cls-10{fill:url(#Degradado_sin_nombre_159);}.cls-11{fill:none;stroke:#00c59b;stroke-width:1.18px;}.cls-11,.cls-12{stroke-linecap:round;stroke-linejoin:round;}.cls-12{fill:#fff;stroke:#fff;stroke-width:0.2px;}.cls-13{filter:url(#luminosity-noclip-2);}.cls-14{filter:url(#luminosity-noclip);}</style><filter id="luminosity-noclip" x="6.42" y="-8583.16" width="33.96" height="32766" filterUnits="userSpaceOnUse" color-interpolation-filters="sRGB"><feFlood flood-color="#fff" result="bg"/><feBlend in="SourceGraphic" in2="bg"/></filter><mask id="mask" x="6.42" y="-8583.16" width="33.96" height="32766" maskUnits="userSpaceOnUse"><g class="cls-14"/></mask><radialGradient id="radial-gradient" cx="-887.76" cy="-250.84" r="12.05" gradientTransform="matrix(0.98, 0.27, -1.01, 0.11, 638.26, 306.55)" gradientUnits="userSpaceOnUse"><stop offset="0.5" stop-color="#a6a6a6"/><stop offset="0.6" stop-color="#a3a3a3"/><stop offset="0.67" stop-color="#999"/><stop offset="0.75" stop-color="#888"/><stop offset="0.81" stop-color="#707070"/><stop offset="0.88" stop-color="#515151"/><stop offset="0.94" stop-color="#2c2c2c"/><stop offset="1"/></radialGradient><filter id="luminosity-noclip-2" x="0" y="-8583.16" width="33.96" height="32766" filterUnits="userSpaceOnUse" color-interpolation-filters="sRGB"><feFlood flood-color="#fff" result="bg"/><feBlend in="SourceGraphic" in2="bg"/></filter><mask id="mask-2" x="0" y="-8583.16" width="33.96" height="32766" maskUnits="userSpaceOnUse"><g class="cls-13"/></mask><radialGradient id="radial-gradient-2" cx="-476.79" cy="-1212.61" r="12.05" gradientTransform="matrix(-0.98, 0.27, 1.01, 0.11, 779.3, 306.55)" xlink:href="#radial-gradient"/><filter id="luminosity-noclip-3" x="6.42" y="36.03" width="33.96" height="7.03" filterUnits="userSpaceOnUse" color-interpolation-filters="sRGB"><feFlood flood-color="#fff" result="bg"/><feBlend in="SourceGraphic" in2="bg"/></filter><mask id="mask-3" x="6.42" y="36.03" width="33.96" height="7.03" maskUnits="userSpaceOnUse"><g class="cls-1"><path class="cls-2" d="M40.37,40.86c-.15,1.8-7.89,2.67-17.26,2S6.26,40,6.42,38.24s7.9-2.68,17.27-2S40.54,39.06,40.37,40.86Z"/></g></mask><radialGradient id="Degradado_sin_nombre_153" cx="-887.76" cy="-250.84" r="12.05" gradientTransform="matrix(0.98, 0.27, -1.01, 0.11, 638.26, 306.55)" gradientUnits="userSpaceOnUse"><stop offset="0" stop-color="#3c3c3b"/><stop offset="1" stop-color="#fff" stop-opacity="0"/></radialGradient><filter id="luminosity-noclip-4" x="0" y="36.03" width="33.96" height="7.03" filterUnits="userSpaceOnUse" color-interpolation-filters="sRGB"><feFlood flood-color="#fff" result="bg"/><feBlend in="SourceGraphic" in2="bg"/></filter><mask id="mask-4" x="0" y="36.03" width="33.96" height="7.03" maskUnits="userSpaceOnUse"><g class="cls-3"><path class="cls-4" d="M0,40.86c.16,1.8,7.89,2.67,17.27,2S34.12,40,34,38.24s-7.9-2.68-17.26-2S-.16,39.06,0,40.86Z"/></g></mask><radialGradient id="Degradado_sin_nombre_151" cx="-476.79" cy="-1212.61" r="12.05" gradientTransform="matrix(-0.98, 0.27, 1.01, 0.11, 779.3, 306.55)" gradientUnits="userSpaceOnUse"><stop offset="0" stop-color="#3c3c3b"/><stop offset="0" stop-color="#3d3d3c"/><stop offset="1" stop-color="#fff" stop-opacity="0"/></radialGradient><linearGradient id="Degradado_sin_nombre_159" x1="20.29" y1="40.53" x2="20.29" gradientTransform="translate(9.45 -6.28) rotate(22.82)" gradientUnits="userSpaceOnUse"><stop offset="0" stop-color="#005c68"/><stop offset="1" stop-color="#00b87c"/></linearGradient></defs><g class="cls-5"><g id="Capa_1" data-name="Capa 1"><g class="cls-6"><path class="cls-7" d="M40.37,40.86c-.15,1.8-7.89,2.67-17.26,2S6.26,40,6.42,38.24s7.9-2.68,17.27-2S40.54,39.06,40.37,40.86Z"/></g><g class="cls-8"><path class="cls-9" d="M0,40.86c.16,1.8,7.89,2.67,17.27,2S34.12,40,34,38.24s-7.9-2.68-17.26-2S-.16,39.06,0,40.86Z"/></g><circle class="cls-10" cx="20.29" cy="20.27" r="20.27" transform="translate(-6.27 9.45) rotate(-22.82)"/><path class="cls-11" d="M26.68,4.27a17.05,17.05,0,0,1,11,14"/><path class="cls-11" d="M37.66,20.74a7.18,7.18,0,0,1-.53,3.66"/><path class="cls-12" d="M29.43,16.46c-.1-.33-.59-.58-1-.78a2.25,2.25,0,0,1-.35-.18L26,14.19c-1.06-.63-2.15-1.24-3.2-1.83l-1.14-.64-.16-.09a1.79,1.79,0,0,0-.91-.34l-.23,0a7.43,7.43,0,0,0-1.82.84l-.64.36c-1.59.83-3.3,1.81-5.23,3l-.13.08c-.35.21-.83.49-.79.93s.78.61,1.09.63h.3v.06c0,.34,0,.73.34.89,0,.75,0,1.51,0,2.26,0,.9,0,1.84,0,2.73h-.05c-.3.12-.33.33-.35.6,0,.56,0,1.15,0,1.71,0,.17,0,.33,0,.5l-.07,0c-.59.16-.57.63-.55,1.13v.09l-.24.08a.61.61,0,0,0-.33.41A1.5,1.5,0,0,0,12,28.69c.15.26.49.27.77.28h.72l.9,0,.79,0,1.54,0,1.92,0c.74,0,1.39,0,2,.05h5l2.7,0a1.08,1.08,0,0,0,.88-.38,1,1,0,0,0,.07-.95.71.71,0,0,0-.55-.47V27c0-.37,0-.76-.34-1a1.11,1.11,0,0,0-.28-.1c0-.2,0-.41,0-.61,0-.53,0-1.07,0-1.61a.63.63,0,0,0-.33-.62c0-1.18-.05-2.35-.08-3.53l0-1.48a.71.71,0,0,0,.26-.15.92.92,0,0,0,.14-.66v-.12h.38a2.41,2.41,0,0,0,.6-.06.61.61,0,0,0,.39-.27A.39.39,0,0,0,29.43,16.46Zm-1,.22a1.35,1.35,0,0,1-.46.07c-.17,0-.34,0-.51,0l-.4,0c-.82,0-1.63,0-2.44,0s-1.67,0-2.51,0h-.27c-1.43,0-2.88,0-4.28,0l-4.77.07h-.06c-.19,0-.41,0-.46-.13s.06-.29.29-.57a.9.9,0,0,1,.28-.17l.13-.07.93-.55c.65-.39,1.3-.78,2-1.16,1.25-.72,2.48-1.37,3.67-1.95L19.8,12a1.68,1.68,0,0,1,.79-.3h.13a2,2,0,0,1,.57.29l.23.14c.25.15.51.28.77.42s.65.33,1,.52c1.29.74,2.56,1.52,3.63,2.18l1.41.86.06,0c.18.11.36.22.35.32S28.61,16.61,28.44,16.68ZM28.27,27.1h-.12l-.61,0-.45,0H27c-.49,0-1,0-1.62,0l-1.92,0-1.6,0h-.26c-.75,0-1.5,0-2.25,0s-1.5,0-2.25,0H15.68l-1.27,0H14l-.68,0-.47,0c0-.46.08-.68.56-.77a2.4,2.4,0,0,1,.52-.05h1.58l1.54,0,.84,0c1.44,0,2.93.06,4.4.07h.21l1.66,0,1.41,0h1.31l.33,0,.41,0a1,1,0,0,1,.28,0c.32.1.33.42.33.74Zm-5.36,1.46-2.33,0c-.41,0-.87,0-1.38,0l-1.42,0-1.42,0H14.89l-1.39,0h-.24l-.3,0c-.35,0-.59-.09-.65-.52s-.05-.38.31-.46a4.54,4.54,0,0,1,.91-.07H16.7q1,0,1.95,0c.64,0,1.29,0,1.94,0h.51c1.51,0,3.11,0,5,0h2.11a.73.73,0,0,1,.53.14.5.5,0,0,1,.08.37c0,.41-.29.45-.68.46-.83,0-1.71,0-2.77,0ZM13.5,24.07c0-.23,0-.47.18-.58a.54.54,0,0,1,.22,0h.36l.73,0a2.31,2.31,0,0,0,.32,0,4.73,4.73,0,0,1,.52,0,.62.62,0,0,1,.26,0c.21.09.19.41.18.67a1,1,0,0,0,0,.17v1.61h-.44l-.7,0-.89,0c-.28,0-.51,0-.72,0v-1.6S13.5,24.13,13.5,24.07Zm3.14-6.83V17.1l2.15,0v.13c0,.35,0,.74.33.89l0,2.26c0,.9,0,1.84,0,2.73h0c-.3.12-.34.33-.35.6,0,.57,0,1.15,0,1.71,0,.16,0,.33,0,.49l-2.11,0v-.58c0-.53,0-1.07,0-1.61a.65.65,0,0,0-.33-.62c0-1.18-.06-2.36-.08-3.54l0-1.47a.68.68,0,0,0,.27-.15A.92.92,0,0,0,16.64,17.24Zm5.7,0a.86.86,0,0,1,0-.16h2.16a.53.53,0,0,1,0,.13c0,.34,0,.73.34.89,0,.75,0,1.51,0,2.26,0,.9,0,1.84,0,2.73h-.05c-.29.12-.33.33-.35.6,0,.56,0,1.15,0,1.71,0,.17,0,.34,0,.52H24.2c-.55,0-1.1,0-1.65,0h-.18c0-.23,0-.45,0-.67,0-.53,0-1.07,0-1.61a.67.67,0,0,0-.33-.62c0-1.17-.06-2.34-.08-3.52l0-1.49a.64.64,0,0,0,.26-.15A.94.94,0,0,0,22.34,17.23ZM19.2,24.07c0-.23,0-.47.17-.58a.6.6,0,0,1,.23,0H20l.73,0,.32,0a4.73,4.73,0,0,1,.52,0,.54.54,0,0,1,.25,0c.22.09.2.41.18.67,0,.06,0,.12,0,.17,0,.42,0,.83,0,1.25V26l-2.74,0c0-.49,0-1,0-1.47v-.37ZM21.61,23l-.36,0h-.42l-.4,0H19.6c0-.88,0-1.78,0-2.65l0-2.17h.3l.69,0,.39,0h.59l0,1.37c0,1.16,0,2.32.07,3.49Zm.15-5.35a1.34,1.34,0,0,1-.58.09H19.75a.61.61,0,0,1-.44-.11c-.09-.1-.1-.27-.1-.55h2.7v.09C21.91,17.35,21.92,17.55,21.76,17.64Zm-7.91.55h.3l.68,0,.4,0h.59l0,1.38c0,1.16.05,2.32.08,3.48h0l-.37,0h-.41l-.41,0h-.82c0-.89,0-1.79,0-2.66S13.85,18.91,13.85,18.19Zm11.39,0h.3c.23,0,.47,0,.68,0l.4,0h.59l0,1.38c0,1.16.05,2.32.08,3.48h0l-.37,0h-.41l-.41,0H25.3c0-.89,0-1.79,0-2.66S25.24,18.91,25.24,18.19Zm-9-1.09v.06c0,.19,0,.39-.16.48a1.29,1.29,0,0,1-.57.09H14.06c-.51,0-.55-.15-.54-.59Zm11.44,7a1,1,0,0,0,0,.17v1.6h-.08l-.66,0-.53,0H24.9V24.24a1,1,0,0,0,0-.17c0-.23,0-.47.18-.58a.56.56,0,0,1,.23,0h.36l.72,0,.33,0a4.38,4.38,0,0,1,.51,0,.59.59,0,0,1,.26,0C27.69,23.5,27.67,23.82,27.66,24.08Zm-.05-6.92c0,.19,0,.39-.15.48a1.36,1.36,0,0,1-.58.09H25.45c-.27,0-.41-.05-.47-.15a.9.9,0,0,1-.07-.49h2.7Z"/><path class="cls-12" d="M21.34,12.64a2.22,2.22,0,0,0-.82-.16,1.87,1.87,0,0,0-1.85,1.23A1.89,1.89,0,0,0,20,16.1a2.7,2.7,0,0,0,.63.07A1.76,1.76,0,0,0,22.45,15,1.92,1.92,0,0,0,21.34,12.64ZM20.11,15.7A1.51,1.51,0,0,1,19,14a1.38,1.38,0,0,1,1.49-1.12,1.8,1.8,0,0,1,.84.2,1.47,1.47,0,0,1,.69,1.76,1.36,1.36,0,0,1-1.41.88A3.07,3.07,0,0,1,20.11,15.7Z"/><path class="cls-12" d="M15.33,14.72a.17.17,0,0,0-.11,0c-.58.36-1.17.74-1.74,1.12a.21.21,0,0,0-.08.24.22.22,0,0,0,.19.16.25.25,0,0,0,.11,0c.57-.39,1.15-.76,1.74-1.12a.22.22,0,0,0,.09-.24A.22.22,0,0,0,15.33,14.72Z"/><path class="cls-12" d="M16,14.3a.21.21,0,0,0-.16.06.25.25,0,0,0-.05.15.2.2,0,0,0,.21.21.21.21,0,0,0,.15-.07.24.24,0,0,0,.05-.14A.2.2,0,0,0,16,14.3Z"/></g></g></svg>