<svg xmlns="http://www.w3.org/2000/svg" xmlns:xlink="http://www.w3.org/1999/xlink" viewBox="0 0 40.55 41.96"><defs><style>.cls-1{mask:url(#mask);filter:url(#luminosity-noclip-3);}.cls-2,.cls-4,.cls-7,.cls-9{mix-blend-mode:multiply;}.cls-2{fill:url(#radial-gradient);}.cls-3{mask:url(#mask-2);filter:url(#luminosity-noclip-4);}.cls-4{fill:url(#radial-gradient-2);}.cls-5{isolation:isolate;}.cls-6{mask:url(#mask-3);}.cls-7{fill:url(#Degradado_sin_nombre_153);}.cls-8{mask:url(#mask-4);}.cls-9{fill:url(#Degradado_sin_nombre_151);}.cls-10{fill:url(#Degradado_sin_nombre_159);}.cls-11{fill:none;stroke:#00c59b;stroke-width:1.18px;}.cls-11,.cls-12,.cls-13{stroke-linecap:round;stroke-linejoin:round;}.cls-12,.cls-13{fill:#fff;stroke:#fff;}.cls-12{stroke-width:0.2px;}.cls-13{stroke-width:0.1px;}.cls-14{filter:url(#luminosity-noclip-2);}.cls-15{filter:url(#luminosity-noclip);}</style><filter id="luminosity-noclip" x="6.42" y="-8583.16" width="33.96" height="32766" filterUnits="userSpaceOnUse" color-interpolation-filters="sRGB"><feFlood flood-color="#fff" result="bg"/><feBlend in="SourceGraphic" in2="bg"/></filter><mask id="mask" x="6.42" y="-8583.16" width="33.96" height="32766" maskUnits="userSpaceOnUse"><g class="cls-15"/></mask><radialGradient id="radial-gradient" cx="-887.76" cy="-250.84" r="12.05" gradientTransform="matrix(0.98, 0.27, -1.01, 0.11, 638.26, 306.55)" gradientUnits="userSpaceOnUse"><stop offset="0.5" stop-color="#a6a6a6"/><stop offset="0.6" stop-color="#a3a3a3"/><stop offset="0.67" stop-color="#999"/><stop offset="0.75" stop-color="#888"/><stop offset="0.81" stop-color="#707070"/><stop offset="0.88" stop-color="#515151"/><stop offset="0.94" stop-color="#2c2c2c"/><stop offset="1"/></radialGradient><filter id="luminosity-noclip-2" x="0" y="-8583.16" width="33.96" height="32766" filterUnits="userSpaceOnUse" color-interpolation-filters="sRGB"><feFlood flood-color="#fff" result="bg"/><feBlend in="SourceGraphic" in2="bg"/></filter><mask id="mask-2" x="0" y="-8583.16" width="33.96" height="32766" maskUnits="userSpaceOnUse"><g class="cls-14"/></mask><radialGradient id="radial-gradient-2" cx="-476.79" cy="-1212.61" r="12.05" gradientTransform="matrix(-0.98, 0.27, 1.01, 0.11, 779.3, 306.55)" xlink:href="#radial-gradient"/><filter id="luminosity-noclip-3" x="6.42" y="36.03" width="33.96" height="7.03" filterUnits="userSpaceOnUse" color-interpolation-filters="sRGB"><feFlood flood-color="#fff" result="bg"/><feBlend in="SourceGraphic" in2="bg"/></filter><mask id="mask-3" x="6.42" y="36.03" width="33.96" height="7.03" maskUnits="userSpaceOnUse"><g class="cls-1"><path class="cls-2" d="M40.37,40.86c-.15,1.8-7.89,2.67-17.26,2S6.26,40,6.42,38.24s7.9-2.68,17.27-2S40.54,39.06,40.37,40.86Z"/></g></mask><radialGradient id="Degradado_sin_nombre_153" cx="-887.76" cy="-250.84" r="12.05" gradientTransform="matrix(0.98, 0.27, -1.01, 0.11, 638.26, 306.55)" gradientUnits="userSpaceOnUse"><stop offset="0" stop-color="#3c3c3b"/><stop offset="1" stop-color="#fff" stop-opacity="0"/></radialGradient><filter id="luminosity-noclip-4" x="0" y="36.03" width="33.96" height="7.03" filterUnits="userSpaceOnUse" color-interpolation-filters="sRGB"><feFlood flood-color="#fff" result="bg"/><feBlend in="SourceGraphic" in2="bg"/></filter><mask id="mask-4" x="0" y="36.03" width="33.96" height="7.03" maskUnits="userSpaceOnUse"><g class="cls-3"><path class="cls-4" d="M0,40.86c.16,1.8,7.89,2.67,17.27,2S34.12,40,34,38.24s-7.9-2.68-17.26-2S-.16,39.06,0,40.86Z"/></g></mask><radialGradient id="Degradado_sin_nombre_151" cx="-476.79" cy="-1212.61" r="12.05" gradientTransform="matrix(-0.98, 0.27, 1.01, 0.11, 779.3, 306.55)" gradientUnits="userSpaceOnUse"><stop offset="0" stop-color="#3c3c3b"/><stop offset="0" stop-color="#3d3d3c"/><stop offset="1" stop-color="#fff" stop-opacity="0"/></radialGradient><linearGradient id="Degradado_sin_nombre_159" x1="20.29" y1="40.53" x2="20.29" gradientTransform="translate(9.45 -6.28) rotate(22.82)" gradientUnits="userSpaceOnUse"><stop offset="0" stop-color="#005c68"/><stop offset="1" stop-color="#00b87c"/></linearGradient></defs><g class="cls-5"><g id="Capa_1" data-name="Capa 1"><g class="cls-6"><path class="cls-7" d="M40.37,40.86c-.15,1.8-7.89,2.67-17.26,2S6.26,40,6.42,38.24s7.9-2.68,17.27-2S40.54,39.06,40.37,40.86Z"/></g><g class="cls-8"><path class="cls-9" d="M0,40.86c.16,1.8,7.89,2.67,17.27,2S34.12,40,34,38.24s-7.9-2.68-17.26-2S-.16,39.06,0,40.86Z"/></g><circle class="cls-10" cx="20.29" cy="20.27" r="20.27" transform="translate(-6.27 9.45) rotate(-22.82)"/><path class="cls-11" d="M26.68,4.27a17.05,17.05,0,0,1,11,14"/><path class="cls-11" d="M37.66,20.74a7.18,7.18,0,0,1-.53,3.66"/><path class="cls-12" d="M28.64,14.75H23.52a.29.29,0,1,1,0-.58h5.12a.29.29,0,1,1,0,.58Z"/><path class="cls-12" d="M21.77,14.75H19.36a.29.29,0,1,1,0-.58h2.41a.29.29,0,1,1,0,.58Z"/><path class="cls-12" d="M28.64,22.65H23.52a.29.29,0,1,1,0-.58h5.12a.29.29,0,1,1,0,.58Z"/><path class="cls-12" d="M21.77,22.65H19.36a.29.29,0,1,1,0-.58h2.41a.29.29,0,1,1,0,.58Z"/><path class="cls-12" d="M28.64,17.07H19.36a.29.29,0,1,1,0-.58h9.28a.29.29,0,1,1,0,.58Z"/><path class="cls-12" d="M28.64,20.44H19.36a.29.29,0,1,1,0-.58h9.28a.29.29,0,1,1,0,.58Z"/><path class="cls-12" d="M28.64,29H19.36a.29.29,0,1,1,0-.58h9.28a.29.29,0,1,1,0,.58Z"/><path class="cls-12" d="M28.64,26.89H22.33a.29.29,0,1,1,0-.58h6.31a.29.29,0,1,1,0,.58Z"/><path class="cls-12" d="M20.92,26.89H19.36a.29.29,0,1,1,0-.58h1.56a.29.29,0,1,1,0,.58Z"/><path class="cls-13" d="M15.59,16.63H12a.33.33,0,0,1-.33-.33V12.76a.33.33,0,0,1,.33-.33h3.55a.33.33,0,0,1,.33.33V16.3A.33.33,0,0,1,15.59,16.63ZM12.37,16h2.89V13.09H12.37Z"/><path class="cls-13" d="M13.81,15.22h0a.33.33,0,0,1-.25-.12L12,13.16l.51-.42,1.32,1.63L16.2,11.5l.51.42L14.07,15.1A.36.36,0,0,1,13.81,15.22Z"/><path class="cls-13" d="M15.59,23.46H12a.33.33,0,0,1-.33-.33V19.59a.33.33,0,0,1,.33-.33h3.55a.33.33,0,0,1,.33.33v3.54A.33.33,0,0,1,15.59,23.46Zm-3.22-.66h2.89V19.92H12.37Z"/><path class="cls-13" d="M13.81,22.05h0a.3.3,0,0,1-.25-.12L12,20l.51-.41,1.32,1.62,2.38-2.87.51.42-2.64,3.18A.32.32,0,0,1,13.81,22.05Z"/><path class="cls-13" d="M15.59,30.3H12a.33.33,0,0,1-.33-.33V26.42a.33.33,0,0,1,.33-.33h3.55a.33.33,0,0,1,.33.33V30A.33.33,0,0,1,15.59,30.3Zm-3.22-.66h2.89V26.75H12.37Z"/><path class="cls-13" d="M13.81,28.88h0a.3.3,0,0,1-.25-.12L12,26.82l.51-.41L13.82,28l2.38-2.87.51.42-2.64,3.19A.35.35,0,0,1,13.81,28.88Z"/></g></g></svg>