<svg xmlns="http://www.w3.org/2000/svg" xmlns:xlink="http://www.w3.org/1999/xlink" viewBox="0 0 40.55 41.96"><defs><style>.cls-1{mask:url(#mask);filter:url(#luminosity-noclip-3);}.cls-2,.cls-4,.cls-7,.cls-9{mix-blend-mode:multiply;}.cls-2{fill:url(#radial-gradient);}.cls-3{mask:url(#mask-2);filter:url(#luminosity-noclip-4);}.cls-4{fill:url(#radial-gradient-2);}.cls-5{isolation:isolate;}.cls-6{mask:url(#mask-3);}.cls-7{fill:url(#Degradado_sin_nombre_153);}.cls-8{mask:url(#mask-4);}.cls-9{fill:url(#Degradado_sin_nombre_151);}.cls-10{fill:url(#Degradado_sin_nombre_159);}.cls-11{fill:none;stroke:#00c59b;stroke-width:1.18px;}.cls-11,.cls-12{stroke-linecap:round;stroke-linejoin:round;}.cls-12,.cls-13{fill:#fff;}.cls-12{stroke:#fff;stroke-width:0.21px;}.cls-14{filter:url(#luminosity-noclip-2);}.cls-15{filter:url(#luminosity-noclip);}</style><filter id="luminosity-noclip" x="6.42" y="-8583.16" width="33.96" height="32766" filterUnits="userSpaceOnUse" color-interpolation-filters="sRGB"><feFlood flood-color="#fff" result="bg"/><feBlend in="SourceGraphic" in2="bg"/></filter><mask id="mask" x="6.42" y="-8583.16" width="33.96" height="32766" maskUnits="userSpaceOnUse"><g class="cls-15"/></mask><radialGradient id="radial-gradient" cx="-887.76" cy="-250.84" r="12.05" gradientTransform="matrix(0.98, 0.27, -1.01, 0.11, 638.26, 306.55)" gradientUnits="userSpaceOnUse"><stop offset="0.5" stop-color="#a6a6a6"/><stop offset="0.6" stop-color="#a3a3a3"/><stop offset="0.67" stop-color="#999"/><stop offset="0.75" stop-color="#888"/><stop offset="0.81" stop-color="#707070"/><stop offset="0.88" stop-color="#515151"/><stop offset="0.94" stop-color="#2c2c2c"/><stop offset="1"/></radialGradient><filter id="luminosity-noclip-2" x="0" y="-8583.16" width="33.96" height="32766" filterUnits="userSpaceOnUse" color-interpolation-filters="sRGB"><feFlood flood-color="#fff" result="bg"/><feBlend in="SourceGraphic" in2="bg"/></filter><mask id="mask-2" x="0" y="-8583.16" width="33.96" height="32766" maskUnits="userSpaceOnUse"><g class="cls-14"/></mask><radialGradient id="radial-gradient-2" cx="-476.79" cy="-1212.61" r="12.05" gradientTransform="matrix(-0.98, 0.27, 1.01, 0.11, 779.3, 306.55)" xlink:href="#radial-gradient"/><filter id="luminosity-noclip-3" x="6.42" y="36.03" width="33.96" height="7.03" filterUnits="userSpaceOnUse" color-interpolation-filters="sRGB"><feFlood flood-color="#fff" result="bg"/><feBlend in="SourceGraphic" in2="bg"/></filter><mask id="mask-3" x="6.42" y="36.03" width="33.96" height="7.03" maskUnits="userSpaceOnUse"><g class="cls-1"><path class="cls-2" d="M40.37,40.86c-.15,1.8-7.89,2.67-17.26,2S6.26,40,6.42,38.24s7.9-2.68,17.27-2S40.54,39.06,40.37,40.86Z"/></g></mask><radialGradient id="Degradado_sin_nombre_153" cx="-887.76" cy="-250.84" r="12.05" gradientTransform="matrix(0.98, 0.27, -1.01, 0.11, 638.26, 306.55)" gradientUnits="userSpaceOnUse"><stop offset="0" stop-color="#3c3c3b"/><stop offset="1" stop-color="#fff" stop-opacity="0"/></radialGradient><filter id="luminosity-noclip-4" x="0" y="36.03" width="33.96" height="7.03" filterUnits="userSpaceOnUse" color-interpolation-filters="sRGB"><feFlood flood-color="#fff" result="bg"/><feBlend in="SourceGraphic" in2="bg"/></filter><mask id="mask-4" x="0" y="36.03" width="33.96" height="7.03" maskUnits="userSpaceOnUse"><g class="cls-3"><path class="cls-4" d="M0,40.86c.16,1.8,7.89,2.67,17.27,2S34.12,40,34,38.24s-7.9-2.68-17.26-2S-.16,39.06,0,40.86Z"/></g></mask><radialGradient id="Degradado_sin_nombre_151" cx="-476.79" cy="-1212.61" r="12.05" gradientTransform="matrix(-0.98, 0.27, 1.01, 0.11, 779.3, 306.55)" gradientUnits="userSpaceOnUse"><stop offset="0" stop-color="#3c3c3b"/><stop offset="0" stop-color="#3d3d3c"/><stop offset="1" stop-color="#fff" stop-opacity="0"/></radialGradient><linearGradient id="Degradado_sin_nombre_159" x1="20.29" y1="40.53" x2="20.29" gradientTransform="translate(9.45 -6.28) rotate(22.82)" gradientUnits="userSpaceOnUse"><stop offset="0" stop-color="#005c68"/><stop offset="1" stop-color="#00b87c"/></linearGradient></defs><g class="cls-5"><g id="Capa_1" data-name="Capa 1"><g class="cls-6"><path class="cls-7" d="M40.37,40.86c-.15,1.8-7.89,2.67-17.26,2S6.26,40,6.42,38.24s7.9-2.68,17.27-2S40.54,39.06,40.37,40.86Z"/></g><g class="cls-8"><path class="cls-9" d="M0,40.86c.16,1.8,7.89,2.67,17.27,2S34.12,40,34,38.24s-7.9-2.68-17.26-2S-.16,39.06,0,40.86Z"/></g><circle class="cls-10" cx="20.29" cy="20.27" r="20.27" transform="translate(-6.27 9.45) rotate(-22.82)"/><path class="cls-11" d="M26.68,4.27a17.05,17.05,0,0,1,11,14"/><path class="cls-11" d="M37.66,20.74a7.18,7.18,0,0,1-.53,3.66"/><path class="cls-12" d="M31.38,15.58a3.83,3.83,0,0,0-.61-2.41,2.14,2.14,0,0,0-1.56-.77l-.26,0c-1,0-2.09-.07-3.12-.07-1.45,0-2.91.05-4.34.13-1.11.06-2.41.15-3.73.29h-.08a2.37,2.37,0,0,0-1.68.64,3.13,3.13,0,0,0-.37,2.18A29,29,0,0,0,16,18.73c.09.57.2,1.15.3,1.73A37,37,0,0,1,17,25.94l-.75,0-.42,0c-.2,0-.42,0-.64,0-.55,0-.87.12-1,.37a3.07,3.07,0,0,0,.09,2.11c.5,1.12,1.75,1.27,2.79,1.27.29,0,.58,0,.85,0l.66,0h.72c2.15,0,4.37,0,6.55-.22,0,0,.08,0,.09-.05H26l.41,0a2.24,2.24,0,0,0,2-1.25,5.85,5.85,0,0,0,0-3.08l0-.3c-.09-.59-.21-1.19-.32-1.8a27.14,27.14,0,0,1-.66-6.52h1.64a14.43,14.43,0,0,0,2.16-.13.18.18,0,0,0,.15-.19C31.39,15.9,31.38,15.74,31.38,15.58Zm-.79.35a3,3,0,0,1-.67.06h-.66L28.2,16h-.73c0-.34.08-.64.13-.92.27-1.49.81-2.24,1.6-2.24l.32,0c.87.21,1.33.93,1.43,2.23a1.64,1.64,0,0,0,0,.23C31,15.64,31,15.83,30.59,15.93ZM14.53,27.44c0-.68.18-1,.81-1.06a8.21,8.21,0,0,1,1.21-.07h1.6l5.6-.11a4.46,4.46,0,0,0,.78,2.34A1.67,1.67,0,0,0,25,29c-1.28.1-2.67.14-4.48.15H16.86a2.83,2.83,0,0,1-1.65-.39A1.7,1.7,0,0,1,14.53,27.44ZM24.16,26a.17.17,0,0,0-.11-.19l-.09,0-6.51.13a39.53,39.53,0,0,0-.74-5.56v-.1c-.19-1-.38-2.06-.51-3.1,0-.16-.05-.33-.08-.51a5.11,5.11,0,0,1,0-2.64c.4-.84,1.53-.89,2.44-.93l.52,0c1.13-.1,2.18-.17,3.19-.22s2.28-.08,3.44-.08c.8,0,1.62,0,2.44,0a3.88,3.88,0,0,0-1,2.45,15.35,15.35,0,0,0,0,4.12c.13,1,.29,2,.45,3,.06.34.11.68.17,1s.1.57.15.86a13.87,13.87,0,0,1,.3,2.57c0,1-.34,1.61-1.06,1.89A3.55,3.55,0,0,1,26,29a1.4,1.4,0,0,1-.56-.1C24.61,28.53,24.06,26.87,24.16,26Z"/><path class="cls-12" d="M24.9,15.44a.18.18,0,0,0-.2-.18h0c-2.24.22-4.51.33-6.76.34a.2.2,0,1,0,0,.4h0c2.25,0,4.52-.11,6.76-.33A.22.22,0,0,0,24.9,15.44Z"/><path class="cls-12" d="M24.78,18a.19.19,0,0,0-.2-.2,38.88,38.88,0,0,0-6.3.47.17.17,0,0,0-.15.19.23.23,0,0,0,.21.21h0a38.43,38.43,0,0,1,6.2-.45A.2.2,0,0,0,24.78,18Z"/><path class="cls-12" d="M18.64,21.19h0a25.26,25.26,0,0,1,3-.25h.38a7.54,7.54,0,0,1,.83.06c.33,0,.67.07,1,.07A3.48,3.48,0,0,0,25,20.93a.19.19,0,0,0,.13-.23.18.18,0,0,0-.18-.17h-.06a3.56,3.56,0,0,1-1,.14c-.35,0-.71,0-1.05-.07a8.74,8.74,0,0,0-1-.07h-.09a23.35,23.35,0,0,0-3,.25.2.2,0,0,0-.19.23A.16.16,0,0,0,18.64,21.19Z"/><path class="cls-12" d="M25,23.17h0c-.7,0-1.41,0-2.1,0-1.4,0-2.84.05-4.26.22a.22.22,0,0,0-.18.24.16.16,0,0,0,.17.17h0a40.47,40.47,0,0,1,4.25-.22c.69,0,1.4,0,2.1-.06a.2.2,0,0,0,.2-.21A.19.19,0,0,0,25,23.17Z"/><path class="cls-13" d="M14.55,20.46a4,4,0,0,0-3.68-3.3l-.43,0a4.19,4.19,0,1,0,4,5.57A4.88,4.88,0,0,0,14.55,20.46Zm-.46.87a3.66,3.66,0,1,1-3.65-3.66A3.66,3.66,0,0,1,14.09,21.33Z"/><path class="cls-13" d="M7.61,21.33a2.83,2.83,0,1,0,2.83-2.82A2.83,2.83,0,0,0,7.61,21.33Zm5.29,0a2.47,2.47,0,1,1-2.46-2.47A2.47,2.47,0,0,1,12.9,21.33Z"/><path class="cls-13" d="M10.09,19.55v.3a1.09,1.09,0,0,0-.38.25,1,1,0,0,0-.24.63.84.84,0,0,0,.07.35.9.9,0,0,0,.33.38,1.86,1.86,0,0,0,.45.24.75.75,0,0,1,.26.14l0,0v.05a.09.09,0,0,1,0,.07.24.24,0,0,1-.18.05.72.72,0,0,1-.44-.13l-.1-.07a.18.18,0,0,0-.16,0,.2.2,0,0,0-.11.11l-.17.47a.18.18,0,0,0,.07.2l.06.05a1.5,1.5,0,0,0,.36.17l.15,0v.27a.18.18,0,0,0,.18.18h.46a.18.18,0,0,0,.18-.18v-.32a1,1,0,0,0,.41-.28,1,1,0,0,0,.18-1,.84.84,0,0,0-.29-.41,1.72,1.72,0,0,0-.45-.26h0a1.08,1.08,0,0,1-.3-.16l0,0v0a0,0,0,0,1,0,0,.21.21,0,0,1,.14,0,.67.67,0,0,1,.24,0l.14.06.1.06a.17.17,0,0,0,.26-.09l.17-.46a.18.18,0,0,0-.08-.22l-.07,0a1.28,1.28,0,0,0-.4-.15v-.25a.18.18,0,0,0-.18-.18h-.45A.18.18,0,0,0,10.09,19.55Zm.36.43v-.25h.1V20a.18.18,0,0,0,.16.18,1.2,1.2,0,0,1,.35.1l-.05.12-.12-.05a1,1,0,0,0-.35-.06.53.53,0,0,0-.39.14.42.42,0,0,0-.13.3.31.31,0,0,0,0,.17.39.39,0,0,0,.11.15,1.47,1.47,0,0,0,.41.22h0a1.39,1.39,0,0,1,.37.21.58.58,0,0,1,.19.25.73.73,0,0,1,0,.22.54.54,0,0,1-.15.39h0a.63.63,0,0,1-.36.22.18.18,0,0,0-.14.17V23h-.1v-.24a.18.18,0,0,0-.16-.18,1,1,0,0,1-.25-.05l-.2-.08,0-.13a1.21,1.21,0,0,0,.55.14.61.61,0,0,0,.41-.13.46.46,0,0,0,.16-.35.58.58,0,0,0,0-.19.72.72,0,0,0-.11-.15,1.12,1.12,0,0,0-.37-.23,1.57,1.57,0,0,1-.39-.19.56.56,0,0,1-.2-.24.45.45,0,0,1,0-.2.56.56,0,0,1,.15-.39.71.71,0,0,1,.33-.18A.18.18,0,0,0,10.45,20Z"/></g></g></svg>