<svg xmlns="http://www.w3.org/2000/svg" xmlns:xlink="http://www.w3.org/1999/xlink" viewBox="0 0 40.55 41.96"><defs><style>.cls-1{mask:url(#mask);filter:url(#luminosity-noclip-3);}.cls-2,.cls-4,.cls-7,.cls-9{mix-blend-mode:multiply;}.cls-2{fill:url(#radial-gradient);}.cls-3{mask:url(#mask-2);filter:url(#luminosity-noclip-4);}.cls-4{fill:url(#radial-gradient-2);}.cls-5{isolation:isolate;}.cls-6{mask:url(#mask-3);}.cls-7{fill:url(#Degradado_sin_nombre_153);}.cls-8{mask:url(#mask-4);}.cls-9{fill:url(#Degradado_sin_nombre_151);}.cls-10{fill:url(#Degradado_sin_nombre_159);}.cls-11{fill:none;stroke:#00c59b;stroke-linecap:round;stroke-linejoin:round;stroke-width:1.18px;}.cls-12{fill:#fff;}.cls-13{filter:url(#luminosity-noclip-2);}.cls-14{filter:url(#luminosity-noclip);}</style><filter id="luminosity-noclip" x="6.42" y="-8583.16" width="33.96" height="32766" filterUnits="userSpaceOnUse" color-interpolation-filters="sRGB"><feFlood flood-color="#fff" result="bg"/><feBlend in="SourceGraphic" in2="bg"/></filter><mask id="mask" x="6.42" y="-8583.16" width="33.96" height="32766" maskUnits="userSpaceOnUse"><g class="cls-14"/></mask><radialGradient id="radial-gradient" cx="-887.76" cy="-250.84" r="12.05" gradientTransform="matrix(0.98, 0.27, -1.01, 0.11, 638.26, 306.55)" gradientUnits="userSpaceOnUse"><stop offset="0.5" stop-color="#a6a6a6"/><stop offset="0.6" stop-color="#a3a3a3"/><stop offset="0.67" stop-color="#999"/><stop offset="0.75" stop-color="#888"/><stop offset="0.81" stop-color="#707070"/><stop offset="0.88" stop-color="#515151"/><stop offset="0.94" stop-color="#2c2c2c"/><stop offset="1"/></radialGradient><filter id="luminosity-noclip-2" x="0" y="-8583.16" width="33.96" height="32766" filterUnits="userSpaceOnUse" color-interpolation-filters="sRGB"><feFlood flood-color="#fff" result="bg"/><feBlend in="SourceGraphic" in2="bg"/></filter><mask id="mask-2" x="0" y="-8583.16" width="33.96" height="32766" maskUnits="userSpaceOnUse"><g class="cls-13"/></mask><radialGradient id="radial-gradient-2" cx="-476.79" cy="-1212.61" r="12.05" gradientTransform="matrix(-0.98, 0.27, 1.01, 0.11, 779.3, 306.55)" xlink:href="#radial-gradient"/><filter id="luminosity-noclip-3" x="6.42" y="36.03" width="33.96" height="7.03" filterUnits="userSpaceOnUse" color-interpolation-filters="sRGB"><feFlood flood-color="#fff" result="bg"/><feBlend in="SourceGraphic" in2="bg"/></filter><mask id="mask-3" x="6.42" y="36.03" width="33.96" height="7.03" maskUnits="userSpaceOnUse"><g class="cls-1"><path class="cls-2" d="M40.37,40.86c-.15,1.8-7.89,2.67-17.26,2S6.26,40,6.42,38.24s7.9-2.68,17.27-2S40.54,39.06,40.37,40.86Z"/></g></mask><radialGradient id="Degradado_sin_nombre_153" cx="-887.76" cy="-250.84" r="12.05" gradientTransform="matrix(0.98, 0.27, -1.01, 0.11, 638.26, 306.55)" gradientUnits="userSpaceOnUse"><stop offset="0" stop-color="#3c3c3b"/><stop offset="1" stop-color="#fff" stop-opacity="0"/></radialGradient><filter id="luminosity-noclip-4" x="0" y="36.03" width="33.96" height="7.03" filterUnits="userSpaceOnUse" color-interpolation-filters="sRGB"><feFlood flood-color="#fff" result="bg"/><feBlend in="SourceGraphic" in2="bg"/></filter><mask id="mask-4" x="0" y="36.03" width="33.96" height="7.03" maskUnits="userSpaceOnUse"><g class="cls-3"><path class="cls-4" d="M0,40.86c.16,1.8,7.89,2.67,17.27,2S34.12,40,34,38.24s-7.9-2.68-17.26-2S-.16,39.06,0,40.86Z"/></g></mask><radialGradient id="Degradado_sin_nombre_151" cx="-476.79" cy="-1212.61" r="12.05" gradientTransform="matrix(-0.98, 0.27, 1.01, 0.11, 779.3, 306.55)" gradientUnits="userSpaceOnUse"><stop offset="0" stop-color="#3c3c3b"/><stop offset="0" stop-color="#3d3d3c"/><stop offset="1" stop-color="#fff" stop-opacity="0"/></radialGradient><linearGradient id="Degradado_sin_nombre_159" x1="20.29" y1="40.53" x2="20.29" gradientTransform="translate(9.45 -6.28) rotate(22.82)" gradientUnits="userSpaceOnUse"><stop offset="0" stop-color="#005c68"/><stop offset="1" stop-color="#00b87c"/></linearGradient></defs><g class="cls-5"><g id="Capa_1" data-name="Capa 1"><g class="cls-6"><path class="cls-7" d="M40.37,40.86c-.15,1.8-7.89,2.67-17.26,2S6.26,40,6.42,38.24s7.9-2.68,17.27-2S40.54,39.06,40.37,40.86Z"/></g><g class="cls-8"><path class="cls-9" d="M0,40.86c.16,1.8,7.89,2.67,17.27,2S34.12,40,34,38.24s-7.9-2.68-17.26-2S-.16,39.06,0,40.86Z"/></g><circle class="cls-10" cx="20.29" cy="20.27" r="20.27" transform="translate(-6.27 9.45) rotate(-22.82)"/><path class="cls-11" d="M26.68,4.27a17.05,17.05,0,0,1,11,14"/><path class="cls-11" d="M37.66,20.74a7.18,7.18,0,0,1-.53,3.66"/><path class="cls-12" d="M17.91,21.25a5,5,0,1,0,4.71,6.63l.9,0c1.53,0,5.09-.16,5.09-1.67h0v-2a.59.59,0,0,0,0-.13.51.51,0,0,0,0-.13V22.29a.68.68,0,0,0,0-.14.59.59,0,0,0,0-.13V20.19a.68.68,0,0,0,0-.14.78.78,0,0,0,0-.22,1.49,1.49,0,0,0,0-.21v0h0v-2a.68.68,0,0,0,0-.14.59.59,0,0,0,0-.13V15.49a.68.68,0,0,0,0-.14.59.59,0,0,0-.05-.23.63.63,0,0,0-.26-.37c-1-.88-4.36-.91-4.8-.91s-3.76,0-4.8.91a.65.65,0,0,0-.27.37.85.85,0,0,0,0,.23c0,.05,0,.09,0,.14v1.83s0,.09,0,.13,0,.09,0,.14v2h0a1.52,1.52,0,0,0,0,.21.78.78,0,0,0,0,.22c0,.05,0,.09,0,.14v1.08ZM28,26.19v.06c0,.56-2,1-4.51,1l-.72,0a4.74,4.74,0,0,0,.1-1V26h.62c1.15,0,3.44-.09,4.51-.77Zm0-1.91v0c0,.56-2,1-4.51,1h-.7a5.09,5.09,0,0,0-.53-1.49c.47,0,.9,0,1.23,0,1.15,0,3.44-.09,4.51-.77Zm0-4.7v.05c0,.56-2,1-4.51,1s-4.49-.45-4.51-1V18.41c1.07.68,3.36.77,4.51.77S27,19.09,28,18.41Zm-4.51-5c2.56,0,4.15.47,4.42.77-.27.3-1.86.77-4.42.77s-4.15-.47-4.42-.77C19.37,15.05,21,14.58,23.52,14.58Zm0,2.28c.4,0,3.25,0,4.51-.72v1.39c0,.56-2,1-4.51,1s-4.49-.45-4.51-1V16.14C20.26,16.83,23.11,16.86,23.52,16.86Zm0,4.7c.4,0,3.25,0,4.51-.72v1.39c0,.56-2,1-4.51,1-.59,0-1.16,0-1.68-.07A4.93,4.93,0,0,0,19,21.37v-.54C20.26,21.53,23.11,21.56,23.52,21.56Zm-1.26,4.67a4.35,4.35,0,1,1-4.35-4.34A4.35,4.35,0,0,1,22.26,26.23Z"/><path class="cls-12" d="M14.55,26.23a3.36,3.36,0,1,0,3.36-3.36A3.37,3.37,0,0,0,14.55,26.23Zm6.3,0a2.94,2.94,0,1,1-2.94-2.93A2.94,2.94,0,0,1,20.85,26.23Z"/><path class="cls-12" d="M17.5,24.12v.36a1.13,1.13,0,0,0-.45.29,1.11,1.11,0,0,0-.29.75.91.91,0,0,0,.09.41,1,1,0,0,0,.38.46,2.54,2.54,0,0,0,.55.28,1,1,0,0,1,.3.17s0,0,0,.05a.07.07,0,0,1,0,.05.12.12,0,0,1,0,.1.38.38,0,0,1-.21.05.87.87,0,0,1-.52-.15l-.12-.08a.22.22,0,0,0-.19,0,.21.21,0,0,0-.13.13l-.2.56a.21.21,0,0,0,.07.24l.08,0a1.22,1.22,0,0,0,.43.2l.18,0v.31a.21.21,0,0,0,.21.22h.55a.22.22,0,0,0,.21-.22V28a1.31,1.31,0,0,0,.49-.34,1.14,1.14,0,0,0,.28-.75,1.29,1.29,0,0,0-.06-.4,1.14,1.14,0,0,0-.36-.49,1.85,1.85,0,0,0-.53-.31h0a1.79,1.79,0,0,1-.36-.19l0,0v0a.09.09,0,0,1,0-.05.25.25,0,0,1,.17,0,.88.88,0,0,1,.29,0l.17.08.12.07a.17.17,0,0,0,.17,0,.2.2,0,0,0,.13-.12l.21-.55a.21.21,0,0,0-.09-.26l-.09-.05a1.76,1.76,0,0,0-.47-.18v-.29a.22.22,0,0,0-.21-.22h-.54A.22.22,0,0,0,17.5,24.12Zm.43.51v-.3H18v.27a.22.22,0,0,0,.19.21,1.18,1.18,0,0,1,.43.11l-.06.15L18.45,25a1.16,1.16,0,0,0-.42-.07.64.64,0,0,0-.46.17.45.45,0,0,0-.15.35.46.46,0,0,0,0,.21.7.7,0,0,0,.14.17,1.73,1.73,0,0,0,.49.26h0a1.52,1.52,0,0,1,.43.25.69.69,0,0,1,.22.3.75.75,0,0,1,.05.26.67.67,0,0,1-.18.47h0a.81.81,0,0,1-.43.25.22.22,0,0,0-.17.21v.32h-.12v-.29a.21.21,0,0,0-.19-.21,1.36,1.36,0,0,1-.29-.06.93.93,0,0,1-.25-.1l.06-.14a1.45,1.45,0,0,0,.65.16.72.72,0,0,0,.49-.16.53.53,0,0,0,.19-.41.56.56,0,0,0,0-.23.68.68,0,0,0-.13-.18,1.19,1.19,0,0,0-.44-.26,2.13,2.13,0,0,1-.46-.24.58.58,0,0,1-.24-.28.47.47,0,0,1,0-.24.67.67,0,0,1,.17-.46.85.85,0,0,1,.41-.22A.22.22,0,0,0,17.93,24.63Z"/><path class="cls-12" d="M24.35,12.19a.35.35,0,0,0,.38-.29.34.34,0,0,0-.26-.39A16.11,16.11,0,0,0,21,11c-5-.13-7.65,2.66-9.56,5.65l-1.1-.7A.35.35,0,0,0,10,16a.35.35,0,0,0-.16.34l.61,4.24a.33.33,0,0,0,.17.26.35.35,0,0,0,.3,0l3.82-1.51a.35.35,0,0,0,.22-.3.36.36,0,0,0-.19-.33L13.6,18.1C16.81,11.48,24,12.15,24.35,12.19ZM12.83,18.11a.34.34,0,0,0,.15.45l.75.39L11,20,10.58,17l.76.48a.33.33,0,0,0,.26,0,.34.34,0,0,0,.22-.15c1.93-3.1,4.43-5.84,9.38-5.62A11,11,0,0,0,12.83,18.11Z"/></g></g></svg>