<svg xmlns="http://www.w3.org/2000/svg" xmlns:xlink="http://www.w3.org/1999/xlink" viewBox="0 0 40.55 41.96"><defs><style>.cls-1{mask:url(#mask);filter:url(#luminosity-noclip-3);}.cls-2,.cls-4,.cls-7,.cls-9{mix-blend-mode:multiply;}.cls-2{fill:url(#radial-gradient);}.cls-3{mask:url(#mask-2);filter:url(#luminosity-noclip-4);}.cls-4{fill:url(#radial-gradient-2);}.cls-5{isolation:isolate;}.cls-6{mask:url(#mask-3);}.cls-7{fill:url(#Degradado_sin_nombre_153);}.cls-8{mask:url(#mask-4);}.cls-9{fill:url(#Degradado_sin_nombre_151);}.cls-10{fill:url(#Degradado_sin_nombre_159);}.cls-11,.cls-12,.cls-13{fill:none;}.cls-11{stroke:#00c59b;stroke-width:1.18px;}.cls-11,.cls-12{stroke-linecap:round;stroke-linejoin:round;}.cls-12{stroke:#fff;stroke-width:0.62px;}.cls-14{fill:#fff;}.cls-15{filter:url(#luminosity-noclip-2);}.cls-16{filter:url(#luminosity-noclip);}</style><filter id="luminosity-noclip" x="6.42" y="-8583.16" width="33.96" height="32766" filterUnits="userSpaceOnUse" color-interpolation-filters="sRGB"><feFlood flood-color="#fff" result="bg"/><feBlend in="SourceGraphic" in2="bg"/></filter><mask id="mask" x="6.42" y="-8583.16" width="33.96" height="32766" maskUnits="userSpaceOnUse"><g class="cls-16"/></mask><radialGradient id="radial-gradient" cx="-887.76" cy="-250.84" r="12.05" gradientTransform="matrix(0.98, 0.27, -1.01, 0.11, 638.26, 306.55)" gradientUnits="userSpaceOnUse"><stop offset="0.5" stop-color="#a6a6a6"/><stop offset="0.6" stop-color="#a3a3a3"/><stop offset="0.67" stop-color="#999"/><stop offset="0.75" stop-color="#888"/><stop offset="0.81" stop-color="#707070"/><stop offset="0.88" stop-color="#515151"/><stop offset="0.94" stop-color="#2c2c2c"/><stop offset="1"/></radialGradient><filter id="luminosity-noclip-2" x="0" y="-8583.16" width="33.96" height="32766" filterUnits="userSpaceOnUse" color-interpolation-filters="sRGB"><feFlood flood-color="#fff" result="bg"/><feBlend in="SourceGraphic" in2="bg"/></filter><mask id="mask-2" x="0" y="-8583.16" width="33.96" height="32766" maskUnits="userSpaceOnUse"><g class="cls-15"/></mask><radialGradient id="radial-gradient-2" cx="-476.79" cy="-1212.61" r="12.05" gradientTransform="matrix(-0.98, 0.27, 1.01, 0.11, 779.3, 306.55)" xlink:href="#radial-gradient"/><filter id="luminosity-noclip-3" x="6.42" y="36.03" width="33.96" height="7.03" filterUnits="userSpaceOnUse" color-interpolation-filters="sRGB"><feFlood flood-color="#fff" result="bg"/><feBlend in="SourceGraphic" in2="bg"/></filter><mask id="mask-3" x="6.42" y="36.03" width="33.96" height="7.03" maskUnits="userSpaceOnUse"><g class="cls-1"><path class="cls-2" d="M40.37,40.86c-.15,1.8-7.89,2.67-17.26,2S6.26,40,6.42,38.24s7.9-2.68,17.27-2S40.54,39.06,40.37,40.86Z"/></g></mask><radialGradient id="Degradado_sin_nombre_153" cx="-887.76" cy="-250.84" r="12.05" gradientTransform="matrix(0.98, 0.27, -1.01, 0.11, 638.26, 306.55)" gradientUnits="userSpaceOnUse"><stop offset="0" stop-color="#3c3c3b"/><stop offset="1" stop-color="#fff" stop-opacity="0"/></radialGradient><filter id="luminosity-noclip-4" x="0" y="36.03" width="33.96" height="7.03" filterUnits="userSpaceOnUse" color-interpolation-filters="sRGB"><feFlood flood-color="#fff" result="bg"/><feBlend in="SourceGraphic" in2="bg"/></filter><mask id="mask-4" x="0" y="36.03" width="33.96" height="7.03" maskUnits="userSpaceOnUse"><g class="cls-3"><path class="cls-4" d="M0,40.86c.16,1.8,7.89,2.67,17.27,2S34.12,40,34,38.24s-7.9-2.68-17.26-2S-.16,39.06,0,40.86Z"/></g></mask><radialGradient id="Degradado_sin_nombre_151" cx="-476.79" cy="-1212.61" r="12.05" gradientTransform="matrix(-0.98, 0.27, 1.01, 0.11, 779.3, 306.55)" gradientUnits="userSpaceOnUse"><stop offset="0" stop-color="#3c3c3b"/><stop offset="0" stop-color="#3d3d3c"/><stop offset="1" stop-color="#fff" stop-opacity="0"/></radialGradient><linearGradient id="Degradado_sin_nombre_159" x1="20.29" y1="40.53" x2="20.29" gradientTransform="translate(9.45 -6.28) rotate(22.82)" gradientUnits="userSpaceOnUse"><stop offset="0" stop-color="#005c68"/><stop offset="1" stop-color="#00b87c"/></linearGradient></defs><g class="cls-5"><g id="Capa_1" data-name="Capa 1"><g class="cls-6"><path class="cls-7" d="M40.37,40.86c-.15,1.8-7.89,2.67-17.26,2S6.26,40,6.42,38.24s7.9-2.68,17.27-2S40.54,39.06,40.37,40.86Z"/></g><g class="cls-8"><path class="cls-9" d="M0,40.86c.16,1.8,7.89,2.67,17.27,2S34.12,40,34,38.24s-7.9-2.68-17.26-2S-.16,39.06,0,40.86Z"/></g><circle class="cls-10" cx="20.29" cy="20.27" r="20.27" transform="translate(-6.27 9.45) rotate(-22.82)"/><path class="cls-11" d="M26.68,4.27a17.05,17.05,0,0,1,11,14"/><path class="cls-11" d="M37.66,20.74a7.18,7.18,0,0,1-.53,3.66"/><path class="cls-12" d="M21.6,32.73c-5.72.61-12.68-6-3.75-16.35,1.38,3.55,9.06,7.93,4.81,15.43-1.91-1.7-4.45-5.74-4.38-9.43C17.13,26.89,19.48,30.47,21.6,32.73Z"/><path class="cls-12" d="M24,31.59c4.32-.07,9-4.5,6.32-14.91-2.21.85-6.06,2.65-7.71,4.85a9.64,9.64,0,0,1,1.88,3.69,15.82,15.82,0,0,1,2.76-3.89A43.55,43.55,0,0,0,24.87,27C25.22,30.11,24,31.59,24,31.59Z"/><path class="cls-13" d="M18.2,22.79A10.32,10.32,0,0,0,18,24l.27-.08A10.09,10.09,0,0,1,18.2,22.79Z"/><path class="cls-13" d="M17.93,24.53a7.18,7.18,0,0,0,0,.8l.58-.18c-.06-.24-.11-.49-.16-.74Z"/><polygon class="cls-13" points="19.93 12.79 16.54 11.02 17.32 13.59 19.93 12.79"/><path class="cls-13" d="M18,26.63l.83-.25c-.08-.23-.16-.47-.23-.71l-.69.2C18,26.13,18,26.38,18,26.63Z"/><path class="cls-13" d="M13.53,25.52a.55.55,0,0,1-.15-.24L10,14l-.65.2a.07.07,0,0,0-.05.08L13,26.73s.05.05.09,0l.41-.12A7.1,7.1,0,0,1,13.53,25.52Z"/><path class="cls-13" d="M17.22,14.17a.27.27,0,0,1-.33-.18l-1-3.16-5.76,1.74a.07.07,0,0,0-.05.08l3.54,11.74a12.15,12.15,0,0,1,.94-2.85l-.51.16a.27.27,0,0,1-.15-.51l1-.3c.21-.4.44-.81.71-1.24l-2,.6a.26.26,0,0,1-.33-.18.25.25,0,0,1,.17-.33L16.09,19c.3-.43.62-.87,1-1.32L13.22,18.8a.27.27,0,0,1-.16-.51l4.62-1.39.1-.12,0,.08,2.3-.69a.25.25,0,0,1,.33.17.26.26,0,0,1-.17.33L18,17.34a9.57,9.57,0,0,0,.55.87l2-.6a.27.27,0,0,1,.15.51l-1.78.54.66.83L21,19.06a.27.27,0,0,1,.33.18.27.27,0,0,1-.18.33L20,19.93c.22.27.45.54.67.82l.8-.24a.27.27,0,0,1,.33.18.26.26,0,0,1-.17.33l-.6.18c.39.48.77,1,1.12,1.52l.86-.26a6.54,6.54,0,0,0-.4-.52,5.65,5.65,0,0,1,.4-.48l-2.5-8.27Zm-5.64.11a.25.25,0,0,1,.17-.33l4-1.2a.27.27,0,0,1,.33.18.27.27,0,0,1-.18.33l-4,1.2A.27.27,0,0,1,11.58,14.28ZM12,15.73a.27.27,0,0,1,.18-.33l4.13-1.25a.27.27,0,0,1,.33.18.27.27,0,0,1-.18.33l-4.13,1.25A.27.27,0,0,1,12,15.73Zm7.82-.5-7,2.12a.25.25,0,0,1-.33-.17.27.27,0,0,1,.18-.33l7-2.13a.26.26,0,0,1,.33.17A.26.26,0,0,1,19.83,15.23Z"/><path class="cls-13" d="M13.27,27.28a.6.6,0,0,1-.75-.4L9.1,15.57l-.65.2a.07.07,0,0,0,0,.08l3.77,12.48s.05.05.09,0l1.49-.45c-.06-.24-.11-.48-.15-.74Z"/><path class="cls-14" d="M16.05,10.25a.23.23,0,0,1,.18,0A.23.23,0,0,0,16.05,10.25Z"/><path class="cls-14" d="M17.22,14.17l3.24-1L20.41,13l-4.33-2.26-.15.05,1,3.16A.27.27,0,0,0,17.22,14.17Zm2.72-1.38-2.62.8L16.54,11Z"/><path class="cls-14" d="M20.76,12.62a.28.28,0,0,1,.11.15A.33.33,0,0,0,20.76,12.62Z"/><path class="cls-14" d="M10.39,13.56a.26.26,0,0,1-.17.34L10,14l3.42,11.31a.55.55,0,0,0,.15.24,9.11,9.11,0,0,1,.13-1.13L10.12,12.65a.07.07,0,0,1,.05-.08l5.76-1.74-.08-.26a.27.27,0,0,1,.09-.28.21.21,0,0,1,.11,0h0l-6,1.82a.61.61,0,0,0-.41.75l.2.65.25-.07A.26.26,0,0,1,10.39,13.56Z"/><path class="cls-14" d="M20.71,13.11l-.25.08L23,21.46c.13-.14.27-.29.42-.43l-2.49-8.25h0a.21.21,0,0,1,0,.12A.27.27,0,0,1,20.71,13.11Z"/><path class="cls-14" d="M18.33,24.41c0-.18,0-.35-.07-.53L18,24a5.51,5.51,0,0,0-.06.57Z"/><path class="cls-14" d="M15.85,10.57l.08.26.15-.05L20.41,13l.05.15.25-.08a.27.27,0,0,0,.19-.22.21.21,0,0,0,0-.12.28.28,0,0,0-.11-.15l-4.53-2.36a.23.23,0,0,0-.18,0,.21.21,0,0,0-.11,0A.27.27,0,0,0,15.85,10.57Z"/><path class="cls-14" d="M9.54,15.16a.28.28,0,0,1-.18.34l-.26.07,3.42,11.31a.6.6,0,0,0,.75.4l.33-.1c0-.17,0-.35-.07-.53l-.41.12s-.08,0-.09,0L9.26,14.25a.07.07,0,0,1,.05-.08L10,14l-.15-.51-.65.2a.61.61,0,0,0-.41.75l.2.65L9.2,15A.27.27,0,0,1,9.54,15.16Z"/><path class="cls-14" d="M22.87,24a.5.5,0,0,0,0-.27l-.2-.66-.27.08C22.56,23.46,22.72,23.74,22.87,24Z"/><path class="cls-14" d="M10.22,13.9a.26.26,0,0,0,.17-.34.26.26,0,0,0-.33-.17l-.25.07L10,14Z"/><path class="cls-14" d="M12.26,28.37s-.08,0-.09,0L8.4,15.85a.07.07,0,0,1,0-.08l.65-.2L9,15.06l-.65.2a.61.61,0,0,0-.41.75l3.77,12.47a.6.6,0,0,0,.75.4l1.5-.45a4.32,4.32,0,0,1-.16-.51Z"/><path class="cls-14" d="M9.36,15.5a.28.28,0,0,0,.18-.34A.27.27,0,0,0,9.2,15L9,15.06l.15.51Z"/><path class="cls-14" d="M21.14,19.57a.27.27,0,0,0,.18-.33.27.27,0,0,0-.33-.18l-1.41.43.37.44Z"/><path class="cls-14" d="M13.94,21.19a.27.27,0,0,0,.15.51l.51-.16c.09-.21.2-.43.32-.65Z"/><path class="cls-14" d="M13.5,19.74a.25.25,0,0,0-.17.33.26.26,0,0,0,.33.18l2-.6c.14-.22.3-.46.46-.69Z"/><path class="cls-14" d="M20.7,18.12a.27.27,0,0,0-.15-.51l-2,.6.33.45Z"/><path class="cls-14" d="M20.27,16.67a.26.26,0,0,0,.17-.33.25.25,0,0,0-.33-.17l-2.3.69a5.24,5.24,0,0,0,.23.48Z"/><path class="cls-14" d="M13.06,18.29a.27.27,0,0,0,.16.51l3.85-1.16c.19-.25.4-.49.61-.74Z"/><path class="cls-14" d="M19.67,14.72l-7,2.13a.27.27,0,0,0-.18.33.25.25,0,0,0,.33.17l7-2.12a.26.26,0,0,0,.17-.34A.26.26,0,0,0,19.67,14.72Z"/><path class="cls-14" d="M16.65,14.33a.27.27,0,0,0-.33-.18L12.19,15.4a.27.27,0,0,0-.18.33.27.27,0,0,0,.33.18l4.13-1.25A.27.27,0,0,0,16.65,14.33Z"/><path class="cls-14" d="M16.05,12.93a.27.27,0,0,0-.33-.18l-4,1.2a.25.25,0,0,0-.17.33.27.27,0,0,0,.33.18l4-1.2A.27.27,0,0,0,16.05,12.93Z"/></g></g></svg>