<svg xmlns="http://www.w3.org/2000/svg" xmlns:xlink="http://www.w3.org/1999/xlink" viewBox="0 0 101.3 134.6"><defs><style>.cls-1{mask:url(#mask);filter:url(#luminosity-noclip-3);}.cls-2,.cls-28,.cls-4,.cls-42,.cls-44{mix-blend-mode:multiply;}.cls-2{fill:url(#radial-gradient);}.cls-3{mask:url(#mask-2);filter:url(#luminosity-noclip-4);}.cls-4{fill:url(#radial-gradient-2);}.cls-5{fill:none;}.cls-6{isolation:isolate;}.cls-7{clip-path:url(#clip-path);}.cls-8{fill:url(#radial-gradient-3);}.cls-9{fill:#69361f;}.cls-10{fill:url(#radial-gradient-4);}.cls-11{fill:url(#radial-gradient-5);}.cls-12{fill:url(#radial-gradient-6);}.cls-13{fill:url(#radial-gradient-7);}.cls-14{fill:url(#radial-gradient-8);}.cls-15{fill:url(#radial-gradient-9);}.cls-16{fill:url(#radial-gradient-10);}.cls-17{fill:url(#radial-gradient-11);}.cls-18{fill:url(#radial-gradient-12);}.cls-19{fill:url(#radial-gradient-13);}.cls-20{fill:url(#radial-gradient-14);}.cls-21{fill:url(#linear-gradient);}.cls-22{fill:url(#linear-gradient-2);}.cls-23{fill:url(#linear-gradient-3);}.cls-24{fill:url(#linear-gradient-4);}.cls-25{fill:url(#linear-gradient-5);}.cls-26{fill:url(#linear-gradient-6);}.cls-27{fill:url(#linear-gradient-7);}.cls-28{opacity:0.6;}.cls-29{fill:url(#radial-gradient-15);}.cls-30{fill:url(#radial-gradient-16);}.cls-31{fill:url(#radial-gradient-17);}.cls-32{fill:url(#linear-gradient-8);}.cls-33{fill:url(#linear-gradient-9);}.cls-34{fill:url(#linear-gradient-10);}.cls-35{fill:url(#linear-gradient-11);}.cls-36{fill:url(#linear-gradient-12);}.cls-37{fill:url(#linear-gradient-13);}.cls-38{fill:url(#linear-gradient-14);}.cls-39{fill:url(#linear-gradient-15);}.cls-40{fill:url(#linear-gradient-16);}.cls-41{mask:url(#mask-3);}.cls-42{fill:url(#radial-gradient-18);}.cls-43{mask:url(#mask-4);}.cls-44{fill:url(#radial-gradient-19);}.cls-45{mix-blend-mode:screen;opacity:0.5;}.cls-46{fill:url(#radial-gradient-20);}.cls-47{fill:url(#radial-gradient-21);}.cls-48{opacity:0.8;fill:url(#linear-gradient-17);}.cls-49{filter:url(#luminosity-noclip-2);}.cls-50{filter:url(#luminosity-noclip);}</style><filter id="luminosity-noclip" x="1.52" y="-8569.03" width="96.4" height="32766" filterUnits="userSpaceOnUse" color-interpolation-filters="sRGB"><feFlood flood-color="#fff" result="bg"/><feBlend in="SourceGraphic" in2="bg"/></filter><mask id="mask" x="1.52" y="-8569.03" width="96.4" height="32766" maskUnits="userSpaceOnUse"><g class="cls-50"/></mask><radialGradient id="radial-gradient" cx="639.9" cy="-21.54" r="135.85" gradientTransform="matrix(-0.98, 0.06, 0.06, 0.97, 710.3, -16.98)" gradientUnits="userSpaceOnUse"><stop offset="0.16" stop-color="#1a1a1a"/><stop offset="0.25" stop-color="#414141"/><stop offset="0.4" stop-color="#7a7a7a"/><stop offset="0.54" stop-color="#aaa"/><stop offset="0.68" stop-color="#cfcfcf"/><stop offset="0.8" stop-color="#e9e9e9"/><stop offset="0.91" stop-color="#f9f9f9"/><stop offset="1" stop-color="#fff"/></radialGradient><filter id="luminosity-noclip-2" x="18.41" y="-8569.03" width="18.47" height="32766" filterUnits="userSpaceOnUse" color-interpolation-filters="sRGB"><feFlood flood-color="#fff" result="bg"/><feBlend in="SourceGraphic" in2="bg"/></filter><mask id="mask-2" x="18.41" y="-8569.03" width="18.47" height="32766" maskUnits="userSpaceOnUse"><g class="cls-49"/></mask><radialGradient id="radial-gradient-2" cx="643.3" cy="33.79" r="135.88" gradientTransform="matrix(-0.98, 0.06, 0.06, 0.97, 710.3, -16.98)" gradientUnits="userSpaceOnUse"><stop offset="0.16" stop-color="#1a1a1a"/><stop offset="0.34" stop-color="#454545"/><stop offset="0.72" stop-color="#b0b0b0"/><stop offset="1" stop-color="#fff"/></radialGradient><clipPath id="clip-path"><path class="cls-5" d="M32.85,10.22,40.5,9.5l4-2.77,8.06-5.45s-1.8,2.63,3.34,1.65l4.05,2.22L69.69,14s5.31,82,6,83,26.54,28.54,26.54,28.54l-2,9.29H-2.31V114.9l23.56-5Z"/></clipPath><radialGradient id="radial-gradient-3" cx="682.86" cy="41.61" fx="622.6293585980501" r="71.97" gradientTransform="matrix(-0.98, 0.06, 0.06, 0.97, 710.3, -16.98)" gradientUnits="userSpaceOnUse"><stop offset="0.07" stop-color="#e9ab45"/><stop offset="0.49" stop-color="#d48849"/><stop offset="0.6" stop-color="#c57c44"/><stop offset="0.8" stop-color="#9d5b36"/><stop offset="0.93" stop-color="#81452c"/></radialGradient><radialGradient id="radial-gradient-4" cx="15.1" cy="47.22" r="75.78" gradientTransform="translate(9.74 6.72) scale(0.98 0.98)" gradientUnits="userSpaceOnUse"><stop offset="0" stop-color="#ffd000"/><stop offset="0.12" stop-color="#e09b2f"/><stop offset="0.4" stop-color="#c77637"/><stop offset="0.82" stop-color="#6d3420"/><stop offset="1" stop-color="#522717"/></radialGradient><radialGradient id="radial-gradient-5" cx="633.29" cy="20.35" r="78.03" gradientTransform="matrix(-0.98, 0.06, 0.06, 0.97, 710.3, -16.98)" gradientUnits="userSpaceOnUse"><stop offset="0" stop-color="#ffd000"/><stop offset="0.12" stop-color="#e09b2f"/><stop offset="0.26" stop-color="#c77637"/><stop offset="0.34" stop-color="#ad6330"/><stop offset="0.46" stop-color="#914f29"/><stop offset="0.58" stop-color="#7d4024"/><stop offset="0.7" stop-color="#713721"/><stop offset="0.82" stop-color="#6d3420"/><stop offset="1" stop-color="#522717"/></radialGradient><radialGradient id="radial-gradient-6" cx="668.47" cy="12.7" r="69.52" gradientTransform="matrix(-0.98, 0.06, 0.06, 0.97, 710.3, -16.98)" gradientUnits="userSpaceOnUse"><stop offset="0.16" stop-color="#c77637"/><stop offset="0.82" stop-color="#6d3420"/><stop offset="1" stop-color="#522717"/></radialGradient><radialGradient id="radial-gradient-7" cx="18.62" cy="37.31" r="67.87" gradientTransform="translate(9.74 6.72) scale(0.98 0.98)" gradientUnits="userSpaceOnUse"><stop offset="0" stop-color="#ffd000"/><stop offset="0.29" stop-color="#e09b2f"/><stop offset="0.54" stop-color="#c77637"/><stop offset="0.82" stop-color="#6d3420"/><stop offset="1" stop-color="#522717"/></radialGradient><radialGradient id="radial-gradient-8" cx="28.59" cy="37.44" r="74.83" xlink:href="#radial-gradient-7"/><radialGradient id="radial-gradient-9" cx="33.33" cy="37.33" r="74.58" xlink:href="#radial-gradient-7"/><radialGradient id="radial-gradient-10" cx="641.12" cy="47.99" fx="611.0859937562511" fy="28.053991745942014" r="91.47" gradientTransform="matrix(-0.98, 0.06, 0.06, 0.97, 710.3, -16.98)" xlink:href="#radial-gradient-7"/><radialGradient id="radial-gradient-11" cx="628.6" cy="44.65" r="96.97" gradientTransform="matrix(-0.98, 0.06, 0.06, 0.97, 710.3, -16.98)" gradientUnits="userSpaceOnUse"><stop offset="0" stop-color="#ffd831"/><stop offset="0.22" stop-color="#e9ab45"/><stop offset="0.39" stop-color="#d48849"/><stop offset="0.67" stop-color="#81452c"/></radialGradient><radialGradient id="radial-gradient-12" cx="53.71" cy="51.39" r="98.41" gradientTransform="translate(9.74 6.72) scale(0.98 0.98)" xlink:href="#radial-gradient-11"/><radialGradient id="radial-gradient-13" cx="4.64" cy="72.39" fx="-32.603658202324496" fy="53.186865373705764" r="88.04" gradientTransform="translate(9.74 6.72) scale(0.98 0.98)" xlink:href="#radial-gradient-11"/><radialGradient id="radial-gradient-14" cx="635.53" cy="55.08" r="77.88" xlink:href="#radial-gradient-11"/><linearGradient id="linear-gradient" x1="626.88" y1="111.55" x2="626.79" y2="110.79" gradientTransform="matrix(-1, 0.06, 0.06, 1, 710.98, -24.88)" xlink:href="#radial-gradient-11"/><linearGradient id="linear-gradient-2" x1="655.98" y1="122.19" x2="645.95" y2="38.47" gradientTransform="matrix(-1, 0.06, 0.06, 1, 710.98, -24.88)" xlink:href="#radial-gradient-11"/><linearGradient id="linear-gradient-3" x1="667.24" y1="120.86" x2="657.21" y2="37.09" gradientTransform="matrix(-1, 0.06, 0.06, 1, 710.98, -24.88)" xlink:href="#radial-gradient-11"/><linearGradient id="linear-gradient-4" x1="668.65" y1="120.73" x2="658.6" y2="36.85" gradientTransform="matrix(-1, 0.06, 0.06, 1, 710.98, -24.88)" xlink:href="#radial-gradient-11"/><linearGradient id="linear-gradient-5" x1="667.61" y1="120.79" x2="657.58" y2="37.1" gradientTransform="matrix(-1, 0.06, 0.06, 1, 710.98, -24.88)" xlink:href="#radial-gradient-11"/><linearGradient id="linear-gradient-6" x1="677.23" y1="119.67" x2="667.19" y2="35.89" gradientTransform="matrix(-1, 0.06, 0.06, 1, 710.98, -24.88)" xlink:href="#radial-gradient-11"/><linearGradient id="linear-gradient-7" x1="677.27" y1="119.7" x2="667.23" y2="35.82" gradientTransform="matrix(-1, 0.06, 0.06, 1, 710.98, -24.88)" xlink:href="#radial-gradient-11"/><radialGradient id="radial-gradient-15" cx="662.47" cy="114.99" r="48.66" gradientTransform="matrix(-0.98, 0.06, 0.06, 0.97, 710.3, -16.98)" xlink:href="#radial-gradient-7"/><radialGradient id="radial-gradient-16" cx="662.46" cy="114.99" r="48.67" gradientTransform="matrix(-0.98, 0.06, 0.06, 0.97, 710.3, -16.98)" xlink:href="#radial-gradient-7"/><radialGradient id="radial-gradient-17" cx="662.47" cy="114.97" r="48.66" gradientTransform="matrix(-0.98, 0.06, 0.06, 0.97, 710.3, -16.98)" xlink:href="#radial-gradient-7"/><linearGradient id="linear-gradient-8" x1="669.93" y1="156.53" x2="648.12" y2="-25.55" gradientTransform="matrix(-1, 0.08, 0.08, 1, 699.49, -43.01)" xlink:href="#radial-gradient-11"/><linearGradient id="linear-gradient-9" x1="667.81" y1="126.32" x2="657.77" y2="42.54" gradientTransform="matrix(-1, 0.08, 0.08, 1, 699.49, -43.01)" xlink:href="#radial-gradient-11"/><linearGradient id="linear-gradient-10" x1="664.25" y1="126.74" x2="654.21" y2="42.97" gradientTransform="matrix(-1, 0.08, 0.08, 1, 699.49, -43.01)" xlink:href="#radial-gradient-11"/><linearGradient id="linear-gradient-11" x1="663.84" y1="121.26" x2="653.81" y2="37.51" gradientTransform="matrix(-1, 0.06, 0.06, 1, 710.98, -24.88)" xlink:href="#radial-gradient-11"/><linearGradient id="linear-gradient-12" x1="671.36" y1="152.59" x2="652.46" y2="-5.22" gradientTransform="matrix(-1, 0.06, 0.06, 1, 710.98, -24.88)" xlink:href="#radial-gradient-11"/><linearGradient id="linear-gradient-13" x1="678.24" y1="196.07" x2="650.59" y2="-34.83" gradientTransform="matrix(-1, 0.06, 0.06, 1, 710.98, -24.88)" xlink:href="#radial-gradient-11"/><linearGradient id="linear-gradient-14" x1="681.37" y1="220.12" x2="647.49" y2="-62.71" gradientTransform="matrix(-1, 0.06, 0.06, 1, 710.98, -24.88)" xlink:href="#radial-gradient-11"/><linearGradient id="linear-gradient-15" x1="684.34" y1="140.68" x2="664.95" y2="-21.24" gradientTransform="matrix(-1, 0.06, 0.06, 1, 710.98, -24.88)" xlink:href="#radial-gradient-11"/><linearGradient id="linear-gradient-16" x1="682.64" y1="119.03" x2="672.61" y2="35.25" gradientTransform="matrix(-1, 0.06, 0.06, 1, 710.98, -24.88)" xlink:href="#radial-gradient-11"/><filter id="luminosity-noclip-3" x="1.52" y="-65.22" width="96.4" height="199.02" filterUnits="userSpaceOnUse" color-interpolation-filters="sRGB"><feFlood flood-color="#fff" result="bg"/><feBlend in="SourceGraphic" in2="bg"/></filter><mask id="mask-3" x="1.52" y="-65.22" width="96.4" height="199.02" maskUnits="userSpaceOnUse"><g class="cls-1"><path class="cls-2" d="M3.1,71.39c1.48-3.37,5.26-3,8.16-1.94A35.88,35.88,0,0,0,15,70.68a12.51,12.51,0,0,0,3.52,1.06,24.33,24.33,0,0,0,4.34.48,10.14,10.14,0,0,0-5.3,5.67c-.09.16-.19.32-.28.49a.39.39,0,0,0,0,.4l0,.09c-.18.6.61,1.22,1,.62a12.23,12.23,0,0,1,2.17-2.36,7.39,7.39,0,0,1,3.12-1,44.6,44.6,0,0,1,5,.18,19.69,19.69,0,0,0,7.1-.86,7.79,7.79,0,0,0,7-1,12.84,12.84,0,0,0,1-.86,18.49,18.49,0,0,0,7.8-2.19c.5-.26,1-.54,1.5-.83a16.33,16.33,0,0,0,3,1.33c3.33,1.06,6.8.69,10.23,1.14A11.64,11.64,0,0,1,71,74.31a22.48,22.48,0,0,0,3.09,1.58c.37.15.83-.31.52-.65-.76-.81-1.4-1.71-2.12-2.5l-1.24-2.38c1.82.29,3.65.53,5.44.92,2.16.47,4.11,1.35,6.22,2a12.66,12.66,0,0,0,5,.67c1.32-.13,2.59-.43,3.89-.66,2.1.49,3.92,1.8,6,2.35.16,0,.23-.18.12-.27l0,0c0-.07,0-.13-.09-.19a9,9,0,0,1-1.44-1.23c-1.12-1.45-2.21-3-3.88-3.67a9.13,9.13,0,0,0-3.58-.54,6,6,0,0,0-.61-.1,14,14,0,0,1-2.63-.71h0A9.07,9.07,0,0,0,84.8,68a.56.56,0,0,0-.11-.42,26.47,26.47,0,0,0-4.37-4.84,8.54,8.54,0,0,0-3-1.76l-.15,0c-.59-.54-1.25-1-1.87-1.49a11,11,0,0,0-3-3.08.5.5,0,0,0-.2-.08c-1.22-1.56-2.31-3.21-3.57-4.77A39.36,39.36,0,0,1,64.69,42a54.29,54.29,0,0,1-1.56-14.14c0-2.65.11-5.3.15-7.94a29.25,29.25,0,0,0-.18-5.77A64.83,64.83,0,0,0,63,3.56a47.62,47.62,0,0,0-1.31-8.63c-.09-.31-.17-.63-.26-.95-.71-4.79-1.14-9.71,2.7-13.06,1.88-1.63,4.06-2.8,6.08-4.24a18.18,18.18,0,0,0,3.45-3.27,19.3,19.3,0,0,0,2.67-3.78c.15-.24-.19-.54-.37-.29a19.46,19.46,0,0,1-2,2.92,11.44,11.44,0,0,1-4.56,2.43,29.75,29.75,0,0,0-7.06,3.19l-.16.11c.92-2.68,2-5.31,2.9-8a74.3,74.3,0,0,0,2.55-10.26c.09-.47-.68-.7-.83-.23A53.05,53.05,0,0,1,63-32.22a29,29,0,0,0,1.47-7.73c.16-2.49-.52-5.07,0-7.52.06-.24-.3-.31-.4-.11a9.2,9.2,0,0,0-1,3A46.2,46.2,0,0,0,61.83-51c-.13-.48-.92-.27-.84.2C62.3-43.29,60-35.56,56.44-29a33.58,33.58,0,0,0-3.84,9.64c0,.12-.05.25-.07.36v-.28A98,98,0,0,1,53-32.77c.08-.59.16-1.18.26-1.76.2-.89.36-1.78.51-2.68.14-.64.3-1.29.49-1.93a27.58,27.58,0,0,0,1.25-6.09c.19-3.93-.29-7.8-.29-11.72,0-.23-.37-.22-.4,0-.1.71-.19,1.42-.27,2.14a42.23,42.23,0,0,0-3.2-8.46.27.27,0,0,0-.51.19c1.39,5.33,2.62,10.8,1.59,16.32-.18,1-.4,2-.64,3a31.59,31.59,0,0,0-1-4c-1.35-4.27-3.56-8.45-4.3-12.89a.4.4,0,0,0-.8.09c.08.9.2,1.78.34,2.66a15,15,0,0,0-1.73-2.4C42.83-62,41-63.41,39.57-65.17a.13.13,0,0,0-.22.12,24.79,24.79,0,0,0,3.25,5.38A22.28,22.28,0,0,1,46-53.33c.77,2,1.6,4.12,2.33,6.24a45.61,45.61,0,0,1,.52,13.85c-.2,2.48-.5,5-.76,7.42-.18,1.7-.27,3.41-.46,5.11-.18-.51-.38-1-.6-1.51-1.67-3.56-3.79-6.89-5.62-10.35-.5-.94-.95-1.9-1.38-2.86-.56-3.76-1.78-7.4-2.08-11.21-.33-4.17-.69-8.25-2.15-12.21-.15-.39-.81-.24-.72.18A53.41,53.41,0,0,1,36-52c.17,2.29.06,4.59.18,6.88l.06.87a2.92,2.92,0,0,0-.14-.31,15.8,15.8,0,0,1-.94-4c0-.39-.7-.42-.71,0s0,.71,0,1.06a23.49,23.49,0,0,0-3-2.93c-.22-.21-.54.13-.38.36a24.62,24.62,0,0,1,2.28,5.26c.62,1.55,1.23,3.1,1.77,4.67a85.29,85.29,0,0,0,3.55,9.33,50.37,50.37,0,0,0,1.82,6.55,33.52,33.52,0,0,0,2.93,5.91A28,28,0,0,1,44.82-6.52c-.13,1.07-.28,2.13-.42,3.18-1-1.57-1.68-3.26-2.55-4.87-2.07-3.89-4.76-7.4-7-11.17a39.38,39.38,0,0,1-4.91-13.81A21.47,21.47,0,0,0,27.7-40c-1.07-2-2.63-3.75-3.17-6-.08-.33-.66-.42-.67,0,0,2.24.92,4.14,1.66,6.22a43.83,43.83,0,0,1,1.68,8.18c.08.53.18,1.06.28,1.6a64.13,64.13,0,0,0-4.1-5.6c-1.87-2.27-4.09-4.46-5.57-7-.22-.37-.78,0-.64.36a38,38,0,0,0,4.15,8.13c1.76,2.63,3.13,5.49,4.72,8.22a43.42,43.42,0,0,1,4.22,8.29c-2.48-1.73-5.11-3.27-7.76-4.89-4.61-2.81-9.95-5.88-13-10.45-.19-.29-.69,0-.54.29A23.53,23.53,0,0,0,13.26-26c.94.95,1.92,1.83,2.93,2.67-.83-.27-1.67-.52-2.51-.76-4.43-1.29-8-4.19-11.75-6.76-.22-.15-.55.11-.36.33a26.4,26.4,0,0,0,10.86,7.66c3.56,1.22,7,2.89,10.49,4.15a51.21,51.21,0,0,1,8.23,6.19c.56.85,1.11,1.71,1.7,2.51a38.41,38.41,0,0,1,3.24,5.12A45.83,45.83,0,0,1,40.27,7a59,59,0,0,1,1.15,12.58c-.11,3.84-.67,7.88-.41,11.76a36.1,36.1,0,0,0-1.17,4.77c0,.27-.08.54-.13.81-.45.9-.9,1.79-1.3,2.65-1.85,4-3.06,8.19-4.75,12.25-1.4,3.35-3.41,6.25-5.18,9.39-.45.79-.89,1.58-1.32,2.38a19.16,19.16,0,0,0-4.3,1.15,13.91,13.91,0,0,1-7.07.59c-2.13-.23-4-.49-5.94.52A8.7,8.7,0,0,0,7.17,66,5.84,5.84,0,0,0,4.11,67.7a8.56,8.56,0,0,0-1.62,3.43C2.36,71.52,2.93,71.78,3.1,71.39ZM40.73-17.54c.06-.15.12-.28.19-.42a4.78,4.78,0,0,1,.42-.34,3.22,3.22,0,0,0-.24.36C41-17.81,40.85-17.68,40.73-17.54Z"/></g></mask><radialGradient id="radial-gradient-18" cx="5.16" cy="33.36" r="153" gradientTransform="translate(9.74 6.72) scale(0.98 0.98)" gradientUnits="userSpaceOnUse"><stop offset="0.16" stop-color="#e9ab45"/><stop offset="0.26" stop-color="#d69840"/><stop offset="0.48" stop-color="#b17438"/><stop offset="0.68" stop-color="#975a31"/><stop offset="0.86" stop-color="#874b2d"/><stop offset="1" stop-color="#81452c"/></radialGradient><filter id="luminosity-noclip-4" x="18.41" y="109.22" width="18.47" height="17.5" filterUnits="userSpaceOnUse" color-interpolation-filters="sRGB"><feFlood flood-color="#fff" result="bg"/><feBlend in="SourceGraphic" in2="bg"/></filter><mask id="mask-4" x="18.41" y="109.22" width="18.47" height="17.5" maskUnits="userSpaceOnUse"><g class="cls-3"><path class="cls-4" d="M26.65,122.64C30,121,31.11,120.36,32.76,117s4.12-7.79,4.12-7.79a73.32,73.32,0,0,0-3.54,8.46,8,8,0,0,0-2,3.45,3.89,3.89,0,0,0-1.7,1.24,10.83,10.83,0,0,0-5.39,4,6.09,6.09,0,0,0-2.2.36c.27-.16.54-.3.83-.44a23.45,23.45,0,0,1-4.34-.48l-.13,0C22.25,126.14,24,123.93,26.65,122.64Z"/></g></mask><radialGradient id="radial-gradient-19" cx="643.3" cy="33.79" r="135.88" gradientTransform="matrix(-0.98, 0.06, 0.06, 0.97, 710.3, -16.98)" gradientUnits="userSpaceOnUse"><stop offset="0.16" stop-color="#e9ab45"/><stop offset="0.52" stop-color="#be813b"/><stop offset="1" stop-color="#81452c"/></radialGradient><radialGradient id="radial-gradient-20" cx="639.88" cy="50.29" fx="639.8761207778653" r="98.47" xlink:href="#radial-gradient-3"/><radialGradient id="radial-gradient-21" cx="603.03" cy="58.59" fx="603.026544806582" r="212.81" xlink:href="#radial-gradient-3"/><linearGradient id="linear-gradient-17" x1="642.39" y1="123.81" x2="632.36" y2="40.08" gradientTransform="matrix(-1, 0.06, 0.06, 1, 710.98, -24.88)" xlink:href="#radial-gradient-11"/></defs><g class="cls-6"><g id="Capa_1" data-name="Capa 1"><g class="cls-7"><path class="cls-8" d="M2.52,125.19a8.64,8.64,0,0,1,1.63-3.43,5.85,5.85,0,0,1,3.05-1.68A8.69,8.69,0,0,1,9.88,120c1.92-1,3.81-.76,5.95-.52a13.76,13.76,0,0,0,7.06-.6,20.56,20.56,0,0,1,4.31-1.16c.43-.79.86-1.58,1.31-2.37,1.77-3.15,3.79-6,5.18-9.39,1.69-4,2.91-8.27,4.76-12.25.39-.86.84-1.75,1.29-2.65,0-.27.09-.54.14-.81.29-1.63.65-37,1.17-38.55-.27-3.89.3-7.93.39-11.77a59.08,59.08,0,0,0-1.13-12.58,45.92,45.92,0,0,0-4.19-12,36.83,36.83,0,0,0-3.24-5.12c-.59-.81-1.14-1.67-1.7-2.51A51,51,0,0,0,23,1.52C19.43.26,16-1.42,12.47-2.63A26.26,26.26,0,0,1,1.62-10.3c-.2-.21.12-.47.35-.32C5.71-8,9.28-5.16,13.72-3.86c.83.24,1.67.49,2.5.75A38.31,38.31,0,0,1,13.3-5.77,23.1,23.1,0,0,1,9-12.36c-.15-.31.34-.58.53-.29,3,4.57,8.38,7.64,13,10.45C25.18-.58,27.81,1,30.29,2.69a43.22,43.22,0,0,0-4.22-8.3c-1.58-2.72-3-5.58-4.71-8.21a37.56,37.56,0,0,1-4.15-8.13c-.14-.38.42-.73.63-.35,1.48,2.54,3.71,4.73,5.57,7a64.11,64.11,0,0,1,4.11,5.59c-.11-.53-.2-1.06-.29-1.59a43.15,43.15,0,0,0-1.68-8.19c-.74-2.07-1.69-4-1.66-6.21,0-.42.6-.32.67,0,.54,2.23,2.1,4,3.18,6A21.61,21.61,0,0,1,30-12.92,39.63,39.63,0,0,0,34.86.9c2.26,3.77,5,7.28,7,11.16.86,1.63,1.58,3.31,2.54,4.89.15-1.06.3-2.13.42-3.19A27.93,27.93,0,0,0,43.54,1.93,32.19,32.19,0,0,1,40.61-4a47.79,47.79,0,0,1-1.82-6.55,84.64,84.64,0,0,1-3.55-9.32c-.55-1.58-1.16-3.13-1.78-4.69a25.87,25.87,0,0,0-2.27-5.26c-.17-.23.16-.56.37-.35a24.1,24.1,0,0,1,3,2.92c0-.35,0-.7,0-1.05s.67-.39.71,0a15.78,15.78,0,0,0,.93,4l.15.3c0-.28,0-.57-.06-.86-.13-2.29,0-4.59-.19-6.89a53.26,53.26,0,0,0-1-6.65c-.09-.42.58-.58.72-.18,1.45,4,1.82,8,2.15,12.21.3,3.81,1.52,7.45,2.09,11.21.42,1,.88,1.92,1.37,2.86,1.84,3.47,4,6.79,5.62,10.35a14.38,14.38,0,0,1,.6,1.51c.19-1.7.28-3.42.46-5.11.26-2.47.55-4.94.77-7.42a45.69,45.69,0,0,0-.53-13.86C47.61-28.93,46.79-31,46-33a22.47,22.47,0,0,0-3.39-6.35,23.92,23.92,0,0,1-3.24-5.37.12.12,0,0,1,.21-.12c1.45,1.75,3.26,3.16,4.76,4.87a15.07,15.07,0,0,1,1.73,2.41c-.14-.88-.26-1.76-.33-2.66a.4.4,0,0,1,.8-.09c.73,4.44,2.95,8.62,4.29,12.89a31.59,31.59,0,0,1,1,4c.24-1,.46-2,.65-3,1-5.52-.21-11-1.59-16.32a.27.27,0,0,1,.5-.19,42.23,42.23,0,0,1,3.2,8.46c.08-.72.17-1.44.27-2.15,0-.22.41-.23.41,0,0,3.92.47,7.79.28,11.72a27.58,27.58,0,0,1-1.25,6.09c-.19.64-.35,1.29-.49,1.93-.15.9-.31,1.79-.51,2.67-.1.59-.18,1.18-.25,1.77A96.33,96.33,0,0,0,52.57,1v.29l.06-.36a33.76,33.76,0,0,1,3.84-9.64C60-15.28,62.33-23,61-30.5c-.08-.48.71-.68.84-.21a46.37,46.37,0,0,1,1.31,6.45,9,9,0,0,1,1-3c.11-.19.46-.13.41.12-.54,2.45.14,5,0,7.52A28.6,28.6,0,0,1,63-11.94a53.15,53.15,0,0,0,3.8-8.27c.15-.46.92-.23.83.24A74.66,74.66,0,0,1,65.12-9.71c-.91,2.67-2,5.3-2.89,8a.83.83,0,0,1,.15-.11A29.36,29.36,0,0,1,69.44-5,11.44,11.44,0,0,0,74-7.46a20.3,20.3,0,0,0,2-2.92c.18-.24.51.05.36.29C75-8,74.22-6.41,72.05-5s-4.63,2.65-7,4a17.66,17.66,0,0,0-4,3,26.77,26.77,0,0,0-.75,9.6c.5,4.6,1.47,9.11,1.83,13.74.71,9.16-.57,52.1.08,61.24a47,47,0,0,0,2.25,11.56,38.31,38.31,0,0,0,2.27,5.32c1,1.86,2.33,3.45,3.18,5.36a.3.3,0,0,0,0,.1,22.5,22.5,0,0,1,1.74,1.92,20.21,20.21,0,0,0,2.34,3c.85.73,2.26.82,3.3,1.16A8.63,8.63,0,0,1,80.65,117c1.44,1.39,2.15,3.19,3.12,4.82a8.43,8.43,0,0,0,1.85,1.07c2.27.92,4.82.81,7.09,1.88,2.1,1,3.17,3.12,5.05,4.37a.22.22,0,0,1,.1.2l0,0c.1.09,0,.31-.12.27-2.11-.55-3.92-1.86-6-2.34-1.28.22-2.57.52-3.88.66a12.85,12.85,0,0,1-5-.68c-2.11-.63-4.06-1.51-6.22-2-1.8-.39-3.62-.64-5.43-.93.4.79.8,1.59,1.23,2.38.73.79,1.36,1.69,2.13,2.51.31.33-.17.79-.52.64a21,21,0,0,1-3.1-1.58,11.63,11.63,0,0,0-4.66-1.32c-3.43-.45-6.9-.09-10.22-1.15a15.81,15.81,0,0,1-3-1.34c-.49.3-1,.58-1.5.85a18.44,18.44,0,0,1-7.8,2.18,13.17,13.17,0,0,1-1,.86,7.79,7.79,0,0,1-7,1,20.12,20.12,0,0,1-7.09.86,42.62,42.62,0,0,0-5.05-.18,7.16,7.16,0,0,0-3.12,1,11.81,11.81,0,0,0-2.16,2.35c-.44.61-1.22,0-1-.62l0-.08a.37.37,0,0,1,0-.4c.1-.17.19-.34.29-.49a10.09,10.09,0,0,1,5.3-5.68,23.16,23.16,0,0,1-4.34-.48,11.86,11.86,0,0,1-3.53-1.06,34.37,34.37,0,0,1-3.76-1.23c-2.9-1-6.67-1.43-8.16,1.94A.33.33,0,0,1,2.52,125.19Z"/><path class="cls-9" d="M17.87,133.89a.73.73,0,0,1-.55-.31.78.78,0,0,1-.13-.67l0-.06a.5.5,0,0,1,.05-.45c.09-.17.19-.33.28-.49a10.14,10.14,0,0,1,5-5.55,25.22,25.22,0,0,1-4-.48l-.23,0a11.54,11.54,0,0,1-3.31-1,27.78,27.78,0,0,1-3-1l-.71-.26a11.26,11.26,0,0,0-3.72-.73,4.31,4.31,0,0,0-4.33,2.63.39.39,0,0,1-.36.24.47.47,0,0,1-.36-.19.42.42,0,0,1,0-.38c.07-.23.15-.46.22-.68a6.53,6.53,0,0,1,1.41-2.77A5.78,5.78,0,0,1,7.19,120a8.69,8.69,0,0,1,2.67-.13,6.72,6.72,0,0,1,3.23-.73,24.13,24.13,0,0,1,2.48.18l.26,0a26,26,0,0,0,2.77.19,11.16,11.16,0,0,0,4.26-.78,20.23,20.23,0,0,1,4.28-1.15c.35-.65.82-1.49,1.29-2.34s1.14-2,1.7-2.89a50.25,50.25,0,0,0,3.48-6.49c.73-1.73,1.37-3.52,2-5.25.84-2.32,1.71-4.72,2.76-7,.36-.79.76-1.58,1.18-2.42l.12-.22.05-.3.09-.5c.33-1.87.7-37.17,1.16-38.55a56.59,56.59,0,0,1,.18-7.59c.09-1.38.18-2.8.22-4.17a58.09,58.09,0,0,0-1.14-12.56A45.43,45.43,0,0,0,36,15.38a36.37,36.37,0,0,0-3.23-5.12C32.37,9.67,32,9,31.54,8.41l-.43-.66a51.39,51.39,0,0,0-8.2-6.16C21.25,1,19.58.3,18-.38c-1.8-.75-3.66-1.53-5.53-2.17C8.57-3.88,5.11-6.32,1.55-10.24a.28.28,0,0,1-.06-.31A.38.38,0,0,1,2-10.7c.63.43,1.25.88,1.86,1.31,3,2.15,6.18,4.37,9.87,5.44l2.1.63c-.9-.75-1.78-1.56-2.6-2.39a23.52,23.52,0,0,1-4.31-6.61.34.34,0,0,1,0-.34.46.46,0,0,1,.37-.2.35.35,0,0,1,.3.16c2.85,4.28,7.77,7.27,12.1,9.91l.86.52,1.59,1c2.08,1.26,4.05,2.45,6,3.78a37.56,37.56,0,0,0-3.47-6.91c-.23-.38-.44-.75-.66-1.12-.58-1-1.13-2-1.67-3-.95-1.74-1.93-3.54-3-5.21a37.62,37.62,0,0,1-4.16-8.16.41.41,0,0,1,.05-.4.49.49,0,0,1,.4-.22.41.41,0,0,1,.34.2,32.75,32.75,0,0,0,3.84,5c.58.65,1.17,1.32,1.72,2,1.4,1.72,2.68,3.44,3.87,5.24-.08-.42-.15-.81-.21-1.18S27-12.18,27-12.63a35.83,35.83,0,0,0-1.48-6.83c-.15-.41-.3-.82-.46-1.22a13.2,13.2,0,0,1-1.2-5,.34.34,0,0,1,.37-.36.49.49,0,0,1,.47.35,13.66,13.66,0,0,0,2,4.1c.39.6.79,1.22,1.13,1.85A22.13,22.13,0,0,1,30-12.93,38.91,38.91,0,0,0,34.94.86c.93,1.56,2,3.11,3,4.61C39.3,7.58,40.75,9.75,42,12c.32.61.63,1.23.93,1.83.46.94.94,1.92,1.49,2.85l0-.13c.12-.92.25-1.88.36-2.82A27.84,27.84,0,0,0,43.46,2a33,33,0,0,1-2.94-5.92,51.45,51.45,0,0,1-1.82-6.57,65.21,65.21,0,0,1-3-7.86c-.17-.48-.33-1-.5-1.45-.54-1.55-1.12-3-1.78-4.67-.19-.49-.37-1-.55-1.49a15.27,15.27,0,0,0-1.72-3.76.34.34,0,0,1,0-.35.34.34,0,0,1,.53-.11c.29.3.63.6,1,.91a12.84,12.84,0,0,1,1.81,1.8c0-.27,0-.53,0-.78a.38.38,0,0,1,.42-.38.44.44,0,0,1,.46.38,15.24,15.24,0,0,0,.87,3.79c0-.12,0-.23,0-.35,0-1-.06-2.1-.07-3.12,0-1.23,0-2.51-.12-3.77A53.32,53.32,0,0,0,35-38.37a.4.4,0,0,1,.07-.34.51.51,0,0,1,.39-.17.43.43,0,0,1,.42.28c1.41,3.83,1.8,7.64,2.16,12.23a45.89,45.89,0,0,0,1.15,6.56c.34,1.51.69,3.07.93,4.64.49,1.09.92,2,1.37,2.84C42.21-11,43-9.68,43.69-8.4,44.87-6.32,46.1-4.18,47.13-2q.24.53.48,1.17c.08-.77.14-1.55.2-2.3s.13-1.63.21-2.44.15-1.43.23-2.14c.19-1.73.39-3.52.54-5.28a45.67,45.67,0,0,0-.53-13.83c-.51-1.49-1.09-3-1.64-4.43-.23-.6-.45-1.2-.67-1.79a22.58,22.58,0,0,0-3.39-6.32,24.29,24.29,0,0,1-3.25-5.4.15.15,0,0,1,0-.18.22.22,0,0,1,.35,0,30.29,30.29,0,0,0,2.56,2.63c.74.72,1.5,1.45,2.2,2.23A16.07,16.07,0,0,1,45.94-38c-.12-.84-.22-1.56-.27-2.24a.41.41,0,0,1,.12-.37.49.49,0,0,1,.37-.16.48.48,0,0,1,.48.42,40.94,40.94,0,0,0,2.59,8.23c.6,1.52,1.21,3.09,1.7,4.65a32.86,32.86,0,0,1,.9,3.58c.24-1,.41-1.82.55-2.59,1-5.46-.17-10.82-1.58-16.28a.36.36,0,0,1,.06-.33.36.36,0,0,1,.28-.13.35.35,0,0,1,.32.21,43.21,43.21,0,0,1,3.09,8c.07-.64.15-1.18.22-1.69a.29.29,0,0,1,.3-.24.28.28,0,0,1,.2.08.23.23,0,0,1,.07.18c0,1.66.09,3.34.17,5,.11,2.22.23,4.5.12,6.77a27.76,27.76,0,0,1-1.24,6.06l0,.05c-.17.61-.34,1.24-.49,1.93-.14.85-.3,1.77-.51,2.67-.09.58-.18,1.17-.25,1.76A93.47,93.47,0,0,0,52.64.42a35.59,35.59,0,0,1,3.75-9.18c2.87-5.33,6-13.42,4.55-21.73a.44.44,0,0,1,.1-.37.58.58,0,0,1,.45-.2.44.44,0,0,1,.45.33,47.23,47.23,0,0,1,1.24,5.9A8.91,8.91,0,0,1,64-27.34a.34.34,0,0,1,.29-.16.31.31,0,0,1,.23.1.26.26,0,0,1,0,.23,16,16,0,0,0-.1,4.42,22.78,22.78,0,0,1,.08,3.09,28.9,28.9,0,0,1-1.16,6.8,46.88,46.88,0,0,0,3.33-7.37.44.44,0,0,1,.44-.32.57.57,0,0,1,.45.21.42.42,0,0,1,.1.39A75.45,75.45,0,0,1,65.2-9.68c-.45,1.33-1,2.67-1.45,4s-.93,2.49-1.36,3.75a29.61,29.61,0,0,1,7-3.16,11.41,11.41,0,0,0,4.52-2.41,8.26,8.26,0,0,0,1.3-1.84c.22-.35.44-.73.68-1.07a.3.3,0,0,1,.51,0,.34.34,0,0,1,0,.35c-.11.18-.23.36-.33.54a12.06,12.06,0,0,1-4,4.56C70.57-4,69-3.08,67.41-2.23L65.14-1a18.22,18.22,0,0,0-4,3,27,27,0,0,0-.73,9.55c.22,2,.52,4,.83,5.95.39,2.54.8,5.17,1,7.79a129.53,129.53,0,0,1,0,13.93c-.14,4.44-.29,42.81,0,47.31A46.66,46.66,0,0,0,64.6,98.09a39.07,39.07,0,0,0,2.26,5.31c.44.82,1,1.6,1.44,2.36a22.38,22.38,0,0,1,1.75,3s0,.06,0,.08l0,0a22.73,22.73,0,0,1,1.73,1.91c.28.35.53.73.78,1.09a9.77,9.77,0,0,0,1.54,1.91,5.34,5.34,0,0,0,2.25.88c.37.08.7.16,1,.26A8.92,8.92,0,0,1,80.72,117a13.69,13.69,0,0,1,2.39,3.52c.23.43.47.87.72,1.3a7.9,7.9,0,0,0,1.82,1,16.48,16.48,0,0,0,3.3.84,15.23,15.23,0,0,1,3.8,1,9.75,9.75,0,0,1,2.91,2.41,12.61,12.61,0,0,0,2.15,2,.27.27,0,0,1,.13.23h0a.22.22,0,0,1,.07.27.23.23,0,0,1-.26.15,17.05,17.05,0,0,1-2.93-1.17,16.6,16.6,0,0,0-3.08-1.18l-1.18.22a26,26,0,0,1-2.69.44,8.49,8.49,0,0,1-.88,0,14.33,14.33,0,0,1-4.11-.73c-.82-.25-1.63-.53-2.41-.8a29.08,29.08,0,0,0-3.81-1.17c-1.37-.3-2.78-.52-4.15-.73l-1.1-.17c.12.23.23.47.36.71.26.5.51,1,.78,1.51s.67.77,1,1.16.74.91,1.14,1.34a.42.42,0,0,1,.09.47.58.58,0,0,1-.71.31,20.91,20.91,0,0,1-3.11-1.59,11.43,11.43,0,0,0-4.62-1.31c-1.24-.17-2.5-.22-3.72-.27a25.09,25.09,0,0,1-6.52-.88,15.48,15.48,0,0,1-3-1.32c-.44.27-.92.54-1.46.83a18.86,18.86,0,0,1-7.81,2.19,11.9,11.9,0,0,1-1,.84A7.26,7.26,0,0,1,38.37,130a9.3,9.3,0,0,1-2.63-.38,19.69,19.69,0,0,1-7.11.86c-.52,0-1.06-.06-1.57-.1-.8-.06-1.63-.11-2.45-.11-.36,0-.69,0-1,0a7,7,0,0,0-3.07,1,11.65,11.65,0,0,0-2.14,2.33A.62.62,0,0,1,17.87,133.89ZM7.54,122.69a11.62,11.62,0,0,1,3.78.74l.71.26a28.87,28.87,0,0,0,3,1h0a11.31,11.31,0,0,0,3.29,1l.21,0a23.25,23.25,0,0,0,4.33.49l0,.16A10,10,0,0,0,17.7,132l-.3.49a.35.35,0,0,0,0,.33v.06s0,0,0,0v0a.58.58,0,0,0,.1.52.55.55,0,0,0,.41.23.44.44,0,0,0,.37-.21,12.09,12.09,0,0,1,2.19-2.37,7.13,7.13,0,0,1,3.16-1q.48,0,1,0c.83,0,1.66.06,2.46.11l1.57.11a19.65,19.65,0,0,0,7.07-.87h0a9.23,9.23,0,0,0,2.61.39,7,7,0,0,0,4.34-1.41,10.54,10.54,0,0,0,1-.85l0,0h0a18.52,18.52,0,0,0,7.77-2.18c.55-.29,1-.57,1.5-.84l0,0,0,0a14.66,14.66,0,0,0,3,1.32,24.38,24.38,0,0,0,6.48.88c1.22,0,2.49.11,3.73.27A11.79,11.79,0,0,1,71,128.3a23.79,23.79,0,0,0,3.08,1.58.42.42,0,0,0,.49-.22.26.26,0,0,0-.06-.3c-.41-.43-.78-.89-1.14-1.34s-.64-.79-1-1.16v0c-.27-.51-.54-1-.8-1.53l-.44-.85-.07-.15.16,0,1.28.2c1.37.21,2.78.43,4.15.72a32.23,32.23,0,0,1,3.83,1.17c.78.28,1.59.56,2.4.81A14.46,14.46,0,0,0,87,128a6.11,6.11,0,0,0,.86,0c.9-.09,1.81-.27,2.68-.44l1.2-.22h0a16.78,16.78,0,0,1,3.12,1.2,16.32,16.32,0,0,0,2.91,1.15,0,0,0,0,0,0,0,.12.12,0,0,0,0-.1l-.06-.05v-.06s0-.07-.06-.11a13,13,0,0,1-2.18-2,9.7,9.7,0,0,0-2.86-2.37,15,15,0,0,0-3.75-1,16.78,16.78,0,0,1-3.33-.85,8.51,8.51,0,0,1-1.87-1.08l0,0c-.25-.43-.5-.88-.73-1.33a13.62,13.62,0,0,0-2.37-3.47,8.59,8.59,0,0,0-3.23-2,9.83,9.83,0,0,0-1-.26,5.26,5.26,0,0,1-2.31-.92A9.56,9.56,0,0,1,72.45,112c-.24-.36-.5-.73-.76-1.07A18.81,18.81,0,0,0,70,109l0,0v0s0,0,0-.06a21.32,21.32,0,0,0-1.73-3c-.49-.77-1-1.55-1.44-2.38a36.45,36.45,0,0,1-2.28-5.33,47,47,0,0,1-2.26-11.59c-.32-4.51-.17-42.88,0-47.32a129.14,129.14,0,0,0,0-13.91c-.2-2.63-.61-5.25-1-7.79-.3-1.95-.62-4-.83-5.95A27.27,27.27,0,0,1,61,2v0h0a17.67,17.67,0,0,1,4-3c.75-.43,1.51-.85,2.27-1.26,1.55-.85,3.16-1.73,4.67-2.7a11.77,11.77,0,0,0,3.94-4.51c.11-.17.23-.36.34-.55a.2.2,0,0,0,0-.17.13.13,0,0,0-.22,0c-.24.33-.45.7-.66,1.06A9.12,9.12,0,0,1,74.06-7.4a11.57,11.57,0,0,1-4.59,2.45,29,29,0,0,0-7,3.18l-.08.06-.07.05-.21.14.09-.24c.45-1.34,1-2.69,1.45-4s1-2.65,1.44-4A75.57,75.57,0,0,0,67.59-20a.28.28,0,0,0-.06-.24.45.45,0,0,0-.33-.15.27.27,0,0,0-.27.2,49.75,49.75,0,0,1-3.44,7.58l-.38.7L63-12a28.37,28.37,0,0,0,1.46-7.71,22.38,22.38,0,0,0-.08-3.06,15.22,15.22,0,0,1,.11-4.47.15.15,0,0,0,0-.09.18.18,0,0,0-.24,0,9.28,9.28,0,0,0-.94,3h-.17a44.34,44.34,0,0,0-1.3-6.43.28.28,0,0,0-.29-.21.42.42,0,0,0-.32.14.26.26,0,0,0-.06.24C62.56-22.16,59.43-14,56.54-8.68A34.12,34.12,0,0,0,52.71.93l0,.21,0,.16-.17,0V1A95.61,95.61,0,0,1,53-12.5c.08-.59.16-1.18.26-1.77.2-.9.36-1.82.5-2.67.16-.7.32-1.33.49-1.94l0-.06a26.32,26.32,0,0,0,1.24-6c.11-2.27,0-4.55-.12-6.76-.08-1.62-.17-3.3-.17-5a.11.11,0,0,0,0-.06.13.13,0,0,0-.21.06c-.09.63-.18,1.31-.28,2.15H54.5A42.05,42.05,0,0,0,51.3-43,.18.18,0,0,0,51-43a.19.19,0,0,0,0,.18c1.42,5.48,2.61,10.85,1.59,16.35-.16.88-.36,1.8-.64,3h-.17a30.54,30.54,0,0,0-1-4c-.49-1.56-1.11-3.12-1.7-4.63a41.87,41.87,0,0,1-2.6-8.28.3.3,0,0,0-.31-.27.33.33,0,0,0-.25.11.26.26,0,0,0-.07.23c.07.8.18,1.64.33,2.65l-.16.06A14.85,14.85,0,0,0,44.3-40c-.69-.78-1.45-1.51-2.19-2.23a26.87,26.87,0,0,1-2.57-2.65.06.06,0,0,0-.08,0v0a23.79,23.79,0,0,0,3.24,5.36,23,23,0,0,1,3.41,6.37c.22.59.44,1.19.68,1.79.55,1.44,1.12,2.94,1.64,4.45A46,46,0,0,1,49-13c-.15,1.77-.34,3.56-.54,5.29-.07.71-.15,1.42-.22,2.14S48.05-3.9,48-3.1s-.14,1.79-.24,2.68l-.17,0A12.49,12.49,0,0,0,47-1.91c-1-2.2-2.25-4.34-3.43-6.4-.72-1.29-1.49-2.61-2.19-3.95-.44-.84-.88-1.75-1.37-2.86v0c-.24-1.56-.58-3.12-.92-4.64a45.93,45.93,0,0,1-1.16-6.58c-.36-4.57-.74-8.37-2.15-12.18a.25.25,0,0,0-.26-.17.34.34,0,0,0-.25.1.21.21,0,0,0,0,.2,55.9,55.9,0,0,1,1,6.67c.09,1.26.1,2.54.11,3.78,0,1,0,2.07.07,3.11,0,.28,0,.57.07.86l-.17,0-.06-.13a1.51,1.51,0,0,0-.09-.18,15.55,15.55,0,0,1-.94-4,.27.27,0,0,0-.29-.22c-.12,0-.25.06-.25.21,0,.33,0,.68,0,1.05l0,.29-.17-.24a11.42,11.42,0,0,0-2-2c-.36-.32-.7-.62-1-.92a.15.15,0,0,0-.25.07.14.14,0,0,0,0,.17A15.84,15.84,0,0,1,33-26c.17.48.35,1,.54,1.47.63,1.58,1.24,3.13,1.78,4.69.17.48.34,1,.5,1.44a66.68,66.68,0,0,0,3,7.87A49.85,49.85,0,0,0,40.68-4a33.19,33.19,0,0,0,2.93,5.91v0a28.06,28.06,0,0,1,1.32,11.86c-.11,1-.25,1.9-.37,2.82l-.08.6-.13-.2c-.6-1-1.12-2-1.63-3.06-.29-.6-.6-1.23-.92-1.83-1.21-2.26-2.65-4.44-4.05-6.54-1-1.5-2-3-3-4.62A39.19,39.19,0,0,1,29.87-12.9a22,22,0,0,0-2.21-6.78c-.34-.62-.74-1.25-1.13-1.84a14.11,14.11,0,0,1-2.05-4.15.33.33,0,0,0-.3-.23.18.18,0,0,0-.2.2,13,13,0,0,0,1.2,5l.45,1.22a36.42,36.42,0,0,1,1.49,6.87c.06.44.13.89.2,1.33s.17,1,.28,1.6l-.16.06a61.86,61.86,0,0,0-4.1-5.58c-.54-.67-1.13-1.35-1.71-2a32.08,32.08,0,0,1-3.86-5,.23.23,0,0,0-.19-.11.36.36,0,0,0-.26.14.28.28,0,0,0,0,.25,37.81,37.81,0,0,0,4.15,8.13c1.12,1.68,2.1,3.48,3.05,5.22.53,1,1.09,2,1.66,3,.22.37.45.75.66,1.12a36,36,0,0,1,3.57,7.2l.08.24-.21-.15c-2-1.39-4-2.62-6.17-3.93q-.8-.47-1.59-1l-.85-.52c-4.36-2.65-9.29-5.65-12.16-10a.19.19,0,0,0-.16-.08.29.29,0,0,0-.22.12.15.15,0,0,0,0,.17,23.37,23.37,0,0,0,4.27,6.56,36.76,36.76,0,0,0,2.93,2.67L16.2-3c-.75-.24-1.57-.49-2.51-.76C10-4.87,6.83-7.1,3.78-9.25L1.91-10.56a.21.21,0,0,0-.26.08.12.12,0,0,0,0,.13C5.21-6.46,8.65-4,12.5-2.71c1.87.64,3.73,1.42,5.53,2.17,1.62.68,3.28,1.38,5,2a50.41,50.41,0,0,1,8.24,6.21c.17.23.31.45.46.67.41.62.83,1.25,1.26,1.84a37.2,37.2,0,0,1,3.24,5.14,45.79,45.79,0,0,1,4.19,12,57.85,57.85,0,0,1,1.15,12.6c0,1.37-.13,2.79-.22,4.17a56.48,56.48,0,0,0-.18,7.58v0c-.46,1.38-.83,36.67-1.16,38.54,0,.17-.07.33-.09.5l-.06.33-.12.24c-.43.83-.81,1.62-1.18,2.41-1.06,2.28-1.92,4.67-2.75,7-.63,1.73-1.27,3.52-2,5.25a51.32,51.32,0,0,1-3.5,6.52c-.57.94-1.15,1.9-1.7,2.88l-1.31,2.38,0,0H27.2a20.39,20.39,0,0,0-4.28,1.15,11.43,11.43,0,0,1-4.32.78,26.35,26.35,0,0,1-2.79-.18l-.26,0a23.85,23.85,0,0,0-2.46-.19,6.59,6.59,0,0,0-3.17.73H9.87a8.55,8.55,0,0,0-2.65.12,5.83,5.83,0,0,0-3,1.66,6.57,6.57,0,0,0-1.37,2.71c-.07.23-.14.46-.22.69a.25.25,0,0,0,0,.23.26.26,0,0,0,.21.11.22.22,0,0,0,.2-.14A4.49,4.49,0,0,1,7.54,122.69Z"/><path class="cls-10" d="M26-19.83c2.15,5.4,2.25,11.4,4.52,16.77.77,1.83,1.66,3.65,2.61,5.44a.26.26,0,0,0,0,.27l.3.51C35.12,8.35,38.31,13.24,40.9,18a.09.09,0,0,0,.17-.07,38.2,38.2,0,0,0-1.9-4.77c.9,1.74,1.8,3.47,2.77,5.18.07.12.22.05.26-.06a39.6,39.6,0,0,1,1.29,5.62.22.22,0,0,0,.43,0,21,21,0,0,0-.49-4.4c.17.32.33.64.5.95a.29.29,0,0,0,.14.13,32.64,32.64,0,0,1,1.44,6.39.16.16,0,0,0,.31,0,36.08,36.08,0,0,0-.94-6.6c.44,1.3.86,2.6,1.26,3.92a.07.07,0,0,0,.13,0l0-.4c.08.31.17.62.26.91s.46.14.41-.09a17.09,17.09,0,0,1-.27-6.45,24.82,24.82,0,0,0,.46-5.83c0-.13-.2-.1-.2,0a38.74,38.74,0,0,1-1,6.16c0-1.11,0-2.22.1-3.34a40.28,40.28,0,0,0,.22-4.66C46.08,7.07,44.58,4,43.19.93c0-.09-.18,0-.15,0,1.24,3.5,2.33,7,2.09,10.76-.11,1.64-.41,3.43-.44,5.16A60.66,60.66,0,0,0,40.5,9.5C38.43,6.16,36.33,2.84,34.41-.57a47,47,0,0,1-4.57-12.66c-.9-3.79-2.73-7-4.32-10.49-.05-.12-.25-.08-.23,0a26.09,26.09,0,0,0,1.82,5.27,42.52,42.52,0,0,1,2,6.52c.09.4.19.79.29,1.18h-.05c-.16-.69-.32-1.38-.5-2.07a38.44,38.44,0,0,0-2.58-7.13C26.17-20,26-20,26-19.83ZM38.86,9.68c.28.5.57,1,.84,1.54.88,2.26,1.73,4.49,2.43,6.79-.86-1.89-1.69-3.88-2.56-5.87l.37.54c.1.12.33,0,.25-.14C39.69,11.61,39.27,10.64,38.86,9.68Z"/><path class="cls-11" d="M10.29-11.53l.28.38c-.18-.31-.34-.61-.49-.92-.06-.13.15-.24.23-.12A22.36,22.36,0,0,0,14.8-7.26a34,34,0,0,0,5.38,4.1c.88.52,1.77,1,2.66,1.5,1.25.62,2.49,1.25,3.67,2l0,0a31.47,31.47,0,0,1,4.81,3.29.18.18,0,0,1-.18.3c-.25-.1-.5-.21-.74-.33.46.42.93.83,1.43,1.21a.09.09,0,0,1,0,.14c.23.2.45.41.66.62a18.58,18.58,0,0,1,3.1,4.68c.06.11-.13.21-.21.11a27.2,27.2,0,0,0-4.13-5c-.93-.84-1.88-1.63-2.76-2.51-1-.68-2-1.35-3.09-2-2-1.19-4.19-2.09-6.21-3.31-3.74-2.27-7.42-4.86-9.33-8.91C9.83-11.55,10.16-11.72,10.29-11.53Z"/><path class="cls-12" d="M37.72-21.75c0,.14.06.26.1.4-.29-2.53-.29-5.08-.45-7.63-.21-3.46-1.45-6.71-1.85-10.15,0-.19.27-.23.3,0a24.94,24.94,0,0,0,1.89,4.9,16,16,0,0,1,1,4.46c.37,3.43.21,6.83.81,10.25A32.5,32.5,0,0,0,43.3-9.33a45.92,45.92,0,0,1,2.36,4.77c.22.44.42.9.62,1.36a23,23,0,0,1,2.49,8.13c0,.12-.17.17-.2.05a30.9,30.9,0,0,0-1.21-3.55A5.83,5.83,0,0,1,47,.74c.2.48.39,1,.57,1.43a.11.11,0,0,1-.2.08s0,0,0,0a31.85,31.85,0,0,1,.77,8.63c0,.13-.23.13-.24,0a38,38,0,0,0-.63-5.37L47,5.14a22.76,22.76,0,0,1,0,2.61c0,.08-.16.1-.18,0-.65-2.38-.94-4.86-1.48-7.28a17.61,17.61,0,0,0-.84-2.3C44-3.06,43.31-4.25,42.66-5.44c.58,1.53,1.21,3.06,1.78,4.63a.15.15,0,0,1-.27.11c-1.38-2.85-3.05-5.55-4-8.51a30.38,30.38,0,0,1-1.4-4.27,48.92,48.92,0,0,1-1.16-8.25A0,0,0,0,1,37.72-21.75Z"/><path class="cls-13" d="M49.66,5.5c0,.09.22.1.22,0a12.6,12.6,0,0,1,.44-2.61.28.28,0,0,0,.12-.12A10.79,10.79,0,0,0,51,.37c-.06,1.32-.16,2.63-.32,4a.16.16,0,0,0,.31,0c.18-.77.32-1.54.44-2.31a65.72,65.72,0,0,1-1.3,6.88c0,.05.08.07.08,0,1-3.15,2.24-6,2.34-9.35a85.11,85.11,0,0,1,.47-10c.26-1.67.62-3.34.82-5s.25-3.53.6-5.25A58,58,0,0,0,55.7-31.44a.22.22,0,0,0-.36-.18c-.07-1-.18-2.07-.3-3.1a.1.1,0,1,0-.2,0c0,1.8,0,3.61.12,5.41,0,.21-.07.41-.1.62a28.07,28.07,0,0,0-.2-3.16,25.37,25.37,0,0,0-1.18-5.73,41.51,41.51,0,0,1-2-5.95.17.17,0,0,0-.34,0,17.46,17.46,0,0,0,1.24,5.64,28.3,28.3,0,0,1,1.25,6.12c.07.64.11,1.27.14,1.91a29.82,29.82,0,0,0-.88,6.45c-.17,2.68-.48,5.32-.88,8S51.1-9.69,50.84-6.8a33.09,33.09,0,0,1,1-10.76c0-.09-.13-.13-.16,0a25.54,25.54,0,0,0-1.8,9.92A63.9,63.9,0,0,1,50.19.61c-.08.47-.17.94-.28,1.41C49.64,3.08,49.11,4.45,49.66,5.5Zm3.93-29.67a33.51,33.51,0,0,1,.23-4.49A42.06,42.06,0,0,1,53.59-24.17Z"/><path class="cls-14" d="M57-3.73c.39-.73.8-1.46,1.18-2.21A20.1,20.1,0,0,0,56.11-.33a.14.14,0,0,0,.28,0,28.77,28.77,0,0,1,3-6.82c-.65,1.74-1.35,3.46-2,5.2a.31.31,0,0,0,0,.27,45.72,45.72,0,0,0-1.74,4.46c-.06.17.2.28.26.11A42.19,42.19,0,0,1,57.64-.94l-.27.73a15.38,15.38,0,0,0-1.26,6.34.07.07,0,0,0,.13,0A24.18,24.18,0,0,1,58-1.23c1-2.12,2-4.2,3-6.32a.14.14,0,0,0,0-.14,18.09,18.09,0,0,0,1-1.92,18.71,18.71,0,0,0,3.13-8.45c.34-4-1.3-7.84-.37-11.84,0-.17-.19-.2-.27-.08-1.89,3.21-.46,7.18-.65,10.66a15.77,15.77,0,0,1-1,4.71c.13-.53.24-1.06.32-1.61a.22.22,0,0,0-.2-.27,26.36,26.36,0,0,0-.15-8.65.11.11,0,0,0-.21,0,46.76,46.76,0,0,1-.76,9.9c.08-.51.15-1,.2-1.55a.12.12,0,0,0-.23,0,29.16,29.16,0,0,1-2.8,7.64c.55-1.59,1-3.19,1.44-4.82,0-.13-.19-.19-.24-.07C58.54-9.4,56.44-4.84,55.35,0c0,.1.14.14.17.05.44-1.21.9-2.42,1.36-3.62A.71.71,0,0,0,57-3.73Zm4.43-10c-.07.29-.13.58-.21.86s-.18.67-.27,1l-.39.88A26.41,26.41,0,0,0,61.44-13.78Z"/><path class="cls-15" d="M58.15,5.27c.15-.62.32-1.23.5-1.83a.27.27,0,0,0,.29.07,14.1,14.1,0,0,0,0,4.49.15.15,0,1,0,.3,0A20.94,20.94,0,0,1,61.51-.62,31.21,31.21,0,0,0,65-8.1c1.1-4.16,2.51-8.43,2.36-12.77,0-.18-.28-.17-.3,0a82.92,82.92,0,0,1-2.7,10.64c-.1.23-.19.46-.3.68s-.5.57-.74.86a6.08,6.08,0,0,0,.87-3.1c0-.1-.14-.09-.16,0-.44,2-1.79,3.73-2.51,5.67l-.12.33a40.74,40.74,0,0,0-3.56,11C57.84,5.4,58.1,5.43,58.15,5.27ZM61.7-3.47c.3-.77.61-1.53,1-2.27s.64-1.31,1-2l.08-.11a26.67,26.67,0,0,1-1.42,3.56l0,0C62.07-4,61.88-3.73,61.7-3.47Z"/><path class="cls-16" d="M10.83,122.15c-.16-.1,0-.35.18-.28A44.32,44.32,0,0,0,18,124.26a33.58,33.58,0,0,1-4.45-1.81.27.27,0,0,1,.22-.49,19.12,19.12,0,0,0,7.45,1.43,8.32,8.32,0,0,1-3-.91.22.22,0,0,1,.12-.42,32.28,32.28,0,0,0,5.11,0,12.17,12.17,0,0,0,2.74-.66l.16-.06c-1.59-.09-3.19,0-4.78-.12a.16.16,0,0,1,0-.32,13.34,13.34,0,0,0,2.95-.41,3,3,0,0,1,2-.86,6.69,6.69,0,0,1,2,0s0,0,0,0c-.41,0-.82-.08-1.21-.08a23.71,23.71,0,0,0-4.05.31c-.18,0-.2-.22,0-.25,1.12-.24,2.5-.72,3.89-1-.13,0-.27,0-.4,0s-.22-.21-.07-.26a8.19,8.19,0,0,1,3-.31,64.26,64.26,0,0,0,3.07-6.16c.81-1.62,1.87-3.1,2.8-4.66a26.69,26.69,0,0,0,2.64-6.54c1.21-4.21,2.11-8.48,3.18-12.72.54-2.11,1.08-38,1.35-40.17s.29-4.58.65-6.85a.05.05,0,0,1,.1,0c-.16,2.32.05,4.62,0,6.93s-.46,38.42-1,40.71c.24-.69.47-35.18.69-35.89.13-1.14.21-2.29.27-3.44.25-4.92.27-9.79.72-14.7,0-.12.23-.12.23,0,0,2.8.21,5.6.37,8.39.21-4.25.5-8.51.54-12.76,0-.15.23-.18.23,0,.08,5.07.71,10.09.63,15.18s-.3,43.95-1.65,48.91a74.7,74.7,0,0,1-5.36,13.28,60.39,60.39,0,0,1-2.85,5.33c-.17.35-.37.7-.56,1A15,15,0,0,1,34.47,117a16,16,0,0,1,4-.38.18.18,0,0,1,0,.35q-.46.09-.9.21a.17.17,0,0,1-.13.19,9.59,9.59,0,0,0-2.63,1,25.37,25.37,0,0,1,3-.05.13.13,0,0,1,0,.26c-1.89.45-3.51.38-4.9,1.9-.51.55-1.08,1.13-1.79.87l-.36.2a7.17,7.17,0,0,1,3.13,0c.19,0,.21.34,0,.35a11.24,11.24,0,0,0-5.41,1.62,8.22,8.22,0,0,0-2.21,1.57c-.17.2-.3.38-.43.56a.59.59,0,0,1-.3.56,12.69,12.69,0,0,1,2.2.48c.09,0,.06.18,0,.18a24.27,24.27,0,0,0-6.4.87c-.11,0-.22-.08-.13-.18A4.06,4.06,0,0,1,23,126.51a.24.24,0,0,1,0-.4c.06,0,.13-.09.18-.14a4.52,4.52,0,0,1-1,.23C18,126.65,14.15,124.16,10.83,122.15Z"/><path class="cls-17" d="M54.11,33.61c0-1.15.08-2.31.14-3.47,0-.72-.08-1.45-.11-2.18-.27-6.73-.67-13.62.71-20.27,0-.16.29-.13.26,0a51.8,51.8,0,0,0-.26,10.65c.24-3.59.57-7.16,1.06-10.75,0-.17.28-.13.26,0a137.77,137.77,0,0,0-.57,18c0,1.25,0,2.49-.05,3.74.32,6.79,1.05,13.57.47,20.37-.06,2.56-.29,38.92.11,41.47,0,.25-.32.28-.38,0-.46-2.28-.42-38.38-.31-40.69a.24.24,0,0,1,0-.08c-.13-3-.32-6-.5-8.95l-.09,1.32a.26.26,0,0,1-.17.25,39.74,39.74,0,0,0,.22,8.44c0,.24-.33.28-.38,0a29.25,29.25,0,0,1-.61-6.34C52.91,41.43,53.5,37.51,54.11,33.61Z"/><path class="cls-18" d="M59.33,97.57a28.63,28.63,0,0,0,5.83,11c.16.2.33.38.49.57-.21-.18-.41-.36-.62-.56a31.39,31.39,0,0,1-4.82-6.13c-.15-.23-.56,0-.43.23a29.47,29.47,0,0,0,7,8.92,9,9,0,0,1-3.17-2.48.17.17,0,0,0-.3.16,7.34,7.34,0,0,0,3.07,3.22l1,.62a9.42,9.42,0,0,0-1.74.75.15.15,0,0,0,.14.26,6.33,6.33,0,0,1,2.34-.6l.35.17a6.68,6.68,0,0,0-3.13.91c-.13.07,0,.28.12.22a5.55,5.55,0,0,1,2.93-.5,6.2,6.2,0,0,0-3,1.4c-.25.21,0,.62.3.42,2.09-1.49,4.3-1.12,6.36-.17a6.38,6.38,0,0,0-2.9,2.29.11.11,0,0,0,.15.16,11.47,11.47,0,0,1,4.23-1.67l.33.19c-1,.52-2,1.23-3.06,1.68-.15.07-.1.32.07.28,1.15-.25,2.18-.67,3.19-.92a7.51,7.51,0,0,0-3,1.71c-.11.11,0,.32.16.21a6,6,0,0,1,4.85-1.15,4,4,0,0,0-2.18,1.86c-.09.16.15.27.25.16,1.56-1.68,3.55-1.59,5.48-.74,1.47,1.06,3.07,2.32,3.33,4.11-.38.09-.75.2-1.11.31-.16,0-.09.26.06.26,1,0,1.89-.06,2.81-.05.28.1.57.2.86.28-.87.17-1.72.37-2.58.53a.09.09,0,0,0,0,.18c1.46-.12,2.87-.27,4.27-.32l.42.06a13.33,13.33,0,0,1-2.92.5.09.09,0,0,0,0,.17,57,57,0,0,0,6.41-.3,8.27,8.27,0,0,1,5.43,3.21c0,.05.12,0,.08-.06a3.41,3.41,0,0,0-.37-.48,14.32,14.32,0,0,0,1.4,1.18s.12,0,.07-.08c-1.7-1.6-2.9-4.36-5.21-5.22a9.36,9.36,0,0,0-3.59-.54,11.65,11.65,0,0,0-2.51-.17l-.39-.1A7.76,7.76,0,0,0,84.83,122a.57.57,0,0,0-.11-.42c-1.71-2.23-4.07-5.44-7-6.2a18.73,18.73,0,0,0-2.33-1.94,11.19,11.19,0,0,0-3-3.08.9.9,0,0,0-.21-.08c-1.22-1.56-2.31-3.21-3.56-4.77a39.49,39.49,0,0,1-3.86-9.43c-1.22-4.64-1.58-43.15-1.55-47.94,0-2.64.1-5.29.14-7.94a29.29,29.29,0,0,0-.18-5.77,64.71,64.71,0,0,0-.1-10.6,48.53,48.53,0,0,0-1.32-8.63c-.08-.32-.17-.63-.25-1-.71-4.79-1.15-9.71,2.69-13C66-.43,68.21-1.6,70.23-3A19,19,0,0,0,74.8-7.81c.07-.1-.07-.22-.15-.12C72.91-5.8,70.07-4.5,67.77-3c-.69.43-1.39.86-2.08,1.32L67.11-3c.07-.06,0-.2-.09-.16A10.21,10.21,0,0,0,62.29,1c-.13.13-.24.26-.36.4A8,8,0,0,1,63.38-.91c.08-.09-.06-.24-.15-.15a9,9,0,0,0-2.68,4.58,9,9,0,0,0-.63,1.63c0-.16-.27-.21-.29,0a29.33,29.33,0,0,0,.1,5.7A54.5,54.5,0,0,0,61,19.25c.17,1.14.33,2.29.43,3.44.07.69.11,1.39.15,2.08-.11-1.1-.24-2.19-.43-3.25-.49-2.75-1.68-5.31-1.86-8.11,0-.11-.16-.09-.17,0,0,2.8,1.17,5.4,1.28,8.17,0,1.19.13,2.37.21,3.54-.65-3-1.55-6-2-9.07a.26.26,0,0,0-.52.06c.51,4.54,2,9,2.2,13.53.07,2.11-.15,4.21-.16,6.31-.56-4.53-1.46-9-1.74-13.57,0-.23-.35-.18-.35,0,.08,5.35,1,10.63,1.38,16,.19,2.5-.16,5,.13,7.52.07.69.17,1.37.28,2.05,0,2.92.12,39.65.54,42.55-.3-.94-.61-1.86-.91-2.79-.18-8.3-.87-50.37-2.06-58.6a.19.19,0,0,0-.37,0c.64,7.05.86,14.14,1.42,21.2-.44-2.8-.81-5.61-1-8.44,0-.13-.21-.11-.2,0,.33,6.86,1.24,47.46,2.92,54.12.06.26.48.23.43,0l-1.05-5.7c0-.39,0-.79,0-1.19,1.13,4.48,2.05,9.18,4.29,13.23a18.54,18.54,0,0,0,2.36,4.07c1.12,1.44,2.37,2.81,3.64,4.15.14.18.27.35.41.51l-.5-.31a34.62,34.62,0,0,1-7.23-9.85c-.14-.27-.56-.12-.45.17a31.42,31.42,0,0,0,2.08,4.14,28.34,28.34,0,0,1-4.36-7.82C59.62,97.18,59.26,97.33,59.33,97.57Zm1.93-61.75c0,.51,0,1,0,1.52v-.58C61.25,36.45,61.26,36.13,61.26,35.82Zm31.65,89.94a.34.34,0,0,0,.25-.11l.31.22c.38.29.73.61,1.08.93A10.53,10.53,0,0,0,92.91,125.76Zm-22.63-12,.06-.06a9.1,9.1,0,0,1,1,.27C71,113.88,70.64,113.8,70.28,113.75Z"/><path class="cls-19" d="M19.08,132c.91-2.19,4.22-1.73,6.14-1.7a27.94,27.94,0,0,0,3.29-.14c1.9.29,4.47.34,5.78-.37a.35.35,0,0,0,.22,0,1.16,1.16,0,0,0,.48-.41,10.8,10.8,0,0,0,5.41.16,3.93,3.93,0,0,0,2.4-1.39.37.37,0,0,0,.23,0,3.25,3.25,0,0,0,.85-.47,9.62,9.62,0,0,0,3.48-.68,9,9,0,0,0,1.16-.44c.69-.28,1.37-.56,2-.8a7.7,7.7,0,0,1,2.52-.7,13.19,13.19,0,0,1,2.24.42,3.83,3.83,0,0,0,2.4-.33.09.09,0,0,0,0-.18,4.14,4.14,0,0,1-.79-.06.15.15,0,0,0,0-.28c-1.48-.67-3-1.57-4.56-1.46a11.1,11.1,0,0,1-2.86-1.89,11,11,0,0,1-1.94-3.65l.09-.07a15,15,0,0,1,1.82-1.92,18.13,18.13,0,0,1,2-1.34c.23-.14,0-.48-.21-.39-.49.19-1.15.42-1.8.71.81-1.16,1.6-2.32,3.2-2.34.26,0,.26-.42,0-.46a4.14,4.14,0,0,0-2.38.21s0-.06,0-.09a.55.55,0,0,0,.35-.64.26.26,0,0,0,.11-.14.24.24,0,0,0,0-.08l.08-.07s0,0,.07,0a8,8,0,0,1,4.78,1.78,18.76,18.76,0,0,0-3.59-.18c-.36,0-.38.61,0,.63a13.11,13.11,0,0,1,3.94.59,5.48,5.48,0,0,1,1.34.73l.3.44a7.73,7.73,0,0,0-6-.09c-.15.07-.11.32.07.3a9.82,9.82,0,0,1,3,.11A11.05,11.05,0,0,0,49.73,118a.15.15,0,0,0,.18.24,11.08,11.08,0,0,1,6.53-2,7.06,7.06,0,0,0-6.33,3.08.19.19,0,0,0,.3.24,5.71,5.71,0,0,1,4.39-2A7.07,7.07,0,0,0,52.61,119c-.1.11.07.29.19.2a7.33,7.33,0,0,1,5.29-1.33c.56.11,1.12.24,1.66.37a7.48,7.48,0,0,0-4.94,1.64.15.15,0,0,0,.18.25,6.55,6.55,0,0,1,5.61-.85,8.53,8.53,0,0,0-4.89,3.7c-.17.3.28.51.5.3a8.63,8.63,0,0,1,2.24-1.63,4.31,4.31,0,0,0-.51,1.08c0,.15.16.31.26.16A4.33,4.33,0,0,1,63,121a12.18,12.18,0,0,0-3.78,1.24c-.14.08-.11.34.08.3a24.44,24.44,0,0,1,4-.6A3.71,3.71,0,0,0,61.89,123c-.11.11,0,.27.16.22a6.31,6.31,0,0,1,3.42-.27,1.71,1.71,0,0,0-1.76,1.2.14.14,0,0,0,.23.14c1.43-1.88,4.81,1.31,6.22,2h0a14.58,14.58,0,0,0,6.86,3.23c.17,0,.21-.22,0-.27a12,12,0,0,1-2.43-.92.45.45,0,0,0-.08-.47c-.7-.65-1.7-1.62-2.85-2.59l-.54-.68-.31-.48a5.17,5.17,0,0,1,.8-.36c.92-.28,2.09-.61,2.93,0a.15.15,0,0,0,.2-.23,4.31,4.31,0,0,0-1.24-.73,14.43,14.43,0,0,1,3,.52c.17,0,.2-.19.08-.26-2-1.16-4.87-1.75-6.75-.35l-.21-.26a3.58,3.58,0,0,1,.41-.35,9.3,9.3,0,0,0,1.42-1.17c.14-.15-.09-.39-.26-.26a20.12,20.12,0,0,1-2,.9,1.13,1.13,0,0,0-.2.13l-.09-.1a9.57,9.57,0,0,0-3.42-2.93,15.83,15.83,0,0,0-1.29-.94,3.7,3.7,0,0,1,2,.05c.15,0,.26-.2.13-.28A3,3,0,0,0,64,117.1l-.37.08.09,0a6.4,6.4,0,0,1,2.43-.24.12.12,0,0,0,0-.23,7.8,7.8,0,0,0-3.39.19l-.33-.18a14.93,14.93,0,0,0-3.18-5.91,15.48,15.48,0,0,0-.65-1.44c-.33-1.08-.65-2.18-1-3.32-1-3.76-2.39-7.48-2.82-11.39,0-.11-.19-.08-.17,0,.15,3.88,1.24,7.43,2.15,11.14,0-.12-.09-.23-.13-.34-.93-2.52-1.81-5.07-2.58-7.63,0-.06-.12,0-.11,0,.63,2.68,1.22,5.42,2,8.07a4.72,4.72,0,0,0-.67-.59,27.2,27.2,0,0,1-1.51-4.19c0-.16-.3-.09-.28.07a22.32,22.32,0,0,0,.67,3.33,2.35,2.35,0,0,0-.29-.26.29.29,0,0,0-.49.21l-.33,0,.09,0c.2,0,.18-.36,0-.34a6.78,6.78,0,0,0-1.95.6,2.48,2.48,0,0,1,1.37-.81c.17,0,.21-.32,0-.33a2.69,2.69,0,0,0-1.5.38c-.1-1.14-.22-2.26-.31-3.32-.3-3.78-.74-7.71-.22-11.48a.08.08,0,1,0-.16,0,35.45,35.45,0,0,0-.67,11c.1,1.64.23,3.27.3,4.91l-.1.15a23.43,23.43,0,0,0-.47-5c0-1.32,0-2.64,0-4,.15-5.84.5-45.47,1-51.3s1.41-11.56,1.7-17.35a29.15,29.15,0,0,0-.61-7.68C51,17,50.36,14,51.06,11.13c0-.12-.18-.18-.22-.06-1.67,5.32.22,10.73-.2,16.2-.35,4.5-1,9-1.46,13.47.18-2.33.38-4.65.54-7a99.68,99.68,0,0,0-.34-15.55.12.12,0,0,0-.24,0,92.6,92.6,0,0,1-.41,10.51c0-2.16-.11-4.33-.26-6.5,0-.18-.29-.15-.28,0,.24,5.51-.44,11-.52,16.58-.35,3.79-.58,7.58-.82,11.41-.16,2.63,0,39.07-.3,41.69-.27,2.4-1,4.74-1.13,7.14l0,.51a40.84,40.84,0,0,1-1.08,4.15,30.75,30.75,0,0,0-1.19,3.88c-.3.42-.62.83-.93,1.25a4.14,4.14,0,0,0-1.37,1.65.17.17,0,0,0,0,.17l-.07.11A.14.14,0,1,0,41,111q.16-.19.36-.39a15,15,0,0,1,1.75-.87c0,.07,0,.12,0,.18a3.52,3.52,0,0,0-.81.55.22.22,0,0,0,.21.38,6.35,6.35,0,0,1,1.39-.28.15.15,0,0,1-.05.07,1,1,0,0,1-.11.2h-.19c-1.94,0-3.5.47-4.47,2.22-.09.16.16.29.27.16A4.28,4.28,0,0,1,42.7,112a4.58,4.58,0,0,0-.48.59,1,1,0,0,0-.08.14A8,8,0,0,0,39.73,114c-.18.14,0,.4.21.29a5.86,5.86,0,0,1,2.87-.78.5.5,0,0,0,.27.34c1.13.58,2.75,1,3.36,2.16a3.74,3.74,0,0,0-.9-.68,6.41,6.41,0,0,0-4.3-.29.25.25,0,0,0,.06.5,5.8,5.8,0,0,1,3.68.7,2.41,2.41,0,0,1,.76.85,3.63,3.63,0,0,0-3-.65.16.16,0,0,0,0,.31,3.17,3.17,0,0,1,3.16,1.63,9.43,9.43,0,0,1,.76,2.14,5.07,5.07,0,0,0-3.46-2.65.22.22,0,0,0-.11.42,4.92,4.92,0,0,1,3.12,4,2.53,2.53,0,0,1-1.38,2.88,7.77,7.77,0,0,0-2.62-4.77c-.12-.1-.24.07-.14.17A6,6,0,0,1,44,124.13a4,4,0,0,1-.05,1.35.5.5,0,0,0-.1.14l-.26.09c-.07-1.76-1.56-3.6-2.93-4.58a8,8,0,0,0-5.79-1.58.14.14,0,1,0,0,.27,6.9,6.9,0,0,1,3.59,1c-1.6-.44-3.1-.25-3.95,1.43-.1.2.2.31.3.13,1.05-1.71,3.63-.65,4.88.2a8,8,0,0,1,1.88,1.64l.11.23c-1.18-1.64-3.47-3.11-5-2.25-.13.07,0,.25.11.25A5.06,5.06,0,0,1,40.18,124a4,4,0,0,1,1.12,1.59c.16.59-.08.89-.28,1.4a.44.44,0,0,0,0,.25l-.42.16a5.48,5.48,0,0,0-1.48-3.13c-.12-.12-.35.09-.23.21A4.66,4.66,0,0,1,40,126.38a1.49,1.49,0,0,1-.5,1.84l-.72,0a23.69,23.69,0,0,1-2.41-.27c.55-1.69-2-3.38-3.35-3.79-.16,0-.26.17-.1.23a4.75,4.75,0,0,1,2.13,1.45,3.49,3.49,0,0,1,.63,1.09,2.72,2.72,0,0,1,0,1h-.39c-.15-1.72-3-3-4.28-3.45-.2,0-.34.24-.13.31a7.31,7.31,0,0,1,2.43,1.44,3.27,3.27,0,0,0-.53,0,.48.48,0,0,0-.21.07,4.49,4.49,0,0,0-.81-.17,3.43,3.43,0,0,0-.82-.51c-.16-.07-.25.17-.1.25a1.49,1.49,0,0,1,.86,1.43c-.09.54-.67.69-1.1.94a.48.48,0,0,0-.11.09,27,27,0,0,1-5.66.64c-2.29,0-5.56.27-6.11,3C18.74,132.09,19,132.17,19.08,132Zm33.63-21.63a3.27,3.27,0,0,1,2.16.24c.58.29,1.13.63,1.7.92l0,0,.63.83-.57-.46A7.85,7.85,0,0,0,52.71,110.37Z"/><path class="cls-20" d="M19.9,128.91a13,13,0,0,0,1-1s.06,0,0,0a4.79,4.79,0,0,1-1,1C19.91,129,19.84,129,19.9,128.91Z"/><path class="cls-21" d="M91.56,124.5a6,6,0,0,1,1.19.4c-.22-.06-.44-.1-.66-.14A5.2,5.2,0,0,0,91.56,124.5Z"/><path class="cls-22" d="M53.66,110.31c-.14,0-.11-.2,0-.19,3.77.1,7.39,3.46,8.24,7.15a5.78,5.78,0,0,1,1.61,1.31,4.13,4.13,0,0,1,3.39,1.94,5.32,5.32,0,0,1,2.71,2.57,4.33,4.33,0,0,1,2.1,1.73.3.3,0,0,1-.25.46l.52.61a14.54,14.54,0,0,0,3.89,3.85c.09,0,0,.17-.07.15a6.45,6.45,0,0,1-3-2.25,16.13,16.13,0,0,0-6.3-3.54s0-.08,0-.07a13.78,13.78,0,0,1,3.27,1,5.33,5.33,0,0,0-3.45-1.11.1.1,0,0,1,0-.19,4.21,4.21,0,0,1,2-.16c-.12-.08-.24-.15-.35-.24a4.46,4.46,0,0,0-2,0,.13.13,0,0,1-.07-.25,5.76,5.76,0,0,1,1-.26l-.23-.09a6.41,6.41,0,0,0-3.58.08c-.16,0-.2-.21-.07-.27a7,7,0,0,1,3.43-.57,6.49,6.49,0,0,0-4.61-.8c-.19,0-.27-.28-.09-.33a6.18,6.18,0,0,1,1.4-.22,7.21,7.21,0,0,0-4.35.66.12.12,0,0,1-.14-.2,7.6,7.6,0,0,1,4.82-1.29c-.15-.15-.31-.29-.48-.44h0c-.24-.05-.5-.08-.74-.11a.26.26,0,0,1-.27,0h0a14.77,14.77,0,0,0-3.33.17c-.18,0-.2-.22,0-.26.77-.16,1.69-.35,2.62-.45a5.58,5.58,0,0,0-1.46-.82,8.3,8.3,0,0,0-2.84-.38.13.13,0,1,1,0-.26,8.4,8.4,0,0,1,2.51-.06,8,8,0,0,0-5.22-.23.12.12,0,0,1-.09-.22,9.12,9.12,0,0,1,5.89-.19,15.87,15.87,0,0,0-.95-1.66,5.71,5.71,0,0,0-2.82-2.17.14.14,0,0,1,.07-.26,5.65,5.65,0,0,1,2.75,1.7,9.36,9.36,0,0,1,1.77,2.66l.1,0C59.68,113.62,57.22,110.69,53.66,110.31Z"/><path class="cls-23" d="M48.8,109.59a6,6,0,0,1,8.47.19,5.92,5.92,0,0,1,1.8,1.71c.07.1-.07.26-.17.16-2.2-2.05-4.6-2.89-7.5-1.83a.18.18,0,0,1-.17-.31,3.84,3.84,0,0,1,2.58-.84,6,6,0,0,0-4.92,1S48.76,109.64,48.8,109.59Z"/><path class="cls-24" d="M48.84,108.06a5.5,5.5,0,0,1,7.63.29c.13.16-.07.41-.24.31-2.39-1.29-4.76-2.18-7.22-.42C48.9,108.32,48.73,108.16,48.84,108.06Z"/><path class="cls-25" d="M50.51,106.56a3.68,3.68,0,0,1,2-.67,3.65,3.65,0,0,0-1.95-.1c-.13,0-.27-.14-.12-.22,1.44-.87,3.5-.23,4.77.71a.2.2,0,0,1,0,.26,8.36,8.36,0,0,1,1.83,1.19.11.11,0,0,1-.12.18c-.85-.4-1.68-.84-2.57-1.16a6,6,0,0,0-3.75.15A.19.19,0,0,1,50.51,106.56Z"/><path class="cls-26" d="M40.18,114.43c.94-1.52,3.22-1.37,4.89-.75-.28-.14-.56-.28-.86-.41A6.21,6.21,0,0,0,41,113a.1.1,0,0,1-.09,0l-.35,0c-.18,0-.19-.23,0-.27l1.06-.24a.2.2,0,0,1,0-.28,2,2,0,0,1,.5-.34H42a.16.16,0,0,1-.08-.3,2.7,2.7,0,0,1,2.54.25.25.25,0,0,1,.08.23,9,9,0,0,1,1.28.68c.09.06,0,.19-.09.15a5.23,5.23,0,0,0-3.24-.55c1.22-.15,2.48,0,3.08,1a.23.23,0,0,1,0,.24c.4.26.78.54,1.13.82.08.06,0,.16-.09.12s-.29-.18-.44-.27,0,0-.08,0a6.84,6.84,0,0,0-2.51-.68,3.11,3.11,0,0,0-1,0,3.39,3.39,0,0,1,1.3.13c1.41.46,2,1.6,3.07,2.56,0,0,0,.11,0,.07-.74-.48-1.37-1.09-2.08-1.61a3.4,3.4,0,0,0-2.12-.63,7.16,7.16,0,0,0-1.91.69.23.23,0,0,1-.27-.33l-.17.11A.17.17,0,0,1,40.18,114.43Z"/><path class="cls-27" d="M42.46,111a3.33,3.33,0,0,1,2.68.43.24.24,0,0,1-.24.4,9.1,9.1,0,0,0-1.14-.41,5.29,5.29,0,0,0-1.25-.11C42.31,111.32,42.26,111,42.46,111Z"/><g class="cls-28"><path class="cls-29" d="M38.23,129.73a5.88,5.88,0,0,0,1.24-.29,1.36,1.36,0,0,0,.8-1.23.09.09,0,0,1,.17,0,1.58,1.58,0,0,1-.35,1.34A2.44,2.44,0,0,0,41.48,127a0,0,0,0,1,.08,0,2.22,2.22,0,0,1,0,1.66h0c.12-.06.25-.1.37-.15.77-1.51-.5-4-1.7-5.08,0,0,0-.07,0,0,1.11,1,2.52,3.31,2.21,4.89a3.42,3.42,0,0,0,.88-.64,3.12,3.12,0,0,0,.78-2.35.12.12,0,0,1,.23,0,3.56,3.56,0,0,1-.26,2.25,3,3,0,0,0,1-1.61.13.13,0,0,1,.25,0,3,3,0,0,1-.41,1.37,6.34,6.34,0,0,0,1-.69c.08-.15.16-.32.24-.5a9.49,9.49,0,0,0,.49-2.26,7.26,7.26,0,0,0-.65-2.16c0-.1.11-.19.18-.09a6.18,6.18,0,0,1,.7,1.2.13.13,0,0,1,.12.14.37.37,0,0,1,0,.11,5.38,5.38,0,0,1,.32,1,8.47,8.47,0,0,0-.81-3,.09.09,0,0,1,.16-.09,9.88,9.88,0,0,1,1.1,3.22,5.47,5.47,0,0,0-1.07-4.62c-.07-.09.06-.17.14-.09a6.94,6.94,0,0,1,.6.72,6.75,6.75,0,0,0-3.38-4c-.08,0,0-.16.05-.12a6.5,6.5,0,0,1,4,5.35,4.23,4.23,0,0,1-.27,4.16c0,1.13-.48,2-1.66,1.92a6.61,6.61,0,0,1-.78.52,1.86,1.86,0,0,1-.56.29c-.3.14-.61.26-.9.37a.3.3,0,0,1-.29-.05,3.61,3.61,0,0,1-2,.72,2.59,2.59,0,0,1-1,.42,1.7,1.7,0,0,1-1.61.45.26.26,0,0,1-.11-.07,1.28,1.28,0,0,1-1-.11C38,130,38.1,129.77,38.23,129.73Z"/><path class="cls-30" d="M31.9,130.41a2.44,2.44,0,0,0,1-1.2,2.63,2.63,0,0,0-.12-1.83.1.1,0,0,1,.18-.07,3.27,3.27,0,0,1,.23,2.28,1.33,1.33,0,0,0,.28-1,3.12,3.12,0,0,0-.59-1.66c0-.06,0-.14.09-.09a3.15,3.15,0,0,1,.89,2,1.5,1.5,0,0,1,0,.3,1.77,1.77,0,0,0-.29-2,4.75,4.75,0,0,0-1.64-1.45.08.08,0,0,1,.07-.15c1.41.53,3.82,2.7,2,4.15a.17.17,0,0,1-.26,0,1.27,1.27,0,0,1-.3.45,2.35,2.35,0,0,0,1.37-2.8.09.09,0,0,1,.16-.07,2.6,2.6,0,0,1-.15,2.23,1.34,1.34,0,0,0,.7-1.35.13.13,0,0,1,.26,0,1.58,1.58,0,0,1-.93,1.84.17.17,0,0,1-.25-.1,2.51,2.51,0,0,1-2.45,1.06.19.19,0,0,1-.15-.1A.18.18,0,0,1,31.9,130.41Z"/><path class="cls-31" d="M30.06,130.1a5.14,5.14,0,0,0,1.46-.08c.49-.3,1.08-.57.93-1.24,0-.08.11-.12.14,0a1.07,1.07,0,0,1-.51,1.24l0,0a1.94,1.94,0,0,1-2.07.34C29.83,130.29,29.91,130.1,30.06,130.1Z"/></g><path class="cls-32" d="M46.35,105.66a9.6,9.6,0,0,1-.92,2.14,1.76,1.76,0,0,0-.09.2.2.2,0,0,1-.06.07c-.23.44-.47.88-.66,1.34,0,.06-.12,0-.1,0,.16-.45.35-.87.54-1.29a.2.2,0,0,1-.07-.22l.09-.25a52.73,52.73,0,0,0,2-15.8c0-.09.14-.11.14,0a37.84,37.84,0,0,1-.12,7.89,76,76,0,0,0,1.07-9.47.08.08,0,0,1,.12-.07c.15-2.85.28-39.49.38-42.34a.05.05,0,0,1,.1,0c0,3.33,0,40.44-.09,43.76.14-1.33.28-2.65.4-4,0,0,.08,0,.08,0-.21,5.54-.74,11.09-1.15,16.61a.11.11,0,0,1-.19.08c-.16,1.31-.35,2.62-.58,3.93,0,.12-.21.1-.19,0q.33-3.87.61-7.74c-.06.31-.11.61-.18.92a0,0,0,0,1,0,.06c-.35,3-.83,6.22-2.71,8.68-.06.08-.2,0-.13-.11a16.23,16.23,0,0,0,2.11-5.71c-.1.35-.21.69-.33,1C46.4,105.45,46.38,105.55,46.35,105.66Z"/><path class="cls-33" d="M45.53,102.75A28,28,0,0,0,46,95.67a.14.14,0,0,1,.27,0,23.37,23.37,0,0,1-.17,5.85,12.25,12.25,0,0,1-.57,2.62c-.41,1.11-1.2,2-1.39,3.22a.08.08,0,1,1-.16,0C44.13,105.72,45.18,104.33,45.53,102.75Z"/><path class="cls-34" d="M49.2,96.45c0-.11.18-.11.19,0a29.88,29.88,0,0,1-.17,3.14c0,1,0,2.09,0,3.14,0,.15-.27.15-.27,0s0-.44,0-.66c-.18,1.32-.36,2.63-.44,4,0,.14-.24.14-.26,0C48,102.8,49.15,99.67,49.2,96.45Z"/><path class="cls-35" d="M57.24,93.69c.22,1.56.48,3.11.76,4.66a29.4,29.4,0,0,0,1,5.46c0,.12-.14.19-.19.06a20,20,0,0,1-.92-4.14,53.49,53.49,0,0,1-.85-6A.09.09,0,0,1,57.24,93.69Z"/><path class="cls-36" d="M55,87.31c.1,1.76.33,3.51.55,5.24a24,24,0,0,0,1.09,5.67.08.08,0,0,0,.12,0,9.45,9.45,0,0,0,.76,2.44.08.08,0,1,0,.14-.06,11.37,11.37,0,0,1-.78-3.46A.22.22,0,0,0,57,97c0-.36,0-.73,0-1.09.16,1,.34,2.07.55,3.09,0,.14.26.12.23,0-1.25-6-1.38-46-1.81-52.1-.22-3.06-.24-6.13-.47-9.2a69.89,69.89,0,0,1-.4-9,.06.06,0,0,0-.12,0,79.11,79.11,0,0,0-.09,11,.07.07,0,0,0,0,.07c0,1.75,0,3.55,0,5.35-.16-2.45-.28-4.91-.28-7.37,0-.08-.13-.08-.14,0C54,43,54.32,82.08,55,87.31Zm1.36,4.19c0-.23-.09-.48-.13-.72l0-.3a.08.08,0,0,0,.06,0C56.29,90.8,56.32,91.16,56.36,91.5Zm-.61.87c.25,1.58.52,3.14.8,4.71a.22.22,0,0,0,.05.11c0,.16,0,.32.07.49A28.21,28.21,0,0,1,55.75,92.37Z"/><path class="cls-37" d="M53.74,49.59c-.18-3-.13-6.08-.24-9.09a.06.06,0,0,1,.12,0c.38,4.47.79,42.72,1.2,47.18a.1.1,0,0,1,.07.11c.06,1.7.37,3.36.59,5,0,.14-.11.19-.22.14,0,.15.07.3.11.45s-.14.19-.17.07a35,35,0,0,1-.86-4.87c-.27-1.42-.43-36.65-.54-38.09,0-.28-.08-.56-.13-.83A.09.09,0,0,1,53.74,49.59Z"/><path class="cls-38" d="M53.38,46.56s0,0,0,0c.12,4.73,1.06,43.17,1.25,47.91a.13.13,0,0,1-.26,0C54,89.78,53.39,51.29,53.38,46.56Z"/><path class="cls-39" d="M35.14,112.36a60.33,60.33,0,0,0,3.59-8,2.21,2.21,0,0,0,0,.25.13.13,0,0,0,.25.07c.54-1.37,1-2.75,1.55-4.13-.32,1.16-.67,2.31-1.09,3.45-.23.61-.49,1.23-.74,1.85a20.91,20.91,0,0,1-1,2.06c0,.08.09.16.14.08a17.88,17.88,0,0,0,1-1.88A.16.16,0,0,0,39,106a39.91,39.91,0,0,0,2.43-5.72,38.53,38.53,0,0,0,2.15-5.9c.36-1.06.71-2.14,1-3.21.82-2.78.78-39.46,1-42.32,0,0,0,0,0,0-.31,3-.52,39.61-1.28,42.49,1-4.77,1.32-43.48,1.37-48.28,0-.08-.12-.08-.14,0-.25,2.24-.42,4.48-.66,6.7a.13.13,0,0,0-.12.09c-.08.47-.18.94-.27,1.41.07-.44.12-.89.17-1.33.15-1.56-.23-3.29.34-4.77,0-.08-.07-.12-.12-.05-.76,1.32-.42,3-.61,4.42-.33,2.43-.89,38.63-1.43,41,0,.12-.05.25-.08.37.12-1.09.21-2.17.25-3.27,0-.12-.19-.15-.19,0a39.64,39.64,0,0,1-.57,5.45,53.61,53.61,0,0,1-1.59,5.43L40,100.09c.34-1.33.66-2.66,1.06-4,0-.11-.12-.18-.16-.08-.9,2.78-1.49,5.63-2.56,8.36s-2.2,5.28-3.45,7.87C34.86,112.4,35.07,112.49,35.14,112.36Zm8.79-22.43c.17-1,.34-1.92.5-2.89-.12.76-.23,1.52-.38,2.28C44,89.53,44,89.72,43.93,89.93Zm-3.08,10.14c.13-.5.25-1,.39-1.5.06-.26.12-.52.19-.79.66-2,1.26-4.12,1.74-6.24q-.35,1.58-.72,3.15C42,96.52,41.45,98.31,40.85,100.07Z"/><path class="cls-40" d="M36.64,105.08c1.51-4,3.3-8,4.77-12,0-.06.11,0,.09,0-1.39,4.08-3,8.07-4.72,12A.08.08,0,0,1,36.64,105.08Z"/><g class="cls-41"><path class="cls-42" d="M3.1,125.45c1.48-3.36,5.26-3,8.16-1.94A35.94,35.94,0,0,0,15,124.75a12.17,12.17,0,0,0,3.52,1,23.45,23.45,0,0,0,4.34.48,10.13,10.13,0,0,0-5.3,5.68c-.09.16-.19.32-.28.49a.39.39,0,0,0,0,.4l0,.08c-.18.6.61,1.23,1,.62a12.47,12.47,0,0,1,2.17-2.35,7.12,7.12,0,0,1,3.12-1,42.38,42.38,0,0,1,5,.18,19.92,19.92,0,0,0,7.1-.86,7.79,7.79,0,0,0,7-1,12.84,12.84,0,0,0,1-.86,18.48,18.48,0,0,0,7.8-2.18c.5-.27,1-.55,1.5-.84a16.33,16.33,0,0,0,3,1.33c3.33,1.06,6.8.7,10.23,1.15A11.64,11.64,0,0,1,71,128.38,22.42,22.42,0,0,0,74.05,130c.37.15.83-.31.52-.64-.76-.82-1.4-1.72-2.12-2.51-.42-.79-.83-1.59-1.24-2.38,1.82.29,3.65.54,5.44.93,2.16.46,4.11,1.34,6.22,2a12.85,12.85,0,0,0,5,.68c1.32-.14,2.59-.44,3.89-.66,2.1.48,3.92,1.79,6,2.34.16,0,.23-.18.12-.27l0,0a.18.18,0,0,0-.09-.2A9,9,0,0,1,96.29,128c-1.12-1.44-2.21-3-3.88-3.67a9.31,9.31,0,0,0-3.58-.54c-.2,0-.4-.07-.61-.09a14,14,0,0,1-2.63-.72h0c-.23-.3-.48-.6-.77-.91a.58.58,0,0,0-.11-.42,26.76,26.76,0,0,0-4.37-4.83,8.57,8.57,0,0,0-3-1.77l-.15,0c-.59-.53-1.25-1-1.87-1.49a10.91,10.91,0,0,0-3-3.07.52.52,0,0,0-.2-.09c-1.22-1.56-2.31-3.21-3.57-4.77a39.46,39.46,0,0,1-3.85-9.43c-1.22-4.64-1.58-43.15-1.56-47.93,0-2.65.11-5.3.15-7.94a29.37,29.37,0,0,0-.18-5.78A64.58,64.58,0,0,0,63,23.85a47.59,47.59,0,0,0-1.31-8.64c-.09-.31-.17-.63-.26-1-.71-4.78-1.14-9.71,2.7-13C66-.43,68.18-1.6,70.2-3a18.5,18.5,0,0,0,3.45-3.27,19.6,19.6,0,0,0,2.67-3.78c.15-.24-.19-.53-.37-.29a19.46,19.46,0,0,1-2,2.92A11.44,11.44,0,0,1,69.41-5a29.75,29.75,0,0,0-7.06,3.19l-.16.11c.92-2.68,2-5.31,2.9-8A74.3,74.3,0,0,0,67.64-20c.09-.47-.68-.7-.83-.23A53.48,53.48,0,0,1,63-11.94a29,29,0,0,0,1.47-7.73c.16-2.49-.52-5.07,0-7.52.06-.24-.3-.31-.4-.11a9.2,9.2,0,0,0-1,3,46.64,46.64,0,0,0-1.3-6.45c-.13-.47-.92-.27-.84.21C62.3-23,60-15.28,56.44-8.72A33.58,33.58,0,0,0,52.6.92c0,.12-.05.24-.07.36V1A98,98,0,0,1,53-12.49c.08-.59.16-1.18.26-1.76.2-.89.36-1.78.51-2.68.14-.64.3-1.29.49-1.93a27.58,27.58,0,0,0,1.25-6.09c.19-3.93-.29-7.8-.29-11.72,0-.23-.37-.22-.4,0-.1.71-.19,1.42-.27,2.14A42.23,42.23,0,0,0,51.35-43a.27.27,0,0,0-.51.19c1.39,5.33,2.62,10.8,1.59,16.32-.18,1-.4,2-.64,3a31.59,31.59,0,0,0-1-4c-1.35-4.27-3.56-8.45-4.3-12.89a.4.4,0,0,0-.8.09c.08.9.2,1.78.34,2.66A15.53,15.53,0,0,0,44.33-40c-1.5-1.7-3.31-3.11-4.76-4.87a.13.13,0,0,0-.22.12,24.79,24.79,0,0,0,3.25,5.38A22.28,22.28,0,0,1,46-33c.77,2,1.6,4.12,2.33,6.24A45.61,45.61,0,0,1,48.84-13c-.2,2.48-.5,5-.76,7.42-.18,1.69-.27,3.41-.46,5.11-.18-.51-.38-1-.6-1.51C45.35-5.5,43.23-8.82,41.4-12.29c-.5-.94-.95-1.9-1.38-2.86-.56-3.76-1.78-7.4-2.08-11.21-.33-4.17-.69-8.25-2.15-12.21-.15-.39-.81-.24-.72.18a53.41,53.41,0,0,1,1,6.66c.17,2.29.06,4.59.18,6.88l.06.87c0-.1-.09-.21-.14-.31a15.8,15.8,0,0,1-.94-4c0-.39-.7-.42-.71,0s0,.71,0,1.06a23.49,23.49,0,0,0-3-2.93c-.22-.21-.54.13-.38.36a24.62,24.62,0,0,1,2.28,5.26c.62,1.55,1.23,3.1,1.77,4.68a85.91,85.91,0,0,0,3.55,9.32A50.37,50.37,0,0,0,40.57-4,33.52,33.52,0,0,0,43.5,1.93a28,28,0,0,1,1.32,11.83c-.13,1.07-.28,2.13-.42,3.19-1-1.58-1.68-3.26-2.55-4.89-2.07-3.88-4.76-7.39-7-11.16a39.38,39.38,0,0,1-4.91-13.81,21.47,21.47,0,0,0-2.22-6.8c-1.07-2-2.63-3.75-3.17-6-.08-.33-.66-.43-.67,0,0,2.24.92,4.14,1.66,6.22A43.67,43.67,0,0,1,27.2-11.3c.08.53.18,1.06.28,1.6a62.52,62.52,0,0,0-4.1-5.59c-1.87-2.28-4.09-4.47-5.57-7-.22-.38-.78,0-.64.35a38,38,0,0,0,4.15,8.13C23.08-11.19,24.45-8.33,26-5.6a43.42,43.42,0,0,1,4.22,8.29C27.78,1,25.15-.58,22.5-2.2,17.89-5,12.55-8.08,9.51-12.65c-.19-.29-.69,0-.54.29a23.53,23.53,0,0,0,4.29,6.59c.94.95,1.92,1.83,2.93,2.67-.83-.27-1.67-.52-2.51-.76C9.25-5.15,5.67-8,1.93-10.62c-.22-.15-.55.11-.36.33A26.4,26.4,0,0,0,12.43-2.63C16-1.41,19.39.26,22.92,1.52a51.21,51.21,0,0,1,8.23,6.19c.56.84,1.11,1.71,1.7,2.51a38.41,38.41,0,0,1,3.24,5.12,45.83,45.83,0,0,1,4.18,12A59,59,0,0,1,41.42,39.9c-.11,3.84-.67,7.88-.41,11.76-.51,1.56-.87,36.92-1.17,38.55,0,.27-.08.54-.13.81-.45.9-.9,1.79-1.3,2.65-1.85,4-3.06,8.2-4.75,12.26-1.4,3.35-3.41,6.24-5.18,9.38-.45.8-.89,1.58-1.32,2.38a19.7,19.7,0,0,0-4.3,1.15,13.8,13.8,0,0,1-7.07.6c-2.13-.24-4-.5-5.94.52a8.69,8.69,0,0,0-2.68.12,5.79,5.79,0,0,0-3.06,1.69,8.52,8.52,0,0,0-1.62,3.42A.33.33,0,0,0,3.1,125.45ZM40.73,2.74c.06-.15.12-.28.19-.42A4.78,4.78,0,0,1,41.34,2a3.22,3.22,0,0,0-.24.36C41,2.47,40.85,2.6,40.73,2.74Z"/></g><g class="cls-28"><g class="cls-43"><path class="cls-44" d="M26.65,122.64C30,121,31.11,120.36,32.76,117s4.12-7.79,4.12-7.79a73.32,73.32,0,0,0-3.54,8.46,8,8,0,0,0-2,3.45,3.89,3.89,0,0,0-1.7,1.24,10.83,10.83,0,0,0-5.39,4,6.09,6.09,0,0,0-2.2.36c.27-.16.54-.3.83-.44a23.45,23.45,0,0,1-4.34-.48l-.13,0C22.25,126.14,24,123.93,26.65,122.64Z"/></g></g><g class="cls-45"><path class="cls-46" d="M61.06,42c0-.15.24-.11.24,0-.19,4.91,0,43.57.61,48.45,0-.88-.06-1.76-.09-2.62s-.09-35.51-.1-36.37c0-.08,0-.16,0-.23-.22-4.33-.19-8.64-.05-13,0-.1.18-.1.18,0,0,1.82.07,3.65.14,5.48.13-2,.28-4.11.38-6.15,0-.16.29-.15.29,0,0,1.07,0,2.14,0,3.2a1.09,1.09,0,0,1,0-.18c.22-2.84.1-5.69,0-8.53a.09.09,0,1,1,.18,0,97.22,97.22,0,0,1-.17,13.76c-.22,2.58.07,38.77.34,41.32s.32,5.23.66,7.84c0,.1-.15.11-.16,0-.45-2.37-.58-4.78-.84-7.17-.1-.83-.22-35.44-.33-36.27v.28c.22,3.93.26,41.62.71,45.54,0,.13-.19.18-.22.06a31,31,0,0,1-.9-6.17.21.21,0,0,1-.38-.09C60.71,86.17,60.65,47.16,61.06,42Z"/><path class="cls-47" d="M60.29,42.26c0-.13.22-.12.22,0,0,3.53.25,40.84.27,44.36,0,.22-.31.27-.33,0C60.2,83.13,60.18,45.8,60.29,42.26Z"/></g><path class="cls-48" d="M64.74,107.28a26.09,26.09,0,0,0,2.71,3.46,28.74,28.74,0,0,1-3-2.49c-.11-.1-.24.07-.14.18a32.21,32.21,0,0,0,4.08,3.89,12.36,12.36,0,0,0-1.92-.64c-.14,0-.18.18-.06.24.82.34,1.58.91,2.41,1.27l-.54.14c-.13,0-.08.21,0,.23a6.54,6.54,0,0,0,2.25-.08,5.79,5.79,0,0,0,1.5.3,15.24,15.24,0,0,0-2.65.63c-.12,0-.06.22.06.22a15.11,15.11,0,0,1,4.5-.16,5.1,5.1,0,0,1,1.19.43A5.67,5.67,0,0,0,72.2,116a.12.12,0,0,0,.11.22,8.58,8.58,0,0,1,4.31-.23,2.8,2.8,0,0,0-1.82.93c-.09.1.06.22.15.17a4.15,4.15,0,0,1,4,0,6.19,6.19,0,0,0-4.39.48c-.12.07,0,.25.1.2,2.1-.91,4.44-.13,6.39,1a8.61,8.61,0,0,0-4-.29c-.11,0-.13.19,0,.2a10.85,10.85,0,0,1,6,2,11,11,0,0,1,2.38,2.65,4.42,4.42,0,0,0-1.72.69c-.13.08,0,.23.11.2a6.89,6.89,0,0,1,2-.25s0,0,0,0a.36.36,0,0,0,.56,0c.28,0,.57,0,.86.1a7.43,7.43,0,0,0-1.05.3c-.11,0-.06.19.05.18a12.56,12.56,0,0,1,3.24.13c.13,0,.26.06.39.09a7.81,7.81,0,0,0-1.5.51.11.11,0,0,0,0,.2,30.44,30.44,0,0,1,3.56-.14l.27.07h.11a3.69,3.69,0,0,1,1.25.45c1.56.92,2.66,2.42,4.06,3.53,0,0,0,0,0,0-1.16-1.11-2.23-3-3.69-4a4.36,4.36,0,0,0-2.22-1.56,6.64,6.64,0,0,0-2.69-.21,8.09,8.09,0,0,0-2.64-.4c-.25-1.28-2-2.63-2.89-3.23l-.46-.3a.35.35,0,0,0-.05-.45.81.81,0,0,1-.14-.12,6.68,6.68,0,0,0-1.73-1.65.38.38,0,0,0-.1-.27A6.85,6.85,0,0,0,77.26,115a5.47,5.47,0,0,0-.54-.41,5,5,0,0,0-1.5-1.27c-2.51-2.83-5.07-5.53-7-8.9a46.07,46.07,0,0,1-4.61-12.74c0-.07-.12,0-.1,0a40.73,40.73,0,0,0,3.6,12.45,37.87,37.87,0,0,1-3-5.67c0-.05-.11,0-.09,0a34.72,34.72,0,0,0,4.23,8.73,37.64,37.64,0,0,0,3.38,4.25c-3.07-2.59-5.19-6-7.36-9.46-.06-.09-.19,0-.14.1a54.51,54.51,0,0,0,4.62,7.7c.35.45.75.92,1.16,1.38a11.81,11.81,0,0,1-3.88-4,.1.1,0,0,0-.19.07,10.82,10.82,0,0,0,.66,1.38c-.67-.82-1.28-1.68-1.91-2.53a36.28,36.28,0,0,1-4.5-7.86.11.11,0,0,0-.21.09A35.2,35.2,0,0,0,64.74,107.28Z"/></g></g></g></svg>