<svg id="Capa_1" data-name="Capa 1" xmlns="http://www.w3.org/2000/svg" viewBox="0 0 81.4 31.41"><defs><style>.cls-1{fill:#99db3c;}.cls-2{fill:#fff;}</style></defs><path class="cls-1" d="M55.89,29.84a2.44,2.44,0,0,1-2.44-2.44V22a1.34,1.34,0,0,0-1.34-1.34H4.18a2.43,2.43,0,0,1-2.43-2.44V13.43A2.43,2.43,0,0,1,4.18,11H52.11a1.34,1.34,0,0,0,1.34-1.34V3.79a2.43,2.43,0,0,1,2.44-2.43,2.46,2.46,0,0,1,1.21.32L77.55,13.49a2.43,2.43,0,0,1,0,4.22L57.1,29.51a2.37,2.37,0,0,1-1.21.33Z"/><path class="cls-2" d="M55.89,1.9a1.83,1.83,0,0,1,.94.26L77.28,14a1.89,1.89,0,0,1,0,3.27L56.83,29a1.92,1.92,0,0,1-.94.25A1.88,1.88,0,0,1,54,27.4V22a1.89,1.89,0,0,0-1.89-1.89H4.18A1.88,1.88,0,0,1,2.3,18.22V13.43a1.89,1.89,0,0,1,1.88-1.89H52.11A1.89,1.89,0,0,0,54,9.66V3.79A1.89,1.89,0,0,1,55.89,1.9m0-1.09a3,3,0,0,0-3,3V9.66a.79.79,0,0,1-.79.79H4.18a3,3,0,0,0-3,3v4.79a3,3,0,0,0,3,3H52.11a.79.79,0,0,1,.79.79v5.4a3,3,0,0,0,3,3,3,3,0,0,0,1.49-.4L77.82,18.18a3,3,0,0,0,0-5.16L57.38,1.21a3,3,0,0,0-1.49-.4Z"/></svg>