<svg xmlns="http://www.w3.org/2000/svg" viewBox="0 0 116.66 97.75"><defs><style>.cls-1{isolation:isolate;}.cls-2,.cls-3,.cls-4{fill:none;stroke:#094e54;stroke-linecap:round;stroke-linejoin:round;stroke-width:1.35px;}.cls-3{stroke-dasharray:2.71 4.51;}.cls-4{stroke-dasharray:2.93 4.88;}.cls-5{fill:#63b7c2;}.cls-6{fill:#abf8b7;}.cls-6,.cls-8,.cls-9{mix-blend-mode:multiply;}.cls-6,.cls-8{opacity:0.62;}.cls-7{fill:#d5f8da;}.cls-8{fill:#e5f8d0;}.cls-9{font-size:18px;fill:#2b6c75;font-family:VAGRounded-Bold, VAG Rounded;font-weight:700;}.cls-10{letter-spacing:0.02em;}.cls-11{letter-spacing:0em;}.cls-12{fill:#878787;}.cls-12,.cls-13,.cls-14{fill-rule:evenodd;}.cls-13{fill:#029b39;}.cls-14{fill:#00953b;}</style></defs><g class="cls-1"><g id="Capa_1" data-name="Capa 1"><line class="cls-2" x1="45.35" y1="40.34" x2="45.35" y2="41.89"/><line class="cls-3" x1="45.35" y1="46.4" x2="45.35" y2="65.79"/><polyline class="cls-2" points="45.35 68.05 45.35 69.6 46.73 70.32"/><line class="cls-4" x1="51.06" y1="72.55" x2="90.51" y2="92.9"/><line class="cls-2" x1="92.67" y1="94.02" x2="94.06" y2="94.73"/><path class="cls-5" d="M86.86,2.17,83,.24A3.36,3.36,0,0,0,80,.46l-75.49,37A9,9,0,0,0,0,44.85V63.3a3.25,3.25,0,0,0,1.58,3.13h0l3.91,1.93,2.2-3.7L80,29.23a9,9,0,0,0,4.53-7.39V6Z"/><path class="cls-6" d="M0,44.85V63.3a3.25,3.25,0,0,0,1.58,3.13h0l3.91,1.93,2.2-3.7.14-.07V41.47L2.61,38.89A9.08,9.08,0,0,0,0,44.85Z"/><path class="cls-7" d="M8.45,39.39l75.49-37c2.5-1.23,4.53.08,4.53,2.93V23.77a9,9,0,0,1-4.53,7.39l-75.49,37c-2.51,1.23-4.54-.08-4.54-2.93V46.78A9,9,0,0,1,8.45,39.39Z"/><path class="cls-8" d="M89.15,3.11h0l0,0h0L85.25,1.18a3.36,3.36,0,0,0-2.93.22l-75.49,37a7,7,0,0,0-1.91,1.44h0a8.39,8.39,0,0,0-.56.63l-.22.3c-.14.18-.27.36-.39.55l-.22.36c-.12.21-.23.42-.34.64L3,42.58c-.13.31-.25.62-.35.93,0,.09-.06.19-.08.28a6.14,6.14,0,0,0-.18.74,2.74,2.74,0,0,0-.05.28,6.61,6.61,0,0,0-.09,1V64.24a3.25,3.25,0,0,0,1.59,3.13h0l3.92,1.93h0a3.3,3.3,0,0,0,3-.21l75.49-37a9,9,0,0,0,4.53-7.39V6.25A3.21,3.21,0,0,0,89.15,3.11Z"/><text class="cls-9" transform="matrix(0.77, -0.39, -0.06, 1, 6.33, 63.09)">Gobe<tspan class="cls-10" x="42.68" y="0">r</tspan><tspan class="cls-11" x="48.99" y="0">nación</tspan></text><path class="cls-12" d="M98.27,96.91c.88,0,1.58.19,1.57.42s-.72.42-1.59.42-1.58-.19-1.57-.42S97.4,96.91,98.27,96.91Z"/><path class="cls-13" d="M96.47,32.53a16.62,16.62,0,0,1,5.87.32l-.5,0C93,32.34,85.36,42.1,84.75,53.39c-.94,17.45,6.42,30.26,13,43C89,84.16,78.43,70.59,79.37,53.1,80,41.81,86.12,33.62,96.47,32.53Z"/><path class="cls-14" d="M98.66,41.68c4,1.91,6.79,7.58,6.43,14.11s-3.67,11.86-7.89,13.33a7.11,7.11,0,0,0,2.65.68c5.44.29,10.19-5.85,10.62-13.72s-3.64-14.5-9.08-14.79A7.21,7.21,0,0,0,98.66,41.68Z"/><path class="cls-14" d="M101.84,32.81c8.81.48,15.36,11.69,14.79,22.31-.92,17-9.94,31-18.36,42.21-6.72-13-14.49-26.06-13.52-43.94.61-11.29,8.29-21,17.09-20.58Zm-.45,8.48C96,41,91.19,47.13,90.76,55S94.41,69.5,99.85,69.8,110,64,110.47,56.08,106.83,41.58,101.39,41.29Z"/><path class="cls-13" d="M101.84,32.81c8.81.48,15.36,11.69,14.79,22.31-.87,16-8.87,29.26-16.82,40.14l0-25.46h0c5.44.29,10.19-5.85,10.62-13.72s-3.64-14.5-9.08-14.79a6.8,6.8,0,0,0-1.5.08v-8.5A12.54,12.54,0,0,1,101.84,32.81Z"/></g></g></svg>