<svg xmlns="http://www.w3.org/2000/svg" viewBox="0 0 111.65 105.41"><defs><style>.cls-1{isolation:isolate;}.cls-2,.cls-3,.cls-4{fill:none;stroke:#094e54;stroke-linecap:round;stroke-linejoin:round;stroke-width:1.06px;}.cls-3{stroke-dasharray:2.35 3.92;}.cls-4{stroke-dasharray:2.57 4.29;}.cls-5{fill:#63b7c2;}.cls-6{fill:#abf8b7;}.cls-6,.cls-8{opacity:0.62;}.cls-6,.cls-8,.cls-9{mix-blend-mode:multiply;}.cls-7{fill:#d5f8da;}.cls-8{fill:#e5f8d0;}.cls-9{font-size:18px;fill:#2b6c75;font-family:VAGRounded-Bold, VAG Rounded;font-weight:700;}.cls-10{fill:#878787;}.cls-10,.cls-11,.cls-12,.cls-13{fill-rule:evenodd;}.cls-11{fill:#017a6b;}.cls-12{fill:#00877a;}.cls-13{fill:#039180;}</style></defs><title>Museo</title><g class="cls-1"><g id="Capa_1" data-name="Capa 1"><line class="cls-2" x1="42.69" y1="40.34" x2="42.69" y2="41.56"/><line class="cls-3" x1="42.69" y1="45.48" x2="42.69" y2="62.33"/><polyline class="cls-2" points="42.69 64.29 42.69 65.51 43.73 66.15"/><line class="cls-4" x1="47.37" y1="68.41" x2="74.68" y2="85.35"/><line class="cls-2" x1="76.5" y1="86.48" x2="77.54" y2="87.12"/><g id="_Grupo_" data-name="&lt;Grupo&gt;"><g id="_Grupo_2" data-name="&lt;Grupo&gt;"><path id="_Trazado_" data-name="&lt;Trazado&gt;" class="cls-5" d="M74.12,2.17,70.79.24a2.49,2.49,0,0,0-2.5.22l-64.42,37C1.73,38.69,0,42,0,44.85V63.3a3.41,3.41,0,0,0,1.35,3.13h0l3.34,1.93,1.87-3.7L68.29,29.23c2.14-1.23,3.87-4.54,3.87-7.39V6Z"/><path id="_Trazado_2" data-name="&lt;Trazado&gt;" class="cls-6" d="M0,44.85V63.3a3.41,3.41,0,0,0,1.35,3.13h0l3.34,1.93,1.87-3.7.12-.07V41.47L2.23,38.89A9.87,9.87,0,0,0,0,44.85Z"/></g><g id="_Grupo_3" data-name="&lt;Grupo&gt;"><path id="_Trazado_3" data-name="&lt;Trazado&gt;" class="cls-7" d="M7.21,39.39l64.42-37c2.14-1.23,3.87.08,3.87,2.92V23.77c0,2.85-1.73,6.16-3.87,7.39l-64.42,37c-2.14,1.23-3.87-.08-3.87-2.92V46.78C3.34,43.93,5.07,40.62,7.21,39.39Z"/></g></g><path class="cls-8" d="M76.08,3.11h0l0,0h0l-3.3-1.9a2.49,2.49,0,0,0-2.5.22l-64.42,37a6.28,6.28,0,0,0-1.63,1.44h0c-.17.2-.33.41-.48.64l-.19.29c-.12.18-.23.37-.33.56L3,41.67c-.11.21-.2.43-.29.65l-.11.27c-.12.31-.22.62-.31.93,0,.09,0,.18-.07.27q-.09.37-.15.74c0,.1,0,.19,0,.29a7.72,7.72,0,0,0-.07,1V64.24a3.41,3.41,0,0,0,1.35,3.13h0l3.34,1.93h0a2.48,2.48,0,0,0,2.52-.21l64.42-37c2.14-1.23,3.87-4.54,3.87-7.39V6.25C77.45,4.67,76.92,3.57,76.08,3.11Z"/><text class="cls-9" transform="matrix(0.73, -0.46, 0.04, 1, 20.4, 52.39)">Museo</text><path class="cls-10" d="M93.4,104.59c.87,0,1.56.19,1.56.41s-.71.41-1.58.41-1.56-.19-1.56-.41S92.54,104.59,93.4,104.59Z"/><path class="cls-11" d="M91.61,40.69a16.59,16.59,0,0,1,5.83.33l-.5,0c-8.74-.47-16.36,9.21-17,20.42-.93,17.32,6.38,30,12.93,42.66-8.72-12.12-19.2-25.59-18.27-42.94C75.25,49.9,81.34,41.78,91.61,40.69Z"/><path class="cls-11" d="M93.79,49.78c4,1.9,6.73,7.52,6.38,14S96.53,75.54,92.33,77a7,7,0,0,0,2.63.67c5.4.29,10.12-5.8,10.54-13.62s-3.61-14.38-9-14.68A7,7,0,0,0,93.79,49.78Z"/><path class="cls-12" d="M96.95,41c8.74.47,15.24,11.59,14.67,22.13C110.7,80,101.76,93.84,93.4,105,86.73,92.06,79,79.14,80,61.39c.6-11.2,8.23-20.89,17-20.42Zm-.45,8.41C91.09,49.09,86.37,55.19,86,63s3.61,14.38,9,14.68,10.12-5.8,10.54-13.62S101.89,49.68,96.49,49.39Z"/><path class="cls-13" d="M96.95,41c8.74.47,15.24,11.59,14.67,22.13-.86,15.89-8.8,29-16.69,39.83l0-25.27h0c5.4.29,10.12-5.8,10.54-13.62s-3.61-14.38-9-14.68a6.88,6.88,0,0,0-1.49.08V41A11.5,11.5,0,0,1,96.95,41Z"/></g></g></svg>