<svg xmlns="http://www.w3.org/2000/svg" xmlns:xlink="http://www.w3.org/1999/xlink" width="111.186" height="111.186" viewBox="0 0 111.186 111.186">
  <defs>
    <filter id="Elipse_27" x="0" y="0" width="111.186" height="111.186" filterUnits="userSpaceOnUse">
      <feOffset dx="3.343" dy="3.343" input="SourceAlpha"/>
      <feGaussianBlur result="blur"/>
      <feFlood flood-color="#b0b2e5" flood-opacity="0.71"/>
      <feComposite operator="in" in2="blur"/>
      <feComposite in="SourceGraphic"/>
    </filter>
    <linearGradient id="linear-gradient" x1="0.5" x2="0.5" y2="1" gradientUnits="objectBoundingBox">
      <stop offset="0" stop-color="#6edecf"/>
      <stop offset="0.431" stop-color="#5499d6"/>
      <stop offset="1" stop-color="#825fde"/>
    </linearGradient>
  </defs>
  <g id="Grupo_1121" data-name="Grupo 1121" transform="translate(-539 -470)">
    <g id="Grupo_1100" data-name="Grupo 1100" transform="translate(-0.444 -0.02)">
      <g transform="matrix(1, 0, 0, 1, 539.44, 470.02)" filter="url(#Elipse_27)">
        <circle id="Elipse_27-2" data-name="Elipse 27" cx="53.922" cy="53.922" r="53.922" fill="#0e0134"/>
      </g>
    </g>
    <path id="Trazado_1033" data-name="Trazado 1033" d="M335.844,696.969a11.325,11.325,0,0,0-8.3-3.2c-.212.008-.419.025-.787.055-2.774.214-5.031,2.426-7.024,4.373-.484.474-.956.936-1.425,1.357a14.5,14.5,0,0,1-4.469,2.539,17.778,17.778,0,0,1-4.931,1.15l-.335.028a17.761,17.761,0,0,1-13.326-4.663c-.159-.177-1.145-1.1-1.158-1.117a10.7,10.7,0,0,0-14.451.759c-4.227,4.588-4.26,10.575-.081,14.9l.189.192c.222.222.454.429.673.61a9.834,9.834,0,0,0,6.514,2.794,9.7,9.7,0,0,0,4.318-1.089,10.415,10.415,0,0,0,3-1.834c.731-.527,1.531-1.16,2.509-1.985l.247-.2a18.248,18.248,0,0,1,3.591-2.207l.33-.149a15.99,15.99,0,0,1,11.347-1.112,18.121,18.121,0,0,1,6.356,3.341c.646.517,1.231,1.016,1.778,1.486,2.976,2.539,5.334,4.552,10.625,3.019a11.477,11.477,0,0,0,5.042-3.009,11.344,11.344,0,0,0-.232-16.04Zm-14.171,14.547c-.562-.479-1.163-.991-1.826-1.523a20.088,20.088,0,0,0-7.057-3.7,18.1,18.1,0,0,0-12.825,1.289l-.32.146a20.107,20.107,0,0,0-3.854,2.388l-.288.234c-.913.769-1.665,1.367-2.464,1.952a8.844,8.844,0,0,1-2.577,1.576c-3.17,1.553-5.879,1.122-8.779-1.41-.194-.161-.386-.33-.562-.51l-.194-.2c-3.443-3.564-3.372-8.373.171-12.239a8.709,8.709,0,0,1,11.72-.56l.058.058c.212.2.825.777.994.958a19.668,19.668,0,0,0,14.87,5.233l.333-.028a19.749,19.749,0,0,0,5.48-1.279A15.939,15.939,0,0,0,319.62,701c.479-.431.971-.913,1.478-1.407,1.758-1.717,3.748-3.664,5.99-3.838.179-.015.361-.03.53-.038a9.4,9.4,0,0,1,7.062,15.937,9.5,9.5,0,0,1-4.184,2.494C326.2,715.385,324.694,714.1,321.673,711.516Z" transform="translate(285.552 -181.766)" fill="url(#linear-gradient)"/>
  </g>
</svg>
