<svg id="Capa_1" data-name="Capa 1" xmlns="http://www.w3.org/2000/svg" viewBox="0 0 83.26 83.26"><defs><style>.cls-1{fill:#2d6db1;}.cls-2{font-size:12px;font-family:Calibri-Bold, Calibri;font-weight:700;}.cls-2,.cls-4{fill:#fff;}.cls-3{letter-spacing:-0.02em;}</style></defs><title>Pantalla 12 slide 30 -4</title><circle class="cls-1" cx="41.63" cy="41.63" r="41.63"/><text class="cls-2" transform="translate(19.01 60.83)"><tspan class="cls-3">P</tspan><tspan x="6.19" y="0">ermisos</tspan></text><path class="cls-4" d="M58.5,47.41a5.61,5.61,0,1,1,5.61-5.61A5.62,5.62,0,0,1,58.5,47.41Zm0-10.81a5.2,5.2,0,1,0,5.2,5.2A5.2,5.2,0,0,0,58.5,36.6Z"/><path class="cls-4" d="M42.84,44.7h-.48a1.33,1.33,0,0,1-.93-.39l-2.18-2.18a.83.83,0,0,1-.25-.59V39.87a.84.84,0,0,1,.84-.84H52.12a.39.39,0,0,1,.33.17.4.4,0,0,1,0,.38,6.08,6.08,0,0,0,0,4,.48.48,0,0,1-.07.43.48.48,0,0,1-.39.2H49.44L47.71,42.5a.57.57,0,0,0-.4-.17H45.72a.57.57,0,0,0-.44.2l-1.44,1.7A1.32,1.32,0,0,1,42.84,44.7Zm-3-5.25a.43.43,0,0,0-.42.42v1.67a.42.42,0,0,0,.12.3L41.72,44a.91.91,0,0,0,.64.27h.48a.91.91,0,0,0,.69-.32L45,42.27a1,1,0,0,1,.75-.35H47.3a1,1,0,0,1,.7.29l1.61,1.61H52a.07.07,0,0,0,.06,0,.06.06,0,0,0,0-.06,6.5,6.5,0,0,1,0-4.28Z"/><path class="cls-4" d="M60.22,42.81a1,1,0,1,1,1-1A1,1,0,0,1,60.22,42.81Zm0-1.68a.63.63,0,1,0,.63.63A.63.63,0,0,0,60.22,41.13Z"/><path class="cls-4" d="M45.16,50H24.42a3.28,3.28,0,0,1-3.27-3.27V33.83a3.28,3.28,0,0,1,3.27-3.27H45.16a3.28,3.28,0,0,1,3.27,3.27v5.41H48V33.83A2.86,2.86,0,0,0,45.16,31H24.42a2.86,2.86,0,0,0-2.86,2.86V46.7a2.86,2.86,0,0,0,2.86,2.86H45.16A2.86,2.86,0,0,0,48,46.7v-4h.41v4A3.28,3.28,0,0,1,45.16,50Z"/><path class="cls-4" d="M35.17,45.37h-.76a2.56,2.56,0,0,1-2.55-2.55V37.88a2.56,2.56,0,0,1,2.55-2.55h.76a2.56,2.56,0,0,1,2.55,2.55v4.93A2.56,2.56,0,0,1,35.17,45.37Zm-.76-9.62a2.14,2.14,0,0,0-2.14,2.14v4.93A2.14,2.14,0,0,0,34.41,45h.76a2.14,2.14,0,0,0,2.14-2.14V37.88a2.14,2.14,0,0,0-2.14-2.14Z"/><path class="cls-4" d="M44.25,30.77h-.41v-3a9.09,9.09,0,0,0-18.19,0v3h-.41v-3a9.51,9.51,0,0,1,19,0Z"/></svg>