<svg xmlns="http://www.w3.org/2000/svg" viewBox="0 0 176.3 192.06"><defs><style>.cls-1{fill:#ccedf9;}.cls-2{fill:none;stroke:#00a6df;stroke-miterlimit:10;stroke-width:2px;}</style></defs><g id="Capa_2" data-name="Capa 2"><g id="Capa_1-2" data-name="Capa 1"><path class="cls-1" d="M157.09,59.81c-17-18.52-42.93-29.12-68.28-33.52-14-2.44-29-3.27-42,2.63C31.52,35.87,21.45,51.33,17,67.52c-7.21,25.93-8.16,59.57,5.69,83.3a83.29,83.29,0,0,0,59.15,39.86c30.43,4.38,59.24-8.93,77.35-33.1C172,140.4,178.79,119.3,175.45,97.81A71.47,71.47,0,0,0,157.09,59.81Z"/><path class="cls-2" d="M28.62,174.34c15.57,12.16,36,17.72,55.76,16.58A95.08,95.08,0,0,0,156,150.67c21.76-31.5,21.89-72-1-102.34C133.55,19.94,98,3.23,62.82,1.18,54.14.67,45.16,1.09,37.2,4.61,17.86,13.14,19.3,35.2,21.41,53c1.76,14.85-5.86,19.13-12.22,31.41a71.79,71.79,0,0,0,15.27,86.38Q26.47,172.68,28.62,174.34Z"/><path d="M113.13,75.49A26.52,26.52,0,1,0,86.61,102,26.52,26.52,0,0,0,113.13,75.49ZM67,75.49a19.61,19.61,0,1,1,19.61,19.6A19.59,19.59,0,0,1,67,75.49Z"/><path d="M113.64,118.75a52.58,52.58,0,0,0-72.81,19.12,3.47,3.47,0,0,0,1.38,4.73,3.22,3.22,0,0,0,1.73.46,3.34,3.34,0,0,0,3-1.73,45.46,45.46,0,0,1,61.2-17.72A16.59,16.59,0,0,1,113.64,118.75Z"/><path d="M147.13,135.12l-2-.35a15.69,15.69,0,0,0-.61-1.47l1.2-1.67a3.63,3.63,0,0,0-.39-4.69l-2.44-2.43a3.61,3.61,0,0,0-2.57-1.07,3.56,3.56,0,0,0-2.11.68l-1.67,1.19a16.42,16.42,0,0,0-1.58-.65l-.33-2a3.63,3.63,0,0,0-3.59-3h-3.44a3.61,3.61,0,0,0-3.59,3l-.36,2.06c-.49.19-1,.39-1.46.62l-1.65-1.18a3.63,3.63,0,0,0-4.69.39L113.38,127a3.63,3.63,0,0,0-.4,4.69l1.22,1.7a15.87,15.87,0,0,0-.61,1.48l-2,.34a3.62,3.62,0,0,0-3,3.59v3.44a3.64,3.64,0,0,0,3,3.59l2.07.35a15.77,15.77,0,0,0,.62,1.47l-1.18,1.64a3.62,3.62,0,0,0,.39,4.69l2.43,2.43a3.63,3.63,0,0,0,2.58,1.07,3.57,3.57,0,0,0,2.1-.67l1.7-1.22c.45.21.92.4,1.39.57l.34,2a3.64,3.64,0,0,0,3.59,3h3.45a3.62,3.62,0,0,0,3.59-3l.34-2c.51-.19,1-.39,1.48-.61l1.66,1.19a3.66,3.66,0,0,0,4.69-.39l2.44-2.44a3.62,3.62,0,0,0,.39-4.68l-1.19-1.68c.23-.49.43-1,.61-1.47l2-.34a3.64,3.64,0,0,0,3-3.59v-3.44A3.59,3.59,0,0,0,147.13,135.12Zm.58,7a1.19,1.19,0,0,1-1,1.18l-2.68.45a1.31,1.31,0,0,0-1.05.91,13.73,13.73,0,0,1-1,2.35,1.34,1.34,0,0,0,.09,1.38l1.59,2.22a1.21,1.21,0,0,1-.13,1.55l-2.44,2.43a1.14,1.14,0,0,1-.85.36,1.26,1.26,0,0,1-.7-.22l-2.21-1.59a1.32,1.32,0,0,0-1.38-.09,13.5,13.5,0,0,1-2.35,1,1.33,1.33,0,0,0-.91,1l-.45,2.69a1.2,1.2,0,0,1-1.19,1h-3.45a1.2,1.2,0,0,1-1.19-1l-.44-2.69a1.31,1.31,0,0,0-.91-1,14.38,14.38,0,0,1-2.27-.93,1.34,1.34,0,0,0-1.38.09l-2.25,1.61a1.17,1.17,0,0,1-1.53-.14l-2.44-2.44a1.19,1.19,0,0,1-.13-1.54l1.57-2.19a1.3,1.3,0,0,0,.09-1.39,13.64,13.64,0,0,1-1-2.34,1.32,1.32,0,0,0-1-.9l-2.72-.46a1.2,1.2,0,0,1-1-1.19v-3.44a1.2,1.2,0,0,1,1-1.19l2.65-.45a1.31,1.31,0,0,0,1-.91,14.73,14.73,0,0,1,1-2.36,1.3,1.3,0,0,0-.09-1.37l-1.6-2.25a1.19,1.19,0,0,1,.13-1.54l2.44-2.44h0a1.18,1.18,0,0,1,.84-.34,1.16,1.16,0,0,1,.7.22l2.19,1.58a1.32,1.32,0,0,0,1.39.09,13.64,13.64,0,0,1,2.34-1,1.3,1.3,0,0,0,.9-1l.47-2.72a1.21,1.21,0,0,1,1.19-1H131a1.19,1.19,0,0,1,1.18,1l.45,2.65a1.31,1.31,0,0,0,.92,1,14.14,14.14,0,0,1,2.44,1,1.3,1.3,0,0,0,1.37-.1l2.23-1.58a1.16,1.16,0,0,1,.69-.22,1.2,1.2,0,0,1,.85.35l2.44,2.44a1.2,1.2,0,0,1,.13,1.54l-1.59,2.22a1.32,1.32,0,0,0-.09,1.38,14.32,14.32,0,0,1,1,2.35,1.32,1.32,0,0,0,1,.9l2.68.46h0a1.16,1.16,0,0,1,1,1.17Z"/><path d="M129.36,132.34a8.09,8.09,0,1,0,8.08,8.09A8.09,8.09,0,0,0,129.36,132.34Zm0,13.74a5.65,5.65,0,1,1,5.65-5.65A5.66,5.66,0,0,1,129.36,146.08Z"/></g></g></svg>