<svg xmlns="http://www.w3.org/2000/svg" viewBox="0 0 176.3 192.06"><defs><style>.cls-1{fill:#ccedf9;}.cls-2{fill:none;stroke:#00a6df;stroke-miterlimit:10;stroke-width:2px;}.cls-3{fill-rule:evenodd;}</style></defs><g id="Capa_2" data-name="Capa 2"><g id="Capa_1-2" data-name="Capa 1"><path class="cls-1" d="M157.09,59.81c-17-18.52-42.93-29.12-68.28-33.52-14-2.44-29-3.27-42,2.63C31.52,35.87,21.45,51.33,17,67.52c-7.21,25.93-8.16,59.57,5.69,83.3a83.29,83.29,0,0,0,59.15,39.86c30.43,4.38,59.24-8.93,77.35-33.1C172,140.4,178.79,119.3,175.45,97.81A71.47,71.47,0,0,0,157.09,59.81Z"/><path class="cls-2" d="M28.62,174.34c15.57,12.16,36,17.72,55.76,16.58A95.08,95.08,0,0,0,156,150.67c21.76-31.5,21.89-72-1-102.34C133.55,19.94,98,3.23,62.82,1.18,54.14.67,45.16,1.09,37.2,4.61,17.86,13.14,19.3,35.2,21.41,53c1.76,14.85-5.86,19.13-12.22,31.41a71.79,71.79,0,0,0,15.27,86.38Q26.47,172.68,28.62,174.34Z"/><path d="M113.13,75.49A26.52,26.52,0,1,0,86.61,102,26.52,26.52,0,0,0,113.13,75.49ZM67,75.49a19.61,19.61,0,1,1,19.61,19.6A19.59,19.59,0,0,1,67,75.49Z"/><path d="M120.72,127c.72-.42,1.43-.84,2.12-1.29a52.61,52.61,0,0,0-82,12.14,3.47,3.47,0,0,0,1.38,4.73,3.22,3.22,0,0,0,1.73.46,3.34,3.34,0,0,0,3-1.73,45.51,45.51,0,0,1,65.48-15.13C115.19,126.46,117.94,126.82,120.72,127Z"/><path d="M129.43,133.26l-.6.41c-.73.57-1.45,1.14-2.16,1.74a5.14,5.14,0,0,1-2.79,1.23l-.43.22a46.56,46.56,0,0,1,2.94,4.47,3.46,3.46,0,1,0,6-3.46A53.92,53.92,0,0,0,129.43,133.26Z"/><path class="cls-3" d="M144.06,113.2a3.26,3.26,0,0,1,4.62,0l6.93,6.92a3.27,3.27,0,1,1-4.62,4.62l-4.62-4.62-4.62,4.62,4.62,4.62a3.27,3.27,0,1,1-4.62,4.62l-4.62-4.62-9.47,9.47a16.33,16.33,0,1,1-4.62-4.62Zm-36.95,27.71a9.8,9.8,0,1,1,0,13.86A9.8,9.8,0,0,1,107.11,140.91Z"/></g></g></svg>