<svg xmlns="http://www.w3.org/2000/svg" viewBox="0 0 176.3 192.06"><defs><style>.cls-1{fill:#ccedf9;}.cls-2{fill:none;stroke:#00a6df;stroke-miterlimit:10;stroke-width:2px;}</style></defs><g id="Capa_2" data-name="Capa 2"><g id="Capa_1-2" data-name="Capa 1"><path class="cls-1" d="M157.09,59.81c-17-18.52-42.93-29.12-68.28-33.52-14-2.44-29-3.27-42,2.63C31.52,35.87,21.45,51.33,17,67.52c-7.21,25.93-8.16,59.57,5.69,83.3a83.29,83.29,0,0,0,59.15,39.86c30.43,4.38,59.24-8.93,77.35-33.1C172,140.4,178.79,119.3,175.45,97.81A71.47,71.47,0,0,0,157.09,59.81Z"/><path class="cls-2" d="M28.62,174.34c15.57,12.16,36,17.72,55.76,16.58A95.08,95.08,0,0,0,156,150.67c21.76-31.5,21.89-72-1-102.34C133.55,19.94,98,3.23,62.82,1.18,54.14.67,45.16,1.09,37.2,4.61,17.86,13.14,19.3,35.2,21.41,53c1.76,14.85-5.86,19.13-12.22,31.41a71.79,71.79,0,0,0,15.27,86.38Q26.47,172.68,28.62,174.34Z"/><path d="M113.13,75.49A26.52,26.52,0,1,0,86.61,102,26.52,26.52,0,0,0,113.13,75.49ZM67,75.49a19.61,19.61,0,1,1,19.61,19.6A19.59,19.59,0,0,1,67,75.49Z"/><path d="M117.11,121.2l.14-.07a52.57,52.57,0,0,0-76.42,16.74,3.46,3.46,0,0,0,1.38,4.73,3.22,3.22,0,0,0,1.73.46,3.34,3.34,0,0,0,3-1.73,45.47,45.47,0,0,1,62.63-16.92A50.68,50.68,0,0,1,117.11,121.2Z"/><path d="M122.69,136.48a1.62,1.62,0,1,1,1.61-1.61A1.62,1.62,0,0,1,122.69,136.48Z"/><path d="M129.36,156.5c-6.42,0-12.92-2.63-18.81-7.61a41.22,41.22,0,0,1-7-7.56,1.6,1.6,0,0,1,0-1.8,40.51,40.51,0,0,1,7-7.56c5.89-5,12.39-7.62,18.81-7.62S142.28,127,148.17,132a40.44,40.44,0,0,1,7,7.56,1.6,1.6,0,0,1,0,1.8,40.65,40.65,0,0,1-7,7.56C142.28,153.87,135.78,156.5,129.36,156.5Zm-22.47-16.07a41,41,0,0,0,5.79,6c3.69,3.1,9.57,6.81,16.68,6.81s13-3.73,16.72-6.85a39.67,39.67,0,0,0,5.75-6,40.29,40.29,0,0,0-5.79-6c-3.69-3.11-9.57-6.81-16.68-6.81s-13,3.72-16.72,6.85A40.39,40.39,0,0,0,106.89,140.43Z"/><path d="M129.36,150.94a10.52,10.52,0,0,1-10.51-10.51,10.88,10.88,0,0,1,.17-1.92,1.63,1.63,0,0,1,1.59-1.32,1.53,1.53,0,0,1,.3,0,1.61,1.61,0,0,1,1.28,1.88,8.12,8.12,0,0,0-.12,1.33,7.3,7.3,0,1,0,4.8-6.85,2,2,0,0,1-.71.13,1.56,1.56,0,0,1-1.48-1,1.62,1.62,0,0,1,0-1.24,1.63,1.63,0,0,1,.9-.85,10.51,10.51,0,1,1,3.76,20.33Z"/><path d="M129.36,145.38a4.95,4.95,0,1,1,4.95-4.95A5,5,0,0,1,129.36,145.38Zm0-6.68a1.73,1.73,0,1,0,1.72,1.73A1.73,1.73,0,0,0,129.36,138.7Z"/></g></g></svg>