<svg xmlns="http://www.w3.org/2000/svg" viewBox="0 0 176.3 192.06"><defs><style>.cls-1{fill:#ccedf9;}.cls-2{fill:none;stroke:#00a6df;stroke-miterlimit:10;stroke-width:2px;}</style></defs><g id="Capa_2" data-name="Capa 2"><g id="Capa_1-2" data-name="Capa 1"><path class="cls-1" d="M157.09,59.81c-17-18.52-42.93-29.12-68.28-33.52-14-2.44-29-3.27-42,2.63C31.52,35.87,21.45,51.33,17,67.52c-7.21,25.93-8.16,59.57,5.69,83.3a83.29,83.29,0,0,0,59.15,39.86c30.43,4.38,59.24-8.93,77.35-33.1C172,140.4,178.79,119.3,175.45,97.81A71.47,71.47,0,0,0,157.09,59.81Z"/><path class="cls-2" d="M28.62,174.34c15.57,12.16,36,17.72,55.76,16.58A95.08,95.08,0,0,0,156,150.67c21.76-31.5,21.89-72-1-102.34C133.55,19.94,98,3.23,62.82,1.18,54.14.67,45.16,1.09,37.2,4.61,17.86,13.14,19.3,35.2,21.41,53c1.76,14.85-5.86,19.13-12.22,31.41a71.79,71.79,0,0,0,15.27,86.38Q26.47,172.68,28.62,174.34Z"/><path d="M113.13,75.49A26.52,26.52,0,1,0,86.61,102,26.52,26.52,0,0,0,113.13,75.49ZM67,75.49a19.61,19.61,0,1,1,19.61,19.6A19.59,19.59,0,0,1,67,75.49Z"/><path d="M111.51,117.53a52.59,52.59,0,0,0-70.68,20.34,3.46,3.46,0,0,0,1.38,4.73,3.22,3.22,0,0,0,1.73.46,3.34,3.34,0,0,0,3-1.73,45.46,45.46,0,0,1,59.28-18.7C108,120.92,109.68,119.16,111.51,117.53Z"/><path d="M119.84,133.2h0a2.36,2.36,0,0,0,0,3.41l9.56,9.36,21.48-21.48a2.28,2.28,0,0,0,0-3.24h0a2.29,2.29,0,0,0-3.23,0L129.36,139.5l-6.24-6.24A2.37,2.37,0,0,0,119.84,133.2Z"/><path d="M145.28,138.12a2.3,2.3,0,0,0-2.06,2.29v0a16.08,16.08,0,0,1-16.88,16.15,16.26,16.26,0,0,1-15.44-15.44,16.06,16.06,0,0,1,16.15-16.88,16.61,16.61,0,0,1,6.26,1.22,2.33,2.33,0,0,0,2.89-1h0a2.3,2.3,0,0,0-1.13-3.29,21.13,21.13,0,0,0-11.53-1.34,19.86,19.86,0,0,0-16.17,13.56c-5.13,16.14,8.33,30.6,24.26,27.28,9.86-2.05,16.49-11.09,16.2-21.15v-.06A1.57,1.57,0,0,0,146.1,138Z"/></g></g></svg>