<svg xmlns="http://www.w3.org/2000/svg" viewBox="0 0 331.16 248.6"><defs><style>.cls-1{fill:#00953b;}.cls-2,.cls-3{fill:none;stroke-miterlimit:10;}.cls-2{stroke:#00953b;stroke-width:2px;}.cls-3{stroke:#93d500;stroke-linecap:round;}.cls-4{fill:#00443d;}</style></defs><g id="Capa_2" data-name="Capa 2"><g id="Capa_1-2" data-name="Capa 1"><rect class="cls-1" x="77.42" y="86.56" width="176.32" height="75.48" rx="11.02"/><circle class="cls-2" cx="306.15" cy="27.99" r="21.45"/><circle class="cls-2" cx="306.15" cy="124.3" r="21.45"/><circle class="cls-2" cx="306.15" cy="220.61" r="21.45"/><circle class="cls-2" cx="25.01" cy="27.99" r="21.45"/><path class="cls-3" d="M.5,28A24.51,24.51,0,1,1,25,52.49"/><path class="cls-3" d="M5.57,8.55a27.49,27.49,0,1,1,0,38.87"/><circle class="cls-2" cx="25.01" cy="124.3" r="21.45"/><path class="cls-3" d="M.5,124.3A24.51,24.51,0,1,1,25,148.81"/><path class="cls-3" d="M5.57,104.86a27.49,27.49,0,1,1,0,38.87"/><circle class="cls-2" cx="25.01" cy="220.61" r="21.45"/><path class="cls-3" d="M.5,220.61A24.51,24.51,0,1,1,25,245.12"/><path class="cls-3" d="M5.57,201.18a27.49,27.49,0,1,1,0,38.87"/><path class="cls-3" d="M330.66,28a24.51,24.51,0,1,0-24.51,24.5"/><path class="cls-3" d="M325.59,8.55a27.49,27.49,0,1,0,0,38.87"/><path class="cls-3" d="M330.66,124.3a24.51,24.51,0,1,0-24.51,24.51"/><path class="cls-3" d="M325.59,104.86a27.49,27.49,0,1,0,0,38.87"/><path class="cls-3" d="M330.66,220.61a24.51,24.51,0,1,0-24.51,24.51"/><path class="cls-3" d="M325.59,201.18a27.49,27.49,0,1,0,0,38.87"/><polyline class="cls-2" points="46.45 27.99 61.94 27.99 61.94 220.61 46.45 220.61"/><line class="cls-2" x1="46.45" y1="124.3" x2="77.42" y2="124.3"/><polyline class="cls-2" points="284.71 220.61 269.22 220.61 269.22 27.99 284.71 27.99"/><line class="cls-2" x1="284.71" y1="124.3" x2="253.74" y2="124.3"/><path class="cls-4" d="M18.26,213.88a.57.57,0,0,0-.82,0,.58.58,0,0,0,0,.81.57.57,0,0,0,.82,0A.58.58,0,0,0,18.26,213.88Z"/><path class="cls-4" d="M26.05,229.61a2,2,0,0,0,.39-1.2,2,2,0,0,0-2-2H14.65a2,2,0,0,0-2,2,2.07,2.07,0,0,0,.39,1.2,2.88,2.88,0,0,0-1.54,2.54v.58a.57.57,0,0,0,.58.57H27a.57.57,0,0,0,.58-.57v-.58A2.88,2.88,0,0,0,26.05,229.61ZM14,227.8a.89.89,0,0,1,.62-.25h9.78a.87.87,0,0,1,.86.86.87.87,0,0,1-.86.87H14.65a.87.87,0,0,1-.87-.87A.88.88,0,0,1,14,227.8Zm-1.4,4.35a1.73,1.73,0,0,1,1.73-1.72H24.71a1.73,1.73,0,0,1,1.73,1.72Z"/><path class="cls-4" d="M40.4,228a3.79,3.79,0,0,0-.69-.8L37,224.88l-.07-.09a.57.57,0,0,0-.16-.11l-1.62-1.42-7.53-6.56a1.71,1.71,0,0,0,.48-1.19,1.69,1.69,0,0,0-.51-1.22,1.52,1.52,0,0,0-.47-.34l.69-.7a2.06,2.06,0,0,0,.6.08,2.25,2.25,0,0,0,1.62-.67,2.29,2.29,0,0,0,0-3.26l-4.88-4.88a2.31,2.31,0,0,0-3.25,0,2.32,2.32,0,0,0-.6,2.22l-6.94,6.95a2.35,2.35,0,0,0-.6-.08,2.25,2.25,0,0,0-1.62.68,2.29,2.29,0,0,0,0,3.25L17,222.42a2.28,2.28,0,0,0,3.25,0,2.31,2.31,0,0,0,.6-2.22l.69-.69a1.73,1.73,0,0,0,2.75.5l8,9.21.08.1,0,0,2.39,2.74.19.2a3.41,3.41,0,0,0,2.43,1,4,4,0,0,0,.49,0,3.49,3.49,0,0,0,2.57-1.78A3.4,3.4,0,0,0,40.4,228ZM22.73,205.34a1.15,1.15,0,0,1,1.63,0l4.88,4.88a1.13,1.13,0,0,1,.34.81,1.15,1.15,0,0,1-.34.82,1.17,1.17,0,0,1-1.63,0L22.73,207h0A1.14,1.14,0,0,1,22.73,205.34Zm-3.25,16.27a1.15,1.15,0,0,1-1.63,0L13,216.73a1.15,1.15,0,0,1,0-1.63,1.13,1.13,0,0,1,.81-.34,1.15,1.15,0,0,1,.82.34L19.48,220A1.15,1.15,0,0,1,19.48,221.61Zm2.42-4.05-1.61,1.61-4.88-4.88,6.51-6.51,4.88,4.88-1.61,1.61,0,0-3.25,3.25Zm2.05,1.2h0l-.4.41a.58.58,0,0,1-.41.17.57.57,0,0,1-.41-.17.58.58,0,0,1-.17-.41.59.59,0,0,1,.16-.4L26,215.09a.59.59,0,0,1,.81,0,.57.57,0,0,1,.17.41.56.56,0,0,1-.17.4l-.4.41h0Zm1.2.44,1.68-1.69L34,223.72l-2.6,2.6Zm7,8,2.71-2.71.86.76-2.82,2.82Zm7.4,3.74a2.35,2.35,0,0,1-1.72,1.2,2.31,2.31,0,0,1-1.95-.65l-.12-.14h0l-2.09-2.41L36.55,226,39,228.09h0a2.51,2.51,0,0,1,.48.54A2.29,2.29,0,0,1,39.51,230.93Z"/><path class="cls-4" d="M22.33,209.81a.59.59,0,0,0-.82,0l-2.44,2.44a.59.59,0,0,0,0,.82.57.57,0,0,0,.41.16.57.57,0,0,0,.4-.16l2.45-2.45A.58.58,0,0,0,22.33,209.81Z"/><g id="_18" data-name="18"><path class="cls-4" d="M291.93,230a.8.8,0,0,1-.8-.8V211.67a.8.8,0,0,1,.8-.79h12a.8.8,0,0,1,.8.79V215a.8.8,0,0,1-1.59,0v-2.49H292.72v15.92h10.45V225.9a.8.8,0,0,1,1.59,0v3.28a.8.8,0,0,1-.8.8Z"/><path class="cls-4" d="M295.21,216.84a.79.79,0,0,1,0-1.58h5.47a.79.79,0,1,1,0,1.58Z"/><path class="cls-4" d="M295.21,221.22a.79.79,0,0,1-.79-.79.79.79,0,0,1,.79-.8h5.47a.8.8,0,0,1,.8.8.79.79,0,0,1-.8.79Z"/><path class="cls-4" d="M295.21,225.6a.8.8,0,0,1,0-1.59h5.47a.8.8,0,1,1,0,1.59Z"/><path class="cls-4" d="M308.34,230a.79.79,0,0,1-.79-.8V225.9a.79.79,0,0,1,.79-.79.79.79,0,0,1,.8.79v2.49h10.45V212.47H309.14V215a.8.8,0,0,1-.8.79.79.79,0,0,1-.79-.79v-3.29a.79.79,0,0,1,.79-.79h12a.79.79,0,0,1,.79.79v17.51a.79.79,0,0,1-.79.8Z"/><path class="cls-4" d="M311.63,226.69a1.06,1.06,0,0,1-.31-.05.81.81,0,0,1-.49-.74v-2.49h-8a.8.8,0,0,1,0-1.59h8.76a.8.8,0,0,1,.79.8V224l3.55-3.55-3.55-3.56v1.37a.79.79,0,0,1-.79.79h-8.76a.79.79,0,0,1-.79-.79.79.79,0,0,1,.79-.8h8V215a.8.8,0,0,1,.49-.74.81.81,0,0,1,.31-.06.79.79,0,0,1,.56.23l5.47,5.48a.79.79,0,0,1,0,1.12l-5.47,5.47A.79.79,0,0,1,311.63,226.69Z"/></g><path class="cls-4" d="M32.21,37.62l-.81.44c-2.31,1.29-4.93,2.74-7.45,2.51L15,39.78h-2.5V35.36H15a.38.38,0,0,0,.25-.09A10.18,10.18,0,0,1,17,34.12a.39.39,0,0,0-.36-.7,12,12,0,0,0-1.81,1.15H12.14a.39.39,0,0,0-.39.4v5.2a.38.38,0,0,0,.39.39H15l8.91.8c.2,0,.4,0,.6,0,2.55,0,5.07-1.39,7.3-2.63l.81-.44a.39.39,0,0,0,.15-.54.38.38,0,0,0-.53-.15Z"/><path class="cls-4" d="M38.24,33.26a1.5,1.5,0,0,0-1.78-.48,1.33,1.33,0,0,0-.25-.71,1.35,1.35,0,0,0-1.73-.41l-.94.49a1.35,1.35,0,0,0-2-1.11l-.7.38a1.33,1.33,0,0,0-.27-.76,1.38,1.38,0,0,0-1.76-.41L23.77,32.9a8.63,8.63,0,0,0-4.49-.42,10.29,10.29,0,0,0-1.12.29.4.4,0,0,0-.24.5.38.38,0,0,0,.49.25,8.49,8.49,0,0,1,1-.26,7.88,7.88,0,0,1,4.2.43.45.45,0,0,0,.16,0h5.26a.68.68,0,0,1,.67.68.69.69,0,0,1-.59.68l-6.66.84a.39.39,0,0,0,0,.78L25.3,37a12.88,12.88,0,0,0,7.88-1.55l3.53-2a.71.71,0,0,1,.9.2.73.73,0,0,1-.23,1.07l-3.79,2.06c-.45.24-.06,1,.38.69l3.79-2.06a1.52,1.52,0,0,0,.75-1,1.54,1.54,0,0,0-.27-1.23ZM29.18,31A.6.6,0,1,1,29.75,32l-1.7.93H25.39ZM29.54,33l2.39-1.29a.56.56,0,0,1,.53,1l-2.07,1.09a1.5,1.5,0,0,0-.85-.79Zm3.26,1.79a12.23,12.23,0,0,1-7,1.49l3.48-.44a1.49,1.49,0,0,0,1.26-1.21l4.35-2.29a.56.56,0,0,1,.73.17.58.58,0,0,1-.18.84Z"/><path class="cls-4" d="M20.91,25.27A2.94,2.94,0,0,0,22.18,25a.39.39,0,0,0,.18-.53.39.39,0,0,0-.52-.18,2.14,2.14,0,0,1-.93.21,2.18,2.18,0,1,1,2.17-2.18,2.13,2.13,0,0,1-.27,1.05.39.39,0,1,0,.69.38,3,3,0,1,0-2.59,1.53Z"/><path class="cls-4" d="M14.76,23.48l.82.13a5.32,5.32,0,0,0,.65,1.56l-.49.66a.79.79,0,0,0,.07,1l.56.56a.79.79,0,0,0,1,.07l.66-.49a5.32,5.32,0,0,0,1.56.65l.13.82a.77.77,0,0,0,.77.66h.79a.79.79,0,0,0,.78-.66l.12-.82A5.32,5.32,0,0,0,23.76,27l.66.49a.79.79,0,0,0,1-.07l.56-.56a.79.79,0,0,0,.08-1l-.49-.66a5.58,5.58,0,0,0,.64-1.56l.82-.13a.77.77,0,0,0,.66-.77h2.34v5a.92.92,0,0,0,.91.92h1.68a1.8,1.8,0,1,0,0-.79H31a.13.13,0,0,1-.13-.13v-5h1.81a1.8,1.8,0,1,0,0-.79H30.83v-5a.13.13,0,0,1,.13-.13h1.68a1.8,1.8,0,1,0,0-.79H31a.92.92,0,0,0-.91.92v5H27.71a.79.79,0,0,0-.66-.78L26.23,21a5.58,5.58,0,0,0-.64-1.56l.49-.66a.78.78,0,0,0-.08-1l-.56-.56a.79.79,0,0,0-1-.08l-.66.49A5.58,5.58,0,0,0,22.2,17l-.12-.82a.79.79,0,0,0-.78-.66h-.79a.77.77,0,0,0-.77.66l-.13.82a5.58,5.58,0,0,0-1.56.64l-.66-.49a.78.78,0,0,0-1,.08l-.56.56a.79.79,0,0,0-.07,1l.49.66A5.32,5.32,0,0,0,15.58,21l-.82.12a.79.79,0,0,0-.66.78v.79a.77.77,0,0,0,.66.77ZM34.4,27.23a1,1,0,1,1,0,2,1,1,0,1,1,0-2Zm0-5.93a1,1,0,1,1,0,2,1,1,0,0,1,0-2Zm0-5.93a1,1,0,0,1,0,2,1,1,0,1,1,0-2ZM14.89,21.92,16,21.76a.39.39,0,0,0,.32-.32A4.61,4.61,0,0,1,17,19.67a.41.41,0,0,0,0-.46l-.65-.88.56-.55.88.65a.39.39,0,0,0,.45,0A4.65,4.65,0,0,1,20,17.7a.38.38,0,0,0,.31-.33l.16-1.08h.79l.16,1.08a.39.39,0,0,0,.32.33,4.61,4.61,0,0,1,1.77.74.41.41,0,0,0,.46,0l.88-.65.55.55-.65.88a.41.41,0,0,0,0,.46,4.61,4.61,0,0,1,.74,1.77.39.39,0,0,0,.33.32l1.08.16v.79l-1.08.16a.38.38,0,0,0-.33.31A4.65,4.65,0,0,1,24.78,25a.41.41,0,0,0,0,.46l.65.87-.55.56L24,26.2a.41.41,0,0,0-.46,0,4.61,4.61,0,0,1-1.77.74.39.39,0,0,0-.32.32l-.16,1.08h-.79l-.16-1.08a.38.38,0,0,0-.31-.32,4.65,4.65,0,0,1-1.78-.74.41.41,0,0,0-.46,0l-.87.65-.56-.56.65-.87A.41.41,0,0,0,17,25a4.65,4.65,0,0,1-.74-1.78.38.38,0,0,0-.32-.31l-1.08-.16Z"/><path class="cls-4" d="M295.74,130.51a2.59,2.59,0,0,1-2.58-2.58V115.21a2.62,2.62,0,0,1,2.58-2.57h18.17a3,3,0,0,1,.52,0,2.6,2.6,0,0,1,2.05,2.53v3.63a.76.76,0,1,1-1.51,0v-2.31l-8.85,5.15a2.65,2.65,0,0,1-1.3.34,2.71,2.71,0,0,1-1.3-.34l-8.84-5.15v11.39a1.05,1.05,0,0,0,1.06,1.06H303a.76.76,0,0,1,0,1.52Zm0-16.35a1,1,0,0,0-.91.54l-.07.13,9.53,5.56a1.08,1.08,0,0,0,.53.14,1.14,1.14,0,0,0,.54-.14l9.52-5.56-.07-.13a1,1,0,0,0-.9-.54Z"/><path class="cls-4" d="M313,136a7.12,7.12,0,1,1,7.12-7.12A7.12,7.12,0,0,1,313,136Zm0-12.72a5.6,5.6,0,1,0,5.6,5.6A5.6,5.6,0,0,0,313,123.24Z"/><path class="cls-4" d="M313,133.23a.76.76,0,1,1,.76-.76A.76.76,0,0,1,313,133.23Z"/><path class="cls-4" d="M313,130.51a.76.76,0,0,1-.76-.76v-4.54a.76.76,0,1,1,1.52,0v4.54A.76.76,0,0,1,313,130.51Z"/><path class="cls-4" d="M308.88,24a.51.51,0,0,0-.51.51.51.51,0,0,0,1,0A.51.51,0,0,0,308.88,24Z"/><path class="cls-4" d="M318.47,36.76,311.74,30a10.08,10.08,0,1,0-2.85,2.85l1.86,1.86h0l4.87,4.87a2,2,0,0,0,2.85-2.85Zm-9.82-4.94h0a9.1,9.1,0,1,1,2-2A9.31,9.31,0,0,1,308.65,31.82Zm1.06.45a10.1,10.1,0,0,0,1.43-1.42l1.43,1.43a12.78,12.78,0,0,1-1.43,1.42Zm8.05,6.63a1,1,0,0,1-.71.29,1,1,0,0,1-.72-.29l-4.47-4.48A13.69,13.69,0,0,0,313.28,33l4.48,4.48a1,1,0,0,1,.29.71A1,1,0,0,1,317.76,38.9Z"/><path class="cls-4" d="M303.33,16.4a8.07,8.07,0,1,0,8.07,8.07A8.08,8.08,0,0,0,303.33,16.4Zm0,15.13a7.06,7.06,0,1,1,7.06-7.06A7.07,7.07,0,0,1,303.33,31.53Z"/><path class="cls-4" d="M309,22.3a6,6,0,0,0-2.19-2.79,6,6,0,0,0-3.46-1.09.5.5,0,0,0,0,1A5.1,5.1,0,0,1,308,22.66a.52.52,0,0,0,.47.33.39.39,0,0,0,.18,0A.5.5,0,0,0,309,22.3Z"/><path class="cls-4" d="M31.93,114.52a.74.74,0,0,0,.51-.21.72.72,0,0,0,0-1,.74.74,0,0,0-.51-.21.76.76,0,0,0-.52.21.75.75,0,0,0,0,1A.76.76,0,0,0,31.93,114.52Z"/><path class="cls-4" d="M37.48,113.06H34.85a.73.73,0,1,0,0,1.46h1.9v3.21H27.11v-3.21H29a.73.73,0,0,0,0-1.46H26.38a.73.73,0,0,0-.73.73v1.61h-4.3a.73.73,0,0,0-.73.73v7.44H17.76V120.5a.73.73,0,0,0-.73-.73H9.44a.72.72,0,0,0-.73.73v7.59a.73.73,0,0,0,.73.73H17a.73.73,0,0,0,.73-.73V125h2.86v7.44a.73.73,0,0,0,.73.73h4.3v1.61a.73.73,0,0,0,.73.73h11.1a.73.73,0,0,0,.73-.73v-4.68a.73.73,0,0,0-.73-.73H26.38a.73.73,0,0,0-.73.73v1.61H22.08V125h3.57v1.6a.73.73,0,0,0,.73.73h11.1a.73.73,0,0,0,.73-.73V122a.73.73,0,0,0-.73-.73H26.38a.72.72,0,0,0-.73.73v1.61H22.08v-6.71h3.57v1.6a.72.72,0,0,0,.73.73h11.1a.73.73,0,0,0,.73-.73v-4.67A.73.73,0,0,0,37.48,113.06ZM16.3,127.36H10.17v-6.13H16.3Zm10.81,3.5h9.64v3.22H27.11Zm0-8.17h9.64v3.21H27.11Z"/></g></g></svg>