<svg xmlns="http://www.w3.org/2000/svg" viewBox="0 0 53.43 54.39"><defs><style>.cls-1,.cls-2{fill:none;stroke-miterlimit:10;}.cls-1{stroke:#1e5ca8;}.cls-2{stroke:#00b2e2;}</style></defs><g id="Capa_2" data-name="Capa 2"><g id="Capa_1-2" data-name="Capa 1"><rect class="cls-1" x="35.06" y="21.11" width="9.55" height="16.75" rx="2.06" transform="translate(-6.25 11.26) rotate(-14.93)"/><line class="cls-1" x1="0.5" y1="12.59" x2="15.01" y2="12.59"/><line class="cls-1" x1="0.5" y1="41.76" x2="15.01" y2="41.76"/><line class="cls-1" x1="0.5" y1="46.35" x2="15.01" y2="46.35"/><line class="cls-1" x1="15.01" y1="5.82" x2="27.46" y2="5.82"/><line class="cls-1" x1="15.01" y1="10.93" x2="27.46" y2="10.93"/><line class="cls-1" x1="15.01" y1="44.37" x2="27.46" y2="44.37"/><line class="cls-1" x1="15.01" y1="48.07" x2="27.46" y2="48.07"/><rect class="cls-1" x="5.44" y="18.14" width="5.3" height="5.3" rx="1.34"/><line class="cls-1" x1="37.23" y1="47.92" x2="51.26" y2="44.19"/><line class="cls-1" x1="35.56" y1="42.72" x2="49.58" y2="38.98"/><line class="cls-1" x1="29.74" y1="20.9" x2="43.76" y2="17.16"/><line class="cls-1" x1="29.07" y1="17.31" x2="43.09" y2="13.57"/><rect class="cls-2" x="0.5" y="7.76" width="14.51" height="46.02"/><rect class="cls-2" x="32.91" y="8.89" width="14.51" height="43.75" transform="translate(-6.57 11.39) rotate(-14.93)"/><rect class="cls-2" x="15.01" y="0.5" width="12.45" height="53.28"/></g></g></svg>