<svg xmlns="http://www.w3.org/2000/svg" viewBox="0 0 45.98 48.67"><defs><style>.cls-1,.cls-2{fill:none;stroke-miterlimit:10;}.cls-1{stroke:#1e5ca8;}.cls-2{stroke:#00b2e2;}</style></defs><g id="Capa_2" data-name="Capa 2"><g id="Capa_1-2" data-name="Capa 1"><line class="cls-1" x1="0.5" y1="13.15" x2="45.48" y2="13.15"/><line class="cls-2" x1="32.69" y1="3.83" x2="13.18" y2="3.83"/><path class="cls-2" d="M38.48,3.83h4.17a2.83,2.83,0,0,1,2.83,2.83V45.34a2.83,2.83,0,0,1-2.83,2.83H3.33A2.83,2.83,0,0,1,.5,45.34V6.66A2.83,2.83,0,0,1,3.33,3.83H7.39"/><rect class="cls-2" x="7.39" y="0.5" width="5.79" height="6.82"/><rect class="cls-2" x="32.69" y="0.5" width="5.79" height="6.82"/><path class="cls-1" d="M9.93,19.49h5.55a0,0,0,0,1,0,0V27.1a0,0,0,0,1,0,0H7.86a0,0,0,0,1,0,0V21.55A2.06,2.06,0,0,1,9.93,19.49Z"/><rect class="cls-1" x="15.48" y="19.49" width="7.62" height="7.62"/><rect class="cls-1" x="23.1" y="19.49" width="7.62" height="7.62"/><path class="cls-1" d="M30.72,19.49h5.55a2.06,2.06,0,0,1,2.06,2.06V27.1a0,0,0,0,1,0,0H30.72a0,0,0,0,1,0,0V19.49A0,0,0,0,1,30.72,19.49Z"/><rect class="cls-1" x="7.86" y="27.1" width="7.62" height="7.62"/><rect class="cls-1" x="15.48" y="27.1" width="7.62" height="7.62"/><rect class="cls-1" x="23.1" y="27.1" width="7.62" height="7.62"/><rect class="cls-1" x="30.72" y="27.1" width="7.62" height="7.62"/><path class="cls-1" d="M7.86,34.72h7.62a0,0,0,0,1,0,0v7.62a0,0,0,0,1,0,0H9.93a2.06,2.06,0,0,1-2.06-2.06V34.72A0,0,0,0,1,7.86,34.72Z"/><rect class="cls-1" x="15.48" y="34.72" width="7.62" height="7.62"/><rect class="cls-1" x="23.1" y="34.72" width="7.62" height="7.62"/><path class="cls-1" d="M30.72,34.72h7.62a0,0,0,0,1,0,0v5.55a2.06,2.06,0,0,1-2.06,2.06H30.72a0,0,0,0,1,0,0V34.72a0,0,0,0,1,0,0Z"/></g></g></svg>