<svg xmlns="http://www.w3.org/2000/svg" viewBox="0 0 51.46 44.08"><defs><style>.cls-1{fill:#1e5ca8;}.cls-2{fill:#00b2e2;}</style></defs><g id="Capa_2" data-name="Capa 2"><g id="Capa_1-2" data-name="Capa 1"><path class="cls-1" d="M5.83,19.37a1.18,1.18,0,0,1-1.19-1.18V15a1.18,1.18,0,0,1,1.19-1.18H15.3A1.18,1.18,0,0,1,16.49,15v3.18a1.18,1.18,0,0,1-1.19,1.18Zm-.21-1H15.5V14.81H5.62Z"/><path class="cls-2" d="M9.41,44.07a.47.47,0,0,1-.35-.15.48.48,0,0,1-.14-.35.49.49,0,0,1,.49-.49l36.05,0a1,1,0,0,0,1-1V12.53A1.58,1.58,0,0,0,44.89,11H21.5a4.46,4.46,0,0,1-3.71-2l-.55-.81a3.45,3.45,0,0,0-2.89-1.55H3.56A2.58,2.58,0,0,0,1,9.18V41.37a1.7,1.7,0,0,0,1.68,1.71H5.82a.49.49,0,0,1,.49.49.5.5,0,0,1-.49.5H2.72A2.68,2.68,0,0,1,0,41.37V9.18A3.55,3.55,0,0,1,3.56,5.63H4V3.55A3.55,3.55,0,0,1,7.57,0H18.36a4.48,4.48,0,0,1,3.72,2l.54.81a3.45,3.45,0,0,0,2.89,1.54h8.68a.5.5,0,0,1,.49.5.49.49,0,0,1-.49.49H25.51a4.46,4.46,0,0,1-3.71-2l-.54-.81A3.48,3.48,0,0,0,18.36,1H7.57a2.51,2.51,0,0,0-1.81.76A2.53,2.53,0,0,0,5,3.55V5.63h9.35a4.45,4.45,0,0,1,3.71,2l.55.81A3.45,3.45,0,0,0,21.5,10H44.89a2.56,2.56,0,0,1,2.56,2.56V37.47h2a1,1,0,0,0,1-1V6.9a1.58,1.58,0,0,0-1.57-1.57H37.76a.49.49,0,0,1-.49-.49.5.5,0,0,1,.49-.5H48.91A2.56,2.56,0,0,1,51.46,6.9V36.46a2,2,0,0,1-2,2h-2v3.64a2,2,0,0,1-1.93,2H9.41Z"/></g></g></svg>