<svg xmlns="http://www.w3.org/2000/svg" xmlns:xlink="http://www.w3.org/1999/xlink" viewBox="0 0 386.39 308.64"><defs><style>.cls-1{fill:none;}.cls-2{isolation:isolate;}.cls-3{clip-path:url(#clip-path);}.cls-4{fill:url(#Degradado_sin_nombre_55);}.cls-5{fill:url(#Degradado_sin_nombre_41);}.cls-6{fill:#efabab;}.cls-7,.cls-8{fill:url(#linear-gradient);}.cls-11,.cls-13,.cls-56,.cls-8{mix-blend-mode:screen;}.cls-12,.cls-15,.cls-32,.cls-34,.cls-39,.cls-56,.cls-8{opacity:0.5;}.cls-9{fill:#dd8c8c;}.cls-10,.cls-11{fill:url(#linear-gradient-3);}.cls-12{fill:#7c1240;}.cls-13,.cls-20,.cls-21,.cls-43,.cls-48{opacity:0.35;}.cls-14{fill:#be3966;}.cls-15,.cls-20,.cls-21,.cls-30,.cls-32,.cls-34,.cls-39,.cls-43,.cls-48{mix-blend-mode:multiply;}.cls-15{fill:url(#linear-gradient-5);}.cls-16{fill:#f68895;}.cls-17{fill:#f17785;}.cls-18{fill:#35132f;}.cls-19{fill:url(#Áåçûìÿííûé_ãðàäèåíò_6);}.cls-20{fill:url(#Áåçûìÿííûé_ãðàäèåíò_6-2);}.cls-21{fill:url(#Áåçûìÿííûé_ãðàäèåíò_6-3);}.cls-22{fill:url(#Áåçûìÿííûé_ãðàäèåíò_33);}.cls-23{fill:#13637c;}.cls-24{fill:url(#linear-gradient-6);}.cls-25{fill:#1e769a;}.cls-26{fill:#631a5f;}.cls-27{fill:url(#Áåçûìÿííûé_ãðàäèåíò_33-2);}.cls-28{fill:url(#Áåçûìÿííûé_ãðàäèåíò_33-3);}.cls-29,.cls-30{fill:url(#linear-gradient-7);}.cls-30{opacity:0.75;}.cls-31,.cls-32{fill:url(#linear-gradient-9);}.cls-33,.cls-34{fill:url(#linear-gradient-11);}.cls-35{fill:url(#linear-gradient-13);}.cls-36{fill:url(#linear-gradient-14);}.cls-37{fill:url(#linear-gradient-15);}.cls-38{fill:#54254f;}.cls-40{fill:url(#linear-gradient-16);}.cls-41{fill:url(#linear-gradient-17);}.cls-42{fill:url(#linear-gradient-18);}.cls-43{fill:url(#linear-gradient-19);}.cls-44{fill:url(#Áåçûìÿííûé_ãðàäèåíò_6-4);}.cls-45{fill:#30112a;}.cls-46{fill:url(#Áåçûìÿííûé_ãðàäèåíò_6-5);}.cls-47{fill:url(#Áåçûìÿííûé_ãðàäèåíò_33-4);}.cls-48{fill:url(#Áåçûìÿííûé_ãðàäèåíò_6-6);}.cls-49{fill:#fff;}.cls-50{fill:url(#Áåçûìÿííûé_ãðàäèåíò_5);}.cls-51{fill:#4a1c40;}.cls-52{fill:url(#linear-gradient-20);}.cls-53{fill:url(#linear-gradient-21);}.cls-54{fill:url(#Áåçûìÿííûé_ãðàäèåíò_33-5);}.cls-55{fill:url(#Degradado_sin_nombre_54);}.cls-56{fill:url(#Degradado_sin_nombre_54-2);}.cls-57{fill:#00877a;}</style><clipPath id="clip-path" transform="translate(0 62.19)"><path class="cls-1" d="M34.75,195.84c-19.16-21.5-30.66-47.7-32.08-74.3-2.7-50.6,26-123.78,216-118.8,40.53,1.06,81.82,8,115.26,26.9,19.78,11.2,36.09,26.85,44,45.45,8.74,20.59,6.8,43.45,1.13,65.06-7.15,27.27-21.14,54.83-47.73,72.79-23.22,15.67-53.44,22.33-82.93,26.35C177.09,249,80.75,247.46,34.75,195.84Z"/></clipPath><linearGradient id="Degradado_sin_nombre_55" x1="2343.51" y1="209" x2="2343.51" y2="-94.4" gradientTransform="matrix(1, 0, 0, -1, -2150.46, 150.33)" gradientUnits="userSpaceOnUse"><stop offset="0" stop-color="#b4deee"/><stop offset="0.3" stop-color="#cee9f3"/><stop offset="0.75" stop-color="#eff7fa"/><stop offset="1" stop-color="#fcfcfc"/></linearGradient><linearGradient id="Degradado_sin_nombre_41" x1="2537.96" y1="261.12" x2="2160.82" y2="148.6" gradientTransform="matrix(-1, 0, 0, 1, 2536.55, 0)" gradientUnits="userSpaceOnUse"><stop offset="0" stop-color="#cbcbff"/><stop offset="0.35" stop-color="#ceceff"/><stop offset="0.59" stop-color="#d7d7ff"/><stop offset="0.79" stop-color="#e6e6ff"/><stop offset="0.98" stop-color="#fbfbff"/><stop offset="1" stop-color="#fff"/></linearGradient><linearGradient id="linear-gradient" x1="2471.56" y1="160.53" x2="2224.07" y2="74.08" gradientTransform="matrix(-1, 0, 0, 1, 2536.55, 62.19)" gradientUnits="userSpaceOnUse"><stop offset="0" stop-color="#7c1240"/><stop offset="0.25" stop-color="#901e4c"/><stop offset="0.74" stop-color="#b1325f"/><stop offset="1" stop-color="#be3966"/></linearGradient><linearGradient id="linear-gradient-3" x1="2484.82" y1="113.56" x2="2251.45" y2="34.54" xlink:href="#linear-gradient"/><linearGradient id="linear-gradient-5" x1="2147.58" y1="141.89" x2="1916.7" y2="75.38" gradientTransform="matrix(-1.94, 0.03, 0.03, 1, 4191.6, -45.27)" xlink:href="#linear-gradient"/><linearGradient id="Áåçûìÿííûé_ãðàäèåíò_6" x1="2328.08" y1="82.61" x2="2338.48" y2="130.41" gradientTransform="matrix(-1, 0, 0, 1, 2536.55, 0)" gradientUnits="userSpaceOnUse"><stop offset="0" stop-color="#4a1c40"/><stop offset="0.58" stop-color="#4c1d42"/><stop offset="0.9" stop-color="#51224a"/><stop offset="1" stop-color="#54254f"/></linearGradient><linearGradient id="Áåçûìÿííûé_ãðàäèåíò_6-2" x1="2334.47" y1="107.66" x2="2337.69" y2="107.66" xlink:href="#Áåçûìÿííûé_ãðàäèåíò_6"/><linearGradient id="Áåçûìÿííûé_ãðàäèåíò_6-3" x1="2326.67" y1="84.86" x2="2340.84" y2="84.86" xlink:href="#Áåçûìÿííûé_ãðàäèåíò_6"/><linearGradient id="Áåçûìÿííûé_ãðàäèåíò_33" x1="2478.36" y1="-93.95" x2="2480.89" y2="-105.7" gradientTransform="matrix(-0.99, 0.14, 0.14, 0.99, 2674.31, -187.77)" gradientUnits="userSpaceOnUse"><stop offset="0" stop-color="#631a5f"/><stop offset="1" stop-color="#9c4188"/></linearGradient><linearGradient id="linear-gradient-6" x1="2338.72" y1="86.15" x2="2327.46" y2="61.61" gradientTransform="matrix(-1, 0, 0, 1, 2536.55, 0)" gradientUnits="userSpaceOnUse"><stop offset="0" stop-color="#1e769a"/><stop offset="1" stop-color="#2698a2"/></linearGradient><linearGradient id="Áåçûìÿííûé_ãðàäèåíò_33-2" x1="2478.36" y1="-95.13" x2="2481.98" y2="-105.72" xlink:href="#Áåçûìÿííûé_ãðàäèåíò_33"/><linearGradient id="Áåçûìÿííûé_ãðàäèåíò_33-3" x1="2478.15" y1="-102.59" x2="2478.17" y2="-102.66" xlink:href="#Áåçûìÿííûé_ãðàäèåíò_33"/><linearGradient id="linear-gradient-7" x1="2298.19" y1="125.55" x2="2318.09" y2="86.78" gradientTransform="matrix(-1, 0, 0, 1, 2536.55, 0)" gradientUnits="userSpaceOnUse"><stop offset="0" stop-color="#faa339"/><stop offset="0.36" stop-color="#faaa3a"/><stop offset="0.89" stop-color="#f9be3c"/><stop offset="1" stop-color="#f9c33d"/></linearGradient><linearGradient id="linear-gradient-9" x1="2315.14" y1="114.24" x2="2319.09" y2="131.27" xlink:href="#linear-gradient-7"/><linearGradient id="linear-gradient-11" x1="2293.48" y1="136.83" x2="2330.1" y2="99.86" xlink:href="#linear-gradient-7"/><linearGradient id="linear-gradient-13" x1="2288.92" y1="126.69" x2="2320.68" y2="90.62" xlink:href="#linear-gradient-7"/><linearGradient id="linear-gradient-14" x1="2292.75" y1="133.59" x2="2329.44" y2="100.45" xlink:href="#linear-gradient-7"/><linearGradient id="linear-gradient-15" x1="2300.28" y1="136.69" x2="2332.03" y2="100.62" xlink:href="#linear-gradient-7"/><linearGradient id="linear-gradient-16" x1="2256.63" y1="259.22" x2="2262.6" y2="259.22" gradientTransform="matrix(-1, -0.07, -0.07, 1, 2504.77, 25.35)" xlink:href="#linear-gradient-7"/><linearGradient id="linear-gradient-17" x1="2308.26" y1="91.95" x2="2310.54" y2="91.95" xlink:href="#linear-gradient-7"/><linearGradient id="linear-gradient-18" x1="2308.31" y1="118.25" x2="2311.16" y2="118.25" xlink:href="#linear-gradient-7"/><linearGradient id="linear-gradient-19" x1="2317.64" y1="114.46" x2="2316.83" y2="99.31" xlink:href="#linear-gradient-7"/><linearGradient id="Áåçûìÿííûé_ãðàäèåíò_6-4" x1="3029.3" y1="-443.54" x2="3035.65" y2="-459.89" gradientTransform="matrix(-0.92, 0.4, 0.4, 0.92, 3138.51, -730)" xlink:href="#Áåçûìÿííûé_ãðàäèåíò_6"/><linearGradient id="Áåçûìÿííûé_ãðàäèåíò_6-5" x1="147.1" y1="40.79" x2="154.75" y2="91.67" gradientTransform="translate(28.44 45.21) rotate(-2.65)" xlink:href="#Áåçûìÿííûé_ãðàäèåíò_6"/><linearGradient id="Áåçûìÿííûé_ãðàäèåíò_33-4" x1="2477.84" y1="-35.53" x2="2471.76" y2="-52.23" gradientTransform="matrix(-0.99, 0.12, 0.12, 0.99, 2638.7, -190.84)" xlink:href="#Áåçûìÿííûé_ãðàäèåíò_33"/><linearGradient id="Áåçûìÿííûé_ãðàäèåíò_6-6" x1="145.77" y1="38.46" x2="146.38" y2="93.62" gradientTransform="translate(28.44 45.21) rotate(-2.65)" xlink:href="#Áåçûìÿííûé_ãðàäèåíò_6"/><linearGradient id="Áåçûìÿííûé_ãðàäèåíò_5" x1="2493.31" y1="-42.45" x2="2488.62" y2="-56.35" gradientTransform="matrix(-0.99, 0.14, 0.14, 0.99, 2639.83, -207.34)" gradientUnits="userSpaceOnUse"><stop offset="0" stop-color="#4a1c40"/><stop offset="0.47" stop-color="#51224a"/><stop offset="1" stop-color="#54254f"/></linearGradient><linearGradient id="linear-gradient-20" x1="2414.77" y1="72.33" x2="2404.89" y2="42.71" gradientTransform="matrix(-1, 0.05, 0.05, 1, 2571.49, -71.97)" xlink:href="#linear-gradient-7"/><linearGradient id="linear-gradient-21" x1="2417.56" y1="72.28" x2="2406.64" y2="45.95" gradientTransform="matrix(-1, 0.05, 0.05, 1, 2571.49, -71.97)" xlink:href="#linear-gradient-7"/><linearGradient id="Áåçûìÿííûé_ãðàäèåíò_33-5" x1="2434.2" y1="6.84" x2="2428.12" y2="-9.87" gradientTransform="matrix(-1, 0.08, 0.08, 1, 2602.59, -125.76)" xlink:href="#Áåçûìÿííûé_ãðàäèåíò_33"/><linearGradient id="Degradado_sin_nombre_54" x1="2506.56" y1="252.19" x2="2168.07" y2="161.83" gradientTransform="matrix(-1, 0, 0, 1, 2536.55, 0)" gradientUnits="userSpaceOnUse"><stop offset="0" stop-color="#cbcbff"/><stop offset="0.05" stop-color="#ceceff"/><stop offset="0.66" stop-color="#efeffd"/><stop offset="1" stop-color="#fcfcfc"/></linearGradient><linearGradient id="Degradado_sin_nombre_54-2" x1="2505.29" y1="255.24" x2="2172.05" y2="189.68" xlink:href="#Degradado_sin_nombre_54"/></defs><g class="cls-2"><g id="Capa_2" data-name="Capa 2"><g id="Capa_1-2" data-name="Capa 1"><g class="cls-3"><rect class="cls-4" x="0.62" y="-62.19" width="384.86" height="274.71" transform="translate(386.09 212.52) rotate(-180)"/><path class="cls-5" d="M.62,161.58v84.16H381.81V156.09c-14.91-1.79-30.79.69-45.58,4.25-12.94,3.12-26,7-39.07,9.26-10.39,1.8-20.83,2.6-31.3,1.23-27.55-3.6-53-22-80.6-18.71-20.55,2.44-38,16.62-58.18,21-23.25,5.06-47-3.26-70-9.33l-.44-.12C38.39,158.92,18,155.92.62,161.58Z" transform="translate(0 62.19)"/><path class="cls-6" d="M79.27,146.21v56.38a108.54,108.54,0,0,0,24.1-.27c32.4-4.23,62.34-25.87,94.79-22,24.17,2.88,44.64,19.56,68.43,24.74,12.08,2.63,24.27,2.18,36.46.25V146.21Z" transform="translate(0 62.19)"/><polygon class="cls-7" points="302.94 144.3 79.38 144.3 68.58 209.23 313.74 209.23 302.94 144.3"/><polygon class="cls-8" points="302.94 144.3 79.38 144.3 68.58 209.23 313.74 209.23 302.94 144.3"/><polygon class="cls-9" points="79.27 219.39 303.05 214.69 303.05 209.23 79.27 209.23 79.27 219.39"/><rect class="cls-10" x="114.61" y="132.15" width="28.39" height="35.01"/><rect class="cls-11" x="114.61" y="132.15" width="28.39" height="35.01"/><polygon class="cls-12" points="114.61 167.16 114.61 144.3 102.68 144.3 114.61 167.16"/><g class="cls-13"><rect class="cls-14" x="277.15" y="88.61" width="15.12" height="6.7" transform="translate(569.43 246.11) rotate(-180)"/><rect class="cls-14" x="268.47" y="97.29" width="15.12" height="6.7" transform="translate(552.07 263.47) rotate(-180)"/></g><g class="cls-13"><rect class="cls-14" x="87.55" y="124.33" width="15.12" height="6.7" transform="translate(190.23 317.56) rotate(-180)"/><rect class="cls-14" x="78.88" y="133.01" width="15.12" height="6.7" transform="translate(172.87 334.91) rotate(-180)"/></g><g class="cls-13"><rect class="cls-14" x="139.82" y="139.75" width="3.18" height="6.7"/><rect class="cls-14" x="131.14" y="148.43" width="11.86" height="6.7"/></g><g class="cls-13"><rect class="cls-14" x="173.2" y="165.61" width="15.12" height="6.7"/><rect class="cls-14" x="181.88" y="174.29" width="15.12" height="6.7"/></g><path class="cls-15" d="M154.64,130.1c9.67,1.21,27.74,1.94,48.42,1.78s38.74-1.16,48.4-2.52c-9.68-1.21-27.74-1.94-48.43-1.78S164.29,128.74,154.64,130.1Z" transform="translate(0 62.19)"/><path class="cls-16" d="M180.16,77.24c0,.11.09.22.28.33a4.06,4.06,0,0,0,.84.33c.36.1.81.2,1.33.29l.84.13.94.11,1,.08.55,0,.57,0c.79,0,1.62,0,2.5,0s1.8-.1,2.75-.19,1.94-.25,2.94-.43l.87-.17.12,0a2.05,2.05,0,0,0,1.41-1l.17-.28c.49-.85.92-1.69,1.31-2.52a25.38,25.38,0,0,0,1-2.45,20.73,20.73,0,0,0,.62-2.29,14.64,14.64,0,0,0,.27-2.05,9.6,9.6,0,0,0,0-1.72,5.21,5.21,0,0,0-.31-1.33,2.43,2.43,0,0,0-.53-.87,1.23,1.23,0,0,0-.69-.38,1.29,1.29,0,0,0-.78.15,2.55,2.55,0,0,0-.77.63,5.94,5.94,0,0,0-.75,1,14.16,14.16,0,0,0-.72,1.41c-.23.53-.46,1.1-.69,1.73s-.45,1.29-.69,2c-.07.2-.13.4-.2.61-.17.52-.34,1.07-.52,1.63s-.32,1-.48,1.48l-2.28.64-2.5.65-2.29.56-.53.13-.51.12-1,.22-.89.21-.79.19c-.5.13-.93.24-1.29.35a4.17,4.17,0,0,0-.81.33C180.26,77,180.16,77.13,180.16,77.24Z" transform="translate(0 62.19)"/><path class="cls-17" d="M196.38,74.45a5.93,5.93,0,0,1-.77,3.32l.12,0a2.05,2.05,0,0,0,1.41-1l.17-.28c.49-.85.92-1.69,1.31-2.52a25.38,25.38,0,0,0,1-2.45,20.73,20.73,0,0,0,.62-2.29,14.64,14.64,0,0,0,.27-2.05,9.6,9.6,0,0,0,0-1.72,5.21,5.21,0,0,0-.31-1.33,2.43,2.43,0,0,0-.53-.87,1.23,1.23,0,0,0-.69-.38,1.29,1.29,0,0,0-.78.15,2.55,2.55,0,0,0-.77.63,5.94,5.94,0,0,0-.75,1,14.16,14.16,0,0,0-.72,1.41c-.23.53-.46,1.1-.69,1.73s-.45,1.29-.69,2c-.07.2-.13.4-.2.61A5.88,5.88,0,0,1,196.38,74.45Z" transform="translate(0 62.19)"/><path class="cls-16" d="M210.54,69.65c0,.33,0,.66.05,1s0,.71,0,1.09c0,.18,0,.37,0,.57s0,.19,0,.29,0,.19,0,.29c0,.4,0,.81.09,1.22,0,.21,0,.42,0,.64s0,.43,0,.65,0,.43,0,.66l0,.67c0,.23,0,.46,0,.69l0,.35c0,.11,0,.23,0,.35s0,.39,0,.58,0,.57,0,.85l0,1.44v1.39c0,.23,0,.46,0,.69s0,.45,0,.67,0,.44,0,.66,0,.43,0,.64c0,.43,0,.84-.05,1.25,0,.1,0,.2,0,.3s0,.2,0,.3,0,.39,0,.58c0,.38,0,.75-.05,1.1s-.06.7-.08,1c0,.66-.09,1.25-.12,1.78,0,.26,0,.51,0,.74s0,.44,0,.63c0,.77.08,1.23.3,1.31s.55-.25,1-.91c.11-.16.23-.35.35-.55s.23-.43.36-.68a18.6,18.6,0,0,0,.78-1.7c.13-.32.26-.66.4-1s.25-.73.38-1.11c.07-.2.13-.4.19-.6s.07-.2.1-.3.06-.21.08-.32c.12-.42.23-.85.35-1.3.06-.22.1-.45.15-.68l.15-.7c0-.24.1-.48.14-.72l.12-.74c0-.24.07-.5.11-.75l.06-.38c0-.13,0-.26,0-.39,0-.51.1-1,.14-1.57s.05-1.06.06-1.58c0-.13,0-.26,0-.39s0-.26,0-.39,0-.51,0-.76l0-.75c0-.24,0-.49-.05-.73s0-.48-.07-.72,0-.47-.08-.7c0-.39-.11-.78-.18-1.15l0-.18-.06-.32-.06-.32-.15-.61c-.1-.4-.19-.79-.3-1.16s-.23-.71-.35-1a13.24,13.24,0,0,0-.77-1.75c-.14-.25-.27-.48-.4-.68a5.26,5.26,0,0,0-.42-.55c-.54-.65-1-.93-1.45-.81s-.7.64-.85,1.43c0,.2-.06.41-.08.64s0,.49-.06.75C210.52,68.42,210.54,69,210.54,69.65Z" transform="translate(0 62.19)"/><path class="cls-17" d="M210.54,69.65c0,.33,0,.66.05,1s0,.71,0,1.09c0,.18,0,.37,0,.57s0,.19,0,.29,0,.19,0,.29c0,.4,0,.81.09,1.22,0,.21,0,.42,0,.64s0,.43,0,.65,0,.43,0,.66l0,.67c0,.23,0,.46,0,.69l0,.35c0,.11,0,.23,0,.35s0,.39,0,.58a13.44,13.44,0,0,1,1.19-3,7.9,7.9,0,0,1,3.28-3.25l0-.18-.06-.32-.06-.32-.15-.61c-.1-.4-.19-.79-.3-1.16s-.23-.71-.35-1a13.24,13.24,0,0,0-.77-1.75c-.14-.25-.27-.48-.4-.68a5.26,5.26,0,0,0-.42-.55c-.54-.65-1-.93-1.45-.81s-.7.64-.85,1.43c0,.2-.06.41-.08.64s0,.49-.06.75C210.52,68.42,210.54,69,210.54,69.65Z" transform="translate(0 62.19)"/><path class="cls-18" d="M210.6,124.53a8.32,8.32,0,0,1,1.31,4.78,28.85,28.85,0,0,1-5.09.06,3.9,3.9,0,0,1,.41-2.37,4.4,4.4,0,0,0,.41-2.38A29.35,29.35,0,0,1,210.6,124.53Z" transform="translate(0 62.19)"/><path class="cls-18" d="M200.15,123.7a11.55,11.55,0,0,0,.25,5.29,21.71,21.71,0,0,1-7.28.29,1.17,1.17,0,0,1,.12-1.36,2.4,2.4,0,0,1,1.21-.71,9.25,9.25,0,0,0,1.35-.44,2.68,2.68,0,0,0,1.43-2.69A5,5,0,0,1,200.15,123.7Z" transform="translate(0 62.19)"/><path class="cls-19" d="M196.22,124.07a1,1,0,0,0,.94.88q1.28.09,2.58.15a.9.9,0,0,0,.46-.09,1,1,0,0,0,.61-1,128.06,128.06,0,0,1,.35-26.52c.28-2.43.6-4.64.93-6.6q.22,3.5.5,6.58c1.27,14.41,3.1,22.56,4.39,26.85A1,1,0,0,0,208,125c.84,0,1.68-.12,2.5-.21a1,1,0,0,0,.91-1.15c-1.35-10.75-1.94-19.32-2.13-25.95,0-1.38-.07-2.68-.07-3.89s0-2.6,0-3.75l0-1v-.32c0-.2,0-.39,0-.58,0-.89.07-1.71.11-2.46,0-.13,0-.25,0-.38l0-.43a2.46,2.46,0,0,1,0-.28c0-.41.05-.79.08-1.15,0,0,0-.09,0-.13l.06-.65c.09-1,.18-1.71.25-2.25l-7.84.16-5.11.11c0,.21-.07.42-.1.63l0,.14c-.06.39-.13.78-.19,1.16-.13.85-.26,1.7-.38,2.53v0s0,0,0,.06c-.07.52-.14,1-.21,1.56h0c-.08.62-.16,1.25-.23,1.87,0,.12,0,.24,0,.37l0,.27c-.06.57-.12,1.13-.17,1.68-.08.85-.16,1.68-.22,2.51-.12,1.48-.21,2.93-.28,4.34A138,138,0,0,0,196.22,124.07Z" transform="translate(0 62.19)"/><path class="cls-20" d="M200.2,125a1,1,0,0,0,.61-1,128.14,128.14,0,0,1,.35-26.53c.28-2.43.6-4.64.93-6.6l-2.22-.55S197.39,110.72,200.2,125Z" transform="translate(0 62.19)"/><path class="cls-21" d="M195.71,89.31c2.48-4.35,13.72-4,13.72-4l0-.43a2.46,2.46,0,0,1,0-.28c0-.41.05-.79.08-1.15,0,0,0-.09,0-.13l.06-.65c.09-1,.18-1.71.25-2.25l-7.84.16-5.11.11c0,.21-.07.42-.1.63l0,.14c-.06.39-.13.78-.19,1.16-.13.85-.26,1.7-.38,2.53v0s0,0,0,.06c-.07.52-.14,1-.21,1.56h0c-.08.62-.16,1.25-.23,1.87,0,.12,0,.24,0,.37Z" transform="translate(0 62.19)"/><path class="cls-22" d="M206.79,52.07c-.14,1.06-.27,2.11-.4,3.17a3.35,3.35,0,0,1-.74,2,1.74,1.74,0,0,1-1.89.35,6.68,6.68,0,0,0,1.42-3.06,7,7,0,0,1,.33-1.58A1.57,1.57,0,0,1,206.79,52.07Z" transform="translate(0 62.19)"/><polygon class="cls-23" points="205.86 121.81 205.09 121.52 205.37 123.03 205.86 121.81"/><path class="cls-24" d="M197.63,72c-.13,1.87-.32,3.94-.62,6.15,0,.24-.06.48-.1.71-.06.47-.13.93-.21,1.4-.21,1.36-.47,2.76-.77,4.19q1.63.19,3.27.3a52.56,52.56,0,0,0,10.71-.44c0-.55,0-1.17.05-1.86.08-2.48.22-5.71.41-8.59.06-.85.12-1.66.19-2.42a7.25,7.25,0,0,0,5,.33h0c0-.32-.06-.64-.11-.94a12.69,12.69,0,0,0-1.12-3.8,10.72,10.72,0,0,0-3.18-3.89h0A11.33,11.33,0,0,0,206.5,61l-.73-.32h-.05l-2.25-.91c-.88.45-1.85.89-2.82,1.33l-.65.29-1.4.67h0a3.16,3.16,0,0,0-1.39,1.34h0l-.06.11a37,37,0,0,0-2.72,6.26A10.2,10.2,0,0,0,197.63,72Z" transform="translate(0 62.19)"/><path class="cls-16" d="M201.4,61.43a10.66,10.66,0,0,0,4.49-.48,6.44,6.44,0,0,1-.75-2.33v0a6.23,6.23,0,0,1,0-1.06c0-.16,0-.33.05-.5s.07-.44.12-.67a7.58,7.58,0,0,1,.25-.81c0-.11.09-.23.14-.34h-.14c-.24,0-.47.05-.71.09a4.66,4.66,0,0,0-3.4,2.23,8.51,8.51,0,0,1,.17,1c0,.15,0,.3,0,.46s0,.39,0,.59a1.27,1.27,0,0,0,0,.2c0,.16,0,.32,0,.48A8.9,8.9,0,0,1,201.4,61.43Z" transform="translate(0 62.19)"/><path class="cls-25" d="M205.86,59.62a3.4,3.4,0,0,1-3.19,1.83l.89,2.11a5.32,5.32,0,0,0,3-2.74Z" transform="translate(0 62.19)"/><path class="cls-25" d="M202.67,61.45a1.68,1.68,0,0,1-1.07-1.36l-.95,1s-.05,1.74.6,2.31Z" transform="translate(0 62.19)"/><path class="cls-26" d="M201.21,53.34a3.52,3.52,0,0,1-1.5-3.45,5.33,5.33,0,0,1,2,0C201.55,51.14,201.4,52.07,201.21,53.34Z" transform="translate(0 62.19)"/><path class="cls-17" d="M201.58,58.55c0,.15,0,.3,0,.46a3,3,0,0,0,3.53-2c0-.22.07-.44.12-.67a7.58,7.58,0,0,1,.25-.81v-.33c-.24,0-.47.05-.71.09a4.66,4.66,0,0,0-3.4,2.23A8.51,8.51,0,0,1,201.58,58.55Z" transform="translate(0 62.19)"/><path class="cls-16" d="M200.44,50.28a7,7,0,0,1-.1,4.4,4.48,4.48,0,0,0-.53,2.44,2.16,2.16,0,0,0,2.66,1.37,4.07,4.07,0,0,0,2.4-2.19,7.67,7.67,0,0,0,.47-5.94A8.43,8.43,0,0,0,200.44,50.28Z" transform="translate(0 62.19)"/><path class="cls-27" d="M204.89,50.71A3.1,3.1,0,0,0,206,54.23a8.69,8.69,0,0,0,.72-1.28h0c1.17-3.7-1.12-3.66-1.3-3.65h0s-6.4-5.11-6.08,1.63A16.21,16.21,0,0,0,204.89,50.71Z" transform="translate(0 62.19)"/><path class="cls-16" d="M205.36,53.84a.47.47,0,0,1,.25-.55.59.59,0,0,1,.61.1.9.9,0,0,1,.29.58,1.74,1.74,0,0,1-.09.64,1.55,1.55,0,0,1-.54.8.8.8,0,0,1-.92,0C205.22,54.9,205.56,54.37,205.36,53.84Z" transform="translate(0 62.19)"/><path class="cls-28" d="M205.41,49.3v0Z" transform="translate(0 62.19)"/><path class="cls-16" d="M211,91.87a9.79,9.79,0,0,1-2.81,1.85c.08.18.82.18,1,.08s.37-.23.56-.19a.45.45,0,0,1,.33.42,1.32,1.32,0,0,1-.11.55l-.45,1.25a1.18,1.18,0,0,0-.07.88.94.94,0,0,0,.83.47,2.4,2.4,0,0,0,2-1,3.24,3.24,0,0,0,.61-2.18,5,5,0,0,0-.74-2.16C211.77,91.85,211.34,91.9,211,91.87Z" transform="translate(0 62.19)"/><path class="cls-29" d="M223.61,92.24l-2.76-3.84a.57.57,0,0,0-.33-.28.42.42,0,0,0-.44.19,1.52,1.52,0,0,0-.17.48,13.75,13.75,0,0,0-.45,3.24,4.67,4.67,0,0,0,1,3A22.65,22.65,0,0,1,223.61,92.24Z" transform="translate(0 62.19)"/><path class="cls-30" d="M223.61,92.24l-2.76-3.84a.57.57,0,0,0-.33-.28.42.42,0,0,0-.44.19,1.52,1.52,0,0,0-.17.48,13.75,13.75,0,0,0-.45,3.24,4.67,4.67,0,0,0,1,3A22.65,22.65,0,0,1,223.61,92.24Z" transform="translate(0 62.19)"/><path class="cls-31" d="M216.09,129.41h3.46s2.09-9,5.28-14.18l-6.53-3.3s2,8.62-1,15a2.25,2.25,0,0,0-1.52.84,1.88,1.88,0,0,0-.18.24.16.16,0,0,0,0,.07,1.51,1.51,0,0,0-.15.28l0,.08v0h0A.73.73,0,0,0,216.09,129.41Z" transform="translate(0 62.19)"/><path class="cls-32" d="M216.09,129.41h3.46s2.09-9,5.28-14.18l-6.53-3.3s2,8.62-1,15a2.25,2.25,0,0,0-1.52.84,1.88,1.88,0,0,0-.18.24.16.16,0,0,0,0,.07,1.51,1.51,0,0,0-.15.28l0,.08v0h0A.73.73,0,0,0,216.09,129.41Z" transform="translate(0 62.19)"/><path class="cls-33" d="M234.48,117.33a4.52,4.52,0,0,0-7.82,3.63,6.1,6.1,0,0,0,2.18,3.68,18.88,18.88,0,0,0,3.72,2.29,12,12,0,0,0-4.26-.45,5,5,0,0,0-2.51.73,2.61,2.61,0,0,0-1.08,1.51.61.61,0,0,0,.6.74H240s1.31-2.7-.48-4.06Z" transform="translate(0 62.19)"/><path class="cls-34" d="M234.48,117.33a4.52,4.52,0,0,0-7.82,3.63,6.1,6.1,0,0,0,2.18,3.68,18.88,18.88,0,0,0,3.72,2.29,12,12,0,0,0-4.26-.45,5,5,0,0,0-2.51.73,2.61,2.61,0,0,0-1.08,1.51.61.61,0,0,0,.6.74H240s1.31-2.7-.48-4.06Z" transform="translate(0 62.19)"/><path class="cls-35" d="M214.48,96.33a3.55,3.55,0,0,0,1.61,1l3.12,1.19c-1.66,3.64-2.67,8-1.51,11.85a14.46,14.46,0,0,0,3.28,5.52c.22.26.46.5.7.74a45.24,45.24,0,0,0,5.82,4.69c2.56,1.84,5.21,3.72,8.28,4.35a12,12,0,0,0,6.48-.25c0-.14.09-.29.13-.44l.08,0,.19.07.19,0,.41.11c.14,0,.29.06.44.09s.29,0,.45.06l.47,0,.24,0h.25l.51,0,.52,0,.52-.09a5.17,5.17,0,0,0,.54-.11l.54-.14.54-.2a8.55,8.55,0,0,0,2.09-1.14,9.12,9.12,0,0,0,1.68-1.66l.33-.45.29-.46a4.31,4.31,0,0,0,.26-.47,4,4,0,0,0,.23-.46c.07-.16.13-.31.2-.46s.11-.31.16-.46,0-.15.07-.23a1.8,1.8,0,0,0,.06-.22l.12-.44c0-.15,0-.29.08-.43s.05-.28.06-.42,0-.27,0-.4a1.23,1.23,0,0,0,0-.19,1.21,1.21,0,0,1,0-.19c0-.25,0-.48,0-.71a5.67,5.67,0,0,0-.06-.62c0-.2,0-.37-.09-.54s-.08-.31-.12-.44a1.27,1.27,0,0,0-.06-.18l-.06-.16a1.33,1.33,0,0,0-.12-.24c-.07-.13-.14-.19-.19-.18s-.09.09-.12.24a1.45,1.45,0,0,0,0,.25s0,.1,0,.16a1.41,1.41,0,0,1,0,.18c0,.12,0,.26,0,.41s-.05.31-.08.49-.07.35-.11.54-.1.39-.16.6l0,.15a1,1,0,0,1-.05.16l-.12.32c0,.11-.09.22-.13.33l-.15.33c-.06.11-.11.23-.17.34l-.09.17-.1.17-.2.34c-.08.1-.15.22-.23.33a3.59,3.59,0,0,1-.25.33c-.09.1-.16.22-.26.32s-.19.21-.28.32-.21.19-.31.29a8.45,8.45,0,0,1-1.39,1,9,9,0,0,1-1.56.7l-.39.12-.4.1-.39.08c-.13,0-.25,0-.38.06l-.38,0-.37,0h-2l-.28,0a11.17,11.17,0,0,0-2.07-7c-2-2.72-5-4.37-7.79-6.31s-5.41-4.53-5.81-7.87a18.87,18.87,0,0,1,.15-3.75,13.65,13.65,0,0,0,0-1.92,6.25,6.25,0,0,0,1.5-3.16,18,18,0,0,0,.1-4.09,1.63,1.63,0,0,0-.12-.62.55.55,0,0,0-.5-.33.85.85,0,0,0-.47.29l-3.84,3.83a7.91,7.91,0,0,0-2.71.78,10.32,10.32,0,0,1-5.73.41,1,1,0,0,0-1.18.71c-.06.21-.11.42-.16.62s0,.22,0,.32A2.35,2.35,0,0,0,214.48,96.33Z" transform="translate(0 62.19)"/><path class="cls-36" d="M237.18,117.33a4.52,4.52,0,0,0-7.82,3.63,6.1,6.1,0,0,0,2.18,3.68,18.88,18.88,0,0,0,3.72,2.29,12,12,0,0,0-4.26-.45,5,5,0,0,0-2.51.73,2.64,2.64,0,0,0-1.05,1.41.66.66,0,0,0,.63.84h14.67s1.31-2.7-.48-4.06Z" transform="translate(0 62.19)"/><path class="cls-37" d="M221.81,113.15s1.87,7.4-1.08,13.76a2.41,2.41,0,0,0-2,1.8.57.57,0,0,0,.55.7H223s2.09-9,5.29-14.18Z" transform="translate(0 62.19)"/><path class="cls-38" d="M222,93.9a.58.58,0,0,0,.58.57.58.58,0,0,0,0-1.15A.58.58,0,0,0,222,93.9Z" transform="translate(0 62.19)"/><path class="cls-38" d="M214.14,94.24c.26,0,.47-.24.71-.36.55-.26,1.22.33,1.79.11a.68.68,0,0,0,.44-.56h0a.33.33,0,0,0-.3-.33,9.47,9.47,0,0,1-1.3-.19,1,1,0,0,0-1.18.71C214.24,93.83,214.18,94,214.14,94.24Z" transform="translate(0 62.19)"/><g class="cls-39"><path class="cls-40" d="M231,116.75s0,0-.1.08l-.24.29a6.64,6.64,0,0,0-.68,1.18,6.07,6.07,0,0,0-.3.91,4.64,4.64,0,0,0-.14,1.09,4.79,4.79,0,0,0,.15,1.22,5.17,5.17,0,0,0,.48,1.21,7.35,7.35,0,0,0,1.58,1.94,10.68,10.68,0,0,0,1.63,1.2,5,5,0,0,0,1.68.77s-.61-.36-1.54-1a13.07,13.07,0,0,1-1.53-1.23,7.73,7.73,0,0,1-1.48-1.86,4.82,4.82,0,0,1-.61-2.25,5.1,5.1,0,0,1,.34-1.89,8.63,8.63,0,0,1,.55-1.21c.07-.14.14-.25.17-.32S231,116.76,231,116.75Z" transform="translate(0 62.19)"/></g><g class="cls-39"><path class="cls-41" d="M226,95.07s.11,0,.28-.07l.29-.17.17-.12.17-.16a3.3,3.3,0,0,0,.69-.92,5.08,5.08,0,0,0,.48-1.31,8.37,8.37,0,0,0,.17-2.49,2.27,2.27,0,0,0-.21-1,4.26,4.26,0,0,0-.06,1,12.27,12.27,0,0,1-.27,2.4,5.81,5.81,0,0,1-.43,1.24,3.9,3.9,0,0,1-.57.89c-.05.06-.09.12-.14.17l-.14.13-.23.21C226.07,95,226,95.05,226,95.07Z" transform="translate(0 62.19)"/></g><g class="cls-39"><path class="cls-42" d="M225.41,121.28s.08-.08.15-.24.07-.17.11-.29.09-.23.15-.37c.22-.56.54-1.33.93-2.15.8-1.66,1.57-2.94,1.49-3s-.3.25-.65.76a15.46,15.46,0,0,0-1.18,2.07,12.23,12.23,0,0,0-.85,2.23l-.1.4c0,.12,0,.23-.05.31S225.39,121.27,225.41,121.28Z" transform="translate(0 62.19)"/></g><path class="cls-43" d="M217.7,110.35a14.46,14.46,0,0,0,3.28,5.52c-6.64-10.12,0-16.94,0-16.94l-1.78-.43C217.55,102.14,216.54,106.52,217.7,110.35Z" transform="translate(0 62.19)"/><path class="cls-38" d="M217.85,100c-.06.09,0,.26.18.48a3.7,3.7,0,0,0,.93.76,5.92,5.92,0,0,0,1.66.67,7.65,7.65,0,0,0,2.18.22,8.75,8.75,0,0,0,3.74-1c.87-.47,1.31-.94,1.2-1.13s-.69-.09-1.58.08a22.43,22.43,0,0,1-3.42.47,11.83,11.83,0,0,1-3.34-.34C218.54,100,218,99.78,217.85,100Z" transform="translate(0 62.19)"/><path class="cls-17" d="M161.77,83.65c0,.08.13.14.35.16l.18,0h.21l.25,0,.28,0a9.1,9.1,0,0,0,1.39-.35,18.18,18.18,0,0,0,1.75-.7c.63-.29,1.31-.63,2-1s1.45-.84,2.23-1.32,1.56-1,2.37-1.58l1.22-.89.61-.47.32-.24.32-.26a1.52,1.52,0,0,0,.4-.54l.08-.19.11-.25a15.2,15.2,0,0,0,1-3.31,16.22,16.22,0,0,0,.26-2.88,10.17,10.17,0,0,0-1.47-.5,6.26,6.26,0,0,0-3.07,0c0,.11,0,.24,0,.36,0,.8,0,1.63,0,2.48a13.64,13.64,0,0,1-.29,2,2,2,0,0,1-.05.26v0a1.6,1.6,0,0,1-.05.21l-.06.07c-.17.18-.34.35-.5.53l-1,1c-.65.68-1.3,1.32-1.93,1.91s-1.23,1.15-1.81,1.66-1.12,1-1.63,1.36-1,.74-1.4,1-.79.53-1.1.72l-.22.14-.19.12-.16.11-.14.1C161.83,83.46,161.75,83.57,161.77,83.65Z" transform="translate(0 62.19)"/><path class="cls-44" d="M177.36,52.18a24.88,24.88,0,0,0,1,2.43c.74,1,2.17,1.18,3.18,1.91a3.94,3.94,0,0,1,1.37,4.08,5.46,5.46,0,0,1-2.84,3.4,9.11,9.11,0,0,1-4.43.89,5.84,5.84,0,0,1-2.08-.37,2.73,2.73,0,0,1-1.5-1.43c-.44-1.15.17-2.51-.31-3.64-.38-.88-1.29-1.37-1.93-2.08a3.89,3.89,0,0,1-.72-4C170.26,50.53,175.59,49.15,177.36,52.18Z" transform="translate(0 62.19)"/><path class="cls-45" d="M195.68,124.5a1.9,1.9,0,0,1-.76,1.94,13.5,13.5,0,0,1-1.92,1.11,2.58,2.58,0,0,0-1.35,1.67,16.69,16.69,0,0,0,7.1-.43,11.81,11.81,0,0,0-.92-4.86C197,123.72,196.52,124.46,195.68,124.5Z" transform="translate(0 62.19)"/><path class="cls-45" d="M175.14,125.92a1.73,1.73,0,0,1-.64,1.77,15.44,15.44,0,0,1-1.7,1,2.29,2.29,0,0,0-1.19,1.52,14,14,0,0,0,6.16-.52,10.6,10.6,0,0,0-.93-4.35C176.1,125.21,175.9,125.88,175.14,125.92Z" transform="translate(0 62.19)"/><path class="cls-46" d="M198.36,123.73a10.46,10.46,0,0,1-3,1.49,96.42,96.42,0,0,1-16.28-34.65,110.18,110.18,0,0,0-1.69,36.17l-2.59.34a84.94,84.94,0,0,1-.54-45.67h0l1.46-3.88-.19-1.07,3.65-.26,1.72-.12L182,76l1.89,3a12.57,12.57,0,0,1,.95,1.67A32.19,32.19,0,0,1,187,88.54h0c.05.27.09.54.12.82A92.61,92.61,0,0,0,198.36,123.73Z" transform="translate(0 62.19)"/><path class="cls-16" d="M174.29,65.11a3.66,3.66,0,0,0,2.37-.29,3.44,3.44,0,0,0,1.59-1.67,14.93,14.93,0,0,1-.83-1.52l-.17-.36h0c-.07-.14-.13-.28-.19-.42a19.57,19.57,0,0,1-.68-2l0-.11h0c-.06-.19-.1-.37-.15-.56h0a18.08,18.08,0,0,1-.35-2,9.36,9.36,0,0,0-2.2,2.74c.12.38.22.77.31,1.16,0,.06,0,.13,0,.19.05.23.09.46.13.69a.43.43,0,0,0,0,0c0,.18.05.35.08.53l0,.24s0,.1,0,.15v0A16.78,16.78,0,0,1,174.29,65.11Z" transform="translate(0 62.19)"/><path class="cls-47" d="M175.44,78.59c2.83.27,6.11-2,6.19-2.06h0a15.81,15.81,0,0,1-.24-3.84,25.76,25.76,0,0,1,.54-4.45,11.75,11.75,0,0,0,.22-1.62c.2-3-1.15-4.34-2.39-4.89a4.94,4.94,0,0,0-1.92-.41h0l-.53.13-.36.12c-1,.36-1.7,1-2.64,1.4l-.2.1h0C173.88,63.21,169.57,66.1,175.44,78.59Z" transform="translate(0 62.19)"/><path class="cls-48" d="M177.4,126.74C173.77,116.3,175.91,89,175.91,89l3.18,1.62A110.11,110.11,0,0,0,177.4,126.74Z" transform="translate(0 62.19)"/><path class="cls-17" d="M174.25,61.85a4.35,4.35,0,0,0,2.1-3.08c-.06-.19-.1-.37-.15-.56h0a18.08,18.08,0,0,1-.35-2,9.36,9.36,0,0,0-2.2,2.74c.12.38.22.77.31,1.16,0,.06,0,.13,0,.19.05.23.09.46.13.69a.43.43,0,0,0,0,0c0,.18.05.35.08.53Z" transform="translate(0 62.19)"/><path class="cls-16" d="M176.07,57.16c0,.27,0,.53.08.8a2.86,2.86,0,0,0,.07.28s0,.1,0,.15a3.81,3.81,0,0,1-1.28,2.07,2.06,2.06,0,0,1-2.32.17,2.48,2.48,0,0,1-.92-2c0-.76.15-1.52.15-2.29a3.76,3.76,0,0,0-.16-1.15,2.2,2.2,0,0,0-.46-.8,3.94,3.94,0,0,0,1.07.29c.64.08,1.29.08,1.91.22a2.35,2.35,0,0,1,1.58,1A3.14,3.14,0,0,1,176.07,57.16Z" transform="translate(0 62.19)"/><path class="cls-16" d="M175.92,56.78a.49.49,0,0,1,.14-.44.42.42,0,0,1,.45.07,1,1,0,0,1,.36,1.1,1.06,1.06,0,0,1-.91.72C175.93,57.76,176,57.25,175.92,56.78Z" transform="translate(0 62.19)"/><path class="cls-49" d="M176.13,58.13a.37.37,0,0,0,.5.19.36.36,0,0,0,.19-.49.38.38,0,1,0-.69.3Z" transform="translate(0 62.19)"/><path class="cls-16" d="M151.73,98.52l.55,1.27,6.15-1.24,2-.41a2.07,2.07,0,0,0,1.63-1.65l.65-3.52a8.88,8.88,0,0,0-3.22-.69l-.13.69L159,95.32Z" transform="translate(0 62.19)"/><path class="cls-17" d="M158.43,98.55l2-.41a2.07,2.07,0,0,0,1.63-1.65l.65-3.52a8.88,8.88,0,0,0-3.22-.69l-.13.69a5,5,0,0,1,.29,3.47A4.91,4.91,0,0,1,158.43,98.55Z" transform="translate(0 62.19)"/><path class="cls-50" d="M165.49,75.4a3,3,0,0,1,1.46,2,7.18,7.18,0,0,0,.23,1.31A2.74,2.74,0,0,0,168.37,80a16,16,0,0,1,1.52,1,4.19,4.19,0,0,1,1.43,3.87A5.4,5.4,0,0,1,169,88.38,7.71,7.71,0,0,1,165,89.69a6.23,6.23,0,0,1-3.55-.78,3.62,3.62,0,0,1-1.79-3,23,23,0,0,1,.5-2.44,12,12,0,0,0-.43-3.65,4.08,4.08,0,0,1,.66-3.5,4.43,4.43,0,0,1,2.53-1A3.4,3.4,0,0,1,165.49,75.4Z" transform="translate(0 62.19)"/><path class="cls-16" d="M164.25,109.53c0,.3-.05.61-.07.91-.25,3.09-.54,6-.83,8.69s-.57,5.07-.81,7.09c-.07.64-.15,1.23-.21,1.79s-.13,1-.19,1.41a2.17,2.17,0,0,1-1.09.84c-.06-.58-.12-1.25-.19-2s-.11-1.31-.17-2c-.17-2-.36-4.43-.55-7.1s-.37-5.62-.5-8.7c-.07-1.82-.12-3.59-.14-5.28a17.34,17.34,0,0,1,4.64-.47l.41,0C164.48,106.23,164.38,107.86,164.25,109.53Z" transform="translate(0 62.19)"/><path class="cls-17" d="M171.11,109.57c.36,3.08.63,6,.87,8.69s.42,5.08.57,7.11c0,.62.08,1.19.12,1.73s.08,1.11.11,1.59a2.28,2.28,0,0,1-.91,1c-.17-.56-.36-1.21-.57-1.94s-.37-1.29-.58-2c-.55-1.95-1.2-4.28-1.9-6.87s-1.44-5.43-2.16-8.44c-.1-.38-.19-.77-.28-1.15-.38-1.64-.73-3.24-1-4.77l.41-.06.25,0a17.06,17.06,0,0,1,4.46,0C170.69,106.06,170.91,107.79,171.11,109.57Z" transform="translate(0 62.19)"/><path class="cls-51" d="M162.22,129.28a1,1,0,0,1-.08.14,2.17,2.17,0,0,1-1.09.84,1.71,1.71,0,0,1-.3.09,5.77,5.77,0,0,1-2,0,2.54,2.54,0,0,1-.82-.21.56.56,0,0,1-.36-.6c.08-.29.47-.4.82-.48l.07,0a12.53,12.53,0,0,0,2.43-.78l.49-.22c.43-.21.76-.53,1,0v0a.79.79,0,0,1,.06.22A1.6,1.6,0,0,1,162.22,129.28Z" transform="translate(0 62.19)"/><path class="cls-16" d="M162.39,128.25a4.5,4.5,0,0,1-3,1.06,2.07,2.07,0,0,1-1-.26l.07,0a12.9,12.9,0,0,0,2.92-1c.44-.22.77-.54,1,0A.79.79,0,0,1,162.39,128.25Z" transform="translate(0 62.19)"/><path class="cls-51" d="M172.87,128.44a1.84,1.84,0,0,1-.09.25,2.28,2.28,0,0,1-.91,1l-.23.12a5.82,5.82,0,0,1-2,.37,2.41,2.41,0,0,1-.85,0c-.26-.08-.49-.28-.47-.52s.38-.49.71-.63l.07,0a12.33,12.33,0,0,0,2.2-1.21c.16-.11.32-.22.47-.34.36-.27.62-.62.9-.28a.86.86,0,0,1,.07.1,1.24,1.24,0,0,1,.1.2A1.61,1.61,0,0,1,172.87,128.44Z" transform="translate(0 62.19)"/><path class="cls-17" d="M172.84,127.4a4.52,4.52,0,0,1-2.73,1.61,2.08,2.08,0,0,1-1.08,0l.07,0a12.35,12.35,0,0,0,2.67-1.55c.39-.29.65-.68,1-.18A1.24,1.24,0,0,1,172.84,127.4Z" transform="translate(0 62.19)"/><path class="cls-16" d="M165.58,85.13a3.22,3.22,0,0,1-3.41.62,5.77,5.77,0,0,0,.15-1.33c0-.12,0-.25,0-.38s0-.14,0-.21,0-.12,0-.18a7.61,7.61,0,0,0,2.83-1.49,10.36,10.36,0,0,0,.1,1.25c0,.22.07.43.11.64A10.65,10.65,0,0,0,165.58,85.13Z" transform="translate(0 62.19)"/><path class="cls-17" d="M165.2,83.41c0,.22.07.43.11.64a3.83,3.83,0,0,1-1.39.48,3.76,3.76,0,0,1-1.6-.11c0-.12,0-.25,0-.38s0-.14,0-.21,0-.12,0-.18a7.61,7.61,0,0,0,2.83-1.49A10.36,10.36,0,0,0,165.2,83.41Z" transform="translate(0 62.19)"/><path class="cls-16" d="M165.61,80.68l-.08.86a1.36,1.36,0,0,1,0,.21q0,.14-.09.3a3.21,3.21,0,0,1-1.07,1.67,3.17,3.17,0,0,1-.54.36,2.55,2.55,0,0,1-1.46.24h0a1.86,1.86,0,0,1-1-.48,2.71,2.71,0,0,1-.6-2.31,2.23,2.23,0,0,1,0-.23c.1-.55.28-1.3.43-2a2.46,2.46,0,0,0,1.14-1.26,7.07,7.07,0,0,0,3.07,2.52Z" transform="translate(0 62.19)"/><path class="cls-16" d="M165.52,80.94a.34.34,0,0,1,.26-.33.42.42,0,0,1,.41.15.62.62,0,0,1,.12.44,1.08,1.08,0,0,1-.56.77.65.65,0,0,1-.51,0A2.29,2.29,0,0,1,165.52,80.94Z" transform="translate(0 62.19)"/><path class="cls-52" d="M172,111.46s-.53.16-1.41.35c-2.43.52-7.51,1.32-11.64-.06l.11-.08c-.22-4.13.65-12.84,1.54-18.78l-1.09-.42c.35-5.62,2.61-6.82,2.68-6.85h0l.17-.17h0l3.45-.31.29.05a5.54,5.54,0,0,1,3.8,3A10.1,10.1,0,0,1,171,92a2.85,2.85,0,0,1-1.3.8C170.12,97.92,171,106.51,172,111.46Z" transform="translate(0 62.19)"/><path class="cls-53" d="M165.78,85.13s4.55.29,5.17,6.88c0,0-1.12,1.43-4.17.93Z" transform="translate(0 62.19)"/><path class="cls-16" d="M166.07,85.18a2.32,2.32,0,0,1-.71,1.24,2.26,2.26,0,0,1-2.1.45,1.63,1.63,0,0,1-1-.73,1.18,1.18,0,0,1-.13-.52l.17-.17h0l3.45-.31Z" transform="translate(0 62.19)"/><path class="cls-16" d="M160.78,99.36l.88,1.33,9.22-3a.64.64,0,0,0,.48-.59h0l0-.65c0-.38,0-.75,0-1.12a2.53,2.53,0,0,0,0-.28,2.45,2.45,0,0,0,0-.27c0-.19,0-.37,0-.54s0-.36-.05-.54l-.09-.51c-.06-.34-.1-.68-.18-1l0-.12h0s-.9,1.15-3.28,1l.12.61s0,.07,0,.11l.09.45c0,.15.06.3.08.45l.09.47c0,.08,0,.16,0,.24l0,.24-1.57.8-2.83,1.46-.18.09-.52.27Z" transform="translate(0 62.19)"/><path class="cls-17" d="M167.68,93l.12.61a6.09,6.09,0,0,1,2.89,2.21,5.8,5.8,0,0,1,.67,1.22l0-.65c0-.38,0-.75,0-1.12a2.53,2.53,0,0,0,0-.28,2.45,2.45,0,0,0,0-.27c0-.19,0-.37,0-.54s0-.36-.05-.54l-.09-.51c-.06-.34-.1-.68-.18-1l0-.12h0S170.06,93.16,167.68,93Z" transform="translate(0 62.19)"/><path class="cls-16" d="M152.46,98.58a6.19,6.19,0,0,1-1.9-.92c-.07.1.17.49.28.56s.24.12.28.24a.3.3,0,0,1-.12.31.82.82,0,0,1-.34.12l-.81.16a.7.7,0,0,0-.5.24.59.59,0,0,0,0,.59,1.51,1.51,0,0,0,1.15.78,2,2,0,0,0,1.37-.37,3,3,0,0,0,.93-1.08C152.72,99,152.55,98.78,152.46,98.58Z" transform="translate(0 62.19)"/><path class="cls-16" d="M161.9,99.44a6.06,6.06,0,0,1-2-.68c-.06.11.23.47.34.53s.26.08.32.2a.3.3,0,0,1-.08.32.69.69,0,0,1-.32.16l-.79.27a.76.76,0,0,0-.47.3.58.58,0,0,0,.09.59,1.52,1.52,0,0,0,1.25.63,2.08,2.08,0,0,0,1.31-.54,3.14,3.14,0,0,0,.79-1.21C162.21,99.82,162,99.63,161.9,99.44Z" transform="translate(0 62.19)"/><path class="cls-16" d="M177.34,61.46h0l-.36.12c-1,.36-1.7,1-2.64,1.4C174.78,67.63,177.34,61.46,177.34,61.46Z" transform="translate(0 62.19)"/><path class="cls-16" d="M168,85.56c0,.08.13.13.35.16l.18,0H169l.28,0a9.39,9.39,0,0,0,1.39-.35,18.18,18.18,0,0,0,1.75-.7c.63-.29,1.31-.63,2-1s1.45-.84,2.22-1.32,1.56-1,2.37-1.58l1.22-.89.62-.47.31-.24.32-.26a1.44,1.44,0,0,0,.41-.54l.08-.19.11-.25a15.2,15.2,0,0,0,1-3.31,17.23,17.23,0,0,0,.26-3.13c0-.33,0-.66,0-1,0-.62-.11-1.21-.2-1.78a15.26,15.26,0,0,0-.54-2.32A8.8,8.8,0,0,0,181,63.25c-.58-.65-1.15-.91-1.59-.74s-.72.7-.84,1.49a15.17,15.17,0,0,0,0,3.14c0,.64.1,1.32.15,2s.1,1.5.13,2.31,0,1.63-.05,2.48a13.61,13.61,0,0,1-.28,2,2.44,2.44,0,0,1-.06.26v0a1.6,1.6,0,0,1,0,.21l-.06.07-.51.53-1,1c-.66.68-1.31,1.32-1.93,1.91s-1.23,1.15-1.81,1.66-1.12,1-1.63,1.36-1,.74-1.4,1-.79.53-1.1.72l-.22.14-.19.12-.17.11-.13.1C168,85.37,168,85.48,168,85.56Z" transform="translate(0 62.19)"/><path class="cls-16" d="M169.67,84.12a7.63,7.63,0,0,1-2.6-.53c-.06.14.36.55.51.6s.33.07.42.2a.35.35,0,0,1-.05.42,1.15,1.15,0,0,1-.37.25l-1,.45a.93.93,0,0,0-.54.45.74.74,0,0,0,.21.72,1.88,1.88,0,0,0,1.65.59,2.55,2.55,0,0,0,1.55-.88,3.74,3.74,0,0,0,.8-1.62C170.12,84.55,169.85,84.34,169.67,84.12Z" transform="translate(0 62.19)"/><path class="cls-17" d="M178.45,76c1.32-5.72,4.75-5.53,4.84-5.53,0-.62-.11-1.21-.2-1.78a15.26,15.26,0,0,0-.54-2.32A8.8,8.8,0,0,0,181,63.25c-.58-.65-1.15-.91-1.59-.74s-.72.7-.84,1.49a15.17,15.17,0,0,0,0,3.14c0,.64.1,1.32.15,2s.1,1.5.13,2.31,0,1.63-.05,2.48A13.61,13.61,0,0,1,178.45,76Z" transform="translate(0 62.19)"/><path class="cls-54" d="M180.27,62s2.65,1.17,3,7.67a6.69,6.69,0,0,1-4.92.2S175.94,60.38,180.27,62Z" transform="translate(0 62.19)"/><path class="cls-55" d="M.62,172.56v73.18H381.81V178.06c-17.4-5.66-37.77-2.67-56,2.12-1.66.43-3.32.88-5,1.33-21.6,5.89-43.75,12.84-65.48,8.11-20.22-4.4-37.63-18.58-58.18-21-27.59-3.28-53,15.12-80.6,18.72-23.67,3.09-47.16-4.89-70.37-10.49q-3.6-.87-7.29-1.64C26.27,172.56,13.1,171.07.62,172.56Z" transform="translate(0 62.19)"/><path class="cls-56" d="M.62,201.81v43.93H381.81V213.8c-10.52-9.75-27.85-12.22-42.47-9-18.29,4.08-34.4,14.68-52,21a118.22,118.22,0,0,1-81.23-.62c-13.62-5.15-26.66-13-41.19-14-21-1.52-40.11,11.25-60.24,17.6C68.63,240.24,26.81,228.76.62,201.81Z" transform="translate(0 62.19)"/></g><path class="cls-57" d="M200.61,2.5q8.79,0,18.06.24c40.53,1.06,81.82,8,115.26,26.9,19.78,11.2,36.09,26.85,44,45.45,8.74,20.59,6.8,43.45,1.13,65.06-7.15,27.27-21.14,54.83-47.73,72.79-23.22,15.67-53.44,22.33-82.93,26.35A494.44,494.44,0,0,1,182.31,244c-56.57,0-114.82-11.37-147.56-48.11-19.16-21.5-30.66-47.7-32.08-74.3-2.61-49,24.12-119,197.94-119m0-2.5V0c-85,0-143.95,16.73-175.24,49.73C7.13,69-1.35,93.19.17,121.68c1.44,26.83,13.05,53.76,32.71,75.82,15.53,17.43,37.74,30.4,66,38.58,23.82,6.88,51.88,10.37,83.41,10.37a494.38,494.38,0,0,0,66.41-4.68c25.87-3.53,58.8-9.75,84-26.76,23.61-15.94,40-40.91,48.76-74.23,7-26.5,6.55-48.3-1.25-66.66-7.61-18-23.61-34.52-45-46.65C305.45,10.65,266.28,1.49,218.74.24,212.6.08,206.5,0,200.62,0Z" transform="translate(0 62.19)"/></g></g></g></svg>