<svg id="Layer_1" enable-background="new 0 0 509.957 509.957" height="512" viewBox="0 0 509.957 509.957" width="512" xmlns="http://www.w3.org/2000/svg"><path d="m433.47 74.423c-99.22-99.218-259.818-99.23-359.051 0-99.218 99.218-99.232 259.818 0 359.051 99.22 99.218 259.818 99.23 359.051 0 99.218-99.218 99.232-259.819 0-359.051z" fill="#a2d0f9"/><path d="m266.4 315.161c-100.986-71.607-203.948-74.622-266.272-67.068-3.227 143.488 112.019 259.742 253.816 259.742 115.205 0 211.296-76.422 242.773-179.201-58.175 29.848-142.439 48.84-230.317-13.473z" fill="#b4dcf9"/><path d="m260.097 82.109c-13.12-17.395-29.455-18.64-41.42-20.248-9.815-1.319-15.438-11.889-10.988-20.776l5.761-11.505c6.063-12.107-4.778-25.842-17.979-22.737-67.687 15.96-126.547 59.787-161.486 120.244-2.394 4.143-2.809 9.139-1.13 13.618l26.613 71.044-15.221 95.134c-2.532 5.654-10.315 23.053-19.418 43.588-1.901 4.287-1.824 9.193.209 13.42 32.588 67.736 94.481 118.778 168.991 136.812 9.213 2.229 18.316-3.998 19.612-13.354l16.688-120.409c3.624-26.145-12.838-51.128-38.292-58.113l-46.503-12.762c-15.57-4.273-21.303-23.469-10.593-35.577l22.085-24.972c4.891-5.53 5.575-4.736 56.153-25.077 28.117-11.309 48.3-36.963 52.674-66.952l3.615-24.785c1.904-13.061-1.424-26.056-9.371-36.593z" fill="#91c656"/><path d="m483.566 313.76c-40.439-69.734-121.448-104.828-199.129-85.556-5.62 1.394-10.048 5.716-11.579 11.3-31.338 114.321 56.902 218.173 129.297 218.173 67.443 0 120.92-75.788 81.411-143.917z" fill="#aced70"/><path d="m269.468 118.7c3.941-27.024-14.909-52.019-41.977-55.655-8.587-1.154-15.5-.888-19.655-8.745-2.208-4.175-2.262-8.992-.146-13.216l5.761-11.505c6.063-12.107-4.778-25.842-17.979-22.737-67.688 15.961-126.548 59.788-161.487 120.245-2.394 4.143-2.809 9.139-1.13 13.618l26.613 71.044-4.615 28.847c15.229-3.135 31.848-10.377 49.071-24.155 47.683-38.147 90.256-69.626 160.576-65.873 1.136-4.862 1.06-5.071 4.968-31.868z" fill="#9bd65e"/><path d="m487.358 320.931c-28.242-7.42-59.476-5.138-92.142 14.902-47.536 29.163-85.33 31.991-113.782 24.543 15.082 34.844 40.198 63.224 70.333 82.242 81.072 51.164 176.292-37.201 135.591-121.687z" fill="#9bd65e"/><path d="m493.948 509.952c-6.432 0-12.497-3.905-14.94-10.269-22.06-57.456-59.696-110.134-111.863-156.571-6.601-5.876-7.188-15.989-1.313-22.59 5.875-6.6 15.989-7.188 22.589-1.313 56.022 49.869 96.551 106.73 120.46 169.003 4.024 10.484-3.742 21.74-14.933 21.74z" fill="#77a042"/></svg>