<svg xmlns="http://www.w3.org/2000/svg" viewBox="0 0 641.48 215.93"><defs><style>.cls-1{fill:#d3dbe6;}.cls-2{fill:#fff;stroke:#466898;stroke-miterlimit:10;stroke-width:2px;}.cls-3{fill:#466898;}.cls-4{fill:#aca6c7;}</style></defs><g id="Capa_2" data-name="Capa 2"><g id="Capa_1-2" data-name="Capa 1"><path class="cls-1" d="M185.57,64.93c0,2.84-37.58,5.15-83.94,5.15S17.7,67.77,17.7,64.93s37.58-5.14,83.93-5.14,83.94,2.3,83.94,5.14"/><path class="cls-1" d="M185.57,132.18c0,2.85-37.58,5.15-83.94,5.15S17.7,135,17.7,132.18,55.28,127,101.63,127s83.94,2.3,83.94,5.14"/><path class="cls-1" d="M185.57,199.44c0,2.84-37.58,5.14-83.94,5.14s-83.93-2.3-83.93-5.14,37.58-5.15,83.93-5.15,83.94,2.3,83.94,5.15"/><rect class="cls-2" x="220.48" y="12.86" width="420" height="188.52" rx="9.3"/><path class="cls-3" d="M309.12,2.51H247.73a.94.94,0,1,1,0-1.87h61.39a.94.94,0,1,1,0,1.87Z"/><path class="cls-3" d="M253.63,6.82H231.79a.94.94,0,1,1,0-1.88h21.84a.94.94,0,0,1,0,1.88Z"/><path class="cls-3" d="M237.21,1.87h-5.42a.94.94,0,1,1,0-1.87h5.42a.94.94,0,0,1,0,1.87Z"/><path class="cls-3" d="M224.45,8.41h-3a.94.94,0,1,1,0-1.87h3a.94.94,0,1,1,0,1.87Z"/><path class="cls-3" d="M540.38,210h61.39a.94.94,0,1,0,0-1.87H540.38a.94.94,0,1,0,0,1.87Z"/><path class="cls-3" d="M595.87,214.34h21.85a.94.94,0,0,0,0-1.88H595.87a.94.94,0,1,0,0,1.88Z"/><path class="cls-3" d="M612.3,209.39h5.42a.94.94,0,0,0,0-1.87H612.3a.94.94,0,1,0,0,1.87Z"/><path class="cls-3" d="M625.05,215.93h3a.94.94,0,1,0,0-1.87h-3a.94.94,0,0,0,0,1.87Z"/><rect class="cls-4" y="12.86" width="203.27" height="51.47" rx="10.09"/><rect class="cls-4" y="80.71" width="203.27" height="51.47" rx="10.09"/><rect class="cls-4" y="148.56" width="203.27" height="51.47" rx="10.09"/></g></g></svg>