<svg xmlns="http://www.w3.org/2000/svg" xmlns:xlink="http://www.w3.org/1999/xlink" viewBox="0 0 769.32 276.25"><defs><style>.cls-1{fill:none;}.cls-2{opacity:0.46;}.cls-3{clip-path:url(#clip-path);}.cls-4{fill:#90a4c1;}.cls-5{clip-path:url(#clip-path-2);}.cls-6{clip-path:url(#clip-path-3);}.cls-7{clip-path:url(#clip-path-4);}.cls-8{clip-path:url(#clip-path-5);}.cls-9{clip-path:url(#clip-path-6);}.cls-10{fill:#e5e5ff;}.cls-11{fill:#ebf6d3;}.cls-12,.cls-17{fill:#fff;}.cls-13{fill:#5254cf;}.cls-14{fill:#1b1b43;}.cls-15{fill:#00877a;}.cls-16{fill:#466898;}.cls-17{stroke:#746aa2;stroke-miterlimit:10;stroke-width:2px;}.cls-18{fill:#746aa2;}.cls-19{fill:#ffb27d;}.cls-20{fill:#9c3029;}.cls-21{fill:#233862;}.cls-22{fill:#f99746;}.cls-23{fill:#de7c2c;}.cls-24{fill:#ed975d;}.cls-25{fill:#b5453c;}.cls-26{fill:#ff9843;}.cls-27{fill:#d6e8ff;}.cls-28{fill:#aed3ff;}.cls-29{fill:#32508c;}</style><clipPath id="clip-path"><rect class="cls-1" x="181.15" y="39.58" width="128.6" height="7.88"/></clipPath><clipPath id="clip-path-2"><rect class="cls-1" x="181.15" y="78.73" width="128.6" height="7.88"/></clipPath><clipPath id="clip-path-3"><rect class="cls-1" x="181.15" y="117.88" width="128.6" height="7.88"/></clipPath><clipPath id="clip-path-4"><rect class="cls-1" x="181.15" y="157.03" width="128.6" height="7.88"/></clipPath><clipPath id="clip-path-5"><rect class="cls-1" x="181.15" y="196.19" width="128.6" height="7.88"/></clipPath><clipPath id="clip-path-6"><rect class="cls-1" x="181.15" y="235.34" width="128.6" height="7.88"/></clipPath></defs><g id="Capa_2" data-name="Capa 2"><g id="Capa_1-2" data-name="Capa 1"><g class="cls-2"><g class="cls-3"><path class="cls-4" d="M309.76,43.52c0,2.18-28.79,3.94-64.3,3.94s-64.31-1.76-64.31-3.94,28.79-3.94,64.31-3.94,64.3,1.76,64.3,3.94"/></g></g><g class="cls-2"><g class="cls-5"><path class="cls-4" d="M309.76,82.67c0,2.18-28.79,3.94-64.3,3.94s-64.31-1.76-64.31-3.94,28.79-3.94,64.31-3.94,64.3,1.77,64.3,3.94"/></g></g><g class="cls-2"><g class="cls-6"><path class="cls-4" d="M309.76,121.82c0,2.18-28.79,4-64.3,4s-64.31-1.77-64.31-4,28.79-3.94,64.31-3.94,64.3,1.77,64.3,3.94"/></g></g><g class="cls-2"><g class="cls-7"><path class="cls-4" d="M309.76,161c0,2.17-28.79,3.94-64.3,3.94s-64.31-1.77-64.31-3.94S209.94,157,245.46,157s64.3,1.77,64.3,3.95"/></g></g><g class="cls-2"><g class="cls-8"><path class="cls-4" d="M309.76,200.13c0,2.17-28.79,3.94-64.3,3.94s-64.31-1.77-64.31-3.94,28.79-3.94,64.31-3.94,64.3,1.76,64.3,3.94"/></g></g><g class="cls-2"><g class="cls-9"><path class="cls-4" d="M309.76,239.28c0,2.18-28.79,3.94-64.3,3.94s-64.31-1.76-64.31-3.94,28.79-3.94,64.31-3.94,64.3,1.76,64.3,3.94"/></g></g><rect class="cls-10" x="163.05" y="12.98" width="164.81" height="30.55" rx="10.09"/><rect class="cls-11" x="51.92" y="12.74" width="97.05" height="172.55" rx="8.38"/><path class="cls-12" d="M46.87,78.23A16.18,16.18,0,1,0,30.7,94.41a16,16,0,0,0,4.24-.57l5.61,4.7L40,91.48A16.15,16.15,0,0,0,46.87,78.23Z"/><path class="cls-13" d="M40.84,99.1l-6-5a16.46,16.46,0,1,1,5.34-2.51ZM35,93.57,40.26,98l-.55-6.61.12-.08a15.81,15.81,0,1,0-4.95,2.32Z"/><polygon class="cls-13" points="30.48 83.28 25.9 78.69 26.24 78.35 30.33 82.43 35.06 71.64 35.51 71.84 30.48 83.28"/><rect class="cls-14" y="274.7" width="327.86" height="0.48"/><path class="cls-15" d="M21.81,5.93c1.61,0,4.73.53,4.73,2.47a1.39,1.39,0,0,1-1.36,1.47c-.9,0-1.52-.77-3.37-.77-2.73,0-4.14,2.31-4.14,5S19.1,19,21.81,19c1.85,0,2.6-.93,3.5-.93a1.55,1.55,0,0,1,1.45,1.5c0,2.11-3.32,2.6-5,2.6-4.47,0-7.57-3.55-7.57-8.1S17.32,5.93,21.81,5.93Z"/><path class="cls-15" d="M39.1,16c0,3.3-2.26,6.1-5.67,6.1s-5.68-2.8-5.68-6.1a5.9,5.9,0,0,1,5.68-6.14A5.9,5.9,0,0,1,39.1,16Zm-8.18,0c0,1.52.79,3.19,2.51,3.19s2.51-1.67,2.51-3.19-.78-3.23-2.51-3.23S30.92,14.51,30.92,16Z"/><path class="cls-15" d="M40.44,11.78A1.6,1.6,0,0,1,42,10a1.34,1.34,0,0,1,1.45,1.17,3.42,3.42,0,0,1,3.06-1.3,4.06,4.06,0,0,1,4.33,4.27v6.07a1.59,1.59,0,1,1-3.17,0V14.71a2,2,0,1,0-4.09,0v5.52a1.59,1.59,0,1,1-3.17,0Z"/><path class="cls-15" d="M53.45,12.93h-.71a1.28,1.28,0,0,1-1.38-1.39,1.35,1.35,0,0,1,1.38-1.38h.71V8.26a1.59,1.59,0,1,1,3.16,0v1.9h.91c.81,0,1.51.37,1.51,1.38a1.34,1.34,0,0,1-1.51,1.39h-.91v7.3a1.59,1.59,0,1,1-3.16,0Z"/><path class="cls-15" d="M59.14,11.61A1.56,1.56,0,0,1,60.77,10c.84,0,1.54.31,1.54,1.32h0A2.49,2.49,0,0,1,64.58,10a1.55,1.55,0,0,1,1.54,1.7c0,1-1,1.1-1.89,1.54s-1.92.86-1.92,2.11v4.86a1.59,1.59,0,1,1-3.17,0Z"/><path class="cls-15" d="M77,16c0,3.3-2.27,6.1-5.68,6.1s-5.68-2.8-5.68-6.1A5.7,5.7,0,1,1,77,16Zm-8.19,0c0,1.52.8,3.19,2.51,3.19s2.51-1.67,2.51-3.19-.77-3.23-2.51-3.23S68.82,14.51,68.82,16Z"/><path class="cls-15" d="M78.31,6.68a1.59,1.59,0,1,1,3.16,0V20.23a1.59,1.59,0,1,1-3.16,0Z"/><path class="cls-15" d="M85.79,17.06a2.73,2.73,0,0,0,3,2.29c1.63,0,2.75-1.27,3.58-1.27a1.4,1.4,0,0,1,1.3,1.36c0,1.37-2.81,2.69-5.17,2.69A5.78,5.78,0,0,1,82.55,16a5.7,5.7,0,1,1,11.38-.37c0,.94-.42,1.4-1.39,1.4Zm5-2.11a2.52,2.52,0,0,0-2.53-2.42A2.55,2.55,0,0,0,85.72,15Z"/><path class="cls-15" d="M101.71,13.59c-.59,0-1.8-.93-2.83-.93-.58,0-1.08.27-1.08.88,0,1.48,5.5,1.26,5.5,4.87,0,2.11-1.78,3.72-4.51,3.72-1.79,0-4.43-1-4.43-2.45a1.5,1.5,0,0,1,1.37-1.4c1.23,0,1.78,1.07,3.28,1.07,1,0,1.25-.31,1.25-.9,0-1.45-5.5-1.23-5.5-4.86,0-2.2,1.78-3.7,4.29-3.7,1.56,0,4,.73,4,2.29A1.37,1.37,0,0,1,101.71,13.59Z"/><path class="cls-15" d="M109.52,12.2a2.17,2.17,0,0,1-.15-.81A1.52,1.52,0,0,1,110.86,10a1.61,1.61,0,0,1,1.59,1.13l2.18,6,2.33-6A1.6,1.6,0,0,1,118.54,10a1.53,1.53,0,0,1,1.5,1.37,1.83,1.83,0,0,1-.15.81l-5.31,13.2a1.7,1.7,0,0,1-1.49,1.26,1.47,1.47,0,0,1-1.65-1.37,2.5,2.5,0,0,1,.2-.92L113,20.94Z"/><path class="cls-15" d="M59.07,26.68a1.59,1.59,0,1,1,3.16,0V31a4.64,4.64,0,0,1,3-1.1c3.41,0,5.1,3.19,5.1,6.27s-2,6-5.21,6a3.47,3.47,0,0,1-2.91-1.46A1.5,1.5,0,0,1,60.65,42a1.6,1.6,0,0,1-1.58-1.76Zm5.65,12.54c1.65,0,2.47-1.72,2.47-3.19s-.82-3.23-2.47-3.23-2.49,1.58-2.49,3.12S63,39.22,64.72,39.22Z"/><path class="cls-15" d="M82.52,39.93c0,.81,0,2.06-1.52,2.06-.92,0-1.3-.5-1.52-1.34a3.78,3.78,0,0,1-3,1.48c-3,0-5.24-2.53-5.24-6.1s2.33-6.14,5.24-6.14a3.61,3.61,0,0,1,3,1.45A1.51,1.51,0,0,1,81,30c1.52,0,1.52,1.26,1.52,2.07Zm-5.61-.71c1.65,0,2.44-1.67,2.44-3.19s-.77-3.23-2.44-3.23S74.4,34.51,74.4,36,75.19,39.22,76.91,39.22Z"/><path class="cls-15" d="M84.28,31.61A1.56,1.56,0,0,1,85.91,30c.83,0,1.54.31,1.54,1.32h0A2.49,2.49,0,0,1,89.71,30a1.55,1.55,0,0,1,1.54,1.7c0,1-.94,1.1-1.89,1.54s-1.91.86-1.91,2.11v4.86a1.59,1.59,0,1,1-3.17,0Z"/><path class="cls-15" d="M91.6,31.61A1.56,1.56,0,0,1,93.23,30c.84,0,1.54.31,1.54,1.32h0A2.49,2.49,0,0,1,97,30a1.55,1.55,0,0,1,1.54,1.7c0,1-1,1.1-1.89,1.54s-1.92.86-1.92,2.11v4.86a1.59,1.59,0,1,1-3.17,0Z"/><path class="cls-15" d="M101.13,37.06a2.73,2.73,0,0,0,3,2.29c1.63,0,2.75-1.27,3.59-1.27a1.41,1.41,0,0,1,1.3,1.36c0,1.37-2.82,2.69-5.17,2.69A5.77,5.77,0,0,1,97.9,36a5.69,5.69,0,1,1,11.37-.37c0,.94-.42,1.4-1.39,1.4Zm5-2.11a2.5,2.5,0,0,0-2.53-2.42A2.56,2.56,0,0,0,101.06,35Z"/><path class="cls-15" d="M110.35,31.61A1.55,1.55,0,0,1,112,30c.84,0,1.55.31,1.55,1.32h0A2.49,2.49,0,0,1,115.78,30a1.55,1.55,0,0,1,1.54,1.7c0,1-.94,1.1-1.89,1.54s-1.91.86-1.91,2.11v4.86a1.59,1.59,0,1,1-3.17,0Z"/><path class="cls-15" d="M128.54,39.93c0,.81,0,2.06-1.52,2.06-.92,0-1.29-.5-1.51-1.34a3.81,3.81,0,0,1-3,1.48c-3,0-5.24-2.53-5.24-6.1s2.34-6.14,5.24-6.14a3.63,3.63,0,0,1,3,1.45A1.49,1.49,0,0,1,127,30c1.52,0,1.52,1.26,1.52,2.07Zm-5.61-.71c1.65,0,2.44-1.67,2.44-3.19s-.77-3.23-2.44-3.23-2.51,1.71-2.51,3.23S121.21,39.22,122.93,39.22Z"/><path class="cls-15" d="M137,33.59c-.59,0-1.8-.93-2.84-.93-.57,0-1.08.27-1.08.88,0,1.48,5.51,1.26,5.51,4.87,0,2.11-1.79,3.72-4.51,3.72-1.79,0-4.43-1-4.43-2.45a1.5,1.5,0,0,1,1.37-1.4c1.23,0,1.78,1.07,3.27,1.07,1,0,1.26-.31,1.26-.9,0-1.45-5.5-1.23-5.5-4.86,0-2.2,1.78-3.7,4.29-3.7,1.56,0,4,.73,4,2.29A1.37,1.37,0,0,1,137,33.59Z"/><path class="cls-15" d="M68.14,53.59c-.59,0-1.8-.93-2.84-.93-.57,0-1.08.27-1.08.88,0,1.48,5.51,1.26,5.51,4.87,0,2.11-1.79,3.72-4.52,3.72-1.78,0-4.42-1-4.42-2.45a1.5,1.5,0,0,1,1.37-1.4c1.23,0,1.78,1.07,3.27,1.07,1,0,1.26-.31,1.26-.9,0-1.45-5.5-1.23-5.5-4.86,0-2.2,1.78-3.7,4.29-3.7,1.56,0,4,.73,4,2.29A1.37,1.37,0,0,1,68.14,53.59Z"/><path class="cls-15" d="M73.4,57.06a2.73,2.73,0,0,0,3,2.29c1.63,0,2.75-1.27,3.59-1.27a1.41,1.41,0,0,1,1.3,1.36c0,1.37-2.82,2.69-5.17,2.69A5.77,5.77,0,0,1,70.17,56a5.69,5.69,0,1,1,11.37-.37c0,.94-.42,1.4-1.39,1.4Zm5-2.11a2.5,2.5,0,0,0-2.53-2.42A2.56,2.56,0,0,0,73.33,55Z"/><path class="cls-15" d="M93.49,60.94c0,3.8-2.49,5.72-6.1,5.72-1.3,0-5-.64-5-2.38a1.54,1.54,0,0,1,1.27-1.38c1,0,2.14,1,4,1a2.45,2.45,0,0,0,2.69-2.51v-.75h0a3.63,3.63,0,0,1-3.19,1.5c-3.32,0-4.88-2.93-4.88-6.08s2-6.16,5.21-6.16a3.48,3.48,0,0,1,2.91,1.45A1.51,1.51,0,0,1,91.9,50a1.6,1.6,0,0,1,1.59,1.76ZM87.83,52.8c-1.65,0-2.46,1.71-2.46,3.19,0,1.69.81,3.23,2.46,3.23s2.49-1.58,2.49-3.12S89.57,52.8,87.83,52.8Z"/><path class="cls-15" d="M95.29,51.78a1.59,1.59,0,1,1,3.17,0v5.66a2,2,0,1,0,4.09,0V51.78a1.59,1.59,0,1,1,3.17,0V57.5c0,2.82-1.87,4.63-5.22,4.63s-5.21-1.81-5.21-4.63Zm5.89-6.71a2.43,2.43,0,0,1,.84-.22,1.4,1.4,0,0,1,1.19,1.37,1.26,1.26,0,0,1-.9,1.3l-2.47,1c-.64.22-.44.22-.88.22-.66,0-1.16-.83-1.16-1.6a1.06,1.06,0,0,1,.61-.88l.18-.09Z"/><path class="cls-15" d="M107.52,51.78A1.6,1.6,0,0,1,109.1,50a1.34,1.34,0,0,1,1.46,1.17,3.41,3.41,0,0,1,3-1.3A4.06,4.06,0,0,1,118,54.16v6.07a1.59,1.59,0,1,1-3.17,0V54.71a2,2,0,1,0-4.09,0v5.52a1.59,1.59,0,1,1-3.17,0Z"/><path class="cls-15" d="M132.31,53.59c-.59,0-1.8-.93-2.83-.93-.58,0-1.08.27-1.08.88,0,1.48,5.5,1.26,5.5,4.87,0,2.11-1.78,3.72-4.51,3.72-1.78,0-4.42-1-4.42-2.45a1.49,1.49,0,0,1,1.36-1.4c1.23,0,1.78,1.07,3.28,1.07,1,0,1.25-.31,1.25-.9,0-1.45-5.5-1.23-5.5-4.86,0-2.2,1.78-3.7,4.29-3.7,1.56,0,4,.73,4,2.29A1.37,1.37,0,0,1,132.31,53.59Z"/><path class="cls-15" d="M135,51.78a1.59,1.59,0,1,1,3.17,0v5.66a2,2,0,1,0,4.09,0V51.78a1.59,1.59,0,1,1,3.17,0V57.5c0,2.82-1.87,4.63-5.22,4.63S135,60.32,135,57.5Z"/><path class="cls-15" d="M67.19,72.93h-.7a1.29,1.29,0,0,1-1.39-1.39,1.35,1.35,0,0,1,1.39-1.38h.7V68.53c0-2.34,1.39-3.61,3.33-3.61,1.12,0,2.2.33,2.2,1.43,0,.92-.42,1.34-1.3,1.34-.53,0-1.06,0-1.06,1.17v1.3h1c1,0,1.61.37,1.61,1.38s-.68,1.39-1.61,1.39h-1v7.3a1.59,1.59,0,1,1-3.17,0Z"/><path class="cls-15" d="M73,71.78a1.59,1.59,0,1,1,3.17,0v5.66a2,2,0,1,0,4.09,0V71.78a1.59,1.59,0,1,1,3.17,0V77.5c0,2.82-1.87,4.63-5.22,4.63S73,80.32,73,77.5Z"/><path class="cls-15" d="M85.21,71.78A1.6,1.6,0,0,1,86.79,70a1.34,1.34,0,0,1,1.46,1.17,3.41,3.41,0,0,1,3.06-1.3,4.06,4.06,0,0,1,4.33,4.27v6.07a1.59,1.59,0,1,1-3.17,0V74.71a2,2,0,1,0-4.09,0v5.52a1.59,1.59,0,1,1-3.17,0Z"/><path class="cls-15" d="M105.32,73.41c-.79,0-1.5-.61-2.51-.61-1.8,0-2.66,1.6-2.66,3.23s.94,3.19,2.66,3.19a17.88,17.88,0,0,0,2.36-.66A1.39,1.39,0,0,1,106.53,80c0,1.62-2.73,2.18-3.87,2.18-3.41,0-5.68-2.8-5.68-6.1a5.9,5.9,0,0,1,5.68-6.14c1.25,0,3.87.46,3.87,2C106.53,72.55,106.07,73.41,105.32,73.41Z"/><path class="cls-15" d="M111,67a1.81,1.81,0,0,1-1.78,1.83A1.85,1.85,0,0,1,107.39,67,1.78,1.78,0,0,1,111,67Zm-3.37,4.77a1.59,1.59,0,1,1,3.17,0v8.45a1.59,1.59,0,1,1-3.17,0Z"/><path class="cls-15" d="M123.4,76c0,3.3-2.26,6.1-5.67,6.1s-5.68-2.8-5.68-6.1a5.69,5.69,0,1,1,11.35,0Zm-5-11a2.39,2.39,0,0,1,.83-.22,1.4,1.4,0,0,1,1.19,1.37,1.25,1.25,0,0,1-.9,1.3l-2.46,1c-.64.22-.44.22-.88.22-.66,0-1.17-.83-1.17-1.6a1.06,1.06,0,0,1,.62-.88l.17-.09Zm-3.19,11c0,1.52.79,3.19,2.51,3.19s2.5-1.67,2.5-3.19-.76-3.23-2.5-3.23S115.22,74.51,115.22,76Z"/><path class="cls-15" d="M124.74,71.78A1.6,1.6,0,0,1,126.33,70a1.34,1.34,0,0,1,1.45,1.17,3.42,3.42,0,0,1,3.06-1.3,4.06,4.06,0,0,1,4.33,4.27v6.07a1.59,1.59,0,1,1-3.17,0V74.71a2,2,0,1,0-4.09,0v5.52a1.59,1.59,0,1,1-3.17,0Z"/><path class="cls-15" d="M139,71.63a1.72,1.72,0,1,1-1.71,1.72A1.72,1.72,0,0,1,139,71.63Zm0,7.06a1.72,1.72,0,1,1-1.71,1.72A1.72,1.72,0,0,1,139,78.69Z"/><path class="cls-16" d="M205.59,22.6a1.3,1.3,0,0,1,1.4-1.41h3.19a4.29,4.29,0,0,1,4.61,4.31,4.23,4.23,0,0,1-4.5,4.26h-2v3a1.35,1.35,0,1,1-2.7,0Zm2.7,4.79h1.83a1.91,1.91,0,0,0,0-3.82h-1.83Z"/><path class="cls-16" d="M215.48,25.62a1.28,1.28,0,0,1,1.34-1.29c.68,0,1.26.25,1.26,1.08h0a2.05,2.05,0,0,1,1.82-1.08,1.26,1.26,0,0,1,1.26,1.38c0,.85-.77.9-1.54,1.26s-1.57.71-1.57,1.73v4a1.31,1.31,0,1,1-2.6,0Z"/><path class="cls-16" d="M230.1,29.24a4.66,4.66,0,1,1-9.29,0,4.66,4.66,0,1,1,9.29,0Zm-6.69,0c0,1.24.65,2.61,2.05,2.61s2-1.37,2-2.61-.63-2.65-2-2.65S223.41,28,223.41,29.24Z"/><path class="cls-16" d="M231.83,26.7h-.58a1,1,0,0,1-1.13-1.13,1.11,1.11,0,0,1,1.13-1.14h.58V22.89a1.3,1.3,0,1,1,2.59,0v1.54h.74a1.14,1.14,0,1,1,0,2.27h-.74v6a1.3,1.3,0,1,1-2.59,0Z"/><path class="cls-16" d="M238.62,30.09A2.24,2.24,0,0,0,241.07,32c1.33,0,2.25-1,2.93-1A1.14,1.14,0,0,1,245.06,32c0,1.12-2.3,2.2-4.23,2.2a4.72,4.72,0,0,1-4.86-5,4.66,4.66,0,1,1,9.31-.3c0,.77-.34,1.15-1.14,1.15Zm4.07-1.73a2.06,2.06,0,0,0-2.08-2,2.09,2.09,0,0,0-2.05,2Z"/><path class="cls-16" d="M252.64,27.1c-.65,0-1.23-.51-2-.51-1.48,0-2.18,1.32-2.18,2.65a2.38,2.38,0,0,0,2.18,2.61,14.2,14.2,0,0,0,1.92-.54,1.14,1.14,0,0,1,1.12,1.14c0,1.33-2.23,1.78-3.17,1.78a4.71,4.71,0,0,1-4.64-5,4.81,4.81,0,0,1,4.64-5c1,0,3.17.38,3.17,1.64C253.63,26.4,253.25,27.1,252.64,27.1Z"/><path class="cls-16" d="M261,27.1c-.65,0-1.22-.51-2.05-.51-1.48,0-2.18,1.32-2.18,2.65a2.39,2.39,0,0,0,2.18,2.61,14.41,14.41,0,0,0,1.93-.54A1.13,1.13,0,0,1,262,32.45c0,1.33-2.23,1.78-3.17,1.78a4.71,4.71,0,0,1-4.64-5,4.82,4.82,0,0,1,4.64-5c1,0,3.17.38,3.17,1.64C262,26.4,261.59,27.1,261,27.1Z"/><path class="cls-16" d="M265.58,21.86a1.48,1.48,0,0,1-1.46,1.49,1.52,1.52,0,0,1-1.46-1.49,1.5,1.5,0,0,1,1.46-1.42A1.47,1.47,0,0,1,265.58,21.86Zm-2.76,3.91a1.31,1.31,0,1,1,2.6,0v6.91a1.31,1.31,0,1,1-2.6,0Z"/><path class="cls-16" d="M275.77,29.24a4.66,4.66,0,1,1-9.29,0,4.66,4.66,0,1,1,9.29,0Zm-4.09-9a2.09,2.09,0,0,1,.69-.17,1.14,1.14,0,0,1,1,1.11,1,1,0,0,1-.74,1.06l-2,.8c-.52.18-.36.18-.72.18-.54,0-.95-.69-.95-1.32a.88.88,0,0,1,.5-.72l.15-.07Zm-2.61,9c0,1.24.65,2.61,2.05,2.61s2.06-1.37,2.06-2.61-.63-2.65-2.06-2.65S269.07,28,269.07,29.24Z"/><path class="cls-16" d="M276.86,25.77a1.31,1.31,0,0,1,1.3-1.44,1.09,1.09,0,0,1,1.19,1,2.8,2.8,0,0,1,2.5-1.06,3.32,3.32,0,0,1,3.55,3.49v5a1.3,1.3,0,1,1-2.59,0V28.16a1.68,1.68,0,1,0-3.35,0v4.52a1.31,1.31,0,1,1-2.6,0Z"/><rect class="cls-10" x="163.05" y="52.13" width="164.81" height="30.55" rx="10.09"/><path class="cls-16" d="M207.59,61.73A1.33,1.33,0,0,1,209,60.34h3c4,0,6.34,2.6,6.34,6.59a5.82,5.82,0,0,1-6.16,6.23H209a1.32,1.32,0,0,1-1.43-1.35Zm2.7,9h1.82c2.33,0,3.39-1.71,3.39-3.87,0-2.31-1.08-4-3.57-4h-1.64Z"/><path class="cls-16" d="M221.62,69.24a2.23,2.23,0,0,0,2.44,1.87c1.34,0,2.26-1,2.94-1a1.15,1.15,0,0,1,1.06,1.11c0,1.12-2.3,2.2-4.23,2.2a4.72,4.72,0,0,1-4.86-5,4.66,4.66,0,1,1,9.31-.3c0,.77-.34,1.15-1.14,1.15Zm4.06-1.73a2,2,0,0,0-2.07-2,2.09,2.09,0,0,0-2.05,2Z"/><path class="cls-16" d="M229.82,65.85h-.57a1,1,0,0,1-1.14-1.13,1.11,1.11,0,0,1,1.14-1.13h.57V62a1.3,1.3,0,1,1,2.59,0v1.55h.74c.67,0,1.25.3,1.25,1.13a1.1,1.1,0,0,1-1.25,1.13h-.74v6a1.3,1.3,0,1,1-2.59,0Z"/><path class="cls-16" d="M236.61,69.24a2.24,2.24,0,0,0,2.45,1.87c1.33,0,2.25-1,2.93-1a1.16,1.16,0,0,1,1.07,1.11c0,1.12-2.31,2.2-4.24,2.2a4.72,4.72,0,0,1-4.86-5,4.66,4.66,0,1,1,9.31-.3c0,.77-.34,1.15-1.13,1.15Zm4.07-1.73a2.06,2.06,0,0,0-4.12,0Z"/><path class="cls-16" d="M250.63,66.25c-.65,0-1.22-.5-2-.5-1.48,0-2.18,1.31-2.18,2.64A2.38,2.38,0,0,0,248.58,71a14.41,14.41,0,0,0,1.93-.54,1.14,1.14,0,0,1,1.11,1.14c0,1.33-2.23,1.78-3.17,1.78a4.71,4.71,0,0,1-4.64-5,4.82,4.82,0,0,1,4.64-5c1,0,3.17.38,3.17,1.64C251.62,65.55,251.24,66.25,250.63,66.25Z"/><path class="cls-16" d="M259,66.25c-.65,0-1.23-.5-2.06-.5-1.47,0-2.18,1.31-2.18,2.64A2.39,2.39,0,0,0,256.91,71a14.41,14.41,0,0,0,1.93-.54A1.15,1.15,0,0,1,260,71.6c0,1.33-2.24,1.78-3.17,1.78a4.72,4.72,0,0,1-4.65-5,4.82,4.82,0,0,1,4.65-5c1,0,3.17.38,3.17,1.64C260,65.55,259.58,66.25,259,66.25Z"/><path class="cls-16" d="M263.57,61a1.49,1.49,0,0,1-1.46,1.5,1.52,1.52,0,0,1-1.45-1.5,1.46,1.46,0,0,1,2.91,0Zm-2.75,3.91a1.3,1.3,0,1,1,2.59,0v6.91a1.3,1.3,0,1,1-2.59,0Z"/><path class="cls-16" d="M273.76,68.39a4.66,4.66,0,1,1-9.29,0,4.66,4.66,0,1,1,9.29,0Zm-4.09-9a2,2,0,0,1,.69-.18,1.14,1.14,0,0,1,1,1.11,1,1,0,0,1-.74,1.06l-2,.8c-.52.18-.36.18-.72.18-.54,0-1-.69-1-1.32a.88.88,0,0,1,.51-.72l.14-.07Zm-2.6,9c0,1.25.64,2.61,2.05,2.61s2.05-1.36,2.05-2.61-.63-2.64-2.05-2.64S267.07,67.15,267.07,68.39Z"/><path class="cls-16" d="M274.86,64.92a1.3,1.3,0,0,1,1.29-1.44,1.09,1.09,0,0,1,1.19,1,2.82,2.82,0,0,1,2.51-1.06,3.32,3.32,0,0,1,3.54,3.49v5a1.3,1.3,0,1,1-2.59,0V67.31a1.68,1.68,0,1,0-3.35,0v4.52a1.3,1.3,0,1,1-2.59,0Z"/><rect class="cls-10" x="163.05" y="91.28" width="164.81" height="30.55" rx="10.09"/><path class="cls-16" d="M202.58,100.77a2.13,2.13,0,0,1,1.93-1.49,2,2,0,0,1,1.92,1.49l3.53,9.8a2.11,2.11,0,0,1,.15.66,1.2,1.2,0,0,1-1.25,1.19,1.26,1.26,0,0,1-1.31-.93l-.54-1.7h-5l-.53,1.68a1.26,1.26,0,0,1-1.3,1,1.29,1.29,0,0,1-1.33-1.26,1.66,1.66,0,0,1,.12-.59Zm.2,6.54h3.42l-1.67-5.22h0Z"/><path class="cls-16" d="M219.74,111a1.31,1.31,0,0,1-1.3,1.44,1.24,1.24,0,0,1-1.3-1.08,2.79,2.79,0,0,1-2.37,1.19c-2.61,0-4.27-2.43-4.27-4.88s1.39-5.13,4.18-5.13a3.75,3.75,0,0,1,2.46.9V99.89a1.31,1.31,0,1,1,2.6,0Zm-4.63-6.08c-1.35,0-2,1.42-2,2.64s.67,2.61,2,2.61,2-1.44,2-2.7S216.5,104.9,215.11,104.9Z"/><path class="cls-16" d="M220.62,104.65a1.92,1.92,0,0,1-.17-.76,1.25,1.25,0,0,1,1.35-1.26,1.19,1.19,0,0,1,1.16.92l1.65,5.11h0l1.66-5.11a1.17,1.17,0,0,1,1.15-.92,1.25,1.25,0,0,1,1.35,1.26,2.07,2.07,0,0,1-.16.76L226,111.34c-.26.67-.53,1.08-1.41,1.08s-1.15-.41-1.4-1.08Z"/><path class="cls-16" d="M231.61,108.39a2.24,2.24,0,0,0,2.45,1.87c1.34,0,2.25-1,2.94-1a1.15,1.15,0,0,1,1.06,1.11c0,1.12-2.3,2.2-4.23,2.2a4.72,4.72,0,0,1-4.86-5,4.66,4.66,0,1,1,9.31-.3,1,1,0,0,1-1.14,1.15Zm4.07-1.73a2,2,0,0,0-2.07-2,2.09,2.09,0,0,0-2.05,2Z"/><path class="cls-16" d="M239.15,103.92a1.28,1.28,0,0,1,1.34-1.29c.68,0,1.26.25,1.26,1.08h0a2.05,2.05,0,0,1,1.82-1.08,1.27,1.27,0,0,1,1.26,1.39c0,.84-.77.89-1.54,1.25s-1.57.71-1.57,1.73v4a1.31,1.31,0,1,1-2.6,0Z"/><path class="cls-16" d="M245.82,105h-.58a1.06,1.06,0,0,1-1.14-1.14,1.11,1.11,0,0,1,1.14-1.13h.58v-1.55a1.3,1.3,0,1,1,2.59,0v1.55h.74c.66,0,1.24.3,1.24,1.13a1.1,1.1,0,0,1-1.24,1.14h-.74v6a1.3,1.3,0,1,1-2.59,0Z"/><path class="cls-16" d="M252.6,108.39a2.24,2.24,0,0,0,2.45,1.87c1.33,0,2.25-1,2.93-1a1.16,1.16,0,0,1,1.07,1.11c0,1.12-2.31,2.2-4.23,2.2a4.72,4.72,0,0,1-4.86-5,4.66,4.66,0,1,1,9.3-.3c0,.77-.34,1.15-1.13,1.15Zm4.07-1.73a2,2,0,0,0-2.07-2,2.08,2.08,0,0,0-2,2Z"/><path class="cls-16" d="M260.18,104.07a1.31,1.31,0,0,1,1.3-1.44,1.09,1.09,0,0,1,1.18,1,2.82,2.82,0,0,1,2.51-1.06,3.32,3.32,0,0,1,3.54,3.49v5a1.3,1.3,0,1,1-2.59,0v-4.52a1.68,1.68,0,1,0-3.35,0V111a1.3,1.3,0,1,1-2.59,0Z"/><path class="cls-16" d="M276.63,105.4c-.65,0-1.22-.5-2.05-.5-1.48,0-2.18,1.31-2.18,2.64a2.39,2.39,0,0,0,2.18,2.61,14.41,14.41,0,0,0,1.93-.54,1.14,1.14,0,0,1,1.11,1.14c0,1.33-2.23,1.78-3.17,1.78a4.71,4.71,0,0,1-4.64-5,4.82,4.82,0,0,1,4.64-5c1,0,3.17.38,3.17,1.64C277.62,104.7,277.24,105.4,276.63,105.4Z"/><path class="cls-16" d="M281.24,100.16a1.49,1.49,0,0,1-1.46,1.5,1.53,1.53,0,0,1-1.46-1.5,1.46,1.46,0,0,1,2.92,0Zm-2.76,3.91a1.31,1.31,0,1,1,2.6,0V111a1.31,1.31,0,1,1-2.6,0Z"/><path class="cls-16" d="M291.38,110.73c0,.67,0,1.69-1.25,1.69-.75,0-1.06-.41-1.24-1.1a3.1,3.1,0,0,1-2.47,1.21c-2.43,0-4.28-2.07-4.28-5s1.91-5,4.28-5a3,3,0,0,1,2.47,1.19,1.23,1.23,0,0,1,1.24-1.08c1.25,0,1.25,1,1.25,1.69Zm-4.6-.58c1.35,0,2-1.36,2-2.61s-.63-2.64-2-2.64-2,1.4-2,2.64S285.38,110.15,286.78,110.15Z"/><rect class="cls-10" x="163.05" y="130.43" width="164.81" height="30.55" rx="10.09"/><path class="cls-16" d="M192.92,140.05a1.28,1.28,0,0,1,1.39-1.4h3.17c2.77,0,4.48,1.24,4.48,4.07,0,2-1.49,3.11-3.33,3.4l3.06,3.28a1.18,1.18,0,0,1,.36.79,1.37,1.37,0,0,1-2.39.92l-4-4.85h0v3.91a1.35,1.35,0,1,1-2.7,0Zm2.7,4.27h1.86a1.53,1.53,0,0,0,1.67-1.6,1.51,1.51,0,0,0-1.67-1.59h-1.86Z"/><path class="cls-16" d="M205,147.54a2.24,2.24,0,0,0,2.45,1.87c1.33,0,2.25-1,2.93-1a1.15,1.15,0,0,1,1.06,1.12c0,1.11-2.3,2.19-4.23,2.19a4.72,4.72,0,0,1-4.86-5,4.66,4.66,0,1,1,9.31-.3c0,.77-.34,1.15-1.13,1.15Zm4.07-1.73a2.06,2.06,0,0,0-2.07-2,2.09,2.09,0,0,0-2.06,2Z"/><path class="cls-16" d="M219,144.55c-.65,0-1.22-.5-2.05-.5-1.48,0-2.18,1.31-2.18,2.64a2.39,2.39,0,0,0,2.18,2.62,13.79,13.79,0,0,0,1.92-.54A1.13,1.13,0,0,1,220,149.9c0,1.33-2.23,1.78-3.17,1.78a4.71,4.71,0,0,1-4.64-5,4.83,4.83,0,0,1,4.64-5c1,0,3.17.38,3.17,1.64C220,143.85,219.58,144.55,219,144.55Z"/><path class="cls-16" d="M220.86,143.22a1.3,1.3,0,1,1,2.59,0v4.63a1.68,1.68,0,0,0,3.35,0v-4.63a1.3,1.3,0,1,1,2.59,0v4.68c0,2.31-1.53,3.78-4.26,3.78s-4.27-1.47-4.27-3.78Z"/><path class="cls-16" d="M230.87,143.22a1.31,1.31,0,0,1,1.29-1.44,1.25,1.25,0,0,1,1.3,1.08,2.88,2.88,0,0,1,2.47-1.19c2.79,0,4.17,2.61,4.17,5.13s-1.65,4.88-4.26,4.88a3.67,3.67,0,0,1-2.38-.9V154a1.3,1.3,0,1,1-2.59,0Zm4.62,6.09c1.35,0,2-1.41,2-2.62s-.67-2.64-2-2.64-2,1.3-2,2.56S234.07,149.31,235.49,149.31Z"/><path class="cls-16" d="M243.29,147.54a2.24,2.24,0,0,0,2.45,1.87c1.33,0,2.25-1,2.93-1a1.15,1.15,0,0,1,1.06,1.12c0,1.11-2.3,2.19-4.23,2.19a4.72,4.72,0,0,1-4.86-5,4.66,4.66,0,1,1,9.31-.3c0,.77-.34,1.15-1.13,1.15Zm4.07-1.73a2.06,2.06,0,0,0-2.07-2,2.09,2.09,0,0,0-2.06,2Z"/><path class="cls-16" d="M250.83,143.08a1.27,1.27,0,0,1,1.33-1.3c.68,0,1.26.25,1.26,1.08h0a2,2,0,0,1,1.82-1.08,1.27,1.27,0,0,1,1.26,1.39c0,.84-.78.9-1.55,1.26s-1.57.7-1.57,1.72v4a1.3,1.3,0,1,1-2.59,0Z"/><path class="cls-16" d="M265.72,149.88c0,.67,0,1.69-1.24,1.69-.76,0-1.07-.41-1.25-1.09a3.08,3.08,0,0,1-2.46,1.2c-2.44,0-4.29-2.07-4.29-5s1.91-5,4.29-5a3,3,0,0,1,2.46,1.19,1.23,1.23,0,0,1,1.25-1.08c1.24,0,1.24,1,1.24,1.69Zm-4.59-.57c1.35,0,2-1.37,2-2.62s-.63-2.64-2-2.64-2.06,1.4-2.06,2.64S259.72,149.31,261.13,149.31Z"/><path class="cls-16" d="M273.64,144.55c-.65,0-1.23-.5-2.06-.5-1.47,0-2.18,1.31-2.18,2.64a2.4,2.4,0,0,0,2.18,2.62,14.41,14.41,0,0,0,1.93-.54,1.14,1.14,0,0,1,1.12,1.13c0,1.33-2.24,1.78-3.17,1.78a4.72,4.72,0,0,1-4.65-5,4.83,4.83,0,0,1,4.65-5c1,0,3.17.38,3.17,1.64C274.63,143.85,274.25,144.55,273.64,144.55Z"/><path class="cls-16" d="M278.24,139.31a1.49,1.49,0,0,1-1.46,1.5,1.52,1.52,0,0,1-1.45-1.5,1.46,1.46,0,0,1,2.91,0Zm-2.75,3.91a1.3,1.3,0,1,1,2.59,0v6.91a1.3,1.3,0,1,1-2.59,0Z"/><path class="cls-16" d="M288.43,146.69a4.66,4.66,0,1,1-9.29,0,4.66,4.66,0,1,1,9.29,0Zm-4.09-9a2,2,0,0,1,.69-.18,1.14,1.14,0,0,1,1,1.11,1,1,0,0,1-.74,1.07l-2,.79c-.52.18-.36.18-.72.18-.54,0-1-.68-1-1.31a.89.89,0,0,1,.51-.73l.14-.07Zm-2.61,9c0,1.25.65,2.62,2.06,2.62s2-1.37,2-2.62-.63-2.64-2-2.64S281.73,145.45,281.73,146.69Z"/><path class="cls-16" d="M289.53,143.22a1.31,1.31,0,0,1,1.29-1.44,1.09,1.09,0,0,1,1.19.95,2.82,2.82,0,0,1,2.51-1.06,3.32,3.32,0,0,1,3.54,3.49v5a1.3,1.3,0,1,1-2.59,0v-4.52a1.68,1.68,0,1,0-3.35,0v4.52a1.3,1.3,0,1,1-2.59,0Z"/><rect class="cls-10" x="163.05" y="169.58" width="164.81" height="30.55" rx="10.09"/><path class="cls-16" d="M207.77,177.58c1.32,0,3.88.43,3.88,2a1.15,1.15,0,0,1-1.12,1.21c-.74,0-1.24-.64-2.76-.64-2.23,0-3.38,1.89-3.38,4.09s1.17,4,3.38,4c1.52,0,2.13-.76,2.87-.76a1.28,1.28,0,0,1,1.19,1.23c0,1.73-2.72,2.12-4.06,2.12-3.65,0-6.19-2.89-6.19-6.62S204.1,177.58,207.77,177.58Z"/><path class="cls-16" d="M221.92,185.85a4.66,4.66,0,1,1-9.29,0,4.66,4.66,0,1,1,9.29,0Zm-6.69,0c0,1.24.64,2.61,2.05,2.61s2.05-1.37,2.05-2.61-.63-2.65-2.05-2.65S215.23,184.6,215.23,185.85Z"/><path class="cls-16" d="M223,182.37a1.31,1.31,0,0,1,1.3-1.44,1.09,1.09,0,0,1,1.18,1,2.8,2.8,0,0,1,2.51-1.07,3.32,3.32,0,0,1,3.54,3.5v5a1.3,1.3,0,1,1-2.59,0v-4.52a1.68,1.68,0,1,0-3.35,0v4.52a1.3,1.3,0,1,1-2.59,0Z"/><path class="cls-16" d="M233.66,183.31h-.58a1,1,0,0,1-1.13-1.14,1.1,1.1,0,0,1,1.13-1.13h.58v-1.55a1.3,1.3,0,1,1,2.59,0V181H237c.66,0,1.24.3,1.24,1.13a1.1,1.1,0,0,1-1.24,1.14h-.74v6a1.3,1.3,0,1,1-2.59,0Z"/><path class="cls-16" d="M240.44,186.69a2.24,2.24,0,0,0,2.45,1.87c1.33,0,2.25-1,2.94-1a1.15,1.15,0,0,1,1.06,1.12c0,1.11-2.31,2.19-4.23,2.19a4.72,4.72,0,0,1-4.86-5,4.66,4.66,0,1,1,9.31-.31,1,1,0,0,1-1.14,1.15Zm4.07-1.73a2,2,0,0,0-2.07-2,2.09,2.09,0,0,0-2.05,2Z"/><path class="cls-16" d="M248,182.37a1.31,1.31,0,0,1,1.3-1.44,1.09,1.09,0,0,1,1.18,1,2.8,2.8,0,0,1,2.51-1.07,3.33,3.33,0,0,1,3.55,3.5v5a1.31,1.31,0,1,1-2.6,0v-4.52a1.61,1.61,0,0,0-1.69-1.79,1.63,1.63,0,0,0-1.66,1.79v4.52a1.3,1.3,0,1,1-2.59,0Z"/><path class="cls-16" d="M264.47,183.7c-.64,0-1.22-.5-2.05-.5-1.47,0-2.18,1.31-2.18,2.65a2.39,2.39,0,0,0,2.18,2.61,14.41,14.41,0,0,0,1.93-.54,1.13,1.13,0,0,1,1.11,1.13c0,1.33-2.23,1.78-3.16,1.78a4.71,4.71,0,0,1-4.65-5,4.83,4.83,0,0,1,4.65-5c1,0,3.16.38,3.16,1.64C265.46,183,265.09,183.7,264.47,183.7Z"/><path class="cls-16" d="M269.08,178.46a1.49,1.49,0,0,1-1.46,1.5,1.52,1.52,0,0,1-1.46-1.5,1.5,1.5,0,0,1,1.46-1.42A1.48,1.48,0,0,1,269.08,178.46Zm-2.75,3.91a1.3,1.3,0,1,1,2.59,0v6.92a1.3,1.3,0,1,1-2.59,0Z"/><path class="cls-16" d="M279.27,185.85a4.66,4.66,0,1,1-9.29,0,4.66,4.66,0,1,1,9.29,0Zm-4.09-9a1.91,1.91,0,0,1,.69-.18,1.14,1.14,0,0,1,1,1.12,1,1,0,0,1-.74,1.06l-2,.79c-.52.18-.35.18-.72.18-.54,0-.95-.68-.95-1.31a.88.88,0,0,1,.5-.72l.15-.08Zm-2.61,9c0,1.24.65,2.61,2.06,2.61s2.05-1.37,2.05-2.61-.63-2.65-2.05-2.65S272.57,184.6,272.57,185.85Z"/><path class="cls-16" d="M280.37,182.37a1.31,1.31,0,0,1,1.29-1.44,1.09,1.09,0,0,1,1.19,1,2.78,2.78,0,0,1,2.5-1.07,3.32,3.32,0,0,1,3.55,3.5v5a1.3,1.3,0,1,1-2.59,0v-4.52a1.68,1.68,0,1,0-3.35,0v4.52a1.3,1.3,0,1,1-2.59,0Z"/><rect class="cls-10" x="163.05" y="208.73" width="164.81" height="30.55" rx="10.09"/><path class="cls-16" d="M229.52,218.53a1.25,1.25,0,0,1-1.21,1.34c-.74,0-1.31-.54-2.39-.54-.78,0-1.48.41-1.48,1.17,0,1.85,6,.66,6,5.31,0,2.57-2.13,4.17-4.61,4.17-1.39,0-4.38-.32-4.38-2a1.21,1.21,0,0,1,1.21-1.28c.84,0,1.85.7,3,.7s1.84-.66,1.84-1.55c0-2.12-6-.84-6-5a4.17,4.17,0,0,1,4.47-4.09C227,216.73,229.52,217.11,229.52,218.53Z"/><path class="cls-16" d="M240.39,228.18c0,.67,0,1.7-1.24,1.7-.76,0-1.06-.42-1.24-1.1a3.11,3.11,0,0,1-2.47,1.2c-2.43,0-4.29-2.07-4.29-5s1.91-5,4.29-5a3,3,0,0,1,2.47,1.19,1.23,1.23,0,0,1,1.24-1.08c1.24,0,1.24,1,1.24,1.69Zm-4.59-.57c1.35,0,2-1.37,2-2.61s-.63-2.65-2-2.65-2.05,1.41-2.05,2.65S234.4,227.61,235.8,227.61Z"/><path class="cls-16" d="M241.83,217.35a1.3,1.3,0,1,1,2.59,0v11.09a1.3,1.3,0,1,1-2.59,0Z"/><path class="cls-16" d="M248.58,217.61a1.48,1.48,0,0,1-1.46,1.5,1.52,1.52,0,0,1-1.46-1.5,1.5,1.5,0,0,1,1.46-1.42A1.48,1.48,0,0,1,248.58,217.61Zm-2.76,3.91a1.31,1.31,0,1,1,2.6,0v6.92a1.31,1.31,0,1,1-2.6,0Z"/><path class="cls-16" d="M258.72,228.44a1.32,1.32,0,0,1-1.3,1.44,1.25,1.25,0,0,1-1.3-1.08,2.8,2.8,0,0,1-2.37,1.18c-2.61,0-4.27-2.43-4.27-4.87s1.38-5.14,4.17-5.14a3.76,3.76,0,0,1,2.47.9v-3.52a1.31,1.31,0,1,1,2.6,0Zm-4.63-6.09c-1.35,0-2,1.42-2,2.65s.67,2.61,2,2.61,2-1.44,2-2.7S255.47,222.35,254.09,222.35Z"/><path class="cls-16" d="M269.05,228.18c0,.67,0,1.7-1.25,1.7-.75,0-1.06-.42-1.24-1.1a3.08,3.08,0,0,1-2.46,1.2c-2.44,0-4.29-2.07-4.29-5s1.91-5,4.29-5a3,3,0,0,1,2.46,1.19,1.23,1.23,0,0,1,1.24-1.08c1.25,0,1.25,1,1.25,1.69Zm-4.59-.57c1.35,0,2-1.37,2-2.61s-.63-2.65-2-2.65-2.06,1.41-2.06,2.65S263.05,227.61,264.46,227.61Z"/><rect class="cls-17" x="348.32" y="12.86" width="420" height="250" rx="9.3"/><path class="cls-18" d="M437,2.51H375.57a.94.94,0,1,1,0-1.87H437a.94.94,0,1,1,0,1.87Z"/><path class="cls-18" d="M381.47,6.82H359.62a.94.94,0,0,1,0-1.88h21.85a.94.94,0,0,1,0,1.88Z"/><path class="cls-18" d="M365,1.87h-5.42a.94.94,0,0,1,0-1.87H365a.94.94,0,1,1,0,1.87Z"/><path class="cls-18" d="M352.29,8.41h-3a.94.94,0,1,1,0-1.87h3a.94.94,0,0,1,0,1.87Z"/><path class="cls-18" d="M668.22,270.35h61.39a.94.94,0,1,0,0-1.88H668.22a.94.94,0,1,0,0,1.88Z"/><path class="cls-18" d="M723.71,274.65h21.84a.94.94,0,1,0,0-1.87H723.71a.94.94,0,1,0,0,1.87Z"/><path class="cls-18" d="M740.13,269.71h5.42a.94.94,0,1,0,0-1.87h-5.42a.94.94,0,0,0,0,1.87Z"/><path class="cls-18" d="M752.89,276.25h3a.94.94,0,1,0,0-1.88h-3a.94.94,0,1,0,0,1.88Z"/><g id="man"><path class="cls-19" d="M109.83,129.81c-.77,2.09-2.12,4.51-3.53,5.11a5.37,5.37,0,0,0-2.26,1.65l-1.3-.75-1.54-.9.11-.45c.08-.28.19-.66.35-1.09a1.51,1.51,0,0,0,.18-1.38,3.16,3.16,0,0,1,.27-2.66c.49-.72,1-2.49,1.27-2.44.72.13-.36,2.56,0,3a.53.53,0,0,0,.69.24h0c2-.89,4.47-5.68,5.56-5C110,125.35,110.16,128.92,109.83,129.81Z"/><path class="cls-20" d="M66.46,119.46S79.36,142,84,146.1l17.16-12.8a6.29,6.29,0,0,1,3.58,3.27S94.36,157.8,84.1,158.7s-24.66-25.45-24.66-25.45Z"/><path class="cls-21" d="M37.26,272.5H29.81a4.47,4.47,0,0,1-2-3.41c-.36-2.4-3.06-3.71-3.64-5.68s2.4-4.72,2.4-4.72L27,258l.52-.66,4.95,1.16s.12,1.18.2,2.68c0,1.08.08,2.33,0,3.43-.15,2.62.73,5.44,3.06,6C37.5,271,37.42,272,37.26,272.5Z"/><path class="cls-21" d="M80.52,272.5h-17c-.82-1-.52-4.69-.4-5.89,0-.25.05-.39.05-.39s5.82-4.65,6.62-1.09c0,.11,0,.22.08.33,1,3.34,5.53,4.85,8.14,5.27A3,3,0,0,1,80.52,272.5Z"/><path class="cls-22" d="M77.28,177.35s-.89,11-1.93,24.28c-1.41,18-3.11,40.13-3.27,44.32-.3,7.28-1.46,18.92-1.46,18.92s-2.76,2.76-8.29,1.6A190.54,190.54,0,0,1,56,232.27c0-.29,0-.58-.07-.87-1.31-17.89-3.34-55.58-3.34-55.58Z"/><path class="cls-23" d="M77.28,177.35s-.89,11-1.93,24.28L56,232.27c0-.29,0-.58-.07-.87-1.31-17.89-3.34-55.58-3.34-55.58Z"/><path class="cls-22" d="M73.24,178.66S57.31,218.6,46.83,237.37s-13.75,24-13.75,24-6-2.4-6.55-4c0,0,4-36.24,11-45.07,4-5,8.63-20,8.84-25.21s1.42-15.6,1.42-15.6Z"/><path class="cls-19" d="M69.27,120.43c-6.22,2-17-3.33-17-3.33s5.74-4.31,5.44-13.27l4.82,3.88,3.27,2.63a41.49,41.49,0,0,1-.37,4.28c-.1.72-.21,1.51-.36,2.39A14.77,14.77,0,0,1,69.27,120.43Z"/><path class="cls-24" d="M65.8,110.34a41.49,41.49,0,0,1-.37,4.28c-3.63-.62-7.74-6.48-7.74-6.48a11.53,11.53,0,0,1,4.84-.43Z"/><path class="cls-19" d="M67.7,110.2s-10.28,1.71-11.25-4.72S53.51,95,60,93.6s8.17.89,9,3S70.35,109.59,67.7,110.2Z"/><path class="cls-25" d="M78.17,181c-.89.71-10.62-.09-16.37-.86-8-1.07-10.18-.68-14.8-2.75-.62-.28-.43-3.16-.4-3.84s.09-1.84.19-3.22a174.25,174.25,0,0,0,.34-22.44c-.1-1.77-.15-3.51-.16-5.24,0-12.83,2.5-24.12,7.61-27.94.44-.31,3.12,1,5.58,2.22a10.24,10.24,0,0,0,6.7.81l2.15,1.9a21.51,21.51,0,0,1,6.74,10.76c1.06,4.27,1.68,12,2,20,.15,3.62.28,7.27.31,10.73v.12c0,.34,0,.72,0,1.06C78.24,171.1,78.53,180.67,78.17,181Z"/><path class="cls-20" d="M46.79,170.28a174.25,174.25,0,0,0,.34-22.44c-.1-1.77-.15-3.51-.16-5.24,2.13-5.16,3.87-8.91,3.87-8.91h5.37S60.15,160.57,46.79,170.28Z"/><path class="cls-25" d="M33.64,172.43a17.58,17.58,0,0,0,4,.23s5.74-17.73,6.48-19.35S61.2,132.52,61.2,132.52L52.54,117.1S37.68,134.75,34.6,147.92C32.9,155.18,31,171.3,31,171.3A7.28,7.28,0,0,0,33.64,172.43Z"/><path class="cls-26" d="M56.65,106.34a6.4,6.4,0,0,0,.68-3.1c-.17-1.46-.17-3.36,1-3s1.24,1.3,1.73.74.49-2.88,4-3,5,1.06,6.58.35,1.72-3.2,1.72-3.2h0A.73.73,0,0,1,71,94.93a8.23,8.23,0,0,0-2.9-4.41C65,88,63,90.09,61.2,90.2c-4,.24-8.14,3.58-8.67,6.49C51.56,102.05,56.22,105,56.65,106.34Z"/><path class="cls-27" d="M97.67,174.7l-56.65,6-.66-6.19,56.67-6a8.54,8.54,0,0,1,5.16,1.1l2.15,1.26-1.83,1.66A8.53,8.53,0,0,1,97.67,174.7Z"/><path class="cls-28" d="M104.34,170.87,40.69,177.6l-.33-3.1,56.67-6a8.54,8.54,0,0,1,5.16,1.1Z"/><rect class="cls-21" x="32" y="176.01" width="17.8" height="3.54" rx="1.68" transform="translate(213.4 118.42) rotate(83.96)"/><rect class="cls-21" x="30.75" y="176.47" width="10.18" height="3.71" rx="1.01" transform="translate(-18.56 4.76) rotate(-6.04)"/><rect class="cls-21" x="29.84" y="174.79" width="2.58" height="7.87" rx="0.86" transform="matrix(0.99, -0.11, 0.11, 0.99, -18.62, 4.26)"/><path class="cls-19" d="M36,171.1a9.08,9.08,0,0,1,1.93,3c.77,1.71,1.3,6-.52,6.19s-3.48.51-3.89-.47a16.22,16.22,0,0,1-.71-2.47.58.58,0,0,0-.63-.46h0s-1.5-3.3-.35-6.19C32.2,169.82,36,171.1,36,171.1Z"/><path class="cls-25" d="M35,167.5c1.76-.32,4.43-.15,4.15.71l-1.45,4.45c-2,.3-5.18-.22-6.69-1.36C31.67,167.39,35,167.5,35,167.5Z"/></g><path class="cls-12" d="M79.15,118.84s21.62-13.15,40.43-6.06c0,0,12.48,31.86-10.51,51.72C109.07,164.5,78.29,155.92,79.15,118.84Z"/><path class="cls-29" d="M108.7,162s-27.92-7.78-27.14-41.41a59.17,59.17,0,0,1,18.63-6.77,34.47,34.47,0,0,1,18,1.28S129.55,144,108.7,162Z"/><path class="cls-21" d="M108.7,162s4.5-25-8.51-48.18a34.47,34.47,0,0,1,18,1.28S129.55,144,108.7,162Z"/></g></g></svg>