<svg xmlns="http://www.w3.org/2000/svg" viewBox="0 0 357.58 161.92"><defs><style>.cls-1{fill:#eadf1b;}.cls-2{fill:#eda719;}.cls-3{fill:#df244b;}.cls-4{fill:#7dba43;}.cls-5{fill:#466898;}.cls-6{fill:#23344c;}.cls-7{fill:#fff;}</style></defs><g id="Capa_2" data-name="Capa 2"><g id="Capa_1-2" data-name="Capa 1"><rect class="cls-1" y="66.61" width="116.12" height="28.69" rx="3"/><rect class="cls-1" x="120.73" y="66.61" width="116.12" height="28.69" rx="3"/><rect class="cls-1" x="241.46" y="66.61" width="116.12" height="28.69" rx="3"/><rect class="cls-2" y="99.92" width="116.12" height="28.69" rx="3"/><rect class="cls-2" x="120.73" y="99.92" width="116.12" height="28.69" rx="3"/><rect class="cls-2" x="241.46" y="99.92" width="116.12" height="28.69" rx="3"/><rect class="cls-3" y="133.23" width="116.12" height="28.69" rx="3"/><rect class="cls-3" x="120.73" y="133.23" width="116.12" height="28.69" rx="3"/><rect class="cls-3" x="241.46" y="133.23" width="116.12" height="28.69" rx="3"/><rect class="cls-4" y="33.31" width="116.12" height="28.69" rx="3"/><rect class="cls-5" width="357.58" height="28.69" rx="3"/><path class="cls-6" d="M40.87,48.36c0-2.94,1.13-6.63,4.77-6.63s4.77,3.69,4.77,6.63S49.28,55,45.64,55,40.87,51.29,40.87,48.36Zm6.73,0c0-1.37-.12-4.18-2-4.18s-2,2.81-2,4.18.12,4.18,2,4.18S47.6,49.64,47.6,48.36Z"/><path class="cls-6" d="M52.88,56.57a1.29,1.29,0,0,1-1,.61A1.23,1.23,0,0,1,50.62,56a1.77,1.77,0,0,1,.22-.72l1.49-2.7A1.35,1.35,0,0,1,53.38,52a1.24,1.24,0,0,1,1.24,1.19,1.79,1.79,0,0,1-.23.72Z"/><path class="cls-6" d="M64.34,45a3.13,3.13,0,0,1-1.47,2.75A3.6,3.6,0,0,1,65.06,51a4.28,4.28,0,0,1-4.53,4c-2.67,0-4.33-2-4.33-3.39a1.36,1.36,0,0,1,1.39-1.21c1.22,0,.94,2.11,3,2.11a1.66,1.66,0,0,0,1.69-1.67c0-2.52-3.06-.67-3.06-2.79,0-1.9,2.56-.62,2.56-2.62a1.19,1.19,0,0,0-1.3-1.2C58.74,44.22,59,46,57.75,46a1.24,1.24,0,0,1-1.17-1.33c0-1.4,1.93-2.92,3.93-2.92A3.55,3.55,0,0,1,64.34,45Z"/><path class="cls-6" d="M72.17,44.43H67.56a1.19,1.19,0,0,1-1.33-1.24A1.17,1.17,0,0,1,67.56,42h6.52a1.32,1.32,0,0,1,1.3,1.3A3,3,0,0,1,75,44.43L70.5,53.51c-.51,1-.71,1.37-1.52,1.37a1.41,1.41,0,0,1-1.49-1.28,1.24,1.24,0,0,1,.18-.63Z"/><rect class="cls-4" x="120.73" y="33.31" width="116.12" height="28.69" rx="3"/><path class="cls-6" d="M161.27,48.36c0-2.94,1.14-6.63,4.78-6.63s4.77,3.69,4.77,6.63S169.68,55,166.05,55,161.27,51.29,161.27,48.36Zm6.74,0c0-1.37-.13-4.18-2-4.18s-2,2.81-2,4.18.13,4.18,2,4.18S168,49.64,168,48.36Z"/><path class="cls-6" d="M173.28,56.57a1.28,1.28,0,0,1-1,.61A1.23,1.23,0,0,1,171,56a1.77,1.77,0,0,1,.22-.72l1.49-2.7a1.35,1.35,0,0,1,1-.61A1.25,1.25,0,0,1,175,53.15a1.8,1.8,0,0,1-.24.72Z"/><path class="cls-6" d="M176.43,48.36c0-2.94,1.13-6.63,4.77-6.63S186,45.42,186,48.36,184.84,55,181.2,55,176.43,51.29,176.43,48.36Zm6.74,0c0-1.37-.13-4.18-2-4.18s-2,2.81-2,4.18.13,4.18,2,4.18S183.17,49.64,183.17,48.36Z"/><path class="cls-6" d="M186.76,48.36c0-2.94,1.14-6.63,4.77-6.63s4.77,3.69,4.77,6.63S195.17,55,191.53,55,186.76,51.29,186.76,48.36Zm6.74,0c0-1.37-.13-4.18-2-4.18s-2,2.81-2,4.18.13,4.18,2,4.18S193.5,49.64,193.5,48.36Z"/><rect class="cls-4" x="241.46" y="33.31" width="116.12" height="28.69" rx="3"/><path class="cls-6" d="M283,43.3A1.29,1.29,0,0,1,284.42,42h3.46a3.18,3.18,0,0,1,3.38,3.17,2.67,2.67,0,0,1-1.67,2.65v0a3.14,3.14,0,0,1,2.73,3.06c0,2.54-1.69,3.91-4.17,3.91h-3.71A1.33,1.33,0,0,1,283,53.4ZM285.7,47h1.4a1.34,1.34,0,0,0,1.46-1.43,1.3,1.3,0,0,0-1.46-1.27h-1.4Zm0,5.36h2.12a1.53,1.53,0,0,0,1.69-1.56c0-.85-.64-1.43-1.9-1.43H285.7Z"/><path class="cls-6" d="M302.11,53.18c0,.67,0,1.7-1.24,1.7-.75,0-1.06-.42-1.24-1.1A3.12,3.12,0,0,1,297.16,55c-2.43,0-4.28-2.08-4.28-5s1.91-5,4.28-5a3,3,0,0,1,2.47,1.19,1.23,1.23,0,0,1,1.24-1.08c1.24,0,1.24,1,1.24,1.69Zm-4.59-.57c1.35,0,2-1.37,2-2.61s-.63-2.65-2-2.65-2,1.41-2,2.65S296.12,52.61,297.52,52.61Z"/><path class="cls-6" d="M306.31,42.62a1.48,1.48,0,0,1-1.46,1.49,1.51,1.51,0,0,1-1.46-1.49,1.46,1.46,0,0,1,2.92,0Zm-2.76,3.9a1.3,1.3,0,1,1,2.59,0V57.25a1.3,1.3,0,1,1-2.59,0Z"/><path class="cls-6" d="M316.5,50a4.66,4.66,0,1,1-9.29,0,4.66,4.66,0,1,1,9.29,0Zm-6.7,0c0,1.24.65,2.61,2.05,2.61s2-1.37,2-2.61-.63-2.65-2-2.65S309.8,48.76,309.8,50Z"/><path class="cls-6" d="M40.54,81.67c0-2.94,1.14-6.63,4.78-6.63s4.77,3.69,4.77,6.63S49,88.29,45.32,88.29,40.54,84.6,40.54,81.67Zm6.74,0c0-1.37-.13-4.18-2-4.18s-2,2.81-2,4.18.13,4.17,2,4.17S47.28,82.94,47.28,81.67Z"/><path class="cls-6" d="M52.55,89.88a1.29,1.29,0,0,1-1,.61A1.23,1.23,0,0,1,50.3,89.3a1.72,1.72,0,0,1,.22-.72L52,85.88a1.34,1.34,0,0,1,1-.61,1.25,1.25,0,0,1,1.25,1.19,1.8,1.8,0,0,1-.24.72Z"/><path class="cls-6" d="M59.54,79.65a6.65,6.65,0,0,1,1.34-.18,3.72,3.72,0,0,1,3.73,3.83c0,3-1.65,5-4.77,5-1.28,0-4-.83-4-2.41a1.23,1.23,0,0,1,1.22-1.22c.72,0,1.59,1.15,2.79,1.15a2.13,2.13,0,0,0,1.91-2.36,1.64,1.64,0,0,0-1.72-1.82c-1,0-1.21.59-2.13.59a1,1,0,0,1-1.06-.84,5.19,5.19,0,0,1,0-.61l.45-3.8c.2-1.41.54-1.71,1.41-1.71h4.34a1.16,1.16,0,0,1,1.31,1.13,1.2,1.2,0,0,1-1.26,1.35H59.8Z"/><path class="cls-6" d="M74.35,78.33a3.14,3.14,0,0,1-1.48,2.76,3.58,3.58,0,0,1,2.2,3.22,4.28,4.28,0,0,1-4.54,4c-2.66,0-4.32-2-4.32-3.38A1.36,1.36,0,0,1,67.6,83.7c1.22,0,.93,2.11,3,2.11a1.66,1.66,0,0,0,1.69-1.68c0-2.52-3.06-.66-3.06-2.79,0-1.89,2.56-.61,2.56-2.61a1.19,1.19,0,0,0-1.3-1.2c-1.71,0-1.48,1.76-2.7,1.76A1.24,1.24,0,0,1,66.59,78c0-1.41,1.93-2.92,3.92-2.92A3.56,3.56,0,0,1,74.35,78.33Z"/><path class="cls-6" d="M161.6,81.67c0-2.94,1.13-6.63,4.77-6.63s4.77,3.69,4.77,6.63-1.13,6.62-4.77,6.62S161.6,84.6,161.6,81.67Zm6.73,0c0-1.37-.12-4.18-2-4.18s-2,2.81-2,4.18.12,4.17,2,4.17S168.33,82.94,168.33,81.67Z"/><path class="cls-6" d="M173.61,89.88a1.29,1.29,0,0,1-1,.61,1.23,1.23,0,0,1-1.23-1.19,1.72,1.72,0,0,1,.22-.72l1.5-2.7a1.32,1.32,0,0,1,1-.61,1.24,1.24,0,0,1,1.24,1.19,1.79,1.79,0,0,1-.23.72Z"/><path class="cls-6" d="M185.07,78.33a3.14,3.14,0,0,1-1.47,2.76,3.58,3.58,0,0,1,2.19,3.22,4.28,4.28,0,0,1-4.53,4c-2.67,0-4.33-2-4.33-3.38a1.36,1.36,0,0,1,1.39-1.21c1.23,0,.94,2.11,3,2.11A1.66,1.66,0,0,0,183,84.13c0-2.52-3.06-.66-3.06-2.79,0-1.89,2.56-.61,2.56-2.61a1.19,1.19,0,0,0-1.3-1.2c-1.71,0-1.47,1.76-2.7,1.76A1.25,1.25,0,0,1,177.31,78c0-1.41,1.93-2.92,3.93-2.92A3.55,3.55,0,0,1,185.07,78.33Z"/><path class="cls-6" d="M192.9,77.74h-4.61A1.19,1.19,0,0,1,187,76.5a1.17,1.17,0,0,1,1.33-1.24h6.52a1.31,1.31,0,0,1,1.3,1.29,3,3,0,0,1-.42,1.19l-4.46,9.08c-.51,1-.7,1.36-1.52,1.36a1.4,1.4,0,0,1-1.49-1.27,1.24,1.24,0,0,1,.18-.63Z"/><path class="cls-6" d="M276.81,76.54a1.81,1.81,0,0,1,1.77-1.39,1.93,1.93,0,0,1,1.8,1.29l2.12,7.14h0l2.12-7.14a1.93,1.93,0,0,1,1.8-1.29,1.81,1.81,0,0,1,1.77,1.39l1.67,10a1.72,1.72,0,0,1,0,.31,1.24,1.24,0,0,1-1.29,1.29c-.92,0-1.28-.41-1.41-1.26l-1.06-7.32h0L284,87.14a1.52,1.52,0,0,1-2.88,0l-2.16-7.54h0l-1.06,7.32c-.12.85-.48,1.26-1.4,1.26a1.25,1.25,0,0,1-1.3-1.29,1.72,1.72,0,0,1,0-.31Z"/><path class="cls-6" d="M293.18,84.15A2.23,2.23,0,0,0,295.62,86c1.34,0,2.26-1,2.94-1a1.15,1.15,0,0,1,1.06,1.12c0,1.11-2.3,2.19-4.23,2.19a4.72,4.72,0,0,1-4.86-5,4.66,4.66,0,1,1,9.31-.3c0,.77-.34,1.15-1.14,1.15Zm4.07-1.73a2.06,2.06,0,0,0-2.08-2,2.09,2.09,0,0,0-2.05,2Z"/><path class="cls-6" d="M309.61,86.74a1.3,1.3,0,0,1-1.29,1.44A1.23,1.23,0,0,1,307,87.1a2.82,2.82,0,0,1-2.38,1.19c-2.61,0-4.26-2.43-4.26-4.88s1.38-5.13,4.17-5.13a3.78,3.78,0,0,1,2.47.9V75.65a1.3,1.3,0,1,1,2.59,0ZM305,80.66c-1.35,0-2,1.42-2,2.64s.66,2.62,2,2.62,2-1.45,2-2.71S306.37,80.66,305,80.66Z"/><path class="cls-6" d="M313.8,75.92a1.49,1.49,0,0,1-1.46,1.5,1.52,1.52,0,0,1-1.45-1.5,1.46,1.46,0,0,1,2.91,0Zm-2.75,3.91a1.3,1.3,0,1,1,2.59,0v6.91a1.3,1.3,0,1,1-2.59,0Z"/><path class="cls-6" d="M324,83.3a4.66,4.66,0,1,1-9.29,0,4.66,4.66,0,1,1,9.29,0Zm-6.69,0c0,1.25.64,2.62,2.05,2.62s2-1.37,2-2.62-.63-2.64-2-2.64S317.3,82.06,317.3,83.3Z"/><path class="cls-6" d="M40.87,115c0-2.93,1.13-6.62,4.77-6.62S50.41,112,50.41,115s-1.13,6.63-4.77,6.63S40.87,117.91,40.87,115Zm6.73,0c0-1.37-.12-4.17-2-4.17s-2,2.8-2,4.17.12,4.18,2,4.18S47.6,116.25,47.6,115Z"/><path class="cls-6" d="M52.88,123.18a1.28,1.28,0,0,1-1,.62,1.23,1.23,0,0,1-1.23-1.19,1.72,1.72,0,0,1,.22-.72l1.49-2.7a1.34,1.34,0,0,1,1.05-.62,1.24,1.24,0,0,1,1.24,1.19,1.74,1.74,0,0,1-.23.72Z"/><path class="cls-6" d="M56.28,117.13c0-2.72,2.75-6.53,4.57-8.22a3.65,3.65,0,0,1,.58-.44,1,1,0,0,1,.54-.12,1.52,1.52,0,0,1,1.27,1.31,1.3,1.3,0,0,1-.37.74c-.72.88-1.89,2-2.49,2.88l0,0a2.78,2.78,0,0,1,1.13-.22,3.91,3.91,0,0,1,3.76,4,4.46,4.46,0,0,1-4.51,4.47A4.36,4.36,0,0,1,56.28,117.13Zm2.81,0A1.73,1.73,0,0,0,60.8,119a1.75,1.75,0,0,0,1.71-1.88,1.72,1.72,0,1,0-3.42,0Z"/><path class="cls-6" d="M72.17,111.05H67.56a1.19,1.19,0,0,1-1.33-1.24,1.18,1.18,0,0,1,1.33-1.25h6.52a1.32,1.32,0,0,1,1.3,1.3,3,3,0,0,1-.42,1.19l-4.46,9.07c-.51,1-.71,1.37-1.52,1.37a1.41,1.41,0,0,1-1.49-1.28,1.27,1.27,0,0,1,.18-.63Z"/><path class="cls-6" d="M161.27,115c0-2.93,1.14-6.62,4.78-6.62s4.77,3.69,4.77,6.62-1.14,6.63-4.77,6.63S161.27,117.91,161.27,115Zm6.74,0c0-1.37-.13-4.17-2-4.17s-2,2.8-2,4.17.13,4.18,2,4.18S168,116.25,168,115Z"/><path class="cls-6" d="M173.28,123.18a1.27,1.27,0,0,1-1,.62,1.23,1.23,0,0,1-1.23-1.19,1.72,1.72,0,0,1,.22-.72l1.49-2.7a1.34,1.34,0,0,1,1-.62,1.25,1.25,0,0,1,1.24,1.19,1.76,1.76,0,0,1-.24.72Z"/><path class="cls-6" d="M180.27,113a6.75,6.75,0,0,1,1.35-.18,3.7,3.7,0,0,1,3.72,3.83c0,3-1.65,5-4.77,5-1.28,0-4-.83-4-2.41a1.24,1.24,0,0,1,1.23-1.23c.72,0,1.58,1.15,2.79,1.15a2.12,2.12,0,0,0,1.9-2.35,1.64,1.64,0,0,0-1.72-1.82c-1.05,0-1.21.59-2.13.59a1,1,0,0,1-1.06-.85c0-.23,0-.41,0-.61l.45-3.8c.2-1.4.54-1.71,1.41-1.71h4.34a1.16,1.16,0,0,1,1.31,1.14,1.2,1.2,0,0,1-1.26,1.35h-3.38Z"/><path class="cls-6" d="M195.08,111.64a3.14,3.14,0,0,1-1.48,2.76,3.58,3.58,0,0,1,2.2,3.22,4.28,4.28,0,0,1-4.54,4c-2.66,0-4.32-2-4.32-3.39a1.36,1.36,0,0,1,1.39-1.2c1.22,0,.93,2.1,3,2.1a1.66,1.66,0,0,0,1.69-1.67c0-2.52-3.06-.67-3.06-2.79,0-1.89,2.56-.61,2.56-2.61a1.19,1.19,0,0,0-1.3-1.21c-1.71,0-1.48,1.77-2.7,1.77a1.24,1.24,0,0,1-1.17-1.34c0-1.4,1.93-2.91,3.93-2.91A3.55,3.55,0,0,1,195.08,111.64Z"/><path class="cls-6" d="M288,109.84a2.12,2.12,0,0,1,1.93-1.49,2,2,0,0,1,1.93,1.49l3.53,9.8a2,2,0,0,1,.14.66,1.2,1.2,0,0,1-1.24,1.19,1.27,1.27,0,0,1-1.32-.94l-.54-1.69h-5l-.54,1.68a1.26,1.26,0,0,1-1.3.95,1.29,1.29,0,0,1-1.33-1.26,1.42,1.42,0,0,1,.13-.59Zm.2,6.54h3.42l-1.67-5.22h0Z"/><path class="cls-6" d="M296.23,109a1.3,1.3,0,1,1,2.59,0v11.09a1.3,1.3,0,1,1-2.59,0Z"/><path class="cls-6" d="M300.89,114.07h-.58a1,1,0,0,1-1.13-1.13,1.11,1.11,0,0,1,1.13-1.14h.58v-1.54a1.3,1.3,0,1,1,2.59,0v1.54h.74a1.14,1.14,0,1,1,0,2.27h-.74v6a1.3,1.3,0,1,1-2.59,0Z"/><path class="cls-6" d="M314.5,116.61a4.66,4.66,0,1,1-9.29,0,4.66,4.66,0,1,1,9.29,0Zm-6.7,0c0,1.24.65,2.61,2.05,2.61s2.06-1.37,2.06-2.61-.64-2.65-2.06-2.65S307.8,115.37,307.8,116.61Z"/><path class="cls-6" d="M44.72,144.35H43.66a1.16,1.16,0,0,1-1.23-1.24,1.21,1.21,0,0,1,1.23-1.24h2.55a1.17,1.17,0,0,1,1.21,1.28v10.24a1.35,1.35,0,1,1-2.7,0Z"/><path class="cls-6" d="M50.71,156.49a1.26,1.26,0,0,1-1,.61,1.23,1.23,0,0,1-1.23-1.19,1.77,1.77,0,0,1,.22-.72l1.49-2.7a1.35,1.35,0,0,1,1-.61,1.24,1.24,0,0,1,1.24,1.19,2,2,0,0,1-.23.72Z"/><path class="cls-6" d="M53.86,148.28c0-2.94,1.14-6.63,4.77-6.63s4.78,3.69,4.78,6.63-1.14,6.63-4.78,6.63S53.86,151.21,53.86,148.28Zm6.74,0c0-1.37-.13-4.18-2-4.18s-2,2.81-2,4.18.13,4.18,2,4.18S60.6,149.56,60.6,148.28Z"/><path class="cls-6" d="M64.2,148.28c0-2.94,1.13-6.63,4.77-6.63s4.77,3.69,4.77,6.63-1.14,6.63-4.77,6.63S64.2,151.21,64.2,148.28Zm6.73,0c0-1.37-.13-4.18-2-4.18s-2,2.81-2,4.18.13,4.18,2,4.18S70.93,149.56,70.93,148.28Z"/><path class="cls-6" d="M161.6,148.28c0-2.94,1.13-6.63,4.77-6.63s4.77,3.69,4.77,6.63-1.13,6.63-4.77,6.63S161.6,151.21,161.6,148.28Zm6.73,0c0-1.37-.12-4.18-2-4.18s-2,2.81-2,4.18.12,4.18,2,4.18S168.33,149.56,168.33,148.28Z"/><path class="cls-6" d="M173.61,156.49a1.29,1.29,0,0,1-1,.61,1.23,1.23,0,0,1-1.23-1.19,1.77,1.77,0,0,1,.22-.72l1.5-2.7a1.32,1.32,0,0,1,1-.61,1.24,1.24,0,0,1,1.24,1.19,1.79,1.79,0,0,1-.23.72Z"/><path class="cls-6" d="M177,150.44c0-2.72,2.75-6.54,4.57-8.23a3.64,3.64,0,0,1,.58-.43.89.89,0,0,1,.54-.13A1.53,1.53,0,0,1,184,143a1.3,1.3,0,0,1-.37.74c-.72.88-1.89,2-2.49,2.88l0,0a3,3,0,0,1,1.13-.21,3.92,3.92,0,0,1,3.77,4,4.47,4.47,0,0,1-4.52,4.47A4.37,4.37,0,0,1,177,150.44Zm2.81,0a1.72,1.72,0,0,0,1.71,1.87,1.88,1.88,0,1,0-1.71-1.87Z"/><path class="cls-6" d="M192.9,144.35h-4.61a1.19,1.19,0,0,1-1.33-1.24,1.17,1.17,0,0,1,1.33-1.24h6.52a1.32,1.32,0,0,1,1.3,1.3,3,3,0,0,1-.42,1.18l-4.46,9.08c-.51,1-.7,1.37-1.52,1.37a1.41,1.41,0,0,1-1.49-1.28,1.24,1.24,0,0,1,.18-.63Z"/><path class="cls-6" d="M267.24,143.15a1.81,1.81,0,0,1,1.76-1.39,1.92,1.92,0,0,1,1.8,1.3l2.13,7.13h0l2.13-7.13a1.92,1.92,0,0,1,1.8-1.3,1.8,1.8,0,0,1,1.76,1.39l1.68,10a1.56,1.56,0,0,1,0,.3,1.26,1.26,0,0,1-1.3,1.3c-.92,0-1.28-.42-1.4-1.26l-1.07-7.33h0l-2.16,7.54A1.37,1.37,0,0,1,273,154.8a1.36,1.36,0,0,1-1.44-1.05l-2.17-7.54h0l-1.06,7.33c-.13.84-.49,1.26-1.41,1.26a1.25,1.25,0,0,1-1.29-1.3c0-.09,0-.2,0-.3Z"/><path class="cls-6" d="M281.51,146.44a1.3,1.3,0,1,1,2.59,0v4.63a1.68,1.68,0,0,0,3.35,0v-4.63a1.31,1.31,0,1,1,2.6,0v4.68c0,2.31-1.53,3.79-4.27,3.79s-4.27-1.48-4.27-3.79Z"/><path class="cls-6" d="M290.87,146.79a1.91,1.91,0,0,1-.12-.67A1.24,1.24,0,0,1,292,145a1.32,1.32,0,0,1,1.3.92l1.78,4.88,1.91-4.88a1.3,1.3,0,0,1,1.29-.92,1.25,1.25,0,0,1,1.23,1.12,1.54,1.54,0,0,1-.13.67L295,157.59a1.38,1.38,0,0,1-1.22,1,1.2,1.2,0,0,1-1.35-1.11,2.25,2.25,0,0,1,.16-.76l1.13-2.81Z"/><path class="cls-6" d="M313.86,153.11c0,.66,0,1.69-1.24,1.69-.76,0-1.07-.42-1.24-1.1a3.12,3.12,0,0,1-2.47,1.21c-2.43,0-4.29-2.08-4.29-5s1.91-5,4.29-5a3,3,0,0,1,2.47,1.19,1.23,1.23,0,0,1,1.24-1.08c1.24,0,1.24,1,1.24,1.7Zm-4.59-.58c1.35,0,2-1.37,2-2.61s-.63-2.65-2-2.65-2,1.41-2,2.65S307.86,152.53,309.27,152.53Z"/><path class="cls-6" d="M315.3,142.27a1.3,1.3,0,1,1,2.59,0v11.09a1.3,1.3,0,1,1-2.59,0Z"/><path class="cls-6" d="M320,147.38h-.58a1,1,0,0,1-1.13-1.14,1.11,1.11,0,0,1,1.13-1.13H320v-1.55a1.3,1.3,0,1,1,2.59,0v1.55h.74c.67,0,1.24.31,1.24,1.13a1.1,1.1,0,0,1-1.24,1.14h-.74v6a1.3,1.3,0,1,1-2.59,0Z"/><path class="cls-6" d="M333.57,149.92a4.66,4.66,0,1,1-9.29,0,4.66,4.66,0,1,1,9.29,0Zm-6.7,0c0,1.24.65,2.61,2.05,2.61s2.06-1.37,2.06-2.61-.63-2.65-2.06-2.65S326.87,148.68,326.87,149.92Z"/><path class="cls-7" d="M97.78,11.64c0-.9.45-1.57,1.41-1.57h4.46a1.2,1.2,0,0,1,1.28,1.24,1.22,1.22,0,0,1-1.28,1.25h-3.17v2.62h3a1.22,1.22,0,0,1,1.31,1.25,1.24,1.24,0,0,1-1.31,1.24h-3v2.74h3.33a1.2,1.2,0,0,1,1.28,1.24,1.22,1.22,0,0,1-1.28,1.24H99.17a1.32,1.32,0,0,1-1.39-1.35Z"/><path class="cls-7" d="M111.5,16.12c-.49,0-1.48-.76-2.32-.76-.47,0-.89.22-.89.72,0,1.21,4.51,1,4.51,4,0,1.73-1.46,3.05-3.7,3.05-1.45,0-3.61-.83-3.61-2A1.21,1.21,0,0,1,106.6,20c1,0,1.46.88,2.68.88.8,0,1-.25,1-.74,0-1.19-4.5-1-4.5-4,0-1.8,1.46-3,3.51-3,1.28,0,3.24.59,3.24,1.87A1.12,1.12,0,0,1,111.5,16.12Z"/><path class="cls-7" d="M120.16,16c-.65,0-1.23-.51-2.06-.51-1.47,0-2.17,1.32-2.17,2.65a2.38,2.38,0,0,0,2.17,2.61,14,14,0,0,0,1.93-.54,1.14,1.14,0,0,1,1.12,1.13c0,1.34-2.23,1.79-3.17,1.79a4.72,4.72,0,0,1-4.65-5,4.82,4.82,0,0,1,4.65-5c1,0,3.17.37,3.17,1.63C121.15,15.27,120.77,16,120.16,16Z"/><path class="cls-7" d="M130.9,21.31c0,.66,0,1.69-1.24,1.69-.75,0-1.06-.42-1.24-1.1A3.12,3.12,0,0,1,126,23.11c-2.43,0-4.28-2.07-4.28-5s1.91-5,4.28-5a3,3,0,0,1,2.47,1.18,1.23,1.23,0,0,1,1.24-1.08c1.24,0,1.24,1,1.24,1.7Zm-4.59-.58c1.35,0,2-1.37,2-2.61s-.63-2.65-2-2.65-2,1.41-2,2.65S124.91,20.73,126.31,20.73Z"/><path class="cls-7" d="M132.34,10.47a1.3,1.3,0,1,1,2.59,0V21.56a1.3,1.3,0,1,1-2.59,0Z"/><path class="cls-7" d="M145.23,21.31c0,.66,0,1.69-1.24,1.69-.76,0-1.06-.42-1.24-1.1a3.12,3.12,0,0,1-2.47,1.21c-2.43,0-4.28-2.07-4.28-5s1.9-5,4.28-5a3,3,0,0,1,2.47,1.18A1.23,1.23,0,0,1,144,13.2c1.24,0,1.24,1,1.24,1.7Zm-4.59-.58c1.35,0,2-1.37,2-2.61s-.63-2.65-2-2.65-2,1.41-2,2.65S139.24,20.73,140.64,20.73Z"/><path class="cls-7" d="M160.39,21.56a1.31,1.31,0,0,1-1.3,1.44,1.25,1.25,0,0,1-1.3-1.08,2.81,2.81,0,0,1-2.37,1.19c-2.61,0-4.27-2.43-4.27-4.88s1.39-5.13,4.18-5.13a3.7,3.7,0,0,1,2.46.9V10.47a1.31,1.31,0,1,1,2.6,0Zm-4.63-6.09c-1.35,0-2,1.42-2,2.65s.67,2.61,2,2.61,2-1.44,2-2.7S157.15,15.47,155.76,15.47Z"/><path class="cls-7" d="M164,19a2.24,2.24,0,0,0,2.45,1.87c1.33,0,2.25-1.05,2.93-1.05a1.16,1.16,0,0,1,1.07,1.12c0,1.12-2.31,2.2-4.24,2.2a4.73,4.73,0,0,1-4.86-5,4.66,4.66,0,1,1,9.31-.31c0,.78-.34,1.16-1.13,1.16ZM168,17.24a2.06,2.06,0,0,0-2.07-2,2.08,2.08,0,0,0-2,2Z"/><path class="cls-7" d="M178.44,19a2.24,2.24,0,0,0,2.45,1.87c1.33,0,2.25-1.05,2.93-1.05a1.15,1.15,0,0,1,1.06,1.12c0,1.12-2.3,2.2-4.23,2.2a4.73,4.73,0,0,1-4.86-5,4.66,4.66,0,1,1,9.31-.31c0,.78-.34,1.16-1.13,1.16Zm4.07-1.73a2.06,2.06,0,0,0-2.07-2,2.1,2.1,0,0,0-2.06,2Z"/><path class="cls-7" d="M185.42,15.22a2,2,0,0,1-.16-.76,1.26,1.26,0,0,1,1.35-1.26,1.18,1.18,0,0,1,1.15.92l1.66,5.12h0l1.65-5.12a1.19,1.19,0,0,1,1.15-.92,1.25,1.25,0,0,1,1.35,1.26,1.82,1.82,0,0,1-.16.76l-2.61,6.7c-.25.66-.52,1.08-1.4,1.08s-1.16-.42-1.41-1.08Z"/><path class="cls-7" d="M203.19,21.31c0,.66,0,1.69-1.24,1.69-.76,0-1.06-.42-1.24-1.1a3.12,3.12,0,0,1-2.47,1.21c-2.43,0-4.29-2.07-4.29-5s1.91-5,4.29-5a3,3,0,0,1,2.47,1.18A1.23,1.23,0,0,1,202,13.2c1.24,0,1.24,1,1.24,1.7Zm-4.59-.58c1.35,0,2-1.37,2-2.61s-.63-2.65-2-2.65-2,1.41-2,2.65S197.19,20.73,198.6,20.73Z"/><path class="cls-7" d="M204.63,10.47a1.3,1.3,0,1,1,2.59,0V21.56a1.3,1.3,0,1,1-2.59,0Z"/><path class="cls-7" d="M208.66,14.64a1.3,1.3,0,1,1,2.59,0v4.63a1.68,1.68,0,1,0,3.35,0V14.64a1.3,1.3,0,1,1,2.59,0v4.69c0,2.3-1.53,3.78-4.26,3.78s-4.27-1.48-4.27-3.78Z"/><path class="cls-7" d="M227.53,21.31c0,.66,0,1.69-1.25,1.69-.75,0-1.06-.42-1.24-1.1a3.09,3.09,0,0,1-2.46,1.21c-2.44,0-4.29-2.07-4.29-5s1.91-5,4.29-5A2.94,2.94,0,0,1,225,14.28a1.23,1.23,0,0,1,1.24-1.08c1.25,0,1.25,1,1.25,1.7Zm-4.59-.58c1.35,0,2-1.37,2-2.61s-.63-2.65-2-2.65-2.06,1.41-2.06,2.65S221.53,20.73,222.94,20.73Z"/><path class="cls-7" d="M235.45,16c-.65,0-1.23-.51-2.06-.51-1.47,0-2.18,1.32-2.18,2.65a2.39,2.39,0,0,0,2.18,2.61,14.41,14.41,0,0,0,1.93-.54,1.14,1.14,0,0,1,1.12,1.13c0,1.34-2.24,1.79-3.17,1.79a4.72,4.72,0,0,1-4.65-5,4.82,4.82,0,0,1,4.65-5c1,0,3.17.37,3.17,1.63C236.44,15.27,236.06,16,235.45,16Z"/><path class="cls-7" d="M240.05,10.74a1.48,1.48,0,0,1-1.46,1.49,1.52,1.52,0,0,1-1.46-1.49,1.5,1.5,0,0,1,1.46-1.43A1.48,1.48,0,0,1,240.05,10.74Zm-2.75,3.9a1.3,1.3,0,1,1,2.59,0v6.92a1.3,1.3,0,1,1-2.59,0Z"/><path class="cls-7" d="M250.24,18.12a4.66,4.66,0,1,1-9.29,0,4.66,4.66,0,1,1,9.29,0Zm-4.09-9a1.91,1.91,0,0,1,.69-.18,1.14,1.14,0,0,1,1,1.12,1,1,0,0,1-.74,1.06l-2,.79c-.53.18-.36.18-.72.18-.54,0-1-.68-1-1.31a.88.88,0,0,1,.51-.72L244,10Zm-2.61,9c0,1.24.65,2.61,2.06,2.61s2.05-1.37,2.05-2.61-.63-2.65-2.05-2.65S243.54,16.88,243.54,18.12Z"/><path class="cls-7" d="M251.34,14.64a1.31,1.31,0,0,1,1.29-1.44,1.09,1.09,0,0,1,1.19,1,2.81,2.81,0,0,1,2.5-1.06,3.32,3.32,0,0,1,3.55,3.49v5a1.3,1.3,0,1,1-2.59,0V17a1.68,1.68,0,1,0-3.35,0v4.52a1.3,1.3,0,1,1-2.59,0Z"/></g></g></svg>