<svg xmlns="http://www.w3.org/2000/svg" xmlns:xlink="http://www.w3.org/1999/xlink" viewBox="0 0 448.35 183.59"><defs><style>.cls-1,.cls-5{fill:none;}.cls-2{isolation:isolate;}.cls-3{clip-path:url(#clip-path);}.cls-4{opacity:0.31;mix-blend-mode:multiply;}.cls-5{stroke:#00953a;stroke-miterlimit:10;stroke-width:2px;}.cls-6{fill:#00953a;}</style><clipPath id="clip-path"><rect class="cls-1" x="-700.28" y="-759.57" width="1347.46" height="660.34"/></clipPath></defs><title>Pantalla 49.1-2</title><g class="cls-2"><g id="Capa_1" data-name="Capa 1"><rect class="cls-5" x="1" y="13.78" width="446.35" height="168.81" rx="9.3" ry="9.3"/><path class="cls-6" d="M95.74,2.51H34.34a.94.94,0,0,1,0-1.87H95.74a.94.94,0,1,1,0,1.87Z"/><path class="cls-6" d="M40.24,6.82H18.4a.94.94,0,0,1,0-1.87H40.24a.94.94,0,1,1,0,1.87Z"/><path class="cls-6" d="M23.82,1.87H18.4A.94.94,0,0,1,18.4,0h5.42a.94.94,0,0,1,0,1.87Z"/><path class="cls-6" d="M11.06,8.41H8A.94.94,0,1,1,8,6.54h3a.94.94,0,0,1,0,1.87Z"/></g></g></svg>