<svg xmlns="http://www.w3.org/2000/svg" viewBox="0 0 701.73 335.65"><defs><style>.cls-1{fill:none;}.cls-2{fill:#466898;}.cls-3{fill:#23344c;}.cls-4{fill:#eda719;}.cls-5{fill:#f34d17;}.cls-6{fill:#113241;}.cls-7{fill:#b63a11;}.cls-8{fill:#521744;}.cls-9{fill:#b27d13;}.cls-10{fill:#241a45;}.cls-11{fill:#004061;}.cls-12{fill:#005370;}.cls-13{fill:#3f5d22;}.cls-14{fill:#7dba43;}.cls-15{fill:#00a6df;}.cls-16{fill:#48348a;}.cls-17{fill:#0080c2;}.cls-18{fill:#a32d87;}.cls-19{fill:#df244b;}.cls-20{fill:#57507a;}</style></defs><g id="Capa_2" data-name="Capa 2"><g id="Capa_1-2" data-name="Capa 1"><path class="cls-1" d="M328.79,103.73a5.16,5.16,0,0,1,5.15-5.15,5,5,0,0,1,1.94.39l31.26,12.75v-22H305.69v22.67l23.1,9.43Z"/><path class="cls-1" d="M265.74,103.73a5.15,5.15,0,0,1,5.14-5.15,5,5,0,0,1,1.95.39l31.36,12.79V89.7H241.91v22.38l23.83,9.72Z"/><path class="cls-1" d="M96.3,70.35c1.18,0,1.69-1.2,1.69-2.25S97.45,66,96.3,66s-1.68,1.18-1.68,2.2S95.17,70.35,96.3,70.35Z"/><path class="cls-1" d="M454.9,103.73a5.16,5.16,0,0,1,5.15-5.15A5,5,0,0,1,462,99L494,112V89.7H431.09v22.38l23.81,9.72Z"/><path class="cls-1" d="M391.85,103.73A5.15,5.15,0,0,1,397,98.58a5.07,5.07,0,0,1,1.95.39l30.65,12.5V89.7H368.64v22.63l23.21,9.47Z"/><path class="cls-1" d="M78.37,97.42c.07,1.16,1.24,1.63,2.28,1.57s2.17-.65,2.1-1.84-1.28-1.63-2.31-1.57S78.3,96.25,78.37,97.42Z"/><path class="cls-1" d="M548.39,304.24c8.53,0,17.47-19.06,22.22-50.48a2,2,0,0,1,0-.49,339.13,339.13,0,0,0,3.45-49.33c0-60-13.28-100.29-25.68-100.29-5.94,0-12.08,9.25-16.86,25.48a5.18,5.18,0,0,1,.33,1.8v149C536.6,295.42,542.59,304.24,548.39,304.24Zm18.91-77.86a2,2,0,1,1,1.94,2.47,2.42,2.42,0,0,1-.47,0A2,2,0,0,1,567.3,226.38Zm-6.93-1.68a2,2,0,1,1,2,2.47,2,2,0,0,1-.48-.06A2,2,0,0,1,560.37,224.7ZM553.44,223a2,2,0,1,1,1.95,2.47,1.84,1.84,0,0,1-.47-.06A2,2,0,0,1,553.44,223Zm-6.92-1.68a2,2,0,1,1,1.94,2.47,2,2,0,0,1-.47-.06A2,2,0,0,1,546.52,221.34Zm-10-2.42a2,2,0,0,1-1.94,1.53,2,2,0,0,1-.47-.06,2,2,0,1,1,2.41-1.47Zm4.51,3.15a2,2,0,1,1,.48.06A2,2,0,0,1,541.06,222.07Z"/><path class="cls-1" d="M134,163a1.74,1.74,0,0,0-2.21.89l3.19,1.28A1.7,1.7,0,0,0,134,163Z"/><path class="cls-1" d="M344.54,50.29c1.09,0,1.6-1.07,1.6-2s-.49-2.06-1.6-2.06-1.6,1.09-1.6,2.06S343.45,50.29,344.54,50.29Z"/><path class="cls-1" d="M98,49.86a1.25,1.25,0,0,0-1.39-1.32H95.08v2.65h1.55A1.27,1.27,0,0,0,98,49.86Z"/><path class="cls-1" d="M108,152.73c-1-.42-2,.47-2.38,1.41s-.3,2.23.75,2.65,2-.48,2.41-1.46A1.87,1.87,0,0,0,108,152.73Z"/><path class="cls-1" d="M298.41,262.23a2.26,2.26,0,0,0-1.64,4.06c1.09.44,2-.42,2.4-1.38A1.94,1.94,0,0,0,298.41,262.23Z"/><path class="cls-1" d="M125.62,70.35c1.13,0,1.67-1.14,1.67-2.18s-.53-2.2-1.67-2.2-1.71,1.17-1.71,2.2S124.45,70.35,125.62,70.35Z"/><path class="cls-1" d="M170,55.35c1.17,0,1.71-1.14,1.71-2.18S171.13,51,170,51s-1.71,1.17-1.71,2.2S168.78,55.35,170,55.35Z"/><path class="cls-1" d="M140.47,65.79a1.74,1.74,0,0,0-1.71,1.65h3.44A1.71,1.71,0,0,0,140.47,65.79Z"/><path class="cls-1" d="M217.68,16.4a1.63,1.63,0,0,0-1.6,1.54h3.21A1.59,1.59,0,0,0,217.68,16.4Z"/><path class="cls-1" d="M104.79,65.79a1.73,1.73,0,0,0-1.71,1.65h3.43A1.71,1.71,0,0,0,104.79,65.79Z"/><path class="cls-1" d="M104.52,50.79a1.73,1.73,0,0,0-1.71,1.65h3.43A1.71,1.71,0,0,0,104.52,50.79Z"/><path class="cls-1" d="M117.31,70.35c1.13,0,1.68-1.17,1.68-2.18s-.55-2.2-1.68-2.2-1.69,1.08-1.69,2.13S116.13,70.35,117.31,70.35Z"/><path class="cls-1" d="M121,55.35c1.19,0,1.7-1.2,1.7-2.25S122.19,51,121,51s-1.68,1.18-1.68,2.2S119.91,55.35,121,55.35Z"/><path class="cls-1" d="M79.49,157.41c-1.1-.45-2,.44-2.41,1.4a1.94,1.94,0,0,0,.78,2.66,1.92,1.92,0,0,0,2.39-1.38A1.94,1.94,0,0,0,79.49,157.41Z"/><path class="cls-1" d="M87.51,160.64A1.87,1.87,0,0,0,85.14,162c-.39,1-.37,2.28.73,2.72s2-.46,2.37-1.39S88.55,161.06,87.51,160.64Z"/><path class="cls-1" d="M92.76,146.39a1.73,1.73,0,0,0-2.2.89l3.19,1.28A1.71,1.71,0,0,0,92.76,146.39Z"/><path class="cls-1" d="M6.58,115.56c-1.71.87-2.54,2.31-1.59,4.15l.62,1.21,5.81-3-.69-1.35C9.85,114.87,8.18,114.73,6.58,115.56Z"/><path class="cls-1" d="M95.14,163.52a1.73,1.73,0,0,0-2.2.89l3.19,1.28A1.7,1.7,0,0,0,95.14,163.52Z"/><path class="cls-1" d="M153.38,171c-1.09-.45-2,.44-2.41,1.4a1.77,1.77,0,1,0,2.41-1.4Z"/><path class="cls-1" d="M5,93.6c1,.21,2.3,0,2.54-1.22s-.82-1.87-1.81-2.07-2.27.11-2.49,1.21S3.93,93.4,5,93.6Z"/><path class="cls-1" d="M140.31,181.91a2,2,0,0,0-2.41,1.41,1.91,1.91,0,0,0,.77,2.65c1,.42,2-.43,2.36-1.39S141.36,182.33,140.31,181.91Z"/><path class="cls-1" d="M124.83,175.68c-1.09-.45-2,.44-2.41,1.4a1.77,1.77,0,1,0,2.41-1.4Z"/><path class="cls-1" d="M107.32,168.62c-1.1-.44-2,.44-2.41,1.4a1.93,1.93,0,0,0,.77,2.66c1,.42,2-.43,2.36-1.39S108.38,169,107.32,168.62Z"/><path class="cls-1" d="M5.15,109.73l-.75-3.35a1.71,1.71,0,0,0-1.23,2A1.73,1.73,0,0,0,5.15,109.73Z"/><path class="cls-1" d="M74.89,79.47c.85-.59,1.52-1.68.88-2.62a2.27,2.27,0,1,0-.88,2.62Z"/><path class="cls-1" d="M65.19,66.1a1.73,1.73,0,0,0-2.34.41l2.84,1.92A1.71,1.71,0,0,0,65.19,66.1Z"/><path class="cls-1" d="M76.79,116.31c.95.41,2.23.4,2.69-.64a2.26,2.26,0,0,0-4-1.76C75,114.94,75.85,115.89,76.79,116.31Z"/><path class="cls-1" d="M86.29,141.35l-1.44-.58-1,2.47,1.43.57a1.28,1.28,0,0,0,1.8-.71A1.26,1.26,0,0,0,86.29,141.35Z"/><path class="cls-1" d="M12.37,75.31a1.71,1.71,0,0,0-2.35.42,1.73,1.73,0,0,0,.31,2.35Z"/><path class="cls-1" d="M35.38,61.49a1.71,1.71,0,0,0-2.05-1.21,1.73,1.73,0,0,0-1.29,2Z"/><path class="cls-1" d="M19.31,72.37a1.9,1.9,0,0,0-.08-2.73c-.68-.8-1.85-1.38-2.75-.62a2,2,0,0,0,.12,2.75C17.35,72.65,18.45,73.09,19.31,72.37Z"/><path class="cls-1" d="M46.83,64c1.16.14,1.83-.93,2-2s-.26-2.25-1.44-2.38-1.84,1-2,2A1.93,1.93,0,0,0,46.83,64Z"/><path class="cls-1" d="M55.31,66.08c1.06.4,2-.51,2.34-1.45s.25-2.26-.81-2.65-2,.42-2.33,1.4S54.2,65.67,55.31,66.08Z"/><path class="cls-1" d="M149,50.79a1.74,1.74,0,0,0-1.71,1.65h3.44A1.71,1.71,0,0,0,149,50.79Z"/><path class="cls-1" d="M624,202.78c-1.16,0-1.7,1.08-1.7,2.13s.51,2.25,1.7,2.25S625.7,206,625.7,205,625.14,202.78,624,202.78Z"/><path class="cls-1" d="M625.1,222c0-1-.53-2.21-1.67-2.21s-1.71,1.17-1.71,2.21.54,2.17,1.71,2.17S625.1,223,625.1,222Z"/><path class="cls-1" d="M614.57,141.31a1.73,1.73,0,0,0-1.71,1.65h3.43A1.71,1.71,0,0,0,614.57,141.31Z"/><path class="cls-1" d="M636.9,202.6a1.75,1.75,0,0,0-1.71,1.65h3.44A1.71,1.71,0,0,0,636.9,202.6Z"/><polygon class="cls-1" points="614.87 200.44 614.84 200.44 613.41 204.79 616.26 204.79 614.87 200.44"/><path class="cls-1" d="M668.15,224.16c1.12,0,1.66-1.14,1.66-2.17s-.52-2.21-1.66-2.21-1.71,1.17-1.71,2.21S667,224.16,668.15,224.16Z"/><path class="cls-1" d="M670.23,185.6a1.75,1.75,0,0,0-1.71,1.65H672A1.71,1.71,0,0,0,670.23,185.6Z"/><path class="cls-1" d="M640.65,224.16c1.13,0,1.67-1.14,1.67-2.17s-.53-2.21-1.67-2.21-1.71,1.17-1.71,2.21S639.48,224.16,640.65,224.16Z"/><path class="cls-1" d="M659.51,224.16c1.18,0,1.69-1.2,1.69-2.25s-.54-2.13-1.69-2.13-1.68,1.19-1.68,2.21S658.38,224.16,659.51,224.16Z"/><path class="cls-1" d="M648.44,233.6a1.74,1.74,0,0,0-1.71,1.65h3.43A1.71,1.71,0,0,0,648.44,233.6Z"/><path class="cls-1" d="M649.4,185.6a1.74,1.74,0,0,0-1.71,1.65h3.43A1.71,1.71,0,0,0,649.4,185.6Z"/><path class="cls-1" d="M648.58,156.49c-1.18,0-1.7,1.17-1.7,2.2s.54,2.18,1.7,2.18,1.67-1.14,1.67-2.18S649.72,156.49,648.58,156.49Z"/><path class="cls-1" d="M640.91,185.78c-1.13,0-1.68,1.19-1.68,2.21s.55,2.17,1.68,2.17,1.69-1.2,1.69-2.25S642.06,185.78,640.91,185.78Z"/><path class="cls-1" d="M604.83,139.06h-1.36v6.54H605c1.94,0,2.82-1.43,2.82-3.23S606.9,139.06,604.83,139.06Z"/><path class="cls-1" d="M617,233.6a1.75,1.75,0,0,0-1.71,1.65h3.44A1.71,1.71,0,0,0,617,233.6Z"/><polygon class="cls-1" points="614.84 183.44 613.41 187.79 616.26 187.79 614.87 183.44 614.84 183.44"/><path class="cls-1" d="M618.32,156.49c-1.19,0-1.71,1.17-1.71,2.2s.54,2.18,1.71,2.18,1.66-1.14,1.66-2.18S619.46,156.49,618.32,156.49Z"/><path class="cls-1" d="M674.27,205c0-1-.53-2.21-1.67-2.21s-1.71,1.17-1.71,2.21.54,2.17,1.71,2.17S674.27,206,674.27,205Z"/><path class="cls-1" d="M653.42,202.78c-1.13,0-1.68,1.19-1.68,2.21s.55,2.17,1.68,2.17,1.69-1.2,1.69-2.25S654.57,202.78,653.42,202.78Z"/><path class="cls-1" d="M286.58,46A1.61,1.61,0,0,0,285,47.57h3.2A1.59,1.59,0,0,0,286.58,46Z"/><path class="cls-1" d="M302,50.29c1,0,1.55-1.07,1.55-2s-.49-2.06-1.55-2.06-1.6,1.09-1.6,2.06S300.93,50.29,302,50.29Z"/><path class="cls-1" d="M325,46a1.62,1.62,0,0,0-1.6,1.54h3.21A1.6,1.6,0,0,0,325,46Z"/><path class="cls-1" d="M333,15.53a1.18,1.18,0,0,0-1.31-1.23H330.2v2.48h1.44A1.2,1.2,0,0,0,333,15.53Z"/><path class="cls-1" d="M339,16.4a1.63,1.63,0,0,0-1.6,1.54h3.21A1.59,1.59,0,0,0,339,16.4Z"/><path class="cls-1" d="M346.64,20.66c1.08,0,1.58-1,1.58-2s-.48-2.1-1.58-2.1-1.57,1.09-1.57,2S345.59,20.66,346.64,20.66Z"/><path class="cls-1" d="M239.61,20.66c1.09,0,1.59-1.06,1.59-2s-.49-2.06-1.59-2.06-1.6,1.09-1.6,2.06S238.51,20.66,239.61,20.66Z"/><path class="cls-1" d="M258.25,20.66c1.08,0,1.59-1,1.59-2s-.48-2.1-1.59-2.1-1.57,1.09-1.57,2S257.2,20.66,258.25,20.66Z"/><path class="cls-1" d="M250.5,20.66c1.09,0,1.59-1.06,1.59-2s-.49-2.06-1.59-2.06-1.6,1.09-1.6,2.06S249.4,20.66,250.5,20.66Z"/><path class="cls-1" d="M357.81,20.66c1.05,0,1.55-1.06,1.55-2s-.49-2.06-1.55-2.06-1.6,1.09-1.6,2.06S356.72,20.66,357.81,20.66Z"/><path class="cls-1" d="M269.42,20.66c1.05,0,1.56-1.06,1.56-2s-.49-2.06-1.56-2.06-1.59,1.09-1.59,2.06S268.33,20.66,269.42,20.66Z"/><path class="cls-1" d="M509.89,4a1.63,1.63,0,0,0-1.6,1.55h3.21A1.61,1.61,0,0,0,509.89,4Z"/><path class="cls-1" d="M497.2,17.37c-1.11,0-1.6,1.09-1.6,2.06s.5,2,1.6,2,1.55-1.06,1.55-2S498.26,17.37,497.2,17.37Z"/><path class="cls-1" d="M497.83,8.29c1.09,0,1.6-1.06,1.6-2s-.49-2.06-1.6-2.06-1.59,1.09-1.59,2.06S496.74,8.29,497.83,8.29Z"/><path class="cls-1" d="M513,17.37c-1.1,0-1.59,1.09-1.59,2.06s.5,2,1.59,2,1.6-1.06,1.6-2S514.12,17.37,513,17.37Z"/><path class="cls-1" d="M479.17,8.29c1.05,0,1.56-1.06,1.56-2s-.49-2.06-1.56-2.06-1.6,1.09-1.6,2.06S478.08,8.29,479.17,8.29Z"/><path class="cls-1" d="M377.63,16.4A1.62,1.62,0,0,0,376,17.94h3.2A1.59,1.59,0,0,0,377.63,16.4Z"/><path class="cls-1" d="M453.53,50.48c1.09,0,1.6-1.07,1.6-2s-.49-2.06-1.6-2.06-1.6,1.09-1.6,2.06S452.44,50.48,453.53,50.48Z"/><path class="cls-1" d="M397.22,20.66c1.09,0,1.6-1.06,1.6-2s-.49-2.06-1.6-2.06-1.6,1.09-1.6,2.06S396.13,20.66,397.22,20.66Z"/><path class="cls-1" d="M415,50.48c1.05,0,1.57-1.09,1.57-2S416,46.39,415,46.39s-1.59,1-1.59,2S413.84,50.48,415,50.48Z"/><path class="cls-1" d="M422.56,46.22A1.62,1.62,0,0,0,421,47.76h3.2A1.59,1.59,0,0,0,422.56,46.22Z"/><path class="cls-1" d="M310.75,267.2c-1-.42-2,.46-2.37,1.39s-.31,2.25.73,2.67a1.88,1.88,0,0,0,2.37-1.34C311.87,269,311.85,267.64,310.75,267.2Z"/><path class="cls-1" d="M344.27,280.7a2,2,0,0,0-2.41,1.41,1.93,1.93,0,0,0,.77,2.66c1,.42,2-.44,2.36-1.4S345.32,281.13,344.27,280.7Z"/><path class="cls-1" d="M328.35,255.5l-1.27-.51-2.44,6.07,1.41.56c1.79.73,3.15-.27,3.82-1.94S330.27,256.27,328.35,255.5Z"/><path class="cls-1" d="M697.84,219.6a1.75,1.75,0,0,0-1.71,1.65h3.44A1.71,1.71,0,0,0,697.84,219.6Z"/><path class="cls-1" d="M616,249.67a1.26,1.26,0,0,0-1.39-1.32H613V251h1.55A1.28,1.28,0,0,0,616,249.67Z"/><path class="cls-1" d="M336.54,261.22a1.75,1.75,0,0,0-2.2.9l3.18,1.28A1.71,1.71,0,0,0,336.54,261.22Z"/><path class="cls-1" d="M370.1,274.94c-1.1-.44-2,.45-2.41,1.41a1.92,1.92,0,0,0,.77,2.65c1.05.42,2-.43,2.36-1.39S371.16,275.37,370.1,274.94Z"/><path class="cls-1" d="M348.13,265.89a1.75,1.75,0,0,0-2.2.9l3.18,1.28A1.72,1.72,0,0,0,348.13,265.89Z"/><path class="cls-1" d="M361.78,287.76c-1.1-.44-2,.45-2.41,1.41a1.76,1.76,0,1,0,3.17,1.28C362.93,289.48,362.88,288.2,361.78,287.76Z"/><path class="cls-1" d="M622.46,250.6a1.74,1.74,0,0,0-1.71,1.65h3.43A1.71,1.71,0,0,0,622.46,250.6Z"/><path class="cls-1" d="M667.47,233.78c-1.18,0-1.71,1.17-1.71,2.21s.54,2.17,1.71,2.17,1.67-1.14,1.67-2.17S668.61,233.78,667.47,233.78Z"/><path class="cls-1" d="M377.25,294c-1.1-.44-2,.45-2.41,1.41a1.94,1.94,0,0,0,.78,2.66c1,.42,2-.44,2.35-1.4S378.31,294.42,377.25,294Z"/><path class="cls-1" d="M388.26,298.23a1.74,1.74,0,0,0-2.21.89l3.19,1.29A1.72,1.72,0,0,0,388.26,298.23Z"/><path class="cls-1" d="M689.35,219.78c-1.12,0-1.68,1.19-1.68,2.21s.56,2.17,1.68,2.17,1.7-1.2,1.7-2.25S690.51,219.78,689.35,219.78Z"/><path class="cls-1" d="M684.39,202.6a1.75,1.75,0,0,0-1.71,1.65h3.44A1.71,1.71,0,0,0,684.39,202.6Z"/><path class="cls-1" d="M676.73,219.78c-1.13,0-1.68,1.19-1.68,2.21s.55,2.17,1.68,2.17,1.69-1.2,1.69-2.25S677.88,219.78,676.73,219.78Z"/><path class="cls-1" d="M673.71,250.78c-1.18,0-1.71,1.17-1.71,2.21s.54,2.17,1.71,2.17,1.67-1.14,1.67-2.17S674.85,250.78,673.71,250.78Z"/><path class="cls-1" d="M605,156.49c-1.15,0-1.69,1.08-1.69,2.13s.51,2.25,1.69,2.25,1.68-1.17,1.68-2.18S606.14,156.49,605,156.49Z"/><path class="cls-1" d="M631.94,233.78c-1.16,0-1.7,1.08-1.7,2.13s.51,2.25,1.7,2.25,1.68-1.17,1.68-2.17S633.06,233.78,631.94,233.78Z"/><path class="cls-1" d="M318.76,270.43c-1.1-.44-2,.44-2.41,1.4a1.94,1.94,0,0,0,.78,2.66c1,.42,2-.43,2.35-1.39S319.82,270.85,318.76,270.43Z"/><path class="cls-1" d="M632.34,219.78c-1.15,0-1.69,1.08-1.69,2.13s.51,2.25,1.69,2.25S634,223,634,222,633.47,219.78,632.34,219.78Z"/><path class="cls-1" d="M638,141.49c-1.19,0-1.71,1.17-1.71,2.2s.54,2.18,1.71,2.18,1.66-1.14,1.66-2.18S639.17,141.49,638,141.49Z"/><path class="cls-1" d="M646.89,250.6a1.75,1.75,0,0,0-1.71,1.65h3.44A1.71,1.71,0,0,0,646.89,250.6Z"/><path class="cls-2" d="M531.53,129.13c4.78-16.23,10.92-25.48,16.86-25.48,12.4,0,25.68,40.3,25.68,100.29a339.13,339.13,0,0,1-3.45,49.33,2,2,0,0,0,0,.49c-4.75,31.42-13.69,50.48-22.22,50.48-5.8,0-11.79-8.82-16.53-24.36v11.38c4.5,10.55,10.06,17,16.53,17,12.3,0,21.31-23.24,26-53.82a2,2,0,0,0,.17-.55c1.12-7.44,2-15.38,2.57-23.59.07-1.11.14-2.24.21-3.36.24-3.87.42-7.8.54-11.76,0-1.37.08-2.74.1-4.11,0-.4,0-.8,0-1.19,0-2,.06-4,.06-5.92v-2c-.28-50.64-11.33-102.31-29.67-102.31-8.22,0-15,10.39-20,26.42l.23.1A5.13,5.13,0,0,1,531.53,129.13Z"/><path class="cls-3" d="M578.11,229a2,2,0,0,0-.76-2.08c-.07,1.12-.14,2.25-.21,3.36A2,2,0,0,0,578.11,229Z"/><path class="cls-3" d="M561.84,227.11a2,2,0,0,0,.48.06,2,2,0,1,0-.48-.06Z"/><path class="cls-3" d="M568.77,228.8a2.42,2.42,0,0,0,.47,0,2,2,0,1,0-.47,0Z"/><path class="cls-3" d="M554.92,225.43a1.84,1.84,0,0,0,.47.06,2,2,0,1,0-.47-.06Z"/><path class="cls-3" d="M548,223.75a2,2,0,0,0,.47.06,2,2,0,1,0-.47-.06Z"/><path class="cls-3" d="M535.08,216.5a2,2,0,0,0-.94,3.89,2,2,0,0,0,.47.06,2,2,0,0,0,.47-3.95Z"/><path class="cls-3" d="M543.48,220.6a2,2,0,1,0-2.42,1.47,2,2,0,0,0,.48.06A2,2,0,0,0,543.48,220.6Z"/><path class="cls-3" d="M582.7,228.25a2.78,2.78,0,0,0-.38.12,2.21,2.21,0,0,0-.34.18,1.81,1.81,0,0,0-.3.25,2,2,0,0,0-.59,1.41,1.72,1.72,0,0,0,0,.39,1.66,1.66,0,0,0,.11.38,1.63,1.63,0,0,0,.19.34,1.79,1.79,0,0,0,.25.31,2.48,2.48,0,0,0,.3.25,2.21,2.21,0,0,0,.34.18,1.82,1.82,0,0,0,.38.11,1.92,1.92,0,0,0,.78,0,1.58,1.58,0,0,0,.37-.11,2.31,2.31,0,0,0,.35-.18,2.48,2.48,0,0,0,.3-.25,1.79,1.79,0,0,0,.25-.31,1.63,1.63,0,0,0,.19-.34,2.38,2.38,0,0,0,.11-.38,1.92,1.92,0,0,0,0-.78,2.26,2.26,0,0,0-.11-.37,1.7,1.7,0,0,0-.19-.35,1.42,1.42,0,0,0-.25-.3,1.81,1.81,0,0,0-.3-.25,2.31,2.31,0,0,0-.35-.18,2.29,2.29,0,0,0-.37-.12A2,2,0,0,0,582.7,228.25Z"/><path class="cls-4" d="M29.29,96.12a.93.93,0,0,0-.51,1.58l5.93,5.67-1.4,8a.92.92,0,0,0,1.33,1L42,108.57l7.37,3.79a.93.93,0,0,0,1.34-1l-1.4-8,5.92-5.67a.92.92,0,0,0-.51-1.58L46.53,95l-3.69-7.32a.92.92,0,0,0-1.65,0L37.5,95Z"/><path class="cls-5" d="M584.65,330.88l-10.5-13.54a1.33,1.33,0,0,0-.29-.29,1.57,1.57,0,0,0-.48-.25,2.25,2.25,0,0,0-.36-.06,1.23,1.23,0,0,0-.27,0,1.35,1.35,0,0,0-.6.21,1.55,1.55,0,0,0-.4.37,1.58,1.58,0,0,0-.2.36L570.21,321,89.27,124.89a1.45,1.45,0,0,0-.5-.11,1.48,1.48,0,0,0-1.13.44,1.49,1.49,0,0,0-.33,1.63L88.62,130l-3.16,1.36a1.5,1.5,0,0,0,0,2.77l480.93,196.1-1.34,3.3a1.46,1.46,0,0,0-.11.41,1.41,1.41,0,0,0,0,.54,1.49,1.49,0,0,0,.76,1,1.45,1.45,0,0,0,.51.16h.12a1.51,1.51,0,0,0,.3,0l17-2.33a1.46,1.46,0,0,0,.41-.11,1.51,1.51,0,0,0,.45-.29,1.49,1.49,0,0,0,.35-.52,1.45,1.45,0,0,0,.11-.62,1.4,1.4,0,0,0-.11-.53A1.65,1.65,0,0,0,584.65,330.88Z"/><rect class="cls-5" x="305.69" y="79.69" width="61.45" height="10.01"/><path class="cls-5" d="M661.73,89.7v3.56a1.4,1.4,0,0,0,0,.41,1.58,1.58,0,0,0,.23.49,1.44,1.44,0,0,0,.47.42,1.38,1.38,0,0,0,.6.2,1.64,1.64,0,0,0,.54,0l.11,0a1.13,1.13,0,0,0,.27-.13L678.84,86a1.66,1.66,0,0,0,.34-.25,1.37,1.37,0,0,0,.3-.45,1.42,1.42,0,0,0,.13-.61,1.5,1.5,0,0,0-.44-1.07,1.55,1.55,0,0,0-.33-.24L664,74.81a1.68,1.68,0,0,0-.39-.16,1.41,1.41,0,0,0-.54,0,1.37,1.37,0,0,0-.35.08l-.25.11a1.42,1.42,0,0,0-.46.42,1.49,1.49,0,0,0-.24.49,2,2,0,0,0,0,.42v3.56H495.51v10Z"/><rect class="cls-5" x="431.09" y="79.69" width="62.92" height="10.01"/><rect class="cls-5" x="368.64" y="79.69" width="60.95" height="10.01"/><rect class="cls-5" x="241.91" y="79.69" width="62.27" height="10.01"/><path class="cls-5" d="M92.28,88.77a1.49,1.49,0,0,0,1.38.93H240.41v-10H93.66a1.69,1.69,0,0,0-.5.08,1.5,1.5,0,0,0-.57,2.47L95,84.69l-2.41,2.45A1.49,1.49,0,0,0,92.28,88.77Z"/><path class="cls-6" d="M209.54,14.3h1.53v7a1.05,1.05,0,1,0,2.1,0v-7h1.53a.9.9,0,0,0,1-1,.93.93,0,0,0-1-1h-5.16a.93.93,0,0,0-.95,1A.9.9,0,0,0,209.54,14.3Z"/><path class="cls-6" d="M214.07,18.63a3.67,3.67,0,0,0,3.78,3.88c1.5,0,3.29-.84,3.29-1.71a.9.9,0,0,0-.83-.87c-.53,0-1.24.82-2.28.82a1.74,1.74,0,0,1-1.9-1.46h4.3c.61,0,.88-.3.88-.9a3.63,3.63,0,1,0-7.24.24Zm3.61-2.23a1.59,1.59,0,0,1,1.61,1.54h-3.21A1.63,1.63,0,0,1,217.68,16.4Z"/><path class="cls-6" d="M225.34,22.51c.73,0,2.46-.35,2.46-1.39a.88.88,0,0,0-.86-.88,11.38,11.38,0,0,1-1.5.42,1.86,1.86,0,0,1-1.7-2c0-1,.55-2.06,1.7-2.06.64,0,1.09.39,1.59.39s.77-.54.77-1c0-1-1.66-1.28-2.46-1.28a3.76,3.76,0,0,0-3.62,3.91A3.67,3.67,0,0,0,225.34,22.51Z"/><path class="cls-6" d="M229.51,22.43a1,1,0,0,0,1-1.12V17.79a1.3,1.3,0,1,1,2.6,0v3.52a1,1,0,1,0,2,0V17.44a2.59,2.59,0,0,0-2.76-2.72,2.19,2.19,0,0,0-1.95.83.84.84,0,0,0-.92-.74,1,1,0,0,0-1,1.12v5.38A1,1,0,0,0,229.51,22.43Z"/><path class="cls-6" d="M239.61,22.51a3.67,3.67,0,0,0,3.61-3.88,3.63,3.63,0,1,0-7.23,0A3.67,3.67,0,0,0,239.61,22.51Zm0-5.94c1.1,0,1.59,1.09,1.59,2.06s-.5,2-1.59,2-1.6-1.06-1.6-2S238.5,16.57,239.61,16.57Z"/><path class="cls-6" d="M245.05,22.43a1,1,0,0,0,1-1.12V12.68a1,1,0,1,0-2,0v8.63A1,1,0,0,0,245.05,22.43Z"/><path class="cls-6" d="M250.5,22.51a3.67,3.67,0,0,0,3.61-3.88,3.63,3.63,0,1,0-7.23,0A3.67,3.67,0,0,0,250.5,22.51Zm0-5.94c1.1,0,1.59,1.09,1.59,2.06s-.5,2-1.59,2-1.6-1.06-1.6-2S249.39,16.57,250.5,16.57Z"/><path class="cls-6" d="M257.78,22.51a2.33,2.33,0,0,0,2-1h0V22a1.55,1.55,0,0,1-1.71,1.6c-1.17,0-1.88-.63-2.52-.63a1,1,0,0,0-.82.88c0,1.11,2.36,1.52,3.18,1.52,2.3,0,3.88-1.22,3.88-3.65V15.93a1,1,0,0,0-1-1.12,1,1,0,0,0-1,.84,2.2,2.2,0,0,0-1.85-.93c-2,0-3.32,1.89-3.32,3.92S255.66,22.51,257.78,22.51Zm.47-5.94c1.11,0,1.59,1.12,1.59,2.1s-.51,2-1.59,2-1.57-1-1.57-2.06S257.2,16.57,258.25,16.57Z"/><path class="cls-6" d="M263,15.93v5.38a1,1,0,1,0,2,0V15.93a1,1,0,1,0-2,0Z"/><path class="cls-6" d="M263,14c.28,0,.15,0,.56-.14l1.57-.62a.8.8,0,0,0,.57-.83.89.89,0,0,0-.76-.87,1.61,1.61,0,0,0-.53.14l-1.65.68-.11.05a.69.69,0,0,0-.4.56C262.25,13.43,262.58,14,263,14Z"/><path class="cls-6" d="M269.14,22.51a2.4,2.4,0,0,0,1.92-.94c.14.53.38.86,1,.86,1,0,1-.8,1-1.32v-5c0-.52,0-1.31-1-1.31a1,1,0,0,0-1,.84,2.29,2.29,0,0,0-1.92-.93c-1.85,0-3.33,1.7-3.33,3.91S267.25,22.51,269.14,22.51Zm.28-5.94c1.07,0,1.56,1.09,1.56,2.06s-.51,2-1.56,2-1.59-1.06-1.59-2S268.32,16.57,269.42,16.57Z"/><path class="cls-7" d="M94,57.24a1.07,1.07,0,0,0,1.12-1.17V52.81h0l3.33,4a1.18,1.18,0,0,0,.87.39,1.15,1.15,0,0,0,1.13-1.16,1,1,0,0,0-.3-.66l-2.55-2.73a2.9,2.9,0,0,0,2.77-2.83c0-2.36-1.42-3.39-3.73-3.39H94a1.07,1.07,0,0,0-1.16,1.17v8.43A1.08,1.08,0,0,0,94,57.24Zm1.12-8.7h1.55A1.25,1.25,0,0,1,98,49.86a1.27,1.27,0,0,1-1.39,1.33H95.08Z"/><path class="cls-7" d="M104.7,57.33c1.6,0,3.52-.9,3.52-1.83a1,1,0,0,0-.88-.93c-.57,0-1.34.87-2.45.87a1.87,1.87,0,0,1-2-1.56h4.61c.66,0,.94-.32.94-1a3.88,3.88,0,1,0-7.75.25A3.94,3.94,0,0,0,104.7,57.33Zm-.18-6.54a1.71,1.71,0,0,1,1.72,1.65h-3.43A1.73,1.73,0,0,1,104.52,50.79Z"/><path class="cls-7" d="M110.25,57.24a1.09,1.09,0,0,0,1.08-1.2V52.27a1.4,1.4,0,1,1,2.79,0V56a1.09,1.09,0,1,0,2.16,0V51.9a2.77,2.77,0,0,0-3-2.91,2.34,2.34,0,0,0-2.08.88.92.92,0,0,0-1-.79,1.09,1.09,0,0,0-1.08,1.2V56A1.09,1.09,0,0,0,110.25,57.24Z"/><path class="cls-7" d="M120.75,57.33a2.36,2.36,0,0,0,2-1,1,1,0,0,0,1.08.9,1.09,1.09,0,0,0,1.08-1.2V46.8a1.09,1.09,0,1,0-2.16,0v2.94a3.11,3.11,0,0,0-2.06-.75c-2.32,0-3.48,2.17-3.48,4.27S118.57,57.33,120.75,57.33ZM121,51c1.16,0,1.7,1.08,1.7,2.13s-.51,2.25-1.7,2.25-1.68-1.17-1.68-2.18S119.91,51,121,51Z"/><path class="cls-7" d="M127.17,49.08a1.09,1.09,0,0,0-1.08,1.2V56a1.09,1.09,0,1,0,2.16,0V50.28A1.09,1.09,0,0,0,127.17,49.08Z"/><path class="cls-7" d="M127.17,48.27A1.22,1.22,0,1,0,126,47,1.27,1.27,0,0,0,127.17,48.27Z"/><path class="cls-7" d="M130.53,57.24a1.09,1.09,0,0,0,1.08-1.2V52.27c0-.87.39-1.48,1.27-1.48s1.26.61,1.26,1.48V56a1.09,1.09,0,1,0,2.16,0V52.27a1.31,1.31,0,0,1,1.28-1.48c.78,0,1.26.61,1.26,1.48V56A1.09,1.09,0,1,0,141,56V51.9A2.71,2.71,0,0,0,138,49a3.26,3.26,0,0,0-2.28,1.09A2.74,2.74,0,0,0,133.53,49a2.67,2.67,0,0,0-2,.9.92.92,0,0,0-1-.81,1.09,1.09,0,0,0-1.08,1.2V56A1.09,1.09,0,0,0,130.53,57.24Z"/><path class="cls-7" d="M144.36,50.28a1.09,1.09,0,1,0-2.16,0V56a1.09,1.09,0,1,0,2.16,0Z"/><path class="cls-7" d="M143.28,48.27A1.22,1.22,0,1,0,142.06,47,1.27,1.27,0,0,0,143.28,48.27Z"/><path class="cls-7" d="M149.14,57.33c1.61,0,3.53-.9,3.53-1.83a1,1,0,0,0-.89-.93c-.57,0-1.33.87-2.44.87a1.87,1.87,0,0,1-2-1.56h4.6a.83.83,0,0,0,.95-1,3.89,3.89,0,1,0-7.76.25A3.94,3.94,0,0,0,149.14,57.33ZM149,50.79a1.71,1.71,0,0,1,1.73,1.65h-3.44A1.74,1.74,0,0,1,149,50.79Z"/><path class="cls-7" d="M154.69,57.24a1.09,1.09,0,0,0,1.08-1.2V52.27a1.4,1.4,0,1,1,2.79,0V56a1.09,1.09,0,1,0,2.16,0V51.9A2.77,2.77,0,0,0,157.77,49a2.35,2.35,0,0,0-2.09.88.9.9,0,0,0-1-.79,1.09,1.09,0,0,0-1.08,1.2V56A1.09,1.09,0,0,0,154.69,57.24Z"/><path class="cls-7" d="M162,51.06h.48v5a1.09,1.09,0,1,0,2.16,0v-5h.61a.92.92,0,0,0,1-1c0-.69-.48-.94-1-.94h-.61V47.88a1.09,1.09,0,1,0-2.16,0v1.29H162a.92.92,0,0,0-.95.94A.88.88,0,0,0,162,51.06Z"/><path class="cls-7" d="M170,57.33a3.94,3.94,0,0,0,3.87-4.16,3.88,3.88,0,1,0-7.74,0A3.93,3.93,0,0,0,170,57.33ZM170,51c1.18,0,1.71,1.17,1.71,2.2s-.54,2.18-1.71,2.18-1.71-1.14-1.71-2.18S168.76,51,170,51Z"/><path class="cls-7" d="M96,72.33a2.34,2.34,0,0,0,2-1,1,1,0,0,0,1.08.9,1.09,1.09,0,0,0,1.08-1.2V61.8a1.09,1.09,0,1,0-2.16,0v2.94a3.09,3.09,0,0,0-2-.75c-2.33,0-3.48,2.17-3.48,4.27S93.84,72.33,96,72.33ZM96.3,66C97.45,66,98,67.05,98,68.1s-.51,2.25-1.69,2.25-1.68-1.17-1.68-2.18S95.17,66,96.3,66Z"/><path class="cls-7" d="M108.67,67.92a3.88,3.88,0,1,0-7.75.25,3.94,3.94,0,0,0,4,4.16c1.6,0,3.52-.9,3.52-1.83a1,1,0,0,0-.88-.93c-.57,0-1.34.87-2.45.87a1.87,1.87,0,0,1-2-1.56h4.61C108.39,68.88,108.67,68.56,108.67,67.92Zm-5.59-.48a1.73,1.73,0,0,1,1.71-1.65,1.71,1.71,0,0,1,1.72,1.65Z"/><path class="cls-7" d="M114.54,60.6a1.09,1.09,0,0,0-1.08,1.2V71a1.09,1.09,0,0,0,1.08,1.2,1,1,0,0,0,1.08-.9,2.34,2.34,0,0,0,2,1c2.17,0,3.55-2,3.55-4.07S120,64,117.67,64a3.09,3.09,0,0,0-2,.75V61.8A1.09,1.09,0,0,0,114.54,60.6ZM117.31,66c1.13,0,1.68,1.18,1.68,2.2s-.55,2.18-1.68,2.18-1.69-1.2-1.69-2.25S116.16,66,117.31,66Z"/><path class="cls-7" d="M121.75,68.17c0,2.43,1.55,4.16,3.57,4.16a2.6,2.6,0,0,0,2.06-1c.15.57.4.92,1,.92,1,0,1-.86,1-1.41V65.49c0-.56,0-1.41-1-1.41a1,1,0,0,0-1,.9,2.46,2.46,0,0,0-2.06-1C123.34,64,121.75,65.8,121.75,68.17Zm3.87-2.2c1.14,0,1.67,1.17,1.67,2.2s-.54,2.18-1.67,2.18-1.71-1.14-1.71-2.18S124.44,66,125.62,66Z"/><path class="cls-7" d="M133.38,70.44c-1,0-1.4-.74-2.24-.74a1,1,0,0,0-.93,1c0,1,1.8,1.67,3,1.67,1.86,0,3.07-1.1,3.07-2.54,0-2.46-3.75-2.31-3.75-3.31,0-.42.35-.6.74-.6.7,0,1.53.63,1.93.63a.94.94,0,0,0,.89-1c0-1.07-1.64-1.56-2.7-1.56-1.71,0-2.93,1-2.93,2.52,0,2.47,3.75,2.32,3.75,3.31C134.23,70.23,134,70.44,133.38,70.44Z"/><path class="cls-7" d="M144.36,67.92a3.89,3.89,0,1,0-7.76.25,3.94,3.94,0,0,0,4.05,4.16c1.61,0,3.53-.9,3.53-1.83a1,1,0,0,0-.89-.93c-.57,0-1.33.87-2.44.87a1.87,1.87,0,0,1-2-1.56h4.6A.83.83,0,0,0,144.36,67.92Zm-5.6-.48a1.74,1.74,0,0,1,1.71-1.65,1.71,1.71,0,0,1,1.73,1.65Z"/><path class="cls-7" d="M87.06,139.43l-2.45-1a1.06,1.06,0,0,0-1.51.65L80,146.92a1.13,1.13,0,1,0,2.09.84l1.21-3h0l1.58,5a1.16,1.16,0,0,0,.66.68,1.14,1.14,0,0,0,1.48-.65,1,1,0,0,0,0-.72l-1.35-3.48a2.93,2.93,0,0,0,3.64-1.6C90.14,141.79,89.2,140.29,87.06,139.43Zm0,3.67a1.28,1.28,0,0,1-1.8.71l-1.43-.57,1-2.47,1.44.58A1.26,1.26,0,0,1,87.09,143.1Z"/><path class="cls-7" d="M93.43,144.72a4,4,0,0,0-5.15,2.43,3.93,3.93,0,0,0,2.21,5.37c1.48.6,3.6.48,4-.38A1,1,0,0,0,94,151c-.53-.22-1.57.3-2.6-.11a1.87,1.87,0,0,1-1.31-2.21l4.27,1.72a.83.83,0,0,0,1.24-.54A4,4,0,0,0,93.43,144.72Zm.32,3.84-3.19-1.28a1.73,1.73,0,0,1,2.2-.89A1.71,1.71,0,0,1,93.75,148.56Z"/><path class="cls-7" d="M98.72,146.94a1.09,1.09,0,0,0-1.45.71L95.11,153a1.09,1.09,0,1,0,2,.8l1.4-3.49a1.36,1.36,0,0,1,1.84-.86,1.34,1.34,0,0,1,.75,1.9l-1.41,3.49a1.1,1.1,0,0,0,.56,1.52,1.09,1.09,0,0,0,1.45-.71l1.54-3.84a2.76,2.76,0,0,0-1.65-3.8,2.32,2.32,0,0,0-2.26,0A.92.92,0,0,0,98.72,146.94Z"/><path class="cls-7" d="M112.59,148.78a1.1,1.1,0,0,0-1.45.71l-1.1,2.73a3.15,3.15,0,0,0-1.62-1.47c-2.16-.86-4,.72-4.83,2.67s-.24,4.29,1.78,5.1a2.37,2.37,0,0,0,2.21-.18,1,1,0,0,0,.66,1.24,1.09,1.09,0,0,0,1.45-.71l3.46-8.57A1.09,1.09,0,0,0,112.59,148.78Zm-3.8,6.55c-.39,1-1.31,1.9-2.41,1.46s-1.12-1.71-.75-2.65,1.34-1.83,2.38-1.41A1.87,1.87,0,0,1,108.79,155.33Z"/><path class="cls-7" d="M115.62,150.26a1.21,1.21,0,1,0,.69,1.55A1.24,1.24,0,0,0,115.62,150.26Z"/><path class="cls-7" d="M113,154l-2.15,5.34a1.08,1.08,0,1,0,2,.8l2.15-5.34a1.08,1.08,0,1,0-2-.8Z"/><path class="cls-7" d="M117.53,154.52a1.09,1.09,0,0,0-1.45.71l-2.16,5.34a1.1,1.1,0,0,0,.56,1.52,1.09,1.09,0,0,0,1.45-.71l1.4-3.49c.33-.81.92-1.23,1.74-.9a1.31,1.31,0,0,1,.62,1.85l-1.41,3.49a1.08,1.08,0,1,0,2,.81l1.41-3.5a1.28,1.28,0,1,1,2.35,1l-1.41,3.49a1.09,1.09,0,1,0,2,.81l1.54-3.84a2.7,2.7,0,0,0-1.65-3.8,3.2,3.2,0,0,0-2.52.16,2.76,2.76,0,0,0-1.67-1.85,2.68,2.68,0,0,0-2.2.08A.91.91,0,0,0,117.53,154.52Z"/><path class="cls-7" d="M130.56,156.28a1.25,1.25,0,0,0-1.57.65,1.26,1.26,0,0,0,.67,1.6,1.22,1.22,0,0,0,1.59-.7A1.24,1.24,0,0,0,130.56,156.28Z"/><path class="cls-7" d="M127.9,160l-2.15,5.34a1.08,1.08,0,1,0,2,.81l2.16-5.35a1.09,1.09,0,1,0-2-.8Z"/><path class="cls-7" d="M134.66,161.33a4,4,0,0,0-5.15,2.43,3.94,3.94,0,0,0,2.2,5.37c1.49.6,3.61.48,3.95-.38a1,1,0,0,0-.47-1.19c-.53-.22-1.56.3-2.59-.11a1.86,1.86,0,0,1-1.31-2.21l4.27,1.72a.82.82,0,0,0,1.23-.54A4,4,0,0,0,134.66,161.33Zm.31,3.84-3.19-1.28A1.74,1.74,0,0,1,134,163,1.7,1.7,0,0,1,135,165.17Z"/><path class="cls-7" d="M139.94,163.55a1.1,1.1,0,0,0-1.45.71l-2.15,5.34a1.1,1.1,0,0,0,.55,1.52,1.08,1.08,0,0,0,1.45-.71l1.41-3.49a1.4,1.4,0,1,1,2.59,1l-1.41,3.49a1.1,1.1,0,0,0,.55,1.52,1.08,1.08,0,0,0,1.45-.71l1.55-3.84a2.76,2.76,0,0,0-1.65-3.8,2.34,2.34,0,0,0-2.27,0A.91.91,0,0,0,139.94,163.55Z"/><path class="cls-7" d="M145.11,174.43a1.08,1.08,0,0,0,1.45-.71l1.86-4.62.58.23a.95.95,0,1,0,.7-1.75l-.57-.23.48-1.19a1.09,1.09,0,1,0-2-.81l-.48,1.19-.45-.17a.92.92,0,0,0-1.23.52.87.87,0,0,0,.53,1.23l.44.18-1.86,4.62A1.09,1.09,0,0,0,145.11,174.43Z"/><path class="cls-7" d="M154.12,169.17A4,4,0,0,0,149,171.6a3.88,3.88,0,1,0,7.18,2.9A4,4,0,0,0,154.12,169.17Zm0,4.52a1.76,1.76,0,1,1-3.18-1.28c.39-1,1.32-1.85,2.41-1.4A2,2,0,0,1,154.15,173.69Z"/><path class="cls-7" d="M82.26,160.9A3.88,3.88,0,1,0,75.08,158a3.88,3.88,0,1,0,7.18,2.89Zm-2-.81a1.92,1.92,0,0,1-2.39,1.38,1.94,1.94,0,0,1-.78-2.66c.39-1,1.31-1.85,2.41-1.4A1.94,1.94,0,0,1,80.25,160.09Z"/><path class="cls-7" d="M88.58,158.93a2.41,2.41,0,0,0-2.28.15,1,1,0,0,0-.66-1.23,1.08,1.08,0,0,0-1.45.71l-3.34,8.29a1.08,1.08,0,1,0,2,.8l1-2.44a3.06,3.06,0,0,0,1.55,1.43,3.82,3.82,0,0,0,4.82-2.44C91,162.25,90.74,159.8,88.58,158.93Zm-.34,4.38c-.37.93-1.33,1.81-2.37,1.39S84.75,163,85.14,162a1.87,1.87,0,0,1,2.37-1.34C88.55,161.06,88.62,162.36,88.24,163.31Z"/><path class="cls-7" d="M96.72,167.48A.82.82,0,0,0,98,167a3.88,3.88,0,1,0-7.29-2.66,3.93,3.93,0,0,0,2.21,5.36c1.48.6,3.6.48,3.95-.38a1,1,0,0,0-.47-1.19c-.53-.21-1.57.31-2.6-.11a1.87,1.87,0,0,1-1.31-2.21Zm-1.58-4a1.7,1.7,0,0,1,1,2.17l-3.19-1.28A1.73,1.73,0,0,1,95.14,163.52Z"/><path class="cls-7" d="M104.05,166.51a1.06,1.06,0,0,0-.55-1.47,1.72,1.72,0,0,0-1.74.27h0c.26-.64-.1-1-.63-1.23a1.07,1.07,0,0,0-1.44.59l-2.19,5.45a1.09,1.09,0,1,0,2,.81l1.24-3.07c.32-.8,1-.81,1.75-.85S103.78,167.16,104.05,166.51Z"/><path class="cls-7" d="M110.61,167.91a1,1,0,0,0-1.29.45,2.49,2.49,0,0,0-1.54-1.69c-1.84-.74-4,.35-4.87,2.55s-.12,4.43,1.75,5.19a2.61,2.61,0,0,0,2.29-.17c-.08.59,0,1,.61,1.24,1,.38,1.28-.41,1.49-.92l2-5C111.25,169.09,111.57,168.29,110.61,167.91ZM108,171.29c-.39,1-1.31,1.81-2.36,1.39a1.93,1.93,0,0,1-.77-2.66c.39-1,1.31-1.84,2.41-1.4S108.43,170.33,108,171.29Z"/><path class="cls-7" d="M115.42,176.12a12.9,12.9,0,0,1-1.65-.18,2,2,0,0,1-.88-2.7,2,2,0,0,1,2.51-1.36c.64.25.93.82,1.43,1s1-.23,1.15-.65c.4-1-1.14-1.93-1.94-2.25a4,4,0,0,0-5.15,2.43,3.94,3.94,0,0,0,2,5.31c.72.29,2.59.63,3-.4A.94.94,0,0,0,115.42,176.12Z"/><path class="cls-7" d="M120.13,171.74a1.1,1.1,0,0,0-1.45.71l-2.15,5.34a1.09,1.09,0,1,0,2,.81l2.15-5.34A1.1,1.1,0,0,0,120.13,171.74Z"/><path class="cls-7" d="M119.77,169.38a1.26,1.26,0,0,0,.66,1.61,1.21,1.21,0,1,0-.66-1.61Z"/><path class="cls-7" d="M125.58,173.84a4,4,0,0,0-5.16,2.43,3.88,3.88,0,1,0,7.18,2.9A4,4,0,0,0,125.58,173.84Zm0,4.52a1.76,1.76,0,1,1-3.18-1.28c.39-1,1.32-1.85,2.41-1.4A2,2,0,0,1,125.6,178.36Z"/><path class="cls-7" d="M133.87,177.18a2.36,2.36,0,0,0-2.27,0,.91.91,0,0,0-.62-1.11,1.1,1.1,0,0,0-1.45.71l-2.15,5.35a1.08,1.08,0,1,0,2,.8l1.41-3.49a1.4,1.4,0,1,1,2.59,1L132,184a1.08,1.08,0,1,0,2,.8l1.55-3.84A2.77,2.77,0,0,0,133.87,177.18Z"/><path class="cls-7" d="M143.6,181.2a1,1,0,0,0-1.3.45,2.45,2.45,0,0,0-1.53-1.69c-1.84-.74-4,.35-4.88,2.55s-.12,4.43,1.76,5.19a2.59,2.59,0,0,0,2.28-.17c-.07.59,0,1,.62,1.24,1,.38,1.28-.41,1.49-.92l2-5C144.24,182.38,144.56,181.58,143.6,181.2ZM141,184.58c-.39,1-1.32,1.81-2.36,1.39a1.91,1.91,0,0,1-.77-2.65,2,2,0,0,1,2.41-1.41C141.36,182.33,141.41,183.62,141,184.58Z"/><path class="cls-7" d="M148,179.21a1.08,1.08,0,0,0-1.45.71l-3.46,8.57a1.09,1.09,0,1,0,2,.81l3.45-8.57A1.1,1.1,0,0,0,148,179.21Z"/><path class="cls-7" d="M329.15,253.59l-2.31-.93a1.1,1.1,0,0,0-1.5.64l-3.14,7.79a1.11,1.11,0,0,0,.68,1.49l2.42,1a4.85,4.85,0,0,0,6.7-2.89C333.24,257.57,332.27,254.85,329.15,253.59Zm.72,6.09c-.67,1.67-2,2.67-3.82,1.94l-1.41-.56,2.44-6.07,1.27.51C330.27,256.27,330.58,257.9,329.87,259.68Z"/><path class="cls-7" d="M337.21,259.55a4,4,0,0,0-5.15,2.44,3.94,3.94,0,0,0,2.2,5.37c1.49.6,3.61.48,4-.38a1,1,0,0,0-.48-1.19c-.53-.22-1.56.3-2.59-.11a1.87,1.87,0,0,1-1.31-2.21l4.27,1.72a.83.83,0,0,0,1.24-.54A4,4,0,0,0,337.21,259.55Zm.31,3.85-3.18-1.28a1.75,1.75,0,0,1,2.2-.9A1.71,1.71,0,0,1,337.52,263.4Z"/><path class="cls-7" d="M339.9,269.53a1.08,1.08,0,0,0,1.45-.71l1.86-4.61.63.25c.59.23,1.12.16,1.37-.47s-.06-1-.66-1.28l-.63-.26.33-.82c.3-.74.63-.6,1-.47a.78.78,0,0,0,1.16-.51c.28-.7-.32-1.18-1-1.47a2.2,2.2,0,0,0-3,1.44l-.41,1-.45-.18a.92.92,0,0,0-1.23.52.87.87,0,0,0,.53,1.23l.44.18L339.35,268A1.08,1.08,0,0,0,339.9,269.53Z"/><path class="cls-7" d="M348.8,264.22a4,4,0,0,0-5.15,2.44,3.94,3.94,0,0,0,2.2,5.37c1.49.6,3.61.48,4-.38a1,1,0,0,0-.48-1.2c-.53-.21-1.56.31-2.59-.1a1.87,1.87,0,0,1-1.31-2.21l4.27,1.72a.83.83,0,0,0,1.24-.54A4,4,0,0,0,348.8,264.22Zm.31,3.85-3.18-1.28a1.75,1.75,0,0,1,2.2-.9A1.72,1.72,0,0,1,349.11,268.07Z"/><path class="cls-7" d="M354.08,266.45a1.09,1.09,0,0,0-1.45.71l-2.15,5.34a1.09,1.09,0,1,0,2,.81l1.41-3.49a1.4,1.4,0,1,1,2.59,1l-1.41,3.49a1.09,1.09,0,1,0,2,.81l1.54-3.84a2.76,2.76,0,0,0-1.65-3.8,2.31,2.31,0,0,0-2.27,0A.9.9,0,0,0,354.08,266.45Z"/><path class="cls-7" d="M357.66,275.8c-.19.46.1.83.55,1l4.66,1.88a.94.94,0,1,0,.7-1.75l-2.64-1.07,4.94-3.15a.92.92,0,0,0,.45-.52.66.66,0,0,0-.4-.89l-4.55-1.83a.94.94,0,1,0-.71,1.75l2.33.94-4.93,3.16A1.13,1.13,0,0,0,357.66,275.8Z"/><path class="cls-7" d="M373.39,274.23a1,1,0,0,0-1.29.45,2.49,2.49,0,0,0-1.54-1.69c-1.83-.74-4,.35-4.87,2.55s-.12,4.43,1.76,5.19a2.56,2.56,0,0,0,2.28-.17,1,1,0,0,0,.62,1.24c1,.39,1.28-.41,1.48-.92l2-5C374,275.41,374.35,274.62,373.39,274.23Zm-2.57,3.38c-.39,1-1.31,1.81-2.36,1.39a1.92,1.92,0,0,1-.77-2.65c.39-1,1.31-1.85,2.41-1.41S371.21,276.65,370.82,277.61Z"/><path class="cls-7" d="M375.62,282c-.94-.38-1-1.2-1.8-1.51a1,1,0,0,0-1.22.54c-.36.91,1,2.22,2.18,2.67,1.72.7,3.26.13,3.8-1.2.92-2.28-2.62-3.54-2.24-4.48.16-.39.54-.42.9-.28.66.27,1.19,1.16,1.56,1.31a.93.93,0,0,0,1.18-.56c.4-1-.93-2.06-1.92-2.46a2.62,2.62,0,0,0-3.65,1.25c-.93,2.29,2.61,3.56,2.24,4.47C376.49,282.11,376.24,282.23,375.62,282Z"/><path class="cls-7" d="M299.15,260.39a4,4,0,0,0-5.16,2.44,3.88,3.88,0,1,0,7.18,2.89A4,4,0,0,0,299.15,260.39Zm0,4.52c-.39,1-1.31,1.82-2.4,1.38a2.26,2.26,0,1,1,2.4-1.38Z"/><path class="cls-7" d="M305.91,265.59c.71,0,1.33.16,1.59-.49a1,1,0,0,0-.54-1.46,1.69,1.69,0,0,0-1.74.26h0c.26-.64-.11-1-.64-1.22a1.05,1.05,0,0,0-1.43.58l-2.2,5.46a1.09,1.09,0,1,0,2,.8l1.24-3.07C304.49,265.65,305.21,265.63,305.91,265.59Z"/><path class="cls-7" d="M314,266.48a1,1,0,0,0-1.34.44,2.32,2.32,0,0,0-1.47-1.66c-2-.82-4.05.55-4.86,2.56s-.56,4.24,1.54,5.09a2.49,2.49,0,0,0,2.4-.13h0l-.2.47a1.66,1.66,0,0,1-2.33.9c-1.16-.46-1.61-1.38-2.25-1.63a1,1,0,0,0-1.16.55c-.45,1.1,1.73,2.44,2.55,2.77,2.28.92,4.34.34,5.31-2.06l2.33-5.79A1.1,1.1,0,0,0,314,266.48Zm-2.55,3.44a1.88,1.88,0,0,1-2.37,1.34c-1-.42-1.16-1.6-.73-2.67s1.33-1.81,2.37-1.39S311.87,269,311.48,269.92Z"/><path class="cls-7" d="M322.06,269.72a1,1,0,0,0-1.3.45,2.46,2.46,0,0,0-1.54-1.69c-1.83-.74-4,.35-4.87,2.55s-.12,4.43,1.76,5.18a2.56,2.56,0,0,0,2.28-.16c-.07.59,0,1,.62,1.24,1,.38,1.28-.41,1.48-.92l2-5C322.7,270.9,323,270.1,322.06,269.72Zm-2.58,3.38c-.38,1-1.31,1.81-2.35,1.39a1.94,1.94,0,0,1-.78-2.66c.39-1,1.31-1.84,2.41-1.4S319.87,272.14,319.48,273.1Z"/><path class="cls-7" d="M328.05,272a2.33,2.33,0,0,0-2.27.05.91.91,0,0,0-.62-1.11,1.09,1.09,0,0,0-1.45.71L321.56,277a1.09,1.09,0,1,0,2,.81l1.41-3.5a1.4,1.4,0,1,1,2.59,1.05l-1.41,3.49a1.09,1.09,0,1,0,2,.81l1.55-3.84A2.78,2.78,0,0,0,328.05,272Z"/><path class="cls-7" d="M332.87,274.07a1.1,1.1,0,0,0-1.45.71l-2.16,5.35a1.09,1.09,0,1,0,2,.8l2.15-5.34A1.1,1.1,0,0,0,332.87,274.07Z"/><path class="cls-7" d="M332.51,271.71a1.26,1.26,0,0,0,.66,1.61,1.21,1.21,0,0,0,.91-2.25A1.24,1.24,0,0,0,332.51,271.71Z"/><path class="cls-7" d="M337.74,282.7l-2.65-1.07,5-3.15a.92.92,0,0,0,.44-.51.65.65,0,0,0-.4-.89l-4.55-1.83a.9.9,0,0,0-1.25.51.91.91,0,0,0,.55,1.24l2.32.93-4.93,3.16a1.2,1.2,0,0,0-.4.47.77.77,0,0,0,.55,1l4.66,1.88a.94.94,0,1,0,.71-1.75Z"/><path class="cls-7" d="M347.56,280a1,1,0,0,0-1.3.45,2.47,2.47,0,0,0-1.53-1.69c-1.84-.74-4,.35-4.88,2.55s-.12,4.43,1.76,5.19a2.59,2.59,0,0,0,2.28-.16c-.07.58,0,1,.62,1.23,1,.39,1.28-.4,1.49-.92l2-4.95C348.2,281.17,348.52,280.38,347.56,280ZM345,283.37c-.39,1-1.32,1.82-2.36,1.4a1.93,1.93,0,0,1-.77-2.66,2,2,0,0,1,2.41-1.41C345.32,281.13,345.37,282.41,345,283.37Z"/><path class="cls-7" d="M352.37,288.21a13.15,13.15,0,0,1-1.66-.19,2,2,0,0,1-.87-2.69,2,2,0,0,1,2.51-1.37c.64.26.93.83,1.43,1s1-.24,1.15-.65c.39-1-1.15-1.94-1.94-2.26a4,4,0,0,0-5.15,2.44,3.93,3.93,0,0,0,2,5.3c.73.29,2.59.64,3-.39A1,1,0,0,0,352.37,288.21Z"/><path class="cls-7" d="M356.72,281.47a1.27,1.27,0,0,0,.66,1.61,1.22,1.22,0,1,0-.66-1.61Z"/><path class="cls-7" d="M357.08,283.83a1.08,1.08,0,0,0-1.45.71l-2.16,5.34a1.09,1.09,0,1,0,2,.81l2.15-5.35A1.09,1.09,0,0,0,357.08,283.83Z"/><path class="cls-7" d="M362.52,285.92a4,4,0,0,0-5.15,2.44,3.88,3.88,0,1,0,7.18,2.89A4,4,0,0,0,362.52,285.92Zm0,4.53a1.76,1.76,0,1,1-3.17-1.28c.39-1,1.31-1.85,2.41-1.41S362.93,289.48,362.54,290.45Z"/><path class="cls-7" d="M370.81,289.27a2.29,2.29,0,0,0-2.26,0,.91.91,0,0,0-.62-1.11,1.08,1.08,0,0,0-1.45.71l-2.15,5.34a1.09,1.09,0,1,0,2,.81l1.41-3.49a1.39,1.39,0,1,1,2.58,1l-1.4,3.49a1.09,1.09,0,1,0,2,.81l1.55-3.84A2.76,2.76,0,0,0,370.81,289.27Z"/><path class="cls-7" d="M380.55,293.28a1,1,0,0,0-1.3.45,2.46,2.46,0,0,0-1.53-1.68c-1.84-.74-4,.34-4.88,2.54s-.12,4.43,1.76,5.19a2.59,2.59,0,0,0,2.28-.16c-.07.58,0,1,.62,1.23,1,.39,1.28-.4,1.48-.92l2-4.95C381.19,294.46,381.51,293.67,380.55,293.28ZM378,296.66c-.38,1-1.31,1.82-2.35,1.4a1.94,1.94,0,0,1-.78-2.66c.39-1,1.31-1.85,2.41-1.41S378.36,295.7,378,296.66Z"/><path class="cls-7" d="M384.92,291.29a1.1,1.1,0,0,0-1.45.71L380,300.57a1.09,1.09,0,1,0,2,.81l3.46-8.57A1.1,1.1,0,0,0,384.92,291.29Z"/><path class="cls-7" d="M389.83,302.2a.83.83,0,0,0,1.23-.54,3.88,3.88,0,1,0-7.28-2.66,3.93,3.93,0,0,0,2.2,5.37c1.49.6,3.6.48,3.95-.38a1,1,0,0,0-.47-1.2c-.53-.21-1.56.31-2.59-.1a1.86,1.86,0,0,1-1.31-2.21Zm-1.57-4a1.72,1.72,0,0,1,1,2.18l-3.19-1.29A1.74,1.74,0,0,1,388.26,298.23Z"/><path class="cls-7" d="M395.77,299.32a2.61,2.61,0,0,0-3.65,1.25c-.93,2.29,2.61,3.55,2.24,4.47-.15.38-.41.5-1,.25-.94-.38-1-1.2-1.79-1.51a1,1,0,0,0-1.22.54c-.37.9,1,2.22,2.17,2.67,1.72.69,3.26.13,3.8-1.2.92-2.29-2.62-3.55-2.24-4.48.16-.39.54-.43.91-.28.65.26,1.18,1.16,1.55,1.31a.94.94,0,0,0,1.19-.56C398.09,300.79,396.76,299.72,395.77,299.32Z"/><path class="cls-6" d="M265.21,43.93a1,1,0,0,0,1-1,.93.93,0,0,0-1-1h-3.48c-.74,0-1.09.52-1.09,1.22v7.71a1,1,0,0,0,1.08,1h3.61a1,1,0,0,0,1-1,.94.94,0,0,0-1-1h-2.59V47.91H265a1,1,0,0,0,1-1,1,1,0,0,0-1-1h-2.3v-2Z"/><path class="cls-6" d="M272.7,52.05a1,1,0,0,0,1-1.12V47.06A2.58,2.58,0,0,0,271,44.35a2.19,2.19,0,0,0-1.95.82.85.85,0,0,0-.93-.74,1,1,0,0,0-1,1.12v5.38a1,1,0,1,0,2,0V47.42a1.31,1.31,0,1,1,2.61,0v3.51A1,1,0,0,0,272.7,52.05Z"/><path class="cls-6" d="M274.89,46.28h.45v4.65a1,1,0,1,0,2,0V46.28h.57a.85.85,0,0,0,1-.88c0-.65-.45-.88-1-.88h-.57V43.31a1,1,0,1,0-2,0v1.21h-.45a.86.86,0,0,0-.88.88A.81.81,0,0,0,274.89,46.28Z"/><path class="cls-6" d="M280,52.05a1,1,0,0,0,1-1.12V47.84c0-.8.62-1.07,1.22-1.35s1.2-.32,1.2-1a1,1,0,0,0-1-1.08,1.59,1.59,0,0,0-1.41.84h0c0-.64-.45-.84-1-.84a1,1,0,0,0-1,1v5.49A1,1,0,0,0,280,52.05Z"/><path class="cls-6" d="M286.75,52.14c1.5,0,3.29-.84,3.29-1.71a.89.89,0,0,0-.82-.87c-.54,0-1.25.81-2.29.81a1.73,1.73,0,0,1-1.9-1.46h4.3c.62,0,.88-.29.88-.89a3.63,3.63,0,1,0-7.24.24A3.68,3.68,0,0,0,286.75,52.14ZM286.58,46a1.59,1.59,0,0,1,1.61,1.54H285A1.61,1.61,0,0,1,286.58,46Z"/><path class="cls-6" d="M291.93,52.05a1,1,0,0,0,1-1.12V47.42a1.3,1.3,0,1,1,2.6,0v3.51a1,1,0,1,0,2,0V47.06a2.58,2.58,0,0,0-2.76-2.71,2.21,2.21,0,0,0-1.95.82.84.84,0,0,0-.92-.74,1,1,0,0,0-1,1.12v5.38A1,1,0,0,0,291.93,52.05Z"/><path class="cls-6" d="M301.74,52.14a2.42,2.42,0,0,0,1.92-.94c.14.53.38.85,1,.85,1,0,1-.8,1-1.31v-5c0-.52,0-1.32-1-1.32a1,1,0,0,0-1,.84,2.3,2.3,0,0,0-1.92-.92c-1.85,0-3.33,1.69-3.33,3.91S299.85,52.14,301.74,52.14ZM302,46.2c1.06,0,1.55,1.09,1.55,2.06s-.51,2-1.55,2-1.6-1.07-1.6-2S300.92,46.2,302,46.2Z"/><path class="cls-6" d="M307.75,52.05a1,1,0,0,0,1-1.12V47.42c0-.82.36-1.39,1.19-1.39s1.18.57,1.18,1.39v3.51a1,1,0,1,0,2,0V47.42c0-.82.45-1.39,1.19-1.39s1.18.57,1.18,1.39v3.51a1,1,0,1,0,2,0V47.06a2.53,2.53,0,0,0-2.76-2.71,3,3,0,0,0-2.13,1,2.58,2.58,0,0,0-2.09-1,2.52,2.52,0,0,0-1.88.84.85.85,0,0,0-.92-.76,1,1,0,0,0-1,1.12v5.38A1,1,0,0,0,307.75,52.05Z"/><path class="cls-6" d="M319.65,43.68a1.16,1.16,0,0,0,1.13-1.17,1.14,1.14,0,0,0-1.13-1.1,1.16,1.16,0,0,0-1.14,1.1A1.19,1.19,0,0,0,319.65,43.68Z"/><path class="cls-6" d="M319.65,44.43a1,1,0,0,0-1,1.12v5.38a1,1,0,1,0,2,0V45.55A1,1,0,0,0,319.65,44.43Z"/><path class="cls-6" d="M325.12,52.14c1.5,0,3.3-.84,3.3-1.71a.9.9,0,0,0-.83-.87c-.53,0-1.25.81-2.28.81a1.74,1.74,0,0,1-1.91-1.46h4.3c.62,0,.88-.29.88-.89a3.63,3.63,0,1,0-7.24.24A3.68,3.68,0,0,0,325.12,52.14ZM325,46a1.6,1.6,0,0,1,1.61,1.54h-3.21A1.62,1.62,0,0,1,325,46Z"/><path class="cls-6" d="M334.92,52.05a1,1,0,0,0,1-1.12V47.06a2.58,2.58,0,0,0-2.76-2.71,2.18,2.18,0,0,0-1.94.82.85.85,0,0,0-.93-.74,1,1,0,0,0-1,1.12v5.38a1,1,0,1,0,2,0V47.42a1.31,1.31,0,1,1,2.61,0v3.51A1,1,0,0,0,334.92,52.05Z"/><path class="cls-6" d="M338.58,42.19a1,1,0,0,0-1,1.12v1.21h-.45a.86.86,0,0,0-.88.88.81.81,0,0,0,.88.88h.45v4.65a1,1,0,1,0,2,0V46.28h.57a.85.85,0,0,0,1-.88c0-.65-.45-.88-1-.88h-.57V43.31A1,1,0,0,0,338.58,42.19Z"/><path class="cls-6" d="M344.54,52.14a3.67,3.67,0,0,0,3.61-3.88,3.62,3.62,0,1,0-7.22,0A3.67,3.67,0,0,0,344.54,52.14Zm0-5.94c1.11,0,1.6,1.09,1.6,2.06s-.51,2-1.6,2-1.6-1.07-1.6-2S343.43,46.2,344.54,46.2Z"/><path class="cls-6" d="M329.15,22.43a1,1,0,0,0,1.05-1.1v-3h0l3.11,3.77a1.06,1.06,0,0,0,1.86-.71.89.89,0,0,0-.28-.62l-2.38-2.55a2.71,2.71,0,0,0,2.59-2.65c0-2.2-1.33-3.16-3.49-3.16h-2.46a1,1,0,0,0-1.08,1.09v7.87A1,1,0,0,0,329.15,22.43Zm1.05-8.13h1.44A1.18,1.18,0,0,1,333,15.53a1.2,1.2,0,0,1-1.31,1.25H330.2Z"/><path class="cls-6" d="M339.18,22.51c1.49,0,3.29-.84,3.29-1.71a.9.9,0,0,0-.83-.87c-.53,0-1.25.82-2.28.82a1.75,1.75,0,0,1-1.91-1.46h4.3c.62,0,.89-.3.89-.9a3.63,3.63,0,1,0-7.25.24A3.68,3.68,0,0,0,339.18,22.51ZM339,16.4a1.59,1.59,0,0,1,1.61,1.54h-3.21A1.63,1.63,0,0,1,339,16.4Z"/><path class="cls-6" d="M346.16,22.51a2.31,2.31,0,0,0,2-1h0V22a1.55,1.55,0,0,1-1.71,1.6c-1.16,0-1.88-.63-2.52-.63a1,1,0,0,0-.81.88c0,1.11,2.35,1.52,3.18,1.52,2.29,0,3.88-1.22,3.88-3.65V15.93a1,1,0,0,0-1-1.12,1,1,0,0,0-1,.84,2.19,2.19,0,0,0-1.85-.93c-2,0-3.32,1.89-3.32,3.92S344.05,22.51,346.16,22.51Zm.48-5.94c1.1,0,1.58,1.12,1.58,2.1s-.5,2-1.58,2-1.57-1-1.57-2.06S345.59,16.57,346.64,16.57Z"/><path class="cls-6" d="M352.36,22.43a1,1,0,0,0,1-1.12V12.68a1,1,0,1,0-2,0v8.63A1,1,0,0,0,352.36,22.43Z"/><path class="cls-6" d="M357.53,22.51a2.41,2.41,0,0,0,1.92-.94c.14.53.38.86,1,.86,1,0,1-.8,1-1.32v-5c0-.52,0-1.31-1-1.31a1,1,0,0,0-1,.84,2.32,2.32,0,0,0-1.92-.93c-1.85,0-3.33,1.7-3.33,3.91S355.64,22.51,357.53,22.51Zm.28-5.94c1.06,0,1.55,1.09,1.55,2.06s-.5,2-1.55,2-1.6-1.06-1.6-2S356.7,16.57,357.81,16.57Z"/><path class="cls-6" d="M363.53,22.43a1,1,0,0,0,1-1.12V17.79c0-.81.37-1.39,1.19-1.39s1.18.58,1.18,1.39v3.52a1,1,0,1,0,2,0V17.79a1.23,1.23,0,0,1,1.19-1.39c.73,0,1.17.58,1.17,1.39v3.52a1,1,0,1,0,2,0V17.44a2.53,2.53,0,0,0-2.76-2.72,3.07,3.07,0,0,0-2.13,1,2.56,2.56,0,0,0-2.08-1,2.51,2.51,0,0,0-1.88.84.85.85,0,0,0-.93-.75,1,1,0,0,0-1,1.12v5.38A1,1,0,0,0,363.53,22.43Z"/><path class="cls-6" d="M377.8,22.51c1.5,0,3.29-.84,3.29-1.71a.9.9,0,0,0-.82-.87c-.54,0-1.25.82-2.29.82a1.74,1.74,0,0,1-1.9-1.46h4.3c.62,0,.88-.3.88-.9a3.63,3.63,0,1,0-7.24.24A3.67,3.67,0,0,0,377.8,22.51Zm-.17-6.11a1.59,1.59,0,0,1,1.61,1.54H376A1.62,1.62,0,0,1,377.63,16.4Z"/><path class="cls-6" d="M383,22.43a1,1,0,0,0,1-1.12V17.79a1.3,1.3,0,1,1,2.6,0v3.52a1,1,0,1,0,2,0V17.44a2.59,2.59,0,0,0-2.76-2.72,2.19,2.19,0,0,0-2,.83.84.84,0,0,0-.92-.74,1,1,0,0,0-1,1.12v5.38A1,1,0,0,0,383,22.43Z"/><path class="cls-6" d="M389.8,16.65h.45v4.66a1,1,0,1,0,2,0V16.65h.58a.88.88,0,1,0,0-1.76h-.58v-1.2a1,1,0,1,0-2,0v1.2h-.45a.87.87,0,0,0-.89.88A.82.82,0,0,0,389.8,16.65Z"/><path class="cls-6" d="M397.22,22.51a3.67,3.67,0,0,0,3.61-3.88,3.63,3.63,0,1,0-7.23,0A3.67,3.67,0,0,0,397.22,22.51Zm0-5.94c1.11,0,1.6,1.09,1.6,2.06s-.51,2-1.6,2-1.6-1.06-1.6-2S396.11,16.57,397.22,16.57Z"/><path class="cls-6" d="M404.06,22.51c1.74,0,2.88-1,2.88-2.37,0-2.29-3.51-2.15-3.51-3.09,0-.4.33-.56.69-.56.66,0,1.43.59,1.81.59a.87.87,0,0,0,.82-.9c0-1-1.52-1.46-2.52-1.46a2.45,2.45,0,0,0-2.73,2.36c0,2.31,3.5,2.17,3.5,3.09,0,.38-.18.58-.8.58-.95,0-1.3-.69-2.08-.69a1,1,0,0,0-.87.9C401.25,21.87,402.93,22.51,404.06,22.51Z"/><path class="cls-6" d="M399,50.31c-.91,0-1.7-.55-2.35-.55a.94.94,0,0,0-.94,1c0,1.32,2.32,1.57,3.4,1.57a3.33,3.33,0,0,0,3.59-3.25c0-3.62-4.68-2.69-4.68-4.13,0-.59.54-.91,1.15-.91.84,0,1.29.42,1.86.42a1,1,0,0,0,.94-1c0-1.11-2-1.4-2.75-1.4a3.24,3.24,0,0,0-3.47,3.18c0,3.25,4.68,2.25,4.68,3.91C400.46,49.79,400,50.31,399,50.31Z"/><path class="cls-6" d="M405.58,49.34v-3.6a1,1,0,1,0-2,0v3.65c0,1.79,1.19,2.94,3.32,2.94s3.32-1.15,3.32-2.94V45.74a1,1,0,1,0-2,0v3.6a1.31,1.31,0,1,1-2.61,0Z"/><path class="cls-6" d="M412.36,55.21a1,1,0,0,0,1-1.12V51.63a2.91,2.91,0,0,0,1.85.7,3.57,3.57,0,0,0,3.32-3.8c0-2-1.08-4-3.25-4a2.26,2.26,0,0,0-1.92.92,1,1,0,0,0-1-.84,1,1,0,0,0-1,1.12v8.35A1,1,0,0,0,412.36,55.21ZM415,46.39c1.05,0,1.57,1.11,1.57,2.06s-.52,2-1.57,2-1.59-1.12-1.59-2.1S413.87,46.39,415,46.39Z"/><path class="cls-6" d="M422.73,52.33c1.5,0,3.29-.84,3.29-1.71a.89.89,0,0,0-.82-.87c-.54,0-1.25.81-2.29.81a1.74,1.74,0,0,1-1.9-1.45h4.3c.61,0,.88-.3.88-.9a3.63,3.63,0,1,0-7.24.24A3.68,3.68,0,0,0,422.73,52.33Zm-.17-6.11a1.59,1.59,0,0,1,1.61,1.54H421A1.62,1.62,0,0,1,422.56,46.22Z"/><path class="cls-6" d="M427.88,52.24a1,1,0,0,0,1-1.12V48c0-.8.62-1.07,1.22-1.35a4.26,4.26,0,0,0,1-.47l2,5.19c.2.52.41.84,1.09.84s.9-.32,1.1-.84l2-5.21a1.41,1.41,0,0,0,.12-.59,1,1,0,0,0-1.05-1,.92.92,0,0,0-.89.72l-1.29,4h0l-1.29-4a.93.93,0,0,0-.9-.72,1.06,1.06,0,0,0-.89.46.94.94,0,0,0-.8-.46,1.59,1.59,0,0,0-1.41.84h0c0-.64-.45-.84-1-.84a1,1,0,0,0-1,1v5.49A1,1,0,0,0,427.88,52.24Z"/><path class="cls-6" d="M439,44.62a1,1,0,0,0-1,1.12v5.38a1,1,0,1,0,2,0V45.74A1,1,0,0,0,439,44.62Z"/><path class="cls-6" d="M439,43.87a1.14,1.14,0,1,0-1.13-1.17A1.18,1.18,0,0,0,439,43.87Z"/><path class="cls-6" d="M443.52,52.33c1.74,0,2.87-1,2.87-2.37,0-2.3-3.5-2.16-3.5-3.1,0-.39.32-.56.69-.56.65,0,1.42.59,1.8.59a.87.87,0,0,0,.83-.89c0-1-1.53-1.46-2.52-1.46A2.44,2.44,0,0,0,441,46.89c0,2.31,3.5,2.17,3.5,3.1,0,.38-.18.57-.8.57-1,0-1.3-.68-2.09-.68a1,1,0,0,0-.87.89C440.7,51.68,442.38,52.33,443.52,52.33Z"/><path class="cls-6" d="M448.08,44.62a1,1,0,0,0-1,1.12v5.38a1,1,0,1,0,2,0V45.74A1,1,0,0,0,448.08,44.62Z"/><path class="cls-6" d="M448.08,43.87A1.14,1.14,0,1,0,447,42.7,1.18,1.18,0,0,0,448.08,43.87Z"/><path class="cls-6" d="M452.55,43.78c.28,0,.15,0,.56-.14l1.57-.61a.8.8,0,0,0,.57-.83.88.88,0,0,0-.75-.87,1.6,1.6,0,0,0-.54.14l-1.65.67-.11.06a.68.68,0,0,0-.39.56C451.81,43.25,452.13,43.78,452.55,43.78Z"/><path class="cls-6" d="M453.53,52.33a3.67,3.67,0,0,0,3.61-3.88,3.62,3.62,0,1,0-7.22,0A3.67,3.67,0,0,0,453.53,52.33Zm0-5.94c1.11,0,1.6,1.09,1.6,2.06s-.51,2-1.6,2-1.6-1.07-1.6-2S452.42,46.39,453.53,46.39Z"/><path class="cls-6" d="M459,52.24a1,1,0,0,0,1-1.12V47.61a1.31,1.31,0,1,1,2.61,0v3.51a1,1,0,1,0,2,0V47.26a2.58,2.58,0,0,0-2.76-2.72,2.16,2.16,0,0,0-1.94.83.85.85,0,0,0-.93-.75,1,1,0,0,0-1,1.12v5.38A1,1,0,0,0,459,52.24Z"/><path class="cls-6" d="M470.74,10.06A1,1,0,0,0,471.79,9V5.91H474a1,1,0,0,0,1-1A.93.93,0,0,0,474,4h-2.17v-2h2.58a.92.92,0,0,0,.94-1,.92.92,0,0,0-.94-1h-3.59a1,1,0,0,0-1.09,1.09V9A1,1,0,0,0,470.74,10.06Z"/><path class="cls-6" d="M478.89,10.14a2.41,2.41,0,0,0,1.92-.94c.14.54.38.86,1,.86,1,0,1-.8,1-1.32v-5c0-.51,0-1.31-1-1.31a1,1,0,0,0-1,.84,2.32,2.32,0,0,0-1.92-.93c-1.85,0-3.33,1.7-3.33,3.91S477,10.14,478.89,10.14Zm.28-5.94c1.07,0,1.56,1.09,1.56,2.06s-.51,2-1.56,2-1.6-1.06-1.6-2S478.06,4.2,479.17,4.2Z"/><path class="cls-6" d="M487.21,10.14c.72,0,2.46-.35,2.46-1.39a.89.89,0,0,0-.87-.88,10.55,10.55,0,0,1-1.5.42,1.85,1.85,0,0,1-1.69-2c0-1,.55-2.06,1.69-2.06.65,0,1.1.39,1.6.39a.84.84,0,0,0,.74-.74.81.81,0,0,0,.77.44h.45V8.94a1,1,0,1,0,2,0V4.29h.57a.86.86,0,0,0,1-.89c0-.64-.45-.88-1-.88h-.57V1.32a1,1,0,1,0-2,0v1.2h-.45a.85.85,0,0,0-.85.72c-.38-.67-1.67-.89-2.35-.89a3.76,3.76,0,0,0-3.62,3.91A3.67,3.67,0,0,0,487.21,10.14Z"/><path class="cls-6" d="M497.83,10.14a3.67,3.67,0,0,0,3.62-3.88,3.63,3.63,0,1,0-7.23,0A3.67,3.67,0,0,0,497.83,10.14Zm0-5.94c1.11,0,1.6,1.09,1.6,2.06s-.51,2-1.6,2-1.59-1.06-1.59-2S496.73,4.2,497.83,4.2Z"/><path class="cls-6" d="M503.28,10.06a1,1,0,0,0,1-1.12V5.84c0-.8.61-1.06,1.21-1.34s1.21-.33,1.21-1a1,1,0,0,0-1-1.08,1.6,1.6,0,0,0-1.42.84h0c0-.65-.45-.84-1-.84a1,1,0,0,0-1,1V8.94A1,1,0,0,0,503.28,10.06Z"/><path class="cls-6" d="M510.05,10.14c1.5,0,3.3-.84,3.3-1.71a.91.91,0,0,0-.83-.87c-.53,0-1.25.82-2.28.82a1.75,1.75,0,0,1-1.91-1.46h4.3c.62,0,.88-.29.88-.9a3.63,3.63,0,1,0-7.24.24A3.68,3.68,0,0,0,510.05,10.14ZM509.89,4a1.61,1.61,0,0,1,1.61,1.55h-3.21A1.63,1.63,0,0,1,509.89,4Z"/><path class="cls-6" d="M516.61,10.14c1.73,0,2.87-1,2.87-2.37,0-2.29-3.51-2.15-3.51-3.09,0-.39.33-.56.69-.56.66,0,1.43.59,1.81.59a.87.87,0,0,0,.82-.9c0-1-1.52-1.46-2.52-1.46A2.46,2.46,0,0,0,514,4.71c0,2.31,3.5,2.17,3.5,3.09,0,.38-.18.58-.79.58-1,0-1.31-.69-2.09-.69a1,1,0,0,0-.87.9C513.79,9.5,515.47,10.14,516.61,10.14Z"/><path class="cls-6" d="M467.39,23.23a1,1,0,0,0,1-1.12V18.59a1.3,1.3,0,1,1,2.6,0v3.52a1,1,0,1,0,2,0V18.24a2.59,2.59,0,0,0-2.76-2.72,2.41,2.41,0,0,0-1.84.7h0V13.48a1,1,0,1,0-2,0v8.63A1,1,0,0,0,467.39,23.23Z"/><path class="cls-6" d="M475.17,15.61a1,1,0,0,0-1,1.12v3.64c0,1.79,1.19,2.94,3.32,2.94s3.32-1.15,3.32-2.94V16.73a1,1,0,1,0-2,0v3.6a1.31,1.31,0,0,1-2.61,0v-3.6A1,1,0,0,0,475.17,15.61Z"/><path class="cls-6" d="M482,16.73v5.38a1,1,0,1,0,2,0V18.59c0-.81.37-1.39,1.2-1.39s1.17.58,1.17,1.39v3.52a1,1,0,1,0,2,0V18.59a1.23,1.23,0,0,1,1.19-1.39c.73,0,1.18.58,1.18,1.39v3.52a1,1,0,1,0,2,0V18.24A2.53,2.53,0,0,0,490,15.52a3.08,3.08,0,0,0-2.13,1,2.56,2.56,0,0,0-2.08-1,2.51,2.51,0,0,0-1.88.84.85.85,0,0,0-.92-.75A1,1,0,0,0,482,16.73Z"/><path class="cls-6" d="M498.83,16.45a2.29,2.29,0,0,0-1.91-.93c-1.85,0-3.34,1.7-3.34,3.91s1.44,3.88,3.34,3.88a2.38,2.38,0,0,0,1.91-.94c.14.53.38.86,1,.86,1,0,1-.8,1-1.32v-5c0-.52,0-1.31-1-1.31A1,1,0,0,0,498.83,16.45Zm-1.63,5c-1.1,0-1.6-1.06-1.6-2s.49-2.06,1.6-2.06,1.55,1.09,1.55,2.06S498.25,21.46,497.2,21.46Z"/><path class="cls-6" d="M502.92,23.23a1,1,0,0,0,1-1.12V18.59a1.3,1.3,0,1,1,2.6,0v3.52a1,1,0,1,0,2,0V18.24a2.59,2.59,0,0,0-2.76-2.72,2.19,2.19,0,0,0-2,.83.84.84,0,0,0-.92-.74,1,1,0,0,0-1,1.12v5.38A1,1,0,0,0,502.92,23.23Z"/><path class="cls-6" d="M513,15.52a3.75,3.75,0,0,0-3.61,3.91,3.62,3.62,0,1,0,7.23,0A3.76,3.76,0,0,0,513,15.52Zm0,5.94c-1.09,0-1.59-1.06-1.59-2s.49-2.06,1.59-2.06,1.6,1.09,1.6,2.06S514.11,21.46,513,21.46Z"/><path class="cls-6" d="M517.3,17.88c0,2.31,3.5,2.17,3.5,3.09,0,.38-.18.58-.8.58-1,0-1.3-.69-2.09-.69a1,1,0,0,0-.87.9c0,.91,1.69,1.55,2.82,1.55,1.74,0,2.87-1,2.87-2.37,0-2.29-3.5-2.15-3.5-3.09,0-.39.32-.56.69-.56.65,0,1.42.59,1.8.59a.88.88,0,0,0,.83-.9c0-1-1.53-1.46-2.52-1.46A2.45,2.45,0,0,0,517.3,17.88Z"/><path class="cls-6" d="M604.86,137h-2.49a1.1,1.1,0,0,0-1.15,1.15v8.4a1.1,1.1,0,0,0,1.18,1.13H605a4.85,4.85,0,0,0,5.13-5.19C610.14,139.15,608.22,137,604.86,137Zm.12,8.61h-1.51v-6.54h1.36c2.07,0,3,1.39,3,3.31S606.92,145.6,605,145.6Z"/><path class="cls-6" d="M618.45,143.44a3.88,3.88,0,1,0-7.75.25,3.94,3.94,0,0,0,4,4.16c1.6,0,3.52-.9,3.52-1.83a1,1,0,0,0-.88-.93c-.57,0-1.34.87-2.45.87a1.87,1.87,0,0,1-2-1.56h4.61C618.17,144.4,618.45,144.08,618.45,143.44Zm-5.59-.48a1.73,1.73,0,0,1,1.71-1.65,1.71,1.71,0,0,1,1.72,1.65Z"/><path class="cls-6" d="M622.89,139.6a1.7,1.7,0,0,0-1.51.9h0c0-.69-.48-.9-1.05-.9a1.06,1.06,0,0,0-1.11,1.08v5.88a1.09,1.09,0,1,0,2.16,0v-3.32c0-.85.66-1.14,1.3-1.44s1.29-.34,1.29-1.05A1,1,0,0,0,622.89,139.6Z"/><path class="cls-6" d="M625.26,139.6a1.09,1.09,0,0,0-1.08,1.2v5.76a1.09,1.09,0,1,0,2.16,0V140.8A1.09,1.09,0,0,0,625.26,139.6Z"/><path class="cls-6" d="M625.26,136.36a1.24,1.24,0,0,0-1.21,1.18,1.27,1.27,0,0,0,1.21,1.25,1.22,1.22,0,1,0,0-2.43Z"/><path class="cls-6" d="M629.22,146.86c.21.55.44.9,1.17.9s1-.35,1.17-.9l2.18-5.58a1.68,1.68,0,0,0,.13-.63,1,1,0,0,0-1.12-1.05,1,1,0,0,0-1,.76l-1.38,4.26h0L629,140.36a1,1,0,0,0-1-.76,1,1,0,0,0-1.13,1.05,1.54,1.54,0,0,0,.14.63Z"/><path class="cls-6" d="M640.82,139.6a1,1,0,0,0-1,.9,2.45,2.45,0,0,0-2-1c-2,0-3.57,1.81-3.57,4.18s1.54,4.16,3.57,4.16a2.58,2.58,0,0,0,2-1c.15.57.41.92,1,.92,1,0,1-.86,1-1.41V141C641.85,140.45,641.85,139.6,640.82,139.6ZM638,145.87c-1.17,0-1.71-1.14-1.71-2.18s.52-2.2,1.71-2.2,1.66,1.17,1.66,2.2S639.15,145.87,638,145.87Z"/><path class="cls-6" d="M605.37,154.51a2.38,2.38,0,0,0-2,1,1,1,0,0,0-1.08-.9,1.09,1.09,0,0,0-1.08,1.2v8.94a1.09,1.09,0,1,0,2.16,0V162.1a3.1,3.1,0,0,0,2,.75c2.17,0,3.55-2,3.55-4.07S607.7,154.51,605.37,154.51Zm-.36,6.36c-1.18,0-1.69-1.2-1.69-2.25s.54-2.13,1.69-2.13,1.68,1.18,1.68,2.2S606.14,160.87,605,160.87Z"/><path class="cls-6" d="M610.82,162.76a1.09,1.09,0,0,0,1.08-1.2v-3.32c0-.85.66-1.14,1.3-1.44s1.29-.34,1.29-1.05a1.05,1.05,0,0,0-1-1.15,1.72,1.72,0,0,0-1.52.9h0c0-.69-.48-.9-1-.9a1.06,1.06,0,0,0-1.11,1.08v5.88A1.09,1.09,0,0,0,610.82,162.76Z"/><path class="cls-6" d="M617.15,151.94,617,152a.73.73,0,0,0-.42.6c0,.53.34,1.1.79,1.1s.17,0,.6-.15l1.68-.66a.86.86,0,0,0,.61-.89,1,1,0,0,0-.8-.93,1.56,1.56,0,0,0-.57.15Z"/><path class="cls-6" d="M621.11,162.76c1,0,1-.86,1-1.41V156c0-.56,0-1.41-1-1.41a1,1,0,0,0-1,.9,2.45,2.45,0,0,0-2.05-1c-2,0-3.57,1.81-3.57,4.18s1.54,4.16,3.57,4.16a2.58,2.58,0,0,0,2.05-1C620.22,162.41,620.48,162.76,621.11,162.76Zm-2.79-1.89c-1.17,0-1.71-1.14-1.71-2.18s.52-2.2,1.71-2.2,1.66,1.17,1.66,2.2S619.44,160.87,618.32,160.87Z"/><path class="cls-6" d="M626.93,162.85c.78,0,2.64-.38,2.64-1.49a.94.94,0,0,0-.93-.94,12.19,12.19,0,0,1-1.61.45,2,2,0,0,1-1.81-2.18c0-1.11.58-2.2,1.81-2.2.69,0,1.17.42,1.71.42s.7-.41.79-.81a.86.86,0,0,0,.83.48h.48v5a1.09,1.09,0,1,0,2.16,0v-5h.62a.91.91,0,0,0,1-1c0-.69-.48-.94-1-.94H633V153.4a1.09,1.09,0,1,0-2.16,0v1.29h-.48a.9.9,0,0,0-.91.77c-.4-.72-1.8-1-2.52-1a4,4,0,0,0-3.87,4.18A3.93,3.93,0,0,0,626.93,162.85Z"/><path class="cls-6" d="M635.81,151.36a1.25,1.25,0,0,0-1.22,1.18,1.27,1.27,0,0,0,1.22,1.25,1.22,1.22,0,0,0,0-2.43Z"/><path class="cls-6" d="M636.89,161.56V155.8a1.09,1.09,0,1,0-2.16,0v5.76a1.09,1.09,0,1,0,2.16,0Z"/><path class="cls-6" d="M641.74,156.49c.69,0,1.17.42,1.71.42s.83-.59.83-1c0-1.05-1.79-1.36-2.64-1.36a4,4,0,0,0-3.87,4.18,3.93,3.93,0,0,0,3.87,4.16c.78,0,2.64-.38,2.64-1.49a.94.94,0,0,0-.93-.94,12.19,12.19,0,0,1-1.61.45,2,2,0,0,1-1.81-2.18C639.93,157.58,640.51,156.49,641.74,156.49Z"/><path class="cls-6" d="M651.38,154.6a1,1,0,0,0-1,.9,2.45,2.45,0,0,0-2.05-1c-2,0-3.58,1.81-3.58,4.18s1.55,4.16,3.58,4.16a2.58,2.58,0,0,0,2.05-1c.15.57.41.92,1,.92,1,0,1-.86,1-1.41V156C652.41,155.45,652.41,154.6,651.38,154.6Zm-2.8,6.27c-1.16,0-1.7-1.14-1.7-2.18s.52-2.2,1.7-2.2,1.67,1.17,1.67,2.2S649.71,160.87,648.58,160.87Z"/><path class="cls-5" d="M487.06,299.32a.74.74,0,0,0-1,.41l-3.7,9.08-61.69-25.1,3.69-9.07a.75.75,0,0,0-1.39-.57l-3.69,9.08-61.69-25.1,3.69-9.08a.74.74,0,0,0-.41-1,.75.75,0,0,0-1,.41l-3.69,9.08-61.69-25.1,3.69-9.08a.74.74,0,0,0-.41-1,.75.75,0,0,0-1,.41l-3.69,9.08-61.69-25.1,3.69-9.08a.75.75,0,0,0-1.39-.56l-4.26,10.47,63.77,25.94h0l63.05,25.65,0,0h0l126.84,51.61,4.25-10.47A.74.74,0,0,0,487.06,299.32Z"/><path class="cls-8" d="M490.51,207.86c0,2.68,1.71,5.26,3.83,5.76s3.83-1.26,3.83-3.94-1.72-5.26-3.83-5.76S490.51,205.18,490.51,207.86Zm4.28-.74a1.79,1.79,0,0,1,.25.31,1.63,1.63,0,0,1,.19.34,1.66,1.66,0,0,1,.11.38,1.92,1.92,0,0,1,0,.78,1.58,1.58,0,0,1-.11.37,1.48,1.48,0,0,1-.19.35,2.16,2.16,0,0,1-.55.55,2.27,2.27,0,0,1-.34.19,2.38,2.38,0,0,1-.38.11,1.72,1.72,0,0,1-.39,0A2,2,0,0,1,492,210a2,2,0,0,1-.59-1.41,2.58,2.58,0,0,1,0-.39,2.4,2.4,0,0,1,.12-.38,2.21,2.21,0,0,1,.18-.34,2.42,2.42,0,0,1,.25-.31,1.76,1.76,0,0,1,.3-.24,1.7,1.7,0,0,1,.35-.19,1.58,1.58,0,0,1,.37-.11,2,2,0,0,1,.78,0,1.66,1.66,0,0,1,.38.11,1.63,1.63,0,0,1,.34.19A1.76,1.76,0,0,1,494.79,207.12Z"/><path class="cls-9" d="M13.75,117.94l-1.19-2.32a4.85,4.85,0,0,0-7-2.19c-3,1.52-4,4.21-2.47,7.2l1.14,2.21a1.1,1.1,0,0,0,1.55.5l7.47-3.83A1.1,1.1,0,0,0,13.75,117.94Zm-8.14,3L5,119.71c-1-1.84-.12-3.28,1.59-4.15s3.27-.69,4.15,1l.69,1.35Z"/><path class="cls-9" d="M6.34,111.68a3.94,3.94,0,0,0,3.18-4.86c-.35-1.57-1.65-3.24-2.56-3a1,1,0,0,0-.71,1.06c.12.56,1.14,1.12,1.38,2.2a1.87,1.87,0,0,1-1.08,2.34l-1-4.5a.84.84,0,0,0-1.15-.72,4,4,0,0,0-3,4.65A4,4,0,0,0,6.34,111.68Zm-1.94-5.3.75,3.35a1.73,1.73,0,0,1-2-1.31A1.71,1.71,0,0,1,4.4,106.38Z"/><path class="cls-9" d="M6.23,99.19c.4,0,.62.18.63.84,0,1-.71,1.41-.7,2.25a1,1,0,0,0,1,.91c1,0,1.64-1.82,1.62-3,0-1.86-1.15-3.06-2.58-3-2.46,0-2.25,3.79-3.26,3.8-.42,0-.6-.33-.61-.72,0-.71.6-1.54.6-2a.94.94,0,0,0-1-.87C.86,97.4.39,99,.41,100.11.43,101.82,1.47,103,3,103,5.45,103,5.24,99.2,6.23,99.19Z"/><path class="cls-9" d="M.8,93.87a1.1,1.1,0,0,0,1,1.3l8.76,1.75A1.08,1.08,0,1,0,11,94.81l-2.59-.52a3.06,3.06,0,0,0,1.12-1.8c.43-2.13-1.28-3.88-3.29-4.28s-4.41.29-4.87,2.57A2.39,2.39,0,0,0,1.9,93,1,1,0,0,0,.8,93.87Zm2.4-2.35c.22-1.1,1.49-1.41,2.49-1.21s2,1,1.81,2.07S6,93.81,5,93.6,3,92.66,3.2,91.52Z"/><path class="cls-9" d="M9.43,87.92a1.08,1.08,0,1,0,.78-2L1.59,82.57a1.09,1.09,0,0,0-1.51.57,1.08,1.08,0,0,0,.73,1.44Z"/><path class="cls-9" d="M5.6,82.1l5.14,2.61a1.09,1.09,0,1,0,1-1.93l-5.14-2.6a1.08,1.08,0,1,0-1,1.92Z"/><path class="cls-9" d="M2.64,80.75a1.26,1.26,0,0,0,1.66-.52,1.21,1.21,0,1,0-2.17-1.09A1.23,1.23,0,0,0,2.64,80.75Z"/><path class="cls-9" d="M9.65,80.26a3.93,3.93,0,0,0,5.74-.81c.95-1.29,1.36-3.37.62-3.92a1,1,0,0,0-1.28.16c-.34.46-.09,1.59-.74,2.49a1.87,1.87,0,0,1-2.47.72l2.73-3.71A.83.83,0,0,0,14,73.86a4,4,0,0,0-5.46.8A4,4,0,0,0,9.65,80.26ZM10,75.73a1.71,1.71,0,0,1,2.35-.42l-2,2.77A1.73,1.73,0,0,1,10,75.73Z"/><path class="cls-9" d="M20.2,74.21a2.45,2.45,0,0,0,1-2.19l0,0,.33.39a1.66,1.66,0,0,1-.29,2.49c-1,.8-2,.78-2.49,1.23a1,1,0,0,0-.05,1.28c.76.91,3-.39,3.64-1,1.88-1.59,2.33-3.69.65-5.67L19,66a1.09,1.09,0,0,0-1.6-.21,1,1,0,0,0-.24,1.38A2.34,2.34,0,0,0,15,67.7c-1.66,1.4-1.4,3.84,0,5.5S18.47,75.67,20.2,74.21ZM16.48,69c.9-.76,2.07-.18,2.75.62a1.9,1.9,0,0,1,.08,2.73c-.86.72-2,.28-2.71-.6A2,2,0,0,1,16.48,69Z"/><path class="cls-9" d="M22.88,68.09c.86,1.71,2.55,2.24,4.58,1.22s2.63-2.69,1.77-4.41l-1.74-3.48a1.08,1.08,0,1,0-1.93,1l1.72,3.45a1.39,1.39,0,0,1-2.49,1.25l-1.73-3.45a1.09,1.09,0,1,0-1.93,1Z"/><path class="cls-9" d="M35,66.6c1.56-.37,3.22-1.68,3-2.59a1,1,0,0,0-1.07-.7c-.56.13-1.11,1.15-2.19,1.41a1.87,1.87,0,0,1-2.34-1l4.48-1.06a.82.82,0,0,0,.7-1.15,3.88,3.88,0,1,0-7.49,2A3.93,3.93,0,0,0,35,66.6Zm-1.67-6.32a1.71,1.71,0,0,1,2.05,1.21L32,62.27A1.73,1.73,0,0,1,33.33,60.28Z"/><path class="cls-9" d="M46.6,66a3.92,3.92,0,0,0,4.32-3.67,3.88,3.88,0,1,0-7.68-.91A3.93,3.93,0,0,0,46.6,66Zm-1.22-4.33c.12-1,.78-2.12,2-2S48.9,61,48.78,62.05s-.79,2.1-2,2A1.93,1.93,0,0,1,45.38,61.65Z"/><path class="cls-9" d="M50.94,69.86a1.09,1.09,0,0,0,1.43-.75l.92-2.47a3.1,3.1,0,0,0,1.6,1.4c2,.76,4-.66,4.75-2.57s.41-4.41-1.76-5.22a2.41,2.41,0,0,0-2.28.21,1,1,0,0,0-.69-1.22,1.1,1.1,0,0,0-1.44.74l-3.12,8.38A1.08,1.08,0,0,0,50.94,69.86Zm3.57-6.48c.37-1,1.25-1.81,2.33-1.4s1.16,1.7.81,2.65-1.28,1.85-2.34,1.45S54.14,64.36,54.51,63.38Z"/><path class="cls-9" d="M61.68,71.62c1.33.9,3.42,1.23,3.94.46a1,1,0,0,0-.21-1.27c-.47-.32-1.59,0-2.51-.64a1.87,1.87,0,0,1-.82-2.44l3.82,2.58A.83.83,0,0,0,67.22,70a3.89,3.89,0,1,0-6.58-4.13A3.93,3.93,0,0,0,61.68,71.62Zm3.51-5.52a1.71,1.71,0,0,1,.5,2.33l-2.84-1.92A1.73,1.73,0,0,1,65.19,66.1Z"/><path class="cls-9" d="M65.87,74.87a1.09,1.09,0,0,0,1.61-.09l2.33-2.36c.6-.61,1.27-.35,1.94-.11s1.16.66,1.66.16a1,1,0,0,0,.06-1.56,1.72,1.72,0,0,0-1.71-.42l0,0c.49-.49.29-1-.11-1.38a1.06,1.06,0,0,0-1.55,0L66,73.26A1.08,1.08,0,0,0,65.87,74.87Z"/><path class="cls-9" d="M70.35,80.19a2.59,2.59,0,0,0,2,1.13,1,1,0,0,0-.18,1.37c.59.85,1.29.37,1.75.06l4.41-3c.46-.31,1.17-.8.58-1.65a1,1,0,0,0-1.32-.35,2.5,2.5,0,0,0-.34-2.25c-1.12-1.64-3.51-1.93-5.47-.59S69.21,78.51,70.35,80.19ZM73,76.68a1.94,1.94,0,0,1,2.78.17c.64.94,0,2-.88,2.62A1.74,1.74,0,1,1,73,76.68Z"/><path class="cls-9" d="M76.79,82.66a3.93,3.93,0,0,0-2.44,5.13c.29.72,1.32,2.31,2.35,1.91a1,1,0,0,0,.54-1.22c-.09-.23-.81-.82-1-1.32a2,2,0,0,1,1.35-2.49,2,2,0,0,1,2.72.87c.26.65,0,1.25.24,1.75a1,1,0,0,0,1.27.38c1-.38.61-2.16.29-3A4,4,0,0,0,76.79,82.66Z"/><path class="cls-9" d="M85.9,90.75a1.22,1.22,0,0,0-.55-2.37,1.27,1.27,0,0,0-.94,1.47A1.23,1.23,0,0,0,85.9,90.75Z"/><path class="cls-9" d="M76.59,90.56a1.09,1.09,0,1,0,.49,2.11l5.62-1.31a1.09,1.09,0,1,0-.49-2.11Z"/><path class="cls-9" d="M76.4,97.54a3.93,3.93,0,0,0,4.38,3.61,3.88,3.88,0,1,0-.47-7.73A3.93,3.93,0,0,0,76.4,97.54Zm6.35-.39c.07,1.19-1.07,1.78-2.1,1.84s-2.21-.41-2.28-1.57,1-1.78,2.07-1.84S82.67,96,82.75,97.15Z"/><path class="cls-9" d="M83.51,103.21l-5.68-1a1.09,1.09,0,1,0-.37,2.13l3.71.65a1.36,1.36,0,0,1,1.22,1.62,1.34,1.34,0,0,1-1.7,1.13L77,107.09a1.08,1.08,0,1,0-.38,2.12l4.08.72a2.77,2.77,0,0,0,3.38-2.41,2.35,2.35,0,0,0-.51-2.2.9.9,0,0,0,1-.84A1.09,1.09,0,0,0,83.51,103.21Z"/><path class="cls-9" d="M72.62,115.7c-.42,1,.36,1.29.87,1.51l4.89,2.16c.51.22,1.29.56,1.71-.38a1,1,0,0,0-.41-1.31,2.49,2.49,0,0,0,1.74-1.49c.79-1.81-.23-4-2.4-5s-4.42-.26-5.24,1.59a2.6,2.6,0,0,0,.09,2.29C73.29,115,72.87,115.12,72.62,115.7Zm2.85-1.79a2.26,2.26,0,0,1,4,1.76c-.46,1-1.74,1-2.69.64S75,114.94,75.47,113.91Z"/><path class="cls-9" d="M70.91,118.35a1.09,1.09,0,0,0,.4,1.56L79,125a1.09,1.09,0,1,0,1.19-1.8l-7.69-5.12A1.09,1.09,0,0,0,70.91,118.35Z"/><path class="cls-9" d="M70.47,126.11a38.46,38.46,0,0,1-56.82-1.2.75.75,0,1,0-1.13,1,39.95,39.95,0,0,0,59,1.24.75.75,0,1,0-1.08-1Z"/><path class="cls-3" d="M487.43,205a2,2,0,0,0-1,3.89,2,2,0,0,0,.48.06,2,2,0,0,0,.48-4Z"/><path class="cls-3" d="M469.6,202.68a2,2,0,0,0-.79-2.11v3.26A2,2,0,0,0,469.6,202.68Z"/><path class="cls-3" d="M481,203.43a2,2,0,0,0-1,3.88,2.12,2.12,0,0,0,.49.06,2,2,0,0,0,.47-3.94Z"/><path class="cls-3" d="M474.57,201.85a2,2,0,1,0-1,3.88,2,2,0,0,0,.48.06,2,2,0,0,0,.48-3.94Z"/><path class="cls-3" d="M493.77,206.58a2,2,0,0,0-.78,0,1.58,1.58,0,0,0-.37.11,1.7,1.7,0,0,0-.35.19,1.76,1.76,0,0,0-.3.24,2.42,2.42,0,0,0-.25.31,2.21,2.21,0,0,0-.18.34,2.4,2.4,0,0,0-.12.38,2.58,2.58,0,0,0,0,.39A2,2,0,0,0,492,210a2,2,0,0,0,1.41.59,1.72,1.72,0,0,0,.39,0,2.38,2.38,0,0,0,.38-.11,2.27,2.27,0,0,0,.34-.19,2.16,2.16,0,0,0,.55-.55,1.48,1.48,0,0,0,.19-.35,1.58,1.58,0,0,0,.11-.37,1.92,1.92,0,0,0,0-.78,1.66,1.66,0,0,0-.11-.38,1.63,1.63,0,0,0-.19-.34,1.79,1.79,0,0,0-.25-.31,1.76,1.76,0,0,0-.3-.24,1.63,1.63,0,0,0-.34-.19A1.66,1.66,0,0,0,493.77,206.58Z"/><path class="cls-10" d="M426.51,192.42c0,2.68,1.71,5.26,3.83,5.76s3.83-1.27,3.83-4-1.72-5.25-3.83-5.76S426.51,189.74,426.51,192.42Zm5.24-.51a2,2,0,0,1,.59,1.41,2.58,2.58,0,0,1,0,.39,2.4,2.4,0,0,1-.12.38,1.83,1.83,0,0,1-.18.34,1.89,1.89,0,0,1-.25.31,2,2,0,0,1-1.41.58,2,2,0,0,1-1.42-.58,2.6,2.6,0,0,1-.25-.31,1.83,1.83,0,0,1-.18-.34,1.66,1.66,0,0,1-.11-.38,1.72,1.72,0,0,1,0-.39,2,2,0,0,1,.58-1.41A2.06,2.06,0,0,1,431.75,191.91Z"/><path class="cls-3" d="M418.29,188.36a2,2,0,0,0-.94,3.89,2.59,2.59,0,0,0,.47.05,2,2,0,0,0,.47-3.94Z"/><path class="cls-3" d="M424.55,189.87a2,2,0,1,0-.94,3.89,1.88,1.88,0,0,0,.47.05,2,2,0,0,0,.47-3.94Z"/><path class="cls-3" d="M412,186.85a2,2,0,0,0-.94,3.89,2.61,2.61,0,0,0,.48,0,2,2,0,0,0,.46-3.94Z"/><path class="cls-3" d="M407.25,187.75a2,2,0,0,0-1.47-2.41h0v3.89A2,2,0,0,0,407.25,187.75Z"/><path class="cls-3" d="M428.34,193.32a1.72,1.72,0,0,0,0,.39,1.66,1.66,0,0,0,.11.38,1.83,1.83,0,0,0,.18.34,2.6,2.6,0,0,0,.25.31,2,2,0,0,0,1.42.58,2,2,0,0,0,1.41-.58,1.89,1.89,0,0,0,.25-.31,1.83,1.83,0,0,0,.18-.34,2.4,2.4,0,0,0,.12-.38,2.58,2.58,0,0,0,0-.39,2,2,0,0,0-.59-1.41,2.06,2.06,0,0,0-2.83,0A2,2,0,0,0,428.34,193.32Z"/><path class="cls-11" d="M364.21,176.1l0,0a1.89,1.89,0,0,1,.31-.25,1.83,1.83,0,0,1,.34-.18,2.4,2.4,0,0,1,.38-.12,2,2,0,0,1,1.8.55,1.81,1.81,0,0,1,.25.3,2.31,2.31,0,0,1,.18.35,2.29,2.29,0,0,1,.12.37,1.92,1.92,0,0,1,0,.78,2.4,2.4,0,0,1-.12.38,2.21,2.21,0,0,1-.18.34,2.42,2.42,0,0,1-.25.31,2,2,0,0,1-1.41.58,2.2,2.2,0,0,1-.77-.15,1.83,1.83,0,0,1-.34-.18,2.09,2.09,0,0,1-.28-.22,5.5,5.5,0,0,0,3.62,4.18c2.11.5,3.83-1.26,3.83-3.94s-1.72-5.26-3.83-5.76C366.12,173,364.66,174.15,364.21,176.1Z"/><path class="cls-3" d="M345.54,170.62a2,2,0,0,0-.93,3.9,2.59,2.59,0,0,0,.47,0,2,2,0,0,0,.46-3.95Z"/><path class="cls-3" d="M359.26,173.89a2,2,0,0,0-.93,3.89,1.89,1.89,0,0,0,.47.06,2,2,0,0,0,.46-4Z"/><path class="cls-3" d="M352.4,172.26a2,2,0,0,0-.93,3.89,1.88,1.88,0,0,0,.47,0,2,2,0,0,0,.46-3.94Z"/><path class="cls-3" d="M364.89,179.32a2.2,2.2,0,0,0,.77.15,2,2,0,0,0,1.41-.58,2.42,2.42,0,0,0,.25-.31,2.21,2.21,0,0,0,.18-.34,2.4,2.4,0,0,0,.12-.38,1.92,1.92,0,0,0,0-.78,2.29,2.29,0,0,0-.12-.37,2.31,2.31,0,0,0-.18-.35,1.81,1.81,0,0,0-.25-.3,2,2,0,0,0-1.8-.55,2.4,2.4,0,0,0-.38.12,1.83,1.83,0,0,0-.34.18,1.89,1.89,0,0,0-.31.25l0,0a2,2,0,0,0-.55,1.37,1.72,1.72,0,0,0,0,.39,1.66,1.66,0,0,0,.11.38,2.21,2.21,0,0,0,.18.34,3.76,3.76,0,0,0,.25.31l0,0a2.09,2.09,0,0,0,.28.22A1.83,1.83,0,0,0,364.89,179.32Z"/><path class="cls-12" d="M300.55,162c0,2.68,1.71,5.26,3.83,5.76s3.83-1.27,3.83-3.95-1.72-5.25-3.83-5.76S300.55,159.34,300.55,162ZM304.3,164a1.81,1.81,0,0,1-.3.25,2.21,2.21,0,0,1-.34.18,2.4,2.4,0,0,1-.38.12,2.58,2.58,0,0,1-.39,0,2,2,0,0,1-1.41-.59,2,2,0,0,1,0-2.83,2,2,0,0,1,1.8-.54,1.66,1.66,0,0,1,.38.11,2.21,2.21,0,0,1,.34.18,2.48,2.48,0,0,1,.3.25,2,2,0,0,1,0,2.83Z"/><path class="cls-3" d="M296.43,158.92a2,2,0,1,0-.94,3.88,2,2,0,0,0,.48.06,2,2,0,0,0,.46-3.94Z"/><path class="cls-3" d="M282.58,155.56a2,2,0,1,0-.94,3.89,1.84,1.84,0,0,0,.47.06,2,2,0,0,0,.47-3.95Z"/><path class="cls-3" d="M289.5,157.24a2,2,0,0,0-.94,3.89,2.61,2.61,0,0,0,.48.05,2,2,0,0,0,.46-3.94Z"/><path class="cls-3" d="M304,160.87a2.21,2.21,0,0,0-.34-.18,1.66,1.66,0,0,0-.38-.11,2,2,0,0,0-1.8.54,2,2,0,0,0,1.41,3.42,2.58,2.58,0,0,0,.39,0,2.4,2.4,0,0,0,.38-.12,2.21,2.21,0,0,0,.34-.18,1.81,1.81,0,0,0,.3-.25,2,2,0,0,0,0-2.83A2.48,2.48,0,0,0,304,160.87Z"/><path class="cls-13" d="M237.15,146.72c0,2.67,1.71,5.25,3.83,5.75s3.83-1.26,3.83-3.94-1.72-5.26-3.83-5.76S237.15,144,237.15,146.72Zm4.23-.21a1.58,1.58,0,0,1,.11.37,1.92,1.92,0,0,1,0,.78,1.66,1.66,0,0,1-.11.38,1.63,1.63,0,0,1-.19.34,1.79,1.79,0,0,1-.25.31,2,2,0,0,1-1.41.58,1.72,1.72,0,0,1-.39,0,1.58,1.58,0,0,1-.37-.11,1.7,1.7,0,0,1-.35-.19,1.76,1.76,0,0,1-.3-.24,1.79,1.79,0,0,1-.25-.31,2.27,2.27,0,0,1-.19-.34,2.38,2.38,0,0,1-.11-.38,1.92,1.92,0,0,1,0-.78,2.26,2.26,0,0,1,.11-.37,2.37,2.37,0,0,1,.19-.35,1.42,1.42,0,0,1,.25-.3,1.81,1.81,0,0,1,.3-.25,2.31,2.31,0,0,1,.35-.18,2.29,2.29,0,0,1,.37-.12,2,2,0,0,1,1.8.55,1.42,1.42,0,0,1,.25.3A1.7,1.7,0,0,1,241.38,146.51Z"/><path class="cls-3" d="M91.05,113.37a2.21,2.21,0,0,0,.34.18,1.66,1.66,0,0,0,.38.11,1.92,1.92,0,0,0,.78,0,1.58,1.58,0,0,0,.37-.11,1.92,1.92,0,0,0,.35-.18,2.48,2.48,0,0,0,.3-.25,2,2,0,0,0,.59-1.42,2,2,0,0,0-.59-1.41,1.81,1.81,0,0,0-.3-.25,1.92,1.92,0,0,0-.35-.18,2.29,2.29,0,0,0-.37-.12,2,2,0,0,0-1.8,3.38A2.48,2.48,0,0,0,91.05,113.37Z"/><path class="cls-3" d="M177.3,132.25a2,2,0,0,0,1.47,2.42,2.59,2.59,0,0,0,.47.05,2,2,0,1,0-1.94-2.47Z"/><path class="cls-3" d="M184,133.87a2,2,0,0,0,1.47,2.41,2,2,0,0,0,.47.06,2,2,0,1,0-1.94-2.47Z"/><path class="cls-3" d="M197.39,137.1a2,2,0,0,0,1.48,2.41,1.89,1.89,0,0,0,.47.06,2,2,0,1,0-2-2.47Z"/><path class="cls-3" d="M170.6,130.64a2,2,0,0,0,1.48,2.41,1.83,1.83,0,0,0,.47,0,2,2,0,1,0-2-2.46Z"/><path class="cls-3" d="M190.69,135.48a2,2,0,0,0,1.48,2.42,1.93,1.93,0,0,0,.47,0,2,2,0,1,0-1.95-2.47Z"/><path class="cls-3" d="M143.81,124.17a2,2,0,0,0,1.47,2.41,1.89,1.89,0,0,0,.47.06,2,2,0,1,0-1.94-2.47Z"/><path class="cls-3" d="M163.9,129a2,2,0,0,0,1.48,2.41,1.84,1.84,0,0,0,.47.06A2,2,0,1,0,163.9,129Z"/><path class="cls-3" d="M117,117.7a2,2,0,0,0,1.48,2.41,1.84,1.84,0,0,0,.47.06A2,2,0,1,0,117,117.7Z"/><path class="cls-3" d="M103.61,114.47a2,2,0,0,0,1.48,2.41,1.89,1.89,0,0,0,.47.06,2,2,0,1,0-2-2.47Z"/><path class="cls-3" d="M96.91,112.85a2,2,0,0,0,1.48,2.41,2,2,0,0,0,.47.06,2,2,0,0,0,.47-3.95A2,2,0,0,0,96.91,112.85Z"/><path class="cls-3" d="M110.31,116.09a2,2,0,0,0,1.48,2.41,1.83,1.83,0,0,0,.47,0,2,2,0,1,0-2-2.46Z"/><path class="cls-3" d="M157.2,127.4a2,2,0,0,0,1.48,2.41,1.89,1.89,0,0,0,.47.06,2,2,0,1,0-2-2.47Z"/><path class="cls-3" d="M150.5,125.78A2,2,0,0,0,152,128.2a2.59,2.59,0,0,0,.47.05,2,2,0,1,0-1.95-2.47Z"/><path class="cls-3" d="M130.41,120.93a2,2,0,0,0,1.47,2.42,1.93,1.93,0,0,0,.47.05,2,2,0,1,0-1.94-2.47Z"/><path class="cls-3" d="M123.71,119.32a2,2,0,0,0,1.47,2.41,2,2,0,0,0,.47.06,2,2,0,1,0-1.94-2.47Z"/><path class="cls-3" d="M137.11,122.55a2,2,0,0,0,1.47,2.41,2,2,0,0,0,.47.06,2,2,0,1,0-1.94-2.47Z"/><path class="cls-3" d="M219.9,140.48a2,2,0,1,0-.93,3.89,2.42,2.42,0,0,0,.47,0,2,2,0,0,0,.46-3.94Z"/><path class="cls-3" d="M233.3,143.71a2,2,0,0,0-.94,3.89,1.93,1.93,0,0,0,.47.05,2,2,0,0,0,.47-3.94Z"/><path class="cls-3" d="M213.2,138.86a2,2,0,1,0-.93,3.89,1.84,1.84,0,0,0,.47.06,2,2,0,0,0,.46-3.95Z"/><path class="cls-3" d="M226.6,142.09a2,2,0,0,0-.94,3.89,2,2,0,0,0,.48.06,2,2,0,0,0,.46-3.95Z"/><path class="cls-3" d="M204.09,138.72a2,2,0,0,0,1.09,2.28,2.23,2.23,0,0,0,.39.13,1.89,1.89,0,0,0,.47.06,2,2,0,1,0-1.95-2.47Z"/><path class="cls-3" d="M239.14,145.31a2.29,2.29,0,0,0-.37.12,2.31,2.31,0,0,0-.35.18,1.81,1.81,0,0,0-.3.25,1.42,1.42,0,0,0-.25.3,2.37,2.37,0,0,0-.19.35,2.26,2.26,0,0,0-.11.37,1.92,1.92,0,0,0,0,.78,2.38,2.38,0,0,0,.11.38,2.27,2.27,0,0,0,.19.34,1.79,1.79,0,0,0,.25.31,1.76,1.76,0,0,0,.3.24,1.7,1.7,0,0,0,.35.19,1.58,1.58,0,0,0,.37.11,1.72,1.72,0,0,0,.39,0,2,2,0,0,0,1.41-.58,1.79,1.79,0,0,0,.25-.31,1.63,1.63,0,0,0,.19-.34,1.66,1.66,0,0,0,.11-.38,1.92,1.92,0,0,0,0-.78,1.58,1.58,0,0,0-.11-.37,1.7,1.7,0,0,0-.19-.35,1.42,1.42,0,0,0-.25-.3A2,2,0,0,0,239.14,145.31Z"/><path class="cls-14" d="M240.41,111.47v2.7l-31.58-12.89a2.74,2.74,0,0,0-1-.2,2.65,2.65,0,0,0-2.65,2.65v33.66a2,2,0,1,1,.86,3.8,1.89,1.89,0,0,1-.47-.06,2.23,2.23,0,0,1-.39-.13v23.4a2.63,2.63,0,0,0,1.65,2.45l66.67,27.21a2.73,2.73,0,0,0,1,.19,2.65,2.65,0,0,0,2.64-2.65V130.93a2.66,2.66,0,0,0-1.64-2.45l-33.59-13.7V28.28H273a.75.75,0,0,0,0-1.5h-64.5a.75.75,0,0,0,0,1.5h31.92v83.19Zm-25.73,29.8a2,2,0,0,1-1.94,1.54,1.84,1.84,0,0,1-.47-.06,2,2,0,1,1,2.41-1.48Zm6.7,1.62a2,2,0,0,1-1.94,1.53,2.42,2.42,0,0,1-.47,0,2,2,0,1,1,2.41-1.48Zm6.7,1.62a2,2,0,0,1-1.94,1.53,2,2,0,0,1-.48-.06,2,2,0,1,1,2.42-1.47Zm6.7,1.61a2,2,0,0,1-1.95,1.53,1.93,1.93,0,0,1-.47-.05,2,2,0,1,1,2.42-1.48Zm10,2.41c0,2.68-1.72,4.44-3.83,3.94s-3.83-3.08-3.83-5.75,1.71-4.45,3.83-3.95S244.81,145.85,244.81,148.53Z"/><path class="cls-15" d="M304.19,111.76v2.7l-32.3-13.18a2.84,2.84,0,0,0-1-.2,2.65,2.65,0,0,0-2.64,2.65v19.09l8.2,3.35a5.11,5.11,0,0,1,3.2,4.76V191.6a5.13,5.13,0,0,1-2.08,4.12l59,24.06a2.55,2.55,0,0,0,1,.2,2.65,2.65,0,0,0,2.65-2.65v-86.4a2.65,2.65,0,0,0-1.65-2.45l-32.86-13.41V57.9h31.08a.75.75,0,0,0,0-1.5H272.26a.75.75,0,0,0,0,1.5h31.93v53.86ZM284.05,158a2,2,0,0,1-1.94,1.53,1.84,1.84,0,0,1-.47-.06,2,2,0,1,1,2.41-1.47Zm6.93,1.67a2,2,0,0,1-1.94,1.53,2.61,2.61,0,0,1-.48-.05,2,2,0,1,1,2.42-1.48Zm6.93,1.68a2,2,0,0,1-1.94,1.53,2,2,0,0,1-.48-.06,2,2,0,1,1,2.42-1.47Zm10.3,2.5c0,2.68-1.72,4.45-3.83,3.95s-3.83-3.08-3.83-5.76,1.71-4.45,3.83-4S308.21,161.15,308.21,163.83Z"/><path class="cls-16" d="M429.59,111.47v2.7L398,101.28a2.84,2.84,0,0,0-1-.2,2.65,2.65,0,0,0-2.64,2.65v19.09l8.2,3.35a5.11,5.11,0,0,1,3.2,4.76v54.41h0a2,2,0,0,1,0,3.89v53.83a5.11,5.11,0,0,1-2.08,4.11l59,24.07a2.55,2.55,0,0,0,1,.2,2.65,2.65,0,0,0,2.65-2.65V130.93a2.65,2.65,0,0,0-1.65-2.45l-33.57-13.7V57.9h31.08a.75.75,0,1,0,0-1.5H397.66a.75.75,0,0,0,0,1.5h31.93v53.57Zm-16.08,77.79a2,2,0,0,1-1.94,1.53,2.61,2.61,0,0,1-.48,0,2,2,0,1,1,2.42-1.48Zm6.26,1.51a2,2,0,0,1-1.95,1.53,2.59,2.59,0,0,1-.47-.05,2,2,0,1,1,2.42-1.48Zm6.25,1.51a2,2,0,0,1-1.94,1.53,1.88,1.88,0,0,1-.47-.05,2,2,0,1,1,2.41-1.48Zm8.15,1.95c0,2.68-1.72,4.45-3.83,4s-3.83-3.08-3.83-5.76,1.71-4.45,3.83-3.95S434.17,191.55,434.17,194.23Z"/><path class="cls-17" d="M367.14,111.72v2.7l-32.2-13.14a2.74,2.74,0,0,0-1-.2,2.65,2.65,0,0,0-2.65,2.65v19.09l8.21,3.35a5.12,5.12,0,0,1,3.2,4.76v86.4a5.16,5.16,0,0,1-2.08,4.12l59,24.06a2.55,2.55,0,0,0,1,.2,2.65,2.65,0,0,0,2.64-2.65V130.93a2.66,2.66,0,0,0-1.64-2.45l-33-13.45V28.28h38.29a.75.75,0,0,0,0-1.5H328a.75.75,0,0,0,0,1.5h39.15v83.44ZM347,173a2,2,0,0,1-1.94,1.54,2.59,2.59,0,0,1-.47,0A2,2,0,1,1,347,173Zm6.86,1.64a2,2,0,0,1-1.94,1.53,1.88,1.88,0,0,1-.47,0,2,2,0,1,1,2.41-1.48Zm6.86,1.63a2,2,0,0,1-1.94,1.54,1.89,1.89,0,0,1-.47-.06,2,2,0,1,1,2.41-1.48Zm11,2.86c0,2.68-1.72,4.44-3.83,3.94a5.5,5.5,0,0,1-3.62-4.18l0,0a3.76,3.76,0,0,1-.25-.31,2.21,2.21,0,0,1-.18-.34,1.66,1.66,0,0,1-.11-.38,1.72,1.72,0,0,1,0-.39,2,2,0,0,1,.55-1.37c.45-1.95,1.91-3.12,3.68-2.7C370,173.9,371.72,176.48,371.72,179.16Z"/><path class="cls-18" d="M494,112v2.7l-33-13.45a2.74,2.74,0,0,0-1-.2,2.65,2.65,0,0,0-2.65,2.65v19.09l8.21,3.35a5.12,5.12,0,0,1,3.2,4.76v69.64a2,2,0,0,1,0,3.26v65a5.14,5.14,0,0,1-2.08,4.11l59,24.07a2.64,2.64,0,0,0,3.65-2.45V130.93a2.65,2.65,0,0,0-1.65-2.45l-32.2-13.14V28.28h27.76a.75.75,0,0,0,0-1.5H465.4a.75.75,0,0,0,0,1.5H494V112Zm-18,92.24a2,2,0,0,1-1.94,1.52,2,2,0,0,1-.48-.06,2,2,0,1,1,2.42-1.46Zm6.43,1.58a2,2,0,0,1-1.93,1.52,2.12,2.12,0,0,1-.49-.06,2,2,0,1,1,2.42-1.46Zm6.43,1.58A2,2,0,0,1,487,209a2,2,0,0,1-.48-.06,2,2,0,1,1,2.42-1.47Zm9.28,2.25c0,2.68-1.72,4.44-3.83,3.94s-3.83-3.08-3.83-5.76,1.71-4.44,3.83-3.94S498.17,207,498.17,209.68Z"/><path class="cls-3" d="M587.7,222.45a2,2,0,0,0-3.42,2.08l4.3,7.05-7.06,4.3a2,2,0,0,0,1.05,3.71,2.1,2.1,0,0,0,1-.29l8.76-5.34a2,2,0,0,0,.66-2.75Z"/><circle class="cls-19" cx="602.33" cy="186.62" r="2.67"/><path class="cls-20" d="M614.85,181.1a1.76,1.76,0,0,0-1.6,1.25l-3,8.16a1.25,1.25,0,0,0-.1.49,1.08,1.08,0,0,0,1.11,1.05,1,1,0,0,0,1.08-.79l.45-1.4h4.17l.45,1.41a1,1,0,0,0,1.09.78,1,1,0,0,0,1-1,1.75,1.75,0,0,0-.12-.55l-2.94-8.16A1.71,1.71,0,0,0,614.85,181.1Zm-1.44,6.69,1.43-4.35h0l1.39,4.35Z"/><path class="cls-20" d="M623.82,185.78c.69,0,1.17.42,1.71.42s.83-.58.83-1c0-1-1.79-1.37-2.64-1.37a4,4,0,0,0-3.87,4.19,3.92,3.92,0,0,0,3.87,4.15c.78,0,2.64-.37,2.64-1.48a1,1,0,0,0-.93-.95,12.19,12.19,0,0,1-1.61.45A2,2,0,0,1,622,188C622,186.88,622.59,185.78,623.82,185.78Z"/><path class="cls-20" d="M633.3,190.66a1,1,0,0,0-.93-.95,11.56,11.56,0,0,1-1.6.45A2,2,0,0,1,629,188c0-1.11.59-2.21,1.82-2.21.69,0,1.17.42,1.71.42s.82-.58.82-1c0-1-1.78-1.37-2.64-1.37a4,4,0,0,0-3.87,4.19,3.93,3.93,0,0,0,3.87,4.15C631.44,192.14,633.3,191.77,633.3,190.66Z"/><path class="cls-20" d="M635.1,180.65a1.24,1.24,0,0,0-1.21,1.19,1.26,1.26,0,0,0,1.21,1.24,1.22,1.22,0,1,0,0-2.43Z"/><path class="cls-20" d="M635.1,183.89a1.09,1.09,0,0,0-1.08,1.2v5.76a1.09,1.09,0,1,0,2.16,0v-5.76A1.09,1.09,0,0,0,635.1,183.89Z"/><path class="cls-20" d="M643.68,180.41a1.09,1.09,0,0,0-1.08,1.2v2.94a3.14,3.14,0,0,0-2.05-.75c-2.33,0-3.48,2.18-3.48,4.28s1.38,4.06,3.55,4.06a2.34,2.34,0,0,0,2-1,1,1,0,0,0,1.08.9,1.09,1.09,0,0,0,1.08-1.2v-9.24A1.09,1.09,0,0,0,643.68,180.41Zm-2.77,9.75c-1.13,0-1.68-1.17-1.68-2.17s.55-2.21,1.68-2.21,1.69,1.08,1.69,2.13S642.09,190.16,640.91,190.16Z"/><path class="cls-20" d="M653.28,187.73a3.88,3.88,0,1,0-7.75.26,3.93,3.93,0,0,0,4.05,4.15c1.6,0,3.52-.9,3.52-1.83a1,1,0,0,0-.88-.93c-.57,0-1.34.87-2.45.87a1.87,1.87,0,0,1-2-1.56h4.61C653,188.69,653.28,188.38,653.28,187.73Zm-5.59-.48a1.74,1.74,0,0,1,1.71-1.65,1.71,1.71,0,0,1,1.72,1.65Z"/><path class="cls-20" d="M661.16,190.85v-4.14a2.77,2.77,0,0,0-3-2.91,2.32,2.32,0,0,0-2.08.89.92.92,0,0,0-1-.8,1.09,1.09,0,0,0-1.08,1.2v5.76a1.09,1.09,0,1,0,2.16,0v-3.76a1.4,1.4,0,1,1,2.79,0v3.76a1.09,1.09,0,1,0,2.16,0Z"/><path class="cls-20" d="M664,181.49a1.09,1.09,0,0,0-1.08,1.2V184h-.48a.92.92,0,0,0-.94,1,.87.87,0,0,0,.94.94h.48v5a1.09,1.09,0,1,0,2.16,0v-5h.62a.95.95,0,1,0,0-1.89h-.62v-1.29A1.09,1.09,0,0,0,664,181.49Z"/><path class="cls-20" d="M674.12,187.73a3.89,3.89,0,1,0-7.76.26,3.93,3.93,0,0,0,4,4.15c1.61,0,3.53-.9,3.53-1.83a1,1,0,0,0-.89-.93c-.57,0-1.33.87-2.44.87a1.86,1.86,0,0,1-2-1.56h4.6C673.83,188.69,674.12,188.38,674.12,187.73Zm-5.6-.48a1.75,1.75,0,0,1,1.71-1.65,1.71,1.71,0,0,1,1.73,1.65Z"/><path class="cls-20" d="M674.69,186.32c0,2.48,3.75,2.33,3.75,3.32,0,.4-.2.61-.86.61-1,0-1.39-.73-2.23-.73a1,1,0,0,0-.93,1c0,1,1.8,1.66,3,1.66,1.86,0,3.08-1.09,3.08-2.53,0-2.46-3.75-2.31-3.75-3.32,0-.42.34-.6.73-.6.71,0,1.53.63,1.94.63a.93.93,0,0,0,.88-1c0-1.06-1.63-1.56-2.7-1.56C675.9,183.8,674.69,184.82,674.69,186.32Z"/><circle class="cls-19" cx="602.33" cy="203.62" r="2.67"/><path class="cls-20" d="M611.24,209.05a1,1,0,0,0,1.08-.79l.45-1.4h4.17l.45,1.41a1,1,0,0,0,1.09.78,1,1,0,0,0,1-1,1.75,1.75,0,0,0-.12-.55l-2.94-8.16a1.71,1.71,0,0,0-1.61-1.25,1.76,1.76,0,0,0-1.6,1.25l-3,8.16a1.25,1.25,0,0,0-.1.49A1.08,1.08,0,0,0,611.24,209.05Zm3.6-8.61h0l1.39,4.35h-2.85Z"/><path class="cls-20" d="M624.38,200.8a2.41,2.41,0,0,0-2.06,1,1,1,0,0,0-1.08-.9,1.09,1.09,0,0,0-1.08,1.2V211a1.09,1.09,0,1,0,2.16,0v-2.64a3.06,3.06,0,0,0,2,.75,3.82,3.82,0,0,0,3.56-4.06C627.86,203,626.7,200.8,624.38,200.8Zm-.36,6.36c-1.19,0-1.7-1.2-1.7-2.25s.54-2.13,1.7-2.13S625.7,204,625.7,205,625.14,207.16,624,207.16Z"/><path class="cls-20" d="M629.82,209.05a1.09,1.09,0,0,0,1.08-1.2v-3.31c0-.86.66-1.14,1.31-1.44s1.29-.35,1.29-1a1.06,1.06,0,0,0-1-1.16,1.71,1.71,0,0,0-1.52.9h0c0-.69-.48-.9-1-.9a1.06,1.06,0,0,0-1.11,1.08v5.88A1.09,1.09,0,0,0,629.82,209.05Z"/><path class="cls-20" d="M637.08,209.14c1.61,0,3.53-.9,3.53-1.83a1,1,0,0,0-.89-.93c-.57,0-1.33.87-2.44.87a1.86,1.86,0,0,1-2-1.56h4.6c.66,0,.95-.31.95-1A3.89,3.89,0,1,0,633,205,3.93,3.93,0,0,0,637.08,209.14Zm-.18-6.54a1.71,1.71,0,0,1,1.73,1.65h-3.44A1.75,1.75,0,0,1,636.9,202.6Z"/><path class="cls-20" d="M646.5,204.09v3.76a1.09,1.09,0,1,0,2.16,0v-4.14a2.77,2.77,0,0,0-2.95-2.91,2.34,2.34,0,0,0-2.09.89.9.9,0,0,0-1-.8,1.09,1.09,0,0,0-1.08,1.2v5.76a1.09,1.09,0,1,0,2.16,0v-3.76a1.4,1.4,0,1,1,2.79,0Z"/><path class="cls-20" d="M656.19,209.05a1.09,1.09,0,0,0,1.08-1.2v-9.24a1.09,1.09,0,1,0-2.16,0v2.94a3.14,3.14,0,0,0-2.05-.75c-2.33,0-3.48,2.18-3.48,4.28s1.38,4.06,3.55,4.06a2.34,2.34,0,0,0,2-1A1,1,0,0,0,656.19,209.05Zm-2.77-1.89c-1.13,0-1.68-1.17-1.68-2.17s.55-2.21,1.68-2.21,1.69,1.08,1.69,2.13S654.6,207.16,653.42,207.16Z"/><path class="cls-20" d="M659.55,197.65a1.24,1.24,0,0,0-1.21,1.19,1.26,1.26,0,0,0,1.21,1.24,1.22,1.22,0,1,0,0-2.43Z"/><path class="cls-20" d="M659.55,200.89a1.09,1.09,0,0,0-1.08,1.2v5.76a1.09,1.09,0,1,0,2.16,0v-5.76A1.09,1.09,0,0,0,659.55,200.89Z"/><path class="cls-20" d="M668.27,208a.92.92,0,0,0-1-1h-2.85l3.41-4.77a.93.93,0,0,0,.22-.64.66.66,0,0,0-.7-.68h-4.91a.95.95,0,1,0,0,1.89H665l-3.39,4.77a1.14,1.14,0,0,0-.2.59c0,.49.41.73.89.73h5A.91.91,0,0,0,668.27,208Z"/><path class="cls-20" d="M674.36,208.14c.15.57.4.91,1,.91,1,0,1-.85,1-1.41V202.3c0-.55,0-1.41-1-1.41a1,1,0,0,0-1,.9,2.48,2.48,0,0,0-2.06-1c-2,0-3.57,1.82-3.57,4.19s1.55,4.15,3.57,4.15A2.59,2.59,0,0,0,674.36,208.14ZM670.89,205c0-1,.53-2.21,1.71-2.21s1.67,1.17,1.67,2.21-.54,2.17-1.67,2.17S670.89,206,670.89,205Z"/><path class="cls-20" d="M678.71,197.65a1.25,1.25,0,0,0-1.22,1.19,1.26,1.26,0,0,0,1.22,1.24,1.22,1.22,0,0,0,0-2.43Z"/><path class="cls-20" d="M678.71,200.89a1.09,1.09,0,0,0-1.08,1.2V211a1.09,1.09,0,1,0,2.16,0v-8.94A1.09,1.09,0,0,0,678.71,200.89Z"/><path class="cls-20" d="M688.1,207.31a1,1,0,0,0-.89-.93c-.57,0-1.33.87-2.44.87a1.86,1.86,0,0,1-2-1.56h4.6c.66,0,.95-.31.95-1a3.89,3.89,0,1,0-7.76.26,3.93,3.93,0,0,0,4.05,4.15C686.18,209.14,688.1,208.24,688.1,207.31Zm-3.71-4.71a1.71,1.71,0,0,1,1.73,1.65h-3.44A1.75,1.75,0,0,1,684.39,202.6Z"/><path class="cls-20" d="M690.92,203.29c0-.42.34-.6.73-.6.71,0,1.53.63,1.94.63a.93.93,0,0,0,.88-1c0-1.06-1.63-1.56-2.7-1.56-1.71,0-2.92,1-2.92,2.52,0,2.48,3.75,2.33,3.75,3.32,0,.4-.2.61-.86.61-1,0-1.39-.73-2.23-.73a1,1,0,0,0-.93,1c0,1,1.8,1.66,3,1.66,1.86,0,3.08-1.09,3.08-2.53C694.67,204.15,690.92,204.3,690.92,203.29Z"/><circle class="cls-19" cx="602.33" cy="220.62" r="2.67"/><path class="cls-20" d="M615.51,226.14c1.11,0,3.38-.33,3.38-1.77a1.06,1.06,0,0,0-1-1c-.62,0-1.13.63-2.39.63-1.84,0-2.82-1.53-2.82-3.31s1-3.41,2.82-3.41c1.26,0,1.68.53,2.3.53a1,1,0,0,0,.93-1c0-1.32-2.13-1.68-3.23-1.68-3.06,0-5.16,2.4-5.16,5.52A5.19,5.19,0,0,0,615.51,226.14Z"/><path class="cls-20" d="M625.19,225.14c.15.57.4.91,1,.91,1,0,1-.85,1-1.41V219.3c0-.55,0-1.41-1-1.41a1,1,0,0,0-1,.9,2.48,2.48,0,0,0-2.06-1c-2,0-3.57,1.82-3.57,4.19s1.55,4.15,3.57,4.15A2.59,2.59,0,0,0,625.19,225.14ZM621.72,222c0-1,.53-2.21,1.71-2.21S625.1,221,625.1,222s-.54,2.17-1.67,2.17S621.72,223,621.72,222Z"/><path class="cls-20" d="M632.7,217.8a2.38,2.38,0,0,0-2.05,1,1,1,0,0,0-1.08-.9,1.09,1.09,0,0,0-1.08,1.2V228a1.09,1.09,0,1,0,2.16,0v-2.64a3,3,0,0,0,2,.75c2.17,0,3.55-2,3.55-4.06S635,217.8,632.7,217.8Zm-.36,6.36c-1.18,0-1.69-1.2-1.69-2.25s.54-2.13,1.69-2.13S634,221,634,222,633.47,224.16,632.34,224.16Z"/><path class="cls-20" d="M640.35,226.14a2.59,2.59,0,0,0,2.06-1c.15.57.4.91,1,.91,1,0,1-.85,1-1.41V219.3c0-.55,0-1.41-1-1.41a1,1,0,0,0-1,.9,2.48,2.48,0,0,0-2.06-1c-2,0-3.57,1.82-3.57,4.19S638.33,226.14,640.35,226.14Zm.3-6.36c1.14,0,1.67,1.17,1.67,2.21s-.54,2.17-1.67,2.17-1.71-1.14-1.71-2.17S639.47,219.78,640.65,219.78Z"/><path class="cls-20" d="M649.37,219.78c.69,0,1.17.42,1.71.42s.82-.58.82-1c0-1-1.78-1.37-2.64-1.37a4,4,0,0,0-3.87,4.19,3.93,3.93,0,0,0,3.87,4.15c.78,0,2.64-.37,2.64-1.48a1,1,0,0,0-.93-.95,11.56,11.56,0,0,1-1.6.45,2,2,0,0,1-1.82-2.17C647.55,220.88,648.14,219.78,649.37,219.78Z"/><path class="cls-20" d="M653.7,214.65a1.24,1.24,0,0,0-1.21,1.19,1.26,1.26,0,0,0,1.21,1.24,1.22,1.22,0,1,0,0-2.43Z"/><path class="cls-20" d="M653.7,217.89a1.09,1.09,0,0,0-1.08,1.2v5.76a1.09,1.09,0,1,0,2.16,0v-5.76A1.09,1.09,0,0,0,653.7,217.89Z"/><path class="cls-20" d="M659.22,226.14a2.34,2.34,0,0,0,2-1,1,1,0,0,0,1.08.9,1.09,1.09,0,0,0,1.08-1.2v-9.24a1.09,1.09,0,1,0-2.16,0v2.94a3.14,3.14,0,0,0-2.05-.75c-2.33,0-3.48,2.18-3.48,4.28S657.05,226.14,659.22,226.14Zm.29-6.36c1.15,0,1.69,1.08,1.69,2.13s-.51,2.25-1.69,2.25-1.68-1.17-1.68-2.17S658.38,219.78,659.51,219.78Z"/><path class="cls-20" d="M667.85,226.14a2.57,2.57,0,0,0,2-1c.15.57.41.91,1,.91,1,0,1-.85,1-1.41V219.3c0-.55,0-1.41-1-1.41a1,1,0,0,0-1,.9,2.48,2.48,0,0,0-2-1c-2,0-3.57,1.82-3.57,4.19S665.82,226.14,667.85,226.14Zm.3-6.36c1.14,0,1.66,1.17,1.66,2.21s-.54,2.17-1.66,2.17-1.71-1.14-1.71-2.17S667,219.78,668.15,219.78Z"/><path class="cls-20" d="M679.5,214.41a1.09,1.09,0,0,0-1.08,1.2v2.94a3.14,3.14,0,0,0-2-.75c-2.33,0-3.48,2.18-3.48,4.28s1.38,4.06,3.55,4.06a2.34,2.34,0,0,0,2-1,1,1,0,0,0,1.08.9,1.09,1.09,0,0,0,1.08-1.2v-9.24A1.09,1.09,0,0,0,679.5,214.41Zm-2.77,9.75c-1.13,0-1.68-1.17-1.68-2.17s.55-2.21,1.68-2.21,1.69,1.08,1.69,2.13S677.91,224.16,676.73,224.16Z"/><path class="cls-20" d="M692.13,214.41a1.09,1.09,0,0,0-1.08,1.2v2.94a3.14,3.14,0,0,0-2-.75c-2.33,0-3.49,2.18-3.49,4.28a3.82,3.82,0,0,0,3.56,4.06,2.36,2.36,0,0,0,2-1,1,1,0,0,0,1.08.9,1.09,1.09,0,0,0,1.08-1.2v-9.24A1.09,1.09,0,0,0,692.13,214.41Zm-2.78,9.75c-1.12,0-1.68-1.17-1.68-2.17s.56-2.21,1.68-2.21,1.7,1.08,1.7,2.13S690.54,224.16,689.35,224.16Z"/><path class="cls-20" d="M700.66,223.38c-.57,0-1.33.87-2.44.87a1.86,1.86,0,0,1-2-1.56h4.6c.66,0,1-.31,1-1A3.89,3.89,0,1,0,694,222a3.93,3.93,0,0,0,4,4.15c1.61,0,3.53-.9,3.53-1.83A1,1,0,0,0,700.66,223.38Zm-2.82-3.78a1.71,1.71,0,0,1,1.73,1.65h-3.44A1.75,1.75,0,0,1,697.84,219.6Z"/><path class="cls-20" d="M611,235.54c0-.86.66-1.14,1.31-1.44s1.29-.35,1.29-1a1.06,1.06,0,0,0-1-1.16,1.71,1.71,0,0,0-1.52.9h0c0-.69-.48-.9-1-.9a1.06,1.06,0,0,0-1.11,1.08v5.88a1.09,1.09,0,1,0,2.16,0Z"/><path class="cls-20" d="M620.93,235.73a3.89,3.89,0,1,0-7.76.26,3.93,3.93,0,0,0,4.05,4.15c1.61,0,3.53-.9,3.53-1.83a1,1,0,0,0-.89-.93c-.57,0-1.33.87-2.44.87a1.86,1.86,0,0,1-2-1.56H620C620.64,236.69,620.93,236.38,620.93,235.73Zm-5.6-.48A1.75,1.75,0,0,1,617,233.6a1.71,1.71,0,0,1,1.73,1.65Z"/><path class="cls-20" d="M623.57,234.29c0-.42.34-.6.73-.6.71,0,1.53.63,1.94.63a.93.93,0,0,0,.88-1c0-1.06-1.63-1.56-2.7-1.56-1.71,0-2.92,1-2.92,2.52,0,2.48,3.75,2.33,3.75,3.32,0,.4-.2.61-.86.61-1,0-1.39-.73-2.23-.73a1,1,0,0,0-.93,1c0,1,1.8,1.66,3,1.66,1.86,0,3.08-1.09,3.08-2.53C627.32,235.15,623.57,235.3,623.57,234.29Z"/><path class="cls-20" d="M632.3,231.8a2.41,2.41,0,0,0-2.06,1,1,1,0,0,0-1.08-.9,1.09,1.09,0,0,0-1.08,1.2V242a1.09,1.09,0,1,0,2.16,0v-2.64a3.06,3.06,0,0,0,2,.75,3.82,3.82,0,0,0,3.56-4.06C635.78,234,634.62,231.8,632.3,231.8Zm-.36,6.36c-1.19,0-1.7-1.2-1.7-2.25s.54-2.13,1.7-2.13,1.68,1.19,1.68,2.21S633.06,238.16,631.94,238.16Z"/><path class="cls-20" d="M643.8,233.09a1.09,1.09,0,1,0-2.16,0V237a1.4,1.4,0,0,1-2.79,0v-3.86a1.09,1.09,0,1,0-2.16,0V237c0,1.92,1.28,3.15,3.56,3.15s3.55-1.23,3.55-3.15Z"/><path class="cls-20" d="M652.32,235.73a3.88,3.88,0,1,0-7.75.26,3.93,3.93,0,0,0,4,4.15c1.6,0,3.52-.9,3.52-1.83a1,1,0,0,0-.88-.93c-.57,0-1.34.87-2.45.87a1.87,1.87,0,0,1-2-1.56h4.61C652,236.69,652.32,236.38,652.32,235.73Zm-5.59-.48a1.74,1.74,0,0,1,1.71-1.65,1.71,1.71,0,0,1,1.72,1.65Z"/><path class="cls-20" d="M655,234.29c0-.42.35-.6.74-.6.7,0,1.53.63,1.93.63a.93.93,0,0,0,.89-1c0-1.06-1.64-1.56-2.7-1.56-1.71,0-2.93,1-2.93,2.52,0,2.48,3.75,2.33,3.75,3.32,0,.4-.19.61-.85.61-1,0-1.4-.73-2.24-.73a1,1,0,0,0-.93,1c0,1,1.8,1.66,3,1.66,1.86,0,3.07-1.09,3.07-2.53C658.71,235.15,655,235.3,655,234.29Z"/><path class="cls-20" d="M660,238.85a1.09,1.09,0,1,0,2.16,0v-5h.62a.95.95,0,1,0,0-1.89h-.62v-1.29a1.09,1.09,0,1,0-2.16,0V232h-.48a.92.92,0,0,0-.94,1,.87.87,0,0,0,.94.94H660Z"/><path class="cls-20" d="M671.3,238.64V233.3c0-.55,0-1.41-1-1.41a1,1,0,0,0-1,.9,2.48,2.48,0,0,0-2.06-1c-2,0-3.57,1.82-3.57,4.19s1.55,4.15,3.57,4.15a2.59,2.59,0,0,0,2.06-1c.15.57.4.91,1,.91C671.3,240.05,671.3,239.2,671.3,238.64Zm-3.83-.48c-1.17,0-1.71-1.14-1.71-2.17s.53-2.21,1.71-2.21,1.67,1.17,1.67,2.21S668.6,238.16,667.47,238.16Z"/><circle class="cls-19" cx="602.33" cy="251.62" r="2.67"/><path class="cls-20" d="M615.53,252.51a2.91,2.91,0,0,0,2.77-2.84c0-2.35-1.42-3.39-3.73-3.39h-2.64a1.07,1.07,0,0,0-1.16,1.17v8.43a1.13,1.13,0,1,0,2.25,0v-3.25h0l3.33,4a1.14,1.14,0,0,0,2-.76,1,1,0,0,0-.3-.66ZM613,251v-2.66h1.55a1.26,1.26,0,0,1,1.39,1.32,1.28,1.28,0,0,1-1.39,1.34Z"/><path class="cls-20" d="M626.34,252.73a3.88,3.88,0,1,0-7.75.26,3.93,3.93,0,0,0,4,4.15c1.6,0,3.52-.9,3.52-1.83a1,1,0,0,0-.88-.93c-.57,0-1.34.87-2.45.87a1.87,1.87,0,0,1-2-1.56h4.61C626.06,253.69,626.34,253.38,626.34,252.73Zm-5.59-.48a1.74,1.74,0,0,1,1.71-1.65,1.71,1.71,0,0,1,1.72,1.65Z"/><path class="cls-20" d="M629,251.29c0-.42.35-.6.74-.6.7,0,1.53.63,1.93.63a.93.93,0,0,0,.89-1c0-1.06-1.64-1.56-2.7-1.56-1.71,0-2.93,1-2.93,2.52,0,2.48,3.75,2.33,3.75,3.32,0,.4-.19.61-.85.61-1,0-1.4-.73-2.24-.73a1,1,0,0,0-.93,1c0,1,1.8,1.66,3,1.66,1.86,0,3.07-1.09,3.07-2.53C632.73,252.15,629,252.3,629,251.29Z"/><path class="cls-20" d="M634.55,248.89a1.09,1.09,0,0,0-1.08,1.2v5.76a1.09,1.09,0,1,0,2.16,0v-5.76A1.09,1.09,0,0,0,634.55,248.89Z"/><path class="cls-20" d="M634.55,245.65a1.25,1.25,0,0,0-1.22,1.19,1.26,1.26,0,0,0,1.22,1.24,1.22,1.22,0,0,0,0-2.43Z"/><path class="cls-20" d="M637.88,245.41a1.09,1.09,0,0,0-1.08,1.2v9.24a1.09,1.09,0,1,0,2.16,0v-9.24A1.09,1.09,0,0,0,637.88,245.41Z"/><path class="cls-20" d="M641.21,248.89a1.09,1.09,0,0,0-1.08,1.2v5.76a1.09,1.09,0,1,0,2.16,0v-5.76A1.09,1.09,0,0,0,641.21,248.89Z"/><path class="cls-20" d="M641.21,245.65a1.25,1.25,0,0,0-1.22,1.19,1.26,1.26,0,0,0,1.22,1.24,1.22,1.22,0,0,0,0-2.43Z"/><path class="cls-20" d="M650.78,252.73A3.89,3.89,0,1,0,643,253a3.93,3.93,0,0,0,4.05,4.15c1.61,0,3.53-.9,3.53-1.83a1,1,0,0,0-.89-.93c-.57,0-1.33.87-2.44.87a1.86,1.86,0,0,1-2-1.56h4.6C650.49,253.69,650.78,253.38,650.78,252.73Zm-5.6-.48a1.75,1.75,0,0,1,1.71-1.65,1.71,1.71,0,0,1,1.73,1.65Z"/><path class="cls-20" d="M655.7,248.8a2.34,2.34,0,0,0-2.09.89.9.9,0,0,0-1-.8,1.09,1.09,0,0,0-1.08,1.2v5.76a1.09,1.09,0,1,0,2.16,0v-3.76a1.4,1.4,0,1,1,2.79,0v3.76a1.09,1.09,0,1,0,2.16,0v-4.14A2.77,2.77,0,0,0,655.7,248.8Z"/><path class="cls-20" d="M663.54,250.78c.69,0,1.17.42,1.71.42s.83-.58.83-1c0-1-1.79-1.37-2.64-1.37a4,4,0,0,0-3.87,4.19,3.92,3.92,0,0,0,3.87,4.15c.78,0,2.64-.37,2.64-1.48a1,1,0,0,0-.93-.95,12.19,12.19,0,0,1-1.61.45,2,2,0,0,1-1.81-2.17C661.73,251.88,662.31,250.78,663.54,250.78Z"/><path class="cls-20" d="M667.88,248.89a1.09,1.09,0,0,0-1.08,1.2v5.76a1.09,1.09,0,1,0,2.16,0v-5.76A1.09,1.09,0,0,0,667.88,248.89Z"/><path class="cls-20" d="M667.88,245.65a1.25,1.25,0,0,0-1.22,1.19,1.26,1.26,0,0,0,1.22,1.24,1.22,1.22,0,0,0,0-2.43Z"/><path class="cls-20" d="M676.5,248.89a1,1,0,0,0-1,.9,2.48,2.48,0,0,0-2.06-1c-2,0-3.57,1.82-3.57,4.19s1.55,4.15,3.57,4.15a2.59,2.59,0,0,0,2.06-1c.15.57.4.91,1,.91,1,0,1-.85,1-1.41V250.3C677.54,249.75,677.54,248.89,676.5,248.89Zm-2.79,6.27c-1.17,0-1.71-1.14-1.71-2.17s.53-2.21,1.71-2.21,1.67,1.17,1.67,2.21S674.84,255.16,673.71,255.16Z"/></g></g></svg>