<svg xmlns="http://www.w3.org/2000/svg" viewBox="0 0 377.98 328.79"><defs><style>.cls-1{fill:#fff;stroke:#00953a;stroke-miterlimit:10;stroke-width:2px;}.cls-2{fill:#00953a;}</style></defs><title>ventana texto</title><g id="Capa_1" data-name="Capa 1"><rect class="cls-1" x="1" y="13.88" width="375.98" height="313.91" rx="9.3" ry="9.3"/><path class="cls-2" d="M99.36,2.71H33.11a1,1,0,0,1,0-2H99.36a1,1,0,1,1,0,2Z"/><path class="cls-2" d="M39.48,7.35H15.91a1,1,0,1,1,0-2H39.48a1,1,0,0,1,0,2Z"/><path class="cls-2" d="M21.76,2H15.91a1,1,0,1,1,0-2h5.85a1,1,0,0,1,0,2Z"/><path class="cls-2" d="M8,9.08H4.72a1,1,0,1,1,0-2H8a1,1,0,0,1,0,2Z"/></g></svg>