<svg xmlns="http://www.w3.org/2000/svg" viewBox="0 0 77.65 62.71"><defs><style>.cls-1{fill:#198780;}.cls-2{fill:#b5e0f2;}.cls-3{fill:#74baa2;}.cls-4,.cls-5,.cls-6,.cls-7{fill:none;stroke:#fff;stroke-miterlimit:10;}.cls-4{stroke-width:1.11px;}.cls-5,.cls-6{stroke-linecap:round;}.cls-5{stroke-width:0.7px;}.cls-6{stroke-width:0.76px;}.cls-7{stroke-width:1.01px;}.cls-8{fill:#a6bc6d;}.cls-9{fill:#fff;}</style></defs><title>Vulnerabilidad economica</title><g id="Capa_1" data-name="Capa 1"><path class="cls-1" d="M5.08,35.42c-1.6.05-1.39-1.67-.06-1.87a5.58,5.58,0,0,1,2.88.62,16.42,16.42,0,0,1-1.22-1.86,5,5,0,0,1-1.75-2.44c-.43-1.55,1.3-1.75,1.81-.5a5.38,5.38,0,0,1,.1,2.8,15.32,15.32,0,0,0,.91,1.43A5.1,5.1,0,0,1,8,31.05c.54-1.23,2.26-1,1.79.55A5,5,0,0,1,8,34a25.21,25.21,0,0,0,1.61,2,5.13,5.13,0,0,1,.2-2.58c.54-1.23,2.26-1,1.79.55a5,5,0,0,1-1.72,2.33,24.32,24.32,0,0,0,2,1.87A5.38,5.38,0,0,1,12,35.29c.54-1.23,2.26-1,1.79.55A5,5,0,0,1,12,38.22,19.64,19.64,0,0,0,14.57,40a5.57,5.57,0,0,1,.14-2.94c.54-1.23,2.26-1,1.79.55a5.05,5.05,0,0,1-1.86,2.44,14.79,14.79,0,0,0,3,1.33,5.65,5.65,0,0,1,.13-3c.54-1.23,2.26-1,1.79.55a5.07,5.07,0,0,1-1.89,2.45,12,12,0,0,0,2,.45.1.1,0,0,1,0,.2h0a12.27,12.27,0,0,1-2-.45,5,5,0,0,1-2,2.2c-1.43.73-2-.92-.85-1.67a5.14,5.14,0,0,1,2.52-.66,15.21,15.21,0,0,1-2.57-1.18,5,5,0,0,1-2.45,1.72c-1.55.41-1.74-1.31-.49-1.81a5.11,5.11,0,0,1,2.57-.12,20.09,20.09,0,0,1-2.48-1.78,5.06,5.06,0,0,1-2.5,1.79c-1.55.41-1.74-1.31-.49-1.81a5.52,5.52,0,0,1,2.9-.06c-.44-.37-.84-.74-1.21-1.09s-.52-.51-.76-.77a5.05,5.05,0,0,1-2.5,1.78c-1.55.41-1.73-1.31-.49-1.81a5.5,5.5,0,0,1,2.89-.06v0a25.3,25.3,0,0,1-1.74-2.07,5.07,5.07,0,0,1-2.86,1.19"/><path class="cls-1" d="M8.78,53.52C7.54,53.73,8,55,9,55A4.36,4.36,0,0,0,11.12,54a12.78,12.78,0,0,0-.65,1.61,3.92,3.92,0,0,0-1,2.14C9.42,59,10.77,58.93,11,57.9a4.21,4.21,0,0,0-.35-2.16,12,12,0,0,1,.48-1.23,4,4,0,0,0,.55,1.92c.6.86,1.88.41,1.29-.69a3.89,3.89,0,0,0-1.7-1.53,19.72,19.72,0,0,1,.93-1.75,4,4,0,0,0,.55,1.94c.6.86,1.88.41,1.29-.69a3.87,3.87,0,0,0-1.68-1.52,19,19,0,0,1,1.21-1.73,4.2,4.2,0,0,0,.56,2.11c.6.86,1.88.41,1.29-.69a3.91,3.91,0,0,0-1.74-1.55,15.33,15.33,0,0,1,1.67-1.78,4.35,4.35,0,0,0,.56,2.22c.6.86,1.88.41,1.29-.69a3.94,3.94,0,0,0-1.8-1.58A11.57,11.57,0,0,1,17.44,47,4.41,4.41,0,0,0,18,49.27c.6.86,1.88.41,1.29-.69A4,4,0,0,0,17.47,47a9.37,9.37,0,0,1,1.46-.66.08.08,0,0,0,0-.15h0a9.54,9.54,0,0,0-1.46.65,3.91,3.91,0,0,0-1.9-1.37c-1.21-.34-1.37,1-.4,1.41a4,4,0,0,0,2,.11,11.87,11.87,0,0,0-1.79,1.3,3.91,3.91,0,0,0-2.14-.94c-1.25-.08-1.13,1.27-.09,1.46a4,4,0,0,0,2-.3,15.72,15.72,0,0,0-1.62,1.74,4,4,0,0,0-2.19-1c-1.25-.08-1.13,1.27-.09,1.46a4.3,4.3,0,0,0,2.23-.4c-.28.35-.53.7-.76,1s-.32.47-.46.71a3.94,3.94,0,0,0-2.19-1c-1.25-.08-1.13,1.27-.09,1.46a4.29,4.29,0,0,0,2.22-.4h0a19.79,19.79,0,0,0-1,1.85,4,4,0,0,0-2.37-.47"/><path class="cls-1" d="M19.73,52.6a2,2,0,0,1,1.59,2.47c-.49-.87-1.08-1.26-1.36-.9s.32.51.68.92A1.31,1.31,0,0,1,21,56.15a5,5,0,0,1-1.19,1.55c.22-.86-.1-2.21-.62-1.95s.67,1-.3,2.6a4.73,4.73,0,0,1-1.24.56s.33-1.78-.3-1.64.07,1.08-.41,1.78c-.54,0-2.06.21-2.06.21l-.44-2a2.5,2.5,0,0,1,1.17-.61c.59-.07.51-.48.16-.55a1.78,1.78,0,0,0-1.39.53A3.45,3.45,0,0,1,14.59,55a2.36,2.36,0,0,1,1.82-.77c.32,0,.44-.05.47-.22s-.17-.3-.49-.35a2.33,2.33,0,0,0-1.51.41A4.51,4.51,0,0,1,16,52.51a1.76,1.76,0,0,1,1.45.16c.23.15.55.43.74.21s0-.37-.37-.66a1.61,1.61,0,0,0-.94-.33,2.39,2.39,0,0,1,1.63-.25,1.77,1.77,0,0,1,1.27,1"/><path class="cls-2" d="M20.54,51.64l-.17-.12L19.22,53.1,15,53.73l-.11.23.29,0a2.23,2.23,0,0,1,1.16-.21l.11,0L19,53.34l-.67.92-3.52.53a1.53,1.53,0,0,0-.27.25h0l3.61-.54-.69,1-3.11.47c0,.07,0,.14,0,.21l2.95-.44-.69,1-1.71.26a3.17,3.17,0,0,0-.38.27l1.92-.29-.54.74-1.35.2,0,.21,1.13-.17-.9,1.24,0,.15.13,0L15.95,58l.26,1.13.21,0-.31-1.34.51-.71L17,58.88a1.32,1.32,0,0,0,.09-.56l-.35-1.5.7-1,.67,2.89.2-.08-.71-3,.7-1,.77,3.29a2.32,2.32,0,0,0,.13-.38l-.73-3.13.68-.93.92,3.93.17-.19-.92-4Z"/><path class="cls-1" d="M13,41.45a7.79,7.79,0,0,1,6.6,1.32,7.79,7.79,0,0,1-4.89,4.63c-3.68,1.06-8.43-.79-8.43-.79s3-4.1,6.72-5.16"/><path class="cls-3" d="M16.46,42.58a7.86,7.86,0,0,0-.91-.37A4.06,4.06,0,0,0,14.9,42l-.24,0a5,5,0,0,1,.81.37l.83.48.49.3.12.07-2.26.69h0A7.08,7.08,0,0,0,12.42,43a3.78,3.78,0,0,0-.72-.09h-.27l.26.05a5,5,0,0,1,.68.22,12.11,12.11,0,0,1,1.79.92l-2.24.72,0,0-.2-.12-.39-.21a4.44,4.44,0,0,0-.69-.29,2.54,2.54,0,0,0-.49-.1H9.92l.18,0a3.09,3.09,0,0,1,.47.16,6.17,6.17,0,0,1,.65.34l.37.23.1.06c-1.83.61-3,1-3,1s1.18-.26,3-.72l0,.1-.19.39a6.16,6.16,0,0,1-.37.63,3.07,3.07,0,0,1-.31.39l-.13.13.15-.1a2.53,2.53,0,0,0,.36-.35,4.47,4.47,0,0,0,.43-.61c.07-.12.14-.25.21-.39l.1-.21,0,0,2.29-.58a12.16,12.16,0,0,1-1,1.73,5.07,5.07,0,0,1-.46.54l-.19.18.23-.14a3.75,3.75,0,0,0,.56-.46,7.08,7.08,0,0,0,1.37-2v0l2.28-.62-.06.13-.25.51c-.16.32-.31.61-.45.85a5,5,0,0,1-.49.75l.19-.15a4,4,0,0,0,.46-.48,7.89,7.89,0,0,0,.57-.8c.1-.16.2-.32.3-.5l.24-.45.67-.19c.48-.14.88-.27,1.21-.39.08-.19.12-.3.12-.3l-.26-.19c-.34.07-.75.18-1.23.32l-.67.19L17,42.84l-.52-.26"/><path class="cls-1" d="M6.88,40.21a3,3,0,0,1,1.84,1.87,3,3,0,0,1-2.59.43,6.13,6.13,0,0,1-2.55-2.1,6.13,6.13,0,0,1,3.3-.2"/><path class="cls-3" d="M7.76,41.33A3.11,3.11,0,0,0,7.55,41a1.58,1.58,0,0,0-.17-.19l-.07-.06a2,2,0,0,1,.18.3l.16.34.09.2,0,.05-.88-.27h0a2.76,2.76,0,0,0-.51-.79,1.48,1.48,0,0,0-.21-.19l-.09-.06.07.07a2,2,0,0,1,.17.22,4.75,4.75,0,0,1,.38.69l-.88-.26v0l0-.08-.08-.15a1.73,1.73,0,0,0-.16-.24,1,1,0,0,0-.14-.14l-.06,0,.05.05a1.22,1.22,0,0,1,.11.15,2.43,2.43,0,0,1,.14.25l.07.15,0,0-1.18-.32,1.14.43,0,0-.15.08-.26.12L5,41.43h0l.19,0,.27-.1.15-.08.08,0h0l.86.31a4.73,4.73,0,0,1-.71.34l-.27.08-.1,0h.1a1.48,1.48,0,0,0,.28,0,2.76,2.76,0,0,0,.87-.34h0l.87.3,0,0L7.45,42l-.33.18a2,2,0,0,1-.32.13H6.9l.25-.06.36-.13.2-.1.18-.09.26.08.47.14.1-.07,0-.12-.46-.17L8,41.71l-.09-.18-.11-.2"/><path class="cls-1" d="M4.89,49.51a4.24,4.24,0,0,1,3.65-.28,4.24,4.24,0,0,1-1.88,3.15,8.55,8.55,0,0,1-4.53.83,8.55,8.55,0,0,1,2.76-3.69"/><path class="cls-3" d="M6.88,49.59a4.29,4.29,0,0,0-.53-.06,2.2,2.2,0,0,0-.36,0l-.13,0a2.71,2.71,0,0,1,.48.08l.51.13.3.08.07,0-1.08.69h0a3.85,3.85,0,0,0-1.3-.17,2,2,0,0,0-.39.06l-.14,0h.14a2.7,2.7,0,0,1,.39,0,6.61,6.61,0,0,1,1.07.22l-1.07.71h0l-.12,0-.23-.05a2.4,2.4,0,0,0-.4,0,1.39,1.39,0,0,0-.27,0l-.1,0h.1l.27,0,.39.08.23.06.06,0c-.87.59-1.4,1-1.4,1s.58-.31,1.49-.82v.06c0,.08,0,.16,0,.23a3.32,3.32,0,0,1-.1.39,1.68,1.68,0,0,1-.1.25l-.05.09.06-.08a1.39,1.39,0,0,0,.14-.24A2.41,2.41,0,0,0,4.84,52c0-.07,0-.15.06-.23l0-.12v0L6,50.94A6.61,6.61,0,0,1,5.75,52a2.74,2.74,0,0,1-.16.35l-.07.12.1-.1A2.07,2.07,0,0,0,5.85,52a3.85,3.85,0,0,0,.42-1.23h0l1.1-.66v.08l-.06.3c0,.19-.07.37-.11.51a2.72,2.72,0,0,1-.15.46l.08-.11a2.15,2.15,0,0,0,.17-.32,4.31,4.31,0,0,0,.18-.5c0-.1.06-.2.08-.3L7.63,50l.32-.2.57-.38c0-.11,0-.18,0-.18l-.17-.06-.6.35-.32.2-.27-.06-.31-.06"/><circle class="cls-4" cx="7.95" cy="26.21" r="0.87"/><circle class="cls-4" cx="3.81" cy="31.53" r="0.65"/><circle class="cls-4" cx="3.41" cy="18.42" r="0.72"/><circle class="cls-4" cx="2.65" cy="25.38" r="0.29"/><circle class="cls-4" cx="11.82" cy="14.98" r="0.43"/><circle class="cls-4" cx="4.36" cy="45.6" r="0.43"/><line class="cls-5" x1="3.17" y1="47.27" x2="3.17" y2="48.23"/><line class="cls-5" x1="3.17" y1="49.17" x2="3.17" y2="50.13"/><line class="cls-5" x1="4.6" y1="48.7" x2="3.64" y2="48.7"/><line class="cls-5" x1="2.7" y1="48.7" x2="1.74" y2="48.7"/><line class="cls-6" x1="17.37" y1="7.58" x2="17.37" y2="8.64"/><line class="cls-6" x1="17.37" y1="9.66" x2="17.37" y2="10.71"/><line class="cls-6" x1="18.93" y1="9.15" x2="17.88" y2="9.15"/><line class="cls-6" x1="16.86" y1="9.15" x2="15.8" y2="9.15"/><line class="cls-6" x1="9.36" y1="18.1" x2="9.36" y2="19.15"/><line class="cls-6" x1="9.36" y1="20.17" x2="9.36" y2="21.23"/><line class="cls-6" x1="10.92" y1="19.66" x2="9.87" y2="19.66"/><line class="cls-6" x1="8.84" y1="19.66" x2="7.79" y2="19.66"/><line class="cls-6" x1="12.91" y1="27.92" x2="12.91" y2="28.97"/><line class="cls-6" x1="12.91" y1="29.99" x2="12.91" y2="31.05"/><line class="cls-6" x1="14.48" y1="29.48" x2="13.42" y2="29.48"/><line class="cls-6" x1="12.4" y1="29.48" x2="11.35" y2="29.48"/><circle class="cls-7" cx="1.58" cy="37.82" r="1.08"/><circle class="cls-7" cx="4.47" cy="56.94" r="1.17"/><path class="cls-1" d="M72.43,40.53A5.29,5.29,0,0,1,68,39.42a5.29,5.29,0,0,1,3.46-3c2.53-.6,5.7.8,5.7.8S75,39.92,72.43,40.53"/><path class="cls-3" d="M70.1,39.65a5.32,5.32,0,0,0,.61.28,2.74,2.74,0,0,0,.43.13l.16,0a3.42,3.42,0,0,1-.54-.28l-.55-.35-.32-.22-.08-.05,1.56-.4h0a4.81,4.81,0,0,0,1.47.71,2.55,2.55,0,0,0,.49.08h.18l-.17,0a3.45,3.45,0,0,1-.45-.17,8.26,8.26,0,0,1-1.19-.68l1.55-.42,0,0,.13.09.26.16a3,3,0,0,0,.46.22,1.71,1.71,0,0,0,.33.09h.12l-.12,0a2.1,2.1,0,0,1-.31-.13,4.19,4.19,0,0,1-.43-.25l-.24-.17-.06,0c1.26-.35,2-.6,2-.6s-.81.14-2.09.39l0-.07.14-.26a4.17,4.17,0,0,1,.27-.42A2.09,2.09,0,0,1,74,37l.09-.08L74,37a1.75,1.75,0,0,0-.26.23,3.06,3.06,0,0,0-.31.4l-.16.26-.08.14v0l-1.57.32a8.28,8.28,0,0,1,.75-1.14,3.44,3.44,0,0,1,.33-.35l.14-.12-.16.08a2.58,2.58,0,0,0-.4.3,4.81,4.81,0,0,0-1,1.3h0l-1.57.35,0-.08.19-.34c.12-.21.23-.41.33-.56a3.4,3.4,0,0,1,.35-.49l-.13.1a2.77,2.77,0,0,0-.33.31,5.36,5.36,0,0,0-.41.52l-.22.33-.18.29-.46.11c-.33.08-.6.15-.83.22l-.09.2.17.14.84-.18.46-.11.29.18.34.19"/><path class="cls-1" d="M69.82,49.72a3.16,3.16,0,0,1-2-1.81,3.16,3.16,0,0,1,2.66-.62,6.37,6.37,0,0,1,2.79,2,6.37,6.37,0,0,1-3.4.43"/><path class="cls-3" d="M68.83,48.61a3.18,3.18,0,0,0,.24.32,1.61,1.61,0,0,0,.19.19l.08.06a2,2,0,0,1-.21-.3l-.19-.34-.11-.2,0-.05.93.22h0a2.87,2.87,0,0,0,.58.78,1.53,1.53,0,0,0,.23.18l.09.05-.08-.07a2,2,0,0,1-.19-.21,4.91,4.91,0,0,1-.44-.69l.93.21v0l0,.08L71,49a1.76,1.76,0,0,0,.18.24,1.05,1.05,0,0,0,.15.14l.06,0-.06,0-.13-.15a2.53,2.53,0,0,1-.16-.25L71,48.82l0,0,1.24.25L71,48.66l0,0,.15-.1.26-.15.19-.07.07,0h-.07l-.2,0-.28.12-.15.09-.08.05h0L70,48.37a4.93,4.93,0,0,1,.71-.4l.27-.1.1,0H71a1.51,1.51,0,0,0-.29,0,2.87,2.87,0,0,0-.88.41h0l-.93-.25,0,0,.19-.13.33-.21a2,2,0,0,1,.32-.16h-.1l-.26.07-.36.16-.21.11-.18.11-.27-.07-.5-.11-.1.08.05.12.49.14.27.07.1.18.13.2"/><path class="cls-1" d="M60.85,43.56a2.44,2.44,0,0,1,1.2-3.3c-.47,1.09-.42,1.94.14,1.95s.25-.68.39-1.31a1.57,1.57,0,0,1,.72-1.13,5.93,5.93,0,0,1,2.34,0c-1,.41-2,1.7-1.41,2s.51-1.39,2.69-1.59a5.65,5.65,0,0,1,1.43.78s-1.93,1-1.34,1.47,1-.85,2-.9c.4.5,1.69,1.8,1.69,1.8l-1.59,1.87a3,3,0,0,1-1.42-.67c-.49-.51-.83-.13-.64.24a2.13,2.13,0,0,0,1.51.94,4.12,4.12,0,0,1-1.64,1,2.82,2.82,0,0,1-2.05-1.17c-.19-.34-.37-.38-.55-.29s-.16.38,0,.72a2.79,2.79,0,0,0,1.48,1.13,5.38,5.38,0,0,1-2.3.14,2.1,2.1,0,0,1-.89-1.49c0-.33,0-.84-.33-.86s-.37.24-.36.83a1.93,1.93,0,0,0,.37,1.13,2.86,2.86,0,0,1-1.42-1.36,2.11,2.11,0,0,1,0-1.91"/><path class="cls-3" d="M59.34,43.48v.25l2.34-.05,3.62,3.51.3-.06-.25-.24a2.67,2.67,0,0,1-1-.95l-.05-.12L62,43.67l1.36,0,3,3a1.82,1.82,0,0,0,.44.07h0l-3.13-3,1.41,0,2.7,2.62.21-.14-2.56-2.48,1.41,0L68.41,45a3.79,3.79,0,0,0,.54.17l-1.67-1.62,1.09,0,1.17,1.14.16-.19-1-1,1.83,0,.12-.14-.11-.11-1.87,0,.89-1.07L69.41,42l-1,1.26-1,0,1.43-1.73a1.59,1.59,0,0,0-.59.32L67,43.3l-1.43,0,2.26-2.73-.22-.13-2.37,2.87-1.43,0,2.57-3.11a2.73,2.73,0,0,0-.46.16l-2.45,3-1.38,0,3.08-3.72-.3,0-3.1,3.75Z"/><path class="cls-1" d="M64.34,40.35a4.27,4.27,0,0,0-2.6-1.45,7.62,7.62,0,0,0-2.29.06A20.72,20.72,0,0,0,63,37.15a3.15,3.15,0,0,0,2.35,1,5.81,5.81,0,0,0,3.27-1.45A4,4,0,0,0,65.91,36a6.72,6.72,0,0,0-2,.52,20.79,20.79,0,0,0,2.76-2.4,2.72,2.72,0,0,0,2.11.41,5,5,0,0,0,2.43-1.75,3.33,3.33,0,0,0-2.34-.19,5.26,5.26,0,0,0-1.46.72,20.7,20.7,0,0,0,1.68-2.22,2.33,2.33,0,0,0,1.79,0,4.26,4.26,0,0,0,1.77-1.79,2.79,2.79,0,0,0-2,.16,4.19,4.19,0,0,0-1,.75q.47-.79.86-1.63a.28.28,0,0,0,0-.06,3.62,3.62,0,0,0,1.22-1.62,3.78,3.78,0,0,0,0-2.39,5.53,5.53,0,0,0-1.3,1.92,5.06,5.06,0,0,0-.24,1.93l0,0q-.39.82-.85,1.6a2.78,2.78,0,0,0,.05-1.23,2.45,2.45,0,0,0-1.16-1.53,4.5,4.5,0,0,0-.26,2.08,2.92,2.92,0,0,0,.84,1.54A20.35,20.35,0,0,1,67.13,33a3.23,3.23,0,0,0,.35-1.52,2.88,2.88,0,0,0-1.07-2,5.24,5.24,0,0,0-.68,2.31,3.55,3.55,0,0,0,.67,2,20.41,20.41,0,0,1-2.71,2.35,3.75,3.75,0,0,0,.87-1.76,3.36,3.36,0,0,0-.78-2.53,6.21,6.21,0,0,0-1.31,2.45,4.32,4.32,0,0,0,.26,2.48,20.33,20.33,0,0,1-3.43,1.77A4,4,0,0,0,60.74,37a3.55,3.55,0,0,0-.18-2.82,6.86,6.86,0,0,0-2,2.22A4.67,4.67,0,0,0,58.19,39q-.72.24-1.46.43a.19.19,0,1,0,.09.36q.76-.19,1.49-.44a3.34,3.34,0,0,0,2.2,1.7,6.3,6.3,0,0,0,3.83-.72"/><path class="cls-1" d="M64.35,47.13a4.27,4.27,0,0,1-2.55,1.54,7.63,7.63,0,0,1-2.29,0,20.72,20.72,0,0,1,3.56,1.68,3.15,3.15,0,0,1,2.31-1.13,5.81,5.81,0,0,1,3.32,1.34,4,4,0,0,1-2.64.87,6.72,6.72,0,0,1-2-.45,20.77,20.77,0,0,1,2.84,2.3,2.72,2.72,0,0,1,2.1-.48,5,5,0,0,1,2.49,1.66,3.33,3.33,0,0,1-2.33.28,5.27,5.27,0,0,1-1.48-.67,20.7,20.7,0,0,1,1.75,2.16,2.33,2.33,0,0,1,1.79-.07A4.25,4.25,0,0,1,73,57.9a2.78,2.78,0,0,1-2-.09A4.19,4.19,0,0,1,70,57.1q.49.78.92,1.6l0,.06a3.62,3.62,0,0,1,1.28,1.57,3.77,3.77,0,0,1,.08,2.39,5.54,5.54,0,0,1-1.36-1.88,5.07,5.07,0,0,1-.31-1.92l0,0q-.42-.81-.9-1.57a2.78,2.78,0,0,1,.1,1.23,2.45,2.45,0,0,1-1.11,1.57A4.49,4.49,0,0,1,68.33,58a2.92,2.92,0,0,1,.78-1.57,20.37,20.37,0,0,0-1.72-2.12,3.24,3.24,0,0,1,.41,1.5,2.88,2.88,0,0,1-1,2A5.24,5.24,0,0,1,66,55.57a3.55,3.55,0,0,1,.6-2,20.43,20.43,0,0,0-2.79-2.26A3.75,3.75,0,0,1,64.78,53a3.36,3.36,0,0,1-.69,2.55,6.22,6.22,0,0,1-1.39-2.41,4.32,4.32,0,0,1,.17-2.49,20.35,20.35,0,0,0-3.49-1.65,4,4,0,0,1,1.47,1.59,3.55,3.55,0,0,1-.08,2.83,6.86,6.86,0,0,1-2.05-2.15,4.67,4.67,0,0,1-.48-2.64q-.73-.21-1.47-.38a.19.19,0,1,1,.08-.37q.76.16,1.5.38a3.34,3.34,0,0,1,2.14-1.77,6.3,6.3,0,0,1,3.85.58"/><circle class="cls-7" cx="68.54" cy="22.51" r="1.52"/><circle class="cls-7" cx="76.59" cy="28.53" r="0.56"/><circle class="cls-7" cx="63.68" cy="26.09" r="0.84"/><circle class="cls-7" cx="67.96" cy="15.29" r="0.4"/><circle class="cls-7" cx="75.46" cy="24.27" r="0.2"/><line class="cls-5" x1="73.22" y1="17.76" x2="73.22" y2="18.73"/><line class="cls-5" x1="73.22" y1="19.66" x2="73.22" y2="20.63"/><line class="cls-5" x1="74.66" y1="19.2" x2="73.69" y2="19.2"/><line class="cls-5" x1="72.76" y1="19.2" x2="71.79" y2="19.2"/><line class="cls-5" x1="75.87" y1="40.96" x2="75.87" y2="41.93"/><line class="cls-5" x1="75.87" y1="42.86" x2="75.87" y2="43.83"/><line class="cls-5" x1="77.3" y1="42.4" x2="76.34" y2="42.4"/><line class="cls-5" x1="75.4" y1="42.4" x2="74.44" y2="42.4"/><line class="cls-5" x1="74.1" y1="31.65" x2="74.1" y2="32.61"/><line class="cls-5" x1="74.1" y1="33.55" x2="74.1" y2="34.51"/><line class="cls-5" x1="75.54" y1="33.08" x2="74.57" y2="33.08"/><line class="cls-5" x1="73.64" y1="33.08" x2="72.67" y2="33.08"/><line class="cls-5" x1="63.43" y1="8.95" x2="63.43" y2="9.91"/><line class="cls-5" x1="63.43" y1="10.85" x2="63.43" y2="11.81"/><line class="cls-5" x1="64.86" y1="10.38" x2="63.9" y2="10.38"/><line class="cls-5" x1="62.96" y1="10.38" x2="62" y2="10.38"/><circle class="cls-7" cx="72.5" cy="45.55" r="0.72"/><circle class="cls-7" cx="75.59" cy="50.91" r="1.17"/><path class="cls-8" d="M67.87,29.47A29.47,29.47,0,1,1,38.41,0,29.47,29.47,0,0,1,67.87,29.47"/><path class="cls-9" d="M40.54,30.86c0-1.23,0-2.47,0-3.7a2.21,2.21,0,0,1,1.35.81.49.49,0,0,0,.42.22.55.55,0,0,0,.48-.28.43.43,0,0,0,0-.46,3.43,3.43,0,0,0-2.21-1.29s0-.74,0-.91a.47.47,0,0,0-.13-.34.52.52,0,0,0-.37-.14.48.48,0,0,0-.5.48c0,.16,0,.81,0,.81h-.08a5.66,5.66,0,0,0-.8.06v-.8a.47.47,0,0,0-.13-.34.52.52,0,0,0-.37-.14.48.48,0,0,0-.5.49v1a2.94,2.94,0,0,0-2.08,2.15,2.57,2.57,0,0,0,1.89,2.71l.19.06v3.49a2.43,2.43,0,0,1-1.5-1.62.5.5,0,0,0-.48-.34.53.53,0,0,0-.43.21.44.44,0,0,0,0,.41,3.27,3.27,0,0,0,2.46,2.41V38a.47.47,0,0,0,.13.34.52.52,0,0,0,.37.14.48.48,0,0,0,.5-.51V36h.22a7.58,7.58,0,0,0,.87,0c0,.26,0,.51,0,.77s0,.8,0,1.21a.52.52,0,0,0,.88.34.45.45,0,0,0,.12-.34c0-.44,0-.88,0-1.32l0-.85a2.68,2.68,0,0,0,2.09-2C43.09,32.31,41.92,31.27,40.54,30.86Zm.11,3.74,0-.85c0-.62,0-1.23-.06-1.85,1,.54,1.42,1.06,1.38,1.54S41.43,34.29,40.65,34.6Zm-2-4.1V27.14a4.61,4.61,0,0,1,.89-.09c0,1.21,0,2.41,0,3.62h0c-.26,0-.53-.08-.79-.14Zm0,1,.2,0,.73.09c0,.79,0,1.57.08,2.36l0,.95a3.45,3.45,0,0,1-.5.06h-.55Zm-1.74-3.38a2.15,2.15,0,0,1,.75-.61V30.2a1.67,1.67,0,0,1-1.09-.92A1.38,1.38,0,0,1,36.87,28.09Z"/><path class="cls-9" d="M63.43,33.88c0-2.32,0-4.69-.05-7q0-1.66-.06-3.32c0-.21,0-.45,0-.72a5.17,5.17,0,0,0-.15-2c-.31-.74-.72-.84-1.43-.94a20,20,0,0,0-3-.18c-.68,0-1.37,0-2,0s-1.33,0-2,0h-.38c-4.44-.05-9-.08-13.51-.08h-.4c-5,0-10.1,0-15.13.11H25c-.54,0-1.09,0-1.64,0s-1.11,0-1.66,0a16.8,16.8,0,0,0-1.74.08c-.45,0-.94.05-1.4.05h-.64a10.88,10.88,0,0,0-2,.14,1.93,1.93,0,0,0-.6.22.46.46,0,0,0-.28.18l.05.07H15a.33.33,0,0,0-.06.15A9.29,9.29,0,0,0,14.6,25c0,.42.07.82.09,1.2.09,2,.07,4,0,5.92,0,.63,0,1.25,0,1.87v.79c0,1.42,0,2.89-.1,4.33,0,.27-.06.57-.1.88a5.88,5.88,0,0,0,0,2.32.52.52,0,0,0,.47.36A66.15,66.15,0,0,0,22,43c2.18,0,4.41-.07,6.56-.14s4.37-.14,6.55-.14c1.41,0,2.68,0,3.88.09,2.24.11,4.51.16,7,.16,1.81,0,3.67,0,5.67-.09l.5,0c1.26,0,2.57-.08,3.85-.08.57,0,1.15,0,1.72,0,.35,0,.74,0,1.15.08.59,0,1.21.1,1.81.1a5.11,5.11,0,0,0,1.76-.25c.92-.34.94-1,1-1.86.07-1.85.07-3.74.06-5.57Zm-4.86,8.4c-.81,0-1.62,0-2.43,0-1.81,0-3.65.06-5.43.11s-3.36.1-5,.11h-.28c-2.15,0-4.3-.11-6.39-.21-.44,0-.89,0-1.33,0-.67,0-1.34,0-2,0s-1.34,0-2,0l-1.06,0c-.89,0-1.78,0-2.67,0-1.61,0-3.25,0-4.83.09s-3.22.09-4.84.09h-.58c-1.27,0-2.56-.07-3.86-.17h-.19c-.3,0-.48,0-.53-.1s0-.2,0-.45,0-.3,0-.5l0-.67c.07-1.22.14-2.48.15-3.73,0-2.58,0-5.24,0-7.91,0-1.53,0-2.7-.1-3.8,0-.2,0-.42,0-.66a9.09,9.09,0,0,1,.21-3.75,2.7,2.7,0,0,1,1.26-.17l1.05,0,.72,0h.25l.32,0c.59-.06,1.14-.11,1.71-.11l.57,0c.59,0,1.23.06,2,.06.89,0,1.78,0,2.66-.06.71,0,1.43,0,2.13-.06,4.29,0,8.63-.08,12.9-.08H43c5,0,10,.05,15,.13h.18l.91,0,.94,0a7.22,7.22,0,0,1,1.29.1l.42.05c.44,0,.71.07,1,.61a3.86,3.86,0,0,1,.07,1.48c0,.24,0,.46,0,.64.06,2.68.1,5.43.11,8.17,0,2.44,0,4.9,0,7.31,0,.26,0,.53,0,.81.06,1.18.13,2.39-1,2.77a3.58,3.58,0,0,1-1.07.13c-.42,0-.87,0-1.29-.07Z"/><path class="cls-9" d="M60.55,35.1c0-.57,0-1.14,0-1.72,0-.81,0-1.61,0-2.42,0-.19,0-.42,0-.66a3.91,3.91,0,0,0-.14-2l0-.09v0l-.07,0h0v-.14l-.57-.57a7.18,7.18,0,0,1-1.57-2,5.06,5.06,0,0,1-.31-1,4.34,4.34,0,0,0-.38-1.12c-.4-.68-.83-.71-1.54-.76H55.8c-1.1-.08-2.3-.12-3.67-.12l-2.32,0h-1.6a15.37,15.37,0,0,0-3.73.32.52.52,0,0,0-.36.4.43.43,0,0,0,.15.44c3,2.36,3.42,5.89,3.28,8.44a10.81,10.81,0,0,1-1.25,4.61,7.26,7.26,0,0,1-.76,1.05,5.56,5.56,0,0,0-.94,1.42.5.5,0,0,0,.23.58,7.37,7.37,0,0,0,3.11.51c.72,0,1.44,0,2.14-.08s1.21-.07,1.82-.07h0c.38,0,.84,0,1.34.08s1.27.1,1.9.1a5,5,0,0,0,2.14-.36.49.49,0,0,0,.25-.43,4,4,0,0,1,2.65-4.07A.51.51,0,0,0,60.55,35.1Zm-3.72,2.75a5.3,5.3,0,0,1-.23.8c-.25.62-.25.62-1,.64h-.13l-1.5,0-2.44,0-1.69,0-2.65,0c-.5,0-1,0-1-.18s.15-.42.46-.86a10.84,10.84,0,0,0,1.75-4.62c.59-3.93-.4-7.48-2.71-9.78a19,19,0,0,1,2.49-.13h3.26c1.24,0,2.52,0,3.8.08h.32c.75,0,.92,0,1.17.84l.07.22a8.45,8.45,0,0,0,.41,1.16A7.59,7.59,0,0,0,59,28.21l.55.55a5.3,5.3,0,0,1,.05,2.31,8.93,8.93,0,0,0-.07.93c0,.17,0,.43.07.73a4.73,4.73,0,0,1,0,2.08,2.18,2.18,0,0,1-.63.3,3.07,3.07,0,0,0-.65.3,3.45,3.45,0,0,0-1.12,1.41A4.72,4.72,0,0,0,56.83,37.85Z"/><path class="cls-9" d="M33.49,23a15.55,15.55,0,0,0-3.77-.31h-1.2c-.88,0-1.76,0-2.65,0-1.36,0-2.57,0-3.7.12H22c-.65,0-1.12.08-1.5.71a3.35,3.35,0,0,0-.32,1,4.61,4.61,0,0,1-.17.67,6.88,6.88,0,0,1-1.8,2.45c-.18.18-.37.37-.59.62l-.07.12a4,4,0,0,0-.14,2c0,.24,0,.47,0,.66,0,.81,0,1.61,0,2.42,0,.57,0,1.14,0,1.72a.51.51,0,0,0,.36.48,4,4,0,0,1,2.65,4.07.49.49,0,0,0,.25.43,5,5,0,0,0,2.15.36c.64,0,1.32-.05,1.91-.1s.95-.07,1.41-.08,1.14,0,1.76.07,1.42.08,2.13.08h0a7.33,7.33,0,0,0,3.09-.51.5.5,0,0,0,.23-.58,5.49,5.49,0,0,0-.93-1.42,7.25,7.25,0,0,1-.76-1.05,10.89,10.89,0,0,1-1.25-4.61c-.23-3.58.94-6.58,3.28-8.44a.43.43,0,0,0,.15-.44A.52.52,0,0,0,33.49,23Zm-4,10.25a11.17,11.17,0,0,0,1.62,4.68c.12.18.24.34.34.48s.32.43.28.54-.27.2-.71.28a6.38,6.38,0,0,1-1.19.09l-.86,0-.82,0-1.75,0-2.49,0H22.36c-.63,0-.7,0-1-.59a3.21,3.21,0,0,1-.21-.78A3.75,3.75,0,0,0,21,37.1a4.15,4.15,0,0,0-1.06-1.55,3,3,0,0,0-.75-.36,2.1,2.1,0,0,1-.73-.37,3.82,3.82,0,0,1,0-1.84c0-.28.07-.54.07-.74s0-.59-.06-1a6.4,6.4,0,0,1,0-2.46L19,28.2a7.45,7.45,0,0,0,1.75-2.27,8.7,8.7,0,0,0,.41-1.16l.06-.22c.25-.81.42-.82,1.17-.84h.32c1.28-.06,2.56-.08,3.79-.08h3.27a19,19,0,0,1,2.48.13C30,26,29,29.42,29.52,33.22Z"/><path class="cls-9" d="M23.2,24.71a.55.55,0,0,0-.46-.26.44.44,0,0,0-.4.25,21,21,0,0,0-1,2.13.43.43,0,0,0,0,.41.52.52,0,0,0,.43.21.51.51,0,0,0,.49-.33,18.92,18.92,0,0,1,.86-1.92A.48.48,0,0,0,23.2,24.71Z"/><path class="cls-9" d="M24.38,25.63a.49.49,0,0,0-.33.13A9,9,0,0,0,22.95,27a.41.41,0,0,0-.06.44.56.56,0,0,0,.49.29.52.52,0,0,0,.42-.21,7.76,7.76,0,0,1,1-1,.44.44,0,0,0,.13-.5A.55.55,0,0,0,24.38,25.63Z"/></g></svg>