<svg xmlns="http://www.w3.org/2000/svg" xmlns:xlink="http://www.w3.org/1999/xlink" viewBox="0 0 378.72 163.22"><defs><style>.cls-1{fill:none;}.cls-2{isolation:isolate;}.cls-3{clip-path:url(#clip-path);}.cls-4{opacity:0.31;}.cls-10,.cls-4{mix-blend-mode:multiply;}.cls-5{opacity:0.36;}.cls-6{clip-path:url(#clip-path-2);}.cls-7{clip-path:url(#clip-path-3);}.cls-8{fill:url(#Degradado_sin_nombre_926);}.cls-9{clip-path:url(#clip-path-4);}.cls-11{clip-path:url(#clip-path-5);}.cls-12{fill:#c3baca;}.cls-13{clip-path:url(#clip-path-6);}.cls-14{clip-path:url(#clip-path-7);}.cls-15,.cls-152{fill:#fff;}.cls-16{fill:#fdfdfd;}.cls-17{fill:#fcfcfc;}.cls-18{fill:#fbfbfb;}.cls-19{fill:#fafafa;}.cls-20{fill:#f9f9f9;}.cls-21{fill:#f8f8f8;}.cls-22{fill:#f7f7f7;}.cls-23{fill:#f6f6f6;}.cls-24{fill:#f5f5f5;}.cls-25{fill:#f4f4f4;}.cls-26{fill:#f3f3f3;}.cls-27{fill:#f2f3f3;}.cls-28{fill:#f1f2f2;}.cls-29{fill:#f0f1f1;}.cls-30{fill:#eff0f0;}.cls-31{fill:#eeefef;}.cls-32{fill:#edeeee;}.cls-33{fill:#eceded;}.cls-34{fill:#ebecec;}.cls-35{fill:#eaebeb;}.cls-36{fill:#e9eaea;}.cls-37{fill:#e8e9e9;}.cls-38{fill:#e7e8e8;}.cls-39{fill:#e6e7e7;}.cls-40{fill:#e5e6e6;}.cls-41{fill:#e4e5e5;}.cls-42{fill:#e3e4e4;}.cls-43{fill:#e2e3e3;}.cls-44{fill:#e1e2e2;}.cls-45{fill:#e0e1e1;}.cls-46{fill:#dfe0e0;}.cls-47{fill:#dedfdf;}.cls-48{fill:#dddede;}.cls-49{fill:#dbdede;}.cls-50{fill:#dadddd;}.cls-51{fill:#d9dcdc;}.cls-52{fill:#d8dbdb;}.cls-53{fill:#d7dada;}.cls-54{fill:#d6d9d9;}.cls-55{fill:#d5d8d8;}.cls-56{fill:#d4d7d7;}.cls-57{fill:#d3d6d6;}.cls-58{fill:#d2d5d5;}.cls-59{fill:#d1d4d4;}.cls-60{fill:#d0d3d3;}.cls-61{fill:#cfd2d2;}.cls-62{fill:#ced1d1;}.cls-63{fill:#cdd0d0;}.cls-64{fill:#cccfcf;}.cls-65{fill:#cbcece;}.cls-66{fill:#cacdcd;}.cls-67{fill:#c9cccc;}.cls-68{fill:#c8cbcb;}.cls-69{fill:#c7caca;}.cls-70{fill:#c6c9c9;}.cls-71{fill:#c5c9c9;}.cls-72{fill:#c4c8c8;}.cls-73{fill:#c3c7c7;}.cls-74{fill:#c2c6c6;}.cls-75{fill:#c1c5c5;}.cls-76{fill:#c0c4c4;}.cls-77{fill:#bfc3c3;}.cls-78{fill:#bec2c2;}.cls-79{fill:#bdc1c1;}.cls-80{fill:#bcc0c0;}.cls-81{fill:#bbbfbf;}.cls-82{fill:#babebe;}.cls-83{fill:#b9bdbd;}.cls-84{fill:#b8bcbc;}.cls-85{fill:#b7bbbb;}.cls-86{fill:#b6baba;}.cls-87{fill:#b5b9b9;}.cls-88{fill:#b4b8b8;}.cls-89{fill:#b3b7b7;}.cls-90{fill:#b2b6b6;}.cls-91{fill:#b1b5b5;}.cls-92{fill:#b0b4b4;}.cls-93{fill:#afb3b3;}.cls-94{fill:#aeb3b3;}.cls-95{fill:#adb2b2;}.cls-96{fill:#acb1b1;}.cls-97{fill:#abb0b0;}.cls-98{fill:#aaafaf;}.cls-99{fill:#a9aeae;}.cls-100{fill:#a8adad;}.cls-101{fill:#a7acac;}.cls-102{fill:#a6abab;}.cls-103{fill:#a5aaaa;}.cls-104{fill:#a4a9a9;}.cls-105{fill:#a3a8a8;}.cls-106{fill:#a2a7a7;}.cls-107{fill:#a1a6a6;}.cls-108{fill:#a0a5a5;}.cls-109{fill:#9fa4a4;}.cls-110{fill:#9ea3a3;}.cls-111{fill:#9da2a2;}.cls-112{fill:#9ca1a1;}.cls-113{fill:#9ba0a0;}.cls-114{fill:#9a9f9f;}.cls-115{fill:#999e9e;}.cls-116{fill:#989e9e;}.cls-117{fill:#979d9d;}.cls-118{fill:#969c9c;}.cls-119{fill:#959b9b;}.cls-120{fill:#949a9a;}.cls-121{fill:#939999;}.cls-122{fill:#929898;}.cls-123{fill:#919797;}.cls-124{fill:#909696;}.cls-125{fill:#8f9595;}.cls-126{fill:#8e9494;}.cls-127{fill:#8d9393;}.cls-128{fill:#8c9292;}.cls-129{fill:#8b9191;}.cls-130{fill:#8a9090;}.cls-131{fill:#898f8f;}.cls-132{fill:#888e8e;}.cls-133{fill:#878d8d;}.cls-134{fill:#868c8c;}.cls-135{fill:#858b8b;}.cls-136{fill:#848a8a;}.cls-137{fill:#838989;}.cls-138{fill:#818989;}.cls-139{fill:#808888;}.cls-140{fill:#808787;}.cls-141{fill:#7f8686;}.cls-142{fill:#7e8585;}.cls-143{fill:#7d8484;}.cls-144{fill:#7c8383;}.cls-145{fill:#7b8282;}.cls-146{fill:#7a8181;}.cls-147{fill:#798080;}.cls-148{fill:#788080;}.cls-149{fill:#777f7f;}.cls-150{fill:#73c2ca;}.cls-151{fill:#96eae4;}.cls-152{stroke:#00953a;stroke-miterlimit:10;stroke-width:2px;}.cls-153{fill:#00953a;}</style><clipPath id="clip-path"><rect class="cls-1" x="-696.64" y="-688.19" width="1347.46" height="660.34"/></clipPath><clipPath id="clip-path-2"><rect class="cls-1" x="-110.6" y="-352.35" width="559.7" height="376.68"/></clipPath><clipPath id="clip-path-3"><path class="cls-1" d="M185.48-212.85l-4.4,2.26a10.87,10.87,0,0,0-5.45,6.6l-7.58,26a33.64,33.64,0,0,0-1.34,9.41v81.29a9.3,9.3,0,0,0,4.58,8l65.84,38.6A5.73,5.73,0,0,1,240-35.75v8.56h1.13v-9a5.74,5.74,0,0,0-2.83-4.93L172.07-80a9.3,9.3,0,0,1-4.58-8v-81.29a33.61,33.61,0,0,1,1.34-9.41L176-202c.83-2.84.74-5.13,4.43-7.81l8-4.12a13.1,13.1,0,0,0-2.88,1.06"/></clipPath><linearGradient id="Degradado_sin_nombre_926" x1="-1132.37" y1="25.46" x2="-1131.37" y2="25.46" gradientTransform="matrix(113.84, 0, 0, -113.84, 129061.07, 2777.9)" gradientUnits="userSpaceOnUse"><stop offset="0" stop-color="#826f72"/><stop offset="0.16" stop-color="#7a6569"/><stop offset="0.4" stop-color="#9c8987"/><stop offset="0.62" stop-color="#b6a49e"/><stop offset="0.75" stop-color="#c0aea6"/><stop offset="1" stop-color="#c0aea6"/></linearGradient><clipPath id="clip-path-4"><rect class="cls-1" x="-110.6" y="-343.06" width="475.13" height="315.87"/></clipPath><clipPath id="clip-path-5"><rect class="cls-1" x="122.91" y="-57.12" width="57.42" height="65.19"/></clipPath><clipPath id="clip-path-6"><rect class="cls-1" x="264.74" y="-347.01" width="386.08" height="319.15"/></clipPath><clipPath id="clip-path-7"><rect class="cls-1" x="259.82" y="-244.92" width="494.57" height="303.32"/></clipPath></defs><title>Pantalla52.4-Resiliencia</title><g class="cls-2"><g id="Capa_1" data-name="Capa 1"><g class="cls-3"><g class="cls-5"><g class="cls-6"><g class="cls-7"><rect class="cls-8" x="130.93" y="-220.89" width="145.97" height="200.69" transform="translate(69.55 74.54) rotate(-24.85)"/></g><g class="cls-9"><g class="cls-10"><g class="cls-11"><path class="cls-12" d="M171.64-45.1c-11.35,6.37-29.5,6.19-40.53-.41-5.43-3.24-8.12-7.44-8.11-11.61l-.09,21.59c0,4.18,2.68,8.37,8.11,11.61,7,4.19,16.88,5.78,26.06,4.76.15,5.63.2,12.49-.33,15.55h0a64.67,64.67,0,0,1-3.88,11.66c.72,0,1.6-.1,2.48-.21a28.37,28.37,0,0,0,3.88-.75A51.42,51.42,0,0,0,162-4.44V-20a35.34,35.34,0,0,0,9.52-3.54h0c5.77-3.24,8.67-7.54,8.68-11.86L180.32-57c0,4.32-2.91,8.63-8.68,11.86"/></g></g></g></g></g></g><g class="cls-13"><g class="cls-10"><g class="cls-14"><g class="cls-14"><path class="cls-15" d="M259.82-33.14l117.94-71.68-59.65-33.34L502.86-244.92,754.39-95.3,577.63,8.2C534.3,45.6,458.25,48.52,435.9,48.52h0l-3.22,0L417.4,58.4Z"/></g><path class="cls-16" d="M502.85-244.78,754.21-95.31,577.58,8.11c-43.31,37.39-119.36,40.3-141.65,40.3h0l-3.21,0-15.27,9.89L260-33.18l117.87-71.64L375.84-106,318.3-138.13Z"/><path class="cls-17" d="M502.83-244.64,754-95.32,577.51,8C534.22,45.4,458.18,48.39,435.94,48.3h0l-3.21,0-15.25,9.88L260.21-33.21,378-104.81,376-106l-57.5-32.13Z"/><path class="cls-18" d="M502.82-244.5l251,149.17L577.46,7.94C534.19,45.3,458.16,48.27,436,48.18h0l-3.21,0L417.52,58,260.41-33.25,378.14-104.8l-2-1.17-57.47-32.11Z"/><path class="cls-19" d="M502.81-244.36l250.83,149L577.4,7.85C534.15,45.2,458.13,48.16,436,48.07h0l-3.21,0L417.56,57.9l-157-91.18,117.67-71.51-2-1.16-57.43-32.1Z"/><path class="cls-20" d="M502.8-244.22,753.45-95.35,577.35,7.77C534.12,45.1,458.11,48,436,48h0l-3.2,0-15.19,9.85L260.8-33.32l117.6-71.47L376.47-106,319.07-138Z"/><path class="cls-21" d="M502.78-244.08,753.25-95.36l-176,103C534.07,45,458.07,47.94,436,47.85h0l-3.2,0-15.18,9.83L261-33.35l117.53-71.43-1.91-1.17L319.25-138Z"/><path class="cls-22" d="M502.77-243.94,753.06-95.38,577.23,7.59C534,44.91,458,47.82,436,47.73h0l-3.2,0-15.16,9.82L261.19-33.38l117.47-71.39-1.87-1.16-57.34-32Z"/><path class="cls-23" d="M502.76-243.8,752.88-95.39,577.18,7.51C534,44.8,458,47.71,436.07,47.62h0l-3.2,0-15.14,9.81L261.39-33.42l117.4-71.35-1.85-1.17-57.3-32Z"/><path class="cls-24" d="M502.75-243.66,752.69-95.4,577.12,7.42C534,44.71,458,47.6,436.09,47.51h0l-3.2,0-15.12,9.8L261.58-33.45l117.33-71.31-1.82-1.16-57.27-32Z"/><path class="cls-25" d="M502.73-243.52,752.49-95.41,577.06,7.33C533.92,44.6,458,47.49,436.1,47.4h0l-3.19,0-15.1,9.79-156-90.64L379-104.75l-1.79-1.17L320-137.9Z"/><path class="cls-26" d="M502.72-243.38S752.3-95.43,752.3-95.42L577,7.25c-43.12,37.26-119.07,40.13-140.88,40h0l-3.19,0L417.84,57,262-33.52l117.19-71.23-1.76-1.16-57.2-32Z"/><path class="cls-27" d="M502.71-243.24S752.12-95.44,752.12-95.43L577,7.16c-43.1,37.24-119,40.1-140.8,40h0l-3.19,0-15.07,9.77L262.17-33.55l117.13-71.19-1.73-1.16L320.4-137.84Z"/><path class="cls-28" d="M502.7-243.1S751.93-95.45,751.93-95.44L576.9,7.08c-43.08,37.23-119,40.08-140.72,40h0L433,47l-15.05,9.75L262.36-33.59l117.06-71.14-1.7-1.16-57.13-31.92Z"/><path class="cls-29" d="M502.68-243S751.73-95.47,751.73-95.45L576.83,7c-43.06,37.22-119,40-140.65,40h0l-3.19,0-15,9.74L262.55-33.62l117-71.1-1.67-1.16-57.1-31.9Z"/><path class="cls-30" d="M502.67-242.81S751.55-95.48,751.55-95.46L576.78,6.9c-43,37.2-119,40-140.57,39.93h0l-3.18,0-15,9.73L262.75-33.66l116.92-71.06L378-105.88,321-137.77Z"/><path class="cls-31" d="M502.66-242.67s248.7,147.18,248.7,147.2L576.72,6.82c-43,37.19-118.93,40-140.49,39.9h0l-3.18,0-15,9.72-155.1-90.1,116.86-71-1.61-1.16-57-31.86Z"/><path class="cls-32" d="M502.64-242.53s248.52,147,248.52,147L576.66,6.73c-43,37.17-118.91,40-140.42,39.88h0l-3.18,0-15,9.71-154.95-90,116.79-71-1.58-1.17-57-31.85Z"/><path class="cls-33" d="M502.63-242.39S751-95.51,751-95.5L576.61,6.65c-43,37.16-118.88,39.95-140.34,39.85h0l-3.18,0-15,9.7L263.33-33.76,380.05-104.7l-1.55-1.16-57-31.83Z"/><path class="cls-34" d="M502.62-242.25S750.79-95.53,750.79-95.51L576.55,6.56c-43,37.15-118.85,39.92-140.26,39.82h0l-3.17,0L418.17,56,263.53-33.79l116.65-70.9-1.52-1.17-56.93-31.81Z"/><path class="cls-35" d="M502.61-242.11s248,146.57,248,146.59L576.5,6.47c-42.94,37.13-118.82,39.89-140.18,39.8h0l-3.17,0-14.93,9.67L263.73-33.83l116.58-70.86-1.49-1.16-56.9-31.79Z"/><path class="cls-36" d="M502.59-242S750.4-95.55,750.4-95.53L576.43,6.39C533.51,43.51,457.64,46.25,436.33,46.16h0l-3.17,0-14.91,9.66L263.92-33.86l116.52-70.81L379-105.84l-56.87-31.77Z"/><path class="cls-37" d="M502.58-241.83S750.22-95.56,750.22-95.54L576.38,6.3c-42.9,37.11-118.76,39.84-140,39.75h0l-3.17,0-14.89,9.65L264.11-33.89l116.45-70.77-1.43-1.17L322.3-137.58Z"/><path class="cls-38" d="M502.57-241.69S750-95.57,750-95.55L576.32,6.21C533.44,43.31,457.59,46,436.37,45.93h0l-3.17,0-14.87,9.64-154-89.47,116.38-70.73-1.4-1.17-56.8-31.73Z"/><path class="cls-39" d="M502.56-241.55s247.28,146,247.28,146L576.27,6.13C533.4,43.21,457.56,45.92,436.39,45.82h0l-3.17,0-14.86,9.63L264.51-34l116.31-70.69-1.37-1.17-56.77-31.71Z"/><path class="cls-40" d="M502.54-241.41S749.64-95.6,749.64-95.57L576.21,6c-42.85,37.06-118.68,39.76-139.8,39.67h0l-3.16,0L418.4,55.3,264.7-34l116.25-70.65-1.34-1.17L322.87-137.5Z"/><path class="cls-41" d="M502.53-241.27S749.46-95.61,749.46-95.58L576.15,6C533.32,43,457.5,45.69,436.43,45.6h0l-3.16,0-14.82,9.61L264.89-34l116.18-70.61-1.31-1.17-56.7-31.67Z"/><path class="cls-42" d="M502.52-241.13S749.27-95.62,749.27-95.59L576.1,5.87c-42.81,37-118.62,39.71-139.65,39.62h0l-3.16,0-14.8,9.59L265.09-34.06,381.2-104.63l-1.28-1.17-56.66-31.65Z"/><path class="cls-43" d="M502.51-241S749.08-95.63,749.08-95.61L576,5.78c-42.79,37-118.59,39.69-139.57,39.59h0l-3.16,0-14.78,9.58-153.24-89,116-70.53-1.25-1.16-56.63-31.63Z"/><path class="cls-44" d="M502.49-240.85s246.4,145.2,246.4,145.23L576,5.7c-42.77,37-118.57,39.66-139.49,39.56h0l-3.16,0L418.57,54.8,265.48-34.13l116-70.49-1.22-1.17-56.6-31.61Z"/><path class="cls-45" d="M502.48-240.71S748.7-95.66,748.7-95.63L575.93,5.61c-42.75,37-118.54,39.63-139.41,39.54h0l-3.15,0-14.75,9.56L265.68-34.17l115.91-70.44-1.19-1.16-56.56-31.6Z"/><path class="cls-46" d="M502.47-240.56s246,144.9,246,144.93L575.87,5.53C533.14,42.51,457.36,45.13,436.53,45h0l-3.15,0-14.73,9.55L265.87-34.2l115.84-70.4-1.16-1.17L324-137.35Z"/><path class="cls-47" d="M502.45-240.42S748.31-95.68,748.31-95.65L575.81,5.44C533.09,42.41,457.33,45,436.55,44.92h0l-3.15,0-14.71,9.54L266.06-34.23,381.83-104.6l-1.13-1.16-56.5-31.56Z"/><path class="cls-48" d="M502.44-240.28S748.13-95.69,748.13-95.66L575.75,5.35c-42.69,37-118.45,39.55-139.18,39.46h0l-3.15,0-14.7,9.52L266.26-34.27,382-104.59l-1.1-1.17L324.4-137.29Z"/><path class="cls-49" d="M502.43-240.14S747.94-95.7,747.94-95.67L575.7,5.27C533,42.21,457.27,44.8,436.59,44.7h0l-3.14,0-14.68,9.51L266.46-34.3l115.64-70.28L381-105.75l-56.43-31.52Z"/><path class="cls-50" d="M502.42-240S747.75-95.72,747.75-95.68L575.64,5.18c-42.66,36.93-118.4,39.5-139,39.41h0l-3.14,0-14.66,9.5L266.65-34.34l115.57-70.24-1-1.17-56.4-31.5Z"/><path class="cls-51" d="M502.4-239.86S747.55-95.73,747.55-95.69L575.58,5.09C532.94,42,457.21,44.57,436.63,44.47h0l-3.14,0-14.64,9.49-152-88.31,115.5-70.2-1-1.16L325-137.21Z"/><path class="cls-52" d="M502.39-239.72s245,144,245,144L575.53,5c-42.62,36.9-118.34,39.45-138.87,39.35h0l-3.14,0-14.62,9.48L267-34.4l115.43-70.16-1-1.17-56.33-31.46Z"/><path class="cls-53" d="M502.38-239.58S747.18-95.75,747.18-95.71L575.47,4.92c-42.6,36.89-118.31,39.43-138.8,39.33h0l-3.14,0-14.61,9.47L267.24-34.44,382.6-104.55l-.95-1.17-56.3-31.44Z"/><path class="cls-54" d="M502.37-239.44S747-95.76,747-95.73L575.42,4.84c-42.58,36.87-118.28,39.4-138.72,39.3h0l-3.13,0L419,53.56l-151.54-88,115.3-70.07-.92-1.17-56.26-31.42Z"/><path class="cls-55" d="M502.35-239.3S746.8-95.78,746.8-95.74L575.35,4.75C532.79,41.61,457.1,44.12,436.71,44h0l-3.13,0L419,53.44,267.62-34.51l115.23-70-.89-1.17-56.23-31.4Z"/><path class="cls-56" d="M502.34-239.16S746.61-95.79,746.61-95.75L575.3,4.66C532.76,41.51,457.07,44,436.73,43.91h0l-3.13,0-14.55,9.43L267.82-34.54l115.16-70-.86-1.17-56.19-31.39Z"/><path class="cls-57" d="M502.33-239S746.42-95.8,746.42-95.76L575.25,4.58C532.72,41.41,457,43.9,436.76,43.8h0l-3.13,0-14.53,9.42L268-34.58l115.09-69.95-.83-1.17-56.16-31.37Z"/><path class="cls-58" d="M502.32-238.88S746.23-95.81,746.23-95.77L575.19,4.49C532.69,41.31,457,43.79,436.78,43.69h0l-3.12,0-14.52,9.41L268.22-34.61l115-69.91-.8-1.17L326.31-137Z"/><path class="cls-59" d="M502.3-238.74S746-95.82,746-95.78L575.13,4.41C532.64,41.21,457,43.68,436.79,43.57h0l-3.12,0-14.5,9.4L268.4-34.64l115-69.87-.77-1.17L326.5-137Z"/><path class="cls-60" d="M502.29-238.6S745.85-95.84,745.85-95.79L575.07,4.32C532.61,41.11,457,43.56,436.82,43.46h0l-3.12,0-14.48,9.39L268.6-34.68,383.49-104.5l-.74-1.17L326.69-137Z"/><path class="cls-61" d="M502.28-238.46S745.66-95.85,745.66-95.8L575,4.23C532.57,41,456.93,43.45,436.84,43.35h0l-3.12,0-14.46,9.38L268.8-34.71,383.62-104.5l-.71-1.17-56-31.29Z"/><path class="cls-62" d="M502.27-238.32S745.47-95.86,745.47-95.81L575,4.15c-42.43,36.76-118.06,39.19-138.1,39.09h0l-3.12,0L419.3,52.57,269-34.75l114.76-69.74-.68-1.17-56-31.27Z"/><path class="cls-63" d="M502.25-238.17s243,142.3,243,142.35L574.9,4.06c-42.41,36.75-118,39.17-138,39.06h0l-3.11,0-14.43,9.35L269.18-34.78l114.69-69.7-.65-1.17-56-31.25Z"/><path class="cls-64" d="M502.24-238S745.09-95.88,745.09-95.83L574.85,4c-42.39,36.74-118,39.14-137.95,39h0l-3.11,0-14.41,9.34-150-87.14L384-104.48l-.62-1.17-55.93-31.23Z"/><path class="cls-65" d="M502.23-237.89s242.68,142,242.68,142L574.79,3.89c-42.37,36.72-118,39.11-137.87,39h0l-3.11,0L419.42,52.2l-149.84-87,114.55-69.62-.59-1.17-55.89-31.21Z"/><path class="cls-66" d="M502.21-237.75s242.5,141.85,242.5,141.9L574.73,3.8c-42.35,36.71-117.95,39.09-137.79,39h0l-3.11,0-14.37,9.32-149.68-87,114.49-69.58-.56-1.16-55.86-31.19Z"/><path class="cls-67" d="M502.2-237.61S744.52-95.92,744.52-95.87L574.67,3.72c-42.33,36.7-117.92,39.06-137.72,39h0l-3.11,0-14.36,9.31L270-34.92l114.42-69.54-.53-1.17L328-136.79Z"/><path class="cls-68" d="M502.19-237.47S744.33-95.93,744.33-95.88L574.62,3.63C532.31,40.31,456.73,42.67,437,42.56h0l-3.1,0-14.34,9.3L270.16-35l114.35-69.5-.5-1.16-55.79-31.15Z"/><path class="cls-69" d="M502.18-237.33s242,141.39,242,141.44L574.57,3.54C532.28,40.21,456.7,42.55,437,42.45h0l-3.1,0L419.58,51.7,270.36-35l114.28-69.46-.47-1.17-55.76-31.14Z"/><path class="cls-70" d="M502.16-237.19S743.95-96,743.95-95.9L574.5,3.46C532.23,40.11,456.67,42.44,437,42.34h0l-3.1,0-14.3,9.27L270.55-35l114.21-69.42-.44-1.16L328.6-136.72Z"/><path class="cls-71" d="M502.15-237S743.76-96,743.76-95.91L574.45,3.37C532.2,40,456.64,42.33,437,42.22h0l-3.1,0-14.29,9.26L270.75-35.05l114.15-69.37-.41-1.17-55.69-31.1Z"/><path class="cls-72" d="M502.14-236.91S743.57-96,743.57-95.92L574.39,3.29C532.16,39.91,456.62,42.22,437.06,42.11h0l-3.09,0L419.7,51.33,270.94-35.09,385-104.42l-.38-1.17L329-136.66Z"/><path class="cls-73" d="M502.13-236.77S743.39-96,743.39-95.93L574.34,3.2C532.13,39.81,456.59,42.1,437.09,42h0c-1.48,0-2.54,0-3.09,0l-14.25,9.24L271.14-35.12l114-69.29-.35-1.17-55.63-31.06Z"/><path class="cls-74" d="M502.11-236.63S743.19-96,743.19-95.94L574.28,3.11C532.08,39.71,456.55,42,437.1,41.89h0c-1.49,0-2.54,0-3.09,0l-14.23,9.23L271.33-35.15l113.94-69.25-.32-1.17-55.59-31Z"/><path class="cls-75" d="M502.1-236.49S743-96,743-96L574.22,3C532,39.61,456.53,41.88,437.12,41.77h0c-1.49,0-2.54,0-3.09,0L419.82,51,271.53-35.19,385.4-104.4l-.29-1.17-55.56-31Z"/><path class="cls-76" d="M502.09-236.35S742.81-96,742.81-96L574.17,2.94C532,39.51,456.5,41.77,437.14,41.66h0c-1.49,0-2.54,0-3.09,0l-14.2,9.21L271.73-35.22l113.81-69.17-.26-1.17-55.53-31Z"/><path class="cls-77" d="M502.08-236.21S742.63-96,742.63-96L574.11,2.85C532,39.41,456.48,41.66,437.17,41.55h0c-1.5,0-2.55,0-3.08,0l-14.18,9.2-148-86,113.74-69.13-.23-1.17-55.49-31Z"/><path class="cls-78" d="M502.06-236.07S742.43-96,742.43-96L574,2.77C531.93,39.31,456.44,41.54,437.18,41.44h0c-1.5,0-2.55,0-3.08,0l-14.16,9.18L272.11-35.29l113.67-69.09-.2-1.17-55.46-31Z"/><path class="cls-79" d="M502-235.92S742.24-96.06,742.24-96L574,2.68C531.9,39.21,456.41,41.43,437.2,41.33h0c-1.5,0-2.55,0-3.08,0L420,50.46,272.31-35.33l113.6-69-.17-1.17-55.43-30.94Z"/><path class="cls-80" d="M502-235.78s240,139.71,240,139.77L573.94,2.6C531.86,39.11,456.39,41.32,437.23,41.21h0c-1.51,0-2.55,0-3.08,0L420,50.34,272.51-35.36l113.54-69-.14-1.17-55.39-30.92Z"/><path class="cls-81" d="M502-235.64S741.86-96.08,741.86-96l-168,98.53C531.82,39,456.35,41.21,437.24,41.1h0c-1.51,0-2.56,0-3.08,0l-14.11,9.15L272.69-35.39l113.47-69-.11-1.17-55.36-30.9Z"/><path class="cls-82" d="M502-235.5S741.67-96.1,741.67-96L573.82,2.42c-42,36.49-117.5,38.67-136.56,38.56h0c-1.51,0-2.56,0-3.07,0L420.1,50.09,272.89-35.43l113.4-68.92-.08-1.17L330.89-136.4Z"/><path class="cls-83" d="M502-235.36S741.48-96.11,741.48-96L573.77,2.34C531.75,38.82,456.3,41,437.28,40.88h0c-1.51,0-2.56,0-3.07,0L420.14,50l-147-85.43,113.33-68.88-.05-1.17-55.29-30.87Z"/><path class="cls-84" d="M502-235.22S741.3-96.12,741.3-96.05L573.71,2.25c-42,36.46-117.44,38.62-136.41,38.51h0c-1.52,0-2.56,0-3.07,0l-14.05,9.12L273.29-35.5l113.26-68.84,0-1.17-55.26-30.85Z"/><path class="cls-85" d="M502-235.08S741.1-96.13,741.1-96.06L573.65,2.17c-42,36.45-117.41,38.59-136.33,38.49h0c-1.52,0-2.57,0-3.07,0l-14,9.1L273.47-35.53l113.2-68.8v-1.17l-55.22-30.83Z"/><path class="cls-86" d="M502-234.94s239,138.8,239,138.87L573.6,2.08c-42,36.44-117.38,38.57-136.25,38.46h0c-1.52,0-2.57,0-3.06,0l-14,9.09L273.67-35.56,386.8-104.32l0-1.17-55.19-30.81Z"/><path class="cls-87" d="M501.95-234.8S740.72-96.16,740.72-96.09L573.54,2C531.6,38.42,456.19,40.53,437.37,40.43h0c-1.53,0-2.57,0-3.06,0l-14,9.08L273.87-35.6l113.06-68.71.07-1.17-55.16-30.79Z"/><path class="cls-88" d="M501.94-234.66S740.54-96.17,740.54-96.1l-167.05,98c-41.93,36.41-117.33,38.52-136.1,38.41h0c-1.53,0-2.57,0-3.06,0l-14,9.07-146.27-85,113-68.67.1-1.17L332-136.24Z"/><path class="cls-89" d="M501.92-234.52S740.34-96.18,740.34-96.11L573.42,1.82c-41.91,36.39-117.3,38.49-136,38.38h0c-1.53,0-2.58,0-3.06,0l-14,9.06L274.26-35.67,387.18-104.3l.13-1.17-55.09-30.75Z"/><path class="cls-90" d="M501.91-234.38S740.15-96.19,740.15-96.12L573.37,1.73C531.48,38.12,456.1,40.2,437.43,40.09h0c-1.54,0-2.58,0-3.06,0l-13.95,9-146-84.8,112.86-68.59.16-1.17-55.06-30.73Z"/><path class="cls-91" d="M501.9-234.24S740-96.2,740-96.13L573.31,1.65C531.45,38,456.07,40.09,437.45,40h0c-1.54,0-2.58,0-3.06,0l-13.93,9L274.65-35.73l112.79-68.55.19-1.17-55-30.71Z"/><path class="cls-92" d="M501.89-234.1s237.89,137.88,237.89,138L573.26,1.56C531.41,37.92,456,40,437.47,39.86h0c-1.54,0-2.58,0-3.05,0l-13.91,9L274.85-35.77l112.72-68.51.22-1.17-55-30.69Z"/><path class="cls-93" d="M501.87-234S739.58-96.23,739.58-96.15L573.2,1.48C531.37,37.82,456,39.86,437.48,39.75h0c-1.54,0-2.59,0-3.05,0l-13.9,9L275-35.8l112.66-68.47.25-1.17-55-30.67Z"/><path class="cls-94" d="M501.86-233.82S739.39-96.24,739.39-96.16L573.14,1.39C531.33,37.72,456,39.71,437.51,39.64h0c-1.55,0-2.59,0-3,0l-13.88,9L275.23-35.84l112.59-68.43.28-1.17-54.92-30.65Z"/><path class="cls-95" d="M501.85-233.68S739.21-96.25,739.21-96.17L573.09,1.3C531.3,37.62,456,39.6,437.53,39.53h0c-1.55,0-2.59,0-3,0l-13.86,9L275.43-35.87,388-104.26l.31-1.17-54.89-30.64Z"/><path class="cls-96" d="M501.83-233.53S739-96.26,739-96.18L573,1.22c-41.77,36.3-117.1,38.27-135.48,38.2h0c-1.55,0-2.6,0-3,0l-13.84,9-145-84.26,112.45-68.35.34-1.17L333.55-136Z"/><path class="cls-97" d="M501.82-233.39s237,137.12,237,137.2L573,1.13C531.22,37.42,455.9,39.38,437.57,39.3h0c-1.56,0-2.6,0-3,0l-13.82,9L275.82-35.94l112.38-68.3.37-1.17L333.75-136Z"/><path class="cls-98" d="M501.81-233.25s236.83,137,236.83,137L572.92,1c-41.73,36.27-117,38.22-135.33,38.14h0c-1.56,0-2.6,0-3,0l-13.81,9L276-36l112.32-68.26.4-1.17L333.94-136Z"/><path class="cls-99" d="M501.8-233.11S738.45-96.3,738.45-96.22L572.86,1c-41.71,36.26-117,38.2-135.25,38.12h0c-1.56,0-2.6,0-3,0L420.78,48,276.21-36l112.25-68.22.43-1.17L334.13-136Z"/><path class="cls-100" d="M501.78-233S738.25-96.31,738.25-96.23L572.8.87C531.1,37.12,455.81,39,437.63,39h0c-1.57,0-2.6,0-3,0l-13.77,8.93L276.4-36l112.18-68.18.46-1.17-54.72-30.54Z"/><path class="cls-101" d="M501.77-232.83S738.06-96.32,738.06-96.24L572.74.79C531.07,37,455.78,38.93,437.65,38.85h0c-1.57,0-2.61,0-3,0l-13.75,8.92L276.6-36.08l112.11-68.14.49-1.17L334.51-135.9Z"/><path class="cls-102" d="M501.76-232.69S737.88-96.34,737.88-96.25L572.69.7c-41.66,36.22-116.93,38.12-135,38h0c-1.57,0-2.61,0-3,0L420.9,47.61,276.8-36.11l112-68.1.52-1.17-54.66-30.5Z"/><path class="cls-103" d="M501.75-232.55S737.69-96.35,737.69-96.26L572.64.61c-41.64,36.2-116.9,38.1-134.94,38h0c-1.57,0-2.61,0-3,0l-13.72,8.9L277-36.14,389-104.2l.55-1.17L334.9-135.85Z"/><path class="cls-104" d="M501.73-232.41S737.49-96.36,737.49-96.27L572.57.53C531,36.72,455.7,38.6,437.71,38.51h0c-1.58,0-2.62,0-3,0L421,47.36,277.18-36.18l111.91-68,.58-1.17-54.59-30.46Z"/><path class="cls-105" d="M501.72-232.27S737.3-96.37,737.3-96.28L572.52.44c-41.6,36.18-116.85,38-134.79,38h0c-1.58,0-2.62,0-3,0L421,47.24,277.38-36.21l111.84-68,.61-1.17L335.27-135.8Z"/><path class="cls-106" d="M501.71-232.13S737.12-96.38,737.12-96.29L572.46.36c-41.58,36.16-116.82,38-134.71,37.93h0c-1.58,0-2.62,0-3,0l-13.66,8.86L277.58-36.25l111.77-67.93.64-1.17-54.52-30.42Z"/><path class="cls-107" d="M501.7-232S736.93-96.39,736.93-96.31L572.41.27c-41.56,36.15-116.79,38-134.63,37.91h0c-1.59,0-2.62,0-3,0L421.11,47,277.78-36.28l111.71-67.89.67-1.17-54.49-30.4Z"/><path class="cls-108" d="M501.68-231.85S736.73-96.41,736.73-96.32L572.34.18c-41.54,36.14-116.76,38-134.56,37.88h0c-1.59,0-2.62,0-3,0l-13.63,8.84L278-36.31,389.6-104.16l.7-1.17-54.45-30.39Z"/><path class="cls-109" d="M501.67-231.71S736.55-96.42,736.55-96.33L572.29.1C530.77,36.22,455.56,38,437.81,38h0c-1.59,0-2.63,0-3,0l-13.61,8.83-143-83.09,111.57-67.81.72-1.17L336-135.69Z"/><path class="cls-110" d="M501.66-231.57S736.36-96.43,736.36-96.34L572.24,0c-41.5,36.11-116.71,37.92-134.4,37.83h0c-1.59,0-2.63,0-3,0l-13.59,8.82-142.87-83,111.5-67.77.76-1.17-54.39-30.35Z"/><path class="cls-111" d="M501.64-231.43s234.52,135,234.52,135.08L572.17-.07C530.69,36,455.49,37.82,437.85,37.73h0c-1.6,0-2.63,0-3,0l-13.57,8.81L278.55-36.42,390-104.14l.78-1.17-54.35-30.33Z"/><path class="cls-112" d="M501.63-231.29S736-96.45,736-96.36L572.12-.16C530.65,35.92,455.47,37.71,437.87,37.61h0c-1.6,0-2.64,0-3,0l-13.56,8.8L278.74-36.45l111.37-67.69.81-1.17-54.32-30.31Z"/><path class="cls-113" d="M501.62-231.14S735.79-96.47,735.79-96.37L572.06-.25C530.62,35.82,455.44,37.59,437.89,37.5h0c-1.6,0-2.64,0-3,0l-13.54,8.79L278.94-36.48l111.3-67.65.84-1.17L336.8-135.59Z"/><path class="cls-114" d="M501.61-231s234,134.53,234,134.62L572-.33C530.58,35.72,455.42,37.48,437.92,37.39h0c-1.61,0-2.64,0-3,0l-13.52,8.77L279.14-36.52l111.23-67.6.88-1.17L337-135.56Z"/><path class="cls-115" d="M501.59-230.86S735.4-96.49,735.4-96.39L571.95-.42c-41.41,36-116.56,37.79-134,37.7h0c-1.61,0-2.64,0-3,0L421.42,46,279.33-36.55l111.17-67.56.9-1.17-54.22-30.25Z"/><path class="cls-116" d="M501.58-230.72S735.22-96.5,735.22-96.4L571.89-.51C530.5,35.52,455.35,37.26,438,37.17h0c-1.61,0-2.65,0-3,0l-13.48,8.75L279.52-36.59l111.1-67.52.93-1.17-54.19-30.23Z"/><path class="cls-117" d="M501.57-230.58S735-96.51,735-96.41L571.84-.59C530.47,35.42,455.33,37.15,438,37.05h0c-1.62,0-2.65,0-3,0l-13.47,8.74L279.72-36.62l111-67.48,1-1.17-54.15-30.21Z"/><path class="cls-118" d="M501.56-230.44s233.28,133.92,233.28,134L571.78-.68C530.43,35.32,455.3,37,438,36.94h0c-1.62,0-2.65,0-3,0l-13.45,8.73L279.92-36.65l111-67.44,1-1.17-54.12-30.19Z"/><path class="cls-119" d="M501.54-230.3S734.64-96.54,734.64-96.44L571.72-.76C530.39,35.22,455.27,36.93,438,36.83h0c-1.62,0-2.65,0-3,0L421.58,45.5,280.11-36.69,391-104.09l1-1.17-54.09-30.17Z"/><path class="cls-120" d="M501.53-230.16S734.46-96.55,734.46-96.45L571.66-.85C530.35,35.12,455.24,36.81,438,36.72h0c-1.62,0-2.66,0-3,0l-13.41,8.71L280.31-36.72l110.83-67.36,1.05-1.17L338.13-135.4Z"/><path class="cls-121" d="M501.52-230S734.27-96.56,734.27-96.46L571.61-.94C530.32,35,455.21,36.7,438.06,36.6h0c-1.63,0-2.66,0-3,0l-13.4,8.69-141.17-82,110.76-67.32,1.08-1.17-54-30.14Z"/><path class="cls-122" d="M501.51-229.88S734.08-96.57,734.08-96.47L571.56-1C530.28,34.92,455.19,36.59,438.08,36.49h0c-1.63,0-2.66,0-3,0l-13.38,8.68-141-81.92,110.69-67.27,1.11-1.17-54-30.12Z"/><path class="cls-123" d="M501.49-229.74S733.88-96.58,733.88-96.48L571.49-1.11c-41.25,35.93-116.34,37.59-133.4,37.49h0c-1.63,0-2.66,0-3,0L421.74,45,280.89-36.83l110.62-67.23,1.14-1.17-54-30.1Z"/><path class="cls-124" d="M501.48-229.6S733.7-96.6,733.7-96.49L571.44-1.19C530.2,34.72,455.13,36.37,438.12,36.27h0c-1.64,0-2.67,0-3,0l-13.34,8.66L281.09-36.86l110.56-67.19,1.17-1.17L338.9-135.3Z"/><path class="cls-125" d="M501.47-229.46s232,132.85,232,133L571.38-1.28C530.17,34.62,455.1,36.26,438.14,36.15h0c-1.64,0-2.67,0-3,0l-13.32,8.65L281.28-36.89,391.77-104l1.2-1.17-53.89-30.06Z"/><path class="cls-126" d="M501.46-229.32S733.32-96.62,733.32-96.51l-162,95.15C530.13,34.52,455.07,36.15,438.16,36h0c-1.64,0-2.67,0-3,0l-13.31,8.64L281.48-36.93,391.9-104l1.23-1.17-53.85-30Z"/><path class="cls-127" d="M501.44-229.18S733.13-96.63,733.13-96.52L571.27-1.45C530.09,34.42,455,36,438.18,35.93h0c-1.65,0-2.67,0-3,0l-13.29,8.63L281.67-37,392-104l1.26-1.17-53.82-30Z"/><path class="cls-128" d="M501.43-229S732.94-96.64,732.94-96.53l-161.73,95C530.05,34.32,455,35.92,438.2,35.82h0c-1.65,0-2.68,0-3,0l-13.27,8.61L281.87-37l110.28-67,1.29-1.17-53.79-30Z"/><path class="cls-129" d="M501.42-228.89S732.75-96.66,732.75-96.55L571.16-1.62C530,34.22,455,35.81,438.22,35.7h0c-1.65,0-2.68,0-3,0L422,44.26,282.07-37l110.22-67,1.32-1.17-53.75-30Z"/><path class="cls-130" d="M501.4-228.75S732.55-96.67,732.55-96.56L571.09-1.71C530,34.12,455,35.7,438.23,35.59h0c-1.66,0-2.68,0-3,0L422,44.13,282.25-37.06,392.4-104l1.35-1.17-53.72-30Z"/><path class="cls-131" d="M501.39-228.61s231,131.93,231,132L571-1.8C529.94,34,454.92,35.59,438.26,35.48h0c-1.66,0-2.68,0-3,0L422.07,44,282.45-37.1,392.53-104l1.38-1.17-53.68-29.94Z"/><path class="cls-132" d="M501.38-228.47s230.8,131.78,230.8,131.9L571-1.88C529.9,33.92,454.9,35.48,438.28,35.37h0c-1.66,0-2.69,0-3,0l-13.2,8.57-139.46-81,110-66.86,1.41-1.17-53.65-29.93Z"/><path class="cls-133" d="M501.37-228.33S732-96.7,732-96.59L570.93-2C529.87,33.82,454.87,35.36,438.3,35.25h0c-1.67,0-2.69,0-3,0l-13.18,8.56L282.85-37.17,392.79-104l1.44-1.17-53.62-29.91Z"/><path class="cls-134" d="M501.35-228.19S731.8-96.72,731.8-96.6L570.87-2.06c-41,35.78-116,37.31-132.55,37.2h0c-1.67,0-2.69,0-3,0l-13.17,8.55L283-37.2,392.91-104l1.47-1.17L340.8-135Z"/><path class="cls-135" d="M501.34-228.05S731.61-96.73,731.61-96.61L570.81-2.14c-41,35.77-116,37.28-132.47,37.17h0c-1.67,0-2.69,0-3,0l-13.15,8.53-139-80.75L393-104l1.5-1.17L341-135Z"/><path class="cls-136" d="M501.33-227.91S731.42-96.74,731.42-96.62L570.76-2.23c-41,35.75-116,37.26-132.4,37.15h0c-1.67,0-2.7,0-3,0l-13.13,8.52L283.43-37.27,393.17-104l1.53-1.17L341.19-135Z"/><path class="cls-137" d="M501.32-227.77s229.92,131,229.92,131.14L570.7-2.32c-41,35.74-115.95,37.23-132.32,37.12h0c-1.68,0-2.7,0-3,0l-13.11,8.51L283.63-37.3,393.3-104l1.56-1.17L341.38-135Z"/><path class="cls-138" d="M501.3-227.63S731-96.76,731-96.64L570.64-2.4c-41,35.73-115.92,37.21-132.24,37.09h0c-1.68,0-2.7,0-3,0l-13.09,8.5L283.81-37.34,393.42-104l1.59-1.17-53.45-29.81Z"/><path class="cls-139" d="M501.29-227.49S730.85-96.77,730.85-96.65L570.59-2.49C529.64,33.23,454.7,34.7,438.42,34.58h0c-1.68,0-2.7,0-3,0L422.39,43,284-37.37l109.54-66.57,1.62-1.17L341.76-134.9Z"/><path class="cls-140" d="M501.28-227.35S730.66-96.79,730.66-96.67L570.53-2.57c-40.93,35.7-115.86,37.16-132.09,37h0c-1.69,0-2.71,0-2.95,0l-13.06,8.48L284.21-37.4l109.47-66.53,1.65-1.17L342-134.88Z"/><path class="cls-141" d="M501.27-227.21S730.47-96.8,730.47-96.68l-160,94c-40.91,35.68-115.83,37.13-132,37h0c-1.69,0-2.71,0-2.95,0l-13,8.46L284.41-37.44l109.4-66.49,1.68-1.17-53.35-29.75Z"/><path class="cls-142" d="M501.25-227.07s229,130.26,229,130.38L570.41-2.75c-40.89,35.67-115.8,37.11-131.93,37h0c-1.69,0-2.71,0-2.95,0l-13,8.45L284.6-37.47l109.34-66.45,1.71-1.17-53.32-29.73Z"/><path class="cls-143" d="M501.24-226.93S730.09-96.82,730.09-96.7L570.36-2.83c-40.87,35.66-115.78,37.08-131.86,37h0c-1.69,0-2.71,0-2.94,0l-13,8.44-137.76-80,109.27-66.41,1.74-1.17L342.52-134.8Z"/><path class="cls-144" d="M501.23-226.79S729.9-96.84,729.9-96.71L570.31-2.92C529.46,32.73,454.56,34.14,438.53,34h0c-1.7,0-2.72,0-2.94-.05l-13,8.43L285-37.54l109.2-66.37,1.77-1.17-53.25-29.69Z"/><path class="cls-145" d="M501.21-226.65s228.5,129.8,228.5,129.93L570.24-3C529.41,32.63,454.52,34,438.54,33.9h0c-1.7,0-2.72,0-2.94,0l-13,8.42L285.18-37.58,394.31-103.9l1.8-1.17L342.9-134.75Z"/><path class="cls-146" d="M501.2-226.5S729.52-96.86,729.52-96.73L570.19-3.09c-40.81,35.62-115.69,37-131.62,36.88h0c-1.7,0-2.72,0-2.94-.05l-13,8.41L285.38-37.61l109.07-66.29,1.83-1.17-53.18-29.66Z"/><path class="cls-147" d="M501.19-226.36S729.33-96.87,729.33-96.74L570.13-3.18c-40.79,35.6-115.66,37-131.55,36.86h0c-1.71,0-2.72,0-2.94-.05L422.71,42,285.57-37.64l109-66.24,1.86-1.17-53.15-29.64Z"/><path class="cls-148" d="M501.18-226.22s228,129.34,228,129.47L570.08-3.26c-40.77,35.59-115.64,37-131.47,36.83h0c-1.71,0-2.73,0-2.93-.05L422.76,41.9l-137-79.58,108.93-66.2,1.89-1.17-53.11-29.62Z"/><path class="cls-149" d="M501.16-226.08l-157.5,91.44L396.74-105,286-37.71,422.79,41.78l12.9-8.37c2.07.07,89.15,2.68,134.33-36.75L728.95-96.76v-.13Z"/></g></g><polygon class="cls-150" points="277.46 -42.77 277.46 -35.14 419.54 47.4 419.53 38.63 277.46 -42.77"/><polygon class="cls-151" points="701.01 -142.71 564.27 -218.89 480.29 -213.48 478.61 -165.54 277.46 -42.77 419.53 38.63 701.01 -142.71"/></g><rect class="cls-152" x="1" y="1" width="376.72" height="146.19" rx="9.3" ry="9.3"/><path class="cls-153" d="M369.77,156.85H303.53a1,1,0,1,1,0-2h66.24a1,1,0,0,1,0,2Z"/><path class="cls-153" d="M309.89,161.5H286.32a1,1,0,1,1,0-2h23.57a1,1,0,1,1,0,2Z"/><path class="cls-153" d="M292.17,156.16h-5.85a1,1,0,1,1,0-2h5.85a1,1,0,0,1,0,2Z"/><path class="cls-153" d="M278.41,163.22h-3.27a1,1,0,1,1,0-2h3.27a1,1,0,1,1,0,2Z"/></g></g></svg>