<svg xmlns="http://www.w3.org/2000/svg" xmlns:xlink="http://www.w3.org/1999/xlink" viewBox="0 0 392.62 93.28"><defs><style>.cls-1{fill:none;}.cls-2{isolation:isolate;}.cls-3{clip-path:url(#clip-path);}.cls-4{opacity:0.31;mix-blend-mode:multiply;}.cls-5{fill:#fff;stroke:#00953a;stroke-miterlimit:10;stroke-width:2px;}.cls-6{fill:#00953a;}</style><clipPath id="clip-path"><rect class="cls-1" x="-679.6" y="-870.89" width="1347.46" height="660.34"/></clipPath></defs><title>Pantalla 52.2-Sensibilidad</title><g class="cls-2"><g id="Capa_1" data-name="Capa 1"><rect class="cls-5" x="1" y="16.02" width="390.62" height="76.26" rx="9.3" ry="9.3"/><path class="cls-6" d="M122.64,2.71h-77a1.1,1.1,0,0,1-1.17-1,1.1,1.1,0,0,1,1.17-1h77a1.1,1.1,0,0,1,1.17,1A1.1,1.1,0,0,1,122.64,2.71Z"/><path class="cls-6" d="M53.07,7.35H25.69a1.1,1.1,0,0,1-1.17-1,1.1,1.1,0,0,1,1.17-1H53.07a1.1,1.1,0,0,1,1.17,1A1.1,1.1,0,0,1,53.07,7.35Z"/><path class="cls-6" d="M32.49,2h-6.8a1.1,1.1,0,0,1-1.17-1,1.1,1.1,0,0,1,1.17-1h6.8a1.1,1.1,0,0,1,1.17,1A1.1,1.1,0,0,1,32.49,2Z"/><path class="cls-6" d="M16.49,9.08H12.7a1.1,1.1,0,0,1-1.17-1,1.1,1.1,0,0,1,1.17-1h3.8a1.1,1.1,0,0,1,1.17,1A1.1,1.1,0,0,1,16.49,9.08Z"/></g></g></svg>