<svg xmlns="http://www.w3.org/2000/svg" xmlns:xlink="http://www.w3.org/1999/xlink" viewBox="0 0 437.86 253.63"><defs><style>.cls-1{fill:none;}.cls-2{isolation:isolate;}.cls-3{clip-path:url(#clip-path);}.cls-4{opacity:0.47;}.cls-5{clip-path:url(#clip-path-2);}.cls-6{clip-path:url(#clip-path-3);}.cls-7{opacity:0.31;}.cls-12,.cls-7{mix-blend-mode:multiply;}.cls-8{opacity:0.7;}.cls-9{opacity:0.36;}.cls-10{clip-path:url(#clip-path-4);}.cls-11{clip-path:url(#clip-path-5);}.cls-12,.cls-14{opacity:0.5;}.cls-13{clip-path:url(#clip-path-6);}.cls-14{mix-blend-mode:overlay;}.cls-15{clip-path:url(#clip-path-7);}.cls-16{opacity:0.75;}.cls-17{fill:#70655f;}.cls-18{opacity:0.92;}.cls-19{clip-path:url(#clip-path-9);}.cls-20{opacity:0.94;}.cls-21{clip-path:url(#clip-path-10);}.cls-22{opacity:0.79;}.cls-23{clip-path:url(#clip-path-11);}.cls-24{opacity:0.76;}.cls-25{clip-path:url(#clip-path-12);}.cls-26{opacity:0.95;}.cls-27{clip-path:url(#clip-path-13);}.cls-28{fill:#42311c;}.cls-29{fill:#fff;stroke:#00953a;stroke-miterlimit:10;stroke-width:2px;}.cls-30{fill:#00953a;}</style><clipPath id="clip-path"><rect class="cls-1" x="-1691.79" y="-700.73" width="1347.46" height="660.34"/></clipPath><clipPath id="clip-path-2"><rect class="cls-1" x="-380.96" y="-364.89" width="589.7" height="376.68"/></clipPath><clipPath id="clip-path-3"><rect class="cls-1" x="-172.03" y="-700.73" width="1347.46" height="660.34"/></clipPath><clipPath id="clip-path-4"><rect class="cls-1" x="414.01" y="-364.89" width="559.7" height="376.68"/></clipPath><clipPath id="clip-path-5"><rect class="cls-1" x="-172.03" y="-324.6" width="265.36" height="284.21"/></clipPath><clipPath id="clip-path-6"><path class="cls-1" d="M-144.51-101.67C-153.45-93.54-165-78-171.64-71.93l-.39.36v31.18h5.64a150,150,0,0,1,11.93-12.68c6.67-6,23.21-16.09,32.15-24.23,20.53-18.69,26.11-33.76,20-40.49a10,10,0,0,0-7.75-3c-8,0-19.94,5.95-34.42,19.13"/></clipPath><clipPath id="clip-path-7"><rect class="cls-1" x="-293.64" y="-237.19" width="344.03" height="323.77"/></clipPath><clipPath id="clip-path-9"><rect class="cls-1" x="-284.74" y="-228.75" width="324.73" height="306.99"/></clipPath><clipPath id="clip-path-10"><rect class="cls-1" x="-275.72" y="-220.35" width="307.67" height="290.18"/></clipPath><clipPath id="clip-path-11"><rect class="cls-1" x="-266.9" y="-211.93" width="289.79" height="273.34"/></clipPath><clipPath id="clip-path-12"><rect class="cls-1" x="-257.94" y="-204.08" width="272.94" height="257.11"/></clipPath><clipPath id="clip-path-13"><rect class="cls-1" x="-248.99" y="-196.07" width="255.55" height="240.67"/></clipPath></defs><title>Pantalla 52.3-capacidad</title><g class="cls-2"><g id="Capa_1" data-name="Capa 1"><g class="cls-13"><g class="cls-14"><g class="cls-15"><g class="cls-16"><g class="cls-15"><path class="cls-17" d="M44.5-232.3a16,16,0,0,1,4.35,6.94l0,0c2.62,9.29,1.8,17.63-2.33,24.11-2.65,4.2-5.28,8.74-8,13.86-.95,1.77-1.73,3.28-2.35,4.7l-.08.15c-2.29,3.86-2.89,8.47-3.56,13.36-1.07,7.78-2.13,15.83-10.39,20.67-6.6,4.17-12.25,9.34-18.26,16.67-1.33,1.59-2.53,3.13-3.65,4.65a110.09,110.09,0,0,1-15.1,22.51c-1.35,1.64-2.84,3.33-4.45,5.17l-.09.08-.06,0C-33.09-87.38-45-72.94-53.81-61.66l-.05,0c-.89,1-1.79,2-2.71,2.94-1.53,1.63-3,3.09-4.39,4.56l0,0,0,0c-4.36,3.95-9.12,7.78-13.66,11.45-11.49,9.27-23.36,18.84-31,31.52l-.09.13c-1.23,1.56-2.55,3.11-3.89,4.63-1.12,1.2-2.28,2.4-3.47,3.57l-.05.06,0,0C-121.21,4-124.38,13-127,21.7c-.37,1.26-.76,2.56-1.11,3.85l-.62,2c-1.31,2.65-2.07,6.12-2.86,9.8-1.89,8.79-4,18.74-15.43,18.09-4.6-.13-8.51-2.36-12.67-4.7a61.31,61.31,0,0,0-6.46-3.36l-.18-.06a38.53,38.53,0,0,0-5.37-2.42c-3.76-1.31-6.92-1.15-10,.48l-1.28.85-2.86,1.89c-51.38,34-88.71,46.2-102.36,33.63-6.79-6.22-7.25-17.67-1.38-34,5.44-15.13,16.42-34.43,31.8-55.88l.84-1.17,1.54-2.14a19,19,0,0,0,2.17-4,34.26,34.26,0,0,0,1.38-4.37l0-.1c1.26-3.89-1.38-6.65-4.46-9.84-.8-.84-1.61-1.71-2.35-2.59a11.39,11.39,0,0,1-2.7-4.93l-.05-.26,0-.22c1.21-9.19,9.42-12.63,17.36-16,4.53-1.9,8.81-3.7,11.77-6.48l.11-.1.16-.09c1.88-1.11,3.59-2.16,5.17-3.21,7.71-5.12,13-10.44,16.64-16.79l.11-.16c1.35-1.76,2.58-3.32,3.81-4.7a56.84,56.84,0,0,1,4.18-4.4l.09-.07a38,38,0,0,1,5-3.39c7-4.09,13.33-9.11,19.5-14,4-3.17,8.15-6.43,12.37-9.36,1.8-1.5,3.51-2.88,4.79-3.9a74.61,74.61,0,0,1,7.51-5.42c1.68-1.1,3.4-2.25,5-3.46,1.42-1,2.8-2,4.21-3,5.24-4.34,10.59-8.65,15.79-12.86,9.87-8,20.08-16.21,29.69-24.66l.1-.06,3.95-3.06,4-3,.21-.15c1.95-1,4-2.12,6-3.29l.06,0c17.8-9.16,31.3-20.53,40.08-33.75,1.49-2.12,2.7-3.85,3.77-5.52l.17-.26.25-.15a26.38,26.38,0,0,1,6-2.86,53,53,0,0,1,5.92-2.59l.11,0A41.75,41.75,0,0,1-17.2-225.7c4.76-.15,9.29-.31,13.39-3l.23-.11c2.47-1,4.9-2,7.17-2.82,19.8-7.2,33.55-7.45,40.91-.7m1.23,7.6a12.69,12.69,0,0,0-3.46-5.49c-6.2-5.69-19.07-5.21-37.3,1.45-2.2.79-4.53,1.71-6.9,2.69-4.83,3.08-9.95,3.23-14.91,3.39a39.48,39.48,0,0,0-9.5,1.1,50.68,50.68,0,0,0-5.61,2.46l-.21.08a24.26,24.26,0,0,0-5.15,2.42c-1,1.62-2.23,3.32-3.64,5.32C-50-197.68-63.85-186-82.06-176.6c-2,1.13-4,2.22-5.93,3.24-1.28,1-2.57,1.94-3.87,2.95s-2.62,2-3.9,3c-9.69,8.5-19.9,16.73-29.79,24.72-5.22,4.19-10.58,8.54-15.83,12.86l-.06,0c-1.4,1-2.86,2.09-4.23,3.06-1.67,1.23-3.43,2.39-5.13,3.52a67.84,67.84,0,0,0-7.25,5.24h0c-1.28,1-3,2.39-4.82,3.94l-.12.08c-4.17,2.88-8.3,6.13-12.32,9.31-6.23,4.89-12.65,9.95-19.81,14.15a39.24,39.24,0,0,0-4.55,3.1c-1.31,1.25-2.62,2.61-4,4.19-1.14,1.31-2.33,2.79-3.63,4.5-3.85,6.68-9.42,12.29-17.47,17.62-1.6,1.08-3.29,2.15-5.19,3.26-3.33,3.08-8,5-12.52,6.93-7.43,3.14-14.47,6.1-15.57,13.5a8.32,8.32,0,0,0,2,3.33c.64.79,1.39,1.58,2.19,2.41,3.11,3.25,7,7.3,5.2,12.82a28,28,0,0,1-1.47,4.69,22.67,22.67,0,0,1-2.46,4.53c-.52.73-1,1.45-1.56,2.16L-255-6.29c-30.93,43.17-42.51,75.31-31,86,5.94,5.44,18.1,5.22,35.24-.72s38.8-17.46,62.89-33.35c1-.65,1.9-1.28,2.86-1.89l1.45-1c3.91-2.09,8.13-2.33,12.8-.71a42.45,42.45,0,0,1,5.83,2.63,71.28,71.28,0,0,1,6.81,3.49c3.9,2.22,7.26,4.14,11,4.23,8.15.49,10.15-5.94,12.29-15.85.78-3.63,1.6-7.39,3-10.31l.49-1.68c.36-1.27.75-2.57,1.11-3.83,2.69-9.09,6.06-18.56,14.58-25.65,1.14-1.12,2.24-2.28,3.3-3.43,1.32-1.43,2.55-2.93,3.7-4.4,7.89-13.05,20-22.78,31.59-32.16,4.54-3.68,9.24-7.47,13.56-11.36,1.41-1.43,2.82-2.9,4.34-4.49.87-.92,1.75-1.89,2.61-2.82,8.89-11.33,20.83-25.88,34.58-38,1.61-1.79,3-3.43,4.4-5.05A106.52,106.52,0,0,0-2.74-128.69l.13-.2c1.19-1.61,2.45-3.2,3.82-4.86,6.24-7.6,12.09-12.93,19-17.3,7.11-4.19,8.08-11.23,9.09-18.71.66-4.91,1.34-10,3.89-14.3.67-1.47,1.39-3,2.39-4.82,2.79-5.15,5.47-9.75,8.15-14,3.71-5.8,4.38-13.33,2-21.8"/></g></g><g class="cls-18"><g class="cls-19"><path class="cls-17" d="M36-223.88l.13.31c4.44,9.26,5,19,1.71,29.82-.56,1.85-1.23,3.76-2,5.7l-.08.14c-2.1,4-3.27,8.44-4.39,12.8-1.66,6.3-3.37,12.83-7.87,18.16A186.48,186.48,0,0,1,9.21-141.15c-2.22,2.3-4.53,4.65-6.75,7-1.48,1.58-2.74,3-3.94,4.44a141,141,0,0,1-11,17.06c-1.31,1.75-2.72,3.56-4.17,5.39-4.93,5.62-10.21,11-15.32,16.13-8.7,8.83-17.76,18-25,28.44l-.12.13c-1,1.05-2,2.2-3.37,3.59-1.52,1.58-2.89,3-4.12,4.17l0,0h0c-4,3.49-8.14,6.89-12.16,10.17-11,8.95-22.33,18.21-30.74,29.83l-.07.1c-1.32,1.48-2.62,2.94-4,4.41-.9,1-1.81,2-2.75,3s-1.88,2-2.82,2.93l0,0-.06,0C-125.69,3-128,13.27-130.37,23.22l-.17.78c-.34,1.49-.69,3-1,4.42-.21.87-.36,1.73-.53,2.62-1.08,5.34-2.29,11.35-7.28,15.24-5.44,4.32-13.45,4-24.56-.9-1.43-.61-2.83-1.24-4.26-1.9s-2.81-1.19-4-1.58c-4.41-1.42-7.8-1.27-11,.52L-187.24,45c-21.86,14.05-41.64,24.19-57.15,29.27-16.77,5.49-28.58,5.22-35.11-.76-16.12-14.89,8.59-56.36,24.75-79.76l1.06-1.54c.5-.74,1-1.5,1.57-2.27.3-.45.61-.91,1-1.38,1.08-1.52,1.76-2.51,1.48-3.51l-.06-.36,0-.32a16.48,16.48,0,0,0,.34-4.72,31.51,31.51,0,0,0-.63-4.91c-.77-1.27-1.61-2.74-2.38-4.21a34.63,34.63,0,0,1-2-4.45,11.53,11.53,0,0,1-.71-8.31c1.41-5.28,7.94-7.49,11.9-8.81,2.09-.88,4.11-1.8,6-2.71,14-6.73,23.81-14.42,30-23.52l0-.07c1.19-1.55,2.35-3.09,3.52-4.59,1.32-1.69,2.52-3.16,3.64-4.5l.11-.09a55,55,0,0,1,4.7-4c1.76-1.38,3.51-2.81,5.31-4.24,8.42-6.76,17.1-13.72,26.72-19.3l4.39-3.45a37.11,37.11,0,0,1,7.1-5.43,46.16,46.16,0,0,0,5.42-3.89l.08-.07c1-.8,2.06-1.57,3.12-2.36s2-1.58,3-2.37c1.28-1,2.48-1.94,3.7-2.93l.09-.06a214.13,214.13,0,0,0,19.55-15.81,226.23,226.23,0,0,1,18.82-15.34c1.32-1.11,2.68-2.28,4-3.44l.71-.65c1.25-.94,2.49-1.85,3.71-2.78s2.23-1.64,3.36-2.45l.14-.1c16-8.87,32.55-18.77,44.65-33.66l0,0c1.56-1.72,2.88-3.25,4.08-4.69l.12-.15.17-.12c1.58-1.06,3.13-2,4.69-2.91,1.71-1,3.34-1.82,5-2.58A40.42,40.42,0,0,1-4.64-223c1.88-.69,3.88-1.37,5.86-2,12.59-4.06,22.44-4.83,29.23-2.28a15.59,15.59,0,0,1,5.33,3.2ZM32.8-189.36c.77-1.85,1.41-3.68,1.94-5.42,3-10,2.57-18.94-1.4-27.42a14,14,0,0,0-3.89-2.27c-6.05-2.26-15.11-1.49-27,2.36-2.06.66-4.16,1.39-6.14,2.11l-.39.13-.41-.08a37.39,37.39,0,0,0-21.16,3.42c-1.54.71-3.11,1.51-4.73,2.44-1.42.82-2.89,1.72-4.32,2.65-1.18,1.43-2.47,2.92-4,4.57C-51-191.62-67.84-181.58-84-172.58l-3.27,2.38c-1.2.88-2.42,1.81-3.63,2.7l-.61.58c-1.36,1.18-2.74,2.39-4.09,3.51l-.12.08a223.27,223.27,0,0,0-18.61,15.19,220.55,220.55,0,0,1-19.76,16l-3.69,2.93c-1,.8-2,1.58-3.06,2.38s-2.05,1.58-3.07,2.35a45.29,45.29,0,0,1-5.71,4.11,33,33,0,0,0-6.63,5.08l-.08.08-.09.06c-1.47,1.14-3,2.35-4.55,3.6l-.18.13c-9.44,5.43-18.11,12.38-26.43,19.06-1.78,1.45-3.56,2.86-5.34,4.25-1.49,1.16-3,2.46-4.45,3.82-1.08,1.26-2.22,2.69-3.48,4.32s-2.35,3-3.48,4.54c-6.55,9.52-16.74,17.52-31.19,24.49-1.93.93-4,1.86-6.13,2.79l-.15.05c-3.59,1.2-9,3-10,6.92a8.67,8.67,0,0,0,.5,6.34l.05.14a34.5,34.5,0,0,0,1.87,4.14c.79,1.49,1.66,3,2.44,4.28l.1.21.09.26a37,37,0,0,1,.76,5.62,21.11,21.11,0,0,1-.35,5.17c.39,2.17-.8,3.85-2,5.49a13.81,13.81,0,0,0-.88,1.29L-250.9-6l-1,1.5c-26.24,38-35.71,66.35-25.33,75.9,11,10.18,44-.63,88-28.94l4.1-2.66.1-.07c5.28-3,10.39-1.85,13.74-.76a40.47,40.47,0,0,1,4.35,1.7q2.12,1,4.2,1.88C-152.9,47-146,47.42-141.6,43.88c4.16-3.26,5.24-8.51,6.26-13.61.17-.9.34-1.81.55-2.68.39-1.5.7-3,1-4.42l.18-.83c2.31-9.84,4.88-21,14-28.83.9-.92,1.84-1.88,2.73-2.85s1.83-2,2.74-3c1.28-1.4,2.55-2.85,3.84-4.31,8.65-11.87,20.11-21.25,31.18-30.3,4-3.24,8.13-6.63,12.06-10.05,1.24-1.22,2.57-2.56,4.07-4.11,1.27-1.31,2.31-2.43,3.25-3.45,7.35-10.6,16.45-19.82,25.26-28.76,5.06-5.12,10.29-10.43,15.17-16,1.39-1.72,2.77-3.52,4.06-5.24A135.48,135.48,0,0,0-4.36-131.31l.19-.25c1.24-1.47,2.56-3,4.07-4.62,2.25-2.39,4.58-4.79,6.84-7.11a183.61,183.61,0,0,0,14.1-15.59c4.2-5,5.74-10.89,7.37-17.15,1.16-4.5,2.37-9.12,4.6-13.34"/></g></g><g class="cls-20"><g class="cls-21"><path class="cls-17" d="M27.25-215.71l.14.21a30.21,30.21,0,0,1,4,21.7,45.82,45.82,0,0,1-1.19,5.15c-.94,20.61-14,35.13-26.52,49.16L1-136.39c-1.54,1.74-2.78,3.16-3.92,4.47A126.86,126.86,0,0,1-19-108.3c-1.34,1.6-2.57,3-3.78,4.35l-.05.06,0,0c-14.68,13.53-26.6,25-36,39.33l-.12.17c-1.14,1.29-2.32,2.54-3.34,3.62-1.52,1.58-2.89,2.94-4.15,4.18l0,0h0C-70.69-52.91-75-49.4-79-46c-10.57,8.73-20.53,17-29.11,27.19-1.41,1.63-2.73,3.19-4.06,4.73-1.79,2.07-3.68,4.22-5.61,6.3l-2.28,2.42-.67.7-.08.06c-7,5.59-9.67,13.21-12.54,21.28-1.16,3.2-2.33,6.53-3.8,9.74a45.09,45.09,0,0,1-2.53,4.82l-.06.1c-5.4,7.59-11.7,11.55-18.72,11.74h-.09a12.25,12.25,0,0,1-6-2.15c-1.34-.61-2.64-1.23-3.82-1.78l-.72-.34c-5.16-2.05-9-2.43-12.51-1.24-1.2.7-2.38,1.43-3.55,2.16l-.46.29C-205.84,52.75-224,61.88-238.28,66.39c-15.46,4.9-26.42,4.57-32.5-1.07-10.66-9.83-3.92-34.4,18.95-69.22.6-.87,1.19-1.76,1.8-2.67L-249-8.16a15.63,15.63,0,0,0,3.29-6.49,28.24,28.24,0,0,0,.6-3.64,13.86,13.86,0,0,0-.52-4.55,36.7,36.7,0,0,0-1.77-5l-.06-.18,0-.18c-.22-1.41-1.51-2.78-2.78-4.11a9.84,9.84,0,0,1-.77-.81,5.62,5.62,0,0,1-1.88-5.07c.49-3.91,4.82-7.53,7.73-8.81,15.67-6.59,30.43-12.76,38.81-26.19l.07-.1c1.11-1.47,2.27-3,3.42-4.47s2.44-3,3.49-4.25c1.37-1.49,2.75-2.89,4.12-4.23,1.65-1.6,3.36-3.1,5-4.44l.09-.06c3.66-2.53,7.2-5.29,10.6-8,5.74-4.44,11.71-9.09,18.56-12.92,1.5-1.16,3-2.33,4.29-3.4,4.39-3.61,8.83-6.91,13.13-10.11l.29-.22c1.58-1.18,3-2.29,4.25-3.34l.15-.1a290.36,290.36,0,0,0,44.51-36l0,0,0,0c1.13-1,2.18-1.92,3.22-2.78l0,0c1.22-.93,2.45-1.84,3.66-2.71s2.31-1.65,3.48-2.47l.18-.12c1.86-.9,3.71-1.86,5.52-2.9a183.29,183.29,0,0,0,38.6-29.92c1.52-1.39,3-2.76,4.51-4.12l.19-.16c1.48-.92,3-1.8,4.45-2.54A44.48,44.48,0,0,1-10-218.13a54.38,54.38,0,0,1,6.64.53c2.07-.58,3.92-1.05,5.64-1.44,8-1.75,14.44-1.75,19.32,0a16.18,16.18,0,0,1,5.46,3.19ZM-25.31-106.06c1.16-1.27,2.34-2.64,3.66-4.21A123.73,123.73,0,0,0-5.88-133.52l.08-.15.1-.13c1.18-1.36,2.47-2.83,4.07-4.62.92-1.05,1.84-2.08,2.77-3.12C14-155.89,26.15-169.43,27-189.15l0-.16.07-.16a46,46,0,0,0,1.2-5,27.29,27.29,0,0,0-3.51-19.44,11.89,11.89,0,0,0-4.06-2.3c-4.24-1.49-10.07-1.43-17.4.18-1.74.37-3.62.84-5.78,1.49l-.35.09-.39,0a50.78,50.78,0,0,0-6.48-.57A41.31,41.31,0,0,0-28.66-210c-1.37.71-2.76,1.51-4.14,2.4-1.47,1.33-2.91,2.65-4.36,4a186.19,186.19,0,0,1-39.16,30.33c-1.85,1-3.73,2-5.58,2.94L-85.25-168c-1.17.87-2.37,1.76-3.56,2.67-1,.85-2,1.69-3.08,2.66a292,292,0,0,1-44.88,36.35c-1.3,1.07-2.71,2.19-4.31,3.38l-.32.25c-4.23,3.15-8.66,6.43-13,10-1.42,1.15-2.9,2.35-4.46,3.55l-.18.12c-6.68,3.74-12.58,8.33-18.27,12.73-3.45,2.69-7,5.45-10.71,8-1.6,1.27-3.2,2.7-4.79,4.23-1.37,1.29-2.67,2.67-4,4.09-1,1.15-2.15,2.53-3.4,4.12-1.14,1.44-2.27,2.95-3.36,4.37-8.85,14.15-24.75,20.81-40.07,27.25-2.24,1-5.7,3.93-6,6.64a2.67,2.67,0,0,0,.92,2.46l.1.08c.22.26.5.55.74.82,1.51,1.55,3.17,3.33,3.65,5.58a41.38,41.38,0,0,1,1.81,5.35,17,17,0,0,1,.6,5.51,30.68,30.68,0,0,1-.68,4,18.08,18.08,0,0,1-3.8,7.56l-.93,1.36c-.57.9-1.19,1.79-1.78,2.68-21.72,33-28.84,56.85-19.58,65.41,10.26,9.43,40.49-.21,80.94-25.83l.47-.28c1.24-.77,2.48-1.53,3.82-2.29l.25-.1c5.54-2,11-.37,15.11,1.23l.13.06.77.41c1.24.59,2.5,1.19,3.82,1.77l.17,0,.12.12A8.92,8.92,0,0,0-158.77,40c5.91-.21,11.37-3.72,16.2-10.48A49.62,49.62,0,0,0-140.21,25c1.41-3.09,2.58-6.34,3.69-9.49,2.84-8,5.8-16.37,13.37-22.46l.51-.55c.77-.81,1.51-1.58,2.27-2.41,1.92-2.05,3.77-4.17,5.58-6.24,1.29-1.52,2.62-3.07,4-4.68C-102.07-31.23-92-39.54-81.31-48.36c4.09-3.37,8.29-6.85,12.38-10.43,1.23-1.22,2.57-2.56,4-4.1,1-1,2.11-2.21,3.19-3.46,9.61-14.54,21.64-26.12,36.39-39.72"/></g></g><g class="cls-22"><g class="cls-23"><path class="cls-17" d="M18.38-207.64a14.3,14.3,0,0,1,3.8,5.88l.07.21a34.29,34.29,0,0,1,.63,6.08,42.55,42.55,0,0,1-.25,5.87l0,.1c-.47,2.79-.76,5.67-1,8.7-.63,7-1.25,14.28-5,20.47-4.22,6.6-9.3,12.14-14.24,17.51-1.51,1.66-3.08,3.36-4.57,5.05-1.35,1.52-2.54,2.93-3.6,4.22a114.57,114.57,0,0,1-10.68,17.1c-1.29,1.72-2.65,3.53-4.12,5.32l-.14.12-2.2,2.15C-36.91-95.4-51.28-81.5-62-65.13l-.14.19c-1.39,1.52-2.81,3-3.93,4.11-1.47,1.47-2.73,2.67-3.88,3.76L-70-57a459.34,459.34,0,0,0-44.3,39.18c-.62.78-1.22,1.57-1.81,2.32l-1,1.26c-.79,1-1.6,2-2.44,3.07s-1.79,2.11-2.57,3l-.11.1-.12.1C-128.83-3-133.67,3.84-138.07,14.3l-.07.16c-5.94,10.41-17,15.8-27.14,19.74l-.18.07a26.18,26.18,0,0,1-7.28.86,36.77,36.77,0,0,1-8.09-1.18,22,22,0,0,0-3.4,1.1l-2.2,1.3-1.92,1.14c-21.43,12.94-59.52,32.71-73.75,19.63-12-11,.7-38,13.42-58.61.84-1.39,1.73-2.8,2.62-4.21l.14-.18a15.55,15.55,0,0,0,3.75-7.62,36,36,0,0,0,.57-4.38v-.06a20.37,20.37,0,0,0-1.06-7.41c-.22-.84-.49-1.68-.75-2.51-.11-.43-.24-.86-.36-1.25a11.34,11.34,0,0,1-2.41-8.8,7.29,7.29,0,0,1,3.81-5.53c4-2.36,8.13-4.38,12.21-6.34,9.61-4.62,18.71-9,24.59-17.56l.07-.09c1.15-1.41,2.32-2.92,3.5-4.5s2.18-3,3.29-4.6l.06-.09c1.4-1.82,2.78-3.5,4.15-5.12s2.6-3,3.78-4.33c6-6.86,13.71-11.58,21.06-16.14,3.67-2.25,7.45-4.6,11-7.16,1.41-1.1,2.86-2.28,4.4-3.57l.14-.12.17-.06a33.62,33.62,0,0,0,7.58-5.82,48.52,48.52,0,0,1,6.27-5.23l1.5-1.29q1.73-1.54,3.48-3l.21-.14c1.31-.8,2.65-1.55,4-2.33,13.52-7.8,26.3-15.2,34.4-27.67l.17-.2c1.49-1.56,2.76-2.8,4-3.94a49.94,49.94,0,0,1,4.55-3.61c1.31-.92,2.69-1.87,4.09-2.8,1.63-1.1,3.35-2.2,5.18-3.39l.19-.11c1.71-.8,3.45-1.66,5.17-2.58,11.84-5.93,21.3-13.91,31.55-23,1.42-1.23,2.81-2.48,4.26-3.71s2.86-2.49,4.31-3.73l.2-.15a46.75,46.75,0,0,1,4.32-2.28,33.44,33.44,0,0,1,14.76-3.15,37.71,37.71,0,0,1,6.6.68c1.57-.17,3.12-.4,4.6-.63l1.45-.22c8.78-1.29,15.35,0,19.49,3.81m.67,6.52a11.45,11.45,0,0,0-2.88-4.46c-3.31-3-8.88-4-16.54-2.87l-1.43.24c-1.6.24-3.27.5-5,.68h-.26l-.26,0a37.53,37.53,0,0,0-6.25-.68,30,30,0,0,0-13.32,2.87,34,34,0,0,0-3.93,2.08c-1.42,1.22-2.8,2.42-4.22,3.65s-2.82,2.46-4.23,3.68c-10.4,9.18-20,17.28-32.16,23.4-1.68.9-3.44,1.75-5.17,2.56-1.79,1.13-3.45,2.26-5.06,3.32-1.39.93-2.74,1.88-4,2.76A44,44,0,0,0-90-160.5c-1.15,1-2.38,2.2-3.8,3.68-8.48,12.95-21.51,20.49-35.3,28.48l-3.83,2.22c-1.11,1-2.23,2-3.37,2.95l-1.73,1.47a48,48,0,0,0-6,5,36.21,36.21,0,0,1-8.11,6.21c-1.52,1.27-3,2.45-4.41,3.57-3.67,2.65-7.47,5-11.2,7.31-7.55,4.66-14.65,9-20.42,15.58-1.2,1.3-2.39,2.7-3.74,4.28s-2.65,3.23-4.07,5c-1.13,1.63-2.22,3.2-3.33,4.67s-2.37,3.13-3.55,4.55c-6.32,9.15-16.16,13.88-25.69,18.46-4,1.94-8.16,3.95-12,6.24l-.1,0a4.6,4.6,0,0,0-2.35,3.53A8.18,8.18,0,0,0-241-30.66l.23.28.1.33c.13.53.3,1,.45,1.57.24.87.51,1.73.75,2.58a22.23,22.23,0,0,1,1.13,8.48,33.46,33.46,0,0,1-.62,4.7,18.2,18.2,0,0,1-4.29,8.82c-.88,1.38-1.73,2.71-2.53,4-17,27.52-22.09,47.5-14.08,54.87,9,8.32,35,.77,69.64-20.13.63-.36,1.26-.73,1.88-1.12l2.29-1.37.2-.09a24,24,0,0,1,4.44-1.39l.42-.09.39.1a32.32,32.32,0,0,0,7.7,1.13,23.34,23.34,0,0,0,6.25-.69c9.57-3.75,20.07-8.86,25.58-18.43,4.55-10.82,9.61-18,16.42-23.22.74-.85,1.52-1.77,2.38-2.83s1.63-2,2.43-3l.94-1.25c.66-.8,1.26-1.59,1.9-2.38l.09-.12A460,460,0,0,1-72.32-59.35c1.09-1,2.36-2.23,3.78-3.64,1-1.07,2.4-2.47,3.75-3.94C-53.91-83.53-39.42-97.51-25.45-111l2.18-2.09c1.41-1.76,2.77-3.51,4-5.19A113,113,0,0,0-8.75-135.13l.18-.25c1.1-1.35,2.32-2.8,3.75-4.4s3.11-3.46,4.63-5.12c4.85-5.29,9.82-10.73,13.9-17.1,3.4-5.61,4-12.55,4.64-19.27.24-2.92.52-6,1-8.89a42.85,42.85,0,0,0,.28-5.46,36,36,0,0,0-.58-5.5"/></g></g><g class="cls-24"><g class="cls-25"><path class="cls-17" d="M9.69-199.44a13.69,13.69,0,0,1,3.54,5.56,21.11,21.11,0,0,1,1,7C18-167.26,6.82-153.79-4-140.77l-.94,1.13c-1.31,1.58-2.68,3.25-4,4.93a143.08,143.08,0,0,1-10.62,16.55c-1.25,1.72-2.59,3.5-4,5.28l-.07.08c-4.37,4.83-9,9.44-13.58,13.89C-47-89.21-56.33-80-63-68.67l-.14.18c-1.39,1.64-3,3.31-5.22,5.52-1.46,1.4-2.74,2.63-3.92,3.74C-78-53.9-84.2-48.76-90.19-43.79c-7.66,6.35-15.62,13-22.37,20l-4.85,4.58-2.07,1.94c-2.56,2.4-5.21,4.85-7.83,7.26-1.09,1-2.21,2-3.31,3l-.06,0C-135.4-3.2-139,1.67-142.46,6.39c-5.35,7.22-10.86,14.71-20.53,18.78a22.63,22.63,0,0,1-6,2.89A37.47,37.47,0,0,1-175,30.27a38.64,38.64,0,0,1-6.71,1.17c-1.78.45-3.57.79-5.34,1.1L-191,34.78c-21.93,12.42-50.55,25-62.34,14.1-10.73-9.86-.54-33.16,9.88-50.94.71-1.21,1.4-2.39,2.15-3.62l.33-.56a15.73,15.73,0,0,0,2.36-4.4,21.67,21.67,0,0,0,1-4.87v-.06a13.13,13.13,0,0,0-.41-4.92c-.24-1.05-.52-2.19-.84-3.22-.2-.76-.42-1.52-.58-2.26a10.77,10.77,0,0,1,3.6-12.88,77.85,77.85,0,0,1,12.05-7.09c6.86-3.53,13.33-6.84,17.26-13l.09-.13c.93-1.15,1.91-2.37,2.94-3.76,2.88-3.92,5.52-8.05,7.85-11.7,1-1.47,2.29-3.4,3.65-5.29,1.2-1.68,2.31-3.15,3.4-4.53l.16-.15c7.69-7.22,16.7-12.89,25.44-18.37,2.24-1.42,4.6-2.89,6.86-4.37,1.43-1.13,2.79-2.26,4.14-3.43l.16-.15.18-.08c3.33-1.58,5.69-3.95,8.18-6.42,1.43-1.41,2.93-2.9,4.6-4.24,1.49-1.32,3.23-2.84,5-4.33l.15-.12.21-.09c1.86-.83,3.75-1.75,5.57-2.7h0A95.82,95.82,0,0,0-95-154.36c1-1.05,1.88-2,2.78-3l1.42-1.54c1.45-1.5,2.83-3,4.22-4.42l.1-.11.12-.08c1.17-.87,2.46-1.75,3.89-2.71l.13-.06c1.33-.7,2.68-1.42,4.08-2.21s2.69-1.49,4-2.29l.11,0c1.83-.88,3.75-1.89,5.6-2.91s3.5-2.05,5.38-3.25c4.32-2.79,8.54-5.92,12.6-8.94,2.67-2,5.15-3.84,7.69-5.6,1.75-1.31,3.42-2.54,5.06-3.71,1.9-1.35,3.61-2.52,5.28-3.64l.14-.07c1.33-.69,2.66-1.32,4-1.86a41.2,41.2,0,0,1,23-2.68,39.68,39.68,0,0,1,5.76.15,16.35,16.35,0,0,1,9.37,3.91m-35.9,84.6c1.37-1.74,2.67-3.46,3.93-5.17a147.51,147.51,0,0,0,10.47-16.31l.14-.23c1.36-1.7,2.78-3.43,4.13-5.07l.95-1.13C4.29-155.88,14.56-168.28,11-186.64l0-.29a18.34,18.34,0,0,0-.81-6.22c-1.44-4.16-4.79-6.54-10-7.16a37.21,37.21,0,0,0-5.39-.14h-.18l-.18,0A37.76,37.76,0,0,0-26.89-198c-1.21.5-2.45,1.08-3.69,1.71-1.6,1.09-3.29,2.24-5.1,3.52-1.64,1.17-3.28,2.39-5.06,3.71-2.53,1.78-5,3.62-7.66,5.59-4.13,3.07-8.33,6.22-12.77,9.08-1.95,1.23-3.73,2.29-5.52,3.29s-3.86,2.1-5.74,3c-1.36.79-2.71,1.53-4.06,2.27s-2.76,1.51-4.08,2.21c-1.33.89-2.5,1.71-3.63,2.51-1.34,1.44-2.71,2.88-4.11,4.32l-1.42,1.55c-.87,1-1.78,2-2.69,3a98.27,98.27,0,0,1-33.86,26.21c-1.82,1-3.67,1.86-5.5,2.68-1.69,1.41-3.36,2.89-4.82,4.18l-.06,0c-1.54,1.24-3,2.67-4.39,4-2.52,2.5-5.12,5.1-8.82,6.91-1.36,1.18-2.68,2.28-4.11,3.41l-.12.09c-2.3,1.5-4.67,3-7,4.44-8.57,5.41-17.43,11-24.91,18-1,1.28-2.1,2.73-3.23,4.31-1.36,1.89-2.67,3.8-3.63,5.23-2.35,3.66-5,7.81-7.93,11.82-1,1.39-2,2.63-3,3.78-4.34,6.82-11.44,10.45-18.31,14a76.18,76.18,0,0,0-11.62,6.83l-.06,0a8,8,0,0,0-2.63,9.65l.05.21c.2.74.4,1.49.62,2.24.29,1.14.62,2.27.87,3.4a16.12,16.12,0,0,1,.43,5.91,21.91,21.91,0,0,1-1.14,5.49,17.71,17.71,0,0,1-2.75,5.08l-.2.36c-.72,1.2-1.45,2.4-2.13,3.58-13.77,23.53-17.64,40.77-10.57,47.27C-243.3,54-222,48.7-192.9,32.13c1.41-.77,2.81-1.57,4.2-2.38l.24-.11.31-.06c1.79-.28,3.65-.67,5.49-1.14h.25a34.6,34.6,0,0,0,6.24-1.08,37.25,37.25,0,0,0,5.69-2.06l.25-.1a19.6,19.6,0,0,0,5.36-2.63l.22-.11c9-3.76,14.06-10.62,19.44-17.9,3.57-4.85,7.26-9.85,12.24-13.86,1.09-1,2.17-2,3.3-3,2.6-2.39,5.24-4.85,7.78-7.21l2.07-1.94L-115-26c6.83-7,14.86-13.7,22.56-20.11,5.95-4.94,12.1-10.06,17.72-15.34,1.19-1.1,2.44-2.29,3.91-3.71,2.11-2.07,3.65-3.69,5-5.24C-59-82-49.15-91.73-39.66-101.08c4.51-4.45,9.15-9,13.45-13.75"/></g></g><g class="cls-26"><g class="cls-27"><path class="cls-17" d="M1-191.2a12.93,12.93,0,0,1,3.89,7c5.57,16.38-3.51,28.72-12.27,40.62-.58.77-1.13,1.51-1.67,2.26-1.34,1.84-2.36,3.27-3.25,4.59A106,106,0,0,1-22-120.21c-1.18,1.7-2.47,3.44-3.78,5.18l-.12.15c-2.77,2.79-5.62,5.6-8.37,8.29-12.4,12.26-24.17,23.83-33,38.12l-.15.22c-1.45,1.57-3,3.13-4.43,4.58C-78.72-57-86.17-50.88-93.33-45c-8.36,6.88-17,14-24.63,21.87L-118-23c-1.48,1.39-3,2.76-4.46,4.19-3.18,3-6,5.64-9.05,8.32-1,.92-2.06,1.84-3.07,2.73l-.12.09c-4.72,3.37-8.63,7.71-12.4,11.93-5.27,5.85-10.72,11.9-18.37,15.49a56.23,56.23,0,0,1-5.42,3A47.35,47.35,0,0,1-177,25.08c-1.79.66-3.35,1.17-4.82,1.59s-3.21.87-4.85,1.23L-190.46,30c-18.91,10.23-43.67,20.37-54.22,10.66-7.19-6.62-5.35-20.83,5.35-41.1.69-1.32,1.46-2.71,2.27-4.17l.06-.11a17.27,17.27,0,0,0,2.86-7.35c.21-1.18.33-2.48.46-4.09v-.09a27.54,27.54,0,0,0-.23-6.18l-.06-.69a21.81,21.81,0,0,1,.07-7.25c-.29-3,2-4.63,3.59-5.84A14.67,14.67,0,0,0-229-37.25l.13-.13A102.51,102.51,0,0,1-220-42.84c5.75-3.29,11.66-6.65,15.63-11.86l.09-.13c1.15-1.23,2.32-2.54,3.59-4,2.25-2.64,4.44-5.45,6.58-8.13,3.4-4.32,6.92-8.78,10.77-12.83,1-1.19,2-2.39,3-3.58,8.07-10.52,16.85-17.7,26.75-21.93,1.11-.91,2.28-1.91,3.5-3,1.53-1.38,3.13-2.59,4.69-3.79a37.74,37.74,0,0,0,7.14-6.4l.08-.09.07-.08c1.6-1.4,3.48-3,5.32-4.61l.2-.17.24-.1c2-.76,3.93-1.63,5.84-2.57,1.68-.77,3.46-1.66,5.63-2.81l.09-.05c11.1-4.83,19.68-13.64,28.23-23,1-1.09,1.94-2.19,2.95-3.3l1.36-1.5.08-.08c1.5-1.5,3-3,4.6-4.52l.07-.07.15-.11c1.67-1.11,3.47-2.21,5.43-3.36,2.29-1.36,4.7-2.75,7.41-4.26l3.75-2.08.07,0c11.06-5.2,21.15-12,30.92-18.57l.09-.06a54.72,54.72,0,0,1,5.28-2.69c8.34-3.73,16.27-4.41,24.18-2A14.65,14.65,0,0,1,1-191.2M-28.42-117c1.28-1.67,2.54-3.38,3.66-5a103,103,0,0,0,9.42-16.17l.12-.21c1-1.38,2-2.84,3.36-4.76.59-.78,1.14-1.51,1.69-2.25,8.76-11.91,17-23.13,11.88-38.15l0-.17c-1-4.49-3.68-7.06-8.43-8l-.18-.06c-7.18-2.17-14.11-1.59-21.85,1.89a54.13,54.13,0,0,0-4.93,2.53c-9.86,6.63-20,13.46-31.25,18.73-1.22.66-2.45,1.34-3.69,2-2.64,1.48-5.05,2.87-7.32,4.2-1.89,1.11-3.59,2.17-5.24,3.24-1.48,1.45-3,2.9-4.43,4.36-.46.49-.9,1-1.32,1.48-1,1.1-2,2.19-2.95,3.31-8.78,9.62-17.61,18.64-29.24,23.73-2.13,1.14-4,2.07-5.65,2.83-1.89.94-3.85,1.8-5.83,2.58-1.74,1.46-3.5,3-5,4.33a42.16,42.16,0,0,1-7.57,6.83c-1.52,1.14-3.06,2.29-4.5,3.61s-2.57,2.24-3.71,3.22l-.18.12-.21.08c-9.53,4-18,10.95-25.81,21.17l-.1.06c-1,1.19-2,2.38-3,3.59l0,.06c-3.78,4-7.27,8.4-10.65,12.69-2.12,2.7-4.36,5.55-6.65,8.22-1.27,1.49-2.44,2.81-3.64,4.1-4.3,5.64-10.45,9.15-16.43,12.55A99.26,99.26,0,0,0-226.65-35a15.13,15.13,0,0,1-1.54,1.23c-1.64,1.22-2.66,2.05-2.43,3.49l0,.3-.08.28a19.64,19.64,0,0,0,0,6.5l.07.66a31.29,31.29,0,0,1,.24,6.8c-.13,1.69-.27,3.08-.48,4.33A19.84,19.84,0,0,1-234.18-3c-.8,1.41-1.54,2.78-2.18,4-9.87,18.73-12.05,32-6.1,37.5,6.9,6.39,25.21,2.28,50.22-11.25,1.29-.7,2.64-1.43,4-2.19l.22-.12.24,0c1.67-.35,3.28-.75,4.85-1.24s2.92-.89,4.69-1.53l.07,0a43.83,43.83,0,0,0,5.68-2.2,46,46,0,0,0,5.14-2.89l.19-.11C-160,13.69-155,8.11-149.68,2.18c3.86-4.29,7.88-8.75,12.79-12.28,1-.89,2-1.79,3-2.67,3-2.67,5.88-5.34,9-8.28q2.21-2.09,4.43-4.16c7.75-8,16.45-15.14,24.84-22.09,7.15-5.87,14.54-12,21.34-18.55,1.35-1.37,2.84-2.88,4.27-4.41,9-14.5,20.78-26.15,33.33-38.5,2.69-2.66,5.5-5.44,8.24-8.21"/></g></g><path class="cls-28" d="M43.61-231.46a15,15,0,0,1,4,6.35c2.51,9,1.76,17-2.2,23.21-2.67,4.22-5.32,8.8-8.08,13.93-1,1.79-1.75,3.32-2.42,4.8-2.41,4.08-3,9-3.71,13.78-1,7.51-2.06,15.3-9.83,19.87A77.21,77.21,0,0,0,2.79-132.6C1.44-131,.19-129.38-1-127.78a109.33,109.33,0,0,1-14.94,22.34c-1.4,1.64-2.85,3.32-4.46,5.16C-34.08-88.25-46-73.74-54.87-62.44c-.91,1-1.8,1.94-2.7,2.91-1.53,1.63-3,3.11-4.41,4.57C-66.31-51-71-47.22-75.61-43.54c-11.55,9.31-23.53,19-31.26,31.81q-1.83,2.35-3.86,4.59c-1.09,1.19-2.23,2.37-3.42,3.53-8.18,6.83-11.44,16-14.08,24.9-.4,1.29-.75,2.57-1.13,3.83l-.53,1.8c-1.39,2.81-2.15,6.34-3,10.11-1.88,8.74-3.85,17.78-14.16,17.18-4.28-.12-8-2.27-12-4.53a70.41,70.41,0,0,0-6.66-3.4,43.11,43.11,0,0,0-5.62-2.53c-4.12-1.45-7.7-1.26-11.12.58l-1.31.88-2.88,1.91c-24.18,16-46.11,27.6-63.32,33.57-18.13,6.28-30.71,6.36-37.36.22-12.48-11.5-1.32-43.69,30.65-88.31l.85-1.16c.49-.7,1-1.44,1.53-2.15A20.62,20.62,0,0,0-252-14.9a31.56,31.56,0,0,0,1.42-4.5c1.51-4.59-1.7-7.9-4.74-11.11-.79-.81-1.58-1.67-2.32-2.48A10.3,10.3,0,0,1-260-37.42l0-.07c1.12-8.55,9-11.87,16.66-15.08,4.42-1.86,9-3.79,12.13-6.72l.06,0c1.93-1.13,3.63-2.18,5.24-3.25,7.86-5.22,13.26-10.69,16.95-17.16,1.38-1.8,2.63-3.32,3.8-4.7a54.15,54.15,0,0,1,4.12-4.3,38.2,38.2,0,0,1,4.84-3.32c7-4.13,13.41-9.17,19.63-14,4-3.19,8.17-6.43,12.36-9.35,1.83-1.54,3.55-2.89,4.86-3.95a76,76,0,0,1,7.38-5.35c1.68-1.08,3.44-2.25,5.12-3.49,1.37-1,2.8-2,4.19-3,5.25-4.33,10.62-8.67,15.83-12.87,9.87-7.95,20.08-16.2,29.73-24.68l4-3.07c1.34-1,2.62-2,4-3,2-1.07,4.06-2.19,6.1-3.35,18-9.24,31.6-20.72,40.51-34.15,1.48-2.09,2.71-3.84,3.78-5.52v0l.06,0a26.07,26.07,0,0,1,5.83-2.78,52.71,52.71,0,0,1,5.86-2.55,41.44,41.44,0,0,1,10-1.19c4.93-.15,9.59-.31,14-3.15,2.51-1,4.91-2,7.17-2.81,19.25-7,32.55-7.36,39.47-1m-330.49,312c12.7,11.71,50-1,99.84-33.88.95-.63,1.92-1.27,2.85-1.91l1.35-.87c3.65-2,7.36-2.15,11.73-.66a43.76,43.76,0,0,1,5.66,2.59,58.61,58.61,0,0,1,6.7,3.45c3.9,2.2,7.6,4.31,11.73,4.41,9.78.56,11.67-8.25,13.52-16.76.8-3.77,1.58-7.36,3-10.18l.48-1.75c.39-1.29.76-2.57,1.15-3.86,2.65-8.91,5.93-18.22,14.26-25.15,1.17-1.12,2.3-2.32,3.35-3.48,1.35-1.45,2.63-3,3.83-4.53C-99.65-25-87.67-34.63-76.07-44c4.58-3.69,9.27-7.48,13.62-11.4C-61-56.85-59.6-58.33-58.07-60c.9-.94,1.78-1.91,2.67-2.87,8.86-11.3,20.79-25.85,34.54-37.9,1.58-1.81,3.05-3.48,4.4-5.11A106.68,106.68,0,0,0-1.56-128.11c1.23-1.63,2.45-3.2,3.82-4.86C8.45-140.47,14.2-145.73,21-150c7.55-4.46,8.55-11.76,9.58-19.48.66-4.84,1.35-9.83,3.8-14,.65-1.45,1.4-3,2.36-4.8,2.8-5.14,5.45-9.72,8.11-14C48.71-208.3,49.46-216.17,47-225A14.13,14.13,0,0,0,43.17-231c-6.61-6.09-20-5.69-38.76,1.14-2.23.8-4.63,1.76-7.07,2.77-4.49,2.93-9.5,3.1-14.3,3.25a40.84,40.84,0,0,0-9.89,1.16,52.58,52.58,0,0,0-5.75,2.52,26,26,0,0,0-5.7,2.69c-1.07,1.67-2.25,3.42-3.74,5.51-9,13.47-22.65,25-40.71,34.3-2.08,1.18-4.1,2.28-6.08,3.33l-3.88,3c-1.34,1-2.66,2.05-4,3-9.68,8.51-19.89,16.74-29.76,24.71-5.21,4.18-10.61,8.55-15.85,12.89-1.45,1.06-2.82,2.07-4.21,3-1.7,1.25-3.44,2.4-5.14,3.52a67.62,67.62,0,0,0-7.32,5.3c-1.32,1-3,2.4-4.85,3.94-4.23,2.93-8.39,6.19-12.4,9.37-6.2,4.87-12.6,9.91-19.65,14.06a35.05,35.05,0,0,0-4.79,3.26c-1.31,1.25-2.65,2.65-4,4.24-1.19,1.37-2.39,2.88-3.74,4.65-3.75,6.52-9.21,12-17.15,17.33-1.6,1.07-3.33,2.11-5.23,3.25-3.21,3-7.82,4.91-12.29,6.82-7.49,3.13-15.2,6.39-16.31,14.57a9.63,9.63,0,0,0,2.31,4.06c.67.85,1.44,1.67,2.24,2.51,3.19,3.31,6.51,6.78,4.93,11.64a32.71,32.71,0,0,1-1.46,4.57,21.87,21.87,0,0,1-2.34,4.33c-.52.71-1,1.44-1.54,2.14L-256.1-7c-31.78,44.37-43,76.28-30.78,87.54"/><path class="cls-28" d="M35-223.2l0,0c4.29,9,4.81,18.48,1.64,29-.54,1.79-1.23,3.69-2,5.59a60.94,60.94,0,0,0-4.54,13.09c-1.61,6.16-3.25,12.54-7.64,17.73A190.88,190.88,0,0,1,8.24-142c-2.27,2.31-4.58,4.66-6.78,7.05-1.52,1.64-2.83,3.14-4.06,4.57a137.44,137.44,0,0,1-11,17c-1.32,1.76-2.7,3.54-4.16,5.35C-22.6-102.44-27.84-97.12-33-92c-8.76,8.87-17.82,18.07-25.11,28.58-1,1.07-2.06,2.21-3.37,3.59-1.53,1.56-2.89,2.93-4.13,4.16-4,3.5-8.1,6.86-12.13,10.13-11,9-22.4,18.3-30.94,30.07-1.33,1.48-2.62,2.95-3.93,4.39-.91,1-1.81,2-2.74,3s-1.87,2-2.82,2.9c-8.73,7.51-11.24,18.4-13.48,28l-.19.84c-.35,1.48-.68,2.93-1,4.4-.2.87-.38,1.77-.57,2.66-1,5.36-2.16,10.94-6.85,14.55-5,4-12.58,3.68-23.16-1.05-1.45-.56-2.83-1.22-4.27-1.84a39.63,39.63,0,0,0-4.12-1.63c-4.8-1.6-8.56-1.4-12.12.61-1.36.86-2.72,1.78-4.07,2.64-45.58,29.27-78.61,39.74-90.6,28.68-11.27-10.39-2.18-38.88,25-78.22L-252.57-7c.54-.76,1.05-1.49,1.58-2.26.31-.46.65-.94.93-1.35,1.13-1.57,2.08-2.9,1.66-4.48l0-.08,0-.06a17.2,17.2,0,0,0,.36-5,31.84,31.84,0,0,0-.72-5.3c-.79-1.29-1.67-2.83-2.44-4.34a33.07,33.07,0,0,1-2-4.36,10.38,10.38,0,0,1-.64-7.51c1.28-4.79,7.26-6.77,11.21-8.08,2.11-.92,4.15-1.86,6.06-2.76,14.15-6.81,24.16-14.64,30.51-23.94,1.16-1.53,2.32-3.06,3.51-4.59,1.33-1.68,2.5-3.13,3.59-4.43a54.94,54.94,0,0,1,4.67-4l5.31-4.24c8.39-6.75,17.09-13.73,26.65-19.24,1.54-1.23,3.05-2.44,4.53-3.58a36,36,0,0,1,6.95-5.34,44.45,44.45,0,0,0,5.54-4c1-.79,2.1-1.59,3.12-2.4s2-1.57,3-2.36c1.26-1,2.49-2,3.71-3a215.84,215.84,0,0,0,19.64-15.86A226.1,226.1,0,0,1-97-164.81c1.32-1.1,2.69-2.31,4-3.46l.69-.61,3.67-2.76c1.11-.83,2.23-1.65,3.35-2.46,16.08-8.94,32.77-18.89,45-34,1.55-1.74,2.89-3.26,4.11-4.71v0l.07,0c1.51-1,3.07-2,4.57-2.87,1.68-1,3.31-1.8,4.9-2.52a39.11,39.11,0,0,1,22.16-3.55c2-.72,4.06-1.43,6.12-2.1,12.32-4,21.87-4.76,28.32-2.31a14.44,14.44,0,0,1,4.87,2.91ZM-278.16,72.28c11.74,10.82,44.44.33,89.75-28.76,1.35-.87,2.72-1.77,4.11-2.65,3.69-2.09,7.71-2.29,12.65-.68a40.34,40.34,0,0,1,4.19,1.66c1.44.63,2.84,1.25,4.28,1.86,10.3,4.6,17.66,5,22.46,1.13,4.54-3.51,5.62-9,6.67-14.25.18-.89.36-1.8.56-2.66.36-1.48.69-2.94,1-4.42l.19-.82C-130,13-127.46,2-118.62-5.6c.94-1,1.87-1.92,2.8-2.88s1.82-2,2.74-3c1.31-1.44,2.6-2.9,3.9-4.37,8.55-11.8,20-21.13,31-30.12,4-3.3,8.15-6.67,12.09-10.12,1.25-1.21,2.57-2.56,4.1-4.14,1.35-1.38,2.38-2.51,3.35-3.55,7.28-10.54,16.38-19.75,25.17-28.64,5.09-5.15,10.35-10.5,15.18-16,1.42-1.79,2.84-3.6,4.13-5.33a135.81,135.81,0,0,0,11-17c1.26-1.5,2.59-3,4.11-4.64,2.21-2.37,4.54-4.77,6.78-7.06a190.26,190.26,0,0,0,14.21-15.69c4.31-5.12,5.94-11.44,7.53-17.55,1.16-4.45,2.36-9,4.56-13.15.74-1.87,1.45-3.75,2-5.53,3.12-10.34,2.59-19.67-1.58-28.54a14.91,14.91,0,0,0-4.6-2.71C23.52-228,14.13-227.18,2-223.26c-2.06.66-4.19,1.41-6.17,2.13h-.15a38.84,38.84,0,0,0-21.9,3.5,51.92,51.92,0,0,0-4.82,2.49c-1.52.87-3,1.81-4.54,2.84-1.21,1.41-2.54,2.95-4.09,4.68-12.26,15.1-29,25.09-45.1,34-1.11.83-2.23,1.64-3.36,2.46l-3.65,2.75-.66.58c-1.32,1.17-2.71,2.37-4.07,3.53A224.19,224.19,0,0,0-115.3-149,217.51,217.51,0,0,1-135-133.13l-3.69,2.94-3,2.39-3.11,2.35a41.3,41.3,0,0,1-5.59,4,35.28,35.28,0,0,0-6.86,5.25l-4.58,3.63C-171.43-107-180.13-100-188.5-93.31c-1.8,1.43-3.56,2.86-5.34,4.25-1.54,1.19-3.07,2.49-4.58,3.9-1.08,1.26-2.24,2.71-3.56,4.41-1.18,1.5-2.34,3-3.53,4.58-6.4,9.35-16.42,17.22-30.71,24.1-1.89.9-3.95,1.85-6.1,2.76-3.87,1.31-9.67,3.23-10.87,7.72a9.92,9.92,0,0,0,.6,7.14,34.87,34.87,0,0,0,2,4.31c.77,1.51,1.68,3,2.44,4.33l0,.12a32.33,32.33,0,0,1,.75,5.41,18.3,18.3,0,0,1-.38,5.12c.43,1.8-.62,3.27-1.75,4.86-.29.43-.64.88-.94,1.34-.52.78-1,1.52-1.58,2.27l-1,1.53c-27,39.06-36.17,67.3-25.11,77.43"/><path class="cls-28" d="M26.24-215l0,0a28.79,28.79,0,0,1,3.89,20.88,47.35,47.35,0,0,1-1.2,5.15C28-168.6,15.18-154.23,2.69-140.3c-.91,1-1.85,2.07-2.78,3.11-1.56,1.77-2.86,3.23-4,4.58a126.06,126.06,0,0,1-16,23.54c-1.31,1.56-2.55,3-3.74,4.28-14.71,13.6-26.74,25.11-36.23,39.57-1.13,1.3-2.34,2.57-3.35,3.62-1.49,1.57-2.85,2.93-4.08,4.15-4.15,3.61-8.36,7.12-12.46,10.51-10.63,8.73-20.63,17-29.25,27.33-1.4,1.61-2.73,3.16-4.05,4.7-1.81,2.07-3.66,4.21-5.59,6.29-.74.79-1.52,1.59-2.29,2.41l-.57.64c-7.29,5.8-10,13.57-13,21.81-1.1,3.17-2.28,6.46-3.74,9.61a46,46,0,0,1-2.46,4.73c-5.2,7.3-11.17,11.1-17.75,11.29a10.83,10.83,0,0,1-5.39-2c-1.37-.59-2.7-1.24-3.88-1.8l-.79-.38c-5.58-2.21-9.76-2.58-13.64-1.21-1.2.69-2.45,1.45-3.66,2.2l-.49.32c-41.84,26.49-72.27,35.79-83.41,25.51-10.18-9.37-3.36-33.39,19.19-67.69.58-.9,1.17-1.77,1.79-2.68l.95-1.45a16.18,16.18,0,0,0,3.53-7,26.81,26.81,0,0,0,.64-3.79,14.4,14.4,0,0,0-.55-4.92,34.17,34.17,0,0,0-1.81-5.23v-.06c-.26-1.8-1.75-3.31-3.14-4.78-.28-.28-.53-.57-.8-.83a4.52,4.52,0,0,1-1.52-4c.49-3.49,4.51-6.83,7.08-8,15.13-6.35,30.75-12.88,39.34-26.65,1.1-1.44,2.28-3,3.42-4.43,1.27-1.62,2.41-3,3.46-4.23,1.3-1.45,2.69-2.85,4-4.16,1.65-1.58,3.29-3.05,5-4.36,3.71-2.58,7.26-5.34,10.68-8,5.74-4.46,11.7-9.1,18.51-12.9,1.5-1.17,3-2.36,4.36-3.49,4.36-3.56,8.81-6.87,13.08-10l.29-.22c1.6-1.21,3-2.31,4.3-3.39A289,289,0,0,0-93.33-164c1.12-1,2.15-1.9,3.19-2.76s2.42-1.81,3.63-2.69,2.31-1.65,3.45-2.45c1.92-.94,3.77-1.92,5.61-3A185.19,185.19,0,0,0-38.59-205l4.44-4.09c1.54-1,3-1.81,4.43-2.55a43.37,43.37,0,0,1,19.87-5.29,58.94,58.94,0,0,1,6.71.56c2.15-.61,4.06-1.1,5.83-1.49,7.68-1.68,13.92-1.72,18.57-.09a15,15,0,0,1,5,2.9ZM-269.46,64.08c10.91,10,41,.69,82.58-25.61l.49-.32c1.22-.74,2.46-1.52,3.76-2.24,4-1.46,8.38-1.06,14.18,1.22l.84.38c1.19.57,2.52,1.23,3.84,1.81l.08,0a9.89,9.89,0,0,0,5,1.88c6.34-.17,12.15-3.88,17.24-11A49.08,49.08,0,0,0-139,25.57c1.43-3.14,2.58-6.42,3.72-9.6,3-8.32,5.72-16.14,13.1-22l.54-.61c.76-.82,1.56-1.6,2.28-2.41,1.91-2.06,3.8-4.19,5.6-6.26,1.3-1.53,2.62-3.08,4-4.69C-101.09-30.36-91-38.65-80.4-47.43c4.08-3.38,8.32-6.87,12.44-10.47,1.24-1.22,2.57-2.58,4.09-4.16,1-1,2.16-2.25,3.3-3.56,9.5-14.44,21.5-26,36.26-39.59,1.17-1.31,2.39-2.7,3.69-4.27A124.61,124.61,0,0,0-4.68-132.93V-133c1.18-1.36,2.47-2.84,4.07-4.62.92-1,1.85-2.08,2.77-3.1,13-14.5,25.26-28.19,26.09-48.3l0-.07c.52-1.82.92-3.51,1.21-5.14a28.46,28.46,0,0,0-3.81-20.43A13,13,0,0,0,21-217.36c-4.48-1.59-10.59-1.53-18.14.14-1.77.38-3.7.87-5.86,1.5h-.16a50.15,50.15,0,0,0-6.68-.6,42.42,42.42,0,0,0-19.58,5.22c-1.4.73-2.85,1.57-4.31,2.48l-4.41,4.08a187.24,187.24,0,0,1-39,30.2c-1.86,1-3.73,2-5.59,2.92-1.1.78-2.26,1.6-3.42,2.44s-2.41,1.76-3.64,2.69c-1,.85-2,1.74-3.15,2.74a291.69,291.69,0,0,1-44.77,36.25c-1.25,1.05-2.71,2.16-4.32,3.37l-.29.22c-4.26,3.19-8.68,6.46-13,10-1.4,1.13-2.9,2.35-4.41,3.49a152.44,152.44,0,0,0-18.47,12.9c-3.46,2.68-7,5.44-10.69,8-1.63,1.31-3.31,2.77-4.93,4.35-1.36,1.3-2.7,2.69-4,4.1-1,1.23-2.19,2.61-3.43,4.21s-2.33,3-3.42,4.42c-8.65,13.88-24.36,20.47-39.57,26.83-2.58,1.14-6.35,4.4-6.75,7.54a3.85,3.85,0,0,0,1.35,3.52,9.08,9.08,0,0,0,.8.84c1.46,1.55,3,3.11,3.31,5.1a39.52,39.52,0,0,1,1.8,5.25,14.69,14.69,0,0,1,.56,5.14,25.33,25.33,0,0,1-.63,3.85A16.66,16.66,0,0,1-247.39-7l-1,1.43c-.59.89-1.21,1.8-1.76,2.67-22.07,33.54-29.12,57.93-19.35,66.95"/><path class="cls-28" d="M17.5-206.79A13.26,13.26,0,0,1,21-201.48a39.49,39.49,0,0,1,.63,6,36.49,36.49,0,0,1-.3,5.74c-.48,2.85-.75,5.88-1,8.82-.58,6.89-1.21,14-4.85,20-4.13,6.49-9.19,12-14.09,17.34-1.52,1.64-3.08,3.37-4.61,5.06s-2.61,3-3.7,4.39a116.61,116.61,0,0,1-10.62,17c-1.29,1.73-2.64,3.49-4.11,5.29L-24-109.72C-37.92-96.23-52.35-82.29-63.16-65.84c-1.4,1.57-2.83,3-3.92,4.15C-68.52-60.26-69.8-59-70.93-58a456.61,456.61,0,0,0-44.49,39.38c-.6.74-1.21,1.53-1.84,2.34l-1,1.27c-.82,1-1.61,2-2.42,3s-1.76,2.08-2.55,3c-6.67,5.1-11.59,12.1-16.08,22.75-5.78,10.12-16.65,15.4-26.57,19.29a24.32,24.32,0,0,1-7,.81,34.78,34.78,0,0,1-8.06-1.2,23.49,23.49,0,0,0-4,1.27l-2.26,1.35-1.88,1.12c-17.58,10.62-32.77,17.8-45.11,21.33-12.85,3.66-22,3.18-27-1.5-8.86-8.15-4-28.45,13.67-57.13.86-1.39,1.73-2.76,2.63-4.16a16.62,16.62,0,0,0,4-8.17,37.06,37.06,0,0,0,.61-4.53,21.25,21.25,0,0,0-1.1-7.84c-.24-.87-.5-1.72-.75-2.58-.15-.47-.31-1-.45-1.49a10.17,10.17,0,0,1-2.32-8,6.37,6.37,0,0,1,3.29-4.73c3.88-2.32,8.07-4.33,12.12-6.29,9.77-4.7,19-9.14,25-17.93,1.2-1.46,2.38-3,3.56-4.54s2.2-3.05,3.32-4.68c1.41-1.8,2.77-3.5,4.15-5.11s2.57-3,3.73-4.28c5.94-6.75,13.52-11.41,20.84-15.95,3.67-2.25,7.48-4.61,11.05-7.2,1.46-1.15,2.92-2.31,4.49-3.63l.06,0a33.26,33.26,0,0,0,7.86-6,49.19,49.19,0,0,1,6.23-5.15l1.51-1.34q1.73-1.52,3.48-3l4-2.35c13.64-7.88,26.51-15.34,34.78-28,1.51-1.6,2.78-2.84,4-3.93A49.58,49.58,0,0,1-87-165.39c1.32-.92,2.7-1.87,4.09-2.8,1.63-1.1,3.34-2.21,5.18-3.39,1.74-.81,3.52-1.69,5.22-2.61,12-6,21.49-14,31.82-23.13,1.36-1.23,2.8-2.49,4.21-3.7l4.34-3.73A36.81,36.81,0,0,1-27.85-207a32.52,32.52,0,0,1,14.16-3.06,42.29,42.29,0,0,1,6.6.72c1.65-.16,3.26-.4,4.85-.65l1.43-.24c8.34-1.23,14.48-.05,18.31,3.47M-260.74,55.86c9.61,8.87,35.6,1.59,71.28-19.95.62-.38,1.25-.75,1.9-1.14s1.51-.89,2.26-1.34A23,23,0,0,1-181,32.08l.07,0,.07,0a33.51,33.51,0,0,0,8,1.2,24.26,24.26,0,0,0,6.74-.8c9.76-3.8,20.55-9.07,26.22-19,4.51-10.74,9.49-17.79,16.2-22.9.76-.88,1.56-1.84,2.49-2.95l2.41-3,1-1.26c.61-.79,1.24-1.6,1.86-2.37A461.11,461.11,0,0,1-71.39-58.44c1.11-1,2.35-2.23,3.82-3.7,1.08-1.08,2.54-2.56,3.85-4.06,10.84-16.49,25.29-30.46,39.27-44l2.24-2.15c1.4-1.75,2.8-3.53,4.05-5.23a119.85,119.85,0,0,0,10.62-17c1.12-1.4,2.34-2.84,3.75-4.44s3.1-3.43,4.61-5.09c4.88-5.31,9.93-10.82,14-17.23,3.54-5.85,4.21-12.94,4.79-19.77.27-3,.53-6,1-8.86a38.24,38.24,0,0,0,.26-5.63,38.66,38.66,0,0,0-.59-5.82,12.83,12.83,0,0,0-3.27-5c-3.66-3.35-9.62-4.43-17.71-3.23l-1.44.22c-1.6.25-3.24.49-5,.69l-.1,0a38.38,38.38,0,0,0-6.51-.73,32.19,32.19,0,0,0-13.84,3,39.68,39.68,0,0,0-4.15,2.2c-1.41,1.21-2.86,2.46-4.27,3.7s-2.85,2.47-4.25,3.72c-10.36,9.12-19.88,17.19-31.93,23.21-1.71.93-3.48,1.82-5.2,2.59l-5.16,3.38c-1.38.95-2.74,1.86-4.05,2.78a44.88,44.88,0,0,0-4.36,3.5c-1.21,1.08-2.49,2.31-3.93,3.82-8.33,12.78-21.26,20.27-35,28.2-1.33.76-2.65,1.54-4,2.31-1.09,1-2.26,2-3.43,3l-1.54,1.36a49.79,49.79,0,0,0-6.2,5.14c-2.51,2.34-4.9,4.58-8,6.07-1.56,1.32-3,2.49-4.47,3.6-3.62,2.64-7.44,5-11.11,7.25-7.28,4.5-14.83,9.17-20.7,15.82-1.18,1.3-2.39,2.7-3.75,4.32s-2.67,3.24-4.08,5.05c-1.14,1.64-2.27,3.21-3.34,4.67s-2.36,3.12-3.56,4.56c-6.14,8.88-15.88,13.57-25.28,18.08-4,2-8.19,4-12.08,6.3a5.65,5.65,0,0,0-3,4.34,9.33,9.33,0,0,0,2.2,7.59l0,.14c.17.5.34,1,.49,1.55.24.86.51,1.71.74,2.57a21.91,21.91,0,0,1,1.11,8.07,40.66,40.66,0,0,1-.61,4.57,17,17,0,0,1-4.11,8.39c-.87,1.37-1.76,2.78-2.59,4.14-17.55,28.41-22.43,48.44-13.81,56.37"/><path class="cls-28" d="M8.8-198.59a12.24,12.24,0,0,1,3.2,5,20.11,20.11,0,0,1,.92,6.83C16.67-167.73,5.66-154.41-5-141.55L-6-140.42c-1.35,1.6-2.73,3.3-4.11,5A147.39,147.39,0,0,1-20.63-118.9c-1.26,1.72-2.61,3.49-4,5.24-4.39,4.82-9,9.42-13.56,13.87-9.93,9.75-19.27,19-26,30.47-1.39,1.64-3,3.31-5.21,5.48-1.46,1.42-2.72,2.6-3.91,3.69-5.63,5.32-11.83,10.45-17.79,15.42-7.7,6.38-15.66,13-22.49,20l-4.8,4.54-2.06,1.95c-2.57,2.38-5.21,4.85-7.81,7.23-1.12,1-2.23,2-3.32,3-4.81,3.87-8.49,8.82-12,13.58-5.28,7.13-10.72,14.52-20.16,18.47a21.63,21.63,0,0,1-5.82,2.84,37.26,37.26,0,0,1-5.94,2.17,39.12,39.12,0,0,1-6.62,1.11c-1.8.46-3.69.85-5.53,1.14-1.4.8-2.78,1.57-4.14,2.34-30.43,17.29-52,22.36-60.72,14.35-7.9-7.27-4.29-24.83,10.17-49.49.68-1.2,1.38-2.36,2.14-3.58l.22-.44a16,16,0,0,0,2.59-4.73,22.2,22.2,0,0,0,1.06-5.1,15,15,0,0,0-.4-5.35c-.27-1.08-.59-2.2-.86-3.33-.21-.75-.44-1.53-.64-2.28A9.68,9.68,0,0,1-235-37.88a77.88,77.88,0,0,1,11.86-7c7-3.57,13.6-7,17.7-13.42,1-1.19,2-2.43,3-3.82,2.89-3.95,5.54-8.08,7.88-11.76,1-1.46,2.29-3.36,3.65-5.26,1.2-1.67,2.27-3.13,3.34-4.48,7.64-7.16,16.62-12.8,25.32-18.28,2.28-1.43,4.63-2.91,7-4.42,1.41-1.12,2.8-2.3,4.19-3.49l.06,0c3.49-1.67,6-4.21,8.51-6.66a54.08,54.08,0,0,1,4.52-4.16c1.49-1.31,3.26-2.87,5-4.34l.07,0c1.9-.84,3.79-1.76,5.64-2.72A96.67,96.67,0,0,0-94-153.58c.91-1,1.83-2,2.73-3l1.42-1.53c1.42-1.47,2.82-3,4.21-4.43,1.23-.91,2.49-1.78,3.89-2.71,1.37-.71,2.74-1.46,4.16-2.24l4.06-2.27c1.89-.92,3.82-1.91,5.72-3,1.75-1,3.51-2,5.41-3.24,4.39-2.83,8.6-6,12.66-9,2.67-2,5.15-3.83,7.69-5.6,1.77-1.35,3.42-2.54,5.06-3.7,1.87-1.33,3.57-2.52,5.24-3.61,1.3-.68,2.62-1.29,3.91-1.85a40.08,40.08,0,0,1,22.37-2.56,36.28,36.28,0,0,1,5.68.17,14.89,14.89,0,0,1,8.55,3.53M-252.07,47.64c8.48,7.8,29.75,2.67,59.93-14.47,1.37-.76,2.78-1.54,4.18-2.35l.1-.05c1.87-.3,3.74-.65,5.63-1.13a39,39,0,0,0,6.53-1.12,40.5,40.5,0,0,0,5.9-2.14,21.45,21.45,0,0,0,5.72-2.8c9.34-3.91,14.75-11.23,20-18.28,3.54-4.82,7.2-9.79,12.08-13.7,1.08-1,2.17-2,3.28-3,2.61-2.38,5.28-4.88,7.81-7.25l2.07-1.93,4.8-4.54c6.83-7.05,14.79-13.66,22.51-20.07,6-4.95,12.15-10.06,17.81-15.4,1.15-1.1,2.44-2.31,3.86-3.71,2.19-2.14,3.79-3.81,5.13-5.4C-58-81.2-48.16-90.87-38.67-100.22c4.51-4.43,9.18-9,13.54-13.82,1.36-1.76,2.67-3.51,3.93-5.22a146.62,146.62,0,0,0,10.58-16.48c1.37-1.74,2.79-3.46,4.15-5.08l.91-1.13C5-154.7,16-167.91,12.27-186.77a18.83,18.83,0,0,0-.91-6.67C9.77-198.09,6-200.86.22-201.53a34.36,34.36,0,0,0-5.58-.15h-.1a39.27,39.27,0,0,0-22,2.52c-1.27.54-2.57,1.15-3.86,1.8-1.59,1.08-3.31,2.26-5.17,3.59-1.64,1.15-3.28,2.37-5.06,3.69-2.54,1.79-5,3.62-7.65,5.6-4.1,3-8.34,6.21-12.72,9-1.9,1.22-3.69,2.29-5.45,3.27-1.91,1.08-3.84,2.06-5.75,3-1.32.77-2.7,1.54-4,2.29s-2.8,1.51-4.13,2.21c-1.4.93-2.64,1.81-3.79,2.64l-4.15,4.39-1.46,1.55-2.7,3a97.81,97.81,0,0,1-33.52,26c-1.83.94-3.72,1.86-5.62,2.7-1.74,1.47-3.46,3-5,4.3a50.73,50.73,0,0,0-4.47,4.12c-2.5,2.48-5.06,5.05-8.67,6.75-1.38,1.21-2.76,2.35-4.18,3.51-2.33,1.51-4.71,3-7,4.44-8.64,5.44-17.6,11.06-25.14,18.16-1,1.32-2.15,2.8-3.32,4.43-1.36,1.88-2.66,3.8-3.66,5.24-2.32,3.65-5,7.83-7.91,11.79-1,1.41-2,2.63-3,3.8-4.15,6.58-10.81,10-17.88,13.61a80.64,80.64,0,0,0-11.81,6.94,9.14,9.14,0,0,0-3,11c.19.79.41,1.57.62,2.33.31,1.1.6,2.24.87,3.33a15.36,15.36,0,0,1,.39,5.54A21.45,21.45,0,0,1-236.77-10a17.41,17.41,0,0,1-2.63,4.87l-.22.39c-.74,1.24-1.44,2.41-2.14,3.58-14.3,24.4-18,41.73-10.32,48.75"/><path class="cls-28" d="M.09-190.37a11.92,11.92,0,0,1,3.52,6.43C9-168.11.09-156-8.5-144.31c-.58.76-1.13,1.5-1.66,2.27-1.4,1.91-2.43,3.36-3.39,4.73a106,106,0,0,1-9.52,16.4c-1.2,1.68-2.45,3.39-3.78,5.13-2.79,2.81-5.63,5.63-8.35,8.31C-47.7-95.16-59.49-83.55-68.35-69.15c-1.5,1.62-3,3.15-4.44,4.6-6.9,6.65-14.29,12.75-21.45,18.67-8.39,6.9-17.07,14.07-24.74,22l-4.48,4.17c-3.18,3-6,5.63-9,8.3-1,.94-2,1.84-3.06,2.75-4.83,3.44-8.8,7.84-12.59,12.1-5.22,5.79-10.63,11.77-18.1,15.23a43.93,43.93,0,0,1-5.31,3,43.11,43.11,0,0,1-5.92,2.32c-1.8.67-3.35,1.17-4.79,1.59-1.62.47-3.3.92-5,1.24-1.33.77-2.64,1.48-4,2.2-26.16,14.15-44.83,18-52.6,10.92-6.71-6.2-4.77-19.93,5.67-39.69.66-1.3,1.43-2.69,2.22-4.11a18.07,18.07,0,0,0,3.07-7.84,34.38,34.38,0,0,0,.47-4.21,29.73,29.73,0,0,0-.23-6.44l-.07-.68a21.08,21.08,0,0,1,.08-7c-.33-2.49,1.51-3.86,3.14-5A16.21,16.21,0,0,0-228-36.37a103.2,103.2,0,0,1,8.79-5.43c5.82-3.3,11.84-6.75,16-12.17,1.2-1.26,2.37-2.59,3.65-4.09,2.26-2.68,4.46-5.47,6.62-8.19,3.38-4.29,6.9-8.76,10.73-12.78,1-1.2,2-2.4,3-3.61,8-10.43,16.69-17.54,26.49-21.67,1.12-.94,2.34-2,3.63-3.16,1.5-1.34,3.11-2.55,4.62-3.7a39.33,39.33,0,0,0,7.33-6.62c1.59-1.42,3.46-3.08,5.35-4.64l.06,0c2-.79,4-1.67,5.94-2.6,1.72-.79,3.49-1.69,5.65-2.84,11.33-4.94,20-13.84,28.66-23.29,1-1.12,2-2.23,3-3.34.45-.51.91-1,1.35-1.52,1.52-1.51,3.06-3,4.6-4.5,1.74-1.13,3.5-2.24,5.46-3.38,2.28-1.37,4.71-2.74,7.38-4.24,1.24-.7,2.46-1.38,3.71-2.07,11.18-5.22,21.34-12.06,31.11-18.68,1.82-1,3.48-1.87,5.17-2.63,8.1-3.61,15.74-4.25,23.31-2a13.09,13.09,0,0,1,6.52,3.13M-243.35,39.41c7.49,6.93,25.88,3,51.82-11,1.32-.7,2.64-1.43,4-2.21h.08c1.67-.35,3.33-.76,5-1.26,1.45-.41,3-.92,4.76-1.56a45.09,45.09,0,0,0,5.83-2.26,50.85,50.85,0,0,0,5.3-3C-159.18,14.7-154.07,9-148.67,3c3.87-4.28,7.82-8.7,12.68-12.18,1-.86,2-1.8,3-2.7,3-2.67,5.87-5.36,9-8.31,1.51-1.41,3-2.78,4.47-4.18,7.7-7.91,16.38-15.07,24.76-22,7.17-5.9,14.57-12,21.39-18.61,1.44-1.45,3-3,4.4-4.54,8.87-14.38,20.71-26.05,33.19-38.4,2.75-2.68,5.57-5.47,8.38-8.28,1.26-1.69,2.54-3.43,3.72-5.07a106.82,106.82,0,0,0,9.5-16.37c1-1.42,2-2.88,3.39-4.79.56-.73,1.09-1.49,1.67-2.27C-.56-156.25,8.3-168.26,3-183.85c-1.09-5-4.31-8-9.54-9.07-7.46-2.25-14.9-1.63-22.84,1.91a56.1,56.1,0,0,0-5.1,2.61c-9.82,6.62-20,13.43-31.15,18.68l-3.7,2.07c-2.69,1.49-5.1,2.88-7.39,4.22-1.92,1.14-3.68,2.24-5.37,3.33-1.5,1.47-3,3-4.53,4.48-.46.49-.91,1-1.36,1.5-1,1.12-2,2.18-3,3.34-8.69,9.49-17.41,18.43-28.83,23.4-2.16,1.18-4,2-5.66,2.84-1.92.93-3.92,1.83-5.94,2.61-1.85,1.56-3.69,3.17-5.23,4.54a38.19,38.19,0,0,1-7.43,6.7c-1.51,1.14-3.08,2.33-4.56,3.65s-2.52,2.24-3.68,3.21l-.07,0c-9.73,4.11-18.34,11.15-26.33,21.53-1,1.22-2.05,2.42-3,3.62-3.84,4-7.36,8.46-10.73,12.77-2.15,2.71-4.35,5.51-6.65,8.21-1.24,1.47-2.44,2.81-3.6,4.08-4.19,5.49-10.25,9-16.12,12.31a95.85,95.85,0,0,0-8.7,5.35A12.51,12.51,0,0,1-229-34.72c-1.58,1.18-3.23,2.37-2.89,4.54V-30a20.68,20.68,0,0,0-.1,6.89l.08.69a28.48,28.48,0,0,1,.23,6.6c-.14,1.66-.26,3-.48,4.21a18.94,18.94,0,0,1-3.15,8c-.79,1.42-1.52,2.81-2.19,4.08-10.3,19.52-12.32,33-5.82,38.95"/></g></g></g><rect class="cls-29" x="1" y="1" width="435.86" height="227.67" rx="9.3" ry="9.3"/><path class="cls-30" d="M427.67,243.71H351c-.65,0-1.17-.71-1.17-1.57s.52-1.57,1.17-1.57h76.64c.65,0,1.17.71,1.17,1.57S428.31,243.71,427.67,243.71Z"/><path class="cls-30" d="M358.39,250.95H331.12c-.65,0-1.17-.71-1.17-1.57s.52-1.57,1.17-1.57h27.27c.65,0,1.17.71,1.17,1.57S359,250.95,358.39,250.95Z"/><path class="cls-30" d="M337.88,242.64h-6.77c-.65,0-1.17-.71-1.17-1.57s.52-1.57,1.17-1.57h6.77c.65,0,1.17.71,1.17,1.57S338.53,242.64,337.88,242.64Z"/><path class="cls-30" d="M322,253.63h-3.78c-.65,0-1.17-.71-1.17-1.57s.52-1.57,1.17-1.57H322c.65,0,1.17.71,1.17,1.57S322.6,253.63,322,253.63Z"/></g></g></svg>