<svg xmlns="http://www.w3.org/2000/svg" xmlns:xlink="http://www.w3.org/1999/xlink" viewBox="0 0 231.33 158.66"><defs><style>.cls-1,.cls-24{fill:none;}.cls-2{clip-path:url(#clip-path);}.cls-3{fill:#32324c;opacity:0.1;}.cls-4{fill:#ececec;}.cls-5{fill:#f0f0f0;}.cls-6{fill:#fafafa;}.cls-7{fill:#e1e1e1;}.cls-8{fill:#f5f5f5;}.cls-16,.cls-17,.cls-20,.cls-9{fill:#fff;}.cls-10{fill:#e7e7e7;}.cls-11{fill:#1a2e35;}.cls-12{fill:#ffc3bd;}.cls-13{fill:#007cff;}.cls-14,.cls-19{opacity:0.2;}.cls-15{fill:#ff847f;}.cls-16{opacity:0.6;}.cls-17{opacity:0.4;}.cls-18,.cls-19{fill:#3859b6;}.cls-20{opacity:0.8;}.cls-21{fill:#903c38;}.cls-22{opacity:0.3;}.cls-23{fill:#740606;}.cls-24{stroke:#00953b;stroke-miterlimit:10;stroke-width:0.55px;}</style><clipPath id="clip-path"><path class="cls-1" d="M182.36,138.85c25.65-16.24,40.32-41,46.41-65.25,3.38-13.41,4.53-27.75-3.64-40.14-9.63-14.61-31-24.23-53.45-28.53C135.77-2,89.2-2.88,56.33,10.36,26.91,22.2,6,43.62,1.15,66.89-4.92,96,13.51,123.5,47,140.81a147.77,147.77,0,0,0,82.77,15.59C150.86,154.13,168.27,147.78,182.36,138.85Z"/></clipPath></defs><g id="Capa_1" data-name="Capa 1"><g class="cls-2"><path class="cls-3" d="M161.21,38.75c52.78,3.58,74.17,70.17,32.72,103-8.46,6.72-28.87,8.32-39.64,6.58-43.39-7-47.82-29.26-75.27-12.65S1.74,153.88,2.13,108s73.7-16.3,94.21-47.9C105.71,45.67,133.72,36.89,161.21,38.75Z"/><path class="cls-3" d="M126.21,27A7,7,0,0,1,124,34.73c-3.61,3-10.91,7.75-19.41,6.33-12.14-2-2.45-17.41,11.19-18.62C122.6,21.84,125.26,24.35,126.21,27Z"/><path class="cls-3" d="M94.29,43.4a3.64,3.64,0,0,1-3.38,2.47c-2.45.08-7-.29-10-3.59-4.36-4.71,4.55-8,10.56-4.1C94.45,40.11,94.74,42,94.29,43.4Z"/><path class="cls-3" d="M133,154.8a3.66,3.66,0,0,1-2.87,3c-2.4.52-6.92,1-10.52-1.72-5.14-3.84,3-8.65,9.65-5.95C132.6,151.54,133.24,153.34,133,154.8Z"/><path class="cls-3" d="M50.37,151.31A1.79,1.79,0,0,1,49,152.8a6.41,6.41,0,0,1-5.14-.84c-2.51-1.87,1.48-4.22,4.71-2.9C50.16,149.72,50.46,150.6,50.37,151.31Z"/><path class="cls-4" d="M102.63,178H14.91a2.6,2.6,0,0,1-2.59-2.6V52.08a2.59,2.59,0,0,1,2.59-2.59h87.72a2.59,2.59,0,0,1,2.59,2.59V175.37A2.6,2.6,0,0,1,102.63,178ZM14.91,49.6a2.49,2.49,0,0,0-2.48,2.48V175.37a2.49,2.49,0,0,0,2.48,2.48h87.72a2.48,2.48,0,0,0,2.47-2.48V52.08a2.48,2.48,0,0,0-2.47-2.48Z"/><path class="cls-4" d="M200.88,178H113.16a2.6,2.6,0,0,1-2.59-2.6V52.08a2.59,2.59,0,0,1,2.59-2.59h87.72a2.59,2.59,0,0,1,2.59,2.59V175.37A2.6,2.6,0,0,1,200.88,178ZM113.16,49.6a2.49,2.49,0,0,0-2.48,2.48V175.37a2.49,2.49,0,0,0,2.48,2.48h87.72a2.49,2.49,0,0,0,2.48-2.48V52.08a2.49,2.49,0,0,0-2.48-2.48Z"/><rect class="cls-5" x="33.19" y="126.23" width="4.78" height="22.7"/><rect class="cls-6" x="33.96" y="127.97" width="3.24" height="15.39"/><rect class="cls-7" x="37.97" y="126.23" width="10.21" height="22.7" transform="translate(86.16 275.16) rotate(180)"/><rect class="cls-5" x="38.97" y="126.23" width="4.78" height="22.7"/><rect class="cls-6" x="39.74" y="127.97" width="3.24" height="15.39"/><rect class="cls-7" x="43.75" y="126.23" width="10.21" height="22.7" transform="translate(97.72 275.16) rotate(180)"/><rect class="cls-4" x="48.72" y="117.39" width="1.73" height="80.84"/><rect class="cls-4" x="19.71" y="117.39" width="1.73" height="80.84"/><rect class="cls-4" x="56.18" y="117.39" width="1.73" height="80.84"/><rect class="cls-4" x="27.17" y="117.39" width="1.73" height="80.84"/><rect class="cls-5" x="18.79" y="115.13" width="39.12" height="2.25"/><rect class="cls-5" x="18.79" y="148.93" width="39.12" height="2.25"/><rect class="cls-5" x="31.74" y="64.09" width="26.73" height="33.6" transform="translate(90.22 161.77) rotate(180)"/><rect class="cls-8" x="25.84" y="64.09" width="31.61" height="33.6" transform="translate(83.29 161.77) rotate(180)"/><rect class="cls-9" x="27.49" y="67.73" width="28.31" height="26.31" transform="translate(-39.24 122.53) rotate(-90)"/><circle class="cls-5" cx="41.65" cy="80.89" r="5.94"/><rect class="cls-5" x="93.38" y="59.07" width="101.19" height="58.88" transform="translate(287.95 177.03) rotate(180)"/><rect class="cls-8" x="78.72" y="59.07" width="113.04" height="58.88" transform="translate(270.49 177.03) rotate(180)"/><rect class="cls-9" x="110.44" y="38.57" width="49.6" height="99.89" transform="translate(46.73 223.76) rotate(-90)"/><rect class="cls-6" x="127.33" y="21.68" width="15.82" height="99.89" transform="translate(63.62 206.87) rotate(-90)"/><rect class="cls-5" x="124.78" y="52.91" width="20.92" height="99.89" transform="translate(32.39 238.1) rotate(-90)"/><rect class="cls-10" x="191.01" y="153.23" width="2.98" height="45"/><rect class="cls-5" x="192.86" y="153.23" width="2.07" height="45"/><rect class="cls-5" x="116.83" y="153.23" width="78.74" height="5.07" transform="translate(312.41 311.52) rotate(180)"/><rect class="cls-10" x="112.51" y="158.3" width="2.98" height="39.93"/><rect class="cls-5" x="114.37" y="158.3" width="2.07" height="39.93"/><rect class="cls-10" x="93.64" y="158.3" width="2.98" height="39.93"/><rect class="cls-10" x="95.49" y="158.3" width="2.07" height="39.93"/><rect class="cls-10" x="172.13" y="158.3" width="2.98" height="39.93"/><rect class="cls-10" x="173.98" y="158.3" width="2.07" height="39.93"/><rect class="cls-10" x="93.64" y="153.23" width="23.2" height="5.07"/><path class="cls-10" d="M176.12,142.93c-2.54,2.84-11.64,5.8-14.33-3.12-1.95-6.49,9-11.28,15.54-11.56,7-.3,11.22,2.19,11.22,2.19A157.39,157.39,0,0,0,176.12,142.93Z"/><path class="cls-10" d="M161.79,144.82c3.57.38,9.65-2.35,7.25-9.85s-7.33-8.21-10.58-8.83c-4.15-.8-12.44,2.58-12.44,2.58S158.22,144.44,161.79,144.82Z"/><path class="cls-10" d="M171.14,131.11c-4.5,2-8.28,2.74-6.14-3.63s4.72-9.43,8.95-10.72c5.39-1.65,11.78,1.89,11.78,1.89S175.64,129.07,171.14,131.11Z"/><path class="cls-10" d="M165,130.68c3.44,1,6.15.8,3.58-5.33s-4.27-6.91-7.21-8.08c-5.43-2.18-10,1.73-10,1.73S161.59,129.66,165,130.68Z"/><path class="cls-10" d="M172.51,120.55c-3.74,3.27-7.17,5.35-7,.26s2.79-9.64,6.81-11.69c2.77-1.41,8.88-.77,8.88-.77S176.24,117.28,172.51,120.55Z"/><path class="cls-10" d="M162.88,119.71c2.45,1.94,4.57,3,3.8-1.16s-2.14-5.25-4.47-6.7a8.53,8.53,0,0,0-6.24-1S160.44,117.76,162.88,119.71Z"/><polygon class="cls-5" points="179.7 142.83 155.17 142.83 158.4 153.23 176.47 153.23 179.7 142.83"/><path class="cls-11" d="M125.6,108.62l-.56.74c-.18.24-.37.46-.56.69-.37.45-.76.89-1.15,1.33a35.33,35.33,0,0,1-2.54,2.5c-.46.41-.92.8-1.42,1.19s-1,.75-1.56,1.11a12.73,12.73,0,0,1-4.09,1.82l-.16,0a2.54,2.54,0,0,1-.47.07,5.45,5.45,0,0,1-2.16-.39,6.79,6.79,0,0,1-1.38-.73,11.5,11.5,0,0,1-1.84-1.58,22.54,22.54,0,0,1-2.52-3.21c-.72-1.09-1.36-2.19-2-3.31a36.15,36.15,0,0,1-1.6-3.45,1.82,1.82,0,0,1,3.06-1.88l0,0,2.34,2.65c.79.87,1.57,1.73,2.37,2.53a23.89,23.89,0,0,0,2.37,2.15,5.12,5.12,0,0,0,1,.64.58.58,0,0,0,.25.07s-.11-.09-.39-.09l-.62.1a9,9,0,0,0,1.72-1.12c.67-.55,1.36-1.19,2-1.88s1.36-1.42,2-2.18l1-1.14.94-1.11.12-.13a3.63,3.63,0,0,1,5.66,4.54Z"/><path class="cls-12" d="M102.38,104.3c-1.75.27-3.42-2.57-3.42-2.57l-1.31-1.57a1.41,1.41,0,0,1,0-1.83L98.79,97a1.42,1.42,0,0,1,2-.14l1.51,1.35a2.44,2.44,0,0,1,.62.87l.59,1.35a3.26,3.26,0,0,1-.54,3.44l-.11.12A.83.83,0,0,1,102.38,104.3Z"/><path class="cls-11" d="M145.14,169.35c-2.23-16.45-3.1-26.21-4.53-34.39l-14-.21s6.26,26.24,9.25,36.93S155.76,209,155.76,209l3.72-2.21S149.13,181.81,145.14,169.35Z"/><path class="cls-11" d="M140,101.84a65.17,65.17,0,0,0-16.76.26,5.73,5.73,0,0,0-4.66,4.83c-1,7.16-.14,19.67.5,32.27,10.82,3.7,22.25,0,22.25,0,.39-2.54-.49-10.87-1.09-15.32.9-4.59,2.79-9.84,4-15.94A5,5,0,0,0,140,101.84Z"/><path class="cls-13" d="M127.23,101.62a5.05,5.05,0,0,0-1.2,2.75c-.51,2.9.06,7.38,1.6,12.52a79.68,79.68,0,0,1,6.56-12.79c.92-1.51,1.56-2.51,1.62-2.59h0A17.77,17.77,0,0,0,127.23,101.62Z"/><path class="cls-12" d="M135.09,92.38,129.45,97c.73,1.94,1,4-2.22,4.74-.79,1.05.61,2.25,1.93,2.8,2.12-.26,5.12-1,6.41-2.75A28.44,28.44,0,0,1,135.09,92.38Z"/><path class="cls-14" d="M132.74,94.31,129.46,97a7.23,7.23,0,0,1,.39,1.39c1.27.09,3-1.2,3.12-2.36A4.52,4.52,0,0,0,132.74,94.31Z"/><path class="cls-11" d="M126.65,84.74c-1.83,1.05-.88,2.1-.88,2.1a4.28,4.28,0,0,0,.26,3.53C130.86,84.58,126.65,84.74,126.65,84.74Z"/><path class="cls-12" d="M135.9,89.23c-.52,3.53-.64,5.63-2.58,7.29-2.93,2.5-7.19.46-7.74-3.16-.5-3.27.42-8.5,4-9.59A4.92,4.92,0,0,1,135.9,89.23Z"/><path class="cls-11" d="M135.81,91.44c-2.27.23-1.84-3.51-1.07-4.24-2.21,0-1.78-1.44-1.51-2-3.7.77-6.31.93-8-.9-1.23-1.35-2.55.16-2.93-1.26.89.48,2.54-2,3.65-.94s2.21-2.51,3.89-1c2.26,2,8.23-3.48,7.69,2.59,3.11,2.62-1.07,4.28-.8,7.06C135.89,92,135.81,91.44,135.81,91.44Z"/><path class="cls-11" d="M136.35,84.44a.23.23,0,0,1,0-.45,3.31,3.31,0,0,0,1.83-1.27,1.54,1.54,0,0,0,.22-1.29.23.23,0,1,1,.44-.12,2,2,0,0,1-.28,1.66,3.67,3.67,0,0,1-2.15,1.47Z"/><path class="cls-12" d="M137.1,92a3.07,3.07,0,0,1-1.72,1.63c-1,.38-1.63-.51-1.43-1.52s.93-2.2,2-2.15A1.41,1.41,0,0,1,137.1,92Z"/><path class="cls-11" d="M130.59,89.36c0,.29-.19.51-.38.49s-.32-.26-.3-.55.2-.51.39-.5S130.62,89.07,130.59,89.36Z"/><path class="cls-11" d="M127.13,89.28c0,.28-.19.51-.38.49s-.33-.27-.3-.56.19-.51.38-.49S127.16,89,127.13,89.28Z"/><path class="cls-15" d="M128.18,89.66A10.38,10.38,0,0,1,126.59,92a1.67,1.67,0,0,0,1.36.39Z"/><path class="cls-11" d="M131.78,88.49a.11.11,0,0,0,.08,0,.17.17,0,0,0,.1-.22,1.66,1.66,0,0,0-1.16-1.05.17.17,0,0,0-.2.13.18.18,0,0,0,.14.2h0a1.38,1.38,0,0,1,.9.84A.19.19,0,0,0,131.78,88.49Z"/><path class="cls-11" d="M125.86,88.17a.18.18,0,0,0,.16,0,1.34,1.34,0,0,1,1.21-.24.17.17,0,0,0,.21-.1.16.16,0,0,0-.1-.22,1.67,1.67,0,0,0-1.52.28.18.18,0,0,0,0,.24A.16.16,0,0,0,125.86,88.17Z"/><path class="cls-11" d="M143.43,103.94c.91,1,1.69,2,2.48,3.09s1.54,2.13,2.25,3.26a36.87,36.87,0,0,1,2,3.57c.31.64.62,1.29.89,2a13.16,13.16,0,0,1,.67,2.51l0,.23a2.88,2.88,0,0,1-.13,1.34,13.05,13.05,0,0,1-2.2,3.77,17,17,0,0,1-1.32,1.47c-.45.45-.9.89-1.38,1.29a30.38,30.38,0,0,1-2.93,2.21,28,28,0,0,1-3.17,1.8,1.82,1.82,0,0,1-2.13-2.87l.08-.09c.71-.76,1.48-1.58,2.19-2.39s1.39-1.62,2-2.45a20.73,20.73,0,0,0,1.65-2.46,8.11,8.11,0,0,0,.92-2.24l-.09,1.57a9.18,9.18,0,0,0-.46-1.07c-.22-.42-.47-.89-.76-1.35s-.58-.94-.91-1.42-.64-1-1-1.43c-.69-1-1.4-1.91-2.13-2.86l-2.18-2.81,0-.06a3.63,3.63,0,0,1,5.6-4.63Z"/><path class="cls-12" d="M140.34,129.78a.84.84,0,0,0-.17-.55l-1-1.36a.85.85,0,0,0-.85-.34l-1.4.27a9.39,9.39,0,0,0-3.79,1.61l-.38.26a1.43,1.43,0,0,0-.32,2l1,1.39a1.41,1.41,0,0,0,1.78.42l1.81-.94S140.22,131.55,140.34,129.78Z"/><path class="cls-13" d="M139.54,127.06a6.55,6.55,0,0,0-2,0c-.4,1,1.31,4.17,2.19,4.71a7.71,7.71,0,0,0,1.85-1.23C140.85,129.58,140.06,127.83,139.54,127.06Z"/><path class="cls-13" d="M104.79,103.56a6.61,6.61,0,0,0-.26-2c-1.07-.29-4,1.76-4.44,2.7a7.91,7.91,0,0,0,1.43,1.7C102.43,105.13,104.09,104.16,104.79,103.56Z"/><path class="cls-11" d="M131.39,170.84c1-16.6,2.91-27.7,2.11-35.88l-14-.21s1.43,26.34,2.3,37.3,5.58,38,5.58,38h4.32S132.9,183.68,131.39,170.84Z"/><path class="cls-11" d="M129.28,93.44a2.61,2.61,0,0,1-.55,0,.09.09,0,0,1-.08-.11.12.12,0,0,1,.12-.08,2.8,2.8,0,0,0,2.31-.73.11.11,0,0,1,.14,0,.1.1,0,0,1,0,.14A2.88,2.88,0,0,1,129.28,93.44Z"/><path class="cls-13" d="M171,147.28h-52.7L109.81,163a1,1,0,0,0,.91,1.54H171l4.31-8.62Z"/><path class="cls-13" d="M111.92,71.24a38.14,38.14,0,0,1,34.6,35.85A1,1,0,0,0,148,108l6.4-3.2a1.74,1.74,0,0,1,1.54,0l6.28,3.14a1,1,0,0,0,1.52-1,55.4,55.4,0,0,0-52-53l-4.26,8.52Z"/><path class="cls-16" d="M111.92,71.24a38.14,38.14,0,0,1,34.6,35.85A1,1,0,0,0,148,108l6.4-3.2a1.74,1.74,0,0,1,1.54,0l6.28,3.14a1,1,0,0,0,1.52-1,55.4,55.4,0,0,0-52-53l-4.26,8.52Z"/><path class="cls-13" d="M70.53,105.74a38.15,38.15,0,0,1,35.86-34.6,1,1,0,0,0,.87-1.5l-3.2-6.4a1.76,1.76,0,0,1,0-1.55l3.14-6.28a1,1,0,0,0-1-1.51,55.4,55.4,0,0,0-53,52l8.51,4.26Z"/><path class="cls-17" d="M70.53,105.74a38.15,38.15,0,0,1,35.86-34.6,1,1,0,0,0,.87-1.5l-3.2-6.4a1.76,1.76,0,0,1,0-1.55l3.14-6.28a1,1,0,0,0-1-1.51,55.4,55.4,0,0,0-53,52l8.51,4.26Z"/><path class="cls-18" d="M105,147.13h0a38.16,38.16,0,0,1-34.6-35.85,1,1,0,0,0-1.51-.88l-6.39,3.2a1.76,1.76,0,0,1-1.55,0l-6.28-3.14a1,1,0,0,0-1.51,1,55.07,55.07,0,0,0,15.19,35.84H41.75L46.11,156l-4.2,8.41h63.25l4.26-8.51Z"/><path class="cls-19" d="M105,147.13h0a38.16,38.16,0,0,1-34.6-35.85,1,1,0,0,0-1.51-.88l-6.39,3.2a1.76,1.76,0,0,1-1.55,0l-6.28-3.14a1,1,0,0,0-1.51,1,55.07,55.07,0,0,0,15.19,35.84H41.75L46.11,156l-4.2,8.41h63.25l4.26-8.51Z"/><path class="cls-13" d="M146.43,112.62h0a38.17,38.17,0,0,1-35.86,34.6,1,1,0,0,0-.88,1.5l3.2,6.41a1.72,1.72,0,0,1,0,1.53L109.75,163a1,1,0,0,0,1,1.51,55.38,55.38,0,0,0,53-52l-8.51-4.25Z"/><path class="cls-20" d="M146.43,112.62h0a38.17,38.17,0,0,1-35.86,34.6,1,1,0,0,0-.88,1.5l3.2,6.41a1.72,1.72,0,0,1,0,1.53L109.75,163a1,1,0,0,0,1,1.51,55.38,55.38,0,0,0,53-52l-8.51-4.25Z"/><path class="cls-13" d="M108.09,108.26l-2.48-7.11-3.78.36a17.87,17.87,0,0,0-3.19-3.57l.78-3.72L92.63,91l-2.42,2.92a18.15,18.15,0,0,0-4.78-.27l-2.08-3.17-7.11,2.48.35,3.78A18.09,18.09,0,0,0,73,99.88l-3.72-.78L66,105.89,69,108.31a17.74,17.74,0,0,0-.27,4.78l-3.18,2.08L68,122.28l3.77-.35A18.44,18.44,0,0,0,75,125.5l-.77,3.71L81,132.48l2.43-2.92a17.74,17.74,0,0,0,4.78.27L90.25,133l7.12-2.49L97,126.74a17.57,17.57,0,0,0,3.57-3.19l3.72.78,3.27-6.79-2.92-2.42a18.59,18.59,0,0,0,.27-4.78ZM89.54,119.55A8.3,8.3,0,1,1,94.63,109,8.3,8.3,0,0,1,89.54,119.55Z"/><path class="cls-21" d="M62.24,112.76c-.22.33-.48.77-.72,1.17s-.48.82-.72,1.25c-.46.84-.91,1.69-1.34,2.56a56.66,56.66,0,0,0-2.27,5.32c-.28.72,0,.29-.33-.16-.15-.18-.25-.18-.2-.15a1.23,1.23,0,0,0,.33.12,10.36,10.36,0,0,0,2.55.09c1.89-.12,3.88-.4,5.82-.71h0a1,1,0,0,1,1.17.84,1,1,0,0,1-.62,1.11,32.63,32.63,0,0,1-6,1.85c-.53.1-1.07.18-1.64.24a8.59,8.59,0,0,1-1.83,0,4.69,4.69,0,0,1-1.14-.26,3,3,0,0,1-1.4-1,2.75,2.75,0,0,1-.46-1,3,3,0,0,1-.07-1,5.11,5.11,0,0,1,.14-.72l.11-.38A41.52,41.52,0,0,1,55.79,116q.65-1.44,1.41-2.82c.25-.46.51-.92.79-1.38s.54-.89.89-1.38a2,2,0,0,1,3.39,2.27Z"/><path class="cls-21" d="M70,124.3l-.95.79a1.44,1.44,0,0,1-1.28.28l-2.09-.55a2.69,2.69,0,0,1-1.83-1.64l-.18-.5a9.07,9.07,0,0,1,4.12-1.86l.74-.2a1.19,1.19,0,0,1,1.5.79l.43,1.46A1.39,1.39,0,0,1,70,124.3Z"/><path class="cls-21" d="M64.86,97.69c.65,2.41,1.45,6.83-.12,8.44,0,0-1.2,2.26,5.91,1.89,5-.25,1.59-1.89,1.59-1.89-2.74-.64-2.82-2.64-2.49-4.51Z"/><path class="cls-13" d="M74.35,131.7s-4.86,25-8.62,36.66c-4,12.24-9.73,25.86-12.35,33.83-.82.11-3.14-.86-4.27-1.83,0,0,1.73-20.91,7.65-31.7-.6-31.51,5.39-37,5.39-37Z"/><path class="cls-22" d="M74.35,131.7s-4.86,25-8.62,36.66c-4,12.24-9.73,25.86-12.35,33.83-.82.11-3.14-.86-4.27-1.83,0,0,1.73-20.91,7.65-31.7-.6-31.51,5.39-37,5.39-37Z"/><path class="cls-14" d="M65.33,141.08l5,9.54c-1.14,5-2.41,10.21-3.62,14.44C63.07,154.91,65.33,141.08,65.33,141.08Z"/><path class="cls-13" d="M78.12,131.7s.55,21.79,1,35.36-.57,37.56-.57,37.56c-.1.66-3.56.39-4.14,0,0,0-6.61-19.44-4.09-36.26-8.84-21.81-6.29-36.12-6.29-36.12Z"/><path class="cls-22" d="M78.12,131.7s.55,21.79,1,35.36-.57,37.56-.57,37.56c-.1.66-3.56.39-4.14,0,0,0-6.61-19.44-4.09-36.26-8.84-21.81-6.29-36.12-6.29-36.12Z"/><path class="cls-21" d="M63,127.9a32.61,32.61,0,0,1-.47,3.8H78l.17-3.92S66.24,127.11,63,127.9Z"/><path class="cls-11" d="M79.6,111.89a67.55,67.55,0,0,1-.11,7.11c-.13,3.08.46,3.84,0,8.9-1.69,1-12.81.95-18.28.24.34-4.37.74-7.32-2.22-17.17a3.63,3.63,0,0,1,3.29-4.7c.66-.07,1.35-.12,2.06-.15a55.16,55.16,0,0,1,7.5,0c.81.07,1.66.17,2.47.27A6,6,0,0,1,79.6,111.89Z"/><path class="cls-21" d="M102.09,123.36l-.61-1.06a1.41,1.41,0,0,0-1.11-.71l-2.15-.21a2.68,2.68,0,0,0-2.28.92l-.35.4a9.14,9.14,0,0,0,3.24,3.16l.62.45a1.19,1.19,0,0,0,1.68-.23l.91-1.22A1.38,1.38,0,0,0,102.09,123.36Z"/><path class="cls-21" d="M81,113l.2.32.27.4c.19.27.4.54.62.81a20.82,20.82,0,0,0,1.44,1.55q.77.75,1.62,1.44c.57.45,1.16.89,1.77,1.31l-.36-.17a24.1,24.1,0,0,0,2.55.78c.91.23,1.82.47,2.75.68l2.78.67,2.8.67h0a1,1,0,0,1-.25,2c-1,0-2,0-2.93-.09s-2-.13-2.92-.22-1.95-.21-2.93-.37a22.11,22.11,0,0,1-3-.63l-.26-.11L85,122l-1.11-.64c-.36-.22-.73-.45-1.08-.7a19.5,19.5,0,0,1-2-1.6,17.49,17.49,0,0,1-1.86-1.89c-.28-.35-.56-.7-.82-1.08-.14-.19-.27-.39-.39-.59l-.19-.32c-.06-.13-.11-.21-.21-.41a2,2,0,0,1,3.56-2Z"/><path class="cls-11" d="M75,106.62c3,.79,5.57,3.36,9.1,8.43-.49,2.08-5,4.47-5,4.47S69.69,110.17,75,106.62Z"/><path class="cls-11" d="M72.71,93.21c.11.31.36.52.57.46s.28-.36.16-.67-.37-.52-.57-.46S72.59,92.9,72.71,93.21Z"/><path class="cls-11" d="M72.79,92.58l.67-.43S73.28,92.85,72.79,92.58Z"/><path class="cls-23" d="M72.94,93.8a9.82,9.82,0,0,0,1.83,1.68,1.34,1.34,0,0,1-1,.53Z"/><path class="cls-11" d="M72.23,90.61a.2.2,0,0,0,.12-.08.2.2,0,0,0-.08-.26,2,2,0,0,0-1.79-.21.18.18,0,0,0-.09.25.21.21,0,0,0,.27.1,1.59,1.59,0,0,1,1.42.17A.21.21,0,0,0,72.23,90.61Z"/><path class="cls-21" d="M62,95c1.49,3.67,2,5.25,4.6,6.63,3.84,2.08,8-.29,7.68-4.27-.33-3.58-2.73-9-6.92-9.44A5.08,5.08,0,0,0,62,95Z"/><path class="cls-11" d="M70.47,94.9c1.23,2.7,1.07,10.35-5.8,8s-6.39-6.11-4.54-9.08c-3.73-3.34,1.09-6,5.52-7.2S74,86.48,70.47,94.9Z"/><path class="cls-13" d="M63.73,94.66a2.93,2.93,0,1,1-3.45-2.29A2.92,2.92,0,0,1,63.73,94.66Z"/><path class="cls-11" d="M61.58,99.42c1.35-2.72.25-6.12-1.86-8.3-4-4.15-9.51-1.43-8,2.68,1.81,4.89-7.76,9.91-2.18,12.82s14.52-2.17,12-7.1Z"/><path class="cls-21" d="M68.94,95.1a2.74,2.74,0,0,0,1.8,1.27c.93.15,1.21-.93.8-1.93s-1.28-2.06-2.14-1.75S68.4,94.24,68.94,95.1Z"/><path class="cls-11" d="M62.12,106.3c-2.69.42-3.77,1.24-6,6.64,1,2,5.66,3.94,5.66,3.94S64.91,109.88,62.12,106.3Z"/><path class="cls-11" d="M78.15,132.88a74.13,74.13,0,0,1-16.58,0,.38.38,0,0,1-.29-.53c.14-.32.27-.63.4-.95a.35.35,0,0,1,.36-.22,73.23,73.23,0,0,0,15.94,0,.35.35,0,0,1,.38.33c0,.33.07.66.1,1A.37.37,0,0,1,78.15,132.88Z"/></g><path class="cls-24" d="M28,37.92C14.36,51,8.13,68.1,9.41,84.7c1.84,23.74,19,46.55,45.07,60.06,35.27,18.25,80.58,18.36,114.6-.85,31.8-18,50.51-47.82,52.81-77.29.56-7.29.09-14.82-3.84-21.5-9.56-16.22-34.26-15-54.24-13.24-16.63,1.48-21.42-4.92-35.18-10.25A104.34,104.34,0,0,0,89.1,14.78c-21.54.47-42.67,7.73-57.2,19.65C30.53,35.56,29.22,36.73,28,37.92Z"/></g></svg>