<svg xmlns="http://www.w3.org/2000/svg" xmlns:xlink="http://www.w3.org/1999/xlink" viewBox="0 0 231.33 157.2"><defs><style>.cls-1,.cls-76{fill:none;}.cls-2{clip-path:url(#clip-path);}.cls-3{fill:#32324c;}.cls-13,.cls-3{opacity:0.1;}.cls-4{fill:#dc4437;}.cls-5{fill:#8a2b22;}.cls-12,.cls-13,.cls-14,.cls-47,.cls-6{fill:#fff;}.cls-7{fill:gray;}.cls-8{fill:#4d4d4d;}.cls-9{fill:#1a1a1a;}.cls-10{fill:#0d2f36;}.cls-11{fill:#37c3dc;opacity:0.58;}.cls-12{opacity:0.15;}.cls-14,.cls-46{opacity:0.6;}.cls-15{fill:#363636;}.cls-16{fill:#242424;}.cls-17{fill:#ba2b20;}.cls-18{fill:#fc7c71;}.cls-19{fill:#6b3530;}.cls-20{fill:#636363;}.cls-21{fill:#262626;}.cls-22{fill:#858585;}.cls-23{fill:#c2c2c2;}.cls-24{fill:#474747;}.cls-25{fill:#dbd44e;}.cls-26{fill:#dbdbdb;}.cls-27{fill:#8a2a22;}.cls-28{fill:#a3a3a3;}.cls-29{fill:#3d3d3d;}.cls-30{fill:#575757;}.cls-31{fill:#7a261f;}.cls-32{fill:#7a7a7a;}.cls-33{fill:#912d24;}.cls-34{fill:#b5382d;}.cls-35{fill:#70231c;}.cls-36{fill:#ffa93f;}.cls-37{fill:#ad732b;}.cls-38{fill:#bd8779;}.cls-39{fill:#663f30;}.cls-40{fill:#ffb7a4;}.cls-41{fill:#dca537;}.cls-42{fill:#8c6923;}.cls-43{fill:#0f0f0f;}.cls-44{fill:#3b3b3b;}.cls-45{fill:#303030;}.cls-46{fill:#8cd7de;}.cls-47,.cls-61{opacity:0.2;}.cls-48{fill:#5c8c91;}.cls-49{fill:#121b1c;}.cls-50{fill:#324d4f;}.cls-51{fill:#1d2d2e;}.cls-52{fill:#1d2117;}.cls-53{fill:#93a673;}.cls-54{fill:#343b29;}.cls-55{fill:#9c7527;}.cls-56{fill:#171717;}.cls-57{fill:#919191;}.cls-58{fill:#0d0d0d;}.cls-59{fill:#3b422e;}.cls-60{fill:#a69b57;}.cls-62{fill:#b0362c;}.cls-63{fill:#c4ae29;}.cls-64{fill:#c42929;}.cls-65{fill:#cfa449;}.cls-66{fill:#5c4d2c;}.cls-67{fill:#121212;}.cls-68{fill:#dc9237;}.cls-69{fill:#080808;}.cls-70{fill:#1f1f1f;}.cls-71{fill:#333;}.cls-72{fill:#ffac2e;}.cls-73{fill:#0a0a0a;}.cls-74{fill:#787878;}.cls-75{fill:#545454;}.cls-76{stroke:#00953b;stroke-miterlimit:10;stroke-width:0.55px;}</style><clipPath id="clip-path"><path class="cls-1" d="M182.36,138.85c25.65-16.24,40.32-41,46.41-65.25,3.38-13.41,4.53-27.75-3.64-40.14-9.63-14.61-31-24.23-53.45-28.53C135.77-2,89.2-2.88,56.33,10.36,26.91,22.2,6,43.62,1.15,66.89-4.92,96,13.51,123.5,47,140.81a147.77,147.77,0,0,0,82.77,15.59C150.86,154.13,168.27,147.78,182.36,138.85Z"/></clipPath></defs><g id="Capa_1" data-name="Capa 1"><g class="cls-2"><path class="cls-3" d="M163.73,45.54c52.78,3.58,74.16,70.17,32.72,103-8.46,6.71-28.87,8.32-39.64,6.58-43.39-7-47.83-29.26-75.27-12.65S4.26,160.67,4.65,114.8s73.7-16.3,94.2-47.89C108.23,52.46,136.24,43.67,163.73,45.54Z"/><path class="cls-3" d="M128.73,33.8a7,7,0,0,1-2.22,7.72c-3.62,3-10.92,7.74-19.41,6.33-12.14-2-2.45-17.41,11.19-18.62C125.11,28.62,127.77,31.14,128.73,33.8Z"/><path class="cls-3" d="M96.8,50.19a3.64,3.64,0,0,1-3.37,2.47c-2.45.08-7-.29-10-3.59C79,44.36,88,41.11,94,45,97,46.89,97.26,48.78,96.8,50.19Z"/><path class="cls-3" d="M135.56,161.59a3.65,3.65,0,0,1-2.88,3c-2.39.52-6.91,1-10.51-1.71-5.14-3.85,3-8.66,9.65-5.95C135.12,158.32,135.75,160.12,135.56,161.59Z"/><path class="cls-3" d="M52.89,158.1a1.8,1.8,0,0,1-1.41,1.49,6.43,6.43,0,0,1-5.13-.84c-2.51-1.88,1.48-4.23,4.71-2.91C52.67,156.5,53,157.38,52.89,158.1Z"/><rect class="cls-4" x="149.2" y="106.68" width="27.36" height="34.26"/><rect class="cls-5" x="151.04" y="118.31" width="23.69" height="20.34"/><rect class="cls-6" x="151.04" y="108.9" width="23.69" height="6.77"/><path class="cls-4" d="M156.36,109.9h2.75v.83h-1.73v1H159v.83h-1.61v1.8h-1Z"/><path class="cls-4" d="M160.89,109.9v4.49h-1V109.9Z"/><path class="cls-4" d="M161.78,110a9.33,9.33,0,0,1,1.35-.09,2.32,2.32,0,0,1,1.45.35,1.14,1.14,0,0,1,.42.94,1.2,1.2,0,0,1-.8,1.11v0a1.11,1.11,0,0,1,.6.84,12.33,12.33,0,0,0,.37,1.26h-1a5.49,5.49,0,0,1-.31-1c-.12-.56-.32-.72-.73-.72h-.31v1.76h-1Zm1,1.93h.4c.51,0,.81-.25.81-.64s-.28-.62-.75-.63a3.25,3.25,0,0,0-.46,0Z"/><path class="cls-4" d="M168.4,112.49h-1.65v1.07h1.85v.83h-2.87V109.9h2.77v.83h-1.75v.94h1.65Z"/><rect class="cls-7" x="153.1" y="120.73" width="19.68" height="15.76"/><rect class="cls-8" x="155.68" y="122.79" width="14.54" height="11.64"/><circle class="cls-9" cx="162.95" cy="128.61" r="4.73"/><circle class="cls-4" cx="162.95" cy="128.61" r="3.35"/><path class="cls-6" d="M164.8,126.48a.64.64,0,0,1-.64.64.64.64,0,0,1,0-1.28A.64.64,0,0,1,164.8,126.48Z"/><rect class="cls-10" x="148.4" y="117.19" width="0.78" height="2.3"/><rect class="cls-10" x="176.56" y="117.19" width="0.78" height="2.3"/><path class="cls-11" d="M148.89,117.19v24h27.9v-24ZM176,139.79H149.82v-22H176Z"/><rect class="cls-12" x="149.82" y="117.82" width="26.19" height="21.97"/><polygon class="cls-13" points="155.57 139.79 150.57 139.79 157.38 117.83 162.38 117.83 155.57 139.79"/><polygon class="cls-13" points="165.51 139.79 163.53 139.79 170.34 117.83 172.33 117.83 165.51 139.79"/><polygon class="cls-14" points="152.71 119.1 173.77 119.1 173.77 133.75 172.07 120.21 152.71 119.1"/><rect class="cls-15" x="53.18" y="48.35" width="23.75" height="5.96" rx="1.99" transform="translate(-14.55 28.32) rotate(-22.15)"/><path class="cls-16" d="M54,55.67l.43,1A2,2,0,0,0,57,57.81l18.31-7.45a2,2,0,0,0,1.1-2.6l-.43-1Z"/><path class="cls-17" d="M56.38,29.78l-.17.07A9.41,9.41,0,0,0,51,42.11l4.09,10L72.74,45l-4.09-10A9.41,9.41,0,0,0,56.38,29.78Z"/><path class="cls-18" d="M57.56,32.71l-.15.06a8,8,0,0,0-4.36,10.35l3.45,8.47,14.86-6.05-3.45-8.47A7.94,7.94,0,0,0,57.56,32.71Z"/><ellipse class="cls-6" cx="61.92" cy="32.52" rx="1.62" ry="2.55" transform="translate(7.91 76.96) rotate(-67.15)"/><polygon class="cls-19" points="63.95 46.36 62.56 42.93 63.32 42.62 63.74 43.64 67.21 44.37 63.88 36.2 61.91 39.15 62.28 40.07 61.52 40.38 60.79 38.59 59.21 39.24 59.98 41.12 59.22 41.43 58.8 40.41 55.33 39.68 58.66 47.86 60.63 44.91 60.26 43.98 61.02 43.67 62.37 47 57.63 48.93 58.39 50.82 69.47 46.31 68.7 44.42 63.95 46.36"/><path class="cls-17" d="M54.24,24.76A1,1,0,0,1,53,24.23l-1.48-3.64A1,1,0,0,1,52,19.35a1,1,0,0,1,1.24.52l1.48,3.65A1,1,0,0,1,54.24,24.76Z"/><path class="cls-17" d="M65.65,24.84a1,1,0,0,1-.73,0,1,1,0,0,1-.51-1.24L65.94,20a1,1,0,1,1,1.75.74l-1.53,3.63A1,1,0,0,1,65.65,24.84Z"/><path class="cls-17" d="M76.6,31.76,73,33.24a.94.94,0,1,1-.71-1.75L75.88,30a1,1,0,0,1,.72,1.76Z"/><path class="cls-17" d="M46.12,32.77a1,1,0,0,1-.73,0l-3.63-1.53a.94.94,0,0,1-.5-1.24,1,1,0,0,1,1.24-.51L46.13,31a1,1,0,0,1,.5,1.25A1,1,0,0,1,46.12,32.77Z"/><path class="cls-17" d="M46.74,43.89l-3.65,1.48a.93.93,0,0,1-1.23-.52,1,1,0,0,1,.52-1.24L46,42.13a1,1,0,1,1,.72,1.76Z"/><path class="cls-4" d="M199.42,95.59H199l.81-.81a10.07,10.07,0,0,0,9.64-10h.81A10.87,10.87,0,0,1,199.42,95.59Z"/><path class="cls-20" d="M211.09,84.36A1.24,1.24,0,1,1,209.85,83,1.29,1.29,0,0,1,211.09,84.36Z"/><path class="cls-6" d="M210.73,83.76a.34.34,0,1,1-.68,0,.34.34,0,1,1,.68,0Z"/><rect class="cls-21" x="187.9" y="91.03" width="16.66" height="14.67" rx="0.5"/><circle class="cls-22" cx="196.23" cy="82.49" r="10.47"/><circle class="cls-23" cx="196.23" cy="82.4" r="4.34"/><path class="cls-24" d="M197.94,82.49a1.71,1.71,0,1,1-1.71-1.71A1.71,1.71,0,0,1,197.94,82.49Z"/><path class="cls-6" d="M202,75.26c.64.62.9,1.38.58,1.7s-1.08.1-1.72-.52-.9-1.37-.58-1.7S201.37,74.65,202,75.26Z"/><path d="M192,96.62a1.18,1.18,0,1,1-1.18-1.18A1.18,1.18,0,0,1,192,96.62Z"/><path d="M194.93,96.62a1.18,1.18,0,1,1-1.18-1.18A1.18,1.18,0,0,1,194.93,96.62Z"/><path class="cls-25" d="M191.69,96.62a.88.88,0,1,1-.88-.88A.88.88,0,0,1,191.69,96.62Z"/><path class="cls-4" d="M194.63,96.62a.88.88,0,0,1-1.76,0,.88.88,0,1,1,1.76,0Z"/><rect class="cls-26" x="189.93" y="99.29" width="12.25" height="4.67" rx="0.46"/><rect class="cls-4" x="158.76" y="57.63" width="12.86" height="29.03" rx="6.37" transform="translate(-13.57 48.97) rotate(-16.21)"/><path class="cls-27" d="M163.81,58a6.28,6.28,0,0,0-2.61.2l-.13,0a6.42,6.42,0,0,0-2.24,1.18C156.91,61,166.23,58.31,163.81,58Z"/><path class="cls-6" d="M165.86,60.61c.38.4.89.54,1.13.31s.11-.74-.28-1.14-.9-.53-1.13-.3S165.47,60.21,165.86,60.61Z"/><rect class="cls-6" x="169.81" y="67.04" width="1.25" height="9.82" rx="0.62" transform="translate(-13.31 50.43) rotate(-16.21)"/><path class="cls-22" d="M150.39,55.86c7.15-2.08,5.76-1.14,10.28-2.46l-.2-.68a1.07,1.07,0,0,0-1.33-.73l-9.48,2.75Z"/><rect class="cls-22" x="158.54" y="56.67" width="4.88" height="2.02" transform="translate(-9.7 47.23) rotate(-16.21)"/><rect class="cls-28" x="158.68" y="57.66" width="4.88" height="1.01" transform="matrix(0.96, -0.28, 0.28, 0.96, -9.83, 47.29)"/><rect class="cls-29" x="158.71" y="55.8" width="3.72" height="0.93" transform="translate(-9.32 47.06) rotate(-16.21)"/><path class="cls-9" d="M159.22,51.56h0a1.07,1.07,0,0,1,1.33.73l.94,3.22-2.09.61-.94-3.22A1.09,1.09,0,0,1,159.22,51.56Z"/><path class="cls-22" d="M159.07,52.94a.51.51,0,0,0,.64.34.5.5,0,0,0,.34-.63.51.51,0,0,0-.63-.35A.52.52,0,0,0,159.07,52.94Z"/><rect class="cls-22" x="152.48" y="55.53" width="6.73" height="0.64" transform="translate(-9.4 45.72) rotate(-16.21)"/><path class="cls-30" d="M171.33,59.43l.65-.19c-1-3.48-2.71-5.81-5-6.92a8.54,8.54,0,0,0-6.45-.15l.27.63a8,8,0,0,1,5.89.14C168.8,54,170.37,56.15,171.33,59.43Z"/><polygon class="cls-9" points="170.1 59.79 172.63 72.95 178.12 71.35 173.21 58.88 170.1 59.79"/><polygon class="cls-6" points="172.59 59.7 176.18 70.28 177.21 69.98 173.23 59.51 172.59 59.7"/><rect class="cls-6" x="159.25" y="67.17" width="6.59" height="10.76" transform="translate(-13.79 48.25) rotate(-16.21)"/><rect class="cls-31" x="158.74" y="67.84" width="5.39" height="1.89" transform="translate(-12.79 47.79) rotate(-16.21)"/><rect class="cls-32" x="159.61" y="71.35" width="5.39" height="0.89" transform="translate(-13.59 48.16) rotate(-16.21)"/><rect class="cls-32" x="160.09" y="72.98" width="5.39" height="0.89" transform="translate(-14.03 48.35) rotate(-16.21)"/><rect class="cls-32" x="162.15" y="74.39" width="3.77" height="0.89" transform="translate(-14.37 48.76) rotate(-16.21)"/><path class="cls-4" d="M120.35,110c0,7.84-31.86,7.84-31.86,0s7.13-14.19,15.93-14.19S120.35,102.12,120.35,110Z"/><ellipse class="cls-33" cx="104.42" cy="116.58" rx="13.69" ry="4.74"/><ellipse class="cls-33" cx="104.42" cy="116.58" rx="13.69" ry="4.74"/><path class="cls-34" d="M88.7,110.46c2.39-2.41,8.61-4.13,15.91-4.13,7.48,0,13.82,1.8,16.08,4.31Z"/><rect class="cls-4" x="97.82" y="93.78" width="13.2" height="10.73" rx="1.54"/><path class="cls-6" d="M115.55,100.5c.77.68,1.2,1.45,1,1.72s-1.06,0-1.83-.72-1.2-1.44-1-1.72S114.78,99.83,115.55,100.5Z"/><path class="cls-6" d="M128.56,117.49c0,1.43.84-6.27-24.27-8.65C117.7,108.84,128.56,112.71,128.56,117.49Z"/><path class="cls-4" d="M104.42,108.22c-13.57,0-24.56,3.88-24.56,8.66s11,10.68,24.56,10.68S129,121.66,129,116.88,118,108.22,104.42,108.22Zm0,13.1c-7.56,0-13.69-2.12-13.69-4.74s6.13-4.75,13.69-4.75,13.69,2.13,13.69,4.75S112,121.32,104.42,121.32Z"/><polygon class="cls-35" points="105.64 97.31 104.7 96.38 103.77 97.32 101.13 96.37 101.13 103.51 104.7 105.68 108.27 103.51 108.27 96.37 105.64 97.31"/><polygon class="cls-36" points="105.56 97.62 104.7 96.77 103.85 97.62 101.43 96.75 101.43 103.28 104.7 105.27 107.96 103.28 107.96 96.75 105.56 97.62"/><polygon class="cls-37" points="104.7 96.77 103.85 97.62 101.43 96.75 101.43 103.28 104.7 105.27 104.7 96.77"/><rect class="cls-38" x="99.96" y="126.87" width="8.84" height="16.97"/><path class="cls-39" d="M91.85,114.7c-1.92,3.59,2.42,16.5,5.37,16.5h14.2c2.94,0,8-14,5.43-16.61-3.24-2.48-11.41-1.56-11.41-1.56S95.13,111.9,91.85,114.7Z"/><path class="cls-40" d="M93.44,122.34A3.51,3.51,0,0,1,92,115.51C93.71,115.17,95.14,122,93.44,122.34Z"/><path class="cls-40" d="M115.1,122.34a3.51,3.51,0,0,0,1.41-6.83C114.83,115.17,113.42,122,115.1,122.34Z"/><path class="cls-40" d="M104.36,134.83c9.54,0,11.43-13.39,11.74-20.71-6.48-3.25-18-2.86-23.26-.08C93.13,121.33,94.93,134.83,104.36,134.83Z"/><path class="cls-21" d="M132.68,159.74c-.1-10.92-3.9-16.23-3.9-16.23-.37-3.78-19.06-7.13-19.29-6.88l-5,6.71-4.89-6.53-.13-.18c-.21-.22-14.72,2.41-18.5,5.67a2,2,0,0,0-.78,1.21s-2.75,4.67-4,16.06l0,0s0,.08,0,.13Z"/><polygon class="cls-41" points="97.24 143.88 95.89 136.73 99.95 133.61 103.17 140.01 97.24 143.88"/><polygon class="cls-42" points="103.17 140.01 104.47 143.34 100.33 141.86 103.17 140.01"/><polygon class="cls-41" points="111.69 143.88 113.04 136.73 108.8 133.61 105.76 140.01 111.69 143.88"/><polygon class="cls-42" points="105.76 140.01 104.47 143.34 108.6 141.86 105.76 140.01"/><path class="cls-41" d="M112.67,137.09c-.64-.11,0,1,0,1s11,2.9,15.6,5.74l.51-.33S129.6,140.28,112.67,137.09Z"/><path class="cls-41" d="M96.13,137.09c.64-.11,0,1,0,1s-11,2.9-15.6,5.74l-.5-.33S79.93,140.05,96.13,137.09Z"/><rect class="cls-41" x="113.54" y="155.62" width="13.45" height="1.94"/><rect class="cls-43" x="116.12" y="142.2" width="6.88" height="8.08" rx="1.8"/><rect class="cls-44" x="117.92" y="141.34" width="2.9" height="0.86"/><path class="cls-45" d="M121.2,150.28h-3.32v-1.06c0-.41.46-.75,1-.75h1.26c.57,0,1,.34,1,.75Z"/><rect class="cls-43" x="118.44" y="139.15" width="0.92" height="2.19"/><path class="cls-43" d="M118.9,139.59a.25.25,0,0,1-.24-.23s-.1-1.71-1.06-2.2c-.55-.29-1.29-.13-2.22.45a.23.23,0,0,1-.33-.08.24.24,0,0,1,.07-.33,2.72,2.72,0,0,1,2.7-.47c1.21.62,1.32,2.53,1.33,2.61a.25.25,0,0,1-.23.25Z"/><rect class="cls-41" x="102.86" y="143.34" width="3.22" height="16.45"/><path class="cls-46" d="M109.52,136H99.06a9.7,9.7,0,0,1-9.7-9.71V112.62s5.15-2.07,15-2.07,14.84,2.07,14.84,2.07v13.67A9.71,9.71,0,0,1,109.52,136Z"/><path class="cls-47" d="M105.22,136H99.06l5.33-25.45a61.55,61.55,0,0,1,7.26.41Z"/><path class="cls-48" d="M89.36,114.75v-2.13s5.15-2.07,15-2.07,14.84,2.07,14.84,2.07v2.13A202.29,202.29,0,0,0,89.36,114.75Z"/><path class="cls-49" d="M88.16,115.44h1.2V113h-1.2a1.2,1.2,0,0,0-1.21,1.2v0A1.21,1.21,0,0,0,88.16,115.44Z"/><path class="cls-49" d="M120.43,113h-1.2v2.43h1.2a1.21,1.21,0,0,0,1.2-1.21v0A1.21,1.21,0,0,0,120.43,113Z"/><path class="cls-50" d="M88.58,114.18v-1.9s5.42-2.17,15.81-2.17S120,112.28,120,112.28v1.9C105.15,111.88,88.58,114.18,88.58,114.18Z"/><path class="cls-51" d="M88.58,114.18v-.69s5.42-1.35,15.81-1.35S120,113.49,120,113.49v.69C105.15,111.88,88.58,114.18,88.58,114.18Z"/><path class="cls-6" d="M117.31,122.87h0a1,1,0,0,1-.89-1v-5.35a1,1,0,0,1,1.13-1h0a1,1,0,0,1,.9,1v5.35A1,1,0,0,1,117.31,122.87Z"/><path class="cls-52" d="M50,138.93H46.57a.56.56,0,0,1-.56-.56.57.57,0,0,1,.56-.57H50a.56.56,0,0,0,.56-.55v-.73a.56.56,0,0,1,.56-.56.57.57,0,0,1,.57.56v.73A1.69,1.69,0,0,1,50,138.93Z"/><path class="cls-52" d="M45.72,138.93H42.3a1.68,1.68,0,0,1-1.68-1.68v-.73a.56.56,0,0,1,1.12,0v.73a.56.56,0,0,0,.56.55h3.42a.58.58,0,0,1,.57.57A.57.57,0,0,1,45.72,138.93Z"/><path class="cls-53" d="M49.11,105.1h-.82a2.22,2.22,0,0,0-4.42,0H43a1.84,1.84,0,0,0-1.84,1.84v0A1.84,1.84,0,0,0,43,108.83l1.92.68a3.34,3.34,0,0,0,2.25,0l1.91-.68A1.85,1.85,0,0,0,51,107v0A1.84,1.84,0,0,0,49.11,105.1Z"/><path class="cls-54" d="M43.18,106.89c0,.66-.37,1.19-.83,1.19s-.83-.53-.83-1.19.38-1.19.83-1.19S43.18,106.23,43.18,106.89Z"/><path class="cls-54" d="M50.72,106.89c0,.66-.38,1.19-.83,1.19s-.83-.53-.83-1.19.37-1.19.83-1.19S50.72,106.23,50.72,106.89Z"/><path class="cls-52" d="M53.91,142.67H47.84c-2,0-2.2-1.26-2.2-2.2a.56.56,0,1,1,1.12,0c0,.76.1,1.07,1.08,1.07h6.07A6.6,6.6,0,0,0,60.5,135V111.17a3.68,3.68,0,0,0-3.68-3.68H49.89a.56.56,0,0,1-.57-.56.57.57,0,0,1,.57-.57h6.93a4.82,4.82,0,0,1,4.81,4.81V135A7.72,7.72,0,0,1,53.91,142.67Z"/><rect class="cls-41" x="37.09" y="112.9" width="8.19" height="21.47" rx="4.05"/><rect class="cls-6" x="43.55" y="116.6" width="1.06" height="13.69" rx="0.52"/><rect class="cls-55" x="37.09" y="121.07" width="8.19" height="4.28"/><rect class="cls-56" x="36.73" y="121.51" width="8.92" height="3.29"/><rect class="cls-57" x="39.32" y="134.26" width="3.73" height="1.77"/><rect class="cls-45" x="40.13" y="136.03" width="2.1" height="1"/><rect class="cls-41" x="47.02" y="112.9" width="8.19" height="21.47" rx="4.05"/><rect class="cls-6" x="53.48" y="116.6" width="1.06" height="13.69" rx="0.52"/><rect class="cls-55" x="47.02" y="121.07" width="8.19" height="4.28"/><rect class="cls-56" x="46.66" y="121.51" width="8.92" height="3.29"/><rect class="cls-57" x="49.25" y="134.26" width="3.73" height="1.77"/><rect class="cls-45" x="50.06" y="136.03" width="2.1" height="1"/><polygon class="cls-58" points="48.41 137.42 43.9 137.42 43.9 139.46 45.12 139.46 45.12 141.12 47.19 141.12 47.19 139.46 48.41 139.46 48.41 137.42"/><polygon class="cls-59" points="47.28 108.98 44.87 108.98 45.37 105.7 46.77 105.7 47.28 108.98"/><path class="cls-60" d="M110.69,82.38l2.83-3.52,11.83-22.32a.32.32,0,0,1,.43-.13l1.89,1a.32.32,0,0,1,.13.44l-6.72,12.67a.76.76,0,0,1-.78.41L113,84.78l-2-1.07A.89.89,0,0,1,110.69,82.38Z"/><path class="cls-4" d="M110.69,82.38l.93-1.16,2.52,1.33L113,84.78l-2-1.07A.89.89,0,0,1,110.69,82.38Z"/><polygon class="cls-61" points="113.31 82.81 112.32 82.28 119.15 71.45 113.31 82.81"/><rect class="cls-4" x="120.75" y="59.28" width="7.79" height="3.17" transform="translate(12.5 142.49) rotate(-62.08)"/><path class="cls-4" d="M113.43,62.37s3-2.14,8.27.66l3.11-5.87-6.55-3.9Z"/><path class="cls-62" d="M121,62.66l.73.37,3.11-5.87-.72-.43Z"/><path class="cls-28" d="M113.43,62.37a7.59,7.59,0,0,1,2.08-.68L119.57,54l-1.31-.78Z"/><polygon class="cls-6" points="127.53 58.33 126.33 57.7 127.04 58.55 124.18 64.37 127.53 58.33"/><path class="cls-4" d="M127.3,59.21l-2.61,4.95s4.45-.59,7.11,2.59A18.45,18.45,0,0,0,127.3,59.21Z"/><path class="cls-62" d="M127.3,59.21l-2.61,4.95s.23,0,.61,0l2.33-4.57A1.87,1.87,0,0,0,127.3,59.21Z"/><path class="cls-6" d="M128.09,60.44a16.67,16.67,0,0,1,3.43,5.75l-.29-.2C130.94,64.46,128.09,60.44,128.09,60.44Z"/><rect class="cls-21" x="103.96" y="60.14" width="6.9" height="12.88"/><path class="cls-63" d="M105.9,66.07a.52.52,0,0,1-.52.51.52.52,0,1,1,0-1A.52.52,0,0,1,105.9,66.07Z"/><path class="cls-64" d="M107.25,66.07a.52.52,0,1,1-.51-.52A.51.51,0,0,1,107.25,66.07Z"/><rect class="cls-43" x="104.62" y="67.07" width="5.49" height="5.2"/><rect class="cls-64" x="108.39" y="59.59" width="1.29" height="0.55"/><rect class="cls-21" x="104.62" y="59.59" width="1.7" height="0.55"/><rect class="cls-56" x="104.62" y="59.87" width="1.7" height="0.28"/><path class="cls-56" d="M105.47,52.79h0a.31.31,0,0,0-.31.31v6.49h.62V53.1A.31.31,0,0,0,105.47,52.79Z"/><rect class="cls-65" x="104.86" y="61.06" width="5.09" height="4.04"/><rect class="cls-66" x="105.32" y="61.49" width="4.08" height="0.47"/><rect class="cls-66" x="105.32" y="62.28" width="4.08" height="0.47"/><rect class="cls-66" x="105.32" y="63.08" width="4.08" height="0.47"/><rect class="cls-66" x="105.32" y="64.51" width="2.25" height="0.24"/><rect class="cls-21" x="103.05" y="73.02" width="8.64" height="1.55"/><rect class="cls-67" x="103.05" y="73.02" width="8.64" height="0.77"/><rect class="cls-68" x="110.86" y="61.37" width="0.66" height="2.1"/><path class="cls-69" d="M67.68,94.86a10.8,10.8,0,0,1-7.53-3.59c-1.74-1.86-.94-8.75.94-13.09.74-1.7,1.95-3.74,3.55-3.74a2.63,2.63,0,0,1,2.26,1c1.07,1.47.28,4,.25,4.12l-.51-.16s.74-2.4-.17-3.64A2.12,2.12,0,0,0,64.64,75c-1,0-2.11,1.22-3.07,3.42-1.77,4.11-2.62,10.82-1,12.52,2.92,3.14,7,4,9,3.06,2.66-1.41,2.1-4.37,1.46-7.79-.69-3.62-1.46-7.72,1.61-10.77,1.29-1.09,3.24-.09,3.32,0l-.24.47S74,75,73,75.8c-2.86,2.84-2.14,6.62-1.45,10.28.65,3.48,1.27,6.76-1.74,8.37A5.07,5.07,0,0,1,67.68,94.86Z"/><path class="cls-15" d="M76.48,76.78l-.37-.36a1.81,1.81,0,0,0-1.24-.5h0a.46.46,0,0,1-.47-.46v-.41a.47.47,0,0,1,.47-.47h2.55Z"/><path class="cls-58" d="M76.5,76.34l-.25-.24a1.22,1.22,0,0,0-.85-.34h0a.31.31,0,0,1-.31-.32v-.28a.32.32,0,0,1,.31-.32h1.74Z"/><path class="cls-70" d="M79.43,79H78.31A2.31,2.31,0,0,1,76,76.73v0a2.32,2.32,0,0,1,2.31-2.31h1.12Z"/><rect class="cls-71" x="79.43" y="73.92" width="1.37" height="5.54"/><rect class="cls-56" x="80.8" y="73.92" width="0.55" height="5.54"/><path class="cls-72" d="M81.36,79.23h0V74.15h0a.88.88,0,0,1,.88.88v3.32A.88.88,0,0,1,81.36,79.23Z"/><rect class="cls-73" x="78.03" y="77.26" width="1.4" height="0.5"/><rect class="cls-73" x="78.03" y="78.85" width="1.4" height="0.5"/><rect class="cls-73" x="78.03" y="75.67" width="1.4" height="0.5"/><rect class="cls-73" x="78.03" y="74.08" width="1.4" height="0.5"/><polygon class="cls-74" points="67.32 79.09 66.56 79.09 66.22 80.92 66.98 80.92 67.32 79.09"/><rect class="cls-15" x="62" y="82.51" width="16.03" height="2.34"/><rect class="cls-21" x="62" y="82.51" width="16.03" height="1.17"/><rect class="cls-15" x="62.63" y="84.86" width="14.76" height="10.79"/><rect class="cls-70" x="62.63" y="84.86" width="14.76" height="1.61"/><path class="cls-9" d="M66.62,88.84a1.21,1.21,0,1,1-1.21-1.22A1.21,1.21,0,0,1,66.62,88.84Z"/><path class="cls-15" d="M66.28,88.85a.88.88,0,1,1-.87-.88A.87.87,0,0,1,66.28,88.85Z"/><circle class="cls-70" cx="70.01" cy="88.84" r="1.21"/><circle class="cls-15" cx="70.01" cy="88.85" r="0.87"/><circle class="cls-70" cx="74.62" cy="88.84" r="1.21"/><circle class="cls-15" cx="74.62" cy="88.85" r="0.87"/><rect class="cls-70" x="63.18" y="92.83" width="13.51" height="0.37"/><path class="cls-15" d="M64.2,80.92h-.35a.66.66,0,0,0-.67.66v.93h1Z"/><path class="cls-15" d="M75.83,80.92h.36a.65.65,0,0,1,.66.66v.93h-1Z"/><path class="cls-75" d="M75.84,82.26H75.6V76.78a.38.38,0,0,0-.37-.38H64.8a.38.38,0,0,0-.38.38v5.48h-.23V76.78a.61.61,0,0,1,.61-.61H75.23a.61.61,0,0,1,.61.61Z"/><rect class="cls-21" x="64.42" y="81.26" width="0.42" height="0.63"/><rect class="cls-21" x="75.18" y="81.26" width="0.42" height="0.63"/><rect class="cls-9" x="65.24" y="87.94" width="0.33" height="1.83"/><rect class="cls-9" x="69.1" y="88.69" width="1.83" height="0.33" transform="translate(-38.68 120.22) rotate(-67.86)"/><rect class="cls-9" x="74.45" y="87.94" width="0.33" height="1.83" transform="translate(-40.24 72.39) rotate(-41.82)"/><rect class="cls-9" x="65.61" y="80.92" width="1.93" height="1.6"/></g><path class="cls-76" d="M27.66,33.27C14.05,46.34,7.81,63.45,9.1,80.05c1.83,23.74,19,46.55,45.07,60.06,35.27,18.25,80.58,18.36,114.6-.85,31.79-18,50.51-47.82,52.8-77.29.57-7.29.1-14.82-3.84-21.5-9.55-16.22-34.26-15-54.24-13.24-16.62,1.48-21.42-4.92-35.17-10.25a104.39,104.39,0,0,0-39.54-6.85c-21.53.47-42.67,7.73-57.19,19.65C30.22,30.91,28.9,32.08,27.66,33.27Z"/></g></svg>