<svg xmlns="http://www.w3.org/2000/svg" xmlns:xlink="http://www.w3.org/1999/xlink" viewBox="0 0 245.51 176.09"><defs><style>.cls-1,.cls-10,.cls-11,.cls-14,.cls-17,.cls-18,.cls-19,.cls-21,.cls-23,.cls-25,.cls-28,.cls-31,.cls-35,.cls-37,.cls-7{fill:none;}.cls-2{clip-path:url(#clip-path);}.cls-3{fill:#32324c;opacity:0.1;}.cls-4{fill:#1d0300;}.cls-5{fill:#fab093;}.cls-6{fill:#063886;}.cls-10,.cls-19,.cls-23,.cls-7{stroke:#000;}.cls-10,.cls-11,.cls-14,.cls-17,.cls-18,.cls-19,.cls-21,.cls-23,.cls-25,.cls-35,.cls-7{stroke-linecap:round;stroke-linejoin:round;}.cls-18,.cls-7{stroke-width:0.38px;}.cls-8{fill:#95514c;}.cls-9{fill:#f8b498;}.cls-10{stroke-width:0.2px;}.cls-11{stroke:#f6c668;stroke-width:0.39px;}.cls-12,.cls-30{fill:#fff;}.cls-13{fill:#f5cc58;}.cls-14{stroke:#ea967c;stroke-width:0.34px;}.cls-15{fill:#db7e68;}.cls-16{fill:#281818;}.cls-17{stroke:#1d0300;stroke-width:0.54px;}.cls-18{stroke:#4c4c4c;}.cls-19{stroke-width:0.2px;}.cls-20{fill:#f696b6;}.cls-21,.cls-31,.cls-35{stroke:#fff;}.cls-21{stroke-width:0.42px;}.cls-22{fill:#3859b6;}.cls-23{stroke-width:0.21px;}.cls-24{fill:#f62828;}.cls-25{stroke:#f5ab8e;stroke-width:0.32px;}.cls-26{fill:#f1a289;}.cls-27{fill:#f75353;}.cls-28{stroke:#282828;stroke-width:0.38px;}.cls-28,.cls-31,.cls-37{stroke-miterlimit:10;}.cls-29{fill:#702c2b;}.cls-30{opacity:0.23;}.cls-31{stroke-width:0.22px;}.cls-32{fill:#ef6901;}.cls-33{fill:#fdbda6;}.cls-34{clip-path:url(#clip-path-2);}.cls-35{stroke-width:0.41px;}.cls-36{clip-path:url(#clip-path-3);}.cls-37{stroke:#00953b;stroke-width:0.55px;}</style><clipPath id="clip-path"><path class="cls-1" d="M182.36,138.85c25.65-16.24,40.32-41,46.41-65.25,3.38-13.41,4.53-27.75-3.64-40.14-9.63-14.61-31-24.23-53.45-28.53C135.77-2,89.2-2.88,56.33,10.36,26.91,22.2,6,43.62,1.15,66.89-4.92,96,13.51,123.5,47,140.81a147.77,147.77,0,0,0,82.77,15.59C150.86,154.13,168.27,147.78,182.36,138.85Z"/></clipPath><clipPath id="clip-path-2"><path d="M124.67,168.68l-7.69-.05a6.47,6.47,0,0,1-4.33,2.31c-2.85.3-5.16,1.8-5.38,3.82h18.59A31.21,31.21,0,0,0,124.67,168.68Z"/></clipPath><clipPath id="clip-path-3"><path d="M130.21,168.68l7.68-.05a6.51,6.51,0,0,0,4.33,2.31c2.85.3,5.16,1.8,5.38,3.82H129A31.82,31.82,0,0,1,130.21,168.68Z"/></clipPath></defs><g id="Capa_1" data-name="Capa 1"><g class="cls-2"><path class="cls-3" d="M183.23,39.39C236,43,257.4,109.56,216,142.43c-8.46,6.71-28.87,8.32-39.64,6.58-43.39-7-47.82-29.26-75.27-12.65s-77.28,18.16-76.89-27.71,73.7-16.3,94.21-47.89C127.73,46.3,155.75,37.52,183.23,39.39Z"/><path class="cls-3" d="M148.23,27.65A7,7,0,0,1,146,35.37c-3.61,3-10.91,7.74-19.41,6.33-12.14-2-2.45-17.41,11.19-18.62C144.62,22.47,147.28,25,148.23,27.65Z"/><path class="cls-3" d="M116.31,44a3.66,3.66,0,0,1-3.38,2.48c-2.45.07-7-.29-10-3.59-4.36-4.72,4.55-8,10.56-4.11C116.47,40.74,116.77,42.63,116.31,44Z"/><path class="cls-3" d="M155.06,155.44a3.64,3.64,0,0,1-2.87,3c-2.39.52-6.92,1-10.52-1.71-5.14-3.85,3-8.66,9.65-6C154.63,152.17,155.26,154,155.06,155.44Z"/><path class="cls-3" d="M72.39,152a1.76,1.76,0,0,1-1.4,1.48,6.4,6.4,0,0,1-5.14-.83c-2.51-1.88,1.48-4.23,4.71-2.91C72.18,150.35,72.48,151.23,72.39,152Z"/><path class="cls-4" d="M196.17,172l-3.87,2.13a1.14,1.14,0,0,0-.53,1.24c.1.38.43.68,1.29.7,1.92,0,10.38-1.38,10.38-1.38v1l3.93-.49s.28-5-.92-5.75Z"/><path class="cls-5" d="M201.36,167.79,196.17,172s.67,1.92,3.63.64,6.65-3.2,6.65-3.2l-.54-2.21Z"/><polygon class="cls-5" points="205.91 167.25 206.45 151.88 201.31 151.47 201.31 169.46 205.91 167.25"/><path class="cls-4" d="M220.28,172l3.87,2.13a1.14,1.14,0,0,1,.53,1.24c-.1.38-.43.68-1.3.7-1.91,0-10.38-1.38-10.38-1.38v1l-3.92-.49s-.28-5,.92-5.75Z"/><path class="cls-5" d="M215.09,167.79l5.19,4.23s-.67,1.92-3.63.64-6.65-3.2-6.65-3.2l.54-2.21Z"/><polygon class="cls-5" points="210.54 167.25 210.93 151.88 216.07 151.47 215.14 169.46 210.54 167.25"/><path class="cls-6" d="M202.23,81.56s-6.2,3.92-5,21.83,3.11,60,3.11,60h6.32l2.14-66.67,1-.05,0,66.72h6.32l5-61.3s1.46-12-4.4-20.49C217.56,82.11,209.12,77.57,202.23,81.56Z"/><line class="cls-7" x1="206.03" y1="96.67" x2="212.38" y2="96.97"/><circle class="cls-8" cx="215.02" cy="48.32" r="4.57"/><path class="cls-9" d="M203.24,41.31a1.49,1.49,0,0,0-2.09.17c-1.34,1.69,1,4.76,3,3.18Z"/><path class="cls-10" d="M202,42.44s.67-.21,1.4,1.21"/><path class="cls-11" d="M205.08,46.57c-.1,1.36-.82,2.17-1.55,2.17S202,47.82,202,46.69s.67-2.06,1.51-2.06"/><path class="cls-9" d="M216.19,41.31a1.48,1.48,0,0,1,2.09.17c1.34,1.69-1,4.76-3.05,3.18Z"/><path class="cls-10" d="M217.41,42.44s-.68-.21-1.41,1.21"/><path class="cls-11" d="M214.29,46.43c0,1.26.87,2.31,1.6,2.31s1.52-.92,1.52-2.05-.68-2.06-1.52-2.06"/><ellipse class="cls-8" cx="209.75" cy="38.1" rx="7.73" ry="7.53"/><polygon class="cls-9" points="207.58 48.14 207.07 55.74 212.36 55.74 211.62 48.05 207.58 48.14"/><path d="M207.52,48.67c.18.1,4.46,3.12,4.46,3.12l-.36-3.74Z"/><path class="cls-9" d="M203.23,37.54s-.82,11.63,6.26,11.63c7.65,0,6.85-11.63,6.85-11.63s0-5.24-6.62-5.24C203.7,32.3,203.23,37.54,203.23,37.54Z"/><path d="M207.43,41.61a.56.56,0,1,1-.56-.55A.56.56,0,0,1,207.43,41.61Z"/><circle cx="212.45" cy="41.61" r="0.56"/><path class="cls-12" d="M207.66,45h3.53s-.24.9-1.75.9S207.66,45,207.66,45Z"/><polyline class="cls-10" points="209.12 43.02 209.12 43.92 209.78 43.94"/><path class="cls-4" d="M212.4,38.47s-1.43-.28-1.49.49c0,0,0,.53,1.21.74s2.13.27,2.28-.22S213.08,38.53,212.4,38.47Z"/><path class="cls-4" d="M205.84,38.55s-1.46.06-1.35.83c0,0,.09.51,1.36.42S208,39.57,208,39,206.51,38.45,205.84,38.55Z"/><path class="cls-8" d="M202.72,37.77s4.78-1.29,5.3-5.47C208,32.3,202.93,31.31,202.72,37.77Z"/><path class="cls-8" d="M206.88,32.25s1.12,5.6,10.07,5.3c0,0-.58-5-5.06-5.81S206.88,32.25,206.88,32.25Z"/><path class="cls-4" d="M202.23,79.6v2a73.65,73.65,0,0,1,14.5,0v-2l-7.27-2.1Z"/><path class="cls-13" d="M203.83,55.71l-5.1,1.21s2.12,15.31,3.5,22.68a49.91,49.91,0,0,1,14.5,0s3.68-16,5.31-22.68l-5.87-1.56Z"/><path class="cls-9" d="M209.84,53l-6,2.74s.19,2.63,6.4,2.64c5.29,0,5.94-3,5.94-3Z"/><path class="cls-13" d="M219.22,56.66s4-1.3,6.67,4.54,5.29,12.5,5.29,12.5L226.3,75l-7.82-11.62Z"/><line class="cls-7" x1="219.86" y1="65.77" x2="220.34" y2="63.21"/><path class="cls-5" d="M234.47,55.82l2.85.65-4.38,18.79a3.38,3.38,0,0,1-4.81,2.18h0a3.37,3.37,0,0,1-1.52-4.4Z"/><path class="cls-5" d="M234.53,55.2l.17-.74A6.38,6.38,0,0,1,236,51.74l1.13-1.39a.7.7,0,0,1,1.06,0h0a.9.9,0,0,1,.12,1l-.86,1.7L243,49.4a.54.54,0,0,1,.78.19l.1.19a.54.54,0,0,1-.14.67L240.09,53l4.55-2.37a.52.52,0,0,1,.76.24l.06.14a.54.54,0,0,1-.21.68L241.35,54l3.35-1.11a.53.53,0,0,1,.71.43v.07a.53.53,0,0,1-.3.55l-3.4,1.41,1.91-.32a.53.53,0,0,1,.69.58h0a.5.5,0,0,1-.32.42l-8.61,3.43-.71-2A4.28,4.28,0,0,1,234.53,55.2Z"/><path class="cls-14" d="M237.46,53a3.5,3.5,0,0,1-.37,3"/><path class="cls-13" d="M200.82,56.91s-4-1.3-6.66,4.54a111,111,0,0,1-6.06,11.34l5.64,2.47L202,63.64Z"/><line class="cls-7" x1="200.08" y1="66.29" x2="199.8" y2="63.53"/><path class="cls-5" d="M174.34,63.94l-1.64,2.41,16,10.75a3.36,3.36,0,0,0,5-1.69h0a3.36,3.36,0,0,0-1.88-4.25Z"/><polygon class="cls-15" points="76.06 170.35 82.34 170.35 82.59 158.11 76.31 158.11 76.06 170.35"/><path class="cls-12" d="M82.87,168.13h-7.7a9.29,9.29,0,0,1-5.12,2.4c-3,.32-4.72,1.92-5,4.08H84.15A33.86,33.86,0,0,0,82.87,168.13Z"/><rect class="cls-16" x="65.08" y="174.61" width="19.07" height="1.36" transform="translate(149.24 350.59) rotate(180)"/><path class="cls-17" d="M83.64,171.26s-3.61.37-3.61,3.35"/><path class="cls-17" d="M73.45,169.3a3.46,3.46,0,0,1,1.79.89"/><path class="cls-17" d="M72,170.19a2.61,2.61,0,0,1,1.76.91"/><polygon class="cls-15" points="98.78 170.35 92.51 170.35 92.26 158.11 98.54 158.11 98.78 170.35"/><path class="cls-12" d="M92,168.13h7.71a9.29,9.29,0,0,0,5.11,2.4c3,.32,4.73,1.92,5,4.08H90.7A33.24,33.24,0,0,1,92,168.13Z"/><rect class="cls-16" x="90.7" y="174.61" width="19.07" height="1.36"/><path class="cls-17" d="M91.2,171.26s3.61.37,3.61,3.35"/><path class="cls-17" d="M101.4,169.3a3.46,3.46,0,0,0-1.79.89"/><path class="cls-17" d="M102.81,170.19a2.62,2.62,0,0,0-1.77.91"/><path class="cls-16" d="M75.07,87.76l-.17,17.11-.28,58H85.19l1.93-61.21,2.94,61.21h10.49s-.38-52.25-1.55-71.66l-.35-3.42-11.15-5Z"/><line class="cls-18" x1="87.12" y1="101.73" x2="82.08" y2="99.85"/><path class="cls-15" d="M79.88,34.85a1.51,1.51,0,0,0-2.12.17c-1.36,1.72,1,4.82,3.09,3.23Z"/><path class="cls-19" d="M78.64,36s.69-.22,1.43,1.22"/><path class="cls-15" d="M92.91,34.85A1.51,1.51,0,0,1,95,35c1.36,1.72-1,4.82-3.08,3.23Z"/><path class="cls-19" d="M94.15,36s-.68-.22-1.42,1.22"/><circle cx="86.51" cy="31.18" r="8.12"/><polygon class="cls-15" points="84.06 42.16 83.22 48.53 89.92 48.46 88.7 42.07 84.06 42.16"/><path d="M84,42.71c.2.09,5.39,2.95,5.39,2.95l-.69-3.59Z"/><path class="cls-15" d="M79.87,31s-1,12.27,6.34,12.42C94.15,43.61,93.15,31,93.15,31a6.3,6.3,0,0,0-6.7-6.24C80.35,24.79,79.87,31,79.87,31Z"/><path d="M80.41,27.75s4.8,1.17,12.63,0c0,0-.67-3.58-6.32-3.58S80.41,27.75,80.41,27.75Z"/><path d="M81,27.38s.6,1.55-1.08,3.65l-.52-1.41,1.5-3.39"/><path d="M92.16,27.38s-.61,1.55,1.08,3.65l.51-1.41-1.5-3.39"/><circle cx="83.41" cy="34.75" r="0.57"/><circle cx="89.07" cy="34.75" r="0.57"/><path d="M81.3,32.33l3.32-.3a.46.46,0,0,0,.22-.84,2.81,2.81,0,0,0-1.94-.38A3.68,3.68,0,0,0,81,31.5.46.46,0,0,0,81.3,32.33Z"/><path d="M91,32.33,87.72,32a.46.46,0,0,1-.22-.84,2.83,2.83,0,0,1,2-.38,3.68,3.68,0,0,1,1.9.69A.46.46,0,0,1,91,32.33Z"/><polyline class="cls-19" points="85.68 35.44 85.69 37.09 86.63 37.11"/><path class="cls-12" d="M84,38.06H88.7a2.55,2.55,0,0,1-4.68,0Z"/><path class="cls-15" d="M105.6,58.3l6.6,12.1a4.44,4.44,0,0,1-1.7,6h0a4.43,4.43,0,0,1-6-1.52L97.69,63.78Z"/><path class="cls-20" d="M107.66,60l-9.59,6.08L93.74,59a5.61,5.61,0,0,1,1.79-7.68h0a5.62,5.62,0,0,1,7.77,1.75Z"/><path class="cls-15" d="M126.17,82.6,128.45,77l-18.16-8a4.21,4.21,0,0,0-6.05,2.59h0A4.22,4.22,0,0,0,107,76.69Z"/><path class="cls-15" d="M71.24,61.49l-11.53,2a4.39,4.39,0,0,1-5-3.57h0a4.16,4.16,0,0,1,3.45-5l11.6-2.44Z"/><polygon class="cls-20" points="65.78 52.22 76.63 49.7 78.01 61.4 68.1 62.62 65.78 52.22"/><path class="cls-20" d="M89.72,48.63,97,50.17a2.45,2.45,0,0,1,1.94,2.44l1,36.31s-12.82,5.51-25.6,0l.51-36.83A2.45,2.45,0,0,1,77,49.63l6.33-.72Z"/><line class="cls-7" x1="98.7" y1="65.67" x2="98.74" y2="57.08"/><line class="cls-7" x1="74.89" y1="61.79" x2="74.77" y2="57.36"/><polygon class="cls-15" points="90.05 48.46 86.45 54.71 83.07 48.53 90.05 48.46"/><polygon class="cls-12" points="90.14 48.05 92.29 49.17 89.83 54.04 87.75 52.45 90.14 48.05"/><polygon class="cls-12" points="82.96 48.01 80.53 49.14 83.06 54 85.17 52.37 82.96 48.01"/><polygon class="cls-12" points="40.31 170.92 46.66 170.21 46.06 158.96 39.64 158.35 40.31 170.92"/><path d="M47,168.42l-8,0a6.77,6.77,0,0,1-4.51,2.4c-3,.31-5.37,1.87-5.6,4H48.25A33.46,33.46,0,0,0,47,168.42Z"/><rect class="cls-12" x="28.89" y="174.75" width="19.36" height="1.33" transform="translate(77.13 350.84) rotate(180)"/><path class="cls-21" d="M36.75,170a3.47,3.47,0,0,1,1.75.88"/><path class="cls-21" d="M35.57,170.6a2.55,2.55,0,0,1,1.72.89"/><polygon class="cls-12" points="65.18 170.92 58.83 170.21 57.53 158.96 63.95 158.35 65.18 170.92"/><path d="M58.49,168.42l8,0a6.77,6.77,0,0,0,4.51,2.4c3,.31,5.37,1.87,5.6,4H57.24A32.49,32.49,0,0,1,58.49,168.42Z"/><rect class="cls-12" x="57.24" y="174.75" width="19.36" height="1.33"/><path class="cls-21" d="M68.73,170a3.51,3.51,0,0,0-1.75.88"/><path class="cls-21" d="M69.92,170.6a2.55,2.55,0,0,0-1.72.89"/><path class="cls-22" d="M35.9,87.19s-2.4,6.65-1.77,19.35L38,163.64h9.22V105.2l9.48,58.44h9.4L59.42,89.19h-6Z"/><line class="cls-7" x1="47.31" y1="105.52" x2="42.07" y2="104.6"/><path d="M44.26,29.94s-4,.09-4.51,3.12c-.41,2.63,1.4,5.84,1.4,5.84l1-6.82Z"/><path d="M52.37,28.39S57.58,27,58,31.33c.33,3.47-2.45,8.29-2.45,8.29l-.28-7.31Z"/><path d="M53.29,31.69s3.26-3.48-.24-5.79c-2.85-1.88-4.68-.26-8.2-.89-4-.7-5.89,2.08-5.77,4.23C39.31,33.27,46,35,46,35Z"/><path class="cls-9" d="M41.74,38.79a1.56,1.56,0,0,0-2.2.19c-1.42,1.78,1.06,5,3.21,3.35Z"/><path class="cls-23" d="M40.45,40a1.74,1.74,0,0,1,1.48,1.28"/><path class="cls-9" d="M55.3,38.79a1.57,1.57,0,0,1,2.21.19c1.41,1.78-1.06,5-3.21,3.35Z"/><path class="cls-23" d="M56.59,40a1.7,1.7,0,0,0-1.48,1.28"/><circle cx="48.52" cy="35.18" r="8.32" transform="translate(2.69 73.79) rotate(-76.06)"/><polygon class="cls-9" points="46.09 46.33 45.48 54 51.82 54 50.92 46.24 46.09 46.33"/><path d="M46,46.9l5.25,2.39-.35-3Z"/><path class="cls-9" d="M41.73,34.82s-.54,12.62,6.59,12.62c7.53,0,7.23-12.62,7.23-12.62s0-5.52-7-5.52C42.22,29.3,41.73,34.82,41.73,34.82Z"/><path class="cls-4" d="M51.57,34.88s-1.53-.3-1.6.52c0,0,0,.56,1.3.79s2.28.28,2.43-.23S52.29,34.94,51.57,34.88Z"/><path class="cls-4" d="M44.55,35s-1.56.06-1.44.88c0,0,.1.56,1.45.46s2.32-.25,2.32-.85S45.26,34.85,44.55,35Z"/><path class="cls-4" d="M46.13,38.62a.6.6,0,1,1-1.2,0,.6.6,0,1,1,1.2,0Z"/><path class="cls-4" d="M52,38.62a.61.61,0,1,1-.61-.6A.6.6,0,0,1,52,38.62Z"/><polyline class="cls-23" points="47.94 39.88 47.94 41.16 48.63 41.16"/><path class="cls-12" d="M46.13,42.44l4.5,0S48.65,45.66,46.13,42.44Z"/><path d="M42.06,33.41s.69-2.83,5.69-3c3-.1,6.71,1.73,7.45-.54l-2.64-3.42L42.1,28Z"/><path d="M54.37,28.89s-2.26,3,1.55,6.07C55.92,35,56.82,31.26,54.37,28.89Z"/><path class="cls-9" d="M65.52,100.33S63.88,102,65.1,105l-.55,3a1,1,0,0,0,.64,1.09h0a1,1,0,0,0,1.21-.58l.64-1.75.12.64a4.56,4.56,0,0,1-.43,3L65.37,113a.94.94,0,0,0,0,.93h0a.92.92,0,0,0,1.52,0l2.21-3.18a5.23,5.23,0,0,0,.77-4.24l-1.33-7.16Z"/><path class="cls-9" d="M65.52,100.33,59.84,72c-.35-1.81,1.58-4.11,3.4-4.43h0a3.31,3.31,0,0,1,3.89,3.25l1.46,28.6Z"/><path class="cls-24" d="M62.07,56.2s7.42,2.91,7.42,19l-12.33.48Z"/><polygon class="cls-9" points="23.38 72.06 39.09 64.59 31.1 59.84 23.95 64.27 23.38 72.06"/><path class="cls-9" d="M18.18,46.46l-3.31.16,3.24,22.2A3.82,3.82,0,0,0,23,72.19h0a3.82,3.82,0,0,0,2.57-4.61Z"/><path class="cls-9" d="M18.18,46.46l.74-2.08a7.41,7.41,0,0,0,.37-3.4L19,39a.78.78,0,0,0-1-.65h0a1,1,0,0,0-.7.87l-.2,2.15-3.49-7.69a.6.6,0,0,0-.87-.28l-.21.12a.6.6,0,0,0-.26.72l1.93,4.62-3-5a.61.61,0,0,0-.88-.23l-.15.1a.61.61,0,0,0-.2.78L13,39.76,9.86,36a.61.61,0,0,0-.95,0L8.86,36a.6.6,0,0,0,0,.71L11.63,41l-2-2.39a.6.6,0,0,0-1,.15h0a.59.59,0,0,0,.05.59l6.61,9.38Z"/><path class="cls-25" d="M17.13,41.33a4,4,0,0,0-1.41,3.07"/><path class="cls-24" d="M34.58,56.2c-3.34,1.81-9.47,7.28-9.47,7.28l4.75,10.85,11.2-4.67Z"/><path class="cls-24" d="M57.53,54.18l4.54,2L59.89,93a90.1,90.1,0,0,1-25.67-.66l.36-36.15,4.86-2Z"/><line class="cls-7" x1="60.9" y1="75.69" x2="61.54" y2="64.99"/><line class="cls-7" x1="34.42" y1="72.43" x2="34.5" y2="63.59"/><path class="cls-9" d="M48.7,50.35l8.83,3.83s-8.88,7.2-18.09,0Z"/><path class="cls-15" d="M36.93,55.19s-1.24.52-.49,2.44h0a2.3,2.3,0,0,1-1.08,2.87l-2.17,1.11A2.27,2.27,0,0,1,30,60.41a3.35,3.35,0,0,1-.11-2.59C30.82,56,35.33,54.17,36.93,55.19Z"/><polygon class="cls-12" points="164.15 167.75 157.28 167.75 145.91 173.57 165.46 173.35 164.15 167.75"/><path class="cls-4" d="M160.66,174.7a1.19,1.19,0,0,1,1.19,1.16l3.68,0-.07-2.47-19.55.22L146,176l13.5-.16h0A1.18,1.18,0,0,1,160.66,174.7Z"/><path class="cls-17" d="M152.53,169.89a1.82,1.82,0,0,1,1.9.93"/><path class="cls-17" d="M154.43,168.94a1.81,1.81,0,0,1,1.9.92"/><rect class="cls-26" x="157.15" y="158.46" width="7.01" height="9.29"/><polygon class="cls-12" points="172.69 167.75 179.57 167.75 190.94 173.57 171.39 173.35 172.69 167.75"/><path class="cls-4" d="M176.18,174.7a1.18,1.18,0,0,0-1.18,1.16l-3.68,0,.07-2.47,19.55.22-.07,2.47-13.5-.16h0A1.18,1.18,0,0,0,176.18,174.7Z"/><path class="cls-17" d="M184.32,169.89a1.82,1.82,0,0,0-1.9.93"/><path class="cls-17" d="M182.42,168.94a1.82,1.82,0,0,0-1.91.92"/><rect class="cls-26" x="172.69" y="158.46" width="7.01" height="9.29" transform="translate(352.39 326.2) rotate(180)"/><polygon class="cls-24" points="180.31 89.39 180.57 160.32 171.7 160.32 168.61 90.22 180.31 89.39"/><path class="cls-27" d="M171.76,159.86l9.06-.1a.57.57,0,0,1,.67.57v3.75a.58.58,0,0,1-.4.55h-9.65a.57.57,0,0,1-.38-.55v-3.67A.56.56,0,0,1,171.76,159.86Z"/><line class="cls-28" x1="171.76" y1="159.86" x2="180.58" y2="159.76"/><polygon class="cls-24" points="156.38 89.39 155.72 160.32 164.98 160.32 168.08 90.22 156.38 89.39"/><path class="cls-27" d="M164.76,159.9l-9.12-.1a.71.71,0,0,0-.84.7V164a.72.72,0,0,0,.51.69h9.83a.7.7,0,0,0,.49-.68V160.6A.71.71,0,0,0,164.76,159.9Z"/><line class="cls-28" x1="155.67" y1="159.86" x2="164.88" y2="159.76"/><rect class="cls-24" x="161.11" y="89.39" width="16.84" height="12.51"/><line class="cls-28" x1="171.46" y1="101.9" x2="163.98" y2="101.9"/><path class="cls-26" d="M185.41,96.92a4.13,4.13,0,0,0-.29,4.44l-.46,2.9a.92.92,0,0,0,.64,1h0a.91.91,0,0,0,1.13-.58L187,103l.13.6a4.38,4.38,0,0,1-.35,2.83l-1.23,2.5a.84.84,0,0,0,.07.88h0a.86.86,0,0,0,1.43,0l2-3.07a4.93,4.93,0,0,0,.64-4L188.3,96Z"/><path class="cls-26" d="M185.41,96.92l-6-27.93c-.36-1.72,1.42-3.94,3.14-4.28h0a3.15,3.15,0,0,1,3.76,3l2,28.25Z"/><path class="cls-22" d="M181.55,55.44s7,2.77,7,18l-11.69.45Z"/><polygon class="cls-26" points="143.05 75.53 159.75 63.4 152.17 58.9 139.09 69.09 143.05 75.53"/><path class="cls-22" d="M155.47,55.44A102.42,102.42,0,0,0,146.1,62L151,72.65l10.62-4.44Z"/><path class="cls-26" d="M123.81,60.52,121,65.93l17.32,9.66a4.2,4.2,0,0,0,6.26-2h0a4.2,4.2,0,0,0-2.26-5.35Z"/><path class="cls-22" d="M174.52,52.32l7,3.12-.62,38.91a77.24,77.24,0,0,1-24.94,0l-.52-38.91,7.46-3.12Z"/><line class="cls-7" x1="181.25" y1="73.76" x2="181.27" y2="63.94"/><line class="cls-7" x1="155.72" y1="70.67" x2="155.72" y2="63.51"/><path class="cls-26" d="M168.87,50l5.65,2.29s-4.24,3.12-11.59,0Z"/><path class="cls-29" d="M164.38,28.32s-4-.63-4.39,3.14a11.57,11.57,0,0,0,1.26,5.93l1.05-6.94Z"/><path class="cls-29" d="M173,27.55s4.07.13,4.51,3.88c.31,2.65-1.4,5.84-1.4,5.84l-1-6.82Z"/><path class="cls-26" d="M161.86,37.16a1.57,1.57,0,0,0-2.2.19c-1.41,1.78,1.06,5,3.21,3.35Z"/><path class="cls-23" d="M160.58,38.36a1.75,1.75,0,0,1,1.48,1.28"/><path class="cls-26" d="M175.43,37.16a1.57,1.57,0,0,1,2.2.19c1.42,1.78-1.06,5-3.21,3.35Z"/><path class="cls-23" d="M176.72,38.36a1.7,1.7,0,0,0-1.48,1.28"/><circle class="cls-29" cx="168.64" cy="33.55" r="8.32" transform="matrix(0.2, -0.98, 0.98, 0.2, 102.35, 192.2)"/><polygon class="cls-26" points="166.22 44.7 165.6 52.37 171.94 52.37 171.05 44.61 166.22 44.7"/><path d="M166.15,45.27c.21.11,5.25,2.4,5.25,2.4l-.35-3.06Z"/><path class="cls-26" d="M161.85,33.2s-.79,12.61,6.6,12.61c7.86,0,7.22-12.61,7.22-12.61s0-5.52-7-5.52C162.35,27.68,161.85,33.2,161.85,33.2Z"/><path class="cls-4" d="M166.25,37a.6.6,0,1,1-.6-.61A.6.6,0,0,1,166.25,37Z"/><path class="cls-4" d="M172.16,37a.6.6,0,1,1-.6-.61A.6.6,0,0,1,172.16,37Z"/><polyline class="cls-23" points="168.31 38.64 168.31 39.53 169.01 39.53"/><path class="cls-23" d="M166.92,40.69s.82.93,2.93.33"/><path class="cls-29" d="M163.45,34.59l3.32-.3a.46.46,0,0,0,.21-.84,2.86,2.86,0,0,0-1.94-.37,3.81,3.81,0,0,0-1.91.68A.46.46,0,0,0,163.45,34.59Z"/><path class="cls-29" d="M173.18,34.59l-3.32-.3a.46.46,0,0,1-.21-.84,2.85,2.85,0,0,1,1.94-.37,3.73,3.73,0,0,1,1.9.68A.46.46,0,0,1,173.18,34.59Z"/><path class="cls-30" d="M164.73,34.57l3.12,4.23s-.94,1.8-2.44,1.6l-3.15-4.13S163.11,34.45,164.73,34.57Z"/><path class="cls-30" d="M171.91,34.57,175,38.8s-.94,1.8-2.44,1.6l-3.15-4.13S170.29,34.45,171.91,34.57Z"/><path class="cls-31" d="M168.1,37.51a3.06,3.06,0,1,1-3-3A3,3,0,0,1,168.1,37.51Z"/><path class="cls-31" d="M175.29,37.51a3.06,3.06,0,1,1-3-3A3,3,0,0,1,175.29,37.51Z"/><path class="cls-31" d="M168.1,37.51a1.19,1.19,0,0,1,1.08,0"/><path class="cls-29" d="M174.5,27.26s-2.27,3,1.54,6.07C176,33.33,176.94,29.63,174.5,27.26Z"/><path class="cls-29" d="M163.17,27.26s2.27,3-1.55,6.07C161.62,33.33,160.73,29.63,163.17,27.26Z"/><path class="cls-29" d="M161.51,28.35s-.33-3.72,4.13-3.72,8.12,1.21,9.37-1.36c0,0,4.47,5.89-3.21,7.41C165.16,32,161.75,30.6,161.51,28.35Z"/><path class="cls-32" d="M139.37,47c.7-2.24.57-4.35-1.41-5.8a4.36,4.36,0,0,1-1.77-3l-8.44,7.52L119.12,38a5.32,5.32,0,0,1-2,3.17c-2,1.41-1.68,3.56-1,5.8s-1.21,2.49-1.71,5.19a7,7,0,0,1,5.29,2.49c1.14,1.39,4.43,2.07,8,1.85,3.59.22,6.88-.46,8-1.85a7,7,0,0,1,5.3-2.49C140.58,49.44,138.67,49.2,139.37,47Z"/><path class="cls-33" d="M121.18,42.63a1.48,1.48,0,0,0-2.09.18c-1.34,1.69,1,4.76,3,3.18Z"/><path class="cls-10" d="M120,43.77s.67-.21,1.4,1.21"/><path class="cls-33" d="M134.13,42.63a1.48,1.48,0,0,1,2.09.18c1.34,1.69-1,4.76-3.05,3.18Z"/><path class="cls-10" d="M135.35,43.77s-.68-.21-1.41,1.21"/><ellipse class="cls-32" cx="127.7" cy="39.43" rx="7.73" ry="7.53"/><polygon class="cls-33" points="125.7 49.46 125.18 57.44 130.34 57.44 129.59 49.38 125.7 49.46"/><path d="M125.65,50c.17.1,4.28,3.12,4.28,3.12l-.35-3.74Z"/><path class="cls-33" d="M121.17,38.87s-.82,11.63,6.26,11.63c7.65,0,6.85-11.63,6.85-11.63s0-5.24-6.62-5.24C121.64,33.63,121.17,38.87,121.17,38.87Z"/><path d="M125.37,42.94a.56.56,0,1,1-.56-.56A.56.56,0,0,1,125.37,42.94Z"/><path d="M131,42.94a.56.56,0,1,1-.56-.56A.56.56,0,0,1,131,42.94Z"/><path class="cls-12" d="M125.6,46.35h3.53s-.24.89-1.75.89S125.6,46.35,125.6,46.35Z"/><polyline class="cls-10" points="127.06 44.34 127.06 45.25 127.72 45.26"/><path class="cls-32" d="M130.35,39.41s-1.44-.28-1.5.5c0,0,0,.52,1.21.73s2.14.27,2.28-.21S131,39.48,130.35,39.41Z"/><path class="cls-32" d="M123.86,39.51s-1.4.08-1.3.84c0,0,.08.52,1.3.42S126,40.51,126,40,124.51,39.41,123.86,39.51Z"/><path class="cls-32" d="M119.25,40s11.3-1.76,11.53-6.62c0,0-2.46-4.2-8-1.52C118,34.16,119.25,40,119.25,40Z"/><path class="cls-32" d="M129,33.36s.55,3.61,5.84,7.46c0,0,3.17-3.79.52-6.68S129,33.36,129,33.36Z"/><path class="cls-33" d="M110.3,77.22l4.59-17a3,3,0,0,1,3.71-2.32h0c1.59.4,3.57,2,3.21,3.61L116,79.38Z"/><path class="cls-33" d="M99.64,79.38l-.11-4.21,12,.74c2.17,0,5,1.57,4.46,3.67h0c-.43,1.75-2.84,2.73-4.61,2.38Z"/><path class="cls-33" d="M142.4,83.94a3.15,3.15,0,0,0,1.9-3.25l-2.31-20a3,3,0,0,0-3.34-2.82h0a3,3,0,0,0-2.7,3.27l2.9,20.26c.22,2.09,1.61,3.37,3.55,2.57Z"/><path class="cls-33" d="M145,103.32l2.61-.33-3.09-21.78c-.3-2.22-2.23-4.91-4.32-4.12h0c-1.74.66-1.58,2.92-1.24,4.75C140,87.56,145,103.32,145,103.32Z"/><path class="cls-33" d="M144.83,102.68a3.87,3.87,0,0,0,1.76,3.79l.94,2.59a.86.86,0,0,0,1,.55h0a.87.87,0,0,0,.67-1l-.29-1.63.38.43a4.09,4.09,0,0,1,1,2.49l.12,2.61a.81.81,0,0,0,.46.69h0a.82.82,0,0,0,1.17-.66l.28-3.44a4.69,4.69,0,0,0-1.3-3.61l-4.61-4.91Z"/><polygon class="cls-33" points="127.58 55.19 116.95 57.99 121.13 81.27 134.96 81.27 138.72 57.84 127.58 55.19"/><polygon class="cls-12" points="121.13 81.27 117.64 67.72 122.85 62.86 127.84 66.01 133.01 62.86 138.29 67.61 134.96 81.27 121.13 81.27"/><line class="cls-7" x1="122.85" y1="62.86" x2="122.85" y2="56.52"/><line class="cls-7" x1="132.94" y1="62.86" x2="132.94" y2="56.52"/><polygon class="cls-33" points="119.01 171.08 124.34 170.4 126.12 128.98 117.64 130.32 119.01 171.08"/><path d="M124.67,168.68l-7.69-.05a6.47,6.47,0,0,1-4.33,2.31c-2.85.3-5.16,1.8-5.38,3.82h18.59A31.21,31.21,0,0,0,124.67,168.68Z"/><g class="cls-34"><path class="cls-12" d="M108.76,170.62s4.23,0,4.61,5.21h-7.21S106.46,171,108.76,170.62Z"/></g><rect class="cls-12" x="107.27" y="174.76" width="18.6" height="1.28" transform="translate(233.13 350.8) rotate(180)"/><path class="cls-35" d="M114.83,170.2a3.36,3.36,0,0,1,1.68.84"/><path class="cls-35" d="M116,169.57a3.36,3.36,0,0,1,1.68.84"/><path class="cls-35" d="M113.69,170.77a2.47,2.47,0,0,1,1.65.85"/><polygon class="cls-33" points="135.86 171.08 130.53 170.4 128.75 128.98 137.24 130.32 135.86 171.08"/><path d="M130.21,168.68l7.68-.05a6.51,6.51,0,0,0,4.33,2.31c2.85.3,5.16,1.8,5.38,3.82H129A31.82,31.82,0,0,1,130.21,168.68Z"/><g class="cls-36"><path class="cls-12" d="M146.11,170.62s-4.22,0-4.61,5.21h7.21S148.41,171,146.11,170.62Z"/></g><rect class="cls-12" x="129.01" y="174.76" width="18.6" height="1.28"/><path class="cls-35" d="M140.05,170.2a3.32,3.32,0,0,0-1.68.84"/><path class="cls-35" d="M138.86,169.57a3.32,3.32,0,0,0-1.68.84"/><path class="cls-35" d="M141.19,170.77a2.49,2.49,0,0,0-1.66.85"/><path class="cls-13" d="M121.13,81.27s-9.41,15.11-9.41,65.43h31.47S146.24,109,135,81.27Z"/></g><path class="cls-37" d="M27.66,33.27C14.05,46.34,7.81,63.45,9.1,80.05c1.83,23.74,19,46.55,45.07,60.06,35.27,18.25,80.58,18.36,114.6-.85,31.79-18,50.51-47.82,52.8-77.29.57-7.29.1-14.82-3.84-21.5-9.55-16.22-34.26-15-54.24-13.24-16.62,1.48-21.42-4.92-35.17-10.25a104.39,104.39,0,0,0-39.54-6.85c-21.53.47-42.67,7.73-57.19,19.65C30.22,30.91,28.9,32.08,27.66,33.27Z"/></g></svg>