<svg xmlns="http://www.w3.org/2000/svg" xmlns:xlink="http://www.w3.org/1999/xlink" viewBox="0 0 497.25 310.69"><defs><style>.cls-1,.cls-5{fill:none;}.cls-2{isolation:isolate;}.cls-3{clip-path:url(#clip-path);}.cls-4{mix-blend-mode:multiply;opacity:0.31;}.cls-5{stroke:#00953b;stroke-miterlimit:10;stroke-width:2.39px;}.cls-6{fill:#00953b;}</style><clipPath id="clip-path"><rect class="cls-1" x="-141.2" y="-824.58" width="1347.46" height="660.34"/></clipPath></defs><g class="cls-2"><g id="Capa_1" data-name="Capa 1"><rect class="cls-5" x="1.19" y="1.19" width="494.86" height="286.14" rx="9.3"/><path class="cls-6" d="M493.62,298.23h-87c-.73,0-1.33-.88-1.33-2s.6-2,1.33-2h87c.73,0,1.32.88,1.32,2S494.35,298.23,493.62,298.23Z"/><path class="cls-6" d="M415,307.32H384c-.74,0-1.33-.88-1.33-2s.59-2,1.33-2h31c.73,0,1.33.88,1.33,2S415.69,307.32,415,307.32Z"/><path class="cls-6" d="M391.68,296.89H384c-.74,0-1.33-.89-1.33-2s.59-2,1.33-2h7.68c.73,0,1.33.89,1.33,2S392.41,296.89,391.68,296.89Z"/><path class="cls-6" d="M373.6,310.69h-4.29c-.74,0-1.33-.88-1.33-2s.59-2,1.33-2h4.29c.73,0,1.33.89,1.33,2S374.33,310.69,373.6,310.69Z"/></g></g></svg>