<svg xmlns="http://www.w3.org/2000/svg" xmlns:xlink="http://www.w3.org/1999/xlink" viewBox="0 0 234.82 438.27"><defs><style>.cls-1,.cls-29,.cls-30,.cls-36,.cls-37,.cls-40,.cls-42{fill:none;}.cls-2{isolation:isolate;}.cls-3{clip-path:url(#clip-path);}.cls-23,.cls-4{mix-blend-mode:multiply;}.cls-4{opacity:0.31;}.cls-5{clip-path:url(#clip-path-2);}.cls-6{mix-blend-mode:overlay;opacity:0.5;}.cls-7{clip-path:url(#clip-path-3);}.cls-8{opacity:0.75;}.cls-9{fill:#70655f;}.cls-10{opacity:0.92;}.cls-11{clip-path:url(#clip-path-5);}.cls-12{opacity:0.94;}.cls-13{clip-path:url(#clip-path-6);}.cls-14{opacity:0.79;}.cls-15{clip-path:url(#clip-path-7);}.cls-16{fill:#42311c;}.cls-17{clip-path:url(#clip-path-8);}.cls-18{mix-blend-mode:color-dodge;}.cls-19{clip-path:url(#clip-path-9);}.cls-20{clip-path:url(#clip-path-10);}.cls-21{fill:url(#Degradado_sin_nombre_1014);}.cls-22{clip-path:url(#clip-path-11);}.cls-24{clip-path:url(#clip-path-12);}.cls-25{clip-path:url(#clip-path-13);}.cls-26{fill:url(#Degradado_sin_nombre_1016);}.cls-27{fill:#198680;}.cls-28{fill:#74b9a1;}.cls-29,.cls-30,.cls-32{stroke:#fff;}.cls-29,.cls-30,.cls-32,.cls-36,.cls-37,.cls-40,.cls-42,.cls-45{stroke-miterlimit:10;}.cls-29{stroke-width:0.78px;}.cls-30{stroke-linecap:round;stroke-width:0.54px;}.cls-31{fill:#777f7f;}.cls-32,.cls-35{fill:#fff;}.cls-32{stroke-width:0.68px;}.cls-33{fill:#00953b;}.cls-34{fill:#f98d2b;}.cls-36,.cls-45{stroke:#5ec3e7;}.cls-36,.cls-37,.cls-40,.cls-42{stroke-width:3px;}.cls-37{stroke:#fccc69;}.cls-38{fill:#fccc69;}.cls-39{fill:#a5bb6d;}.cls-40{stroke:#777f7f;}.cls-41{fill:#93d500;}.cls-42{stroke:#03847a;}.cls-43{fill:#03847a;}.cls-44{fill:#03635a;}.cls-45{fill:#5ec3e7;stroke-width:0.25px;}</style><clipPath id="clip-path"><rect class="cls-1" x="26.74" y="-757.14" width="1347.46" height="660.34"/></clipPath><clipPath id="clip-path-2"><path class="cls-1" d="M54.26-158.09c-8.94,8.14-20.53,23.66-27.13,29.75l-.39.36V-96.8h5.64a149.23,149.23,0,0,1,11.93-12.68c6.67-6,23.21-16.09,32.15-24.23,20.53-18.69,26.11-33.75,20-40.49a10.06,10.06,0,0,0-7.76-3c-8,0-19.94,5.95-34.42,19.13"/></clipPath><clipPath id="clip-path-3"><rect class="cls-1" x="-94.87" y="-293.6" width="344.03" height="323.77"/></clipPath><clipPath id="clip-path-5"><rect class="cls-1" x="-85.97" y="-285.17" width="324.73" height="306.99"/></clipPath><clipPath id="clip-path-6"><rect class="cls-1" x="-76.94" y="-276.76" width="307.67" height="290.18"/></clipPath><clipPath id="clip-path-7"><rect class="cls-1" x="-68.13" y="-268.35" width="289.79" height="273.34"/></clipPath><clipPath id="clip-path-8"><rect class="cls-1" x="26.74" y="-381.02" width="265.36" height="284.21"/></clipPath><clipPath id="clip-path-9"><rect class="cls-1" x="-61.96" y="-111.79" width="88.8" height="81.08"/></clipPath><clipPath id="clip-path-10"><path class="cls-1" d="M-60.26-33c-6.7-7.52,7-30.71,30.57-51.78S18.4-117,25.13-109.41,18.19-78.75-5.4-57.66-53.52-25.58-60.26-33"/></clipPath><radialGradient id="Degradado_sin_nombre_1014" cx="32.16" cy="-3305.31" r="1" gradientTransform="matrix(-57.26, 0, 0, -18.23, 1826.28, -60312.88)" gradientUnits="userSpaceOnUse"><stop offset="0" stop-color="#524b44"/><stop offset="0.01" stop-color="#514a43"/><stop offset="0.45" stop-color="#25221f"/><stop offset="0.79" stop-color="#0a0908"/><stop offset="0.99"/><stop offset="1"/></radialGradient><clipPath id="clip-path-11"><rect class="cls-1" x="-63.47" y="-46.39" width="10.37" height="26.15" transform="matrix(0.74, -0.67, 0.67, 0.74, 7.24, -47.92)"/></clipPath><clipPath id="clip-path-12"><rect class="cls-1" x="-138.97" y="-112.21" width="170.72" height="162.69"/></clipPath><clipPath id="clip-path-13"><path class="cls-1" d="M-43.88-20.63C-90.71,23.93-133,55.48-138.41,49.83s28.23-46.36,75.06-90.92,89.16-76.12,94.54-70.46S3-65.19-43.88-20.63"/></clipPath><radialGradient id="Degradado_sin_nombre_1016" cx="156.18" cy="-3160.26" r="1" gradientTransform="matrix(0, 14.12, -117.05, 0.02, -369951.79, -2185.14)" gradientUnits="userSpaceOnUse"><stop offset="0" stop-color="#6a613f"/><stop offset="0.22" stop-color="#99937b"/><stop offset="0.45" stop-color="#c4c1b4"/><stop offset="0.65" stop-color="#e4e3dd"/><stop offset="0.81" stop-color="#f8f7f6"/><stop offset="0.9" stop-color="#fff"/><stop offset="1" stop-color="#fff"/></radialGradient></defs><g class="cls-2"><g id="Capa_1" data-name="Capa 1"><g class="cls-5"><g class="cls-6"><g class="cls-7"><g class="cls-8"><g class="cls-7"><path class="cls-9" d="M243.27-288.71a15.9,15.9,0,0,1,4.35,6.94l0,0c2.62,9.29,1.8,17.63-2.33,24.11-2.65,4.19-5.28,8.74-8,13.86-.95,1.77-1.73,3.28-2.35,4.7l-.08.14c-2.29,3.87-2.88,8.47-3.56,13.36-1.06,7.79-2.13,15.83-10.39,20.67-6.59,4.17-12.24,9.35-18.26,16.67-1.33,1.6-2.54,3.13-3.65,4.65A110.44,110.44,0,0,1,183.89-161c-1.35,1.63-2.84,3.33-4.45,5.17l-.08.08-.06,0c-13.62,12-25.49,26.41-34.34,37.69l-.05,0c-.89,1-1.79,2-2.71,2.94-1.53,1.63-3,3.09-4.38,4.56l0,0-.05,0c-4.36,3.94-9.11,7.78-13.66,11.45-11.49,9.27-23.36,18.84-31,31.52l-.09.13c-1.22,1.57-2.55,3.11-3.89,4.63q-1.68,1.81-3.47,3.57l0,.06,0,0c-8,6.61-11.14,15.65-13.74,24.36-.38,1.26-.76,2.56-1.11,3.85l-.62,2C68.75-26.21,68-22.73,67.2-19,65.3-10.27,63.16-.32,51.76-1c-4.6-.14-8.51-2.36-12.67-4.71A62.53,62.53,0,0,0,32.63-9l-.17-.05a37.48,37.48,0,0,0-5.37-2.42c-3.76-1.31-6.93-1.15-10,.48l-1.28.84L13-8.28c-51.38,34-88.71,46.19-102.36,33.62-6.78-6.22-7.25-17.67-1.38-34C-85.35-23.78-74.37-43.08-59-64.52l.83-1.18c.5-.69,1-1.4,1.54-2.13a19,19,0,0,0,2.17-4,33.8,33.8,0,0,0,1.38-4.37l0-.1c1.26-3.89-1.38-6.65-4.45-9.84-.81-.85-1.61-1.71-2.36-2.6a11.42,11.42,0,0,1-2.7-4.92l0-.26,0-.22c1.21-9.19,9.42-12.63,17.36-16,4.53-1.9,8.81-3.7,11.77-6.48l.11-.1.16-.09c1.89-1.11,3.59-2.16,5.17-3.21,7.71-5.12,13-10.44,16.64-16.79l.1-.16c1.36-1.76,2.59-3.32,3.81-4.7A56,56,0,0,1-3.29-146l.09-.07a38.4,38.4,0,0,1,5-3.39c7-4.1,13.33-9.11,19.5-14,4-3.17,8.14-6.42,12.37-9.36,1.8-1.5,3.51-2.87,4.79-3.89a73.85,73.85,0,0,1,7.5-5.42c1.68-1.1,3.41-2.25,5-3.46,1.42-1,2.8-2,4.21-3C60.42-193,65.77-197.27,71-201.47c9.88-8,20.08-16.22,29.7-24.67l.09-.06c1.33-1,2.66-2.06,3.95-3.06l4-3,.22-.15c2-1,4-2.12,6-3.29l.06,0c17.81-9.16,31.3-20.53,40.09-33.75,1.49-2.13,2.69-3.86,3.76-5.52l.17-.27.25-.15a26.77,26.77,0,0,1,6-2.86,52.45,52.45,0,0,1,5.92-2.59l.11,0a41.75,41.75,0,0,1,10.33-1.23c4.76-.14,9.29-.3,13.39-3l.23-.1c2.47-1,4.9-2,7.17-2.82,19.8-7.2,33.55-7.45,40.91-.7m1.24,7.59a12.75,12.75,0,0,0-3.47-5.49c-6.19-5.69-19.07-5.21-37.3,1.45-2.2.8-4.53,1.71-6.89,2.69-4.84,3.09-9.95,3.23-14.91,3.39a39.45,39.45,0,0,0-9.5,1.1,50.52,50.52,0,0,0-5.61,2.45l-.21.09a23.89,23.89,0,0,0-5.14,2.42c-1,1.62-2.24,3.31-3.64,5.31-9.05,13.61-22.91,25.3-41.13,34.69-2,1.13-4,2.22-5.93,3.25-1.28,1-2.57,1.94-3.87,2.94s-2.62,2-3.9,3c-9.69,8.5-19.9,16.73-29.79,24.73-5.22,4.19-10.58,8.54-15.83,12.86l-.06,0c-1.4,1-2.86,2.09-4.23,3.06-1.67,1.23-3.43,2.39-5.14,3.51a68.59,68.59,0,0,0-7.24,5.24h0c-1.28,1-3,2.39-4.81,3.94l-.12.08c-4.17,2.88-8.31,6.13-12.32,9.31-6.23,4.88-12.65,10-19.8,14.14a40,40,0,0,0-4.55,3.1,56.12,56.12,0,0,0-4,4.19c-1.14,1.31-2.33,2.79-3.63,4.49-3.86,6.68-9.43,12.29-17.47,17.63-1.6,1.08-3.3,2.15-5.19,3.25-3.33,3.08-8,5-12.53,6.93-7.43,3.14-14.47,6.1-15.57,13.5a8.25,8.25,0,0,0,2,3.33,31.24,31.24,0,0,0,2.18,2.41c3.11,3.25,7,7.3,5.2,12.83a28.35,28.35,0,0,1-1.46,4.68A22.58,22.58,0,0,1-53.84-66q-.78,1.09-1.56,2.16l-.84,1.17c-30.93,43.17-42.51,75.31-31,86,5.93,5.44,18.1,5.22,35.24-.71S-13.17,5.09,10.91-10.8c1-.65,1.9-1.28,2.87-1.9l1.45-1A15.35,15.35,0,0,1,28-14.38a42.9,42.9,0,0,1,5.83,2.63,73.54,73.54,0,0,1,6.81,3.49C44.58-6,47.93-4.12,51.7-4,59.84-3.54,61.84-10,64-19.88c.78-3.63,1.6-7.39,3-10.31l.49-1.68c.36-1.28.75-2.57,1.12-3.84,2.69-9.09,6.06-18.56,14.58-25.65,1.14-1.12,2.24-2.28,3.3-3.43,1.31-1.44,2.55-2.93,3.7-4.4,7.89-13,20-22.78,31.58-32.16,4.55-3.68,9.25-7.47,13.56-11.36,1.41-1.42,2.82-2.9,4.34-4.49.87-.92,1.75-1.89,2.61-2.82,8.9-11.33,20.84-25.88,34.59-38,1.6-1.79,3-3.44,4.4-5A106.5,106.5,0,0,0,196-185.1l.13-.2c1.19-1.61,2.44-3.2,3.81-4.86,6.25-7.61,12.09-12.94,19-17.31,7.11-4.18,8.07-11.22,9.08-18.71.67-4.91,1.34-10,3.89-14.3.67-1.47,1.4-3,2.4-4.82,2.78-5.15,5.46-9.75,8.15-14,3.71-5.8,4.39-13.33,2-21.8"/></g></g><g class="cls-10"><g class="cls-11"><path class="cls-9" d="M234.82-280.29l.13.31c4.44,9.26,5,19,1.71,29.82-.56,1.84-1.23,3.75-2,5.69l-.08.14c-2.1,4-3.26,8.45-4.39,12.8-1.65,6.3-3.36,12.82-7.87,18.16A185.77,185.77,0,0,1,208-197.56c-2.22,2.3-4.53,4.65-6.74,7-1.48,1.58-2.74,3-3.94,4.44a141.88,141.88,0,0,1-11,17.05c-1.31,1.76-2.73,3.56-4.17,5.39-4.94,5.62-10.21,10.95-15.32,16.13-8.7,8.83-17.76,18-25,28.44l-.12.13c-1,1.06-2,2.21-3.37,3.59-1.52,1.58-2.89,2.95-4.12,4.17l0,.05h0c-4,3.49-8.14,6.89-12.16,10.18C111-92,99.64-82.75,91.23-71.13l-.07.1c-1.33,1.48-2.62,2.94-4,4.41-.91,1-1.81,2-2.76,3L81.63-60.7l0,0-.06,0C73.08-53.39,70.74-43.14,68.4-33.2l-.17.78c-.34,1.5-.69,3-1,4.42-.21.87-.36,1.73-.54,2.62C65.59-20,64.37-14,59.39-10.14,54-5.82,45.94-6.11,34.82-11c-1.43-.61-2.83-1.24-4.25-1.9a42.64,42.64,0,0,0-4-1.58c-4.41-1.42-7.79-1.27-11,.52l-4.09,2.62C-10.33,2.67-30.11,12.81-45.62,17.9c-16.77,5.49-28.58,5.21-35.1-.76C-96.84,2.25-72.13-39.23-56-62.63l1.07-1.54c.5-.75,1-1.51,1.57-2.27.3-.46.61-.91,1-1.39,1.07-1.51,1.76-2.51,1.48-3.5l-.07-.36.05-.32a16.58,16.58,0,0,0,.34-4.72,31.54,31.54,0,0,0-.64-4.91c-.77-1.27-1.61-2.74-2.38-4.2a33.88,33.88,0,0,1-2-4.46,11.45,11.45,0,0,1-.71-8.31c1.41-5.28,7.94-7.49,11.89-8.81,2.1-.88,4.12-1.8,6-2.71,14-6.72,23.82-14.42,30-23.52l.05-.07c1.19-1.55,2.35-3.09,3.53-4.58,1.31-1.7,2.52-3.16,3.63-4.51l.11-.09a53.08,53.08,0,0,1,4.71-4c1.75-1.38,3.51-2.81,5.3-4.24,8.42-6.75,17.1-13.72,26.72-19.3,1.52-1.19,3-2.35,4.38-3.45a37.38,37.38,0,0,1,7.1-5.43,46.3,46.3,0,0,0,5.42-3.9l.08-.07c1-.79,2.07-1.57,3.12-2.35s2-1.59,3-2.38c1.28-1,2.47-1.93,3.7-2.93l.09-.06a214.15,214.15,0,0,0,19.55-15.81,226.32,226.32,0,0,1,18.82-15.34c1.32-1.12,2.67-2.28,4-3.44l.71-.64c1.25-1,2.49-1.86,3.71-2.79s2.23-1.63,3.36-2.45l.14-.09c16-8.88,32.55-18.78,44.65-33.66l0,0c1.56-1.73,2.89-3.26,4.08-4.7l.12-.14.17-.12c1.58-1.06,3.13-2,4.69-2.91,1.72-1,3.34-1.82,5-2.58a40.43,40.43,0,0,1,22.57-3.67c1.88-.69,3.88-1.38,5.86-2,12.59-4.05,22.44-4.83,29.23-2.27a15.37,15.37,0,0,1,5.32,3.2Zm-3.25,34.52c.77-1.86,1.41-3.68,1.94-5.42,3-10,2.57-18.94-1.4-27.42a13.75,13.75,0,0,0-3.89-2.28c-6.05-2.26-15.11-1.48-27,2.36-2.06.66-4.16,1.39-6.14,2.11l-.39.14-.41-.08a37.39,37.39,0,0,0-21.16,3.42c-1.54.7-3.11,1.51-4.73,2.44-1.42.83-2.89,1.72-4.32,2.65-1.19,1.43-2.47,2.92-4,4.57C147.73-248,130.93-238,114.75-229l-3.27,2.38c-1.2.89-2.42,1.82-3.63,2.7l-.61.58c-1.37,1.18-2.74,2.39-4.09,3.52l-.12.08a222.16,222.16,0,0,0-18.61,15.19,221.7,221.7,0,0,1-19.76,16L61-185.65c-1,.8-2,1.58-3,2.38s-2.05,1.59-3.07,2.35a46.18,46.18,0,0,1-5.71,4.11,32.88,32.88,0,0,0-6.63,5.08l-.09.08-.09.06c-1.47,1.14-3,2.35-4.55,3.6l-.18.13c-9.44,5.43-18.11,12.38-26.43,19.06q-2.67,2.16-5.34,4.25c-1.5,1.17-3,2.46-4.45,3.82C.3-139.47-.84-138-2.1-136.41s-2.35,3-3.49,4.54c-6.55,9.52-16.74,17.52-31.19,24.48-1.93.93-4,1.87-6.13,2.79l-.14,0c-3.6,1.2-9,3-10.05,6.92a8.66,8.66,0,0,0,.5,6.34l.05.14A34.71,34.71,0,0,0-50.68-87c.79,1.49,1.66,3,2.45,4.28l.1.21.09.26a37.85,37.85,0,0,1,.76,5.61,21,21,0,0,1-.36,5.17c.39,2.18-.8,3.85-2,5.49a14,14,0,0,0-.88,1.29c-.57.8-1.1,1.57-1.64,2.34l-1,1.5C-79.41-22.89-88.88,5.49-78.5,15c11,10.18,44-.63,88-28.94l4.1-2.66.09-.07c5.29-3,10.39-1.85,13.74-.75a39,39,0,0,1,4.35,1.7c1.42.65,2.81,1.28,4.2,1.87C45.87-9.43,52.75-9,57.18-12.54c4.16-3.25,5.24-8.51,6.26-13.6.17-.91.34-1.82.54-2.68.39-1.5.71-3,1-4.42l.18-.83c2.31-9.84,4.88-21,14-28.83.9-.93,1.84-1.88,2.73-2.85s1.83-2,2.74-3c1.28-1.4,2.55-2.85,3.84-4.31,8.66-11.87,20.11-21.25,31.19-30.3,4-3.24,8.13-6.63,12.06-10.05,1.24-1.23,2.57-2.56,4.07-4.11,1.27-1.31,2.3-2.43,3.25-3.45,7.35-10.6,16.45-19.82,25.26-28.76,5.06-5.11,10.29-10.43,15.16-15.95,1.39-1.72,2.77-3.52,4.06-5.24a135.65,135.65,0,0,0,10.85-16.84l.19-.26c1.24-1.47,2.55-3,4.07-4.61,2.25-2.4,4.58-4.79,6.84-7.11a182.83,182.83,0,0,0,14.09-15.59c4.21-5,5.75-10.89,7.38-17.15,1.16-4.5,2.36-9.11,4.59-13.33"/></g></g><g class="cls-12"><g class="cls-13"><path class="cls-9" d="M226-272.12l.15.21a30.22,30.22,0,0,1,4,21.71A46.17,46.17,0,0,1,229-245c-.94,20.61-14,35.13-26.52,49.15-.92,1-1.86,2.07-2.78,3.1-1.54,1.74-2.78,3.16-3.91,4.47a127.15,127.15,0,0,1-16.06,23.62c-1.34,1.6-2.57,3-3.78,4.35l-.05.06,0,0c-14.68,13.53-26.6,25-36,39.32l-.12.17c-1.14,1.29-2.32,2.54-3.34,3.63-1.52,1.58-2.88,2.94-4.15,4.18l0,0h0c-4.11,3.62-8.37,7.13-12.47,10.51-10.57,8.73-20.53,17-29.1,27.19-1.41,1.63-2.73,3.19-4.06,4.73-1.79,2.07-3.68,4.22-5.61,6.3l-2.28,2.42-.67.7-.09.06c-7,5.59-9.66,13.21-12.54,21.27C64.21-36.56,63-33.23,61.58-30a46.36,46.36,0,0,1-2.53,4.82l-.06.1C53.59-17.5,47.3-13.54,40.27-13.35h-.09a12.24,12.24,0,0,1-6-2.15c-1.34-.61-2.65-1.24-3.82-1.78l-.72-.34c-5.16-2.06-9-2.43-12.51-1.24-1.2.69-2.38,1.43-3.56,2.16l-.46.28C-7.07-3.66-25.25,5.46-39.51,10-55,14.88-65.93,14.55-72,8.91c-10.66-9.83-3.92-34.4,19-69.23.6-.86,1.19-1.76,1.8-2.66l1.07-1.59a15.57,15.57,0,0,0,3.28-6.5,28.32,28.32,0,0,0,.6-3.63,13.86,13.86,0,0,0-.52-4.55,35.85,35.85,0,0,0-1.76-5l-.07-.18,0-.18c-.22-1.41-1.51-2.77-2.78-4.1-.27-.27-.54-.53-.77-.81a5.63,5.63,0,0,1-1.88-5.08c.49-3.91,4.82-7.53,7.73-8.81C-30.72-110-16-116.2-7.58-129.62l.07-.1c1.11-1.47,2.27-3,3.42-4.47s2.45-3,3.5-4.26c1.37-1.49,2.74-2.88,4.12-4.23,1.64-1.59,3.35-3.09,5-4.44l.09-.06c3.66-2.53,7.2-5.3,10.59-7.95C25-159.57,31-164.22,37.82-168.06c1.5-1.16,3-2.33,4.29-3.4,4.39-3.6,8.83-6.91,13.13-10.1l.29-.22c1.58-1.18,3-2.3,4.25-3.35l.15-.1a290.15,290.15,0,0,0,44.51-36.05l0,0v0c1.14-1,2.19-1.92,3.22-2.78l0,0c1.22-.93,2.45-1.84,3.66-2.71s2.31-1.65,3.48-2.48l.18-.12c1.85-.9,3.7-1.86,5.51-2.9a183.43,183.43,0,0,0,38.6-29.93c1.52-1.39,3-2.76,4.51-4.12l.19-.16c1.48-.92,3-1.79,4.45-2.53a44.46,44.46,0,0,1,20.46-5.46,54.2,54.2,0,0,1,6.64.53c2.08-.59,3.92-1.05,5.64-1.44,8-1.74,14.44-1.75,19.33,0a16.07,16.07,0,0,1,5.45,3.19ZM173.46-162.47c1.16-1.28,2.34-2.65,3.65-4.21a123.61,123.61,0,0,0,15.78-23.25l.08-.15.1-.12c1.18-1.37,2.47-2.83,4.07-4.63.92-1,1.84-2.08,2.77-3.12,12.87-14.35,25-27.89,25.85-47.61l0-.16.07-.16a45.91,45.91,0,0,0,1.19-5,27.27,27.27,0,0,0-3.51-19.44,11.89,11.89,0,0,0-4.06-2.31c-4.24-1.48-10.08-1.43-17.41.19-1.74.37-3.61.84-5.78,1.48l-.35.09-.38-.05a52.66,52.66,0,0,0-6.48-.57,41.36,41.36,0,0,0-18.92,5.07c-1.37.71-2.76,1.51-4.15,2.4-1.47,1.33-2.91,2.64-4.36,4a186.38,186.38,0,0,1-39.16,30.33c-1.85,1-3.73,2-5.59,2.94-1.09.78-2.2,1.56-3.33,2.35s-2.37,1.76-3.56,2.67c-1,.85-2,1.69-3.08,2.65A291.26,291.26,0,0,1,62-182.74c-1.3,1.08-2.71,2.19-4.31,3.38l-.33.25c-4.23,3.16-8.65,6.44-13,10-1.42,1.16-2.9,2.35-4.46,3.55l-.19.12c-6.67,3.74-12.58,8.32-18.27,12.73-3.45,2.69-7,5.45-10.7,8-1.61,1.27-3.2,2.7-4.8,4.23-1.37,1.29-2.67,2.67-4,4.09-1,1.15-2.15,2.53-3.4,4.12-1.13,1.43-2.27,2.94-3.36,4.37-8.85,14.15-24.75,20.81-40.07,27.25-2.24,1-5.7,3.93-6.05,6.64A2.68,2.68,0,0,0-50-91.55l.11.08c.22.26.5.54.74.82,1.5,1.55,3.16,3.33,3.65,5.58a42.25,42.25,0,0,1,1.81,5.35,16.79,16.79,0,0,1,.59,5.51,30.2,30.2,0,0,1-.67,4,18.21,18.21,0,0,1-3.8,7.56l-.93,1.36c-.57.89-1.19,1.79-1.78,2.68-21.71,33-28.84,56.85-19.58,65.41,10.27,9.43,40.5-.21,80.95-25.84l.47-.27c1.24-.77,2.48-1.53,3.81-2.29l.25-.1c5.54-2,11-.37,15.11,1.24l.13.06.77.41c1.24.58,2.5,1.19,3.82,1.77l.17,0,.12.12A8.91,8.91,0,0,0,40-16.38c5.91-.21,11.37-3.72,16.2-10.48a49,49,0,0,0,2.36-4.53c1.42-3.1,2.58-6.35,3.69-9.49,2.85-8,5.8-16.37,13.37-22.46l.51-.56c.77-.81,1.51-1.58,2.27-2.41,1.92-2,3.77-4.17,5.58-6.24,1.29-1.52,2.62-3.06,4-4.68C96.7-87.64,106.76-96,117.46-104.77c4.1-3.37,8.3-6.85,12.39-10.43,1.22-1.22,2.57-2.56,4-4.1,1-1,2.11-2.2,3.19-3.45,9.61-14.54,21.64-26.12,36.39-39.72"/></g></g><g class="cls-14"><g class="cls-15"><path class="cls-9" d="M217.15-264a14.27,14.27,0,0,1,3.8,5.89l.07.21a34.26,34.26,0,0,1,.63,6.08,43.52,43.52,0,0,1-.25,5.87l0,.1c-.48,2.79-.76,5.67-1,8.7-.63,7-1.25,14.28-5,20.46-4.22,6.61-9.3,12.14-14.24,17.52-1.52,1.66-3.08,3.36-4.57,5.05-1.35,1.52-2.54,2.93-3.6,4.22a115.43,115.43,0,0,1-10.68,17.1c-1.29,1.72-2.66,3.52-4.13,5.32l-.13.12-2.2,2.15c-13.93,13.45-28.3,27.34-39,43.71l-.14.19c-1.39,1.52-2.82,3-3.94,4.11-1.47,1.47-2.73,2.67-3.88,3.76l-.08.08a458.43,458.43,0,0,0-44.3,39.18c-.62.78-1.23,1.57-1.82,2.32l-1,1.26c-.79,1-1.6,2-2.44,3.08s-1.78,2.11-2.57,3l-.1.1-.12.1c-6.44,4.9-11.27,11.77-15.68,22.23l-.07.16c-5.94,10.41-17,15.8-27.14,19.74l-.18.07a26.14,26.14,0,0,1-7.28.86,36.44,36.44,0,0,1-8.09-1.18,23.41,23.41,0,0,0-3.4,1.1l-2.2,1.31-1.91,1.14C-11-6-49.09,13.79-63.32.7c-12-11,.69-38,13.42-58.61.85-1.39,1.73-2.8,2.62-4.21l.14-.18a15.49,15.49,0,0,0,3.75-7.62,36.3,36.3,0,0,0,.58-4.38v0a20.41,20.41,0,0,0-1.07-7.42c-.22-.84-.48-1.68-.75-2.51-.11-.43-.23-.86-.36-1.25a11.32,11.32,0,0,1-2.41-8.79,7.25,7.25,0,0,1,3.81-5.53c3.95-2.36,8.13-4.38,12.21-6.34,9.61-4.62,18.71-9,24.59-17.56l.07-.09c1.15-1.41,2.33-2.92,3.5-4.5s2.19-3,3.3-4.6L.15-133c1.4-1.83,2.78-3.5,4.15-5.12s2.6-3,3.78-4.33c6-6.86,13.7-11.58,21.06-16.14,3.67-2.25,7.44-4.6,11-7.16,1.41-1.1,2.86-2.27,4.4-3.57l.14-.12.18-.06a34,34,0,0,0,7.58-5.82,48.67,48.67,0,0,1,6.27-5.23l1.5-1.3q1.72-1.55,3.48-3l.21-.14c1.31-.79,2.65-1.55,4-2.33,13.52-7.8,26.29-15.2,34.4-27.67l.17-.2c1.5-1.56,2.76-2.8,4-3.94a52,52,0,0,1,4.55-3.61c1.31-.92,2.7-1.87,4.09-2.8,1.63-1.1,3.35-2.2,5.18-3.39l.2-.11c1.71-.8,3.45-1.67,5.17-2.58,11.84-5.93,21.29-13.91,31.55-23,1.42-1.22,2.81-2.48,4.26-3.7s2.86-2.49,4.3-3.73l.2-.15a44.86,44.86,0,0,1,4.32-2.29A33.5,33.5,0,0,1,185-267.69a38,38,0,0,1,6.6.68c1.57-.16,3.12-.4,4.6-.63l1.45-.22c8.78-1.29,15.35,0,19.48,3.81m.67,6.52a11.47,11.47,0,0,0-2.88-4.46c-3.31-3-8.88-4-16.54-2.86l-1.43.23c-1.6.24-3.27.5-5,.68l-.26,0-.26-.05a36.17,36.17,0,0,0-6.24-.68,30,30,0,0,0-13.32,2.87A35.34,35.34,0,0,0,168-259.7l-4.21,3.64c-1.41,1.21-2.82,2.46-4.23,3.69-10.4,9.18-20,17.28-32.16,23.4-1.68.9-3.44,1.74-5.17,2.56-1.79,1.13-3.45,2.26-5.06,3.32-1.4.93-2.74,1.87-4,2.75a44.33,44.33,0,0,0-4.28,3.43c-1.15,1-2.38,2.2-3.8,3.68-8.48,12.95-21.51,20.5-35.3,28.48l-3.82,2.22c-1.11,1-2.23,2-3.37,2.95l-1.73,1.47a47.22,47.22,0,0,0-6,5,36.4,36.4,0,0,1-8.12,6.21c-1.51,1.27-3,2.45-4.4,3.56-3.67,2.65-7.48,5-11.21,7.31-7.54,4.66-14.65,9-20.41,15.58-1.2,1.3-2.4,2.7-3.74,4.28s-2.65,3.23-4.07,5c-1.13,1.63-2.22,3.2-3.34,4.67s-2.36,3.12-3.54,4.55c-6.33,9.15-16.16,13.88-25.69,18.46-4,1.94-8.16,4-12,6.24l-.1,0a4.59,4.59,0,0,0-2.35,3.54,8.18,8.18,0,0,0,1.9,6.58l.24.28.1.33c.13.53.3,1,.45,1.56.24.87.52,1.73.75,2.58a22.06,22.06,0,0,1,1.13,8.48,32.58,32.58,0,0,1-.62,4.7,18.16,18.16,0,0,1-4.29,8.82c-.87,1.38-1.73,2.71-2.53,4C-64-28.76-69.11-8.78-61.1-1.41c9,8.31,35,.77,69.64-20.14.63-.36,1.27-.72,1.89-1.11L12.72-24l.2-.09a23.41,23.41,0,0,1,4.44-1.39l.42-.09.39.11a32.81,32.81,0,0,0,7.7,1.13A23.5,23.5,0,0,0,32.12-25c9.57-3.76,20.07-8.86,25.58-18.43,4.55-10.83,9.61-18,16.41-23.23.74-.85,1.53-1.77,2.39-2.83s1.63-2,2.43-3l.95-1.25c.65-.8,1.26-1.59,1.9-2.37l.09-.13a461.43,461.43,0,0,1,44.58-39.45c1.09-1,2.36-2.23,3.78-3.64,1-1.07,2.4-2.47,3.75-3.94,10.89-16.59,25.37-30.58,39.34-44.09l2.19-2.1c1.41-1.76,2.77-3.51,4-5.19A113.08,113.08,0,0,0,190-191.54l.17-.26c1.11-1.35,2.32-2.79,3.75-4.39s3.11-3.46,4.63-5.12c4.85-5.29,9.81-10.73,13.9-17.1,3.4-5.61,4-12.55,4.64-19.27.24-2.92.52-6,1-8.89a42.38,42.38,0,0,0,.27-5.46,34.9,34.9,0,0,0-.58-5.5"/></g></g><path class="cls-16" d="M242.39-287.88a15,15,0,0,1,4,6.36c2.51,9,1.77,17-2.19,23.21-2.68,4.23-5.32,8.8-8.08,13.93-1,1.79-1.75,3.32-2.42,4.8-2.41,4.08-3.05,9-3.71,13.78-1,7.51-2.06,15.3-9.83,19.86A77.17,77.17,0,0,0,201.57-189c-1.36,1.64-2.61,3.22-3.77,4.82a109.3,109.3,0,0,1-14.94,22.34c-1.4,1.64-2.85,3.32-4.47,5.16-13.7,12-25.63,26.54-34.48,37.84-.92,1-1.81,1.94-2.7,2.91-1.53,1.63-3,3.11-4.41,4.57-4.34,3.92-9.06,7.74-13.64,11.42C111.61-90.64,99.63-81,91.9-68.14Q90.07-65.78,88-63.55c-1.09,1.19-2.22,2.37-3.41,3.53-8.18,6.83-11.44,16-14.08,24.9-.4,1.29-.76,2.57-1.13,3.83l-.53,1.81c-1.39,2.81-2.15,6.33-3,10.1C64-10.64,62.06-1.59,51.76-2.19c-4.28-.12-8-2.27-12-4.53a69.26,69.26,0,0,0-6.66-3.4,42,42,0,0,0-5.63-2.53,13.05,13.05,0,0,0-11.12.58L15-11.2,12.13-9.29C-12,6.68-34,18.31-51.18,24.28c-18.13,6.28-30.72,6.35-37.36.22C-101,13-89.86-19.19-57.89-63.81L-57-65c.49-.7,1-1.43,1.53-2.14a21.35,21.35,0,0,0,2.29-4.2,31.43,31.43,0,0,0,1.41-4.5c1.51-4.59-1.7-7.9-4.73-11.12-.79-.81-1.58-1.67-2.32-2.48a10.24,10.24,0,0,1-2.41-4.42l0-.07c1.12-8.55,9-11.87,16.66-15.09,4.42-1.85,9-3.79,12.13-6.72l.06,0c1.93-1.13,3.63-2.18,5.25-3.25,7.86-5.22,13.25-10.69,17-17.16,1.37-1.8,2.62-3.32,3.8-4.7a55.33,55.33,0,0,1,4.12-4.3,38.62,38.62,0,0,1,4.84-3.32c7-4.12,13.41-9.17,19.62-14,4-3.18,8.17-6.43,12.36-9.35,1.83-1.54,3.55-2.89,4.86-3.95a75.55,75.55,0,0,1,7.38-5.34c1.68-1.08,3.45-2.25,5.12-3.49,1.37-1,2.8-2,4.19-3,5.25-4.33,10.62-8.67,15.83-12.87,9.88-8,20.08-16.2,29.73-24.68l4-3.08,4-3c2-1.07,4-2.2,6.09-3.35,18-9.24,31.6-20.72,40.51-34.15,1.48-2.09,2.72-3.84,3.78-5.52v0l.06,0a26.2,26.2,0,0,1,5.83-2.79,52.53,52.53,0,0,1,5.86-2.54,41.68,41.68,0,0,1,10-1.2c4.93-.15,9.6-.3,14-3.15,2.51-1.05,4.91-2,7.17-2.81,19.25-7,32.55-7.36,39.47-1m-330.5,312c12.7,11.71,50-1,99.84-33.88l2.85-1.91,1.35-.88c3.65-2,7.36-2.15,11.73-.66a44,44,0,0,1,5.66,2.59A59.46,59.46,0,0,1,40-7.2c3.9,2.2,7.6,4.31,11.73,4.42,9.78.55,11.67-8.25,13.52-16.76.8-3.78,1.58-7.36,3-10.19l.48-1.74c.4-1.29.76-2.57,1.15-3.86,2.65-8.92,5.93-18.22,14.26-25.15,1.17-1.12,2.3-2.32,3.36-3.48,1.35-1.46,2.62-3,3.83-4.53C99.12-81.39,111.1-91,122.7-100.41c4.59-3.69,9.28-7.48,13.62-11.4,1.43-1.45,2.85-2.93,4.38-4.56.9-.94,1.79-1.91,2.67-2.87,8.87-11.3,20.8-25.85,34.54-37.9,1.59-1.81,3.06-3.48,4.41-5.11a106.38,106.38,0,0,0,14.89-22.28c1.23-1.63,2.46-3.2,3.83-4.86,6.18-7.49,11.93-12.76,18.7-17,7.55-4.46,8.55-11.77,9.59-19.49.66-4.83,1.34-9.82,3.8-14,.65-1.46,1.4-3,2.36-4.81,2.81-5.14,5.45-9.71,8.11-13.95,3.88-6.08,4.63-13.95,2.14-22.73a14.14,14.14,0,0,0-3.8-6.07c-6.61-6.09-20-5.69-38.76,1.14-2.23.8-4.63,1.76-7.07,2.76-4.49,2.93-9.5,3.1-14.3,3.25a40.79,40.79,0,0,0-9.89,1.16,53.23,53.23,0,0,0-5.75,2.52,26.08,26.08,0,0,0-5.7,2.68c-1.07,1.67-2.25,3.42-3.74,5.51-9,13.47-22.65,25-40.71,34.31-2.08,1.17-4.1,2.27-6.08,3.32l-3.88,3c-1.34,1-2.67,2-4,3-9.68,8.51-19.89,16.74-29.76,24.71-5.21,4.18-10.61,8.55-15.85,12.89-1.45,1.06-2.83,2.07-4.21,3-1.7,1.25-3.44,2.4-5.14,3.52a67.94,67.94,0,0,0-7.32,5.3c-1.32,1-3,2.4-4.86,3.94-4.22,2.93-8.39,6.2-12.39,9.37C16.37-157.15,10-152.11,2.92-148a35.12,35.12,0,0,0-4.79,3.27c-1.31,1.25-2.65,2.64-4,4.23-1.18,1.37-2.39,2.88-3.74,4.65-3.75,6.52-9.21,12-17.15,17.33-1.6,1.07-3.33,2.11-5.23,3.25-3.21,3-7.82,4.91-12.29,6.81-7.49,3.14-15.2,6.39-16.31,14.57a9.5,9.5,0,0,0,2.31,4.06c.66.85,1.44,1.67,2.24,2.51,3.19,3.3,6.5,6.78,4.93,11.64a34.19,34.19,0,0,1-1.46,4.57,22,22,0,0,1-2.34,4.32c-.52.71-1,1.44-1.54,2.14l-.84,1.15c-31.78,44.37-43,76.28-30.78,87.55"/><path class="cls-16" d="M233.73-279.62l0,.05c4.29,9,4.81,18.48,1.64,29-.54,1.78-1.22,3.69-2,5.59a61.51,61.51,0,0,0-4.53,13.09c-1.61,6.16-3.25,12.54-7.64,17.73A190.65,190.65,0,0,1,207-198.41c-2.27,2.31-4.58,4.66-6.79,7-1.52,1.64-2.83,3.14-4.05,4.58a138.07,138.07,0,0,1-11,17c-1.32,1.76-2.7,3.54-4.17,5.34-4.87,5.58-10.11,10.89-15.23,16.06-8.76,8.87-17.83,18.07-25.11,28.58-1,1.08-2.06,2.21-3.37,3.59-1.53,1.56-2.89,2.94-4.14,4.16-4,3.5-8.1,6.86-12.13,10.13-11,9-22.4,18.3-30.94,30.07-1.33,1.48-2.63,3-3.93,4.39-.91,1-1.81,2-2.74,3s-1.87,2-2.82,2.9c-8.73,7.51-11.25,18.4-13.48,28l-.19.84c-.35,1.48-.68,2.93-1,4.4-.2.87-.38,1.77-.56,2.66-1,5.36-2.17,10.94-6.85,14.55-5,4-12.59,3.68-23.16-1.05-1.45-.57-2.83-1.22-4.27-1.84A40.32,40.32,0,0,0,27-15.64c-4.8-1.6-8.56-1.41-12.12.61-1.36.86-2.72,1.78-4.07,2.64C-34.82,16.89-67.85,27.35-79.85,16.29-91.12,5.91-82-22.59-54.86-61.93l1.06-1.53c.54-.76,1-1.49,1.58-2.26.31-.46.65-.94.93-1.35,1.14-1.57,2.09-2.89,1.67-4.48l0-.08,0-.05a17.11,17.11,0,0,0,.36-5A32,32,0,0,0-50-82c-.79-1.29-1.68-2.83-2.44-4.34a31.6,31.6,0,0,1-2-4.36A10.37,10.37,0,0,1-55-98.19c1.27-4.78,7.25-6.76,11.2-8.08,2.12-.92,4.16-1.86,6.07-2.76,14.15-6.81,24.15-14.64,30.5-23.93,1.17-1.53,2.32-3.07,3.52-4.6,1.32-1.68,2.5-3.13,3.59-4.43a55.83,55.83,0,0,1,4.66-4l5.32-4.24c8.39-6.74,17.09-13.72,26.65-19.24C38-170.67,39.53-171.88,41-173a36.31,36.31,0,0,1,7-5.34,43.52,43.52,0,0,0,5.54-4c1-.79,2.1-1.58,3.12-2.4s2-1.57,3-2.36c1.26-1,2.49-2,3.71-3A217,217,0,0,0,83-205.91a226.35,226.35,0,0,1,18.8-15.32c1.32-1.09,2.69-2.31,4-3.46l.69-.61,3.67-2.76c1.11-.83,2.24-1.64,3.36-2.45,16.08-9,32.76-18.9,45-33.95,1.54-1.74,2.89-3.27,4.1-4.72h0l.07,0c1.51-1,3.08-2,4.58-2.88,1.68-1,3.3-1.8,4.9-2.51a39.1,39.1,0,0,1,22.16-3.56c2-.71,4-1.43,6.12-2.09,12.32-4,21.87-4.76,28.32-2.31a14.5,14.5,0,0,1,4.87,2.9ZM-79.38,15.86c11.73,10.82,44.43.34,89.74-28.76,1.35-.87,2.72-1.77,4.11-2.65,3.69-2.09,7.71-2.29,12.65-.68a41.78,41.78,0,0,1,4.19,1.66c1.44.64,2.84,1.25,4.28,1.86,10.3,4.6,17.66,5,22.45,1.13,4.54-3.51,5.62-9,6.68-14.25.17-.89.35-1.79.55-2.65.36-1.49.69-2.95,1-4.43l.19-.82c2.26-9.72,4.81-20.7,13.66-28.28L83-64.89c.91-1,1.82-2,2.74-3,1.31-1.45,2.6-2.9,3.9-4.38,8.55-11.8,20-21.12,31-30.12,4-3.3,8.15-6.67,12.09-10.12,1.26-1.22,2.58-2.56,4.11-4.14,1.35-1.39,2.38-2.52,3.34-3.55,7.28-10.54,16.38-19.75,25.17-28.65,5.09-5.15,10.35-10.49,15.18-16,1.42-1.8,2.84-3.6,4.13-5.33a136.56,136.56,0,0,0,11-17c1.26-1.51,2.59-3,4.11-4.65,2.21-2.37,4.54-4.77,6.78-7.06a189,189,0,0,0,14.2-15.69c4.31-5.12,6-11.44,7.53-17.55,1.16-4.45,2.36-9,4.55-13.16.75-1.87,1.45-3.74,2-5.53,3.13-10.34,2.6-19.67-1.57-28.54a15,15,0,0,0-4.6-2.71c-6.31-2.36-15.7-1.57-27.86,2.34-2.06.66-4.19,1.42-6.18,2.14h-.14a38.8,38.8,0,0,0-21.91,3.5,49.34,49.34,0,0,0-4.82,2.49q-2.28,1.31-4.54,2.83c-1.21,1.42-2.54,3-4.1,4.68-12.26,15.1-29,25.09-45.09,34-1.11.83-2.24,1.64-3.36,2.45s-2.42,1.83-3.65,2.75l-.66.58c-1.32,1.17-2.7,2.37-4.07,3.53a224.26,224.26,0,0,0-18.75,15.26,217.53,217.53,0,0,1-19.69,15.92l-3.69,2.93-3,2.39c-1.06.79-2.1,1.59-3.11,2.35a41.78,41.78,0,0,1-5.6,4,35,35,0,0,0-6.86,5.25l-4.58,3.63c-9.56,5.51-18.26,12.49-26.63,19.22-1.8,1.43-3.56,2.86-5.34,4.26-1.53,1.19-3.07,2.48-4.57,3.9-1.08,1.26-2.25,2.71-3.56,4.41-1.19,1.5-2.35,3-3.53,4.58-6.4,9.36-16.42,17.23-30.71,24.1-1.89.9-4,1.85-6.09,2.76-3.88,1.31-9.68,3.23-10.88,7.72a9.9,9.9,0,0,0,.6,7.14,36.2,36.2,0,0,0,2,4.32c.78,1.5,1.69,3,2.44,4.33l0,.12a31.66,31.66,0,0,1,.74,5.4A17.85,17.85,0,0,1-49-71.57c.43,1.8-.62,3.27-1.74,4.86-.29.43-.64.88-1,1.33-.52.79-1,1.53-1.58,2.28l-1,1.53c-27,39.06-36.18,67.3-25.11,77.43"/><path class="cls-16" d="M225-271.4l0,0a28.79,28.79,0,0,1,3.89,20.87,46.83,46.83,0,0,1-1.2,5.16c-.92,20.33-13.77,34.7-26.26,48.63-.9,1-1.85,2.06-2.78,3.1-1.56,1.78-2.86,3.24-4,4.58a125.89,125.89,0,0,1-16,23.55c-1.31,1.56-2.55,3-3.74,4.28-14.71,13.6-26.74,25.1-36.23,39.57-1.13,1.3-2.34,2.57-3.35,3.61-1.49,1.57-2.85,2.93-4.08,4.15-4.15,3.61-8.37,7.13-12.46,10.52C108.2-94.63,98.2-86.35,89.58-76c-1.41,1.61-2.73,3.16-4,4.7-1.81,2.08-3.66,4.21-5.59,6.29-.74.79-1.52,1.59-2.29,2.41l-.57.63c-7.29,5.81-10,13.58-13,21.81C63-37,61.82-33.74,60.36-30.58a46.54,46.54,0,0,1-2.46,4.74c-5.2,7.3-11.16,11.09-17.75,11.28a10.81,10.81,0,0,1-5.4-2c-1.37-.58-2.7-1.24-3.88-1.8l-.79-.38c-5.58-2.21-9.76-2.58-13.64-1.21-1.21.69-2.45,1.45-3.66,2.2l-.49.31C-29.54,9.05-60,18.35-71.12,8.08c-10.18-9.37-3.36-33.39,19.2-67.7.58-.9,1.17-1.77,1.79-2.67l1-1.45a16.23,16.23,0,0,0,3.52-7A26.88,26.88,0,0,0-45-74.5a14.47,14.47,0,0,0-.55-4.93,34.87,34.87,0,0,0-1.82-5.22v-.07c-.27-1.8-1.75-3.31-3.14-4.78-.28-.27-.53-.57-.8-.83a4.52,4.52,0,0,1-1.52-4c.49-3.5,4.51-6.83,7.08-8C-30.64-108.68-15-115.21-6.43-129c1.1-1.44,2.28-3,3.42-4.42,1.27-1.62,2.4-3,3.46-4.23,1.3-1.45,2.69-2.85,4-4.16,1.66-1.58,3.29-3.05,5-4.36,3.71-2.58,7.26-5.34,10.68-8,5.74-4.46,11.7-9.1,18.52-12.9,1.49-1.17,3-2.36,4.36-3.49,4.36-3.56,8.81-6.87,13.08-10l.3-.22c1.6-1.21,3-2.31,4.3-3.39a289.85,289.85,0,0,0,44.75-36.22c1.12-1,2.14-1.9,3.19-2.76s2.42-1.81,3.63-2.69,2.31-1.65,3.44-2.45c1.92-.94,3.77-1.92,5.62-3a185,185,0,0,0,38.86-30.11c1.48-1.38,2.95-2.71,4.44-4.09,1.54-1,3-1.81,4.43-2.55a43.38,43.38,0,0,1,19.87-5.29,59.13,59.13,0,0,1,6.71.56c2.15-.61,4.06-1.1,5.83-1.49,7.67-1.69,13.91-1.72,18.57-.09a15,15,0,0,1,4.95,2.9ZM-70.69,7.67c10.91,10,41,.68,82.58-25.61l.49-.32c1.22-.74,2.46-1.52,3.77-2.24,4-1.46,8.37-1.06,14.17,1.21l.84.38c1.19.58,2.52,1.23,3.84,1.81l.08,0a9.83,9.83,0,0,0,5,1.88c6.34-.17,12.15-3.88,17.24-11,.84-1.41,1.62-2.92,2.43-4.64,1.42-3.14,2.57-6.42,3.71-9.59,3-8.32,5.73-16.14,13.11-22l.54-.61c.76-.82,1.56-1.6,2.28-2.4,1.91-2.06,3.8-4.2,5.6-6.27,1.3-1.53,2.62-3.08,4-4.69,8.62-10.35,18.66-18.64,29.31-27.42,4.08-3.38,8.32-6.87,12.44-10.47,1.23-1.22,2.56-2.57,4.08-4.16,1-1,2.17-2.25,3.31-3.55,9.5-14.44,21.5-26,36.25-39.59,1.17-1.32,2.4-2.7,3.7-4.28a124.67,124.67,0,0,0,15.94-23.45l0-.06c1.18-1.35,2.47-2.84,4.07-4.62.92-1,1.84-2.08,2.77-3.1,13-14.51,25.26-28.19,26.09-48.3l0-.07c.51-1.83.91-3.51,1.21-5.15a28.46,28.46,0,0,0-3.81-20.42,12.93,12.93,0,0,0-4.68-2.71c-4.48-1.59-10.59-1.53-18.14.13-1.78.38-3.7.87-5.87,1.5l-.07,0h-.09a49.19,49.19,0,0,0-6.67-.6,42.49,42.49,0,0,0-19.58,5.22c-1.4.73-2.86,1.57-4.31,2.47-1.46,1.36-2.92,2.72-4.41,4.09a187.42,187.42,0,0,1-39,30.2c-1.86,1-3.74,2-5.59,2.92-1.11.78-2.27,1.6-3.42,2.44s-2.42,1.76-3.64,2.68c-1,.86-2,1.74-3.16,2.75a291.8,291.8,0,0,1-44.76,36.25c-1.26,1.05-2.71,2.16-4.32,3.37l-.29.22c-4.26,3.19-8.69,6.46-13,10-1.41,1.13-2.9,2.36-4.42,3.49a153.08,153.08,0,0,0-18.46,12.9c-3.46,2.68-7,5.44-10.69,8-1.63,1.31-3.31,2.77-4.93,4.34-1.35,1.31-2.7,2.7-4,4.11-1,1.22-2.19,2.6-3.43,4.2s-2.33,3-3.42,4.42c-8.65,13.88-24.36,20.47-39.57,26.83-2.57,1.15-6.34,4.4-6.75,7.55a3.84,3.84,0,0,0,1.35,3.52,9.11,9.11,0,0,0,.8.84c1.45,1.54,3,3.11,3.31,5.1a38.47,38.47,0,0,1,1.79,5.25,14.41,14.41,0,0,1,.56,5.14A24.56,24.56,0,0,1-45-70.54a16.64,16.64,0,0,1-3.61,7.16l-1,1.43c-.59.89-1.21,1.8-1.76,2.67-22.07,33.54-29.12,57.92-19.35,67"/><path class="cls-16" d="M216.27-263.2a13.16,13.16,0,0,1,3.46,5.31,39.29,39.29,0,0,1,.63,6,36.49,36.49,0,0,1-.29,5.74c-.48,2.84-.75,5.87-1,8.81-.58,6.89-1.21,14-4.86,20-4.13,6.48-9.19,12-14.09,17.34-1.52,1.64-3.08,3.36-4.61,5.06s-2.61,3-3.7,4.39a116.21,116.21,0,0,1-10.62,17c-1.29,1.73-2.64,3.49-4.11,5.29l-2.25,2.19c-14,13.49-28.38,27.43-39.19,43.88-1.4,1.57-2.83,3-3.92,4.15-1.44,1.43-2.72,2.66-3.84,3.72A454.66,454.66,0,0,0,83.36-75c-.61.73-1.21,1.52-1.84,2.34l-1,1.27c-.81,1-1.61,2-2.42,3s-1.76,2.08-2.56,3C68.89-60.28,64-53.28,59.47-42.62,53.69-32.5,42.82-27.22,32.9-23.33a24.3,24.3,0,0,1-7,.81,35.06,35.06,0,0,1-8.06-1.2,22.06,22.06,0,0,0-4,1.27c-.72.42-1.51.9-2.26,1.35S10.33-20.36,9.7-20C-7.88-9.36-23.06-2.18-35.41,1.35c-12.85,3.67-22,3.19-27-1.49-8.87-8.16-4-28.45,13.67-57.13.85-1.39,1.73-2.76,2.62-4.17a16.6,16.6,0,0,0,4-8.17,35.71,35.71,0,0,0,.61-4.52A21.23,21.23,0,0,0-42.6-82c-.24-.87-.5-1.72-.74-2.58-.15-.48-.32-1-.45-1.49a10.16,10.16,0,0,1-2.33-8,6.38,6.38,0,0,1,3.3-4.74c3.88-2.32,8.07-4.33,12.12-6.29,9.76-4.7,19-9.15,25-17.94,1.2-1.46,2.37-3,3.55-4.53s2.2-3.06,3.33-4.69c1.41-1.8,2.77-3.5,4.14-5.11s2.57-3,3.73-4.28C15-148.4,22.61-153.06,29.93-157.6c3.67-2.25,7.48-4.61,11-7.2,1.47-1.15,2.92-2.31,4.49-3.63l.06,0c3-1.46,5.35-3.67,7.86-6a48.39,48.39,0,0,1,6.23-5.16L61.13-181l3.48-3,4-2.34c13.64-7.89,26.51-15.34,34.78-28,1.52-1.6,2.78-2.84,4-3.93a50,50,0,0,1,4.44-3.53c1.31-.91,2.7-1.86,4.09-2.8,1.63-1.09,3.34-2.21,5.18-3.39,1.74-.81,3.52-1.69,5.22-2.61,12-6,21.5-14,31.82-23.14,1.37-1.22,2.8-2.49,4.21-3.7s2.89-2.49,4.34-3.73a37.84,37.84,0,0,1,4.24-2.26,32.51,32.51,0,0,1,14.16-3.06,42.53,42.53,0,0,1,6.59.72c1.66-.16,3.26-.4,4.86-.65l1.43-.23c8.34-1.24,14.48-.06,18.31,3.46M-62-.55C-52.36,8.32-26.38,1,9.31-20.5l1.9-1.14L13.48-23a22.15,22.15,0,0,1,4.28-1.35l.07,0,.08,0a33.91,33.91,0,0,0,8,1.2,24.71,24.71,0,0,0,6.74-.8c9.76-3.8,20.55-9.08,26.22-19C63.4-53.64,68.37-60.7,75.09-65.8c.76-.88,1.56-1.84,2.48-3s1.62-2,2.42-3L81-73c.61-.79,1.25-1.6,1.86-2.37a460.13,460.13,0,0,1,44.54-39.43c1.11-1,2.36-2.24,3.82-3.7,1.08-1.08,2.54-2.56,3.85-4.06,10.84-16.49,25.29-30.46,39.27-44l2.24-2.15c1.4-1.76,2.79-3.54,4.05-5.24a119.85,119.85,0,0,0,10.62-17c1.11-1.41,2.34-2.84,3.75-4.45s3.1-3.42,4.61-5.08c4.88-5.31,9.93-10.83,14-17.23,3.54-5.86,4.21-12.94,4.79-19.77.27-3,.53-6,1-8.86a37.1,37.1,0,0,0,.25-5.63,38,38,0,0,0-.59-5.81,12.84,12.84,0,0,0-3.27-5c-3.66-3.35-9.62-4.43-17.72-3.23l-1.44.21c-1.59.25-3.24.5-5,.69l-.1,0a37.73,37.73,0,0,0-6.51-.73,32.14,32.14,0,0,0-13.84,3,38.37,38.37,0,0,0-4.15,2.2c-1.42,1.21-2.86,2.46-4.27,3.7s-2.85,2.47-4.25,3.71c-10.36,9.13-19.89,17.19-31.93,23.21-1.71.93-3.49,1.82-5.2,2.59l-5.16,3.38c-1.38.95-2.74,1.86-4.05,2.78a44.64,44.64,0,0,0-4.37,3.5c-1.21,1.07-2.48,2.3-3.92,3.82-8.33,12.77-21.27,20.27-35,28.2-1.33.75-2.65,1.54-4,2.3-1.09,1-2.26,2-3.43,3l-1.53,1.36a49.2,49.2,0,0,0-6.2,5.14c-2.52,2.33-4.91,4.58-8,6.06-1.57,1.32-3,2.49-4.47,3.61-3.62,2.64-7.44,5-11.11,7.25-7.28,4.5-14.83,9.16-20.7,15.81-1.18,1.3-2.39,2.71-3.76,4.32s-2.67,3.25-4.08,5.06c-1.14,1.63-2.27,3.21-3.33,4.67s-2.37,3.12-3.56,4.56c-6.13,8.88-15.88,13.57-25.28,18.09-4,2-8.19,4-12.07,6.29a5.63,5.63,0,0,0-3,4.34,9.36,9.36,0,0,0,2.2,7.6l0,.14c.18.5.34,1,.49,1.54.24.86.51,1.71.74,2.57A21.76,21.76,0,0,1-40.86-74a41.76,41.76,0,0,1-.61,4.57,17,17,0,0,1-4.11,8.38c-.87,1.38-1.76,2.78-2.59,4.15C-65.72-28.51-70.6-8.49-62-.55"/></g></g></g><g class="cls-17"><g class="cls-18"><g class="cls-19"><g class="cls-20"><rect class="cls-21" x="-84.84" y="-138.26" width="134.56" height="133.98" transform="translate(43.05 -29.87) rotate(-41.82)"/></g></g></g><g class="cls-22"><g class="cls-23"><g class="cls-24"><g class="cls-25"><rect class="cls-26" x="-178.46" y="-155.57" width="249.69" height="249.42" transform="translate(6.5 -45.45) rotate(-43.57)"/></g></g></g></g></g><path class="cls-27" d="M197.34,313.38c-6.58,1.57-11.55-2.87-11.55-2.87s2.43-6.21,9-7.78,14.82,2.09,14.82,2.09-5.7,7-12.28,8.56"/><path class="cls-28" d="M191.27,311.1a14.86,14.86,0,0,0,1.58.73,6.81,6.81,0,0,0,1.13.34,3.12,3.12,0,0,0,.42.07,8.8,8.8,0,0,1-1.4-.72c-.41-.25-.9-.56-1.43-.92l-.83-.56-.21-.14c1.42-.35,2.78-.7,4.06-1l0,0a12.51,12.51,0,0,0,3.82,1.84,6.78,6.78,0,0,0,1.27.23c.3,0,.47,0,.47,0l-.45-.11a9.38,9.38,0,0,1-1.18-.44,21.57,21.57,0,0,1-3.08-1.77c1.47-.39,2.82-.76,4-1.1l.06,0,.34.23c.23.15.45.29.67.41a6.61,6.61,0,0,0,1.2.56,3.6,3.6,0,0,0,.86.22,2.54,2.54,0,0,0,.32,0l-.31-.08a4.74,4.74,0,0,1-.81-.33,10.08,10.08,0,0,1-1.11-.65c-.21-.13-.42-.28-.63-.43l-.17-.12c3.28-.92,5.31-1.55,5.31-1.55s-2.1.36-5.44,1l.1-.18c.12-.23.24-.46.37-.67A10.2,10.2,0,0,1,201,305a4.82,4.82,0,0,1,.57-.66c.16-.13.24-.21.24-.21a2.36,2.36,0,0,0-.27.17,3.89,3.89,0,0,0-.68.59,7.4,7.4,0,0,0-.81,1c-.14.21-.28.43-.41.66l-.2.36,0,.07c-1.22.24-2.59.52-4.08.84a21.43,21.43,0,0,1,1.95-3,8.33,8.33,0,0,1,.85-.92l.35-.31s-.15.07-.41.22a6.6,6.6,0,0,0-1,.78A12.47,12.47,0,0,0,194.4,308l0,0c-1.29.28-2.66.58-4.08.91l.12-.22.49-.88c.31-.56.6-1.05.86-1.46a9.29,9.29,0,0,1,.92-1.28s-.13.08-.35.25a7.52,7.52,0,0,0-.85.82,13.5,13.5,0,0,0-1.07,1.36c-.19.27-.38.55-.57.85l-.47.77-1.2.28c-.85.21-1.57.4-2.16.59a5,5,0,0,0-.23.52s.16.14.45.36c.6-.11,1.33-.26,2.18-.46l1.2-.29.76.47c.31.19.61.36.89.51"/><path class="cls-27" d="M190.55,337.29a8.22,8.22,0,0,1-5.31-4.71,8.2,8.2,0,0,1,6.92-1.61c3.91,1,7.25,5.2,7.25,5.2s-4.95,2.11-8.86,1.12"/><path class="cls-28" d="M188,334.41a7.88,7.88,0,0,0,.63.82,3.87,3.87,0,0,0,.5.5l.2.15a5.59,5.59,0,0,1-.54-.77c-.15-.25-.32-.54-.5-.88l-.28-.53a.83.83,0,0,1-.07-.13l2.42.58v0a7.63,7.63,0,0,0,1.51,2,4,4,0,0,0,.61.47l.25.13-.21-.18a5.36,5.36,0,0,1-.5-.56,13.11,13.11,0,0,1-1.14-1.79l2.43.53,0,0,.12.22.24.4a4.31,4.31,0,0,0,.48.63,3.72,3.72,0,0,0,.39.36l.17.1-.15-.13a2.59,2.59,0,0,1-.33-.4,5.73,5.73,0,0,1-.41-.65l-.22-.4a1.17,1.17,0,0,0-.05-.11c2,.42,3.23.65,3.23.65s-1.21-.39-3.15-1l.1-.07.38-.25a4.79,4.79,0,0,1,.67-.38,2.72,2.72,0,0,1,.48-.19l.19,0h-.19a2.31,2.31,0,0,0-.52.12,6.18,6.18,0,0,0-.72.33l-.4.24a1.37,1.37,0,0,0-.2.13l0,0-2.39-.68a12.14,12.14,0,0,1,1.85-1,5.53,5.53,0,0,1,.71-.26l.27-.06h-.28a4,4,0,0,0-.76.12,7.57,7.57,0,0,0-2.3,1.07h0l-2.41-.65.12-.08.5-.33c.32-.21.61-.39.86-.53a5.17,5.17,0,0,1,.84-.42,1.51,1.51,0,0,0-.25,0,4.88,4.88,0,0,0-.67.2,8,8,0,0,0-.95.42l-.54.3-.45.27-.72-.18c-.5-.13-.94-.23-1.3-.29a3.21,3.21,0,0,0-.27.21l.14.31c.35.11.77.24,1.28.37l.71.18c.1.15.19.31.28.46l.33.51"/><path class="cls-27" d="M167.2,321.26c-1.29-1.61-1.16-6.13,3.11-8.58-1.22,2.84-1.09,5.06.35,5.07s.66-1.77,1-3.42a4.06,4.06,0,0,1,1.88-2.93,15.46,15.46,0,0,1,6.08,0c-2.55,1.08-5.28,4.42-3.66,5.2s1.32-3.62,7-4.14a14.61,14.61,0,0,1,3.72,2s-5,2.53-3.5,3.82,2.52-2.2,5.17-2.34c1,1.3,4.4,4.69,4.4,4.69l-4.14,4.86a7.73,7.73,0,0,1-3.71-1.75c-1.28-1.33-2.15-.34-1.66.63a5.54,5.54,0,0,0,3.92,2.44,10.73,10.73,0,0,1-4.27,2.52c-.74,0-4.08-.76-5.34-3-.49-.88-1-1-1.42-.74s-.41,1,0,1.87a7.29,7.29,0,0,0,3.86,2.95,14,14,0,0,1-6,.37c-.75-.25-2-1.9-2.32-3.88,0-.86,0-2.19-.87-2.24s-1,.63-.93,2.17a5,5,0,0,0,1,2.95,7.44,7.44,0,0,1-3.69-3.55,5.48,5.48,0,0,1,0-5"/><path class="cls-28" d="M163.27,321.06c0,.13,0,.49,0,.66l6.09-.15,9.41,9.14c.27,0,.53-.1.77-.17l-.65-.62a7,7,0,0,1-2.71-2.47c-.05-.11-.1-.21-.14-.31l-5.76-5.59,3.55-.08,7.93,7.7a4.9,4.9,0,0,0,1.14.19h0l-8.15-7.91,3.67-.09,7,6.82.55-.38-6.65-6.46,3.66-.08,3.86,3.74a8.43,8.43,0,0,0,1.4.44l-4.34-4.21,2.85-.06,3,2.95.42-.5-2.55-2.47,4.76-.11.32-.38-.28-.28-4.88.11,2.31-2.78-.45-.49-2.73,3.29-2.72.07,3.74-4.51a4,4,0,0,0-1.54.83l-3.06,3.7-3.72.08,5.88-7.11-.57-.33-6.18,7.46-3.72.09,6.69-8.08a7.75,7.75,0,0,0-1.18.4l-6.37,7.7-3.59.08,8-9.67c-.27,0-.53-.05-.8-.06l-8.07,9.75Z"/><path class="cls-27" d="M176.3,312.91a11.18,11.18,0,0,0-6.77-3.78,19.79,19.79,0,0,0-5.95.15,54.22,54.22,0,0,0,9.09-4.69,8.21,8.21,0,0,0,6.12,2.72c4.31,0,8.58-3.77,8.52-3.78a10.34,10.34,0,0,0-6.94-2,17.78,17.78,0,0,0-5.19,1.36,53.3,53.3,0,0,0,7.18-6.23,7.1,7.1,0,0,0,5.49,1.06c3.51-.79,6.36-4.55,6.31-4.55a8.64,8.64,0,0,0-6.09-.5,14,14,0,0,0-3.79,1.88,54.63,54.63,0,0,0,4.37-5.77,6.1,6.1,0,0,0,4.67,0c2.79-1.17,4.62-4.66,4.59-4.66a7.22,7.22,0,0,0-5.15.42,10.81,10.81,0,0,0-2.7,2q1.22-2.07,2.24-4.24a.88.88,0,0,0,0-.15,9.36,9.36,0,0,0,3.18-4.21,9.84,9.84,0,0,0,0-6.22,14.39,14.39,0,0,0-3.37,5,13.5,13.5,0,0,0-.64,5,1.25,1.25,0,0,0-.08.12c-.67,1.42-1.41,2.81-2.2,4.16a7.14,7.14,0,0,0,.14-3.2,6.39,6.39,0,0,0-3-4,11.81,11.81,0,0,0-.69,5.41,7.59,7.59,0,0,0,2.18,4,52.63,52.63,0,0,1-4.28,5.67,8.55,8.55,0,0,0,.92-3.95,7.52,7.52,0,0,0-2.78-5.16,13.52,13.52,0,0,0-1.78,6,9.33,9.33,0,0,0,1.74,5.16,52.63,52.63,0,0,1-7,6.12,9.77,9.77,0,0,0,2.27-4.57,8.67,8.67,0,0,0-2-6.58,16.22,16.22,0,0,0-3.4,6.38,11.34,11.34,0,0,0,.68,6.46,53,53,0,0,1-8.93,4.6,10.49,10.49,0,0,0,3.69-4.28,9.23,9.23,0,0,0-.47-7.34,17.86,17.86,0,0,0-5.13,5.78,12.17,12.17,0,0,0-1,6.92c-1.24.41-2.51.78-3.8,1.11a.57.57,0,0,0-.5.62.58.58,0,0,0,.74.33c1.31-.34,2.6-.71,3.87-1.14a8.68,8.68,0,0,0,5.74,4.42c4.56,1.06,10-1.85,10-1.88"/><path class="cls-27" d="M176.3,330.56a11.08,11.08,0,0,1-6.63,4,19.86,19.86,0,0,1-5.95.06A54,54,0,0,1,173,339a8.19,8.19,0,0,1,6-2.93c4.3-.14,8.7,3.46,8.64,3.47a10.31,10.31,0,0,1-6.86,2.26,17.47,17.47,0,0,1-5.23-1.17,53.67,53.67,0,0,1,7.38,6,7.11,7.11,0,0,1,5.46-1.25c3.53.66,6.51,4.32,6.47,4.32a8.65,8.65,0,0,1-6.07.72,13.67,13.67,0,0,1-3.86-1.75,53.64,53.64,0,0,1,4.57,5.62,6.06,6.06,0,0,1,4.66-.18c2.83,1.07,4.79,4.5,4.76,4.49a7.26,7.26,0,0,1-5.17-.23A11.48,11.48,0,0,1,191,356.5q1.29,2,2.39,4.16a.34.34,0,0,1,.05.14,9.44,9.44,0,0,1,3.33,4.09,9.86,9.86,0,0,1,.2,6.22,14.33,14.33,0,0,1-3.54-4.88,13.24,13.24,0,0,1-.82-5l-.09-.12q-1.08-2.1-2.34-4.08a7.23,7.23,0,0,1,.25,3.19,6.3,6.3,0,0,1-2.88,4.08,11.68,11.68,0,0,1-.87-5.38,7.63,7.63,0,0,1,2-4.08,52.81,52.81,0,0,0-4.48-5.51,8.4,8.4,0,0,1,1.06,3.91,7.5,7.5,0,0,1-2.6,5.26,13.63,13.63,0,0,1-2-6,9.2,9.2,0,0,1,1.56-5.21,52.51,52.51,0,0,0-7.26-5.87,9.7,9.7,0,0,1,2.43,4.49,8.77,8.77,0,0,1-1.78,6.65,16.32,16.32,0,0,1-3.63-6.26,11.26,11.26,0,0,1,.46-6.48,53.6,53.6,0,0,0-9.09-4.29,10.58,10.58,0,0,1,3.84,4.15,9.27,9.27,0,0,1-.21,7.35,17.73,17.73,0,0,1-5.34-5.59,12.14,12.14,0,0,1-1.26-6.88c-1.26-.37-2.54-.7-3.83-1-.35-.08-.58-.35-.53-.61a.57.57,0,0,1,.73-.35c1.32.28,2.63.62,3.91,1a8.67,8.67,0,0,1,5.58-4.62c4.52-1.22,10.09,1.49,10,1.52"/><path class="cls-29" d="M191.15,266.49a3.95,3.95,0,1,1-3.94-3.95A3.94,3.94,0,0,1,191.15,266.49Z"/><path class="cls-29" d="M209.61,282.17a1.46,1.46,0,1,1-1.46-1.46A1.46,1.46,0,0,1,209.61,282.17Z"/><path class="cls-29" d="M176.75,275.81a2.19,2.19,0,1,1-2.19-2.19A2.19,2.19,0,0,1,176.75,275.81Z"/><path class="cls-29" d="M205.74,271.06a.52.52,0,1,1-.51-.51A.51.51,0,0,1,205.74,271.06Z"/><line class="cls-30" x1="206.29" y1="314.51" x2="206.29" y2="317.02"/><line class="cls-30" x1="206.29" y1="319.46" x2="206.29" y2="321.97"/><line class="cls-30" x1="210.02" y1="318.24" x2="207.51" y2="318.24"/><line class="cls-30" x1="205.07" y1="318.24" x2="202.56" y2="318.24"/><line class="cls-30" x1="201.69" y1="290.28" x2="201.69" y2="292.79"/><line class="cls-30" x1="201.69" y1="295.22" x2="201.69" y2="297.73"/><line class="cls-30" x1="205.42" y1="294" x2="202.91" y2="294"/><line class="cls-30" x1="200.47" y1="294" x2="197.96" y2="294"/><path class="cls-29" d="M199.39,326.45a1.87,1.87,0,1,1-1.87-1.87A1.87,1.87,0,0,1,199.39,326.45Z"/><path class="cls-29" d="M208.59,340.41a3,3,0,1,1-3-3A3,3,0,0,1,208.59,340.41Z"/><path class="cls-27" d="M39.58,192c6.59-1.57,11.55,2.87,11.55,2.87s-2.42,6.21-9,7.78-14.82-2.09-14.82-2.09,5.7-7,12.28-8.56"/><path class="cls-28" d="M45.65,194.23a14.86,14.86,0,0,0-1.58-.73,6.54,6.54,0,0,0-1.13-.34,3.12,3.12,0,0,0-.42-.07,8.8,8.8,0,0,1,1.4.72c.41.25.9.56,1.43.92l.83.57.21.13c-1.42.35-2.77.7-4,1l0,0a12.55,12.55,0,0,0-3.82-1.85,6.83,6.83,0,0,0-1.28-.22,4.17,4.17,0,0,0-.47,0l.46.11a10,10,0,0,1,1.17.44,22.35,22.35,0,0,1,3.09,1.78l-4,1.09-.06,0-.34-.23c-.23-.15-.45-.29-.67-.41a8.78,8.78,0,0,0-1.19-.56,4.38,4.38,0,0,0-.87-.22,2.54,2.54,0,0,0-.32,0l.31.08a4.74,4.74,0,0,1,.81.33,9.23,9.23,0,0,1,1.11.65c.21.13.42.28.63.43l.17.12c-3.27.92-5.31,1.55-5.31,1.55s2.1-.35,5.44-1a1.62,1.62,0,0,1-.1.18c-.12.23-.24.46-.36.67a10.14,10.14,0,0,1-.71,1.08,4.82,4.82,0,0,1-.57.66l-.24.21a3,3,0,0,0,.28-.17,4.72,4.72,0,0,0,.67-.58,7.54,7.54,0,0,0,.81-1.05c.14-.2.28-.43.41-.66s.14-.24.2-.36l0-.07c1.22-.24,2.6-.52,4.08-.84a20.84,20.84,0,0,1-1.95,3,8.33,8.33,0,0,1-.85.92l-.35.31.42-.22a6.9,6.9,0,0,0,1-.77,12.3,12.3,0,0,0,2.57-3.38l0,0c1.3-.28,2.66-.58,4.08-.91l-.12.22-.49.88c-.31.56-.6,1.06-.86,1.47a8.53,8.53,0,0,1-.92,1.27s.13-.08.35-.25a8.24,8.24,0,0,0,.85-.81,15.31,15.31,0,0,0,1.08-1.37c.18-.27.37-.55.56-.85l.47-.77,1.2-.28c.85-.21,1.57-.4,2.16-.58.16-.33.24-.53.24-.53s-.16-.14-.45-.35q-.91.15-2.19.45l-1.2.29-.76-.47-.89-.51"/><path class="cls-27" d="M46.37,168a8.22,8.22,0,0,1,5.31,4.72,8.22,8.22,0,0,1-6.91,1.61c-3.92-1-7.26-5.21-7.26-5.21s5-2.11,8.86-1.12"/><path class="cls-28" d="M49,170.92a7.86,7.86,0,0,0-.64-.82,3.68,3.68,0,0,0-.5-.49,1.55,1.55,0,0,0-.2-.16,5.59,5.59,0,0,1,.54.77c.15.25.32.55.5.88l.28.53a.83.83,0,0,1,.07.13c-.84-.2-1.65-.4-2.42-.57v0a7.54,7.54,0,0,0-1.51-2,4.21,4.21,0,0,0-.61-.47l-.25-.13.21.18c.13.13.3.32.5.56a13.77,13.77,0,0,1,1.14,1.79l-2.43-.53,0,0-.12-.22c-.08-.14-.15-.27-.24-.4a5.16,5.16,0,0,0-.47-.63,3.27,3.27,0,0,0-.4-.35l-.16-.11.14.13a3.25,3.25,0,0,1,.34.4c.13.18.26.4.41.65s.14.26.21.41l0,.1c-2-.42-3.23-.65-3.23-.65s1.21.4,3.15,1l-.1.07a4.13,4.13,0,0,1-.38.25,4.79,4.79,0,0,1-.67.38,2.45,2.45,0,0,1-.48.19l-.19,0,.19,0a2.31,2.31,0,0,0,.52-.12,4,4,0,0,0,.72-.33l.4-.23.21-.14,0,0,2.39.69a13.08,13.08,0,0,1-1.85,1,6.31,6.31,0,0,1-.71.25l-.27.06h.28a3.86,3.86,0,0,0,.76-.12,7.46,7.46,0,0,0,2.3-1.07h0l2.4.65-.12.08-.5.33-.86.54a6.48,6.48,0,0,1-.84.42l.25,0a3.55,3.55,0,0,0,.67-.2,7.33,7.33,0,0,0,.95-.42l.54-.29.46-.28.71.18c.51.13.94.23,1.3.3l.27-.21a2.74,2.74,0,0,0-.14-.32c-.34-.11-.77-.23-1.28-.36l-.71-.18c-.1-.16-.19-.31-.27-.46s-.22-.36-.33-.52"/><path class="cls-27" d="M69.73,184.07c1.28,1.61,1.15,6.14-3.12,8.58,1.22-2.84,1.09-5.06-.35-5.06s-.66,1.77-1,3.41a4.09,4.09,0,0,1-1.89,2.93,15.46,15.46,0,0,1-6.08,0c2.55-1.08,5.28-4.42,3.66-5.2s-1.32,3.62-7,4.14a14.56,14.56,0,0,1-3.71-2s5-2.54,3.49-3.83-2.52,2.2-5.17,2.34c-1-1.3-4.4-4.69-4.4-4.69l4.14-4.86A7.73,7.73,0,0,1,52,181.56c1.28,1.34,2.15.34,1.66-.62a5.52,5.52,0,0,0-3.92-2.45A10.73,10.73,0,0,1,54,176c.74,0,4.08.77,5.34,3,.49.88,1,1,1.42.75s.41-1,0-1.88a7.3,7.3,0,0,0-3.85-2.95,13.91,13.91,0,0,1,6-.37c.75.25,2,1.9,2.32,3.88.06.86,0,2.19.87,2.25s1-.63.93-2.17a5,5,0,0,0-1-3,7.42,7.42,0,0,1,3.7,3.54,5.51,5.51,0,0,1,0,5"/><path class="cls-28" d="M73.66,184.27c0-.13,0-.49,0-.65l-6.09.14-9.41-9.14c-.27,0-.52.1-.77.17l.65.63a6.9,6.9,0,0,1,2.71,2.46c.05.11.1.21.14.31l5.76,5.59-3.55.08-7.93-7.7A5.45,5.45,0,0,0,54,176h0l8.14,7.91-3.67.09-7-6.81c-.19.12-.38.24-.56.37L57.58,184l-3.67.09-3.86-3.75a11.39,11.39,0,0,0-1.39-.44L53,184.1l-2.85.06-3-2.95-.42.5,2.55,2.48-4.76.11-.31.37.28.28,4.87-.11L47,187.63l.45.48,2.72-3.29,2.72-.06-3.73,4.51a4.27,4.27,0,0,0,1.54-.84l3.06-3.69,3.72-.09-5.89,7.11.57.33,6.18-7.46,3.72-.09-6.69,8.09a6.78,6.78,0,0,0,1.18-.41l6.38-7.7,3.58-.08-8,9.67.79.07,8.08-9.76Z"/><path class="cls-27" d="M60.63,192.42a11.08,11.08,0,0,0,6.77,3.78,19.74,19.74,0,0,0,5.94-.15,54.6,54.6,0,0,0-9.09,4.69A8.21,8.21,0,0,0,58.13,198c-4.31,0-8.58,3.77-8.52,3.78a10.34,10.34,0,0,0,6.94,2,17.7,17.7,0,0,0,5.19-1.36,54.66,54.66,0,0,0-7.18,6.23,7.09,7.09,0,0,0-5.49-1.06c-3.51.79-6.35,4.55-6.31,4.55a8.64,8.64,0,0,0,6.09.5,13.56,13.56,0,0,0,3.79-1.88,54.63,54.63,0,0,0-4.37,5.77,6.07,6.07,0,0,0-4.66,0c-2.79,1.17-4.63,4.66-4.6,4.66a7.25,7.25,0,0,0,5.16-.42,10.69,10.69,0,0,0,2.69-2c-.81,1.38-1.56,2.79-2.24,4.25a.57.57,0,0,0,0,.14,9.5,9.5,0,0,0-3.19,4.21,9.84,9.84,0,0,0,0,6.22,14.28,14.28,0,0,0,3.37-5,13,13,0,0,0,.64-5,.57.57,0,0,0,.08-.13c.67-1.42,1.41-2.81,2.2-4.16a7.3,7.3,0,0,0-.14,3.2,6.36,6.36,0,0,0,3,4,11.66,11.66,0,0,0,.69-5.41,7.63,7.63,0,0,0-2.18-4,52.71,52.71,0,0,1,4.29-5.67,8.46,8.46,0,0,0-.93,3.95,7.49,7.49,0,0,0,2.79,5.16,13.72,13.72,0,0,0,1.77-6,9.25,9.25,0,0,0-1.74-5.16,53.26,53.26,0,0,1,7-6.12A9.76,9.76,0,0,0,60,207.83a8.7,8.7,0,0,0,2,6.58,16.22,16.22,0,0,0,3.4-6.39,11.27,11.27,0,0,0-.68-6.46,53,53,0,0,1,8.93-4.6A10.49,10.49,0,0,0,70,201.24a9.22,9.22,0,0,0,.47,7.34,17.86,17.86,0,0,0,5.14-5.77,12.24,12.24,0,0,0,1-6.92c1.24-.42,2.51-.79,3.8-1.12a.57.57,0,0,0,.5-.62.57.57,0,0,0-.74-.32c-1.31.33-2.6.71-3.87,1.13a8.67,8.67,0,0,0-5.74-4.41c-4.56-1.07-10,1.84-10,1.87"/><path class="cls-27" d="M60.62,174.77a11.13,11.13,0,0,1,6.63-4,19.86,19.86,0,0,1,6-.06A53.62,53.62,0,0,1,64,166.32a8.21,8.21,0,0,1-6,2.94c-4.3.13-8.7-3.47-8.64-3.48a10.31,10.31,0,0,1,6.86-2.26,17.3,17.3,0,0,1,5.24,1.18,54.58,54.58,0,0,1-7.39-6A7.11,7.11,0,0,1,48.53,160c-3.53-.66-6.51-4.32-6.46-4.32a8.62,8.62,0,0,1,6.07-.72A13.74,13.74,0,0,1,52,156.68a54.82,54.82,0,0,1-4.57-5.61,6.06,6.06,0,0,1-4.66.17c-2.83-1.07-4.79-4.49-4.76-4.49a7.23,7.23,0,0,1,5.17.24,10.75,10.75,0,0,1,2.76,1.85c-.86-1.35-1.65-2.74-2.39-4.16l0-.15a9.44,9.44,0,0,1-3.33-4.09,9.86,9.86,0,0,1-.2-6.22,14.44,14.44,0,0,1,3.55,4.88,13.19,13.19,0,0,1,.81,5l.09.12q1.08,2.1,2.34,4.08a7.22,7.22,0,0,1-.25-3.19A6.36,6.36,0,0,1,49.38,141a11.68,11.68,0,0,1,.87,5.38,7.52,7.52,0,0,1-2,4.08A52.81,52.81,0,0,0,52.7,156a8.53,8.53,0,0,1-1.06-3.91,7.55,7.55,0,0,1,2.6-5.26,13.58,13.58,0,0,1,2,6A9.29,9.29,0,0,1,54.67,158a53.31,53.31,0,0,0,7.25,5.87,9.79,9.79,0,0,1-2.43-4.5,8.77,8.77,0,0,1,1.78-6.65A16.05,16.05,0,0,1,64.9,159a11.27,11.27,0,0,1-.45,6.48,53.14,53.14,0,0,0,9.08,4.29,10.42,10.42,0,0,1-3.83-4.15,9.18,9.18,0,0,1,.21-7.35,17.89,17.89,0,0,1,5.33,5.59,12.14,12.14,0,0,1,1.26,6.88c1.26.37,2.54.7,3.84,1a.5.5,0,1,1-.21.95c-1.32-.28-2.62-.61-3.91-1a8.67,8.67,0,0,1-5.58,4.61c-4.52,1.22-10.08-1.49-10-1.52"/><path class="cls-29" d="M45.77,238.84a3.95,3.95,0,1,1,3.95,3.95A3.95,3.95,0,0,1,45.77,238.84Z"/><path class="cls-29" d="M27.31,223.16a1.46,1.46,0,1,1,1.46,1.46A1.46,1.46,0,0,1,27.31,223.16Z"/><path class="cls-29" d="M60.17,229.52a2.19,2.19,0,1,1,2.19,2.19A2.19,2.19,0,0,1,60.17,229.52Z"/><path class="cls-29" d="M31.18,234.27a.52.52,0,1,1,.51.52A.51.51,0,0,1,31.18,234.27Z"/><line class="cls-30" x1="30.63" y1="190.82" x2="30.63" y2="188.31"/><line class="cls-30" x1="30.63" y1="185.87" x2="30.63" y2="183.36"/><line class="cls-30" x1="26.9" y1="187.09" x2="29.41" y2="187.09"/><line class="cls-30" x1="31.85" y1="187.09" x2="34.36" y2="187.09"/><line class="cls-30" x1="35.23" y1="215.06" x2="35.23" y2="212.55"/><line class="cls-30" x1="35.23" y1="210.11" x2="35.23" y2="207.6"/><line class="cls-30" x1="31.5" y1="211.33" x2="34.01" y2="211.33"/><line class="cls-30" x1="36.45" y1="211.33" x2="38.96" y2="211.33"/><path class="cls-29" d="M37.53,178.88a1.87,1.87,0,1,1,1.87,1.87A1.87,1.87,0,0,1,37.53,178.88Z"/><path class="cls-29" d="M28.33,164.92a3,3,0,1,1,3,3A3,3,0,0,1,28.33,164.92Z"/><polygon class="cls-31" points="156.11 344.64 118.21 366.52 80.32 344.64 80.32 300.88 96.74 291.41 118.21 279.01 156.11 300.88 156.11 344.64"/><path class="cls-32" d="M95.31,346.85a.35.35,0,0,1-.14,0,.39.39,0,0,1-.26-.35l-.2-2.5a.42.42,0,0,1,.11-.32l6.4-6.39a.4.4,0,1,1,.57.57l-6.26,6.26.11,1.45,7-7a.42.42,0,0,1,.57,0,.41.41,0,0,1,0,.58l-7.57,7.57A.4.4,0,0,1,95.31,346.85Z"/><path class="cls-32" d="M124.75,312.67a.42.42,0,0,1-.29-.12.4.4,0,0,1,0-.57l8.23-8.23a.41.41,0,0,1,.58,0,.42.42,0,0,1,0,.57L125,312.55A.38.38,0,0,1,124.75,312.67Z"/><path class="cls-32" d="M128.13,316.06a.41.41,0,0,1-.28-.69l8.23-8.23a.4.4,0,1,1,.57.57l-8.23,8.23A.4.4,0,0,1,128.13,316.06Z"/><path class="cls-32" d="M112.2,338.21a.31.31,0,0,1-.13,0L105,335.69a.41.41,0,0,1-.25-.25l-2.49-7.11a.41.41,0,0,1,.09-.42L120,310.23a.4.4,0,1,1,.57.57l-17.51,17.51,2.35,6.68,6.69,2.34,17.5-17.5a.4.4,0,0,1,.57.57l-17.68,17.69A.45.45,0,0,1,112.2,338.21Z"/><path class="cls-32" d="M111.39,336a.41.41,0,0,1-.16,0L106.64,334a.39.39,0,0,1-.21-.21l-2-4.59a.4.4,0,0,1,.09-.44l4.38-4.38a.4.4,0,1,1,.57.57l-4.19,4.19,1.78,4.18,4.18,1.78,4.19-4.19a.4.4,0,1,1,.57.57l-4.38,4.38A.39.39,0,0,1,111.39,336Z"/><path class="cls-32" d="M116.62,330.71a.38.38,0,0,1-.28-.12l-6.53-6.53a.4.4,0,0,1,0-.57l1.35-1.36a.43.43,0,0,1,.58,0l6.53,6.53a.43.43,0,0,1,0,.58l-1.36,1.35A.4.4,0,0,1,116.62,330.71Zm-6-6.93,6,6,.79-.78-6-6Z"/><path class="cls-32" d="M132.3,324.18a.41.41,0,0,1-.28-.69l.93-.94-15.1-15.1-.94.94a.42.42,0,0,1-.57,0,.41.41,0,0,1,0-.58l1.22-1.22a.4.4,0,0,1,.29-.12h0a.38.38,0,0,1,.28.12l15.68,15.68a.4.4,0,0,1,0,.57l-1.22,1.22A.4.4,0,0,1,132.3,324.18Z"/><path class="cls-32" d="M140.1,310.06a.4.4,0,0,1-.29-.12l-9.35-9.35a.4.4,0,0,1-.12-.29.38.38,0,0,1,.12-.28l1.22-1.22a.4.4,0,0,1,.57,0l9.35,9.35a.4.4,0,0,1,0,.57l-1.22,1.22A.38.38,0,0,1,140.1,310.06Zm-8.78-9.76,8.78,8.78.64-.65L132,299.65Z"/><path class="cls-32" d="M104.05,339.24a.4.4,0,0,1-.29-.12l-2.48-2.48a.45.45,0,0,1-.12-.29.4.4,0,0,1,.12-.28l2.87-2.87a.4.4,0,0,1,.57.57l-2.58,2.58,1.91,1.91,2.58-2.58a.4.4,0,0,1,.57.57l-2.87,2.87A.39.39,0,0,1,104.05,339.24Z"/><path class="cls-32" d="M116.41,327.78a.4.4,0,0,1-.29-.12l-3.38-3.38a.4.4,0,0,1-.12-.29.38.38,0,0,1,.12-.28l11-11a.38.38,0,0,1,.28-.12h0a.4.4,0,0,1,.29.12l3.38,3.38a.4.4,0,0,1,0,.57l-11,11A.39.39,0,0,1,116.41,327.78ZM113.59,324l2.82,2.82,10.4-10.4L124,313.6Z"/><polygon class="cls-33" points="18.95 355.58 0 344.64 0 300.88 37.9 279.01 59.47 291.46 75.79 300.88 75.79 344.64 59.47 354.06 37.9 366.52 18.95 355.58"/><path class="cls-32" d="M28.53,347.82a2.15,2.15,0,1,1,2.14-2.14A2.14,2.14,0,0,1,28.53,347.82Zm0-3.63A1.49,1.49,0,1,0,30,345.68,1.49,1.49,0,0,0,28.53,344.19Zm0,2.87a1.38,1.38,0,1,1,1.38-1.38A1.38,1.38,0,0,1,28.53,347.06Zm0-2.1a.72.72,0,1,0,.71.72A.72.72,0,0,0,28.53,345Z"/><path class="cls-32" d="M59.23,351.61H16.56a.33.33,0,0,1-.33-.33v-8.11c0-6.08,4.79-10.88,11.15-11.15a.33.33,0,0,1,.27.12.33.33,0,0,1,.06.29A23,23,0,0,0,27.4,343a.34.34,0,0,1-.17.36,2.7,2.7,0,1,0,1.3-.34h-.26a.34.34,0,0,1-.35-.26,23.17,23.17,0,0,1,.41-10.5.35.35,0,0,1,.32-.24h2.59V329.8H24.63a.33.33,0,0,1-.31-.22.33.33,0,0,1,.1-.37c1.95-1.59,1.87-5.59,1.55-7.47-1.51-8.95.49-13.21,1.92-15l-3.16-7.55a.31.31,0,0,1,.06-.34l.54-.61c.16-.18,4-4.31,12.7-4.31s12.54,4.13,12.7,4.31l.54.61a.31.31,0,0,1,.06.34L48.08,307c1.33,1.83,3.2,6.1,1.74,14.78-.32,1.88-.4,5.88,1.55,7.47a.33.33,0,0,1,.1.37.33.33,0,0,1-.31.22H44.55V332h3.71a.33.33,0,0,1,.33.33v3.4a.33.33,0,0,1-.33.33H48.1a4.65,4.65,0,0,0-4.64,4.56h.75a3.27,3.27,0,0,1,.08-.7,3.62,3.62,0,0,1,.22-.73,3.78,3.78,0,0,1,.84-1.24,3.72,3.72,0,0,1,.57-.48,4.32,4.32,0,0,1,.67-.36,3.91,3.91,0,0,1,1.51-.3h1.6a3.92,3.92,0,0,1,1.52.3,4.22,4.22,0,0,1,.66.36,3.79,3.79,0,0,1,.58.48,4,4,0,0,1,.83,1.24,3.45,3.45,0,0,1,.23.73,4.17,4.17,0,0,1,.08.7h.74a4.64,4.64,0,0,0-4.64-4.56h-.15a.33.33,0,0,1-.33-.33v-3.29a.33.33,0,0,1,.11-.25.35.35,0,0,1,.26-.08,11.09,11.09,0,0,1,10,11.05v8.11A.33.33,0,0,1,59.23,351.61ZM16.89,351h42v-7.78a10.41,10.41,0,0,0-9-10.34v2.58a5.32,5.32,0,0,1,5.13,5.3V341a.34.34,0,0,1-.34.34h-1.4a.34.34,0,0,1-.34-.34v-.25a3.49,3.49,0,0,0-.06-.65,3.31,3.31,0,0,0-.19-.61,3.23,3.23,0,0,0-.69-1,3.64,3.64,0,0,0-.48-.4,2.94,2.94,0,0,0-.55-.3,3.18,3.18,0,0,0-1.26-.25H48.1a3.14,3.14,0,0,0-1.25.25,2.65,2.65,0,0,0-.55.3,2.68,2.68,0,0,0-.48.4,3,3,0,0,0-.88,1.63,2.81,2.81,0,0,0-.07.65V341a.34.34,0,0,1-.33.34H43.13a.34.34,0,0,1-.33-.34v-.25a5.31,5.31,0,0,1,5.12-5.3v-2.76h-3.7a.34.34,0,0,1-.24-.09.37.37,0,0,1-.1-.24v-2.85a.33.33,0,0,1,.33-.33h6.15c-2-2.5-1.24-7.29-1.2-7.51,1.46-8.68-.46-12.76-1.74-14.42a.35.35,0,0,1,0-.33l3.25-7.77-.41-.45c-.15-.17-3.75-4.09-12.2-4.09s-12,3.92-12.2,4.09l-.41.45,3.16,7.54a.35.35,0,0,1-.06.34c-1.35,1.62-3.41,5.68-1.89,14.64,0,.22.81,5-1.21,7.51h6.15a.33.33,0,0,1,.33.33v2.85a.33.33,0,0,1-.33.33H28.91a22.47,22.47,0,0,0-.4,9.65,3.43,3.43,0,1,1-1.81.56A23.92,23.92,0,0,1,27,332.71a10.56,10.56,0,0,0-10.06,10.46Zm33.62-.71a1.53,1.53,0,0,1-.88-.27,1.11,1.11,0,0,1-.47-.73,1.1,1.1,0,0,1,.2-.83,1.67,1.67,0,0,1,1.86-.54,3.45,3.45,0,0,0,1.92-3.08v-3.1a.33.33,0,0,1,.33-.33h1a.33.33,0,0,1,.33.33v3.1A5.1,5.1,0,0,1,52,349.35a1.49,1.49,0,0,1-1.16.86A1.33,1.33,0,0,1,50.51,350.24Zm.16-1.8H50.5a1,1,0,0,0-.6.34.51.51,0,0,0-.09.34.49.49,0,0,0,.2.3.93.93,0,0,0,.67.13.81.81,0,0,0,.68-.53.33.33,0,0,1,.18-.22,4.43,4.43,0,0,0,2.59-4V342H53.8v2.77a4.1,4.1,0,0,1-2.44,3.74.34.34,0,0,1-.28,0A.91.91,0,0,0,50.67,348.44Zm-3.37,1.8a1.43,1.43,0,0,1-.29,0,1.51,1.51,0,0,1-1.16-.86A5.11,5.11,0,0,1,43,344.79v-3.1a.33.33,0,0,1,.33-.33h1a.33.33,0,0,1,.33.33v3.1a3.45,3.45,0,0,0,1.92,3.08,1.59,1.59,0,0,1,.84-.07,1.57,1.57,0,0,1,1,.61,1.1,1.1,0,0,1-.26,1.56A1.58,1.58,0,0,1,47.3,350.24ZM43.67,342v2.77a4.44,4.44,0,0,0,2.59,4,.38.38,0,0,1,.19.22.79.79,0,0,0,.67.53.93.93,0,0,0,.67-.13.45.45,0,0,0,.2-.3h0a.51.51,0,0,0-.09-.34,1,1,0,0,0-1.17-.26.37.37,0,0,1-.29,0A4.11,4.11,0,0,1,44,344.79V342Zm-5.78-4.13a5.42,5.42,0,0,1-5.36-5.57v-2.66a.32.32,0,0,1,.16-.28.33.33,0,0,1,.32,0,10.6,10.6,0,0,0,9.76,0,.35.35,0,0,1,.33,0,.32.32,0,0,1,.16.28v2.66A5.41,5.41,0,0,1,37.89,337.89Zm-4.69-7.71v2.14a4.7,4.7,0,1,0,9.39,0h0v-2.14a11.22,11.22,0,0,1-9.39,0Zm4.69-.26a9.52,9.52,0,0,1-1.44-.12c-2.64-.4-4.92-1.84-5.61-3a13,13,0,0,1-.82-4.13l0-.3-.3,0-.11,0c-1,0-1.86-1.34-2.15-3.34a3.27,3.27,0,0,1,.47-2.57,1.24,1.24,0,0,1,1-.41.33.33,0,0,1,.34.23,10.23,10.23,0,0,0,.43,1.24c.2-1.11.53-2.86.68-3.62s.3-1.57.46-2.56c.08-.51.16-1,.23-1.57a.32.32,0,0,1,.51-.23,16.93,16.93,0,0,0,6.34,2.12,46,46,0,0,0,6.44.54h.62a.33.33,0,0,1,.32.27c.09.5.18,1,.25,1.33l0,.09c.15.76.47,2.51.68,3.62a10.23,10.23,0,0,0,.43-1.24.32.32,0,0,1,.34-.23,1.21,1.21,0,0,1,1,.41,3.27,3.27,0,0,1,.47,2.57c-.29,2-1.12,3.34-2.08,3.35l-.49-.05,0,.3A12.77,12.77,0,0,1,45,326.8c-.69,1.16-3,2.6-5.61,3A9.64,9.64,0,0,1,37.89,329.92Zm-7.6-8.23a.32.32,0,0,1,.33.3l.06.62a11.85,11.85,0,0,0,.73,3.86h0a7.93,7.93,0,0,0,5.14,2.67,7.6,7.6,0,0,0,2.69,0,8,8,0,0,0,5.14-2.67,11.72,11.72,0,0,0,.72-3.86l.06-.63a.33.33,0,0,1,.36-.29l.79.06c.46,0,1.14-1.06,1.39-2.77a2.77,2.77,0,0,0-.31-2.05.49.49,0,0,0-.23-.14,10.44,10.44,0,0,1-.84,2,.36.36,0,0,1-.35.15.33.33,0,0,1-.26-.27s-.65-3.45-.87-4.6l0-.09c-.06-.31-.13-.68-.2-1.07h-.35a45.88,45.88,0,0,1-6.54-.55,19.3,19.3,0,0,1-6.15-2c0,.37-.11.73-.16,1.09-.16,1-.34,1.92-.47,2.58-.22,1.15-.87,4.6-.87,4.6a.33.33,0,0,1-.26.27.36.36,0,0,1-.35-.15,10.44,10.44,0,0,1-.84-2,.49.49,0,0,0-.23.14,2.76,2.76,0,0,0-.31,2c.25,1.75.92,2.72,1.45,2.77h.1l.63,0Zm-.53.67-.06,0Zm16.63-15.25-.11,0a31.44,31.44,0,0,0-8.22-1.18,31.49,31.49,0,0,0-8.27,1.18.33.33,0,0,1-.42-.19l-3.13-7.47a.32.32,0,0,1,.06-.35c.14-.16,3.56-3.87,11.73-3.87s11.59,3.71,11.73,3.87a.32.32,0,0,1,.06.35L46.7,306.9A.35.35,0,0,1,46.39,307.11Zm-19.45-7.73,2.92,7A33.45,33.45,0,0,1,38,305.25h.07a33.45,33.45,0,0,1,8.13,1.11l2.93-7c-.73-.68-4.15-3.51-11.1-3.51S27.66,298.7,26.94,299.38Z"/><path class="cls-32" d="M39.2,303.74H37.13a.33.33,0,0,1-.33-.33v-1.89h-2a.33.33,0,0,1-.33-.33v-2.08a.33.33,0,0,1,.33-.33h2v-1.9a.33.33,0,0,1,.33-.33H39.2a.33.33,0,0,1,.33.33v1.9h1.76a.33.33,0,0,1,.33.33v2.08a.33.33,0,0,1-.33.33H39.53v1.89A.33.33,0,0,1,39.2,303.74Zm-1.74-.66h1.41v-1.89a.34.34,0,0,1,.33-.34H41v-1.41H39.2a.33.33,0,0,1-.33-.33v-1.89H37.46v1.89a.33.33,0,0,1-.33.33h-2v1.41h2a.34.34,0,0,1,.33.34Z"/><polygon class="cls-34" points="156.11 205.27 118.21 227.15 80.32 205.27 80.32 161.51 89.82 156.03 118.21 139.64 144.48 154.8 156.11 161.51 156.11 205.27"/><path class="cls-35" d="M141.89,175.46h0c-.37-7-6.11-12.19-13.34-12.19l-.65,0c-4.52.18-7.92,3.12-9.63,5-1.68-1.86-5-4.85-9.55-5.1l-.88,0a13,13,0,0,0-13.29,12c-.43,6.44,4,12,7.3,15.71a76.28,76.28,0,0,0,15.44,12.41l.72.43.73-.42a76,76,0,0,0,15.62-12.19C137.76,187.46,142.23,181.91,141.89,175.46Zm-9.64,13.61A73.68,73.68,0,0,1,118,200.3,73.65,73.65,0,0,1,104,188.87c-.83-.91-1.74-2-2.6-3.11h9.14a.47.47,0,0,0,.38-.18l.51-.66.62,2.86a.45.45,0,0,0,.45.33.44.44,0,0,0,.45-.32l.6-2.66.73,3.92a.46.46,0,0,0,.45.34.45.45,0,0,0,.45-.33l2.27-11,1.87,16.23a.44.44,0,0,0,.45.37.46.46,0,0,0,.46-.35l1.61-9.67.66,4.13a.43.43,0,0,0,.43.35.45.45,0,0,0,.46-.29l1.13-3.56.44,2a.45.45,0,0,0,.42.33.48.48,0,0,0,.46-.27l.59-1.48.52.72a.5.5,0,0,0,.37.19.49.49,0,0,0,.38-.15l.78-.89h6.62A43.55,43.55,0,0,1,132.25,189.07Zm3.44-4.13h-7.44a.47.47,0,0,0-.36.16l-.52.59-.68-.95a.47.47,0,0,0-.43-.19.47.47,0,0,0-.39.27l-.34.87-.49-2.23a.44.44,0,0,0-.43-.33h0a.46.46,0,0,0-.44.3l-1.06,3.35-.79-5a.46.46,0,0,0-.46-.35.43.43,0,0,0-.45.35L119.85,191,118,175.17a.43.43,0,0,0-.44-.36.43.43,0,0,0-.46.33l-2.38,11.48-.71-3.81a.45.45,0,0,0-.45-.34.44.44,0,0,0-.45.33l-.63,2.8-.4-1.81a.43.43,0,0,0-.37-.32.51.51,0,0,0-.46.17l-1,1.3h-9.5c-2-2.8-3.58-6.13-3.34-9.62A10,10,0,0,1,107.84,166c.24,0,.47,0,.72,0,5,.27,8.46,5.26,8.49,5.31l1.18,1.76,1.22-1.74s3.52-5,8.57-5.19a10.17,10.17,0,0,1,11,9.43h0C139.17,179,137.62,182.22,135.69,184.94Z"/><polygon class="cls-36" points="115.92 414.66 78.02 436.54 40.13 414.66 40.13 370.9 49.63 365.42 78.02 349.03 104.29 364.19 115.92 370.9 115.92 414.66"/><polygon class="cls-37" points="139.09 286.52 120.15 275.58 120.15 231.83 139.09 220.89 158.04 209.95 195.94 231.83 195.94 275.58 176.99 286.52 158.04 297.46 139.09 286.52"/><path class="cls-38" d="M158,230.79s-14.2,23.78-14.2,31.63a14.2,14.2,0,0,0,28.4,0C172.24,254.57,158,230.79,158,230.79Zm0,42.85a11.23,11.23,0,0,1-11.22-11.22c0-4.35,6.11-16.62,11.22-25.68,5.11,9.06,11.22,21.33,11.22,25.68A11.23,11.23,0,0,1,158,273.64Z"/><path class="cls-38" d="M156.56,269.18a8.66,8.66,0,0,1-4.54-7.62,1.09,1.09,0,1,0-2.17,0,10.85,10.85,0,0,0,5.68,9.53,1.06,1.06,0,0,0,.52.13,1.09,1.09,0,0,0,.51-2Z"/><polygon class="cls-39" points="121.18 368.76 159.07 346.88 196.97 368.76 196.97 412.52 185.34 419.23 159.07 434.4 130.68 418.01 121.18 412.52 121.18 368.76"/><path class="cls-35" d="M143.39,399.59c-.27,1-.52,2-.76,3.09,1-.28,2.05-.53,3.09-.75.27-1,.56-2,.88-3C145.53,399.16,144.45,399.36,143.39,399.59ZM169.61,387,167,384.39c-.92.17-1.84.35-2.75.55l4.2,4.19a17.66,17.66,0,0,1-2.23,2.81L160.25,386a24.64,24.64,0,0,0-2.4.9l6.6,6.59a14.37,14.37,0,0,1-1.53,1c-.54.31-1.11.58-1.68.84l-6.66-6.66A13.74,13.74,0,0,0,153,390l-.15.17,6.05,6.05q-1.92.64-3.93,1.11l-4.32-4.32a24,24,0,0,0-1.18,2.13l2.78,2.77c-1.4.27-2.81.52-4.23.77-.32.94-.63,1.92-.91,2.93,6.3-1.24,12.87-1.88,18.17-4.83,4.74-2.64,7.36-7.8,9.13-13.79l-3.32.63A33,33,0,0,1,169.61,387Zm-34.46,15.21,2.33,2.33c.34-.16.7-.31,1.05-.46l2.1,2.1c.18-.92.36-1.83.56-2.73l-.28-.28.37-.11c.23-1.08.48-2.14.75-3.17A34,34,0,0,0,135.15,402.23Zm36.37-19.91c1.09-.2,2.17-.4,3.24-.63.27-1,.52-2,.75-3.08-1,.28-2,.53-3.09.75C172.15,380.37,171.84,381.35,171.52,382.32Zm1.24-4.3c1-.23,2.06-.49,3.06-.79a2.21,2.21,0,0,0,.05-.25l.19.18c.83-.25,1.66-.53,2.45-.84l-2.08-2.09c.09-.49.19-1,.28-1.46l-2.33-2.33C173.9,373,173.38,375.55,172.76,378Z"/><path class="cls-35" d="M149.77,386.84c-4.9,4.9-6.76,13.34-8.33,21.68l2.33,2.33c1.57-8.34,3.43-16.78,8.33-21.68a14,14,0,0,1,3.12-2.38c8.13-4.51,19.25-3.62,27.78-7.74l-2.33-2.33c-8.53,4.12-19.65,3.23-27.77,7.74A14.07,14.07,0,0,0,149.77,386.84Z"/><polygon class="cls-40" points="116.23 136.32 78.33 158.19 40.44 136.32 40.44 92.56 56.85 83.08 78.33 70.68 116.23 92.56 116.23 136.32"/><path class="cls-31" d="M87.9,135.46A4.94,4.94,0,0,1,84.38,134L58.76,108.39a5,5,0,0,1,0-7l6.49-6.48a5,5,0,0,1,7,0L97.9,120.48a5,5,0,0,1,0,7L91.42,134A4.94,4.94,0,0,1,87.9,135.46ZM68.77,94.16a4.2,4.2,0,0,0-3,1.24l-6.48,6.48a4.23,4.23,0,0,0,0,6l25.61,25.61a4.21,4.21,0,0,0,6,0L97.37,127a4.25,4.25,0,0,0,0-6L71.75,95.4A4.16,4.16,0,0,0,68.77,94.16Z"/><path class="cls-31" d="M70.52,118.07a.38.38,0,0,1-.26-.11,5,5,0,0,1,0-7l4.55-4.56a5,5,0,0,1,3.52-1.46h0a5,5,0,0,1,3.52,1.46.37.37,0,0,1-.53.53,4.23,4.23,0,0,0-3-1.23h0a4.19,4.19,0,0,0-3,1.23l-4.56,4.56a4.21,4.21,0,0,0,0,6,.38.38,0,0,1,0,.54A.39.39,0,0,1,70.52,118.07Z"/><path class="cls-31" d="M78.33,124a5,5,0,0,1-3.52-1.46.37.37,0,0,1,0-.53.38.38,0,0,1,.54,0,4.21,4.21,0,0,0,6,0l4.55-4.56a4.21,4.21,0,0,0,0-6,.39.39,0,0,1,0-.53.38.38,0,0,1,.54,0,5,5,0,0,1,0,7l-4.56,4.55A5,5,0,0,1,78.33,124Z"/><path class="cls-31" d="M79.39,108.51a.91.91,0,0,1-.65-1.55A.93.93,0,0,1,80,107a.91.91,0,0,1,.27.65.92.92,0,0,1-.91.91Zm0-1.07a.17.17,0,0,0-.11,0,.16.16,0,0,0,0,.22.13.13,0,0,0,.22,0,.18.18,0,0,0,0-.22A.17.17,0,0,0,79.39,107.44Z"/><path class="cls-31" d="M82.42,111.54a.91.91,0,0,1-.65-1.55.92.92,0,0,1,1.29,0,.91.91,0,0,1,0,1.29A.9.9,0,0,1,82.42,111.54Zm0-1.07a.17.17,0,0,0-.11,0,.16.16,0,0,0,0,.22c.07.07.13.09.22,0a.18.18,0,0,0,0-.22A.17.17,0,0,0,82.42,110.47Z"/><path class="cls-31" d="M85.45,114.57a.91.91,0,0,1-.64-1.55.92.92,0,0,1,1.29,0,.93.93,0,0,1,0,1.29A.94.94,0,0,1,85.45,114.57Zm0-1.06a.15.15,0,0,0-.11,0,.17.17,0,0,0,0,.23.14.14,0,0,0,.22,0,.17.17,0,0,0,0-.22A.14.14,0,0,0,85.45,113.51Z"/><path class="cls-31" d="M75.45,112.11a.91.91,0,1,1,.64-1.56.91.91,0,0,1,0,1.29A.87.87,0,0,1,75.45,112.11Zm0-1.07a.15.15,0,0,0-.11,0,.16.16,0,0,0,0,.22.13.13,0,0,0,.22,0,.16.16,0,0,0,0-.22A.17.17,0,0,0,75.45,111Z"/><path class="cls-31" d="M78.48,115.14a.9.9,0,0,1-.91-.91.85.85,0,0,1,.27-.64.91.91,0,0,1,1.28,0,.85.85,0,0,1,.27.64.9.9,0,0,1-.91.91Zm0-1.07a.17.17,0,0,0-.11.05.15.15,0,0,0-.05.11.17.17,0,0,0,.05.11.13.13,0,0,0,.22,0,.16.16,0,0,0-.11-.27Z"/><path class="cls-31" d="M81.51,118.17a.87.87,0,0,1-.64-.27.89.89,0,0,1,0-1.28.92.92,0,0,1,1.29,0,.91.91,0,0,1-.65,1.55Zm0-1.07a.17.17,0,0,0-.11.05.16.16,0,0,0,0,.22.13.13,0,0,0,.22,0,.16.16,0,0,0,0-.22A.15.15,0,0,0,81.51,117.1Z"/><path class="cls-31" d="M71.85,116.05a.92.92,0,0,1-.91-.91.89.89,0,0,1,.27-.65.94.94,0,0,1,1.29,0,.92.92,0,0,1,.26.65.92.92,0,0,1-.91.91Zm0-1.07a.17.17,0,0,0-.11,0,.15.15,0,0,0,0,.11.17.17,0,0,0,0,.11.13.13,0,0,0,.22,0,.15.15,0,0,0,0-.22A.15.15,0,0,0,71.85,115Z"/><path class="cls-31" d="M74.88,119.08a.9.9,0,0,1-.64-.26.92.92,0,0,1,0-1.3.94.94,0,0,1,1.29,0,.92.92,0,0,1,0,1.29A.89.89,0,0,1,74.88,119.08Zm0-1.07a.17.17,0,0,0-.11,0,.16.16,0,0,0,0,.22.13.13,0,0,0,.22,0,.16.16,0,0,0,0-.22A.15.15,0,0,0,74.88,118Z"/><path class="cls-31" d="M77.91,122.11a.91.91,0,0,1-.64-1.55.93.93,0,0,1,1.29,0,.92.92,0,0,1,0,1.29A.88.88,0,0,1,77.91,122.11Zm0-1.07a.17.17,0,0,0-.11,0,.16.16,0,0,0,0,.22.13.13,0,0,0,.22,0,.14.14,0,0,0,0-.22A.14.14,0,0,0,77.91,121Z"/><path class="cls-31" d="M75.88,108.77a.89.89,0,0,1-.65-.27.91.91,0,0,1,.65-1.55h0a.91.91,0,0,1,.64,1.55A.87.87,0,0,1,75.88,108.77Zm0-1.07a.15.15,0,0,0-.11,0,.16.16,0,0,0,0,.22.13.13,0,0,0,.22,0,.16.16,0,0,0,0-.22A.17.17,0,0,0,75.88,107.7Z"/><path class="cls-31" d="M78.91,111.8a.91.91,0,1,1,.64-1.56.91.91,0,0,1,0,1.29A.87.87,0,0,1,78.91,111.8Zm0-1.07a.15.15,0,0,0-.11,0,.16.16,0,0,0,0,.22.13.13,0,0,0,.22,0,.16.16,0,0,0,0-.22A.15.15,0,0,0,78.91,110.73Z"/><path class="cls-31" d="M81.94,114.83a.91.91,0,0,1-.65-1.55.92.92,0,0,1,1.29,0,.87.87,0,0,1,.27.64.9.9,0,0,1-.91.91Zm0-1.07a.17.17,0,0,0-.16.16.15.15,0,0,0,0,.11.13.13,0,0,0,.22,0,.15.15,0,0,0,0-.11.17.17,0,0,0-.16-.16Z"/><path class="cls-31" d="M85,117.86a.91.91,0,0,1-.64-1.55.91.91,0,0,1,1.29,1.29A.94.94,0,0,1,85,117.86Zm0-1.07a.17.17,0,0,0-.11,0,.16.16,0,0,0,0,.22.13.13,0,0,0,.22,0,.16.16,0,0,0,0-.22A.15.15,0,0,0,85,116.79Z"/><path class="cls-31" d="M72.05,112.48a1,1,0,0,1-.65-.27.9.9,0,0,1-.26-.64.91.91,0,0,1,1.55-.65.92.92,0,0,1-.64,1.56Zm0-1.07a.14.14,0,0,0-.11,0,.19.19,0,0,0,0,.12.17.17,0,0,0,0,.11.13.13,0,0,0,.22,0,.15.15,0,0,0,0-.11.19.19,0,0,0,0-.12A.15.15,0,0,0,72.05,111.41Z"/><path class="cls-31" d="M75.08,115.51a.91.91,0,0,1-.65-.27.92.92,0,0,1,0-1.29.94.94,0,0,1,1.29,0,.91.91,0,0,1,0,1.29A.87.87,0,0,1,75.08,115.51Zm0-1.07a.17.17,0,0,0-.11,0,.16.16,0,0,0,0,.22.13.13,0,0,0,.22,0,.16.16,0,0,0,0-.22A.17.17,0,0,0,75.08,114.44Z"/><path class="cls-31" d="M78.11,118.54a.87.87,0,0,1-.64-.27.89.89,0,0,1-.27-.64.91.91,0,0,1,.27-.65.91.91,0,0,1,1.55.65.9.9,0,0,1-.91.91Zm0-1.07a.16.16,0,0,0-.11.27.13.13,0,0,0,.22,0,.17.17,0,0,0,0-.22A.15.15,0,0,0,78.11,117.47Z"/><path class="cls-31" d="M81.14,121.57a.87.87,0,0,1-.64-.27.89.89,0,0,1-.27-.64.91.91,0,0,1,.27-.64.92.92,0,0,1,1.29,0,.9.9,0,0,1,.26.64.9.9,0,0,1-.91.91Zm0-1.07a.16.16,0,0,0-.11.27c.08.09.14.08.22,0a.15.15,0,0,0,0-.22A.15.15,0,0,0,81.14,120.5Z"/><path class="cls-31" d="M68.77,135.46A5,5,0,0,1,65.25,134l-6.49-6.49a5,5,0,0,1,0-7l5.74-5.73a.37.37,0,0,1,.53.53L59.3,121a4.23,4.23,0,0,0,0,6l6.48,6.48a4.22,4.22,0,0,0,6,0l5.74-5.73a.37.37,0,1,1,.53.53L72.29,134A5,5,0,0,1,68.77,135.46Z"/><path class="cls-31" d="M91.9,114.24a.4.4,0,0,1-.27-.11.4.4,0,0,1,0-.54l5.74-5.73a4.25,4.25,0,0,0,0-6L90.88,95.4a4.24,4.24,0,0,0-6,0l-5.73,5.74a.4.4,0,0,1-.54,0,.38.38,0,0,1,0-.54l5.74-5.73a5,5,0,0,1,7,0l6.48,6.48a5,5,0,0,1,0,7l-5.73,5.74A.4.4,0,0,1,91.9,114.24Z"/><polygon class="cls-41" points="121.13 92.56 159.03 70.68 196.92 92.56 196.92 136.32 185.3 143.03 159.03 158.19 130.64 141.8 121.13 136.32 121.13 92.56"/><path class="cls-35" d="M181.1,94.21s-1.6,1.54-6.51,1.54a30.63,30.63,0,0,1-3.78-.26C162.55,94.42,159,90.76,159,90.76s-3.53,3.66-11.79,4.73a30.51,30.51,0,0,1-3.78.26c-4.91,0-6.51-1.54-6.51-1.54s-4.77,28.33,22.08,43.9C185.87,122.54,181.1,94.21,181.1,94.21ZM159,135.11c-9.7-6-15.94-14.48-18.56-25.19a44.86,44.86,0,0,1-1.24-12,19.55,19.55,0,0,0,4.23.41,31.78,31.78,0,0,0,4.11-.28A26.46,26.46,0,0,0,159,94a26.36,26.36,0,0,0,11.45,4,31.89,31.89,0,0,0,4.11.28,19.55,19.55,0,0,0,4.23-.41C179.06,105.31,177.57,123.58,159,135.11Z"/><polygon class="cls-35" points="162.14 104.01 156.01 104.01 156.01 110.17 149.86 110.17 149.86 116.29 156.01 116.29 156.01 122.45 162.14 122.45 162.14 116.29 168.29 116.29 168.29 110.17 162.14 110.17 162.14 104.01"/><polygon class="cls-33" points="177.97 216.21 159.03 205.27 159.03 161.51 196.92 139.64 218.5 152.09 234.82 161.51 234.82 205.27 218.5 214.69 196.92 227.15 177.97 216.21"/><path class="cls-32" d="M196.45,164.71a.41.41,0,0,1-.41-.41,1.51,1.51,0,0,0-3,0,.41.41,0,1,1-.81,0,2.32,2.32,0,0,1,4.63,0A.4.4,0,0,1,196.45,164.71Z"/><path class="cls-32" d="M197.34,165.61a.4.4,0,0,1-.41-.4v-.5h-4.79v.5a.41.41,0,0,1-.81,0v-.91a.4.4,0,0,1,.4-.4h5.61a.4.4,0,0,1,.4.4v.91A.4.4,0,0,1,197.34,165.61Z"/><path class="cls-32" d="M177.86,204.8a7.32,7.32,0,1,1,7.32-7.31A7.32,7.32,0,0,1,177.86,204.8Zm0-13.82a6.51,6.51,0,1,0,6.51,6.51A6.51,6.51,0,0,0,177.86,191Z"/><path class="cls-32" d="M177.86,201.25a3.77,3.77,0,1,1,3.77-3.76.41.41,0,0,1-.81,0,3,3,0,1,0-3,2.95.41.41,0,1,1,0,.81Z"/><path class="cls-32" d="M214.3,204.8a7.32,7.32,0,1,1,7.31-7.31A7.33,7.33,0,0,1,214.3,204.8Zm0-13.82a6.51,6.51,0,1,0,6.5,6.51A6.52,6.52,0,0,0,214.3,191Z"/><path class="cls-32" d="M214.3,201.25a3.77,3.77,0,1,1,3.76-3.76.41.41,0,0,1-.81,0,3,3,0,1,0-2.95,2.95.41.41,0,0,1,0,.81Z"/><path class="cls-32" d="M182.93,183.05a.42.42,0,0,1-.32-.16l-2.6-3.35a.39.39,0,0,1,0-.47l7.14-10.58a.4.4,0,0,1,.33-.18h8.21a.4.4,0,0,1,.4.4v13.93a.4.4,0,1,1-.8,0V169.12h-7.59l-6.85,10.16,2.42,3.11a.41.41,0,0,1-.32.66Z"/><path class="cls-32" d="M219.87,183.05a.41.41,0,0,1-.41-.41V169.12H198.08v13.52a.41.41,0,1,1-.81,0V168.71a.4.4,0,0,1,.4-.4h22.2a.4.4,0,0,1,.4.4v13.93A.41.41,0,0,1,219.87,183.05Z"/><path class="cls-32" d="M169,197.12h-3.31a.4.4,0,0,1-.4-.41v-6.13a.4.4,0,0,1,.4-.41H169a.41.41,0,0,1,0,.81h-2.9v5.33H169a.41.41,0,0,1,0,.81Z"/><path class="cls-32" d="M228.18,197.12H223.1a.41.41,0,0,1,0-.81h4.68V191H223.1a.41.41,0,0,1,0-.81h5.08a.41.41,0,0,1,.41.41v6.13A.41.41,0,0,1,228.18,197.12Z"/><path class="cls-32" d="M223.1,197.12h-.24a.41.41,0,0,1,0-.81h.24a.41.41,0,1,1,0,.81Z"/><path class="cls-32" d="M205.73,197.12h-19.3a.41.41,0,1,1,0-.81h19.3a.41.41,0,1,1,0,.81Z"/><path class="cls-32" d="M169.3,197.12H169a.41.41,0,1,1,0-.81h.33a.41.41,0,0,1,0,.81Z"/><path class="cls-32" d="M169.78,191H168.1a.41.41,0,0,1-.41-.4v-4.77a6.64,6.64,0,0,1,4.62-6.05l5.39-1.46,6.51-10c1.69-2.88,5.37-3.42,7.41-3.48a.43.43,0,0,1,.42.39.4.4,0,0,1-.39.42c-1.88.06-5.25.53-6.75,3.1l-6.61,10.15a.44.44,0,0,1-.23.17l-5.53,1.51a5.76,5.76,0,0,0-4,5.26v4.36h1.28a.41.41,0,0,1,0,.81Z"/><path class="cls-32" d="M225.75,191H223.1a.41.41,0,0,1,0-.81h2.25v-16c0-4.88-3.49-8.56-8.11-8.56h-19.9a.4.4,0,0,1-.41-.4.41.41,0,0,1,.41-.41h19.9c5.09,0,8.92,4,8.92,9.37v16.41A.4.4,0,0,1,225.75,191Z"/><path class="cls-32" d="M211,181.37h-4.11a.4.4,0,0,1-.4-.41v-3h-3a.41.41,0,0,1-.4-.41v-4.1a.4.4,0,0,1,.4-.41h3v-3a.4.4,0,0,1,.4-.41H211a.4.4,0,0,1,.4.41v3h3a.4.4,0,0,1,.4.41v4.1a.41.41,0,0,1-.4.41h-3v3A.4.4,0,0,1,211,181.37Zm-3.7-.81h3.29v-3a.4.4,0,0,1,.41-.4h3v-3.3h-3a.4.4,0,0,1-.41-.4v-3H207.3v3a.4.4,0,0,1-.41.4h-3v3.3h3a.4.4,0,0,1,.41.4Z"/><path class="cls-32" d="M224.13,184.34H170.88a.41.41,0,0,1,0-.81h53.25a.41.41,0,1,1,0,.81Z"/><path class="cls-32" d="M224.13,186.82H170.07a.4.4,0,0,1-.4-.4.41.41,0,0,1,.4-.41h54.06a.41.41,0,0,1,.41.41A.4.4,0,0,1,224.13,186.82Z"/><polygon class="cls-42" points="156.11 67.37 118.21 89.25 80.32 67.37 80.32 23.61 89.82 18.12 118.21 1.73 144.48 16.9 156.11 23.61 156.11 67.37"/><path class="cls-43" d="M126,36.26a10.44,10.44,0,0,0-10.41,9.81h20.81A10.43,10.43,0,0,0,126,36.26Z"/><path class="cls-43" d="M115.56,47.24a10.42,10.42,0,0,0,20.82,0Z"/><path class="cls-43" d="M106.75,28.68a6.71,6.71,0,0,0-6.7,6.69V55.61a6.69,6.69,0,1,0,13.38,0V35.37A6.71,6.71,0,0,0,106.75,28.68ZM112,45.85H101.49V35.59a5.26,5.26,0,0,1,10.52,0Z"/><polygon class="cls-44" points="116.68 275.58 78.79 297.46 40.9 275.58 40.9 231.83 78.79 209.95 100.27 222.35 116.68 231.83 116.68 275.58"/><path class="cls-35" d="M100,252.13a4.89,4.89,0,1,0-6,4.76v8.22a10.79,10.79,0,1,1-21.57,0v-3.35h4.76a5.24,5.24,0,0,0,5.19-4.58l2.72-22a5.22,5.22,0,0,0-5.19-5.87H78a1.08,1.08,0,1,0,0,2.15h2A3.08,3.08,0,0,1,83,235l-2.72,22a3.08,3.08,0,0,1-3.05,2.69H65.54a3.07,3.07,0,0,1-3.05-2.69l-2.72-22a3.07,3.07,0,0,1,3-3.45H65.6a1.08,1.08,0,1,0,0-2.15H62.82a5.22,5.22,0,0,0-5.19,5.87l2.72,22a5.24,5.24,0,0,0,5.19,4.58H70.3v3.35a12.94,12.94,0,0,0,25.88,0v-8.22A4.88,4.88,0,0,0,100,252.13Z"/><path class="cls-45" d="M87,398.05a.32.32,0,0,1-.31-.19L85.06,394h-2.6a.34.34,0,0,1-.3-.19l-1.93-4.08-3.57,8.14a.31.31,0,0,1-.28.19.34.34,0,0,1-.31-.14l-2.49-3.72H71a.35.35,0,0,1-.3-.17l-1.8-3.48-1.57,3.35a.32.32,0,0,1-.31.19h0l-5.94,0a.36.36,0,0,1-.24-.09.32.32,0,0,1-.1-.22V392a.33.33,0,0,1,.34-.31h4.52l2.87-6.16a.35.35,0,0,1,.3-.19.36.36,0,0,1,.31.18l3.27,6.29h2.4a.34.34,0,0,1,.28.14l.89,1.32,3.89-8.89a.34.34,0,0,1,.3-.19h0a.32.32,0,0,1,.3.19l3.42,7.22h2.66a.33.33,0,0,1,.31.2l0,.05,0-.12a.35.35,0,0,1,.32-.21H95a.34.34,0,0,1,.23.1.27.27,0,0,1,.1.22v1.73a.33.33,0,0,1-.34.31H88.78l-1.43,4a.33.33,0,0,1-.31.21Zm-15.8-4.52h2.53a.35.35,0,0,1,.29.15L76.29,397l3.61-8.25a.34.34,0,0,1,.31-.19h0a.32.32,0,0,1,.31.19l2.16,4.56h2.61a.33.33,0,0,1,.31.2l1.4,3.3,1.22-3.37a.33.33,0,0,1,.32-.21h6.07v-1.1H87.46l-.25.71a.34.34,0,0,1-.31.21.36.36,0,0,1-.32-.2l-.27-.64H83.66a.32.32,0,0,1-.31-.19l-3.19-6.74-3.84,8.78a.34.34,0,0,1-.28.19.36.36,0,0,1-.32-.15l-1.13-1.68H72.17a.33.33,0,0,1-.3-.18l-3-5.85-2.68,5.72a.32.32,0,0,1-.3.19H61.44v1.1h5.39l1.76-3.78a.34.34,0,0,1,.3-.19.36.36,0,0,1,.31.18Z"/><path class="cls-45" d="M94,406.57H92.7a.32.32,0,0,1-.33-.31v-1.57H63.67v1.57a.32.32,0,0,1-.33.31H62a5.69,5.69,0,0,1-5.85-5.49V381A5.69,5.69,0,0,1,62,375.55H94A5.68,5.68,0,0,1,99.87,381v20A5.68,5.68,0,0,1,94,406.57Zm-1-.63h1a5,5,0,0,0,5.18-4.86V381A5,5,0,0,0,94,376.18H62A5,5,0,0,0,56.84,381v20A5,5,0,0,0,62,405.94h1v-1.56a.33.33,0,0,1,.34-.32H92.7a.33.33,0,0,1,.34.32Zm1-3.68H62a1.22,1.22,0,0,1-1.25-1.18v-7.32a.06.06,0,0,1,0,0V381A1.21,1.21,0,0,1,62,379.87H94A1.21,1.21,0,0,1,95.28,381v20A1.22,1.22,0,0,1,94,402.26Zm-32.59-8.58s0,0,0,0v7.36a.57.57,0,0,0,.58.55H94a.57.57,0,0,0,.59-.55V381a.56.56,0,0,0-.59-.54H62a.56.56,0,0,0-.58.54Zm35.81-1.58a1.46,1.46,0,1,1,1.55-1.45A1.5,1.5,0,0,1,97.24,392.1Zm0-2.28a.83.83,0,1,0,.88.83A.85.85,0,0,0,97.24,389.82ZM58.8,392.1a1.46,1.46,0,1,1,1.55-1.45A1.5,1.5,0,0,1,58.8,392.1Zm0-2.28a.83.83,0,1,0,.88.83A.85.85,0,0,0,58.8,389.82Zm38.44-2.88a1.46,1.46,0,1,1,1.55-1.45A1.5,1.5,0,0,1,97.24,386.94Zm0-2.28a.83.83,0,1,0,.88.83A.85.85,0,0,0,97.24,384.66ZM58.8,386.94a1.46,1.46,0,1,1,1.55-1.45A1.5,1.5,0,0,1,58.8,386.94Zm0-2.28a.83.83,0,1,0,.88.83A.85.85,0,0,0,58.8,384.66Z"/><path class="cls-45" d="M91.15,410H64.89A1.84,1.84,0,0,1,63,408.25v-3.87a.33.33,0,0,1,.34-.32H92.7a.33.33,0,0,1,.34.32v3.87A1.84,1.84,0,0,1,91.15,410Zm-27.48-5.33v3.56a1.18,1.18,0,0,0,1.22,1.14H91.15a1.18,1.18,0,0,0,1.22-1.14v-3.56Z"/></g></g></svg>