<svg xmlns="http://www.w3.org/2000/svg" xmlns:xlink="http://www.w3.org/1999/xlink" viewBox="0 0 222.69 199.89"><defs><style>.cls-1,.cls-2{fill:none;}.cls-2{clip-rule:evenodd;}.cls-3{isolation:isolate;}.cls-4{opacity:0.6;}.cls-5{clip-path:url(#clip-path);}.cls-15,.cls-6{opacity:0.5;}.cls-7{fill:#740f2c;}.cls-10,.cls-11,.cls-12,.cls-15,.cls-16,.cls-17,.cls-18,.cls-7,.cls-8,.cls-9{fill-rule:evenodd;}.cls-8{fill:url(#Áåçûìÿííûé_ãðàäèåíò_139);}.cls-9{fill:#fff;mix-blend-mode:soft-light;}.cls-10{fill:url(#Áåçûìÿííûé_ãðàäèåíò_100);}.cls-11{fill:url(#Áåçûìÿííûé_ãðàäèåíò_28);}.cls-12,.cls-13{fill:#a96370;}.cls-14{fill:#ef384c;}.cls-15,.cls-19{mix-blend-mode:multiply;}.cls-15{fill:url(#Áåçûìÿííûé_ãðàäèåíò_29);}.cls-16{fill:url(#Áåçûìÿííûé_ãðàäèåíò_139-2);}.cls-17{fill:url(#Áåçûìÿííûé_ãðàäèåíò_100-2);}.cls-18{fill:url(#Áåçûìÿííûé_ãðàäèåíò_28-2);}.cls-19{opacity:0.3;}.cls-20{clip-path:url(#clip-path-2);}.cls-21{fill:#a90064;}.cls-22{fill:#aa0164;}.cls-23{fill:#aa0264;}.cls-24{fill:#ab0365;}.cls-25{fill:#ab0465;}.cls-26{fill:#ac0565;}.cls-27{fill:#ac0665;}.cls-28{fill:#ad0766;}.cls-29{fill:#ad0866;}.cls-30{fill:#ae0966;}.cls-31{fill:#ae0a66;}.cls-32{fill:#af0b66;}.cls-33{fill:#af0c67;}.cls-34{fill:#b00d67;}.cls-35{fill:#b00e67;}.cls-36{fill:#b10f67;}.cls-37{fill:#b11068;}.cls-38{fill:#b21168;}.cls-39{fill:#b21268;}.cls-40{fill:#b31368;}.cls-41{fill:#b31469;}.cls-42{fill:#b41569;}.cls-43{fill:#b41669;}.cls-44{fill:#b51769;}.cls-45{fill:#b61869;}.cls-46{fill:#b6196a;}.cls-47{fill:#b71a6a;}.cls-48{fill:#b71b6a;}.cls-49{fill:#b81c6a;}.cls-50{fill:#b81d6b;}.cls-51{fill:#b91e6b;}.cls-52{fill:#b91f6b;}.cls-53{fill:#ba206b;}.cls-54{fill:#ba216b;}.cls-55{fill:#bb226c;}.cls-56{fill:#bb236c;}.cls-57{fill:#bc246c;}.cls-58{fill:#bc256c;}.cls-59{fill:#bd266d;}.cls-60{fill:#bd276d;}.cls-61{fill:#be286d;}.cls-62{fill:#be296d;}.cls-63{fill:#bf2a6d;}.cls-64{fill:#bf2b6e;}.cls-65{fill:#c02c6e;}.cls-66{fill:#c02d6e;}.cls-67{fill:#c12e6e;}.cls-68{fill:#c22f6f;}.cls-69{fill:#c2306f;}.cls-70{fill:#c3316f;}.cls-71{fill:#c3326f;}.cls-72{fill:#c43370;}.cls-73{fill:#c43470;}.cls-74{fill:#c53570;}.cls-75{fill:#c53670;}.cls-76{fill:#c63770;}.cls-77{fill:#c63871;}.cls-78{fill:#c73971;}.cls-79{fill:#c73b71;}.cls-80{fill:#c83c71;}.cls-81{fill:#c83d72;}.cls-82{fill:#c93e72;}.cls-83{fill:#c93f72;}.cls-84{fill:#ca4072;}.cls-85{fill:#ca4172;}.cls-86{fill:#cb4273;}.cls-87{fill:#cb4373;}.cls-88{fill:#cc4473;}.cls-89{fill:#cc4573;}.cls-90{fill:#cd4674;}.cls-91{fill:#ce4774;}.cls-92{fill:#ce4874;}.cls-93{fill:#cf4974;}.cls-94{fill:#cf4a75;}.cls-95{fill:#d04b75;}.cls-96{fill:#d04c75;}.cls-97{fill:#d14d75;}.cls-98{fill:#d14e75;}.cls-99{fill:#d24f76;}.cls-100{fill:#d25076;}.cls-101{fill:#d35176;}.cls-102{fill:#d35276;}.cls-103{fill:#d45377;}.cls-104{fill:#d45477;}.cls-105{fill:#d55577;}.cls-106{fill:#d55677;}.cls-107{fill:#d65777;}.cls-108{fill:#d65878;}.cls-109{fill:#d75978;}.cls-110{fill:#d75a78;}.cls-111{fill:#d85b78;}.cls-112{fill:#d85c79;}.cls-113{fill:#d95d79;}.cls-114{fill:#da5e79;}.cls-115{fill:#da5f79;}.cls-116{fill:#db6079;}.cls-117{fill:#db617a;}.cls-118{fill:#dc627a;}.cls-119{fill:#dc637a;}.cls-120{fill:#dd647a;}.cls-121{fill:#dd657b;}.cls-122{fill:#de667b;}.cls-123{fill:#de677b;}.cls-124{fill:#df687b;}.cls-125{fill:#df697c;}.cls-126{fill:#e06a7c;}.cls-127{fill:#e06b7c;}.cls-128{fill:#e16c7c;}.cls-129{fill:#e16d7c;}.cls-130{fill:#e26e7d;}.cls-131{fill:#e26f7d;}.cls-132{fill:#e3707d;}.cls-133{fill:#e3717d;}.cls-134{fill:#e4727e;}.cls-135{fill:#e4737e;}.cls-136{fill:#e5747e;}.cls-137{clip-path:url(#clip-path-3);}</style><clipPath id="clip-path"><rect class="cls-1" width="222.69" height="199.43" rx="25.96"/></clipPath><radialGradient id="Áåçûìÿííûé_ãðàäèåíò_139" cx="82.87" cy="196.36" r="18.98" gradientUnits="userSpaceOnUse"><stop offset="0.03" stop-color="#e3dfe3"/><stop offset="0.3" stop-color="#d4cfd5"/><stop offset="0.83" stop-color="#afa5b2"/><stop offset="0.99" stop-color="#a297a6"/></radialGradient><radialGradient id="Áåçûìÿííûé_ãðàäèåíò_100" cx="59.19" cy="102.89" r="23.22" gradientUnits="userSpaceOnUse"><stop offset="0.02" stop-color="#af3d1a"/><stop offset="0.99" stop-color="#a03936"/></radialGradient><radialGradient id="Áåçûìÿííûé_ãðàäèåíò_28" cx="63.72" cy="75.82" r="50.09" gradientUnits="userSpaceOnUse"><stop offset="0" stop-color="#ffdbd3"/><stop offset="1" stop-color="#ffe2bd"/></radialGradient><linearGradient id="Áåçûìÿííûé_ãðàäèåíò_29" x1="115.42" y1="119.42" x2="80.7" y2="59.27" gradientUnits="userSpaceOnUse"><stop offset="0" stop-color="#b36d57"/><stop offset="1" stop-color="#7c0037"/></linearGradient><radialGradient id="Áåçûìÿííûé_ãðàäèåíò_139-2" cx="163.35" cy="196.36" r="18.98" xlink:href="#Áåçûìÿííûé_ãðàäèåíò_139"/><radialGradient id="Áåçûìÿííûé_ãðàäèåíò_100-2" cx="143.42" cy="93.51" r="23.22" xlink:href="#Áåçûìÿííûé_ãðàäèåíò_100"/><radialGradient id="Áåçûìÿííûé_ãðàäèåíò_28-2" cx="146.68" cy="67.07" r="51.42" xlink:href="#Áåçûìÿííûé_ãðàäèåíò_28"/><clipPath id="clip-path-2"><path class="cls-2" d="M143.74,78.35v-.08A.25.25,0,0,0,143.74,78.35Z"/></clipPath><clipPath id="clip-path-3"><path class="cls-2" d="M143.75,78.5a.86.86,0,0,1,0-.15C143.74,78.4,143.75,78.45,143.75,78.5Z"/></clipPath></defs><g class="cls-3"><g id="Capa_1" data-name="Capa 1"><g class="cls-4"><g class="cls-5"><g class="cls-6"><polygon class="cls-7" points="59.58 124.94 63.14 196.41 64.57 196.41 64.16 125.33 59.58 124.94"/><polygon class="cls-8" points="42.51 199.79 41.71 195.22 95.11 193.69 95.11 199.89 42.51 199.79"/><polygon class="cls-9" points="75.28 199.85 74.75 194.57 85.03 194.12 84.31 199.87 75.28 199.85"/><polygon class="cls-9" points="87.63 199.89 89.06 193.86 93.09 193.86 89.5 199.87 87.63 199.89"/><polygon class="cls-10" points="17.42 125.53 15.39 58.97 106.77 60.24 104.84 125.53 17.42 125.53"/><polygon class="cls-7" points="15.39 58.97 12.34 61.28 15.65 125.53 17.42 125.53 15.39 58.97"/><polygon class="cls-11" points="20.33 121.5 103.46 122.63 103.46 63.51 19.53 62.71 20.33 121.5"/><path class="cls-12" d="M45.82,78.13l1.39,16.92H73.8l1.13-16.92ZM72.93,94.05H48.08l-.93-14.47,26.39,0Z"/><path class="cls-13" d="M57.54,94.1a7.32,7.32,0,1,1,7.32-7.31A7.32,7.32,0,0,1,57.54,94.1Zm0-13.23a5.92,5.92,0,1,0,5.92,5.92A5.93,5.93,0,0,0,57.54,80.87Z"/><circle class="cls-13" cx="57.54" cy="86.79" r="4.1"/><polygon class="cls-12" points="65.7 81.69 65.99 83.45 70.53 83.45 70.88 81.91 65.7 81.69"/><polygon class="cls-12" points="47.99 78.13 47.66 76.38 55.59 76.69 55.35 78.13 47.99 78.13"/><path class="cls-14" d="M61.08,107.76A21.35,21.35,0,1,1,82.43,86.41,21.37,21.37,0,0,1,61.08,107.76Zm0-40.81A19.46,19.46,0,1,0,80.54,86.41,19.48,19.48,0,0,0,61.08,67Z"/><rect class="cls-14" x="40.14" y="85.81" width="41.52" height="1.89" transform="translate(-43.22 66.9) rotate(-44.14)"/><path class="cls-14" d="M27.08,116.64l.81-6.27c1.46.43,2.28.95,2.47,1.58a2.53,2.53,0,0,1,.1.67,2.72,2.72,0,0,1-.33,1.26A10,10,0,0,1,27.08,116.64Zm1.73-4.5-.23,1.72c.57-.32.87-.64.88-.94S29.25,112.36,28.81,112.14Z"/><path class="cls-14" d="M30.76,114.09a4.11,4.11,0,0,1,.58-2.08A2,2,0,0,1,33.1,111a2.12,2.12,0,0,1,1.67.59,3.83,3.83,0,0,1,.67,1.72,5,5,0,0,1,.09.92,2.6,2.6,0,0,1-.45,1.55,2.21,2.21,0,0,1-2,.86,2.3,2.3,0,0,1-1.84-.68A2.71,2.71,0,0,1,30.76,114.09Zm3.05-1.27a1,1,0,0,0-.69-.35c-.26,0-.5.17-.73.52a1.76,1.76,0,0,0-.3.93,1.63,1.63,0,0,0,.27.86.85.85,0,0,0,.71.5,1.06,1.06,0,0,0,.81-.51,1.47,1.47,0,0,0,.37-.91A1.65,1.65,0,0,0,33.81,112.82Z"/><path class="cls-14" d="M36.88,111.35l1,2.43a12.16,12.16,0,0,1-.12-1.93v-.69l1.28,0c0,.61-.08,1.24-.08,1.89a29,29,0,0,0,.2,3.28l-1.24,0-1.28-2.67c0,.13,0,.25,0,.38a17.21,17.21,0,0,0,.16,2.17H35.57c-.06-1.22-.08-2.43-.08-3.63,0-.45,0-.9,0-1.35Z"/><path class="cls-14" d="M39.64,112.14l.12-1.73.86.2-.42,1.59Z"/><path class="cls-14" d="M40.66,112.59l-.08-1.26c1.72-.17,3.31-.3,4.76-.4l0,1.23-1.61.07.08,4.37-1.23-.15-.08-4.15Z"/><path class="cls-14" d="M47.9,112.59l-.07-1.26c1.72-.17,3.3-.3,4.76-.4l0,1.23-1.6.07L51,116.6l-1.24-.15-.07-4.15Z"/><path class="cls-14" d="M54,114.5l-.43,1.83-1.2-.19,1.51-5.35h1.19l1.6,5.1-1.32.33L55,114.5Zm.74-.9-.27-1.13-.27,1.16Z"/><path class="cls-14" d="M58.06,110.78c0,.52-.05,1-.05,1.54,0,.25,0,.5,0,.75l1.13-2.25,1.35.19-1.58,2.59,1.84,1.84-1.31.78L58.06,114a13.05,13.05,0,0,0,.26,2.3l-1.27.15a40,40,0,0,1-.34-5.78Z"/><path class="cls-14" d="M64.1,110.78v1.51l-2.16,0V113h1.84l0,1.2-1.8,0V115h2l0,1.46-3.23,0,.12-5.63Z"/><path class="cls-14" d="M68.12,110.86a2,2,0,0,1,2,1.14,1.38,1.38,0,0,1,.13.57q0,1.09-2.13,1.71l-.08,2.21-1.2,0L67,111A5.46,5.46,0,0,1,68.12,110.86Zm.94,1.58c0-.19-.28-.34-.8-.45l0,1.05Q69.09,112.71,69.06,112.44Z"/><path class="cls-14" d="M72,110.94V113h1l0-2,1.31.12-.17,5.16H72.88l.05-2.12H72l0,2.12H70.72l-.15-5.51Z"/><path class="cls-14" d="M74.59,114.09a4.22,4.22,0,0,1,.58-2.08A2,2,0,0,1,76.93,111a2.14,2.14,0,0,1,1.68.59,3.73,3.73,0,0,1,.66,1.72,5,5,0,0,1,.09.92,2.6,2.6,0,0,1-.45,1.55,2.2,2.2,0,0,1-2,.86,2.26,2.26,0,0,1-1.83-.68A2.72,2.72,0,0,1,74.59,114.09Zm3-1.27a1,1,0,0,0-.69-.35.9.9,0,0,0-.72.52,1.76,1.76,0,0,0-.3.93,1.63,1.63,0,0,0,.27.86.84.84,0,0,0,.7.5,1.06,1.06,0,0,0,.81-.51,1.47,1.47,0,0,0,.37-.91A1.6,1.6,0,0,0,77.64,112.82Z"/><path class="cls-14" d="M79.25,112.59l-.07-1.26c1.71-.17,3.3-.3,4.75-.4l0,1.23-1.6.07.07,4.37-1.23-.15-.08-4.15Z"/><path class="cls-14" d="M84,114.09a4.22,4.22,0,0,1,.58-2.08A2,2,0,0,1,86.38,111a2.12,2.12,0,0,1,1.67.59,3.73,3.73,0,0,1,.66,1.72,5,5,0,0,1,.09.92,2.6,2.6,0,0,1-.45,1.55,2.2,2.2,0,0,1-2,.86,2.26,2.26,0,0,1-1.83-.68A2.72,2.72,0,0,1,84,114.09Zm3-1.27a1,1,0,0,0-.69-.35.9.9,0,0,0-.72.52,1.76,1.76,0,0,0-.3.93,1.63,1.63,0,0,0,.27.86.84.84,0,0,0,.7.5,1.06,1.06,0,0,0,.81-.51,1.47,1.47,0,0,0,.37-.91A1.6,1.6,0,0,0,87.08,112.82Z"/><path class="cls-14" d="M88.69,115.82l.63-1.4a3.77,3.77,0,0,0,1.8.77.82.82,0,0,0,.45-.14.44.44,0,0,0,.23-.37c0-.22-.29-.4-.87-.55a2.36,2.36,0,0,1-1.7-1.33,1.44,1.44,0,0,1-.15-.61,1.23,1.23,0,0,1,.76-1.14,3.13,3.13,0,0,1,1.42-.3,9.88,9.88,0,0,1,1.72.19l-.45,1.34a3,3,0,0,0-1.21-.34.92.92,0,0,0-.42.1.36.36,0,0,0-.25.33c0,.12.11.26.33.4a5.7,5.7,0,0,0,.89.41,2.91,2.91,0,0,1,.81.43,1.19,1.19,0,0,1,.38.86,1.92,1.92,0,0,1-.82,1.6,1.63,1.63,0,0,1-1.06.3A7.78,7.78,0,0,1,88.69,115.82Z"/><polygon class="cls-15" points="79.68 59.87 93.44 125.53 104.84 125.53 106.77 60.24 79.68 59.87"/><polygon class="cls-7" points="143.8 115.56 143.62 196.41 145.05 196.41 147.53 115.87 143.8 115.56"/><polygon class="cls-16" points="122.99 199.79 122.18 195.22 175.58 193.69 175.58 199.89 122.99 199.79"/><polygon class="cls-9" points="155.75 199.85 155.22 194.57 165.51 194.12 164.79 199.87 155.75 199.85"/><polygon class="cls-9" points="168.1 199.89 169.54 193.86 173.57 193.86 169.97 199.87 168.1 199.89"/><polygon class="cls-17" points="101.65 116.15 99.62 49.59 191 50.86 189.07 116.15 101.65 116.15"/><polygon class="cls-7" points="99.62 49.59 96.57 51.9 99.88 116.15 101.65 116.15 99.62 49.59"/><polygon class="cls-18" points="104.56 112.12 187.69 113.25 187.69 54.13 103.76 53.33 104.56 112.12"/><path class="cls-12" d="M146.31,60a6.21,6.21,0,0,1-.13.88l-.55.29-.13.07-.13,0a10.78,10.78,0,0,0-3.54,0c.09-.18.24-.45.44-.79A9.07,9.07,0,0,1,146,56.74,11.77,11.77,0,0,1,146.31,60Z"/><path class="cls-13" d="M143.54,93.83l-.06.42h.13Zm17.2,0a1.46,1.46,0,0,0-.8-.92,4.74,4.74,0,0,0-1.5-.3l-1.32-.15a34.07,34.07,0,0,1-4.25-.91c-.07-2.94-.25-11.15-.48-11.72a8.89,8.89,0,0,0-3.32-3,32.51,32.51,0,0,1-5.38-4.65,4.47,4.47,0,0,1-.24-1.36c.1-.14.92-.77,3-1a7.51,7.51,0,0,1,2,0l0,0V70h.69l0-.34a11.88,11.88,0,0,0-.77-5.16,3.64,3.64,0,0,0,2.83-.77c1.06-1.07,2.3-5.12,2.2-5.53l-.07-.21-.2,0a7.76,7.76,0,0,0-2.79.34A22.26,22.26,0,0,0,146.31,60l-.91.47a11.13,11.13,0,0,0-3.13-.06,5,5,0,0,0-2,.53,9.17,9.17,0,0,0-1.66,2.62c-.14.27-.3.58-.33.62a3.47,3.47,0,0,1-.69.29c-.74.26-1.12.42-1.2.75a4.11,4.11,0,0,0,1,4l.07.07.26.05a6.82,6.82,0,0,1,2.68,1.14,4,4,0,0,1-.47,1.47,10.1,10.1,0,0,1-2.56,2.3l-.22.19,0,.19A11.39,11.39,0,0,0,140.81,81l1.95,12.54a1.44,1.44,0,0,0-.7.3,2,2,0,0,0-.54,1l-.08.42,1.93,0c5.63.07,9.43.1,12,.1,5.24,0,5.32-.13,5.41-.31h0A1.89,1.89,0,0,0,160.74,93.8Zm-9.36.88-2.51,0-5.44-.06h-1.05a.63.63,0,0,1,.16-.22,1.07,1.07,0,0,1,.62-.14l.32,0h.13l-.07-.42-2-12.66-.09-.57-.12-.09a10.74,10.74,0,0,1-3.43-5.83,10.54,10.54,0,0,0,2.63-2.43,4.46,4.46,0,0,0,.56-2v-.17L141,70a7.2,7.2,0,0,0-3.15-1.42h0a3.59,3.59,0,0,1-.73-3.11,3.29,3.29,0,0,1,.52-.24h0l.22-.08c.55-.19.86-.31,1-.5a5.91,5.91,0,0,0,.42-.76,11.35,11.35,0,0,1,1.44-2.37,3.24,3.24,0,0,1,1.15-.32,10.78,10.78,0,0,1,3.54,0l.13,0,.13-.07.55-.29A23.38,23.38,0,0,1,150.66,59a15.24,15.24,0,0,1,2.12-.36l0,.16c-.3,1.1-1.16,3.69-1.91,4.42-.91.92-2.81.49-2.83.49l-.34-.08-.43-.1.38.7a11,11,0,0,1,1,4.9,8.33,8.33,0,0,0-2.17,0c-2.13.19-3.47.88-3.65,1.43a4,4,0,0,0,.24,1.9,30,30,0,0,0,5.67,5,8.36,8.36,0,0,1,3,2.63c.15.54.35,7.5.43,11.75v.27l.26.07c.06,0,.77.23,1.71.45h0c.63.16,1.37.32,2.08.44l.83.12,1.33.15a3.94,3.94,0,0,1,1.31.25c.35.14.48.77.47,1.08C159.34,94.7,156.16,94.72,151.38,94.68Z"/><path class="cls-12" d="M145.05,64.18a3.22,3.22,0,0,1-2.12,1.07,3.89,3.89,0,0,1-2.25-.29s.6-1.87,2.18-2.13A2.08,2.08,0,0,1,145.05,64.18Z"/><path class="cls-12" d="M138.36,65.51a1.18,1.18,0,0,1-.53.76,2.39,2.39,0,0,1-.84.34.47.47,0,0,1-.24,0,2.33,2.33,0,0,1-.37-.76c0-.24.24-.31.34-.55a2.33,2.33,0,0,1,.87-.08h0A1.56,1.56,0,0,1,138.36,65.51Z"/><g class="cls-19"><g class="cls-20"><rect class="cls-21" x="143.73" y="78.35" width="0.01"/><rect class="cls-22" x="143.73" y="78.35" width="0.01"/><rect class="cls-23" x="143.73" y="78.35" width="0.01"/><rect class="cls-24" x="143.73" y="78.35" width="0.01"/><rect class="cls-25" x="143.73" y="78.35" width="0.01"/><rect class="cls-26" x="143.73" y="78.35" width="0.01"/><rect class="cls-27" x="143.73" y="78.35" width="0.01"/><rect class="cls-28" x="143.73" y="78.35" width="0.01"/><rect class="cls-29" x="143.73" y="78.35" width="0.01"/><rect class="cls-30" x="143.73" y="78.35" width="0.01"/><rect class="cls-31" x="143.73" y="78.35" width="0.01"/><rect class="cls-32" x="143.73" y="78.35" width="0.01"/><rect class="cls-33" x="143.73" y="78.34" width="0.01"/><rect class="cls-34" x="143.73" y="78.34" width="0.01"/><rect class="cls-35" x="143.73" y="78.34" width="0.01"/><rect class="cls-36" x="143.73" y="78.34" width="0.01"/><rect class="cls-37" x="143.73" y="78.34" width="0.01"/><rect class="cls-38" x="143.73" y="78.34" width="0.01"/><rect class="cls-39" x="143.73" y="78.34" width="0.01"/><rect class="cls-40" x="143.73" y="78.34" width="0.01"/><rect class="cls-41" x="143.73" y="78.34" width="0.01"/><rect class="cls-42" x="143.73" y="78.34" width="0.01"/><rect class="cls-43" x="143.73" y="78.34" width="0.01"/><rect class="cls-44" x="143.73" y="78.34" width="0.01"/><rect class="cls-45" x="143.73" y="78.34" width="0.01"/><rect class="cls-46" x="143.73" y="78.33" width="0.01"/><rect class="cls-47" x="143.73" y="78.33" width="0.01"/><rect class="cls-48" x="143.73" y="78.33" width="0.01"/><rect class="cls-49" x="143.73" y="78.33" width="0.01"/><rect class="cls-50" x="143.73" y="78.33" width="0.01"/><rect class="cls-51" x="143.73" y="78.33" width="0.01"/><rect class="cls-52" x="143.73" y="78.33" width="0.01"/><rect class="cls-53" x="143.73" y="78.33" width="0.01"/><rect class="cls-54" x="143.73" y="78.33" width="0.01"/><rect class="cls-55" x="143.73" y="78.33" width="0.01"/><rect class="cls-56" x="143.73" y="78.33" width="0.01"/><rect class="cls-57" x="143.73" y="78.33" width="0.01"/><rect class="cls-58" x="143.73" y="78.33" width="0.01"/><rect class="cls-59" x="143.73" y="78.32" width="0.01"/><rect class="cls-60" x="143.73" y="78.32" width="0.01"/><rect class="cls-61" x="143.73" y="78.32" width="0.01"/><rect class="cls-62" x="143.73" y="78.32" width="0.01"/><rect class="cls-63" x="143.73" y="78.32" width="0.01"/><rect class="cls-64" x="143.73" y="78.32" width="0.01"/><rect class="cls-65" x="143.73" y="78.32" width="0.01"/><rect class="cls-66" x="143.73" y="78.32" width="0.01"/><rect class="cls-67" x="143.73" y="78.32" width="0.01"/><rect class="cls-68" x="143.73" y="78.32" width="0.01"/><rect class="cls-69" x="143.73" y="78.32" width="0.01"/><rect class="cls-70" x="143.73" y="78.32" width="0.01"/><rect class="cls-71" x="143.73" y="78.32" width="0.01"/><rect class="cls-72" x="143.73" y="78.31" width="0.01"/><rect class="cls-73" x="143.73" y="78.31" width="0.01"/><rect class="cls-74" x="143.73" y="78.31" width="0.01"/><rect class="cls-75" x="143.73" y="78.31" width="0.01"/><rect class="cls-76" x="143.73" y="78.31" width="0.01"/><rect class="cls-77" x="143.73" y="78.31" width="0.01"/><rect class="cls-78" x="143.73" y="78.31" width="0.01"/><rect class="cls-79" x="143.73" y="78.31" width="0.01"/><rect class="cls-80" x="143.73" y="78.31" width="0.01"/><rect class="cls-81" x="143.73" y="78.31" width="0.01"/><rect class="cls-82" x="143.73" y="78.31" width="0.01"/><rect class="cls-83" x="143.73" y="78.31" width="0.01"/><rect class="cls-84" x="143.73" y="78.31" width="0.01"/><rect class="cls-85" x="143.73" y="78.31" width="0.01"/><rect class="cls-86" x="143.73" y="78.3" width="0.01"/><rect class="cls-87" x="143.73" y="78.3" width="0.01"/><rect class="cls-88" x="143.73" y="78.3" width="0.01"/><rect class="cls-89" x="143.73" y="78.3" width="0.01"/><rect class="cls-90" x="143.73" y="78.3" width="0.01"/><rect class="cls-91" x="143.73" y="78.3" width="0.01"/><rect class="cls-92" x="143.73" y="78.3" width="0.01"/><rect class="cls-93" x="143.73" y="78.3" width="0.01"/><rect class="cls-94" x="143.73" y="78.3" width="0.01"/><rect class="cls-95" x="143.73" y="78.3" width="0.01"/><rect class="cls-96" x="143.73" y="78.3" width="0.01"/><rect class="cls-97" x="143.73" y="78.3" width="0.01"/><rect class="cls-98" x="143.73" y="78.3" width="0.01"/><rect class="cls-99" x="143.73" y="78.29" width="0.01"/><rect class="cls-100" x="143.73" y="78.29" width="0.01"/><rect class="cls-101" x="143.73" y="78.29" width="0.01"/><rect class="cls-102" x="143.73" y="78.29" width="0.01"/><rect class="cls-103" x="143.73" y="78.29" width="0.01"/><rect class="cls-104" x="143.73" y="78.29" width="0.01"/><rect class="cls-105" x="143.73" y="78.29" width="0.01"/><rect class="cls-106" x="143.73" y="78.29" width="0.01"/><rect class="cls-107" x="143.73" y="78.29" width="0.01"/><rect class="cls-108" x="143.73" y="78.29" width="0.01"/><rect class="cls-109" x="143.73" y="78.29" width="0.01"/><rect class="cls-110" x="143.73" y="78.29" width="0.01"/><rect class="cls-111" x="143.73" y="78.29" width="0.01"/><rect class="cls-112" x="143.73" y="78.28" width="0.01"/><rect class="cls-113" x="143.73" y="78.28" width="0.01"/><rect class="cls-114" x="143.73" y="78.28" width="0.01"/><rect class="cls-115" x="143.73" y="78.28" width="0.01"/><rect class="cls-116" x="143.73" y="78.28" width="0.01"/><rect class="cls-117" x="143.73" y="78.28" width="0.01"/><rect class="cls-118" x="143.73" y="78.28" width="0.01"/><rect class="cls-119" x="143.73" y="78.28" width="0.01"/><rect class="cls-120" x="143.73" y="78.28" width="0.01"/><rect class="cls-121" x="143.73" y="78.28" width="0.01"/><rect class="cls-122" x="143.73" y="78.28" width="0.01"/><rect class="cls-123" x="143.73" y="78.28" width="0.01"/><rect class="cls-124" x="143.73" y="78.28" width="0.01"/><rect class="cls-125" x="143.73" y="78.27" width="0.01"/><rect class="cls-126" x="143.73" y="78.27" width="0.01"/><rect class="cls-127" x="143.73" y="78.27" width="0.01"/><rect class="cls-128" x="143.73" y="78.27" width="0.01"/><rect class="cls-129" x="143.73" y="78.27" width="0.01"/><rect class="cls-130" x="143.73" y="78.27" width="0.01"/><rect class="cls-131" x="143.73" y="78.27" width="0.01"/><rect class="cls-132" x="143.73" y="78.27" width="0.01"/><rect class="cls-133" x="143.73" y="78.27" width="0.01"/><rect class="cls-134" x="143.73" y="78.27" width="0.01"/><rect class="cls-135" x="143.73" y="78.27" width="0.01"/><rect class="cls-136" x="143.73" y="78.27" width="0.01"/></g></g><g class="cls-19"><g class="cls-137"><rect class="cls-21" x="143.74" y="78.5" width="0.01"/><rect class="cls-22" x="143.74" y="78.5" width="0.01"/><rect class="cls-23" x="143.74" y="78.5" width="0.01"/><rect class="cls-24" x="143.74" y="78.5" width="0.01"/><rect class="cls-25" x="143.74" y="78.5" width="0.01"/><rect class="cls-26" x="143.74" y="78.5" width="0.01"/><rect class="cls-27" x="143.74" y="78.49" width="0.01"/><rect class="cls-28" x="143.74" y="78.49" width="0.01"/><rect class="cls-29" x="143.74" y="78.49" width="0.01"/><rect class="cls-30" x="143.74" y="78.49" width="0.01"/><rect class="cls-31" x="143.74" y="78.49" width="0.01"/><rect class="cls-32" x="143.74" y="78.49" width="0.01"/><rect class="cls-33" x="143.74" y="78.49" width="0.01"/><rect class="cls-34" x="143.74" y="78.49" width="0.01"/><rect class="cls-35" x="143.74" y="78.48" width="0.01"/><rect class="cls-36" x="143.74" y="78.48" width="0.01"/><rect class="cls-37" x="143.74" y="78.48" width="0.01"/><rect class="cls-38" x="143.74" y="78.48" width="0.01"/><rect class="cls-39" x="143.74" y="78.48" width="0.01"/><rect class="cls-40" x="143.74" y="78.48" width="0.01"/><rect class="cls-41" x="143.74" y="78.48" width="0.01"/><rect class="cls-42" x="143.74" y="78.48" width="0.01"/><rect class="cls-43" x="143.74" y="78.47" width="0.01"/><rect class="cls-44" x="143.74" y="78.47" width="0.01"/><rect class="cls-45" x="143.74" y="78.47" width="0.01"/><rect class="cls-46" x="143.74" y="78.47" width="0.01"/><rect class="cls-47" x="143.74" y="78.47" width="0.01"/><rect class="cls-48" x="143.74" y="78.47" width="0.01"/><rect class="cls-49" x="143.74" y="78.47" width="0.01"/><rect class="cls-50" x="143.74" y="78.46" width="0.01"/><rect class="cls-51" x="143.74" y="78.46" width="0.01"/><rect class="cls-52" x="143.74" y="78.46" width="0.01"/><rect class="cls-53" x="143.74" y="78.46" width="0.01"/><rect class="cls-54" x="143.74" y="78.46" width="0.01"/><rect class="cls-55" x="143.74" y="78.46" width="0.01"/><rect class="cls-56" x="143.74" y="78.46" width="0.01"/><rect class="cls-57" x="143.74" y="78.46" width="0.01"/><rect class="cls-58" x="143.74" y="78.45" width="0.01"/><rect class="cls-59" x="143.74" y="78.45" width="0.01"/><rect class="cls-60" x="143.74" y="78.45" width="0.01"/><rect class="cls-61" x="143.74" y="78.45" width="0.01"/><rect class="cls-62" x="143.74" y="78.45" width="0.01"/><rect class="cls-63" x="143.74" y="78.45" width="0.01"/><rect class="cls-64" x="143.74" y="78.45" width="0.01"/><rect class="cls-65" x="143.74" y="78.45" width="0.01"/><rect class="cls-66" x="143.74" y="78.44" width="0.01"/><rect class="cls-67" x="143.74" y="78.44" width="0.01"/><rect class="cls-68" x="143.74" y="78.44" width="0.01"/><rect class="cls-69" x="143.74" y="78.44" width="0.01"/><rect class="cls-70" x="143.74" y="78.44" width="0.01"/><rect class="cls-71" x="143.74" y="78.44" width="0.01"/><rect class="cls-72" x="143.74" y="78.44" width="0.01"/><rect class="cls-73" x="143.74" y="78.44" width="0.01"/><rect class="cls-74" x="143.74" y="78.43" width="0.01"/><rect class="cls-75" x="143.74" y="78.43" width="0.01"/><rect class="cls-76" x="143.74" y="78.43" width="0.01"/><rect class="cls-77" x="143.74" y="78.43" width="0.01"/><rect class="cls-78" x="143.74" y="78.43" width="0.01"/><rect class="cls-79" x="143.74" y="78.43" width="0.01"/><rect class="cls-80" x="143.74" y="78.43" width="0.01"/><rect class="cls-81" x="143.74" y="78.43" width="0.01"/><rect class="cls-82" x="143.74" y="78.42" width="0.01"/><rect class="cls-83" x="143.74" y="78.42" width="0.01"/><rect class="cls-84" x="143.74" y="78.42" width="0.01"/><rect class="cls-85" x="143.74" y="78.42" width="0.01"/><rect class="cls-86" x="143.74" y="78.42" width="0.01"/><rect class="cls-87" x="143.74" y="78.42" width="0.01"/><rect class="cls-88" x="143.74" y="78.42" width="0.01"/><rect class="cls-89" x="143.74" y="78.41" width="0.01"/><rect class="cls-90" x="143.74" y="78.41" width="0.01"/><rect class="cls-91" x="143.74" y="78.41" width="0.01"/><rect class="cls-92" x="143.74" y="78.41" width="0.01"/><rect class="cls-93" x="143.74" y="78.41" width="0.01"/><rect class="cls-94" x="143.74" y="78.41" width="0.01"/><rect class="cls-95" x="143.74" y="78.41" width="0.01"/><rect class="cls-96" x="143.74" y="78.41" width="0.01"/><rect class="cls-97" x="143.74" y="78.4" width="0.01"/><rect class="cls-98" x="143.74" y="78.4" width="0.01"/><rect class="cls-99" x="143.74" y="78.4" width="0.01"/><rect class="cls-100" x="143.74" y="78.4" width="0.01"/><rect class="cls-101" x="143.74" y="78.4" width="0.01"/><rect class="cls-102" x="143.74" y="78.4" width="0.01"/><rect class="cls-103" x="143.74" y="78.4" width="0.01"/><rect class="cls-104" x="143.74" y="78.4" width="0.01"/><rect class="cls-105" x="143.74" y="78.39" width="0.01"/><rect class="cls-106" x="143.74" y="78.39" width="0.01"/><rect class="cls-107" x="143.74" y="78.39" width="0.01"/><rect class="cls-108" x="143.74" y="78.39" width="0.01"/><rect class="cls-109" x="143.74" y="78.39" width="0.01"/><rect class="cls-110" x="143.74" y="78.39" width="0.01"/><rect class="cls-111" x="143.74" y="78.39" width="0.01"/><rect class="cls-112" x="143.74" y="78.39" width="0.01"/><rect class="cls-113" x="143.74" y="78.38" width="0.01"/><rect class="cls-114" x="143.74" y="78.38" width="0.01"/><rect class="cls-115" x="143.74" y="78.38" width="0.01"/><rect class="cls-116" x="143.74" y="78.38" width="0.01"/><rect class="cls-117" x="143.74" y="78.38" width="0.01"/><rect class="cls-118" x="143.74" y="78.38" width="0.01"/><rect class="cls-119" x="143.74" y="78.38" width="0.01"/><rect class="cls-120" x="143.74" y="78.38" width="0.01"/><rect class="cls-121" x="143.74" y="78.37" width="0.01"/><rect class="cls-122" x="143.74" y="78.37" width="0.01"/><rect class="cls-123" x="143.74" y="78.37" width="0.01"/><rect class="cls-124" x="143.74" y="78.37" width="0.01"/><rect class="cls-125" x="143.74" y="78.37" width="0.01"/><rect class="cls-126" x="143.74" y="78.37" width="0.01"/><rect class="cls-127" x="143.74" y="78.37" width="0.01"/><rect class="cls-128" x="143.74" y="78.36" width="0.01"/><rect class="cls-129" x="143.74" y="78.36" width="0.01"/><rect class="cls-130" x="143.74" y="78.36" width="0.01"/><rect class="cls-131" x="143.74" y="78.36" width="0.01"/><rect class="cls-132" x="143.74" y="78.36" width="0.01"/><rect class="cls-133" x="143.74" y="78.36" width="0.01"/><rect class="cls-134" x="143.74" y="78.36" width="0.01"/><rect class="cls-135" x="143.74" y="78.36" width="0.01"/><rect class="cls-136" x="143.74" y="78.35" width="0.01"/></g></g><path class="cls-12" d="M144,84.63c-.06,2.31-.31,7.84-.31,7.84l-.19,1.36-.06.42,0,.35-.05.36-1.51,0a1.75,1.75,0,0,1,.43-.84,1.4,1.4,0,0,1,.88-.23l-2-13.07.43.37c.52.45,1.37,1.15,1.61,1.13s.64-2.58.57-3.76C143.83,79.49,144.09,82.68,144,84.63Z"/><path class="cls-12" d="M150.67,86a11.86,11.86,0,0,0-2.34-1.32,2.81,2.81,0,0,0-2,1.93c-.78,2,0,6.38.11,6.75-.12-.4-1.36-4.48-.57-7a5.58,5.58,0,0,1,1.87-2.62l.6-3.78a22.54,22.54,0,0,0,.61,3.4C149.2,83.83,150.67,86,150.67,86Z"/><path class="cls-12" d="M157.46,93.44a17.36,17.36,0,0,0-3.76-.23,2.85,2.85,0,0,0-2.32,1.47,1.91,1.91,0,0,0-.18.36l-2.6,0,.27-.36a5.65,5.65,0,0,1,3.48-2.13,7.53,7.53,0,0,1,1.77.06h0a15.67,15.67,0,0,1,2.08.44A12.53,12.53,0,0,1,157.46,93.44Z"/><path class="cls-13" d="M152.75,58.81h-.06a7,7,0,0,0-2.61.61,9,9,0,0,0-3.37,2.78l-.12.16.08.19a2.17,2.17,0,0,0,1,1.1.51.51,0,0,0,.15.07,3.91,3.91,0,0,0,1.26.2,2.76,2.76,0,0,0,2.45-1.16A18.61,18.61,0,0,0,153,59.27l.13-.44Zm-5.32,3.64a7.9,7.9,0,0,1,2.9-2.36,9.86,9.86,0,0,1,1.81-.52,14.61,14.61,0,0,1-1.23,2.8c-.64,1-2.31.85-2.85.66A1.33,1.33,0,0,1,147.43,62.45Z"/><path class="cls-14" d="M147.72,98.94A21.69,21.69,0,1,1,169.4,77.25,21.71,21.71,0,0,1,147.72,98.94Zm0-41.45a19.77,19.77,0,1,0,19.76,19.76A19.79,19.79,0,0,0,147.72,57.49Z"/><rect class="cls-14" x="126.44" y="76.64" width="42.18" height="1.91" transform="translate(-12.39 124.63) rotate(-44.13)"/><path class="cls-14" d="M134.91,103.61l1,2.43a12.16,12.16,0,0,1-.12-1.93c0-.22,0-.45,0-.7l1.27,0c0,.61-.07,1.24-.07,1.89a29,29,0,0,0,.19,3.28l-1.24,0L134.67,106v.38a15.63,15.63,0,0,0,.16,2.17h-1.24c-.05-1.22-.08-2.43-.08-3.63,0-.45,0-.9,0-1.35Z"/><path class="cls-14" d="M137.54,106.35a4.11,4.11,0,0,1,.58-2.08,2,2,0,0,1,1.76-1.06,2.11,2.11,0,0,1,1.67.58,3.93,3.93,0,0,1,.67,1.73,5,5,0,0,1,.09.92,2.6,2.6,0,0,1-.45,1.55,2.21,2.21,0,0,1-2,.86,2.33,2.33,0,0,1-1.84-.68A2.71,2.71,0,0,1,137.54,106.35Zm3.05-1.28a1,1,0,0,0-.69-.34c-.26,0-.5.17-.73.52a1.76,1.76,0,0,0-.3.93,1.56,1.56,0,0,0,.28.86.85.85,0,0,0,.7.5,1.06,1.06,0,0,0,.81-.51,1.49,1.49,0,0,0,.37-.91A1.7,1.7,0,0,0,140.59,105.07Z"/><path class="cls-14" d="M146.15,103.12a2,2,0,0,1,2,1.14,1.38,1.38,0,0,1,.13.57q0,1.1-2.13,1.71l-.08,2.2-1.2,0,.11-5.46A5.46,5.46,0,0,1,146.15,103.12Zm.95,1.57q0-.27-.81-.45l0,1.05C146.83,105.08,147.11,104.88,147.1,104.69Z"/><path class="cls-14" d="M151.9,103v1.5l-2.16,0v.78h1.83l0,1.2-1.79,0v.75h2l0,1.46-3.23,0,.12-5.63Z"/><path class="cls-14" d="M152,104.85l-.07-1.26c1.71-.17,3.3-.3,4.75-.4l0,1.23-1.6.07.07,4.37-1.23-.15-.08-4.15Z"/><path class="cls-14" d="M156.55,108.08l.62-1.4a3.83,3.83,0,0,0,1.81.77.77.77,0,0,0,.44-.14.43.43,0,0,0,.24-.37c0-.22-.29-.41-.87-.55a2.36,2.36,0,0,1-1.7-1.33,1.48,1.48,0,0,1-.15-.62,1.22,1.22,0,0,1,.76-1.13,3.13,3.13,0,0,1,1.42-.3,9.88,9.88,0,0,1,1.72.19l-.45,1.34a3,3,0,0,0-1.21-.34.92.92,0,0,0-.42.1.36.36,0,0,0-.25.32c0,.13.11.27.33.41a6.25,6.25,0,0,0,.89.41,2.91,2.91,0,0,1,.81.43,1.19,1.19,0,0,1,.38.86,1.92,1.92,0,0,1-.82,1.6,1.64,1.64,0,0,1-1.07.3A7.79,7.79,0,0,1,156.55,108.08Z"/></g></g></g></g></g></svg>