<svg xmlns="http://www.w3.org/2000/svg" xmlns:xlink="http://www.w3.org/1999/xlink" viewBox="0 0 234.26 150.53"><defs><style>.cls-1{fill:none;}.cls-2{isolation:isolate;}.cls-3{opacity:0.6;}.cls-4{clip-path:url(#clip-path);}.cls-103,.cls-105,.cls-106,.cls-109,.cls-110,.cls-111,.cls-12,.cls-16,.cls-25,.cls-32,.cls-48,.cls-5,.cls-50,.cls-51,.cls-54,.cls-55,.cls-60,.cls-67,.cls-71,.cls-86{opacity:0.4;}.cls-6{opacity:0.3;}.cls-7{fill:#181818;}.cls-10,.cls-100,.cls-101,.cls-102,.cls-103,.cls-104,.cls-105,.cls-106,.cls-107,.cls-108,.cls-109,.cls-11,.cls-110,.cls-111,.cls-112,.cls-113,.cls-114,.cls-115,.cls-116,.cls-117,.cls-12,.cls-14,.cls-15,.cls-16,.cls-17,.cls-18,.cls-19,.cls-20,.cls-21,.cls-22,.cls-23,.cls-24,.cls-26,.cls-27,.cls-28,.cls-29,.cls-30,.cls-31,.cls-32,.cls-33,.cls-34,.cls-35,.cls-36,.cls-37,.cls-38,.cls-39,.cls-40,.cls-41,.cls-42,.cls-43,.cls-44,.cls-45,.cls-46,.cls-47,.cls-48,.cls-49,.cls-50,.cls-51,.cls-52,.cls-53,.cls-54,.cls-55,.cls-56,.cls-57,.cls-58,.cls-59,.cls-60,.cls-61,.cls-62,.cls-63,.cls-64,.cls-65,.cls-66,.cls-67,.cls-69,.cls-70,.cls-71,.cls-72,.cls-73,.cls-74,.cls-75,.cls-76,.cls-77,.cls-78,.cls-79,.cls-8,.cls-80,.cls-81,.cls-82,.cls-83,.cls-84,.cls-85,.cls-86,.cls-87,.cls-88,.cls-89,.cls-9,.cls-90,.cls-91,.cls-92,.cls-93,.cls-94,.cls-95,.cls-96,.cls-97,.cls-98,.cls-99{fill-rule:evenodd;}.cls-8{fill:url(#Áåçûìÿííûé_ãðàäèåíò_42);}.cls-9{fill:url(#Áåçûìÿííûé_ãðàäèåíò_42-2);}.cls-10{fill:url(#Áåçûìÿííûé_ãðàäèåíò_42-3);}.cls-11{fill:url(#Áåçûìÿííûé_ãðàäèåíò_42-4);}.cls-103,.cls-105,.cls-106,.cls-109,.cls-110,.cls-111,.cls-116,.cls-12,.cls-16,.cls-25,.cls-32,.cls-48,.cls-50,.cls-51,.cls-54,.cls-55,.cls-60,.cls-62,.cls-67,.cls-71,.cls-86{mix-blend-mode:multiply;}.cls-12{fill:url(#Áåçûìÿííûé_ãðàäèåíò_34);}.cls-13{fill:#1a1a1a;}.cls-14{fill:url(#Áåçûìÿííûé_ãðàäèåíò_42-5);}.cls-15{fill:url(#Áåçûìÿííûé_ãðàäèåíò_42-6);}.cls-16{fill:url(#Áåçûìÿííûé_ãðàäèåíò_34-2);}.cls-17{fill:url(#Áåçûìÿííûé_ãðàäèåíò_42-7);}.cls-18{fill:url(#Áåçûìÿííûé_ãðàäèåíò_37);}.cls-19{fill:url(#Áåçûìÿííûé_ãðàäèåíò_42-8);}.cls-20{fill:url(#Áåçûìÿííûé_ãðàäèåíò_37-2);}.cls-21{fill:url(#Áåçûìÿííûé_ãðàäèåíò_42-9);}.cls-22{fill:url(#Áåçûìÿííûé_ãðàäèåíò_37-3);}.cls-23{fill:url(#Áåçûìÿííûé_ãðàäèåíò_42-10);}.cls-24{fill:url(#Áåçûìÿííûé_ãðàäèåíò_37-4);}.cls-26{fill:url(#Áåçûìÿííûé_ãðàäèåíò_34-3);}.cls-27{fill:url(#Áåçûìÿííûé_ãðàäèåíò_34-4);}.cls-28{fill:url(#Áåçûìÿííûé_ãðàäèåíò_34-5);}.cls-29{fill:url(#Áåçûìÿííûé_ãðàäèåíò_34-6);}.cls-30{fill:url(#Áåçûìÿííûé_ãðàäèåíò_42-11);}.cls-31{fill:url(#Áåçûìÿííûé_ãðàäèåíò_33);}.cls-32{fill:url(#Áåçûìÿííûé_ãðàäèåíò_40);}.cls-33{fill:url(#Áåçûìÿííûé_ãðàäèåíò_33-2);}.cls-34{fill:url(#Áåçûìÿííûé_ãðàäèåíò_37-5);}.cls-35{fill:url(#Áåçûìÿííûé_ãðàäèåíò_37-6);}.cls-36{fill:url(#Áåçûìÿííûé_ãðàäèåíò_37-7);}.cls-37{fill:#090909;}.cls-38{fill:url(#Áåçûìÿííûé_ãðàäèåíò_37-8);}.cls-39{fill:url(#Áåçûìÿííûé_ãðàäèåíò_38);}.cls-40{fill:url(#Áåçûìÿííûé_ãðàäèåíò_37-9);}.cls-41{fill:url(#Áåçûìÿííûé_ãðàäèåíò_38-2);}.cls-42{fill:url(#Áåçûìÿííûé_ãðàäèåíò_37-10);}.cls-43{fill:url(#Áåçûìÿííûé_ãðàäèåíò_38-3);}.cls-44{fill:url(#Áåçûìÿííûé_ãðàäèåíò_37-11);}.cls-45{fill:url(#Áåçûìÿííûé_ãðàäèåíò_38-4);}.cls-46{fill:url(#Áåçûìÿííûé_ãðàäèåíò_37-12);}.cls-47{fill:url(#Áåçûìÿííûé_ãðàäèåíò_38-5);}.cls-48{fill:url(#Áåçûìÿííûé_ãðàäèåíò_34-7);}.cls-49{fill:url(#Áåçûìÿííûé_ãðàäèåíò_33-3);}.cls-50{fill:url(#Áåçûìÿííûé_ãðàäèåíò_40-2);}.cls-51{fill:url(#Áåçûìÿííûé_ãðàäèåíò_34-8);}.cls-52{fill:url(#Áåçûìÿííûé_ãðàäèåíò_33-4);}.cls-53{fill:url(#Áåçûìÿííûé_ãðàäèåíò_33-5);}.cls-54{fill:url(#Áåçûìÿííûé_ãðàäèåíò_34-9);}.cls-55{fill:#1b1b1b;}.cls-56{fill:url(#Áåçûìÿííûé_ãðàäèåíò_33-6);}.cls-57{fill:url(#Áåçûìÿííûé_ãðàäèåíò_33-7);}.cls-58{fill:url(#Áåçûìÿííûé_ãðàäèåíò_33-8);}.cls-59{fill:url(#Áåçûìÿííûé_ãðàäèåíò_33-9);}.cls-60{fill:url(#Áåçûìÿííûé_ãðàäèåíò_34-10);}.cls-61{fill:#8d8d8d;}.cls-62{opacity:0.48;fill:url(#Áåçûìÿííûé_ãðàäèåíò_48);}.cls-63{fill:url(#Áåçûìÿííûé_ãðàäèåíò_74);}.cls-64{fill:url(#Áåçûìÿííûé_ãðàäèåíò_74-2);}.cls-65{fill:url(#Áåçûìÿííûé_ãðàäèåíò_74-3);}.cls-66{fill:url(#Áåçûìÿííûé_ãðàäèåíò_74-4);}.cls-67{fill:url(#Áåçûìÿííûé_ãðàäèåíò_87);}.cls-68{fill:#ca4f6d;}.cls-69{fill:url(#Áåçûìÿííûé_ãðàäèåíò_74-5);}.cls-70{fill:url(#Áåçûìÿííûé_ãðàäèåíò_74-6);}.cls-71{fill:url(#Áåçûìÿííûé_ãðàäèåíò_87-2);}.cls-72{fill:url(#Áåçûìÿííûé_ãðàäèåíò_74-7);}.cls-73{fill:url(#Áåçûìÿííûé_ãðàäèåíò_13);}.cls-74{fill:url(#Áåçûìÿííûé_ãðàäèåíò_74-8);}.cls-75{fill:url(#Áåçûìÿííûé_ãðàäèåíò_13-2);}.cls-76{fill:url(#Áåçûìÿííûé_ãðàäèåíò_74-9);}.cls-77{fill:url(#Áåçûìÿííûé_ãðàäèåíò_13-3);}.cls-78{fill:url(#Áåçûìÿííûé_ãðàäèåíò_74-10);}.cls-79{fill:url(#Áåçûìÿííûé_ãðàäèåíò_13-4);}.cls-80{fill:url(#Áåçûìÿííûé_ãðàäèåíò_87-3);}.cls-81{fill:url(#Áåçûìÿííûé_ãðàäèåíò_87-4);}.cls-82{fill:url(#Áåçûìÿííûé_ãðàäèåíò_87-5);}.cls-83{fill:url(#Áåçûìÿííûé_ãðàäèåíò_87-6);}.cls-84{fill:url(#Áåçûìÿííûé_ãðàäèåíò_74-11);}.cls-85{fill:url(#Áåçûìÿííûé_ãðàäèåíò_31);}.cls-86{fill:url(#Áåçûìÿííûé_ãðàäèåíò_87-7);}.cls-87{fill:url(#Áåçûìÿííûé_ãðàäèåíò_31-2);}.cls-88{fill:url(#Áåçûìÿííûé_ãðàäèåíò_151);}.cls-89{fill:url(#Áåçûìÿííûé_ãðàäèåíò_151-2);}.cls-90{fill:url(#Áåçûìÿííûé_ãðàäèåíò_151-3);}.cls-91{fill:url(#Áåçûìÿííûé_ãðàäèåíò_39);}.cls-92{fill:url(#Áåçûìÿííûé_ãðàäèåíò_39-2);}.cls-93{fill:url(#Áåçûìÿííûé_ãðàäèåíò_151-4);}.cls-94{fill:url(#Áåçûìÿííûé_ãðàäèåíò_79);}.cls-95{fill:url(#Áåçûìÿííûé_ãðàäèåíò_151-5);}.cls-96{fill:url(#Áåçûìÿííûé_ãðàäèåíò_79-2);}.cls-97{fill:url(#Áåçûìÿííûé_ãðàäèåíò_151-6);}.cls-98{fill:url(#Áåçûìÿííûé_ãðàäèåíò_79-3);}.cls-99{fill:url(#Áåçûìÿííûé_ãðàäèåíò_151-7);}.cls-100{fill:url(#Áåçûìÿííûé_ãðàäèåíò_79-4);}.cls-101{fill:url(#Áåçûìÿííûé_ãðàäèåíò_151-8);}.cls-102{fill:url(#Áåçûìÿííûé_ãðàäèåíò_79-5);}.cls-103{fill:url(#Áåçûìÿííûé_ãðàäèåíò_84);}.cls-104{fill:url(#Áåçûìÿííûé_ãðàäèåíò_31-3);}.cls-105{fill:url(#Áåçûìÿííûé_ãðàäèåíò_84-2);}.cls-106{fill:url(#Áåçûìÿííûé_ãðàäèåíò_84-3);}.cls-107{fill:url(#Áåçûìÿííûé_ãðàäèåíò_31-4);}.cls-108{fill:url(#Áåçûìÿííûé_ãðàäèåíò_31-5);}.cls-109{fill:url(#Áåçûìÿííûé_ãðàäèåíò_87-8);}.cls-110{fill:url(#Áåçûìÿííûé_ãðàäèåíò_96);}.cls-111{fill:url(#Áåçûìÿííûé_ãðàäèåíò_96-2);}.cls-112{fill:url(#Áåçûìÿííûé_ãðàäèåíò_31-6);}.cls-113{fill:url(#Áåçûìÿííûé_ãðàäèåíò_31-7);}.cls-114{fill:url(#Áåçûìÿííûé_ãðàäèåíò_31-8);}.cls-115{fill:url(#Áåçûìÿííûé_ãðàäèåíò_31-9);}.cls-116{opacity:0.3;fill:url(#Áåçûìÿííûé_ãðàäèåíò_69);}.cls-117{fill:#fffede;}</style><clipPath id="clip-path"><rect class="cls-1" width="234.26" height="150.53" rx="25.96"/></clipPath><radialGradient id="Áåçûìÿííûé_ãðàäèåíò_42" cx="137" cy="84.35" r="13.42" gradientUnits="userSpaceOnUse"><stop offset="0" stop-color="#515151"/><stop offset="1" stop-color="#4f4f4f"/></radialGradient><radialGradient id="Áåçûìÿííûé_ãðàäèåíò_42-2" cx="152.06" cy="97.6" r="4.2" xlink:href="#Áåçûìÿííûé_ãðàäèåíò_42"/><radialGradient id="Áåçûìÿííûé_ãðàäèåíò_42-3" cx="170.22" cy="98.06" r="17" xlink:href="#Áåçûìÿííûé_ãðàäèåíò_42"/><radialGradient id="Áåçûìÿííûé_ãðàäèåíò_42-4" cx="202.18" cy="99.43" r="4.49" xlink:href="#Áåçûìÿííûé_ãðàäèåíò_42"/><linearGradient id="Áåçûìÿííûé_ãðàäèåíò_34" x1="124.61" y1="90.82" x2="202.75" y2="90.82" gradientUnits="userSpaceOnUse"><stop offset="0" stop-color="#3f3f3f"/><stop offset="1" stop-color="#202020"/></linearGradient><radialGradient id="Áåçûìÿííûé_ãðàäèåíò_42-5" cx="84.43" cy="104.76" r="9.6" xlink:href="#Áåçûìÿííûé_ãðàäèåíò_42"/><radialGradient id="Áåçûìÿííûé_ãðàäèåíò_42-6" cx="74.16" cy="125.21" r="11.49" xlink:href="#Áåçûìÿííûé_ãðàäèåíò_42"/><linearGradient id="Áåçûìÿííûé_ãðàäèåíò_34-2" x1="237.05" y1="193.68" x2="237.05" y2="153.34" gradientTransform="translate(-182.34 -30.09) rotate(-6.94)" xlink:href="#Áåçûìÿííûé_ãðàäèåíò_34"/><radialGradient id="Áåçûìÿííûé_ãðàäèåíò_42-7" cx="138.14" cy="80.59" r="15.89" xlink:href="#Áåçûìÿííûé_ãðàäèåíò_42"/><radialGradient id="Áåçûìÿííûé_ãðàäèåíò_37" cx="134.17" cy="99.36" r="15.11" gradientUnits="userSpaceOnUse"><stop offset="0" stop-color="#3a3a3a"/><stop offset="1" stop-color="#2c2c2c"/></radialGradient><radialGradient id="Áåçûìÿííûé_ãðàäèåíò_42-8" cx="177.81" cy="167.81" r="13.92" gradientTransform="matrix(1, -0.04, 0.04, 1.06, -54.38, -90.64)" xlink:href="#Áåçûìÿííûé_ãðàäèåíò_42"/><radialGradient id="Áåçûìÿííûé_ãðàäèåíò_37-2" cx="174.36" cy="184.23" r="13.25" gradientTransform="matrix(1, -0.04, 0.04, 1.06, -54.38, -90.64)" xlink:href="#Áåçûìÿííûé_ãðàäèåíò_37"/><radialGradient id="Áåçûìÿííûé_ãðàäèåíò_42-9" cx="171.32" cy="15.24" r="13.79" gradientTransform="matrix(1, -0.04, 0.03, 0.94, -48.68, 72.88)" xlink:href="#Áåçûìÿííûé_ãðàäèåíò_42"/><radialGradient id="Áåçûìÿííûé_ãðàäèåíò_37-3" cx="168.37" cy="31.41" r="13.23" gradientTransform="matrix(1, -0.04, 0.03, 0.94, -48.68, 72.88)" xlink:href="#Áåçûìÿííûé_ãðàäèåíò_37"/><radialGradient id="Áåçûìÿííûé_ãðàäèåíò_42-10" cx="164.55" cy="15.98" r="13.8" gradientTransform="matrix(1, -0.04, 0.03, 0.94, -48.11, 71.95)" xlink:href="#Áåçûìÿííûé_ãðàäèåíò_42"/><radialGradient id="Áåçûìÿííûé_ãðàäèåíò_37-4" cx="161.6" cy="32.15" r="13.23" gradientTransform="matrix(1, -0.04, 0.03, 0.94, -48.11, 71.95)" xlink:href="#Áåçûìÿííûé_ãðàäèåíò_37"/><linearGradient id="Áåçûìÿííûé_ãðàäèåíò_34-3" x1="136.07" y1="120.68" x2="136.07" y2="77.91" xlink:href="#Áåçûìÿííûé_ãðàäèåíò_34"/><linearGradient id="Áåçûìÿííûé_ãðàäèåíò_34-4" x1="127.95" y1="117.89" x2="127.95" y2="78.18" xlink:href="#Áåçûìÿííûé_ãðàäèåíò_34"/><linearGradient id="Áåçûìÿííûé_ãðàäèåíò_34-5" x1="122.11" y1="114.29" x2="122.11" y2="79.1" xlink:href="#Áåçûìÿííûé_ãðàäèåíò_34"/><linearGradient id="Áåçûìÿííûé_ãðàäèåíò_34-6" x1="115.94" y1="114.31" x2="115.94" y2="79.11" xlink:href="#Áåçûìÿííûé_ãðàäèåíò_34"/><radialGradient id="Áåçûìÿííûé_ãðàäèåíò_42-11" cx="83.51" cy="85.91" r="4.89" xlink:href="#Áåçûìÿííûé_ãðàäèåíò_42"/><radialGradient id="Áåçûìÿííûé_ãðàäèåíò_33" cx="60.78" cy="76" r="50.22" gradientUnits="userSpaceOnUse"><stop offset="0" stop-color="#828282"/><stop offset="1" stop-color="#707070"/></radialGradient><linearGradient id="Áåçûìÿííûé_ãðàäèåíò_40" x1="21.64" y1="82.44" x2="154.62" y2="82.44" gradientUnits="userSpaceOnUse"><stop offset="0" stop-color="#393939"/><stop offset="1" stop-color="#1b1b1b"/></linearGradient><radialGradient id="Áåçûìÿííûé_ãðàäèåíò_33-2" cx="173.32" cy="69.17" r="19.26" xlink:href="#Áåçûìÿííûé_ãðàäèåíò_33"/><radialGradient id="Áåçûìÿííûé_ãðàäèåíò_37-5" cx="167.92" cy="66.92" r="2.63" xlink:href="#Áåçûìÿííûé_ãðàäèåíò_37"/><radialGradient id="Áåçûìÿííûé_ãðàäèåíò_37-6" cx="190.44" cy="71.49" r="1.9" xlink:href="#Áåçûìÿííûé_ãðàäèåíò_37"/><radialGradient id="Áåçûìÿííûé_ãðàäèåíò_37-7" cx="188.24" cy="75.8" r="5.23" xlink:href="#Áåçûìÿííûé_ãðàäèåíò_37"/><radialGradient id="Áåçûìÿííûé_ãðàäèåíò_37-8" cx="109.57" cy="79.1" r="15.81" xlink:href="#Áåçûìÿííûé_ãðàäèåíò_37"/><radialGradient id="Áåçûìÿííûé_ãðàäèåíò_38" cx="107.98" cy="89.64" r="15.53" gradientUnits="userSpaceOnUse"><stop offset="0" stop-color="#757575"/><stop offset="1" stop-color="#707070"/></radialGradient><radialGradient id="Áåçûìÿííûé_ãðàäèåíò_37-9" cx="163.52" cy="25.01" r="14.48" gradientTransform="matrix(1, -0.05, 0.04, 0.95, -62.93, 64.54)" xlink:href="#Áåçûìÿííûé_ãðàäèåíò_37"/><radialGradient id="Áåçûìÿííûé_ãðàäèåíò_38-2" cx="100.58" cy="89.81" r="13.42" xlink:href="#Áåçûìÿííûé_ãðàäèåíò_38"/><radialGradient id="Áåçûìÿííûé_ãðàäèåíò_37-10" cx="156.21" cy="26.15" r="11.12" gradientTransform="matrix(1, -0.05, 0.04, 0.95, -62.93, 64.54)" xlink:href="#Áåçûìÿííûé_ãðàäèåíò_37"/><radialGradient id="Áåçûìÿííûé_ãðàäèåíò_38-3" cx="155.15" cy="33.56" r="10.9" gradientTransform="matrix(1, -0.05, 0.04, 0.95, -62.93, 64.54)" xlink:href="#Áåçûìÿííûé_ãðàäèåíò_38"/><radialGradient id="Áåçûìÿííûé_ãðàäèåíò_37-11" cx="149.8" cy="27.73" r="7.95" gradientTransform="matrix(1, -0.05, 0.04, 0.95, -62.93, 64.54)" xlink:href="#Áåçûìÿííûé_ãðàäèåíò_37"/><radialGradient id="Áåçûìÿííûé_ãðàäèåíò_38-4" cx="149.31" cy="33.03" r="7.79" gradientTransform="matrix(1, -0.05, 0.04, 0.95, -62.93, 64.54)" xlink:href="#Áåçûìÿííûé_ãðàäèåíò_38"/><radialGradient id="Áåçûìÿííûé_ãðàäèåíò_37-12" cx="119.34" cy="78.59" r="17.23" xlink:href="#Áåçûìÿííûé_ãðàäèåíò_37"/><radialGradient id="Áåçûìÿííûé_ãðàäèåíò_38-5" cx="115.25" cy="90.05" r="17.22" xlink:href="#Áåçûìÿííûé_ãðàäèåíò_38"/><linearGradient id="Áåçûìÿííûé_ãðàäèåíò_34-7" x1="179.94" y1="83.31" x2="179.94" y2="63.03" xlink:href="#Áåçûìÿííûé_ãðàäèåíò_34"/><radialGradient id="Áåçûìÿííûé_ãðàäèåíò_33-3" cx="75.32" cy="88.57" r="8.2" xlink:href="#Áåçûìÿííûé_ãðàäèåíò_33"/><linearGradient id="Áåçûìÿííûé_ãðàäèåíò_40-2" x1="77.19" y1="98.58" x2="85.13" y2="98.58" xlink:href="#Áåçûìÿííûé_ãðàäèåíò_40"/><linearGradient id="Áåçûìÿííûé_ãðàäèåíò_34-8" x1="73.83" y1="98.35" x2="73.83" y2="87.27" xlink:href="#Áåçûìÿííûé_ãðàäèåíò_34"/><radialGradient id="Áåçûìÿííûé_ãðàäèåíò_33-4" cx="73.99" cy="101.23" r="9.62" xlink:href="#Áåçûìÿííûé_ãðàäèåíò_33"/><radialGradient id="Áåçûìÿííûé_ãðàäèåíò_33-5" cx="58.27" cy="121.63" r="10.78" xlink:href="#Áåçûìÿííûé_ãðàäèåíò_33"/><linearGradient id="Áåçûìÿííûé_ãðàäèåíò_34-9" x1="62.87" y1="133.59" x2="62.87" y2="93.24" xlink:href="#Áåçûìÿííûé_ãðàäèåíò_34"/><radialGradient id="Áåçûìÿííûé_ãðàäèåíò_33-6" cx="107.42" cy="83.18" r="12.97" xlink:href="#Áåçûìÿííûé_ãðàäèåíò_33"/><radialGradient id="Áåçûìÿííûé_ãðàäèåíò_33-7" cx="99.45" cy="97.86" r="4.2" xlink:href="#Áåçûìÿííûé_ãðàäèåíò_33"/><radialGradient id="Áåçûìÿííûé_ãðàäèåíò_33-8" cx="117.6" cy="101.23" r="17.21" xlink:href="#Áåçûìÿííûé_ãðàäèåíò_33"/><radialGradient id="Áåçûìÿííûé_ãðàäèåíò_33-9" cx="148.86" cy="109.92" r="4.51" xlink:href="#Áåçûìÿííûé_ãðàäèåíò_33"/><linearGradient id="Áåçûìÿííûé_ãðàäèåíò_34-10" x1="122.74" y1="113.41" x2="122.74" y2="75.87" xlink:href="#Áåçûìÿííûé_ãðàäèåíò_34"/><radialGradient id="Áåçûìÿííûé_ãðàäèåíò_48" cx="56.03" cy="92.99" r="76.69" gradientUnits="userSpaceOnUse"><stop offset="0" stop-color="#d1d1d1"/><stop offset="1" stop-color="#1d1d1d"/></radialGradient><radialGradient id="Áåçûìÿííûé_ãðàäèåíò_74" cx="89.24" cy="375.47" r="12.17" gradientTransform="translate(54.38 -295.47) rotate(0.46)" gradientUnits="userSpaceOnUse"><stop offset="0" stop-color="#efa47e"/><stop offset="1" stop-color="#ff908d"/></radialGradient><radialGradient id="Áåçûìÿííûé_ãðàäèåíò_74-2" cx="102.89" cy="387.49" r="3.81" xlink:href="#Áåçûìÿííûé_ãðàäèåíò_74"/><radialGradient id="Áåçûìÿííûé_ãðàäèåíò_74-3" cx="119.36" cy="387.91" r="15.41" xlink:href="#Áåçûìÿííûé_ãðàäèåíò_74"/><radialGradient id="Áåçûìÿííûé_ãðàäèåíò_74-4" cx="148.35" cy="389.15" r="4.07" xlink:href="#Áåçûìÿííûé_ãðàäèåíò_74"/><linearGradient id="Áåçûìÿííûé_ãðàäèåíò_87" x1="78.01" y1="381.34" x2="148.86" y2="381.34" gradientTransform="translate(54.38 -295.47) rotate(0.46)" gradientUnits="userSpaceOnUse"><stop offset="0" stop-color="#fdb5b2"/><stop offset="1" stop-color="#b60037"/></linearGradient><radialGradient id="Áåçûìÿííûé_ãðàäèåíò_74-5" cx="41.57" cy="393.98" r="8.7" xlink:href="#Áåçûìÿííûé_ãðàäèåíò_74"/><radialGradient id="Áåçûìÿííûé_ãðàäèåíò_74-6" cx="32.26" cy="412.53" r="10.42" xlink:href="#Áåçûìÿííûé_ãðàäèåíò_74"/><linearGradient id="Áåçûìÿííûé_ãðàäèåíò_87-2" x1="160.6" y1="473.02" x2="160.6" y2="436.44" gradientTransform="translate(-127.71 -327.01) rotate(-6.49)" xlink:href="#Áåçûìÿííûé_ãðàäèåíò_87"/><radialGradient id="Áåçûìÿííûé_ãðàäèåíò_74-7" cx="90.27" cy="372.06" r="14.41" xlink:href="#Áåçûìÿííûé_ãðàäèåíò_74"/><radialGradient id="Áåçûìÿííûé_ãðàäèåíò_13" cx="86.67" cy="389.09" r="13.7" gradientTransform="translate(54.38 -295.47) rotate(0.46)" gradientUnits="userSpaceOnUse"><stop offset="0" stop-color="#db7060"/><stop offset="1" stop-color="#dd6a71"/></radialGradient><radialGradient id="Áåçûìÿííûé_ãðàäèåíò_74-8" cx="120.58" cy="441.54" r="12.62" gradientTransform="matrix(1, -0.03, 0.03, 1.06, 0.73, -386.54)" xlink:href="#Áåçûìÿííûé_ãðàäèåíò_74"/><radialGradient id="Áåçûìÿííûé_ãðàäèåíò_13-2" cx="117.45" cy="456.43" r="12.02" gradientTransform="matrix(1, -0.03, 0.03, 1.06, 0.73, -386.54)" xlink:href="#Áåçûìÿííûé_ãðàäèåíò_13"/><radialGradient id="Áåçûìÿííûé_ãðàäèåíò_74-9" cx="114.7" cy="322.04" r="12.51" gradientTransform="matrix(1, -0.03, 0.03, 0.94, 5.12, -222.98)" xlink:href="#Áåçûìÿííûé_ãðàäèåíò_74"/><radialGradient id="Áåçûìÿííûé_ãðàäèåíò_13-3" cx="112.03" cy="336.7" r="11.99" gradientTransform="matrix(1, -0.03, 0.03, 0.94, 5.12, -222.98)" xlink:href="#Áåçûìÿííûé_ãðàäèåíò_13"/><radialGradient id="Áåçûìÿííûé_ãðàäèåíò_74-10" cx="108.48" cy="322.7" r="12.51" gradientTransform="matrix(1, -0.03, 0.03, 0.94, 5.69, -223.91)" xlink:href="#Áåçûìÿííûé_ãðàäèåíò_74"/><radialGradient id="Áåçûìÿííûé_ãðàäèåíò_13-4" cx="105.81" cy="337.36" r="12" gradientTransform="matrix(1, -0.03, 0.03, 0.94, 5.69, -223.91)" xlink:href="#Áåçûìÿííûé_ãðàäèåíò_13"/><linearGradient id="Áåçûìÿííûé_ãðàäèåíò_87-3" x1="88.4" y1="408.42" x2="88.4" y2="369.64" xlink:href="#Áåçûìÿííûé_ãðàäèåíò_87"/><linearGradient id="Áåçûìÿííûé_ãðàäèåíò_87-4" x1="81.03" y1="405.89" x2="81.03" y2="369.88" xlink:href="#Áåçûìÿííûé_ãðàäèåíò_87"/><linearGradient id="Áåçûìÿííûé_ãðàäèåíò_87-5" x1="75.74" y1="402.63" x2="75.74" y2="370.72" xlink:href="#Áåçûìÿííûé_ãðàäèåíò_87"/><linearGradient id="Áåçûìÿííûé_ãðàäèåíò_87-6" x1="70.14" y1="402.64" x2="70.14" y2="370.72" xlink:href="#Áåçûìÿííûé_ãðàäèåíò_87"/><radialGradient id="Áåçûìÿííûé_ãðàäèåíò_74-11" cx="40.73" cy="376.89" r="4.44" xlink:href="#Áåçûìÿííûé_ãðàäèåíò_74"/><radialGradient id="Áåçûìÿííûé_ãðàäèåíò_31" cx="20.12" cy="367.9" r="45.54" gradientTransform="translate(54.38 -295.47) rotate(0.46)" gradientUnits="userSpaceOnUse"><stop offset="0" stop-color="#ffe3c7"/><stop offset="1" stop-color="#ffd8b3"/></radialGradient><linearGradient id="Áåçûìÿííûé_ãðàäèåíò_87-7" x1="-15.37" y1="373.75" x2="105.22" y2="373.75" xlink:href="#Áåçûìÿííûé_ãðàäèåíò_87"/><radialGradient id="Áåçûìÿííûé_ãðàäèåíò_31-2" cx="122.18" cy="361.71" r="17.47" xlink:href="#Áåçûìÿííûé_ãðàäèåíò_31"/><radialGradient id="Áåçûìÿííûé_ãðàäèåíò_151" cx="117.28" cy="359.67" r="2.39" gradientTransform="translate(54.38 -295.47) rotate(0.46)" gradientUnits="userSpaceOnUse"><stop offset="0" stop-color="#ef9372"/><stop offset="1" stop-color="#ff7a7b"/></radialGradient><radialGradient id="Áåçûìÿííûé_ãðàäèåíò_151-2" cx="137.71" cy="363.81" r="1.73" xlink:href="#Áåçûìÿííûé_ãðàäèåíò_151"/><radialGradient id="Áåçûìÿííûé_ãðàäèåíò_151-3" cx="135.7" cy="367.72" r="4.74" xlink:href="#Áåçûìÿííûé_ãðàäèåíò_151"/><linearGradient id="Áåçûìÿííûé_ãðàäèåíò_39" x1="110.35" y1="361.29" x2="119.71" y2="361.29" gradientTransform="translate(54.38 -295.47) rotate(0.46)" gradientUnits="userSpaceOnUse"><stop offset="0" stop-color="#c03e45"/><stop offset="1" stop-color="#bb485d"/></linearGradient><linearGradient id="Áåçûìÿííûé_ãðàäèåíò_39-2" x1="129.93" y1="364.56" x2="140.44" y2="364.56" xlink:href="#Áåçûìÿííûé_ãðàäèåíò_39"/><radialGradient id="Áåçûìÿííûé_ãðàäèåíò_151-4" cx="64.37" cy="370.71" r="14.34" xlink:href="#Áåçûìÿííûé_ãðàäèåíò_151"/><radialGradient id="Áåçûìÿííûé_ãðàäèåíò_79" cx="62.92" cy="380.27" r="14.08" gradientTransform="translate(54.38 -295.47) rotate(0.46)" gradientUnits="userSpaceOnUse"><stop offset="0" stop-color="#ffcfb1"/><stop offset="1" stop-color="#ffc2a2"/></radialGradient><radialGradient id="Áåçûìÿííûé_ãðàäèåíò_151-5" cx="105.93" cy="330.64" r="13.13" gradientTransform="matrix(1, -0.04, 0.04, 0.95, -9.06, -231.43)" xlink:href="#Áåçûìÿííûé_ãðàäèåíò_151"/><radialGradient id="Áåçûìÿííûé_ãðàäèåíò_79-2" cx="56.21" cy="380.43" r="12.17" xlink:href="#Áåçûìÿííûé_ãðàäèåíò_79"/><radialGradient id="Áåçûìÿííûé_ãðàäèåíò_151-6" cx="99.3" cy="331.67" r="10.08" gradientTransform="matrix(1, -0.04, 0.04, 0.95, -9.06, -231.43)" xlink:href="#Áåçûìÿííûé_ãðàäèåíò_151"/><radialGradient id="Áåçûìÿííûé_ãðàäèåíò_79-3" cx="98.34" cy="338.39" r="9.88" gradientTransform="matrix(1, -0.04, 0.04, 0.95, -9.06, -231.43)" xlink:href="#Áåçûìÿííûé_ãðàäèåíò_79"/><radialGradient id="Áåçûìÿííûé_ãðàäèåíò_151-7" cx="93.49" cy="333.1" r="7.21" gradientTransform="matrix(1, -0.04, 0.04, 0.95, -9.06, -231.43)" xlink:href="#Áåçûìÿííûé_ãðàäèåíò_151"/><radialGradient id="Áåçûìÿííûé_ãðàäèåíò_79-4" cx="93.04" cy="337.91" r="7.06" gradientTransform="matrix(1, -0.04, 0.04, 0.95, -9.06, -231.43)" xlink:href="#Áåçûìÿííûé_ãðàäèåíò_79"/><radialGradient id="Áåçûìÿííûé_ãðàäèåíò_151-8" cx="73.23" cy="370.25" r="15.62" xlink:href="#Áåçûìÿííûé_ãðàäèåíò_151"/><radialGradient id="Áåçûìÿííûé_ãðàäèåíò_79-5" cx="69.51" cy="380.64" r="15.62" xlink:href="#Áåçûìÿííûé_ãðàäèåíò_79"/><linearGradient id="Áåçûìÿííûé_ãðàäèåíò_84" x1="128.18" y1="374.53" x2="128.18" y2="356.14" gradientTransform="translate(54.38 -295.47) rotate(0.46)" gradientUnits="userSpaceOnUse"><stop offset="0" stop-color="#b60037"/><stop offset="1" stop-color="#fdb5b2"/></linearGradient><radialGradient id="Áåçûìÿííûé_ãðàäèåíò_31-3" cx="33.31" cy="379.3" r="7.44" xlink:href="#Áåçûìÿííûé_ãðàäèåíò_31"/><linearGradient id="Áåçûìÿííûé_ãðàäèåíò_84-2" x1="35" y1="388.38" x2="42.2" y2="388.38" xlink:href="#Áåçûìÿííûé_ãðàäèåíò_84"/><linearGradient id="Áåçûìÿííûé_ãðàäèåíò_84-3" x1="31.95" y1="388.17" x2="31.95" y2="378.12" xlink:href="#Áåçûìÿííûé_ãðàäèåíò_84"/><radialGradient id="Áåçûìÿííûé_ãðàäèåíò_31-4" cx="32.09" cy="390.78" r="8.72" xlink:href="#Áåçûìÿííûé_ãðàäèåíò_31"/><radialGradient id="Áåçûìÿííûé_ãðàäèåíò_31-5" cx="17.84" cy="409.28" r="9.78" xlink:href="#Áåçûìÿííûé_ãðàäèåíò_31"/><linearGradient id="Áåçûìÿííûé_ãðàäèåíò_87-8" x1="22.02" y1="420.12" x2="22.02" y2="383.54" xlink:href="#Áåçûìÿííûé_ãðàäèåíò_87"/><linearGradient id="Áåçûìÿííûé_ãðàäèåíò_96" x1="55.72" y1="397.32" x2="55.72" y2="387.59" gradientTransform="translate(54.38 -295.47) rotate(0.46)" gradientUnits="userSpaceOnUse"><stop offset="0" stop-color="#b60037"/><stop offset="1" stop-color="#b35247"/></linearGradient><linearGradient id="Áåçûìÿííûé_ãðàäèåíò_96-2" x1="63.7" y1="398.53" x2="63.7" y2="387.9" xlink:href="#Áåçûìÿííûé_ãðàäèåíò_96"/><radialGradient id="Áåçûìÿííûé_ãðàäèåíò_31-6" cx="62.42" cy="374.41" r="11.76" xlink:href="#Áåçûìÿííûé_ãðàäèåíò_31"/><radialGradient id="Áåçûìÿííûé_ãðàäèåíò_31-7" cx="55.19" cy="387.73" r="3.81" xlink:href="#Áåçûìÿííûé_ãðàäèåíò_31"/><radialGradient id="Áåçûìÿííûé_ãðàäèåíò_31-8" cx="71.65" cy="390.78" r="15.61" xlink:href="#Áåçûìÿííûé_ãðàäèåíò_31"/><radialGradient id="Áåçûìÿííûé_ãðàäèåíò_31-9" cx="99.99" cy="398.67" r="4.09" xlink:href="#Áåçûìÿííûé_ãðàäèåíò_31"/><linearGradient id="Áåçûìÿííûé_ãðàäèåíò_69" x1="76.31" y1="401.83" x2="76.31" y2="367.78" gradientTransform="translate(54.38 -295.47) rotate(0.46)" gradientUnits="userSpaceOnUse"><stop offset="0" stop-color="#fdb5b2"/><stop offset="1" stop-color="#a20037"/></linearGradient></defs><g class="cls-2"><g id="Capa_1" data-name="Capa 1"><g class="cls-3"><g class="cls-4"><g class="cls-5"><g class="cls-6"><polygon class="cls-7" points="83.36 83.25 78.74 0.61 79.04 0.6 83.65 83.24 83.36 83.25"/><polygon class="cls-7" points="160.42 72.07 160.13 72.06 162.32 0.08 162.61 0.09 160.42 72.07"/><path class="cls-8" d="M157.16,96.67A22,22,0,0,1,154.3,98c-2.58,1.11-6,2.51-6,2.51l-.33-.19-.81-.48s-2-2.51-2.56-3.41c-2.07-3.55-8.38-7.42-10.56-8.64s-6.48-.92-7.52-2.24a11.75,11.75,0,0,1-1.92-5.22c.1-.73,1.69-3.31,2.33-3.26l1.37,1.18s.63.85,5.65,5.09a70.16,70.16,0,0,0,7,5h0c4.14,2.65,8,4.81,8,4.81l2.13-.22a14.16,14.16,0,0,1,4.21,1.86,6.52,6.52,0,0,1,1.45,1.32l.15.2C157,96.43,157.09,96.55,157.16,96.67Z"/><path class="cls-9" d="M158.83,96.55v.91a9,9,0,0,0-2.41,1.14,15,15,0,0,0-1.71,1.31c-.25.21-.47.42-.65.6s-.38.38-.5.5l-.2.22h0l-2.47.68-.41.12a12.54,12.54,0,0,1-2.52-1.35.72.72,0,0,1,.09-.36,13.08,13.08,0,0,1,.68-1.24l.34-.53a6,6,0,0,1,4.78-3c.21,0,.6.07,1.07.15l1.92.37.51.11.57.12Z"/><path class="cls-10" d="M202.3,96l0,0a12.29,12.29,0,0,1-2.61,2.55,4.42,4.42,0,0,1-1.09.54s-34.85,9.77-48,3.13l.31-.33,1.31-1.37s.36.14,1.05.35l.36.11c4,1.14,16,3.75,32.45-.88,0,0-11.5-2.95-31.3-.22l-.93.13a3,3,0,0,1,.53-2,3.59,3.59,0,0,1,1.16-1.08,5.47,5.47,0,0,1,1.47-.61,1.9,1.9,0,0,1,.36-.09,4.23,4.23,0,0,1,.56-.12l1.33,0c5,.14,23.16.53,36.86-.5,1.12-.08,2.2-.18,3.24-.28l2.08-.23Z"/><path class="cls-11" d="M206,107c-.39-.09-2.34-4.09-2.34-4.09l-3.22-3.51-.8-.86L202.27,96l0,0,.45.36a9.69,9.69,0,0,1,2.87,3.78C206.42,102.46,206.4,107.14,206,107Z"/><path class="cls-12" d="M202.3,96l-.94-.87-2.08.23c-1.49.86-4.23,1.91-9,2.31-7.94.67-28-.26-31.45-.43l-.52,0,.53-.64.35-.43-1.33,0a4.23,4.23,0,0,0-.56.12l-.51-.11a6.52,6.52,0,0,0-1.45-1.32h0a50.64,50.64,0,0,0-7.42,2,14.85,14.85,0,0,1-2.71-2.33c-.87-1.09-4.06-5.92-4.21-6.14h0a70.16,70.16,0,0,1-7-5c-5-4.24-5.65-5.09-5.65-5.09L127,77.08c-.64,0-2.23,2.53-2.33,3.26a11.75,11.75,0,0,0,1.92,5.22c1,1.32,5.34,1,7.52,2.24s8.49,5.09,10.56,8.64c.52.9,2.56,3.41,2.56,3.41l.81.48a.72.72,0,0,0-.09.36,12.54,12.54,0,0,0,2.52,1.35l.41-.12-.31.33c13.2,6.64,48-3.13,48-3.13a4.42,4.42,0,0,0,1.09-.54l.8.86,2.29-3.07Zm-48.75,5c.12-.12.29-.3.5-.5s.4-.39.65-.6c19.8-2.73,31.3.22,31.3.22C169.59,104.76,157.52,102.15,153.55,101Z"/><path class="cls-13" d="M199.52,98.6A3.85,3.85,0,0,1,201.28,95l.16.24a3.53,3.53,0,0,0-1.63,3.3Z"/><path class="cls-13" d="M148.13,100.37l-.27-.09c0-.15,1.3-3.66,7.42-5.62l.09.27C149.41,96.85,148.15,100.34,148.13,100.37Z"/><path class="cls-13" d="M189.21,101.46a6.93,6.93,0,0,0-3.22-1.18l0-.29a7.18,7.18,0,0,1,3.39,1.25Z"/><path class="cls-14" d="M88.4,97a12.85,12.85,0,0,0-1,3.56l-.06.45a33.74,33.74,0,0,0,.77,10.42c.64,2.82,1,3.64.88,4.19a1.82,1.82,0,0,1-.59.79,15,15,0,0,1-1.31,1.07l-.26-.09a4.35,4.35,0,0,1-2.76-2.28.82.82,0,0,1,0-.11,3,3,0,0,0,1-2c-.06-1-1.64-11-2.55-12.6s-2.53-3.26-2.74-3.87.71-3.52,1-3.91,3.56-.89,4.28-.53S88.73,96.32,88.4,97Z"/><path class="cls-15" d="M86.75,118.21c-.07.08-.7.46-1.61,1-2.71,1.62-7.94,4.74-9,6.29-.24.34-.51.77-.79,1.25-1.42,2.45-3.17,6.26-3.68,6.66s-4.52,1.23-4.52,1.23l-2.63-.13-2.49.75c-.93-.24-.47-.84-.47-.84s3.67-2.94,4.67-3.65,4.54-5.43,4.54-5.43l-1.29-1-3-.72-.08-.64a13.22,13.22,0,0,1,6.15-.42,36.34,36.34,0,0,0,4.83-2.3c2.49-1.44,5.44-4.69,5.77-5a2,2,0,0,1,1-.19h.43l2.33,2.27h0A.87.87,0,0,1,86.75,118.21Z"/><path class="cls-16" d="M87.49,100.29l0,.31-.06.45,0,.2a3.34,3.34,0,0,0-1.58,1.37c-.43.91-.76,10,.15,12a2.7,2.7,0,0,0,2.52,1.82,15,15,0,0,1-1.31,1.07l-.26-.09a.87.87,0,0,1-.13.78c-.07.08-.7.46-1.61,1a8,8,0,0,0-4.06-.38c-2.34.49-7.32,4.06-7.32,4.06l-.45,1.68s-5.73,5.67-6,7.19a1.93,1.93,0,0,0,1.51,1.31l5-6.22,1.41-.1c-1.42,2.45-3.17,6.26-3.68,6.66s-4.52,1.23-4.52,1.23l-2.63-.13-2.49.75c-.93-.24-.47-.84-.47-.84s3.67-2.94,4.67-3.65,4.54-5.43,4.54-5.43l-1.29-1-3-.72-.08-.64a13.22,13.22,0,0,1,6.15-.42,36.34,36.34,0,0,0,4.83-2.3c2.49-1.44,5.44-4.69,5.77-5a2,2,0,0,1,1-.19.82.82,0,0,1,0-.11,3,3,0,0,0,1-2c-.06-1-1.64-11-2.55-12.6s-2.53-3.26-2.74-3.87.71-3.52,1-3.91,3.56-.89,4.28-.53c0,0-2.32.73-2.91,1.72s3.27,6,3.93,6.62S87.49,100.29,87.49,100.29Z"/><path class="cls-13" d="M70.83,125.46l-.2-.22a3.44,3.44,0,0,0,1-2.73l.29,0A3.72,3.72,0,0,1,70.83,125.46Z"/><path class="cls-13" d="M69.29,124.38a5.79,5.79,0,0,1,.4-2l.27.11a5.69,5.69,0,0,0-.37,1.9Z"/><path class="cls-13" d="M68.82,133.22a5,5,0,0,1-2.76-2.37l.27-.13a4.72,4.72,0,0,0,2.59,2.22Z"/><path class="cls-13" d="M86.84,117.58a3.44,3.44,0,0,1-2.86-2.4l.29-.06c0,.07.35,1.64,2.64,2.17Z"/><path class="cls-17" d="M131.38,79.44s8.44,21.29,1.08,41l.29.2s15.38-21.86,3.55-42.77Z"/><path class="cls-18" d="M133.7,78.18s8.1,20.64-1.24,42.3l-.39.07s7.34-19.59-.69-41.11Z"/><path class="cls-19" d="M123.6,79.68s8.09,19.49,2.28,38l.26.18S138.89,96,127.71,78.18Z"/><path class="cls-20" d="M125.59,78.44s7.77,18.9.29,39.27l-.34.08a62.62,62.62,0,0,0-1.94-38.11Z"/><path class="cls-21" d="M119,79.63s6.06,17.94.18,34.5l.26.16s11.53-16.9,2.69-35.18Z"/><path class="cls-22" d="M120.72,79.1a53.12,53.12,0,0,1-1.58,35l-.34.08A55,55,0,0,0,119,79.63Z"/><path class="cls-23" d="M112.79,79.63s6,18,.18,34.52l.26.16s11.53-16.92,2.69-35.2Z"/><path class="cls-24" d="M114.55,79.11a53.15,53.15,0,0,1-1.58,35l-.34.07a55,55,0,0,0,.16-34.59Z"/><g class="cls-25"><path class="cls-26" d="M136.3,77.91l-2.42.75c-.11-.31-.18-.48-.18-.48l-2.32,1.26c.22.6.43,1.2.63,1.79a68,68,0,0,1,1.9,7.1,64.37,64.37,0,0,1-1.84,32.22l.39-.07.29.2S148.13,98.82,136.3,77.91Z"/><path class="cls-27" d="M127.71,78.18l-1.95.71c-.1-.29-.17-.45-.17-.45l-2,1.24c.21.54.41,1.07.6,1.61.49,1.41,1.22,3.69,1.91,6.59a63.09,63.09,0,0,1-.57,29.91l.34-.08.26.18S138.89,96,127.71,78.18Z"/><path class="cls-28" d="M120.8,79.32l-.08-.22-1.76.53c.11.36.22.72.32,1.08a65.14,65.14,0,0,1,2.31,13.74,52.23,52.23,0,0,1-2.79,19.76l.34-.08.26.16s11.53-16.9,2.69-35.18Z"/><path class="cls-29" d="M115.92,79.11l-1.29.21-.08-.21-1.76.52c.11.36.21.72.32,1.08a65.14,65.14,0,0,1,2.31,13.75,52.23,52.23,0,0,1-2.79,19.76l.34-.07.26.16S124.76,97.39,115.92,79.11Z"/></g><path class="cls-30" d="M85.46,85.11s-.62,5,0,7.64,1,2.6.7,3.39A7.23,7.23,0,0,1,84.9,98l-5.65-4.3-2.74-7.05Z"/><path class="cls-31" d="M154.62,66.34v9.88a6,6,0,0,1-2.36,1.88c-1.1.27-4-2.6-4-2.6-2.79.45-5.08,2.38-5.79,2.38S141,77,141,77a7.58,7.58,0,0,0-5.21,3.15l-1.08-.63a37,37,0,0,0-6.47,1l-.71-.63a48.64,48.64,0,0,0-10.69.67l-.4-.76a31.74,31.74,0,0,0-8.53,1.57l-.63-.36c-3.5.18-8.93,2.92-8.93,2.92l-1-.72a9.27,9.27,0,0,0-5.25,3l-.81-.63-5.2,1.93-1-.36A23.75,23.75,0,0,0,77,90a9.52,9.52,0,0,1-2.33-.53s-3.55,2.06-4.22,2.28a9.89,9.89,0,0,1-2.34.18c-2.47.68-8.62,2.88-9.07,2.92s-2.24.45-4.85,1-8.82,2.13-9.09,2.19-2.42.27-8.51.88a74,74,0,0,1-10.36.38c-.48,0-2.45-.42-4.55-.7l-.84-.11a35.08,35.08,0,0,1-4-.66h-.05a3.57,3.57,0,0,1-.75-.26,19.11,19.11,0,0,0-2.79-1.58c-1.52-.67-3.36-1-3.72-1.3a5,5,0,0,0-2.56-2c-1.89-.63-2.47-.63-2.6-2S2.8,85.83,3.25,86.1,4,88.34,6,90.4s3.59,2.25,4.85,3.51,4.49,1.88,5.39,1.88,1.88,1.43,4.13,1.77,5.34-.45,6.28-.45a23.45,23.45,0,0,0,9,0A29.88,29.88,0,0,0,42.49,95l.69-.33.14-.06.06,0c.57-.23,4.52.07,8.15-1a19.13,19.13,0,0,0,4.86-2.32,3.82,3.82,0,0,1,.86-.43,1.51,1.51,0,0,1,.34-.08c.94-.09,7.78-2,9.44-2.53l.21-.06.16,0s0-.73,2.51-1A7.53,7.53,0,0,0,73.41,86,5.48,5.48,0,0,1,74,84.47,3,3,0,0,1,75.7,83a23.17,23.17,0,0,0,7.8.2c.82-.1,1.32-.2,1.32-.2v-.63c2.29-.54,5.38-1.35,5.38-1.35l.72-1.12a24.52,24.52,0,0,0,4.86-.31,9.49,9.49,0,0,0,.93-.19v-.91c2.92-.74,10.44-1.08,10.44-1.08.1-.87,1.14-1.21,1.14-1.21a14.07,14.07,0,0,0,7-.3l.07,0,.53-.16.12,0,.08,0h0l1-1.06a16.77,16.77,0,0,0,2.84.76,16.12,16.12,0,0,0,4.36.24l1.85-.52h0l.77-.21a15.81,15.81,0,0,0,4.39.72c.64,0,1.07,0,1.07,0s.27-1.34.81-1.48,5.41-.89,6.46-1.06l.2,0a18.74,18.74,0,0,1,2.5-3,26.31,26.31,0,0,1,5-.85c.47-.07.85-.12,1.09-.17a1.89,1.89,0,0,0,.64-.32c1.28-.9,3.33-3.3,3.67-3.24A12.37,12.37,0,0,1,154.62,66.34Z"/><path class="cls-32" d="M154.62,66.34v9.88a6,6,0,0,1-2.36,1.88c-1.1.27-4-2.6-4-2.6-2.79.45-5.08,2.38-5.79,2.38S141,77,141,77a7.58,7.58,0,0,0-5.21,3.15l-1.08-.63a37,37,0,0,0-6.47,1l-.71-.63a48.64,48.64,0,0,0-10.69.67l-.4-.76a31.74,31.74,0,0,0-8.53,1.57l-.63-.36c-3.5.18-8.93,2.92-8.93,2.92l-1-.72a9.27,9.27,0,0,0-5.25,3l-.81-.63-5.2,1.93-1-.36A23.75,23.75,0,0,0,77,90a9.52,9.52,0,0,1-2.33-.53s-3.55,2.06-4.22,2.28a9.89,9.89,0,0,1-2.34.18c-2.47.68-8.62,2.88-9.07,2.92s-2.24.45-4.85,1-8.82,2.13-9.09,2.19-2.42.27-8.51.88a74,74,0,0,1-10.36.38c-.48,0-2.45-.42-4.55-.7a12.47,12.47,0,0,0,2.95-.05,1.66,1.66,0,0,0,1.29-1.44l.8-.08s0,1.55,2,1.78,13.24-.77,13.79-1.21,0-2.64,0-2.64l.69-.33.14-.06.06,0s.31,2,1.93,2.38,11.92-1.76,12.25-2.92-1.17-2.82-1.17-2.82l.86-.43s1.44,2.13,3.19,2.35S67,91.26,67,91.26a3.17,3.17,0,0,0,0-3l.21-.06.16,0,2.11,2.73c1.12.23,4.58-2.39,4.58-2.39a8.08,8.08,0,0,1-.68-2.5A5.48,5.48,0,0,1,74,84.47c1.51,3.42,3.43,3.62,3.43,3.62a17.68,17.68,0,0,0,6.3-2.15,3.94,3.94,0,0,0-.25-2.7c.82-.1,1.32-.2,1.32-.2v-.63c.35,2.91,1.35,3.53,1.35,3.53a13.38,13.38,0,0,0,4.72-1.18,10.16,10.16,0,0,1-.69-3.7l.72-1.12a5.13,5.13,0,0,0,1,3.84,17.1,17.1,0,0,0,4.78-1.34,7.2,7.2,0,0,1-.93-2.81,9.49,9.49,0,0,0,.93-.19v-.91c.94,3.9,2.05,3.91,2.06,3.91A17.45,17.45,0,0,0,106.23,80a15.45,15.45,0,0,0,.92-2.54c.1-.87,1.14-1.21,1.14-1.21a3.72,3.72,0,0,0,2.65,3.36l2.38-.42a6.47,6.47,0,0,0,2-3.24l.07,0,.53-.16.12,0,.08,0h0l.34,3,2.38-.27a4.42,4.42,0,0,0,1.07-3,16.12,16.12,0,0,0,4.36.24l1.85-.52h0c1.71,1.17,2,4.49,2,4.49l3.64-.73a6.13,6.13,0,0,0-.53-3.25.48.48,0,0,0,0-.08l1.11.09a5.14,5.14,0,0,0,2.8,2.5c2.15-.14,4.47-2.09,4.47-2.09v-3l.2,0a18.74,18.74,0,0,1,2.5-3c-2.63,3.7-1,5-1,5l4.25-.81,1.67-5.09c.47-.07.85-.12,1.09-.17a1.89,1.89,0,0,0,.64-.32c-2.19,2-1.45,5.58-1.45,5.58L151,75.54c-.6-4.39,1.76-10.07,1.76-10.07A12.37,12.37,0,0,1,154.62,66.34Z"/><path class="cls-13" d="M15.85,97.66a1.87,1.87,0,0,1,.71-1.92l.15.25-.08-.13.08.13a1.59,1.59,0,0,0-.57,1.63Z"/><path class="cls-13" d="M9.63,94.77l-.29,0a1.54,1.54,0,0,1,1-1.44l.09.29A1.21,1.21,0,0,0,9.63,94.77Z"/><path class="cls-13" d="M4.79,91.72H4.5s0-1.07,1.5-1.46l.07.29C4.82,90.87,4.79,91.68,4.79,91.72Z"/><path class="cls-13" d="M26.08,99.48a2.92,2.92,0,0,1-.34-2.33l.29.08a2.58,2.58,0,0,0,.27,2Z"/><path class="cls-13" d="M44.44,98.3a4.79,4.79,0,0,1-1.2-3.69l.29,0a4.61,4.61,0,0,0,1.11,3.45Z"/><path class="cls-13" d="M58.9,95a6.27,6.27,0,0,1-2-4.08h.3a6.05,6.05,0,0,0,1.87,3.88Z"/><path class="cls-13" d="M68.24,92.05a7.29,7.29,0,0,1-1-4l.29,0a7.2,7.2,0,0,0,.95,3.77Z"/><path class="cls-13" d="M74.5,89.59A9.12,9.12,0,0,1,73.27,86l.29,0a8.75,8.75,0,0,0,1.19,3.48Z"/><path class="cls-13" d="M85,87.23A8.14,8.14,0,0,1,84.67,83l.29.06a8.15,8.15,0,0,0,.3,4Z"/><path class="cls-13" d="M91.2,85.67a9.22,9.22,0,0,1-1.14-4.61h.29a9.14,9.14,0,0,0,1.1,4.46Z"/><path class="cls-13" d="M97.25,83.28a6.8,6.8,0,0,1-.68-3.87l.29,0a6.52,6.52,0,0,0,.66,3.69Z"/><path class="cls-13" d="M107.12,81.06a6.85,6.85,0,0,1-.11-3.65l.28.08A6.69,6.69,0,0,0,107.4,81Z"/><path class="cls-13" d="M116.27,79.84A25.62,25.62,0,0,1,116,75.7h.29a26.56,26.56,0,0,0,.27,4.08Z"/><path class="cls-13" d="M127.36,79.9a8.05,8.05,0,0,0-1.86-4.53l.22-.2a8.25,8.25,0,0,1,1.93,4.73Z"/><path class="cls-13" d="M133.56,79.71c-1.06-.93-1.3-3.94-1.31-4.07l.3,0s.23,3,1.21,3.87Z"/><path class="cls-13" d="M140.86,77.12c-1.09-1.26-1.13-4-1.14-4.06h.3s0,2.69,1.07,3.87Z"/><path class="cls-13" d="M148.12,75.57a5.66,5.66,0,0,1,.85-7l.19.22a5.28,5.28,0,0,0-.78,6.61Z"/><path class="cls-33" d="M207.62,82.71,202.36,80l-3.09-.87s-3.91-1.22-13.88-.68-20.8,4.85-20.8,4.85l-5.26-.74c-1.27-3.36-5.72-6.33-5.72-6.33l-1.35-2.69c.21-5.39,2.36-7.21,2.36-7.21a18.11,18.11,0,0,1,7.7-3.31h0a12.49,12.49,0,0,1,5.16.09l2,1.75s3.37,2,12.06,4.51a99.37,99.37,0,0,0,19,3,5.31,5.31,0,0,1,.56.2C205.74,74.48,207.62,82.71,207.62,82.71Z"/><path class="cls-34" d="M171.38,70.52A3.45,3.45,0,0,1,169,72.33c-1.75.48-8.15.21-8.62,0s-1.68-2.62-1.35-2.82a11.46,11.46,0,0,1,1.22-1.06,8,8,0,0,1,4.92-1.9c2.12.08,4.28,1.72,5.4,2.87C171.15,70,171.45,70.43,171.38,70.52Z"/><path class="cls-35" d="M194.31,74c-.54.4-7,.31-8.71,0a14.4,14.4,0,0,1-5.21-2.7s.52,0,1.48,0c1.2,0,3.07.08,5.48.33a19.59,19.59,0,0,1,6.11,1.55C194.18,73.55,194.51,73.87,194.31,74Z"/><path class="cls-36" d="M155.74,75.54s2.27,3,3.27,3.24,19.18-1.17,26.36-1.62a40.07,40.07,0,0,1,15.54,2.44,36.12,36.12,0,0,0-8.36-2.89c-4-.72-12.72,1.28-20.89,1.15A71.4,71.4,0,0,1,155.74,75.54Z"/><path class="cls-37" d="M170.6,69.42a2.18,2.18,0,0,1-1.27,1.17,15.55,15.55,0,0,1-6,0,5.33,5.33,0,0,1-3-2.14,8,8,0,0,1,4.92-1.9C167.32,66.63,169.48,68.27,170.6,69.42Z"/><path class="cls-37" d="M193.46,73.19a26.71,26.71,0,0,1-6.56-.13,13.52,13.52,0,0,1-5-1.75c1.2,0,3.07.08,5.48.33A19.59,19.59,0,0,1,193.46,73.19Z"/><path class="cls-38" d="M106.46,93.64a32.25,32.25,0,0,0-.23,4.92,49.68,49.68,0,0,0,1.35,9.89A64.75,64.75,0,0,0,111,119a0,0,0,0,1,0,0h-.3a39.81,39.81,0,0,1-5.93-11.1A34.68,34.68,0,0,1,103,98.05a37.37,37.37,0,0,1,5.37-20.59l3.83-1,0,.06C111.65,77.14,107.89,82.57,106.46,93.64Z"/><path class="cls-39" d="M109.44,99.05a59.18,59.18,0,0,0-.08,7.48c0,1,.12,1.93.22,2.81a39.15,39.15,0,0,0,2,9.66H111l0,0a40.18,40.18,0,0,1-5.24-11.32,33.71,33.71,0,0,1-1.27-9.34,36.57,36.57,0,0,1,7.63-21.79l0-.06,1.51,3.5c-.36,1-.7,1.94-1,2.9A68.21,68.21,0,0,0,109.44,99.05Z"/><path class="cls-40" d="M103.63,78.37l-3.28,1s-11,18,3.7,35.86h.26s-5.79-11.49-4.94-21.77S103.63,78.37,103.63,78.37Z"/><path class="cls-41" d="M102.93,108.44a31.44,31.44,0,0,0,1.92,6.79l-.54,0s0,0,0,0a34.43,34.43,0,0,1-5.23-10.35,29.17,29.17,0,0,1-.92-4.07,31.4,31.4,0,0,1,5.47-22.42v0l1.44,3a59.8,59.8,0,0,0-2.9,16.6A50.31,50.31,0,0,0,102.93,108.44Z"/><path class="cls-42" d="M95.89,80.33l-2.52.8a24.33,24.33,0,0,0,2.84,27.53h.2S92,99.83,92.62,91.94,95.89,80.33,95.89,80.33Z"/><path class="cls-43" d="M97,83.33l-1.14-3a23.73,23.73,0,0,0,.52,28.32l.41,0S92.07,98.87,97,83.33Z"/><path class="cls-44" d="M89.35,82.63l-3.19,1s-5.74,9.26,3.42,19.23h.14s-3.18-6.31-2.71-12S89.35,82.63,89.35,82.63Z"/><path class="cls-45" d="M90.16,84.78l-.81-2.15a17,17,0,0,0,.37,20.24l.29,0S86.62,95.88,90.16,84.78Z"/><path class="cls-46" d="M123.68,75.7h0c-.33.33-10.86,10.79-10.68,23.12,0,.26,0,.52,0,.78a52.15,52.15,0,0,0,1.35,10.05c.41,1.77.88,3.42,1.35,4.89s.9,2.65,1.32,3.7c0,.11.08.2.11.3.82,2,1.45,3.29,1.5,3.4l-.16-.1h0c-1.56-1-5.82-6-8.33-12.89-.29-.78-.55-1.59-.79-2.42a29.23,29.23,0,0,1-1.15-7.67c0-.62,0-1.24,0-1.87a30.28,30.28,0,0,1,4.42-14.15,27.07,27.07,0,0,1,5-6.19Z"/><path class="cls-47" d="M124.36,79.91l-.68-4.21s-11.13,5-13.64,19.85,8.08,26.4,8.62,26.4-6-8.9-4.13-23.13S124.36,79.91,124.36,79.91Z"/><path class="cls-48" d="M207.62,82.71,202.36,80l-3.09-.87s-3.91-1.22-13.88-.68-20.8,4.85-20.8,4.85l-5.26-.74c-1.27-3.36-5.72-6.33-5.72-6.33l-1.35-2.69c.21-5.39,2.36-7.21,2.36-7.21a18.11,18.11,0,0,1,7.7-3.31c-.38.17-5.86,2.68-7,7.49l3.39,2.54a24.49,24.49,0,0,0,8,1.23,14.53,14.53,0,0,1-6.58.75l.9.5s14.61,1.58,22,.93,18.1-3.87,18.1-3.87C205.74,74.48,207.62,82.71,207.62,82.71Z"/><path class="cls-49" d="M85.13,97.72c.05.55-5.58,2.51-7.94,3.08a3.79,3.79,0,0,1-1,.15c-.67-.12-5.85-6.39-6.79-8.44h0A1.17,1.17,0,0,1,69.3,92c.21-1,.85-1.2,2.41-1.94.64-.3,1.32-1.47,1.93-2.77.89-1.88,1.66-4,2.06-4.23.68-.34,4.85,1.35,4.85,1.35a13.61,13.61,0,0,0,1,9.09c.88,1.48,2.16,1.08,2.56,1.41a4.67,4.67,0,0,1,.78,1.79A6.11,6.11,0,0,1,85.13,97.72Z"/><path class="cls-50" d="M85.13,97.72c.05.55-5.58,2.51-7.94,3.08l1.14-4.43,1.92,1.68a5.62,5.62,0,0,1,4.65-1.37A6.11,6.11,0,0,1,85.13,97.72Z"/><path class="cls-51" d="M78.09,98a4.32,4.32,0,0,1-2.76.21c-1.24-.44-5.88-5.68-5.88-5.68h0A1.17,1.17,0,0,1,69.3,92c.21-1,.85-1.2,2.41-1.94.64-.3,1.32-1.47,1.93-2.77a9.24,9.24,0,0,1,3.58,3.64C79.1,94,78.09,98,78.09,98Z"/><path class="cls-52" d="M79.2,98.82a13.53,13.53,0,0,0-1.38,3.42l-.11.44a34.1,34.1,0,0,0-.49,10.44c.29,2.87.5,3.72.37,4.26,0,.2-.34.46-.69.72a14.69,14.69,0,0,1-1.42.9l-.26-.11a4.31,4.31,0,0,1-2.45-2.61.31.31,0,0,1,0-.11A3,3,0,0,0,74,114.31c.07-1.06-.29-11.11-1-12.82S70.9,98,70.76,97.32s1.13-3.41,1.44-3.77,3.64-.45,4.31,0S79.62,98.15,79.2,98.82Z"/><path class="cls-53" d="M75,119.64c-.08.07-.75.38-1.72.81-2.88,1.28-8.45,3.74-9.73,5.15-.28.3-.6.7-.94,1.14-1.7,2.27-3.9,5.83-4.46,6.17s-4.63.68-4.63.68l-2.6-.45-2.56.45c-.9-.36-.36-.9-.36-.9s4-2.47,5.08-3.05,5.16-4.85,5.16-4.85l-1.17-1.12-2.92-1.08V122a13.17,13.17,0,0,1,6.16.32,36.46,36.46,0,0,0,5.07-1.7c2.65-1.12,6-4,6.33-4.22a2,2,0,0,1,1.06-.07l.42.07,2,2.53h0A.82.82,0,0,1,75,119.64Z"/><path class="cls-54" d="M77.9,101.94l-.08.3-.11.44,0,.2a3.32,3.32,0,0,0-1.73,1.17c-.54.85-2,9.87-1.3,11.94a2.68,2.68,0,0,0,2.27,2.11,14.69,14.69,0,0,1-1.42.9l-.26-.11a.82.82,0,0,1-.22.75c-.08.07-.75.38-1.72.81a8,8,0,0,0-4-.87c-2.38.2-7.75,3.15-7.75,3.15l-.66,1.61s-6.37,4.94-6.78,6.42a1.94,1.94,0,0,0,1.35,1.48l5.74-5.57,1.41.07c-1.7,2.27-3.9,5.83-4.46,6.17s-4.63.68-4.63.68l-2.6-.45-2.56.45c-.9-.36-.36-.9-.36-.9s4-2.47,5.08-3.05,5.16-4.85,5.16-4.85l-1.17-1.12-2.92-1.08V122a13.17,13.17,0,0,1,6.16.32,36.46,36.46,0,0,0,5.07-1.7c2.65-1.12,6-4,6.33-4.22a2,2,0,0,1,1.06-.07.31.31,0,0,1,0-.11A3,3,0,0,0,74,114.31c.07-1.06-.29-11.11-1-12.82S70.9,98,70.76,97.32s1.13-3.41,1.44-3.77,3.64-.45,4.31,0c0,0-2.39.43-3.1,1.34s2.52,6.37,3.1,7S77.9,101.94,77.9,101.94Z"/><path class="cls-13" d="M58.32,124.91l-.17-.24a3.42,3.42,0,0,0,1.33-2.59h.29A3.69,3.69,0,0,1,58.32,124.91Z"/><path class="cls-13" d="M57.22,123.69l-.29,0a5.76,5.76,0,0,1,.64-1.94l.25.14A5.63,5.63,0,0,0,57.22,123.69Z"/><path class="cls-13" d="M55.39,132.37a5,5,0,0,1-2.45-2.69l.28-.09a4.71,4.71,0,0,0,2.3,2.52Z"/><path class="cls-13" d="M75.17,119a3.44,3.44,0,0,1-2.55-2.73l.29,0a3.2,3.2,0,0,0,2.36,2.48Z"/><path class="cls-55" d="M102.93,108.44l-1.87-1.73-2-1.83-.76.54-.59-1.73L97.15,102l.08-.1.92-1.09,1.35-1.6,1.26-1.5,1.41.22A50.31,50.31,0,0,0,102.93,108.44Z"/><path class="cls-55" d="M114.71,109.77l-.07,0-.27-.09-3.52-1.31h0l-.69.61c-.29-.78-.55-1.59-.79-2.42,0,1,.12,1.93.22,2.81l-2-.89-1.83-.82-1,.27A34.68,34.68,0,0,1,103,98.05l1.52.24,1.75.27,2,.3,1.23.19.23,0,3.35.52,1.33.2,0,.42h0Z"/><path class="cls-56" d="M126.37,79.9l-1.65.76s-1,.23-7,3-15.39,10.78-15.39,10.78L102.26,96l0,.64c-1.32,1.58-5.06,2.48-6.15,2.71l-.3.06V98.11s.68-1.74,3.6-4.63,12.29-10,14.3-11.52,3.51-5.52,5.13-5.92a11.76,11.76,0,0,1,5.56.4C125,76.83,126.67,79.33,126.37,79.9Z"/><path class="cls-57" d="M106.22,96.82v.9a9.15,9.15,0,0,0-2.4,1.15,15.33,15.33,0,0,0-2.36,1.9c-.45.43-.7.72-.7.72l0,0-2.88.79A13,13,0,0,1,95.3,101a4.75,4.75,0,0,1,.77-1.6l.34-.54a6,6,0,0,1,4.78-2.95,8.44,8.44,0,0,1,1.07.14c.92.16,2.15.42,3,.6Z"/><path class="cls-58" d="M149.82,106.34l0,0a12.43,12.43,0,0,1-3.07,2,4.35,4.35,0,0,1-1.17.32s-36.09,2.74-47.73-6.36L99.74,101s.32.2,1,.55c3.27,1.74,14.77,7,32.33,5.68,0,0-11-5.32-31.58-6.42a3.17,3.17,0,0,1,2.26-2.72,6.75,6.75,0,0,1,2.5-.33s21.57,5.07,37.54,7c1.86.23,3.65.42,5.32.54Z"/><path class="cls-59" d="M151.3,117.89c-.36-.17-1.48-4.48-1.48-4.48l-3.1-5.07,3.07-2,0,0,.37.44a9.77,9.77,0,0,1,2.07,4.27C152.6,113.48,151.66,118.06,151.3,117.89Z"/><path class="cls-60" d="M100.7,101.51l0,0s.25-.29.7-.72c20.55,1.1,31.58,6.42,31.58,6.42C115.47,108.54,104,103.25,100.7,101.51Zm49.49,5.27-.37-.44-.75-1c-1.67-.12-3.46-.31-5.32-.54h0l-7.15.81s-28.85-5.14-32.76-6.7c-.31-.13-.46-.23-.43-.31a2.18,2.18,0,0,1,.33-.51,11.94,11.94,0,0,1,1.55-1.44c-.85-.18-2.08-.44-3-.6l.11-1.52s-2.16-.36-1.61-1.25,12.61-10,13.37-10.24,3.59-5.57,5.13-6a37.11,37.11,0,0,1,5.1-.58,11.76,11.76,0,0,0-5.56-.4c-1.62.4-3.12,4.44-5.13,5.92s-11.37,8.63-14.3,11.52-3.6,4.63-3.6,4.63v1.31l.3-.06a4.75,4.75,0,0,0-.77,1.6,13,13,0,0,0,2.52,1.34c11.64,9.1,47.73,6.36,47.73,6.36a4.35,4.35,0,0,0,1.17-.32l3.1,5.07-.75-4.36Z"/><path class="cls-13" d="M146.87,108.35h-.29c0-.07,0-1.88,2.42-3.16l.14.25A3.8,3.8,0,0,0,146.87,108.35Z"/><path class="cls-13" d="M96.21,99.4l-.28-.09s1.18-3.44,6.28-3.44h.05v.29h-.06C97.33,96.16,96.25,99.27,96.21,99.4Z"/><path class="cls-13" d="M136,109.15a4.9,4.9,0,0,0-2.95-1.81l0-.3a5.17,5.17,0,0,1,3.14,1.91Z"/><path class="cls-13" d="M97.88,102.43l-.13-.26a7.89,7.89,0,0,1,3-.83v.3A7.77,7.77,0,0,0,97.88,102.43Z"/><path class="cls-61" d="M74.45,114.33a6.32,6.32,0,0,1,1,3.1S74.32,116.91,74.45,114.33Z"/><path class="cls-61" d="M44,94.62a1.65,1.65,0,0,1,.59,1,6,6,0,0,1,0,1s-1.46-1.1-.92-2.07Z"/><path class="cls-61" d="M58.58,90.55A5.78,5.78,0,0,1,59.86,93a3.49,3.49,0,0,1-2.61-2.21Z"/><path class="cls-61" d="M74.63,87.89,75.3,86s2.29.53,3.06,2.16-.69,3.67-.69,3.67A14.65,14.65,0,0,0,74.63,87.89Z"/><path class="cls-61" d="M75,94a7.49,7.49,0,0,1,.8,2.46,5.61,5.61,0,0,1-1.17,2.38,9.24,9.24,0,0,1-1.31-3.36C73.18,93.88,75,94,75,94Z"/><path class="cls-61" d="M132.06,104.76l9.46.25s-3.36.85-5,.56Z"/><path class="cls-61" d="M160.28,65.06l1.28,1.48a13.75,13.75,0,0,1,3.88-.91c1.33.07,5.16,2.23,5.16,2.23l.42-1.4a8.57,8.57,0,0,0-4.28-2.17A24.33,24.33,0,0,0,160.28,65.06Z"/><path class="cls-61" d="M177.74,70.89s8.93.09,10.68.42L185,70.25A13.86,13.86,0,0,0,177.74,70.89Z"/><path class="cls-61" d="M80.59,90.91,79.81,92s.52,2.69,1,2.89a6.8,6.8,0,0,0,2.29-.25,5.56,5.56,0,0,1-1.3-.91A11.13,11.13,0,0,1,80.59,90.91Z"/><polygon class="cls-61" points="84.82 82.41 85.13 83.78 87.45 82.41 84.82 82.41"/><path class="cls-61" d="M149.53,108.12l-.46.93a3.84,3.84,0,0,0,1.45,3.39A10.65,10.65,0,0,0,149.53,108.12Z"/><path class="cls-62" d="M202.75,96.37,202.3,96l-.94-.87-2.08.23c-1,.1-2.12.2-3.24.28-13.7,1-31.86.64-36.86.5l-1.33,0a4.23,4.23,0,0,0-.56.12l-.51-.11a6.52,6.52,0,0,0-1.45-1.32,14.16,14.16,0,0,0-4.21-1.86l-2.13.22s-3.87-2.16-8-4.81h0l-1-.62A34.23,34.23,0,0,0,136.85,79,7.2,7.2,0,0,1,141,77s.76.86,1.48.86,3-1.93,5.79-2.38c0,0,2.91,2.87,4,2.6a4.73,4.73,0,0,0,2-1.42c1.26.94,4.13,3.29,5.11,5.89l5.26.74s10.83-4.31,20.8-4.85,13.88.68,13.88.68l3.09.87,5.26,2.7s-1.88-8.23-6.52-10.11a5.31,5.31,0,0,0-.56-.2,99.37,99.37,0,0,1-19-3c-8.69-2.49-12.06-4.51-12.06-4.51l-2-1.75a12.49,12.49,0,0,0-5.16-.09h0a18.11,18.11,0,0,0-7.7,3.31,12.37,12.37,0,0,0-1.88-.87c-.34-.06-2.39,2.34-3.67,3.24a1.89,1.89,0,0,1-.64.32c-.24,0-.62.1-1.09.17a26.31,26.31,0,0,0-5,.85,18.74,18.74,0,0,0-2.5,3l-.2,0c-1,.17-6,.94-6.46,1.06s-.81,1.48-.81,1.48l-1.11-.09a.48.48,0,0,1,0,.08,15.81,15.81,0,0,1-4.39-.72l-.77.21h0l-.56.16h0l-1.29.36a16.12,16.12,0,0,1-4.36-.24,16.77,16.77,0,0,1-2.84-.76l-1,1.06h0l-.08,0-.12,0-.53.16-.07,0a19,19,0,0,1-3.14.58l0-.08-.41.11a10.1,10.1,0,0,1-3.46-.31s-1,.34-1.14,1.21c0,0-7.52.34-10.44,1.08v.91a9.49,9.49,0,0,1-.93.19,24.52,24.52,0,0,1-4.86.31l-.72,1.12s-3.09.81-5.38,1.35V83s-.5.1-1.32.2a26.5,26.5,0,0,1-5.8.13,4.31,4.31,0,0,0-2-.33A3,3,0,0,0,74,84.47,5.48,5.48,0,0,0,73.41,86a7.53,7.53,0,0,1-3.5,1.12c-2.47.31-2.51,1-2.51,1l-.16,0-.21.06c-1.38.4-6.28,1.8-8.47,2.33l-.84.18-.13,0a1.51,1.51,0,0,0-.34.08,3.82,3.82,0,0,0-.86.43,19.13,19.13,0,0,1-4.86,2.32c-3.31,1-6.86.85-7.91,1h0l-.23.05-.06,0-.14.06-.69.33a29.88,29.88,0,0,1-6.86,2.07,23.45,23.45,0,0,1-9,0c-.18,0-.46,0-.79.08h0a20.55,20.55,0,0,1-5.48.37c-1.95-.29-2.95-1.41-3.77-1.7h0a1.15,1.15,0,0,0-.36-.07c-.9,0-4.13-.63-5.39-1.88a4.29,4.29,0,0,0-.52-.45h0C9.21,92.57,7.82,92.19,6,90.4c-2.06-2.06-2.33-4-2.78-4.3s.94,3.23,1.08,4.62a1.78,1.78,0,0,0,.32,1h0c.35.46,1,.61,2.28,1a5,5,0,0,1,2.56,2c.36.27,2.2.63,3.72,1.3A19.11,19.11,0,0,1,16,97.64a3.57,3.57,0,0,0,.75.26h.05a35.08,35.08,0,0,0,4,.66l.84.11c2.1.28,4.07.7,4.55.7A74,74,0,0,0,36.55,99c4.67-.47,7-.69,8-.8h0c.29,0,.46-.06.52-.08.27-.06,6.49-1.61,9.09-2.19s4.41-1,4.85-1,6.6-2.24,9.07-2.92h.29l1,0v0a1.17,1.17,0,0,0,.14.53h0a19,19,0,0,0,1.85,2.84,5.44,5.44,0,0,0-.54,2c.14.63,1.53,2.46,2.25,4.17s1.08,11.76,1,12.82a3,3,0,0,1-1.28,1.86l0,.11a2,2,0,0,0-1.06.07c-.36.22-3.68,3.1-6.33,4.22a36.46,36.46,0,0,1-5.07,1.7s-.25-.08-.69-.18h0a13.2,13.2,0,0,0-1.93-.31h0a12.5,12.5,0,0,0-3.54.17v.64l2.92,1.08,1.17,1.12s-4.09,4.27-5.16,4.85S48,132.69,48,132.69s-.54.54.36.9l2.56-.45,2.6.45s4-.27,4.63-.68,2.76-3.9,4.46-6.17c.34-.44.66-.84.94-1.14a12.39,12.39,0,0,1,2.91-1.93l3,.71,1.29,1s-3.54,4.73-4.54,5.43-4.67,3.65-4.67,3.65-.46.6.47.84l2.49-.75,2.63.13s3.9-.75,4.52-1.23,2.26-4.21,3.68-6.66c.28-.48.55-.91.79-1.25,1.1-1.55,6.33-4.67,9-6.29.91-.55,1.54-.93,1.61-1a.87.87,0,0,0,.13-.78l.26.09a15,15,0,0,0,1.31-1.07,1.82,1.82,0,0,0,.59-.79c.07-.55-.24-1.37-.88-4.19a33.74,33.74,0,0,1-.77-10.42l.06-.45c0-.11,0-.22,0-.33a22.33,22.33,0,0,0,2.08,2.6h.14l.29,0s-3.09-6.4-.25-16.67l1.56-.58.13.1a24,24,0,0,0,4.76,23h.2l.41,0s-4.75-9.76.21-25.3l0,0,.37-.07.94.71a32.72,32.72,0,0,0-1.84,12.94,7.15,7.15,0,0,0-.71,1.24v1.31l.3-.06a4.75,4.75,0,0,0-.77,1.6,7.11,7.11,0,0,0,1.85,1h0l.56,1.66c.18.58.37,1.17.59,1.75h0a34.16,34.16,0,0,0,5.74,9.84h.26l.54,0a31.44,31.44,0,0,1-1.92-6.79c-.19-1.08-.37-2.27-.51-3.58.53.22,1.08.43,1.64.63.21.79.45,1.6.73,2.41a39.81,39.81,0,0,0,5.93,11.1h.3a0,0,0,0,0,0,0l0,0h0l0,0h.61a39.15,39.15,0,0,1-2-9.66c-.08-.75-.14-1.55-.19-2.38l.12,0c.2.67.4,1.33.64,2,2.49,6.83,6.68,11.77,8.28,12.85a.51.51,0,0,0,.23.15c.2,0-.58-1.24-1.55-3.51,0-.07,0-.13-.07-.2-.42-1-.87-2.3-1.32-3.7l-.09-.31c-.26-.9-.5-1.88-.71-2.92.35-.69.72-1.48,1.1-2.37l.34-.82q2,.24,4,.42l0,.07c0,.06,0,.12,0,.18-.18.81-.36,1.54-.53,2.18l0,.14c-.07.28-.15.55-.22.8l0,.08c-.08.27-.16.52-.23.74l0,.09c-.06.18-.11.35-.16.51l0,.09c-.06.15-.11.29-.15.41v0l-.08.22,0,0,0,.08.34-.08.26.16h0a34.28,34.28,0,0,0,2.89-5.61c1.67.12,3.32.2,4.93.26a57,57,0,0,1-1.41,7.89h0c0,.11-.06.21-.08.3l0,.07-.06.2,0,.08c0,.05,0,.09,0,.13l0,.07v.06l0,0,.34-.08.26.18a49.69,49.69,0,0,0,3.78-8.88c1.65,0,3.22,0,4.7,0a60.64,60.64,0,0,1-2.2,10.48v0c0,.12-.07.22-.1.32l0,.07c0,.08,0,.16-.08.22l0,.08a1.21,1.21,0,0,0-.05.14l0,.08,0,.06,0,0,.39-.07.29.2A49.71,49.71,0,0,0,138.37,109c4.35-.11,7.18-.33,7.18-.33a4.35,4.35,0,0,0,1.17-.32l3.1,5.07s1.12,4.31,1.48,4.48,1.3-4.41,1-6.84a9.77,9.77,0,0,0-2.07-4.27l-.37-.44-.75-1c-1.67-.12-3.46-.31-5.32-.54-1.31-.17-2.66-.35-4-.55a40.19,40.19,0,0,0,.94-12,17,17,0,0,1,4,4.21c.52.9,2.56,3.41,2.56,3.41l.81.48a.72.72,0,0,0-.09.36,12.54,12.54,0,0,0,2.52,1.35l.41-.12-.31.33c8.87,4.46,27.51,1.52,38.79-.9h0c5.5-1.18,9.26-2.23,9.26-2.23a4.42,4.42,0,0,0,1.09-.54l.8.86,3.22,3.51s1.95,4,2.34,4.09.4-4.58-.4-6.89A9.69,9.69,0,0,0,202.75,96.37Zm-119.67,19c-.33.27-3.28,3.52-5.77,5a36.34,36.34,0,0,1-4.83,2.3s-.26,0-.7-.1h0a12.29,12.29,0,0,0-2-.07h0c-.32,0-.67,0-1,.07,1.63-.78,3.29-1.52,4.49-2,1-.43,1.64-.74,1.72-.81a.82.82,0,0,0,.22-.75l.26.11a14.69,14.69,0,0,0,1.42-.9c.35-.26.64-.52.69-.72.13-.54-.08-1.39-.37-4.26a34.1,34.1,0,0,1,.49-10.44l.11-.44a14.1,14.1,0,0,1,.58-1.77c1-.31,2.3-.72,3.46-1.14.25.36.5.73.72,1.1C83.49,102,85.07,112,85.13,113a3,3,0,0,1-1,2,.82.82,0,0,0,0,.11A2,2,0,0,0,83.08,115.34ZM132,81.19l.06.19c0,.1.06.2.1.3a1.54,1.54,0,0,0,.05.17c-.83-.71-1.48-1.29-2-1.75.4-.08.84-.16,1.31-.23C131.69,80.31,131.85,80.75,132,81.19Zm-16.83,21.35c0,.56-.12,1.12-.19,1.65v0c-.07.51-.14,1-.22,1.48l0,.21c0,.1,0,.19,0,.28l-.1,0-.14-4,.76.12a.13.13,0,0,1,0,.06A1.64,1.64,0,0,1,115.17,102.54ZM102.3,95.41c0-.31,0-.61.07-.92l.68-.56c-.06.72-.09,1.46-.1,2.21l-.69-.13Zm13.16,1.06v.33c0,.58,0,1.17,0,1.73,0,.06,0,.11,0,.17,0,.36,0,.7-.05,1l-.93-.2c0-.24,0-.48.08-.73a37.29,37.29,0,0,1,.88-4.56,1.34,1.34,0,0,0,0,.2C115.45,95.14,115.46,95.81,115.46,96.47ZM113.25,81.2c0,.11.07.23.1.36a.83.83,0,0,0,0,.15c-.2.29-.39.59-.59.9l-.08.07c.16-.5.35-1,.52-1.51Zm6,12.67a33.25,33.25,0,0,0-.3-4.72c-.11-.86-.27-1.72-.46-2.6a24.46,24.46,0,0,1,1.64-2.49l.12.55c0,.17.07.34.11.52l.09.46c0,.15.06.29.09.45l.09.51c0,.15.05.3.08.46l.09.55c0,.15.06.3.08.46s.06.39.09.6,0,.31.07.46l.09.64.06.47c0,.22.06.45.08.68s0,.3,0,.45.06.49.08.74l0,.34c.06.67.12,1.35.16,2s0,1.35,0,2v.32c0,.6,0,1.18,0,1.74a1,1,0,0,1,0,.17c0,.63,0,1.24-.09,1.84,0,.07,0,.13,0,.2l0,.27-2.86-.58A36.64,36.64,0,0,0,119.25,93.87Zm5.35,7.43c.11-.54.22-1.08.32-1.64s.14-.92.2-1.39a33.55,33.55,0,0,0-2.07-17l1-.41.15.4q.09.25.18.54l0,.08c.06.17.12.36.18.55a1,1,0,0,1,0,.16l.18.55c0,.08.05.16.07.24s.12.37.18.57.05.17.07.26.12.41.19.63l.06.22c.23.84.47,1.76.71,2.75v0a62.78,62.78,0,0,1,1.51,14.31l-3.09-.58C124.56,101.5,124.58,101.4,124.6,101.3Zm7.11.44a40.62,40.62,0,0,0,.57-8.13c0-1.13-.13-2.27-.28-3.42s-.35-2.14-.61-3.22a10.47,10.47,0,0,1,2.37.68l0,.13c.05.19.09.37.13.57a63.43,63.43,0,0,1,1.16,15.15l-3.57-.61C131.58,102.51,131.65,102.13,131.71,101.74ZM103.6,89.81l-.71.59a63.34,63.34,0,0,1,2.17-9c.45-.11.89-.2,1.31-.26A38.73,38.73,0,0,0,103.6,89.81Zm-1.38,12.46c0-.48,0-1-.06-1.46l1,.07c.08.64.17,1.29.29,2Zm14.71,4.33c.42-1.17.81-2.44,1.16-3.81,1.11.22,2.16.44,3.15.67,0,.24-.06.49-.09.72v0c-.07.52-.14,1-.22,1.49l0,.21c-.07.41-.14.79-.21,1.17C119.38,107,118.13,106.79,116.93,106.6Zm5.93.65q.19-.52.39-1.08c.16-.46.31-.93.46-1.42.07-.21.13-.43.19-.64,1.36.36,2.56.71,3.62,1q-.06,1.17-.15,2.25C125.8,107.4,124.3,107.34,122.86,107.25Zm7.57.08c.11-.35.21-.71.31-1.08,1.51.57,2.29.94,2.29.94C132.15,107.26,131.29,107.3,130.43,107.33ZM153.55,101c.12-.12.29-.3.5-.5s.4-.39.65-.6c19.8-2.73,31.3.22,31.3.22C169.59,104.76,157.52,102.15,153.55,101Z"/></g><path class="cls-63" d="M158.81,92a18.83,18.83,0,0,1-2.6,1.19c-2.35,1-5.44,2.24-5.44,2.24l-.29-.18-.74-.43s-1.83-2.3-2.29-3.11c-1.86-3.24-7.56-6.79-9.52-7.92s-5.87-.88-6.8-2.08A10.78,10.78,0,0,1,129.42,77c.1-.66,1.56-3,2.14-2.94l1.23,1.08a48.55,48.55,0,0,0,5.09,4.66,63.29,63.29,0,0,0,6.32,4.58h0c3.73,2.44,7.23,4.42,7.23,4.42l1.93-.18a12.72,12.72,0,0,1,3.8,1.71,6.3,6.3,0,0,1,1.31,1.21l.13.18C158.68,91.81,158.75,91.92,158.81,92Z"/><path class="cls-64" d="M160.33,91.93v0l0,.61v.19a8.41,8.41,0,0,0-2.19,1,14.38,14.38,0,0,0-1.56,1.17l-.6.54a6.08,6.08,0,0,0-.45.46l-.18.19h-.05l-2.25.6-.37.1a11.42,11.42,0,0,1-2.27-1.23.64.64,0,0,1,.09-.34,9.11,9.11,0,0,1,.62-1.11c.17-.28.31-.48.31-.48A5.43,5.43,0,0,1,155.77,91c.18,0,.54.07,1,.14l1.73.35.46.1.52.12Z"/><path class="cls-65" d="M199.75,91.75l0,0a11.35,11.35,0,0,1-2.39,2.3,4.29,4.29,0,0,1-1,.48s-31.68,8.61-43.6,2.49l.28-.3,1.2-1.23s.33.13,1,.32l.33.11C159.1,97,170,99.45,185,95.37c0,0-10.41-2.76-28.39-.43l-.84.11a2.72,2.72,0,0,1,.49-1.84,3.24,3.24,0,0,1,1.06-1,5,5,0,0,1,1.33-.55l.33-.08.52-.1,1.2,0c4.53.17,21,.66,33.43-.18,1-.07,2-.14,2.94-.23l1.89-.19Z"/><path class="cls-66" d="M203,101.79c-.34-.09-2.08-3.74-2.08-3.74l-2.9-3.2-.72-.78,2.39-2.3,0,0,.41.33a8.88,8.88,0,0,1,2.57,3.45C203.44,97.63,203.39,101.87,203,101.79Z"/><path class="cls-67" d="M199.75,91.75l-.84-.79-1.89.19c-1.36.77-3.85,1.71-8.19,2-7.21.55-25.37-.44-28.52-.62l-.47,0,.49-.59.32-.39-1.2,0-.52.1-.46-.1a6.3,6.3,0,0,0-1.31-1.21h0a46.69,46.69,0,0,0-6.74,1.78A13.3,13.3,0,0,1,148,90c-.79-1-3.65-5.39-3.78-5.6h0a63.29,63.29,0,0,1-6.32-4.58,48.55,48.55,0,0,1-5.09-4.66L131.56,74c-.58-.05-2,2.28-2.14,2.94a10.78,10.78,0,0,0,1.71,4.75c.93,1.2,4.83,1,6.8,2.08s7.66,4.68,9.52,7.92c.46.81,2.29,3.11,2.29,3.11l.74.43a.64.64,0,0,0-.09.34,11.42,11.42,0,0,0,2.27,1.23l.37-.1-.28.3c11.92,6.12,43.6-2.49,43.6-2.49a4.29,4.29,0,0,0,1-.48l.72.78,2.1-2.77Zm-44.24,4.19a6.08,6.08,0,0,1,.45-.46l.6-.54c18-2.33,28.39.43,28.39.43C170,99.45,159.1,97,155.51,95.94Z"/><path class="cls-68" d="M197.21,94.08a3.51,3.51,0,0,1,1.63-3.23l.14.22a3.2,3.2,0,0,0-1.51,3Z"/><path class="cls-68" d="M150.6,95.32l-.25-.09c.05-.13,1.21-3.31,6.77-5l.08.26C151.78,92.13,150.61,95.29,150.6,95.32Z"/><path class="cls-68" d="M187.85,96.6a6.29,6.29,0,0,0-2.92-1.09l0-.27A6.56,6.56,0,0,1,188,96.4Z"/><path class="cls-69" d="M96.46,91.86a11.42,11.42,0,0,0-.89,3.22l-.06.41a31.08,31.08,0,0,0,.62,9.45c.56,2.56.84,3.31.77,3.81a1.57,1.57,0,0,1-.54.71,12.9,12.9,0,0,1-1.19,1l-.24-.08a3.85,3.85,0,0,1-2.48-2.09.55.55,0,0,1,0-.1,2.72,2.72,0,0,0,1-1.81c0-1-1.41-10-2.23-11.44s-2.26-3-2.45-3.53a9.49,9.49,0,0,1,.91-3.55,7.06,7.06,0,0,1,3.88-.44C94.14,87.71,96.76,91.21,96.46,91.86Z"/><path class="cls-70" d="M94.81,111.05c-.07.07-.64.41-1.48.9-2.46,1.45-7.23,4.24-8.23,5.64-.22.3-.47.7-.73,1.13-1.3,2.21-2.92,5.65-3.39,6a21,21,0,0,1-4.1,1.08l-2.39-.13-2.26.66c-.85-.23-.42-.77-.42-.77s3.35-2.63,4.26-3.27,4.16-4.9,4.16-4.9l-1.17-.89-2.74-.67-.06-.58a11.89,11.89,0,0,1,5.57-.33,33.61,33.61,0,0,0,4.4-2.06,31.53,31.53,0,0,0,5.27-4.45,1.9,1.9,0,0,1,1-.17,3.39,3.39,0,0,1,.38,0l2.1,2.07h0A.81.81,0,0,1,94.81,111.05Z"/><path class="cls-71" d="M95.6,94.8l0,.28-.06.41,0,.18A3,3,0,0,0,94,96.91c-.39.82-.77,9.09,0,10.89a2.43,2.43,0,0,0,2.27,1.66,12.9,12.9,0,0,1-1.19,1l-.24-.08a.81.81,0,0,1-.12.71c-.07.07-.64.41-1.48.9a7.2,7.2,0,0,0-3.67-.37c-2.12.42-6.66,3.63-6.66,3.63l-.43,1.52s-5.24,5.1-5.45,6.48a1.76,1.76,0,0,0,1.37,1.19l4.6-5.6,1.28-.08c-1.3,2.21-2.92,5.65-3.39,6a21,21,0,0,1-4.1,1.08l-2.39-.13-2.26.66c-.85-.23-.42-.77-.42-.77s3.35-2.63,4.26-3.27,4.16-4.9,4.16-4.9l-1.17-.89-2.74-.67-.06-.58a11.89,11.89,0,0,1,5.57-.33,33.61,33.61,0,0,0,4.4-2.06,31.53,31.53,0,0,0,5.27-4.45,1.9,1.9,0,0,1,1-.17.55.55,0,0,1,0-.1,2.72,2.72,0,0,0,1-1.81c0-1-1.41-10-2.23-11.44s-2.26-3-2.45-3.53a9.49,9.49,0,0,1,.91-3.55,7.06,7.06,0,0,1,3.88-.44s-2.11.64-2.65,1.53,2.92,5.49,3.51,6S95.6,94.8,95.6,94.8Z"/><path class="cls-68" d="M80.31,117.5l-.17-.2a3.13,3.13,0,0,0,.93-2.46l.26,0A3.3,3.3,0,0,1,80.31,117.5Z"/><path class="cls-68" d="M78.93,116.51a5.26,5.26,0,0,1,.38-1.81l.24.1a5.22,5.22,0,0,0-.35,1.71Z"/><path class="cls-68" d="M78.44,124.53A4.6,4.6,0,0,1,76,122.36l.24-.11a4.4,4.4,0,0,0,2.34,2Z"/><path class="cls-68" d="M94.9,110.47a3.11,3.11,0,0,1-2.58-2.19l.26,0a2.88,2.88,0,0,0,2.38,2Z"/><path class="cls-72" d="M135.56,76.21s7.5,19.37.68,37.23l.26.18S150.6,93.91,140,74.87Z"/><path class="cls-73" d="M137.67,75.08s7.19,18.78-1.43,38.36l-.35.06a58,58,0,0,0-.33-37.29Z"/><path class="cls-74" d="M128.5,76.38s7.19,17.72,1.79,34.5l.24.16s11.72-19.75,1.71-36Z"/><path class="cls-75" d="M130.32,75.27s6.9,17.19,0,35.61l-.3.07a56.78,56.78,0,0,0-1.49-34.57Z"/><path class="cls-76" d="M124.29,76.3s5.37,16.31-.09,31.29l.24.14s10.58-15.25,2.7-31.89Z"/><path class="cls-77" d="M125.9,75.83a48.15,48.15,0,0,1-1.7,31.76l-.3.06a49.83,49.83,0,0,0,.39-31.35Z"/><path class="cls-78" d="M118.7,76.25s5.36,16.32-.09,31.31l.23.14s10.58-15.25,2.7-31.9Z"/><path class="cls-79" d="M120.3,75.79a48.22,48.22,0,0,1-1.69,31.77l-.3.06a50,50,0,0,0,.39-31.37Z"/><g class="cls-25"><path class="cls-80" d="M140,74.87l-2.2.66-.16-.45-2.11,1.13c.2.55.38,1.09.56,1.63a63.46,63.46,0,0,1,1.67,6.45,58.4,58.4,0,0,1-1.9,29.21l.35-.06.26.18S150.6,93.91,140,74.87Z"/><path class="cls-81" d="M132.24,75l-1.77.63-.15-.4-1.82,1.11c.19.48.36,1,.53,1.46a58.42,58.42,0,0,1,1.69,6A57.2,57.2,0,0,1,130,111l.3-.07.24.16S142.25,91.29,132.24,75Z"/><path class="cls-82" d="M126,76l-.06-.2-1.61.47c.11.32.2.65.29,1a59.27,59.27,0,0,1,2,12.48,47.22,47.22,0,0,1-2.67,17.9l.3-.06.24.14s10.58-15.25,2.7-31.89Z"/><path class="cls-83" d="M121.54,75.8l-1.17.19c0-.13-.07-.2-.07-.2l-1.6.46c.1.33.19.65.28,1a59.09,59.09,0,0,1,2,12.49,47.46,47.46,0,0,1-2.67,17.9l.3-.06.23.14S129.42,92.45,121.54,75.8Z"/></g><path class="cls-84" d="M93.87,81s-.59,4.58-.05,6.93.84,2.36.61,3.08a6.52,6.52,0,0,1-1.15,1.66l-5.1-3.94-2.43-6.41Z"/><path class="cls-85" d="M156.73,64.5l-.07,9a5.49,5.49,0,0,1-2.16,1.69c-1,.24-3.62-2.39-3.62-2.39-2.52.39-4.61,2.12-5.26,2.12a2.35,2.35,0,0,1-1.34-.79,6.88,6.88,0,0,0-4.75,2.82l-1-.58a34,34,0,0,0-5.87.84l-.64-.57a44,44,0,0,0-9.7.54l-.36-.7a28.59,28.59,0,0,0-7.75,1.36l-.57-.33c-3.17.14-8.12,2.58-8.12,2.58l-.85-.66a8.4,8.4,0,0,0-4.78,2.7l-.73-.58-4.74,1.71-.89-.33a21.4,21.4,0,0,0-7.43,2.54,9,9,0,0,1-2.11-.5s-3.23,1.84-3.84,2a8.64,8.64,0,0,1-2.12.15c-2.25.59-7.84,2.55-8.25,2.58s-2,.39-4.4.9-8,1.87-8.26,1.93-2.2.23-7.73.73a65.92,65.92,0,0,1-9.4.27c-.43,0-2.22-.4-4.11-.67l-.77-.1a32.83,32.83,0,0,1-3.62-.62l0,0a3.18,3.18,0,0,1-.68-.23,16.73,16.73,0,0,0-2.52-1.46c-1.37-.62-3-1-3.37-1.21a4.46,4.46,0,0,0-2.3-1.85c-1.71-.59-2.24-.59-2.35-1.85s-1.35-4.45-.94-4.2.63,2,2.49,3.93,3.24,2.06,4.37,3.21,4.06,1.74,4.87,1.75,1.7,1.31,3.73,1.63,4.85-.37,5.71-.36a21,21,0,0,0,8.12.06,27.1,27.1,0,0,0,6.23-1.82l.63-.29.13-.06,0,0c.52-.21,4.09.1,7.39-.88a17.09,17.09,0,0,0,4.43-2.08,4.09,4.09,0,0,1,.78-.37,1.29,1.29,0,0,1,.31-.08c.86-.07,7.07-1.8,8.58-2.22l.2-.06.13,0s0-.66,2.29-.92a7,7,0,0,0,3.19-1,4.91,4.91,0,0,1,.55-1.35A2.79,2.79,0,0,1,85,79.08a21.12,21.12,0,0,0,7.08.23c.73-.08,1.19-.17,1.19-.17v-.57c2.08-.47,4.9-1.18,4.9-1.18l.66-1a23.7,23.7,0,0,0,4.41-.25c.55-.09.84-.17.84-.17v-.83a74.61,74.61,0,0,1,9.47-.9c.1-.79,1.05-1.08,1.05-1.08a12.75,12.75,0,0,0,6.39-.23l.07,0,.48-.13.1,0,.08,0h0l.87-1a15.49,15.49,0,0,0,2.57.72,14.41,14.41,0,0,0,4,.25l1.68-.46h0l.7-.19a14.3,14.3,0,0,0,4,.69c.59,0,1,0,1,0s.26-1.22.75-1.34,4.91-.77,5.86-.91l.19,0a17,17,0,0,1,2.28-2.71,24.49,24.49,0,0,1,4.52-.74l1-.14a1.66,1.66,0,0,0,.59-.29c1.17-.8,3-3,3.35-2.91A11.67,11.67,0,0,1,156.73,64.5Z"/><path class="cls-86" d="M156.73,64.5l-.07,9a5.49,5.49,0,0,1-2.16,1.69c-1,.24-3.62-2.39-3.62-2.39-2.52.39-4.61,2.12-5.26,2.12a2.35,2.35,0,0,1-1.34-.79,6.88,6.88,0,0,0-4.75,2.82l-1-.58a34,34,0,0,0-5.87.84l-.64-.57a44,44,0,0,0-9.7.54l-.36-.7a28.59,28.59,0,0,0-7.75,1.36l-.57-.33c-3.17.14-8.12,2.58-8.12,2.58l-.85-.66a8.4,8.4,0,0,0-4.78,2.7l-.73-.58-4.74,1.71-.89-.33a21.4,21.4,0,0,0-7.43,2.54,9,9,0,0,1-2.11-.5s-3.23,1.84-3.84,2a8.64,8.64,0,0,1-2.12.15c-2.25.59-7.84,2.55-8.25,2.58s-2,.39-4.4.9-8,1.87-8.26,1.93-2.2.23-7.73.73a65.92,65.92,0,0,1-9.4.27c-.43,0-2.22-.4-4.11-.67a10.63,10.63,0,0,0,2.67,0,1.5,1.5,0,0,0,1.18-1.29l.73-.07s0,1.41,1.82,1.63,12-.6,12.51-1,0-2.39,0-2.39l.63-.29.13-.06,0,0s.27,1.8,1.73,2.18S68.2,90,68.52,89s-1-2.58-1-2.58l.78-.37s1.29,1.94,2.88,2.15,6-1.7,6-1.7a2.88,2.88,0,0,0,0-2.75l.2-.06.13,0,1.9,2.49c1,.22,4.17-2.13,4.17-2.13A7.28,7.28,0,0,1,83,81.71a4.91,4.91,0,0,1,.55-1.35c1.35,3.12,3.09,3.31,3.09,3.31a16,16,0,0,0,5.73-1.91,3.63,3.63,0,0,0-.2-2.45c.73-.08,1.19-.17,1.19-.17v-.57c.3,2.64,1.21,3.21,1.21,3.21a12.21,12.21,0,0,0,4.28-1,9.21,9.21,0,0,1-.59-3.35l.66-1a4.63,4.63,0,0,0,.88,3.49,15.74,15.74,0,0,0,4.35-1.18,6.59,6.59,0,0,1-.82-2.56c.55-.09.84-.17.84-.17v-.83C105,78.68,106,78.7,106,78.7a16,16,0,0,0,6.78-2.17,13.69,13.69,0,0,0,.85-2.3c.1-.79,1.05-1.08,1.05-1.08A3.36,3.36,0,0,0,117,76.21l2.15-.37A5.85,5.85,0,0,0,121,72.92l.07,0,.48-.13.1,0,.08,0h0l.29,2.72,2.16-.22a4,4,0,0,0,1-2.74,14.41,14.41,0,0,0,4,.25l1.68-.46h0c1.54,1.07,1.83,4.08,1.83,4.08l3.3-.63a5.46,5.46,0,0,0-.46-3l0-.07,1,.09A4.67,4.67,0,0,0,139,75.05a8.68,8.68,0,0,0,4.07-1.86l0-2.67.19,0a17,17,0,0,1,2.28-2.71c-2.41,3.33-.89,4.57-.89,4.57l3.85-.71,1.56-4.6,1-.14a1.66,1.66,0,0,0,.59-.29c-2,1.77-1.36,5-1.36,5l3.05,1.16c-.52-4,1.66-9.12,1.66-9.12A11.67,11.67,0,0,1,156.73,64.5Z"/><path class="cls-68" d="M30.67,91.9a1.67,1.67,0,0,1,.65-1.74l.13.23-.07-.12.07.12a1.45,1.45,0,0,0-.52,1.48Z"/><path class="cls-68" d="M25,89.23l-.26,0a1.37,1.37,0,0,1,.9-1.29l.07.25,0-.12,0,.12A1.15,1.15,0,0,0,25,89.23Z"/><path class="cls-68" d="M20.68,86.43h-.27s0-1,1.37-1.31l.06.26C20.71,85.66,20.68,86.4,20.68,86.43Z"/><path class="cls-68" d="M39.92,93.62a2.6,2.6,0,0,1-.28-2.11l.25.07a2.43,2.43,0,0,0,.23,1.87Z"/><path class="cls-68" d="M56.58,92.69a4.42,4.42,0,0,1-1.06-3.36l.26,0a4.24,4.24,0,0,0,1,3.14Z"/><path class="cls-68" d="M69.72,89.8A5.61,5.61,0,0,1,68,86.08h.26a5.48,5.48,0,0,0,1.68,3.53Z"/><path class="cls-68" d="M78.21,87.19a6.72,6.72,0,0,1-.87-3.58l.27,0a6.48,6.48,0,0,0,.83,3.43Z"/><path class="cls-68" d="M83.91,85a8.35,8.35,0,0,1-1.1-3.28l.27,0a8,8,0,0,0,1,3.17Z"/><path class="cls-68" d="M93.44,83a7.38,7.38,0,0,1-.26-3.83l.26,0a7.22,7.22,0,0,0,.24,3.66Z"/><path class="cls-68" d="M99.08,81.57a8.31,8.31,0,0,1-1-4.19l.26,0a8.29,8.29,0,0,0,1,4Z"/><path class="cls-68" d="M104.59,79.45a6.16,6.16,0,0,1-.6-3.51l.26,0a6.08,6.08,0,0,0,.57,3.35Z"/><path class="cls-68" d="M113.55,77.51a6.11,6.11,0,0,1-.07-3.32l.25.08a6.05,6.05,0,0,0,.07,3.16Z"/><path class="cls-68" d="M121.86,76.46a22.43,22.43,0,0,1-.22-3.75h.26a24.61,24.61,0,0,0,.22,3.7Z"/><path class="cls-68" d="M131.91,76.6a7.31,7.31,0,0,0-1.65-4.12l.2-.18a7.45,7.45,0,0,1,1.72,4.3Z"/><path class="cls-68" d="M137.54,76.48c-1-.86-1.15-3.59-1.16-3.7l.26,0s.2,2.74,1.07,3.52Z"/><path class="cls-68" d="M144.18,74.18c-1-1.16-1-3.59-1-3.69h.27s0,2.44.94,3.51Z"/><path class="cls-68" d="M150.77,72.82a5.13,5.13,0,0,1,.82-6.31l.17.2a4.8,4.8,0,0,0-.76,6Z"/><path class="cls-87" d="M204.67,79.73l-4.75-2.48-2.8-.82s-3.53-1.13-12.57-.71S165.64,80,165.64,80l-4.75-.71c-1.14-3.06-5.15-5.78-5.15-5.78L154.54,71c.22-4.88,2.19-6.52,2.19-6.52a16.69,16.69,0,0,1,7-3h0a11.31,11.31,0,0,1,4.68.12l1.81,1.6s3.05,1.85,10.9,4.17a89.63,89.63,0,0,0,17.2,2.89,4.24,4.24,0,0,1,.5.18C203,72.25,204.67,79.73,204.67,79.73Z"/><path class="cls-88" d="M171.9,68.41A3.16,3.16,0,0,1,169.75,70a32.56,32.56,0,0,1-7.81-.06c-.43-.19-1.51-2.39-1.2-2.57a10.38,10.38,0,0,1,1.1-1,7.3,7.3,0,0,1,4.48-1.68c1.93.09,3.87,1.59,4.88,2.64C171.69,67.92,172,68.33,171.9,68.41Z"/><path class="cls-89" d="M192.66,71.75c-.49.36-6.31.23-7.9-.06a13.44,13.44,0,0,1-4.7-2.48s.47,0,1.35,0c1.08,0,2.78.1,5,.34A17.68,17.68,0,0,1,191.9,71C192.55,71.33,192.85,71.62,192.66,71.75Z"/><path class="cls-90" d="M157.68,72.86s2,2.74,2.94,3,17.4-.92,23.92-1.27a36.35,36.35,0,0,1,14.07,2.32,32.63,32.63,0,0,0-7.56-2.68c-3.66-.68-11.55,1.07-19,.89A64.61,64.61,0,0,1,157.68,72.86Z"/><path class="cls-91" d="M171.2,67.41a2,2,0,0,1-1.16,1,14.23,14.23,0,0,1-5.47,0,4.91,4.91,0,0,1-2.73-2,7.3,7.3,0,0,1,4.48-1.68C168.25,64.86,170.19,66.36,171.2,67.41Z"/><path class="cls-92" d="M191.9,71a24.48,24.48,0,0,1-6-.17,12,12,0,0,1-4.54-1.63c1.08,0,2.78.1,5,.34A17.68,17.68,0,0,1,191.9,71Z"/><path class="cls-93" d="M112.86,88.91a30.09,30.09,0,0,0-.25,4.46,44.69,44.69,0,0,0,1.16,9,58.91,58.91,0,0,0,3,9.58h-.26a36.43,36.43,0,0,1-5.3-10.11,31.43,31.43,0,0,1-1.59-8.94,33.89,33.89,0,0,1,5-18.64l3.48-.9,0,.06C117.68,74,114.23,78.88,112.86,88.91Z"/><path class="cls-94" d="M115.52,93.84a54.34,54.34,0,0,0-.13,6.78c0,.9.1,1.75.18,2.55a35.14,35.14,0,0,0,1.8,8.77h-.56l0,0a36.72,36.72,0,0,1-4.67-10.3A30.54,30.54,0,0,1,111,93.11a33.12,33.12,0,0,1,7.08-19.7l0-.06,1.35,3.19c-.34.88-.65,1.75-.94,2.62A61.43,61.43,0,0,0,115.52,93.84Z"/><path class="cls-95" d="M110.41,75l-3,.91a28.76,28.76,0,0,0,3.1,32.55h.23S105.58,98,106.43,88.72,110.41,75,110.41,75Z"/><path class="cls-96" d="M109.55,102.31a28.3,28.3,0,0,0,1.69,6.16l-.49,0s0,0,0,0a31.08,31.08,0,0,1-4.66-9.42,26.53,26.53,0,0,1-.81-3.7,28.52,28.52,0,0,1,5.12-20.29l0,0,1.28,2.7a54.05,54.05,0,0,0-2.75,15A45.18,45.18,0,0,0,109.55,102.31Z"/><path class="cls-97" d="M103.37,76.76l-2.29.71a22.06,22.06,0,0,0,2.37,25h.18s-4-8-3.31-15.19S103.37,76.76,103.37,76.76Z"/><path class="cls-98" d="M104.38,79.49l-1-2.73a21.54,21.54,0,0,0,.26,25.69H104S99.77,93.55,104.38,79.49Z"/><path class="cls-99" d="M97.42,78.8l-2.9.89s-5.27,8.36,3,17.47h.13s-2.84-5.74-2.37-10.85S97.42,78.8,97.42,78.8Z"/><path class="cls-100" d="M98.14,80.75l-.72-2a15.39,15.39,0,0,0,.19,18.36h.27S94.85,90.79,98.14,80.75Z"/><path class="cls-101" d="M128.61,72.76h0c-.3.29-9.92,9.71-9.85,20.89,0,.23,0,.47,0,.7a46.27,46.27,0,0,0,1.15,9.12c.35,1.62.77,3.11,1.19,4.45s.79,2.41,1.16,3.37c0,.09.07.18.11.27.72,1.86,1.28,3,1.33,3.09a.85.85,0,0,1-.15-.09h0c-1.4-.93-5.23-5.48-7.46-11.75-.25-.71-.49-1.45-.7-2.2a27.52,27.52,0,0,1-1-7c0-.56,0-1.13,0-1.7a27.46,27.46,0,0,1,4.11-12.8,24.52,24.52,0,0,1,4.6-5.57Z"/><path class="cls-102" d="M129.19,76.59l-.58-3.83s-10.14,4.49-12.52,17.91,7.13,24,7.62,24-5.39-8.12-3.57-21S129.19,76.59,129.19,76.59Z"/><path class="cls-103" d="M204.67,79.73l-4.75-2.48-2.8-.82s-3.53-1.13-12.57-.71S165.64,80,165.64,80l-4.75-.71c-1.14-3.06-5.15-5.78-5.15-5.78L154.54,71c.22-4.88,2.19-6.52,2.19-6.52a16.69,16.69,0,0,1,7-3c-.34.15-5.33,2.39-6.38,6.74l3.06,2.34a22.43,22.43,0,0,0,7.21,1.17,13.12,13.12,0,0,1-6,.63l.82.46s13.23,1.54,19.93,1,16.43-3.39,16.43-3.39C203,72.25,204.67,79.73,204.67,79.73Z"/><path class="cls-104" d="M93.49,92.46c0,.5-5.08,2.23-7.22,2.73a3.34,3.34,0,0,1-.87.13c-.6-.12-5.26-5.83-6.1-7.7h0a.8.8,0,0,1-.12-.48c.19-.93.77-1.08,2.19-1.73a5.66,5.66,0,0,0,1.77-2.51c.82-1.69,1.54-3.64,1.9-3.81.62-.31,4.39,1.25,4.39,1.25a12.31,12.31,0,0,0,.85,8.25c.78,1.35,2,1,2.31,1.3a4.2,4.2,0,0,1,.7,1.63A6.53,6.53,0,0,1,93.49,92.46Z"/><path class="cls-105" d="M93.49,92.46c0,.5-5.08,2.23-7.22,2.73l1.06-4,1.73,1.54a5.09,5.09,0,0,1,4.23-1.21A6.53,6.53,0,0,1,93.49,92.46Z"/><path class="cls-106" d="M87.1,92.64a4,4,0,0,1-2.5.17c-1.13-.41-5.3-5.19-5.3-5.19h0a.8.8,0,0,1-.12-.48c.19-.93.77-1.08,2.19-1.73a5.66,5.66,0,0,0,1.77-2.51,8.38,8.38,0,0,1,3.22,3.33A9.35,9.35,0,0,1,87.1,92.64Z"/><path class="cls-107" d="M88.1,93.41a11.53,11.53,0,0,0-1.27,3.09l-.11.4a30.8,30.8,0,0,0-.52,9.46c.25,2.61.43,3.38.3,3.87,0,.18-.3.41-.62.65a13.59,13.59,0,0,1-1.3.8l-.23-.1a3.91,3.91,0,0,1-2.21-2.38.35.35,0,0,1,0-.1,2.73,2.73,0,0,0,1.17-1.68c.07-1-.19-10.08-.82-11.63s-1.89-3.23-2-3.81a9.67,9.67,0,0,1,1.33-3.4,7,7,0,0,1,3.91,0C86.31,89,88.49,92.8,88.1,93.41Z"/><path class="cls-108" d="M84.14,112.26a14.19,14.19,0,0,1-1.57.72c-2.61,1.14-7.69,3.33-8.86,4.6-.25.28-.54.63-.85,1-1.56,2-3.58,5.26-4.09,5.56a21,21,0,0,1-4.2.58l-2.36-.42-2.32.38c-.82-.33-.33-.81-.33-.81s3.65-2.21,4.63-2.73a47.62,47.62,0,0,0,4.71-4.36l-1-1-2.64-1v-.58a12,12,0,0,1,5.58.34A32.9,32.9,0,0,0,75.41,113a31.91,31.91,0,0,0,5.77-3.78,1.86,1.86,0,0,1,1,0l.38.06,1.83,2.31h0A.76.76,0,0,1,84.14,112.26Z"/><path class="cls-109" d="M86.9,96.23l-.07.27-.11.4,0,.18a3,3,0,0,0-1.58,1c-.5.77-1.87,8.94-1.27,10.82a2.45,2.45,0,0,0,2,1.93,13.59,13.59,0,0,1-1.3.8l-.23-.1a.76.76,0,0,1-.21.68,14.19,14.19,0,0,1-1.57.72,7.16,7.16,0,0,0-3.6-.82c-2.16.17-7,2.8-7,2.8l-.61,1.46s-5.81,4.43-6.19,5.77a1.75,1.75,0,0,0,1.21,1.35l5.25-5,1.28.07c-1.56,2-3.58,5.26-4.09,5.56a21,21,0,0,1-4.2.58l-2.36-.42-2.32.38c-.82-.33-.33-.81-.33-.81s3.65-2.21,4.63-2.73a47.62,47.62,0,0,0,4.71-4.36l-1-1-2.64-1v-.58a12,12,0,0,1,5.58.34A32.9,32.9,0,0,0,75.41,113a31.91,31.91,0,0,0,5.77-3.78,1.86,1.86,0,0,1,1,0,.35.35,0,0,1,0-.1,2.73,2.73,0,0,0,1.17-1.68c.07-1-.19-10.08-.82-11.63s-1.89-3.23-2-3.81a9.67,9.67,0,0,1,1.33-3.4,7,7,0,0,1,3.91,0s-2.17.38-2.82,1.2,2.24,5.79,2.76,6.41S86.9,96.23,86.9,96.23Z"/><path class="cls-68" d="M69,116.92l-.15-.22a3.16,3.16,0,0,0,1.22-2.34h.26A3.36,3.36,0,0,1,69,116.92Z"/><path class="cls-68" d="M68,115.8l-.27,0a5.52,5.52,0,0,1,.6-1.76l.23.13A4.93,4.93,0,0,0,68,115.8Z"/><path class="cls-68" d="M66.27,123.66a4.55,4.55,0,0,1-2.21-2.45l.26-.08a4.3,4.3,0,0,0,2.07,2.3Z"/><path class="cls-68" d="M84.3,111.7A3.11,3.11,0,0,1,82,109.21l.26,0a2.9,2.9,0,0,0,2.13,2.26Z"/><path class="cls-110" d="M109.55,102.31l-1.68-1.59-1.79-1.67-.7.49L104.86,98l-.51-1.53.08-.1.84-1,1.24-1.44,1.15-1.35,1.28.21A45.18,45.18,0,0,0,109.55,102.31Z"/><path class="cls-111" d="M120.22,103.6l-.06,0-.24-.09-3.19-1.21h0l-.63.55c-.25-.71-.49-1.45-.7-2.2,0,.9.1,1.75.18,2.55l-1.8-.82-1.66-.76-.87.24a31.43,31.43,0,0,1-1.59-8.94l1.38.22,1.58.26,1.79.29,1.12.18.21,0,3,.49,1.2.2v.37h0Z"/><path class="cls-112" d="M131,76.59l-1.5.68A49.14,49.14,0,0,0,123.18,80c-5.39,2.52-14,9.66-14,9.66L109,91l0,.58c-1.2,1.42-4.6,2.21-5.59,2.41l-.28.06V92.89a14.54,14.54,0,0,1,3.3-4.18c2.68-2.59,11.22-9,13-10.34s3.23-5,4.7-5.33a10.73,10.73,0,0,1,5,.4C129.77,73.8,131.29,76.08,131,76.59Z"/><path class="cls-113" d="M112.62,91.79v.82a8.26,8.26,0,0,0-2.19,1,14.13,14.13,0,0,0-2.16,1.71c-.4.39-.64.65-.64.65h0l-2.62.7a11.23,11.23,0,0,1-2.27-1.24A4.14,4.14,0,0,1,103.4,94c.17-.28.31-.48.31-.48a5.4,5.4,0,0,1,4.35-2.65,8.83,8.83,0,0,1,1,.14c.84.15,2,.4,2.72.56Z"/><path class="cls-114" d="M152.08,100.74l0,0a11.15,11.15,0,0,1-2.8,1.77,3.55,3.55,0,0,1-1.06.28S115.45,105,105,96.7l1.75-1.2s.29.18.87.5c3,1.61,13.34,6.49,29.27,5.39,0,0-10-4.9-28.59-6a2.88,2.88,0,0,1,2.07-2.45,6.16,6.16,0,0,1,2.28-.28s19.51,4.76,34,6.65c1.69.22,3.31.41,4.82.54Z"/><path class="cls-115" d="M153.34,111.22c-.32-.15-1.31-4.07-1.31-4.07l-2.77-4.62,2.8-1.77,0,0,.34.4a9,9,0,0,1,1.85,3.89C154.55,107.23,153.67,111.38,153.34,111.22Z"/><path class="cls-116" d="M107.58,96h0s.24-.26.64-.65c18.63,1.15,28.59,6,28.59,6C120.92,102.49,110.53,97.61,107.58,96Zm44.84,5.14-.34-.4-.67-.94c-1.51-.13-3.13-.32-4.82-.54h0l-6.49.69S114,95.08,110.42,93.63c-.28-.12-.42-.21-.39-.28a2.1,2.1,0,0,1,.3-.46,11.19,11.19,0,0,1,1.42-1.3c-.77-.16-1.88-.41-2.72-.56l.11-1.38s-2-.34-1.45-1.14,11.51-9,12.2-9.2,3.3-5,4.69-5.38a34,34,0,0,1,4.63-.49,10.73,10.73,0,0,0-5-.4c-1.47.35-2.87,4-4.7,5.33s-10.37,7.75-13,10.34a14.54,14.54,0,0,0-3.3,4.18v1.19l.28-.06a4.14,4.14,0,0,0-.71,1.44A11.23,11.23,0,0,0,105,96.7c10.49,8.34,43.24,6.11,43.24,6.11a3.55,3.55,0,0,0,1.06-.28l2.77,4.62-.65-4Z"/><path class="cls-68" d="M149.4,102.54h-.27a3.6,3.6,0,0,1,2.22-2.85l.12.23A3.4,3.4,0,0,0,149.4,102.54Z"/><path class="cls-68" d="M103.52,94.06l-.25-.08s1.1-3.12,5.71-3.08h0v.26h0C104.57,91.13,103.56,93.94,103.52,94.06Z"/><path class="cls-68" d="M139.5,103.19a4.44,4.44,0,0,0-2.65-1.67v-.26A4.58,4.58,0,0,1,139.7,103Z"/><path class="cls-68" d="M105,96.82l-.12-.24a7,7,0,0,1,2.72-.72v.26A7,7,0,0,0,105,96.82Z"/><path class="cls-117" d="M83.68,107.44a5.72,5.72,0,0,1,.93,2.82S83.55,109.78,83.68,107.44Z"/><path class="cls-117" d="M56.17,89.35a1.43,1.43,0,0,1,.52.89,4.41,4.41,0,0,1,0,.94s-1.31-1-.82-1.88Z"/><path class="cls-117" d="M69.46,85.76A5.25,5.25,0,0,1,70.6,88a3.17,3.17,0,0,1-2.35-2Z"/><path class="cls-117" d="M84,83.47l.63-1.75a4.51,4.51,0,0,1,2.76,2c.69,1.48-.66,3.33-.66,3.33A13.11,13.11,0,0,0,84,83.47Z"/><path class="cls-117" d="M84.33,89A6.93,6.93,0,0,1,85,91.2,5.15,5.15,0,0,1,84,93.35a8.49,8.49,0,0,1-1.16-3.06C82.67,88.89,84.33,89,84.33,89Z"/><path class="cls-117" d="M136,99.18l8.58.29a15.34,15.34,0,0,1-4.49.48Z"/><path class="cls-117" d="M161.87,63.38,163,64.73a12.32,12.32,0,0,1,3.52-.79c1.22.07,4.67,2,4.67,2l.39-1.26a7.74,7.74,0,0,0-3.86-2A22.17,22.17,0,0,0,161.87,63.38Z"/><path class="cls-117" d="M177.66,68.79s8.1.15,9.69.46l-3.08-1A12.6,12.6,0,0,0,177.66,68.79Z"/><path class="cls-117" d="M89.42,86.25l-.72,1s.45,2.44.92,2.63a6.05,6.05,0,0,0,2.08-.21,5,5,0,0,1-1.18-.84A10.19,10.19,0,0,1,89.42,86.25Z"/><polygon class="cls-117" points="93.31 78.57 93.59 79.81 95.7 78.59 93.31 78.57"/><path class="cls-117" d="M151.81,102.35l-.43.84a3.52,3.52,0,0,0,1.29,3.09A9.67,9.67,0,0,0,151.81,102.35Z"/></g></g></g></g></g></svg>