<svg xmlns="http://www.w3.org/2000/svg" xmlns:xlink="http://www.w3.org/1999/xlink" viewBox="0 0 157.43 240.52"><defs><style>.cls-1{fill:none;}.cls-2{fill:#32324c;opacity:0.1;}.cls-3{opacity:0.46;}.cls-4{clip-path:url(#clip-path);}.cls-5{fill:#abd19c;}.cls-6{fill:#03635a;}.cls-7{fill:#03847a;}.cls-8{fill:#fff;}</style><clipPath id="clip-path"><rect class="cls-1" x="6.43" y="203.55" width="151" height="10.82"/></clipPath></defs><g id="Capa_1" data-name="Capa 1"><path class="cls-2" d="M13.53,179.13c4,59.43,79,83.51,116,36.84,7.56-9.53,9.36-32.51,7.41-44.63-7.9-48.86-33-53.85-14.25-84.76S143.17-.44,91.52,0,73.17,83,37.59,106.08C21.32,116.64,11.43,148.18,13.53,179.13Z"/><path class="cls-2" d="M5.25,82.78a7.89,7.89,0,0,0,8.69-2.5c3.36-4.07,8.72-12.3,7.13-21.87C18.79,44.75,1.46,55.66.1,71-.58,78.7,2.25,81.7,5.25,82.78Z"/><path class="cls-2" d="M23.7,46.83A4.13,4.13,0,0,0,26.49,43c.08-2.75-.33-7.85-4-11.29-5.3-4.91-9,5.12-4.62,11.9C20,47,22.12,47.34,23.7,46.83Z"/><path class="cls-2" d="M152.87,139.13a4.09,4.09,0,0,0,3.43-3.23c.58-2.69,1.1-7.79-1.93-11.84-4.33-5.79-9.75,3.41-6.7,10.86C149.19,138.64,151.22,139.35,152.87,139.13Z"/><g class="cls-3"><g class="cls-4"><path class="cls-5" d="M157.43,209c0,3-33.8,5.41-75.5,5.41S6.43,211.94,6.43,209s33.8-5.41,75.5-5.41,75.5,2.42,75.5,5.41"/></g></g><ellipse class="cls-6" cx="78.37" cy="44.85" rx="55.83" ry="12.79"/><ellipse class="cls-6" cx="78.37" cy="202.17" rx="55.83" ry="12.79"/><rect class="cls-7" x="23.51" y="46.82" width="109.73" height="154.38"/><ellipse class="cls-7" cx="78.37" cy="46.82" rx="54.86" ry="12.11"/><ellipse class="cls-7" cx="78.37" cy="200.88" rx="54.86" ry="12.11"/><path class="cls-6" d="M78.7,166.26a449.69,449.69,0,0,1-55.32-3.44,1,1,0,0,1,.26-2,439.69,439.69,0,0,0,109.47,0,1,1,0,1,1,.26,2A434,434,0,0,1,78.7,166.26Z"/><path class="cls-6" d="M78.7,74.7a449.67,449.67,0,0,0-55.32,3.43,1,1,0,0,0,.26,2.05,439.69,439.69,0,0,1,109.47,0,1,1,0,0,0,.26-2.05A434,434,0,0,0,78.7,74.7Z"/><circle class="cls-6" cx="80.25" cy="121.59" r="30.76"/><path class="cls-8" d="M90.79,115.68a7,7,0,0,0-2.17.22c-.73-1.8-1.54-3.57-2.41-5.29-.54-1.09-1.19-2.81-2.25-3.53-1.47-1-3.12.65-4,1.66-3.93,4.3-7.5,8.84-12.76,11.62a.27.27,0,0,0-.12.09c-1.48.45-3,.91-4.43,1.4a8.8,8.8,0,0,0-3,1.22c-1.35,1.2-.45,3.8.08,5.16s1.66,3.87,3.15,4.31a2.63,2.63,0,0,0,1.38-.07c.89,1.85,1.7,3.74,2.73,5.52.66,1.14,1.33,2.66,2.87,2.15S73.45,138,73,136.06a8.66,8.66,0,0,0-1.67-2.45,17.15,17.15,0,0,1-1.52-2.75l.71-.22a30,30,0,0,1,9.11-.55,81.61,81.61,0,0,1,8.07,1.59C89,132,91.5,133,92.4,131.4s-.29-4.68-.71-6.3c-.29-1.11-.61-2.2-1-3.3.74-.49,1.66-1,2-1.8a3.32,3.32,0,0,0-.37-2.65C92.07,116.65,91.62,115.79,90.79,115.68ZM62,130.09a9.74,9.74,0,0,1-1.1-2,10.79,10.79,0,0,1-.66-2.16c-.29-1.6.61-2.3,2-2.77,1.67-.56,3.35-1.09,5-1.61.85,2.7,1.75,5.37,2.71,8-1.5.48-3,.92-4.52,1.31S62.93,131.44,62,130.09ZM91.52,130a1,1,0,0,1-.79,1A64.39,64.39,0,0,0,87,118.33c-1.36-3.38-2.66-7.16-4.71-10.21a1.2,1.2,0,0,1,1.12,0c.48.28.9,1.38,1.15,1.85a60.3,60.3,0,0,1,3.1,6.74,74.93,74.93,0,0,1,2.81,8.38C90.89,126.55,91.62,128.47,91.52,130Zm.27-10a4.37,4.37,0,0,1-1.32,1c-.46-1.42-1-2.84-1.52-4.24q.51-.09,1-.15c.84-.09,1.16.15,1.55.93S92.33,119.18,91.79,120Z"/><path class="cls-8" d="M91,113.12c0-.82,0-1.63,0-2.45a.43.43,0,0,0-.86,0c0,.82,0,1.63,0,2.45A.43.43,0,0,0,91,113.12Z"/><path class="cls-8" d="M94.5,114.77l1.34-1.47c.37-.41-.23-1-.6-.61l-1.34,1.47C93.53,114.57,94.13,115.18,94.5,114.77Z"/><path class="cls-8" d="M97.44,117.57c-.63,0-1.27,0-1.91,0s-.55.84,0,.85,1.28,0,1.91.06S98,117.61,97.44,117.57Z"/><path class="cls-8" d="M94.22,121.47c-.45-.32-.88.42-.44.74a17.66,17.66,0,0,1,1.55,1.29c.41.37,1-.23.61-.6A19.46,19.46,0,0,0,94.22,121.47Z"/><path class="cls-8" d="M63.52,125.51c.51-.19.29-1-.22-.82l-1.73.67c-.51.2-.29,1,.23.82Z"/><path class="cls-8" d="M63.76,126.09a13.39,13.39,0,0,1-1.82.7.43.43,0,0,0,.23.82,13.38,13.38,0,0,0,2-.78C64.69,126.59,64.26,125.85,63.76,126.09Z"/></g></svg>