<svg xmlns="http://www.w3.org/2000/svg" xmlns:xlink="http://www.w3.org/1999/xlink" viewBox="0 0 173.02 240.52"><defs><style>.cls-1{fill:none;}.cls-2{fill:#32324c;opacity:0.1;}.cls-3{opacity:0.46;}.cls-4{clip-path:url(#clip-path);}.cls-5{fill:#abd19c;}.cls-6{fill:#03635a;}.cls-7{fill:#03847a;}.cls-8{fill:#fff;}</style><clipPath id="clip-path"><rect class="cls-1" y="201.55" width="151" height="10.82"/></clipPath></defs><g id="Capa_1" data-name="Capa 1"><path class="cls-2" d="M140.43,179.13c-4,59.43-79,83.51-116,36.84-7.55-9.53-9.36-32.51-7.4-44.63,7.89-48.86,33-53.85,14.24-84.76S10.79-.44,62.44,0s18.35,83,53.93,106.08C132.64,116.64,142.53,148.18,140.43,179.13Z"/><path class="cls-2" d="M167.77,222.73a7.89,7.89,0,0,1-8.69-2.5c-3.36-4.07-8.72-12.29-7.13-21.86,2.28-13.67,19.6-2.76,21,12.61C173.6,218.66,170.77,221.65,167.77,222.73Z"/><path class="cls-2" d="M149.32,186.78a4.12,4.12,0,0,1-2.79-3.8c-.08-2.76.33-7.86,4.05-11.3,5.3-4.91,9,5.13,4.62,11.9C153,187,150.9,187.3,149.32,186.78Z"/><path class="cls-2" d="M6.07,48.5a4.12,4.12,0,0,1-3.43-3.24c-.58-2.69-1.1-7.78,1.93-11.84,4.33-5.79,9.75,3.42,6.7,10.87C9.75,48,7.72,48.72,6.07,48.5Z"/><g class="cls-3"><g class="cls-4"><path class="cls-5" d="M151,207c0,3-33.8,5.41-75.5,5.41S0,209.94,0,207s33.8-5.41,75.5-5.41S151,204,151,207"/></g></g><ellipse class="cls-6" cx="76.49" cy="42.85" rx="55.83" ry="12.79"/><ellipse class="cls-6" cx="76.49" cy="200.17" rx="55.83" ry="12.79"/><rect class="cls-7" x="21.63" y="44.82" width="109.73" height="154.38"/><ellipse class="cls-7" cx="76.49" cy="44.82" rx="54.86" ry="12.11"/><ellipse class="cls-7" cx="76.49" cy="198.88" rx="54.86" ry="12.11"/><path class="cls-6" d="M76.82,164.26a449.69,449.69,0,0,1-55.32-3.44,1,1,0,0,1,.26-2,439.69,439.69,0,0,0,109.47,0,1,1,0,0,1,.26,2A433.9,433.9,0,0,1,76.82,164.26Z"/><path class="cls-6" d="M76.82,72.7A449.67,449.67,0,0,0,21.5,76.13a1,1,0,0,0,.26,2.05,439.69,439.69,0,0,1,109.47,0,1,1,0,0,0,.26-2.05A433.9,433.9,0,0,0,76.82,72.7Z"/><circle class="cls-6" cx="78.38" cy="119.59" r="30.76"/><path class="cls-8" d="M94.16,103.46a1.77,1.77,0,1,1-1.76-1.76A1.76,1.76,0,0,1,94.16,103.46Z"/><path class="cls-8" d="M78.26,103.46a1.77,1.77,0,1,1-1.77-1.76A1.76,1.76,0,0,1,78.26,103.46Z"/><path class="cls-8" d="M62.35,103.46a1.76,1.76,0,1,1-1.76-1.76A1.76,1.76,0,0,1,62.35,103.46Z"/><path class="cls-8" d="M95,103.46a2.62,2.62,0,1,0-3.47,2.47v1.25H83.62a.86.86,0,0,0-.86.86V121.2a.86.86,0,0,0,1.71,0V108.89H92.4a.85.85,0,0,0,.85-.85v-2.11A2.61,2.61,0,0,0,95,103.46Zm-2.61.91a.91.91,0,1,1,.9-.91A.91.91,0,0,1,92.4,104.37Z"/><path class="cls-8" d="M76.49,100.84a2.62,2.62,0,0,0-.85,5.09v11.92a.86.86,0,0,0,1.71,0V105.93a2.62,2.62,0,0,0-.86-5.09Zm0,3.53a.91.91,0,1,1,.91-.91A.9.9,0,0,1,76.49,104.37Z"/><path class="cls-8" d="M69.37,107.18H61.45v-1.25a2.62,2.62,0,1,0-1.71,0V108a.85.85,0,0,0,.85.85h7.93V121.2a.86.86,0,0,0,1.71,0V108A.86.86,0,0,0,69.37,107.18Zm-8.78-4.63a.91.91,0,1,1-.9.91A.91.91,0,0,1,60.59,102.55Z"/><path class="cls-8" d="M87.89,122.87v13.5a.67.67,0,0,1-.39.62l-3.08,1.47-7.63,3.65a.73.73,0,0,1-.3.06.72.72,0,0,1-.29-.06L65.49,137a.67.67,0,0,1-.39-.62v-13.5a.7.7,0,0,1,.11-.38.81.81,0,0,1,.28-.24l7.74-3.69,3-1.43a.68.68,0,0,1,.59,0l10.71,5.12a.81.81,0,0,1,.28.24A.7.7,0,0,1,87.89,122.87Z"/><path class="cls-8" d="M76.49,127.88v14.29a.72.72,0,0,1-.29-.06L65.49,137a.67.67,0,0,1-.39-.62v-13.5a.7.7,0,0,1,.11-.38Z"/><path class="cls-8" d="M87.89,122.87v13.5a.67.67,0,0,1-.39.62l-3.08,1.47-7.63,3.65a.73.73,0,0,1-.3.06V127.88l7.87-3.76,3.42-1.63A.7.7,0,0,1,87.89,122.87Z"/><path class="cls-8" d="M87.78,122.49l-3.42,1.63-11.13-5.56,3-1.43a.68.68,0,0,1,.59,0l10.71,5.12A.81.81,0,0,1,87.78,122.49Z"/><path class="cls-8" d="M87.89,122.87v13.5a.67.67,0,0,1-.39.62l-3.08,1.47-.06-14.34,3.42-1.63A.7.7,0,0,1,87.89,122.87Z"/></g></svg>