<svg xmlns="http://www.w3.org/2000/svg" viewBox="0 0 242.54 168.53"><defs><style>.cls-1{isolation:isolate;}.cls-2{fill:#00867a;}.cls-3{fill:#fac557;}.cls-4,.cls-5{fill:#fff;stroke:#fff;stroke-width:3px;}.cls-11,.cls-12,.cls-13,.cls-14,.cls-4,.cls-5{stroke-miterlimit:10;}.cls-15,.cls-5,.cls-6{mix-blend-mode:multiply;}.cls-7{fill:#e8e8e8;}.cls-8{fill:#c9c7c1;}.cls-9{fill:#cacaca;}.cls-10{fill:#3fb7c8;}.cls-11,.cls-12,.cls-13,.cls-14{fill:none;stroke:#e8e8e8;}.cls-11{stroke-width:1.22px;}.cls-12{stroke-width:1.72px;}.cls-13{stroke-width:1.33px;}.cls-14{stroke-width:1.74px;}.cls-15,.cls-16{fill:#cecece;}</style></defs><g class="cls-1"><g id="Capa_1" data-name="Capa 1"><polygon class="cls-2" points="242.54 51.2 223.43 84.27 242.54 117.33 0 117.33 20.11 84.27 0 51.2 242.54 51.2"/><polygon class="cls-3" points="205.54 84.27 195.82 90.79 204.27 98.9 193.57 103.64 200.48 113.09 189.11 115.89 194.26 126.41 182.58 127.19 185.82 138.44 174.18 137.18 175.44 148.82 164.19 145.57 163.41 157.25 152.9 152.1 150.1 163.47 140.65 156.56 135.9 167.26 127.8 158.82 121.27 168.53 114.74 158.82 106.64 167.27 101.89 156.56 92.44 163.47 89.64 152.1 79.13 157.25 78.35 145.57 67.1 148.81 68.36 137.18 56.72 138.43 59.96 127.18 48.28 126.41 53.43 115.89 42.07 113.09 48.97 103.64 38.27 98.9 46.72 90.79 37 84.27 46.72 77.74 38.27 69.63 48.97 64.89 42.07 55.44 53.43 52.64 48.28 42.12 59.97 41.35 56.72 30.1 68.36 31.35 67.1 19.71 78.35 22.96 79.13 11.28 89.64 16.43 92.44 5.06 101.89 11.97 106.64 1.26 114.74 9.72 121.27 0 127.8 9.72 135.9 1.26 140.65 11.97 150.1 5.06 152.9 16.43 163.41 11.28 164.19 22.96 175.44 19.71 174.19 31.35 185.82 30.1 182.58 41.35 194.26 42.12 189.11 52.64 200.48 55.44 193.57 64.89 204.27 69.63 195.82 77.74 205.54 84.27"/><path class="cls-2" d="M121.27,148.85a64.59,64.59,0,1,1,64.59-64.58A64.66,64.66,0,0,1,121.27,148.85Zm0-125.53a60.95,60.95,0,1,0,61,61A61,61,0,0,0,121.27,23.32Z"/><polygon class="cls-4" points="121.27 123.7 93.5 116 93.5 44.34 121.27 52.05 121.27 123.7"/><polygon class="cls-4" points="176.82 123.7 149.04 116 149.04 44.34 176.82 52.05 176.82 123.7"/><polygon class="cls-4" points="121.27 123.7 149.04 116 149.04 44.34 121.27 52.05 121.27 123.7"/><polygon class="cls-4" points="65.72 123.7 93.5 116 93.5 44.34 65.72 52.05 65.72 123.7"/><polygon class="cls-4" points="93.5 49.79 93.5 110.54 121.27 118.25 121.27 57.5 93.5 49.79"/><polygon class="cls-4" points="121.27 57.5 121.27 118.25 149.04 110.54 149.04 49.79 121.27 57.5"/><polygon class="cls-4" points="149.12 49.82 149.04 49.79 149.04 110.54 171.17 116.68 171.17 55.94 149.12 49.82"/><polygon class="cls-4" points="71.37 55.94 71.37 116.68 93.5 110.54 93.5 49.79 71.37 55.94"/><polyline class="cls-4" points="71.37 79.46 100.64 79.46 100.64 52.7"/><polyline class="cls-4" points="171.17 77.95 130.84 77.95 130.84 116.24"/><polyline class="cls-4" points="94.01 50.98 94.01 85.57 171.17 85.57"/><line class="cls-4" x1="112.16" y1="56.8" x2="112.16" y2="114.63"/><line class="cls-4" x1="123.6" y1="56.8" x2="123.6" y2="114.63"/><line class="cls-4" x1="171.17" y1="94.99" x2="71.73" y2="94.99"/><polygon class="cls-5" points="71.37 55.94 71.37 116.68 93.5 110.54 93.5 49.79 71.37 55.94"/><g class="cls-6"><polygon class="cls-4" points="121.27 57.5 121.27 118.25 149.04 110.54 149.04 49.79 121.27 57.5"/></g><polygon class="cls-7" points="121.27 123.95 93.5 116.24 93.5 44.58 121.27 52.29 121.27 123.95"/><polygon class="cls-7" points="176.82 123.95 149.04 116.24 149.04 44.58 176.82 52.29 176.82 123.95"/><polygon class="cls-8" points="121.27 123.95 149.04 116.24 149.04 44.58 121.27 52.29 121.27 123.95"/><polygon class="cls-9" points="65.72 123.95 93.5 116.24 93.5 44.58 65.72 52.29 65.72 123.95"/><polygon class="cls-10" points="93.5 50.03 93.5 110.78 121.27 118.49 121.27 57.74 93.5 50.03"/><polygon class="cls-10" points="121.27 57.74 121.27 118.49 149.04 110.78 149.04 50.03 121.27 57.74"/><polygon class="cls-10" points="149.12 50.06 149.04 50.03 149.04 110.78 171.17 116.92 171.17 56.18 149.12 50.06"/><polygon class="cls-10" points="71.37 56.18 71.37 116.92 93.5 110.78 93.5 50.03 71.37 56.18"/><polyline class="cls-11" points="71.37 79.7 100.64 79.7 100.64 52.94"/><polyline class="cls-12" points="171.17 78.19 130.84 78.19 130.84 116.48"/><polyline class="cls-13" points="94.01 51.22 94.01 85.82 171.17 85.82"/><line class="cls-13" x1="112.16" y1="57.04" x2="112.16" y2="114.87"/><line class="cls-13" x1="123.6" y1="57.04" x2="123.6" y2="114.87"/><line class="cls-14" x1="171.17" y1="95.23" x2="71.73" y2="95.23"/><polygon class="cls-15" points="71.37 56.18 71.37 116.92 93.5 110.78 93.5 50.03 71.37 56.18"/><g class="cls-6"><polygon class="cls-16" points="121.27 57.74 121.27 118.49 149.04 110.78 149.04 50.03 121.27 57.74"/></g></g></g></svg>