<svg xmlns="http://www.w3.org/2000/svg" viewBox="0 0 242.54 168.53"><defs><style>.cls-1{fill:#00867a;}.cls-2{fill:#fac557;}.cls-3{fill:#fff;stroke:#fff;stroke-miterlimit:10;stroke-width:3px;}.cls-4{fill:#e3381b;}.cls-5{fill:#ff4c1b;}.cls-6{fill:#d4220f;}.cls-7{fill:#9d3128;}.cls-8{fill:#753a21;}</style></defs><g id="Capa_1" data-name="Capa 1"><polygon class="cls-1" points="242.54 51.2 223.43 84.27 242.54 117.33 0 117.33 20.11 84.27 0 51.2 242.54 51.2"/><polygon class="cls-2" points="205.54 84.27 195.82 90.79 204.27 98.9 193.57 103.64 200.48 113.09 189.11 115.89 194.26 126.41 182.58 127.19 185.82 138.44 174.18 137.18 175.44 148.82 164.19 145.57 163.41 157.25 152.9 152.1 150.1 163.47 140.65 156.56 135.9 167.26 127.8 158.82 121.27 168.53 114.74 158.82 106.64 167.27 101.89 156.56 92.44 163.47 89.64 152.1 79.13 157.25 78.35 145.57 67.1 148.81 68.36 137.18 56.72 138.43 59.96 127.18 48.28 126.41 53.43 115.89 42.07 113.09 48.97 103.64 38.27 98.9 46.72 90.79 37 84.27 46.72 77.74 38.27 69.63 48.97 64.89 42.07 55.44 53.43 52.64 48.28 42.12 59.97 41.35 56.72 30.1 68.36 31.35 67.1 19.71 78.35 22.96 79.13 11.28 89.64 16.43 92.44 5.06 101.89 11.97 106.64 1.26 114.74 9.72 121.27 0 127.8 9.72 135.9 1.26 140.65 11.97 150.1 5.06 152.9 16.43 163.41 11.28 164.19 22.96 175.44 19.71 174.19 31.35 185.82 30.1 182.58 41.35 194.26 42.12 189.11 52.64 200.48 55.44 193.57 64.89 204.27 69.63 195.82 77.74 205.54 84.27"/><path class="cls-1" d="M121.27,148.85a64.59,64.59,0,1,1,64.59-64.58A64.66,64.66,0,0,1,121.27,148.85Zm0-125.53a60.95,60.95,0,1,0,61,61A61,61,0,0,0,121.27,23.32Z"/><path class="cls-3" d="M162.1,88.44l-.25-12.38a35.71,35.71,0,0,0-36.22-35l-6.32.11a35.7,35.7,0,0,0-35,36.21l.23,5.53Z"/><path class="cls-3" d="M122.54,56.4c.16-5.09.36-10.18.65-15.27l-3.88.07a35.7,35.7,0,0,0-35,36.21l.23,5.53L99,84C99.34,70.24,109.78,53.5,122.54,56.4Z"/><path class="cls-3" d="M157.68,87.39a1.1,1.1,0,0,1-1.1-1.08l-.18-10.15a30.29,30.29,0,0,0-30.14-29.63h-.53l-6.33.11A30.2,30.2,0,0,0,89.77,77.32a1.09,1.09,0,0,1-1.08,1.12,1.11,1.11,0,0,1-1.11-1.08,32.4,32.4,0,0,1,31.78-32.92l6.9-.11A32.5,32.5,0,0,1,158.6,76.12l.18,10.15a1.1,1.1,0,0,1-1.08,1.12Z"/><path class="cls-3" d="M69.55,91.28h90.67a1.89,1.89,0,0,0,1.88-1.89h0a1.89,1.89,0,0,0-1.88-1.88L84.76,81.43,69.55,87.51c-1.15.4-1.88.85-1.88,1.88h0A1.89,1.89,0,0,0,69.55,91.28Z"/><path class="cls-3" d="M148.43,122.48C135.55,119,126.9,108.37,126.9,96.16h11.3c0,7.06,5.31,13.26,13.21,15.42Z"/><rect class="cls-3" x="101.34" y="120.74" width="34.93" height="3.48" transform="translate(-51.09 106.62) rotate(-40.54)"/><path class="cls-3" d="M122.17,119.08c-5.06-5.67-10.48-14.93-10.48-23.9h3.48c0,8,5,16.39,9.6,21.58Z"/><path class="cls-3" d="M74.86,61.07h-4V83h4a6.73,6.73,0,0,0,6.7-6.71V67.77A6.73,6.73,0,0,0,74.86,61.07Z"/><path class="cls-3" d="M127.92,82.21V73a1,1,0,0,0-1-1h0a1,1,0,0,0-1,1v9.17a1,1,0,0,0,1,1h0A1,1,0,0,0,127.92,82.21Z"/><path class="cls-3" d="M133.09,82.21V73a1,1,0,0,0-1-1h0a1,1,0,0,0-1,1v9.17a1,1,0,0,0,1,1h0A1,1,0,0,0,133.09,82.21Z"/><path class="cls-3" d="M138.27,82.21V73a1,1,0,0,0-1-1h0a1,1,0,0,0-1,1v9.17a1,1,0,0,0,1,1h0A1,1,0,0,0,138.27,82.21Z"/><path class="cls-4" d="M162.1,88.44l-.25-12.38a35.71,35.71,0,0,0-36.22-35l-6.32.11a35.7,35.7,0,0,0-35,36.21l.23,5.53Z"/><path class="cls-5" d="M122.54,56.4c.16-5.09.36-10.18.65-15.27l-3.88.07a35.7,35.7,0,0,0-35,36.21l.23,5.53L99,84C99.34,70.24,109.78,53.5,122.54,56.4Z"/><path class="cls-6" d="M157.68,87.39a1.1,1.1,0,0,1-1.1-1.08l-.18-10.15a30.29,30.29,0,0,0-30.14-29.63h-.53l-6.33.11A30.2,30.2,0,0,0,89.77,77.32a1.09,1.09,0,0,1-1.08,1.12,1.11,1.11,0,0,1-1.11-1.08,32.4,32.4,0,0,1,31.78-32.92l6.9-.11A32.5,32.5,0,0,1,158.6,76.12l.18,10.15a1.1,1.1,0,0,1-1.08,1.12Z"/><path class="cls-4" d="M69.55,91.28h90.67a1.89,1.89,0,0,0,1.88-1.89h0a1.89,1.89,0,0,0-1.88-1.88L84.76,81.43,69.55,87.51c-1.15.4-1.88.85-1.88,1.88h0A1.89,1.89,0,0,0,69.55,91.28Z"/><path class="cls-7" d="M148.43,122.48C135.55,119,126.9,108.37,126.9,96.16h11.3c0,7.06,5.31,13.26,13.21,15.42Z"/><rect class="cls-7" x="101.34" y="120.74" width="34.93" height="3.48" transform="translate(-51.09 106.62) rotate(-40.54)"/><path class="cls-7" d="M122.17,119.08c-5.06-5.67-10.48-14.93-10.48-23.9h3.48c0,8,5,16.39,9.6,21.58Z"/><path class="cls-8" d="M74.86,61.07h-4V83h4a6.73,6.73,0,0,0,6.7-6.71V67.77A6.73,6.73,0,0,0,74.86,61.07Z"/><path class="cls-7" d="M127.92,82.21V73a1,1,0,0,0-1-1h0a1,1,0,0,0-1,1v9.17a1,1,0,0,0,1,1h0A1,1,0,0,0,127.92,82.21Z"/><path class="cls-7" d="M133.09,82.21V73a1,1,0,0,0-1-1h0a1,1,0,0,0-1,1v9.17a1,1,0,0,0,1,1h0A1,1,0,0,0,133.09,82.21Z"/><path class="cls-7" d="M138.27,82.21V73a1,1,0,0,0-1-1h0a1,1,0,0,0-1,1v9.17a1,1,0,0,0,1,1h0A1,1,0,0,0,138.27,82.21Z"/></g></svg>