<svg xmlns="http://www.w3.org/2000/svg" viewBox="0 0 106.73 104.36"><defs><style>.cls-1{isolation:isolate;}.cls-2,.cls-3,.cls-4{fill:none;stroke:#094e54;stroke-linecap:round;stroke-linejoin:round;stroke-width:1.06px;}.cls-3{stroke-dasharray:2.35 3.92;}.cls-4{stroke-dasharray:2.57 4.29;}.cls-5{fill:#63b7c2;}.cls-6{fill:#abf8b7;}.cls-6,.cls-8{mix-blend-mode:multiply;opacity:0.62;}.cls-7{fill:#d5f8da;}.cls-8{fill:#e5f8d0;}.cls-9{font-size:16.02px;fill:#2b6c75;font-family:VAGRounded-Bold, VAG Rounded;font-weight:700;}.cls-10{letter-spacing:-0.02em;}.cls-11{fill:#878787;}.cls-11,.cls-12,.cls-13,.cls-14{fill-rule:evenodd;}.cls-12{fill:#017a6b;}.cls-13{fill:#00877a;}.cls-14{fill:#039180;}</style></defs><g class="cls-1"><g id="Capa_1" data-name="Capa 1"><line class="cls-2" x1="50.07" y1="55.23" x2="50.07" y2="56.45"/><line class="cls-3" x1="50.07" y1="60.37" x2="50.07" y2="77.22"/><polyline class="cls-2" points="50.07 79.18 50.07 80.4 51.11 81.05"/><line class="cls-4" x1="54.75" y1="83.3" x2="82.06" y2="100.24"/><line class="cls-2" x1="83.88" y1="101.37" x2="84.92" y2="102.02"/><path class="cls-5" d="M86.23,2.52,82.35.28a2.91,2.91,0,0,0-2.91.26L4.5,43.57C2,45,0,48.86,0,52.17V73.64c0,1.82.61,3.1,1.57,3.64h0l3.88,2.24,2.18-4.3L79.44,34c2.49-1.44,4.5-5.29,4.5-8.6V7Z"/><path class="cls-6" d="M0,52.17V73.64c0,1.82.61,3.1,1.57,3.64h0l3.88,2.24,2.18-4.3.14-.08,0-26.91-5.19-3A11.45,11.45,0,0,0,0,52.17Z"/><path class="cls-7" d="M8.39,45.82l74.94-43c2.48-1.43,4.5.09,4.5,3.41V27.65c0,3.32-2,7.17-4.5,8.6l-74.94,43c-2.49,1.43-4.5-.09-4.5-3.4V54.42C3.89,51.1,5.9,47.25,8.39,45.82Z"/><path class="cls-8" d="M88.5,3.62h0l0,0h0L84.63,1.38a2.88,2.88,0,0,0-2.91.25l-74.94,43a7.41,7.41,0,0,0-1.9,1.68h0c-.19.24-.38.49-.56.74l-.21.35c-.14.21-.26.42-.39.64l-.21.41c-.12.25-.24.5-.34.75s-.1.21-.14.32c-.13.35-.25.71-.35,1.08,0,.11-.06.21-.08.32-.07.29-.13.57-.18.86,0,.11,0,.22-.05.33a8.71,8.71,0,0,0-.08,1.13V74.73c0,1.82.61,3.1,1.57,3.64h0l3.89,2.25h0a2.87,2.87,0,0,0,2.93-.24l74.94-43c2.49-1.43,4.5-5.28,4.5-8.59V7.28C90.1,5.44,89.48,4.15,88.5,3.62Z"/><text class="cls-9" transform="matrix(0.75, -0.43, 0, 1, 19.58, 55.47)">Pa<tspan class="cls-10" x="18.1" y="0">r</tspan><tspan x="23.15" y="0">que de </tspan><tspan x="7.12" y="13.73">los </tspan><tspan class="cls-10" x="30.7" y="13.73">r</tspan><tspan x="35.75" y="13.73">etos </tspan></text><path class="cls-11" d="M88.48,103.54c.87,0,1.56.18,1.55.41s-.71.41-1.58.41-1.56-.18-1.55-.41S87.61,103.54,88.48,103.54Z"/><path class="cls-12" d="M86.69,39.64a16.62,16.62,0,0,1,5.83.33l-.5,0c-8.73-.48-16.36,9.21-17,20.41C74.12,77.66,81.43,90.38,88,103c-8.72-12.11-19.2-25.58-18.27-42.94C70.33,48.85,76.42,40.73,86.69,39.64Z"/><path class="cls-12" d="M88.87,48.73c4,1.9,6.73,7.52,6.38,14S91.6,74.49,87.41,76a7.06,7.06,0,0,0,2.63.68c5.4.29,10.12-5.81,10.54-13.62s-3.61-14.38-9-14.67A6.87,6.87,0,0,0,88.87,48.73Z"/><path class="cls-13" d="M92,39.93c8.74.47,15.24,11.59,14.67,22.13C105.78,79,96.84,92.79,88.48,104,81.8,91,74.1,78.09,75.06,60.34c.6-11.2,8.23-20.89,17-20.41Zm-.45,8.41C86.17,48,81.45,54.14,81,62s3.61,14.39,9,14.68S100.16,70.82,100.58,63,97,48.63,91.57,48.34Z"/><path class="cls-14" d="M92,39.93c8.74.47,15.24,11.59,14.67,22.13-.85,15.89-8.8,29-16.69,39.83l0-25.26h0c5.4.29,10.12-5.81,10.54-13.62s-3.61-14.38-9-14.67a6.74,6.74,0,0,0-1.49.08l0-8.43A10.22,10.22,0,0,1,92,39.93Z"/></g></g></svg>