<svg xmlns="http://www.w3.org/2000/svg" xmlns:xlink="http://www.w3.org/1999/xlink" viewBox="0 0 982.86 483.71"><defs><style>.cls-1{fill:none;}.cls-2{isolation:isolate;}.cls-10,.cls-18,.cls-20,.cls-27,.cls-3,.cls-30,.cls-46,.cls-47,.cls-62{opacity:0.4;}.cls-4{clip-path:url(#clip-path);}.cls-5{fill:#80bc01;}.cls-6{opacity:0.2;}.cls-7{clip-path:url(#clip-path-2);}.cls-41,.cls-8{fill:#f4f3ae;}.cls-10,.cls-9{fill:#8cd2f4;}.cls-9{opacity:0.8;}.cls-10,.cls-14,.cls-16,.cls-18,.cls-20,.cls-21,.cls-27,.cls-30,.cls-41,.cls-46,.cls-47,.cls-57,.cls-58,.cls-62,.cls-63,.cls-65{mix-blend-mode:multiply;}.cls-11{fill:#c8df8e;}.cls-12{fill:#dae8a2;}.cls-13{fill:#abd422;}.cls-14{fill:#d1d1d2;}.cls-15,.cls-16{fill:#79e5e1;}.cls-16,.cls-57,.cls-58,.cls-63,.cls-65{opacity:0.3;}.cls-17,.cls-18{fill:#49a942;}.cls-19{fill:#965f0e;}.cls-20,.cls-34{fill:#572700;}.cls-21{fill:#bcbec0;opacity:0.5;}.cls-22{fill:#02663a;}.cls-23{fill:#004928;}.cls-24{fill:#004420;}.cls-25{fill:#00562b;}.cls-26,.cls-27{fill:#a06606;}.cls-28{fill:#037240;}.cls-29,.cls-30{fill:#ffde4f;}.cls-31,.cls-63{fill:#323232;}.cls-32{fill:#58595b;}.cls-33{fill:#414042;}.cls-35{fill:#80561b;}.cls-36{fill:#cb7019;}.cls-37{fill:#794400;}.cls-38{fill:#ac5817;}.cls-39{fill:#008752;}.cls-40{fill:#00703c;}.cls-42{fill:#f9bf98;}.cls-43,.cls-58{fill:#fdcba3;}.cls-44{fill:#231f20;}.cls-45,.cls-46{fill:#232f84;}.cls-48{fill:#56004e;}.cls-49{fill:#939598;}.cls-50{fill:#808285;}.cls-51{fill:#fbb480;}.cls-52{fill:#532e63;}.cls-53{fill:#214265;}.cls-54{fill:#95a9cb;}.cls-55{fill:#b32317;}.cls-56,.cls-57{fill:#652d89;}.cls-59{fill:#663700;}.cls-60{fill:#fbb000;}.cls-61,.cls-62{fill:#ffd200;}.cls-64{fill:#ffc700;}.cls-65{fill:#fdbb30;}</style><clipPath id="clip-path"><rect class="cls-1" x="-1.43" y="-697.41" width="982.86" height="483.71" rx="25.96"/></clipPath><clipPath id="clip-path-2"><rect class="cls-1" width="982.86" height="483.71" rx="25.96"/></clipPath></defs><g class="cls-2"><g id="Capa_1" data-name="Capa 1"><g class="cls-3"><g class="cls-4"><rect class="cls-5" x="2.87" y="-360.99" width="1014.32" height="385.87"/></g></g><g class="cls-6"><g class="cls-7"><rect class="cls-5" x="4.3" y="336.42" width="1014.32" height="385.87"/><rect class="cls-8" x="4.3" y="391.19" width="1014.32" height="75.85"/><path class="cls-9" d="M891.57,39.5c0-.13,0-.27,0-.41a8.85,8.85,0,0,1,11.89-8.32A7.42,7.42,0,0,1,916.6,33.6a6.94,6.94,0,0,1,1.11-.1,7.43,7.43,0,0,1,6.55,3.91,10.57,10.57,0,0,1,2.19-.23,10.4,10.4,0,1,1-8,17,11.61,11.61,0,0,1-18.8-.38,8.86,8.86,0,1,1-8.06-14.33Z"/><path class="cls-9" d="M960,129c0-.09,0-.18,0-.27a5.94,5.94,0,0,1,8-5.58,5,5,0,0,1,8.81,1.9,4.74,4.74,0,0,1,.75-.06,5,5,0,0,1,4.39,2.62,6.41,6.41,0,0,1,1.46-.16A7,7,0,1,1,978,138.88a7.78,7.78,0,0,1-12.6-.25A5.94,5.94,0,1,1,960,129Z"/><path class="cls-9" d="M36.71,39.5c0-.13,0-.27,0-.41a8.86,8.86,0,0,1,11.9-8.32A7.43,7.43,0,0,1,61.74,33.6a6.74,6.74,0,0,1,1.11-.09,7.44,7.44,0,0,1,6.55,3.91,9.78,9.78,0,0,1,2.18-.24,10.4,10.4,0,1,1-8,17,11.61,11.61,0,0,1-18.8-.38A8.86,8.86,0,1,1,36.71,39.5Z"/><path class="cls-9" d="M203.9,116.89c0-.15,0-.3,0-.46a10,10,0,0,0-13.41-9.38,8.37,8.37,0,0,0-14.83,3.19,8.68,8.68,0,0,0-1.26-.11,8.39,8.39,0,0,0-7.38,4.41,11.72,11.72,0,1,0,6.58,18.93,13.08,13.08,0,0,0,21.18-.42,10,10,0,1,0,9.09-16.16Z"/><polygon class="cls-10" points="619.52 244.29 619.52 221.58 582.08 221.58 582.08 192.21 572.56 192.21 572.56 186.14 547.68 186.14 547.68 192.21 538.16 192.21 538.16 242.54 508.81 242.54 508.81 219.49 501.28 219.49 501.28 213.14 470.35 213.14 470.35 219.49 462.82 219.49 462.82 237.3 421.93 237.3 421.93 261.76 396.54 261.76 396.54 209.28 388.35 209.28 388.35 204.06 366.94 204.06 366.94 209.28 358.74 209.28 358.74 237.4 330.38 237.4 330.38 314.62 358.74 314.62 362.17 314.62 387.53 314.62 396.54 314.62 421.93 314.62 428.36 314.62 462.82 314.62 465.82 314.62 504.18 314.62 508.81 314.62 538.16 314.62 554.87 314.62 575.63 314.62 582.08 314.62 608.6 314.62 619.52 314.62 658.54 314.62 658.54 244.29 619.52 244.29"/><path class="cls-11" d="M1018.61,277.89s-100-38.19-301.46,1.23c-156,30.53-202,19.84-291.4,10.43-96.13-10.11-209.46-9.06-229.89,14.94-13.36,15.7-50,16.61-50,16.61h872.78Z"/><path class="cls-12" d="M4.3,267.85S31.17,243.09,105.44,263C182,283.55,214.25,272.56,247,267.85c68-9.8,93.64-17,193.53,16.94S586.15,321.1,586.15,321.1H4.3Z"/><rect class="cls-13" x="4.3" y="313.43" width="1014.32" height="78.43"/><path class="cls-14" d="M423,344.93c0,7.85-82.7,14.21-184.72,14.21S53.6,352.78,53.6,344.93s82.7-14.21,184.72-14.21S423,337.09,423,344.93Z"/><path class="cls-15" d="M420,342.88c0,7.85-82.71,14.21-184.73,14.21S50.52,350.73,50.52,342.88s82.7-14.21,184.72-14.21S420,335,420,342.88Z"/><path class="cls-16" d="M420,342.88c0-7.51-75.9-13.67-172-14.17h0c78.57,10.79,67.18,27,67.18,27C377.17,353.4,420,348.53,420,342.88Z"/><path class="cls-14" d="M114.05,373.68c0,2.24-8,4.05-17.84,4.05s-17.84-1.81-17.84-4.05,8-4.05,17.84-4.05S114.05,371.44,114.05,373.68Z"/><path class="cls-17" d="M112.71,205c11.31,39,5.6,108.5-26.29,108.5S48.81,244,60.13,205c6.08-21,16.89-32,26.29-32S106.63,184,112.71,205Z"/><path class="cls-18" d="M112.71,204.94C107.6,187.35,99.17,176.8,91,173.85c4.76,5.65,18.89,132-12,138.21a20,20,0,0,0,7.33,1.4C118.31,313.46,124,244,112.71,204.94Z"/><path class="cls-19" d="M83.52,267.33l-.36,22.43c-3.24-2-8.11-4.84-8.8-4.92-1-.12-.7.82.11,1.39.6.44,5.61,4.79,8.62,7.81l-.42,80.36H92l-1.14-72.92c2.18-2.25,4.47-4.42,4.9-4.73.82-.59.7-2.3-.35-2.18a29.52,29.52,0,0,0-4.83,2.69l-1.92-29.93a3.09,3.09,0,0,0-2.5-1A3.44,3.44,0,0,0,83.52,267.33Z"/><path class="cls-20" d="M95.7,294.6a.72.72,0,0,0-.33,0,29.52,29.52,0,0,0-4.83,2.69v-.05l0,0L89.69,284l-1.07-16.68a3.22,3.22,0,0,0-1.87-.95l0,108h5.12l-1.1-72.93c1.5-1.57,3.07-3.08,4-4,.42-.39.74-.67.87-.76a1.31,1.31,0,0,0,.43-.6A1.24,1.24,0,0,0,95.7,294.6Z"/><path class="cls-14" d="M994.61,353.4c0,2.23-8,4-17.84,4s-17.83-1.81-17.83-4,8-4.06,17.83-4.06S994.61,351.16,994.61,353.4Z"/><path class="cls-17" d="M993.27,184.68c11.32,39,5.6,108.5-26.29,108.5s-37.6-69.49-26.28-108.51c6.07-21,16.88-32,26.28-32S987.19,163.71,993.27,184.68Z"/><path class="cls-18" d="M993.27,184.65c-5.11-17.58-13.54-28.14-21.67-31.08,4.77,5.64,18.9,132-12,138.21a20.17,20.17,0,0,0,7.33,1.4C998.87,293.18,1004.59,223.67,993.27,184.65Z"/><path class="cls-19" d="M964.08,247.05l-.36,22.43c-3.24-2-8.11-4.85-8.8-4.92-1-.12-.7.81.12,1.39.59.43,5.61,4.79,8.61,7.81l-.42,80.36h9.29l-1.14-72.93c2.18-2.24,4.47-4.42,4.9-4.73.82-.58.7-2.29-.35-2.17A30,30,0,0,0,971.1,277l-1.92-29.93a3.09,3.09,0,0,0-2.5-1A3.44,3.44,0,0,0,964.08,247.05Z"/><path class="cls-20" d="M976.26,274.31a.88.88,0,0,0-.33,0A30,30,0,0,0,971.1,277v-.05h0l-.82-13.22-1.07-16.67a3.11,3.11,0,0,0-1.86-1l0,108h5.12l-1.1-72.94c1.5-1.56,3.07-3.07,4-4,.41-.39.74-.67.86-.76a1.21,1.21,0,0,0,.43-.59A1.25,1.25,0,0,0,976.26,274.31Z"/><path class="cls-21" d="M826.91,350.52c0,2.3-10.21,2.08-23.72,2.33s-25.19.88-25.23-1.42,10.88-4.37,24.4-4.62S826.87,348.22,826.91,350.52Z"/><path class="cls-22" d="M802.06,217.9A26.41,26.41,0,0,0,750,211.72a26.7,26.7,0,0,0-7.64,8.26,14.9,14.9,0,1,0,.17,27.08,26.4,26.4,0,0,0,48.25-7.5A26.36,26.36,0,0,0,802.06,217.9Z"/><path class="cls-23" d="M833.84,216.38a22.61,22.61,0,0,0-44.59-5.3,22.82,22.82,0,0,0-6.55,7.07,12.76,12.76,0,1,0,.15,23.19,22.61,22.61,0,0,0,41.32-6.42A22.6,22.6,0,0,0,833.84,216.38Z"/><path class="cls-24" d="M871.44,237.88a23.56,23.56,0,0,0-35.36-30.65,23.67,23.67,0,0,0-9.78,2.27,13.3,13.3,0,1,0-13.43,20.09,23.55,23.55,0,0,0,39.38,18.62A23.56,23.56,0,0,0,871.44,237.88Z"/><path class="cls-25" d="M902.63,212a22.61,22.61,0,0,1-38.08,23.81,22.64,22.64,0,0,1-8.94-3.6,12.51,12.51,0,0,1-4.24,3.25,12.76,12.76,0,1,1-5.51-24.29A22.61,22.61,0,0,1,886,199.35,22.56,22.56,0,0,1,902.63,212Z"/><path class="cls-26" d="M785.06,213.71c-.17,1.88.25,19-7.92,25.82,0,0,17.56,16.05,27.31,21.3l-3.52,14.46S769.19,257,764.1,232.72c0,0-10.84-1.7-16.59-13.93l3.23-2.37s4.89,9.13,11.28,9.68c0,0,.76-13.18,2.63-17.18l6.35.92s-4.27,17.34,2.4,24.82c0,0,8.21-11.78,7.33-19Z"/><path class="cls-27" d="M785.06,213.71c-.17,1.88.25,19-7.92,25.82,0,0,17.56,16.05,27.31,21.3l-3.52,14.46S769.19,257,764.1,232.72c0,0-10.84-1.7-16.59-13.93l3.23-2.37s4.89,9.13,11.28,9.68c0,0,.76-13.18,2.63-17.18l6.35.92s-4.27,17.34,2.4,24.82c0,0,8.21-11.78,7.33-19Z"/><path class="cls-26" d="M811.24,193s-1.89,23.39-6.79,38.1-18.86,46-20.75,61.49-5.28,57.34-5.28,57.34,20.37,3.77,31.68-2.26c0,0-9.42-43-1.5-72.44s40.74-66.39,40.74-66.39l-4.15-4.15s-23.77,24.14-29.8,34.71c0,0,7.17-29,3.77-45.27Z"/><path class="cls-27" d="M794.1,351.08c5.53-.15,11.49-1,16-3.4,0,0-9.42-43-1.5-72.44s40.74-66.39,40.74-66.39L848,207.48s-44.59,47.32-48,74.8S794.1,351.06,794.1,351.08Z"/><path class="cls-28" d="M913.35,211.11A18.79,18.79,0,0,0,909,199a22.43,22.43,0,0,0-8.56-32.21A28.56,28.56,0,0,0,878,127.06a26.23,26.23,0,0,0-23.12-13.84c-.67,0-1.34,0-2,.08a31.11,31.11,0,0,0-54-16.49,22.05,22.05,0,0,0-29.41.3,44,44,0,0,0-55.86,42.42,44.41,44.41,0,0,0,.36,5.57,22,22,0,0,0-5.59,25.63,25.16,25.16,0,0,0-4.48,38.34,22.07,22.07,0,1,0,33,28.89,22.08,22.08,0,0,0,15.6-11.07,22.12,22.12,0,0,0,14.35-.83,22.06,22.06,0,0,0,30.2-6.07,22.07,22.07,0,0,0,27.62-6.23,22.08,22.08,0,0,0,24.22-1.29,22.09,22.09,0,0,0,17.24,12.79,22.06,22.06,0,0,0,31.74,4.4A18.85,18.85,0,0,0,913.35,211.11Z"/><path class="cls-25" d="M835.87,202.77A20.4,20.4,0,0,1,813.5,204,20.36,20.36,0,0,1,788,209.72a20.39,20.39,0,0,1-27.88,5.6,20.42,20.42,0,0,1-13.25.76,20.38,20.38,0,0,1-14.4,10.22A20.38,20.38,0,0,1,697,222.41a22.37,22.37,0,0,0-.18,2.85A22.06,22.06,0,0,0,736.93,238a22.08,22.08,0,0,0,15.6-11.07,22.12,22.12,0,0,0,14.35-.83,22.06,22.06,0,0,0,30.2-6.07,22.07,22.07,0,0,0,27.62-6.23,22.08,22.08,0,0,0,22.71-.27A20.41,20.41,0,0,1,835.87,202.77Z"/><path class="cls-25" d="M909,199a22.43,22.43,0,0,0-8.56-32.21A28.56,28.56,0,0,0,878,127.06a26.23,26.23,0,0,0-23.12-13.84c-.67,0-1.34,0-2,.08a31.13,31.13,0,0,0-36.34-26.37,28.76,28.76,0,0,1,23,24.29c.61,0,1.22-.08,1.84-.08a24.21,24.21,0,0,1,21.34,12.77,26.39,26.39,0,0,1,20.69,36.71,20.7,20.7,0,0,1,7.9,29.73,17.41,17.41,0,0,1-10.21,28.29,20.36,20.36,0,0,1-29.3-4.06c-.68-.09-1.33-.22-2-.37a22.1,22.1,0,0,0,16.35,11,22.06,22.06,0,0,0,31.74,4.4A18.86,18.86,0,0,0,909,199Z"/><path class="cls-29" d="M238.9,200.28a13,13,0,1,1-13-13A13,13,0,0,1,238.9,200.28Z"/><path class="cls-30" d="M230.74,188.21a13,13,0,0,1-13.9,21.41,13,13,0,1,0,13.9-21.41Z"/><rect class="cls-31" x="224.33" y="214.33" width="3.12" height="169.66"/><rect class="cls-32" x="222.79" y="367.8" width="6.21" height="16.6"/><rect class="cls-32" x="222.36" y="214.8" width="7.07" height="1.69"/><rect class="cls-32" x="213.15" y="387.82" width="25.5" height="2.91"/><polygon class="cls-33" points="236.16 387.82 230.91 384.4 220.88 384.4 215.64 387.82 236.16 387.82"/><rect class="cls-33" x="221.14" y="212.51" width="9.51" height="2.77"/><rect class="cls-31" x="222.82" y="276.92" width="6.16" height="2.17"/><rect class="cls-31" x="222.82" y="280.36" width="6.16" height="2.17"/><rect class="cls-31" x="222.82" y="283.81" width="6.16" height="2.17"/><rect class="cls-31" x="222.82" y="287.25" width="6.16" height="2.17"/><path class="cls-29" d="M750.76,200.28a13,13,0,1,1-13-13A13,13,0,0,1,750.76,200.28Z"/><path class="cls-30" d="M742.59,188.21a13,13,0,0,1-13.89,21.41,13,13,0,1,0,13.89-21.41Z"/><rect class="cls-31" x="736.19" y="214.33" width="3.12" height="169.66"/><rect class="cls-32" x="734.64" y="367.8" width="6.21" height="16.6"/><rect class="cls-32" x="734.21" y="214.8" width="7.07" height="1.69"/><rect class="cls-32" x="725" y="387.82" width="25.5" height="2.91"/><polygon class="cls-33" points="748.01 387.82 742.76 384.4 732.73 384.4 727.49 387.82 748.01 387.82"/><rect class="cls-33" x="733" y="212.51" width="9.51" height="2.77"/><rect class="cls-31" x="734.67" y="276.92" width="6.16" height="2.17"/><rect class="cls-31" x="734.67" y="280.36" width="6.16" height="2.17"/><rect class="cls-31" x="734.67" y="283.81" width="6.16" height="2.17"/><rect class="cls-31" x="734.67" y="287.25" width="6.16" height="2.17"/><path class="cls-14" d="M491.9,391.69c0,1.27-39,2.3-87.22,2.3s-87.16-1-87.16-2.3,39-2.3,87.16-2.3S491.9,390.42,491.9,391.69Z"/><rect class="cls-34" x="329.7" y="352.33" width="11.92" height="38.47"/><rect class="cls-34" x="471.33" y="352.33" width="12.42" height="38.47"/><rect class="cls-35" x="332.78" y="308.27" width="7.58" height="44.46"/><rect class="cls-35" x="472.58" y="308.27" width="7.58" height="44.46"/><rect class="cls-36" x="328.8" y="311.08" width="155.85" height="9.86"/><rect class="cls-36" x="328.8" y="324.52" width="155.85" height="9.86"/><rect class="cls-36" x="328.8" y="337.95" width="155.85" height="9.85"/><rect class="cls-37" x="329.7" y="360.94" width="154.06" height="5.82"/><rect class="cls-38" x="319.84" y="352.29" width="173.77" height="9.67"/><polygon class="cls-39" points="550.07 390.73 515.43 390.73 510.82 330.85 554.67 330.85 550.07 390.73"/><rect class="cls-40" x="509.06" y="330.85" width="47.38" height="5.9"/><path class="cls-41" d="M141.88,449.58c0,1.71,26.2,3.09,58.54,3.09S259,451.29,259,449.58s-26.21-3.08-58.53-3.08S141.88,447.88,141.88,449.58Z"/><path class="cls-42" d="M168.08,282.79s3,7,1.79,10.88c0,0,7-3,11-2.9,0,0-3.59-7.44-3-13.63A10.79,10.79,0,0,0,168.08,282.79Z"/><path class="cls-43" d="M160.08,264.53a19.42,19.42,0,0,0-1.16,5.29c0,2.34-1.6,4.75-2.23,5.87s.19,1.52,1,1.62,1.47,2.28,1.4,4.07-.79,7.34,3.15,6.08,12.8-.45,15.28-10.39C180.28,266.14,168.49,257.7,160.08,264.53Z"/><path class="cls-34" d="M173.9,272s.82-5.25,2.88-1.8c1.23,2-.16,4.44-.59,5.74s1,4.27,1.85,5.55c0,0,2.17-6.31,2.71-8.05s2.54-8.79-.82-11c0,0,1-3.23-4.07-5.1-3.08-1.13-10.89-2.1-13.56-.33-3.91,2.59-8.23,1.18-6.88,4.27.76,1.74.47,5.5,7.64,5.5,6.51,0,8.68-.32,9.44-.87C172.5,265.94,171.36,271.05,173.9,272Z"/><path class="cls-43" d="M243,398.53l7-1s2.9,4.4.8,8.62l-7.54-.64Z"/><path class="cls-44" d="M247.8,397.82a2.39,2.39,0,0,1,.74-3.81c2.56-1.59,5.72-2.64,6.55-3.54s3.7-2,4.75.22,1.27,10,2.78,12.58,3.84,9.34,3.61,13.55-2,7.84-4.29,4.08-9.42-13-11.59-14-1.27-.89-1.27-.89S252.7,400.87,247.8,397.82Z"/><path class="cls-43" d="M152.82,429.76l-2.5,10.18s-4.26,3.91-7.46-3.57l2.1-7.44Z"/><path class="cls-44" d="M150.32,439.94A2.39,2.39,0,0,1,153,442.7c-.13,3-1,6.2-.78,7.4s-.47,4.16-2.86,3.79-9-4.6-12-4.8-9.87-2.11-13.22-4.69-5.37-6-.94-5.83,16.08-.41,18.11-1.66,1.46-.54,1.46-.54S145,442.25,150.32,439.94Z"/><path class="cls-45" d="M166.09,363.12a19.91,19.91,0,0,0,3.54-14.24s9.14,1.19,27.45-4.14c0,0,6,7.77,6.61,13.9.7,7.21-2.61,17.15-.42,22.7,0,0,2.22,14.86,6.71,14.86s34.21.31,34.21.31,2.5,6.74.25,10c0,0-39.12,3.41-43.94,1.18-7.81-3.63-18.95-36.91-18.95-36.91s-12.66,17.47-15.9,20.71-10.93,39.93-10.93,39.93-8.09.18-11.58-2.31c0,0,7.79-33.88,8-37.62S160.35,371.68,166.09,363.12Z"/><path class="cls-46" d="M181.55,370.76s-12.66,17.47-15.9,20.71a4,4,0,0,0-.63.94c.07-.14,4.06-7.83,6-12s4.63-6.62,5.29-9.05.33-10.83.11-12.38c0,0,4.75,9.07,6.29,11.28s8.08,24.34,10.54,28.41c.11.18.16.29.22.4C187.34,388.07,181.55,370.76,181.55,370.76Z"/><g class="cls-47"><path class="cls-45" d="M205.93,391.62h0c1,2.56,2.39,4.59,4,4.59,2.46,0,12.54.09,21.12.18h0s-19.43,1.7-21.86,1.26S205.93,391.62,205.93,391.62Z"/><path class="cls-45" d="M197.08,344.74s6,7.77,6.61,13.9c0,.47,0,1,0,1.48-.17-3.47-3.87-7.63-6.41-10.6s-11.13-.78-11.13-.78a12.31,12.31,0,0,1-3.63-.67A119.91,119.91,0,0,0,197.08,344.74Z"/><path class="cls-48" d="M203.31,381.62l-.5-1.89a1,1,0,0,1,0-.14,8.63,8.63,0,0,0,.45,1.75S203.28,381.46,203.31,381.62Z"/><path class="cls-48" d="M203.59,364.68c.07-1.59.14-2.91.17-3.77C203.76,362.13,203.7,363.38,203.59,364.68Z"/></g><path class="cls-43" d="M188.65,295.74s10.33,16.49,12,20.15-13.31,17.29-13.31,17.29-5.05-6.57,2.62-14.72C194.08,314.08,182.87,308,188.65,295.74Z"/><path class="cls-49" d="M179.14,286.19s5.89,1.28,8.24,5.41,4.85,17.09,4.3,22.6,0,15.24,3.54,23.37,4.1,8.53,4.1,8.53-22.52,5.23-30,4.13c0,0,1.94-4.56-.44-12.91-2.9-10.19-7.32-23.84-7-28.38s-.09-8.93,2.79-13.39c2.39-3.71,2.93-4.51,5.41-5.58A13.21,13.21,0,0,0,179.14,286.19Z"/><path class="cls-43" d="M173.27,310.57s3.84,14.58,3.21,16-10.95,9.84-14.18,10.88-5.61,1.67-7,1.14-2.08-2.49-4.06-2a3.14,3.14,0,0,0-2.39,2.28,6.32,6.32,0,0,0-.84,3.65c.21,1.78.52,4.3,1.77,4.93a7.55,7.55,0,0,0,5.63,0c1.46-.84,1.86-1.78,3.54-2s23.23-11.54,24.69-12,3.23-1.87,2-7.08S182.87,308,182.87,308Z"/><path class="cls-50" d="M186.11,308.49l-14.82,2.61a21.39,21.39,0,0,1-.64-12.09c1.66-6.32,9.16-7.35,11.66-3.41C183.75,297.86,186.11,308.49,186.11,308.49Z"/><path class="cls-31" d="M904.4,410.62a10.2,10.2,0,1,0,10.2-10.21A10.2,10.2,0,0,0,904.4,410.62Z"/><path class="cls-31" d="M782,410.62a10.21,10.21,0,1,0,10.21-10.21A10.21,10.21,0,0,0,782,410.62Z"/><polygon class="cls-31" points="826.67 403.17 837.69 409.21 838.91 406.97 827.89 400.93 826.67 403.17"/><rect class="cls-31" x="839.08" y="397.26" width="0.86" height="22.22" transform="translate(101.97 980.71) rotate(-63.75)"/><path class="cls-32" d="M843.5,410.62a10.2,10.2,0,1,0,10.2-10.21A10.2,10.2,0,0,0,843.5,410.62Z"/><path class="cls-51" d="M829.83,363.63l9.07,8.73s-4.51,5.83-5.41,8.53-5.21,10.62-5.21,10.62l4.85,3.23,15.12-18.53s5.59-5.84,1.45-9.8c-5.52-5.28-11.05-11.33-11.05-11.33Z"/><path class="cls-52" d="M842.85,356.78l-11.41,8.83-20.23-15.3s12.39-7.75,15.27-7.21S842.85,356.78,842.85,356.78Z"/><path class="cls-53" d="M835,392.55s-4.31,1.46-5.78-3c0,0-1.65-.59-3.43,2s-4.06,4.79-1.41,6.34,8.4,4.8,9.87,6.34,6,3.06,7.73,3.2,1.83-2.88,0-4.55S836.6,393.09,835,392.55Z"/><path class="cls-54" d="M835.41,404a20.73,20.73,0,0,0,6.57,3.44c-1.68-.14-6.24-1.64-7.73-3.2s-7.21-4.77-9.87-6.34a1.91,1.91,0,0,1-1-2.73h0c.22,1,1.89,2.2,3.78,3.38A68.15,68.15,0,0,1,835.41,404Z"/><path class="cls-55" d="M914.34,412a1.46,1.46,0,0,0,.7-.18,1.44,1.44,0,0,0,.55-2l-29.81-53.38a1.47,1.47,0,0,0-1.26-.74H821.36a1.45,1.45,0,0,0,0,2.89h62.31l29.41,52.63A1.44,1.44,0,0,0,914.34,412Z"/><path class="cls-55" d="M884.52,358.58a1.41,1.41,0,0,0,.68-.18,1.44,1.44,0,0,0,.59-1.95l-8-14.81,9.64-6.23a1.45,1.45,0,0,0,.43-2,1.44,1.44,0,0,0-2-.42l-10.76,6.95a1.44,1.44,0,0,0-.49,1.89l8.61,16A1.45,1.45,0,0,0,884.52,358.58Z"/><path class="cls-55" d="M851.8,412.3a1.07,1.07,0,0,0,.92-.53l32.57-54.08a1.08,1.08,0,1,0-1.85-1.11l-32.57,54.08a1.09,1.09,0,0,0,.37,1.48A1.13,1.13,0,0,0,851.8,412.3Z"/><path class="cls-55" d="M791.09,412.48a1.44,1.44,0,0,1-.56-2l30-54.09a1.5,1.5,0,0,1,2.52,0l30,54.09a1.45,1.45,0,0,1-1.26,2.14H792.18l-.2,0-.19,0A1.46,1.46,0,0,1,791.09,412.48Zm30.7-52.38-27.56,49.67h55.12Z"/><rect x="807.53" y="349.23" width="24.68" height="7.95" rx="2.16"/><path class="cls-31" d="M877.08,410.62A37.41,37.41,0,1,1,914.49,448,37.45,37.45,0,0,1,877.08,410.62Zm4.32,0a33.08,33.08,0,1,0,33.09-33.08A33.12,33.12,0,0,0,881.4,410.62Z"/><path class="cls-50" d="M881,410.62a33.54,33.54,0,1,1,33.54,33.53A33.57,33.57,0,0,1,881,410.62Zm1.61,0a31.93,31.93,0,1,0,31.93-31.92A32,32,0,0,0,882.56,410.62Z"/><path class="cls-31" d="M754.77,410.62A37.41,37.41,0,1,1,792.18,448,37.45,37.45,0,0,1,754.77,410.62Zm4.32,0a33.08,33.08,0,1,0,33.09-33.08A33.13,33.13,0,0,0,759.09,410.62Z"/><path class="cls-50" d="M758.64,410.62a33.54,33.54,0,1,1,33.54,33.53A33.57,33.57,0,0,1,758.64,410.62Zm1.61,0a31.93,31.93,0,1,0,31.93-31.92A32,32,0,0,0,760.25,410.62Z"/><rect class="cls-31" x="851" y="412.95" width="2.38" height="13.16" transform="translate(221.88 1130.13) rotate(-74.64)"/><path class="cls-43" d="M837,361.12s12.91,11.66,13.26,12.11c1.23,1.54.81,3.64.2,8-.45,3.22-2.75,27.57-2.75,27.57l6.93,1.15s9.29-38,7.48-42.16C860.64,364.44,845,351,845,351Z"/><path class="cls-53" d="M854.92,407.69s-3.95,2.79-7-1.07c0,0-1.9-.05-2.86,3.05s-2.58,5.95.69,6.62,10.28,2,12.31,3,7.27,1.06,9,.66.92-3.39-1.55-4.42S856.75,407.71,854.92,407.69Z"/><path class="cls-54" d="M859.21,418.7a23.7,23.7,0,0,0,7.93,1.27c-1.78.4-7,.38-9-.66s-9-2.35-12.31-3c-1.63-.34-2-1.18-1.94-2.35h0c.58.94,2.7,1.54,5,2.08A81,81,0,0,1,859.21,418.7Z"/><path class="cls-56" d="M832.38,336.24l18.21,16.22-11.88,12.41s-12.05-10.25-15.47-12.23-25.17,1.58-16.88-20Z"/><path class="cls-57" d="M806.36,332.61l19.19,2.68a8.7,8.7,0,0,1-.49,1.56c-.48,1.14-14.74-.64-16,3.68s-2.18,5.31,2.15,9.77C806,348.4,802,344,806.36,332.61Z"/><path class="cls-43" d="M840.59,280.07s-3.2,4.57-7.42,5.29c0,0,5.6,8.24,12.53,6.57,0,0-1.42-2.27.73-6.32C846.43,285.61,841.08,281.76,840.59,280.07Z"/><path class="cls-58" d="M839,281.93h0a16.17,16.17,0,0,0,1.6-1.86c.49,1.69,5.84,5.54,5.84,5.54a9.69,9.69,0,0,0-1.15,3.52S839.64,284.94,839,281.93Z"/><path class="cls-43" d="M859.18,262a11,11,0,0,1,.72,6.56,8.9,8.9,0,0,0,.45,6.49,3.2,3.2,0,0,1-.58,4c-1.44,1.4-2.93,6.34-3.25,7.83s-.58,6-7.08,3.16S834.92,281,837,267.47,853.12,250.64,859.18,262Z"/><path class="cls-59" d="M843.22,272.8s-1.44-3.87-3-1.49-.71,5.95-.71,5.95-.39,2.06-1.84,2.59c0,0-4.51-8.53-4.48-12.13.06-7.15,2.25-11.8,6.52-14.43l-2-.14a7.63,7.63,0,0,1,3.61-.93s2.15-2.09,3.6-2.2a3.54,3.54,0,0,0-1.2,1.59s10.35-1.88,15.37,3.18,3.29,11.8,3.29,11.8l-3.05-3.95a6.81,6.81,0,0,1-1.45,3.69l.23-2.36s-5.38,4.51-11.27,4.8C846.93,268.77,842.55,270,843.22,272.8Z"/><path class="cls-58" d="M840.94,272.08s.87-.27,1.22,1,.06,3.5-.78,3.5-.76-1.92.26-2.18C841.64,274.36,842.25,272.21,840.94,272.08Z"/><path class="cls-31" d="M875.35,332.77l13.88-1.53a2.52,2.52,0,0,1,1,3.69l-14.55,1.6Z"/><path class="cls-44" d="M873.71,334.67a1.9,1.9,0,1,0,1.9-1.9A1.9,1.9,0,0,0,873.71,334.67Z"/><path class="cls-51" d="M892.85,335.86c1.32-1.53,1.58-4.88.55-5.77s-2.64-2.67-4.3-3a9,9,0,0,1-5-2.44s-4.65,2.1-3.35,4c2.51,3.69,4.63,1.8,5.49,2.68s-.23,2.52-.94,3.38l-1.28.12s2.34,2.47,4.46,2.22A17.09,17.09,0,0,0,892.85,335.86Z"/><path class="cls-44" d="M855.13,304.54l14.67,10.31L885.69,325s-4.69,4-5.21,4.21c-.26.08-7.77-3.27-15.36-7.54-7.87-4.43-15.83-9.79-15.83-9.79S852.07,304.64,855.13,304.54Z"/><path class="cls-60" d="M858.21,305.54s-10.32-10.73-12.87-14.67c-.78-1.21-9.86,4.82-8.37,10.23s13,14,13,14Z"/><path class="cls-61" d="M836.44,283.89a12,12,0,0,0-8,1.68c-7.63,4.44-11.18,8.84-16.21,20.38s-6.65,29-6.65,29l28.72,2.91c-.55-7.12,8.48-24.6,10.82-32.44,2.68-9,.12-15,.12-15S837.82,290,836.44,283.89Z"/><path class="cls-62" d="M838.81,321.46c-2.55,6.38-4.77,12.73-4.49,16.36l-28.72-2.91s1.62-17.43,6.65-29c.43-1,.85-1.92,1.27-2.82-7.93,28.24-2.35,32.34,4.51,31.58s14.55-.1,14.76-1.54,6-11.71,6-11.71Z"/><path class="cls-43" d="M886.92,337.23c1.33-1.61,1.56-5.09.48-6s-2.78-2.72-4.5-3a9.3,9.3,0,0,1-5.16-2.45S873,328,874.33,330c2.65,3.78,4.82,1.79,5.72,2.69s-.2,2.62-.92,3.51l-1.33.15s2.47,2.52,4.65,2.23A17.94,17.94,0,0,0,886.92,337.23Z"/><path class="cls-31" d="M845.82,306.58l15.28,10.17,17.62,8.9s-3.18,5.08-3.72,5.27a124.19,124.19,0,0,1-17.81-7.05c-8.57-4.19-17.31-9.61-17.31-9.61S842.66,306.73,845.82,306.58Z"/><path class="cls-63" d="M847.94,313.52a6,6,0,0,0,.93,4c1.3,1.91,8.32,6.32,8.32,6.32-6.17-3-12.41-6.66-15.43-8.47Z"/><path class="cls-64" d="M852,307.86s-9.17-12.8-13.81-14.55c-4.8-1.82-10.53,6.43-8.51,11.87s14.63,13.28,14.63,13.28Z"/><path class="cls-65" d="M844.35,318.46s-12.61-7.83-14.63-13.28a9.18,9.18,0,0,1,.83-7.19c-.87,5,.08,7.14,4.88,11.84s11.94,4.46,11.94,4.46h0Z"/><path class="cls-41" d="M750.21,449.58c0,1.71,44.8,3.09,100.08,3.09s100.08-1.38,100.08-3.09-44.81-3.08-100.08-3.08S750.21,447.88,750.21,449.58Z"/></g></g></g></g></svg>