<svg xmlns="http://www.w3.org/2000/svg" xmlns:xlink="http://www.w3.org/1999/xlink" viewBox="0 0 116.21 124.73"><defs><style>.cls-1{mask:url(#mask);filter:url(#luminosity-noclip-2);}.cls-2,.cls-5{mix-blend-mode:multiply;}.cls-2{fill:url(#radial-gradient);}.cls-3{isolation:isolate;}.cls-4{mask:url(#mask-2);}.cls-5{fill:url(#Degradado_sin_nombre_153);}.cls-6{fill:#fd8100;}.cls-7{fill:none;stroke:#1e1e1e;stroke-miterlimit:10;stroke-width:2.12px;}.cls-8{fill:#1e1e1e;}.cls-9{filter:url(#luminosity-noclip);}</style><filter id="luminosity-noclip" x="17.02" y="-8572.65" width="82.18" height="32766" filterUnits="userSpaceOnUse" color-interpolation-filters="sRGB"><feFlood flood-color="#fff" result="bg"/><feBlend in="SourceGraphic" in2="bg"/></filter><mask id="mask" x="17.02" y="-8572.65" width="82.18" height="32766" maskUnits="userSpaceOnUse"><g class="cls-9"/></mask><radialGradient id="radial-gradient" cx="386.24" cy="-708.24" r="24.42" gradientTransform="matrix(1.18, 0.23, -1.2, 0.19, -1246.73, 165.05)" gradientUnits="userSpaceOnUse"><stop offset="0.5" stop-color="#a6a6a6"/><stop offset="0.6" stop-color="#a3a3a3"/><stop offset="0.67" stop-color="#999"/><stop offset="0.75" stop-color="#888"/><stop offset="0.81" stop-color="#707070"/><stop offset="0.88" stop-color="#515151"/><stop offset="0.94" stop-color="#2c2c2c"/><stop offset="1"/></radialGradient><filter id="luminosity-noclip-2" x="17.02" y="109.99" width="82.18" height="14.82" filterUnits="userSpaceOnUse" color-interpolation-filters="sRGB"><feFlood flood-color="#fff" result="bg"/><feBlend in="SourceGraphic" in2="bg"/></filter><mask id="mask-2" x="17.02" y="109.99" width="82.18" height="14.82" maskUnits="userSpaceOnUse"><g class="cls-1"><path class="cls-2" d="M99.19,118.07c-.15,4.08-18.69,7.08-41.38,6.71s-41-4-40.79-8S35.73,109.65,58.4,110,99.36,114,99.19,118.07Z"/></g></mask><radialGradient id="Degradado_sin_nombre_153" cx="386.24" cy="-708.24" r="24.42" gradientTransform="matrix(1.18, 0.23, -1.2, 0.19, -1246.73, 165.05)" gradientUnits="userSpaceOnUse"><stop offset="0" stop-color="#3c3c3b"/><stop offset="1" stop-color="#fff" stop-opacity="0"/></radialGradient></defs><g class="cls-3"><g id="Capa_1" data-name="Capa 1"><g class="cls-4"><path class="cls-5" d="M99.19,118.07c-.15,4.08-18.69,7.08-41.38,6.71s-41-4-40.79-8S35.73,109.65,58.4,110,99.36,114,99.19,118.07Z"/></g><rect class="cls-6" x="15.36" y="15.36" width="85.49" height="85.49" rx="5.65" transform="translate(-24.07 58.11) rotate(-45)"/><rect class="cls-7" x="20.08" y="20.08" width="76.06" height="76.06" rx="2.12" transform="translate(-24.07 58.11) rotate(-45)"/><polygon class="cls-8" points="73.45 47.79 73.45 29.86 64.92 29.86 64.92 47.88 64.94 47.88 68.53 65.81 68.53 83.82 77.06 83.82 77.06 65.81 73.45 47.79"/><polygon class="cls-8" points="44.61 47.79 44.61 29.86 53.13 29.86 53.13 47.88 53.12 47.88 49.53 65.81 49.53 83.82 41 83.82 41 65.81 44.61 47.79"/></g></g></svg>