<svg xmlns="http://www.w3.org/2000/svg" xmlns:xlink="http://www.w3.org/1999/xlink" viewBox="0 0 116.21 124.73"><defs><style>.cls-1{mask:url(#mask);filter:url(#luminosity-noclip-2);}.cls-2,.cls-5{mix-blend-mode:multiply;}.cls-2{fill:url(#radial-gradient);}.cls-3{isolation:isolate;}.cls-4{mask:url(#mask-2);}.cls-5{fill:url(#Degradado_sin_nombre_153);}.cls-6{fill:#fd1800;}.cls-7{fill:#f3f3f3;}.cls-10,.cls-8{font-size:13.94px;font-family:Arial-Black, Arial Black;font-weight:800;letter-spacing:-0.06em;}.cls-8{fill:#fff;stroke:#fff;stroke-linecap:round;stroke-linejoin:round;stroke-width:2.41px;}.cls-9{letter-spacing:-0.1em;}.cls-11{filter:url(#luminosity-noclip);}</style><filter id="luminosity-noclip" x="17.02" y="-8572.65" width="82.18" height="32766" filterUnits="userSpaceOnUse" color-interpolation-filters="sRGB"><feFlood flood-color="#fff" result="bg"/><feBlend in="SourceGraphic" in2="bg"/></filter><mask id="mask" x="17.02" y="-8572.65" width="82.18" height="32766" maskUnits="userSpaceOnUse"><g class="cls-11"/></mask><radialGradient id="radial-gradient" cx="386.24" cy="-708.24" r="24.42" gradientTransform="matrix(1.18, 0.23, -1.2, 0.19, -1246.73, 165.05)" gradientUnits="userSpaceOnUse"><stop offset="0.5" stop-color="#a6a6a6"/><stop offset="0.6" stop-color="#a3a3a3"/><stop offset="0.67" stop-color="#999"/><stop offset="0.75" stop-color="#888"/><stop offset="0.81" stop-color="#707070"/><stop offset="0.88" stop-color="#515151"/><stop offset="0.94" stop-color="#2c2c2c"/><stop offset="1"/></radialGradient><filter id="luminosity-noclip-2" x="17.02" y="109.99" width="82.18" height="14.82" filterUnits="userSpaceOnUse" color-interpolation-filters="sRGB"><feFlood flood-color="#fff" result="bg"/><feBlend in="SourceGraphic" in2="bg"/></filter><mask id="mask-2" x="17.02" y="109.99" width="82.18" height="14.82" maskUnits="userSpaceOnUse"><g class="cls-1"><path class="cls-2" d="M99.19,118.07c-.15,4.08-18.69,7.08-41.38,6.71s-41-4-40.79-8S35.73,109.65,58.4,110,99.36,114,99.19,118.07Z"/></g></mask><radialGradient id="Degradado_sin_nombre_153" cx="386.24" cy="-708.24" r="24.42" gradientTransform="matrix(1.18, 0.23, -1.2, 0.19, -1246.73, 165.05)" gradientUnits="userSpaceOnUse"><stop offset="0" stop-color="#3c3c3b"/><stop offset="1" stop-color="#fff" stop-opacity="0"/></radialGradient></defs><g class="cls-3"><g id="Capa_1" data-name="Capa 1"><g class="cls-4"><path class="cls-5" d="M99.19,118.07c-.15,4.08-18.69,7.08-41.38,6.71s-41-4-40.79-8S35.73,109.65,58.4,110,99.36,114,99.19,118.07Z"/></g><circle class="cls-6" cx="57.73" cy="66.41" r="50.91" transform="translate(-30.05 60.28) rotate(-45)"/><circle class="cls-7" cx="57.73" cy="66.41" r="42.71"/><rect class="cls-6" x="53.88" y="19.98" width="8.7" height="91.52" transform="translate(-29.43 60.43) rotate(-45)"/><text class="cls-8" transform="translate(16.68 71.79) scale(0.84 1)">VIA CERRA<tspan class="cls-9" x="77.7" y="0">D</tspan><tspan x="87.11" y="0">A</tspan></text><text class="cls-10" transform="translate(16.68 71.65) scale(0.84 1)">VIA CERRA<tspan class="cls-9" x="77.7" y="0">D</tspan><tspan x="87.11" y="0">A</tspan></text></g></g></svg>