<svg xmlns="http://www.w3.org/2000/svg" xmlns:xlink="http://www.w3.org/1999/xlink" viewBox="0 0 116.21 124.73"><defs><style>.cls-1{mask:url(#mask);filter:url(#luminosity-noclip-3);}.cls-12,.cls-14,.cls-2,.cls-4{mix-blend-mode:multiply;}.cls-2{fill:url(#radial-gradient);}.cls-3{mask:url(#mask-2);filter:url(#luminosity-noclip-4);}.cls-4{fill:url(#radial-gradient-2);}.cls-5,.cls-8{fill:none;}.cls-6{isolation:isolate;}.cls-7{fill:#fd8100;}.cls-8{stroke:#1e1e1e;stroke-miterlimit:10;stroke-width:2.25px;}.cls-9{fill:#231f20;}.cls-10{clip-path:url(#clip-path);}.cls-11{mask:url(#mask-3);}.cls-12{fill:url(#Degradado_sin_nombre_153);}.cls-13{mask:url(#mask-4);}.cls-14{fill:url(#Degradado_sin_nombre_151);}.cls-15{filter:url(#luminosity-noclip-2);}.cls-16{filter:url(#luminosity-noclip);}</style><filter id="luminosity-noclip" x="56.62" y="-8572.65" width="38.58" height="32766" filterUnits="userSpaceOnUse" color-interpolation-filters="sRGB"><feFlood flood-color="#fff" result="bg"/><feBlend in="SourceGraphic" in2="bg"/></filter><mask id="mask" x="56.62" y="-8572.65" width="38.58" height="32766" maskUnits="userSpaceOnUse"><g class="cls-16"/></mask><radialGradient id="radial-gradient" cx="659.57" cy="-2690.38" r="24.42" gradientTransform="matrix(0.55, 0.3, -0.57, 0.13, -1814.68, 262.48)" gradientUnits="userSpaceOnUse"><stop offset="0.5" stop-color="#a6a6a6"/><stop offset="0.6" stop-color="#a3a3a3"/><stop offset="0.67" stop-color="#999"/><stop offset="0.75" stop-color="#888"/><stop offset="0.81" stop-color="#707070"/><stop offset="0.88" stop-color="#515151"/><stop offset="0.94" stop-color="#2c2c2c"/><stop offset="1"/></radialGradient><filter id="luminosity-noclip-2" x="22.48" y="-8572.65" width="38.58" height="32766" filterUnits="userSpaceOnUse" color-interpolation-filters="sRGB"><feFlood flood-color="#fff" result="bg"/><feBlend in="SourceGraphic" in2="bg"/></filter><mask id="mask-2" x="22.48" y="-8572.65" width="38.58" height="32766" maskUnits="userSpaceOnUse"><g class="cls-15"/></mask><radialGradient id="radial-gradient-2" cx="-1346.92" cy="2005.26" r="24.42" gradientTransform="matrix(-0.55, 0.3, 0.57, 0.13, -1836.76, 262.48)" xlink:href="#radial-gradient"/><clipPath id="clip-path"><rect class="cls-5" x="24.69" y="116.84" width="68.02" height="7.65"/></clipPath><filter id="luminosity-noclip-3" x="56.62" y="108.38" width="38.58" height="15.85" filterUnits="userSpaceOnUse" color-interpolation-filters="sRGB"><feFlood flood-color="#fff" result="bg"/><feBlend in="SourceGraphic" in2="bg"/></filter><mask id="mask-3" x="56.62" y="108.38" width="38.58" height="15.85" maskUnits="userSpaceOnUse"><g class="cls-1"><path class="cls-2" d="M95.2,119.25c-.18,4.06-9,6-19.62,4.4s-19.14-6.24-19-10.3,9-6,19.63-4.4S95.39,115.19,95.2,119.25Z"/></g></mask><radialGradient id="Degradado_sin_nombre_153" cx="659.57" cy="-2690.38" r="24.42" gradientTransform="matrix(0.55, 0.3, -0.57, 0.13, -1814.68, 262.48)" gradientUnits="userSpaceOnUse"><stop offset="0" stop-color="#3c3c3b"/><stop offset="1" stop-color="#fff" stop-opacity="0"/></radialGradient><filter id="luminosity-noclip-4" x="22.48" y="108.38" width="38.58" height="15.85" filterUnits="userSpaceOnUse" color-interpolation-filters="sRGB"><feFlood flood-color="#fff" result="bg"/><feBlend in="SourceGraphic" in2="bg"/></filter><mask id="mask-4" x="22.48" y="108.38" width="38.58" height="15.85" maskUnits="userSpaceOnUse"><g class="cls-3"><path class="cls-4" d="M22.48,119.25c.18,4.06,9,6,19.62,4.4s19.14-6.24,19-10.3-9-6-19.62-4.4S22.29,115.19,22.48,119.25Z"/></g></mask><radialGradient id="Degradado_sin_nombre_151" cx="-1346.92" cy="2005.26" r="24.42" gradientTransform="matrix(-0.55, 0.3, 0.57, 0.13, -1836.76, 262.48)" gradientUnits="userSpaceOnUse"><stop offset="0" stop-color="#3c3c3b"/><stop offset="0" stop-color="#3d3d3c"/><stop offset="1" stop-color="#fff" stop-opacity="0"/></radialGradient></defs><g class="cls-6"><g id="Capa_1" data-name="Capa 1"><rect class="cls-7" x="23.24" y="13.25" width="70.92" height="103.74" rx="2.52"/><rect class="cls-8" x="25.91" y="16.09" width="65.59" height="98.06" rx="2.36"/><rect class="cls-9" x="71.44" y="40.43" width="4.45" height="56.31"/><rect class="cls-9" x="53.77" y="40.43" width="4.45" height="56.31"/><polygon class="cls-9" points="43.11 96.75 38.66 96.75 38.66 78.48 43.11 80.49 43.11 96.75"/><polygon class="cls-9" points="42.1 81.53 38.66 78.5 54.78 62.96 56.42 67.55 42.1 81.53"/><path class="cls-9" d="M74.21,33.25,78.64,40A.6.6,0,0,1,78,41l-2-.5-.14,0h-4.3l-.15,0-1.89.5a.6.6,0,0,1-.65-.91l4.38-6.79A.59.59,0,0,1,74.21,33.25Z"/><path class="cls-9" d="M56.42,33.25,60.84,40a.6.6,0,0,1-.64.91l-2-.5-.14,0h-4.3l-.16,0-1.88.5A.61.61,0,0,1,51,40l4.38-6.79A.6.6,0,0,1,56.42,33.25Z"/><g class="cls-10"><g class="cls-11"><path class="cls-12" d="M95.2,119.25c-.18,4.06-9,6-19.62,4.4s-19.14-6.24-19-10.3,9-6,19.63-4.4S95.39,115.19,95.2,119.25Z"/></g><g class="cls-13"><path class="cls-14" d="M22.48,119.25c.18,4.06,9,6,19.62,4.4s19.14-6.24,19-10.3-9-6-19.62-4.4S22.29,115.19,22.48,119.25Z"/></g></g></g></g></svg>