<svg id="Capa_1" data-name="Capa 1" xmlns="http://www.w3.org/2000/svg" viewBox="0 0 84.08 86.17"><defs><style>.cls-1{fill:#0063a6;}.cls-2,.cls-3{fill:#2077b1;}.cls-3{font-size:10px;font-family:VAGRounded-Bold, VAG Rounded;font-weight:700;}</style></defs><path class="cls-1" d="M77.31,58l-.06,0-.44.16a.47.47,0,1,1-.31-.89l.44-.15a.46.46,0,0,1,.6.29A.47.47,0,0,1,77.31,58Zm1.61-.89a.48.48,0,0,1-.51-.06.46.46,0,0,1-.06-.66,2.23,2.23,0,0,0,.2-.3.47.47,0,1,1,.83.43,2.94,2.94,0,0,1-.31.47A.44.44,0,0,1,78.92,57.15ZM75.09,58.8l0,0-.45.15a.47.47,0,0,1-.3-.89l.44-.15a.49.49,0,0,1,.6.29A.47.47,0,0,1,75.09,58.8Zm-2.21.76-.06,0-.44.15a.46.46,0,0,1-.6-.29.47.47,0,0,1,.29-.59l.45-.16a.47.47,0,0,1,.59.29A.46.46,0,0,1,72.88,59.56Zm-2.21.77-.06,0-.45.15a.45.45,0,0,1-.59-.29.46.46,0,0,1,.29-.59l.44-.15a.46.46,0,0,1,.6.29A.49.49,0,0,1,70.67,60.33Zm-2.22.76-.06,0-.44.16a.47.47,0,0,1-.59-.29.46.46,0,0,1,.29-.6l.44-.15a.45.45,0,0,1,.59.29A.46.46,0,0,1,68.45,61.09Zm-2.21.76-.06,0-.44.15a.47.47,0,0,1-.31-.89l.44-.15a.48.48,0,0,1,.6.29A.47.47,0,0,1,66.24,61.85ZM64,62.61l0,0-.45.15a.47.47,0,0,1-.59-.29.45.45,0,0,1,.29-.59l.44-.16a.48.48,0,0,1,.6.29A.47.47,0,0,1,64,62.61Zm15.29-7.67,0,0a.47.47,0,0,1-.6-.28,1.54,1.54,0,0,0-.08-.19,1,1,0,0,0-.08-.14.46.46,0,0,1,.15-.64.47.47,0,0,1,.65.14l.12.22a1.88,1.88,0,0,1,.12.3A.46.46,0,0,1,79.31,54.94Zm-17.5,8.44-.06,0-.44.15a.46.46,0,0,1-.6-.29.47.47,0,0,1,.29-.59l.45-.15a.45.45,0,0,1,.59.29A.46.46,0,0,1,61.81,63.38Zm-2.21.76-.06,0-.44.16a.47.47,0,1,1-.31-.89l.44-.15a.46.46,0,0,1,.6.29A.47.47,0,0,1,59.6,64.14Zm-2.22.76-.06,0-.44.15a.47.47,0,0,1-.59-.29.46.46,0,0,1,.29-.6L57,64a.47.47,0,0,1,.59.29A.46.46,0,0,1,57.38,64.9Zm-2.21.76-.06,0-.44.15a.47.47,0,0,1-.31-.89l.45-.15a.47.47,0,0,1,.59.29A.46.46,0,0,1,55.17,65.66ZM53,66.43l-.05,0-.45.15a.46.46,0,0,1-.3-.88l.44-.16a.48.48,0,0,1,.6.29A.49.49,0,0,1,53,66.43Zm-2.21.76-.06,0-.44.15a.46.46,0,1,1-.3-.88l.44-.15a.45.45,0,0,1,.59.29A.46.46,0,0,1,50.74,67.19ZM48.53,68l-.06,0-.44.16a.47.47,0,1,1-.31-.89l.44-.15a.46.46,0,0,1,.6.29A.47.47,0,0,1,48.53,68ZM77.76,53.23a.46.46,0,0,1-.51-.07l-.36-.31a.47.47,0,1,1,.62-.7l.35.3a.46.46,0,0,1,0,.66A.44.44,0,0,1,77.76,53.23ZM46.31,68.71l-.05,0-.45.15a.47.47,0,0,1-.59-.29.46.46,0,0,1,.29-.6l.44-.15a.48.48,0,0,1,.6.29A.47.47,0,0,1,46.31,68.71Zm-2.21.76-.06,0-.44.15a.46.46,0,0,1-.6-.29.47.47,0,0,1,.29-.59l.45-.16a.47.47,0,0,1,.59.29A.46.46,0,0,1,44.1,69.47Zm-2.21.77-.06,0-.45.15a.45.45,0,0,1-.59-.29.46.46,0,0,1,.29-.59l.44-.15a.46.46,0,0,1,.6.29A.48.48,0,0,1,41.89,70.24ZM39.67,71l-.06,0-.44.16a.47.47,0,0,1-.59-.29.46.46,0,0,1,.29-.6l.44-.15a.45.45,0,0,1,.59.29A.46.46,0,0,1,39.67,71Zm-2.21.76-.06,0-.44.15a.47.47,0,1,1-.31-.89l.45-.15a.47.47,0,0,1,.36.86Zm-2.22.76-.05,0-.45.15a.46.46,0,1,1-.3-.88l.44-.16a.48.48,0,0,1,.6.29A.47.47,0,0,1,35.24,72.52ZM33,73.29l-.06,0-.44.15a.46.46,0,1,1-.3-.88l.44-.15a.45.45,0,0,1,.59.29A.46.46,0,0,1,33,73.29Zm43-21.6a.47.47,0,0,1-.52-.07l-.35-.3a.47.47,0,1,1,.61-.71l.36.31a.47.47,0,0,1,0,.66A.49.49,0,0,1,76,51.69ZM30.82,74.05l-.06,0-.44.16a.47.47,0,0,1-.31-.89l.44-.15a.46.46,0,0,1,.6.29A.47.47,0,0,1,30.82,74.05Zm-2.22.76-.06,0L28.1,75a.47.47,0,0,1-.59-.29.46.46,0,0,1,.29-.6l.44-.15a.49.49,0,0,1,.6.29A.47.47,0,0,1,28.6,74.81Zm-2.21.76-.06,0-.44.15a.47.47,0,0,1-.31-.89l.45-.15a.47.47,0,0,1,.59.29A.46.46,0,0,1,26.39,75.57Zm-2.21.77-.06,0-.45.15a.45.45,0,0,1-.59-.29.46.46,0,0,1,.29-.59l.44-.16a.47.47,0,0,1,.37.87ZM22,77.1l-.06,0-.44.15a.46.46,0,0,1-.3-.88l.44-.15a.45.45,0,0,1,.59.29A.46.46,0,0,1,22,77.1Zm-2.21.76-.06,0-.44.16a.47.47,0,1,1-.31-.89l.45-.15a.47.47,0,0,1,.36.86Zm-2.22.76-.05,0L17,78.8a.47.47,0,0,1-.59-.29.46.46,0,0,1,.29-.6l.44-.15a.48.48,0,0,1,.6.29A.47.47,0,0,1,17.53,78.62Zm56.7-28.47a.46.46,0,0,1-.52-.06l-.35-.31a.47.47,0,0,1,0-.66.46.46,0,0,1,.66,0l.36.31a.47.47,0,0,1,0,.66A.36.36,0,0,1,74.23,50.15ZM15.32,79.39l-.06,0-.44.15a.46.46,0,0,1-.6-.29.47.47,0,0,1,.29-.59l.45-.16a.47.47,0,0,1,.36.87Zm-2.21.76-.06,0-.44.15A.46.46,0,0,1,12,80a.47.47,0,0,1,.29-.59l.44-.15a.46.46,0,0,1,.6.29A.48.48,0,0,1,13.11,80.15Zm-2.22.76-.06,0-.44.16a.47.47,0,0,1-.59-.29.46.46,0,0,1,.29-.6l.44-.15a.45.45,0,0,1,.59.29A.46.46,0,0,1,10.89,80.91Zm-2.21.76-.06,0-.44.15a.46.46,0,0,1-.49-.12.45.45,0,0,1-.31.39,2.61,2.61,0,0,1-.55.14.47.47,0,0,1-.52-.4.46.46,0,0,1,.4-.53,2.37,2.37,0,0,0,.36-.09.48.48,0,0,1,.49.11A.48.48,0,0,1,7.87,81l.45-.15a.47.47,0,0,1,.59.29A.46.46,0,0,1,8.68,81.67ZM72.46,48.62a.46.46,0,0,1-.51-.07l-.36-.31a.47.47,0,0,1,.62-.7l.35.3a.47.47,0,0,1,0,.67A.58.58,0,0,1,72.46,48.62Zm-67.74,33L5,81.26l-.31.35a2.4,2.4,0,0,1-.38-.4.47.47,0,0,1,.74-.57,1.61,1.61,0,0,0,.24.26Zm66-34.54a.49.49,0,0,1-.52-.06l-.35-.31a.47.47,0,1,1,.61-.71l.35.31a.46.46,0,0,1,0,.66A.49.49,0,0,1,70.7,47.08ZM4.48,79.56a.39.39,0,0,1-.28,0,.44.44,0,0,1-.38-.52v0l.08-.43a.47.47,0,0,1,.55-.37.47.47,0,0,1,.37.55l-.09.43A.46.46,0,0,1,4.48,79.56Zm64.45-34a.47.47,0,0,1-.52-.07l-.35-.31a.46.46,0,0,1,0-.66.47.47,0,0,1,.66,0l.36.3a.47.47,0,0,1,0,.66A.53.53,0,0,1,68.93,45.55Zm-64,31.73a.41.41,0,0,1-.29,0,.46.46,0,0,1-.37-.55l.08-.46a.47.47,0,0,1,.55-.37.47.47,0,0,1,.37.55L5.18,77A.43.43,0,0,1,4.93,77.28ZM5.38,75a.39.39,0,0,1-.3,0,.46.46,0,0,1-.37-.54L4.8,74a.47.47,0,0,1,.55-.37.46.46,0,0,1,.37.54l-.09.46A.45.45,0,0,1,5.38,75ZM67.16,44a.46.46,0,0,1-.51-.07l-.36-.3a.47.47,0,0,1,0-.66.46.46,0,0,1,.66,0l.35.31a.46.46,0,0,1,0,.66A.53.53,0,0,1,67.16,44ZM5.83,72.69a.51.51,0,0,1-.3,0,.47.47,0,0,1-.37-.55l.09-.46a.46.46,0,0,1,.55-.37.47.47,0,0,1,.37.55l-.09.46A.52.52,0,0,1,5.83,72.69ZM65.4,42.47a.45.45,0,0,1-.52-.06l-.36-.31a.47.47,0,0,1,0-.66.46.46,0,0,1,.66,0l.35.31a.46.46,0,0,1,.05.66A.36.36,0,0,1,65.4,42.47ZM6.27,70.39a.46.46,0,0,1-.66-.51l.08-.46a.47.47,0,0,1,.55-.37.46.46,0,0,1,.37.55l-.09.46A.45.45,0,0,1,6.27,70.39ZM63.63,40.94a.47.47,0,0,1-.52-.07l-.35-.31a.46.46,0,0,1,0-.66.47.47,0,0,1,.66,0l.36.3a.48.48,0,0,1,0,.67ZM6.72,68.09a.5.5,0,0,1-.3,0,.47.47,0,0,1-.37-.55l.09-.46a.47.47,0,0,1,.92.18L7,67.76A.45.45,0,0,1,6.72,68.09ZM61.86,39.4a.49.49,0,0,1-.52-.06L61,39a.47.47,0,1,1,.62-.71l.35.31a.47.47,0,0,1,0,.66A.49.49,0,0,1,61.86,39.4ZM7.17,65.79a.51.51,0,0,1-.3,0,.47.47,0,0,1-.37-.55l.09-.46a.47.47,0,0,1,.55-.37.47.47,0,0,1,.37.55l-.09.46A.48.48,0,0,1,7.17,65.79ZM60.09,37.86a.44.44,0,0,1-.51-.06l-.36-.31a.47.47,0,1,1,.62-.7l.35.3a.46.46,0,0,1,.05.66A.33.33,0,0,1,60.09,37.86ZM7.61,63.49a.41.41,0,0,1-.29,0A.46.46,0,0,1,7,63L7,62.52a.46.46,0,0,1,.54-.37A.47.47,0,0,1,8,62.7l-.09.46A.43.43,0,0,1,7.61,63.49ZM58.33,36.33a.47.47,0,0,1-.52-.07l-.35-.3a.47.47,0,1,1,.61-.71l.35.31a.46.46,0,0,1,0,.66A.49.49,0,0,1,58.33,36.33ZM8.06,61.19a.44.44,0,0,1-.3,0,.46.46,0,0,1-.37-.54l.09-.46A.47.47,0,0,1,8,59.86a.46.46,0,0,1,.37.54l-.09.46A.45.45,0,0,1,8.06,61.19Zm.45-2.29a.51.51,0,0,1-.3,0,.47.47,0,0,1-.37-.55l.09-.46a.46.46,0,0,1,.55-.37.47.47,0,0,1,.37.55l-.09.46A.52.52,0,0,1,8.51,58.9ZM56.56,34.79a.46.46,0,0,1-.52-.06l-.35-.31a.47.47,0,1,1,.61-.71l.36.31a.47.47,0,0,1,0,.66A.36.36,0,0,1,56.56,34.79ZM9,56.6a.46.46,0,0,1-.66-.51l.08-.46a.47.47,0,0,1,.55-.37.46.46,0,0,1,.37.55l-.08.46A.48.48,0,0,1,9,56.6ZM54.79,33.26a.46.46,0,0,1-.51-.07l-.36-.31a.47.47,0,1,1,.62-.7l.35.3a.47.47,0,0,1,0,.67A.83.83,0,0,1,54.79,33.26ZM9.4,54.3a.5.5,0,0,1-.3,0,.47.47,0,0,1-.37-.55l.09-.46a.47.47,0,1,1,.92.18L9.65,54A.45.45,0,0,1,9.4,54.3ZM53,31.72a.49.49,0,0,1-.52-.06l-.35-.31a.47.47,0,1,1,.61-.71l.35.31a.46.46,0,0,1,.05.66A.49.49,0,0,1,53,31.72ZM9.85,52a.51.51,0,0,1-.3,0,.47.47,0,0,1-.37-.55L9.27,51a.47.47,0,0,1,.55-.37.47.47,0,0,1,.37.55l-.09.46A.48.48,0,0,1,9.85,52ZM51.26,30.18a.45.45,0,0,1-.52-.06l-.35-.31a.46.46,0,0,1,0-.66.47.47,0,0,1,.66,0l.36.3a.47.47,0,0,1,0,.66A.36.36,0,0,1,51.26,30.18Zm-41,19.52a.41.41,0,0,1-.29,0,.46.46,0,0,1-.37-.55l.09-.46a.46.46,0,0,1,.54-.37.47.47,0,0,1,.37.55l-.08.46A.46.46,0,0,1,10.29,49.7Zm39.2-21.05a.48.48,0,0,1-.52-.07l-.35-.3a.47.47,0,1,1,.62-.71l.35.31a.47.47,0,0,1,0,.66ZM10.74,47.4a.44.44,0,0,1-.3,0,.46.46,0,0,1-.37-.54l.09-.46a.48.48,0,0,1,.55-.38.47.47,0,0,1,.37.55l-.09.46A.45.45,0,0,1,10.74,47.4Zm37-20.29a.46.46,0,0,1-.51-.06l-.36-.31a.47.47,0,0,1,0-.66.46.46,0,0,1,.66,0l.35.31a.46.46,0,0,1,0,.66A.33.33,0,0,1,47.72,27.11Zm-36.53,18a.44.44,0,0,1-.3,0,.47.47,0,0,1-.37-.55l.09-.46a.46.46,0,0,1,.55-.37.47.47,0,0,1,.37.55l-.09.46A.48.48,0,0,1,11.19,45.1Zm.44-2.29A.46.46,0,0,1,11,42.3l.09-.46a.45.45,0,0,1,.54-.37A.46.46,0,0,1,12,42l-.08.46A.48.48,0,0,1,11.63,42.81ZM46,25.58a.47.47,0,0,1-.52-.07l-.35-.31a.46.46,0,0,1-.05-.66.47.47,0,0,1,.66,0l.35.3a.47.47,0,0,1,.05.67ZM12.08,40.51a.5.5,0,0,1-.3,0,.47.47,0,0,1-.37-.55l.09-.46a.47.47,0,0,1,.55-.37.47.47,0,0,1,.37.55l-.09.46A.45.45,0,0,1,12.08,40.51ZM44.19,24a.49.49,0,0,1-.52-.06l-.35-.31a.47.47,0,0,1,.61-.71l.36.31a.47.47,0,0,1,0,.66A.49.49,0,0,1,44.19,24ZM12.53,38.21a.5.5,0,0,1-.3,0,.47.47,0,0,1-.37-.55l.09-.46a.47.47,0,0,1,.55-.37.47.47,0,0,1,.37.55l-.09.46A.48.48,0,0,1,12.53,38.21ZM42.42,22.5a.44.44,0,0,1-.51-.06l-.36-.31a.47.47,0,1,1,.62-.7l.35.3a.46.46,0,0,1,0,.66A.39.39,0,0,1,42.42,22.5ZM13,35.91a.45.45,0,0,1-.3,0,.46.46,0,0,1-.37-.55l.09-.46a.46.46,0,0,1,.54-.37.47.47,0,0,1,.37.55l-.08.46A.48.48,0,0,1,13,35.91ZM40.66,21a.47.47,0,0,1-.52-.07l-.35-.3a.47.47,0,1,1,.61-.71l.35.31a.46.46,0,0,1,0,.66ZM13.42,33.61a.44.44,0,0,1-.3,0,.47.47,0,0,1-.37-.55l.09-.45a.48.48,0,0,1,.55-.38.47.47,0,0,1,.37.55l-.09.46A.45.45,0,0,1,13.42,33.61ZM38.89,19.43a.47.47,0,0,1-.52-.06L38,19.06a.47.47,0,1,1,.61-.71l.36.31a.47.47,0,0,1,0,.66A.36.36,0,0,1,38.89,19.43Zm-25,11.88a.44.44,0,0,1-.3.05.47.47,0,0,1-.37-.55l.09-.46a.46.46,0,0,1,.55-.37.47.47,0,0,1,.37.55l-.09.45A.48.48,0,0,1,13.87,31.31ZM37.12,17.9a.48.48,0,0,1-.52-.07l-.35-.31a.47.47,0,1,1,.62-.7l.35.3a.48.48,0,0,1,.05.66A.79.79,0,0,1,37.12,17.9ZM14.31,29a.46.46,0,0,1-.66-.51l.09-.46a.45.45,0,0,1,.54-.37.46.46,0,0,1,.37.55l-.08.46A.48.48,0,0,1,14.31,29Zm.45-2.3a.5.5,0,0,1-.3,0,.47.47,0,0,1-.37-.55l.09-.46a.47.47,0,0,1,.55-.37.47.47,0,0,1,.37.55l-.09.46A.47.47,0,0,1,14.76,26.72ZM35.35,16.36a.48.48,0,0,1-.51-.06L34.48,16a.47.47,0,0,1,0-.66.46.46,0,0,1,.66-.05l.35.31a.46.46,0,0,1,0,.66A.42.42,0,0,1,35.35,16.36ZM15.21,24.42a.5.5,0,0,1-.3,0,.47.47,0,0,1-.37-.55l.09-.46a.47.47,0,0,1,.55-.37.47.47,0,0,1,.37.55l-.09.46A.48.48,0,0,1,15.21,24.42Zm18.38-9.6a.45.45,0,0,1-.52-.06l-.35-.31a.46.46,0,0,1,0-.66.48.48,0,0,1,.66,0l.35.31a.46.46,0,0,1,0,.66A.36.36,0,0,1,33.59,14.82Zm-17.93,7.3a.45.45,0,0,1-.3,0,.46.46,0,0,1-.37-.55l.09-.46a.46.46,0,0,1,.54-.37.47.47,0,0,1,.37.55l-.08.46A.48.48,0,0,1,15.66,22.12Zm16.16-8.83a.48.48,0,0,1-.52-.07l-.35-.3a.47.47,0,1,1,.61-.71l.36.31a.47.47,0,0,1,0,.66ZM16.1,19.82a.44.44,0,0,1-.3,0,.47.47,0,0,1-.37-.55l.09-.46a.48.48,0,0,1,.55-.37.47.47,0,0,1,.37.55l-.09.46A.45.45,0,0,1,16.1,19.82Zm14-8.07a.48.48,0,0,1-.51-.06l-.36-.31a.47.47,0,0,1,0-.66.46.46,0,0,1,.66-.05l.35.31a.46.46,0,0,1,.05.66A.33.33,0,0,1,30.05,11.75Zm-13.5,5.77a.44.44,0,0,1-.3.05.47.47,0,0,1-.37-.55l.09-.46a.46.46,0,0,1,.55-.37.47.47,0,0,1,.37.55l-.09.45A.48.48,0,0,1,16.55,17.52Zm11.74-7.3a.47.47,0,0,1-.52-.07l-.35-.31a.46.46,0,0,1-.05-.66.47.47,0,0,1,.66,0l.35.3a.46.46,0,0,1,.05.66A.53.53,0,0,1,28.29,10.22Zm-11.3,5a.46.46,0,0,1-.66-.51l.09-.46a.45.45,0,0,1,.54-.37.46.46,0,0,1,.37.55l-.08.46A.51.51,0,0,1,17,15.23Zm9.53-6.55A.47.47,0,0,1,26,8.61l-.35-.3a.47.47,0,0,1,.61-.71l.36.31a.47.47,0,0,1,0,.66A.49.49,0,0,1,26.52,8.68Zm-9.08,4.25a.5.5,0,0,1-.3,0,.47.47,0,0,1-.37-.55l.09-.46a.47.47,0,0,1,.55-.37.46.46,0,0,1,.37.55l-.09.46A.47.47,0,0,1,17.44,12.93Zm.45-2.3a.5.5,0,0,1-.3,0,.47.47,0,0,1-.37-.55l.09-.46a.47.47,0,0,1,.55-.37.47.47,0,0,1,.37.55l-.09.46A.48.48,0,0,1,17.89,10.63Zm6.86-3.49a.46.46,0,0,1-.52-.06l-.35-.31a.47.47,0,0,1,0-.66.48.48,0,0,1,.66-.05l.35.31a.47.47,0,0,1,0,.66A.48.48,0,0,1,24.75,7.14ZM18.34,8.33a.45.45,0,0,1-.3,0,.46.46,0,0,1-.37-.55l.09-.46A.46.46,0,0,1,18.3,7a.48.48,0,0,1,.38.55L18.59,8A.48.48,0,0,1,18.34,8.33ZM23,5.61a.46.46,0,0,1-.51-.07l-.36-.3a.48.48,0,0,1,0-.67.47.47,0,0,1,.66,0l.35.31a.46.46,0,0,1,.05.66A.58.58,0,0,1,23,5.61ZM18.8,6a.49.49,0,0,1-.36,0,.47.47,0,0,1-.29-.59A4.12,4.12,0,0,1,18.39,5,.47.47,0,0,1,19,4.8a.46.46,0,0,1,.15.64,1.66,1.66,0,0,0-.15.33A.46.46,0,0,1,18.8,6ZM21,4.54a.38.38,0,0,1-.21,0,1.55,1.55,0,0,0-.37,0,.47.47,0,0,1-.55-.37.46.46,0,0,1,.37-.55,2.59,2.59,0,0,1,.56,0,.47.47,0,0,1,.46.47A.46.46,0,0,1,21,4.54Z"/><path class="cls-1" d="M67.8,47.07h0L8.62,67.46a.18.18,0,0,1-.23-.11.19.19,0,0,1,.11-.23L67.66,46.75a.18.18,0,0,1,.22.11A.17.17,0,0,1,67.8,47.07Z"/><path class="cls-2" d="M44.27,73.84c-.37.11-.18.25-.22.3C44.64,73.89,44.24,73.8,44.27,73.84Z"/><polygon class="cls-2" points="50.11 71.36 50.03 71.47 50.85 70.98 50.11 71.36"/><path class="cls-2" d="M55.71,69.43c-.64-.13-2,.75-3.05,1h-.19l-.36.41C53.31,70.35,54.82,69.64,55.71,69.43Z"/><path class="cls-2" d="M58.93,69.09c-.23-.06.61-.33-.71.2h.14C58.48,69.23,58.64,69.18,58.93,69.09Z"/><path class="cls-2" d="M58.36,69.28c-.59.21.42,0,0,0Z"/><path class="cls-2" d="M61.06,68.27l-.74.38c.18,0,.88-.21.64-.07C61.74,68.25,61.55,68.23,61.06,68.27Z"/><path class="cls-2" d="M61.71,67.79l-.38.18C61.41,68,61.52,68,61.71,67.79Z"/><path class="cls-2" d="M60.51,68.36l.82-.39c-.13,0-.18-.11-.38.17C61,68,60.85,68.17,60.51,68.36Z"/><path class="cls-2" d="M60,68.48c-.46.08-1,.23-.3-.14C58.24,68.89,58.54,69,60,68.48Z"/><path class="cls-2" d="M55.88,69l-.61.11-.47.28C55,69.26,56,69.09,55.88,69Z"/><path class="cls-2" d="M66,66.77c0-.09-.32-.09-.41-.16l-.55.28C65.3,66.83,65.88,66.68,66,66.77Z"/><path class="cls-2" d="M65.54,66.61l.82-.41C65.59,66.45,65.47,66.56,65.54,66.61Z"/><polygon class="cls-2" points="61.73 67.39 60.4 68.11 62 67.29 61.73 67.39"/><polygon class="cls-2" points="69.23 65.65 68.8 65.97 69.58 65.44 69.23 65.65"/><path class="cls-2" d="M71.4,64.87c-.32.25.56,0,.21.26a9.09,9.09,0,0,0,1.47-.77A5.86,5.86,0,0,1,71.4,64.87Z"/><path class="cls-2" d="M73.79,64c-.23.11-.46.25-.71.4A4.16,4.16,0,0,0,73.79,64Z"/><path class="cls-2" d="M67.83,65.73a1.31,1.31,0,0,0,.74,0l-.4-.07Z"/><path class="cls-2" d="M68.16,65.62h0l.73-.24Z"/><path class="cls-2" d="M67.75,65.76l.08,0S67.77,65.72,67.75,65.76Z"/><path class="cls-2" d="M64,66.78c.47-.28,1.48-.75.41-.56C64.13,66.47,64.74,66.36,64,66.78Z"/><path class="cls-2" d="M67.25,65.67l-.93.27s.22.06,0,.2Z"/><polygon class="cls-2" points="67.67 65.45 67.25 65.67 67.59 65.57 67.67 65.45"/><path class="cls-2" d="M72.17,64.32a7.33,7.33,0,0,1,1.28-.56c-.54.14-1.09.31-1.6.49C71.8,64.33,71.61,64.52,72.17,64.32Z"/><path class="cls-2" d="M70.21,64.93l.09,0C70.24,64.89,70.19,64.9,70.21,64.93Z"/><path class="cls-2" d="M78.24,62.11h-.09s0,0,0,0Z"/><path class="cls-2" d="M71.75,64.24a2.45,2.45,0,0,0-.82.36c.28-.12.59-.24.92-.35C71.88,64.21,71.88,64.19,71.75,64.24Z"/><path class="cls-2" d="M75.1,63.41c-.22,0-.46.07-.72.13A2,2,0,0,0,75.1,63.41Z"/><path class="cls-2" d="M70.45,64.9l-.06,0C70.53,64.92,70.51,64.91,70.45,64.9Z"/><path class="cls-2" d="M70.45,64.9a5,5,0,0,0,.48-.3c-.24.1-.45.2-.63.29Z"/><path class="cls-2" d="M79.24,60.37c0,.09-.22.31-.59.48a4.25,4.25,0,0,1-1.32.38c-.83.44-.06.82.82.88,0-.09,0-.16.84-.57-.35,0-2.08.46-1.37,0a3.75,3.75,0,0,1,1.62-.4c-.3,0,.08-.25.45-.51s.69-.65.47-.72a5.21,5.21,0,0,1-.91.62S79.54,60.3,79.24,60.37Z"/><path class="cls-2" d="M76.42,62.68l-.36.15a6.67,6.67,0,0,1,1.37-.2c.58-.3.69-.41.71-.48l-1.83.6Z"/><path class="cls-2" d="M74.4,63.4c.22-.29,1.08-.68.47-.69-1.09.38-.71.42-1.33.72,1.74-.65-.47.28.84,0-.34.15-.64.26-.93.37.32-.08.63-.16.93-.22h0c-.08,0-.11,0,0,0l0,0a.37.37,0,0,1,.06-.1c.52-.13.09,0-.06.1v0h0l1.72-.71C75.68,62.93,75.22,63.1,74.4,63.4Z"/><path class="cls-2" d="M65.24,65.48c.06,0,.07,0,.07,0S65.46,65.42,65.24,65.48Z"/><path class="cls-2" d="M66,65.35a1.79,1.79,0,0,1-.63.31c-.38.06,0-.09-.07-.15-.23.14-.83.44,0,.26l.12-.07A4.78,4.78,0,0,1,67,65.52,2.69,2.69,0,0,0,66,65.35Z"/><path class="cls-2" d="M70.24,64.31l1.43-.6-.81.09.08.09C70.09,64.14,70.31,64.2,70.24,64.31Z"/><polygon class="cls-2" points="78.44 62.15 78.31 62.42 79.06 61.84 78.44 62.15"/><path class="cls-2" d="M80.49,61.26l0,.21L81,61C80.84,61.12,80.66,61.19,80.49,61.26Z"/><path class="cls-2" d="M13.09,21.28l0,.45A3.26,3.26,0,0,0,13.09,21.28Z"/><path class="cls-2" d="M13.73,18,13.66,18C13.68,18.11,13.7,18.17,13.73,18Z"/><path class="cls-2" d="M52.44,24.78c-.39-.56-.77-1.25-.85-1l0,.28A5.37,5.37,0,0,1,52.44,24.78Z"/><path class="cls-2" d="M26.09,3.49l.11.17.46.15Z"/><path class="cls-2" d="M25.19,3.81l-.58-.67A6,6,0,0,0,25.19,3.81Z"/><path class="cls-2" d="M9.87,39l.1.56C10.13,38.73,10,39.06,9.87,39Z"/><path class="cls-2" d="M74.15,43.73a11.17,11.17,0,0,0-1-1C73.6,43.24,73.9,43.74,74.15,43.73Z"/><path class="cls-2" d="M11.22,19.59c0,.28,0,.41,0,.41C11.29,19.71,11.28,19.54,11.22,19.59Z"/><path class="cls-2" d="M71.91,41.61c.06.09.13.16.19.24a10.32,10.32,0,0,1,1.05.85A4.11,4.11,0,0,0,71.91,41.61Z"/><path class="cls-2" d="M20,79.76a.8.8,0,0,1,.15,0S20.12,79.72,20,79.76Z"/><path class="cls-2" d="M38.67,75.5c-.17.08-.46.18-.73.27A4.5,4.5,0,0,0,38.67,75.5Z"/><path class="cls-2" d="M83.53,52.75c.21.49.06.07,0,0Z"/><path class="cls-2" d="M83.2,55.24c0-.1-.06-.18-.1-.19A.31.31,0,0,1,83.2,55.24Z"/><path class="cls-2" d="M67.87,39.78l0,0C67.91,39.87,67.9,39.85,67.87,39.78Z"/><path class="cls-2" d="M83.68,53.52a2.87,2.87,0,0,0-.13-.65l.06.23Z"/><path class="cls-2" d="M83.75,53.4l.09.44C83.89,53.9,83.9,53.84,83.75,53.4Z"/><path class="cls-2" d="M83.23,52.09a5.58,5.58,0,0,1,.32.78c0-.1,0-.14,0-.12A4.31,4.31,0,0,0,83.23,52.09Z"/><path class="cls-2" d="M3.39,68.58l0,.09C3.35,69.11,3.38,68.92,3.39,68.58Z"/><path class="cls-2" d="M42.67,19.08l0,0,0-.05Z"/><path class="cls-2" d="M41.41,18.19a2.81,2.81,0,0,1,1.26.87v-.77Z"/><path class="cls-2" d="M11.64,29,12,28c0,1.33-.24,2.24.21,1.29-.6-.27.73-4.12.14-4.39l.26-.67c0,.2,0,.24-.06.44.57-1.3-.25-1.1.18-2.83.16-.6.34-1,.33-.57l.11-1.39c.09-.39.18-.27.09.12l.35-2.08,0,0c0-.32-.07-1-.07-1.35.2-.51,0,.27.12.15l.07-1.17c.26-.44.23.54.05,1.33.83-.95,0-1,.84-3.22l-.13,1.1a11.82,11.82,0,0,0,1-2.68c-.17.27-1,2.34-.94,1.07a4.58,4.58,0,0,0,.23-1.49c.22,0,.3-.63.44-1.45l.29.11a4.74,4.74,0,0,0-.11-1.41c.22-1,.49-1.14.72-1.34.36-1.57-.57,1-.27-.86.19-.63.29-1.26.39-1.69a5.89,5.89,0,0,1,.19-.75,4.3,4.3,0,0,1,.16-.41,2.84,2.84,0,0,1,.21-.43c.56-.55.06.22.3.06a3.19,3.19,0,0,1,.28-.66c.13-.12.14,0,.14,0,.18-.23.16-.28.16-.37a.31.31,0,0,1,.06-.18A1.07,1.07,0,0,1,18.13,2c0-.1.15-.2.36-.28l.36-.09.21,0,.23,0c.62-.09,1.31,0,1.91-.15.27.12-.16.17-.08.29a4.37,4.37,0,0,1,.5,0l.38,0a4.1,4.1,0,0,1,.53.09,4.08,4.08,0,0,1,.49.11,5.24,5.24,0,0,1,.75.26c.27.27.56.62.84,1-.58-.8.53-.19,1.48.35-.19-.31-.34-.57-.46-.73l1.4,1c.12.17-.07.14-.37.05L27,4c.39.49,0,.41-.41.25l-.34-.55c-.44-.14-.87-.25-.92-.06a3.32,3.32,0,0,1,.47.31c-.11,0-.19-.05-.17,0s.2.13.46.25l.07.51.16,0,1.56,1.63a29.76,29.76,0,0,1,4.82,2.91c-.63-.23-.36.22-.58.41-.32-.69-1.57-1.19-2.53-2.11.5.48.3.48.13.41l2,1.33c-.19.14.26.46.66.94,0-.66,1.53.92,2.35,1.44-.06.15-.34.13-1.19-.67.74,1.11,1.62.68,2.38,1.73-.22-.18-.32-.3-.46-.31.59.33,1.75,1.48,1.37,1.33l-.21-.18c1.39,1.29,4.35,3.79,4.82,3.67a1.47,1.47,0,0,1-.64.19l3.43,1.21c-.44.06-.12,1.42-1.43.54a7.46,7.46,0,0,0,1.49,1.27c-.2-.23-.25-.87.08-.62a16.63,16.63,0,0,0,1.34,1.86c-.3-.36.44-.43,1,.06-.13,0-.3.44-.53.31l1.71.79c-.4-.22-.35.29-.14.67a19.44,19.44,0,0,1,1.57,1.31l-.5-.6c1.5,1.41,2,.77,3.53,2.13-.25-.08-.89.11-.16.83A10.41,10.41,0,0,1,56,28.55l.16.34,1.16.77a34.73,34.73,0,0,1-4.51-1.81c.5.6,0,.28.92,1,.21.38-.62-.24-.88-.46l2,1.83c.12-.32,1.75,1.1,1.85.84l-2.41-1.66c.12-.32,1.85.42,3.25,1.71.28.41-.64.18-.68.29a7.15,7.15,0,0,1,1.57,1.2l-.72-.4c.72.78,1.58.81,2.34,1.87.31.3.72,1.16.9,1.07-.31-.74.32-1.67.85-1.56.1.12,1.51,1.77,1.77,2.23.36.68-1.25-.2-1,.38.08-.05.45.13.59.22.3.35-.31.07.47.7.33-.13,1.51,1.35.53.1.8.58.74.74,1.61,1.48-.14-.4,1.24.14,2,.72-.1,0,0,.24.05.35,1.49,1.33,2.21,2.15,3.61,3.38.08.17.7.83.32.68a3.75,3.75,0,0,1,.94.59c.66.94-1-.81-.58,0,.18-.09,1.3.79,2,1.24,0-.38-1.39-1.29-2.09-1.74.26-.3,1.61.33,3.2,1.47,1.24.94.34.63.58.77,2.15,2,2.33,1.11,4,2.91.56.82-.29.4-.25.68a22.67,22.67,0,0,1-2-2l.72.78a6,6,0,0,1-1.34-1.06,19.27,19.27,0,0,0,2.21,2.1c.53.47,1.1,1,1.62,1.44a4.66,4.66,0,0,1,.66.77l.26.39.19.39.21.25.18.27c.11.15.19.22.17,0a3.87,3.87,0,0,0-.33-.64c-.08-.34.16-.08.36.18s.32.53.18.06a5.51,5.51,0,0,1,.68,1.55,3.74,3.74,0,0,1,.12,1,3.6,3.6,0,0,1-.12,1.06,2.7,2.7,0,0,1-.33.22.94.94,0,0,0,.19-.51,1.93,1.93,0,0,0,0-.82A2.88,2.88,0,0,1,83,56.63a4.45,4.45,0,0,0-.4,1.4,6.69,6.69,0,0,0,.56-.89c0,.27-.11.55-.17.85s-.21.58-.33.89a4.94,4.94,0,0,1-.53.87,3.71,3.71,0,0,1-.75.73.78.78,0,0,0,.48-.26,3,3,0,0,1,.68-.49c-.22.11-.18,0,0-.26l.29-.43c.1-.17.2-.36.31-.54A2.87,2.87,0,0,0,83.3,58c.06-.17.11-.31.14-.42s0-.23-.22.05a2.25,2.25,0,0,0,.39-.63c0-.11.09-.23.13-.34a3.59,3.59,0,0,0,.08-.35c.11-.48.17-1,.26-1.72-.1.06-.1.5-.24-.71a1.27,1.27,0,0,1-.14-.24l0-.08v.07c0-.05,0-.05,0,0a2.75,2.75,0,0,1,0,.38,1,1,0,0,1,0,.24c-.06-.14-.15-.35-.25-.6l-.14-.39-.2-.41-.19-.4-.23-.35a2.44,2.44,0,0,0-.4-.51c-.37-.56.26.16.12-.19a4.52,4.52,0,0,0-.72-.59c.09-.24-1-1.46.19-.48l-.27-.27-.24-.21-.47-.42a9.37,9.37,0,0,0-1.75-1.62c-.42-.43-1.28-.81-.78-.59L76.76,46l0,0c-1.45-1.3-3.25-2.37-4.68-4.11a16.26,16.26,0,0,1-1.87-1.55l0-.28c-.67-.5-1.78-1.79-2.18-1.88-.36-1-3-2.76-4.07-3.8l-.2.15c-.76-.68-1.54-1.27-2.55-2l-.08.21c-.94-.58-2-2-3.33-3.06.14,0,.45.32.66.56-1.25-1.71-3.51-2.59-4.69-4.08a3.39,3.39,0,0,1-.85-.74l.09.07-.14-.13-.41-.51a3.36,3.36,0,0,0,.33.44c-.27-.23-.7-.57-1.14-.88l0-.32-.1-.07c-.34-.41-.38-.2-.28.11a6.4,6.4,0,0,0-.63-.36c-.08-.55-1.13-.82-1.32-1.5-.39-.09-2.11-1.65-2.59-1.53,0-.05-.08-.18.14,0a6.18,6.18,0,0,0-1.32-1.11v-.39l-1.23-.56c-.48-.65-.66-.94.07-.59-1.65-1-1.24-.91-2.67-1.71l.18-.09c-.44-.37-1.3-.79-1.46-1.13-.74-1.11-4.77-4.21-7-6.62.12.83-1-1.19-1.38-1-.06-.22-.36-.58.12-.32-1.36-1-1.78-1.81-2.89-2.3-.06-.23.4.09.32-.08s-.48-.27-.56-.44.26.08.49.21c-1.31-1.11-1.7-.92-2-.73a3,3,0,0,0-1.52-1.2c-.15-.29-.45-.72.39-.05l-.61-.56-.44-.41L25,1.42l-.29-.22C24,.58,23.08.3,23,.43a1.5,1.5,0,0,0-.53-.22,5,5,0,0,0-.54-.08C21.58.06,21.29,0,21,0h-.65a3.9,3.9,0,0,0-.64.07,3.24,3.24,0,0,0-.39.07l-.48.14.41-.06a2,2,0,0,1-.86.46,4.37,4.37,0,0,0-1.24.59V1.22c-.28.18-.52.31-.69.45L16.11,2a1.76,1.76,0,0,0-.35.44c-.08.13-.17.23-.32.46a10.51,10.51,0,0,0-.71,1.15L15,4c.09.1,0,.26,0,.5s-.2.54-.32.86a8,8,0,0,0-.58,2.15l.22-.48c0,.79-1.05,2-1.26,2.72-.07.16,0-.27,0-.51-.66,1.93.24.32,0,1.8-.21.25-.33-.42-.55.56-.22.47,0,3-.61,4.27.17-.27.35-.54.31.16-.16,1.05-1,2.75-.81,3.77-.06.12-.1.17-.13.17A22.71,22.71,0,0,0,11,23.16c-.9.59-.59,5.06-1.29,4.9L9.3,30.54l-.06-.08A7.07,7.07,0,0,0,9,33.2c-.11.36-.13.08-.16,0a13.45,13.45,0,0,0-.63,4.51l-.27.16c0,.55-1,3.26-1.17,5.57,0,0-.06-.08-.06-.27-.22,2.6-1.81,6-1.16,7.06L5.42,52c.49-2.16.3.39.61-.48-.11.87-.68,2.16-.52,1.11l.08-.16c-.36-.47-.68,2.67-1,2.55C3.82,59.29,2.77,63.4,2,67.4L2.4,67l-.29,1.4c-.15.35-.36.44-.15-.56a3,3,0,0,0-.1,1.75c-.51,1.92-.24-.84-.37-.24l-.13.81L1.43,70a5.32,5.32,0,0,1-.1,2c-.21.75-.28.35-.35.65,0,0-.06.09-.1.45L.51,74.8l.4-.65c0,.81-.34,1.65.12.9a6.12,6.12,0,0,0-.52,1.49c-.09.34-.17.71-.25,1.09,0,.2-.09.39-.13.59s-.06.44-.09.66a6.2,6.2,0,0,0,.22,2.49,5.76,5.76,0,0,0,.32.88c.09.23.17.4.21.5a8.67,8.67,0,0,0,.62.72c.11.11.21.23.32.35l.35.32a7.28,7.28,0,0,0,1.7,1.17c-.16-.09-.24-.26-.15-.3s.34,0,.9.27c-.16.11-.11.23.08.35a2.62,2.62,0,0,0,.91.32,8.51,8.51,0,0,0,1.26.15,8.52,8.52,0,0,1,1.11.07c-.26,0-.14-.08.13-.18l.51-.17.54-.21c.72-.28,1.38-.56.68-.55.95-.27.14.21.89.1,2.12-1,4.9-1.52,7.6-2.53,0-.1-.49-.06.06-.38l1.57-.1c.52-.22.34-.62,1.41-.69-.16,0-.4,0-.05-.19C26.7,79.81,32,77.2,37.68,76.05c-.78.1-.3-.08.26-.28-.38.09-.06-.19-.17-.27L40.14,75c.31-.44,2.43-.86,2.57-1.22l-.71.3c.85-.66-1.58-.28-1.59-.75-.94.75-3,.42-4.58,1.56-.42,0,.28-.25,0-.28a4.35,4.35,0,0,1-1.93.82l.1-.08c-2.78,1-4,1.24-7.22,2.2l.3.13a6.8,6.8,0,0,1-1.18.24c-.66.59,1.9-.63,1.32,0-1-.12-4.76,1.63-5.54,1.36-1,.35.39.13-.65.49l-.32,0-.2.26c-.69.21-1.09.16-1.15.06a6.48,6.48,0,0,0,.63-.26,26.43,26.43,0,0,0-2.79,1l1-.26c-2.79,1.1-6.31,2.11-9,3.32l.24,0a6.29,6.29,0,0,1-1.85.63,4.36,4.36,0,0,1-.71.07l-.23,0H6.49a4.05,4.05,0,0,1-.67,0h.07a2.3,2.3,0,0,1-.73,0,3.48,3.48,0,0,1-.41-.1l-.4-.17c.28,0,.06-.09-.11-.25s-.31-.32,0-.21A11.63,11.63,0,0,1,3,83l-.28-.11a4.26,4.26,0,0,1-.6-.41l0-.37-.25-.21-.19-.22a4,4,0,0,1-.21-.35c-.06-.16-.14-.36-.23-.63.21.43.22.23.24.06s.07-.32.3.12a13.28,13.28,0,0,1,0-2.57,3.54,3.54,0,0,1,.53-1.89c-.25-1.24-.69,2.11-.66,1.44-.26.51-.17-1,0-1.79s.87-1.23,1.25-3.24c0,.2,0,.22,0,.42a22.86,22.86,0,0,1,.5-2.39c-.19-.57.25-1.19-.09-1.41L3,71.34a13,13,0,0,1,.41-3.8,5.35,5.35,0,0,1,0,1c.2-.48.12-1,.33-1.48.33.22-.36,2.25-.3,3.43.26-.51.15-2.17.44-1.53-.35-.91.44-2,.32-3.4l.2.13a6.74,6.74,0,0,1,.08-1.08l.14.77c0-1.15.63-2.08.7-3.16-.42,2.21-.36.45-.7,1.35.24-2.78.87-1.46,1.36-4.53,0,.42-.43,1.53-.41.86a9.84,9.84,0,0,1,.58-1.66c.35-2-.29.27-.25-.61.4-.64.08-1,.17-1.92l.22,0c.59-2.28-.34-.7.23-2.75l.14.94.13-1.1.21.28a9.39,9.39,0,0,1,.46-2.71c-.21.24-.38-.23-.19-1.25.27-.67.14.43.39-1a1.64,1.64,0,0,1-.15,1.33c.06.08.08.35.14.43a13.75,13.75,0,0,0,.5-2.4A5.1,5.1,0,0,1,8,48.1l.1-2.16c.14-.31.16,0,.17.23.06-.43,0-.74.12-1.37.15.2.34.2.26,1.1l.18-2c.11-.12.42-1,.43-.71.33-1.09.18-2.78.61-4.23a1.69,1.69,0,0,1,0-.56,21,21,0,0,0,.84-4.23l.5-.86c.18-1.3-.65,1.17-.36-1,.19-1.53.39-.51.58-1a8.38,8.38,0,0,1,.44-3.48C11.82,28.25,11.7,28.6,11.64,29Zm2.93-15.82c0,.31,0,.95-.16,1.15C14.22,14,14.39,13.72,14.57,13.21Zm13-7.84a2.27,2.27,0,0,1-.72-.69A4.18,4.18,0,0,1,27.59,5.37ZM80.05,48.88h0C79.55,48.35,79.72,48.54,80.05,48.88Zm1,1c.13.07.14,0,.12,0a2,2,0,0,1-.63-.48C80.61,49.51,80.72,49.66,81.08,49.91ZM1,72.77l.11-.27C1.08,73.14,1.06,73,1,72.77Z"/><path class="cls-2" d="M25.3,3.78a.2.2,0,0,1,0-.18C25.16,3.55,25.13,3.58,25.3,3.78Z"/><path class="cls-2" d="M9.85,38.88v0a.16.16,0,0,0,0,.06Z"/><path class="cls-2" d="M62.94,36.67a2.44,2.44,0,0,1-.36-.46S62.6,36.37,62.94,36.67Z"/><path class="cls-2" d="M83.54,58.05l.19-.54.11-.56a2.38,2.38,0,0,1-.38.94C83.52,57.89,83.67,57.71,83.54,58.05Z"/><path class="cls-2" d="M75.83,61.75c-.12.07-.27.09-.39.16l.07.09C76.05,61.81,76.4,61.59,75.83,61.75Z"/><path class="cls-2" d="M82.43,58.61c-.1,0-.22.12-.38.32s-.16.23-.25.36-.21.25-.32.39l.08-.09c0,.17.15.1.34-.1A4.85,4.85,0,0,0,82.43,58.61Z"/><path class="cls-2" d="M81.37,59.8a2.53,2.53,0,0,1-.5.43C80.86,60.36,81.11,60.1,81.37,59.8Z"/><path class="cls-2" d="M82.6,51.33c.18.32.33.06.38.28.11.06.06,0,0-.19a4.17,4.17,0,0,0-.47-.47C82.14,50.68,81.94,50.58,82.6,51.33Z"/><path class="cls-2" d="M81.59,58.71l.34-.05a3,3,0,0,0,0-.42A2.84,2.84,0,0,1,81.59,58.71Z"/><path class="cls-2" d="M82.72,53.82a7.33,7.33,0,0,1,.11,1s.07.12.08.28a6.51,6.51,0,0,0-.06-.93C82.8,54,82.75,53.8,82.72,53.82Z"/><path class="cls-2" d="M82.91,55.15v.49c0,.15,0,.28,0,.38a3.35,3.35,0,0,0,0-.4C82.93,55.46,82.93,55.29,82.91,55.15Z"/><path class="cls-2" d="M82.22,57.46l.16-.27a5.49,5.49,0,0,0,.21-.69l-.16.49A4.84,4.84,0,0,1,82.22,57.46Z"/><path class="cls-2" d="M75.12,45.76l-.89-.69c-.14,0,.06.22.4.47S75.2,45.93,75.12,45.76Z"/><path class="cls-2" d="M77.28,48.49A1.33,1.33,0,0,1,77,48l-.21.2Z"/><path class="cls-2" d="M74.75,46.37c-.14,0-1.39-.9-.3,0C74.59,46.41,75.49,47.11,74.75,46.37Z"/><polygon class="cls-2" points="62.14 34.93 62.36 35.11 62.64 34.73 62.14 34.93"/><path class="cls-2" d="M50.07,25.94c.93,1,.43,0,1.25.89.31.12-.67-.74-.36-.6C50.27,25.79,50,25.46,50.07,25.94Z"/><path class="cls-2" d="M51,26.23l.35.22A3.36,3.36,0,0,0,51,26.23Z"/><polygon class="cls-2" points="41.74 74.72 42.59 74.53 42.01 74.56 41.74 74.72"/><path class="cls-2" d="M43.19,73.85l.29.22.4-.43A2.46,2.46,0,0,1,43.19,73.85Z"/><path class="cls-2" d="M15.63,11l-.06-.08c-.11.11-.15.31-.24.7Z"/><polygon class="cls-2" points="13.17 22.4 13.22 22.2 12.88 22.52 13.17 22.4"/><path class="cls-2" d="M11.65,32.09c.09-.39.12-.87.2-1.26C11.74,31.7,11.29,32.13,11.65,32.09Z"/><text class="cls-3" transform="translate(12.7 76.86) rotate(-19.38) scale(0.87 1)">GOBERNACIÓN</text><path class="cls-2" d="M46.32,34.15,45.92,33a.87.87,0,0,0,.31-1l-.36-1,.34-.13a.68.68,0,0,0,.42-.87l-.56-1.57a.76.76,0,0,0-.76-.51l-2.3.14a.5.5,0,0,0-.47.53.49.49,0,0,0,.53.46L45.2,29l.34,1-16.37,1a.62.62,0,0,0-.26.09L15.58,40.58l-.34-1L28.57,30a.46.46,0,0,1,.25-.1L41,29.21a.5.5,0,0,0,.46-.53.49.49,0,0,0-.52-.46l-10,.61-.39-1.09a1.52,1.52,0,0,0-1.94-.92l-.42.15-.42-1.19,2.58-.92a.76.76,0,0,0,.45-.95L30.06,22a.76.76,0,0,0-.95-.45l-3,1.09a.48.48,0,0,0-.3.63l.24.69.61,1.71.59,1.66-.42.15a1.52,1.52,0,0,0-.92,1.94l.39,1.09L14.52,38.91a.75.75,0,0,0-.27.87l.56,1.57a.68.68,0,0,0,.87.42l.35-.13.36,1a.86.86,0,0,0,.86.57l.4,1.13a1,1,0,0,0,1,.62l2.24,6.31a.51.51,0,0,0,.64.3.49.49,0,0,0,.29-.63l-2.23-6.28,1-.35,3.26,9.17-1,.35-.33-.91a.49.49,0,1,0-.93.33l.34.94a.94.94,0,0,0-.35,1.09l.39,1.1-.68.24a1,1,0,0,0-.58,1.22l.43,1.23a1,1,0,0,0,1.23.59L52.36,49a1,1,0,0,0,.58-1.23l-.44-1.23A1,1,0,0,0,51.28,46l-.68.24-.39-1.09a.94.94,0,0,0-1-.63L46,35.24A1,1,0,0,0,46.32,34.15ZM26.86,23.37l2.35-.83L29.73,24l-2.34.83-.45-1.24Zm-.06,5.69a.53.53,0,0,1,.32-.68l1.77-.63a.54.54,0,0,1,.68.32l.29.82-1.1.07a1.46,1.46,0,0,0-.77.27l-.9.65-.29-.82Zm-5,8.3,17-6,4.06-.24L18.46,39.73Zm7.61-5.47,5.8-.35L24.66,35.28ZM48.31,44.77l-1,.35L44.06,36l1-.35Zm-3.77,3.58-.39-1.1a1,1,0,0,0-1-.62L39.9,37.4a.94.94,0,0,0,.35-1.09l-.39-1.09,1.91-.68.39,1.09a.94.94,0,0,0,1,.62l3.29,9.24a.93.93,0,0,0-.35,1.08l.38,1.1Zm-6.19,2.2L38,49.46a1,1,0,0,0-1-.63L34.91,43a.49.49,0,1,0-.93.33l2.07,5.83-1,.35-3.26-9.17,1-.35.49,1.36a.49.49,0,0,0,.63.3.5.5,0,0,0,.3-.63l-.5-1.39a.94.94,0,0,0,.35-1.09l-.39-1.09,2-.73.39,1.1a.93.93,0,0,0,1,.62l3.28,9.23A.94.94,0,0,0,40,48.73l.39,1.1Zm-6.19,2.2-.39-1.09a1,1,0,0,0-1-.63L27.52,41.8a.94.94,0,0,0,.35-1.09l-.39-1.09,2-.72L29.91,40a.93.93,0,0,0,1,.62l3.28,9.24a.94.94,0,0,0-.35,1.08l.39,1.1Zm-6.07,2.16-.39-1.09a.94.94,0,0,0-1-.63L21.46,44a1,1,0,0,0,.35-1.09l-.39-1.09,1.91-.68.39,1.09a.92.92,0,0,0,1,.62L28,52.05a1,1,0,0,0-.35,1.09L28,54.23ZM18.57,44l-.38-1.06,2.3-.81.37,1ZM17.28,42.2,17,41.31l28-10,.31.89ZM38,38.11l1-.35,3.26,9.17-1,.35Zm1.31-1.51-.19.07-1.92.68-.19.06-.37-1,2.29-.81.38,1.05Zm-6.19,2.2-2.3.82-.37-1.06,2.29-.81Zm-7.5,3.72,1-.35,3.27,9.16-1,.35ZM26.93,41l-.19.07-1.92.68-.19.07-.37-1L26.55,40Zm1.63,11.85.19-.07,1.91-.68.19-.07.38,1-2.3.82Zm6.19-2.2L37,49.83l.37,1.05-2.29.82Zm6.19-2.21.19-.06L43,47.7l.19-.07.37,1-2.29.82Zm2.33-13.25-.19.07L42.7,34.2l2.3-.81.37,1-.19.07ZM22.49,55l2.3-.82.37,1.05-2.29.82ZM52,48.07,22,58.72l-.41-1.17,30-10.66Zm-4.62-.73L47,46.29l.19-.07,1.92-.68.19-.07.37,1.05Z"/></svg>