<svg id="Capa_1" data-name="Capa 1" xmlns="http://www.w3.org/2000/svg" viewBox="0 0 148.37 70.32"><defs><style>.cls-1{fill:none;}.cls-2{fill:#cb593d;}.cls-3,.cls-4{fill:#c44121;}.cls-4{font-size:13.98px;font-family:VAGRounded-Bold, VAG Rounded;font-weight:700;}.cls-5{letter-spacing:-0.07em;}</style></defs><path class="cls-1" d="M106.76,65.35a1,1,0,0,1-.78-.43,4,4,0,0,0-6.6-.5.94.94,0,0,1-.83.29l-95-7.29a1,1,0,0,1-1-1.11L4,38A8.37,8.37,0,0,0,5.23,21.66l1.4-18.3a1.05,1.05,0,0,1,1.13-.95l95,7.3a1,1,0,0,1,.78.43,4,4,0,0,0,6.61.5,1,1,0,0,1,.83-.3l33.4,2.57a1,1,0,0,1,1,1.1L144,32.29a8.37,8.37,0,0,0-1.26,16.4L141.29,67a1,1,0,0,1-1.13.94Z"/><path class="cls-2" d="M139.35,39.77c-.08.52.11.34.13.42C139.55,39.35,139.3,39.78,139.35,39.77Z"/><path class="cls-2" d="M146.17,34.48c0,.06,0,.12,0,.15l-.09,0h.11s0-.06,0-.11V32.66Z"/><path class="cls-2" d="M146.94,24.51c-.36.88-.22,3.43-.45,5.11l-.09.27.17.78C146.69,28.62,146.74,26,146.94,24.51Z"/><path class="cls-2" d="M147.94,19.52c-.13.3,0-1.1-.12,1.17l0-.21Z"/><path class="cls-2" d="M147.86,20.48c-.07,1,.14-.64,0,0Z"/><path class="cls-2" d="M148.15,15.88V17.2c.08-.27.19-1.44.2-1C148.4,14.85,148.32,15.12,148.15,15.88Z"/><path class="cls-2" d="M148,14.62v.68A1.69,1.69,0,0,0,148,14.62Z"/><path class="cls-2" d="M148,16.75l0-1.45c-.06.19-.16.2,0,.67C147.93,15.84,148,16.13,148,16.75Z"/><path class="cls-2" d="M147.9,17.56c-.12.73-.23,1.68-.23.36C147.52,20.43,147.75,20.08,147.9,17.56Z"/><path class="cls-2" d="M146.68,24l-.16,1,0,.85C146.53,25.42,146.77,24,146.68,24Z"/><path class="cls-2" d="M142.48,9.71c-.09.06.42.2.52.28h1A7.1,7.1,0,0,1,142.48,9.71Z"/><path class="cls-2" d="M143,10h-1.46C142.83,10.1,143.07,10.07,143,10Z"/><path class="cls-2" d="M147.74,14.36l0,2.4v-2.5c0-.12,0-.29,0-.43A4.46,4.46,0,0,1,147.74,14.36Z"/><polygon class="cls-2" points="136.94 9.28 137.77 9.2 136.29 9.3 136.94 9.28"/><path class="cls-2" d="M133.27,9c.61-.07-.82-.26-.17-.28a25.49,25.49,0,0,0-2.64,0A18.8,18.8,0,0,1,133.27,9Z"/><path class="cls-2" d="M129.16,8.78l1.3,0C130,8.74,129.6,8.75,129.16,8.78Z"/><path class="cls-2" d="M139.07,9.77a3.34,3.34,0,0,0-1.13-.26l.56.21Z"/><path class="cls-2" d="M138.52,9.73h0l-1.23-.1Z"/><path class="cls-2" d="M139.21,9.78h-.14A.17.17,0,0,0,139.21,9.78Z"/><path class="cls-2" d="M145.51,10.59a4.37,4.37,0,0,0-.93-.12c-.26,0-.51,0-.68,0-.34,0-.36.09.49.23a.56.56,0,0,0,.24-.06s0-.06,0-.09,0-.05.14-.06A1.88,1.88,0,0,1,145.51,10.59Z"/><path class="cls-2" d="M139.91,10.05l1.53.15s-.3-.13.13-.15Z"/><polygon class="cls-2" points="139.15 10.04 139.91 10.05 139.34 9.99 139.15 10.04"/><path class="cls-2" d="M131.79,9.14a21.81,21.81,0,0,1-2.22-.07c.88.1,1.79.19,2.65.25C132.35,9.28,132.73,9.21,131.79,9.14Z"/><path class="cls-2" d="M135.06,9.44h-.15C135,9.46,135.07,9.47,135.06,9.44Z"/><path class="cls-2" d="M121.48,8.44l.12,0s0,0,0,0Z"/><path class="cls-2" d="M132.37,9.37a6.63,6.63,0,0,0,1.44,0l-1.59-.09C132.16,9.34,132.15,9.36,132.37,9.37Z"/><path class="cls-2" d="M126.9,8.69l1.14.18A5,5,0,0,0,126.9,8.69Z"/><path class="cls-2" d="M134.69,9.38h.1C134.58,9.32,134.6,9.34,134.69,9.38Z"/><path class="cls-2" d="M134.69,9.38c-.34,0-.61,0-.88,0l1.1,0Z"/><path class="cls-2" d="M118.94,9.35a9,9,0,0,1,3.37.13c1.49,0,.56-.6-.71-1,0,.07,0,.13-1.58.11.53.13,3.36.46,2.07.51a10.55,10.55,0,0,1-2.63-.34c.82.26-2.58.09-2.16.41l1.77,0C119.1,9.25,118.45,9.27,118.94,9.35Z"/><path class="cls-2" d="M124.5,8.72l.63,0A19.78,19.78,0,0,1,123,8.37c-1,0-1.27,0-1.34.09l3.08.26Z"/><path class="cls-2" d="M127.94,9c-.5.13-2,.09-1.1.35a13.77,13.77,0,0,0,2.4,0c-3-.18.86,0-1.28-.29.59,0,1.11,0,1.61.08L128,8.87l.07,0h0c.12,0,.17,0,0,0h-.06a.48.48,0,0,1-.14.06c-.85-.11-.13-.06.14-.06l0,0h0l-3-.14C125.76,8.82,126.54,8.88,127.94,9Z"/><path class="cls-2" d="M142.78,11c-.09,0-.09,0-.09-.05C142.5,10.94,142.42,11,142.78,11Z"/><path class="cls-2" d="M141.57,10.78a4.76,4.76,0,0,1,1.1,0c.61.1,0,.08,0,.14.43,0,1.49,0,.17-.2h-.21a13.65,13.65,0,0,1-2.5-.49A5.52,5.52,0,0,0,141.57,10.78Z"/><path class="cls-2" d="M134.67,9.91l-2.48-.1,1.24.24-.05-.09C134.78,10.1,134.49,10,134.67,9.91Z"/><polygon class="cls-2" points="121.2 8.34 121.54 8.18 120.09 8.33 121.2 8.34"/><polygon class="cls-2" points="117.98 8.11 118.12 7.96 117.26 7.99 117.98 8.11"/><path class="cls-2" d="M4.12,58.26h.73A6.23,6.23,0,0,0,4.12,58.26Z"/><path class="cls-2" d="M1.77,56l-.07-.13C1.72,56.14,1.75,56.24,1.77,56Z"/><path class="cls-2" d="M40.45,2.17c-1.05-.23-2.21-.55-2.1-.36l.32.2A16.69,16.69,0,0,1,40.45,2.17Z"/><path class="cls-2" d="M3.58,20.42l.07-.31-.11-.72C3.55,19.7,3.56,20.05,3.58,20.42Z"/><path class="cls-2" d="M4.24,21.22l-.06.35,0,.17,0,.09-.08.41c0-.1,0-.21.08-.34l0-.1a.61.61,0,0,0,0-.14Z"/><path class="cls-2" d="M32.88,60.28l.86-.11C32.41,60.07,33,60.2,32.88,60.28Z"/><path class="cls-2" d="M86.47,5.75c-.91-.13-1.63-.22-2.27-.28A7.37,7.37,0,0,0,86.47,5.75Z"/><path class="cls-2" d="M1.58,59.46a3.18,3.18,0,0,0,.58.25c.13,0,.19,0,.19,0C1.79,59.54,1.5,59.34,1.58,59.46Z"/><path class="cls-2" d="M81.56,5.27l.48.08c.67,0,1.34.05,2.16.12A12.57,12.57,0,0,0,81.56,5.27Z"/><path class="cls-2" d="M135.68,68.32l.23,0S135.83,68.33,135.68,68.32Z"/><path class="cls-2" d="M143.15,46.2a3.71,3.71,0,0,0,.61.15c.31,0,.63.12,1,.16-.17,0-.4-.06-.68-.12l-.49-.08-.14,0-.09,0Z"/><path class="cls-2" d="M106.32,9.07c.28.18.05,0,0,0Z"/><path class="cls-2" d="M108.33,9.43c-.06.1-.11.18-.1.22A.69.69,0,0,1,108.33,9.43Z"/><path class="cls-2" d="M74.69,5.83h-.06C74.83,5.88,74.79,5.87,74.69,5.83Z"/><path class="cls-2" d="M106.76,9.37a1.21,1.21,0,0,1-.39-.23A.9.9,0,0,0,106.76,9.37Z"/><path class="cls-2" d="M106.71,9.27a.89.89,0,0,0,.3.06S107,9.31,106.71,9.27Z"/><path class="cls-2" d="M106,8.59l.15.25a.76.76,0,0,0,.08.11,1.14,1.14,0,0,0,.19.19c-.05-.05-.07-.07-.05-.07L106.19,9a.39.39,0,0,1-.08-.1.16.16,0,0,1,0-.07Z"/><path class="cls-2" d="M81.21,64.6l.14,0C82.05,64.61,81.74,64.6,81.21,64.6Z"/><path class="cls-2" d="M22.57,2.61h0Z"/><path class="cls-2" d="M20.11,2.55a8.08,8.08,0,0,1,2.44.05L21.78,2Z"/><path class="cls-2" d="M16.73,59.17,15,58.88c2.09-.09,3.59.11,2-.23-.28.52-6.69-.46-7,.06l-1.12-.2c.32,0,.38,0,.7,0-2.19-.43-1.67.26-4.5,0-1-.12-1.68-.25-1-.26H3.35l-.19,0A2,2,0,0,1,2.43,58c-.18-.14-.22-.22-.18-.22a1.58,1.58,0,0,1,.32.21,2.05,2.05,0,0,1-.75-.85,2.07,2.07,0,0,1-.15-.54,2.81,2.81,0,0,1,0-.29c0-.11,0-.27,0-.41v0c-.05-.49-.1-1.59-.11-2.12.14-.85,0,.43.11.22V52.12c.2-.75.22.8.1,2.09.67-1.7,0-1.56.59-5.29l-.07,1.77a35.71,35.71,0,0,0,.73-4.47c-.13.46-.79,3.94-.77,1.91a13.42,13.42,0,0,0,.14-2.41c.19,0,.23-1.07.32-2.4l.25.11a13,13,0,0,0-.15-2.2,4.75,4.75,0,0,1,.56-2.29c.12-1.28,0-.84-.11-.46-.06.19-.12.36-.16.3a.87.87,0,0,1,0-.31v-.33l0-.41c0-.17,0-.34.08-.46h.22l.27,0a3,3,0,0,0,.51-.1l.32-.07.32-.1A7.37,7.37,0,0,0,7.43,35.5c1.33-1-.11.33.39,0l.49-.59c.14-.21.28-.42.41-.63s.2-.16.19-.1c.35-.53.28-.6.29-.73a6.93,6.93,0,0,1,.42-1.22c0-.29.4-1.17.51-2.4a5.71,5.71,0,0,0-.12-2A4.68,4.68,0,0,0,9.2,26.1c-.25-.55.29.16.28,0a7.15,7.15,0,0,0-.67-.88l-.29-.33-.28-.25L8,24.37l-.23-.18c-.15-.1-.27-.21-.41-.29a5.52,5.52,0,0,0-.88-.49,4.09,4.09,0,0,0-.61-.24L5.49,23,5,22.94l-.19-.09L4.7,22.8l-.26-.1L4,22.57s0-.05,0-.07l0-.09,0-.17c0,.12-.07.21-.09.29l0,.09a0,0,0,0,1,0,0s0,0,0,0-.11,0-.14-.08a3.88,3.88,0,0,1-.08-.45c0-.2,0-.45-.05-.77l0-.95c-.14.54-.25,1-.32,1.31L3.34,19c.06-.33.13-.05.2.41l0-.51c.17-1,.28-.45.37.26l-.24,1c.11.69.23,1.34.39,1.21,0-.18,0-.52,0-.9,0,.18.06.29.09.21a4.38,4.38,0,0,0,0-.83l.33-.6L4.33,19l.45-3.57a83.6,83.6,0,0,1-.14-8.93c.13,1,.32.24.57.32C4.86,8,5.08,10,4.86,12.12c.11-1.1.21-.84.23-.56l0-3.78c.2.1.22-.79.37-1.77-.22.36-.24-.35-.19-1.33,0-.25,0-.51,0-.78l0-.41V3.28l0-.16A2.46,2.46,0,0,1,5.81,2c.08,0,.09.1,0,.32s-.1.27-.16.48a2.69,2.69,0,0,0-.06.36c0,.06,0,.17,0,.28l0,.33c0-.13.06-.25.08-.37l0-.17,0-.12c0-.15.06-.28.1-.42A3.06,3.06,0,0,1,6,2a1.7,1.7,0,0,1,.58-.62,1.55,1.55,0,0,1,1-.21,1.14,1.14,0,0,0-.7.16,1.88,1.88,0,0,1,.81-.16c.35,0,.78.06,1.13.09.7.08,1.2.17.89.21l-.46,0c3,.28,9.22.71,9.69.4,0,0-.42.38-.61.44l5.49-.73c-.5.25,1.27,1.09-1.25,1.06a21.24,21.24,0,0,0,3.13.23c-.49-.08-1.19-.52-.52-.49,1.82.46,1.27.27,3.52.72-.73-.12.12-.51,1.29-.41-.19.06.06.46-.37.48l2.93-.23c-.73,0-.15.37.49.55-.3-.11,2.5.2,3.28.21l-1.22-.2c3.27.32,3.28-.38,6.53-.11-.41.06-1,.5.63.68a26.36,26.36,0,0,1,6.32-.8l.54.17,2.22,0c-1.4.24-5.31.67-7.44.8a10.45,10.45,0,0,0,2.17.31c.64.17-1,.11-1.56.07L48.86,5c-.17-.28,3.29,0,3.14-.26l-4.66-.07c-.17-.29,2.74-.56,5.76-.28.77.17-.61.43-.55.53a21.55,21.55,0,0,1,3.16.13l-1.3,0c1.68.23,2.78-.15,4.78.26.7.07,2.06.51,2.2.36-1.12-.4-1.27-1.36-.49-1.53.24,0,3.64.57,4.43.78,1.13.33-1.77.44-.81.73a3.16,3.16,0,0,1,1-.12c.73.11-.32.2,1.28.29.28-.25,3.24.27.77-.17,1.56,0,1.65.18,3.48.31-.57-.22,1.69-.47,3.26-.43-.09.06.25.18.42.23,3.19.27,4.9.53,7.88.76.27.09,1.7.28,1.08.35a11.42,11.42,0,0,1,1.75,0c1.77.38-2.05-.12-.71.27a25.49,25.49,0,0,1,3.71,0c-.39-.28-3-.28-4.34-.29,0-.33,2.33-.51,5.45-.43,2.49.11,1.06.3,1.5.29,4.64.41,4-.29,7.85.25,1.51.34,0,.44.36.62-2-.08-3.08-.38-4.45-.47l1.67.23a18.29,18.29,0,0,1-2.72-.15c.63.15,2.59.31,4.85.49L102,8a6.16,6.16,0,0,1,1.61.26,2.37,2.37,0,0,1,1.11.82,1.72,1.72,0,0,1,.33.4,2.18,2.18,0,0,0,.38.37c.24.18.38.21.21,0a2.11,2.11,0,0,1-.39-.4A5.62,5.62,0,0,0,105,9c-.13-.23-.12-.25,0-.17a1.24,1.24,0,0,1,.22.2c.08.1.15.21.22.29a1.43,1.43,0,0,0,.36.32c.07,0,0,0-.16-.26a1.78,1.78,0,0,0,2.63-.12l.12-.15a1.29,1.29,0,0,1,.16-.17,3.65,3.65,0,0,1,.36-.31,3.27,3.27,0,0,1,.86-.42,4,4,0,0,1,.52.12,1.73,1.73,0,0,0-.88.21,2.62,2.62,0,0,0-.64.42,2,2,0,0,0-.24.26l-.09.13-.06.08a.76.76,0,0,1,.1-.14,1.45,1.45,0,0,1,.17-.19,1.89,1.89,0,0,1,.46-.36,3,3,0,0,1,1.29-.41,3.1,3.1,0,0,1,.68,0l.6.06a3.54,3.54,0,0,0,1,0L111.1,8a41,41,0,0,1,5.36.1c-.85-.31-.44,0-1.77-.4,1.14.45-4.86-.38-3,.13l-.5-.14a3.36,3.36,0,0,0-.63-.06,3.32,3.32,0,0,0-1.25.25,3.69,3.69,0,0,0-1.21.8,1.58,1.58,0,0,1-.36.32.75.75,0,0,1-.3.09s.12,0,.11.06-.11.15-.53.14a.53.53,0,0,1-.19.06l-.06,0,0,0h0c.21.07.39.09.47.12a.87.87,0,0,1-.54.11,1.36,1.36,0,0,1-.73-.3,1.42,1.42,0,0,1-.29-.31l-.08-.13-.11-.16-.24-.28a2.94,2.94,0,0,0-.91-.65c-.51-.27-.4-.22-.21-.18s.43.15.16,0a3.76,3.76,0,0,0-.78-.21l-.4,0h-.36c-.11-.19-2.49-.49-.25-.43l-2-.16a28,28,0,0,0-3.8-.36c-.95-.11-2.41,0-1.57-.06L92,6.19l0-.05C88.88,5.88,85.57,6,82,5.35c-1.05,0-2.14-.06-3.88-.25l-.33-.18c-1.35,0-4-.46-4.61-.35C71.8,4,66.71,4,64.36,3.73l-.11.19c-1.62-.13-3.19-.2-5.21-.27l.11.19c-1.75,0-4.46-.47-7.22-.67a5.74,5.74,0,0,1,1.38.1c-3.25-.66-7-.24-9.91-.76a10,10,0,0,1-1.8-.14h.18l-.3,0-1-.18c.31.07.6.13.86.17-.57,0-1.44-.09-2.3-.11L38.67,2h-.2c-.83-.13-.68,0-.25.22-.43,0-.82,0-1.13,0-.66-.36-2.24-.07-3.15-.47-.58.12-4.29-.21-4.77.1,0,0-.27-.09.19-.06a19,19,0,0,0-2.75-.19l-.39-.28-2.1.17c-1.24-.24-1.76-.37-.49-.46-3.05.06-2.46-.08-5.05,0l.13-.15A20.77,20.77,0,0,1,15.77.78c-1-.23-3.56-.43-6.5-.67L8.15,0A6.43,6.43,0,0,0,7.5,0a3.39,3.39,0,0,0-.71.11,3.55,3.55,0,0,0-2.22,1.7,3.32,3.32,0,0,0-.42,1.36L4,4.28C4,5,3.88,5.71,3.8,6.37c.54-1-.4,2.43-.06,2.67-.13.3-.25,1-.28.17-.1,2.7-.48,4-.32,5.91-.14.3-.12-.59-.21-.32a5,5,0,0,1-.05,1.14c-.09.26-.07-.41-.08-.83-.19,2.74.13,3.05.43,3.27a8.66,8.66,0,0,0-.16,3.1l0,.2L3,21.92a1.52,1.52,0,0,1-.1.32s0,0,0-.23v-.43l0-.53c0,.18,0,.49-.08.87s0,.52-.07.81l0,.45,0,.24v.12s0,.08,0,.1l1,.15.9.19.56.2.51.22c.62.31,1,.6,1.11.55.18.22.9.85,1,1.05a6.33,6.33,0,0,1,1,1.82,6.86,6.86,0,0,1,.3,2l0-.27v-.27a1.41,1.41,0,0,1,.15.61,2.2,2.2,0,0,1-.05.71,7.48,7.48,0,0,1-.62,1.84v-.06a7.41,7.41,0,0,1-1.11,1.47l-.54.54a3.38,3.38,0,0,1-.6.45,3.56,3.56,0,0,1-.63.33,3,3,0,0,1-.46.17,2.86,2.86,0,0,1-.58.16l.24.13c0,.07-.11.14-.24.2A1.76,1.76,0,0,1,4,36L3.66,36H3.18c-.34,0-.74,0-1.17-.07,0,0,0,0,0,.08l0,.11,0,.22-.07.47-.12,1c-.06.52-.1,1-.11,1.52l.17-.8c.05,1.24-.82,3.38-1,4.61,0,.26,0-.43,0-.81-.49,3.2.22.44.09,2.84-.16.43-.3-.6-.45,1C.27,47,.53,50.9.1,53.08c.14-.48.28-.95.27.17,0,.43-.08.93-.15,1.46l-.11.82a8.86,8.86,0,0,0-.11.93,3.84,3.84,0,0,0,.15,1.07,3.69,3.69,0,0,0,.47.93,2.8,2.8,0,0,0,1.4,1c.24.14.33.21.33.23a3.21,3.21,0,0,0,.69.15,6.66,6.66,0,0,0,.73,0L5.26,60a18.84,18.84,0,0,0,2.33,0c1.16.75,8.14.3,8.06.91l4,.27-.11.06a21.19,21.19,0,0,0,4.39.08c.59.09.15.11.1.14a40,40,0,0,0,7.28.35l.31.22c.86,0,5.4.73,9.09.78a1,1,0,0,1-.41.06c4.16.08,9.86,1.31,11.43.7l2.74,0c-3.52-.33.55-.28-.89-.51,1.39.07,3.57.49,1.87.4l-.27-.06c-.65.33,4.38.47,4.26.72,6.95.52,13.71,1.25,20.22,1.76L79,65.52l2.27.19c.59.12.78.29-.84.16a8.62,8.62,0,0,0,2.78,0c3.16.36-1.26.24-.29.33l1.32.08-.29-.06a15.12,15.12,0,0,1,3.13,0c1.22.15.61.22,1.1.27,0,0,.16,0,.74.07l2.86.24L90.6,66.5c1.28,0,2.69.22,1.39-.14a47,47,0,0,0,6.19.72,4.61,4.61,0,0,0,.55,0A3.68,3.68,0,0,0,99.3,67a3.59,3.59,0,0,0,1.07-.38,3.25,3.25,0,0,0,.85-.7l.13-.16a.94.94,0,0,1,.1-.1.87.87,0,0,1,.22-.17,1.51,1.51,0,0,1,.88-.25,1.33,1.33,0,0,1,.53.14,1.38,1.38,0,0,1,.78.52l.2.29a2.69,2.69,0,0,0,.27.32,3.17,3.17,0,0,0,.64.52,3.57,3.57,0,0,0,1.6.53l1.56.13c-.53-.09-.84-.38,1-.2-.72.48,3.41.49,4.9,1-1.34-.36,5.33.34,3.23-.19,1.56.17.08.21,1.26.43,3.73.08,8.18.76,12.79,1,.07-.07-.69-.23.31-.26l2.4.54c.91,0,.86-.35,2.5,0-.23-.07-.57-.19,0-.16,1.12.13,2.25.24,3.39.34a3.62,3.62,0,0,0,1-.06,3.51,3.51,0,0,0,2.42-1.92,3.15,3.15,0,0,0,.28-1c0-.09,0-.17,0-.24v-.21l0-.43.13-1.73c.08-1.15.16-2.3.23-3.46.17-2.31.34-4.62.55-6.93q.17-1.72.36-3.45l.51-4.22c-.12.87-.18,1.11-.19,1a2,2,0,0,1,0-.36l0-.32v-.18c0-.06,0-.15,0-.18l-.65-.08c.45.07.4.11.25.14s-.37.07-.33.12c-.41-.06-.8-.18-1.21-.28a.28.28,0,0,1-.12,0l-.11,0-.2-.09a2,2,0,0,1-.39-.19,5.58,5.58,0,0,1-1.4-1,3.61,3.61,0,0,1-1.48-1.51c-.48-.77-.67-1.62-.83-1.78a6.36,6.36,0,0,0,.38,1.06c-.21-.32-.31-.35-.34-.21a1.88,1.88,0,0,0,0,.34,2.53,2.53,0,0,0,.09.5,9.2,9.2,0,0,0,.33,1.08c.12.31.18.53.07.55a23.32,23.32,0,0,0,2,1.64l.32.21.34.18a4.84,4.84,0,0,0,.73.34l.19.08.14,0,.24.08a2.41,2.41,0,0,0,.44.08h0v.3a1.71,1.71,0,0,0,0,.32v.46l0,.58c-.12.65-.08-.56-.19-.22a13.62,13.62,0,0,1-.13,3.35l0-.2c-.32,4.73-.64,6.74-1.16,12l.22-.37c-.11,1.13-.19,1.37-.27,1.9.18,1.33.26-3.2.48-2a11.22,11.22,0,0,0-.31,1.89l-.07.66,0,.34,0,.17,0,.13a2,2,0,0,1-.43,1,2.09,2.09,0,0,1-1.82.74,6.53,6.53,0,0,1-1.61-.32c-1.76-.14.5.26-1.26.12l-.45-.16-.46.12c-1.15-.11-1.71-.3-1.75-.41.28,0,.8,0,1.1,0-1.48-.25-4.21-.28-4.72-.36l1.68.2c-4.79-.25-10.62-.86-15.27-1l.35.11c-3.54-.1-2.82-.31-6.7-.53h.14a25,25,0,0,1-2.88-.1c1,0-1.83-.35-.54-.36l-1.15,0a2.42,2.42,0,0,1-.56-.09c-.28-.09-.41-.16-.52-.2a3,3,0,0,1-.35-.18,1.72,1.72,0,0,1-.27-.24l-.11-.13a2.09,2.09,0,0,0-.14-.17,3.51,3.51,0,0,0-.39-.34,2.45,2.45,0,0,0-.5-.52,2.76,2.76,0,0,0-1.24-.13,2.89,2.89,0,0,0-.79.18,2.53,2.53,0,0,0-1.07.74c.29-.35.41-.44.38-.46a.83.83,0,0,0-.35.17c-.15.09-.28.21-.3.17s.06-.24.51-.62a3,3,0,0,0-.4.3l-.18.17c-.06.06-.11.13-.13.14a1.79,1.79,0,0,1-.38.3,2.35,2.35,0,0,1-.84.3,3,3,0,0,1-.42,0l-.52,0-1,0a10.43,10.43,0,0,1-3.12-.37c-1.89.27,3.5.5,2.45.51.87.2-1.56.19-2.83,0s-2.17-.7-5.43-.94c.32,0,.34,0,.67,0-1.22-.2-2.41,0-3.89-.32-.86.18-2-.17-2.21.13l3,.16a38.94,38.94,0,0,1-6.11-.2c.22,0,1.06-.06,1.64-.07-.81-.15-1.58-.06-2.42-.22.26-.3,3.64.21,5.48.11-.87-.2-3.46,0-2.52-.31-1.35.34-3.21-.3-5.45-.13l.16-.18c-.35,0-1.08,0-1.72,0l1.18-.16c-1.8.08-3.43-.45-5.16-.46,3.59.27.79.29,2.3.54-4.45-.08-2.51-.69-7.48-1,.67,0,2.51.31,1.45.31s-2.18-.28-2.75-.42c-3.29-.21.49.23-.92.24-1.1-.31-1.62,0-3.07-.06v-.2c-3.73-.41-1,.33-4.38-.08l1.44-.16-1.76-.06.38-.2a28.92,28.92,0,0,1-4.39-.27c.43.17-.27.33-1.93.21-1.12-.2.65-.14-1.71-.29a4.68,4.68,0,0,1,2.15.07c.11-.06.53-.08.64-.14-1.21-.22-3.06-.26-3.91-.33.33,0,.72.08.92.12H44.31c-.54-.12-.1-.14.32-.17-.69,0-1.18,0-2.19,0,.27-.14.22-.3,1.67-.27L40.84,61c-.21-.09-1.65-.32-1.22-.34-1.8-.23-4.45,0-6.83-.34a5.18,5.18,0,0,1-.88,0,62.86,62.86,0,0,0-6.9-.54l-1.48-.4c-2.09-.09,2,.51-1.46.35-2.47-.1-.9-.31-1.76-.45a25.42,25.42,0,0,1-5.62-.23C15.45,59.05,16,59.14,16.73,59.17Zm-14.44-11A7.36,7.36,0,0,1,2.19,50,4.05,4.05,0,0,1,2.29,48.18Zm2-31.51a6.79,6.79,0,0,1-.16,1.58A12.25,12.25,0,0,1,4.24,16.67ZM99,6.73h0C97.82,6.58,98.22,6.64,99,6.73Zm2.3.26c.24,0,.22,0,.13-.07a6.31,6.31,0,0,1-1.27-.06A3.27,3.27,0,0,0,101.28,7ZM88.39,66.46l-.45-.08C89,66.4,88.67,66.43,88.39,66.46Z"/><path class="cls-2" d="M4.16,21.12a.34.34,0,0,1-.12.2C4.06,21.52,4.1,21.53,4.16,21.12Z"/><path class="cls-2" d="M32.72,60.3h.07l.09,0Z"/><path class="cls-2" d="M65.43,5.89a8,8,0,0,1-.91-.17S64.71,5.82,65.43,5.89Z"/><path class="cls-2" d="M112.12,7.5l-.74,0h-.45l-.5,0a3.72,3.72,0,0,1,1,0l.53.09S111.66,7.46,112.12,7.5Z"/><path class="cls-2" d="M124.85,9.68c.22,0,.46,0,.68,0l-.06-.09C124.55,9.54,123.9,9.57,124.85,9.68Z"/><path class="cls-2" d="M113.44,8.24a5.72,5.72,0,0,0,2.07.24h-.18C115.65,8.26,114.54,8.25,113.44,8.24Z"/><path class="cls-2" d="M115.75,8.49l1,.07C116.84,8.48,116.32,8.51,115.75,8.49Z"/><path class="cls-2" d="M104.54,7.47a.87.87,0,0,0,.48.2.3.3,0,0,1,.27.14c.18.1,0,0-.24-.25A3.5,3.5,0,0,0,104,7.1c-.37-.08-.65-.07-.61,0l.3.08A4.74,4.74,0,0,1,104.54,7.47Z"/><polygon class="cls-2" points="114.24 8.84 113.88 8.61 113.29 8.73 114.24 8.84"/><path class="cls-2" d="M106.64,10.23a2.11,2.11,0,0,0,1.51-.24s.12-.13.28-.31a2,2,0,0,1-1.19.54C106.87,10.26,106.62,10.19,106.64,10.23Z"/><path class="cls-2" d="M108.43,9.68c.17-.16.34-.41.52-.56a4.45,4.45,0,0,1,.5-.37,2.35,2.35,0,0,0-.54.38,2.44,2.44,0,0,0-.27.29C108.56,9.53,108.5,9.6,108.43,9.68Z"/><path class="cls-2" d="M112,8.73l-.48-.08a3.83,3.83,0,0,0-1.17,0A6.53,6.53,0,0,1,112,8.73Z"/><path class="cls-2" d="M89.71,6.77,87.9,6.69c-.19.06.3.14,1,.16C89.31,6.83,90,6.86,89.71,6.77Z"/><path class="cls-2" d="M95.13,7.74a3.8,3.8,0,0,1-.79-.21l-.07.24Z"/><path class="cls-2" d="M89.86,7.39c-.18.06-2.63,0-.34.16C89.7,7.5,91.52,7.58,89.86,7.39Z"/><polygon class="cls-2" points="62.69 4.99 63.15 5.02 63.12 4.61 62.69 4.99"/><path class="cls-2" d="M38.65,4.12c2.13.27.53-.21,2.45.06.51-.06-1.57-.22-1.05-.26C38.75,3.92,38.08,3.81,38.65,4.12Z"/><path class="cls-2" d="M40.05,3.92h.66A5.54,5.54,0,0,0,40.05,3.92Z"/><path class="cls-2" d="M140,43.29a5.48,5.48,0,0,1-.37-1.1,6.54,6.54,0,0,0,.13.75Z"/><path class="cls-2" d="M139,41.19q.12-.16.24-.3c-.1-.24-.15-.48-.23-.73,0,.14,0,.34,0,.54A2.5,2.5,0,0,1,139,41.19Z"/><path class="cls-2" d="M3.1,44.4l-.05-.11a4.59,4.59,0,0,0-.18,1.17Z"/><polygon class="cls-2" points="5.88 58.13 5.56 58.1 6.14 58.38 5.88 58.13"/><path class="cls-2" d="M21.55,59c-.64-.06-1.39-.07-2-.13C20.91,59,21.7,59.34,21.55,59Z"/><path class="cls-3" d="M102.79,63.63h0a.41.41,0,0,1-.37-.43l.37-4.81a.4.4,0,1,1,.8.07l-.37,4.8A.4.4,0,0,1,102.79,63.63Zm.74-9.61h0a.4.4,0,0,1-.37-.43l.37-4.8a.4.4,0,0,1,.8.06l-.37,4.8A.4.4,0,0,1,103.53,54Zm.74-9.6h0a.4.4,0,0,1-.37-.43l.37-4.8a.39.39,0,0,1,.43-.37.4.4,0,0,1,.37.43l-.37,4.8A.4.4,0,0,1,104.27,44.42Zm.74-9.6h0a.4.4,0,0,1-.37-.44l.37-4.8a.4.4,0,0,1,.43-.37.41.41,0,0,1,.37.43l-.37,4.81A.41.41,0,0,1,105,34.82Zm.73-9.61h0a.4.4,0,0,1-.37-.43l.37-4.8a.4.4,0,0,1,.43-.37.4.4,0,0,1,.37.43l-.37,4.8A.4.4,0,0,1,105.74,25.21Zm.74-9.6h0a.41.41,0,0,1-.37-.43l.37-4.8a.4.4,0,1,1,.8.06l-.37,4.8A.4.4,0,0,1,106.48,15.61Z"/><rect class="cls-3" x="51.71" y="12.47" width="0.4" height="91.31" transform="matrix(0.08, -1, 1, 0.08, -10.02, 105.44)"/><rect class="cls-3" x="51.85" y="10.71" width="0.4" height="91.31" transform="translate(-8.14 103.94) rotate(-85.61)"/><rect class="cls-3" x="51.98" y="8.95" width="0.4" height="91.32" transform="translate(-6.26 102.45) rotate(-85.61)"/><rect class="cls-3" x="52.12" y="7.19" width="0.4" height="91.32" transform="translate(-4.38 100.96) rotate(-85.61)"/><text class="cls-4" transform="translate(24.89 23.53) rotate(3.59) scale(0.87 1)"><tspan class="cls-5">P</tspan><tspan x="6.74" y="0">ARQUE DE</tspan></text><text class="cls-4" transform="translate(9.89 41.41) rotate(3.59) scale(0.87 1)">RETOS-CURSO 2</text><path class="cls-3" d="M134.28,37.28a.56.56,0,1,0,.06-1.11.55.55,0,0,0-.59.52.56.56,0,0,0,.53.59Z"/><path class="cls-3" d="M128.79,33a.55.55,0,0,0-.59.52.56.56,0,0,0,.52.6.58.58,0,0,0,.6-.53h0a.57.57,0,0,0-.53-.59Z"/><path class="cls-3" d="M134.05,46.43a.56.56,0,1,0,.59-.52.56.56,0,0,0-.59.52Z"/><path class="cls-3" d="M124.35,27.22a.56.56,0,1,0,.06-1.11.55.55,0,0,0-.59.52h0A.56.56,0,0,0,124.35,27.22Z"/><path class="cls-3" d="M118.81,35.23a.56.56,0,0,0-1.11-.07.56.56,0,0,0,.52.6h0A.57.57,0,0,0,118.81,35.23Z"/><path class="cls-3" d="M114.24,41a.57.57,0,0,0-.59.53.56.56,0,0,0,1.12.07.57.57,0,0,0-.53-.6Z"/><path class="cls-3" d="M113.52,48a.56.56,0,1,0,1.12.07.56.56,0,0,0-.53-.59.55.55,0,0,0-.59.52Z"/><path class="cls-3" d="M136.65,54.12l-6.15-.37.14-2.34.83.05A.49.49,0,0,0,132,51l.11-1.76a.49.49,0,0,0-.46-.52l-.83,0,.09-1.44.82.05a.49.49,0,0,0,.53-.46h0l.17-2.93a.5.5,0,0,0-.46-.53l-3.66-.22,1.09-.64a2.73,2.73,0,0,0,1-1l.85-1.44a3.55,3.55,0,0,0,4.95-.77l.13-.2A3.54,3.54,0,0,0,139,34.9a3.6,3.6,0,0,0-.66-1.43,2.83,2.83,0,0,0-.12-4,2.77,2.77,0,0,0-1.48-.73,3.58,3.58,0,0,0-3.32-3.23,3.41,3.41,0,0,0-.9.06,3.55,3.55,0,0,0-3.6-2.75,3.55,3.55,0,0,0-6.19-.37,3.54,3.54,0,0,0-3.91,2.3,3.34,3.34,0,0,0-.88-.17,3.58,3.58,0,0,0-3.69,2.8,2.83,2.83,0,0,0-2.7,2.95,2.76,2.76,0,0,0,.55,1.56,3.55,3.55,0,0,0,0,5,3.62,3.62,0,0,0,1.34.84,3.54,3.54,0,0,0,4.72,1.67l.21-.1.67,1.53a2.73,2.73,0,0,0,.85,1.08l1,.77-3.66-.22a.49.49,0,0,0-.52.46l-.18,2.94a.5.5,0,0,0,.47.52l.82.05-.08,1.43-.83-.05a.49.49,0,0,0-.52.46l-.11,1.77a.49.49,0,0,0,.46.52l.83.05L117.46,53l-6.14-.37a.49.49,0,0,0-.53.46.5.5,0,0,0,.47.53l25.33,1.52a.49.49,0,0,0,.06-1Zm-7.13-.43-1.32-.08-.5-1.1a10.14,10.14,0,0,1-.48-1.3l2.44.15Zm-7.46-2.79,4.12.24a10,10,0,0,0,.62,1.77l.28.64-6.2-.38.36-.59a9.67,9.67,0,0,0,.82-1.68Zm7.76-2.29-3-.18c0-.13,0-.25,0-.38l.07-1,3,.17Zm-7-1.86,3.15.19L125.89,48c0,.12,0,.25,0,.37l-3.16-.19,0-.37Zm-8.51-9.59a.49.49,0,0,0-.33-.3,2.56,2.56,0,0,1-.85-4.53.49.49,0,0,0,.1-.69.46.46,0,0,0-.07-.07,1.84,1.84,0,0,1,1.35-3.2h.13a.5.5,0,0,0,.56-.42v0a2.57,2.57,0,0,1,2.71-2.36,2.53,2.53,0,0,1,1,.29.5.5,0,0,0,.67-.21.58.58,0,0,0,.05-.14,2.56,2.56,0,0,1,3-2.08,1,1,0,0,1,.25.06.49.49,0,0,0,.57-.26,2.57,2.57,0,0,1,3.44-1.16,2.62,2.62,0,0,1,1.28,1.44.49.49,0,0,0,.54.33A2.55,2.55,0,0,1,131.6,26a1.07,1.07,0,0,1,0,.25.5.5,0,0,0,.52.47l.15,0a2.61,2.61,0,0,1,1.07-.16,2.58,2.58,0,0,1,2.41,2.67.5.5,0,0,0,.14.37.51.51,0,0,0,.37.15h.11a1.84,1.84,0,0,1,1.73,1.95,1.82,1.82,0,0,1-.77,1.39.5.5,0,0,0-.11.69.13.13,0,0,0,.06.07,2.58,2.58,0,0,1-1.39,4.4.49.49,0,0,0-.37.25,2.56,2.56,0,0,1-4.1.54.49.49,0,0,0-.58-.1,2.56,2.56,0,0,1-3.32-.9.49.49,0,0,0-.68-.15l-.08.06a2.55,2.55,0,0,1-3.61-.08l-.13-.14a.49.49,0,0,0-.7-.07l-.06.06a2.55,2.55,0,0,1-3.4.5.5.5,0,0,0-.59,0,2.56,2.56,0,0,1-3.6-.34,2.68,2.68,0,0,1-.41-.69Zm13.19,2.2a3.4,3.4,0,0,0,1.07.59l-.22.39,0,0-1,.38c0-.51.1-1,.15-1.39Zm-5.3,1.08-.92-.5s0,0,0,0l-.17-.41a3.5,3.5,0,0,0,1.13-.46c0,.4,0,.89,0,1.4Zm-1.66.71a1.77,1.77,0,0,1-.54-.7l-.42-1a3.65,3.65,0,0,0,.46.07l.29.71a1,1,0,0,0,.48.53l1.61.87a.49.49,0,0,0,.67-.2.66.66,0,0,0,.06-.2c.05-.8.06-1.6.05-2.21a3.53,3.53,0,0,0,3.31.2c-.08.61-.16,1.4-.21,2.2a.49.49,0,0,0,.46.52.37.37,0,0,0,.21,0l1.71-.67a1.05,1.05,0,0,0,.54-.48l.37-.66a3.77,3.77,0,0,0,.47,0l-.53.9a1.78,1.78,0,0,1-.63.62L126.53,43l-3.84-.23Zm-2.82,2.34,13.71.83-.12,2-13.71-.83Zm1.14,3,3,.18-.06,1.06,0,.37-3-.18Zm-1.47,2.34,13.71.82,0,.78-13.71-.83Zm1.22,1.84,2.43.14a7.87,7.87,0,0,1-.62,1.23l-.64,1L118.45,53Z"/><path class="cls-3" d="M118.41,31.77a.47.47,0,0,0,.2-.36h0a1.3,1.3,0,0,1,2.58-.13.48.48,0,0,0,.57.4l.09,0a.86.86,0,0,1,1.11.51.65.65,0,0,1,0,.13.49.49,0,0,0,.57.4.5.5,0,0,0,.41-.57v0a1.87,1.87,0,0,0-2-1.48,2.29,2.29,0,0,0-3-1.24,2.32,2.32,0,0,0-1.33,1.49,2,2,0,0,0-2,1.92.49.49,0,1,0,1,.06h0a1.08,1.08,0,0,1,1.13-1l.15,0A.48.48,0,0,0,118.41,31.77Z"/><path class="cls-3" d="M128.17,29.49a.48.48,0,0,0,.69-.1h0a.73.73,0,0,1,1.28.22.49.49,0,0,0,.61.33.45.45,0,0,0,.21-.12.77.77,0,0,1,.61-.23.82.82,0,0,1,.77.86.49.49,0,0,0,.46.52.5.5,0,0,0,.53-.46,1.8,1.8,0,0,0-2.54-1.75,1.72,1.72,0,0,0-2.4-.29,2,2,0,0,0-.32.33.49.49,0,0,0,.1.69Z"/></svg>