<svg id="Capa_1" data-name="Capa 1" xmlns="http://www.w3.org/2000/svg" viewBox="0 0 141.09 70.07"><defs><style>.cls-1{fill:#8746a2;}.cls-2,.cls-3,.cls-5{fill:#752994;}.cls-3,.cls-5{font-size:13.98px;font-family:VAGRounded-Bold, VAG Rounded;font-weight:700;}.cls-3{letter-spacing:-0.07em;}.cls-4{letter-spacing:0em;}</style></defs><path class="cls-1" d="M133.7,8.79c0,.43.14.26.16.32,0-.33-.06-.41-.1-.41S133.68,8.8,133.7,8.79Z"/><path class="cls-1" d="M133.84.1h.23a2.75,2.75,0,0,0-.9-.11l-.42.06-.36.07c.22,0,.4-.07.68-.1A2.52,2.52,0,0,1,133.84.1Z"/><path class="cls-1" d="M124.53.83c.89.16,3.3-.37,4.93-.45l.28,0,.71-.27C128.48.37,125.93.76,124.53.83Z"/><path class="cls-1" d="M119.61.78c.31.07-1,.19,1.14-.08h-.21Z"/><path class="cls-1" d="M120.54.69c1-.1-.64,0,0,0Z"/><path class="cls-1" d="M116.11,1.19,117.37,1c-.27,0-1.4.07-1,0C115.09,1.14,115.36,1.17,116.11,1.19Z"/><path class="cls-1" d="M114.93,1.49l.65-.1A1.84,1.84,0,0,0,114.93,1.49Z"/><path class="cls-1" d="M117,1.18l-1.38.21a.76.76,0,0,0,.64-.09C116.11,1.38,116.38,1.29,117,1.18Z"/><path class="cls-1" d="M117.75,1.13c.72,0,1.64-.07.38.14C120.55,1,120.17.86,117.75,1.13Z"/><path class="cls-1" d="M124.09,1.13l1,0,.81-.17C125.45,1,124,1.06,124.09,1.13Z"/><path class="cls-1" d="M108.21,1.85c-.07.06.44.1.55.16l.92-.15A7.47,7.47,0,0,1,108.21,1.85Z"/><path class="cls-1" d="M108.76,2l-1.39.23C108.62,2.12,108.84,2.06,108.76,2Z"/><polygon class="cls-1" points="114.73 1.79 117.01 1.37 114.29 1.84 114.73 1.79"/><polygon class="cls-1" points="102.87 2.38 103.65 2.18 102.26 2.51 102.87 2.38"/><path class="cls-1" d="M99.26,2.77c.44-.1.14-.12-.19-.1s-.63.12-.15-.06a3.3,3.3,0,0,0-1.75,1.2,3.41,3.41,0,0,0-.44.77.92.92,0,0,1-.09.23,1.54,1.54,0,0,0,.14-.23,3.42,3.42,0,0,1,.52-.78A3.14,3.14,0,0,1,99.26,2.77Z"/><path class="cls-1" d="M96.2,5.18a.8.8,0,0,0,.44-.37A1.24,1.24,0,0,1,96.2,5.18Z"/><path class="cls-1" d="M105,2.45a3.92,3.92,0,0,0-1.11,0l.56.09Z"/><path class="cls-1" d="M104.45,2.51h0l-1.19.12Z"/><path class="cls-1" d="M105.12,2.44H105A.22.22,0,0,0,105.12,2.44Z"/><path class="cls-1" d="M111.05,2c-.81.17-2.52.43-.85.39C110.78,2.25,109.83,2.27,111.05,2Z"/><path class="cls-1" d="M105.82,2.56l1.49-.12s-.31-.07.1-.15Z"/><polygon class="cls-1" points="105.1 2.67 105.82 2.56 105.27 2.6 105.1 2.67"/><path class="cls-1" d="M97.56,3.92a4.17,4.17,0,0,0-.37.56l-.08.15-.06.13a.83.83,0,0,1-.07.13,1.17,1.17,0,0,1-.5.43,1.11,1.11,0,0,0,.59-.48l.17-.28a2.71,2.71,0,0,1,.24-.35,3.05,3.05,0,0,1,.6-.59c0-.06.17-.18.15-.2s-.06,0-.17.08A2.63,2.63,0,0,0,97.56,3.92Z"/><path class="cls-1" d="M101.11,2.82l-.14,0C101.06,2.85,101.13,2.85,101.11,2.82Z"/><path class="cls-1" d="M89.44,4h.13l0,0Z"/><path class="cls-1" d="M98.26,3.54a3.3,3.3,0,0,1,1-.41l.37-.07L99.91,3l-.36,0-.24,0-.26.06a3.14,3.14,0,0,0-1,.48C98,3.69,98,3.7,98.26,3.54Z"/><path class="cls-1" d="M95.19,4.89a1,1,0,0,0,.44.4A3.17,3.17,0,0,1,95.19,4.89Z"/><path class="cls-1" d="M100.75,2.83l.09,0C100.63,2.8,100.66,2.81,100.75,2.83Z"/><path class="cls-1" d="M100.75,2.83c-.33,0-.58.11-.84.17L101,2.85Z"/><path class="cls-1" d="M87.17,5.22a9.47,9.47,0,0,1,3.23-.44c1.42-.25.44-.61-.83-.74,0,.07,0,.12-1.49.35.52,0,3.27-.15,2,.1a10,10,0,0,1-2.55.13c.82.09-2.45.5-2,.71l1.69-.26S86.7,5.23,87.17,5.22Z"/><path class="cls-1" d="M92.38,3.78a3,3,0,0,1,.84,0,3.23,3.23,0,0,0-.68-.08H92l-1.14,0c-1,.17-1.2.24-1.26.3l1.49-.14.74-.07.37,0h.47A1.36,1.36,0,0,0,92.38,3.78Z"/><path class="cls-1" d="M95.55,5.36a1,1,0,0,1-.64-.24L94.75,5l-.11-.05s0,0,0,.08l.12.23a1.45,1.45,0,0,0,.61.43,1.08,1.08,0,0,0,.36,0,2.94,2.94,0,0,0,.63-.14,1.23,1.23,0,0,1-.55,0,.78.78,0,0,1-.22,0c-.06,0,0,0,.14,0a.41.41,0,0,0,.23,0s-.1,0-.4-.15a1.3,1.3,0,0,0,.92-.06,1.13,1.13,0,0,1-.85,0l0,0h0c.06,0,.09,0,0,0h0a.14.14,0,0,1-.09,0c-.44-.26-.06-.05.09,0h0a1.08,1.08,0,0,1-.38-.17L95.13,5a.59.59,0,0,1-.08-.08l-.15-.18a3.2,3.2,0,0,0-1.68-.94,3.2,3.2,0,0,1,1.3.66,3.13,3.13,0,0,1,.33.31L95,5a.44.44,0,0,0,.08.1A1.27,1.27,0,0,0,95.55,5.36Z"/><path class="cls-1" d="M108.71,2.88c-.09,0-.09,0-.1,0C108.43,2.89,108.36,2.91,108.71,2.88Z"/><path class="cls-1" d="M107.52,2.91a5.17,5.17,0,0,1,1-.17c.59,0,0,.07,0,.12.41-.08,1.42-.25.13-.2l-.2,0a14.49,14.49,0,0,1-2.46,0A5.92,5.92,0,0,0,107.52,2.91Z"/><path class="cls-1" d="M100.81,3.29l-1.19.15A2.56,2.56,0,0,0,98.33,4a2.4,2.4,0,0,1,1.33-.35l-.07-.07C101,3.43,100.64,3.36,100.81,3.29Z"/><polygon class="cls-1" points="89.16 3.98 89.46 3.79 88.11 4.16 89.16 3.98"/><polygon class="cls-1" points="86.06 4.31 86.17 4.16 85.36 4.33 86.06 4.31"/><path class="cls-1" d="M30.94,66.52l.7-.11Z"/><path class="cls-1" d="M25.86,67l-.11.08C26,67,26.07,67,25.86,67Z"/><path class="cls-1" d="M9.91,12c-1,0-2.19-.11-2.06,0l.33.12A14.43,14.43,0,0,1,9.91,12Z"/><path class="cls-1" d="M5.83,50.53l.24-.18a2.71,2.71,0,0,0,.27-.66A2.78,2.78,0,0,1,5.83,50.53Z"/><path class="cls-1" d="M5.55,51.51a1.43,1.43,0,0,0-.69.64A1.6,1.6,0,0,1,5.55,51.51Z"/><path class="cls-1" d="M58.65,63.59l.8-.24C58.17,63.48,58.74,63.5,58.65,63.59Z"/><path class="cls-1" d="M54.31,7.55c-.89,0-1.59.07-2.21.13A8.62,8.62,0,0,0,54.31,7.55Z"/><path class="cls-1" d="M29.1,68.32c.43-.07.61-.12.59-.15C29.25,68.24,29,68.29,29.1,68.32Z"/><path class="cls-1" d="M49.56,7.93H50c.64-.09,1.29-.18,2.07-.24A12.56,12.56,0,0,0,49.56,7.93Z"/><path class="cls-1" d="M138.2,40.74v-.22S138.19,40.6,138.2,40.74Z"/><path class="cls-1" d="M137.28,16.15l.06.54,0,.33c0,.05,0,.12,0,.19a1.61,1.61,0,0,1,0,.22A8.34,8.34,0,0,0,137.28,16.15Z"/><path class="cls-1" d="M73.58,5.5c.66-.08.1,0,0,0Z"/><path class="cls-1" d="M76.84,5.77c-.14,0-.24.06-.26.1A.74.74,0,0,1,76.84,5.77Z"/><path class="cls-1" d="M43.1,9.52H43C43.24,9.54,43.21,9.53,43.1,9.52Z"/><path class="cls-1" d="M74.58,5.46l-.85,0Z"/><path class="cls-1" d="M74.44,5.41l.57,0C75.09,5.33,75,5.32,74.44,5.41Z"/><path class="cls-1" d="M72.67,5.6l1.06-.1h-.15Z"/><path class="cls-1" d="M104.23,59.29l.1.06c.25.07.33.06.29,0A1.87,1.87,0,0,1,104.23,59.29Z"/><path class="cls-1" d="M4.2,20.27l-.06-.07a.53.53,0,0,1,.06.1Z"/><path class="cls-1" d="M4.91,23.07a5.2,5.2,0,0,0-.19-1.55A4.49,4.49,0,0,0,4.2,20.3a3.39,3.39,0,0,1,0,1A3.47,3.47,0,0,1,4.91,23.07Z"/><path class="cls-1" d="M43.09,65.26l-1.67,0c2-.42,3.43-.49,1.86-.52-.19.49-6.44.69-6.63,1.19h-1.1c.31,0,.36-.06.67-.09-2.15,0-1.55.5-4.29.71-1,.06-1.63,0-1-.07l-2.12.33c-.62.05-.47,0,.14-.09l-3.24.36,0,0c-.46.12-1.5.34-2,.44-.84,0,.4-.09.19-.13l-1.79.3c-.74,0,.73-.32,2-.43-1.73-.3-1.48.27-5.13.36l1.69-.23a36.46,36.46,0,0,0-4.37.1c.46,0,3.88,0,1.94.34a14.79,14.79,0,0,0-2.32.28c0-.17-1,0-2.33.11l.06-.23a14.21,14.21,0,0,0-2.07.49,5.21,5.21,0,0,1-2.27-.11c-2.48.21,1.75.1-1.19.44H7.83a1.6,1.6,0,0,1-.23,0,1.32,1.32,0,0,1-.41-.14,1.55,1.55,0,0,1-.6-.59,1.9,1.9,0,0,1-.15-.42c0-.24-.07-.48-.11-.73s-.08-.52-.12-.8l0-.21a1.15,1.15,0,0,1,0-.16,1.71,1.71,0,0,1,0-.32.68.68,0,0,1,.18-.35s0,0,0,.08,0,.3,0,.16a1.24,1.24,0,0,1,.32-.74c.17-.11.14,0,.13,0L7,64.5l.13-.11.16-.16A.8.8,0,0,0,7.4,64a1.44,1.44,0,0,1,.19-.29,6,6,0,0,0,.54-.83,6.92,6.92,0,0,1,.26-.85,3.82,3.82,0,0,0,.11-1.63,3.32,3.32,0,0,0-.92-1.81A3,3,0,0,0,6.73,58a2.72,2.72,0,0,0-.47-.19l-.12,0-.07,0a.58.58,0,0,1-.14,0c-.15-.12-.09-.12,0-.12s.18,0,.16-.06a1.31,1.31,0,0,1-.76-.69,1.62,1.62,0,0,1-.12-.35l-.08-.43c-.09-.55-.19-1-.43-2.2,0-.33,0-.7,0-1a1.7,1.7,0,0,1,.2-.74c-.14.24-.19.37-.24.37s-.07-.14,0-.35a1.66,1.66,0,0,1,.36-.81A2.39,2.39,0,0,1,5.36,51a2.43,2.43,0,0,0,.47-.44,3.18,3.18,0,0,1-.64.35,1.85,1.85,0,0,0-.51.29,1.48,1.48,0,0,1,.26-.24l.28-.2a3,3,0,0,0,.47-.4,2.86,2.86,0,0,0,.61-1c.13-.27.15,0,0,.41a1.9,1.9,0,0,0,.14-.45c.17-.43.21-.54.27-.44a1.61,1.61,0,0,1,0,.77,3,3,0,0,1-.64.78,5,5,0,0,1-.55.75c-.19.2-.2.29-.13.32l.31-.24a2.93,2.93,0,0,0,.43-.38C6,51,5.94,51.06,6,51a2,2,0,0,0,.56-.74,3.36,3.36,0,0,0,.56-.51l0-.2a3.69,3.69,0,0,0-.74-4,3.55,3.55,0,0,0-1-.59,3.62,3.62,0,0,0-.53-.17l-.1,0-.08,0-.16,0a1.63,1.63,0,0,1-1-1.11c-.13-.64-.27-1.37-.4-2.15-.06-.39-.12-.8-.19-1.24a2.18,2.18,0,0,1,.11-1.35,1,1,0,0,0,0,.44c0,.07.07.08.11.06s.21-.16.31-.1a1.07,1.07,0,0,0-.15.74c0,.37.09.77.16,1.21s.14.91.21,1.39l.1.74c0,.14,0,.22,0,.32a2,2,0,0,0,.08.26.89.89,0,0,1-.07-.41.61.61,0,0,1,0-.19s0,0,0,0,0,.11.06.15L3.43,40c.09,0,.1-.12.15-.34A1.31,1.31,0,0,1,4,38.92c-.14,0-.17,0-.07-.2a.77.77,0,0,1,.24-.24l.12-.09.15-.11A2.42,2.42,0,0,0,4.71,38a3.55,3.55,0,0,0,1-1.46A3.28,3.28,0,0,0,5.85,35c.05-.06.13,0,.18.37a2.7,2.7,0,0,1,0,.77,3.29,3.29,0,0,1-.52,1.22A2.66,2.66,0,0,0,6.08,36,3,3,0,0,0,6,34.74a4.55,4.55,0,0,0-.51-1,5.52,5.52,0,0,0-.9-1.1c.4.31.55.55.72.67a5,5,0,0,0-.84-.76,3.39,3.39,0,0,0-.56-.32c-.19-.09-.41-.16-.51-.21a1.14,1.14,0,0,1-.47-.39c-.07-.11-.07-.15,0-.08a1.64,1.64,0,0,0,.24.21A1.62,1.62,0,0,1,2.61,31a1.4,1.4,0,0,1-.06-.24,1.7,1.7,0,0,1,0-.28l-.08-.72c-.1-1-.21-2-.31-2.91a1.66,1.66,0,0,1,.29-1,2,2,0,0,1,.31-.34,5.11,5.11,0,0,0,.44-.32A2.05,2.05,0,0,0,4,24.1s0,.13,0,.3a1.21,1.21,0,0,1-.09.46A3.43,3.43,0,0,0,4.32,22,2.94,2.94,0,0,0,2.6,20.1c.25,0,.12-.33.13-.55s.08-.2.3-.15a2.16,2.16,0,0,1,1.11.8,3.55,3.55,0,0,0-1.09-1.05,4.11,4.11,0,0,0-.42-.21l-.24-.1-.18-.06a1.28,1.28,0,0,1-.54-.34,5.21,5.21,0,0,1,.24.47c.06.13,0,.23-.21.09a1.7,1.7,0,0,1-.42-.7,2.32,2.32,0,0,1-.1-.45,1.62,1.62,0,0,1,0-.23V16c0,.36-.11.35-.24.11a1.23,1.23,0,0,1-.09-.22,1.06,1.06,0,0,1,0-.91c0,.16.37.08.33.37a1.56,1.56,0,0,1,.39-.95,1.76,1.76,0,0,1,1-.58c-.34.08-.31.16-.2.23a.85.85,0,0,0,.3.1,2.89,2.89,0,0,0,.45.06c-.3,0,2.42-.23,3.16-.35l-1.19,0c3.16-.25,3.06-.86,6.19-1.15-.37.12-.88.59.72.48a28.74,28.74,0,0,1,5.89-1.72l.54.07,2.12-.35c-1.3.43-4.95,1.44-7,1.89A10.65,10.65,0,0,0,15.72,13c.63.05-1,.26-1.47.32L18.37,13c-.2-.22,3.13-.55,3-.73L16.87,13c-.2-.22,2.53-.92,5.45-1.17.75,0-.51.47-.45.54a23,23,0,0,1,3-.4l-1.22.25c1.63-.08,2.62-.58,4.59-.55a13.06,13.06,0,0,0,2.15-.05c-1.13-.16-1.42-1-.71-1.23.24,0,3.56-.1,4.35,0,1.13.1-1.62.67-.66.75a3.56,3.56,0,0,1,.9-.26c.71,0-.28.23,1.26,0,.23-.27,3.13-.3.71-.28,1.49-.21,1.6-.11,3.37-.29-.58-.1,1.53-.68,3-.9-.08.07.26.11.43.13,3.09-.29,4.75-.34,7.63-.63.27,0,1.67,0,1.09.12a12.77,12.77,0,0,1,1.66-.29c1.74,0-2,.23-.64.34a28.29,28.29,0,0,1,3.53-.63,20.24,20.24,0,0,0-4.18.46c0-.29,2.14-.82,5.13-1.25,2.38-.31,1.06.08,1.47,0,4.49-.4,3.77-.89,7.52-1,1.49,0,.1.36.44.46-1.94.27-3,.18-4.32.32l1.64-.07a19.38,19.38,0,0,1-2.62.31c1.25,0,7.58-.72,11.06-.91.61-.13,1.66-.3,1.15-.32l-1.09.13c-1,0,2-.41.65-.34a40.44,40.44,0,0,1,5.17-.71l.41.17a8.53,8.53,0,0,0-1.94.14c.85-.18,3.2,0,4.11-.41H79.51a47.44,47.44,0,0,1,5.11-.78c-.86-.12-.43.07-1.75,0,1.16.2-4.69.46-2.85.6-1.36-.15-2.32.11-4.1,0,.07.07.64.07-.91.19a2.71,2.71,0,0,1-.33.1h0c-.06,0-.07,0,0,0a6.68,6.68,0,0,1,.79,0c-.75.24-3.2.48-4,.65S71.85,6,71.34,6l-1.22.25c-.14-.14-2.45,0-.31-.32l-1.94.19a27.48,27.48,0,0,0-3.68.31c-.92,0-2.29.4-1.51.2l-3,.4,0,0c-3,.28-6.14.88-9.59.94-1,.14-2,.29-3.74.42L46,8.23c-1.29.18-3.9.26-4.45.46-1.43-.23-6.29.55-8.57.71l-.07.18c-1.57.15-3.07.35-5,.62l.14.14c-1.67.29-4.33.32-7,.6a5.69,5.69,0,0,1,1.33-.14c-3.21,0-6.67.93-9.57,1a10.13,10.13,0,0,1-1.74.17l.18,0-.3,0-1,0c.31,0,.6,0,.85,0-.56.06-1.39.16-2.21.28l-.37-.13-.19,0c-.81,0-.64.15-.19.23-.41.07-.79.14-1.08.21-.68-.21-2.15.3-3.07.11a7.14,7.14,0,0,1-.88.17c-.21,0-.41.05-.76.12a2.77,2.77,0,0,0-.89.41,2.58,2.58,0,0,0-1,1.44,1.45,1.45,0,0,0,0,1s0,.33-.06-.21c0,.14,0,.29,0,.41l0,.34c0,.23,0,.46.05.68s.05.44.08.66a2.29,2.29,0,0,0,.21.72,2.37,2.37,0,0,0,0,.53,2.61,2.61,0,0,0,1,.79l.3.11.27.07a2.09,2.09,0,0,1,.43.11,1.78,1.78,0,0,1,.67.77c0,.13-.11,0-.51-.23a2.3,2.3,0,0,1,.84,1,2.39,2.39,0,0,1,.21.75,3,3,0,0,1,0,.72,2.85,2.85,0,0,1-.43,1.12l0-.17a2.92,2.92,0,0,1-.42.46,2,2,0,0,1-.27.22l-.18.13a1,1,0,0,0-.19.16,3.63,3.63,0,0,0-.83,1.29,2.22,2.22,0,0,0-.12.52,3.42,3.42,0,0,0,0,.64c0,.41,0,.9.1,1.45s.1,1.15.16,1.8c0,.07,0,.18,0,.28s0,.2.07.3a2.75,2.75,0,0,0,.25.59,2.61,2.61,0,0,0,.91,1,1.82,1.82,0,0,0,.31.16l.29.12a2,2,0,0,1,.4.18,2.73,2.73,0,0,1,.69.58,2.44,2.44,0,0,1,.53,1.68A2.36,2.36,0,0,1,4.14,37l-.32.26c-.13.09-.2.11-.43.25a2.84,2.84,0,0,0-.9,1c.25-.24.27-.18.16,0a3.18,3.18,0,0,0-.37,1.05,2.19,2.19,0,0,0,0,.36v.33c0,.19,0,.38,0,.54,0,.33.08.57.16.62-.07.3,0,1-.21.2.08.65.14,1.22.19,1.73l0,.39a3.41,3.41,0,0,0,.09.48,3.28,3.28,0,0,0,.38.85A2.69,2.69,0,0,0,4.3,46.15l.16.05.11,0,.22.08a3.11,3.11,0,0,1,.45.22c.06.11,0,.07-.15,0s-.2-.08-.14,0,.51.34.56.54-.2-.19-.45-.33a2.58,2.58,0,0,1,.64.85,5.32,5.32,0,0,1,.25.62,1.07,1.07,0,0,0,.36.53A3.37,3.37,0,0,1,5.64,50c-.12.15-.25.28-.38.42L5,50.59a3.84,3.84,0,0,0-.3.28,4.79,4.79,0,0,0-.58.44s0-.05.08-.2a2.65,2.65,0,0,1,.26-.31l.23-.19L5,50.44l-.2.12a1.85,1.85,0,0,0-.3.23,2.45,2.45,0,0,0-.61.77,2.9,2.9,0,0,0-.3,1.13c0,.1,0,.21,0,.31s0,.17,0,.26,0,.33.05.5a10.6,10.6,0,0,0,.39,2.55,1.36,1.36,0,0,0,0,.34,2.37,2.37,0,0,0,.12.55,2.06,2.06,0,0,0,.47.78,2.43,2.43,0,0,0,.63.58l.32.17.28.1a3,3,0,0,1,.67.37,2.79,2.79,0,0,1,.53.55,2.4,2.4,0,0,1,.44,1,2.77,2.77,0,0,0-.11-.48,1.51,1.51,0,0,1,.34,1.15A3.07,3.07,0,0,1,7.08,63v0a2.85,2.85,0,0,1-.81.61,2.41,2.41,0,0,0-.7.58,2.21,2.21,0,0,0-.41.86,3,3,0,0,0-.09.92c0,.41.06.94.1,1.91a1.54,1.54,0,0,1,.14-.23c.11.06.14.35.28.72a2.53,2.53,0,0,0,.86,1.21A2.6,2.6,0,0,0,7.3,70a2.74,2.74,0,0,0,.5.08h.48A15.47,15.47,0,0,0,10,69.85l-.79,0c1.17-.24,3.35.16,4.54.09.26,0-.4.09-.76.15,3.12-.1.38-.26,2.69-.54.43.07-.52.35,1,.22.78,0,4.47-.84,6.62-.82-.48-.05-.95-.09.12-.27,1.64-.19,4.48-.1,5.94-.54.21,0,.29,0,.3,0,1.25-.2,4.08-.54,4.82-.77,1.22.46,7.8-1.06,7.83-.53l3.86-.41-.09.06a21.86,21.86,0,0,0,4.2-.64c.57,0,.16.07.11.1a41.67,41.67,0,0,0,7-.88l.34.14c.81-.18,5.25-.25,8.78-.81a.88.88,0,0,1-.38.12c4-.6,9.6-.48,11-1.25l2.62-.42c-3.41.29.48-.32-.93-.28,1.34-.17,3.48-.16,1.84,0h-.26c-.57.39,4.24-.31,4.17-.08,3.36-.34,6.67-.63,9.93-.91l2.43-.21,1.23-.11a2.76,2.76,0,0,0,1.46-.63,3.17,3.17,0,0,0,.53-.57c.15-.19.29-.48.34-.54a1.26,1.26,0,0,1,.58-.49,1.3,1.3,0,0,1,1.41.24,1.15,1.15,0,0,0-.29-.48,1.56,1.56,0,0,1,.66.52,3,3,0,0,0,1,.82c.31.18.55.27.44.29a1.45,1.45,0,0,1-.43-.09,2.77,2.77,0,0,1-.93-.61,2.17,2.17,0,0,0,.78.6,2.51,2.51,0,0,0,1.14.23,3,3,0,0,0,.8-.15,1.1,1.1,0,0,0,.31-.1c3.07-.2-1.16.42-.22.33l1.27-.15h-.29a16.05,16.05,0,0,1,3-.5c1.2-.07.63.09,1.1.06a2.48,2.48,0,0,0,.71-.07l2.77-.25-1.13-.09c1.22-.22,2.6-.25,1.3-.35,1.91.16,10.31-.9,11.47-.91,1.69-.32,3.39-.48,5.48-.68-.52,0-.86-.18.95-.33-.61.53,3.33-.13,4.82.06-.33,0-.17-.07.21-.13l.72-.1.44,0a2.7,2.7,0,0,0,.56-.14,2.56,2.56,0,0,0,1.41-1.16c.08-.17.1-.26.07-.25a3.82,3.82,0,0,0-.34.35,4.19,4.19,0,0,0,.42-.67c.06-.1.08-.1.1-.08s0,.06.09,0a1.42,1.42,0,0,0,.2-.57,3.39,3.39,0,0,0,0-.45c0-.15,0-.23,0-.36l-.09-.69-.08-.71a3.22,3.22,0,0,0-.22-.89,2.74,2.74,0,0,0-1.3-1.39c-.36-.16-.49-.19-.68-.3a2.54,2.54,0,0,1-.5-.36,2.38,2.38,0,0,1-.65-2.28,2.3,2.3,0,0,1,.6-1.09,2.34,2.34,0,0,1,.49-.39l.21-.13a2,2,0,0,0,.23-.18,2.16,2.16,0,0,0,.39-.41c0-.05-.17.1-.25.12s-.06,0,0-.07.14-.22.27-.48a2.66,2.66,0,0,0,.51-1.38c0-.27,0-.44,0-.64V42a6.79,6.79,0,0,1-.38-2.39c0,.23-.07.58-.15,0a3,3,0,0,0,0-.47,3,3,0,0,0-.15-.48,2.59,2.59,0,0,0-.55-.85,2.46,2.46,0,0,0-.87-.58l-.2-.08-.15-.07a1.73,1.73,0,0,1-.3-.16,2.47,2.47,0,0,1-.89-1,2.53,2.53,0,0,1-.26-1.3,2.46,2.46,0,0,1,.45-1.25,2.67,2.67,0,0,1,.46-.49,2.83,2.83,0,0,1,.28-.2l.2-.12.22-.16a2.68,2.68,0,0,0,.93-1.86,2.26,2.26,0,0,0,0-.52l0-.41-.09-.84-.18-1.67,0-.42,0-.21a2.34,2.34,0,0,0,0-.26,2.88,2.88,0,0,0-.4-1,2.49,2.49,0,0,0-.74-.74,2.19,2.19,0,0,0-.48-.25l-.2-.07-.16-.07a2.45,2.45,0,0,1-1-.88,2.4,2.4,0,0,1-.06-2.55,2.34,2.34,0,0,1,.95-.87,2.86,2.86,0,0,0,1.41-1.71,2.14,2.14,0,0,1-.35.67c-.07.09-.06.06,0,0a3.09,3.09,0,0,0,.32-1.33c-.08.77-.14,0-.23.12a2.53,2.53,0,0,0,0-.28V17l0-.46,0-.93L137,13.76a8,8,0,0,0-.34-1,2.85,2.85,0,0,0-1.17-1.25l-.42-.18-.26-.1a3.14,3.14,0,0,1-.45-.25,3.75,3.75,0,0,0-.53-.36,2.59,2.59,0,0,0,.8.6c-.32-.11-.4-.1-.35,0a1.74,1.74,0,0,0,.57.54,1.76,1.76,0,0,1,.74.71c.12.26.12.44,0,.44a1.25,1.25,0,0,1,.28.51,1.39,1.39,0,0,1,.06.33l0,.41c0,.55.05,1.17.07,1.82q0,.48,0,1l0,.26a1.15,1.15,0,0,1,0,.19,1.58,1.58,0,0,1,0,.38,2.07,2.07,0,0,1-.34.68,1.48,1.48,0,0,1-.28.28l-.11.08-.12.1a2.29,2.29,0,0,0-.23.21c-.3.21-.2.09-.06-.06s.33-.32.14-.23a5.25,5.25,0,0,0-.94,1.19,3.88,3.88,0,0,0-.52,2.18l0-.21a3.71,3.71,0,0,0,.56,1.79,3.75,3.75,0,0,0,1.2,1.18,3.9,3.9,0,0,0,.72.33,1.41,1.41,0,0,1,.4.22,1.54,1.54,0,0,1,.5.75,1.89,1.89,0,0,1,0,.23s0,.08,0,.11v.16l.05.66c0,.44.06.9.1,1.39l.05.76,0,.39,0,.2v.15a1.39,1.39,0,0,1-.46,1,1.82,1.82,0,0,0,.29-.08,1.22,1.22,0,0,1-.36.31l-.2.11a1.16,1.16,0,0,0-.22.13,3.52,3.52,0,0,0-.69.53c-.2.34-.14.32,0,.13a4.35,4.35,0,0,1,.92-.75c.12-.08.16-.09.22-.14a.88.88,0,0,0,.15-.12,2.47,2.47,0,0,0,.23-.23c.1-.13.16-.16.1.07a2.49,2.49,0,0,1-.47.34,3.4,3.4,0,0,0-.46.27,2.38,2.38,0,0,0-.53.44,3.39,3.39,0,0,0-.81,1.32,3.45,3.45,0,0,0-.15,1.66,3.73,3.73,0,0,0,.58,1.54,4.06,4.06,0,0,0,1.06,1,4,4,0,0,0,.56.32l.26.11.12.07a.65.65,0,0,1,.25.3c.18.17.24.28.28.3s0,0,0-.07,0-.1,0-.07.14.12.23.41a2.45,2.45,0,0,1-.05.35l.18.41a3.78,3.78,0,0,1-.07,1.73c0-.27-.1-.76-.14-1,0,.37,0,.8.08,1.26l.14,1.29a1.31,1.31,0,0,1-.16.69.87.87,0,0,1-.27.31,1.26,1.26,0,0,0,.51-.81,1.26,1.26,0,0,1-.53.93l-.18.11a1.88,1.88,0,0,0-.23.16,3.19,3.19,0,0,0-.44.37,3.84,3.84,0,0,0-.7.94A3.78,3.78,0,0,0,137,50.4a3.63,3.63,0,0,0,1,.71,2.61,2.61,0,0,0,.54.24l.18.07a.38.38,0,0,1,.13.06,1.42,1.42,0,0,1,.67,1c.07.59.15,1.18.22,1.76a1.16,1.16,0,0,1,0,.17.76.76,0,0,1,0,.15,1.53,1.53,0,0,1,0,.3,1.8,1.8,0,0,1-.24.55,1.56,1.56,0,0,0,.2-.16,1.57,1.57,0,0,1-1.13.85l-.13,0h-.17l-.3,0-.55,0c-.73,0-1.5.08-3.36.3l.13,0a26.38,26.38,0,0,1-2.76.38c.93-.18-1.79,0-.57-.22a23.3,23.3,0,0,0-4.22.83l-.58-.07a14.63,14.63,0,0,1-2.74.49c1.52-.26-1.21-.08.49-.39-4,.11-5.79.86-7.63.63-1.77.54,3.41-.14,2.41,0,.85,0-1.46.41-2.69.5a46,46,0,0,0-5.33.08c.32,0,.34-.06.65-.09-1.19,0-2.3.35-3.76.35-.79.3-1.88.17-2.08.47l2.88-.35c-.82.12-1.6.3-2.52.46l-.35.06-.34,0a1.8,1.8,0,0,1-.68-.09,1.86,1.86,0,0,1-.66-.41,2.92,2.92,0,0,1-.28-.32,2.16,2.16,0,0,0-.39-.41,1.85,1.85,0,0,1,.26.16c.1.08.23.22.31.29a2.24,2.24,0,0,0,.64.41c-.13-.09-.25-.19-.37-.29l-.17-.16-.19-.21a3,3,0,0,0-1.21-.78,1.16,1.16,0,0,1,.83.24,2.58,2.58,0,0,1,.61.55,2,2,0,0,0,.42.38,1.48,1.48,0,0,0,.53.23,1.43,1.43,0,0,0,.29,0h.14l.21,0c.55-.07,1.08-.15,1.52-.24a6,6,0,0,0-.87.06l-1,.14a.93.93,0,0,1-.43-.06c-.07,0,0-.06.1-.1a.84.84,0,0,1-.68-.19,1.1,1.1,0,0,1-.16-.15l-.19-.22a3,3,0,0,0-.65-.56,2.7,2.7,0,0,0-1.83-.37,2.44,2.44,0,0,0-1.67,1.11,2,2,0,0,1,0-.25,2.48,2.48,0,0,0-.24.36l-.12.24a1.66,1.66,0,0,0-.06.16,1.4,1.4,0,0,1-.42.52A1.74,1.74,0,0,0,99,59a1.2,1.2,0,0,1-.5.64,1.22,1.22,0,0,1-.34.14l-.18,0h-.3A20.37,20.37,0,0,0,95.2,60c3.47-.35.8.12,2.28.1-4.26.65-2.51-.19-7.29.37.65-.09,2.45-.14,1.44,0s-2.12.12-2.69.09c-3.17.35.5.12-.84.36a11,11,0,0,0-2.93.44l0-.17c-3.62.25-.92.44-4.19.64l1.35-.37-1.69.23.33-.22a32.24,32.24,0,0,1-4.22.47c.43.08-.21.33-1.81.49-1.1,0,.6-.22-1.67,0a5.25,5.25,0,0,1,2.06-.29c.09-.06.49-.15.59-.21-1.19,0-3,.27-3.78.35a8,8,0,0,1,.89,0l-3.26.56c-.53,0-.12-.1.28-.19-.67.08-1.12.21-2.1.32.24-.16.17-.3,1.55-.5l-3.12.46c-.22,0-1.63,0-1.22-.09-1.75.1-4.24.69-6.56.82a5.8,5.8,0,0,1-.84.15c-2.17.19-4.1.21-6.65.66l-1.48-.1c-2,.26,2,.11-1.34.54-2.36.31-.9-.12-1.74-.11a27.36,27.36,0,0,1-5.39.72C41.85,65.37,42.42,65.35,43.09,65.26ZM18.31,67.85a8.08,8.08,0,0,1,1.79-.22A4.42,4.42,0,0,1,18.31,67.85ZM6.85,47a2.43,2.43,0,0,1,.2,1.68A4.26,4.26,0,0,0,6.85,47ZM66.39,6.35l0,0C65.26,6.41,65.64,6.4,66.39,6.35Zm2.23-.15c.22,0,.2-.06.11-.08a7.51,7.51,0,0,1-1.22.16A3.54,3.54,0,0,0,68.62,6.2ZM111.08,60h-.44C111.61,59.87,111.34,59.94,111.08,60Z"/><path class="cls-1" d="M5.62,51.39c-.17.07-.19,0-.23,0s-.07.09,0,.09l.07,0,.06,0Z"/><path class="cls-1" d="M58.5,63.63h.07l.08,0Z"/><path class="cls-1" d="M34.3,11.07a6.36,6.36,0,0,1-.9,0S33.59,11.13,34.3,11.07Z"/><path class="cls-1" d="M80.38,4.74,79,4.92a12.89,12.89,0,0,1,1.29-.07S79.94,4.79,80.38,4.74Z"/><path class="cls-1" d="M92.85,4.58a2.23,2.23,0,0,1,.63.15l0-.09a1.77,1.77,0,0,0-1-.13c-.08,0-.09,0,0,0S92.63,4.55,92.85,4.58Z"/><path class="cls-1" d="M81.76,5.16a6.29,6.29,0,0,0,2-.13l-.18,0C83.87,4.82,82.81,5,81.76,5.16Z"/><path class="cls-1" d="M84,5l.92-.1C85,4.81,84.55,4.93,84,5Z"/><path class="cls-1" d="M71.43,5.83c.48,0,.28-.21.55-.18C72.5,5.42,68.85,6.18,71.43,5.83Z"/><polygon class="cls-1" points="82.61 5.54 82.24 5.41 81.69 5.6 82.61 5.54"/><path class="cls-1" d="M74.72,6.21l1.6-.12s.17-.06.42-.1A16.14,16.14,0,0,0,74.72,6.21Z"/><path class="cls-1" d="M76.74,6c.51,0,1-.1,1.28-.15C77.74,5.86,77.15,5.93,76.74,6Z"/><polygon class="cls-1" points="80.44 5.82 79.96 5.83 78.83 5.93 80.44 5.82"/><path class="cls-1" d="M57.56,7.89l-1.73.22c-.17.08.3.07,1,0C57.19,8,57.84,7.92,57.56,7.89Z"/><path class="cls-1" d="M62.88,7.84a3.51,3.51,0,0,1-.78-.06l0,.22Z"/><path class="cls-1" d="M57.8,8.4c-.16.07-2.51.42-.3.19C57.67,8.51,59.41,8.28,57.8,8.4Z"/><polygon class="cls-1" points="31.54 10.75 31.99 10.7 31.89 10.35 31.54 10.75"/><path class="cls-1" d="M8.51,13.91c2.07-.13.47-.27,2.34-.35.48-.13-1.53.06-1-.06C8.57,13.72,7.91,13.73,8.51,13.91Z"/><path class="cls-1" d="M9.81,13.5l.63-.11C10.08,13.44,9.91,13.48,9.81,13.5Z"/><path class="cls-1" d="M135.42,11.07l-.21-.09-.11-.05-.21-.11a2.63,2.63,0,0,1-.37-.29A2.32,2.32,0,0,0,135,11Z"/><path class="cls-1" d="M133.7,10a1.63,1.63,0,0,1,.11-.31,2,2,0,0,1-.34-.55A5.61,5.61,0,0,0,133.7,10Z"/><path class="cls-1" d="M14.58,67.77l-.09.06a5.33,5.33,0,0,0,1.14,0Z"/><polygon class="cls-1" points="32.59 66.14 32.28 66.16 32.88 66.31 32.59 66.14"/><path class="cls-1" d="M47.67,64.36c-.62.06-1.34.18-2,.23C47.05,64.42,47.86,64.6,47.67,64.36Z"/><path class="cls-2" d="M101.41,58.6a.35.35,0,0,1-.35-.31l-.21-2.12a.35.35,0,0,1,.69-.07l.21,2.12a.35.35,0,0,1-.31.38Zm-.63-6.28a.35.35,0,0,1-.35-.31L100,47.85a.35.35,0,0,1,.69-.07l.42,4.16a.35.35,0,0,1-.32.38ZM100,44a.36.36,0,0,1-.35-.31l-.41-4.16a.34.34,0,0,1,.31-.38.35.35,0,0,1,.38.31l.41,4.16A.35.35,0,0,1,100,44Zm-.83-8.32a.35.35,0,0,1-.35-.31l-.42-4.16a.35.35,0,0,1,.7-.07l.41,4.16a.35.35,0,0,1-.31.38Zm-.84-8.31a.35.35,0,0,1-.34-.32l-.42-4.16a.35.35,0,1,1,.69-.06L98.63,27a.34.34,0,0,1-.31.38Zm-.83-8.32a.33.33,0,0,1-.34-.31l-.42-4.16a.35.35,0,1,1,.69-.07l.42,4.16a.35.35,0,0,1-.31.38Zm-.83-8.32a.35.35,0,0,1-.35-.31l-.41-4.16a.35.35,0,0,1,.69-.07L97,10.36a.35.35,0,0,1-.32.38Z"/><rect class="cls-2" x="29.89" y="27.53" width="60.95" height="0.35" transform="translate(-2.46 6.15) rotate(-5.72)"/><rect class="cls-2" x="14.22" y="47.09" width="78.53" height="0.35" transform="translate(-4.44 5.56) rotate(-5.72)"/><text class="cls-3" transform="translate(24.22 30.28) rotate(-5.97) scale(0.87 1)">P<tspan class="cls-4" x="6.74" y="0">ARQUE DE</tspan></text><text class="cls-5" transform="translate(12.42 50.37) rotate(-5.97) scale(0.87 1)">RETOS-CURSO 1</text><path class="cls-2" d="M126,24.23a.56.56,0,1,0-.11-1.11.56.56,0,1,0,.11,1.11Z"/><path class="cls-2" d="M119.93,20.88a.56.56,0,1,0,.61.51h0a.56.56,0,0,0-.61-.5Z"/><path class="cls-2" d="M127.26,33.3a.56.56,0,1,0,.5-.61.55.55,0,0,0-.5.61Z"/><path class="cls-2" d="M114.62,15.88a.56.56,0,1,0-.11-1.12.58.58,0,0,0-.5.62h0A.57.57,0,0,0,114.62,15.88Z"/><path class="cls-2" d="M110.43,24.66a.56.56,0,1,0-1.11.11.55.55,0,0,0,.61.5h0A.55.55,0,0,0,110.43,24.66Z"/><path class="cls-2" d="M106.84,31.09a.56.56,0,1,0,.61.5.55.55,0,0,0-.61-.5Z"/><path class="cls-2" d="M107.24,38.11a.55.55,0,0,0,.61.5.55.55,0,0,0,.5-.61.57.57,0,0,0-.61-.5.56.56,0,0,0-.5.61Z"/><path class="cls-2" d="M131,40.48l-6.12.61-.24-2.33.83-.08a.49.49,0,0,0,.44-.54l-.17-1.76a.49.49,0,0,0-.54-.44l-.83.08-.14-1.42.82-.09a.49.49,0,0,0,.45-.54h0l-.29-2.92a.5.5,0,0,0-.55-.44l-3.65.36,1-.81a2.69,2.69,0,0,0,.8-1.11l.61-1.56a3.54,3.54,0,0,0,4.77-1.55,2,2,0,0,0,.1-.21,3.55,3.55,0,0,0,2-4.6,3.41,3.41,0,0,0-.88-1.3,2.83,2.83,0,0,0-.75-3.94,2.92,2.92,0,0,0-1.58-.49,3.56,3.56,0,0,0-3.79-2.65,3.4,3.4,0,0,0-.88.2,3.53,3.53,0,0,0-4-2.14,3.55,3.55,0,0,0-6.17.61,3.54,3.54,0,0,0-3.49,2.89,3.4,3.4,0,0,0-.9,0,3.58,3.58,0,0,0-3.2,3.35,2.84,2.84,0,0,0-2.2,3.35,2.81,2.81,0,0,0,.79,1.45A3.55,3.55,0,0,0,105.55,28a3.54,3.54,0,0,0,4.93.91,1.33,1.33,0,0,0,.19-.14l.91,1.41a2.74,2.74,0,0,0,1,.93l1.11.6-3.65.36a.5.5,0,0,0-.44.55l.29,2.92a.49.49,0,0,0,.54.44l.83-.08.14,1.43-.83.08a.49.49,0,0,0-.44.54l.18,1.76a.49.49,0,0,0,.54.44l.82-.08.24,2.33-6.13.61a.49.49,0,0,0-.44.54.5.5,0,0,0,.54.45l25.25-2.52a.49.49,0,0,0,.44-.54.49.49,0,0,0-.54-.44Zm-7.11.71-1.31.13-.67-1a9.6,9.6,0,0,1-.68-1.21l2.43-.24Zm-7.8-1.58,4.11-.41a10,10,0,0,0,.88,1.65l.39.58-6.19.62.27-.64a11,11,0,0,0,.54-1.8Zm7.3-3.49-3,.29c0-.12,0-.24,0-.37l-.11-1,3-.3Zm-7.23-.72,3.14-.31.1,1c0,.13,0,.25,0,.37l-3.16.32c0-.13,0-.25,0-.37Zm-9.93-8.12a.47.47,0,0,0-.37-.23,2.57,2.57,0,0,1-2.28-2.82,2.61,2.61,0,0,1,.72-1.52.49.49,0,0,0,0-.7l-.07-.06a1.84,1.84,0,0,1,.82-3.38h.13a.5.5,0,0,0,.48-.51v0a2.57,2.57,0,0,1,2.3-2.76,2.43,2.43,0,0,1,1.07.12.5.5,0,0,0,.63-.31.39.39,0,0,0,0-.15,2.57,2.57,0,0,1,2.6-2.52h.25a.48.48,0,0,0,.53-.34,2.56,2.56,0,0,1,4.7-.47.49.49,0,0,0,.58.24,2.55,2.55,0,0,1,3.22,1.65,2.17,2.17,0,0,1,.07.24.49.49,0,0,0,.59.38.35.35,0,0,0,.14-.06,2.54,2.54,0,0,1,1-.33,2.58,2.58,0,0,1,2.8,2.26.52.52,0,0,0,.2.34.54.54,0,0,0,.39.09l.11,0a1.84,1.84,0,0,1,1.48,3.14.49.49,0,0,0,0,.7.19.19,0,0,0,.07.06,2.58,2.58,0,0,1,.68,3.57,2.65,2.65,0,0,1-1.35,1,.48.48,0,0,0-.32.3,2.55,2.55,0,0,1-3.25,1.57,2.76,2.76,0,0,1-.72-.38.51.51,0,0,0-.59,0A2.53,2.53,0,0,1,119.5,26a.5.5,0,0,0-.7,0,.46.46,0,0,0-.07.07,2.54,2.54,0,0,1-3.57.5l-.16-.13a.48.48,0,0,0-.69.05s0,0-.06.07a2.54,2.54,0,0,1-3.28,1,.49.49,0,0,0-.58.13,2.55,2.55,0,0,1-3.6.23,2.38,2.38,0,0,1-.52-.62Zm13.37.08a3.47,3.47,0,0,0,1.15.42l-.15.41s0,0,0,0l-.89.53c0-.51-.06-1-.08-1.4Zm-5.06,1.91-1-.34,0,0-.23-.38a3.45,3.45,0,0,0,1-.64c.06.4.14.88.2,1.39Zm-1.52,1a1.78,1.78,0,0,1-.65-.6l-.56-.87h.47l.39.65a1.08,1.08,0,0,0,.56.45l1.73.6a.49.49,0,0,0,.63-.3.5.5,0,0,0,0-.21c-.07-.79-.19-1.58-.29-2.19a3.5,3.5,0,0,0,3.29-.33c0,.62.07,1.41.14,2.21a.5.5,0,0,0,.55.44.48.48,0,0,0,.2-.07l1.58-.93a1.06,1.06,0,0,0,.45-.55l.26-.72a3.4,3.4,0,0,0,.46-.09l-.38,1a1.79,1.79,0,0,1-.51.71l-2.11,1.74-3.82.38ZM110.64,33l13.67-1.36.19,1.94-13.66,1.36Zm1.61,2.79,3-.29.11,1,0,.38-3,.29Zm-1.08,2.54L124.84,37l.08.77-13.67,1.37Zm1.5,1.63,2.42-.24a10.49,10.49,0,0,1-.42,1.31l-.46,1.13-1.31.13Z"/><path class="cls-2" d="M109.49,21.31a.46.46,0,0,0,.13-.39h0a1.3,1.3,0,0,1,2.53-.54.5.5,0,0,0,.63.31l.08,0A.85.85,0,0,1,114,21a.31.31,0,0,1,.06.13.5.5,0,0,0,.94-.33v0a1.86,1.86,0,0,0-2.16-1.16,2.3,2.3,0,0,0-4.23.93A2,2,0,0,0,107,22.73a.5.5,0,0,0,.54.45.5.5,0,0,0,.44-.55h0a1.06,1.06,0,0,1,1-1.16h.16A.51.51,0,0,0,109.49,21.31Z"/><path class="cls-2" d="M118.76,17.51a.5.5,0,0,0,.67-.21h0a.72.72,0,0,1,1.29,0,.5.5,0,0,0,.66.23.54.54,0,0,0,.18-.15.82.82,0,0,1,1.47.4.49.49,0,0,0,1-.1,1.8,1.8,0,0,0-2-1.62,1.84,1.84,0,0,0-.82.29,1.72,1.72,0,0,0-2.42.1,1.9,1.9,0,0,0-.26.37.5.5,0,0,0,.21.67Z"/></svg>