<svg id="Capa_1" data-name="Capa 1" xmlns="http://www.w3.org/2000/svg" viewBox="0 0 91.19 90.91"><defs><style>.cls-1,.cls-4{fill:#2077b1;}.cls-2{fill:none;}.cls-3{fill:#0063a6;}.cls-4{font-size:11.35px;font-family:VAGRounded-Bold, VAG Rounded;font-weight:700;}.cls-5{letter-spacing:-0.09em;}.cls-6{letter-spacing:0em;}</style></defs><path class="cls-1" d="M16.56,7.61c.1-.21-.18-.19-.21-.23C16.31,7.68,16.61,7.64,16.56,7.61Z"/><path class="cls-1" d="M15.57,15l-.1-.1a1.54,1.54,0,0,1,0,.9A1.6,1.6,0,0,0,15.57,15Z"/><path class="cls-1" d="M13.77,21.71a.73.73,0,0,0-.28-.63,3.7,3.7,0,0,1-.84-.72,2,2,0,0,1-.37-1.15,11.12,11.12,0,0,1,.19-1.27,1.92,1.92,0,0,1,.86-1.14,2,2,0,0,1,.4-.1,2.2,2.2,0,0,1,.25-.17c.07-.05.22-.09.23-.13a1,1,0,0,0,.16-.2l-.15,0-.11,0-.27.06a2.29,2.29,0,0,0-.92.55,2.26,2.26,0,0,0-.54.9,6.92,6.92,0,0,0-.15.85,2.25,2.25,0,0,0,.15,1.56,2.87,2.87,0,0,0,1,1A1.23,1.23,0,0,1,13.77,21.71Z"/><path class="cls-1" d="M12.48,23.09a.07.07,0,0,1,0,.12,1.13,1.13,0,0,0,.31-.2H12.7A.53.53,0,0,1,12.48,23.09Z"/><path class="cls-1" d="M12.7,23c.2-.14-.2,0,0,0Z"/><path class="cls-1" d="M10,28.09a2.84,2.84,0,0,1-.29-2c0,.11-.1.31-.16.54a2.76,2.76,0,0,0,0,.7c.05.44.15.73,0,.4a2.88,2.88,0,0,0,.57,1c.17.18.27.23.29.22S10.16,28.66,10,28.09Z"/><path class="cls-1" d="M11.43,29.21h0a4.09,4.09,0,0,1-.75-.54,1.41,1.41,0,0,0,.74.55Z"/><path class="cls-1" d="M9.85,26.79a2.66,2.66,0,0,0,.81,1.87,1.49,1.49,0,0,0-.54-.78c.09.06.06,0,0-.17A2.41,2.41,0,0,1,9.85,26.79Z"/><path class="cls-1" d="M10.13,25.58a2,2,0,0,1,.15-.42,2.37,2.37,0,0,1,.26-.47,2.33,2.33,0,0,1,.54-.55c.14-.09.18-.09.07,0a3.54,3.54,0,0,0-.57.93,2.56,2.56,0,0,1,1.87-1.5c.18-.06.16-.11.15-.14s0,0-.08,0h-.13a1.79,1.79,0,0,0-.48.1,2.62,2.62,0,0,0-1.09.68,2.87,2.87,0,0,0-.45.65,2.66,2.66,0,0,0-.16.39A1.51,1.51,0,0,0,10.13,25.58Z"/><path class="cls-1" d="M14.29,21.85a2.09,2.09,0,0,0-.23-.72,2,2,0,0,0-.38-.27l-.27-.14a1.86,1.86,0,0,1,.25.17,1.9,1.9,0,0,1,.44.6C14.2,21.71,14.24,21.88,14.29,21.85Z"/><path class="cls-1" d="M9.34,31.15c-.05.1.19,0,.49-.1a1.67,1.67,0,0,1,.76-.07l.24-.06,0,0,.06,0,.13-.1h-.27l-.13,0A5.87,5.87,0,0,0,9.34,31.15Z"/><path class="cls-1" d="M10.59,31a2.69,2.69,0,0,0-1.93,2,2.66,2.66,0,0,1,.79-1.24,2.82,2.82,0,0,1,.75-.5C10.6,31.05,10.68,31,10.59,31Z"/><path class="cls-1" d="M11.84,29l-.15-.09A2.94,2.94,0,0,1,10.63,28a2.3,2.3,0,0,1-.43-1.3A2.26,2.26,0,0,0,10.61,28a2.86,2.86,0,0,0,1.05.87,1.87,1.87,0,0,1,.35.26A1.06,1.06,0,0,0,11.84,29Z"/><path class="cls-1" d="M9.61,37.48a.55.55,0,0,0-.25,0,.53.53,0,0,1,.38.14Z"/><path class="cls-1" d="M9.37,38.13c0-.1-.07-.14-.12-.18a.22.22,0,0,1-.09-.16l0,.06v0l-.43.1a3.54,3.54,0,0,0-.79.36,3.14,3.14,0,0,0-1.07,1.11,2.89,2.89,0,0,0-.41,1.2,3.05,3.05,0,0,1,1.7-2.25A3.29,3.29,0,0,1,9,38.13l.19,0h0Z"/><path class="cls-1" d="M6.44,42.69a6.06,6.06,0,0,1,0-2A4.42,4.42,0,0,0,6.44,42.69Z"/><path class="cls-1" d="M9.06,36.3a1.68,1.68,0,0,0,.55.69l.08.17a.58.58,0,0,0,0-.3l0,0A5.29,5.29,0,0,1,9.06,36.3Z"/><path class="cls-1" d="M9.68,36.8l0,0,0,0a.93.93,0,0,1,.27.37,1.12,1.12,0,0,0-.26-.38Z"/><path class="cls-1" d="M8.93,36.15l.13.15A.27.27,0,0,0,8.93,36.15Z"/><path class="cls-1" d="M11.79,30.81a1.67,1.67,0,0,1-.44.64c-.07.07-.11.13,0,.16s.2.05.47-.07c.11-.19,0-.22,0-.27S11.68,31.12,11.79,30.81Z"/><path class="cls-1" d="M8.76,35.16a4.31,4.31,0,0,1,.19-2c-.06,0-.26.39-.18-.22-.08.4-.09.78-.14,1.15A2.2,2.2,0,0,0,8.76,35.16Z"/><path class="cls-1" d="M9.3,36a2.14,2.14,0,0,1-.54-.81,2.2,2.2,0,0,0,.31.68A1.71,1.71,0,0,0,9.3,36Z"/><path class="cls-1" d="M8.45,38.76a2.91,2.91,0,0,0-1.36,1.53,2.13,2.13,0,0,0-.13.45c0,.13,0,.27-.07.41s-.1.57-.13.86c0-.32.13-.63.2-.95a2.56,2.56,0,0,1,.11-.46A2.06,2.06,0,0,1,7.31,40a2.64,2.64,0,0,1,.86-.9,2.8,2.8,0,0,1,.58-.27l.31-.08.2,0a.31.31,0,0,0,0-.15.08.08,0,0,0-.06,0l-.19,0A2.19,2.19,0,0,0,8.45,38.76Z"/><path class="cls-1" d="M10,38a.43.43,0,0,1,0,.05S10.05,38,10,38Z"/><path class="cls-1" d="M7.69,46.27l.06,0v0Z"/><path class="cls-1" d="M9.33,38.8a.54.54,0,0,0,.49-.35,1,1,0,0,1-.56.31S9.24,38.82,9.33,38.8Z"/><path class="cls-1" d="M8.1,44.76A.35.35,0,0,0,8,44.55,5.47,5.47,0,0,1,7.45,44a3.41,3.41,0,0,0,.54.55C8.05,44.7,8.05,44.76,8.1,44.76Z"/><path class="cls-1" d="M9.9,38.1a0,0,0,0,1,0,0C9.83,38.1,9.85,38.11,9.9,38.1Z"/><path class="cls-1" d="M9.9,38.1a2.21,2.21,0,0,1-.08.35.76.76,0,0,0,.18-.39A.21.21,0,0,1,9.9,38.1Z"/><path class="cls-1" d="M6.85,49.12c-.06,0-.09-.14-.1-.33a1,1,0,0,1,.18-.7,1.11,1.11,0,0,1,.85-.5,3.49,3.49,0,0,0,1-.24.73.73,0,0,0,.32-.55c0-.13-.13-.2-.28-.24a5.28,5.28,0,0,1-1.06-.26.15.15,0,0,1-.06.17l-.08.06a2.18,2.18,0,0,0-.47.16,2.31,2.31,0,0,0-1.1,1A2.42,2.42,0,0,1,7,47a2.22,2.22,0,0,1,.39-.12l.32,0a1.58,1.58,0,0,0,.31,0c.37-.05.67-.15.33.17a1.42,1.42,0,0,1-.43.19l-.18,0-.26,0a2.3,2.3,0,0,0-.68.31,2.44,2.44,0,0,0-.4.32,1.64,1.64,0,0,0-.36.62c.25-.43.17.34.18,1a1.28,1.28,0,0,0,.38.85c.19.17.36.18.39,0a1.18,1.18,0,0,1-.37-.66,2.5,2.5,0,0,1,0-.77C6.7,49,6.7,49.52,6.85,49.12Z"/><path class="cls-1" d="M8.55,45.5a1.13,1.13,0,0,0,0-.26A.68.68,0,0,1,8,45.8c-.15.28-.26.37-.25.46a1.11,1.11,0,0,0,.79-.85S8.55,45.47,8.55,45.5Z"/><path class="cls-1" d="M7.67,44c.15.06.36.15.58.26a2.25,2.25,0,0,1,.45.17c.11,0,.21,0,.17-.24a2,2,0,0,0-.3-.29,8.26,8.26,0,0,1-.93-.65,1.5,1.5,0,0,1-.51-.9,2.27,2.27,0,0,0,.37,1,3.11,3.11,0,0,0,.27.33c.07.09-.08,0-.23-.15s-.31-.34-.35-.34,0,.26.48.8a2.42,2.42,0,0,1-.91-2,2.73,2.73,0,0,0,.69,2L7.39,44v0h0c-.1-.16-.12-.22,0,0l.06.06a.67.67,0,0,1,.22.07c.45.4.51.43.36.35A4.22,4.22,0,0,1,7.45,44s0,0-.06,0h0a5.19,5.19,0,0,0,.69.52,1,1,0,0,1,.48.77.93.93,0,0,0-.4-.86C8.06,44.31,7.86,44.17,7.67,44Z"/><path class="cls-1" d="M10.76,32.45c-.09,0-.09,0-.11,0S10.44,32.58,10.76,32.45Z"/><path class="cls-1" d="M9.81,33.21a1.28,1.28,0,0,1,.11-.4,1.23,1.23,0,0,1,.62-.56c.7-.14,0,.11.11.18a1.37,1.37,0,0,1,.37-.15,1,1,0,0,0,.26-.13c.06,0,.06-.07,0-.09H11l-.26,0a1.71,1.71,0,0,0-.23.13,1.84,1.84,0,0,0-.88.73,2.32,2.32,0,0,0-.22.5l-.16.45c-.26.57-.23,1-.27.88a3.09,3.09,0,0,1,.34-.68C9.45,33.85,9.58,33.56,9.81,33.21Z"/><path class="cls-1" d="M10.59,38.49a1.79,1.79,0,0,1-1.23,1,2,2,0,0,0,.92-.13l-.12-.09c.43-.27.5-.49.51-.58S10.61,38.56,10.59,38.49Z"/><path class="cls-1" d="M7.57,46.16a.9.9,0,0,0,0-.28l0,0,0,0s0,0-.08,0a2.63,2.63,0,0,0-.73.31,2.71,2.71,0,0,0-1,1.06A2.67,2.67,0,0,1,7.57,46.16Z"/><path class="cls-1" d="M5.16,50.52l-.28-.1a2.91,2.91,0,0,0,.71,1.07A2.49,2.49,0,0,1,5.16,50.52Z"/><path class="cls-1" d="M79.2,57.54a4.06,4.06,0,0,1,1-.4A3.13,3.13,0,0,0,79.2,57.54Z"/><path class="cls-1" d="M78.28,63.86l.19,0h0C78.21,63.72,78.08,63.65,78.28,63.86Z"/><path class="cls-1" d="M31.51,81.19a2.82,2.82,0,0,0,.9,1.37,3.54,3.54,0,0,0,1.18.61c.64.19,1.08.29,1,.13L34.06,83c-.27,0-.53-.07-.77-.13a2.4,2.4,0,0,1-.42-.15,2.46,2.46,0,0,1-.39-.22A2.55,2.55,0,0,1,31.51,81.19Z"/><path class="cls-1" d="M70.8,88.15c0-.1,0-.2,0-.3a2,2,0,0,0-.53-.45A2.3,2.3,0,0,1,70.8,88.15Z"/><path class="cls-1" d="M71.89,88.14a.7.7,0,0,0,.42.52A.85.85,0,0,1,71.89,88.14Z"/><path class="cls-1" d="M82,39.84a4.16,4.16,0,0,1-.58-1.22c.14,1.07.4,1.31.44,1.34S81.93,39.79,82,39.84Z"/><path class="cls-1" d="M.07,73.05a2.53,2.53,0,0,0,1.15,2.76,2.66,2.66,0,0,1-1-1.66A10.85,10.85,0,0,0,.07,73.05Z"/><path class="cls-1" d="M79.87,60.62c0-.2,0-.29,0-.32C79.77,60.51,79.8,60.64,79.87,60.62Z"/><path class="cls-1" d="M5,76.52a2.81,2.81,0,0,1-.71,0,5.81,5.81,0,0,1-1-.12L2.25,76.2a3.08,3.08,0,0,1-1-.39,3,3,0,0,0,1,.47c.45.12.91.23,1.4.32A2.43,2.43,0,0,0,5,76.52Z"/><path class="cls-1" d="M39.39,9.35a2.09,2.09,0,0,1-.34,0S39.18,9.41,39.39,9.35Z"/><path class="cls-1" d="M17.57,0a4.26,4.26,0,0,1,1.61.16A3.84,3.84,0,0,0,17.57,0Z"/><path class="cls-1" d="M4.87,59.92c-.16-.15,0,0,0,0Z"/><path class="cls-1" d="M4.46,56.35c0,.16,0,.29.07.31A.53.53,0,0,1,4.46,56.35Z"/><path class="cls-1" d="M9.71,74.48l0,0C9.68,74.34,9.69,74.37,9.71,74.48Z"/><path class="cls-1" d="M4.26,59.27a3.58,3.58,0,0,0,.52.45l.09.13a.71.71,0,0,0-.09-.13S4.51,59.52,4.26,59.27Z"/><path class="cls-1" d="M4.32,59.48a3,3,0,0,1-.57-.66s-.07,0,0,.07A2.21,2.21,0,0,0,4.32,59.48Z"/><path class="cls-1" d="M5,60.18a2.52,2.52,0,0,0-.15-.33s0,.07,0,.07A1,1,0,0,1,5,60.18Z"/><path class="cls-1" d="M78.4,16.32l-.15.08c-.32.26-.44.31-.37.28A2.06,2.06,0,0,0,78.4,16.32Z"/><path class="cls-1" d="M45.73,80.23h0Z"/><path class="cls-1" d="M48.68,81.64a5.63,5.63,0,0,0-1.51-1,5.37,5.37,0,0,0-1.41-.42,3.12,3.12,0,0,1,.8.92A3.2,3.2,0,0,1,48.68,81.64Z"/><path class="cls-1" d="M82.11,49.76a.07.07,0,0,1,0,.05h0l0-.43h-.24a4,4,0,0,0-1.26.32,3.81,3.81,0,0,1,1-.52l.26-.07.14,0c0,.24.07.48.1.72v0s-.08-.08-.07-.07l-.73-.26s0,0,0,0l0,0s0,0,0,0h0l.85.3h0l0,0a.08.08,0,0,1,0,0h0c0-.26-.07-.53-.1-.79h0l-.09,0-.19,0a4.65,4.65,0,0,0-2.88,2.14,4.11,4.11,0,0,0-.29,3.5c.38.94,1,1.36,1.16,1.28a4,4,0,0,0,.3.37,1,1,0,0,1,.1.22c-.06-.07-.11,0-.18-.09a.64.64,0,0,0,.16.26c.06.06.15.1.22.17a.56.56,0,0,1,.19.35c0,.05,0,.06,0,.07v0s0,0,0,0l-.16,0a.91.91,0,0,0-.23,0c-.14,0-.28.06-.41.09s-.45.14-.59.19-.32.06.08-.21a3.79,3.79,0,0,0-1.78,2.39c-.12.41-.17.57-.2.51a1.57,1.57,0,0,1,.14-.76,3.81,3.81,0,0,0,1.13,4.18h0A1.09,1.09,0,0,1,79,64a.66.66,0,0,1,.28.47c-.21.45,0-.21-.18-.08a3.3,3.3,0,0,1,0,.45V65a.16.16,0,0,0,0,.07.27.27,0,0,1,0,.12c-.13,0-.13-.15-.19-.21l0,0v-.18a2.45,2.45,0,0,0,0-.39c-.2.22-.34.29-.37.36s0,.09,0,.09l.31.11h0l.05.06a0,0,0,0,0,0,0h0l0-.27h-.13l-.13,0A4.47,4.47,0,0,0,76,66.39a4,4,0,0,1,2-1.66,3.36,3.36,0,0,0-2.5,1.64,4.63,4.63,0,0,0-.66,1.83A5,5,0,0,0,75,70.51a5.34,5.34,0,0,1-.19-1.33,4.08,4.08,0,0,1,.4-1.77,1.61,1.61,0,0,1,.64-.8c.12,0,0,.2-.16.88a2.87,2.87,0,0,0-.21,1.38,3.1,3.1,0,0,0,.72,1.77c-.13.08,0,.5.53.94,0,0,.13.09.2.15a.46.46,0,0,1,.15.25l-.4.09a1.6,1.6,0,0,0,.18.29l.05.06s0,0,0,0l.22.07h0l0,0,0,.06v0h0l0-.24h-.1a7.76,7.76,0,0,0-.92.11c-.49.08-.8.12-1.12.19a3.41,3.41,0,0,0-.77.74c-.13.17-.17.25-.15.26s.28-.2.53-.36.51-.27.47-.17a1.79,1.79,0,0,1-.26.35,4.7,4.7,0,0,0-.64,1,3.61,3.61,0,0,0,.93,4.65,1.09,1.09,0,0,1,.41.26.71.71,0,0,1,.12.55c-.26.56-.2-.12-.36,0l0,.07v0h0l.13,0h0s0,0,0,.06v0h0l0-.12a1,1,0,0,0-.24.1.55.55,0,0,0-.19.18,1.32,1.32,0,0,1-.32.24,6.09,6.09,0,0,0-.87.62c-.07.29-.78.74-1.16,1.79a3.21,3.21,0,0,0-.12,1.81,3,3,0,0,0,1,1.68c.13.09.32.13.47.24,0,.27-.29,0-.38.16a.63.63,0,0,1,.23.58V88a2.73,2.73,0,0,1,0,.56.86.86,0,0,1-.55.64,11.29,11.29,0,0,1-1-.43l-.12-.06s.1.06.11.09c.19.15.15.26-.12.32a1.27,1.27,0,0,1-.83,0,1.09,1.09,0,0,1-.43-.34c-.11-.16-.14-.36-.24-.54a3.79,3.79,0,0,0,0,.75,1.26,1.26,0,0,0,.24.52,1.45,1.45,0,0,1-.43-.52,6.56,6.56,0,0,1-.21-.67,2,2,0,0,0-.6-.85c-.14-.2.11-.2.47,0a1.5,1.5,0,0,0-.35-.26c-.25-.32-.32-.44-.19-.48a1.16,1.16,0,0,1,.75.23,2.59,2.59,0,0,1,.32,1,2.73,2.73,0,0,0,.5.56.27.27,0,0,0,.38,0c-.1,0-.15-.24-.23-.46.09.09.15.12.18.07s0,0-.07-.18a3.86,3.86,0,0,0-.35-.54,3.42,3.42,0,0,0-.11-.88l-.26,0a3.58,3.58,0,0,0-2-1.14,3.71,3.71,0,0,0-2.35.34,3.18,3.18,0,0,0-.85.91,3.39,3.39,0,0,1-.15.45.79.79,0,0,1-.36.34,1.27,1.27,0,0,1-.52.09,1.84,1.84,0,0,1-.58,0,.68.68,0,0,1-.45-.37c0-.07-.08-.26-.15-.43A3.12,3.12,0,0,0,63.2,86a2.78,2.78,0,0,0-1.84-1.31c.49,0,.61-.07.6-.23s-.15-.36-.06-.52a5.28,5.28,0,0,1,1.91,1.9,3.47,3.47,0,0,1,.3.82c0,.1,0,.07,0,.09l0,0,.06,0,.13,0,.36.08c-.27-.07-.36-.15-.32-.2s0-.11.11-.12c-.09,0,0,0-.07,0l0,0,0,0h0l-.07-.29a3.55,3.55,0,0,0-1.36-1.93c.13-.08,0-.3-.39-.55a3.94,3.94,0,0,0-1.65-.56c.33.24,0,.27-.6.41a3.78,3.78,0,0,0-2,1.21c-.13.16-.21.38-.38.49a1,1,0,0,1-.48.2c0-.11,0-.19.11-.28a1.7,1.7,0,0,0,.55-.58c.06-.06.12-.14.21-.22l-.24.19c-.19.12-.26.27-.4.38a1,1,0,0,1-.43.27,1.36,1.36,0,0,1-.58.09.31.31,0,0,1-.27-.36c0,.13.11.23.21.18a.28.28,0,0,1-.22-.22v0l0-.09,0-.17c0-.11,0-.22-.08-.33a4.85,4.85,0,0,0-.25-.61c-.39-.74-.9-1.14-.54-1a2.59,2.59,0,0,1,.4.41,3.39,3.39,0,0,0-5.27-.08c-.1.12-.15.29-.28.39a.72.72,0,0,1-.41.2,2,2,0,0,1-.43,0l-.38,0c-.33-.06-.44-.27-.63-.53,0,0,.2,0,.37.17a.45.45,0,0,0,.36,0,.2.2,0,0,1-.09,0c-.06-.14-.11-.27-.18-.4a3.17,3.17,0,0,0-.49-.69,2.93,2.93,0,0,0-1.3-.81,2.28,2.28,0,0,0-2.31.54c.09-.27-.28-.52-.53-.77a.37.37,0,0,1,0-.52,1.88,1.88,0,0,1,1.41-.58,3.36,3.36,0,0,0-1.36.16,3.26,3.26,0,0,0-1.52,1.08c0,.08-.09.19-.15.3a.78.78,0,0,1,.45,0c.19,0,.3,0,.22.19a.34.34,0,0,1-.05.11,1,1,0,0,1-.6.26,1.07,1.07,0,0,1-.37,0,1.56,1.56,0,0,1-.38-.15L41.62,82c-.06,0-.06-.06-.06-.08a.11.11,0,0,1,0-.08.6.6,0,0,1-.26.33.36.36,0,0,1-.33,0,.39.39,0,0,1-.14-.17s0-.08,0-.16l0-.22c.14.18.65-.29.79.25a3.22,3.22,0,0,0-2.47-2.31c.38.1.49,0,.41-.19a1.47,1.47,0,0,0-.8-.71c.16.1-.45-.1-1.29,0a3.68,3.68,0,0,0-1.28.44,3.36,3.36,0,0,0-1,.78.85.85,0,0,0-.09.15l.13-.1a3.48,3.48,0,0,1,.9-.63,2.85,2.85,0,0,0-.81.7c-.1.12-.13.27-.22.38a1.2,1.2,0,0,1-.27.28,1.51,1.51,0,0,1-.67.25,1,1,0,0,1-.86-.09.83.83,0,0,1-.32-.5,3.53,3.53,0,0,0-.3-.88c.15.12.43.29.62.21s.17-.15.16-.38a1.88,1.88,0,0,0-.46-1,3.29,3.29,0,0,0-2.06-.35,2.62,2.62,0,0,0-2,1.51,3.57,3.57,0,0,1-.47.8,1.69,1.69,0,0,1-.82.5,2,2,0,0,1-.67-.17l-.63-.07a3,3,0,0,1-.68-.12,2.07,2.07,0,0,1-1.2-1.09,1.94,1.94,0,0,0,.91.74,1.78,1.78,0,0,0,.64.13l.59,0a1.54,1.54,0,0,0,1.05-.36,1.18,1.18,0,0,0,.33-.47c.07-.19.11-.38.16-.53a3.11,3.11,0,0,1,1.34-1.3,3.22,3.22,0,0,1,1.71-.32A6.45,6.45,0,0,0,30,76.85a1.57,1.57,0,0,0-.52.05,3.38,3.38,0,0,0-1.22.49c-.42.2-.2-.09.31-.4a3.61,3.61,0,0,1,1.74-.48,4.17,4.17,0,0,0-3.17,1.39.35.35,0,0,1-.35.17.17.17,0,0,1-.09.22.58.58,0,0,1-.17,0h-.08l-.05.13h0s-.11.08-.09.07h.06v0l0-.12a1.05,1.05,0,0,0-.08-.18c-.06-.1-.11-.13-.14-.1.18.69.15.45.21.49a.42.42,0,0,1,.24,0A1.09,1.09,0,0,0,27,78.5a.53.53,0,0,0,.27-.33.5.5,0,0,1,.12.42.65.65,0,0,1-.51.54,4,4,0,0,1-.56.05,2,2,0,0,1-.28,0,.77.77,0,0,1-.25-.14.61.61,0,0,1-.18-.24.84.84,0,0,1-.05-.18c0-.09,0-.18-.07-.28a3.4,3.4,0,0,0-.51-1c-.19-.35,0-.38.34-.27s.66.41.7.35a4.63,4.63,0,0,0-1.58-1.42,4.69,4.69,0,0,0-1.9-.45,3.56,3.56,0,0,1,1.71.11,3,3,0,0,0-2.35-.15,4.24,4.24,0,0,0-1.83,1.3c-.12.14-.24.34-.49.33a.4.4,0,0,1-.29,0,1.55,1.55,0,0,1-.28-.2l-.1-.09,0,0h0l-.06.19h0s0-.06,0,.06l.07.3c.05.22.11.47.14.7.07.48-.05.89-.55,1l-.26-.09a2.16,2.16,0,0,1-.56-.35,1.87,1.87,0,0,1-.51-.7,1.91,1.91,0,0,1-.12-.47A1.73,1.73,0,0,1,17,77a2.21,2.21,0,0,0-.31-1,3.26,3.26,0,0,0-.54-.64c-.18-.19-.2-.29-.07-.35a1.11,1.11,0,0,1,.62,0c.52.08,1.08.43.75-.13a1.81,1.81,0,0,1-.48-.17,6.64,6.64,0,0,0-.64-.21c-.39-.19-.29-.23-.31-.31S16,74,15.83,74a2.46,2.46,0,0,0-1-.07,2.12,2.12,0,0,1-.68.3,5.8,5.8,0,0,0-.9.44c-.23.16-.37.28-.29.24a3.28,3.28,0,0,1,1-.45,4,4,0,0,0-1.27.91,3.12,3.12,0,0,1-.36.37,1,1,0,0,1-.74.16c.19.17,0,.36-.6.44a1.11,1.11,0,0,1-1-.34,1.33,1.33,0,0,1-.29-.55,2.88,2.88,0,0,0-.19-.47c.13,0,.14-.29.11-.46A2.63,2.63,0,0,0,5.5,74c-.12.12-.2.27-.31.4a1,1,0,0,1-.43.29,1,1,0,0,1-.54.07,5.78,5.78,0,0,1-.57-.12c-.09-.06-.35-.17-.54-.26s-.38-.24-.11-.28a1.38,1.38,0,0,1-.53,0,.81.81,0,0,1-.53-.53c0-.36.13-.43.15-.38a1.65,1.65,0,0,0,.12.39.62.62,0,0,0,.34.31c.11,0,.13,0,.09-.23a.3.3,0,0,1-.3-.11A.69.69,0,0,1,2.16,73q0-.35.06-.78a4,4,0,0,1,.12-.8c-.26,0-.38.63-.49,1.3a4.4,4.4,0,0,0-.05.51.89.89,0,0,0,.14.47,1,1,0,0,0,.71.47.65.65,0,0,1-.57.18,1,1,0,0,1-.83-.66A4.08,4.08,0,0,1,1.19,72a3.77,3.77,0,0,1,.22-1.16,1.74,1.74,0,0,1,.89-.9,4.16,4.16,0,0,1,.47-.15l.21,0,.12,0,.28-.1c.14,0,.2,0,.23,0s0,.24.07.13a1.76,1.76,0,0,0,.76-1.1,1.48,1.48,0,0,0-.1-.89,1.63,1.63,0,0,0-.83-.78,2.43,2.43,0,0,1-1.09-1A2.1,2.1,0,0,1,2.2,65a2.25,2.25,0,0,1,.09-.56c0-.2.11-.4.16-.62a2,2,0,0,1,.28-.55A.92.92,0,0,1,3,63c.14-.06.17,0,.19.14s0,.55.22.43c-.1.33-.12.62-.19.9a1.73,1.73,0,0,0,0,.78,1.49,1.49,0,0,0,.32.64c.15.16.33.29.49.45a3,3,0,0,1,.54.83A2.27,2.27,0,0,0,4,66.32c-.1-.1-.21-.19-.32-.28a2.54,2.54,0,0,1,.39.21,2,2,0,0,1,.67.77A1.74,1.74,0,0,1,5,68a2.09,2.09,0,0,0-.74-1.86c-.21-.19-.52-.3-.67-.59a1.27,1.27,0,0,1-.15-1c0-.16.08-.33.11-.5a2.09,2.09,0,0,1,.16-.5A1.12,1.12,0,0,1,4.48,63a2.66,2.66,0,0,0,1.9-1.15,2.79,2.79,0,0,0,.46-2A2.38,2.38,0,0,0,6.3,59c-.2-.19-.33-.24-.24,0a2.3,2.3,0,0,1,.47.87c0,.47-.19,0-.41-.3s-.46-.51-.23,0a2,2,0,0,0-.53-.46,2.89,2.89,0,0,1-.93-.7A1.92,1.92,0,0,1,4,57.18a5.73,5.73,0,0,1,.1-.67,4,4,0,0,1,.15-.72,2,2,0,0,1,1.33-1.26.88.88,0,0,1,.54.25s0,0-.06,0H5.91a1.46,1.46,0,0,0-.7.24,1.74,1.74,0,0,0-.59.67,1.52,1.52,0,0,0-.16.67,1.54,1.54,0,0,1,.09-.47,1.76,1.76,0,0,1,.37-.56,1.64,1.64,0,0,1,.65-.41A1.37,1.37,0,0,1,6,54.8h.27a1.57,1.57,0,0,0,.84-.31.81.81,0,0,0,.33-.63,1.72,1.72,0,0,1-.87.46,1.45,1.45,0,0,0,.55-1.22A1.87,1.87,0,0,0,6.61,52c0,.27,0,.28.07.33s.1.16-.07.41c.11-.11.19-.09.23,0a.78.78,0,0,1-.08.56,1.64,1.64,0,0,1-.33.43c-.07.08-.07.17.2.15l-.5,0h-.2a2.46,2.46,0,0,0-.95.27,2.88,2.88,0,0,0-1.35,1.53c-.11.28-.15.56-.25.86a5,5,0,0,0-.24,1c.06-.06.11-.31.15-.24a3.13,3.13,0,0,1,.06.39,2.87,2.87,0,0,0,.4,1.15c.09.07.28.25.41.34l.1.11-.08-.1c.09.06.1.07,0,0a1.87,1.87,0,0,1-.42-1.06,3.92,3.92,0,0,0,.48.65,4.48,4.48,0,0,0,.87.65,1.38,1.38,0,0,1,.53.64,1.91,1.91,0,0,1,.14.67c-.08.26-.11.19-.12.1s-.07-.2-.15-.09a1.39,1.39,0,0,1-.09.69c-.12,0-.42.1-.6.08s-.14,0-.13-.09a1.88,1.88,0,0,1,.2-.29,1.07,1.07,0,0,1-.28.19l-.17,0a4,4,0,0,1-.45.09,2.7,2.7,0,0,0-1.66,1,2.56,2.56,0,0,0-.27.45,2.79,2.79,0,0,0-.18.45c-.07.26-.11.52-.17.79a2.61,2.61,0,0,0,.63,2.6,3.32,3.32,0,0,0,.77.64c.26.13.5.31.26.18a1,1,0,0,1,.09,1.08l-.06,0a1,1,0,0,1-.27.26.54.54,0,0,1-.16.1s-.09,0-.13.05l-.35.08a2.59,2.59,0,0,0-1.93,2A7.54,7.54,0,0,0,.25,74.1,2.52,2.52,0,0,0,1,75.34,3.28,3.28,0,0,0,2.34,76l1,.27a6.65,6.65,0,0,0,1,.25,2.8,2.8,0,0,0,2.42-1.47.82.82,0,0,1,.61-.34,1,1,0,0,1,.15.21.61.61,0,0,1,.63.32,1.09,1.09,0,0,1,.13.31c0,.08,0,0,.1.38a2.08,2.08,0,0,0,.29.63,2.47,2.47,0,0,0,.91,1.27,2.62,2.62,0,0,0,.43.27,2.41,2.41,0,0,0,.44.18c.27.08.55.13.85.2a3,3,0,0,0,3.48-1.43.55.55,0,0,1,.44-.26.42.42,0,0,1,.39.19l.24-.18a1.06,1.06,0,0,1,.18.35.32.32,0,0,1,0,.09s0,.08,0,.12l0,.16a3,3,0,0,0,.1.32A2.75,2.75,0,0,0,18,79.53c.33.08.66.11,1,.16a2.51,2.51,0,0,0,2-.37,2.26,2.26,0,0,1-.26-.16,3.3,3.3,0,0,0,1-1,1.21,1.21,0,0,1,1.3-.37,1.39,1.39,0,0,1,.92,1c-.11-.06-.17-.32-.27-.52a1.7,1.7,0,0,1,.09.61l0,.12a1.42,1.42,0,0,0,0,.2,1.66,1.66,0,0,0,.11.38,2.38,2.38,0,0,0,.41.69,2.68,2.68,0,0,0,1.27.86c.4.11.77.13,1.15.2a2.31,2.31,0,0,0,1.11-.06,2.48,2.48,0,0,0,.95-.53,3.76,3.76,0,0,0,.67-.85,1,1,0,0,1,.69-.5.83.83,0,0,1,.76.24.63.63,0,0,1,.51.55l0-.07,0,.12a1.48,1.48,0,0,1,0,.21v0s0,0,0,0v.13a2.65,2.65,0,0,0,.13.54,2.52,2.52,0,0,1-.1-.46v-.27a.55.55,0,0,0,0-.18l.06.19a1.88,1.88,0,0,0,0,.19,2.5,2.5,0,0,0,.07.26,3.82,3.82,0,0,0,.23.51,2.45,2.45,0,0,0,.8.8,2.29,2.29,0,0,0,1,.35l.47.38.29,0a1.41,1.41,0,0,0,.66.07c.14,0,.19-.06.19-.09s-.25-.15-.55-.28A2,2,0,0,0,36,82.19c.34,0,.66-.31,1-.76a1.18,1.18,0,0,1,.41-.39.42.42,0,0,1,.52.08c.1-.14.67-.17,1.09.2a2,2,0,0,1,.49.63l0,.08,0,0,0,.1a1.5,1.5,0,0,0,.16.36.75.75,0,0,0,.35.32c0,.06.15.4-.21-.17a1.88,1.88,0,0,0,.66.79,2,2,0,0,0,.45.24,2.32,2.32,0,0,0,.42.1c.28.06.55.11.81.14a1.59,1.59,0,0,0,.75-.13,2.41,2.41,0,0,0,.59.14,2.91,2.91,0,0,0,.75-1.12,1.69,1.69,0,0,1,.38-.61,1,1,0,0,1,.81.07c.08.1,0,.18-.29.39a1.16,1.16,0,0,1,.84-.18,1.09,1.09,0,0,1,.5.19,1.71,1.71,0,0,1,.41.34,2.89,2.89,0,0,1,.23.3,2.42,2.42,0,0,1,.12.23,1.51,1.51,0,0,1,.06.15,1.63,1.63,0,0,0,.11.31l-.28-.11a2,2,0,0,0,.63,1,2.08,2.08,0,0,0,1.07.44c.33,0,.63.07.89.12s.49,0,.66,0a1.5,1.5,0,0,0,.75-.22,3.11,3.11,0,0,0,.77-.77A1.65,1.65,0,0,1,53.08,84a1.53,1.53,0,0,1,1.28.64,1.66,1.66,0,0,1,.18.35,1.52,1.52,0,0,1,.06.2s0,.06,0,.1l0,.22a2.21,2.21,0,0,0,1.61,1.68,4.26,4.26,0,0,0,1.93.18A2.12,2.12,0,0,0,59,87a4.39,4.39,0,0,0,.63-.72A1.24,1.24,0,0,1,61,85.92c-.09-.19-.08-.25,0-.25a.94.94,0,0,1,.43.25c.32.29.39.72.66.67-.08.24-.13.53-.34.22l.06.17v0l0,.16a2.36,2.36,0,0,0,.1.38,2.69,2.69,0,0,0,.84,1.15,2.64,2.64,0,0,0,.55.34,2.58,2.58,0,0,0,.52.17l.89.19a2.35,2.35,0,0,0,1.6-.2,2.51,2.51,0,0,0,1.08-1.15c.06-.12.09-.21.16-.33.19.07,0,.34.11.35s.19-.31.33-.24-.1.17-.15.31a5.14,5.14,0,0,1,.81-.41,2.51,2.51,0,0,0,.61-.44,3.34,3.34,0,0,1,.55.9c.06.1.14.43.24.66a1.56,1.56,0,0,0,.51.61c.11.27.39.53.4.61s-.06,0-.23,0a1.7,1.7,0,0,1-.72-.75,2,2,0,0,0,.5.68,2.46,2.46,0,0,0,1.17.56l.86.2a7.47,7.47,0,0,0,.9.17,2.12,2.12,0,0,0,1.57-.44,1.91,1.91,0,0,0,.68-1.06c.07-.32.07-.54,0-.59s0,0,0,0a5.6,5.6,0,0,0,.31-1.85,1.94,1.94,0,0,0-.44-1.23,4.91,4.91,0,0,0-.7-.6,1.93,1.93,0,0,1-.41-.54,1.64,1.64,0,0,1-.18-.86,1.49,1.49,0,0,0,0,.36.77.77,0,0,1-.11-1,2.27,2.27,0,0,1,1-1v.05a1.91,1.91,0,0,1,.44-.09l.2,0a2,2,0,0,0,.37-.07,1.86,1.86,0,0,0,.9-.63,1.59,1.59,0,0,0,.31-.61,2.41,2.41,0,0,0,.07-.4c0-.24.08-.48.14-.93a2.14,2.14,0,0,0-1-1.94v.36a.53.53,0,0,1-.3,0,1.43,1.43,0,0,1-.61-1.52,2.5,2.5,0,0,1,1.19-1.68,1.87,1.87,0,0,0-.55.18.91.91,0,0,1,.66-.36,1.29,1.29,0,0,1,.44,0,2.18,2.18,0,0,0,1-.19,2.37,2.37,0,0,0,.8-.65,2,2,0,0,0,.27-.43c.07-.13.11-.26.17-.39s.19-.52.28-.78a1.75,1.75,0,0,0,0-.71c0-.2.05-.06.1.21a2.16,2.16,0,0,1,0,.45l-.06.48a2.65,2.65,0,0,0,.11-1.35,2,2,0,0,0-.27-.72c-.19-.3-.29-.32-.35-.3s-.11.11-.24.07a5.66,5.66,0,0,1-.86-.49l-.15-.11c0-.15.15-.18.23-.25s.09-.16,0-.39,0-.17-.07-.33a.92.92,0,0,1,.06-.64.94.94,0,0,1,.27-.33.72.72,0,0,1,.19-.11l.11,0,0,0h0l.11,0a2.59,2.59,0,0,0,1.56-1,2.86,2.86,0,0,0,.42-.73c.09-.22.13-.41.19-.6a1.73,1.73,0,0,1-.4.69s-.06,0,0-.2,0-.38.06-.74c0-.21.1-.45.11-.7a2.08,2.08,0,0,0-.09-.77,2.15,2.15,0,0,0-.37-.74,4.82,4.82,0,0,0-.65-.62,1.51,1.51,0,0,1-.35-.87c0-.27,0-.53,0-.81.09-.08.15-.09.18-.07a1.2,1.2,0,0,1,.37-.48,1.08,1.08,0,0,1,.33-.2l.19-.06s.15,0,.24-.06a1.76,1.76,0,0,0,.3-.1,2.21,2.21,0,0,0,.9-.74,2.11,2.11,0,0,0,.34-.9,4.83,4.83,0,0,0,0-1.11,1.13,1.13,0,0,0,.1-1,1.82,1.82,0,0,0-.34-.62,4,4,0,0,0-.65-.54,1.81,1.81,0,0,1-.57-.89,1.53,1.53,0,0,1,.13-1.11,1.21,1.21,0,0,1,.68-.59c.23-.06.37,0,.4.17l.13,0a2.18,2.18,0,0,0,.44-.11,2.23,2.23,0,0,0,.76-.44,2.61,2.61,0,0,0,.53-.66,3.2,3.2,0,0,0,.16-.39,2.25,2.25,0,0,0,.08-.33l.11-.66a2.09,2.09,0,0,0,.07-.65,2.31,2.31,0,0,0-.44-1.21l.16.07a3,3,0,0,0-.92-.88,2,2,0,0,1-.59-.86,2.37,2.37,0,0,1-.14-.77c.21-.3.17,0,.2,0a1.53,1.53,0,0,1,.93-.71l.22,0h.07l.18,0a2.07,2.07,0,0,0,.33-.1A2.18,2.18,0,0,0,86,42.5c0-.31.07-.63.1-1a2,2,0,0,0-1.22-1.85l-.06-.23,0-.17a.92.92,0,0,1-.38-.58,1.43,1.43,0,0,1,.19-1.13,1.38,1.38,0,0,1,.48-.45,1.17,1.17,0,0,1,.3-.14l.17,0h.08l.19,0a2.36,2.36,0,0,0,1.82-1.63,7.2,7.2,0,0,0,.17-1,2,2,0,0,0,0-.91s.13.12.15.51a2.55,2.55,0,0,0-.33-1.31,3.11,3.11,0,0,0-1-1,1.16,1.16,0,0,1,.44-2,1,1,0,0,1,.24-.05s.24,0,.42-.08a3.21,3.21,0,0,0,.54-.22,2.53,2.53,0,0,0,1.22-1.55c.13-.93.16-1.62-.17-2a2,2,0,0,0-.47-.89,3.76,3.76,0,0,0-.82-.6,1.79,1.79,0,0,1-.51-.48,2.63,2.63,0,0,0,.4.6c.59.52.19.35-.18.21s-.63-.33-.31.14a1.91,1.91,0,0,1-.53-.82,1.82,1.82,0,0,1-.07-.84c0-.22.12-.33.16-.32s0,.16.09.47a1.49,1.49,0,0,0,0,.21c.33.16.11-.62.52-1.27a1.63,1.63,0,0,1,.75-.67,1,1,0,0,1,.35-.07c.15,0,.26,0,.26.06a2.3,2.3,0,0,0,1.26-.63,2.53,2.53,0,0,0,.62-1.27,6,6,0,0,0,.28-2.65,2.11,2.11,0,0,0-.73-1.08,3.18,3.18,0,0,0-1.2-.52l-1.1-.25A3.17,3.17,0,0,0,87,15a2.23,2.23,0,0,0-1,.39,3.28,3.28,0,0,0-.75.82,1.38,1.38,0,0,1-1.17.43,1.36,1.36,0,0,1-1.09-.93l0-.14c0-.07,0,0,0-.29a2.47,2.47,0,0,0-1.39-1.75,3.43,3.43,0,0,0-.91-.24c-.29,0-.58-.13-.86-.15a2.42,2.42,0,0,0-1.58.54,2.39,2.39,0,0,1,1-.05,2.17,2.17,0,0,0-.8.41,4.32,4.32,0,0,0-.58.69,1.7,1.7,0,0,1-.36.31c-.18.05-.31,0-.3-.07s.14-.16.41-.45l0-.05,0,0a4.63,4.63,0,0,0-.65.46c-.24.16-.52.25-.54.3-.46-.13-.56-.31-.55-.36s.13,0,.28,0c.3,0,.63-.11.44-.11a1,1,0,0,1-.51-.11.39.39,0,0,0,.08.1,1.18,1.18,0,0,1-.6-.14.81.81,0,0,1-.27-.28,1.17,1.17,0,0,1-.12-.25.86.86,0,0,1,0-.17l0-.18a1.57,1.57,0,0,0-.08-.29,2.63,2.63,0,0,0-.49-.91,2.7,2.7,0,0,1-.22-.3c-.06-.11,0-.14-.37-.34,0,0-.06-.06-.24-.12a4.85,4.85,0,0,0-.82-.16,3.62,3.62,0,0,0-.86-.11,2.38,2.38,0,0,0-.83.18,2.79,2.79,0,0,0-1.28,1.13l-.11.11a.49.49,0,0,0,.19-.05,3.48,3.48,0,0,1,.83-.6,4.58,4.58,0,0,0-.6.81,2.15,2.15,0,0,1-.45.42c-.07.06,0,.13.39,0a2.84,2.84,0,0,1-1.2.13,1.71,1.71,0,0,1-1.29-.88,1.38,1.38,0,0,1-.15-.4s0-.07,0-.11l0-.21a2.05,2.05,0,0,0-.22-.6,2.22,2.22,0,0,0-.86-.86,3,3,0,0,0-1-.29,4.88,4.88,0,0,0-.9-.13,2.06,2.06,0,0,0-.83.19,2.67,2.67,0,0,0-1.08,1,1.12,1.12,0,0,1-.71.42,1.36,1.36,0,0,1-1.52-.07,1.55,1.55,0,0,1-.54-.71,1.42,1.42,0,0,1-.07-.22.5.5,0,0,1,0-.12l0-.17a2,2,0,0,0-.53-1c.26.32.27.66.13.59a2.48,2.48,0,0,1-.39-.31,2.1,2.1,0,0,0-1-.47c.29-.21,0-.4-.66-.6a1.84,1.84,0,0,0-1.18.11,2.76,2.76,0,0,0-1.07,1A.85.85,0,0,1,53.8,10c.15.08.1.15-.1.19a1.3,1.3,0,0,1-.83-.2,2.42,2.42,0,0,1-.58-.59c-.11-.14-.22-.15-.2.23-.18-.49-.05-.53,0-.53a.19.19,0,0,0,.14,0,.29.29,0,0,0,.06-.1,2.17,2.17,0,0,0-.08-.59A2.47,2.47,0,0,0,51,7.15,2.87,2.87,0,0,0,50.27,7l-.69-.12a2.13,2.13,0,0,0-1.35.22,2.84,2.84,0,0,0-1,1,1.33,1.33,0,0,1-1.86.11,1.35,1.35,0,0,1-.45-.86,2.41,2.41,0,0,0-1-1.68,2.67,2.67,0,0,0-.43-.25,1.85,1.85,0,0,0-.43-.15l-.74-.13c-.05,0,.17.15.24.24s0,.14-.61.11a2.11,2.11,0,0,0-1.36,0,2.85,2.85,0,0,0-1.15.82l-.13.06c-.11.14-.11.32-.22.48s-.35.3-.76.06c.09.1.31.26-.06.25a1.64,1.64,0,0,1-.95-.65A1.59,1.59,0,0,1,37.07,6c0-.1,0-.17,0-.29a1.94,1.94,0,0,0-.27-.81,2.21,2.21,0,0,0-1.26-1c-.43-.1-.87-.18-1.3-.25a2,2,0,0,0-1.25.29,2.8,2.8,0,0,0-.9.94,1.51,1.51,0,0,1-2.52-.31,2.53,2.53,0,0,1-.12-.36l0-.1a2.74,2.74,0,0,0-.05-.28,1.92,1.92,0,0,0-.22-.51,2.05,2.05,0,0,0-.76-.76,2.3,2.3,0,0,0-.48-.22c-.14,0-.28-.06-.43-.09s-.56-.12-.85-.15a2,2,0,0,0-.83.1,2.07,2.07,0,0,0-.73.43,3.88,3.88,0,0,0-.54.66,1.44,1.44,0,0,1-1,.49,1.39,1.39,0,0,1-1-.37,1.43,1.43,0,0,1-.3-.44,1.63,1.63,0,0,1-.07-.26l0-.26c0-.12,0-.23-.07-.35A2.42,2.42,0,0,0,21.28.83,2.81,2.81,0,0,0,20,.14L20,.12l.08,0c.59.22.71.38.66.38S20.37.43,20,.35L19.18.19c.41.11.37.17.28.22s-.27.12-.21.2A3.38,3.38,0,0,0,17,.4a2.08,2.08,0,0,0-.94.69,3.48,3.48,0,0,0-.51,1.08,3,3,0,0,1,0,.78,11,11,0,0,0-.13,1.11,2.2,2.2,0,0,0,.35,1.18,3,3,0,0,0,.88.8c.27.2.4.39.55.41a1.6,1.6,0,0,0-.47-.5l-.13-.09c.08,0,.15.07.16,0,.28.08.36,0,.28-.31a5,5,0,0,0-.3-.53,1,1,0,0,1-.12-.67c.06-.46.38-.72.55-.67a1.58,1.58,0,0,1,0-.74,1.38,1.38,0,0,1,.35-.74.88.88,0,0,1,.86-.14,5.07,5.07,0,0,0,.83.28,1.19,1.19,0,0,1,1,.57c0,.22-.08.15-.14.07s-.13-.15-.17,0a.94.94,0,0,1,.1.1l.05.07a.74.74,0,0,1,.06.11,5.57,5.57,0,0,0,.43.75A3.8,3.8,0,0,0,22.41,5.5h-.24a3.51,3.51,0,0,0,3.75-1c.12-.13.19-.29.35-.37A.67.67,0,0,1,26.75,4l.46.14a.37.37,0,0,1,.11.05.17.17,0,0,1,0,0c0,.08-.07-.16.06.51A3.51,3.51,0,0,0,28,6.17a3.72,3.72,0,0,0,3.12,1.48,2.9,2.9,0,0,1-.52-.29,4.19,4.19,0,0,0,1.52-.12,3.32,3.32,0,0,0,.9-.36c.53-.73-.21.08-1.22.34a3,3,0,0,1-1.32,0c-.29-.08-.33-.15,0-.22a2.13,2.13,0,0,0,1.31.09,3.13,3.13,0,0,0,1.69-1c.12-.11.18-.27.32-.36a.79.79,0,0,1,.47-.12l.48.11c.1,0,.11,0,.13.05a.12.12,0,0,1,.05,0,.08.08,0,0,1,0,0v0h0A.58.58,0,0,1,35,6a4.1,4.1,0,0,0,.21.93c.18.55.42.94.51,1.2a2.12,2.12,0,0,0,.78.57c.08,0,0-.07,0-.15s-.1-.16,0-.14.28.17.81.37a2.77,2.77,0,0,0,.55.33,2.94,2.94,0,0,0,.6-.16,5.25,5.25,0,0,0,1.68-.2c.38-.11.61-.17.68-.13a4.47,4.47,0,0,1-1.4.69,3.5,3.5,0,0,0,2.17-1.22c.06-.07.09-.17.16-.24A.47.47,0,0,1,42,7.78a.78.78,0,0,1,.36,0,1.06,1.06,0,0,0-.59-.15.61.61,0,0,1,.42,0l.22,0h0l0,0h0a.1.1,0,0,1,.06,0h0l-.15,0h0v0l0,.2a3.74,3.74,0,0,0,.66,1.53A3.78,3.78,0,0,0,46,10.9a3.7,3.7,0,0,0,3-1.31c.07-.08.11-.17.17-.25a.67.67,0,0,1,.25-.16,1.63,1.63,0,0,1,.58,0l.13,0h.06v0l0,.11a1.66,1.66,0,0,0,.06.21,3.07,3.07,0,0,0,.33.79,2.49,2.49,0,0,1-.05-.46A3.63,3.63,0,0,0,52,11.6a4,4,0,0,0,1.32.5,3.09,3.09,0,0,0,1.35,0A3.2,3.2,0,0,0,56.34,11c.1-.1.15-.28.31-.4a.43.43,0,0,0,0,.07.64.64,0,0,1,.63-.3l.43.06a.43.43,0,0,1,.27.12c-.17,0-.07.13-.13.21a.14.14,0,0,1-.09.05s0,0,0,0h0l-.11,0h0v.07l0,.11a1.46,1.46,0,0,0,.05.2,3.22,3.22,0,0,0,.27.67,3.28,3.28,0,0,0,.59.82,2.48,2.48,0,0,0,.8.57,3.78,3.78,0,0,0,.62.17,4,4,0,0,0,1.45,0,3.78,3.78,0,0,0,.7.12,3.14,3.14,0,0,0,.75-.51,4.68,4.68,0,0,0,.7-.74c.13-.15.2-.47.54-.66-.23.19-.24.32-.21.34s.12,0,.22,0,.19,0,.21.06-.06.13-.18.35c.42-.31,1,0,1.12,0h.08l0,.07a3,3,0,0,0,.07.32,3.34,3.34,0,0,0,.23.58A4,4,0,0,0,67.11,15a6.79,6.79,0,0,0,1.74.77c.63-.17.6-.29.32-.32a5.57,5.57,0,0,1-1.41-.3,3.52,3.52,0,0,1-1.31-.92c-.26-.31-.33-.46-.13-.22-.11-.25-.07-.28.06-.2s.33.29.63.49a3.28,3.28,0,0,0,1.07.49,3.86,3.86,0,0,0,1.14.1,6.4,6.4,0,0,0,1-.16,3.12,3.12,0,0,0,1.14-.55c.12-.06.2-.13.31-.19a.73.73,0,0,1,.37-.1,1,1,0,0,1,.44.08l.23.07.12,0h0a.41.41,0,0,1-.15,0l.15.07h0l.07-.05h0s0,.06,0,.08l0,.16c0,.1,0,.21.08.31a5.36,5.36,0,0,0,.25.62,5,5,0,0,0,.79,1.18,8.92,8.92,0,0,0,1.62.64c.51.12,1,.08,1.09-.17a3.33,3.33,0,0,1-3.12-1.48A3,3,0,0,0,76,16.68a3.48,3.48,0,0,0,2.75-1.12c.16-.16.25-.37.47-.48,0,.06-.08.15-.13.27a3,3,0,0,1-.15.38,2.45,2.45,0,0,1-.52.59,2,2,0,0,0,.63-.5c.11-.12.15-.31.28-.43a.53.53,0,0,1,.49-.14c0,.11-.1.18-.22.28a1.8,1.8,0,0,0-.18.2c-.06.09-.1.18-.17.27a3.67,3.67,0,0,1-2.11,1.22A4.43,4.43,0,0,1,74.74,17a2.56,2.56,0,0,0,1.15.44,3.57,3.57,0,0,0,1.43-.1,9.2,9.2,0,0,0,.9-.34c.16-.06.19,0,0,.26a11.57,11.57,0,0,0,1.13-1.18.87.87,0,0,1,.25-.32.63.63,0,0,1,.43-.07,3.14,3.14,0,0,0,.46.08.74.74,0,0,1,.18-.06l-.11.06h-.08v.06l0,.07,0,.15A5,5,0,0,0,81,17.21a3.84,3.84,0,0,1-.88-1.41,4.92,4.92,0,0,0,2.09,3,3.87,3.87,0,0,0,1.79.58A3.35,3.35,0,0,0,85.9,19a3.77,3.77,0,0,1-1.55.38,2.8,2.8,0,0,1-.88-.09c-.38-.1-.41-.18-.36-.22s.19-.07.2-.13-.14-.14-.58-.37a3.92,3.92,0,0,0,1.69.2,4.81,4.81,0,0,0,1.16-.28A6,6,0,0,0,87,17.74a1.41,1.41,0,0,1,.46,0c.18,0,.33.14.59.18l.14,0a.33.33,0,0,1-.13,0c-.14-.07-.47-.3-.19-.34a2.55,2.55,0,0,1,.29.13.47.47,0,0,1,.24.19.3.3,0,0,1,0,.26c.07.18,0,.27.07.3s.07,0,.13-.06.25-.4.31-.14a.52.52,0,0,0-.16.61.68.68,0,0,1-.13.76l-.19-.24a1.29,1.29,0,0,1-.25,0l-.11,0a2.14,2.14,0,0,0-.27.09,2.74,2.74,0,0,0-.78.46,1.05,1.05,0,0,0-.42.6,2.05,2.05,0,0,1-.23.57,4.54,4.54,0,0,0-.6,1.83,3.5,3.5,0,0,1,.15-1.88,3.63,3.63,0,0,0-.42,2.32,3.7,3.7,0,0,1-.35-.5,4.35,4.35,0,0,0,.55,1.86,4.61,4.61,0,0,0,1,1.16,1.19,1.19,0,0,1,.23.22.52.52,0,0,1,0,.36c.11-.08.26-.11.34,0a.72.72,0,0,1,.07.34c0,.2,0,.26-.09.34s-.12-.1-.15-.13l0,0h0l-.3,0a3.42,3.42,0,0,0-.87.31A2.64,2.64,0,0,1,87,26.79H87L87,27h0s0,0,0,0a.16.16,0,0,0,0-.06l-.14-.05a.43.43,0,0,0-.11-.12l0,.06h0l.3.11h0l0,0A.13.13,0,0,1,87,27s0,0,0,0L87,26.51H86.9l-.1,0-.2,0A4.16,4.16,0,0,0,84.34,28a3.38,3.38,0,0,1,1.07-.83A3.94,3.94,0,0,0,84,29.11a3.7,3.7,0,0,0,0,2.28c.1.71-.18.22-.34-.38a3.35,3.35,0,0,0,.44,1.23,4.43,4.43,0,0,0,1,1.16l0,0-.11.06a.82.82,0,0,1-.57-.18,2.9,2.9,0,0,1-1-1.41,4.27,4.27,0,0,0,1.36,1.85.51.51,0,0,1,.39.29,1.66,1.66,0,0,1-.23.23c-.08.07-.15.08-.19,0s0,0,0,0l.61.21,0,0s.06.07.05.08h0l-.09-.72h0L85,34a3.35,3.35,0,0,0-.63.22,4.24,4.24,0,0,0-2.46,3.09,4.57,4.57,0,0,0,.26,2.66,7.84,7.84,0,0,0,.82,1c.1.11.2.19.29.28s.24.22.22.38a1.42,1.42,0,0,1-.12.38l.37.14h0l0,0a.08.08,0,0,1,0,0h0l-.06-.52h-.08l-.16,0a3.77,3.77,0,0,0-2.24,1.4A4.13,4.13,0,0,0,79.86,45c-.1.84,0,1.06.06,1s.11-.4.21-.64.21-.41.24-.21,0,.29,0,.6a4.83,4.83,0,0,0,.29,1.31,4.66,4.66,0,0,0,.71,1.17,3.84,3.84,0,0,1,.33.44c0,.13-.25.23-.21.36a.43.43,0,0,1,.33.11.56.56,0,0,1,.14.42v.12l.08,0h0a.28.28,0,0,1,.06.08h0l0-.17H82a3.45,3.45,0,0,0-.56.1,4.52,4.52,0,0,0-1.1.44,3.21,3.21,0,0,1,1.33-.64A2.14,2.14,0,0,1,82,49.5h.07c0,.15,0-.32,0,.33h0A.15.15,0,0,0,82.11,49.76ZM75.73,67.42a3.8,3.8,0,0,1,.55-1.26,2,2,0,0,1,1-.79,7.49,7.49,0,0,1-.71.89A4.38,4.38,0,0,0,75.73,67.42Zm-7.59,18.3a2,2,0,0,1,1.7.44A4.09,4.09,0,0,0,68.14,85.72Zm-66-22.14v.08C1.7,65.23,1.85,64.67,2.11,63.58Zm2.48-2c.09-.07.06-.11,0-.13a.26.26,0,0,1-.17.12l-.35.06a2.59,2.59,0,0,0-.76.31A5.54,5.54,0,0,1,4,61.73l.28,0h.12A.55.55,0,0,0,4.59,61.58ZM73.43,11.83a2.67,2.67,0,0,1,.63.35,2.3,2.3,0,0,0-.49-.2,1.59,1.59,0,0,0-.28-.06c-.15,0-.21,0-.22-.06S73.23,11.83,73.43,11.83Z"/><path class="cls-1" d="M71.76,88.16a.41.41,0,0,1-.09.2C71.78,88.43,71.8,88.39,71.76,88.16Z"/><path class="cls-1" d="M82.17,40l0-.11-.1-.09Z"/><path class="cls-1" d="M16.56,74a2.31,2.31,0,0,1,.92.76s0-.08-.11-.22A2.66,2.66,0,0,0,16.56,74Z"/><path class="cls-1" d="M6.35,53.34a.84.84,0,0,1-.32.27c.19-.07.28-.08.4-.12C6.38,53.45,6.26,53.43,6.35,53.34Z"/><path class="cls-1" d="M9.94,45.44a2,2,0,0,0-.06-.6l-.12.07a5.83,5.83,0,0,1,0,.87C9.78,45.92,9.86,45.87,9.94,45.44Z"/><path class="cls-1" d="M7.44,53.28c.26,0,.35-.71,0-1.29a.54.54,0,0,1,0,.11C7.06,52.08,7.53,52.57,7.44,53.28Z"/><path class="cls-1" d="M7.31,51.86A2.43,2.43,0,0,0,7,51.48l-.17-.13c-.1,0,0,.07.13.18A1.53,1.53,0,0,1,7.31,51.86Z"/><path class="cls-1" d="M5.23,60.61c.08-.19-.3-.13-.2-.22-.16-.06,0,.14,0,.35s0,.2.07.21S5.22,60.88,5.23,60.61Z"/><path class="cls-1" d="M8.29,52.74a1.77,1.77,0,0,1-.3.31,2.09,2.09,0,0,1,.13.52A2.12,2.12,0,0,0,8.29,52.74Z"/><path class="cls-1" d="M5.23,58.42A1.41,1.41,0,0,1,4.8,57s0-.17,0-.43a4.94,4.94,0,0,0-.14.75,1.5,1.5,0,0,0,.13.66C5,58.31,5.22,58.45,5.23,58.42Z"/><path class="cls-1" d="M4.79,56.53A2.74,2.74,0,0,1,5,55.79a1.92,1.92,0,0,1,.38-.5,1.56,1.56,0,0,0-.43.52A2.08,2.08,0,0,0,4.79,56.53Z"/><path class="cls-1" d="M7.63,54.65a1.78,1.78,0,0,1-.39.24,2.36,2.36,0,0,1-1,.38A2.45,2.45,0,0,0,7.63,54.65Z"/><path class="cls-1" d="M2.76,70.24a1.45,1.45,0,0,0-1.13,1.23c0,.11.08.06.14-.1a2.18,2.18,0,0,1,.4-.63C2.41,70.38,3.08,70.29,2.76,70.24Z"/><path class="cls-1" d="M5.11,66.45a1.42,1.42,0,0,1,.14.86l.37,0A3,3,0,0,0,5.11,66.45Z"/><path class="cls-1" d="M3.29,71.05s-.12.07-.24.13a.69.69,0,0,0-.26.28c0,.09-.06.16,0,.13a1,1,0,0,1,.45-.26A3.38,3.38,0,0,1,3.8,71c.14-.08.2-.15.13-.13a.91.91,0,0,0-.22.06A3.2,3.2,0,0,1,3.29,71.05Z"/><path class="cls-1" d="M17.74,77a2.09,2.09,0,0,0-.11-.43l-.56.24A2.41,2.41,0,0,1,17.74,77Z"/><path class="cls-1" d="M34.25,79.83l-.09,0h0l-.12.34h0s0,0,0,0l0,0,0,0h0l.23,0,0-.19a4.55,4.55,0,0,0-.07-.45c-.09-.16-.1-.1-.07.06l0,.31,0,.19v.09h0l-.13,0h0l0,0,0,0,.07,0h.21C34.33,80.13,34.31,80.05,34.25,79.83Z"/><path class="cls-1" d="M33.94,80.21h-.07s0,0,0-.07c0,.08,0,.07,0,.07h.08Z"/><path class="cls-1" d="M15.35,5.61a3.29,3.29,0,0,0,.86.89.62.62,0,0,1,.1.17.47.47,0,0,0,0-.22,4.43,4.43,0,0,1-.37-.39A2.31,2.31,0,0,1,15.35,5.61Z"/><path class="cls-1" d="M17.05,6.92a2.6,2.6,0,0,1-.36.21,1,1,0,0,1,.32.39A5.49,5.49,0,0,1,17.05,6.92Z"/><path class="cls-1" d="M76.38,72.08l.09,0s0-.08,0-.13a6,6,0,0,1-.51-.55,4.06,4.06,0,0,0,.46.61A.34.34,0,0,1,76.38,72.08Z"/><path class="cls-1" d="M80.47,57.35l0,0s0-.06,0-.06Z"/><path class="cls-1" d="M80.2,48.27a4.23,4.23,0,0,0,.94,1.08s.06,0,.06,0,0,0,0-.07a6.19,6.19,0,0,1-.71-.93C80.35,48.16,80.28,48.11,80.2,48.27Z"/><rect class="cls-2" x="13.27" y="12.95" width="65.13" height="65.13" rx="5.53" transform="translate(99.96 10.26) rotate(102.11)"/><path class="cls-3" d="M68.72,81.51H68.6L68,81.37a.58.58,0,0,1-.46-.7.59.59,0,0,1,.7-.46l.06-.24a.59.59,0,0,1,.7-.46.6.6,0,0,1,.46.71l-.13.58a.28.28,0,0,1,0,.12.25.25,0,0,1,0,.12A.59.59,0,0,1,68.72,81.51Zm-2.9-.62h-.13l-.58-.13a.59.59,0,0,1,.25-1.16l.58.12a.6.6,0,0,1-.12,1.18Zm-2.91-.62-.12,0-.58-.12a.6.6,0,0,1-.46-.71.59.59,0,0,1,.71-.45l.58.12a.6.6,0,0,1,.45.71A.59.59,0,0,1,62.91,80.27ZM60,79.64h-.13l-.58-.13a.58.58,0,0,1-.45-.7.59.59,0,0,1,.7-.46l.58.13A.59.59,0,0,1,60,79.64ZM57.11,79H57l-.58-.13a.59.59,0,0,1-.46-.7.6.6,0,0,1,.71-.46l.58.12a.61.61,0,0,1,.46.71A.6.6,0,0,1,57.11,79ZM54.2,78.4l-.12,0-.58-.12a.59.59,0,0,1-.46-.71.59.59,0,0,1,.7-.45l.59.12a.6.6,0,0,1,.45.71A.59.59,0,0,1,54.2,78.4Zm15.2,0h-.13a.6.6,0,0,1-.45-.71l.12-.58a.59.59,0,0,1,1.16.25l-.12.58A.6.6,0,0,1,69.4,78.36Zm-18.1-.59h-.13l-.58-.12a.61.61,0,0,1-.46-.71.6.6,0,0,1,.71-.46l.58.13a.59.59,0,0,1-.12,1.17Zm-2.91-.62h-.12L47.69,77a.59.59,0,0,1-.46-.7.6.6,0,0,1,.71-.46l.58.12a.6.6,0,0,1,.45.71A.59.59,0,0,1,48.39,77.15Zm-2.9-.62-.13,0-.58-.12a.6.6,0,0,1-.45-.71.59.59,0,0,1,.7-.45l.58.12a.6.6,0,0,1-.12,1.18Zm-2.91-.63h-.12l-.58-.12a.6.6,0,0,1-.46-.71.61.61,0,0,1,.71-.46l.58.13a.59.59,0,0,1-.13,1.17ZM70,75.46l-.12,0a.58.58,0,0,1-.46-.7l.12-.58a.6.6,0,0,1,.71-.46.61.61,0,0,1,.46.71L70.6,75A.59.59,0,0,1,70,75.46Zm-30.34-.18h-.12L39,75.14a.59.59,0,0,1-.45-.7.59.59,0,0,1,.7-.46l.58.12a.6.6,0,0,1-.12,1.18Zm-2.9-.62-.13,0-.58-.12a.61.61,0,0,1-.46-.71.6.6,0,0,1,.71-.45l.58.12a.6.6,0,0,1-.12,1.18ZM33.87,74h-.12l-.58-.12a.6.6,0,0,1,.25-1.17l.58.13A.59.59,0,0,1,33.87,74ZM31,73.41h-.13l-.58-.13a.59.59,0,0,1-.45-.7.59.59,0,0,1,.7-.46l.58.12A.6.6,0,0,1,31,73.41Zm-2.91-.62-.12,0-.58-.12a.6.6,0,0,1-.46-.71.6.6,0,0,1,.71-.45l.58.12a.6.6,0,0,1,.45.71A.59.59,0,0,1,28.06,72.79Zm42.58-.24h-.12a.6.6,0,0,1-.46-.71l.13-.58a.59.59,0,0,1,.7-.45.59.59,0,0,1,.46.7l-.13.58A.59.59,0,0,1,70.64,72.55Zm-45.48-.39H25L24.45,72a.6.6,0,0,1,.25-1.17l.58.13a.58.58,0,0,1,.46.7A.6.6,0,0,1,25.16,72.16Zm-2.9-.62h-.13l-.58-.13a.59.59,0,1,1,.25-1.16l.58.13a.59.59,0,0,1,.46.7A.6.6,0,0,1,22.26,71.54Zm-2.91-.62-.12,0-.58-.12a.6.6,0,0,1-.46-.71.59.59,0,0,1,.71-.45l.58.12a.6.6,0,0,1,.45.71A.59.59,0,0,1,19.35,70.92Zm-2.9-.63h-.13l-.58-.12A.6.6,0,0,1,16,69l.58.13a.59.59,0,0,1-.12,1.17Zm-2.91-.62h-.12l-.58-.13a.59.59,0,0,1-.46-.7.6.6,0,0,1,.71-.46l.58.13a.58.58,0,0,1,.45.7A.59.59,0,0,1,13.54,69.67Zm57.73,0h-.13a.6.6,0,0,1-.45-.71l.12-.58a.61.61,0,0,1,.71-.46.6.6,0,0,1,.45.71l-.12.58A.6.6,0,0,1,71.27,69.65Zm-60.63-.6-.13,0-.2,0a.6.6,0,0,1-.38-.26.63.63,0,0,1-.08-.45l.08-.37a.61.61,0,0,1,.71-.46.6.6,0,0,1,.46.63.59.59,0,0,1-.46,1Zm61.25-2.3-.12,0a.59.59,0,0,1-.46-.7l.12-.58a.6.6,0,1,1,1.17.25l-.13.58A.6.6,0,0,1,71.89,66.75ZM11,66.31l-.12,0a.59.59,0,0,1-.46-.7l.13-.58a.58.58,0,0,1,.7-.46.59.59,0,0,1,.46.7l-.13.59A.6.6,0,0,1,11,66.31Zm61.5-2.47h-.12a.6.6,0,0,1-.46-.71l.13-.58a.59.59,0,0,1,1.16.25l-.13.58A.59.59,0,0,1,72.51,63.84ZM11.64,63.4h-.13a.6.6,0,0,1-.46-.71l.13-.58a.59.59,0,0,1,1.16.25l-.12.58A.6.6,0,0,1,11.64,63.4Zm61.5-2.46-.13,0a.58.58,0,0,1-.45-.7l.12-.58a.6.6,0,0,1,.71-.46.6.6,0,0,1,.45.71l-.12.58A.6.6,0,0,1,73.14,60.94ZM12.26,60.5l-.13,0a.59.59,0,0,1-.45-.7l.12-.58a.59.59,0,1,1,1.16.25l-.12.58A.6.6,0,0,1,12.26,60.5ZM73.76,58h-.12a.59.59,0,0,1-.46-.71l.12-.58a.6.6,0,0,1,1.17.25l-.13.58A.6.6,0,0,1,73.76,58Zm-60.88-.44h-.12a.6.6,0,0,1-.46-.71l.13-.58a.58.58,0,0,1,.7-.45.59.59,0,0,1,.46.7l-.13.58A.59.59,0,0,1,12.88,57.59Zm61.5-2.46h-.12a.6.6,0,0,1-.46-.71l.13-.58a.59.59,0,1,1,1.16.25l-.13.58A.59.59,0,0,1,74.38,55.13ZM13.5,54.69h-.12a.6.6,0,0,1-.46-.71l.13-.58a.59.59,0,0,1,.7-.46.6.6,0,0,1,.46.71l-.12.58A.6.6,0,0,1,13.5,54.69ZM75,52.23l-.13,0a.59.59,0,0,1-.45-.7l.12-.58a.59.59,0,1,1,1.16.25l-.12.58A.61.61,0,0,1,75,52.23Zm-60.88-.45H14a.59.59,0,0,1-.45-.7l.12-.58a.59.59,0,0,1,.71-.46.59.59,0,0,1,.45.7l-.12.59A.6.6,0,0,1,14.13,51.78Zm61.5-2.46h-.12a.59.59,0,0,1-.46-.71l.12-.58a.6.6,0,0,1,1.17.25l-.13.58A.6.6,0,0,1,75.63,49.32Zm-60.88-.44h-.12a.6.6,0,0,1-.46-.71l.13-.58a.59.59,0,0,1,.7-.46.6.6,0,0,1,.46.71l-.13.58A.59.59,0,0,1,14.75,48.88Zm61.5-2.46-.12,0a.59.59,0,0,1-.46-.7l.13-.58a.59.59,0,0,1,.7-.46.6.6,0,0,1,.46.71l-.13.58A.59.59,0,0,1,76.25,46.42ZM15.37,46l-.12,0a.59.59,0,0,1-.46-.7l.13-.58a.59.59,0,0,1,.7-.46.6.6,0,0,1,.46.71l-.12.58A.6.6,0,0,1,15.37,46Zm61.51-2.47h-.13a.6.6,0,0,1-.45-.71l.12-.58a.6.6,0,0,1,.71-.45.59.59,0,0,1,.45.7l-.12.58A.6.6,0,0,1,76.88,43.51ZM16,43.07h-.13a.6.6,0,0,1-.45-.71l.12-.58a.6.6,0,0,1,.71-.45.59.59,0,0,1,.45.7l-.12.58A.6.6,0,0,1,16,43.07Zm61.5-2.46h-.12a.59.59,0,0,1-.46-.71l.12-.58a.6.6,0,0,1,.71-.46.61.61,0,0,1,.46.71l-.13.58A.6.6,0,0,1,77.5,40.61Zm-60.88-.44H16.5a.6.6,0,0,1-.46-.71l.12-.58a.6.6,0,0,1,1.17.25l-.13.58A.59.59,0,0,1,16.62,40.17Zm61.5-2.47H78a.59.59,0,0,1-.46-.7l.13-.58a.58.58,0,0,1,.7-.46.59.59,0,0,1,.46.7l-.13.59A.59.59,0,0,1,78.12,37.7Zm-60.88-.44h-.12a.59.59,0,0,1-.46-.7l.13-.59a.59.59,0,0,1,.7-.45.59.59,0,0,1,.46.7l-.13.58A.58.58,0,0,1,17.24,37.26ZM78.75,34.8h-.13a.6.6,0,0,1-.45-.71l.12-.58a.59.59,0,0,1,.71-.45.58.58,0,0,1,.45.7l-.12.58A.6.6,0,0,1,78.75,34.8Zm-60.88-.44h-.13a.6.6,0,0,1-.45-.71l.12-.58a.61.61,0,0,1,.71-.46.6.6,0,0,1,.45.71l-.12.58A.6.6,0,0,1,17.87,34.36Zm61.5-2.46-.12,0a.58.58,0,0,1-.46-.7l.12-.58a.6.6,0,0,1,.71-.46.61.61,0,0,1,.46.71l-.13.58A.6.6,0,0,1,79.37,31.9Zm-60.88-.44-.12,0a.59.59,0,0,1-.46-.7l.12-.58a.6.6,0,1,1,1.17.25l-.13.58A.59.59,0,0,1,18.49,31.46ZM80,29h-.12a.6.6,0,0,1-.46-.71l.13-.58a.59.59,0,0,1,.7-.45.59.59,0,0,1,.46.7l-.13.58A.59.59,0,0,1,80,29Zm-60.88-.44H19a.6.6,0,0,1-.46-.71l.13-.58a.59.59,0,0,1,.7-.45.59.59,0,0,1,.46.7l-.13.58A.58.58,0,0,1,19.11,28.55Zm61.51-2.46h-.13a.6.6,0,0,1-.45-.71l.12-.58a.59.59,0,1,1,1.16.25l-.12.58A.6.6,0,0,1,80.62,26.09Zm-60.88-.44-.13,0a.58.58,0,0,1-.45-.7l.12-.58a.6.6,0,0,1,.71-.46.6.6,0,0,1,.45.71l-.12.58A.6.6,0,0,1,19.74,25.65Zm61.45-2.43-.12,0-.58-.12a.6.6,0,0,1-.46-.71.59.59,0,0,1,.71-.45l.58.12a.6.6,0,0,1-.13,1.18Zm-60.83-.48h-.12a.59.59,0,0,1-.46-.7l.12-.59a.6.6,0,0,1,1.17.25l-.13.58A.59.59,0,0,1,20.36,22.74Zm57.93-.15h-.13l-.58-.13a.58.58,0,0,1-.45-.7.59.59,0,0,1,.7-.46l.58.13a.59.59,0,0,1-.12,1.17ZM75.38,22h-.12l-.58-.13a.59.59,0,1,1,.25-1.16l.58.12a.6.6,0,0,1,.45.71A.59.59,0,0,1,75.38,22Zm-2.9-.62-.13,0-.58-.12a.6.6,0,0,1-.45-.71.59.59,0,0,1,.7-.45l.58.12a.6.6,0,0,1-.12,1.18Zm-2.9-.63h-.13l-.58-.13a.59.59,0,0,1-.46-.7.6.6,0,0,1,.71-.46l.58.13a.59.59,0,0,1-.12,1.17Zm-2.91-.62h-.12L66,20a.58.58,0,0,1-.46-.7.6.6,0,0,1,.71-.46l.58.12a.6.6,0,0,1,.45.71A.59.59,0,0,1,66.67,20.1ZM21,19.84h-.12a.6.6,0,0,1-.46-.71l.13-.58a.59.59,0,1,1,1.16.25l-.13.58A.59.59,0,0,1,21,19.84Zm42.79-.36-.13,0-.58-.12a.6.6,0,0,1-.45-.71.58.58,0,0,1,.7-.45l.58.12a.6.6,0,0,1-.12,1.18Zm-2.91-.63h-.12l-.58-.13a.59.59,0,0,1-.46-.7.6.6,0,0,1,.71-.46l.58.13a.59.59,0,0,1-.13,1.17ZM58,18.23h-.13l-.58-.13a.59.59,0,0,1-.45-.7.59.59,0,0,1,.7-.46l.58.12A.6.6,0,0,1,58,18.23Zm-2.9-.62-.13,0-.58-.12a.6.6,0,0,1-.46-.71.6.6,0,0,1,.71-.45l.58.12a.61.61,0,0,1,.46.71A.6.6,0,0,1,55.06,17.61ZM52.15,17H52l-.58-.13a.58.58,0,0,1-.46-.7.59.59,0,0,1,.7-.46l.59.13A.59.59,0,0,1,52.15,17Zm-30.54,0-.13,0a.59.59,0,0,1-.45-.7l.12-.58a.6.6,0,0,1,.71-.46.59.59,0,0,1,.45.71l-.12.58A.6.6,0,0,1,21.61,16.94Zm27.64-.58h-.13l-.58-.13a.59.59,0,0,1,.25-1.16l.58.12a.6.6,0,0,1-.12,1.18Zm-2.91-.62-.12,0-.58-.12a.6.6,0,0,1-.46-.71.59.59,0,0,1,.71-.45l.58.12a.6.6,0,0,1,.45.71A.59.59,0,0,1,46.34,15.74Zm-2.9-.63h-.13L42.73,15a.58.58,0,0,1-.45-.7.59.59,0,0,1,.7-.46l.58.13a.59.59,0,0,1-.12,1.17Zm-2.91-.62h-.12l-.58-.13a.59.59,0,0,1-.46-.7.6.6,0,0,1,.71-.46l.58.12a.6.6,0,0,1,.45.71A.58.58,0,0,1,40.53,14.49ZM22.23,14h-.12a.6.6,0,0,1-.46-.71l.12-.58a.6.6,0,0,1,.71-.45.59.59,0,0,1,.46.7l-.13.58A.59.59,0,0,1,22.23,14Zm15.4-.16-.12,0-.59-.12a.6.6,0,0,1-.45-.71.59.59,0,0,1,.7-.45l.58.12a.6.6,0,0,1-.12,1.18Zm-2.9-.63H34.6L34,13.1a.59.59,0,0,1-.46-.7.6.6,0,0,1,.71-.46l.58.13a.59.59,0,0,1-.12,1.17Zm-2.91-.62H31.7l-.58-.13a.59.59,0,1,1,.25-1.16l.58.12a.6.6,0,0,1,.45.71A.59.59,0,0,1,31.82,12.62ZM28.92,12l-.13,0-.58-.12a.6.6,0,0,1-.45-.71.59.59,0,0,1,.7-.45l.58.12A.6.6,0,0,1,28.92,12ZM26,11.37h-.12l-.58-.12a.6.6,0,0,1,.25-1.17l.58.13A.59.59,0,0,1,26,11.37Zm-3.16-.24-.12,0a.59.59,0,0,1-.46-.7l.09-.41a.59.59,0,0,1,.71-.46l.16,0a.6.6,0,0,1,.46.71.58.58,0,0,1-.25.37h0A.59.59,0,0,1,22.85,11.13Z"/><path class="cls-3" d="M65.76,59.85h-.13l-.17,0a.59.59,0,0,1,.25-1.16l.17,0a.59.59,0,0,1,.46.7A.6.6,0,0,1,65.76,59.85Zm-2.5-.53-.12,0-.58-.12a.6.6,0,0,1-.46-.71.6.6,0,0,1,.71-.45l.58.12a.6.6,0,0,1,.45.71A.59.59,0,0,1,63.26,59.32Zm-2.9-.63h-.13l-.58-.13a.58.58,0,0,1-.45-.7.59.59,0,0,1,.7-.46l.58.13a.58.58,0,0,1,.46.7A.6.6,0,0,1,60.36,58.69Zm-2.9-.62h-.13l-.58-.13A.59.59,0,1,1,57,56.77l.58.12a.6.6,0,0,1-.12,1.18Zm-2.91-.62-.12,0-.58-.12a.6.6,0,0,1-.46-.71.59.59,0,0,1,.71-.45l.58.12a.6.6,0,0,1,.45.71A.59.59,0,0,1,54.55,57.45Zm-2.9-.63h-.13l-.58-.13a.58.58,0,0,1-.45-.7.59.59,0,0,1,.7-.46l.58.13a.59.59,0,0,1-.12,1.17Zm-2.91-.62h-.12L48,56.06a.59.59,0,1,1,.25-1.16l.58.12a.6.6,0,0,1,.45.71A.59.59,0,0,1,48.74,56.2Zm-2.9-.62-.13,0-.58-.12a.6.6,0,0,1-.45-.71.59.59,0,0,1,.7-.45l.58.12a.6.6,0,0,1-.12,1.18ZM42.94,55h-.13l-.58-.13a.59.59,0,0,1-.46-.7.6.6,0,0,1,.71-.46l.58.13A.59.59,0,0,1,42.94,55ZM40,54.33h-.12l-.58-.13a.58.58,0,0,1-.46-.7.6.6,0,0,1,.71-.46l.58.12a.6.6,0,0,1,.45.71A.59.59,0,0,1,40,54.33Zm-2.9-.62-.13,0-.58-.12a.6.6,0,0,1-.45-.71.58.58,0,0,1,.7-.45l.58.12a.6.6,0,0,1-.12,1.18Zm-2.91-.63H34.1L33.52,53a.6.6,0,1,1,.25-1.17l.58.13a.59.59,0,0,1-.13,1.17Zm-2.9-.62h-.13l-.58-.13a.59.59,0,0,1-.45-.7.59.59,0,0,1,.7-.46l.58.12a.6.6,0,0,1-.12,1.18Zm-2.9-.62-.13,0-.58-.12a.6.6,0,0,1-.46-.71.6.6,0,0,1,.71-.45l.58.12a.61.61,0,0,1,.46.71A.6.6,0,0,1,28.42,51.84Zm-2.91-.63h-.12l-.58-.12a.6.6,0,0,1,.24-1.17l.59.13a.59.59,0,0,1-.13,1.17Zm-2.9-.62h-.13l-.58-.13a.59.59,0,0,1,.25-1.16l.58.12a.6.6,0,0,1-.12,1.18Z"/><text class="cls-4" transform="translate(18.95 58.72) rotate(12.11) scale(0.87 1)">PLAN<tspan class="cls-5" x="26.07" y="0">T</tspan><tspan class="cls-6" x="30.47" y="0">A DE</tspan><tspan x="8.66" y="10.21">AGUAS</tspan></text><path class="cls-1" d="M55.84,39.92l-.31,1.44a1.3,1.3,0,0,0,1,1.54L61.39,44a1.3,1.3,0,0,0,1.54-1l.31-1.44a1.3,1.3,0,0,0-1-1.54l-4.87-1A1.3,1.3,0,0,0,55.84,39.92Zm6.31,1.35-.31,1.45a.19.19,0,0,1-.21.14l-4.87-1a.18.18,0,0,1-.14-.21l.31-1.45a.19.19,0,0,1,.21-.14L62,41.06A.18.18,0,0,1,62.15,41.27Z"/><path class="cls-1" d="M41.7,36.15a3.05,3.05,0,0,0-.06-1.53v0l-.72-2.23v0L40.8,32l-.28-.82v0a1.28,1.28,0,0,0-.91-.79,1.36,1.36,0,0,0-1.24.41h0l-.79.83h0L36,33.38h0a3.12,3.12,0,0,0-.69,1.37,3.3,3.3,0,0,0,6.44,1.39ZM36.35,35a1.9,1.9,0,0,1,.44-.87l1.58-1.73.77-.82c.1-.1.18-.12.22-.11a.2.2,0,0,1,.12.12c.18.55.23.7.26.77a2.69,2.69,0,0,0,.12.35l.71,2.23a1.88,1.88,0,0,1,0,1A2.18,2.18,0,0,1,36.35,35Z"/><path class="cls-1" d="M63.41,51.52l2.77-12.9a1.3,1.3,0,0,0-1-1.54l-.94-.21.34-1.59A4,4,0,0,0,62,30.68l1.31-6.1a2,2,0,0,0-1.56-2.42L47.56,19.11a2,2,0,0,0-2.41,1.56L44.87,22a12.43,12.43,0,0,0-7.61,1.15A10.44,10.44,0,0,0,31.9,30.5l-1.08,5a.56.56,0,0,0,1.09.23l1.08-5c1.44-6.69,7.49-8.58,12.5-7.5a13.1,13.1,0,0,1,2.57.84L43.15,46.93l-13-2.79,1.26-5.87a.56.56,0,0,0-.43-.66h0a.56.56,0,0,0-.66.43L29,43.9l-.69-.14a1.29,1.29,0,0,0-1.53,1l-.23,1a1.3,1.3,0,0,0,1,1.54L62,54.72a1.3,1.3,0,0,0,1.54-1l.22-1A1.31,1.31,0,0,0,63.41,51.52Zm.08-16.47-.35,1.59-1.6-.34a.55.55,0,0,0-.66.42.57.57,0,0,0,.43.67l3.64.78a.18.18,0,0,1,.14.21L62.37,51.06,60,50.56,60.78,47a1.16,1.16,0,0,0-.9-1.39L57,45a1.17,1.17,0,0,0-1.39.91l-.76,3.51-2.62-.56L55,36l3.8.82a.56.56,0,0,0,.66-.43.54.54,0,0,0-.43-.66l-1.54-.33.34-1.6a2.89,2.89,0,1,1,5.65,1.22ZM56,49.68l.76-3.51s0-.05.07-.05l2.86.62s.05,0,0,.07l-.75,3.51Zm-6.61-1.41,4.11-19.12a9.53,9.53,0,0,1,.58,6.1l-2.88,13.4Zm1.76-13.5-4-.86.52-2.41,4,.86Zm-.23,1.09-.52,2.41-4-.86L46.86,35Zm-.76,3.5-.51,2.41-4-.86.52-2.41Zm1.74-8.09-4-.86L48.36,28l4,.86ZM45.35,42l4,.86-.51,2.41-4-.86Zm2-21.8,14.23,3.05a.92.92,0,0,1,.7,1.09L61,30.44a4,4,0,0,0-4.2,3.16l-.34,1.59-1.18-.25a10.27,10.27,0,0,0-1.54-7.64v0c-.16-.24-.33-.47-.51-.7A13,13,0,0,0,46,22.2l.28-1.29A.92.92,0,0,1,47.33,20.2Zm5,7.08.32.43v.06l-4-.86.5-2.31A11.06,11.06,0,0,1,52.3,27.28ZM44.6,45.5l4,.86L48.26,48l-4-.86Zm17.82,8a.18.18,0,0,1-.22.14L27.81,46.25a.18.18,0,0,1-.14-.22l.23-1a.18.18,0,0,1,.21-.14L62.5,52.23a.18.18,0,0,1,.14.21Z"/></svg>