<svg id="Capa_1" data-name="Capa 1" xmlns="http://www.w3.org/2000/svg" viewBox="0 0 79.3 60.12"><defs><style>.cls-1{fill:none;}.cls-2{fill:#8746a2;}.cls-3,.cls-4{fill:#752994;}.cls-4{font-size:13.98px;font-family:VAGRounded-Bold, VAG Rounded;font-weight:700;}.cls-5{letter-spacing:-0.02em;}</style></defs><rect class="cls-1" x="17.06" y="-3.25" width="45.28" height="66.9" rx="6.25" transform="translate(67.32 -11.33) rotate(86.37)"/><path class="cls-2" d="M75.54,56.07c-.44,0-.27.17-.34.2C75.93,56.19,75.51,56,75.54,56.07Z"/><polygon class="cls-2" points="79.21 49.99 79.29 50.11 79.05 49.06 79.21 49.99"/><path class="cls-2" d="M77.84,43.64c0,.17.31.28.75,1.11a2.89,2.89,0,0,1,.22.58,3.57,3.57,0,0,1,.1.6,6.7,6.7,0,0,1,0,1l0,.2.26.53-.11-1.15-.07-.6a3.72,3.72,0,0,0-.13-.7,3.42,3.42,0,0,0-.27-.65,2.68,2.68,0,0,0-.18-.28l-.09-.14-.08-.1A2.7,2.7,0,0,0,77.84,43.64Z"/><path class="cls-2" d="M79.25,40.79c0,.12-.08-.08-.09-.1l0,.16,0,.13s0,.09,0,.19a4.5,4.5,0,0,1,0,.71l0-.22a3.84,3.84,0,0,0,0-.39Z"/><path class="cls-2" d="M79.25,41.66c-.06.51,0,.35,0,.14S79.32,41.33,79.25,41.66Z"/><path class="cls-2" d="M78.23,38.33l.14.06.06,0s0,0,0,0l0,.07.11.13a.69.69,0,0,0-.06-.13l-.05-.08,0,0h0v0s0,0,0,0C78.37,38.24,78.24,38.23,78.23,38.33Z"/><path class="cls-2" d="M77.89,38.21a.17.17,0,0,1-.06.06l.09,0s0,0,0,0S77.9,38.24,77.89,38.21Z"/><path class="cls-2" d="M78.29,38.48a1.82,1.82,0,0,0-.37-.18s-.11.06.18.08C78,38.39,78.15,38.41,78.29,38.48Z"/><path class="cls-2" d="M78.62,39.06a2.74,2.74,0,0,1,.24.9c0,.08,0,.1,0,0s-.09-.24-.23-.52a5.28,5.28,0,0,1,.23.72c0,.2.06.4.08.48s.07.27.09.24,0-.06,0-.14v-.32A3.2,3.2,0,0,0,78.62,39.06Z"/><path class="cls-2" d="M77.22,43.58a1.41,1.41,0,0,1,.39.32,2.14,2.14,0,0,1,.44.31,3.64,3.64,0,0,0-.44-.43A.76.76,0,0,0,77.22,43.58Z"/><path class="cls-2" d="M78.14,33.12a.15.15,0,0,0-.08.09h0s0,0,0,0l0,.1a.64.64,0,0,1,0,.15,3.55,3.55,0,0,1,.49.84,3.6,3.6,0,0,0-.35-.87,1.28,1.28,0,0,0-.11-.2l-.05-.08v0S78.12,33.14,78.14,33.12Z"/><path class="cls-2" d="M78.12,33.5,78,33.36,78,33.3s0,0,0,0l-.08,0a1.24,1.24,0,0,0-.2-.1l.17.13.05,0,.06.06C78.07,33.53,78.11,33.56,78.12,33.5Z"/><path class="cls-2" d="M77.56,38.15l-.14.15a2.9,2.9,0,0,1,.68.31,2.32,2.32,0,0,0-.65-.31,1.2,1.2,0,0,0,.24-.29Z"/><path class="cls-2" d="M78.7,30.8a3.77,3.77,0,0,1,0,.89,4.26,4.26,0,0,0,0-.8,4.85,4.85,0,0,0-.13-.6l.05.22s0,.07,0,.12Z"/><path class="cls-2" d="M77.77,27.88c.08,0,.1,0,.14-.07l.12,0h-.09a.12.12,0,0,1-.12-.08s0,.07-.07.09A.19.19,0,0,1,77.77,27.88Z"/><path class="cls-2" d="M78.09,26.78a5,5,0,0,1-.19.63l-.07.16,0,.08s0,0,0,0,0,0,0,0A9.37,9.37,0,0,0,78.09,26.78Z"/><path class="cls-2" d="M77.86,32.73h0a.61.61,0,0,0,.14-.14,2.19,2.19,0,0,0,.38-.75,4.14,4.14,0,0,1-.34.48l-.12.24-.07.12Z"/><path class="cls-2" d="M78.06,32.32h0a3.87,3.87,0,0,0,.3-1.16A3.61,3.61,0,0,1,78.06,32.32Z"/><path class="cls-2" d="M77.83,32.76l0,0S77.82,32.74,77.83,32.76Z"/><path class="cls-2" d="M78.48,35.62l0-.24a2.09,2.09,0,0,0-.08-.34,2.61,2.61,0,0,0-.22-.56c-.08-.13-.14-.19-.15-.13s0,.24.08.59.14.16.19.15.06,0,.1.08a.85.85,0,0,1,.06.19C78.43,35.42,78.45,35.51,78.48,35.62Z"/><path class="cls-2" d="M77.47,32.87a2.23,2.23,0,0,1-.3.2.72.72,0,0,1,.19.11s0-.08.22,0a1.69,1.69,0,0,0-.27-.1A1.06,1.06,0,0,0,77.47,32.87Z"/><path class="cls-2" d="M77.6,32.64a1.71,1.71,0,0,1-.13.23,1.06,1.06,0,0,0,.15-.15Z"/><path class="cls-2" d="M77.31,27.8a.77.77,0,0,1,.11-.17l.08-.12.08-.15.13-.27-.14.25-.07.12,0,0-.12.12a1.42,1.42,0,0,1-.28.22l.09,0c.1,0,.28,0,.12-.06Z"/><path class="cls-2" d="M78.18,29.21l-.06-.14C78.14,29.16,78.15,29.23,78.18,29.21Z"/><path class="cls-2" d="M77.12,22.33l-.06,0,0,0Z"/><path class="cls-2" d="M77.16,27.9c.07.05.14.11.21.15l.19.12a1.36,1.36,0,0,0-.39-.3S77.09,27.87,77.16,27.9Z"/><path class="cls-2" d="M78.13,24.72c0,.2,0,.29,0,.44l0,.49,0-.29,0-.25a1.77,1.77,0,0,0,0-.22A.34.34,0,0,0,78.13,24.72Z"/><path class="cls-2" d="M78.08,28.85l0,.09C78.08,28.73,78.07,28.76,78.08,28.85Z"/><path class="cls-2" d="M78.08,28.85a2.75,2.75,0,0,0-.52-.68,3.89,3.89,0,0,1,.56.9C78.1,29,78.09,28.91,78.08,28.85Z"/><path class="cls-2" d="M76.58,20.38c.08,0,.17.37.07.83a2,2,0,0,1-.31.69,1.89,1.89,0,0,1-.62.56c-.11.12-.18.19-.17.22a.71.71,0,0,0,.54,0,7.25,7.25,0,0,0,1-.29s-.06,0,0-.09a.13.13,0,0,1,0-.06v-.05s0-.07,0-.11a3.81,3.81,0,0,0,.24-.76,4.72,4.72,0,0,1-.3.58,1.74,1.74,0,0,1-.11.18l-.09.09a1,1,0,0,1-.18.17c-.25.19-.53.32-.34.09a3,3,0,0,0,.37-.5l.23-.4a2.57,2.57,0,0,0,.31-.71c-.16.33-.11-.23-.25-.72a3.45,3.45,0,0,0-.2-.68c-.09-.16-.18-.23-.23-.14a2.92,2.92,0,0,1,.14.6c0,.21.07.42.08.63C76.7,20.48,76.61,20.05,76.58,20.38Z"/><path class="cls-2" d="M77.13,22.86l.07.07a2.5,2.5,0,0,1,.18.24L77.25,23l0-.05s0,0,0,0l0,0,0-.11a.31.31,0,0,1,0-.17h0c.06-.1,0-.19,0-.21a1.56,1.56,0,0,1-.28.23.91.91,0,0,1,.38.3Z"/><path class="cls-2" d="M78,25.57c-.1-.27-.18-.51-.27-.82s-.18-.38-.22,0,.06.54.08.74,0,.31,0,.41a1.78,1.78,0,0,1,0,.81,3.66,3.66,0,0,0,.18-1c0-.09,0,0,0,.18a1.64,1.64,0,0,0,0,.33s.1-.13.13-.64a3.32,3.32,0,0,1-.26,1.5,3.76,3.76,0,0,0,.38-1.44v.07h0c0,.12,0,.16,0,0v-.06a.44.44,0,0,1-.06-.12,1.8,1.8,0,0,1,0-.32s0,0,0,0a1.3,1.3,0,0,1,0,.18v.24s0,0,0,0h0a3.49,3.49,0,0,0,0-.35l0-.26,0-.28c0-.12,0-.24,0-.36a3.61,3.61,0,0,0-.57-1.3,4.72,4.72,0,0,1,.43,1,4.36,4.36,0,0,1,.12.71l0,.32C78,25.29,78,25.38,78,25.57Z"/><path class="cls-2" d="M77.24,34c0-.06,0-.06,0-.07S77.08,33.77,77.24,34Z"/><path class="cls-2" d="M76.76,33.36a1.26,1.26,0,0,1,.56.43c.23.41-.06.05-.09.11s.28.32.36.41.12,0-.13-.44l-.11-.12a2.68,2.68,0,0,0-.6-.66,3.32,3.32,0,0,1,.43-.18l-.59.19A.85.85,0,0,0,76.76,33.36Z"/><path class="cls-2" d="M77.6,29.08a2.56,2.56,0,0,0-.27-.45,1.56,1.56,0,0,0-.16-.2l-.1-.11a2.12,2.12,0,0,0-.55-.37,1.94,1.94,0,0,1,.39.47l0-.07a5.22,5.22,0,0,1,.32.42,1,1,0,0,0,.16.22C77.51,29.07,77.54,29,77.6,29.08Z"/><path class="cls-2" d="M77.24,22.31a.49.49,0,0,0,.13.12c0-.06-.07,0,0-.33a4.34,4.34,0,0,0,.14-.7,4.91,4.91,0,0,1-.15.51c0,.09-.07.17-.11.25l-.06.13S77.24,22.3,77.24,22.31Z"/><path class="cls-2" d="M77.7,19.55l.17.1a3.86,3.86,0,0,0-.24-.82A4.39,4.39,0,0,1,77.7,19.55Z"/><path class="cls-2" d="M2.74,25.34a1,1,0,0,0,.17.28A1.38,1.38,0,0,1,2.74,25.34Z"/><path class="cls-2" d="M4.43,22.27s0-.07,0-.1C4.24,22.35,4.15,22.45,4.43,22.27Z"/><path class="cls-2" d="M43.52,2.4a.55.55,0,0,1-.34,0s0,0,0,.07l0,.18,0,.07A.48.48,0,0,1,43.52,2.4Z"/><path class="cls-2" d="M12.61,5.38l.2-.11a2.32,2.32,0,0,1,.34-.41A2.63,2.63,0,0,0,12.61,5.38Z"/><path class="cls-2" d="M12.52,6.88c-.19.3-.36.6-.49.84l-.35-.64c.09.18.21.4.35.66Z"/><path class="cls-2" d="M4.78,41.87l1.58.56a12.69,12.69,0,0,0-1.49-.65C4.79,41.78,4.91,41.88,4.78,41.87Z"/><path class="cls-2" d="M72.09,0c-.66,0-1.17,0-1.63,0C71.25.07,71.89.18,72.09,0Z"/><path class="cls-2" d="M.78,24.13a1.69,1.69,0,0,0,.06.44q0,.11.06.09c0-.14-.05-.34-.06-.43S.81,24.08.78,24.13Z"/><path class="cls-2" d="M68.59.14l.35,0c.47-.06.94-.11,1.52-.14A6,6,0,0,0,68.59.14Z"/><path class="cls-2" d="M51.12,54.15l.16-.29C51.29,53.79,51.22,53.93,51.12,54.15Z"/><path class="cls-2" d="M68.64,56a2.36,2.36,0,0,1-.48-.19L68,55.77l-.07,0-.11-.07.13.09A2.61,2.61,0,0,0,68.64,56Z"/><path class="cls-2" d="M76.37,12.13c.14.06,0,0,0,0Z"/><path class="cls-2" d="M76.66,13.85c0-.11-.1-.19-.15-.19A.34.34,0,0,1,76.66,13.85Z"/><path class="cls-2" d="M64.34,2.73l0,0C64.4,2.69,64.39,2.7,64.34,2.73Z"/><path class="cls-2" d="M76.47,12.27a.32.32,0,0,0-.11-.12Z"/><path class="cls-2" d="M76.53,12.22l.08.09S76.66,12.29,76.53,12.22Z"/><path class="cls-2" d="M76.51,12a.57.57,0,0,1-.18.12l0,0s0,0,0,0h0Z"/><path class="cls-2" d="M18.77,58.06l.08,0C19.16,57.8,19,57.9,18.77,58.06Z"/><path class="cls-2" d="M34.23,4.46l0,0,0,0Z"/><path class="cls-2" d="M32.71,6.5a3.08,3.08,0,0,1,.25.27,9,9,0,0,1,.62-1.5,4.2,4.2,0,0,1,.31-.52c.06-.07.11-.14.18-.21l.06,0,0,0,.05,0a.65.65,0,0,0-.17,0,1.3,1.3,0,0,0-.21,0,2.83,2.83,0,0,1-.37.06c-.14.51-.32,1.27-.51,2.09A1.56,1.56,0,0,1,32.71,6.5Z"/><path class="cls-2" d="M5.23,32.68l.62-.33-1.63-.91,2.15.87-1.11.77-.67.47c-.18.16,0,.06,1.24-.6-.1-.05.24-.34.65-.64-.36-.14-.78-.31-1.27-.53l-.73-.33-.36-.17L4,31.2l-.14-.1L3.67,31l-.06-.06,0,0-.06-.07a1,1,0,0,1-.1-.17,1.45,1.45,0,0,1-.12-.35,1.05,1.05,0,0,1,0-.21l0-.32,0-.15v-.08l0-.15c0-.18-.05-.33-.15-.38a1.7,1.7,0,0,1,.15-.22l.09-.1a1.29,1.29,0,0,1,.27-.25l-.18.18-.08.12a.6.6,0,0,1,0,.14l.06-.08,0,0,0,0h0l0,0v0a1,1,0,0,1,.19-.17,1.08,1.08,0,0,1,.2-.16c.29-.19.53-.37.73-.52a5.26,5.26,0,0,0,.78-.73A11,11,0,0,1,4,26.68c-.23-.11-.49-.23-.74-.37a2.62,2.62,0,0,1-.34-.24L2.86,26l0,0a.41.41,0,0,1-.05-.09c-.24-.46-.17-.81,0-.52a.85.85,0,0,1-.09-.24,1.21,1.21,0,0,1-.07-.3l-.05-.38a1.24,1.24,0,0,1,0-.27c0-.16.06-.21.08-.19a.64.64,0,0,1,0,.27,1.84,1.84,0,0,1,.18-.76l.08-.13L3,23.16c.13-.12.29-.22.44-.34.32-.23.67-.47,1-.67v0a2.55,2.55,0,0,1,.3-.25c-.35-.11-.83-.29-1.26-.47a5.27,5.27,0,0,1-1-.49.29.29,0,0,1-.09-.11l0-.05s0,0,0,0l.07.06c.14.15.41.3.34.21l-.22-.15a.41.41,0,0,1-.1-.09l0,0c-.05-.06-.11-.12-.16-.19a1.7,1.7,0,0,1-.24-.44c0-.22.1-.11.22.08s.13.22.22.35l.07.09.11.12a2,2,0,0,0,.23.18,2.4,2.4,0,0,0,.27.16,2.19,2.19,0,0,1-.44-.5c0-.08,0-.14-.06-.2a3.49,3.49,0,0,0-.18-.31.64.64,0,0,1-.1-.22.57.57,0,0,1,0-.14c0-.07,0-.17,0-.26s0-.21,0-.3a1.7,1.7,0,0,1,0-.22,1.29,1.29,0,0,1,.21-.51,1.52,1.52,0,0,0-.06.73c.13-.22.21-.41.33-.61l0-.08L3,18.34c.09-.09.2-.18.31-.27l.43-.26c.6-.36,1.38-.82,2.06-1.2l-.56-.3.5.3-1.61.85a11.5,11.5,0,0,0-1.33.77l-.07.08,0,0-.06,0a.14.14,0,0,1-.09,0s0,0,0-.09v0s0,0,0-.08a2,2,0,0,1,.21-.25l.82-.55,1-.67L3.38,16.2c.15,0-.2-.24-.71-.54a2.07,2.07,0,0,1-.31-.27,1.3,1.3,0,0,0-.1-.15,1.91,1.91,0,0,1-.18-.38l.26,0a3,3,0,0,1-.13-.3.5.5,0,0,1,0-.16,1.21,1.21,0,0,1-.05-.14,4.71,4.71,0,0,1-.22-.6A2.57,2.57,0,0,1,2.18,12c-.08-1.83-.24,1.28-.42-.88A19.42,19.42,0,0,0,1.64,9L1.51,8a1.73,1.73,0,0,1,.1-.85c.23-.3.25-.23.23-.14s-.06.23,0,.14a1.41,1.41,0,0,1,.26-.59c.13-.09.12,0,.12,0,.2-.18.19-.23.21-.31S2.54,6,3,5.94c0-.08.25-.11.53-.1s.64,0,1,0A8.11,8.11,0,0,0,7.1,5.76c.38,0-.18.17-.06.26L9,5.71l.62-.12a2.33,2.33,0,0,1,.8,0,2.26,2.26,0,0,1,.26.16l.13.1A1.57,1.57,0,0,1,11,6a11.65,11.65,0,0,1,.73,1.1c-.37-.66-.43-.81-.31-.8a1.89,1.89,0,0,1,.6.46,4.19,4.19,0,0,1,.64-1.36,1.88,1.88,0,0,0-.62.47,2.65,2.65,0,0,1,.49-.74,2.19,2.19,0,0,1,.38-.32,3.59,3.59,0,0,1,.47-.27c.26,0,.07.1-.18.34a3.19,3.19,0,0,1,.32-.2c.36-.06.45,0,.4.08a4.75,4.75,0,0,1-.42.34,3.11,3.11,0,0,0-.64.19,3,3,0,0,0-.37.83c-.08.3-.12.57-.06.61a4.11,4.11,0,0,1,.5-.93c-.09.16-.13.34-.07.28s.08-.14.17-.26a.61.61,0,0,1,.07-.1l0,0,0,0a.75.75,0,0,1,.12-.14,1.84,1.84,0,0,1,.42.1l0-.13a1.91,1.91,0,0,1,.47-.07h.6a1.86,1.86,0,0,1,.85.24.7.7,0,0,1,.14,0l.07,0h0l0,0,.07,0a3,3,0,0,1,.49.46c.31.34.61.67.81.92a11.55,11.55,0,0,1,.66-1.58,2.2,2.2,0,0,1,.19-.3l.1-.12.09-.08a2,2,0,0,1,.39-.3,2.59,2.59,0,0,1,1.08-.33,2.52,2.52,0,0,1,1.35.09c-.37,0-.42.07-.4.16s.09.22,0,.34a.87.87,0,0,0-.53-.19,1.67,1.67,0,0,0-.37,0l-.44.06a2.21,2.21,0,0,0-.73.3l-.17.12a1.9,1.9,0,0,0-.2.18,5.54,5.54,0,0,0-.5.78,3.65,3.65,0,0,1,.39-.59c.1-.1.15-.14.18-.14s0,.14-.11.29l.16-.23.12-.12.18-.14a2.13,2.13,0,0,1,.42-.23A1.9,1.9,0,0,1,19.66,5L20,5a2.3,2.3,0,0,1,.26,0c-.06.21.4.14.8.5-.05-.1,0-.13,0-.15s.07,0,.13,0a1.3,1.3,0,0,1,.19.13,7.68,7.68,0,0,1,1.07,1.34,9.83,9.83,0,0,1,.7-1.37,2,2,0,0,1,.19-.28L23.45,5l.09-.08.24-.19c.06,0,0,.12-.06.25l-.11.12a1,1,0,0,0-.13.15,1.56,1.56,0,0,0-.13.19c-.18.31-.43.77-.69,1.29.31-.44.61-1,.85-1.4l.09-.13,0,0,0,0L23.77,5a1.8,1.8,0,0,1,.19-.2,1.08,1.08,0,0,1,.5-.32,2,2,0,0,1,.85,0l-.36,0a.48.48,0,0,0-.23.06L25,4.48l.35,0a1.7,1.7,0,0,1,.64.13,1.45,1.45,0,0,1,.25.12l.09.07.08.07c.13.13.15.2,0,.12a1.27,1.27,0,0,0-.15-.11l-.11,0a1.48,1.48,0,0,1,.28.19,2.73,2.73,0,0,1,.4.47,14.27,14.27,0,0,1,.82,1.21,13.82,13.82,0,0,1,.67-1.33A3.21,3.21,0,0,1,28.57,5a2.56,2.56,0,0,1,.2-.26l.09-.07.07,0,.14-.09a2.12,2.12,0,0,1,.6-.25l.32,0,.39,0a2.85,2.85,0,0,1,1,0l.19.05.17.06a.53.53,0,0,0,.25.09s-.11.07-.25.09a1.79,1.79,0,0,0-.23,0,.41.41,0,0,1-.12,0h.11l.06,0,.23.14.42.35.64.52A6.44,6.44,0,0,1,33.53,4a2.7,2.7,0,0,1,.93-.91c-.13.2.19.36.29.58a.35.35,0,0,1,0,.34,3.61,3.61,0,0,1-.47.44,2.74,2.74,0,0,1,.58-.21l.19,0,.24,0,.64-.08a.88.88,0,0,1-.2-.09,1.26,1.26,0,0,1-.23-.13c-.12-.1-.14-.2.1-.23a2.26,2.26,0,0,1,.6.2l.31.16a1.51,1.51,0,0,1,.31.22,4.73,4.73,0,0,1,.92,1.34c-.23-.39-.24-.55-.12-.57a.75.75,0,0,1,.52.28,2.45,2.45,0,0,1,.23-.55,1.67,1.67,0,0,0,0,.52,1.31,1.31,0,0,1-.08.73,11.24,11.24,0,0,1,.79-1.85A.58.58,0,0,1,39.21,4l.06-.08.15-.16a1.93,1.93,0,0,1,.36-.28c-.2.11-.17.21-.06.27a1.77,1.77,0,0,0,.46.15s0,0,.13,0a4.61,4.61,0,0,1,.63,0,2.24,2.24,0,0,1,1,.22,1.72,1.72,0,0,0-.55-.3,2.45,2.45,0,0,1,.54.17l.11,0a.77.77,0,0,1,.17.12,1.72,1.72,0,0,1,.31.29,9.64,9.64,0,0,0,.87.84,6.25,6.25,0,0,1,.54-1.46,1.75,1.75,0,0,1,.43-.5A2,2,0,0,1,45,2.86a.35.35,0,0,0-.14.4c.06.13.25.16.67.13A2.93,2.93,0,0,1,46,3.13L46.31,3a2.08,2.08,0,0,1,.42-.13,2,2,0,0,1,.5,0,2.52,2.52,0,0,1,.56.1,1.52,1.52,0,0,1,.7.36,2.06,2.06,0,0,1,.27-.63L49,2.58l.05-.05.09-.08.18-.14a3.34,3.34,0,0,1,.4-.25,3.12,3.12,0,0,1,.89-.3,3.3,3.3,0,0,0-1.17.78,3.08,3.08,0,0,0-.48.7,7.24,7.24,0,0,0-.41,1.18L48.05,4a5.56,5.56,0,0,0-.67-.5l-.14,0-.12,0-.23,0a2.42,2.42,0,0,0-.39,0,.92.92,0,0,1,.38.21.93.93,0,0,0,.15.1l.06,0,0,0a.39.39,0,0,1,.1.08,2.49,2.49,0,0,1,.22.23l.26.35c.12.24.13.3.06.24a4.74,4.74,0,0,1-.38-.46A3.85,3.85,0,0,0,47.1,4l-.05,0h0l-.07,0-.22-.07a1.92,1.92,0,0,1,.25.12L47,4a.41.41,0,0,1,.17.15l.16.17.14.22c.4.59.86,1.33,1.19,1.89.31-.64.74-1.53,1.1-2.22,0,0,0-.07,0-.17a1.07,1.07,0,0,1,.09-.19A.73.73,0,0,1,50,3.68a1.27,1.27,0,0,1,.38-.33,2.58,2.58,0,0,1,.53-.19c.2-.05.33-.1.3-.15l-.4.06a1.57,1.57,0,0,0-.29.08,1.86,1.86,0,0,0-.5.27l-.1.1-.05,0a.45.45,0,0,0-.12.12,3.85,3.85,0,0,0-.37.68c-.25.52-.52,1.12-.72,1.63a2.83,2.83,0,0,1,.17-.93,8.52,8.52,0,0,1,.65-1.63l.12-.17.1-.1A1.84,1.84,0,0,1,49.9,3a2.12,2.12,0,0,1,.54-.28l.33-.08.38,0a2.23,2.23,0,0,1,.73,0c.23.1.1.19,0,.29s-.32.2-.3.25a1.22,1.22,0,0,1,.8.09l.13,0a1.24,1.24,0,0,1,.21.18,2.3,2.3,0,0,1,.35.42,4.42,4.42,0,0,1,.42.62l-.51-.59a2.17,2.17,0,0,0-.56-.5,5,5,0,0,1,.81,1l.67.89A11.42,11.42,0,0,1,54.6,3.6a2.12,2.12,0,0,1,.23-.35A.58.58,0,0,1,55,3.11L55.05,3a1.32,1.32,0,0,1,.41-.14,1,1,0,0,1,.32,0l.17,0,.19,0a3.88,3.88,0,0,0,.42,0c.1,0,.13,0,.15,0a1.91,1.91,0,0,1-.44-.3A1,1,0,0,1,56,2.18a.58.58,0,0,1,.24-.74l.54,0a2.94,2.94,0,0,1,1,.34,2.2,2.2,0,0,1,.26.15l.12.09.08.07a3.08,3.08,0,0,1,.3.33,3.48,3.48,0,0,1,.38.67c.13-.15.13.14,0,.58-.09,0-.28-.09-.43-.14s-.22,0,0,.39c0-.06.35.26.48.4l.08-.23c.18-.29.17-.12.19-.07s0,0,.13-.13.24-.42.48-.84a.54.54,0,0,1,.1-.25.72.72,0,0,1,.11-.15l.08-.08a1.33,1.33,0,0,1,.4-.22c.12-.05.2-.06.16-.07a2.18,2.18,0,0,0-.54.14,1.47,1.47,0,0,1,.9-.32H62a2.35,2.35,0,0,1,.35,0c-.15-.11.1-.26.58-.23a2,2,0,0,1,.77.25,1.59,1.59,0,0,1,.54.48s0,0,0,0,.08,0,.15,0a2.46,2.46,0,0,1,1.11-1,2.81,2.81,0,0,1,1.26-.25c.85,0,1.69,0,2.74-.11.2.06,1.23.07.8.22a6,6,0,0,1,1.23-.23c1.27.16-1.45.13-.47.35a2.5,2.5,0,0,1,1-.24l.84-.12a2.83,2.83,0,0,1,.7,0,.66.66,0,0,0-.41-.16,4.92,4.92,0,0,0-.81,0c-.62.07-1.31.19-1.77.27,0-.17.38-.37,1-.56.33-.1.74-.2,1.2-.29A2.88,2.88,0,0,1,74.52.8a2.45,2.45,0,0,1,.81.63c.11.15.13.21.11.24s-.22-.07-.09.05a3.21,3.21,0,0,1,.55,1.07,6.76,6.76,0,0,1,.17.86c.08.45.17.78.25,1.1a7.66,7.66,0,0,1,.26,2.55c-.14,1.1-.42.08-.56.33-.17-1.43,0-2.2-.07-3.17l0,1.2a10,10,0,0,1-.19-1.93,32.77,32.77,0,0,0,.11,3.45c0,.8.09,1.65.14,2.46a2.74,2.74,0,0,1-.15,1.12,2.22,2.22,0,0,1-.24.46,1.69,1.69,0,0,1-.38.42,7.39,7.39,0,0,1-.5.59c.19,0,.24.06.17,0h0a2.09,2.09,0,0,0,.56-.47c.32-.25.15.06,0,.25s-.31.28.07.07a.81.81,0,0,1-.14.12,2.46,2.46,0,0,1,.59.27,1.54,1.54,0,0,1,.52.5,2.7,2.7,0,0,1,.45,1,3,3,0,0,1,.07.57c0,.17,0,.31,0,.52s-.17.23-.25.33,0-.08.06-.19,0-.28,0-.42a2.52,2.52,0,0,0-.14-.93,1.84,1.84,0,0,1,.1.71V15a4.07,4.07,0,0,1-.05.49,5.4,5.4,0,0,1-.29.91,2,2,0,0,0-.22.58l.16-.14.07-.08.1-.12a4.4,4.4,0,0,0,.31-.56,3,3,0,0,1-.15.55.59.59,0,0,1-.06.14l0,.07v0h0a.69.69,0,0,0,0,.13.89.89,0,0,1-.25.37,1.3,1.3,0,0,1,.41.19l.14.14a2.9,2.9,0,0,1,.3.49,1.67,1.67,0,0,0-.14-.42l-.07-.11,0,0a.2.2,0,0,1,0-.22c-.07.09-.18,0-.37,0a1.81,1.81,0,0,0,.23-.18l.09-.12,0-.05.1-.19a1.2,1.2,0,0,0,.16-.49c0-.06-.07,0-.24.26a2.61,2.61,0,0,0,.52-1.73v-.59a2.44,2.44,0,0,0,0-.27,4.69,4.69,0,0,0-.29-1.21s0,.21,0,.18a1.71,1.71,0,0,1-.15-.23,3.11,3.11,0,0,0-.18-.27l-.12-.17-.13,0v0h0s0,0,0,0a.56.56,0,0,1,0,.12v.06a.42.42,0,0,1,0,.1.53.53,0,0,0-.16-.1l-.16-.1a2.59,2.59,0,0,0-.44-.21,1.22,1.22,0,0,0,.32-.32.69.69,0,0,0,.1-.19l.07-.13.06-.16c.36-.75-.06.36.21,0a3.49,3.49,0,0,0,.14-1.15.72.72,0,0,0,.13-.37c0-.15,0-.33.07-.46s.06-.19.09-.13a.79.79,0,0,1,.05.2l0,.19s0,.07,0,.13l0,.19V9.52l0-.36,0-.71a13.88,13.88,0,0,0-.11-2.7c0-.68-.3-1.69-.12-1.11l-.13-1.11a6.36,6.36,0,0,0-.11-.69,3.52,3.52,0,0,0-.25-.71l0,0A3.43,3.43,0,0,0,74.79.43a3.55,3.55,0,0,0-1.1-.36,2.94,2.94,0,0,0-.59,0h-.29l-.22,0a23.09,23.09,0,0,1-3.65.1c-.37,0-.75.1-1.19.14L67,.35l-.4,0h-.22l-.3,0L65.76.31A4.84,4.84,0,0,0,65,.58l-.39.21-.2.12L64.34,1l0,0h0a.49.49,0,0,0-.2.21c0-.09-.1-.12-.14-.09a.71.71,0,0,0,0-.17h0s0,0,0,0l0,0L63.72.79a3.73,3.73,0,0,0-.4-.2,3.61,3.61,0,0,0-1-.27,3.46,3.46,0,0,0-.56,0h-.42l-.19,0-.3,0a3.87,3.87,0,0,0-.59.13A3.77,3.77,0,0,0,59.2,1l-.13.09,0,0,0,0s0,0,0,0h0l0,0,0,.06a.75.75,0,0,0-.07.12.44.44,0,0,0-.08-.11c0,.07,0,.14-.05.2l-.11-.08,0,0-.14-.08-.27-.12A3.5,3.5,0,0,0,57,.92c-.11,0-.21,0-.32,0h-.28L55.88,1a3.47,3.47,0,0,0-1.32.43l.18.11a3.91,3.91,0,0,0-.45.3.94.94,0,0,0-.12.09L54.09,2,54,2.08a1.57,1.57,0,0,0-.32.41,2.07,2.07,0,0,0-.22-.35L53.32,2l-.08-.06A1.71,1.71,0,0,0,53,1.81a3.25,3.25,0,0,0-1-.35,3.87,3.87,0,0,0-1,0,.43.43,0,0,1,.16-.05l.11,0h.18a2.41,2.41,0,0,1,.76.11,3.05,3.05,0,0,0-.68-.15h-.86a2.2,2.2,0,0,0-.36,0,3.4,3.4,0,0,0-.69.2,3.25,3.25,0,0,0-.63.35L48.82,2l-.07.05,0,0s0,0,0,0l-.06.07a1.58,1.58,0,0,0-.22.43,1.23,1.23,0,0,0-.2-.19,1.1,1.1,0,0,0-.14-.09l-.07,0-.09,0-.1-.06a4.59,4.59,0,0,0-1.79-.45l-.37.06-.38,0c-.27,0-.52.08-.76.14l.17-.06L44.43,2a3.29,3.29,0,0,0-.91.4,4.93,4.93,0,0,1,.77-.34,3.24,3.24,0,0,0-.4.22l-.22.14-.1.09,0,0a1.24,1.24,0,0,0-.23.36.45.45,0,0,1-.08-.17v0c-.06-.13-.08-.12-.09-.07a1.24,1.24,0,0,0,.06.35.67.67,0,0,0-.31-.17.53.53,0,0,0,0-.15l0,0c-.05,0-.09-.07-.15-.1a2.45,2.45,0,0,0-.72-.26,4.38,4.38,0,0,0-.8-.1l-.36,0a1.07,1.07,0,0,1-.27-.08l-.21.06-.42.09a3.81,3.81,0,0,0-1,.45l-.25.18-.12.1,0,0a1.77,1.77,0,0,0-.16.22,1.84,1.84,0,0,0-.21.55s-.07,0-.09,0-.07-.2,0,0a1.69,1.69,0,0,0-.45-.53l-.15-.09a1.23,1.23,0,0,0-.26-.12,2.15,2.15,0,0,0-.54-.14,2.91,2.91,0,0,0-.3-.31,3.57,3.57,0,0,0-.46,0l-.23,0-.18.05L35,2.85,34.63,3a9.87,9.87,0,0,0-1,.19c-.13,0-.06-.16.45-.46a3.46,3.46,0,0,0-.86.59,1.48,1.48,0,0,0-.19.27,2.19,2.19,0,0,0-.23.46.94.94,0,0,0-.2-.2,1,1,0,0,0-.19-.12.84.84,0,0,0-.14-.06l-.21-.08.17-.09a2.81,2.81,0,0,0-1.32-.34,5.66,5.66,0,0,0-.63,0,1.24,1.24,0,0,1-.4,0,2.64,2.64,0,0,0-1.37.27,3.09,3.09,0,0,0-.42.25l-.07,0-.05,0-.09.09a1.4,1.4,0,0,0-.31.44A1.62,1.62,0,0,0,27.3,4l-.16-.14-.09-.06-.08,0-.11-.06a3.2,3.2,0,0,0-.93-.32l-.51-.06H25l-.43,0a3,3,0,0,0-.51.09,3.34,3.34,0,0,0-1,.39,2.15,2.15,0,0,0-.51.39,1.36,1.36,0,0,0-.22.33,2,2,0,0,0-.28-.39L21.9,4l0,0h0l0,0-.11-.07-.22-.12c.31.42-.13.07-.8-.12a2.82,2.82,0,0,0-.52-.11h-.46l-.3,0c-.08,0-.17.06-.18.11-.27-.09-1,0-.2-.24a3.82,3.82,0,0,0-1,.34,3.38,3.38,0,0,0-.41.24l-.19.13-.07.05a.8.8,0,0,0-.28.34.59.59,0,0,0-.18-.2l-.14,0-.09,0-.22-.08c-.11-.11,0-.09.17,0l.11,0h0a0,0,0,0,0,0-.05s0,0,0,0l-.05,0L16.6,4l-.28-.11a4.14,4.14,0,0,1-.55-.2c-.25-.13.41,0,.82.16A3.11,3.11,0,0,0,15,3.54l-.29,0a.74.74,0,0,0-.19,0,2,2,0,0,0-.27.1L14,3.85,13.87,4a.84.84,0,0,0-.13.27,2.32,2.32,0,0,0-1.33.51,1.41,1.41,0,0,0-.39.7l-.13.08c0-.11-.05-.17,0-.14A1.83,1.83,0,0,1,12.07,5a1.12,1.12,0,0,0-.19.31,1.66,1.66,0,0,0-.4-.49l-.16-.1A1.71,1.71,0,0,0,11,4.54a3.07,3.07,0,0,0-1.8-.21c-.24,0-.39.08-.4.13a4.18,4.18,0,0,0-1.13.09c-1.53.08-1.67.06-3.16.18l.41,0a1.89,1.89,0,0,1-1,.22H3.28a2.81,2.81,0,0,0-.89.13l0,0a2.84,2.84,0,0,0-.92.37,2.6,2.6,0,0,0-.5.41,2.13,2.13,0,0,0-.4.56A4.29,4.29,0,0,0,.32,7a3.48,3.48,0,0,0-.16.61c0,.13,0,.28,0,.45v.48l.18-.16c.43.23-.09,2.44.17,4l.07-.58a4.31,4.31,0,0,1-.13,1.66l-.18.91c0,.07,0,.13,0,.21s0,.18,0,.27a1.75,1.75,0,0,0,.06.48c0,.27-.19-.38-.22-.75a3,3,0,0,0,.32,1.42c.12.2.17.19.21.17s.09-.07.19,0a1.3,1.3,0,0,1,.22.21l.05,0H1l0,0,.12.1c0,.08-.14.08-.21.11s-.11.08,0,.16l0,0c-.06,0-.09.07-.13.17a.19.19,0,0,0,0,.08l0,.05h0v0l0,.05a.93.93,0,0,0-.05.1,3.9,3.9,0,0,0-.25.86,4,4,0,0,0,0,.91c0,.25,0,.5.07.74A5.22,5.22,0,0,0,1,21.47,1.24,1.24,0,0,1,.87,21c0-.06.11.07.41.46l.12.17.08.1.14.16a1.37,1.37,0,0,0,.3.25,1.93,1.93,0,0,0-.4.24,1.85,1.85,0,0,0-.14.14l-.06.08-.12.21A2.33,2.33,0,0,0,1,24.42c0,.2,0,.23-.07.24L1,25a2.81,2.81,0,0,0,.09.5,3.39,3.39,0,0,0,.47,1c.06.08.11.16.18.24l0,.05,0,0h0l.05.05.22.16a2.07,2.07,0,0,0,.51.22.18.18,0,0,0-.07.09,1.85,1.85,0,0,0-.45.19.61.61,0,0,0-.17.15.3.3,0,0,0-.08.08,2,2,0,0,0-.12.22,3,3,0,0,0-.32,1.13,3.16,3.16,0,0,0,0,.62l.06.5a3.5,3.5,0,0,0,.35,1.12,3.16,3.16,0,0,0,.28.45l.13.17.08.09c.21.23.33.33.12.36l.17.08a1.19,1.19,0,0,0-.45.44L2,33.11a1.51,1.51,0,0,0-.09.18,2.39,2.39,0,0,0-.15.37,2.92,2.92,0,0,0-.16.78l-.06-.1a3,3,0,0,0,0,.42v.35c0,.21,0,.34.06.58a2.61,2.61,0,0,0,.34,1,2.57,2.57,0,0,0,.47.61l.31.17c.17.18,0,.07-.1.07a1.21,1.21,0,0,0,.32.23,1.33,1.33,0,0,0-.52.45l-.13.22c0,.09-.09.19-.12.28a2.91,2.91,0,0,0-.15.56,2.78,2.78,0,0,0,0,.58c0,.1,0,.2,0,.3l0,.26.05.27a2.49,2.49,0,0,0,.08.35,3.38,3.38,0,0,0,.32.75c0,.11,0,.22,0,.34l.18.25.12.15.07.1a1.44,1.44,0,0,0,.44.36,1.81,1.81,0,0,0-.49.37.73.73,0,0,0-.1.13,2.21,2.21,0,0,0-.18.34,2.76,2.76,0,0,0-.25.75,3.05,3.05,0,0,0-.06.8c0,.24,0,.4,0,.65a3.1,3.1,0,0,0,.56,1.47s-.11,0-.26-.28a3.92,3.92,0,0,0,.33.5l.09.12,0,0,.09.08a1.3,1.3,0,0,0,.39.27,1.45,1.45,0,0,0-.39.3L3,48.62l0,0-.09.14a3.72,3.72,0,0,0-.27.57,3.5,3.5,0,0,0-.21,1.23c0,.34,0,.61,0,.89a5,5,0,0,0,.46,2.43l.3,1.93c-.1-2.51.34.35.39-.69.11,1-.05,2.56-.17,1.35l0-.19c-.1-.1-.15,0-.17.31s0,.29,0,.51a2.47,2.47,0,0,0,.13.69A3.24,3.24,0,0,0,4.08,59c.25.29.45.46.39.5a3.3,3.3,0,0,0,1.65.59,3.2,3.2,0,0,0,.44,0l.35,0,.71,0,2.79-.13,1.38-.06.69,0H13l.22,0a3.43,3.43,0,0,0,1.63-.65,1.1,1.1,0,0,0,.41-.49,1.5,1.5,0,0,0,.24.31.79.79,0,0,0,.15.12l0,0,.12.06.24.13a3.68,3.68,0,0,0,1,.29,4.7,4.7,0,0,0,.53,0l.43,0-.6-.27h.25l.2,0a3.17,3.17,0,0,0,.42,0,3.39,3.39,0,0,0,.95-.23c.25-.07.43-.12.39,0s-.29.31-1,.45A2.12,2.12,0,0,0,20,58.85l.07-.07,0,0,0-.07a.94.94,0,0,0,.06-.15.46.46,0,0,0,.06-.19c.12-.14.17-.23.21-.26.09.2.06.21,0,.19-.06.33-.26.63-.16.52a1,1,0,0,0,.17-.31l0,0,0-.07,0,0,0-.07c.07,0,.14.05.26.11l.24.12a4,4,0,0,0,.89.36,4.81,4.81,0,0,1,.74.21c.06,0,0,.08.26.08,0,0,.12,0,.53,0a3.32,3.32,0,0,0,1.3-.32,3.81,3.81,0,0,0,.58-.34l.09-.07.05,0,.08-.08-.2,0a4.21,4.21,0,0,1-.47.18l.33-.26.16-.16a1.2,1.2,0,0,0,.19-.26c.08-.14.11-.22-.13-.09a.67.67,0,0,0,.29-.29,2.06,2.06,0,0,0,.25.4,1.37,1.37,0,0,0,.17.17l.09.08.13.09a2.94,2.94,0,0,0,1,.37,3.07,3.07,0,0,0,.53.06,1.22,1.22,0,0,0,.27,0h.23l.46,0a2.56,2.56,0,0,0,.54-.1,3.23,3.23,0,0,0,1-.44,1.89,1.89,0,0,0,.19-.14.7.7,0,0,1,.1-.08l.15-.17a1.44,1.44,0,0,0,.22-.37,2.25,2.25,0,0,0,.52.58,3.54,3.54,0,0,0,1.11.32,4.5,4.5,0,0,0,1.11,0,4.16,4.16,0,0,0,.55-.06,4.5,4.5,0,0,0,.6-.17,3.55,3.55,0,0,0,.58-.3l.13-.09.11-.08a.86.86,0,0,0,.14-.13c-.09.07-.23.08-.23,0s0-.11.11-.22A3.71,3.71,0,0,0,36,56.7c0,.29,0,.3.13.21a1.54,1.54,0,0,0,.26.44l.19.19.12.09.25.14a3.85,3.85,0,0,0,1.08.37,5,5,0,0,0,.52.07l.34.07c-.24-.05-.13-.09.15-.13a3.68,3.68,0,0,0,1.41-.45,2,2,0,0,0,.34-.22l.14-.11,0-.06a1,1,0,0,0,.17-.23c.06-.14.07-.23-.13-.12.25-.28.24-.25.25-.16s0,.19.1.11l0,0a1.33,1.33,0,0,0,.24.23.83.83,0,0,0,.15.11l.08.05.21.11a3.7,3.7,0,0,0,.92.31,3.87,3.87,0,0,0,.49.05,3.37,3.37,0,0,0,.46,0h.4a3,3,0,0,0,.51-.07,3.51,3.51,0,0,0,1-.36l.23-.14.17-.11s.11-.09.15-.14a1.14,1.14,0,0,0,.23-.31,1.38,1.38,0,0,0,.19.28l.12.11.06.05,0,0,.06,0a3.31,3.31,0,0,0,1.77.45s-.13-.08-.18-.13,0-.09.41-.16l.43.06a4.82,4.82,0,0,0,.54,0,3.64,3.64,0,0,0,1.11-.25A1.42,1.42,0,0,0,51.4,57l.08-.08s0,0,0,0v0c0-.06,0-.13,0-.2a1.39,1.39,0,0,1,.29-.44l0,.08,0-.12s-.05,0,0-.16l.05,0a1.58,1.58,0,0,0,.31.41l.18.15.08,0,.1.06.21.1a3.1,3.1,0,0,0,.93.27,2.57,2.57,0,0,0,.48,0h.6l.24,0,.48-.1a3.11,3.11,0,0,0,.89-.4l.2-.14.11-.09.15-.16a1.6,1.6,0,0,0,.23-.38,1.3,1.3,0,0,0,.28.34.86.86,0,0,0,.18.14l0,0,.08,0a2.39,2.39,0,0,0,.22.12,3.13,3.13,0,0,0,1,.27,6.52,6.52,0,0,0,1.84-.13,3.24,3.24,0,0,0,.89-.4l.21-.14.07-.06.05,0,.16-.17a1.67,1.67,0,0,0,.25-.4,1.53,1.53,0,0,0,.29.37,1.74,1.74,0,0,0,.54.35,3,3,0,0,0,.94.3,4.28,4.28,0,0,0,.93,0,4.09,4.09,0,0,0,.93-.09,3.5,3.5,0,0,0,.94-.38l.22-.13,0,0h0l0,0,.15-.11a.85.85,0,0,0,.2-.23c0,.11.1.2.15.29-.11-.21-.13-.32-.1-.29s.13.14.26.24c-.16-.18.05-.18.05-.3l.17.16,0,0,0,0,.09.06.17.11a3.53,3.53,0,0,0,.78.31,4,4,0,0,0,.83.11l.69,0c.47-.3,2.9-.2,3.17-.47l-.86.1c1.13-.37-1.64-.57-1.49-1a3.23,3.23,0,0,1-.92.14,4.79,4.79,0,0,1-1-.06,2.3,2.3,0,0,1-.88-.42,4.26,4.26,0,0,1-.68-.83l-.63-.92c-.19.49-.45,1.1-.68,1.59-.21.25-.14.11,0-.11s.21-.5.08-.36a2.85,2.85,0,0,1-.33.7.69.69,0,0,1-.11.13l-.07.07a.76.76,0,0,1-.17.13,1.56,1.56,0,0,1-.45.2l-.29,0h-.38l.13,0-.47,0a1.9,1.9,0,0,1-.34,0,2,2,0,0,1-.62-.19l-.13-.08a1.37,1.37,0,0,1-.23-.19c-.14-.15-.27-.34-.4-.51A12.29,12.29,0,0,1,62.14,53a13,13,0,0,1-1,1.7L61,54.9a.8.8,0,0,1-.12.08l-.18.11a1.8,1.8,0,0,1-.41.14,2.16,2.16,0,0,1-.46.05c-.21,0-.49,0-.63,0a1.71,1.71,0,0,1-.49-.1l-.25-.11L58.39,55a1.07,1.07,0,0,1-.25-.23l.12.25,0,0,0,0h0l0,.07-.05,0a.24.24,0,0,1-.08-.06L58.06,55a3,3,0,0,1-.23-.3c-.14-.21-.26-.39-.36-.56-.2-.33-.35-.61-.52-.94l-.05,0c-.11.38-.08.38,0,.23.1.18.26.46.48.78a7.73,7.73,0,0,0,.67.88s.1.11.15.15l.1.07s.09.06.1.09,0,.08-.12.07l-.07-.08,0,0,0,0-.07-.08a3.12,3.12,0,0,1-.33-.44c-.25-.36-.58-.86-.85-1.33-.14.3-.33.68-.54,1.06-.11.19-.22.38-.33.55s-.12.15-.18.23l0,0,0,0-.06,0a1.88,1.88,0,0,1-1,.35h-.62a1.18,1.18,0,0,1-.41-.09.68.68,0,0,1-.42-.33,1,1,0,0,1-.2-.16c-.07-.07-.13-.12-.18-.18a1.28,1.28,0,0,0-.17-.19c-.05,0,0,.06,0,.16s.08.19,0,.15a3.63,3.63,0,0,1-.53-.67l-.33-.73-.18-.1-.07.28a6.73,6.73,0,0,1-.82,1.32,1,1,0,0,1-.28.25l-.06,0,0,0h0l0,0c.22-.1.54-.85.75-1.29-.14.24-.29.5-.44.78a1.87,1.87,0,0,1-.26.35l-.08.08,0,0-.07,0a1.64,1.64,0,0,1-.55.26l-.15,0-.17,0-.41,0a.83.83,0,0,1-.34,0l.18,0a.78.78,0,0,0,.23,0h.54c-.14,0-.6.06-.75.07a1.47,1.47,0,0,1-.58-.09,1.39,1.39,0,0,1-.28-.12l0,0-.09,0-.13-.13a2.23,2.23,0,0,1-.26-.33c-.35-.48-.73-1-1-1.51-.19.42-.44.95-.7,1.42a3.18,3.18,0,0,1-.38.64.65.65,0,0,1-.11.12l-.07.06-.11.07a1.67,1.67,0,0,1-.5.21,1.28,1.28,0,0,1-.27.05l-.18,0h-.2l-.2,0h-.14a1.23,1.23,0,0,1-.27,0,1.57,1.57,0,0,1-.51-.15l-.12,0a1.21,1.21,0,0,1-.24-.21,4.85,4.85,0,0,1-.43-.54c-.29-.39-.57-.8-.78-1.12-.2.48-.45,1-.69,1.49l.26-.27c-.13.26-.25.48-.36.67a2.77,2.77,0,0,1-.17.23.47.47,0,0,1-.1.1l0,0a1.84,1.84,0,0,1-.4.25,1.73,1.73,0,0,1-.67.12c-.25,0-.57,0-.82,0a2.68,2.68,0,0,1-.48-.11,1.78,1.78,0,0,1-.29-.12l-.07,0-.07,0-.06,0a1.82,1.82,0,0,1-.27-.28l.11.11A8.64,8.64,0,0,1,36,54.93a9.5,9.5,0,0,1-.71,1.38c.13-.26.13-.32,0-.24a5.2,5.2,0,0,1-.38.44l-.13.1-.07,0-.1,0s0,0,.07-.16a1.9,1.9,0,0,1-.83.45l-.13,0-.14,0-.2.05-.31.13a1.64,1.64,0,0,1-.72.06,2.2,2.2,0,0,1-.26-.27l-.07,0h0l-.06,0-.17-.1a1.6,1.6,0,0,1-.3-.23,3.84,3.84,0,0,1-.7-.83,5,5,0,0,1-.35.73c.35-.77.2-.66,0-.47s-.18.18-.18.11a4.07,4.07,0,0,1,.3-.87,12.91,12.91,0,0,1-.91,1.48.53.53,0,0,1-.13.13l-.07.06-.14.08a1.66,1.66,0,0,1-.27.13,1.85,1.85,0,0,1-.53.15l-.65.09a1.6,1.6,0,0,1-.86-.14.87.87,0,0,1-.18-.11,1.56,1.56,0,0,1-.27-.3,8.38,8.38,0,0,1-.52-.93c-.19-.19-.28-.24-.3-.21s0,.13.09.28a4.63,4.63,0,0,0,.83,1.17.67.67,0,0,0,.14.11l.09.05.18.08.32.11c.18,0,.26,0,.11,0,.24.09,0,.18-.39.1l-.32-.09-.18-.08-.2-.14a3.51,3.51,0,0,1-.65-.76,2.5,2.5,0,0,1-.23-.39,3.27,3.27,0,0,1-.4.51l-.3.32a2.59,2.59,0,0,1-.38.35,3.1,3.1,0,0,1-.71.22,2.86,2.86,0,0,1-.43,0l-.66,0,.2,0,.24,0H22.6a2.28,2.28,0,0,1-.45,0l-.23-.07-.11-.05-.06,0-.05,0-.05,0-.21-.21a2.83,2.83,0,0,0-.2-.28c-.13-.21-.28-.43-.42-.69a2.73,2.73,0,0,1-.5-.57,8.46,8.46,0,0,0-.76,1.86,11.57,11.57,0,0,0,.78-1.53,11.49,11.49,0,0,0,1,1.38c-.37-.41-.76-.86-1-1.19a10.69,10.69,0,0,1-.43,1.06,2.61,2.61,0,0,1-.56.81,2,2,0,0,1-.65.36,2.77,2.77,0,0,1-.9.08l.18-.06.27-.08a3.4,3.4,0,0,0,.51-.22c-.24,0-.44.1-.67.13l-.43,0a1.05,1.05,0,0,1-.36,0,.19.19,0,0,1,.12-.09,1.62,1.62,0,0,1,.27-.06l.44-.06a1.84,1.84,0,0,0,.38-.08,2,2,0,0,0,.4-.17l.18-.12,0,0,0,0,0,0,.15-.19a11.48,11.48,0,0,0,.93-2l.06.08-.06-.12c-.13.21-.33.64-.55,1.11a4.21,4.21,0,0,1-.67,1.14c-.22.2-.39.26-.28,0a.63.63,0,0,1-.41.35,1,1,0,0,1-.31.06h-.47a2.15,2.15,0,0,1-.71-.11,2.53,2.53,0,0,1-.36-.12.63.63,0,0,1-.18-.12c-.05-.05-.11-.08-.17-.14l-.33-.35A.7.7,0,0,1,16,57c-.22-.27-.65-.79-1-1.24-.08.19-.16.38-.25.57l.24-.76a7.42,7.42,0,0,1,.52.55c-.2-.27-.38-.51-.53-.75a15.91,15.91,0,0,1-.73,1.5l-.2.35a2.59,2.59,0,0,1-.21.3.68.68,0,0,1-.2.18l-.11.05a2.54,2.54,0,0,1-.45.13L12.6,58,13,58a.6.6,0,0,0,.2,0l.24-.05c.11,0,.15,0,.15,0s-.08.25.28.11a1.57,1.57,0,0,1-.64.33l-.27,0h-.3a3.79,3.79,0,0,1-.87-.12,8,8,0,0,0-2.82-.09c.47-.05,1.79,0,1.05.14a14.24,14.24,0,0,1-2-.09c-2.32.19.37.18-.61.36a1.73,1.73,0,0,0-.54,0,.91.91,0,0,0-.23,0l-.2,0a1.21,1.21,0,0,1-.84,0l.07-.17A3.57,3.57,0,0,1,5,57.94a.55.55,0,0,0-.26-.15.37.37,0,0,1-.22-.17.92.92,0,0,1-.11-.29.86.86,0,0,1,0-.24,3.66,3.66,0,0,1,0-.37l.08.25.09.18a2.32,2.32,0,0,0,.22.3,1.87,1.87,0,0,1-.13-.4l0-.11,0-.16,0-.31.24.25a14.91,14.91,0,0,1-.26-3.11c-.11.32-.36-.15-.44-1.33.06-.8.21.44.08-1.22a2.45,2.45,0,0,1,.19,1.51c.07.07.14.36.21.43a9.45,9.45,0,0,0,0-1.49l-.07-.72,0-.28a.43.43,0,0,1,0-.16,1.54,1.54,0,0,0,0,.24,2.44,2.44,0,0,1,0,.29l-.09-.5a1.34,1.34,0,0,1,0-.4,1.89,1.89,0,0,1,.08-.4.86.86,0,0,1,.07-.14c0-.06.1-.12.15-.18A4.57,4.57,0,0,1,5,48.91c.33-.19.43-.21.36-.13s-.28.26-.48.45c.55-.42,1-.81,1.57-1.18-.26-.1-.55-.22-.9-.39A6.48,6.48,0,0,1,7,48a13.66,13.66,0,0,1-1.12.81L7.1,48c-.54-.22-1.2-.51-1.78-.77a4.81,4.81,0,0,1-.76-.41.49.49,0,0,1-.13-.12l0,0-.08-.1c0-.06,0-.23,0-.37s0-.25.08-.18l0-.21c0-.14,0-.28,0-.43V45.1a1,1,0,0,1,0-.25,1.31,1.31,0,0,1,.06-.27.19.19,0,0,1,0-.07v0l0-.06c0-.06.11-.11.16-.17a1,1,0,0,1,.19-.17c.57-.42,1.29-.92,1.85-1.27-.61-.26-1.37-.63-2-1l-.18-.07-.21-.13a.32.32,0,0,1-.12-.08l0,0s0,0,0,0h0l0,0a.55.55,0,0,1-.1-.11,1.28,1.28,0,0,1-.18-.66V40c0-.06,0-.11,0-.17a2.23,2.23,0,0,1,.09-.32l.06-.15,0-.08a.6.6,0,0,1,.08-.13,6.59,6.59,0,0,1,1-.79l1.12-.78-.33-.13L5,36.88l-.48-.31c-.08-.06-.17-.1-.24-.16l-.19-.17L4,36.16l0,0H4l0,0L3.86,36s0,0-.06,0,0,.12,0,.21v0s0,0,0,.07l0,.08s0,.05-.09,0l-.06-.05,0,0,0,0-.1-.08a1.33,1.33,0,0,1-.24-.4,1.39,1.39,0,0,1-.1-.62c0-.15,0-.2.09-.21s.08,0,.12,0,0,0,.06,0,0-.1,0-.13a1.39,1.39,0,0,1,0-.75l0-.11,0-.06a.45.45,0,0,1,.1-.14,2.89,2.89,0,0,1,.54-.47,14.77,14.77,0,0,1,1.36-.92,14.87,14.87,0,0,1-1.89-1c.72.37,1.51.75,2.12,1ZM2.67,17.94l-.15.19,0,.06v0l0,.05-.06.24a.94.94,0,0,1-.12.38.39.39,0,0,1,0-.41.81.81,0,0,1,.11-.2l.09-.1A1.24,1.24,0,0,1,2.67,17.94ZM15.06,5a2.24,2.24,0,0,1-.43,0L14,5l.22,0h.27A2.35,2.35,0,0,1,15.06,5ZM76.85,7.36v0C76.86,6.53,76.85,6.81,76.85,7.36Zm0,1.64c0,.16.06.15.08.08a3.63,3.63,0,0,1-.09-.9A1.62,1.62,0,0,0,76.87,9ZM23.07,59.19l-.36,0,.42,0h.12S23.17,59.16,23.07,59.19Z"/><path class="cls-2" d="M12.55,6.64c-.1.11-.14.1-.17.07C12.29,7,12.28,7.06,12.55,6.64Z"/><path class="cls-2" d="M4.54,41.77l.1.06.14,0Z"/><path class="cls-2" d="M59.17,4.75l-.08.16c-.24-.44-.42-.75-.52-1a4.12,4.12,0,0,0,.52,1Z"/><path class="cls-2" d="M77,17.14a3.73,3.73,0,0,0,.45-1.43A2.66,2.66,0,0,1,77,17S77.27,16.72,77,17.14Z"/><path class="cls-2" d="M76.51,23.56a3.3,3.3,0,0,1,.26.39l.06-.07a1.57,1.57,0,0,0-.44-.57C76.29,23.24,76.31,23.28,76.51,23.56Z"/><path class="cls-2" d="M76.07,17.28a.94.94,0,0,0-.35.14,2.33,2.33,0,0,1,.68.44l-.06-.06c.25,0,0-.25-.41-.4A.81.81,0,0,0,76.07,17.28Z"/><path class="cls-2" d="M76.49,18l.05.06.06.07.11.17a2.42,2.42,0,0,1,.18.36c.07,0,0-.05,0-.19a2,2,0,0,0-.16-.23l-.1-.13Z"/><path class="cls-2" d="M76.67,11.51a.69.69,0,0,0-.1.23.17.17,0,0,0,0,.07v0h0v0s.07.05,0,.06.06,0,.07,0a3,3,0,0,0,.27-.81c.05-.27,0-.48,0-.46S76.92,10.9,76.67,11.51Z"/><path class="cls-2" d="M75.3,17.56a.45.45,0,0,1,.06-.12h0l.09-.22a3.73,3.73,0,0,1-.39.25Z"/><path class="cls-2" d="M75.59,12.59a2.85,2.85,0,0,1,.34.41,2.47,2.47,0,0,1,.29.53s.11.11.18.29a2.82,2.82,0,0,0-.49-1C75.75,12.67,75.61,12.57,75.59,12.59Z"/><path class="cls-2" d="M76.4,13.82a8.84,8.84,0,0,1,.18,1A3.6,3.6,0,0,0,76.4,13.82Z"/><path class="cls-2" d="M76,16.47a1.81,1.81,0,0,0,.19-.29,2.7,2.7,0,0,0,.21-.8A2.61,2.61,0,0,1,76,16.47Z"/><path class="cls-2" d="M74.51,1.16A2.81,2.81,0,0,0,73.22.8c-.14.07.22.1.68.23S74.65,1.33,74.51,1.16Z"/><path class="cls-2" d="M75.38,4.78a1.58,1.58,0,0,1,.12-.57l-.25,0Z"/><path class="cls-2" d="M74.29,1.74a4.91,4.91,0,0,0-.62-.17c-.1,0-.15,0-.11,0A3.87,3.87,0,0,1,74,1.8C74.16,1.74,75,2.43,74.29,1.74Z"/><path class="cls-2" d="M57.54,2.21a1.48,1.48,0,0,1,.29.12L58,1.94A2.62,2.62,0,0,0,57.54,2.21Z"/><path class="cls-2" d="M43.61,6.19c.19-.37.34-.66.45-.89s.2-.42.26-.56a2.85,2.85,0,0,0,.16-.44.73.73,0,0,1,.14-.3l.06,0,0,0a.18.18,0,0,1,.07-.05A.9.9,0,0,1,45,3.77c.09-.09-.09,0-.26,0l-.12.06a.59.59,0,0,0-.18.17c-.09.09-.12.1,0,0a9.06,9.06,0,0,0-.53,1c-.15.32-.25.57-.32.76C43.43,6.15,43.41,6.31,43.61,6.19Z"/><path class="cls-2" d="M44.41,4l.1-.15.06-.06,0,0,.12-.12-.16.15A.76.76,0,0,0,44.41,4Z"/><polygon class="cls-2" points="72.5 56.27 73.49 56.29 72.85 56.19 72.5 56.27"/><path class="cls-2" d="M74.36,55.84l.24.25.57-.27A3.19,3.19,0,0,1,74.36,55.84Z"/><path class="cls-2" d="M2.64,15.05H2.57a.25.25,0,0,0,0,.16,1.45,1.45,0,0,0,.34.28c.17.1.37.2.62.32l-.37-.21L3,15.5l-.14-.12a.86.86,0,0,1-.14-.13l-.06-.08v0S2.65,15.08,2.64,15.05Z"/><path class="cls-2" d="M3.67,26.05a2,2,0,0,1-.37-.25,3.4,3.4,0,0,0,.23.3l.27.26A2.58,2.58,0,0,0,3.67,26.05Z"/><path class="cls-2" d="M3.89,35.47l-.06-.56v-.12a.25.25,0,0,1,0-.08.78.78,0,0,1,0-.16,2.72,2.72,0,0,1,0,.3c0,.19,0,.35,0,.48S3.75,35.52,3.89,35.47Z"/><path class="cls-3" d="M9.54,53.28a.4.4,0,0,1-.4-.38l0-.4a.4.4,0,0,1,.38-.42.39.39,0,0,1,.42.37h0a.39.39,0,0,1,.37.37.41.41,0,0,1-.37.43l-.35,0Zm1.94-.12a.4.4,0,0,1-.4-.38.42.42,0,0,1,.38-.43l.4,0a.4.4,0,0,1,.05.8l-.4,0Zm2-.13a.4.4,0,0,1,0-.8l.4,0a.41.41,0,0,1,.43.38.4.4,0,0,1-.38.42l-.4,0Zm2-.13a.4.4,0,0,1-.4-.37.39.39,0,0,1,.37-.43l.4,0a.42.42,0,0,1,.43.38.4.4,0,0,1-.38.42l-.4,0Zm2-.13a.4.4,0,0,1-.4-.37.41.41,0,0,1,.37-.43l.4,0a.4.4,0,0,1,.43.37.41.41,0,0,1-.37.43l-.4,0Zm2-.12a.41.41,0,0,1-.4-.38.4.4,0,0,1,.38-.42l.4,0a.4.4,0,0,1,.05.8l-.4,0Zm2-.13a.4.4,0,0,1,0-.8l.4,0a.42.42,0,0,1,.43.38.4.4,0,0,1-.38.42l-.4,0Zm2-.13a.4.4,0,0,1-.4-.37.4.4,0,0,1,.37-.43l.4,0a.4.4,0,0,1,.43.37.42.42,0,0,1-.38.43l-.4,0Zm2-.12a.4.4,0,0,1-.4-.38.41.41,0,0,1,.38-.43l.4,0a.4.4,0,0,1,.05.8l-.4,0Zm2-.13a.4.4,0,0,1,0-.8l.4,0a.41.41,0,0,1,.42.38.39.39,0,0,1-.37.42l-.4,0Zm2-.13a.4.4,0,0,1-.4-.37.39.39,0,0,1,.37-.43l.4,0a.41.41,0,1,1,.05.81l-.4,0Zm2-.13a.4.4,0,0,1-.4-.37.4.4,0,0,1,.37-.43l.4,0a.4.4,0,0,1,.43.37.41.41,0,0,1-.38.43l-.4,0Zm2-.12a.4.4,0,0,1-.4-.38.4.4,0,0,1,.38-.42l.4,0a.4.4,0,0,1,.42.38.39.39,0,0,1-.37.42l-.4,0Zm2-.13a.4.4,0,0,1,0-.8l.4,0a.4.4,0,0,1,.42.38.39.39,0,0,1-.37.42l-.4,0Zm2-.13a.4.4,0,0,1-.4-.37.4.4,0,0,1,.37-.43l.4,0a.4.4,0,0,1,.43.37.42.42,0,0,1-.38.43l-.4,0Zm2-.12a.41.41,0,0,1,0-.81l.4,0a.4.4,0,0,1,.06.8l-.41,0Zm-30.11-.1A.4.4,0,0,1,9,50.9l0-.4a.4.4,0,0,1,.37-.43.41.41,0,0,1,.43.38l0,.4a.4.4,0,0,1-.37.43Zm32.11,0a.4.4,0,0,1-.4-.38.4.4,0,0,1,.38-.42l.4,0a.4.4,0,0,1,.42.38.39.39,0,0,1-.37.42l-.4,0Zm2-.13a.4.4,0,0,1,0-.8l.4,0a.41.41,0,1,1,.05.81l-.4,0Zm2-.12a.41.41,0,0,1,0-.81l.4,0a.4.4,0,0,1,.43.37A.42.42,0,0,1,46,51l-.4,0Zm2-.13a.4.4,0,0,1-.4-.38.39.39,0,0,1,.37-.42l.4,0a.4.4,0,0,1,.43.38.39.39,0,0,1-.37.42l-.41,0Zm2-.13a.4.4,0,0,1,0-.8l.4,0a.4.4,0,0,1,.42.38.39.39,0,0,1-.37.42l-.4,0Zm2-.13a.4.4,0,0,1-.4-.37.42.42,0,0,1,.38-.43l.4,0a.4.4,0,0,1,.43.37.42.42,0,0,1-.38.43l-.4,0Zm2-.12a.41.41,0,0,1,0-.81l.4,0a.41.41,0,0,1,.43.37.4.4,0,0,1-.38.43l-.4,0Zm2-.13a.4.4,0,0,1,0-.8l.41,0a.4.4,0,0,1,.42.38.39.39,0,0,1-.37.42l-.4,0Zm2-.13a.4.4,0,0,1-.4-.37.41.41,0,0,1,.38-.43l.4,0a.39.39,0,0,1,.42.37.4.4,0,0,1-.37.43l-.4,0Zm2-.12a.41.41,0,0,1-.4-.38.42.42,0,0,1,.38-.43l.4,0a.4.4,0,0,1,.43.37.41.41,0,0,1-.38.43l-.4,0Zm2-.13a.4.4,0,0,1-.4-.38.39.39,0,0,1,.37-.42l.4,0a.4.4,0,1,1,0,.8l-.4,0Zm2-.13a.4.4,0,0,1,0-.8l.4,0a.41.41,0,0,1,.42.38.4.4,0,0,1-.37.43l-.4,0Zm2-.13a.4.4,0,0,1-.4-.37.42.42,0,0,1,.38-.43l.4,0a.39.39,0,0,1,.42.37.4.4,0,0,1-.37.43l-.4,0Zm2-.12a.4.4,0,0,1-.4-.38.39.39,0,0,1,.37-.42l.4,0a.41.41,0,0,1,.43.37.4.4,0,0,1-.38.43l-.4,0Zm2-.13a.4.4,0,0,1-.4-.38.39.39,0,0,1,.37-.42l.4,0a.41.41,0,0,1,.43.38.4.4,0,0,1-.38.42l-.4,0Zm2-.13a.4.4,0,0,1-.4-.37.41.41,0,0,1,.38-.43l.4,0a.39.39,0,0,1,.42.37.4.4,0,0,1-.37.43l-.4,0ZM9.28,49.27a.4.4,0,0,1-.4-.37l0-.4a.4.4,0,1,1,.8,0l0,.4a.4.4,0,0,1-.38.42ZM72.41,48.2a.4.4,0,0,1-.4-.37l0-.4a.4.4,0,0,1,.37-.43.41.41,0,0,1,.43.38l0,.4a.39.39,0,0,1-.37.42ZM9.16,47.27a.4.4,0,0,1-.4-.38l0-.4a.4.4,0,0,1,.38-.42.39.39,0,0,1,.42.37l0,.4a.4.4,0,0,1-.38.43ZM72.29,46.2a.4.4,0,0,1-.4-.38l0-.4a.4.4,0,0,1,.8-.05l0,.4a.4.4,0,0,1-.38.43ZM9,45.27a.4.4,0,0,1-.4-.38l0-.4a.41.41,0,0,1,.81-.05l0,.4a.4.4,0,0,1-.37.43ZM72.16,44.2a.4.4,0,0,1-.4-.38l0-.4a.4.4,0,0,1,.38-.42.39.39,0,0,1,.42.37l0,.4a.41.41,0,0,1-.37.43ZM8.9,43.27a.41.41,0,0,1-.4-.38l0-.4a.4.4,0,0,1,.37-.43.41.41,0,0,1,.43.38l0,.4a.39.39,0,0,1-.37.42ZM72,42.2a.41.41,0,0,1-.4-.38l0-.4A.4.4,0,0,1,72,41a.41.41,0,0,1,.43.38l0,.4a.39.39,0,0,1-.37.42ZM8.78,41.26a.4.4,0,0,1-.4-.37l0-.4a.4.4,0,1,1,.8-.05l0,.4a.4.4,0,0,1-.38.42Zm63.13-1.07a.41.41,0,0,1-.41-.37l0-.4a.4.4,0,0,1,.37-.43.4.4,0,0,1,.43.38l0,.4a.4.4,0,0,1-.38.42ZM8.65,39.26a.4.4,0,0,1-.4-.38l0-.4a.4.4,0,0,1,.38-.42.39.39,0,0,1,.42.37l0,.4a.4.4,0,0,1-.38.43Zm63.13-1.07a.4.4,0,0,1-.4-.38l0-.4a.4.4,0,0,1,.8,0l0,.4a.4.4,0,0,1-.38.43ZM8.52,37.26a.41.41,0,0,1-.4-.38l0-.4a.39.39,0,0,1,.37-.42.4.4,0,0,1,.43.37l0,.4a.4.4,0,0,1-.37.43Zm63.13-1.07a.4.4,0,0,1-.4-.38l0-.4A.4.4,0,0,1,71.6,35a.42.42,0,0,1,.43.38l0,.4a.4.4,0,0,1-.37.43ZM8.39,35.25a.4.4,0,0,1-.4-.37l0-.4a.41.41,0,0,1,.37-.43.4.4,0,0,1,.43.38l0,.4a.4.4,0,0,1-.38.42Zm63.13-1.07a.4.4,0,0,1-.4-.37l0-.4a.4.4,0,0,1,.37-.43.41.41,0,0,1,.43.38l0,.4a.39.39,0,0,1-.37.42ZM8.27,33.25a.4.4,0,0,1-.4-.37l0-.4a.4.4,0,0,1,.38-.43.39.39,0,0,1,.42.37l0,.41a.4.4,0,0,1-.38.42ZM71.4,32.18a.4.4,0,0,1-.4-.37l0-.4a.4.4,0,0,1,.38-.43.39.39,0,0,1,.42.37l0,.41a.4.4,0,0,1-.38.42ZM8.14,31.25a.4.4,0,0,1-.4-.38l0-.4a.39.39,0,0,1,.37-.42.4.4,0,0,1,.43.37l0,.4a.4.4,0,0,1-.37.43Zm63.13-1.07a.4.4,0,0,1-.4-.38l0-.4a.41.41,0,0,1,.81,0l0,.4a.41.41,0,0,1-.37.43ZM8,29.25a.41.41,0,0,1-.4-.38l0-.4A.4.4,0,0,1,8,28a.41.41,0,0,1,.43.38l0,.4a.4.4,0,0,1-.37.43Zm63.13-1.07a.41.41,0,0,1-.4-.38l0-.4a.4.4,0,0,1,.37-.43.42.42,0,0,1,.43.38l0,.4a.4.4,0,0,1-.37.43ZM7.89,27.24a.4.4,0,0,1-.4-.37l0-.4A.42.42,0,0,1,7.84,26a.4.4,0,0,1,.42.38l0,.4a.4.4,0,0,1-.38.42ZM71,26.17a.4.4,0,0,1-.4-.37l0-.4a.4.4,0,1,1,.8,0l0,.4a.4.4,0,0,1-.38.42ZM7.76,25.24a.4.4,0,0,1-.4-.37l0-.4A.4.4,0,0,1,7.71,24a.42.42,0,0,1,.43.37l0,.4a.4.4,0,0,1-.37.43Zm63.13-1.07a.4.4,0,0,1-.4-.37l0-.41a.4.4,0,0,1,.38-.42.39.39,0,0,1,.42.37l0,.4a.4.4,0,0,1-.38.43ZM7.63,23.24a.4.4,0,0,1-.4-.38l0-.4A.39.39,0,0,1,7.58,22a.4.4,0,0,1,.43.37l0,.4a.4.4,0,0,1-.37.43Zm63.13-1.07a.4.4,0,0,1-.4-.38l0-.4a.39.39,0,0,1,.37-.42.4.4,0,0,1,.43.37l0,.4a.4.4,0,0,1-.37.43ZM7.51,21.24a.4.4,0,0,1-.4-.38l0-.4a.4.4,0,1,1,.8-.05l0,.4a.42.42,0,0,1-.38.43Zm63.12-1.07a.41.41,0,0,1-.4-.38l0-.4a.4.4,0,1,1,.8-.05l0,.4a.42.42,0,0,1-.38.43ZM7.38,19.23a.4.4,0,0,1-.4-.37l0-.4A.42.42,0,0,1,7.33,18a.4.4,0,0,1,.42.38l0,.4a.4.4,0,0,1-.38.42Zm63.13-1.07a.4.4,0,0,1-.4-.37l0-.4a.42.42,0,0,1,.38-.43.4.4,0,0,1,.42.38l0,.4a.4.4,0,0,1-.38.42ZM7.25,17.23a.4.4,0,0,1-.4-.37l0-.41A.39.39,0,0,1,7.2,16a.41.41,0,0,1,.43.37l0,.4a.39.39,0,0,1-.37.43Zm63.13-1.07a.4.4,0,0,1-.4-.38l0-.4a.41.41,0,0,1,.81-.05l0,.4a.4.4,0,0,1-.37.43ZM7.12,15.23a.4.4,0,0,1-.4-.38l0-.4A.39.39,0,0,1,7.07,14a.4.4,0,0,1,.43.37l0,.4a.42.42,0,0,1-.38.43Zm63.13-1.07a.41.41,0,0,1-.4-.38l0-.4A.39.39,0,0,1,70.2,13a.4.4,0,0,1,.43.37l0,.4a.4.4,0,0,1-.37.43ZM7,13.23a.4.4,0,0,1-.4-.38l0-.4A.42.42,0,0,1,7,12a.41.41,0,0,1,.42.38l0,.4a.42.42,0,0,1-.38.43Zm63.13-1.07a.4.4,0,0,1-.4-.38l0-.4a.41.41,0,0,1,.38-.43.4.4,0,0,1,.42.38l0,.4a.4.4,0,0,1-.38.42ZM7.6,11.87a.4.4,0,0,1,0-.8L8,11a.42.42,0,0,1,.43.38.4.4,0,0,1-.38.42l-.4,0Zm2-.13a.4.4,0,0,1-.4-.37.4.4,0,0,1,.37-.43l.4,0a.4.4,0,0,1,.43.37.41.41,0,0,1-.38.43l-.4,0Zm2-.12a.4.4,0,0,1-.4-.38.41.41,0,0,1,.38-.43l.4,0a.4.4,0,0,1,0,.8l-.4,0Zm2-.13a.4.4,0,0,1,0-.8l.4,0a.4.4,0,0,1,.42.38.39.39,0,0,1-.37.42l-.4,0Zm2-.13a.4.4,0,0,1,0-.8l.4,0a.41.41,0,1,1,0,.81l-.4,0Zm2-.12a.41.41,0,0,1,0-.81l.4,0a.4.4,0,0,1,.43.37.41.41,0,0,1-.38.43l-.4,0Zm2-.13a.4.4,0,0,1-.4-.38.4.4,0,0,1,.38-.42l.4,0a.4.4,0,0,1,.42.38.39.39,0,0,1-.37.42l-.4,0Zm2-.13a.4.4,0,0,1,0-.8l.4,0a.41.41,0,0,1,.42.38.39.39,0,0,1-.37.42l-.4,0Zm2-.13a.4.4,0,0,1-.4-.37.4.4,0,0,1,.37-.43l.4,0a.4.4,0,0,1,.43.37.42.42,0,0,1-.38.43l-.4,0Zm2-.12a.4.4,0,0,1-.4-.38.39.39,0,0,1,.37-.42l.4,0a.4.4,0,0,1,.43.37.4.4,0,0,1-.37.43l-.41,0Zm2-.13a.4.4,0,0,1-.4-.38.4.4,0,0,1,.38-.42l.4,0a.41.41,0,0,1,.42.38.39.39,0,0,1-.37.42l-.4,0Zm2-.13a.4.4,0,0,1-.4-.37.42.42,0,0,1,.38-.43l.4,0a.4.4,0,0,1,.43.37.42.42,0,0,1-.38.43l-.4,0Zm2-.12a.41.41,0,0,1,0-.81l.4,0a.4.4,0,0,1,.43.37.41.41,0,0,1-.38.43l-.4,0Zm2-.13a.4.4,0,0,1,0-.8l.4,0a.41.41,0,0,1,.43.38.39.39,0,0,1-.37.42l-.4,0ZM70,10.15a.4.4,0,0,1-.4-.37l0-.4A.41.41,0,0,1,70,9a.4.4,0,0,1,.42.38l0,.4a.4.4,0,0,1-.38.42Zm-34.36-.06a.4.4,0,0,1,0-.8l.4,0a.41.41,0,0,1,0,.81l-.4,0Zm2-.13a.4.4,0,0,1-.4-.37.42.42,0,0,1,.38-.43l.4,0a.4.4,0,0,1,.43.37.42.42,0,0,1-.38.43l-.4,0Zm2-.12a.4.4,0,0,1-.4-.38A.39.39,0,0,1,39.62,9L40,9a.41.41,0,0,1,.43.38.4.4,0,0,1-.38.42l-.4,0Zm2-.13a.4.4,0,0,1,0-.8l.41,0a.4.4,0,0,1,.42.38.39.39,0,0,1-.37.42l-.4,0Zm2-.13a.4.4,0,0,1-.4-.37.42.42,0,0,1,.38-.43l.4,0a.38.38,0,0,1,.42.37.4.4,0,0,1-.37.43l-.4,0Zm2-.12a.41.41,0,0,1,0-.81l.4,0a.4.4,0,1,1,0,.8l-.4,0Zm2-.13a.4.4,0,0,1-.4-.38.39.39,0,0,1,.37-.42l.4,0a.41.41,0,0,1,.43.38.4.4,0,0,1-.38.42l-.4,0Zm2-.13a.4.4,0,0,1,0-.8l.4,0a.41.41,0,0,1,.42.38.4.4,0,0,1-.37.43l-.4,0Zm2-.13a.4.4,0,0,1-.4-.37.42.42,0,0,1,.38-.43l.4,0a.39.39,0,0,1,.42.37.4.4,0,0,1-.37.43l-.4,0Zm2-.12a.4.4,0,0,1-.4-.38.39.39,0,0,1,.37-.42l.4,0a.41.41,0,0,1,.43.38.4.4,0,0,1-.38.42l-.4,0Zm2-.13a.4.4,0,0,1-.4-.38A.39.39,0,0,1,55.64,8L56,8a.4.4,0,0,1,.43.38.4.4,0,0,1-.38.42l-.4,0Zm2-.13a.4.4,0,0,1-.4-.37.41.41,0,0,1,.38-.43l.4,0a.39.39,0,0,1,.42.37.4.4,0,0,1-.37.43l-.4,0Zm2-.12a.41.41,0,0,1-.4-.38.42.42,0,0,1,.38-.43l.4,0a.41.41,0,0,1,.43.37.4.4,0,0,1-.38.43l-.4,0Zm2-.13a.4.4,0,0,1-.4-.38.39.39,0,0,1,.37-.42l.4,0a.41.41,0,0,1,.43.38.4.4,0,0,1-.38.42l-.4,0Zm2-.13a.4.4,0,0,1,0-.8l.4,0a.4.4,0,0,1,.43.37.41.41,0,0,1-.37.43l-.41,0Zm2-.12a.4.4,0,0,1-.4-.38.42.42,0,0,1,.38-.43l.4,0a.4.4,0,0,1,0,.8l-.4,0Zm4.19,0a.41.41,0,0,1-.38-.27.4.4,0,0,1-.2-.32.39.39,0,0,1,.37-.43h.17a.38.38,0,0,1,.29.1.42.42,0,0,1,.14.27v.23a.39.39,0,0,1-.37.43Zm-2.19-.09a.41.41,0,0,1-.4-.38.4.4,0,0,1,.38-.42l.4,0a.42.42,0,0,1,.43.38.4.4,0,0,1-.38.42l-.4,0Z"/><path class="cls-3" d="M58.94,45a.41.41,0,0,1-.4-.38l0-.4a.4.4,0,0,1,.37-.43.42.42,0,0,1,.43.38l0,.4A.4.4,0,0,1,59,45Zm-.12-2a.4.4,0,0,1-.4-.37l0-.4a.41.41,0,0,1,.38-.43.4.4,0,0,1,.42.38l0,.4a.4.4,0,0,1-.38.42Zm-.13-2a.4.4,0,0,1-.4-.37l0-.4a.4.4,0,0,1,.38-.43.39.39,0,0,1,.42.37l0,.4a.4.4,0,0,1-.37.43Zm-.13-2a.4.4,0,0,1-.4-.38l0-.4a.39.39,0,0,1,.37-.42.4.4,0,0,1,.43.37l0,.4a.4.4,0,0,1-.37.43Zm-.12-2a.41.41,0,0,1-.41-.38l0-.4a.4.4,0,1,1,.8-.05l0,.4a.42.42,0,0,1-.38.43Zm-.13-2a.4.4,0,0,1-.4-.37l0-.4a.42.42,0,0,1,.38-.43.41.41,0,0,1,.42.38l0,.4a.4.4,0,0,1-.38.42Zm-.13-2a.4.4,0,0,1-.4-.37l0-.41a.39.39,0,0,1,.37-.42.41.41,0,0,1,.43.37l0,.4a.39.39,0,0,1-.37.43Zm-.13-2a.4.4,0,0,1-.4-.38l0-.4a.39.39,0,0,1,.37-.42.4.4,0,0,1,.43.37l0,.4a.4.4,0,0,1-.37.43Zm-.12-2a.4.4,0,0,1-.4-.38l0-.4a.41.41,0,0,1,.38-.43.4.4,0,0,1,.42.38l0,.4a.42.42,0,0,1-.38.43Zm-.13-2a.4.4,0,0,1-.4-.37l0-.4a.42.42,0,0,1,.38-.43.41.41,0,0,1,.43.38l0,.4a.39.39,0,0,1-.37.42Zm-.13-2a.4.4,0,0,1-.4-.38l0-.4a.39.39,0,0,1,.37-.42.4.4,0,0,1,.43.37l0,.4a.39.39,0,0,1-.37.43Zm-.12-2a.4.4,0,0,1-.4-.38l0-.4a.4.4,0,0,1,.8,0l0,.4a.42.42,0,0,1-.38.43Zm-.13-2a.4.4,0,0,1-.4-.38l0-.4a.42.42,0,0,1,.38-.43.41.41,0,0,1,.42.38l0,.4a.4.4,0,0,1-.38.42Zm-.13-2a.4.4,0,0,1-.4-.37l0-.4a.4.4,0,0,1,.37-.43.41.41,0,0,1,.43.38l0,.4a.39.39,0,0,1-.37.42Zm-.13-2a.4.4,0,0,1-.4-.38l0-.4a.39.39,0,0,1,.37-.42.4.4,0,0,1,.43.37l0,.4a.41.41,0,0,1-.38.43Zm-.12-2a.4.4,0,0,1-.4-.38l0-.4a.4.4,0,0,1,.38-.42.39.39,0,0,1,.42.37l0,.4a.42.42,0,0,1-.38.43Z"/><path class="cls-3" d="M17.67,44.61a5.43,5.43,0,0,1-2.36-.52,4.72,4.72,0,0,0-2.47-.44.41.41,0,0,1-.43-.38.39.39,0,0,1,.37-.42,5.54,5.54,0,0,1,2.84.5,4.74,4.74,0,0,0,2.48.44A4.71,4.71,0,0,0,20.5,43a5.51,5.51,0,0,1,2.75-.86,5.45,5.45,0,0,1,2.84.51,4.8,4.8,0,0,0,2.47.44A4.92,4.92,0,0,0,31,42.38,6.08,6.08,0,0,1,36.55,42a4.74,4.74,0,0,0,2.48.44,4.68,4.68,0,0,0,2.4-.75,5.55,5.55,0,0,1,2.75-.86,5.66,5.66,0,0,1,2.84.51,4.85,4.85,0,0,0,2.48.44,5,5,0,0,0,2.41-.75,5.48,5.48,0,0,1,2.75-.86.4.4,0,0,1,.42.38.39.39,0,0,1-.37.42,4.92,4.92,0,0,0-2.41.75,6.1,6.1,0,0,1-5.59.36,5.31,5.31,0,0,0-4.88.31,5.51,5.51,0,0,1-2.75.86,5.59,5.59,0,0,1-2.83-.51,5.33,5.33,0,0,0-4.89.31,5.48,5.48,0,0,1-2.75.86,5.52,5.52,0,0,1-2.83-.5,5.23,5.23,0,0,0-4.88.31,5.63,5.63,0,0,1-2.75.85Z"/><path class="cls-3" d="M17.82,47a5.34,5.34,0,0,1-2.35-.52A4.76,4.76,0,0,0,13,46a.4.4,0,0,1-.43-.38.4.4,0,0,1,.38-.42,5.5,5.5,0,0,1,2.83.5,4.74,4.74,0,0,0,2.48.44,4.68,4.68,0,0,0,2.4-.75,5.55,5.55,0,0,1,2.75-.86,5.66,5.66,0,0,1,2.84.51,4.83,4.83,0,0,0,2.47.44,4.92,4.92,0,0,0,2.41-.75,6.08,6.08,0,0,1,5.58-.36,5.26,5.26,0,0,0,4.89-.31,5.38,5.38,0,0,1,2.74-.85,5.52,5.52,0,0,1,2.84.5,4.76,4.76,0,0,0,2.48.44,4.81,4.81,0,0,0,2.41-.75,5.51,5.51,0,0,1,2.75-.86.4.4,0,0,1,.42.38.39.39,0,0,1-.37.42,4.81,4.81,0,0,0-2.41.76A5.63,5.63,0,0,1,49.7,45a5.5,5.5,0,0,1-2.83-.5,5.33,5.33,0,0,0-4.89.31,6,6,0,0,1-5.58.35,4.87,4.87,0,0,0-2.48-.44,5,5,0,0,0-2.41.75,5.47,5.47,0,0,1-2.74.86,5.57,5.57,0,0,1-2.84-.5,4.74,4.74,0,0,0-2.48-.44,4.71,4.71,0,0,0-2.4.75A5.42,5.42,0,0,1,18.3,47,4,4,0,0,1,17.82,47Z"/><text class="cls-4" transform="translate(70.83 45.27) rotate(-93.63) scale(0.87 1)">CO<tspan class="cls-5" x="18.64" y="0">R</tspan><tspan x="26.16" y="0">TE</tspan></text><path class="cls-3" d="M48.38,33.69,42.8,28.11a1,1,0,0,0-.71-.29,1,1,0,0,0-.52.14l-3.13-3.13a.41.41,0,1,0-.58.58L41,28.52l-1.15,1.15L34.11,24l1.15-1.15.76.77a.42.42,0,0,0,.59,0,.41.41,0,0,0,0-.58l-.77-.77,2-2,.16.16a1,1,0,0,0,.73.3,1,1,0,0,0,.73-.3l.73-.73a1,1,0,0,0,.31-.73,1,1,0,0,0-.31-.73l-5.62-5.63a1,1,0,0,0-1.46,0l-.73.74a1,1,0,0,0-.31.73,1,1,0,0,0,.31.73l.15.16-6.28,6.28-.16-.16a1,1,0,0,0-1.46,0l-.73.74a1,1,0,0,0-.31.73,1,1,0,0,0,.31.73l5.62,5.62a1,1,0,0,0,.73.3,1,1,0,0,0,.73-.3l.73-.73h0a1,1,0,0,0,0-1.46l-.15-.16,2-2,5.73,5.73a1,1,0,0,0-.14.52,1,1,0,0,0,.29.71L45,37.08a1,1,0,0,0,1.42,0l2-2a1,1,0,0,0,0-1.42ZM33,13.9l.73-.73a.2.2,0,0,1,.3,0l5.62,5.62a.2.2,0,0,1,.06.15.22.22,0,0,1-.06.15l-.73.73a.22.22,0,0,1-.3,0L33,14.2a.22.22,0,0,1,0-.3ZM31.12,27.57l-.73.73a.22.22,0,0,1-.3,0l-5.62-5.62a.22.22,0,0,1,0-.3l.73-.73a.2.2,0,0,1,.3,0l5.62,5.62A.22.22,0,0,1,31.12,27.57Zm2.12-3.9h0L31,26,26.82,21.8l6.28-6.28,4.15,4.14L35,21.94h0ZM47.8,34.53l-2,2a.19.19,0,0,1-.26,0L40,30.92a.19.19,0,0,1,0-.26l.12-.12L42,28.69a.19.19,0,0,1,.26,0l5.58,5.58a.19.19,0,0,1,0,.26Z"/><path class="cls-3" d="M37.17,34.76h-.63V32.59a.87.87,0,0,0-.88-.87H28.57a.41.41,0,0,0-.41.41.42.42,0,0,0,.41.41h7.09a.06.06,0,0,1,.06.05v2.17H24.79V32.59a.05.05,0,0,1,.05-.05H26a.41.41,0,0,0,.41-.41.41.41,0,0,0-.41-.41H24.84a.87.87,0,0,0-.87.87v2.17h-.63a1.79,1.79,0,0,0-1.79,1.79v1.17a.68.68,0,0,0,.69.68h16a.68.68,0,0,0,.69-.68V36.55A1.79,1.79,0,0,0,37.17,34.76Zm1,2.82H22.37v-1a1,1,0,0,1,1-1H37.17a1,1,0,0,1,1,1Z"/></svg>