<svg xmlns="http://www.w3.org/2000/svg" viewBox="0 0 892.19 338.65"><defs><style>.cls-1{fill:#ededed;}.cls-2{fill:#dad6e8;}.cls-3{fill:#9d9d9c;}.cls-4{fill:#48348a;}.cls-5{fill:#f6f6f6;}.cls-6{fill:#fff;}</style></defs><g id="Capa_2" data-name="Capa 2"><g id="Capa_1-2" data-name="Capa 1"><rect class="cls-1" y="0.75" width="206.89" height="39.83" rx="19.91"/><rect class="cls-1" y="50.3" width="206.89" height="39.83" rx="19.91"/><rect class="cls-1" y="99.86" width="206.89" height="39.83" rx="19.91"/><rect class="cls-1" y="149.41" width="206.89" height="39.83" rx="19.91"/><rect class="cls-1" y="198.96" width="206.89" height="39.83" rx="19.91"/><rect class="cls-2" y="248.51" width="206.89" height="39.83" rx="19.91"/><rect class="cls-1" y="298.07" width="206.89" height="39.83" rx="19.91"/><path class="cls-3" d="M46.09,9.82a1.59,1.59,0,0,1,1.56-1.23,1.72,1.72,0,0,1,1.61,1.15l1.88,6.34h0l1.88-6.34a1.71,1.71,0,0,1,1.61-1.15,1.59,1.59,0,0,1,1.56,1.23l1.49,8.93a1.32,1.32,0,0,1,0,.27,1.1,1.1,0,0,1-1.15,1.15c-.82,0-1.14-.36-1.25-1.12l-1-6.51h0l-1.92,6.71a1.35,1.35,0,0,1-2.56,0L48,12.54h0l-1,6.51c-.11.76-.43,1.12-1.25,1.12A1.1,1.1,0,0,1,44.58,19a1.32,1.32,0,0,1,0-.27Z"/><path class="cls-3" d="M60.63,16.59a2,2,0,0,0,2.18,1.66c1.18,0,2-.92,2.61-.92a1,1,0,0,1,.94,1c0,1-2,1.95-3.76,1.95a4.2,4.2,0,0,1-4.32-4.43,4.14,4.14,0,1,1,8.27-.28c0,.69-.3,1-1,1Zm3.62-1.54a1.83,1.83,0,0,0-1.84-1.76,1.86,1.86,0,0,0-1.83,1.76Z"/><path class="cls-3" d="M72.22,14.06c-.44,0-1.32-.67-2.07-.67-.42,0-.78.19-.78.64,0,1.07,4,.91,4,3.54,0,1.53-1.3,2.7-3.28,2.7-1.3,0-3.22-.74-3.22-1.78a1.08,1.08,0,0,1,1-1c.9,0,1.3.78,2.39.78.7,0,.91-.22.91-.65,0-1.06-4-.9-4-3.54,0-1.6,1.29-2.69,3.12-2.69,1.13,0,2.88.53,2.88,1.67A1,1,0,0,1,72.22,14.06Z"/><path class="cls-3" d="M82.06,18.67c0,.59,0,1.5-1.11,1.5-.67,0-.94-.36-1.1-1a2.78,2.78,0,0,1-2.2,1.07c-2.16,0-3.81-1.84-3.81-4.43s1.7-4.47,3.81-4.47a2.65,2.65,0,0,1,2.2,1.06,1.09,1.09,0,0,1,1.1-1c1.11,0,1.11.91,1.11,1.5ZM78,18.16c1.21,0,1.78-1.22,1.78-2.32s-.56-2.36-1.78-2.36-1.82,1.25-1.82,2.36S76.73,18.16,78,18.16Z"/><path class="cls-3" d="M95.53,18.89a1.16,1.16,0,0,1-1.15,1.28,1.11,1.11,0,0,1-1.16-1,2.5,2.5,0,0,1-2.11,1.06c-2.32,0-3.79-2.16-3.79-4.34s1.23-4.56,3.71-4.56a3.32,3.32,0,0,1,2.19.8V9a1.16,1.16,0,1,1,2.31,0Zm-4.12-5.41c-1.2,0-1.79,1.27-1.79,2.36s.59,2.32,1.79,2.32,1.81-1.28,1.81-2.4S92.65,13.48,91.41,13.48Z"/><path class="cls-3" d="M98.69,16.59a2,2,0,0,0,2.18,1.66c1.18,0,2-.92,2.61-.92a1,1,0,0,1,.94,1c0,1-2,1.95-3.76,1.95a4.2,4.2,0,0,1-4.32-4.43,4.15,4.15,0,1,1,8.28-.28c0,.69-.31,1-1,1Zm3.62-1.54a1.83,1.83,0,0,0-1.84-1.76,1.86,1.86,0,0,0-1.82,1.76Z"/><path class="cls-3" d="M111.7,10.89H110a1,1,0,0,1-1.09-1.1A1.08,1.08,0,0,1,110,8.68h5.89a1.07,1.07,0,0,1,1.08,1.11,1,1,0,0,1-1.08,1.1H114.1v8a1.2,1.2,0,1,1-2.4,0Z"/><path class="cls-3" d="M115.89,12.62a1.13,1.13,0,0,1,1.19-1.15c.6,0,1.12.22,1.12,1h0a1.82,1.82,0,0,1,1.62-1A1.12,1.12,0,0,1,121,12.7c0,.75-.69.8-1.38,1.12s-1.39.62-1.39,1.54v3.53a1.16,1.16,0,1,1-2.31,0Z"/><path class="cls-3" d="M129.13,18.67c0,.59,0,1.5-1.11,1.5-.67,0-.94-.36-1.1-1a2.76,2.76,0,0,1-2.19,1.07c-2.17,0-3.81-1.84-3.81-4.43s1.69-4.47,3.81-4.47a2.64,2.64,0,0,1,2.19,1.06,1.09,1.09,0,0,1,1.1-1c1.11,0,1.11.91,1.11,1.5Zm-4.08-.51c1.2,0,1.77-1.22,1.77-2.32s-.56-2.36-1.77-2.36-1.83,1.25-1.83,2.36S123.8,18.16,125.05,18.16Z"/><path class="cls-3" d="M130.44,9a1.16,1.16,0,1,1,2.3,0v3.14a3.32,3.32,0,0,1,2.19-.8c2.48,0,3.72,2.32,3.72,4.56s-1.48,4.34-3.8,4.34a2.5,2.5,0,0,1-2.11-1.06,1.1,1.1,0,0,1-1.15,1,1.16,1.16,0,0,1-1.15-1.28Zm4.11,9.13c1.2,0,1.79-1.25,1.79-2.32s-.59-2.36-1.79-2.36-1.81,1.16-1.81,2.28S133.28,18.16,134.55,18.16Z"/><path class="cls-3" d="M147.49,18.67c0,.59,0,1.5-1.1,1.5-.67,0-.94-.36-1.1-1a2.79,2.79,0,0,1-2.2,1.07c-2.16,0-3.81-1.84-3.81-4.43s1.7-4.47,3.81-4.47a2.66,2.66,0,0,1,2.2,1.06,1.09,1.09,0,0,1,1.1-1c1.1,0,1.1.91,1.1,1.5Zm-4.08-.51c1.2,0,1.78-1.22,1.78-2.32s-.56-2.36-1.78-2.36-1.82,1.25-1.82,2.36S142.16,18.16,143.41,18.16Z"/><path class="cls-3" d="M151.22,9.27a1.32,1.32,0,0,1-1.3,1.33,1.35,1.35,0,0,1-1.29-1.33,1.3,1.3,0,0,1,2.59,0Zm-2.45,3.48a1.16,1.16,0,1,1,2.31,0v9.54a1.16,1.16,0,1,1-2.31,0Z"/><path class="cls-3" d="M160.28,15.84a4.14,4.14,0,1,1-8.26,0,4.14,4.14,0,1,1,8.26,0Zm-6,0c0,1.1.58,2.32,1.83,2.32S158,16.94,158,15.84s-.56-2.36-1.82-2.36S154.32,14.73,154.32,15.84Z"/><path class="cls-3" d="M46.09,25.82a1.59,1.59,0,0,1,1.56-1.23,1.72,1.72,0,0,1,1.61,1.15l1.88,6.34h0l1.88-6.34a1.71,1.71,0,0,1,1.61-1.15,1.59,1.59,0,0,1,1.56,1.23l1.49,8.93a1.32,1.32,0,0,1,0,.27,1.1,1.1,0,0,1-1.15,1.15c-.82,0-1.14-.36-1.25-1.12l-1-6.51h0l-1.92,6.71a1.35,1.35,0,0,1-2.56,0L48,28.54h0l-1,6.51c-.11.76-.43,1.12-1.25,1.12A1.1,1.1,0,0,1,44.58,35a1.32,1.32,0,0,1,0-.27Z"/><path class="cls-3" d="M62.93,30.43a1,1,0,0,1,0,2h-3.4a1,1,0,0,1,0-2Z"/><path class="cls-3" d="M65,28.62a1.13,1.13,0,0,1,1.19-1.15c.61,0,1.12.22,1.12,1h0a1.82,1.82,0,0,1,1.62-1A1.12,1.12,0,0,1,70,28.7c0,.75-.69.8-1.38,1.12s-1.39.62-1.39,1.54v3.53a1.16,1.16,0,1,1-2.31,0Z"/><path class="cls-3" d="M72.74,25.27a1.31,1.31,0,0,1-1.29,1.33,1.35,1.35,0,0,1-1.3-1.33A1.33,1.33,0,0,1,71.45,24,1.31,1.31,0,0,1,72.74,25.27Zm-2.45,3.48a1.16,1.16,0,1,1,2.31,0v6.14a1.16,1.16,0,1,1-2.31,0Z"/><path class="cls-3" d="M78.73,30.06c-.44,0-1.32-.67-2.07-.67-.41,0-.78.19-.78.64,0,1.07,4,.91,4,3.54,0,1.53-1.3,2.7-3.28,2.7-1.3,0-3.22-.74-3.22-1.78a1.08,1.08,0,0,1,1-1c.9,0,1.3.78,2.39.78.7,0,.91-.22.91-.65,0-1.06-4-.9-4-3.54,0-1.6,1.3-2.69,3.12-2.69,1.14,0,2.88.53,2.88,1.67A1,1,0,0,1,78.73,30.06Z"/><path class="cls-3" d="M80.69,25A1.16,1.16,0,1,1,83,25v5.38L85.53,28a1.53,1.53,0,0,1,1-.49,1,1,0,0,1,1,1,1.15,1.15,0,0,1-.44.91l-2,1.82,2.7,3.17a1.16,1.16,0,0,1,.29.77A1.08,1.08,0,0,1,87,36.27c-.42,0-.73-.26-1.1-.7L83,32.09h0v2.8a1.16,1.16,0,1,1-2.31,0Z"/><path class="cls-3" d="M24.22,14.84H22.51a1.87,1.87,0,0,1-2-2,1.93,1.93,0,0,1,2-2h4.12a1.88,1.88,0,0,1,1.94,2.05V29.4a2.18,2.18,0,1,1-4.35,0Z"/><path class="cls-3" d="M34.43,27.31a2.27,2.27,0,1,1-2.26,2.26A2.26,2.26,0,0,1,34.43,27.31Z"/><path class="cls-3" d="M27,77.21c1.27,0,2.26.58,2.26,1.92A1.87,1.87,0,0,1,27.15,81H17.46c-1.27,0-2.26-.58-2.26-1.91a2.43,2.43,0,0,1,.67-1.48c2.41-2.87,5-5.48,7.22-8.68a4.79,4.79,0,0,0,1-2.69A2.18,2.18,0,0,0,22,64c-3.34,0-1.74,4.7-4.53,4.7a2,2,0,0,1-2.12-2.12A6.82,6.82,0,0,1,22.19,60c3.57,0,6.44,2.35,6.44,6,0,4-4.5,8-7,11.14Z"/><path class="cls-3" d="M34.43,76.86a2.27,2.27,0,1,1-2.26,2.27A2.27,2.27,0,0,1,34.43,76.86Z"/><path class="cls-3" d="M27.93,114.9a5.07,5.07,0,0,1-2.37,4.44,5.78,5.78,0,0,1,3.53,5.19c0,3.48-3.19,6.41-7.31,6.41-4.29,0-7-3.16-7-5.45a2.19,2.19,0,0,1,2.24-1.94c2,0,1.51,3.39,4.78,3.39a2.68,2.68,0,0,0,2.73-2.7c0-4.06-4.93-1.07-4.93-4.49,0-3,4.12-1,4.12-4.21a1.92,1.92,0,0,0-2.09-1.94c-2.76,0-2.38,2.84-4.35,2.84a2,2,0,0,1-1.89-2.15c0-2.26,3.11-4.7,6.33-4.7C25.93,109.59,27.93,112.64,27.93,114.9Z"/><path class="cls-3" d="M34.43,126.42a2.26,2.26,0,1,1-2.26,2.26A2.26,2.26,0,0,1,34.43,126.42Z"/><path class="cls-3" d="M16.39,175.59a1.82,1.82,0,0,1-2-1.71,2.13,2.13,0,0,1,.41-1.27l6.49-11.78a3,3,0,0,1,3-1.68c1.68,0,3.34,1.07,3.34,3.71v8.9h.49a1.92,1.92,0,1,1,0,3.83h-.49v2.47c0,1.54-.61,2.26-2.09,2.26s-2.09-.72-2.09-2.26v-2.47Zm7-11.92h-.06l-3.91,8.09h4Z"/><path class="cls-3" d="M34.43,176a2.27,2.27,0,1,1-2.26,2.26A2.26,2.26,0,0,1,34.43,176Z"/><path class="cls-3" d="M20.71,216.13a10.59,10.59,0,0,1,2.18-.29,6,6,0,0,1,6,6.17c0,4.85-2.67,8-7.69,8-2.05,0-6.38-1.34-6.38-3.89a2,2,0,0,1,2-2c1.16,0,2.55,1.86,4.49,1.86s3.08-2,3.08-3.8a2.65,2.65,0,0,0-2.79-2.93c-1.68,0-1.94,1-3.42,1a1.62,1.62,0,0,1-1.71-1.36c0-.38.06-.67.08-1l.73-6.12c.32-2.26.87-2.75,2.26-2.75h7a1.87,1.87,0,0,1,2.12,1.82,1.93,1.93,0,0,1-2,2.18H21.15Z"/><path class="cls-3" d="M34.43,225.52a2.27,2.27,0,1,1-2.26,2.27A2.27,2.27,0,0,1,34.43,225.52Z"/><path class="cls-4" d="M14.94,272.41c0-4.38,4.44-10.53,7.37-13.26a6.24,6.24,0,0,1,.93-.69,1.44,1.44,0,0,1,.87-.21,2.46,2.46,0,0,1,2.05,2.12,2.08,2.08,0,0,1-.6,1.19c-1.16,1.42-3,3.28-4,4.64l.06.06a4.7,4.7,0,0,1,1.83-.35,6.3,6.3,0,0,1,6.06,6.5,7.19,7.19,0,0,1-7.28,7.19A7,7,0,0,1,14.94,272.41Zm4.52,0a2.77,2.77,0,1,0,2.76-3A2.78,2.78,0,0,0,19.46,272.41Z"/><path class="cls-4" d="M34.43,275.08a2.26,2.26,0,1,1-2.26,2.26A2.26,2.26,0,0,1,34.43,275.08Z"/><path class="cls-3" d="M25,312.16H17.52a1.93,1.93,0,0,1-2.15-2,1.9,1.9,0,0,1,2.15-2H28a2.12,2.12,0,0,1,2.09,2.09,4.91,4.91,0,0,1-.67,1.92l-7.19,14.62c-.81,1.62-1.13,2.2-2.44,2.2a2.28,2.28,0,0,1-2.41-2.06,2.09,2.09,0,0,1,.29-1Z"/><path class="cls-3" d="M34.43,324.63a2.26,2.26,0,1,1-2.26,2.26A2.26,2.26,0,0,1,34.43,324.63Z"/><path class="cls-3" d="M47.56,59.37A1.87,1.87,0,0,1,49.27,58,1.8,1.8,0,0,1,51,59.37l3.14,8.71a1.75,1.75,0,0,1,.13.59,1.07,1.07,0,0,1-1.11,1.06A1.12,1.12,0,0,1,52,68.89l-.48-1.5H47.05l-.48,1.49a1.12,1.12,0,0,1-1.16.85,1.14,1.14,0,0,1-1.18-1.12,1.41,1.41,0,0,1,.11-.53Zm.17,5.81h3.05l-1.49-4.64h0Z"/><path class="cls-3" d="M62.81,68.45a1.17,1.17,0,0,1-1.15,1.28,1.12,1.12,0,0,1-1.16-1,2.5,2.5,0,0,1-2.11,1c-2.32,0-3.79-2.16-3.79-4.33s1.23-4.57,3.71-4.57a3.36,3.36,0,0,1,2.19.8V58.59a1.16,1.16,0,1,1,2.31,0ZM58.7,63c-1.21,0-1.8,1.26-1.8,2.35s.59,2.32,1.8,2.32,1.8-1.28,1.8-2.4S59.93,63,58.7,63Z"/><path class="cls-3" d="M64.12,62.3A1.16,1.16,0,0,1,65.27,61a1,1,0,0,1,1.06.86,2.88,2.88,0,0,1,2.14-1,3,3,0,0,1,2.39,1.17,3.48,3.48,0,0,1,2.43-1.17A2.89,2.89,0,0,1,76.44,64v4.42a1.16,1.16,0,1,1-2.3,0v-4a1.4,1.4,0,0,0-1.35-1.59c-.85,0-1.36.66-1.36,1.59v4a1.16,1.16,0,1,1-2.3,0v-4a1.4,1.4,0,0,0-1.35-1.59c-.94,0-1.36.66-1.36,1.59v4a1.16,1.16,0,1,1-2.3,0Z"/><path class="cls-3" d="M80.17,58.83a1.32,1.32,0,0,1-1.3,1.33,1.36,1.36,0,0,1-1.3-1.33,1.33,1.33,0,0,1,1.3-1.27A1.32,1.32,0,0,1,80.17,58.83ZM77.72,62.3a1.16,1.16,0,1,1,2.3,0v6.15a1.16,1.16,0,1,1-2.3,0Z"/><path class="cls-3" d="M81.3,62.3A1.16,1.16,0,0,1,82.45,61a1,1,0,0,1,1.06.85,2.48,2.48,0,0,1,2.22-.95A3,3,0,0,1,88.89,64v4.42a1.16,1.16,0,1,1-2.31,0v-4a1.49,1.49,0,1,0-3,0v4a1.16,1.16,0,1,1-2.31,0Z"/><path class="cls-3" d="M92.61,58.83a1.31,1.31,0,0,1-1.29,1.33A1.36,1.36,0,0,1,90,58.83a1.33,1.33,0,0,1,1.3-1.27A1.31,1.31,0,0,1,92.61,58.83ZM90.16,62.3a1.16,1.16,0,1,1,2.31,0v6.15a1.16,1.16,0,1,1-2.31,0Z"/><path class="cls-3" d="M98.6,63.61c-.43,0-1.31-.67-2.07-.67-.41,0-.78.19-.78.64,0,1.07,4,.91,4,3.54,0,1.53-1.3,2.7-3.28,2.7-1.3,0-3.22-.73-3.22-1.77a1.08,1.08,0,0,1,1-1c.9,0,1.3.79,2.39.79.7,0,.91-.23.91-.66,0-1.06-4-.9-4-3.54,0-1.6,1.3-2.69,3.12-2.69,1.14,0,2.88.53,2.88,1.67A1,1,0,0,1,98.6,63.61Z"/><path class="cls-3" d="M101.12,63.13h-.51a.94.94,0,0,1-1-1,1,1,0,0,1,1-1h.51V59.74a1.16,1.16,0,1,1,2.31,0v1.37h.66a1,1,0,1,1,0,2h-.66v5.32a1.16,1.16,0,1,1-2.31,0Z"/><path class="cls-3" d="M105.27,62.17A1.13,1.13,0,0,1,106.45,61c.61,0,1.12.22,1.12,1h0a1.81,1.81,0,0,1,1.61-1,1.12,1.12,0,0,1,1.12,1.23c0,.75-.69.8-1.37,1.12s-1.4.63-1.4,1.54v3.54a1.16,1.16,0,1,1-2.3,0Z"/><path class="cls-3" d="M118.5,68.22c0,.59,0,1.51-1.1,1.51-.67,0-1-.37-1.11-1a2.76,2.76,0,0,1-2.19,1.07c-2.16,0-3.81-1.84-3.81-4.43s1.7-4.47,3.81-4.47A2.63,2.63,0,0,1,116.29,62a1.1,1.1,0,0,1,1.11-1c1.1,0,1.1.91,1.1,1.5Zm-4.08-.51c1.2,0,1.78-1.22,1.78-2.32S115.64,63,114.42,63s-1.82,1.24-1.82,2.35S113.17,67.71,114.42,67.71Z"/><path class="cls-3" d="M127.69,68.45a1.17,1.17,0,0,1-1.16,1.28,1.11,1.11,0,0,1-1.15-1,2.51,2.51,0,0,1-2.11,1c-2.32,0-3.79-2.16-3.79-4.33s1.23-4.57,3.71-4.57a3.38,3.38,0,0,1,2.19.8V58.59a1.16,1.16,0,1,1,2.31,0ZM123.57,63c-1.2,0-1.79,1.26-1.79,2.35s.59,2.32,1.79,2.32,1.81-1.28,1.81-2.4S124.81,63,123.57,63Z"/><path class="cls-3" d="M136.92,65.39a4.14,4.14,0,1,1-8.26,0,4.14,4.14,0,1,1,8.26,0Zm-6,0c0,1.1.58,2.32,1.83,2.32s1.82-1.22,1.82-2.32S134.05,63,132.79,63,131,64.28,131,65.39Z"/><path class="cls-3" d="M137.86,62.17A1.13,1.13,0,0,1,139,61c.61,0,1.12.22,1.12,1h0a1.81,1.81,0,0,1,1.61-1,1.12,1.12,0,0,1,1.12,1.23c0,.75-.68.8-1.37,1.12s-1.4.63-1.4,1.54v3.54a1.16,1.16,0,1,1-2.3,0Z"/><path class="cls-3" d="M144.79,66.14A2,2,0,0,0,147,67.81c1.18,0,2-.93,2.6-.93a1,1,0,0,1,1,1c0,1-2.05,1.95-3.76,1.95a4.19,4.19,0,0,1-4.32-4.43,4.14,4.14,0,1,1,8.27-.27c0,.68-.3,1-1,1Zm3.62-1.54a1.83,1.83,0,0,0-1.85-1.76,1.86,1.86,0,0,0-1.82,1.76Z"/><path class="cls-3" d="M156.37,63.61c-.43,0-1.31-.67-2.06-.67-.42,0-.79.19-.79.64,0,1.07,4,.91,4,3.54,0,1.53-1.3,2.7-3.29,2.7-1.29,0-3.21-.73-3.21-1.77a1.08,1.08,0,0,1,1-1c.9,0,1.3.79,2.38.79.71,0,.92-.23.92-.66,0-1.06-4-.9-4-3.54,0-1.6,1.29-2.69,3.12-2.69,1.13,0,2.88.53,2.88,1.67A1,1,0,0,1,156.37,63.61Z"/><path class="cls-3" d="M44.92,75.48a1.16,1.16,0,0,1,1.25-1.25H49a3.82,3.82,0,0,1,4.1,3.83,3.76,3.76,0,0,1-4,3.79H47.32v2.63a1.2,1.2,0,1,1-2.4,0Zm2.4,4.26H49a1.7,1.7,0,0,0,0-3.39H47.32Z"/><path class="cls-3" d="M53.72,74.59a1.16,1.16,0,1,1,2.3,0v9.86a1.16,1.16,0,1,1-2.3,0Z"/><path class="cls-3" d="M65.18,84.22c0,.59,0,1.51-1.11,1.51-.67,0-.94-.37-1.1-1a2.76,2.76,0,0,1-2.2,1.07c-2.16,0-3.8-1.84-3.8-4.43s1.69-4.47,3.8-4.47A2.65,2.65,0,0,1,63,78a1.09,1.09,0,0,1,1.1-1c1.11,0,1.11.91,1.11,1.5Zm-4.09-.51c1.21,0,1.78-1.22,1.78-2.32S62.31,79,61.09,79s-1.82,1.24-1.82,2.35S59.85,83.71,61.09,83.71Z"/><path class="cls-3" d="M67.05,79.13h-.52a.94.94,0,0,1-1-1,1,1,0,0,1,1-1h.52V75.74a1.16,1.16,0,1,1,2.3,0v1.37H70a1,1,0,1,1,0,2h-.66v5.32a1.16,1.16,0,1,1-2.3,0Z"/><path class="cls-3" d="M79.1,84.22c0,.59,0,1.51-1.11,1.51-.67,0-.94-.37-1.1-1a2.79,2.79,0,0,1-2.2,1.07c-2.16,0-3.81-1.84-3.81-4.43s1.7-4.47,3.81-4.47A2.66,2.66,0,0,1,76.89,78,1.09,1.09,0,0,1,78,77c1.11,0,1.11.91,1.11,1.5ZM75,83.71c1.2,0,1.78-1.22,1.78-2.32S76.23,79,75,79s-1.82,1.24-1.82,2.35S73.77,83.71,75,83.71Z"/><path class="cls-3" d="M80.93,79.13h-.51a.94.94,0,0,1-1-1,1,1,0,0,1,1-1h.51V75.93a2.34,2.34,0,0,1,2.42-2.62c.82,0,1.6.24,1.6,1s-.3,1-.94,1c-.39,0-.77,0-.77.85v.94H84c.69,0,1.17.28,1.17,1s-.5,1-1.17,1h-.72v5.32a1.16,1.16,0,1,1-2.31,0Z"/><path class="cls-3" d="M93.06,81.39a4.14,4.14,0,1,1-8.26,0,4.14,4.14,0,1,1,8.26,0Zm-6,0c0,1.1.58,2.32,1.82,2.32s1.83-1.22,1.83-2.32S90.2,79,88.93,79,87.11,80.28,87.11,81.39Z"/><path class="cls-3" d="M94,78.17A1.13,1.13,0,0,1,95.19,77c.61,0,1.12.22,1.12,1h0A1.82,1.82,0,0,1,98,77a1.12,1.12,0,0,1,1.12,1.23c0,.75-.69.8-1.38,1.12s-1.39.63-1.39,1.54v3.54a1.16,1.16,0,1,1-2.31,0Z"/><path class="cls-3" d="M99.65,78.3A1.16,1.16,0,0,1,100.8,77a1,1,0,0,1,1.06.86,2.9,2.9,0,0,1,2.15-1,2.93,2.93,0,0,1,2.38,1.17,3.5,3.5,0,0,1,2.43-1.17A2.89,2.89,0,0,1,112,80v4.42a1.16,1.16,0,1,1-2.31,0v-4c0-.93-.51-1.59-1.34-1.59S107,79.5,107,80.43v4a1.16,1.16,0,1,1-2.31,0v-4c0-.93-.51-1.59-1.34-1.59S102,79.5,102,80.43v4a1.16,1.16,0,1,1-2.31,0Z"/><path class="cls-3" d="M121.16,84.22c0,.59,0,1.51-1.11,1.51-.67,0-.94-.37-1.1-1a2.76,2.76,0,0,1-2.19,1.07c-2.16,0-3.81-1.84-3.81-4.43s1.69-4.47,3.81-4.47A2.63,2.63,0,0,1,119,78a1.09,1.09,0,0,1,1.1-1c1.11,0,1.11.91,1.11,1.5Zm-4.08-.51c1.2,0,1.77-1.22,1.77-2.32S118.29,79,117.08,79s-1.83,1.24-1.83,2.35S115.83,83.71,117.08,83.71Z"/><path class="cls-3" d="M51.66,109.06a1.11,1.11,0,0,1-1.08,1.18c-.65,0-1.16-.48-2.13-.48-.68,0-1.31.37-1.31,1,0,1.65,5.35.6,5.35,4.73a3.8,3.8,0,0,1-4.1,3.71c-1.23,0-3.89-.29-3.89-1.79a1.07,1.07,0,0,1,1.07-1.14c.76,0,1.65.63,2.69.63s1.64-.6,1.64-1.38c0-1.89-5.35-.75-5.35-4.47a3.7,3.7,0,0,1,4-3.63C49.42,107.46,51.66,107.8,51.66,109.06Z"/><path class="cls-3" d="M61.37,114.81a4.14,4.14,0,1,1-8.26,0,4.14,4.14,0,1,1,8.26,0Zm-6,0c0,1.1.58,2.32,1.83,2.32s1.82-1.22,1.82-2.32-.56-2.36-1.82-2.36S55.41,113.7,55.41,114.81Z"/><path class="cls-3" d="M62.34,111.72a1.16,1.16,0,0,1,1.15-1.28,1.11,1.11,0,0,1,1.16,1,2.53,2.53,0,0,1,2.19-1.06c2.48,0,3.71,2.32,3.71,4.56s-1.47,4.34-3.79,4.34a3.25,3.25,0,0,1-2.11-.8v2.82a1.16,1.16,0,1,1-2.31,0Zm4.11,5.41c1.21,0,1.8-1.25,1.8-2.32s-.59-2.36-1.8-2.36-1.8,1.16-1.8,2.28S65.19,117.13,66.45,117.13Z"/><path class="cls-3" d="M79.45,114.81a4.14,4.14,0,1,1-8.26,0,4.14,4.14,0,1,1,8.26,0Zm-6,0c0,1.1.58,2.32,1.83,2.32s1.82-1.22,1.82-2.32-.56-2.36-1.82-2.36S73.49,113.7,73.49,114.81Z"/><path class="cls-3" d="M80.39,111.59a1.13,1.13,0,0,1,1.18-1.15c.61,0,1.12.22,1.12,1h0a1.81,1.81,0,0,1,1.61-1,1.12,1.12,0,0,1,1.12,1.23c0,.75-.69.8-1.37,1.12s-1.4.62-1.4,1.54v3.53a1.16,1.16,0,1,1-2.3,0Z"/><path class="cls-3" d="M86.31,112.55H85.8a.93.93,0,0,1-1-1,1,1,0,0,1,1-1h.51v-1.37a1.16,1.16,0,1,1,2.3,0v1.37h.66a1,1,0,0,1,1.1,1,1,1,0,0,1-1.1,1h-.66v5.31a1.16,1.16,0,1,1-2.3,0Z"/><path class="cls-3" d="M92.34,115.56a2,2,0,0,0,2.18,1.66c1.18,0,2-.92,2.61-.92a1,1,0,0,1,.94,1c0,1-2,1.95-3.76,1.95A4.2,4.2,0,0,1,90,114.81a4.14,4.14,0,1,1,8.27-.28c0,.69-.3,1-1,1ZM96,114a1.83,1.83,0,0,0-1.84-1.76A1.87,1.87,0,0,0,92.29,114Z"/><path class="cls-3" d="M111.24,117.86a1.16,1.16,0,0,1-1.15,1.28,1.11,1.11,0,0,1-1.16-1,2.48,2.48,0,0,1-2.11,1.06c-2.32,0-3.79-2.16-3.79-4.34s1.23-4.56,3.71-4.56a3.31,3.31,0,0,1,2.19.8V108a1.16,1.16,0,1,1,2.31,0Zm-4.11-5.41c-1.2,0-1.8,1.27-1.8,2.36s.6,2.32,1.8,2.32,1.8-1.28,1.8-2.4S108.36,112.45,107.13,112.45Z"/><path class="cls-3" d="M114.41,115.56a2,2,0,0,0,2.17,1.66c1.19,0,2-.92,2.61-.92a1,1,0,0,1,1,1c0,1-2,1.95-3.77,1.95a4.2,4.2,0,0,1-4.32-4.43,4.15,4.15,0,1,1,8.28-.28c0,.69-.31,1-1,1ZM118,114a1.83,1.83,0,0,0-1.84-1.76,1.86,1.86,0,0,0-1.82,1.76Z"/><path class="cls-3" d="M46.09,124.79a1.59,1.59,0,0,1,1.56-1.23,1.72,1.72,0,0,1,1.61,1.15l1.88,6.34h0l1.88-6.34a1.71,1.71,0,0,1,1.61-1.15,1.59,1.59,0,0,1,1.56,1.23l1.49,8.93a1.32,1.32,0,0,1,0,.27,1.1,1.1,0,0,1-1.15,1.15c-.82,0-1.14-.36-1.25-1.12l-1-6.51h0l-1.92,6.71a1.35,1.35,0,0,1-2.56,0L48,127.51h0L47,134c-.11.76-.43,1.12-1.25,1.12A1.1,1.1,0,0,1,44.58,134a1.32,1.32,0,0,1,0-.27Z"/><path class="cls-3" d="M60.63,131.56a2,2,0,0,0,2.18,1.66c1.18,0,2-.92,2.61-.92a1,1,0,0,1,.94,1c0,1-2,2-3.76,2a4.2,4.2,0,0,1-4.32-4.43,4.14,4.14,0,1,1,8.27-.28c0,.69-.3,1-1,1ZM64.25,130a1.83,1.83,0,0,0-1.84-1.76A1.86,1.86,0,0,0,60.58,130Z"/><path class="cls-3" d="M72.22,129c-.44,0-1.32-.67-2.07-.67-.42,0-.78.19-.78.64,0,1.07,4,.91,4,3.53,0,1.54-1.3,2.71-3.28,2.71-1.3,0-3.22-.74-3.22-1.78a1.08,1.08,0,0,1,1-1c.9,0,1.3.78,2.39.78.7,0,.91-.22.91-.65,0-1.06-4-.9-4-3.54,0-1.6,1.29-2.69,3.12-2.69,1.13,0,2.88.53,2.88,1.67A1,1,0,0,1,72.22,129Z"/><path class="cls-3" d="M82.06,133.64c0,.59,0,1.5-1.11,1.5-.67,0-.94-.36-1.1-1a2.78,2.78,0,0,1-2.2,1.07c-2.16,0-3.81-1.84-3.81-4.43s1.7-4.47,3.81-4.47a2.65,2.65,0,0,1,2.2,1.06,1.09,1.09,0,0,1,1.1-1c1.11,0,1.11.91,1.11,1.5ZM78,133.13c1.21,0,1.78-1.22,1.78-2.32s-.56-2.36-1.78-2.36-1.82,1.25-1.82,2.36S76.73,133.13,78,133.13Z"/><path class="cls-3" d="M95.53,133.86a1.16,1.16,0,0,1-1.15,1.28,1.11,1.11,0,0,1-1.16-1,2.5,2.5,0,0,1-2.11,1.06c-2.32,0-3.79-2.16-3.79-4.34s1.23-4.56,3.71-4.56a3.32,3.32,0,0,1,2.19.8V124a1.16,1.16,0,1,1,2.31,0Zm-4.12-5.41c-1.2,0-1.79,1.27-1.79,2.36s.59,2.32,1.79,2.32,1.81-1.28,1.81-2.4S92.65,128.45,91.41,128.45Z"/><path class="cls-3" d="M98.69,131.56a2,2,0,0,0,2.18,1.66c1.18,0,2-.92,2.61-.92a1,1,0,0,1,.94,1c0,1-2,2-3.76,2a4.2,4.2,0,0,1-4.32-4.43,4.15,4.15,0,1,1,8.28-.28c0,.69-.31,1-1,1Zm3.62-1.54a1.83,1.83,0,0,0-1.84-1.76A1.86,1.86,0,0,0,98.65,130Z"/><path class="cls-3" d="M112.42,124.79a1.88,1.88,0,0,1,1.71-1.33,1.82,1.82,0,0,1,1.72,1.33L119,133.5a1.75,1.75,0,0,1,.13.59,1.06,1.06,0,0,1-1.1,1,1.12,1.12,0,0,1-1.17-.83l-.48-1.5h-4.45l-.48,1.49a1.11,1.11,0,0,1-1.15.84,1.15,1.15,0,0,1-1.19-1.12,1.4,1.4,0,0,1,.11-.52Zm.18,5.81h3L114.15,126h0Z"/><path class="cls-3" d="M118.93,128a1.72,1.72,0,0,1-.11-.59,1.1,1.1,0,0,1,1.09-1,1.16,1.16,0,0,1,1.15.81l1.59,4.34,1.69-4.34a1.16,1.16,0,0,1,1.15-.81,1.1,1.1,0,0,1,1.09,1,1.35,1.35,0,0,1-.11.59l-3.86,9.61a1.23,1.23,0,0,1-1.09.91,1.07,1.07,0,0,1-1.2-1,2,2,0,0,1,.15-.68l1-2.49Z"/><path class="cls-3" d="M127.2,127.72a1.16,1.16,0,1,1,2.31,0v4.11a1.49,1.49,0,1,0,3,0v-4.11a1.16,1.16,0,1,1,2.3,0v4.16c0,2.05-1.36,3.36-3.79,3.36s-3.8-1.31-3.8-3.36Z"/><path class="cls-3" d="M144,133.86a1.16,1.16,0,0,1-1.15,1.28,1.1,1.1,0,0,1-1.15-1,2.5,2.5,0,0,1-2.11,1.06c-2.32,0-3.8-2.16-3.8-4.34s1.24-4.56,3.72-4.56a3.32,3.32,0,0,1,2.19.8V124a1.16,1.16,0,1,1,2.3,0Zm-4.11-5.41c-1.2,0-1.79,1.27-1.79,2.36s.59,2.32,1.79,2.32,1.81-1.28,1.81-2.4S141.09,128.45,139.86,128.45Z"/><path class="cls-3" d="M153.16,133.64c0,.59,0,1.5-1.11,1.5-.67,0-.94-.36-1.1-1a2.76,2.76,0,0,1-2.19,1.07c-2.16,0-3.81-1.84-3.81-4.43s1.69-4.47,3.81-4.47A2.63,2.63,0,0,1,151,127.4a1.09,1.09,0,0,1,1.1-1c1.11,0,1.11.91,1.11,1.5Zm-4.08-.51c1.2,0,1.77-1.22,1.77-2.32s-.56-2.36-1.77-2.36-1.83,1.25-1.83,2.36S147.83,133.13,149.08,133.13Z"/><path class="cls-3" d="M46.36,205.78a1.18,1.18,0,0,1,1.23-1.24h2.66c3.58,0,5.63,2.31,5.63,5.86a5.18,5.18,0,0,1-5.47,5.54H47.62a1.17,1.17,0,0,1-1.26-1.2Zm2.4,7.95h1.61c2.07,0,3-1.52,3-3.44s-1-3.54-3.17-3.54H48.76Z"/><path class="cls-3" d="M64.89,211.7a4.14,4.14,0,1,1-8.26,0,4.14,4.14,0,1,1,8.26,0Zm-6,0c0,1.1.58,2.32,1.83,2.32s1.82-1.22,1.82-2.32-.56-2.35-1.82-2.35S58.93,210.59,58.93,211.7Z"/><path class="cls-3" d="M71.59,209.79c-.58,0-1.09-.44-1.82-.44-1.32,0-1.94,1.16-1.94,2.35A2.13,2.13,0,0,0,69.77,214a12.79,12.79,0,0,0,1.71-.48,1,1,0,0,1,1,1c0,1.18-2,1.58-2.82,1.58a4.19,4.19,0,0,1-4.13-4.43,4.29,4.29,0,0,1,4.13-4.47c.92,0,2.82.34,2.82,1.46C72.47,209.17,72.14,209.79,71.59,209.79Z"/><path class="cls-3" d="M73.27,208.61a1.16,1.16,0,1,1,2.3,0v4.11a1.49,1.49,0,1,0,3,0v-4.11a1.16,1.16,0,1,1,2.31,0v4.16c0,2-1.37,3.36-3.8,3.36s-3.79-1.31-3.79-3.36Z"/><path class="cls-3" d="M82.16,208.61a1.16,1.16,0,0,1,1.16-1.28,1,1,0,0,1,1.05.86,2.86,2.86,0,0,1,2.15-1,2.92,2.92,0,0,1,2.38,1.17,3.46,3.46,0,0,1,2.44-1.17,2.89,2.89,0,0,1,3.15,3.11v4.42a1.16,1.16,0,1,1-2.31,0v-4c0-.93-.51-1.59-1.34-1.59s-1.36.66-1.36,1.59v4a1.16,1.16,0,1,1-2.3,0v-4a1.4,1.4,0,0,0-1.35-1.59c-.94,0-1.36.66-1.36,1.59v4a1.16,1.16,0,1,1-2.31,0Z"/><path class="cls-3" d="M97.65,212.45a2,2,0,0,0,2.18,1.67c1.18,0,2-.93,2.61-.93a1,1,0,0,1,.94,1c0,1-2,1.95-3.76,1.95a4.2,4.2,0,0,1-4.32-4.43,4.15,4.15,0,1,1,8.28-.27.89.89,0,0,1-1,1Zm3.62-1.54a1.83,1.83,0,0,0-1.84-1.76,1.86,1.86,0,0,0-1.82,1.76Z"/><path class="cls-3" d="M104.39,208.61a1.16,1.16,0,0,1,1.15-1.28,1,1,0,0,1,1.06.85,2.47,2.47,0,0,1,2.22-1,3,3,0,0,1,3.16,3.11v4.42a1.16,1.16,0,1,1-2.31,0v-4a1.49,1.49,0,1,0-3,0v4a1.16,1.16,0,1,1-2.3,0Z"/><path class="cls-3" d="M113.84,209.44h-.51a.94.94,0,0,1-1-1,1,1,0,0,1,1-1h.51v-1.37a1.16,1.16,0,1,1,2.31,0v1.37h.66a1,1,0,1,1,0,2h-.66v5.32a1.16,1.16,0,1,1-2.31,0Z"/><path class="cls-3" d="M125.9,214.53c0,.59,0,1.51-1.11,1.51-.67,0-.94-.37-1.1-1a2.79,2.79,0,0,1-2.2,1.07c-2.16,0-3.81-1.84-3.81-4.43s1.7-4.47,3.81-4.47a2.66,2.66,0,0,1,2.2,1.06,1.09,1.09,0,0,1,1.1-1c1.11,0,1.11.91,1.11,1.5Zm-4.09-.51c1.2,0,1.78-1.22,1.78-2.32s-.56-2.35-1.78-2.35S120,210.59,120,211.7,120.57,214,121.81,214Z"/><path class="cls-3" d="M132.93,209.79c-.57,0-1.08-.44-1.82-.44-1.31,0-1.94,1.16-1.94,2.35a2.13,2.13,0,0,0,1.94,2.32,12.37,12.37,0,0,0,1.71-.48,1,1,0,0,1,1,1c0,1.18-2,1.58-2.81,1.58a4.19,4.19,0,0,1-4.13-4.43,4.29,4.29,0,0,1,4.13-4.47c.91,0,2.81.34,2.81,1.46C133.81,209.17,133.48,209.79,132.93,209.79Z"/><path class="cls-3" d="M137,205.14a1.31,1.31,0,0,1-1.3,1.32,1.34,1.34,0,0,1-1.29-1.32,1.3,1.3,0,0,1,2.59,0Zm-2.45,3.47a1.16,1.16,0,1,1,2.31,0v6.15a1.16,1.16,0,1,1-2.31,0Z"/><path class="cls-3" d="M146.09,211.7a4.14,4.14,0,1,1-8.26,0,4.14,4.14,0,1,1,8.26,0Zm-3.64-8a1.67,1.67,0,0,1,.61-.16,1,1,0,0,1,.87,1,.91.91,0,0,1-.66.94l-1.79.71c-.47.16-.32.16-.64.16-.48,0-.85-.61-.85-1.17a.76.76,0,0,1,.45-.64l.12-.06Zm-2.32,8c0,1.1.58,2.32,1.83,2.32s1.82-1.22,1.82-2.32-.56-2.35-1.82-2.35S140.13,210.59,140.13,211.7Z"/><path class="cls-3" d="M147.06,208.61a1.16,1.16,0,0,1,1.15-1.28,1,1,0,0,1,1.06.85,2.47,2.47,0,0,1,2.22-1,3,3,0,0,1,3.16,3.11v4.42a1.16,1.16,0,1,1-2.31,0v-4a1.49,1.49,0,1,0-3,0v4a1.16,1.16,0,1,1-2.3,0Z"/><path class="cls-3" d="M159.67,208.91a1.47,1.47,0,0,1-.12-.59,1.1,1.1,0,0,1,1.09-1,1.18,1.18,0,0,1,1.16.82l1.58,4.33,1.7-4.33a1.16,1.16,0,0,1,1.15-.82,1.1,1.1,0,0,1,1.09,1,1.32,1.32,0,0,1-.11.59l-3.86,9.61a1.24,1.24,0,0,1-1.09.91,1.07,1.07,0,0,1-1.2-1,2,2,0,0,1,.14-.68l1-2.49Z"/><path class="cls-3" d="M46.29,220.9a1.16,1.16,0,1,1,2.31,0V224a3.32,3.32,0,0,1,2.19-.8c2.48,0,3.71,2.32,3.71,4.56s-1.47,4.34-3.79,4.34a2.51,2.51,0,0,1-2.11-1,1.11,1.11,0,0,1-1.15,1,1.17,1.17,0,0,1-1.16-1.28ZM50.41,230c1.2,0,1.79-1.25,1.79-2.32s-.59-2.35-1.79-2.35-1.81,1.15-1.81,2.27S49.14,230,50.41,230Z"/><path class="cls-3" d="M55.48,224.61a1.16,1.16,0,1,1,2.3,0v4.11a1.49,1.49,0,1,0,3,0v-4.11a1.16,1.16,0,1,1,2.3,0v4.16c0,2-1.36,3.36-3.79,3.36s-3.79-1.31-3.79-3.36Z"/><path class="cls-3" d="M66.23,228.45a2,2,0,0,0,2.18,1.67c1.18,0,2-.93,2.61-.93a1,1,0,0,1,.94,1c0,1-2,1.95-3.76,1.95a4.2,4.2,0,0,1-4.32-4.43,4.14,4.14,0,1,1,8.27-.27c0,.68-.3,1-1,1Zm3.62-1.54A1.83,1.83,0,0,0,68,225.15a1.86,1.86,0,0,0-1.83,1.76Z"/><path class="cls-3" d="M73,224.61a1.16,1.16,0,0,1,1.16-1.28,1,1,0,0,1,1,.85,2.49,2.49,0,0,1,2.23-1,3,3,0,0,1,3.15,3.11v4.42a1.16,1.16,0,1,1-2.3,0v-4a1.49,1.49,0,1,0-3,0v4a1.16,1.16,0,1,1-2.31,0Z"/><path class="cls-3" d="M89.74,230.53c0,.59,0,1.51-1.11,1.51-.67,0-.94-.37-1.1-1a2.79,2.79,0,0,1-2.2,1.07c-2.16,0-3.81-1.84-3.81-4.43s1.7-4.47,3.81-4.47a2.66,2.66,0,0,1,2.2,1.06,1.09,1.09,0,0,1,1.1-1c1.11,0,1.11.91,1.11,1.5ZM85.65,230c1.2,0,1.78-1.22,1.78-2.32s-.56-2.35-1.78-2.35-1.82,1.24-1.82,2.35S84.41,230,85.65,230Z"/><path class="cls-3" d="M95.89,225.92c-.43,0-1.31-.67-2.06-.67-.42,0-.78.19-.78.64,0,1.07,4,.91,4,3.54,0,1.53-1.3,2.7-3.28,2.7-1.3,0-3.22-.73-3.22-1.77a1.08,1.08,0,0,1,1-1c.9,0,1.3.79,2.39.79.7,0,.91-.23.91-.66,0-1.06-4-.9-4-3.54,0-1.6,1.29-2.69,3.12-2.69,1.13,0,2.88.53,2.88,1.67A1,1,0,0,1,95.89,225.92Z"/><path class="cls-3" d="M102.15,224.61a1.16,1.16,0,0,1,1.15-1.28,1.1,1.1,0,0,1,1.15,1,2.56,2.56,0,0,1,2.2-1.06c2.48,0,3.71,2.32,3.71,4.56s-1.47,4.34-3.79,4.34a3.3,3.3,0,0,1-2.12-.8v2.82a1.16,1.16,0,1,1-2.3,0Zm4.11,5.41c1.2,0,1.79-1.25,1.79-2.32s-.59-2.35-1.79-2.35-1.81,1.15-1.81,2.27S105,230,106.26,230Z"/><path class="cls-3" d="M111.3,224.48a1.13,1.13,0,0,1,1.18-1.15c.61,0,1.12.22,1.12,1h0a1.81,1.81,0,0,1,1.61-1,1.12,1.12,0,0,1,1.12,1.23c0,.75-.68.8-1.37,1.12s-1.4.63-1.4,1.54v3.54a1.16,1.16,0,1,1-2.3,0Z"/><path class="cls-3" d="M124.53,230.53c0,.59,0,1.51-1.1,1.51-.67,0-.94-.37-1.1-1a2.79,2.79,0,0,1-2.2,1.07c-2.16,0-3.81-1.84-3.81-4.43s1.7-4.47,3.81-4.47a2.66,2.66,0,0,1,2.2,1.06,1.09,1.09,0,0,1,1.1-1c1.1,0,1.1.91,1.1,1.5Zm-3.44-10.8a1.67,1.67,0,0,1,.61-.16,1,1,0,0,1,.87,1,.91.91,0,0,1-.66.94l-1.79.71c-.47.16-.32.16-.64.16-.48,0-.85-.61-.85-1.17a.76.76,0,0,1,.45-.64l.12-.06ZM120.45,230c1.2,0,1.78-1.22,1.78-2.32s-.56-2.35-1.78-2.35-1.82,1.24-1.82,2.35S119.2,230,120.45,230Z"/><path class="cls-3" d="M131.57,225.79c-.57,0-1.08-.44-1.82-.44-1.31,0-1.94,1.16-1.94,2.35a2.13,2.13,0,0,0,1.94,2.32,12.37,12.37,0,0,0,1.71-.48,1,1,0,0,1,1,1c0,1.18-2,1.58-2.81,1.58a4.19,4.19,0,0,1-4.13-4.43,4.29,4.29,0,0,1,4.13-4.47c.91,0,2.81.34,2.81,1.46C132.45,225.17,132.12,225.79,131.57,225.79Z"/><path class="cls-3" d="M133.81,225.44h-.51a.94.94,0,0,1-1-1,1,1,0,0,1,1-1h.51v-1.37a1.16,1.16,0,1,1,2.31,0v1.37h.65a1,1,0,1,1,0,2h-.65v5.32a1.16,1.16,0,1,1-2.31,0Z"/><path class="cls-3" d="M140.4,221.14a1.31,1.31,0,0,1-1.29,1.32,1.35,1.35,0,0,1-1.3-1.32,1.33,1.33,0,0,1,1.3-1.27A1.31,1.31,0,0,1,140.4,221.14ZM138,224.61a1.16,1.16,0,1,1,2.31,0v6.15a1.16,1.16,0,1,1-2.31,0Z"/><path class="cls-3" d="M147.27,225.79c-.58,0-1.09-.44-1.83-.44-1.31,0-1.93,1.16-1.93,2.35a2.13,2.13,0,0,0,1.93,2.32,12.57,12.57,0,0,0,1.72-.48,1,1,0,0,1,1,1c0,1.18-2,1.58-2.82,1.58a4.19,4.19,0,0,1-4.13-4.43,4.29,4.29,0,0,1,4.13-4.47c.91,0,2.82.34,2.82,1.46C148.15,225.17,147.81,225.79,147.27,225.79Z"/><path class="cls-3" d="M156.82,230.53c0,.59,0,1.51-1.1,1.51-.67,0-.95-.37-1.11-1a2.76,2.76,0,0,1-2.19,1.07c-2.16,0-3.81-1.84-3.81-4.43s1.7-4.47,3.81-4.47a2.63,2.63,0,0,1,2.19,1.06,1.1,1.1,0,0,1,1.11-1c1.1,0,1.1.91,1.1,1.5Zm-4.08-.51c1.2,0,1.78-1.22,1.78-2.32s-.56-2.35-1.78-2.35-1.82,1.24-1.82,2.35S151.49,230,152.74,230Z"/><path class="cls-3" d="M163,225.92c-.43,0-1.31-.67-2.06-.67-.42,0-.79.19-.79.64,0,1.07,4,.91,4,3.54,0,1.53-1.29,2.7-3.28,2.7-1.29,0-3.22-.73-3.22-1.77a1.09,1.09,0,0,1,1-1c.89,0,1.29.79,2.38.79.71,0,.91-.23.91-.66,0-1.06-4-.9-4-3.54,0-1.6,1.3-2.69,3.12-2.69,1.14,0,2.89.53,2.89,1.67A1,1,0,0,1,163,225.92Z"/><path class="cls-4" d="M47.08,256.77a1.18,1.18,0,0,1,1.23-1.24H51c3.58,0,5.63,2.31,5.63,5.86a5.18,5.18,0,0,1-5.47,5.54H48.34a1.17,1.17,0,0,1-1.26-1.2Zm2.4,8h1.61c2.07,0,3-1.52,3-3.44s-1-3.54-3.17-3.54H49.48Z"/><path class="cls-4" d="M60.1,256.12a1.31,1.31,0,0,1-1.3,1.33,1.35,1.35,0,0,1-1.29-1.33,1.3,1.3,0,0,1,2.59,0Zm-2.45,3.48a1.16,1.16,0,1,1,2.31,0v6.14a1.16,1.16,0,1,1-2.31,0Z"/><path class="cls-4" d="M60.71,260.11a1.74,1.74,0,0,1-.15-.67,1.11,1.11,0,0,1,1.2-1.12,1.05,1.05,0,0,1,1,.81l1.47,4.55h0l1.48-4.55a1,1,0,0,1,1-.81,1.11,1.11,0,0,1,1.2,1.12,1.71,1.71,0,0,1-.14.67l-2.32,5.95c-.23.6-.47,1-1.25,1s-1-.37-1.25-1Z"/><path class="cls-4" d="M68.63,259.6a1.16,1.16,0,1,1,2.3,0v4.11a1.49,1.49,0,1,0,3,0V259.6a1.16,1.16,0,1,1,2.3,0v4.16c0,2.05-1.36,3.36-3.79,3.36s-3.79-1.31-3.79-3.36Z"/><path class="cls-4" d="M77.49,255.88a1.16,1.16,0,1,1,2.31,0v9.86a1.16,1.16,0,1,1-2.31,0Z"/><path class="cls-4" d="M89,266.26c0,2.77-1.81,4.16-4.43,4.16-1,0-3.64-.47-3.64-1.73a1.13,1.13,0,0,1,.93-1c.74,0,1.55.72,2.88.72a1.78,1.78,0,0,0,2-1.82V266h0a2.62,2.62,0,0,1-2.32,1.09c-2.41,0-3.55-2.13-3.55-4.42s1.47-4.48,3.79-4.48a2.51,2.51,0,0,1,2.12,1.06,1.1,1.1,0,0,1,1.15-1A1.16,1.16,0,0,1,89,259.6Zm-4.11-5.93c-1.2,0-1.8,1.25-1.8,2.33s.6,2.35,1.8,2.35,1.81-1.15,1.81-2.27S86.1,260.33,84.84,260.33Z"/><path class="cls-4" d="M98.13,265.52c0,.59,0,1.51-1.1,1.51-.67,0-.94-.37-1.1-1a2.79,2.79,0,0,1-2.2,1.07c-2.16,0-3.81-1.84-3.81-4.43s1.7-4.47,3.81-4.47a2.66,2.66,0,0,1,2.2,1.06,1.09,1.09,0,0,1,1.1-1c1.1,0,1.1.91,1.1,1.5ZM94.05,265c1.2,0,1.78-1.22,1.78-2.32s-.56-2.36-1.78-2.36-1.82,1.25-1.82,2.36S92.8,265,94.05,265Z"/><path class="cls-4" d="M105.17,260.78c-.57,0-1.08-.45-1.82-.45-1.31,0-1.94,1.17-1.94,2.36a2.13,2.13,0,0,0,1.94,2.32,12.37,12.37,0,0,0,1.71-.48,1,1,0,0,1,1,1c0,1.18-2,1.58-2.81,1.58a4.19,4.19,0,0,1-4.13-4.43,4.29,4.29,0,0,1,4.13-4.47c.91,0,2.81.34,2.81,1.46C106.05,260.16,105.72,260.78,105.17,260.78Z"/><path class="cls-4" d="M109.27,256.12a1.32,1.32,0,0,1-1.3,1.33,1.34,1.34,0,0,1-1.29-1.33,1.3,1.3,0,0,1,2.59,0Zm-2.45,3.48a1.16,1.16,0,1,1,2.3,0v6.14a1.16,1.16,0,1,1-2.3,0Z"/><path class="cls-4" d="M118.33,262.69a4.14,4.14,0,1,1-8.26,0,4.14,4.14,0,1,1,8.26,0Zm-3.64-8a1.63,1.63,0,0,1,.61-.16,1,1,0,0,1,.87,1,.91.91,0,0,1-.66.94l-1.79.71c-.47.16-.32.16-.64.16-.48,0-.85-.61-.85-1.17a.76.76,0,0,1,.45-.64l.12-.07Zm-2.32,8c0,1.1.58,2.32,1.83,2.32s1.82-1.22,1.82-2.32-.56-2.36-1.82-2.36S112.37,261.58,112.37,262.69Z"/><path class="cls-4" d="M119.3,259.6a1.16,1.16,0,0,1,1.15-1.28,1,1,0,0,1,1.06.85,2.47,2.47,0,0,1,2.22-.95,3,3,0,0,1,3.16,3.11v4.41a1.16,1.16,0,1,1-2.31,0v-4a1.43,1.43,0,0,0-1.5-1.59,1.45,1.45,0,0,0-1.48,1.59v4a1.16,1.16,0,1,1-2.3,0Z"/><path class="cls-4" d="M131.91,259.9a1.47,1.47,0,0,1-.12-.59,1.1,1.1,0,0,1,1.09-1,1.19,1.19,0,0,1,1.16.81l1.58,4.34,1.7-4.34a1.16,1.16,0,0,1,1.15-.81,1.1,1.1,0,0,1,1.09,1,1.32,1.32,0,0,1-.11.59l-3.86,9.61a1.24,1.24,0,0,1-1.09.91,1.07,1.07,0,0,1-1.2-1,2,2,0,0,1,.14-.68l1-2.49Z"/><path class="cls-4" d="M52.13,271.34c1.17,0,3.45.38,3.45,1.79a1,1,0,0,1-1,1.08c-.65,0-1.1-.56-2.45-.56-2,0-3,1.68-3,3.63s1,3.54,3,3.54c1.35,0,1.89-.68,2.55-.68a1.13,1.13,0,0,1,1.06,1.09c0,1.54-2.42,1.89-3.61,1.89-3.24,0-5.5-2.58-5.5-5.89S48.87,271.34,52.13,271.34Z"/><path class="cls-4" d="M64.71,278.69a4.14,4.14,0,1,1-8.26,0,4.14,4.14,0,1,1,8.26,0Zm-5.95,0c0,1.1.57,2.32,1.82,2.32s1.83-1.22,1.83-2.32-.56-2.36-1.83-2.36S58.76,277.58,58.76,278.69Z"/><path class="cls-4" d="M65.68,275.6a1.16,1.16,0,0,1,1.16-1.28,1,1,0,0,1,1,.86,2.86,2.86,0,0,1,2.15-1,2.93,2.93,0,0,1,2.38,1.17,3.46,3.46,0,0,1,2.44-1.17A2.89,2.89,0,0,1,78,277.33v4.41a1.16,1.16,0,1,1-2.31,0v-4c0-.93-.51-1.59-1.34-1.59S73,276.8,73,277.73v4a1.16,1.16,0,1,1-2.31,0v-4c0-.93-.51-1.59-1.34-1.59S68,276.8,68,277.73v4a1.16,1.16,0,1,1-2.31,0Z"/><path class="cls-4" d="M79.32,275.6a1.16,1.16,0,1,1,2.3,0v4.11a1.49,1.49,0,0,0,3,0V275.6a1.16,1.16,0,1,1,2.3,0v4.16c0,2.05-1.36,3.36-3.79,3.36s-3.79-1.31-3.79-3.36Z"/><path class="cls-4" d="M88.21,275.6a1.16,1.16,0,0,1,1.15-1.28,1,1,0,0,1,1.06.85,2.49,2.49,0,0,1,2.23-.95,3,3,0,0,1,3.15,3.11v4.41a1.16,1.16,0,1,1-2.31,0v-4a1.49,1.49,0,1,0-3,0v4a1.16,1.16,0,1,1-2.31,0Z"/><path class="cls-4" d="M99.53,272.12a1.32,1.32,0,0,1-1.3,1.33,1.35,1.35,0,0,1-1.3-1.33,1.33,1.33,0,0,1,1.3-1.26A1.32,1.32,0,0,1,99.53,272.12Zm-2.45,3.48a1.16,1.16,0,1,1,2.3,0v6.14a1.16,1.16,0,1,1-2.3,0Z"/><path class="cls-4" d="M106.39,276.78c-.58,0-1.09-.45-1.82-.45-1.32,0-1.94,1.17-1.94,2.36a2.13,2.13,0,0,0,1.94,2.32,12.79,12.79,0,0,0,1.71-.48,1,1,0,0,1,1,1c0,1.18-2,1.58-2.82,1.58a4.19,4.19,0,0,1-4.13-4.43,4.29,4.29,0,0,1,4.13-4.47c.92,0,2.82.34,2.82,1.46C107.27,276.16,106.93,276.78,106.39,276.78Z"/><path class="cls-4" d="M115.94,281.52c0,.59,0,1.51-1.1,1.51-.67,0-1-.37-1.11-1a2.76,2.76,0,0,1-2.19,1.07c-2.16,0-3.81-1.84-3.81-4.43s1.7-4.47,3.81-4.47a2.63,2.63,0,0,1,2.19,1.06,1.1,1.1,0,0,1,1.11-1c1.1,0,1.1.91,1.1,1.5Zm-4.08-.51c1.2,0,1.78-1.22,1.78-2.32s-.56-2.36-1.78-2.36-1.82,1.25-1.82,2.36S110.61,281,111.86,281Z"/><path class="cls-4" d="M123,276.78c-.57,0-1.09-.45-1.82-.45-1.32,0-1.94,1.17-1.94,2.36a2.13,2.13,0,0,0,1.94,2.32,12.79,12.79,0,0,0,1.71-.48,1,1,0,0,1,1,1c0,1.18-2,1.58-2.81,1.58a4.18,4.18,0,0,1-4.13-4.43,4.29,4.29,0,0,1,4.13-4.47c.91,0,2.81.34,2.81,1.46C123.86,276.16,123.53,276.78,123,276.78Z"/><path class="cls-4" d="M127.08,272.12a1.32,1.32,0,0,1-1.3,1.33,1.35,1.35,0,0,1-1.3-1.33,1.33,1.33,0,0,1,1.3-1.26A1.32,1.32,0,0,1,127.08,272.12Zm-2.45,3.48a1.16,1.16,0,1,1,2.3,0v6.14a1.16,1.16,0,1,1-2.3,0Z"/><path class="cls-4" d="M136.14,278.69a4.14,4.14,0,1,1-8.26,0,4.14,4.14,0,1,1,8.26,0Zm-6,0c0,1.1.58,2.32,1.83,2.32s1.82-1.22,1.82-2.32-.56-2.36-1.82-2.36S130.18,277.58,130.18,278.69Z"/><path class="cls-4" d="M137.11,275.6a1.16,1.16,0,0,1,1.15-1.28,1,1,0,0,1,1.06.85,2.46,2.46,0,0,1,2.22-.95,3,3,0,0,1,3.15,3.11v4.41a1.16,1.16,0,1,1-2.3,0v-4a1.49,1.49,0,1,0-3,0v4a1.16,1.16,0,1,1-2.3,0Z"/><path class="cls-4" d="M147.86,279.44A2,2,0,0,0,150,281.1c1.18,0,2-.92,2.61-.92a1,1,0,0,1,.94,1c0,1-2.05,1.95-3.76,1.95a4.2,4.2,0,0,1-4.32-4.43,4.14,4.14,0,1,1,8.27-.27c0,.68-.3,1-1,1Zm3.62-1.54a1.83,1.83,0,0,0-1.84-1.76,1.86,1.86,0,0,0-1.83,1.76Z"/><path class="cls-4" d="M159.45,276.91c-.44,0-1.32-.67-2.07-.67-.42,0-.78.19-.78.64,0,1.07,4,.91,4,3.54,0,1.53-1.3,2.7-3.28,2.7-1.3,0-3.22-.74-3.22-1.78a1.08,1.08,0,0,1,1-1c.9,0,1.3.78,2.39.78.7,0,.91-.22.91-.65,0-1.06-4-.9-4-3.54,0-1.6,1.29-2.69,3.12-2.69,1.14,0,2.88.53,2.88,1.67A1,1,0,0,1,159.45,276.91Z"/><path class="cls-3" d="M52.07,303.27c1.17,0,3.44.38,3.44,1.79a1,1,0,0,1-1,1.07c-.66,0-1.1-.56-2.45-.56-2,0-3,1.68-3,3.63s1,3.54,3,3.54c1.35,0,1.89-.67,2.55-.67a1.12,1.12,0,0,1,1.05,1.09c0,1.53-2.41,1.89-3.6,1.89-3.25,0-5.51-2.58-5.51-5.89S48.81,303.27,52.07,303.27Z"/><path class="cls-3" d="M64.6,313.45c0,.59,0,1.5-1.1,1.5-.68,0-1-.37-1.11-1a2.74,2.74,0,0,1-2.19,1.08c-2.16,0-3.81-1.84-3.81-4.44s1.69-4.46,3.81-4.46a2.62,2.62,0,0,1,2.19,1.05,1.09,1.09,0,0,1,1.11-1c1.1,0,1.1.92,1.1,1.51Zm-4.08-.52c1.2,0,1.77-1.21,1.77-2.32s-.56-2.35-1.77-2.35-1.83,1.25-1.83,2.35S59.27,312.93,60.52,312.93Z"/><path class="cls-3" d="M65.91,307.52a1.17,1.17,0,0,1,1.15-1.28,1.1,1.1,0,0,1,1.15,1,2.58,2.58,0,0,1,2.2-1.05c2.48,0,3.71,2.32,3.71,4.56s-1.47,4.34-3.79,4.34a3.35,3.35,0,0,1-2.12-.8v2.81a1.16,1.16,0,1,1-2.3,0ZM70,312.93c1.2,0,1.79-1.24,1.79-2.32s-.59-2.35-1.79-2.35-1.81,1.15-1.81,2.27S68.76,312.93,70,312.93Z"/><path class="cls-3" d="M83,313.45c0,.59,0,1.5-1.11,1.5-.67,0-.94-.37-1.1-1a2.74,2.74,0,0,1-2.19,1.08c-2.17,0-3.81-1.84-3.81-4.44s1.69-4.46,3.81-4.46a2.63,2.63,0,0,1,2.19,1.05,1.09,1.09,0,0,1,1.1-1c1.11,0,1.11.92,1.11,1.51Zm-4.08-.52c1.2,0,1.77-1.21,1.77-2.32s-.56-2.35-1.77-2.35-1.83,1.25-1.83,2.35S77.64,312.93,78.89,312.93Z"/><path class="cls-3" d="M90,308.71c-.58,0-1.09-.45-1.83-.45-1.31,0-1.94,1.17-1.94,2.35a2.12,2.12,0,0,0,1.94,2.32,12.37,12.37,0,0,0,1.71-.48,1,1,0,0,1,1,1c0,1.19-2,1.59-2.82,1.59a4.2,4.2,0,0,1-4.13-4.44,4.29,4.29,0,0,1,4.13-4.46c.91,0,2.82.33,2.82,1.45C90.89,308.08,90.55,308.71,90,308.71Z"/><path class="cls-3" d="M94.1,304.05a1.32,1.32,0,0,1-1.3,1.33,1.36,1.36,0,0,1-1.29-1.33,1.3,1.3,0,0,1,2.59,0Zm-2.45,3.47a1.16,1.16,0,1,1,2.31,0v6.15a1.16,1.16,0,1,1-2.31,0Z"/><path class="cls-3" d="M95.8,308.36h-.52a.93.93,0,0,1-1-1,1,1,0,0,1,1-1h.52V305a1.16,1.16,0,1,1,2.3,0v1.38h.66a1,1,0,0,1,1.1,1,1,1,0,0,1-1.1,1H98.1v5.31a1.16,1.16,0,1,1-2.3,0Z"/><path class="cls-3" d="M107.85,313.45c0,.59,0,1.5-1.11,1.5-.67,0-.94-.37-1.1-1a2.74,2.74,0,0,1-2.19,1.08c-2.17,0-3.81-1.84-3.81-4.44s1.69-4.46,3.81-4.46a2.63,2.63,0,0,1,2.19,1.05,1.09,1.09,0,0,1,1.1-1c1.11,0,1.11.92,1.11,1.51Zm-4.09-.52c1.21,0,1.78-1.21,1.78-2.32s-.56-2.35-1.78-2.35-1.82,1.25-1.82,2.35S102.52,312.93,103.76,312.93Z"/><path class="cls-3" d="M114.89,308.71c-.58,0-1.09-.45-1.83-.45-1.31,0-1.94,1.17-1.94,2.35a2.12,2.12,0,0,0,1.94,2.32,12.37,12.37,0,0,0,1.71-.48,1,1,0,0,1,1,1c0,1.19-2,1.59-2.82,1.59a4.2,4.2,0,0,1-4.13-4.44,4.29,4.29,0,0,1,4.13-4.46c.91,0,2.82.33,2.82,1.45C115.77,308.08,115.43,308.71,114.89,308.71Z"/><path class="cls-3" d="M119,304.05a1.32,1.32,0,0,1-1.3,1.33,1.36,1.36,0,0,1-1.29-1.33,1.3,1.3,0,0,1,2.59,0Zm-2.45,3.47a1.16,1.16,0,1,1,2.31,0v6.15a1.16,1.16,0,1,1-2.31,0Z"/><path class="cls-3" d="M128,310.61a4.14,4.14,0,1,1-8.26,0,4.14,4.14,0,1,1,8.26,0Zm-3.64-8a1.9,1.9,0,0,1,.61-.16,1,1,0,0,1,.87,1,.92.92,0,0,1-.66.95l-1.79.7c-.47.16-.32.16-.64.16-.48,0-.85-.61-.85-1.17a.8.8,0,0,1,.45-.64l.13-.06Zm-2.32,8c0,1.11.58,2.32,1.83,2.32s1.82-1.21,1.82-2.32-.56-2.35-1.82-2.35S122.08,309.51,122.08,310.61Z"/><path class="cls-3" d="M129,307.52a1.17,1.17,0,0,1,1.15-1.28,1,1,0,0,1,1.06.85,2.5,2.5,0,0,1,2.22-.94,3,3,0,0,1,3.16,3.1v4.42a1.16,1.16,0,1,1-2.31,0v-4a1.49,1.49,0,1,0-3,0v4a1.16,1.16,0,1,1-2.31,0Z"/><path class="cls-3" d="M47,323.52a1.17,1.17,0,0,1,1.15-1.28,1.1,1.1,0,0,1,1.15,1,2.58,2.58,0,0,1,2.2-1.05c2.48,0,3.71,2.32,3.71,4.56s-1.47,4.34-3.79,4.34a3.35,3.35,0,0,1-2.12-.8v2.81a1.16,1.16,0,1,1-2.3,0Zm4.11,5.41c1.2,0,1.79-1.24,1.79-2.32s-.59-2.35-1.79-2.35-1.81,1.15-1.81,2.27S49.8,328.93,51.06,328.93Z"/><path class="cls-3" d="M58,327.36A2,2,0,0,0,60.17,329c1.18,0,2-.93,2.6-.93a1,1,0,0,1,.95,1c0,1-2,2-3.76,2a4.2,4.2,0,0,1-4.32-4.44,4.14,4.14,0,1,1,8.27-.27c0,.69-.3,1-1,1Zm3.62-1.53a1.83,1.83,0,0,0-1.84-1.76,1.85,1.85,0,0,0-1.83,1.76Z"/><path class="cls-3" d="M64.69,323.4a1.14,1.14,0,0,1,1.19-1.16c.6,0,1.12.23,1.12,1h0a1.82,1.82,0,0,1,1.62-1,1.13,1.13,0,0,1,1.12,1.24c0,.75-.69.8-1.38,1.12s-1.39.62-1.39,1.53v3.54a1.16,1.16,0,1,1-2.31,0Z"/><path class="cls-3" d="M70.34,323.52a1.17,1.17,0,0,1,1.15-1.28,1,1,0,0,1,1.06.87,2.86,2.86,0,0,1,2.14-1,3,3,0,0,1,2.39,1.17,3.46,3.46,0,0,1,2.43-1.17,2.89,2.89,0,0,1,3.16,3.1v4.42a1.16,1.16,0,1,1-2.31,0v-4c0-.93-.51-1.58-1.34-1.58s-1.36.65-1.36,1.58v4a1.16,1.16,0,1,1-2.31,0v-4c0-.93-.51-1.58-1.34-1.58s-1.36.65-1.36,1.58v4a1.16,1.16,0,1,1-2.31,0Z"/><path class="cls-3" d="M91.85,329.45c0,.59,0,1.5-1.11,1.5-.67,0-.94-.37-1.1-1a2.74,2.74,0,0,1-2.19,1.08c-2.17,0-3.81-1.84-3.81-4.44s1.69-4.46,3.81-4.46a2.63,2.63,0,0,1,2.19,1.05,1.09,1.09,0,0,1,1.1-1c1.11,0,1.11.92,1.11,1.51Zm-4.08-.52c1.2,0,1.77-1.21,1.77-2.32s-.56-2.35-1.77-2.35-1.83,1.25-1.83,2.35S86.52,328.93,87.77,328.93Z"/><path class="cls-3" d="M93.16,323.52a1.17,1.17,0,0,1,1.15-1.28,1,1,0,0,1,1,.85,2.51,2.51,0,0,1,2.23-.94,3,3,0,0,1,3.15,3.1v4.42a1.16,1.16,0,1,1-2.3,0v-4a1.49,1.49,0,1,0-3,0v4a1.16,1.16,0,1,1-2.3,0Z"/><path class="cls-3" d="M103.91,327.36a2,2,0,0,0,2.18,1.67c1.18,0,2-.93,2.6-.93a1,1,0,0,1,1,1c0,1-2,2-3.76,2a4.2,4.2,0,0,1-4.32-4.44,4.14,4.14,0,1,1,8.27-.27c0,.69-.3,1-1,1Zm3.62-1.53a1.83,1.83,0,0,0-1.85-1.76,1.85,1.85,0,0,0-1.82,1.76Z"/><path class="cls-3" d="M110.64,323.52a1.17,1.17,0,0,1,1.16-1.28,1,1,0,0,1,1,.85,2.51,2.51,0,0,1,2.23-.94,3,3,0,0,1,3.15,3.1v4.42a1.16,1.16,0,1,1-2.3,0v-4a1.49,1.49,0,1,0-3,0v4a1.16,1.16,0,1,1-2.31,0Z"/><path class="cls-3" d="M120.1,324.36h-.51a.94.94,0,0,1-1-1,1,1,0,0,1,1-1h.51V321a1.16,1.16,0,1,1,2.3,0v1.38h.66c.59,0,1.11.27,1.11,1a1,1,0,0,1-1.11,1h-.66v5.31a1.16,1.16,0,1,1-2.3,0Z"/><path class="cls-3" d="M126.13,327.36a2,2,0,0,0,2.18,1.67c1.18,0,2-.93,2.61-.93a1,1,0,0,1,.94,1c0,1-2.05,2-3.76,2a4.2,4.2,0,0,1-4.32-4.44,4.14,4.14,0,1,1,8.27-.27c0,.69-.3,1-1,1Zm3.62-1.53a1.83,1.83,0,0,0-1.84-1.76,1.86,1.86,0,0,0-1.83,1.76Z"/><path class="cls-3" d="M45.64,157.3a1.15,1.15,0,0,1,1.25-1.24h2.83a3.81,3.81,0,0,1,4.1,3.82,3.76,3.76,0,0,1-4,3.79H48v2.63a1.2,1.2,0,1,1-2.4,0Zm2.4,4.26h1.63a1.7,1.7,0,0,0,0-3.39H48Z"/><path class="cls-3" d="M56.33,164a2,2,0,0,0,2.17,1.67c1.19,0,2-.93,2.61-.93a1,1,0,0,1,1,1c0,1-2.05,1.95-3.77,1.95A4.19,4.19,0,0,1,54,163.21a4.15,4.15,0,1,1,8.28-.27c0,.69-.31,1-1,1Zm3.61-1.53a1.81,1.81,0,0,0-1.84-1.76,1.85,1.85,0,0,0-1.82,1.76Z"/><path class="cls-3" d="M63,160a1.13,1.13,0,0,1,1.18-1.15c.61,0,1.12.22,1.12,1h0a1.81,1.81,0,0,1,1.61-1,1.12,1.12,0,0,1,1.12,1.23c0,.76-.69.8-1.37,1.12s-1.4.63-1.4,1.54v3.54a1.16,1.16,0,1,1-2.3,0Z"/><path class="cls-3" d="M68.92,161H68.4a.92.92,0,0,1-1-1,1,1,0,0,1,1-1h.52v-1.19a2.35,2.35,0,0,1,2.41-2.62c.82,0,1.6.24,1.6,1s-.3,1-.94,1c-.38,0-.77,0-.77.85v.95h.72c.69,0,1.17.27,1.17,1s-.5,1-1.17,1h-.72v5.32a1.16,1.16,0,1,1-2.3,0Z"/><path class="cls-3" d="M75.54,156.65A1.31,1.31,0,0,1,74.25,158a1.36,1.36,0,0,1-1.3-1.33,1.3,1.3,0,0,1,2.59,0Zm-2.45,3.47a1.16,1.16,0,1,1,2.31,0v6.15a1.16,1.16,0,1,1-2.31,0Z"/><path class="cls-3" d="M76.64,156.41a1.16,1.16,0,1,1,2.31,0v9.86a1.16,1.16,0,1,1-2.31,0Z"/><path class="cls-3" d="M82.09,164a2,2,0,0,0,2.17,1.67c1.19,0,2-.93,2.61-.93a1,1,0,0,1,.95,1c0,1-2,1.95-3.77,1.95a4.19,4.19,0,0,1-4.32-4.43,4.15,4.15,0,1,1,8.28-.27c0,.69-.31,1-1,1Zm3.61-1.53a1.83,1.83,0,0,0-1.84-1.76A1.85,1.85,0,0,0,82,162.43Z"/><path class="cls-3" d="M93.67,161.43c-.43,0-1.31-.67-2.06-.67-.42,0-.79.19-.79.64,0,1.07,4,.91,4,3.54,0,1.54-1.29,2.7-3.28,2.7-1.3,0-3.22-.73-3.22-1.77a1.1,1.1,0,0,1,1-1c.89,0,1.29.79,2.38.79.71,0,.91-.23.91-.66,0-1.06-4-.9-4-3.54,0-1.6,1.3-2.69,3.12-2.69,1.14,0,2.88.53,2.88,1.67A1,1,0,0,1,93.67,161.43Z"/><path class="cls-3" d="M107.8,166.27a1.16,1.16,0,0,1-1.15,1.28,1.11,1.11,0,0,1-1.16-1,2.5,2.5,0,0,1-2.11,1c-2.32,0-3.79-2.16-3.79-4.33s1.23-4.57,3.71-4.57a3.36,3.36,0,0,1,2.19.8v-3.13a1.16,1.16,0,1,1,2.31,0Zm-4.11-5.41c-1.21,0-1.8,1.26-1.8,2.35s.59,2.32,1.8,2.32,1.8-1.28,1.8-2.4S104.92,160.86,103.69,160.86Z"/><path class="cls-3" d="M111,164a2,2,0,0,0,2.18,1.67c1.19,0,2-.93,2.61-.93a1,1,0,0,1,.94,1c0,1-2,1.95-3.76,1.95a4.19,4.19,0,0,1-4.32-4.43,4.15,4.15,0,1,1,8.28-.27c0,.69-.31,1-1,1Zm3.62-1.53a1.83,1.83,0,0,0-1.84-1.76,1.85,1.85,0,0,0-1.82,1.76Z"/><path class="cls-3" d="M45.57,176.12a1.16,1.16,0,1,1,2.31,0v4.11a1.49,1.49,0,0,0,3,0v-4.11a1.16,1.16,0,1,1,2.3,0v4.16c0,2.05-1.36,3.36-3.79,3.36s-3.8-1.31-3.8-3.36Z"/><path class="cls-3" d="M59.32,177.43c-.43,0-1.31-.67-2.07-.67-.41,0-.78.19-.78.64,0,1.07,4,.91,4,3.54,0,1.54-1.29,2.7-3.28,2.7-1.3,0-3.22-.73-3.22-1.77a1.09,1.09,0,0,1,1-1c.89,0,1.29.79,2.38.79.7,0,.91-.23.91-.66,0-1.06-4-.9-4-3.54,0-1.6,1.3-2.69,3.12-2.69,1.14,0,2.88.53,2.88,1.67A1,1,0,0,1,59.32,177.43Z"/><path class="cls-3" d="M61.28,176.12a1.16,1.16,0,1,1,2.31,0v4.11a1.49,1.49,0,0,0,3,0v-4.11a1.16,1.16,0,1,1,2.3,0v4.16c0,2.05-1.36,3.36-3.79,3.36s-3.8-1.31-3.8-3.36Z"/><path class="cls-3" d="M78.06,182c0,.6,0,1.51-1.11,1.51-.67,0-.94-.37-1.1-1a2.75,2.75,0,0,1-2.2,1.07c-2.16,0-3.81-1.84-3.81-4.43s1.7-4.47,3.81-4.47a2.65,2.65,0,0,1,2.2,1.06,1.09,1.09,0,0,1,1.1-1c1.11,0,1.11.91,1.11,1.51ZM74,181.53c1.21,0,1.78-1.22,1.78-2.32s-.56-2.35-1.78-2.35-1.82,1.25-1.82,2.35S72.73,181.53,74,181.53Z"/><path class="cls-3" d="M79.33,176a1.13,1.13,0,0,1,1.19-1.15c.61,0,1.12.22,1.12,1h0a1.82,1.82,0,0,1,1.62-1,1.12,1.12,0,0,1,1.12,1.23c0,.76-.69.8-1.38,1.12s-1.39.63-1.39,1.54v3.54a1.16,1.16,0,1,1-2.31,0Z"/><path class="cls-3" d="M87.11,172.65a1.32,1.32,0,0,1-1.3,1.33,1.35,1.35,0,0,1-1.29-1.33,1.3,1.3,0,0,1,2.59,0Zm-2.45,3.47a1.16,1.16,0,1,1,2.31,0v6.15a1.16,1.16,0,1,1-2.31,0Z"/><path class="cls-3" d="M96.17,179.21a4.14,4.14,0,1,1-8.26,0,4.14,4.14,0,1,1,8.26,0Zm-6,0c0,1.1.58,2.32,1.83,2.32s1.82-1.22,1.82-2.32-.56-2.35-1.82-2.35S90.21,178.11,90.21,179.21Z"/><rect class="cls-5" x="221.19" y="0.75" width="670.25" height="337.15" rx="10.09"/><path class="cls-4" d="M881.35,338.65H231.27a10.85,10.85,0,0,1-10.83-10.84v-317A10.85,10.85,0,0,1,231.27,0H881.35a10.85,10.85,0,0,1,10.84,10.84v317A10.85,10.85,0,0,1,881.35,338.65ZM231.27,1.5a9.34,9.34,0,0,0-9.33,9.34v317a9.34,9.34,0,0,0,9.33,9.34H881.35a9.35,9.35,0,0,0,9.34-9.34v-317a9.35,9.35,0,0,0-9.34-9.34Z"/><circle class="cls-6" cx="185.95" cy="20.66" r="10.21"/><circle class="cls-6" cx="185.95" cy="70.22" r="10.21"/><circle class="cls-6" cx="185.95" cy="119.77" r="10.21"/><circle class="cls-6" cx="185.95" cy="169.32" r="10.21"/><circle class="cls-6" cx="185.95" cy="218.88" r="10.21"/><circle class="cls-6" cx="185.95" cy="268.43" r="10.21"/><circle class="cls-6" cx="185.95" cy="317.98" r="10.21"/><circle class="cls-4" cx="185.95" cy="268.43" r="4.43"/></g></g></svg>