<svg xmlns="http://www.w3.org/2000/svg" viewBox="0 0 206.89 337.15"><defs><style>.cls-1{fill:#ededed;}.cls-2{fill:#dad6e8;}.cls-3{fill:#9d9d9c;}.cls-4{fill:#48348a;}.cls-5{fill:#fff;}</style></defs><g id="Capa_2" data-name="Capa 2"><g id="Capa_1-2" data-name="Capa 1"><rect class="cls-1" width="206.89" height="39.83" rx="19.91"/><rect class="cls-1" y="49.55" width="206.89" height="39.83" rx="19.91"/><rect class="cls-1" y="99.11" width="206.89" height="39.83" rx="19.91"/><rect class="cls-1" y="148.66" width="206.89" height="39.83" rx="19.91"/><rect class="cls-1" y="198.21" width="206.89" height="39.83" rx="19.91"/><rect class="cls-2" y="247.76" width="206.89" height="39.83" rx="19.91"/><rect class="cls-1" y="297.32" width="206.89" height="39.83" rx="19.91"/><path class="cls-3" d="M46.09,9.07a1.59,1.59,0,0,1,1.56-1.23A1.68,1.68,0,0,1,49.25,9l1.89,6.34h0L53.06,9a1.72,1.72,0,0,1,1.61-1.15,1.59,1.59,0,0,1,1.56,1.23L57.72,18a1.32,1.32,0,0,1,0,.27,1.1,1.1,0,0,1-1.15,1.15c-.82,0-1.14-.36-1.25-1.12l-1-6.51h0L52.44,18.5a1.35,1.35,0,0,1-2.56,0L48,11.79h0L47,18.3c-.11.76-.43,1.12-1.25,1.12a1.1,1.1,0,0,1-1.15-1.15,1.32,1.32,0,0,1,0-.27Z"/><path class="cls-3" d="M60.63,15.84a2,2,0,0,0,2.18,1.66c1.18,0,2-.92,2.61-.92a1,1,0,0,1,.94,1c0,1-2,1.95-3.76,1.95a4.2,4.2,0,0,1-4.32-4.43,4.14,4.14,0,1,1,8.27-.28c0,.69-.3,1-1,1Zm3.62-1.54a1.83,1.83,0,0,0-1.84-1.76,1.86,1.86,0,0,0-1.83,1.76Z"/><path class="cls-3" d="M72.21,13.31c-.43,0-1.31-.67-2.06-.67-.42,0-.78.19-.78.64,0,1.07,4,.91,4,3.54,0,1.53-1.3,2.7-3.28,2.7-1.3,0-3.22-.74-3.22-1.78a1.08,1.08,0,0,1,1-1c.9,0,1.3.78,2.39.78.7,0,.91-.22.91-.65,0-1.06-4-.9-4-3.54,0-1.6,1.29-2.69,3.12-2.69,1.14,0,2.88.53,2.88,1.67A1,1,0,0,1,72.21,13.31Z"/><path class="cls-3" d="M82.06,17.92c0,.59,0,1.5-1.11,1.5-.67,0-.94-.36-1.1-1a2.78,2.78,0,0,1-2.2,1.07c-2.16,0-3.81-1.84-3.81-4.43s1.7-4.47,3.81-4.47a2.65,2.65,0,0,1,2.2,1.06,1.09,1.09,0,0,1,1.1-1c1.11,0,1.11.91,1.11,1.5ZM78,17.41c1.2,0,1.78-1.22,1.78-2.32s-.56-2.36-1.78-2.36S76.15,14,76.15,15.09,76.73,17.41,78,17.41Z"/><path class="cls-3" d="M95.53,18.14a1.16,1.16,0,0,1-1.15,1.28,1.11,1.11,0,0,1-1.16-1,2.5,2.5,0,0,1-2.11,1.06c-2.32,0-3.79-2.16-3.79-4.34s1.23-4.56,3.71-4.56a3.32,3.32,0,0,1,2.19.8V8.28a1.16,1.16,0,1,1,2.31,0Zm-4.12-5.41c-1.2,0-1.79,1.27-1.79,2.36s.59,2.32,1.79,2.32,1.81-1.28,1.81-2.4S92.65,12.73,91.41,12.73Z"/><path class="cls-3" d="M98.69,15.84a2,2,0,0,0,2.18,1.66c1.18,0,2-.92,2.61-.92a1,1,0,0,1,.94,1c0,1-2,1.95-3.76,1.95a4.2,4.2,0,0,1-4.32-4.43,4.15,4.15,0,1,1,8.28-.28c0,.69-.31,1-1,1Zm3.62-1.54a1.83,1.83,0,0,0-1.84-1.76,1.86,1.86,0,0,0-1.82,1.76Z"/><path class="cls-3" d="M110.28,12.83h-.52a.93.93,0,0,1-1-1,1,1,0,0,1,1-1h.52V9.44a1.16,1.16,0,1,1,2.3,0v1.37h.66a1,1,0,1,1,0,2h-.66v5.31a1.16,1.16,0,1,1-2.3,0Z"/><path class="cls-3" d="M114.42,11.87a1.13,1.13,0,0,1,1.18-1.15c.61,0,1.12.22,1.12,1h0a1.81,1.81,0,0,1,1.61-1A1.12,1.12,0,0,1,119.49,12c0,.75-.68.8-1.37,1.12s-1.4.62-1.4,1.54v3.53a1.16,1.16,0,1,1-2.3,0Z"/><path class="cls-3" d="M127.66,17.92c0,.59,0,1.5-1.11,1.5-.67,0-.94-.36-1.1-1a2.79,2.79,0,0,1-2.2,1.07c-2.16,0-3.81-1.84-3.81-4.43s1.7-4.47,3.81-4.47a2.66,2.66,0,0,1,2.2,1.06,1.09,1.09,0,0,1,1.1-1c1.11,0,1.11.91,1.11,1.5Zm-4.09-.51c1.2,0,1.78-1.22,1.78-2.32s-.56-2.36-1.78-2.36-1.82,1.25-1.82,2.36S122.33,17.41,123.57,17.41Z"/><path class="cls-3" d="M129,8.28a1.16,1.16,0,1,1,2.31,0v3.14a3.32,3.32,0,0,1,2.19-.8c2.48,0,3.71,2.32,3.71,4.56s-1.47,4.34-3.79,4.34a2.5,2.5,0,0,1-2.11-1.06,1.1,1.1,0,0,1-1.15,1A1.16,1.16,0,0,1,129,18.14Zm4.12,9.13c1.2,0,1.79-1.25,1.79-2.32s-.59-2.36-1.79-2.36-1.81,1.16-1.81,2.28S131.81,17.41,133.08,17.41Z"/><path class="cls-3" d="M146,17.92c0,.59,0,1.5-1.1,1.5-.67,0-.95-.36-1.11-1a2.76,2.76,0,0,1-2.19,1.07c-2.16,0-3.81-1.84-3.81-4.43s1.7-4.47,3.81-4.47a2.63,2.63,0,0,1,2.19,1.06,1.1,1.1,0,0,1,1.11-1c1.1,0,1.1.91,1.1,1.5Zm-4.08-.51c1.2,0,1.78-1.22,1.78-2.32s-.56-2.36-1.78-2.36-1.82,1.25-1.82,2.36S140.69,17.41,141.94,17.41Z"/><path class="cls-3" d="M149.75,8.52a1.32,1.32,0,0,1-1.3,1.33,1.34,1.34,0,0,1-1.29-1.33,1.3,1.3,0,0,1,2.59,0ZM147.3,12a1.16,1.16,0,1,1,2.3,0v9.54a1.16,1.16,0,1,1-2.3,0Z"/><path class="cls-3" d="M158.81,15.09a4.14,4.14,0,1,1-8.26,0,4.14,4.14,0,1,1,8.26,0Zm-6,0c0,1.1.58,2.32,1.83,2.32s1.82-1.22,1.82-2.32-.56-2.36-1.82-2.36S152.85,14,152.85,15.09Z"/><path class="cls-3" d="M46.09,25.07a1.59,1.59,0,0,1,1.56-1.23A1.68,1.68,0,0,1,49.25,25l1.89,6.34h0L53.06,25a1.72,1.72,0,0,1,1.61-1.15,1.59,1.59,0,0,1,1.56,1.23L57.72,34a1.32,1.32,0,0,1,0,.27,1.1,1.1,0,0,1-1.15,1.15c-.82,0-1.14-.36-1.25-1.12l-1-6.51h0L52.44,34.5a1.35,1.35,0,0,1-2.56,0L48,27.79h0L47,34.3c-.11.76-.43,1.12-1.25,1.12a1.1,1.1,0,0,1-1.15-1.15,1.32,1.32,0,0,1,0-.27Z"/><path class="cls-3" d="M62.93,29.68a.94.94,0,0,1,.92,1,.92.92,0,0,1-.92,1h-3.4a.92.92,0,0,1-.92-1,.94.94,0,0,1,.92-1Z"/><path class="cls-3" d="M65,27.87a1.13,1.13,0,0,1,1.19-1.15c.61,0,1.12.22,1.12,1h0a1.82,1.82,0,0,1,1.62-1A1.12,1.12,0,0,1,70,28c0,.75-.69.8-1.38,1.12s-1.39.62-1.39,1.54v3.53a1.16,1.16,0,1,1-2.31,0Z"/><path class="cls-3" d="M72.74,24.52a1.31,1.31,0,0,1-1.29,1.33,1.35,1.35,0,0,1-1.3-1.33,1.33,1.33,0,0,1,1.3-1.26A1.31,1.31,0,0,1,72.74,24.52ZM70.29,28a1.16,1.16,0,1,1,2.31,0v6.14a1.16,1.16,0,1,1-2.31,0Z"/><path class="cls-3" d="M78.73,29.31c-.44,0-1.32-.67-2.07-.67-.41,0-.78.19-.78.64,0,1.07,4,.91,4,3.54,0,1.53-1.3,2.7-3.28,2.7-1.3,0-3.22-.74-3.22-1.78a1.08,1.08,0,0,1,1-1c.9,0,1.3.78,2.39.78.7,0,.91-.22.91-.65,0-1.06-4-.9-4-3.54,0-1.6,1.29-2.69,3.12-2.69,1.14,0,2.88.53,2.88,1.67A1,1,0,0,1,78.73,29.31Z"/><path class="cls-3" d="M80.69,24.28a1.16,1.16,0,1,1,2.31,0v5.38l2.53-2.45a1.53,1.53,0,0,1,1-.49,1,1,0,0,1,1,1,1.15,1.15,0,0,1-.44.91l-2,1.82,2.7,3.17a1.16,1.16,0,0,1,.29.77A1.08,1.08,0,0,1,87,35.52a1.48,1.48,0,0,1-1.1-.7L83,31.34h0v2.8a1.16,1.16,0,1,1-2.31,0Z"/><path class="cls-3" d="M24.22,14.09H22.51a1.87,1.87,0,0,1-2-2,1.94,1.94,0,0,1,2-2h4.12a1.88,1.88,0,0,1,1.94,2.06V28.65a2.18,2.18,0,1,1-4.35,0Z"/><path class="cls-3" d="M34.43,26.56a2.27,2.27,0,1,1-2.26,2.26A2.27,2.27,0,0,1,34.43,26.56Z"/><path class="cls-3" d="M27,76.46c1.27,0,2.26.58,2.26,1.92a1.87,1.87,0,0,1-2.09,1.91H17.46c-1.27,0-2.26-.58-2.26-1.91a2.43,2.43,0,0,1,.67-1.48c2.41-2.87,5-5.48,7.22-8.68a4.79,4.79,0,0,0,1-2.69A2.18,2.18,0,0,0,22,63.29c-3.34,0-1.74,4.7-4.53,4.7a2,2,0,0,1-2.12-2.12,6.82,6.82,0,0,1,6.82-6.58c3.57,0,6.44,2.35,6.44,6,0,4-4.5,8-7,11.14Z"/><path class="cls-3" d="M34.43,76.11a2.27,2.27,0,1,1-2.26,2.27A2.27,2.27,0,0,1,34.43,76.11Z"/><path class="cls-3" d="M27.93,114.15a5.07,5.07,0,0,1-2.37,4.44,5.78,5.78,0,0,1,3.53,5.19c0,3.48-3.19,6.41-7.3,6.41-4.3,0-7-3.16-7-5.45a2.19,2.19,0,0,1,2.24-1.94c2,0,1.51,3.39,4.78,3.39a2.68,2.68,0,0,0,2.73-2.7c0-4.06-4.93-1.07-4.93-4.49,0-3,4.12-1,4.12-4.21a1.92,1.92,0,0,0-2.09-1.94c-2.76,0-2.38,2.84-4.35,2.84a2,2,0,0,1-1.89-2.15c0-2.26,3.11-4.7,6.33-4.7C25.93,108.84,27.93,111.89,27.93,114.15Z"/><path class="cls-3" d="M34.43,125.67a2.26,2.26,0,1,1-2.26,2.26A2.26,2.26,0,0,1,34.43,125.67Z"/><path class="cls-3" d="M16.39,174.84a1.83,1.83,0,0,1-2-1.71,2.17,2.17,0,0,1,.41-1.28l6.49-11.77a3,3,0,0,1,3-1.68c1.68,0,3.34,1.07,3.34,3.71V171h.49a1.92,1.92,0,1,1,0,3.83h-.49v2.47c0,1.54-.61,2.26-2.09,2.26s-2.09-.72-2.09-2.26v-2.47Zm7-11.92h-.06L19.41,171h4Z"/><path class="cls-3" d="M34.43,175.22a2.27,2.27,0,1,1-2.26,2.26A2.26,2.26,0,0,1,34.43,175.22Z"/><path class="cls-3" d="M20.71,215.38a10.59,10.59,0,0,1,2.18-.29,6,6,0,0,1,6,6.17c0,4.85-2.67,8-7.68,8-2.06,0-6.39-1.34-6.39-3.89a2,2,0,0,1,2-2c1.16,0,2.55,1.86,4.49,1.86s3.08-2,3.08-3.8a2.65,2.65,0,0,0-2.79-2.93c-1.68,0-1.94,1-3.42,1a1.62,1.62,0,0,1-1.71-1.36,9.32,9.32,0,0,1,.09-1l.72-6.12c.32-2.26.87-2.75,2.26-2.75h7a1.87,1.87,0,0,1,2.12,1.83,1.93,1.93,0,0,1-2,2.17H21.15Z"/><path class="cls-3" d="M34.43,224.77A2.27,2.27,0,1,1,32.17,227,2.27,2.27,0,0,1,34.43,224.77Z"/><path class="cls-4" d="M14.94,271.66c0-4.38,4.44-10.53,7.37-13.26a6.24,6.24,0,0,1,.93-.69,1.44,1.44,0,0,1,.87-.21,2.47,2.47,0,0,1,2.06,2.12,2.1,2.1,0,0,1-.61,1.19c-1.16,1.42-3,3.28-4,4.64l.06.06a4.7,4.7,0,0,1,1.83-.35,6.3,6.3,0,0,1,6.06,6.5,7.19,7.19,0,0,1-7.28,7.19A7,7,0,0,1,14.94,271.66Zm4.52,0a2.77,2.77,0,1,0,2.76-3A2.78,2.78,0,0,0,19.46,271.66Z"/><path class="cls-4" d="M34.43,274.33a2.26,2.26,0,1,1-2.26,2.26A2.26,2.26,0,0,1,34.43,274.33Z"/><path class="cls-3" d="M25,311.41H17.52a1.93,1.93,0,0,1-2.15-2,1.9,1.9,0,0,1,2.15-2H28a2.12,2.12,0,0,1,2.09,2.09,4.91,4.91,0,0,1-.67,1.92L22.25,326c-.81,1.62-1.13,2.2-2.44,2.2a2.28,2.28,0,0,1-2.41-2.06,2.09,2.09,0,0,1,.29-1Z"/><path class="cls-3" d="M34.43,323.88a2.26,2.26,0,1,1-2.26,2.26A2.26,2.26,0,0,1,34.43,323.88Z"/><path class="cls-3" d="M47.56,58.62a1.88,1.88,0,0,1,1.71-1.33A1.8,1.8,0,0,1,51,58.62l3.14,8.71a1.75,1.75,0,0,1,.13.59A1.07,1.07,0,0,1,53.14,69,1.12,1.12,0,0,1,52,68.14l-.48-1.5H47.05l-.48,1.49a1.12,1.12,0,0,1-1.16.85,1.14,1.14,0,0,1-1.18-1.12,1.41,1.41,0,0,1,.11-.53Zm.17,5.81h3.05l-1.49-4.64h0Z"/><path class="cls-3" d="M62.81,67.7A1.17,1.17,0,0,1,61.66,69a1.12,1.12,0,0,1-1.16-1,2.51,2.51,0,0,1-2.11,1c-2.32,0-3.79-2.16-3.79-4.33s1.23-4.57,3.71-4.57a3.31,3.31,0,0,1,2.19.8V57.84a1.16,1.16,0,1,1,2.31,0ZM58.7,62.29c-1.21,0-1.8,1.26-1.8,2.35S57.49,67,58.7,67s1.8-1.28,1.8-2.4S59.93,62.29,58.7,62.29Z"/><path class="cls-3" d="M64.12,61.55a1.16,1.16,0,0,1,1.15-1.28,1,1,0,0,1,1.06.86,2.84,2.84,0,0,1,2.14-1,3,3,0,0,1,2.39,1.17,3.44,3.44,0,0,1,2.43-1.17,2.89,2.89,0,0,1,3.15,3.11V67.7a1.16,1.16,0,1,1-2.3,0v-4c0-.93-.51-1.59-1.35-1.59s-1.36.66-1.36,1.59v4a1.16,1.16,0,1,1-2.3,0v-4c0-.93-.51-1.59-1.35-1.59s-1.36.66-1.36,1.59v4a1.16,1.16,0,1,1-2.3,0Z"/><path class="cls-3" d="M80.17,58.08a1.32,1.32,0,0,1-1.3,1.33,1.36,1.36,0,0,1-1.3-1.33,1.33,1.33,0,0,1,1.3-1.27A1.32,1.32,0,0,1,80.17,58.08Zm-2.45,3.47a1.16,1.16,0,1,1,2.3,0V67.7a1.16,1.16,0,1,1-2.3,0Z"/><path class="cls-3" d="M81.3,61.55a1.16,1.16,0,0,1,1.15-1.28,1,1,0,0,1,1.06.85,2.48,2.48,0,0,1,2.22-.95,3,3,0,0,1,3.16,3.11V67.7a1.16,1.16,0,1,1-2.31,0v-4a1.49,1.49,0,1,0-3,0v4a1.16,1.16,0,1,1-2.31,0Z"/><path class="cls-3" d="M92.61,58.08a1.31,1.31,0,0,1-1.29,1.33A1.36,1.36,0,0,1,90,58.08a1.33,1.33,0,0,1,1.3-1.27A1.32,1.32,0,0,1,92.61,58.08Zm-2.45,3.47a1.16,1.16,0,1,1,2.31,0V67.7a1.16,1.16,0,1,1-2.31,0Z"/><path class="cls-3" d="M98.6,62.86c-.43,0-1.31-.67-2.07-.67-.41,0-.78.19-.78.64,0,1.07,4,.91,4,3.54,0,1.53-1.3,2.7-3.28,2.7-1.3,0-3.22-.73-3.22-1.77a1.08,1.08,0,0,1,1-1c.9,0,1.3.79,2.39.79.7,0,.91-.23.91-.66,0-1.06-4-.9-4-3.54,0-1.6,1.3-2.69,3.12-2.69,1.14,0,2.88.53,2.88,1.67A1,1,0,0,1,98.6,62.86Z"/><path class="cls-3" d="M101.12,62.38h-.51a.94.94,0,0,1-1-1,1,1,0,0,1,1-1h.51V59a1.16,1.16,0,1,1,2.31,0v1.37h.66a1,1,0,1,1,0,2h-.66V67.7a1.16,1.16,0,1,1-2.31,0Z"/><path class="cls-3" d="M105.27,61.42a1.13,1.13,0,0,1,1.18-1.15c.61,0,1.12.22,1.12,1h0a1.81,1.81,0,0,1,1.61-1,1.12,1.12,0,0,1,1.12,1.23c0,.75-.69.8-1.37,1.12s-1.4.63-1.4,1.54V67.7a1.16,1.16,0,1,1-2.3,0Z"/><path class="cls-3" d="M118.5,67.47c0,.59,0,1.51-1.1,1.51-.67,0-1-.37-1.11-1a2.76,2.76,0,0,1-2.19,1.07c-2.16,0-3.81-1.84-3.81-4.43s1.7-4.47,3.81-4.47a2.63,2.63,0,0,1,2.19,1.06,1.1,1.1,0,0,1,1.11-1c1.1,0,1.1.91,1.1,1.5ZM114.42,67c1.2,0,1.78-1.22,1.78-2.32s-.56-2.35-1.78-2.35-1.82,1.24-1.82,2.35S113.17,67,114.42,67Z"/><path class="cls-3" d="M127.69,67.7A1.17,1.17,0,0,1,126.53,69a1.11,1.11,0,0,1-1.15-1,2.51,2.51,0,0,1-2.11,1c-2.32,0-3.79-2.16-3.79-4.33s1.23-4.57,3.71-4.57a3.32,3.32,0,0,1,2.19.8V57.84a1.16,1.16,0,1,1,2.31,0Zm-4.12-5.41c-1.2,0-1.79,1.26-1.79,2.35s.59,2.32,1.79,2.32,1.81-1.28,1.81-2.4S124.81,62.29,123.57,62.29Z"/><path class="cls-3" d="M136.92,64.64a4.14,4.14,0,1,1-8.26,0,4.14,4.14,0,1,1,8.26,0Zm-6,0c0,1.1.58,2.32,1.83,2.32s1.82-1.22,1.82-2.32-.56-2.35-1.82-2.35S131,63.53,131,64.64Z"/><path class="cls-3" d="M137.86,61.42A1.13,1.13,0,0,1,139,60.27c.61,0,1.12.22,1.12,1h0a1.81,1.81,0,0,1,1.61-1,1.12,1.12,0,0,1,1.12,1.23c0,.75-.68.8-1.37,1.12s-1.4.63-1.4,1.54V67.7a1.16,1.16,0,1,1-2.3,0Z"/><path class="cls-3" d="M144.79,65.39A2,2,0,0,0,147,67.06c1.19,0,2-.93,2.61-.93a1,1,0,0,1,1,1c0,1-2.05,1.95-3.76,1.95a4.19,4.19,0,0,1-4.32-4.43,4.14,4.14,0,1,1,8.27-.27c0,.68-.3,1-1,1Zm3.62-1.54a1.83,1.83,0,0,0-1.85-1.76,1.86,1.86,0,0,0-1.82,1.76Z"/><path class="cls-3" d="M156.37,62.86c-.43,0-1.31-.67-2.06-.67-.42,0-.79.19-.79.64,0,1.07,4,.91,4,3.54,0,1.53-1.3,2.7-3.29,2.7-1.29,0-3.21-.73-3.21-1.77a1.08,1.08,0,0,1,1-1c.9,0,1.3.79,2.38.79.71,0,.92-.23.92-.66,0-1.06-4-.9-4-3.54,0-1.6,1.29-2.69,3.12-2.69,1.13,0,2.88.53,2.88,1.67A1,1,0,0,1,156.37,62.86Z"/><path class="cls-3" d="M44.85,77.55A1.16,1.16,0,0,1,46,76.27a1.1,1.1,0,0,1,1.15,1,2.54,2.54,0,0,1,2.19-1.06c2.48,0,3.71,2.32,3.71,4.57s-1.47,4.33-3.79,4.33a3.27,3.27,0,0,1-2.11-.8v2.82a1.16,1.16,0,1,1-2.31,0ZM49,83c1.2,0,1.79-1.25,1.79-2.32s-.59-2.35-1.79-2.35-1.81,1.15-1.81,2.27S47.7,83,49,83Z"/><path class="cls-3" d="M54,73.84a1.16,1.16,0,1,1,2.31,0V83.7a1.16,1.16,0,1,1-2.31,0Z"/><path class="cls-3" d="M65.46,83.47c0,.59,0,1.51-1.1,1.51-.67,0-.94-.37-1.11-1a2.76,2.76,0,0,1-2.19,1.07c-2.16,0-3.81-1.84-3.81-4.43s1.7-4.47,3.81-4.47a2.63,2.63,0,0,1,2.19,1.06,1.1,1.1,0,0,1,1.11-1c1.1,0,1.1.91,1.1,1.5ZM61.38,83c1.2,0,1.78-1.22,1.78-2.32s-.56-2.35-1.78-2.35-1.82,1.24-1.82,2.35S60.13,83,61.38,83Z"/><path class="cls-3" d="M67.33,78.38h-.51a.94.94,0,0,1-1-1,1,1,0,0,1,1-1h.51V75a1.16,1.16,0,1,1,2.31,0v1.37h.65a1,1,0,1,1,0,2h-.65V83.7a1.16,1.16,0,1,1-2.31,0Z"/><path class="cls-3" d="M79.38,83.47c0,.59,0,1.51-1.1,1.51-.67,0-.94-.37-1.11-1A2.76,2.76,0,0,1,75,85.07c-2.16,0-3.81-1.84-3.81-4.43s1.7-4.47,3.81-4.47a2.63,2.63,0,0,1,2.19,1.06,1.1,1.1,0,0,1,1.11-1c1.1,0,1.1.91,1.1,1.5ZM75.3,83c1.2,0,1.78-1.22,1.78-2.32s-.56-2.35-1.78-2.35-1.82,1.24-1.82,2.35S74.05,83,75.3,83Z"/><path class="cls-3" d="M81.22,78.38h-.51a.93.93,0,0,1-1-1,1,1,0,0,1,1-1h.51V75.18a2.34,2.34,0,0,1,2.42-2.62c.81,0,1.6.24,1.6,1s-.31,1-.95,1c-.38,0-.76,0-.76.85v.94h.72c.68,0,1.16.28,1.16,1s-.49,1-1.16,1h-.72V83.7a1.16,1.16,0,1,1-2.31,0Z"/><path class="cls-3" d="M93.35,80.64a4.14,4.14,0,1,1-8.26,0,4.14,4.14,0,1,1,8.26,0Zm-5.95,0c0,1.1.57,2.32,1.82,2.32s1.83-1.22,1.83-2.32-.56-2.35-1.83-2.35S87.4,79.53,87.4,80.64Z"/><path class="cls-3" d="M94.29,77.42a1.13,1.13,0,0,1,1.19-1.15c.61,0,1.12.22,1.12,1h0a1.82,1.82,0,0,1,1.62-1,1.12,1.12,0,0,1,1.12,1.23c0,.75-.69.8-1.38,1.12s-1.39.63-1.39,1.54V83.7a1.16,1.16,0,1,1-2.31,0Z"/><path class="cls-3" d="M99.94,77.55a1.16,1.16,0,0,1,1.15-1.28,1,1,0,0,1,1.06.86,2.86,2.86,0,0,1,2.14-1,3,3,0,0,1,2.39,1.17,3.46,3.46,0,0,1,2.43-1.17,2.9,2.9,0,0,1,3.16,3.11V83.7a1.16,1.16,0,1,1-2.31,0v-4c0-.93-.51-1.59-1.34-1.59a1.41,1.41,0,0,0-1.37,1.59v4a1.16,1.16,0,1,1-2.3,0v-4c0-.93-.51-1.59-1.34-1.59s-1.36.66-1.36,1.59v4a1.16,1.16,0,1,1-2.31,0Z"/><path class="cls-3" d="M121.45,83.47c0,.59,0,1.51-1.11,1.51-.67,0-.94-.37-1.1-1a2.76,2.76,0,0,1-2.19,1.07c-2.17,0-3.81-1.84-3.81-4.43s1.69-4.47,3.81-4.47a2.64,2.64,0,0,1,2.19,1.06,1.09,1.09,0,0,1,1.1-1c1.11,0,1.11.91,1.11,1.5ZM117.37,83c1.2,0,1.77-1.22,1.77-2.32s-.56-2.35-1.77-2.35-1.83,1.24-1.83,2.35S116.12,83,117.37,83Z"/><path class="cls-3" d="M51.66,108.31a1.11,1.11,0,0,1-1.08,1.18c-.65,0-1.16-.48-2.12-.48-.69,0-1.32.37-1.32,1,0,1.65,5.35.6,5.35,4.73a3.8,3.8,0,0,1-4.1,3.71c-1.23,0-3.89-.29-3.89-1.79a1.07,1.07,0,0,1,1.07-1.14c.76,0,1.65.62,2.69.62s1.64-.59,1.64-1.37c0-1.89-5.35-.75-5.35-4.47a3.7,3.7,0,0,1,4-3.63C49.42,106.71,51.66,107.05,51.66,108.31Z"/><path class="cls-3" d="M61.37,114.06a4.14,4.14,0,1,1-8.26,0,4.14,4.14,0,1,1,8.26,0Zm-6,0c0,1.1.58,2.32,1.83,2.32s1.82-1.22,1.82-2.32-.56-2.36-1.82-2.36S55.41,113,55.41,114.06Z"/><path class="cls-3" d="M62.34,111a1.16,1.16,0,0,1,1.15-1.28,1.11,1.11,0,0,1,1.16,1,2.53,2.53,0,0,1,2.19-1.06c2.48,0,3.71,2.32,3.71,4.56s-1.47,4.34-3.79,4.34a3.25,3.25,0,0,1-2.11-.8v2.82a1.16,1.16,0,1,1-2.31,0Zm4.12,5.41c1.2,0,1.79-1.25,1.79-2.32s-.59-2.36-1.79-2.36-1.81,1.16-1.81,2.28S65.19,116.38,66.46,116.38Z"/><path class="cls-3" d="M79.45,114.06a4.14,4.14,0,1,1-8.26,0,4.14,4.14,0,1,1,8.26,0Zm-6,0c0,1.1.58,2.32,1.83,2.32s1.82-1.22,1.82-2.32-.56-2.36-1.82-2.36S73.49,113,73.49,114.06Z"/><path class="cls-3" d="M80.39,110.84a1.13,1.13,0,0,1,1.18-1.15c.61,0,1.12.22,1.12,1h0a1.81,1.81,0,0,1,1.61-1,1.12,1.12,0,0,1,1.12,1.23c0,.75-.69.8-1.37,1.12s-1.4.62-1.4,1.54v3.53a1.16,1.16,0,1,1-2.3,0Z"/><path class="cls-3" d="M86.31,111.8H85.8a.93.93,0,0,1-1-1,1,1,0,0,1,1-1h.51v-1.37a1.16,1.16,0,1,1,2.3,0v1.37h.66c.59,0,1.11.27,1.11,1a1,1,0,0,1-1.11,1h-.66v5.31a1.16,1.16,0,1,1-2.3,0Z"/><path class="cls-3" d="M92.34,114.81a2,2,0,0,0,2.18,1.66c1.18,0,2-.92,2.61-.92a1,1,0,0,1,.94,1c0,1-2,1.95-3.76,1.95A4.2,4.2,0,0,1,90,114.06a4.14,4.14,0,1,1,8.27-.28c0,.69-.3,1-1,1ZM96,113.27a1.83,1.83,0,0,0-1.84-1.76,1.87,1.87,0,0,0-1.83,1.76Z"/><path class="cls-3" d="M111.24,117.11a1.16,1.16,0,0,1-1.15,1.28,1.11,1.11,0,0,1-1.16-1,2.48,2.48,0,0,1-2.11,1.06c-2.32,0-3.79-2.16-3.79-4.34s1.23-4.56,3.71-4.56a3.31,3.31,0,0,1,2.19.8v-3.14a1.16,1.16,0,1,1,2.31,0Zm-4.11-5.41c-1.21,0-1.8,1.27-1.8,2.36s.59,2.32,1.8,2.32,1.8-1.28,1.8-2.4S108.36,111.7,107.13,111.7Z"/><path class="cls-3" d="M114.41,114.81a2,2,0,0,0,2.17,1.66c1.19,0,2-.92,2.61-.92a1,1,0,0,1,.94,1c0,1-2,1.95-3.76,1.95a4.2,4.2,0,0,1-4.32-4.43,4.15,4.15,0,1,1,8.28-.28c0,.69-.31,1-1,1Zm3.61-1.54a1.83,1.83,0,0,0-1.84-1.76,1.86,1.86,0,0,0-1.82,1.76Z"/><path class="cls-3" d="M44.85,127A1.16,1.16,0,0,1,46,125.69a1,1,0,0,1,1.05.86,2.86,2.86,0,0,1,2.15-1,2.93,2.93,0,0,1,2.38,1.17A3.46,3.46,0,0,1,54,125.59a2.89,2.89,0,0,1,3.15,3.11v4.41a1.16,1.16,0,1,1-2.31,0v-4c0-.93-.51-1.59-1.34-1.59s-1.36.66-1.36,1.59v4a1.16,1.16,0,1,1-2.31,0v-4c0-.93-.51-1.59-1.34-1.59s-1.36.66-1.36,1.59v4a1.16,1.16,0,1,1-2.31,0Z"/><path class="cls-3" d="M60.34,130.81a2,2,0,0,0,2.18,1.66c1.18,0,2-.92,2.61-.92a1,1,0,0,1,.94,1c0,1-2,2-3.76,2A4.2,4.2,0,0,1,58,130.06a4.14,4.14,0,1,1,8.27-.28c0,.69-.3,1-1,1ZM64,129.27a1.83,1.83,0,0,0-1.84-1.76,1.87,1.87,0,0,0-1.83,1.76Z"/><path class="cls-3" d="M71.93,128.28c-.43,0-1.32-.67-2.07-.67-.41,0-.78.19-.78.64,0,1.07,4,.91,4,3.53,0,1.54-1.3,2.71-3.28,2.71-1.3,0-3.22-.74-3.22-1.78a1.08,1.08,0,0,1,1-1c.9,0,1.3.78,2.39.78.7,0,.91-.22.91-.65,0-1.06-4-.9-4-3.54,0-1.6,1.3-2.69,3.12-2.69,1.14,0,2.88.53,2.88,1.67A1,1,0,0,1,71.93,128.28Z"/><path class="cls-3" d="M81.77,132.89c0,.59,0,1.5-1.11,1.5-.67,0-.94-.36-1.1-1a2.76,2.76,0,0,1-2.19,1.07c-2.16,0-3.81-1.84-3.81-4.43s1.69-4.47,3.81-4.47a2.64,2.64,0,0,1,2.19,1.06,1.09,1.09,0,0,1,1.1-1c1.11,0,1.11.91,1.11,1.5Zm-4.08-.51c1.2,0,1.77-1.22,1.77-2.32s-.56-2.36-1.77-2.36-1.83,1.25-1.83,2.36S76.44,132.38,77.69,132.38Z"/><path class="cls-3" d="M95.24,133.11a1.16,1.16,0,0,1-1.15,1.28,1.11,1.11,0,0,1-1.16-1,2.48,2.48,0,0,1-2.11,1.06c-2.32,0-3.79-2.16-3.79-4.34s1.23-4.56,3.71-4.56a3.31,3.31,0,0,1,2.19.8v-3.14a1.16,1.16,0,1,1,2.31,0Zm-4.11-5.41c-1.2,0-1.8,1.27-1.8,2.36s.6,2.32,1.8,2.32,1.8-1.28,1.8-2.4S92.36,127.7,91.13,127.7Z"/><path class="cls-3" d="M98.41,130.81a2,2,0,0,0,2.17,1.66c1.19,0,2-.92,2.61-.92a1,1,0,0,1,1,1c0,1-2,2-3.77,2a4.2,4.2,0,0,1-4.32-4.43,4.15,4.15,0,1,1,8.28-.28c0,.69-.31,1-1,1Zm3.61-1.54a1.83,1.83,0,0,0-1.84-1.76,1.86,1.86,0,0,0-1.82,1.76Z"/><path class="cls-3" d="M117.3,132.89c0,.59,0,1.5-1.1,1.5-.67,0-1-.36-1.11-1a2.76,2.76,0,0,1-2.19,1.07c-2.16,0-3.81-1.84-3.81-4.43s1.7-4.47,3.81-4.47a2.63,2.63,0,0,1,2.19,1.06,1.1,1.1,0,0,1,1.11-1c1.1,0,1.1.91,1.1,1.5Zm-4.08-.51c1.2,0,1.78-1.22,1.78-2.32s-.56-2.36-1.78-2.36-1.82,1.25-1.82,2.36S112,132.38,113.22,132.38Z"/><path class="cls-3" d="M118,127.27a1.51,1.51,0,0,1-.12-.59,1.1,1.1,0,0,1,1.09-1,1.19,1.19,0,0,1,1.16.81l1.58,4.34,1.7-4.34a1.16,1.16,0,0,1,1.15-.81,1.1,1.1,0,0,1,1.09,1,1.35,1.35,0,0,1-.11.59l-3.86,9.61a1.26,1.26,0,0,1-1.09.91,1.07,1.07,0,0,1-1.2-1,2,2,0,0,1,.14-.68l1-2.49Z"/><path class="cls-3" d="M126.31,127a1.16,1.16,0,1,1,2.3,0v4.11a1.49,1.49,0,0,0,3,0V127a1.16,1.16,0,1,1,2.3,0v4.16c0,2.05-1.36,3.36-3.79,3.36s-3.79-1.31-3.79-3.36Z"/><path class="cls-3" d="M143.08,133.11a1.16,1.16,0,0,1-1.15,1.28,1.11,1.11,0,0,1-1.16-1,2.48,2.48,0,0,1-2.11,1.06c-2.32,0-3.79-2.16-3.79-4.34s1.23-4.56,3.71-4.56a3.31,3.31,0,0,1,2.19.8v-3.14a1.16,1.16,0,1,1,2.31,0ZM139,127.7c-1.21,0-1.8,1.27-1.8,2.36s.59,2.32,1.8,2.32,1.8-1.28,1.8-2.4S140.2,127.7,139,127.7Z"/><path class="cls-3" d="M152.26,132.89c0,.59,0,1.5-1.1,1.5-.67,0-.95-.36-1.11-1a2.76,2.76,0,0,1-2.19,1.07c-2.16,0-3.81-1.84-3.81-4.43s1.7-4.47,3.81-4.47a2.63,2.63,0,0,1,2.19,1.06,1.1,1.1,0,0,1,1.11-1c1.1,0,1.1.91,1.1,1.5Zm-4.08-.51c1.2,0,1.78-1.22,1.78-2.32s-.56-2.36-1.78-2.36-1.82,1.25-1.82,2.36S146.93,132.38,148.18,132.38Z"/><path class="cls-3" d="M46.36,205a1.18,1.18,0,0,1,1.23-1.24h2.66c3.58,0,5.63,2.31,5.63,5.86a5.18,5.18,0,0,1-5.47,5.54H47.62a1.17,1.17,0,0,1-1.26-1.2Zm2.4,7.95h1.61c2.07,0,3-1.52,3-3.44s-1-3.54-3.17-3.54H48.76Z"/><path class="cls-3" d="M64.89,211a4.14,4.14,0,1,1-8.26,0,4.14,4.14,0,1,1,8.26,0Zm-6,0c0,1.1.58,2.32,1.83,2.32s1.82-1.22,1.82-2.32-.56-2.36-1.82-2.36S58.93,209.84,58.93,211Z"/><path class="cls-3" d="M71.59,209c-.58,0-1.09-.45-1.82-.45-1.32,0-1.94,1.17-1.94,2.36a2.13,2.13,0,0,0,1.94,2.32,12.79,12.79,0,0,0,1.71-.48,1,1,0,0,1,1,1c0,1.18-2,1.58-2.82,1.58A4.19,4.19,0,0,1,65.52,211a4.29,4.29,0,0,1,4.13-4.47c.92,0,2.82.34,2.82,1.46C72.47,208.42,72.13,209,71.59,209Z"/><path class="cls-3" d="M73.27,207.86a1.16,1.16,0,1,1,2.3,0V212a1.49,1.49,0,1,0,3,0v-4.11a1.16,1.16,0,1,1,2.31,0V212c0,2-1.36,3.36-3.8,3.36s-3.79-1.31-3.79-3.36Z"/><path class="cls-3" d="M82.17,207.86a1.16,1.16,0,0,1,1.15-1.28,1,1,0,0,1,1.05.86,2.86,2.86,0,0,1,2.15-1,2.93,2.93,0,0,1,2.38,1.17,3.46,3.46,0,0,1,2.44-1.17,2.89,2.89,0,0,1,3.15,3.11V214a1.16,1.16,0,1,1-2.31,0v-4c0-.93-.51-1.59-1.34-1.59s-1.36.66-1.36,1.59v4a1.16,1.16,0,1,1-2.31,0v-4c0-.93-.51-1.59-1.34-1.59s-1.36.66-1.36,1.59v4a1.16,1.16,0,1,1-2.3,0Z"/><path class="cls-3" d="M97.65,211.7a2,2,0,0,0,2.18,1.67c1.18,0,2-.93,2.61-.93a1,1,0,0,1,.94,1c0,1-2,1.95-3.76,1.95A4.2,4.2,0,0,1,95.3,211a4.15,4.15,0,1,1,8.28-.27.89.89,0,0,1-1,1Zm3.62-1.54a1.83,1.83,0,0,0-1.84-1.76,1.86,1.86,0,0,0-1.82,1.76Z"/><path class="cls-3" d="M104.39,207.86a1.16,1.16,0,0,1,1.15-1.28,1,1,0,0,1,1.06.85,2.47,2.47,0,0,1,2.22-1,3,3,0,0,1,3.16,3.11V214a1.16,1.16,0,1,1-2.31,0v-4a1.49,1.49,0,1,0-3,0v4a1.16,1.16,0,1,1-2.3,0Z"/><path class="cls-3" d="M113.84,208.69h-.51a.94.94,0,0,1-1-1,1,1,0,0,1,1-1h.51V205.3a1.16,1.16,0,1,1,2.31,0v1.37h.66a1,1,0,1,1,0,2h-.66V214a1.16,1.16,0,1,1-2.31,0Z"/><path class="cls-3" d="M125.9,213.78c0,.59,0,1.51-1.11,1.51-.67,0-.94-.37-1.1-1a2.79,2.79,0,0,1-2.2,1.07c-2.16,0-3.81-1.84-3.81-4.43s1.7-4.47,3.81-4.47a2.66,2.66,0,0,1,2.2,1.06,1.09,1.09,0,0,1,1.1-1c1.11,0,1.11.91,1.11,1.5Zm-4.09-.51c1.2,0,1.78-1.22,1.78-2.32s-.56-2.36-1.78-2.36S120,209.84,120,211,120.57,213.27,121.81,213.27Z"/><path class="cls-3" d="M132.93,209c-.57,0-1.08-.45-1.82-.45-1.31,0-1.94,1.17-1.94,2.36a2.13,2.13,0,0,0,1.94,2.32,12.37,12.37,0,0,0,1.71-.48,1,1,0,0,1,1,1c0,1.18-2,1.58-2.81,1.58a4.19,4.19,0,0,1-4.13-4.43,4.29,4.29,0,0,1,4.13-4.47c.91,0,2.81.34,2.81,1.46C133.81,208.42,133.48,209,132.93,209Z"/><path class="cls-3" d="M137,204.39a1.31,1.31,0,0,1-1.3,1.32,1.34,1.34,0,0,1-1.29-1.32,1.3,1.3,0,0,1,2.59,0Zm-2.45,3.47a1.16,1.16,0,1,1,2.3,0V214a1.16,1.16,0,1,1-2.3,0Z"/><path class="cls-3" d="M146.09,211a4.14,4.14,0,1,1-8.26,0,4.14,4.14,0,1,1,8.26,0Zm-3.64-8a1.67,1.67,0,0,1,.61-.16,1,1,0,0,1,.87,1,.91.91,0,0,1-.66.94l-1.79.71c-.47.16-.32.16-.64.16-.48,0-.85-.61-.85-1.17a.78.78,0,0,1,.45-.64l.12-.06Zm-2.32,8c0,1.1.58,2.32,1.83,2.32s1.82-1.22,1.82-2.32-.56-2.36-1.82-2.36S140.13,209.84,140.13,211Z"/><path class="cls-3" d="M147.06,207.86a1.16,1.16,0,0,1,1.15-1.28,1,1,0,0,1,1.06.85,2.47,2.47,0,0,1,2.22-1,3,3,0,0,1,3.16,3.11V214a1.16,1.16,0,1,1-2.31,0v-4a1.49,1.49,0,1,0-3,0v4a1.16,1.16,0,1,1-2.3,0Z"/><path class="cls-3" d="M159.67,208.16a1.47,1.47,0,0,1-.12-.59,1.1,1.1,0,0,1,1.09-1,1.19,1.19,0,0,1,1.16.81l1.58,4.34,1.7-4.34a1.16,1.16,0,0,1,1.15-.81,1.1,1.1,0,0,1,1.09,1,1.32,1.32,0,0,1-.11.59l-3.86,9.61a1.24,1.24,0,0,1-1.09.91,1.07,1.07,0,0,1-1.2-1,2,2,0,0,1,.14-.68l1-2.49Z"/><path class="cls-3" d="M46.29,220.15a1.16,1.16,0,1,1,2.31,0v3.13a3.32,3.32,0,0,1,2.19-.8c2.48,0,3.71,2.32,3.71,4.56s-1.47,4.34-3.79,4.34a2.51,2.51,0,0,1-2.11-1,1.11,1.11,0,0,1-1.15,1A1.17,1.17,0,0,1,46.29,230Zm4.12,9.12c1.2,0,1.79-1.25,1.79-2.32s-.59-2.36-1.79-2.36-1.81,1.16-1.81,2.28S49.14,229.27,50.41,229.27Z"/><path class="cls-3" d="M55.48,223.86a1.16,1.16,0,1,1,2.3,0V228a1.49,1.49,0,1,0,3,0v-4.11a1.16,1.16,0,1,1,2.3,0V228c0,2-1.36,3.36-3.79,3.36s-3.79-1.31-3.79-3.36Z"/><path class="cls-3" d="M66.23,227.7a2,2,0,0,0,2.18,1.67c1.18,0,2-.93,2.61-.93a1,1,0,0,1,.94,1c0,1-2,1.95-3.76,1.95A4.2,4.2,0,0,1,63.88,227a4.14,4.14,0,1,1,8.27-.27c0,.68-.3,1-1,1Zm3.62-1.54A1.83,1.83,0,0,0,68,224.4a1.86,1.86,0,0,0-1.83,1.76Z"/><path class="cls-3" d="M73,223.86a1.16,1.16,0,0,1,1.16-1.28,1,1,0,0,1,1,.85,2.49,2.49,0,0,1,2.23-1,3,3,0,0,1,3.15,3.11V230a1.16,1.16,0,1,1-2.3,0v-4a1.49,1.49,0,1,0-3,0v4A1.16,1.16,0,1,1,73,230Z"/><path class="cls-3" d="M89.74,229.78c0,.59,0,1.51-1.11,1.51-.67,0-.94-.37-1.1-1a2.79,2.79,0,0,1-2.2,1.07c-2.16,0-3.81-1.84-3.81-4.43s1.7-4.47,3.81-4.47a2.66,2.66,0,0,1,2.2,1.06,1.09,1.09,0,0,1,1.1-1c1.11,0,1.11.91,1.11,1.5Zm-4.09-.51c1.2,0,1.78-1.22,1.78-2.32s-.56-2.36-1.78-2.36-1.82,1.25-1.82,2.36S84.41,229.27,85.65,229.27Z"/><path class="cls-3" d="M95.89,225.17c-.43,0-1.31-.67-2.06-.67-.42,0-.79.19-.79.64,0,1.07,4,.91,4,3.54,0,1.53-1.3,2.7-3.28,2.7-1.3,0-3.22-.73-3.22-1.77a1.08,1.08,0,0,1,1-1c.9,0,1.3.79,2.39.79.7,0,.91-.23.91-.66,0-1.06-4-.9-4-3.54,0-1.6,1.29-2.69,3.12-2.69,1.13,0,2.88.53,2.88,1.67A1,1,0,0,1,95.89,225.17Z"/><path class="cls-3" d="M102.15,223.86a1.16,1.16,0,0,1,1.15-1.28,1.1,1.1,0,0,1,1.15,1,2.56,2.56,0,0,1,2.2-1.06c2.48,0,3.71,2.32,3.71,4.56s-1.47,4.34-3.79,4.34a3.3,3.3,0,0,1-2.12-.8v2.82a1.16,1.16,0,1,1-2.3,0Zm4.11,5.41c1.2,0,1.79-1.25,1.79-2.32s-.59-2.36-1.79-2.36-1.81,1.16-1.81,2.28S105,229.27,106.26,229.27Z"/><path class="cls-3" d="M111.3,223.73a1.13,1.13,0,0,1,1.18-1.15c.61,0,1.12.22,1.12,1h0a1.81,1.81,0,0,1,1.61-1,1.12,1.12,0,0,1,1.12,1.23c0,.75-.68.8-1.37,1.12s-1.4.63-1.4,1.54V230a1.16,1.16,0,1,1-2.3,0Z"/><path class="cls-3" d="M124.54,229.78c0,.59,0,1.51-1.11,1.51-.67,0-.94-.37-1.1-1a2.79,2.79,0,0,1-2.2,1.07c-2.16,0-3.81-1.84-3.81-4.43s1.7-4.47,3.81-4.47a2.66,2.66,0,0,1,2.2,1.06,1.09,1.09,0,0,1,1.1-1c1.11,0,1.11.91,1.11,1.5ZM121.09,219a1.67,1.67,0,0,1,.61-.16,1,1,0,0,1,.87,1,.91.91,0,0,1-.66.94l-1.79.71c-.47.16-.32.16-.64.16-.48,0-.85-.61-.85-1.17a.76.76,0,0,1,.45-.64l.13-.06Zm-.64,10.29c1.2,0,1.78-1.22,1.78-2.32s-.56-2.36-1.78-2.36-1.82,1.25-1.82,2.36S119.21,229.27,120.45,229.27Z"/><path class="cls-3" d="M131.57,225c-.57,0-1.08-.45-1.82-.45-1.31,0-1.94,1.17-1.94,2.36a2.13,2.13,0,0,0,1.94,2.32,12.37,12.37,0,0,0,1.71-.48,1,1,0,0,1,1,1c0,1.18-2,1.58-2.81,1.58a4.19,4.19,0,0,1-4.13-4.43,4.29,4.29,0,0,1,4.13-4.47c.91,0,2.81.34,2.81,1.46C132.45,224.42,132.12,225,131.57,225Z"/><path class="cls-3" d="M133.81,224.69h-.51a.94.94,0,0,1-1-1,1,1,0,0,1,1-1h.51V221.3a1.16,1.16,0,1,1,2.31,0v1.37h.65a1,1,0,1,1,0,2h-.65V230a1.16,1.16,0,1,1-2.31,0Z"/><path class="cls-3" d="M140.4,220.39a1.31,1.31,0,0,1-1.29,1.32,1.35,1.35,0,0,1-1.3-1.32,1.33,1.33,0,0,1,1.3-1.27A1.31,1.31,0,0,1,140.4,220.39ZM138,223.86a1.16,1.16,0,1,1,2.3,0V230a1.16,1.16,0,1,1-2.3,0Z"/><path class="cls-3" d="M147.27,225c-.58,0-1.09-.45-1.83-.45-1.31,0-1.93,1.17-1.93,2.36a2.13,2.13,0,0,0,1.93,2.32,13,13,0,0,0,1.72-.48,1,1,0,0,1,1,1c0,1.18-2,1.58-2.82,1.58A4.19,4.19,0,0,1,141.2,227a4.29,4.29,0,0,1,4.13-4.47c.92,0,2.82.34,2.82,1.46C148.15,224.42,147.81,225,147.27,225Z"/><path class="cls-3" d="M156.82,229.78c0,.59,0,1.51-1.1,1.51-.67,0-.95-.37-1.11-1a2.76,2.76,0,0,1-2.19,1.07c-2.16,0-3.81-1.84-3.81-4.43s1.7-4.47,3.81-4.47a2.63,2.63,0,0,1,2.19,1.06,1.1,1.1,0,0,1,1.11-1c1.1,0,1.1.91,1.1,1.5Zm-4.08-.51c1.2,0,1.78-1.22,1.78-2.32s-.56-2.36-1.78-2.36-1.82,1.25-1.82,2.36S151.49,229.27,152.74,229.27Z"/><path class="cls-3" d="M163,225.17c-.43,0-1.31-.67-2.06-.67-.42,0-.79.19-.79.64,0,1.07,4,.91,4,3.54,0,1.53-1.29,2.7-3.28,2.7-1.29,0-3.22-.73-3.22-1.77a1.09,1.09,0,0,1,1-1c.89,0,1.29.79,2.38.79.71,0,.91-.23.91-.66,0-1.06-4-.9-4-3.54,0-1.6,1.3-2.69,3.12-2.69,1.14,0,2.88.53,2.88,1.67A1,1,0,0,1,163,225.17Z"/><path class="cls-4" d="M47.08,256a1.18,1.18,0,0,1,1.23-1.23H51c3.58,0,5.63,2.31,5.63,5.86a5.18,5.18,0,0,1-5.47,5.54H48.34a1.17,1.17,0,0,1-1.26-1.2Zm2.4,8h1.61c2.07,0,3-1.52,3-3.44s-1-3.54-3.17-3.54H49.48Z"/><path class="cls-4" d="M60.1,255.38a1.31,1.31,0,0,1-1.3,1.32,1.35,1.35,0,0,1-1.29-1.32,1.3,1.3,0,0,1,2.59,0Zm-2.45,3.47a1.16,1.16,0,1,1,2.31,0V265a1.16,1.16,0,1,1-2.31,0Z"/><path class="cls-4" d="M60.71,259.36a1.74,1.74,0,0,1-.15-.67,1.11,1.11,0,0,1,1.2-1.12,1.05,1.05,0,0,1,1,.81l1.47,4.55h0l1.48-4.55a1,1,0,0,1,1-.81,1.11,1.11,0,0,1,1.2,1.12,1.71,1.71,0,0,1-.14.67l-2.32,5.95c-.23.6-.47,1-1.25,1s-1-.37-1.25-1Z"/><path class="cls-4" d="M68.63,258.85a1.16,1.16,0,1,1,2.3,0V263a1.49,1.49,0,1,0,3,0v-4.11a1.16,1.16,0,1,1,2.3,0V263c0,2.05-1.36,3.36-3.79,3.36s-3.79-1.31-3.79-3.36Z"/><path class="cls-4" d="M77.49,255.13a1.16,1.16,0,1,1,2.31,0V265a1.16,1.16,0,1,1-2.31,0Z"/><path class="cls-4" d="M89,265.51c0,2.77-1.81,4.16-4.43,4.16-1,0-3.64-.47-3.64-1.73a1.13,1.13,0,0,1,.93-1c.74,0,1.56.72,2.88.72a1.78,1.78,0,0,0,2-1.82v-.55h0a2.62,2.62,0,0,1-2.32,1.09c-2.41,0-3.55-2.13-3.55-4.42s1.47-4.48,3.79-4.48a2.51,2.51,0,0,1,2.12,1.06,1.1,1.1,0,0,1,1.15-1A1.16,1.16,0,0,1,89,258.85Zm-4.11-5.93c-1.2,0-1.8,1.25-1.8,2.33s.6,2.35,1.8,2.35,1.81-1.15,1.81-2.27S86.1,259.58,84.84,259.58Z"/><path class="cls-4" d="M98.13,264.77c0,.59,0,1.51-1.1,1.51-.67,0-.94-.37-1.1-1a2.79,2.79,0,0,1-2.2,1.07c-2.16,0-3.81-1.84-3.81-4.43s1.7-4.47,3.81-4.47a2.66,2.66,0,0,1,2.2,1.06,1.09,1.09,0,0,1,1.1-1c1.1,0,1.1.91,1.1,1.5Zm-4.08-.51c1.2,0,1.78-1.22,1.78-2.32s-.56-2.36-1.78-2.36-1.82,1.25-1.82,2.36S92.8,264.26,94.05,264.26Z"/><path class="cls-4" d="M105.17,260c-.57,0-1.08-.45-1.82-.45-1.31,0-1.94,1.17-1.94,2.36a2.13,2.13,0,0,0,1.94,2.32,12.79,12.79,0,0,0,1.71-.48,1,1,0,0,1,1,1c0,1.18-2,1.58-2.81,1.58a4.19,4.19,0,0,1-4.13-4.43,4.29,4.29,0,0,1,4.13-4.47c.91,0,2.81.34,2.81,1.46C106.05,259.41,105.72,260,105.17,260Z"/><path class="cls-4" d="M109.27,255.38a1.32,1.32,0,0,1-1.3,1.32,1.35,1.35,0,0,1-1.3-1.32,1.33,1.33,0,0,1,1.3-1.27A1.32,1.32,0,0,1,109.27,255.38Zm-2.45,3.47a1.16,1.16,0,1,1,2.3,0V265a1.16,1.16,0,1,1-2.3,0Z"/><path class="cls-4" d="M118.33,261.94a4.14,4.14,0,1,1-8.26,0,4.14,4.14,0,1,1,8.26,0Zm-3.64-8a1.67,1.67,0,0,1,.61-.16,1,1,0,0,1,.87,1,.91.91,0,0,1-.66.94l-1.79.71c-.47.16-.32.16-.64.16-.48,0-.85-.61-.85-1.17a.76.76,0,0,1,.45-.64l.12-.07Zm-2.32,8c0,1.1.58,2.32,1.83,2.32S116,263,116,261.94s-.56-2.36-1.82-2.36S112.37,260.83,112.37,261.94Z"/><path class="cls-4" d="M119.3,258.85a1.16,1.16,0,0,1,1.15-1.28,1,1,0,0,1,1.06.85,2.47,2.47,0,0,1,2.22-.95,3,3,0,0,1,3.16,3.11V265a1.16,1.16,0,1,1-2.31,0v-4a1.43,1.43,0,0,0-1.5-1.59A1.45,1.45,0,0,0,121.6,261v4a1.16,1.16,0,1,1-2.3,0Z"/><path class="cls-4" d="M131.91,259.15a1.47,1.47,0,0,1-.12-.59,1.1,1.1,0,0,1,1.09-1,1.19,1.19,0,0,1,1.16.81l1.58,4.34,1.7-4.34a1.16,1.16,0,0,1,1.15-.81,1.1,1.1,0,0,1,1.09,1,1.32,1.32,0,0,1-.11.59l-3.86,9.61a1.24,1.24,0,0,1-1.09.91,1.07,1.07,0,0,1-1.2-1,2,2,0,0,1,.14-.68l1-2.49Z"/><path class="cls-4" d="M52.74,276c-.57,0-1.09-.45-1.82-.45-1.31,0-1.94,1.17-1.94,2.36a2.13,2.13,0,0,0,1.94,2.32,12.79,12.79,0,0,0,1.71-.48,1,1,0,0,1,1,1c0,1.18-2,1.58-2.81,1.58a4.19,4.19,0,0,1-4.13-4.43,4.29,4.29,0,0,1,4.13-4.47c.91,0,2.81.34,2.81,1.46C53.62,275.41,53.29,276,52.74,276Z"/><path class="cls-4" d="M62.34,277.94a4.14,4.14,0,1,1-8.25,0,4.14,4.14,0,1,1,8.25,0Zm-6,0c0,1.1.58,2.32,1.82,2.32S60,279,60,277.94s-.56-2.36-1.83-2.36S56.39,276.83,56.39,277.94Z"/><path class="cls-4" d="M63.32,274.85a1.16,1.16,0,0,1,1.15-1.28,1,1,0,0,1,1.06.86,2.84,2.84,0,0,1,2.14-1,2.92,2.92,0,0,1,2.38,1.17,3.48,3.48,0,0,1,2.44-1.17,2.89,2.89,0,0,1,3.15,3.11V281a1.16,1.16,0,1,1-2.3,0v-4A1.4,1.4,0,0,0,72,275.39c-.85,0-1.36.66-1.36,1.59v4a1.16,1.16,0,1,1-2.3,0v-4A1.4,1.4,0,0,0,67,275.39c-.94,0-1.36.66-1.36,1.59v4a1.16,1.16,0,1,1-2.3,0Z"/><path class="cls-4" d="M77,274.85a1.16,1.16,0,1,1,2.3,0V279a1.49,1.49,0,0,0,3,0v-4.11a1.16,1.16,0,1,1,2.31,0V279c0,2.05-1.37,3.36-3.8,3.36S77,281.06,77,279Z"/><path class="cls-4" d="M85.84,274.85A1.16,1.16,0,0,1,87,273.57a1,1,0,0,1,1,.85,2.49,2.49,0,0,1,2.23-.95,3,3,0,0,1,3.15,3.11V281a1.16,1.16,0,1,1-2.3,0v-4a1.49,1.49,0,1,0-3,0v4a1.16,1.16,0,1,1-2.31,0Z"/><path class="cls-4" d="M97.16,271.38a1.32,1.32,0,0,1-1.3,1.32,1.35,1.35,0,0,1-1.3-1.32,1.33,1.33,0,0,1,1.3-1.27A1.32,1.32,0,0,1,97.16,271.38Zm-2.45,3.47a1.16,1.16,0,1,1,2.3,0V281a1.16,1.16,0,1,1-2.3,0Z"/><path class="cls-4" d="M104,276c-.57,0-1.09-.45-1.82-.45-1.32,0-1.94,1.17-1.94,2.36a2.13,2.13,0,0,0,1.94,2.32,12.79,12.79,0,0,0,1.71-.48,1,1,0,0,1,1,1c0,1.18-2,1.58-2.81,1.58A4.18,4.18,0,0,1,98,277.94a4.29,4.29,0,0,1,4.13-4.47c.91,0,2.81.34,2.81,1.46C104.9,275.41,104.57,276,104,276Z"/><path class="cls-4" d="M113.58,280.77c0,.59,0,1.51-1.11,1.51-.67,0-.94-.37-1.1-1a2.79,2.79,0,0,1-2.2,1.07c-2.16,0-3.81-1.84-3.81-4.43s1.7-4.47,3.81-4.47a2.66,2.66,0,0,1,2.2,1.06,1.09,1.09,0,0,1,1.1-1c1.11,0,1.11.91,1.11,1.5Zm-4.09-.51c1.2,0,1.78-1.22,1.78-2.32s-.56-2.36-1.78-2.36-1.82,1.25-1.82,2.36S108.25,280.26,109.49,280.26Z"/><path class="cls-4" d="M120.61,276c-.57,0-1.08-.45-1.82-.45-1.31,0-1.94,1.17-1.94,2.36a2.13,2.13,0,0,0,1.94,2.32,12.37,12.37,0,0,0,1.71-.48,1,1,0,0,1,1,1c0,1.18-2,1.58-2.81,1.58a4.19,4.19,0,0,1-4.13-4.43,4.29,4.29,0,0,1,4.13-4.47c.91,0,2.81.34,2.81,1.46C121.49,275.41,121.16,276,120.61,276Z"/><path class="cls-4" d="M124.71,271.38a1.32,1.32,0,0,1-1.3,1.32,1.34,1.34,0,0,1-1.29-1.32,1.3,1.3,0,0,1,2.59,0Zm-2.45,3.47a1.16,1.16,0,1,1,2.3,0V281a1.16,1.16,0,1,1-2.3,0Z"/><path class="cls-4" d="M133.77,277.94a4.14,4.14,0,1,1-8.26,0,4.14,4.14,0,1,1,8.26,0Zm-6,0c0,1.1.58,2.32,1.83,2.32s1.82-1.22,1.82-2.32-.56-2.36-1.82-2.36S127.81,276.83,127.81,277.94Z"/><path class="cls-4" d="M134.74,274.85a1.16,1.16,0,0,1,1.15-1.28,1,1,0,0,1,1.06.85,2.48,2.48,0,0,1,2.22-.95,3,3,0,0,1,3.16,3.11V281a1.16,1.16,0,1,1-2.31,0v-4a1.43,1.43,0,0,0-1.5-1.59A1.45,1.45,0,0,0,137,277v4a1.16,1.16,0,1,1-2.3,0Z"/><path class="cls-4" d="M145.49,278.69a2,2,0,0,0,2.18,1.66c1.18,0,2-.92,2.61-.92a1,1,0,0,1,.94,1c0,1-2.05,1.95-3.76,1.95a4.2,4.2,0,0,1-4.32-4.43,4.15,4.15,0,1,1,8.28-.27.89.89,0,0,1-1,1Zm3.62-1.54a1.83,1.83,0,0,0-1.84-1.76,1.87,1.87,0,0,0-1.83,1.76Z"/><path class="cls-4" d="M157.08,276.16c-.43,0-1.32-.67-2.07-.67-.41,0-.78.19-.78.64,0,1.07,4,.91,4,3.54,0,1.53-1.3,2.7-3.28,2.7-1.3,0-3.22-.74-3.22-1.78a1.08,1.08,0,0,1,1-1c.9,0,1.3.78,2.39.78.7,0,.91-.22.91-.65,0-1.06-4-.9-4-3.54,0-1.6,1.3-2.69,3.12-2.69,1.14,0,2.88.53,2.88,1.67A1,1,0,0,1,157.08,276.16Z"/><path class="cls-3" d="M52.07,302.52c1.17,0,3.44.38,3.44,1.79a1,1,0,0,1-1,1.07c-.66,0-1.1-.56-2.45-.56-2,0-3,1.68-3,3.63s1,3.54,3,3.54c1.35,0,1.89-.67,2.55-.67a1.12,1.12,0,0,1,1.05,1.09c0,1.53-2.42,1.89-3.6,1.89-3.25,0-5.51-2.58-5.51-5.89S48.81,302.52,52.07,302.52Z"/><path class="cls-3" d="M64.6,312.7c0,.59,0,1.5-1.1,1.5-.68,0-1-.37-1.11-1a2.74,2.74,0,0,1-2.19,1.08c-2.16,0-3.81-1.84-3.81-4.44s1.7-4.46,3.81-4.46a2.62,2.62,0,0,1,2.19,1.05,1.1,1.1,0,0,1,1.11-1c1.1,0,1.1.92,1.1,1.51Zm-4.08-.52c1.2,0,1.77-1.21,1.77-2.32s-.56-2.35-1.77-2.35-1.83,1.25-1.83,2.35S59.27,312.18,60.52,312.18Z"/><path class="cls-3" d="M65.91,306.77a1.17,1.17,0,0,1,1.15-1.28,1.1,1.1,0,0,1,1.15,1,2.58,2.58,0,0,1,2.2-1.05c2.48,0,3.71,2.32,3.71,4.56s-1.47,4.34-3.79,4.34a3.35,3.35,0,0,1-2.12-.8v2.81a1.16,1.16,0,1,1-2.3,0ZM70,312.18c1.2,0,1.79-1.25,1.79-2.32s-.59-2.35-1.79-2.35-1.81,1.15-1.81,2.27S68.76,312.18,70,312.18Z"/><path class="cls-3" d="M83,312.7c0,.59,0,1.5-1.11,1.5-.67,0-.94-.37-1.1-1a2.74,2.74,0,0,1-2.19,1.08c-2.17,0-3.81-1.84-3.81-4.44s1.69-4.46,3.81-4.46a2.63,2.63,0,0,1,2.19,1.05,1.09,1.09,0,0,1,1.1-1c1.11,0,1.11.92,1.11,1.51Zm-4.08-.52c1.2,0,1.77-1.21,1.77-2.32s-.56-2.35-1.77-2.35-1.83,1.25-1.83,2.35S77.64,312.18,78.89,312.18Z"/><path class="cls-3" d="M90,308c-.58,0-1.09-.45-1.83-.45-1.31,0-1.94,1.17-1.94,2.35a2.12,2.12,0,0,0,1.94,2.32,12.37,12.37,0,0,0,1.71-.48,1,1,0,0,1,1,1c0,1.19-2,1.59-2.82,1.59a4.2,4.2,0,0,1-4.13-4.44,4.29,4.29,0,0,1,4.13-4.46c.91,0,2.82.33,2.82,1.45C90.89,307.33,90.55,308,90,308Z"/><path class="cls-3" d="M94.1,303.3a1.32,1.32,0,0,1-1.3,1.33,1.36,1.36,0,0,1-1.29-1.33,1.3,1.3,0,0,1,2.59,0Zm-2.45,3.47a1.16,1.16,0,1,1,2.31,0v6.15a1.16,1.16,0,1,1-2.31,0Z"/><path class="cls-3" d="M95.8,307.61h-.52a.93.93,0,0,1-1-1,1,1,0,0,1,1-1h.52v-1.38a1.16,1.16,0,1,1,2.3,0v1.38h.66a1,1,0,0,1,1.1,1,1,1,0,0,1-1.1,1H98.1v5.31a1.16,1.16,0,1,1-2.3,0Z"/><path class="cls-3" d="M107.85,312.7c0,.59,0,1.5-1.11,1.5-.67,0-.94-.37-1.1-1a2.74,2.74,0,0,1-2.19,1.08c-2.17,0-3.81-1.84-3.81-4.44s1.69-4.46,3.81-4.46a2.63,2.63,0,0,1,2.19,1.05,1.09,1.09,0,0,1,1.1-1c1.11,0,1.11.92,1.11,1.51Zm-4.09-.52c1.21,0,1.78-1.21,1.78-2.32s-.56-2.35-1.78-2.35-1.82,1.25-1.82,2.35S102.52,312.18,103.76,312.18Z"/><path class="cls-3" d="M114.89,308c-.58,0-1.09-.45-1.83-.45-1.31,0-1.94,1.17-1.94,2.35a2.12,2.12,0,0,0,1.94,2.32,12.37,12.37,0,0,0,1.71-.48,1,1,0,0,1,1,1c0,1.19-2,1.59-2.82,1.59a4.2,4.2,0,0,1-4.13-4.44A4.29,4.29,0,0,1,113,305.4c.91,0,2.82.33,2.82,1.45C115.77,307.33,115.43,308,114.89,308Z"/><path class="cls-3" d="M119,303.3a1.32,1.32,0,0,1-1.3,1.33,1.36,1.36,0,0,1-1.29-1.33,1.3,1.3,0,0,1,2.59,0Zm-2.45,3.47a1.16,1.16,0,1,1,2.31,0v6.15a1.16,1.16,0,1,1-2.31,0Z"/><path class="cls-3" d="M128,309.86a4.14,4.14,0,1,1-8.26,0,4.14,4.14,0,1,1,8.26,0Zm-3.64-8a1.9,1.9,0,0,1,.61-.16,1,1,0,0,1,.87,1,.92.92,0,0,1-.66.95l-1.79.7c-.47.16-.32.16-.64.16-.48,0-.85-.61-.85-1.17a.8.8,0,0,1,.45-.64l.13-.06Zm-2.32,8c0,1.11.58,2.32,1.83,2.32s1.82-1.21,1.82-2.32-.56-2.35-1.82-2.35S122.08,308.76,122.08,309.86Z"/><path class="cls-3" d="M129,306.77a1.17,1.17,0,0,1,1.15-1.28,1,1,0,0,1,1.06.85,2.5,2.5,0,0,1,2.22-.94,3,3,0,0,1,3.16,3.1v4.42a1.16,1.16,0,1,1-2.31,0v-4a1.49,1.49,0,1,0-3,0v4a1.16,1.16,0,1,1-2.31,0Z"/><path class="cls-3" d="M47,322.77a1.17,1.17,0,0,1,1.15-1.28,1.1,1.1,0,0,1,1.15,1,2.58,2.58,0,0,1,2.2-1.05c2.48,0,3.71,2.32,3.71,4.56s-1.47,4.34-3.79,4.34a3.35,3.35,0,0,1-2.12-.8v2.81a1.16,1.16,0,1,1-2.3,0Zm4.11,5.41c1.2,0,1.79-1.25,1.79-2.32s-.59-2.35-1.79-2.35-1.81,1.15-1.81,2.27S49.8,328.18,51.06,328.18Z"/><path class="cls-3" d="M58,326.62a2,2,0,0,0,2.18,1.66c1.18,0,2-.93,2.6-.93a1,1,0,0,1,.95,1c0,1-2,2-3.76,2a4.2,4.2,0,0,1-4.32-4.44,4.14,4.14,0,1,1,8.27-.27c0,.69-.3,1-1,1Zm3.62-1.54a1.83,1.83,0,0,0-1.84-1.76,1.85,1.85,0,0,0-1.83,1.76Z"/><path class="cls-3" d="M64.69,322.65a1.14,1.14,0,0,1,1.19-1.16c.6,0,1.12.23,1.12,1h0a1.81,1.81,0,0,1,1.62-1,1.13,1.13,0,0,1,1.12,1.24c0,.75-.69.8-1.38,1.12s-1.39.62-1.39,1.53v3.54a1.16,1.16,0,1,1-2.31,0Z"/><path class="cls-3" d="M70.34,322.77a1.17,1.17,0,0,1,1.15-1.28,1,1,0,0,1,1.06.87,2.86,2.86,0,0,1,2.14-1,3,3,0,0,1,2.39,1.17,3.46,3.46,0,0,1,2.43-1.17,2.89,2.89,0,0,1,3.16,3.1v4.42a1.16,1.16,0,1,1-2.31,0v-4c0-.93-.51-1.58-1.34-1.58s-1.36.65-1.36,1.58v4a1.16,1.16,0,1,1-2.31,0v-4c0-.93-.51-1.58-1.34-1.58s-1.36.65-1.36,1.58v4a1.16,1.16,0,1,1-2.31,0Z"/><path class="cls-3" d="M91.85,328.7c0,.59,0,1.5-1.11,1.5-.67,0-.94-.37-1.1-1a2.74,2.74,0,0,1-2.19,1.08c-2.17,0-3.81-1.84-3.81-4.44s1.69-4.46,3.81-4.46a2.63,2.63,0,0,1,2.19,1.05,1.09,1.09,0,0,1,1.1-1c1.11,0,1.11.92,1.11,1.51Zm-4.08-.52c1.2,0,1.77-1.21,1.77-2.32s-.56-2.35-1.77-2.35-1.83,1.25-1.83,2.35S86.52,328.18,87.77,328.18Z"/><path class="cls-3" d="M93.16,322.77a1.17,1.17,0,0,1,1.15-1.28,1,1,0,0,1,1,.85,2.51,2.51,0,0,1,2.23-.94,3,3,0,0,1,3.15,3.1v4.42a1.16,1.16,0,1,1-2.3,0v-4a1.49,1.49,0,1,0-3,0v4a1.16,1.16,0,1,1-2.3,0Z"/><path class="cls-3" d="M103.91,326.62a2,2,0,0,0,2.18,1.66c1.18,0,2-.93,2.6-.93a1,1,0,0,1,1,1c0,1-2,2-3.76,2a4.2,4.2,0,0,1-4.32-4.44,4.14,4.14,0,1,1,8.27-.27c0,.69-.3,1-1,1Zm3.62-1.54a1.83,1.83,0,0,0-1.85-1.76,1.85,1.85,0,0,0-1.82,1.76Z"/><path class="cls-3" d="M110.64,322.77a1.17,1.17,0,0,1,1.16-1.28,1,1,0,0,1,1,.85,2.51,2.51,0,0,1,2.23-.94,3,3,0,0,1,3.15,3.1v4.42a1.16,1.16,0,1,1-2.3,0v-4a1.49,1.49,0,1,0-3,0v4a1.16,1.16,0,1,1-2.31,0Z"/><path class="cls-3" d="M120.1,323.61h-.51a.94.94,0,0,1-1-1,1,1,0,0,1,1-1h.51v-1.38a1.16,1.16,0,1,1,2.3,0v1.38h.66c.59,0,1.11.27,1.11,1a1,1,0,0,1-1.11,1h-.66v5.31a1.16,1.16,0,1,1-2.3,0Z"/><path class="cls-3" d="M126.13,326.62a2,2,0,0,0,2.18,1.66c1.18,0,2-.93,2.61-.93a1,1,0,0,1,.94,1c0,1-2.05,2-3.76,2a4.2,4.2,0,0,1-4.32-4.44,4.14,4.14,0,1,1,8.27-.27c0,.69-.3,1-1,1Zm3.62-1.54a1.83,1.83,0,0,0-1.84-1.76,1.86,1.86,0,0,0-1.83,1.76Z"/><path class="cls-3" d="M45.64,156.55a1.15,1.15,0,0,1,1.25-1.24h2.83a3.81,3.81,0,0,1,4.1,3.82,3.76,3.76,0,0,1-4,3.79H48v2.63a1.2,1.2,0,1,1-2.4,0Zm2.4,4.26h1.63a1.7,1.7,0,0,0,0-3.39H48Z"/><path class="cls-3" d="M56.33,163.21a2,2,0,0,0,2.17,1.67c1.19,0,2-.93,2.61-.93a1,1,0,0,1,1,1c0,1-2.05,1.95-3.77,1.95A4.19,4.19,0,0,1,54,162.46a4.15,4.15,0,1,1,8.28-.27c0,.69-.31,1-1,1Zm3.61-1.53a1.82,1.82,0,0,0-1.84-1.76,1.85,1.85,0,0,0-1.82,1.76Z"/><path class="cls-3" d="M63,159.24a1.13,1.13,0,0,1,1.18-1.15c.61,0,1.12.22,1.12,1h0a1.81,1.81,0,0,1,1.61-1,1.12,1.12,0,0,1,1.12,1.23c0,.76-.68.8-1.37,1.12s-1.4.63-1.4,1.54v3.54a1.16,1.16,0,1,1-2.3,0Z"/><path class="cls-3" d="M68.92,160.2H68.4a.92.92,0,0,1-1-1,1,1,0,0,1,1-1h.52V157a2.34,2.34,0,0,1,2.41-2.62c.82,0,1.6.24,1.6,1s-.3,1-.94,1c-.38,0-.77,0-.77.85v.95h.72c.69,0,1.17.27,1.17,1s-.5,1-1.17,1h-.72v5.32a1.16,1.16,0,1,1-2.3,0Z"/><path class="cls-3" d="M75.54,155.9a1.31,1.31,0,0,1-1.29,1.33A1.36,1.36,0,0,1,73,155.9a1.3,1.3,0,0,1,2.59,0Zm-2.45,3.47a1.16,1.16,0,1,1,2.31,0v6.15a1.16,1.16,0,1,1-2.31,0Z"/><path class="cls-3" d="M76.64,155.66a1.16,1.16,0,1,1,2.31,0v9.86a1.16,1.16,0,1,1-2.31,0Z"/><path class="cls-3" d="M82.09,163.21a2,2,0,0,0,2.17,1.67c1.19,0,2-.93,2.61-.93a1,1,0,0,1,.95,1c0,1-2,1.95-3.77,1.95a4.19,4.19,0,0,1-4.32-4.43,4.15,4.15,0,1,1,8.28-.27c0,.69-.31,1-1,1Zm3.61-1.53a1.83,1.83,0,0,0-1.84-1.76A1.85,1.85,0,0,0,82,161.68Z"/><path class="cls-3" d="M93.67,160.68c-.43,0-1.31-.67-2.06-.67-.42,0-.79.19-.79.64,0,1.07,4,.91,4,3.54,0,1.54-1.29,2.7-3.28,2.7-1.29,0-3.22-.73-3.22-1.77a1.09,1.09,0,0,1,1-1c.89,0,1.29.79,2.38.79.71,0,.91-.23.91-.66,0-1.06-4-.9-4-3.54,0-1.6,1.3-2.69,3.12-2.69,1.14,0,2.88.53,2.88,1.67A1,1,0,0,1,93.67,160.68Z"/><path class="cls-3" d="M107.8,165.52a1.16,1.16,0,0,1-1.15,1.28,1.11,1.11,0,0,1-1.16-1,2.5,2.5,0,0,1-2.11,1c-2.32,0-3.79-2.16-3.79-4.33s1.23-4.57,3.71-4.57a3.31,3.31,0,0,1,2.19.81v-3.14a1.16,1.16,0,1,1,2.31,0Zm-4.11-5.41c-1.21,0-1.8,1.26-1.8,2.35s.59,2.32,1.8,2.32,1.8-1.28,1.8-2.4S104.92,160.11,103.69,160.11Z"/><path class="cls-3" d="M111,163.21a2,2,0,0,0,2.18,1.67c1.19,0,2-.93,2.61-.93a1,1,0,0,1,.94,1c0,1-2,1.95-3.76,1.95a4.19,4.19,0,0,1-4.32-4.43,4.15,4.15,0,1,1,8.28-.27c0,.69-.31,1-1,1Zm3.62-1.53a1.83,1.83,0,0,0-1.84-1.76,1.85,1.85,0,0,0-1.82,1.76Z"/><path class="cls-3" d="M45.57,175.37a1.16,1.16,0,1,1,2.31,0v4.11a1.49,1.49,0,0,0,3,0v-4.11a1.16,1.16,0,1,1,2.3,0v4.16c0,2.05-1.36,3.36-3.79,3.36s-3.8-1.31-3.8-3.36Z"/><path class="cls-3" d="M59.32,176.68c-.43,0-1.31-.67-2.07-.67-.41,0-.78.19-.78.64,0,1.07,4,.91,4,3.54,0,1.54-1.3,2.7-3.28,2.7-1.3,0-3.22-.73-3.22-1.77a1.09,1.09,0,0,1,1-1c.9,0,1.3.79,2.39.79.7,0,.91-.23.91-.66,0-1.06-4-.9-4-3.54,0-1.6,1.3-2.69,3.12-2.69,1.14,0,2.88.53,2.88,1.67A1,1,0,0,1,59.32,176.68Z"/><path class="cls-3" d="M61.29,175.37a1.16,1.16,0,1,1,2.3,0v4.11a1.49,1.49,0,0,0,3,0v-4.11a1.16,1.16,0,1,1,2.3,0v4.16c0,2.05-1.36,3.36-3.79,3.36s-3.79-1.31-3.79-3.36Z"/><path class="cls-3" d="M78.06,181.29c0,.6,0,1.51-1.11,1.51-.67,0-.94-.37-1.1-1a2.75,2.75,0,0,1-2.2,1.07c-2.16,0-3.81-1.84-3.81-4.43s1.7-4.47,3.81-4.47a2.65,2.65,0,0,1,2.2,1.06,1.09,1.09,0,0,1,1.1-1c1.11,0,1.11.91,1.11,1.5ZM74,180.78c1.2,0,1.78-1.22,1.78-2.32s-.56-2.35-1.78-2.35-1.82,1.25-1.82,2.35S72.73,180.78,74,180.78Z"/><path class="cls-3" d="M79.33,175.24a1.13,1.13,0,0,1,1.19-1.15c.61,0,1.12.22,1.12,1h0a1.82,1.82,0,0,1,1.62-1,1.12,1.12,0,0,1,1.12,1.23c0,.76-.69.8-1.38,1.12s-1.39.63-1.39,1.54v3.54a1.16,1.16,0,1,1-2.31,0Z"/><path class="cls-3" d="M87.11,171.9a1.32,1.32,0,0,1-1.3,1.33,1.36,1.36,0,0,1-1.29-1.33,1.3,1.3,0,0,1,2.59,0Zm-2.45,3.47a1.16,1.16,0,1,1,2.31,0v6.15a1.16,1.16,0,1,1-2.31,0Z"/><path class="cls-3" d="M96.17,178.46a4.14,4.14,0,1,1-8.26,0,4.14,4.14,0,1,1,8.26,0Zm-6,0c0,1.1.58,2.32,1.83,2.32s1.82-1.22,1.82-2.32-.56-2.35-1.82-2.35S90.21,177.36,90.21,178.46Z"/><circle class="cls-5" cx="185.95" cy="19.91" r="10.21"/><circle class="cls-5" cx="185.95" cy="69.47" r="10.21"/><circle class="cls-5" cx="185.95" cy="119.02" r="10.21"/><circle class="cls-5" cx="185.95" cy="168.57" r="10.21"/><circle class="cls-5" cx="185.95" cy="218.13" r="10.21"/><circle class="cls-5" cx="185.95" cy="267.68" r="10.21"/><circle class="cls-5" cx="185.95" cy="317.23" r="10.21"/><circle class="cls-4" cx="185.95" cy="267.68" r="4.43"/></g></g></svg>