<svg xmlns="http://www.w3.org/2000/svg" viewBox="0 0 143.91 95.23"><defs><style>.cls-1{opacity:0.3;}.cls-2{fill:#fff;}.cls-3{fill:#a4a6a9;}.cls-4{fill:#221f20;}</style></defs><g id="Capa_2" data-name="Capa 2"><g id="Capa_1-2" data-name="Capa 1"><path class="cls-1" d="M140.69,14.91c-6.28-10-20.94-6.48-32.14-6.5-2,0-4.06-.12-6.16-.21C87.73,7.54,71.22,5.94,57.62,7.11a67.33,67.33,0,0,0-9.16,1.36c-27,9.65-17.41,30.86-15.86,49C28.55,62.7,20.73,69.23,6.34,70.77c0,0,14.47,1.21,25.67,5,.5,6.74,3.07,13,12.72,17.28a29.11,29.11,0,0,0,7.71.92c2.85.11,5.63.12,8.37.07s5.45-.15,8.16-.26a179.18,179.18,0,0,1,24.08,0l6,.29c13.27-.36,31.26,5.63,38.59-7C147,71.77,141,53.11,143.2,36c.23-1.88.45-3.75.58-5.59C144.18,24.92,143.83,19.62,140.69,14.91Z"/><path class="cls-2" d="M136.48,9c-6.28-10-20.94-6.48-32.14-6.5-2,0-4.06-.12-6.15-.21C83.52,1.64,67,0,53.41,1.21a69.18,69.18,0,0,0-9.16,1.36C20.54,11.05,25,28.43,27.55,44.81A13.29,13.29,0,0,1,22.4,57.45c-4.56,3.42-11.07,6.44-20.27,7.43a139.2,139.2,0,0,1,20.29,3.43,8.44,8.44,0,0,1,6.09,6c1.3,5,4.52,9.51,12,12.85a29.45,29.45,0,0,0,7.7.92c2.85.11,5.63.11,8.38.06s5.44-.14,8.15-.25a177.54,177.54,0,0,1,24.08,0l6,.29c13.26-.37,31.25,5.63,38.58-7,9.33-15.33,3.33-34,5.55-51.06.22-1.88.44-3.74.57-5.59C140,19,139.62,13.73,136.48,9Z"/><path class="cls-3" d="M27.18,50.47A13.29,13.29,0,0,0,30,40c-1.44-9.44-3.53-19.19-.53-27.4-6.38,9-3.7,20.83-2,32.18A13.3,13.3,0,0,1,27.18,50.47Z"/><path class="cls-3" d="M97.36,83.45l-6-.29a177.54,177.54,0,0,0-24.08,0c-2.71.11-5.41.21-8.16.25s-5.52.05-8.37-.06A29.48,29.48,0,0,1,43,82.4c-7.49-3.34-10.72-7.85-12-12.85a8.41,8.41,0,0,0-6.08-6c-3.28-.85-6.59-1.5-9.57-2A44.59,44.59,0,0,1,2.13,64.87a140,140,0,0,1,20.29,3.44,8.44,8.44,0,0,1,6.09,6c1.3,5,4.52,9.51,12,12.85a29.45,29.45,0,0,0,7.7.92c2.85.11,5.63.11,8.38.06s5.44-.14,8.15-.25a177.54,177.54,0,0,1,24.08,0l6,.29c13.26-.37,31.25,5.63,38.58-7a33.24,33.24,0,0,0,2.21-4.32C128.16,88.92,110.46,83.09,97.36,83.45Z"/><path class="cls-4" d="M115.54,90.14c-3.29,0-6.7-.3-10.09-.59A96.28,96.28,0,0,0,94.89,89l-4.8-.22-1.29-.06c-8.56-.42-16.27-.71-24,0-2.63.11-5.39.21-8.21.26-3.06.05-5.81,0-8.42-.06a30.71,30.71,0,0,1-7.88-1l-.12,0c-6.93-3.09-10.9-7.34-12.47-13.38a7.46,7.46,0,0,0-5.67-5.13c-9.78-2.52-22-5-22.06-5l3.66-.48a33.91,33.91,0,0,0,18.27-7.08,12.46,12.46,0,0,0,4.83-11.88c-.16-1-.33-2.11-.5-3.17C23.76,26.14,21.17,10,44,1.82l.09,0A68.55,68.55,0,0,1,53.34.42c10.37-.89,22.38-.19,34,.5,3.61.21,7.34.43,10.88.59,2.27.1,4.28.17,6.14.21,2.24,0,4.62-.13,7.13-.28C121.06.87,131.9.23,137.15,8.59c3.48,5.22,3.58,11,3.22,16-.14,1.84-.35,3.71-.58,5.63-.77,5.9-.54,12.11-.32,18.12.42,11.35.86,23.07-5.34,33.25C130.12,88.54,123.2,90.14,115.54,90.14ZM96.15,87.41c3,0,6.12.27,9.44.56,10.79.92,21.94,1.87,27.17-7.17,6-9.79,5.55-20.76,5.12-32.38-.22-6.07-.46-12.35.33-18.38.22-1.89.44-3.74.57-5.54.34-4.73.26-10.21-3-15v0c-4.75-7.57-14.65-7-24.23-6.41-2.53.15-4.93.28-7.24.29-1.89,0-3.91-.12-6.19-.22-3.55-.16-7.29-.38-10.9-.59C75.69,1.83,63.73,1.13,53.48,2a66.87,66.87,0,0,0-9,1.33C23,11.05,25.33,25.85,27.83,41.51c.17,1.06.34,2.12.5,3.17a14.07,14.07,0,0,1-5.45,13.41,38.53,38.53,0,0,1-15,6.65,133.32,133.32,0,0,1,14.7,2.8,9.22,9.22,0,0,1,6.66,6.59c1.43,5.51,5.09,9.42,11.51,12.29a28.5,28.5,0,0,0,7.43.88c2.62.1,5.34.12,8.37.07,2.81-.05,5.56-.15,8.14-.26,7.76-.67,15.53-.38,24.15,0l1.29.07,4.73.22Z"/><path d="M44.67,25a1.48,1.48,0,0,1,0,.22.47.47,0,0,1,0,.14.16.16,0,0,1,0,.08.12.12,0,0,1-.08,0H41.55a.45.45,0,0,1-.26-.08.4.4,0,0,1-.1-.29V19.92a.4.4,0,0,1,.1-.29.45.45,0,0,1,.26-.08h2.92a.11.11,0,0,1,.08,0,.12.12,0,0,1,.05.08.47.47,0,0,1,0,.14c0,.06,0,.14,0,.23s0,.15,0,.21a.54.54,0,0,1,0,.15.22.22,0,0,1-.05.08l-.08,0H42.38v1.43h1.77a.13.13,0,0,1,.08,0,.12.12,0,0,1,.05.08.39.39,0,0,1,0,.14,1.28,1.28,0,0,1,0,.21,1.41,1.41,0,0,1,0,.22.47.47,0,0,1,0,.14.13.13,0,0,1-.05.07.12.12,0,0,1-.08,0H42.38v1.66h2.11l.08,0a.22.22,0,0,1,0,.08.54.54,0,0,1,0,.15A1.41,1.41,0,0,1,44.67,25Z"/><path d="M48.5,24.12a1.26,1.26,0,0,1-.13.6,1.11,1.11,0,0,1-.36.44,1.71,1.71,0,0,1-.56.27,2.63,2.63,0,0,1-.7.09,2,2,0,0,1-.43,0A3,3,0,0,1,46,25.4a1.86,1.86,0,0,1-.27-.11.64.64,0,0,1-.16-.1.27.27,0,0,1-.08-.15,1.15,1.15,0,0,1,0-.3c0-.09,0-.16,0-.21a.86.86,0,0,1,0-.13.1.1,0,0,1,0-.06l.06,0a.29.29,0,0,1,.15.06l.24.12a2.2,2.2,0,0,0,.34.13,1.46,1.46,0,0,0,.44.06,1.12,1.12,0,0,0,.27,0,1,1,0,0,0,.21-.09.5.5,0,0,0,.14-.15.46.46,0,0,0,0-.21.41.41,0,0,0-.08-.24.86.86,0,0,0-.23-.17,3.24,3.24,0,0,0-.31-.13l-.36-.14a2.31,2.31,0,0,1-.35-.18,1.57,1.57,0,0,1-.32-.24,1.38,1.38,0,0,1-.22-.35,1.23,1.23,0,0,1-.08-.49,1.22,1.22,0,0,1,.11-.54,1.09,1.09,0,0,1,.33-.41,1.5,1.5,0,0,1,.52-.27,2.38,2.38,0,0,1,.68-.09l.37,0,.33.07.24.09a.51.51,0,0,1,.14.08.46.46,0,0,1,.07.07.19.19,0,0,1,0,.08s0,.07,0,.12v.37c0,.05,0,.1,0,.13s0,.05,0,.06h-.06A.3.3,0,0,1,48,22l-.21-.11-.3-.1a1.6,1.6,0,0,0-.39,0,.77.77,0,0,0-.27,0,.44.44,0,0,0-.18.09.33.33,0,0,0-.11.13.35.35,0,0,0,0,.17.32.32,0,0,0,.09.24.8.8,0,0,0,.22.17l.32.13.37.14a3,3,0,0,1,.36.18,1.08,1.08,0,0,1,.32.24,1.25,1.25,0,0,1,.23.35A1.34,1.34,0,0,1,48.5,24.12Z"/><path d="M51.65,24.86a1.24,1.24,0,0,1,0,.31.36.36,0,0,1-.06.15l-.12.07a.6.6,0,0,1-.19.06l-.23,0h-.25a1.72,1.72,0,0,1-.59-.08.92.92,0,0,1-.41-.27,1.08,1.08,0,0,1-.24-.45,2,2,0,0,1-.08-.64V22H49a.16.16,0,0,1-.13-.11,1,1,0,0,1,0-.36,1.48,1.48,0,0,1,0-.22,1.06,1.06,0,0,1,0-.14.28.28,0,0,1,.06-.08l.08,0h.48v-.9a.19.19,0,0,1,0-.08.15.15,0,0,1,.09-.06l.18,0h.55a.6.6,0,0,1,.18,0,.15.15,0,0,1,.09.06.11.11,0,0,1,0,.08v.9h.88l.08,0a.16.16,0,0,1,.05.08.39.39,0,0,1,0,.14c0,.06,0,.14,0,.22a1,1,0,0,1,0,.36c0,.07-.07.11-.13.11h-.88v1.9a.92.92,0,0,0,.1.49.4.4,0,0,0,.37.17l.17,0,.13,0,.09,0,.07,0,0,0a.09.09,0,0,1,0,.06,1.3,1.3,0,0,1,0,.13C51.64,24.71,51.65,24.78,51.65,24.86Z"/><path d="M55.83,25.27a.11.11,0,0,1,0,.1.23.23,0,0,1-.14.05,2.11,2.11,0,0,1-.58,0,.23.23,0,0,1-.14-.05.13.13,0,0,1,0-.1V25a1.91,1.91,0,0,1-.57.42,1.67,1.67,0,0,1-.71.15,1.78,1.78,0,0,1-.59-.09,1.25,1.25,0,0,1-.47-.25,1.06,1.06,0,0,1-.31-.41,1.41,1.41,0,0,1-.11-.57,1.31,1.31,0,0,1,.14-.61,1.06,1.06,0,0,1,.41-.43,1.87,1.87,0,0,1,.69-.25,4.35,4.35,0,0,1,.94-.09h.4v-.24a1.06,1.06,0,0,0,0-.33.55.55,0,0,0-.13-.24.45.45,0,0,0-.23-.14,1.27,1.27,0,0,0-.37-.05,1.61,1.61,0,0,0-.51.07A2.49,2.49,0,0,0,53,22a1.58,1.58,0,0,0-.29.14.45.45,0,0,1-.19.06.16.16,0,0,1-.09,0,.15.15,0,0,1-.06-.09.54.54,0,0,1,0-.15,1.09,1.09,0,0,1,0-.19.68.68,0,0,1,0-.22.37.37,0,0,1,.08-.15,1,1,0,0,1,.23-.14l.37-.15a3.1,3.1,0,0,1,.46-.11A3,3,0,0,1,54,21a3.26,3.26,0,0,1,.82.09,1.43,1.43,0,0,1,.55.28,1.14,1.14,0,0,1,.32.5,2.2,2.2,0,0,1,.1.72Zm-1.12-1.73h-.44a2.17,2.17,0,0,0-.47,0,1.19,1.19,0,0,0-.32.12.46.46,0,0,0-.17.2.6.6,0,0,0-.06.27.51.51,0,0,0,.16.4.69.69,0,0,0,.45.14.86.86,0,0,0,.44-.12,1.85,1.85,0,0,0,.41-.36Z"/><path d="M63.4,25.26a.11.11,0,0,1,0,.08.23.23,0,0,1-.09.06l-.17,0h-.56l-.17,0a.17.17,0,0,1-.09-.06.11.11,0,0,1,0-.08v-2.4a1.4,1.4,0,0,0,0-.37.83.83,0,0,0-.11-.29.57.57,0,0,0-.2-.18.54.54,0,0,0-.29-.07.65.65,0,0,0-.41.16,2.83,2.83,0,0,0-.46.46v2.69a.19.19,0,0,1,0,.08.29.29,0,0,1-.1.06l-.17,0h-.55l-.18,0-.09-.06a.11.11,0,0,1,0-.08v-2.4a2.05,2.05,0,0,0,0-.37,1.1,1.1,0,0,0-.12-.29.49.49,0,0,0-.2-.18A.53.53,0,0,0,59,22a.67.67,0,0,0-.42.16,2.47,2.47,0,0,0-.45.46v2.69a.11.11,0,0,1,0,.08L58,25.4l-.18,0h-.55l-.17,0a.29.29,0,0,1-.1-.06.19.19,0,0,1,0-.08V21.21a.08.08,0,0,1,0-.07.1.1,0,0,1,.08-.06l.15,0h.48a.39.39,0,0,1,.14,0,.12.12,0,0,1,.08.06.14.14,0,0,1,0,.07v.47a2.65,2.65,0,0,1,.67-.54,1.43,1.43,0,0,1,.7-.18,1.64,1.64,0,0,1,.45.05,1,1,0,0,1,.35.15.87.87,0,0,1,.27.23,1.08,1.08,0,0,1,.19.31,2.81,2.81,0,0,1,.36-.34,2.26,2.26,0,0,1,.34-.23,1.81,1.81,0,0,1,.34-.13A1.39,1.39,0,0,1,62,21a1.56,1.56,0,0,1,.68.13,1.36,1.36,0,0,1,.45.37,1.61,1.61,0,0,1,.24.55,2.84,2.84,0,0,1,.07.66Z"/><path d="M68.61,23.2a3.09,3.09,0,0,1-.14.94,1.87,1.87,0,0,1-.41.73,1.72,1.72,0,0,1-.69.48,3,3,0,0,1-1.92,0,1.78,1.78,0,0,1-.66-.44,1.9,1.9,0,0,1-.39-.7,3.46,3.46,0,0,1-.13-.95,3.16,3.16,0,0,1,.14-1,2,2,0,0,1,.42-.73,1.82,1.82,0,0,1,.69-.48,2.63,2.63,0,0,1,1-.16,3,3,0,0,1,1,.14,1.78,1.78,0,0,1,.66.44,1.75,1.75,0,0,1,.38.7A3.14,3.14,0,0,1,68.61,23.2Zm-1.17,0a3.12,3.12,0,0,0,0-.55,1.43,1.43,0,0,0-.16-.44.92.92,0,0,0-.3-.29,1,1,0,0,0-.48-.1A1,1,0,0,0,66,22a.83.83,0,0,0-.32.27,1.39,1.39,0,0,0-.18.43,2.52,2.52,0,0,0-.06.58,3.12,3.12,0,0,0,0,.55,1.43,1.43,0,0,0,.16.44.73.73,0,0,0,.3.28,1,1,0,0,0,.47.11.88.88,0,0,0,.45-.1.83.83,0,0,0,.32-.27,1.24,1.24,0,0,0,.18-.42A2.52,2.52,0,0,0,67.44,23.24Z"/><path d="M72.36,24.12a1.26,1.26,0,0,1-.13.6,1.2,1.2,0,0,1-.36.44,1.71,1.71,0,0,1-.56.27,2.63,2.63,0,0,1-.7.09,2,2,0,0,1-.43,0,3,3,0,0,1-.37-.08l-.28-.11-.15-.1A.27.27,0,0,1,69.3,25a1.15,1.15,0,0,1,0-.3,1.22,1.22,0,0,1,0-.21.86.86,0,0,1,0-.13.15.15,0,0,1,0-.06l.07,0a.37.37,0,0,1,.15.06,1.33,1.33,0,0,0,.24.12,2.2,2.2,0,0,0,.34.13,1.46,1.46,0,0,0,.44.06,1.12,1.12,0,0,0,.27,0,1,1,0,0,0,.21-.09.37.37,0,0,0,.13-.15.46.46,0,0,0,0-.21.36.36,0,0,0-.09-.24.8.8,0,0,0-.22-.17,3.24,3.24,0,0,0-.31-.13l-.36-.14-.36-.18a1.83,1.83,0,0,1-.31-.24,1.15,1.15,0,0,1-.22-.35,1.32,1.32,0,0,1,0-1,1.07,1.07,0,0,1,.32-.41,1.71,1.71,0,0,1,.52-.27,2.5,2.5,0,0,1,.69-.09l.37,0a2.21,2.21,0,0,1,.32.07l.25.09a.75.75,0,0,1,.14.08.19.19,0,0,1,.06.07s0,.05,0,.08,0,.07,0,.12v.37a1.3,1.3,0,0,1,0,.13.09.09,0,0,1,0,.06H72a.3.3,0,0,1-.13,0l-.22-.11-.29-.1a1.6,1.6,0,0,0-.39,0,.73.73,0,0,0-.27,0,.48.48,0,0,0-.19.09.41.41,0,0,0-.1.13.35.35,0,0,0,0,.17.32.32,0,0,0,.09.24.8.8,0,0,0,.22.17l.32.13.36.14a2.53,2.53,0,0,1,.37.18,1.22,1.22,0,0,1,.32.24,1,1,0,0,1,.22.35A1.14,1.14,0,0,1,72.36,24.12Z"/><path d="M78.38,24.62c0,.07,0,.14,0,.19a.52.52,0,0,1,0,.14.32.32,0,0,1,0,.09.23.23,0,0,1-.07.08.59.59,0,0,1-.18.13,2.08,2.08,0,0,1-.3.13,2.8,2.8,0,0,1-.37.1,2.6,2.6,0,0,1-.4,0,2.37,2.37,0,0,1-.83-.14,1.65,1.65,0,0,1-.61-.43,1.89,1.89,0,0,1-.36-.69,3,3,0,0,1-.13-.94,3.32,3.32,0,0,1,.15-1,2.11,2.11,0,0,1,.43-.73,1.76,1.76,0,0,1,.64-.43,2.39,2.39,0,0,1,.82-.14,2,2,0,0,1,.35,0,1.59,1.59,0,0,1,.33.09l.27.12.17.12a.23.23,0,0,1,.07.08.32.32,0,0,1,0,.09.51.51,0,0,1,0,.13,1.21,1.21,0,0,1,0,.2,1,1,0,0,1,0,.37c0,.07-.07.1-.12.1a.29.29,0,0,1-.16-.06l-.2-.14a1.46,1.46,0,0,0-.28-.14,1.14,1.14,0,0,0-.39-.06.76.76,0,0,0-.68.34,1.74,1.74,0,0,0-.24,1,2.52,2.52,0,0,0,.06.58,1.6,1.6,0,0,0,.17.42.81.81,0,0,0,.3.25,1,1,0,0,0,.4.08,1,1,0,0,0,.41-.07,1.57,1.57,0,0,0,.29-.16,1.39,1.39,0,0,0,.22-.15.21.21,0,0,1,.14-.07l.07,0a.15.15,0,0,1,0,.08s0,.1,0,.16S78.38,24.52,78.38,24.62Z"/><path d="M83.25,23.2a3.09,3.09,0,0,1-.14.94,2,2,0,0,1-.41.73,1.83,1.83,0,0,1-.7.48,2.59,2.59,0,0,1-1,.17,2.69,2.69,0,0,1-.94-.15,1.63,1.63,0,0,1-.66-.44,1.66,1.66,0,0,1-.39-.7,3.12,3.12,0,0,1-.13-.95,3.16,3.16,0,0,1,.14-1,1.89,1.89,0,0,1,.42-.73,1.82,1.82,0,0,1,.69-.48,2.6,2.6,0,0,1,1-.16,2.91,2.91,0,0,1,.94.14,1.63,1.63,0,0,1,.66.44,1.77,1.77,0,0,1,.39.7A3.48,3.48,0,0,1,83.25,23.2Zm-1.18,0a2.39,2.39,0,0,0,0-.55,1.21,1.21,0,0,0-.16-.44.76.76,0,0,0-.3-.29.94.94,0,0,0-.47-.1,1.06,1.06,0,0,0-.45.09.8.8,0,0,0-.31.27,1.39,1.39,0,0,0-.18.43,2.52,2.52,0,0,0-.06.58,2.39,2.39,0,0,0,0,.55,1.21,1.21,0,0,0,.16.44.68.68,0,0,0,.3.28,1,1,0,0,0,.47.11.93.93,0,0,0,.45-.1.74.74,0,0,0,.31-.27,1.24,1.24,0,0,0,.18-.42A2.52,2.52,0,0,0,82.07,23.24Z"/><path d="M88,25.26a.11.11,0,0,1,0,.08.17.17,0,0,1-.09.06l-.17,0h-.55l-.18,0-.09-.06a.11.11,0,0,1,0-.08V23a1.86,1.86,0,0,0,0-.46,1.1,1.1,0,0,0-.12-.29A.6.6,0,0,0,86.5,22a.62.62,0,0,0-.31-.07.75.75,0,0,0-.44.16,2.48,2.48,0,0,0-.46.46v2.69a.11.11,0,0,1,0,.08.17.17,0,0,1-.09.06l-.17,0h-.56l-.17,0a.23.23,0,0,1-.09-.06.11.11,0,0,1,0-.08V21.21a.14.14,0,0,1,0-.07.12.12,0,0,1,.08-.06l.15,0h.48l.15,0a.11.11,0,0,1,.07.06.08.08,0,0,1,0,.07v.47a2.55,2.55,0,0,1,.69-.54,1.54,1.54,0,0,1,.72-.18,1.65,1.65,0,0,1,.7.13,1.26,1.26,0,0,1,.45.37,1.64,1.64,0,0,1,.26.55,3.3,3.3,0,0,1,.07.75Z"/><path d="M92.72,21.21v.05a.15.15,0,0,1,0,.07.29.29,0,0,1,0,.09.3.3,0,0,1,0,.12L91.45,25.2a.67.67,0,0,1-.06.12.32.32,0,0,1-.13.08,1.29,1.29,0,0,1-.24,0h-.79a1.19,1.19,0,0,1-.24,0,.27.27,0,0,1-.12-.07.34.34,0,0,1-.06-.12l-1.22-3.66a1.36,1.36,0,0,1,0-.17.58.58,0,0,1,0-.1v-.06a.19.19,0,0,1,0-.08l.09-.06.18,0h.58a.61.61,0,0,1,.17,0,.14.14,0,0,1,.1.06.19.19,0,0,1,0,.09l.92,3,0,.11,0-.11.9-3a.19.19,0,0,1,0-.09.15.15,0,0,1,.09-.06.61.61,0,0,1,.17,0h.55l.17,0a.18.18,0,0,1,.08.06A.11.11,0,0,1,92.72,21.21Z"/><path d="M97,23.12a.46.46,0,0,1-.09.31.36.36,0,0,1-.26.1H94.23a1.73,1.73,0,0,0,.06.47.92.92,0,0,0,.2.35.82.82,0,0,0,.34.23,1.52,1.52,0,0,0,.51.08,2.81,2.81,0,0,0,.53-.05l.39-.09.27-.1a.49.49,0,0,1,.18,0l.07,0a.1.1,0,0,1,0,.05,1,1,0,0,1,0,.12v.36s0,.08,0,.12l0,.08,0,.07a.44.44,0,0,1-.16.08,2.74,2.74,0,0,1-.34.11l-.46.09a4.93,4.93,0,0,1-.57,0,3,3,0,0,1-.94-.14,1.72,1.72,0,0,1-.68-.41,1.79,1.79,0,0,1-.4-.7,3.5,3.5,0,0,1,0-2,2.07,2.07,0,0,1,.41-.73,1.65,1.65,0,0,1,.65-.46,2.18,2.18,0,0,1,.87-.16,2.24,2.24,0,0,1,.86.15,1.6,1.6,0,0,1,.6.41,1.91,1.91,0,0,1,.34.63,2.8,2.8,0,0,1,.1.79Zm-1.1-.33a1.19,1.19,0,0,0-.19-.75.74.74,0,0,0-.64-.28.76.76,0,0,0-.38.09.71.71,0,0,0-.27.21,1.26,1.26,0,0,0-.16.33,1.76,1.76,0,0,0-.07.4Z"/><path d="M100.58,21.59a2.1,2.1,0,0,1,0,.27.35.35,0,0,1,0,.16s0,.07,0,.08a.11.11,0,0,1-.08,0l-.08,0-.1,0-.13,0H100l-.19,0-.19.12a2.27,2.27,0,0,0-.22.22,4,4,0,0,0-.23.34v2.52a.11.11,0,0,1,0,.08L99,25.4l-.18,0h-.55l-.18,0L98,25.34a.11.11,0,0,1,0-.08V21.21a.09.09,0,0,1,0-.07.1.1,0,0,1,.08-.06l.15,0h.47a.39.39,0,0,1,.15,0,.12.12,0,0,1,.08.06.14.14,0,0,1,0,.07v.51a2.34,2.34,0,0,1,.56-.61.76.76,0,0,1,.26-.12,1.07,1.07,0,0,1,.25,0h.13l.14,0,.13,0,.08,0,0,.06a.12.12,0,0,1,0,.07s0,.08,0,.14Z"/><path d="M104,24.12a1.26,1.26,0,0,1-.13.6,1.14,1.14,0,0,1-.37.44,1.57,1.57,0,0,1-.55.27,2.63,2.63,0,0,1-.7.09,2.12,2.12,0,0,1-.44,0l-.36-.08-.28-.11-.16-.1A.35.35,0,0,1,101,25a1.15,1.15,0,0,1,0-.3,1.22,1.22,0,0,1,0-.21.23.23,0,0,1,0-.13.09.09,0,0,1,0-.06l.07,0a.37.37,0,0,1,.15.06,1.33,1.33,0,0,0,.24.12,2.2,2.2,0,0,0,.34.13,1.44,1.44,0,0,0,.43.06,1.14,1.14,0,0,0,.28,0,1,1,0,0,0,.21-.09.37.37,0,0,0,.13-.15.46.46,0,0,0,0-.21.36.36,0,0,0-.09-.24.8.8,0,0,0-.22-.17l-.31-.13-.36-.14a3,3,0,0,1-.36-.18,1.83,1.83,0,0,1-.31-.24,1.15,1.15,0,0,1-.22-.35,1.32,1.32,0,0,1,0-1,1.07,1.07,0,0,1,.32-.41,1.6,1.6,0,0,1,.52-.27,2.5,2.5,0,0,1,.69-.09l.37,0a2.21,2.21,0,0,1,.32.07l.25.09.14.08a.19.19,0,0,1,.06.07l0,.08s0,.07,0,.12a.86.86,0,0,1,0,.17,1.09,1.09,0,0,1,0,.2.44.44,0,0,1,0,.13.09.09,0,0,1,0,.06h-.07a.31.31,0,0,1-.12,0l-.22-.11-.3-.1a1.46,1.46,0,0,0-.38,0,.7.7,0,0,0-.27,0,.48.48,0,0,0-.19.09.45.45,0,0,0-.11.13.51.51,0,0,0,0,.17.36.36,0,0,0,.08.24,1.06,1.06,0,0,0,.23.17,1.93,1.93,0,0,0,.32.13l.36.14a2.53,2.53,0,0,1,.37.18,1.41,1.41,0,0,1,.32.24,1.23,1.23,0,0,1,.22.35A1.14,1.14,0,0,1,104,24.12Z"/><path d="M108.32,25.27c0,.05,0,.08,0,.1a.23.23,0,0,1-.14.05,2.11,2.11,0,0,1-.58,0c-.06,0-.11,0-.13-.05a.11.11,0,0,1,0-.1V25a1.91,1.91,0,0,1-.57.42,1.64,1.64,0,0,1-.71.15,1.83,1.83,0,0,1-.59-.09,1.25,1.25,0,0,1-.47-.25,1.17,1.17,0,0,1-.31-.41,1.42,1.42,0,0,1-.1-.57,1.31,1.31,0,0,1,.13-.61,1.08,1.08,0,0,1,.42-.43,1.82,1.82,0,0,1,.68-.25,4.44,4.44,0,0,1,1-.09h.39v-.24a1.06,1.06,0,0,0,0-.33A.54.54,0,0,0,107,22a.48.48,0,0,0-.24-.14,1.27,1.27,0,0,0-.37-.05,1.61,1.61,0,0,0-.51.07,2.49,2.49,0,0,0-.39.14,2,2,0,0,0-.29.14.45.45,0,0,1-.19.06.16.16,0,0,1-.09,0,.35.35,0,0,1-.06-.09.54.54,0,0,1,0-.15,1.09,1.09,0,0,1,0-.19,1.18,1.18,0,0,1,0-.22.4.4,0,0,1,.09-.15.76.76,0,0,1,.22-.14l.37-.15A3,3,0,0,1,106,21a2.85,2.85,0,0,1,.51,0,3.26,3.26,0,0,1,.82.09,1.43,1.43,0,0,1,.55.28,1.14,1.14,0,0,1,.32.5,2.2,2.2,0,0,1,.1.72Zm-1.12-1.73h-.43a2.21,2.21,0,0,0-.48,0,1,1,0,0,0-.31.12.57.57,0,0,0-.18.2.6.6,0,0,0-.06.27.51.51,0,0,0,.16.4.69.69,0,0,0,.45.14.83.83,0,0,0,.44-.12,1.85,1.85,0,0,0,.41-.36Z"/><path d="M113.32,25.26a.11.11,0,0,1,0,.08.17.17,0,0,1-.09.06l-.17,0h-.55l-.18,0-.09-.06a.11.11,0,0,1,0-.08V23a1.86,1.86,0,0,0,0-.46,1.1,1.1,0,0,0-.12-.29.6.6,0,0,0-.21-.18.62.62,0,0,0-.31-.07.75.75,0,0,0-.44.16,2.48,2.48,0,0,0-.46.46v2.69a.11.11,0,0,1,0,.08.23.23,0,0,1-.09.06l-.17,0h-.56l-.17,0a.17.17,0,0,1-.09-.06.11.11,0,0,1,0-.08V21.21a.14.14,0,0,1,0-.07.12.12,0,0,1,.08-.06l.15,0h.48l.15,0a.11.11,0,0,1,.07.06.08.08,0,0,1,0,.07v.47a2.55,2.55,0,0,1,.69-.54,1.54,1.54,0,0,1,.72-.18,1.57,1.57,0,0,1,.69.13,1.22,1.22,0,0,1,.46.37,1.46,1.46,0,0,1,.25.55,2.78,2.78,0,0,1,.08.75Z"/><path d="M118.28,25.26a.19.19,0,0,1,0,.08.24.24,0,0,1-.08.06.57.57,0,0,1-.15,0h-.46a.57.57,0,0,1-.15,0s-.07,0-.08-.06a.11.11,0,0,1,0-.08v-.45a2.56,2.56,0,0,1-.65.52,1.51,1.51,0,0,1-.76.19,1.55,1.55,0,0,1-.78-.18,1.53,1.53,0,0,1-.53-.48,2.26,2.26,0,0,1-.29-.71,4,4,0,0,1-.09-.86,3.63,3.63,0,0,1,.12-1,2.13,2.13,0,0,1,.33-.73,1.49,1.49,0,0,1,.56-.47A1.67,1.67,0,0,1,116,21a1.41,1.41,0,0,1,.62.13,2.41,2.41,0,0,1,.54.41V19.31a.11.11,0,0,1,0-.08.15.15,0,0,1,.09-.06.6.6,0,0,1,.18,0H118a.61.61,0,0,1,.17,0,.15.15,0,0,1,.09.06.11.11,0,0,1,0,.08Zm-1.14-2.7a2.29,2.29,0,0,0-.46-.47.8.8,0,0,0-.47-.17.71.71,0,0,0-.39.11,1.08,1.08,0,0,0-.26.3,1.59,1.59,0,0,0-.14.42,2.31,2.31,0,0,0,0,.46,4,4,0,0,0,0,.5,1.45,1.45,0,0,0,.14.43.89.89,0,0,0,.24.3.71.71,0,0,0,.39.11.85.85,0,0,0,.23,0,.8.8,0,0,0,.23-.11,1.41,1.41,0,0,0,.24-.2c.08-.09.17-.19.26-.31Z"/><path d="M123.52,23.2a3.09,3.09,0,0,1-.14.94,2,2,0,0,1-.41.73,1.83,1.83,0,0,1-.7.48,2.63,2.63,0,0,1-1,.17,2.69,2.69,0,0,1-.94-.15,1.63,1.63,0,0,1-.66-.44,1.66,1.66,0,0,1-.39-.7,3.12,3.12,0,0,1-.13-.95,3.16,3.16,0,0,1,.14-1,2,2,0,0,1,.41-.73,1.94,1.94,0,0,1,.7-.48,2.6,2.6,0,0,1,1-.16,3,3,0,0,1,.94.14,1.63,1.63,0,0,1,.66.44,1.9,1.9,0,0,1,.39.7A3.48,3.48,0,0,1,123.52,23.2Zm-1.18,0a3.12,3.12,0,0,0,0-.55,1.21,1.21,0,0,0-.16-.44.76.76,0,0,0-.3-.29.94.94,0,0,0-.47-.1,1.06,1.06,0,0,0-.45.09.8.8,0,0,0-.31.27,1.39,1.39,0,0,0-.18.43,2.52,2.52,0,0,0-.06.58,3.16,3.16,0,0,0,0,.55,1.44,1.44,0,0,0,.17.44.68.68,0,0,0,.3.28,1.06,1.06,0,0,0,.92,0,.8.8,0,0,0,.31-.27,1.24,1.24,0,0,0,.18-.42A2.52,2.52,0,0,0,122.34,23.24Z"/><path d="M43.53,32.45a1.26,1.26,0,0,1-.13.6,1,1,0,0,1-.36.44,1.62,1.62,0,0,1-.56.27,2.58,2.58,0,0,1-.7.09,2,2,0,0,1-.43,0,3,3,0,0,1-.37-.08,1.86,1.86,0,0,1-.27-.11.91.91,0,0,1-.16-.1.35.35,0,0,1-.08-.15,1.24,1.24,0,0,1,0-.3v-.21a.86.86,0,0,1,0-.13.1.1,0,0,1,.05-.06l.07,0a.3.3,0,0,1,.14.06l.24.12a2.2,2.2,0,0,0,.34.13,1.51,1.51,0,0,0,.44.06A1.12,1.12,0,0,0,42,33a.83.83,0,0,0,.21-.09.4.4,0,0,0,.14-.15.46.46,0,0,0,0-.21.35.35,0,0,0-.08-.24,1,1,0,0,0-.22-.17L41.8,32l-.35-.14a2,2,0,0,1-.36-.18,1.91,1.91,0,0,1-.32-.24,1.38,1.38,0,0,1-.22-.35,1.44,1.44,0,0,1-.08-.49,1.37,1.37,0,0,1,.11-.54,1.2,1.2,0,0,1,.33-.41,1.5,1.5,0,0,1,.52-.27,2.38,2.38,0,0,1,.68-.09l.37,0,.33.07.24.09.15.08.06.07a.19.19,0,0,1,0,.08.37.37,0,0,1,0,.12c0,.05,0,.1,0,.17s0,.15,0,.2a.44.44,0,0,1,0,.13.1.1,0,0,1-.05.06h-.06a.3.3,0,0,1-.13,0,1.34,1.34,0,0,0-.21-.11l-.3-.1a1.48,1.48,0,0,0-.39-.05.77.77,0,0,0-.27,0,.51.51,0,0,0-.18.09.33.33,0,0,0-.11.13.53.53,0,0,0,0,.17.32.32,0,0,0,.09.24.86.86,0,0,0,.23.17,1.93,1.93,0,0,0,.32.13l.36.14a3,3,0,0,1,.36.18,1.08,1.08,0,0,1,.32.24,1.25,1.25,0,0,1,.23.35A1.34,1.34,0,0,1,43.53,32.45Z"/><path d="M48.48,31.53a2.81,2.81,0,0,1-.14.94,1.87,1.87,0,0,1-.41.73,1.72,1.72,0,0,1-.69.48,3,3,0,0,1-1.92,0,1.78,1.78,0,0,1-.66-.44,1.9,1.9,0,0,1-.39-.7,3.48,3.48,0,0,1-.12-1,3.16,3.16,0,0,1,.13-.95,2,2,0,0,1,.42-.73,1.82,1.82,0,0,1,.69-.48,2.63,2.63,0,0,1,1-.16,3,3,0,0,1,1,.14,1.78,1.78,0,0,1,.66.44,1.75,1.75,0,0,1,.38.7A3.14,3.14,0,0,1,48.48,31.53Zm-1.17,0a3.12,3.12,0,0,0-.05-.55,1.43,1.43,0,0,0-.16-.44.92.92,0,0,0-.3-.29,1,1,0,0,0-.48-.1,1,1,0,0,0-.44.09.83.83,0,0,0-.32.27,1.39,1.39,0,0,0-.18.43,2.52,2.52,0,0,0-.06.58,3.12,3.12,0,0,0,0,.55,1.43,1.43,0,0,0,.16.44.8.8,0,0,0,.3.28,1,1,0,0,0,.47.11.88.88,0,0,0,.45-.1.83.83,0,0,0,.32-.27,1.24,1.24,0,0,0,.18-.42A2.52,2.52,0,0,0,47.31,31.57Z"/><path d="M53.45,31.51a4,4,0,0,1-.11,1,2.41,2.41,0,0,1-.34.74,1.43,1.43,0,0,1-.55.46,1.61,1.61,0,0,1-.74.17,2.33,2.33,0,0,1-.38,0,1.4,1.4,0,0,1-.34-.13,1.88,1.88,0,0,1-.31-.21,3.22,3.22,0,0,1-.32-.32v.44a.11.11,0,0,1,0,.08s0,0-.08.06a.33.33,0,0,1-.15,0h-.47a.33.33,0,0,1-.15,0,.24.24,0,0,1-.08-.06.19.19,0,0,1,0-.08v-6a.11.11,0,0,1,0-.08.22.22,0,0,1,.09-.07.84.84,0,0,1,.18,0l.27,0,.28,0a.65.65,0,0,1,.17,0,.2.2,0,0,1,.1.07.11.11,0,0,1,0,.08v2.23a3.29,3.29,0,0,1,.31-.26l.31-.18a1.19,1.19,0,0,1,.32-.1,1.87,1.87,0,0,1,.34,0,1.44,1.44,0,0,1,1.28.66,2.15,2.15,0,0,1,.28.71A3.89,3.89,0,0,1,53.45,31.51Zm-1.18.08a2.63,2.63,0,0,0,0-.49,1.36,1.36,0,0,0-.13-.43,1.05,1.05,0,0,0-.25-.3.66.66,0,0,0-.38-.11.78.78,0,0,0-.22,0,.8.8,0,0,0-.23.11,1.41,1.41,0,0,0-.24.2,3.22,3.22,0,0,0-.26.31v1.34a3.45,3.45,0,0,0,.46.47.86.86,0,0,0,.47.16.59.59,0,0,0,.37-.12.92.92,0,0,0,.26-.29,1.66,1.66,0,0,0,.15-.41A2.49,2.49,0,0,0,52.27,31.59Z"/><path d="M57,29.92a2.1,2.1,0,0,1,0,.27.63.63,0,0,1,0,.16.12.12,0,0,1,0,.08.09.09,0,0,1-.07,0l-.09,0-.1,0-.12,0h-.15a.58.58,0,0,0-.19,0,.76.76,0,0,0-.2.13,1,1,0,0,0-.21.21,2.5,2.5,0,0,0-.24.34v2.52a.11.11,0,0,1,0,.08l-.09.06-.18,0h-.55l-.17,0a.29.29,0,0,1-.1-.06.11.11,0,0,1,0-.08V29.54a.08.08,0,0,1,0-.07.1.1,0,0,1,.08-.06l.15,0h.48a.39.39,0,0,1,.14,0,.12.12,0,0,1,.08.06.14.14,0,0,1,0,.07v.51c.11-.15.21-.28.3-.38a1.84,1.84,0,0,1,.27-.23.72.72,0,0,1,.25-.12,1.15,1.15,0,0,1,.26,0h.12l.14,0,.13,0,.08,0,0,.06a.41.41,0,0,0,0,.07s0,.08,0,.14Z"/><path d="M61.3,31.45a.46.46,0,0,1-.09.31.38.38,0,0,1-.26.1H58.49a1.73,1.73,0,0,0,.06.47.79.79,0,0,0,.19.35.86.86,0,0,0,.35.23,1.5,1.5,0,0,0,.5.08,2.73,2.73,0,0,0,.53-.05l.39-.09.28-.1a.45.45,0,0,1,.17,0l.07,0,0,.05a.37.37,0,0,1,0,.12,1,1,0,0,1,0,.19.91.91,0,0,1,0,.17.49.49,0,0,1,0,.12l0,.08a.43.43,0,0,0,0,.07.53.53,0,0,1-.17.08,2.53,2.53,0,0,1-.33.11l-.47.09a4.75,4.75,0,0,1-.56,0,3,3,0,0,1-1-.14,1.64,1.64,0,0,1-1.08-1.11,3.26,3.26,0,0,1-.13-1,3,3,0,0,1,.14-1,2.06,2.06,0,0,1,.4-.73,1.61,1.61,0,0,1,.66-.46,2.13,2.13,0,0,1,.86-.16,2.26,2.26,0,0,1,.87.15,1.57,1.57,0,0,1,.59.41,1.75,1.75,0,0,1,.34.63,2.79,2.79,0,0,1,.11.79Zm-1.11-.33a1.13,1.13,0,0,0-.19-.75.74.74,0,0,0-.64-.28.79.79,0,0,0-.38.09.75.75,0,0,0-.26.21,1.29,1.29,0,0,0-.17.33,1.76,1.76,0,0,0-.06.4Z"/><path d="M68.17,33.59a.19.19,0,0,1,0,.08l-.08.06-.15,0h-.48l-.14,0-.08-.06a.19.19,0,0,1,0-.08v-.47a2.74,2.74,0,0,1-.68.55,1.66,1.66,0,0,1-1.42,0,1.13,1.13,0,0,1-.46-.37,1.46,1.46,0,0,1-.25-.55,3.25,3.25,0,0,1-.08-.77V29.54a.09.09,0,0,1,0-.07.15.15,0,0,1,.09-.06.6.6,0,0,1,.18,0h.55a.61.61,0,0,1,.17,0s.08,0,.09.06a.09.09,0,0,1,0,.07v2.29a2.91,2.91,0,0,0,0,.49.8.8,0,0,0,.13.28.48.48,0,0,0,.21.19.73.73,0,0,0,.3.06.78.78,0,0,0,.44-.15,2.59,2.59,0,0,0,.47-.47V29.54a.13.13,0,0,1,.11-.13l.18,0h.55a.61.61,0,0,1,.17,0,.13.13,0,0,1,.12.13Z"/><path d="M73.18,33.59a.19.19,0,0,1,0,.08l-.1.06-.17,0h-.55l-.18,0-.09-.06a.11.11,0,0,1,0-.08V31.28a1.78,1.78,0,0,0,0-.46,1.1,1.1,0,0,0-.12-.29.6.6,0,0,0-.21-.18.62.62,0,0,0-.31-.07.7.7,0,0,0-.43.16,2.23,2.23,0,0,0-.47.46v2.69a.19.19,0,0,1,0,.08l-.1.06-.17,0h-.56l-.17,0a.23.23,0,0,1-.09-.06.11.11,0,0,1,0-.08V29.54a.14.14,0,0,1,0-.07.16.16,0,0,1,.08-.06.53.53,0,0,1,.16,0h.47l.15,0a.11.11,0,0,1,.07.06.08.08,0,0,1,0,.07V30a2.71,2.71,0,0,1,.69-.54,1.54,1.54,0,0,1,.72-.18,1.62,1.62,0,0,1,.7.13,1.18,1.18,0,0,1,.45.37,1.64,1.64,0,0,1,.26.55,3.3,3.3,0,0,1,.07.75Z"/><path d="M77.75,33.6a.11.11,0,0,1,0,.1.23.23,0,0,1-.14,0,2.11,2.11,0,0,1-.58,0c-.07,0-.11,0-.13,0a.11.11,0,0,1,0-.1v-.32a1.91,1.91,0,0,1-.57.42,1.67,1.67,0,0,1-.71.15,1.83,1.83,0,0,1-.59-.09,1.25,1.25,0,0,1-.47-.25,1.06,1.06,0,0,1-.31-.41,1.41,1.41,0,0,1-.11-.57,1.31,1.31,0,0,1,.14-.61,1,1,0,0,1,.42-.43,1.82,1.82,0,0,1,.68-.25,4.41,4.41,0,0,1,.94-.09h.4v-.24a1.06,1.06,0,0,0,0-.33.55.55,0,0,0-.13-.24.45.45,0,0,0-.23-.14,1.27,1.27,0,0,0-.37-.05,1.61,1.61,0,0,0-.51.07,2.49,2.49,0,0,0-.39.14,2,2,0,0,0-.29.14.45.45,0,0,1-.19.06.16.16,0,0,1-.09,0,.35.35,0,0,1-.06-.09.54.54,0,0,1,0-.15,1.09,1.09,0,0,1,0-.19.68.68,0,0,1,0-.22.3.3,0,0,1,.09-.15.76.76,0,0,1,.22-.14l.37-.15a3.1,3.1,0,0,1,.46-.11,3,3,0,0,1,.52,0,3.26,3.26,0,0,1,.82.09,1.43,1.43,0,0,1,.55.28,1.14,1.14,0,0,1,.32.5,2.2,2.2,0,0,1,.1.72Zm-1.12-1.73h-.44a2.17,2.17,0,0,0-.47,0,1.19,1.19,0,0,0-.32.12.46.46,0,0,0-.17.2.6.6,0,0,0-.06.27.51.51,0,0,0,.16.4.69.69,0,0,0,.45.14.86.86,0,0,0,.44-.12,1.85,1.85,0,0,0,.41-.36Z"/><path d="M81.73,32.45a1.4,1.4,0,0,1-.12.6,1.14,1.14,0,0,1-.37.44,1.62,1.62,0,0,1-.56.27,2.53,2.53,0,0,1-.7.09,2,2,0,0,1-.43,0,3,3,0,0,1-.37-.08,1.86,1.86,0,0,1-.27-.11.91.91,0,0,1-.16-.1.35.35,0,0,1-.08-.15,2.11,2.11,0,0,1,0-.3,1.22,1.22,0,0,1,0-.21.39.39,0,0,1,0-.13.1.1,0,0,1,0-.06l.07,0a.3.3,0,0,1,.14.06l.25.12a2.06,2.06,0,0,0,.33.13A1.51,1.51,0,0,0,80,33a1.2,1.2,0,0,0,.28,0,.75.75,0,0,0,.2-.09.4.4,0,0,0,.14-.15.46.46,0,0,0,0-.21.35.35,0,0,0-.08-.24,1,1,0,0,0-.22-.17L80,32l-.36-.14a2,2,0,0,1-.36-.18,1.5,1.5,0,0,1-.31-.24,1.18,1.18,0,0,1-.23-.35,1.44,1.44,0,0,1-.08-.49,1.37,1.37,0,0,1,.11-.54,1.2,1.2,0,0,1,.33-.41,1.5,1.5,0,0,1,.52-.27,2.4,2.4,0,0,1,.69-.09l.37,0,.32.07.24.09.15.08a.19.19,0,0,1,.06.07l0,.08s0,.07,0,.12a.86.86,0,0,1,0,.17,1.09,1.09,0,0,1,0,.2.44.44,0,0,1,0,.13.15.15,0,0,1,0,.06h-.07a.34.34,0,0,1-.13,0,1,1,0,0,0-.21-.11l-.3-.1a1.48,1.48,0,0,0-.39-.05.68.68,0,0,0-.26,0,.48.48,0,0,0-.19.09.33.33,0,0,0-.11.13.53.53,0,0,0,0,.17.32.32,0,0,0,.09.24.86.86,0,0,0,.23.17,1.93,1.93,0,0,0,.32.13l.36.14a3,3,0,0,1,.36.18,1.19,1.19,0,0,1,.55.59A1.15,1.15,0,0,1,81.73,32.45Z"/><path d="M88.53,33.59a.11.11,0,0,1,0,.08s0,0-.07.06a.33.33,0,0,1-.15,0h-.47a.29.29,0,0,1-.14,0s-.07,0-.08-.06a.11.11,0,0,1,0-.08v-.45a2.75,2.75,0,0,1-.65.52,1.53,1.53,0,0,1-.76.19,1.62,1.62,0,0,1-.79-.18,1.59,1.59,0,0,1-.52-.48,2.26,2.26,0,0,1-.29-.71,4,4,0,0,1-.09-.86,3.63,3.63,0,0,1,.12-1,2.13,2.13,0,0,1,.33-.73,1.49,1.49,0,0,1,.56-.47,1.67,1.67,0,0,1,.76-.16,1.44,1.44,0,0,1,.62.13,2.41,2.41,0,0,1,.54.41V27.64a.11.11,0,0,1,0-.08.15.15,0,0,1,.09-.06.61.61,0,0,1,.17,0h.56a.61.61,0,0,1,.17,0,.15.15,0,0,1,.09.06.11.11,0,0,1,0,.08Zm-1.14-2.7a2.08,2.08,0,0,0-.47-.47.78.78,0,0,0-.47-.17.7.7,0,0,0-.38.11.94.94,0,0,0-.26.3,1.59,1.59,0,0,0-.14.42,2.31,2.31,0,0,0,0,.46,2.74,2.74,0,0,0,0,.5,1.45,1.45,0,0,0,.14.43.89.89,0,0,0,.24.3.69.69,0,0,0,.39.11.85.85,0,0,0,.23,0,1,1,0,0,0,.23-.11,2,2,0,0,0,.24-.2c.08-.09.17-.19.26-.31Z"/><path d="M93.41,31.45a.46.46,0,0,1-.09.31.36.36,0,0,1-.26.1H90.6a1.73,1.73,0,0,0,.06.47.81.81,0,0,0,.2.35.76.76,0,0,0,.34.23,1.52,1.52,0,0,0,.51.08,2.7,2.7,0,0,0,.52-.05l.39-.09.28-.1a.45.45,0,0,1,.17,0l.07,0a.12.12,0,0,1,0,.05.37.37,0,0,1,0,.12,1,1,0,0,1,0,.19v.17s0,.08,0,.12a.19.19,0,0,1,0,.08l-.05.07-.16.08a2.74,2.74,0,0,1-.34.11l-.47.09a4.75,4.75,0,0,1-.56,0,3,3,0,0,1-.94-.14A1.72,1.72,0,0,1,90,33.3a1.8,1.8,0,0,1-.41-.7,3.62,3.62,0,0,1,0-2,1.93,1.93,0,0,1,.41-.73,1.58,1.58,0,0,1,.65-.46,2.13,2.13,0,0,1,.86-.16,2.26,2.26,0,0,1,.87.15,1.49,1.49,0,0,1,.59.41,1.61,1.61,0,0,1,.34.63,2.79,2.79,0,0,1,.11.79Zm-1.11-.33a1.13,1.13,0,0,0-.19-.75.74.74,0,0,0-.64-.28.72.72,0,0,0-.37.09.71.71,0,0,0-.27.21,1,1,0,0,0-.16.33,1.76,1.76,0,0,0-.07.4Z"/><path d="M97.41,33a1.09,1.09,0,0,1,0,.19c0,.06,0,.1,0,.14l0,.09-.07.08a.87.87,0,0,1-.19.13,2.08,2.08,0,0,1-.3.13l-.36.1a2.73,2.73,0,0,1-.41,0,2.37,2.37,0,0,1-.83-.14,1.54,1.54,0,0,1-.6-.43,1.91,1.91,0,0,1-.37-.69,3.28,3.28,0,0,1-.13-.94,3.05,3.05,0,0,1,.16-1.05,2.09,2.09,0,0,1,.42-.73,1.85,1.85,0,0,1,.64-.43,2.39,2.39,0,0,1,.82-.14,2.19,2.19,0,0,1,.36,0,1.68,1.68,0,0,1,.32.09l.27.12.18.12.07.08,0,.09a.93.93,0,0,0,0,.14v.19a1.1,1.1,0,0,1,0,.37c0,.07-.07.1-.12.1a.32.32,0,0,1-.17-.06l-.2-.14a1.46,1.46,0,0,0-.28-.14,1.14,1.14,0,0,0-.39-.06.77.77,0,0,0-.68.34,1.74,1.74,0,0,0-.24,1,2.52,2.52,0,0,0,.06.58,1.33,1.33,0,0,0,.18.42.71.71,0,0,0,.29.25,1,1,0,0,0,.4.08,1,1,0,0,0,.41-.07,2.11,2.11,0,0,0,.3-.16l.21-.15a.25.25,0,0,1,.15-.07l.06,0a.28.28,0,0,1,0,.08.7.7,0,0,1,0,.16A1.78,1.78,0,0,1,97.41,33Z"/><path d="M99.46,28.18a.6.6,0,0,1-.14.47.74.74,0,0,1-.52.13.81.81,0,0,1-.52-.12.89.89,0,0,1,0-.94.74.74,0,0,1,.52-.13.76.76,0,0,1,.52.13A.62.62,0,0,1,99.46,28.18Zm-.08,5.41a.11.11,0,0,1,0,.08l-.09.06-.18,0h-.55l-.17,0-.1-.06a.11.11,0,0,1,0-.08v-4a.13.13,0,0,1,0-.08.19.19,0,0,1,.1,0,.61.61,0,0,1,.17,0l.28,0,.27,0,.18,0a.19.19,0,0,1,.09,0,.13.13,0,0,1,0,.08Z"/><path d="M103.36,32.45a1.26,1.26,0,0,1-.13.6,1,1,0,0,1-.36.44,1.71,1.71,0,0,1-.56.27,2.58,2.58,0,0,1-.7.09,2,2,0,0,1-.43,0,3,3,0,0,1-.37-.08,1.86,1.86,0,0,1-.27-.11.91.91,0,0,1-.16-.1.35.35,0,0,1-.08-.15,1.15,1.15,0,0,1,0-.3c0-.09,0-.16,0-.21a.86.86,0,0,1,0-.13.1.1,0,0,1,0-.06l.06,0a.29.29,0,0,1,.15.06l.24.12a2.2,2.2,0,0,0,.34.13,1.51,1.51,0,0,0,.44.06,1.12,1.12,0,0,0,.27,0,1,1,0,0,0,.21-.09.4.4,0,0,0,.14-.15.46.46,0,0,0,0-.21.41.41,0,0,0-.08-.24,1,1,0,0,0-.22-.17l-.32-.13-.36-.14a2.31,2.31,0,0,1-.35-.18,1.91,1.91,0,0,1-.32-.24,1.38,1.38,0,0,1-.22-.35,1.44,1.44,0,0,1-.08-.49,1.37,1.37,0,0,1,.11-.54,1.2,1.2,0,0,1,.33-.41,1.5,1.5,0,0,1,.52-.27,2.38,2.38,0,0,1,.68-.09l.37,0,.33.07.24.09a.51.51,0,0,1,.14.08l.07.07a.19.19,0,0,1,0,.08s0,.07,0,.12,0,.1,0,.17,0,.15,0,.2,0,.1,0,.13a.1.1,0,0,1,0,.06H103a.3.3,0,0,1-.13,0,1.34,1.34,0,0,0-.21-.11l-.3-.1a1.54,1.54,0,0,0-.39-.05.77.77,0,0,0-.27,0,.51.51,0,0,0-.18.09.33.33,0,0,0-.11.13.35.35,0,0,0,0,.17.32.32,0,0,0,.09.24.86.86,0,0,0,.23.17,2.22,2.22,0,0,0,.31.13l.37.14.36.18a1.08,1.08,0,0,1,.32.24,1.25,1.25,0,0,1,.23.35A1.34,1.34,0,0,1,103.36,32.45Z"/><path d="M105.45,28.18a.64.64,0,0,1-.14.47.78.78,0,0,1-.52.13.81.81,0,0,1-.52-.12.63.63,0,0,1-.14-.46.67.67,0,0,1,.14-.48.77.77,0,0,1,.53-.13.73.73,0,0,1,.51.13A.62.62,0,0,1,105.45,28.18Zm-.09,5.41a.11.11,0,0,1,0,.08.17.17,0,0,1-.09.06l-.17,0h-.56l-.17,0a.23.23,0,0,1-.09-.06.11.11,0,0,1,0-.08v-4a.13.13,0,0,1,0-.08.15.15,0,0,1,.09,0,.61.61,0,0,1,.17,0l.28,0,.28,0a.61.61,0,0,1,.17,0,.13.13,0,0,1,.09,0,.13.13,0,0,1,0,.08Z"/><path d="M110.59,31.53a3.09,3.09,0,0,1-.14.94,1.87,1.87,0,0,1-.41.73,1.72,1.72,0,0,1-.69.48,3,3,0,0,1-1.92,0,1.78,1.78,0,0,1-.66-.44,1.9,1.9,0,0,1-.39-.7,3.46,3.46,0,0,1-.13-1,3.16,3.16,0,0,1,.14-.95,1.89,1.89,0,0,1,.42-.73,1.82,1.82,0,0,1,.69-.48,2.63,2.63,0,0,1,1-.16,3,3,0,0,1,1,.14,1.71,1.71,0,0,1,1,1.14A3.14,3.14,0,0,1,110.59,31.53Zm-1.17,0a3.12,3.12,0,0,0,0-.55,1.43,1.43,0,0,0-.16-.44.86.86,0,0,0-.31-.29.94.94,0,0,0-.47-.1,1,1,0,0,0-.44.09.83.83,0,0,0-.32.27,1.39,1.39,0,0,0-.18.43,2.52,2.52,0,0,0-.06.58,3.12,3.12,0,0,0,0,.55,1.43,1.43,0,0,0,.16.44.68.68,0,0,0,.3.28,1,1,0,0,0,.47.11.91.91,0,0,0,.45-.1.83.83,0,0,0,.32-.27,1.24,1.24,0,0,0,.18-.42A2.52,2.52,0,0,0,109.42,31.57Z"/><path d="M115.36,33.59a.11.11,0,0,1,0,.08l-.09.06-.18,0h-.55l-.18,0-.09-.06a.19.19,0,0,1,0-.08V31.28a1.78,1.78,0,0,0,0-.46.84.84,0,0,0-.12-.29.6.6,0,0,0-.21-.18.6.6,0,0,0-.3-.07.7.7,0,0,0-.44.16,2.23,2.23,0,0,0-.47.46v2.69a.11.11,0,0,1,0,.08l-.1.06-.17,0h-.55l-.18,0-.09-.06a.11.11,0,0,1,0-.08V29.54a.13.13,0,0,1,.11-.13l.15,0h.47l.15,0a.11.11,0,0,1,.07.06.09.09,0,0,1,0,.07V30a2.52,2.52,0,0,1,.68-.54,1.54,1.54,0,0,1,.72-.18,1.62,1.62,0,0,1,.7.13,1.3,1.3,0,0,1,.46.37,1.63,1.63,0,0,1,.25.55,3.25,3.25,0,0,1,.08.75Z"/><path d="M120.21,31.45a.46.46,0,0,1-.09.31.36.36,0,0,1-.26.1H117.4a1.73,1.73,0,0,0,.06.47.81.81,0,0,0,.2.35.82.82,0,0,0,.34.23,1.52,1.52,0,0,0,.51.08,2.62,2.62,0,0,0,.52-.05l.39-.09.28-.1a.45.45,0,0,1,.18,0l.06,0a.12.12,0,0,1,0,.05.37.37,0,0,1,0,.12,1,1,0,0,1,0,.19v.17s0,.08,0,.12a.19.19,0,0,1,0,.08l0,.07a.44.44,0,0,1-.16.08,2.74,2.74,0,0,1-.34.11l-.47.09a4.75,4.75,0,0,1-.56,0,3,3,0,0,1-.94-.14,1.72,1.72,0,0,1-.68-.41,1.8,1.8,0,0,1-.41-.7,3.62,3.62,0,0,1,0-2,1.93,1.93,0,0,1,.41-.73,1.58,1.58,0,0,1,.65-.46,2.13,2.13,0,0,1,.86-.16,2.26,2.26,0,0,1,.87.15,1.49,1.49,0,0,1,.59.41,1.61,1.61,0,0,1,.34.63,2.48,2.48,0,0,1,.11.79Zm-1.1-.33a1.19,1.19,0,0,0-.2-.75.74.74,0,0,0-.64-.28.72.72,0,0,0-.37.09.71.71,0,0,0-.27.21,1,1,0,0,0-.16.33,1.76,1.76,0,0,0-.07.4Z"/><path d="M124,32.45a1.4,1.4,0,0,1-.13.6,1.14,1.14,0,0,1-.37.44,1.57,1.57,0,0,1-.55.27,2.63,2.63,0,0,1-.7.09,2.12,2.12,0,0,1-.44,0l-.37-.08-.27-.11-.16-.1a.26.26,0,0,1-.07-.15,1.15,1.15,0,0,1,0-.3,1.22,1.22,0,0,1,0-.21.23.23,0,0,1,0-.13.09.09,0,0,1,0-.06l.07,0a.37.37,0,0,1,.15.06,1.33,1.33,0,0,0,.24.12,2.2,2.2,0,0,0,.34.13,1.44,1.44,0,0,0,.43.06,1.14,1.14,0,0,0,.28,0,1,1,0,0,0,.21-.09.37.37,0,0,0,.13-.15.46.46,0,0,0,0-.21.36.36,0,0,0-.09-.24.8.8,0,0,0-.22-.17l-.31-.13-.36-.14-.36-.18a1.83,1.83,0,0,1-.31-.24,1.15,1.15,0,0,1-.22-.35,1.32,1.32,0,0,1,0-1,1.07,1.07,0,0,1,.32-.41,1.6,1.6,0,0,1,.52-.27,2.45,2.45,0,0,1,.69-.09l.37,0a2.21,2.21,0,0,1,.32.07l.25.09.14.08a.19.19,0,0,1,.06.07l0,.08s0,.07,0,.12a.86.86,0,0,1,0,.17,1.09,1.09,0,0,1,0,.2.44.44,0,0,1,0,.13.09.09,0,0,1,0,.06h-.07a.27.27,0,0,1-.12,0,1.5,1.5,0,0,0-.22-.11l-.3-.1a1.46,1.46,0,0,0-.38-.05.7.7,0,0,0-.27,0,.48.48,0,0,0-.19.09.45.45,0,0,0-.11.13.51.51,0,0,0,0,.17.36.36,0,0,0,.08.24,1.06,1.06,0,0,0,.23.17,1.93,1.93,0,0,0,.32.13l.36.14a2.42,2.42,0,0,1,.36.18,1.27,1.27,0,0,1,.33.24,1.23,1.23,0,0,1,.22.35A1.14,1.14,0,0,1,124,32.45Z"/><path d="M52,36.5a.67.67,0,0,1-.14.48.79.79,0,0,1-.53.13.77.77,0,0,1-.51-.12.63.63,0,0,1-.14-.46.67.67,0,0,1,.14-.48.76.76,0,0,1,.52-.13.81.81,0,0,1,.52.12A.63.63,0,0,1,52,36.5Zm-.09,5.42a.11.11,0,0,1,0,.08.23.23,0,0,1-.09.06l-.17,0h-.56l-.17,0-.1-.06a.19.19,0,0,1,0-.08v-4a.24.24,0,0,1,0-.08.19.19,0,0,1,.1,0,.61.61,0,0,1,.17,0l.28,0,.28,0a.61.61,0,0,1,.17,0,.15.15,0,0,1,.09,0,.13.13,0,0,1,0,.08Z"/><path d="M59.51,41.92a.19.19,0,0,1,0,.08l-.09.06-.18,0h-.56l-.17,0L58.4,42a.11.11,0,0,1,0-.08v-2.4a2.05,2.05,0,0,0,0-.37,1.1,1.1,0,0,0-.12-.29.61.61,0,0,0-.2-.19.65.65,0,0,0-.29-.06.67.67,0,0,0-.41.16,2.83,2.83,0,0,0-.46.46v2.69a.11.11,0,0,1,0,.08l-.1.06-.17,0H56l-.17,0-.1-.06a.19.19,0,0,1,0-.08v-2.4a2,2,0,0,0,0-.37,1.1,1.1,0,0,0-.12-.29.52.52,0,0,0-.48-.25.67.67,0,0,0-.42.16,2.47,2.47,0,0,0-.45.46v2.69a.11.11,0,0,1,0,.08.17.17,0,0,1-.09.06l-.17,0h-.56l-.17,0a.17.17,0,0,1-.09-.06.11.11,0,0,1,0-.08V37.87a.24.24,0,0,1,0-.08.16.16,0,0,1,.08,0l.15,0h.48l.15,0a.13.13,0,0,1,.07,0,.12.12,0,0,1,0,.08v.47a2.83,2.83,0,0,1,.67-.54,1.46,1.46,0,0,1,.7-.18,1.64,1.64,0,0,1,.45.05,1,1,0,0,1,.35.15.87.87,0,0,1,.27.23,1.17,1.17,0,0,1,.19.3A3.6,3.6,0,0,1,57,38a2.92,2.92,0,0,1,.34-.23,1.81,1.81,0,0,1,.34-.13,1.39,1.39,0,0,1,.35,0,1.53,1.53,0,0,1,.68.13,1.26,1.26,0,0,1,.45.37,1.61,1.61,0,0,1,.24.55,2.84,2.84,0,0,1,.07.66Z"/><path d="M64.71,39.84a3.63,3.63,0,0,1-.12,1,2.29,2.29,0,0,1-.34.74,1.43,1.43,0,0,1-.55.46,1.67,1.67,0,0,1-.76.17,1.08,1.08,0,0,1-.32,0,1,1,0,0,1-.29-.1,2.11,2.11,0,0,1-.27-.18,3,3,0,0,1-.28-.24v1.9a.16.16,0,0,1,0,.09l-.09.06-.18,0h-.55l-.18,0-.09-.06a.16.16,0,0,1,0-.09V37.87a.13.13,0,0,1,0-.08.12.12,0,0,1,.08,0,.39.39,0,0,1,.15,0h.46l.15,0,.08,0a.24.24,0,0,1,0,.08v.48A3.39,3.39,0,0,1,62,38a2.26,2.26,0,0,1,.34-.23,1.66,1.66,0,0,1,.37-.14,1.7,1.7,0,0,1,.4,0,1.5,1.5,0,0,1,.76.17,1.66,1.66,0,0,1,.51.48,2.15,2.15,0,0,1,.28.71A3.38,3.38,0,0,1,64.71,39.84Zm-1.19.08a4,4,0,0,0,0-.5,1.6,1.6,0,0,0-.13-.42.93.93,0,0,0-.25-.3.66.66,0,0,0-.38-.11.83.83,0,0,0-.22,0,1,1,0,0,0-.23.12,1.8,1.8,0,0,0-.24.2,2.82,2.82,0,0,0-.25.3v1.33a2.94,2.94,0,0,0,.45.47.77.77,0,0,0,.46.17.62.62,0,0,0,.38-.12.79.79,0,0,0,.25-.29,1.4,1.4,0,0,0,.15-.42A2.4,2.4,0,0,0,63.52,39.92Z"/><path d="M69.71,39.86a3.09,3.09,0,0,1-.14.94,2,2,0,0,1-.41.73,1.83,1.83,0,0,1-.7.48,2.59,2.59,0,0,1-1,.17,2.69,2.69,0,0,1-.94-.15,1.63,1.63,0,0,1-.66-.44,1.66,1.66,0,0,1-.39-.7,3.12,3.12,0,0,1-.13-1,3.16,3.16,0,0,1,.14-.95,1.89,1.89,0,0,1,.42-.73,1.82,1.82,0,0,1,.69-.48,2.6,2.6,0,0,1,1-.16,2.66,2.66,0,0,1,.94.14,1.63,1.63,0,0,1,.66.44,1.77,1.77,0,0,1,.39.7A3.48,3.48,0,0,1,69.71,39.86Zm-1.18,0a2.39,2.39,0,0,0,0-.55,1.21,1.21,0,0,0-.16-.44.76.76,0,0,0-.3-.29.94.94,0,0,0-.47-.1,1.06,1.06,0,0,0-.45.09.8.8,0,0,0-.31.27,1.39,1.39,0,0,0-.18.43,2.52,2.52,0,0,0-.06.58,2.39,2.39,0,0,0,0,.55,1.21,1.21,0,0,0,.16.44.68.68,0,0,0,.3.28,1,1,0,0,0,.47.11.93.93,0,0,0,.45-.1.74.74,0,0,0,.31-.27,1.24,1.24,0,0,0,.18-.42A2.52,2.52,0,0,0,68.53,39.9Z"/><path d="M73.21,38.25c0,.11,0,.2,0,.27a1.57,1.57,0,0,1,0,.16.12.12,0,0,1,0,.08.09.09,0,0,1-.07,0l-.08,0-.11,0a.34.34,0,0,0-.12,0h-.15a.63.63,0,0,0-.19,0l-.2.12a1.49,1.49,0,0,0-.21.22l-.24.34v2.52a.11.11,0,0,1,0,.08.17.17,0,0,1-.09.06l-.17,0H70.9l-.17,0a.23.23,0,0,1-.09-.06.11.11,0,0,1,0-.08V37.87a.24.24,0,0,1,0-.08.16.16,0,0,1,.08,0l.15,0h.48l.15,0a.13.13,0,0,1,.07,0,.12.12,0,0,1,0,.08v.51c.11-.15.21-.28.3-.38l.27-.23a.72.72,0,0,1,.25-.12,1.15,1.15,0,0,1,.26,0h.13l.14,0,.12,0,.08,0,0,.05s0,0,0,.08,0,.08,0,.14A1.93,1.93,0,0,1,73.21,38.25Z"/><path d="M76.3,41.52a1.33,1.33,0,0,1,0,.31.35.35,0,0,1-.07.15.31.31,0,0,1-.12.07.48.48,0,0,1-.18.06l-.23,0h-.26a1.79,1.79,0,0,1-.59-.08,1,1,0,0,1-.41-.27,1.08,1.08,0,0,1-.24-.45,2.41,2.41,0,0,1-.07-.64V38.65h-.49c-.06,0-.1,0-.13-.11a1,1,0,0,1,0-.36c0-.08,0-.16,0-.22a.39.39,0,0,1,0-.14.16.16,0,0,1,.05-.08l.08,0h.49v-.9a.11.11,0,0,1,0-.08.15.15,0,0,1,.09-.06.6.6,0,0,1,.18,0H75a.61.61,0,0,1,.17,0,.14.14,0,0,1,.1.06.19.19,0,0,1,0,.08v.9h.88l.08,0a.28.28,0,0,1,.06.08,1.06,1.06,0,0,1,0,.14,1.48,1.48,0,0,1,0,.22,1,1,0,0,1,0,.36.16.16,0,0,1-.13.11h-.89v1.9a.91.91,0,0,0,.11.49.4.4,0,0,0,.37.17l.16,0,.13,0,.1,0,.07,0,0,0a.09.09,0,0,1,0,.06s0,.08,0,.13A1.34,1.34,0,0,1,76.3,41.52Z"/><path d="M80.48,41.93a.11.11,0,0,1,0,.1.26.26,0,0,1-.14,0,2.19,2.19,0,0,1-.59,0,.22.22,0,0,1-.13,0,.11.11,0,0,1,0-.1v-.32A1.69,1.69,0,0,1,79,42a1.64,1.64,0,0,1-.71.15,1.87,1.87,0,0,1-.59-.09,1.33,1.33,0,0,1-.47-.25,1,1,0,0,1-.3-.41,1.41,1.41,0,0,1-.11-.57,1.31,1.31,0,0,1,.14-.61,1.06,1.06,0,0,1,.41-.43,1.82,1.82,0,0,1,.68-.25,4.44,4.44,0,0,1,1-.09h.39v-.24a1.55,1.55,0,0,0,0-.33.55.55,0,0,0-.13-.24.48.48,0,0,0-.24-.14,1.25,1.25,0,0,0-.36-.05,1.61,1.61,0,0,0-.51.07,2.08,2.08,0,0,0-.4.14,2.64,2.64,0,0,0-.29.14.42.42,0,0,1-.18.06.12.12,0,0,1-.09,0,.22.22,0,0,1-.07-.09,1.55,1.55,0,0,1,0-.15s0-.12,0-.19a1.18,1.18,0,0,1,0-.22.6.6,0,0,1,.09-.15.93.93,0,0,1,.22-.14,2.59,2.59,0,0,1,.37-.15,3.23,3.23,0,0,1,.47-.11,3,3,0,0,1,.52,0,3.12,3.12,0,0,1,.81.09,1.47,1.47,0,0,1,.56.28,1.23,1.23,0,0,1,.32.5,2.53,2.53,0,0,1,.09.72ZM79.36,40.2h-.43a2.11,2.11,0,0,0-.47,0,1.07,1.07,0,0,0-.32.12.57.57,0,0,0-.18.2.6.6,0,0,0-.06.27.51.51,0,0,0,.17.4.64.64,0,0,0,.44.14.83.83,0,0,0,.44-.12,1.49,1.49,0,0,0,.41-.36Z"/><path d="M85.49,41.92a.11.11,0,0,1,0,.08l-.09.06-.18,0h-.55l-.17,0-.1-.06a.19.19,0,0,1,0-.08V39.61a1.78,1.78,0,0,0,0-.46.84.84,0,0,0-.12-.29.55.55,0,0,0-.21-.19.72.72,0,0,0-.74.1,2.21,2.21,0,0,0-.46.46v2.69a.11.11,0,0,1,0,.08l-.09.06-.18,0h-.55l-.18,0L81.65,42a.11.11,0,0,1,0-.08V37.87a.13.13,0,0,1,0-.08.12.12,0,0,1,.08,0l.15,0h.47a.39.39,0,0,1,.15,0,.13.13,0,0,1,.07,0,.13.13,0,0,1,0,.08v.47a2.52,2.52,0,0,1,.68-.54,1.54,1.54,0,0,1,.72-.18,1.62,1.62,0,0,1,.7.13,1.3,1.3,0,0,1,.46.37,1.63,1.63,0,0,1,.25.55,3.25,3.25,0,0,1,.08.75Z"/><path d="M88.91,41.52a1.33,1.33,0,0,1,0,.31.35.35,0,0,1-.07.15.31.31,0,0,1-.12.07.48.48,0,0,1-.18.06l-.23,0H88a1.79,1.79,0,0,1-.59-.08,1,1,0,0,1-.41-.27,1.08,1.08,0,0,1-.24-.45,2.41,2.41,0,0,1-.07-.64V38.65h-.49c-.06,0-.1,0-.13-.11a1,1,0,0,1,0-.36c0-.08,0-.16,0-.22a.39.39,0,0,1,0-.14.16.16,0,0,1,.05-.08l.08,0h.49v-.9a.11.11,0,0,1,0-.08.15.15,0,0,1,.09-.06.6.6,0,0,1,.18,0h.55a.61.61,0,0,1,.17,0,.14.14,0,0,1,.1.06.19.19,0,0,1,0,.08v.9h.88l.08,0a.28.28,0,0,1,.06.08.42.42,0,0,1,0,.14,1.48,1.48,0,0,1,0,.22,1,1,0,0,1,0,.36.16.16,0,0,1-.13.11h-.89v1.9A.91.91,0,0,0,88,41a.4.4,0,0,0,.37.17l.16,0,.13,0,.1,0,.07,0,0,0a.09.09,0,0,1,0,.06.44.44,0,0,1,0,.13A1.34,1.34,0,0,1,88.91,41.52Z"/><path d="M93.36,39.78a.46.46,0,0,1-.09.31.36.36,0,0,1-.26.1H90.55a1.73,1.73,0,0,0,.06.47.81.81,0,0,0,.2.35.82.82,0,0,0,.34.23,1.52,1.52,0,0,0,.51.08,2.62,2.62,0,0,0,.52,0l.4-.09.27-.1A.45.45,0,0,1,93,41a.1.1,0,0,1,.07,0,.11.11,0,0,1,0,0,1,1,0,0,1,0,.12v.36s0,.08,0,.12a.19.19,0,0,1,0,.08l0,.07a.44.44,0,0,1-.16.08,2.74,2.74,0,0,1-.34.11l-.46.09a5.1,5.1,0,0,1-.57,0,3,3,0,0,1-.94-.14,1.72,1.72,0,0,1-.68-.41,1.8,1.8,0,0,1-.41-.7,3.6,3.6,0,0,1-.13-1,3.24,3.24,0,0,1,.14-1,2.05,2.05,0,0,1,.41-.74,1.79,1.79,0,0,1,.65-.46,2.35,2.35,0,0,1,.86-.15,2.26,2.26,0,0,1,.87.15,1.49,1.49,0,0,1,.59.41,1.61,1.61,0,0,1,.34.63,2.48,2.48,0,0,1,.11.79Zm-1.1-.33a1.13,1.13,0,0,0-.2-.75.72.72,0,0,0-.63-.28.89.89,0,0,0-.38.08.84.84,0,0,0-.27.22,1,1,0,0,0-.16.33,1.76,1.76,0,0,0-.07.4Z"/><path d="M97.15,40.78a1.26,1.26,0,0,1-.13.6,1.14,1.14,0,0,1-.37.44,1.57,1.57,0,0,1-.55.27,2.63,2.63,0,0,1-.7.09,2,2,0,0,1-.43,0,2.61,2.61,0,0,1-.37-.08L94.32,42l-.15-.1a.27.27,0,0,1-.08-.15,1.15,1.15,0,0,1,0-.3,1.22,1.22,0,0,1,0-.21.86.86,0,0,1,0-.13.09.09,0,0,1,0-.06l.07,0a.37.37,0,0,1,.15.06l.24.12a2.2,2.2,0,0,0,.34.13,1.46,1.46,0,0,0,.44.06,1.12,1.12,0,0,0,.27,0l.21-.09a.37.37,0,0,0,.13-.15.46.46,0,0,0,.05-.21.36.36,0,0,0-.09-.24.8.8,0,0,0-.22-.17,1.81,1.81,0,0,0-.31-.13l-.36-.14A3,3,0,0,1,94.7,40a1.83,1.83,0,0,1-.31-.24,1.15,1.15,0,0,1-.22-.35,1.32,1.32,0,0,1,0-1,1.07,1.07,0,0,1,.32-.41,1.51,1.51,0,0,1,.52-.27,2.5,2.5,0,0,1,.69-.09,2.23,2.23,0,0,1,.37,0,2.21,2.21,0,0,1,.32.07l.25.09.14.08a.19.19,0,0,1,.06.07l0,.08s0,.07,0,.12v.37a1.3,1.3,0,0,1,0,.13.09.09,0,0,1,0,.06h-.06a.24.24,0,0,1-.13,0l-.22-.1-.3-.1a1.46,1.46,0,0,0-.38,0,.7.7,0,0,0-.27,0,.48.48,0,0,0-.19.09.47.47,0,0,0-.11.13.51.51,0,0,0,0,.17.36.36,0,0,0,.08.24,1.06,1.06,0,0,0,.23.17,1.93,1.93,0,0,0,.32.13l.36.14a2.53,2.53,0,0,1,.37.18,1.22,1.22,0,0,1,.32.24,1,1,0,0,1,.22.35A1.14,1.14,0,0,1,97.15,40.78Z"/><path d="M103.94,43.52a.16.16,0,0,1,0,.09.17.17,0,0,1-.09.06l-.17,0h-.55l-.18,0-.09-.06a.29.29,0,0,1,0-.09V41.6a3.33,3.33,0,0,1-.32.26,1.24,1.24,0,0,1-.31.18,1.73,1.73,0,0,1-.32.11,1.79,1.79,0,0,1-.34,0,1.5,1.5,0,0,1-.76-.18,1.47,1.47,0,0,1-.51-.48,2.26,2.26,0,0,1-.29-.71,4,4,0,0,1-.09-.86,3.63,3.63,0,0,1,.12-1,2.16,2.16,0,0,1,.35-.73,1.46,1.46,0,0,1,.55-.47,1.71,1.71,0,0,1,.77-.16,1.66,1.66,0,0,1,.32,0,.91.91,0,0,1,.31.12,1.84,1.84,0,0,1,.32.22,4.36,4.36,0,0,1,.37.32v-.44a.12.12,0,0,1,0-.08.16.16,0,0,1,.08,0l.15,0h.46a.39.39,0,0,1,.15,0,.16.16,0,0,1,.08,0,.24.24,0,0,1,0,.08Zm-1.13-4.3a2.3,2.3,0,0,0-.47-.47.8.8,0,0,0-.47-.17.66.66,0,0,0-.38.11.83.83,0,0,0-.26.3,1.34,1.34,0,0,0-.15.41,2.5,2.5,0,0,0,0,.47,2.73,2.73,0,0,0,0,.5,1.36,1.36,0,0,0,.13.43.81.81,0,0,0,.25.3.67.67,0,0,0,.39.11.83.83,0,0,0,.22,0,.7.7,0,0,0,.23-.11,1.13,1.13,0,0,0,.24-.21l.27-.3Z"/><path d="M108.92,41.92a.11.11,0,0,1,0,.08.18.18,0,0,1-.08.06l-.15,0h-.47l-.15,0L108,42a.19.19,0,0,1,0-.08v-.47a2.57,2.57,0,0,1-.68.55,1.54,1.54,0,0,1-.72.18,1.62,1.62,0,0,1-.7-.14,1.2,1.2,0,0,1-.46-.37,1.46,1.46,0,0,1-.25-.55,3.31,3.31,0,0,1-.07-.77V37.87a.12.12,0,0,1,0-.08.19.19,0,0,1,.09,0l.18,0h.55a.61.61,0,0,1,.17,0,.19.19,0,0,1,.1,0,.24.24,0,0,1,0,.08v2.29a2.68,2.68,0,0,0,0,.48.78.78,0,0,0,.13.29.63.63,0,0,0,.21.19.73.73,0,0,0,.3.06.75.75,0,0,0,.44-.15,2.59,2.59,0,0,0,.47-.47V37.87a.13.13,0,0,1,0-.08.13.13,0,0,1,.09,0,.61.61,0,0,1,.17,0h.55l.18,0a.19.19,0,0,1,.09,0,.12.12,0,0,1,0,.08Z"/><path d="M113.81,39.78a.46.46,0,0,1-.09.31.38.38,0,0,1-.26.1H111a1.73,1.73,0,0,0,.06.47.79.79,0,0,0,.19.35.86.86,0,0,0,.35.23,1.5,1.5,0,0,0,.5.08,2.73,2.73,0,0,0,.53,0l.39-.09.28-.1a.45.45,0,0,1,.17,0,.08.08,0,0,1,.07,0l0,0a.37.37,0,0,1,0,.12,1,1,0,0,1,0,.19.91.91,0,0,1,0,.17.49.49,0,0,1,0,.12l0,.08,0,.07a.36.36,0,0,1-.16.08,2.53,2.53,0,0,1-.33.11l-.47.09a4.75,4.75,0,0,1-.56,0,3,3,0,0,1-1-.14A1.64,1.64,0,0,1,110,40.93a3.26,3.26,0,0,1-.13-1,3,3,0,0,1,.14-1,2.19,2.19,0,0,1,.4-.74,1.83,1.83,0,0,1,.66-.46,2.31,2.31,0,0,1,.86-.15,2.26,2.26,0,0,1,.87.15,1.57,1.57,0,0,1,.59.41,1.75,1.75,0,0,1,.34.63,2.79,2.79,0,0,1,.11.79Zm-1.11-.33a1.13,1.13,0,0,0-.19-.75.74.74,0,0,0-.64-.28.74.74,0,0,0-.64.3,1,1,0,0,0-.17.33,1.34,1.34,0,0,0-.06.4Z"/><path d="M55.16,50.25a.19.19,0,0,1,0,.08l-.08.06-.15,0h-.46l-.15,0-.08-.06a.11.11,0,0,1,0-.08V49.8a2.6,2.6,0,0,1-.66.52,1.51,1.51,0,0,1-.76.19,1.55,1.55,0,0,1-.78-.18,1.5,1.5,0,0,1-.52-.48,2,2,0,0,1-.29-.71,3.49,3.49,0,0,1-.1-.86,3.63,3.63,0,0,1,.12-1,2.14,2.14,0,0,1,.34-.73,1.46,1.46,0,0,1,.55-.47,1.7,1.7,0,0,1,.76-.16,1.38,1.38,0,0,1,.62.13,2.45,2.45,0,0,1,.55.41V44.3a.19.19,0,0,1,0-.08.15.15,0,0,1,.09-.06l.18,0,.28,0,.27,0a.61.61,0,0,1,.17,0q.08,0,.09.06a.11.11,0,0,1,0,.08ZM54,47.55a2.69,2.69,0,0,0-.47-.48.86.86,0,0,0-.47-.16.66.66,0,0,0-.38.11.83.83,0,0,0-.26.3,1.34,1.34,0,0,0-.15.41,2.49,2.49,0,0,0,0,.47,2.74,2.74,0,0,0,0,.5,1.44,1.44,0,0,0,.13.43.81.81,0,0,0,.25.3.67.67,0,0,0,.39.11.91.91,0,0,0,.23,0,1.13,1.13,0,0,0,.22-.11,1.5,1.5,0,0,0,.24-.21l.27-.3Z"/><path d="M60.05,48.11a.46.46,0,0,1-.1.31.34.34,0,0,1-.25.1H57.23a1.41,1.41,0,0,0,.07.47.79.79,0,0,0,.19.35.82.82,0,0,0,.34.23,1.56,1.56,0,0,0,.51.08,2.73,2.73,0,0,0,.53,0l.39-.09.27-.1a.49.49,0,0,1,.18,0h.07a.13.13,0,0,1,0,.06.35.35,0,0,1,0,.12s0,.11,0,.19,0,.12,0,.17,0,.08,0,.12l0,.08-.05.06s-.07,0-.16.09l-.33.11-.47.09a4.92,4.92,0,0,1-.56,0,3,3,0,0,1-1-.14,1.72,1.72,0,0,1-.68-.41,1.79,1.79,0,0,1-.4-.7,3.5,3.5,0,0,1,0-2,2.21,2.21,0,0,1,.41-.74,1.88,1.88,0,0,1,.65-.46,2.41,2.41,0,0,1,.87-.15,2.21,2.21,0,0,1,.86.15,1.5,1.5,0,0,1,.6.41,1.91,1.91,0,0,1,.34.63,2.79,2.79,0,0,1,.11.79Zm-1.11-.33a1.19,1.19,0,0,0-.19-.75.74.74,0,0,0-.64-.28.89.89,0,0,0-.38.08.84.84,0,0,0-.27.22,1.26,1.26,0,0,0-.16.33,1.76,1.76,0,0,0-.07.4Z"/><path d="M65.06,48.17a3.63,3.63,0,0,1-.12,1,2.29,2.29,0,0,1-.34.74,1.53,1.53,0,0,1-.55.46,1.58,1.58,0,0,1-.74.17,2.33,2.33,0,0,1-.38,0,1.33,1.33,0,0,1-.33-.13,1.6,1.6,0,0,1-.32-.21,3.22,3.22,0,0,1-.32-.32v.44a.11.11,0,0,1,0,.08.18.18,0,0,1-.08.06l-.15,0h-.46l-.15,0a.18.18,0,0,1-.08-.06.11.11,0,0,1,0-.08v-6a.16.16,0,0,1,0-.09l.09-.06.18,0h.55l.18,0,.09.06a.16.16,0,0,1,0,.09v2.23a1.86,1.86,0,0,1,.31-.26l.3-.18a1.31,1.31,0,0,1,.32-.1,1.87,1.87,0,0,1,.34,0,1.65,1.65,0,0,1,.77.17,1.5,1.5,0,0,1,.51.49,2.4,2.4,0,0,1,.29.71A3.89,3.89,0,0,1,65.06,48.17Zm-1.19.08a2.74,2.74,0,0,0,0-.5,1.29,1.29,0,0,0-.13-.42.82.82,0,0,0-.25-.3.66.66,0,0,0-.38-.11.78.78,0,0,0-.22,0,.8.8,0,0,0-.23.11,1.92,1.92,0,0,0-.23.2,2,2,0,0,0-.26.3v1.35a2.58,2.58,0,0,0,.46.47.8.8,0,0,0,.46.16.59.59,0,0,0,.37-.12.81.81,0,0,0,.26-.29,1.34,1.34,0,0,0,.15-.41A2.49,2.49,0,0,0,63.87,48.25Z"/><path d="M69.7,48.11a.46.46,0,0,1-.09.31.36.36,0,0,1-.26.1H66.89A1.73,1.73,0,0,0,67,49a.81.81,0,0,0,.2.35.82.82,0,0,0,.34.23,1.52,1.52,0,0,0,.51.08,2.62,2.62,0,0,0,.52,0l.4-.09.27-.1a.45.45,0,0,1,.18,0h.07s0,0,0,.06l0,.12v.36a.5.5,0,0,1,0,.12.19.19,0,0,1,0,.08l0,.06s-.07,0-.16.09a2.74,2.74,0,0,1-.34.11l-.46.09a5.1,5.1,0,0,1-.57,0,3,3,0,0,1-.94-.14,1.72,1.72,0,0,1-.68-.41,1.67,1.67,0,0,1-.4-.7,3.5,3.5,0,0,1,0-2,2.21,2.21,0,0,1,.41-.74,1.88,1.88,0,0,1,.65-.46,2.35,2.35,0,0,1,.86-.15,2.26,2.26,0,0,1,.87.15,1.4,1.4,0,0,1,.59.41,1.77,1.77,0,0,1,.35.63,2.8,2.8,0,0,1,.1.79Zm-1.1-.33a1.13,1.13,0,0,0-.2-.75.72.72,0,0,0-.63-.28.89.89,0,0,0-.38.08.84.84,0,0,0-.27.22,1.26,1.26,0,0,0-.16.33,1.76,1.76,0,0,0-.07.4Z"/><path d="M77.08,50.25a.11.11,0,0,1,0,.08.19.19,0,0,1-.09.05.61.61,0,0,1-.17,0h-.56l-.18,0a.19.19,0,0,1-.09-.05.19.19,0,0,1,0-.08v-2.4a1.4,1.4,0,0,0,0-.37,1.1,1.1,0,0,0-.12-.29.61.61,0,0,0-.2-.19.62.62,0,0,0-.29-.06.67.67,0,0,0-.41.16,2.47,2.47,0,0,0-.45.46v2.69a.11.11,0,0,1,0,.08.19.19,0,0,1-.09.05l-.18,0h-.55a.61.61,0,0,1-.17,0,.19.19,0,0,1-.09-.05.11.11,0,0,1,0-.08v-2.4a1.4,1.4,0,0,0,0-.37.83.83,0,0,0-.11-.29.72.72,0,0,0-.2-.19.65.65,0,0,0-.29-.06.67.67,0,0,0-.42.16,2.47,2.47,0,0,0-.45.46v2.69a.11.11,0,0,1,0,.08.19.19,0,0,1-.1.05.61.61,0,0,1-.17,0h-.55l-.18,0a.19.19,0,0,1-.09-.05.11.11,0,0,1,0-.08v-4a.24.24,0,0,1,0-.08.19.19,0,0,1,.09,0l.15,0h.47l.15,0a.13.13,0,0,1,.07,0,.13.13,0,0,1,0,.08v.47a2.49,2.49,0,0,1,.67-.54A1.42,1.42,0,0,1,73,46a1.55,1.55,0,0,1,.45,0,1.14,1.14,0,0,1,.36.15,1.18,1.18,0,0,1,.27.23,1.53,1.53,0,0,1,.19.3,3.46,3.46,0,0,1,.35-.33,2.33,2.33,0,0,1,.35-.23,1.4,1.4,0,0,1,.34-.13,1.32,1.32,0,0,1,.34,0,1.53,1.53,0,0,1,.68.13,1.18,1.18,0,0,1,.45.37A1.44,1.44,0,0,1,77,47a2.84,2.84,0,0,1,.08.66Z"/><path d="M82.29,48.19a3.14,3.14,0,0,1-.14.94,2,2,0,0,1-.41.73,1.83,1.83,0,0,1-.7.48,2.59,2.59,0,0,1-1,.17,2.69,2.69,0,0,1-.94-.15,1.63,1.63,0,0,1-.66-.44,1.66,1.66,0,0,1-.39-.7,3.12,3.12,0,0,1-.13-.95,3.16,3.16,0,0,1,.14-1,2,2,0,0,1,.41-.73,1.94,1.94,0,0,1,.7-.48,2.6,2.6,0,0,1,1-.16,2.66,2.66,0,0,1,.94.14,1.63,1.63,0,0,1,.66.44,1.9,1.9,0,0,1,.39.7A3.48,3.48,0,0,1,82.29,48.19Zm-1.18,0a2.39,2.39,0,0,0,0-.55,1.21,1.21,0,0,0-.16-.44.76.76,0,0,0-.3-.29.94.94,0,0,0-.47-.1,1.06,1.06,0,0,0-.45.09.8.8,0,0,0-.31.27,1.39,1.39,0,0,0-.18.43,2.52,2.52,0,0,0-.06.58,2.39,2.39,0,0,0,.05.55,1.21,1.21,0,0,0,.16.44.68.68,0,0,0,.3.28,1,1,0,0,0,.47.11,1.06,1.06,0,0,0,.45-.1.74.74,0,0,0,.31-.27,1.21,1.21,0,0,0,.18-.43A2.37,2.37,0,0,0,81.11,48.23Z"/><path d="M86,49.11a1.4,1.4,0,0,1-.13.6,1.14,1.14,0,0,1-.37.44,1.62,1.62,0,0,1-.56.27,2.5,2.5,0,0,1-.69.09,2.06,2.06,0,0,1-.44,0,3,3,0,0,1-.37-.08,1.86,1.86,0,0,1-.27-.11l-.16-.1A.26.26,0,0,1,83,50a1.15,1.15,0,0,1,0-.3,1.22,1.22,0,0,1,0-.21.39.39,0,0,1,0-.13s0,0,0-.06l.07,0a.3.3,0,0,1,.14.06l.25.12a2.06,2.06,0,0,0,.33.13,1.51,1.51,0,0,0,.44.06,1.14,1.14,0,0,0,.28,0,1,1,0,0,0,.21-.1.35.35,0,0,0,.13-.14.49.49,0,0,0,0-.21.35.35,0,0,0-.08-.24,1,1,0,0,0-.22-.17,2.22,2.22,0,0,0-.31-.13L84,48.52a2.42,2.42,0,0,1-.36-.18,1.26,1.26,0,0,1-.31-.25,1,1,0,0,1-.23-.34,1.44,1.44,0,0,1-.08-.49,1.33,1.33,0,0,1,.11-.54,1.2,1.2,0,0,1,.33-.41,1.43,1.43,0,0,1,.52-.27,2.4,2.4,0,0,1,.69-.09A2.3,2.3,0,0,1,85,46l.32.07.25.09.14.08a.19.19,0,0,1,.06.07l0,.08s0,.07,0,.12a.86.86,0,0,1,0,.17,1.15,1.15,0,0,1,0,.2.51.51,0,0,1,0,.13l0,.06h-.07a.21.21,0,0,1-.12,0l-.22-.1-.3-.1a1.48,1.48,0,0,0-.39,0,1,1,0,0,0-.26,0l-.19.09a.49.49,0,0,0-.11.14.51.51,0,0,0,0,.17.32.32,0,0,0,.08.24.86.86,0,0,0,.23.17,1.93,1.93,0,0,0,.32.13l.36.14.36.18a1.19,1.19,0,0,1,.55.59A1.14,1.14,0,0,1,86,49.11Z"/><path d="M91.39,49.85a1.3,1.3,0,0,1,0,.31.57.57,0,0,1-.06.15l-.12.07a1.06,1.06,0,0,1-.19.06l-.23,0h-.25a2,2,0,0,1-.59-.08,1,1,0,0,1-.42-.27,1.21,1.21,0,0,1-.24-.45,2.46,2.46,0,0,1-.07-.64V47H88.7c-.06,0-.1,0-.13-.11a1,1,0,0,1,0-.36,1.27,1.27,0,0,1,0-.22.42.42,0,0,1,0-.14.17.17,0,0,1,.06-.08l.08,0h.48v-.9a.11.11,0,0,1,0-.08A.22.22,0,0,1,89.3,45l.18,0H90l.18,0a.22.22,0,0,1,.09.07.11.11,0,0,1,0,.08v.9h.88l.08,0a.12.12,0,0,1,.06.08.26.26,0,0,1,0,.14,1.27,1.27,0,0,1,0,.22,1,1,0,0,1,0,.36c0,.07-.07.11-.13.11h-.89v1.89a.93.93,0,0,0,.11.5.4.4,0,0,0,.37.17l.16,0a.4.4,0,0,0,.13,0l.1,0,.07,0,0,0a.09.09,0,0,1,0,.06.44.44,0,0,1,0,.13A1.25,1.25,0,0,1,91.39,49.85Z"/><path d="M96.21,48.19a2.85,2.85,0,0,1-.14.94,1.87,1.87,0,0,1-.41.73,1.72,1.72,0,0,1-.69.48,2.68,2.68,0,0,1-1,.17,2.59,2.59,0,0,1-.93-.15,1.74,1.74,0,0,1-.67-.44,1.9,1.9,0,0,1-.39-.7,3.48,3.48,0,0,1-.12-.95,3.16,3.16,0,0,1,.13-1,2,2,0,0,1,.42-.73,1.82,1.82,0,0,1,.69-.48,2.63,2.63,0,0,1,1-.16,2.72,2.72,0,0,1,1,.14,1.78,1.78,0,0,1,.66.44,1.75,1.75,0,0,1,.38.7A3.14,3.14,0,0,1,96.21,48.19Zm-1.17,0a3.12,3.12,0,0,0-.05-.55,1.43,1.43,0,0,0-.16-.44.92.92,0,0,0-.3-.29,1,1,0,0,0-.48-.1,1,1,0,0,0-.44.09.74.74,0,0,0-.31.27,1.2,1.2,0,0,0-.19.43,2.52,2.52,0,0,0-.06.58,3.12,3.12,0,0,0,0,.55,1.43,1.43,0,0,0,.16.44.8.8,0,0,0,.3.28,1.06,1.06,0,0,0,.92,0,.83.83,0,0,0,.32-.27A1.21,1.21,0,0,0,95,48.8,2.37,2.37,0,0,0,95,48.23Z"/><path d="M103.55,50.25a.11.11,0,0,1,0,.08.19.19,0,0,1-.09.05.61.61,0,0,1-.17,0h-.56l-.18,0a.19.19,0,0,1-.09-.05.19.19,0,0,1,0-.08v-2.4a1.4,1.4,0,0,0,0-.37.84.84,0,0,0-.12-.29.52.52,0,0,0-.48-.25.67.67,0,0,0-.42.16,2.47,2.47,0,0,0-.45.46v2.69a.11.11,0,0,1,0,.08.19.19,0,0,1-.09.05l-.18,0h-.54l-.18,0a.19.19,0,0,1-.09-.05.11.11,0,0,1,0-.08v-2.4a1.4,1.4,0,0,0,0-.37.83.83,0,0,0-.11-.29.61.61,0,0,0-.2-.19.65.65,0,0,0-.29-.06.67.67,0,0,0-.42.16,2.46,2.46,0,0,0-.44.46v2.69a.11.11,0,0,1,0,.08.19.19,0,0,1-.09.05l-.18,0h-.55l-.18,0a.19.19,0,0,1-.09-.05.11.11,0,0,1,0-.08v-4a.13.13,0,0,1,0-.08.12.12,0,0,1,.08,0l.15,0h.47a.39.39,0,0,1,.15,0,.13.13,0,0,1,.07,0,.13.13,0,0,1,0,.08v.47a2.49,2.49,0,0,1,.67-.54,1.42,1.42,0,0,1,.69-.18,1.55,1.55,0,0,1,.45,0,1.14,1.14,0,0,1,.36.15,1.18,1.18,0,0,1,.27.23,1.53,1.53,0,0,1,.19.3,3.46,3.46,0,0,1,.35-.33,3,3,0,0,1,.35-.23,1.58,1.58,0,0,1,.34-.13,1.34,1.34,0,0,1,.35,0,1.59,1.59,0,0,1,.68.13,1.23,1.23,0,0,1,.44.37,1.3,1.3,0,0,1,.24.55,2.84,2.84,0,0,1,.08.66Z"/><path d="M108.11,50.26a.12.12,0,0,1,0,.1.26.26,0,0,1-.14,0l-.29,0-.3,0c-.06,0-.11,0-.13,0a.12.12,0,0,1,0-.1v-.32a1.91,1.91,0,0,1-.57.42,1.64,1.64,0,0,1-.71.15,1.87,1.87,0,0,1-.59-.09,1.25,1.25,0,0,1-.47-.25,1,1,0,0,1-.3-.41,1.26,1.26,0,0,1-.11-.57,1.2,1.2,0,0,1,.14-.61,1.06,1.06,0,0,1,.41-.43,1.82,1.82,0,0,1,.68-.25,4.44,4.44,0,0,1,.95-.09H107v-.24a1.55,1.55,0,0,0,0-.33.55.55,0,0,0-.13-.24.48.48,0,0,0-.24-.14,1.25,1.25,0,0,0-.36,0,2,2,0,0,0-.51.06,3.06,3.06,0,0,0-.4.15,2.64,2.64,0,0,0-.29.14.41.41,0,0,1-.19.06.11.11,0,0,1-.08,0,.22.22,0,0,1-.07-.09,1.55,1.55,0,0,1,0-.15c0-.06,0-.12,0-.19a1.18,1.18,0,0,1,0-.22.6.6,0,0,1,.09-.15.93.93,0,0,1,.22-.14,1.79,1.79,0,0,1,.37-.15,3.28,3.28,0,0,1,1-.15,3.18,3.18,0,0,1,.81.09,1.47,1.47,0,0,1,.56.28,1.12,1.12,0,0,1,.31.5,2.2,2.2,0,0,1,.1.72ZM107,48.53h-.43a2.11,2.11,0,0,0-.47,0,1.07,1.07,0,0,0-.32.12.57.57,0,0,0-.18.2.6.6,0,0,0-.06.27.5.5,0,0,0,.16.39.64.64,0,0,0,.45.15.83.83,0,0,0,.44-.12,1.49,1.49,0,0,0,.41-.36Z"/><path d="M111.85,46.58a2.1,2.1,0,0,1,0,.27.57.57,0,0,1,0,.16s0,.07,0,.08a.11.11,0,0,1-.08,0l-.08,0-.1,0-.13,0h-.15l-.19,0a1,1,0,0,0-.19.12,2.27,2.27,0,0,0-.22.22c-.07.09-.15.2-.24.34v2.52a.11.11,0,0,1,0,.08.19.19,0,0,1-.1.05.61.61,0,0,1-.17,0h-.55l-.18,0a.19.19,0,0,1-.09-.05.11.11,0,0,1,0-.08v-4a.24.24,0,0,1,0-.08.19.19,0,0,1,.09,0l.15,0H110l.15,0a.13.13,0,0,1,.07,0,.13.13,0,0,1,0,.08v.51a2.52,2.52,0,0,1,.3-.38,1.72,1.72,0,0,1,.26-.23.76.76,0,0,1,.26-.12,1.07,1.07,0,0,1,.25,0h.13l.14,0,.13,0,.07,0,0,.05a.19.19,0,0,1,0,.08s0,.08,0,.14Z"/><path d="M113.08,49.75a.81.81,0,0,1-.15.57.78.78,0,0,1-.53.14.55.55,0,0,1-.67-.68.78.78,0,0,1,.15-.57.73.73,0,0,1,.53-.15.75.75,0,0,1,.52.14A.77.77,0,0,1,113.08,49.75Z"/><path d="M43,66a2.28,2.28,0,0,1,.13-.76,1.63,1.63,0,0,1,.34-.59,1.52,1.52,0,0,1,.53-.4,1.85,1.85,0,0,1,.68-.19l0-1c0-.07.05-.11.15-.14a1.11,1.11,0,0,1,.41,0h.29a.45.45,0,0,1,.18,0,.19.19,0,0,1,.1.05.3.3,0,0,1,0,.1l0,1.22a2.1,2.1,0,0,1,0,.27.34.34,0,0,1-.08.16.26.26,0,0,1-.14.09.55.55,0,0,1-.19,0h-.08a1.13,1.13,0,0,0-.47.09,1.14,1.14,0,0,0-.33.23,1,1,0,0,0-.19.35,1.42,1.42,0,0,0-.06.42,1.63,1.63,0,0,0,.07.45,1.07,1.07,0,0,0,.21.36,1,1,0,0,0,.36.23,1.56,1.56,0,0,0,.51.08A2.09,2.09,0,0,0,46,67a2,2,0,0,0,.35-.12l.24-.11a.43.43,0,0,1,.15,0l.07,0a.19.19,0,0,1,0,.09s0,.1,0,.17a2.33,2.33,0,0,1,0,.29,1.65,1.65,0,0,1,0,.27.21.21,0,0,1-.07.13.52.52,0,0,1-.19.12,2.34,2.34,0,0,1-.35.13l-.45.11a4.38,4.38,0,0,1-.52,0,3,3,0,0,1-1.05-.17,1.9,1.9,0,0,1-.71-.46,1.84,1.84,0,0,1-.41-.65A2.45,2.45,0,0,1,43,66Zm1.54-4.44a1.69,1.69,0,0,1,0-.35A.46.46,0,0,1,44.7,61a.42.42,0,0,1,.23-.12,1.16,1.16,0,0,1,.35,0,1.28,1.28,0,0,1,.36,0,.43.43,0,0,1,.22.12.46.46,0,0,1,.12.24,1.69,1.69,0,0,1,0,.35,1.9,1.9,0,0,1,0,.37.46.46,0,0,1-.12.24.54.54,0,0,1-.22.13,1.79,1.79,0,0,1-.36,0,1.61,1.61,0,0,1-.35,0,.52.52,0,0,1-.23-.13.46.46,0,0,1-.12-.24A1.9,1.9,0,0,1,44.55,61.56Z"/><path d="M53.76,66.59a.49.49,0,0,1,0,.21.58.58,0,0,1-.11.15.28.28,0,0,1-.17.09.63.63,0,0,1-.19,0h-.58a1.35,1.35,0,0,1-.31,0,.69.69,0,0,1-.25-.14,1.38,1.38,0,0,1-.21-.25,4.8,4.8,0,0,1-.24-.43L50,63.09l-.29-.61q-.15-.31-.27-.63h0l0,.75c0,.25,0,.5,0,.76v3.51a.12.12,0,0,1,0,.09.15.15,0,0,1-.1.07.64.64,0,0,1-.19,0h-.6a.74.74,0,0,1-.19,0,.13.13,0,0,1-.09-.07.12.12,0,0,1,0-.09v-6a.46.46,0,0,1,.14-.36.55.55,0,0,1,.35-.12h.74a1.55,1.55,0,0,1,.33,0,.66.66,0,0,1,.24.11.86.86,0,0,1,.2.22,3.2,3.2,0,0,1,.19.34l1.31,2.45c.07.15.15.29.22.44s.15.28.22.43.13.28.2.42.13.27.19.41h0c0-.24,0-.49,0-.75s0-.52,0-.76V60.56a.12.12,0,0,1,0-.09.31.31,0,0,1,.11-.08l.19,0h.6l.19,0a.24.24,0,0,1,.09.08.2.2,0,0,1,0,.09Z"/><path d="M59.82,64.53a3.4,3.4,0,0,1-.16,1.08,2.31,2.31,0,0,1-.47.84,2.14,2.14,0,0,1-.79.54,3,3,0,0,1-1.12.19A3.16,3.16,0,0,1,56.21,67a1.87,1.87,0,0,1-.75-.5,2,2,0,0,1-.45-.8,3.64,3.64,0,0,1-.15-1.09A3.71,3.71,0,0,1,55,63.54a2.31,2.31,0,0,1,.48-.84,2.14,2.14,0,0,1,.79-.54A2.87,2.87,0,0,1,57.4,62a3,3,0,0,1,1.08.17,1.85,1.85,0,0,1,.75.49,2,2,0,0,1,.44.8A3.7,3.7,0,0,1,59.82,64.53Zm-1.34,0a3.06,3.06,0,0,0-.06-.63,1.48,1.48,0,0,0-.18-.5.93.93,0,0,0-.35-.33,1.08,1.08,0,0,0-.54-.12,1.19,1.19,0,0,0-.51.11.87.87,0,0,0-.35.31,1.21,1.21,0,0,0-.21.49,2.59,2.59,0,0,0-.07.65,4,4,0,0,0,0,.63,1.41,1.41,0,0,0,.19.5.77.77,0,0,0,.34.33,1.26,1.26,0,0,0,1.05,0,.88.88,0,0,0,.36-.3,1.45,1.45,0,0,0,.21-.49A3.26,3.26,0,0,0,58.48,64.58Z"/><path d="M64.1,65.58a1.52,1.52,0,0,1-.14.69,1.39,1.39,0,0,1-.42.51,2,2,0,0,1-.64.3,2.87,2.87,0,0,1-.8.1,2.63,2.63,0,0,1-.49,0,2.16,2.16,0,0,1-.42-.1,2,2,0,0,1-.31-.12,1,1,0,0,1-.19-.11.51.51,0,0,1-.08-.18,1.31,1.31,0,0,1,0-.34,1.44,1.44,0,0,1,0-.24.33.33,0,0,1,0-.15.13.13,0,0,1,.05-.07l.08,0a.47.47,0,0,1,.16.07l.28.14.39.15a1.85,1.85,0,0,0,.5.06,1.48,1.48,0,0,0,.31,0,.88.88,0,0,0,.24-.11.35.35,0,0,0,.15-.17.47.47,0,0,0,0-.24.39.39,0,0,0-.09-.26.9.9,0,0,0-.26-.2l-.35-.15-.41-.16a3.17,3.17,0,0,1-.41-.21,1.35,1.35,0,0,1-.36-.28A1.3,1.3,0,0,1,60.7,64a1.4,1.4,0,0,1-.1-.56,1.36,1.36,0,0,1,.13-.61,1.35,1.35,0,0,1,.37-.48,1.78,1.78,0,0,1,.6-.3,2.37,2.37,0,0,1,.78-.11,2.77,2.77,0,0,1,.42,0,3,3,0,0,1,.37.08,1.39,1.39,0,0,1,.29.1l.16.09.07.08,0,.09s0,.08,0,.14,0,.12,0,.2,0,.17,0,.22a1.06,1.06,0,0,1,0,.14.1.1,0,0,1-.05.07.08.08,0,0,1-.07,0l-.15,0-.24-.12A2.27,2.27,0,0,0,63,63a1.53,1.53,0,0,0-.45-.06.91.91,0,0,0-.3,0A.64.64,0,0,0,62,63a.61.61,0,0,0-.12.16.41.41,0,0,0,0,.19.36.36,0,0,0,.1.27.65.65,0,0,0,.26.19,2.43,2.43,0,0,0,.36.16l.42.16a2.58,2.58,0,0,1,.41.2,1.44,1.44,0,0,1,.37.28,1.21,1.21,0,0,1,.35.94Z"/><path d="M71.42,66.9a.17.17,0,0,1,0,.12l-.16.06h-.67L70.39,67a.17.17,0,0,1,0-.12v-.37a1.9,1.9,0,0,1-.65.48,1.92,1.92,0,0,1-.81.17,2.36,2.36,0,0,1-.67-.09,1.56,1.56,0,0,1-.54-.29,1.26,1.26,0,0,1-.35-.47,1.6,1.6,0,0,1-.12-.65,1.42,1.42,0,0,1,.16-.7,1.25,1.25,0,0,1,.47-.5,2.31,2.31,0,0,1,.78-.28,5,5,0,0,1,1.08-.1h.45v-.28a1.48,1.48,0,0,0,0-.38.59.59,0,0,0-.15-.27.61.61,0,0,0-.27-.16,1.58,1.58,0,0,0-.41,0,2.12,2.12,0,0,0-.59.07,3.33,3.33,0,0,0-.45.16l-.33.16a.46.46,0,0,1-.21.07.2.2,0,0,1-.11,0,.3.3,0,0,1-.07-.11.62.62,0,0,1,0-.16,1.5,1.5,0,0,1,0-.22.81.81,0,0,1,0-.25.3.3,0,0,1,.1-.17.81.81,0,0,1,.25-.17c.12-.06.26-.11.42-.17a3.92,3.92,0,0,1,.54-.12,2.88,2.88,0,0,1,.59-.05,3.63,3.63,0,0,1,.93.1,1.57,1.57,0,0,1,.63.33,1.31,1.31,0,0,1,.37.57,2.81,2.81,0,0,1,.11.82Zm-1.28-2h-.5a2.58,2.58,0,0,0-.53,0,1.14,1.14,0,0,0-.37.14.59.59,0,0,0-.2.22.62.62,0,0,0-.07.31.55.55,0,0,0,.19.45.73.73,0,0,0,.51.17,1,1,0,0,0,.5-.14,1.92,1.92,0,0,0,.47-.41Z"/><path d="M76.22,66.15a1.55,1.55,0,0,1,0,.23.61.61,0,0,1,0,.15l0,.1a.31.31,0,0,1-.08.1.83.83,0,0,1-.21.14,2.29,2.29,0,0,1-.35.16,3.44,3.44,0,0,1-.41.11,3.57,3.57,0,0,1-.47,0A2.5,2.5,0,0,1,73.7,67a1.64,1.64,0,0,1-.69-.49,2.15,2.15,0,0,1-.43-.79,3.85,3.85,0,0,1-.14-1.07,3.61,3.61,0,0,1,.18-1.2,2.19,2.19,0,0,1,.48-.83,2,2,0,0,1,.74-.5,2.75,2.75,0,0,1,.93-.16,2.85,2.85,0,0,1,.41,0,2.24,2.24,0,0,1,.37.1l.31.14a1,1,0,0,1,.19.13.31.31,0,0,1,.08.1.23.23,0,0,1,0,.1.61.61,0,0,1,0,.15,1.48,1.48,0,0,1,0,.22,1.43,1.43,0,0,1,0,.43c0,.08-.08.12-.14.12a.29.29,0,0,1-.18-.08l-.24-.16a2.38,2.38,0,0,0-.32-.16,1.4,1.4,0,0,0-.44-.07.89.89,0,0,0-.78.39,2,2,0,0,0-.27,1.15,2.62,2.62,0,0,0,.07.66,1.19,1.19,0,0,0,.2.47.72.72,0,0,0,.33.29,1,1,0,0,0,.46.1,1.32,1.32,0,0,0,.47-.08,2.45,2.45,0,0,0,.33-.18l.25-.18a.3.3,0,0,1,.16-.08.1.1,0,0,1,.08,0,.13.13,0,0,1,.05.09s0,.11,0,.18A2.27,2.27,0,0,1,76.22,66.15Z"/><path d="M81.79,64.53a3.71,3.71,0,0,1-.16,1.08,2.31,2.31,0,0,1-.47.84,2.22,2.22,0,0,1-.79.54,3,3,0,0,1-1.12.19A3.12,3.12,0,0,1,78.18,67a1.84,1.84,0,0,1-.76-.5,1.89,1.89,0,0,1-.44-.8,3.64,3.64,0,0,1-.15-1.09A3.4,3.4,0,0,1,77,63.54a2.29,2.29,0,0,1,.47-.84,2.22,2.22,0,0,1,.79-.54A3,3,0,0,1,79.37,62a2.9,2.9,0,0,1,1.07.17,1.82,1.82,0,0,1,.76.49,2.14,2.14,0,0,1,.44.8A3.7,3.7,0,0,1,81.79,64.53Zm-1.35,0a3.1,3.1,0,0,0,0-.63,1.73,1.73,0,0,0-.18-.5,1,1,0,0,0-.35-.33,1.08,1.08,0,0,0-.54-.12,1.19,1.19,0,0,0-.51.11,1,1,0,0,0-.36.31,1.57,1.57,0,0,0-.21.49,3.16,3.16,0,0,0-.07.65,3.06,3.06,0,0,0,.06.63,1.63,1.63,0,0,0,.18.5.79.79,0,0,0,.35.33,1.08,1.08,0,0,0,.54.12,1.13,1.13,0,0,0,.51-.11.88.88,0,0,0,.36-.3,1.69,1.69,0,0,0,.21-.49A3.3,3.3,0,0,0,80.44,64.58Z"/><path d="M90.17,66.89a.16.16,0,0,1,0,.09L90,67l-.2,0H89.2a.88.88,0,0,1-.2,0L88.9,67a.16.16,0,0,1,0-.09V64.14a1.86,1.86,0,0,0-.05-.42.82.82,0,0,0-.13-.33.66.66,0,0,0-.23-.21.67.67,0,0,0-.33-.08.79.79,0,0,0-.47.18,3.76,3.76,0,0,0-.52.53v3.08a.16.16,0,0,1,0,.09L87,67l-.2,0h-.63a.88.88,0,0,1-.2,0L85.87,67a.16.16,0,0,1,0-.09V64.14a1.87,1.87,0,0,0,0-.42,1,1,0,0,0-.13-.33.66.66,0,0,0-.23-.21.67.67,0,0,0-.33-.08.75.75,0,0,0-.47.18,3.76,3.76,0,0,0-.52.53v3.08a.16.16,0,0,1,0,.09L84,67a.69.69,0,0,1-.19,0h-.64a.88.88,0,0,1-.2,0l-.1-.06a.16.16,0,0,1,0-.09V62.26a.15.15,0,0,1,0-.09l.1-.06a.61.61,0,0,1,.17,0h.54a.61.61,0,0,1,.17,0,.18.18,0,0,1,.08.06.16.16,0,0,1,0,.09v.54a2.92,2.92,0,0,1,.76-.62,1.65,1.65,0,0,1,.8-.21A2,2,0,0,1,86,62a1.26,1.26,0,0,1,.41.17,1.14,1.14,0,0,1,.31.27,1.52,1.52,0,0,1,.22.34,3.5,3.5,0,0,1,.4-.38,2.7,2.7,0,0,1,.4-.26,1.56,1.56,0,0,1,.39-.15,1.31,1.31,0,0,1,.39-.05,1.81,1.81,0,0,1,.78.15,1.43,1.43,0,0,1,.51.43,1.68,1.68,0,0,1,.28.62,3.69,3.69,0,0,1,.08.76Z"/><path d="M96.1,64.51A4.23,4.23,0,0,1,96,65.62a2.71,2.71,0,0,1-.38.84A1.76,1.76,0,0,1,95,67a2,2,0,0,1-.86.18,1.4,1.4,0,0,1-.37,0,1.1,1.1,0,0,1-.33-.12,1.8,1.8,0,0,1-.31-.2,2.67,2.67,0,0,1-.32-.28v2.18a.12.12,0,0,1,0,.09.3.3,0,0,1-.11.07.83.83,0,0,1-.2.05h-.63a.72.72,0,0,1-.2-.05.23.23,0,0,1-.11-.07.12.12,0,0,1,0-.09V62.26a.16.16,0,0,1,0-.09.17.17,0,0,1,.09-.06.61.61,0,0,1,.17,0h.53l.17,0,.09.06a.15.15,0,0,1,0,.09v.55c.14-.14.27-.26.4-.37a2.48,2.48,0,0,1,.4-.26,1.59,1.59,0,0,1,.41-.16,2.31,2.31,0,0,1,.46-.05,1.8,1.8,0,0,1,.87.2,1.58,1.58,0,0,1,.58.54,2.65,2.65,0,0,1,.33.81A4.49,4.49,0,0,1,96.1,64.51Zm-1.35.09a3.45,3.45,0,0,0,0-.57,1.69,1.69,0,0,0-.15-.48.86.86,0,0,0-.28-.34.67.67,0,0,0-.43-.13,1.17,1.17,0,0,0-.26,0,1.26,1.26,0,0,0-.26.13,2.38,2.38,0,0,0-.27.23,3.62,3.62,0,0,0-.29.34v1.53a2.62,2.62,0,0,0,.52.53.84.84,0,0,0,.52.19.69.69,0,0,0,.43-.13.88.88,0,0,0,.29-.34,1.38,1.38,0,0,0,.17-.47A2.39,2.39,0,0,0,94.75,64.6Z"/><path d="M101.08,66.9a.13.13,0,0,1,0,.12l-.16.06h-.67l-.15-.06a.16.16,0,0,1,0-.12v-.37a1.92,1.92,0,0,1-1.47.65,2.36,2.36,0,0,1-.67-.09,1.56,1.56,0,0,1-.54-.29,1.38,1.38,0,0,1-.35-.47,1.6,1.6,0,0,1-.12-.65A1.42,1.42,0,0,1,97,65a1.25,1.25,0,0,1,.47-.5,2.31,2.31,0,0,1,.78-.28,5,5,0,0,1,1.08-.1h.45v-.28a1.48,1.48,0,0,0,0-.38.59.59,0,0,0-.15-.27.53.53,0,0,0-.26-.16,1.73,1.73,0,0,0-.42,0,2,2,0,0,0-.58.07,3,3,0,0,0-.46.16l-.33.16a.43.43,0,0,1-.21.07.17.17,0,0,1-.1,0,.31.31,0,0,1-.08-.11.62.62,0,0,1,0-.16,1.5,1.5,0,0,1,0-.22.81.81,0,0,1,0-.25.37.37,0,0,1,.1-.17,1,1,0,0,1,.25-.17c.12-.06.27-.11.43-.17a3.77,3.77,0,0,1,.53-.12A2.88,2.88,0,0,1,99,62a3.58,3.58,0,0,1,.93.1,1.69,1.69,0,0,1,.64.33A1.39,1.39,0,0,1,101,63a2.5,2.5,0,0,1,.11.82Zm-1.28-2h-.49a2.76,2.76,0,0,0-.54,0,1.14,1.14,0,0,0-.37.14.59.59,0,0,0-.2.22.75.75,0,0,0-.06.31.58.58,0,0,0,.18.45.73.73,0,0,0,.51.17,1,1,0,0,0,.51-.14,1.89,1.89,0,0,0,.46-.41Z"/><path d="M106.8,66.89a.16.16,0,0,1,0,.09l-.1.06a.88.88,0,0,1-.2,0h-.64l-.2,0-.1-.06a.16.16,0,0,1,0-.09V64.25a2.37,2.37,0,0,0,0-.53,1,1,0,0,0-.14-.33.61.61,0,0,0-.24-.21.78.78,0,0,0-.35-.08.88.88,0,0,0-.5.18,2.94,2.94,0,0,0-.53.53v3.08a.16.16,0,0,1,0,.09l-.11.06a.77.77,0,0,1-.2,0h-.63a.88.88,0,0,1-.2,0l-.1-.06a.16.16,0,0,1,0-.09V62.26a.15.15,0,0,1,0-.09l.09-.06.18,0h.54a.61.61,0,0,1,.17,0,.18.18,0,0,1,.08.06.16.16,0,0,1,0,.09v.54a2.69,2.69,0,0,1,.78-.62,1.73,1.73,0,0,1,.83-.21,1.86,1.86,0,0,1,.79.15,1.38,1.38,0,0,1,.52.43,1.55,1.55,0,0,1,.29.62,3.6,3.6,0,0,1,.09.86Zm-.36-6.75a1.38,1.38,0,0,1-.3,1,1,1,0,0,1-.82.33,1.28,1.28,0,0,1-.36,0,.86.86,0,0,1-.28-.11,1.18,1.18,0,0,1-.22-.14l-.2-.14-.18-.11a.45.45,0,0,0-.2,0,.26.26,0,0,0-.24.12.61.61,0,0,0-.07.32.12.12,0,0,1,0,.07.1.1,0,0,1-.06,0l-.13,0H103l-.12,0a.13.13,0,0,1-.06-.07.18.18,0,0,1,0-.11,1.37,1.37,0,0,1,.29-.94,1,1,0,0,1,.83-.35,1.28,1.28,0,0,1,.5.09,2.43,2.43,0,0,1,.36.2l.29.21a.51.51,0,0,0,.28.09.28.28,0,0,0,.24-.11.54.54,0,0,0,.08-.33.12.12,0,0,1,.08-.12,1.08,1.08,0,0,1,.32,0,.82.82,0,0,1,.32,0A.18.18,0,0,1,106.44,60.14Z"/><path d="M112,66.9a.17.17,0,0,1,0,.12l-.17.06h-.66A.53.53,0,0,1,111,67a.21.21,0,0,1,0-.12v-.37a2,2,0,0,1-.65.48,1.92,1.92,0,0,1-.81.17,2.43,2.43,0,0,1-.68-.09,1.6,1.6,0,0,1-.53-.29,1.26,1.26,0,0,1-.35-.47,1.6,1.6,0,0,1-.12-.65A1.54,1.54,0,0,1,108,65a1.4,1.4,0,0,1,.47-.5,2.31,2.31,0,0,1,.78-.28,5.12,5.12,0,0,1,1.09-.1h.45v-.28a1.46,1.46,0,0,0,0-.38.5.5,0,0,0-.14-.27.61.61,0,0,0-.27-.16,1.61,1.61,0,0,0-.42,0,2.1,2.1,0,0,0-.58.07,3.33,3.33,0,0,0-.45.16l-.33.16a.46.46,0,0,1-.22.07.17.17,0,0,1-.1,0,.3.3,0,0,1-.07-.11.6.6,0,0,1,0-.16,1.55,1.55,0,0,1,0-.22,1.47,1.47,0,0,1,0-.25.48.48,0,0,1,.1-.17,1.05,1.05,0,0,1,.26-.17c.12-.06.26-.11.42-.17a4.12,4.12,0,0,1,.53-.12A3,3,0,0,1,110,62a3.63,3.63,0,0,1,.93.1,1.64,1.64,0,0,1,.63.33,1.21,1.21,0,0,1,.36.57,2.49,2.49,0,0,1,.12.82Zm-1.28-2h-.5a2.76,2.76,0,0,0-.54,0,1,1,0,0,0-.36.14.73.73,0,0,0-.21.22.75.75,0,0,0-.06.31.58.58,0,0,0,.18.45.77.77,0,0,0,.51.17,1,1,0,0,0,.51-.14,2.12,2.12,0,0,0,.47-.41Z"/><path d="M116.57,65.58a1.67,1.67,0,0,1-.14.69,1.39,1.39,0,0,1-.42.51,2,2,0,0,1-.64.3,2.87,2.87,0,0,1-.8.1,2.63,2.63,0,0,1-.49,0,2.16,2.16,0,0,1-.42-.1,2,2,0,0,1-.31-.12,1,1,0,0,1-.19-.11.51.51,0,0,1-.08-.18,1.31,1.31,0,0,1,0-.34,1.44,1.44,0,0,1,0-.24.33.33,0,0,1,0-.15.13.13,0,0,1,0-.07l.08,0a.47.47,0,0,1,.16.07l.28.14.39.15a1.85,1.85,0,0,0,.5.06,1.48,1.48,0,0,0,.31,0,.88.88,0,0,0,.24-.11.35.35,0,0,0,.15-.17.47.47,0,0,0,0-.24.39.39,0,0,0-.09-.26.9.9,0,0,0-.26-.2l-.35-.15-.41-.16a3.17,3.17,0,0,1-.41-.21,1.35,1.35,0,0,1-.36-.28,1.14,1.14,0,0,1-.25-.39,1.4,1.4,0,0,1-.1-.56,1.36,1.36,0,0,1,.13-.61,1.35,1.35,0,0,1,.37-.48,1.78,1.78,0,0,1,.6-.3A2.37,2.37,0,0,1,115,62a2.77,2.77,0,0,1,.42,0,3,3,0,0,1,.37.08,1.11,1.11,0,0,1,.28.1,1.22,1.22,0,0,1,.17.09l.07.08,0,.09s0,.08,0,.14V63a1.06,1.06,0,0,1,0,.14.1.1,0,0,1,0,.07.08.08,0,0,1-.07,0l-.15,0a1.33,1.33,0,0,0-.24-.12,2.27,2.27,0,0,0-.34-.11,1.53,1.53,0,0,0-.45-.06.91.91,0,0,0-.3,0,.64.64,0,0,0-.22.1.61.61,0,0,0-.12.16.41.41,0,0,0,0,.19.36.36,0,0,0,.1.27.65.65,0,0,0,.26.19A2.43,2.43,0,0,0,115,64l.42.16a2.58,2.58,0,0,1,.41.2,1.44,1.44,0,0,1,.37.28,1.21,1.21,0,0,1,.35.94Z"/><path d="M121.39,61.94a2.3,2.3,0,0,1-.12.77,1.74,1.74,0,0,1-.35.59,1.58,1.58,0,0,1-.52.4,2.2,2.2,0,0,1-.69.19l0,1c0,.06,0,.11-.15.14a1.37,1.37,0,0,1-.41,0h-.29a.48.48,0,0,1-.18,0,.17.17,0,0,1-.1-.06.12.12,0,0,1,0-.09l-.05-1.22a1.06,1.06,0,0,1,0-.27.29.29,0,0,1,.07-.17.25.25,0,0,1,.14-.08.54.54,0,0,1,.19,0H119a1.32,1.32,0,0,0,.47-.08,1,1,0,0,0,.33-.24.81.81,0,0,0,.19-.34,1.42,1.42,0,0,0,.06-.42,1.29,1.29,0,0,0-.07-.45,1.07,1.07,0,0,0-.21-.36,1,1,0,0,0-.36-.23,1.3,1.3,0,0,0-.51-.08,1.62,1.62,0,0,0-.46,0,2.08,2.08,0,0,0-.35.11l-.24.12a.37.37,0,0,1-.15,0l-.07,0a.36.36,0,0,1,0-.09,1.64,1.64,0,0,1,0-.18,2.36,2.36,0,0,1,0-.29,1.71,1.71,0,0,1,0-.26.23.23,0,0,1,.07-.14.92.92,0,0,1,.2-.12l.34-.13.45-.1a3.35,3.35,0,0,1,1.57.13,1.88,1.88,0,0,1,.71.45,1.79,1.79,0,0,1,.41.65A2.55,2.55,0,0,1,121.39,61.94Zm-1.54,4.44a1.79,1.79,0,0,1,0,.36.39.39,0,0,1-.12.23.44.44,0,0,1-.23.13,1.55,1.55,0,0,1-.7,0,.44.44,0,0,1-.23-.13.39.39,0,0,1-.12-.23,1.79,1.79,0,0,1,0-.36,1.86,1.86,0,0,1,0-.36.46.46,0,0,1,.12-.24.52.52,0,0,1,.23-.13,1.55,1.55,0,0,1,.7,0,.52.52,0,0,1,.23.13.46.46,0,0,1,.12.24A1.86,1.86,0,0,1,119.85,66.38Z"/></g></g></svg>