<svg xmlns="http://www.w3.org/2000/svg" viewBox="0 0 406.12 95.58"><defs><style>.cls-1{fill:#9a9fbd;}.cls-2{fill:#cb8517;}.cls-3{fill:#fff;}.cls-4{fill:#e0b674;}.cls-5{fill:#28203a;}.cls-6{fill:#d7d9e4;}</style></defs><g id="Capa_2" data-name="Capa 2"><g id="Capa_1-2" data-name="Capa 1"><path class="cls-1" d="M250.78,23.45,235,1.84H9.13C4.83,1.84,1.35,5.06,1.35,9V37.42c0,4,3.48,7.2,7.78,7.2H235.05Z"/><path class="cls-1" d="M14.29,38a1,1,0,0,1-1-1V8.74a1,1,0,1,1,2,0V37A1,1,0,0,1,14.29,38Z"/><path class="cls-2" d="M249.43,21.61,233.62,0H7.78C3.48,0,0,3.22,0,7.19V35.58c0,4,3.48,7.2,7.78,7.2H233.7Z"/><path class="cls-3" d="M12.94,36.18a1,1,0,0,1-1-1V6.9a1,1,0,0,1,2,0V35.19A1,1,0,0,1,12.94,36.18Z"/><rect class="cls-4" x="264.75" y="0.63" width="96.74" height="44.52" rx="6.84"/><rect class="cls-5" x="349.19" y="38.65" width="94.96" height="18.91" rx="2.16" transform="translate(348.56 444.77) rotate(-90)"/><path class="cls-6" d="M400.77,66.16v1.89l-2,.75v3.43l2,.71v1.84l-8.59-3.34V69.6Zm-3.4,3.2-3.19,1.18,3.19,1.16Z"/><path class="cls-6" d="M396.38,59.83l.3,1.62a1.24,1.24,0,0,0-.74.37,1.17,1.17,0,0,0-.24.76,1.24,1.24,0,0,0,.42,1,2.22,2.22,0,0,0,1.42.36,2.53,2.53,0,0,0,1.57-.37,1.23,1.23,0,0,0,.45-1,1.08,1.08,0,0,0-.26-.76,1.68,1.68,0,0,0-.92-.43l.28-1.61a2.86,2.86,0,0,1,1.68,1,3,3,0,0,1,.57,1.92,2.84,2.84,0,0,1-.87,2.18,3.91,3.91,0,0,1-4.78,0,2.88,2.88,0,0,1-.86-2.2,3.06,3.06,0,0,1,.49-1.81A2.72,2.72,0,0,1,396.38,59.83Z"/><path class="cls-6" d="M396.38,53.16l.3,1.62a1.19,1.19,0,0,0-.74.37,1.13,1.13,0,0,0-.24.75,1.23,1.23,0,0,0,.42,1,2.16,2.16,0,0,0,1.42.37,2.53,2.53,0,0,0,1.57-.37,1.23,1.23,0,0,0,.45-1,1.11,1.11,0,0,0-.26-.77,1.61,1.61,0,0,0-.92-.42l.28-1.62a2.87,2.87,0,0,1,1.68,1,3,3,0,0,1,.57,1.92,2.82,2.82,0,0,1-.87,2.17,3.32,3.32,0,0,1-2.38.81,3.35,3.35,0,0,1-2.4-.81,2.9,2.9,0,0,1-.86-2.2,3.06,3.06,0,0,1,.49-1.81A2.67,2.67,0,0,1,396.38,53.16Z"/><path class="cls-6" d="M393.7,51.91h-1.52V50.26h1.52Zm7.07,0h-6.23V50.26h6.23Z"/><path class="cls-6" d="M397.57,49a3.35,3.35,0,0,1-1.59-.4,2.76,2.76,0,0,1-1.17-1.15,3.36,3.36,0,0,1-.41-1.65,3.11,3.11,0,0,1,3.24-3.22,3.24,3.24,0,0,1,2.34.91,3.1,3.1,0,0,1,.93,2.3,3.59,3.59,0,0,1-.39,1.63,2.69,2.69,0,0,1-1.13,1.18A3.79,3.79,0,0,1,397.57,49Zm.08-1.68a2.08,2.08,0,0,0,1.42-.44,1.41,1.41,0,0,0,.49-1.09,1.38,1.38,0,0,0-.49-1.08,2.09,2.09,0,0,0-1.43-.43,2,2,0,0,0-1.4.43,1.38,1.38,0,0,0-.5,1.08,1.42,1.42,0,0,0,.5,1.09A2.05,2.05,0,0,0,397.65,47.27Z"/><path class="cls-6" d="M400.77,35.58v1.65h-3.18a4.94,4.94,0,0,0-1.3.1,1,1,0,0,0-.46.35,1,1,0,0,0-.17.57,1.32,1.32,0,0,0,.24.77,1.15,1.15,0,0,0,.62.46,5.07,5.07,0,0,0,1.43.13h2.82v1.64h-6.23V39.73h.92a2.5,2.5,0,0,1-1.06-2.06,2.47,2.47,0,0,1,.2-1,1.65,1.65,0,0,1,.5-.68,1.7,1.7,0,0,1,.69-.33,5.23,5.23,0,0,1,1.11-.09Z"/><path class="cls-6" d="M398.78,30.31l.28-1.64a2.71,2.71,0,0,1,1.38,1,3,3,0,0,1,.47,1.71,2.8,2.8,0,0,1-1.06,2.4,3.59,3.59,0,0,1-2.15.61,3.42,3.42,0,0,1-2.42-.81,2.66,2.66,0,0,1-.88-2,2.75,2.75,0,0,1,.92-2.19,4.05,4.05,0,0,1,2.81-.77v4.13a1.72,1.72,0,0,0,1.14-.4,1.26,1.26,0,0,0,.41-1,1,1,0,0,0-.22-.65A1.25,1.25,0,0,0,398.78,30.31Zm-1.66-.09a1.6,1.6,0,0,0-1.09.36,1.17,1.17,0,0,0-.37.86,1.14,1.14,0,0,0,.39.89,1.53,1.53,0,0,0,1.07.35Z"/><path class="cls-6" d="M399,27.82l-.25-1.65a1.25,1.25,0,0,0,.73-.43,1.5,1.5,0,0,0,.25-.9,1.58,1.58,0,0,0-.24-1,.51.51,0,0,0-.44-.22.43.43,0,0,0-.31.12,1.18,1.18,0,0,0-.21.55,9,9,0,0,1-.81,2.52,1.6,1.6,0,0,1-1.4.74A1.72,1.72,0,0,1,395,27a3,3,0,0,1-.55-2,3.45,3.45,0,0,1,.42-1.9,2.13,2.13,0,0,1,1.23-.85l.29,1.55a1,1,0,0,0-.56.38,1.36,1.36,0,0,0-.19.79,1.76,1.76,0,0,0,.18.93.37.37,0,0,0,.33.19.35.35,0,0,0,.3-.16,6.24,6.24,0,0,0,.46-1.54,4.58,4.58,0,0,1,.74-1.84,1.52,1.52,0,0,1,1.22-.51,1.89,1.89,0,0,1,1.47.71,3.17,3.17,0,0,1,.62,2.12,3.5,3.5,0,0,1-.52,2A2.37,2.37,0,0,1,399,27.82Z"/><path class="cls-5" d="M292.76,17.9a3.87,3.87,0,0,1,1-2.79,3.26,3.26,0,0,1,2.47-1,3.4,3.4,0,0,1,1.79.48,3,3,0,0,1,1.21,1.32,4.24,4.24,0,0,1,.42,1.92,4.3,4.3,0,0,1-.44,1.95,3,3,0,0,1-1.25,1.3,3.56,3.56,0,0,1-1.73.44,3.34,3.34,0,0,1-1.81-.49,3.18,3.18,0,0,1-1.21-1.33A4.08,4.08,0,0,1,292.76,17.9Zm1,0a2.86,2.86,0,0,0,.7,2,2.43,2.43,0,0,0,3.5,0,3,3,0,0,0,.69-2.14,3.75,3.75,0,0,0-.29-1.52,2.27,2.27,0,0,0-.87-1,2.32,2.32,0,0,0-1.27-.36,2.42,2.42,0,0,0-1.73.69A3.06,3.06,0,0,0,293.74,17.92Z"/><path class="cls-5" d="M301.53,21.39h-.82V14.23h.88v2.55a1.75,1.75,0,0,1,1.42-.69,2.18,2.18,0,0,1,.91.19,1.88,1.88,0,0,1,.7.54,2.38,2.38,0,0,1,.43.84,3.32,3.32,0,0,1,.16,1.06,3,3,0,0,1-.66,2.06,2.09,2.09,0,0,1-1.58.73,1.66,1.66,0,0,1-1.44-.77Zm0-2.63a2.64,2.64,0,0,0,.25,1.34,1.26,1.26,0,0,0,1.13.68,1.24,1.24,0,0,0,1-.5,2.26,2.26,0,0,0,.42-1.49,2.3,2.3,0,0,0-.4-1.5,1.23,1.23,0,0,0-1-.48,1.27,1.27,0,0,0-1,.5A2.18,2.18,0,0,0,301.52,18.76Z"/><path class="cls-5" d="M305.16,23.4l.17-.75a1.51,1.51,0,0,0,.41.07.46.46,0,0,0,.4-.18,1.79,1.79,0,0,0,.13-.89V16.2h.88v5.47A2.5,2.5,0,0,1,306.9,23a1.15,1.15,0,0,1-1,.49A2.61,2.61,0,0,1,305.16,23.4Zm1.11-8.15v-1h.88v1Z"/><path class="cls-5" d="M312.05,19.72l.91.11a2.23,2.23,0,0,1-.8,1.24,2.68,2.68,0,0,1-3.29-.27,2.73,2.73,0,0,1-.66-2,2.86,2.86,0,0,1,.67-2,2.28,2.28,0,0,1,1.75-.72,2.23,2.23,0,0,1,1.7.7,2.84,2.84,0,0,1,.66,2,2.2,2.2,0,0,1,0,.23h-3.86a2,2,0,0,0,.48,1.31,1.44,1.44,0,0,0,1.08.45,1.34,1.34,0,0,0,.83-.25A1.65,1.65,0,0,0,312.05,19.72Zm-2.89-1.42h2.9a1.74,1.74,0,0,0-.33-1,1.34,1.34,0,0,0-1.09-.51,1.41,1.41,0,0,0-1,.4A1.65,1.65,0,0,0,309.16,18.3Z"/><path class="cls-5" d="M316,20.6l.13.78a3.47,3.47,0,0,1-.67.08,1.51,1.51,0,0,1-.74-.15.89.89,0,0,1-.37-.4,3.2,3.2,0,0,1-.11-1v-3h-.64V16.2h.64V14.92l.88-.53V16.2H316v.69h-.88v3a1.6,1.6,0,0,0,0,.48.37.37,0,0,0,.16.17.51.51,0,0,0,.3.07Z"/><path class="cls-5" d="M316.85,15.24v-1h.87v1Zm0,6.15V16.2h.87v5.19Z"/><path class="cls-5" d="M320.5,21.39l-2-5.19h.93l1.11,3.11c.12.33.23.68.33,1,.08-.27.19-.6.33-1l1.15-3.17h.91l-2,5.19Z"/><path class="cls-5" d="M323.74,18.8a2.66,2.66,0,0,1,.8-2.14,2.42,2.42,0,0,1,1.63-.57,2.3,2.3,0,0,1,1.74.7,2.61,2.61,0,0,1,.68,1.93,3.47,3.47,0,0,1-.3,1.58,2.13,2.13,0,0,1-.87.89,2.55,2.55,0,0,1-1.25.32,2.33,2.33,0,0,1-1.76-.7A2.79,2.79,0,0,1,323.74,18.8Zm.9,0a2.21,2.21,0,0,0,.43,1.49,1.47,1.47,0,0,0,2.19,0,2.28,2.28,0,0,0,.43-1.52,2.14,2.14,0,0,0-.44-1.46,1.38,1.38,0,0,0-1.08-.5,1.41,1.41,0,0,0-1.1.5A2.19,2.19,0,0,0,324.64,18.8Z"/><path class="cls-5" d="M329.27,19.84l.87-.14a1.22,1.22,0,0,0,.41.8,1.74,1.74,0,0,0,1.83,0,.74.74,0,0,0,.3-.58.54.54,0,0,0-.26-.47,3.66,3.66,0,0,0-.9-.3,7.73,7.73,0,0,1-1.34-.42,1.26,1.26,0,0,1-.76-1.19,1.27,1.27,0,0,1,.16-.64,1.35,1.35,0,0,1,.43-.49,1.83,1.83,0,0,1,.56-.26,2.64,2.64,0,0,1,.76-.1,2.93,2.93,0,0,1,1.07.17,1.49,1.49,0,0,1,.68.48,1.76,1.76,0,0,1,.3.8l-.86.12a.93.93,0,0,0-.33-.63,1.27,1.27,0,0,0-.8-.22,1.38,1.38,0,0,0-.86.2.56.56,0,0,0-.26.47.47.47,0,0,0,.11.31.77.77,0,0,0,.33.23c.09,0,.35.11.78.22a13.33,13.33,0,0,1,1.3.41,1.23,1.23,0,0,1,.79,1.22,1.47,1.47,0,0,1-.26.82,1.59,1.59,0,0,1-.74.6,2.53,2.53,0,0,1-1.09.22,2.44,2.44,0,0,1-1.54-.42A2,2,0,0,1,329.27,19.84Z"/><path class="cls-5" d="M290.37,29.72l.91.11a2.27,2.27,0,0,1-.79,1.24,2.44,2.44,0,0,1-1.49.44,2.35,2.35,0,0,1-1.8-.71,2.69,2.69,0,0,1-.67-2,2.86,2.86,0,0,1,.67-2,2.3,2.3,0,0,1,1.75-.72,2.21,2.21,0,0,1,1.7.7,2.84,2.84,0,0,1,.66,2V29h-3.87a2,2,0,0,0,.48,1.31,1.45,1.45,0,0,0,1.09.45,1.33,1.33,0,0,0,.82-.25A1.65,1.65,0,0,0,290.37,29.72Zm-2.88-1.42h2.89a1.74,1.74,0,0,0-.33-1,1.34,1.34,0,0,0-1.09-.51,1.41,1.41,0,0,0-1,.4A1.65,1.65,0,0,0,287.49,28.3Z"/><path class="cls-5" d="M292,29.84l.87-.14a1.22,1.22,0,0,0,.41.8,1.74,1.74,0,0,0,1.83,0,.74.74,0,0,0,.3-.58.54.54,0,0,0-.26-.47,3.66,3.66,0,0,0-.9-.3,7.73,7.73,0,0,1-1.34-.42,1.26,1.26,0,0,1-.76-1.19,1.27,1.27,0,0,1,.16-.64,1.35,1.35,0,0,1,.43-.49,1.83,1.83,0,0,1,.56-.26,2.68,2.68,0,0,1,.76-.1,2.93,2.93,0,0,1,1.07.17,1.43,1.43,0,0,1,.68.48,1.76,1.76,0,0,1,.3.8l-.86.12A.93.93,0,0,0,295,27a1.27,1.27,0,0,0-.8-.22,1.38,1.38,0,0,0-.86.2.59.59,0,0,0-.26.47.53.53,0,0,0,.11.31.77.77,0,0,0,.33.23c.09,0,.35.11.78.22a12.46,12.46,0,0,1,1.3.41,1.23,1.23,0,0,1,.79,1.22,1.47,1.47,0,0,1-.26.82,1.59,1.59,0,0,1-.74.6,2.53,2.53,0,0,1-1.09.22,2.44,2.44,0,0,1-1.54-.42A2,2,0,0,1,292,29.84Z"/><path class="cls-5" d="M299.3,30.6l.13.78a3.46,3.46,0,0,1-.66.08,1.56,1.56,0,0,1-.75-.15.89.89,0,0,1-.37-.4,3.29,3.29,0,0,1-.1-1v-3h-.65V26.2h.65V24.92l.87-.53V26.2h.88v.69h-.88v3a1.49,1.49,0,0,0,.05.48.35.35,0,0,0,.15.17.51.51,0,0,0,.3.07A3.53,3.53,0,0,0,299.3,30.6Z"/><path class="cls-5" d="M300.15,31.39V26.2h.79V27a2.29,2.29,0,0,1,.56-.73,1,1,0,0,1,.57-.17,1.71,1.71,0,0,1,.9.28l-.3.81A1.35,1.35,0,0,0,302,27a.79.79,0,0,0-.51.18.84.84,0,0,0-.33.48,3.31,3.31,0,0,0-.15,1v2.72Z"/><path class="cls-5" d="M306.88,30.75a3.16,3.16,0,0,1-.94.58,2.61,2.61,0,0,1-1,.18,1.9,1.9,0,0,1-1.32-.42A1.4,1.4,0,0,1,303.2,30a1.36,1.36,0,0,1,.17-.69,1.48,1.48,0,0,1,.45-.51,2.26,2.26,0,0,1,.63-.29,7.55,7.55,0,0,1,.79-.13,8.08,8.08,0,0,0,1.56-.3c0-.12,0-.2,0-.23a1,1,0,0,0-.25-.76,1.48,1.48,0,0,0-1-.3,1.62,1.62,0,0,0-.92.22,1.35,1.35,0,0,0-.43.77l-.86-.12a2,2,0,0,1,.38-.89,1.73,1.73,0,0,1,.78-.52,3.53,3.53,0,0,1,1.18-.18,3.16,3.16,0,0,1,1.07.15,1.53,1.53,0,0,1,.61.39,1.39,1.39,0,0,1,.28.6,5,5,0,0,1,0,.81v1.18a11.75,11.75,0,0,0,.06,1.55,2.09,2.09,0,0,0,.22.62h-.92A1.77,1.77,0,0,1,306.88,30.75Zm-.08-2a6.34,6.34,0,0,1-1.43.33,3.64,3.64,0,0,0-.77.17.83.83,0,0,0-.35.29.76.76,0,0,0-.12.42.73.73,0,0,0,.27.58,1.14,1.14,0,0,0,.78.24,1.87,1.87,0,0,0,.9-.22,1.42,1.42,0,0,0,.58-.61,2,2,0,0,0,.14-.88Z"/><path class="cls-5" d="M311,30.6l.13.78a3.46,3.46,0,0,1-.66.08,1.56,1.56,0,0,1-.75-.15.89.89,0,0,1-.37-.4,3.29,3.29,0,0,1-.1-1v-3h-.65V26.2h.65V24.92l.87-.53V26.2H311v.69h-.88v3a1.49,1.49,0,0,0,.05.48.35.35,0,0,0,.15.17.51.51,0,0,0,.3.07A3.53,3.53,0,0,0,311,30.6Z"/><path class="cls-5" d="M315.38,29.72l.91.11a2.23,2.23,0,0,1-.8,1.24,2.39,2.39,0,0,1-1.48.44,2.35,2.35,0,0,1-1.8-.71,2.69,2.69,0,0,1-.67-2,2.86,2.86,0,0,1,.67-2,2.3,2.3,0,0,1,1.75-.72,2.21,2.21,0,0,1,1.7.7,2.84,2.84,0,0,1,.66,2V29h-3.87a2,2,0,0,0,.48,1.31,1.45,1.45,0,0,0,1.09.45,1.33,1.33,0,0,0,.82-.25A1.65,1.65,0,0,0,315.38,29.72ZM312.5,28.3h2.89a1.74,1.74,0,0,0-.33-1,1.34,1.34,0,0,0-1.09-.51,1.41,1.41,0,0,0-1,.4A1.65,1.65,0,0,0,312.5,28.3Zm.94-2.74.65-1.37h1.16l-1.08,1.37Z"/><path class="cls-5" d="M317.23,31.82l.86.13a.76.76,0,0,0,.3.57,1.45,1.45,0,0,0,.89.25,1.57,1.57,0,0,0,.94-.25,1.21,1.21,0,0,0,.45-.68,5,5,0,0,0,.06-1.13,1.8,1.8,0,0,1-1.43.68,2,2,0,0,1-1.66-.77,3,3,0,0,1-.58-1.85,3.42,3.42,0,0,1,.27-1.37,2.08,2.08,0,0,1,.77-1,2.11,2.11,0,0,1,1.2-.34,1.85,1.85,0,0,1,1.52.74V26.2h.81v4.49a4.14,4.14,0,0,1-.25,1.71,1.77,1.77,0,0,1-.78.8,2.68,2.68,0,0,1-1.32.29,2.58,2.58,0,0,1-1.5-.41A1.43,1.43,0,0,1,317.23,31.82ZM318,28.7a2.25,2.25,0,0,0,.41,1.49,1.28,1.28,0,0,0,1,.47,1.32,1.32,0,0,0,1-.46,2.22,2.22,0,0,0,.41-1.47,2.12,2.12,0,0,0-.42-1.43,1.32,1.32,0,0,0-1-.49,1.27,1.27,0,0,0-1,.48A2.14,2.14,0,0,0,318,28.7Z"/><path class="cls-5" d="M323,25.24v-1h.88v1Zm0,6.15V26.2h.88v5.19Z"/><path class="cls-5" d="M328.56,29.49l.87.11a2.27,2.27,0,0,1-.73,1.4,2.11,2.11,0,0,1-1.43.51,2.24,2.24,0,0,1-1.71-.7,2.78,2.78,0,0,1-.65-2,3.54,3.54,0,0,1,.28-1.47,2,2,0,0,1,.84-1,2.54,2.54,0,0,1,1.24-.31,2.14,2.14,0,0,1,1.38.42,2,2,0,0,1,.69,1.22l-.85.13a1.47,1.47,0,0,0-.43-.79,1.16,1.16,0,0,0-.75-.26,1.34,1.34,0,0,0-1.08.48,2.2,2.2,0,0,0-.42,1.5,2.38,2.38,0,0,0,.4,1.52,1.33,1.33,0,0,0,1.05.47,1.23,1.23,0,0,0,.86-.31A1.6,1.6,0,0,0,328.56,29.49Z"/><path class="cls-5" d="M329.85,28.8a2.7,2.7,0,0,1,.8-2.14,2.44,2.44,0,0,1,1.63-.57,2.32,2.32,0,0,1,1.75.7,2.66,2.66,0,0,1,.68,1.93,3.47,3.47,0,0,1-.3,1.58,2.1,2.1,0,0,1-.88.89,2.55,2.55,0,0,1-1.25.32,2.36,2.36,0,0,1-1.76-.7A2.79,2.79,0,0,1,329.85,28.8Zm.9,0a2.21,2.21,0,0,0,.44,1.49,1.46,1.46,0,0,0,2.18,0,2.28,2.28,0,0,0,.44-1.52,2.14,2.14,0,0,0-.44-1.46,1.4,1.4,0,0,0-1.09-.5,1.39,1.39,0,0,0-1.09.5A2.19,2.19,0,0,0,330.75,28.8Z"/><path class="cls-5" d="M335.39,29.84l.87-.14a1.21,1.21,0,0,0,.4.8,1.76,1.76,0,0,0,1.84,0,.76.76,0,0,0,.29-.58.54.54,0,0,0-.26-.47,3.66,3.66,0,0,0-.9-.3,8,8,0,0,1-1.34-.42,1.28,1.28,0,0,1-.56-.49,1.32,1.32,0,0,1-.2-.7,1.38,1.38,0,0,1,.16-.64,1.45,1.45,0,0,1,.43-.49,2,2,0,0,1,.56-.26,2.68,2.68,0,0,1,.76-.1,3,3,0,0,1,1.08.17,1.54,1.54,0,0,1,.68.48,2,2,0,0,1,.3.8l-.86.12a.94.94,0,0,0-.34-.63,1.24,1.24,0,0,0-.79-.22,1.41,1.41,0,0,0-.87.2.59.59,0,0,0-.26.47.53.53,0,0,0,.11.31.75.75,0,0,0,.34.23c.09,0,.34.11.77.22a12.87,12.87,0,0,1,1.31.41,1.37,1.37,0,0,1,.57.46,1.33,1.33,0,0,1,.21.76,1.46,1.46,0,0,1-.25.82,1.65,1.65,0,0,1-.74.6,2.57,2.57,0,0,1-1.1.22,2.46,2.46,0,0,1-1.54-.42A2,2,0,0,1,335.39,29.84Z"/><path class="cls-5" d="M24.65,22.06A5.4,5.4,0,0,1,26,18.16a4.54,4.54,0,0,1,3.46-1.41,4.84,4.84,0,0,1,2.5.66,4.35,4.35,0,0,1,1.7,1.85,6.47,6.47,0,0,1,0,5.42,4.27,4.27,0,0,1-1.75,1.82,5,5,0,0,1-2.43.62,4.71,4.71,0,0,1-2.53-.69,4.4,4.4,0,0,1-1.69-1.86A5.73,5.73,0,0,1,24.65,22.06Zm1.36,0a4,4,0,0,0,1,2.86,3.41,3.41,0,0,0,4.91,0,4.28,4.28,0,0,0,1-3,5.08,5.08,0,0,0-.41-2.14,3.2,3.2,0,0,0-3-1.91,3.4,3.4,0,0,0-2.42,1A4.33,4.33,0,0,0,26,22.08Z"/><path class="cls-5" d="M35.78,29.73v-10H36.9v.94a2.8,2.8,0,0,1,.9-.83A2.41,2.41,0,0,1,39,19.52a2.85,2.85,0,0,1,1.64.48,3,3,0,0,1,1.07,1.35,5.18,5.18,0,0,1,0,3.92,3,3,0,0,1-1.17,1.36,2.93,2.93,0,0,1-1.6.48,2.32,2.32,0,0,1-1.1-.26,2.4,2.4,0,0,1-.81-.66v3.54Zm1.12-6.37a3.22,3.22,0,0,0,.56,2.07,1.77,1.77,0,0,0,1.38.67,1.75,1.75,0,0,0,1.4-.7,3.29,3.29,0,0,0,.59-2.15,3.19,3.19,0,0,0-.57-2.07,1.7,1.7,0,0,0-1.37-.69,1.78,1.78,0,0,0-1.39.73A3.31,3.31,0,0,0,36.9,23.36Z"/><path class="cls-5" d="M48.54,24.61l1.27.15a3.08,3.08,0,0,1-1.11,1.73,3.38,3.38,0,0,1-2.08.62,3.34,3.34,0,0,1-2.53-1,3.85,3.85,0,0,1-.93-2.75,4,4,0,0,1,.94-2.85,3.22,3.22,0,0,1,2.45-1,3.12,3.12,0,0,1,2.38,1,4,4,0,0,1,.92,2.79c0,.07,0,.18,0,.33H44.43a2.77,2.77,0,0,0,.68,1.83,2,2,0,0,0,1.51.64,1.86,1.86,0,0,0,1.16-.36A2.37,2.37,0,0,0,48.54,24.61Zm-4-2h4a2.5,2.5,0,0,0-.46-1.38,1.9,1.9,0,0,0-1.53-.71,1.94,1.94,0,0,0-1.42.57A2.22,2.22,0,0,0,44.5,22.62Z"/><path class="cls-5" d="M51.34,27V19.69h1.11v1.1a2.88,2.88,0,0,1,.78-1,1.33,1.33,0,0,1,.79-.25,2.36,2.36,0,0,1,1.27.4l-.43,1.14a1.74,1.74,0,0,0-.9-.27,1.11,1.11,0,0,0-.72.25,1.25,1.25,0,0,0-.46.67,4.66,4.66,0,0,0-.21,1.43V27Z"/><path class="cls-5" d="M60.75,26.05a4.46,4.46,0,0,1-1.31.82,3.78,3.78,0,0,1-1.36.24,2.64,2.64,0,0,1-1.84-.59A1.91,1.91,0,0,1,55.6,25a2,2,0,0,1,.88-1.68,2.94,2.94,0,0,1,.88-.4,8,8,0,0,1,1.1-.19,11.76,11.76,0,0,0,2.19-.42c0-.17,0-.28,0-.32A1.35,1.35,0,0,0,60.31,21a2,2,0,0,0-1.4-.42,2.18,2.18,0,0,0-1.28.3A1.87,1.87,0,0,0,57,21.92l-1.21-.16a3,3,0,0,1,.54-1.25,2.36,2.36,0,0,1,1.09-.73,4.84,4.84,0,0,1,1.65-.26,4.27,4.27,0,0,1,1.51.22,2,2,0,0,1,.85.55,1.92,1.92,0,0,1,.38.84,5.81,5.81,0,0,1,.07,1.13V23.9A15.77,15.77,0,0,0,62,26.07a2.57,2.57,0,0,0,.31.88H61A2.71,2.71,0,0,1,60.75,26.05Zm-.1-2.75a9.05,9.05,0,0,1-2,.47,4.67,4.67,0,0,0-1.07.24,1.14,1.14,0,0,0-.49.4,1.1,1.1,0,0,0-.17.59,1,1,0,0,0,.38.82,1.58,1.58,0,0,0,1.09.33,2.51,2.51,0,0,0,1.26-.32,1.85,1.85,0,0,0,.81-.85,2.83,2.83,0,0,0,.2-1.23Z"/><path class="cls-5" d="M68.54,24.29l1.21.15a3.13,3.13,0,0,1-1,2,3,3,0,0,1-2,.71,3.14,3.14,0,0,1-2.4-1,4,4,0,0,1-.9-2.79,5,5,0,0,1,.39-2.05A2.74,2.74,0,0,1,65,20a3.57,3.57,0,0,1,1.74-.44,3,3,0,0,1,1.93.6,2.73,2.73,0,0,1,1,1.7L68.44,22a2,2,0,0,0-.61-1.1,1.6,1.6,0,0,0-1-.37,1.9,1.9,0,0,0-1.51.67,3.2,3.2,0,0,0-.58,2.11,3.28,3.28,0,0,0,.56,2.12,1.82,1.82,0,0,0,1.47.67,1.73,1.73,0,0,0,1.21-.45A2.22,2.22,0,0,0,68.54,24.29Z"/><path class="cls-5" d="M70.81,18.34V16.92H72v1.42Zm0,8.61V19.69H72V27Z"/><path class="cls-5" d="M73.46,23.32a3.72,3.72,0,0,1,1.12-3,3.35,3.35,0,0,1,2.28-.81,3.28,3.28,0,0,1,2.45,1,3.76,3.76,0,0,1,1,2.71,4.83,4.83,0,0,1-.42,2.21,2.94,2.94,0,0,1-1.23,1.24,3.51,3.51,0,0,1-1.75.45,3.25,3.25,0,0,1-2.46-1A3.88,3.88,0,0,1,73.46,23.32Zm1.26,0a3,3,0,0,0,.61,2.08,2,2,0,0,0,3,0A3.13,3.13,0,0,0,79,23.27a3,3,0,0,0-.61-2,2,2,0,0,0-3,0A3.07,3.07,0,0,0,74.72,23.32Z"/><path class="cls-5" d="M81.7,27V19.69h1.11v1a2.6,2.6,0,0,1,2.31-1.2,2.92,2.92,0,0,1,1.2.24,1.8,1.8,0,0,1,.83.62,2.28,2.28,0,0,1,.38.91,6.42,6.42,0,0,1,.07,1.19V27H86.37V22.53a3.54,3.54,0,0,0-.14-1.13,1.26,1.26,0,0,0-.51-.59,1.62,1.62,0,0,0-.86-.22,2,2,0,0,0-1.36.5A2.45,2.45,0,0,0,82.93,23v4Z"/><path class="cls-5" d="M94.46,24.61l1.27.15a3,3,0,0,1-1.12,1.73,3.76,3.76,0,0,1-4.6-.36,3.85,3.85,0,0,1-.93-2.75A4,4,0,0,1,90,20.53a3.2,3.2,0,0,1,2.45-1,3.12,3.12,0,0,1,2.38,1,4,4,0,0,1,.92,2.79c0,.07,0,.18,0,.33H90.35A2.77,2.77,0,0,0,91,25.46a2,2,0,0,0,1.52.64,1.88,1.88,0,0,0,1.16-.36A2.37,2.37,0,0,0,94.46,24.61Zm-4-2h4A2.5,2.5,0,0,0,94,21.24a1.88,1.88,0,0,0-1.52-.71,2,2,0,0,0-1.43.57A2.25,2.25,0,0,0,90.42,22.62Z"/><path class="cls-5" d="M96.78,24.78,98,24.59a1.73,1.73,0,0,0,.57,1.12,2,2,0,0,0,1.31.39,1.9,1.9,0,0,0,1.25-.35,1,1,0,0,0,.41-.81.74.74,0,0,0-.36-.65,5.38,5.38,0,0,0-1.26-.42,12.44,12.44,0,0,1-1.87-.59,1.85,1.85,0,0,1-.79-.69,1.77,1.77,0,0,1-.27-1,1.87,1.87,0,0,1,.22-.9,2.06,2.06,0,0,1,.6-.68,2.54,2.54,0,0,1,.79-.36,3.62,3.62,0,0,1,1.06-.15,4.07,4.07,0,0,1,1.5.25,2,2,0,0,1,1,.66,2.6,2.6,0,0,1,.43,1.13l-1.21.16a1.3,1.3,0,0,0-.47-.87,1.73,1.73,0,0,0-1.11-.32,2,2,0,0,0-1.21.28.81.81,0,0,0-.37.66.68.68,0,0,0,.15.43,1.2,1.2,0,0,0,.48.33c.12,0,.48.15,1.08.31a18.41,18.41,0,0,1,1.82.57,1.91,1.91,0,0,1,.82.65,1.83,1.83,0,0,1,.29,1,2.06,2.06,0,0,1-.36,1.16,2.31,2.31,0,0,1-1,.84,3.73,3.73,0,0,1-1.53.3,3.4,3.4,0,0,1-2.15-.59A2.71,2.71,0,0,1,96.78,24.78Z"/></g></g></svg>