<svg xmlns="http://www.w3.org/2000/svg" viewBox="0 0 122.21 111.05"><defs><style>.cls-1{opacity:0.3;}.cls-2{fill:#fff;}.cls-3{fill:#96999c;}.cls-4{fill:#231f20;}.cls-5{stroke:#000;stroke-miterlimit:10;stroke-width:0.27px;}</style></defs><g id="Capa_2" data-name="Capa 2"><g id="Capa_1-2" data-name="Capa 1"><path class="cls-1" d="M116.89,82.73s-37-.61-32.83-36.48C88.57,7.72,37.21,1.53,17.21,20.07-17.86,52.59,5.73,99.79,43.88,108.42S100,103.32,116.89,82.73Z"/><path class="cls-2" d="M119.62,69.73s-37,1.63-35-34.43C86.81-3.43,35.17-6.5,16.33,13.23c-33,34.58-6.62,80.26,32,86.57S104,91.3,119.62,69.73Z"/><path class="cls-3" d="M7.13,25.71C.38,54.41,23,83,52.9,87.85c31.07,5.08,48.23-3.53,61.87-18.34a37.4,37.4,0,0,0,4.85.22C104,91.3,86.9,106.11,48.3,99.8,14.21,94.23-10.37,57.93,7.13,25.71Z"/><path class="cls-4" d="M48.1,101.06C27,97.61,9.11,82.75,2.57,63.21c-6-17.87-1.43-35.94,12.83-50.87C26.94.27,50-3.62,66.89,3.69c13.1,5.68,19.86,16.93,19,31.68-.56,10.1,2,18.08,7.54,23.72,9.81,9.94,26,9.36,26.11,9.36l2.64-.12-1.55,2.14c-14.15,19.59-29.08,32.09-55.52,32.09A105.84,105.84,0,0,1,48.1,101.06ZM91.65,60.9c-6.1-6.18-8.89-14.81-8.28-25.67.76-13.6-5.46-24-17.5-29.19-15.68-6.8-37.94-3.1-48.62,8.07C3.68,28.32-.67,45.47,5,62.39c6.25,18.66,23.33,32.85,43.52,36.15,35.2,5.75,52.65-6.17,68.6-27.56C111.9,70.75,99.93,69.27,91.65,60.9Z"/><path class="cls-5" d="M12.77,44.87a3,3,0,0,1,.15-1,2.3,2.3,0,0,1,.43-.75,2.07,2.07,0,0,1,.67-.5,2.67,2.67,0,0,1,.87-.25l0-1.28c0-.08.06-.14.18-.17a1.84,1.84,0,0,1,.53-.06H16a.67.67,0,0,1,.23,0,.32.32,0,0,1,.13.07.21.21,0,0,1,0,.12l.06,1.55a1.14,1.14,0,0,1,0,.34.41.41,0,0,1-.09.21.31.31,0,0,1-.18.11.88.88,0,0,1-.24,0h-.1a1.57,1.57,0,0,0-.6.11,1.18,1.18,0,0,0-.41.3,1.07,1.07,0,0,0-.24.43,1.84,1.84,0,0,0-.08.53,1.76,1.76,0,0,0,.09.58,1.13,1.13,0,0,0,.27.45,1.19,1.19,0,0,0,.45.3,2,2,0,0,0,.64.1,2.12,2.12,0,0,0,.59-.07A2.87,2.87,0,0,0,17,46a2.26,2.26,0,0,0,.31-.15.46.46,0,0,1,.18-.06.14.14,0,0,1,.09,0,.19.19,0,0,1,.07.11,1.81,1.81,0,0,1,0,.22c0,.09,0,.22,0,.37a2.83,2.83,0,0,1,0,.33.39.39,0,0,1-.09.17.82.82,0,0,1-.25.16,4.26,4.26,0,0,1-.44.16c-.17.05-.36.09-.57.13a4.65,4.65,0,0,1-.66,0,3.69,3.69,0,0,1-1.32-.21,2.69,2.69,0,0,1-.91-.58,2.26,2.26,0,0,1-.51-.82A3,3,0,0,1,12.77,44.87Zm1.94-5.62a2,2,0,0,1,0-.46.62.62,0,0,1,.15-.29.55.55,0,0,1,.29-.16,1.44,1.44,0,0,1,.44-.05,1.5,1.5,0,0,1,.46.05.56.56,0,0,1,.28.16.62.62,0,0,1,.15.29,2,2,0,0,1,.05.46,2,2,0,0,1-.05.46.71.71,0,0,1-.15.3.56.56,0,0,1-.28.16,1.5,1.5,0,0,1-.46,0,1.44,1.44,0,0,1-.44,0A.55.55,0,0,1,14.9,40a.71.71,0,0,1-.15-.3A2.07,2.07,0,0,1,14.71,39.25Z"/><path class="cls-5" d="M27.82,47a3.63,3.63,0,0,1,0,.38.71.71,0,0,1-.07.22.17.17,0,0,1-.08.1.19.19,0,0,1-.1,0,1.87,1.87,0,0,1-.57-.12,4.85,4.85,0,0,1-.76-.34,8.29,8.29,0,0,1-.83-.54,4.86,4.86,0,0,1-.78-.73,4.46,4.46,0,0,1-.73.24,4.1,4.1,0,0,1-1,.1,5.31,5.31,0,0,1-1.73-.25A2.94,2.94,0,0,1,20,45.32,3.38,3.38,0,0,1,19.22,44,7,7,0,0,1,19,42a6,6,0,0,1,.26-1.86A3.64,3.64,0,0,1,20,38.76a3.35,3.35,0,0,1,1.28-.89,4.84,4.84,0,0,1,1.78-.31,5.11,5.11,0,0,1,1.68.26,3,3,0,0,1,1.24.79,3.39,3.39,0,0,1,.76,1.33A6.39,6.39,0,0,1,27,41.85a7.16,7.16,0,0,1-.08,1.07,4.88,4.88,0,0,1-.22.93,3.78,3.78,0,0,1-.35.79,3.3,3.3,0,0,1-.48.62,5.16,5.16,0,0,0,.72.54,5.37,5.37,0,0,0,.53.27l.34.14a.48.48,0,0,1,.2.11.49.49,0,0,1,.11.24A2.69,2.69,0,0,1,27.82,47Zm-2.61-5.08a6.29,6.29,0,0,0-.11-1.2,2.56,2.56,0,0,0-.36-.94,1.69,1.69,0,0,0-.67-.6A2.21,2.21,0,0,0,23,39a2.11,2.11,0,0,0-1.06.24,1.85,1.85,0,0,0-.69.64,2.6,2.6,0,0,0-.38.93,5.87,5.87,0,0,0-.1,1.13,6.85,6.85,0,0,0,.1,1.26,2.62,2.62,0,0,0,.36,1,1.62,1.62,0,0,0,.67.6,2.34,2.34,0,0,0,1,.21A2.17,2.17,0,0,0,24,44.7a2,2,0,0,0,.69-.64,3,3,0,0,0,.37-1A6.2,6.2,0,0,0,25.21,41.94Z"/><path class="cls-5" d="M34.06,46a.15.15,0,0,1,0,.11.19.19,0,0,1-.11.08.65.65,0,0,1-.22,0l-.34,0-.35,0a.54.54,0,0,1-.21,0,.19.19,0,0,1-.11-.08.15.15,0,0,1,0-.11v-.68a3.82,3.82,0,0,1-1,.79,2.32,2.32,0,0,1-1,.26,2.35,2.35,0,0,1-1-.19,2,2,0,0,1-.66-.54,2.11,2.11,0,0,1-.36-.79,4.51,4.51,0,0,1-.11-1.12V40.13a.2.2,0,0,1,0-.11.31.31,0,0,1,.14-.09,1.18,1.18,0,0,1,.25,0,4,4,0,0,1,.8,0,1.18,1.18,0,0,1,.25,0,.31.31,0,0,1,.14.09.21.21,0,0,1,0,.11v3.31a3.06,3.06,0,0,0,.06.7,1.14,1.14,0,0,0,.18.42.77.77,0,0,0,.3.27,1,1,0,0,0,1.07-.14,3.26,3.26,0,0,0,.68-.67V40.13a.21.21,0,0,1,0-.11.33.33,0,0,1,.13-.09,1.31,1.31,0,0,1,.25,0,2.36,2.36,0,0,1,.4,0,2.43,2.43,0,0,1,.41,0l.25,0A.33.33,0,0,1,34,40a.21.21,0,0,1,0,.11Z"/><path class="cls-5" d="M41.13,42.89a.65.65,0,0,1-.14.45.5.5,0,0,1-.37.14H37.06a2.82,2.82,0,0,0,.08.68,1.32,1.32,0,0,0,.29.52,1.17,1.17,0,0,0,.5.32,2,2,0,0,0,.73.11,4.26,4.26,0,0,0,.76-.06,4.76,4.76,0,0,0,.57-.14l.4-.13a.6.6,0,0,1,.25-.07.17.17,0,0,1,.1,0s0,0,.07.08a.58.58,0,0,1,0,.17,2.1,2.1,0,0,1,0,.27v.25a1.11,1.11,0,0,0,0,.17.83.83,0,0,1,0,.12.61.61,0,0,1-.07.1.83.83,0,0,1-.24.12,4,4,0,0,1-.48.15,5.06,5.06,0,0,1-.68.14,6.77,6.77,0,0,1-.81,0,4.36,4.36,0,0,1-1.37-.19,2.62,2.62,0,0,1-1-.6,2.48,2.48,0,0,1-.59-1,4.76,4.76,0,0,1-.19-1.43,4.37,4.37,0,0,1,.2-1.41,3,3,0,0,1,.59-1.07,2.51,2.51,0,0,1,.94-.66,3.13,3.13,0,0,1,1.25-.23,3.39,3.39,0,0,1,1.26.21,2.46,2.46,0,0,1,.86.6,2.58,2.58,0,0,1,.49.91,4.15,4.15,0,0,1,.16,1.15Zm-1.61-.47a1.67,1.67,0,0,0-.27-1.1,1.1,1.1,0,0,0-.93-.39,1.27,1.27,0,0,0-.54.11,1.12,1.12,0,0,0-.39.32,1.66,1.66,0,0,0-.24.48,2.61,2.61,0,0,0-.09.58Zm-.92-5.16a.69.69,0,0,1,.11-.13.67.67,0,0,1,.17-.08l.24,0,.37,0A3,3,0,0,1,40,37a.85.85,0,0,1,.25.07.15.15,0,0,1,.07.12.37.37,0,0,1-.07.14L39,38.87a1.14,1.14,0,0,1-.11.11.4.4,0,0,1-.13.07l-.21,0h-.31l-.37,0a.38.38,0,0,1-.19-.06.15.15,0,0,1,0-.11.48.48,0,0,1,.07-.15Z"/><path class="cls-5" d="M49,45.41a2.44,2.44,0,0,1,0,.44.5.5,0,0,1-.1.22.56.56,0,0,1-.17.11l-.27.09-.34,0a2.17,2.17,0,0,1-.36,0,2.68,2.68,0,0,1-.85-.12,1.39,1.39,0,0,1-.6-.39,1.51,1.51,0,0,1-.35-.65,3.59,3.59,0,0,1-.11-.93v-3h-.7c-.09,0-.15,0-.19-.16a1.25,1.25,0,0,1-.07-.51,1.47,1.47,0,0,1,0-.32.54.54,0,0,1,.05-.21.19.19,0,0,1,.08-.11.2.2,0,0,1,.11,0h.7V38.6a.27.27,0,0,1,0-.12A.3.3,0,0,1,46,38.4a.7.7,0,0,1,.25-.06H47a.83.83,0,0,1,.26.06.32.32,0,0,1,.13.08.28.28,0,0,1,0,.12v1.31h1.27a.27.27,0,0,1,.12,0,.35.35,0,0,1,.08.11.81.81,0,0,1,0,.21,2.92,2.92,0,0,1,0,.32,1.52,1.52,0,0,1-.06.51c0,.11-.11.16-.19.16H47.46V44a1.38,1.38,0,0,0,.15.72.59.59,0,0,0,.54.24.85.85,0,0,0,.23,0l.19,0,.14-.05a.18.18,0,0,1,.1,0,.1.1,0,0,1,.07,0s0,.05.06.09,0,.11,0,.19A2.63,2.63,0,0,1,49,45.41Z"/><path class="cls-5" d="M55.05,46a.17.17,0,0,1-.07.14.42.42,0,0,1-.21.08l-.41,0-.43,0a.34.34,0,0,1-.19-.08.17.17,0,0,1-.06-.14v-.47a2.83,2.83,0,0,1-.82.61,2.46,2.46,0,0,1-1,.21,2.93,2.93,0,0,1-.86-.12,1.88,1.88,0,0,1-.67-.36,1.75,1.75,0,0,1-.45-.59,2.15,2.15,0,0,1-.16-.83,1.92,1.92,0,0,1,.2-.89,1.8,1.8,0,0,1,.6-.63,3.19,3.19,0,0,1,1-.36,6.91,6.91,0,0,1,1.37-.12h.57v-.35a1.68,1.68,0,0,0-.05-.48.79.79,0,0,0-.19-.35.67.67,0,0,0-.34-.2,1.62,1.62,0,0,0-.53-.07,2.7,2.7,0,0,0-.73.09,3.54,3.54,0,0,0-.58.21l-.42.2a.6.6,0,0,1-.27.09.2.2,0,0,1-.13,0,.56.56,0,0,1-.09-.14.81.81,0,0,1-.05-.21,1.14,1.14,0,0,1,0-.27,1.33,1.33,0,0,1,0-.32.53.53,0,0,1,.12-.22,1.58,1.58,0,0,1,.33-.21c.15-.07.33-.14.53-.21a4.24,4.24,0,0,1,.68-.16,5.12,5.12,0,0,1,1.93.07,2,2,0,0,1,.8.42,1.52,1.52,0,0,1,.46.71,3.32,3.32,0,0,1,.15,1ZM53.42,43.5h-.63a3.37,3.37,0,0,0-.68.06,1.3,1.3,0,0,0-.46.18.7.7,0,0,0-.26.28.93.93,0,0,0-.08.39.75.75,0,0,0,.23.57.94.94,0,0,0,.65.21,1.28,1.28,0,0,0,.64-.17,2.71,2.71,0,0,0,.59-.52Z"/><path class="cls-5" d="M58.35,46a.15.15,0,0,1,0,.11.24.24,0,0,1-.14.08.73.73,0,0,1-.25,0l-.4,0-.4,0a.79.79,0,0,1-.25,0,.24.24,0,0,1-.14-.08.21.21,0,0,1,0-.11V37.35a.21.21,0,0,1,0-.11.24.24,0,0,1,.14-.09.76.76,0,0,1,.25-.06l.4,0,.4,0a.7.7,0,0,1,.25.06.24.24,0,0,1,.14.09.15.15,0,0,1,0,.11Z"/><path class="cls-5" d="M64.69,46a.15.15,0,0,1,0,.11s-.07.06-.13.08a.86.86,0,0,1-.26,0l-.4,0-.4,0a.79.79,0,0,1-.25,0c-.06,0-.11,0-.13-.08A.15.15,0,0,1,63,46V37.35a.15.15,0,0,1,0-.11.22.22,0,0,1,.13-.09.76.76,0,0,1,.25-.06l.4,0,.4,0a.83.83,0,0,1,.26.06.22.22,0,0,1,.13.09.15.15,0,0,1,0,.11Z"/><path class="cls-5" d="M71.75,42.89a.65.65,0,0,1-.14.45.5.5,0,0,1-.37.14H67.68a2.38,2.38,0,0,0,.09.68,1.31,1.31,0,0,0,.28.52,1.23,1.23,0,0,0,.5.32,2,2,0,0,0,.73.11,4.26,4.26,0,0,0,.76-.06,4.76,4.76,0,0,0,.57-.14l.4-.13a.6.6,0,0,1,.25-.07.15.15,0,0,1,.1,0s0,0,.07.08a.58.58,0,0,1,0,.17,2.1,2.1,0,0,1,0,.27v.25c0,.06,0,.12,0,.17a.34.34,0,0,1,0,.12.61.61,0,0,1-.07.1.88.88,0,0,1-.23.12,4.23,4.23,0,0,1-.49.15,5.06,5.06,0,0,1-.68.14,6.77,6.77,0,0,1-.81,0,4.36,4.36,0,0,1-1.37-.19,2.38,2.38,0,0,1-1.57-1.61A4.76,4.76,0,0,1,66,43.13a4.66,4.66,0,0,1,.2-1.41,3,3,0,0,1,.59-1.07,2.51,2.51,0,0,1,.94-.66A3.13,3.13,0,0,1,69,39.76a3.35,3.35,0,0,1,1.26.21,2.37,2.37,0,0,1,.86.6,2.43,2.43,0,0,1,.49.91,3.81,3.81,0,0,1,.16,1.15Zm-1.6-.47a1.73,1.73,0,0,0-.28-1.1,1.09,1.09,0,0,0-.92-.39,1.31,1.31,0,0,0-.55.11,1.12,1.12,0,0,0-.39.32,1.66,1.66,0,0,0-.24.48,2.61,2.61,0,0,0-.09.58Z"/><path class="cls-5" d="M77.23,44.33a1.87,1.87,0,0,1-.19.88,1.71,1.71,0,0,1-.52.64,2.33,2.33,0,0,1-.81.38,3.63,3.63,0,0,1-1,.13,3.22,3.22,0,0,1-.63,0,3.61,3.61,0,0,1-.54-.12,2.42,2.42,0,0,1-.39-.16,1.36,1.36,0,0,1-.23-.14.5.5,0,0,1-.11-.22,1.63,1.63,0,0,1,0-.44,2.54,2.54,0,0,1,0-.3c0-.08,0-.14,0-.19a.22.22,0,0,1,.07-.09l.1,0a.56.56,0,0,1,.21.08,2.25,2.25,0,0,0,.35.18,3.35,3.35,0,0,0,.49.19,2.47,2.47,0,0,0,.63.08,1.25,1.25,0,0,0,.4,0,.83.83,0,0,0,.3-.13.57.57,0,0,0,.2-.21.75.75,0,0,0,.06-.31.48.48,0,0,0-.12-.33,1,1,0,0,0-.32-.25,3.79,3.79,0,0,0-.45-.2l-.52-.2a3.6,3.6,0,0,1-.52-.26,1.7,1.7,0,0,1-.45-.35,1.66,1.66,0,0,1-.33-.51,1.85,1.85,0,0,1-.12-.71,1.81,1.81,0,0,1,.17-.77,1.69,1.69,0,0,1,.47-.6,2.41,2.41,0,0,1,.75-.38,3.14,3.14,0,0,1,1-.14,3.08,3.08,0,0,1,.53,0,3,3,0,0,1,.47.1,2.16,2.16,0,0,1,.36.12l.2.12a.41.41,0,0,1,.09.1.34.34,0,0,1,0,.12.72.72,0,0,1,0,.17,1.85,1.85,0,0,1,0,.25,2.36,2.36,0,0,1,0,.29.48.48,0,0,1,0,.18.2.2,0,0,1-.06.09l-.09,0a.4.4,0,0,1-.19-.07,2.26,2.26,0,0,0-.31-.15L75.78,41a2.4,2.4,0,0,0-.56-.06,1.51,1.51,0,0,0-.39,0,.85.85,0,0,0-.27.13.74.74,0,0,0-.16.2.7.7,0,0,0-.05.25.49.49,0,0,0,.12.34,1.4,1.4,0,0,0,.33.24,3.49,3.49,0,0,0,.47.2l.52.2a5,5,0,0,1,.52.25,2.09,2.09,0,0,1,.47.36,2,2,0,0,1,.33.5A1.85,1.85,0,0,1,77.23,44.33Z"/><path class="cls-5" d="M27.83,56.93a5.58,5.58,0,0,1-.16,1.41,3.3,3.3,0,0,1-.49,1.07,2.15,2.15,0,0,1-.8.67,2.44,2.44,0,0,1-1.1.24,2.26,2.26,0,0,1-.47,0,1.56,1.56,0,0,1-.41-.15,2.42,2.42,0,0,1-.4-.25,4.23,4.23,0,0,1-.41-.36v2.76a.19.19,0,0,1,0,.12.36.36,0,0,1-.13.09,1.22,1.22,0,0,1-.25.05l-.4,0-.4,0a1.33,1.33,0,0,1-.26-.05.36.36,0,0,1-.13-.09.19.19,0,0,1,0-.12V54.09A.24.24,0,0,1,22,54a.23.23,0,0,1,.12-.08.81.81,0,0,1,.21,0H23a.9.9,0,0,1,.22,0,.24.24,0,0,1,.11.08.17.17,0,0,1,0,.12v.69a5.12,5.12,0,0,1,.5-.46,2.6,2.6,0,0,1,.5-.34,2.14,2.14,0,0,1,.53-.2,2.71,2.71,0,0,1,.58-.07,2.21,2.21,0,0,1,1.1.26,2.13,2.13,0,0,1,.74.69,2.91,2.91,0,0,1,.41,1A5.57,5.57,0,0,1,27.83,56.93Zm-1.72.12a4.21,4.21,0,0,0-.05-.72,2.18,2.18,0,0,0-.19-.61,1.09,1.09,0,0,0-.36-.43.87.87,0,0,0-.54-.16,1,1,0,0,0-.33,0,1,1,0,0,0-.33.16,2.11,2.11,0,0,0-.34.29,3.66,3.66,0,0,0-.38.44V58a3.83,3.83,0,0,0,.67.67,1.07,1.07,0,0,0,.65.24.9.9,0,0,0,.55-.16,1.19,1.19,0,0,0,.37-.43,2.25,2.25,0,0,0,.22-.6A3.79,3.79,0,0,0,26.11,57.05Z"/><path class="cls-5" d="M34.14,60a.19.19,0,0,1-.06.15.54.54,0,0,1-.21.08l-.41,0-.44,0a.49.49,0,0,1-.19-.08.23.23,0,0,1,0-.15V59.5a2.55,2.55,0,0,1-.83.6,2.28,2.28,0,0,1-1,.22,2.93,2.93,0,0,1-.86-.12,1.93,1.93,0,0,1-.68-.36,1.67,1.67,0,0,1-.44-.6,2.07,2.07,0,0,1-.16-.82,1.89,1.89,0,0,1,.2-.89,1.72,1.72,0,0,1,.6-.63,3.19,3.19,0,0,1,1-.36A6.91,6.91,0,0,1,32,56.42h.57v-.35a2.31,2.31,0,0,0-.05-.49.75.75,0,0,0-.19-.34.82.82,0,0,0-.34-.21,2,2,0,0,0-.53-.06,2.83,2.83,0,0,0-.74.09,5.36,5.36,0,0,0-.57.2l-.42.21a.6.6,0,0,1-.27.09.21.21,0,0,1-.13-.05.48.48,0,0,1-.09-.13.81.81,0,0,1-.05-.21,1.14,1.14,0,0,1,0-.27,1.42,1.42,0,0,1,0-.33.5.5,0,0,1,.12-.21,1.35,1.35,0,0,1,.33-.21,2.93,2.93,0,0,1,.53-.21,4.24,4.24,0,0,1,.68-.16,4.54,4.54,0,0,1,.75-.07,4.49,4.49,0,0,1,1.18.14,2.09,2.09,0,0,1,.8.41A1.69,1.69,0,0,1,34,55,3.26,3.26,0,0,1,34.14,56Zm-1.62-2.5h-.63a3.37,3.37,0,0,0-.68.06,1.3,1.3,0,0,0-.46.17.79.79,0,0,0-.26.29.92.92,0,0,0-.08.38.75.75,0,0,0,.23.58.94.94,0,0,0,.65.21,1.21,1.21,0,0,0,.64-.18,2.64,2.64,0,0,0,.59-.51Z"/><path class="cls-5" d="M39.55,54.63c0,.16,0,.29,0,.39a1.19,1.19,0,0,1,0,.24.35.35,0,0,1-.07.12.18.18,0,0,1-.11,0l-.11,0-.15,0-.18-.05a.78.78,0,0,0-.22,0,.66.66,0,0,0-.27.06,1.46,1.46,0,0,0-.29.17,2.39,2.39,0,0,0-.31.32,4.33,4.33,0,0,0-.34.48V60a.21.21,0,0,1,0,.11.3.3,0,0,1-.14.08,1.09,1.09,0,0,1-.25,0l-.4,0-.4,0a1.09,1.09,0,0,1-.25,0,.3.3,0,0,1-.14-.08.21.21,0,0,1,0-.11V54.09a.17.17,0,0,1,0-.12.24.24,0,0,1,.11-.08,1,1,0,0,1,.22,0h.69a.81.81,0,0,1,.21,0,.24.24,0,0,1,.11.08.24.24,0,0,1,0,.12v.73a4.59,4.59,0,0,1,.44-.54,1.9,1.9,0,0,1,.38-.34,1.79,1.79,0,0,1,.37-.18,1.64,1.64,0,0,1,.37,0h.18l.21,0,.18.05.12.06,0,.07,0,.11c0,.05,0,.12,0,.21Z"/><path class="cls-5" d="M45.83,56.85a.61.61,0,0,1-.13.44.49.49,0,0,1-.38.15H41.76a2.43,2.43,0,0,0,.09.68,1.38,1.38,0,0,0,.28.52,1.23,1.23,0,0,0,.5.32,2.24,2.24,0,0,0,.73.11,4.26,4.26,0,0,0,.76-.06,4.76,4.76,0,0,0,.57-.14,3.6,3.6,0,0,0,.4-.14.74.74,0,0,1,.25-.06l.1,0a.22.22,0,0,1,.07.09.35.35,0,0,1,0,.16,2.35,2.35,0,0,1,0,.28v.24c0,.07,0,.13,0,.18a.34.34,0,0,1,0,.12l-.07.09a.82.82,0,0,1-.23.13,4.23,4.23,0,0,1-.49.15,6.55,6.55,0,0,1-1.49.19,4.35,4.35,0,0,1-1.37-.2,2.38,2.38,0,0,1-1-.6,2.46,2.46,0,0,1-.59-1,4.67,4.67,0,0,1-.19-1.43,4.75,4.75,0,0,1,.2-1.41,3,3,0,0,1,.59-1.06,2.69,2.69,0,0,1,1-.67,3.24,3.24,0,0,1,1.25-.23,3.29,3.29,0,0,1,1.25.22,2.37,2.37,0,0,1,.86.6,2.43,2.43,0,0,1,.49.91,3.79,3.79,0,0,1,.16,1.14Zm-1.6-.48A1.72,1.72,0,0,0,44,55.28a1.1,1.1,0,0,0-.92-.4,1.18,1.18,0,0,0-.55.12,1.12,1.12,0,0,0-.39.32,1.6,1.6,0,0,0-.24.47,2.7,2.7,0,0,0-.09.58Z"/><path class="cls-5" d="M51.62,59a2.44,2.44,0,0,1,0,.29.84.84,0,0,1,0,.19,1.3,1.3,0,0,1,0,.13.83.83,0,0,1-.11.13,1.23,1.23,0,0,1-.27.18,2.14,2.14,0,0,1-.43.19,2.74,2.74,0,0,1-.53.14,2.82,2.82,0,0,1-.59.05,3.12,3.12,0,0,1-1.19-.21,2.21,2.21,0,0,1-.88-.62,2.59,2.59,0,0,1-.53-1,4.27,4.27,0,0,1-.19-1.35,4.88,4.88,0,0,1,.22-1.52,3,3,0,0,1,.62-1.06,2.48,2.48,0,0,1,.93-.63,3.44,3.44,0,0,1,1.18-.2,3,3,0,0,1,.52.05,3.23,3.23,0,0,1,.47.12,1.76,1.76,0,0,1,.39.18,1,1,0,0,1,.25.17.77.77,0,0,1,.1.12.39.39,0,0,1,.05.13,1,1,0,0,1,0,.19,2.35,2.35,0,0,1,0,.28,1.69,1.69,0,0,1-.06.54c-.05.1-.1.15-.17.15a.4.4,0,0,1-.24-.09l-.29-.2a2,2,0,0,0-.41-.21,1.62,1.62,0,0,0-.57-.09,1.13,1.13,0,0,0-1,.5A2.53,2.53,0,0,0,48.53,57a4,4,0,0,0,.08.83,1.81,1.81,0,0,0,.26.61,1,1,0,0,0,.42.36,1.34,1.34,0,0,0,.58.12,1.49,1.49,0,0,0,.59-.1,2.45,2.45,0,0,0,.43-.22c.12-.09.23-.16.31-.23a.33.33,0,0,1,.21-.1.17.17,0,0,1,.1,0,.17.17,0,0,1,.06.12,1.2,1.2,0,0,1,0,.23C51.62,58.75,51.62,58.87,51.62,59Z"/><path class="cls-5" d="M54.6,52.11a.92.92,0,0,1-.21.69,1.15,1.15,0,0,1-.75.19,1.09,1.09,0,0,1-.75-.19.88.88,0,0,1-.2-.66,1,1,0,0,1,.2-.69,1.1,1.1,0,0,1,.76-.2,1.13,1.13,0,0,1,.75.19A.91.91,0,0,1,54.6,52.11ZM54.47,60a.15.15,0,0,1,0,.11.32.32,0,0,1-.13.08,1.33,1.33,0,0,1-.26,0l-.4,0-.4,0-.25,0a.37.37,0,0,1-.14-.08.2.2,0,0,1,0-.11V54.1a.2.2,0,0,1,0-.11A.38.38,0,0,1,53,53.9l.25,0a2.36,2.36,0,0,1,.4,0,2.24,2.24,0,0,1,.4,0,1.33,1.33,0,0,1,.26,0,.33.33,0,0,1,.13.09.15.15,0,0,1,0,.11Z"/><path class="cls-5" d="M62,57a4.18,4.18,0,0,1-.2,1.36,3,3,0,0,1-.59,1.07,2.79,2.79,0,0,1-1,.69,4.29,4.29,0,0,1-2.77,0,2.44,2.44,0,0,1-1-.63,2.55,2.55,0,0,1-.56-1,4.9,4.9,0,0,1-.19-1.38,4.53,4.53,0,0,1,.2-1.37,3.1,3.1,0,0,1,.6-1.07,2.77,2.77,0,0,1,1-.68A3.78,3.78,0,0,1,59,53.71a4,4,0,0,1,1.36.22,2.37,2.37,0,0,1,1,.63,2.67,2.67,0,0,1,.56,1A4.93,4.93,0,0,1,62,57Zm-1.7.06a3.87,3.87,0,0,0-.07-.79,1.73,1.73,0,0,0-.23-.64,1.18,1.18,0,0,0-.44-.42,1.4,1.4,0,0,0-.68-.15,1.48,1.48,0,0,0-.65.14,1.2,1.2,0,0,0-.45.39,1.85,1.85,0,0,0-.27.62,3.52,3.52,0,0,0-.09.83,3.94,3.94,0,0,0,.08.8,2,2,0,0,0,.23.64,1.16,1.16,0,0,0,.44.41,1.4,1.4,0,0,0,.68.15,1.45,1.45,0,0,0,.65-.13,1.15,1.15,0,0,0,.45-.4,1.76,1.76,0,0,0,.27-.62A4.1,4.1,0,0,0,60.34,57Zm-1.12-5.81a.46.46,0,0,1,.12-.12A.34.34,0,0,1,59.5,51l.25,0h.37a2.83,2.83,0,0,1,.47,0,.58.58,0,0,1,.25.07s.08.07.07.12a.24.24,0,0,1-.06.14l-1.28,1.52-.1.11a.46.46,0,0,1-.14.07.94.94,0,0,1-.2,0l-.32,0-.36,0a.47.47,0,0,1-.19-.06.1.1,0,0,1,0-.11.26.26,0,0,1,.07-.15Z"/><path class="cls-5" d="M68.21,53.68a2.94,2.94,0,0,1-.16,1,2.3,2.3,0,0,1-.43.75,2.25,2.25,0,0,1-.67.51,2.67,2.67,0,0,1-.86.24L66,57.43q0,.12-.18.18a1.79,1.79,0,0,1-.53.06H65a1,1,0,0,1-.23,0,.32.32,0,0,1-.13-.07.16.16,0,0,1,0-.12l-.06-1.55a1.17,1.17,0,0,1,0-.34.34.34,0,0,1,.09-.21.45.45,0,0,1,.17-.11,1,1,0,0,1,.25,0h.1a1.57,1.57,0,0,0,.6-.11,1,1,0,0,0,.41-.3,1.07,1.07,0,0,0,.24-.43,1.78,1.78,0,0,0,.08-.53,1.81,1.81,0,0,0-.09-.58,1.29,1.29,0,0,0-.27-.45,1.06,1.06,0,0,0-.45-.29,1.79,1.79,0,0,0-.64-.1,2.55,2.55,0,0,0-.59.06,2.05,2.05,0,0,0-.44.15l-.31.14a.5.5,0,0,1-.19.07.13.13,0,0,1-.08,0,.23.23,0,0,1-.07-.11,2.07,2.07,0,0,1,0-.23,3.21,3.21,0,0,1,0-.36,2.44,2.44,0,0,1,0-.34.39.39,0,0,1,.09-.17,1.14,1.14,0,0,1,.25-.15,2.7,2.7,0,0,1,.44-.17c.17,0,.36-.09.57-.13a4.65,4.65,0,0,1,.66-.05,3.47,3.47,0,0,1,1.32.22,2.52,2.52,0,0,1,.91.57,2.3,2.3,0,0,1,.51.83A2.93,2.93,0,0,1,68.21,53.68Zm-1.95,5.63a1.92,1.92,0,0,1,0,.45.71.71,0,0,1-.15.3.63.63,0,0,1-.29.16,1.84,1.84,0,0,1-.44.05,1.89,1.89,0,0,1-.46-.05.64.64,0,0,1-.28-.16.71.71,0,0,1-.15-.3,1.87,1.87,0,0,1,0-.45,1.89,1.89,0,0,1,0-.46.69.69,0,0,1,.15-.31.64.64,0,0,1,.28-.16,1.89,1.89,0,0,1,.46-.05,1.84,1.84,0,0,1,.44.05.63.63,0,0,1,.29.16.69.69,0,0,1,.15.31A2,2,0,0,1,66.26,59.31Z"/></g></g></svg>