<svg xmlns="http://www.w3.org/2000/svg" viewBox="0 0 173.22 111.97"><defs><style>.cls-1{opacity:0.3;}.cls-2{fill:#fff;}.cls-3{fill:#96989b;}.cls-4{fill:#231f20;}.cls-5{stroke:#000;stroke-miterlimit:10;stroke-width:0.24px;}</style></defs><g id="Capa_2" data-name="Capa 2"><g id="Capa_1-2" data-name="Capa 1"><path class="cls-1" d="M3.88,15.4c7.56-10.34,25.2-6.69,38.68-6.71,2.42,0,4.89-.13,7.41-.22,17.66-.69,37.52-2.34,53.9-1.13a96.21,96.21,0,0,1,11,1.4c32.51,10,21,45.51,19.09,64.22,4.87,5.43,14.28,12.17,31.6,13.76,0,0-17.41,1.25-30.89,5.18-.61,7-3.69,13.41-15.32,17.85a41.05,41.05,0,0,1-9.27,1c-3.43.11-6.78.11-10.08.07s-6.56-.16-9.81-.27a250.35,250.35,0,0,0-29,0c-2.42.1-4.83.21-7.25.3-16-.38-37.62,5.82-46.44-7.26C-3.7,87.75,3.52,68.48.85,50.85.58,48.91.32,47,.16,45.08-.32,39.38.1,20.26,3.88,15.4Z"/><path class="cls-2" d="M8.94,9.31C16.5-1,34.15,2.62,47.63,2.6c2.41,0,4.89-.12,7.41-.22C72.69,1.7,92.56,0,108.93,1.25a94.43,94.43,0,0,1,11,1.41c28.54,8.75,23.12,40.33,20.1,57.25-.89,5,1.48,10,6.19,13,5.49,3.54,13.33,6.66,24.4,7.67a195,195,0,0,0-24.42,3.55,9.55,9.55,0,0,0-7.32,6.21c-1.57,5.17-5.45,9.83-14.47,13.27a40.55,40.55,0,0,1-9.27,1c-3.44.11-6.78.12-10.08.07s-6.56-.15-9.82-.27a250.19,250.19,0,0,0-29,0l-7.25.29c-16-.37-37.63,5.82-46.45-7.25C1.36,81.66,8.58,62.4,5.92,44.77c-.27-1.94-.53-3.87-.69-5.77C4.74,33.29,5.16,14.18,8.94,9.31Z"/><path class="cls-3" d="M140.5,65.75A12.36,12.36,0,0,1,137.06,55c1.73-9.74,4.25-33.46.64-41.93,7.68,9.31,4.45,35.16,2.36,46.87A11.9,11.9,0,0,0,140.5,65.75Z"/><path class="cls-3" d="M56,99.81c2.42-.09,4.83-.2,7.25-.3a250.35,250.35,0,0,1,29,0c3.25.11,6.51.21,9.81.26s6.65.05,10.08-.06a41,41,0,0,0,9.27-1c9-3.44,12.91-8.09,14.47-13.26a9.56,9.56,0,0,1,7.32-6.22c3.95-.87,7.93-1.55,11.52-2.07a61.76,61.76,0,0,0,15.91,3.46,195,195,0,0,0-24.42,3.55,9.55,9.55,0,0,0-7.32,6.21c-1.57,5.17-5.45,9.83-14.47,13.27a40.55,40.55,0,0,1-9.27,1c-3.44.11-6.78.12-10.08.07s-6.56-.15-9.82-.27a250.19,250.19,0,0,0-29,0l-7.25.29c-16-.37-37.63,5.82-46.45-7.25A32.19,32.19,0,0,1,9.94,93C19,105.46,40.26,99.44,56,99.81Z"/><path class="cls-4" d="M11.77,97.92C4.31,87.4,4.84,75.29,5.34,63.58,5.61,57.38,5.89,51,5,44.87c-.28-2-.54-3.92-.7-5.81C3.83,33.9,4,14.26,8.14,8.87,14.46.24,27.51.9,39,1.49c3,.15,5.88.29,8.58.29,2.24,0,4.66-.12,7.39-.22,4.26-.17,8.75-.39,13.09-.61C82.07.24,96.53-.49,109,.43a97.44,97.44,0,0,1,11.16,1.42l.11,0c27.46,8.42,24.34,38.75,21.33,54.89-.2,1.09-.41,2.18-.6,3.26-.84,4.72,1.39,9.42,5.82,12.27,6.38,4.12,12.5,6.44,22,7.31l4.4.5c-.13,0-14.78,2.59-26.55,5.19-3.26.72-6,2.55-6.83,5.3-1.89,6.24-6.66,10.62-15,13.81l-.15,0a42.22,42.22,0,0,1-9.48,1c-3.14.1-6.45.13-10.13.07-3.4,0-6.72-.16-9.88-.27-9.28-.69-18.55-.39-28.85,0l-1.56.06-5.77.24c-4-.1-8.21.21-12.72.54-4.07.3-8.18.6-12.13.6C24.93,106.71,16.6,105.07,11.77,97.92Zm47.22,6,5.7-.23,1.55-.06c10.37-.44,19.72-.74,29.07,0,3.1.11,6.42.22,9.79.27,3.65,0,6.93,0,10.08-.07a39.69,39.69,0,0,0,8.94-.91c7.73-3,12.13-7,13.86-12.69a10.47,10.47,0,0,1,8-6.81c6.39-1.41,13-2.33,17.69-2.89a50.18,50.18,0,0,1-18-6.87c-5-3.22-7.51-8.52-6.57-13.84.2-1.09.4-2.18.61-3.27,3-16.18,5.86-45.1-20-53.06a94.94,94.94,0,0,0-10.84-1.38c-12.35-.91-26.73-.18-40.64.52-4.35.22-8.85.45-13.13.61-2.74.11-5.17.18-7.45.23-2.78,0-5.67-.15-8.72-.3C27.39,2.54,15.47,1.94,9.76,9.75l0,0c-3.87,5-4,24.29-3.56,29.17.16,1.85.42,3.77.69,5.72.94,6.22.66,12.71.39,19-.52,12-1,23.33,6.16,33.44,6.3,9.33,19.73,8.35,32.71,7.4,4-.3,7.79-.58,11.35-.58Z"/><path class="cls-5" d="M22.16,32.35a2.82,2.82,0,0,1-.2,1.13,2,2,0,0,1-.58.83,2.33,2.33,0,0,1-.93.51,4.21,4.21,0,0,1-1.3.18h-.63v2.42a.18.18,0,0,1,0,.1.32.32,0,0,1-.13.08l-.23,0h-.75l-.24,0a.28.28,0,0,1-.12-.08.17.17,0,0,1,0-.1V30.6a.53.53,0,0,1,.14-.41.54.54,0,0,1,.38-.14h1.78l.51,0,.59.09a3,3,0,0,1,.69.25,2.23,2.23,0,0,1,.59.46,1.9,1.9,0,0,1,.37.65A2.45,2.45,0,0,1,22.16,32.35Zm-1.61.12a1.29,1.29,0,0,0-.14-.66,1,1,0,0,0-.34-.38,1.4,1.4,0,0,0-.43-.16,3.59,3.59,0,0,0-.47,0h-.65v2.57h.69a1.56,1.56,0,0,0,.61-.1.94.94,0,0,0,.41-.28,1,1,0,0,0,.24-.42A1.61,1.61,0,0,0,20.55,32.47Z"/><path class="cls-5" d="M27.9,34.67a.54.54,0,0,1-.12.39.42.42,0,0,1-.33.13H24.27a2.25,2.25,0,0,0,.08.61,1.21,1.21,0,0,0,.25.46,1,1,0,0,0,.44.29,1.87,1.87,0,0,0,.66.1,3.51,3.51,0,0,0,.68-.06,2.83,2.83,0,0,0,.5-.12l.36-.12a.61.61,0,0,1,.22-.06l.09,0a.12.12,0,0,1,.06.08.28.28,0,0,1,0,.15,1.63,1.63,0,0,1,0,.24V37c0,.06,0,.11,0,.15a.28.28,0,0,1,0,.11.24.24,0,0,1-.06.09.92.92,0,0,1-.2.11l-.44.14c-.17,0-.38.08-.6.11a4.26,4.26,0,0,1-.73,0,4.08,4.08,0,0,1-1.22-.17,2.14,2.14,0,0,1-.87-.54,2.11,2.11,0,0,1-.53-.9,4.34,4.34,0,0,1-.17-1.27A4.08,4.08,0,0,1,23,33.62a2.66,2.66,0,0,1,.53-.95,2.29,2.29,0,0,1,.84-.59,2.82,2.82,0,0,1,1.11-.21,2.88,2.88,0,0,1,1.12.2,2,2,0,0,1,.77.53,2.27,2.27,0,0,1,.44.81,3.75,3.75,0,0,1,.14,1Zm-1.43-.43a1.51,1.51,0,0,0-.25-1,1,1,0,0,0-.82-.35,1.07,1.07,0,0,0-.49.1,1,1,0,0,0-.34.29,1.12,1.12,0,0,0-.22.42,2.72,2.72,0,0,0-.08.51Z"/><path class="cls-5" d="M32.46,32.69c0,.14,0,.26,0,.35s0,.16,0,.21a.36.36,0,0,1-.06.11l-.1,0a.23.23,0,0,1-.11,0l-.13,0-.16,0a.58.58,0,0,0-.19,0,.53.53,0,0,0-.25.05.83.83,0,0,0-.25.15,1.84,1.84,0,0,0-.28.28c-.09.12-.2.26-.31.43v3.26a.17.17,0,0,1,0,.1.22.22,0,0,1-.12.07,1,1,0,0,1-.23,0h-.71l-.23,0a.35.35,0,0,1-.12-.07.17.17,0,0,1,0-.1V32.21a.15.15,0,0,1,0-.1.21.21,0,0,1,.1-.08.88.88,0,0,1,.2,0l.3,0,.31,0a.69.69,0,0,1,.19,0,.21.21,0,0,1,.1.08.15.15,0,0,1,0,.1v.65a3.65,3.65,0,0,1,.38-.49,3,3,0,0,1,.35-.3,1.21,1.21,0,0,1,.33-.15,1.25,1.25,0,0,1,.32-.05h.17l.18,0,.16.05a.38.38,0,0,1,.11,0,.25.25,0,0,1,0,.07.41.41,0,0,1,0,.1s0,.1,0,.18Z"/><path class="cls-5" d="M36.52,30.22a2.1,2.1,0,0,1,0,.27.53.53,0,0,1,0,.16.1.1,0,0,1,0,.07.07.07,0,0,1-.06,0,.2.2,0,0,1-.1,0l-.12,0-.17,0a.86.86,0,0,0-.23,0,.61.61,0,0,0-.28.05.45.45,0,0,0-.19.15.78.78,0,0,0-.11.28,2.63,2.63,0,0,0,0,.43V32h.95a.17.17,0,0,1,.1,0,.22.22,0,0,1,.07.09.78.78,0,0,1,0,.19,2.19,2.19,0,0,1,0,.29,1.3,1.3,0,0,1-.06.46.19.19,0,0,1-.17.13h-.95v4.23a.18.18,0,0,1,0,.1.22.22,0,0,1-.12.07.9.9,0,0,1-.22,0H34a.9.9,0,0,1-.22,0,.22.22,0,0,1-.12-.07.17.17,0,0,1,0-.1V33.2H33a.19.19,0,0,1-.17-.13,1.67,1.67,0,0,1,0-.46,2.44,2.44,0,0,1,0-.29c0-.08,0-.14,0-.19a.24.24,0,0,1,.08-.09.15.15,0,0,1,.1,0h.65v-.44a3.63,3.63,0,0,1,.1-.93,1.68,1.68,0,0,1,.33-.67,1.34,1.34,0,0,1,.58-.4,2.23,2.23,0,0,1,.82-.14,3,3,0,0,1,.43,0,2.09,2.09,0,0,1,.32.08.45.45,0,0,1,.16.09.23.23,0,0,1,.07.11.8.8,0,0,1,0,.18A2.53,2.53,0,0,1,36.52,30.22Z"/><path class="cls-5" d="M41.78,34.67a.54.54,0,0,1-.12.39.44.44,0,0,1-.34.13H38.15a1.92,1.92,0,0,0,.08.61,1.09,1.09,0,0,0,.25.46,1,1,0,0,0,.44.29,1.81,1.81,0,0,0,.65.1,3.37,3.37,0,0,0,.68-.06,2.75,2.75,0,0,0,.51-.12l.35-.12a.65.65,0,0,1,.23-.06l.09,0a.28.28,0,0,1,.06.08,1,1,0,0,1,0,.15,1.63,1.63,0,0,1,0,.24,1.41,1.41,0,0,1,0,.22c0,.06,0,.11,0,.15a.28.28,0,0,1,0,.11l-.06.09-.21.11-.43.14c-.18,0-.38.08-.6.11a4.26,4.26,0,0,1-.73,0,4.08,4.08,0,0,1-1.22-.17,2.25,2.25,0,0,1-.88-.54,2.21,2.21,0,0,1-.52-.9,4,4,0,0,1-.17-1.27,4.08,4.08,0,0,1,.18-1.26,2.66,2.66,0,0,1,.53-.95,2.29,2.29,0,0,1,.84-.59,2.82,2.82,0,0,1,1.11-.21,2.88,2.88,0,0,1,1.12.2,2,2,0,0,1,.77.53,2.25,2.25,0,0,1,.43.81,3.4,3.4,0,0,1,.15,1Zm-1.43-.43a1.51,1.51,0,0,0-.25-1,1,1,0,0,0-.82-.35,1.07,1.07,0,0,0-.49.1,1,1,0,0,0-.35.29,1.27,1.27,0,0,0-.21.42,1.7,1.7,0,0,0-.08.51Z"/><path class="cls-5" d="M46.94,36.6c0,.1,0,.18,0,.25a1.41,1.41,0,0,0,0,.18s0,.08,0,.11a.27.27,0,0,1-.09.11,1.09,1.09,0,0,1-.24.16,1.76,1.76,0,0,1-.39.18,2.93,2.93,0,0,1-.47.12,3,3,0,0,1-1.59-.14,2.09,2.09,0,0,1-.78-.55,2.5,2.5,0,0,1-.48-.9,4,4,0,0,1-.16-1.2,4.24,4.24,0,0,1,.2-1.36,2.61,2.61,0,0,1,.54-.94,2.22,2.22,0,0,1,.83-.56,3,3,0,0,1,1.06-.18,2.38,2.38,0,0,1,.46,0l.42.11a2.29,2.29,0,0,1,.35.16,1.33,1.33,0,0,1,.22.15l.09.11a.34.34,0,0,1,0,.12s0,.1,0,.17V33a1.65,1.65,0,0,1,0,.47c0,.1-.09.14-.16.14a.43.43,0,0,1-.21-.08,2,2,0,0,0-.26-.18,1.51,1.51,0,0,0-.36-.18,1.29,1.29,0,0,0-.51-.09,1,1,0,0,0-.87.45,2.19,2.19,0,0,0-.31,1.29,3.38,3.38,0,0,0,.08.75,1.51,1.51,0,0,0,.22.53.92.92,0,0,0,.38.33,1.21,1.21,0,0,0,.52.11,1.35,1.35,0,0,0,.52-.09,2.36,2.36,0,0,0,.39-.2l.27-.21a.35.35,0,0,1,.19-.09l.09,0a.23.23,0,0,1,0,.11.88.88,0,0,1,0,.2C46.93,36.36,46.94,36.47,46.94,36.6Z"/><path class="cls-5" d="M51.09,36.91a2,2,0,0,1,0,.4.33.33,0,0,1-.24.29l-.24.08-.3,0H50a2.14,2.14,0,0,1-.76-.11,1.16,1.16,0,0,1-.54-.34,1.47,1.47,0,0,1-.31-.58,3.31,3.31,0,0,1-.1-.83V33.2h-.62c-.08,0-.13,0-.17-.13a1.3,1.3,0,0,1-.06-.46c0-.12,0-.21,0-.29a.74.74,0,0,1,.05-.19.22.22,0,0,1,.07-.09.19.19,0,0,1,.1,0h.62V30.84a.21.21,0,0,1,0-.1.24.24,0,0,1,.11-.08l.23-.05h.72a.9.9,0,0,1,.22.05.28.28,0,0,1,.12.08.19.19,0,0,1,0,.1V32h1.14a.17.17,0,0,1,.1,0,.16.16,0,0,1,.07.09.74.74,0,0,1,0,.19,2.44,2.44,0,0,1,0,.29,1.3,1.3,0,0,1-.06.46.17.17,0,0,1-.16.13H49.72v2.46a1.24,1.24,0,0,0,.14.64.53.53,0,0,0,.48.21l.21,0,.17-.05.12,0a.15.15,0,0,1,.09,0,.1.1,0,0,1,.07,0s0,0,0,.08a1.57,1.57,0,0,1,0,.16A2.1,2.1,0,0,1,51.09,36.91Z"/><path class="cls-5" d="M57.32,34.77A4.16,4.16,0,0,1,57.15,36a2.54,2.54,0,0,1-.54,1,2.38,2.38,0,0,1-.89.62,3.47,3.47,0,0,1-1.26.21,3.38,3.38,0,0,1-1.21-.19,2.25,2.25,0,0,1-.86-.56,2.43,2.43,0,0,1-.5-.91,4.22,4.22,0,0,1-.16-1.23,4,4,0,0,1,.17-1.22,2.62,2.62,0,0,1,.54-.95,2.57,2.57,0,0,1,.89-.61,3.46,3.46,0,0,1,1.26-.22,3.72,3.72,0,0,1,1.22.19,2.29,2.29,0,0,1,.85.56,2.43,2.43,0,0,1,.5.91A4.24,4.24,0,0,1,57.32,34.77Zm-1.51,0a4,4,0,0,0-.07-.71,1.85,1.85,0,0,0-.2-.56,1.09,1.09,0,0,0-.39-.38,1.27,1.27,0,0,0-.62-.13,1.32,1.32,0,0,0-.57.12,1,1,0,0,0-.4.35,1.51,1.51,0,0,0-.24.56,3.55,3.55,0,0,0,0,1.45,1.85,1.85,0,0,0,.2.56,1,1,0,0,0,.39.37,1.28,1.28,0,0,0,.61.14,1.31,1.31,0,0,0,.58-.12,1,1,0,0,0,.4-.35,1.53,1.53,0,0,0,.24-.55A3.38,3.38,0,0,0,55.81,34.82Z"/><path class="cls-5" d="M60,36.55c0,.16,0,.3,0,.43a2.33,2.33,0,0,1-.08.36,2.26,2.26,0,0,1-.13.33,3.49,3.49,0,0,1-.21.33l-.78,1.12-.09.1a.23.23,0,0,1-.12.06l-.17,0-.25,0-.28,0a.39.39,0,0,1-.15,0,.1.1,0,0,1,0-.08.26.26,0,0,1,0-.11l.71-1.61v-.93a.93.93,0,0,1,0-.32.4.4,0,0,1,.14-.19A.61.61,0,0,1,58.9,36a3.25,3.25,0,0,1,.72,0,.62.62,0,0,1,.24.08.4.4,0,0,1,.14.19A1,1,0,0,1,60,36.55Z"/><path class="cls-5" d="M68.93,34.67a.54.54,0,0,1-.12.39.42.42,0,0,1-.33.13H65.31a2.27,2.27,0,0,0,.07.61,1.23,1.23,0,0,0,.26.46,1,1,0,0,0,.44.29,1.81,1.81,0,0,0,.65.1,3.37,3.37,0,0,0,.68-.06,2.75,2.75,0,0,0,.51-.12l.35-.12a.65.65,0,0,1,.23-.06l.09,0a.28.28,0,0,1,.06.08,1,1,0,0,1,0,.15,1.63,1.63,0,0,1,0,.24,1.41,1.41,0,0,1,0,.22.61.61,0,0,1,0,.15.18.18,0,0,1,0,.11l-.06.09-.21.11-.43.14c-.18,0-.38.08-.6.11a4.26,4.26,0,0,1-.73,0,4,4,0,0,1-1.22-.17,2.25,2.25,0,0,1-.88-.54,2.1,2.1,0,0,1-.52-.9,4,4,0,0,1-.17-1.27A4.08,4.08,0,0,1,64,33.62a2.52,2.52,0,0,1,.53-.95,2.21,2.21,0,0,1,.84-.59,2.78,2.78,0,0,1,1.11-.21,2.88,2.88,0,0,1,1.12.2,2,2,0,0,1,.77.53,2.25,2.25,0,0,1,.43.81,3.4,3.4,0,0,1,.14,1Zm-1.42-.43a1.51,1.51,0,0,0-.25-1,1,1,0,0,0-.82-.35A1,1,0,0,0,66,33a1,1,0,0,0-.35.29,1.27,1.27,0,0,0-.21.42,1.7,1.7,0,0,0-.08.51Z"/><path class="cls-5" d="M75.13,37.43a.17.17,0,0,1,0,.1.35.35,0,0,1-.12.07.89.89,0,0,1-.23,0H74a.9.9,0,0,1-.22,0,.22.22,0,0,1-.12-.07.13.13,0,0,1,0-.1v-3a3.12,3.12,0,0,0,0-.6,1.25,1.25,0,0,0-.16-.37.73.73,0,0,0-.28-.24.8.8,0,0,0-.39-.08.94.94,0,0,0-.56.2,3.38,3.38,0,0,0-.6.6v3.47a.17.17,0,0,1,0,.1.35.35,0,0,1-.12.07l-.23,0h-.71a1,1,0,0,1-.23,0,.22.22,0,0,1-.12-.07.17.17,0,0,1,0-.1V32.21a.25.25,0,0,1,0-.1.24.24,0,0,1,.11-.08.88.88,0,0,1,.2,0l.3,0,.31,0,.19,0a.18.18,0,0,1,.09.08.15.15,0,0,1,0,.1v.6a3.37,3.37,0,0,1,.88-.7,2,2,0,0,1,.94-.24,2.06,2.06,0,0,1,.9.18,1.64,1.64,0,0,1,.59.48,1.8,1.8,0,0,1,.32.7,3.91,3.91,0,0,1,.1,1Z"/><path class="cls-5" d="M79.56,36.91a2,2,0,0,1,0,.4.48.48,0,0,1-.09.19.4.4,0,0,1-.16.1,1,1,0,0,1-.24.08l-.29,0h-.33a2.21,2.21,0,0,1-.76-.11,1.19,1.19,0,0,1-.53-.34,1.35,1.35,0,0,1-.31-.58,2.9,2.9,0,0,1-.1-.83V33.2h-.63a.19.19,0,0,1-.17-.13,1.3,1.3,0,0,1-.06-.46,2.19,2.19,0,0,1,0-.29.78.78,0,0,1,0-.19A.24.24,0,0,1,76,32a.17.17,0,0,1,.1,0h.62V30.84a.19.19,0,0,1,0-.1.23.23,0,0,1,.12-.08.89.89,0,0,1,.23-.05h.71a.8.8,0,0,1,.22.05.23.23,0,0,1,.12.08.14.14,0,0,1,0,.1V32h1.13a.2.2,0,0,1,.11,0,.35.35,0,0,1,.07.09.78.78,0,0,1,0,.19,2.19,2.19,0,0,1,0,.29,1.3,1.3,0,0,1-.06.46.19.19,0,0,1-.17.13H78.19v2.46a1.25,1.25,0,0,0,.13.64.53.53,0,0,0,.48.21l.21,0a.69.69,0,0,0,.17-.05l.12,0a.18.18,0,0,1,.09,0,.08.08,0,0,1,.07,0,.12.12,0,0,1,.05.08,1.57,1.57,0,0,1,0,.16A1.87,1.87,0,0,1,79.56,36.91Z"/><path class="cls-5" d="M85.78,34.77A3.85,3.85,0,0,1,85.61,36a2.66,2.66,0,0,1-.53,1,2.42,2.42,0,0,1-.9.62,3.47,3.47,0,0,1-1.26.21,3.42,3.42,0,0,1-1.21-.19,2.22,2.22,0,0,1-.85-.56,2.32,2.32,0,0,1-.51-.91,4.22,4.22,0,0,1-.16-1.23,4,4,0,0,1,.18-1.22,2.6,2.6,0,0,1,.53-.95,2.52,2.52,0,0,1,.9-.61,3.37,3.37,0,0,1,1.25-.22,3.72,3.72,0,0,1,1.22.19,2.22,2.22,0,0,1,.85.56,2.43,2.43,0,0,1,.5.91A4.24,4.24,0,0,1,85.78,34.77Zm-1.51,0a4,4,0,0,0-.06-.71,1.63,1.63,0,0,0-.21-.56,1.09,1.09,0,0,0-.39-.38A1.25,1.25,0,0,0,83,33a1.34,1.34,0,0,0-.58.12,1.12,1.12,0,0,0-.4.35,1.93,1.93,0,0,0-.24.56,3.22,3.22,0,0,0-.08.74,4,4,0,0,0,.07.71,1.63,1.63,0,0,0,.21.56.87.87,0,0,0,.39.37,1.21,1.21,0,0,0,.6.14,1.28,1.28,0,0,0,.58-.12,1.07,1.07,0,0,0,.41-.35,1.72,1.72,0,0,0,.23-.55A3.38,3.38,0,0,0,84.27,34.82Z"/><path class="cls-5" d="M91.94,37.43a.18.18,0,0,1,0,.1.22.22,0,0,1-.12.07.9.9,0,0,1-.22,0h-.72a.9.9,0,0,1-.22,0,.27.27,0,0,1-.12-.07.17.17,0,0,1,0-.1v-3a2.41,2.41,0,0,0-.06-.6,1.25,1.25,0,0,0-.16-.37.78.78,0,0,0-.27-.24.8.8,0,0,0-.39-.08.94.94,0,0,0-.57.2,3.38,3.38,0,0,0-.6.6v3.47a.17.17,0,0,1,0,.1.22.22,0,0,1-.12.07,1,1,0,0,1-.23,0h-.71l-.23,0a.35.35,0,0,1-.12-.07.17.17,0,0,1,0-.1V32.21a.15.15,0,0,1,0-.1.21.21,0,0,1,.1-.08.88.88,0,0,1,.2,0l.3,0,.31,0a.69.69,0,0,1,.19,0,.21.21,0,0,1,.1.08.15.15,0,0,1,0,.1v.6a3.22,3.22,0,0,1,.88-.7,2,2,0,0,1,.93-.24,2,2,0,0,1,.9.18,1.64,1.64,0,0,1,.59.48,2,2,0,0,1,.33.7,4.45,4.45,0,0,1,.1,1Z"/><path class="cls-5" d="M97.33,36.6a1.85,1.85,0,0,1,0,.25.9.9,0,0,1,0,.18l0,.11a.47.47,0,0,1-.1.11.75.75,0,0,1-.24.16,1.91,1.91,0,0,1-.38.18,3.23,3.23,0,0,1-.47.12,3.07,3.07,0,0,1-.53,0,2.9,2.9,0,0,1-1.06-.19A2,2,0,0,1,93.7,37a2.34,2.34,0,0,1-.47-.9,4,4,0,0,1-.16-1.2,4.25,4.25,0,0,1,.19-1.36,2.63,2.63,0,0,1,.55-.94,2.14,2.14,0,0,1,.83-.56,3,3,0,0,1,1-.18,2.32,2.32,0,0,1,.46,0l.43.11.35.16.22.15.09.11a.83.83,0,0,1,0,.12s0,.1,0,.17a1.85,1.85,0,0,1,0,.25,1.29,1.29,0,0,1-.06.47c0,.1-.09.14-.15.14a.37.37,0,0,1-.21-.08,2.11,2.11,0,0,0-.27-.18,1.51,1.51,0,0,0-.36-.18,1.28,1.28,0,0,0-.5-.09,1,1,0,0,0-.88.45,2.28,2.28,0,0,0-.3,1.29,3.42,3.42,0,0,0,.07.75,1.52,1.52,0,0,0,.23.53.9.9,0,0,0,.37.33,1.25,1.25,0,0,0,.53.11,1.38,1.38,0,0,0,.52-.09,2.24,2.24,0,0,0,.38-.2L97,36a.3.3,0,0,1,.19-.09.11.11,0,0,1,.08,0,.17.17,0,0,1,.06.11c0,.05,0,.12,0,.2A2.92,2.92,0,0,1,97.33,36.6Z"/><path class="cls-5" d="M103.22,34.67a.54.54,0,0,1-.12.39.42.42,0,0,1-.33.13H99.59a2.25,2.25,0,0,0,.08.61,1.21,1.21,0,0,0,.25.46,1.06,1.06,0,0,0,.45.29,1.81,1.81,0,0,0,.65.1,3.44,3.44,0,0,0,.68-.06,3.19,3.19,0,0,0,.51-.12l.35-.12a.6.6,0,0,1,.23-.06l.09,0a.16.16,0,0,1,.05.08.39.39,0,0,1,0,.15c0,.06,0,.14,0,.24s0,.16,0,.22a.61.61,0,0,1,0,.15.81.81,0,0,1,0,.11l-.06.09-.21.11-.44.14a6,6,0,0,1-.6.11,4.14,4.14,0,0,1-.72,0,4,4,0,0,1-1.22-.17,2.25,2.25,0,0,1-.88-.54,2.1,2.1,0,0,1-.52-.9,4,4,0,0,1-.18-1.27,3.79,3.79,0,0,1,.19-1.26,2.64,2.64,0,0,1,.52-.95,2.29,2.29,0,0,1,.84-.59,2.83,2.83,0,0,1,1.12-.21,2.91,2.91,0,0,1,1.12.2,2,2,0,0,1,.76.53,2.13,2.13,0,0,1,.44.81,3.75,3.75,0,0,1,.14,1Zm-1.43-.43a1.51,1.51,0,0,0-.25-1,.94.94,0,0,0-.82-.35,1.07,1.07,0,0,0-.49.1,1,1,0,0,0-.34.29,1.27,1.27,0,0,0-.21.42,2.09,2.09,0,0,0-.09.51Z"/><path class="cls-5" d="M108.11,36a1.8,1.8,0,0,1-.17.79,1.71,1.71,0,0,1-.47.57,2.18,2.18,0,0,1-.72.34,3.7,3.7,0,0,1-.9.11,3.36,3.36,0,0,1-.56,0,4.32,4.32,0,0,1-.48-.11,3.17,3.17,0,0,1-.35-.14,1,1,0,0,1-.2-.13.35.35,0,0,1-.1-.19,1.33,1.33,0,0,1,0-.39c0-.12,0-.21,0-.28a.62.62,0,0,1,0-.16.1.1,0,0,1,.06-.08s0,0,.09,0a.44.44,0,0,1,.19.07l.31.16c.12.06.27.11.43.17a2,2,0,0,0,.57.07,1.25,1.25,0,0,0,.35,0,.85.85,0,0,0,.27-.12.47.47,0,0,0,.18-.19.59.59,0,0,0,0-.27.44.44,0,0,0-.1-.3,1.11,1.11,0,0,0-.29-.22l-.4-.18-.47-.18A2.82,2.82,0,0,1,105,35a1.72,1.72,0,0,1-.4-.31,1.51,1.51,0,0,1-.29-.45,1.73,1.73,0,0,1-.11-.63,1.57,1.57,0,0,1,.57-1.23,1.92,1.92,0,0,1,.67-.34,3,3,0,0,1,.89-.13,3.57,3.57,0,0,1,.47,0,2.2,2.2,0,0,1,.42.09,1.69,1.69,0,0,1,.32.11.82.82,0,0,1,.18.11l.08.08a.36.36,0,0,1,0,.11,1,1,0,0,0,0,.15c0,.06,0,.14,0,.23s0,.19,0,.25a1.57,1.57,0,0,1,0,.16s0,.07-.06.08a.11.11,0,0,1-.08,0,.4.4,0,0,1-.16-.06l-.28-.13a2.54,2.54,0,0,0-.39-.13,1.85,1.85,0,0,0-.5-.06,1.13,1.13,0,0,0-.34,0,.53.53,0,0,0-.24.11.4.4,0,0,0-.14.18.42.42,0,0,0,0,.22.47.47,0,0,0,.11.31.94.94,0,0,0,.29.21,2.79,2.79,0,0,0,.42.18,4.37,4.37,0,0,1,.46.18,4,4,0,0,1,.47.22,1.62,1.62,0,0,1,.41.32,1.31,1.31,0,0,1,.3.45A1.62,1.62,0,0,1,108.11,36Z"/><path class="cls-5" d="M113.4,37.43a.17.17,0,0,1,0,.1.32.32,0,0,1-.13.07.9.9,0,0,1-.22,0h-.71a1,1,0,0,1-.23,0,.22.22,0,0,1-.12-.07.18.18,0,0,1,0-.1v-7.7a.18.18,0,0,1,0-.1.23.23,0,0,1,.12-.08,1,1,0,0,1,.23-.05l.35,0,.36,0a.9.9,0,0,1,.22.05.32.32,0,0,1,.13.08.17.17,0,0,1,0,.1Z"/><path class="cls-5" d="M120.15,34.77A3.84,3.84,0,0,1,120,36a2.39,2.39,0,0,1-.53,1,2.42,2.42,0,0,1-.9.62,3.88,3.88,0,0,1-2.46,0,2.25,2.25,0,0,1-.86-.56,2.3,2.3,0,0,1-.5-.91,4.2,4.2,0,0,1-.17-1.23,4,4,0,0,1,.18-1.22,2.62,2.62,0,0,1,.54-.95,2.39,2.39,0,0,1,.89-.61,3.44,3.44,0,0,1,1.25-.22,3.68,3.68,0,0,1,1.22.19,2.14,2.14,0,0,1,.85.56,2.32,2.32,0,0,1,.51.91A4.61,4.61,0,0,1,120.15,34.77Zm-1.52,0a4,4,0,0,0-.06-.71,1.63,1.63,0,0,0-.21-.56,1,1,0,0,0-.39-.38,1.23,1.23,0,0,0-.61-.13,1.26,1.26,0,0,0-.57.12,1,1,0,0,0-.4.35,1.51,1.51,0,0,0-.24.56,3.22,3.22,0,0,0-.08.74,4,4,0,0,0,.06.71,2.17,2.17,0,0,0,.21.56,1,1,0,0,0,.39.37,1.25,1.25,0,0,0,.61.14,1.34,1.34,0,0,0,.58-.12,1,1,0,0,0,.4-.35,1.53,1.53,0,0,0,.24-.55A3.42,3.42,0,0,0,118.63,34.82Z"/><path class="cls-5" d="M125,36a1.8,1.8,0,0,1-.17.79,1.71,1.71,0,0,1-.47.57,2.18,2.18,0,0,1-.72.34,3.7,3.7,0,0,1-.9.11,3.36,3.36,0,0,1-.56,0,4.32,4.32,0,0,1-.48-.11,3.17,3.17,0,0,1-.35-.14,1,1,0,0,1-.2-.13.35.35,0,0,1-.1-.19,1.79,1.79,0,0,1,0-.39,1.91,1.91,0,0,1,0-.28.38.38,0,0,1,0-.16s0-.07.06-.08,0,0,.09,0a.44.44,0,0,1,.19.07l.31.16.44.17a1.91,1.91,0,0,0,.56.07,1.25,1.25,0,0,0,.35,0,.85.85,0,0,0,.27-.12.47.47,0,0,0,.18-.19.6.6,0,0,0,.06-.27.44.44,0,0,0-.11-.3,1.11,1.11,0,0,0-.29-.22l-.4-.18-.47-.18a3.29,3.29,0,0,1-.46-.23,1.72,1.72,0,0,1-.4-.31,1.51,1.51,0,0,1-.29-.45,1.73,1.73,0,0,1-.11-.63,1.57,1.57,0,0,1,.57-1.23,1.92,1.92,0,0,1,.67-.34,3,3,0,0,1,.89-.13,3.57,3.57,0,0,1,.47,0,2.2,2.2,0,0,1,.42.09,1.69,1.69,0,0,1,.32.11.82.82,0,0,1,.18.11.29.29,0,0,1,.08.08.36.36,0,0,1,0,.11,1,1,0,0,0,0,.15c0,.06,0,.14,0,.23s0,.19,0,.25a1.57,1.57,0,0,1,0,.16s0,.07-.06.08a.11.11,0,0,1-.08,0,.4.4,0,0,1-.16-.06l-.28-.13a2.54,2.54,0,0,0-.39-.13,1.85,1.85,0,0,0-.5-.06,1.13,1.13,0,0,0-.34,0,.53.53,0,0,0-.24.11.4.4,0,0,0-.14.18.54.54,0,0,0,0,.22.47.47,0,0,0,.11.31,1.08,1.08,0,0,0,.29.21,2.79,2.79,0,0,0,.42.18,4.37,4.37,0,0,1,.46.18,4,4,0,0,1,.47.22,1.87,1.87,0,0,1,.42.32,1.45,1.45,0,0,1,.29.45A1.62,1.62,0,0,1,125,36Z"/><path class="cls-5" d="M11.41,42.88a.85.85,0,0,1-.18.62,1,1,0,0,1-.67.17,1,1,0,0,1-.67-.17.77.77,0,0,1-.18-.59.87.87,0,0,1,.18-.62,1,1,0,0,1,.68-.17,1,1,0,0,1,.67.17A.83.83,0,0,1,11.41,42.88Zm-.11,7a.12.12,0,0,1,0,.1.23.23,0,0,1-.12.08,1,1,0,0,1-.22,0l-.36,0-.36,0-.22,0A.23.23,0,0,1,9.86,50a.15.15,0,0,1,0-.1V44.66a.18.18,0,0,1,0-.1.31.31,0,0,1,.12-.08l.22,0h.72l.22,0a.31.31,0,0,1,.12.08.13.13,0,0,1,0,.1Z"/><path class="cls-5" d="M17.76,49.87a.15.15,0,0,1,0,.1.23.23,0,0,1-.12.08,1,1,0,0,1-.22,0l-.36,0-.36,0a1,1,0,0,1-.22,0,.23.23,0,0,1-.12-.08.15.15,0,0,1,0-.1v-3a2.27,2.27,0,0,0-.06-.59,1.32,1.32,0,0,0-.16-.38.78.78,0,0,0-.27-.24.93.93,0,0,0-.39-.08,1,1,0,0,0-.57.2,3.38,3.38,0,0,0-.6.6v3.47a.15.15,0,0,1,0,.1.23.23,0,0,1-.12.08l-.23,0-.35,0-.36,0-.23,0A.36.36,0,0,1,12.8,50a.15.15,0,0,1,0-.1V44.65a.17.17,0,0,1,0-.1.15.15,0,0,1,.1-.07l.2,0h.61a.64.64,0,0,1,.19,0,.15.15,0,0,1,.1.07.17.17,0,0,1,0,.1v.6a3.42,3.42,0,0,1,.88-.7,2.06,2.06,0,0,1,.93-.23,2.16,2.16,0,0,1,.9.17,1.64,1.64,0,0,1,.59.48,2,2,0,0,1,.33.71,4.38,4.38,0,0,1,.1,1Z"/><path class="cls-5" d="M23.84,44.65a.23.23,0,0,1,0,.07.34.34,0,0,1,0,.09.52.52,0,0,1,0,.11s0,.09,0,.15l-1.57,4.72a.34.34,0,0,1-.08.16.34.34,0,0,1-.16.1,1.23,1.23,0,0,1-.31,0l-.51,0-.51,0a1.18,1.18,0,0,1-.31-.05.35.35,0,0,1-.16-.09.8.8,0,0,1-.08-.16L18.5,45.07c0-.08,0-.15-.05-.21s0-.11,0-.14a.2.2,0,0,1,0-.07.2.2,0,0,1,0-.11.27.27,0,0,1,.12-.07,1,1,0,0,1,.22,0h.75l.23,0a.23.23,0,0,1,.12.08.67.67,0,0,1,.06.12l1.19,3.83,0,.15,0-.15,1.17-3.83a.33.33,0,0,1,.05-.12.36.36,0,0,1,.12-.08l.22,0h.72a.87.87,0,0,1,.21,0,.23.23,0,0,1,.11.07A.2.2,0,0,1,23.84,44.65Z"/><path class="cls-5" d="M26.29,42.88a.85.85,0,0,1-.18.62,1,1,0,0,1-.68.17,1,1,0,0,1-.67-.17.81.81,0,0,1-.17-.59.87.87,0,0,1,.18-.62,1,1,0,0,1,.68-.17,1,1,0,0,1,.66.17A.79.79,0,0,1,26.29,42.88Zm-.11,7a.12.12,0,0,1,0,.1.23.23,0,0,1-.12.08,1,1,0,0,1-.22,0l-.36,0-.36,0a1,1,0,0,1-.22,0,.23.23,0,0,1-.12-.08.12.12,0,0,1,0-.1V44.66a.13.13,0,0,1,0-.1.31.31,0,0,1,.12-.08l.22,0h.72l.22,0a.31.31,0,0,1,.12.08.13.13,0,0,1,0,.1Z"/><path class="cls-5" d="M30.74,49.36a1.92,1.92,0,0,1,0,.39.54.54,0,0,1-.09.2.43.43,0,0,1-.15.09,1.35,1.35,0,0,1-.24.08l-.3.05-.33,0a2.49,2.49,0,0,1-.76-.11,1.3,1.3,0,0,1-.53-.35,1.4,1.4,0,0,1-.31-.58,2.9,2.9,0,0,1-.1-.83V45.65h-.63a.2.2,0,0,1-.17-.14,1.27,1.27,0,0,1-.06-.46,2.33,2.33,0,0,1,0-.29.6.6,0,0,1,0-.18.21.21,0,0,1,.08-.1.17.17,0,0,1,.1,0h.62V43.29a.2.2,0,0,1,0-.11.23.23,0,0,1,.12-.08l.23,0,.35,0,.36,0,.23,0a.24.24,0,0,1,.11.08.15.15,0,0,1,0,.11v1.16H30.5a.2.2,0,0,1,.11,0,.2.2,0,0,1,.07.1.6.6,0,0,1,0,.18,2.33,2.33,0,0,1,0,.29,1.27,1.27,0,0,1-.06.46.2.2,0,0,1-.17.14H29.37V48.1a1.22,1.22,0,0,0,.13.64A.53.53,0,0,0,30,49a.68.68,0,0,0,.21,0l.17,0,.12,0a.18.18,0,0,1,.09,0,.08.08,0,0,1,.07,0,.12.12,0,0,1,.05.08s0,.1,0,.17A1.87,1.87,0,0,1,30.74,49.36Z"/><path class="cls-5" d="M37,47.21a4,4,0,0,1-.17,1.22,2.7,2.7,0,0,1-.53.94,2.42,2.42,0,0,1-.9.62,3.46,3.46,0,0,1-1.26.22,3.41,3.41,0,0,1-1.21-.2,2.11,2.11,0,0,1-.85-.56,2.32,2.32,0,0,1-.51-.91,4.22,4.22,0,0,1-.16-1.23,4,4,0,0,1,.18-1.22,2.7,2.7,0,0,1,.53-.94,2.42,2.42,0,0,1,.9-.62,3.37,3.37,0,0,1,1.25-.21,3.44,3.44,0,0,1,1.22.19,2,2,0,0,1,.85.56,2.26,2.26,0,0,1,.5.9A4.24,4.24,0,0,1,37,47.21Zm-1.51.06a3.84,3.84,0,0,0-.06-.71,1.61,1.61,0,0,0-.21-.57,1.06,1.06,0,0,0-.39-.37,1.41,1.41,0,0,0-1.18,0,1.07,1.07,0,0,0-.41.35,2.06,2.06,0,0,0-.24.56,3.32,3.32,0,0,0-.07.74A3.92,3.92,0,0,0,33,48a1.61,1.61,0,0,0,.21.57.93.93,0,0,0,.39.37,1.23,1.23,0,0,0,.61.13,1.34,1.34,0,0,0,.58-.12,1.12,1.12,0,0,0,.4-.35,1.72,1.72,0,0,0,.23-.55A3.36,3.36,0,0,0,35.45,47.27Z"/><path class="cls-5" d="M45.29,49.89a.16.16,0,0,1-.06.13.52.52,0,0,1-.18.07l-.38,0-.38,0a.39.39,0,0,1-.17-.07.19.19,0,0,1,0-.13v-.42a2.39,2.39,0,0,1-.73.54,2.14,2.14,0,0,1-.92.2,2.58,2.58,0,0,1-.76-.11,1.69,1.69,0,0,1-.61-.32,1.46,1.46,0,0,1-.39-.53,1.75,1.75,0,0,1-.14-.74,1.69,1.69,0,0,1,.18-.8,1.46,1.46,0,0,1,.53-.55,2.53,2.53,0,0,1,.88-.33,6.33,6.33,0,0,1,1.22-.1h.51v-.32a1.45,1.45,0,0,0-.05-.43.72.72,0,0,0-.16-.3.65.65,0,0,0-.31-.19,1.57,1.57,0,0,0-.47-.05,2.18,2.18,0,0,0-.65.08,2.86,2.86,0,0,0-.52.18c-.15.07-.27.12-.37.18a.6.6,0,0,1-.24.08.19.19,0,0,1-.12,0,.36.36,0,0,1-.08-.12.78.78,0,0,1,0-.18,2,2,0,0,1,0-.25,1.12,1.12,0,0,1,0-.29.44.44,0,0,1,.12-.19,1.36,1.36,0,0,1,.28-.18,2.67,2.67,0,0,1,.48-.19,5.26,5.26,0,0,1,.6-.15,4.91,4.91,0,0,1,.67,0,4,4,0,0,1,1.05.12,1.76,1.76,0,0,1,.72.37,1.42,1.42,0,0,1,.41.64,3.16,3.16,0,0,1,.13.93Zm-1.45-2.24h-.56a2.68,2.68,0,0,0-.61.06,1.1,1.1,0,0,0-.41.15.71.71,0,0,0-.23.26.74.74,0,0,0-.07.34.67.67,0,0,0,.21.52.83.83,0,0,0,.57.18,1.1,1.1,0,0,0,.57-.15,2.24,2.24,0,0,0,.53-.47Z"/><path class="cls-5" d="M54.42,51.94a.15.15,0,0,1,0,.11.24.24,0,0,1-.11.08,1,1,0,0,1-.23,0l-.35,0-.36,0a.9.9,0,0,1-.22,0,.23.23,0,0,1-.12-.08.2.2,0,0,1,0-.11V49.46c-.14.13-.28.24-.41.34a3.37,3.37,0,0,1-.4.23,1.51,1.51,0,0,1-.41.13,2.14,2.14,0,0,1-.45.05,1.88,1.88,0,0,1-1.63-.86,2.64,2.64,0,0,1-.37-.91,5,5,0,0,1-.12-1.11,4.81,4.81,0,0,1,.15-1.25,2.7,2.7,0,0,1,.45-.95,1.9,1.9,0,0,1,.72-.6,2.19,2.19,0,0,1,1-.21,1.84,1.84,0,0,1,.41,0,1.63,1.63,0,0,1,.4.15,4.29,4.29,0,0,1,.41.28c.14.12.3.26.47.43v-.57a.17.17,0,0,1,0-.1.21.21,0,0,1,.11-.07.74.74,0,0,1,.19,0h.6a.74.74,0,0,1,.19,0,.15.15,0,0,1,.1.07.17.17,0,0,1,0,.1ZM53,46.38a3.5,3.5,0,0,0-.61-.61,1,1,0,0,0-.61-.21.81.81,0,0,0-.49.15.94.94,0,0,0-.33.38,1.82,1.82,0,0,0-.19.54,3,3,0,0,0-.06.6,4.48,4.48,0,0,0,0,.64,2.17,2.17,0,0,0,.17.56,1.08,1.08,0,0,0,.32.38.81.81,0,0,0,.51.15,1,1,0,0,0,.29-.05.77.77,0,0,0,.29-.14,1.78,1.78,0,0,0,.31-.26c.11-.11.22-.24.35-.39Z"/><path class="cls-5" d="M60.85,49.87a.15.15,0,0,1,0,.1.21.21,0,0,1-.1.08l-.19,0-.3,0-.32,0-.19,0a.27.27,0,0,1-.1-.08.15.15,0,0,1,0-.1v-.6a3.22,3.22,0,0,1-.88.7,1.92,1.92,0,0,1-.93.24,2,2,0,0,1-.9-.18,1.64,1.64,0,0,1-.59-.48,1.84,1.84,0,0,1-.32-.71,4,4,0,0,1-.1-1v-3.2a.17.17,0,0,1,0-.1.18.18,0,0,1,.12-.07,1,1,0,0,1,.23,0H57l.23,0a.24.24,0,0,1,.12.07.17.17,0,0,1,0,.1v3a3.32,3.32,0,0,0,0,.63,1.25,1.25,0,0,0,.16.37.92.92,0,0,0,.28.24.8.8,0,0,0,.39.08.92.92,0,0,0,.56-.2,3.76,3.76,0,0,0,.61-.6V44.65a.17.17,0,0,1,0-.1.18.18,0,0,1,.12-.07.9.9,0,0,1,.22,0h.72a.9.9,0,0,1,.22,0,.24.24,0,0,1,.12.07.17.17,0,0,1,0,.1Z"/><path class="cls-5" d="M67.16,47.11a.58.58,0,0,1-.12.4.46.46,0,0,1-.34.13H63.53a1.9,1.9,0,0,0,.08.6,1,1,0,0,0,.25.46,1,1,0,0,0,.44.29,1.81,1.81,0,0,0,.65.1,4.4,4.4,0,0,0,.68-.05,3.75,3.75,0,0,0,.51-.13l.35-.12a.6.6,0,0,1,.23,0s.07,0,.09,0a.14.14,0,0,1,.06.07.49.49,0,0,1,0,.15,1.63,1.63,0,0,1,0,.24,1.41,1.41,0,0,1,0,.22c0,.06,0,.11,0,.16a.23.23,0,0,1,0,.1.24.24,0,0,1-.06.09.72.72,0,0,1-.21.11,3.11,3.11,0,0,1-.43.14l-.6.12a5.58,5.58,0,0,1-.73.05A3.78,3.78,0,0,1,63.6,50a2.13,2.13,0,0,1-.87-.53,2.24,2.24,0,0,1-.53-.9A4.46,4.46,0,0,1,62,47.32a4.17,4.17,0,0,1,.18-1.26,2.62,2.62,0,0,1,.53-.94,2.31,2.31,0,0,1,.84-.6,3,3,0,0,1,1.11-.2,2.88,2.88,0,0,1,1.12.19,2.06,2.06,0,0,1,.77.54,2.11,2.11,0,0,1,.44.81,3.62,3.62,0,0,1,.14,1Zm-1.43-.42a1.52,1.52,0,0,0-.25-1,1,1,0,0,0-.82-.35,1.07,1.07,0,0,0-.49.1,1,1,0,0,0-.35.29,1.38,1.38,0,0,0-.21.42,1.72,1.72,0,0,0-.08.52Z"/><path class="cls-5" d="M74.43,45.14a3.33,3.33,0,0,1,0,.34.87.87,0,0,1,0,.21.17.17,0,0,1-.06.11.12.12,0,0,1-.09,0l-.11,0L74,45.76l-.16,0-.2,0a.69.69,0,0,0-.24,0,1,1,0,0,0-.26.15,2.44,2.44,0,0,0-.27.28,4.67,4.67,0,0,0-.31.44v3.25a.15.15,0,0,1,0,.1.36.36,0,0,1-.12.08l-.23,0-.36,0-.35,0-.23,0a.36.36,0,0,1-.12-.08.15.15,0,0,1,0-.1V44.65a.17.17,0,0,1,0-.1.15.15,0,0,1,.1-.07l.2,0H72a.74.74,0,0,1,.19,0,.18.18,0,0,1,.1.07.17.17,0,0,1,0,.1v.65a3.5,3.5,0,0,1,.38-.48,1.81,1.81,0,0,1,.35-.3,1,1,0,0,1,.33-.16,1.12,1.12,0,0,1,.32,0h.17l.18,0,.16,0,.1.06a.13.13,0,0,1,0,.06l0,.1s0,.1,0,.18Z"/><path class="cls-5" d="M80,47.11a.58.58,0,0,1-.12.4.45.45,0,0,1-.33.13H76.4a1.9,1.9,0,0,0,.08.6,1,1,0,0,0,.25.46,1,1,0,0,0,.44.29,1.83,1.83,0,0,0,.66.1A4.36,4.36,0,0,0,78.5,49a3.75,3.75,0,0,0,.51-.13l.36-.12a.52.52,0,0,1,.22,0s.07,0,.09,0a.14.14,0,0,1,.06.07.49.49,0,0,1,0,.15,1.63,1.63,0,0,1,0,.24,1.41,1.41,0,0,1,0,.22c0,.06,0,.11,0,.16a.23.23,0,0,1,0,.1.24.24,0,0,1-.06.09.72.72,0,0,1-.21.11A3.11,3.11,0,0,1,79,50l-.6.12a5.58,5.58,0,0,1-.73.05A3.78,3.78,0,0,1,76.47,50a2.13,2.13,0,0,1-.87-.53,2.24,2.24,0,0,1-.53-.9,4.46,4.46,0,0,1-.17-1.28,4.17,4.17,0,0,1,.18-1.26,2.62,2.62,0,0,1,.53-.94,2.31,2.31,0,0,1,.84-.6,3,3,0,0,1,1.11-.2,2.88,2.88,0,0,1,1.12.19,2.06,2.06,0,0,1,.77.54,2.11,2.11,0,0,1,.44.81,3.62,3.62,0,0,1,.14,1Zm-1.43-.42a1.52,1.52,0,0,0-.25-1,1,1,0,0,0-.82-.35,1.07,1.07,0,0,0-.49.1,1,1,0,0,0-.35.29,1.38,1.38,0,0,0-.21.42,2.1,2.1,0,0,0-.08.52Z"/><path class="cls-5" d="M86,44.65a.56.56,0,0,0,0,.07.34.34,0,0,1,0,.09s0,.07,0,.11a1.55,1.55,0,0,0,0,.15l-1.57,4.72a.48.48,0,0,1-.08.16.4.4,0,0,1-.16.1,1.23,1.23,0,0,1-.31,0l-.51,0-.51,0a1.18,1.18,0,0,1-.31-.05A.31.31,0,0,1,82.3,50a.8.8,0,0,1-.08-.16l-1.57-4.72c0-.08,0-.15-.05-.21s0-.11,0-.14v-.07a.2.2,0,0,1,0-.11.22.22,0,0,1,.12-.07,1,1,0,0,1,.22,0h.75l.23,0a.23.23,0,0,1,.12.08.67.67,0,0,1,.06.12l1.19,3.83,0,.15,0-.15,1.17-3.83a.33.33,0,0,1,0-.12.36.36,0,0,1,.12-.08l.22,0h.72a.87.87,0,0,1,.21,0,.23.23,0,0,1,.11.07A.2.2,0,0,1,86,44.65Z"/><path class="cls-5" d="M88.44,42.88a.85.85,0,0,1-.18.62,1,1,0,0,1-.68.17,1,1,0,0,1-.67-.17.81.81,0,0,1-.17-.59.87.87,0,0,1,.18-.62,1,1,0,0,1,.67-.17,1,1,0,0,1,.67.17A.79.79,0,0,1,88.44,42.88Zm-.11,7a.12.12,0,0,1,0,.1.23.23,0,0,1-.12.08,1,1,0,0,1-.22,0l-.36,0-.36,0a1,1,0,0,1-.22,0,.23.23,0,0,1-.12-.08.12.12,0,0,1,0-.1V44.66a.13.13,0,0,1,0-.1.31.31,0,0,1,.12-.08l.22,0H88l.22,0a.31.31,0,0,1,.12.08.13.13,0,0,1,0,.1Z"/><path class="cls-5" d="M93.47,48.4a1.66,1.66,0,0,1-.17.78,1.44,1.44,0,0,1-.47.57,2,2,0,0,1-.72.34,3.16,3.16,0,0,1-.9.12,3.43,3.43,0,0,1-.56-.05,3,3,0,0,1-.47-.11,1.69,1.69,0,0,1-.35-.14.63.63,0,0,1-.21-.13.38.38,0,0,1-.1-.19,1.92,1.92,0,0,1,0-.39,2,2,0,0,1,0-.27.65.65,0,0,1,0-.17.18.18,0,0,1,.06-.08l.09,0a.44.44,0,0,1,.19.07,2.2,2.2,0,0,0,.31.16,3.12,3.12,0,0,0,.44.17,1.91,1.91,0,0,0,.56.07,1.32,1.32,0,0,0,.36,0,.81.81,0,0,0,.27-.11.55.55,0,0,0,.17-.2.57.57,0,0,0,.06-.27.48.48,0,0,0-.11-.3,1.16,1.16,0,0,0-.29-.22,3,3,0,0,0-.4-.17l-.46-.18-.47-.23a1.76,1.76,0,0,1-.4-.32,1.45,1.45,0,0,1-.29-.45,1.7,1.7,0,0,1-.1-.63,1.58,1.58,0,0,1,.14-.69,1.46,1.46,0,0,1,.42-.53,2,2,0,0,1,.67-.35,3.09,3.09,0,0,1,.89-.12,3.87,3.87,0,0,1,.48,0l.41.09a2.33,2.33,0,0,1,.32.11l.19.11.08.09,0,.1s0,.09,0,.15a1.62,1.62,0,0,1,0,.23,1.93,1.93,0,0,1,0,.26c0,.06,0,.12,0,.16a.16.16,0,0,1,0,.08H93a.29.29,0,0,1-.16-.06l-.28-.13-.38-.13a2,2,0,0,0-.51-.06,1.18,1.18,0,0,0-.34,0,.67.67,0,0,0-.24.12.49.49,0,0,0-.14.18.5.5,0,0,0,0,.21.45.45,0,0,0,.11.31,1.46,1.46,0,0,0,.3.22,2.67,2.67,0,0,0,.41.17l.47.18a4,4,0,0,1,.47.23,1.77,1.77,0,0,1,.41.31,1.51,1.51,0,0,1,.29.45A1.64,1.64,0,0,1,93.47,48.4Z"/><path class="cls-5" d="M99.4,47.11a.58.58,0,0,1-.12.4.45.45,0,0,1-.33.13H95.77a2.23,2.23,0,0,0,.08.6,1.14,1.14,0,0,0,.25.46,1.06,1.06,0,0,0,.45.29,1.81,1.81,0,0,0,.65.1,4.5,4.5,0,0,0,.68-.05,4.71,4.71,0,0,0,.51-.13l.35-.12a.56.56,0,0,1,.23,0,.15.15,0,0,1,.09,0,.1.1,0,0,1,0,.07.46.46,0,0,1,0,.15c0,.06,0,.14,0,.24s0,.16,0,.22a.78.78,0,0,1,0,.16.62.62,0,0,1,0,.1l-.07.09a.62.62,0,0,1-.2.11,3.88,3.88,0,0,1-.44.14l-.6.12a5.43,5.43,0,0,1-.72.05A3.69,3.69,0,0,1,95.85,50,2.16,2.16,0,0,1,95,49.5a2.23,2.23,0,0,1-.52-.9,4.12,4.12,0,0,1-.18-1.28,4.17,4.17,0,0,1,.18-1.26,2.77,2.77,0,0,1,.53-.94,2.31,2.31,0,0,1,.84-.6,3,3,0,0,1,1.12-.2,2.92,2.92,0,0,1,1.12.19,2,2,0,0,1,.76.54,2,2,0,0,1,.44.81,3.62,3.62,0,0,1,.14,1ZM98,46.69a1.52,1.52,0,0,0-.25-1,1,1,0,0,0-.82-.35,1.07,1.07,0,0,0-.49.1,1,1,0,0,0-.34.29,1.38,1.38,0,0,0-.21.42,2.09,2.09,0,0,0-.09.52Z"/><path class="cls-5" d="M108.92,49.87a.12.12,0,0,1,0,.1.24.24,0,0,1-.11.08l-.23,0-.35,0-.37,0a1,1,0,0,1-.22,0,.23.23,0,0,1-.12-.08.15.15,0,0,1,0-.1V46.78a2.28,2.28,0,0,0,0-.48,1.08,1.08,0,0,0-.15-.38.7.7,0,0,0-.63-.32.93.93,0,0,0-.54.2,4.21,4.21,0,0,0-.58.6v3.47a.12.12,0,0,1,0,.1.23.23,0,0,1-.12.08,1,1,0,0,1-.22,0l-.35,0-.36,0a1,1,0,0,1-.22,0,.23.23,0,0,1-.12-.08.12.12,0,0,1,0-.1V46.78a2.28,2.28,0,0,0,0-.48,1.08,1.08,0,0,0-.15-.38.67.67,0,0,0-.26-.24.81.81,0,0,0-.37-.08.92.92,0,0,0-.53.2,3.35,3.35,0,0,0-.58.6v3.47a.12.12,0,0,1,0,.1.23.23,0,0,1-.12.08,1,1,0,0,1-.22,0l-.36,0-.36,0a1,1,0,0,1-.22,0,.23.23,0,0,1-.12-.08.12.12,0,0,1,0-.1V44.65a.17.17,0,0,1,0-.1.18.18,0,0,1,.11-.07.74.74,0,0,1,.19,0h.61a.56.56,0,0,1,.19,0,.15.15,0,0,1,.1.07.17.17,0,0,1,0,.1v.6a3.73,3.73,0,0,1,.86-.7,1.94,1.94,0,0,1,.9-.23,2.52,2.52,0,0,1,.58.06,1.6,1.6,0,0,1,.46.2,1.27,1.27,0,0,1,.35.3,2,2,0,0,1,.25.39,3.62,3.62,0,0,1,.46-.43,2.45,2.45,0,0,1,.44-.3,2.65,2.65,0,0,1,.44-.17,2.14,2.14,0,0,1,.45,0,2,2,0,0,1,.87.17,1.53,1.53,0,0,1,.58.48,1.83,1.83,0,0,1,.31.71,3.3,3.3,0,0,1,.1.85Z"/><path class="cls-5" d="M115.64,47.21a4.28,4.28,0,0,1-.17,1.22,2.57,2.57,0,0,1-.54.94A2.3,2.3,0,0,1,114,50a3.46,3.46,0,0,1-1.26.22,3.41,3.41,0,0,1-1.21-.2,2.22,2.22,0,0,1-.86-.56,2.43,2.43,0,0,1-.5-.91,4.22,4.22,0,0,1-.16-1.23,4,4,0,0,1,.18-1.22,2.42,2.42,0,0,1,.53-.94,2.46,2.46,0,0,1,.89-.62,3.95,3.95,0,0,1,2.48,0,2.07,2.07,0,0,1,.85.56,2.39,2.39,0,0,1,.5.9A4.24,4.24,0,0,1,115.64,47.21Zm-1.51.06a3.84,3.84,0,0,0-.06-.71,2.12,2.12,0,0,0-.21-.57,1.06,1.06,0,0,0-.39-.37,1.25,1.25,0,0,0-.61-.14,1.34,1.34,0,0,0-.58.12,1,1,0,0,0-.4.35,1.79,1.79,0,0,0-.24.56,3.29,3.29,0,0,0-.08.74,3.17,3.17,0,0,0,.07.71,1.61,1.61,0,0,0,.21.57,1,1,0,0,0,.38.37,1.48,1.48,0,0,0,1.19,0,1.07,1.07,0,0,0,.41-.35,1.72,1.72,0,0,0,.23-.55A3.36,3.36,0,0,0,114.13,47.27Z"/><path class="cls-5" d="M120.48,48.4a1.78,1.78,0,0,1-.16.78,1.64,1.64,0,0,1-.47.57,2.17,2.17,0,0,1-.72.34,3.28,3.28,0,0,1-.91.12,3.43,3.43,0,0,1-.56-.05,3,3,0,0,1-.47-.11,1.69,1.69,0,0,1-.35-.14.63.63,0,0,1-.21-.13.48.48,0,0,1-.1-.19,1.92,1.92,0,0,1,0-.39,2,2,0,0,1,0-.27c0-.07,0-.13,0-.17a.18.18,0,0,1,.06-.08l.09,0a.4.4,0,0,1,.19.07,2.2,2.2,0,0,0,.31.16,3.12,3.12,0,0,0,.44.17,2,2,0,0,0,.57.07,1.25,1.25,0,0,0,.35,0,.81.81,0,0,0,.27-.11.55.55,0,0,0,.17-.2.57.57,0,0,0,.06-.27.48.48,0,0,0-.11-.3,1.16,1.16,0,0,0-.29-.22,3,3,0,0,0-.4-.17l-.46-.18c-.16-.07-.31-.15-.46-.23a1.81,1.81,0,0,1-.41-.32,1.45,1.45,0,0,1-.29-.45,1.7,1.7,0,0,1-.1-.63,1.74,1.74,0,0,1,.14-.69,1.46,1.46,0,0,1,.42-.53,2,2,0,0,1,.67-.35,3.09,3.09,0,0,1,.89-.12,3.75,3.75,0,0,1,.48,0l.42.09a2.68,2.68,0,0,1,.31.11l.19.11.08.09,0,.1a.61.61,0,0,1,0,.15,1.62,1.62,0,0,1,0,.23,1.93,1.93,0,0,1,0,.26.38.38,0,0,1,0,.16.16.16,0,0,1-.05.08H120a.31.31,0,0,1-.17-.06l-.28-.13-.38-.13a2,2,0,0,0-.5-.06,1.2,1.2,0,0,0-.35,0,.67.67,0,0,0-.24.12.49.49,0,0,0-.14.18.5.5,0,0,0,0,.21.41.41,0,0,0,.12.31,1.16,1.16,0,0,0,.29.22,3.17,3.17,0,0,0,.41.17l.47.18a3.39,3.39,0,0,1,.47.23,1.77,1.77,0,0,1,.41.31,1.51,1.51,0,0,1,.29.45A1.46,1.46,0,0,1,120.48,48.4Z"/><path class="cls-5" d="M125.78,49.87a.15.15,0,0,1,0,.1.23.23,0,0,1-.12.08l-.23,0-.35,0-.36,0-.23,0a.36.36,0,0,1-.12-.08.15.15,0,0,1,0-.1v-7.7a.19.19,0,0,1,0-.1.36.36,0,0,1,.12-.08l.23-.05.36,0,.35,0a1,1,0,0,1,.23.05.23.23,0,0,1,.12.08.21.21,0,0,1,0,.1Z"/><path class="cls-5" d="M131.69,49.89a.16.16,0,0,1-.06.13.52.52,0,0,1-.18.07l-.37,0-.39,0a.34.34,0,0,1-.16-.07.15.15,0,0,1-.05-.13v-.42a2.43,2.43,0,0,1-.74.54,2.11,2.11,0,0,1-.92.2,2.63,2.63,0,0,1-.76-.11,1.73,1.73,0,0,1-.6-.32,1.61,1.61,0,0,1-.4-.53,1.91,1.91,0,0,1-.14-.74,1.69,1.69,0,0,1,.18-.8,1.54,1.54,0,0,1,.53-.55,2.61,2.61,0,0,1,.88-.33,6.44,6.44,0,0,1,1.23-.1h.51v-.32a1.88,1.88,0,0,0-.05-.43.74.74,0,0,0-.17-.3.58.58,0,0,0-.3-.19,1.61,1.61,0,0,0-.47-.05,2.21,2.21,0,0,0-.66.08,3,3,0,0,0-.51.18c-.15.07-.27.12-.37.18a.64.64,0,0,1-.25.08.15.15,0,0,1-.11,0,.36.36,0,0,1-.08-.12.48.48,0,0,1,0-.18,1,1,0,0,1,0-.25,1.12,1.12,0,0,1,0-.29.41.41,0,0,1,.11-.19,1.23,1.23,0,0,1,.29-.18,2.18,2.18,0,0,1,.48-.19,4.38,4.38,0,0,1,.6-.15,4.8,4.8,0,0,1,.67,0,4,4,0,0,1,1.05.12,1.66,1.66,0,0,1,.71.37,1.34,1.34,0,0,1,.41.64,2.86,2.86,0,0,1,.13.93Zm-1.44-2.24h-.56a2.62,2.62,0,0,0-.61.06,1,1,0,0,0-.41.15.57.57,0,0,0-.23.26.74.74,0,0,0-.08.34.67.67,0,0,0,.21.52.86.86,0,0,0,.58.18,1.16,1.16,0,0,0,.57-.15,2.45,2.45,0,0,0,.53-.47Z"/><path class="cls-5" d="M26.86,62.32a.19.19,0,0,1,0,.1.2.2,0,0,1-.1.07.54.54,0,0,1-.2,0l-.3,0-.31,0a.49.49,0,0,1-.19,0,.2.2,0,0,1-.1-.07.19.19,0,0,1,0-.1v-.61a3.22,3.22,0,0,1-.88.7,2,2,0,0,1-.93.24,2,2,0,0,1-.9-.18A1.4,1.4,0,0,1,22.3,62a2,2,0,0,1-.33-.7,4.68,4.68,0,0,1-.09-1v-3.2a.19.19,0,0,1,0-.1.22.22,0,0,1,.12-.07.89.89,0,0,1,.23-.05H23a.9.9,0,0,1,.22.05.22.22,0,0,1,.12.07.14.14,0,0,1,0,.1V60a3.17,3.17,0,0,0,0,.63,1.15,1.15,0,0,0,.16.37.6.6,0,0,0,.28.24.8.8,0,0,0,.39.09,1,1,0,0,0,.56-.21,3.29,3.29,0,0,0,.61-.59V57.09a.19.19,0,0,1,0-.1.23.23,0,0,1,.11-.07l.23-.05h.71a1,1,0,0,1,.23.05.23.23,0,0,1,.11.07.14.14,0,0,1,0,.1Zm-2.19-7.79a.52.52,0,0,1,.1-.11.35.35,0,0,1,.15-.07,1,1,0,0,1,.22,0h.33a2.43,2.43,0,0,1,.42,0,.63.63,0,0,1,.22.07c.05,0,.07.06.06.1a.21.21,0,0,1-.05.12L25,56l-.09.1-.12.06a.84.84,0,0,1-.19,0l-.28,0-.32,0a.3.3,0,0,1-.17-.06.11.11,0,0,1,0-.09.53.53,0,0,1,.06-.14Z"/><path class="cls-5" d="M29.82,62.32a.21.21,0,0,1,0,.1.22.22,0,0,1-.12.07.68.68,0,0,1-.23,0l-.35,0-.36,0a.73.73,0,0,1-.23,0,.35.35,0,0,1-.12-.07.19.19,0,0,1,0-.1v-7.7a.2.2,0,0,1,0-.11.62.62,0,0,1,.12-.08l.23,0h.71l.23,0a.31.31,0,0,1,.12.08.21.21,0,0,1,0,.11Z"/><path class="cls-5" d="M36.38,56.9a.43.43,0,0,1,.34.1.4.4,0,0,1,.1.3v5a.19.19,0,0,1,0,.1.35.35,0,0,1-.12.07.68.68,0,0,1-.23,0l-.35,0-.36,0a.68.68,0,0,1-.23,0,.23.23,0,0,1-.11-.07.14.14,0,0,1,0-.1V58.09H33v2.45a1.19,1.19,0,0,0,.14.64.53.53,0,0,0,.48.22l.21,0,.17-.05.12,0,.09,0,.07,0a.16.16,0,0,1,0,.08s0,.1,0,.17a2.1,2.1,0,0,1,0,.27,2.07,2.07,0,0,1,0,.39.37.37,0,0,1-.09.19.37.37,0,0,1-.15.11l-.25.07a1.34,1.34,0,0,1-.3,0,1.67,1.67,0,0,1-.32,0,2.44,2.44,0,0,1-.76-.11,1.22,1.22,0,0,1-.53-.34,1.41,1.41,0,0,1-.31-.58,3,3,0,0,1-.1-.84V58.09h-.63a.2.2,0,0,1-.17-.14,1.23,1.23,0,0,1-.06-.46,2,2,0,0,1,0-.28.78.78,0,0,1,0-.19.26.26,0,0,1,.07-.1l.11,0h.62V55.73a.23.23,0,0,1,0-.11.22.22,0,0,1,.12-.07.6.6,0,0,1,.22,0l.36,0,.36,0a.6.6,0,0,1,.22,0,.22.22,0,0,1,.12.07.23.23,0,0,1,0,.11V56.9Zm.56-1.57a.82.82,0,0,1-.18.61,1,1,0,0,1-.68.17,1,1,0,0,1-.67-.16,1.13,1.13,0,0,1,0-1.21,1,1,0,0,1,.68-.17,1,1,0,0,1,.66.16A.8.8,0,0,1,36.94,55.33Z"/><path class="cls-5" d="M46.61,62.32a.14.14,0,0,1,0,.1.22.22,0,0,1-.12.07.57.57,0,0,1-.22,0l-.35,0-.37,0a.62.62,0,0,1-.22,0,.22.22,0,0,1-.12-.07.19.19,0,0,1,0-.1v-3.1a2.28,2.28,0,0,0,0-.48,1.14,1.14,0,0,0-.15-.37.66.66,0,0,0-.26-.24.72.72,0,0,0-.37-.09.88.88,0,0,0-.54.21,3.25,3.25,0,0,0-.58.59v3.48a.14.14,0,0,1,0,.1.22.22,0,0,1-.12.07.62.62,0,0,1-.22,0l-.35,0-.36,0a.73.73,0,0,1-.23,0,.35.35,0,0,1-.12-.07.19.19,0,0,1,0-.1v-3.1a2.28,2.28,0,0,0,0-.48,1,1,0,0,0-.15-.37.6.6,0,0,0-.26-.24.72.72,0,0,0-.37-.09.88.88,0,0,0-.53.21,3,3,0,0,0-.58.59v3.48a.14.14,0,0,1,0,.1.22.22,0,0,1-.12.07.62.62,0,0,1-.22,0l-.36,0-.36,0a.62.62,0,0,1-.22,0,.22.22,0,0,1-.12-.07.14.14,0,0,1,0-.1V57.09a.19.19,0,0,1,0-.1.23.23,0,0,1,.11-.07.74.74,0,0,1,.19-.05h.61a.56.56,0,0,1,.19.05.2.2,0,0,1,.1.07.19.19,0,0,1,0,.1v.61a3.55,3.55,0,0,1,.86-.71,1.94,1.94,0,0,1,.9-.23,2,2,0,0,1,.58.07,1.59,1.59,0,0,1,.46.19,1.72,1.72,0,0,1,.35.3,1.58,1.58,0,0,1,.24.39,5.9,5.9,0,0,1,.46-.43,2.28,2.28,0,0,1,.45-.29,1.6,1.6,0,0,1,.44-.17,1.63,1.63,0,0,1,.45-.06,1.9,1.9,0,0,1,.87.18,1.49,1.49,0,0,1,.58.47,1.83,1.83,0,0,1,.31.71,3.36,3.36,0,0,1,.1.85Z"/><path class="cls-5" d="M52.5,62.33a.15.15,0,0,1-.06.13.38.38,0,0,1-.18.07l-.37,0-.39,0a.34.34,0,0,1-.17-.07.17.17,0,0,1,0-.13v-.41a2.39,2.39,0,0,1-.73.54,2.29,2.29,0,0,1-.92.19,2.63,2.63,0,0,1-.76-.11,1.73,1.73,0,0,1-.6-.32,1.41,1.41,0,0,1-.4-.53,1.88,1.88,0,0,1-.14-.74,1.65,1.65,0,0,1,.18-.79,1.49,1.49,0,0,1,.53-.56,2.84,2.84,0,0,1,.88-.32,6.31,6.31,0,0,1,1.23-.11h.51v-.31a1.75,1.75,0,0,0-.05-.43.71.71,0,0,0-.17-.31.69.69,0,0,0-.3-.18,1.63,1.63,0,0,0-.47-.06,2.59,2.59,0,0,0-.66.08,4.86,4.86,0,0,0-.51.18l-.38.18a.51.51,0,0,1-.24.09.16.16,0,0,1-.11,0s-.06-.06-.09-.11,0-.12,0-.19a1.93,1.93,0,0,1,0-.25,1,1,0,0,1,0-.28.37.37,0,0,1,.11-.19,1,1,0,0,1,.29-.19,3.05,3.05,0,0,1,.47-.19,3.64,3.64,0,0,1,.61-.14,3.55,3.55,0,0,1,.67-.06,4.1,4.1,0,0,1,1,.12,1.66,1.66,0,0,1,.71.37,1.34,1.34,0,0,1,.41.64,2.86,2.86,0,0,1,.13.93ZM51.06,60.1h-.57a2.78,2.78,0,0,0-.61,0,1,1,0,0,0-.4.16.64.64,0,0,0-.24.25,1,1,0,0,0-.07.35.66.66,0,0,0,.21.51.85.85,0,0,0,.57.19,1.18,1.18,0,0,0,.58-.16,2.67,2.67,0,0,0,.53-.46Z"/><path class="cls-5" d="M61.63,64.39a.17.17,0,0,1,0,.1.36.36,0,0,1-.12.08.9.9,0,0,1-.22.05l-.36,0-.36,0a.9.9,0,0,1-.22-.05.23.23,0,0,1-.12-.08.17.17,0,0,1,0-.1V61.91c-.14.12-.28.24-.41.33a2.12,2.12,0,0,1-.4.24,2,2,0,0,1-.41.13,2.12,2.12,0,0,1-.44,0,2,2,0,0,1-1-.23,1.9,1.9,0,0,1-.66-.63,2.76,2.76,0,0,1-.37-.91,4.94,4.94,0,0,1-.12-1.1,4.84,4.84,0,0,1,.15-1.26,3,3,0,0,1,.45-1,1.9,1.9,0,0,1,.72-.6,2.19,2.19,0,0,1,1-.21,2.71,2.71,0,0,1,.41,0,1.24,1.24,0,0,1,.4.16,2.3,2.3,0,0,1,.41.28,5.32,5.32,0,0,1,.48.42v-.57a.19.19,0,0,1,0-.1.2.2,0,0,1,.1-.07l.19-.05h.6a.64.64,0,0,1,.19.05.2.2,0,0,1,.1.07.19.19,0,0,1,0,.1Zm-1.46-5.56a2.92,2.92,0,0,0-.61-.61A1,1,0,0,0,59,58a.92.92,0,0,0-.5.14,1,1,0,0,0-.33.38,2.15,2.15,0,0,0-.19.54,3.08,3.08,0,0,0-.06.61,4.6,4.6,0,0,0,0,.64,2.09,2.09,0,0,0,.18.55,1.1,1.1,0,0,0,.31.39,1,1,0,0,0,.8.1,1.05,1.05,0,0,0,.3-.15,1.39,1.39,0,0,0,.3-.26,3.61,3.61,0,0,0,.35-.39Z"/><path class="cls-5" d="M68.07,62.32a.19.19,0,0,1,0,.1.23.23,0,0,1-.11.07.49.49,0,0,1-.19,0l-.3,0-.31,0a.45.45,0,0,1-.19,0,.2.2,0,0,1-.1-.07.19.19,0,0,1,0-.1v-.61a3.37,3.37,0,0,1-.88.7,2,2,0,0,1-.93.24,2.08,2.08,0,0,1-.91-.18A1.46,1.46,0,0,1,63.5,62a1.8,1.8,0,0,1-.32-.7,4.61,4.61,0,0,1-.1-1v-3.2a.14.14,0,0,1,0-.1.23.23,0,0,1,.11-.07l.23-.05h.71a1,1,0,0,1,.23.05.35.35,0,0,1,.12.07.19.19,0,0,1,0,.1V60a2.46,2.46,0,0,0,.06.63.83.83,0,0,0,.16.37.62.62,0,0,0,.27.24.8.8,0,0,0,.39.09,1,1,0,0,0,.57-.21,3,3,0,0,0,.6-.59V57.09a.19.19,0,0,1,0-.1.27.27,0,0,1,.12-.07,1,1,0,0,1,.23-.05h.71a.9.9,0,0,1,.22.05A.22.22,0,0,1,68,57a.21.21,0,0,1,0,.1Z"/><path class="cls-5" d="M74.37,59.55a.56.56,0,0,1-.12.4.42.42,0,0,1-.33.13H70.74a2.37,2.37,0,0,0,.08.61,1.07,1.07,0,0,0,.7.75,2,2,0,0,0,.65.1,3.44,3.44,0,0,0,.68-.06l.5-.12.36-.12a.6.6,0,0,1,.23-.06l.08,0a.11.11,0,0,1,.06.07.33.33,0,0,1,0,.15,1.85,1.85,0,0,1,0,.25v.21c0,.07,0,.12,0,.16a.36.36,0,0,1,0,.11.16.16,0,0,1-.06.08.47.47,0,0,1-.2.11,2.55,2.55,0,0,1-.44.14,4,4,0,0,1-.6.12,5.58,5.58,0,0,1-.73,0,3.78,3.78,0,0,1-1.22-.18,2,2,0,0,1-.87-.53,2.24,2.24,0,0,1-.53-.9,4.41,4.41,0,0,1-.17-1.28,4.06,4.06,0,0,1,.18-1.25,2.66,2.66,0,0,1,.53-.95,2.17,2.17,0,0,1,.84-.59,2.83,2.83,0,0,1,1.12-.21A2.92,2.92,0,0,1,73,57a2,2,0,0,1,.76.54,2.27,2.27,0,0,1,.44.81,3.64,3.64,0,0,1,.14,1Zm-1.43-.42a1.49,1.49,0,0,0-.25-1,1,1,0,0,0-.82-.36,1.07,1.07,0,0,0-.49.11.93.93,0,0,0-.34.28,1,1,0,0,0-.21.42,2.27,2.27,0,0,0-.09.52Z"/><path class="cls-5" d="M83.28,62.32a.14.14,0,0,1,0,.1.22.22,0,0,1-.12.07.62.62,0,0,1-.22,0l-.35,0-.36,0a.63.63,0,0,1-.23,0,.35.35,0,0,1-.12-.07.19.19,0,0,1,0-.1v-3a2.3,2.3,0,0,0-.06-.6,1.15,1.15,0,0,0-.16-.37.62.62,0,0,0-.27-.24.8.8,0,0,0-.39-.09,1,1,0,0,0-.57.21,2.73,2.73,0,0,0-.59.59v3.48a.21.21,0,0,1,0,.1.22.22,0,0,1-.12.07.68.68,0,0,1-.23,0l-.35,0-.36,0a.62.62,0,0,1-.22,0,.22.22,0,0,1-.12-.07.14.14,0,0,1,0-.1V57.09a.19.19,0,0,1,0-.1.2.2,0,0,1,.1-.07l.2-.05h.61a.64.64,0,0,1,.19.05.2.2,0,0,1,.1.07.19.19,0,0,1,0,.1v.61a3.27,3.27,0,0,1,.88-.71,2.06,2.06,0,0,1,.93-.23,2,2,0,0,1,.9.18,1.45,1.45,0,0,1,.59.47,2,2,0,0,1,.33.71,4.45,4.45,0,0,1,.1,1Z"/><path class="cls-5" d="M90,59.65a4.23,4.23,0,0,1-.17,1.22,2.62,2.62,0,0,1-.54,1,2.28,2.28,0,0,1-.89.61,3.26,3.26,0,0,1-1.26.22,3.66,3.66,0,0,1-1.21-.19,2.16,2.16,0,0,1-.86-.57,2.31,2.31,0,0,1-.5-.9,4.63,4.63,0,0,1,0-2.45,2.54,2.54,0,0,1,.54-.95A2.32,2.32,0,0,1,86,57a3.26,3.26,0,0,1,1.26-.22,3.47,3.47,0,0,1,1.22.19,2.18,2.18,0,0,1,.85.56,2.43,2.43,0,0,1,.5.91A4.22,4.22,0,0,1,90,59.65Zm-1.51.06a3.17,3.17,0,0,0-.07-.71,1.82,1.82,0,0,0-.2-.57,1.06,1.06,0,0,0-.39-.37,1.25,1.25,0,0,0-.61-.13,1.34,1.34,0,0,0-.58.12,1,1,0,0,0-.4.35A1.53,1.53,0,0,0,86,59a3.36,3.36,0,0,0-.08.74,3.11,3.11,0,0,0,.07.71,1.61,1.61,0,0,0,.21.57,1,1,0,0,0,.38.37,1.28,1.28,0,0,0,.61.13,1.31,1.31,0,0,0,.58-.12,1,1,0,0,0,.41-.35,1.63,1.63,0,0,0,.23-.55A3.29,3.29,0,0,0,88.49,59.71Z"/><path class="cls-5" d="M94.84,60.84a1.73,1.73,0,0,1-.16.78,1.56,1.56,0,0,1-.48.57,2,2,0,0,1-.71.34,3.28,3.28,0,0,1-.91.12,5.09,5.09,0,0,1-.56,0,2.93,2.93,0,0,1-.47-.12,2.65,2.65,0,0,1-.35-.13.63.63,0,0,1-.21-.14.38.38,0,0,1-.1-.19,1.92,1.92,0,0,1,0-.39,2.1,2.1,0,0,1,0-.27,1.57,1.57,0,0,1,0-.16.23.23,0,0,1,.06-.09l.09,0a.45.45,0,0,1,.19.08l.31.16a3.16,3.16,0,0,0,.44.16,1.94,1.94,0,0,0,.56.08,1.88,1.88,0,0,0,.36,0,1.11,1.11,0,0,0,.27-.12.61.61,0,0,0,.17-.19.6.6,0,0,0,.06-.27.44.44,0,0,0-.11-.3.82.82,0,0,0-.29-.22,3,3,0,0,0-.4-.18l-.46-.18a3.29,3.29,0,0,1-.46-.23,1.42,1.42,0,0,1-.41-.32,1.45,1.45,0,0,1-.29-.45,1.67,1.67,0,0,1-.1-.63,1.58,1.58,0,0,1,.14-.69,1.64,1.64,0,0,1,.42-.53,2.24,2.24,0,0,1,.67-.35,3.09,3.09,0,0,1,.89-.12,2.59,2.59,0,0,1,.48,0l.42.08.31.12.19.1.08.09,0,.11a.61.61,0,0,1,0,.15,1.41,1.41,0,0,1,0,.22,1.86,1.86,0,0,1,0,.26.35.35,0,0,1,0,.16.12.12,0,0,1-.05.08l-.09,0a.4.4,0,0,1-.16-.06,1.87,1.87,0,0,0-.28-.13l-.38-.14a2,2,0,0,0-.5-.06,1.69,1.69,0,0,0-.35,0,.67.67,0,0,0-.24.12.49.49,0,0,0-.14.18.54.54,0,0,0,0,.22.44.44,0,0,0,.11.3,1.17,1.17,0,0,0,.3.22l.41.18.47.17a5.08,5.08,0,0,1,.47.23,1.57,1.57,0,0,1,.41.32,1.35,1.35,0,0,1,.29.44A1.49,1.49,0,0,1,94.84,60.84Z"/><path class="cls-5" d="M101.81,55.1c0,.12,0,.21,0,.28a.39.39,0,0,1,0,.15.12.12,0,0,1-.05.08l-.07,0-.09,0-.12,0-.17,0-.24,0a.76.76,0,0,0-.27,0,.48.48,0,0,0-.19.16.71.71,0,0,0-.11.28,2.5,2.5,0,0,0,0,.42v.49h1l.1,0a.43.43,0,0,1,.07.1.78.78,0,0,1,0,.19,2,2,0,0,1,0,.28,1.23,1.23,0,0,1-.06.46.2.2,0,0,1-.17.14h-1v4.23a.19.19,0,0,1,0,.1.22.22,0,0,1-.12.07.63.63,0,0,1-.23,0l-.35,0-.36,0a.62.62,0,0,1-.22,0,.22.22,0,0,1-.12-.07.19.19,0,0,1,0-.1V58.09h-.66a.2.2,0,0,1-.17-.14,1.57,1.57,0,0,1-.05-.46,2.27,2.27,0,0,1,0-.28c0-.08,0-.14,0-.19a.26.26,0,0,1,.07-.1l.11,0H99v-.44a3.76,3.76,0,0,1,.1-.94,1.64,1.64,0,0,1,.33-.66,1.36,1.36,0,0,1,.58-.41,2.47,2.47,0,0,1,.82-.13,2,2,0,0,1,.43,0,1.48,1.48,0,0,1,.32.08.76.76,0,0,1,.16.08.3.3,0,0,1,.07.11.78.78,0,0,1,0,.19C101.8,54.9,101.81,55,101.81,55.1Z"/><path class="cls-5" d="M106.71,62.33a.15.15,0,0,1-.06.13.38.38,0,0,1-.19.07l-.37,0-.38,0a.3.3,0,0,1-.17-.07.17.17,0,0,1-.05-.13v-.41a2.31,2.31,0,0,1-.74.54,2.24,2.24,0,0,1-.91.19,2.58,2.58,0,0,1-.76-.11,1.69,1.69,0,0,1-.61-.32,1.38,1.38,0,0,1-.39-.53,1.72,1.72,0,0,1-.14-.74,1.65,1.65,0,0,1,.18-.79,1.35,1.35,0,0,1,.53-.56,2.74,2.74,0,0,1,.88-.32,6.27,6.27,0,0,1,1.22-.11h.51v-.31a1.75,1.75,0,0,0-.05-.43.7.7,0,0,0-.16-.31.73.73,0,0,0-.31-.18,1.53,1.53,0,0,0-.47-.06,2.71,2.71,0,0,0-.66.08l-.51.18-.37.18a.51.51,0,0,1-.24.09.18.18,0,0,1-.12,0,.24.24,0,0,1-.08-.11.87.87,0,0,1-.05-.19,1.81,1.81,0,0,1,0-.25,1,1,0,0,1,0-.28.45.45,0,0,1,.11-.19,1.11,1.11,0,0,1,.29-.19,3.69,3.69,0,0,1,.48-.19,3.31,3.31,0,0,1,.6-.14,3.71,3.71,0,0,1,.67-.06,4,4,0,0,1,1,.12,1.76,1.76,0,0,1,.72.37,1.42,1.42,0,0,1,.41.64,3.16,3.16,0,0,1,.13.93Zm-1.45-2.23h-.56a2.73,2.73,0,0,0-.61,0,1.1,1.1,0,0,0-.41.16.68.68,0,0,0-.23.25.78.78,0,0,0-.07.35.69.69,0,0,0,.2.51.86.86,0,0,0,.58.19,1.11,1.11,0,0,0,.57-.16,2.42,2.42,0,0,0,.53-.46Z"/><path class="cls-5" d="M109.65,62.32a.19.19,0,0,1,0,.1.35.35,0,0,1-.12.07.68.68,0,0,1-.23,0l-.36,0-.35,0a.68.68,0,0,1-.23,0,.35.35,0,0,1-.12-.07.19.19,0,0,1,0-.1v-7.7a.2.2,0,0,1,0-.11l.12-.08.23,0h.71l.23,0,.12.08a.2.2,0,0,1,0,.11Z"/><path class="cls-5" d="M114.21,61.8a2.1,2.1,0,0,1,0,.4.37.37,0,0,1-.09.19.36.36,0,0,1-.15.1l-.24.07a1.34,1.34,0,0,1-.3,0,1.72,1.72,0,0,1-.32,0,2.39,2.39,0,0,1-.76-.11,1.25,1.25,0,0,1-.54-.34,1.54,1.54,0,0,1-.31-.58,3.45,3.45,0,0,1-.1-.84V58.09h-.62c-.08,0-.13-.05-.17-.14a1.23,1.23,0,0,1-.06-.46,2.27,2.27,0,0,1,0-.28.74.74,0,0,1,0-.19.26.26,0,0,1,.07-.1l.1,0h.62V55.73a.17.17,0,0,1,0-.11.23.23,0,0,1,.11-.07.71.71,0,0,1,.23,0l.35,0,.36,0a.66.66,0,0,1,.23,0,.35.35,0,0,1,.12.07.23.23,0,0,1,0,.11V56.9H114l.1,0a.26.26,0,0,1,.07.1.74.74,0,0,1,0,.19,2.27,2.27,0,0,1,0,.28,1.23,1.23,0,0,1-.06.46c0,.09-.09.14-.17.14h-1.14v2.45a1.19,1.19,0,0,0,.14.64.53.53,0,0,0,.48.22l.21,0,.16-.05.13,0,.09,0,.07,0a.15.15,0,0,1,0,.08.71.71,0,0,1,0,.17A2.1,2.1,0,0,1,114.21,61.8Z"/><path class="cls-5" d="M119.61,62.33a.15.15,0,0,1-.06.13.38.38,0,0,1-.18.07l-.38,0-.38,0a.3.3,0,0,1-.17-.07.17.17,0,0,1,0-.13v-.41a2.39,2.39,0,0,1-.73.54,2.29,2.29,0,0,1-.92.19,2.58,2.58,0,0,1-.76-.11,1.69,1.69,0,0,1-.61-.32,1.38,1.38,0,0,1-.39-.53,1.72,1.72,0,0,1-.14-.74,1.65,1.65,0,0,1,.18-.79,1.35,1.35,0,0,1,.53-.56,2.74,2.74,0,0,1,.88-.32,6.27,6.27,0,0,1,1.22-.11h.51v-.31a1.37,1.37,0,0,0,0-.43.7.7,0,0,0-.16-.31.73.73,0,0,0-.31-.18,1.53,1.53,0,0,0-.47-.06,2.71,2.71,0,0,0-.66.08l-.51.18-.37.18a.51.51,0,0,1-.24.09.18.18,0,0,1-.12,0,.24.24,0,0,1-.08-.11.87.87,0,0,1,0-.19,1.81,1.81,0,0,1,0-.25,1,1,0,0,1,0-.28.45.45,0,0,1,.11-.19,1.11,1.11,0,0,1,.29-.19A3.69,3.69,0,0,1,116,57a3.31,3.31,0,0,1,.6-.14,3.71,3.71,0,0,1,.67-.06,4,4,0,0,1,1,.12,1.76,1.76,0,0,1,.72.37,1.42,1.42,0,0,1,.41.64,3.16,3.16,0,0,1,.13.93Zm-1.45-2.23h-.56a2.73,2.73,0,0,0-.61,0,1.1,1.1,0,0,0-.41.16.68.68,0,0,0-.23.25.78.78,0,0,0-.07.35.66.66,0,0,0,.21.51.83.83,0,0,0,.57.19,1.11,1.11,0,0,0,.57-.16,2.42,2.42,0,0,0,.53-.46Z"/><path class="cls-5" d="M19.11,74.78a.14.14,0,0,1-.06.12.3.3,0,0,1-.18.07,2,2,0,0,1-.38,0,1.9,1.9,0,0,1-.38,0,.27.27,0,0,1-.17-.07.17.17,0,0,1-.05-.12v-.42a2.39,2.39,0,0,1-.73.54,2.13,2.13,0,0,1-.92.19,2.29,2.29,0,0,1-.76-.11,1.78,1.78,0,0,1-.61-.32,1.38,1.38,0,0,1-.39-.53,1.84,1.84,0,0,1-.14-.74,1.67,1.67,0,0,1,.18-.79,1.49,1.49,0,0,1,.53-.56,2.84,2.84,0,0,1,.88-.32,6.33,6.33,0,0,1,1.22-.1h.51V71.3a1.37,1.37,0,0,0-.05-.43.66.66,0,0,0-.16-.31.75.75,0,0,0-.3-.18,1.65,1.65,0,0,0-.48-.06,2.57,2.57,0,0,0-.65.08l-.52.18-.37.19a.6.6,0,0,1-.24.08.21.21,0,0,1-.11,0,.27.27,0,0,1-.09-.12,1.67,1.67,0,0,1,0-.19,1.77,1.77,0,0,1,0-.24,1.12,1.12,0,0,1,0-.29.34.34,0,0,1,.11-.19,1,1,0,0,1,.28-.19,3.69,3.69,0,0,1,.48-.19,5.27,5.27,0,0,1,.6-.14,3.71,3.71,0,0,1,.67-.06,4,4,0,0,1,1.05.12,1.89,1.89,0,0,1,.72.37,1.39,1.39,0,0,1,.41.64,2.9,2.9,0,0,1,.13.93Zm-1.45-2.24H17.1a3.49,3.49,0,0,0-.61,0,1.4,1.4,0,0,0-.41.16.77.77,0,0,0-.23.25.78.78,0,0,0-.07.35.64.64,0,0,0,.21.51.8.8,0,0,0,.57.19,1,1,0,0,0,.57-.16,2.18,2.18,0,0,0,.53-.46Z"/><path class="cls-5" d="M25.83,72.08a4.81,4.81,0,0,1-.15,1.25,2.69,2.69,0,0,1-.44,1,1.92,1.92,0,0,1-.7.6,2.11,2.11,0,0,1-.95.21,2.46,2.46,0,0,1-.49,0,1.65,1.65,0,0,1-.44-.16,2.13,2.13,0,0,1-.41-.28,4,4,0,0,1-.41-.41v.57a.2.2,0,0,1,0,.11.3.3,0,0,1-.11.07l-.2,0h-.6l-.19,0a.2.2,0,0,1-.1-.07.2.2,0,0,1,0-.11v-7.7a.17.17,0,0,1,0-.1.25.25,0,0,1,.12-.08l.23,0,.36,0,.35,0a1,1,0,0,1,.23,0A.18.18,0,0,1,22,67a.17.17,0,0,1,0,.1V70a2.9,2.9,0,0,1,.4-.34,2.05,2.05,0,0,1,.4-.23,2,2,0,0,1,.41-.14,3.13,3.13,0,0,1,.44,0,2,2,0,0,1,1,.23,2,2,0,0,1,.66.63,2.76,2.76,0,0,1,.37.91A5,5,0,0,1,25.83,72.08Zm-1.52.1a4.48,4.48,0,0,0,0-.64,1.78,1.78,0,0,0-.18-.55,1,1,0,0,0-.31-.38.8.8,0,0,0-.5-.15,1.26,1.26,0,0,0-.28,0,1.11,1.11,0,0,0-.29.14,2.38,2.38,0,0,0-.31.26,4.75,4.75,0,0,0-.34.39V73a3.38,3.38,0,0,0,.6.6,1,1,0,0,0,.59.21.79.79,0,0,0,.49-.15,1.12,1.12,0,0,0,.33-.38,1.66,1.66,0,0,0,.19-.53A3.05,3.05,0,0,0,24.31,72.18Z"/><path class="cls-5" d="M32.29,72.09a4.18,4.18,0,0,1-.17,1.22,2.62,2.62,0,0,1-.54,1,2.25,2.25,0,0,1-.89.61,3.26,3.26,0,0,1-1.26.22,3.38,3.38,0,0,1-1.21-.19,2.25,2.25,0,0,1-.86-.56,2.43,2.43,0,0,1-.5-.91,4.22,4.22,0,0,1-.16-1.23A4,4,0,0,1,26.87,71a2.54,2.54,0,0,1,.54-1,2.44,2.44,0,0,1,.89-.61,3.46,3.46,0,0,1,1.26-.22,3.72,3.72,0,0,1,1.22.19,2.29,2.29,0,0,1,.85.56,2.43,2.43,0,0,1,.5.91A4.22,4.22,0,0,1,32.29,72.09Zm-1.51.06a4,4,0,0,0-.07-.71,1.85,1.85,0,0,0-.2-.56,1.09,1.09,0,0,0-.39-.38,1.29,1.29,0,0,0-.62-.13,1.32,1.32,0,0,0-.57.12,1,1,0,0,0-.4.35,1.51,1.51,0,0,0-.24.56,3.55,3.55,0,0,0,0,1.45,1.85,1.85,0,0,0,.2.56,1,1,0,0,0,.39.37,1.28,1.28,0,0,0,.61.13,1.46,1.46,0,0,0,.58-.11,1,1,0,0,0,.4-.35,1.58,1.58,0,0,0,.24-.56A3.22,3.22,0,0,0,30.78,72.15Z"/><path class="cls-5" d="M36.81,70c0,.14,0,.26,0,.35a.87.87,0,0,1,0,.21.14.14,0,0,1-.06.1.14.14,0,0,1-.09,0,.22.22,0,0,1-.11,0l-.13,0-.16,0a.64.64,0,0,0-.2,0,.69.69,0,0,0-.24,0,1.53,1.53,0,0,0-.26.16,1.83,1.83,0,0,0-.27.28,4.42,4.42,0,0,0-.31.43v3.26a.17.17,0,0,1,0,.1.35.35,0,0,1-.12.07l-.23,0h-.71a1,1,0,0,1-.23,0,.22.22,0,0,1-.12-.07.17.17,0,0,1,0-.1V69.54a.2.2,0,0,1,0-.11.21.21,0,0,1,.1-.07l.2,0,.3,0,.31,0,.19,0,.1.07a.36.36,0,0,1,0,.11v.65a4.65,4.65,0,0,1,.39-.49,3,3,0,0,1,.35-.3,1.15,1.15,0,0,1,.32-.15,1.26,1.26,0,0,1,.33,0h.17l.18,0,.16.05a.3.3,0,0,1,.1,0,.12.12,0,0,1,0,.07.46.46,0,0,1,0,.09s0,.11,0,.19A3,3,0,0,1,36.81,70Z"/><path class="cls-5" d="M42.52,74.76a.2.2,0,0,1,0,.11.2.2,0,0,1-.1.07.69.69,0,0,1-.19,0h-.6l-.19,0a.2.2,0,0,1-.1-.07.2.2,0,0,1,0-.11v-.58a3.43,3.43,0,0,1-.85.67,2,2,0,0,1-1,.24,2.07,2.07,0,0,1-1-.23,1.82,1.82,0,0,1-.67-.62,2.63,2.63,0,0,1-.38-.92,4.94,4.94,0,0,1-.12-1.1A4.76,4.76,0,0,1,37.42,71a2.78,2.78,0,0,1,.44-1,2,2,0,0,1,.71-.61,2.21,2.21,0,0,1,1-.21,1.74,1.74,0,0,1,.8.18,2.79,2.79,0,0,1,.71.53V67.08a.2.2,0,0,1,0-.11.31.31,0,0,1,.12-.08l.22,0h.72l.22,0a.62.62,0,0,1,.12.08.2.2,0,0,1,0,.11Zm-1.46-3.49a2.92,2.92,0,0,0-.61-.61,1,1,0,0,0-.6-.21.92.92,0,0,0-.5.14A1,1,0,0,0,39,71a2.22,2.22,0,0,0-.19.53,3.08,3.08,0,0,0-.06.61,4.48,4.48,0,0,0,0,.64,2.22,2.22,0,0,0,.18.55,1.1,1.1,0,0,0,.31.39.85.85,0,0,0,.51.14.92.92,0,0,0,.29,0,1.35,1.35,0,0,0,.3-.14,2.32,2.32,0,0,0,.3-.26,5.24,5.24,0,0,0,.35-.4Z"/><path class="cls-5" d="M48.45,74.78a.14.14,0,0,1-.06.12.3.3,0,0,1-.18.07,1.89,1.89,0,0,1-.37,0,2,2,0,0,1-.39,0,.27.27,0,0,1-.17-.07.17.17,0,0,1-.05-.12v-.42a2.39,2.39,0,0,1-.73.54,2.13,2.13,0,0,1-.92.19,2.33,2.33,0,0,1-.76-.11,1.73,1.73,0,0,1-.6-.32,1.41,1.41,0,0,1-.4-.53,1.84,1.84,0,0,1-.14-.74,1.67,1.67,0,0,1,.18-.79,1.57,1.57,0,0,1,.53-.56,2.84,2.84,0,0,1,.88-.32,6.37,6.37,0,0,1,1.23-.1H47V71.3a1.75,1.75,0,0,0,0-.43.78.78,0,0,0-.17-.31.69.69,0,0,0-.3-.18,1.63,1.63,0,0,0-.47-.06,2.59,2.59,0,0,0-.66.08,4.86,4.86,0,0,0-.51.18c-.15.07-.28.13-.38.19a.6.6,0,0,1-.24.08.21.21,0,0,1-.11,0,.38.38,0,0,1-.09-.12.78.78,0,0,1,0-.19.9.9,0,0,1,0-.24A1.12,1.12,0,0,1,44,70a.41.41,0,0,1,.11-.19,1,1,0,0,1,.29-.19,3.05,3.05,0,0,1,.47-.19,5,5,0,0,1,.61-.14,3.55,3.55,0,0,1,.67-.06,4,4,0,0,1,1.05.12,1.77,1.77,0,0,1,.71.37,1.39,1.39,0,0,1,.41.64,2.9,2.9,0,0,1,.13.93ZM47,72.54h-.57a3.58,3.58,0,0,0-.61,0,1.24,1.24,0,0,0-.4.16.71.71,0,0,0-.24.25,1,1,0,0,0-.07.35.64.64,0,0,0,.21.51.81.81,0,0,0,.58.19,1.07,1.07,0,0,0,.57-.16,2.38,2.38,0,0,0,.53-.46Z"/><path class="cls-5" d="M53.28,70a3.16,3.16,0,0,1,0,.35q0,.13,0,.21a.29.29,0,0,1-.06.1.17.17,0,0,1-.1,0,.23.23,0,0,1-.11,0l-.13,0-.16,0a.58.58,0,0,0-.19,0,.79.79,0,0,0-.25,0,1.48,1.48,0,0,0-.25.16,1.84,1.84,0,0,0-.28.28,4.47,4.47,0,0,0-.3.43v3.26a.18.18,0,0,1,0,.1.22.22,0,0,1-.12.07A1,1,0,0,1,51,75H50.3a.9.9,0,0,1-.22,0,.22.22,0,0,1-.12-.07.13.13,0,0,1,0-.1V69.54a.2.2,0,0,1,0-.11.26.26,0,0,1,.11-.07l.19,0,.3,0,.31,0a.61.61,0,0,1,.19,0,.29.29,0,0,1,.1.07.2.2,0,0,1,0,.11v.65a3.64,3.64,0,0,1,.39-.49,2.93,2.93,0,0,1,.34-.3,1.21,1.21,0,0,1,.33-.15,1.26,1.26,0,0,1,.33,0h.16l.18,0,.17.05a.46.46,0,0,1,.1,0,.18.18,0,0,1,0,.07.64.64,0,0,1,0,.09s0,.11,0,.19S53.28,69.88,53.28,70Z"/><path class="cls-5" d="M54.86,74.11a1,1,0,0,1-.19.74A1,1,0,0,1,54,75a1,1,0,0,1-.68-.18,1,1,0,0,1-.19-.7,1.1,1.1,0,0,1,.19-.74,1,1,0,0,1,.69-.19.72.72,0,0,1,.86.89Z"/><path class="cls-5" d="M63.62,72.69a2.31,2.31,0,0,1-.23,1,2.23,2.23,0,0,1-.6.76,2.58,2.58,0,0,1-.89.45,3.83,3.83,0,0,1-1.09.15,4.23,4.23,0,0,1-.73-.06,5.47,5.47,0,0,1-.59-.16,2.2,2.2,0,0,1-.43-.19,1,1,0,0,1-.25-.17.46.46,0,0,1-.11-.22,2.26,2.26,0,0,1,0-.42,2.63,2.63,0,0,1,0-.3.88.88,0,0,1,0-.2.23.23,0,0,1,.07-.11.17.17,0,0,1,.1,0,.43.43,0,0,1,.23.1l.39.21a2.75,2.75,0,0,0,.56.21,2.39,2.39,0,0,0,.75.1,1.55,1.55,0,0,0,.5-.07.91.91,0,0,0,.38-.19.89.89,0,0,0,.24-.3,1.06,1.06,0,0,0,.08-.4.75.75,0,0,0-.14-.45,1.45,1.45,0,0,0-.37-.32,3.05,3.05,0,0,0-.51-.27l-.59-.27a4.83,4.83,0,0,1-.59-.32,2.33,2.33,0,0,1-.51-.43,1.85,1.85,0,0,1-.37-.59,2.14,2.14,0,0,1-.14-.81,2.26,2.26,0,0,1,.2-1,2,2,0,0,1,.55-.68,2.24,2.24,0,0,1,.8-.41,3.54,3.54,0,0,1,1-.13,3.27,3.27,0,0,1,.54,0,3.36,3.36,0,0,1,.5.11,2.85,2.85,0,0,1,.42.16,1.7,1.7,0,0,1,.24.14s.06.08.08.1l0,.11a.79.79,0,0,1,0,.17,2,2,0,0,1,0,.26c0,.11,0,.21,0,.28s0,.15,0,.2a.17.17,0,0,1-.06.11.15.15,0,0,1-.1,0,.46.46,0,0,1-.21-.08l-.34-.18a3.79,3.79,0,0,0-.48-.17,1.83,1.83,0,0,0-.59-.08,1.51,1.51,0,0,0-.44.06.92.92,0,0,0-.31.17.7.7,0,0,0-.19.26.87.87,0,0,0-.06.32.74.74,0,0,0,.14.44,1.34,1.34,0,0,0,.37.33,4.2,4.2,0,0,0,.52.26l.6.27c.2.1.4.2.6.32a2.64,2.64,0,0,1,.52.43,2.13,2.13,0,0,1,.37.58A2.16,2.16,0,0,1,63.62,72.69Z"/><path class="cls-5" d="M69.53,72a.56.56,0,0,1-.12.4.42.42,0,0,1-.33.13H65.9a2.31,2.31,0,0,0,.08.61,1.21,1.21,0,0,0,.25.46,1.06,1.06,0,0,0,.44.29,1.87,1.87,0,0,0,.66.1,3.51,3.51,0,0,0,.68-.06,2.83,2.83,0,0,0,.5-.12,3,3,0,0,0,.36-.12.61.61,0,0,1,.22-.06l.09,0a.12.12,0,0,1,.06.08.28.28,0,0,1,0,.15,1.63,1.63,0,0,1,0,.24v.22c0,.06,0,.11,0,.15a.28.28,0,0,1,0,.11.24.24,0,0,1-.06.09.85.85,0,0,1-.21.11,3.28,3.28,0,0,1-.43.13,4.23,4.23,0,0,1-.6.12,5.58,5.58,0,0,1-.73,0A4.08,4.08,0,0,1,66,74.92a2.14,2.14,0,0,1-.87-.54,2.18,2.18,0,0,1-.53-.9,4.39,4.39,0,0,1-.17-1.27A4.08,4.08,0,0,1,64.58,71a2.66,2.66,0,0,1,.53-1,2.17,2.17,0,0,1,.84-.59,2.82,2.82,0,0,1,1.11-.21,2.88,2.88,0,0,1,1.12.2,2,2,0,0,1,.77.53,2.27,2.27,0,0,1,.44.81,3.7,3.7,0,0,1,.14,1Zm-1.43-.42a1.51,1.51,0,0,0-.25-1,1,1,0,0,0-.82-.36,1.07,1.07,0,0,0-.49.11,1,1,0,0,0-.34.28,1.17,1.17,0,0,0-.22.43,2.72,2.72,0,0,0-.08.51Z"/><path class="cls-5" d="M74.92,74.76a.17.17,0,0,1,0,.1.22.22,0,0,1-.12.07,1,1,0,0,1-.23,0h-.71l-.23,0a.35.35,0,0,1-.12-.07.17.17,0,0,1,0-.1v-7.7a.17.17,0,0,1,0-.1.25.25,0,0,1,.12-.08l.23,0,.36,0,.35,0a1,1,0,0,1,.23,0,.18.18,0,0,1,.12.08.17.17,0,0,1,0,.1Z"/><path class="cls-5" d="M77.87,74.76a.13.13,0,0,1,0,.1.22.22,0,0,1-.12.07.9.9,0,0,1-.22,0h-.72a1,1,0,0,1-.22,0,.22.22,0,0,1-.12-.07.18.18,0,0,1,0-.1v-7.7a.18.18,0,0,1,0-.1.18.18,0,0,1,.12-.08,1,1,0,0,1,.22,0l.36,0,.36,0a.9.9,0,0,1,.22,0,.18.18,0,0,1,.12.08.13.13,0,0,1,0,.1Z"/><path class="cls-5" d="M83.79,74.78a.14.14,0,0,1-.06.12.3.3,0,0,1-.19.07,1.79,1.79,0,0,1-.37,0,1.9,1.9,0,0,1-.38,0,.25.25,0,0,1-.17-.07.17.17,0,0,1-.05-.12v-.42a2.43,2.43,0,0,1-.74.54,2.09,2.09,0,0,1-.91.19,2.39,2.39,0,0,1-.77-.11,1.73,1.73,0,0,1-.6-.32,1.38,1.38,0,0,1-.39-.53,1.69,1.69,0,0,1-.14-.74,1.8,1.8,0,0,1,.17-.79,1.52,1.52,0,0,1,.54-.56,2.74,2.74,0,0,1,.88-.32,6.33,6.33,0,0,1,1.22-.1h.51V71.3a1.75,1.75,0,0,0,0-.43.76.76,0,0,0-.16-.31.73.73,0,0,0-.31-.18,1.53,1.53,0,0,0-.47-.06,2.71,2.71,0,0,0-.66.08l-.51.18-.37.19a.6.6,0,0,1-.24.08.25.25,0,0,1-.12,0,.36.36,0,0,1-.08-.12.74.74,0,0,1-.05-.19,1.66,1.66,0,0,1,0-.24,1.12,1.12,0,0,1,0-.29.52.52,0,0,1,.11-.19,1.11,1.11,0,0,1,.29-.19,3.69,3.69,0,0,1,.48-.19,4.43,4.43,0,0,1,.6-.14,3.71,3.71,0,0,1,.67-.06,4,4,0,0,1,1,.12,1.89,1.89,0,0,1,.72.37,1.47,1.47,0,0,1,.41.64,3.21,3.21,0,0,1,.13.93Zm-1.45-2.24h-.56a3.49,3.49,0,0,0-.61,0,1.3,1.3,0,0,0-.41.16.77.77,0,0,0-.23.25.78.78,0,0,0-.07.35.66.66,0,0,0,.2.51.81.81,0,0,0,.58.19,1,1,0,0,0,.57-.16,2.38,2.38,0,0,0,.53-.46Z"/><path class="cls-5" d="M93.56,74.76a.17.17,0,0,1,0,.1.35.35,0,0,1-.12.07,1,1,0,0,1-.22,0h-.72a1,1,0,0,1-.23,0,.35.35,0,0,1-.12-.07.17.17,0,0,1,0-.1v-3.1a1.86,1.86,0,0,0,0-.48,1,1,0,0,0-.15-.37.75.75,0,0,0-.26-.24.7.7,0,0,0-.37-.08.86.86,0,0,0-.53.2,3.74,3.74,0,0,0-.59.6v3.47a.17.17,0,0,1,0,.1.35.35,0,0,1-.12.07,1,1,0,0,1-.23,0h-.71a1,1,0,0,1-.22,0,.22.22,0,0,1-.12-.07.18.18,0,0,1,0-.1v-3.1a1.86,1.86,0,0,0,0-.48,1.24,1.24,0,0,0-.14-.37.85.85,0,0,0-.26-.24.75.75,0,0,0-.37-.08.86.86,0,0,0-.54.2,3.73,3.73,0,0,0-.58.6v3.47a.17.17,0,0,1,0,.1.35.35,0,0,1-.12.07l-.23,0h-.71a1,1,0,0,1-.23,0,.22.22,0,0,1-.12-.07.17.17,0,0,1,0-.1V69.54a.36.36,0,0,1,0-.11.35.35,0,0,1,.11-.07l.2,0,.3,0,.31,0,.19,0,.1.07a.36.36,0,0,1,0,.11v.6a3.34,3.34,0,0,1,.87-.7,1.78,1.78,0,0,1,.9-.24,2.63,2.63,0,0,1,.58.07,2.11,2.11,0,0,1,.46.19,1.45,1.45,0,0,1,.34.31,1.53,1.53,0,0,1,.25.39,6.13,6.13,0,0,1,.46-.44,2.55,2.55,0,0,1,.44-.29,2.2,2.2,0,0,1,.44-.17,1.74,1.74,0,0,1,.45-.06,1.94,1.94,0,0,1,.88.18,1.61,1.61,0,0,1,.58.48,1.94,1.94,0,0,1,.31.7,4,4,0,0,1,.09.86Z"/><path class="cls-5" d="M99.45,74.78a.13.13,0,0,1,0,.12.3.3,0,0,1-.19.07,3.53,3.53,0,0,1-.75,0,.25.25,0,0,1-.17-.07.13.13,0,0,1-.05-.12v-.42a2.43,2.43,0,0,1-.74.54,2.09,2.09,0,0,1-.91.19,2.39,2.39,0,0,1-.77-.11,1.73,1.73,0,0,1-.6-.32,1.38,1.38,0,0,1-.39-.53,2,2,0,0,1,0-1.53A1.52,1.52,0,0,1,95.4,72a2.74,2.74,0,0,1,.88-.32,6.33,6.33,0,0,1,1.22-.1H98V71.3a1.75,1.75,0,0,0-.05-.43.76.76,0,0,0-.16-.31.73.73,0,0,0-.31-.18,1.53,1.53,0,0,0-.47-.06,2.59,2.59,0,0,0-.66.08l-.51.18-.37.19a.6.6,0,0,1-.24.08.21.21,0,0,1-.12,0,.36.36,0,0,1-.08-.12A.74.74,0,0,1,95,70.5a1.66,1.66,0,0,1,0-.24A1.12,1.12,0,0,1,95,70a.52.52,0,0,1,.11-.19,1.11,1.11,0,0,1,.29-.19,3.69,3.69,0,0,1,.48-.19,4.43,4.43,0,0,1,.6-.14,3.71,3.71,0,0,1,.67-.06,4,4,0,0,1,1,.12,1.89,1.89,0,0,1,.72.37,1.57,1.57,0,0,1,.41.64,3.23,3.23,0,0,1,.12.93ZM98,72.54h-.56a3.49,3.49,0,0,0-.61,0,1.21,1.21,0,0,0-.41.16.68.68,0,0,0-.23.25.78.78,0,0,0-.08.35.64.64,0,0,0,.21.51.81.81,0,0,0,.58.19,1,1,0,0,0,.57-.16,2.38,2.38,0,0,0,.53-.46Z"/><path class="cls-5" d="M108,68a2.53,2.53,0,0,1,0,.29.74.74,0,0,1,0,.19.52.52,0,0,1-.07.11.17.17,0,0,1-.1,0h-2.47v2h2.32a.17.17,0,0,1,.1,0,.29.29,0,0,1,.07.1.65.65,0,0,1,0,.18,2.63,2.63,0,0,1,0,.3,2.53,2.53,0,0,1,0,.29.74.74,0,0,1,0,.19.35.35,0,0,1-.07.11.17.17,0,0,1-.1,0h-2.32v2.82a.17.17,0,0,1,0,.12.22.22,0,0,1-.12.07.72.72,0,0,1-.24,0,3.53,3.53,0,0,1-.75,0,.66.66,0,0,1-.23,0,.32.32,0,0,1-.13-.07.25.25,0,0,1,0-.12V67.87a.49.49,0,0,1,.13-.37.48.48,0,0,1,.33-.12h3.56a.13.13,0,0,1,.1,0,.29.29,0,0,1,.07.1.72.72,0,0,1,0,.2A2.63,2.63,0,0,1,108,68Z"/><path class="cls-5" d="M113.56,72.69a2.31,2.31,0,0,1-.23,1,2.11,2.11,0,0,1-.6.76,2.58,2.58,0,0,1-.89.45,3.83,3.83,0,0,1-1.09.15A4.23,4.23,0,0,1,110,75a5.47,5.47,0,0,1-.59-.16,2.5,2.5,0,0,1-.43-.19,1,1,0,0,1-.25-.17.46.46,0,0,1-.11-.22,2.26,2.26,0,0,1,0-.42c0-.12,0-.22,0-.3a.88.88,0,0,1,0-.2.23.23,0,0,1,.07-.11.17.17,0,0,1,.1,0,.43.43,0,0,1,.23.1l.39.21a2.75,2.75,0,0,0,.56.21,2.39,2.39,0,0,0,.75.1,1.55,1.55,0,0,0,.5-.07.91.91,0,0,0,.38-.19.89.89,0,0,0,.24-.3,1.06,1.06,0,0,0,.08-.4.75.75,0,0,0-.14-.45,1.45,1.45,0,0,0-.37-.32,3.05,3.05,0,0,0-.51-.27l-.59-.27a4.83,4.83,0,0,1-.59-.32,2.33,2.33,0,0,1-.51-.43,1.85,1.85,0,0,1-.37-.59,2.14,2.14,0,0,1-.14-.81,2.26,2.26,0,0,1,.2-1,2,2,0,0,1,.55-.68,2.24,2.24,0,0,1,.8-.41,3.54,3.54,0,0,1,1-.13,3.27,3.27,0,0,1,.54,0,3.36,3.36,0,0,1,.5.11,2.85,2.85,0,0,1,.42.16l.24.14.08.1,0,.11a.79.79,0,0,1,0,.17,2,2,0,0,1,0,.26,2.27,2.27,0,0,1,0,.28c0,.08,0,.15,0,.2a.17.17,0,0,1-.06.11.15.15,0,0,1-.1,0,.46.46,0,0,1-.21-.08l-.34-.18a3.79,3.79,0,0,0-.48-.17,1.83,1.83,0,0,0-.59-.08,1.51,1.51,0,0,0-.44.06.92.92,0,0,0-.31.17.83.83,0,0,0-.19.26.87.87,0,0,0-.06.32.74.74,0,0,0,.14.44,1.34,1.34,0,0,0,.37.33,4.2,4.2,0,0,0,.52.26l.6.27c.2.1.4.2.6.32a2.38,2.38,0,0,1,.52.43,2.13,2.13,0,0,1,.37.58A2.16,2.16,0,0,1,113.56,72.69Z"/><path class="cls-5" d="M123.56,74.75a.19.19,0,0,1,0,.1.23.23,0,0,1-.12.08l-.22,0a1.94,1.94,0,0,1-.36,0,1.78,1.78,0,0,1-.35,0l-.23,0a.24.24,0,0,1-.11-.08.14.14,0,0,1,0-.1V68.58h0l-2.19,6.16a.57.57,0,0,1-.08.13.47.47,0,0,1-.14.08,1.29,1.29,0,0,1-.23,0h-.68a1.25,1.25,0,0,1-.24,0,.47.47,0,0,1-.14-.08.26.26,0,0,1-.07-.11l-2.12-6.16h0v6.17a.19.19,0,0,1,0,.1.23.23,0,0,1-.12.08l-.23,0a3.07,3.07,0,0,1-.7,0l-.23,0a.24.24,0,0,1-.11-.08.14.14,0,0,1,0-.1V68a.66.66,0,0,1,.16-.46.61.61,0,0,1,.42-.16h1a2,2,0,0,1,.46.05.94.94,0,0,1,.34.14.87.87,0,0,1,.23.27,1.68,1.68,0,0,1,.16.42l1.64,4.51h0l1.69-4.5a2.14,2.14,0,0,1,.17-.42,1,1,0,0,1,.21-.27.76.76,0,0,1,.28-.15,1.46,1.46,0,0,1,.38-.05h1a1,1,0,0,1,.27,0,.52.52,0,0,1,.19.12.49.49,0,0,1,.11.2.68.68,0,0,1,0,.26Z"/><path class="cls-5" d="M126.86,74.11a1.1,1.1,0,0,1-.19.74A1,1,0,0,1,126,75a.71.71,0,0,1-.86-.88,1,1,0,0,1,.19-.74,1,1,0,0,1,.68-.19,1,1,0,0,1,.68.19A1,1,0,0,1,126.86,74.11Z"/></g></g></svg>