<svg xmlns="http://www.w3.org/2000/svg" viewBox="0 0 40 40"><defs><style>.cls-1{fill:#00877a;}.cls-2{fill:#eef7da;}</style></defs><g id="Capa_2" data-name="Capa 2"><g id="Capa_1-2" data-name="Capa 1"><circle class="cls-1" cx="20" cy="20" r="20" transform="translate(-2.95 36.54) rotate(-80.78)"/><path class="cls-2" d="M17.75,32.47a3.28,3.28,0,0,0,5,0Z"/><path class="cls-2" d="M23.48,31.92H17a.6.6,0,0,1,0-1.2h6.53a.6.6,0,1,1,0,1.2Z"/><path class="cls-2" d="M23.48,30.16H17A.6.6,0,0,1,17,29h6.53a.6.6,0,1,1,0,1.2Z"/><path class="cls-2" d="M28.27,19.6a.61.61,0,0,1-.56-.83,8.23,8.23,0,0,0-.2-6.74A8.15,8.15,0,0,0,17.13,8.3,7.57,7.57,0,0,0,12.19,15a7.9,7.9,0,0,0,.59,3.75.61.61,0,0,1-.32.79.6.6,0,0,1-.79-.32A9.08,9.08,0,0,1,11,14.92,8.78,8.78,0,0,1,16.65,7.2a9.36,9.36,0,0,1,11.92,4.26,9.31,9.31,0,0,1,.25,7.77A.59.59,0,0,1,28.27,19.6Z"/><path class="cls-2" d="M13.69,15.89h-.07a.6.6,0,0,1-.52-.67,7.63,7.63,0,0,1,1-3,6.75,6.75,0,0,1,4.88-3.35.6.6,0,1,1,.22,1.18,5.54,5.54,0,0,0-4.06,2.76,6.61,6.61,0,0,0-.81,2.53A.6.6,0,0,1,13.69,15.89Z"/><path class="cls-2" d="M26.13,21.38a5.54,5.54,0,0,1-.68.69l-.73.66-.49.45A4,4,0,0,0,22.76,26c0,.29-.06.59-.09.88,0,.12,0,.23-.05.35h-4.8c-.07-.65-.16-1.28-.23-1.82a3.1,3.1,0,0,0-.95-1.78l-1.18-1.1L14.93,22q-.31-.3-.6-.63h11.8m2.11-1.2Zm0,0h-16a8,8,0,0,0,1.92,2.71c.56.52,1.14,1,1.69,1.57a1.92,1.92,0,0,1,.6,1.08c.1.73.19,1.45.27,2.18a.64.64,0,0,0,.73.68h5.67a.63.63,0,0,0,.71-.66c0-.56.14-1.12.18-1.69a2.8,2.8,0,0,1,1.06-2L26.24,23a7.59,7.59,0,0,0,2-2.8Z"/></g></g></svg>