<svg xmlns="http://www.w3.org/2000/svg" viewBox="0 0 40 40"><defs><style>.cls-1{fill:#00877a;}.cls-2{fill:#eef7da;}</style></defs><g id="Capa_2" data-name="Capa 2"><g id="Capa_1-2" data-name="Capa 1"><circle class="cls-1" cx="20" cy="20" r="20" transform="translate(-2.95 36.54) rotate(-80.78)"/><path class="cls-2" d="M22.31,20a.6.6,0,0,0,.34-.11.58.58,0,0,0,.23-.56l-.37-2.14,1.55-1.51a.57.57,0,0,0-.31-1l-2.15-.31-1-1.95a.6.6,0,0,0-1,0l-1,1.95-2.15.31a.57.57,0,0,0-.31,1l1.55,1.51-.37,2.14a.58.58,0,0,0,.23.56.55.55,0,0,0,.6,0l1.92-1,1.93,1A.48.48,0,0,0,22.31,20Zm-1.92-2.23a.6.6,0,0,0-.27-.06.58.58,0,0,0-.26.06l-1.16.61.22-1.29a.59.59,0,0,0-.16-.51l-.94-.91,1.29-.19a.57.57,0,0,0,.43-.32L20.12,14l.59,1.17a.57.57,0,0,0,.43.32l1.3.19-.94.91a.57.57,0,0,0-.17.51l.22,1.29Z"/><path class="cls-2" d="M31.58,29.06l-3-7.84a.43.43,0,0,0,0-.07c0-.3.07-.61.09-.9a4.06,4.06,0,0,1,.14-1.06,4.06,4.06,0,0,1,.49-.9A3.57,3.57,0,0,0,30,16.38a3.64,3.64,0,0,0-.76-1.91,4,4,0,0,1-.49-.89,4.19,4.19,0,0,1-.14-1.06,3.6,3.6,0,0,0-.5-1.95A3.58,3.58,0,0,0,26.41,9.5,5,5,0,0,1,25.46,9a4.31,4.31,0,0,1-.71-.75A3.55,3.55,0,0,0,23.18,7a3.5,3.5,0,0,0-2,.13,4.6,4.6,0,0,1-1.08.2,4.62,4.62,0,0,1-1.07-.2,3.59,3.59,0,0,0-2-.13A3.55,3.55,0,0,0,15.5,8.29a4.31,4.31,0,0,1-.71.75,4.68,4.68,0,0,1-.95.46,3.58,3.58,0,0,0-1.71,1.07,3.6,3.6,0,0,0-.5,1.95,4.19,4.19,0,0,1-.14,1.06,4,4,0,0,1-.49.89,3.64,3.64,0,0,0-.76,1.91A3.57,3.57,0,0,0,11,18.29a4.06,4.06,0,0,1,.49.9,4,4,0,0,1,.14,1l0,.39s0,0,0,0L8.42,29.06a1,1,0,0,0,.16,1,1,1,0,0,0,.95.36l3.12-.54,2,2.43a1,1,0,0,0,.77.36h.18a1,1,0,0,0,.77-.65l2.27-6.21v-.06l.36-.09a4.62,4.62,0,0,1,1.07-.2,4.6,4.6,0,0,1,1.08.2l.07,0L23.58,32a1,1,0,0,0,.77.65l.18,0a1,1,0,0,0,.77-.36l2.05-2.44,3.12.54a1,1,0,0,0,1.11-1.36ZM15.42,31.4l-1.94-2.32a1,1,0,0,0-1-.34l-3,.51,2.67-6.94a3.84,3.84,0,0,0,1.6,1,4.21,4.21,0,0,1,.95.45,4.4,4.4,0,0,1,.71.76,3.53,3.53,0,0,0,1.57,1.3,1.69,1.69,0,0,0,.38.07Zm4.7-7.09a5.18,5.18,0,0,0-1.36.24,2.62,2.62,0,0,1-1.34.14,2.67,2.67,0,0,1-1-.93,4.92,4.92,0,0,0-.92-1,5.12,5.12,0,0,0-1.22-.6,2.6,2.6,0,0,1-1.19-.68,2.62,2.62,0,0,1-.28-1.34,5.19,5.19,0,0,0-.2-1.35A4.8,4.8,0,0,0,12,17.67a2.69,2.69,0,0,1-.57-1.29A2.7,2.7,0,0,1,12,15.1a4.87,4.87,0,0,0,.62-1.17,5.19,5.19,0,0,0,.2-1.35,2.55,2.55,0,0,1,.28-1.33,2.69,2.69,0,0,1,1.19-.69A5.09,5.09,0,0,0,15.47,10a5.22,5.22,0,0,0,.92-1,2.7,2.7,0,0,1,1-.94,2.76,2.76,0,0,1,1.34.15,5.17,5.17,0,0,0,1.36.23,5.17,5.17,0,0,0,1.37-.23,2.75,2.75,0,0,1,1.34-.15,2.7,2.7,0,0,1,1,.94,5,5,0,0,0,.93,1,4.85,4.85,0,0,0,1.21.59,2.69,2.69,0,0,1,1.19.69,2.57,2.57,0,0,1,.28,1.34,5.64,5.64,0,0,0,.2,1.34,4.87,4.87,0,0,0,.62,1.17,2.7,2.7,0,0,1,.57,1.28,2.69,2.69,0,0,1-.57,1.29,4.8,4.8,0,0,0-.62,1.16,5.65,5.65,0,0,0-.2,1.35,2.62,2.62,0,0,1-.28,1.34A2.6,2.6,0,0,1,26,22.2a5.12,5.12,0,0,0-1.22.6,4.92,4.92,0,0,0-.92,1,2.67,2.67,0,0,1-1,.93,2.62,2.62,0,0,1-1.34-.14A5.18,5.18,0,0,0,20.12,24.31Zm7.34,4.42a1,1,0,0,0-.94.35L24.58,31.4l-2-5.52a2.17,2.17,0,0,0,.62-.1,3.53,3.53,0,0,0,1.57-1.3,4.4,4.4,0,0,1,.71-.76,4.43,4.43,0,0,1,.95-.45,4.57,4.57,0,0,0,1.42-.77l2.6,6.75Z"/></g></g></svg>