<svg id="Capa_1" data-name="Capa 1" xmlns="http://www.w3.org/2000/svg" viewBox="0 0 136.2 52.91"><defs><style>.cls-1{fill:#00877a;}.cls-2{fill:#00635a;}.cls-3{fill:#fff;}</style></defs><rect class="cls-1" x="0.07" y="0.01" width="136.2" height="52.91" rx="26.45"/><circle class="cls-2" cx="110.02" cy="26.46" r="24.22" transform="translate(13.52 85.55) rotate(-45)"/><path class="cls-3" d="M100.92,35.35a1,1,0,0,0,.71.3,1,1,0,0,0,.71-.3l8.19-8.18a1,1,0,0,0,0-1.42l-8.19-8.18A1,1,0,1,0,100.92,19l7.48,7.48-7.48,7.47A1,1,0,0,0,100.92,35.35Z"/><path class="cls-3" d="M109.51,17.57a1,1,0,0,0,0,1.41L117,26.46l-7.48,7.47a1,1,0,0,0,.71,1.72,1,1,0,0,0,.71-.3l8.19-8.18a1,1,0,0,0,0-1.42l-8.19-8.18A1,1,0,0,0,109.51,17.57Z"/><path class="cls-3" d="M23,20.9A1.11,1.11,0,0,1,22,22.09c-.66,0-1.17-.48-2.12-.48-.69,0-1.31.36-1.31,1,0,1.65,5.32.59,5.32,4.71a3.79,3.79,0,0,1-4.08,3.7c-1.23,0-3.87-.29-3.87-1.79A1.06,1.06,0,0,1,17,28.13c.75,0,1.64.62,2.67.62s1.63-.59,1.63-1.37c0-1.88-5.33-.75-5.33-4.45a3.7,3.7,0,0,1,4-3.62C20.79,19.31,23,19.65,23,20.9Z"/><path class="cls-3" d="M27.22,20.09a1.32,1.32,0,0,1-1.29,1.33,1.35,1.35,0,0,1-1.29-1.33,1.29,1.29,0,0,1,2.58,0Zm-2.44,3.46a1.15,1.15,0,1,1,2.29,0v6.12a1.15,1.15,0,1,1-2.29,0Z"/><path class="cls-3" d="M36.19,30.19c0,2.75-1.8,4.14-4.41,4.14-.94,0-3.62-.46-3.62-1.72a1.13,1.13,0,0,1,.92-1c.74,0,1.55.72,2.87.72A1.77,1.77,0,0,0,33.9,30.5V30h0a2.64,2.64,0,0,1-2.32,1.09c-2.4,0-3.54-2.12-3.54-4.4s1.47-4.47,3.78-4.47a2.51,2.51,0,0,1,2.11,1.05,1.1,1.1,0,0,1,1.15-.95,1.15,1.15,0,0,1,1.14,1.27Zm-4.09-5.9c-1.2,0-1.79,1.24-1.79,2.31,0,1.23.59,2.34,1.79,2.34s1.8-1.15,1.8-2.26S33.36,24.29,32.1,24.29Z"/><path class="cls-3" d="M37.5,23.55a1.16,1.16,0,1,1,2.3,0v4.1a1.48,1.48,0,1,0,3,0v-4.1a1.16,1.16,0,1,1,2.3,0V27.7c0,2-1.36,3.35-3.78,3.35S37.5,29.74,37.5,27.7Z"/><path class="cls-3" d="M48.78,20.09a1.32,1.32,0,0,1-1.3,1.33,1.36,1.36,0,0,1-1.29-1.33,1.3,1.3,0,0,1,2.59,0Zm-2.44,3.46a1.15,1.15,0,1,1,2.29,0v6.12a1.15,1.15,0,1,1-2.29,0Z"/><path class="cls-3" d="M51.76,27.38A2,2,0,0,0,53.93,29c1.17,0,2-.93,2.59-.93a1,1,0,0,1,.95,1c0,1-2,1.95-3.75,1.95a4.19,4.19,0,0,1-4.31-4.42,4.13,4.13,0,1,1,8.25-.27.89.89,0,0,1-1,1Zm3.6-1.53a1.82,1.82,0,0,0-1.83-1.76,1.86,1.86,0,0,0-1.82,1.76Z"/><path class="cls-3" d="M58.47,23.55a1.16,1.16,0,0,1,1.15-1.27,1,1,0,0,1,1.05.84,2.49,2.49,0,0,1,2.22-.94A2.94,2.94,0,0,1,66,25.27v4.4a1.16,1.16,0,1,1-2.3,0v-4a1.48,1.48,0,1,0-3,0v4a1.16,1.16,0,1,1-2.3,0Z"/><path class="cls-3" d="M67.89,24.38h-.51a.92.92,0,0,1-1-1,1,1,0,0,1,1-1h.51V21a1.16,1.16,0,1,1,2.3,0v1.37h.65a1,1,0,1,1,0,2h-.65v5.29a1.16,1.16,0,1,1-2.3,0Z"/><path class="cls-3" d="M73.9,27.38A2,2,0,0,0,76.07,29c1.18,0,2-.93,2.6-.93a1,1,0,0,1,.94,1c0,1-2,1.95-3.74,1.95a4.19,4.19,0,0,1-4.31-4.42,4.13,4.13,0,1,1,8.24-.27c0,.68-.3,1-1,1Zm3.61-1.53a1.83,1.83,0,0,0-1.84-1.76,1.85,1.85,0,0,0-1.81,1.76Z"/></svg>