<svg xmlns="http://www.w3.org/2000/svg" viewBox="0 0 40 40"><defs><style>.cls-1{fill:#00877a;}.cls-2{fill:#eef7da;}</style></defs><g id="Capa_2" data-name="Capa 2"><g id="Capa_1-2" data-name="Capa 1"><circle class="cls-1" cx="20" cy="20" r="20" transform="translate(-2.95 36.54) rotate(-80.78)"/><path class="cls-2" d="M23.15,30a.77.77,0,0,1-.58-.25L14.84,24V16.11l7.61-5.68a.88.88,0,0,1,.65-.3.81.81,0,0,1,.84.78V29.22A.76.76,0,0,1,23.15,30ZM16.28,16.83v6.45l6.22,4.57V12.2Z"/><path class="cls-2" d="M10.76,24A1.67,1.67,0,0,1,9.1,22.29V17.8a1.66,1.66,0,0,1,1.66-1.66h2.08V24Zm-.22-1.44h.86V17.58h-.86Z"/><path class="cls-2" d="M29.78,20l1.16-1.17a1,1,0,0,0,0-1.45h0a1,1,0,0,0-1.45,0l-1.17,1.17-1.17-1.17a1,1,0,0,0-1.45,0,1,1,0,0,0,0,1.45L26.87,20,25.7,21.17a1,1,0,0,0,0,1.45,1,1,0,0,0,1.45,0l1.17-1.17,1.17,1.17a1,1,0,0,0,1.45,0,1,1,0,0,0,0-1.45Zm.81-2.27Z"/></g></g></svg>