<svg xmlns="http://www.w3.org/2000/svg" viewBox="0 0 75 75"><defs><style>.cls-1{fill:#00877a;}.cls-2{fill:#f9f3dc;}</style></defs><g id="Capa_2" data-name="Capa 2"><g id="Capa_1-2" data-name="Capa 1"><circle class="cls-1" cx="37.5" cy="37.5" r="37.5"/><path class="cls-2" d="M28.65,58.13a3.88,3.88,0,0,1-3.88-3.88V52.91H20.32a2.23,2.23,0,0,1-2.26-2.26V37.81a2.23,2.23,0,0,1,2.26-2.26h4.45V20.85A3.88,3.88,0,0,1,28.65,17H44a.89.89,0,0,1,.57.24L55.13,27.82a1.19,1.19,0,0,1,.28.55V54.25a3.88,3.88,0,0,1-3.88,3.88Zm-2.21-4a2.21,2.21,0,0,0,2.21,2.21H51.53a2.25,2.25,0,0,0,2.21-2.18V29.25H47a3.89,3.89,0,0,1-3.89-3.88V18.6H28.65a2.21,2.21,0,0,0-2.21,2.21V35.5h16a2.24,2.24,0,0,1,2.27,2.27v12.8a2.24,2.24,0,0,1-2.27,2.26h-16Zm-6.72-17,0,14H43.08v-14Zm25-11.81a2.21,2.21,0,0,0,2.21,2.2h5.58l-7.79-7.78Z"/><path class="cls-2" d="M27.78,43.3a1.89,1.89,0,0,0-2.05-1.86H23.27V46.9h1.17V45.12h1.29A1.84,1.84,0,0,0,27.78,43.3Zm-2.2.76H24.4V42.5h1.18c.57,0,1,.31,1,.76A.87.87,0,0,1,25.58,44.06Z"/><path class="cls-2" d="M34,44.17c0-1.59-1.28-2.73-3.14-2.73h-2V46.9h2A2.79,2.79,0,0,0,34,44.17Zm-3.9-1.67h.95a1.69,1.69,0,0,1,1.78,1.56,1.65,1.65,0,0,1-1.78,1.78h-.95Z"/><path class="cls-2" d="M36.52,44.78h2.73V43.72H36.52V42.5h3V41.44H35.35v5.5h1.17Z"/></g></g></svg>