<svg width="227" height="496" viewBox="0 0 227 496" fill="none" xmlns="http://www.w3.org/2000/svg">
<path d="M0.500633 208.047C0.526509 208.875 1.21873 209.525 2.04675 209.499C2.87478 209.473 3.52504 208.781 3.49917 207.953L0.500633 208.047ZM110.474 4.27596C110.627 3.46167 110.09 2.67801 109.276 2.5256L96.0063 0.0419916C95.192 -0.110415 94.4083 0.426145 94.2559 1.24043C94.1035 2.05472 94.6401 2.83838 95.4544 2.99079L107.25 5.19844L105.042 16.9936C104.889 17.8079 105.426 18.5916 106.24 18.744C107.055 18.8964 107.838 18.3598 107.991 17.5455L110.474 4.27596ZM3.49917 207.953C2.17605 165.613 21.602 65.6579 109.847 5.23769L108.152 2.76231C18.7978 63.9421 -0.842913 165.053 0.500633 208.047L3.49917 207.953Z" fill="url(#paint0_linear_13_727)"/>
<path d="M196.93 495.006C197.734 495.207 198.548 494.718 198.749 493.914C198.95 493.111 198.461 492.296 197.657 492.096L196.93 495.006ZM197.657 492.096C156.56 481.828 65.6832 435.894 31.6025 334.522L28.7589 335.478C63.2681 438.125 155.198 484.581 196.93 495.006L197.657 492.096Z" fill="url(#paint1_linear_13_727)"/>
<defs>
<linearGradient id="paint0_linear_13_727" x1="55.4687" y1="4" x2="55.4687" y2="208" gradientUnits="userSpaceOnUse">
<stop stop-color="#FFA300"/>
<stop offset="1" stop-color="#FF0057"/>
</linearGradient>
<linearGradient id="paint1_linear_13_727" x1="15.5903" y1="386.505" x2="211.867" y2="442.106" gradientUnits="userSpaceOnUse">
<stop stop-color="#FFA300"/>
<stop offset="1" stop-color="#FF0057"/>
</linearGradient>
</defs>
</svg>
