<?xml version="1.0" encoding="UTF-8"?><svg id="Capa_2" xmlns="http://www.w3.org/2000/svg" xmlns:xlink="http://www.w3.org/1999/xlink" viewBox="0 0 242.38 123.43"><defs><style>.cls-1{mask:url(#mask-123);}.cls-2{fill:#d6daff;}.cls-2,.cls-3,.cls-4,.cls-5,.cls-6,.cls-7,.cls-8,.cls-9,.cls-10,.cls-11,.cls-12,.cls-13,.cls-14,.cls-15,.cls-16,.cls-17,.cls-18,.cls-19,.cls-20,.cls-21,.cls-22,.cls-23,.cls-24,.cls-25,.cls-26,.cls-27,.cls-28,.cls-29,.cls-30,.cls-31,.cls-32,.cls-33,.cls-34,.cls-35,.cls-36,.cls-37,.cls-38,.cls-39,.cls-40,.cls-41,.cls-42,.cls-43,.cls-44,.cls-45,.cls-46,.cls-47,.cls-48,.cls-49,.cls-50,.cls-51,.cls-52,.cls-53,.cls-54,.cls-55,.cls-56,.cls-57,.cls-58,.cls-59,.cls-60,.cls-61,.cls-62,.cls-63,.cls-64,.cls-65,.cls-66,.cls-67,.cls-68{stroke-width:0px;}.cls-3{fill:#ffeccc;}.cls-4{fill:#b966ff;}.cls-5{fill:#ffa487;}.cls-6{fill:#e7ccff;}.cls-7{fill:#ff8c32;}.cls-8{fill:#ffd1cc;}.cls-69{mask:url(#mask-58);}.cls-70{mask:url(#mask-74);}.cls-71{mask:url(#mask-53);}.cls-72{mask:url(#mask-67);}.cls-73{mask:url(#mask-122);}.cls-74{mask:url(#mask-56);}.cls-75{mask:url(#mask-23);}.cls-76{mask:url(#mask-27);}.cls-77{mask:url(#mask-10);}.cls-78{mask:url(#mask-116);}.cls-9{fill:#ffdf00;}.cls-79{mask:url(#mask-106);}.cls-10{fill:#a8f2a1;}.cls-80{mask:url(#mask-26);}.cls-11{fill:#ffa299;}.cls-12{fill:#3045ff;}.cls-81{mask:url(#mask-107);}.cls-82{mask:url(#mask-46);}.cls-83{mask:url(#mask-77);}.cls-84{mask:url(#mask-17);}.cls-13{fill:#ff9a4a;}.cls-14{fill:#97ebff;}.cls-85{mask:url(#mask-43);}.cls-86{mask:url(#mask-41);}.cls-87{mask:url(#mask-79);}.cls-15{fill:#fff199;}.cls-16{fill:#ff5e27;}.cls-88{mask:url(#mask-49);}.cls-89{mask:url(#mask-47);}.cls-90{mask:url(#mask-82);}.cls-17{fill:#7ced72;}.cls-18{fill:#ffccfb;}.cls-91{mask:url(#mask-92);}.cls-19{fill:#ff00e9;}.cls-92{mask:url(#mask-2);}.cls-93{mask:url(#mask-45);}.cls-94{mask:url(#mask-34);}.cls-95{mask:url(#mask-33);}.cls-20{fill:#ffc866;}.cls-21{fill:#ff703f;}.cls-22{fill:#ffb633;}.cls-96{mask:url(#mask-104);}.cls-97{mask:url(#mask-75);}.cls-98{mask:url(#mask-87);}.cls-23{fill:#ff8257;}.cls-99{mask:url(#mask-78);}.cls-100{mask:url(#mask-68);}.cls-101{mask:url(#mask-13);}.cls-102{mask:url(#mask-59);}.cls-103{mask:url(#mask-129);}.cls-24{fill:#51e643;}.cls-104{mask:url(#mask-66);}.cls-105{mask:url(#mask-80);}.cls-106{mask:url(#mask-3);}.cls-107{mask:url(#mask-64);}.cls-108{mask:url(#mask-63);}.cls-109{mask:url(#mask-73);}.cls-110{mask:url(#mask-31);}.cls-25{fill:#a4f866;}.cls-26{fill:#fff9cc;}.cls-27{fill:none;}.cls-28{fill:#fff7cc;}.cls-111{mask:url(#mask-54);}.cls-112{mask:url(#mask-30);}.cls-113{mask:url(#mask-32);}.cls-114{mask:url(#mask-83);}.cls-115{mask:url(#mask-9);}.cls-116{mask:url(#mask-110);}.cls-29{fill:#52ddff;}.cls-117{mask:url(#mask-48);}.cls-118{mask:url(#mask-39);}.cls-119{mask:url(#mask-12);}.cls-30{fill:#ffa863;}.cls-120{mask:url(#mask-71);}.cls-31{fill:#ffc395;}.cls-121{mask:url(#mask-5);}.cls-122{mask:url(#mask-94);}.cls-123{mask:url(#mask-61);}.cls-124{mask:url(#mask-112);}.cls-125{mask:url(#mask-86);}.cls-126{mask:url(#mask-125);}.cls-127{mask:url(#mask-72);}.cls-128{mask:url(#mask-88);}.cls-129{mask:url(#mask-36);}.cls-32{fill:#596aff;}.cls-130{mask:url(#mask-76);}.cls-131{mask:url(#mask-35);}.cls-132{mask:url(#mask-95);}.cls-133{mask:url(#mask-40);}.cls-134{mask:url(#mask-109);}.cls-135{mask:url(#mask-20);}.cls-33{fill:#ffa300;}.cls-34{fill:#ff33ed;}.cls-136{mask:url(#mask-128);}.cls-137{mask:url(#mask-70);}.cls-138{mask:url(#mask-38);}.cls-35{fill:#8a00ff;}.cls-139{mask:url(#mask-96);}.cls-140{mask:url(#mask-105);}.cls-141{mask:url(#mask-44);}.cls-36{fill:#ff99bc;}.cls-37{fill:#ffe966;}.cls-142{mask:url(#mask-25);}.cls-143{mask:url(#mask-8);}.cls-38{fill:#ff4533;}.cls-144{mask:url(#mask-97);}.cls-39{fill:#ffec66;}.cls-145{mask:url(#mask-4);}.cls-146{mask:url(#mask-24);}.cls-147{mask:url(#mask-55);}.cls-40{fill:#ff99f7;}.cls-41{fill:#86f533;}.cls-148{clip-path:url(#clippath);}.cls-149{mask:url(#mask-19);}.cls-150{mask:url(#mask-60);}.cls-151{mask:url(#mask-111);}.cls-152{mask:url(#mask-15);}.cls-42{fill:#ffe333;}.cls-153{mask:url(#mask-89);}.cls-154{mask:url(#mask-114);}.cls-43{fill:#ff66f2;}.cls-155{mask:url(#mask-6);}.cls-44{fill:#ff0057;}.cls-45{fill:#c3fa99;}.cls-156{mask:url(#mask-42);}.cls-157{mask:url(#mask-84);}.cls-46{fill:#75e4ff;}.cls-47{fill:#dcf8ff;}.cls-48{fill:#838fff;}.cls-158{mask:url(#mask-52);}.cls-159{mask:url(#mask-16);}.cls-160{mask:url(#mask-121);}.cls-161{mask:url(#mask-117);}.cls-162{mask:url(#mask-115);}.cls-163{mask:url(#mask-18);}.cls-49{fill:#ffda99;}.cls-164{mask:url(#mask-69);}.cls-165{mask:url(#mask-124);}.cls-166{mask:url(#mask-37);}.cls-167{mask:url(#mask-113);}.cls-50{fill:#ff1700;}.cls-51{fill:#d099ff;}.cls-52{fill:#fff;}.cls-53{fill:#fff299;}.cls-168{mask:url(#mask-127);}.cls-169{mask:url(#mask-1);}.cls-170{mask:url(#mask);}.cls-171{mask:url(#mask-22);}.cls-54{fill:#ffdb00;}.cls-172{mask:url(#mask-57);}.cls-55{fill:#ffccde;}.cls-56{fill:#acb5ff;}.cls-173{mask:url(#mask-85);}.cls-57{fill:#baf1ff;}.cls-174{mask:url(#mask-99);}.cls-175{mask:url(#mask-29);}.cls-176{mask:url(#mask-103);}.cls-177{mask:url(#mask-90);}.cls-178{mask:url(#mask-7);}.cls-58{fill:#ff946e;}.cls-179{mask:url(#mask-100);}.cls-180{mask:url(#mask-62);}.cls-59{fill:#ff669a;}.cls-60{fill:#ff7466;}.cls-181{mask:url(#mask-65);}.cls-182{mask:url(#mask-91);}.cls-61{fill:#ff3379;}.cls-183{mask:url(#mask-119);}.cls-62{fill:#68f300;}.cls-63{fill:#e1fdcc;}.cls-184{mask:url(#mask-102);}.cls-64{fill:#a233ff;}.cls-185{mask:url(#mask-101);}.cls-186{mask:url(#mask-118);}.cls-187{mask:url(#mask-14);}.cls-188{mask:url(#mask-120);}.cls-65{fill:#25e014;}.cls-189{mask:url(#mask-98);}.cls-190{mask:url(#mask-126);}.cls-191{mask:url(#mask-21);}.cls-66{fill:#d3f9d0;}.cls-192{mask:url(#mask-11);}.cls-193{mask:url(#mask-28);}.cls-194{mask:url(#mask-81);}.cls-67{fill:#ffb67c;}.cls-195{mask:url(#mask-93);}.cls-196{mask:url(#mask-108);}.cls-68{fill:#ffe533;}.cls-197{mask:url(#mask-50);}.cls-198{mask:url(#mask-51);}</style><clipPath id="clippath"><path class="cls-27" d="M0,0s1.28,81.35,33.87,123.43L242.38,1.12,0,0Z"/></clipPath><mask id="mask" x="-.16" y="-242.38" width="484.92" height="484.76" maskUnits="userSpaceOnUse"><g id="mask0_12_718"><path class="cls-52" d="M-.16,2.32h240.3v120.39H-.16V2.32Z"/></g></mask><mask id="mask-1" x="0" y="-242.38" width="484.76" height="484.76" maskUnits="userSpaceOnUse"><g id="mask1_12_718"><path class="cls-52" d="M.04,2.74c.48,43.49,12.41,84.22,32.92,119.34L239.75,2.67C150.49,2.86,61.43,2.95.04,2.74Z"/></g></mask><mask id="mask-2" x="37.2" y="-204.76" width="409.94" height="409.52" maskUnits="userSpaceOnUse"><g id="mask2_12_718"><path class="cls-52" d="M37.2,2.32h202.94v120.39H37.2V2.32Z"/></g></mask><mask id="mask-3" x=".04" y="-204.76" width="447.1" height="409.52" maskUnits="userSpaceOnUse"><g id="mask3_12_718"><path class="cls-52" d="M.04,2.74c.48,43.49,12.41,84.22,32.92,119.34L239.75,2.67C150.49,2.86,61.43,2.95.04,2.74Z"/></g></mask><mask id="mask-4" x="74.65" y="-167.14" width="334.87" height="334.29" maskUnits="userSpaceOnUse"><g id="mask4_12_718"><path class="cls-52" d="M74.65,2.32h165.49v120.39H74.65V2.32Z"/></g></mask><mask id="mask-5" x=".04" y="-167.14" width="409.49" height="334.29" maskUnits="userSpaceOnUse"><g id="mask5_12_718"><path class="cls-52" d="M.04,2.74c.48,43.49,12.41,84.22,32.92,119.34L239.75,2.67C150.49,2.86,61.43,2.95.04,2.74Z"/></g></mask><mask id="mask-6" x="112.67" y="-129.52" width="259.24" height="259.05" maskUnits="userSpaceOnUse"><g id="mask6_12_718"><path class="cls-52" d="M112.67,2.32h127.47v120.39h-127.47V2.32Z"/></g></mask><mask id="mask-7" x=".04" y="-129.52" width="371.87" height="259.05" maskUnits="userSpaceOnUse"><g id="mask7_12_718"><path class="cls-52" d="M.04,2.74c.48,43.49,12.41,84.22,32.92,119.34L239.75,2.67C150.49,2.86,61.43,2.95.04,2.74Z"/></g></mask><mask id="mask-8" x="149.99" y="-91.91" width="184.3" height="184.31" maskUnits="userSpaceOnUse"><g id="mask8_12_718"><path class="cls-52" d="M149.99,2.32h90.15v90.07h-90.15V2.32Z"/></g></mask><mask id="mask-9" x=".04" y="-91.91" width="334.26" height="213.99" maskUnits="userSpaceOnUse"><g id="mask9_12_718"><path class="cls-52" d="M.04,2.74c.48,43.49,12.41,84.22,32.92,119.34L239.75,2.67C150.49,2.86,61.43,2.95.04,2.74Z"/></g></mask><mask id="mask-10" x="0" y="-242.46" width="484.75" height="484.83" maskUnits="userSpaceOnUse"><g id="mask10_12_718"><path class="cls-52" d="M119.68-242.46h121.96V.75h-121.96v-243.21Z"/></g></mask><mask id="mask-11" x="0" y="-242.38" width="484.75" height="484.76" maskUnits="userSpaceOnUse"><g id="mask11_12_718"><path class="cls-52" d="M241.27-242.36c-44.11.2-85.43,12.18-120.99,32.96L241.32.25c-.19-90.68-.28-181.14-.05-242.61Z"/></g></mask><mask id="mask-12" x="37.62" y="-205.09" width="409.52" height="409.86" maskUnits="userSpaceOnUse"><g id="mask12_12_718"><path class="cls-52" d="M119.68-205.09h121.96V.75h-121.96v-205.84Z"/></g></mask><mask id="mask-13" x="37.62" y="-242.36" width="409.52" height="447.13" maskUnits="userSpaceOnUse"><g id="mask13_12_718"><path class="cls-52" d="M241.27-242.36c-44.11.2-85.43,12.18-120.99,32.96L241.32.25c-.19-90.68-.28-181.14-.05-242.61Z"/></g></mask><mask id="mask-14" x="75.23" y="-167.64" width="334.29" height="334.79" maskUnits="userSpaceOnUse"><g id="mask14_12_718"><path class="cls-52" d="M119.68-167.64h121.96V.75h-121.96v-168.39Z"/></g></mask><mask id="mask-15" x="75.23" y="-242.36" width="334.29" height="409.51" maskUnits="userSpaceOnUse"><g id="mask15_12_718"><path class="cls-52" d="M241.27-242.36c-44.11.2-85.43,12.18-120.99,32.96L241.32.25c-.19-90.68-.28-181.14-.05-242.61Z"/></g></mask><mask id="mask-16" x="112.85" y="-129.63" width="259.06" height="259.16" maskUnits="userSpaceOnUse"><g id="mask16_12_718"><path class="cls-52" d="M119.68-129.63h121.96V.75h-121.96v-130.38Z"/></g></mask><mask id="mask-17" x="112.85" y="-242.36" width="259.06" height="371.89" maskUnits="userSpaceOnUse"><g id="mask17_12_718"><path class="cls-52" d="M241.27-242.36c-44.11.2-85.43,12.18-120.99,32.96L241.32.25c-.19-90.68-.28-181.14-.05-242.61Z"/></g></mask><mask id="mask-18" x="149.99" y="-92.3" width="184.3" height="184.22" maskUnits="userSpaceOnUse"><g id="mask18_12_718"><path class="cls-52" d="M149.99-92.3h91.64V.75h-91.64v-93.05Z"/></g></mask><mask id="mask-19" x="120.28" y="-242.36" width="214.01" height="334.27" maskUnits="userSpaceOnUse"><g id="mask19_12_718"><path class="cls-52" d="M241.27-242.36c-44.11.2-85.43,12.18-120.99,32.96L241.32.25c-.19-90.68-.28-181.14-.05-242.61Z"/></g></mask><mask id="mask-20" x="0" y="-242.46" width="484.75" height="484.83" maskUnits="userSpaceOnUse"><g id="mask20_12_718"><path class="cls-52" d="M119.68-242.46h121.96V.75h-121.96v-243.21Z"/></g></mask><mask id="mask-21" x="0" y="-242.38" width="484.75" height="484.76" maskUnits="userSpaceOnUse"><g id="mask21_12_718"><path class="cls-52" d="M241.27-242.36c-44.11.2-85.43,12.18-120.99,32.96L241.32.25c-.19-90.68-.28-181.14-.05-242.61Z"/></g></mask><mask id="mask-22" x="37.62" y="-205.09" width="409.52" height="409.86" maskUnits="userSpaceOnUse"><g id="mask22_12_718"><path class="cls-52" d="M119.68-205.09h121.96V.75h-121.96v-205.84Z"/></g></mask><mask id="mask-23" x="37.62" y="-242.36" width="409.52" height="447.13" maskUnits="userSpaceOnUse"><g id="mask23_12_718"><path class="cls-52" d="M241.27-242.36c-44.11.2-85.43,12.18-120.99,32.96L241.32.25c-.19-90.68-.28-181.14-.05-242.61Z"/></g></mask><mask id="mask-24" x="75.23" y="-167.64" width="334.29" height="334.79" maskUnits="userSpaceOnUse"><g id="mask24_12_718"><path class="cls-52" d="M119.68-167.64h121.96V.75h-121.96v-168.39Z"/></g></mask><mask id="mask-25" x="75.23" y="-242.36" width="334.29" height="409.51" maskUnits="userSpaceOnUse"><g id="mask25_12_718"><path class="cls-52" d="M241.27-242.36c-44.11.2-85.43,12.18-120.99,32.96L241.32.25c-.19-90.68-.28-181.14-.05-242.61Z"/></g></mask><mask id="mask-26" x="112.85" y="-129.63" width="259.06" height="259.16" maskUnits="userSpaceOnUse"><g id="mask26_12_718"><path class="cls-52" d="M119.68-129.63h121.96V.75h-121.96v-130.38Z"/></g></mask><mask id="mask-27" x="112.85" y="-242.36" width="259.06" height="371.89" maskUnits="userSpaceOnUse"><g id="mask27_12_718"><path class="cls-52" d="M241.27-242.36c-44.11.2-85.43,12.18-120.99,32.96L241.32.25c-.19-90.68-.28-181.14-.05-242.61Z"/></g></mask><mask id="mask-28" x="149.99" y="-92.3" width="184.3" height="184.22" maskUnits="userSpaceOnUse"><g id="mask28_12_718"><path class="cls-52" d="M149.99-92.3h91.64V.75h-91.64v-93.05Z"/></g></mask><mask id="mask-29" x="120.28" y="-242.36" width="214.01" height="334.27" maskUnits="userSpaceOnUse"><g id="mask29_12_718"><path class="cls-52" d="M241.27-242.36c-44.11.2-85.43,12.18-120.99,32.96L241.32.25c-.19-90.68-.28-181.14-.05-242.61Z"/></g></mask><mask id="mask-30" x="-.16" y="-242.38" width="484.92" height="484.76" maskUnits="userSpaceOnUse"><g id="mask30_12_718"><path class="cls-52" d="M-.16-119.09h240.3V2.16H-.16v-121.25Z"/></g></mask><mask id="mask-31" x="0" y="-242.38" width="484.76" height="484.76" maskUnits="userSpaceOnUse"><g id="mask31_12_718"><path class="cls-52" d="M31.09-118.82C11.3-83.71,0-43.18,0,0,0,.54.02,1.08.02,1.62h239.79C161.87-43.16,84.18-87.91,31.09-118.82Z"/></g></mask><mask id="mask-32" x="37.2" y="-204.76" width="409.94" height="409.52" maskUnits="userSpaceOnUse"><g id="mask32_12_718"><path class="cls-52" d="M37.2-119.09h202.94V2.16H37.2v-121.25Z"/></g></mask><mask id="mask-33" x="0" y="-204.76" width="447.14" height="409.52" maskUnits="userSpaceOnUse"><g id="mask33_12_718"><path class="cls-52" d="M31.09-118.82C11.3-83.71,0-43.18,0,0c0,.54.02,1.08.02,1.62h239.79C161.87-43.16,84.18-87.91,31.09-118.82Z"/></g></mask><mask id="mask-34" x="74.65" y="-167.14" width="334.87" height="334.29" maskUnits="userSpaceOnUse"><g id="mask34_12_718"><path class="cls-52" d="M74.65-119.09h165.49V2.16H74.65v-121.25Z"/></g></mask><mask id="mask-35" x="0" y="-167.14" width="409.52" height="334.29" maskUnits="userSpaceOnUse"><g id="mask35_12_718"><path class="cls-52" d="M31.09-118.82C11.3-83.71,0-43.18,0,0,0,.54.02,1.08.02,1.62h239.79C161.87-43.16,84.18-87.91,31.09-118.82Z"/></g></mask><mask id="mask-36" x="112.67" y="-129.52" width="259.24" height="259.05" maskUnits="userSpaceOnUse"><g id="mask36_12_718"><path class="cls-52" d="M112.67-119.09h127.47V2.16h-127.47v-121.25Z"/></g></mask><mask id="mask-37" x="0" y="-129.52" width="371.91" height="259.05" maskUnits="userSpaceOnUse"><g id="mask37_12_718"><path class="cls-52" d="M31.09-118.82C11.3-83.71,0-43.18,0,0,0,.54.02,1.08.02,1.62h239.79C161.87-43.16,84.18-87.91,31.09-118.82Z"/></g></mask><mask id="mask-38" x="149.99" y="-92.3" width="184.3" height="184.22" maskUnits="userSpaceOnUse"><g id="mask38_12_718"><path class="cls-52" d="M149.99-92.3h90.15V2.16h-90.15v-94.46Z"/></g></mask><mask id="mask-39" x="0" y="-118.82" width="334.29" height="210.73" maskUnits="userSpaceOnUse"><g id="mask39_12_718"><path class="cls-52" d="M31.09-118.82C11.3-83.71,0-43.18,0,0,0,.54.02,1.08.02,1.62h239.79C161.87-43.16,84.18-87.91,31.09-118.82Z"/></g></mask><mask id="mask-40" x="0" y="-242.38" width="484.76" height="484.76" maskUnits="userSpaceOnUse"><g id="mask40_12_718"><path class="cls-52" d="M31.56-209.02h209.37V.75H31.56v-209.77Z"/></g></mask><mask id="mask-41" x="0" y="-242.38" width="484.76" height="484.76" maskUnits="userSpaceOnUse"><g id="mask41_12_718"><path class="cls-52" d="M119.32-208.84c-36.42,21.51-66.73,52.26-87.69,89.05L240.38.73c-45.36-78.19-90.52-156.24-121.06-209.57Z"/></g></mask><mask id="mask-42" x="37.2" y="-205.09" width="409.94" height="409.86" maskUnits="userSpaceOnUse"><g id="mask42_12_718"><path class="cls-52" d="M37.2-205.09h203.73V.75H37.2v-205.84Z"/></g></mask><mask id="mask-43" x="31.63" y="-208.84" width="415.51" height="413.6" maskUnits="userSpaceOnUse"><g id="mask43_12_718"><path class="cls-52" d="M119.32-208.84c-36.42,21.51-66.73,52.26-87.69,89.05L240.38.73c-45.36-78.19-90.52-156.24-121.06-209.57Z"/></g></mask><mask id="mask-44" x="74.65" y="-167.64" width="334.87" height="334.79" maskUnits="userSpaceOnUse"><g id="mask44_12_718"><path class="cls-52" d="M74.65-167.64h166.28V.75H74.65v-168.39Z"/></g></mask><mask id="mask-45" x="31.63" y="-208.84" width="377.89" height="375.99" maskUnits="userSpaceOnUse"><g id="mask45_12_718"><path class="cls-52" d="M119.32-208.84c-36.42,21.51-66.73,52.26-87.69,89.05L240.38.73c-45.36-78.19-90.52-156.24-121.06-209.57Z"/></g></mask><mask id="mask-46" x="112.67" y="-129.63" width="259.24" height="259.16" maskUnits="userSpaceOnUse"><g id="mask46_12_718"><path class="cls-52" d="M112.67-129.63h128.26V.75H112.67v-130.38Z"/></g></mask><mask id="mask-47" x="31.63" y="-208.84" width="340.27" height="338.37" maskUnits="userSpaceOnUse"><g id="mask47_12_718"><path class="cls-52" d="M119.32-208.84c-36.42,21.51-66.73,52.26-87.69,89.05L240.38.73c-45.36-78.19-90.52-156.24-121.06-209.57Z"/></g></mask><mask id="mask-48" x="149.99" y="-92.3" width="184.3" height="184.22" maskUnits="userSpaceOnUse"><g id="mask48_12_718"><path class="cls-52" d="M149.99-92.3h90.94V.75h-90.94v-93.05Z"/></g></mask><mask id="mask-49" x="31.63" y="-208.84" width="302.66" height="300.75" maskUnits="userSpaceOnUse"><g id="mask49_12_718"><path class="cls-52" d="M119.32-208.84c-36.42,21.51-66.73,52.26-87.69,89.05L240.38.73c-45.36-78.19-90.52-156.24-121.06-209.57Z"/></g></mask><mask id="mask-50" x="0" y="-242.46" width="484.76" height="484.83" maskUnits="userSpaceOnUse"/><mask id="mask-51" x="0" y="-242.38" width="484.76" height="484.76" maskUnits="userSpaceOnUse"/><mask id="mask-52" x="37.62" y="-205.09" width="409.52" height="409.86" maskUnits="userSpaceOnUse"/><mask id="mask-53" x="37.62" y="-242.38" width="409.52" height="447.14" maskUnits="userSpaceOnUse"/><mask id="mask-54" x="75.23" y="-167.64" width="334.29" height="334.79" maskUnits="userSpaceOnUse"/><mask id="mask-55" x="75.23" y="-242.38" width="334.29" height="409.52" maskUnits="userSpaceOnUse"/><mask id="mask-56" x="112.85" y="-129.63" width="259.06" height="259.16" maskUnits="userSpaceOnUse"/><mask id="mask-57" x="112.85" y="-242.38" width="259.06" height="371.91" maskUnits="userSpaceOnUse"/><mask id="mask-58" x="150.46" y="-92.3" width="184.22" height="184.22" maskUnits="userSpaceOnUse"/><mask id="mask-59" x="150.46" y="-242.38" width="213.08" height="334.29" maskUnits="userSpaceOnUse"/><mask id="mask-60" x="0" y="-242.38" width="484.76" height="484.76" maskUnits="userSpaceOnUse"/><mask id="mask-61" x="0" y="-242.38" width="484.76" height="484.76" maskUnits="userSpaceOnUse"/><mask id="mask-62" x="37.62" y="-205.09" width="409.86" height="409.86" maskUnits="userSpaceOnUse"/><mask id="mask-63" x="37.62" y="-209.79" width="415.19" height="414.56" maskUnits="userSpaceOnUse"/><mask id="mask-64" x="75.23" y="-167.64" width="334.87" height="334.79" maskUnits="userSpaceOnUse"/><mask id="mask-65" x="75.23" y="-209.79" width="377.58" height="376.94" maskUnits="userSpaceOnUse"/><mask id="mask-66" x="112.85" y="-129.63" width="259.2" height="259.16" maskUnits="userSpaceOnUse"/><mask id="mask-67" x="112.85" y="-209.79" width="339.97" height="339.32" maskUnits="userSpaceOnUse"/><mask id="mask-68" x="150.46" y="-92.3" width="184.22" height="184.22" maskUnits="userSpaceOnUse"/><mask id="mask-69" x="150.46" y="-209.79" width="302.35" height="301.71" maskUnits="userSpaceOnUse"/><mask id="mask-70" x="0" y="-242.38" width="484.84" height="484.76" maskUnits="userSpaceOnUse"/><mask id="mask-71" x="0" y="-242.38" width="484.75" height="484.76" maskUnits="userSpaceOnUse"/><mask id="mask-72" x="37.62" y="-204.76" width="409.86" height="409.52" maskUnits="userSpaceOnUse"/><mask id="mask-73" x="37.62" y="-204.76" width="447.11" height="409.52" maskUnits="userSpaceOnUse"/><mask id="mask-74" x="75.23" y="-167.14" width="334.87" height="334.29" maskUnits="userSpaceOnUse"/><mask id="mask-75" x="75.23" y="-167.14" width="409.5" height="334.29" maskUnits="userSpaceOnUse"/><mask id="mask-76" x="112.85" y="-129.52" width="259.2" height="259.05" maskUnits="userSpaceOnUse"/><mask id="mask-77" x="112.85" y="-129.52" width="371.88" height="259.05" maskUnits="userSpaceOnUse"/><mask id="mask-78" x="150.46" y="-91.91" width="184.22" height="184.31" maskUnits="userSpaceOnUse"/><mask id="mask-79" x="150.46" y="-91.91" width="334.27" height="214.52" maskUnits="userSpaceOnUse"/><mask id="mask-80" x="0" y="-242.38" width="484.84" height="484.76" maskUnits="userSpaceOnUse"/><mask id="mask-81" x="0" y="-242.38" width="484.75" height="484.76" maskUnits="userSpaceOnUse"/><mask id="mask-82" x="37.62" y="-204.76" width="409.86" height="409.52" maskUnits="userSpaceOnUse"/><mask id="mask-83" x="37.62" y="-204.76" width="447.14" height="409.52" maskUnits="userSpaceOnUse"/><mask id="mask-84" x="75.23" y="-167.14" width="334.87" height="334.29" maskUnits="userSpaceOnUse"/><mask id="mask-85" x="75.23" y="-167.14" width="409.52" height="334.29" maskUnits="userSpaceOnUse"/><mask id="mask-86" x="112.85" y="-129.52" width="259.2" height="259.05" maskUnits="userSpaceOnUse"/><mask id="mask-87" x="112.85" y="-129.52" width="371.91" height="259.05" maskUnits="userSpaceOnUse"/><mask id="mask-88" x="150.56" y="-90.89" width="184.13" height="183.93" maskUnits="userSpaceOnUse"/><mask id="mask-89" x="150.56" y="-120.06" width="334.2" height="213.09" maskUnits="userSpaceOnUse"/><mask id="mask-90" x="0" y="-242.38" width="484.76" height="484.76" maskUnits="userSpaceOnUse"/><mask id="mask-91" x="0" y="-242.38" width="484.76" height="484.76" maskUnits="userSpaceOnUse"/><mask id="mask-92" x="37.62" y="-204.76" width="409.86" height="409.94" maskUnits="userSpaceOnUse"/><mask id="mask-93" x="37.62" y="-204.76" width="413.7" height="415.21" maskUnits="userSpaceOnUse"/><mask id="mask-94" x="75.23" y="-167.14" width="334.87" height="334.95" maskUnits="userSpaceOnUse"/><mask id="mask-95" x="75.23" y="-167.14" width="376.09" height="377.6" maskUnits="userSpaceOnUse"/><mask id="mask-96" x="112.85" y="-129.52" width="259.2" height="259.28" maskUnits="userSpaceOnUse"/><mask id="mask-97" x="112.85" y="-129.52" width="338.47" height="339.98" maskUnits="userSpaceOnUse"/><mask id="mask-98" x="150.46" y="-91.91" width="184.22" height="184.31" maskUnits="userSpaceOnUse"/><mask id="mask-99" x="150.46" y="-91.91" width="300.86" height="302.37" maskUnits="userSpaceOnUse"/><mask id="mask-100" x="0" y="-242.38" width="484.75" height="484.92" maskUnits="userSpaceOnUse"><g id="mask100_12_718"><path class="cls-52" d="M121.79,3.57h120.54v238.98h-120.54V3.57Z"/></g></mask><mask id="mask-101" x="0" y="-242.38" width="484.75" height="484.76" maskUnits="userSpaceOnUse"><g id="mask101_12_718"><path class="cls-52" d="M122.11,210.48c35.36,20.25,76.3,31.84,119.94,31.9-.23-61.42-.53-149.89-.73-238.53-44.16,76.87-88.33,153.54-119.22,206.63Z"/></g></mask><mask id="mask-102" x="37.62" y="-204.76" width="409.52" height="409.94" maskUnits="userSpaceOnUse"><g id="mask102_12_718"><path class="cls-52" d="M121.79,3.57h120.54v201.61h-120.54V3.57Z"/></g></mask><mask id="mask-103" x="37.62" y="-204.76" width="409.52" height="447.13" maskUnits="userSpaceOnUse"><g id="mask103_12_718"><path class="cls-52" d="M122.11,210.48c35.36,20.25,76.3,31.84,119.94,31.9-.23-61.42-.53-149.89-.73-238.53-44.16,76.87-88.33,153.54-119.22,206.63Z"/></g></mask><mask id="mask-104" x="75.23" y="-167.14" width="334.29" height="334.95" maskUnits="userSpaceOnUse"><g id="mask104_12_718"><path class="cls-52" d="M121.79,3.57h120.54v164.24h-120.54V3.57Z"/></g></mask><mask id="mask-105" x="75.23" y="-167.14" width="334.29" height="409.52" maskUnits="userSpaceOnUse"><g id="mask105_12_718"><path class="cls-52" d="M122.11,210.48c35.36,20.25,76.3,31.84,119.94,31.9-.23-61.42-.53-149.89-.73-238.53-44.16,76.87-88.33,153.54-119.22,206.63Z"/></g></mask><mask id="mask-106" x="112.85" y="-129.52" width="259.06" height="259.28" maskUnits="userSpaceOnUse"><g id="mask106_12_718"><path class="cls-52" d="M121.79,3.57h120.54v126.18h-120.54V3.57Z"/></g></mask><mask id="mask-107" x="112.85" y="-129.52" width="259.06" height="371.9" maskUnits="userSpaceOnUse"><g id="mask107_12_718"><path class="cls-52" d="M122.11,210.48c35.36,20.25,76.3,31.84,119.94,31.9-.23-61.42-.53-149.89-.73-238.53-44.16,76.87-88.33,153.54-119.22,206.63Z"/></g></mask><mask id="mask-108" x="149.99" y="-91.91" width="184.3" height="184.31" maskUnits="userSpaceOnUse"><g id="mask108_12_718"><path class="cls-52" d="M149.99,3.57h92.35v88.82h-92.35V3.57Z"/></g></mask><mask id="mask-109" x="122.11" y="-91.91" width="212.18" height="334.29" maskUnits="userSpaceOnUse"><g id="mask109_12_718"><path class="cls-52" d="M122.11,210.48c35.35,20.25,76.3,31.84,119.94,31.9-.23-61.42-.53-149.89-.73-238.53-44.16,76.87-88.33,153.54-119.22,206.63Z"/></g></mask><mask id="mask-110" x="0" y="-242.38" width="484.76" height="484.92" maskUnits="userSpaceOnUse"/><mask id="mask-111" x="0" y="-242.38" width="484.76" height="484.76" maskUnits="userSpaceOnUse"/><mask id="mask-112" x="37.62" y="-204.76" width="409.52" height="409.94" maskUnits="userSpaceOnUse"/><mask id="mask-113" x="37.62" y="-204.76" width="409.52" height="447.14" maskUnits="userSpaceOnUse"/><mask id="mask-114" x="75.23" y="-167.14" width="334.29" height="334.95" maskUnits="userSpaceOnUse"/><mask id="mask-115" x="75.23" y="-167.14" width="334.29" height="409.52" maskUnits="userSpaceOnUse"/><mask id="mask-116" x="112.85" y="-129.52" width="259.06" height="259.28" maskUnits="userSpaceOnUse"/><mask id="mask-117" x="112.85" y="-129.52" width="259.06" height="371.9" maskUnits="userSpaceOnUse"/><mask id="mask-118" x="150.46" y="-91.91" width="184.22" height="184.31" maskUnits="userSpaceOnUse"/><mask id="mask-119" x="150.46" y="-91.91" width="212.51" height="334.29" maskUnits="userSpaceOnUse"/><mask id="mask-120" x="0" y="-242.38" width="484.75" height="484.76" maskUnits="userSpaceOnUse"><g id="mask120_12_718"><path class="cls-52" d="M33.28,3.57h207.65v206.55H33.28V3.57Z"/></g></mask><mask id="mask-121" x="0" y="-242.38" width="484.75" height="484.76" maskUnits="userSpaceOnUse"><g id="mask121_12_718"><path class="cls-52" d="M33.53,123.04c21.23,35.95,51.46,65.95,87.61,86.87L240.24,3.61C163.44,48.18,86.77,92.54,33.53,123.04Z"/></g></mask><mask id="mask-122" x="37.2" y="-204.76" width="409.94" height="409.94" maskUnits="userSpaceOnUse"><g id="mask122_12_718"><path class="cls-52" d="M37.2,3.57h203.73v201.61H37.2V3.57Z"/></g></mask><mask id="mask-123" x="33.53" y="-204.76" width="413.61" height="414.67" maskUnits="userSpaceOnUse"><g id="mask123_12_718"><path class="cls-52" d="M33.53,123.04c21.23,35.95,51.46,65.95,87.61,86.87L240.24,3.61C163.44,48.18,86.77,92.54,33.53,123.04Z"/></g></mask><mask id="mask-124" x="74.65" y="-167.14" width="334.87" height="334.95" maskUnits="userSpaceOnUse"><g id="mask124_12_718"><path class="cls-52" d="M74.65,3.57h166.28v164.24H74.65V3.57Z"/></g></mask><mask id="mask-125" x="33.53" y="-167.14" width="376" height="377.06" maskUnits="userSpaceOnUse"><g id="mask125_12_718"><path class="cls-52" d="M33.53,123.04c21.23,35.95,51.46,65.95,87.61,86.87L240.24,3.61C163.44,48.18,86.77,92.54,33.53,123.04Z"/></g></mask><mask id="mask-126" x="112.67" y="-129.52" width="259.24" height="259.28" maskUnits="userSpaceOnUse"><g id="mask126_12_718"><path class="cls-52" d="M112.67,3.57h128.26v126.18H112.67V3.57Z"/></g></mask><mask id="mask-127" x="33.53" y="-129.52" width="338.38" height="339.44" maskUnits="userSpaceOnUse"><g id="mask127_12_718"><path class="cls-52" d="M33.53,123.04c21.23,35.95,51.46,65.95,87.61,86.87L240.24,3.61C163.44,48.18,86.77,92.54,33.53,123.04Z"/></g></mask><mask id="mask-128" x="149.99" y="-91.91" width="184.3" height="184.31" maskUnits="userSpaceOnUse"><g id="mask128_12_718"><path class="cls-52" d="M149.99,3.57h90.94v88.82h-90.94V3.57Z"/></g></mask><mask id="mask-129" x="33.53" y="-91.91" width="300.77" height="301.83" maskUnits="userSpaceOnUse"><g id="mask129_12_718"><path class="cls-52" d="M33.53,123.04c21.23,35.95,51.46,65.95,87.61,86.87L240.24,3.61C163.44,48.18,86.77,92.54,33.53,123.04Z"/></g></mask></defs><g id="Capa_1-2"><g class="cls-148"><g class="cls-170"><g class="cls-169"><path class="cls-50" d="M484.76,0c0,133.86-108.51,242.38-242.38,242.38S0,133.86,0,0s108.51-242.38,242.38-242.38S484.76-133.86,484.76,0Z"/></g></g><g class="cls-92"><g class="cls-106"><path class="cls-38" d="M447.14,0c0,113.09-91.68,204.76-204.76,204.76S37.62,113.09,37.62,0s91.67-204.76,204.76-204.76S447.14-113.09,447.14,0Z"/></g></g><g class="cls-145"><g class="cls-121"><path class="cls-60" d="M409.52,0c0,92.31-74.83,167.15-167.15,167.15S75.23,92.31,75.23,0s74.83-167.14,167.15-167.14S409.52-92.31,409.52,0Z"/></g></g><g class="cls-155"><g class="cls-178"><path class="cls-11" d="M371.91,0c0,71.54-57.99,129.53-129.53,129.53S112.85,71.54,112.85,0s57.99-129.52,129.53-129.52S371.91-71.54,371.91,0Z"/></g></g><g class="cls-143"><g class="cls-115"><path class="cls-8" d="M334.29,0c0,50.76-41.15,91.91-91.92,91.91S150.46,50.76,150.46,0s41.15-91.91,91.91-91.91S334.29-50.76,334.29,0Z"/></g></g><g class="cls-77"><g class="cls-192"><path class="cls-54" d="M484.75,0c0,133.86-108.51,242.38-242.38,242.38S0,133.86,0,0s108.51-242.38,242.38-242.38S484.75-133.86,484.75,0Z"/></g></g><g class="cls-119"><g class="cls-101"><path class="cls-42" d="M447.14,0c0,113.09-91.68,204.76-204.76,204.76S37.62,113.09,37.62,0s91.67-204.76,204.76-204.76S447.14-113.08,447.14,0Z"/></g></g><g class="cls-187"><g class="cls-152"><path class="cls-37" d="M409.52,0c0,92.31-74.83,167.15-167.15,167.15S75.23,92.31,75.23,0s74.83-167.14,167.15-167.14S409.52-92.31,409.52,0Z"/></g></g><g class="cls-159"><g class="cls-84"><path class="cls-15" d="M371.91,0c0,71.54-57.99,129.53-129.53,129.53S112.85,71.54,112.85,0s57.99-129.52,129.53-129.52S371.91-71.54,371.91,0Z"/></g></g><g class="cls-163"><g class="cls-149"><path class="cls-28" d="M334.29,0c0,50.76-41.15,91.91-91.92,91.91S150.46,50.76,150.46,0s41.15-91.91,91.91-91.91S334.29-50.76,334.29,0Z"/></g></g><g class="cls-135"><g class="cls-191"><path class="cls-33" d="M484.75,0c0,133.86-108.51,242.38-242.38,242.38S0,133.86,0,0s108.51-242.38,242.38-242.38S484.75-133.86,484.75,0Z"/></g></g><g class="cls-171"><g class="cls-75"><path class="cls-22" d="M447.14,0c0,113.09-91.68,204.76-204.76,204.76S37.62,113.09,37.62,0s91.67-204.76,204.76-204.76S447.14-113.08,447.14,0Z"/></g></g><g class="cls-146"><g class="cls-142"><path class="cls-20" d="M409.52,0c0,92.31-74.83,167.15-167.15,167.15S75.23,92.31,75.23,0s74.83-167.14,167.15-167.14S409.52-92.31,409.52,0Z"/></g></g><g class="cls-80"><g class="cls-76"><path class="cls-49" d="M371.91,0c0,71.54-57.99,129.53-129.53,129.53S112.85,71.54,112.85,0s57.99-129.52,129.53-129.52S371.91-71.54,371.91,0Z"/></g></g><g class="cls-193"><g class="cls-175"><path class="cls-3" d="M334.29,0c0,50.76-41.15,91.91-91.92,91.91S150.46,50.76,150.46,0s41.15-91.91,91.91-91.91S334.29-50.76,334.29,0Z"/></g></g><g class="cls-112"><g class="cls-110"><path class="cls-16" d="M484.76,0c0,133.86-108.51,242.38-242.38,242.38S0,133.86,0,0s108.51-242.38,242.38-242.38S484.76-133.86,484.76,0Z"/></g></g><g class="cls-113"><g class="cls-95"><path class="cls-21" d="M447.14,0c0,113.09-91.68,204.76-204.76,204.76S37.62,113.09,37.62,0s91.67-204.76,204.76-204.76S447.14-113.08,447.14,0Z"/></g></g><g class="cls-94"><g class="cls-131"><path class="cls-23" d="M409.52,0c0,92.31-74.83,167.15-167.14,167.15S75.23,92.31,75.23,0s74.83-167.14,167.15-167.14S409.52-92.31,409.52,0Z"/></g></g><g class="cls-129"><g class="cls-166"><path class="cls-58" d="M371.91,0c0,71.54-57.99,129.53-129.53,129.53S112.85,71.54,112.85,0s57.99-129.52,129.53-129.52S371.91-71.54,371.91,0Z"/></g></g><g class="cls-138"><g class="cls-118"><path class="cls-5" d="M334.29,0c0,50.76-41.15,91.91-91.92,91.91S150.46,50.76,150.46,0s41.15-91.91,91.91-91.91S334.29-50.76,334.29,0Z"/></g></g><g class="cls-133"><g class="cls-86"><path class="cls-7" d="M484.76,0c0,133.86-108.51,242.38-242.38,242.38S0,133.86,0,0s108.51-242.38,242.38-242.38S484.76-133.86,484.76,0Z"/></g></g><g class="cls-156"><g class="cls-85"><path class="cls-13" d="M447.14,0c0,113.09-91.68,204.76-204.76,204.76S37.62,113.09,37.62,0s91.67-204.76,204.76-204.76S447.14-113.08,447.14,0Z"/></g></g><g class="cls-141"><g class="cls-93"><path class="cls-30" d="M409.52,0c0,92.31-74.83,167.15-167.15,167.15S75.23,92.31,75.23,0s74.83-167.14,167.15-167.14S409.52-92.31,409.52,0Z"/></g></g><g class="cls-82"><g class="cls-89"><path class="cls-67" d="M371.91,0c0,71.54-57.99,129.53-129.53,129.53S112.85,71.54,112.85,0s57.99-129.52,129.53-129.52S371.91-71.54,371.91,0Z"/></g></g><g class="cls-117"><g class="cls-88"><path class="cls-31" d="M334.29,0c0,50.76-41.15,91.91-91.92,91.91S150.46,50.76,150.46,0s41.15-91.91,91.91-91.91S334.29-50.76,334.29,0Z"/></g></g><g class="cls-197"><g class="cls-198"><path class="cls-9" d="M484.76,0c0,133.86-108.51,242.38-242.38,242.38S0,133.86,0,0s108.51-242.38,242.38-242.38S484.76-133.86,484.76,0Z"/></g></g><g class="cls-158"><g class="cls-71"><path class="cls-68" d="M447.14,0c0,113.09-91.68,204.76-204.76,204.76S37.62,113.09,37.62,0s91.67-204.76,204.76-204.76S447.14-113.08,447.14,0Z"/></g></g><g class="cls-111"><g class="cls-147"><path class="cls-39" d="M409.52,0c0,92.31-74.83,167.15-167.14,167.15S75.23,92.31,75.23,0s74.83-167.14,167.15-167.14S409.52-92.31,409.52,0Z"/></g></g><g class="cls-74"><g class="cls-172"><path class="cls-53" d="M371.91,0c0,71.54-57.99,129.53-129.53,129.53S112.85,71.54,112.85,0s57.99-129.52,129.53-129.52S371.91-71.54,371.91,0Z"/></g></g><g class="cls-69"><g class="cls-102"><path class="cls-26" d="M334.29,0c0,50.76-41.15,91.91-91.92,91.91S150.46,50.76,150.46,0s41.15-91.91,91.91-91.91S334.29-50.76,334.29,0Z"/></g></g><g class="cls-150"><g class="cls-123"><path class="cls-62" d="M484.76,0c0,133.86-108.51,242.38-242.38,242.38S0,133.86,0,0s108.51-242.38,242.38-242.38S484.76-133.86,484.76,0Z"/></g></g><g class="cls-180"><g class="cls-108"><path class="cls-41" d="M447.14,0c0,113.09-91.68,204.76-204.76,204.76S37.62,113.09,37.62,0s91.67-204.76,204.76-204.76S447.14-113.08,447.14,0Z"/></g></g><g class="cls-107"><g class="cls-181"><path class="cls-25" d="M409.52,0c0,92.31-74.83,167.15-167.14,167.15S75.23,92.31,75.23,0s74.83-167.14,167.15-167.14S409.52-92.31,409.52,0Z"/></g></g><g class="cls-104"><g class="cls-72"><path class="cls-45" d="M371.91,0c0,71.54-57.99,129.53-129.53,129.53S112.85,71.54,112.85,0s57.99-129.52,129.53-129.52S371.91-71.54,371.91,0Z"/></g></g><g class="cls-100"><g class="cls-164"><path class="cls-63" d="M334.29,0c0,50.76-41.15,91.91-91.92,91.91S150.46,50.76,150.46,0s41.15-91.91,91.91-91.91S334.29-50.76,334.29,0Z"/></g></g><g class="cls-137"><g class="cls-120"><path class="cls-29" d="M484.75,0c0,133.86-108.51,242.38-242.38,242.38S0,133.86,0,0s108.51-242.38,242.38-242.38S484.75-133.86,484.75,0Z"/></g></g><g class="cls-127"><g class="cls-109"><path class="cls-46" d="M447.14,0c0,113.09-91.68,204.76-204.76,204.76S37.62,113.09,37.62,0s91.67-204.76,204.76-204.76S447.14-113.08,447.14,0Z"/></g></g><g class="cls-70"><g class="cls-97"><path class="cls-14" d="M409.52,0c0,92.31-74.83,167.15-167.15,167.15S75.23,92.31,75.23,0s74.83-167.14,167.15-167.14S409.52-92.31,409.52,0Z"/></g></g><g class="cls-130"><g class="cls-83"><path class="cls-57" d="M371.91,0c0,71.54-57.99,129.53-129.53,129.53S112.85,71.54,112.85,0s57.99-129.52,129.53-129.52S371.91-71.54,371.91,0Z"/></g></g><g class="cls-99"><g class="cls-87"><path class="cls-47" d="M334.29,0c0,50.76-41.15,91.91-91.92,91.91S150.46,50.76,150.46,0s41.15-91.91,91.91-91.91S334.29-50.76,334.29,0Z"/></g></g><g class="cls-105"><g class="cls-194"><path class="cls-65" d="M484.75,0c0,133.86-108.51,242.38-242.38,242.38S0,133.86,0,0s108.51-242.38,242.38-242.38S484.75-133.86,484.75,0Z"/></g></g><g class="cls-90"><g class="cls-114"><path class="cls-24" d="M447.14,0c0,113.09-91.68,204.76-204.76,204.76S37.62,113.09,37.62,0s91.67-204.76,204.76-204.76S447.14-113.08,447.14,0Z"/></g></g><g class="cls-157"><g class="cls-173"><path class="cls-17" d="M409.52,0c0,92.31-74.83,167.15-167.15,167.15S75.23,92.31,75.23,0s74.83-167.14,167.15-167.14S409.52-92.31,409.52,0Z"/></g></g><g class="cls-125"><g class="cls-98"><path class="cls-10" d="M371.91,0c0,71.54-57.99,129.53-129.53,129.53S112.85,71.54,112.85,0s57.99-129.52,129.53-129.52S371.91-71.54,371.91,0Z"/></g></g><g class="cls-128"><g class="cls-153"><path class="cls-66" d="M334.38,1.12c0,50.76-41.15,91.91-91.91,91.91S150.56,51.88,150.56,1.12s41.15-91.91,91.91-91.91S334.38-49.64,334.38,1.12Z"/></g></g><g class="cls-177"><g class="cls-182"><path class="cls-12" d="M484.76,0c0,133.86-108.51,242.38-242.38,242.38S0,133.86,0,0s108.51-242.38,242.38-242.38S484.76-133.86,484.76,0Z"/></g></g><g class="cls-91"><g class="cls-195"><path class="cls-32" d="M447.14,0c0,113.09-91.68,204.76-204.76,204.76S37.62,113.09,37.62,0s91.67-204.76,204.76-204.76S447.14-113.08,447.14,0Z"/></g></g><g class="cls-122"><g class="cls-132"><path class="cls-48" d="M409.52,0c0,92.31-74.83,167.15-167.15,167.15S75.23,92.31,75.23,0s74.83-167.14,167.15-167.14S409.52-92.31,409.52,0Z"/></g></g><g class="cls-139"><g class="cls-144"><path class="cls-56" d="M371.91,0c0,71.54-57.99,129.53-129.53,129.53S112.85,71.54,112.85,0s57.99-129.52,129.53-129.52S371.91-71.54,371.91,0Z"/></g></g><g class="cls-189"><g class="cls-174"><path class="cls-2" d="M334.29,0c0,50.76-41.15,91.91-91.92,91.91S150.46,50.76,150.46,0s41.15-91.91,91.91-91.91S334.29-50.76,334.29,0Z"/></g></g><g class="cls-179"><g class="cls-185"><path class="cls-19" d="M484.75,0c0,133.86-108.51,242.38-242.38,242.38S0,133.86,0,0s108.51-242.38,242.38-242.38S484.75-133.86,484.75,0Z"/></g></g><g class="cls-184"><g class="cls-176"><path class="cls-34" d="M447.14,0c0,113.09-91.68,204.76-204.76,204.76S37.62,113.09,37.62,0s91.67-204.76,204.76-204.76S447.14-113.08,447.14,0Z"/></g></g><g class="cls-96"><g class="cls-140"><path class="cls-43" d="M409.52,0c0,92.31-74.83,167.15-167.15,167.15S75.23,92.31,75.23,0s74.83-167.14,167.15-167.14S409.52-92.31,409.52,0Z"/></g></g><g class="cls-79"><g class="cls-81"><path class="cls-40" d="M371.91,0c0,71.54-57.99,129.53-129.53,129.53S112.85,71.54,112.85,0s57.99-129.52,129.53-129.52S371.91-71.54,371.91,0Z"/></g></g><g class="cls-196"><g class="cls-134"><path class="cls-18" d="M334.29,0c0,50.76-41.15,91.91-91.92,91.91S150.46,50.76,150.46,0s41.15-91.91,91.91-91.91S334.29-50.76,334.29,0Z"/></g></g><g class="cls-116"><g class="cls-151"><path class="cls-35" d="M484.76,0c0,133.86-108.51,242.38-242.38,242.38S0,133.86,0,0s108.51-242.38,242.38-242.38S484.76-133.86,484.76,0Z"/></g></g><g class="cls-124"><g class="cls-167"><path class="cls-64" d="M447.14,0c0,113.09-91.68,204.76-204.76,204.76S37.62,113.09,37.62,0s91.67-204.76,204.76-204.76S447.14-113.09,447.14,0Z"/></g></g><g class="cls-154"><g class="cls-162"><path class="cls-4" d="M409.52,0c0,92.31-74.83,167.15-167.14,167.15S75.23,92.31,75.23,0s74.83-167.14,167.15-167.14S409.52-92.31,409.52,0Z"/></g></g><g class="cls-78"><g class="cls-161"><path class="cls-51" d="M371.91,0c0,71.54-57.99,129.53-129.53,129.53S112.85,71.54,112.85,0s57.99-129.52,129.53-129.52S371.91-71.54,371.91,0Z"/></g></g><g class="cls-186"><g class="cls-183"><path class="cls-6" d="M334.29,0c0,50.76-41.15,91.91-91.92,91.91S150.46,50.76,150.46,0s41.15-91.91,91.91-91.91S334.29-50.76,334.29,0Z"/></g></g><g class="cls-188"><g class="cls-160"><path class="cls-44" d="M484.75,0c0,133.86-108.51,242.38-242.38,242.38S0,133.86,0,0s108.51-242.38,242.38-242.38S484.75-133.86,484.75,0Z"/></g></g><g class="cls-73"><g class="cls-1"><path class="cls-61" d="M447.14,0c0,113.09-91.68,204.76-204.76,204.76S37.62,113.09,37.62,0s91.67-204.76,204.76-204.76S447.14-113.08,447.14,0Z"/></g></g><g class="cls-165"><g class="cls-126"><path class="cls-59" d="M409.52,0c0,92.31-74.83,167.15-167.15,167.15S75.23,92.31,75.23,0s74.83-167.14,167.15-167.14S409.52-92.31,409.52,0Z"/></g></g><g class="cls-190"><g class="cls-168"><path class="cls-36" d="M371.91,0c0,71.54-57.99,129.53-129.53,129.53S112.85,71.54,112.85,0s57.99-129.52,129.53-129.52S371.91-71.54,371.91,0Z"/></g></g><g class="cls-136"><g class="cls-103"><path class="cls-55" d="M334.29,0c0,50.76-41.15,91.91-91.92,91.91S150.46,50.76,150.46,0s41.15-91.91,91.91-91.91S334.29-50.76,334.29,0Z"/></g></g></g></g></svg>