<svg width="231" height="526" viewBox="0 0 231 526" fill="none" xmlns="http://www.w3.org/2000/svg">
<path d="M171.008 328.763C171.198 327.956 170.697 327.149 169.891 326.96C169.084 326.77 168.277 327.271 168.088 328.077L171.008 328.763ZM12.0423 497.127C11.6843 497.874 11.9997 498.77 12.7468 499.128L24.9215 504.961C25.6686 505.319 26.5644 505.004 26.9223 504.257C27.2803 503.51 26.9649 502.614 26.2178 502.256L15.3959 497.071L20.5811 486.249C20.9391 485.502 20.6236 484.606 19.8765 484.248C19.1295 483.89 18.2336 484.205 17.8757 484.953L12.0423 497.127ZM168.088 328.077C158.408 369.317 113.773 460.839 12.8968 496.36L13.8932 499.19C116.038 463.222 161.179 370.639 171.008 328.763L168.088 328.077Z" fill="url(#paint0_linear_13_726)"/>
<path d="M55.5429 0.74203C54.8185 0.340064 53.9054 0.601425 53.5034 1.3258C53.1015 2.05017 53.3628 2.96325 54.0872 3.36521L55.5429 0.74203ZM54.0872 3.36521C91.127 23.9192 167.018 91.8087 173.701 198.548L176.695 198.36C169.928 90.2794 93.1545 21.6133 55.5429 0.74203L54.0872 3.36521Z" fill="url(#paint1_linear_13_726)"/>
<defs>
<linearGradient id="paint0_linear_13_726" x1="65.1022" y1="511.63" x2="117.901" y2="314.581" gradientUnits="userSpaceOnUse">
<stop stop-color="#8A00FF"/>
<stop offset="1" stop-color="#68F300"/>
</linearGradient>
<linearGradient id="paint1_linear_13_726" x1="202.621" y1="152.481" x2="27.4235" y2="47.9733" gradientUnits="userSpaceOnUse">
<stop stop-color="#8A00FF"/>
<stop offset="1" stop-color="#68F300"/>
</linearGradient>
</defs>
</svg>
