<svg id="Capa_1" data-name="Capa 1" xmlns="http://www.w3.org/2000/svg" viewBox="0 0 177.84 202.95"><defs><style>.cls-1{opacity:0.3;}.cls-2{fill:#fff;}.cls-3{fill:#9ea0a3;}.cls-4{fill:#231f20;}</style></defs><path class="cls-1" d="M170.68,125c-6.78-36-.29-79.7-1.33-93.45S162.87,13,144.65,12.73,50.5,7.82,36.49,17.06c0,0-17.5,7.55-9.29,45.12,6,27.46,9.14,51.05,9.72,71.89-.1,1.48-1.76,20.35-19.75,22.25,0,0,15.51,3.08,18.19,15.88-1,16.91.71,27.56,18.78,26.68,23.31-1.13,84.71-2.06,99.72-1.68C180.67,197.86,177.46,161,170.68,125Z"/><path class="cls-2" d="M163.64,117.33c-6.78-36-.29-79.71-1.32-93.45S155.84,5.29,137.62,5,43.47.11,29.46,9.35c0,0-17.51,7.55-9.3,45.12,6,27.47,9.15,51.05,9.72,71.89-.1,1.48-1.76,20.35-19.75,22.25,0,0,15.51,3.08,18.19,15.88-1,16.91.71,27.56,18.78,26.68,23.31-1.13,84.71-2,99.72-1.68C173.64,190.16,170.42,153.33,163.64,117.33Z"/><path class="cls-3" d="M29.88,126.36a29.32,29.32,0,0,1-1.45,6.91A29.64,29.64,0,0,0,33,120c-.58-20.84-3.72-44.43-9.72-71.89-3.4-15.54-2.39-25.94,0-32.8-4,6.06-7.74,17.72-3.05,39.17C26.16,81.94,29.31,105.52,29.88,126.36Z"/><path class="cls-3" d="M149.91,183.11c-15-.37-76.41.56-99.72,1.69-18.07.88-19.75-9.77-18.78-26.69-1.44-6.89-6.6-11-11.06-13.25a20.9,20.9,0,0,1-10.22,3.75s15.51,3.08,18.19,15.88c-1,16.91.71,27.56,18.78,26.68,23.31-1.13,84.71-2,99.72-1.68,10.36.26,16.22-5.09,19.15-13.82C162.59,180.54,157.43,183.3,149.91,183.11Z"/><path class="cls-4" d="M44.18,192.36c-5.14-.13-9-1.33-11.79-3.64C27,184.23,26.3,176.14,27,164.56c-2.57-11.82-17-14.81-17.14-14.84l-7.33-1.46,7.47-.78c16.74-1.77,18.43-19.2,18.57-21.19-.59-21-3.76-44.41-9.71-71.61C10.8,18,27,9.22,28.71,8.4c11.2-7.24,51.59-6.35,88.58-4.95,5.49.21,17.24.39,20.35.43,18.37.31,24.93,5.3,26,19.92.33,4.36-.08,11.53-.59,20.6-1.16,20.3-2.74,48.09,1.91,72.75,5.14,27.3,8.75,56.78-3.43,68.41-3.69,3.51-8.66,5.22-14.77,5.07h-.07c-14.66-.36-75.62.52-99.54,1.68C46.13,192.36,45.14,192.38,44.18,192.36ZM14.82,148.87c5.07,2,13,6.46,14.84,15.42l0,.13v.12c-.63,11-.08,18.65,4.62,22.56C37,189.36,41.17,190.31,47,190c24-1.16,85.07-2,99.78-1.68h.07c5.34.13,9.48-1.28,12.64-4.3,11.51-11,7.54-41.33,2.79-66.55h0c-4.69-24.88-3.1-52.81-1.94-73.2.51-9,.92-16.13.6-20.35-1-13.54-6.26-17.53-23.37-17.79-3.15,0-14.91-.22-20.42-.43-26.45-1-75.67-2.87-86.87,4.52l-.22.12c-.16.07-16.47,7.81-8.58,43.9,6,27.31,9.16,50.88,9.74,72.06C31.1,128.41,29.53,144.58,14.82,148.87Z"/><path d="M45.61,61.84a2.55,2.55,0,0,1,.1.4.28.28,0,0,1-.06.23.43.43,0,0,1-.27.09l-.53,0H44.3a1.54,1.54,0,0,1-.3,0,.21.21,0,0,1-.14-.09.26.26,0,0,1-.07-.14l-.61-1.84H39.82l-.56,1.79a.6.6,0,0,1-.08.16.23.23,0,0,1-.14.11,1.43,1.43,0,0,1-.28.05l-.48,0a3.16,3.16,0,0,1-.5,0,.34.34,0,0,1-.25-.1.28.28,0,0,1-.05-.23,2.23,2.23,0,0,1,.1-.39l2.76-8.12a.75.75,0,0,1,.1-.2.4.4,0,0,1,.18-.11,1.94,1.94,0,0,1,.33,0h1.22a2.37,2.37,0,0,1,.37,0,.38.38,0,0,1,.2.12.69.69,0,0,1,.1.21ZM41.5,55.13h0L40.23,59h2.53Z"/><path d="M50.81,60.51a2.18,2.18,0,0,1-.19,1,2,2,0,0,1-.56.68,2.34,2.34,0,0,1-.85.42,4,4,0,0,1-1.07.14,3.52,3.52,0,0,1-.66-.06,3.57,3.57,0,0,1-.56-.13,3.63,3.63,0,0,1-.42-.17.83.83,0,0,1-.24-.16.49.49,0,0,1-.12-.23,2.55,2.55,0,0,1,0-.47,2.63,2.63,0,0,1,0-.33.88.88,0,0,1,0-.2.2.2,0,0,1,.07-.1l.1,0a.52.52,0,0,1,.23.09l.37.19a3.62,3.62,0,0,0,.51.2,2.31,2.31,0,0,0,.67.09,1.38,1.38,0,0,0,.42,0,1,1,0,0,0,.31-.14.66.66,0,0,0,.21-.23.84.84,0,0,0,.07-.33.52.52,0,0,0-.13-.36,1.19,1.19,0,0,0-.34-.27l-.48-.21-.54-.22a5.6,5.6,0,0,1-.55-.27,2.56,2.56,0,0,1-.48-.39,1.63,1.63,0,0,1-.33-.54,2,2,0,0,1-.13-.76,2,2,0,0,1,.17-.83,1.77,1.77,0,0,1,.5-.65,2.38,2.38,0,0,1,.79-.42,3.41,3.41,0,0,1,1-.15,5.09,5.09,0,0,1,.56,0l.5.11a2.21,2.21,0,0,1,.37.14,1.27,1.27,0,0,1,.22.13.41.41,0,0,1,.09.1.5.5,0,0,1,0,.13q0,.08,0,.18c0,.08,0,.17,0,.28s0,.23,0,.31a.78.78,0,0,1,0,.19.13.13,0,0,1-.06.09.17.17,0,0,1-.1,0,.45.45,0,0,1-.19-.08l-.33-.16a3.56,3.56,0,0,0-.46-.15,2.1,2.1,0,0,0-.59-.08,1.64,1.64,0,0,0-.41,0A.74.74,0,0,0,48,57a.52.52,0,0,0-.17.22.58.58,0,0,0,0,.26.52.52,0,0,0,.13.37,1.14,1.14,0,0,0,.34.26,3.14,3.14,0,0,0,.49.21l.55.22c.19.08.37.17.56.27a2.23,2.23,0,0,1,.48.38,1.79,1.79,0,0,1,.35.54A1.9,1.9,0,0,1,50.81,60.51Z"/><path d="M53.58,62.29a.28.28,0,0,1,0,.13.37.37,0,0,1-.14.08.9.9,0,0,1-.27.06l-.42,0-.42,0A.83.83,0,0,1,52,62.5a.3.3,0,0,1-.14-.08.2.2,0,0,1,0-.13V56a.2.2,0,0,1,0-.13.42.42,0,0,1,.14-.09,1.31,1.31,0,0,1,.27-.05l.42,0,.42,0a1.46,1.46,0,0,1,.27.05.56.56,0,0,1,.14.09.28.28,0,0,1,0,.13Zm-.67-9.4.12-.14.17-.08a.93.93,0,0,1,.27-.05h.39l.5,0a.6.6,0,0,1,.26.09.12.12,0,0,1,.07.12.26.26,0,0,1-.07.15l-1.34,1.64-.11.11a.32.32,0,0,1-.14.08l-.22,0-.33,0a1.87,1.87,0,0,1-.38,0,.39.39,0,0,1-.2-.06.13.13,0,0,1,0-.12.34.34,0,0,1,.08-.16Z"/><path d="M63.65,59a.7.7,0,0,1-.15.49.5.5,0,0,1-.39.15H59.36a2.75,2.75,0,0,0,.09.73,1.3,1.3,0,0,0,.83.91,2.18,2.18,0,0,0,.77.12,3.84,3.84,0,0,0,.8-.07,5.39,5.39,0,0,0,.6-.14l.41-.15a.76.76,0,0,1,.27-.07.18.18,0,0,1,.11,0s0,0,.07.08a.48.48,0,0,1,0,.18,2.36,2.36,0,0,1,0,.3c0,.1,0,.19,0,.26s0,.14,0,.19a1,1,0,0,1,0,.13.39.39,0,0,1-.08.1.73.73,0,0,1-.24.14,5.27,5.27,0,0,1-.51.16,5.89,5.89,0,0,1-1.57.21,4.45,4.45,0,0,1-1.44-.22,2.51,2.51,0,0,1-1-.64,2.71,2.71,0,0,1-.62-1.09,5.43,5.43,0,0,1-.2-1.54,5.12,5.12,0,0,1,.21-1.52,3.15,3.15,0,0,1,.63-1.14,2.54,2.54,0,0,1,1-.72,3.27,3.27,0,0,1,1.32-.25,3.31,3.31,0,0,1,1.32.24,2.3,2.3,0,0,1,.9.64,2.64,2.64,0,0,1,.52,1,4.4,4.4,0,0,1,.17,1.23ZM62,58.45a1.88,1.88,0,0,0-.3-1.18,1.11,1.11,0,0,0-1-.43,1.2,1.2,0,0,0-1,.47,1.52,1.52,0,0,0-.25.51,2.52,2.52,0,0,0-.1.63Z"/><path d="M69.14,60.51a2.18,2.18,0,0,1-.2,1,1.85,1.85,0,0,1-.56.68,2.34,2.34,0,0,1-.85.42,4,4,0,0,1-1.06.14,3.52,3.52,0,0,1-.66-.06,4,4,0,0,1-.57-.13,3.41,3.41,0,0,1-.41-.17.83.83,0,0,1-.24-.16.49.49,0,0,1-.12-.23,1.89,1.89,0,0,1,0-.47,3,3,0,0,1,0-.33.88.88,0,0,1,0-.2.2.2,0,0,1,.07-.1l.11,0a.5.5,0,0,1,.22.09l.37.19a3.78,3.78,0,0,0,.52.2,2.19,2.19,0,0,0,.66.09,1.34,1.34,0,0,0,.42,0,1,1,0,0,0,.32-.14.55.55,0,0,0,.2-.23.7.7,0,0,0,.07-.33.52.52,0,0,0-.13-.36A1.14,1.14,0,0,0,67,60l-.48-.21L66,59.59a5.44,5.44,0,0,1-.54-.27,2.28,2.28,0,0,1-.48-.39,1.84,1.84,0,0,1-.34-.54,2,2,0,0,1-.13-.76,2,2,0,0,1,.17-.83,1.89,1.89,0,0,1,.5-.65,2.38,2.38,0,0,1,.79-.42,3.46,3.46,0,0,1,1-.15,5.27,5.27,0,0,1,.57,0c.18,0,.34.07.49.11a1.92,1.92,0,0,1,.37.14,1,1,0,0,1,.22.13.27.27,0,0,1,.09.1.5.5,0,0,1,.05.13c0,.05,0,.11,0,.18a2.35,2.35,0,0,1,0,.28,2.82,2.82,0,0,1,0,.31c0,.08,0,.14,0,.19s0,.08-.07.09a.17.17,0,0,1-.1,0,.51.51,0,0,1-.19-.08l-.33-.16a3.11,3.11,0,0,0-.46-.15,2.05,2.05,0,0,0-.59-.08,1.56,1.56,0,0,0-.4,0,.78.78,0,0,0-.29.14.5.5,0,0,0-.16.22.58.58,0,0,0-.06.26.52.52,0,0,0,.13.37,1.18,1.18,0,0,0,.35.26,2.49,2.49,0,0,0,.49.21l.55.22a5.6,5.6,0,0,1,.55.27,2.29,2.29,0,0,1,.49.38,1.77,1.77,0,0,1,.34.54A1.89,1.89,0,0,1,69.14,60.51Z"/><path d="M72.21,61.23a3.89,3.89,0,0,1,0,.51,2.85,2.85,0,0,1-.09.44,2,2,0,0,1-.16.4,2.49,2.49,0,0,1-.24.4l-.93,1.36-.11.12a.26.26,0,0,1-.14.07l-.2,0-.3,0-.32,0a.56.56,0,0,1-.18,0,.12.12,0,0,1-.06-.09.39.39,0,0,1,0-.14l.85-1.95V61.23a1.09,1.09,0,0,1,0-.39.48.48,0,0,1,.17-.22.82.82,0,0,1,.3-.11l.44,0,.41,0a.76.76,0,0,1,.29.11.43.43,0,0,1,.17.22A1.37,1.37,0,0,1,72.21,61.23Z"/><path d="M82.47,55.74a.45.45,0,0,1,.52.5v6a.28.28,0,0,1,0,.13.37.37,0,0,1-.14.08.9.9,0,0,1-.27.06l-.42,0-.42,0a.83.83,0,0,1-.27-.06.37.37,0,0,1-.14-.08.2.2,0,0,1,0-.13v-5.1H78.48v3a1.45,1.45,0,0,0,.16.77.58.58,0,0,0,.56.26l.25,0,.2-.06L79.8,61l.1,0L80,61a.14.14,0,0,1,.06.1,2,2,0,0,1,0,.21,2.58,2.58,0,0,1,0,.32,2.55,2.55,0,0,1,0,.47.41.41,0,0,1-.1.23.42.42,0,0,1-.18.13,1.1,1.1,0,0,1-.29.09,1.82,1.82,0,0,1-.35.06,2.55,2.55,0,0,1-.39,0,2.65,2.65,0,0,1-.89-.13,1.47,1.47,0,0,1-.63-.41,1.72,1.72,0,0,1-.37-.71,3.65,3.65,0,0,1-.12-1V57.19H76c-.09,0-.15-.06-.2-.17a1.69,1.69,0,0,1-.07-.55,3.16,3.16,0,0,1,0-.35.9.9,0,0,1,0-.22c0-.06,0-.1.09-.12a.21.21,0,0,1,.12,0h.73v-1.4a.28.28,0,0,1,0-.13.24.24,0,0,1,.14-.09.9.9,0,0,1,.27-.06l.42,0,.42,0a.83.83,0,0,1,.27.06.22.22,0,0,1,.18.22v1.4Zm.65-1.89a1,1,0,0,1-.21.74,1.13,1.13,0,0,1-.79.21,1.19,1.19,0,0,1-.8-.2,1,1,0,0,1-.2-.71,1.05,1.05,0,0,1,.21-.75,1.15,1.15,0,0,1,.8-.21,1.17,1.17,0,0,1,.79.2A1,1,0,0,1,83.12,53.85Z"/><path d="M90.15,59a.75.75,0,0,1-.14.49.53.53,0,0,1-.39.15H85.86a2.39,2.39,0,0,0,.1.73,1.42,1.42,0,0,0,.29.56,1.33,1.33,0,0,0,.53.35,2.18,2.18,0,0,0,.77.12,3.84,3.84,0,0,0,.8-.07,5.39,5.39,0,0,0,.6-.14l.42-.15a.67.67,0,0,1,.27-.07.17.17,0,0,1,.1,0s.05,0,.07.08a.8.8,0,0,1,0,.18,2.63,2.63,0,0,1,0,.3,2,2,0,0,1,0,.26.92.92,0,0,1,0,.19.4.4,0,0,1,0,.13.36.36,0,0,1-.07.1.7.7,0,0,1-.25.14,3.94,3.94,0,0,1-.51.16,5.48,5.48,0,0,1-.71.15,5.81,5.81,0,0,1-.86.06A4.45,4.45,0,0,1,86,62.48a2.47,2.47,0,0,1-1-.64,2.6,2.6,0,0,1-.62-1.09,5.08,5.08,0,0,1-.21-1.54,4.81,4.81,0,0,1,.22-1.52,3.13,3.13,0,0,1,.62-1.14,2.54,2.54,0,0,1,1-.72,3.68,3.68,0,0,1,2.64,0,2.3,2.3,0,0,1,.9.64,2.64,2.64,0,0,1,.52,1,4.4,4.4,0,0,1,.17,1.23Zm-1.69-.5a1.82,1.82,0,0,0-.29-1.18,1.12,1.12,0,0,0-1-.43,1.18,1.18,0,0,0-.58.13,1.23,1.23,0,0,0-.41.34,1.52,1.52,0,0,0-.25.51,3.07,3.07,0,0,0-.1.63Z"/><path d="M97.19,62.29a.28.28,0,0,1,0,.13.37.37,0,0,1-.14.08.83.83,0,0,1-.27.06l-.41,0-.43,0a.9.9,0,0,1-.27-.06.26.26,0,0,1-.13-.08.21.21,0,0,1,0-.13v-3.6a3.45,3.45,0,0,0-.06-.72,1.85,1.85,0,0,0-.19-.45.89.89,0,0,0-.32-.29,1,1,0,0,0-.46-.1,1.1,1.1,0,0,0-.67.25,3.46,3.46,0,0,0-.71.72v4.19a.2.2,0,0,1,0,.13.37.37,0,0,1-.14.08.9.9,0,0,1-.27.06l-.42,0-.42,0a.9.9,0,0,1-.27-.06.3.3,0,0,1-.14-.08.2.2,0,0,1,0-.13V56a.28.28,0,0,1,0-.13.48.48,0,0,1,.13-.09,1,1,0,0,1,.23-.05l.35,0,.37,0a1,1,0,0,1,.23.05.35.35,0,0,1,.11.09.28.28,0,0,1,0,.13v.72a3.91,3.91,0,0,1,1-.84,2.26,2.26,0,0,1,1.1-.29,2.41,2.41,0,0,1,1.06.21,2,2,0,0,1,.7.58,2.35,2.35,0,0,1,.38.85,5,5,0,0,1,.12,1.18Z"/><path d="M104.31,59a.75.75,0,0,1-.14.49.53.53,0,0,1-.39.15H100a2.39,2.39,0,0,0,.1.73,1.42,1.42,0,0,0,.29.56,1.4,1.4,0,0,0,.53.35,2.18,2.18,0,0,0,.77.12,3.78,3.78,0,0,0,.8-.07,5.39,5.39,0,0,0,.6-.14l.42-.15a.67.67,0,0,1,.27-.07.17.17,0,0,1,.1,0s0,0,.07.08a.8.8,0,0,1,0,.18,2.63,2.63,0,0,1,0,.3,2,2,0,0,1,0,.26.92.92,0,0,1,0,.19.4.4,0,0,1,0,.13.36.36,0,0,1-.07.1.7.7,0,0,1-.25.14,3.94,3.94,0,0,1-.51.16,5.48,5.48,0,0,1-.71.15,5.81,5.81,0,0,1-.86.06,4.45,4.45,0,0,1-1.44-.22,2.47,2.47,0,0,1-1-.64,2.6,2.6,0,0,1-.62-1.09,5.55,5.55,0,0,1,0-3.06,3.13,3.13,0,0,1,.62-1.14,2.54,2.54,0,0,1,1-.72,3.68,3.68,0,0,1,2.64,0,2.42,2.42,0,0,1,.91.64,2.78,2.78,0,0,1,.51,1,4.07,4.07,0,0,1,.17,1.23Zm-1.69-.5a1.82,1.82,0,0,0-.29-1.18,1.11,1.11,0,0,0-1-.43,1.18,1.18,0,0,0-.58.13,1.23,1.23,0,0,0-.41.34,1.52,1.52,0,0,0-.25.51,3.07,3.07,0,0,0-.1.63Z"/><path d="M118.19,62.29a.28.28,0,0,1,0,.13.37.37,0,0,1-.14.08.83.83,0,0,1-.26.06l-.43,0-.42,0a.9.9,0,0,1-.27-.06.3.3,0,0,1-.14-.08.28.28,0,0,1,0-.13V58.55a2.65,2.65,0,0,0-.06-.58,1.29,1.29,0,0,0-.18-.45.92.92,0,0,0-.3-.29.87.87,0,0,0-.44-.1,1,1,0,0,0-.63.25,4,4,0,0,0-.69.72v4.19a.2.2,0,0,1,0,.13.37.37,0,0,1-.14.08.9.9,0,0,1-.27.06l-.41,0-.43,0a.77.77,0,0,1-.26-.06.26.26,0,0,1-.14-.08.21.21,0,0,1,0-.13V58.55a2.67,2.67,0,0,0,0-.58,1.51,1.51,0,0,0-.18-.45.92.92,0,0,0-.3-.29.89.89,0,0,0-.44-.1,1,1,0,0,0-.64.25,3.69,3.69,0,0,0-.68.72v4.19a.2.2,0,0,1,0,.13.37.37,0,0,1-.14.08.9.9,0,0,1-.27.06l-.42,0-.42,0a.9.9,0,0,1-.27-.06.3.3,0,0,1-.14-.08.2.2,0,0,1,0-.13V56a.28.28,0,0,1,0-.13.36.36,0,0,1,.13-.09,1,1,0,0,1,.23-.05l.35,0,.37,0a.8.8,0,0,1,.22.05.31.31,0,0,1,.12.09.28.28,0,0,1,0,.13v.72a4,4,0,0,1,1-.84,2.18,2.18,0,0,1,1.07-.29,2.82,2.82,0,0,1,.68.08,2.21,2.21,0,0,1,.54.24,1.59,1.59,0,0,1,.41.36,1.66,1.66,0,0,1,.29.48,5.36,5.36,0,0,1,.55-.53,3.16,3.16,0,0,1,.52-.35,2.46,2.46,0,0,1,.52-.21,2.43,2.43,0,0,1,1.57.14,1.93,1.93,0,0,1,.68.58,2.52,2.52,0,0,1,.37.85,5,5,0,0,1,.11,1Z"/><path d="M125.46,62.29a.28.28,0,0,1,0,.13.23.23,0,0,1-.12.08.7.7,0,0,1-.23.06l-.36,0-.37,0a.58.58,0,0,1-.22-.06.23.23,0,0,1-.12-.08.28.28,0,0,1,0-.13v-.73a4.1,4.1,0,0,1-1,.85,2.32,2.32,0,0,1-1.1.29,2.46,2.46,0,0,1-1.07-.22,1.81,1.81,0,0,1-.7-.58,2.54,2.54,0,0,1-.38-.85,5.7,5.7,0,0,1-.11-1.2V56a.2.2,0,0,1,0-.13.36.36,0,0,1,.13-.09,1.46,1.46,0,0,1,.27-.05l.42,0,.43,0a1.33,1.33,0,0,1,.26.05.33.33,0,0,1,.14.09.2.2,0,0,1,0,.13v3.56a3,3,0,0,0,.07.76,1.18,1.18,0,0,0,.19.44.74.74,0,0,0,.32.29,1,1,0,0,0,.46.11,1.12,1.12,0,0,0,.67-.25,4,4,0,0,0,.71-.72V56a.28.28,0,0,1,0-.13.42.42,0,0,1,.14-.09,1.46,1.46,0,0,1,.27-.05l.42,0,.42,0a1.2,1.2,0,0,1,.26.05.42.42,0,0,1,.14.09.2.2,0,0,1,0,.13Z"/><path d="M131.6,61.29c0,.12,0,.22,0,.31s0,.15,0,.2a.84.84,0,0,1,0,.14.92.92,0,0,1-.11.14,2.36,2.36,0,0,1-.28.2,4,4,0,0,1-.46.2,4.14,4.14,0,0,1-.56.15,3.11,3.11,0,0,1-.62.06,3.33,3.33,0,0,1-1.26-.23,2.36,2.36,0,0,1-.92-.67,2.8,2.8,0,0,1-.56-1.07,5.84,5.84,0,0,1,0-3.1,3.14,3.14,0,0,1,.64-1.14,2.6,2.6,0,0,1,1-.67,3.39,3.39,0,0,1,1.25-.22,3.19,3.19,0,0,1,.54,0,2.87,2.87,0,0,1,.92.32,1.22,1.22,0,0,1,.25.19.4.4,0,0,1,.11.13.38.38,0,0,1,.05.14s0,.12,0,.21a2.63,2.63,0,0,1,0,.3,1.79,1.79,0,0,1-.07.57c-.05.11-.11.17-.18.17a.4.4,0,0,1-.25-.1l-.31-.22a2.45,2.45,0,0,0-.43-.22,1.73,1.73,0,0,0-.59-.1,1.17,1.17,0,0,0-1,.54,2.77,2.77,0,0,0-.36,1.56,4,4,0,0,0,.09.9,1.85,1.85,0,0,0,.27.65,1,1,0,0,0,.44.39,1.35,1.35,0,0,0,.62.13,1.49,1.49,0,0,0,.62-.11,2.38,2.38,0,0,0,.45-.24l.32-.24a.35.35,0,0,1,.22-.11.18.18,0,0,1,.11,0,.23.23,0,0,1,.06.13,1.45,1.45,0,0,1,0,.25A3.63,3.63,0,0,1,131.6,61.29Z"/><path d="M138.46,62.29a.2.2,0,0,1,0,.13.3.3,0,0,1-.14.08.77.77,0,0,1-.26.06l-.42,0-.43,0a.77.77,0,0,1-.26-.06.3.3,0,0,1-.14-.08.2.2,0,0,1,0-.13v-3.6a3.35,3.35,0,0,0-.07-.72,1.53,1.53,0,0,0-.19-.45.89.89,0,0,0-.32-.29,1,1,0,0,0-.46-.1,1.12,1.12,0,0,0-.67.25,3.46,3.46,0,0,0-.71.72v4.19a.2.2,0,0,1,0,.13.26.26,0,0,1-.14.08.9.9,0,0,1-.27.06l-.42,0-.42,0a.9.9,0,0,1-.27-.06.37.37,0,0,1-.14-.08.2.2,0,0,1,0-.13V53a.19.19,0,0,1,0-.12.39.39,0,0,1,.14-.1l.27-.06.42,0,.42,0,.27.06a.27.27,0,0,1,.14.1.19.19,0,0,1,0,.12v3.49a3.21,3.21,0,0,1,.92-.67,2.23,2.23,0,0,1,1-.23,2.41,2.41,0,0,1,1.06.21,2,2,0,0,1,.7.58,2.31,2.31,0,0,1,.38.86,5.13,5.13,0,0,1,.12,1.19Z"/><path d="M145.14,62.31a.19.19,0,0,1-.07.16.46.46,0,0,1-.22.08,2.24,2.24,0,0,1-.43,0,2.54,2.54,0,0,1-.46,0,.42.42,0,0,1-.2-.08.21.21,0,0,1-.06-.16v-.5a2.68,2.68,0,0,1-.86.65,2.45,2.45,0,0,1-1.09.24,3.26,3.26,0,0,1-.9-.13,2.13,2.13,0,0,1-.71-.39,1.87,1.87,0,0,1-.47-.64,2.28,2.28,0,0,1-.16-.89,2.06,2.06,0,0,1,.21-1,1.69,1.69,0,0,1,.63-.67,3.09,3.09,0,0,1,1-.4,7.6,7.6,0,0,1,1.44-.12h.6v-.39a2.06,2.06,0,0,0-.06-.52.77.77,0,0,0-.55-.59,2.11,2.11,0,0,0-.55-.07,3,3,0,0,0-.78.1,5.31,5.31,0,0,0-.61.22l-.44.22a.56.56,0,0,1-.28.1.24.24,0,0,1-.14,0,.39.39,0,0,1-.1-.14,1.14,1.14,0,0,1,0-.23,1.37,1.37,0,0,1,0-.29,1.56,1.56,0,0,1,0-.35.53.53,0,0,1,.13-.23,1.62,1.62,0,0,1,.34-.23,4,4,0,0,1,.57-.23,5.71,5.71,0,0,1,.71-.17,5,5,0,0,1,.79-.07,4.48,4.48,0,0,1,1.24.15,2.08,2.08,0,0,1,.85.44A1.72,1.72,0,0,1,145,57a3.7,3.7,0,0,1,.15,1.12Zm-1.71-2.7h-.66a3,3,0,0,0-.72.07,1.18,1.18,0,0,0-.48.19.73.73,0,0,0-.28.3,1.08,1.08,0,0,0-.08.42.81.81,0,0,0,.24.62,1,1,0,0,0,.68.23,1.34,1.34,0,0,0,.68-.19,3.1,3.1,0,0,0,.62-.56Z"/><path d="M150.94,60.51a2.18,2.18,0,0,1-.2,1,1.85,1.85,0,0,1-.56.68,2.34,2.34,0,0,1-.85.42,4,4,0,0,1-1.06.14,3.52,3.52,0,0,1-.66-.06,4,4,0,0,1-.57-.13,3.41,3.41,0,0,1-.41-.17.83.83,0,0,1-.24-.16.49.49,0,0,1-.12-.23,1.89,1.89,0,0,1,0-.47,3,3,0,0,1,0-.33.88.88,0,0,1,0-.2.2.2,0,0,1,.07-.1l.11,0a.5.5,0,0,1,.22.09l.37.19a3.78,3.78,0,0,0,.52.2,2.19,2.19,0,0,0,.66.09,1.34,1.34,0,0,0,.42,0,1,1,0,0,0,.32-.14.55.55,0,0,0,.2-.23.7.7,0,0,0,.07-.33.52.52,0,0,0-.13-.36,1.14,1.14,0,0,0-.33-.27l-.48-.21-.55-.22a5.44,5.44,0,0,1-.54-.27,2.28,2.28,0,0,1-.48-.39,1.84,1.84,0,0,1-.34-.54,2,2,0,0,1-.13-.76,2,2,0,0,1,.17-.83,1.89,1.89,0,0,1,.5-.65,2.38,2.38,0,0,1,.79-.42,3.46,3.46,0,0,1,1.05-.15,5.27,5.27,0,0,1,.57,0c.18,0,.34.07.49.11a1.92,1.92,0,0,1,.37.14,1,1,0,0,1,.22.13.27.27,0,0,1,.09.1.5.5,0,0,1,.05.13c0,.05,0,.11,0,.18a2.35,2.35,0,0,1,0,.28,2.82,2.82,0,0,1,0,.31c0,.08,0,.14,0,.19s0,.08-.07.09a.17.17,0,0,1-.1,0,.51.51,0,0,1-.19-.08l-.33-.16a3.11,3.11,0,0,0-.46-.15,2.05,2.05,0,0,0-.59-.08,1.56,1.56,0,0,0-.4,0,.78.78,0,0,0-.29.14.5.5,0,0,0-.16.22.58.58,0,0,0-.06.26.52.52,0,0,0,.13.37,1.18,1.18,0,0,0,.35.26,2.49,2.49,0,0,0,.49.21l.55.22a5.6,5.6,0,0,1,.55.27,2.29,2.29,0,0,1,.49.38,1.77,1.77,0,0,1,.34.54A1.89,1.89,0,0,1,150.94,60.51Z"/><path d="M52.62,67.82a3,3,0,0,1,0,.33.69.69,0,0,1,0,.19.17.17,0,0,1-.06.09.13.13,0,0,1-.08,0l-.11,0-.14-.05-.21,0a1.06,1.06,0,0,0-.27,0,.81.81,0,0,0-.33.06.66.66,0,0,0-.22.19,1,1,0,0,0-.13.34,2.55,2.55,0,0,0,0,.52V70H52.1a.24.24,0,0,1,.12,0,.31.31,0,0,1,.09.12.9.9,0,0,1,0,.22c0,.09,0,.21,0,.35a1.76,1.76,0,0,1-.06.55c-.05.11-.12.17-.21.17H51v5.1a.28.28,0,0,1,0,.13.37.37,0,0,1-.14.08.9.9,0,0,1-.27.06l-.42,0-.42,0a.9.9,0,0,1-.27-.06.3.3,0,0,1-.14-.08.2.2,0,0,1,0-.13v-5.1h-.77a.22.22,0,0,1-.2-.17,1.69,1.69,0,0,1-.07-.55,3.16,3.16,0,0,1,0-.35.9.9,0,0,1,.05-.22.23.23,0,0,1,.08-.12.27.27,0,0,1,.12,0h.77v-.54a4.2,4.2,0,0,1,.13-1.12,2,2,0,0,1,.39-.81,1.65,1.65,0,0,1,.67-.48,2.64,2.64,0,0,1,1-.17,2.76,2.76,0,0,1,.51,0,1.85,1.85,0,0,1,.38.1.65.65,0,0,1,.19.1.32.32,0,0,1,.07.13,1.14,1.14,0,0,1,0,.23C52.62,67.57,52.62,67.69,52.62,67.82Z"/><path d="M59,76.53a.28.28,0,0,1,0,.13.32.32,0,0,1-.13.08.58.58,0,0,1-.22.06l-.36,0-.37,0a.58.58,0,0,1-.22-.06.23.23,0,0,1-.12-.08.28.28,0,0,1,0-.13V75.8a3.78,3.78,0,0,1-1,.85,2.42,2.42,0,0,1-2.16.07,1.81,1.81,0,0,1-.7-.58,2.28,2.28,0,0,1-.38-.85,5.11,5.11,0,0,1-.11-1.2V70.23a.28.28,0,0,1,0-.13.56.56,0,0,1,.14-.09,1.46,1.46,0,0,1,.27-.05l.42,0,.42,0a1.46,1.46,0,0,1,.27.05.42.42,0,0,1,.14.09.2.2,0,0,1,0,.13v3.56a3.68,3.68,0,0,0,.06.76,1.62,1.62,0,0,0,.19.44.83.83,0,0,0,.33.29,1,1,0,0,0,.46.11,1.12,1.12,0,0,0,.67-.25,4,4,0,0,0,.71-.72V70.23a.2.2,0,0,1,0-.13A.42.42,0,0,1,57.4,70a1.2,1.2,0,0,1,.26-.05l.43,0,.42,0a1.2,1.2,0,0,1,.26.05.56.56,0,0,1,.14.09.2.2,0,0,1,0,.13Z"/><path d="M66.31,76.53a.28.28,0,0,1,0,.13.37.37,0,0,1-.14.08.9.9,0,0,1-.27.06l-.42,0-.42,0a.83.83,0,0,1-.27-.06.37.37,0,0,1-.14-.08.28.28,0,0,1,0-.13v-3.6a3.45,3.45,0,0,0-.06-.72,1.85,1.85,0,0,0-.19-.45.92.92,0,0,0-.33-.29,1.08,1.08,0,0,0-.46-.1,1.12,1.12,0,0,0-.67.25,3.45,3.45,0,0,0-.7.72v4.19a.28.28,0,0,1,0,.13.37.37,0,0,1-.14.08.9.9,0,0,1-.27.06l-.42,0-.42,0a.83.83,0,0,1-.27-.06.3.3,0,0,1-.14-.08.2.2,0,0,1,0-.13v-6.3a.28.28,0,0,1,0-.13.36.36,0,0,1,.13-.09.89.89,0,0,1,.23-.05l.35,0,.37,0a.8.8,0,0,1,.22.05.41.41,0,0,1,.12.09.28.28,0,0,1,0,.13V71a3.88,3.88,0,0,1,1-.84,2.33,2.33,0,0,1,1.11-.29,2.41,2.41,0,0,1,1.06.21,2,2,0,0,1,.7.58,2.54,2.54,0,0,1,.38.85,5,5,0,0,1,.12,1.18Z"/><path d="M72.4,75.53a2.91,2.91,0,0,1,0,.31c0,.08,0,.15,0,.2a.84.84,0,0,1,0,.14.54.54,0,0,1-.11.14,1.73,1.73,0,0,1-.28.2,3.73,3.73,0,0,1-1,.35A3.45,3.45,0,0,1,69,76.7a2.32,2.32,0,0,1-.93-.67A2.8,2.8,0,0,1,67.55,75a5,5,0,0,1-.19-1.46,5.32,5.32,0,0,1,.23-1.64,3,3,0,0,1,.65-1.14,2.56,2.56,0,0,1,1-.67A3.42,3.42,0,0,1,71,69.88a3.51,3.51,0,0,1,.49.13,2.76,2.76,0,0,1,.42.19,2,2,0,0,1,.26.19l.11.13a.39.39,0,0,1,0,.14s0,.12,0,.21a2.63,2.63,0,0,1,0,.3,1.54,1.54,0,0,1-.07.57c0,.11-.1.17-.18.17a.4.4,0,0,1-.25-.1,3.2,3.2,0,0,0-.31-.22,2.45,2.45,0,0,0-.43-.22,1.69,1.69,0,0,0-.59-.1,1.18,1.18,0,0,0-1,.54,2.77,2.77,0,0,0-.36,1.56,4,4,0,0,0,.09.9,1.85,1.85,0,0,0,.27.65,1,1,0,0,0,.44.39,1.35,1.35,0,0,0,.62.13,1.46,1.46,0,0,0,.62-.11,2.38,2.38,0,0,0,.45-.24l.33-.24a.33.33,0,0,1,.22-.11.17.17,0,0,1,.1,0,.32.32,0,0,1,.07.13,1.56,1.56,0,0,1,0,.25A3.63,3.63,0,0,1,72.4,75.53Z"/><path d="M75.25,68.09a1,1,0,0,1-.22.74,1.12,1.12,0,0,1-.79.21,1.16,1.16,0,0,1-.79-.2,1,1,0,0,1-.21-.71,1.05,1.05,0,0,1,.21-.75,1.15,1.15,0,0,1,.8-.21,1.17,1.17,0,0,1,.79.2A1,1,0,0,1,75.25,68.09Zm-.13,8.44a.28.28,0,0,1,0,.13.35.35,0,0,1-.15.08.77.77,0,0,1-.26.06l-.42,0-.43,0a.77.77,0,0,1-.26-.06.26.26,0,0,1-.14-.08.21.21,0,0,1,0-.13V70.24a.17.17,0,0,1,0-.12.27.27,0,0,1,.14-.1l.26-.06.43,0,.42,0,.26.06a.36.36,0,0,1,.15.1.21.21,0,0,1,0,.12Z"/><path d="M82.81,73.32a4.93,4.93,0,0,1-.21,1.47A3.16,3.16,0,0,1,82,75.93a2.78,2.78,0,0,1-1.06.74,3.78,3.78,0,0,1-1.49.27A3.93,3.93,0,0,1,78,76.7,2.54,2.54,0,0,1,77,76a2.86,2.86,0,0,1-.59-1.09,5.23,5.23,0,0,1-.19-1.49A4.88,4.88,0,0,1,76.41,72,3.13,3.13,0,0,1,77,70.82a2.85,2.85,0,0,1,1-.74,4,4,0,0,1,1.49-.26,4.08,4.08,0,0,1,1.43.23,2.51,2.51,0,0,1,1,.68,2.8,2.8,0,0,1,.59,1.09A5.24,5.24,0,0,1,82.81,73.32Zm-1.8.07a4.61,4.61,0,0,0-.07-.86,2.18,2.18,0,0,0-.24-.68,1.27,1.27,0,0,0-.46-.46,1.49,1.49,0,0,0-.73-.16,1.57,1.57,0,0,0-.67.14,1.17,1.17,0,0,0-.48.43,2.15,2.15,0,0,0-.28.67,4,4,0,0,0-.09.9,4.5,4.5,0,0,0,.07.85,2,2,0,0,0,.25.69,1.17,1.17,0,0,0,.46.45,1.54,1.54,0,0,0,.72.15,1.45,1.45,0,0,0,.68-.14,1.38,1.38,0,0,0,.48-.42,2,2,0,0,0,.27-.67A4,4,0,0,0,81,73.39Z"/><path d="M89.79,76.53a.2.2,0,0,1,0,.13.37.37,0,0,1-.14.08.83.83,0,0,1-.27.06l-.41,0-.43,0a.9.9,0,0,1-.27-.06.26.26,0,0,1-.13-.08.21.21,0,0,1,0-.13v-3.6a3.45,3.45,0,0,0-.06-.72,1.85,1.85,0,0,0-.19-.45.89.89,0,0,0-.32-.29,1.11,1.11,0,0,0-.46-.1,1.1,1.1,0,0,0-.67.25,3.46,3.46,0,0,0-.71.72v4.19a.2.2,0,0,1,0,.13.37.37,0,0,1-.14.08.9.9,0,0,1-.27.06l-.42,0-.42,0a.9.9,0,0,1-.27-.06.3.3,0,0,1-.14-.08.2.2,0,0,1,0-.13v-6.3a.28.28,0,0,1,0-.13.48.48,0,0,1,.13-.09,1,1,0,0,1,.23-.05l.36,0L85,70a1,1,0,0,1,.23.05.35.35,0,0,1,.11.09.28.28,0,0,1,0,.13V71a3.91,3.91,0,0,1,1.05-.84,2.29,2.29,0,0,1,1.1-.29,2.41,2.41,0,0,1,1.06.21,2,2,0,0,1,.7.58,2.35,2.35,0,0,1,.38.85,5,5,0,0,1,.12,1.18Z"/><path d="M96.47,76.55a.19.19,0,0,1-.07.16.51.51,0,0,1-.22.08,2.36,2.36,0,0,1-.44,0,2.41,2.41,0,0,1-.45,0,.42.42,0,0,1-.2-.08.21.21,0,0,1-.06-.16v-.5a2.61,2.61,0,0,1-.87.65,2.38,2.38,0,0,1-1.08.24,3.15,3.15,0,0,1-.9-.13,2,2,0,0,1-.71-.39,1.87,1.87,0,0,1-.47-.64,2.28,2.28,0,0,1-.17-.89,2.06,2.06,0,0,1,.21-1,1.76,1.76,0,0,1,.63-.67,3.18,3.18,0,0,1,1-.4,7.79,7.79,0,0,1,1.45-.12h.6v-.39a2.06,2.06,0,0,0-.06-.52.93.93,0,0,0-.19-.37.81.81,0,0,0-.36-.22,2.19,2.19,0,0,0-.56-.07,3.08,3.08,0,0,0-.78.1,5.11,5.11,0,0,0-.6.22l-.44.22a.59.59,0,0,1-.29.1.21.21,0,0,1-.13,0,.39.39,0,0,1-.1-.14c0-.06,0-.14-.06-.23a2.64,2.64,0,0,1,0-.29,1.08,1.08,0,0,1,0-.35.45.45,0,0,1,.13-.23,1.39,1.39,0,0,1,.34-.23,4.32,4.32,0,0,1,.56-.23,6.72,6.72,0,0,1,.71-.17,5.18,5.18,0,0,1,.8-.07A4.53,4.53,0,0,1,95,70a2,2,0,0,1,.84.44,1.74,1.74,0,0,1,.49.78,3.7,3.7,0,0,1,.15,1.12Zm-1.71-2.7H94.1a3,3,0,0,0-.72.07,1.29,1.29,0,0,0-.49.19.77.77,0,0,0-.27.3.93.93,0,0,0-.09.42.82.82,0,0,0,.25.62,1,1,0,0,0,.68.23,1.37,1.37,0,0,0,.68-.19,3.1,3.1,0,0,0,.62-.56Z"/><path d="M99.66,76.53a.2.2,0,0,1,0,.13.3.3,0,0,1-.14.08.9.9,0,0,1-.27.06l-.42,0-.42,0a.9.9,0,0,1-.27-.06.37.37,0,0,1-.14-.08.2.2,0,0,1,0-.13V67.24a.2.2,0,0,1,0-.13.39.39,0,0,1,.14-.1l.27-.06.42,0,.42,0,.27.06a.32.32,0,0,1,.14.1.2.2,0,0,1,0,.13Z"/><path d="M103,68.09a1,1,0,0,1-.22.74A1.12,1.12,0,0,1,102,69a1.16,1.16,0,0,1-.79-.2,1,1,0,0,1-.21-.71,1,1,0,0,1,.22-.75,1.1,1.1,0,0,1,.79-.21,1.17,1.17,0,0,1,.79.2A1,1,0,0,1,103,68.09Zm-.13,8.44a.28.28,0,0,1,0,.13.35.35,0,0,1-.15.08.77.77,0,0,1-.26.06l-.42,0-.43,0a.83.83,0,0,1-.26-.06.26.26,0,0,1-.14-.08.2.2,0,0,1,0-.13V70.24a.16.16,0,0,1,0-.12.27.27,0,0,1,.14-.1l.26-.06.43,0,.42,0,.26.06a.36.36,0,0,1,.15.1.21.21,0,0,1,0,.12Z"/><path d="M110.16,76.53a.18.18,0,0,1,0,.13.2.2,0,0,1-.11.09.66.66,0,0,1-.23,0l-.35,0-.36,0a.65.65,0,0,1-.22,0,.25.25,0,0,1-.13-.09.25.25,0,0,1,0-.13v-.7a4.15,4.15,0,0,1-1,.82,2.56,2.56,0,0,1-2.35,0,2.33,2.33,0,0,1-.8-.76,3.29,3.29,0,0,1-.44-1.1,5.86,5.86,0,0,1-.14-1.34,6.34,6.34,0,0,1,.17-1.51,3.33,3.33,0,0,1,.52-1.14,2.26,2.26,0,0,1,.84-.73,2.57,2.57,0,0,1,1.16-.26,2,2,0,0,1,.94.22,3.29,3.29,0,0,1,.84.63V67.26a.2.2,0,0,1,0-.13.27.27,0,0,1,.14-.1l.26-.06.42,0,.43,0L110,67a.39.39,0,0,1,.14.1.2.2,0,0,1,0,.13Zm-1.73-4.21a3.92,3.92,0,0,0-.72-.74,1.14,1.14,0,0,0-.71-.25,1,1,0,0,0-.59.17A1.3,1.3,0,0,0,106,72a2.41,2.41,0,0,0-.22.64,3.54,3.54,0,0,0-.07.73,4.93,4.93,0,0,0,.06.78,2.44,2.44,0,0,0,.2.66,1.2,1.2,0,0,0,.38.47,1,1,0,0,0,.59.18,1.34,1.34,0,0,0,.35-.05,1.46,1.46,0,0,0,.35-.18,2,2,0,0,0,.36-.31,5.57,5.57,0,0,0,.41-.48Z"/><path d="M116.88,76.55a.19.19,0,0,1-.07.16.51.51,0,0,1-.22.08,2.36,2.36,0,0,1-.44,0,2.49,2.49,0,0,1-.45,0,.42.42,0,0,1-.2-.08.21.21,0,0,1-.06-.16v-.5a2.61,2.61,0,0,1-.87.65,2.38,2.38,0,0,1-1.08.24,3.15,3.15,0,0,1-.9-.13,2.13,2.13,0,0,1-.71-.39,1.87,1.87,0,0,1-.47-.64,2.28,2.28,0,0,1-.16-.89,2.06,2.06,0,0,1,.21-1,1.73,1.73,0,0,1,.62-.67,3.15,3.15,0,0,1,1-.4,7.6,7.6,0,0,1,1.44-.12h.6v-.39a2.06,2.06,0,0,0-.06-.52.93.93,0,0,0-.19-.37.81.81,0,0,0-.36-.22,2.19,2.19,0,0,0-.56-.07,2.94,2.94,0,0,0-.77.1,5.31,5.31,0,0,0-.61.22c-.17.08-.32.15-.44.22a.59.59,0,0,1-.29.1.21.21,0,0,1-.13,0,.39.39,0,0,1-.1-.14c0-.06,0-.14-.06-.23a2.64,2.64,0,0,1,0-.29,1.08,1.08,0,0,1,0-.35.45.45,0,0,1,.13-.23,1.39,1.39,0,0,1,.34-.23,4,4,0,0,1,.57-.23,6,6,0,0,1,.7-.17,5.18,5.18,0,0,1,.8-.07,4.53,4.53,0,0,1,1.24.15,2,2,0,0,1,.84.44,1.74,1.74,0,0,1,.49.78,3.7,3.7,0,0,1,.15,1.12Zm-1.71-2.7h-.66a3,3,0,0,0-.72.07,1.18,1.18,0,0,0-.48.19.73.73,0,0,0-.28.3.93.93,0,0,0-.08.42.81.81,0,0,0,.24.62,1,1,0,0,0,.68.23,1.34,1.34,0,0,0,.68-.19,3.1,3.1,0,0,0,.62-.56Z"/><path d="M124.18,76.53a.25.25,0,0,1,0,.13.27.27,0,0,1-.12.09.66.66,0,0,1-.23,0l-.34,0-.36,0a.66.66,0,0,1-.23,0,.19.19,0,0,1-.12-.09.18.18,0,0,1,0-.13v-.7a4.15,4.15,0,0,1-1,.82,2.38,2.38,0,0,1-1.16.29,2.41,2.41,0,0,1-1.19-.28,2.33,2.33,0,0,1-.8-.76,3.29,3.29,0,0,1-.44-1.1,6.48,6.48,0,0,1-.14-1.34,5.84,5.84,0,0,1,.18-1.51,3.32,3.32,0,0,1,.51-1.14,2.34,2.34,0,0,1,.84-.73,2.58,2.58,0,0,1,1.17-.26,2,2,0,0,1,.94.22,3.09,3.09,0,0,1,.83.63V67.26a.28.28,0,0,1,0-.13.32.32,0,0,1,.14-.1l.27-.06.42,0,.42,0L124,67a.32.32,0,0,1,.14.1.2.2,0,0,1,0,.13Zm-1.73-4.21a3.91,3.91,0,0,0-.71-.74,1.19,1.19,0,0,0-.72-.25,1,1,0,0,0-.58.17,1.23,1.23,0,0,0-.4.47,2.41,2.41,0,0,0-.22.64,3.54,3.54,0,0,0-.07.73,4.93,4.93,0,0,0,.06.78,2.13,2.13,0,0,0,.21.66,1.18,1.18,0,0,0,.37.47,1,1,0,0,0,.6.18,1.41,1.41,0,0,0,.35-.05,1.61,1.61,0,0,0,.34-.18,2,2,0,0,0,.36-.31,4.22,4.22,0,0,0,.41-.48Z"/><path d="M131.34,73.2a.69.69,0,0,1-.14.48.5.5,0,0,1-.39.15h-3.75a2.75,2.75,0,0,0,.09.73,1.32,1.32,0,0,0,.3.56,1.2,1.2,0,0,0,.52.35,2.28,2.28,0,0,0,.78.12,4.74,4.74,0,0,0,.8-.06l.6-.15.41-.15a.67.67,0,0,1,.27-.07.2.2,0,0,1,.11,0,.19.19,0,0,1,.07.08.84.84,0,0,1,0,.18,2.63,2.63,0,0,1,0,.3V76c0,.08,0,.14,0,.19a1,1,0,0,1,0,.13.39.39,0,0,1-.08.1.73.73,0,0,1-.24.14,5.27,5.27,0,0,1-.51.16,5.89,5.89,0,0,1-1.57.21,4.29,4.29,0,0,1-1.45-.22,2.54,2.54,0,0,1-1-.64,2.71,2.71,0,0,1-.62-1.09,5.43,5.43,0,0,1-.2-1.54,5.12,5.12,0,0,1,.21-1.52,3.29,3.29,0,0,1,.62-1.14,2.76,2.76,0,0,1,1-.72,3.44,3.44,0,0,1,1.31-.25,3.33,3.33,0,0,1,1.33.24,2.38,2.38,0,0,1,.9.64,2.64,2.64,0,0,1,.52,1,4.41,4.41,0,0,1,.16,1.23Zm-1.68-.51a1.88,1.88,0,0,0-.3-1.18,1.11,1.11,0,0,0-1-.43,1.2,1.2,0,0,0-1,.47,1.73,1.73,0,0,0-.25.51,2.52,2.52,0,0,0-.1.63Z"/><path d="M136.84,74.75a2.18,2.18,0,0,1-.2,1,1.85,1.85,0,0,1-.56.68,2.34,2.34,0,0,1-.85.42,4,4,0,0,1-1.06.14,3.52,3.52,0,0,1-.66-.06,4,4,0,0,1-.57-.13,3.41,3.41,0,0,1-.41-.17.83.83,0,0,1-.24-.16.49.49,0,0,1-.12-.23,1.89,1.89,0,0,1,0-.47,3,3,0,0,1,0-.33.88.88,0,0,1,0-.2.2.2,0,0,1,.07-.1l.11,0a.5.5,0,0,1,.22.09l.37.19a4.18,4.18,0,0,0,.51.2,2.31,2.31,0,0,0,.67.09,1.34,1.34,0,0,0,.42,0,1,1,0,0,0,.32-.14.55.55,0,0,0,.2-.23.7.7,0,0,0,.07-.33.52.52,0,0,0-.13-.36,1.07,1.07,0,0,0-.34-.27l-.47-.21c-.18-.06-.36-.14-.55-.22a4.53,4.53,0,0,1-.54-.27,2,2,0,0,1-.48-.39,1.66,1.66,0,0,1-.34-.54,2,2,0,0,1-.13-.76,2,2,0,0,1,.17-.83,1.89,1.89,0,0,1,.5-.65,2.38,2.38,0,0,1,.79-.42,3.41,3.41,0,0,1,1-.15,3.55,3.55,0,0,1,.57.05,3.26,3.26,0,0,1,.49.1,1.92,1.92,0,0,1,.37.14,1,1,0,0,1,.22.13.27.27,0,0,1,.09.1.28.28,0,0,1,0,.13s0,.11,0,.18a2.35,2.35,0,0,1,0,.28,2.82,2.82,0,0,1,0,.31c0,.08,0,.14,0,.19s0,.08-.07.09a.17.17,0,0,1-.1,0,.51.51,0,0,1-.19-.08l-.33-.16a3.11,3.11,0,0,0-.46-.15,2.1,2.1,0,0,0-.59-.08,1.7,1.7,0,0,0-.41,0,.74.74,0,0,0-.28.14.57.57,0,0,0-.16.22.58.58,0,0,0-.06.26.52.52,0,0,0,.13.37,1.07,1.07,0,0,0,.35.26,2.67,2.67,0,0,0,.48.21l.56.22c.18.08.37.17.55.27a2.29,2.29,0,0,1,.49.38,1.87,1.87,0,0,1,.48,1.29Z"/><path d="M139.91,75.47a4.17,4.17,0,0,1,0,.52,3,3,0,0,1-.09.43,2.78,2.78,0,0,1-.16.4,3.52,3.52,0,0,1-.24.4l-.93,1.36-.11.12a.31.31,0,0,1-.14.07.83.83,0,0,1-.2,0l-.3,0-.32,0a.56.56,0,0,1-.18,0,.12.12,0,0,1-.06-.09.39.39,0,0,1,0-.14l.85-2V75.47a1.09,1.09,0,0,1,.05-.39.43.43,0,0,1,.17-.22.82.82,0,0,1,.3-.11l.44,0,.41,0a.76.76,0,0,1,.29.11.41.41,0,0,1,.16.22A1.07,1.07,0,0,1,139.91,75.47Z"/><path d="M47.64,90.77a.17.17,0,0,1,0,.13.2.2,0,0,1-.11.09.66.66,0,0,1-.23.05l-.35,0-.36,0a.65.65,0,0,1-.22-.05.25.25,0,0,1-.13-.09.23.23,0,0,1,0-.13v-.7a4.35,4.35,0,0,1-1,.82,2.56,2.56,0,0,1-2.35,0,2.33,2.33,0,0,1-.8-.76,3.29,3.29,0,0,1-.44-1.1,5.8,5.8,0,0,1-.14-1.34,6.34,6.34,0,0,1,.17-1.51,3.33,3.33,0,0,1,.52-1.14,2.19,2.19,0,0,1,.84-.73,2.57,2.57,0,0,1,1.16-.26,2,2,0,0,1,.94.22,3.29,3.29,0,0,1,.84.63V81.5a.2.2,0,0,1,0-.13.27.27,0,0,1,.14-.1l.26-.06.42,0,.43,0,.26.06a.39.39,0,0,1,.14.1.28.28,0,0,1,0,.13Zm-1.73-4.21a3.92,3.92,0,0,0-.72-.74,1.14,1.14,0,0,0-.71-.25,1,1,0,0,0-.59.17,1.3,1.3,0,0,0-.39.47,2.41,2.41,0,0,0-.22.64,3.54,3.54,0,0,0-.07.73,4.93,4.93,0,0,0,.06.78,2.44,2.44,0,0,0,.2.66,1.2,1.2,0,0,0,.38.47.94.94,0,0,0,.59.18,1.34,1.34,0,0,0,.35,0,1.46,1.46,0,0,0,.35-.18,2,2,0,0,0,.36-.31,5.57,5.57,0,0,0,.41-.48Z"/><path d="M54.8,87.44a.74.74,0,0,1-.14.48.5.5,0,0,1-.39.15H50.52a2.75,2.75,0,0,0,.09.73,1.32,1.32,0,0,0,.3.56,1.2,1.2,0,0,0,.52.35,2.22,2.22,0,0,0,.77.12,4.66,4.66,0,0,0,.8-.06l.6-.15.42-.15a.67.67,0,0,1,.27-.07.15.15,0,0,1,.1,0,.11.11,0,0,1,.07.08.78.78,0,0,1,0,.19,2.36,2.36,0,0,1,0,.29,2,2,0,0,1,0,.26.92.92,0,0,1,0,.19.4.4,0,0,1,0,.13.36.36,0,0,1-.07.1.7.7,0,0,1-.25.14,2.82,2.82,0,0,1-.51.16,5.14,5.14,0,0,1-.71.15,5.81,5.81,0,0,1-.86.06A4.23,4.23,0,0,1,50.6,91a2.47,2.47,0,0,1-1-.64A2.6,2.6,0,0,1,49,89.23a5.81,5.81,0,0,1,0-3.06A3.13,3.13,0,0,1,49.58,85a2.64,2.64,0,0,1,1-.72,3.45,3.45,0,0,1,1.32-.25,3.24,3.24,0,0,1,1.32.24,2.42,2.42,0,0,1,.91.64,2.8,2.8,0,0,1,.52,1,4.41,4.41,0,0,1,.16,1.23Zm-1.68-.51a1.88,1.88,0,0,0-.3-1.18,1.11,1.11,0,0,0-1-.43,1.21,1.21,0,0,0-.58.13,1.23,1.23,0,0,0-.41.34,1.71,1.71,0,0,0-.24.51,2.13,2.13,0,0,0-.1.63Zm-1-5.56a.37.37,0,0,1,.12-.13.39.39,0,0,1,.17-.09.92.92,0,0,1,.26-.05h.39a3.25,3.25,0,0,1,.5,0,.5.5,0,0,1,.26.08.12.12,0,0,1,.08.12.34.34,0,0,1-.07.15l-1.34,1.64-.11.12a.52.52,0,0,1-.15.07,1,1,0,0,1-.21,0l-.34,0a1.87,1.87,0,0,1-.38,0,.43.43,0,0,1-.2-.06.13.13,0,0,1,0-.12.43.43,0,0,1,.07-.16Z"/><path d="M57.82,91a4.93,4.93,0,0,1-.12,1.2,2.06,2.06,0,0,1-.38.77,1.66,1.66,0,0,1-.63.48,2.4,2.4,0,0,1-.89.15,3.48,3.48,0,0,1-.49,0,1.44,1.44,0,0,1-.29-.09.2.2,0,0,1-.12-.1.53.53,0,0,1,0-.15.9.9,0,0,1,0-.18c0-.07,0-.16,0-.27s0-.24,0-.32a.87.87,0,0,1,0-.21.44.44,0,0,1,.06-.12.16.16,0,0,1,.09,0l.15,0h.23a1,1,0,0,0,.31-.05.46.46,0,0,0,.21-.18.93.93,0,0,0,.13-.32,3.15,3.15,0,0,0,0-.62V84.48a.16.16,0,0,1,0-.12.32.32,0,0,1,.14-.1l.26-.06.42,0,.42,0,.27.06a.32.32,0,0,1,.14.1.16.16,0,0,1,0,.12ZM58,82.33a1,1,0,0,1-.21.74,1.12,1.12,0,0,1-.79.21,1.17,1.17,0,0,1-.79-.2,1,1,0,0,1-.21-.71,1.05,1.05,0,0,1,.21-.75,1.64,1.64,0,0,1,1.59,0A1,1,0,0,1,58,82.33Z"/><path d="M64.54,90.79a.19.19,0,0,1-.07.16.51.51,0,0,1-.22.08,3.32,3.32,0,0,1-.89,0,.38.38,0,0,1-.2-.08.21.21,0,0,1-.06-.16v-.5a2.61,2.61,0,0,1-.87.65,2.38,2.38,0,0,1-1.08.24,3.15,3.15,0,0,1-.9-.13,2,2,0,0,1-.71-.39,1.75,1.75,0,0,1-.47-.64,2.28,2.28,0,0,1-.17-.89,2.06,2.06,0,0,1,.21-1,1.69,1.69,0,0,1,.63-.67,3.18,3.18,0,0,1,1-.4A7.79,7.79,0,0,1,62.23,87h.6v-.39a1.93,1.93,0,0,0-.06-.51.91.91,0,0,0-.19-.38.81.81,0,0,0-.36-.22,2.19,2.19,0,0,0-.56-.07,3.08,3.08,0,0,0-.78.1,5.11,5.11,0,0,0-.6.22,4.48,4.48,0,0,0-.44.22.59.59,0,0,1-.29.1.21.21,0,0,1-.13,0,.39.39,0,0,1-.1-.14c0-.06,0-.14-.06-.23a2.64,2.64,0,0,1,0-.29,1.08,1.08,0,0,1,0-.35.45.45,0,0,1,.13-.23,1.21,1.21,0,0,1,.34-.23,4.32,4.32,0,0,1,.56-.23,6.72,6.72,0,0,1,.71-.17,5.16,5.16,0,0,1,.79-.07,4.43,4.43,0,0,1,1.24.15,2,2,0,0,1,.85.44,1.74,1.74,0,0,1,.49.78,3.7,3.7,0,0,1,.15,1.12Zm-1.71-2.7h-.66a3,3,0,0,0-.72.07,1.29,1.29,0,0,0-.49.19.74.74,0,0,0-.27.31.88.88,0,0,0-.09.41.82.82,0,0,0,.25.62,1,1,0,0,0,.68.23,1.3,1.3,0,0,0,.67-.19,2.88,2.88,0,0,0,.63-.56Z"/><path d="M75.8,90.77a.2.2,0,0,1,0,.13.42.42,0,0,1-.14.09,1.2,1.2,0,0,1-.26.05l-.42,0-.43,0a1.46,1.46,0,0,1-.27-.05.56.56,0,0,1-.14-.09.28.28,0,0,1,0-.13V87a2.65,2.65,0,0,0-.06-.58,1.51,1.51,0,0,0-.18-.45.86.86,0,0,0-.31-.29,1,1,0,0,0-.44-.1,1,1,0,0,0-.63.25,4,4,0,0,0-.69.72v4.19a.2.2,0,0,1,0,.13.42.42,0,0,1-.14.09,1.46,1.46,0,0,1-.27.05l-.41,0-.42,0a1.46,1.46,0,0,1-.27-.05.42.42,0,0,1-.14-.09.2.2,0,0,1,0-.13V87a2.65,2.65,0,0,0-.06-.58,1.51,1.51,0,0,0-.18-.45.92.92,0,0,0-.3-.29,1,1,0,0,0-.44-.1,1,1,0,0,0-.63.25,3.7,3.7,0,0,0-.69.72v4.19a.2.2,0,0,1,0,.13.42.42,0,0,1-.14.09,1.46,1.46,0,0,1-.27.05l-.42,0-.42,0a1.46,1.46,0,0,1-.27-.05A.56.56,0,0,1,66,90.9a.2.2,0,0,1,0-.13v-6.3a.2.2,0,0,1,0-.13.31.31,0,0,1,.12-.09l.23,0,.36,0,.36,0a.89.89,0,0,1,.23,0,.35.35,0,0,1,.11.09.2.2,0,0,1,0,.13v.72a4,4,0,0,1,1-.84,2.14,2.14,0,0,1,1.06-.29,2.82,2.82,0,0,1,.68.08,2.13,2.13,0,0,1,.55.24,2,2,0,0,1,.41.36,2.27,2.27,0,0,1,.29.48,4.46,4.46,0,0,1,.54-.53,3.23,3.23,0,0,1,.53-.35,2.2,2.2,0,0,1,.51-.21,2.41,2.41,0,0,1,.53-.07,2.19,2.19,0,0,1,1,.22,1.81,1.81,0,0,1,.68.57,2.34,2.34,0,0,1,.37.85,5,5,0,0,1,.11,1Z"/><path d="M82.92,87.44a.69.69,0,0,1-.14.48.5.5,0,0,1-.39.15H78.64a2.75,2.75,0,0,0,.09.73,1.32,1.32,0,0,0,.3.56,1.2,1.2,0,0,0,.52.35,2.22,2.22,0,0,0,.77.12,4.79,4.79,0,0,0,.81-.06l.59-.15.42-.15a.67.67,0,0,1,.27-.07.2.2,0,0,1,.11,0,.13.13,0,0,1,.06.08.49.49,0,0,1,0,.19,2.36,2.36,0,0,1,0,.29v.26c0,.08,0,.14,0,.19a.39.39,0,0,1,0,.13.23.23,0,0,1-.07.1.73.73,0,0,1-.24.14,3.45,3.45,0,0,1-.51.16,5.66,5.66,0,0,1-.72.15,5.81,5.81,0,0,1-.86.06A4.27,4.27,0,0,1,78.72,91a2.54,2.54,0,0,1-1-.64,2.71,2.71,0,0,1-.62-1.09,5.43,5.43,0,0,1-.2-1.54,5.12,5.12,0,0,1,.21-1.52A3.13,3.13,0,0,1,77.7,85a2.76,2.76,0,0,1,1-.72A3.4,3.4,0,0,1,80,84.06a3.33,3.33,0,0,1,1.33.24,2.46,2.46,0,0,1,.9.64,2.8,2.8,0,0,1,.52,1,4.41,4.41,0,0,1,.16,1.23Zm-1.68-.51a1.88,1.88,0,0,0-.3-1.18,1.11,1.11,0,0,0-1-.43,1.21,1.21,0,0,0-.58.13,1.1,1.1,0,0,0-.4.34,1.52,1.52,0,0,0-.25.51,2.52,2.52,0,0,0-.1.63Z"/><path d="M90.64,90.15a2,2,0,0,1,0,.48.45.45,0,0,1-.1.23.41.41,0,0,1-.18.12,1.15,1.15,0,0,1-.28.09,1.93,1.93,0,0,1-.36.06,2.34,2.34,0,0,1-.38,0,2.66,2.66,0,0,1-.9-.14,1.6,1.6,0,0,1-.63-.41,1.7,1.7,0,0,1-.36-.71,3.65,3.65,0,0,1-.12-1V85.67h-.74a.22.22,0,0,1-.2-.17,1.45,1.45,0,0,1-.07-.55,1.83,1.83,0,0,1,0-.35.6.6,0,0,1,0-.22.23.23,0,0,1,.08-.12.27.27,0,0,1,.12,0h.74V82.82a.2.2,0,0,1,0-.13.22.22,0,0,1,.13-.09.9.9,0,0,1,.27-.06l.42,0,.43,0a.77.77,0,0,1,.26.06.24.24,0,0,1,.14.09.2.2,0,0,1,0,.13v1.41h1.34a.28.28,0,0,1,.13,0,.23.23,0,0,1,.08.12.9.9,0,0,1,.05.22,1.83,1.83,0,0,1,0,.35,1.45,1.45,0,0,1-.07.55.22.22,0,0,1-.2.17H89v3a1.62,1.62,0,0,0,.16.78.62.62,0,0,0,.57.25,1,1,0,0,0,.25,0l.2-.06.14,0a.23.23,0,0,1,.11,0,.13.13,0,0,1,.08,0,.23.23,0,0,1,.06.09s0,.12,0,.21A1.47,1.47,0,0,1,90.64,90.15Z"/><path d="M97.14,87.44a.74.74,0,0,1-.14.48.53.53,0,0,1-.39.15H92.85a2.39,2.39,0,0,0,.1.73,1.32,1.32,0,0,0,.3.56,1.2,1.2,0,0,0,.52.35,2.18,2.18,0,0,0,.77.12,4.66,4.66,0,0,0,.8-.06l.6-.15.42-.15a.67.67,0,0,1,.27-.07.17.17,0,0,1,.1,0s0,0,.07.08a.78.78,0,0,1,0,.19,2.36,2.36,0,0,1,0,.29,2,2,0,0,1,0,.26.92.92,0,0,1,0,.19.4.4,0,0,1,0,.13.36.36,0,0,1-.07.1.7.7,0,0,1-.25.14A2.82,2.82,0,0,1,96,91a5.48,5.48,0,0,1-.71.15,5.81,5.81,0,0,1-.86.06A4.19,4.19,0,0,1,92.94,91a2.47,2.47,0,0,1-1-.64,2.6,2.6,0,0,1-.62-1.09,5.55,5.55,0,0,1,0-3.06A3.13,3.13,0,0,1,91.92,85a2.64,2.64,0,0,1,1-.72,3.45,3.45,0,0,1,1.32-.25,3.24,3.24,0,0,1,1.32.24,2.42,2.42,0,0,1,.91.64,2.78,2.78,0,0,1,.51,1,4.07,4.07,0,0,1,.17,1.23Zm-1.69-.51a1.82,1.82,0,0,0-.29-1.18,1.11,1.11,0,0,0-1-.43,1.18,1.18,0,0,0-.58.13,1.23,1.23,0,0,0-.41.34,1.73,1.73,0,0,0-.25.51,3.07,3.07,0,0,0-.1.63Z"/><path d="M111,90.77a.28.28,0,0,1,0,.13.56.56,0,0,1-.14.09,1.33,1.33,0,0,1-.26.05l-.43,0-.42,0a1.46,1.46,0,0,1-.27-.05.42.42,0,0,1-.14-.09.28.28,0,0,1,0-.13V87a2.65,2.65,0,0,0-.06-.58A1.29,1.29,0,0,0,109,86a.92.92,0,0,0-.3-.29,1,1,0,0,0-1.07.15,4,4,0,0,0-.69.72v4.19a.2.2,0,0,1,0,.13.56.56,0,0,1-.14.09,1.46,1.46,0,0,1-.27.05l-.41,0-.43,0a1.33,1.33,0,0,1-.26-.05.33.33,0,0,1-.14-.09.2.2,0,0,1,0-.13V87a2.65,2.65,0,0,0-.06-.58A1.51,1.51,0,0,0,105,86a.92.92,0,0,0-.3-.29,1,1,0,0,0-.44-.1,1,1,0,0,0-.64.25,3.69,3.69,0,0,0-.68.72v4.19a.2.2,0,0,1,0,.13.56.56,0,0,1-.14.09,1.46,1.46,0,0,1-.27.05l-.42,0-.42,0a1.46,1.46,0,0,1-.27-.05.42.42,0,0,1-.14-.09.2.2,0,0,1,0-.13v-6.3a.28.28,0,0,1,0-.13.36.36,0,0,1,.13-.09,1,1,0,0,1,.23,0l.35,0,.37,0a.8.8,0,0,1,.22,0,.31.31,0,0,1,.12.09.28.28,0,0,1,0,.13v.72a4.15,4.15,0,0,1,1-.84,2.18,2.18,0,0,1,1.07-.29,2.82,2.82,0,0,1,.68.08,2.21,2.21,0,0,1,.54.24,1.59,1.59,0,0,1,.41.36,1.66,1.66,0,0,1,.29.48,5.36,5.36,0,0,1,.55-.53,3.16,3.16,0,0,1,.52-.35,2.46,2.46,0,0,1,.52-.21,2.33,2.33,0,0,1,.53-.07,2.19,2.19,0,0,1,1,.22,1.81,1.81,0,0,1,.68.57,2.52,2.52,0,0,1,.37.85,5,5,0,0,1,.11,1Z"/><path d="M118.29,90.77a.28.28,0,0,1,0,.13.31.31,0,0,1-.12.09l-.23.05-.36,0-.37,0A.9.9,0,0,1,117,91a.31.31,0,0,1-.12-.09.28.28,0,0,1,0-.13V90a4.1,4.1,0,0,1-1,.85,2.44,2.44,0,0,1-2.17.07,1.81,1.81,0,0,1-.7-.58,2.45,2.45,0,0,1-.38-.85,5.7,5.7,0,0,1-.11-1.2V84.47a.2.2,0,0,1,0-.13.36.36,0,0,1,.13-.09,1.46,1.46,0,0,1,.27,0l.42,0,.43,0a1.33,1.33,0,0,1,.26,0,.33.33,0,0,1,.14.09.2.2,0,0,1,0,.13V88a3,3,0,0,0,.07.76,1.3,1.3,0,0,0,.19.45.89.89,0,0,0,.32.29,1.05,1.05,0,0,0,1.13-.15,4,4,0,0,0,.71-.72V84.47a.28.28,0,0,1,0-.13.42.42,0,0,1,.14-.09,1.46,1.46,0,0,1,.27,0l.42,0,.42,0a1.2,1.2,0,0,1,.26,0,.42.42,0,0,1,.14.09.2.2,0,0,1,0,.13Z"/><path d="M125.46,87.44a.69.69,0,0,1-.15.48.5.5,0,0,1-.39.15h-3.75a2.75,2.75,0,0,0,.09.73,1.44,1.44,0,0,0,.3.56,1.23,1.23,0,0,0,.53.35,2.18,2.18,0,0,0,.77.12,4.74,4.74,0,0,0,.8-.06l.6-.15.41-.15a.76.76,0,0,1,.27-.07.18.18,0,0,1,.11,0s0,0,.07.08a.78.78,0,0,1,0,.19c0,.07,0,.17,0,.29s0,.19,0,.26,0,.14,0,.19a.4.4,0,0,1,0,.13.39.39,0,0,1-.08.1.73.73,0,0,1-.24.14,3.1,3.1,0,0,1-.51.16,5.89,5.89,0,0,1-1.57.21,4.19,4.19,0,0,1-1.44-.22,2.51,2.51,0,0,1-1-.64,2.83,2.83,0,0,1-.62-1.09,5.43,5.43,0,0,1-.2-1.54,5.12,5.12,0,0,1,.21-1.52,3.15,3.15,0,0,1,.63-1.14,2.64,2.64,0,0,1,1-.72,3.45,3.45,0,0,1,1.32-.25,3.31,3.31,0,0,1,1.32.24,2.3,2.3,0,0,1,.9.64,2.64,2.64,0,0,1,.52,1,4.4,4.4,0,0,1,.17,1.23Zm-1.69-.51a1.88,1.88,0,0,0-.29-1.18,1.13,1.13,0,0,0-1-.43,1.2,1.2,0,0,0-1,.47,1.73,1.73,0,0,0-.25.51,2.52,2.52,0,0,0-.1.63Z"/><path d="M131,89a2.18,2.18,0,0,1-.2,1,1.85,1.85,0,0,1-.56.68,2.34,2.34,0,0,1-.85.42,3.94,3.94,0,0,1-1.06.14,3.52,3.52,0,0,1-.66-.06,4,4,0,0,1-.57-.13,3.41,3.41,0,0,1-.41-.17.83.83,0,0,1-.24-.16.49.49,0,0,1-.12-.23,1.89,1.89,0,0,1,0-.47,3,3,0,0,1,0-.33c0-.08,0-.15,0-.2a.2.2,0,0,1,.07-.1l.11,0a.5.5,0,0,1,.22.09l.37.19a3.78,3.78,0,0,0,.52.2,2.19,2.19,0,0,0,.66.09,1.34,1.34,0,0,0,.42,0,1,1,0,0,0,.32-.14.55.55,0,0,0,.2-.23.7.7,0,0,0,.07-.33.52.52,0,0,0-.13-.36,1.14,1.14,0,0,0-.33-.27l-.48-.21c-.18-.06-.36-.14-.55-.22a5.44,5.44,0,0,1-.54-.27,2,2,0,0,1-.48-.39,1.84,1.84,0,0,1-.34-.54,2.15,2.15,0,0,1-.13-.76,1.87,1.87,0,0,1,.18-.83,1.75,1.75,0,0,1,.49-.65,2.34,2.34,0,0,1,.8-.42,3.39,3.39,0,0,1,1-.15,3.55,3.55,0,0,1,.57,0,3.26,3.26,0,0,1,.49.1,1.92,1.92,0,0,1,.37.14.78.78,0,0,1,.22.13.31.31,0,0,1,.1.1s0,.08,0,.13,0,.11,0,.18a2.35,2.35,0,0,1,0,.28,2.82,2.82,0,0,1,0,.31c0,.08,0,.14,0,.19s0,.08-.07.09a.17.17,0,0,1-.1,0,.51.51,0,0,1-.19-.08l-.33-.16-.46-.15a2.05,2.05,0,0,0-.59-.08,1.56,1.56,0,0,0-.4.05.78.78,0,0,0-.29.14.57.57,0,0,0-.16.22.58.58,0,0,0-.06.26.52.52,0,0,0,.13.37,1.18,1.18,0,0,0,.35.26,2.49,2.49,0,0,0,.49.21l.55.22a5.6,5.6,0,0,1,.55.27,2.29,2.29,0,0,1,.49.38,2.18,2.18,0,0,1,.35.54A2.1,2.1,0,0,1,131,89Z"/><path d="M135.46,90.15a2,2,0,0,1,0,.48.38.38,0,0,1-.1.23.41.41,0,0,1-.18.12,1,1,0,0,1-.28.09,1.93,1.93,0,0,1-.36.06,2.34,2.34,0,0,1-.38,0,2.74,2.74,0,0,1-.9-.14,1.6,1.6,0,0,1-.63-.41,1.7,1.7,0,0,1-.36-.71,3.65,3.65,0,0,1-.12-1V85.67h-.74a.22.22,0,0,1-.2-.17,1.45,1.45,0,0,1-.07-.55,3.32,3.32,0,0,1,0-.35.9.9,0,0,1,0-.22.23.23,0,0,1,.08-.12.28.28,0,0,1,.13,0h.73V82.82a.2.2,0,0,1,0-.13.21.21,0,0,1,.14-.09.77.77,0,0,1,.26-.06l.42,0,.43,0a.77.77,0,0,1,.26.06.21.21,0,0,1,.14.09.2.2,0,0,1,0,.13v1.41h1.35a.27.27,0,0,1,.12,0,.23.23,0,0,1,.08.12.85.85,0,0,1,.06.22c0,.1,0,.21,0,.35a1.45,1.45,0,0,1-.07.55.22.22,0,0,1-.2.17h-1.35v3a1.62,1.62,0,0,0,.16.78.62.62,0,0,0,.57.25,1,1,0,0,0,.25,0l.2-.06.14,0,.11,0a.13.13,0,0,1,.08,0,.23.23,0,0,1,.06.09s0,.12,0,.21A2.92,2.92,0,0,1,135.46,90.15Z"/><path d="M140.4,85.05c0,.17,0,.31,0,.42a1.09,1.09,0,0,1,0,.25.18.18,0,0,1-.07.13.15.15,0,0,1-.11,0l-.13,0-.15,0-.19,0a.85.85,0,0,0-.23,0,.75.75,0,0,0-.29.06,1,1,0,0,0-.3.19,2.16,2.16,0,0,0-.33.34,5.66,5.66,0,0,0-.36.52v3.93a.2.2,0,0,1,0,.13A.56.56,0,0,1,138,91a1.46,1.46,0,0,1-.27.05l-.42,0-.42,0a1.46,1.46,0,0,1-.27-.05.42.42,0,0,1-.14-.09.2.2,0,0,1,0-.13v-6.3a.28.28,0,0,1,0-.13.48.48,0,0,1,.13-.09,1,1,0,0,1,.23,0l.35,0,.37,0a1,1,0,0,1,.23,0,.35.35,0,0,1,.11.09.28.28,0,0,1,0,.13v.78a6.93,6.93,0,0,1,.46-.58,2.24,2.24,0,0,1,.41-.37,1.14,1.14,0,0,1,.39-.18,1.21,1.21,0,0,1,.38-.06h.2l.21,0a.85.85,0,0,1,.19.06l.13.06a.35.35,0,0,1,.05.08,1,1,0,0,1,0,.12,1.09,1.09,0,0,1,0,.22C140.4,84.75,140.4,84.88,140.4,85.05Z"/><path d="M147.25,87.56A4.93,4.93,0,0,1,147,89a3,3,0,0,1-.62,1.14,2.86,2.86,0,0,1-1.06.74,3.81,3.81,0,0,1-1.49.27,3.89,3.89,0,0,1-1.43-.24,2.48,2.48,0,0,1-1-.68,2.61,2.61,0,0,1-.59-1.09,5.22,5.22,0,0,1-.2-1.49,4.88,4.88,0,0,1,.21-1.47,3,3,0,0,1,.64-1.15,2.72,2.72,0,0,1,1-.73,3.76,3.76,0,0,1,1.48-.27,4.1,4.1,0,0,1,1.44.23,2.58,2.58,0,0,1,1,.68,2.94,2.94,0,0,1,.59,1.09A5.26,5.26,0,0,1,147.25,87.56Zm-1.79.07a4.61,4.61,0,0,0-.07-.86,2,2,0,0,0-.25-.68,1.2,1.2,0,0,0-.46-.46,1.42,1.42,0,0,0-.72-.16,1.48,1.48,0,0,0-.68.15,1.12,1.12,0,0,0-.47.42,1.93,1.93,0,0,0-.28.67,3.49,3.49,0,0,0-.1.9,4.46,4.46,0,0,0,.08.85,2.24,2.24,0,0,0,.24.69,1.32,1.32,0,0,0,.46.45,1.59,1.59,0,0,0,.72.15,1.49,1.49,0,0,0,.69-.14,1.38,1.38,0,0,0,.48-.42,2,2,0,0,0,.27-.67A4,4,0,0,0,145.46,87.63Z"/><path d="M60.25,104a2.91,2.91,0,0,1,0,.31l0,.21a.4.4,0,0,1,0,.13.54.54,0,0,1-.11.14,1.73,1.73,0,0,1-.28.2,3.34,3.34,0,0,1-.46.2,2.34,2.34,0,0,1-.55.15,3.18,3.18,0,0,1-.62.06,3.26,3.26,0,0,1-1.26-.23,2.32,2.32,0,0,1-.93-.67,3,3,0,0,1-.56-1.07,5,5,0,0,1-.19-1.46,5.32,5.32,0,0,1,.23-1.64,3.16,3.16,0,0,1,.65-1.14,2.56,2.56,0,0,1,1-.67,3.42,3.42,0,0,1,1.79-.17,3.51,3.51,0,0,1,.49.13,2,2,0,0,1,.42.2,1.39,1.39,0,0,1,.26.18.58.58,0,0,1,.11.13.39.39,0,0,1,0,.14,1,1,0,0,1,0,.21,2.63,2.63,0,0,1,0,.3,1.54,1.54,0,0,1-.07.57c0,.11-.1.17-.18.17a.42.42,0,0,1-.25-.1,3.2,3.2,0,0,0-.31-.22,2.73,2.73,0,0,0-.42-.22,1.79,1.79,0,0,0-.6-.1,1.18,1.18,0,0,0-1,.54,2.77,2.77,0,0,0-.36,1.56,4,4,0,0,0,.09.9,1.85,1.85,0,0,0,.27.65,1.09,1.09,0,0,0,.44.39,1.38,1.38,0,0,0,.62.13,1.65,1.65,0,0,0,.62-.1,3.14,3.14,0,0,0,.45-.25l.33-.24a.35.35,0,0,1,.22-.11.15.15,0,0,1,.1,0,.32.32,0,0,1,.07.13c0,.07,0,.15,0,.25S60.25,103.85,60.25,104Z"/><path d="M67.08,105a.28.28,0,0,1,0,.13.31.31,0,0,1-.12.09,1,1,0,0,1-.23,0l-.35,0-.37,0a1,1,0,0,1-.23,0l-.12-.09a.28.28,0,0,1,0-.13v-.73a3.74,3.74,0,0,1-1,.85,2.29,2.29,0,0,1-1.1.29,2.32,2.32,0,0,1-1.07-.22,1.78,1.78,0,0,1-.69-.58,2.13,2.13,0,0,1-.38-.85,5,5,0,0,1-.12-1.2V98.71a.2.2,0,0,1,0-.13.33.33,0,0,1,.14-.09,1.19,1.19,0,0,1,.27,0l.42,0,.42,0a1.2,1.2,0,0,1,.26,0,.33.33,0,0,1,.14.09.21.21,0,0,1,0,.13v3.56A3.68,3.68,0,0,0,63,103a1.3,1.3,0,0,0,.19.45.89.89,0,0,0,.32.29,1.15,1.15,0,0,0,.46.1,1.08,1.08,0,0,0,.67-.25,4.41,4.41,0,0,0,.72-.72V98.71a.28.28,0,0,1,0-.13.56.56,0,0,1,.14-.09,1.46,1.46,0,0,1,.27,0l.42,0,.42,0a1.46,1.46,0,0,1,.27,0,.36.36,0,0,1,.13.09.21.21,0,0,1,0,.13Z"/><path d="M73.8,105a.22.22,0,0,1-.07.16.51.51,0,0,1-.22.08,2.44,2.44,0,0,1-.44,0,2.34,2.34,0,0,1-.45,0,.38.38,0,0,1-.2-.08.21.21,0,0,1-.06-.16v-.5a2.72,2.72,0,0,1-.87.65,2.44,2.44,0,0,1-1.08.24,3.15,3.15,0,0,1-.9-.13,2.08,2.08,0,0,1-.72-.39,1.84,1.84,0,0,1-.46-.64,2.28,2.28,0,0,1-.17-.89,2.06,2.06,0,0,1,.21-1,1.69,1.69,0,0,1,.63-.67,3.18,3.18,0,0,1,1-.4,7.79,7.79,0,0,1,1.45-.12h.6v-.39a1.93,1.93,0,0,0-.06-.51.91.91,0,0,0-.19-.38.81.81,0,0,0-.36-.22,2.19,2.19,0,0,0-.56-.07,3.08,3.08,0,0,0-.78.1,4.52,4.52,0,0,0-.6.22,3.57,3.57,0,0,0-.44.22.62.62,0,0,1-.29.1.19.19,0,0,1-.13-.05.3.3,0,0,1-.1-.14.7.7,0,0,1-.06-.23,2.64,2.64,0,0,1,0-.29,1.56,1.56,0,0,1,0-.35.55.55,0,0,1,.14-.23,1.29,1.29,0,0,1,.33-.23,4.49,4.49,0,0,1,.57-.23,6.17,6.17,0,0,1,.71-.17,5.16,5.16,0,0,1,.79-.07,4.43,4.43,0,0,1,1.24.15,2,2,0,0,1,.85.44,1.72,1.72,0,0,1,.48.78,3.4,3.4,0,0,1,.16,1.12Zm-1.71-2.7h-.67a3,3,0,0,0-.72.07,1.3,1.3,0,0,0-.48.19.8.8,0,0,0-.27.31.88.88,0,0,0-.09.41.79.79,0,0,0,.25.62,1,1,0,0,0,.68.23,1.3,1.3,0,0,0,.67-.19,2.88,2.88,0,0,0,.63-.56Zm-.61-6.72a.37.37,0,0,1,.12-.13.39.39,0,0,1,.17-.09l.26,0h.39a3.25,3.25,0,0,1,.5,0,.5.5,0,0,1,.26.08.12.12,0,0,1,.08.12.34.34,0,0,1-.07.15l-1.34,1.64-.11.12a.52.52,0,0,1-.15.07,1,1,0,0,1-.21,0l-.34,0-.38,0a.57.57,0,0,1-.2-.07.13.13,0,0,1,0-.12.43.43,0,0,1,.07-.16Z"/><path d="M77,105a.2.2,0,0,1,0,.13.56.56,0,0,1-.14.09,1.46,1.46,0,0,1-.27,0l-.42,0-.42,0a1.46,1.46,0,0,1-.27,0,.42.42,0,0,1-.14-.09.2.2,0,0,1,0-.13V95.72a.2.2,0,0,1,0-.13.32.32,0,0,1,.14-.1l.27-.06.42,0,.42,0,.27.06a.39.39,0,0,1,.14.1.2.2,0,0,1,0,.13Z"/><path d="M84.14,101.68a.74.74,0,0,1-.14.48.53.53,0,0,1-.39.15H79.85a2.34,2.34,0,0,0,.1.73,1.42,1.42,0,0,0,.29.56,1.23,1.23,0,0,0,.53.35,2.18,2.18,0,0,0,.77.12,4.74,4.74,0,0,0,.8-.06l.6-.15.42-.15a.67.67,0,0,1,.27-.07.17.17,0,0,1,.1,0s0,0,.07.08a.78.78,0,0,1,0,.19,2.36,2.36,0,0,1,0,.29,2,2,0,0,1,0,.26.92.92,0,0,1,0,.19.4.4,0,0,1,0,.13.36.36,0,0,1-.07.1.7.7,0,0,1-.25.14,2.82,2.82,0,0,1-.51.16,5.48,5.48,0,0,1-.71.15,5.81,5.81,0,0,1-.86.06,4.19,4.19,0,0,1-1.44-.22,2.47,2.47,0,0,1-1-.64,2.6,2.6,0,0,1-.62-1.09,5.08,5.08,0,0,1-.21-1.54,4.81,4.81,0,0,1,.22-1.52,3.13,3.13,0,0,1,.62-1.14,2.64,2.64,0,0,1,1-.72,3.45,3.45,0,0,1,1.32-.25,3.24,3.24,0,0,1,1.32.24,2.3,2.3,0,0,1,.9.64,2.64,2.64,0,0,1,.52,1,4.4,4.4,0,0,1,.17,1.23Zm-1.69-.51a1.84,1.84,0,0,0-.29-1.18,1.12,1.12,0,0,0-1-.43,1.18,1.18,0,0,0-.58.13,1.23,1.23,0,0,0-.41.34,1.73,1.73,0,0,0-.25.51,3.19,3.19,0,0,0-.1.63Z"/><path d="M89.63,103.23a2.18,2.18,0,0,1-.2,1,1.94,1.94,0,0,1-.55.69,2.58,2.58,0,0,1-.85.41,4.07,4.07,0,0,1-1.07.14,3.52,3.52,0,0,1-.66-.06,3.57,3.57,0,0,1-.56-.13,3,3,0,0,1-.42-.17.83.83,0,0,1-.24-.16.49.49,0,0,1-.12-.23,2.55,2.55,0,0,1,0-.47,2.63,2.63,0,0,1,0-.33.54.54,0,0,1,0-.2.2.2,0,0,1,.07-.1l.1,0a.46.46,0,0,1,.22.09l.37.19a3.78,3.78,0,0,0,.52.2,2.31,2.31,0,0,0,.67.09,1.42,1.42,0,0,0,.42-.05,1,1,0,0,0,.31-.14.66.66,0,0,0,.21-.23.84.84,0,0,0,.07-.33.57.57,0,0,0-.13-.36,1.35,1.35,0,0,0-.34-.27l-.48-.21-.54-.22a5.6,5.6,0,0,1-.55-.27,2.23,2.23,0,0,1-.48-.38,2,2,0,0,1-.34-.55,2.16,2.16,0,0,1-.12-.76,1.87,1.87,0,0,1,.17-.83,1.67,1.67,0,0,1,.5-.65,2.29,2.29,0,0,1,.79-.42,3.52,3.52,0,0,1,1.61-.1,3,3,0,0,1,.49.1,2,2,0,0,1,.38.14,1.27,1.27,0,0,1,.22.13.41.41,0,0,1,.09.1.5.5,0,0,1,0,.13.9.9,0,0,1,0,.18,2.16,2.16,0,0,1,0,.28,2.54,2.54,0,0,1,0,.31.5.5,0,0,1,0,.19s0,.08-.07.09a.14.14,0,0,1-.09,0,.53.53,0,0,1-.2-.08l-.32-.16-.46-.15a2.1,2.1,0,0,0-.59-.08,1.58,1.58,0,0,0-.41,0,.67.67,0,0,0-.28.14.6.6,0,0,0-.17.22.58.58,0,0,0-.06.26.53.53,0,0,0,.14.37,1,1,0,0,0,.34.26,3.77,3.77,0,0,0,.49.22c.18.06.37.13.55.21s.37.17.56.27a2,2,0,0,1,.48.39,1.68,1.68,0,0,1,.35.54A1.85,1.85,0,0,1,89.63,103.23Z"/><path d="M97.91,103.23a2.18,2.18,0,0,1-.19,1,2,2,0,0,1-.56.69,2.49,2.49,0,0,1-.85.41,4,4,0,0,1-1.06.14,3.63,3.63,0,0,1-.67-.06,4.19,4.19,0,0,1-.56-.13,3.41,3.41,0,0,1-.41-.17.83.83,0,0,1-.24-.16.42.42,0,0,1-.12-.23,1.89,1.89,0,0,1,0-.47,3,3,0,0,1,0-.33.88.88,0,0,1,0-.2.2.2,0,0,1,.07-.1l.1,0a.52.52,0,0,1,.23.09l.37.19a4.18,4.18,0,0,0,.51.2,2.31,2.31,0,0,0,.67.09,1.34,1.34,0,0,0,.42-.05,1,1,0,0,0,.32-.14.55.55,0,0,0,.2-.23.7.7,0,0,0,.07-.33.52.52,0,0,0-.13-.36,1.19,1.19,0,0,0-.34-.27l-.47-.21c-.18-.06-.36-.14-.55-.22a5.6,5.6,0,0,1-.55-.27,2.45,2.45,0,0,1-.47-.38,1.82,1.82,0,0,1-.34-.55,2,2,0,0,1-.13-.76,2,2,0,0,1,.17-.83,1.77,1.77,0,0,1,.5-.65,2.38,2.38,0,0,1,.79-.42,3.52,3.52,0,0,1,1.61-.1,3.15,3.15,0,0,1,.5.1,1.92,1.92,0,0,1,.37.14,1,1,0,0,1,.22.13.41.41,0,0,1,.09.1.28.28,0,0,1,0,.13s0,.11,0,.18a2.35,2.35,0,0,1,0,.28,2.82,2.82,0,0,1,0,.31.78.78,0,0,1,0,.19s0,.08-.06.09a.17.17,0,0,1-.1,0,.51.51,0,0,1-.19-.08l-.33-.16-.46-.15a2.1,2.1,0,0,0-.59-.08,1.64,1.64,0,0,0-.41,0,.74.74,0,0,0-.28.14.72.72,0,0,0-.17.22.75.75,0,0,0-.05.26.52.52,0,0,0,.13.37,1.07,1.07,0,0,0,.35.26,3.61,3.61,0,0,0,.48.22c.19.06.37.13.56.21s.37.17.55.27a2.27,2.27,0,0,1,.49.39,1.66,1.66,0,0,1,.34.54A1.85,1.85,0,0,1,97.91,103.23Z"/><path d="M105.18,101.8a4.93,4.93,0,0,1-.21,1.47,3.16,3.16,0,0,1-.63,1.14,2.92,2.92,0,0,1-1.06.75,4.39,4.39,0,0,1-2.92,0,2.54,2.54,0,0,1-1-.68,2.86,2.86,0,0,1-.59-1.09,5.23,5.23,0,0,1-.19-1.49,4.88,4.88,0,0,1,.21-1.47,3.13,3.13,0,0,1,.63-1.15,2.83,2.83,0,0,1,1-.73A3.78,3.78,0,0,1,102,98.3a4.08,4.08,0,0,1,1.43.23,2.51,2.51,0,0,1,1,.68,2.8,2.8,0,0,1,.59,1.09A5.29,5.29,0,0,1,105.18,101.8Zm-1.8.07a4.61,4.61,0,0,0-.07-.86,2.18,2.18,0,0,0-.24-.68,1.27,1.27,0,0,0-.46-.46,1.49,1.49,0,0,0-.73-.16,1.44,1.44,0,0,0-.67.15,1.08,1.08,0,0,0-.48.42,2.15,2.15,0,0,0-.28.67,4,4,0,0,0-.09.9,4.5,4.5,0,0,0,.07.85,2,2,0,0,0,.25.69,1.17,1.17,0,0,0,.46.45,1.54,1.54,0,0,0,.72.15,1.45,1.45,0,0,0,.68-.14,1.38,1.38,0,0,0,.48-.42,2,2,0,0,0,.27-.67A4,4,0,0,0,103.38,101.87Z"/><path d="M112.16,105a.2.2,0,0,1,0,.13.56.56,0,0,1-.14.09,1.31,1.31,0,0,1-.27,0l-.41,0-.43,0a1.46,1.46,0,0,1-.27,0,.36.36,0,0,1-.13-.09.21.21,0,0,1,0-.13v-3.6a3.45,3.45,0,0,0-.06-.72,1.85,1.85,0,0,0-.19-.45.89.89,0,0,0-.32-.29,1.11,1.11,0,0,0-.46-.1,1.1,1.1,0,0,0-.67.25,3.46,3.46,0,0,0-.71.72V105a.2.2,0,0,1,0,.13.56.56,0,0,1-.14.09,1.46,1.46,0,0,1-.27,0l-.42,0-.42,0a1.46,1.46,0,0,1-.27,0,.42.42,0,0,1-.14-.09.2.2,0,0,1,0-.13v-6.3a.28.28,0,0,1,0-.13.48.48,0,0,1,.13-.09,1,1,0,0,1,.23,0l.36,0,.36,0a1,1,0,0,1,.23,0,.35.35,0,0,1,.11.09.28.28,0,0,1,0,.13v.72a4.12,4.12,0,0,1,1-.84,2.42,2.42,0,0,1,2.16-.07,1.87,1.87,0,0,1,.7.57,2.35,2.35,0,0,1,.38.85,5,5,0,0,1,.12,1.18Z"/><path d="M120.84,103.23a2.18,2.18,0,0,1-.19,1,2,2,0,0,1-.56.69,2.49,2.49,0,0,1-.85.41,4,4,0,0,1-1.06.14,3.63,3.63,0,0,1-.67-.06,4.19,4.19,0,0,1-.56-.13,3.41,3.41,0,0,1-.41-.17,1.08,1.08,0,0,1-.25-.16.41.41,0,0,1-.11-.23,1.89,1.89,0,0,1,0-.47,3,3,0,0,1,0-.33.88.88,0,0,1,0-.2.2.2,0,0,1,.07-.1l.1,0a.52.52,0,0,1,.23.09l.37.19a4.18,4.18,0,0,0,.51.2,2.31,2.31,0,0,0,.67.09,1.34,1.34,0,0,0,.42-.05,1,1,0,0,0,.32-.14.55.55,0,0,0,.2-.23.7.7,0,0,0,.07-.33A.52.52,0,0,0,119,103a1.19,1.19,0,0,0-.34-.27l-.47-.21c-.18-.06-.36-.14-.55-.22a5.6,5.6,0,0,1-.55-.27,2.45,2.45,0,0,1-.47-.38,1.82,1.82,0,0,1-.34-.55,2,2,0,0,1-.13-.76,2,2,0,0,1,.17-.83,1.77,1.77,0,0,1,.5-.65,2.38,2.38,0,0,1,.79-.42,3.52,3.52,0,0,1,1.61-.1,3.15,3.15,0,0,1,.5.1,1.92,1.92,0,0,1,.37.14,1,1,0,0,1,.22.13.41.41,0,0,1,.09.1.5.5,0,0,1,0,.13s0,.11,0,.18a2.35,2.35,0,0,1,0,.28,2.82,2.82,0,0,1,0,.31.78.78,0,0,1,0,.19s0,.08-.06.09a.17.17,0,0,1-.1,0,.51.51,0,0,1-.19-.08l-.33-.16-.46-.15a2.1,2.1,0,0,0-.59-.08,1.64,1.64,0,0,0-.41,0,.74.74,0,0,0-.28.14.72.72,0,0,0-.17.22.75.75,0,0,0,0,.26.52.52,0,0,0,.13.37,1.07,1.07,0,0,0,.35.26,3.61,3.61,0,0,0,.48.22l.56.21c.18.08.37.17.55.27a2.27,2.27,0,0,1,.49.39,1.8,1.8,0,0,1,.47,1.28Z"/><path d="M127.72,105a.2.2,0,0,1,0,.13.31.31,0,0,1-.12.09,1,1,0,0,1-.23,0l-.35,0-.37,0a1,1,0,0,1-.23,0,.35.35,0,0,1-.11-.09.2.2,0,0,1,0-.13v-.73a3.74,3.74,0,0,1-1,.85,2.29,2.29,0,0,1-1.1.29,2.25,2.25,0,0,1-1.06-.22,1.81,1.81,0,0,1-.7-.58,2.13,2.13,0,0,1-.38-.85,5,5,0,0,1-.12-1.2V98.71a.28.28,0,0,1,0-.13.42.42,0,0,1,.14-.09,1.46,1.46,0,0,1,.27,0l.42,0,.42,0a1.46,1.46,0,0,1,.27,0,.56.56,0,0,1,.14.09.2.2,0,0,1,0,.13v3.56a3.68,3.68,0,0,0,.06.76,1.53,1.53,0,0,0,.19.45,1,1,0,0,0,.33.29,1,1,0,0,0,1.12-.15,3.75,3.75,0,0,0,.72-.72V98.71a.2.2,0,0,1,0-.13.33.33,0,0,1,.14-.09,1.2,1.2,0,0,1,.26,0l.42,0,.43,0a1.33,1.33,0,0,1,.26,0,.56.56,0,0,1,.14.09.28.28,0,0,1,0,.13Z"/><path d="M133.53,103.23a2.18,2.18,0,0,1-.2,1,2,2,0,0,1-.56.69,2.49,2.49,0,0,1-.85.41,4,4,0,0,1-1.06.14,3.52,3.52,0,0,1-.66-.06,4,4,0,0,1-.57-.13,3.41,3.41,0,0,1-.41-.17.83.83,0,0,1-.24-.16.49.49,0,0,1-.12-.23,1.89,1.89,0,0,1,0-.47,3,3,0,0,1,0-.33.88.88,0,0,1,0-.2.2.2,0,0,1,.07-.1l.11,0a.5.5,0,0,1,.22.09l.37.19a3.78,3.78,0,0,0,.52.2,2.19,2.19,0,0,0,.66.09,1.34,1.34,0,0,0,.42-.05,1,1,0,0,0,.32-.14.55.55,0,0,0,.2-.23.7.7,0,0,0,.07-.33.52.52,0,0,0-.13-.36,1.14,1.14,0,0,0-.33-.27l-.48-.21c-.18-.06-.36-.14-.55-.22a5.44,5.44,0,0,1-.54-.27,2.23,2.23,0,0,1-.48-.38,2,2,0,0,1-.34-.55,2,2,0,0,1-.13-.76,2,2,0,0,1,.17-.83,1.89,1.89,0,0,1,.5-.65,2.38,2.38,0,0,1,.79-.42,3.41,3.41,0,0,1,1.05-.15,3.55,3.55,0,0,1,.57,0,3.26,3.26,0,0,1,.49.1,1.92,1.92,0,0,1,.37.14,1,1,0,0,1,.22.13.27.27,0,0,1,.09.1.5.5,0,0,1,.05.13s0,.11,0,.18a2.35,2.35,0,0,1,0,.28,2.82,2.82,0,0,1,0,.31c0,.08,0,.14,0,.19s0,.08-.07.09a.17.17,0,0,1-.1,0,.51.51,0,0,1-.19-.08l-.33-.16-.46-.15a2.1,2.1,0,0,0-.59-.08,1.56,1.56,0,0,0-.4,0,.78.78,0,0,0-.29.14.57.57,0,0,0-.16.22.58.58,0,0,0-.06.26.52.52,0,0,0,.13.37,1.18,1.18,0,0,0,.35.26,3.61,3.61,0,0,0,.48.22c.19.06.37.13.56.21a5.6,5.6,0,0,1,.55.27,2.05,2.05,0,0,1,.49.39,1.66,1.66,0,0,1,.34.54A1.84,1.84,0,0,1,133.53,103.23Z"/><path d="M56.66,118.25v.31c0,.08,0,.15,0,.2a.84.84,0,0,1,0,.14.92.92,0,0,1-.11.14,2.36,2.36,0,0,1-.28.2,4,4,0,0,1-.46.2,4.14,4.14,0,0,1-.56.15,3.11,3.11,0,0,1-.62.06,3.33,3.33,0,0,1-1.26-.23,2.36,2.36,0,0,1-.92-.67,2.8,2.8,0,0,1-.56-1.07,5.58,5.58,0,0,1,0-3.1,3.14,3.14,0,0,1,.64-1.14,2.6,2.6,0,0,1,1-.67,3.39,3.39,0,0,1,1.25-.22,3.27,3.27,0,0,1,1,.18,3.14,3.14,0,0,1,.41.19,1.08,1.08,0,0,1,.26.19.4.4,0,0,1,.11.13.38.38,0,0,1,.05.14q0,.08,0,.21c0,.08,0,.18,0,.3a1.79,1.79,0,0,1-.07.57c0,.11-.11.17-.18.17a.4.4,0,0,1-.25-.1l-.31-.22a2.45,2.45,0,0,0-.43-.22,1.73,1.73,0,0,0-.59-.1,1.17,1.17,0,0,0-1,.54,2.77,2.77,0,0,0-.36,1.56,4,4,0,0,0,.09.9,2.05,2.05,0,0,0,.26.65,1,1,0,0,0,.45.39,1.32,1.32,0,0,0,.62.13,1.49,1.49,0,0,0,.62-.11,2.38,2.38,0,0,0,.45-.24,3.78,3.78,0,0,0,.32-.24.35.35,0,0,1,.22-.11.18.18,0,0,1,.11,0,.23.23,0,0,1,.06.13,1.45,1.45,0,0,1,0,.25C56.66,118,56.66,118.09,56.66,118.25Z"/><path d="M63.81,116a4.93,4.93,0,0,1-.21,1.47,3.16,3.16,0,0,1-.63,1.14,2.71,2.71,0,0,1-1.06.74,3.76,3.76,0,0,1-1.48.27,3.86,3.86,0,0,1-1.43-.24,2.41,2.41,0,0,1-1-.68,2.75,2.75,0,0,1-.6-1.09,5.23,5.23,0,0,1-.19-1.49,4.88,4.88,0,0,1,.21-1.47,3.13,3.13,0,0,1,.63-1.15,2.81,2.81,0,0,1,1.06-.74,3.91,3.91,0,0,1,1.48-.26,4.18,4.18,0,0,1,1.44.23,2.54,2.54,0,0,1,1,.68,2.61,2.61,0,0,1,.59,1.09A5.24,5.24,0,0,1,63.81,116Zm-1.79.07a4.49,4.49,0,0,0-.08-.86,2,2,0,0,0-.24-.68,1.27,1.27,0,0,0-.46-.46,1.42,1.42,0,0,0-.72-.16,1.59,1.59,0,0,0-.68.14,1.31,1.31,0,0,0-.48.43,2,2,0,0,0-.28.67,4,4,0,0,0-.09.89,4.54,4.54,0,0,0,.07.86,2.54,2.54,0,0,0,.25.69,1.24,1.24,0,0,0,.46.45,1.54,1.54,0,0,0,.72.15,1.45,1.45,0,0,0,.68-.14,1.22,1.22,0,0,0,.48-.42,1.86,1.86,0,0,0,.28-.67A4,4,0,0,0,62,116.11Z"/><path d="M74.71,119.25a.2.2,0,0,1,0,.13.3.3,0,0,1-.14.08.77.77,0,0,1-.26.06h-.85a.9.9,0,0,1-.27-.06.26.26,0,0,1-.13-.08.2.2,0,0,1,0-.13v-3.74a2.65,2.65,0,0,0-.06-.58,1.51,1.51,0,0,0-.18-.45.86.86,0,0,0-.31-.29.83.83,0,0,0-.43-.1,1,1,0,0,0-.63.25,3.71,3.71,0,0,0-.7.72v4.19a.2.2,0,0,1,0,.13.26.26,0,0,1-.14.08.83.83,0,0,1-.26.06h-.84a.9.9,0,0,1-.27-.06.37.37,0,0,1-.14-.08.2.2,0,0,1,0-.13v-3.74a2.65,2.65,0,0,0-.06-.58,1.51,1.51,0,0,0-.18-.45.83.83,0,0,0-.3-.29.87.87,0,0,0-.44-.1,1,1,0,0,0-.63.25,4,4,0,0,0-.69.72v4.19a.2.2,0,0,1,0,.13.26.26,0,0,1-.14.08.9.9,0,0,1-.27.06h-.84a.9.9,0,0,1-.27-.06.37.37,0,0,1-.14-.08.2.2,0,0,1,0-.13V113a.2.2,0,0,1,0-.13.31.31,0,0,1,.12-.09l.23,0,.36,0,.36,0a.89.89,0,0,1,.23,0,.35.35,0,0,1,.11.09.2.2,0,0,1,0,.13v.72a4,4,0,0,1,1-.84,2.14,2.14,0,0,1,1.06-.29,2.82,2.82,0,0,1,.68.08,2.13,2.13,0,0,1,.55.24,1.77,1.77,0,0,1,.41.36,2.27,2.27,0,0,1,.29.48,4.46,4.46,0,0,1,.54-.53,3.23,3.23,0,0,1,.53-.35,2.1,2.1,0,0,1,.52-.21,2.25,2.25,0,0,1,.52-.07,2.32,2.32,0,0,1,1,.21,1.93,1.93,0,0,1,.68.58,2.18,2.18,0,0,1,.37.85,4.37,4.37,0,0,1,.11,1Z"/><path d="M82.35,116a5.84,5.84,0,0,1-.18,1.51,3.58,3.58,0,0,1-.51,1.15,2.29,2.29,0,0,1-.85.73,2.5,2.5,0,0,1-1.15.26,2,2,0,0,1-.5-.06,1.72,1.72,0,0,1-.43-.16,2.47,2.47,0,0,1-.42-.27c-.14-.11-.28-.24-.43-.38v3a.17.17,0,0,1,0,.12.39.39,0,0,1-.14.1l-.27.06-.42,0-.42,0-.27-.06a.32.32,0,0,1-.14-.1.17.17,0,0,1,0-.12V113a.28.28,0,0,1,0-.13l.12-.09.23,0,.36,0,.35,0a.9.9,0,0,1,.22,0,.48.48,0,0,1,.13.09.28.28,0,0,1,0,.13v.74a6,6,0,0,1,.53-.5,3.54,3.54,0,0,1,.53-.36,2.25,2.25,0,0,1,.56-.22,2.92,2.92,0,0,1,.61-.07,2.2,2.2,0,0,1,1.15.28,2.13,2.13,0,0,1,.78.74,3.38,3.38,0,0,1,.44,1.1A6.43,6.43,0,0,1,82.35,116Zm-1.81.12a4.9,4.9,0,0,0-.06-.77,2.44,2.44,0,0,0-.2-.66,1.24,1.24,0,0,0-.38-.46.88.88,0,0,0-.57-.18,1.26,1.26,0,0,0-.69.23,2.43,2.43,0,0,0-.37.31c-.12.13-.25.29-.39.47v2.08a3.8,3.8,0,0,0,.7.73,1.06,1.06,0,0,0,.69.26,1,1,0,0,0,.58-.17,1.38,1.38,0,0,0,.39-.47,2.41,2.41,0,0,0,.22-.64A3.63,3.63,0,0,0,80.54,116.13Z"/><path d="M89.69,116a4.93,4.93,0,0,1-.21,1.47,3.16,3.16,0,0,1-.63,1.14,2.74,2.74,0,0,1-1,.74,3.81,3.81,0,0,1-1.49.27,3.86,3.86,0,0,1-1.43-.24,2.48,2.48,0,0,1-1-.68,2.75,2.75,0,0,1-.6-1.09,5.23,5.23,0,0,1-.19-1.49,4.88,4.88,0,0,1,.21-1.47,3.13,3.13,0,0,1,.63-1.15A2.89,2.89,0,0,1,85,112.8a3.91,3.91,0,0,1,1.48-.26,4.18,4.18,0,0,1,1.44.23,2.65,2.65,0,0,1,1,.68,2.86,2.86,0,0,1,.59,1.09A5.64,5.64,0,0,1,89.69,116Zm-1.79.07a5.54,5.54,0,0,0-.07-.86,2,2,0,0,0-.25-.68,1.2,1.2,0,0,0-.46-.46,1.42,1.42,0,0,0-.72-.16,1.59,1.59,0,0,0-.68.14,1.31,1.31,0,0,0-.48.43,2.29,2.29,0,0,0-.28.67,4,4,0,0,0-.09.89,4.49,4.49,0,0,0,.08.86,2.24,2.24,0,0,0,.24.69,1.24,1.24,0,0,0,.46.45,1.57,1.57,0,0,0,.72.15,1.52,1.52,0,0,0,.69-.14,1.27,1.27,0,0,0,.47-.42,1.86,1.86,0,0,0,.28-.67A4,4,0,0,0,87.9,116.11Z"/><path d="M96.67,119.25a.2.2,0,0,1,0,.13.26.26,0,0,1-.13.08.9.9,0,0,1-.27.06h-.85a.77.77,0,0,1-.26-.06.3.3,0,0,1-.14-.08.2.2,0,0,1,0-.13v-3.6a2.81,2.81,0,0,0-.07-.72,1.3,1.3,0,0,0-.19-.45.89.89,0,0,0-.32-.29,1,1,0,0,0-.46-.1,1.12,1.12,0,0,0-.67.25,3.21,3.21,0,0,0-.7.72v4.19a.21.21,0,0,1,0,.13.26.26,0,0,1-.14.08.77.77,0,0,1-.26.06h-.85a.77.77,0,0,1-.26-.06.26.26,0,0,1-.14-.08.21.21,0,0,1,0-.13V113a.2.2,0,0,1,0-.13.31.31,0,0,1,.12-.09l.23,0,.36,0,.37,0a.9.9,0,0,1,.22,0l.12.09a.28.28,0,0,1,0,.13v.72a3.88,3.88,0,0,1,1-.84,2.29,2.29,0,0,1,1.1-.29,2.38,2.38,0,0,1,1.06.21,1.91,1.91,0,0,1,.7.58,2.37,2.37,0,0,1,.39.85,5.71,5.71,0,0,1,.11,1.18Z"/><path d="M103.8,115.91a.7.7,0,0,1-.15.49.5.5,0,0,1-.39.15H99.51a2.75,2.75,0,0,0,.09.73,1.3,1.3,0,0,0,.83.91,2.18,2.18,0,0,0,.77.12,3.84,3.84,0,0,0,.8-.07,5.39,5.39,0,0,0,.6-.14L103,118a.76.76,0,0,1,.27-.07.18.18,0,0,1,.11,0s0,0,.07.08a.8.8,0,0,1,0,.18c0,.08,0,.18,0,.3s0,.19,0,.26,0,.14,0,.19a1,1,0,0,1,0,.13.39.39,0,0,1-.08.1.73.73,0,0,1-.24.14,4.51,4.51,0,0,1-.51.16,5.89,5.89,0,0,1-1.57.21,4.45,4.45,0,0,1-1.44-.22,2.51,2.51,0,0,1-1-.64,2.83,2.83,0,0,1-.62-1.09,5.43,5.43,0,0,1-.2-1.54,5.12,5.12,0,0,1,.21-1.52,3.15,3.15,0,0,1,.63-1.14,2.54,2.54,0,0,1,1-.72,3.27,3.27,0,0,1,1.32-.25,3.31,3.31,0,0,1,1.32.24,2.3,2.3,0,0,1,.9.64,2.64,2.64,0,0,1,.52,1,4.4,4.4,0,0,1,.17,1.23Zm-1.69-.5a1.88,1.88,0,0,0-.29-1.18,1.13,1.13,0,0,0-1-.43,1.2,1.2,0,0,0-1,.47,1.52,1.52,0,0,0-.25.51,2.52,2.52,0,0,0-.1.63Z"/><path d="M110.84,119.25a.21.21,0,0,1,0,.13.26.26,0,0,1-.13.08.9.9,0,0,1-.27.06h-.84a.77.77,0,0,1-.27-.06.3.3,0,0,1-.14-.08.2.2,0,0,1,0-.13v-3.6a2.81,2.81,0,0,0-.07-.72,1.3,1.3,0,0,0-.19-.45.89.89,0,0,0-.32-.29,1,1,0,0,0-.46-.1,1.12,1.12,0,0,0-.67.25,3.45,3.45,0,0,0-.7.72v4.19a.28.28,0,0,1,0,.13.35.35,0,0,1-.15.08.77.77,0,0,1-.26.06h-.85a.77.77,0,0,1-.26-.06.26.26,0,0,1-.14-.08.21.21,0,0,1,0-.13V113a.28.28,0,0,1,0-.13.31.31,0,0,1,.12-.09l.23,0,.36,0,.37,0a.9.9,0,0,1,.22,0l.12.09a.28.28,0,0,1,0,.13v.72a3.88,3.88,0,0,1,1-.84,2.29,2.29,0,0,1,1.1-.29,2.46,2.46,0,0,1,1.07.21,2,2,0,0,1,.69.58,2.37,2.37,0,0,1,.39.85,5,5,0,0,1,.12,1.18Z"/><path d="M115.78,118.63a2,2,0,0,1,0,.48.45.45,0,0,1-.1.23.41.41,0,0,1-.18.12,1.1,1.1,0,0,1-.29.09,1.7,1.7,0,0,1-.35.06,2.36,2.36,0,0,1-.38,0,2.67,2.67,0,0,1-.9-.13,1.6,1.6,0,0,1-.63-.41,1.72,1.72,0,0,1-.37-.71,4.13,4.13,0,0,1-.11-1v-3.23h-.74a.22.22,0,0,1-.2-.17,1.45,1.45,0,0,1-.07-.55c0-.14,0-.26,0-.35a.85.85,0,0,1,.06-.22.23.23,0,0,1,.08-.12.28.28,0,0,1,.12,0h.74v-1.4a.28.28,0,0,1,0-.13.28.28,0,0,1,.14-.09.9.9,0,0,1,.27-.06l.42,0,.43,0a.77.77,0,0,1,.26.06.24.24,0,0,1,.14.09.2.2,0,0,1,0,.13v1.4h1.34a.21.21,0,0,1,.12,0,.19.19,0,0,1,.09.12.9.9,0,0,1,.05.22,3.16,3.16,0,0,1,0,.35,1.45,1.45,0,0,1-.07.55c0,.11-.11.17-.2.17h-1.35v3a1.45,1.45,0,0,0,.16.77.61.61,0,0,0,.57.26l.25,0,.19-.06.15-.06.11,0,.08,0a.19.19,0,0,1,0,.1.87.87,0,0,1,0,.21A2.58,2.58,0,0,1,115.78,118.63Z"/><path d="M122.28,115.91a.75.75,0,0,1-.14.49.53.53,0,0,1-.39.15H118a2.39,2.39,0,0,0,.1.73,1.42,1.42,0,0,0,.29.56,1.33,1.33,0,0,0,.53.35,2.18,2.18,0,0,0,.77.12,3.84,3.84,0,0,0,.8-.07,5.39,5.39,0,0,0,.6-.14l.42-.15a.67.67,0,0,1,.27-.07.17.17,0,0,1,.1,0s0,0,.07.08a.8.8,0,0,1,0,.18,2.63,2.63,0,0,1,0,.3,2,2,0,0,1,0,.26.92.92,0,0,1,0,.19.4.4,0,0,1,0,.13.36.36,0,0,1-.07.1.7.7,0,0,1-.25.14,3.94,3.94,0,0,1-.51.16,5.48,5.48,0,0,1-.71.15,5.81,5.81,0,0,1-.86.06,4.45,4.45,0,0,1-1.44-.22,2.47,2.47,0,0,1-1-.64,2.6,2.6,0,0,1-.62-1.09,5.08,5.08,0,0,1-.21-1.54,4.81,4.81,0,0,1,.22-1.52,3.13,3.13,0,0,1,.62-1.14,2.54,2.54,0,0,1,1-.72,3.68,3.68,0,0,1,2.64,0,2.3,2.3,0,0,1,.9.64,2.64,2.64,0,0,1,.52,1,4.4,4.4,0,0,1,.17,1.23Zm-1.69-.5a1.82,1.82,0,0,0-.29-1.18,1.12,1.12,0,0,0-1-.43,1.18,1.18,0,0,0-.58.13,1.23,1.23,0,0,0-.41.34,1.52,1.52,0,0,0-.25.51,3.07,3.07,0,0,0-.1.63Z"/><path d="M127.77,117.47a2.18,2.18,0,0,1-.2,1,1.82,1.82,0,0,1-.55.68,2.42,2.42,0,0,1-.85.42,4.07,4.07,0,0,1-1.07.14,3.52,3.52,0,0,1-.66-.06,3.57,3.57,0,0,1-.56-.13,3,3,0,0,1-.42-.17.83.83,0,0,1-.24-.16.49.49,0,0,1-.12-.23,2.55,2.55,0,0,1,0-.47,2.63,2.63,0,0,1,0-.33.54.54,0,0,1,0-.2.15.15,0,0,1,.07-.1l.1,0a.5.5,0,0,1,.22.09l.37.19a3.78,3.78,0,0,0,.52.2,2.31,2.31,0,0,0,.67.09,1.42,1.42,0,0,0,.42,0,1,1,0,0,0,.31-.14.66.66,0,0,0,.21-.23.84.84,0,0,0,.07-.33.57.57,0,0,0-.13-.36,1.35,1.35,0,0,0-.34-.27l-.48-.21-.54-.22a5.6,5.6,0,0,1-.55-.27,2.28,2.28,0,0,1-.48-.39,1.84,1.84,0,0,1-.34-.54,2.16,2.16,0,0,1-.12-.76,1.87,1.87,0,0,1,.17-.83,1.67,1.67,0,0,1,.5-.65,2.29,2.29,0,0,1,.79-.42,3.41,3.41,0,0,1,1-.15,5.09,5.09,0,0,1,.56,0,4.53,4.53,0,0,1,.49.11,2,2,0,0,1,.38.14.86.86,0,0,1,.21.13.31.31,0,0,1,.1.1.5.5,0,0,1,0,.13.9.9,0,0,1,0,.18,2.35,2.35,0,0,1,0,.28,2.82,2.82,0,0,1,0,.31.5.5,0,0,1,0,.19s0,.08-.07.09a.14.14,0,0,1-.09,0,.53.53,0,0,1-.2-.08,3.15,3.15,0,0,0-.32-.16,4.15,4.15,0,0,0-.46-.15,2.1,2.1,0,0,0-.59-.08,1.58,1.58,0,0,0-.41,0,.67.67,0,0,0-.28.14.52.52,0,0,0-.17.22.58.58,0,0,0-.06.26.53.53,0,0,0,.14.37,1,1,0,0,0,.34.26,2.78,2.78,0,0,0,.49.21l.55.22c.19.08.37.17.56.27a2.23,2.23,0,0,1,.48.38,1.79,1.79,0,0,1,.35.54A1.9,1.9,0,0,1,127.77,117.47Z"/><path d="M135.29,119.49l-.75,2.24c0,.12-.15.2-.34.25a3.2,3.2,0,0,1-.81.08,2.59,2.59,0,0,1-.44,0,.53.53,0,0,1-.25-.08.19.19,0,0,1-.09-.14.58.58,0,0,1,0-.2l.83-2.12a.43.43,0,0,1-.17-.13.72.72,0,0,1-.11-.19l-2.12-5.79A1.24,1.24,0,0,1,131,113a.26.26,0,0,1,.09-.21.5.5,0,0,1,.28-.1,3.54,3.54,0,0,1,.52,0h.47a.9.9,0,0,1,.27.06.25.25,0,0,1,.14.13,1.28,1.28,0,0,1,.1.25l1.45,4.22h0l1.33-4.31a.45.45,0,0,1,.11-.24.41.41,0,0,1,.22-.09,3.08,3.08,0,0,1,.53,0,3.28,3.28,0,0,1,.49,0,.52.52,0,0,1,.29.11.27.27,0,0,1,.1.21.93.93,0,0,1-.06.3Z"/><path d="M64.13,133.49a.28.28,0,0,1,0,.13.35.35,0,0,1-.15.08.77.77,0,0,1-.26.06l-.42,0-.43,0a.77.77,0,0,1-.26-.06.26.26,0,0,1-.14-.08.21.21,0,0,1,0-.13V124.2a.21.21,0,0,1,0-.13.27.27,0,0,1,.14-.1l.26-.06.43,0,.42,0,.26.06a.36.36,0,0,1,.15.1.28.28,0,0,1,0,.13Z"/><path d="M71.43,133.49a.2.2,0,0,1,0,.13.23.23,0,0,1-.12.08.58.58,0,0,1-.23.06l-.35,0-.37,0a.64.64,0,0,1-.23-.06.24.24,0,0,1-.11-.08.2.2,0,0,1,0-.13v-.73a3.93,3.93,0,0,1-1,.85,2.42,2.42,0,0,1-2.16.07,1.81,1.81,0,0,1-.7-.58,2.13,2.13,0,0,1-.38-.85,5,5,0,0,1-.12-1.2v-3.86a.28.28,0,0,1,0-.13.42.42,0,0,1,.14-.09,1.46,1.46,0,0,1,.27,0l.42,0,.42,0a1.46,1.46,0,0,1,.27,0,.56.56,0,0,1,.14.09.2.2,0,0,1,0,.13v3.56a3.68,3.68,0,0,0,.06.76,1.36,1.36,0,0,0,.19.44.83.83,0,0,0,.33.29,1,1,0,0,0,.46.11,1.07,1.07,0,0,0,.66-.25,3.75,3.75,0,0,0,.72-.72v-4.19a.2.2,0,0,1,0-.13.33.33,0,0,1,.14-.09,1.2,1.2,0,0,1,.26,0l.42,0,.43,0a1.33,1.33,0,0,1,.26,0,.56.56,0,0,1,.14.09.28.28,0,0,1,0,.13Z"/><path d="M78.59,130.16a.74.74,0,0,1-.14.48.5.5,0,0,1-.39.15H74.31a2.75,2.75,0,0,0,.09.73,1.32,1.32,0,0,0,.3.56,1.2,1.2,0,0,0,.52.35,2.22,2.22,0,0,0,.77.12,4.66,4.66,0,0,0,.8-.06l.6-.15.42-.15a.67.67,0,0,1,.27-.07.15.15,0,0,1,.1,0,.11.11,0,0,1,.07.08.8.8,0,0,1,0,.18,2.63,2.63,0,0,1,0,.3,2,2,0,0,1,0,.26.92.92,0,0,1,0,.19.4.4,0,0,1,0,.13.36.36,0,0,1-.07.1.7.7,0,0,1-.25.14,3.94,3.94,0,0,1-.51.16,5.14,5.14,0,0,1-.71.15,5.81,5.81,0,0,1-.86.06,4.23,4.23,0,0,1-1.44-.22,2.47,2.47,0,0,1-1-.64,2.6,2.6,0,0,1-.62-1.09,5.81,5.81,0,0,1,0-3.06,3.13,3.13,0,0,1,.62-1.14,2.64,2.64,0,0,1,1-.72,3.45,3.45,0,0,1,1.32-.25A3.24,3.24,0,0,1,77,127a2.42,2.42,0,0,1,.91.64,2.8,2.8,0,0,1,.52,1,4.41,4.41,0,0,1,.16,1.23Zm-1.68-.51a1.88,1.88,0,0,0-.3-1.18,1.11,1.11,0,0,0-1-.43,1.21,1.21,0,0,0-.58.13,1.23,1.23,0,0,0-.41.34,1.71,1.71,0,0,0-.24.51,2.13,2.13,0,0,0-.1.63Z"/><path d="M85.3,127.62a1.29,1.29,0,0,1-.08.51c0,.11-.11.16-.18.16h-.73a1.11,1.11,0,0,1,.22.38,1.74,1.74,0,0,1,.06.45,2.48,2.48,0,0,1-.18,1,1.89,1.89,0,0,1-.51.72,2.13,2.13,0,0,1-.81.45,3.51,3.51,0,0,1-1,.15,2.12,2.12,0,0,1-.57-.07,1.39,1.39,0,0,1-.42-.18,1.64,1.64,0,0,0-.14.22.57.57,0,0,0-.07.29A.4.4,0,0,0,81,132a.84.84,0,0,0,.49.15l1.5.05a3.76,3.76,0,0,1,.94.16,2.05,2.05,0,0,1,.69.36,1.59,1.59,0,0,1,.43.57,1.84,1.84,0,0,1,.15.76,2.06,2.06,0,0,1-.2.88,2.18,2.18,0,0,1-.61.72,3.1,3.1,0,0,1-1,.48,5.47,5.47,0,0,1-1.42.17,6.46,6.46,0,0,1-1.34-.12,3,3,0,0,1-.91-.36,1.41,1.41,0,0,1-.52-.54,1.46,1.46,0,0,1-.16-.69,2.12,2.12,0,0,1,0-.44,1.65,1.65,0,0,1,.18-.41,1.9,1.9,0,0,1,.28-.37A2.54,2.54,0,0,1,80,133a1.22,1.22,0,0,1-.46-.44,1.18,1.18,0,0,1-.16-.61,1.58,1.58,0,0,1,.18-.76,2.44,2.44,0,0,1,.49-.62,1.88,1.88,0,0,1-.39-.6,2.14,2.14,0,0,1-.15-.86,2.57,2.57,0,0,1,.19-1,2.18,2.18,0,0,1,.53-.73A2.48,2.48,0,0,1,81,127a3.15,3.15,0,0,1,1-.16,3.43,3.43,0,0,1,.56,0,2.5,2.5,0,0,1,.49.1h2c.08,0,.14,0,.19.15A1.31,1.31,0,0,1,85.3,127.62Zm-1.83,6.53a.58.58,0,0,0-.24-.49,1.35,1.35,0,0,0-.69-.18l-1.24,0a1.81,1.81,0,0,0-.28.26,1.25,1.25,0,0,0-.18.24.65.65,0,0,0-.08.22.78.78,0,0,0,0,.22.57.57,0,0,0,.34.53,2.1,2.1,0,0,0,1,.19,2.48,2.48,0,0,0,.66-.08,1.39,1.39,0,0,0,.44-.22.84.84,0,0,0,.24-.3A1,1,0,0,0,83.47,134.15Zm-.4-5a1.13,1.13,0,0,0-.28-.8A1.08,1.08,0,0,0,82,128a1.06,1.06,0,0,0-.45.09.87.87,0,0,0-.32.24.92.92,0,0,0-.19.35,1.52,1.52,0,0,0-.06.42,1,1,0,0,0,.27.76,1,1,0,0,0,.77.28,1.11,1.11,0,0,0,.46-.08,1.24,1.24,0,0,0,.32-.23,1.08,1.08,0,0,0,.19-.35A1.34,1.34,0,0,0,83.07,129.12Z"/><path d="M92.27,130.28a4.93,4.93,0,0,1-.21,1.47,3.16,3.16,0,0,1-.63,1.14,2.71,2.71,0,0,1-1.06.74,3.76,3.76,0,0,1-1.48.27,3.86,3.86,0,0,1-1.43-.24,2.41,2.41,0,0,1-1-.68,2.75,2.75,0,0,1-.6-1.09,5.23,5.23,0,0,1-.19-1.49,4.88,4.88,0,0,1,.21-1.47,3.13,3.13,0,0,1,.63-1.15,2.81,2.81,0,0,1,1.06-.74,3.91,3.91,0,0,1,1.48-.26,4.18,4.18,0,0,1,1.44.23,2.54,2.54,0,0,1,1,.68,2.82,2.82,0,0,1,.6,1.09A5.64,5.64,0,0,1,92.27,130.28Zm-1.79.07a5.54,5.54,0,0,0-.07-.86,2,2,0,0,0-.25-.68,1.27,1.27,0,0,0-.46-.46,1.42,1.42,0,0,0-.72-.16,1.59,1.59,0,0,0-.68.14,1.31,1.31,0,0,0-.48.43,2.41,2.41,0,0,0-.28.67,4,4,0,0,0-.09.9,4.46,4.46,0,0,0,.08.85,2.24,2.24,0,0,0,.24.69,1.24,1.24,0,0,0,.46.45,1.54,1.54,0,0,0,.72.15,1.45,1.45,0,0,0,.68-.14,1.22,1.22,0,0,0,.48-.42,1.86,1.86,0,0,0,.28-.67A4,4,0,0,0,90.48,130.35Z"/><path d="M101,132.49c0,.12,0,.22,0,.31s0,.15,0,.2a.84.84,0,0,1,0,.14.54.54,0,0,1-.11.14,1.73,1.73,0,0,1-.28.2,4,4,0,0,1-.46.2,4.14,4.14,0,0,1-.56.15,3.08,3.08,0,0,1-.61.06,3.34,3.34,0,0,1-1.27-.23,2.36,2.36,0,0,1-.92-.67,2.8,2.8,0,0,1-.56-1.07,5.84,5.84,0,0,1,0-3.1,3,3,0,0,1,.65-1.14,2.56,2.56,0,0,1,1-.67,3.3,3.3,0,0,1,1.24-.22,3.1,3.1,0,0,1,.54,0,2.87,2.87,0,0,1,.92.32,2,2,0,0,1,.26.19.5.5,0,0,1,.1.13.38.38,0,0,1,0,.14s0,.12,0,.21a2.63,2.63,0,0,1,0,.3,1.54,1.54,0,0,1-.07.57c0,.11-.1.17-.18.17a.4.4,0,0,1-.25-.1l-.31-.22a2.45,2.45,0,0,0-.43-.22,1.69,1.69,0,0,0-.59-.1,1.18,1.18,0,0,0-1,.54,2.77,2.77,0,0,0-.36,1.56,4,4,0,0,0,.09.9,1.85,1.85,0,0,0,.27.65,1,1,0,0,0,.44.39,1.35,1.35,0,0,0,.62.13,1.49,1.49,0,0,0,.62-.11,2.38,2.38,0,0,0,.45-.24l.32-.24a.37.37,0,0,1,.23-.11.17.17,0,0,1,.1,0,.32.32,0,0,1,.07.13c0,.07,0,.15,0,.25A3.63,3.63,0,0,1,101,132.49Z"/><path d="M108.09,130.28a4.93,4.93,0,0,1-.21,1.47,2.89,2.89,0,0,1-.63,1.14,2.74,2.74,0,0,1-1,.74,3.81,3.81,0,0,1-1.49.27,3.86,3.86,0,0,1-1.43-.24,2.48,2.48,0,0,1-1-.68,2.75,2.75,0,0,1-.6-1.09,5.61,5.61,0,0,1-.19-1.49,4.88,4.88,0,0,1,.21-1.47,3,3,0,0,1,.64-1.15,2.85,2.85,0,0,1,1-.74,4,4,0,0,1,1.48-.26,4.14,4.14,0,0,1,1.44.23,2.58,2.58,0,0,1,1,.68,2.94,2.94,0,0,1,.59,1.09A5.26,5.26,0,0,1,108.09,130.28Zm-1.79.07a4.54,4.54,0,0,0-.07-.86,2,2,0,0,0-.25-.68,1.2,1.2,0,0,0-.46-.46,1.42,1.42,0,0,0-.72-.16,1.62,1.62,0,0,0-.68.14,1.21,1.21,0,0,0-.47.43,1.93,1.93,0,0,0-.28.67,3.49,3.49,0,0,0-.1.9,4.46,4.46,0,0,0,.08.85,2.24,2.24,0,0,0,.24.69,1.32,1.32,0,0,0,.46.45,1.59,1.59,0,0,0,.72.15,1.49,1.49,0,0,0,.69-.14,1.27,1.27,0,0,0,.47-.42,1.86,1.86,0,0,0,.28-.67A4,4,0,0,0,106.3,130.35Zm-1.18-6.26.12-.14a.75.75,0,0,1,.18-.08.8.8,0,0,1,.26-.05h.39l.5,0a.6.6,0,0,1,.26.09.12.12,0,0,1,.07.12.26.26,0,0,1-.07.15l-1.34,1.64-.11.12a.46.46,0,0,1-.14.07l-.22,0-.33,0a1.87,1.87,0,0,1-.38,0,.39.39,0,0,1-.2-.06.13.13,0,0,1,0-.12.34.34,0,0,1,.08-.16Z"/><path d="M119,133.49a.21.21,0,0,1,0,.13.26.26,0,0,1-.13.08.9.9,0,0,1-.27.06l-.42,0-.43,0a.77.77,0,0,1-.26-.06.26.26,0,0,1-.14-.08.2.2,0,0,1,0-.13v-3.74a2.65,2.65,0,0,0-.06-.58,1.51,1.51,0,0,0-.18-.45.92.92,0,0,0-.3-.29,1,1,0,0,0-1.07.15,4,4,0,0,0-.69.72v4.19a.28.28,0,0,1,0,.13.37.37,0,0,1-.14.08.9.9,0,0,1-.27.06l-.42,0-.42,0a.77.77,0,0,1-.26-.06.35.35,0,0,1-.15-.08.28.28,0,0,1,0-.13v-3.74a2.65,2.65,0,0,0-.06-.58,1.5,1.5,0,0,0-.17-.45.86.86,0,0,0-.31-.29,1,1,0,0,0-.43-.1,1,1,0,0,0-.64.25,3.69,3.69,0,0,0-.68.72v4.19a.28.28,0,0,1,0,.13.35.35,0,0,1-.15.08.77.77,0,0,1-.26.06l-.42,0-.43,0a.77.77,0,0,1-.26-.06.26.26,0,0,1-.14-.08.21.21,0,0,1,0-.13v-6.3a.28.28,0,0,1,0-.13.31.31,0,0,1,.12-.09,1.11,1.11,0,0,1,.24,0l.35,0,.37,0a.9.9,0,0,1,.22,0,.41.41,0,0,1,.12.09.28.28,0,0,1,0,.13v.72a4,4,0,0,1,1-.84,2.14,2.14,0,0,1,1.06-.29,2.91,2.91,0,0,1,.69.08,2.21,2.21,0,0,1,.54.24,1.59,1.59,0,0,1,.41.36,1.92,1.92,0,0,1,.29.48,6.61,6.61,0,0,1,.54-.53,3.71,3.71,0,0,1,.53-.35,2.27,2.27,0,0,1,.52-.21,2.33,2.33,0,0,1,.53-.07,2.28,2.28,0,0,1,1,.21,2,2,0,0,1,.69.58,2.52,2.52,0,0,1,.37.85,5,5,0,0,1,.11,1Z"/><path d="M126.66,130.28a4.93,4.93,0,0,1-.21,1.47,3.16,3.16,0,0,1-.63,1.14,2.71,2.71,0,0,1-1.06.74,3.76,3.76,0,0,1-1.48.27,3.86,3.86,0,0,1-1.43-.24,2.41,2.41,0,0,1-1-.68,2.75,2.75,0,0,1-.6-1.09,5.23,5.23,0,0,1-.19-1.49,4.88,4.88,0,0,1,.21-1.47,3.13,3.13,0,0,1,.63-1.15A2.81,2.81,0,0,1,122,127a3.91,3.91,0,0,1,1.48-.26,4.18,4.18,0,0,1,1.44.23,2.54,2.54,0,0,1,1,.68,2.8,2.8,0,0,1,.59,1.09A5.24,5.24,0,0,1,126.66,130.28Zm-1.79.07a4.49,4.49,0,0,0-.08-.86,2,2,0,0,0-.24-.68,1.27,1.27,0,0,0-.46-.46,1.42,1.42,0,0,0-.72-.16,1.59,1.59,0,0,0-.68.14,1.31,1.31,0,0,0-.48.43,2.15,2.15,0,0,0-.28.67,4,4,0,0,0-.09.9,4.5,4.5,0,0,0,.07.85,2.25,2.25,0,0,0,.25.69,1.24,1.24,0,0,0,.46.45,1.54,1.54,0,0,0,.72.15,1.45,1.45,0,0,0,.68-.14,1.22,1.22,0,0,0,.48-.42,2,2,0,0,0,.28-.67A4,4,0,0,0,124.87,130.35Z"/><path d="M69.38,139a3,3,0,0,1,0,.33.69.69,0,0,1,0,.19c0,.05,0,.08-.07.09a.09.09,0,0,1-.07,0l-.11,0-.14,0-.21-.05a1.12,1.12,0,0,0-.27,0,.81.81,0,0,0-.33.06.57.57,0,0,0-.22.19,1,1,0,0,0-.13.34,2.55,2.55,0,0,0,0,.52v.58h1.12a.24.24,0,0,1,.12,0,.23.23,0,0,1,.08.12.85.85,0,0,1,.06.22c0,.1,0,.21,0,.35a1.45,1.45,0,0,1-.07.55.22.22,0,0,1-.2.17H67.74v5.1a.28.28,0,0,1,0,.13.56.56,0,0,1-.14.09,1.46,1.46,0,0,1-.27.05l-.42,0-.42,0a1.19,1.19,0,0,1-.27-.05.33.33,0,0,1-.14-.09.2.2,0,0,1,0-.13v-5.1h-.77a.22.22,0,0,1-.2-.17,1.69,1.69,0,0,1-.07-.55,3.32,3.32,0,0,1,0-.35.9.9,0,0,1,0-.22.23.23,0,0,1,.08-.12.27.27,0,0,1,.12,0H66v-.53a4.23,4.23,0,0,1,.13-1.13,2,2,0,0,1,.39-.81,1.65,1.65,0,0,1,.67-.48,2.63,2.63,0,0,1,1-.16,2.89,2.89,0,0,1,.52,0,2,2,0,0,1,.38.1.47.47,0,0,1,.18.1.24.24,0,0,1,.08.13,1.14,1.14,0,0,1,.05.23C69.38,138.77,69.38,138.89,69.38,139Z"/><path d="M75.71,147.73a.2.2,0,0,1,0,.13.31.31,0,0,1-.12.09.9.9,0,0,1-.22.05L75,148l-.37,0a1,1,0,0,1-.23-.05.35.35,0,0,1-.11-.09.2.2,0,0,1,0-.13V147a3.93,3.93,0,0,1-1,.85,2.42,2.42,0,0,1-2.16.07,1.81,1.81,0,0,1-.7-.58,2.13,2.13,0,0,1-.38-.85,5.11,5.11,0,0,1-.11-1.2v-3.86a.28.28,0,0,1,0-.13.42.42,0,0,1,.14-.09,1.46,1.46,0,0,1,.27-.05l.42,0,.42,0a1.46,1.46,0,0,1,.27.05.56.56,0,0,1,.14.09.2.2,0,0,1,0,.13V145a3.68,3.68,0,0,0,.06.76,1.53,1.53,0,0,0,.19.45,1,1,0,0,0,.33.29,1,1,0,0,0,1.12-.15,3.75,3.75,0,0,0,.72-.72v-4.19a.2.2,0,0,1,0-.13.33.33,0,0,1,.14-.09,1.2,1.2,0,0,1,.26-.05l.42,0,.43,0a1.33,1.33,0,0,1,.26.05.56.56,0,0,1,.14.09.2.2,0,0,1,0,.13Z"/><path d="M83.07,147.73a.21.21,0,0,1,0,.13.36.36,0,0,1-.13.09,1.46,1.46,0,0,1-.27.05l-.42,0-.42,0a1.31,1.31,0,0,1-.27-.05.56.56,0,0,1-.14-.09.2.2,0,0,1,0-.13v-3.6a2.81,2.81,0,0,0-.07-.72,1.3,1.3,0,0,0-.19-.45.89.89,0,0,0-.32-.29,1.08,1.08,0,0,0-.46-.1,1.12,1.12,0,0,0-.67.25,3.45,3.45,0,0,0-.7.72v4.19a.28.28,0,0,1,0,.13.49.49,0,0,1-.15.09,1.2,1.2,0,0,1-.26.05l-.42,0-.43,0a1.2,1.2,0,0,1-.26-.05.33.33,0,0,1-.14-.09.21.21,0,0,1,0-.13v-6.3a.28.28,0,0,1,0-.13.31.31,0,0,1,.12-.09,1.11,1.11,0,0,1,.24-.05l.35,0,.37,0a.9.9,0,0,1,.22.05.41.41,0,0,1,.12.09.28.28,0,0,1,0,.13v.72a3.88,3.88,0,0,1,1-.84,2.29,2.29,0,0,1,1.1-.29,2.32,2.32,0,0,1,1.07.22,1.84,1.84,0,0,1,.69.57,2.37,2.37,0,0,1,.39.85,5,5,0,0,1,.12,1.18Z"/><path d="M89.16,146.73c0,.12,0,.22,0,.31s0,.15,0,.2a.84.84,0,0,1,0,.14.54.54,0,0,1-.11.14,1.73,1.73,0,0,1-.28.2,4,4,0,0,1-.46.2,3.65,3.65,0,0,1-1.17.21,3.34,3.34,0,0,1-1.27-.23,2.36,2.36,0,0,1-.92-.67,2.8,2.8,0,0,1-.56-1.07,5.84,5.84,0,0,1,0-3.1,3,3,0,0,1,.65-1.14,2.56,2.56,0,0,1,1-.67,3.3,3.3,0,0,1,1.24-.22,3.1,3.1,0,0,1,.54.05,3.31,3.31,0,0,1,.5.13,2.33,2.33,0,0,1,.42.2,1.39,1.39,0,0,1,.26.18.5.5,0,0,1,.1.13.38.38,0,0,1,0,.14s0,.12,0,.21a2.63,2.63,0,0,1,0,.3,1.54,1.54,0,0,1-.07.57c0,.11-.11.17-.18.17a.4.4,0,0,1-.25-.1l-.31-.22a2.45,2.45,0,0,0-.43-.22,1.69,1.69,0,0,0-.59-.1,1.18,1.18,0,0,0-1,.54,2.77,2.77,0,0,0-.36,1.56,4,4,0,0,0,.09.9,1.85,1.85,0,0,0,.27.65,1,1,0,0,0,.44.39,1.35,1.35,0,0,0,.62.13,1.49,1.49,0,0,0,.62-.11,2.38,2.38,0,0,0,.45-.24l.32-.24a.37.37,0,0,1,.23-.11.17.17,0,0,1,.1,0,.32.32,0,0,1,.07.13c0,.07,0,.15,0,.25A3.63,3.63,0,0,1,89.16,146.73Z"/><path d="M92,139.29a1,1,0,0,1-.22.74,1.13,1.13,0,0,1-.79.21,1.21,1.21,0,0,1-.8-.2,1,1,0,0,1-.2-.71,1.05,1.05,0,0,1,.21-.75,1.15,1.15,0,0,1,.8-.21,1.17,1.17,0,0,1,.79.2A1,1,0,0,1,92,139.29Zm-.14,8.44a.2.2,0,0,1,0,.13.33.33,0,0,1-.14.09,1.33,1.33,0,0,1-.26.05L91,148l-.42,0a1.2,1.2,0,0,1-.26-.05.49.49,0,0,1-.15-.09.28.28,0,0,1,0-.13v-6.29a.21.21,0,0,1,0-.12.36.36,0,0,1,.15-.1l.26-.06.42,0,.43,0,.26.06a.27.27,0,0,1,.14.1.16.16,0,0,1,0,.12Z"/><path d="M99.56,144.52a4.93,4.93,0,0,1-.2,1.47,3.16,3.16,0,0,1-.63,1.14,2.78,2.78,0,0,1-1.06.74,3.78,3.78,0,0,1-1.49.27,3.89,3.89,0,0,1-1.43-.24,2.54,2.54,0,0,1-1-.68,2.73,2.73,0,0,1-.59-1.09,5.22,5.22,0,0,1-.2-1.49,4.88,4.88,0,0,1,.21-1.47A3.3,3.3,0,0,1,93.8,142a2.85,2.85,0,0,1,1-.74,4,4,0,0,1,1.48-.26,4.1,4.1,0,0,1,1.44.23,2.58,2.58,0,0,1,1,.68,2.94,2.94,0,0,1,.59,1.09A5.26,5.26,0,0,1,99.56,144.52Zm-1.79.07a4.61,4.61,0,0,0-.07-.86,2,2,0,0,0-.25-.68,1.17,1.17,0,0,0-.45-.46,1.49,1.49,0,0,0-.73-.16,1.41,1.41,0,0,0-.67.15,1.08,1.08,0,0,0-.48.42,1.93,1.93,0,0,0-.28.67,4,4,0,0,0-.09.9,4.5,4.5,0,0,0,.07.85,2,2,0,0,0,.25.69,1.17,1.17,0,0,0,.46.45,1.54,1.54,0,0,0,.72.15,1.45,1.45,0,0,0,.68-.14,1.38,1.38,0,0,0,.48-.42,2,2,0,0,0,.27-.67A4,4,0,0,0,97.77,144.59Z"/><path d="M106.55,147.73a.28.28,0,0,1,0,.13.56.56,0,0,1-.14.09,1.31,1.31,0,0,1-.27.05l-.42,0-.42,0A1.46,1.46,0,0,1,105,148a.56.56,0,0,1-.14-.09.28.28,0,0,1,0-.13v-3.6a3.45,3.45,0,0,0-.06-.72,1.85,1.85,0,0,0-.19-.45,1,1,0,0,0-.32-.29,1.15,1.15,0,0,0-.46-.1,1.08,1.08,0,0,0-.67.25,3.23,3.23,0,0,0-.71.72v4.19a.2.2,0,0,1,0,.13.56.56,0,0,1-.14.09,1.46,1.46,0,0,1-.27.05l-.42,0-.42,0a1.46,1.46,0,0,1-.27-.05.42.42,0,0,1-.14-.09.2.2,0,0,1,0-.13v-6.3a.28.28,0,0,1,0-.13.36.36,0,0,1,.13-.09,1,1,0,0,1,.23-.05l.35,0,.37,0a1,1,0,0,1,.23.05.35.35,0,0,1,.11.09.28.28,0,0,1,0,.13v.72a4,4,0,0,1,1-.84,2.33,2.33,0,0,1,1.11-.29,2.28,2.28,0,0,1,1.06.22,1.87,1.87,0,0,1,.7.57,2.54,2.54,0,0,1,.38.85,5,5,0,0,1,.12,1.18Z"/><path d="M113.23,147.75a.22.22,0,0,1-.07.16.51.51,0,0,1-.22.08,3.32,3.32,0,0,1-.89,0,.38.38,0,0,1-.2-.08.21.21,0,0,1-.06-.16v-.5a2.61,2.61,0,0,1-.87.65,2.38,2.38,0,0,1-1.08.24,3.15,3.15,0,0,1-.9-.13,2,2,0,0,1-.71-.39,1.75,1.75,0,0,1-.47-.64,2.28,2.28,0,0,1-.17-.89,2.06,2.06,0,0,1,.21-1,1.69,1.69,0,0,1,.63-.67,3.18,3.18,0,0,1,1-.4,7.79,7.79,0,0,1,1.45-.12h.6v-.39a2.06,2.06,0,0,0-.06-.52.93.93,0,0,0-.19-.37.81.81,0,0,0-.36-.22,2.19,2.19,0,0,0-.56-.07,3.08,3.08,0,0,0-.78.1,5.11,5.11,0,0,0-.6.22l-.44.22a.59.59,0,0,1-.29.1.21.21,0,0,1-.13,0,.39.39,0,0,1-.1-.14c0-.06,0-.14-.06-.23a2.64,2.64,0,0,1,0-.29,1.08,1.08,0,0,1,0-.35.45.45,0,0,1,.13-.23,1.21,1.21,0,0,1,.34-.23,4.32,4.32,0,0,1,.56-.23,6.72,6.72,0,0,1,.71-.17,5.16,5.16,0,0,1,.79-.07,4.43,4.43,0,0,1,1.24.15,2,2,0,0,1,.85.44,1.83,1.83,0,0,1,.49.78,3.7,3.7,0,0,1,.15,1.12Zm-1.71-2.7h-.66a3,3,0,0,0-.72.07,1.29,1.29,0,0,0-.49.19.74.74,0,0,0-.27.31.88.88,0,0,0-.09.41.79.79,0,0,0,.25.62,1,1,0,0,0,.68.23,1.3,1.3,0,0,0,.67-.19,2.88,2.88,0,0,0,.63-.56Z"/><path d="M116.62,147a1.27,1.27,0,0,1-.22.86,1,1,0,0,1-.77.22,1,1,0,0,1-.75-.22,1.2,1.2,0,0,1-.21-.83,1.28,1.28,0,0,1,.21-.86,1.44,1.44,0,0,1,1.53,0A1.2,1.2,0,0,1,116.62,147Zm3.2,0a1.28,1.28,0,0,1-.21.86,1.06,1.06,0,0,1-.77.22,1,1,0,0,1-.76-.22,1.2,1.2,0,0,1-.21-.83,1.28,1.28,0,0,1,.21-.86,1,1,0,0,1,.77-.22,1,1,0,0,1,.76.22A1.2,1.2,0,0,1,119.82,147Zm3.21,0a1.27,1.27,0,0,1-.22.86,1,1,0,0,1-.77.22,1,1,0,0,1-.75-.22,1.2,1.2,0,0,1-.21-.83,1.28,1.28,0,0,1,.21-.86,1,1,0,0,1,.76-.22,1,1,0,0,1,.76.22A1.2,1.2,0,0,1,123,147Z"/></svg>