<svg xmlns="http://www.w3.org/2000/svg" viewBox="0 0 150.3 175.9"><defs><style>.cls-1{opacity:0.3;}.cls-2{fill:#fff;}.cls-3{fill:#9ea0a3;}.cls-4{fill:#231f20;}</style></defs><g id="Capa_2" data-name="Capa 2"><g id="Capa_1-2" data-name="Capa 1"><path class="cls-1" d="M4.29,109.73c6.14-32.24.26-71.37,1.2-83.68S11.36,9.41,27.86,9.17s79-4.4,91.64,3.88c0,0,15.86,6.76,8.42,40.4-5.44,24.59-8.28,45.71-8.81,64.37.09,1.32,1.6,18.22,17.89,19.92,0,0-14,2.76-16.47,14.22.88,15.14-.64,24.68-17,23.89-21.12-1-70.4-1.84-84-1.5C-4.76,174.94-1.85,142,4.29,109.73Z"/><path class="cls-2" d="M10.66,102.83c6.15-32.24.27-71.37,1.21-83.68S17.73,2.51,34.24,2.27s78.94-4.4,91.63,3.88c0,0,15.86,6.76,8.42,40.4-5.43,24.59-8.28,45.71-8.81,64.37.1,1.32,1.6,18.22,17.9,19.92,0,0-14,2.76-16.48,14.22.88,15.14-.64,24.68-17,23.89-21.12-1-70.39-1.84-84-1.51C1.61,168,4.52,135.07,10.66,102.83Z"/><path class="cls-3" d="M125.48,110.92a26.56,26.56,0,0,0,1.33,6.18,26.18,26.18,0,0,1-4.12-11.89c.52-18.66,3.37-39.78,8.81-64.37,3.07-13.92,2.16-23.22,0-29.37,3.66,5.43,7,15.87,2.76,35.08C128.86,71.14,126,92.26,125.48,110.92Z"/><path class="cls-3" d="M23.1,161.74c13.6-.34,62.88.49,84,1.5,16.37.79,17.89-8.75,17-23.89,1.31-6.17,6-9.82,10-11.87a19,19,0,0,0,9.26,3.36s-14,2.76-16.48,14.22c.88,15.14-.64,24.68-17,23.89-21.12-1-70.39-1.84-84-1.51-9.38.24-14.69-4.56-17.34-12.37C11.62,159.43,16.29,161.9,23.1,161.74Z"/><path class="cls-4" d="M109.82,170c-21.67-1-70.55-1.83-83.82-1.51h-.08c-5.53.13-10-1.4-13.37-4.55-11-10.4-7.76-36.8-3.1-61.25,4.2-22.08,2.77-47,1.73-65.14-.47-8.13-.84-14.55-.54-18.44C11.63,6,17.58,1.53,34.22,1.25c2.82,0,7.12-.2,12.09-.39,33.51-1.26,70.1-2,80.24,4.43,1.58.74,16.23,8.56,9,41.44-5.38,24.35-8.25,45.36-8.79,64.13.13,1.77,1.66,17.38,16.82,19l6.77.71-6.64,1.3c-.13,0-13.19,2.71-15.52,13.29.59,10.38,0,17.61-4.92,21.63-2.52,2.07-6,3.15-10.68,3.26C111.67,170,110.76,170,109.82,170Zm14.43-59.08c.54-19,3.42-40.07,8.83-64.53,7.14-32.31-7.63-39.24-7.77-39.3l-.2-.11C115,.33,70.38,2,46.42,2.9c-5,.19-9.3.35-12.16.39C18.76,3.52,14,7.09,13.09,19.22c-.28,3.78.08,10.15.55,18.22,1,18.26,2.49,43.27-1.76,65.55h0c-4.3,22.58-7.9,49.75,2.52,59.58,2.87,2.71,6.62,4,11.45,3.85h.07c13.32-.32,62.32.47,84,1.51,5.3.25,9.06-.6,11.52-2.63,4.26-3.5,4.76-10.32,4.19-20.19V145l0-.11c1.7-8,8.85-12,13.44-13.81C125.8,127.23,124.38,112.75,124.25,110.89Z"/><path d="M33.81,46.57a1,1,0,0,1-.12.29.53.53,0,0,1-.24.16,1.71,1.71,0,0,1-.39.07l-.62,0-.67,0a1.82,1.82,0,0,1-.4-.07.49.49,0,0,1-.21-.16,1,1,0,0,1-.1-.29l-1.52-6h0l-1.44,6a.82.82,0,0,1-.1.28.39.39,0,0,1-.21.16,1.15,1.15,0,0,1-.39.08l-.64,0-.68,0a1.71,1.71,0,0,1-.4-.07.39.39,0,0,1-.21-.16,1,1,0,0,1-.11-.29L23.19,38.3a3.19,3.19,0,0,1-.07-.41.28.28,0,0,1,.08-.23.6.6,0,0,1,.31-.1l.58,0h.54a1,1,0,0,1,.31.06.23.23,0,0,1,.14.11.9.9,0,0,1,.05.22L26.8,45.2h0L28.53,38a1,1,0,0,1,.08-.23.3.3,0,0,1,.16-.13,1.1,1.1,0,0,1,.31-.07l.53,0,.56,0a1.07,1.07,0,0,1,.32.06.34.34,0,0,1,.17.14.76.76,0,0,1,.08.23l1.78,7.21h0L34.2,38c0-.08,0-.14.06-.2a.23.23,0,0,1,.14-.13,1,1,0,0,1,.29-.07l.54,0,.5,0a.42.42,0,0,1,.26.1.29.29,0,0,1,.07.24,2.53,2.53,0,0,1-.08.43Z"/><path d="M43,43.48A5.23,5.23,0,0,1,42.82,45a3.27,3.27,0,0,1-.67,1.18A3,3,0,0,1,41,47a4.21,4.21,0,0,1-1.58.27A4.31,4.31,0,0,1,37.94,47a2.66,2.66,0,0,1-1.07-.7,3,3,0,0,1-.63-1.14A5.17,5.17,0,0,1,36,43.61a4.89,4.89,0,0,1,.23-1.52,3.23,3.23,0,0,1,.67-1.19A3,3,0,0,1,38,40.14a4,4,0,0,1,1.58-.28,4.37,4.37,0,0,1,1.52.24,2.63,2.63,0,0,1,1.06.7,3,3,0,0,1,.63,1.14A5.17,5.17,0,0,1,43,43.48Zm-1.9.08a4.82,4.82,0,0,0-.08-.89A2.14,2.14,0,0,0,40.8,42a1.23,1.23,0,0,0-.49-.47,1.55,1.55,0,0,0-.76-.17,1.66,1.66,0,0,0-.72.15,1.32,1.32,0,0,0-.5.44,2,2,0,0,0-.3.7,3.71,3.71,0,0,0-.1.92,4.82,4.82,0,0,0,.08.89,2.14,2.14,0,0,0,.26.71,1.23,1.23,0,0,0,.49.47,1.84,1.84,0,0,0,1.48,0,1.28,1.28,0,0,0,.51-.44,2,2,0,0,0,.29-.69A3.71,3.71,0,0,0,41.14,43.56Z"/><path d="M50.8,43.48A4.92,4.92,0,0,1,50.58,45a3.27,3.27,0,0,1-.67,1.18,2.91,2.91,0,0,1-1.12.77,4.2,4.2,0,0,1-1.57.27A4.37,4.37,0,0,1,45.7,47a2.73,2.73,0,0,1-1.07-.7A3,3,0,0,1,44,45.15a5.53,5.53,0,0,1-.2-1.54A4.9,4.9,0,0,1,44,42.09a3.23,3.23,0,0,1,.67-1.19,3,3,0,0,1,1.12-.76,4,4,0,0,1,1.57-.28,4.33,4.33,0,0,1,1.52.24,2.66,2.66,0,0,1,1.07.7,3,3,0,0,1,.63,1.14A5.53,5.53,0,0,1,50.8,43.48Zm-1.9.08a4.87,4.87,0,0,0-.07-.89,2.38,2.38,0,0,0-.26-.71,1.38,1.38,0,0,0-.49-.47,1.79,1.79,0,0,0-1.48,0,1.28,1.28,0,0,0-.51.44,2.24,2.24,0,0,0-.3.7,4.25,4.25,0,0,0-.1.92,4.06,4.06,0,0,0,.09.89,2.14,2.14,0,0,0,.26.71,1.27,1.27,0,0,0,.48.47,1.61,1.61,0,0,0,.76.16,1.67,1.67,0,0,0,.73-.15,1.43,1.43,0,0,0,.51-.44,2.17,2.17,0,0,0,.29-.69A4.28,4.28,0,0,0,48.9,43.56Z"/><path d="M61.93,40.27a.74.74,0,0,1,0,.19,2.58,2.58,0,0,1-.08.34l-1.74,5.91a.47.47,0,0,1-.1.2.25.25,0,0,1-.17.12,1.31,1.31,0,0,1-.35.06l-.58,0-.59,0a1.31,1.31,0,0,1-.35-.06.39.39,0,0,1-.19-.12.53.53,0,0,1-.09-.2l-1.1-4v-.06l0,.06-1,4a.46.46,0,0,1-.08.2.29.29,0,0,1-.19.12,1.32,1.32,0,0,1-.36.06l-.58,0-.59,0a1.31,1.31,0,0,1-.35-.06.39.39,0,0,1-.19-.12.53.53,0,0,1-.09-.2L51.36,40.8a2.51,2.51,0,0,1-.08-.33,1.91,1.91,0,0,1,0-.2.2.2,0,0,1,0-.13.27.27,0,0,1,.15-.09,1.43,1.43,0,0,1,.28,0h.93a1.55,1.55,0,0,1,.29,0,.39.39,0,0,1,.14.1.47.47,0,0,1,.06.15l1.3,4.8v.09l0-.09,1.21-4.8a1,1,0,0,1,.07-.15.36.36,0,0,1,.15-.1,1.2,1.2,0,0,1,.26,0h.45l.44,0a1.2,1.2,0,0,1,.26.05.21.21,0,0,1,.14.09.27.27,0,0,1,.06.12l1.31,4.84,0,.08V45.1l1.25-4.8a.47.47,0,0,1,.06-.15.39.39,0,0,1,.14-.1l.28,0h.89a1.19,1.19,0,0,1,.27,0,.24.24,0,0,1,.14.09A.28.28,0,0,1,61.93,40.27Z"/><path d="M64.86,46a1.27,1.27,0,0,1-.23.89,1.09,1.09,0,0,1-.81.23,1.14,1.14,0,0,1-.81-.22,1.24,1.24,0,0,1-.22-.86,1.32,1.32,0,0,1,.23-.9,1.14,1.14,0,0,1,.81-.22,1.11,1.11,0,0,1,.8.22A1.23,1.23,0,0,1,64.86,46Zm3.39,0a1.22,1.22,0,0,1-.23.89,1.09,1.09,0,0,1-.81.23,1.14,1.14,0,0,1-.81-.22,1.29,1.29,0,0,1-.22-.86,1.32,1.32,0,0,1,.23-.9,1.6,1.6,0,0,1,1.62,0A1.24,1.24,0,0,1,68.25,46Zm3.4,0a1.27,1.27,0,0,1-.23.89,1.09,1.09,0,0,1-.81.23,1.14,1.14,0,0,1-.81-.22,1.24,1.24,0,0,1-.22-.86,1.32,1.32,0,0,1,.23-.9,1.13,1.13,0,0,1,.8-.22,1.14,1.14,0,0,1,.81.22A1.23,1.23,0,0,1,71.65,46Z"/><path d="M76.48,39.3a2.27,2.27,0,0,1,0-.5.65.65,0,0,1,.17-.33.57.57,0,0,1,.31-.18,1.8,1.8,0,0,1,.5-.06,1.75,1.75,0,0,1,.5.06.56.56,0,0,1,.32.18.65.65,0,0,1,.17.33,2.27,2.27,0,0,1,0,.5,2.47,2.47,0,0,1,0,.52.65.65,0,0,1-.17.33.64.64,0,0,1-.32.19,2.27,2.27,0,0,1-.5,0,2.34,2.34,0,0,1-.5,0,.68.68,0,0,1-.48-.52A2.47,2.47,0,0,1,76.48,39.3Zm.23,2.15a.33.33,0,0,1,0-.14.27.27,0,0,1,.13-.09,1,1,0,0,1,.25-.07l.38,0,.39,0a1.26,1.26,0,0,1,.25.07.24.24,0,0,1,.12.09.34.34,0,0,1,0,.14l.19,6.65a.3.3,0,0,1-.05.16.27.27,0,0,1-.15.12.84.84,0,0,1-.31.07,3.28,3.28,0,0,1-.49,0,3.23,3.23,0,0,1-.48,0,1.33,1.33,0,0,1-.3-.07.37.37,0,0,1-.17-.12.29.29,0,0,1,0-.16Z"/><path d="M88.78,46.39a.73.73,0,0,1-.06.3.6.6,0,0,1-.16.22.65.65,0,0,1-.23.13.9.9,0,0,1-.28,0h-.82a1.84,1.84,0,0,1-.44,0,1,1,0,0,1-.35-.19,1.71,1.71,0,0,1-.3-.37,5.7,5.7,0,0,1-.33-.59l-2.36-4.43c-.14-.27-.27-.55-.42-.86s-.26-.6-.38-.89h0c0,.35,0,.71,0,1s0,.71,0,1.08v5a.25.25,0,0,1,0,.13.3.3,0,0,1-.14.1,1.31,1.31,0,0,1-.27.07l-.43,0-.43,0a1.05,1.05,0,0,1-.26-.07.23.23,0,0,1-.13-.1.18.18,0,0,1,0-.13V38.28a.66.66,0,0,1,.2-.52.72.72,0,0,1,.5-.17h1a2.11,2.11,0,0,1,.47,0,1.19,1.19,0,0,1,.34.16,1.22,1.22,0,0,1,.28.31,2.93,2.93,0,0,1,.27.48L85.9,42c.11.21.21.42.32.62l.3.61c.1.2.19.4.29.59l.27.59h0c0-.34,0-.7,0-1.07s0-.73,0-1.06V37.87a.21.21,0,0,1,0-.13.27.27,0,0,1,.14-.1.9.9,0,0,1,.27-.06,2.76,2.76,0,0,1,.44,0,2.49,2.49,0,0,1,.41,0,.77.77,0,0,1,.26.06.28.28,0,0,1,.13.1.28.28,0,0,1,0,.13Z"/><path d="M96.63,46.82a.17.17,0,0,1,0,.12.22.22,0,0,1-.13.09.7.7,0,0,1-.24.06l-.37,0-.4,0a.7.7,0,0,1-.24-.06.23.23,0,0,1-.12-.09.25.25,0,0,1,0-.12v-.76a4.29,4.29,0,0,1-1.1.88,2.71,2.71,0,0,1-2.29.07,1.82,1.82,0,0,1-.74-.6,2.36,2.36,0,0,1-.4-.88,5.45,5.45,0,0,1-.12-1.25v-4a.2.2,0,0,1,0-.13.33.33,0,0,1,.14-.09,1.55,1.55,0,0,1,.29-.05l.44,0,.45,0,.28.05a.49.49,0,0,1,.15.09.2.2,0,0,1,0,.13V44a3.74,3.74,0,0,0,.07.79,1.29,1.29,0,0,0,.2.46.92.92,0,0,0,.35.3,1,1,0,0,0,.48.11,1.22,1.22,0,0,0,.71-.26,4.32,4.32,0,0,0,.76-.74V40.28a.2.2,0,0,1,0-.13.33.33,0,0,1,.14-.09,1.72,1.72,0,0,1,.29-.05l.44,0,.45,0a1.43,1.43,0,0,1,.28.05.33.33,0,0,1,.14.09.21.21,0,0,1,0,.13Z"/><path d="M104.42,46.82a.17.17,0,0,1,0,.12.27.27,0,0,1-.15.09.9.9,0,0,1-.28.06l-.44,0-.45,0a1,1,0,0,1-.29-.06.24.24,0,0,1-.14-.09.18.18,0,0,1,0-.12V43.09a3,3,0,0,0-.07-.75,1.34,1.34,0,0,0-.2-.47,1.1,1.1,0,0,0-.34-.3,1.07,1.07,0,0,0-.49-.1,1.23,1.23,0,0,0-.71.25,4,4,0,0,0-.74.75v4.35a.18.18,0,0,1,0,.12.27.27,0,0,1-.15.09.9.9,0,0,1-.28.06l-.45,0-.44,0a.9.9,0,0,1-.28-.06.22.22,0,0,1-.15-.09.18.18,0,0,1,0-.12V40.28a.2.2,0,0,1,0-.13.36.36,0,0,1,.13-.09A1.09,1.09,0,0,1,98.6,40L99,40l.39,0a1.11,1.11,0,0,1,.24.05l.12.09a.28.28,0,0,1,0,.13V41a3.94,3.94,0,0,1,1.1-.88,2.43,2.43,0,0,1,1.17-.3,2.66,2.66,0,0,1,1.12.22,2,2,0,0,1,.74.6,2.55,2.55,0,0,1,.41.88,5.41,5.41,0,0,1,.12,1.22Z"/><path d="M110.87,45.78a2.82,2.82,0,0,1,0,.31.69.69,0,0,1,0,.22.39.39,0,0,1,0,.14.6.6,0,0,1-.11.14,1.48,1.48,0,0,1-.3.21,4.09,4.09,0,0,1-1.08.37,3.76,3.76,0,0,1-2-.18,2.64,2.64,0,0,1-1-.69,3.07,3.07,0,0,1-.59-1.12,5,5,0,0,1-.21-1.51,5.28,5.28,0,0,1,.25-1.69,3.29,3.29,0,0,1,.68-1.19,2.75,2.75,0,0,1,1.05-.69,3.64,3.64,0,0,1,1.31-.23,3.68,3.68,0,0,1,.58.05,4.1,4.1,0,0,1,.53.14,2.89,2.89,0,0,1,.43.2,1.31,1.31,0,0,1,.28.19.6.6,0,0,1,.11.14.38.38,0,0,1,0,.14.66.66,0,0,1,0,.21,2.73,2.73,0,0,1,0,.32,1.58,1.58,0,0,1-.08.59c0,.12-.11.18-.19.18a.45.45,0,0,1-.26-.11L110,41.7a2.19,2.19,0,0,0-.46-.23,1.67,1.67,0,0,0-.63-.1,1.24,1.24,0,0,0-1.09.55,2.81,2.81,0,0,0-.39,1.62,4.27,4.27,0,0,0,.1.93,2.11,2.11,0,0,0,.28.68,1.2,1.2,0,0,0,.47.4,1.53,1.53,0,0,0,.66.14,1.6,1.6,0,0,0,.65-.12,2.7,2.7,0,0,0,.48-.25l.35-.25a.39.39,0,0,1,.23-.12.21.21,0,0,1,.11,0,.3.3,0,0,1,.07.14,1.31,1.31,0,0,1,0,.25C110.87,45.48,110.87,45.61,110.87,45.78Z"/><path d="M117.39,46.84a.19.19,0,0,1-.08.16.41.41,0,0,1-.23.08,2.61,2.61,0,0,1-.46,0,2.72,2.72,0,0,1-.48,0,.34.34,0,0,1-.21-.08.19.19,0,0,1-.07-.16v-.52a2.87,2.87,0,0,1-.92.67,2.64,2.64,0,0,1-1.14.24,3.23,3.23,0,0,1-1-.13,2.1,2.1,0,0,1-.75-.41,1.66,1.66,0,0,1-.5-.66,2.36,2.36,0,0,1-.17-.92,2.07,2.07,0,0,1,.22-1,1.8,1.8,0,0,1,.67-.7,3.37,3.37,0,0,1,1.1-.41,8.56,8.56,0,0,1,1.53-.13h.64v-.39a2.12,2.12,0,0,0-.06-.54,1.12,1.12,0,0,0-.21-.39.89.89,0,0,0-.38-.22,2,2,0,0,0-.59-.08,2.91,2.91,0,0,0-.82.11,4.11,4.11,0,0,0-.65.22l-.46.23a.69.69,0,0,1-.3.1.2.2,0,0,1-.15-.05.36.36,0,0,1-.1-.15.7.7,0,0,1-.06-.23,1.47,1.47,0,0,1,0-.31,1.73,1.73,0,0,1,0-.36.62.62,0,0,1,.14-.23,1.57,1.57,0,0,1,.36-.24,6.22,6.22,0,0,1,.6-.24,6.89,6.89,0,0,1,.75-.18,5.71,5.71,0,0,1,.84-.07,5,5,0,0,1,1.31.15,2.14,2.14,0,0,1,.9.47,1.72,1.72,0,0,1,.52.8,4,4,0,0,1,.16,1.16ZM115.58,44h-.71a3.39,3.39,0,0,0-.76.07,1.33,1.33,0,0,0-.51.19.88.88,0,0,0-.29.32,1,1,0,0,0-.09.43.82.82,0,0,0,.26.64,1,1,0,0,0,.72.24,1.33,1.33,0,0,0,.71-.2,2.85,2.85,0,0,0,.67-.58Z"/><path d="M22.74,51.89a1,1,0,0,1-.23.77,1.25,1.25,0,0,1-.84.21,1.28,1.28,0,0,1-.84-.2,1,1,0,0,1-.22-.74,1.14,1.14,0,0,1,.22-.78,1.28,1.28,0,0,1,.85-.21,1.25,1.25,0,0,1,.84.21A1,1,0,0,1,22.74,51.89Zm-.14,8.74a.19.19,0,0,1-.05.13.27.27,0,0,1-.15.09.9.9,0,0,1-.28.06l-.45,0-.44,0a1.05,1.05,0,0,1-.29-.06.27.27,0,0,1-.15-.09.25.25,0,0,1,0-.13V54.12a.25.25,0,0,1,0-.13.36.36,0,0,1,.15-.1l.29-.06.44,0,.45,0,.28.06a.36.36,0,0,1,.15.1.19.19,0,0,1,.05.13Z"/><path d="M34.53,60.63a.19.19,0,0,1-.05.13.28.28,0,0,1-.14.09.9.9,0,0,1-.28.06l-.45,0-.45,0a.9.9,0,0,1-.28-.06.27.27,0,0,1-.15-.09.18.18,0,0,1,0-.13V56.76a2.77,2.77,0,0,0-.06-.6,1.54,1.54,0,0,0-.19-.47,1.18,1.18,0,0,0-.33-.3,1,1,0,0,0-.46-.1,1.12,1.12,0,0,0-.67.25,4.78,4.78,0,0,0-.73.75v4.34a.25.25,0,0,1,0,.13.27.27,0,0,1-.15.09,1.05,1.05,0,0,1-.29.06l-.44,0-.44,0a.9.9,0,0,1-.28-.06.22.22,0,0,1-.15-.09.19.19,0,0,1-.05-.13V56.76a2.77,2.77,0,0,0-.06-.6,1.33,1.33,0,0,0-.19-.47,1,1,0,0,0-.32-.3,1,1,0,0,0-.46-.1,1.08,1.08,0,0,0-.67.25,4.37,4.37,0,0,0-.73.75v4.34a.18.18,0,0,1,0,.13.27.27,0,0,1-.15.09,1,1,0,0,1-.29.06l-.44,0-.45,0a.9.9,0,0,1-.28-.06.27.27,0,0,1-.15-.09.19.19,0,0,1-.05-.13V54.1a.28.28,0,0,1,0-.13.36.36,0,0,1,.13-.09l.25-.05.38,0,.38,0a.89.89,0,0,1,.24.05.31.31,0,0,1,.12.09.2.2,0,0,1,0,.13v.76A4.18,4.18,0,0,1,26.79,54a2.27,2.27,0,0,1,1.12-.3,2.75,2.75,0,0,1,.73.09,2,2,0,0,1,.57.24,1.8,1.8,0,0,1,.44.38,2.41,2.41,0,0,1,.31.49,4.72,4.72,0,0,1,.57-.54,2.84,2.84,0,0,1,.56-.37,2.34,2.34,0,0,1,.55-.22,2.64,2.64,0,0,1,1.66.15,2,2,0,0,1,.72.6,2.52,2.52,0,0,1,.39.88,4.68,4.68,0,0,1,.12,1.07Z"/><path d="M41.6,60.66a.19.19,0,0,1-.07.16.56.56,0,0,1-.23.08,3.78,3.78,0,0,1-.95,0,.42.42,0,0,1-.21-.08.21.21,0,0,1-.06-.16v-.52a3.15,3.15,0,0,1-.92.67,2.69,2.69,0,0,1-1.15.24,3.21,3.21,0,0,1-.95-.13,2.23,2.23,0,0,1-.76-.41,1.81,1.81,0,0,1-.49-.66,2.19,2.19,0,0,1-.18-.92,2.07,2.07,0,0,1,.23-1,1.84,1.84,0,0,1,.66-.7,3.52,3.52,0,0,1,1.11-.41,8.48,8.48,0,0,1,1.53-.13h.63v-.39a2.12,2.12,0,0,0-.06-.54,1,1,0,0,0-.2-.39,1,1,0,0,0-.38-.22,2,2,0,0,0-.59-.08,3,3,0,0,0-.83.11,4.34,4.34,0,0,0-.64.22l-.46.23a.68.68,0,0,1-.31.1.19.19,0,0,1-.14-.05.28.28,0,0,1-.1-.15,1,1,0,0,1-.07-.23A2.85,2.85,0,0,1,36,55a1.19,1.19,0,0,1,0-.36.51.51,0,0,1,.14-.23,1.57,1.57,0,0,1,.36-.24,6.22,6.22,0,0,1,.6-.24,6.89,6.89,0,0,1,.75-.18,5.71,5.71,0,0,1,.84-.07,5,5,0,0,1,1.31.15,2.2,2.2,0,0,1,.9.47,1.78,1.78,0,0,1,.51.8,3.61,3.61,0,0,1,.16,1.16Zm-1.81-2.8h-.7a4.1,4.1,0,0,0-.76.06,1.51,1.51,0,0,0-.51.2.8.8,0,0,0-.29.32,1,1,0,0,0-.09.43.79.79,0,0,0,.26.64,1,1,0,0,0,.72.24,1.36,1.36,0,0,0,.71-.2,2.64,2.64,0,0,0,.66-.58Z"/><path d="M49,54.56a1.38,1.38,0,0,1-.08.52c-.05.11-.12.16-.2.16H48a1,1,0,0,1,.23.4,1.49,1.49,0,0,1,.07.47,2.46,2.46,0,0,1-.19,1,2,2,0,0,1-.54.75,2.45,2.45,0,0,1-.86.46,3.57,3.57,0,0,1-1.12.16,2.35,2.35,0,0,1-.6-.08,1.54,1.54,0,0,1-.44-.18.91.91,0,0,0-.15.23.59.59,0,0,0-.07.29.42.42,0,0,0,.18.35,1,1,0,0,0,.53.15l1.59.06a3.66,3.66,0,0,1,1,.16,2,2,0,0,1,.73.38,1.53,1.53,0,0,1,.45.59,1.78,1.78,0,0,1,.16.78,2,2,0,0,1-.21.91,2,2,0,0,1-.64.75,3.25,3.25,0,0,1-1.06.49,5.21,5.21,0,0,1-1.5.19,7.27,7.27,0,0,1-1.43-.13,3.05,3.05,0,0,1-1-.37,1.42,1.42,0,0,1-.72-1.28,1.76,1.76,0,0,1,.06-.46,1.9,1.9,0,0,1,.18-.42,2.08,2.08,0,0,1,.3-.38,3.46,3.46,0,0,1,.4-.35,1.36,1.36,0,0,1-.49-.46,1.28,1.28,0,0,1-.17-.64,1.59,1.59,0,0,1,.2-.78,2.4,2.4,0,0,1,.51-.64A2.09,2.09,0,0,1,43,57a2.33,2.33,0,0,1-.15-.89,2.54,2.54,0,0,1,.2-1,2.16,2.16,0,0,1,.56-.77,2.54,2.54,0,0,1,.86-.47,3.43,3.43,0,0,1,1.1-.17,5.28,5.28,0,0,1,.58,0,3.85,3.85,0,0,1,.53.1h2.07A.24.24,0,0,1,49,54,1.41,1.41,0,0,1,49,54.56ZM47.1,61.32a.58.58,0,0,0-.27-.51,1.31,1.31,0,0,0-.72-.19l-1.31,0a3.15,3.15,0,0,0-.31.27,3,3,0,0,0-.18.25.51.51,0,0,0-.09.22.9.9,0,0,0,0,.23.61.61,0,0,0,.37.56,2.38,2.38,0,0,0,1,.19,2.33,2.33,0,0,0,.7-.09,1.23,1.23,0,0,0,.46-.22.8.8,0,0,0,.25-.31A.94.94,0,0,0,47.1,61.32Zm-.44-5.22a1.1,1.1,0,0,0-.29-.82,1.31,1.31,0,0,0-1.3-.2.86.86,0,0,0-.34.25,1.17,1.17,0,0,0-.21.36,1.61,1.61,0,0,0-.06.44,1.08,1.08,0,0,0,.29.79,1.14,1.14,0,0,0,.82.29,1.21,1.21,0,0,0,.48-.09,1,1,0,0,0,.34-.24.91.91,0,0,0,.2-.36A1.16,1.16,0,0,0,46.66,56.1Z"/><path d="M51.94,51.89a1,1,0,0,1-.23.77,1.25,1.25,0,0,1-.84.21,1.28,1.28,0,0,1-.84-.2,1,1,0,0,1-.22-.74,1.08,1.08,0,0,1,.23-.78,1.78,1.78,0,0,1,1.68,0A1,1,0,0,1,51.94,51.89Zm-.14,8.74a.19.19,0,0,1,0,.13.22.22,0,0,1-.15.09.9.9,0,0,1-.28.06l-.44,0-.45,0a.9.9,0,0,1-.28-.06.27.27,0,0,1-.15-.09.19.19,0,0,1,0-.13V54.12A.19.19,0,0,1,50,54a.36.36,0,0,1,.15-.1l.28-.06.45,0,.44,0,.28.06a.26.26,0,0,1,.15.1.19.19,0,0,1,0,.13Z"/><path d="M59.58,60.63a.19.19,0,0,1,0,.13.28.28,0,0,1-.14.09,1,1,0,0,1-.29.06l-.44,0-.45,0a.9.9,0,0,1-.28-.06.27.27,0,0,1-.15-.09.18.18,0,0,1,0-.13V56.91a3,3,0,0,0-.07-.75,1.55,1.55,0,0,0-.2-.47.92.92,0,0,0-.83-.4,1.23,1.23,0,0,0-.71.25,4.07,4.07,0,0,0-.75.75v4.34a.18.18,0,0,1,0,.13.27.27,0,0,1-.15.09,1,1,0,0,1-.28.06l-.45,0-.45,0a.9.9,0,0,1-.28-.06.27.27,0,0,1-.15-.09.18.18,0,0,1,0-.13V54.1a.28.28,0,0,1,0-.13.42.42,0,0,1,.14-.09,1.11,1.11,0,0,1,.24-.05l.38,0,.39,0a.89.89,0,0,1,.23.05.31.31,0,0,1,.12.09.2.2,0,0,1,0,.13v.76A4.09,4.09,0,0,1,56,54a2.48,2.48,0,0,1,1.17-.3,2.71,2.71,0,0,1,1.13.22,2.09,2.09,0,0,1,.74.6,2.53,2.53,0,0,1,.4.88,5.36,5.36,0,0,1,.13,1.22Z"/><path d="M67.12,57.18a.73.73,0,0,1-.15.5.57.57,0,0,1-.41.16h-4a2.48,2.48,0,0,0,.1.75,1.35,1.35,0,0,0,.31.58,1.48,1.48,0,0,0,.56.37,2.49,2.49,0,0,0,.82.12,4.36,4.36,0,0,0,.85-.07,5.9,5.9,0,0,0,.63-.15l.44-.16a1.07,1.07,0,0,1,.29-.07.2.2,0,0,1,.11,0,.22.22,0,0,1,.07.09.78.78,0,0,1,0,.19,2.63,2.63,0,0,1,0,.3v.28c0,.07,0,.14,0,.19a.57.57,0,0,1,0,.14l-.08.1a.79.79,0,0,1-.26.14,3.16,3.16,0,0,1-.54.17,6.2,6.2,0,0,1-.75.15,6.62,6.62,0,0,1-.91.06,4.75,4.75,0,0,1-1.53-.22,2.66,2.66,0,0,1-1.09-.66A2.71,2.71,0,0,1,60.92,59a5.47,5.47,0,0,1-.22-1.6,5.13,5.13,0,0,1,.23-1.57,3.28,3.28,0,0,1,.66-1.19,2.9,2.9,0,0,1,1-.74,3.64,3.64,0,0,1,1.4-.26,3.5,3.5,0,0,1,1.4.25,2.48,2.48,0,0,1,1,.67,2.53,2.53,0,0,1,.54,1,4.33,4.33,0,0,1,.18,1.27Zm-1.79-.53A1.88,1.88,0,0,0,65,55.43,1.21,1.21,0,0,0,64,55a1.33,1.33,0,0,0-.61.13,1.35,1.35,0,0,0-.43.35,1.54,1.54,0,0,0-.26.53,2.33,2.33,0,0,0-.11.65Zm-1-5.76a.57.57,0,0,1,.13-.14.6.6,0,0,1,.18-.09l.28,0,.41,0a3.7,3.7,0,0,1,.53,0,1,1,0,0,1,.28.08s.08.08.07.13a.31.31,0,0,1-.07.16l-1.42,1.7-.12.12a.52.52,0,0,1-.15.07l-.23,0h-.35l-.41,0a.43.43,0,0,1-.21-.07.13.13,0,0,1,0-.12.34.34,0,0,1,.07-.17Z"/><path d="M77.62,63.23a.2.2,0,0,1,0,.13.36.36,0,0,1-.15.1.9.9,0,0,1-.28.06,2.76,2.76,0,0,1-.44,0,3,3,0,0,1-.45,0,.9.9,0,0,1-.28-.06.36.36,0,0,1-.15-.1.28.28,0,0,1,0-.13V60.12a5.93,5.93,0,0,1-.51.42,3.31,3.31,0,0,1-.5.3,2.5,2.5,0,0,1-.51.16,2.54,2.54,0,0,1-.56,0,2.35,2.35,0,0,1-1.22-.29,2.38,2.38,0,0,1-.83-.78,3.54,3.54,0,0,1-.46-1.14,6.51,6.51,0,0,1,0-3,3.65,3.65,0,0,1,.56-1.19,2.42,2.42,0,0,1,.9-.75,2.73,2.73,0,0,1,1.24-.27,2.24,2.24,0,0,1,.52.06,2.21,2.21,0,0,1,.5.19,4.26,4.26,0,0,1,.51.35c.18.15.38.32.59.53V54.1a.28.28,0,0,1,0-.13.48.48,0,0,1,.13-.09,1.25,1.25,0,0,1,.24-.05l.38,0,.37,0a1.11,1.11,0,0,1,.24.05.48.48,0,0,1,.13.09.28.28,0,0,1,0,.13Zm-1.83-7a3.88,3.88,0,0,0-.76-.76,1.24,1.24,0,0,0-.76-.27,1,1,0,0,0-.61.18,1.22,1.22,0,0,0-.42.48,2.8,2.8,0,0,0-.24.67,3.84,3.84,0,0,0-.07.76,5.19,5.19,0,0,0,.06.8,2.62,2.62,0,0,0,.22.7,1.26,1.26,0,0,0,.4.48,1,1,0,0,0,.63.18,1.5,1.5,0,0,0,.37-.05,1.79,1.79,0,0,0,.37-.18,2.7,2.7,0,0,0,.38-.33,5.75,5.75,0,0,0,.43-.49Z"/><path d="M85.37,60.63a.18.18,0,0,1,0,.13.19.19,0,0,1-.12.09.77.77,0,0,1-.24.06l-.38,0-.39,0a.7.7,0,0,1-.24-.06.25.25,0,0,1-.13-.09.25.25,0,0,1,0-.13v-.75a4.16,4.16,0,0,1-1.11.88,2.52,2.52,0,0,1-1.16.29,2.56,2.56,0,0,1-1.13-.22,1.89,1.89,0,0,1-.74-.6,2.36,2.36,0,0,1-.4-.88,5.45,5.45,0,0,1-.12-1.25v-4a.2.2,0,0,1,0-.13.39.39,0,0,1,.15-.09,1.43,1.43,0,0,1,.28-.05l.44,0,.45,0a1.43,1.43,0,0,1,.28.05.49.49,0,0,1,.15.09.21.21,0,0,1,0,.13v3.69a4,4,0,0,0,.06.79,1.49,1.49,0,0,0,.2.46.92.92,0,0,0,.35.3,1.07,1.07,0,0,0,.49.11,1.19,1.19,0,0,0,.7-.26,4.08,4.08,0,0,0,.76-.75V54.1a.2.2,0,0,1,0-.13.49.49,0,0,1,.15-.09,1.43,1.43,0,0,1,.28-.05l.45,0,.44,0a1.43,1.43,0,0,1,.28.05.49.49,0,0,1,.15.09.2.2,0,0,1,0,.13Z"/><path d="M93,57.18a.73.73,0,0,1-.15.5.57.57,0,0,1-.41.16h-4a2.48,2.48,0,0,0,.1.75,1.35,1.35,0,0,0,.31.58,1.48,1.48,0,0,0,.56.37,2.49,2.49,0,0,0,.82.12,4.36,4.36,0,0,0,.85-.07,5.9,5.9,0,0,0,.63-.15l.44-.16a1,1,0,0,1,.29-.07.2.2,0,0,1,.11,0,.22.22,0,0,1,.07.09.78.78,0,0,1,0,.19,2.63,2.63,0,0,1,0,.3,2.35,2.35,0,0,1,0,.28,1,1,0,0,1,0,.19.57.57,0,0,1,0,.14l-.08.1a.79.79,0,0,1-.26.14,3.16,3.16,0,0,1-.54.17,6,6,0,0,1-.76.15,6.37,6.37,0,0,1-.9.06,4.75,4.75,0,0,1-1.53-.22,2.66,2.66,0,0,1-1.09-.66A2.71,2.71,0,0,1,86.76,59a5.47,5.47,0,0,1-.22-1.6,5.13,5.13,0,0,1,.23-1.57,3.28,3.28,0,0,1,.66-1.19,2.9,2.9,0,0,1,1-.74,3.64,3.64,0,0,1,1.4-.26,3.5,3.5,0,0,1,1.4.25,2.37,2.37,0,0,1,1,.67,2.54,2.54,0,0,1,.55,1A4.33,4.33,0,0,1,93,56.88Zm-1.79-.53a1.88,1.88,0,0,0-.31-1.22,1.21,1.21,0,0,0-1-.44,1.31,1.31,0,0,0-.61.13,1.35,1.35,0,0,0-.43.35,1.76,1.76,0,0,0-.27.53,2.76,2.76,0,0,0-.1.65Z"/><path d="M103.3,57.18a.73.73,0,0,1-.15.5.57.57,0,0,1-.41.16h-4a2.48,2.48,0,0,0,.1.75,1.47,1.47,0,0,0,.31.58,1.48,1.48,0,0,0,.56.37,2.49,2.49,0,0,0,.82.12,4.36,4.36,0,0,0,.85-.07,5.9,5.9,0,0,0,.63-.15l.44-.16a1.07,1.07,0,0,1,.29-.07.2.2,0,0,1,.11,0,.22.22,0,0,1,.07.09.49.49,0,0,1,0,.19,2.63,2.63,0,0,1,0,.3v.28c0,.07,0,.14,0,.19a.57.57,0,0,1,0,.14.35.35,0,0,1-.08.1.69.69,0,0,1-.26.14,3.16,3.16,0,0,1-.54.17,6.2,6.2,0,0,1-.75.15,6.62,6.62,0,0,1-.91.06,4.75,4.75,0,0,1-1.53-.22,2.66,2.66,0,0,1-1.09-.66A2.82,2.82,0,0,1,97.1,59a5.49,5.49,0,0,1-.21-1.6,5.14,5.14,0,0,1,.22-1.57,3.28,3.28,0,0,1,.66-1.19,2.9,2.9,0,0,1,1-.74,3.64,3.64,0,0,1,1.4-.26,3.5,3.5,0,0,1,1.4.25,2.48,2.48,0,0,1,1,.67,2.67,2.67,0,0,1,.55,1,4.7,4.7,0,0,1,.17,1.27Zm-1.79-.53a1.82,1.82,0,0,0-.31-1.22,1.21,1.21,0,0,0-1-.44,1.33,1.33,0,0,0-.61.13,1.35,1.35,0,0,0-.43.35,1.75,1.75,0,0,0-.26.53,2.76,2.76,0,0,0-.11.65Z"/><path d="M109.12,58.79a2.17,2.17,0,0,1-.21,1,2,2,0,0,1-.59.71,2.89,2.89,0,0,1-.9.43,4.12,4.12,0,0,1-1.13.14,5.12,5.12,0,0,1-.7,0c-.22,0-.42-.09-.6-.14l-.44-.17a1.18,1.18,0,0,1-.25-.17.46.46,0,0,1-.13-.24,2,2,0,0,1,0-.49,3.33,3.33,0,0,1,0-.34.83.83,0,0,1,0-.2.23.23,0,0,1,.07-.11l.11,0a.6.6,0,0,1,.24.09,3.43,3.43,0,0,0,.39.2,4.24,4.24,0,0,0,.55.21,2.48,2.48,0,0,0,.7.09,1.84,1.84,0,0,0,.44-.05.88.88,0,0,0,.34-.15.56.56,0,0,0,.22-.24.72.72,0,0,0,.07-.33.55.55,0,0,0-.13-.38,1.15,1.15,0,0,0-.36-.28c-.15-.07-.32-.15-.51-.22s-.38-.14-.58-.22-.39-.18-.58-.29a2.69,2.69,0,0,1-.5-.39,1.85,1.85,0,0,1-.36-.57,2.07,2.07,0,0,1-.14-.79,2,2,0,0,1,.19-.86,2,2,0,0,1,.52-.67,2.38,2.38,0,0,1,.84-.43,3.82,3.82,0,0,1,1.71-.11,3.38,3.38,0,0,1,.52.11,2.3,2.3,0,0,1,.4.14,1.86,1.86,0,0,1,.23.13.47.47,0,0,1,.1.11.5.5,0,0,1,0,.13c0,.06,0,.12,0,.2a2.18,2.18,0,0,1,0,.28,2.92,2.92,0,0,1,0,.32.88.88,0,0,1,0,.2.15.15,0,0,1-.07.1l-.1,0a.46.46,0,0,1-.21-.08l-.34-.16c-.14-.06-.3-.11-.49-.17a2.35,2.35,0,0,0-.62-.07,1.75,1.75,0,0,0-.43,0,.69.69,0,0,0-.31.15.62.62,0,0,0-.17.22.63.63,0,0,0-.06.27.54.54,0,0,0,.14.38,1.09,1.09,0,0,0,.37.28c.15.07.32.15.51.22s.39.14.59.22a4.41,4.41,0,0,1,.58.28,2.06,2.06,0,0,1,.52.4A1.88,1.88,0,0,1,109,58,2,2,0,0,1,109.12,58.79Z"/><path d="M113.9,60a2,2,0,0,1,0,.49.53.53,0,0,1-.11.25.62.62,0,0,1-.19.12l-.3.1-.37.06-.41,0a3,3,0,0,1-1-.14,1.52,1.52,0,0,1-.67-.43,1.76,1.76,0,0,1-.39-.73,4,4,0,0,1-.12-1V55.35h-.79q-.14,0-.21-.18a1.54,1.54,0,0,1-.07-.57,1.94,1.94,0,0,1,0-.36,1,1,0,0,1,0-.23.31.31,0,0,1,.09-.12.2.2,0,0,1,.13,0h.78V52.4a.23.23,0,0,1,0-.14.27.27,0,0,1,.14-.1,1.72,1.72,0,0,1,.29,0,2.89,2.89,0,0,1,.44,0,3,3,0,0,1,.45,0,1.55,1.55,0,0,1,.29,0,.39.39,0,0,1,.14.1.24.24,0,0,1,0,.14v1.45h1.42a.16.16,0,0,1,.12,0,.25.25,0,0,1,.1.12,1,1,0,0,1,0,.23,3.53,3.53,0,0,1,0,.36,1.54,1.54,0,0,1-.07.57c0,.12-.12.18-.22.18h-1.42v3.07a1.57,1.57,0,0,0,.16.8.67.67,0,0,0,.61.27,1.09,1.09,0,0,0,.26,0l.21-.06.15-.06.11,0,.09,0a.14.14,0,0,1,.06.1,1.12,1.12,0,0,1,0,.21A3,3,0,0,1,113.9,60Z"/><path d="M120.35,60.66a.19.19,0,0,1-.07.16.56.56,0,0,1-.23.08,3.78,3.78,0,0,1-1,0,.42.42,0,0,1-.21-.08.21.21,0,0,1-.06-.16v-.52a3.15,3.15,0,0,1-.92.67,2.72,2.72,0,0,1-1.15.24,3.21,3.21,0,0,1-1-.13,2.23,2.23,0,0,1-.76-.41,1.81,1.81,0,0,1-.49-.66,2.19,2.19,0,0,1-.18-.92,2.07,2.07,0,0,1,.23-1,1.84,1.84,0,0,1,.66-.7,3.55,3.55,0,0,1,1.1-.41,8.6,8.6,0,0,1,1.54-.13h.63v-.39a2.12,2.12,0,0,0-.06-.54,1,1,0,0,0-.2-.39,1,1,0,0,0-.38-.22,2,2,0,0,0-.59-.08,3,3,0,0,0-.83.11,4.34,4.34,0,0,0-.64.22l-.46.23a.68.68,0,0,1-.31.1.19.19,0,0,1-.14-.05.28.28,0,0,1-.1-.15,1,1,0,0,1-.07-.23,2.85,2.85,0,0,1,0-.31,1.19,1.19,0,0,1,0-.36.51.51,0,0,1,.14-.23,1.57,1.57,0,0,1,.36-.24,6.22,6.22,0,0,1,.6-.24,6.89,6.89,0,0,1,.75-.18,5.71,5.71,0,0,1,.84-.07,5,5,0,0,1,1.31.15,2.2,2.2,0,0,1,.9.47,1.78,1.78,0,0,1,.51.8,3.61,3.61,0,0,1,.16,1.16Zm-1.81-2.8h-.7a4.1,4.1,0,0,0-.76.06,1.51,1.51,0,0,0-.51.2.8.8,0,0,0-.29.32,1,1,0,0,0-.09.43.81.81,0,0,0,.25.64,1.05,1.05,0,0,0,.73.24,1.39,1.39,0,0,0,.71-.2,2.64,2.64,0,0,0,.66-.58Z"/><path d="M40.64,74.46a.17.17,0,0,1,0,.12.27.27,0,0,1-.15.09.9.9,0,0,1-.28.06l-.44,0-.46,0a.9.9,0,0,1-.28-.06.24.24,0,0,1-.14-.09.18.18,0,0,1-.05-.12V70.73a3,3,0,0,0-.07-.75,1.34,1.34,0,0,0-.2-.47,1.1,1.1,0,0,0-.34-.3,1.07,1.07,0,0,0-.49-.1,1.23,1.23,0,0,0-.71.25,3.76,3.76,0,0,0-.74.75v4.35a.18.18,0,0,1,0,.12.27.27,0,0,1-.15.09.9.9,0,0,1-.28.06l-.45,0-.44,0a1,1,0,0,1-.29-.06.27.27,0,0,1-.15-.09.17.17,0,0,1,0-.12V64.82a.22.22,0,0,1,0-.13.36.36,0,0,1,.15-.1l.29-.06.44,0,.45,0,.28.06a.36.36,0,0,1,.15.1.24.24,0,0,1,0,.13v3.61a3.35,3.35,0,0,1,1-.69,2.31,2.31,0,0,1,1-.24,2.71,2.71,0,0,1,1.13.22,2.09,2.09,0,0,1,.74.6,2.69,2.69,0,0,1,.41.89,5.54,5.54,0,0,1,.12,1.24Z"/><path d="M48.19,71a.68.68,0,0,1-.16.5.53.53,0,0,1-.41.16h-4a3,3,0,0,0,.1.76,1.39,1.39,0,0,0,.32.57,1.44,1.44,0,0,0,.55.37,2.49,2.49,0,0,0,.82.12,4.29,4.29,0,0,0,.85-.07,5.36,5.36,0,0,0,.63-.15l.45-.16a1,1,0,0,1,.28-.07.18.18,0,0,1,.11,0,.24.24,0,0,1,.08.09.78.78,0,0,1,0,.19c0,.08,0,.18,0,.3s0,.2,0,.28,0,.14,0,.19a.58.58,0,0,1-.05.14.61.61,0,0,1-.07.1.79.79,0,0,1-.26.14,3.16,3.16,0,0,1-.54.17,6.39,6.39,0,0,1-.76.15,6.52,6.52,0,0,1-.91.06,4.64,4.64,0,0,1-1.52-.22,2.7,2.7,0,0,1-1.1-.66A2.94,2.94,0,0,1,42,72.86a5.49,5.49,0,0,1-.21-1.6A4.84,4.84,0,0,1,42,69.69a3.41,3.41,0,0,1,.65-1.19,2.86,2.86,0,0,1,1.06-.74,3.94,3.94,0,0,1,2.79,0,2.48,2.48,0,0,1,1,.67,2.67,2.67,0,0,1,.55,1,4.35,4.35,0,0,1,.18,1.28Zm-1.79-.53a1.94,1.94,0,0,0-.31-1.22,1.23,1.23,0,0,0-1-.44,1.28,1.28,0,0,0-.61.13,1.29,1.29,0,0,0-.44.36,1.59,1.59,0,0,0-.26.52,2.76,2.76,0,0,0-.11.65Z"/><path d="M53.6,68.53c0,.18,0,.32,0,.43a1.56,1.56,0,0,1,0,.27.32.32,0,0,1-.08.13.21.21,0,0,1-.12,0,.32.32,0,0,1-.13,0L53,69.31l-.2,0a.88.88,0,0,0-.24,0,.73.73,0,0,0-.31.07,1.18,1.18,0,0,0-.31.19,2.3,2.3,0,0,0-.35.35,5.5,5.5,0,0,0-.38.54v4.08a.18.18,0,0,1,0,.12.27.27,0,0,1-.15.09.9.9,0,0,1-.28.06l-.45,0-.44,0a.9.9,0,0,1-.28-.06.27.27,0,0,1-.16-.09.25.25,0,0,1,0-.12V67.92a.2.2,0,0,1,0-.13.36.36,0,0,1,.13-.09,1.11,1.11,0,0,1,.24,0l.38,0,.39,0a1.11,1.11,0,0,1,.24,0l.12.09a.28.28,0,0,1,0,.13v.82a5,5,0,0,1,.48-.61,2.86,2.86,0,0,1,.43-.38,1.51,1.51,0,0,1,.41-.19,1.45,1.45,0,0,1,.41-.06l.21,0,.22,0,.21.06a.5.5,0,0,1,.13.07l.06.08a1,1,0,0,1,0,.12,1.21,1.21,0,0,1,0,.23C53.6,68.21,53.6,68.35,53.6,68.53Z"/><path d="M58.63,68.53c0,.18,0,.32,0,.43a1.56,1.56,0,0,1,0,.27.32.32,0,0,1-.08.13.21.21,0,0,1-.12,0,.32.32,0,0,1-.13,0l-.16-.06-.21,0a.88.88,0,0,0-.24,0,.66.66,0,0,0-.3.07,1.08,1.08,0,0,0-.32.19,2.3,2.3,0,0,0-.35.35,5.5,5.5,0,0,0-.38.54v4.08a.18.18,0,0,1-.05.12.27.27,0,0,1-.15.09.9.9,0,0,1-.28.06l-.44,0-.45,0a.9.9,0,0,1-.28-.06.27.27,0,0,1-.15-.09.18.18,0,0,1,0-.12V67.92a.2.2,0,0,1,0-.13.36.36,0,0,1,.13-.09,1.22,1.22,0,0,1,.25,0l.37,0,.39,0a1.11,1.11,0,0,1,.24,0,.31.31,0,0,1,.12.09.28.28,0,0,1,0,.13v.82a5,5,0,0,1,.48-.61,3.45,3.45,0,0,1,.43-.38,1.66,1.66,0,0,1,.41-.19,1.51,1.51,0,0,1,.41-.06l.21,0,.23,0,.2.06a.5.5,0,0,1,.13.07l.06.08a1,1,0,0,1,0,.12,1.21,1.21,0,0,1,0,.23C58.63,68.21,58.63,68.35,58.63,68.53Z"/><path d="M64.7,74.48a.19.19,0,0,1-.07.16.44.44,0,0,1-.23.08,3.78,3.78,0,0,1-1,0,.34.34,0,0,1-.21-.08.21.21,0,0,1-.06-.16V74a3,3,0,0,1-.92.67,2.72,2.72,0,0,1-1.15.24,3.21,3.21,0,0,1-1-.13,2.14,2.14,0,0,1-.76-.41,1.64,1.64,0,0,1-.49-.66,2.39,2.39,0,0,1,0-1.91,1.87,1.87,0,0,1,.67-.7,3.46,3.46,0,0,1,1.1-.41,8.56,8.56,0,0,1,1.53-.13h.64v-.39a2.12,2.12,0,0,0-.06-.54.87.87,0,0,0-.21-.39.83.83,0,0,0-.38-.22,2,2,0,0,0-.59-.08,3,3,0,0,0-.82.11,4,4,0,0,0-.64.22l-.47.23a.62.62,0,0,1-.3.1.19.19,0,0,1-.14,0,.37.37,0,0,1-.11-.15c0-.06,0-.14-.06-.23a2.69,2.69,0,0,1,0-.31,1.19,1.19,0,0,1,0-.36.51.51,0,0,1,.14-.23,1.21,1.21,0,0,1,.36-.24,6.22,6.22,0,0,1,.6-.24,6.37,6.37,0,0,1,.75-.18,5.69,5.69,0,0,1,.83-.07,5,5,0,0,1,1.32.15,2.41,2.41,0,0,1,.9.47,1.78,1.78,0,0,1,.51.8,3.65,3.65,0,0,1,.16,1.16Zm-1.81-2.8h-.7a3.33,3.33,0,0,0-.76.07,1.66,1.66,0,0,0-.52.19,1,1,0,0,0-.29.32,1,1,0,0,0-.09.43.82.82,0,0,0,.26.64,1,1,0,0,0,.72.24,1.39,1.39,0,0,0,.72-.2,2.64,2.64,0,0,0,.66-.58Z"/><path d="M76.63,74.46a.17.17,0,0,1,0,.12.27.27,0,0,1-.15.09.9.9,0,0,1-.28.06l-.44,0-.46,0a1,1,0,0,1-.28-.06.27.27,0,0,1-.15-.09.25.25,0,0,1,0-.12V70.58a2.77,2.77,0,0,0-.06-.6,1.33,1.33,0,0,0-.19-.47,1,1,0,0,0-.32-.3,1,1,0,0,0-.47-.1,1.07,1.07,0,0,0-.66.25,4.37,4.37,0,0,0-.73.75v4.35a.18.18,0,0,1,0,.12.27.27,0,0,1-.15.09.9.9,0,0,1-.28.06l-.44,0-.45,0a.9.9,0,0,1-.28-.06.27.27,0,0,1-.15-.09.17.17,0,0,1,0-.12V70.58a2.25,2.25,0,0,0-.07-.6,1.54,1.54,0,0,0-.18-.47,1.06,1.06,0,0,0-.33-.3,1,1,0,0,0-.46-.1,1.1,1.1,0,0,0-.67.25,4.37,4.37,0,0,0-.73.75v4.35a.17.17,0,0,1,0,.12.27.27,0,0,1-.15.09.9.9,0,0,1-.28.06l-.45,0-.45,0a1,1,0,0,1-.28-.06.27.27,0,0,1-.15-.09.17.17,0,0,1,0-.12V67.92a.28.28,0,0,1,0-.13.42.42,0,0,1,.14-.09,1.11,1.11,0,0,1,.24,0l.38,0,.39,0a1.11,1.11,0,0,1,.24,0l.12.09a.28.28,0,0,1,0,.13v.76a4.18,4.18,0,0,1,1.08-.88A2.3,2.3,0,0,1,70,67.5a2.63,2.63,0,0,1,.72.09,2.35,2.35,0,0,1,.58.24,1.75,1.75,0,0,1,.43.38,1.77,1.77,0,0,1,.31.49,5.64,5.64,0,0,1,.58-.54,3,3,0,0,1,.55-.37,2.74,2.74,0,0,1,.55-.22,2.68,2.68,0,0,1,.56-.07,2.56,2.56,0,0,1,1.1.22,1.93,1.93,0,0,1,.72.6,2.36,2.36,0,0,1,.4.88,5.32,5.32,0,0,1,.11,1.07Z"/><path d="M80.13,65.71a1,1,0,0,1-.23.77,1.25,1.25,0,0,1-.84.21,1.28,1.28,0,0,1-.84-.2,1,1,0,0,1-.22-.74,1.08,1.08,0,0,1,.23-.78,1.79,1.79,0,0,1,1.68,0A1,1,0,0,1,80.13,65.71ZM80,74.46a.18.18,0,0,1,0,.12.27.27,0,0,1-.15.09.9.9,0,0,1-.28.06l-.45,0-.44,0a.9.9,0,0,1-.28-.06.27.27,0,0,1-.15-.09.18.18,0,0,1,0-.12V67.94a.19.19,0,0,1,0-.13.36.36,0,0,1,.15-.1l.28-.06.44,0,.45,0,.28.06a.36.36,0,0,1,.15.1.19.19,0,0,1,0,.13Z"/><path d="M87.56,71a.73.73,0,0,1-.15.5.57.57,0,0,1-.41.16H83a2.59,2.59,0,0,0,.1.76,1.36,1.36,0,0,0,.87.94,2.49,2.49,0,0,0,.82.12,4.36,4.36,0,0,0,.85-.07,5.9,5.9,0,0,0,.63-.15c.18-.06.33-.11.44-.16A1.07,1.07,0,0,1,87,73a.2.2,0,0,1,.11,0,.22.22,0,0,1,.07.09.78.78,0,0,1,0,.19,2.63,2.63,0,0,1,0,.3v.28c0,.07,0,.14,0,.19a.57.57,0,0,1,0,.14.35.35,0,0,1-.08.1.79.79,0,0,1-.26.14,3.16,3.16,0,0,1-.54.17,6.2,6.2,0,0,1-.75.15,6.62,6.62,0,0,1-.91.06,4.75,4.75,0,0,1-1.53-.22A2.66,2.66,0,0,1,82,74a2.82,2.82,0,0,1-.66-1.13,5.49,5.49,0,0,1-.21-1.6,5.14,5.14,0,0,1,.22-1.57A3.28,3.28,0,0,1,82,68.5a2.9,2.9,0,0,1,1-.74,3.64,3.64,0,0,1,1.4-.26,3.69,3.69,0,0,1,1.4.25,2.48,2.48,0,0,1,1,.67,2.67,2.67,0,0,1,.55,1,4.72,4.72,0,0,1,.17,1.28Zm-1.79-.53a1.82,1.82,0,0,0-.31-1.22,1.21,1.21,0,0,0-1-.44,1.33,1.33,0,0,0-.61.13,1.26,1.26,0,0,0-.43.36,1.41,1.41,0,0,0-.26.52,2.33,2.33,0,0,0-.11.65Z"/><path d="M95,74.46a.18.18,0,0,1,0,.12.28.28,0,0,1-.14.09,1,1,0,0,1-.29.06l-.44,0-.45,0a.9.9,0,0,1-.28-.06.27.27,0,0,1-.15-.09.17.17,0,0,1,0-.12V70.73a3.52,3.52,0,0,0-.07-.75,1.85,1.85,0,0,0-.2-.47.92.92,0,0,0-.83-.4,1.23,1.23,0,0,0-.71.25,4.07,4.07,0,0,0-.75.75v4.35a.17.17,0,0,1,0,.12.27.27,0,0,1-.15.09,1,1,0,0,1-.28.06l-.45,0-.45,0a.9.9,0,0,1-.28-.06.27.27,0,0,1-.15-.09.17.17,0,0,1,0-.12V67.92a.28.28,0,0,1,0-.13.48.48,0,0,1,.13-.09,1.37,1.37,0,0,1,.25,0l.38,0,.38,0a.89.89,0,0,1,.24,0,.31.31,0,0,1,.12.09.2.2,0,0,1,0,.13v.76a4.09,4.09,0,0,1,1.1-.88,2.48,2.48,0,0,1,1.17-.3,2.74,2.74,0,0,1,1.13.22,2,2,0,0,1,.73.6,2.38,2.38,0,0,1,.41.88A5.36,5.36,0,0,1,95,70.42Z"/><path d="M100.25,73.81a2,2,0,0,1,0,.49.54.54,0,0,1-.1.25.87.87,0,0,1-.2.12,1.5,1.5,0,0,1-.3.1l-.37.06-.41,0a3,3,0,0,1-1-.14,1.52,1.52,0,0,1-.67-.43,1.75,1.75,0,0,1-.38-.73,3.56,3.56,0,0,1-.13-1V69.17h-.78a.22.22,0,0,1-.21-.17,1.59,1.59,0,0,1-.08-.58,3.53,3.53,0,0,1,0-.36.64.64,0,0,1,.06-.23.19.19,0,0,1,.09-.12.25.25,0,0,1,.12,0h.78V66.22a.23.23,0,0,1,0-.14.36.36,0,0,1,.15-.1,1.43,1.43,0,0,1,.28,0,5.07,5.07,0,0,1,.9,0,1.43,1.43,0,0,1,.28,0,.36.36,0,0,1,.15.1.33.33,0,0,1,0,.14v1.45H100a.28.28,0,0,1,.13,0,.19.19,0,0,1,.09.12,1,1,0,0,1,0,.23,1.94,1.94,0,0,1,0,.36,1.64,1.64,0,0,1-.07.58c-.05.11-.12.17-.21.17H98.54v3.07a1.56,1.56,0,0,0,.17.8.65.65,0,0,0,.6.27,1,1,0,0,0,.26,0l.21-.06.16-.06.11,0,.08,0a.14.14,0,0,1,.06.1,1.12,1.12,0,0,1,0,.21A1.67,1.67,0,0,1,100.25,73.81Z"/><path d="M106.71,74.48a.19.19,0,0,1-.08.16.41.41,0,0,1-.23.08,2.61,2.61,0,0,1-.46,0,2.72,2.72,0,0,1-.48,0,.34.34,0,0,1-.21-.08.19.19,0,0,1-.07-.16V74a2.87,2.87,0,0,1-.92.67,2.64,2.64,0,0,1-1.14.24,3.23,3.23,0,0,1-1-.13,2.1,2.1,0,0,1-.75-.41,1.66,1.66,0,0,1-.5-.66,2.36,2.36,0,0,1-.17-.92,2.07,2.07,0,0,1,.22-1,1.8,1.8,0,0,1,.67-.7,3.37,3.37,0,0,1,1.1-.41,8.56,8.56,0,0,1,1.53-.13h.64v-.39a2.12,2.12,0,0,0-.06-.54,1,1,0,0,0-.21-.39.89.89,0,0,0-.38-.22,2,2,0,0,0-.59-.08,2.91,2.91,0,0,0-.82.11,4.11,4.11,0,0,0-.65.22c-.18.09-.34.16-.46.23a.65.65,0,0,1-.3.1.2.2,0,0,1-.15,0,.36.36,0,0,1-.1-.15.7.7,0,0,1-.06-.23,1.47,1.47,0,0,1,0-.31,1.73,1.73,0,0,1,0-.36.62.62,0,0,1,.14-.23,1.57,1.57,0,0,1,.36-.24,6.22,6.22,0,0,1,.6-.24,6.89,6.89,0,0,1,.75-.18,5.71,5.71,0,0,1,.84-.07,5.1,5.1,0,0,1,1.32.15,2.29,2.29,0,0,1,.89.47,1.72,1.72,0,0,1,.52.8,4,4,0,0,1,.16,1.16Zm-1.81-2.8h-.71a3.39,3.39,0,0,0-.76.07,1.51,1.51,0,0,0-.51.19.88.88,0,0,0-.29.32,1,1,0,0,0-.09.43.82.82,0,0,0,.26.64,1,1,0,0,0,.72.24,1.33,1.33,0,0,0,.71-.2,2.85,2.85,0,0,0,.67-.58Z"/><path d="M33.06,87.63a2.72,2.72,0,0,1,0,.49.66.66,0,0,1-.11.25.87.87,0,0,1-.2.12,1.5,1.5,0,0,1-.3.1l-.37.06-.41,0a3,3,0,0,1-.95-.14A1.44,1.44,0,0,1,30,88.1a1.65,1.65,0,0,1-.39-.73,3.56,3.56,0,0,1-.13-1V83h-.78c-.09,0-.16-.06-.21-.17a1.59,1.59,0,0,1-.08-.58,3.53,3.53,0,0,1,0-.36.64.64,0,0,1,.06-.23.19.19,0,0,1,.09-.12.28.28,0,0,1,.13,0h.77V80a.33.33,0,0,1,0-.14.36.36,0,0,1,.15-.1,1.55,1.55,0,0,1,.29,0,2.82,2.82,0,0,1,.44,0,3,3,0,0,1,.45,0,1.43,1.43,0,0,1,.28,0,.36.36,0,0,1,.15.1.23.23,0,0,1,0,.14v1.45h1.42a.28.28,0,0,1,.13,0,.19.19,0,0,1,.09.12.94.94,0,0,1,.06.23,3.53,3.53,0,0,1,0,.36,1.59,1.59,0,0,1-.08.58c0,.11-.12.17-.21.17H31.34v3.07a1.56,1.56,0,0,0,.17.8.65.65,0,0,0,.6.27,1,1,0,0,0,.26,0l.21-.06.16-.06.11,0,.08,0a.2.2,0,0,1,.07.1c0,.06,0,.13,0,.21A3,3,0,0,1,33.06,87.63Z"/><path d="M40.28,88.28a.24.24,0,0,1,0,.12.25.25,0,0,1-.13.09.7.7,0,0,1-.24.06l-.38,0-.39,0a.7.7,0,0,1-.24-.06.19.19,0,0,1-.12-.09.17.17,0,0,1,0-.12v-.76a4.29,4.29,0,0,1-1.1.88,2.55,2.55,0,0,1-1.16.29,2.61,2.61,0,0,1-1.14-.22,1.79,1.79,0,0,1-.73-.6,2.38,2.38,0,0,1-.41-.88,5.45,5.45,0,0,1-.12-1.25v-4a.2.2,0,0,1,0-.13.49.49,0,0,1,.15-.09,1.43,1.43,0,0,1,.28,0l.45,0,.44,0a1.55,1.55,0,0,1,.29,0,.49.49,0,0,1,.15.09.2.2,0,0,1,0,.13v3.69a3.17,3.17,0,0,0,.07.79,1.29,1.29,0,0,0,.2.46.89.89,0,0,0,.34.3,1.07,1.07,0,0,0,.49.11,1.24,1.24,0,0,0,.71-.26,4.3,4.3,0,0,0,.75-.74V81.74a.28.28,0,0,1,0-.13.49.49,0,0,1,.15-.09l.28,0,.45,0,.45,0a1.31,1.31,0,0,1,.27,0,.49.49,0,0,1,.15.09.2.2,0,0,1,0,.13Z"/><path d="M47.85,81.73v.09a.6.6,0,0,1,0,.12.39.39,0,0,1,0,.14s0,.11,0,.18l-2,5.91a.38.38,0,0,1-.1.2.31.31,0,0,1-.2.12,1.69,1.69,0,0,1-.39.06l-.64,0-.63,0a1.6,1.6,0,0,1-.39-.06.43.43,0,0,1-.2-.12.75.75,0,0,1-.1-.2l-2-5.91c0-.1,0-.18-.07-.26a.86.86,0,0,1,0-.17v-.1a.17.17,0,0,1,0-.12.27.27,0,0,1,.14-.1,1.43,1.43,0,0,1,.28-.05H42l.49,0a1.72,1.72,0,0,1,.29,0,.27.27,0,0,1,.15.09l.07.15,1.49,4.8,0,.18,0-.18L46,81.76a.51.51,0,0,1,.07-.15.27.27,0,0,1,.15-.09,1.46,1.46,0,0,1,.27,0l.45,0h.45a1.2,1.2,0,0,1,.26.05.24.24,0,0,1,.13.1A.17.17,0,0,1,47.85,81.73Z"/><path d="M50.62,79.53a1,1,0,0,1-.23.77,1.25,1.25,0,0,1-.84.21,1.32,1.32,0,0,1-.84-.2,1,1,0,0,1-.21-.74,1.09,1.09,0,0,1,.22-.78,1.27,1.27,0,0,1,.85-.21,1.22,1.22,0,0,1,.83.21A1,1,0,0,1,50.62,79.53Zm-.14,8.75a.17.17,0,0,1,0,.12.27.27,0,0,1-.15.09,1,1,0,0,1-.28.06l-.45,0-.45,0a.9.9,0,0,1-.28-.06.27.27,0,0,1-.15-.09.17.17,0,0,1,0-.12V81.76a.18.18,0,0,1,0-.13.36.36,0,0,1,.15-.1l.28-.06.45,0,.45,0,.28.06a.36.36,0,0,1,.15.1.18.18,0,0,1,0,.13Z"/><path d="M58.05,84.82a.73.73,0,0,1-.15.5.55.55,0,0,1-.41.16h-4a3,3,0,0,0,.1.76,1.39,1.39,0,0,0,.32.57,1.44,1.44,0,0,0,.55.37,2.49,2.49,0,0,0,.82.12,4.29,4.29,0,0,0,.85-.07,5.36,5.36,0,0,0,.63-.15l.45-.16a.94.94,0,0,1,.28-.07.18.18,0,0,1,.11,0,.24.24,0,0,1,.08.09s0,.11,0,.19,0,.18,0,.3,0,.2,0,.28,0,.14,0,.19a.58.58,0,0,1,0,.14.61.61,0,0,1-.07.1.92.92,0,0,1-.26.14,3.64,3.64,0,0,1-.55.17,6.2,6.2,0,0,1-.75.15,6.52,6.52,0,0,1-.91.06,4.64,4.64,0,0,1-1.52-.22,2.7,2.7,0,0,1-1.1-.66,2.94,2.94,0,0,1-.66-1.13,5.49,5.49,0,0,1-.21-1.6,4.84,4.84,0,0,1,.23-1.57,3.41,3.41,0,0,1,.65-1.19,2.86,2.86,0,0,1,1.06-.74A3.59,3.59,0,0,1,55,81.32a3.47,3.47,0,0,1,1.4.25,2.48,2.48,0,0,1,1,.67,2.67,2.67,0,0,1,.55,1,4.36,4.36,0,0,1,.17,1.28Zm-1.78-.53A1.94,1.94,0,0,0,56,83.07a1.23,1.23,0,0,0-1-.44,1.35,1.35,0,0,0-.62.13,1.47,1.47,0,0,0-.43.35,1.75,1.75,0,0,0-.26.53,2.76,2.76,0,0,0-.11.65Z"/><path d="M63.47,82.35c0,.18,0,.32,0,.43a1.56,1.56,0,0,1,0,.27.32.32,0,0,1-.08.13.21.21,0,0,1-.12,0,.32.32,0,0,1-.13,0l-.17-.06-.2,0a.88.88,0,0,0-.24,0,.89.89,0,0,0-.31.06,1.66,1.66,0,0,0-.32.2,2.28,2.28,0,0,0-.34.35,5.5,5.5,0,0,0-.38.54v4.08a.18.18,0,0,1,0,.12.27.27,0,0,1-.15.09.9.9,0,0,1-.28.06l-.45,0-.44,0a1,1,0,0,1-.29-.06.27.27,0,0,1-.15-.09.17.17,0,0,1,0-.12V81.74a.2.2,0,0,1,0-.13.29.29,0,0,1,.13-.09,1.11,1.11,0,0,1,.24,0l.38,0,.39,0a1.11,1.11,0,0,1,.24,0l.12.09a.28.28,0,0,1,0,.13v.81a5.7,5.7,0,0,1,.48-.6,2.86,2.86,0,0,1,.43-.38,1.51,1.51,0,0,1,.41-.19,1.45,1.45,0,0,1,.41-.06l.21,0,.22,0,.21.06a.5.5,0,0,1,.13.07.22.22,0,0,1,0,.08.34.34,0,0,1,0,.12s0,.13,0,.23S63.47,82.17,63.47,82.35Z"/><path d="M69.54,88.3a.22.22,0,0,1-.07.16.45.45,0,0,1-.24.08,2.54,2.54,0,0,1-.46,0,2.72,2.72,0,0,1-.48,0,.34.34,0,0,1-.21-.08A.21.21,0,0,1,68,88.3v-.52a3,3,0,0,1-.92.67,2.72,2.72,0,0,1-1.15.24,3.23,3.23,0,0,1-1-.13,2.1,2.1,0,0,1-.75-.41,1.75,1.75,0,0,1-.5-.66,2.36,2.36,0,0,1-.17-.92,2.07,2.07,0,0,1,.22-1,1.8,1.8,0,0,1,.67-.7,3.37,3.37,0,0,1,1.1-.41,8.56,8.56,0,0,1,1.53-.13h.64V84a2.12,2.12,0,0,0-.06-.54.87.87,0,0,0-.21-.39.83.83,0,0,0-.38-.22,2,2,0,0,0-.59-.08,2.91,2.91,0,0,0-.82.11,4,4,0,0,0-.64.22l-.47.23a.62.62,0,0,1-.3.1.21.21,0,0,1-.15,0,.36.36,0,0,1-.1-.15c0-.06,0-.14-.06-.23a2.69,2.69,0,0,1,0-.31,1.19,1.19,0,0,1,0-.36.59.59,0,0,1,.13-.23,1.57,1.57,0,0,1,.36-.24,6.22,6.22,0,0,1,.6-.24,6.89,6.89,0,0,1,.75-.18,5.83,5.83,0,0,1,.84-.07,5.05,5.05,0,0,1,1.32.15,2.16,2.16,0,0,1,.89.47,1.72,1.72,0,0,1,.52.8,4,4,0,0,1,.16,1.16Zm-1.81-2.8H67a3.43,3.43,0,0,0-.77.07,1.33,1.33,0,0,0-.51.19.88.88,0,0,0-.29.32,1,1,0,0,0-.09.43.82.82,0,0,0,.26.64,1,1,0,0,0,.72.24,1.39,1.39,0,0,0,.72-.2,3,3,0,0,0,.66-.58Z"/><path d="M80.36,88.28a.24.24,0,0,1,0,.12.25.25,0,0,1-.13.09.7.7,0,0,1-.24.06l-.38,0-.39,0a.7.7,0,0,1-.24-.06.25.25,0,0,1-.13-.09.24.24,0,0,1,0-.12v-.76a4.29,4.29,0,0,1-1.1.88,2.56,2.56,0,0,1-1.17.29,2.59,2.59,0,0,1-1.13-.22,1.89,1.89,0,0,1-.74-.6,2.53,2.53,0,0,1-.4-.88,5.45,5.45,0,0,1-.12-1.25v-4a.2.2,0,0,1,0-.13.49.49,0,0,1,.15-.09,1.43,1.43,0,0,1,.28,0l.45,0,.44,0a1.43,1.43,0,0,1,.28,0,.32.32,0,0,1,.15.09.21.21,0,0,1,0,.13v3.69a3.88,3.88,0,0,0,.06.79,1.5,1.5,0,0,0,.21.46.89.89,0,0,0,.34.3,1.07,1.07,0,0,0,.49.11,1.19,1.19,0,0,0,.7-.26,4.32,4.32,0,0,0,.76-.74V81.74a.28.28,0,0,1,0-.13.49.49,0,0,1,.15-.09,1.43,1.43,0,0,1,.28,0l.45,0,.44,0a1.43,1.43,0,0,1,.28,0,.49.49,0,0,1,.15.09.2.2,0,0,1,0,.13Z"/><path d="M86.52,86.43a2.17,2.17,0,0,1-.21,1,2,2,0,0,1-.59.71,2.89,2.89,0,0,1-.9.43,4.12,4.12,0,0,1-1.13.14,5.12,5.12,0,0,1-.7,0c-.22,0-.42-.09-.6-.14L82,88.33a1,1,0,0,1-.25-.17.46.46,0,0,1-.13-.24,2,2,0,0,1,0-.49,3.33,3.33,0,0,1,0-.34.83.83,0,0,1,0-.2.23.23,0,0,1,.07-.11l.11,0a.6.6,0,0,1,.24.09,3.43,3.43,0,0,0,.39.2,4.69,4.69,0,0,0,.54.21,2.6,2.6,0,0,0,.71.09,1.44,1.44,0,0,0,.44,0,.88.88,0,0,0,.34-.15.56.56,0,0,0,.22-.24.7.7,0,0,0,.07-.33.55.55,0,0,0-.13-.38,1.28,1.28,0,0,0-.36-.28c-.15-.07-.32-.15-.51-.22s-.38-.14-.58-.22a6.27,6.27,0,0,1-.58-.29,2.69,2.69,0,0,1-.5-.39,1.85,1.85,0,0,1-.36-.57,2.07,2.07,0,0,1-.14-.79,1.9,1.9,0,0,1,.19-.86,1.87,1.87,0,0,1,.52-.67,2.38,2.38,0,0,1,.84-.43,3.82,3.82,0,0,1,1.71-.11,3.38,3.38,0,0,1,.52.11,2.3,2.3,0,0,1,.4.14,1.86,1.86,0,0,1,.23.13.47.47,0,0,1,.1.11.5.5,0,0,1,0,.13c0,.06,0,.12,0,.2a2.18,2.18,0,0,1,0,.28,2.92,2.92,0,0,1,0,.32.88.88,0,0,1,0,.2.2.2,0,0,1-.07.1l-.1,0a.46.46,0,0,1-.21-.08l-.34-.16c-.14-.06-.3-.11-.49-.17a2.35,2.35,0,0,0-.62-.07,1.9,1.9,0,0,0-.44.05.71.71,0,0,0-.3.15.62.62,0,0,0-.17.22.63.63,0,0,0-.06.27.54.54,0,0,0,.14.38,1.09,1.09,0,0,0,.37.28c.15.07.32.15.51.22s.39.14.59.22a4.41,4.41,0,0,1,.58.28,2.06,2.06,0,0,1,.52.4,1.88,1.88,0,0,1,.37.56A2,2,0,0,1,86.52,86.43Z"/><path d="M94.21,84.94A5.23,5.23,0,0,1,94,86.47a3.27,3.27,0,0,1-.67,1.18,3,3,0,0,1-1.12.77,4.21,4.21,0,0,1-1.58.27,4.31,4.31,0,0,1-1.51-.24,2.66,2.66,0,0,1-1.07-.7,3,3,0,0,1-.63-1.14,5.17,5.17,0,0,1-.21-1.54,4.89,4.89,0,0,1,.23-1.52,3.23,3.23,0,0,1,.67-1.19,3,3,0,0,1,1.12-.76,4,4,0,0,1,1.57-.28,4.37,4.37,0,0,1,1.52.24,2.73,2.73,0,0,1,1.07.7A3,3,0,0,1,94,83.4,5.17,5.17,0,0,1,94.21,84.94Zm-1.9.08a4.82,4.82,0,0,0-.08-.89,2.14,2.14,0,0,0-.26-.71,1.27,1.27,0,0,0-.48-.47,1.62,1.62,0,0,0-.77-.17,1.66,1.66,0,0,0-.72.15,1.32,1.32,0,0,0-.5.44,2,2,0,0,0-.3.7,3.71,3.71,0,0,0-.1.92,4.82,4.82,0,0,0,.08.89,2.38,2.38,0,0,0,.26.71,1.23,1.23,0,0,0,.49.47,1.58,1.58,0,0,0,.76.16,1.67,1.67,0,0,0,.73-.15,1.32,1.32,0,0,0,.5-.44,2,2,0,0,0,.29-.69A3.71,3.71,0,0,0,92.31,85Z"/><path d="M104.49,84.82a.73.73,0,0,1-.15.5.57.57,0,0,1-.41.16h-4a2.59,2.59,0,0,0,.1.76,1.37,1.37,0,0,0,.31.57,1.48,1.48,0,0,0,.56.37,2.49,2.49,0,0,0,.82.12,4.36,4.36,0,0,0,.85-.07,5.9,5.9,0,0,0,.63-.15l.44-.16a1.07,1.07,0,0,1,.29-.07.2.2,0,0,1,.11,0,.22.22,0,0,1,.07.09.78.78,0,0,1,0,.19,2.63,2.63,0,0,1,0,.3v.28c0,.07,0,.14,0,.19a.57.57,0,0,1,0,.14l-.08.1a.79.79,0,0,1-.26.14,3.16,3.16,0,0,1-.54.17,6.2,6.2,0,0,1-.75.15,6.62,6.62,0,0,1-.91.06,4.75,4.75,0,0,1-1.53-.22A2.66,2.66,0,0,1,99,87.81a2.82,2.82,0,0,1-.66-1.13,5.47,5.47,0,0,1-.22-1.6,5.13,5.13,0,0,1,.23-1.57A3.28,3.28,0,0,1,99,82.32a2.9,2.9,0,0,1,1.05-.74,3.64,3.64,0,0,1,1.4-.26,3.5,3.5,0,0,1,1.4.25,2.48,2.48,0,0,1,1,.67,2.53,2.53,0,0,1,.54,1,4.35,4.35,0,0,1,.18,1.28Zm-1.79-.53a1.88,1.88,0,0,0-.31-1.22,1.21,1.21,0,0,0-1-.44,1.33,1.33,0,0,0-.61.13,1.35,1.35,0,0,0-.43.35,1.54,1.54,0,0,0-.26.53,2.33,2.33,0,0,0-.11.65Z"/><path d="M112,88.28a.18.18,0,0,1,0,.12.28.28,0,0,1-.14.09,1,1,0,0,1-.29.06l-.44,0-.45,0a.9.9,0,0,1-.28-.06.27.27,0,0,1-.15-.09.17.17,0,0,1,0-.12V84.55a3.52,3.52,0,0,0-.07-.75,1.85,1.85,0,0,0-.2-.47.92.92,0,0,0-.83-.4,1.2,1.2,0,0,0-.71.25,4.07,4.07,0,0,0-.75.75v4.35a.17.17,0,0,1,0,.12.27.27,0,0,1-.15.09,1,1,0,0,1-.28.06l-.45,0-.45,0a.9.9,0,0,1-.28-.06.27.27,0,0,1-.15-.09.17.17,0,0,1,0-.12V81.74a.28.28,0,0,1,0-.13.48.48,0,0,1,.13-.09l.25,0,.38,0,.38,0a.89.89,0,0,1,.24,0,.31.31,0,0,1,.12.09.2.2,0,0,1,0,.13v.76a4.09,4.09,0,0,1,1.1-.88,2.48,2.48,0,0,1,1.17-.3,2.74,2.74,0,0,1,1.13.22,2,2,0,0,1,.73.6,2.38,2.38,0,0,1,.41.88,5.36,5.36,0,0,1,.13,1.22Z"/><path d="M30.19,101.45a2,2,0,0,1,0,.49.54.54,0,0,1-.1.25.87.87,0,0,1-.2.12,1.5,1.5,0,0,1-.3.1l-.37.06-.41,0a3,3,0,0,1-.95-.14,1.52,1.52,0,0,1-.67-.43,1.75,1.75,0,0,1-.38-.73,3.56,3.56,0,0,1-.13-1V96.81h-.78a.23.23,0,0,1-.21-.18,1.49,1.49,0,0,1-.08-.57,3.53,3.53,0,0,1,0-.36.64.64,0,0,1,.06-.23.19.19,0,0,1,.09-.12.18.18,0,0,1,.13,0h.77V93.86a.33.33,0,0,1,0-.14.36.36,0,0,1,.15-.1l.28-.05a5.07,5.07,0,0,1,.9,0,1.43,1.43,0,0,1,.28.05.36.36,0,0,1,.15.1.23.23,0,0,1,0,.14v1.45H29.9a.2.2,0,0,1,.13,0,.19.19,0,0,1,.09.12.94.94,0,0,1,.06.23c0,.1,0,.22,0,.36a1.54,1.54,0,0,1-.07.57q-.07.18-.21.18H28.48v3.07a1.56,1.56,0,0,0,.17.8.64.64,0,0,0,.6.26,1,1,0,0,0,.26,0l.21-.06.16-.06.11,0,.08,0a.2.2,0,0,1,.07.1c0,.06,0,.13,0,.21A3.33,3.33,0,0,1,30.19,101.45Z"/><path d="M36.65,102.12a.19.19,0,0,1-.08.16.46.46,0,0,1-.23.08,2.61,2.61,0,0,1-.46,0,2.72,2.72,0,0,1-.48,0,.42.42,0,0,1-.21-.08.22.22,0,0,1-.07-.16v-.52a3,3,0,0,1-.91.67,2.72,2.72,0,0,1-1.15.24,3.23,3.23,0,0,1-1-.13,2.1,2.1,0,0,1-.75-.41,1.84,1.84,0,0,1-.5-.66,2.36,2.36,0,0,1-.17-.92,2.07,2.07,0,0,1,.22-1,1.8,1.8,0,0,1,.67-.7,3.37,3.37,0,0,1,1.1-.41,8.56,8.56,0,0,1,1.53-.13h.64v-.39a2.12,2.12,0,0,0-.06-.54,1,1,0,0,0-.21-.39.83.83,0,0,0-.38-.22,2,2,0,0,0-.59-.08,2.91,2.91,0,0,0-.82.11,4,4,0,0,0-.64.22l-.47.23a.65.65,0,0,1-.3.1.21.21,0,0,1-.15,0,.36.36,0,0,1-.1-.15,1.09,1.09,0,0,1-.06-.23,2.85,2.85,0,0,1,0-.31,1.73,1.73,0,0,1,0-.36.79.79,0,0,1,.14-.23,1.57,1.57,0,0,1,.36-.24,6.22,6.22,0,0,1,.6-.24,6.89,6.89,0,0,1,.75-.18,5.71,5.71,0,0,1,.84-.07,5.1,5.1,0,0,1,1.32.15,2.16,2.16,0,0,1,.89.47,1.72,1.72,0,0,1,.52.8,3.91,3.91,0,0,1,.16,1.16Zm-1.81-2.8h-.7a4.22,4.22,0,0,0-.77.06,1.51,1.51,0,0,0-.51.2.88.88,0,0,0-.29.32,1,1,0,0,0-.09.43.82.82,0,0,0,.26.64,1,1,0,0,0,.72.24,1.39,1.39,0,0,0,.72-.2,3,3,0,0,0,.66-.58Z"/><path d="M44.43,102.09a.19.19,0,0,1,0,.13.28.28,0,0,1-.14.09,1,1,0,0,1-.29.06l-.44,0-.45,0a.9.9,0,0,1-.28-.06.27.27,0,0,1-.15-.09.18.18,0,0,1,0-.13V98.37a3.52,3.52,0,0,0-.07-.75,1.85,1.85,0,0,0-.2-.47.92.92,0,0,0-.83-.4,1.23,1.23,0,0,0-.71.25,4.07,4.07,0,0,0-.75.75v4.34a.18.18,0,0,1,0,.13.27.27,0,0,1-.15.09,1,1,0,0,1-.28.06l-.45,0-.45,0a.9.9,0,0,1-.28-.06.27.27,0,0,1-.15-.09.18.18,0,0,1,0-.13V95.56a.28.28,0,0,1,0-.13.42.42,0,0,1,.14-.09,1.11,1.11,0,0,1,.24,0l.38,0,.38,0a.89.89,0,0,1,.24,0,.31.31,0,0,1,.12.09.2.2,0,0,1,0,.13v.76a4.09,4.09,0,0,1,1.1-.88,2.48,2.48,0,0,1,1.17-.3,2.71,2.71,0,0,1,1.13.22,2.09,2.09,0,0,1,.74.6,2.53,2.53,0,0,1,.4.88,5.36,5.36,0,0,1,.13,1.22Z"/><path d="M49.66,101.45a2,2,0,0,1,0,.49.54.54,0,0,1-.1.25.87.87,0,0,1-.2.12,1.5,1.5,0,0,1-.3.1l-.37.06-.41,0a3,3,0,0,1-1-.14,1.52,1.52,0,0,1-.67-.43,1.88,1.88,0,0,1-.39-.73,4,4,0,0,1-.12-1V96.81h-.78c-.1,0-.17-.06-.22-.18a1.54,1.54,0,0,1-.07-.57,3.53,3.53,0,0,1,0-.36,1,1,0,0,1,0-.23.25.25,0,0,1,.1-.12.16.16,0,0,1,.12,0h.78V93.86a.23.23,0,0,1,0-.14.36.36,0,0,1,.15-.1,1.43,1.43,0,0,1,.28-.05,5.07,5.07,0,0,1,.9,0,1.43,1.43,0,0,1,.28.05.27.27,0,0,1,.14.1.24.24,0,0,1,.05.14v1.45h1.42a.2.2,0,0,1,.13,0,.31.31,0,0,1,.09.12,1,1,0,0,1,0,.23,1.94,1.94,0,0,1,0,.36,1.54,1.54,0,0,1-.07.57q-.08.18-.21.18H48v3.07a1.47,1.47,0,0,0,.17.8.64.64,0,0,0,.6.26,1.1,1.1,0,0,0,.26,0l.21-.06.15-.06.12,0,.08,0a.14.14,0,0,1,.06.1,1.12,1.12,0,0,1,0,.21A1.67,1.67,0,0,1,49.66,101.45Z"/><path d="M57.15,98.76a5.24,5.24,0,0,1-.21,1.53,3.27,3.27,0,0,1-.67,1.18,3,3,0,0,1-1.12.77,4.25,4.25,0,0,1-1.58.27,4.31,4.31,0,0,1-1.51-.24,2.66,2.66,0,0,1-1.07-.7,2.76,2.76,0,0,1-.63-1.14,5.17,5.17,0,0,1-.21-1.54,4.89,4.89,0,0,1,.23-1.52,3.1,3.1,0,0,1,.67-1.19,2.93,2.93,0,0,1,1.11-.76,4,4,0,0,1,1.57-.28,4.39,4.39,0,0,1,1.53.24,2.63,2.63,0,0,1,1.06.7A3,3,0,0,1,57,97.22,5.18,5.18,0,0,1,57.15,98.76Zm-1.89.08a4.82,4.82,0,0,0-.08-.89,2.06,2.06,0,0,0-.26-.71,1.23,1.23,0,0,0-.49-.47,1.55,1.55,0,0,0-.76-.17,1.66,1.66,0,0,0-.72.15,1.32,1.32,0,0,0-.5.44,1.86,1.86,0,0,0-.3.7,3.71,3.71,0,0,0-.1.92,4.82,4.82,0,0,0,.08.89,2.14,2.14,0,0,0,.26.71,1.23,1.23,0,0,0,.49.47,1.84,1.84,0,0,0,1.48,0,1.28,1.28,0,0,0,.51-.44,2,2,0,0,0,.29-.69A3.71,3.71,0,0,0,55.26,98.84Z"/><path d="M62.91,100.25a2.17,2.17,0,0,1-.21,1,1.92,1.92,0,0,1-.59.71,2.69,2.69,0,0,1-.9.43,4.4,4.4,0,0,1-1.12.14,5.12,5.12,0,0,1-.7-.05,5.39,5.39,0,0,1-.6-.14l-.44-.17a1.3,1.3,0,0,1-.26-.17.54.54,0,0,1-.12-.24,2,2,0,0,1,0-.49,3.33,3.33,0,0,1,0-.34.88.88,0,0,1,0-.2.24.24,0,0,1,.08-.11l.11,0a.52.52,0,0,1,.23.09l.4.2a5.12,5.12,0,0,0,.54.21,2.55,2.55,0,0,0,.71.09,2,2,0,0,0,.44,0,1,1,0,0,0,.34-.15.54.54,0,0,0,.21-.24.73.73,0,0,0,.08-.33A.56.56,0,0,0,61,100a1.15,1.15,0,0,0-.36-.28,4.92,4.92,0,0,0-.5-.22c-.19-.06-.38-.14-.58-.22A6.27,6.27,0,0,1,59,99a2.4,2.4,0,0,1-.5-.39,1.85,1.85,0,0,1-.36-.57,2.07,2.07,0,0,1-.14-.79,1.89,1.89,0,0,1,.71-1.53,2.38,2.38,0,0,1,.84-.43,3.81,3.81,0,0,1,1.11-.16,3.94,3.94,0,0,1,.6,0,3.65,3.65,0,0,1,.52.11,2.3,2.3,0,0,1,.4.14l.23.13.1.11s0,.08,0,.13,0,.12,0,.2,0,.16,0,.28,0,.24,0,.32a.88.88,0,0,1,0,.2.2.2,0,0,1-.07.1l-.1,0a.4.4,0,0,1-.21-.08l-.35-.16c-.14-.06-.3-.11-.48-.17a2.38,2.38,0,0,0-.63-.07,1.41,1.41,0,0,0-.43,0,.71.71,0,0,0-.3.15.46.46,0,0,0-.17.22.63.63,0,0,0-.06.27.5.5,0,0,0,.14.38,1.15,1.15,0,0,0,.36.28c.15.07.33.15.52.22s.39.14.59.22a5.12,5.12,0,0,1,.58.28,2.25,2.25,0,0,1,.52.4,1.69,1.69,0,0,1,.36.56A1.8,1.8,0,0,1,62.91,100.25Z"/><path d="M71.69,100.25a2.17,2.17,0,0,1-.21,1,2,2,0,0,1-.59.71,2.69,2.69,0,0,1-.9.43,4.48,4.48,0,0,1-1.13.14,5.24,5.24,0,0,1-.7-.05c-.22,0-.42-.09-.6-.14l-.44-.17a1.18,1.18,0,0,1-.25-.17.46.46,0,0,1-.13-.24,2,2,0,0,1,0-.49,3.33,3.33,0,0,1,0-.34.83.83,0,0,1,.05-.2.23.23,0,0,1,.07-.11l.11,0a.55.55,0,0,1,.24.09l.39.2c.16.07.34.14.55.21a2.48,2.48,0,0,0,.7.09,2,2,0,0,0,.45,0,.84.84,0,0,0,.33-.15.56.56,0,0,0,.22-.24.72.72,0,0,0,.07-.33.55.55,0,0,0-.13-.38,1.15,1.15,0,0,0-.36-.28c-.15-.07-.32-.15-.51-.22l-.58-.22a6.1,6.1,0,0,1-.57-.29,2.46,2.46,0,0,1-.51-.39,1.85,1.85,0,0,1-.36-.57,2.08,2.08,0,0,1-.13-.79,2,2,0,0,1,.18-.86,1.9,1.9,0,0,1,.53-.67,2.38,2.38,0,0,1,.84-.43,3.77,3.77,0,0,1,1.7-.11,3.52,3.52,0,0,1,.53.11,2.49,2.49,0,0,1,.39.14,1.31,1.31,0,0,1,.23.13.47.47,0,0,1,.1.11.5.5,0,0,1,0,.13c0,.06,0,.12,0,.2a2.18,2.18,0,0,1,0,.28,2.92,2.92,0,0,1,0,.32.88.88,0,0,1,0,.2.15.15,0,0,1-.07.1l-.1,0a.4.4,0,0,1-.2-.08l-.35-.16c-.14-.06-.3-.11-.48-.17a2.48,2.48,0,0,0-.63-.07,1.37,1.37,0,0,0-.43,0,.65.65,0,0,0-.3.15.55.55,0,0,0-.18.22.63.63,0,0,0-.06.27.54.54,0,0,0,.14.38,1.2,1.2,0,0,0,.37.28c.15.07.32.15.51.22s.39.14.59.22a5.25,5.25,0,0,1,.59.28,2.2,2.2,0,0,1,.51.4,1.71,1.71,0,0,1,.37.56A2,2,0,0,1,71.69,100.25Z"/><path d="M78.81,98.64a.73.73,0,0,1-.15.5.57.57,0,0,1-.42.16h-4a2.86,2.86,0,0,0,.09.75,1.48,1.48,0,0,0,.32.58,1.41,1.41,0,0,0,.56.37,2.43,2.43,0,0,0,.81.12,4.22,4.22,0,0,0,.85-.07,5.58,5.58,0,0,0,.64-.15l.44-.16a1,1,0,0,1,.29-.07.15.15,0,0,1,.1,0,.24.24,0,0,1,.08.09.78.78,0,0,1,0,.19,2.63,2.63,0,0,1,0,.3,2.35,2.35,0,0,1,0,.28,1,1,0,0,1,0,.19.57.57,0,0,1,0,.14l-.08.1a.79.79,0,0,1-.26.14,3.16,3.16,0,0,1-.54.17,6,6,0,0,1-.76.15,6.42,6.42,0,0,1-.91.06,4.64,4.64,0,0,1-1.52-.22,2.77,2.77,0,0,1-1.1-.66,2.8,2.8,0,0,1-.65-1.13,5.69,5.69,0,0,1,0-3.17,3.28,3.28,0,0,1,.66-1.19,2.82,2.82,0,0,1,1-.74,3.62,3.62,0,0,1,1.39-.26,3.52,3.52,0,0,1,1.41.25,2.52,2.52,0,0,1,1,.67,2.67,2.67,0,0,1,.55,1,4.33,4.33,0,0,1,.18,1.27ZM77,98.11a1.94,1.94,0,0,0-.31-1.22,1.22,1.22,0,0,0-1-.44,1.28,1.28,0,0,0-.61.13,1.35,1.35,0,0,0-.43.35,1.56,1.56,0,0,0-.27.53,2.76,2.76,0,0,0-.1.65Z"/><path d="M85,101.05c0,.13,0,.24,0,.32s0,.16,0,.22a.72.72,0,0,1-.05.14.32.32,0,0,1-.11.14,1.48,1.48,0,0,1-.3.21,2.49,2.49,0,0,1-.49.21,3.28,3.28,0,0,1-.58.16,3.68,3.68,0,0,1-.66.06,3.52,3.52,0,0,1-1.34-.24,2.61,2.61,0,0,1-1-.69,2.94,2.94,0,0,1-.6-1.12,5,5,0,0,1-.2-1.51,5.3,5.3,0,0,1,.24-1.69,3.3,3.3,0,0,1,.69-1.19,2.71,2.71,0,0,1,1-.69,3.73,3.73,0,0,1,1.32-.23,3.66,3.66,0,0,1,.57,0,3.71,3.71,0,0,1,.53.14,3.62,3.62,0,0,1,.44.2,1.19,1.19,0,0,1,.27.19.69.69,0,0,1,.12.14.38.38,0,0,1,.05.14l0,.21c0,.09,0,.19,0,.32a1.58,1.58,0,0,1-.08.59c0,.12-.11.17-.19.17a.43.43,0,0,1-.26-.1,3.76,3.76,0,0,0-.33-.22,2.37,2.37,0,0,0-.45-.23,1.74,1.74,0,0,0-.63-.1,1.24,1.24,0,0,0-1.1.55,2.81,2.81,0,0,0-.38,1.62,4.31,4.31,0,0,0,.09.93,2.18,2.18,0,0,0,.28.67,1.22,1.22,0,0,0,.47.41A1.53,1.53,0,0,0,83,101a1.6,1.6,0,0,0,.65-.12,2.15,2.15,0,0,0,.48-.25c.14-.09.25-.18.35-.25a.39.39,0,0,1,.23-.12.18.18,0,0,1,.11,0,.23.23,0,0,1,.07.14,1.31,1.31,0,0,1,0,.25A3.84,3.84,0,0,1,85,101.05Z"/><path d="M89.87,101.45a2.72,2.72,0,0,1,0,.49.53.53,0,0,1-.11.25.78.78,0,0,1-.19.12l-.3.1-.38.06-.4,0a3,3,0,0,1-1-.14,1.49,1.49,0,0,1-.66-.43,1.65,1.65,0,0,1-.39-.73,4,4,0,0,1-.12-1V96.81h-.79q-.14,0-.21-.18a1.54,1.54,0,0,1-.07-.57c0-.14,0-.26,0-.36a.94.94,0,0,1,.06-.23.19.19,0,0,1,.09-.12.2.2,0,0,1,.13,0h.78V93.86a.23.23,0,0,1,0-.14.27.27,0,0,1,.14-.1,1.55,1.55,0,0,1,.29-.05,2.89,2.89,0,0,1,.44,0,3,3,0,0,1,.45,0,1.3,1.3,0,0,1,.28.05.36.36,0,0,1,.15.1.23.23,0,0,1,0,.14v1.45h1.42a.18.18,0,0,1,.13,0,.19.19,0,0,1,.09.12.64.64,0,0,1,.06.23,3.53,3.53,0,0,1,0,.36,1.49,1.49,0,0,1-.08.57.23.23,0,0,1-.21.18H88.15v3.07a1.56,1.56,0,0,0,.17.8.64.64,0,0,0,.6.26,1.14,1.14,0,0,0,.27,0l.21-.06.15-.06.11,0,.09,0a.29.29,0,0,1,.06.1c0,.06,0,.13,0,.21A3,3,0,0,1,89.87,101.45Z"/><path d="M97.36,98.76a4.92,4.92,0,0,1-.22,1.53,3.27,3.27,0,0,1-.67,1.18,2.91,2.91,0,0,1-1.12.77,4.2,4.2,0,0,1-1.57.27,4.37,4.37,0,0,1-1.52-.24,2.73,2.73,0,0,1-1.07-.7,3,3,0,0,1-.63-1.14,5.53,5.53,0,0,1-.2-1.54,4.9,4.9,0,0,1,.22-1.52,3.23,3.23,0,0,1,.67-1.19,3,3,0,0,1,1.12-.76,4,4,0,0,1,1.57-.28,4.33,4.33,0,0,1,1.52.24,2.66,2.66,0,0,1,1.07.7,2.86,2.86,0,0,1,.62,1.14A5.17,5.17,0,0,1,97.36,98.76Zm-1.9.08a4.87,4.87,0,0,0-.07-.89,2.28,2.28,0,0,0-.26-.71,1.38,1.38,0,0,0-.49-.47,1.79,1.79,0,0,0-1.48,0,1.28,1.28,0,0,0-.51.44,2.24,2.24,0,0,0-.3.7,4.25,4.25,0,0,0-.1.92,4.06,4.06,0,0,0,.09.89,2.14,2.14,0,0,0,.26.71,1.27,1.27,0,0,0,.48.47,1.61,1.61,0,0,0,.76.16,1.67,1.67,0,0,0,.73-.15,1.32,1.32,0,0,0,.5-.44,2,2,0,0,0,.3-.69A4.28,4.28,0,0,0,95.46,98.84Z"/><path d="M102.71,96.17c0,.18,0,.32,0,.43a1.56,1.56,0,0,1,0,.27.32.32,0,0,1-.08.13.21.21,0,0,1-.12,0,.32.32,0,0,1-.13,0l-.17-.06-.2,0a.88.88,0,0,0-.24,0,.85.85,0,0,0-.31.06,1.66,1.66,0,0,0-.32.2,2.28,2.28,0,0,0-.34.35q-.18.22-.39.54v4.07a.18.18,0,0,1,0,.13.27.27,0,0,1-.15.09.9.9,0,0,1-.28.06l-.45,0-.45,0a1,1,0,0,1-.28-.06.27.27,0,0,1-.15-.09.18.18,0,0,1,0-.13V95.56a.28.28,0,0,1,0-.13.42.42,0,0,1,.14-.09,1.11,1.11,0,0,1,.24,0l.38,0,.39,0a1.11,1.11,0,0,1,.24,0l.12.09a.28.28,0,0,1,0,.13v.81a4.66,4.66,0,0,1,.49-.6,2.86,2.86,0,0,1,.43-.38,1.51,1.51,0,0,1,.41-.19,1.45,1.45,0,0,1,.41-.06l.2,0a.91.91,0,0,1,.23,0l.21.06.12.07a.16.16,0,0,1,.06.08.83.83,0,0,1,0,.12s0,.13,0,.23Z"/><path d="M109.42,98.64a.73.73,0,0,1-.15.5.57.57,0,0,1-.42.16h-4a2.84,2.84,0,0,0,.1.75,1.36,1.36,0,0,0,.32.58,1.41,1.41,0,0,0,.56.37,2.39,2.39,0,0,0,.81.12,4.29,4.29,0,0,0,.85-.07,5.58,5.58,0,0,0,.64-.15l.44-.16a1,1,0,0,1,.28-.07.18.18,0,0,1,.11,0,.24.24,0,0,1,.08.09.78.78,0,0,1,0,.19c0,.08,0,.18,0,.3a2.35,2.35,0,0,1,0,.28,1,1,0,0,1,0,.19.58.58,0,0,1,0,.14.3.3,0,0,1-.07.1.79.79,0,0,1-.26.14,3.16,3.16,0,0,1-.54.17,6.39,6.39,0,0,1-.76.15,6.52,6.52,0,0,1-.91.06,4.64,4.64,0,0,1-1.52-.22,2.7,2.7,0,0,1-1.1-.66,2.8,2.8,0,0,1-.65-1.13,5.16,5.16,0,0,1-.22-1.6,4.84,4.84,0,0,1,.23-1.57,3.28,3.28,0,0,1,.66-1.19,2.74,2.74,0,0,1,1-.74,3.59,3.59,0,0,1,1.39-.26,3.44,3.44,0,0,1,1.4.25,2.48,2.48,0,0,1,1,.67,2.67,2.67,0,0,1,.55,1,4.33,4.33,0,0,1,.18,1.27Zm-1.79-.53a1.94,1.94,0,0,0-.31-1.22,1.22,1.22,0,0,0-1-.44,1.28,1.28,0,0,0-.61.13,1.39,1.39,0,0,0-.44.35,1.75,1.75,0,0,0-.26.53,2.76,2.76,0,0,0-.11.65Z"/><path d="M115.23,100.25a2.17,2.17,0,0,1-.21,1,1.92,1.92,0,0,1-.59.71,2.69,2.69,0,0,1-.9.43,4.43,4.43,0,0,1-1.13.14,5.36,5.36,0,0,1-.7-.05,5.75,5.75,0,0,1-.59-.14l-.44-.17a1.3,1.3,0,0,1-.26-.17.54.54,0,0,1-.12-.24,1.93,1.93,0,0,1-.05-.49,3,3,0,0,1,0-.34.88.88,0,0,1,0-.2.35.35,0,0,1,.07-.11l.11,0a.51.51,0,0,1,.24.09l.39.2c.16.07.34.14.55.21a2.55,2.55,0,0,0,.71.09,2,2,0,0,0,.44,0,1,1,0,0,0,.34-.15.61.61,0,0,0,.21-.24.73.73,0,0,0,.08-.33.56.56,0,0,0-.14-.38,1.15,1.15,0,0,0-.36-.28l-.5-.22c-.19-.06-.38-.14-.58-.22a6.27,6.27,0,0,1-.58-.29,2.46,2.46,0,0,1-.51-.39,2,2,0,0,1-.35-.57,1.89,1.89,0,0,1-.14-.79,2,2,0,0,1,.18-.86,1.9,1.9,0,0,1,.53-.67,2.38,2.38,0,0,1,.84-.43,3.81,3.81,0,0,1,1.11-.16,4,4,0,0,1,.6,0,3.65,3.65,0,0,1,.52.11,1.92,1.92,0,0,1,.39.14l.24.13.09.11a.5.5,0,0,1,0,.13,1.12,1.12,0,0,1,0,.2,2.18,2.18,0,0,1,0,.28,2.92,2.92,0,0,1,0,.32.94.94,0,0,1,0,.2.2.2,0,0,1-.07.1l-.1,0a.4.4,0,0,1-.21-.08l-.35-.16c-.14-.06-.3-.11-.48-.17a2.38,2.38,0,0,0-.63-.07,1.41,1.41,0,0,0-.43,0,.71.71,0,0,0-.3.15.55.55,0,0,0-.18.22.62.62,0,0,0,0,.27.53.53,0,0,0,.13.38,1.34,1.34,0,0,0,.37.28A5.44,5.44,0,0,0,113,98c.19.06.39.14.58.22a4.53,4.53,0,0,1,.59.28,2.49,2.49,0,0,1,.52.4,1.69,1.69,0,0,1,.36.56A2,2,0,0,1,115.23,100.25Z"/><path d="M40.76,115.91a.29.29,0,0,1,0,.14.27.27,0,0,1-.12.09.72.72,0,0,1-.24,0l-.37,0-.38,0a.72.72,0,0,1-.24,0,.22.22,0,0,1-.13-.09.21.21,0,0,1,0-.14v-.72a4.25,4.25,0,0,1-1.06.84,2.54,2.54,0,0,1-1.23.3,2.45,2.45,0,0,1-1.26-.29,2.25,2.25,0,0,1-.84-.78,3.35,3.35,0,0,1-.48-1.14,6.91,6.91,0,0,1,0-3,3.63,3.63,0,0,1,.55-1.19,2.37,2.37,0,0,1,.89-.75A2.71,2.71,0,0,1,37,109a2.2,2.2,0,0,1,1,.23,3.59,3.59,0,0,1,.89.65v-3.53a.23.23,0,0,1,0-.14.27.27,0,0,1,.14-.1l.28-.06.45,0,.45,0,.28.06a.39.39,0,0,1,.14.1.24.24,0,0,1,0,.14Zm-1.83-4.36a4.17,4.17,0,0,0-.76-.76,1.26,1.26,0,0,0-.76-.27,1.05,1.05,0,0,0-.62.18,1.4,1.4,0,0,0-.42.48,2.78,2.78,0,0,0-.23.67,3.84,3.84,0,0,0-.08.76,4.25,4.25,0,0,0,.07.8,2.33,2.33,0,0,0,.21.69,1.39,1.39,0,0,0,.4.49,1.07,1.07,0,0,0,.63.18,1.5,1.5,0,0,0,.37,0,1.79,1.79,0,0,0,.37-.18,2.7,2.7,0,0,0,.38-.33,5.72,5.72,0,0,0,.44-.49Z"/><path d="M44.3,107.17a1,1,0,0,1-.23.77,1.25,1.25,0,0,1-.84.21,1.28,1.28,0,0,1-.84-.2,1,1,0,0,1-.22-.74,1.14,1.14,0,0,1,.22-.78,1.27,1.27,0,0,1,.85-.21,1.2,1.2,0,0,1,.83.21A1,1,0,0,1,44.3,107.17Zm-.14,8.74a.19.19,0,0,1,0,.13.27.27,0,0,1-.15.09.9.9,0,0,1-.28.06l-.45,0-.44,0a1,1,0,0,1-.29-.06.27.27,0,0,1-.15-.09.18.18,0,0,1,0-.13V109.4a.18.18,0,0,1,0-.13.36.36,0,0,1,.15-.1l.29-.06.44,0,.45,0,.28.06a.36.36,0,0,1,.15.1.19.19,0,0,1,0,.13Z"/><path d="M49.63,106.89a3.23,3.23,0,0,1,0,.34.77.77,0,0,1,0,.2.29.29,0,0,1-.07.1l-.08,0-.11,0-.16-.06-.21-.06-.3,0a.9.9,0,0,0-.34.06.64.64,0,0,0-.24.2.85.85,0,0,0-.13.35,2.65,2.65,0,0,0,0,.53v.6h1.2a.19.19,0,0,1,.12,0,.31.31,0,0,1,.09.12,1,1,0,0,1,.05.23,3.53,3.53,0,0,1,0,.36,1.54,1.54,0,0,1-.07.57q-.07.18-.21.18h-1.2v5.28a.18.18,0,0,1,0,.13.27.27,0,0,1-.15.09.9.9,0,0,1-.28.06l-.45,0-.45,0a1,1,0,0,1-.28-.06.27.27,0,0,1-.15-.09.25.25,0,0,1,0-.13v-5.28h-.82q-.13,0-.21-.18a1.79,1.79,0,0,1-.07-.57,3.53,3.53,0,0,1,0-.36,1,1,0,0,1,.05-.23c0-.06,0-.1.09-.12a.2.2,0,0,1,.13,0h.81v-.55a4.58,4.58,0,0,1,.14-1.17,2,2,0,0,1,.41-.83,1.76,1.76,0,0,1,.72-.5,2.88,2.88,0,0,1,1-.17,3.1,3.1,0,0,1,.54,0,2.1,2.1,0,0,1,.4.1.9.9,0,0,1,.2.1.37.37,0,0,1,.08.14,1.11,1.11,0,0,1,0,.24C49.63,106.63,49.63,106.75,49.63,106.89Z"/><path d="M55.91,112.46a.73.73,0,0,1-.15.5.57.57,0,0,1-.41.16h-4a2.48,2.48,0,0,0,.1.75,1.35,1.35,0,0,0,.31.58,1.48,1.48,0,0,0,.56.37,2.49,2.49,0,0,0,.82.12,4.36,4.36,0,0,0,.85-.07l.63-.15c.18-.06.33-.11.44-.16a1.07,1.07,0,0,1,.29-.07.2.2,0,0,1,.11,0,.22.22,0,0,1,.07.09.69.69,0,0,1,0,.19,2.63,2.63,0,0,1,0,.3v.28c0,.07,0,.14,0,.19a.57.57,0,0,1,0,.14l-.08.1a.79.79,0,0,1-.26.14,3.16,3.16,0,0,1-.54.17,6.2,6.2,0,0,1-.75.15,6.62,6.62,0,0,1-.91.06,4.75,4.75,0,0,1-1.53-.22,2.66,2.66,0,0,1-1.09-.66,2.82,2.82,0,0,1-.66-1.13,5.47,5.47,0,0,1-.22-1.6,5.13,5.13,0,0,1,.23-1.57,3.28,3.28,0,0,1,.66-1.19,2.9,2.9,0,0,1,1-.74,3.64,3.64,0,0,1,1.4-.26,3.5,3.5,0,0,1,1.4.25,2.48,2.48,0,0,1,1,.67,2.53,2.53,0,0,1,.54,1,4.33,4.33,0,0,1,.18,1.27Zm-1.79-.53a1.88,1.88,0,0,0-.31-1.22,1.21,1.21,0,0,0-1-.44,1.33,1.33,0,0,0-.61.13,1.35,1.35,0,0,0-.43.35,1.54,1.54,0,0,0-.26.53,2.33,2.33,0,0,0-.11.65Z"/><path d="M61.32,110c0,.18,0,.32,0,.43a1.46,1.46,0,0,1-.05.27.32.32,0,0,1-.07.13.21.21,0,0,1-.12,0,.3.3,0,0,1-.13,0l-.17-.06-.2,0a.93.93,0,0,0-.24,0,.85.85,0,0,0-.31.06,1.66,1.66,0,0,0-.32.2,2.28,2.28,0,0,0-.34.35q-.18.23-.39.54v4.07a.18.18,0,0,1,0,.13.27.27,0,0,1-.15.09,1,1,0,0,1-.28.06l-.45,0-.45,0a.9.9,0,0,1-.28-.06.27.27,0,0,1-.15-.09.18.18,0,0,1,0-.13v-6.53a.28.28,0,0,1,0-.13.42.42,0,0,1,.14-.09,1.11,1.11,0,0,1,.24,0,2.12,2.12,0,0,1,.38,0,2.3,2.3,0,0,1,.39,0,.89.89,0,0,1,.23,0,.31.31,0,0,1,.12.09.2.2,0,0,1,0,.13v.81a5.7,5.7,0,0,1,.48-.6,3.47,3.47,0,0,1,.44-.38A1.38,1.38,0,0,1,60,109a1.4,1.4,0,0,1,.41-.06l.2,0a.91.91,0,0,1,.23,0l.2.06a.37.37,0,0,1,.13.07.16.16,0,0,1,.06.08,1,1,0,0,1,0,.12s0,.13,0,.23Z"/><path d="M68,112.46a.73.73,0,0,1-.15.5.57.57,0,0,1-.42.16h-4a2.84,2.84,0,0,0,.1.75,1.36,1.36,0,0,0,.32.58,1.41,1.41,0,0,0,.56.37,2.39,2.39,0,0,0,.81.12,4.29,4.29,0,0,0,.85-.07l.64-.15.44-.16a1,1,0,0,1,.28-.07.18.18,0,0,1,.11,0,.24.24,0,0,1,.08.09.69.69,0,0,1,0,.19c0,.08,0,.18,0,.3a2.35,2.35,0,0,1,0,.28,1,1,0,0,1,0,.19c0,.05,0,.1,0,.14l-.08.1a.79.79,0,0,1-.26.14,3.16,3.16,0,0,1-.54.17,6.54,6.54,0,0,1-1.67.21,4.64,4.64,0,0,1-1.52-.22,2.7,2.7,0,0,1-1.1-.66,2.8,2.8,0,0,1-.65-1.13,5.69,5.69,0,0,1,0-3.17A3.28,3.28,0,0,1,62.5,110a2.74,2.74,0,0,1,1-.74,3.59,3.59,0,0,1,1.39-.26,3.52,3.52,0,0,1,1.41.25,2.52,2.52,0,0,1,1,.67,2.67,2.67,0,0,1,.55,1,4.33,4.33,0,0,1,.18,1.27Zm-1.79-.53a1.94,1.94,0,0,0-.31-1.22,1.22,1.22,0,0,0-1-.44,1.28,1.28,0,0,0-.61.13,1.25,1.25,0,0,0-.43.35,1.56,1.56,0,0,0-.27.53,2.76,2.76,0,0,0-.11.65Z"/><path d="M75.48,115.91a.18.18,0,0,1,0,.13.27.27,0,0,1-.15.09.9.9,0,0,1-.28.06l-.44,0-.45,0a1,1,0,0,1-.29-.06.28.28,0,0,1-.14-.09.19.19,0,0,1,0-.13v-3.72a3,3,0,0,0-.07-.75,1.34,1.34,0,0,0-.2-.47,1.1,1.1,0,0,0-.34-.3,1.06,1.06,0,0,0-.48-.1,1.23,1.23,0,0,0-.72.25,4.38,4.38,0,0,0-.74.75v4.34a.19.19,0,0,1,0,.13.27.27,0,0,1-.15.09.9.9,0,0,1-.28.06l-.45,0-.44,0a.9.9,0,0,1-.28-.06.22.22,0,0,1-.15-.09.19.19,0,0,1-.05-.13v-6.53a.2.2,0,0,1,0-.13.36.36,0,0,1,.13-.09l.25,0a2,2,0,0,1,.37,0,2.18,2.18,0,0,1,.39,0,1.11,1.11,0,0,1,.24,0,.31.31,0,0,1,.12.09.28.28,0,0,1,0,.13v.76a4.09,4.09,0,0,1,1.1-.88,2.43,2.43,0,0,1,1.17-.3,2.66,2.66,0,0,1,1.12.22,2,2,0,0,1,.74.6,2.55,2.55,0,0,1,.41.88,5.41,5.41,0,0,1,.12,1.22Z"/><path d="M80.72,115.27a2.72,2.72,0,0,1,0,.49.53.53,0,0,1-.11.25.78.78,0,0,1-.19.12,2.11,2.11,0,0,1-.3.1l-.38.06-.4,0a2.93,2.93,0,0,1-1-.14,1.47,1.47,0,0,1-.67-.43,1.65,1.65,0,0,1-.39-.73,4,4,0,0,1-.12-1v-3.34h-.79q-.13,0-.21-.18a1.54,1.54,0,0,1-.07-.57c0-.14,0-.26,0-.36a1.84,1.84,0,0,1,.06-.23.24.24,0,0,1,.09-.12.2.2,0,0,1,.13,0h.78v-1.46a.22.22,0,0,1,0-.13.27.27,0,0,1,.14-.1,1.55,1.55,0,0,1,.29,0,2.89,2.89,0,0,1,.44,0,3,3,0,0,1,.45,0,1.3,1.3,0,0,1,.28,0,.36.36,0,0,1,.15.1.22.22,0,0,1,0,.13v1.46h1.43a.17.17,0,0,1,.12,0,.25.25,0,0,1,.1.12,1,1,0,0,1,0,.23,3.53,3.53,0,0,1,0,.36,1.79,1.79,0,0,1-.07.57.25.25,0,0,1-.22.18H79v3.07a1.56,1.56,0,0,0,.17.8.64.64,0,0,0,.6.26,1.14,1.14,0,0,0,.27,0l.21-.06.15-.06.11,0,.09,0a.19.19,0,0,1,.06.1c0,.06,0,.13,0,.21A3,3,0,0,1,80.72,115.27Z"/><path d="M87.6,112.46a.73.73,0,0,1-.15.5.57.57,0,0,1-.41.16h-4a2.48,2.48,0,0,0,.1.75,1.41,1.41,0,0,0,.87.95,2.49,2.49,0,0,0,.82.12,4.36,4.36,0,0,0,.85-.07l.63-.15c.18-.06.33-.11.44-.16a1.07,1.07,0,0,1,.29-.07.2.2,0,0,1,.11,0,.22.22,0,0,1,.07.09.45.45,0,0,1,0,.19,2.63,2.63,0,0,1,0,.3v.28a1.54,1.54,0,0,0,0,.19.58.58,0,0,1,0,.14.35.35,0,0,1-.08.1.69.69,0,0,1-.26.14,3.16,3.16,0,0,1-.54.17,6.2,6.2,0,0,1-.75.15,6.62,6.62,0,0,1-.91.06,4.75,4.75,0,0,1-1.53-.22,2.73,2.73,0,0,1-1.09-.66,2.94,2.94,0,0,1-.66-1.13,5.49,5.49,0,0,1-.21-1.6,5.14,5.14,0,0,1,.22-1.57,3.28,3.28,0,0,1,.66-1.19,2.9,2.9,0,0,1,1.05-.74,3.68,3.68,0,0,1,1.4-.26,3.5,3.5,0,0,1,1.4.25,2.48,2.48,0,0,1,1,.67,2.67,2.67,0,0,1,.55,1,4.7,4.7,0,0,1,.17,1.27Zm-1.79-.53a1.82,1.82,0,0,0-.31-1.22,1.21,1.21,0,0,0-1-.44,1.33,1.33,0,0,0-.61.13,1.47,1.47,0,0,0-.43.35,1.75,1.75,0,0,0-.26.53,2.76,2.76,0,0,0-.11.65Z"/><path d="M93.42,114.07a2.17,2.17,0,0,1-.21,1,2,2,0,0,1-.59.71,2.69,2.69,0,0,1-.9.43,4.48,4.48,0,0,1-1.13.14,5.24,5.24,0,0,1-.7,0,5.75,5.75,0,0,1-.59-.14l-.44-.17a1.05,1.05,0,0,1-.26-.17.45.45,0,0,1-.12-.24,1.93,1.93,0,0,1,0-.49,3,3,0,0,1,0-.34.88.88,0,0,1,0-.2.23.23,0,0,1,.07-.11l.11,0a.51.51,0,0,1,.24.09l.39.2c.16.07.34.14.55.21a2.55,2.55,0,0,0,.71.09,2,2,0,0,0,.44,0,1,1,0,0,0,.34-.15.61.61,0,0,0,.21-.24.73.73,0,0,0,.08-.33.56.56,0,0,0-.14-.38,1.15,1.15,0,0,0-.36-.28l-.5-.22c-.19-.06-.39-.14-.58-.22a6.27,6.27,0,0,1-.58-.29,2.46,2.46,0,0,1-.51-.39,1.85,1.85,0,0,1-.36-.57,2.08,2.08,0,0,1-.13-.79,2,2,0,0,1,.18-.86,1.9,1.9,0,0,1,.53-.67,2.38,2.38,0,0,1,.84-.43,3.77,3.77,0,0,1,1.7-.11,3.52,3.52,0,0,1,.53.11,2.17,2.17,0,0,1,.39.14,1.31,1.31,0,0,1,.23.13.47.47,0,0,1,.1.11.5.5,0,0,1,0,.13c0,.06,0,.12,0,.19a2.44,2.44,0,0,1,0,.29,2.92,2.92,0,0,1,0,.32c0,.08,0,.15,0,.2a.2.2,0,0,1-.07.1l-.11,0a.4.4,0,0,1-.2-.08l-.35-.16c-.14-.06-.3-.11-.48-.17a2.48,2.48,0,0,0-.63-.07,1.37,1.37,0,0,0-.43,0,.71.71,0,0,0-.3.15.55.55,0,0,0-.18.22.63.63,0,0,0-.06.27.56.56,0,0,0,.14.38,1.34,1.34,0,0,0,.37.28,5.44,5.44,0,0,0,.52.22c.19.06.38.14.58.22a5.25,5.25,0,0,1,.59.28,2.2,2.2,0,0,1,.51.4,1.71,1.71,0,0,1,.37.56A2,2,0,0,1,93.42,114.07Z"/><path d="M103.16,115.94a.19.19,0,0,1-.07.16.56.56,0,0,1-.23.08,3.78,3.78,0,0,1-1,0,.42.42,0,0,1-.21-.08.21.21,0,0,1-.06-.16v-.52a3.15,3.15,0,0,1-.92.67,2.72,2.72,0,0,1-1.15.24,3.21,3.21,0,0,1-.95-.13,2.14,2.14,0,0,1-.76-.41,1.71,1.71,0,0,1-.49-.66,2.19,2.19,0,0,1-.18-.92,2.07,2.07,0,0,1,.23-1,1.77,1.77,0,0,1,.66-.7,3.46,3.46,0,0,1,1.1-.41,8.6,8.6,0,0,1,1.54-.13h.63v-.39a2.12,2.12,0,0,0-.06-.54,1,1,0,0,0-.2-.39.93.93,0,0,0-.39-.22,1.91,1.91,0,0,0-.59-.08,3,3,0,0,0-.82.11,4.34,4.34,0,0,0-.64.22c-.19.09-.34.16-.46.23a.68.68,0,0,1-.31.1.19.19,0,0,1-.14,0,.28.28,0,0,1-.1-.15,1,1,0,0,1-.07-.23,2.85,2.85,0,0,1,0-.31,1.19,1.19,0,0,1,0-.36.51.51,0,0,1,.14-.23,1.16,1.16,0,0,1,.36-.24,6.22,6.22,0,0,1,.6-.24,6.89,6.89,0,0,1,.75-.18,5.71,5.71,0,0,1,.84-.07,5,5,0,0,1,1.31.15,2.27,2.27,0,0,1,.9.47,1.78,1.78,0,0,1,.51.8,3.61,3.61,0,0,1,.16,1.16Zm-1.81-2.8h-.7a4.1,4.1,0,0,0-.76.06,1.51,1.51,0,0,0-.51.2.8.8,0,0,0-.29.32.88.88,0,0,0-.1.43.82.82,0,0,0,.26.64,1.05,1.05,0,0,0,.73.24,1.39,1.39,0,0,0,.71-.2,2.64,2.64,0,0,0,.66-.58Z"/><path d="M106.55,115.91a.19.19,0,0,1,0,.13.27.27,0,0,1-.15.09.9.9,0,0,1-.28.06l-.45,0-.44,0a1,1,0,0,1-.29-.06.27.27,0,0,1-.15-.09.18.18,0,0,1,0-.13v-9.63a.2.2,0,0,1,0-.13.36.36,0,0,1,.15-.1l.29-.06.44,0,.45,0,.28.06a.36.36,0,0,1,.15.1.21.21,0,0,1,0,.13Z"/><path d="M52.38,129.74a.17.17,0,0,1,0,.12.27.27,0,0,1-.15.09.9.9,0,0,1-.28.06l-.44,0L51,130a1,1,0,0,1-.29-.06.24.24,0,0,1-.14-.09.18.18,0,0,1-.05-.12V126a3,3,0,0,0-.07-.75,1.34,1.34,0,0,0-.2-.47,1.1,1.1,0,0,0-.34-.3,1.07,1.07,0,0,0-.49-.1,1.23,1.23,0,0,0-.71.25,4,4,0,0,0-.74.75v4.35a.18.18,0,0,1-.05.12.27.27,0,0,1-.15.09.9.9,0,0,1-.28.06l-.45,0-.44,0a.9.9,0,0,1-.28-.06.22.22,0,0,1-.15-.09.18.18,0,0,1,0-.12V123.2a.2.2,0,0,1,0-.13.36.36,0,0,1,.13-.09,1.09,1.09,0,0,1,.25,0l.37,0,.39,0a1.11,1.11,0,0,1,.24,0l.12.09a.28.28,0,0,1,0,.13V124a3.94,3.94,0,0,1,1.1-.88,2.43,2.43,0,0,1,1.17-.3,2.66,2.66,0,0,1,1.12.22,2,2,0,0,1,.74.6,2.55,2.55,0,0,1,.41.88,5.41,5.41,0,0,1,.12,1.22Z"/><path d="M60.09,129.74a.25.25,0,0,1,0,.12.25.25,0,0,1-.13.09.7.7,0,0,1-.24.06l-.38,0-.39,0a.7.7,0,0,1-.24-.06.19.19,0,0,1-.12-.09.17.17,0,0,1,0-.12V129a4.29,4.29,0,0,1-1.1.88,2.71,2.71,0,0,1-2.29.07,1.76,1.76,0,0,1-.74-.6,2.55,2.55,0,0,1-.41-.88,5.45,5.45,0,0,1-.12-1.25v-4a.28.28,0,0,1,0-.13A.49.49,0,0,1,54,123a1.55,1.55,0,0,1,.29,0l.44,0,.45,0,.28,0a.49.49,0,0,1,.15.09.2.2,0,0,1,0,.13v3.69a3.17,3.17,0,0,0,.07.79,1.29,1.29,0,0,0,.2.46.89.89,0,0,0,.34.3,1.1,1.1,0,0,0,.49.11,1.24,1.24,0,0,0,.71-.26,4.69,4.69,0,0,0,.76-.74V123.2a.2.2,0,0,1,0-.13.33.33,0,0,1,.14-.09l.28,0,.45,0,.45,0,.28,0a.56.56,0,0,1,.14.09.21.21,0,0,1,.05.13Z"/><path d="M67.67,126.28a.73.73,0,0,1-.15.5.55.55,0,0,1-.41.16h-4a2.84,2.84,0,0,0,.1.75,1.36,1.36,0,0,0,.32.58,1.44,1.44,0,0,0,.55.37,2.49,2.49,0,0,0,.82.12,4.29,4.29,0,0,0,.85-.07,5.36,5.36,0,0,0,.63-.15l.45-.16a.94.94,0,0,1,.28-.07.18.18,0,0,1,.11,0,.24.24,0,0,1,.08.09s0,.11,0,.19,0,.18,0,.3,0,.2,0,.28,0,.14,0,.19a.58.58,0,0,1,0,.14.61.61,0,0,1-.07.1.79.79,0,0,1-.26.14,3.64,3.64,0,0,1-.55.17,6.2,6.2,0,0,1-.75.15,6.52,6.52,0,0,1-.91.06,4.64,4.64,0,0,1-1.52-.22,2.7,2.7,0,0,1-1.1-.66,2.94,2.94,0,0,1-.66-1.13,5.49,5.49,0,0,1-.21-1.6,4.84,4.84,0,0,1,.23-1.57,3.41,3.41,0,0,1,.65-1.19A2.86,2.86,0,0,1,63.2,123a3.59,3.59,0,0,1,1.39-.26A3.44,3.44,0,0,1,66,123a2.48,2.48,0,0,1,1,.67,2.67,2.67,0,0,1,.55,1,4.36,4.36,0,0,1,.17,1.28Zm-1.78-.53a1.94,1.94,0,0,0-.31-1.22,1.23,1.23,0,0,0-1-.44,1.28,1.28,0,0,0-.61.13,1.39,1.39,0,0,0-.44.35,1.75,1.75,0,0,0-.26.53,2.76,2.76,0,0,0-.11.65Z"/><path d="M73.49,127.89a2.17,2.17,0,0,1-.21,1,2,2,0,0,1-.59.71,2.69,2.69,0,0,1-.9.43,4.07,4.07,0,0,1-1.13.14,5.24,5.24,0,0,1-.7-.05c-.22,0-.42-.09-.6-.14l-.43-.17a1.05,1.05,0,0,1-.26-.17.54.54,0,0,1-.13-.24,2.72,2.72,0,0,1,0-.49,3,3,0,0,1,0-.34.54.54,0,0,1,0-.2.23.23,0,0,1,.07-.11l.11,0a.51.51,0,0,1,.24.09l.39.2a4.24,4.24,0,0,0,.55.21,2.53,2.53,0,0,0,.7.09,1.55,1.55,0,0,0,.45-.05.84.84,0,0,0,.33-.15.56.56,0,0,0,.22-.24.7.7,0,0,0,.07-.33.55.55,0,0,0-.13-.38,1.15,1.15,0,0,0-.36-.28c-.15-.07-.32-.15-.51-.22l-.57-.22a6.27,6.27,0,0,1-.58-.29,2.46,2.46,0,0,1-.51-.39,1.85,1.85,0,0,1-.36-.57,2.08,2.08,0,0,1-.13-.79,2,2,0,0,1,.18-.86,1.9,1.9,0,0,1,.53-.67,2.38,2.38,0,0,1,.84-.43,3.77,3.77,0,0,1,1.7-.11,3.52,3.52,0,0,1,.53.11,2.17,2.17,0,0,1,.39.14,1.31,1.31,0,0,1,.23.13.47.47,0,0,1,.1.11.5.5,0,0,1,0,.13c0,.06,0,.12,0,.2a2.18,2.18,0,0,1,0,.28,2.92,2.92,0,0,1,0,.32.88.88,0,0,1,0,.2.19.19,0,0,1-.06.1l-.11,0a.4.4,0,0,1-.2-.08l-.35-.16c-.14-.06-.3-.11-.48-.17a2.48,2.48,0,0,0-.63-.07,1.75,1.75,0,0,0-.43,0,.71.71,0,0,0-.3.15.55.55,0,0,0-.18.22.63.63,0,0,0-.06.27.54.54,0,0,0,.14.38,1.34,1.34,0,0,0,.37.28,5.44,5.44,0,0,0,.52.22c.19.06.38.14.58.22a5.25,5.25,0,0,1,.59.28,2.2,2.2,0,0,1,.51.4,1.71,1.71,0,0,1,.37.56A2,2,0,0,1,73.49,127.89Z"/><path d="M78.27,129.09a2,2,0,0,1,0,.49.54.54,0,0,1-.1.25.87.87,0,0,1-.2.12,1.5,1.5,0,0,1-.3.1l-.37.06-.41,0a3,3,0,0,1-.95-.14,1.52,1.52,0,0,1-.67-.43,1.75,1.75,0,0,1-.38-.73,3.56,3.56,0,0,1-.13-1v-3.34h-.78a.22.22,0,0,1-.21-.17,1.59,1.59,0,0,1-.08-.58,3.53,3.53,0,0,1,0-.36.64.64,0,0,1,.06-.23.19.19,0,0,1,.09-.12.17.17,0,0,1,.12,0h.78V121.5a.23.23,0,0,1,0-.14.36.36,0,0,1,.15-.1,1.43,1.43,0,0,1,.28-.05,5.07,5.07,0,0,1,.9,0,1.43,1.43,0,0,1,.28.05.36.36,0,0,1,.15.1.33.33,0,0,1,0,.14V123H78a.2.2,0,0,1,.13,0,.19.19,0,0,1,.09.12,1,1,0,0,1,0,.23,1.94,1.94,0,0,1,0,.36,1.64,1.64,0,0,1-.07.58c0,.11-.12.17-.21.17H76.56v3.07a1.47,1.47,0,0,0,.17.8.65.65,0,0,0,.6.27,1,1,0,0,0,.26,0l.21-.06.15-.06.12,0,.08,0a.14.14,0,0,1,.06.1,1.12,1.12,0,0,1,0,.21A1.67,1.67,0,0,1,78.27,129.09Z"/><path d="M83.5,123.81c0,.18,0,.32,0,.43a1.46,1.46,0,0,1,0,.27.32.32,0,0,1-.07.13.27.27,0,0,1-.12,0,.36.36,0,0,1-.14,0l-.16-.06-.2,0a1,1,0,0,0-.24,0,.81.81,0,0,0-.31.06,1.66,1.66,0,0,0-.32.2,1.9,1.9,0,0,0-.34.35q-.18.22-.39.54v4.08a.17.17,0,0,1,0,.12A.27.27,0,0,1,81,130a1,1,0,0,1-.28.06l-.45,0-.45,0a.9.9,0,0,1-.28-.06.27.27,0,0,1-.15-.09.17.17,0,0,1,0-.12V123.2a.28.28,0,0,1,0-.13.48.48,0,0,1,.13-.09,1.37,1.37,0,0,1,.25,0l.38,0,.38,0a.89.89,0,0,1,.24,0,.31.31,0,0,1,.12.09.2.2,0,0,1,0,.13V124a5.7,5.7,0,0,1,.48-.6,2.9,2.9,0,0,1,.44-.38,1.38,1.38,0,0,1,.41-.19,1.4,1.4,0,0,1,.41-.06l.2,0,.23,0,.2.06a.5.5,0,0,1,.13.07.16.16,0,0,1,.06.08,1,1,0,0,1,0,.12,1.21,1.21,0,0,1,0,.23C83.5,123.49,83.5,123.63,83.5,123.81Z"/><path d="M90.76,126.4a4.92,4.92,0,0,1-.22,1.53,3.13,3.13,0,0,1-.67,1.18,2.91,2.91,0,0,1-1.12.77,4.16,4.16,0,0,1-1.57.27,4.37,4.37,0,0,1-1.52-.24,2.73,2.73,0,0,1-1.07-.7,3,3,0,0,1-.63-1.14,5.53,5.53,0,0,1-.2-1.54A4.9,4.9,0,0,1,84,125a3.38,3.38,0,0,1,.67-1.19,3,3,0,0,1,1.12-.76,4,4,0,0,1,1.57-.28,4.33,4.33,0,0,1,1.52.24,2.66,2.66,0,0,1,1.07.7,3,3,0,0,1,.63,1.14A5.53,5.53,0,0,1,90.76,126.4Zm-1.9.08a4.87,4.87,0,0,0-.07-.89,2.14,2.14,0,0,0-.26-.71,1.38,1.38,0,0,0-.49-.47,1.79,1.79,0,0,0-1.48,0,1.28,1.28,0,0,0-.51.44,2,2,0,0,0-.29.7,3.71,3.71,0,0,0-.1.92,4.09,4.09,0,0,0,.08.89,2.14,2.14,0,0,0,.26.71,1.27,1.27,0,0,0,.48.47,1.87,1.87,0,0,0,1.49,0,1.35,1.35,0,0,0,.51-.44,2,2,0,0,0,.29-.69A4.28,4.28,0,0,0,88.86,126.48Z"/><path d="M94.75,129a2.44,2.44,0,0,1,0,.51.65.65,0,0,1-.17.33.77.77,0,0,1-.32.18,1.79,1.79,0,0,1-.5.05,1.83,1.83,0,0,1-.5-.05.77.77,0,0,1-.32-.18.64.64,0,0,1-.16-.33,2.63,2.63,0,0,1,0-1,.72.72,0,0,1,.16-.34.77.77,0,0,1,.32-.18,1.8,1.8,0,0,1,.5-.06,1.75,1.75,0,0,1,.5.06.77.77,0,0,1,.32.18.73.73,0,0,1,.17.34A2.44,2.44,0,0,1,94.75,129Zm-.23-2.14a.29.29,0,0,1,0,.13.25.25,0,0,1-.12.1.76.76,0,0,1-.25.06,3.81,3.81,0,0,1-.78,0,.7.7,0,0,1-.24-.06A.34.34,0,0,1,93,127a.28.28,0,0,1,0-.13l-.19-6.65a.31.31,0,0,1,0-.17.3.3,0,0,1,.16-.12,1,1,0,0,1,.31-.07,3.4,3.4,0,0,1,.48,0l.49,0a1.08,1.08,0,0,1,.3.08.34.34,0,0,1,.16.11.31.31,0,0,1,0,.17Z"/></g></g></svg>