<svg id="Capa_1" data-name="Capa 1" xmlns="http://www.w3.org/2000/svg" viewBox="0 0 149.97 190.56"><defs><style>.cls-1{opacity:0.3;}.cls-2{fill:#fff;}.cls-3{fill:#9ea0a3;}.cls-4{fill:#231f20;}</style></defs><path class="cls-1" d="M5.79,118.66c6-34.48.26-76.32,1.16-89.48s5.69-17.79,21.67-18,76.46-4.7,88.75,4.15c0,0,15.36,7.22,8.16,43.2-5.27,26.29-8,48.88-8.53,68.83.09,1.41,1.54,19.48,17.32,21.3,0,0-13.6,2.95-16,15.2.86,16.2-.61,26.39-16.47,25.55-20.45-1.08-68.18-2-81.34-1.61C-3,188.39-.16,153.13,5.79,118.66Z"/><path class="cls-2" d="M12,111.28C17.91,76.8,12.22,35,13.13,21.8S18.81,4,34.79,3.75s76.46-4.7,88.75,4.15c0,0,15.36,7.22,8.16,43.2-5.27,26.29-8,48.88-8.53,68.83.09,1.41,1.54,19.48,17.33,21.3,0,0-13.61,3-16,15.2.85,16.2-.62,26.39-16.48,25.55-20.45-1.08-68.17-2-81.34-1.61C3.19,181,6,145.75,12,111.28Z"/><path class="cls-3" d="M123.17,119.93a30.54,30.54,0,0,0,1.28,6.61,30.07,30.07,0,0,1-4-12.71c.51-20,3.27-42.54,8.53-68.83,3-14.89,2.1-24.84,0-31.41,3.54,5.81,6.78,17,2.67,37.51C126.43,77.39,123.68,100,123.17,119.93Z"/><path class="cls-3" d="M24,174.27c13.17-.36,60.9.53,81.35,1.61,15.85.84,17.32-9.36,16.47-25.55,1.27-6.6,5.79-10.5,9.71-12.69a17.37,17.37,0,0,0,9,3.59s-13.61,3-16,15.2c.85,16.2-.62,26.39-16.48,25.55-20.45-1.08-68.17-2-81.34-1.61-9.09.25-14.23-4.88-16.8-13.23C12.89,171.8,17.41,174.45,24,174.27Z"/><path class="cls-4" d="M108,183.08c-21-1.12-68.33-2-81.19-1.62h-.07c-5.36.15-9.71-1.49-12.95-4.85-10.69-11.13-7.52-39.36-3-65.5,4.08-23.61,2.69-50.22,1.68-69.65-.45-8.69-.81-15.56-.52-19.73,1-14,6.72-18.77,22.83-19.07,2.74,0,6.9-.22,11.72-.42C78.94.9,114.37.05,124.2,7c1.53.79,15.71,9.15,8.67,44.32-5.21,26-8,48.49-8.51,68.56.12,1.9,1.6,18.59,16.29,20.28l6.56.76-6.44,1.39c-.13,0-12.78,2.9-15,14.21.57,11.09,0,18.83-4.77,23.13-2.44,2.22-5.84,3.36-10.34,3.48C109.79,183.14,108.91,183.12,108,183.08Zm14-63.18c.51-20.28,3.31-42.85,8.55-69,6.91-34.55-7.39-42-7.53-42l-.2-.11C113,1.68,69.8,3.47,46.59,4.43c-4.83.2-9,.37-11.78.41-15,.25-19.6,4.06-20.49,17-.28,4.05.07,10.86.52,19.48,1,19.53,2.41,46.27-1.7,70.1h0c-4.17,24.14-7.65,53.2,2.44,63.71,2.78,2.9,6.41,4.24,11.09,4.12h.07c12.9-.35,60.36.5,81.39,1.61,5.13.27,8.78-.65,11.16-2.81,4.13-3.74,4.61-11,4.06-21.59v-.13l0-.12c1.65-8.57,8.58-12.86,13-14.76C123.48,137.37,122.1,121.89,122,119.9Z"/><path d="M53.49,39.67a1.94,1.94,0,0,1,0,.36,1.14,1.14,0,0,1,0,.23.48.48,0,0,1-.09.13.28.28,0,0,1-.12,0H48.45a.59.59,0,0,1-.41-.15.57.57,0,0,1-.16-.46V31.56a.59.59,0,0,1,.16-.47.64.64,0,0,1,.41-.14h4.73a.15.15,0,0,1,.11,0,.19.19,0,0,1,.09.12,1,1,0,0,1,.06.24,3.21,3.21,0,0,1,0,.36,3.32,3.32,0,0,1,0,.35,1.09,1.09,0,0,1-.06.23.25.25,0,0,1-.09.13.21.21,0,0,1-.11,0H49.79v2.31h2.87a.28.28,0,0,1,.12,0,.48.48,0,0,1,.09.13.9.9,0,0,1,.05.22,1.83,1.83,0,0,1,0,.35,1.78,1.78,0,0,1,0,.35,1,1,0,0,1-.05.23.62.62,0,0,1-.09.12l-.12,0H49.79v2.68h3.42a.19.19,0,0,1,.12,0,.36.36,0,0,1,.09.13.89.89,0,0,1,0,.23A1.78,1.78,0,0,1,53.49,39.67Z"/><path d="M59.38,38.33a2.17,2.17,0,0,1-.21,1,1.85,1.85,0,0,1-.59.71,2.51,2.51,0,0,1-.9.43,4,4,0,0,1-1.13.14,3.87,3.87,0,0,1-.69-.05,3.81,3.81,0,0,1-.6-.14,3.41,3.41,0,0,1-.44-.17,1.3,1.3,0,0,1-.26-.17.54.54,0,0,1-.12-.24,1.93,1.93,0,0,1,0-.49,3,3,0,0,1,0-.34.88.88,0,0,1,0-.2.17.17,0,0,1,.08-.1.16.16,0,0,1,.11,0,.52.52,0,0,1,.23.09l.4.2a2.77,2.77,0,0,0,.54.21,2.55,2.55,0,0,0,.71.09,1.52,1.52,0,0,0,.44,0,1.16,1.16,0,0,0,.34-.14.72.72,0,0,0,.21-.25.7.7,0,0,0,.08-.33.57.57,0,0,0-.14-.38,1.13,1.13,0,0,0-.36-.27,2.89,2.89,0,0,0-.5-.22L56,37.38a4.48,4.48,0,0,1-.58-.29,2.16,2.16,0,0,1-.51-.39,2,2,0,0,1-.35-.57,2.07,2.07,0,0,1-.14-.79,1.89,1.89,0,0,1,.71-1.53,2.56,2.56,0,0,1,.84-.43,3.82,3.82,0,0,1,1.11-.15,4,4,0,0,1,.6,0c.19,0,.36.07.52.11a2.3,2.3,0,0,1,.4.14l.23.13.1.11s0,.09,0,.14a.92.92,0,0,1,0,.19,2,2,0,0,1,0,.28,2.58,2.58,0,0,1,0,.32.56.56,0,0,1,0,.2.2.2,0,0,1-.07.1.16.16,0,0,1-.1,0,.46.46,0,0,1-.21-.07l-.35-.17a3.85,3.85,0,0,0-.48-.16,2.35,2.35,0,0,0-.63-.08,1.81,1.81,0,0,0-.43,0,.84.84,0,0,0-.3.15.63.63,0,0,0-.18.22.87.87,0,0,0,0,.28.53.53,0,0,0,.14.38,1.3,1.3,0,0,0,.36.27,4.28,4.28,0,0,0,.52.22l.58.22a6.36,6.36,0,0,1,.59.28,2.49,2.49,0,0,1,.52.4,1.69,1.69,0,0,1,.36.56A1.83,1.83,0,0,1,59.38,38.33Z"/><path d="M74,40.18a.28.28,0,0,1,0,.13.49.49,0,0,1-.15.09,1.43,1.43,0,0,1-.28.05l-.45,0-.45,0a1.43,1.43,0,0,1-.28-.05.49.49,0,0,1-.15-.09.28.28,0,0,1,0-.13V36.3a2.77,2.77,0,0,0-.06-.6,1.48,1.48,0,0,0-.19-.46.91.91,0,0,0-.32-.3,1,1,0,0,0-.47-.11,1.09,1.09,0,0,0-.66.26,4.66,4.66,0,0,0-.74.74v4.35a.2.2,0,0,1,0,.13.49.49,0,0,1-.15.09l-.28.05-.44,0-.45,0A1.43,1.43,0,0,1,68,40.4a.49.49,0,0,1-.15-.09.21.21,0,0,1,0-.13V36.3a2.77,2.77,0,0,0-.06-.6,1.47,1.47,0,0,0-.18-.46.92.92,0,0,0-.79-.41,1.11,1.11,0,0,0-.67.26,4.27,4.27,0,0,0-.73.74v4.35a.2.2,0,0,1,0,.13.49.49,0,0,1-.15.09l-.28.05-.45,0-.45,0-.28-.05a.49.49,0,0,1-.15-.09.2.2,0,0,1,0-.13V33.64a.24.24,0,0,1,0-.12.32.32,0,0,1,.14-.1,1.11,1.11,0,0,1,.24-.05l.38,0,.39,0a.89.89,0,0,1,.23.05.25.25,0,0,1,.12.1.17.17,0,0,1,0,.12v.76a4.18,4.18,0,0,1,1.08-.88,2.29,2.29,0,0,1,1.13-.29,2.69,2.69,0,0,1,.72.08,2.35,2.35,0,0,1,.58.24,2,2,0,0,1,.43.38,2.26,2.26,0,0,1,.31.49,5.6,5.6,0,0,1,.57-.54,3.37,3.37,0,0,1,.56-.37,2.07,2.07,0,0,1,.55-.21,2.1,2.1,0,0,1,.56-.07,2.45,2.45,0,0,1,1.1.22,1.82,1.82,0,0,1,.72.59,2.49,2.49,0,0,1,.39.89A4.53,4.53,0,0,1,74,36Z"/><path d="M81.66,40.18a.28.28,0,0,1,0,.13.48.48,0,0,1-.13.09,1.11,1.11,0,0,1-.24.05l-.38,0-.39,0a1.11,1.11,0,0,1-.24-.05.31.31,0,0,1-.12-.09.2.2,0,0,1,0-.13v-.76a4.09,4.09,0,0,1-1.1.88,2.43,2.43,0,0,1-1.16.29,2.53,2.53,0,0,1-1.13-.22,1.76,1.76,0,0,1-.74-.6,2.31,2.31,0,0,1-.41-.88,5.45,5.45,0,0,1-.12-1.25v-4a.25.25,0,0,1,0-.12.36.36,0,0,1,.15-.1l.28-.05.45,0,.44,0a1.55,1.55,0,0,1,.29.05.36.36,0,0,1,.15.1.17.17,0,0,1,0,.12v3.7a3.13,3.13,0,0,0,.07.78,1.29,1.29,0,0,0,.2.46.89.89,0,0,0,.34.3,1,1,0,0,0,.49.11,1.18,1.18,0,0,0,.71-.26,4.3,4.3,0,0,0,.75-.74V33.64a.25.25,0,0,1,0-.12.36.36,0,0,1,.15-.1l.28-.05.45,0,.45,0a1.31,1.31,0,0,1,.27.05.36.36,0,0,1,.15.1.18.18,0,0,1,0,.12Z"/><path d="M87,40.43l-.8,2.31a.46.46,0,0,1-.35.26,3.24,3.24,0,0,1-.86.08,3.11,3.11,0,0,1-.47,0,.65.65,0,0,1-.26-.09.18.18,0,0,1-.1-.14.46.46,0,0,1,0-.21l.87-2.19a.59.59,0,0,1-.18-.14.93.93,0,0,1-.11-.19l-2.25-6a1.29,1.29,0,0,1-.09-.39.26.26,0,0,1,.09-.21.46.46,0,0,1,.29-.11,4.11,4.11,0,0,1,.55,0h.5a1,1,0,0,1,.29.06.28.28,0,0,1,.15.13.94.94,0,0,1,.1.26L86,38.18h0l1.4-4.46a.59.59,0,0,1,.11-.25.55.55,0,0,1,.24-.09,3.43,3.43,0,0,1,.56,0,3.74,3.74,0,0,1,.52,0,.7.7,0,0,1,.31.11.26.26,0,0,1,.1.22,1,1,0,0,1-.06.31Z"/><path d="M23.29,45.25a1,1,0,0,1-.22.77,1.28,1.28,0,0,1-.85.21,1.27,1.27,0,0,1-.83-.2,1,1,0,0,1-.22-.74,1,1,0,0,1,.22-.77,1.21,1.21,0,0,1,.85-.22,1.2,1.2,0,0,1,.83.21A1,1,0,0,1,23.29,45.25ZM23.15,54a.16.16,0,0,1,0,.12.36.36,0,0,1-.15.1,1.43,1.43,0,0,1-.28.05l-.45,0-.45,0-.28-.05a.36.36,0,0,1-.15-.1.16.16,0,0,1,0-.12V47.48a.2.2,0,0,1,0-.13.36.36,0,0,1,.15-.1l.28-.06.45,0,.45,0,.28.06a.36.36,0,0,1,.15.1.2.2,0,0,1,0,.13Z"/><path d="M30.93,54a.16.16,0,0,1,0,.12.36.36,0,0,1-.15.1,1.43,1.43,0,0,1-.28.05l-.44,0-.45,0a1.3,1.3,0,0,1-.28-.05.36.36,0,0,1-.15-.1.17.17,0,0,1-.05-.12V50.27a3,3,0,0,0-.07-.75,1.29,1.29,0,0,0-.2-.46.83.83,0,0,0-.34-.3,1.06,1.06,0,0,0-.48-.11,1.2,1.2,0,0,0-.71.26,4,4,0,0,0-.75.74V54a.17.17,0,0,1-.05.12.3.3,0,0,1-.15.1,1.43,1.43,0,0,1-.28.05l-.44,0-.45,0a1.43,1.43,0,0,1-.28-.05.36.36,0,0,1-.15-.1.17.17,0,0,1,0-.12V47.46a.16.16,0,0,1,0-.12.28.28,0,0,1,.13-.1l.25-.05.37,0,.39,0a1.11,1.11,0,0,1,.24.05.25.25,0,0,1,.12.1.21.21,0,0,1,0,.12v.76a4.09,4.09,0,0,1,1.1-.88,2.42,2.42,0,0,1,1.17-.29,2.51,2.51,0,0,1,1.12.22,1.89,1.89,0,0,1,.74.59,2.51,2.51,0,0,1,.41.89A5.26,5.26,0,0,1,30.93,50Z"/><path d="M36.17,53.35a2.17,2.17,0,0,1,0,.5.54.54,0,0,1-.11.24.39.39,0,0,1-.19.12l-.3.1c-.12,0-.24,0-.37.06a2.82,2.82,0,0,1-.41,0,2.72,2.72,0,0,1-1-.14,1.6,1.6,0,0,1-.67-.42,1.9,1.9,0,0,1-.39-.73,4,4,0,0,1-.12-1V48.71h-.79c-.09,0-.16-.06-.21-.17a1.64,1.64,0,0,1-.07-.58,1.94,1.94,0,0,1,0-.36,1.14,1.14,0,0,1,.05-.23l.09-.12a.28.28,0,0,1,.13,0h.78V45.76a.18.18,0,0,1,0-.13.22.22,0,0,1,.14-.1,1.05,1.05,0,0,1,.29-.06l.44,0,.45,0a1,1,0,0,1,.29.06.3.3,0,0,1,.14.1.19.19,0,0,1,.05.13v1.45h1.42a.21.21,0,0,1,.12,0,.4.4,0,0,1,.1.12,1.14,1.14,0,0,1,0,.23,3.53,3.53,0,0,1,0,.36,1.64,1.64,0,0,1-.07.58.24.24,0,0,1-.22.17H34.46v3.07a1.57,1.57,0,0,0,.16.8.67.67,0,0,0,.61.27,1.09,1.09,0,0,0,.26,0l.21-.06.15-.06.11,0,.09,0a.17.17,0,0,1,.06.11.87.87,0,0,1,0,.21A2.77,2.77,0,0,1,36.17,53.35Z"/><path d="M43.05,50.54a.73.73,0,0,1-.15.5.51.51,0,0,1-.41.16h-4a3,3,0,0,0,.1.76,1.5,1.5,0,0,0,.32.58,1.42,1.42,0,0,0,.55.36,2.49,2.49,0,0,0,.82.12,4.29,4.29,0,0,0,.85-.07,4.18,4.18,0,0,0,.63-.15l.45-.15a.71.71,0,0,1,.28-.07.18.18,0,0,1,.11,0,.36.36,0,0,1,.08.09c0,.05,0,.11,0,.19s0,.18,0,.3,0,.2,0,.28,0,.14,0,.19a.46.46,0,0,1,0,.14.36.36,0,0,1-.07.1.92.92,0,0,1-.26.14,5.09,5.09,0,0,1-.55.18c-.22,0-.47.1-.75.14a6.52,6.52,0,0,1-.91.06,4.75,4.75,0,0,1-1.53-.22,2.62,2.62,0,0,1-1.09-.66,2.94,2.94,0,0,1-.66-1.13,5.44,5.44,0,0,1-.21-1.6,4.84,4.84,0,0,1,.23-1.57,3.37,3.37,0,0,1,.65-1.18,2.77,2.77,0,0,1,1.06-.75A3.59,3.59,0,0,1,40,47.05a3.66,3.66,0,0,1,1.4.24,2.48,2.48,0,0,1,1,.67,2.67,2.67,0,0,1,.55,1,4.36,4.36,0,0,1,.17,1.28ZM41.27,50A1.94,1.94,0,0,0,41,48.79a1.23,1.23,0,0,0-1-.44,1.23,1.23,0,0,0-1,.49,1.69,1.69,0,0,0-.26.52,2.76,2.76,0,0,0-.11.65Z"/><path d="M48.47,48.07c0,.18,0,.32,0,.43a1.42,1.42,0,0,1,0,.27.32.32,0,0,1-.08.13.21.21,0,0,1-.12,0l-.13,0a.69.69,0,0,0-.17,0l-.2-.06a.88.88,0,0,0-.24,0,.92.92,0,0,0-.31.07,1.4,1.4,0,0,0-.32.19,3.85,3.85,0,0,0-.34.35,5.5,5.5,0,0,0-.38.54V54a.17.17,0,0,1,0,.12.36.36,0,0,1-.15.1,1.43,1.43,0,0,1-.28.05l-.45,0-.44,0a1.72,1.72,0,0,1-.29-.05.36.36,0,0,1-.15-.1.21.21,0,0,1,0-.12V47.46a.16.16,0,0,1,0-.12.28.28,0,0,1,.13-.1,1.11,1.11,0,0,1,.24-.05l.38,0,.39,0a1.11,1.11,0,0,1,.24.05.4.4,0,0,1,.12.1.21.21,0,0,1,0,.12v.82a5,5,0,0,1,.48-.61,2.3,2.3,0,0,1,.43-.37,1.29,1.29,0,0,1,.41-.2,1.44,1.44,0,0,1,.41-.05h.21l.22,0,.21.06a.5.5,0,0,1,.13.07l.06.08a1,1,0,0,1,0,.12,1.21,1.21,0,0,1,0,.23C48.46,47.76,48.47,47.9,48.47,48.07Z"/><path d="M55.17,50.54A.73.73,0,0,1,55,51a.53.53,0,0,1-.41.16h-4a2.59,2.59,0,0,0,.1.76,1.32,1.32,0,0,0,.87.94,2.49,2.49,0,0,0,.82.12,4.36,4.36,0,0,0,.85-.07,4.18,4.18,0,0,0,.63-.15l.44-.15a.75.75,0,0,1,.29-.07.2.2,0,0,1,.11,0,.22.22,0,0,1,.07.09.78.78,0,0,1,0,.19,2.63,2.63,0,0,1,0,.3,2.35,2.35,0,0,1,0,.28,1,1,0,0,1,0,.19.47.47,0,0,1,0,.14.39.39,0,0,1-.08.1.79.79,0,0,1-.26.14,4.23,4.23,0,0,1-.54.18c-.22,0-.47.1-.75.14a6.62,6.62,0,0,1-.91.06,4.75,4.75,0,0,1-1.53-.22,2.56,2.56,0,0,1-1.09-.66A2.71,2.71,0,0,1,49,52.4a5.43,5.43,0,0,1-.22-1.6A5.13,5.13,0,0,1,49,49.23a3.23,3.23,0,0,1,.66-1.18,2.81,2.81,0,0,1,1-.75,3.64,3.64,0,0,1,1.4-.25,3.69,3.69,0,0,1,1.4.24,2.37,2.37,0,0,1,.95.67A2.54,2.54,0,0,1,55,49a4.35,4.35,0,0,1,.18,1.28ZM53.38,50a1.88,1.88,0,0,0-.31-1.22,1.21,1.21,0,0,0-1-.44,1.31,1.31,0,0,0-.61.13,1.26,1.26,0,0,0-.43.36,1.5,1.5,0,0,0-.26.52,2.33,2.33,0,0,0-.11.65Z"/><path d="M61,52.15a2.17,2.17,0,0,1-.21,1,1.94,1.94,0,0,1-.59.71,2.68,2.68,0,0,1-.9.43,4.12,4.12,0,0,1-1.13.14,3.91,3.91,0,0,1-.7,0,4.43,4.43,0,0,1-.6-.14,4.1,4.1,0,0,1-.44-.17,1,1,0,0,1-.25-.17.46.46,0,0,1-.13-.24,2,2,0,0,1,0-.49,3.33,3.33,0,0,1,0-.34.83.83,0,0,1,.05-.2s0-.09.07-.1a.2.2,0,0,1,.11,0,.6.6,0,0,1,.24.09,3.43,3.43,0,0,0,.39.2,3.16,3.16,0,0,0,.55.21,2.48,2.48,0,0,0,.7.09,1.44,1.44,0,0,0,.44,0,1.05,1.05,0,0,0,.34-.14.65.65,0,0,0,.22-.25.7.7,0,0,0,.07-.33.57.57,0,0,0-.13-.38,1.26,1.26,0,0,0-.36-.27,3,3,0,0,0-.51-.22l-.58-.23a5.23,5.23,0,0,1-.58-.29,2.33,2.33,0,0,1-.5-.39,1.85,1.85,0,0,1-.36-.57,2.07,2.07,0,0,1-.14-.79,1.9,1.9,0,0,1,.19-.86,1.87,1.87,0,0,1,.52-.67,2.56,2.56,0,0,1,.84-.43,4.29,4.29,0,0,1,1.71-.11,5.2,5.2,0,0,1,.52.11,2.3,2.3,0,0,1,.4.14,1.86,1.86,0,0,1,.23.13.32.32,0,0,1,.14.25c0,.05,0,.11,0,.19a2.27,2.27,0,0,1,0,.28,2.92,2.92,0,0,1,0,.32.88.88,0,0,1,0,.2.2.2,0,0,1-.07.1.16.16,0,0,1-.1,0,.55.55,0,0,1-.21-.07,2.14,2.14,0,0,0-.34-.17,3.53,3.53,0,0,0-.49-.16,2.33,2.33,0,0,0-.62-.08,1.9,1.9,0,0,0-.44,0,.84.84,0,0,0-.3.15.72.72,0,0,0-.17.22.67.67,0,0,0-.06.28.57.57,0,0,0,.14.38,1.22,1.22,0,0,0,.37.27,4.11,4.11,0,0,0,.51.22l.59.22a6.19,6.19,0,0,1,.58.28,2.06,2.06,0,0,1,.52.4,1.88,1.88,0,0,1,.37.56A2,2,0,0,1,61,52.15Z"/><path d="M67.64,54a.19.19,0,0,1-.08.16.41.41,0,0,1-.23.08,2.61,2.61,0,0,1-.46,0,2.72,2.72,0,0,1-.48,0,.34.34,0,0,1-.21-.08.19.19,0,0,1-.07-.16V53.5a2.87,2.87,0,0,1-.92.67,2.64,2.64,0,0,1-1.14.24,3.23,3.23,0,0,1-1-.13,2.24,2.24,0,0,1-.75-.4,1.87,1.87,0,0,1-.5-.67,2.36,2.36,0,0,1-.17-.92,2.07,2.07,0,0,1,.22-1,1.8,1.8,0,0,1,.67-.7,3.16,3.16,0,0,1,1.1-.4,7.67,7.67,0,0,1,1.53-.14h.64v-.39a2.12,2.12,0,0,0-.06-.54.94.94,0,0,0-.21-.38.81.81,0,0,0-.38-.23,2,2,0,0,0-.59-.07,2.92,2.92,0,0,0-.82.1,4.72,4.72,0,0,0-.64.22c-.19.09-.35.16-.47.23a.65.65,0,0,1-.3.1.2.2,0,0,1-.15-.05.39.39,0,0,1-.1-.14.84.84,0,0,1-.06-.24,1.47,1.47,0,0,1,0-.31,1.56,1.56,0,0,1,0-.35.58.58,0,0,1,.14-.24,1.57,1.57,0,0,1,.36-.24,4.46,4.46,0,0,1,.6-.23,4.12,4.12,0,0,1,.75-.18,4.61,4.61,0,0,1,.84-.07,5.1,5.1,0,0,1,1.32.15,2.15,2.15,0,0,1,.89.46,1.77,1.77,0,0,1,.52.8,4,4,0,0,1,.16,1.16Zm-1.81-2.8h-.71a3.39,3.39,0,0,0-.76.07,1.51,1.51,0,0,0-.51.19.88.88,0,0,0-.29.32,1,1,0,0,0-.09.43.84.84,0,0,0,.26.65,1.05,1.05,0,0,0,.72.23,1.39,1.39,0,0,0,.72-.2,3,3,0,0,0,.66-.58Z"/><path d="M75.41,54a.16.16,0,0,1,0,.12.36.36,0,0,1-.15.1,1.3,1.3,0,0,1-.28.05l-.44,0-.45,0a1.3,1.3,0,0,1-.28-.05.36.36,0,0,1-.15-.1.16.16,0,0,1,0-.12V50.27a3.52,3.52,0,0,0-.07-.75,1.5,1.5,0,0,0-.21-.46.83.83,0,0,0-.34-.3,1,1,0,0,0-.48-.11,1.22,1.22,0,0,0-.71.26,4,4,0,0,0-.75.74V54a.21.21,0,0,1,0,.12.36.36,0,0,1-.15.1,1.72,1.72,0,0,1-.29.05l-.44,0-.45,0a1.43,1.43,0,0,1-.28-.05.36.36,0,0,1-.15-.1.17.17,0,0,1,0-.12V47.46a.21.21,0,0,1,0-.12.28.28,0,0,1,.13-.1l.25-.05.37,0,.39,0a.89.89,0,0,1,.24.05.25.25,0,0,1,.12.1.16.16,0,0,1,0,.12v.76a4.09,4.09,0,0,1,1.1-.88A2.42,2.42,0,0,1,73,47.05a2.51,2.51,0,0,1,1.12.22,1.82,1.82,0,0,1,.74.59,2.35,2.35,0,0,1,.41.89A5.26,5.26,0,0,1,75.41,50Z"/><path d="M80.65,53.35a2.17,2.17,0,0,1,0,.5.54.54,0,0,1-.11.24.39.39,0,0,1-.19.12l-.3.1c-.12,0-.24,0-.37.06a2.82,2.82,0,0,1-.41,0,2.72,2.72,0,0,1-1-.14,1.6,1.6,0,0,1-.67-.42,1.9,1.9,0,0,1-.39-.73,4,4,0,0,1-.12-1V48.71h-.79c-.09,0-.16-.06-.21-.17A1.64,1.64,0,0,1,76,48a3.53,3.53,0,0,1,0-.36,1.14,1.14,0,0,1,0-.23l.09-.12a.28.28,0,0,1,.13,0h.78V45.76a.18.18,0,0,1,0-.13.25.25,0,0,1,.15-.1.9.9,0,0,1,.28-.06l.44,0,.45,0a1,1,0,0,1,.29.06.3.3,0,0,1,.14.1.19.19,0,0,1,0,.13v1.45h1.42a.28.28,0,0,1,.13,0l.09.12a1.14,1.14,0,0,1,0,.23,3.53,3.53,0,0,1,0,.36,1.64,1.64,0,0,1-.07.58.24.24,0,0,1-.22.17H78.94v3.07a1.57,1.57,0,0,0,.16.8.67.67,0,0,0,.61.27,1.09,1.09,0,0,0,.26,0l.21-.06.15-.06.12,0,.08,0a.17.17,0,0,1,.06.11.87.87,0,0,1,0,.21A2.77,2.77,0,0,1,80.65,53.35Z"/><path d="M87.54,50.54a.68.68,0,0,1-.16.5.5.5,0,0,1-.41.16H83a3,3,0,0,0,.1.76,1.5,1.5,0,0,0,.32.58,1.42,1.42,0,0,0,.55.36,2.49,2.49,0,0,0,.82.12,4.29,4.29,0,0,0,.85-.07,3.66,3.66,0,0,0,.63-.15l.45-.15a.75.75,0,0,1,.28-.07.18.18,0,0,1,.11,0,.24.24,0,0,1,.08.09.78.78,0,0,1,0,.19c0,.08,0,.18,0,.3s0,.2,0,.28,0,.14,0,.19a.46.46,0,0,1,0,.14.36.36,0,0,1-.07.1.79.79,0,0,1-.26.14,4.23,4.23,0,0,1-.54.18c-.22,0-.48.1-.76.14a6.52,6.52,0,0,1-.91.06,4.64,4.64,0,0,1-1.52-.22,2.6,2.6,0,0,1-1.1-.66,2.8,2.8,0,0,1-.65-1.13,5.11,5.11,0,0,1-.22-1.6,4.84,4.84,0,0,1,.23-1.57A3.37,3.37,0,0,1,82,48.05a2.77,2.77,0,0,1,1.06-.75,4.09,4.09,0,0,1,2.79,0,2.48,2.48,0,0,1,1,.67,2.67,2.67,0,0,1,.55,1,4.35,4.35,0,0,1,.18,1.28ZM85.75,50a1.94,1.94,0,0,0-.31-1.22,1.23,1.23,0,0,0-1-.44,1.28,1.28,0,0,0-.61.13,1.29,1.29,0,0,0-.44.36,1.69,1.69,0,0,0-.26.52A2.76,2.76,0,0,0,83,50Z"/><path d="M97.88,50.54a.73.73,0,0,1-.15.5.53.53,0,0,1-.41.16h-4a2.59,2.59,0,0,0,.1.76,1.32,1.32,0,0,0,.87.94,2.49,2.49,0,0,0,.82.12A4.19,4.19,0,0,0,96,53a4,4,0,0,0,.64-.15l.44-.15a.75.75,0,0,1,.29-.07.2.2,0,0,1,.11,0,.22.22,0,0,1,.07.09.78.78,0,0,1,0,.19,2.63,2.63,0,0,1,0,.3,2.35,2.35,0,0,1,0,.28,1,1,0,0,1,0,.19.47.47,0,0,1,0,.14.39.39,0,0,1-.08.1.79.79,0,0,1-.26.14,4.23,4.23,0,0,1-.54.18c-.22,0-.47.1-.76.14a6.37,6.37,0,0,1-.9.06,4.75,4.75,0,0,1-1.53-.22,2.56,2.56,0,0,1-1.09-.66,2.71,2.71,0,0,1-.66-1.13,5.43,5.43,0,0,1-.22-1.6,5.13,5.13,0,0,1,.23-1.57,3.23,3.23,0,0,1,.66-1.18,2.81,2.81,0,0,1,1.05-.75,3.64,3.64,0,0,1,1.4-.25,3.69,3.69,0,0,1,1.4.24,2.37,2.37,0,0,1,1,.67,2.54,2.54,0,0,1,.55,1,4.35,4.35,0,0,1,.18,1.28ZM96.09,50a1.88,1.88,0,0,0-.31-1.22,1.22,1.22,0,0,0-1-.44,1.31,1.31,0,0,0-.61.13,1.26,1.26,0,0,0-.43.36,1.51,1.51,0,0,0-.27.52,2.76,2.76,0,0,0-.1.65Z"/><path d="M103.69,52.15a2.17,2.17,0,0,1-.21,1,1.82,1.82,0,0,1-.58.71,2.64,2.64,0,0,1-.91.43,4,4,0,0,1-1.12.14,3.91,3.91,0,0,1-.7,0,4.1,4.1,0,0,1-.6-.14,3.41,3.41,0,0,1-.44-.17,1.3,1.3,0,0,1-.26-.17.54.54,0,0,1-.12-.24,2,2,0,0,1,0-.49,3.33,3.33,0,0,1,0-.34.88.88,0,0,1,0-.2.17.17,0,0,1,.08-.1.18.18,0,0,1,.11,0,.6.6,0,0,1,.24.09,3.43,3.43,0,0,0,.39.2,3,3,0,0,0,.54.21,2.6,2.6,0,0,0,.71.09,1.48,1.48,0,0,0,.44,0,1.16,1.16,0,0,0,.34-.14.65.65,0,0,0,.22-.25.84.84,0,0,0,.07-.33.57.57,0,0,0-.14-.38,1.13,1.13,0,0,0-.36-.27,2.59,2.59,0,0,0-.5-.22l-.58-.23a4.48,4.48,0,0,1-.58-.29,2.11,2.11,0,0,1-.5-.39,1.85,1.85,0,0,1-.36-.57,2.07,2.07,0,0,1-.14-.79,1.89,1.89,0,0,1,.71-1.53,2.56,2.56,0,0,1,.84-.43,3.82,3.82,0,0,1,1.11-.15,3.94,3.94,0,0,1,.6,0,5.2,5.2,0,0,1,.52.11,2.3,2.3,0,0,1,.4.14l.23.13.1.11a.47.47,0,0,1,0,.14c0,.05,0,.11,0,.19s0,.17,0,.28,0,.24,0,.32a.88.88,0,0,1,0,.2.2.2,0,0,1-.07.1.16.16,0,0,1-.1,0,.5.5,0,0,1-.21-.07,2.3,2.3,0,0,0-.35-.17,3.36,3.36,0,0,0-.48-.16,2.35,2.35,0,0,0-.63-.08,1.81,1.81,0,0,0-.43,0,.84.84,0,0,0-.3.15.6.6,0,0,0-.17.22.67.67,0,0,0-.06.28.53.53,0,0,0,.14.38,1.3,1.3,0,0,0,.36.27,4.28,4.28,0,0,0,.52.22l.59.22c.19.08.39.18.58.28a2.25,2.25,0,0,1,.52.4,1.69,1.69,0,0,1,.36.56A1.83,1.83,0,0,1,103.69,52.15Z"/><path d="M108.48,53.35a3,3,0,0,1,0,.5.67.67,0,0,1-.11.24.44.44,0,0,1-.19.12l-.3.1a3.79,3.79,0,0,1-.38.06,2.68,2.68,0,0,1-.4,0,2.78,2.78,0,0,1-1-.14,1.56,1.56,0,0,1-.66-.42,1.77,1.77,0,0,1-.39-.73,4,4,0,0,1-.13-1V48.71h-.78c-.09,0-.16-.06-.21-.17a1.59,1.59,0,0,1-.08-.58,3.53,3.53,0,0,1,0-.36,1.09,1.09,0,0,1,.06-.23.27.27,0,0,1,.09-.12.28.28,0,0,1,.13,0h.77V45.76a.25.25,0,0,1,0-.13.28.28,0,0,1,.15-.1,1,1,0,0,1,.29-.06l.44,0,.45,0a.9.9,0,0,1,.28.06.28.28,0,0,1,.15.1.18.18,0,0,1,0,.13v1.45h1.42a.25.25,0,0,1,.13,0,.27.27,0,0,1,.09.12.7.7,0,0,1,.06.23,3.53,3.53,0,0,1,0,.36,1.59,1.59,0,0,1-.08.58c-.05.11-.12.17-.21.17h-1.43v3.07a1.56,1.56,0,0,0,.17.8.65.65,0,0,0,.6.27,1.12,1.12,0,0,0,.27,0l.2-.06.16-.06.11,0,.09,0a.36.36,0,0,1,.06.11,2,2,0,0,1,0,.21A2.77,2.77,0,0,1,108.48,53.35Z"/><path d="M114.93,54a.19.19,0,0,1-.07.16.44.44,0,0,1-.23.08,3.78,3.78,0,0,1-.95,0,.34.34,0,0,1-.21-.08.21.21,0,0,1-.06-.16V53.5a3,3,0,0,1-.92.67,2.72,2.72,0,0,1-1.15.24,3.28,3.28,0,0,1-1-.13,2.24,2.24,0,0,1-.75-.4,1.74,1.74,0,0,1-.49-.67,2.39,2.39,0,0,1,0-1.91,1.8,1.8,0,0,1,.67-.7,3.23,3.23,0,0,1,1.1-.4,7.67,7.67,0,0,1,1.53-.14h.64v-.39a2.12,2.12,0,0,0-.06-.54.83.83,0,0,0-.21-.38.77.77,0,0,0-.38-.23,2,2,0,0,0-.59-.07,3,3,0,0,0-.82.1,5.26,5.26,0,0,0-.64.22L110,49a.62.62,0,0,1-.3.1.17.17,0,0,1-.14-.05.31.31,0,0,1-.11-.14q0-.1-.06-.24a2.69,2.69,0,0,1,0-.31,1.08,1.08,0,0,1,0-.35.49.49,0,0,1,.14-.24,1.28,1.28,0,0,1,.35-.24,4.46,4.46,0,0,1,.6-.23,4,4,0,0,1,.76-.18,4.57,4.57,0,0,1,.83-.07,5,5,0,0,1,1.32.15,2.26,2.26,0,0,1,.9.46,1.84,1.84,0,0,1,.51.8,3.7,3.7,0,0,1,.16,1.16Zm-1.81-2.8h-.7a3.33,3.33,0,0,0-.76.07,1.57,1.57,0,0,0-.52.19,1,1,0,0,0-.29.32,1,1,0,0,0-.09.43.84.84,0,0,0,.26.65,1.09,1.09,0,0,0,.72.23,1.39,1.39,0,0,0,.72-.2,2.83,2.83,0,0,0,.66-.58Z"/><path d="M38.21,67.82a.21.21,0,0,1-.05.13A.56.56,0,0,1,38,68a1.55,1.55,0,0,1-.29,0l-.44,0-.45,0a1.43,1.43,0,0,1-.28,0,.49.49,0,0,1-.15-.09.2.2,0,0,1,0-.13V64.09a3.52,3.52,0,0,0-.07-.75,1.77,1.77,0,0,0-.2-.46.89.89,0,0,0-.34-.3,1.1,1.1,0,0,0-.49-.11,1.24,1.24,0,0,0-.71.26,4,4,0,0,0-.75.74v4.35a.2.2,0,0,1,0,.13.49.49,0,0,1-.15.09l-.28,0-.45,0-.45,0a1.43,1.43,0,0,1-.28,0A.49.49,0,0,1,32,68a.2.2,0,0,1,0-.13V58.19a.23.23,0,0,1,0-.14.36.36,0,0,1,.15-.1l.28-.06.45,0,.45,0,.28.06a.36.36,0,0,1,.15.1.23.23,0,0,1,0,.14V61.8a3.34,3.34,0,0,1,1-.7,2.31,2.31,0,0,1,1-.23,2.59,2.59,0,0,1,1.13.22,1.79,1.79,0,0,1,.73.6,2.35,2.35,0,0,1,.41.89,5.39,5.39,0,0,1,.13,1.23Z"/><path d="M45.75,64.36a.73.73,0,0,1-.15.5.53.53,0,0,1-.41.16h-4a2.59,2.59,0,0,0,.1.76,1.62,1.62,0,0,0,.31.58,1.46,1.46,0,0,0,.56.36,2.49,2.49,0,0,0,.82.12,4.36,4.36,0,0,0,.85-.07,4.18,4.18,0,0,0,.63-.15l.44-.15a.79.79,0,0,1,.29-.07l.11,0a.22.22,0,0,1,.07.09.78.78,0,0,1,0,.19,2.63,2.63,0,0,1,0,.3v.28c0,.07,0,.14,0,.19a.47.47,0,0,1,0,.14.25.25,0,0,1-.08.1.64.64,0,0,1-.26.14,4.23,4.23,0,0,1-.54.18c-.22,0-.47.1-.75.14a6.62,6.62,0,0,1-.91.06A4.75,4.75,0,0,1,41.3,68a2.56,2.56,0,0,1-1.09-.66,2.82,2.82,0,0,1-.66-1.13,5.44,5.44,0,0,1-.21-1.6,5.14,5.14,0,0,1,.22-1.57,3.23,3.23,0,0,1,.66-1.18,2.81,2.81,0,0,1,1.05-.75,3.64,3.64,0,0,1,1.4-.25,3.69,3.69,0,0,1,1.4.24,2.48,2.48,0,0,1,1,.67,2.67,2.67,0,0,1,.55,1,4.72,4.72,0,0,1,.17,1.28ZM44,63.83a1.84,1.84,0,0,0-.31-1.22,1.21,1.21,0,0,0-1-.44,1.33,1.33,0,0,0-.61.13,1.26,1.26,0,0,0-.43.36,1.5,1.5,0,0,0-.26.52,2.33,2.33,0,0,0-.11.65Z"/><path d="M51.16,61.89c0,.18,0,.32,0,.43a1.31,1.31,0,0,1,0,.27.2.2,0,0,1-.07.13.21.21,0,0,1-.12,0,.31.31,0,0,1-.13,0l-.17,0-.2-.06a.93.93,0,0,0-.24,0,.85.85,0,0,0-.31.06,1.22,1.22,0,0,0-.32.19,2.86,2.86,0,0,0-.34.35q-.18.22-.39.54v4.08a.2.2,0,0,1,0,.13.49.49,0,0,1-.15.09l-.28,0-.45,0-.45,0-.28,0A.49.49,0,0,1,47,68a.2.2,0,0,1,0-.13V61.28a.24.24,0,0,1,0-.12.32.32,0,0,1,.14-.1,1.11,1.11,0,0,1,.24-.05l.38,0,.39,0a.89.89,0,0,1,.23.05.25.25,0,0,1,.12.1.17.17,0,0,1,0,.12v.82a5,5,0,0,1,.48-.61,2.7,2.7,0,0,1,.44-.37,1.2,1.2,0,0,1,.41-.2,1.4,1.4,0,0,1,.41-.05h.2a1.81,1.81,0,0,1,.23,0l.21.06L51,61a.21.21,0,0,1,.06.08l0,.12s0,.13,0,.23Z"/><path d="M56.19,61.89c0,.18,0,.32,0,.43a1.42,1.42,0,0,1,0,.27.26.26,0,0,1-.08.13.21.21,0,0,1-.12,0l-.13,0-.17,0-.2-.06a.9.9,0,0,0-.24,0,.85.85,0,0,0-.31.06,1.22,1.22,0,0,0-.32.19,2.86,2.86,0,0,0-.34.35q-.18.22-.39.54v4.08a.2.2,0,0,1,0,.13.49.49,0,0,1-.15.09,1.43,1.43,0,0,1-.28,0l-.45,0-.45,0-.28,0A.49.49,0,0,1,52,68a.2.2,0,0,1,0-.13V61.28a.24.24,0,0,1,0-.12.32.32,0,0,1,.14-.1,1.11,1.11,0,0,1,.24-.05l.38,0,.39,0a1.11,1.11,0,0,1,.24.05.4.4,0,0,1,.12.1.24.24,0,0,1,0,.12v.82a4.19,4.19,0,0,1,.49-.61,2.3,2.3,0,0,1,.43-.37,1.29,1.29,0,0,1,.41-.2,1.44,1.44,0,0,1,.41-.05h.2a1.81,1.81,0,0,1,.23,0L56,61l.12.07a.21.21,0,0,1,.06.08.83.83,0,0,1,0,.12s0,.13,0,.23Z"/><path d="M62.27,67.84a.19.19,0,0,1-.08.16.41.41,0,0,1-.23.08,2.61,2.61,0,0,1-.46,0,2.72,2.72,0,0,1-.48,0,.34.34,0,0,1-.21-.08.19.19,0,0,1-.07-.16v-.52a2.87,2.87,0,0,1-.92.67,2.64,2.64,0,0,1-1.14.24,3.23,3.23,0,0,1-1-.13,2.24,2.24,0,0,1-.75-.4,1.76,1.76,0,0,1-.5-.67,2.36,2.36,0,0,1-.17-.92,2.07,2.07,0,0,1,.22-1,1.86,1.86,0,0,1,.67-.7,3.16,3.16,0,0,1,1.1-.4,7.67,7.67,0,0,1,1.53-.14h.64v-.39A2.12,2.12,0,0,0,60.4,63a.94.94,0,0,0-.21-.38.81.81,0,0,0-.38-.23,2,2,0,0,0-.59-.07,2.92,2.92,0,0,0-.82.1,4.07,4.07,0,0,0-.65.23c-.18.08-.34.15-.46.22a.65.65,0,0,1-.3.1.2.2,0,0,1-.15-.05.39.39,0,0,1-.1-.14.77.77,0,0,1-.06-.24,1.47,1.47,0,0,1,0-.31,1.56,1.56,0,0,1,0-.35.58.58,0,0,1,.14-.24,1.57,1.57,0,0,1,.36-.24,4.46,4.46,0,0,1,.6-.23,4.12,4.12,0,0,1,.75-.18,4.61,4.61,0,0,1,.84-.07A5.1,5.1,0,0,1,60.7,61a2.15,2.15,0,0,1,.89.46,1.77,1.77,0,0,1,.52.8,4,4,0,0,1,.16,1.16ZM60.46,65h-.71a3.39,3.39,0,0,0-.76.07,1.33,1.33,0,0,0-.51.2.78.78,0,0,0-.29.31,1,1,0,0,0-.09.43.84.84,0,0,0,.26.65,1.05,1.05,0,0,0,.72.23,1.25,1.25,0,0,0,.71-.2,2.85,2.85,0,0,0,.67-.58Z"/><path d="M74.2,67.82a.21.21,0,0,1,0,.13A.42.42,0,0,1,74,68a1.43,1.43,0,0,1-.28,0l-.45,0-.45,0a1.43,1.43,0,0,1-.28,0A.49.49,0,0,1,72.4,68a.2.2,0,0,1,0-.13V63.94a2.77,2.77,0,0,0-.06-.6,1.48,1.48,0,0,0-.19-.46.94.94,0,0,0-.33-.3.92.92,0,0,0-.46-.11,1.13,1.13,0,0,0-.67.26,4.66,4.66,0,0,0-.73.74v4.35a.2.2,0,0,1,0,.13.49.49,0,0,1-.15.09,1.55,1.55,0,0,1-.29,0l-.44,0-.44,0a1.43,1.43,0,0,1-.28,0,.49.49,0,0,1-.15-.09.21.21,0,0,1,0-.13V63.94a2.77,2.77,0,0,0-.06-.6,1.27,1.27,0,0,0-.19-.46.84.84,0,0,0-.32-.3,1,1,0,0,0-.46-.11,1.09,1.09,0,0,0-.67.26,4.27,4.27,0,0,0-.73.74v4.35a.2.2,0,0,1,0,.13.49.49,0,0,1-.15.09,1.55,1.55,0,0,1-.29,0l-.44,0-.45,0A1.43,1.43,0,0,1,64,68a.49.49,0,0,1-.15-.09.21.21,0,0,1-.05-.13V61.28a.25.25,0,0,1,0-.12.34.34,0,0,1,.13-.1l.25-.05.38,0L65,61a.89.89,0,0,1,.24.05.25.25,0,0,1,.12.1.17.17,0,0,1,0,.12V62a4.18,4.18,0,0,1,1.08-.88,2.26,2.26,0,0,1,1.12-.29,2.77,2.77,0,0,1,.73.08,2.27,2.27,0,0,1,.57.24,1.8,1.8,0,0,1,.44.38,2.71,2.71,0,0,1,.31.49,4.72,4.72,0,0,1,.57-.54,3.37,3.37,0,0,1,.56-.37,2.07,2.07,0,0,1,.55-.21,2.1,2.1,0,0,1,.56-.07,2.45,2.45,0,0,1,1.1.22,1.89,1.89,0,0,1,.72.59,2.49,2.49,0,0,1,.39.89,4.55,4.55,0,0,1,.12,1.07Z"/><path d="M77.69,59.07a1,1,0,0,1-.22.77,1.3,1.3,0,0,1-.85.21,1.21,1.21,0,0,1-.83-.2,1,1,0,0,1-.22-.74,1,1,0,0,1,.22-.77,1.75,1.75,0,0,1,1.68,0A1,1,0,0,1,77.69,59.07Zm-.14,8.75a.2.2,0,0,1,0,.13.49.49,0,0,1-.15.09,1.43,1.43,0,0,1-.28,0l-.45,0-.45,0-.28,0a.49.49,0,0,1-.15-.09.2.2,0,0,1,0-.13V61.3a.2.2,0,0,1,0-.13.27.27,0,0,1,.15-.09,1.42,1.42,0,0,1,.28-.07l.45,0,.45,0a1.26,1.26,0,0,1,.28.07.27.27,0,0,1,.15.09.2.2,0,0,1,0,.13Z"/><path d="M85.13,64.36a.73.73,0,0,1-.15.5.54.54,0,0,1-.42.16h-4a3,3,0,0,0,.09.76,1.64,1.64,0,0,0,.32.58,1.39,1.39,0,0,0,.56.36,2.43,2.43,0,0,0,.81.12,4.22,4.22,0,0,0,.85-.07,4,4,0,0,0,.64-.15l.44-.15a.75.75,0,0,1,.29-.07l.1,0a.24.24,0,0,1,.08.09.78.78,0,0,1,0,.19,2.63,2.63,0,0,1,0,.3,2.35,2.35,0,0,1,0,.28,1,1,0,0,1,0,.19.47.47,0,0,1,0,.14.39.39,0,0,1-.08.1.64.64,0,0,1-.26.14,4.23,4.23,0,0,1-.54.18c-.22,0-.47.1-.76.14a6.42,6.42,0,0,1-.91.06A4.64,4.64,0,0,1,80.68,68a2.66,2.66,0,0,1-1.1-.66,2.8,2.8,0,0,1-.65-1.13,5.69,5.69,0,0,1,0-3.17,3.23,3.23,0,0,1,.66-1.18,2.74,2.74,0,0,1,1.05-.75A3.62,3.62,0,0,1,82,60.87a3.71,3.71,0,0,1,1.41.24,2.52,2.52,0,0,1,1,.67,2.67,2.67,0,0,1,.55,1,4.35,4.35,0,0,1,.18,1.28Zm-1.79-.53A2,2,0,0,0,83,62.61a1.22,1.22,0,0,0-1-.44,1.28,1.28,0,0,0-.61.13,1.17,1.17,0,0,0-.43.36,1.51,1.51,0,0,0-.27.52,2.76,2.76,0,0,0-.1.65Z"/><path d="M92.58,67.82a.2.2,0,0,1,0,.13.49.49,0,0,1-.15.09,1.43,1.43,0,0,1-.28,0l-.44,0-.45,0a1.55,1.55,0,0,1-.29,0,.56.56,0,0,1-.14-.09.21.21,0,0,1-.05-.13V64.09a3,3,0,0,0-.07-.75,1.29,1.29,0,0,0-.2-.46.89.89,0,0,0-.34-.3,1.06,1.06,0,0,0-.48-.11,1.25,1.25,0,0,0-.72.26,4.28,4.28,0,0,0-.74.74v4.35a.21.21,0,0,1,0,.13A.49.49,0,0,1,88,68a1.43,1.43,0,0,1-.28,0l-.45,0-.44,0a1.43,1.43,0,0,1-.28,0,.39.39,0,0,1-.15-.09.21.21,0,0,1,0-.13V61.28a.17.17,0,0,1,0-.12.28.28,0,0,1,.13-.1l.25-.05.37,0,.39,0a1.11,1.11,0,0,1,.24.05.26.26,0,0,1,.16.22V62a4.09,4.09,0,0,1,1.1-.88,2.42,2.42,0,0,1,1.17-.29,2.51,2.51,0,0,1,1.12.22,1.89,1.89,0,0,1,.74.59,2.51,2.51,0,0,1,.41.89,5.26,5.26,0,0,1,.12,1.21Z"/><path d="M97.82,67.17a2.17,2.17,0,0,1,0,.5.54.54,0,0,1-.11.24.44.44,0,0,1-.19.12l-.3.1a2.16,2.16,0,0,1-.38.06,2.61,2.61,0,0,1-.4,0,2.68,2.68,0,0,1-1-.14,1.6,1.6,0,0,1-.67-.42,1.77,1.77,0,0,1-.39-.73,4,4,0,0,1-.12-1V62.53h-.79c-.09,0-.16-.06-.21-.17a1.64,1.64,0,0,1-.07-.58,1.94,1.94,0,0,1,0-.36,1.14,1.14,0,0,1,0-.23.38.38,0,0,1,.09-.12.28.28,0,0,1,.13,0h.78V59.58a.18.18,0,0,1,0-.13.22.22,0,0,1,.14-.1,1,1,0,0,1,.29-.06l.44,0,.45,0a1,1,0,0,1,.29.06.3.3,0,0,1,.14.1.19.19,0,0,1,0,.13V61h1.42a.21.21,0,0,1,.12,0,.4.4,0,0,1,.1.12,1.14,1.14,0,0,1,0,.23,3.53,3.53,0,0,1,0,.36,1.92,1.92,0,0,1-.07.58.24.24,0,0,1-.22.17H96.11V65.6a1.57,1.57,0,0,0,.16.8.67.67,0,0,0,.61.27,1.09,1.09,0,0,0,.26,0,1.05,1.05,0,0,0,.21-.06l.15-.06.11,0,.09,0a.17.17,0,0,1,.06.11.87.87,0,0,1,0,.21A2.77,2.77,0,0,1,97.82,67.17Z"/><path d="M104.27,67.84a.19.19,0,0,1-.07.16.44.44,0,0,1-.23.08,3.78,3.78,0,0,1-1,0,.34.34,0,0,1-.21-.08.21.21,0,0,1-.06-.16v-.52a3,3,0,0,1-.92.67,2.69,2.69,0,0,1-1.15.24,3.21,3.21,0,0,1-1-.13,2.4,2.4,0,0,1-.76-.4,1.85,1.85,0,0,1-.49-.67,2.19,2.19,0,0,1-.18-.92,2.07,2.07,0,0,1,.23-1,1.92,1.92,0,0,1,.66-.7,3.32,3.32,0,0,1,1.1-.4,7.78,7.78,0,0,1,1.54-.14h.63v-.39a2.12,2.12,0,0,0-.06-.54.92.92,0,0,0-.2-.38.87.87,0,0,0-.38-.23,2,2,0,0,0-.59-.07,3,3,0,0,0-.83.1,4.31,4.31,0,0,0-.64.23c-.18.08-.34.15-.46.22a.68.68,0,0,1-.31.1.19.19,0,0,1-.14-.05.3.3,0,0,1-.1-.14,1.15,1.15,0,0,1-.07-.24,2.69,2.69,0,0,1,0-.31,1.08,1.08,0,0,1,0-.35.49.49,0,0,1,.14-.24,1.57,1.57,0,0,1,.36-.24,4.46,4.46,0,0,1,.6-.23,4.12,4.12,0,0,1,.75-.18,4.61,4.61,0,0,1,.84-.07,5,5,0,0,1,1.31.15,2.19,2.19,0,0,1,.9.46,1.84,1.84,0,0,1,.51.8,3.7,3.7,0,0,1,.16,1.16ZM102.46,65h-.7a3.33,3.33,0,0,0-.76.07,1.33,1.33,0,0,0-.51.2.72.72,0,0,0-.29.31,1,1,0,0,0-.09.43.81.81,0,0,0,.26.65,1.05,1.05,0,0,0,.72.23,1.3,1.3,0,0,0,.71-.2,2.64,2.64,0,0,0,.66-.58Z"/><path d="M41,80.39a3.06,3.06,0,0,1,.18-1.08,2.49,2.49,0,0,1,.48-.84,2.46,2.46,0,0,1,.75-.56,3,3,0,0,1,1-.27l.06-1.43c0-.09.07-.15.21-.2a2.09,2.09,0,0,1,.58-.06h.41a1,1,0,0,1,.26,0,.24.24,0,0,1,.13.08.26.26,0,0,1,.06.13l.06,1.73a1.47,1.47,0,0,1,0,.38.49.49,0,0,1-.11.23.35.35,0,0,1-.19.12.79.79,0,0,1-.28,0h-.1a1.71,1.71,0,0,0-.67.12,1.33,1.33,0,0,0-.47.33,1.25,1.25,0,0,0-.26.48,2,2,0,0,0-.09.6,1.87,1.87,0,0,0,.1.64,1.44,1.44,0,0,0,.3.51,1.2,1.2,0,0,0,.51.32,1.92,1.92,0,0,0,.71.12,2.59,2.59,0,0,0,.66-.08,3.53,3.53,0,0,0,.49-.16l.34-.16a.46.46,0,0,1,.21-.07.14.14,0,0,1,.09,0,.23.23,0,0,1,.08.12,1.18,1.18,0,0,1,0,.25,2.43,2.43,0,0,1,0,.41,1.74,1.74,0,0,1,0,.37.34.34,0,0,1-.09.19,1.36,1.36,0,0,1-.28.18l-.49.18a5.09,5.09,0,0,1-.64.14,4.32,4.32,0,0,1-.73.06,4.06,4.06,0,0,1-1.48-.24,2.78,2.78,0,0,1-1-.64,2.45,2.45,0,0,1-.57-.92A3.1,3.1,0,0,1,41,80.39Zm2.17-6.27a2.37,2.37,0,0,1,.05-.51.65.65,0,0,1,.17-.33.77.77,0,0,1,.32-.18,1.76,1.76,0,0,1,.49,0,1.82,1.82,0,0,1,.51,0,.77.77,0,0,1,.32.18.74.74,0,0,1,.17.33,2.45,2.45,0,0,1,0,.51,2.51,2.51,0,0,1,0,.51A.84.84,0,0,1,45,75a.77.77,0,0,1-.32.18,1.78,1.78,0,0,1-.51.06,1.73,1.73,0,0,1-.49-.06.77.77,0,0,1-.32-.18.73.73,0,0,1-.17-.34A2.44,2.44,0,0,1,43.16,74.12Z"/><path d="M52.14,81.55a.54.54,0,0,1-.1.2.35.35,0,0,1-.19.12,2.06,2.06,0,0,1-.35,0H50.4l-.36,0-.23,0-.16-.07a.24.24,0,0,1-.09-.11,1.16,1.16,0,0,1-.06-.15l-2.82-8.4a2.19,2.19,0,0,1-.11-.42.25.25,0,0,1,.07-.23.67.67,0,0,1,.32-.1l.61,0,.53,0a1.55,1.55,0,0,1,.29.05.2.2,0,0,1,.14.11.75.75,0,0,1,.08.18L50.92,80h0l2.27-7.27a.77.77,0,0,1,.07-.2.31.31,0,0,1,.15-.12,1,1,0,0,1,.3-.06l.55,0a3.45,3.45,0,0,1,.52,0,.39.39,0,0,1,.26.1.31.31,0,0,1,0,.24,2.88,2.88,0,0,1-.11.41Z"/><path d="M61.15,78.18a.73.73,0,0,1-.15.5.53.53,0,0,1-.41.16h-4a2.59,2.59,0,0,0,.1.76,1.32,1.32,0,0,0,.87.94,2.43,2.43,0,0,0,.81.12,4.22,4.22,0,0,0,.85-.07,4,4,0,0,0,.64-.15l.44-.15a.75.75,0,0,1,.29-.07.2.2,0,0,1,.11,0,.22.22,0,0,1,.07.09.78.78,0,0,1,0,.19,2.63,2.63,0,0,1,0,.3,2.35,2.35,0,0,1,0,.28,1,1,0,0,1,0,.19.47.47,0,0,1,0,.14.39.39,0,0,1-.08.1.64.64,0,0,1-.26.14,4.23,4.23,0,0,1-.54.18c-.22.05-.47.1-.76.14a6.37,6.37,0,0,1-.9.06,4.7,4.7,0,0,1-1.53-.22,2.66,2.66,0,0,1-1.1-.66A2.8,2.8,0,0,1,55,80a5.69,5.69,0,0,1,0-3.17,3.23,3.23,0,0,1,.66-1.18,2.81,2.81,0,0,1,1.05-.75,3.64,3.64,0,0,1,1.4-.25,3.69,3.69,0,0,1,1.4.24,2.44,2.44,0,0,1,1,.67,2.54,2.54,0,0,1,.55,1,4.35,4.35,0,0,1,.18,1.28Zm-1.79-.53a1.9,1.9,0,0,0-.31-1.22A1.22,1.22,0,0,0,58,76a1.31,1.31,0,0,0-.61.13,1.26,1.26,0,0,0-.43.36,1.51,1.51,0,0,0-.27.52,2.76,2.76,0,0,0-.1.65Z"/><path d="M66.56,75.71c0,.18,0,.32,0,.43a1.31,1.31,0,0,1,0,.27.24.24,0,0,1-.08.13.21.21,0,0,1-.12,0l-.13,0-.16,0-.2-.06a1,1,0,0,0-.25,0,.82.82,0,0,0-.3.07,1.08,1.08,0,0,0-.32.19,2.88,2.88,0,0,0-.35.35c-.12.15-.24.33-.38.54v4.08a.21.21,0,0,1,0,.12.34.34,0,0,1-.16.1,1.43,1.43,0,0,1-.28,0l-.44,0-.45,0a1.43,1.43,0,0,1-.28,0,.36.36,0,0,1-.15-.1.17.17,0,0,1,0-.12V75.1a.25.25,0,0,1,0-.12.28.28,0,0,1,.13-.1l.25,0,.37,0,.39,0a1,1,0,0,1,.24,0,.25.25,0,0,1,.12.1.17.17,0,0,1,0,.12v.82a5,5,0,0,1,.48-.61,2.67,2.67,0,0,1,.43-.37,1.4,1.4,0,0,1,.41-.2,1.48,1.48,0,0,1,.41,0h.21l.23,0,.2.06a.5.5,0,0,1,.13.07.21.21,0,0,1,.06.08,1,1,0,0,1,0,.12,1.21,1.21,0,0,1,0,.23C66.56,75.4,66.56,75.54,66.56,75.71Z"/><path d="M73.41,81.64a.18.18,0,0,1,0,.13.19.19,0,0,1-.12.09.7.7,0,0,1-.24.06h-.75a.7.7,0,0,1-.24-.06.25.25,0,0,1-.13-.09.18.18,0,0,1,0-.13v-.73a4.25,4.25,0,0,1-1.06.84,2.54,2.54,0,0,1-1.23.3A2.38,2.38,0,0,1,67.46,81,3.2,3.2,0,0,1,67,79.84a6.21,6.21,0,0,1-.15-1.38A5.82,5.82,0,0,1,67,76.89a3.52,3.52,0,0,1,.54-1.19,2.52,2.52,0,0,1,.9-.75,2.65,2.65,0,0,1,1.23-.26,2.18,2.18,0,0,1,1,.22,3.47,3.47,0,0,1,.89.66V72a.18.18,0,0,1,0-.13.26.26,0,0,1,.14-.1,1.54,1.54,0,0,1,.29-.07l.44,0,.45,0a1.26,1.26,0,0,1,.28.07.28.28,0,0,1,.15.1.25.25,0,0,1,0,.13Zm-1.83-4.37a4.52,4.52,0,0,0-.76-.76,1.23,1.23,0,0,0-.76-.26,1.08,1.08,0,0,0-.62.18,1.28,1.28,0,0,0-.41.48,2.31,2.31,0,0,0-.24.67,3.74,3.74,0,0,0-.08.75,5.18,5.18,0,0,0,.07.8,2.33,2.33,0,0,0,.22.69,1.22,1.22,0,0,0,.4.49,1,1,0,0,0,.63.18,1.18,1.18,0,0,0,.37,0,1.73,1.73,0,0,0,.36-.18,2.21,2.21,0,0,0,.39-.33,6,6,0,0,0,.43-.49Z"/><path d="M80.53,81.66a.22.22,0,0,1-.07.16.45.45,0,0,1-.24.08,2.61,2.61,0,0,1-.46,0,2.72,2.72,0,0,1-.48,0,.34.34,0,0,1-.21-.08.22.22,0,0,1-.07-.16v-.52a2.83,2.83,0,0,1-.91.67,2.72,2.72,0,0,1-1.15.24,3.23,3.23,0,0,1-1-.13,2.24,2.24,0,0,1-.75-.4,1.87,1.87,0,0,1-.5-.67,2.36,2.36,0,0,1-.17-.92,2.07,2.07,0,0,1,.22-1,1.86,1.86,0,0,1,.67-.7,3.16,3.16,0,0,1,1.1-.4,7.67,7.67,0,0,1,1.53-.14h.64v-.39a2.12,2.12,0,0,0-.06-.54.83.83,0,0,0-.21-.38.77.77,0,0,0-.38-.23,2,2,0,0,0-.59-.07,2.92,2.92,0,0,0-.82.1,5.26,5.26,0,0,0-.64.22l-.47.23a.62.62,0,0,1-.3.1.21.21,0,0,1-.15,0,.39.39,0,0,1-.1-.14c0-.07,0-.14-.06-.24a2.69,2.69,0,0,1,0-.31,1.08,1.08,0,0,1,0-.35.56.56,0,0,1,.13-.24,1.57,1.57,0,0,1,.36-.24,4.46,4.46,0,0,1,.6-.23,4.12,4.12,0,0,1,.75-.18,4.68,4.68,0,0,1,.84-.07,5.05,5.05,0,0,1,1.32.15,2.15,2.15,0,0,1,.89.46,1.77,1.77,0,0,1,.52.8,4,4,0,0,1,.16,1.16Zm-1.81-2.8H78a3.43,3.43,0,0,0-.77.07,1.51,1.51,0,0,0-.51.19.88.88,0,0,0-.29.32,1,1,0,0,0-.09.43.84.84,0,0,0,.26.65,1.07,1.07,0,0,0,.72.23,1.39,1.39,0,0,0,.72-.2,3,3,0,0,0,.66-.58Z"/><path d="M88.26,81.64a.25.25,0,0,1,0,.13.25.25,0,0,1-.13.09.7.7,0,0,1-.24.06h-.75a.64.64,0,0,1-.23-.06.24.24,0,0,1-.14-.09.25.25,0,0,1,0-.13v-.73a4.08,4.08,0,0,1-1.06.84,2.48,2.48,0,0,1-1.22.3,2.51,2.51,0,0,1-1.27-.29,2.48,2.48,0,0,1-.84-.77,3.39,3.39,0,0,1-.47-1.15,6.21,6.21,0,0,1-.15-1.38,5.82,5.82,0,0,1,.19-1.57,3.72,3.72,0,0,1,.54-1.19,2.52,2.52,0,0,1,.9-.75,2.68,2.68,0,0,1,1.23-.26,2.19,2.19,0,0,1,1,.22,3.61,3.61,0,0,1,.88.66V72a.25.25,0,0,1,0-.13.28.28,0,0,1,.15-.1,1.26,1.26,0,0,1,.28-.07l.45,0,.44,0a1.26,1.26,0,0,1,.28.07.28.28,0,0,1,.15.1.18.18,0,0,1,0,.13Zm-1.83-4.37a3.88,3.88,0,0,0-.76-.76,1.22,1.22,0,0,0-.75-.26,1.05,1.05,0,0,0-.62.18,1.22,1.22,0,0,0-.42.48,2.65,2.65,0,0,0-.24.67,3.74,3.74,0,0,0-.07.75,5.19,5.19,0,0,0,.06.8,2.66,2.66,0,0,0,.22.69,1.22,1.22,0,0,0,.4.49,1.07,1.07,0,0,0,.63.18,1.14,1.14,0,0,0,.37,0,1.79,1.79,0,0,0,.37-.18,2.18,2.18,0,0,0,.38-.33,4.53,4.53,0,0,0,.43-.49Z"/><path d="M95.24,74.65a3.06,3.06,0,0,1-.18,1.08,2.4,2.4,0,0,1-.48.84,2.46,2.46,0,0,1-.75.56,3,3,0,0,1-1,.27l-.06,1.43c0,.09-.07.16-.21.2a2.07,2.07,0,0,1-.58.07l-.41,0a.89.89,0,0,1-.26,0,.27.27,0,0,1-.14-.08.32.32,0,0,1,0-.13L91.1,77.1a1.47,1.47,0,0,1,0-.38.41.41,0,0,1,.11-.23.35.35,0,0,1,.19-.12,1.11,1.11,0,0,1,.28,0h.1a1.71,1.71,0,0,0,.67-.12,1.33,1.33,0,0,0,.47-.33,1.25,1.25,0,0,0,.26-.48,2,2,0,0,0,.09-.6,2.15,2.15,0,0,0-.1-.64,1.53,1.53,0,0,0-.3-.51,1.27,1.27,0,0,0-.51-.32,1.92,1.92,0,0,0-.71-.12,2.59,2.59,0,0,0-.66.08,3.53,3.53,0,0,0-.49.16l-.34.16a.46.46,0,0,1-.21.07.17.17,0,0,1-.1,0,.22.22,0,0,1-.07-.12,2.17,2.17,0,0,1,0-.25c0-.11,0-.24,0-.41a1.58,1.58,0,0,1,0-.37.29.29,0,0,1,.09-.19,1.12,1.12,0,0,1,.28-.18l.49-.18a4.73,4.73,0,0,1,.64-.14,4.32,4.32,0,0,1,.73-.06,4.06,4.06,0,0,1,1.48.24,2.78,2.78,0,0,1,1,.64,2.45,2.45,0,0,1,.57.92A3.34,3.34,0,0,1,95.24,74.65Zm-2.17,6.28a2.27,2.27,0,0,1,0,.5.65.65,0,0,1-.17.33.77.77,0,0,1-.32.18,2.11,2.11,0,0,1-1,0,.77.77,0,0,1-.32-.18.65.65,0,0,1-.17-.33,2.27,2.27,0,0,1-.05-.5,2.47,2.47,0,0,1,.05-.52.73.73,0,0,1,.17-.34.77.77,0,0,1,.32-.18,1.82,1.82,0,0,1,.51,0,1.8,1.8,0,0,1,.49,0,.77.77,0,0,1,.32.18.73.73,0,0,1,.17.34A2.47,2.47,0,0,1,93.07,80.93Z"/><path d="M29.12,108.77a3.53,3.53,0,0,1,0,.36,1.14,1.14,0,0,1-.05.23.34.34,0,0,1-.1.13.21.21,0,0,1-.12,0H24.07a.57.57,0,0,1-.4-.15.57.57,0,0,1-.17-.46v-8.26a.6.6,0,0,1,.17-.47.61.61,0,0,1,.4-.14H28.8a.21.21,0,0,1,.12,0,.33.33,0,0,1,.09.13,1.11,1.11,0,0,1,0,.24,3.16,3.16,0,0,1,0,.71,1.14,1.14,0,0,1,0,.23.33.33,0,0,1-.09.13.21.21,0,0,1-.12,0H25.42v2.31h2.86a.28.28,0,0,1,.13,0,.48.48,0,0,1,.09.13.9.9,0,0,1,.05.22,3.32,3.32,0,0,1,0,.35,3.16,3.16,0,0,1,0,.35,1,1,0,0,1-.05.23.62.62,0,0,1-.09.12.28.28,0,0,1-.13,0H25.42V108h3.41a.16.16,0,0,1,.12,0,.28.28,0,0,1,.1.13.89.89,0,0,1,.05.23A3.16,3.16,0,0,1,29.12,108.77Z"/><path d="M32.25,109.28a.16.16,0,0,1,0,.12.36.36,0,0,1-.15.1,1.43,1.43,0,0,1-.28,0l-.45,0-.45,0-.28,0a.36.36,0,0,1-.15-.1.16.16,0,0,1,0-.12V99.65a.23.23,0,0,1,0-.14.36.36,0,0,1,.15-.1l.28-.06.45,0,.45,0,.28.06a.36.36,0,0,1,.15.1.23.23,0,0,1,0,.14Z"/><path d="M43.46,105.91a5.9,5.9,0,0,1-.19,1.58,3.52,3.52,0,0,1-.54,1.19,2.52,2.52,0,0,1-.9.75,2.64,2.64,0,0,1-1.22.26,2.14,2.14,0,0,1-.52,0,1.81,1.81,0,0,1-.46-.17,2.76,2.76,0,0,1-.45-.28,5.19,5.19,0,0,1-.45-.4v3.08a.21.21,0,0,1,0,.13.26.26,0,0,1-.15.1.9.9,0,0,1-.28.06,2.76,2.76,0,0,1-.44,0,3,3,0,0,1-.45,0,.9.9,0,0,1-.28-.06.36.36,0,0,1-.15-.1.21.21,0,0,1,0-.13v-9.13a.16.16,0,0,1,0-.12.28.28,0,0,1,.13-.1,1.11,1.11,0,0,1,.24,0l.38,0,.37,0a1.11,1.11,0,0,1,.24,0,.34.34,0,0,1,.13.1.21.21,0,0,1,0,.12v.77c.19-.19.38-.36.56-.51a3.69,3.69,0,0,1,.56-.38,2.63,2.63,0,0,1,.59-.22,2.76,2.76,0,0,1,.65-.07,2.42,2.42,0,0,1,1.22.28,2.27,2.27,0,0,1,.83.77,3.41,3.41,0,0,1,.46,1.14A6.23,6.23,0,0,1,43.46,105.91Zm-1.92.14a5.32,5.32,0,0,0-.06-.81,2.35,2.35,0,0,0-.21-.68,1.35,1.35,0,0,0-.4-.48,1,1,0,0,0-.61-.18,1.35,1.35,0,0,0-.73.24,2.58,2.58,0,0,0-.38.32,3.65,3.65,0,0,0-.42.49v2.15a4.14,4.14,0,0,0,.74.76,1.18,1.18,0,0,0,.73.27,1,1,0,0,0,.61-.19,1.4,1.4,0,0,0,.42-.48,2.51,2.51,0,0,0,.23-.67A3.11,3.11,0,0,0,41.54,106.05Z"/><path d="M50.2,109.3a.22.22,0,0,1-.07.16.45.45,0,0,1-.24.08,2.61,2.61,0,0,1-.46,0,2.72,2.72,0,0,1-.48,0,.34.34,0,0,1-.21-.08.22.22,0,0,1-.07-.16v-.52a2.83,2.83,0,0,1-.91.67,2.72,2.72,0,0,1-1.15.24,3.23,3.23,0,0,1-1-.13,2.24,2.24,0,0,1-.75-.4,1.87,1.87,0,0,1-.5-.67,2.36,2.36,0,0,1-.17-.92,2.07,2.07,0,0,1,.22-1,1.8,1.8,0,0,1,.67-.7,3.16,3.16,0,0,1,1.1-.4,7.67,7.67,0,0,1,1.53-.14h.64V105a2.12,2.12,0,0,0-.06-.54.83.83,0,0,0-.21-.38.77.77,0,0,0-.38-.23,2,2,0,0,0-.59-.08,2.91,2.91,0,0,0-.82.11,5.26,5.26,0,0,0-.64.22l-.47.23a.62.62,0,0,1-.3.1.21.21,0,0,1-.15,0,.39.39,0,0,1-.1-.14q0-.1-.06-.24a2.69,2.69,0,0,1,0-.31,1.08,1.08,0,0,1,0-.35.56.56,0,0,1,.13-.24,1.57,1.57,0,0,1,.36-.24,4.46,4.46,0,0,1,.6-.23,4.12,4.12,0,0,1,.75-.18,4.68,4.68,0,0,1,.84-.07,5.05,5.05,0,0,1,1.32.15,2.15,2.15,0,0,1,.89.46,1.77,1.77,0,0,1,.52.8,4,4,0,0,1,.16,1.16Zm-1.81-2.8h-.7a3.43,3.43,0,0,0-.77.07,1.51,1.51,0,0,0-.51.19.88.88,0,0,0-.29.32,1,1,0,0,0-.09.43.86.86,0,0,0,.26.65,1.07,1.07,0,0,0,.72.23,1.39,1.39,0,0,0,.72-.2,3,3,0,0,0,.66-.58Z"/><path d="M56.34,107.43a2.17,2.17,0,0,1-.21,1,1.94,1.94,0,0,1-.59.71,2.68,2.68,0,0,1-.9.43,4.12,4.12,0,0,1-1.13.14,3.91,3.91,0,0,1-.7,0,4.43,4.43,0,0,1-.6-.14,4.1,4.1,0,0,1-.44-.17,1.18,1.18,0,0,1-.25-.17.46.46,0,0,1-.13-.24,2,2,0,0,1,0-.49,3.33,3.33,0,0,1,0-.34.83.83,0,0,1,0-.2s0-.09.07-.1a.2.2,0,0,1,.11,0,.6.6,0,0,1,.24.09,3.43,3.43,0,0,0,.39.2,3.16,3.16,0,0,0,.55.21,2.48,2.48,0,0,0,.7.09,1.55,1.55,0,0,0,.45,0,1.1,1.1,0,0,0,.33-.14.65.65,0,0,0,.22-.25.7.7,0,0,0,.07-.33.57.57,0,0,0-.13-.38,1.13,1.13,0,0,0-.36-.27,3,3,0,0,0-.51-.22l-.58-.23a5.23,5.23,0,0,1-.58-.29,2.33,2.33,0,0,1-.5-.39,1.85,1.85,0,0,1-.36-.57,2.07,2.07,0,0,1-.14-.79,2,2,0,0,1,.19-.86,2,2,0,0,1,.52-.67,2.56,2.56,0,0,1,.84-.43,4.29,4.29,0,0,1,1.71-.11,5.2,5.2,0,0,1,.52.11,2.3,2.3,0,0,1,.4.14,1.86,1.86,0,0,1,.23.13.32.32,0,0,1,.14.25s0,.11,0,.19a2.27,2.27,0,0,1,0,.28,2.92,2.92,0,0,1,0,.32.88.88,0,0,1,0,.2.15.15,0,0,1-.07.1l-.1,0a.55.55,0,0,1-.21-.07,2.14,2.14,0,0,0-.34-.17,3.53,3.53,0,0,0-.49-.16,2.33,2.33,0,0,0-.62-.08,1.75,1.75,0,0,0-.43.05.82.82,0,0,0-.31.15.72.72,0,0,0-.17.22.67.67,0,0,0-.06.28.57.57,0,0,0,.14.38,1.22,1.22,0,0,0,.37.27,4.11,4.11,0,0,0,.51.22l.59.22a6.19,6.19,0,0,1,.58.28,2.06,2.06,0,0,1,.52.4,1.88,1.88,0,0,1,.37.56A2,2,0,0,1,56.34,107.43Z"/><path d="M64,105.94a5.23,5.23,0,0,1-.22,1.53,3.19,3.19,0,0,1-.67,1.18,2.88,2.88,0,0,1-1.12.77,4.2,4.2,0,0,1-1.57.27,4.33,4.33,0,0,1-1.52-.24,2.66,2.66,0,0,1-1.07-.7,3,3,0,0,1-.63-1.14,5.16,5.16,0,0,1-.2-1.53,4.92,4.92,0,0,1,.22-1.53,3.23,3.23,0,0,1,.67-1.19A3,3,0,0,1,59,102.6a4.16,4.16,0,0,1,1.57-.27,4.63,4.63,0,0,1,1.52.23,2.77,2.77,0,0,1,1.07.7,2.86,2.86,0,0,1,.62,1.14A5.17,5.17,0,0,1,64,105.94Zm-1.9.08a4.91,4.91,0,0,0-.08-.89,1.94,1.94,0,0,0-.26-.71,1.27,1.27,0,0,0-.48-.47,1.62,1.62,0,0,0-.77-.17,1.66,1.66,0,0,0-.72.15,1.32,1.32,0,0,0-.5.44,2.35,2.35,0,0,0-.3.7,4.27,4.27,0,0,0-.1.93,5,5,0,0,0,.08.89,2.32,2.32,0,0,0,.26.7,1.23,1.23,0,0,0,.49.47,1.61,1.61,0,0,0,.76.16,1.67,1.67,0,0,0,.73-.15,1.29,1.29,0,0,0,.5-.43,2.14,2.14,0,0,0,.3-.7A4.28,4.28,0,0,0,62.13,106Z"/><path d="M73.84,109.3a.19.19,0,0,1-.07.16.44.44,0,0,1-.23.08,3.78,3.78,0,0,1-1,0,.34.34,0,0,1-.21-.08.21.21,0,0,1-.06-.16v-.52a3,3,0,0,1-.92.67,2.72,2.72,0,0,1-1.15.24,3.21,3.21,0,0,1-1-.13,2.29,2.29,0,0,1-.76-.4,1.85,1.85,0,0,1-.49-.67,2.19,2.19,0,0,1-.18-.92,2.07,2.07,0,0,1,.23-1,1.84,1.84,0,0,1,.66-.7,3.23,3.23,0,0,1,1.1-.4,7.71,7.71,0,0,1,1.54-.14H72V105a2.12,2.12,0,0,0-.06-.54.92.92,0,0,0-.2-.38.85.85,0,0,0-.39-.23,1.91,1.91,0,0,0-.59-.08,3,3,0,0,0-.82.11,5.93,5.93,0,0,0-.64.22c-.19.09-.34.16-.46.23a.68.68,0,0,1-.31.1.19.19,0,0,1-.14,0,.3.3,0,0,1-.1-.14,1.37,1.37,0,0,1-.07-.24,2.69,2.69,0,0,1,0-.31,1.08,1.08,0,0,1,0-.35.49.49,0,0,1,.14-.24,1.37,1.37,0,0,1,.36-.24,4.46,4.46,0,0,1,.6-.23,4.12,4.12,0,0,1,.75-.18,4.61,4.61,0,0,1,.84-.07,5,5,0,0,1,1.31.15,2.26,2.26,0,0,1,.9.46,1.84,1.84,0,0,1,.51.8,3.65,3.65,0,0,1,.16,1.16ZM72,106.5h-.7a3.33,3.33,0,0,0-.76.07,1.51,1.51,0,0,0-.51.19.8.8,0,0,0-.29.32,1,1,0,0,0-.1.43.86.86,0,0,0,.26.65,1.1,1.1,0,0,0,.73.23,1.39,1.39,0,0,0,.71-.2,2.64,2.64,0,0,0,.66-.58Z"/><path d="M83.07,107.43a2.17,2.17,0,0,1-.21,1,1.85,1.85,0,0,1-.59.71,2.51,2.51,0,0,1-.9.43,4.74,4.74,0,0,1-1.83.09,4,4,0,0,1-.59-.14,2.91,2.91,0,0,1-.44-.17,1.05,1.05,0,0,1-.26-.17.54.54,0,0,1-.12-.24,1.93,1.93,0,0,1,0-.49,3,3,0,0,1,0-.34.88.88,0,0,1,0-.2s0-.09.07-.1a.2.2,0,0,1,.11,0,.51.51,0,0,1,.24.09l.39.2a3.16,3.16,0,0,0,.55.21,2.55,2.55,0,0,0,.71.09,1.52,1.52,0,0,0,.44,0,1.16,1.16,0,0,0,.34-.14.72.72,0,0,0,.21-.25.7.7,0,0,0,.08-.33.57.57,0,0,0-.14-.38,1.13,1.13,0,0,0-.36-.27,3.28,3.28,0,0,0-.5-.22l-.58-.23a4.48,4.48,0,0,1-.58-.29,2.16,2.16,0,0,1-.51-.39,1.85,1.85,0,0,1-.36-.57,2.08,2.08,0,0,1-.13-.79,2,2,0,0,1,.18-.86,1.9,1.9,0,0,1,.53-.67,2.56,2.56,0,0,1,.84-.43,3.82,3.82,0,0,1,1.11-.15,4,4,0,0,1,.6,0c.19,0,.36.07.52.11a2.17,2.17,0,0,1,.39.14,1.31,1.31,0,0,1,.23.13.47.47,0,0,1,.1.11.46.46,0,0,1,0,.14.92.92,0,0,1,0,.19,2.27,2.27,0,0,1,0,.28,2.92,2.92,0,0,1,0,.32.94.94,0,0,1,0,.2.2.2,0,0,1-.07.1l-.11,0a.47.47,0,0,1-.2-.07,2.3,2.3,0,0,0-.35-.17,3.85,3.85,0,0,0-.48-.16,2.41,2.41,0,0,0-.63-.08,1.81,1.81,0,0,0-.43.05.84.84,0,0,0-.3.15.63.63,0,0,0-.18.22.67.67,0,0,0-.06.28.57.57,0,0,0,.14.38,1.54,1.54,0,0,0,.37.27,3.7,3.7,0,0,0,.52.22l.58.22a6.36,6.36,0,0,1,.59.28,2.49,2.49,0,0,1,.52.4,1.69,1.69,0,0,1,.36.56A2,2,0,0,1,83.07,107.43Z"/><path d="M90.19,105.82a.73.73,0,0,1-.15.5.53.53,0,0,1-.41.16h-4a2.59,2.59,0,0,0,.1.76,1.32,1.32,0,0,0,.87.94,2.49,2.49,0,0,0,.82.12,4.36,4.36,0,0,0,.85-.07,4.18,4.18,0,0,0,.63-.15l.44-.15a.79.79,0,0,1,.29-.07.2.2,0,0,1,.11,0,.22.22,0,0,1,.07.09.78.78,0,0,1,0,.19,2.63,2.63,0,0,1,0,.3v.28c0,.07,0,.14,0,.19a.47.47,0,0,1,0,.14l-.08.1a.79.79,0,0,1-.26.14,4.23,4.23,0,0,1-.54.18c-.22.05-.47.1-.75.14a6.62,6.62,0,0,1-.91.06,4.75,4.75,0,0,1-1.53-.22,2.56,2.56,0,0,1-1.09-.66,2.71,2.71,0,0,1-.66-1.13,5.43,5.43,0,0,1-.22-1.6,5.13,5.13,0,0,1,.23-1.57,3.23,3.23,0,0,1,.66-1.18,2.81,2.81,0,0,1,1-.75,3.64,3.64,0,0,1,1.4-.25,3.69,3.69,0,0,1,1.4.24,2.37,2.37,0,0,1,.95.67,2.54,2.54,0,0,1,.55,1,4.35,4.35,0,0,1,.18,1.28Zm-1.79-.53a1.88,1.88,0,0,0-.31-1.22,1.21,1.21,0,0,0-1-.44,1.33,1.33,0,0,0-.61.13,1.26,1.26,0,0,0-.43.36,1.5,1.5,0,0,0-.26.52,2.33,2.33,0,0,0-.11.65Z"/><path d="M97.29,103.2a1.18,1.18,0,0,1-.08.52c0,.11-.12.17-.19.17h-.77a1.13,1.13,0,0,1,.23.4,1.7,1.7,0,0,1,.07.46,2.64,2.64,0,0,1-.19,1,2,2,0,0,1-.55.75A2.32,2.32,0,0,1,95,107a3.61,3.61,0,0,1-1.12.16,2.35,2.35,0,0,1-.6-.08,1.42,1.42,0,0,1-.44-.18,1.34,1.34,0,0,0-.16.23.59.59,0,0,0-.07.29.4.4,0,0,0,.19.35.94.94,0,0,0,.52.15l1.59.06a4.1,4.1,0,0,1,1,.16,2.25,2.25,0,0,1,.74.38,1.75,1.75,0,0,1,.45.59,1.94,1.94,0,0,1,.16.78,2,2,0,0,1-.21.91,2.18,2.18,0,0,1-.64.75,3.54,3.54,0,0,1-1.07.5,5.55,5.55,0,0,1-1.5.18,6.48,6.48,0,0,1-1.42-.13,3.12,3.12,0,0,1-1-.37,1.42,1.42,0,0,1-.72-1.27,1.7,1.7,0,0,1,.06-.46,2.35,2.35,0,0,1,.19-.43,2.55,2.55,0,0,1,.29-.38,2.89,2.89,0,0,1,.41-.35,1.21,1.21,0,0,1-.49-.46,1.15,1.15,0,0,1-.17-.63,1.52,1.52,0,0,1,.2-.79,2.4,2.4,0,0,1,.51-.64,1.92,1.92,0,0,1-.41-.62,2.28,2.28,0,0,1-.16-.89,2.54,2.54,0,0,1,.2-1,2.17,2.17,0,0,1,.57-.76,2.35,2.35,0,0,1,.85-.48,3.48,3.48,0,0,1,1.1-.16,5.54,5.54,0,0,1,.59,0l.52.1H97c.08,0,.15.06.2.17A1.36,1.36,0,0,1,97.29,103.2ZM95.36,110a.59.59,0,0,0-.26-.51,1.47,1.47,0,0,0-.73-.19l-1.31,0a1.65,1.65,0,0,0-.3.26,1.84,1.84,0,0,0-.19.25,1.09,1.09,0,0,0-.09.23,1.5,1.5,0,0,0,0,.22.6.6,0,0,0,.37.56,2.27,2.27,0,0,0,1,.19,2.41,2.41,0,0,0,.71-.09,1.31,1.31,0,0,0,.46-.22.8.8,0,0,0,.25-.31A.89.89,0,0,0,95.36,110Zm-.43-5.22a1,1,0,0,0-1.12-1.11,1.21,1.21,0,0,0-.48.09A1.07,1.07,0,0,0,93,104a1.2,1.2,0,0,0-.2.37,1.55,1.55,0,0,0-.07.43,1,1,0,0,0,.3.79,1.1,1.1,0,0,0,.81.29,1.14,1.14,0,0,0,.48-.09,1,1,0,0,0,.34-.24.93.93,0,0,0,.21-.36A1.16,1.16,0,0,0,94.93,104.74Z"/><path d="M104.41,109.28a.21.21,0,0,1,0,.12.34.34,0,0,1-.13.1,1.11,1.11,0,0,1-.24,0l-.38,0-.39,0a1.11,1.11,0,0,1-.24,0,.25.25,0,0,1-.12-.1.16.16,0,0,1,0-.12v-.76a4.09,4.09,0,0,1-1.1.88,2.43,2.43,0,0,1-1.16.29,2.61,2.61,0,0,1-1.14-.22,1.89,1.89,0,0,1-.74-.6,2.45,2.45,0,0,1-.4-.88,5.45,5.45,0,0,1-.12-1.25v-4a.16.16,0,0,1,0-.12.36.36,0,0,1,.15-.1,1.43,1.43,0,0,1,.28,0l.45,0,.44,0a1.43,1.43,0,0,1,.28,0,.26.26,0,0,1,.15.1.17.17,0,0,1,0,.12v3.69a3.17,3.17,0,0,0,.07.79,1.29,1.29,0,0,0,.2.46.89.89,0,0,0,.34.3,1,1,0,0,0,.49.11,1.19,1.19,0,0,0,.7-.26,4.32,4.32,0,0,0,.76-.74v-4.35a.21.21,0,0,1,0-.12.36.36,0,0,1,.15-.1,1.43,1.43,0,0,1,.28,0l.45,0,.44,0a1.43,1.43,0,0,1,.28,0,.36.36,0,0,1,.15.1.16.16,0,0,1,0,.12Z"/><path d="M108,100.53a1,1,0,0,1-.23.77,1.25,1.25,0,0,1-.84.21,1.32,1.32,0,0,1-.84-.2,1.43,1.43,0,0,1,0-1.51,1.21,1.21,0,0,1,.85-.22,1.22,1.22,0,0,1,.83.21A1,1,0,0,1,108,100.53Zm-.14,8.75a.16.16,0,0,1,0,.12.36.36,0,0,1-.15.1l-.28,0-.45,0-.45,0a1.43,1.43,0,0,1-.28,0,.36.36,0,0,1-.15-.1.16.16,0,0,1,0-.12v-6.52a.2.2,0,0,1,0-.13.36.36,0,0,1,.15-.1l.28-.06.45,0,.45,0,.28.06a.36.36,0,0,1,.15.1.2.2,0,0,1,0,.13Z"/><path d="M113.55,103.35c0,.18,0,.32,0,.43a1.42,1.42,0,0,1,0,.27.32.32,0,0,1-.08.13.21.21,0,0,1-.12,0l-.13,0-.17,0-.2-.06a.81.81,0,0,0-.55,0,1.22,1.22,0,0,0-.32.19,2.86,2.86,0,0,0-.34.35,5.5,5.5,0,0,0-.38.54v4.08a.17.17,0,0,1,0,.12.36.36,0,0,1-.15.1,1.43,1.43,0,0,1-.28,0l-.45,0-.44,0a1.55,1.55,0,0,1-.29,0,.36.36,0,0,1-.15-.1.16.16,0,0,1,0-.12v-6.54a.16.16,0,0,1,0-.12.24.24,0,0,1,.13-.1,1.11,1.11,0,0,1,.24,0l.38,0,.39,0a1.11,1.11,0,0,1,.24,0,.4.4,0,0,1,.12.1.21.21,0,0,1,0,.12v.82a5,5,0,0,1,.49-.61,2.3,2.3,0,0,1,.43-.37,1.29,1.29,0,0,1,.41-.2,1.44,1.44,0,0,1,.41,0h.21l.22,0,.21.06a.5.5,0,0,1,.13.07.35.35,0,0,1,0,.08.34.34,0,0,1,0,.12s0,.13,0,.23S113.55,103.18,113.55,103.35Z"/><path d="M24.93,119.64a.73.73,0,0,1-.15.5.54.54,0,0,1-.42.16h-4a3,3,0,0,0,.1.76,1.5,1.5,0,0,0,.32.58,1.39,1.39,0,0,0,.56.36,2.39,2.39,0,0,0,.81.12,4.29,4.29,0,0,0,.85-.07,4,4,0,0,0,.64-.15l.44-.15a.75.75,0,0,1,.28-.07.18.18,0,0,1,.11,0,.24.24,0,0,1,.08.09.78.78,0,0,1,0,.19c0,.08,0,.18,0,.3a2.35,2.35,0,0,1,0,.28,1,1,0,0,1,0,.19.46.46,0,0,1-.05.14.23.23,0,0,1-.07.1.64.64,0,0,1-.26.14,4.23,4.23,0,0,1-.54.18c-.22,0-.48.1-.76.14a6.42,6.42,0,0,1-.91.06,4.64,4.64,0,0,1-1.52-.22,2.6,2.6,0,0,1-1.1-.66,2.8,2.8,0,0,1-.65-1.13,5.69,5.69,0,0,1,0-3.17,3.23,3.23,0,0,1,.66-1.18,2.66,2.66,0,0,1,1.05-.75,3.59,3.59,0,0,1,1.39-.25,3.71,3.71,0,0,1,1.41.24,2.52,2.52,0,0,1,.95.67,2.67,2.67,0,0,1,.55,1,4.35,4.35,0,0,1,.18,1.28Zm-1.79-.53a2,2,0,0,0-.31-1.22,1.22,1.22,0,0,0-1-.44,1.28,1.28,0,0,0-.61.13,1.29,1.29,0,0,0-.44.36,1.69,1.69,0,0,0-.26.52,2.76,2.76,0,0,0-.11.65Z"/><path d="M30.74,121.25a2.17,2.17,0,0,1-.21,1,1.85,1.85,0,0,1-.59.71,2.51,2.51,0,0,1-.9.43,4.74,4.74,0,0,1-1.83.09,4,4,0,0,1-.59-.14,2.91,2.91,0,0,1-.44-.17,1.3,1.3,0,0,1-.26-.17.54.54,0,0,1-.12-.24,1.93,1.93,0,0,1-.05-.49,3,3,0,0,1,0-.34.88.88,0,0,1,0-.2.18.18,0,0,1,.19-.13.52.52,0,0,1,.23.09l.4.2a2.77,2.77,0,0,0,.54.21,2.55,2.55,0,0,0,.71.09,1.52,1.52,0,0,0,.44,0,1.16,1.16,0,0,0,.34-.14.72.72,0,0,0,.21-.25.7.7,0,0,0,.08-.33.57.57,0,0,0-.14-.38,1.13,1.13,0,0,0-.36-.27,3.28,3.28,0,0,0-.5-.22l-.58-.23a4.48,4.48,0,0,1-.58-.29,2.16,2.16,0,0,1-.51-.39,2,2,0,0,1-.35-.57,2.07,2.07,0,0,1-.14-.79,2,2,0,0,1,.18-.86,1.9,1.9,0,0,1,.53-.67,2.56,2.56,0,0,1,.84-.43,3.82,3.82,0,0,1,1.11-.15,4,4,0,0,1,.6,0c.19,0,.36.07.52.11a1.92,1.92,0,0,1,.39.14l.24.13.09.11a.46.46,0,0,1,.05.14.92.92,0,0,1,0,.19,2,2,0,0,1,0,.28,2.58,2.58,0,0,1,0,.32.94.94,0,0,1,0,.2.2.2,0,0,1-.07.1.18.18,0,0,1-.1,0,.46.46,0,0,1-.21-.07l-.35-.17a3.85,3.85,0,0,0-.48-.16,2.35,2.35,0,0,0-.63-.08,1.81,1.81,0,0,0-.43,0,.84.84,0,0,0-.3.15.63.63,0,0,0-.18.22.66.66,0,0,0,0,.28.53.53,0,0,0,.14.38,1.3,1.3,0,0,0,.36.27,3.7,3.7,0,0,0,.52.22l.58.22a6.36,6.36,0,0,1,.59.28,2.49,2.49,0,0,1,.52.4,1.69,1.69,0,0,1,.36.56A2,2,0,0,1,30.74,121.25Z"/><path d="M41.49,119.74a6.33,6.33,0,0,1-.18,1.57,3.73,3.73,0,0,1-.55,1.19,2.47,2.47,0,0,1-.89.75,2.71,2.71,0,0,1-1.23.26,2.14,2.14,0,0,1-.52-.05,2,2,0,0,1-.46-.17,2.32,2.32,0,0,1-.44-.28,5.24,5.24,0,0,1-.46-.4v3.08a.2.2,0,0,1,0,.13.36.36,0,0,1-.15.1,1,1,0,0,1-.28.06,5.07,5.07,0,0,1-.9,0,.9.9,0,0,1-.28-.06.36.36,0,0,1-.15-.1.2.2,0,0,1,0-.13v-9.13a.21.21,0,0,1,0-.12.34.34,0,0,1,.13-.1,1.11,1.11,0,0,1,.24,0l.38,0,.37,0a1.11,1.11,0,0,1,.24,0,.28.28,0,0,1,.13.1.21.21,0,0,1,0,.12v.77a6.47,6.47,0,0,1,.56-.51,3.26,3.26,0,0,1,.56-.38,2.47,2.47,0,0,1,.59-.22,2.64,2.64,0,0,1,.65-.07,2.47,2.47,0,0,1,1.22.28,2.32,2.32,0,0,1,.82.77,3.65,3.65,0,0,1,.47,1.14A6.92,6.92,0,0,1,41.49,119.74Zm-1.92.13a5.32,5.32,0,0,0-.06-.81,2.35,2.35,0,0,0-.21-.68,1.26,1.26,0,0,0-.4-.48,1,1,0,0,0-.61-.18,1.35,1.35,0,0,0-.73.24,2.58,2.58,0,0,0-.38.32,4.55,4.55,0,0,0-.42.49v2.15a4.49,4.49,0,0,0,.74.76,1.2,1.2,0,0,0,.73.27,1,1,0,0,0,.62-.19,1.49,1.49,0,0,0,.41-.48,2.21,2.21,0,0,0,.24-.67A3.64,3.64,0,0,0,39.57,119.87Z"/><path d="M46.86,117.17c0,.18,0,.32,0,.43a1.31,1.31,0,0,1-.05.27.32.32,0,0,1-.07.13.28.28,0,0,1-.12,0l-.14,0-.16-.05-.2-.06a1,1,0,0,0-.24,0,.82.82,0,0,0-.31.07,1.22,1.22,0,0,0-.32.19,2.28,2.28,0,0,0-.34.35q-.18.22-.39.54v4.08a.16.16,0,0,1,0,.12.36.36,0,0,1-.15.1l-.28.05-.45,0-.45,0a1.43,1.43,0,0,1-.28-.05.36.36,0,0,1-.15-.1.16.16,0,0,1,0-.12v-6.54a.21.21,0,0,1,0-.12.34.34,0,0,1,.13-.1,1.37,1.37,0,0,1,.25,0l.38,0,.38,0a.89.89,0,0,1,.24,0,.25.25,0,0,1,.12.1.16.16,0,0,1,0,.12v.82a5,5,0,0,1,.48-.61,2.33,2.33,0,0,1,.44-.37,1.2,1.2,0,0,1,.41-.2,1.4,1.4,0,0,1,.41,0h.2l.23,0,.2.06a.5.5,0,0,1,.13.07.21.21,0,0,1,.06.08,1,1,0,0,1,0,.12,1.21,1.21,0,0,1,0,.23C46.86,116.86,46.86,117,46.86,117.17Z"/><path d="M52.93,123.12a.19.19,0,0,1-.07.16.44.44,0,0,1-.23.08,2.69,2.69,0,0,1-.46,0,2.85,2.85,0,0,1-.49,0,.37.37,0,0,1-.21-.08.21.21,0,0,1-.06-.16v-.52a2.87,2.87,0,0,1-.92.67,2.69,2.69,0,0,1-1.15.24,3.21,3.21,0,0,1-1-.13,2.4,2.4,0,0,1-.76-.4,1.85,1.85,0,0,1-.49-.67,2.19,2.19,0,0,1-.18-.92,2.07,2.07,0,0,1,.23-1,1.92,1.92,0,0,1,.66-.7,3.29,3.29,0,0,1,1.11-.4,7.67,7.67,0,0,1,1.53-.14h.63v-.39a2.12,2.12,0,0,0-.06-.54.92.92,0,0,0-.2-.38.87.87,0,0,0-.38-.23,2,2,0,0,0-.59-.07,3,3,0,0,0-.83.1,5.93,5.93,0,0,0-.64.22l-.46.23a.68.68,0,0,1-.31.1.19.19,0,0,1-.14,0,.3.3,0,0,1-.1-.14,1.15,1.15,0,0,1-.07-.24,2.69,2.69,0,0,1,0-.31,1.46,1.46,0,0,1,0-.35.49.49,0,0,1,.14-.24,1.57,1.57,0,0,1,.36-.24,4.46,4.46,0,0,1,.6-.23,4.12,4.12,0,0,1,.75-.18,4.61,4.61,0,0,1,.84-.07,5,5,0,0,1,1.31.15,2.13,2.13,0,0,1,.9.46,1.75,1.75,0,0,1,.51.8,3.7,3.7,0,0,1,.16,1.16Zm-1.81-2.8h-.7a3.33,3.33,0,0,0-.76.07,1.51,1.51,0,0,0-.51.19.8.8,0,0,0-.29.32,1,1,0,0,0-.09.43A.81.81,0,0,0,49,122a1.05,1.05,0,0,0,.72.23,1.36,1.36,0,0,0,.71-.2,2.64,2.64,0,0,0,.66-.58Z"/><path d="M59.42,122.06a2.88,2.88,0,0,1,0,.32,1.25,1.25,0,0,1,0,.21.72.72,0,0,1-.05.14.42.42,0,0,1-.11.14,1.48,1.48,0,0,1-.3.21,2.78,2.78,0,0,1-.49.21,3.16,3.16,0,0,1-.59.16,3.76,3.76,0,0,1-2-.18,2.33,2.33,0,0,1-1-.69,2.87,2.87,0,0,1-.6-1.12,5,5,0,0,1-.2-1.51,5.34,5.34,0,0,1,.24-1.69,3.18,3.18,0,0,1,.69-1.18,2.63,2.63,0,0,1,1-.7,3.73,3.73,0,0,1,1.32-.23,3.66,3.66,0,0,1,.57,0c.19,0,.36.09.53.14a3.62,3.62,0,0,1,.44.2,1.63,1.63,0,0,1,.27.19.92.92,0,0,1,.11.14.37.37,0,0,1,.06.14c0,.06,0,.13,0,.22s0,.19,0,.31a1.68,1.68,0,0,1-.08.6c-.05.11-.11.17-.19.17a.45.45,0,0,1-.26-.11l-.33-.22a2.37,2.37,0,0,0-.45-.23,1.74,1.74,0,0,0-.63-.1,1.24,1.24,0,0,0-1.1.55,2.81,2.81,0,0,0-.38,1.62,4.31,4.31,0,0,0,.09.93,2,2,0,0,0,.28.68,1.2,1.2,0,0,0,.47.4,1.53,1.53,0,0,0,.66.14,1.8,1.8,0,0,0,.65-.11,2.15,2.15,0,0,0,.48-.26,4.07,4.07,0,0,0,.35-.25.37.37,0,0,1,.23-.11.2.2,0,0,1,.11,0,.3.3,0,0,1,.07.14,1.31,1.31,0,0,1,0,.25C59.41,121.76,59.42,121.9,59.42,122.06Z"/><path d="M66.83,116.31a.57.57,0,0,1,.43.14.52.52,0,0,1,.12.38v6.27a.17.17,0,0,1,0,.12.32.32,0,0,1-.14.1,1.43,1.43,0,0,1-.28.05l-.45,0-.45,0a1.43,1.43,0,0,1-.28-.05.36.36,0,0,1-.15-.1.16.16,0,0,1,0-.12v-5.29H62.6v3.07a1.56,1.56,0,0,0,.17.8.65.65,0,0,0,.6.27,1.12,1.12,0,0,0,.27,0,1.17,1.17,0,0,0,.2-.06l.16-.06.11,0,.09,0a.36.36,0,0,1,.06.11,2,2,0,0,1,0,.21,2.77,2.77,0,0,1,0,.33,2.72,2.72,0,0,1,0,.49.69.69,0,0,1-.1.24.5.5,0,0,1-.2.13l-.3.1a3.79,3.79,0,0,1-.38.06,2.68,2.68,0,0,1-.4,0,2.78,2.78,0,0,1-1-.14,1.5,1.5,0,0,1-.66-.42,1.77,1.77,0,0,1-.39-.73,4,4,0,0,1-.13-1v-3.35H60c-.09,0-.16-.06-.21-.17a1.59,1.59,0,0,1-.08-.58,3.53,3.53,0,0,1,0-.36,1.09,1.09,0,0,1,.06-.23.27.27,0,0,1,.09-.12.28.28,0,0,1,.13,0h.77v-1.45a.25.25,0,0,1,0-.13.28.28,0,0,1,.15-.1,1,1,0,0,1,.29-.06l.44,0,.45,0a.9.9,0,0,1,.28.06.28.28,0,0,1,.15.1.18.18,0,0,1,0,.13v1.45Zm.69-2a1,1,0,0,1-.22.77,1.25,1.25,0,0,1-.84.21,1.28,1.28,0,0,1-.84-.2,1,1,0,0,1-.22-.74,1,1,0,0,1,.22-.77,1.75,1.75,0,0,1,1.68,0A1,1,0,0,1,67.52,114.35Z"/><path d="M73.87,122.06a3.11,3.11,0,0,1,0,.32.66.66,0,0,1,0,.21.39.39,0,0,1,0,.14.6.6,0,0,1-.11.14,1.48,1.48,0,0,1-.3.21,3.14,3.14,0,0,1-.49.21,3.39,3.39,0,0,1-.59.16,3.76,3.76,0,0,1-2-.18,2.43,2.43,0,0,1-1-.69,3,3,0,0,1-.59-1.12,5,5,0,0,1-.21-1.51,5.32,5.32,0,0,1,.25-1.69,3.16,3.16,0,0,1,.68-1.18,2.7,2.7,0,0,1,1-.7,3.73,3.73,0,0,1,1.32-.23,3.68,3.68,0,0,1,.58,0c.19,0,.36.09.52.14a2.61,2.61,0,0,1,.44.2,1.84,1.84,0,0,1,.28.19.92.92,0,0,1,.11.14.38.38,0,0,1,0,.14.69.69,0,0,1,0,.22,2.82,2.82,0,0,1,0,.31,1.73,1.73,0,0,1-.07.6c0,.11-.11.17-.19.17a.45.45,0,0,1-.26-.11L73,118a2.19,2.19,0,0,0-.46-.23,1.67,1.67,0,0,0-.63-.1,1.25,1.25,0,0,0-1.1.55,2.89,2.89,0,0,0-.38,1.62,4.27,4.27,0,0,0,.1.93,2,2,0,0,0,.28.68,1.2,1.2,0,0,0,.47.4,1.51,1.51,0,0,0,.65.14,1.82,1.82,0,0,0,.66-.11,2.71,2.71,0,0,0,.48-.26,4.07,4.07,0,0,0,.35-.25.37.37,0,0,1,.23-.11.2.2,0,0,1,.11,0,.3.3,0,0,1,.07.14,1.31,1.31,0,0,1,0,.25C73.87,121.76,73.87,121.9,73.87,122.06Z"/><path d="M80.39,123.12a.19.19,0,0,1-.08.16.41.41,0,0,1-.23.08,2.61,2.61,0,0,1-.46,0,2.72,2.72,0,0,1-.48,0,.41.41,0,0,1-.22-.08.21.21,0,0,1-.06-.16v-.52a2.87,2.87,0,0,1-.92.67,2.64,2.64,0,0,1-1.14.24,3.23,3.23,0,0,1-1-.13,2.24,2.24,0,0,1-.75-.4,1.76,1.76,0,0,1-.5-.67,2.19,2.19,0,0,1-.17-.92,2.07,2.07,0,0,1,.22-1,1.86,1.86,0,0,1,.67-.7,3.16,3.16,0,0,1,1.1-.4,7.67,7.67,0,0,1,1.53-.14h.64v-.39a1.73,1.73,0,0,0-.07-.54.92.92,0,0,0-.2-.38.81.81,0,0,0-.38-.23,2,2,0,0,0-.59-.07,3,3,0,0,0-.83.1,5.93,5.93,0,0,0-.64.22l-.46.23a.69.69,0,0,1-.3.1.2.2,0,0,1-.15,0,.39.39,0,0,1-.1-.14.77.77,0,0,1-.06-.24,1.47,1.47,0,0,1,0-.31,1.56,1.56,0,0,1,0-.35.58.58,0,0,1,.14-.24,1.57,1.57,0,0,1,.36-.24,4.46,4.46,0,0,1,.6-.23,4.12,4.12,0,0,1,.75-.18,4.61,4.61,0,0,1,.84-.07,5,5,0,0,1,1.31.15,2.13,2.13,0,0,1,.9.46,1.68,1.68,0,0,1,.51.8,3.68,3.68,0,0,1,.17,1.16Zm-1.81-2.8h-.71a3.39,3.39,0,0,0-.76.07,1.51,1.51,0,0,0-.51.19.88.88,0,0,0-.29.32,1,1,0,0,0-.09.43.81.81,0,0,0,.26.65,1.05,1.05,0,0,0,.72.23,1.33,1.33,0,0,0,.71-.2,2.85,2.85,0,0,0,.67-.58Z"/><path d="M86.12,117.17c0,.18,0,.32,0,.43a1.31,1.31,0,0,1,0,.27A.32.32,0,0,1,86,118a.28.28,0,0,1-.13,0l-.13,0-.16-.05-.2-.06a1,1,0,0,0-.25,0,.82.82,0,0,0-.3.07,1.08,1.08,0,0,0-.32.19,2.88,2.88,0,0,0-.35.35c-.12.15-.24.33-.38.54v4.08a.21.21,0,0,1,0,.12.36.36,0,0,1-.15.1,1.72,1.72,0,0,1-.29.05l-.44,0-.45,0a1.43,1.43,0,0,1-.28-.05.36.36,0,0,1-.15-.1.17.17,0,0,1,0-.12v-6.54a.21.21,0,0,1,0-.12.28.28,0,0,1,.13-.1,1.37,1.37,0,0,1,.25,0l.37,0,.39,0a.89.89,0,0,1,.24,0,.25.25,0,0,1,.12.1.16.16,0,0,1,0,.12v.82a5,5,0,0,1,.48-.61,2.67,2.67,0,0,1,.43-.37,1.4,1.4,0,0,1,.41-.2,1.48,1.48,0,0,1,.41,0h.21l.23,0,.2.06a.5.5,0,0,1,.13.07.21.21,0,0,1,.06.08l0,.12a1.21,1.21,0,0,1,0,.23C86.12,116.86,86.12,117,86.12,117.17Z"/><path d="M93.83,123.35,93,125.66a.46.46,0,0,1-.36.26,4.86,4.86,0,0,1-1.32.06.71.71,0,0,1-.27-.09.17.17,0,0,1-.09-.14.43.43,0,0,1,0-.21l.88-2.19a.49.49,0,0,1-.18-.14.62.62,0,0,1-.11-.19l-2.25-6a1.29,1.29,0,0,1-.09-.39.25.25,0,0,1,.08-.21.52.52,0,0,1,.3-.11,4,4,0,0,1,.55,0h.5a1,1,0,0,1,.29.06.32.32,0,0,1,.15.13,1.42,1.42,0,0,1,.1.26l1.54,4.37h0l1.41-4.46a.59.59,0,0,1,.11-.25.55.55,0,0,1,.23-.09,3.67,3.67,0,0,1,.57,0,3.74,3.74,0,0,1,.52,0,.7.7,0,0,1,.31.11.29.29,0,0,1,.1.22,1,1,0,0,1-.06.31Z"/><path d="M106,116.56s0,0,0,.08,0,.08,0,.12l0,.14a1.67,1.67,0,0,1,0,.18l-2,5.91a.82.82,0,0,1-.1.21.42.42,0,0,1-.21.12,1.59,1.59,0,0,1-.38.06h-.65l-.63,0a1.59,1.59,0,0,1-.38-.06.47.47,0,0,1-.21-.12.53.53,0,0,1-.09-.2l-2-5.91c0-.09,0-.18-.07-.26a1.39,1.39,0,0,0,0-.17v-.09a.2.2,0,0,1,0-.13.24.24,0,0,1,.14-.09,1,1,0,0,1,.29,0l.45,0,.48,0a1.55,1.55,0,0,1,.29,0,.24.24,0,0,1,.15.1.52.52,0,0,1,.07.15l1.49,4.79,0,.19,0-.19,1.46-4.79a.52.52,0,0,1,.07-.15.24.24,0,0,1,.15-.1,1.43,1.43,0,0,1,.28,0l.45,0,.44,0a.93.93,0,0,1,.27,0,.25.25,0,0,1,.13.09A.28.28,0,0,1,106,116.56Z"/><path d="M112.64,119.64a.73.73,0,0,1-.15.5.54.54,0,0,1-.42.16h-4a3,3,0,0,0,.09.76,1.64,1.64,0,0,0,.32.58,1.39,1.39,0,0,0,.56.36,2.43,2.43,0,0,0,.81.12,4.22,4.22,0,0,0,.85-.07,4,4,0,0,0,.64-.15l.44-.15a.75.75,0,0,1,.28-.07.18.18,0,0,1,.11,0,.24.24,0,0,1,.08.09.78.78,0,0,1,0,.19,2.63,2.63,0,0,1,0,.3,2.35,2.35,0,0,1,0,.28,1,1,0,0,1,0,.19.47.47,0,0,1,0,.14.39.39,0,0,1-.08.1.64.64,0,0,1-.26.14,4.23,4.23,0,0,1-.54.18c-.22,0-.47.1-.76.14a6.42,6.42,0,0,1-.91.06,4.64,4.64,0,0,1-1.52-.22,2.66,2.66,0,0,1-1.1-.66,2.8,2.8,0,0,1-.65-1.13,5.69,5.69,0,0,1,0-3.17,3.23,3.23,0,0,1,.66-1.18,2.74,2.74,0,0,1,1-.75,3.62,3.62,0,0,1,1.39-.25,3.71,3.71,0,0,1,1.41.24,2.52,2.52,0,0,1,1,.67,2.67,2.67,0,0,1,.55,1,4.35,4.35,0,0,1,.18,1.28Zm-1.79-.53a2,2,0,0,0-.31-1.22,1.22,1.22,0,0,0-1-.44,1.28,1.28,0,0,0-.61.13,1.17,1.17,0,0,0-.43.36,1.51,1.51,0,0,0-.27.52,2.76,2.76,0,0,0-.1.65Z"/><path d="M118.05,117.17c0,.18,0,.32,0,.43a2.71,2.71,0,0,1-.05.27.24.24,0,0,1-.08.13.21.21,0,0,1-.12,0l-.13,0-.16-.05-.21-.06a.88.88,0,0,0-.24,0,.82.82,0,0,0-.3.07,1.08,1.08,0,0,0-.32.19,2.88,2.88,0,0,0-.35.35c-.12.15-.24.33-.38.54v4.08a.17.17,0,0,1,0,.12.26.26,0,0,1-.15.1,1.43,1.43,0,0,1-.28.05l-.44,0-.45,0a1.43,1.43,0,0,1-.28-.05.36.36,0,0,1-.15-.1.17.17,0,0,1-.05-.12v-6.54a.16.16,0,0,1,0-.12.28.28,0,0,1,.13-.1,1.22,1.22,0,0,1,.25,0l.37,0,.39,0a1.11,1.11,0,0,1,.24,0,.25.25,0,0,1,.12.1.16.16,0,0,1,0,.12v.82a5,5,0,0,1,.48-.61,2.67,2.67,0,0,1,.43-.37,1.4,1.4,0,0,1,.41-.2,1.48,1.48,0,0,1,.41,0h.21l.23,0,.2.06a.5.5,0,0,1,.13.07l.06.08a1,1,0,0,1,0,.12,1.21,1.21,0,0,1,0,.23C118.05,116.86,118.05,117,118.05,117.17Z"/><path d="M29.66,135.88c0,.12,0,.23,0,.32s0,.15,0,.21a.38.38,0,0,1-.05.14.32.32,0,0,1-.11.14,1.48,1.48,0,0,1-.3.21,2.67,2.67,0,0,1-.48.21,3.39,3.39,0,0,1-.59.16,3.6,3.6,0,0,1-.66.06,3.52,3.52,0,0,1-1.34-.24,2.4,2.4,0,0,1-1-.69,2.87,2.87,0,0,1-.6-1.12,5.94,5.94,0,0,1,0-3.2,3.32,3.32,0,0,1,.69-1.18,2.63,2.63,0,0,1,1-.7,3.73,3.73,0,0,1,1.32-.23,3.66,3.66,0,0,1,.57.05c.19,0,.37.09.53.14a3.62,3.62,0,0,1,.44.2,1.19,1.19,0,0,1,.27.19l.12.14a.38.38,0,0,1,.05.14c0,.06,0,.13,0,.22a2.82,2.82,0,0,1,0,.31,1.58,1.58,0,0,1-.08.59c0,.12-.11.18-.18.18a.45.45,0,0,1-.27-.11l-.33-.22a2.37,2.37,0,0,0-.45-.23,1.74,1.74,0,0,0-.63-.1,1.24,1.24,0,0,0-1.1.55,2.89,2.89,0,0,0-.38,1.62,4.31,4.31,0,0,0,.09.93,2,2,0,0,0,.29.68,1.17,1.17,0,0,0,.46.4,1.53,1.53,0,0,0,.66.14,1.9,1.9,0,0,0,.66-.11,2.31,2.31,0,0,0,.47-.26,2.93,2.93,0,0,0,.35-.25.37.37,0,0,1,.23-.11.18.18,0,0,1,.11,0,.23.23,0,0,1,.07.14,1.31,1.31,0,0,1,0,.25C29.65,135.58,29.66,135.72,29.66,135.88Z"/><path d="M37.22,133.58a4.92,4.92,0,0,1-.22,1.53,3.17,3.17,0,0,1-.66,1.18,2.88,2.88,0,0,1-1.12.77,4.25,4.25,0,0,1-1.58.27,4.31,4.31,0,0,1-1.51-.24,2.66,2.66,0,0,1-1.07-.7,2.76,2.76,0,0,1-.63-1.14,5.1,5.1,0,0,1-.21-1.53,4.91,4.91,0,0,1,.23-1.53,3.1,3.1,0,0,1,.67-1.19,2.93,2.93,0,0,1,1.11-.76A4.2,4.2,0,0,1,33.8,130a4.65,4.65,0,0,1,1.53.23,2.73,2.73,0,0,1,1.06.7A3,3,0,0,1,37,132,5.18,5.18,0,0,1,37.22,133.58Zm-1.89.08a4.91,4.91,0,0,0-.08-.89,2.14,2.14,0,0,0-.26-.71,1.23,1.23,0,0,0-.49-.47,1.79,1.79,0,0,0-1.48,0,1.35,1.35,0,0,0-.51.44,2.11,2.11,0,0,0-.29.7,3.73,3.73,0,0,0-.1.93,5,5,0,0,0,.08.89,2.08,2.08,0,0,0,.26.7,1.23,1.23,0,0,0,.49.47,1.84,1.84,0,0,0,1.48,0,1.25,1.25,0,0,0,.51-.43,1.94,1.94,0,0,0,.29-.7A4.25,4.25,0,0,0,35.33,133.66Zm-1.25-6.48a.58.58,0,0,1,.13-.14.44.44,0,0,1,.18-.09.94.94,0,0,1,.28,0l.41,0a3.7,3.7,0,0,1,.53,0,.7.7,0,0,1,.28.09.12.12,0,0,1,.07.12.31.31,0,0,1-.07.16L34.47,129a.68.68,0,0,1-.12.12.53.53,0,0,1-.15.08l-.23,0h-.35a2.37,2.37,0,0,1-.41,0,.43.43,0,0,1-.21-.07.13.13,0,0,1,0-.12.38.38,0,0,1,.07-.17Z"/><path d="M48.78,136.92a.17.17,0,0,1-.05.12.36.36,0,0,1-.15.1,1.31,1.31,0,0,1-.27.05l-.45,0-.45,0a1.55,1.55,0,0,1-.29-.05A.27.27,0,0,1,47,137a.16.16,0,0,1,0-.12V133a2.25,2.25,0,0,0-.07-.6,1.27,1.27,0,0,0-.19-.46.84.84,0,0,0-.32-.3,1,1,0,0,0-.46-.11,1.11,1.11,0,0,0-.67.26,4.27,4.27,0,0,0-.73.74v4.35a.17.17,0,0,1,0,.12.36.36,0,0,1-.15.1,1.43,1.43,0,0,1-.28.05l-.44,0-.45,0-.28-.05a.36.36,0,0,1-.15-.1.16.16,0,0,1,0-.12V133a2.77,2.77,0,0,0-.06-.6,1.48,1.48,0,0,0-.19-.46.84.84,0,0,0-.32-.3,1,1,0,0,0-.46-.11,1.14,1.14,0,0,0-.68.26,4.65,4.65,0,0,0-.72.74v4.35a.17.17,0,0,1,0,.12.36.36,0,0,1-.15.1,1.43,1.43,0,0,1-.28.05l-.45,0-.44,0a1.43,1.43,0,0,1-.28-.05.3.3,0,0,1-.15-.1.17.17,0,0,1,0-.12v-6.54a.16.16,0,0,1,0-.12.28.28,0,0,1,.13-.1l.25,0,.37,0,.39,0a1.11,1.11,0,0,1,.24,0,.25.25,0,0,1,.12.1.21.21,0,0,1,0,.12v.76a4.18,4.18,0,0,1,1.08-.88,2.26,2.26,0,0,1,1.12-.29,2.77,2.77,0,0,1,.73.08,2.44,2.44,0,0,1,.57.24,2,2,0,0,1,.44.38,2.71,2.71,0,0,1,.31.49,4.72,4.72,0,0,1,.57-.54,3,3,0,0,1,.56-.37,2,2,0,0,1,.55-.21,2.1,2.1,0,0,1,.56-.07,2.38,2.38,0,0,1,1.09.22,1.93,1.93,0,0,1,.73.59,2.49,2.49,0,0,1,.39.89,4.53,4.53,0,0,1,.12,1.06Z"/><path d="M56.89,133.58a4.92,4.92,0,0,1-.22,1.53,3.19,3.19,0,0,1-.67,1.18,2.81,2.81,0,0,1-1.12.77,4.2,4.2,0,0,1-1.57.27,4.37,4.37,0,0,1-1.52-.24,2.73,2.73,0,0,1-1.07-.7,3,3,0,0,1-.63-1.14,5.46,5.46,0,0,1-.2-1.53,4.92,4.92,0,0,1,.22-1.53,3.23,3.23,0,0,1,.67-1.19,3,3,0,0,1,1.12-.76,4.16,4.16,0,0,1,1.57-.27,4.59,4.59,0,0,1,1.52.23,2.77,2.77,0,0,1,1.07.7,2.86,2.86,0,0,1,.62,1.14A5.17,5.17,0,0,1,56.89,133.58Zm-1.9.08a4.94,4.94,0,0,0-.07-.89,2.38,2.38,0,0,0-.26-.71,1.38,1.38,0,0,0-.49-.47,1.79,1.79,0,0,0-1.48,0,1.28,1.28,0,0,0-.51.44,2.35,2.35,0,0,0-.3.7,4.27,4.27,0,0,0-.1.93,4.19,4.19,0,0,0,.09.89,2.08,2.08,0,0,0,.26.7,1.27,1.27,0,0,0,.48.47,1.61,1.61,0,0,0,.76.16,1.67,1.67,0,0,0,.73-.15,1.29,1.29,0,0,0,.5-.43,2,2,0,0,0,.3-.7A4.28,4.28,0,0,0,55,133.66Z"/><path d="M65.08,127.89a2.82,2.82,0,0,1,0,.34.69.69,0,0,1,0,.2.2.2,0,0,1-.07.1l-.08,0-.11,0-.15-.06-.22-.05a1.23,1.23,0,0,0-.29,0,.83.83,0,0,0-.34.06.59.59,0,0,0-.24.2.86.86,0,0,0-.14.35,2.72,2.72,0,0,0,0,.53v.6h1.19a.28.28,0,0,1,.12,0,.27.27,0,0,1,.09.12,1.09,1.09,0,0,1,.06.23c0,.1,0,.22,0,.36a1.64,1.64,0,0,1-.07.58c0,.11-.12.17-.21.17H63.34v5.29a.17.17,0,0,1-.05.12.36.36,0,0,1-.15.1,1.3,1.3,0,0,1-.28.05l-.45,0-.44,0a1.55,1.55,0,0,1-.29-.05.27.27,0,0,1-.14-.1.16.16,0,0,1,0-.12v-5.29h-.82a.22.22,0,0,1-.21-.17,1.64,1.64,0,0,1-.07-.58,1.94,1.94,0,0,1,0-.36,1.14,1.14,0,0,1,0-.23.27.27,0,0,1,.09-.12.21.21,0,0,1,.12,0h.82v-.54a4.5,4.5,0,0,1,.13-1.17,2.07,2.07,0,0,1,.41-.84,1.76,1.76,0,0,1,.72-.5,2.88,2.88,0,0,1,1-.17,3.1,3.1,0,0,1,.54,0,2.87,2.87,0,0,1,.4.1.71.71,0,0,1,.2.1.48.48,0,0,1,.09.14,1.33,1.33,0,0,1,0,.24A3.16,3.16,0,0,1,65.08,127.89Z"/><path d="M71.78,136.92a.16.16,0,0,1,0,.12.25.25,0,0,1-.12.1,1.37,1.37,0,0,1-.25.05l-.37,0-.4,0a.89.89,0,0,1-.23-.05.34.34,0,0,1-.13-.1.21.21,0,0,1,0-.12v-.76a4.12,4.12,0,0,1-1.11.88,2.4,2.4,0,0,1-1.16.29,2.56,2.56,0,0,1-1.13-.22,1.89,1.89,0,0,1-.74-.6,2.29,2.29,0,0,1-.4-.88,5.45,5.45,0,0,1-.12-1.25v-4a.16.16,0,0,1,0-.12.27.27,0,0,1,.14-.1,1.55,1.55,0,0,1,.29,0l.44,0,.45,0a1.43,1.43,0,0,1,.28,0,.36.36,0,0,1,.15.1.17.17,0,0,1,0,.12v3.7a3.83,3.83,0,0,0,.06.78,1.49,1.49,0,0,0,.2.46.92.92,0,0,0,.35.3,1,1,0,0,0,.48.11,1.22,1.22,0,0,0,.71-.26,4.32,4.32,0,0,0,.76-.74v-4.35a.16.16,0,0,1,0-.12.36.36,0,0,1,.15-.1,1.43,1.43,0,0,1,.28,0l.44,0,.45,0a1.43,1.43,0,0,1,.28,0,.36.36,0,0,1,.15.1.16.16,0,0,1,0,.12Z"/><path d="M79.57,136.92a.16.16,0,0,1,0,.12.36.36,0,0,1-.15.1,1.43,1.43,0,0,1-.28.05l-.44,0-.45,0a1.3,1.3,0,0,1-.28-.05.36.36,0,0,1-.15-.1.17.17,0,0,1,0-.12v-3.73a3.64,3.64,0,0,0-.06-.75,1.5,1.5,0,0,0-.21-.46.83.83,0,0,0-.34-.3,1.06,1.06,0,0,0-.48-.11,1.22,1.22,0,0,0-.71.26,4,4,0,0,0-.75.74v4.35a.17.17,0,0,1-.05.12.26.26,0,0,1-.15.1,1.43,1.43,0,0,1-.28.05l-.44,0-.45,0a1.43,1.43,0,0,1-.28-.05.36.36,0,0,1-.15-.1.17.17,0,0,1,0-.12v-6.54a.16.16,0,0,1,0-.12.28.28,0,0,1,.13-.1l.25,0,.37,0,.39,0a1,1,0,0,1,.24,0,.25.25,0,0,1,.12.1.16.16,0,0,1,0,.12v.76a4.09,4.09,0,0,1,1.1-.88,2.42,2.42,0,0,1,1.17-.29,2.51,2.51,0,0,1,1.12.22,1.89,1.89,0,0,1,.74.59,2.35,2.35,0,0,1,.41.89,5.26,5.26,0,0,1,.12,1.21Z"/><path d="M86,135.88a2.88,2.88,0,0,1,0,.32.66.66,0,0,1,0,.21.39.39,0,0,1,0,.14.42.42,0,0,1-.11.14,1.48,1.48,0,0,1-.3.21,4.09,4.09,0,0,1-1.08.37,3.76,3.76,0,0,1-2-.18,2.43,2.43,0,0,1-1-.69,3,3,0,0,1-.59-1.12,5,5,0,0,1-.2-1.51,5.34,5.34,0,0,1,.24-1.69,3,3,0,0,1,.69-1.18,2.56,2.56,0,0,1,1-.7A3.72,3.72,0,0,1,84,130a3.68,3.68,0,0,1,.58.05c.19,0,.36.09.53.14a3.62,3.62,0,0,1,.44.2,1.19,1.19,0,0,1,.27.19.92.92,0,0,1,.11.14.37.37,0,0,1,.06.14,1.27,1.27,0,0,1,0,.22,2.54,2.54,0,0,1,0,.31,1.58,1.58,0,0,1-.08.59c0,.12-.11.18-.19.18a.45.45,0,0,1-.26-.11l-.33-.22a2.19,2.19,0,0,0-.46-.23,1.67,1.67,0,0,0-.63-.1A1.24,1.24,0,0,0,83,132a2.81,2.81,0,0,0-.38,1.62,4.31,4.31,0,0,0,.09.93,2,2,0,0,0,.28.68,1.2,1.2,0,0,0,.47.4,1.53,1.53,0,0,0,.66.14,1.8,1.8,0,0,0,.65-.11,2.15,2.15,0,0,0,.48-.26,4.07,4.07,0,0,0,.35-.25.37.37,0,0,1,.23-.11.2.2,0,0,1,.11,0,.3.3,0,0,1,.07.14,1.31,1.31,0,0,1,0,.25C86,135.58,86,135.72,86,135.88Z"/><path d="M89,128.17a1,1,0,0,1-.22.77,1.28,1.28,0,0,1-.85.21,1.27,1.27,0,0,1-.83-.2,1,1,0,0,1-.22-.74,1,1,0,0,1,.22-.77,1.75,1.75,0,0,1,1.68,0A1,1,0,0,1,89,128.17Zm-.14,8.75a.16.16,0,0,1,0,.12.36.36,0,0,1-.15.1,1.43,1.43,0,0,1-.28.05l-.45,0-.45,0-.28-.05a.36.36,0,0,1-.15-.1.16.16,0,0,1,0-.12V130.4a.2.2,0,0,1,0-.13.36.36,0,0,1,.15-.1l.28-.06.45,0,.45,0,.28.06a.36.36,0,0,1,.15.1.2.2,0,0,1,0,.13Z"/><path d="M97.05,133.58a4.92,4.92,0,0,1-.22,1.53,3.19,3.19,0,0,1-.67,1.18,2.88,2.88,0,0,1-1.12.77,4.2,4.2,0,0,1-1.57.27,4.37,4.37,0,0,1-1.52-.24,2.73,2.73,0,0,1-1.07-.7,3,3,0,0,1-.63-1.14,5.46,5.46,0,0,1-.2-1.53,4.92,4.92,0,0,1,.22-1.53,3.23,3.23,0,0,1,.67-1.19,3,3,0,0,1,1.12-.76,4.16,4.16,0,0,1,1.57-.27,4.63,4.63,0,0,1,1.52.23,2.77,2.77,0,0,1,1.07.7,2.86,2.86,0,0,1,.62,1.14A5.17,5.17,0,0,1,97.05,133.58Zm-1.9.08a4.94,4.94,0,0,0-.07-.89,2.14,2.14,0,0,0-.27-.71,1.27,1.27,0,0,0-.48-.47,1.6,1.6,0,0,0-.77-.17,1.66,1.66,0,0,0-.72.15,1.32,1.32,0,0,0-.5.44,2.35,2.35,0,0,0-.3.7,4.27,4.27,0,0,0-.1.93,5,5,0,0,0,.08.89,2.62,2.62,0,0,0,.26.7,1.3,1.3,0,0,0,.49.47,1.61,1.61,0,0,0,.76.16,1.67,1.67,0,0,0,.73-.15,1.29,1.29,0,0,0,.5-.43,2,2,0,0,0,.3-.7A4.28,4.28,0,0,0,95.15,133.66Z"/><path d="M104.45,136.92a.17.17,0,0,1,0,.12.32.32,0,0,1-.14.1,1.55,1.55,0,0,1-.29.05l-.44,0-.45,0a1.43,1.43,0,0,1-.28-.05.36.36,0,0,1-.15-.1.16.16,0,0,1,0-.12v-3.73a3,3,0,0,0-.07-.75,1.49,1.49,0,0,0-.2-.46.89.89,0,0,0-.34-.3,1.07,1.07,0,0,0-.49-.11,1.24,1.24,0,0,0-.71.26,4,4,0,0,0-.75.74v4.35a.16.16,0,0,1,0,.12.36.36,0,0,1-.15.1l-.28.05-.45,0-.45,0-.28-.05a.36.36,0,0,1-.15-.1.16.16,0,0,1,0-.12v-6.54a.21.21,0,0,1,0-.12.32.32,0,0,1,.14-.1,1.11,1.11,0,0,1,.24,0l.38,0,.39,0a.89.89,0,0,1,.23,0,.34.34,0,0,1,.13.1.21.21,0,0,1,0,.12v.76a4.09,4.09,0,0,1,1.1-.88,2.47,2.47,0,0,1,1.17-.29,2.56,2.56,0,0,1,1.13.22,2,2,0,0,1,.74.59,2.5,2.5,0,0,1,.4.89,4.72,4.72,0,0,1,.13,1.21Z"/><path d="M111.52,136.94a.19.19,0,0,1-.07.16.44.44,0,0,1-.23.08,3.78,3.78,0,0,1-1,0,.34.34,0,0,1-.21-.08.21.21,0,0,1-.06-.16v-.52a3,3,0,0,1-.92.67,2.69,2.69,0,0,1-1.15.24,3.21,3.21,0,0,1-1-.13,2.4,2.4,0,0,1-.76-.4,1.85,1.85,0,0,1-.49-.67,2.19,2.19,0,0,1-.18-.92,2.07,2.07,0,0,1,.23-1,1.84,1.84,0,0,1,.66-.7,3.32,3.32,0,0,1,1.1-.4,7.78,7.78,0,0,1,1.54-.14h.63v-.39a2.12,2.12,0,0,0-.06-.54.92.92,0,0,0-.2-.38.87.87,0,0,0-.38-.23,2,2,0,0,0-.59-.07,3,3,0,0,0-.83.1,5.93,5.93,0,0,0-.64.22l-.46.23a.68.68,0,0,1-.31.1.19.19,0,0,1-.14-.05.3.3,0,0,1-.1-.14,1.37,1.37,0,0,1-.07-.24,2.69,2.69,0,0,1,0-.31,1.08,1.08,0,0,1,0-.35.49.49,0,0,1,.14-.24,1.57,1.57,0,0,1,.36-.24,4.46,4.46,0,0,1,.6-.23,4.12,4.12,0,0,1,.75-.18,4.61,4.61,0,0,1,.84-.07,5,5,0,0,1,1.31.15,2.19,2.19,0,0,1,.9.46,1.84,1.84,0,0,1,.51.8,3.7,3.7,0,0,1,.16,1.16Zm-1.81-2.8H109a3.33,3.33,0,0,0-.76.07,1.51,1.51,0,0,0-.51.19.8.8,0,0,0-.29.32,1,1,0,0,0-.09.43.81.81,0,0,0,.26.65,1.05,1.05,0,0,0,.72.23,1.39,1.39,0,0,0,.71-.2,2.64,2.64,0,0,0,.66-.58Z"/><path d="M40.56,144.81c0,.18,0,.32,0,.43a1.31,1.31,0,0,1,0,.27.23.23,0,0,1-.07.13.21.21,0,0,1-.12,0,.31.31,0,0,1-.13,0L40,145.6l-.2-.06a.81.81,0,0,0-.55,0,1.22,1.22,0,0,0-.32.19,2.86,2.86,0,0,0-.34.35q-.18.23-.39.54v4.08a.16.16,0,0,1,0,.12.36.36,0,0,1-.15.1l-.28,0-.45,0-.45,0-.28,0a.36.36,0,0,1-.15-.1.16.16,0,0,1,0-.12V144.2a.21.21,0,0,1,0-.12.32.32,0,0,1,.14-.1,1.11,1.11,0,0,1,.24,0l.38,0,.39,0a.89.89,0,0,1,.23,0,.34.34,0,0,1,.13.1.21.21,0,0,1,0,.12V145a5,5,0,0,1,.48-.61,3.47,3.47,0,0,1,.44-.38,1.38,1.38,0,0,1,.41-.19,1.4,1.4,0,0,1,.41-.05h.2a1.81,1.81,0,0,1,.23,0l.21.06.12.07a.21.21,0,0,1,.06.08l0,.12c0,.05,0,.13,0,.23Z"/><path d="M47.27,147.28a.73.73,0,0,1-.15.5.54.54,0,0,1-.42.16h-4a3,3,0,0,0,.09.76,1.64,1.64,0,0,0,.32.58,1.39,1.39,0,0,0,.56.36,2.43,2.43,0,0,0,.81.12,4.22,4.22,0,0,0,.85-.07,4,4,0,0,0,.64-.15l.44-.15a.75.75,0,0,1,.28-.07.18.18,0,0,1,.11,0,.24.24,0,0,1,.08.09.78.78,0,0,1,0,.19,2.63,2.63,0,0,1,0,.3,2.35,2.35,0,0,1,0,.28,1,1,0,0,1,0,.19.47.47,0,0,1,0,.14l-.08.1a.79.79,0,0,1-.26.14A4.23,4.23,0,0,1,46,151c-.22.05-.47.1-.76.14a6.42,6.42,0,0,1-.91.06,4.64,4.64,0,0,1-1.52-.22,2.66,2.66,0,0,1-1.1-.66,2.8,2.8,0,0,1-.65-1.13,5.69,5.69,0,0,1,0-3.17,3.23,3.23,0,0,1,.66-1.18,2.74,2.74,0,0,1,1-.75,3.62,3.62,0,0,1,1.39-.25,3.71,3.71,0,0,1,1.41.24,2.52,2.52,0,0,1,.95.67,2.67,2.67,0,0,1,.55,1,4.35,4.35,0,0,1,.18,1.28Zm-1.79-.53a1.94,1.94,0,0,0-.31-1.22,1.22,1.22,0,0,0-1-.44,1.28,1.28,0,0,0-.61.13,1.17,1.17,0,0,0-.43.36,1.51,1.51,0,0,0-.27.52,2.76,2.76,0,0,0-.1.65Z"/><path d="M54.05,150.76a.22.22,0,0,1-.07.16.44.44,0,0,1-.23.08,3.78,3.78,0,0,1-1,0,.34.34,0,0,1-.21-.08.21.21,0,0,1-.06-.16v-.52a3,3,0,0,1-.92.67,2.72,2.72,0,0,1-1.15.24,3.23,3.23,0,0,1-1-.13,2.24,2.24,0,0,1-.75-.4,1.87,1.87,0,0,1-.5-.67,2.36,2.36,0,0,1-.17-.92,2.07,2.07,0,0,1,.22-1,1.8,1.8,0,0,1,.67-.7,3.16,3.16,0,0,1,1.1-.4,7.67,7.67,0,0,1,1.53-.14h.64v-.39a2.12,2.12,0,0,0-.06-.54.83.83,0,0,0-.21-.38.77.77,0,0,0-.38-.23,2,2,0,0,0-.59-.08,2.91,2.91,0,0,0-.82.11,5.26,5.26,0,0,0-.64.22l-.47.23a.62.62,0,0,1-.3.1.17.17,0,0,1-.14-.05.31.31,0,0,1-.11-.14q0-.1-.06-.24a2.69,2.69,0,0,1,0-.31,1.08,1.08,0,0,1,0-.35.56.56,0,0,1,.13-.24,1.57,1.57,0,0,1,.36-.24,6.22,6.22,0,0,1,.6-.24,5.18,5.18,0,0,1,.75-.17,4.76,4.76,0,0,1,.84-.07,5.05,5.05,0,0,1,1.32.15,2.26,2.26,0,0,1,.9.46,1.84,1.84,0,0,1,.51.8,3.65,3.65,0,0,1,.16,1.16ZM52.24,148h-.7a3.43,3.43,0,0,0-.77.07,1.51,1.51,0,0,0-.51.19.88.88,0,0,0-.29.32,1,1,0,0,0-.09.43.86.86,0,0,0,.26.65,1.07,1.07,0,0,0,.72.23,1.39,1.39,0,0,0,.72-.2,3,3,0,0,0,.66-.58Z"/><path d="M57.43,150.74a.16.16,0,0,1,0,.12.36.36,0,0,1-.15.1L57,151l-.45,0-.45,0a1.43,1.43,0,0,1-.28,0,.36.36,0,0,1-.15-.1.16.16,0,0,1,0-.12v-9.63a.23.23,0,0,1,0-.14.36.36,0,0,1,.15-.1l.28-.06.45,0,.45,0,.28.06a.36.36,0,0,1,.15.1.23.23,0,0,1,0,.14Z"/><path d="M69.36,150.74a.16.16,0,0,1,0,.12.36.36,0,0,1-.15.1,1.43,1.43,0,0,1-.28,0l-.44,0L68,151l-.28,0a.36.36,0,0,1-.15-.1.21.21,0,0,1,0-.12v-3.88a2.77,2.77,0,0,0-.06-.6,1.27,1.27,0,0,0-.19-.46.84.84,0,0,0-.32-.3,1,1,0,0,0-.47-.11,1.09,1.09,0,0,0-.66.26,4.27,4.27,0,0,0-.73.74v4.35a.17.17,0,0,1,0,.12.36.36,0,0,1-.15.1,1.43,1.43,0,0,1-.28,0l-.44,0-.45,0-.28,0a.36.36,0,0,1-.15-.1.16.16,0,0,1,0-.12v-3.88a2.25,2.25,0,0,0-.07-.6,1.47,1.47,0,0,0-.18-.46.84.84,0,0,0-.32-.3,1,1,0,0,0-.47-.11,1.11,1.11,0,0,0-.67.26,4.25,4.25,0,0,0-.72.74v4.35a.17.17,0,0,1,0,.12.36.36,0,0,1-.15.1,1.43,1.43,0,0,1-.28,0l-.45,0-.44,0a1.55,1.55,0,0,1-.29,0,.36.36,0,0,1-.15-.1.16.16,0,0,1,0-.12V144.2a.16.16,0,0,1,0-.12.24.24,0,0,1,.13-.1,1.11,1.11,0,0,1,.24,0l.38,0,.39,0a1.11,1.11,0,0,1,.24,0,.4.4,0,0,1,.12.1.21.21,0,0,1,0,.12V145a4.39,4.39,0,0,1,1.09-.88,2.23,2.23,0,0,1,1.12-.29,2.64,2.64,0,0,1,.72.08,2.35,2.35,0,0,1,.58.24,1.75,1.75,0,0,1,.43.38,1.93,1.93,0,0,1,.31.49,5.64,5.64,0,0,1,.58-.54,3.31,3.31,0,0,1,.55-.37,2.21,2.21,0,0,1,.55-.21,2.15,2.15,0,0,1,.56-.07,2.42,2.42,0,0,1,1.1.22,1.82,1.82,0,0,1,.72.59,2.34,2.34,0,0,1,.4.89,5.14,5.14,0,0,1,.11,1.06Z"/><path d="M76.91,147.28a.73.73,0,0,1-.15.5.54.54,0,0,1-.42.16h-4a3,3,0,0,0,.09.76,1.5,1.5,0,0,0,.32.58,1.39,1.39,0,0,0,.56.36,2.43,2.43,0,0,0,.81.12,4.29,4.29,0,0,0,.85-.07,4,4,0,0,0,.64-.15l.44-.15a.75.75,0,0,1,.28-.07.18.18,0,0,1,.11,0,.24.24,0,0,1,.08.09.78.78,0,0,1,0,.19c0,.08,0,.18,0,.3a2.35,2.35,0,0,1,0,.28,1,1,0,0,1,0,.19,1.27,1.27,0,0,1,0,.14l-.08.1a.79.79,0,0,1-.26.14,4.23,4.23,0,0,1-.54.18c-.22.05-.48.1-.76.14a6.42,6.42,0,0,1-.91.06,4.64,4.64,0,0,1-1.52-.22,2.66,2.66,0,0,1-1.1-.66,2.8,2.8,0,0,1-.65-1.13,5.69,5.69,0,0,1,0-3.17,3.23,3.23,0,0,1,.66-1.18,2.66,2.66,0,0,1,1.05-.75,3.59,3.59,0,0,1,1.39-.25,3.71,3.71,0,0,1,1.41.24,2.52,2.52,0,0,1,1,.67,2.67,2.67,0,0,1,.55,1,4.35,4.35,0,0,1,.18,1.28Zm-1.79-.53a1.94,1.94,0,0,0-.31-1.22,1.22,1.22,0,0,0-1-.44,1.28,1.28,0,0,0-.61.13,1.17,1.17,0,0,0-.43.36,1.51,1.51,0,0,0-.27.52,2.76,2.76,0,0,0-.1.65Z"/><path d="M84.36,150.74a.16.16,0,0,1,0,.12.36.36,0,0,1-.15.1,1.3,1.3,0,0,1-.28,0l-.44,0L83,151a1.3,1.3,0,0,1-.28,0,.36.36,0,0,1-.15-.1.16.16,0,0,1,0-.12V147a3.52,3.52,0,0,0-.07-.75,1.5,1.5,0,0,0-.21-.46.83.83,0,0,0-.34-.3,1,1,0,0,0-.48-.11,1.22,1.22,0,0,0-.71.26,4,4,0,0,0-.75.74v4.35a.16.16,0,0,1,0,.12.36.36,0,0,1-.15.1,1.55,1.55,0,0,1-.29,0l-.44,0-.45,0a1.43,1.43,0,0,1-.28,0,.36.36,0,0,1-.15-.1.17.17,0,0,1,0-.12V144.2a.21.21,0,0,1,0-.12.28.28,0,0,1,.13-.1l.25,0,.38,0,.38,0a.89.89,0,0,1,.24,0,.25.25,0,0,1,.12.1.16.16,0,0,1,0,.12V145a4.09,4.09,0,0,1,1.1-.88,2.42,2.42,0,0,1,1.17-.29,2.51,2.51,0,0,1,1.12.22,1.82,1.82,0,0,1,.74.59,2.35,2.35,0,0,1,.41.89,5.26,5.26,0,0,1,.12,1.21Z"/><path d="M89.6,150.09a2.17,2.17,0,0,1,0,.5.54.54,0,0,1-.11.24.48.48,0,0,1-.19.12,2.11,2.11,0,0,1-.3.1c-.12,0-.24,0-.37.06l-.41,0a2.72,2.72,0,0,1-1-.14,1.52,1.52,0,0,1-.67-.43,1.78,1.78,0,0,1-.39-.72,4,4,0,0,1-.12-1v-3.35h-.79c-.09,0-.16-.06-.21-.17a1.64,1.64,0,0,1-.07-.58,3.53,3.53,0,0,1,0-.36,1,1,0,0,1,0-.23.62.62,0,0,1,.09-.12.28.28,0,0,1,.13,0h.78V142.5a.18.18,0,0,1,0-.13.25.25,0,0,1,.15-.1.9.9,0,0,1,.28-.06l.44,0,.45,0a1,1,0,0,1,.29.06.3.3,0,0,1,.14.1.19.19,0,0,1,0,.13V144h1.42a.28.28,0,0,1,.13,0,.62.62,0,0,1,.09.12,1,1,0,0,1,0,.23,3.53,3.53,0,0,1,0,.36,1.64,1.64,0,0,1-.07.58.24.24,0,0,1-.22.17H87.89v3.07a1.57,1.57,0,0,0,.16.8.67.67,0,0,0,.61.27,1.09,1.09,0,0,0,.26,0l.21-.06.15-.06.12,0,.08,0a.17.17,0,0,1,.06.11.87.87,0,0,1,0,.21A2.77,2.77,0,0,1,89.6,150.09Z"/><path d="M96.48,147.28a.73.73,0,0,1-.15.5.51.51,0,0,1-.41.16h-4a3,3,0,0,0,.1.76,1.5,1.5,0,0,0,.32.58,1.42,1.42,0,0,0,.55.36,2.49,2.49,0,0,0,.82.12,4.29,4.29,0,0,0,.85-.07,3.9,3.9,0,0,0,.63-.15l.45-.15a.71.71,0,0,1,.28-.07.18.18,0,0,1,.11,0,.24.24,0,0,1,.08.09s0,.11,0,.19,0,.18,0,.3,0,.2,0,.28,0,.14,0,.19a.46.46,0,0,1-.05.14.61.61,0,0,1-.07.1.79.79,0,0,1-.26.14,4.45,4.45,0,0,1-.55.18c-.22.05-.47.1-.75.14a6.52,6.52,0,0,1-.91.06,4.64,4.64,0,0,1-1.52-.22,2.6,2.6,0,0,1-1.1-.66,2.94,2.94,0,0,1-.66-1.13,5.44,5.44,0,0,1-.21-1.6A4.84,4.84,0,0,1,90.3,146a3.37,3.37,0,0,1,.65-1.18A2.77,2.77,0,0,1,92,144a4.09,4.09,0,0,1,2.79,0,2.48,2.48,0,0,1,1,.67,2.67,2.67,0,0,1,.55,1,4.36,4.36,0,0,1,.17,1.28Zm-1.78-.53a1.94,1.94,0,0,0-.31-1.22,1.23,1.23,0,0,0-1-.44,1.28,1.28,0,0,0-.61.13,1.29,1.29,0,0,0-.44.36,1.69,1.69,0,0,0-.26.52,2.76,2.76,0,0,0-.11.65Z"/><path d="M99.87,149.93a1.3,1.3,0,0,1-.24.92A1.1,1.1,0,0,1,97.7,150a1.33,1.33,0,0,1,.23-.92,1.27,1.27,0,0,1,.86-.23,1.19,1.19,0,0,1,.85.23A1.27,1.27,0,0,1,99.87,149.93Z"/></svg>