<svg id="Capa_1" data-name="Capa 1" xmlns="http://www.w3.org/2000/svg" viewBox="0 0 147.75 191.45"><defs><style>.cls-1{opacity:0.3;}.cls-2{fill:#fff;}.cls-3{fill:#9ea0a3;}.cls-4{fill:#231f20;}</style></defs><path class="cls-1" d="M141.75,118.66c-6-34.48-.26-76.32-1.17-89.48s-5.7-17.79-21.74-18-76.7-4.7-89,4.15c0,0-15.41,7.22-8.18,43.2,5.28,26.29,8,48.88,8.55,68.83-.09,1.41-1.55,19.48-17.38,21.3,0,0,13.65,2.95,16,15.2-.86,16.2.62,26.39,16.53,25.55,20.51-1.08,68.39-2,81.6-1.61C150.55,188.39,147.72,153.13,141.75,118.66Z"/><path class="cls-2" d="M135.56,111.28c-6-34.48-.26-76.32-1.17-89.48s-5.7-17.79-21.74-18S36-.95,23.62,7.9c0,0-15.41,7.22-8.19,43.2C20.71,77.39,23.48,100,24,119.93c-.09,1.41-1.55,19.48-17.38,21.3,0,0,13.65,3,16,15.2-.86,16.2.62,26.39,16.52,25.55,20.52-1.08,68.4-2,81.61-1.61C144.35,181,141.52,145.75,135.56,111.28Z"/><path class="cls-3" d="M24,119.93a30.54,30.54,0,0,1-1.28,6.61,30.15,30.15,0,0,0,4-12.71c-.51-20-3.28-42.54-8.56-68.83-3-14.89-2.1-24.84,0-31.41-3.55,5.81-6.8,17-2.68,37.51C20.71,77.39,23.48,100,24,119.93Z"/><path class="cls-3" d="M123.47,174.27c-13.21-.36-61.09.53-81.61,1.61-15.9.84-17.38-9.36-16.52-25.55-1.28-6.6-5.82-10.5-9.74-12.69a17.51,17.51,0,0,1-9,3.59s13.65,3,16,15.2c-.86,16.2.62,26.39,16.52,25.55,20.52-1.08,68.4-2,81.61-1.61,9.12.25,14.28-4.88,16.85-13.23C134.63,171.8,130.09,174.45,123.47,174.27Z"/><path class="cls-4" d="M36.57,183.11c-4.52-.12-7.93-1.26-10.38-3.48-4.75-4.3-5.35-12-4.77-23.13-2.27-11.31-15-14.18-15.09-14.21L-.12,140.9l6.58-.76c14.73-1.69,16.22-18.38,16.34-20.28-.52-20.07-3.31-42.53-8.54-68.56C7.19,16.13,21.42,7.77,23,7c9.85-6.93,45.4-6.08,78-4.74,4.83.2,9,.38,11.75.42,16.17.3,21.94,5.07,22.91,19.07.29,4.17-.07,11-.52,19.73-1,19.43-2.41,46,1.68,69.65,4.52,26.14,7.71,54.37-3,65.5-3.24,3.36-7.61,5-13,4.85h-.07c-12.9-.34-60.39.5-81.45,1.62C38.29,183.12,37.41,183.14,36.57,183.11ZM10.73,141.48c4.46,1.9,11.41,6.19,13.07,14.76l0,.12v.13c-.55,10.55-.07,17.85,4.07,21.59,2.39,2.16,6.05,3.08,11.19,2.81,21.11-1.11,68.72-2,81.66-1.61h.07c4.69.12,8.33-1.22,11.12-4.12,10.13-10.51,6.63-39.57,2.45-63.71h0c-4.12-23.83-2.72-50.57-1.7-70.1.45-8.62.8-15.43.52-19.48-.89-13-5.5-16.78-20.56-17-2.78,0-7-.21-11.82-.41-23.28-1-66.6-2.75-76.45,4.33l-.2.11c-.14.07-14.49,7.48-7.55,42,5.25,26.15,8.06,48.72,8.58,69C25.06,121.89,23.68,137.37,10.73,141.48Z"/><path d="M34.31,57.39a2.14,2.14,0,0,1,0-.48.61.61,0,0,1,.16-.31.64.64,0,0,1,.3-.18,2.08,2.08,0,0,1,.48-.05,2,2,0,0,1,.47.05.73.73,0,0,1,.31.18.69.69,0,0,1,.15.31,2.14,2.14,0,0,1,.05.48,2.17,2.17,0,0,1-.05.49.78.78,0,0,1-.15.33.63.63,0,0,1-.31.17,2,2,0,0,1-.47,0,2.08,2.08,0,0,1-.48,0,.55.55,0,0,1-.3-.17.68.68,0,0,1-.16-.33A2.17,2.17,0,0,1,34.31,57.39Zm.22,2a.28.28,0,0,1,0-.13.19.19,0,0,1,.12-.09.7.7,0,0,1,.24-.06,2,2,0,0,1,.37,0,2.06,2.06,0,0,1,.37,0,.7.7,0,0,1,.23.06.19.19,0,0,1,.12.09.28.28,0,0,1,0,.13l.19,6.34a.3.3,0,0,1,0,.16s-.08.08-.15.12a1,1,0,0,1-.29.06,3.1,3.1,0,0,1-.46,0l-.47,0a1.54,1.54,0,0,1-.29-.07.37.37,0,0,1-.15-.11.29.29,0,0,1,0-.16Z"/><path d="M38.68,57.39a2.14,2.14,0,0,1,0-.48.61.61,0,0,1,.16-.31.75.75,0,0,1,.3-.18,2.33,2.33,0,0,1,1,0,.69.69,0,0,1,.3.18.7.7,0,0,1,.16.31,2.21,2.21,0,0,1,0,.48,2.25,2.25,0,0,1,0,.49.78.78,0,0,1-.16.33.59.59,0,0,1-.3.17,2.33,2.33,0,0,1-1,0,.64.64,0,0,1-.3-.17.68.68,0,0,1-.16-.33A2.17,2.17,0,0,1,38.68,57.39Zm.22,2a.28.28,0,0,1,0-.13.23.23,0,0,1,.12-.09.7.7,0,0,1,.24-.06,3.43,3.43,0,0,1,.74,0,.64.64,0,0,1,.23.06.19.19,0,0,1,.12.09.29.29,0,0,1,0,.13l.18,6.34a.42.42,0,0,1,0,.16.38.38,0,0,1-.15.12,1.05,1.05,0,0,1-.3.06,3.1,3.1,0,0,1-.46,0l-.46,0a1.37,1.37,0,0,1-.29-.07.34.34,0,0,1-.16-.11.29.29,0,0,1,0-.16Z"/><path d="M48.31,62.09a2.77,2.77,0,0,1-.26,1.25,2.72,2.72,0,0,1-.72.89,3.12,3.12,0,0,1-1.06.54A4.59,4.59,0,0,1,45,65a4.77,4.77,0,0,1-.87-.08,4,4,0,0,1-.71-.19,2.77,2.77,0,0,1-.51-.22,1.48,1.48,0,0,1-.3-.21.58.58,0,0,1-.13-.26,3,3,0,0,1,0-.5,3.53,3.53,0,0,1,0-.36,1.19,1.19,0,0,1,0-.24.25.25,0,0,1,.09-.13.21.21,0,0,1,.12,0,.54.54,0,0,1,.27.12,4.57,4.57,0,0,0,.46.25,3.91,3.91,0,0,0,.67.26,3.08,3.08,0,0,0,.9.11,1.9,1.9,0,0,0,.6-.08,1.35,1.35,0,0,0,.45-.22,1.09,1.09,0,0,0,.28-.36,1.3,1.3,0,0,0,.1-.49.83.83,0,0,0-.17-.52,1.71,1.71,0,0,0-.44-.4,4.93,4.93,0,0,0-.61-.32c-.23-.1-.46-.2-.7-.32a5.41,5.41,0,0,1-.71-.38,2.71,2.71,0,0,1-.61-.51,2.46,2.46,0,0,1-.44-.7,2.91,2.91,0,0,1,.08-2.11,2.28,2.28,0,0,1,.65-.82,2.71,2.71,0,0,1,1-.48,4.1,4.1,0,0,1,1.18-.16,3.45,3.45,0,0,1,.64,0,3.75,3.75,0,0,1,.6.13,2.9,2.9,0,0,1,.5.19,1.29,1.29,0,0,1,.28.17.77.77,0,0,1,.1.12.85.85,0,0,1,.06.33,2.73,2.73,0,0,1,0,.31c0,.13,0,.24,0,.34s0,.17,0,.23a.32.32,0,0,1-.07.13.2.2,0,0,1-.13,0,.6.6,0,0,1-.24-.09c-.11-.07-.25-.14-.41-.22l-.57-.21a2.58,2.58,0,0,0-.7-.09,1.7,1.7,0,0,0-.53.07,1.18,1.18,0,0,0-.37.2.82.82,0,0,0-.23.32,1.17,1.17,0,0,0-.07.38.85.85,0,0,0,.17.52,1.3,1.3,0,0,0,.44.39,5.1,5.1,0,0,0,.62.32l.71.32c.24.11.48.24.72.38a2.77,2.77,0,0,1,.62.51,2.38,2.38,0,0,1,.44.7A2.49,2.49,0,0,1,48.31,62.09Z"/><path d="M51.09,64.56a.28.28,0,0,1,0,.12.35.35,0,0,1-.15.09,1.19,1.19,0,0,1-.27,0l-.42,0-.43,0a1.46,1.46,0,0,1-.27,0,.38.38,0,0,1-.14-.09.19.19,0,0,1,0-.12V58.33a.16.16,0,0,1,0-.12.28.28,0,0,1,.14-.09,1.46,1.46,0,0,1,.27,0,2.69,2.69,0,0,1,.43,0,2.56,2.56,0,0,1,.42,0,1.19,1.19,0,0,1,.27,0,.27.27,0,0,1,.15.09.21.21,0,0,1,0,.12Zm-.67-9.29a.37.37,0,0,1,.12-.13.39.39,0,0,1,.17-.09A1.46,1.46,0,0,1,51,55h.39a3.25,3.25,0,0,1,.5,0,.62.62,0,0,1,.27.08.12.12,0,0,1,.07.12.29.29,0,0,1-.07.15L50.79,57l-.11.11a.53.53,0,0,1-.15.08l-.22,0H50l-.39,0a.38.38,0,0,1-.2-.07.09.09,0,0,1,0-.11.31.31,0,0,1,.07-.16Z"/><path d="M55.25,63.88a2.21,2.21,0,0,1,0,.48.66.66,0,0,1-.17.32.62.62,0,0,1-.3.17,2,2,0,0,1-.47.05,2.14,2.14,0,0,1-.48-.05.71.71,0,0,1-.31-.17.73.73,0,0,1-.15-.32,2.14,2.14,0,0,1,0-.48,2.17,2.17,0,0,1,0-.49.73.73,0,0,1,.15-.32.64.64,0,0,1,.31-.18,2.14,2.14,0,0,1,.48,0,2,2,0,0,1,.47,0,.57.57,0,0,1,.3.18.66.66,0,0,1,.17.32A2.25,2.25,0,0,1,55.25,63.88ZM55,61.83A.2.2,0,0,1,55,62a.19.19,0,0,1-.12.09.7.7,0,0,1-.24.06,3.34,3.34,0,0,1-.73,0,.7.7,0,0,1-.24-.06.19.19,0,0,1-.12-.09.28.28,0,0,1,0-.13l-.18-6.34a.26.26,0,0,1,.19-.27,1,1,0,0,1,.29-.07l.47,0,.46,0a1.54,1.54,0,0,1,.29.07.37.37,0,0,1,.15.11.3.3,0,0,1,0,.16Z"/><path d="M59.62,63.88a2.21,2.21,0,0,1,0,.48.74.74,0,0,1-.16.32.71.71,0,0,1-.31.17,2,2,0,0,1-.47.05,2.14,2.14,0,0,1-.48-.05.62.62,0,0,1-.3-.17.65.65,0,0,1-.16-.32,2.14,2.14,0,0,1-.05-.48,2.17,2.17,0,0,1,.05-.49.65.65,0,0,1,.16-.32.57.57,0,0,1,.3-.18,2.14,2.14,0,0,1,.48,0,2,2,0,0,1,.47,0,.64.64,0,0,1,.31.18.74.74,0,0,1,.16.32A2.25,2.25,0,0,1,59.62,63.88Zm-.21-2.05a.5.5,0,0,1,0,.13.25.25,0,0,1-.13.09.64.64,0,0,1-.23.06,2.06,2.06,0,0,1-.37,0,2,2,0,0,1-.37,0,.7.7,0,0,1-.24-.06.27.27,0,0,1-.12-.09.28.28,0,0,1,0-.13l-.18-6.34a.26.26,0,0,1,.19-.27,1,1,0,0,1,.29-.07l.47,0,.46,0a1.37,1.37,0,0,1,.29.07.37.37,0,0,1,.15.11.3.3,0,0,1,.05.16Z"/><path d="M71.41,64.54a.21.21,0,0,1,0,.13.27.27,0,0,1-.15.09l-.28.06-.44,0-.45,0-.28-.06a.24.24,0,0,1-.14-.09.21.21,0,0,1-.05-.13V60.89H66.19v3.65a.2.2,0,0,1,0,.13.27.27,0,0,1-.15.09l-.28.06-.45,0-.44,0-.28-.06a.27.27,0,0,1-.15-.09.21.21,0,0,1-.05-.13V56a.21.21,0,0,1,.05-.13.49.49,0,0,1,.15-.09,1.43,1.43,0,0,1,.28,0,2.89,2.89,0,0,1,.44,0,2.83,2.83,0,0,1,.45,0,1.43,1.43,0,0,1,.28,0,.49.49,0,0,1,.15.09.2.2,0,0,1,0,.13v3.32h3.38V56a.21.21,0,0,1,.05-.13.42.42,0,0,1,.14-.09,1.43,1.43,0,0,1,.28,0,3,3,0,0,1,.45,0,2.76,2.76,0,0,1,.44,0,1.43,1.43,0,0,1,.28,0,.49.49,0,0,1,.15.09.21.21,0,0,1,0,.13Z"/><path d="M78.29,64.58a.17.17,0,0,1-.07.15.38.38,0,0,1-.22.08,2.36,2.36,0,0,1-.44,0,2.54,2.54,0,0,1-.46,0,.34.34,0,0,1-.2-.08.19.19,0,0,1-.06-.15v-.5a2.62,2.62,0,0,1-.88.64,2.42,2.42,0,0,1-1.09.24,3.28,3.28,0,0,1-.91-.13,2.08,2.08,0,0,1-.72-.39,1.74,1.74,0,0,1-.47-.63,2.16,2.16,0,0,1-.17-.88,2,2,0,0,1,.21-1,1.92,1.92,0,0,1,.64-.66,3.39,3.39,0,0,1,1-.39A7.9,7.9,0,0,1,76,60.81h.61v-.38a1.88,1.88,0,0,0-.06-.51.88.88,0,0,0-.2-.37.81.81,0,0,0-.36-.22,2.19,2.19,0,0,0-.56-.07,3.16,3.16,0,0,0-.79.1,5.31,5.31,0,0,0-.61.22l-.44.21a.62.62,0,0,1-.29.1.19.19,0,0,1-.14,0,.39.39,0,0,1-.1-.14,2.18,2.18,0,0,1-.06-.22,2.64,2.64,0,0,1,0-.29,1.53,1.53,0,0,1,0-.35.5.5,0,0,1,.13-.22,1.62,1.62,0,0,1,.34-.23,4.73,4.73,0,0,1,.58-.22,4.62,4.62,0,0,1,.71-.17,4.25,4.25,0,0,1,.8-.07,5.1,5.1,0,0,1,1.26.14,2.14,2.14,0,0,1,.85.44,1.76,1.76,0,0,1,.49.77,3.63,3.63,0,0,1,.15,1.11Zm-1.72-2.67H75.9a3.77,3.77,0,0,0-.73.06,1.47,1.47,0,0,0-.49.19.88.88,0,0,0-.27.31.84.84,0,0,0-.09.4.77.77,0,0,0,.25.62,1,1,0,0,0,.69.22,1.27,1.27,0,0,0,.68-.19,3,3,0,0,0,.63-.55Z"/><path d="M86,61.36a5.69,5.69,0,0,1-.18,1.49A3.28,3.28,0,0,1,85.33,64a2.22,2.22,0,0,1-.84.72,2.52,2.52,0,0,1-1.14.26,2.81,2.81,0,0,1-.59-.06,2.07,2.07,0,0,1-.52-.2,2.75,2.75,0,0,1-.48-.33,4.58,4.58,0,0,1-.5-.49v.68a.2.2,0,0,1,0,.13.23.23,0,0,1-.12.08.72.72,0,0,1-.24,0l-.35,0-.36,0a.66.66,0,0,1-.23,0,.23.23,0,0,1-.12-.08.2.2,0,0,1,0-.13V55.37a.25.25,0,0,1,0-.12.36.36,0,0,1,.15-.1l.27-.06.42,0,.43,0,.27.06a.39.39,0,0,1,.14.1.17.17,0,0,1,0,.12v3.45a3.5,3.5,0,0,1,.48-.41,2.48,2.48,0,0,1,.47-.27A1.76,1.76,0,0,1,83,58a3,3,0,0,1,.53,0,2.25,2.25,0,0,1,1.17.28,2.16,2.16,0,0,1,.79.74A3.33,3.33,0,0,1,85.89,60,5.68,5.68,0,0,1,86,61.36Zm-1.82.12a4.68,4.68,0,0,0-.06-.76,2.44,2.44,0,0,0-.2-.66,1.35,1.35,0,0,0-.39-.46,1,1,0,0,0-.59-.17,1.33,1.33,0,0,0-.34,0,1.2,1.2,0,0,0-.34.17,2.43,2.43,0,0,0-.37.31,3.88,3.88,0,0,0-.4.46v2.07a3.46,3.46,0,0,0,.71.72,1.16,1.16,0,0,0,.71.25,1,1,0,0,0,.58-.17,1.35,1.35,0,0,0,.39-.46,2.05,2.05,0,0,0,.23-.63A3.51,3.51,0,0,0,84.21,61.48Z"/><path d="M88.91,64.56a.19.19,0,0,1,0,.12.38.38,0,0,1-.14.09,1.46,1.46,0,0,1-.27,0l-.43,0-.43,0a1.2,1.2,0,0,1-.26,0,.35.35,0,0,1-.15-.09.19.19,0,0,1,0-.12V55.37a.17.17,0,0,1,0-.12.36.36,0,0,1,.15-.1l.26-.06.43,0,.43,0,.27.06a.39.39,0,0,1,.14.1.17.17,0,0,1,0,.12Z"/><path d="M96.13,61.26a.69.69,0,0,1-.14.48.53.53,0,0,1-.39.15H91.8a2.32,2.32,0,0,0,.1.72,1.28,1.28,0,0,0,.3.55,1.18,1.18,0,0,0,.53.35,2.21,2.21,0,0,0,.78.12,4,4,0,0,0,.81-.07,5.39,5.39,0,0,0,.6-.14l.42-.15a.75.75,0,0,1,.28-.07.17.17,0,0,1,.1,0s0,0,.07.08a.8.8,0,0,1,0,.18,2.53,2.53,0,0,1,0,.29,1.93,1.93,0,0,1,0,.26.92.92,0,0,1,0,.19.5.5,0,0,1,0,.13.61.61,0,0,1-.07.1.87.87,0,0,1-.25.13,4.55,4.55,0,0,1-.52.17c-.21,0-.45.1-.72.14a5.9,5.9,0,0,1-.86.06,4.59,4.59,0,0,1-1.46-.21,2.61,2.61,0,0,1-1-.64A2.65,2.65,0,0,1,90.22,63a5.7,5.7,0,0,1,0-3,3.35,3.35,0,0,1,.63-1.13,2.76,2.76,0,0,1,1-.71,3.91,3.91,0,0,1,2.67,0,2.42,2.42,0,0,1,.91.64,2.6,2.6,0,0,1,.53,1A4.22,4.22,0,0,1,96.13,61Zm-1.7-.5a1.82,1.82,0,0,0-.3-1.16,1.13,1.13,0,0,0-1-.43,1.18,1.18,0,0,0-.58.13,1.14,1.14,0,0,0-.41.34,1.58,1.58,0,0,0-.26.5,3,3,0,0,0-.1.62Z"/><path d="M107.2,64.56a.19.19,0,0,1,0,.12.31.31,0,0,1-.14.09,1.2,1.2,0,0,1-.26,0l-.43,0-.43,0a1.46,1.46,0,0,1-.27,0,.31.31,0,0,1-.14-.09.19.19,0,0,1,0-.12v-3.7a2.49,2.49,0,0,0-.06-.57,1.35,1.35,0,0,0-.18-.44.78.78,0,0,0-.31-.29.87.87,0,0,0-.44-.1,1.09,1.09,0,0,0-.64.24,4.85,4.85,0,0,0-.7.72v4.14a.19.19,0,0,1,0,.12s-.07.06-.14.09a1.46,1.46,0,0,1-.27,0l-.42,0-.42,0a1.19,1.19,0,0,1-.27,0,.35.35,0,0,1-.15-.09.28.28,0,0,1,0-.12v-3.7a2.49,2.49,0,0,0-.06-.57,1.35,1.35,0,0,0-.18-.44.76.76,0,0,0-.3-.29.92.92,0,0,0-.44-.1,1.09,1.09,0,0,0-.65.24,4.39,4.39,0,0,0-.69.72v4.14a.19.19,0,0,1,0,.12.31.31,0,0,1-.14.09,1.46,1.46,0,0,1-.27,0l-.43,0-.42,0a1.46,1.46,0,0,1-.27,0,.35.35,0,0,1-.15-.09.28.28,0,0,1,0-.12V58.33a.16.16,0,0,1,0-.12.19.19,0,0,1,.12-.09,1.11,1.11,0,0,1,.24,0,1.84,1.84,0,0,1,.36,0,2,2,0,0,1,.37,0,.8.8,0,0,1,.22,0,.19.19,0,0,1,.12.09.21.21,0,0,1,0,.12v.72a3.84,3.84,0,0,1,1-.84,2.14,2.14,0,0,1,1.07-.28,3,3,0,0,1,.69.08,1.93,1.93,0,0,1,.55.23,1.59,1.59,0,0,1,.41.36,2.09,2.09,0,0,1,.3.47,5.2,5.2,0,0,1,.54-.52,3.71,3.71,0,0,1,.53-.35,2.29,2.29,0,0,1,.53-.2,1.88,1.88,0,0,1,.53-.07,2.34,2.34,0,0,1,1,.21,1.92,1.92,0,0,1,.69.57,2.29,2.29,0,0,1,.37.84,4.2,4.2,0,0,1,.11,1Z"/><path d="M114.94,61.38a4.75,4.75,0,0,1-.21,1.45A3,3,0,0,1,114.1,64a2.82,2.82,0,0,1-1.07.74,4.06,4.06,0,0,1-1.5.26,4,4,0,0,1-1.45-.24,2.58,2.58,0,0,1-1-.66,2.82,2.82,0,0,1-.6-1.09,5,5,0,0,1-.19-1.46,4.77,4.77,0,0,1,.21-1.46,2.92,2.92,0,0,1,.64-1.13,2.76,2.76,0,0,1,1.06-.73,4.06,4.06,0,0,1,1.5-.26,4.2,4.2,0,0,1,1.45.23,2.58,2.58,0,0,1,1,.66,2.82,2.82,0,0,1,.6,1.09A5,5,0,0,1,114.94,61.38Zm-1.81.07a4.5,4.5,0,0,0-.07-.85,1.91,1.91,0,0,0-.25-.67,1.24,1.24,0,0,0-.46-.45,1.46,1.46,0,0,0-.73-.16,1.67,1.67,0,0,0-.69.14,1.38,1.38,0,0,0-.48.42,2.15,2.15,0,0,0-.28.67,3.84,3.84,0,0,0-.09.88,4.5,4.5,0,0,0,.07.85,2.12,2.12,0,0,0,.25.67,1.14,1.14,0,0,0,.46.44,1.49,1.49,0,0,0,.73.16,1.6,1.6,0,0,0,.69-.14,1.15,1.15,0,0,0,.48-.42,1.8,1.8,0,0,0,.28-.66A3.91,3.91,0,0,0,113.13,61.45Z"/><path d="M120.43,62.8a2,2,0,0,1-.2.93,1.85,1.85,0,0,1-.56.68,2.54,2.54,0,0,1-.86.41,4.07,4.07,0,0,1-1.07.14,3.55,3.55,0,0,1-.67-.06,4,4,0,0,1-.57-.13,3.13,3.13,0,0,1-.42-.16,1.09,1.09,0,0,1-.24-.16.55.55,0,0,1-.12-.23,1.89,1.89,0,0,1,0-.47,2.92,2.92,0,0,1,0-.32.88.88,0,0,1,0-.2s0-.08.07-.09a.2.2,0,0,1,.11,0,.5.5,0,0,1,.22.09l.38.19a3.78,3.78,0,0,0,.52.2,2.31,2.31,0,0,0,.67.09,1.73,1.73,0,0,0,.42,0,1,1,0,0,0,.33-.14.55.55,0,0,0,.2-.23.66.66,0,0,0,.07-.32.52.52,0,0,0-.13-.36,1,1,0,0,0-.34-.26,2.67,2.67,0,0,0-.48-.21l-.55-.22a5.77,5.77,0,0,1-.56-.27,2.86,2.86,0,0,1-.48-.38,1.84,1.84,0,0,1-.34-.54,1.9,1.9,0,0,1-.13-.75,1.86,1.86,0,0,1,.18-.82,1.72,1.72,0,0,1,.5-.64,2.16,2.16,0,0,1,.8-.41,3.48,3.48,0,0,1,1.06-.15,3.64,3.64,0,0,1,.57,0,3.36,3.36,0,0,1,.5.11,2.25,2.25,0,0,1,.37.13.78.78,0,0,1,.22.13.31.31,0,0,1,.1.1.5.5,0,0,1,0,.13.9.9,0,0,1,0,.18,2.1,2.1,0,0,1,0,.27,2.82,2.82,0,0,1,0,.31.42.42,0,0,1,0,.18.2.2,0,0,1-.07.1.16.16,0,0,1-.1,0,.44.44,0,0,1-.19-.07l-.33-.16-.46-.15a2.23,2.23,0,0,0-.6-.08,1.58,1.58,0,0,0-.41,0,.71.71,0,0,0-.29.14.68.68,0,0,0-.17.21.81.81,0,0,0,0,.27.52.52,0,0,0,.13.36,1.23,1.23,0,0,0,.35.26l.49.21c.19.06.37.13.56.21s.37.17.56.27a2,2,0,0,1,.49.38,1.63,1.63,0,0,1,.35.53A1.85,1.85,0,0,1,120.43,62.8Z"/><path d="M36.32,80.33a.16.16,0,0,1,0,.12.19.19,0,0,1-.12.09.9.9,0,0,1-.22,0h-.72l-.23,0a.23.23,0,0,1-.12-.09.16.16,0,0,1,0-.12v-.7a3.91,3.91,0,0,1-1,.81,2.41,2.41,0,0,1-1.17.28,2.45,2.45,0,0,1-1.2-.27,2.33,2.33,0,0,1-.81-.75,3.47,3.47,0,0,1-.45-1.09,6.21,6.21,0,0,1-.14-1.32,5.69,5.69,0,0,1,.18-1.49,3.37,3.37,0,0,1,.52-1.13A2.36,2.36,0,0,1,31.6,74a2.59,2.59,0,0,1,1.18-.25,2.14,2.14,0,0,1,.95.21,3.29,3.29,0,0,1,.84.63V71.16a.17.17,0,0,1,0-.12.32.32,0,0,1,.14-.1l.27-.06.43,0,.42,0,.27.06a.39.39,0,0,1,.14.1.25.25,0,0,1,0,.12Zm-1.75-4.17a3.75,3.75,0,0,0-.72-.72,1.2,1.2,0,0,0-.72-.26,1,1,0,0,0-.59.18,1.17,1.17,0,0,0-.4.45,2.55,2.55,0,0,0-.23.64,4.4,4.4,0,0,0-.07.73,4.77,4.77,0,0,0,.06.76,2.68,2.68,0,0,0,.21.66,1.32,1.32,0,0,0,.38.46,1,1,0,0,0,.6.18,1,1,0,0,0,.35-.06,1.13,1.13,0,0,0,.35-.17,2.43,2.43,0,0,0,.37-.31,5.3,5.3,0,0,0,.41-.47Z"/><path d="M43.55,77a.65.65,0,0,1-.14.47.48.48,0,0,1-.39.16h-3.8a2.72,2.72,0,0,0,.1.72,1.28,1.28,0,0,0,.3.55,1.33,1.33,0,0,0,.53.35,2.28,2.28,0,0,0,.78.12,4.7,4.7,0,0,0,.81-.07,3.75,3.75,0,0,0,.6-.15l.43-.14A.67.67,0,0,1,43,79l.1,0a.22.22,0,0,1,.07.09.6.6,0,0,1,0,.18,2.44,2.44,0,0,1,0,.29,2,2,0,0,1,0,.26,1,1,0,0,1,0,.19.5.5,0,0,1,0,.13l-.07.1a1.26,1.26,0,0,1-.25.13,3.25,3.25,0,0,1-.52.16,5.76,5.76,0,0,1-.72.14,5.9,5.9,0,0,1-.86.06,4.59,4.59,0,0,1-1.46-.21,2.6,2.6,0,0,1-1-.63,2.69,2.69,0,0,1-.63-1.08,5,5,0,0,1-.2-1.52,5,5,0,0,1,.21-1.5,3.35,3.35,0,0,1,.63-1.13,2.73,2.73,0,0,1,1-.71,3.54,3.54,0,0,1,1.33-.24,3.35,3.35,0,0,1,1.34.23,2.24,2.24,0,0,1,.91.64,2.64,2.64,0,0,1,.53,1,4.34,4.34,0,0,1,.16,1.22Zm-1.7-.5a1.79,1.79,0,0,0-.3-1.17,1.15,1.15,0,0,0-1-.42,1.18,1.18,0,0,0-.58.13,1.11,1.11,0,0,0-.41.33,1.43,1.43,0,0,0-.25.51,2.44,2.44,0,0,0-.11.62Z"/><path d="M53.12,77.85a2.74,2.74,0,0,1-.26,1.25,2.66,2.66,0,0,1-.72.9,3.12,3.12,0,0,1-1.06.54,4.59,4.59,0,0,1-1.3.18,4.44,4.44,0,0,1-1.58-.26,2.47,2.47,0,0,1-.51-.23,1,1,0,0,1-.3-.21.53.53,0,0,1-.13-.26,2.08,2.08,0,0,1,0-.49,3.53,3.53,0,0,1,0-.36,1.19,1.19,0,0,1,0-.24.32.32,0,0,1,.08-.13.2.2,0,0,1,.13,0,.58.58,0,0,1,.27.12c.12.07.27.16.46.25a3.91,3.91,0,0,0,.67.26,3.46,3.46,0,0,0,.9.11,1.9,1.9,0,0,0,.6-.08,1.57,1.57,0,0,0,.45-.22,1,1,0,0,0,.28-.37,1.21,1.21,0,0,0,.1-.48.88.88,0,0,0-.17-.53,1.88,1.88,0,0,0-.44-.39,4.93,4.93,0,0,0-.61-.32l-.7-.32a6,6,0,0,1-.71-.38,2.71,2.71,0,0,1-.61-.51,2.38,2.38,0,0,1-.44-.7,2.91,2.91,0,0,1,.08-2.11,2.28,2.28,0,0,1,.65-.82,2.72,2.72,0,0,1,1-.49,4.48,4.48,0,0,1,1.18-.16,4.72,4.72,0,0,1,.64,0,5.27,5.27,0,0,1,.6.14,2.91,2.91,0,0,1,.5.18,1,1,0,0,1,.28.18.77.77,0,0,1,.1.12.68.68,0,0,1,0,.13,1,1,0,0,1,0,.2,2.63,2.63,0,0,1,0,.3c0,.14,0,.25,0,.35a1.2,1.2,0,0,1,0,.23.23.23,0,0,1-.07.13.16.16,0,0,1-.12,0,.52.52,0,0,1-.24-.1l-.41-.21a3.77,3.77,0,0,0-.57-.21,2.6,2.6,0,0,0-.71-.09,1.64,1.64,0,0,0-.52.07,1.18,1.18,0,0,0-.37.2.87.87,0,0,0-.23.31,1,1,0,0,0-.07.39.85.85,0,0,0,.16.52,1.88,1.88,0,0,0,.44.39,6.16,6.16,0,0,0,.63.32l.71.32a6.94,6.94,0,0,1,.71.38,2.82,2.82,0,0,1,.63.51,2.6,2.6,0,0,1,.44.7A2.43,2.43,0,0,1,53.12,77.85Z"/><path d="M60.49,79.19a2.63,2.63,0,0,1,0,.3,1.18,1.18,0,0,1,0,.21.34.34,0,0,1-.06.15.6.6,0,0,1-.11.14,1.14,1.14,0,0,1-.29.21,4.76,4.76,0,0,1-.54.24,4.29,4.29,0,0,1-.73.19,4.79,4.79,0,0,1-.88.08,4.7,4.7,0,0,1-1.68-.29,3.27,3.27,0,0,1-1.27-.85,3.78,3.78,0,0,1-.8-1.42,6.29,6.29,0,0,1-.28-2,6.08,6.08,0,0,1,.31-2A4.2,4.2,0,0,1,55,72.61a3.53,3.53,0,0,1,1.32-.92,4.71,4.71,0,0,1,2.43-.25,5.44,5.44,0,0,1,.64.16,3.37,3.37,0,0,1,.54.24,1.81,1.81,0,0,1,.33.23l.13.15a.6.6,0,0,1,.05.16.85.85,0,0,1,0,.23,3.22,3.22,0,0,1,0,.33c0,.14,0,.26,0,.36a.72.72,0,0,1-.05.24.32.32,0,0,1-.08.13.15.15,0,0,1-.11,0,.51.51,0,0,1-.27-.12,4.89,4.89,0,0,0-.41-.27,4.39,4.39,0,0,0-.61-.28,2.66,2.66,0,0,0-.84-.12,2.12,2.12,0,0,0-1,.22,2,2,0,0,0-.72.63,2.82,2.82,0,0,0-.45,1,4.72,4.72,0,0,0-.16,1.3A5,5,0,0,0,56,77.44a2.68,2.68,0,0,0,.46,1,1.94,1.94,0,0,0,.74.57,2.45,2.45,0,0,0,1,.18A3,3,0,0,0,59,79a3.19,3.19,0,0,0,.61-.26c.17-.09.31-.18.42-.25a.54.54,0,0,1,.26-.11.2.2,0,0,1,.11,0,.26.26,0,0,1,.07.11,1,1,0,0,1,0,.23C60.49,78.89,60.49,79,60.49,79.19Z"/><path d="M68.93,79.88a2.81,2.81,0,0,1,.11.4.26.26,0,0,1-.06.22.43.43,0,0,1-.27.09h-1.1a1.08,1.08,0,0,1-.3,0,.35.35,0,0,1-.15-.08,1.07,1.07,0,0,1-.07-.15l-.6-1.82h-3.4l-.57,1.77a.59.59,0,0,1-.07.16.35.35,0,0,1-.15.11,1.41,1.41,0,0,1-.29,0h-.48a3.56,3.56,0,0,1-.51,0,.34.34,0,0,1-.25-.1.3.3,0,0,1-.05-.22,2.81,2.81,0,0,1,.11-.4l2.79-8a.75.75,0,0,1,.09-.2.4.4,0,0,1,.18-.11,2.08,2.08,0,0,1,.34-.05h1.23a2.53,2.53,0,0,1,.38.05.43.43,0,0,1,.2.12,1,1,0,0,1,.1.21Zm-4.15-6.63h0L63.5,77.09h2.56Z"/><path d="M77.42,75.91A6.11,6.11,0,0,1,77.09,78a3.46,3.46,0,0,1-.93,1.44,3.69,3.69,0,0,1-1.48.82,7,7,0,0,1-2.07.26H70.45a.51.51,0,0,1-.54-.58V72.1a.54.54,0,0,1,.16-.44.56.56,0,0,1,.38-.14h2.32a6.4,6.4,0,0,1,2,.29,3.72,3.72,0,0,1,1.42.84A3.6,3.6,0,0,1,77.12,74,5.43,5.43,0,0,1,77.42,75.91Zm-1.9.06a4.56,4.56,0,0,0-.15-1.19,2.55,2.55,0,0,0-.48-1,2.29,2.29,0,0,0-.86-.63A3.43,3.43,0,0,0,72.67,73h-.93v6.15h1a3.42,3.42,0,0,0,1.27-.2,2.07,2.07,0,0,0,.86-.59,2.62,2.62,0,0,0,.52-1A5,5,0,0,0,75.52,76Z"/><path d="M85.71,79.88a2.55,2.55,0,0,1,.1.4.23.23,0,0,1,0,.22.44.44,0,0,1-.28.09H84.39a1.08,1.08,0,0,1-.3,0,.35.35,0,0,1-.15-.08.52.52,0,0,1-.07-.15l-.61-1.82H79.87l-.57,1.77a.6.6,0,0,1-.08.16.31.31,0,0,1-.14.11,1.55,1.55,0,0,1-.29,0H78.3a3.48,3.48,0,0,1-.5,0,.34.34,0,0,1-.25-.1.26.26,0,0,1,0-.22,2.81,2.81,0,0,1,.11-.4l2.78-8a.75.75,0,0,1,.1-.2.4.4,0,0,1,.18-.11,1.92,1.92,0,0,1,.34-.05h1.23a2.53,2.53,0,0,1,.38.05.39.39,0,0,1,.19.12.51.51,0,0,1,.1.21Zm-4.15-6.63h0l-1.28,3.84h2.57Z"/><path d="M88.82,79.28c0,.18,0,.35,0,.5a1.81,1.81,0,0,1-.1.43,2,2,0,0,1-.16.4,2.06,2.06,0,0,1-.24.39l-.94,1.34a.4.4,0,0,1-.1.12.36.36,0,0,1-.15.08l-.2,0h-.63a.54.54,0,0,1-.18-.06.1.1,0,0,1-.06-.09.35.35,0,0,1,0-.13l.85-1.93v-1.1a1.07,1.07,0,0,1,.06-.39.54.54,0,0,1,.17-.22.81.81,0,0,1,.3-.1,2.85,2.85,0,0,1,.44,0,2.42,2.42,0,0,1,.42,0,.7.7,0,0,1,.29.1.41.41,0,0,1,.17.22A1.09,1.09,0,0,1,88.82,79.28Z"/><path d="M98.86,77a.69.69,0,0,1-.14.47.51.51,0,0,1-.4.16H94.53a2.37,2.37,0,0,0,.1.72,1.28,1.28,0,0,0,.3.55,1.26,1.26,0,0,0,.53.35,2.21,2.21,0,0,0,.78.12,4.89,4.89,0,0,0,.81-.07,3.75,3.75,0,0,0,.6-.15l.42-.14a.67.67,0,0,1,.27-.07l.11,0a.22.22,0,0,1,.07.09.6.6,0,0,1,0,.18c0,.08,0,.17,0,.29a2,2,0,0,1,0,.26,1,1,0,0,1,0,.19.5.5,0,0,1,0,.13l-.08.1a1.08,1.08,0,0,1-.24.13,3.25,3.25,0,0,1-.52.16,5.76,5.76,0,0,1-.72.14,5.94,5.94,0,0,1-.87.06,4.57,4.57,0,0,1-1.45-.21,2.64,2.64,0,0,1-1.05-.63A2.67,2.67,0,0,1,93,78.8a4.94,4.94,0,0,1-.21-1.52,4.73,4.73,0,0,1,.22-1.5,3,3,0,0,1,.63-1.13,2.65,2.65,0,0,1,1-.71,3.5,3.5,0,0,1,1.33-.24,3.39,3.39,0,0,1,1.34.23,2.31,2.31,0,0,1,.91.64,2.48,2.48,0,0,1,.52,1,4,4,0,0,1,.17,1.22Zm-1.7-.5a1.85,1.85,0,0,0-.3-1.17,1.15,1.15,0,0,0-1-.42,1.18,1.18,0,0,0-.58.13,1.14,1.14,0,0,0-.42.33,1.62,1.62,0,0,0-.25.51,2.44,2.44,0,0,0-.1.62Z"/><path d="M104.41,78.56a2.13,2.13,0,0,1-.2.94,1.85,1.85,0,0,1-.56.68,2.64,2.64,0,0,1-.86.41,4.1,4.1,0,0,1-1.08.13,3.71,3.71,0,0,1-.67,0,3.57,3.57,0,0,1-.56-.13,3,3,0,0,1-.42-.17.78.78,0,0,1-.25-.15.55.55,0,0,1-.12-.23,1.89,1.89,0,0,1,0-.47c0-.13,0-.24,0-.32a.83.83,0,0,1,0-.2.2.2,0,0,1,.07-.1l.1,0a.52.52,0,0,1,.23.09l.37.19a3.84,3.84,0,0,0,.52.19,2,2,0,0,0,.68.1,1.79,1.79,0,0,0,.42,0,1.34,1.34,0,0,0,.32-.14.66.66,0,0,0,.21-.23.83.83,0,0,0,.07-.32.55.55,0,0,0-.13-.36,1.25,1.25,0,0,0-.35-.27l-.48-.21-.55-.21a5.6,5.6,0,0,1-.55-.27,2.23,2.23,0,0,1-.48-.38,1.86,1.86,0,0,1-.35-.54,2.11,2.11,0,0,1-.12-.75,1.9,1.9,0,0,1,.17-.83,1.79,1.79,0,0,1,.5-.63,2.43,2.43,0,0,1,.8-.42,3.89,3.89,0,0,1,1.06-.14,3.48,3.48,0,0,1,.57,0c.18,0,.35.06.5.1l.38.14a1.27,1.27,0,0,1,.22.13.41.41,0,0,1,.09.1.5.5,0,0,1,0,.13s0,.11,0,.18,0,.16,0,.27,0,.22,0,.3a.69.69,0,0,1,0,.19.19.19,0,0,1-.06.1l-.1,0a.47.47,0,0,1-.2-.07l-.33-.16a3,3,0,0,0-.46-.16,2.6,2.6,0,0,0-.6-.07,1.64,1.64,0,0,0-.41,0,.78.78,0,0,0-.29.14.54.54,0,0,0-.16.21.58.58,0,0,0-.06.26.57.57,0,0,0,.13.37,1.68,1.68,0,0,0,.35.26,4,4,0,0,0,.5.2l.55.22a3.2,3.2,0,0,1,.56.27,2,2,0,0,1,.5.37,1.66,1.66,0,0,1,.34.54A1.83,1.83,0,0,1,104.41,78.56Z"/><path d="M110.75,80.35a.18.18,0,0,1-.07.15.51.51,0,0,1-.22.08,2.63,2.63,0,0,1-.44,0,2.7,2.7,0,0,1-.46,0,.38.38,0,0,1-.2-.08.2.2,0,0,1-.06-.15v-.5a2.72,2.72,0,0,1-.88.64,2.45,2.45,0,0,1-1.09.23,2.9,2.9,0,0,1-.91-.13,1.91,1.91,0,0,1-.72-.38,1.63,1.63,0,0,1-.47-.63,2.3,2.3,0,0,1,0-1.83,1.62,1.62,0,0,1,.64-.66,3,3,0,0,1,1-.39,7.76,7.76,0,0,1,1.46-.13h.6V76.2a2.62,2.62,0,0,0,0-.52.91.91,0,0,0-.2-.36.81.81,0,0,0-.36-.22,1.85,1.85,0,0,0-.57-.07,2.68,2.68,0,0,0-.78.1,3.57,3.57,0,0,0-.61.22c-.18.07-.33.15-.45.21a.56.56,0,0,1-.29.1.21.21,0,0,1-.13,0,.39.39,0,0,1-.1-.14.64.64,0,0,1-.06-.22,2.66,2.66,0,0,1,0-.3,1.58,1.58,0,0,1,0-.34.52.52,0,0,1,.14-.22,1.16,1.16,0,0,1,.34-.23,4,4,0,0,1,.57-.23,6.36,6.36,0,0,1,.72-.17,5.19,5.19,0,0,1,.8-.06,4.58,4.58,0,0,1,1.25.14,2.19,2.19,0,0,1,.86.44,1.79,1.79,0,0,1,.49.77,3.63,3.63,0,0,1,.15,1.11ZM109,77.68h-.67a3.73,3.73,0,0,0-.72.06,1.39,1.39,0,0,0-.49.19.73.73,0,0,0-.28.3.91.91,0,0,0-.08.41.81.81,0,0,0,.24.62,1,1,0,0,0,.69.22,1.25,1.25,0,0,0,.68-.19,2.58,2.58,0,0,0,.63-.55Z"/><path d="M116.92,80.33a.19.19,0,0,1,0,.12.3.3,0,0,1-.14.08.9.9,0,0,1-.27.06h-.85a.9.9,0,0,1-.27-.06.26.26,0,0,1-.14-.08.21.21,0,0,1,0-.12V71.14a.21.21,0,0,1,0-.13.33.33,0,0,1,.14-.09,1.37,1.37,0,0,1,.27-.06l.42,0,.43,0a1.37,1.37,0,0,1,.27.06.42.42,0,0,1,.14.09.2.2,0,0,1,0,.13Z"/><path d="M123.7,80.35a.18.18,0,0,1-.07.15.51.51,0,0,1-.22.08,2.63,2.63,0,0,1-.44,0,2.7,2.7,0,0,1-.46,0,.38.38,0,0,1-.2-.08.2.2,0,0,1-.06-.15v-.5a2.72,2.72,0,0,1-.88.64,2.45,2.45,0,0,1-1.09.23,2.9,2.9,0,0,1-.91-.13,1.91,1.91,0,0,1-.72-.38,1.63,1.63,0,0,1-.47-.63,2.3,2.3,0,0,1,0-1.83,1.62,1.62,0,0,1,.64-.66,3,3,0,0,1,1-.39,7.76,7.76,0,0,1,1.46-.13h.6V76.2a2.62,2.62,0,0,0,0-.52.91.91,0,0,0-.2-.36.81.81,0,0,0-.36-.22,1.85,1.85,0,0,0-.57-.07,2.68,2.68,0,0,0-.78.1,3.57,3.57,0,0,0-.61.22c-.18.07-.33.15-.45.21a.56.56,0,0,1-.29.1.21.21,0,0,1-.13,0,.39.39,0,0,1-.1-.14.64.64,0,0,1-.06-.22,2.66,2.66,0,0,1,0-.3,1.58,1.58,0,0,1,0-.34.52.52,0,0,1,.14-.22,1.16,1.16,0,0,1,.34-.23,4,4,0,0,1,.57-.23,6.36,6.36,0,0,1,.72-.17,5.19,5.19,0,0,1,.8-.06,4.58,4.58,0,0,1,1.25.14,2.19,2.19,0,0,1,.86.44,1.79,1.79,0,0,1,.49.77,3.63,3.63,0,0,1,.15,1.11ZM122,77.68h-.67a3.73,3.73,0,0,0-.72.06,1.39,1.39,0,0,0-.49.19.73.73,0,0,0-.28.3.91.91,0,0,0-.08.41.81.81,0,0,0,.24.62,1,1,0,0,0,.69.22,1.22,1.22,0,0,0,.68-.19,2.58,2.58,0,0,0,.63-.55Z"/><path d="M35.32,95.1a2.63,2.63,0,0,1,0,.3.58.58,0,0,1,0,.21.47.47,0,0,1,0,.14.37.37,0,0,1-.11.13,1.73,1.73,0,0,1-.28.2,4,4,0,0,1-.46.2,4.29,4.29,0,0,1-.57.15,3.18,3.18,0,0,1-.62,0,3.35,3.35,0,0,1-1.27-.22A2.43,2.43,0,0,1,31,95.6a3,3,0,0,1-.57-1.06,5.23,5.23,0,0,1-.19-1.44,4.85,4.85,0,0,1,.24-1.62,3.05,3.05,0,0,1,.65-1.13,2.54,2.54,0,0,1,1-.66,3.49,3.49,0,0,1,1.81-.17,2.87,2.87,0,0,1,.92.32,1.39,1.39,0,0,1,.26.18l.11.13a.46.46,0,0,1,0,.14,1.12,1.12,0,0,1,0,.2,2.66,2.66,0,0,1,0,.3,1.79,1.79,0,0,1-.07.57c0,.11-.11.16-.19.16a.45.45,0,0,1-.25-.09l-.31-.22A2.57,2.57,0,0,0,34,91a1.72,1.72,0,0,0-.6-.09,1.18,1.18,0,0,0-1,.52A2.69,2.69,0,0,0,32,93a3.94,3.94,0,0,0,.09.89,1.87,1.87,0,0,0,.27.64,1.2,1.2,0,0,0,.45.39,1.54,1.54,0,0,0,.63.13,1.64,1.64,0,0,0,.62-.11,2.2,2.2,0,0,0,.46-.24l.33-.24a.33.33,0,0,1,.22-.11.15.15,0,0,1,.1,0,.32.32,0,0,1,.07.13,1.5,1.5,0,0,1,0,.24C35.32,94.82,35.32,95,35.32,95.1Z"/><path d="M42.54,92.92a4.75,4.75,0,0,1-.21,1.45,3,3,0,0,1-.64,1.13,2.72,2.72,0,0,1-1.07.73,4,4,0,0,1-1.5.26,4.18,4.18,0,0,1-1.44-.23,2.6,2.6,0,0,1-1-.67,2.71,2.71,0,0,1-.6-1.08,5.07,5.07,0,0,1-.2-1.47,4.81,4.81,0,0,1,.21-1.46,3.29,3.29,0,0,1,.64-1.13,3,3,0,0,1,1.07-.73,4,4,0,0,1,1.5-.26,4.2,4.2,0,0,1,1.45.23,2.6,2.6,0,0,1,1,.67,2.82,2.82,0,0,1,.59,1.08A5.1,5.1,0,0,1,42.54,92.92ZM40.73,93a5.38,5.38,0,0,0-.07-.84,2.18,2.18,0,0,0-.25-.68,1.27,1.27,0,0,0-.47-.45,1.55,1.55,0,0,0-.73-.16,1.48,1.48,0,0,0-.68.15,1.08,1.08,0,0,0-.48.42,2,2,0,0,0-.29.66,3.91,3.91,0,0,0-.09.88,4.46,4.46,0,0,0,.08.85,2,2,0,0,0,.25.68,1.09,1.09,0,0,0,.46.44,1.61,1.61,0,0,0,.73.16,1.52,1.52,0,0,0,.69-.15,1.26,1.26,0,0,0,.48-.41,2,2,0,0,0,.28-.66A3.94,3.94,0,0,0,40.73,93Z"/><path d="M49.59,96.09a.2.2,0,0,1,0,.13.3.3,0,0,1-.14.08.81.81,0,0,1-.27,0,2.56,2.56,0,0,1-.42,0,2.69,2.69,0,0,1-.43,0,.93.93,0,0,1-.27,0,.37.37,0,0,1-.14-.08.2.2,0,0,1,0-.13V92.54a2.68,2.68,0,0,0-.07-.71,1.22,1.22,0,0,0-.19-.45.79.79,0,0,0-.32-.28,1,1,0,0,0-.47-.11,1.21,1.21,0,0,0-.68.25,3.94,3.94,0,0,0-.71.71v4.14a.2.2,0,0,1,0,.13.37.37,0,0,1-.14.08.93.93,0,0,1-.27,0,2.69,2.69,0,0,1-.43,0,2.56,2.56,0,0,1-.42,0,.81.81,0,0,1-.27,0,.35.35,0,0,1-.15-.08.28.28,0,0,1,0-.13V89.86a.19.19,0,0,1,0-.12.31.31,0,0,1,.12-.09A1.11,1.11,0,0,1,44,89.6l.36,0,.37,0a.9.9,0,0,1,.22.05.31.31,0,0,1,.12.09.27.27,0,0,1,0,.12v.72a4.15,4.15,0,0,1,1.06-.84,2.4,2.4,0,0,1,1.11-.28,2.46,2.46,0,0,1,1.07.21,1.91,1.91,0,0,1,.71.57,2.28,2.28,0,0,1,.38.85,4.78,4.78,0,0,1,.12,1.15Z"/><path d="M57.33,92.92a4.75,4.75,0,0,1-.21,1.45,3.12,3.12,0,0,1-.63,1.13,2.79,2.79,0,0,1-1.07.73,4.06,4.06,0,0,1-1.5.26,4.2,4.2,0,0,1-1.45-.23,2.6,2.6,0,0,1-1-.67,2.71,2.71,0,0,1-.6-1.08,5.07,5.07,0,0,1-.2-1.47,4.81,4.81,0,0,1,.22-1.46,2.88,2.88,0,0,1,1.7-1.86,4.06,4.06,0,0,1,1.5-.26,4.2,4.2,0,0,1,1.45.23,2.6,2.6,0,0,1,1,.67,2.71,2.71,0,0,1,.6,1.08A5.11,5.11,0,0,1,57.33,92.92ZM55.52,93a4.39,4.39,0,0,0-.07-.84,2,2,0,0,0-.25-.68,1.24,1.24,0,0,0-.46-.45,1.61,1.61,0,0,0-.73-.16,1.52,1.52,0,0,0-.69.15,1.2,1.2,0,0,0-.48.42,2,2,0,0,0-.28.66,3.87,3.87,0,0,0-.1.88,4.46,4.46,0,0,0,.08.85,2,2,0,0,0,.25.68,1.14,1.14,0,0,0,.46.44,1.61,1.61,0,0,0,.73.16,1.49,1.49,0,0,0,.69-.15,1.13,1.13,0,0,0,.48-.41,1.8,1.8,0,0,0,.28-.66A3.94,3.94,0,0,0,55.52,93Z"/><path d="M62.65,95.61a3.32,3.32,0,0,1,0,.35,1.62,1.62,0,0,1-.06.22.19.19,0,0,1-.09.12.28.28,0,0,1-.13,0H58.28A.35.35,0,0,1,58,96.2a.63.63,0,0,1-.1-.41v-.32a1.69,1.69,0,0,1,0-.23,1.29,1.29,0,0,1,0-.19.82.82,0,0,1,.09-.19,1.79,1.79,0,0,1,.13-.22L60.5,91H58.29c-.09,0-.16-.06-.21-.17a1.22,1.22,0,0,1-.08-.54c0-.13,0-.25,0-.34a.53.53,0,0,1,.06-.21.19.19,0,0,1,.09-.12.25.25,0,0,1,.13,0H62.1a.39.39,0,0,1,.16,0,.24.24,0,0,1,.12.07.48.48,0,0,1,.07.16,1.44,1.44,0,0,1,0,.24v.34a1.85,1.85,0,0,1,0,.25,1,1,0,0,1-.12.4,2.39,2.39,0,0,1-.13.21l-2.31,3.6h2.45a.21.21,0,0,1,.12,0,.24.24,0,0,1,.1.1,1.42,1.42,0,0,1,.06.21A3.32,3.32,0,0,1,62.65,95.61Z"/><path d="M68.14,95.1a2.63,2.63,0,0,1,0,.3,1.06,1.06,0,0,1,0,.21,1.09,1.09,0,0,1,0,.14.45.45,0,0,1-.1.13l-.29.2a4,4,0,0,1-.46.2,4.14,4.14,0,0,1-.56.15,3.28,3.28,0,0,1-.63,0,3.35,3.35,0,0,1-1.27-.22,2.51,2.51,0,0,1-.94-.66,3,3,0,0,1-.57-1.06,5.23,5.23,0,0,1-.19-1.44,4.85,4.85,0,0,1,.24-1.62,3.05,3.05,0,0,1,.65-1.13,2.54,2.54,0,0,1,1-.66,3.49,3.49,0,0,1,1.81-.17,3.65,3.65,0,0,1,.5.13,2.76,2.76,0,0,1,.42.19,1.39,1.39,0,0,1,.26.18l.11.13a.46.46,0,0,1,0,.14c0,.06,0,.12,0,.2s0,.19,0,.3a1.79,1.79,0,0,1-.07.57c0,.11-.11.16-.18.16a.48.48,0,0,1-.26-.09l-.31-.22a2.87,2.87,0,0,0-.43-.22,1.8,1.8,0,0,0-.6-.09,1.19,1.19,0,0,0-1,.52A2.77,2.77,0,0,0,64.85,93a3.41,3.41,0,0,0,.1.89,2.09,2.09,0,0,0,.26.64,1.2,1.2,0,0,0,.45.39,1.54,1.54,0,0,0,.63.13,1.64,1.64,0,0,0,.62-.11,2.2,2.2,0,0,0,.46-.24l.33-.24a.35.35,0,0,1,.22-.11.2.2,0,0,1,.11,0,.32.32,0,0,1,.06.13,1.5,1.5,0,0,1,0,.24C68.14,94.82,68.14,95,68.14,95.1Z"/><path d="M75.36,92.92a4.75,4.75,0,0,1-.21,1.45,3.12,3.12,0,0,1-.63,1.13,2.87,2.87,0,0,1-1.07.73,4.08,4.08,0,0,1-1.51.26,4.18,4.18,0,0,1-1.44-.23,2.6,2.6,0,0,1-1-.67,2.71,2.71,0,0,1-.6-1.08,5.07,5.07,0,0,1-.2-1.47,4.52,4.52,0,0,1,.22-1.46,3,3,0,0,1,.64-1.13,2.91,2.91,0,0,1,1.06-.73,4.06,4.06,0,0,1,1.5-.26,4.2,4.2,0,0,1,1.45.23,2.6,2.6,0,0,1,1,.67,2.69,2.69,0,0,1,.59,1.08A5.1,5.1,0,0,1,75.36,92.92ZM73.55,93a4.39,4.39,0,0,0-.07-.84,2,2,0,0,0-.25-.68,1.32,1.32,0,0,0-.46-.45,1.61,1.61,0,0,0-.73-.16,1.49,1.49,0,0,0-.69.15,1.2,1.2,0,0,0-.48.42,1.8,1.8,0,0,0-.28.66,3.38,3.38,0,0,0-.1.88,4.46,4.46,0,0,0,.08.85,2,2,0,0,0,.25.68,1.14,1.14,0,0,0,.46.44,1.61,1.61,0,0,0,.73.16,1.52,1.52,0,0,0,.69-.15,1.19,1.19,0,0,0,.48-.41,1.8,1.8,0,0,0,.28-.66A3.94,3.94,0,0,0,73.55,93Z"/><path d="M85.32,96.09a.28.28,0,0,1,0,.13.32.32,0,0,1-.13.08.61.61,0,0,1-.23,0,1.84,1.84,0,0,1-.36,0,2,2,0,0,1-.37,0,.66.66,0,0,1-.23,0,.36.36,0,0,1-.12-.08.28.28,0,0,1,0-.13v-.72a3.87,3.87,0,0,1-1,.84,2.34,2.34,0,0,1-1.11.28,2.48,2.48,0,0,1-1.08-.21,1.87,1.87,0,0,1-.7-.57,2.32,2.32,0,0,1-.39-.84,5.07,5.07,0,0,1-.11-1.19V89.86a.27.27,0,0,1,0-.12.49.49,0,0,1,.15-.09,1.19,1.19,0,0,1,.27-.05l.42,0,.43,0a1.2,1.2,0,0,1,.26.05.49.49,0,0,1,.15.09.19.19,0,0,1,0,.12v3.52a3.51,3.51,0,0,0,.06.75,1.36,1.36,0,0,0,.19.44.91.91,0,0,0,.33.29,1,1,0,0,0,.47.1,1.15,1.15,0,0,0,.67-.24,3.75,3.75,0,0,0,.72-.72V89.86a.28.28,0,0,1,0-.12.42.42,0,0,1,.14-.09A1.46,1.46,0,0,1,84,89.6l.43,0,.42,0a1.31,1.31,0,0,1,.27.05.56.56,0,0,1,.14.09.19.19,0,0,1,0,.12Z"/><path d="M92.75,96.09a.2.2,0,0,1,0,.13.3.3,0,0,1-.14.08.81.81,0,0,1-.27,0,2.56,2.56,0,0,1-.42,0,2.69,2.69,0,0,1-.43,0,.93.93,0,0,1-.27,0,.37.37,0,0,1-.14-.08.2.2,0,0,1,0-.13V92.54a2.68,2.68,0,0,0-.07-.71,1.42,1.42,0,0,0-.19-.45.79.79,0,0,0-.32-.28A1,1,0,0,0,90,91a1.21,1.21,0,0,0-.68.25,3.94,3.94,0,0,0-.71.71v4.14a.2.2,0,0,1,0,.13.37.37,0,0,1-.14.08.93.93,0,0,1-.27,0,2.69,2.69,0,0,1-.43,0,2.56,2.56,0,0,1-.42,0,.81.81,0,0,1-.27,0,.35.35,0,0,1-.15-.08.28.28,0,0,1,0-.13V89.86a.19.19,0,0,1,0-.12.31.31,0,0,1,.12-.09,1.11,1.11,0,0,1,.24-.05l.36,0,.37,0a.9.9,0,0,1,.22.05.41.41,0,0,1,.12.09.27.27,0,0,1,0,.12v.72a4.3,4.3,0,0,1,1-.84,2.58,2.58,0,0,1,2.19-.07,1.91,1.91,0,0,1,.71.57,2.28,2.28,0,0,1,.38.85,4.78,4.78,0,0,1,.12,1.15Z"/><path d="M103.41,92.89a5.82,5.82,0,0,1-.18,1.5,3.37,3.37,0,0,1-.52,1.13,2.36,2.36,0,0,1-.85.72,2.58,2.58,0,0,1-1.17.25,2.65,2.65,0,0,1-.5,0,2.6,2.6,0,0,1-.44-.16,2.47,2.47,0,0,1-.42-.27,4.7,4.7,0,0,1-.43-.38v2.94a.28.28,0,0,1,0,.12.36.36,0,0,1-.15.1l-.27.06-.42,0-.43,0-.27-.06a.39.39,0,0,1-.14-.1.19.19,0,0,1,0-.12V89.86a.27.27,0,0,1,0-.12.48.48,0,0,1,.13-.09.89.89,0,0,1,.23-.05l.36,0,.35,0,.23.05a.31.31,0,0,1,.12.09.28.28,0,0,1,0,.12v.74c.18-.19.36-.35.53-.5a2.92,2.92,0,0,1,.54-.35,2.25,2.25,0,0,1,.56-.22,3,3,0,0,1,.62-.07,2.19,2.19,0,0,1,2,1,3.33,3.33,0,0,1,.44,1.09A6.24,6.24,0,0,1,103.41,92.89Zm-1.83.12a4.68,4.68,0,0,0-.06-.76,2.36,2.36,0,0,0-.2-.65,1.16,1.16,0,0,0-.38-.46.91.91,0,0,0-.58-.17,1.06,1.06,0,0,0-.35,0,1.25,1.25,0,0,0-.35.17,2,2,0,0,0-.36.31,3.35,3.35,0,0,0-.4.47v2a4.4,4.4,0,0,0,.7.72,1.17,1.17,0,0,0,.7.26,1,1,0,0,0,.59-.18,1.26,1.26,0,0,0,.39-.46,2.3,2.3,0,0,0,.23-.64A3.35,3.35,0,0,0,101.58,93Z"/><path d="M110.83,92.92a4.75,4.75,0,0,1-.21,1.45A3,3,0,0,1,110,95.5a2.72,2.72,0,0,1-1.07.73,4,4,0,0,1-1.5.26,4.18,4.18,0,0,1-1.44-.23,2.6,2.6,0,0,1-1-.67,2.71,2.71,0,0,1-.6-1.08,5.07,5.07,0,0,1-.2-1.47,4.81,4.81,0,0,1,.21-1.46,3.29,3.29,0,0,1,.64-1.13,3,3,0,0,1,1.07-.73,4,4,0,0,1,1.5-.26,4.2,4.2,0,0,1,1.45.23,2.6,2.6,0,0,1,1,.67,2.82,2.82,0,0,1,.59,1.08A5.1,5.1,0,0,1,110.83,92.92ZM109,93a4.39,4.39,0,0,0-.07-.84,2.18,2.18,0,0,0-.25-.68,1.27,1.27,0,0,0-.47-.45,1.55,1.55,0,0,0-.73-.16,1.48,1.48,0,0,0-.68.15,1.08,1.08,0,0,0-.48.42,2,2,0,0,0-.29.66A3.91,3.91,0,0,0,106,93a4.46,4.46,0,0,0,.08.85,2,2,0,0,0,.25.68,1.09,1.09,0,0,0,.46.44,1.61,1.61,0,0,0,.73.16,1.52,1.52,0,0,0,.69-.15,1.26,1.26,0,0,0,.48-.41,2,2,0,0,0,.28-.66A3.94,3.94,0,0,0,109,93Z"/><path d="M116.65,95.1c0,.12,0,.22,0,.3s0,.16,0,.21a1.27,1.27,0,0,1,0,.14l-.11.13a1.94,1.94,0,0,1-.29.2,3.34,3.34,0,0,1-.46.2,4.14,4.14,0,0,1-.56.15,3.22,3.22,0,0,1-.63,0,3.35,3.35,0,0,1-1.27-.22,2.39,2.39,0,0,1-.93-.66,2.71,2.71,0,0,1-.57-1.06,5.69,5.69,0,0,1,0-3.06,3.05,3.05,0,0,1,.65-1.13,2.54,2.54,0,0,1,1-.66,3.44,3.44,0,0,1,1.26-.22,3.27,3.27,0,0,1,1,.18,2.76,2.76,0,0,1,.42.19,1.39,1.39,0,0,1,.26.18l.11.13a.46.46,0,0,1,0,.14c0,.06,0,.12,0,.2a2.81,2.81,0,0,1,0,.3,1.54,1.54,0,0,1-.07.57c0,.11-.11.16-.18.16a.43.43,0,0,1-.25-.09l-.32-.22a2.45,2.45,0,0,0-.43-.22,1.8,1.8,0,0,0-.6-.09,1.19,1.19,0,0,0-1,.52,2.78,2.78,0,0,0-.36,1.55,3.94,3.94,0,0,0,.09.89,1.87,1.87,0,0,0,.27.64,1.17,1.17,0,0,0,.44.39,1.54,1.54,0,0,0,.63.13,1.64,1.64,0,0,0,.62-.11,2.2,2.2,0,0,0,.46-.24l.33-.24a.35.35,0,0,1,.22-.11.18.18,0,0,1,.11,0,.23.23,0,0,1,.06.13,1.5,1.5,0,0,1,0,.24A3.79,3.79,0,0,1,116.65,95.1Z"/><path d="M123.86,92.92a4.75,4.75,0,0,1-.21,1.45A3.12,3.12,0,0,1,123,95.5a2.79,2.79,0,0,1-1.07.73,4.06,4.06,0,0,1-1.5.26,4.2,4.2,0,0,1-1.45-.23,2.6,2.6,0,0,1-1-.67,2.71,2.71,0,0,1-.6-1.08,5.07,5.07,0,0,1-.2-1.47,4.81,4.81,0,0,1,.22-1.46,2.88,2.88,0,0,1,1.7-1.86,4.06,4.06,0,0,1,1.5-.26,4.2,4.2,0,0,1,1.45.23,2.6,2.6,0,0,1,1,.67,2.71,2.71,0,0,1,.6,1.08A5.11,5.11,0,0,1,123.86,92.92Zm-1.81.06a4.39,4.39,0,0,0-.07-.84,2,2,0,0,0-.25-.68,1.24,1.24,0,0,0-.46-.45,1.61,1.61,0,0,0-.73-.16,1.52,1.52,0,0,0-.69.15,1.2,1.2,0,0,0-.48.42,2,2,0,0,0-.28.66,3.87,3.87,0,0,0-.1.88,4.46,4.46,0,0,0,.08.85,2,2,0,0,0,.25.68,1.14,1.14,0,0,0,.46.44,1.61,1.61,0,0,0,.73.16,1.49,1.49,0,0,0,.69-.15,1.13,1.13,0,0,0,.48-.41,1.8,1.8,0,0,0,.28-.66A3.94,3.94,0,0,0,122.05,93Z"/><path d="M49.18,112.1l-.75,2.2a.5.5,0,0,1-.35.26,3.3,3.3,0,0,1-.81.07l-.45,0a.81.81,0,0,1-.25-.08.17.17,0,0,1-.09-.14.43.43,0,0,1,0-.21l.83-2.08a.48.48,0,0,1-.16-.13.52.52,0,0,1-.11-.19l-2.15-5.72a1.24,1.24,0,0,1-.09-.38.25.25,0,0,1,.09-.2.53.53,0,0,1,.28-.1,3.7,3.7,0,0,1,.53,0h.47a1.19,1.19,0,0,1,.27,0,.28.28,0,0,1,.15.13,1.28,1.28,0,0,1,.1.25L48.2,110h0l1.34-4.25a.45.45,0,0,1,.11-.24.41.41,0,0,1,.22-.09,3.16,3.16,0,0,1,.53,0,3.43,3.43,0,0,1,.5,0,.66.66,0,0,1,.3.1.26.26,0,0,1,.09.21,1.25,1.25,0,0,1-.05.3Z"/><path d="M56.77,111.86a.17.17,0,0,1-.05.12.21.21,0,0,1-.14.09,1.46,1.46,0,0,1-.27.05l-.42,0-.43,0a1.46,1.46,0,0,1-.27-.05.24.24,0,0,1-.14-.09.16.16,0,0,1,0-.12v-9.18a.2.2,0,0,1,0-.13.32.32,0,0,1,.14-.1,1.46,1.46,0,0,1,.27,0,2.46,2.46,0,0,1,.43,0,2.42,2.42,0,0,1,.42,0,1.46,1.46,0,0,1,.27,0,.27.27,0,0,1,.14.1.21.21,0,0,1,.05.13Z"/><path d="M64,108.56a.71.71,0,0,1-.14.48.54.54,0,0,1-.4.15H59.66a2.63,2.63,0,0,0,.09.72,1.67,1.67,0,0,0,.3.56,1.38,1.38,0,0,0,.53.34,2.28,2.28,0,0,0,.78.12,3.88,3.88,0,0,0,.81-.07,5.11,5.11,0,0,0,.61-.14c.17-.06.31-.1.42-.15a.89.89,0,0,1,.27-.07.2.2,0,0,1,.11,0,.23.23,0,0,1,.07.09.65.65,0,0,1,0,.17,2.33,2.33,0,0,1,0,.29c0,.11,0,.19,0,.27s0,.13,0,.18a1,1,0,0,1,0,.13.39.39,0,0,1-.08.1.74.74,0,0,1-.25.13,2.75,2.75,0,0,1-.51.17c-.21,0-.45.1-.72.14a5.94,5.94,0,0,1-.87.06,4.52,4.52,0,0,1-1.45-.21,2.5,2.5,0,0,1-1.67-1.71,5,5,0,0,1-.21-1.53,4.62,4.62,0,0,1,.22-1.49,3,3,0,0,1,.63-1.14,2.66,2.66,0,0,1,1-.7,3.29,3.29,0,0,1,1.33-.25,3.57,3.57,0,0,1,1.34.23,2.53,2.53,0,0,1,.91.64,2.67,2.67,0,0,1,.52,1,4.26,4.26,0,0,1,.17,1.21Zm-1.71-.5A1.78,1.78,0,0,0,62,106.9a1.16,1.16,0,0,0-1-.43,1.35,1.35,0,0,0-.59.13,1.23,1.23,0,0,0-.41.34,1.56,1.56,0,0,0-.25.5,2.51,2.51,0,0,0-.1.62Z"/><path d="M69.53,110.1a2.19,2.19,0,0,1-.19.94,1.84,1.84,0,0,1-.57.67,2.45,2.45,0,0,1-.86.41,4,4,0,0,1-1.07.14,4.8,4.8,0,0,1-.67-.05,4,4,0,0,1-.57-.14,3.76,3.76,0,0,1-.42-.16,1.09,1.09,0,0,1-.24-.16.49.49,0,0,1-.12-.23,1.81,1.81,0,0,1,0-.46,3,3,0,0,1,0-.33c0-.08,0-.14,0-.19a.21.21,0,0,1,.07-.1.2.2,0,0,1,.11,0,.52.52,0,0,1,.23.09l.37.19a3.78,3.78,0,0,0,.52.2,2.31,2.31,0,0,0,.67.09,1.88,1.88,0,0,0,.43,0,1,1,0,0,0,.32-.14.55.55,0,0,0,.2-.23.66.66,0,0,0,.07-.32.52.52,0,0,0-.13-.36,1,1,0,0,0-.34-.26,2.67,2.67,0,0,0-.48-.21l-.55-.22a5.6,5.6,0,0,1-.55-.27,2.22,2.22,0,0,1-.49-.38,1.84,1.84,0,0,1-.34-.54,2.1,2.1,0,0,1-.13-.75,1.86,1.86,0,0,1,.18-.82,1.72,1.72,0,0,1,.5-.64,2.42,2.42,0,0,1,.8-.41,3.48,3.48,0,0,1,1.06-.15,5.46,5.46,0,0,1,.57,0l.5.11a3.07,3.07,0,0,1,.37.13.78.78,0,0,1,.22.13.46.46,0,0,1,.1.1.5.5,0,0,1,0,.13l0,.18c0,.07,0,.16,0,.27s0,.23,0,.31a.78.78,0,0,1,0,.19.22.22,0,0,1-.07.09.14.14,0,0,1-.09,0,.48.48,0,0,1-.2-.08l-.33-.15a3.5,3.5,0,0,0-.46-.16,2.23,2.23,0,0,0-.6-.08,1.58,1.58,0,0,0-.41,0,1,1,0,0,0-.29.14.62.62,0,0,0-.17.22.75.75,0,0,0,0,.26.52.52,0,0,0,.13.36,1.39,1.39,0,0,0,.35.26l.49.21c.19.06.37.14.56.21a5.77,5.77,0,0,1,.56.27,2,2,0,0,1,.49.38,1.75,1.75,0,0,1,.35.53A1.88,1.88,0,0,1,69.53,110.1Z"/><path d="M79.79,108.65a5.71,5.71,0,0,1-.18,1.5,3.42,3.42,0,0,1-.52,1.14,2.36,2.36,0,0,1-.85.72,2.72,2.72,0,0,1-1.17.25,2.57,2.57,0,0,1-.5-.05,1.82,1.82,0,0,1-.44-.17,3.19,3.19,0,0,1-.42-.26c-.14-.11-.28-.24-.43-.38v2.93a.28.28,0,0,1,0,.13.27.27,0,0,1-.15.09.9.9,0,0,1-.27.06,2.56,2.56,0,0,1-.42,0,2.69,2.69,0,0,1-.43,0,.9.9,0,0,1-.27-.06.24.24,0,0,1-.14-.09.2.2,0,0,1,0-.13v-8.7a.21.21,0,0,1,0-.12.27.27,0,0,1,.12-.09l.23,0,.36,0,.36,0,.23,0a.19.19,0,0,1,.12.09.21.21,0,0,1,0,.12v.73c.19-.18.36-.35.54-.49a3.54,3.54,0,0,1,.53-.36,3,3,0,0,1,.57-.21,2.43,2.43,0,0,1,.61-.07,2.35,2.35,0,0,1,1.17.27,2.33,2.33,0,0,1,.79.74,3.24,3.24,0,0,1,.44,1.09A6.14,6.14,0,0,1,79.79,108.65Zm-1.83.13a4.81,4.81,0,0,0-.06-.77,2.48,2.48,0,0,0-.2-.65,1.32,1.32,0,0,0-.38-.46,1,1,0,0,0-.58-.17,1.07,1.07,0,0,0-.35.06A1.25,1.25,0,0,0,76,107a2.38,2.38,0,0,0-.36.3,5.11,5.11,0,0,0-.4.47v2.06a4,4,0,0,0,.7.72,1.15,1.15,0,0,0,.7.25,1,1,0,0,0,.58-.17,1.27,1.27,0,0,0,.4-.46,2.42,2.42,0,0,0,.23-.64A4.27,4.27,0,0,0,78,108.78Z"/><path d="M86.82,111.86a.21.21,0,0,1,0,.12.19.19,0,0,1-.12.09l-.23.05-.36,0-.38,0a.9.9,0,0,1-.22-.05.19.19,0,0,1-.12-.09.21.21,0,0,1,0-.12v-.72a4,4,0,0,1-1,.84,2.4,2.4,0,0,1-1.1.28,2.48,2.48,0,0,1-1.08-.21,1.84,1.84,0,0,1-.71-.58,2.15,2.15,0,0,1-.38-.84,5,5,0,0,1-.12-1.19v-3.81a.16.16,0,0,1,0-.12.24.24,0,0,1,.14-.09,1.46,1.46,0,0,1,.27,0l.43,0,.42,0a1.46,1.46,0,0,1,.27,0,.21.21,0,0,1,.14.09.16.16,0,0,1,0,.12v3.52a3.45,3.45,0,0,0,.07.75,1.18,1.18,0,0,0,.19.44,1,1,0,0,0,.33.29,1.11,1.11,0,0,0,.46.1,1.12,1.12,0,0,0,.68-.25,4.3,4.3,0,0,0,.72-.71v-4.14a.16.16,0,0,1,0-.12.21.21,0,0,1,.14-.09,1.31,1.31,0,0,1,.27,0l.42,0,.43,0a1.2,1.2,0,0,1,.26,0,.21.21,0,0,1,.14.09.17.17,0,0,1,0,.12Z"/><path d="M94.05,108.56a.71.71,0,0,1-.14.48.54.54,0,0,1-.4.15H89.72a2.28,2.28,0,0,0,.1.72,1.38,1.38,0,0,0,.3.56,1.25,1.25,0,0,0,.53.34,2.21,2.21,0,0,0,.78.12,4,4,0,0,0,.81-.07,5.39,5.39,0,0,0,.6-.14c.17-.06.31-.1.42-.15a.94.94,0,0,1,.28-.07.18.18,0,0,1,.17.12.61.61,0,0,1,0,.17c0,.08,0,.18,0,.29a2.18,2.18,0,0,1,0,.27.9.9,0,0,1,0,.18.4.4,0,0,1,0,.13.36.36,0,0,1-.07.1,1.06,1.06,0,0,1-.25.13,3.17,3.17,0,0,1-.52.17c-.21,0-.45.1-.72.14a5.9,5.9,0,0,1-.86.06,4.59,4.59,0,0,1-1.46-.21,2.54,2.54,0,0,1-1-.64,2.75,2.75,0,0,1-.62-1.07,5,5,0,0,1-.21-1.53,4.91,4.91,0,0,1,.22-1.49,3,3,0,0,1,.63-1.14,2.74,2.74,0,0,1,1-.7,3.32,3.32,0,0,1,1.33-.25,3.57,3.57,0,0,1,1.34.23,2.4,2.4,0,0,1,1.43,1.61,3.93,3.93,0,0,1,.17,1.21Zm-1.7-.5a1.84,1.84,0,0,0-.3-1.16,1.16,1.16,0,0,0-1-.43,1.31,1.31,0,0,0-.58.13,1.17,1.17,0,0,0-.42.34,1.56,1.56,0,0,0-.25.5,2.51,2.51,0,0,0-.1.62Z"/><path d="M101.12,111.86a.28.28,0,0,1,0,.13l-.12.09a1,1,0,0,1-.23,0H100a.9.9,0,0,1-.22,0,.48.48,0,0,1-.13-.09.28.28,0,0,1,0-.13v-.69a3.91,3.91,0,0,1-1,.8,2.42,2.42,0,0,1-1.17.29,2.37,2.37,0,0,1-1.2-.28,2.19,2.19,0,0,1-.8-.74,3.11,3.11,0,0,1-.45-1.1,5.54,5.54,0,0,1-.14-1.31,5.78,5.78,0,0,1,.17-1.5,3.57,3.57,0,0,1,.52-1.13,2.39,2.39,0,0,1,.86-.72,2.58,2.58,0,0,1,1.17-.25,2.11,2.11,0,0,1,1,.21,3.35,3.35,0,0,1,.84.63V102.7a.28.28,0,0,1,0-.13.24.24,0,0,1,.14-.09.9.9,0,0,1,.27-.06,2.69,2.69,0,0,1,.43,0,2.56,2.56,0,0,1,.42,0,.83.83,0,0,1,.27.06.28.28,0,0,1,.14.09.2.2,0,0,1,0,.13Zm-1.75-4.16a3.83,3.83,0,0,0-.72-.73,1.19,1.19,0,0,0-.72-.25,1,1,0,0,0-.59.17,1.2,1.2,0,0,0-.4.46,2.41,2.41,0,0,0-.22.64,3.38,3.38,0,0,0-.08.72,3.84,3.84,0,0,0,.07.76,2.44,2.44,0,0,0,.2.66,1.36,1.36,0,0,0,.38.47,1,1,0,0,0,.6.17,1.49,1.49,0,0,0,.36,0,1.6,1.6,0,0,0,.35-.17,3.16,3.16,0,0,0,.36-.31,4.22,4.22,0,0,0,.41-.48Z"/><path d="M108.9,108.68a4.7,4.7,0,0,1-.21,1.45,3.16,3.16,0,0,1-.63,1.14A2.91,2.91,0,0,1,107,112a4.06,4.06,0,0,1-1.5.26A4.2,4.2,0,0,1,104,112a2.71,2.71,0,0,1-1-.67,2.82,2.82,0,0,1-.6-1.09,5,5,0,0,1-.2-1.46,4.52,4.52,0,0,1,.22-1.46,2.92,2.92,0,0,1,.64-1.13,2.87,2.87,0,0,1,1.06-.73,4.06,4.06,0,0,1,1.5-.26,4.2,4.2,0,0,1,1.45.23,2.49,2.49,0,0,1,1,.67,2.71,2.71,0,0,1,.6,1.08A5.09,5.09,0,0,1,108.9,108.68Zm-1.81.07a4.5,4.5,0,0,0-.07-.85,1.91,1.91,0,0,0-.25-.67,1.32,1.32,0,0,0-.46-.45,1.61,1.61,0,0,0-.73-.16,1.67,1.67,0,0,0-.69.14,1.38,1.38,0,0,0-.48.42,1.93,1.93,0,0,0-.28.67,3.38,3.38,0,0,0-.1.88,4.46,4.46,0,0,0,.08.85,1.91,1.91,0,0,0,.25.67,1.24,1.24,0,0,0,.46.45,1.61,1.61,0,0,0,.73.15,1.52,1.52,0,0,0,.69-.14,1.13,1.13,0,0,0,.48-.41,2,2,0,0,0,.28-.66A4,4,0,0,0,107.09,108.75Z"/><path d="M45.19,126.64a2.63,2.63,0,0,1,0,.3.94.94,0,0,1,0,.2.39.39,0,0,1,0,.14.3.3,0,0,1-.11.13,1.28,1.28,0,0,1-.28.2,2.78,2.78,0,0,1-.46.21,4.19,4.19,0,0,1-1.19.2,3.4,3.4,0,0,1-1.28-.23,2.27,2.27,0,0,1-.93-.65,3,3,0,0,1-.57-1.07,4.88,4.88,0,0,1-.19-1.44,5.23,5.23,0,0,1,.23-1.62,3.08,3.08,0,0,1,.66-1.12,2.68,2.68,0,0,1,1-.67,3.62,3.62,0,0,1,1.26-.21,2.41,2.41,0,0,1,.54,0,2.72,2.72,0,0,1,.51.13,2.68,2.68,0,0,1,.42.19,1.39,1.39,0,0,1,.26.18.58.58,0,0,1,.11.13.89.89,0,0,1,.05.13,1.25,1.25,0,0,1,0,.21,2.63,2.63,0,0,1,0,.3,1.45,1.45,0,0,1-.07.56c0,.11-.1.17-.18.17a.4.4,0,0,1-.25-.1l-.31-.22a2.59,2.59,0,0,0-.44-.21,1.51,1.51,0,0,0-.6-.1,1.19,1.19,0,0,0-1,.53,2.67,2.67,0,0,0-.37,1.55,3.84,3.84,0,0,0,.09.88,1.79,1.79,0,0,0,.27.64,1,1,0,0,0,.45.39,1.38,1.38,0,0,0,.62.13,1.51,1.51,0,0,0,.63-.11,2.48,2.48,0,0,0,.46-.24l.33-.24a.38.38,0,0,1,.22-.11.12.12,0,0,1,.1,0,.22.22,0,0,1,.07.13,1.19,1.19,0,0,1,0,.24C45.19,126.36,45.19,126.48,45.19,126.64Z"/><path d="M52.41,124.45a4.75,4.75,0,0,1-.21,1.45,2.92,2.92,0,0,1-.64,1.13,2.74,2.74,0,0,1-1.07.74A4,4,0,0,1,49,128a4,4,0,0,1-1.44-.23,2.49,2.49,0,0,1-1-.67,2.71,2.71,0,0,1-.6-1.08,5.07,5.07,0,0,1-.2-1.47,4.75,4.75,0,0,1,.21-1.45,3.2,3.2,0,0,1,.64-1.13,2.79,2.79,0,0,1,1.07-.73,4.57,4.57,0,0,1,3,0,2.47,2.47,0,0,1,1,.66,2.82,2.82,0,0,1,.6,1.09A5,5,0,0,1,52.41,124.45Zm-1.81.07a5.51,5.51,0,0,0-.07-.85,2.12,2.12,0,0,0-.25-.67,1.27,1.27,0,0,0-.47-.45,1.44,1.44,0,0,0-.73-.16,1.59,1.59,0,0,0-.68.14,1.22,1.22,0,0,0-.48.42,2.2,2.2,0,0,0-.29.66,4,4,0,0,0-.09.89,3.78,3.78,0,0,0,.08.85,2.21,2.21,0,0,0,.24.67,1.17,1.17,0,0,0,.47.44,1.46,1.46,0,0,0,.73.16,1.67,1.67,0,0,0,.69-.14,1.38,1.38,0,0,0,.48-.42,2,2,0,0,0,.28-.66A3.91,3.91,0,0,0,50.6,124.52Z"/><path d="M59.46,127.63a.19.19,0,0,1,0,.12.42.42,0,0,1-.14.09,1.19,1.19,0,0,1-.27,0l-.42,0-.43,0a1.46,1.46,0,0,1-.27,0,.56.56,0,0,1-.14-.09.19.19,0,0,1,0-.12v-3.56a2.68,2.68,0,0,0-.07-.71,1.36,1.36,0,0,0-.19-.44.81.81,0,0,0-.32-.29,1,1,0,0,0-.47-.1,1.2,1.2,0,0,0-.68.24,4,4,0,0,0-.71.72v4.14a.19.19,0,0,1,0,.12.56.56,0,0,1-.14.09,1.46,1.46,0,0,1-.27,0l-.43,0-.42,0a1.19,1.19,0,0,1-.27,0,.49.49,0,0,1-.15-.09.28.28,0,0,1,0-.12V121.4a.2.2,0,0,1,0-.13.23.23,0,0,1,.12-.08.72.72,0,0,1,.24,0,1.84,1.84,0,0,1,.36,0,2.06,2.06,0,0,1,.37,0,.6.6,0,0,1,.22,0,.28.28,0,0,1,.12.08.28.28,0,0,1,0,.13v.72a3.87,3.87,0,0,1,1.05-.84,2.35,2.35,0,0,1,1.12-.28,2.46,2.46,0,0,1,1.07.21,1.91,1.91,0,0,1,.71.57,2.31,2.31,0,0,1,.38.84,4.87,4.87,0,0,1,.12,1.16Z"/><path d="M64.46,127a2.55,2.55,0,0,1,0,.47.55.55,0,0,1-.1.23.52.52,0,0,1-.19.12,1.1,1.1,0,0,1-.29.09,1.7,1.7,0,0,1-.35.06,2.55,2.55,0,0,1-.39,0,2.77,2.77,0,0,1-.91-.13,1.5,1.5,0,0,1-.63-.41,1.64,1.64,0,0,1-.37-.69,3.63,3.63,0,0,1-.12-1v-3.2h-.75a.21.21,0,0,1-.2-.16,1.45,1.45,0,0,1-.07-.55,1.72,1.72,0,0,1,0-.34.9.9,0,0,1,0-.22.27.27,0,0,1,.09-.12.21.21,0,0,1,.12,0h.74v-1.39a.2.2,0,0,1,0-.13.33.33,0,0,1,.14-.09,1.1,1.1,0,0,1,.27-.06h.85a1.22,1.22,0,0,1,.27.06.56.56,0,0,1,.14.09.2.2,0,0,1,0,.13v1.39h1.36a.27.27,0,0,1,.12,0,.62.62,0,0,1,.09.12.9.9,0,0,1,0,.22,3.11,3.11,0,0,1,0,.34,1.69,1.69,0,0,1-.07.55.23.23,0,0,1-.21.16H62.82v2.93a1.45,1.45,0,0,0,.16.77.63.63,0,0,0,.58.25l.25,0,.2-.06.14-.06.11,0,.08,0a.14.14,0,0,1,.06.1c0,.05,0,.12,0,.2A2.58,2.58,0,0,1,64.46,127Z"/><path d="M70.61,127.65a.18.18,0,0,1-.07.15.41.41,0,0,1-.22.08,2.44,2.44,0,0,1-.44,0,2.46,2.46,0,0,1-.46,0,.31.31,0,0,1-.2-.08.2.2,0,0,1-.06-.15v-.5a2.72,2.72,0,0,1-.88.64,2.45,2.45,0,0,1-1.09.23,3.23,3.23,0,0,1-.91-.12,2.08,2.08,0,0,1-.72-.39,1.76,1.76,0,0,1-.48-.63,2.16,2.16,0,0,1-.16-.88,2,2,0,0,1,.21-1,1.68,1.68,0,0,1,.64-.66,3.39,3.39,0,0,1,1-.39,7.82,7.82,0,0,1,1.46-.12h.6v-.38a2.44,2.44,0,0,0,0-.51.88.88,0,0,0-.2-.37.81.81,0,0,0-.36-.22,2.21,2.21,0,0,0-.57-.07,3.08,3.08,0,0,0-.78.1,4.7,4.7,0,0,0-.61.22l-.45.21a.56.56,0,0,1-.29.1.17.17,0,0,1-.13,0,.39.39,0,0,1-.1-.14.64.64,0,0,1-.06-.22,2.64,2.64,0,0,1,0-.29,1.62,1.62,0,0,1,0-.35.52.52,0,0,1,.14-.22,1.39,1.39,0,0,1,.34-.23,4,4,0,0,1,.57-.22,6.31,6.31,0,0,1,.72-.18,5.19,5.19,0,0,1,.8-.06,5,5,0,0,1,1.25.14,2.19,2.19,0,0,1,.86.44,1.79,1.79,0,0,1,.49.77,3.63,3.63,0,0,1,.15,1.11ZM68.88,125h-.67a3.73,3.73,0,0,0-.72.06,1.39,1.39,0,0,0-.49.19.75.75,0,0,0-.28.31.84.84,0,0,0-.08.4.81.81,0,0,0,.24.62,1,1,0,0,0,.69.22,1.25,1.25,0,0,0,.68-.19,2.58,2.58,0,0,0,.63-.55Z"/><path d="M76.08,122c0,.16,0,.3,0,.41a.76.76,0,0,1,0,.25.32.32,0,0,1-.07.13.21.21,0,0,1-.12,0l-.12,0-.16-.06-.19,0-.23,0a.72.72,0,0,0-.29.06,1.45,1.45,0,0,0-.31.18,3.64,3.64,0,0,0-.33.34q-.17.21-.36.51v3.89a.21.21,0,0,1,0,.12.33.33,0,0,1-.14.09,1.46,1.46,0,0,1-.27,0l-.42,0-.43,0a1.46,1.46,0,0,1-.27,0,.42.42,0,0,1-.14-.09.19.19,0,0,1,0-.12V121.4a.28.28,0,0,1,0-.13.26.26,0,0,1,.13-.08.71.71,0,0,1,.23,0,1.94,1.94,0,0,1,.36,0,2,2,0,0,1,.37,0,.66.66,0,0,1,.23,0,.24.24,0,0,1,.11.08.2.2,0,0,1,0,.13v.77a4.2,4.2,0,0,1,.46-.57,1.85,1.85,0,0,1,.41-.36,1.4,1.4,0,0,1,.39-.19,1.74,1.74,0,0,1,.39,0h.2l.22,0,.19.06a.22.22,0,0,1,.12.07.19.19,0,0,1,.06.07,1,1,0,0,1,0,.12,1.09,1.09,0,0,1,0,.22C76.08,121.68,76.08,121.81,76.08,122Z"/><path d="M81.58,127.63a.19.19,0,0,1,0,.12.42.42,0,0,1-.14.09,1.46,1.46,0,0,1-.27,0l-.43,0-.42,0a1.46,1.46,0,0,1-.27,0,.33.33,0,0,1-.14-.09.21.21,0,0,1-.05-.12v-9.19a.18.18,0,0,1,.05-.12.27.27,0,0,1,.14-.1l.27-.06.42,0,.43,0,.27.06a.32.32,0,0,1,.14.1.17.17,0,0,1,0,.12Z"/><path d="M89.35,124.45a4.75,4.75,0,0,1-.21,1.45,3,3,0,0,1-.63,1.13,2.82,2.82,0,0,1-1.07.74,4.07,4.07,0,0,1-1.5.25,4,4,0,0,1-1.45-.23,2.49,2.49,0,0,1-1-.67,2.71,2.71,0,0,1-.6-1.08,5.07,5.07,0,0,1-.2-1.47,4.46,4.46,0,0,1,.22-1.45,2.92,2.92,0,0,1,.64-1.13,2.68,2.68,0,0,1,1.06-.73,4.06,4.06,0,0,1,1.5-.26,4,4,0,0,1,1.45.23,2.58,2.58,0,0,1,1,.66,3,3,0,0,1,.6,1.09A5,5,0,0,1,89.35,124.45Zm-1.81.07a4.5,4.5,0,0,0-.07-.85,1.91,1.91,0,0,0-.25-.67,1.32,1.32,0,0,0-.46-.45,1.49,1.49,0,0,0-.73-.16,1.67,1.67,0,0,0-.69.14,1.38,1.38,0,0,0-.48.42,2,2,0,0,0-.28.66,3.46,3.46,0,0,0-.1.89,4.46,4.46,0,0,0,.08.85,2,2,0,0,0,.25.67,1.14,1.14,0,0,0,.46.44,1.49,1.49,0,0,0,.73.16,1.67,1.67,0,0,0,.69-.14,1.22,1.22,0,0,0,.48-.42,1.8,1.8,0,0,0,.28-.66A3.91,3.91,0,0,0,87.54,124.52Z"/><path d="M99.31,130.1a.16.16,0,0,1,0,.12.39.39,0,0,1-.14.1,1.22,1.22,0,0,1-.27.06l-.42,0-.43,0a1.37,1.37,0,0,1-.27-.06.39.39,0,0,1-.14-.1.21.21,0,0,1,0-.12v-3c-.17.15-.34.29-.49.4a3,3,0,0,1-.48.28,2.81,2.81,0,0,1-.49.16,3,3,0,0,1-.53,0,2.41,2.41,0,0,1-1.17-.27,2.21,2.21,0,0,1-.78-.74,3.38,3.38,0,0,1-.44-1.1,5.54,5.54,0,0,1-.14-1.31,5.71,5.71,0,0,1,.18-1.5,3.38,3.38,0,0,1,.53-1.13,2.39,2.39,0,0,1,.86-.72A2.59,2.59,0,0,1,95.8,121a2.54,2.54,0,0,1,.49,0,2.34,2.34,0,0,1,.48.18,3.35,3.35,0,0,1,.49.34c.17.14.36.3.56.5v-.67a.28.28,0,0,1,0-.13.32.32,0,0,1,.13-.08.65.65,0,0,1,.22,0,2,2,0,0,1,.37,0,1.78,1.78,0,0,1,.35,0,.66.66,0,0,1,.23,0,.36.36,0,0,1,.12.08.28.28,0,0,1,0,.13Zm-1.74-6.64a4.44,4.44,0,0,0-.73-.72,1.19,1.19,0,0,0-.72-.25,1,1,0,0,0-.59.17,1.13,1.13,0,0,0-.4.46,2.47,2.47,0,0,0-.22.63,3.55,3.55,0,0,0-.08.73,4.77,4.77,0,0,0,.07.76,2.44,2.44,0,0,0,.2.66,1.34,1.34,0,0,0,.38.46,1,1,0,0,0,.6.18,1.09,1.09,0,0,0,.36-.06,1.25,1.25,0,0,0,.35-.17,2,2,0,0,0,.36-.31,4.15,4.15,0,0,0,.42-.47Z"/><path d="M106.7,127.63a.27.27,0,0,1,0,.12.48.48,0,0,1-.13.09.89.89,0,0,1-.23,0l-.36,0-.37,0a1,1,0,0,1-.23,0l-.12-.09a.27.27,0,0,1,0-.12v-.72a4.3,4.3,0,0,1-1,.84A2.45,2.45,0,0,1,103,128a2.48,2.48,0,0,1-1.08-.2,1.9,1.9,0,0,1-.7-.58,2.32,2.32,0,0,1-.39-.84,5.6,5.6,0,0,1-.11-1.19V121.4a.2.2,0,0,1,0-.13.26.26,0,0,1,.14-.08.81.81,0,0,1,.27,0,2.56,2.56,0,0,1,.42,0,2.75,2.75,0,0,1,.43,0,.93.93,0,0,1,.27,0,.37.37,0,0,1,.14.08.2.2,0,0,1,0,.13v3.52a3.47,3.47,0,0,0,.06.74,1.43,1.43,0,0,0,.2.45.79.79,0,0,0,.32.28,1,1,0,0,0,.47.11,1.16,1.16,0,0,0,.67-.25,3.66,3.66,0,0,0,.72-.71V121.4a.28.28,0,0,1,0-.13.37.37,0,0,1,.14-.08.93.93,0,0,1,.27,0,2.69,2.69,0,0,1,.43,0,2.56,2.56,0,0,1,.42,0,.87.87,0,0,1,.27,0,.37.37,0,0,1,.14.08.2.2,0,0,1,0,.13Z"/><path d="M113.94,124.33a.69.69,0,0,1-.15.48.5.5,0,0,1-.39.15h-3.79a2.68,2.68,0,0,0,.09.72,1.28,1.28,0,0,0,.3.55,1.3,1.3,0,0,0,.53.35,2.28,2.28,0,0,0,.78.12,4.66,4.66,0,0,0,1.42-.22l.42-.14a.67.67,0,0,1,.27-.07.15.15,0,0,1,.1,0,.11.11,0,0,1,.07.08.44.44,0,0,1,0,.18,2.53,2.53,0,0,1,0,.29v.26a1.76,1.76,0,0,0,0,.19.5.5,0,0,1-.05.13.3.3,0,0,1-.07.1.74.74,0,0,1-.25.13,3.77,3.77,0,0,1-.51.17c-.21,0-.45.1-.72.14a6,6,0,0,1-.87.05,4.64,4.64,0,0,1-1.46-.2,2.69,2.69,0,0,1-1-.64,2.62,2.62,0,0,1-.63-1.08,5.28,5.28,0,0,1-.2-1.52,4.73,4.73,0,0,1,.22-1.5,3.17,3.17,0,0,1,.62-1.13,2.8,2.8,0,0,1,1-.71A3.47,3.47,0,0,1,111,121a3.52,3.52,0,0,1,1.33.23,2.45,2.45,0,0,1,.92.64,2.59,2.59,0,0,1,.52,1,4.21,4.21,0,0,1,.17,1.21Zm-1.71-.5a1.81,1.81,0,0,0-.29-1.17,1.17,1.17,0,0,0-1-.42,1.21,1.21,0,0,0-.58.13,1.12,1.12,0,0,0-.41.34,1.56,1.56,0,0,0-.25.5,2.44,2.44,0,0,0-.1.62Z"/><path d="M71.06,141.63a2.13,2.13,0,0,1-.2.94,1.85,1.85,0,0,1-.56.68,2.54,2.54,0,0,1-.86.41,4.1,4.1,0,0,1-1.08.13,3.53,3.53,0,0,1-.66,0,4,4,0,0,1-.57-.13,3,3,0,0,1-.42-.17,1.09,1.09,0,0,1-.25-.15.45.45,0,0,1-.11-.23,1.81,1.81,0,0,1,0-.47,2.58,2.58,0,0,1,0-.32.77.77,0,0,1,0-.2.2.2,0,0,1,.07-.1l.1,0a.48.48,0,0,1,.23.09l.38.19a3.4,3.4,0,0,0,.52.19,2.26,2.26,0,0,0,.67.09,1.76,1.76,0,0,0,.42,0,1.19,1.19,0,0,0,.32-.14.66.66,0,0,0,.21-.23.7.7,0,0,0,.07-.33.52.52,0,0,0-.13-.36,1.33,1.33,0,0,0-.34-.26l-.48-.21-.56-.21a4.75,4.75,0,0,1-.55-.28,1.92,1.92,0,0,1-.48-.37,1.66,1.66,0,0,1-.34-.54,1.92,1.92,0,0,1-.13-.76,2,2,0,0,1,.17-.82,1.82,1.82,0,0,1,.51-.63,2.34,2.34,0,0,1,.8-.42,3.76,3.76,0,0,1,1.05-.14,3.48,3.48,0,0,1,.57,0l.5.1a3.14,3.14,0,0,1,.38.14,1,1,0,0,1,.22.13.21.21,0,0,1,.09.1.39.39,0,0,1,.05.13s0,.1,0,.18a2.1,2.1,0,0,1,0,.27,2.63,2.63,0,0,1,0,.3c0,.08,0,.15,0,.19a.2.2,0,0,1-.07.1l-.1,0a.4.4,0,0,1-.19-.07l-.34-.16a3,3,0,0,0-.46-.16,2.12,2.12,0,0,0-.59-.07,1.73,1.73,0,0,0-.42.05.74.74,0,0,0-.28.14.56.56,0,0,0-.17.21.58.58,0,0,0-.06.26.53.53,0,0,0,.14.37,1.45,1.45,0,0,0,.35.26,3.31,3.31,0,0,0,.49.2l.56.22a3.58,3.58,0,0,1,.56.27,2.18,2.18,0,0,1,.49.37,1.86,1.86,0,0,1,.35.54A1.8,1.8,0,0,1,71.06,141.63Z"/><path d="M77.85,140.1a.69.69,0,0,1-.14.47.51.51,0,0,1-.4.16H73.52a2.73,2.73,0,0,0,.09.72,1.53,1.53,0,0,0,.3.55,1.37,1.37,0,0,0,.54.35,2.18,2.18,0,0,0,.77.12,4.7,4.7,0,0,0,.81-.07,5,5,0,0,0,.61-.15l.42-.14a.67.67,0,0,1,.27-.07l.11,0a.22.22,0,0,1,.07.09.6.6,0,0,1,0,.18c0,.08,0,.17,0,.29s0,.19,0,.26,0,.13,0,.19a.5.5,0,0,1,0,.13l-.08.1a1.08,1.08,0,0,1-.24.13,3.25,3.25,0,0,1-.52.16,5.76,5.76,0,0,1-.72.14,5.94,5.94,0,0,1-.87.06,4.52,4.52,0,0,1-1.45-.21,2.64,2.64,0,0,1-1-.63,2.67,2.67,0,0,1-.62-1.08,4.94,4.94,0,0,1-.21-1.52,4.73,4.73,0,0,1,.22-1.5,3,3,0,0,1,.63-1.13,2.65,2.65,0,0,1,1-.71,3.5,3.5,0,0,1,1.33-.24,3.39,3.39,0,0,1,1.34.23,2.31,2.31,0,0,1,.91.64,2.48,2.48,0,0,1,.52,1,4.33,4.33,0,0,1,.17,1.22Zm-1.7-.5a1.85,1.85,0,0,0-.3-1.17,1.15,1.15,0,0,0-1-.42,1.22,1.22,0,0,0-.59.13,1.2,1.2,0,0,0-.41.33,1.62,1.62,0,0,0-.25.51,2.44,2.44,0,0,0-.1.62Zm-1-5.5a.49.49,0,0,1,.12-.13.45.45,0,0,1,.17-.08.93.93,0,0,1,.27,0h.39l.51,0a.8.8,0,0,1,.26.08.15.15,0,0,1,.08.13.37.37,0,0,1-.07.14l-1.36,1.62a.65.65,0,0,1-.11.12l-.14.07-.22,0-.34,0-.39,0a.57.57,0,0,1-.2-.07.12.12,0,0,1,0-.11.47.47,0,0,1,.07-.17Z"/><path d="M81,142.65a1.26,1.26,0,0,1-.22.85,1.12,1.12,0,0,1-.78.22,1.08,1.08,0,0,1-.76-.22,1.17,1.17,0,0,1-.21-.82,1.25,1.25,0,0,1,.21-.85,1.14,1.14,0,0,1,.78-.22,1,1,0,0,1,.76.22A1.17,1.17,0,0,1,81,142.65Zm3.24,0a1.26,1.26,0,0,1-.22.85,1.14,1.14,0,0,1-.78.22,1.09,1.09,0,0,1-.77-.22,1.17,1.17,0,0,1-.21-.82,1.19,1.19,0,0,1,.22-.85,1.09,1.09,0,0,1,.77-.22,1,1,0,0,1,.77.22A1.17,1.17,0,0,1,84.21,142.65Zm3.23,0a1.21,1.21,0,0,1-.22.85,1.09,1.09,0,0,1-.77.22,1.11,1.11,0,0,1-.77-.22,1.17,1.17,0,0,1-.21-.82,1.19,1.19,0,0,1,.22-.85,1.09,1.09,0,0,1,.77-.22,1.06,1.06,0,0,1,.77.22A1.17,1.17,0,0,1,87.44,142.65Z"/></svg>