<svg id="Capa_1" data-name="Capa 1" xmlns="http://www.w3.org/2000/svg" viewBox="0 0 170.32 108.72"><defs><style>.cls-1{opacity:0.3;}.cls-2{fill:#fff;}.cls-3{fill:#9c9fa2;}.cls-4{fill:#231f20;}</style></defs><path class="cls-1" d="M165.22,17.73c-7.38-11.28-24.6-7.3-37.76-7.32-2.36-.05-4.78-.14-7.24-.24C103,9.42,83.6,7.62,67.62,8.94a81.72,81.72,0,0,0-10.76,1.53C25.12,21.35,36.4,45.25,38.23,65.67,33.47,71.59,24.28,79,7.38,80.68c0,0,17,1.37,30.15,5.66.59,7.6,3.61,14.64,14.95,19.48a35.62,35.62,0,0,0,9.05,1c3.36.12,6.62.12,9.84.07s6.4-.17,9.58-.29c9.38-.78,18.84-.4,28.29,0l7.08.32c15.59-.41,36.73,6.35,45.34-7.92,11-17.27,3.91-38.3,6.51-57.54.26-2.12.52-4.22.68-6.3C169.32,29,168.91,23,165.22,17.73Z"/><path class="cls-2" d="M160.27,11.09c-7.38-11.28-24.6-7.3-37.76-7.32-2.35,0-4.77-.14-7.23-.24C98.05,2.78,78.66,1,62.67,2.3A82.2,82.2,0,0,0,51.91,3.83C24.05,13.38,29.35,33,32.29,51.42a14.72,14.72,0,0,1-6,14.25c-5.36,3.86-13,7.26-23.82,8.37a171.41,171.41,0,0,1,23.84,3.87,9.69,9.69,0,0,1,7.14,6.79c1.53,5.64,5.32,10.72,14.13,14.48a36,36,0,0,0,9.05,1c3.35.13,6.62.13,9.84.08s6.4-.17,9.58-.29c9.37-.78,18.84-.4,28.29,0l7.08.32c15.58-.41,36.72,6.35,45.33-7.92,11-17.27,3.92-38.3,6.52-57.54.26-2.12.51-4.22.67-6.3C164.37,22.37,164,16.4,160.27,11.09Z"/><path class="cls-3" d="M31.86,57.8A14.54,14.54,0,0,0,35.22,46c-1.69-10.63-4.15-21.63-.63-30.88-7.49,10.16-4.34,23.48-2.3,36.26A14.43,14.43,0,0,1,31.86,57.8Z"/><path class="cls-3" d="M114.31,95l-7.08-.32c-9.45-.44-18.91-.82-28.29,0-3.18.12-6.36.24-9.58.29s-6.49,0-9.84-.07a35.62,35.62,0,0,1-9.05-1C41.66,90,37.88,85,36.35,79.31a9.73,9.73,0,0,0-7.15-6.79c-3.85-1-7.74-1.69-11.24-2.26A54.44,54.44,0,0,1,2.43,74a171.41,171.41,0,0,1,23.84,3.87,9.69,9.69,0,0,1,7.14,6.79c1.53,5.64,5.32,10.72,14.13,14.48a36.49,36.49,0,0,0,9.05,1c3.35.12,6.62.12,9.84.07s6.4-.17,9.58-.29c9.37-.78,18.84-.4,28.29,0l7.08.32c15.58-.41,36.72,6.35,45.33-7.92a37,37,0,0,0,2.6-4.87C150.49,101.14,129.7,94.57,114.31,95Z"/><path class="cls-4" d="M135.66,102.51c-3.85,0-7.87-.33-11.84-.65a118.73,118.73,0,0,0-12.42-.6l-5.63-.26-1.52-.07c-10-.46-19.11-.79-28.16,0-3.09.12-6.33.24-9.65.3-3.59.06-6.82,0-9.89-.08A36.69,36.69,0,0,1,47.3,100l-.14,0C39,96.52,34.35,91.73,32.51,84.92c-.82-3-3.49-5-6.67-5.78C14.35,76.3,0,73.48-.08,73.47l4.3-.54c9.26-1,15.23-3.49,21.46-8a13.77,13.77,0,0,0,5.68-13.39c-.19-1.19-.38-2.37-.58-3.56-2.94-17.62-6-35.83,20.82-45l.11,0A83.9,83.9,0,0,1,62.59,1.4c12.19-1,26.3-.21,40,.56,4.24.24,8.62.49,12.78.67,2.66.11,5,.19,7.22.24,2.62,0,5.42-.15,8.37-.32,11.24-.64,24-1.36,30.15,8.05,4.09,5.89,4.2,12.44,3.77,18.06-.15,2.07-.41,4.18-.67,6.35-.9,6.65-.63,13.65-.37,20.42.49,12.78,1,26-6.28,37.48C152.8,100.72,144.67,102.51,135.66,102.51Zm-22.77-3.07c3.48,0,7.19.31,11.09.63,12.67,1,25.77,2.11,31.92-8.08,7-11,6.52-23.4,6-36.49-.27-6.85-.54-13.93.38-20.72.26-2.13.51-4.22.67-6.25.4-5.32.3-11.5-3.48-16.94v0C153.9,3,142.27,3.7,131,4.34c-3,.17-5.79.32-8.51.33-2.22,0-4.6-.13-7.27-.25-4.18-.18-8.57-.43-12.81-.67C88.85,3,74.8,2.2,62.75,3.19a83.34,83.34,0,0,0-10.58,1.5c-25.27,8.69-22.49,25.37-19.54,43,.2,1.2.39,2.39.58,3.58a15.55,15.55,0,0,1-6.4,15.1,46.23,46.23,0,0,1-17.58,7.5A161.21,161.21,0,0,1,26.5,77a10.64,10.64,0,0,1,7.82,7.43c1.68,6.22,6,10.62,13.53,13.86a35.29,35.29,0,0,0,8.73,1c3.07.11,6.28.13,9.83.07,3.3,0,6.53-.17,9.56-.29,9.13-.76,18.25-.43,28.37,0l1.52.07,5.56.25Z"/><path d="M56.72,39a2.35,2.35,0,0,1,0,.28c0,.07,0,.14,0,.19a.46.46,0,0,1,0,.14.58.58,0,0,1-.11.13,1.23,1.23,0,0,1-.27.2,4.1,4.1,0,0,1-.5.22,4.75,4.75,0,0,1-.68.18,5.12,5.12,0,0,1-.82.07,4.24,4.24,0,0,1-1.55-.27,3,3,0,0,1-1.18-.79,3.41,3.41,0,0,1-.75-1.32,6,6,0,0,1-.26-1.84,5.79,5.79,0,0,1,.29-1.9,4,4,0,0,1,.79-1.4,3.49,3.49,0,0,1,1.23-.85,4.08,4.08,0,0,1,1.58-.3,3.74,3.74,0,0,1,.68.06,5.26,5.26,0,0,1,.6.15,3.77,3.77,0,0,1,.49.22,1.34,1.34,0,0,1,.31.21.64.64,0,0,1,.12.15.53.53,0,0,1,0,.15.66.66,0,0,1,0,.21,2.82,2.82,0,0,1,0,.31,3.22,3.22,0,0,1,0,.33.65.65,0,0,1,0,.22.27.27,0,0,1-.07.12.15.15,0,0,1-.11,0,.49.49,0,0,1-.24-.11,4.36,4.36,0,0,0-.39-.26,4.24,4.24,0,0,0-.56-.25,2.32,2.32,0,0,0-.79-.11,1.85,1.85,0,0,0-.89.2,2,2,0,0,0-.67.59,2.63,2.63,0,0,0-.41.91,4.58,4.58,0,0,0-.15,1.22,4.43,4.43,0,0,0,.16,1.28,2.46,2.46,0,0,0,.43.89,1.8,1.8,0,0,0,.68.52,2.37,2.37,0,0,0,.9.17,2.59,2.59,0,0,0,.78-.1,4.67,4.67,0,0,0,.57-.24l.39-.24a.55.55,0,0,1,.24-.1.15.15,0,0,1,.1,0s0,0,.07.1a1.81,1.81,0,0,1,0,.22C56.71,38.75,56.72,38.88,56.72,39Z"/><path d="M61.3,34.84c0,.15,0,.28,0,.38s0,.17,0,.23a.22.22,0,0,1-.07.12.2.2,0,0,1-.11,0l-.12,0-.14,0-.18-.05-.21,0a.92.92,0,0,0-.28,0,1.75,1.75,0,0,0-.28.17,1.87,1.87,0,0,0-.3.32,4.33,4.33,0,0,0-.34.48v3.6a.18.18,0,0,1,0,.11.31.31,0,0,1-.14.09,1.18,1.18,0,0,1-.25,0,2.18,2.18,0,0,1-.39,0,2.36,2.36,0,0,1-.4,0l-.25,0a.33.33,0,0,1-.13-.09.14.14,0,0,1,0-.11V34.3a.24.24,0,0,1,0-.12.28.28,0,0,1,.12-.08,1,1,0,0,1,.22-.05h.68a.81.81,0,0,1,.21.05.21.21,0,0,1,.1.08.25.25,0,0,1,0,.12V35a4.66,4.66,0,0,1,.42-.54,2.21,2.21,0,0,1,.39-.33,1.18,1.18,0,0,1,.36-.17,1.12,1.12,0,0,1,.36,0h.18l.21,0,.18.05.11.06.05.07,0,.11a1,1,0,0,1,0,.21C61.3,34.56,61.3,34.68,61.3,34.84Z"/><path d="M67.23,37a.61.61,0,0,1-.13.44.46.46,0,0,1-.37.14H63.21a2.43,2.43,0,0,0,.09.68,1.27,1.27,0,0,0,.28.51,1.13,1.13,0,0,0,.49.32,2.18,2.18,0,0,0,.72.11,4.26,4.26,0,0,0,.76-.06,5.07,5.07,0,0,0,.56-.14l.39-.13a.6.6,0,0,1,.25-.07.17.17,0,0,1,.1,0,.1.1,0,0,1,.06.08.53.53,0,0,1,0,.16,2.1,2.1,0,0,1,0,.27,1.63,1.63,0,0,1,0,.24.9.9,0,0,1,0,.18.56.56,0,0,1,0,.12.47.47,0,0,1-.06.09.88.88,0,0,1-.23.12,3,3,0,0,1-.48.16c-.2,0-.42.09-.67.13a6.77,6.77,0,0,1-.81.05,4.27,4.27,0,0,1-1.35-.19,2.51,2.51,0,0,1-1-.59,2.54,2.54,0,0,1-.58-1,5.16,5.16,0,0,1,0-2.81,3,3,0,0,1,.59-1,2.5,2.5,0,0,1,.93-.66,3.17,3.17,0,0,1,1.23-.22,3.25,3.25,0,0,1,1.24.21,2.2,2.2,0,0,1,.85.59,2.62,2.62,0,0,1,.49.9,4.06,4.06,0,0,1,.15,1.13Zm-1.58-.47a1.71,1.71,0,0,0-.28-1.08,1.06,1.06,0,0,0-.91-.39,1.19,1.19,0,0,0-.54.12,1.15,1.15,0,0,0-.38.31,1.38,1.38,0,0,0-.23.47,2.13,2.13,0,0,0-.1.57Z"/><path d="M74.16,37.13a4.45,4.45,0,0,1-.2,1.35,2.71,2.71,0,0,1-.59,1.05,2.61,2.61,0,0,1-1,.68,3.71,3.71,0,0,1-1.39.24,3.85,3.85,0,0,1-1.34-.21,2.37,2.37,0,0,1-1-.63,2.51,2.51,0,0,1-.56-1A4.72,4.72,0,0,1,68,37.25a4.18,4.18,0,0,1,.2-1.36,2.88,2.88,0,0,1,.59-1,2.51,2.51,0,0,1,1-.68,3.68,3.68,0,0,1,1.39-.24,3.91,3.91,0,0,1,1.35.21,2.28,2.28,0,0,1,.94.62,2.51,2.51,0,0,1,.56,1A4.79,4.79,0,0,1,74.16,37.13Zm-1.68.07a3.87,3.87,0,0,0-.07-.79,1.75,1.75,0,0,0-.23-.63,1.13,1.13,0,0,0-.43-.41,1.6,1.6,0,0,0-1.31,0,1.13,1.13,0,0,0-.45.39,1.66,1.66,0,0,0-.26.62,3.37,3.37,0,0,0-.09.82,3.84,3.84,0,0,0,.07.78,2,2,0,0,0,.23.63,1.13,1.13,0,0,0,.43.41,1.4,1.4,0,0,0,.68.15,1.44,1.44,0,0,0,.64-.14,1.1,1.1,0,0,0,.45-.38,1.78,1.78,0,0,0,.25-.61A3.43,3.43,0,0,0,72.48,37.2Z"/><path d="M83.41,42.38a.15.15,0,0,1,0,.11.25.25,0,0,1-.13.09,1,1,0,0,1-.25.06l-.39,0-.4,0a1.15,1.15,0,0,1-.25-.06.25.25,0,0,1-.13-.09.2.2,0,0,1,0-.11V39.63c-.16.14-.31.26-.46.37a2.21,2.21,0,0,1-.44.26,1.83,1.83,0,0,1-.45.15,2.63,2.63,0,0,1-.49,0,2.07,2.07,0,0,1-1.09-.26,2.1,2.1,0,0,1-.73-.69,3,3,0,0,1-.41-1,5.43,5.43,0,0,1-.13-1.22,5.34,5.34,0,0,1,.17-1.39,3.19,3.19,0,0,1,.49-1.05,2.25,2.25,0,0,1,.8-.67,2.54,2.54,0,0,1,1.1-.23,1.75,1.75,0,0,1,.46,0,1.68,1.68,0,0,1,.44.16,2.91,2.91,0,0,1,.45.32,5.13,5.13,0,0,1,.53.47V34.3a.24.24,0,0,1,0-.12.28.28,0,0,1,.12-.08.81.81,0,0,1,.21-.05h.66a1,1,0,0,1,.22.05.31.31,0,0,1,.11.08.24.24,0,0,1,0,.12Zm-1.62-6.16a3.93,3.93,0,0,0-.67-.68,1.18,1.18,0,0,0-.68-.23.89.89,0,0,0-.54.16,1.08,1.08,0,0,0-.37.42,1.94,1.94,0,0,0-.21.6,2.93,2.93,0,0,0-.07.67,4.17,4.17,0,0,0,.06.71,2.18,2.18,0,0,0,.19.61,1.25,1.25,0,0,0,.35.43.93.93,0,0,0,.56.16,1.26,1.26,0,0,0,.33,0,1,1,0,0,0,.32-.16,1.75,1.75,0,0,0,.34-.29c.12-.12.25-.26.39-.43Z"/><path d="M90.27,40.08a.18.18,0,0,1,0,.11s-.06.06-.12.09a.87.87,0,0,1-.21,0,1.62,1.62,0,0,1-.33,0,1.73,1.73,0,0,1-.35,0,.87.87,0,0,1-.21,0s-.09-.05-.11-.09a.18.18,0,0,1,0-.11v-.67a3.57,3.57,0,0,1-1,.78,2.22,2.22,0,0,1-1,.26,2.29,2.29,0,0,1-1-.19,1.75,1.75,0,0,1-.66-.54,2.14,2.14,0,0,1-.35-.78,4.79,4.79,0,0,1-.11-1.1V34.3a.17.17,0,0,1,0-.12.22.22,0,0,1,.13-.08,1.09,1.09,0,0,1,.25-.05H86l.25.05a.32.32,0,0,1,.13.08.17.17,0,0,1,0,.12v3.26a3.06,3.06,0,0,0,.06.7,1.19,1.19,0,0,0,.18.41.86.86,0,0,0,.3.27,1,1,0,0,0,.43.09A1,1,0,0,0,88,38.8a3.73,3.73,0,0,0,.67-.66V34.3a.24.24,0,0,1,0-.12.32.32,0,0,1,.13-.08l.25-.05h.79a1.09,1.09,0,0,1,.25.05.32.32,0,0,1,.13.08.17.17,0,0,1,0,.12Z"/><path d="M97,37a.66.66,0,0,1-.13.44.46.46,0,0,1-.37.14H93a2.43,2.43,0,0,0,.09.68,1.25,1.25,0,0,0,.27.51,1.23,1.23,0,0,0,.5.32,2.18,2.18,0,0,0,.72.11,4.06,4.06,0,0,0,.75-.06,4.14,4.14,0,0,0,.56-.14l.4-.13a.56.56,0,0,1,.25-.07.17.17,0,0,1,.1,0,.18.18,0,0,1,.06.08.53.53,0,0,1,0,.16c0,.07,0,.16,0,.27s0,.18,0,.24a.9.9,0,0,1,0,.18.56.56,0,0,1,0,.12l-.07.09a.62.62,0,0,1-.23.12,2.43,2.43,0,0,1-.48.16,6.68,6.68,0,0,1-.67.13,6.6,6.6,0,0,1-.8.05,4.27,4.27,0,0,1-1.35-.19,2.44,2.44,0,0,1-1-.59,2.54,2.54,0,0,1-.58-1,4.65,4.65,0,0,1-.19-1.42,4.36,4.36,0,0,1,.2-1.39,3,3,0,0,1,.58-1,2.68,2.68,0,0,1,.93-.66,3.68,3.68,0,0,1,2.48,0,2.28,2.28,0,0,1,.85.59,2.44,2.44,0,0,1,.48.9A3.72,3.72,0,0,1,97,36.76Zm-1.58-.47a1.71,1.71,0,0,0-.28-1.08,1.07,1.07,0,0,0-.91-.39,1.13,1.13,0,0,0-.54.12,1.06,1.06,0,0,0-.38.31,1.39,1.39,0,0,0-.24.47,2.61,2.61,0,0,0-.09.57Z"/><path d="M106.63,37.1a5.48,5.48,0,0,1-.17,1.4,3.18,3.18,0,0,1-.48,1,2.21,2.21,0,0,1-.79.67,2.53,2.53,0,0,1-1.09.23,2.24,2.24,0,0,1-.46-.05,1.56,1.56,0,0,1-.41-.15,2.13,2.13,0,0,1-.39-.25,4,4,0,0,1-.4-.35v2.73a.21.21,0,0,1,0,.11.25.25,0,0,1-.13.09,1.31,1.31,0,0,1-.25.06l-.4,0-.4,0a1,1,0,0,1-.24-.06.24.24,0,0,1-.14-.09.21.21,0,0,1,0-.11V34.3a.17.17,0,0,1,0-.12.24.24,0,0,1,.11-.08.81.81,0,0,1,.21-.05h.66a1,1,0,0,1,.22.05.24.24,0,0,1,.11.08.24.24,0,0,1,0,.12V35a6.78,6.78,0,0,1,.5-.46,3.08,3.08,0,0,1,.5-.33,2.54,2.54,0,0,1,.52-.2,2.62,2.62,0,0,1,.57-.06,2.17,2.17,0,0,1,1.09.25,2.06,2.06,0,0,1,.73.68,3.4,3.4,0,0,1,.41,1A6.1,6.1,0,0,1,106.63,37.1Zm-1.7.12a4.08,4.08,0,0,0-.06-.71,1.9,1.9,0,0,0-.19-.61,1.1,1.1,0,0,0-.35-.42.85.85,0,0,0-.54-.16,1.19,1.19,0,0,0-.32,0,1.36,1.36,0,0,0-.32.16,2.1,2.1,0,0,0-.34.28,4.48,4.48,0,0,0-.37.44v1.91a4.18,4.18,0,0,0,.65.67,1.12,1.12,0,0,0,.65.23.89.89,0,0,0,.54-.16,1.37,1.37,0,0,0,.37-.42,2.65,2.65,0,0,0,.21-.6A3,3,0,0,0,104.93,37.22Z"/><path d="M113.51,37.13a4.45,4.45,0,0,1-.19,1.35,2.84,2.84,0,0,1-.59,1.05,2.61,2.61,0,0,1-1,.68,3.77,3.77,0,0,1-1.4.24,3.89,3.89,0,0,1-1.34-.21,2.44,2.44,0,0,1-1-.63,2.49,2.49,0,0,1-.55-1,4.38,4.38,0,0,1-.19-1.36,4.46,4.46,0,0,1,.2-1.36,2.76,2.76,0,0,1,.6-1,2.54,2.54,0,0,1,1-.68,3.73,3.73,0,0,1,1.4-.24,3.89,3.89,0,0,1,1.34.21,2.25,2.25,0,0,1,1,.62,2.49,2.49,0,0,1,.55,1A4.79,4.79,0,0,1,113.51,37.13Zm-1.68.07a4.79,4.79,0,0,0-.06-.79,2.23,2.23,0,0,0-.23-.63,1.13,1.13,0,0,0-.43-.41,1.4,1.4,0,0,0-.68-.15,1.44,1.44,0,0,0-.64.13,1.2,1.2,0,0,0-.45.39,2.07,2.07,0,0,0-.26.62,3.37,3.37,0,0,0-.09.82,3.81,3.81,0,0,0,.08.78,1.75,1.75,0,0,0,.23.63,1.06,1.06,0,0,0,.43.41,1.36,1.36,0,0,0,.67.15A1.41,1.41,0,0,0,111,39a1,1,0,0,0,.45-.38,1.79,1.79,0,0,0,.26-.61A3.46,3.46,0,0,0,111.83,37.2Z"/><path d="M120,40.08a.16.16,0,0,1,0,.12.2.2,0,0,1-.11.08.81.81,0,0,1-.21,0H119a.81.81,0,0,1-.21,0,.23.23,0,0,1-.12-.08.21.21,0,0,1,0-.12v-.64a3.68,3.68,0,0,1-.94.74,2.23,2.23,0,0,1-1.09.27,2.18,2.18,0,0,1-1.12-.26,2.13,2.13,0,0,1-.74-.69,2.8,2.8,0,0,1-.42-1,5.43,5.43,0,0,1-.13-1.22,5.36,5.36,0,0,1,.16-1.39,3.4,3.4,0,0,1,.49-1.05,2.13,2.13,0,0,1,.79-.67,2.5,2.5,0,0,1,1.09-.23,2,2,0,0,1,.88.19,3.38,3.38,0,0,1,.79.59V31.57a.2.2,0,0,1,0-.11.22.22,0,0,1,.13-.09l.25-.06.4,0,.39,0,.25.06a.25.25,0,0,1,.13.09.21.21,0,0,1,0,.11Zm-1.62-3.86a3.62,3.62,0,0,0-.68-.68,1.13,1.13,0,0,0-.67-.23.94.94,0,0,0-.55.16,1.14,1.14,0,0,0-.36.42,1.94,1.94,0,0,0-.21.6,2.93,2.93,0,0,0-.07.67,4,4,0,0,0,.06.7,2.25,2.25,0,0,0,.19.62,1.25,1.25,0,0,0,.35.43.93.93,0,0,0,.56.16,1.26,1.26,0,0,0,.33,0,1.06,1.06,0,0,0,.32-.16,1.75,1.75,0,0,0,.34-.29c.12-.12.25-.26.39-.43Z"/><path d="M126.75,37a.61.61,0,0,1-.14.44.45.45,0,0,1-.36.14h-3.53a2.43,2.43,0,0,0,.09.68,1.27,1.27,0,0,0,.28.51,1.2,1.2,0,0,0,.49.32,2.29,2.29,0,0,0,.73.11,4.22,4.22,0,0,0,.75-.06,4.56,4.56,0,0,0,.56-.14l.39-.13a.63.63,0,0,1,.26-.07.14.14,0,0,1,.09,0s0,0,.07.08a.35.35,0,0,1,0,.16,2.1,2.1,0,0,1,0,.27v.24c0,.07,0,.13,0,.18a.56.56,0,0,1,0,.12l-.07.09a.73.73,0,0,1-.23.12,2.68,2.68,0,0,1-.48.16c-.19,0-.42.09-.67.13a6.73,6.73,0,0,1-.8.05,4.19,4.19,0,0,1-1.35-.19,2.32,2.32,0,0,1-1.55-1.59,4.63,4.63,0,0,1-.2-1.42,4.36,4.36,0,0,1,.21-1.39,2.82,2.82,0,0,1,.58-1,2.5,2.5,0,0,1,.93-.66,3.26,3.26,0,0,1,1.24-.22,3.32,3.32,0,0,1,1.24.21,2.24,2.24,0,0,1,.84.59,2.46,2.46,0,0,1,.49.9,4.06,4.06,0,0,1,.16,1.13Zm-1.59-.47a1.71,1.71,0,0,0-.27-1.08,1.07,1.07,0,0,0-.91-.39,1.13,1.13,0,0,0-.54.12,1.1,1.1,0,0,0-.39.31,1.38,1.38,0,0,0-.23.47,2.13,2.13,0,0,0-.1.57Z"/><path d="M137,40.08a.18.18,0,0,1,0,.11.33.33,0,0,1-.13.09,1.31,1.31,0,0,1-.25,0,2.3,2.3,0,0,1-.4,0,2.36,2.36,0,0,1-.4,0l-.25,0a.33.33,0,0,1-.13-.09.18.18,0,0,1,0-.11V36.65a2.2,2.2,0,0,0-.06-.53,1,1,0,0,0-.17-.41.72.72,0,0,0-.28-.27.88.88,0,0,0-.41-.09,1,1,0,0,0-.59.22,4.19,4.19,0,0,0-.65.67v3.84a.14.14,0,0,1,0,.11.33.33,0,0,1-.13.09l-.25,0a2.3,2.3,0,0,1-.39,0,2.36,2.36,0,0,1-.4,0,1.31,1.31,0,0,1-.25,0c-.06,0-.11-.05-.13-.09a.14.14,0,0,1,0-.11V36.65a2.2,2.2,0,0,0-.06-.53,1.17,1.17,0,0,0-.16-.41.69.69,0,0,0-.29-.27.84.84,0,0,0-.4-.09,1,1,0,0,0-.6.22,4.18,4.18,0,0,0-.64.67v3.84a.18.18,0,0,1,0,.11.33.33,0,0,1-.13.09l-.25,0a4,4,0,0,1-.8,0l-.24,0a.31.31,0,0,1-.14-.09.18.18,0,0,1,0-.11V34.3a.17.17,0,0,1,0-.12.24.24,0,0,1,.11-.08,1,1,0,0,1,.22-.05h.68a.81.81,0,0,1,.21.05.21.21,0,0,1,.1.08.17.17,0,0,1,0,.12V35a4,4,0,0,1,.95-.77,2,2,0,0,1,1-.26,2.51,2.51,0,0,1,.64.07,1.68,1.68,0,0,1,.51.22,1.55,1.55,0,0,1,.39.33A2.09,2.09,0,0,1,133,35a5.61,5.61,0,0,1,.51-.48,2.73,2.73,0,0,1,.49-.32,1.84,1.84,0,0,1,.49-.19,2,2,0,0,1,.49-.06,2.23,2.23,0,0,1,1,.19,1.84,1.84,0,0,1,.64.53,2.13,2.13,0,0,1,.34.78,4.19,4.19,0,0,1,.11,1Z"/><path d="M144.21,37.13a4.45,4.45,0,0,1-.19,1.35,2.84,2.84,0,0,1-.59,1.05,2.73,2.73,0,0,1-1,.68,3.68,3.68,0,0,1-1.39.24,3.89,3.89,0,0,1-1.34-.21,2.44,2.44,0,0,1-.95-.63,2.51,2.51,0,0,1-.56-1,4.72,4.72,0,0,1-.18-1.36,4.46,4.46,0,0,1,.2-1.36,2.88,2.88,0,0,1,.59-1,2.66,2.66,0,0,1,1-.68,3.71,3.71,0,0,1,1.39-.24,3.91,3.91,0,0,1,1.35.21,2.31,2.31,0,0,1,.95.62,2.62,2.62,0,0,1,.55,1A4.79,4.79,0,0,1,144.21,37.13Zm-1.68.07a3.87,3.87,0,0,0-.07-.79,1.75,1.75,0,0,0-.23-.63,1.13,1.13,0,0,0-.43-.41,1.37,1.37,0,0,0-.68-.15,1.39,1.39,0,0,0-.63.13,1.2,1.2,0,0,0-.45.39,1.84,1.84,0,0,0-.26.62,3.37,3.37,0,0,0-.09.82,3.84,3.84,0,0,0,.07.78,2.23,2.23,0,0,0,.23.63,1.13,1.13,0,0,0,.43.41,1.57,1.57,0,0,0,1.32,0,1.1,1.1,0,0,0,.45-.38,2,2,0,0,0,.26-.61A4.07,4.07,0,0,0,142.53,37.2Z"/><path d="M149.31,38.45a1.86,1.86,0,0,1-.19.87,1.66,1.66,0,0,1-.52.63,2.36,2.36,0,0,1-.8.37,3.49,3.49,0,0,1-1,.13,4,4,0,0,1-.62-.05,3.22,3.22,0,0,1-.53-.12,2.68,2.68,0,0,1-.39-.15A.76.76,0,0,1,145,40a.46.46,0,0,1-.11-.21,2.16,2.16,0,0,1,0-.43,2.41,2.41,0,0,1,0-.31.84.84,0,0,1,0-.18.22.22,0,0,1,.07-.09l.1,0a.63.63,0,0,1,.21.08l.34.18.49.18a2,2,0,0,0,.62.08,1.64,1.64,0,0,0,.4,0,.86.86,0,0,0,.29-.13.66.66,0,0,0,.2-.21.73.73,0,0,0,.06-.3.52.52,0,0,0-.12-.34,1.16,1.16,0,0,0-.32-.24,3.21,3.21,0,0,0-.45-.19l-.51-.21a4,4,0,0,1-.51-.25,1.88,1.88,0,0,1-.45-.35,1.59,1.59,0,0,1-.32-.5,1.83,1.83,0,0,1-.12-.7,1.73,1.73,0,0,1,.17-.76,1.66,1.66,0,0,1,.46-.59,2.14,2.14,0,0,1,.75-.39,3.32,3.32,0,0,1,1-.13,3.08,3.08,0,0,1,.53,0,2.88,2.88,0,0,1,.46.09,1.73,1.73,0,0,1,.35.13.64.64,0,0,1,.21.12.22.22,0,0,1,.08.09.42.42,0,0,1,0,.12s0,.1,0,.17,0,.15,0,.25,0,.21,0,.28a.6.6,0,0,1,0,.18.15.15,0,0,1-.06.09l-.09,0a.38.38,0,0,1-.18-.07l-.31-.14a2,2,0,0,0-.43-.15,1.84,1.84,0,0,0-.55-.07,1.35,1.35,0,0,0-.38.05.68.68,0,0,0-.27.13.58.58,0,0,0-.16.19.7.7,0,0,0,0,.25.48.48,0,0,0,.12.33,1,1,0,0,0,.33.24,3.34,3.34,0,0,0,.46.2l.52.2a4,4,0,0,1,.51.25,1.6,1.6,0,0,1,.46.35,1.69,1.69,0,0,1,.33.49A1.81,1.81,0,0,1,149.31,38.45Z"/><path d="M52,48.8a5.34,5.34,0,0,1-.17,1.39,3.14,3.14,0,0,1-.48,1.06,2.21,2.21,0,0,1-.79.67,2.53,2.53,0,0,1-1.09.23,2.24,2.24,0,0,1-.46,0,1.56,1.56,0,0,1-.41-.15,2.13,2.13,0,0,1-.39-.25,4,4,0,0,1-.4-.35v2.73a.21.21,0,0,1,0,.11.25.25,0,0,1-.13.09l-.25.06h-.79l-.25-.06a.24.24,0,0,1-.14-.09.21.21,0,0,1,0-.11V46a.15.15,0,0,1,0-.11.24.24,0,0,1,.11-.08.81.81,0,0,1,.21,0h.66a.9.9,0,0,1,.22,0,.24.24,0,0,1,.11.08.21.21,0,0,1,0,.11v.69a4.13,4.13,0,0,1,.49-.46,3.08,3.08,0,0,1,.5-.33,2.07,2.07,0,0,1,.52-.2,2.62,2.62,0,0,1,.57-.06,2.28,2.28,0,0,1,1.09.24,2.1,2.1,0,0,1,.73.69,3.4,3.4,0,0,1,.41,1A6.1,6.1,0,0,1,52,48.8Zm-1.7.12a4.08,4.08,0,0,0-.06-.71A2.18,2.18,0,0,0,50,47.6a1.14,1.14,0,0,0-.36-.42.85.85,0,0,0-.54-.16,1.25,1.25,0,0,0-.32,0,1.06,1.06,0,0,0-.32.16,2.1,2.1,0,0,0-.34.28,3.55,3.55,0,0,0-.37.44v1.9a3.8,3.8,0,0,0,.65.67,1.07,1.07,0,0,0,.65.24.89.89,0,0,0,.54-.16,1.37,1.37,0,0,0,.37-.42,2.24,2.24,0,0,0,.21-.6A3,3,0,0,0,50.27,48.92Z"/><path d="M57.93,51.8a.17.17,0,0,1-.06.14.42.42,0,0,1-.21.08l-.41,0-.42,0a.37.37,0,0,1-.19-.08.17.17,0,0,1-.06-.14v-.46a2.67,2.67,0,0,1-.81.6,2.37,2.37,0,0,1-1,.21,2.86,2.86,0,0,1-.85-.12,1.88,1.88,0,0,1-.67-.36,1.69,1.69,0,0,1-.44-.58,2.1,2.1,0,0,1-.15-.82,1.76,1.76,0,0,1,.2-.88,1.59,1.59,0,0,1,.59-.62,3,3,0,0,1,1-.36,7.71,7.71,0,0,1,1.36-.11h.56V48a2.21,2.21,0,0,0,0-.48.85.85,0,0,0-.18-.34.77.77,0,0,0-.34-.2,1.92,1.92,0,0,0-.52-.07,2.65,2.65,0,0,0-.73.09,3.11,3.11,0,0,0-.57.21l-.41.2a.6.6,0,0,1-.27.09.21.21,0,0,1-.13-.05.25.25,0,0,1-.09-.13.81.81,0,0,1,0-.21,1.14,1.14,0,0,1,0-.27,1.39,1.39,0,0,1,0-.32.57.57,0,0,1,.12-.21,1.19,1.19,0,0,1,.32-.2,2.93,2.93,0,0,1,.53-.21,4.11,4.11,0,0,1,.67-.16,4.44,4.44,0,0,1,.74-.06,4.36,4.36,0,0,1,1.16.13,1.9,1.9,0,0,1,.8.41,1.58,1.58,0,0,1,.45.71,3.17,3.17,0,0,1,.14,1Zm-1.6-2.48h-.62a3.2,3.2,0,0,0-.67.06,1.3,1.3,0,0,0-.46.18.61.61,0,0,0-.25.28.76.76,0,0,0-.09.38.75.75,0,0,0,.23.57.93.93,0,0,0,.64.21,1.21,1.21,0,0,0,.64-.18,2.9,2.9,0,0,0,.58-.51Z"/><path d="M63.37,50.15a1.84,1.84,0,0,1-.19.86,1.66,1.66,0,0,1-.52.63,2.2,2.2,0,0,1-.8.38,3.49,3.49,0,0,1-1,.13,4,4,0,0,1-.62,0,3.22,3.22,0,0,1-.53-.12,2.68,2.68,0,0,1-.39-.15,1.53,1.53,0,0,1-.23-.15.52.52,0,0,1-.11-.21A2.27,2.27,0,0,1,59,51a2.36,2.36,0,0,1,0-.3.84.84,0,0,1,0-.18s0-.08.07-.09a.16.16,0,0,1,.1,0,.46.46,0,0,1,.21.08l.34.18.49.18a2.33,2.33,0,0,0,.62.08,1.64,1.64,0,0,0,.4,0,1.11,1.11,0,0,0,.29-.13.6.6,0,0,0,.2-.22.67.67,0,0,0,.06-.3.5.5,0,0,0-.12-.33,1.16,1.16,0,0,0-.32-.24,3.62,3.62,0,0,0-.44-.2c-.17-.06-.34-.12-.52-.2s-.34-.16-.51-.25a1.94,1.94,0,0,1-.45-.35,1.51,1.51,0,0,1-.31-.5,1.83,1.83,0,0,1-.12-.7,1.73,1.73,0,0,1,.16-.76,1.67,1.67,0,0,1,.46-.6,2.3,2.3,0,0,1,.75-.38,3.32,3.32,0,0,1,1-.13,4.58,4.58,0,0,1,.53,0l.46.1a1.73,1.73,0,0,1,.35.13,1.28,1.28,0,0,1,.21.11.31.31,0,0,1,.08.1.34.34,0,0,1,0,.12s0,.1,0,.17v.53a.69.69,0,0,1,0,.18.1.1,0,0,1-.06.08.16.16,0,0,1-.09,0,.53.53,0,0,1-.18-.07c-.08,0-.19-.09-.31-.15a3.11,3.11,0,0,0-.43-.14,1.84,1.84,0,0,0-.55-.07,1.38,1.38,0,0,0-.38,0,.85.85,0,0,0-.27.13.74.74,0,0,0-.16.2.7.7,0,0,0,0,.25.44.44,0,0,0,.13.33A1.16,1.16,0,0,0,61,48a3.34,3.34,0,0,0,.46.2c.17.06.34.12.52.2l.51.24a1.84,1.84,0,0,1,.46.36,1.56,1.56,0,0,1,.33.49A1.78,1.78,0,0,1,63.37,50.15Z"/><path d="M69.26,51.8a.15.15,0,0,1-.07.14A.42.42,0,0,1,69,52l-.41,0-.43,0a.37.37,0,0,1-.19-.08.2.2,0,0,1,0-.14v-.46a2.94,2.94,0,0,1-.81.6,2.45,2.45,0,0,1-1,.21,2.86,2.86,0,0,1-.85-.12,1.83,1.83,0,0,1-.66-.36,1.57,1.57,0,0,1-.44-.58,1.94,1.94,0,0,1-.16-.82,1.87,1.87,0,0,1,.2-.88,1.66,1.66,0,0,1,.59-.62,3,3,0,0,1,1-.36,7.68,7.68,0,0,1,1.35-.11h.57V48a1.7,1.7,0,0,0-.06-.48.85.85,0,0,0-.18-.34.72.72,0,0,0-.34-.2,1.87,1.87,0,0,0-.52-.07,2.7,2.7,0,0,0-.73.09,3.77,3.77,0,0,0-.57.21l-.41.2a.6.6,0,0,1-.27.09.18.18,0,0,1-.12-.05.25.25,0,0,1-.09-.13.53.53,0,0,1-.06-.21,2.13,2.13,0,0,1,0-.27,1.39,1.39,0,0,1,0-.32.6.6,0,0,1,.13-.21,1.1,1.1,0,0,1,.31-.2,2.77,2.77,0,0,1,.54-.21,4,4,0,0,1,.66-.16,4.52,4.52,0,0,1,.74-.06,4.44,4.44,0,0,1,1.17.13,1.92,1.92,0,0,1,.79.41,1.6,1.6,0,0,1,.46.71,3.47,3.47,0,0,1,.14,1Zm-1.6-2.48H67a3.2,3.2,0,0,0-.67.06,1.17,1.17,0,0,0-.45.18.63.63,0,0,0-.26.28.89.89,0,0,0-.08.38.75.75,0,0,0,.23.57.9.9,0,0,0,.64.21,1.16,1.16,0,0,0,.63-.18,2.93,2.93,0,0,0,.59-.51Z"/><path d="M74.34,46.53a3.84,3.84,0,0,1,0,.39,1.29,1.29,0,0,1,0,.23.27.27,0,0,1-.07.12.2.2,0,0,1-.11,0l-.12,0-.14-.05-.18,0a.78.78,0,0,0-.22,0,.65.65,0,0,0-.27.05,1.75,1.75,0,0,0-.28.17,1.78,1.78,0,0,0-.3.31c-.11.13-.22.29-.35.48v3.61a.2.2,0,0,1,0,.11.24.24,0,0,1-.14.08.73.73,0,0,1-.25.05l-.39,0L71,52a.85.85,0,0,1-.25-.05.24.24,0,0,1-.13-.08.15.15,0,0,1,0-.11V46a.2.2,0,0,1,0-.11.23.23,0,0,1,.12-.08,1,1,0,0,1,.22,0h.67a.8.8,0,0,1,.22,0,.27.27,0,0,1,.1.08A.2.2,0,0,1,72,46v.73a6,6,0,0,1,.43-.54,2.21,2.21,0,0,1,.39-.33,1.21,1.21,0,0,1,.36-.18,1.47,1.47,0,0,1,.36,0h.18a.64.64,0,0,1,.2,0l.19,0,.11.06,0,.07a.81.81,0,0,1,0,.11.88.88,0,0,1,0,.2C74.33,46.25,74.34,46.38,74.34,46.53Z"/><path d="M82.74,51.8a.17.17,0,0,1-.06.14.46.46,0,0,1-.21.08l-.41,0-.42,0a.37.37,0,0,1-.19-.08.17.17,0,0,1-.06-.14v-.46a2.8,2.8,0,0,1-.81.6,2.42,2.42,0,0,1-1,.21,2.84,2.84,0,0,1-.84-.12,1.88,1.88,0,0,1-.67-.36,1.69,1.69,0,0,1-.44-.58,2.1,2.1,0,0,1-.15-.82,1.87,1.87,0,0,1,.19-.88,1.69,1.69,0,0,1,.6-.62,3,3,0,0,1,1-.36,7.71,7.71,0,0,1,1.36-.11h.56V48a1.7,1.7,0,0,0-.06-.48.66.66,0,0,0-.18-.34.68.68,0,0,0-.33-.2,1.94,1.94,0,0,0-.53-.07,2.75,2.75,0,0,0-.73.09,3.28,3.28,0,0,0-.56.21,4,4,0,0,0-.41.2.6.6,0,0,1-.27.09.21.21,0,0,1-.13-.05.25.25,0,0,1-.09-.13,1.42,1.42,0,0,1-.06-.21,2.13,2.13,0,0,1,0-.27,1.32,1.32,0,0,1,0-.32.57.57,0,0,1,.12-.21,1.19,1.19,0,0,1,.32-.2,2.93,2.93,0,0,1,.53-.21,4,4,0,0,1,.66-.16,4.56,4.56,0,0,1,.75-.06,4.36,4.36,0,0,1,1.16.13,2,2,0,0,1,.8.41,1.67,1.67,0,0,1,.45.71,3.47,3.47,0,0,1,.14,1Zm-1.6-2.48h-.62a3.3,3.3,0,0,0-.68.06,1.32,1.32,0,0,0-.45.18.7.7,0,0,0-.26.28.89.89,0,0,0-.08.38.75.75,0,0,0,.23.57.93.93,0,0,0,.64.21,1.16,1.16,0,0,0,.63-.18,2.68,2.68,0,0,0,.59-.51Z"/><path d="M92.19,48.72a.63.63,0,0,1-.14.44.45.45,0,0,1-.36.14H88.16a2.31,2.31,0,0,0,.09.67,1.24,1.24,0,0,0,.28.52,1.31,1.31,0,0,0,.49.32,2.29,2.29,0,0,0,.73.11,4.22,4.22,0,0,0,.75-.06c.22,0,.4-.09.56-.14l.39-.14a.78.78,0,0,1,.26-.06l.09,0a.22.22,0,0,1,.07.09.32.32,0,0,1,0,.16,2.1,2.1,0,0,1,0,.27v.24c0,.07,0,.13,0,.17a.5.5,0,0,1,0,.13l-.07.09a.73.73,0,0,1-.23.12,3.06,3.06,0,0,1-.48.15,5,5,0,0,1-.67.13,5.1,5.1,0,0,1-.8.06A4.48,4.48,0,0,1,88.25,52a2.37,2.37,0,0,1-1.55-1.59A4.68,4.68,0,0,1,86.5,49a4.32,4.32,0,0,1,.21-1.39,2.82,2.82,0,0,1,.58-1.05,2.39,2.39,0,0,1,.93-.66,3.21,3.21,0,0,1,1.23-.22,3.34,3.34,0,0,1,1.25.21,2.24,2.24,0,0,1,.84.59,2.39,2.39,0,0,1,.49.9,4.06,4.06,0,0,1,.16,1.13Zm-1.59-.47a1.67,1.67,0,0,0-.27-1.08,1.07,1.07,0,0,0-.91-.39,1.2,1.2,0,0,0-.55.12,1,1,0,0,0-.38.31,1.38,1.38,0,0,0-.23.47,2.13,2.13,0,0,0-.1.57Z"/><path d="M98.08,51.66a.41.41,0,0,1,0,.19s0,.08-.09.11a.84.84,0,0,1-.28.06l-.5,0h-.47l-.28,0a.35.35,0,0,1-.15-.07.21.21,0,0,1-.07-.11l-1.08-2.05-1.07,2.05a.21.21,0,0,1-.07.11.3.3,0,0,1-.14.07,1.3,1.3,0,0,1-.26,0h-.44l-.45,0a.6.6,0,0,1-.25-.06.14.14,0,0,1-.08-.11.41.41,0,0,1,0-.19l1.61-2.84-1.48-2.68a.41.41,0,0,1-.06-.19.12.12,0,0,1,.08-.13.67.67,0,0,1,.27-.06,3.48,3.48,0,0,1,.5,0h.46l.26,0a.35.35,0,0,1,.15.07.44.44,0,0,1,.08.1l1,1.94,1-1.94a.24.24,0,0,1,.06-.09l.12-.06.23,0h.86a.65.65,0,0,1,.25.06.13.13,0,0,1,.07.12.56.56,0,0,1-.08.21l-1.44,2.63Z"/><path d="M104.72,48.8a5.34,5.34,0,0,1-.17,1.39,3.14,3.14,0,0,1-.48,1.06,2.21,2.21,0,0,1-.79.67,2.53,2.53,0,0,1-1.09.23,2.24,2.24,0,0,1-.46,0,1.56,1.56,0,0,1-.41-.15,2.13,2.13,0,0,1-.39-.25,3.13,3.13,0,0,1-.4-.35v2.73a.21.21,0,0,1,0,.11.25.25,0,0,1-.13.09l-.25.06h-.8l-.25-.06a.25.25,0,0,1-.13-.09.21.21,0,0,1,0-.11V46a.2.2,0,0,1,0-.11A.28.28,0,0,1,99,45.8a.81.81,0,0,1,.21,0h.66a1,1,0,0,1,.22,0,.24.24,0,0,1,.11.08.2.2,0,0,1,0,.11v.69a5.12,5.12,0,0,1,.5-.46,3.08,3.08,0,0,1,.5-.33,1.93,1.93,0,0,1,.52-.2,2.62,2.62,0,0,1,.57-.06,2.28,2.28,0,0,1,1.09.24,2.07,2.07,0,0,1,.72.69,3.16,3.16,0,0,1,.42,1A6.1,6.1,0,0,1,104.72,48.8Zm-1.7.12a4.08,4.08,0,0,0-.06-.71,1.9,1.9,0,0,0-.19-.61,1,1,0,0,0-.35-.42.85.85,0,0,0-.54-.16,1.19,1.19,0,0,0-.32,0,1,1,0,0,0-.32.16,2.1,2.1,0,0,0-.34.28,3.55,3.55,0,0,0-.37.44v1.9a3.48,3.48,0,0,0,.65.67,1.07,1.07,0,0,0,.65.24.89.89,0,0,0,.54-.16,1.37,1.37,0,0,0,.37-.42,2.65,2.65,0,0,0,.21-.6A3,3,0,0,0,103,48.92Z"/><path d="M107.39,51.78a.15.15,0,0,1,0,.11.24.24,0,0,1-.13.08A.85.85,0,0,1,107,52l-.4,0-.39,0a.73.73,0,0,1-.25-.05.24.24,0,0,1-.14-.08.21.21,0,0,1,0-.11V43.25a.21.21,0,0,1,0-.11.24.24,0,0,1,.14-.09,1,1,0,0,1,.25-.06l.39,0,.4,0a1.31,1.31,0,0,1,.25.06.25.25,0,0,1,.13.09.15.15,0,0,1,0,.11Z"/><path d="M114.6,48.83a4.45,4.45,0,0,1-.19,1.35,3,3,0,0,1-.59,1,2.73,2.73,0,0,1-1,.68,3.68,3.68,0,0,1-1.39.24,3.85,3.85,0,0,1-1.34-.21,2.44,2.44,0,0,1-1-.63,2.51,2.51,0,0,1-.56-1A4.72,4.72,0,0,1,108.4,49a4.46,4.46,0,0,1,.2-1.36,2.84,2.84,0,0,1,.59-1.05,2.63,2.63,0,0,1,1-.67,3.71,3.71,0,0,1,1.39-.24,3.91,3.91,0,0,1,1.35.21,2.31,2.31,0,0,1,1,.62,2.62,2.62,0,0,1,.55,1A4.74,4.74,0,0,1,114.6,48.83Zm-1.68.06a3.84,3.84,0,0,0-.07-.78,1.75,1.75,0,0,0-.23-.63,1.15,1.15,0,0,0-.43-.42,1.49,1.49,0,0,0-.68-.14,1.39,1.39,0,0,0-.63.13,1.2,1.2,0,0,0-.45.39,1.79,1.79,0,0,0-.26.61,3.43,3.43,0,0,0-.09.82,3.87,3.87,0,0,0,.07.79,2.23,2.23,0,0,0,.23.63,1.13,1.13,0,0,0,.43.41,1.57,1.57,0,0,0,1.32,0,1.18,1.18,0,0,0,.45-.38,2.07,2.07,0,0,0,.26-.62A4,4,0,0,0,112.92,48.89Z"/><path d="M119.34,46.53c0,.16,0,.29,0,.39a1.2,1.2,0,0,1,0,.23.27.27,0,0,1-.07.12.17.17,0,0,1-.1,0l-.12,0-.15-.05-.18,0a.68.68,0,0,0-.21,0,.65.65,0,0,0-.27.05,1.4,1.4,0,0,0-.28.17,2.26,2.26,0,0,0-.31.31c-.1.13-.22.29-.34.48v3.61a.15.15,0,0,1,0,.11s-.07.06-.13.08a.79.79,0,0,1-.25.05l-.4,0-.39,0a.73.73,0,0,1-.25-.05.27.27,0,0,1-.14-.08.2.2,0,0,1,0-.11V46a.2.2,0,0,1,0-.11.23.23,0,0,1,.12-.08.81.81,0,0,1,.21,0h.68a.81.81,0,0,1,.21,0,.24.24,0,0,1,.11.08.2.2,0,0,1,0,.11v.73a3.77,3.77,0,0,1,.43-.54,2.18,2.18,0,0,1,.38-.33,1.21,1.21,0,0,1,.36-.18,1.61,1.61,0,0,1,.37,0h.18l.2,0,.18,0,.12.06.05.07a.81.81,0,0,1,0,.11s0,.11,0,.2Z"/><path d="M124.72,51.8a.15.15,0,0,1-.07.14.42.42,0,0,1-.2.08L124,52l-.43,0a.37.37,0,0,1-.19-.08.2.2,0,0,1,0-.14v-.46a2.84,2.84,0,0,1-.82.6,2.37,2.37,0,0,1-1,.21,2.86,2.86,0,0,1-.85-.12,1.83,1.83,0,0,1-.66-.36,1.57,1.57,0,0,1-.44-.58,1.94,1.94,0,0,1-.16-.82,1.87,1.87,0,0,1,.2-.88,1.66,1.66,0,0,1,.59-.62,3,3,0,0,1,1-.36,7.68,7.68,0,0,1,1.35-.11h.57V48a1.7,1.7,0,0,0-.06-.48.85.85,0,0,0-.18-.34.77.77,0,0,0-.34-.2,1.87,1.87,0,0,0-.52-.07,2.7,2.7,0,0,0-.73.09,3.77,3.77,0,0,0-.57.21l-.41.2a.6.6,0,0,1-.27.09.17.17,0,0,1-.12-.05.25.25,0,0,1-.09-.13.53.53,0,0,1-.06-.21,2.13,2.13,0,0,1,0-.27,1.39,1.39,0,0,1,0-.32.6.6,0,0,1,.13-.21,1.1,1.1,0,0,1,.31-.2,2.77,2.77,0,0,1,.54-.21,4,4,0,0,1,.66-.16,4.52,4.52,0,0,1,.74-.06,4.44,4.44,0,0,1,1.17.13,1.92,1.92,0,0,1,.79.41,1.6,1.6,0,0,1,.46.71,3.47,3.47,0,0,1,.14,1Zm-1.6-2.48h-.63a3.2,3.2,0,0,0-.67.06,1.17,1.17,0,0,0-.45.18.63.63,0,0,0-.26.28.76.76,0,0,0-.08.38.71.71,0,0,0,.23.57.9.9,0,0,0,.64.21,1.16,1.16,0,0,0,.63-.18,2.93,2.93,0,0,0,.59-.51Z"/><path d="M129.8,46.53a3.84,3.84,0,0,1,0,.39,1.2,1.2,0,0,1,0,.23.27.27,0,0,1-.06.12.2.2,0,0,1-.11,0l-.12,0-.14-.05-.18,0a.78.78,0,0,0-.22,0,.65.65,0,0,0-.27.05,1.75,1.75,0,0,0-.28.17,2.26,2.26,0,0,0-.31.31c-.1.13-.22.29-.34.48v3.61a.2.2,0,0,1,0,.11.24.24,0,0,1-.14.08.73.73,0,0,1-.25.05l-.39,0-.4,0a.79.79,0,0,1-.25-.05c-.06,0-.11,0-.13-.08a.15.15,0,0,1,0-.11V46a.2.2,0,0,1,0-.11.23.23,0,0,1,.12-.08,1,1,0,0,1,.22,0h.67a.71.71,0,0,1,.21,0,.24.24,0,0,1,.11.08.2.2,0,0,1,0,.11v.73a6,6,0,0,1,.43-.54,2.21,2.21,0,0,1,.39-.33,1.21,1.21,0,0,1,.36-.18,1.47,1.47,0,0,1,.36,0h.18a.64.64,0,0,1,.2,0l.19,0,.11.06.05.07a.81.81,0,0,1,0,.11.88.88,0,0,1,0,.2C129.79,46.25,129.8,46.38,129.8,46.53Z"/><path d="M139.12,48.83a4.45,4.45,0,0,1-.19,1.35,3,3,0,0,1-.59,1,2.78,2.78,0,0,1-1,.68,3.77,3.77,0,0,1-1.4.24,3.89,3.89,0,0,1-1.34-.21,2.44,2.44,0,0,1-1-.63,2.63,2.63,0,0,1-.56-1,4.72,4.72,0,0,1-.18-1.36,4.46,4.46,0,0,1,.2-1.36,2.84,2.84,0,0,1,.59-1.05,2.63,2.63,0,0,1,1-.67,3.71,3.71,0,0,1,1.39-.24,3.91,3.91,0,0,1,1.35.21,2.31,2.31,0,0,1,.95.62,2.49,2.49,0,0,1,.55,1A4.74,4.74,0,0,1,139.12,48.83Zm-1.68.06a3.84,3.84,0,0,0-.07-.78,1.75,1.75,0,0,0-.23-.63,1.09,1.09,0,0,0-.43-.42,1.48,1.48,0,0,0-.67-.14,1.41,1.41,0,0,0-.64.13,1.2,1.2,0,0,0-.45.39,2,2,0,0,0-.26.61,3.43,3.43,0,0,0-.09.82,4.74,4.74,0,0,0,.07.79,2.23,2.23,0,0,0,.23.63,1.13,1.13,0,0,0,.43.41,1.42,1.42,0,0,0,.68.15,1.41,1.41,0,0,0,.64-.14,1.18,1.18,0,0,0,.45-.38,1.84,1.84,0,0,0,.26-.62A4,4,0,0,0,137.44,48.89Z"/><path d="M143.57,51.21a2.44,2.44,0,0,1,0,.44.51.51,0,0,1-.1.21.45.45,0,0,1-.17.11l-.27.09-.33,0-.36,0a2.66,2.66,0,0,1-.84-.12,1.4,1.4,0,0,1-.59-.38,1.61,1.61,0,0,1-.34-.65,3.13,3.13,0,0,1-.11-.92v-3h-.7c-.08,0-.14-.05-.19-.16a1.49,1.49,0,0,1-.06-.5,2.58,2.58,0,0,1,0-.32.87.87,0,0,1,0-.21.22.22,0,0,1,.09-.1.21.21,0,0,1,.11,0h.69V44.48a.2.2,0,0,1,0-.11.25.25,0,0,1,.13-.09l.25-.05.4,0,.4,0,.25.05a.25.25,0,0,1,.13.09.2.2,0,0,1,0,.11v1.29h1.26a.25.25,0,0,1,.12,0,.21.21,0,0,1,.08.1,1.65,1.65,0,0,1,.05.21,2.92,2.92,0,0,1,0,.32,1.49,1.49,0,0,1-.06.5c0,.11-.11.16-.19.16h-1.27v2.71a1.32,1.32,0,0,0,.15.71.59.59,0,0,0,.54.24l.23,0,.18-.05.14,0,.1,0a.09.09,0,0,1,.07,0s0,0,.06.09,0,.1,0,.18A2.63,2.63,0,0,1,143.57,51.21Z"/><path d="M148.2,46.53c0,.16,0,.29,0,.39a1.2,1.2,0,0,1,0,.23.27.27,0,0,1-.07.12.17.17,0,0,1-.1,0l-.12,0-.15-.05-.17,0a.78.78,0,0,0-.22,0,.65.65,0,0,0-.27.05,1.4,1.4,0,0,0-.28.17,2.26,2.26,0,0,0-.31.31c-.1.13-.22.29-.34.48v3.61a.15.15,0,0,1,0,.11S146,52,146,52a.79.79,0,0,1-.25.05l-.4,0-.39,0a.73.73,0,0,1-.25-.05c-.06,0-.11,0-.13-.08a.15.15,0,0,1,0-.11V46a.2.2,0,0,1,0-.11.23.23,0,0,1,.12-.08.81.81,0,0,1,.21,0h.68a.81.81,0,0,1,.21,0,.24.24,0,0,1,.11.08.2.2,0,0,1,0,.11v.73a3.77,3.77,0,0,1,.43-.54,2.18,2.18,0,0,1,.38-.33,1.21,1.21,0,0,1,.36-.18,1.61,1.61,0,0,1,.37,0h.18l.2,0,.18,0,.12.06.05.07a.81.81,0,0,1,0,.11s0,.11,0,.2Z"/><path d="M153.58,51.8a.15.15,0,0,1-.07.14.42.42,0,0,1-.2.08l-.41,0-.43,0a.34.34,0,0,1-.18-.08.17.17,0,0,1-.06-.14v-.46a2.94,2.94,0,0,1-.81.6,2.45,2.45,0,0,1-1,.21,2.75,2.75,0,0,1-.84-.12,1.88,1.88,0,0,1-.67-.36,1.57,1.57,0,0,1-.44-.58,2.1,2.1,0,0,1-.16-.82,1.87,1.87,0,0,1,.2-.88,1.66,1.66,0,0,1,.59-.62,3,3,0,0,1,1-.36,7.68,7.68,0,0,1,1.35-.11H152V48a1.7,1.7,0,0,0-.06-.48.66.66,0,0,0-.18-.34.72.72,0,0,0-.34-.2,1.87,1.87,0,0,0-.52-.07,2.75,2.75,0,0,0-.73.09,3.77,3.77,0,0,0-.57.21l-.41.2a.6.6,0,0,1-.27.09.18.18,0,0,1-.12-.05.25.25,0,0,1-.09-.13.53.53,0,0,1-.06-.21,2.13,2.13,0,0,1,0-.27,1.39,1.39,0,0,1,0-.32.8.8,0,0,1,.13-.21,1.1,1.1,0,0,1,.31-.2,3,3,0,0,1,.54-.21,4,4,0,0,1,.66-.16,4.52,4.52,0,0,1,.74-.06,4.39,4.39,0,0,1,1.17.13,1.86,1.86,0,0,1,.79.41,1.6,1.6,0,0,1,.46.71,3.47,3.47,0,0,1,.14,1ZM152,49.32h-.62a3.3,3.3,0,0,0-.68.06,1.24,1.24,0,0,0-.45.18.63.63,0,0,0-.26.28.89.89,0,0,0-.08.38.75.75,0,0,0,.23.57.91.91,0,0,0,.64.21,1.16,1.16,0,0,0,.63-.18,2.93,2.93,0,0,0,.59-.51Z"/><path d="M71.73,63.48a.15.15,0,0,1,0,.11.26.26,0,0,1-.13.08,1.09,1.09,0,0,1-.25,0l-.39,0-.4,0-.25,0a.32.32,0,0,1-.13-.08.2.2,0,0,1,0-.11v-3.3a2.79,2.79,0,0,0-.07-.67,1.53,1.53,0,0,0-.17-.41.79.79,0,0,0-.31-.26.83.83,0,0,0-.43-.1,1.09,1.09,0,0,0-.63.23,3.41,3.41,0,0,0-.66.66v3.85a.15.15,0,0,1,0,.11.26.26,0,0,1-.13.08l-.25,0-.4,0-.39,0-.25,0a.26.26,0,0,1-.13-.08.15.15,0,0,1,0-.11V55a.19.19,0,0,1,0-.12.36.36,0,0,1,.13-.09l.25-.05.39,0,.4,0,.25.05a.36.36,0,0,1,.13.09.19.19,0,0,1,0,.12v3.2a3,3,0,0,1,.86-.62,2.09,2.09,0,0,1,.91-.21,2.28,2.28,0,0,1,1,.2,1.62,1.62,0,0,1,.65.53,2,2,0,0,1,.36.79,4.31,4.31,0,0,1,.11,1.09Z"/><path d="M78.41,60.42a.64.64,0,0,1-.13.44.5.5,0,0,1-.37.14H74.39a2.31,2.31,0,0,0,.09.67,1.27,1.27,0,0,0,.28.51,1.2,1.2,0,0,0,.49.32,2,2,0,0,0,.72.11,4.26,4.26,0,0,0,.76-.06,5.22,5.22,0,0,0,.56-.13l.39-.14a.74.74,0,0,1,.25-.06l.1,0a.19.19,0,0,1,.07.08s0,.1,0,.17a2.1,2.1,0,0,1,0,.27,1.77,1.77,0,0,1,0,.24c0,.07,0,.12,0,.17a.83.83,0,0,1,0,.12.61.61,0,0,1-.07.1.88.88,0,0,1-.23.12l-.48.15a5.32,5.32,0,0,1-.67.13,5.1,5.1,0,0,1-.8.06,4.28,4.28,0,0,1-1.36-.2,2.32,2.32,0,0,1-1.55-1.59,4.91,4.91,0,0,1-.19-1.41,4.62,4.62,0,0,1,.2-1.39,3,3,0,0,1,.59-1,2.39,2.39,0,0,1,.93-.66,3.17,3.17,0,0,1,1.23-.23,3.06,3.06,0,0,1,1.24.22,2.2,2.2,0,0,1,.85.59,2.45,2.45,0,0,1,.49.9,4,4,0,0,1,.15,1.13ZM76.83,60a1.73,1.73,0,0,0-.27-1.08,1.09,1.09,0,0,0-.92-.39,1.33,1.33,0,0,0-.54.11,1.18,1.18,0,0,0-.38.32,1.38,1.38,0,0,0-.23.47,2.06,2.06,0,0,0-.1.57Z"/><path d="M83.21,58.23a3.63,3.63,0,0,1,0,.38,1.19,1.19,0,0,1,0,.24.23.23,0,0,1-.06.11A.21.21,0,0,1,83,59a.3.3,0,0,1-.12,0l-.14,0-.18,0a.78.78,0,0,0-.22,0,.66.66,0,0,0-.27.06,1,1,0,0,0-.28.17,2.26,2.26,0,0,0-.31.31c-.1.13-.21.29-.34.48v3.61a.2.2,0,0,1,0,.11.3.3,0,0,1-.14.08,1.09,1.09,0,0,1-.25,0l-.39,0-.4,0-.25,0a.26.26,0,0,1-.13-.08.15.15,0,0,1,0-.11V57.69a.2.2,0,0,1,0-.11.23.23,0,0,1,.12-.08,1,1,0,0,1,.22,0l.33,0,.34,0a.9.9,0,0,1,.22,0,.27.27,0,0,1,.1.08.2.2,0,0,1,0,.11v.72c.16-.21.3-.39.43-.53a2.86,2.86,0,0,1,.39-.34,1.18,1.18,0,0,1,.36-.17,1.49,1.49,0,0,1,.36,0h.18l.2,0,.19.06.11.06a.18.18,0,0,1,.05.07.81.81,0,0,1,0,.11.88.88,0,0,1,0,.2C83.2,58,83.21,58.07,83.21,58.23Z"/><path d="M87.66,58.23c0,.16,0,.28,0,.38a1.19,1.19,0,0,1,0,.24.23.23,0,0,1-.07.11.18.18,0,0,1-.11,0l-.11,0-.15,0-.18,0a.68.68,0,0,0-.48,0,.84.84,0,0,0-.28.17,2.26,2.26,0,0,0-.31.31,4.33,4.33,0,0,0-.34.48v3.61a.15.15,0,0,1,0,.11.26.26,0,0,1-.13.08,1.22,1.22,0,0,1-.25,0l-.4,0-.39,0a1.09,1.09,0,0,1-.25,0,.3.3,0,0,1-.14-.08.2.2,0,0,1,0-.11V57.69a.2.2,0,0,1,0-.11.24.24,0,0,1,.11-.08,1,1,0,0,1,.22,0l.34,0,.34,0a.81.81,0,0,1,.21,0,.24.24,0,0,1,.11.08.2.2,0,0,1,0,.11v.72a4.26,4.26,0,0,1,.43-.53,2.83,2.83,0,0,1,.38-.34,1.18,1.18,0,0,1,.36-.17,1.57,1.57,0,0,1,.37,0h.18l.2,0,.18.06.11.06a.13.13,0,0,1,.06.07.81.81,0,0,1,0,.11s0,.11,0,.2Z"/><path d="M93,63.5a.16.16,0,0,1-.07.14.42.42,0,0,1-.2.07,2.07,2.07,0,0,1-.41,0,2.17,2.17,0,0,1-.43,0,.38.38,0,0,1-.19-.07.22.22,0,0,1,0-.14V63a2.64,2.64,0,0,1-.82.59,2.23,2.23,0,0,1-1,.22,2.86,2.86,0,0,1-.85-.12,1.83,1.83,0,0,1-.66-.36,1.53,1.53,0,0,1-.44-.59,2.08,2.08,0,0,1,0-1.69,1.59,1.59,0,0,1,.59-.62,3,3,0,0,1,1-.36A6.77,6.77,0,0,1,90.87,60h.57v-.35a1.63,1.63,0,0,0-.06-.47.85.85,0,0,0-.18-.34.72.72,0,0,0-.34-.2,1.56,1.56,0,0,0-.52-.07,2.75,2.75,0,0,0-.73.09,5.36,5.36,0,0,0-.57.2l-.41.2a.6.6,0,0,1-.27.09.16.16,0,0,1-.12,0,.25.25,0,0,1-.09-.13.65.65,0,0,1-.06-.21,2.13,2.13,0,0,1,0-.27,1.39,1.39,0,0,1,0-.32.46.46,0,0,1,.13-.21,1.34,1.34,0,0,1,.31-.21c.16-.07.33-.14.54-.21s.42-.11.66-.16a4.52,4.52,0,0,1,.74-.06,4.36,4.36,0,0,1,1.17.14,1.9,1.9,0,0,1,.79.4,1.65,1.65,0,0,1,.46.71,3.51,3.51,0,0,1,.14,1ZM91.44,61h-.63a3.26,3.26,0,0,0-.67.06,1.37,1.37,0,0,0-.45.17.69.69,0,0,0-.26.28.79.79,0,0,0-.08.38.69.69,0,0,0,.23.57.9.9,0,0,0,.64.21,1.24,1.24,0,0,0,.63-.17,2.93,2.93,0,0,0,.59-.51Z"/><path d="M103.6,63.48a.15.15,0,0,1,0,.11.22.22,0,0,1-.13.08,1.11,1.11,0,0,1-.24,0l-.4,0-.4,0-.25,0a.32.32,0,0,1-.13-.08.2.2,0,0,1,0-.11V60.05a2.23,2.23,0,0,0-.06-.54,1.26,1.26,0,0,0-.17-.41.77.77,0,0,0-.28-.26.82.82,0,0,0-.42-.1,1,1,0,0,0-.59.23,4.07,4.07,0,0,0-.64.66v3.85a.21.21,0,0,1,0,.11.3.3,0,0,1-.14.08,1.09,1.09,0,0,1-.25,0l-.39,0-.39,0-.25,0a.26.26,0,0,1-.13-.08.15.15,0,0,1,0-.11V60.05a2.23,2.23,0,0,0-.06-.54A1.25,1.25,0,0,0,98,59.1a.8.8,0,0,0-.29-.26.76.76,0,0,0-.41-.1,1,1,0,0,0-.59.23,3.38,3.38,0,0,0-.64.66v3.85a.21.21,0,0,1,0,.11.3.3,0,0,1-.14.08,1.09,1.09,0,0,1-.25,0l-.39,0-.4,0-.25,0a.26.26,0,0,1-.13-.08.15.15,0,0,1,0-.11V57.69a.2.2,0,0,1,0-.11.23.23,0,0,1,.12-.08,1,1,0,0,1,.22,0l.33,0,.34,0a.8.8,0,0,1,.22,0,.27.27,0,0,1,.1.08.2.2,0,0,1,0,.11v.67a3.87,3.87,0,0,1,1-.78,2.1,2.1,0,0,1,1-.26,2.55,2.55,0,0,1,.64.08,2,2,0,0,1,.51.21,1.53,1.53,0,0,1,.38.33,2.2,2.2,0,0,1,.28.44,3.74,3.74,0,0,1,.51-.48,3.51,3.51,0,0,1,.49-.33,3.19,3.19,0,0,1,.48-.19,2.33,2.33,0,0,1,1.47.14,1.59,1.59,0,0,1,.64.53,2.14,2.14,0,0,1,.35.78,4.11,4.11,0,0,1,.1.94Z"/><path d="M106.7,55.73a.92.92,0,0,1-.2.68,1.11,1.11,0,0,1-.75.19,1.09,1.09,0,0,1-.74-.18.87.87,0,0,1-.19-.65,1,1,0,0,1,.19-.69,1.11,1.11,0,0,1,.75-.19,1,1,0,0,1,.74.19A.87.87,0,0,1,106.7,55.73Zm-.13,7.75a.2.2,0,0,1,0,.11.37.37,0,0,1-.14.08,1.09,1.09,0,0,1-.25,0l-.39,0-.4,0-.25,0a.26.26,0,0,1-.13-.08.15.15,0,0,1,0-.11V57.71a.16.16,0,0,1,0-.12.26.26,0,0,1,.13-.08,1.15,1.15,0,0,1,.25-.06l.4,0,.39,0a1,1,0,0,1,.25.06.37.37,0,0,1,.14.08.21.21,0,0,1,0,.12Z"/><path d="M113.28,60.42a.64.64,0,0,1-.13.44.5.5,0,0,1-.37.14h-3.52a2.31,2.31,0,0,0,.09.67,1.27,1.27,0,0,0,.28.51,1.13,1.13,0,0,0,.49.32,2,2,0,0,0,.72.11,4.06,4.06,0,0,0,.75-.06,4.91,4.91,0,0,0,.57-.13l.39-.14a.74.74,0,0,1,.25-.06l.1,0a.17.17,0,0,1,.06.08.61.61,0,0,1,0,.17c0,.07,0,.16,0,.27a1.77,1.77,0,0,1,0,.24.79.79,0,0,1,0,.17.34.34,0,0,1,0,.12.3.3,0,0,1-.07.1.62.62,0,0,1-.23.12,3.49,3.49,0,0,1-.48.15,4.82,4.82,0,0,1-.66.13,5.13,5.13,0,0,1-.81.06,4.26,4.26,0,0,1-1.35-.2,2.33,2.33,0,0,1-1-.59,2.4,2.4,0,0,1-.58-1,5.12,5.12,0,0,1,0-2.8,3,3,0,0,1,.58-1,2.55,2.55,0,0,1,.93-.66,3.26,3.26,0,0,1,1.24-.23,3.09,3.09,0,0,1,1.24.22,2.2,2.2,0,0,1,.85.59,2.3,2.3,0,0,1,.48.9,3.67,3.67,0,0,1,.16,1.13ZM111.7,60a1.67,1.67,0,0,0-.28-1.08,1.06,1.06,0,0,0-.91-.39,1.27,1.27,0,0,0-.54.11,1.18,1.18,0,0,0-.38.32,1.6,1.6,0,0,0-.24.47,2.52,2.52,0,0,0-.09.57Z"/><path d="M119.88,63.48a.15.15,0,0,1,0,.11.26.26,0,0,1-.13.08,1.09,1.09,0,0,1-.25,0l-.39,0-.4,0a1.22,1.22,0,0,1-.25,0,.32.32,0,0,1-.13-.08.21.21,0,0,1,0-.11v-3.3a2.88,2.88,0,0,0-.06-.67,1.28,1.28,0,0,0-.18-.41.7.7,0,0,0-.3-.26.83.83,0,0,0-.43-.1,1.09,1.09,0,0,0-.63.23,3.41,3.41,0,0,0-.66.66v3.85a.15.15,0,0,1,0,.11.26.26,0,0,1-.13.08,1.22,1.22,0,0,1-.25,0l-.4,0-.39,0a1.09,1.09,0,0,1-.25,0,.26.26,0,0,1-.13-.08.15.15,0,0,1,0-.11V57.69a.2.2,0,0,1,0-.11.23.23,0,0,1,.12-.08.81.81,0,0,1,.21,0l.34,0,.34,0a.81.81,0,0,1,.21,0,.24.24,0,0,1,.11.08.2.2,0,0,1,0,.11v.67a3.77,3.77,0,0,1,1-.78,2.22,2.22,0,0,1,1-.26,2.28,2.28,0,0,1,1,.2,1.62,1.62,0,0,1,.65.53,2,2,0,0,1,.36.78,4.19,4.19,0,0,1,.11,1.07Z"/><path d="M124.52,62.91a1.6,1.6,0,0,1,0,.43.41.41,0,0,1-.09.22.56.56,0,0,1-.17.11l-.27.08a1.61,1.61,0,0,1-.33.06l-.36,0a2.39,2.39,0,0,1-.84-.13,1.26,1.26,0,0,1-.59-.38,1.58,1.58,0,0,1-.35-.64,3.57,3.57,0,0,1-.11-.92v-3h-.69c-.08,0-.14,0-.19-.15a1.52,1.52,0,0,1-.06-.51,2.82,2.82,0,0,1,0-.31.81.81,0,0,1,0-.21.31.31,0,0,1,.08-.11.24.24,0,0,1,.12,0h.68V56.18a.28.28,0,0,1,0-.12.26.26,0,0,1,.13-.08.79.79,0,0,1,.25,0,2.36,2.36,0,0,1,.4,0,2.24,2.24,0,0,1,.39,0,.73.73,0,0,1,.25,0,.26.26,0,0,1,.13.08.19.19,0,0,1,0,.12v1.29h1.26a.2.2,0,0,1,.11,0,.23.23,0,0,1,.08.11.54.54,0,0,1,0,.21,2.54,2.54,0,0,1,0,.31,1.25,1.25,0,0,1-.07.51q-.06.15-.18.15H123v2.72a1.34,1.34,0,0,0,.15.71.58.58,0,0,0,.53.24l.24,0,.18-.06.14-.05.1,0,.07,0a.2.2,0,0,1,.06.09s0,.11,0,.19A2.36,2.36,0,0,1,124.52,62.91Z"/><path d="M130.23,63.5a.18.18,0,0,1-.06.14.43.43,0,0,1-.21.07,2.07,2.07,0,0,1-.41,0,2.12,2.12,0,0,1-.42,0,.38.38,0,0,1-.19-.07.18.18,0,0,1-.06-.14V63a2.49,2.49,0,0,1-.81.59,2.23,2.23,0,0,1-1,.22,2.86,2.86,0,0,1-.85-.12,1.88,1.88,0,0,1-.67-.36,1.63,1.63,0,0,1-.44-.59A2,2,0,0,1,125,62a1.76,1.76,0,0,1,.2-.88,1.52,1.52,0,0,1,.59-.62,3,3,0,0,1,1-.36,6.81,6.81,0,0,1,1.36-.12h.56v-.35a2.12,2.12,0,0,0,0-.47.85.85,0,0,0-.18-.34.77.77,0,0,0-.34-.2,1.6,1.6,0,0,0-.52-.07,2.65,2.65,0,0,0-.73.09,4.14,4.14,0,0,0-.57.2l-.41.2a.6.6,0,0,1-.27.09.2.2,0,0,1-.13,0,.25.25,0,0,1-.09-.13,1.08,1.08,0,0,1,0-.21,1.14,1.14,0,0,1,0-.27,1.39,1.39,0,0,1,0-.32.45.45,0,0,1,.12-.21,1.46,1.46,0,0,1,.32-.21c.15-.07.33-.14.53-.21s.43-.11.67-.16a4.44,4.44,0,0,1,.74-.06,4.33,4.33,0,0,1,1.16.14,2,2,0,0,1,.8.4,1.64,1.64,0,0,1,.45.71,3.21,3.21,0,0,1,.14,1ZM128.63,61H128a3.37,3.37,0,0,0-.68.06,1.57,1.57,0,0,0-.45.17.77.77,0,0,0-.26.28.92.92,0,0,0-.08.38.72.72,0,0,0,.23.57.93.93,0,0,0,.64.21,1.24,1.24,0,0,0,.63-.17,2.68,2.68,0,0,0,.59-.51Z"/><path d="M133.52,62.76a1.08,1.08,0,0,1-.22.81,1.05,1.05,0,0,1-.75.21.79.79,0,0,1-1-1,1.14,1.14,0,0,1,.21-.81,1.06,1.06,0,0,1,.76-.21.79.79,0,0,1,1,1Z"/></svg>