<svg id="Capa_1" data-name="Capa 1" xmlns="http://www.w3.org/2000/svg" viewBox="0 0 178.26 117.65"><defs><style>.cls-1{opacity:0.3;}.cls-2{fill:#fff;}.cls-3{fill:#949699;}.cls-4{fill:#241f20;}.cls-5{stroke:#000;stroke-miterlimit:10;stroke-width:0.24px;}</style></defs><path class="cls-1" d="M6.48,17.47C14,7.13,31.68,10.78,45.16,10.76c2.41,0,4.89-.12,7.41-.22,17.65-.68,37.52-2.34,53.89-1.13a94.43,94.43,0,0,1,11,1.41c32.51,10,21,45.51,19.08,64.22,4.87,5.42,14.29,12.16,31.61,13.75,0,0-17.41,1.26-30.9,5.19-.6,7-3.69,13.4-15.31,17.84a40.55,40.55,0,0,1-9.27,1c-3.44.11-6.78.12-10.08.07s-6.56-.15-9.82-.26a248,248,0,0,0-29,0l-7.25.29c-16-.37-37.62,5.82-46.45-7.25-11.22-15.83-4-35.09-6.67-52.72-.27-1.94-.53-3.87-.69-5.77C2.28,41.45,2.7,22.34,6.48,17.47Z"/><path class="cls-2" d="M11.54,11.39C19.1,1.05,36.74,4.7,50.22,4.68c2.42,0,4.9-.13,7.42-.22,17.65-.69,37.52-2.34,53.89-1.13a96.21,96.21,0,0,1,11,1.4c28.54,8.75,23.12,40.34,20.11,57.25-.89,5,1.48,10,6.19,13.06,5.49,3.53,13.33,6.65,24.4,7.67a194,194,0,0,0-24.43,3.54,9.56,9.56,0,0,0-7.32,6.22c-1.56,5.17-5.44,9.82-14.46,13.26a41.1,41.1,0,0,1-9.27,1c-3.44.11-6.79.11-10.09.06s-6.55-.15-9.81-.26a250.18,250.18,0,0,0-29,0c-2.42.1-4.84.21-7.26.3-16-.38-37.62,5.81-46.44-7.26C4,83.74,11.18,64.47,8.52,46.84,8.25,44.9,8,43,7.82,41.07,7.34,35.37,7.76,16.25,11.54,11.39Z"/><path class="cls-3" d="M143.09,67.83a12.44,12.44,0,0,1-3.44-10.78c1.74-9.74,4.26-33.46.65-41.93,7.68,9.3,4.45,35.15,2.36,46.86A11.81,11.81,0,0,0,143.09,67.83Z"/><path class="cls-3" d="M58.63,101.88l7.25-.29a250.19,250.19,0,0,1,29,0c3.26.11,6.52.22,9.82.27s6.64,0,10.08-.07a40.55,40.55,0,0,0,9.27-1c9-3.45,12.9-8.1,14.47-13.27a9.56,9.56,0,0,1,7.32-6.22c3.94-.87,7.93-1.55,11.51-2.07a61.5,61.5,0,0,0,15.92,3.47,194,194,0,0,0-24.43,3.54,9.56,9.56,0,0,0-7.32,6.22c-1.56,5.17-5.44,9.82-14.46,13.26a41.1,41.1,0,0,1-9.27,1c-3.44.11-6.79.11-10.09.06s-6.55-.15-9.81-.26a250.18,250.18,0,0,0-29,0c-2.42.1-4.84.21-7.26.3-16-.38-37.62,5.81-46.44-7.26a32.77,32.77,0,0,1-2.66-4.46C21.56,107.53,42.86,101.51,58.63,101.88Z"/><path class="cls-4" d="M14.37,100C6.91,89.48,7.43,77.37,7.94,65.65c.27-6.2.54-12.62-.38-18.71C7.29,45,7,43,6.87,41.13,6.43,36,6.55,16.34,10.74,10.94c6.32-8.63,19.37-8,30.88-7.38,3,.15,5.89.3,8.58.3,2.25,0,4.66-.12,7.39-.23,4.26-.16,8.76-.39,13.1-.61,14-.7,28.44-1.43,40.92-.51a95.54,95.54,0,0,1,11.16,1.42l.11,0c27.45,8.41,24.34,38.74,21.33,54.88q-.32,1.63-.6,3.27c-.84,4.71,1.39,9.42,5.81,12.27,6.39,4.11,12.51,6.43,22,7.3l4.4.5c-.12,0-14.77,2.6-26.55,5.2-3.25.72-6,2.54-6.83,5.3-1.89,6.23-6.66,10.62-15,13.81l-.15,0a42.21,42.21,0,0,1-9.48,1c-3.14.1-6.46.12-10.13.07-3.4,0-6.72-.16-9.88-.27-9.28-.69-18.56-.39-28.86,0l-1.55.07-5.77.23c-4-.09-8.22.22-12.72.55-4.07.3-8.19.6-12.14.6C27.53,108.79,19.2,107.15,14.37,100Zm47.22,6,5.69-.23,1.56-.07c10.37-.43,19.72-.73,29.07,0,3.1.1,6.41.21,9.79.26,3.64.06,6.92,0,10.07-.07a39.79,39.79,0,0,0,9-.9c7.73-3,12.13-7,13.86-12.7a10.44,10.44,0,0,1,8-6.81c6.39-1.41,13-2.33,17.69-2.88a50.5,50.5,0,0,1-18-6.88c-5-3.21-7.51-8.51-6.56-13.83.19-1.09.4-2.18.6-3.28,3-16.17,5.87-45.09-20-53.06a95.37,95.37,0,0,0-10.84-1.37C99.1,3.24,84.72,4,70.8,4.66c-4.35.22-8.85.45-13.12.62-2.74.1-5.17.18-7.45.22-2.78,0-5.67-.14-8.72-.3C30,4.62,18.07,4,12.35,11.82v0c-3.87,5-4,24.29-3.56,29.17.16,1.86.42,3.77.69,5.73.94,6.22.66,12.7.39,19-.52,12-1,23.32,6.16,33.43,6.3,9.33,19.72,8.35,32.71,7.4,4-.29,7.78-.57,11.35-.57Z"/><path class="cls-5" d="M31.6,26.84a2.54,2.54,0,0,1,.14-.86,1.94,1.94,0,0,1,.39-.67,1.75,1.75,0,0,1,.59-.45,2.45,2.45,0,0,1,.77-.22l0-1.14c0-.07.06-.12.17-.16a1.72,1.72,0,0,1,.46-.05h.33a.94.94,0,0,1,.2,0,.27.27,0,0,1,.12.07.23.23,0,0,1,0,.1l0,1.38a1.37,1.37,0,0,1,0,.31.33.33,0,0,1-.24.28.69.69,0,0,1-.22,0h-.08a1.27,1.27,0,0,0-.54.1,1,1,0,0,0-.37.26.92.92,0,0,0-.21.39,1.41,1.41,0,0,0-.07.47,1.6,1.6,0,0,0,.08.51,1,1,0,0,0,.24.41,1.11,1.11,0,0,0,.4.26,1.66,1.66,0,0,0,.57.09,2.09,2.09,0,0,0,.53-.06,2.54,2.54,0,0,0,.39-.13,1.71,1.71,0,0,0,.27-.13.37.37,0,0,1,.17-.05.12.12,0,0,1,.08,0,.29.29,0,0,1,.06.1c0,.05,0,.11,0,.2a2.58,2.58,0,0,1,0,.32,1.9,1.9,0,0,1,0,.3.34.34,0,0,1-.07.16,1.31,1.31,0,0,1-.23.13,2.45,2.45,0,0,1-.39.15,5,5,0,0,1-.51.11,3.68,3.68,0,0,1-.58.05A3.27,3.27,0,0,1,33,29a2.39,2.39,0,0,1-.8-.51,2,2,0,0,1-.46-.74A2.58,2.58,0,0,1,31.6,26.84Zm1.74-5a2.37,2.37,0,0,1,0-.41.55.55,0,0,1,.14-.26.5.5,0,0,1,.26-.14,1.37,1.37,0,0,1,.39-.05,1.58,1.58,0,0,1,.41.05.56.56,0,0,1,.25.14.53.53,0,0,1,.13.26,2.12,2.12,0,0,1,0,.82.57.57,0,0,1-.13.27.58.58,0,0,1-.25.15,2.27,2.27,0,0,1-.41,0,2,2,0,0,1-.39,0,.51.51,0,0,1-.26-.15.58.58,0,0,1-.14-.27A2.37,2.37,0,0,1,33.34,21.83Z"/><path class="cls-5" d="M39.9,25.16v2.67a.17.17,0,0,1,0,.1.32.32,0,0,1-.13.08l-.24,0a2,2,0,0,1-.37,0,2,2,0,0,1-.37,0,1.19,1.19,0,0,1-.24,0,.32.32,0,0,1-.13-.08.17.17,0,0,1,0-.1V25.16L36.29,21a1.68,1.68,0,0,1-.15-.34.16.16,0,0,1,0-.18.43.43,0,0,1,.25-.08h.93a1.18,1.18,0,0,1,.25,0,.31.31,0,0,1,.14.09.73.73,0,0,1,.09.13l.84,1.86q.12.27.24.57l.25.63h0c.07-.21.15-.42.23-.62s.15-.38.22-.56l.83-1.85a.35.35,0,0,1,.08-.15.25.25,0,0,1,.13-.09.72.72,0,0,1,.24,0h.92a.43.43,0,0,1,.25.08.16.16,0,0,1,0,.18A2.76,2.76,0,0,1,42,21Z"/><path class="cls-5" d="M48.78,27.32a2,2,0,0,1,0,.4.37.37,0,0,1-.09.19.36.36,0,0,1-.15.1l-.24.08-.3.05h-.32a2.14,2.14,0,0,1-.76-.11,1.16,1.16,0,0,1-.54-.34,1.47,1.47,0,0,1-.31-.58,3.37,3.37,0,0,1-.1-.83V23.61h-.62c-.08,0-.13,0-.17-.14a1.21,1.21,0,0,1-.06-.45,2.44,2.44,0,0,1,0-.29.74.74,0,0,1,0-.19.22.22,0,0,1,.07-.09.17.17,0,0,1,.1,0h.62V21.25a.13.13,0,0,1,0-.1.24.24,0,0,1,.11-.08l.23-.05H47a1,1,0,0,1,.23.05.36.36,0,0,1,.12.08.17.17,0,0,1,0,.1v1.17h1.14a.17.17,0,0,1,.1,0,.22.22,0,0,1,.07.09.74.74,0,0,1,.05.19,2.44,2.44,0,0,1,0,.29,1.21,1.21,0,0,1-.06.45c0,.1-.09.14-.17.14H47.41v2.45a1.26,1.26,0,0,0,.14.65.53.53,0,0,0,.48.21l.21,0,.16,0,.13,0a.15.15,0,0,1,.09,0,.11.11,0,0,1,.07,0s0,0,.05.08a1.57,1.57,0,0,1,0,.16A2.1,2.1,0,0,1,48.78,27.32Z"/><path class="cls-5" d="M54.8,27.84a.17.17,0,0,1,0,.1.2.2,0,0,1-.1.07.83.83,0,0,1-.2,0h-.61a.74.74,0,0,1-.19,0,.2.2,0,0,1-.1-.07.17.17,0,0,1,0-.1v-.6a3.42,3.42,0,0,1-.88.7,2.06,2.06,0,0,1-.93.23,2.16,2.16,0,0,1-.9-.17,1.56,1.56,0,0,1-.59-.48,2.11,2.11,0,0,1-.33-.71,4.68,4.68,0,0,1-.09-1V22.62a.2.2,0,0,1,0-.11.31.31,0,0,1,.12-.07,1,1,0,0,1,.23,0l.35,0,.36,0,.22,0a.31.31,0,0,1,.12.07.15.15,0,0,1,0,.11v2.95a2.51,2.51,0,0,0,.05.62,1.09,1.09,0,0,0,.16.38.73.73,0,0,0,.28.24.92.92,0,0,0,.38.08,1,1,0,0,0,.57-.2,3.38,3.38,0,0,0,.6-.6V22.62a.21.21,0,0,1,0-.11.35.35,0,0,1,.11-.07l.23,0,.36,0,.35,0,.23,0a.35.35,0,0,1,.11.07.15.15,0,0,1,0,.11Zm-2.19-7.79a.4.4,0,0,1,.25-.18,1,1,0,0,1,.22,0h.33l.42,0a.63.63,0,0,1,.22.07c.05,0,.07.06.06.1a.27.27,0,0,1,0,.13l-1.14,1.35-.09.1a.34.34,0,0,1-.12.06l-.19,0h-.28l-.32,0a.3.3,0,0,1-.17-.06.08.08,0,0,1,0-.09.73.73,0,0,1,.06-.14Z"/><path class="cls-5" d="M63.94,29.91a.23.23,0,0,1,0,.11.35.35,0,0,1-.12.07.65.65,0,0,1-.22.05,3.25,3.25,0,0,1-.72,0,.6.6,0,0,1-.22-.05.22.22,0,0,1-.12-.07.23.23,0,0,1,0-.11V27.43c-.14.13-.28.24-.41.34a2.73,2.73,0,0,1-.4.23,2,2,0,0,1-.41.13,2.12,2.12,0,0,1-.44,0,2,2,0,0,1-1-.23,1.87,1.87,0,0,1-.66-.62,2.82,2.82,0,0,1-.37-.92,4.94,4.94,0,0,1-.12-1.1,4.76,4.76,0,0,1,.15-1.25,2.62,2.62,0,0,1,.45-.95,1.93,1.93,0,0,1,.72-.61,2.19,2.19,0,0,1,1-.21,1.84,1.84,0,0,1,.41,0,1.63,1.63,0,0,1,.4.15,3,3,0,0,1,.41.28,5.77,5.77,0,0,1,.47.43v-.57a.15.15,0,0,1,0-.11.29.29,0,0,1,.1-.07l.19,0,.31,0,.29,0a.69.69,0,0,1,.19,0,.29.29,0,0,1,.1.07.2.2,0,0,1,0,.11Zm-1.46-5.56a2.92,2.92,0,0,0-.61-.61,1,1,0,0,0-.6-.21.89.89,0,0,0-.5.14,1,1,0,0,0-.33.39,1.86,1.86,0,0,0-.19.53,3.08,3.08,0,0,0-.06.61,4.48,4.48,0,0,0,.05.64,2.09,2.09,0,0,0,.17.55,1.12,1.12,0,0,0,.32.39.83.83,0,0,0,.51.14.92.92,0,0,0,.29,0,1.11,1.11,0,0,0,.29-.14,2.38,2.38,0,0,0,.31-.26,5.24,5.24,0,0,0,.35-.4Z"/><path class="cls-5" d="M70.37,27.84a.17.17,0,0,1,0,.1.2.2,0,0,1-.1.07.74.74,0,0,1-.19,0h-.62a.74.74,0,0,1-.19,0,.26.26,0,0,1-.1-.07.16.16,0,0,1,0-.1v-.6a3.46,3.46,0,0,1-.89.7,2,2,0,0,1-.92.23A2.24,2.24,0,0,1,66.4,28a1.64,1.64,0,0,1-.59-.48,1.91,1.91,0,0,1-.32-.71,4.06,4.06,0,0,1-.1-1V22.62a.2.2,0,0,1,0-.11l.12-.07.23,0,.35,0,.36,0,.23,0,.12.07a.2.2,0,0,1,0,.11v2.95a3.13,3.13,0,0,0,0,.62,1.32,1.32,0,0,0,.16.38.92.92,0,0,0,.28.24.93.93,0,0,0,.39.08,1,1,0,0,0,.56-.2,3.4,3.4,0,0,0,.61-.6V22.62a.2.2,0,0,1,0-.11.31.31,0,0,1,.12-.07l.22,0,.36,0,.36,0a1,1,0,0,1,.22,0,.31.31,0,0,1,.12.07.2.2,0,0,1,0,.11Z"/><path class="cls-5" d="M76.68,25.08a.55.55,0,0,1-.12.39.42.42,0,0,1-.33.13H73.05a1.92,1.92,0,0,0,.08.61,1.09,1.09,0,0,0,.25.46,1.06,1.06,0,0,0,.44.29,1.87,1.87,0,0,0,.66.1,3.51,3.51,0,0,0,.68-.06,2.83,2.83,0,0,0,.5-.12l.36-.12a.61.61,0,0,1,.22-.06l.09,0a.17.17,0,0,1,.06.08.28.28,0,0,1,0,.15,1.63,1.63,0,0,1,0,.24v.22c0,.06,0,.11,0,.15a.28.28,0,0,1,0,.11.24.24,0,0,1-.06.09.85.85,0,0,1-.21.11,3.28,3.28,0,0,1-.43.13,4.54,4.54,0,0,1-.6.12,4.26,4.26,0,0,1-.73.05A4.08,4.08,0,0,1,73.12,28a2.14,2.14,0,0,1-.87-.54,2.18,2.18,0,0,1-.53-.9,4.39,4.39,0,0,1-.17-1.27A4.08,4.08,0,0,1,71.73,24a2.66,2.66,0,0,1,.53-1,2.17,2.17,0,0,1,.84-.59,2.82,2.82,0,0,1,1.11-.21,2.88,2.88,0,0,1,1.12.2,2,2,0,0,1,.77.53,2.27,2.27,0,0,1,.44.81,3.7,3.7,0,0,1,.14,1Zm-1.43-.43a1.51,1.51,0,0,0-.25-1,1,1,0,0,0-.82-.35,1.07,1.07,0,0,0-.49.1,1.2,1.2,0,0,0-.35.28,1.33,1.33,0,0,0-.21.43,2.09,2.09,0,0,0-.08.51Zm-.83-4.6a.4.4,0,0,1,.25-.18l.22,0h.33l.42,0a.7.7,0,0,1,.23.07.12.12,0,0,1,.06.1.3.3,0,0,1-.06.13l-1.14,1.35-.09.1a.23.23,0,0,1-.12.06l-.18,0h-.28l-.33,0a.3.3,0,0,1-.17-.06.08.08,0,0,1,0-.09.27.27,0,0,1,.06-.14Z"/><path class="cls-5" d="M85.85,25.15a5.34,5.34,0,0,1-.14,1.26,2.88,2.88,0,0,1-.44.95,2,2,0,0,1-.71.6,2.24,2.24,0,0,1-1,.21,1.87,1.87,0,0,1-.42,0,1.66,1.66,0,0,1-.37-.14,1.86,1.86,0,0,1-.35-.22c-.12-.09-.24-.2-.37-.32v2.46A.23.23,0,0,1,82,30a.22.22,0,0,1-.12.07.66.66,0,0,1-.23.05,1.78,1.78,0,0,1-.35,0,1.84,1.84,0,0,1-.36,0,.71.71,0,0,1-.23-.05.35.35,0,0,1-.12-.07.23.23,0,0,1,0-.11V22.62a.2.2,0,0,1,0-.11.29.29,0,0,1,.1-.07l.19,0,.31,0,.29,0,.19,0a.35.35,0,0,1,.11.07.2.2,0,0,1,0,.11v.61c.15-.15.3-.29.44-.41a2.93,2.93,0,0,1,.45-.3,2.07,2.07,0,0,1,.47-.18,2.18,2.18,0,0,1,.52-.06,2,2,0,0,1,1,.23,1.87,1.87,0,0,1,.66.62,2.76,2.76,0,0,1,.37.91A5,5,0,0,1,85.85,25.15Zm-1.53.11a4.37,4.37,0,0,0,0-.64,1.77,1.77,0,0,0-.17-.55,1,1,0,0,0-.31-.38.79.79,0,0,0-.49-.15.93.93,0,0,0-.29.05,1,1,0,0,0-.3.14,2.21,2.21,0,0,0-.3.26,2.79,2.79,0,0,0-.34.39V26.1a4.35,4.35,0,0,0,.59.61,1,1,0,0,0,.59.21.81.81,0,0,0,.49-.15,1.12,1.12,0,0,0,.33-.38,1.82,1.82,0,0,0,.19-.54A2.88,2.88,0,0,0,84.32,25.26Z"/><path class="cls-5" d="M88.62,20.85a.81.81,0,0,1-.18.61,1,1,0,0,1-.68.17,1,1,0,0,1-.67-.16.83.83,0,0,1-.17-.59.85.85,0,0,1,.18-.62,1,1,0,0,1,.67-.17,1,1,0,0,1,.67.17A.77.77,0,0,1,88.62,20.85Zm-.11,7a.18.18,0,0,1,0,.1.22.22,0,0,1-.12.07,1,1,0,0,1-.22,0h-.72a.9.9,0,0,1-.22,0,.22.22,0,0,1-.12-.07.13.13,0,0,1,0-.1V22.63a.13.13,0,0,1,0-.1.23.23,0,0,1,.12-.08.9.9,0,0,1,.22-.05l.36,0,.36,0a1,1,0,0,1,.22.05.23.23,0,0,1,.12.08.18.18,0,0,1,0,.1Z"/><path class="cls-5" d="M94.8,25.08a.55.55,0,0,1-.12.39.42.42,0,0,1-.33.13H91.17a2.25,2.25,0,0,0,.08.61,1.21,1.21,0,0,0,.25.46A1.1,1.1,0,0,0,92,27a1.78,1.78,0,0,0,.65.1,3.44,3.44,0,0,0,.68-.06,2.83,2.83,0,0,0,.5-.12,3,3,0,0,0,.36-.12.6.6,0,0,1,.23-.06l.08,0a.12.12,0,0,1,.06.08.28.28,0,0,1,0,.15,1.63,1.63,0,0,1,0,.24v.22c0,.06,0,.11,0,.15a.28.28,0,0,1,0,.11.24.24,0,0,1-.06.09.92.92,0,0,1-.2.11,4.09,4.09,0,0,1-.44.13,5.21,5.21,0,0,1-1.33.17A4.08,4.08,0,0,1,91.24,28a2.14,2.14,0,0,1-.87-.54,2.18,2.18,0,0,1-.53-.9,4.39,4.39,0,0,1-.17-1.27A4.08,4.08,0,0,1,89.85,24a2.66,2.66,0,0,1,.53-1,2.17,2.17,0,0,1,.84-.59,3.13,3.13,0,0,1,2.23,0,2,2,0,0,1,.77.53,2.27,2.27,0,0,1,.44.81,3.7,3.7,0,0,1,.14,1Zm-1.43-.43a1.51,1.51,0,0,0-.25-1,1,1,0,0,0-.82-.35,1.07,1.07,0,0,0-.49.1,1,1,0,0,0-.34.28,1.17,1.17,0,0,0-.22.43,2.72,2.72,0,0,0-.08.51Z"/><path class="cls-5" d="M101,27.84a.13.13,0,0,1,0,.1.22.22,0,0,1-.12.07.9.9,0,0,1-.22,0h-.71a.89.89,0,0,1-.23,0,.27.27,0,0,1-.12-.07.17.17,0,0,1,0-.1v-3a2.41,2.41,0,0,0-.06-.6,1.25,1.25,0,0,0-.16-.37.78.78,0,0,0-.27-.24.8.8,0,0,0-.39-.08.94.94,0,0,0-.57.2,3.06,3.06,0,0,0-.59.6v3.47a.18.18,0,0,1,0,.1.22.22,0,0,1-.12.07,1,1,0,0,1-.23,0h-.71l-.23,0a.35.35,0,0,1-.12-.07.17.17,0,0,1,0-.1V22.62a.2.2,0,0,1,0-.11.29.29,0,0,1,.1-.07l.2,0,.3,0,.31,0a.69.69,0,0,1,.19,0,.29.29,0,0,1,.1.07.2.2,0,0,1,0,.11v.6a3.22,3.22,0,0,1,.88-.7,2,2,0,0,1,.93-.24,2,2,0,0,1,.9.18,1.56,1.56,0,0,1,.59.48,2,2,0,0,1,.33.7,4.45,4.45,0,0,1,.1,1Z"/><path class="cls-5" d="M106.12,26.36a1.8,1.8,0,0,1-.17.79,1.71,1.71,0,0,1-.47.57,2.18,2.18,0,0,1-.72.34,3.7,3.7,0,0,1-.9.11,3.36,3.36,0,0,1-.56,0,4.32,4.32,0,0,1-.48-.11,3.17,3.17,0,0,1-.35-.14,1,1,0,0,1-.2-.13.34.34,0,0,1-.1-.2,1.24,1.24,0,0,1,0-.39c0-.11,0-.2,0-.27a.62.62,0,0,1,0-.16.1.1,0,0,1,.06-.08.11.11,0,0,1,.08,0,.43.43,0,0,1,.2.07l.31.16a3,3,0,0,0,.43.16,1.71,1.71,0,0,0,.57.08,1.25,1.25,0,0,0,.35,0,.85.85,0,0,0,.27-.12.47.47,0,0,0,.18-.19.76.76,0,0,0,.05-.27.44.44,0,0,0-.1-.3.93.93,0,0,0-.29-.22l-.4-.18-.47-.18a2.82,2.82,0,0,1-.46-.23,1.72,1.72,0,0,1-.4-.31,1.51,1.51,0,0,1-.29-.45,1.73,1.73,0,0,1-.11-.63,1.57,1.57,0,0,1,.57-1.23,1.92,1.92,0,0,1,.67-.34,3,3,0,0,1,.89-.13,3.57,3.57,0,0,1,.47,0,2.2,2.2,0,0,1,.42.09,1.69,1.69,0,0,1,.32.11.82.82,0,0,1,.18.11s.07.05.08.08a.36.36,0,0,1,0,.11,1,1,0,0,0,0,.15v.48a1.57,1.57,0,0,1,0,.16s0,.07-.06.08a.11.11,0,0,1-.08,0,.4.4,0,0,1-.16-.06l-.28-.13a2.54,2.54,0,0,0-.39-.13,1.85,1.85,0,0,0-.5-.06,1.13,1.13,0,0,0-.34,0,.53.53,0,0,0-.24.11.4.4,0,0,0-.14.18.42.42,0,0,0,0,.22.49.49,0,0,0,.11.31.94.94,0,0,0,.29.21l.42.18a4.37,4.37,0,0,1,.46.18,4,4,0,0,1,.47.22,1.62,1.62,0,0,1,.41.32,1.48,1.48,0,0,1,.3.45A1.58,1.58,0,0,1,106.12,26.36Z"/><path class="cls-5" d="M111.67,27.86a.14.14,0,0,1-.06.12.3.3,0,0,1-.18.07,1.84,1.84,0,0,1-.37,0,2,2,0,0,1-.39,0,.22.22,0,0,1-.16-.07.13.13,0,0,1-.05-.12v-.42a2.43,2.43,0,0,1-.74.54,2.1,2.1,0,0,1-.92.19,2.33,2.33,0,0,1-.76-.11,1.73,1.73,0,0,1-.6-.32,1.52,1.52,0,0,1-.4-.53,1.84,1.84,0,0,1-.14-.74,1.67,1.67,0,0,1,.18-.79,1.57,1.57,0,0,1,.53-.56,2.84,2.84,0,0,1,.88-.32,6.44,6.44,0,0,1,1.23-.1h.51v-.32a1.75,1.75,0,0,0,0-.43.78.78,0,0,0-.17-.31.64.64,0,0,0-.3-.18,1.58,1.58,0,0,0-.47-.06,2.59,2.59,0,0,0-.66.08l-.51.18-.37.19a.59.59,0,0,1-.25.08.21.21,0,0,1-.11,0,.36.36,0,0,1-.08-.12.74.74,0,0,1-.05-.19,1.66,1.66,0,0,1,0-.24,1.12,1.12,0,0,1,0-.29.52.52,0,0,1,.11-.19,1,1,0,0,1,.29-.19,2.82,2.82,0,0,1,.48-.19,4.43,4.43,0,0,1,.6-.14,3.63,3.63,0,0,1,.67-.06,4,4,0,0,1,1,.12,1.77,1.77,0,0,1,.71.37,1.39,1.39,0,0,1,.41.64,2.9,2.9,0,0,1,.13.93Zm-1.44-2.24h-.56a3.4,3.4,0,0,0-.61.05,1.21,1.21,0,0,0-.41.16.6.6,0,0,0-.23.25.78.78,0,0,0-.08.35.64.64,0,0,0,.21.51.81.81,0,0,0,.58.19,1.07,1.07,0,0,0,.57-.16,2.38,2.38,0,0,0,.53-.46Z"/><path class="cls-5" d="M116.82,26.36a1.8,1.8,0,0,1-.17.79,1.71,1.71,0,0,1-.47.57,2.18,2.18,0,0,1-.72.34,3.7,3.7,0,0,1-.9.11,3.36,3.36,0,0,1-.56,0,4.32,4.32,0,0,1-.48-.11,3.17,3.17,0,0,1-.35-.14,1,1,0,0,1-.2-.13.34.34,0,0,1-.1-.2,1.24,1.24,0,0,1,0-.39c0-.11,0-.2,0-.27a.62.62,0,0,1,0-.16.1.1,0,0,1,.06-.08s0,0,.09,0a.44.44,0,0,1,.19.07l.31.16A3,3,0,0,0,114,27a1.71,1.71,0,0,0,.57.08,1.25,1.25,0,0,0,.35,0,.85.85,0,0,0,.27-.12.47.47,0,0,0,.18-.19.59.59,0,0,0,0-.27.44.44,0,0,0-.1-.3A.93.93,0,0,0,115,26l-.4-.18-.47-.18a2.82,2.82,0,0,1-.46-.23,1.72,1.72,0,0,1-.4-.31,1.51,1.51,0,0,1-.29-.45,1.73,1.73,0,0,1-.11-.63,1.57,1.57,0,0,1,.57-1.23,1.92,1.92,0,0,1,.67-.34,3,3,0,0,1,.89-.13,3.57,3.57,0,0,1,.47,0,2.2,2.2,0,0,1,.42.09,1.69,1.69,0,0,1,.32.11.82.82,0,0,1,.18.11s.07.05.08.08a.36.36,0,0,1,0,.11,1,1,0,0,0,0,.15c0,.06,0,.14,0,.23s0,.19,0,.25a1.57,1.57,0,0,1,0,.16s0,.07-.06.08a.11.11,0,0,1-.08,0,.4.4,0,0,1-.16-.06l-.28-.13a2.54,2.54,0,0,0-.39-.13,1.85,1.85,0,0,0-.5-.06,1.13,1.13,0,0,0-.34,0,.53.53,0,0,0-.24.11.4.4,0,0,0-.14.18.42.42,0,0,0,0,.22.49.49,0,0,0,.11.31.94.94,0,0,0,.29.21l.42.18a4.37,4.37,0,0,1,.46.18A4,4,0,0,1,116,25a1.62,1.62,0,0,1,.41.32,1.48,1.48,0,0,1,.3.45A1.58,1.58,0,0,1,116.82,26.36Z"/><path class="cls-5" d="M122.26,22.25a2.65,2.65,0,0,1-.14.87,1.94,1.94,0,0,1-.39.67,1.75,1.75,0,0,1-.59.45,2.74,2.74,0,0,1-.77.22l-.05,1.14c0,.07-.06.12-.17.15a1.38,1.38,0,0,1-.46.06h-.33l-.21,0a.19.19,0,0,1-.15-.17l0-1.39a1.32,1.32,0,0,1,0-.3.37.37,0,0,1,.08-.19.28.28,0,0,1,.16-.09.69.69,0,0,1,.22,0h.08a1.27,1.27,0,0,0,.54-.1,1.12,1.12,0,0,0,.37-.26.92.92,0,0,0,.21-.39,1.49,1.49,0,0,0,.07-.47,1.72,1.72,0,0,0-.08-.52,1,1,0,0,0-.24-.4,1.11,1.11,0,0,0-.4-.26,1.7,1.7,0,0,0-.57-.09,2.09,2.09,0,0,0-.53.06l-.39.12-.28.13a.35.35,0,0,1-.16.06l-.08,0a.29.29,0,0,1-.06-.1,1.73,1.73,0,0,1,0-.2c0-.09,0-.2,0-.33a2.11,2.11,0,0,1,0-.3.26.26,0,0,1,.07-.15,1.21,1.21,0,0,1,.23-.14,2.49,2.49,0,0,1,.39-.14,3.19,3.19,0,0,1,.51-.12,3.69,3.69,0,0,1,.58,0,3.27,3.27,0,0,1,1.19.19,2.12,2.12,0,0,1,.8.51,2,2,0,0,1,.46.74A2.53,2.53,0,0,1,122.26,22.25Zm-1.74,5a2.17,2.17,0,0,1,0,.4.69.69,0,0,1-.14.27.59.59,0,0,1-.26.14,1.46,1.46,0,0,1-.39,0,1.58,1.58,0,0,1-.41,0,.61.61,0,0,1-.25-.14.57.57,0,0,1-.13-.27,1.49,1.49,0,0,1,0-.4,1.62,1.62,0,0,1,0-.41.57.57,0,0,1,.13-.27.53.53,0,0,1,.25-.15,1.58,1.58,0,0,1,.41,0,1.46,1.46,0,0,1,.39,0,.51.51,0,0,1,.26.15.69.69,0,0,1,.14.27A2.37,2.37,0,0,1,120.52,27.27Z"/><path class="cls-5" d="M29.46,39.29a2.41,2.41,0,0,1,.14-.87,2.09,2.09,0,0,1,.38-.67,1.89,1.89,0,0,1,.6-.45,2.65,2.65,0,0,1,.77-.22l0-1.14c0-.07.06-.12.16-.15a1.41,1.41,0,0,1,.47-.06h.32l.21,0a.23.23,0,0,1,.11.07.13.13,0,0,1,0,.1l.06,1.39a2.36,2.36,0,0,1,0,.3.48.48,0,0,1-.09.19.29.29,0,0,1-.15.09.73.73,0,0,1-.22,0H32.2a1.25,1.25,0,0,0-.53.1,1,1,0,0,0-.37.26,1.07,1.07,0,0,0-.22.39,1.84,1.84,0,0,0-.06.47,1.72,1.72,0,0,0,.07.52,1.33,1.33,0,0,0,.24.4,1.15,1.15,0,0,0,.41.26,1.62,1.62,0,0,0,.57.09,2.15,2.15,0,0,0,.53-.06l.39-.12.27-.13a.38.38,0,0,1,.17-.06l.07,0a.14.14,0,0,1,.06.1.77.77,0,0,1,0,.2,3.22,3.22,0,0,1,0,.33,2.45,2.45,0,0,1,0,.3.36.36,0,0,1-.08.15,1.05,1.05,0,0,1-.22.14,2.49,2.49,0,0,1-.39.14,3.42,3.42,0,0,1-1.1.16,3.21,3.21,0,0,1-1.18-.19,2.08,2.08,0,0,1-.81-.51,1.94,1.94,0,0,1-.45-.74A2.53,2.53,0,0,1,29.46,39.29Zm1.73-5a1.54,1.54,0,0,1,0-.4.57.57,0,0,1,.13-.27.65.65,0,0,1,.26-.14,1.5,1.5,0,0,1,.4-.05,1.45,1.45,0,0,1,.4.05.55.55,0,0,1,.25.14.58.58,0,0,1,.14.27,2.15,2.15,0,0,1,0,.4,2.27,2.27,0,0,1,0,.41.58.58,0,0,1-.14.27.48.48,0,0,1-.25.15,1.49,1.49,0,0,1-.4,0,1.54,1.54,0,0,1-.4,0,.56.56,0,0,1-.26-.15.57.57,0,0,1-.13-.27A1.62,1.62,0,0,1,31.19,34.27Z"/><path class="cls-5" d="M39.84,38.21a2.32,2.32,0,0,1-.22,1A2.21,2.21,0,0,1,39,40a2.67,2.67,0,0,1-.89.45,3.88,3.88,0,0,1-1.09.16,4.11,4.11,0,0,1-.73-.07,3.61,3.61,0,0,1-.59-.15l-.44-.19A1.47,1.47,0,0,1,35,40a.42.42,0,0,1-.11-.22,2.15,2.15,0,0,1,0-.41,2.82,2.82,0,0,1,0-.31.88.88,0,0,1,0-.2.15.15,0,0,1,.07-.1.12.12,0,0,1,.1,0,.58.58,0,0,1,.23.1,4,4,0,0,0,.38.21,3.85,3.85,0,0,0,.56.22,2.86,2.86,0,0,0,.75.09,2,2,0,0,0,.51-.06,1.17,1.17,0,0,0,.37-.19.79.79,0,0,0,.24-.31.87.87,0,0,0,.08-.4A.66.66,0,0,0,38.1,38a1.15,1.15,0,0,0-.36-.33,3.05,3.05,0,0,0-.51-.27l-.6-.27a4.83,4.83,0,0,1-.59-.32,2.59,2.59,0,0,1-.51-.42,2.19,2.19,0,0,1-.37-.59A2.21,2.21,0,0,1,35,35a2.06,2.06,0,0,1,.21-1,1.85,1.85,0,0,1,.54-.69,2.36,2.36,0,0,1,.81-.4,3.53,3.53,0,0,1,1-.14,4.91,4.91,0,0,1,.53,0l.51.11a3.19,3.19,0,0,1,.41.16,1,1,0,0,1,.24.15.31.31,0,0,1,.08.1.28.28,0,0,1,0,.11s0,.1,0,.17v.25a2.53,2.53,0,0,1,0,.29.92.92,0,0,1,0,.19.36.36,0,0,1-.06.11.18.18,0,0,1-.11,0,.45.45,0,0,1-.2-.09l-.35-.17a2.31,2.31,0,0,0-.47-.18,2.21,2.21,0,0,0-.59-.08,1.42,1.42,0,0,0-.44.06.83.83,0,0,0-.31.17.67.67,0,0,0-.19.26.88.88,0,0,0-.06.33.65.65,0,0,0,.14.43,1.45,1.45,0,0,0,.36.33c.16.09.33.18.53.27l.59.26a5.7,5.7,0,0,1,.6.32,2.17,2.17,0,0,1,.52.43,1.79,1.79,0,0,1,.37.59A2.1,2.1,0,0,1,39.84,38.21Z"/><path class="cls-5" d="M45.75,37.52a.58.58,0,0,1-.12.4.45.45,0,0,1-.33.12H42.12a2.25,2.25,0,0,0,.08.61,1.15,1.15,0,0,0,.26.46,1,1,0,0,0,.44.29,1.81,1.81,0,0,0,.65.1,4.4,4.4,0,0,0,.68,0,3.75,3.75,0,0,0,.51-.13l.35-.12a.6.6,0,0,1,.23-.05.13.13,0,0,1,.09,0,.14.14,0,0,1,.06.07,1,1,0,0,1,0,.15c0,.06,0,.14,0,.24a1.41,1.41,0,0,1,0,.22.78.78,0,0,1,0,.16.29.29,0,0,1,0,.1l-.06.09a.91.91,0,0,1-.21.11,3.64,3.64,0,0,1-.43.14l-.61.12a5.31,5.31,0,0,1-.72,0,3.73,3.73,0,0,1-1.22-.18,2.36,2.36,0,0,1-.88-.53A2.2,2.2,0,0,1,40.8,39a4,4,0,0,1-.17-1.27,4.12,4.12,0,0,1,.18-1.26,2.6,2.6,0,0,1,.52-.94,2.31,2.31,0,0,1,.84-.6,3.31,3.31,0,0,1,2.24,0,1.94,1.94,0,0,1,.76.54,2,2,0,0,1,.44.81,3.29,3.29,0,0,1,.14,1Zm-1.43-.42a1.52,1.52,0,0,0-.24-1,1,1,0,0,0-.83-.35,1,1,0,0,0-.48.1,1,1,0,0,0-.35.29,1.38,1.38,0,0,0-.21.42,2.09,2.09,0,0,0-.09.52Z"/><path class="cls-5" d="M50.32,35.55c0,.14,0,.25,0,.34a.87.87,0,0,1,0,.21.17.17,0,0,1-.06.11.15.15,0,0,1-.1,0l-.1,0-.13,0-.16,0-.2,0a.52.52,0,0,0-.24,0,1,1,0,0,0-.26.15,1.82,1.82,0,0,0-.27.28,4.67,4.67,0,0,0-.31.44v3.25a.17.17,0,0,1,0,.1.32.32,0,0,1-.13.08,1,1,0,0,1-.22,0l-.36,0-.35,0-.23,0a.23.23,0,0,1-.12-.08.18.18,0,0,1,0-.1V35.06a.17.17,0,0,1,0-.1.24.24,0,0,1,.11-.08l.2,0h.61l.19,0a.24.24,0,0,1,.09.08.17.17,0,0,1,0,.1v.65a3.63,3.63,0,0,1,.39-.48,2.15,2.15,0,0,1,.34-.3,1,1,0,0,1,.33-.16,1.24,1.24,0,0,1,.33,0h.16l.19,0,.16.05a.29.29,0,0,1,.1.06l.05.06,0,.1s0,.1,0,.18A3.23,3.23,0,0,1,50.32,35.55Z"/><path class="cls-5" d="M55.41,40.3a.16.16,0,0,1-.06.13.52.52,0,0,1-.18.07l-.37,0-.39,0a.46.46,0,0,1-.17-.07.19.19,0,0,1-.05-.13v-.42a2.39,2.39,0,0,1-.73.54,2.14,2.14,0,0,1-.92.2,2.63,2.63,0,0,1-.76-.11,1.75,1.75,0,0,1-.6-.33,1.37,1.37,0,0,1-.4-.52,1.91,1.91,0,0,1-.14-.74,1.69,1.69,0,0,1,.18-.8,1.47,1.47,0,0,1,.53-.55,2.61,2.61,0,0,1,.88-.33,6.33,6.33,0,0,1,1.22-.1H54v-.32a1.41,1.41,0,0,0-.05-.43.71.71,0,0,0-.16-.31.75.75,0,0,0-.3-.18,1.63,1.63,0,0,0-.47-.06,2.19,2.19,0,0,0-.66.09,2.86,2.86,0,0,0-.52.18,3.21,3.21,0,0,0-.37.18.6.6,0,0,1-.24.08.15.15,0,0,1-.11,0,.38.38,0,0,1-.09-.12c0-.05,0-.11-.05-.18a2,2,0,0,1,0-.25,1.12,1.12,0,0,1,0-.29.41.41,0,0,1,.11-.19,1,1,0,0,1,.28-.18,2.67,2.67,0,0,1,.48-.19,5.26,5.26,0,0,1,.6-.15,4.91,4.91,0,0,1,.67-.05,4.13,4.13,0,0,1,1.06.12,1.72,1.72,0,0,1,.71.37,1.29,1.29,0,0,1,.41.64,2.86,2.86,0,0,1,.13.93ZM54,38.06H53.4a2.68,2.68,0,0,0-.61.06,1.17,1.17,0,0,0-.41.15.71.71,0,0,0-.23.26.74.74,0,0,0-.07.34.67.67,0,0,0,.21.52.85.85,0,0,0,.57.18,1,1,0,0,0,.57-.16A2,2,0,0,0,54,39Zm-.51-5.56a.36.36,0,0,1,.1-.11.36.36,0,0,1,.15-.08,1,1,0,0,1,.22,0h.33a2.34,2.34,0,0,1,.42,0,.49.49,0,0,1,.22.06.1.1,0,0,1,.06.11.21.21,0,0,1-.05.12l-1.14,1.36-.09.09a.34.34,0,0,1-.12.06l-.19,0h-.28a1.42,1.42,0,0,1-.32,0,.43.43,0,0,1-.17,0,.1.1,0,0,1,0-.1.49.49,0,0,1,.06-.13Z"/><path class="cls-5" d="M64.54,42.35a.2.2,0,0,1,0,.11.36.36,0,0,1-.12.08,1,1,0,0,1-.22.05h-.72a.9.9,0,0,1-.22-.05.23.23,0,0,1-.12-.08.2.2,0,0,1,0-.11V39.87c-.14.13-.28.24-.41.34a2.73,2.73,0,0,1-.4.23,1.51,1.51,0,0,1-.41.13,2.12,2.12,0,0,1-.44,0,1.88,1.88,0,0,1-1.64-.86,2.82,2.82,0,0,1-.37-.92,5.2,5.2,0,0,1,0-2.35,2.7,2.7,0,0,1,.45-1,1.9,1.9,0,0,1,.72-.6,2.19,2.19,0,0,1,1-.21,1.84,1.84,0,0,1,.41,0,1.49,1.49,0,0,1,.4.15,4.29,4.29,0,0,1,.41.28,5.77,5.77,0,0,1,.47.43v-.57a.18.18,0,0,1,0-.1.21.21,0,0,1,.1-.08l.19,0h.6l.19,0a.21.21,0,0,1,.1.08.17.17,0,0,1,0,.1Zm-1.46-5.56a3.18,3.18,0,0,0-.61-.61,1,1,0,0,0-.6-.21.84.84,0,0,0-.5.15.94.94,0,0,0-.33.38,1.82,1.82,0,0,0-.19.54,2.91,2.91,0,0,0-.06.6,4.48,4.48,0,0,0,.05.64,2.17,2.17,0,0,0,.18.56,1,1,0,0,0,.31.38.83.83,0,0,0,.51.15.93.93,0,0,0,.29,0,1,1,0,0,0,.3-.14,1.74,1.74,0,0,0,.3-.26c.11-.11.22-.24.35-.39Z"/><path class="cls-5" d="M71,40.28a.3.3,0,0,1,0,.1.24.24,0,0,1-.11.08l-.19,0-.3,0-.32,0-.19,0a.27.27,0,0,1-.1-.08.3.3,0,0,1,0-.1v-.6a3.46,3.46,0,0,1-.89.7,1.89,1.89,0,0,1-.92.24,2.08,2.08,0,0,1-.91-.18,1.64,1.64,0,0,1-.59-.48,1.84,1.84,0,0,1-.32-.71,4.51,4.51,0,0,1-.1-1v-3.2a.13.13,0,0,1,0-.1.24.24,0,0,1,.11-.08l.23,0h.71l.23,0a.36.36,0,0,1,.12.08.17.17,0,0,1,0,.1V38a2.57,2.57,0,0,0,.06.63.89.89,0,0,0,.16.37.78.78,0,0,0,.27.24.93.93,0,0,0,.39.08,1,1,0,0,0,.57-.2,3.75,3.75,0,0,0,.6-.6V35.06a.17.17,0,0,1,0-.1.23.23,0,0,1,.12-.08l.23,0h.71l.22,0a.23.23,0,0,1,.12.08.17.17,0,0,1,0,.1Z"/><path class="cls-5" d="M77.28,37.52a.58.58,0,0,1-.12.4.45.45,0,0,1-.33.12H73.65a2.25,2.25,0,0,0,.08.61,1.14,1.14,0,0,0,.25.46,1,1,0,0,0,.44.29,1.87,1.87,0,0,0,.66.1,4.61,4.61,0,0,0,.68,0,4,4,0,0,0,.5-.13l.36-.12a.55.55,0,0,1,.22-.05s.07,0,.09,0a.09.09,0,0,1,.06.07.28.28,0,0,1,0,.15,1.63,1.63,0,0,1,0,.24v.22c0,.06,0,.11,0,.16a.3.3,0,0,1,0,.1.24.24,0,0,1-.06.09.6.6,0,0,1-.21.11,3.11,3.11,0,0,1-.43.14l-.6.12a5.58,5.58,0,0,1-.73,0,3.78,3.78,0,0,1-1.22-.18,2.24,2.24,0,0,1-.87-.53,2.21,2.21,0,0,1-.53-.91,4.34,4.34,0,0,1-.17-1.27,4.12,4.12,0,0,1,.18-1.26,2.62,2.62,0,0,1,.53-.94,2.31,2.31,0,0,1,.84-.6,2.82,2.82,0,0,1,1.11-.2,2.88,2.88,0,0,1,1.12.19,2.06,2.06,0,0,1,.77.54,2.11,2.11,0,0,1,.44.81,3.62,3.62,0,0,1,.14,1Zm-1.43-.42a1.52,1.52,0,0,0-.25-1,1,1,0,0,0-.82-.35,1.07,1.07,0,0,0-.49.1,1,1,0,0,0-.34.29,1.2,1.2,0,0,0-.22.42,2.7,2.7,0,0,0-.08.52Z"/><path class="cls-5" d="M84.23,40.48l-.64,1.85a.36.36,0,0,1-.28.21,3,3,0,0,1-.69.06,2,2,0,0,1-.37,0,.44.44,0,0,1-.21-.06A.14.14,0,0,1,82,42.4a.61.61,0,0,1,0-.17l.7-1.75a.45.45,0,0,1-.14-.11.6.6,0,0,1-.09-.15l-1.79-4.8a1,1,0,0,1-.08-.32.22.22,0,0,1,.07-.17.56.56,0,0,1,.24-.08,2.76,2.76,0,0,1,.44,0h.4l.23.05a.25.25,0,0,1,.12.11,1.17,1.17,0,0,1,.08.21l1.23,3.49h0l1.12-3.57a.47.47,0,0,1,.09-.2.5.5,0,0,1,.19-.07,2.45,2.45,0,0,1,.45,0,2.68,2.68,0,0,1,.42,0,.45.45,0,0,1,.24.09.21.21,0,0,1,.08.17.85.85,0,0,1-.05.25Z"/><path class="cls-5" d="M91.14,40.3a.16.16,0,0,1-.06.13.45.45,0,0,1-.18.07l-.37,0-.38,0a.39.39,0,0,1-.17-.07.15.15,0,0,1,0-.13v-.42a2.43,2.43,0,0,1-.74.54,2.09,2.09,0,0,1-.91.2,2.65,2.65,0,0,1-.77-.11,1.75,1.75,0,0,1-.6-.33,1.48,1.48,0,0,1-.4-.52,1.91,1.91,0,0,1-.14-.74,1.69,1.69,0,0,1,.18-.8,1.47,1.47,0,0,1,.53-.55,2.58,2.58,0,0,1,.89-.33,6.26,6.26,0,0,1,1.22-.1h.51v-.32a1.81,1.81,0,0,0,0-.43.73.73,0,0,0-.17-.31.64.64,0,0,0-.3-.18,1.58,1.58,0,0,0-.47-.06,2.19,2.19,0,0,0-.66.09,3,3,0,0,0-.51.18,2.57,2.57,0,0,0-.37.18.59.59,0,0,1-.25.08.15.15,0,0,1-.11,0,.36.36,0,0,1-.08-.12.78.78,0,0,1,0-.18,2,2,0,0,1,0-.25,1.12,1.12,0,0,1,0-.29.52.52,0,0,1,.11-.19,1.13,1.13,0,0,1,.29-.18,2.18,2.18,0,0,1,.48-.19,4.38,4.38,0,0,1,.6-.15,4.8,4.8,0,0,1,.67-.05,4,4,0,0,1,1,.12,1.76,1.76,0,0,1,.72.37,1.35,1.35,0,0,1,.4.64,2.86,2.86,0,0,1,.13.93ZM89.7,38.06h-.56a2.68,2.68,0,0,0-.61.06,1,1,0,0,0-.41.15.63.63,0,0,0-.23.26.74.74,0,0,0-.08.34.67.67,0,0,0,.21.52.86.86,0,0,0,.58.18,1.07,1.07,0,0,0,.57-.16A2.14,2.14,0,0,0,89.7,39Z"/><path class="cls-5" d="M100.42,34.86a.43.43,0,0,1,.34.11.4.4,0,0,1,.1.3v5a.17.17,0,0,1,0,.1.36.36,0,0,1-.12.08l-.23,0-.35,0-.36,0-.23,0a.24.24,0,0,1-.11-.08.13.13,0,0,1,0-.1V36.06H97v2.45a1.22,1.22,0,0,0,.14.64.53.53,0,0,0,.48.21.68.68,0,0,0,.21,0l.17-.05.12,0a.15.15,0,0,1,.09,0,.1.1,0,0,1,.07,0,.12.12,0,0,1,.05.08s0,.1,0,.17a2.1,2.1,0,0,1,0,.27,2.07,2.07,0,0,1,0,.39.42.42,0,0,1-.09.19.36.36,0,0,1-.15.1l-.25.08-.3,0-.32,0a2.44,2.44,0,0,1-.76-.11,1.23,1.23,0,0,1-.53-.35,1.29,1.29,0,0,1-.31-.58,2.9,2.9,0,0,1-.1-.83V36.06H95a.2.2,0,0,1-.17-.14,1.27,1.27,0,0,1-.06-.46,2.19,2.19,0,0,1,0-.29.6.6,0,0,1,0-.18.2.2,0,0,1,.07-.1.2.2,0,0,1,.11,0h.62V33.7a.2.2,0,0,1,0-.11.23.23,0,0,1,.12-.08.9.9,0,0,1,.22,0h.72a.9.9,0,0,1,.22,0,.23.23,0,0,1,.12.08.2.2,0,0,1,0,.11v1.16Zm.56-1.57a.85.85,0,0,1-.18.62,1,1,0,0,1-.68.17,1,1,0,0,1-.67-.17.81.81,0,0,1-.17-.59.87.87,0,0,1,.18-.62,1,1,0,0,1,.68-.17,1,1,0,0,1,.66.17A.79.79,0,0,1,101,33.29Z"/><path class="cls-5" d="M107.16,37.52a.58.58,0,0,1-.12.4.45.45,0,0,1-.33.12h-3.17a1.92,1.92,0,0,0,.08.61,1,1,0,0,0,.25.46,1,1,0,0,0,.44.29,1.81,1.81,0,0,0,.65.1,4.4,4.4,0,0,0,.68,0,3.75,3.75,0,0,0,.51-.13l.35-.12a.6.6,0,0,1,.23-.05s.07,0,.09,0a.14.14,0,0,1,.06.07,1,1,0,0,1,0,.15,1.63,1.63,0,0,1,0,.24,1.41,1.41,0,0,1,0,.22c0,.06,0,.11,0,.16a.3.3,0,0,1,0,.1l-.06.09a.91.91,0,0,1-.21.11,3.64,3.64,0,0,1-.43.14l-.6.12a5.58,5.58,0,0,1-.73,0,3.78,3.78,0,0,1-1.22-.18,2.36,2.36,0,0,1-.88-.53,2.2,2.2,0,0,1-.52-.91,4,4,0,0,1-.17-1.27,4.12,4.12,0,0,1,.18-1.26,2.62,2.62,0,0,1,.53-.94,2.31,2.31,0,0,1,.84-.6,2.78,2.78,0,0,1,1.11-.2,2.88,2.88,0,0,1,1.12.19,2.06,2.06,0,0,1,.77.54,2.1,2.1,0,0,1,.43.81,3.29,3.29,0,0,1,.14,1Zm-1.42-.42a1.52,1.52,0,0,0-.25-1,1,1,0,0,0-.82-.35,1.07,1.07,0,0,0-.49.1,1,1,0,0,0-.35.29,1.38,1.38,0,0,0-.21.42,1.72,1.72,0,0,0-.08.52Z"/><path class="cls-5" d="M113.36,40.28a.17.17,0,0,1,0,.1.36.36,0,0,1-.12.08,1,1,0,0,1-.23,0l-.35,0-.36,0-.23,0a.24.24,0,0,1-.11-.08.13.13,0,0,1,0-.1v-3a2.94,2.94,0,0,0,0-.59,1.32,1.32,0,0,0-.16-.38.73.73,0,0,0-.28-.24A.93.93,0,0,0,111,36a1,1,0,0,0-.56.2,3.38,3.38,0,0,0-.6.6v3.47a.17.17,0,0,1,0,.1.36.36,0,0,1-.12.08l-.23,0-.36,0-.35,0-.23,0a.23.23,0,0,1-.12-.08.18.18,0,0,1,0-.1V35.06a.17.17,0,0,1,0-.1.24.24,0,0,1,.11-.08l.2,0h.61l.19,0a.24.24,0,0,1,.09.08.17.17,0,0,1,0,.1v.6a3.6,3.6,0,0,1,.88-.7,2,2,0,0,1,.94-.23,2.22,2.22,0,0,1,.9.17,1.64,1.64,0,0,1,.59.48,1.87,1.87,0,0,1,.32.7,4,4,0,0,1,.1,1Z"/><path class="cls-5" d="M119.63,37.52a.58.58,0,0,1-.12.4.45.45,0,0,1-.33.12H116a2.25,2.25,0,0,0,.08.61,1.14,1.14,0,0,0,.25.46,1.06,1.06,0,0,0,.45.29,1.81,1.81,0,0,0,.65.1,4.5,4.5,0,0,0,.68,0,4.71,4.71,0,0,0,.51-.13l.35-.12a.56.56,0,0,1,.23-.05.15.15,0,0,1,.09,0,.1.1,0,0,1,0,.07.39.39,0,0,1,0,.15c0,.06,0,.14,0,.24s0,.16,0,.22a.78.78,0,0,1,0,.16l0,.1-.06.09a.91.91,0,0,1-.21.11,3.31,3.31,0,0,1-.44.14l-.6.12a5.43,5.43,0,0,1-.72,0,3.69,3.69,0,0,1-1.22-.18,2.36,2.36,0,0,1-.88-.53,2.2,2.2,0,0,1-.52-.91,4,4,0,0,1-.18-1.27,3.83,3.83,0,0,1,.19-1.26,2.6,2.6,0,0,1,.52-.94,2.31,2.31,0,0,1,.84-.6,2.83,2.83,0,0,1,1.12-.2,2.92,2.92,0,0,1,1.12.19,2,2,0,0,1,.76.54,2,2,0,0,1,.44.81,3.62,3.62,0,0,1,.14,1Zm-1.43-.42a1.52,1.52,0,0,0-.25-1,1,1,0,0,0-.82-.35,1.1,1.1,0,0,0-.49.1,1,1,0,0,0-.34.29,1.38,1.38,0,0,0-.21.42,2.09,2.09,0,0,0-.09.52Z"/><path class="cls-5" d="M124.52,38.81a1.79,1.79,0,0,1-.17.78,1.53,1.53,0,0,1-.47.57,2.18,2.18,0,0,1-.72.34,3.26,3.26,0,0,1-.9.12,3.33,3.33,0,0,1-.56,0,4.32,4.32,0,0,1-.48-.11,2.53,2.53,0,0,1-.35-.14.69.69,0,0,1-.2-.13.35.35,0,0,1-.1-.19,1.33,1.33,0,0,1,0-.39,2,2,0,0,1,0-.27.61.61,0,0,1,0-.17.1.1,0,0,1,.06-.08l.08,0a.37.37,0,0,1,.19.07,2.38,2.38,0,0,0,.32.16,3,3,0,0,0,.43.17,2,2,0,0,0,.57.07,1.25,1.25,0,0,0,.35,0,.67.67,0,0,0,.27-.11.57.57,0,0,0,.18-.2.76.76,0,0,0,0-.27.47.47,0,0,0-.1-.3,1.11,1.11,0,0,0-.29-.22,3.17,3.17,0,0,0-.41-.17l-.46-.19a3.88,3.88,0,0,1-.46-.22,1.57,1.57,0,0,1-.4-.32,1.29,1.29,0,0,1-.29-.45,1.73,1.73,0,0,1-.11-.63,1.58,1.58,0,0,1,.15-.69,1.36,1.36,0,0,1,.42-.53,1.85,1.85,0,0,1,.67-.35,3,3,0,0,1,.89-.12,3.59,3.59,0,0,1,.47,0,3.38,3.38,0,0,1,.42.09,1.69,1.69,0,0,1,.32.11l.18.11a.22.22,0,0,1,.08.09.3.3,0,0,1,0,.1,1,1,0,0,0,0,.15v.49c0,.06,0,.12,0,.16s0,.06-.06.07a.11.11,0,0,1-.08,0,.35.35,0,0,1-.16-.06l-.28-.13a2.54,2.54,0,0,0-.39-.13,1.9,1.9,0,0,0-.5-.06,1.13,1.13,0,0,0-.34,0,.67.67,0,0,0-.24.12.52.52,0,0,0-.15.18.49.49,0,0,0,0,.21.45.45,0,0,0,.11.31,1.16,1.16,0,0,0,.29.22,3.17,3.17,0,0,0,.41.17l.47.18a4,4,0,0,1,.47.22,1.88,1.88,0,0,1,.41.32,1.77,1.77,0,0,1,.3.45A1.64,1.64,0,0,1,124.52,38.81Z"/><path class="cls-5" d="M25.26,52.72a.2.2,0,0,1,0,.11.35.35,0,0,1-.12.07l-.23,0-.36,0-.35,0-.23,0a.22.22,0,0,1-.12-.07.2.2,0,0,1,0-.11V45a.2.2,0,0,1,0-.11.31.31,0,0,1,.12-.08l.23-.05h.71l.23.05.12.08a.2.2,0,0,1,0,.11Z"/><path class="cls-5" d="M31.18,52.74a.15.15,0,0,1-.06.13.52.52,0,0,1-.18.07l-.38,0-.38,0a.39.39,0,0,1-.17-.07.17.17,0,0,1-.05-.13v-.41a2.39,2.39,0,0,1-.73.54,2.29,2.29,0,0,1-.92.19,2.58,2.58,0,0,1-.76-.11,1.78,1.78,0,0,1-.61-.32,1.38,1.38,0,0,1-.39-.53,1.72,1.72,0,0,1-.14-.74,1.65,1.65,0,0,1,.18-.79,1.42,1.42,0,0,1,.53-.56,2.84,2.84,0,0,1,.88-.32,6.27,6.27,0,0,1,1.22-.11h.51v-.31a1.48,1.48,0,0,0-.05-.44.62.62,0,0,0-.16-.3.73.73,0,0,0-.31-.18,1.53,1.53,0,0,0-.47-.06,2.57,2.57,0,0,0-.65.08,3.9,3.9,0,0,0-.52.18l-.37.18a.48.48,0,0,1-.24.08.19.19,0,0,1-.12,0,.24.24,0,0,1-.08-.11.87.87,0,0,1-.05-.19,1.93,1.93,0,0,1,0-.25,1.1,1.1,0,0,1,0-.28.39.39,0,0,1,.12-.19,1,1,0,0,1,.28-.19,3.69,3.69,0,0,1,.48-.19,3.75,3.75,0,0,1,.6-.14,3.71,3.71,0,0,1,.67-.06,4,4,0,0,1,1.05.12,1.76,1.76,0,0,1,.72.37,1.42,1.42,0,0,1,.41.64,2.86,2.86,0,0,1,.13.93Zm-1.45-2.23h-.56a2.73,2.73,0,0,0-.61.05,1.1,1.1,0,0,0-.41.16.68.68,0,0,0-.23.25.77.77,0,0,0-.07.34.67.67,0,0,0,.21.52.85.85,0,0,0,.57.19,1.11,1.11,0,0,0,.57-.16,2.42,2.42,0,0,0,.53-.46Z"/><path class="cls-5" d="M36.32,51.25a1.73,1.73,0,0,1-.16.78,1.53,1.53,0,0,1-.47.57,2.17,2.17,0,0,1-.72.34,3.33,3.33,0,0,1-1.46.07A2.12,2.12,0,0,1,33,52.9a2.65,2.65,0,0,1-.35-.13,1.08,1.08,0,0,1-.21-.14.48.48,0,0,1-.1-.19,1.92,1.92,0,0,1,0-.39,2.1,2.1,0,0,1,0-.27,1.57,1.57,0,0,1,0-.16.23.23,0,0,1,.06-.09l.09,0a.45.45,0,0,1,.19.08l.31.16a3.16,3.16,0,0,0,.44.16A2,2,0,0,0,34,52a1.78,1.78,0,0,0,.35,0,1.11,1.11,0,0,0,.27-.12.51.51,0,0,0,.17-.19.6.6,0,0,0,.06-.27.44.44,0,0,0-.11-.3.82.82,0,0,0-.29-.22,1.85,1.85,0,0,0-.4-.18l-.46-.18a4,4,0,0,1-.46-.23,1.81,1.81,0,0,1-.41-.32,1.28,1.28,0,0,1-.28-.45,1.48,1.48,0,0,1-.11-.63,1.74,1.74,0,0,1,.14-.69,1.46,1.46,0,0,1,.43-.53,1.85,1.85,0,0,1,.67-.35,3,3,0,0,1,.88-.12,2.45,2.45,0,0,1,.48,0l.42.08.31.12.19.1a.32.32,0,0,1,.08.09.81.81,0,0,1,0,.11.61.61,0,0,1,0,.15,1.41,1.41,0,0,1,0,.22,1.93,1.93,0,0,1,0,.26.35.35,0,0,1,0,.16.16.16,0,0,1-.05.08l-.08,0a.43.43,0,0,1-.17-.06,1.49,1.49,0,0,0-.28-.13,2.77,2.77,0,0,0-.38-.14,2,2,0,0,0-.5-.06,1.69,1.69,0,0,0-.35,0,.67.67,0,0,0-.24.12.49.49,0,0,0-.14.18.54.54,0,0,0,0,.22.41.41,0,0,0,.12.3,1,1,0,0,0,.29.22,3.17,3.17,0,0,0,.41.17l.47.18a5.08,5.08,0,0,1,.47.23,1.77,1.77,0,0,1,.41.31,1.51,1.51,0,0,1,.29.45A1.49,1.49,0,0,1,36.32,51.25Z"/><path class="cls-5" d="M45.13,52.72a.15.15,0,0,1,0,.11.23.23,0,0,1-.11.07l-.23,0-.35,0-.36,0-.23,0a.35.35,0,0,1-.12-.07.2.2,0,0,1,0-.11v-3a2.3,2.3,0,0,0-.06-.6,1,1,0,0,0-.16-.37.62.62,0,0,0-.27-.24.8.8,0,0,0-.39-.09,1,1,0,0,0-.57.21,2.73,2.73,0,0,0-.59.59v3.47a.21.21,0,0,1,0,.11.22.22,0,0,1-.12.07l-.22,0-.36,0-.36,0a1,1,0,0,1-.22,0,.22.22,0,0,1-.12-.07.15.15,0,0,1,0-.11V45a.15.15,0,0,1,0-.11.31.31,0,0,1,.12-.08l.22-.05h.72l.22.05a.31.31,0,0,1,.12.08.21.21,0,0,1,0,.11v2.88a3,3,0,0,1,.77-.56,2,2,0,0,1,.82-.18,2,2,0,0,1,.9.18,1.4,1.4,0,0,1,.59.48,2,2,0,0,1,.33.71,4.55,4.55,0,0,1,.1,1Z"/><path class="cls-5" d="M51.4,50a.58.58,0,0,1-.12.4.42.42,0,0,1-.33.13H47.77a1.9,1.9,0,0,0,.08.6,1.07,1.07,0,0,0,.25.47,1.17,1.17,0,0,0,.44.29,2.08,2.08,0,0,0,.66.1,3.33,3.33,0,0,0,.67-.06l.51-.12.36-.13a.74.74,0,0,1,.22,0l.09,0a.22.22,0,0,1,.06.07.57.57,0,0,1,0,.15,1.85,1.85,0,0,1,0,.25,1.34,1.34,0,0,1,0,.21c0,.06,0,.12,0,.16a.36.36,0,0,1,0,.11.16.16,0,0,1-.06.08.54.54,0,0,1-.21.11,2.17,2.17,0,0,1-.43.14,4.54,4.54,0,0,1-.6.12,5.58,5.58,0,0,1-.73.05,3.78,3.78,0,0,1-1.22-.18,2,2,0,0,1-.87-.53,2.24,2.24,0,0,1-.53-.9,4.41,4.41,0,0,1-.17-1.28,4.06,4.06,0,0,1,.18-1.25A2.58,2.58,0,0,1,47,48a2.31,2.31,0,0,1,.84-.6,3,3,0,0,1,1.11-.2,2.88,2.88,0,0,1,1.12.19,2.06,2.06,0,0,1,.77.54,2.27,2.27,0,0,1,.44.81,3.64,3.64,0,0,1,.14,1ZM50,49.54a1.49,1.49,0,0,0-.25-1,1,1,0,0,0-.82-.36,1.07,1.07,0,0,0-.49.11,1,1,0,0,0-.35.28,1.38,1.38,0,0,0-.21.42,2.17,2.17,0,0,0-.08.52Z"/><path class="cls-5" d="M56,48a3.23,3.23,0,0,1,0,.34,1,1,0,0,1,0,.22.14.14,0,0,1-.06.1.12.12,0,0,1-.09,0l-.11,0-.13,0-.16,0-.2,0a.69.69,0,0,0-.24.05,1.08,1.08,0,0,0-.26.16,2.46,2.46,0,0,0-.27.28,3.46,3.46,0,0,0-.31.43v3.25a.2.2,0,0,1,0,.11.35.35,0,0,1-.12.07l-.23,0-.36,0-.35,0-.23,0a.35.35,0,0,1-.12-.07.2.2,0,0,1,0-.11V47.5a.17.17,0,0,1,0-.1.2.2,0,0,1,.1-.07l.2,0h.61a.64.64,0,0,1,.19,0,.26.26,0,0,1,.1.07.17.17,0,0,1,0,.1v.65a4.24,4.24,0,0,1,.38-.48,1.81,1.81,0,0,1,.35-.3,1,1,0,0,1,.33-.16,1.12,1.12,0,0,1,.32,0h.17a.57.57,0,0,1,.18,0l.16,0,.11.06a.21.21,0,0,1,0,.06l0,.1s0,.1,0,.19Z"/><path class="cls-5" d="M60.22,48a3.23,3.23,0,0,1,0,.34c0,.09,0,.17,0,.22a.2.2,0,0,1-.07.1.12.12,0,0,1-.09,0l-.11,0-.13,0-.16,0-.19,0a.7.7,0,0,0-.25.05.88.88,0,0,0-.25.16,1.84,1.84,0,0,0-.28.28,3.46,3.46,0,0,0-.31.43v3.25a.2.2,0,0,1,0,.11.35.35,0,0,1-.12.07l-.23,0-.35,0-.36,0-.23,0a.35.35,0,0,1-.12-.07.2.2,0,0,1,0-.11V47.5a.17.17,0,0,1,0-.1.2.2,0,0,1,.1-.07.83.83,0,0,1,.2,0h.61a.64.64,0,0,1,.19,0,.2.2,0,0,1,.1.07.17.17,0,0,1,0,.1v.65a4.24,4.24,0,0,1,.38-.48,1.81,1.81,0,0,1,.35-.3,1,1,0,0,1,.33-.16,1.12,1.12,0,0,1,.32,0h.17a.57.57,0,0,1,.18,0l.16,0,.11.06,0,.06,0,.1s0,.1,0,.19Z"/><path class="cls-5" d="M65.31,52.74a.15.15,0,0,1-.06.13.45.45,0,0,1-.18.07l-.37,0-.38,0a.39.39,0,0,1-.17-.07.14.14,0,0,1-.05-.13v-.41a2.43,2.43,0,0,1-.74.54,2.24,2.24,0,0,1-.91.19,2.65,2.65,0,0,1-.77-.11,1.73,1.73,0,0,1-.6-.32,1.52,1.52,0,0,1-.4-.53,1.88,1.88,0,0,1-.14-.74,1.65,1.65,0,0,1,.18-.79,1.49,1.49,0,0,1,.53-.56,2.81,2.81,0,0,1,.89-.32,6.2,6.2,0,0,1,1.22-.11h.51v-.31a1.9,1.9,0,0,0,0-.44.74.74,0,0,0-.17-.3.64.64,0,0,0-.3-.18,1.58,1.58,0,0,0-.47-.06,2.59,2.59,0,0,0-.66.08,4.28,4.28,0,0,0-.51.18l-.37.18a.48.48,0,0,1-.25.08.15.15,0,0,1-.11,0,.24.24,0,0,1-.08-.11.87.87,0,0,1,0-.19,1.81,1.81,0,0,1,0-.25,1,1,0,0,1,0-.28.45.45,0,0,1,.11-.19,1.11,1.11,0,0,1,.29-.19,2.82,2.82,0,0,1,.48-.19,3.31,3.31,0,0,1,.6-.14,3.63,3.63,0,0,1,.67-.06,4,4,0,0,1,1.05.12,1.76,1.76,0,0,1,.72.37,1.4,1.4,0,0,1,.4.64,2.86,2.86,0,0,1,.13.93Zm-1.44-2.23h-.56a2.73,2.73,0,0,0-.61.05,1,1,0,0,0-.41.16.61.61,0,0,0-.23.25.77.77,0,0,0-.08.34.67.67,0,0,0,.21.52.86.86,0,0,0,.58.19,1.17,1.17,0,0,0,.57-.16,2.67,2.67,0,0,0,.53-.46Z"/><path class="cls-5" d="M75.09,52.72a.15.15,0,0,1,0,.11.23.23,0,0,1-.11.07l-.23,0-.35,0-.37,0a1,1,0,0,1-.22,0,.22.22,0,0,1-.12-.07.2.2,0,0,1,0-.11V49.63a2.28,2.28,0,0,0-.05-.48,1,1,0,0,0-.15-.37.66.66,0,0,0-.26-.24.72.72,0,0,0-.37-.09.85.85,0,0,0-.53.21,3.26,3.26,0,0,0-.59.59v3.47a.2.2,0,0,1,0,.11.35.35,0,0,1-.12.07l-.23,0-.35,0-.36,0a1,1,0,0,1-.22,0,.22.22,0,0,1-.12-.07.15.15,0,0,1,0-.11V49.63a2.28,2.28,0,0,0,0-.48,1,1,0,0,0-.15-.37.55.55,0,0,0-.26-.24.69.69,0,0,0-.36-.09.88.88,0,0,0-.54.21,3,3,0,0,0-.58.59v3.47a.15.15,0,0,1,0,.11.22.22,0,0,1-.12.07,1,1,0,0,1-.22,0l-.36,0-.36,0a1,1,0,0,1-.22,0,.22.22,0,0,1-.12-.07.15.15,0,0,1,0-.11V47.5a.17.17,0,0,1,0-.1.23.23,0,0,1,.11-.07.74.74,0,0,1,.19,0h.62a.74.74,0,0,1,.19,0,.22.22,0,0,1,.09.07.17.17,0,0,1,0,.1v.61a3.4,3.4,0,0,1,.87-.71,1.87,1.87,0,0,1,.89-.23,2,2,0,0,1,.58.07,1.59,1.59,0,0,1,.46.19,1.46,1.46,0,0,1,.35.3,2,2,0,0,1,.25.39,4.52,4.52,0,0,1,.46-.43,2.22,2.22,0,0,1,.44-.29,1.6,1.6,0,0,1,.44-.17,1.68,1.68,0,0,1,.45-.06,2,2,0,0,1,.88.18,1.46,1.46,0,0,1,.57.47,1.83,1.83,0,0,1,.31.71,3.36,3.36,0,0,1,.1.85Z"/><path class="cls-5" d="M78.12,45.74a.82.82,0,0,1-.18.61,1,1,0,0,1-.67.17,1,1,0,0,1-.67-.16.79.79,0,0,1-.18-.59.83.83,0,0,1,.18-.62,1,1,0,0,1,.68-.18,1,1,0,0,1,.67.17A.84.84,0,0,1,78.12,45.74Zm-.11,7a.15.15,0,0,1,0,.11.22.22,0,0,1-.12.07,1,1,0,0,1-.22,0l-.36,0-.36,0-.22,0a.22.22,0,0,1-.12-.07.21.21,0,0,1,0-.11v-5.2a.21.21,0,0,1,0-.11.22.22,0,0,1,.12-.07,1,1,0,0,1,.22-.05l.36,0,.36,0a.9.9,0,0,1,.22.05.22.22,0,0,1,.12.07.15.15,0,0,1,0,.11Z"/><path class="cls-5" d="M84.3,50a.58.58,0,0,1-.12.4.42.42,0,0,1-.33.13H80.67a2.23,2.23,0,0,0,.08.6,1.18,1.18,0,0,0,.25.47,1.29,1.29,0,0,0,.45.29,2.06,2.06,0,0,0,.65.1,3.44,3.44,0,0,0,.68-.06l.51-.12.35-.13a.8.8,0,0,1,.23,0l.09,0a.13.13,0,0,1,.05.07.54.54,0,0,1,0,.15c0,.07,0,.15,0,.25s0,.15,0,.21a.7.7,0,0,1,0,.16l0,.11-.06.08a.63.63,0,0,1-.21.11,2.29,2.29,0,0,1-.44.14,4,4,0,0,1-.6.12,5.43,5.43,0,0,1-.72.05,3.69,3.69,0,0,1-1.22-.18,2.12,2.12,0,0,1-.88-.53,2.23,2.23,0,0,1-.52-.9,4.08,4.08,0,0,1-.18-1.28,3.77,3.77,0,0,1,.19-1.25,2.56,2.56,0,0,1,.52-1,2.31,2.31,0,0,1,.84-.6,3,3,0,0,1,1.12-.2,2.92,2.92,0,0,1,1.12.19,2,2,0,0,1,.76.54,2.13,2.13,0,0,1,.44.81,3.64,3.64,0,0,1,.14,1Zm-1.43-.42a1.49,1.49,0,0,0-.25-1,.94.94,0,0,0-.82-.36,1.1,1.1,0,0,0-.49.11.93.93,0,0,0-.34.28,1.38,1.38,0,0,0-.21.42,2.18,2.18,0,0,0-.09.52Z"/><path class="cls-5" d="M90.5,52.72a.15.15,0,0,1,0,.11.23.23,0,0,1-.11.07l-.23,0-.35,0-.36,0-.23,0a.23.23,0,0,1-.11-.07.15.15,0,0,1,0-.11v-3a2.3,2.3,0,0,0-.06-.6,1,1,0,0,0-.16-.37.62.62,0,0,0-.27-.24.8.8,0,0,0-.39-.09,1,1,0,0,0-.57.21,2.73,2.73,0,0,0-.59.59v3.47a.15.15,0,0,1,0,.11.22.22,0,0,1-.12.07,1,1,0,0,1-.22,0l-.36,0-.36,0a1,1,0,0,1-.22,0,.22.22,0,0,1-.12-.07.15.15,0,0,1,0-.11V47.5a.17.17,0,0,1,0-.1.23.23,0,0,1,.11-.07.74.74,0,0,1,.19,0h.61a.72.72,0,0,1,.2,0,.22.22,0,0,1,.09.07.17.17,0,0,1,0,.1v.61a3.27,3.27,0,0,1,.88-.71,2.07,2.07,0,0,1,.94-.23,2,2,0,0,1,.89.18,1.45,1.45,0,0,1,.59.47,1.86,1.86,0,0,1,.33.71,3.91,3.91,0,0,1,.1,1Z"/><path class="cls-5" d="M94.92,52.21a1.92,1.92,0,0,1,0,.39.48.48,0,0,1-.08.2.74.74,0,0,1-.16.1l-.24.07a1.34,1.34,0,0,1-.3.05,1.67,1.67,0,0,1-.32,0,2.44,2.44,0,0,1-.76-.11,1.31,1.31,0,0,1-.54-.34,1.5,1.5,0,0,1-.3-.59,2.9,2.9,0,0,1-.1-.83V48.5h-.63a.2.2,0,0,1-.17-.14,1.23,1.23,0,0,1-.06-.46,2,2,0,0,1,0-.28.78.78,0,0,1,0-.19.26.26,0,0,1,.07-.1.2.2,0,0,1,.11,0h.62V46.14a.23.23,0,0,1,0-.11.22.22,0,0,1,.12-.07.6.6,0,0,1,.22-.05l.36,0,.36,0a.6.6,0,0,1,.22.05.22.22,0,0,1,.12.07.23.23,0,0,1,0,.11V47.3h1.14a.17.17,0,0,1,.1,0,.27.27,0,0,1,.08.1.78.78,0,0,1,0,.19,2.27,2.27,0,0,1,0,.28,1.28,1.28,0,0,1,0,.46.2.2,0,0,1-.17.14H93.55V51a1.19,1.19,0,0,0,.14.64.53.53,0,0,0,.48.22l.21,0,.17,0,.12-.05.09,0,.07,0a.16.16,0,0,1,0,.08s0,.1,0,.17A2.1,2.1,0,0,1,94.92,52.21Z"/><path class="cls-5" d="M100.32,52.74a.15.15,0,0,1-.06.13.52.52,0,0,1-.18.07l-.37,0-.39,0a.46.46,0,0,1-.17-.07.17.17,0,0,1-.05-.13v-.41a2.39,2.39,0,0,1-.73.54,2.29,2.29,0,0,1-.92.19,2.63,2.63,0,0,1-.76-.11,1.73,1.73,0,0,1-.6-.32,1.41,1.41,0,0,1-.4-.53,1.88,1.88,0,0,1-.14-.74,1.65,1.65,0,0,1,.18-.79,1.49,1.49,0,0,1,.53-.56,2.84,2.84,0,0,1,.88-.32,6.31,6.31,0,0,1,1.23-.11h.51v-.31a1.9,1.9,0,0,0,0-.44.74.74,0,0,0-.17-.3.69.69,0,0,0-.3-.18,1.63,1.63,0,0,0-.47-.06,2.59,2.59,0,0,0-.66.08,3.3,3.3,0,0,0-.51.18l-.38.18a.48.48,0,0,1-.24.08.15.15,0,0,1-.11,0,.19.19,0,0,1-.08-.11.53.53,0,0,1,0-.19,1,1,0,0,1,0-.25,1,1,0,0,1,0-.28.37.37,0,0,1,.11-.19,1,1,0,0,1,.29-.19,3.05,3.05,0,0,1,.47-.19,3.64,3.64,0,0,1,.61-.14,3.55,3.55,0,0,1,.67-.06,4,4,0,0,1,1,.12,1.66,1.66,0,0,1,.71.37,1.34,1.34,0,0,1,.41.64,2.86,2.86,0,0,1,.13.93Zm-1.44-2.23h-.57a2.78,2.78,0,0,0-.61.05,1,1,0,0,0-.4.16.64.64,0,0,0-.24.25.94.94,0,0,0-.07.34.67.67,0,0,0,.21.52.86.86,0,0,0,.58.19,1.17,1.17,0,0,0,.57-.16,2.67,2.67,0,0,0,.53-.46Z"/><path class="cls-5" d="M105.47,51.25a1.73,1.73,0,0,1-.17.78,1.53,1.53,0,0,1-.47.57,2,2,0,0,1-.72.34,3.26,3.26,0,0,1-.9.12,3.33,3.33,0,0,1-.56-.05,2.12,2.12,0,0,1-.48-.11,2.65,2.65,0,0,1-.35-.13,1,1,0,0,1-.2-.14.31.31,0,0,1-.1-.19,1.33,1.33,0,0,1,0-.39,2.1,2.1,0,0,1,0-.27.53.53,0,0,1,0-.16.12.12,0,0,1,.06-.09l.08,0a.41.41,0,0,1,.19.08l.32.16a3,3,0,0,0,.43.16,2,2,0,0,0,.57.08,1.78,1.78,0,0,0,.35,0,.85.85,0,0,0,.27-.12.44.44,0,0,0,.17-.19.6.6,0,0,0,.06-.27.4.4,0,0,0-.11-.3.78.78,0,0,0-.28-.22,2.2,2.2,0,0,0-.41-.18l-.46-.18a4,4,0,0,1-.46-.23,1.57,1.57,0,0,1-.4-.32,1.29,1.29,0,0,1-.29-.45,1.65,1.65,0,0,1-.11-.63,1.58,1.58,0,0,1,.15-.69,1.34,1.34,0,0,1,.42-.53,1.85,1.85,0,0,1,.67-.35,3,3,0,0,1,.88-.12,2.45,2.45,0,0,1,.48,0,3.51,3.51,0,0,1,.42.08l.32.12.18.1a.32.32,0,0,1,.08.09.66.66,0,0,1,0,.11s0,.09,0,.15a1.41,1.41,0,0,1,0,.22,1.93,1.93,0,0,1,0,.26.63.63,0,0,1,0,.16.28.28,0,0,1-.06.08l-.08,0a.43.43,0,0,1-.17-.06,1.71,1.71,0,0,0-.27-.13,2.49,2.49,0,0,0-.39-.14,1.9,1.9,0,0,0-.5-.06,1.78,1.78,0,0,0-.35,0,.9.9,0,0,0-.24.12.62.62,0,0,0-.14.18.54.54,0,0,0,0,.22.4.4,0,0,0,.11.3,1,1,0,0,0,.29.22,3.17,3.17,0,0,0,.41.17l.47.18a4.09,4.09,0,0,1,.47.23,1.58,1.58,0,0,1,.71.76A1.67,1.67,0,0,1,105.47,51.25Z"/><path class="cls-5" d="M114.54,50a4.81,4.81,0,0,1-.15,1.25,2.61,2.61,0,0,1-.44,1,1.89,1.89,0,0,1-.71.61,2.21,2.21,0,0,1-1,.21,1.86,1.86,0,0,1-.42-.05,1.2,1.2,0,0,1-.36-.13,2.41,2.41,0,0,1-.36-.23,3.31,3.31,0,0,1-.36-.31V54.8a.13.13,0,0,1,0,.1.23.23,0,0,1-.12.08.9.9,0,0,1-.22.05l-.36,0-.36,0a.9.9,0,0,1-.22-.05.23.23,0,0,1-.12-.08.13.13,0,0,1,0-.1V47.5a.17.17,0,0,1,0-.1.26.26,0,0,1,.1-.07l.2,0h.59l.2,0a.2.2,0,0,1,.1.07.17.17,0,0,1,0,.1v.62a3.34,3.34,0,0,1,.45-.41,2.21,2.21,0,0,1,.45-.3,1.91,1.91,0,0,1,.47-.18,2.1,2.1,0,0,1,.51-.06,2,2,0,0,1,1,.23,1.84,1.84,0,0,1,.66.61,2.82,2.82,0,0,1,.37.92A4.84,4.84,0,0,1,114.54,50Zm-1.53.1a4.48,4.48,0,0,0-.05-.64,2.14,2.14,0,0,0-.17-.54,1,1,0,0,0-.32-.39.84.84,0,0,0-.49-.14,1,1,0,0,0-.29,0,1.15,1.15,0,0,0-.29.15,2.12,2.12,0,0,0-.31.25,3.71,3.71,0,0,0-.33.4V51a3.06,3.06,0,0,0,.59.6,1,1,0,0,0,.58.22.77.77,0,0,0,.49-.15,1.1,1.1,0,0,0,.33-.38,1.82,1.82,0,0,0,.19-.54A2.46,2.46,0,0,0,113,50.14Z"/><path class="cls-5" d="M120.16,52.74a.17.17,0,0,1,0,.13.58.58,0,0,1-.19.07l-.37,0-.38,0a.39.39,0,0,1-.17-.07.14.14,0,0,1,0-.13v-.41a2.43,2.43,0,0,1-.74.54,2.24,2.24,0,0,1-.91.19,2.65,2.65,0,0,1-.77-.11,1.73,1.73,0,0,1-.6-.32,1.52,1.52,0,0,1-.4-.53,1.88,1.88,0,0,1-.14-.74,1.65,1.65,0,0,1,.18-.79,1.45,1.45,0,0,1,.54-.56,2.66,2.66,0,0,1,.88-.32,6.2,6.2,0,0,1,1.22-.11h.51v-.31a1.9,1.9,0,0,0,0-.44.68.68,0,0,0-.47-.48,1.58,1.58,0,0,0-.47-.06,2.59,2.59,0,0,0-.66.08,4.28,4.28,0,0,0-.51.18l-.37.18a.48.48,0,0,1-.25.08.15.15,0,0,1-.11,0,.24.24,0,0,1-.08-.11.87.87,0,0,1,0-.19,1.81,1.81,0,0,1,0-.25,1,1,0,0,1,0-.28.45.45,0,0,1,.11-.19,1.11,1.11,0,0,1,.29-.19,2.82,2.82,0,0,1,.48-.19,3.31,3.31,0,0,1,.6-.14,3.63,3.63,0,0,1,.67-.06,4,4,0,0,1,1,.12,1.76,1.76,0,0,1,.72.37,1.4,1.4,0,0,1,.4.64,2.86,2.86,0,0,1,.13.93Zm-1.44-2.23h-.56a2.73,2.73,0,0,0-.61.05,1,1,0,0,0-.41.16.61.61,0,0,0-.23.25.77.77,0,0,0-.08.34.67.67,0,0,0,.21.52.86.86,0,0,0,.58.19,1.14,1.14,0,0,0,.57-.16,2.67,2.67,0,0,0,.53-.46Z"/><path class="cls-5" d="M125,48c0,.14,0,.26,0,.34a1,1,0,0,1,0,.22.14.14,0,0,1-.06.1.17.17,0,0,1-.1,0l-.1,0-.13,0-.17,0-.19,0a.69.69,0,0,0-.24.05.92.92,0,0,0-.26.16,1.45,1.45,0,0,0-.27.28,3.46,3.46,0,0,0-.31.43v3.25a.15.15,0,0,1,0,.11.22.22,0,0,1-.12.07,1,1,0,0,1-.22,0l-.36,0-.36,0-.22,0a.22.22,0,0,1-.12-.07.21.21,0,0,1,0-.11V47.5a.17.17,0,0,1,0-.1.23.23,0,0,1,.11-.07.74.74,0,0,1,.19,0h.62a.74.74,0,0,1,.19,0,.22.22,0,0,1,.09.07.17.17,0,0,1,0,.1v.65a5.69,5.69,0,0,1,.39-.48,1.78,1.78,0,0,1,.34-.3,1,1,0,0,1,.33-.16,1.24,1.24,0,0,1,.33,0h.16a.57.57,0,0,1,.18,0l.17,0,.1.06,0,.06a.3.3,0,0,1,0,.1.78.78,0,0,1,0,.19A3,3,0,0,1,125,48Z"/><path class="cls-5" d="M130.08,52.74a.15.15,0,0,1-.06.13.52.52,0,0,1-.18.07l-.38,0-.38,0a.46.46,0,0,1-.17-.07.17.17,0,0,1,0-.13v-.41a2.39,2.39,0,0,1-.73.54,2.29,2.29,0,0,1-.92.19,2.58,2.58,0,0,1-.76-.11,1.78,1.78,0,0,1-.61-.32,1.38,1.38,0,0,1-.39-.53,1.88,1.88,0,0,1-.14-.74,1.65,1.65,0,0,1,.18-.79A1.42,1.42,0,0,1,126,50a2.84,2.84,0,0,1,.88-.32,6.27,6.27,0,0,1,1.22-.11h.51v-.31a1.48,1.48,0,0,0,0-.44.62.62,0,0,0-.16-.3.75.75,0,0,0-.3-.18,1.65,1.65,0,0,0-.48-.06,2.57,2.57,0,0,0-.65.08,3.9,3.9,0,0,0-.52.18l-.37.18a.48.48,0,0,1-.24.08.19.19,0,0,1-.12,0,.24.24,0,0,1-.08-.11.87.87,0,0,1,0-.19,1.93,1.93,0,0,1,0-.25,1.91,1.91,0,0,1,0-.28.39.39,0,0,1,.12-.19,1,1,0,0,1,.28-.19,3.69,3.69,0,0,1,.48-.19,3.75,3.75,0,0,1,.6-.14,3.71,3.71,0,0,1,.67-.06,4,4,0,0,1,1,.12,1.76,1.76,0,0,1,.72.37,1.34,1.34,0,0,1,.41.64,2.86,2.86,0,0,1,.13.93Zm-1.45-2.23h-.56a2.73,2.73,0,0,0-.61.05,1.1,1.1,0,0,0-.41.16.68.68,0,0,0-.23.25.77.77,0,0,0-.07.34.67.67,0,0,0,.21.52.85.85,0,0,0,.57.19,1.11,1.11,0,0,0,.57-.16,2.42,2.42,0,0,0,.53-.46Z"/><path class="cls-5" d="M26.82,60.43c0,.14,0,.26,0,.35a.87.87,0,0,1,0,.21.14.14,0,0,1-.06.1.17.17,0,0,1-.1,0,.2.2,0,0,1-.1,0l-.13,0L26.21,61,26,61a.69.69,0,0,0-.24,0,1.22,1.22,0,0,0-.26.16,1.45,1.45,0,0,0-.27.28,4.42,4.42,0,0,0-.31.43v3.26a.13.13,0,0,1,0,.1.22.22,0,0,1-.12.07.9.9,0,0,1-.22,0h-.72a1,1,0,0,1-.22,0,.22.22,0,0,1-.12-.07.18.18,0,0,1,0-.1V60a.2.2,0,0,1,0-.11.23.23,0,0,1,.11-.07l.19,0,.31,0,.31,0,.19,0a.22.22,0,0,1,.09.07.2.2,0,0,1,0,.11v.65a4.65,4.65,0,0,1,.39-.49,2.93,2.93,0,0,1,.34-.3,1.21,1.21,0,0,1,.33-.15,1.26,1.26,0,0,1,.33,0h.16l.18,0a.69.69,0,0,1,.17.05.19.19,0,0,1,.1,0,.18.18,0,0,1,.05.07.2.2,0,0,1,0,.09.92.92,0,0,1,0,.19A3,3,0,0,1,26.82,60.43Z"/><path class="cls-5" d="M32.41,62.4a.56.56,0,0,1-.12.4.42.42,0,0,1-.33.13H28.78a2.31,2.31,0,0,0,.08.61,1.23,1.23,0,0,0,.26.46,1.06,1.06,0,0,0,.44.29,1.81,1.81,0,0,0,.65.1,3.37,3.37,0,0,0,.68-.06,4.3,4.3,0,0,0,.51-.12l.35-.12A.65.65,0,0,1,32,64l.09,0a.28.28,0,0,1,.06.08,1.06,1.06,0,0,1,0,.14c0,.07,0,.15,0,.25s0,.16,0,.22a.61.61,0,0,1,0,.15.29.29,0,0,1,0,.11l-.06.09-.21.11a3.84,3.84,0,0,1-.43.13,4.39,4.39,0,0,1-.61.12,5.43,5.43,0,0,1-.72,0,4,4,0,0,1-1.22-.17,2.25,2.25,0,0,1-.88-.54,2.23,2.23,0,0,1-.52-.9,4.66,4.66,0,0,1,0-2.53,2.64,2.64,0,0,1,.52-1,2.17,2.17,0,0,1,.84-.59A2.83,2.83,0,0,1,30,59.61a2.88,2.88,0,0,1,1.12.2,1.9,1.9,0,0,1,.76.53,2.13,2.13,0,0,1,.44.81,3.31,3.31,0,0,1,.14,1ZM31,62a1.51,1.51,0,0,0-.24-1,1,1,0,0,0-.83-.36,1.1,1.1,0,0,0-.49.11,1,1,0,0,0-.34.28,1.33,1.33,0,0,0-.21.43,2.09,2.09,0,0,0-.09.51Z"/><path class="cls-5" d="M37.57,64.34v.25c0,.07,0,.13,0,.17a1,1,0,0,1,0,.12l-.09.11a1.63,1.63,0,0,1-.24.16,2.84,2.84,0,0,1-.39.18,2.93,2.93,0,0,1-.47.12,3,3,0,0,1-.52,0,2.92,2.92,0,0,1-1.07-.19,2,2,0,0,1-.78-.56,2.45,2.45,0,0,1-.48-.89,4,4,0,0,1-.16-1.2,4.21,4.21,0,0,1,.19-1.36,2.63,2.63,0,0,1,.55-.94,2.14,2.14,0,0,1,.83-.56,3,3,0,0,1,1.06-.18,2.45,2.45,0,0,1,.46,0,2.58,2.58,0,0,1,.42.11l.35.16.22.15.09.11a.36.36,0,0,1,0,.11.9.9,0,0,1,0,.18,1.7,1.7,0,0,1,0,.24,1.32,1.32,0,0,1-.06.48c0,.09-.09.14-.15.14a.37.37,0,0,1-.21-.08,2,2,0,0,0-.26-.18,2.12,2.12,0,0,0-.37-.19,1.46,1.46,0,0,0-.5-.08,1,1,0,0,0-.88.44,2.34,2.34,0,0,0-.3,1.3,3.26,3.26,0,0,0,.07.74,1.69,1.69,0,0,0,.23.54.9.9,0,0,0,.37.33,1.25,1.25,0,0,0,.53.11,1.35,1.35,0,0,0,.52-.09,1.79,1.79,0,0,0,.39-.21l.27-.2a.32.32,0,0,1,.19-.09.16.16,0,0,1,.09,0,.23.23,0,0,1,.05.11.94.94,0,0,1,0,.2A2.92,2.92,0,0,1,37.57,64.34Z"/><path class="cls-5" d="M43.86,62.5a4.18,4.18,0,0,1-.17,1.22,2.62,2.62,0,0,1-.54,1,2.25,2.25,0,0,1-.89.61A3.26,3.26,0,0,1,41,65.5a3.38,3.38,0,0,1-1.21-.19,2.25,2.25,0,0,1-.86-.56,2.43,2.43,0,0,1-.5-.91,4.22,4.22,0,0,1-.16-1.23,3.91,3.91,0,0,1,.17-1.22,2.54,2.54,0,0,1,.54-1,2.44,2.44,0,0,1,.89-.61,3.46,3.46,0,0,1,1.26-.22,3.72,3.72,0,0,1,1.22.19,2.29,2.29,0,0,1,.85.56,2.43,2.43,0,0,1,.5.91A4.22,4.22,0,0,1,43.86,62.5Zm-1.51.06a4,4,0,0,0-.07-.71,1.76,1.76,0,0,0-.2-.56,1.09,1.09,0,0,0-.39-.38,1.27,1.27,0,0,0-.62-.13,1.32,1.32,0,0,0-.57.12,1,1,0,0,0-.4.35,1.53,1.53,0,0,0-.24.55,3.36,3.36,0,0,0-.08.74,3.26,3.26,0,0,0,.07.72,1.85,1.85,0,0,0,.2.56,1,1,0,0,0,.39.37,1.28,1.28,0,0,0,.61.13,1.46,1.46,0,0,0,.58-.11,1,1,0,0,0,.4-.35,1.58,1.58,0,0,0,.24-.56A3.22,3.22,0,0,0,42.35,62.56Z"/><path class="cls-5" d="M50,65.17a.17.17,0,0,1,0,.1.27.27,0,0,1-.12.07.9.9,0,0,1-.22,0h-.72a.9.9,0,0,1-.22,0,.22.22,0,0,1-.12-.07.18.18,0,0,1,0-.1v-3a2.43,2.43,0,0,0,0-.6,1.25,1.25,0,0,0-.16-.37.78.78,0,0,0-.27-.24.86.86,0,0,0-.39-.09,1,1,0,0,0-.57.21,3.38,3.38,0,0,0-.6.6v3.47a.17.17,0,0,1,0,.1.35.35,0,0,1-.12.07l-.23,0h-.71a1,1,0,0,1-.23,0,.22.22,0,0,1-.12-.07.17.17,0,0,1,0-.1V60a.2.2,0,0,1,0-.11s0-.05.1-.07l.2,0,.3,0,.31,0,.19,0a.26.26,0,0,1,.1.07.2.2,0,0,1,0,.11v.6a3.25,3.25,0,0,1,.89-.7,1.92,1.92,0,0,1,.93-.24,2.06,2.06,0,0,1,.9.18,1.55,1.55,0,0,1,.59.48,1.8,1.8,0,0,1,.32.7,3.91,3.91,0,0,1,.1,1Z"/><path class="cls-5" d="M56.74,62.5a3.86,3.86,0,0,1-.18,1.22,2.46,2.46,0,0,1-.53,1,2.28,2.28,0,0,1-.9.61,3.17,3.17,0,0,1-1.25.22,3.47,3.47,0,0,1-1.22-.19,2.14,2.14,0,0,1-1.35-1.47,4.2,4.2,0,0,1-.17-1.23,3.91,3.91,0,0,1,.18-1.22,2.54,2.54,0,0,1,.54-1,2.28,2.28,0,0,1,.89-.61A3.44,3.44,0,0,1,54,59.61a3.68,3.68,0,0,1,1.22.19,2.14,2.14,0,0,1,.85.56,2.18,2.18,0,0,1,.5.91A4.2,4.2,0,0,1,56.74,62.5Zm-1.52.06a4,4,0,0,0-.06-.71,1.56,1.56,0,0,0-.21-.56,1,1,0,0,0-.39-.38,1.23,1.23,0,0,0-.61-.13,1.26,1.26,0,0,0-.57.12.91.91,0,0,0-.4.35,1.53,1.53,0,0,0-.24.55,3.36,3.36,0,0,0-.08.74,4,4,0,0,0,.06.72,2.17,2.17,0,0,0,.21.56,1,1,0,0,0,.39.37,1.25,1.25,0,0,0,.61.13,1.5,1.5,0,0,0,.58-.11,1.13,1.13,0,0,0,.4-.35,1.58,1.58,0,0,0,.24-.56A3.26,3.26,0,0,0,55.22,62.56Z"/><path class="cls-5" d="M61.85,64.34v.25c0,.07,0,.13,0,.17a1,1,0,0,1,0,.12L61.7,65a1.63,1.63,0,0,1-.24.16,3.52,3.52,0,0,1-.39.18,2.93,2.93,0,0,1-.47.12,3.07,3.07,0,0,1-.53,0A2.9,2.9,0,0,1,59,65.31a2,2,0,0,1-.78-.56,2.31,2.31,0,0,1-.48-.89,4,4,0,0,1-.16-1.2,4.21,4.21,0,0,1,.19-1.36,2.63,2.63,0,0,1,.55-.94,2.14,2.14,0,0,1,.83-.56,3,3,0,0,1,1.06-.18,2.28,2.28,0,0,1,.45,0,2.7,2.7,0,0,1,.43.11l.35.16.22.15.09.11a.36.36,0,0,1,0,.11.9.9,0,0,1,0,.18,1.7,1.7,0,0,1,0,.24,1.32,1.32,0,0,1-.06.48c0,.09-.09.14-.15.14a.37.37,0,0,1-.21-.08l-.26-.18a2.55,2.55,0,0,0-.37-.19,1.5,1.5,0,0,0-.5-.08,1,1,0,0,0-.88.44,2.34,2.34,0,0,0-.3,1.3,3.26,3.26,0,0,0,.07.74,1.49,1.49,0,0,0,.23.54.9.9,0,0,0,.37.33,1.25,1.25,0,0,0,.53.11,1.38,1.38,0,0,0,.52-.09A1.51,1.51,0,0,0,61.2,64l.28-.2a.32.32,0,0,1,.19-.09.11.11,0,0,1,.08,0,.17.17,0,0,1,.06.11s0,.12,0,.2A2.92,2.92,0,0,1,61.85,64.34Z"/><path class="cls-5" d="M67.74,62.4a.56.56,0,0,1-.12.4.42.42,0,0,1-.33.13H64.11a2.31,2.31,0,0,0,.08.61,1.23,1.23,0,0,0,.26.46,1.06,1.06,0,0,0,.44.29,1.81,1.81,0,0,0,.65.1,3.37,3.37,0,0,0,.68-.06,4.3,4.3,0,0,0,.51-.12l.35-.12a.65.65,0,0,1,.23-.06l.09,0a.28.28,0,0,1,.06.08,1.06,1.06,0,0,1,0,.14c0,.07,0,.15,0,.25s0,.16,0,.22a.61.61,0,0,1,0,.15.29.29,0,0,1,0,.11l-.06.09-.21.11a3.84,3.84,0,0,1-.43.13,4.39,4.39,0,0,1-.61.12,5.43,5.43,0,0,1-.72,0,4,4,0,0,1-1.22-.17,2.25,2.25,0,0,1-.88-.54,2.23,2.23,0,0,1-.52-.9,4.66,4.66,0,0,1,0-2.53,2.64,2.64,0,0,1,.52-1,2.17,2.17,0,0,1,.84-.59,3.16,3.16,0,0,1,2.24,0,1.9,1.9,0,0,1,.76.53,2.13,2.13,0,0,1,.44.81,3.31,3.31,0,0,1,.14,1ZM66.31,62a1.51,1.51,0,0,0-.24-1,1,1,0,0,0-.83-.36,1.1,1.1,0,0,0-.49.11,1,1,0,0,0-.34.28,1.33,1.33,0,0,0-.21.43,2.09,2.09,0,0,0-.09.51Z"/><path class="cls-5" d="M72.31,60.43c0,.14,0,.26,0,.35a.87.87,0,0,1,0,.21.14.14,0,0,1-.06.1.17.17,0,0,1-.1,0,.2.2,0,0,1-.1,0l-.13,0L71.7,61l-.19,0a.69.69,0,0,0-.24,0,1.22,1.22,0,0,0-.26.16,1.45,1.45,0,0,0-.27.28,4.42,4.42,0,0,0-.31.43v3.26a.13.13,0,0,1,0,.1.22.22,0,0,1-.12.07.9.9,0,0,1-.22,0h-.72a1,1,0,0,1-.22,0,.22.22,0,0,1-.12-.07.18.18,0,0,1,0-.1V60a.2.2,0,0,1,0-.11.23.23,0,0,1,.11-.07l.19,0,.31,0,.31,0,.19,0a.22.22,0,0,1,.09.07.2.2,0,0,1,0,.11v.65a4.65,4.65,0,0,1,.39-.49,2.93,2.93,0,0,1,.34-.3,1.21,1.21,0,0,1,.33-.15,1.26,1.26,0,0,1,.33,0h.16l.19,0,.16.05a.19.19,0,0,1,.1,0,.18.18,0,0,1,.05.07.2.2,0,0,1,0,.09.92.92,0,0,1,0,.19A3,3,0,0,1,72.31,60.43Z"/><path class="cls-5" d="M79.88,64.34c0,.1,0,.18,0,.25s0,.13,0,.17l0,.12-.09.11a1.63,1.63,0,0,1-.24.16,2.84,2.84,0,0,1-.39.18,2.93,2.93,0,0,1-.47.12,3,3,0,0,1-.52,0A2.92,2.92,0,0,1,77,65.31a2,2,0,0,1-.78-.56,2.45,2.45,0,0,1-.48-.89,4,4,0,0,1-.16-1.2,4.21,4.21,0,0,1,.19-1.36,2.78,2.78,0,0,1,.55-.94,2.22,2.22,0,0,1,.83-.56,3,3,0,0,1,1.06-.18,2.38,2.38,0,0,1,.46,0,2.58,2.58,0,0,1,.42.11,2.29,2.29,0,0,1,.35.16,1.33,1.33,0,0,1,.22.15l.09.11a.36.36,0,0,1,0,.11.9.9,0,0,1,0,.18,1.7,1.7,0,0,1,0,.24,1.32,1.32,0,0,1-.06.48c0,.09-.09.14-.15.14a.37.37,0,0,1-.21-.08,2,2,0,0,0-.26-.18,1.81,1.81,0,0,0-.37-.19,1.46,1.46,0,0,0-.5-.08,1,1,0,0,0-.88.44,2.34,2.34,0,0,0-.3,1.3,2.75,2.75,0,0,0,.08.74,1.49,1.49,0,0,0,.22.54.9.9,0,0,0,.37.33,1.29,1.29,0,0,0,.53.11,1.35,1.35,0,0,0,.52-.09,1.79,1.79,0,0,0,.39-.21l.27-.2a.32.32,0,0,1,.19-.09.16.16,0,0,1,.09,0,.23.23,0,0,1,0,.11.56.56,0,0,1,0,.2A2.58,2.58,0,0,1,79.88,64.34Z"/><path class="cls-5" d="M82.42,65.17a.13.13,0,0,1,0,.1.22.22,0,0,1-.12.07,1,1,0,0,1-.22,0h-.72a.9.9,0,0,1-.22,0,.22.22,0,0,1-.12-.07.13.13,0,0,1,0-.1v-7.7a.13.13,0,0,1,0-.1.18.18,0,0,1,.12-.08.6.6,0,0,1,.22,0,1.89,1.89,0,0,1,.36,0,1.94,1.94,0,0,1,.36,0,.65.65,0,0,1,.22,0,.18.18,0,0,1,.12.08.13.13,0,0,1,0,.1Z"/><path class="cls-5" d="M88.33,65.18a.17.17,0,0,1,0,.13.42.42,0,0,1-.19.07l-.37,0-.38,0a.3.3,0,0,1-.17-.07.14.14,0,0,1,0-.13v-.41a2.43,2.43,0,0,1-.74.54,2.09,2.09,0,0,1-.91.19,2.65,2.65,0,0,1-.77-.11,1.73,1.73,0,0,1-.6-.32,1.52,1.52,0,0,1-.4-.53,1.88,1.88,0,0,1-.14-.74,1.67,1.67,0,0,1,.18-.79,1.52,1.52,0,0,1,.54-.56,2.66,2.66,0,0,1,.88-.32A6.2,6.2,0,0,1,86.38,62h.51v-.31a1.75,1.75,0,0,0,0-.43.67.67,0,0,0-.17-.31.64.64,0,0,0-.3-.18,1.58,1.58,0,0,0-.47-.06,2.59,2.59,0,0,0-.66.08l-.51.18-.37.19a.59.59,0,0,1-.25.08.21.21,0,0,1-.11,0,.36.36,0,0,1-.08-.12.74.74,0,0,1,0-.19,1.66,1.66,0,0,1,0-.24,1.12,1.12,0,0,1,0-.29.52.52,0,0,1,.11-.19,1.11,1.11,0,0,1,.29-.19,2.82,2.82,0,0,1,.48-.19,4.43,4.43,0,0,1,.6-.14,3.63,3.63,0,0,1,.67-.06,4,4,0,0,1,1,.12,1.89,1.89,0,0,1,.72.37,1.46,1.46,0,0,1,.4.64,2.86,2.86,0,0,1,.13.93ZM86.89,63h-.56a3.49,3.49,0,0,0-.61,0,1.21,1.21,0,0,0-.41.16.61.61,0,0,0-.23.25.78.78,0,0,0-.08.35.64.64,0,0,0,.21.51.81.81,0,0,0,.58.19,1,1,0,0,0,.57-.16,2.38,2.38,0,0,0,.53-.46Z"/><path class="cls-5" d="M93.16,60.43c0,.14,0,.26,0,.35a.87.87,0,0,1,0,.21.19.19,0,0,1-.06.1.17.17,0,0,1-.1,0,.2.2,0,0,1-.1,0l-.13,0L92.55,61l-.19,0a.69.69,0,0,0-.24,0,1.22,1.22,0,0,0-.26.16,1.45,1.45,0,0,0-.27.28,4.42,4.42,0,0,0-.31.43v3.26a.13.13,0,0,1,0,.1.22.22,0,0,1-.12.07.9.9,0,0,1-.22,0h-.72a1,1,0,0,1-.22,0,.22.22,0,0,1-.12-.07.18.18,0,0,1,0-.1V60a.2.2,0,0,1,0-.11.23.23,0,0,1,.11-.07l.19,0,.31,0,.31,0,.19,0a.22.22,0,0,1,.09.07.2.2,0,0,1,0,.11v.65a4.65,4.65,0,0,1,.39-.49,2.93,2.93,0,0,1,.34-.3,1.21,1.21,0,0,1,.33-.15,1.26,1.26,0,0,1,.33,0h.16l.18,0a.69.69,0,0,1,.17.05.19.19,0,0,1,.1,0,.18.18,0,0,1,0,.07.2.2,0,0,1,0,.09.92.92,0,0,1,0,.19A3,3,0,0,1,93.16,60.43Z"/><path class="cls-5" d="M98.25,65.18a.15.15,0,0,1-.06.13.38.38,0,0,1-.18.07l-.37,0-.39,0a.34.34,0,0,1-.17-.07.17.17,0,0,1,0-.13v-.41a2.39,2.39,0,0,1-.73.54,2.13,2.13,0,0,1-.92.19,2.63,2.63,0,0,1-.76-.11,1.73,1.73,0,0,1-.6-.32,1.41,1.41,0,0,1-.4-.53,1.88,1.88,0,0,1-.14-.74,1.67,1.67,0,0,1,.18-.79,1.49,1.49,0,0,1,.53-.56,2.84,2.84,0,0,1,.88-.32A6.27,6.27,0,0,1,96.29,62h.51v-.31a1.37,1.37,0,0,0,0-.43.66.66,0,0,0-.16-.31.75.75,0,0,0-.3-.18,1.63,1.63,0,0,0-.47-.06,2.59,2.59,0,0,0-.66.08l-.52.18-.37.19a.6.6,0,0,1-.24.08.21.21,0,0,1-.11,0,.38.38,0,0,1-.09-.12,1.67,1.67,0,0,1,0-.19,1.77,1.77,0,0,1,0-.24,1.12,1.12,0,0,1,0-.29.41.41,0,0,1,.11-.19,1,1,0,0,1,.28-.19,3.69,3.69,0,0,1,.48-.19,5.27,5.27,0,0,1,.6-.14,3.71,3.71,0,0,1,.67-.06,4,4,0,0,1,1,.12,1.89,1.89,0,0,1,.72.37,1.39,1.39,0,0,1,.41.64,2.86,2.86,0,0,1,.13.93ZM96.8,63h-.56a3.49,3.49,0,0,0-.61,0,1.4,1.4,0,0,0-.41.16.68.68,0,0,0-.23.25.78.78,0,0,0-.07.35.64.64,0,0,0,.21.51.8.8,0,0,0,.57.19,1,1,0,0,0,.57-.16,2.18,2.18,0,0,0,.53-.46Z"/><path class="cls-5" d="M108,65.17a.18.18,0,0,1,0,.1.22.22,0,0,1-.12.07.9.9,0,0,1-.22,0h-.72a.9.9,0,0,1-.22,0,.22.22,0,0,1-.12-.07.17.17,0,0,1,0-.1v-3.1a2.44,2.44,0,0,0,0-.48,1.25,1.25,0,0,0-.16-.37.72.72,0,0,0-.25-.24.75.75,0,0,0-.37-.09.88.88,0,0,0-.54.21,3.73,3.73,0,0,0-.58.6v3.47a.13.13,0,0,1,0,.1.22.22,0,0,1-.12.07.9.9,0,0,1-.22,0h-.71a1,1,0,0,1-.23,0,.35.35,0,0,1-.12-.07.17.17,0,0,1,0-.1v-3.1a2.44,2.44,0,0,0,0-.48,1,1,0,0,0-.15-.37.75.75,0,0,0-.26-.24.72.72,0,0,0-.37-.09.88.88,0,0,0-.54.21,3.34,3.34,0,0,0-.57.6v3.47a.18.18,0,0,1,0,.1.22.22,0,0,1-.12.07,1,1,0,0,1-.23,0h-.71l-.23,0a.35.35,0,0,1-.12-.07.17.17,0,0,1,0-.1V60a.2.2,0,0,1,0-.11.2.2,0,0,1,.1-.07l.2,0,.3,0,.31,0a.69.69,0,0,1,.19,0,.2.2,0,0,1,.1.07.2.2,0,0,1,0,.11v.6a3.31,3.31,0,0,1,.86-.7,1.84,1.84,0,0,1,.9-.24,2.56,2.56,0,0,1,.58.07,1.71,1.71,0,0,1,.46.19,2,2,0,0,1,.35.3,1.77,1.77,0,0,1,.24.4,4.62,4.62,0,0,1,.46-.44,2.28,2.28,0,0,1,.45-.29,1.82,1.82,0,0,1,.44-.17,1.61,1.61,0,0,1,.44-.06,1.94,1.94,0,0,1,.88.18,1.51,1.51,0,0,1,.58.48,1.94,1.94,0,0,1,.31.7,3.9,3.9,0,0,1,.1.86Z"/><path class="cls-5" d="M114.29,62.4a.56.56,0,0,1-.12.4.42.42,0,0,1-.33.13h-3.18a2.31,2.31,0,0,0,.08.61A1.23,1.23,0,0,0,111,64a1.06,1.06,0,0,0,.44.29,1.81,1.81,0,0,0,.65.1,3.37,3.37,0,0,0,.68-.06,3.88,3.88,0,0,0,.51-.12l.35-.12a.65.65,0,0,1,.23-.06l.09,0a.28.28,0,0,1,.06.08,1.06,1.06,0,0,1,0,.14c0,.07,0,.15,0,.25a1.48,1.48,0,0,1,0,.22.61.61,0,0,1,0,.15.29.29,0,0,1,0,.11l-.06.09-.21.11a3.84,3.84,0,0,1-.43.13,4.39,4.39,0,0,1-.61.12,5.31,5.31,0,0,1-.72,0,4,4,0,0,1-1.22-.17,2.25,2.25,0,0,1-.88-.54,2.23,2.23,0,0,1-.52-.9,4.66,4.66,0,0,1,0-2.53,2.64,2.64,0,0,1,.52-1,2.17,2.17,0,0,1,.84-.59,3.16,3.16,0,0,1,2.24,0,1.83,1.83,0,0,1,.76.53,2.13,2.13,0,0,1,.44.81,3.31,3.31,0,0,1,.14,1ZM112.87,62a1.57,1.57,0,0,0-.25-1,1,1,0,0,0-.83-.36,1,1,0,0,0-.48.11A1,1,0,0,0,111,61a1.33,1.33,0,0,0-.21.43,2.09,2.09,0,0,0-.09.51Z"/><path class="cls-5" d="M120.49,65.17a.17.17,0,0,1,0,.1.35.35,0,0,1-.12.07,1,1,0,0,1-.23,0h-.71a1,1,0,0,1-.23,0,.23.23,0,0,1-.11-.07.13.13,0,0,1,0-.1v-3a3,3,0,0,0,0-.6,1.25,1.25,0,0,0-.16-.37.73.73,0,0,0-.28-.24.8.8,0,0,0-.39-.09,1,1,0,0,0-.56.21,3.38,3.38,0,0,0-.6.6v3.47a.17.17,0,0,1,0,.1.32.32,0,0,1-.13.07.9.9,0,0,1-.22,0h-.71a1,1,0,0,1-.23,0,.22.22,0,0,1-.12-.07.18.18,0,0,1,0-.1V60a.2.2,0,0,1,0-.11.23.23,0,0,1,.11-.07.88.88,0,0,1,.2,0l.3,0,.31,0,.19,0a.22.22,0,0,1,.09.07.2.2,0,0,1,0,.11v.6a3.37,3.37,0,0,1,.88-.7,2,2,0,0,1,.94-.24,2.06,2.06,0,0,1,.9.18,1.55,1.55,0,0,1,.59.48,1.8,1.8,0,0,1,.32.7,3.91,3.91,0,0,1,.1,1Z"/><path class="cls-5" d="M124.92,64.65a1.4,1.4,0,0,1,0,.4.33.33,0,0,1-.24.29,1.67,1.67,0,0,1-.24.08l-.29,0h-.33a2.21,2.21,0,0,1-.76-.11,1.28,1.28,0,0,1-.53-.34,1.35,1.35,0,0,1-.31-.58,3,3,0,0,1-.1-.83V60.94h-.63c-.07,0-.13,0-.17-.14a1.23,1.23,0,0,1-.06-.46,2.16,2.16,0,0,1,0-.28.78.78,0,0,1,0-.19.24.24,0,0,1,.08-.09.15.15,0,0,1,.1,0h.62V58.58a.17.17,0,0,1,0-.1.23.23,0,0,1,.12-.08.89.89,0,0,1,.23,0h.71a.8.8,0,0,1,.22,0,.23.23,0,0,1,.12.08.18.18,0,0,1,0,.1v1.17h1.13a.15.15,0,0,1,.1,0,.24.24,0,0,1,.08.09.78.78,0,0,1,0,.19,2.16,2.16,0,0,1,0,.28,1.23,1.23,0,0,1-.06.46c0,.1-.1.14-.17.14h-1.14v2.45a1.27,1.27,0,0,0,.13.65.53.53,0,0,0,.48.21l.21,0,.17,0,.12-.05.09,0,.07,0a.19.19,0,0,1,.05.09,1.57,1.57,0,0,1,0,.16A1.87,1.87,0,0,1,124.92,64.65Z"/><path class="cls-5" d="M130.66,62.4a.56.56,0,0,1-.12.4.42.42,0,0,1-.33.13H127a2.31,2.31,0,0,0,.08.61,1.09,1.09,0,0,0,.25.46,1.06,1.06,0,0,0,.44.29,1.87,1.87,0,0,0,.66.1,3.51,3.51,0,0,0,.68-.06,4.11,4.11,0,0,0,.5-.12l.36-.12a.61.61,0,0,1,.22-.06l.09,0a.12.12,0,0,1,.06.08.26.26,0,0,1,0,.14,1.85,1.85,0,0,1,0,.25v.22c0,.06,0,.11,0,.15a.28.28,0,0,1,0,.11.24.24,0,0,1-.06.09.85.85,0,0,1-.21.11,3.28,3.28,0,0,1-.43.13,4.23,4.23,0,0,1-.6.12,5.58,5.58,0,0,1-.73,0,4.08,4.08,0,0,1-1.22-.17,2.14,2.14,0,0,1-.87-.54,2.24,2.24,0,0,1-.53-.9,4.39,4.39,0,0,1-.17-1.27,4.08,4.08,0,0,1,.18-1.26,2.66,2.66,0,0,1,.53-1,2.17,2.17,0,0,1,.84-.59,2.82,2.82,0,0,1,1.11-.21,2.88,2.88,0,0,1,1.12.2,1.93,1.93,0,0,1,.77.53,2.27,2.27,0,0,1,.44.81,3.64,3.64,0,0,1,.14,1ZM129.23,62a1.51,1.51,0,0,0-.25-1,1,1,0,0,0-.82-.36,1.07,1.07,0,0,0-.49.11,1.06,1.06,0,0,0-.35.28,1.33,1.33,0,0,0-.21.43A2.72,2.72,0,0,0,127,62Z"/><path class="cls-5" d="M31,74.85a.58.58,0,0,1-.12.4.45.45,0,0,1-.33.12H27.38a2.25,2.25,0,0,0,.08.61,1.14,1.14,0,0,0,.25.46,1,1,0,0,0,.45.29,1.78,1.78,0,0,0,.65.1,4.5,4.5,0,0,0,.68,0,4,4,0,0,0,.5-.13l.36-.12a.55.55,0,0,1,.22,0s.07,0,.09,0a.09.09,0,0,1,.06.07.28.28,0,0,1,0,.15,1.63,1.63,0,0,1,0,.24v.22c0,.06,0,.11,0,.16a.3.3,0,0,1,0,.1.24.24,0,0,1-.06.09.62.62,0,0,1-.2.11,3.88,3.88,0,0,1-.44.14c-.17,0-.38.08-.6.11a4.26,4.26,0,0,1-.73,0,3.79,3.79,0,0,1-1.22-.17,2.24,2.24,0,0,1-.87-.53,2.21,2.21,0,0,1-.53-.91,4.34,4.34,0,0,1-.17-1.27,4.12,4.12,0,0,1,.18-1.26,2.53,2.53,0,0,1,.53-.94,2.31,2.31,0,0,1,.84-.6,2.82,2.82,0,0,1,1.11-.2,2.85,2.85,0,0,1,1.12.19,2,2,0,0,1,.77.54,2.11,2.11,0,0,1,.44.81,3.62,3.62,0,0,1,.14,1Zm-1.43-.42a1.52,1.52,0,0,0-.25-1,1,1,0,0,0-.82-.35,1.07,1.07,0,0,0-.49.1,1,1,0,0,0-.34.29,1.2,1.2,0,0,0-.22.42,2.7,2.7,0,0,0-.08.52Z"/><path class="cls-5" d="M37.21,77.61a.13.13,0,0,1,0,.1.23.23,0,0,1-.12.08,1,1,0,0,1-.22,0h-.71a1,1,0,0,1-.23,0,.28.28,0,0,1-.12-.08.17.17,0,0,1,0-.1v-3a2.41,2.41,0,0,0-.06-.6,1.38,1.38,0,0,0-.16-.37.78.78,0,0,0-.27-.24.93.93,0,0,0-.39-.08,1,1,0,0,0-.57.2,3.06,3.06,0,0,0-.59.6v3.47a.18.18,0,0,1,0,.1.23.23,0,0,1-.12.08l-.23,0H32.6l-.23,0a.36.36,0,0,1-.12-.08.17.17,0,0,1,0-.1V72.39a.17.17,0,0,1,0-.1.21.21,0,0,1,.1-.08l.2,0h.61a.69.69,0,0,1,.19,0,.21.21,0,0,1,.1.08.17.17,0,0,1,0,.1V73a3.42,3.42,0,0,1,.88-.7,1.94,1.94,0,0,1,.93-.23,2,2,0,0,1,.9.17,1.56,1.56,0,0,1,.59.48,2,2,0,0,1,.33.7,4.55,4.55,0,0,1,.1,1Z"/><path class="cls-5" d="M46.31,79.68a.2.2,0,0,1,0,.11.23.23,0,0,1-.12.08.9.9,0,0,1-.22,0h-.71a1,1,0,0,1-.23,0,.23.23,0,0,1-.12-.08.2.2,0,0,1,0-.11V77.2c-.14.13-.28.24-.41.34a2.3,2.3,0,0,1-.4.23,1.51,1.51,0,0,1-.41.13,2.12,2.12,0,0,1-.44,0,1.9,1.9,0,0,1-1-.23,1.87,1.87,0,0,1-.66-.62,2.82,2.82,0,0,1-.37-.92,4.88,4.88,0,0,1-.12-1.1,4.41,4.41,0,0,1,.16-1.25,2.88,2.88,0,0,1,.44-.95,2.07,2.07,0,0,1,.72-.6,2.22,2.22,0,0,1,1-.21,2,2,0,0,1,.42,0,1.56,1.56,0,0,1,.39.15,3.06,3.06,0,0,1,.42.28c.14.12.3.26.47.43v-.57a.17.17,0,0,1,0-.1.27.27,0,0,1,.1-.08.88.88,0,0,1,.2,0H46a.88.88,0,0,1,.2,0,.18.18,0,0,1,.09.08.17.17,0,0,1,0,.1Zm-1.46-5.56a3.18,3.18,0,0,0-.61-.61,1,1,0,0,0-.6-.21.84.84,0,0,0-.5.15,1,1,0,0,0-.33.38,2.15,2.15,0,0,0-.19.54,2.91,2.91,0,0,0-.06.6,3.39,3.39,0,0,0,.06.64,1.77,1.77,0,0,0,.17.55,1,1,0,0,0,.32.39.8.8,0,0,0,.5.15,1,1,0,0,0,.3,0,1.09,1.09,0,0,0,.29-.14,2.25,2.25,0,0,0,.31-.26c.1-.11.22-.24.34-.4Z"/><path class="cls-5" d="M52.75,77.61a.17.17,0,0,1,0,.1.27.27,0,0,1-.1.08.88.88,0,0,1-.2,0h-.61a.69.69,0,0,1-.19,0,.21.21,0,0,1-.1-.08.17.17,0,0,1,0-.1V77a3.42,3.42,0,0,1-.88.7,1.94,1.94,0,0,1-.93.23,2,2,0,0,1-.9-.17,1.6,1.6,0,0,1-.6-.48,2,2,0,0,1-.32-.71,4.58,4.58,0,0,1-.09-1v-3.2a.17.17,0,0,1,0-.1.24.24,0,0,1,.11-.08l.23,0h.71l.23,0a.23.23,0,0,1,.12.08.18.18,0,0,1,0,.1v3a2.65,2.65,0,0,0,0,.63,1.12,1.12,0,0,0,.16.37.78.78,0,0,0,.27.24.93.93,0,0,0,.39.08,1,1,0,0,0,.57-.2,3.38,3.38,0,0,0,.6-.6V72.39a.13.13,0,0,1,0-.1.24.24,0,0,1,.11-.08l.23,0h.71a.87.87,0,0,1,.22,0,.23.23,0,0,1,.12.08.13.13,0,0,1,0,.1Z"/><path class="cls-5" d="M59.05,74.85a.58.58,0,0,1-.12.4.45.45,0,0,1-.33.12H55.42a2.25,2.25,0,0,0,.08.61,1.14,1.14,0,0,0,.25.46,1.06,1.06,0,0,0,.45.29,1.81,1.81,0,0,0,.65.1,4.5,4.5,0,0,0,.68,0,4,4,0,0,0,.5-.13l.36-.12a.56.56,0,0,1,.23,0,.11.11,0,0,1,.08,0,.09.09,0,0,1,.06.07.39.39,0,0,1,0,.15v.46c0,.06,0,.11,0,.16l0,.1-.07.09a.62.62,0,0,1-.2.11,3.88,3.88,0,0,1-.44.14,6,6,0,0,1-.6.11,4.26,4.26,0,0,1-.73,0,3.79,3.79,0,0,1-1.22-.17,2.32,2.32,0,0,1-.87-.53,2.2,2.2,0,0,1-.52-.91,4,4,0,0,1-.18-1.27,4.12,4.12,0,0,1,.18-1.26,2.68,2.68,0,0,1,.53-.94,2.31,2.31,0,0,1,.84-.6,2.83,2.83,0,0,1,1.12-.2,2.92,2.92,0,0,1,1.12.19,2,2,0,0,1,.76.54,2,2,0,0,1,.44.81,3.62,3.62,0,0,1,.14,1Zm-1.43-.42a1.52,1.52,0,0,0-.25-1,1,1,0,0,0-.82-.35,1.07,1.07,0,0,0-.49.1,1,1,0,0,0-.34.29,1.38,1.38,0,0,0-.21.42,2.09,2.09,0,0,0-.09.52Zm-.82-4.6a.38.38,0,0,1,.1-.12.46.46,0,0,1,.14-.07l.23,0h.32a2.46,2.46,0,0,1,.43,0,.49.49,0,0,1,.22.06s.07.07.06.11a.19.19,0,0,1-.06.12l-1.13,1.36-.1.09a.23.23,0,0,1-.12.06l-.18,0h-.28l-.33,0a.37.37,0,0,1-.16,0,.1.1,0,0,1,0-.1.22.22,0,0,1,.06-.13Z"/><path class="cls-5" d="M66.92,76.78a1.78,1.78,0,0,1,0,.25.9.9,0,0,1,0,.18l0,.11a.47.47,0,0,1-.1.11.93.93,0,0,1-.24.17,2.7,2.7,0,0,1-.38.17,3.23,3.23,0,0,1-.47.12,3.07,3.07,0,0,1-.53,0,2.8,2.8,0,0,1-1.07-.19,2,2,0,0,1-.78-.55,2.37,2.37,0,0,1-.47-.89,4.78,4.78,0,0,1,0-2.56,2.46,2.46,0,0,1,.55-1,2.14,2.14,0,0,1,.83-.56,3,3,0,0,1,1-.18,3.42,3.42,0,0,1,.46,0l.42.11a2.43,2.43,0,0,1,.36.16l.22.15.09.11a.83.83,0,0,1,0,.12s0,.1,0,.17a1.85,1.85,0,0,1,0,.25,1.4,1.4,0,0,1-.06.48c0,.09-.09.13-.15.13a.31.31,0,0,1-.21-.08l-.27-.18a1.51,1.51,0,0,0-.36-.18,1.28,1.28,0,0,0-.5-.08,1,1,0,0,0-.88.44,2.28,2.28,0,0,0-.3,1.29,3.36,3.36,0,0,0,.07.75,1.66,1.66,0,0,0,.23.54,1,1,0,0,0,.37.32,1.25,1.25,0,0,0,.53.11,1.38,1.38,0,0,0,.52-.09,2.24,2.24,0,0,0,.38-.2c.11-.08.2-.14.28-.21a.3.3,0,0,1,.19-.09.11.11,0,0,1,.08,0,.17.17,0,0,1,.06.11s0,.12,0,.2A3,3,0,0,1,66.92,76.78Z"/><path class="cls-5" d="M73.21,75A3.84,3.84,0,0,1,73,76.16a2.39,2.39,0,0,1-.53,1,2.46,2.46,0,0,1-.89.62,3.47,3.47,0,0,1-1.26.21,3.38,3.38,0,0,1-1.21-.19,2.14,2.14,0,0,1-.86-.56,2.3,2.3,0,0,1-.5-.91,4.2,4.2,0,0,1-.17-1.23,4,4,0,0,1,.18-1.22,2.62,2.62,0,0,1,.54-1,2.48,2.48,0,0,1,.89-.61,3.47,3.47,0,0,1,1.26-.21,3.42,3.42,0,0,1,1.21.19,2,2,0,0,1,.85.56,2.21,2.21,0,0,1,.51.9A4.61,4.61,0,0,1,73.21,75ZM71.69,75a4,4,0,0,0-.06-.72,1.63,1.63,0,0,0-.21-.56.93.93,0,0,0-.39-.37,1.22,1.22,0,0,0-.61-.14,1.26,1.26,0,0,0-.57.12,1,1,0,0,0-.4.35,1.58,1.58,0,0,0-.24.56,3.22,3.22,0,0,0-.08.74,3.92,3.92,0,0,0,.06.71,2,2,0,0,0,.21.56,1.09,1.09,0,0,0,.39.38,1.38,1.38,0,0,0,.61.13,1.31,1.31,0,0,0,.58-.12,1,1,0,0,0,.4-.35,1.53,1.53,0,0,0,.24-.55A3.38,3.38,0,0,0,71.69,75Z"/><path class="cls-5" d="M79.36,77.61a.17.17,0,0,1,0,.1.36.36,0,0,1-.12.08l-.23,0h-.71l-.23,0a.24.24,0,0,1-.11-.08.13.13,0,0,1,0-.1v-3a3.12,3.12,0,0,0,0-.6,1.38,1.38,0,0,0-.16-.37.81.81,0,0,0-.28-.24.93.93,0,0,0-.39-.08,1,1,0,0,0-.56.2,3.08,3.08,0,0,0-.6.6v3.47a.13.13,0,0,1,0,.1.23.23,0,0,1-.12.08,1,1,0,0,1-.22,0h-.72l-.22,0a.23.23,0,0,1-.12-.08.18.18,0,0,1,0-.1V72.39a.17.17,0,0,1,0-.1.24.24,0,0,1,.11-.08l.19,0h.62l.19,0a.24.24,0,0,1,.09.08.17.17,0,0,1,0,.1V73a3.42,3.42,0,0,1,.88-.7,2,2,0,0,1,.94-.23,2.07,2.07,0,0,1,.9.17,1.64,1.64,0,0,1,.59.48,1.8,1.8,0,0,1,.32.7,4,4,0,0,1,.1,1Z"/><path class="cls-5" d="M84.48,76.14a1.78,1.78,0,0,1-.16.78,1.56,1.56,0,0,1-.48.57,2.18,2.18,0,0,1-.72.34,3.17,3.17,0,0,1-.9.11,3.43,3.43,0,0,1-.56,0l-.47-.11a2.53,2.53,0,0,1-.35-.14.86.86,0,0,1-.21-.13.43.43,0,0,1-.1-.19,1.92,1.92,0,0,1,0-.39,1.94,1.94,0,0,1,0-.27c0-.07,0-.13,0-.17a.18.18,0,0,1,.06-.08l.09,0a.4.4,0,0,1,.19.07,2.2,2.2,0,0,0,.31.16,3.12,3.12,0,0,0,.44.17,1.91,1.91,0,0,0,.56.07,1.32,1.32,0,0,0,.36,0,.83.83,0,0,0,.27-.12.52.52,0,0,0,.17-.19.6.6,0,0,0,.06-.27.48.48,0,0,0-.11-.3,1,1,0,0,0-.29-.22,3,3,0,0,0-.4-.17l-.46-.19a4,4,0,0,1-.47-.22,1.76,1.76,0,0,1-.4-.32,1.45,1.45,0,0,1-.29-.45,1.74,1.74,0,0,1-.1-.63,1.52,1.52,0,0,1,.56-1.23,2.22,2.22,0,0,1,.67-.34,3.09,3.09,0,0,1,.89-.12,3.87,3.87,0,0,1,.48,0,2.59,2.59,0,0,1,.42.09,1.58,1.58,0,0,1,.31.11,1,1,0,0,1,.19.11l.08.09,0,.1a.61.61,0,0,1,0,.15,1.55,1.55,0,0,1,0,.23,2,2,0,0,1,0,.26.49.49,0,0,1,0,.15.12.12,0,0,1-.05.08.13.13,0,0,1-.09,0,.4.4,0,0,1-.16-.06l-.28-.13a2.8,2.8,0,0,0-.38-.13,2,2,0,0,0-.5-.06,1.2,1.2,0,0,0-.35,0,.67.67,0,0,0-.24.12.55.55,0,0,0-.14.17.59.59,0,0,0,0,.22A.45.45,0,0,0,82,74a1.14,1.14,0,0,0,.3.21,2,2,0,0,0,.41.18l.47.18a5,5,0,0,1,.47.22,2.15,2.15,0,0,1,.41.32,1.39,1.39,0,0,1,.29.45A1.46,1.46,0,0,1,84.48,76.14Z"/><path class="cls-5" d="M87.17,70.62a.85.85,0,0,1-.18.62,1.41,1.41,0,0,1-1.34,0,.77.77,0,0,1-.17-.59.85.85,0,0,1,.18-.62A1.41,1.41,0,0,1,87,70,.79.79,0,0,1,87.17,70.62Zm-.11,7a.17.17,0,0,1,0,.1.23.23,0,0,1-.12.08l-.23,0H86l-.23,0a.36.36,0,0,1-.12-.08.17.17,0,0,1,0-.1V72.4a.17.17,0,0,1,0-.1.36.36,0,0,1,.12-.08l.23,0h.71a1,1,0,0,1,.23,0,.23.23,0,0,1,.12.08.17.17,0,0,1,0,.1Z"/><path class="cls-5" d="M92.21,76.14a1.79,1.79,0,0,1-.17.78,1.53,1.53,0,0,1-.47.57,2.18,2.18,0,0,1-.72.34,3.27,3.27,0,0,1-.9.11,3.36,3.36,0,0,1-.56,0,4.32,4.32,0,0,1-.48-.11,3.17,3.17,0,0,1-.35-.14,1,1,0,0,1-.2-.13.35.35,0,0,1-.1-.19,1.79,1.79,0,0,1,0-.39,1.65,1.65,0,0,1,0-.27.4.4,0,0,1,0-.17.1.1,0,0,1,.06-.08l.09,0a.44.44,0,0,1,.19.07,1.76,1.76,0,0,0,.31.16,2.7,2.7,0,0,0,.44.17,1.91,1.91,0,0,0,.56.07,1.25,1.25,0,0,0,.35,0,.67.67,0,0,0,.27-.12.47.47,0,0,0,.18-.19.6.6,0,0,0,.06-.27.48.48,0,0,0-.11-.3,1.11,1.11,0,0,0-.29-.22,3,3,0,0,0-.4-.17l-.47-.19a4.81,4.81,0,0,1-.46-.22,1.76,1.76,0,0,1-.4-.32,1.29,1.29,0,0,1-.29-.45,1.73,1.73,0,0,1-.11-.63,1.57,1.57,0,0,1,.57-1.23,2.11,2.11,0,0,1,.67-.34,3,3,0,0,1,.89-.12,3.59,3.59,0,0,1,.47,0,2.2,2.2,0,0,1,.42.09,1.69,1.69,0,0,1,.32.11.82.82,0,0,1,.18.11.22.22,0,0,1,.08.09.3.3,0,0,1,0,.1,1,1,0,0,0,0,.15c0,.06,0,.14,0,.23s0,.19,0,.26a1.3,1.3,0,0,1,0,.15s0,.07-.06.08a.11.11,0,0,1-.08,0,.4.4,0,0,1-.16-.06l-.28-.13a2.54,2.54,0,0,0-.39-.13,1.85,1.85,0,0,0-.5-.06,1.13,1.13,0,0,0-.34,0,.67.67,0,0,0-.24.12.44.44,0,0,0-.14.17.59.59,0,0,0,0,.22.45.45,0,0,0,.11.31.94.94,0,0,0,.29.21,2,2,0,0,0,.42.18c.15.06.31.11.46.18a4,4,0,0,1,.47.22,2.22,2.22,0,0,1,.42.32,1.58,1.58,0,0,1,.29.45A1.64,1.64,0,0,1,92.21,76.14Z"/><path class="cls-5" d="M96.27,77.1a1.92,1.92,0,0,1,0,.39.34.34,0,0,1-.09.19.36.36,0,0,1-.15.1,1.35,1.35,0,0,1-.24.08l-.3,0-.32,0a2.51,2.51,0,0,1-.77-.11,1.3,1.3,0,0,1-.53-.35,1.47,1.47,0,0,1-.31-.58,3.31,3.31,0,0,1-.1-.83V73.38h-.62c-.08,0-.13,0-.17-.13a1.27,1.27,0,0,1-.06-.46,2.44,2.44,0,0,1,0-.29.56.56,0,0,1,0-.18.2.2,0,0,1,.07-.1.17.17,0,0,1,.1,0h.62V71a.2.2,0,0,1,0-.11.36.36,0,0,1,.12-.08,1,1,0,0,1,.23,0h.71a1,1,0,0,1,.23,0,.36.36,0,0,1,.12.08.2.2,0,0,1,0,.11v1.16H96a.17.17,0,0,1,.1,0,.2.2,0,0,1,.07.1.56.56,0,0,1,.05.18,2.44,2.44,0,0,1,0,.29,1.27,1.27,0,0,1-.06.46c0,.09-.09.13-.17.13H94.9v2.46a1.22,1.22,0,0,0,.14.64.53.53,0,0,0,.48.21.75.75,0,0,0,.21,0l.16,0,.13,0a.15.15,0,0,1,.09,0,.07.07,0,0,1,.06,0s0,0,0,.08a.61.61,0,0,1,0,.17A2.1,2.1,0,0,1,96.27,77.1Z"/><path class="cls-5" d="M102,74.85a.58.58,0,0,1-.12.4.45.45,0,0,1-.33.12H98.38a2.25,2.25,0,0,0,.08.61,1.27,1.27,0,0,0,.25.46,1.06,1.06,0,0,0,.45.29,1.81,1.81,0,0,0,.65.1,4.4,4.4,0,0,0,.68,0,4.18,4.18,0,0,0,.51-.13l.35-.12a.6.6,0,0,1,.23,0,.15.15,0,0,1,.09,0,.14.14,0,0,1,.06.07,1,1,0,0,1,0,.15c0,.06,0,.14,0,.24s0,.16,0,.22a.78.78,0,0,1,0,.16.29.29,0,0,1,0,.1l-.06.09a.91.91,0,0,1-.21.11,3.64,3.64,0,0,1-.43.14c-.18,0-.38.08-.61.11a4.14,4.14,0,0,1-.72,0,3.75,3.75,0,0,1-1.22-.17,2.36,2.36,0,0,1-.88-.53,2.2,2.2,0,0,1-.52-.91,4,4,0,0,1-.17-1.27,4.12,4.12,0,0,1,.18-1.26,2.52,2.52,0,0,1,.52-.94,2.31,2.31,0,0,1,.84-.6,2.83,2.83,0,0,1,1.12-.2,2.88,2.88,0,0,1,1.12.19,2,2,0,0,1,.76.54,2,2,0,0,1,.44.81,3.29,3.29,0,0,1,.14,1Zm-1.43-.42a1.52,1.52,0,0,0-.24-1,1,1,0,0,0-.83-.35,1.1,1.1,0,0,0-.49.1,1.05,1.05,0,0,0-.34.29,1.38,1.38,0,0,0-.21.42,2.09,2.09,0,0,0-.09.52Z"/><path class="cls-5" d="M109.88,76.78V77q0,.1,0,.18l0,.11-.09.11a1.54,1.54,0,0,1-.24.17,3.52,3.52,0,0,1-.39.17,2.93,2.93,0,0,1-.47.12,3.05,3.05,0,0,1-.52,0,2.73,2.73,0,0,1-1.07-.19,2,2,0,0,1-.78-.55,2.39,2.39,0,0,1-.48-.89,4.78,4.78,0,0,1,0-2.56,2.59,2.59,0,0,1,.55-1,2.14,2.14,0,0,1,.83-.56,3,3,0,0,1,1.06-.18,3.42,3.42,0,0,1,.45,0,3.83,3.83,0,0,1,.43.11l.35.16.22.15.09.11a.34.34,0,0,1,0,.12.72.72,0,0,1,0,.17,1.85,1.85,0,0,1,0,.25,1.4,1.4,0,0,1-.06.48c0,.09-.09.13-.15.13a.31.31,0,0,1-.21-.08l-.26-.18a1.82,1.82,0,0,0-.37-.18,1.28,1.28,0,0,0-.5-.08,1,1,0,0,0-.88.44,2.28,2.28,0,0,0-.3,1.29,3.36,3.36,0,0,0,.07.75,1.66,1.66,0,0,0,.23.54,1,1,0,0,0,.37.32,1.25,1.25,0,0,0,.53.11,1.38,1.38,0,0,0,.52-.09,2.36,2.36,0,0,0,.39-.2c.1-.08.2-.14.27-.21a.32.32,0,0,1,.19-.09.11.11,0,0,1,.08,0,.17.17,0,0,1,.06.11.94.94,0,0,1,0,.2A3,3,0,0,1,109.88,76.78Z"/><path class="cls-5" d="M115.33,77.63a.16.16,0,0,1-.06.13.38.38,0,0,1-.19.06,1.79,1.79,0,0,1-.37,0,1.9,1.9,0,0,1-.38,0,.3.3,0,0,1-.17-.06.19.19,0,0,1,0-.13v-.42a2.31,2.31,0,0,1-.74.54,2.09,2.09,0,0,1-.91.19,2.59,2.59,0,0,1-.76-.1,1.71,1.71,0,0,1-.61-.33,1.31,1.31,0,0,1-.39-.53,1.92,1.92,0,0,1,0-1.53,1.33,1.33,0,0,1,.53-.55,2.53,2.53,0,0,1,.88-.33,6.33,6.33,0,0,1,1.22-.1h.51v-.32a1.41,1.41,0,0,0,0-.43.83.83,0,0,0-.16-.31.73.73,0,0,0-.31-.18,1.53,1.53,0,0,0-.47-.06,2.29,2.29,0,0,0-.66.09,3,3,0,0,0-.51.18,2.57,2.57,0,0,0-.37.18.6.6,0,0,1-.24.08.17.17,0,0,1-.12,0,.36.36,0,0,1-.08-.12.78.78,0,0,1,0-.18,2,2,0,0,1,0-.25,1.12,1.12,0,0,1,0-.29.52.52,0,0,1,.11-.19,1.13,1.13,0,0,1,.29-.18,3.66,3.66,0,0,1,.48-.2c.18,0,.38-.1.6-.14a4.91,4.91,0,0,1,.67,0,4,4,0,0,1,1,.12,1.87,1.87,0,0,1,.72.36,1.45,1.45,0,0,1,.41.65,3.16,3.16,0,0,1,.13.93Zm-1.45-2.24h-.56a2.68,2.68,0,0,0-.61.06,1.1,1.1,0,0,0-.41.15.71.71,0,0,0-.23.26.74.74,0,0,0-.07.34.66.66,0,0,0,.2.51.81.81,0,0,0,.58.19,1,1,0,0,0,.57-.16,2,2,0,0,0,.53-.46Z"/><path class="cls-5" d="M121.75,77.61a.2.2,0,0,1,0,.11.2.2,0,0,1-.1.07.49.49,0,0,1-.19,0h-.6a.49.49,0,0,1-.19,0,.3.3,0,0,1-.11-.07.2.2,0,0,1,0-.11V77a3.39,3.39,0,0,1-.84.67,2.06,2.06,0,0,1-1,.24,2,2,0,0,1-1-.23,1.93,1.93,0,0,1-.68-.62,2.61,2.61,0,0,1-.37-.92,4.88,4.88,0,0,1-.12-1.1,4.81,4.81,0,0,1,.15-1.25,2.86,2.86,0,0,1,.43-.95,2,2,0,0,1,.72-.6,2.17,2.17,0,0,1,1-.21,1.91,1.91,0,0,1,.8.17,2.75,2.75,0,0,1,.7.53V69.93a.18.18,0,0,1,0-.1.19.19,0,0,1,.11-.08l.23,0,.36,0,.35,0a1,1,0,0,1,.23,0,.19.19,0,0,1,.11.08.13.13,0,0,1,0,.1Zm-1.47-3.49a3.48,3.48,0,0,0-.6-.61,1,1,0,0,0-.61-.21.81.81,0,0,0-.49.15.94.94,0,0,0-.33.38,1.82,1.82,0,0,0-.19.54,2.91,2.91,0,0,0-.06.6,3.39,3.39,0,0,0,0,.64,1.77,1.77,0,0,0,.17.55,1.12,1.12,0,0,0,.32.39.8.8,0,0,0,.5.15,1,1,0,0,0,.3,0,1,1,0,0,0,.29-.14,2.25,2.25,0,0,0,.31-.26,3.7,3.7,0,0,0,.34-.4Z"/><path class="cls-5" d="M127.68,77.63a.16.16,0,0,1-.06.13.38.38,0,0,1-.18.06,2,2,0,0,1-.38,0,1.9,1.9,0,0,1-.38,0,.3.3,0,0,1-.17-.06.19.19,0,0,1-.05-.13v-.42a2.39,2.39,0,0,1-.73.54,2.13,2.13,0,0,1-.92.19,2.59,2.59,0,0,1-.76-.1,1.71,1.71,0,0,1-.61-.33,1.31,1.31,0,0,1-.39-.53,1.92,1.92,0,0,1,0-1.53,1.33,1.33,0,0,1,.53-.55,2.53,2.53,0,0,1,.88-.33,6.33,6.33,0,0,1,1.22-.1h.51v-.32a1.41,1.41,0,0,0,0-.43.83.83,0,0,0-.16-.31.73.73,0,0,0-.31-.18,1.53,1.53,0,0,0-.47-.06,2.29,2.29,0,0,0-.66.09,3,3,0,0,0-.51.18,2.57,2.57,0,0,0-.37.18.6.6,0,0,1-.24.08.17.17,0,0,1-.12,0,.36.36,0,0,1-.08-.12.78.78,0,0,1-.05-.18,2,2,0,0,1,0-.25,1.12,1.12,0,0,1,0-.29.52.52,0,0,1,.11-.19,1.34,1.34,0,0,1,.29-.18,3.66,3.66,0,0,1,.48-.2l.6-.14a4.91,4.91,0,0,1,.67,0,4,4,0,0,1,1,.12,1.87,1.87,0,0,1,.72.36,1.45,1.45,0,0,1,.41.65,3.16,3.16,0,0,1,.13.93Zm-1.45-2.24h-.56a2.68,2.68,0,0,0-.61.06,1.1,1.1,0,0,0-.41.15.71.71,0,0,0-.23.26.74.74,0,0,0-.07.34.64.64,0,0,0,.21.51.79.79,0,0,0,.57.19,1,1,0,0,0,.57-.16,2,2,0,0,0,.53-.46Z"/><path class="cls-5" d="M59.52,88.58a1.75,1.75,0,0,1-.16.78,1.56,1.56,0,0,1-.48.57,2,2,0,0,1-.72.34,3.16,3.16,0,0,1-.9.12,3.43,3.43,0,0,1-.56,0,3,3,0,0,1-.47-.11,1.69,1.69,0,0,1-.35-.14.63.63,0,0,1-.21-.13.38.38,0,0,1-.1-.19,1.92,1.92,0,0,1,0-.39,2.1,2.1,0,0,1,0-.27c0-.07,0-.12,0-.17a.28.28,0,0,1,.06-.08l.09,0a.56.56,0,0,1,.19.07l.31.17c.13,0,.27.11.44.16a1.84,1.84,0,0,0,.92,0,1.11,1.11,0,0,0,.27-.12A.55.55,0,0,0,58,89a.53.53,0,0,0,.06-.26.49.49,0,0,0-.11-.31,1.16,1.16,0,0,0-.29-.22,3,3,0,0,0-.4-.17l-.46-.18a3.29,3.29,0,0,1-.46-.23,1.62,1.62,0,0,1-.41-.32,1.45,1.45,0,0,1-.29-.45,1.67,1.67,0,0,1-.1-.63,1.58,1.58,0,0,1,.14-.69,1.54,1.54,0,0,1,.42-.53,2,2,0,0,1,.67-.35,3.09,3.09,0,0,1,.89-.12,3.87,3.87,0,0,1,.48,0l.42.09.31.12.19.1.08.09,0,.1a.78.78,0,0,1,0,.16,1.41,1.41,0,0,1,0,.22,1.93,1.93,0,0,1,0,.26.57.57,0,0,1,0,.16.16.16,0,0,1,0,.08l-.09,0a.4.4,0,0,1-.16-.06l-.28-.14-.38-.13a2,2,0,0,0-.5-.06,1.2,1.2,0,0,0-.35,0,.67.67,0,0,0-.24.12.49.49,0,0,0-.14.18.54.54,0,0,0,0,.22.44.44,0,0,0,.11.3,1.17,1.17,0,0,0,.3.22,3.17,3.17,0,0,0,.41.17l.47.18a5.08,5.08,0,0,1,.47.23,1.77,1.77,0,0,1,.41.31,1.51,1.51,0,0,1,.29.45A1.46,1.46,0,0,1,59.52,88.58Z"/><path class="cls-5" d="M62.21,83.07a.82.82,0,0,1-.18.61,1,1,0,0,1-.67.17,1.07,1.07,0,0,1-.67-.16.8.8,0,0,1-.17-.6.82.82,0,0,1,.18-.61.94.94,0,0,1,.67-.18,1,1,0,0,1,.67.17A.8.8,0,0,1,62.21,83.07Zm-.11,7a.2.2,0,0,1,0,.11.22.22,0,0,1-.12.07l-.23,0-.35,0-.36,0-.23,0a.35.35,0,0,1-.12-.07.2.2,0,0,1,0-.11V84.84a.19.19,0,0,1,0-.1.35.35,0,0,1,.12-.07.71.71,0,0,1,.23,0,1.84,1.84,0,0,1,.36,0,1.78,1.78,0,0,1,.35,0,.66.66,0,0,1,.23,0,.22.22,0,0,1,.12.07.19.19,0,0,1,0,.1Z"/><path class="cls-5" d="M67.25,88.58a1.76,1.76,0,0,1-.17.78,1.53,1.53,0,0,1-.47.57,2,2,0,0,1-.72.34,3.26,3.26,0,0,1-.9.12,3.33,3.33,0,0,1-.56,0,2.84,2.84,0,0,1-.48-.11,2,2,0,0,1-.35-.14.69.69,0,0,1-.2-.13.31.31,0,0,1-.1-.19,1.79,1.79,0,0,1,0-.39,1.87,1.87,0,0,1,0-.27.43.43,0,0,1,0-.17.12.12,0,0,1,.06-.08l.09,0a.64.64,0,0,1,.19.07,2.7,2.7,0,0,0,.31.17,4.26,4.26,0,0,0,.44.16,1.89,1.89,0,0,0,.56.08,1.78,1.78,0,0,0,.35,0,.85.85,0,0,0,.27-.12.49.49,0,0,0,.18-.2.53.53,0,0,0,.06-.26.49.49,0,0,0-.11-.31,1.38,1.38,0,0,0-.29-.22A3,3,0,0,0,65,88l-.47-.18a4.93,4.93,0,0,1-.46-.23,1.76,1.76,0,0,1-.4-.32,1.29,1.29,0,0,1-.29-.45,1.65,1.65,0,0,1-.11-.63,1.58,1.58,0,0,1,.15-.69,1.54,1.54,0,0,1,.42-.53,1.94,1.94,0,0,1,.67-.35,3,3,0,0,1,.89-.12,3.59,3.59,0,0,1,.47,0l.42.09.32.12a.88.88,0,0,1,.18.1.22.22,0,0,1,.08.09.3.3,0,0,1,0,.1,1,1,0,0,0,0,.16c0,.06,0,.13,0,.22s0,.19,0,.26a1.57,1.57,0,0,1,0,.16.17.17,0,0,1-.06.08l-.08,0a.4.4,0,0,1-.16-.06l-.28-.14L66,85.6a1.85,1.85,0,0,0-.5-.06,1.13,1.13,0,0,0-.34,0,.67.67,0,0,0-.24.12.4.4,0,0,0-.14.18.54.54,0,0,0,0,.22.44.44,0,0,0,.11.3,1.11,1.11,0,0,0,.29.22,2.81,2.81,0,0,0,.42.17L66,87a4.09,4.09,0,0,1,.47.23,1.83,1.83,0,0,1,.42.31,1.74,1.74,0,0,1,.29.45A1.64,1.64,0,0,1,67.25,88.58Z"/><path class="cls-5" d="M71.31,89.54a1.92,1.92,0,0,1,0,.39.37.37,0,0,1-.09.2.48.48,0,0,1-.15.1l-.24.07-.3,0-.32,0a2.51,2.51,0,0,1-.77-.11,1.38,1.38,0,0,1-.53-.34,1.51,1.51,0,0,1-.31-.59,3.31,3.31,0,0,1-.1-.83V85.83h-.62c-.08,0-.13,0-.17-.14a1.23,1.23,0,0,1-.06-.46,2.53,2.53,0,0,1,0-.29.65.65,0,0,1,.05-.18.2.2,0,0,1,.07-.1.17.17,0,0,1,.1,0h.62V83.47a.2.2,0,0,1,0-.11.62.62,0,0,1,.12-.08l.23,0,.35,0,.36,0,.23,0a.62.62,0,0,1,.12.08.2.2,0,0,1,0,.11v1.16h1.14a.17.17,0,0,1,.1,0,.2.2,0,0,1,.07.1.65.65,0,0,1,0,.18,2.53,2.53,0,0,1,0,.29,1.23,1.23,0,0,1-.06.46c0,.09-.09.14-.17.14H69.94v2.45a1.19,1.19,0,0,0,.14.64.53.53,0,0,0,.48.21.75.75,0,0,0,.21,0l.16,0,.13,0,.09,0,.06,0s0,0,.05.08a.61.61,0,0,1,0,.17A2.1,2.1,0,0,1,71.31,89.54Z"/><path class="cls-5" d="M77.05,87.29a.58.58,0,0,1-.12.4.45.45,0,0,1-.33.13H73.42a2.23,2.23,0,0,0,.08.6,1.32,1.32,0,0,0,.25.47,1.29,1.29,0,0,0,.45.29,2.06,2.06,0,0,0,.65.1,3.37,3.37,0,0,0,.68-.06L76,89.1l.35-.13a.87.87,0,0,1,.23,0,.15.15,0,0,1,.09,0,.22.22,0,0,1,.06.07s0,.09,0,.15,0,.15,0,.24,0,.16,0,.22a.7.7,0,0,1,0,.16.35.35,0,0,1,0,.11l-.06.08a.63.63,0,0,1-.21.11,2.41,2.41,0,0,1-.43.14c-.18,0-.38.08-.61.12a5.43,5.43,0,0,1-.72,0,3.73,3.73,0,0,1-1.22-.18,2.07,2.07,0,0,1-1.4-1.43,4.13,4.13,0,0,1-.17-1.28,4.06,4.06,0,0,1,.18-1.25,2.56,2.56,0,0,1,.52-1,2.31,2.31,0,0,1,.84-.6,3,3,0,0,1,1.12-.2,2.88,2.88,0,0,1,1.12.19,2,2,0,0,1,.76.54,2.13,2.13,0,0,1,.44.81,3.31,3.31,0,0,1,.14,1Zm-1.43-.42a1.49,1.49,0,0,0-.24-1,1,1,0,0,0-.83-.36,1.1,1.1,0,0,0-.49.11,1,1,0,0,0-.34.28,1.38,1.38,0,0,0-.21.42,2.18,2.18,0,0,0-.09.52Z"/><path class="cls-5" d="M86.57,90.05a.15.15,0,0,1,0,.11.23.23,0,0,1-.11.07l-.22,0-.36,0-.37,0-.22,0a.22.22,0,0,1-.12-.07.2.2,0,0,1,0-.11V87a2.28,2.28,0,0,0,0-.48,1,1,0,0,0-.15-.37.66.66,0,0,0-.26-.24.72.72,0,0,0-.37-.09.85.85,0,0,0-.53.21,3.26,3.26,0,0,0-.59.59v3.47a.2.2,0,0,1,0,.11.35.35,0,0,1-.12.07l-.23,0-.35,0-.36,0a1,1,0,0,1-.22,0,.22.22,0,0,1-.12-.07.15.15,0,0,1,0-.11V87a2.28,2.28,0,0,0-.05-.48,1,1,0,0,0-.15-.37.58.58,0,0,0-.25-.24.75.75,0,0,0-.37-.09.88.88,0,0,0-.54.21,3.25,3.25,0,0,0-.58.59v3.47a.15.15,0,0,1,0,.11.22.22,0,0,1-.12.07,1,1,0,0,1-.22,0l-.36,0-.36,0-.22,0a.22.22,0,0,1-.12-.07.21.21,0,0,1,0-.11V84.83a.17.17,0,0,1,0-.1.23.23,0,0,1,.11-.07.74.74,0,0,1,.19,0h.62a.74.74,0,0,1,.19,0,.22.22,0,0,1,.09.07.17.17,0,0,1,0,.1v.61a3.4,3.4,0,0,1,.87-.71,1.87,1.87,0,0,1,.89-.23,2,2,0,0,1,.58.07,1.59,1.59,0,0,1,.46.19,1.27,1.27,0,0,1,.35.3,2,2,0,0,1,.25.39,4.52,4.52,0,0,1,.46-.43,2.86,2.86,0,0,1,.44-.3,2.65,2.65,0,0,1,.44-.17,2.3,2.3,0,0,1,.45,0,2.09,2.09,0,0,1,.88.17,1.58,1.58,0,0,1,.57.48,2,2,0,0,1,.32.71,3.89,3.89,0,0,1,.09.85Z"/><path class="cls-5" d="M92.46,90.07a.15.15,0,0,1-.06.13.45.45,0,0,1-.18.07l-.37,0-.39,0a.34.34,0,0,1-.16-.07.14.14,0,0,1,0-.13v-.41a2.24,2.24,0,0,1-.74.53,2.11,2.11,0,0,1-.92.2,2.63,2.63,0,0,1-.76-.11,1.73,1.73,0,0,1-.6-.32,1.61,1.61,0,0,1-.4-.53,1.88,1.88,0,0,1-.14-.74,1.65,1.65,0,0,1,.18-.79,1.49,1.49,0,0,1,.53-.56,2.6,2.6,0,0,1,.88-.32,6.38,6.38,0,0,1,1.23-.11H91v-.32a1.88,1.88,0,0,0,0-.43.74.74,0,0,0-.17-.3.57.57,0,0,0-.3-.18,1.58,1.58,0,0,0-.47-.06,2.21,2.21,0,0,0-.66.08,3,3,0,0,0-.51.18l-.37.18a.48.48,0,0,1-.25.08.15.15,0,0,1-.11,0,.24.24,0,0,1-.08-.11.87.87,0,0,1,0-.19,2,2,0,0,1,0-.25,1,1,0,0,1,0-.28.45.45,0,0,1,.11-.19,1,1,0,0,1,.29-.19,2.82,2.82,0,0,1,.48-.19,4.38,4.38,0,0,1,.6-.15,4.8,4.8,0,0,1,.67,0,4,4,0,0,1,1,.12,1.66,1.66,0,0,1,.71.37,1.34,1.34,0,0,1,.41.64,2.86,2.86,0,0,1,.13.93ZM91,87.83h-.56a2.62,2.62,0,0,0-.61.06,1,1,0,0,0-.41.16.55.55,0,0,0-.23.25.74.74,0,0,0-.08.34.67.67,0,0,0,.21.52.86.86,0,0,0,.58.19,1.17,1.17,0,0,0,.57-.16,2.45,2.45,0,0,0,.53-.47Z"/><path class="cls-5" d="M98.26,84.47a2.65,2.65,0,0,1-.13.87,2.06,2.06,0,0,1-.39.66,1.89,1.89,0,0,1-.6.45,2.15,2.15,0,0,1-.77.22l0,1.14c0,.07-.06.12-.17.16a1.81,1.81,0,0,1-.47,0h-.32a.58.58,0,0,1-.21,0,.23.23,0,0,1-.11-.06.21.21,0,0,1,0-.11L95,86.43a1.37,1.37,0,0,1,0-.3.48.48,0,0,1,.09-.19.31.31,0,0,1,.15-.1l.23,0h.08a1.39,1.39,0,0,0,.53-.1,1.19,1.19,0,0,0,.38-.27,1.28,1.28,0,0,0,.21-.38,1.85,1.85,0,0,0,.07-.48,1.65,1.65,0,0,0-.08-.51,1.38,1.38,0,0,0-.24-.41,1.07,1.07,0,0,0-.41-.26,1.62,1.62,0,0,0-.57-.09,2,2,0,0,0-.52.06,2.35,2.35,0,0,0-.4.13l-.27.13a.4.4,0,0,1-.16.06.11.11,0,0,1-.08,0,.29.29,0,0,1-.06-.1,1.37,1.37,0,0,1,0-.2,2.92,2.92,0,0,1,0-.32,1.15,1.15,0,0,1,0-.3A.26.26,0,0,1,94,82.6a.76.76,0,0,1,.22-.14,3.44,3.44,0,0,1,.4-.15,5,5,0,0,1,.51-.11,3.58,3.58,0,0,1,.58,0,3.39,3.39,0,0,1,1.18.19,2.34,2.34,0,0,1,.81.51,2,2,0,0,1,.46.74A2.84,2.84,0,0,1,98.26,84.47Zm-1.73,5a1.54,1.54,0,0,1,0,.4.49.49,0,0,1-.13.26.56.56,0,0,1-.26.15,1.51,1.51,0,0,1-.39,0,1.58,1.58,0,0,1-.41,0,.53.53,0,0,1-.25-.15.5.5,0,0,1-.14-.26,2.15,2.15,0,0,1,0-.4,2.3,2.3,0,0,1,0-.42.58.58,0,0,1,.14-.27.61.61,0,0,1,.25-.14,1.53,1.53,0,0,1,.41,0,1.48,1.48,0,0,1,.39,0,.65.65,0,0,1,.26.14.57.57,0,0,1,.13.27A1.66,1.66,0,0,1,96.53,89.49Z"/></svg>