<svg id="Capa_1" data-name="Capa 1" xmlns="http://www.w3.org/2000/svg" viewBox="0 0 217.85 153.04"><defs><style>.cls-1{opacity:0.3;}.cls-2{fill:#fff;}.cls-3{fill:#949699;}.cls-4{fill:#241f20;}.cls-5{stroke:#000;stroke-miterlimit:10;stroke-width:0.29px;}</style></defs><path class="cls-1" d="M184.45,46.61c-8-12.89-26.63-8.34-40.87-8.37-2.55-.06-5.17-.15-7.83-.27-18.65-.86-39.64-2.92-56.94-1.41a85.86,85.86,0,0,0-11.65,1.75C32.82,50.74,45,78,47,101.37c-5.15,6.75-15.09,15.16-33.39,17.14,0,0,18.4,1.57,32.64,6.46.64,8.69,3.9,16.72,16.18,22.25a36.74,36.74,0,0,0,9.79,1.19c3.64.13,7.17.14,10.66.08s6.92-.19,10.36-.33c10.15-.89,20.4-.46,30.62,0,2.56.13,5.12.26,7.67.37,16.87-.47,39.75,7.25,49.07-9,11.86-19.72,4.23-43.74,7.05-65.72.28-2.42.56-4.82.73-7.19C188.89,59.5,188.44,52.67,184.45,46.61Z"/><path class="cls-2" d="M179.1,39c-8-12.89-26.63-8.34-40.87-8.36-2.55-.06-5.17-.16-7.83-.28-18.65-.85-39.64-2.91-56.94-1.41a85.86,85.86,0,0,0-11.65,1.75C31.66,41.63,37.39,64,40.57,85.09A17.21,17.21,0,0,1,34,101.36c-5.8,4.41-14.08,8.3-25.77,9.56a176.78,176.78,0,0,1,25.8,4.42,10.78,10.78,0,0,1,7.73,7.75c1.66,6.45,5.76,12.25,15.29,16.54a36.74,36.74,0,0,0,9.79,1.19c3.63.14,7.17.14,10.66.08s6.92-.19,10.36-.33c10.15-.89,20.4-.46,30.62,0,2.56.13,5.11.26,7.67.37,16.87-.46,39.74,7.25,49.06-9,11.87-19.73,4.24-43.75,7-65.73.29-2.42.57-4.82.73-7.19C183.54,51.91,183.09,45.09,179.1,39Z"/><path class="cls-3" d="M40.11,92.38a17.32,17.32,0,0,0,3.64-13.45c-1.84-12.14-4.5-24.7-.68-35.26-8.12,11.6-4.7,26.82-2.5,41.42A17.19,17.19,0,0,1,40.11,92.38Z"/><path class="cls-3" d="M129.35,134.83c-2.55-.11-5.11-.24-7.66-.37-10.23-.5-20.47-.93-30.62,0-3.44.14-6.88.27-10.37.33s-7,.05-10.65-.08a36.82,36.82,0,0,1-9.8-1.19c-9.53-4.29-13.63-10.1-15.28-16.54a10.78,10.78,0,0,0-7.74-7.75c-4.16-1.09-8.38-1.94-12.16-2.59a56.65,56.65,0,0,1-16.81,4.32,176.78,176.78,0,0,1,25.8,4.42,10.78,10.78,0,0,1,7.73,7.75c1.66,6.45,5.76,12.25,15.29,16.54a36.74,36.74,0,0,0,9.79,1.19c3.63.14,7.17.14,10.66.08s6.92-.19,10.36-.33c10.15-.89,20.4-.46,30.62,0,2.56.13,5.11.26,7.67.37,16.87-.46,39.74,7.25,49.06-9a42.14,42.14,0,0,0,2.81-5.57C168.51,141.87,146,134.37,129.35,134.83Z"/><path class="cls-4" d="M152.46,143.44c-4.17,0-8.52-.37-12.82-.75A120.57,120.57,0,0,0,126.2,142l-6.09-.29-1.65-.08c-10.88-.53-20.68-.91-30.48,0-3.34.13-6.85.27-10.44.33-3.88.07-7.39,0-10.7-.09a37.7,37.7,0,0,1-10-1.22l-.15-.05c-8.82-4-13.86-9.45-15.86-17.22-.88-3.43-3.77-5.71-7.21-6.6-12.45-3.25-27.93-6.47-28.06-6.48l4.65-.62c10-1.08,16.49-4,23.23-9.11a16.15,16.15,0,0,0,6.15-15.3c-.2-1.35-.42-2.71-.63-4.07-3.18-20.12-6.48-40.92,22.53-51.41l.12,0A86.74,86.74,0,0,1,73.37,28c13.19-1.15,28.47-.24,43.24.64,4.59.28,9.33.56,13.83.76,2.89.14,5.44.23,7.81.28,2.85,0,5.87-.18,9.07-.37,12.16-.73,26-1.55,32.63,9.2,4.42,6.73,4.55,14.21,4.09,20.63-.17,2.36-.45,4.78-.74,7.25-1,7.59-.68,15.59-.4,23.33.54,14.6,1.09,29.7-6.79,42.8C171,141.39,162.2,143.44,152.46,143.44Zm-24.64-3.5c3.76,0,7.78.35,12,.71,13.72,1.18,27.9,2.41,34.56-9.23,7.57-12.59,7.06-26.72,6.51-41.68-.29-7.82-.58-15.9.41-23.66.29-2.43.56-4.82.72-7.14.44-6.08.34-13.14-3.75-19.35l0,0c-6-9.75-18.63-9-30.8-8.26-3.23.19-6.28.37-9.21.37-2.41-.05-5-.14-7.88-.28-4.51-.2-9.27-.49-13.86-.76-14.7-.88-29.9-1.78-42.94-.64A84,84,0,0,0,62.1,31.71c-27.36,9.93-24.35,29-21.16,49.14.21,1.36.43,2.73.63,4.08a18.18,18.18,0,0,1-6.93,17.25,48.7,48.7,0,0,1-19,8.57,167.4,167.4,0,0,1,18.69,3.6,11.79,11.79,0,0,1,8.46,8.49c1.83,7.1,6.48,12.13,14.65,15.82a35.77,35.77,0,0,0,9.44,1.13c3.33.13,6.8.16,10.65.09,3.56-.06,7.06-.2,10.34-.33,9.88-.87,19.76-.5,30.71,0l1.65.08,6,.29Z"/><path class="cls-5" d="M65.3,43.19a3.33,3.33,0,0,1,0,.34,1.14,1.14,0,0,1-.05.23.41.41,0,0,1-.09.12.15.15,0,0,1-.11,0H62.83V51a.19.19,0,0,1,0,.12.27.27,0,0,1-.15.09,1.43,1.43,0,0,1-.28,0,2.69,2.69,0,0,1-.43,0,2.75,2.75,0,0,1-.43,0,1.43,1.43,0,0,1-.28,0,.28.28,0,0,1-.14-.09A.21.21,0,0,1,61,51V43.92h-2.2a.16.16,0,0,1-.12,0,.28.28,0,0,1-.08-.12,1.14,1.14,0,0,1-.05-.23,3,3,0,0,1,0-.34,3.11,3.11,0,0,1,0-.34,1,1,0,0,1,.05-.23.23.23,0,0,1,.08-.12.16.16,0,0,1,.12,0H65a.15.15,0,0,1,.11,0,.31.31,0,0,1,.09.12,1,1,0,0,1,.05.23C65.3,42.94,65.3,43.06,65.3,43.19Z"/><path class="cls-5" d="M70.65,47.83a.67.67,0,0,1-.14.46.49.49,0,0,1-.38.15h-3.7a2.53,2.53,0,0,0,.09.7,1.25,1.25,0,0,0,.81.88,2.13,2.13,0,0,0,.76.12,4.55,4.55,0,0,0,.79-.07,5.18,5.18,0,0,0,.59-.14l.41-.15a.83.83,0,0,1,.27-.06l.1,0a.22.22,0,0,1,.07.09.65.65,0,0,1,0,.17,2.19,2.19,0,0,1,0,.29c0,.1,0,.18,0,.25s0,.13,0,.18,0,.09,0,.13a.86.86,0,0,0-.07.1,1,1,0,0,1-.25.13l-.5.16c-.2,0-.44.09-.7.13a5.77,5.77,0,0,1-.85.06,4.68,4.68,0,0,1-1.42-.2,2.77,2.77,0,0,1-1-.62,2.72,2.72,0,0,1-.61-1,5.12,5.12,0,0,1-.2-1.49,4.72,4.72,0,0,1,.21-1.46,3,3,0,0,1,.62-1.1,2.43,2.43,0,0,1,1-.69,3.3,3.3,0,0,1,1.29-.24,3.42,3.42,0,0,1,1.31.22,2.5,2.5,0,0,1,.89.62,2.64,2.64,0,0,1,.51.95,4.06,4.06,0,0,1,.16,1.18ZM69,47.34a1.78,1.78,0,0,0-.29-1.14,1.14,1.14,0,0,0-1-.41,1.26,1.26,0,0,0-.57.12,1.16,1.16,0,0,0-.4.33,1.32,1.32,0,0,0-.24.49,2.36,2.36,0,0,0-.1.61Z"/><path class="cls-5" d="M81.33,47.91a6,6,0,0,1-.17,1.47,3.39,3.39,0,0,1-.51,1.1,2.15,2.15,0,0,1-.83.7,2.45,2.45,0,0,1-1.14.25,2.36,2.36,0,0,1-.48,0,2.23,2.23,0,0,1-.43-.16,3.19,3.19,0,0,1-.42-.26c-.13-.1-.27-.23-.42-.37v2.86a.2.2,0,0,1,0,.13.42.42,0,0,1-.14.09l-.26.06-.42,0-.41,0-.26-.06a.33.33,0,0,1-.14-.09.2.2,0,0,1,0-.13V45a.21.21,0,0,1,0-.12.19.19,0,0,1,.12-.09,1,1,0,0,1,.22,0l.35,0,.35,0a.9.9,0,0,1,.22,0,.19.19,0,0,1,.12.09.16.16,0,0,1,0,.12v.71a5.68,5.68,0,0,1,.52-.48,3.38,3.38,0,0,1,.52-.35,2.27,2.27,0,0,1,.55-.2,2.35,2.35,0,0,1,.6-.07,2.29,2.29,0,0,1,1.14.26,2,2,0,0,1,.76.72,3.16,3.16,0,0,1,.44,1.06A6,6,0,0,1,81.33,47.91ZM79.55,48a4.56,4.56,0,0,0-.06-.75,2.09,2.09,0,0,0-.2-.64,1.14,1.14,0,0,0-.37-.44.93.93,0,0,0-.56-.17,1.27,1.27,0,0,0-.34.05,1.35,1.35,0,0,0-.34.17,2.38,2.38,0,0,0-.36.3,4,4,0,0,0-.39.46v2a3.82,3.82,0,0,0,.69.7,1.1,1.1,0,0,0,.68.25.92.92,0,0,0,.57-.17,1.16,1.16,0,0,0,.38-.44,2.15,2.15,0,0,0,.23-.63A4,4,0,0,0,79.55,48Z"/><path class="cls-5" d="M86.61,45.53c0,.16,0,.3,0,.4a1.18,1.18,0,0,1,0,.25.22.22,0,0,1-.07.12.2.2,0,0,1-.11,0,.32.32,0,0,1-.13,0l-.15-.05-.19,0a.73.73,0,0,0-.22,0,.75.75,0,0,0-.29.06,1.35,1.35,0,0,0-.29.18,1.69,1.69,0,0,0-.32.33,4.68,4.68,0,0,0-.36.5V51a.16.16,0,0,1,0,.12.56.56,0,0,1-.14.09l-.26,0h-.84l-.26,0a.56.56,0,0,1-.14-.09.21.21,0,0,1,0-.12V45a.16.16,0,0,1,0-.12.19.19,0,0,1,.12-.09,1,1,0,0,1,.23,0l.35,0,.36,0a.9.9,0,0,1,.22,0,.2.2,0,0,1,.11.09.16.16,0,0,1,0,.12v.75a4.05,4.05,0,0,1,.45-.56,2.44,2.44,0,0,1,.4-.35,1.09,1.09,0,0,1,.38-.18,1.24,1.24,0,0,1,.38-.05H86l.21,0,.19.06a.33.33,0,0,1,.12.06.16.16,0,0,1,.06.08.53.53,0,0,1,0,.11s0,.12,0,.21S86.61,45.37,86.61,45.53Z"/><path class="cls-5" d="M93.64,47.94a4.55,4.55,0,0,1-.21,1.42,3,3,0,0,1-.62,1.1,2.77,2.77,0,0,1-1,.72,3.9,3.9,0,0,1-1.47.25,4,4,0,0,1-1.41-.23,2.35,2.35,0,0,1-1-.65,2.84,2.84,0,0,1-.59-1,5.23,5.23,0,0,1-.19-1.44,4.6,4.6,0,0,1,.21-1.42,3.21,3.21,0,0,1,.62-1.1,2.83,2.83,0,0,1,1-.71,3.89,3.89,0,0,1,1.46-.25,4,4,0,0,1,1.42.22,2.45,2.45,0,0,1,1,.65,2.69,2.69,0,0,1,.58,1A4.86,4.86,0,0,1,93.64,47.94ZM91.87,48a4.28,4.28,0,0,0-.07-.83,2,2,0,0,0-.24-.65,1.21,1.21,0,0,0-.46-.44,1.46,1.46,0,0,0-.71-.16,1.53,1.53,0,0,0-.66.14,1.17,1.17,0,0,0-.47.41,1.83,1.83,0,0,0-.28.65,3.72,3.72,0,0,0-.09.86,4.28,4.28,0,0,0,.07.83,2,2,0,0,0,.24.65,1.21,1.21,0,0,0,.46.44,1.49,1.49,0,0,0,.71.15,1.57,1.57,0,0,0,.67-.14,1.21,1.21,0,0,0,.47-.4,2,2,0,0,0,.27-.65A3.72,3.72,0,0,0,91.87,48Z"/><path class="cls-5" d="M101.11,47.91a5.53,5.53,0,0,1-.18,1.47,3.18,3.18,0,0,1-.5,1.1,2.23,2.23,0,0,1-.83.7,2.51,2.51,0,0,1-1.14.25,2.46,2.46,0,0,1-.49,0,2.23,2.23,0,0,1-.43-.16,3.1,3.1,0,0,1-.41-.26,3.48,3.48,0,0,1-.42-.37v2.86a.28.28,0,0,1,0,.13.56.56,0,0,1-.14.09l-.27.06-.41,0-.42,0-.26-.06a.56.56,0,0,1-.14-.09.2.2,0,0,1,0-.13V45a.16.16,0,0,1,0-.12.2.2,0,0,1,.11-.09l.23,0,.35,0,.34,0a1,1,0,0,1,.23,0,.23.23,0,0,1,.12.09.21.21,0,0,1,0,.12v.71c.18-.18.35-.34.52-.48a4,4,0,0,1,.52-.35,2.27,2.27,0,0,1,.55-.2,2.37,2.37,0,0,1,.61-.07,2.22,2.22,0,0,1,1.13.26,2,2,0,0,1,.77.72,3.15,3.15,0,0,1,.43,1.06A6,6,0,0,1,101.11,47.91ZM99.32,48a6,6,0,0,0,0-.75,2.4,2.4,0,0,0-.2-.64,1.34,1.34,0,0,0-.37-.44.94.94,0,0,0-.57-.17,1.4,1.4,0,0,0-.34.05,1.54,1.54,0,0,0-.34.17,3,3,0,0,0-.35.3,2.67,2.67,0,0,0-.39.46v2a3.82,3.82,0,0,0,.69.7,1.06,1.06,0,0,0,.68.25.92.92,0,0,0,.57-.17,1.36,1.36,0,0,0,.38-.44,2.47,2.47,0,0,0,.22-.63A3.23,3.23,0,0,0,99.32,48Z"/><path class="cls-5" d="M108.62,47.94a4.87,4.87,0,0,1-.2,1.42,3.12,3.12,0,0,1-.62,1.1,2.81,2.81,0,0,1-1,.72,3.81,3.81,0,0,1-1.46.25,4,4,0,0,1-1.41-.23,2.35,2.35,0,0,1-1-.65,2.71,2.71,0,0,1-.59-1,4.88,4.88,0,0,1-.19-1.44,4.6,4.6,0,0,1,.21-1.42,3.05,3.05,0,0,1,.62-1.1,2.75,2.75,0,0,1,1-.71,3.81,3.81,0,0,1,1.46-.25,4,4,0,0,1,1.42.22,2.45,2.45,0,0,1,1,.65,2.82,2.82,0,0,1,.58,1A4.88,4.88,0,0,1,108.62,47.94Zm-1.76.07a5.25,5.25,0,0,0-.07-.83,1.8,1.8,0,0,0-.25-.65,1.12,1.12,0,0,0-.45-.44,1.52,1.52,0,0,0-.71-.16,1.54,1.54,0,0,0-.67.14,1.24,1.24,0,0,0-.47.41,2,2,0,0,0-.27.65,3.22,3.22,0,0,0-.1.86,4.25,4.25,0,0,0,.08.83,2,2,0,0,0,.24.65,1.12,1.12,0,0,0,.45.44,1.52,1.52,0,0,0,.71.15,1.59,1.59,0,0,0,.68-.14,1.29,1.29,0,0,0,.47-.4,2,2,0,0,0,.27-.65A3.72,3.72,0,0,0,106.86,48Z"/><path class="cls-5" d="M115.78,51a.16.16,0,0,1,0,.12.42.42,0,0,1-.14.09,1.2,1.2,0,0,1-.26,0h-.83a1.2,1.2,0,0,1-.26,0,.42.42,0,0,1-.14-.09.16.16,0,0,1,0-.12V47.57a3.14,3.14,0,0,0-.06-.69,1.55,1.55,0,0,0-.19-.43.79.79,0,0,0-.32-.28.93.93,0,0,0-.45-.1,1.12,1.12,0,0,0-.66.24,3.75,3.75,0,0,0-.7.69v4a.16.16,0,0,1,0,.12.33.33,0,0,1-.14.09,1.2,1.2,0,0,1-.26,0h-.83a1.2,1.2,0,0,1-.26,0,.42.42,0,0,1-.14-.09.16.16,0,0,1,0-.12V45a.21.21,0,0,1,0-.12.19.19,0,0,1,.12-.09l.23,0,.35,0,.36,0a1,1,0,0,1,.23,0,.24.24,0,0,1,.11.09.21.21,0,0,1,0,.12v.7a3.75,3.75,0,0,1,1-.82,2.3,2.3,0,0,1,1.08-.27,2.49,2.49,0,0,1,1,.2,1.9,1.9,0,0,1,.69.56,2.13,2.13,0,0,1,.37.82,4.6,4.6,0,0,1,.12,1.13Z"/><path class="cls-5" d="M122.94,45.39a1.35,1.35,0,0,1-.07.48c-.05.11-.12.16-.19.16H122a.91.91,0,0,1,.21.37,1.55,1.55,0,0,1,.07.43,2.37,2.37,0,0,1-.18,1,1.94,1.94,0,0,1-.51.69,2.28,2.28,0,0,1-.8.43,3.33,3.33,0,0,1-1,.15,2,2,0,0,1-.56-.08,1.25,1.25,0,0,1-.41-.16.8.8,0,0,0-.15.21.6.6,0,0,0-.06.27.36.36,0,0,0,.17.32.86.86,0,0,0,.49.14l1.48.06a3.22,3.22,0,0,1,.92.15,1.9,1.9,0,0,1,.68.35,1.52,1.52,0,0,1,.42.55,1.67,1.67,0,0,1,.15.73,1.86,1.86,0,0,1-.2.84,2,2,0,0,1-.59.7,3.24,3.24,0,0,1-1,.46,5.26,5.26,0,0,1-1.4.17,6.26,6.26,0,0,1-1.32-.12,3.2,3.2,0,0,1-.9-.34,1.48,1.48,0,0,1-.51-.52,1.41,1.41,0,0,1-.16-.67,1.54,1.54,0,0,1,.06-.43,1.65,1.65,0,0,1,.17-.39,2.11,2.11,0,0,1,.27-.36,3.05,3.05,0,0,1,.38-.32,1.19,1.19,0,0,1-.46-.43,1.21,1.21,0,0,1-.16-.59,1.5,1.5,0,0,1,.19-.73,2.27,2.27,0,0,1,.48-.6,1.92,1.92,0,0,1-.39-.57,2.5,2.5,0,0,1,0-1.78,2,2,0,0,1,.52-.71,2.29,2.29,0,0,1,.8-.44,3.3,3.3,0,0,1,1-.16,4.91,4.91,0,0,1,.55,0,3.41,3.41,0,0,1,.48.09h1.93c.08,0,.14.05.19.15A1.25,1.25,0,0,1,122.94,45.39Zm-1.8,6.28a.54.54,0,0,0-.24-.47,1.41,1.41,0,0,0-.68-.17L119,51a1.81,1.81,0,0,0-.28.25,1.5,1.5,0,0,0-.17.23,1,1,0,0,0-.09.21,1.49,1.49,0,0,0,0,.21.57.57,0,0,0,.35.52,2.12,2.12,0,0,0,1,.18,2.35,2.35,0,0,0,.65-.08,1.15,1.15,0,0,0,.43-.21.63.63,0,0,0,.23-.29A.77.77,0,0,0,121.14,51.67Zm-.4-4.85a.94.94,0,0,0-1-1,1.25,1.25,0,0,0-.45.08.92.92,0,0,0-.31.24.81.81,0,0,0-.19.34,1.34,1.34,0,0,0-.06.4,1,1,0,0,0,.27.73,1,1,0,0,0,.76.27,1.06,1.06,0,0,0,.45-.08.87.87,0,0,0,.31-.22,1.12,1.12,0,0,0,.2-.33A1.34,1.34,0,0,0,120.74,46.82Z"/><path class="cls-5" d="M130.09,47.94a4.55,4.55,0,0,1-.21,1.42,2.84,2.84,0,0,1-.62,1.1,2.7,2.7,0,0,1-1,.72,3.89,3.89,0,0,1-1.46.25,3.93,3.93,0,0,1-1.41-.23,2.38,2.38,0,0,1-1-.65,2.69,2.69,0,0,1-.58-1,4.86,4.86,0,0,1-.2-1.44,4.6,4.6,0,0,1,.21-1.42,3.07,3.07,0,0,1,.63-1.1,2.71,2.71,0,0,1,1-.71,3.9,3.9,0,0,1,1.47-.25,4,4,0,0,1,1.41.22,2.45,2.45,0,0,1,1,.65,2.84,2.84,0,0,1,.59,1A5.23,5.23,0,0,1,130.09,47.94Zm-1.77.07a4.28,4.28,0,0,0-.07-.83,2,2,0,0,0-.24-.65,1.19,1.19,0,0,0-.45-.44,1.66,1.66,0,0,0-1.38,0,1.24,1.24,0,0,0-.47.41,1.83,1.83,0,0,0-.28.65,3.72,3.72,0,0,0-.09.86,4.28,4.28,0,0,0,.07.83,1.8,1.8,0,0,0,.25.65,1.12,1.12,0,0,0,.45.44,1.49,1.49,0,0,0,.71.15,1.54,1.54,0,0,0,.67-.14,1.21,1.21,0,0,0,.47-.4,2,2,0,0,0,.27-.65A3.72,3.72,0,0,0,128.32,48Z"/><path class="cls-5" d="M140.71,47.91a5.55,5.55,0,0,1-.17,1.47,3.39,3.39,0,0,1-.51,1.1,2.15,2.15,0,0,1-.83.7,2.45,2.45,0,0,1-1.14.25,2.36,2.36,0,0,1-.48,0,2.23,2.23,0,0,1-.43-.16,2.57,2.57,0,0,1-.41-.26,4.5,4.5,0,0,1-.43-.37v2.86a.2.2,0,0,1,0,.13.42.42,0,0,1-.14.09l-.26.06-.42,0-.41,0-.26-.06a.33.33,0,0,1-.14-.09.2.2,0,0,1,0-.13V45a.21.21,0,0,1,0-.12.19.19,0,0,1,.12-.09,1,1,0,0,1,.22,0l.35,0,.35,0a.9.9,0,0,1,.22,0,.19.19,0,0,1,.12.09.16.16,0,0,1,0,.12v.71a5.68,5.68,0,0,1,.52-.48,3.38,3.38,0,0,1,.52-.35,2.27,2.27,0,0,1,.55-.2,2.35,2.35,0,0,1,.6-.07,2.24,2.24,0,0,1,1.14.26,2,2,0,0,1,.76.72,3.16,3.16,0,0,1,.44,1.06A6,6,0,0,1,140.71,47.91Zm-1.78.13a4.56,4.56,0,0,0-.06-.75,2.09,2.09,0,0,0-.2-.64,1.2,1.2,0,0,0-.36-.44,1,1,0,0,0-.57-.17,1.27,1.27,0,0,0-.34.05,1.35,1.35,0,0,0-.34.17,2.38,2.38,0,0,0-.36.3,4,4,0,0,0-.39.46v2a3.82,3.82,0,0,0,.69.7,1.1,1.1,0,0,0,.68.25.9.9,0,0,0,.57-.17,1.28,1.28,0,0,0,.39-.44,2.47,2.47,0,0,0,.22-.63A3.23,3.23,0,0,0,138.93,48Z"/><path class="cls-5" d="M148.23,47.94a4.55,4.55,0,0,1-.21,1.42,2.84,2.84,0,0,1-.62,1.1,2.7,2.7,0,0,1-1,.72,3.89,3.89,0,0,1-1.46.25,4,4,0,0,1-1.41-.23,2.38,2.38,0,0,1-1-.65,2.69,2.69,0,0,1-.58-1,4.86,4.86,0,0,1-.2-1.44,4.6,4.6,0,0,1,.21-1.42,3.07,3.07,0,0,1,.63-1.1,2.71,2.71,0,0,1,1-.71,3.9,3.9,0,0,1,1.47-.25,4,4,0,0,1,1.41.22,2.45,2.45,0,0,1,1,.65,2.84,2.84,0,0,1,.59,1A5.23,5.23,0,0,1,148.23,47.94Zm-1.77.07a4.28,4.28,0,0,0-.07-.83,2,2,0,0,0-.24-.65,1.19,1.19,0,0,0-.45-.44,1.66,1.66,0,0,0-1.38,0,1.24,1.24,0,0,0-.47.41,1.83,1.83,0,0,0-.28.65,3.72,3.72,0,0,0-.09.86,4.28,4.28,0,0,0,.07.83,1.8,1.8,0,0,0,.25.65,1.12,1.12,0,0,0,.45.44,1.52,1.52,0,0,0,.71.15,1.54,1.54,0,0,0,.67-.14,1.21,1.21,0,0,0,.47-.4,1.82,1.82,0,0,0,.27-.65A3.72,3.72,0,0,0,146.46,48Z"/><path class="cls-5" d="M155.39,51a.21.21,0,0,1,0,.12.56.56,0,0,1-.14.09,1.2,1.2,0,0,1-.26,0h-.83a1.31,1.31,0,0,1-.27,0,.36.36,0,0,1-.13-.09.16.16,0,0,1,0-.12V47.57a2.56,2.56,0,0,0-.07-.69,1.13,1.13,0,0,0-.19-.43.76.76,0,0,0-.31-.28.93.93,0,0,0-.45-.1,1.17,1.17,0,0,0-.67.24,3.73,3.73,0,0,0-.69.69v4a.16.16,0,0,1,0,.12.56.56,0,0,1-.14.09,1.33,1.33,0,0,1-.26,0H150a1.46,1.46,0,0,1-.27,0,.56.56,0,0,1-.14-.09.21.21,0,0,1,0-.12V45a.16.16,0,0,1,0-.12.19.19,0,0,1,.12-.09,1,1,0,0,1,.23,0l.35,0,.36,0a.8.8,0,0,1,.22,0,.2.2,0,0,1,.11.09.16.16,0,0,1,0,.12v.7a3.71,3.71,0,0,1,1-.82,2.34,2.34,0,0,1,1.09-.27,2.47,2.47,0,0,1,1,.2,1.75,1.75,0,0,1,.69.56,2.14,2.14,0,0,1,.38.82,4.6,4.6,0,0,1,.12,1.13Z"/><path class="cls-5" d="M162.68,47.83a.62.62,0,0,1-.14.46.49.49,0,0,1-.38.15h-3.7a2.53,2.53,0,0,0,.09.7,1.25,1.25,0,0,0,.81.88,2.16,2.16,0,0,0,.76.12,4.55,4.55,0,0,0,.79-.07,5.18,5.18,0,0,0,.59-.14,3.06,3.06,0,0,0,.41-.15.83.83,0,0,1,.27-.06l.1,0a.22.22,0,0,1,.07.09.61.61,0,0,1,0,.17c0,.08,0,.17,0,.29s0,.18,0,.25,0,.13,0,.18a.5.5,0,0,1,0,.13l-.07.1a1,1,0,0,1-.25.13l-.5.16c-.2,0-.44.09-.7.13a5.67,5.67,0,0,1-.85.06,4.68,4.68,0,0,1-1.42-.2,2.65,2.65,0,0,1-1-.62,2.49,2.49,0,0,1-.61-1,4.78,4.78,0,0,1-.21-1.49,4.43,4.43,0,0,1,.22-1.46,3,3,0,0,1,.61-1.1,2.43,2.43,0,0,1,1-.69,3.3,3.3,0,0,1,1.29-.24,3.42,3.42,0,0,1,1.31.22,2.41,2.41,0,0,1,.89.62,2.64,2.64,0,0,1,.51.95,4.06,4.06,0,0,1,.16,1.18ZM161,47.34a1.78,1.78,0,0,0-.29-1.14,1.14,1.14,0,0,0-1-.41,1.32,1.32,0,0,0-.57.12,1.16,1.16,0,0,0-.4.33,1.49,1.49,0,0,0-.24.49,2.36,2.36,0,0,0-.1.61Z"/><path class="cls-5" d="M168,45.53c0,.16,0,.3,0,.4a1.18,1.18,0,0,1,0,.25.22.22,0,0,1-.07.12.2.2,0,0,1-.11,0,.32.32,0,0,1-.13,0l-.15-.05-.19,0a.73.73,0,0,0-.22,0,.75.75,0,0,0-.29.06,1.35,1.35,0,0,0-.29.18,1.69,1.69,0,0,0-.32.33c-.11.14-.23.3-.36.5V51a.16.16,0,0,1,0,.12.56.56,0,0,1-.14.09,1.33,1.33,0,0,1-.26,0h-.84l-.26,0a.56.56,0,0,1-.14-.09.21.21,0,0,1,0-.12V45a.16.16,0,0,1,0-.12.19.19,0,0,1,.12-.09,1,1,0,0,1,.23,0l.35,0,.36,0a.9.9,0,0,1,.22,0,.2.2,0,0,1,.11.09.16.16,0,0,1,0,.12v.75a5,5,0,0,1,.45-.56,2.44,2.44,0,0,1,.4-.35,1.09,1.09,0,0,1,.38-.18,1.24,1.24,0,0,1,.38-.05h.19l.21,0,.19.06a.33.33,0,0,1,.12.06.16.16,0,0,1,.06.08.53.53,0,0,1,0,.11s0,.12,0,.21S168,45.37,168,45.53Z"/><path class="cls-5" d="M74.07,65.54a.16.16,0,0,1-.07.15.34.34,0,0,1-.21.08,2.31,2.31,0,0,1-.43,0,2.34,2.34,0,0,1-.45,0,.34.34,0,0,1-.2-.08.18.18,0,0,1-.06-.15v-.48a2.73,2.73,0,0,1-.85.63,2.5,2.5,0,0,1-1.07.22,3.14,3.14,0,0,1-.89-.12,2.06,2.06,0,0,1-.7-.38,1.68,1.68,0,0,1-.46-.62,2,2,0,0,1-.16-.85,1.94,1.94,0,0,1,.21-.93,1.65,1.65,0,0,1,.62-.64,3,3,0,0,1,1-.38,7.39,7.39,0,0,1,1.42-.13h.6V61.5a1.85,1.85,0,0,0-.06-.5.78.78,0,0,0-.19-.36.72.72,0,0,0-.36-.21,1.69,1.69,0,0,0-.54-.07,3,3,0,0,0-.77.09,5.87,5.87,0,0,0-.6.22,3.47,3.47,0,0,0-.43.21.64.64,0,0,1-.28.09.15.15,0,0,1-.13,0,.34.34,0,0,1-.1-.13,2.18,2.18,0,0,1-.06-.22,2.48,2.48,0,0,1,0-.29,1,1,0,0,1,0-.33.46.46,0,0,1,.13-.22,1.09,1.09,0,0,1,.33-.22,4.37,4.37,0,0,1,.56-.22,5.53,5.53,0,0,1,.7-.17,4.93,4.93,0,0,1,.78-.06,4.82,4.82,0,0,1,1.22.14,1.87,1.87,0,0,1,.83.43,1.64,1.64,0,0,1,.48.74,3.54,3.54,0,0,1,.15,1.09Zm-1.68-2.6h-.66A3.51,3.51,0,0,0,71,63a1.18,1.18,0,0,0-.48.19.82.82,0,0,0-.27.29.87.87,0,0,0-.09.4.76.76,0,0,0,.25.6.93.93,0,0,0,.67.22,1.18,1.18,0,0,0,.66-.19,2.88,2.88,0,0,0,.62-.53Z"/><path class="cls-5" d="M85.05,62.4a6,6,0,0,1-.17,1.46,3.39,3.39,0,0,1-.51,1.1,2.27,2.27,0,0,1-.83.71,2.58,2.58,0,0,1-1.14.24,2.46,2.46,0,0,1-.49,0,1.65,1.65,0,0,1-.42-.16,2.4,2.4,0,0,1-.42-.26c-.13-.1-.27-.23-.42-.37v2.86a.2.2,0,0,1,0,.13.42.42,0,0,1-.14.09l-.26.06-.42,0-.41,0-.26-.06a.33.33,0,0,1-.14-.09.21.21,0,0,1,0-.13V59.45a.21.21,0,0,1,0-.12s.06-.06.12-.09a.9.9,0,0,1,.22-.05l.35,0,.35,0a.9.9,0,0,1,.22.05c.06,0,.1,0,.12.09a.21.21,0,0,1,0,.12v.71a5.68,5.68,0,0,1,.52-.48,3.38,3.38,0,0,1,.52-.35,2.13,2.13,0,0,1,.55-.2,2.3,2.3,0,0,1,.6-.07,2.4,2.4,0,0,1,1.14.26,2.28,2.28,0,0,1,.76.72,3.15,3.15,0,0,1,.43,1.06A5.46,5.46,0,0,1,85.05,62.4Zm-1.78.12a4.56,4.56,0,0,0-.06-.75,2.22,2.22,0,0,0-.2-.63,1.1,1.1,0,0,0-.37-.45.94.94,0,0,0-.57-.17,1.26,1.26,0,0,0-.33,0,1.35,1.35,0,0,0-.34.17A2.38,2.38,0,0,0,81,61a5.13,5.13,0,0,0-.39.46v2a3.82,3.82,0,0,0,.69.7,1.08,1.08,0,0,0,.68.25.92.92,0,0,0,.57-.17,1.25,1.25,0,0,0,.38-.44,2.35,2.35,0,0,0,.23-.63A4,4,0,0,0,83.27,62.52Z"/><path class="cls-5" d="M90.32,60c0,.17,0,.3,0,.4a1.18,1.18,0,0,1,0,.25.22.22,0,0,1-.07.12.21.21,0,0,1-.11,0l-.13,0-.15,0-.19-.05a.78.78,0,0,0-.22,0,1,1,0,0,0-.29,0,1.35,1.35,0,0,0-.29.18,3.42,3.42,0,0,0-.33.33,4.94,4.94,0,0,0-.35.51v3.78a.21.21,0,0,1,0,.12.38.38,0,0,1-.14.09,1.46,1.46,0,0,1-.27,0l-.41,0-.42,0a1.33,1.33,0,0,1-.26,0,.31.31,0,0,1-.14-.09.16.16,0,0,1,0-.12V59.45a.21.21,0,0,1,0-.12.33.33,0,0,1,.13-.09,1,1,0,0,1,.23-.05l.35,0,.36,0a.9.9,0,0,1,.22.05c.05,0,.09,0,.11.09a.21.21,0,0,1,0,.12v.75a4.76,4.76,0,0,1,.44-.56,3,3,0,0,1,.41-.35,1,1,0,0,1,.38-.18,1.58,1.58,0,0,1,.38,0h.19l.21,0,.19.06.12.06a.24.24,0,0,1,.06.08.53.53,0,0,1,0,.11c0,.05,0,.12,0,.21Z"/><path class="cls-5" d="M97.14,65.52a.21.21,0,0,1,0,.12s-.06.06-.12.09a1,1,0,0,1-.23,0l-.35,0-.36,0a.9.9,0,0,1-.22,0c-.06,0-.1,0-.12-.09a.21.21,0,0,1,0-.12v-.7a3.94,3.94,0,0,1-1,.82,2.28,2.28,0,0,1-1.08.27,2.52,2.52,0,0,1-1-.2,2,2,0,0,1-.69-.56,2.27,2.27,0,0,1-.37-.82,4.8,4.8,0,0,1-.11-1.16V59.45a.21.21,0,0,1,0-.12.31.31,0,0,1,.14-.09,1.2,1.2,0,0,1,.26-.05l.42,0,.41,0a1.2,1.2,0,0,1,.26.05c.07,0,.12,0,.14.09a.17.17,0,0,1,0,.12v3.43a3.36,3.36,0,0,0,.06.73,1.3,1.3,0,0,0,.18.43.86.86,0,0,0,.32.28,1,1,0,0,0,.46.1,1.11,1.11,0,0,0,.65-.24,4.09,4.09,0,0,0,.71-.69v-4a.16.16,0,0,1,0-.12s.07-.06.13-.09a1.46,1.46,0,0,1,.27-.05l.41,0,.42,0a1.33,1.33,0,0,1,.26.05.33.33,0,0,1,.13.09.16.16,0,0,1,0,.12Z"/><path class="cls-5" d="M104.48,62.31a.67.67,0,0,1-.14.46.5.5,0,0,1-.39.15h-3.69a2.65,2.65,0,0,0,.09.71,1.3,1.3,0,0,0,.29.53,1.27,1.27,0,0,0,.52.34,2.13,2.13,0,0,0,.76.12,3.74,3.74,0,0,0,.79-.07,5.75,5.75,0,0,0,.59-.14l.41-.14a.67.67,0,0,1,.26-.07.18.18,0,0,1,.11,0,.19.19,0,0,1,.07.08.65.65,0,0,1,0,.17,2.44,2.44,0,0,1,0,.29V65a1.41,1.41,0,0,0,0,.18.5.5,0,0,1,0,.13.3.3,0,0,1-.07.1,1.08,1.08,0,0,1-.24.13l-.5.16c-.21,0-.44.09-.7.13a5.77,5.77,0,0,1-.85.06,4.68,4.68,0,0,1-1.42-.2,2.62,2.62,0,0,1-1-.62,2.72,2.72,0,0,1-.61-1,5.07,5.07,0,0,1-.2-1.49,4.77,4.77,0,0,1,.21-1.46,3,3,0,0,1,.62-1.1,2.61,2.61,0,0,1,1-.69,3.38,3.38,0,0,1,1.3-.24,3.46,3.46,0,0,1,1.31.22,2.28,2.28,0,0,1,.88.63,2.4,2.4,0,0,1,.52.94,4.45,4.45,0,0,1,.16,1.19Zm-1.66-.49a1.86,1.86,0,0,0-.29-1.14,1.14,1.14,0,0,0-1-.41,1.26,1.26,0,0,0-.57.12,1.44,1.44,0,0,0-.4.33,1.62,1.62,0,0,0-.25.49,2.36,2.36,0,0,0-.09.61Z"/><path class="cls-5" d="M112,62.4a5.45,5.45,0,0,1-.18,1.46,3.39,3.39,0,0,1-.51,1.1,2.32,2.32,0,0,1-.82.71,2.51,2.51,0,0,1-1.11.24,2.62,2.62,0,0,1-.57-.06,2.21,2.21,0,0,1-.51-.18,3.43,3.43,0,0,1-.48-.33,5.41,5.41,0,0,1-.48-.48v.66a.28.28,0,0,1,0,.13.32.32,0,0,1-.13.08.6.6,0,0,1-.22,0l-.35,0-.35,0a.66.66,0,0,1-.23,0,.36.36,0,0,1-.12-.08.28.28,0,0,1,0-.13V56.57a.2.2,0,0,1,0-.13.42.42,0,0,1,.14-.09l.26-.06.42,0,.41,0,.27.06a.56.56,0,0,1,.14.09.28.28,0,0,1,0,.13v3.35a3.28,3.28,0,0,1,.46-.39,2.75,2.75,0,0,1,.46-.27,2.21,2.21,0,0,1,.48-.15,2.19,2.19,0,0,1,.52,0,2.24,2.24,0,0,1,1.14.27,2.31,2.31,0,0,1,.77.72,3.2,3.2,0,0,1,.43,1.07A5.91,5.91,0,0,1,112,62.4Zm-1.78.13a4.56,4.56,0,0,0-.06-.75,2,2,0,0,0-.2-.64,1.28,1.28,0,0,0-.37-.45,1,1,0,0,0-.58-.17,1.26,1.26,0,0,0-.33,0,1.48,1.48,0,0,0-.34.16,4.07,4.07,0,0,0-.36.3,4.91,4.91,0,0,0-.38.46v2a3.52,3.52,0,0,0,.69.7,1.16,1.16,0,0,0,.69.24.87.87,0,0,0,.56-.17,1.28,1.28,0,0,0,.39-.44,2,2,0,0,0,.22-.62A3.23,3.23,0,0,0,110.23,62.53Z"/><path class="cls-5" d="M118.55,65.54a.16.16,0,0,1-.07.15.34.34,0,0,1-.21.08,2.31,2.31,0,0,1-.43,0,2.34,2.34,0,0,1-.45,0,.34.34,0,0,1-.2-.08.21.21,0,0,1,0-.15v-.48a2.77,2.77,0,0,1-.86.63,2.47,2.47,0,0,1-1.07.22,3.07,3.07,0,0,1-.88-.12,2.11,2.11,0,0,1-.71-.38,1.8,1.8,0,0,1-.46-.62,2.22,2.22,0,0,1-.16-.85,1.94,1.94,0,0,1,.21-.93,1.65,1.65,0,0,1,.62-.64,3.06,3.06,0,0,1,1-.38,7.5,7.5,0,0,1,1.43-.13h.59V61.5a1.85,1.85,0,0,0-.06-.5.78.78,0,0,0-.19-.36.73.73,0,0,0-.35-.21,1.75,1.75,0,0,0-.55-.07,3,3,0,0,0-.77.09,4.92,4.92,0,0,0-.59.22,3,3,0,0,0-.44.21.64.64,0,0,1-.28.09.17.17,0,0,1-.13,0,.34.34,0,0,1-.1-.13,1,1,0,0,1,0-.22,1.29,1.29,0,0,1,0-.29,1.34,1.34,0,0,1,0-.33.46.46,0,0,1,.13-.22,1.09,1.09,0,0,1,.33-.22,4.37,4.37,0,0,1,.56-.22,6,6,0,0,1,.7-.17,4.93,4.93,0,0,1,.78-.06,4.76,4.76,0,0,1,1.22.14,2,2,0,0,1,.84.43,1.71,1.71,0,0,1,.47.74,3.54,3.54,0,0,1,.15,1.09Zm-1.68-2.6h-.65a3.55,3.55,0,0,0-.71.06,1.18,1.18,0,0,0-.48.19.82.82,0,0,0-.27.29.87.87,0,0,0-.08.4.75.75,0,0,0,.24.6.93.93,0,0,0,.67.22,1.18,1.18,0,0,0,.66-.19,2.66,2.66,0,0,0,.62-.53Z"/><path class="cls-5" d="M125.13,65.52a.16.16,0,0,1,0,.12s-.07.06-.14.09a1.2,1.2,0,0,1-.26,0l-.41,0-.42,0a1.2,1.2,0,0,1-.26,0,.31.31,0,0,1-.14-.09.16.16,0,0,1,0-.12V56.57a.2.2,0,0,1,0-.13.42.42,0,0,1,.14-.09l.26-.06.42,0,.41,0,.26.06a.33.33,0,0,1,.14.09.2.2,0,0,1,0,.13Z"/><path class="cls-5" d="M133,62.42a4.55,4.55,0,0,1-.21,1.42,2.77,2.77,0,0,1-.62,1.1,2.7,2.7,0,0,1-1,.72,3.85,3.85,0,0,1-1.46.25,4,4,0,0,1-1.41-.22,2.57,2.57,0,0,1-1-.66,2.62,2.62,0,0,1-.58-1.05,4.85,4.85,0,0,1-.19-1.43,4.51,4.51,0,0,1,.2-1.42,3,3,0,0,1,.63-1.11,2.79,2.79,0,0,1,1-.71,3.81,3.81,0,0,1,1.46-.25,4,4,0,0,1,1.41.22,2.45,2.45,0,0,1,1,.65A2.68,2.68,0,0,1,132.8,61,5.11,5.11,0,0,1,133,62.42Zm-1.77.07a4.35,4.35,0,0,0-.07-.83,2,2,0,0,0-.24-.65,1.19,1.19,0,0,0-.45-.44,1.66,1.66,0,0,0-1.38,0,1.24,1.24,0,0,0-.47.41,2,2,0,0,0-.28.65,3.72,3.72,0,0,0-.09.86,3.6,3.6,0,0,0,.08.83,2.15,2.15,0,0,0,.24.66,1.16,1.16,0,0,0,.45.43,1.52,1.52,0,0,0,.71.15,1.41,1.41,0,0,0,.67-.14,1.21,1.21,0,0,0,.47-.4,1.6,1.6,0,0,0,.27-.65A3.72,3.72,0,0,0,131.22,62.49Z"/><path class="cls-5" d="M143.26,67.93a.2.2,0,0,1,0,.13.42.42,0,0,1-.14.09l-.26.06-.41,0-.42,0-.26-.06a.36.36,0,0,1-.13-.09.2.2,0,0,1,0-.13V65.05a5.15,5.15,0,0,1-.48.39,2.75,2.75,0,0,1-.46.27,2.21,2.21,0,0,1-.48.15,2.19,2.19,0,0,1-.52,0,2.17,2.17,0,0,1-1.9-1,3.2,3.2,0,0,1-.43-1.07,5.91,5.91,0,0,1-.14-1.28,5.45,5.45,0,0,1,.18-1.46,3.21,3.21,0,0,1,.52-1.1,2.27,2.27,0,0,1,.83-.71,2.73,2.73,0,0,1,1.64-.19,1.46,1.46,0,0,1,.46.18,2.67,2.67,0,0,1,.48.32c.17.14.35.3.55.5v-.66a.16.16,0,0,1,0-.12s.06-.06.12-.09a1,1,0,0,1,.22-.05l.36,0,.34,0a.9.9,0,0,1,.22.05.38.38,0,0,1,.12.09.21.21,0,0,1,0,.12Zm-1.7-6.47a4,4,0,0,0-.71-.71,1.18,1.18,0,0,0-.7-.24,1,1,0,0,0-.58.17,1.28,1.28,0,0,0-.39.44,2.46,2.46,0,0,0-.21.63,3.27,3.27,0,0,0-.08.7,3.74,3.74,0,0,0,.07.75,2.09,2.09,0,0,0,.2.64,1.1,1.1,0,0,0,.37.45,1,1,0,0,0,.58.17,1.34,1.34,0,0,0,.35,0,1.2,1.2,0,0,0,.34-.17,2.85,2.85,0,0,0,.36-.3l.4-.46Z"/><path class="cls-5" d="M150.75,65.52a.16.16,0,0,1,0,.12s-.06.06-.12.09a.9.9,0,0,1-.22,0l-.35,0-.37,0a1,1,0,0,1-.22,0c-.05,0-.09,0-.11-.09a.16.16,0,0,1,0-.12v-.7a3.91,3.91,0,0,1-1,.82,2.33,2.33,0,0,1-1.08.27,2.57,2.57,0,0,1-1.06-.2,1.88,1.88,0,0,1-.68-.56,2.29,2.29,0,0,1-.38-.82,5.37,5.37,0,0,1-.11-1.16V59.45a.16.16,0,0,1,0-.12s.07-.06.13-.09a1.46,1.46,0,0,1,.27-.05l.41,0,.42,0a1.33,1.33,0,0,1,.26.05.38.38,0,0,1,.14.09.16.16,0,0,1,0,.12v3.43a3.36,3.36,0,0,0,.06.73,1.13,1.13,0,0,0,.19.43.79.79,0,0,0,.32.28.93.93,0,0,0,.45.1,1.12,1.12,0,0,0,.66-.24,4.08,4.08,0,0,0,.7-.69v-4a.21.21,0,0,1,0-.12.31.31,0,0,1,.14-.09,1.2,1.2,0,0,1,.26-.05l.42,0,.41,0a1.2,1.2,0,0,1,.26.05.38.38,0,0,1,.14.09.21.21,0,0,1,0,.12Z"/><path class="cls-5" d="M158.08,62.31a.62.62,0,0,1-.14.46.49.49,0,0,1-.38.15h-3.7a2.65,2.65,0,0,0,.09.71,1.3,1.3,0,0,0,.29.53,1.35,1.35,0,0,0,.52.34,2.16,2.16,0,0,0,.76.12,3.74,3.74,0,0,0,.79-.07,4.71,4.71,0,0,0,.59-.14l.41-.14a.67.67,0,0,1,.27-.07.17.17,0,0,1,.1,0s0,0,.07.08a.61.61,0,0,1,0,.17c0,.08,0,.17,0,.29s0,.18,0,.25a.9.9,0,0,1,0,.18.5.5,0,0,1,0,.13.61.61,0,0,1-.07.1,1.08,1.08,0,0,1-.24.13l-.51.16c-.2,0-.44.09-.7.13a5.63,5.63,0,0,1-.84.06,4.59,4.59,0,0,1-1.42-.2,2.62,2.62,0,0,1-1-.62,2.49,2.49,0,0,1-.61-1,5.41,5.41,0,0,1,0-3,3,3,0,0,1,.61-1.1,2.64,2.64,0,0,1,1-.69,3.31,3.31,0,0,1,1.3-.24,3.4,3.4,0,0,1,1.3.22,2.32,2.32,0,0,1,.89.63,2.52,2.52,0,0,1,.51.94,4.08,4.08,0,0,1,.16,1.19Zm-1.66-.49a1.73,1.73,0,0,0-.29-1.14,1.13,1.13,0,0,0-1-.41,1.25,1.25,0,0,0-.56.12,1.49,1.49,0,0,0-.41.33,1.86,1.86,0,0,0-.24.49,2.36,2.36,0,0,0-.1.61Z"/><path class="cls-5" d="M76.19,80a.15.15,0,0,1-.07.14.4.4,0,0,1-.21.08,2.44,2.44,0,0,1-.44,0,2.29,2.29,0,0,1-.44,0,.31.31,0,0,1-.2-.08.17.17,0,0,1-.06-.14v-.49a2.73,2.73,0,0,1-.85.63,2.5,2.5,0,0,1-1.07.22,3.14,3.14,0,0,1-.89-.12,2.06,2.06,0,0,1-.7-.38,1.64,1.64,0,0,1-.46-.61,2.13,2.13,0,0,1-.16-.86,2.09,2.09,0,0,1,.2-.93,1.73,1.73,0,0,1,.62-.64,3.12,3.12,0,0,1,1-.38,7.45,7.45,0,0,1,1.42-.12h.6V76a1.85,1.85,0,0,0-.06-.5.83.83,0,0,0-.19-.36.8.8,0,0,0-.36-.21,1.71,1.71,0,0,0-.55-.07,2.54,2.54,0,0,0-.76.1,3.48,3.48,0,0,0-.6.21c-.17.07-.31.15-.43.21a.68.68,0,0,1-.28.09.23.23,0,0,1-.14,0,.48.48,0,0,1-.09-.14.64.64,0,0,1-.06-.22,2.3,2.3,0,0,1,0-.28,1.52,1.52,0,0,1,0-.34.71.71,0,0,1,.13-.22,1.67,1.67,0,0,1,.34-.22,3.85,3.85,0,0,1,.56-.22,5.8,5.8,0,0,1,.69-.17,5.12,5.12,0,0,1,.78-.06,4.84,4.84,0,0,1,1.23.14,2,2,0,0,1,.83.43,1.64,1.64,0,0,1,.48.74,3.54,3.54,0,0,1,.15,1.09Zm-1.68-2.61h-.66a3.62,3.62,0,0,0-.71.06,1.59,1.59,0,0,0-.47.19.67.67,0,0,0-.27.29.87.87,0,0,0-.09.4.75.75,0,0,0,.24.6,1,1,0,0,0,.68.22,1.26,1.26,0,0,0,.66-.18,3.27,3.27,0,0,0,.62-.54Z"/><path class="cls-5" d="M84,76.88a5.45,5.45,0,0,1-.18,1.46,3.15,3.15,0,0,1-.51,1.11,2.34,2.34,0,0,1-.83.7,2.57,2.57,0,0,1-1.13.24,1.89,1.89,0,0,1-.49,0,1.4,1.4,0,0,1-.43-.16,2,2,0,0,1-.41-.26,2.79,2.79,0,0,1-.42-.37v2.87a.21.21,0,0,1-.05.12.26.26,0,0,1-.14.09,1.12,1.12,0,0,1-.26.06l-.41,0-.42,0a1.12,1.12,0,0,1-.26-.06.31.31,0,0,1-.14-.09.19.19,0,0,1,0-.12V73.93a.21.21,0,0,1,0-.12.31.31,0,0,1,.12-.09,1,1,0,0,1,.23,0H79l.23,0,.12.09a.21.21,0,0,1,0,.12v.71c.18-.18.35-.34.52-.48a2.73,2.73,0,0,1,.52-.34,2,2,0,0,1,.55-.21,2.62,2.62,0,0,1,1.74.19,2.31,2.31,0,0,1,.77.72,3.47,3.47,0,0,1,.43,1.06A6,6,0,0,1,84,76.88ZM82.23,77a4.56,4.56,0,0,0-.06-.75,2.32,2.32,0,0,0-.19-.63,1.28,1.28,0,0,0-.37-.45A1,1,0,0,0,81,75a1,1,0,0,0-.34.06,1.48,1.48,0,0,0-.34.16,3,3,0,0,0-.36.3,3.88,3.88,0,0,0-.38.46v2a3.9,3.9,0,0,0,.68.71,1.15,1.15,0,0,0,.68.24.88.88,0,0,0,.57-.17,1.28,1.28,0,0,0,.39-.44,2.34,2.34,0,0,0,.22-.63A3.23,3.23,0,0,0,82.23,77Z"/><path class="cls-5" d="M89.29,74.49c0,.17,0,.3,0,.41a1.19,1.19,0,0,1,0,.24.22.22,0,0,1-.07.12.15.15,0,0,1-.11,0,.27.27,0,0,1-.12,0l-.16,0-.18,0-.23,0a.79.79,0,0,0-.29.06.85.85,0,0,0-.29.18,2.41,2.41,0,0,0-.32.32q-.17.21-.36.51V80a.16.16,0,0,1,0,.12.24.24,0,0,1-.14.09,1.33,1.33,0,0,1-.26.05l-.42,0-.41,0a1.2,1.2,0,0,1-.26-.05.21.21,0,0,1-.14-.09.17.17,0,0,1-.05-.12V73.93a.21.21,0,0,1,0-.12.31.31,0,0,1,.12-.09l.23,0h.71a.8.8,0,0,1,.22,0l.12.09a.21.21,0,0,1,0,.12v.75a6.06,6.06,0,0,1,.45-.56,2.44,2.44,0,0,1,.4-.35,1.64,1.64,0,0,1,.38-.18,1.73,1.73,0,0,1,.38,0h.19l.22,0,.19.06.12.06a.35.35,0,0,1,0,.08.81.81,0,0,1,0,.11,1.09,1.09,0,0,1,0,.22C89.28,74.2,89.29,74.33,89.29,74.49Z"/><path class="cls-5" d="M95.8,76.79a.67.67,0,0,1-.14.46.49.49,0,0,1-.38.15h-3.7a2.6,2.6,0,0,0,.09.71,1.41,1.41,0,0,0,.29.54,1.33,1.33,0,0,0,.52.33,2.13,2.13,0,0,0,.76.12A3.74,3.74,0,0,0,94,79a5.18,5.18,0,0,0,.59-.14l.41-.14a.67.67,0,0,1,.27-.07.17.17,0,0,1,.1,0s0,0,.07.08a.66.66,0,0,1,0,.18,2.18,2.18,0,0,1,0,.28v.25c0,.07,0,.13,0,.18a1,1,0,0,1,0,.13l-.08.1a1.08,1.08,0,0,1-.24.13,4.27,4.27,0,0,1-.5.16,5.86,5.86,0,0,1-.7.13,5.77,5.77,0,0,1-.85.06,4.68,4.68,0,0,1-1.42-.2,2.64,2.64,0,0,1-1-.62,2.72,2.72,0,0,1-.61-1,5.07,5.07,0,0,1-.2-1.49A4.77,4.77,0,0,1,90,75.57a3,3,0,0,1,.62-1.1,2.69,2.69,0,0,1,1-.69,3.38,3.38,0,0,1,1.3-.24,3.42,3.42,0,0,1,1.31.22,2.4,2.4,0,0,1,.89.63,2.52,2.52,0,0,1,.51.94,4.08,4.08,0,0,1,.16,1.19Zm-1.66-.49a1.79,1.79,0,0,0-.29-1.14,1.32,1.32,0,0,0-1.53-.28,1.16,1.16,0,0,0-.4.33,1.25,1.25,0,0,0-.24.49,2.28,2.28,0,0,0-.1.6Z"/><path class="cls-5" d="M103,80a.16.16,0,0,1,0,.12.22.22,0,0,1-.13.09,1.31,1.31,0,0,1-.27.05l-.41,0-.42,0a1.33,1.33,0,0,1-.26-.05.22.22,0,0,1-.13-.09.17.17,0,0,1,0-.12V76.54a3.18,3.18,0,0,0-.06-.7,1.3,1.3,0,0,0-.19-.43.84.84,0,0,0-.31-.28,1,1,0,0,0-.46-.1,1.14,1.14,0,0,0-.66.24,3.52,3.52,0,0,0-.69.7v4a.21.21,0,0,1,0,.12.28.28,0,0,1-.14.09,1.46,1.46,0,0,1-.27.05l-.41,0-.42,0a1.33,1.33,0,0,1-.26-.05.24.24,0,0,1-.14-.09.16.16,0,0,1,0-.12V73.93a.21.21,0,0,1,0-.12.48.48,0,0,1,.13-.09,1,1,0,0,1,.23,0h.71a.9.9,0,0,1,.22,0,.35.35,0,0,1,.11.09.21.21,0,0,1,0,.12v.7a3.75,3.75,0,0,1,1-.82,2.34,2.34,0,0,1,1.09-.27,2.47,2.47,0,0,1,1,.2,1.83,1.83,0,0,1,.69.56,2.21,2.21,0,0,1,.38.82,4.65,4.65,0,0,1,.11,1.13Z"/><path class="cls-5" d="M110.46,80a.25.25,0,0,1,0,.13l-.12.09a1,1,0,0,1-.22,0l-.35,0-.35,0-.22,0a.31.31,0,0,1-.12-.09.18.18,0,0,1,0-.13v-.67a3.54,3.54,0,0,1-1,.78,2.29,2.29,0,0,1-1.14.28,2.35,2.35,0,0,1-1.17-.27,2.25,2.25,0,0,1-.78-.72,3,3,0,0,1-.44-1.07,5.84,5.84,0,0,1-.14-1.28,5.91,5.91,0,0,1,.17-1.46,3.39,3.39,0,0,1,.51-1.1,2.15,2.15,0,0,1,.83-.7,2.47,2.47,0,0,1,1.15-.25,2,2,0,0,1,.92.21,3.39,3.39,0,0,1,.83.61V71.07a.28.28,0,0,1,0-.13.56.56,0,0,1,.14-.09l.26-.06.42,0,.41,0,.26.06a.42.42,0,0,1,.14.09.2.2,0,0,1,0,.13Zm-1.7-4.06a3.86,3.86,0,0,0-.71-.7,1.13,1.13,0,0,0-.7-.25,1,1,0,0,0-.58.17,1.28,1.28,0,0,0-.39.44,2.47,2.47,0,0,0-.22.63,4.05,4.05,0,0,0-.07.7,3.57,3.57,0,0,0,.07.74,2.07,2.07,0,0,0,.2.65,1.1,1.1,0,0,0,.37.45,1,1,0,0,0,.58.17,1.34,1.34,0,0,0,.35,0,1.2,1.2,0,0,0,.34-.17,2.19,2.19,0,0,0,.36-.3c.12-.12.25-.28.4-.46Z"/><path class="cls-5" d="M114,71.87a1,1,0,0,1-.21.72,1.18,1.18,0,0,1-.79.19,1.17,1.17,0,0,1-.78-.19.93.93,0,0,1-.2-.69,1,1,0,0,1,.21-.71,1.66,1.66,0,0,1,1.56,0A.92.92,0,0,1,114,71.87ZM113.9,80a.16.16,0,0,1,0,.12.28.28,0,0,1-.14.09,1.33,1.33,0,0,1-.26.05l-.42,0-.41,0a1.46,1.46,0,0,1-.27-.05.28.28,0,0,1-.14-.09.21.21,0,0,1,0-.12V73.94a.28.28,0,0,1,0-.12.56.56,0,0,1,.14-.09,1.46,1.46,0,0,1,.27,0,2.43,2.43,0,0,1,.41,0,2.56,2.56,0,0,1,.42,0,1.33,1.33,0,0,1,.26,0,.56.56,0,0,1,.14.09.19.19,0,0,1,0,.12Z"/><path class="cls-5" d="M119.89,78.29a2,2,0,0,1-.2.91,1.92,1.92,0,0,1-.54.66,2.51,2.51,0,0,1-.84.4,3.87,3.87,0,0,1-1,.13,3.36,3.36,0,0,1-.65,0,3.86,3.86,0,0,1-.56-.13,2.34,2.34,0,0,1-.41-.16.76.76,0,0,1-.23-.15.49.49,0,0,1-.12-.23,1.72,1.72,0,0,1,0-.45,2.92,2.92,0,0,1,0-.32.78.78,0,0,1,0-.19s0-.08.07-.09a.17.17,0,0,1,.1,0,.52.52,0,0,1,.23.09,2.85,2.85,0,0,0,.36.19,4.69,4.69,0,0,0,.51.19,2.17,2.17,0,0,0,.65.09,1.73,1.73,0,0,0,.42-.05A1,1,0,0,0,118,79a.53.53,0,0,0,.2-.22.66.66,0,0,0,.07-.32.51.51,0,0,0-.13-.35,1.1,1.1,0,0,0-.33-.25l-.47-.21-.54-.21c-.18-.08-.36-.16-.54-.26a2.4,2.4,0,0,1-.47-.37,1.59,1.59,0,0,1-.33-.53,1.8,1.8,0,0,1-.13-.73,1.91,1.91,0,0,1,.17-.8,1.85,1.85,0,0,1,.49-.62,2.41,2.41,0,0,1,.78-.41,3.69,3.69,0,0,1,1-.14,3.31,3.31,0,0,1,.55,0l.49.1a2.21,2.21,0,0,1,.37.14.64.64,0,0,1,.21.12.41.41,0,0,1,.09.1.42.42,0,0,1,0,.12l0,.18c0,.07,0,.16,0,.26s0,.23,0,.3a.78.78,0,0,1,0,.19.15.15,0,0,1-.06.09l-.1,0a.44.44,0,0,1-.19-.07,2,2,0,0,0-.32-.15,3.33,3.33,0,0,0-.45-.16,2.56,2.56,0,0,0-.58-.07,1.64,1.64,0,0,0-.41,0,.69.69,0,0,0-.27.14.54.54,0,0,0-.17.2.75.75,0,0,0,0,.26.48.48,0,0,0,.13.35,1.17,1.17,0,0,0,.34.26,3.66,3.66,0,0,0,.48.2q.27.09.54.21a3.94,3.94,0,0,1,.55.26,1.92,1.92,0,0,1,.48.37,1.74,1.74,0,0,1,.34.52A1.93,1.93,0,0,1,119.89,78.29Z"/><path class="cls-5" d="M124.62,79.4a2.43,2.43,0,0,1,0,.46.55.55,0,0,1-.1.23.7.7,0,0,1-.18.12,1.58,1.58,0,0,1-.28.08,1.82,1.82,0,0,1-.35.06,2.36,2.36,0,0,1-.38,0,2.59,2.59,0,0,1-.88-.13,1.39,1.39,0,0,1-.62-.4,1.45,1.45,0,0,1-.36-.67,3.52,3.52,0,0,1-.12-1V75.09h-.73a.24.24,0,0,1-.2-.16,1.73,1.73,0,0,1-.06-.54,3.22,3.22,0,0,1,0-.33,1,1,0,0,1,0-.22.35.35,0,0,1,.09-.11.21.21,0,0,1,.12,0h.72V72.34a.19.19,0,0,1,0-.12.21.21,0,0,1,.14-.09.77.77,0,0,1,.26-.06l.41,0,.42,0a.77.77,0,0,1,.26.06.24.24,0,0,1,.14.09.19.19,0,0,1,0,.12V73.7h1.32a.21.21,0,0,1,.12,0s.06.06.09.11a1,1,0,0,1,0,.22,2.92,2.92,0,0,1,0,.33,1.67,1.67,0,0,1-.07.54c0,.1-.11.16-.2.16H123v2.85a1.39,1.39,0,0,0,.16.75.61.61,0,0,0,.56.24.9.9,0,0,0,.24,0l.2,0,.14-.06.1,0,.08,0a.14.14,0,0,1,.06.1,1.49,1.49,0,0,1,0,.19A2.54,2.54,0,0,1,124.62,79.4Z"/><path class="cls-5" d="M131.3,76.79a.67.67,0,0,1-.14.46.5.5,0,0,1-.39.15h-3.7a2.59,2.59,0,0,0,.1.71,1.41,1.41,0,0,0,.29.54A1.26,1.26,0,0,0,128,79a2.13,2.13,0,0,0,.76.12,3.74,3.74,0,0,0,.79-.07,5.75,5.75,0,0,0,.59-.14l.41-.14a.67.67,0,0,1,.26-.07.2.2,0,0,1,.11,0,.13.13,0,0,1,.06.08.6.6,0,0,1,0,.18,2.18,2.18,0,0,1,0,.28v.25a1.41,1.41,0,0,0,0,.18.39.39,0,0,1-.05.13.3.3,0,0,1-.07.1,1.08,1.08,0,0,1-.24.13,4.27,4.27,0,0,1-.5.16,5.68,5.68,0,0,1-.71.13,5.53,5.53,0,0,1-.84.06,4.68,4.68,0,0,1-1.42-.2,2.5,2.5,0,0,1-1-.62,2.72,2.72,0,0,1-.61-1,5.07,5.07,0,0,1-.2-1.49,4.77,4.77,0,0,1,.21-1.46,3,3,0,0,1,.62-1.1,2.61,2.61,0,0,1,1-.69,3.38,3.38,0,0,1,1.3-.24,3.46,3.46,0,0,1,1.31.22,2.4,2.4,0,0,1,1.39,1.57,4.07,4.07,0,0,1,.17,1.19Zm-1.66-.49a1.86,1.86,0,0,0-.29-1.14,1.32,1.32,0,0,0-1.53-.28,1.16,1.16,0,0,0-.4.33,1.42,1.42,0,0,0-.25.49,2.78,2.78,0,0,0-.1.6Z"/><path class="cls-5" d="M141.67,80a.21.21,0,0,1,0,.12.28.28,0,0,1-.14.09,1.2,1.2,0,0,1-.26.05l-.41,0-.42,0a1.31,1.31,0,0,1-.27-.05.25.25,0,0,1-.13-.09.16.16,0,0,1,0-.12V76.54a2.6,2.6,0,0,0-.07-.7,1.13,1.13,0,0,0-.19-.43.84.84,0,0,0-.31-.28.93.93,0,0,0-.45-.1,1.17,1.17,0,0,0-.67.24,3.52,3.52,0,0,0-.69.7v4a.16.16,0,0,1,0,.12.28.28,0,0,1-.14.09,1.33,1.33,0,0,1-.26.05l-.42,0-.41,0a1.46,1.46,0,0,1-.27-.05.28.28,0,0,1-.14-.09.21.21,0,0,1,0-.12v-9a.28.28,0,0,1,0-.13.56.56,0,0,1,.14-.09l.27-.06.41,0,.42,0,.26.06a.56.56,0,0,1,.14.09.2.2,0,0,1,0,.13V74.4a3.46,3.46,0,0,1,.9-.65,2.31,2.31,0,0,1,1-.21,2.55,2.55,0,0,1,1.05.2,1.88,1.88,0,0,1,.68.56,2.34,2.34,0,0,1,.38.83,4.78,4.78,0,0,1,.12,1.15Z"/><path class="cls-5" d="M149.49,76.9a4.51,4.51,0,0,1-.2,1.42,3,3,0,0,1-.62,1.11,3,3,0,0,1-1,.71,3.9,3.9,0,0,1-1.47.25,4,4,0,0,1-1.41-.22,2.47,2.47,0,0,1-1-.66,2.57,2.57,0,0,1-.59-1.05A4.85,4.85,0,0,1,143,77a4.55,4.55,0,0,1,.21-1.42,3.16,3.16,0,0,1,.62-1.11,3,3,0,0,1,1-.71,3.85,3.85,0,0,1,1.46-.25,4,4,0,0,1,1.42.22,2.55,2.55,0,0,1,1,.65,2.66,2.66,0,0,1,.58,1.06A4.81,4.81,0,0,1,149.49,76.9Zm-1.76.07a4.18,4.18,0,0,0-.07-.82,2,2,0,0,0-.24-.66,1.29,1.29,0,0,0-.46-.44,1.49,1.49,0,0,0-.71-.15,1.44,1.44,0,0,0-.67.14,1.2,1.2,0,0,0-.47.4,2,2,0,0,0-.27.65,3.72,3.72,0,0,0-.09.86,4.28,4.28,0,0,0,.07.83,2.15,2.15,0,0,0,.24.66,1.12,1.12,0,0,0,.46.43,1.48,1.48,0,0,0,.7.15,1.45,1.45,0,0,0,.68-.14,1.14,1.14,0,0,0,.47-.4,1.93,1.93,0,0,0,.27-.65A3.66,3.66,0,0,0,147.73,77Z"/><path class="cls-5" d="M154.29,80.24l-.74,2.15a.44.44,0,0,1-.33.24,3.17,3.17,0,0,1-.8.08,2.46,2.46,0,0,1-.43,0,.68.68,0,0,1-.25-.07.24.24,0,0,1-.09-.14.58.58,0,0,1,0-.2l.81-2a.61.61,0,0,1-.16-.13.81.81,0,0,1-.1-.18l-2.09-5.59a1.15,1.15,0,0,1-.09-.36.28.28,0,0,1,.08-.2.57.57,0,0,1,.28-.1,3.71,3.71,0,0,1,.51,0h.46a.62.62,0,0,1,.27,0,.28.28,0,0,1,.14.12,1.28,1.28,0,0,1,.1.25l1.43,4.06h0L154.66,74a.41.41,0,0,1,.1-.23.5.5,0,0,1,.22-.09,3.35,3.35,0,0,1,.52,0,3.48,3.48,0,0,1,.49,0,.56.56,0,0,1,.28.11.22.22,0,0,1,.1.2.88.88,0,0,1-.06.29Z"/><path class="cls-5" d="M60.33,87.5a2,2,0,0,1,.05-.47.69.69,0,0,1,.15-.31.74.74,0,0,1,.3-.17,2,2,0,0,1,.46,0,2,2,0,0,1,.47,0,.62.62,0,0,1,.3.17.69.69,0,0,1,.15.31,2.05,2.05,0,0,1,0,.47,2.21,2.21,0,0,1,0,.48.69.69,0,0,1-.15.31.55.55,0,0,1-.3.17,2,2,0,0,1-.47.05,2,2,0,0,1-.46-.05.64.64,0,0,1-.3-.17.69.69,0,0,1-.15-.31A2.14,2.14,0,0,1,60.33,87.5Zm.22,2a.23.23,0,0,1,.16-.21.58.58,0,0,1,.23-.06l.35,0,.37,0a.58.58,0,0,1,.22.06.23.23,0,0,1,.16.21l.18,6.19a.24.24,0,0,1,0,.15A.31.31,0,0,1,62,96a1.33,1.33,0,0,1-.28.06l-.46,0-.44,0a1.37,1.37,0,0,1-.29-.07.37.37,0,0,1-.15-.11.24.24,0,0,1,0-.15Z"/><path class="cls-5" d="M70,94a2.92,2.92,0,0,1,0,.33.93.93,0,0,1,0,.21.27.27,0,0,1-.09.12.21.21,0,0,1-.11,0H65.31a.53.53,0,0,1-.37-.14.5.5,0,0,1-.16-.43V86.47a.5.5,0,0,1,.16-.43.53.53,0,0,1,.37-.14h4.4a.14.14,0,0,1,.11,0s.06.06.09.12a.93.93,0,0,1,0,.21,3.33,3.33,0,0,1,0,.34,2.92,2.92,0,0,1,0,.32,1,1,0,0,1,0,.22.38.38,0,0,1-.09.12.18.18,0,0,1-.11,0H66.57v2.15h2.66a.15.15,0,0,1,.11,0,.2.2,0,0,1,.09.11.81.81,0,0,1,0,.21,2.92,2.92,0,0,1,0,.33,2.58,2.58,0,0,1,0,.32.81.81,0,0,1,0,.21.2.2,0,0,1-.09.11.15.15,0,0,1-.11,0H66.57v2.48h3.17a.21.21,0,0,1,.11,0,.27.27,0,0,1,.09.12,1.08,1.08,0,0,1,0,.21A3,3,0,0,1,70,94Z"/><path class="cls-5" d="M75.76,92.77a2,2,0,0,1-.19.91,1.76,1.76,0,0,1-.55.66,2.51,2.51,0,0,1-.84.4,3.87,3.87,0,0,1-1.05.13,3.49,3.49,0,0,1-.65-.05,2.78,2.78,0,0,1-.55-.13,2.06,2.06,0,0,1-.41-.16.83.83,0,0,1-.24-.15.49.49,0,0,1-.12-.23,2.31,2.31,0,0,1,0-.45,2.28,2.28,0,0,1,0-.31.88.88,0,0,1,0-.2s0-.08.07-.09a.15.15,0,0,1,.1,0,.45.45,0,0,1,.22.08l.36.19a4.23,4.23,0,0,0,.51.19,2.24,2.24,0,0,0,.66.09,1.7,1.7,0,0,0,.41,0,.89.89,0,0,0,.31-.14.63.63,0,0,0,.21-.22.79.79,0,0,0,.06-.32.55.55,0,0,0-.12-.35,1.3,1.3,0,0,0-.34-.25,4.32,4.32,0,0,0-.47-.21l-.53-.21a3.36,3.36,0,0,1-.54-.26,1.89,1.89,0,0,1-.81-.89,2,2,0,0,1-.12-.74,1.77,1.77,0,0,1,.17-.8,1.73,1.73,0,0,1,.49-.62,2.22,2.22,0,0,1,.78-.41,3.66,3.66,0,0,1,1-.14,3.43,3.43,0,0,1,.56,0,4.45,4.45,0,0,1,.48.1,1.92,1.92,0,0,1,.37.14,1.35,1.35,0,0,1,.22.12.41.41,0,0,1,.09.1.56.56,0,0,1,0,.12.9.9,0,0,1,0,.18,2,2,0,0,1,0,.26,2.45,2.45,0,0,1,0,.3.84.84,0,0,1,0,.19.22.22,0,0,1-.07.09l-.09,0a.4.4,0,0,1-.19-.07l-.33-.15a3.33,3.33,0,0,0-.45-.16,2.49,2.49,0,0,0-.58-.07,1.56,1.56,0,0,0-.4,0,.74.74,0,0,0-.28.14.54.54,0,0,0-.16.21.51.51,0,0,0-.06.25.52.52,0,0,0,.13.35,1.33,1.33,0,0,0,.34.26,3.66,3.66,0,0,0,.48.2l.55.21a4.43,4.43,0,0,1,.54.26,1.92,1.92,0,0,1,.48.37,1.56,1.56,0,0,1,.34.52A1.75,1.75,0,0,1,75.76,92.77Z"/><path class="cls-5" d="M85.82,91.27a.67.67,0,0,1-.14.46.51.51,0,0,1-.39.15h-3.7a2.26,2.26,0,0,0,.1.71,1.41,1.41,0,0,0,.29.54,1.26,1.26,0,0,0,.52.33,2.13,2.13,0,0,0,.76.12,3.74,3.74,0,0,0,.79-.07,5.75,5.75,0,0,0,.59-.14l.41-.14a.92.92,0,0,1,.26-.07.2.2,0,0,1,.11,0,.13.13,0,0,1,.06.08.6.6,0,0,1,0,.18,2.27,2.27,0,0,1,0,.28V94c0,.08,0,.14,0,.19a.34.34,0,0,1,0,.12.23.23,0,0,1-.07.1.77.77,0,0,1-.24.13,4.27,4.27,0,0,1-.5.16c-.21,0-.44.1-.71.14a7.3,7.3,0,0,1-.84.05,4.39,4.39,0,0,1-1.42-.2,2.5,2.5,0,0,1-1-.62,2.72,2.72,0,0,1-.61-1,5,5,0,0,1-.2-1.48,4.79,4.79,0,0,1,.21-1.47,3.17,3.17,0,0,1,.61-1.1,2.73,2.73,0,0,1,1-.69,3.71,3.71,0,0,1,2.6,0,2.23,2.23,0,0,1,.89.62,2.38,2.38,0,0,1,.51.94A4.12,4.12,0,0,1,85.82,91Zm-1.66-.49a1.81,1.81,0,0,0-.29-1.13,1.12,1.12,0,0,0-1-.42,1.14,1.14,0,0,0-.57.13,1.08,1.08,0,0,0-.4.33,1.42,1.42,0,0,0-.25.49,2.89,2.89,0,0,0-.1.6Z"/><path class="cls-5" d="M89,94.49a.16.16,0,0,1,0,.11.21.21,0,0,1-.14.09,1.2,1.2,0,0,1-.26,0l-.41,0-.42,0a1.2,1.2,0,0,1-.26,0,.24.24,0,0,1-.14-.09.15.15,0,0,1,0-.11v-9a.2.2,0,0,1,0-.13.42.42,0,0,1,.14-.09,1.2,1.2,0,0,1,.26,0,2.56,2.56,0,0,1,.42,0,2.49,2.49,0,0,1,.41,0,1.2,1.2,0,0,1,.26,0,.33.33,0,0,1,.14.09.21.21,0,0,1,0,.13Z"/><path class="cls-5" d="M103.48,94.49a.16.16,0,0,1,0,.11.22.22,0,0,1-.13.09,1.33,1.33,0,0,1-.26,0l-.42,0-.42,0a1.2,1.2,0,0,1-.26,0,.24.24,0,0,1-.14-.09.2.2,0,0,1,0-.11V90.88a2.47,2.47,0,0,0-.06-.56,1.39,1.39,0,0,0-.18-.43.89.89,0,0,0-.3-.28.94.94,0,0,0-.43-.1,1,1,0,0,0-.62.24,3.8,3.8,0,0,0-.68.7v4a.21.21,0,0,1,0,.11.28.28,0,0,1-.14.09,1.46,1.46,0,0,1-.27,0l-.4,0-.42,0a1.2,1.2,0,0,1-.26,0,.24.24,0,0,1-.14-.09.15.15,0,0,1,0-.11V90.88a2.47,2.47,0,0,0-.06-.56,1.68,1.68,0,0,0-.17-.43.89.89,0,0,0-.3-.28,1,1,0,0,0-.43-.1,1,1,0,0,0-.63.24,3.79,3.79,0,0,0-.67.7v4a.21.21,0,0,1,0,.11.28.28,0,0,1-.14.09,1.46,1.46,0,0,1-.27,0l-.41,0-.42,0a1.33,1.33,0,0,1-.26,0,.24.24,0,0,1-.14-.09.15.15,0,0,1,0-.11V88.41a.21.21,0,0,1,0-.12A.48.48,0,0,1,94,88.2l.22,0h.72l.22,0a.35.35,0,0,1,.11.09.21.21,0,0,1,0,.12v.7a4.49,4.49,0,0,1,1-.82,2.15,2.15,0,0,1,1-.27,2.82,2.82,0,0,1,.68.08,2,2,0,0,1,.53.22,2,2,0,0,1,.41.35,2,2,0,0,1,.28.46,6,6,0,0,1,.54-.5,3.16,3.16,0,0,1,.52-.35,2.11,2.11,0,0,1,.51-.19,1.81,1.81,0,0,1,.52-.07,2.26,2.26,0,0,1,1,.21,1.73,1.73,0,0,1,.67.55,2.37,2.37,0,0,1,.37.82,4.57,4.57,0,0,1,.11,1Z"/><path class="cls-5" d="M111.3,91.39a4.8,4.8,0,0,1-.2,1.41,3.16,3.16,0,0,1-.62,1.11,2.83,2.83,0,0,1-1,.71,3.9,3.9,0,0,1-1.47.25,4,4,0,0,1-1.41-.22,2.47,2.47,0,0,1-1-.66,2.57,2.57,0,0,1-.59-1,4.85,4.85,0,0,1-.19-1.43,4.55,4.55,0,0,1,.21-1.42,3,3,0,0,1,.62-1.11,2.87,2.87,0,0,1,1-.71,4.53,4.53,0,0,1,2.88,0,2.55,2.55,0,0,1,1,.65,2.79,2.79,0,0,1,.58,1.06A4.88,4.88,0,0,1,111.3,91.39Zm-1.76.06a5.12,5.12,0,0,0-.07-.82,1.85,1.85,0,0,0-.25-.66,1.19,1.19,0,0,0-.45-.44,1.49,1.49,0,0,0-.71-.15,1.44,1.44,0,0,0-.67.14,1.21,1.21,0,0,0-.47.4,2,2,0,0,0-.27.65,3.22,3.22,0,0,0-.1.86,4.25,4.25,0,0,0,.08.83,2.15,2.15,0,0,0,.24.66,1.16,1.16,0,0,0,.45.43,1.52,1.52,0,0,0,.71.15,1.45,1.45,0,0,0,.68-.14,1.2,1.2,0,0,0,.47-.4,2,2,0,0,0,.27-.64A3.81,3.81,0,0,0,109.54,91.45Z"/><path class="cls-5" d="M122.32,94.49a.15.15,0,0,1,0,.11.22.22,0,0,1-.13.09,1.33,1.33,0,0,1-.26,0l-.42,0-.42,0a1.2,1.2,0,0,1-.26,0,.24.24,0,0,1-.14-.09.21.21,0,0,1,0-.11V90.88a3.24,3.24,0,0,0,0-.56,1.39,1.39,0,0,0-.18-.43.89.89,0,0,0-.3-.28.94.94,0,0,0-.43-.1,1,1,0,0,0-.62.24,3.8,3.8,0,0,0-.68.7v4a.16.16,0,0,1,0,.11.21.21,0,0,1-.14.09,1.2,1.2,0,0,1-.26,0l-.41,0-.41,0a1.2,1.2,0,0,1-.26,0,.21.21,0,0,1-.14-.09.15.15,0,0,1,0-.11V90.88a2.47,2.47,0,0,0-.06-.56,1.39,1.39,0,0,0-.18-.43.74.74,0,0,0-.3-.28.93.93,0,0,0-.42-.1,1,1,0,0,0-.63.24,4.16,4.16,0,0,0-.68.7v4a.15.15,0,0,1,0,.11.21.21,0,0,1-.14.09,1.2,1.2,0,0,1-.26,0l-.41,0-.42,0a1.2,1.2,0,0,1-.26,0,.24.24,0,0,1-.14-.09.15.15,0,0,1,0-.11V88.41a.21.21,0,0,1,0-.12.41.41,0,0,1,.12-.09l.23,0h.71l.23,0a.35.35,0,0,1,.11.09.21.21,0,0,1,0,.12v.7a4.28,4.28,0,0,1,1-.82,2.15,2.15,0,0,1,1-.27,2.82,2.82,0,0,1,.68.08,2,2,0,0,1,.53.22,2,2,0,0,1,.41.35,2,2,0,0,1,.28.46,4.92,4.92,0,0,1,.54-.5,3.16,3.16,0,0,1,.52-.35,2.11,2.11,0,0,1,.51-.19,1.81,1.81,0,0,1,.52-.07,2.26,2.26,0,0,1,1,.21,1.73,1.73,0,0,1,.67.55,2.18,2.18,0,0,1,.36.82,4,4,0,0,1,.11,1Z"/><path class="cls-5" d="M129.62,91.27a.67.67,0,0,1-.14.46.5.5,0,0,1-.39.15H125.4a2.6,2.6,0,0,0,.09.71,1.41,1.41,0,0,0,.29.54,1.26,1.26,0,0,0,.52.33,2.13,2.13,0,0,0,.76.12,3.74,3.74,0,0,0,.79-.07,5.75,5.75,0,0,0,.59-.14l.41-.14a.89.89,0,0,1,.27-.07.17.17,0,0,1,.1,0,.19.19,0,0,1,.07.08.66.66,0,0,1,0,.18,2.27,2.27,0,0,1,0,.28V94c0,.08,0,.14,0,.19a.83.83,0,0,1,0,.12.39.39,0,0,1-.08.1.77.77,0,0,1-.24.13,4.27,4.27,0,0,1-.5.16c-.21,0-.44.1-.7.14a7.62,7.62,0,0,1-.85.05,4.39,4.39,0,0,1-1.42-.2,2.57,2.57,0,0,1-1-.62,2.72,2.72,0,0,1-.61-1,5,5,0,0,1-.2-1.48,4.79,4.79,0,0,1,.21-1.47,3,3,0,0,1,.62-1.1,2.61,2.61,0,0,1,1-.69,3.74,3.74,0,0,1,2.61,0,2.38,2.38,0,0,1,.89.62,2.52,2.52,0,0,1,.51.94,4.13,4.13,0,0,1,.16,1.19ZM128,90.78a1.81,1.81,0,0,0-.29-1.13,1.12,1.12,0,0,0-1-.42,1.14,1.14,0,0,0-.57.13,1.16,1.16,0,0,0-.4.33,1.42,1.42,0,0,0-.25.49,2.89,2.89,0,0,0-.09.6Z"/><path class="cls-5" d="M136.83,94.49a.15.15,0,0,1,0,.11.22.22,0,0,1-.13.09,1.31,1.31,0,0,1-.27,0l-.41,0-.42,0a1.33,1.33,0,0,1-.26,0,.28.28,0,0,1-.14-.09.21.21,0,0,1,0-.11V91a3.18,3.18,0,0,0-.06-.7,1.4,1.4,0,0,0-.19-.43.92.92,0,0,0-.31-.28,1.06,1.06,0,0,0-1.12.14,3.52,3.52,0,0,0-.69.7v4a.21.21,0,0,1,0,.11.28.28,0,0,1-.14.09,1.46,1.46,0,0,1-.27,0l-.41,0-.42,0a1.33,1.33,0,0,1-.26,0,.24.24,0,0,1-.14-.09.15.15,0,0,1,0-.11V88.41a.21.21,0,0,1,0-.12.48.48,0,0,1,.13-.09l.22,0h.72l.22,0a.35.35,0,0,1,.11.09.21.21,0,0,1,0,.12v.7a4.16,4.16,0,0,1,1-.82,2.49,2.49,0,0,1,2.13-.06,1.8,1.8,0,0,1,.69.55,2.38,2.38,0,0,1,.38.82,5.2,5.2,0,0,1,.11,1.13Z"/><path class="cls-5" d="M142,93.89a2.69,2.69,0,0,1,0,.46.57.57,0,0,1-.1.22.7.7,0,0,1-.18.12l-.28.09-.35,0a2.42,2.42,0,0,1-.38,0,2.59,2.59,0,0,1-.88-.13,1.46,1.46,0,0,1-.62-.39,1.66,1.66,0,0,1-.37-.68,3.93,3.93,0,0,1-.11-1V89.57H138c-.09,0-.15-.06-.2-.16a1.67,1.67,0,0,1-.07-.54,2.92,2.92,0,0,1,0-.33,1,1,0,0,1,.05-.22s.05-.09.09-.11a.21.21,0,0,1,.12,0h.72V86.82a.19.19,0,0,1,0-.12.22.22,0,0,1,.13-.09.9.9,0,0,1,.27-.06H140a.77.77,0,0,1,.26.06.24.24,0,0,1,.14.09.19.19,0,0,1,0,.12v1.36h1.32a.21.21,0,0,1,.12,0,.24.24,0,0,1,.08.11,1,1,0,0,1,.06.22,3.22,3.22,0,0,1,0,.33,1.43,1.43,0,0,1-.07.54.22.22,0,0,1-.19.16h-1.33v2.85a1.39,1.39,0,0,0,.16.75.61.61,0,0,0,.55.25.9.9,0,0,0,.25,0l.19,0,.15-.06.1,0,.08,0s0,0,.06.1,0,.11,0,.19A2.92,2.92,0,0,1,142,93.89Z"/><path class="cls-5" d="M149.23,91.39a4.8,4.8,0,0,1-.2,1.41,3.16,3.16,0,0,1-.62,1.11,2.79,2.79,0,0,1-1,.71,3.81,3.81,0,0,1-1.46.25,4,4,0,0,1-1.41-.22,2.57,2.57,0,0,1-1-.66,2.67,2.67,0,0,1-.58-1,4.85,4.85,0,0,1-.19-1.43,4.55,4.55,0,0,1,.21-1.42,3,3,0,0,1,.62-1.11,2.87,2.87,0,0,1,1-.71,4,4,0,0,1,1.46-.25,4.07,4.07,0,0,1,1.42.22,2.55,2.55,0,0,1,1,.65A2.79,2.79,0,0,1,149,90,4.88,4.88,0,0,1,149.23,91.39Zm-1.76.06a5.12,5.12,0,0,0-.07-.82,1.85,1.85,0,0,0-.25-.66,1.19,1.19,0,0,0-.45-.44,1.52,1.52,0,0,0-.71-.15,1.41,1.41,0,0,0-.67.14,1.21,1.21,0,0,0-.47.4,2.28,2.28,0,0,0-.28.65,3.72,3.72,0,0,0-.09.86,4.25,4.25,0,0,0,.08.83,2.15,2.15,0,0,0,.24.66,1.16,1.16,0,0,0,.45.43,1.52,1.52,0,0,0,.71.15,1.45,1.45,0,0,0,.68-.14,1.2,1.2,0,0,0,.47-.4,2,2,0,0,0,.27-.64A3.81,3.81,0,0,0,147.47,91.45Z"/><path class="cls-5" d="M159.5,94.49a.21.21,0,0,1,0,.12s-.06.06-.12.09a.57.57,0,0,1-.22,0l-.34,0-.36,0a.67.67,0,0,1-.22,0,.38.38,0,0,1-.12-.09.21.21,0,0,1,0-.12v-.68a3.65,3.65,0,0,1-1,.78,2.29,2.29,0,0,1-1.14.28,2.37,2.37,0,0,1-1.18-.27,2.16,2.16,0,0,1-.78-.72,3.22,3.22,0,0,1-.44-1.07,5.84,5.84,0,0,1-.14-1.28,5.45,5.45,0,0,1,.18-1.46,3.18,3.18,0,0,1,.5-1.1,2.18,2.18,0,0,1,.84-.7,2.45,2.45,0,0,1,1.14-.25,2.05,2.05,0,0,1,.93.21,3.35,3.35,0,0,1,.82.61V85.55a.16.16,0,0,1,0-.12.28.28,0,0,1,.13-.1,1.46,1.46,0,0,1,.27,0,2.43,2.43,0,0,1,.41,0,2.56,2.56,0,0,1,.42,0,1.33,1.33,0,0,1,.26,0,.28.28,0,0,1,.13.1.16.16,0,0,1,0,.12Zm-1.7-4.06a3.63,3.63,0,0,0-.7-.71,1.16,1.16,0,0,0-.71-.25,1,1,0,0,0-.57.17,1.07,1.07,0,0,0-.39.45,2.27,2.27,0,0,0-.22.62,3.26,3.26,0,0,0-.07.7,4.56,4.56,0,0,0,.06.75,2.4,2.4,0,0,0,.2.64,1.18,1.18,0,0,0,.37.45.94.94,0,0,0,.59.17,1,1,0,0,0,.34,0,1.08,1.08,0,0,0,.34-.17,1.59,1.59,0,0,0,.36-.3,5.08,5.08,0,0,0,.4-.46Z"/><path class="cls-5" d="M166.84,91.27a.67.67,0,0,1-.14.46.49.49,0,0,1-.38.15h-3.7a2.6,2.6,0,0,0,.09.71,1.41,1.41,0,0,0,.29.54,1.33,1.33,0,0,0,.52.33,2.13,2.13,0,0,0,.76.12,3.74,3.74,0,0,0,.79-.07,5.18,5.18,0,0,0,.59-.14l.41-.14a.89.89,0,0,1,.27-.07.17.17,0,0,1,.1,0s.05,0,.07.08a.66.66,0,0,1,0,.18,2.27,2.27,0,0,1,0,.28V94c0,.08,0,.14,0,.19a.83.83,0,0,1,0,.12.39.39,0,0,1-.08.1.77.77,0,0,1-.24.13,4.27,4.27,0,0,1-.5.16c-.21,0-.44.1-.7.14a7.62,7.62,0,0,1-.85.05,4.39,4.39,0,0,1-1.42-.2,2.64,2.64,0,0,1-1-.62,2.72,2.72,0,0,1-.61-1,5,5,0,0,1-.2-1.48,4.79,4.79,0,0,1,.21-1.47,3,3,0,0,1,.62-1.1,2.69,2.69,0,0,1,1-.69,3.74,3.74,0,0,1,2.61,0,2.38,2.38,0,0,1,.89.62,2.52,2.52,0,0,1,.51.94,4.13,4.13,0,0,1,.16,1.19Zm-1.66-.49a1.75,1.75,0,0,0-.29-1.13,1.12,1.12,0,0,0-1-.42,1.14,1.14,0,0,0-.57.13,1.16,1.16,0,0,0-.4.33,1.25,1.25,0,0,0-.24.49,2.35,2.35,0,0,0-.1.6Z"/><path class="cls-5" d="M59.92,103.46c0,.16,0,.29,0,.4a1.19,1.19,0,0,1,0,.24.32.32,0,0,1-.07.13.21.21,0,0,1-.12,0l-.12,0-.15-.06-.19-.05-.22,0a.75.75,0,0,0-.29.06,1.69,1.69,0,0,0-.3.18,2,2,0,0,0-.32.33,3.87,3.87,0,0,0-.35.5V109a.28.28,0,0,1,0,.12.37.37,0,0,1-.14.08,1.46,1.46,0,0,1-.27,0l-.41,0-.42,0a1.33,1.33,0,0,1-.26,0,.3.3,0,0,1-.14-.08.19.19,0,0,1,0-.12v-6.08a.27.27,0,0,1,0-.12.32.32,0,0,1,.13-.08,1,1,0,0,1,.22-.06h.72a1,1,0,0,1,.22.06.24.24,0,0,1,.11.08.27.27,0,0,1,0,.12v.76a5.16,5.16,0,0,1,.45-.57,3.07,3.07,0,0,1,.41-.35,1.46,1.46,0,0,1,.38-.18,1.58,1.58,0,0,1,.38,0h.19l.21,0,.19,0a.35.35,0,0,1,.12.07.18.18,0,0,1,0,.07.36.36,0,0,1,0,.11c0,.05,0,.12,0,.22Z"/><path class="cls-5" d="M66.44,105.75a.71.71,0,0,1-.14.47.56.56,0,0,1-.39.14h-3.7a2.6,2.6,0,0,0,.09.71,1.42,1.42,0,0,0,.3.54,1.13,1.13,0,0,0,.51.33,2.16,2.16,0,0,0,.76.12,4.05,4.05,0,0,0,1.38-.21l.41-.14a.83.83,0,0,1,.27-.06.15.15,0,0,1,.1,0,.19.19,0,0,1,.07.08.69.69,0,0,1,0,.18,2.27,2.27,0,0,1,0,.28,2,2,0,0,1,0,.26.9.9,0,0,1,0,.18.34.34,0,0,1,0,.12.36.36,0,0,1-.07.1.77.77,0,0,1-.24.13,2.82,2.82,0,0,1-.51.16c-.2,0-.44.1-.7.14a5.53,5.53,0,0,1-.84.06,4.33,4.33,0,0,1-1.42-.21,2.5,2.5,0,0,1-1-.62,2.6,2.6,0,0,1-.61-1,5.37,5.37,0,0,1,0-2.94,3,3,0,0,1,.61-1.11,2.73,2.73,0,0,1,1-.69,3.71,3.71,0,0,1,2.6,0,2.3,2.3,0,0,1,.89.62,2.6,2.6,0,0,1,.51.94,4.12,4.12,0,0,1,.17,1.19Zm-1.67-.49a1.69,1.69,0,0,0-.29-1.13,1.09,1.09,0,0,0-1-.41,1.26,1.26,0,0,0-.57.12,1.08,1.08,0,0,0-.4.33,1.51,1.51,0,0,0-.25.49,2.35,2.35,0,0,0-.1.6Z"/><path class="cls-5" d="M73.32,103.31a1.24,1.24,0,0,1-.07.49c0,.1-.11.15-.19.15h-.71a1,1,0,0,1,.21.37,1.31,1.31,0,0,1,.07.44,2.32,2.32,0,0,1-.18.94,1.89,1.89,0,0,1-.51.7,2.21,2.21,0,0,1-.79.42,3.44,3.44,0,0,1-1,.15,2,2,0,0,1-.56-.07,1.33,1.33,0,0,1-.41-.17,1.13,1.13,0,0,0-.15.21.67.67,0,0,0-.06.28.39.39,0,0,0,.17.32,1,1,0,0,0,.49.14l1.48,0a4.11,4.11,0,0,1,.92.15,1.9,1.9,0,0,1,.68.35,1.47,1.47,0,0,1,.42.55,1.73,1.73,0,0,1,.15.73,1.93,1.93,0,0,1-.2.85,1.85,1.85,0,0,1-.59.69,2.84,2.84,0,0,1-1,.46,4.85,4.85,0,0,1-1.39.17,6.36,6.36,0,0,1-1.33-.12,2.87,2.87,0,0,1-.9-.34,1.41,1.41,0,0,1-.51-.52,1.34,1.34,0,0,1-.16-.66,1.49,1.49,0,0,1,.06-.43,1.36,1.36,0,0,1,.17-.39,1.59,1.59,0,0,1,.28-.36,2.41,2.41,0,0,1,.37-.33,1.08,1.08,0,0,1-.45-.42,1.11,1.11,0,0,1-.16-.59,1.53,1.53,0,0,1,.18-.74,2.08,2.08,0,0,1,.48-.59,1.73,1.73,0,0,1-.38-.57,2.07,2.07,0,0,1-.15-.84,2.4,2.4,0,0,1,.19-1,2,2,0,0,1,.52-.7,2.16,2.16,0,0,1,.8-.45,3.31,3.31,0,0,1,1-.15,4.93,4.93,0,0,1,.55,0l.49.1h1.92c.08,0,.14,0,.19.15A1.23,1.23,0,0,1,73.32,103.31Zm-1.8,6.29a.54.54,0,0,0-.24-.47,1.28,1.28,0,0,0-.68-.18l-1.22,0a2.44,2.44,0,0,0-.28.25,1.7,1.7,0,0,0-.17.23.6.6,0,0,0-.08.21.75.75,0,0,0,0,.21.56.56,0,0,0,.34.52,2.28,2.28,0,0,0,1,.17,2,2,0,0,0,.65-.08,1.23,1.23,0,0,0,.43-.2.9.9,0,0,0,.24-.29A1,1,0,0,0,71.52,109.6Zm-.4-4.85a1,1,0,0,0-.27-.76,1,1,0,0,0-.77-.27,1,1,0,0,0-.44.08.85.85,0,0,0-.32.23,1,1,0,0,0-.19.34,1.4,1.4,0,0,0-.06.41,1,1,0,0,0,.27.73,1.05,1.05,0,0,0,.76.27,1.25,1.25,0,0,0,.45-.08.94.94,0,0,0,.32-.23,1.06,1.06,0,0,0,.19-.33A1.23,1.23,0,0,0,71.12,104.75Z"/><path class="cls-5" d="M78.36,103.46c0,.16,0,.29,0,.4a1.19,1.19,0,0,1,0,.24.32.32,0,0,1-.07.13.21.21,0,0,1-.12,0l-.12,0-.15-.06-.19-.05-.22,0a.75.75,0,0,0-.29.06,1.69,1.69,0,0,0-.3.18,2.55,2.55,0,0,0-.32.33,3.87,3.87,0,0,0-.35.5V109a.28.28,0,0,1,0,.12.37.37,0,0,1-.14.08,1.46,1.46,0,0,1-.27,0l-.41,0-.42,0a1.33,1.33,0,0,1-.26,0,.3.3,0,0,1-.14-.08.19.19,0,0,1,0-.12v-6.08a.27.27,0,0,1,0-.12.32.32,0,0,1,.13-.08,1,1,0,0,1,.22-.06h.72a.85.85,0,0,1,.22.06.24.24,0,0,1,.11.08.27.27,0,0,1,0,.12v.76a5.16,5.16,0,0,1,.45-.57,3.07,3.07,0,0,1,.41-.35,1.46,1.46,0,0,1,.38-.18,1.58,1.58,0,0,1,.38,0h.19l.21,0,.19,0a.22.22,0,0,1,.12.07.12.12,0,0,1,0,.07.36.36,0,0,1,0,.11c0,.05,0,.12,0,.22Z"/><path class="cls-5" d="M84.87,105.75a.71.71,0,0,1-.13.47.56.56,0,0,1-.39.14h-3.7a2.6,2.6,0,0,0,.09.71,1.3,1.3,0,0,0,.3.54,1.13,1.13,0,0,0,.51.33,2.16,2.16,0,0,0,.76.12,4.05,4.05,0,0,0,1.38-.21l.41-.14a.83.83,0,0,1,.27-.06.15.15,0,0,1,.1,0,.19.19,0,0,1,.07.08.69.69,0,0,1,0,.18c0,.07,0,.17,0,.28a2,2,0,0,1,0,.26.9.9,0,0,1,0,.18.34.34,0,0,1,0,.12.36.36,0,0,1-.07.1.77.77,0,0,1-.24.13,3.1,3.1,0,0,1-.51.16c-.2,0-.44.1-.7.14a5.53,5.53,0,0,1-.84.06,4.33,4.33,0,0,1-1.42-.21,2.5,2.5,0,0,1-1-.62,2.6,2.6,0,0,1-.61-1,5.37,5.37,0,0,1,0-2.94,3,3,0,0,1,.61-1.11,2.64,2.64,0,0,1,1-.69,3.71,3.71,0,0,1,2.6,0,2.3,2.3,0,0,1,.89.62,2.6,2.6,0,0,1,.51.94,4.13,4.13,0,0,1,.16,1.19Zm-1.66-.49a1.69,1.69,0,0,0-.29-1.13,1.09,1.09,0,0,0-1-.41,1.26,1.26,0,0,0-.57.12,1.2,1.2,0,0,0-.41.33,1.72,1.72,0,0,0-.24.49,2.35,2.35,0,0,0-.1.6Z"/><path class="cls-5" d="M90.56,107.25a2,2,0,0,1-.19.91,1.68,1.68,0,0,1-.55.66,2.51,2.51,0,0,1-.84.4,3.86,3.86,0,0,1-1,.14,3.49,3.49,0,0,1-.65-.06,2.78,2.78,0,0,1-.55-.13,2.06,2.06,0,0,1-.41-.16.83.83,0,0,1-.24-.15.51.51,0,0,1-.12-.22,2.52,2.52,0,0,1,0-.46,2.41,2.41,0,0,1,0-.31.69.69,0,0,1,0-.19.2.2,0,0,1,.07-.1.15.15,0,0,1,.1,0,.59.59,0,0,1,.22.08l.36.19a4.23,4.23,0,0,0,.51.19,2.24,2.24,0,0,0,.66.09,1.7,1.7,0,0,0,.41,0,.89.89,0,0,0,.31-.14.56.56,0,0,0,.21-.22.78.78,0,0,0,.06-.31.51.51,0,0,0-.12-.35,1.14,1.14,0,0,0-.34-.26,3,3,0,0,0-.47-.2l-.53-.22a3.36,3.36,0,0,1-.54-.26,1.87,1.87,0,0,1-.47-.37,1.74,1.74,0,0,1-.34-.52,2,2,0,0,1-.12-.74,1.77,1.77,0,0,1,.17-.8,1.73,1.73,0,0,1,.49-.62,2.06,2.06,0,0,1,.78-.4,3.28,3.28,0,0,1,1-.15,5.09,5.09,0,0,1,.56,0,3.09,3.09,0,0,1,.48.11,2,2,0,0,1,.37.13l.22.12a.41.41,0,0,1,.09.1s0,.08,0,.13,0,.1,0,.17a2.1,2.1,0,0,1,0,.27,2.36,2.36,0,0,1,0,.29c0,.08,0,.14,0,.19a.22.22,0,0,1-.07.09.13.13,0,0,1-.09,0,.4.4,0,0,1-.19-.07l-.33-.15a2.37,2.37,0,0,0-.45-.15,2,2,0,0,0-.58-.07,1.59,1.59,0,0,0-.4,0,.74.74,0,0,0-.28.14.54.54,0,0,0-.16.21.54.54,0,0,0-.06.25.57.57,0,0,0,.13.36A1.3,1.3,0,0,0,88,105a3.66,3.66,0,0,0,.48.2l.55.21c.18.08.36.16.54.26a2.19,2.19,0,0,1,.48.37,1.67,1.67,0,0,1,.34.52A1.75,1.75,0,0,1,90.56,107.25Z"/><path class="cls-5" d="M97,109a.21.21,0,0,1-.07.15.68.68,0,0,1-.22.08l-.43,0-.44,0a.48.48,0,0,1-.2-.08.2.2,0,0,1-.06-.15v-.49a2.73,2.73,0,0,1-.85.63,2.5,2.5,0,0,1-1.07.23,3.13,3.13,0,0,1-.89-.13,1.9,1.9,0,0,1-.7-.38,1.64,1.64,0,0,1-.46-.61,2.1,2.1,0,0,1-.16-.86,1.92,1.92,0,0,1,.2-.92,1.75,1.75,0,0,1,.62-.65,3.12,3.12,0,0,1,1-.38,7.45,7.45,0,0,1,1.42-.12h.59v-.37a2.41,2.41,0,0,0,0-.5,1,1,0,0,0-.19-.36.9.9,0,0,0-.36-.21,2.11,2.11,0,0,0-.55-.07,2.91,2.91,0,0,0-.76.1,3.48,3.48,0,0,0-.6.21l-.43.21a.73.73,0,0,1-.28.1.24.24,0,0,1-.14,0,.28.28,0,0,1-.09-.14.64.64,0,0,1-.06-.22,2.3,2.3,0,0,1,0-.28,1.58,1.58,0,0,1,0-.34.71.71,0,0,1,.13-.22,1.35,1.35,0,0,1,.34-.21,3.8,3.8,0,0,1,.56-.23,5.86,5.86,0,0,1,.69-.16,4,4,0,0,1,.78-.07,4.84,4.84,0,0,1,1.23.14,2.25,2.25,0,0,1,.83.43,1.62,1.62,0,0,1,.48.75A3.43,3.43,0,0,1,97,104.9Zm-1.69-2.61h-.65a3.55,3.55,0,0,0-.71.07,1.36,1.36,0,0,0-.47.18.64.64,0,0,0-.27.3.84.84,0,0,0-.09.4.75.75,0,0,0,.24.59,1,1,0,0,0,.67.22,1.29,1.29,0,0,0,.67-.18,2.47,2.47,0,0,0,.61-.54Z"/><path class="cls-5" d="M102.64,103.46c0,.16,0,.29,0,.4s0,.18,0,.24a.32.32,0,0,1-.08.13.18.18,0,0,1-.11,0l-.12,0-.15-.06-.19-.05-.23,0a.71.71,0,0,0-.28.06,1.19,1.19,0,0,0-.3.18,2,2,0,0,0-.32.33,5.1,5.1,0,0,0-.36.5V109a.19.19,0,0,1,0,.12.26.26,0,0,1-.14.08,1.2,1.2,0,0,1-.26,0l-.41,0-.42,0a1.2,1.2,0,0,1-.26,0,.3.3,0,0,1-.14-.08.19.19,0,0,1,0-.12v-6.08a.27.27,0,0,1,0-.12.23.23,0,0,1,.12-.08,1.09,1.09,0,0,1,.23-.06h.71a.94.94,0,0,1,.23.06.31.31,0,0,1,.11.08.27.27,0,0,1,0,.12v.76a5.16,5.16,0,0,1,.45-.57,3.84,3.84,0,0,1,.4-.35,1.85,1.85,0,0,1,.38-.18,1.74,1.74,0,0,1,.39,0H102l.21,0,.19,0a.35.35,0,0,1,.12.07.18.18,0,0,1,0,.07l0,.11a1.09,1.09,0,0,1,0,.22C102.64,103.16,102.64,103.29,102.64,103.46Z"/><path class="cls-5" d="M110.37,109.2l-.73,2.15a.47.47,0,0,1-.34.25,3.17,3.17,0,0,1-.79.07l-.44,0a.67.67,0,0,1-.25-.08.17.17,0,0,1-.08-.14.29.29,0,0,1,0-.19l.81-2a.48.48,0,0,1-.16-.13.42.42,0,0,1-.11-.18l-2.09-5.58a1.14,1.14,0,0,1-.09-.37.28.28,0,0,1,.08-.2.57.57,0,0,1,.28-.09,3.49,3.49,0,0,1,.51,0h.47a.6.6,0,0,1,.26.05.32.32,0,0,1,.15.13,1,1,0,0,1,.09.24l1.43,4.06h0l1.31-4.14a.45.45,0,0,1,.11-.24.34.34,0,0,1,.21-.08,3,3,0,0,1,.52,0,3.28,3.28,0,0,1,.49,0,.52.52,0,0,1,.29.1.24.24,0,0,1,.09.2,1.18,1.18,0,0,1,0,.29Z"/><path class="cls-5" d="M120.52,103.46c0,.16,0,.29,0,.4a1.19,1.19,0,0,1,0,.24.32.32,0,0,1-.07.13.2.2,0,0,1-.11,0l-.13,0-.15-.06-.19-.05-.22,0a.75.75,0,0,0-.29.06,1.35,1.35,0,0,0-.29.18,1.69,1.69,0,0,0-.32.33,3.84,3.84,0,0,0-.36.5V109a.19.19,0,0,1,0,.12.37.37,0,0,1-.14.08l-.26,0-.42,0-.42,0-.26,0a.37.37,0,0,1-.14-.08.28.28,0,0,1,0-.12v-6.08a.19.19,0,0,1,0-.12.23.23,0,0,1,.12-.08.94.94,0,0,1,.23-.06h.71a.85.85,0,0,1,.22.06.24.24,0,0,1,.11.08.19.19,0,0,1,0,.12v.76a5.16,5.16,0,0,1,.45-.57,3,3,0,0,1,.4-.35,1.3,1.3,0,0,1,.76-.23h.19l.21,0a.74.74,0,0,1,.19,0,.22.22,0,0,1,.12.07.13.13,0,0,1,.06.07l0,.11c0,.05,0,.12,0,.22S120.52,103.29,120.52,103.46Z"/><path class="cls-5" d="M127,105.75a.71.71,0,0,1-.14.47.55.55,0,0,1-.39.14h-3.7a2.26,2.26,0,0,0,.1.71,1.41,1.41,0,0,0,.29.54,1.16,1.16,0,0,0,.52.33,2.13,2.13,0,0,0,.76.12,4.62,4.62,0,0,0,.79-.06,5.6,5.6,0,0,0,.59-.15l.41-.14a.84.84,0,0,1,.26-.06.2.2,0,0,1,.11,0,.17.17,0,0,1,.06.08.69.69,0,0,1,0,.18,2.27,2.27,0,0,1,0,.28v.26q0,.11,0,.18a.34.34,0,0,1,0,.12.23.23,0,0,1-.07.1.77.77,0,0,1-.24.13,3,3,0,0,1-.5.16c-.21,0-.44.1-.71.14a5.53,5.53,0,0,1-.84.06,4.38,4.38,0,0,1-1.42-.21,2.5,2.5,0,0,1-1-.62,2.72,2.72,0,0,1-.61-1,5,5,0,0,1-.2-1.48,4.72,4.72,0,0,1,.21-1.46,3.13,3.13,0,0,1,.61-1.11,2.73,2.73,0,0,1,1-.69,3.71,3.71,0,0,1,2.6,0,2.3,2.3,0,0,1,.89.62,2.45,2.45,0,0,1,.51.94,4.12,4.12,0,0,1,.17,1.19Zm-1.66-.49a1.81,1.81,0,0,0-.29-1.13,1.12,1.12,0,0,0-1-.41,1.26,1.26,0,0,0-.57.12,1.08,1.08,0,0,0-.4.33,1.51,1.51,0,0,0-.25.49,2.89,2.89,0,0,0-.1.6Z"/><path class="cls-5" d="M134.56,105.84a5.45,5.45,0,0,1-.18,1.46,3.07,3.07,0,0,1-.51,1.11,2.24,2.24,0,0,1-.83.7,2.57,2.57,0,0,1-1.13.25,1.88,1.88,0,0,1-.49-.06,1.69,1.69,0,0,1-.43-.15,2.07,2.07,0,0,1-.41-.27,3.36,3.36,0,0,1-.42-.36v2.86a.21.21,0,0,1,0,.12.21.21,0,0,1-.14.09.77.77,0,0,1-.26.06l-.41,0-.42,0a.77.77,0,0,1-.26-.06.24.24,0,0,1-.14-.09.19.19,0,0,1,0-.12v-8.49a.27.27,0,0,1,0-.12.23.23,0,0,1,.12-.08.94.94,0,0,1,.23-.06h.69a1.09,1.09,0,0,1,.23.06.36.36,0,0,1,.12.08.27.27,0,0,1,0,.12v.72a4.47,4.47,0,0,1,.52-.48,2.79,2.79,0,0,1,.52-.35,2.83,2.83,0,0,1,.55-.21,2.9,2.9,0,0,1,.6-.07,2.34,2.34,0,0,1,1.14.26,2.31,2.31,0,0,1,.77.72,3.43,3.43,0,0,1,.43,1.07A5.86,5.86,0,0,1,134.56,105.84Zm-1.79.12a4.44,4.44,0,0,0-.06-.74,2.4,2.4,0,0,0-.19-.64,1.38,1.38,0,0,0-.37-.45,1,1,0,0,0-.57-.16,1,1,0,0,0-.34,0,1.48,1.48,0,0,0-.34.16,3,3,0,0,0-.36.3,4.91,4.91,0,0,0-.38.46v2a3.9,3.9,0,0,0,.68.71,1.17,1.17,0,0,0,.68.25.94.94,0,0,0,.57-.17,1.31,1.31,0,0,0,.39-.45,2.27,2.27,0,0,0,.22-.62A3.33,3.33,0,0,0,132.77,106Z"/><path class="cls-5" d="M141.1,109a.18.18,0,0,1-.07.15.54.54,0,0,1-.21.08l-.43,0-.45,0a.55.55,0,0,1-.2-.08.2.2,0,0,1-.06-.15v-.49a2.73,2.73,0,0,1-.85.63,2.5,2.5,0,0,1-1.07.23,3.19,3.19,0,0,1-.89-.13,1.9,1.9,0,0,1-.7-.38,1.76,1.76,0,0,1-.46-.61,2.1,2.1,0,0,1-.16-.86,1.92,1.92,0,0,1,.21-.92,1.68,1.68,0,0,1,.62-.65,3,3,0,0,1,1-.38,7.56,7.56,0,0,1,1.43-.12h.59v-.37a1.85,1.85,0,0,0-.06-.5.89.89,0,0,0-.19-.36.93.93,0,0,0-.35-.21,2.11,2.11,0,0,0-.55-.07,3,3,0,0,0-.77.1,3.67,3.67,0,0,0-.59.21l-.44.21a.68.68,0,0,1-.28.1.21.21,0,0,1-.13,0,.39.39,0,0,1-.1-.14,2.18,2.18,0,0,1-.06-.22,2.3,2.3,0,0,1,0-.28,1.51,1.51,0,0,1,0-.34.46.46,0,0,1,.13-.22,1.1,1.1,0,0,1,.33-.21,4.32,4.32,0,0,1,.56-.23,6,6,0,0,1,.7-.16,4,4,0,0,1,.78-.07,4.82,4.82,0,0,1,1.22.14,2.1,2.1,0,0,1,.83.43,1.62,1.62,0,0,1,.48.75,3.43,3.43,0,0,1,.15,1.08Zm-1.68-2.61h-.65a3.47,3.47,0,0,0-.71.07,1.34,1.34,0,0,0-.48.18.77.77,0,0,0-.27.3.84.84,0,0,0-.08.4.75.75,0,0,0,.24.59.93.93,0,0,0,.67.22,1.26,1.26,0,0,0,.66-.18,2.68,2.68,0,0,0,.62-.54Z"/><path class="cls-5" d="M147.09,107.25a2.14,2.14,0,0,1-.19.91,1.77,1.77,0,0,1-.55.66,2.51,2.51,0,0,1-.84.4,3.86,3.86,0,0,1-1,.14,3.42,3.42,0,0,1-.65-.06,2.88,2.88,0,0,1-.56-.13,2,2,0,0,1-.4-.16.83.83,0,0,1-.24-.15.51.51,0,0,1-.12-.22,1.86,1.86,0,0,1,0-.46,2.73,2.73,0,0,1,0-.31,1.49,1.49,0,0,1,0-.19.29.29,0,0,1,.07-.1.16.16,0,0,1,.1,0,.57.57,0,0,1,.23.08,3.78,3.78,0,0,0,.36.19,3.67,3.67,0,0,0,.51.19,2.19,2.19,0,0,0,.66.09,1.7,1.7,0,0,0,.41,0,1,1,0,0,0,.31-.14.47.47,0,0,0,.2-.22.64.64,0,0,0,.07-.31.48.48,0,0,0-.13-.35,1,1,0,0,0-.33-.26,4.15,4.15,0,0,0-.47-.2l-.54-.22a4.43,4.43,0,0,1-.54-.26,2.07,2.07,0,0,1-.47-.37,1.71,1.71,0,0,1-.33-.52,2,2,0,0,1-.13-.74,1.91,1.91,0,0,1,.17-.8,1.76,1.76,0,0,1,.5-.62,2.09,2.09,0,0,1,.77-.4,3.39,3.39,0,0,1,1-.15,4.91,4.91,0,0,1,.55,0,3.22,3.22,0,0,1,.49.11,2.25,2.25,0,0,1,.37.13l.21.12a.27.27,0,0,1,.09.1.5.5,0,0,1,0,.13s0,.1,0,.17,0,.16,0,.27,0,.22,0,.29a.78.78,0,0,1,0,.19.15.15,0,0,1-.06.09.16.16,0,0,1-.1,0,.44.44,0,0,1-.19-.07,3.39,3.39,0,0,0-.32-.15,2.37,2.37,0,0,0-.45-.15,2,2,0,0,0-.58-.07,1.54,1.54,0,0,0-.4,0,.67.67,0,0,0-.28.14.56.56,0,0,0-.17.21.7.7,0,0,0-.05.25.52.52,0,0,0,.13.36,1.15,1.15,0,0,0,.34.25,3.66,3.66,0,0,0,.48.2l.54.21a5.52,5.52,0,0,1,.55.26,2.19,2.19,0,0,1,.48.37,1.87,1.87,0,0,1,.34.52A1.75,1.75,0,0,1,147.09,107.25Z"/><path class="cls-5" d="M153.55,109a.2.2,0,0,1-.06.15.68.68,0,0,1-.22.08l-.43,0-.45,0a.43.43,0,0,1-.19-.08.2.2,0,0,1-.06-.15v-.49a2.77,2.77,0,0,1-.86.63,2.46,2.46,0,0,1-1.06.23,3.08,3.08,0,0,1-.89-.13,1.94,1.94,0,0,1-.71-.38,1.62,1.62,0,0,1-.45-.61,2.09,2.09,0,0,1-.17-.86,1.92,1.92,0,0,1,.21-.92,1.68,1.68,0,0,1,.62-.65,3,3,0,0,1,1-.38,7.38,7.38,0,0,1,1.42-.12h.59v-.37a1.85,1.85,0,0,0-.06-.5.89.89,0,0,0-.19-.36.86.86,0,0,0-.35-.21,2.11,2.11,0,0,0-.55-.07,3,3,0,0,0-.77.1,3.67,3.67,0,0,0-.59.21l-.44.21a.68.68,0,0,1-.28.1.21.21,0,0,1-.13,0,.39.39,0,0,1-.1-.14,1,1,0,0,1,0-.22,1.23,1.23,0,0,1,0-.28,1.58,1.58,0,0,1,0-.34.56.56,0,0,1,.13-.22,1.1,1.1,0,0,1,.33-.21,4.32,4.32,0,0,1,.56-.23,6.56,6.56,0,0,1,.7-.16,4,4,0,0,1,.78-.07,4.76,4.76,0,0,1,1.22.14,2.22,2.22,0,0,1,.84.43,1.61,1.61,0,0,1,.47.75,3.43,3.43,0,0,1,.15,1.08Zm-1.68-2.61h-.65a3.47,3.47,0,0,0-.71.07,1.34,1.34,0,0,0-.48.18.77.77,0,0,0-.27.3,1,1,0,0,0-.08.4.75.75,0,0,0,.24.59.93.93,0,0,0,.67.22,1.26,1.26,0,0,0,.66-.18,2.49,2.49,0,0,0,.62-.54Z"/><path class="cls-5" d="M159.17,103.46c0,.16,0,.29,0,.4a1.19,1.19,0,0,1,0,.24.32.32,0,0,1-.07.13.2.2,0,0,1-.11,0l-.12,0-.16-.06-.19-.05-.22,0a.75.75,0,0,0-.29.06,1.35,1.35,0,0,0-.29.18,2,2,0,0,0-.32.33,5.1,5.1,0,0,0-.36.5V109a.19.19,0,0,1,0,.12.3.3,0,0,1-.14.08,1.33,1.33,0,0,1-.26,0l-.42,0-.41,0a1.46,1.46,0,0,1-.27,0,.37.37,0,0,1-.14-.08.28.28,0,0,1,0-.12v-6.08a.19.19,0,0,1,0-.12.23.23,0,0,1,.12-.08,1.09,1.09,0,0,1,.23-.06h.71a.75.75,0,0,1,.22.06.24.24,0,0,1,.11.08.19.19,0,0,1,0,.12v.76a5.16,5.16,0,0,1,.45-.57,3,3,0,0,1,.4-.35,1.64,1.64,0,0,1,.38-.18,1.73,1.73,0,0,1,.38,0h.19l.21,0,.2,0a.23.23,0,0,1,.11.07.13.13,0,0,1,.06.07l0,.11a1.09,1.09,0,0,1,0,.22C159.16,103.16,159.17,103.29,159.17,103.46Z"/><path class="cls-5" d="M167.65,107.25a2,2,0,0,1-.19.91,1.68,1.68,0,0,1-.55.66,2.34,2.34,0,0,1-.84.4,3.84,3.84,0,0,1-1,.14,3.52,3.52,0,0,1-.66-.06,2.78,2.78,0,0,1-.55-.13,2.34,2.34,0,0,1-.41-.16.83.83,0,0,1-.24-.15.42.42,0,0,1-.11-.22,1.86,1.86,0,0,1,0-.46,2.73,2.73,0,0,1,0-.31.69.69,0,0,1,0-.19.2.2,0,0,1,.07-.1.16.16,0,0,1,.1,0,.59.59,0,0,1,.22.08l.37.19a3.51,3.51,0,0,0,.5.19,2.29,2.29,0,0,0,.66.09,1.64,1.64,0,0,0,.41,0,1,1,0,0,0,.32-.14.53.53,0,0,0,.2-.22.78.78,0,0,0,.07-.31.52.52,0,0,0-.13-.35,1.09,1.09,0,0,0-.33-.26,4.15,4.15,0,0,0-.47-.2l-.54-.22a3.36,3.36,0,0,1-.54-.26,1.87,1.87,0,0,1-.47-.37,1.54,1.54,0,0,1-.33-.52,1.85,1.85,0,0,1-.13-.74,1.91,1.91,0,0,1,.17-.8,1.73,1.73,0,0,1,.49-.62,2.06,2.06,0,0,1,.78-.4,3.33,3.33,0,0,1,1-.15,5.09,5.09,0,0,1,.56,0,2.84,2.84,0,0,1,.48.11,2,2,0,0,1,.37.13l.22.12a.41.41,0,0,1,.09.1.5.5,0,0,1,0,.13.72.72,0,0,1,0,.17,2.1,2.1,0,0,1,0,.27,2.36,2.36,0,0,1,0,.29.5.5,0,0,1,0,.19.22.22,0,0,1-.07.09s0,0-.09,0a.4.4,0,0,1-.19-.07l-.32-.15a2.37,2.37,0,0,0-.45-.15,2.12,2.12,0,0,0-.59-.07,1.64,1.64,0,0,0-.4,0,.74.74,0,0,0-.28.14.54.54,0,0,0-.16.21.54.54,0,0,0-.06.25.57.57,0,0,0,.13.36,1.3,1.3,0,0,0,.34.25c.15.07.31.14.48.2l.55.21a5.36,5.36,0,0,1,.54.26,2.19,2.19,0,0,1,.48.37,1.9,1.9,0,0,1,.35.52A1.94,1.94,0,0,1,167.65,107.25Z"/><path class="cls-5" d="M170.79,100.83a1,1,0,0,1-.21.72,1.19,1.19,0,0,1-.79.2,1.23,1.23,0,0,1-.78-.19,1.31,1.31,0,0,1,0-1.41,1.66,1.66,0,0,1,1.56,0A.92.92,0,0,1,170.79,100.83Zm-.13,8.14a.19.19,0,0,1,0,.12.37.37,0,0,1-.14.08l-.26,0-.42,0-.42,0-.26,0a.37.37,0,0,1-.14-.08.28.28,0,0,1,0-.12V102.9a.28.28,0,0,1,0-.12.37.37,0,0,1,.14-.08.91.91,0,0,1,.26-.06l.42,0,.42,0a.91.91,0,0,1,.26.06.37.37,0,0,1,.14.08.19.19,0,0,1,0,.12Z"/><path class="cls-5" d="M79.28,123.45a.28.28,0,0,1,0,.12.37.37,0,0,1-.14.08.93.93,0,0,1-.27,0,2.37,2.37,0,0,1-.41,0,2.56,2.56,0,0,1-.42,0,.92.92,0,0,1-.26,0,.37.37,0,0,1-.14-.08.19.19,0,0,1,0-.12v-9a.17.17,0,0,1,0-.12.28.28,0,0,1,.14-.09.91.91,0,0,1,.26-.06,2.56,2.56,0,0,1,.42,0,2.37,2.37,0,0,1,.41,0,.9.9,0,0,1,.27.06.28.28,0,0,1,.14.09.25.25,0,0,1,0,.12Z"/><path class="cls-5" d="M87.13,120.35a4.87,4.87,0,0,1-.2,1.42,3.21,3.21,0,0,1-.62,1.1,2.72,2.72,0,0,1-1,.71,3.9,3.9,0,0,1-1.47.26,4,4,0,0,1-1.41-.23,2.55,2.55,0,0,1-1-.65,2.68,2.68,0,0,1-.59-1.06,4.81,4.81,0,0,1-.19-1.43,4.55,4.55,0,0,1,.21-1.42,2.89,2.89,0,0,1,.62-1.1,2.64,2.64,0,0,1,1-.71A3.84,3.84,0,0,1,84,117a4,4,0,0,1,1.42.23,2.35,2.35,0,0,1,1,.65,2.67,2.67,0,0,1,.58,1A4.88,4.88,0,0,1,87.13,120.35Zm-1.76.07a5.25,5.25,0,0,0-.07-.83,1.93,1.93,0,0,0-.25-.66,1.16,1.16,0,0,0-.45-.43,1.38,1.38,0,0,0-.71-.16,1.57,1.57,0,0,0-.67.14,1.16,1.16,0,0,0-.47.41,2,2,0,0,0-.27.64,3.3,3.3,0,0,0-.1.87,4.15,4.15,0,0,0,.08.82,2,2,0,0,0,.24.66,1.1,1.1,0,0,0,.45.43,1.41,1.41,0,0,0,.71.16,1.59,1.59,0,0,0,.68-.14,1.32,1.32,0,0,0,.47-.41,1.87,1.87,0,0,0,.27-.64A3.72,3.72,0,0,0,85.37,120.42Z"/><path class="cls-5" d="M95.55,117.94c0,.16,0,.3,0,.4a1.07,1.07,0,0,1,0,.24.32.32,0,0,1-.07.13.2.2,0,0,1-.11,0l-.13,0-.15,0-.19,0a.73.73,0,0,0-.22,0,.75.75,0,0,0-.29.06,1.35,1.35,0,0,0-.29.18,1.69,1.69,0,0,0-.32.33,5.1,5.1,0,0,0-.36.5v3.79a.19.19,0,0,1,0,.12.37.37,0,0,1-.14.08.86.86,0,0,1-.26,0,4.42,4.42,0,0,1-.84,0,.92.92,0,0,1-.26,0,.37.37,0,0,1-.14-.08.28.28,0,0,1,0-.12v-6.08a.19.19,0,0,1,0-.12.23.23,0,0,1,.12-.08,1,1,0,0,1,.23,0l.35,0,.36,0a.9.9,0,0,1,.22,0,.24.24,0,0,1,.11.08.19.19,0,0,1,0,.12v.76a4.19,4.19,0,0,1,.45-.56,2,2,0,0,1,.4-.35,1.35,1.35,0,0,1,.38-.19,1.65,1.65,0,0,1,.38,0h.19l.21,0a.74.74,0,0,1,.19,0,.22.22,0,0,1,.12.07.13.13,0,0,1,.06.07l0,.11s0,.12,0,.22S95.55,117.77,95.55,117.94Z"/><path class="cls-5" d="M102.06,120.23a.69.69,0,0,1-.14.47.51.51,0,0,1-.39.15h-3.7a2.52,2.52,0,0,0,.1.7,1.41,1.41,0,0,0,.29.54,1.27,1.27,0,0,0,.52.34,2.39,2.39,0,0,0,.76.11,4.62,4.62,0,0,0,.79-.06,5.6,5.6,0,0,0,.59-.15l.41-.14a.84.84,0,0,1,.26-.06.2.2,0,0,1,.11,0,.16.16,0,0,1,.06.09.53.53,0,0,1,0,.17,2.27,2.27,0,0,1,0,.28V123q0,.1,0,.18a.21.21,0,0,1,0,.12.23.23,0,0,1-.07.1.77.77,0,0,1-.24.13,3,3,0,0,1-.5.16c-.21,0-.44.1-.71.14a5.53,5.53,0,0,1-.84.06,4.38,4.38,0,0,1-1.42-.21,2.4,2.4,0,0,1-1-.62,2.58,2.58,0,0,1-.61-1.05,5,5,0,0,1-.2-1.48A4.72,4.72,0,0,1,96.3,119a3.22,3.22,0,0,1,.61-1.11,2.73,2.73,0,0,1,1-.69,3.71,3.71,0,0,1,2.6,0,2.33,2.33,0,0,1,.89.62,2.3,2.3,0,0,1,.51,1,4,4,0,0,1,.17,1.18Zm-1.66-.49a1.81,1.81,0,0,0-.29-1.13,1.12,1.12,0,0,0-1-.41,1.26,1.26,0,0,0-.57.12,1.08,1.08,0,0,0-.4.33,1.51,1.51,0,0,0-.25.49,2.89,2.89,0,0,0-.1.6Z"/><path class="cls-5" d="M109.23,125.86a.17.17,0,0,1,0,.12.24.24,0,0,1-.14.09.76.76,0,0,1-.25.06,4.42,4.42,0,0,1-.84,0,.91.91,0,0,1-.26-.06.22.22,0,0,1-.13-.09.17.17,0,0,1,0-.12V123a4.11,4.11,0,0,1-.48.39,2.83,2.83,0,0,1-.46.28,2.06,2.06,0,0,1-.48.15,2.78,2.78,0,0,1-.52,0,2.22,2.22,0,0,1-1.13-.27,2.15,2.15,0,0,1-.77-.73,3.15,3.15,0,0,1-.43-1.06,6,6,0,0,1-.14-1.29,5.51,5.51,0,0,1,.18-1.46,3.3,3.3,0,0,1,.52-1.1,2.24,2.24,0,0,1,.83-.7,2.66,2.66,0,0,1,1.15-.25,2.63,2.63,0,0,1,.49,0,2.19,2.19,0,0,1,.46.18,2.75,2.75,0,0,1,.48.33,7.26,7.26,0,0,1,.55.49v-.66a.19.19,0,0,1,0-.12.23.23,0,0,1,.12-.08,1,1,0,0,1,.22,0l.36,0,.34,0a.9.9,0,0,1,.22,0,.28.28,0,0,1,.12.08.27.27,0,0,1,0,.12Zm-1.7-6.47a3.64,3.64,0,0,0-.71-.71,1.2,1.2,0,0,0-.7-.25,1,1,0,0,0-.58.17,1.23,1.23,0,0,0-.39.45,2.26,2.26,0,0,0-.21.62,3.35,3.35,0,0,0-.07.71,4.52,4.52,0,0,0,.06.74,2.15,2.15,0,0,0,.2.65,1.24,1.24,0,0,0,.37.45,1,1,0,0,0,.58.17,1,1,0,0,0,.35-.06,1.48,1.48,0,0,0,.34-.16,3,3,0,0,0,.36-.31,5.28,5.28,0,0,0,.4-.46Z"/><path class="cls-5" d="M116.72,123.45a.19.19,0,0,1,0,.12.23.23,0,0,1-.12.08.6.6,0,0,1-.22,0,1.78,1.78,0,0,1-.35,0,2,2,0,0,1-.37,0,.65.65,0,0,1-.22,0,.24.24,0,0,1-.11-.08.19.19,0,0,1,0-.12v-.7a3.86,3.86,0,0,1-1,.81,2.23,2.23,0,0,1-1.08.28,2.34,2.34,0,0,1-1.05-.21,1.66,1.66,0,0,1-.69-.56,2.21,2.21,0,0,1-.38-.82,5.37,5.37,0,0,1-.11-1.16v-3.72a.19.19,0,0,1,0-.12.26.26,0,0,1,.13-.08,1.46,1.46,0,0,1,.27,0l.41,0,.42,0a1.33,1.33,0,0,1,.26,0,.3.3,0,0,1,.14.08.19.19,0,0,1,0,.12v3.44a3.26,3.26,0,0,0,.06.72,1.18,1.18,0,0,0,.19.44.87.87,0,0,0,.32.28,1.06,1.06,0,0,0,.45.09,1.1,1.1,0,0,0,.66-.23,3.83,3.83,0,0,0,.7-.7v-4a.28.28,0,0,1,0-.12.3.3,0,0,1,.14-.08,1.2,1.2,0,0,1,.26,0l.42,0,.41,0a1.2,1.2,0,0,1,.26,0,.37.37,0,0,1,.14.08.28.28,0,0,1,0,.12Z"/><path class="cls-5" d="M120.29,115.32a1,1,0,0,1-.21.71,1.19,1.19,0,0,1-.79.2,1.23,1.23,0,0,1-.78-.19,1.31,1.31,0,0,1,0-1.41,1.17,1.17,0,0,1,.79-.2,1.12,1.12,0,0,1,.77.19A.93.93,0,0,1,120.29,115.32Zm-.13,8.13a.28.28,0,0,1,0,.12.37.37,0,0,1-.14.08.93.93,0,0,1-.27,0,2.37,2.37,0,0,1-.41,0,2.56,2.56,0,0,1-.42,0,.92.92,0,0,1-.26,0,.37.37,0,0,1-.14-.08.19.19,0,0,1,0-.12v-6.06a.16.16,0,0,1,0-.12.28.28,0,0,1,.14-.09.91.91,0,0,1,.26-.06l.42,0,.41,0a.9.9,0,0,1,.27.06.28.28,0,0,1,.14.09.21.21,0,0,1,0,.12Z"/><path class="cls-5" d="M127.48,120.23a.69.69,0,0,1-.14.47.49.49,0,0,1-.38.15h-3.7a2.53,2.53,0,0,0,.09.7,1.41,1.41,0,0,0,.29.54,1.35,1.35,0,0,0,.52.34,2.39,2.39,0,0,0,.76.11,4.62,4.62,0,0,0,.79-.06,5,5,0,0,0,.59-.15l.41-.14a.83.83,0,0,1,.27-.06.16.16,0,0,1,.1,0,.17.17,0,0,1,.07.09.58.58,0,0,1,0,.17,2,2,0,0,1,0,.28c0,.1,0,.19,0,.26s0,.13,0,.18a.83.83,0,0,1,0,.12.86.86,0,0,1-.07.1.74.74,0,0,1-.25.13,3,3,0,0,1-.5.16c-.2,0-.44.1-.7.14a5.77,5.77,0,0,1-.85.06,4.38,4.38,0,0,1-1.42-.21,2.53,2.53,0,0,1-1-.62,2.58,2.58,0,0,1-.61-1.05,5,5,0,0,1-.2-1.48,4.72,4.72,0,0,1,.21-1.46,3.23,3.23,0,0,1,.62-1.11,2.64,2.64,0,0,1,1-.69,3.3,3.3,0,0,1,1.29-.24,3.41,3.41,0,0,1,1.31.23,2.5,2.5,0,0,1,.89.62,2.56,2.56,0,0,1,.51,1,4,4,0,0,1,.16,1.18Zm-1.66-.49a1.75,1.75,0,0,0-.29-1.13,1.12,1.12,0,0,0-1-.41,1.26,1.26,0,0,0-.57.12,1.16,1.16,0,0,0-.4.33,1.32,1.32,0,0,0-.24.49,2.35,2.35,0,0,0-.1.6Z"/><path class="cls-5" d="M132.79,117.94c0,.16,0,.3,0,.4a1.07,1.07,0,0,1,0,.24.32.32,0,0,1-.07.13.2.2,0,0,1-.11,0l-.13,0-.15,0-.19,0a.73.73,0,0,0-.22,0,.75.75,0,0,0-.29.06,1.35,1.35,0,0,0-.29.18,1.69,1.69,0,0,0-.32.33,3.84,3.84,0,0,0-.36.5v3.79a.28.28,0,0,1,0,.12.37.37,0,0,1-.14.08.93.93,0,0,1-.27,0,2.37,2.37,0,0,1-.41,0,2.56,2.56,0,0,1-.42,0,.92.92,0,0,1-.26,0,.37.37,0,0,1-.14-.08.28.28,0,0,1,0-.12v-6.08a.19.19,0,0,1,0-.12.23.23,0,0,1,.12-.08,1,1,0,0,1,.23,0l.35,0,.36,0a.9.9,0,0,1,.22,0,.24.24,0,0,1,.11.08.28.28,0,0,1,0,.12v.76a3,3,0,0,1,.45-.56,2,2,0,0,1,.4-.35,1.23,1.23,0,0,1,.38-.19,1.65,1.65,0,0,1,.38,0h.19l.21,0a.74.74,0,0,1,.19,0,.22.22,0,0,1,.12.07.13.13,0,0,1,.06.07l0,.11s0,.12,0,.22Z"/><path class="cls-5" d="M139.31,120.23a.69.69,0,0,1-.14.47.51.51,0,0,1-.39.15h-3.7a2.53,2.53,0,0,0,.09.7,1.42,1.42,0,0,0,.3.54,1.21,1.21,0,0,0,.52.34,2.37,2.37,0,0,0,.75.11,4.05,4.05,0,0,0,1.38-.21l.42-.14a.78.78,0,0,1,.26-.06.15.15,0,0,1,.1,0,.17.17,0,0,1,.07.09.53.53,0,0,1,0,.17,2.27,2.27,0,0,1,0,.28,2,2,0,0,1,0,.26.9.9,0,0,1,0,.18.34.34,0,0,1,0,.12.36.36,0,0,1-.07.1.77.77,0,0,1-.24.13,2.82,2.82,0,0,1-.51.16c-.2,0-.43.1-.7.14a5.53,5.53,0,0,1-.84.06,4.33,4.33,0,0,1-1.42-.21,2.4,2.4,0,0,1-1-.62,2.47,2.47,0,0,1-.61-1.05,5,5,0,0,1-.2-1.48,4.72,4.72,0,0,1,.21-1.46,3.22,3.22,0,0,1,.61-1.11,2.73,2.73,0,0,1,1-.69,3.71,3.71,0,0,1,2.6,0,2.41,2.41,0,0,1,.89.62,2.56,2.56,0,0,1,.51,1,4,4,0,0,1,.17,1.18Zm-1.67-.49a1.69,1.69,0,0,0-.29-1.13,1.09,1.09,0,0,0-.95-.41,1.26,1.26,0,0,0-.57.12,1.08,1.08,0,0,0-.4.33,1.51,1.51,0,0,0-.25.49,2.35,2.35,0,0,0-.1.6Z"/><path class="cls-5" d="M145,121.73a2,2,0,0,1-.19.91,1.79,1.79,0,0,1-.55.67,2.51,2.51,0,0,1-.84.39,3.84,3.84,0,0,1-1,.14,4.65,4.65,0,0,1-.66,0,5.61,5.61,0,0,1-.55-.13l-.41-.16a1.09,1.09,0,0,1-.24-.16.38.38,0,0,1-.11-.22,1.81,1.81,0,0,1,0-.46,2.73,2.73,0,0,1,0-.31.78.78,0,0,1,0-.19.2.2,0,0,1,.07-.1l.1,0a.59.59,0,0,1,.22.08l.37.19a3.51,3.51,0,0,0,.5.19,2.29,2.29,0,0,0,.66.09,1.64,1.64,0,0,0,.41,0,1,1,0,0,0,.32-.13.63.63,0,0,0,.2-.23.75.75,0,0,0,.06-.31.51.51,0,0,0-.12-.35,1.09,1.09,0,0,0-.33-.26,4.15,4.15,0,0,0-.47-.2l-.54-.21a4.53,4.53,0,0,1-.54-.27,1.87,1.87,0,0,1-.47-.37,1.54,1.54,0,0,1-.33-.52,1.85,1.85,0,0,1-.13-.74,1.94,1.94,0,0,1,.17-.8,1.73,1.73,0,0,1,.49-.62,2.21,2.21,0,0,1,.78-.4,3.33,3.33,0,0,1,1-.15,5.09,5.09,0,0,1,.56,0,4.32,4.32,0,0,1,.48.11,2,2,0,0,1,.37.13l.22.12.09.1a.5.5,0,0,1,0,.13.72.72,0,0,1,0,.17,2.1,2.1,0,0,1,0,.27,2.63,2.63,0,0,1,0,.3.48.48,0,0,1,0,.18s0,.08-.07.09a.12.12,0,0,1-.09,0,.45.45,0,0,1-.19-.08l-.32-.15-.45-.15a2.12,2.12,0,0,0-.59-.07,1.64,1.64,0,0,0-.4,0,.92.92,0,0,0-.28.14.54.54,0,0,0-.16.21.54.54,0,0,0-.06.25.57.57,0,0,0,.13.36,1.3,1.3,0,0,0,.34.25c.15.07.31.14.48.2l.55.21a5.36,5.36,0,0,1,.54.26,2.19,2.19,0,0,1,.48.37,1.9,1.9,0,0,1,.35.52A2,2,0,0,1,145,121.73Z"/><path class="cls-5" d="M148.91,122.79a2.17,2.17,0,0,1,0,.47.66.66,0,0,1-.16.3.55.55,0,0,1-.3.17,1.89,1.89,0,0,1-.46,0,2,2,0,0,1-.47,0,.56.56,0,0,1-.29-.17.66.66,0,0,1-.16-.3,2.17,2.17,0,0,1,0-.47,2.21,2.21,0,0,1,0-.48.74.74,0,0,1,.16-.32.64.64,0,0,1,.29-.17,2,2,0,0,1,.47,0,1.89,1.89,0,0,1,.46,0,.62.62,0,0,1,.3.17.74.74,0,0,1,.16.32A2.21,2.21,0,0,1,148.91,122.79Zm-.21-2a.21.21,0,0,1,0,.12.25.25,0,0,1-.12.1,1,1,0,0,1-.23,0,3.25,3.25,0,0,1-.72,0,1,1,0,0,1-.23,0,.31.31,0,0,1-.12-.1.34.34,0,0,1,0-.12l-.18-6.18a.3.3,0,0,1,0-.16.23.23,0,0,1,.14-.11,1.37,1.37,0,0,1,.29-.07l.45,0a2.81,2.81,0,0,1,.45,0,.9.9,0,0,1,.28.06.37.37,0,0,1,.15.11.3.3,0,0,1,0,.16Z"/><path d="M178,20a1.22,1.22,0,0,1-.69-1.59l6.34-14a1.23,1.23,0,1,1,2.29.91l-6.34,14A1.23,1.23,0,0,1,178,20Z"/><path d="M187.26,26.2a1.37,1.37,0,0,1-.42-.27,1.23,1.23,0,0,1,0-1.74l10.58-10.61a1.23,1.23,0,1,1,1.74,1.74L188.58,25.93A1.21,1.21,0,0,1,187.26,26.2Z"/><path d="M194.49,35.52a1.19,1.19,0,0,1-.68-.66,1.23,1.23,0,0,1,.64-1.61l12.41-5.65a1.23,1.23,0,0,1,1,2.26L195.43,35.5A1.18,1.18,0,0,1,194.49,35.52Z"/><path d="M196.83,46.71a1.24,1.24,0,0,1,.44-2.38l13.56-.22a1.23,1.23,0,1,1,0,2.46l-13.56.22A1.5,1.5,0,0,1,196.83,46.71Z"/><circle cx="201.28" cy="11.61" r="1.35"/><circle cx="214.93" cy="45.03" r="1.35"/><circle cx="204.59" cy="7.76" r="1.01"/></svg>