<svg xmlns="http://www.w3.org/2000/svg" viewBox="0 0 598.88 111"><defs><style>.cls-1{fill:#eacea2;}.cls-2{fill:#28203a;}.cls-3{fill:#33a0dc;}.cls-4,.cls-5{fill:none;stroke:#9d9d9c;stroke-linecap:round;stroke-miterlimit:10;}.cls-5{stroke-dasharray:0 4.01;}</style></defs><g id="Capa_2" data-name="Capa 2"><g id="Capa_1-2" data-name="Capa 1"><rect class="cls-1" x="0.5" y="0.56" width="37.3" height="110.45"/><path class="cls-2" d="M19,88.77a4.28,4.28,0,0,1-3.07-1A3.58,3.58,0,0,1,14.79,85a3.83,3.83,0,0,1,.52-2,3.38,3.38,0,0,1,1.46-1.34,4.78,4.78,0,0,1,2.11-.46,4.65,4.65,0,0,1,2.14.49,3.27,3.27,0,0,1,1.43,1.37A3.85,3.85,0,0,1,22.94,85a3.74,3.74,0,0,1-.54,2,3.45,3.45,0,0,1-1.46,1.32A4.48,4.48,0,0,1,19,88.77Zm0-1.07a3.16,3.16,0,0,0,2.24-.77,2.66,2.66,0,0,0,0-3.85,3.32,3.32,0,0,0-2.35-.76,4.16,4.16,0,0,0-1.68.32,2.66,2.66,0,0,0-.74,4.26A3.41,3.41,0,0,0,19,87.7Z"/><path class="cls-2" d="M25,80H17.1v-.89h.74a2,2,0,0,1-.65-.7,1.88,1.88,0,0,1-.22-1,2.25,2.25,0,0,1,.38-1.29,2.29,2.29,0,0,1,1.06-.84,3.89,3.89,0,0,1,1.5-.29,3.84,3.84,0,0,1,1.58.32,2.39,2.39,0,0,1,1.07.91,2.34,2.34,0,0,1,.37,1.26,1.8,1.8,0,0,1-.2.87,2.14,2.14,0,0,1-.52.63H25Zm-5-.88a2.45,2.45,0,0,0,1.62-.45,1.35,1.35,0,0,0,.53-1.08,1.38,1.38,0,0,0-.55-1.1,2.55,2.55,0,0,0-1.69-.46,2.52,2.52,0,0,0-1.63.45,1.32,1.32,0,0,0,0,2.16A2.55,2.55,0,0,0,20,79.15Z"/><path class="cls-2" d="M21,70l.12-1a2.41,2.41,0,0,1,1.36.88,2.63,2.63,0,0,1,.48,1.63,2.59,2.59,0,0,1-.77,2,3,3,0,0,1-2.16.73,3.16,3.16,0,0,1-2.23-.74,2.53,2.53,0,0,1-.8-1.92,2.42,2.42,0,0,1,.78-1.87A3.07,3.07,0,0,1,19.94,69h.26v4.25a2.19,2.19,0,0,0,1.44-.53,1.6,1.6,0,0,0,.5-1.19,1.45,1.45,0,0,0-.28-.91A1.89,1.89,0,0,0,21,70Zm-1.56,3.18V70a1.91,1.91,0,0,0-1.08.37,1.44,1.44,0,0,0-.56,1.19,1.55,1.55,0,0,0,.44,1.12A1.79,1.79,0,0,0,19.41,73.18Z"/><path class="cls-2" d="M22.81,67.8H17.1v-.87H18a2.17,2.17,0,0,1-.8-.62,1,1,0,0,1-.2-.62,2,2,0,0,1,.31-1l.9.33a1.41,1.41,0,0,0-.21.71.91.91,0,0,0,.19.57,1.05,1.05,0,0,0,.53.36,3.67,3.67,0,0,0,1.13.16h3Z"/><path class="cls-2" d="M22.1,60.4a3.67,3.67,0,0,1,.65,1,3.11,3.11,0,0,1,.18,1.06A2.12,2.12,0,0,1,22.48,64a1.62,1.62,0,0,1-2.5-.19,2.19,2.19,0,0,1-.32-.69,6.11,6.11,0,0,1-.14-.86,9.47,9.47,0,0,0-.33-1.73h-.26a1.07,1.07,0,0,0-.83.27,1.62,1.62,0,0,0-.33,1.1,1.71,1.71,0,0,0,.24,1,1.42,1.42,0,0,0,.85.48l-.13,1a2.33,2.33,0,0,1-1-.43,1.86,1.86,0,0,1-.58-.85,3.9,3.9,0,0,1-.2-1.3,3.51,3.51,0,0,1,.17-1.18,1.5,1.5,0,0,1,.44-.67,1.35,1.35,0,0,1,.65-.3,4.76,4.76,0,0,1,.9-.05h1.29a14.1,14.1,0,0,0,1.7-.06,2.49,2.49,0,0,0,.69-.25v1A2,2,0,0,1,22.1,60.4Zm-2.16.08a6.83,6.83,0,0,1,.37,1.58,3.51,3.51,0,0,0,.19.85.9.9,0,0,0,.31.38.84.84,0,0,0,.46.13.81.81,0,0,0,.65-.29,1.28,1.28,0,0,0,.26-.86,1.92,1.92,0,0,0-.25-1,1.48,1.48,0,0,0-.67-.64,2.35,2.35,0,0,0-1-.16Z"/><path class="cls-2" d="M20.72,54.29l.12-.95a2.49,2.49,0,0,1,1.54.79,2.34,2.34,0,0,1,.55,1.58,2.43,2.43,0,0,1-.76,1.88A3.07,3.07,0,0,1,20,58.3a4,4,0,0,1-1.62-.3,2.2,2.2,0,0,1-1-.93A2.82,2.82,0,0,1,17,55.7a2.42,2.42,0,0,1,.47-1.52,2.18,2.18,0,0,1,1.34-.75l.14.94a1.53,1.53,0,0,0-.86.47,1.2,1.2,0,0,0-.29.83,1.48,1.48,0,0,0,.52,1.18,2.46,2.46,0,0,0,1.66.46,2.61,2.61,0,0,0,1.67-.44,1.42,1.42,0,0,0,.52-1.15,1.36,1.36,0,0,0-.35-.95A1.7,1.7,0,0,0,20.72,54.29Z"/><path class="cls-2" d="M16,52.5H14.93v-1H16Zm6.77,0H17.1v-1h5.71Z"/><path class="cls-2" d="M20,50.42a2.91,2.91,0,0,1-2.34-.88A2.62,2.62,0,0,1,17,47.75a2.55,2.55,0,0,1,.77-1.92,2.94,2.94,0,0,1,2.13-.75,3.75,3.75,0,0,1,1.73.33,2.35,2.35,0,0,1,1,1,2.82,2.82,0,0,1,.34,1.38,2.58,2.58,0,0,1-.76,1.94A3.1,3.1,0,0,1,20,50.42Zm0-1A2.41,2.41,0,0,0,21.59,49a1.58,1.58,0,0,0,0-2.4,2.47,2.47,0,0,0-1.67-.48,2.35,2.35,0,0,0-1.6.48,1.52,1.52,0,0,0-.55,1.2,1.54,1.54,0,0,0,.54,1.2A2.43,2.43,0,0,0,20,49.43Z"/><path class="cls-2" d="M22.81,44H17.1v-.87h.81A2.08,2.08,0,0,1,17,41.26a2.3,2.3,0,0,1,.19-.95,1.46,1.46,0,0,1,.48-.64,1.67,1.67,0,0,1,.72-.3,5,5,0,0,1,.94-.06h3.51v1H19.34a2.8,2.8,0,0,0-.89.11,1,1,0,0,0-.47.4,1.33,1.33,0,0,0-.17.67,1.57,1.57,0,0,0,.39,1.07,1.93,1.93,0,0,0,1.49.45h3.12Z"/><path class="cls-2" d="M21,33.92l.12-1a2.4,2.4,0,0,1,1.36.87,2.65,2.65,0,0,1,.48,1.63,2.59,2.59,0,0,1-.77,2,3,3,0,0,1-2.16.73,3.16,3.16,0,0,1-2.23-.74,2.5,2.5,0,0,1-.8-1.92,2.42,2.42,0,0,1,.78-1.87,3.07,3.07,0,0,1,2.19-.73h.26v4.25a2.14,2.14,0,0,0,1.44-.53,1.58,1.58,0,0,0,.5-1.19,1.45,1.45,0,0,0-.28-.91A1.89,1.89,0,0,0,21,33.92ZM19.41,37.1V33.91a2,2,0,0,0-1.07.37,1.47,1.47,0,0,0-.56,1.2,1.58,1.58,0,0,0,.44,1.12A1.78,1.78,0,0,0,19.41,37.1Z"/><path class="cls-2" d="M21.1,32.1l-.15-1a1.28,1.28,0,0,0,.88-.45,1.89,1.89,0,0,0,0-2,.8.8,0,0,0-.64-.33.57.57,0,0,0-.51.29,3.79,3.79,0,0,0-.33,1,8.8,8.8,0,0,1-.47,1.47,1.38,1.38,0,0,1-.54.62,1.35,1.35,0,0,1-.76.22,1.56,1.56,0,0,1-1.25-.65,1.89,1.89,0,0,1-.28-.62,2.82,2.82,0,0,1-.12-.83,3.28,3.28,0,0,1,.2-1.18,1.53,1.53,0,0,1,.52-.75,2,2,0,0,1,.88-.33l.13.94a1.07,1.07,0,0,0-.69.37,1.42,1.42,0,0,0-.24.88,1.56,1.56,0,0,0,.22.95.63.63,0,0,0,.51.28.52.52,0,0,0,.34-.12.84.84,0,0,0,.26-.37c0-.09.12-.38.25-.85a13.32,13.32,0,0,1,.44-1.43,1.55,1.55,0,0,1,.51-.64,1.45,1.45,0,0,1,.83-.23,1.68,1.68,0,0,1,.91.28,1.88,1.88,0,0,1,.66.82,2.86,2.86,0,0,1,.23,1.2,2.64,2.64,0,0,1-.46,1.69A2.15,2.15,0,0,1,21.1,32.1Z"/><line class="cls-3" x1="0.5" y1="0.5" x2="598.38" y2="0.5"/><line class="cls-4" x1="0.5" y1="0.5" x2="0.5" y2="0.5"/><line class="cls-5" x1="4.51" y1="0.5" x2="596.38" y2="0.5"/><line class="cls-4" x1="598.38" y1="0.5" x2="598.38" y2="0.5"/></g></g></svg>