<svg xmlns="http://www.w3.org/2000/svg" viewBox="0 0 171.96 77.56"><defs><style>.cls-1{fill:#b2c91f;}.cls-2{fill:#859717;}.cls-3{fill:#28203a;}.cls-4{fill:#fff;}.cls-5{fill:#66a489;}.cls-6{fill:#99c3b1;}.cls-7{fill:#00683b;}</style></defs><g id="Capa_2" data-name="Capa 2"><g id="Capa_1-2" data-name="Capa 1"><rect class="cls-1" width="142.64" height="28.77" rx="14.38"/><path class="cls-2" d="M14.57,41.29V34.85h1.31v6.44Z"/><path class="cls-2" d="M21.35,41.29H20.12V38.91a3.79,3.79,0,0,0-.08-1,.71.71,0,0,0-.26-.35.75.75,0,0,0-.43-.12,1,1,0,0,0-.57.18.84.84,0,0,0-.35.46,3.74,3.74,0,0,0-.1,1.08v2.11H17.1V36.62h1.14v.69a1.87,1.87,0,0,1,1.54-.79,1.82,1.82,0,0,1,.75.14A1.22,1.22,0,0,1,21,37a1.19,1.19,0,0,1,.24.52,3.54,3.54,0,0,1,.07.83Z"/><path class="cls-2" d="M26.88,41.29H25.74V40.6a1.84,1.84,0,0,1-.68.6,1.72,1.72,0,0,1-.78.19,1.77,1.77,0,0,1-1.38-.64,2.67,2.67,0,0,1-.57-1.81,2.6,2.6,0,0,1,.56-1.81,1.81,1.81,0,0,1,1.41-.61,1.72,1.72,0,0,1,1.35.65V34.85h1.23Zm-3.29-2.44a2.22,2.22,0,0,0,.2,1.08.93.93,0,0,0,.84.49.91.91,0,0,0,.72-.36,1.71,1.71,0,0,0,.3-1.09,1.82,1.82,0,0,0-.29-1.16.92.92,0,0,0-.74-.35,1,1,0,0,0-.74.35A1.61,1.61,0,0,0,23.59,38.85Z"/><path class="cls-2" d="M28.1,36V34.85h1.24V36Zm0,5.3V36.62h1.24v4.67Z"/><path class="cls-2" d="M34.67,38l-1.22.22a.86.86,0,0,0-.28-.55.84.84,0,0,0-.56-.18.91.91,0,0,0-.74.32,1.63,1.63,0,0,0-.27,1.06A1.82,1.82,0,0,0,31.88,40a.9.9,0,0,0,.75.35.84.84,0,0,0,.57-.2,1.2,1.2,0,0,0,.32-.69l1.21.21A2.19,2.19,0,0,1,34,41a2.28,2.28,0,0,1-1.44.42,2.12,2.12,0,0,1-1.63-.64,2.95,2.95,0,0,1,0-3.59,2.17,2.17,0,0,1,1.65-.64,2.31,2.31,0,0,1,1.36.36A2.11,2.11,0,0,1,34.67,38Z"/><path class="cls-2" d="M36.53,38.05l-1.12-.21a1.71,1.71,0,0,1,.65-1,2.35,2.35,0,0,1,1.37-.32,3,3,0,0,1,1.23.19,1.24,1.24,0,0,1,.57.5,2.55,2.55,0,0,1,.16,1.1v1.45a4.82,4.82,0,0,0,.06.9,2.5,2.5,0,0,0,.22.63H38.44c0-.08-.07-.2-.12-.37s0-.12,0-.14a2.27,2.27,0,0,1-.68.46,2,2,0,0,1-.77.15A1.57,1.57,0,0,1,35.7,41a1.29,1.29,0,0,1-.42-1,1.27,1.27,0,0,1,.19-.7,1.23,1.23,0,0,1,.53-.48,4.07,4.07,0,0,1,1-.28,6.1,6.1,0,0,0,1.2-.31v-.12a.66.66,0,0,0-.17-.51,1.08,1.08,0,0,0-.67-.15.84.84,0,0,0-.51.13A.9.9,0,0,0,36.53,38.05Zm1.65,1-.75.19a2.17,2.17,0,0,0-.67.21.53.53,0,0,0-.24.44.61.61,0,0,0,.19.45.69.69,0,0,0,.49.18,1.06,1.06,0,0,0,.64-.22.71.71,0,0,0,.29-.4,2.15,2.15,0,0,0,0-.61Z"/><path class="cls-2" d="M44.89,41.29H43.75V40.6a1.84,1.84,0,0,1-.68.6,1.72,1.72,0,0,1-.78.19,1.77,1.77,0,0,1-1.38-.64,3.21,3.21,0,0,1,0-3.62,1.84,1.84,0,0,1,1.41-.61,1.73,1.73,0,0,1,1.36.65V34.85h1.23ZM41.6,38.85a2.22,2.22,0,0,0,.2,1.08.93.93,0,0,0,.84.49.91.91,0,0,0,.72-.36,1.71,1.71,0,0,0,.3-1.09,1.82,1.82,0,0,0-.29-1.16.92.92,0,0,0-.74-.35,1,1,0,0,0-.74.35A1.61,1.61,0,0,0,41.6,38.85Z"/><path class="cls-2" d="M45.82,38.89a2.54,2.54,0,0,1,.31-1.19,2,2,0,0,1,.86-.88,2.56,2.56,0,0,1,1.24-.3,2.33,2.33,0,0,1,2.41,2.42A2.44,2.44,0,0,1,50,40.7a2.33,2.33,0,0,1-1.72.69A2.65,2.65,0,0,1,47,41.1a2,2,0,0,1-.88-.85A2.82,2.82,0,0,1,45.82,38.89Zm1.27.06A1.56,1.56,0,0,0,47.42,40a1.07,1.07,0,0,0,.81.37A1,1,0,0,0,49,40a1.88,1.88,0,0,0,0-2.13,1,1,0,0,0-.81-.37,1.07,1.07,0,0,0-.81.37A1.55,1.55,0,0,0,47.09,39Z"/><path class="cls-2" d="M52.79,41.29H51.56V36.62H52.7v.66a1.87,1.87,0,0,1,.53-.61,1,1,0,0,1,.54-.15,1.51,1.51,0,0,1,.81.23l-.38,1.08a1.09,1.09,0,0,0-.58-.21.65.65,0,0,0-.44.15.94.94,0,0,0-.29.51,7.36,7.36,0,0,0-.1,1.57Z"/><path class="cls-2" d="M60.51,41.29H59.27V36.63a4.12,4.12,0,0,1-1.59.94V36.45a3.85,3.85,0,0,0,1-.6,2.23,2.23,0,0,0,.77-1h1Z"/><path class="cls-2" d="M62.85,37.86V36.62h1.24v1.24Zm0,3.43V40.05h1.24v1.24Z"/><path class="cls-3" d="M14.59,51.29V45.56h4.14v.68H15.35V48h3.17v.67H15.35v2h3.52v.68Z"/><path class="cls-3" d="M18.93,52.9l.13-.6a1.19,1.19,0,0,0,.33.05.35.35,0,0,0,.32-.14,1.41,1.41,0,0,0,.11-.71V47.14h.7v4.37a2,2,0,0,1-.2,1.07.93.93,0,0,1-.84.39A2,2,0,0,1,18.93,52.9Zm.89-6.52v-.82h.7v.82Z"/><path class="cls-3" d="M21.6,51.29V47.14h.63v.58a1.53,1.53,0,0,1,.52-.49,1.47,1.47,0,0,1,.74-.18,1.33,1.33,0,0,1,.75.19,1,1,0,0,1,.42.53,1.49,1.49,0,0,1,1.28-.72,1.26,1.26,0,0,1,.95.34,1.47,1.47,0,0,1,.33,1v2.85h-.7V48.68a1.76,1.76,0,0,0-.07-.61.51.51,0,0,0-.24-.3.75.75,0,0,0-.43-.11.94.94,0,0,0-.72.29,1.24,1.24,0,0,0-.29.93v2.41h-.7v-2.7a1.15,1.15,0,0,0-.18-.7.63.63,0,0,0-.56-.23,1.06,1.06,0,0,0-.55.15.87.87,0,0,0-.36.46,2.45,2.45,0,0,0-.12.87v2.15Z"/><path class="cls-3" d="M28.46,47.94v-.8h.8v.8Zm0,3.35v-.8h.8v.8Z"/><path class="cls-3" d="M36.89,49.28l.75.19a2.6,2.6,0,0,1-.85,1.43,2.43,2.43,0,0,1-1.52.49,2.69,2.69,0,0,1-1.5-.38,2.42,2.42,0,0,1-.89-1.09,4,4,0,0,1-.3-1.54,3.51,3.51,0,0,1,.34-1.56,2.33,2.33,0,0,1,1-1,2.83,2.83,0,0,1,1.38-.35,2.36,2.36,0,0,1,1.45.44,2.3,2.3,0,0,1,.82,1.23l-.75.18a1.76,1.76,0,0,0-.58-.91,1.53,1.53,0,0,0-.95-.29,1.89,1.89,0,0,0-1.11.32,1.68,1.68,0,0,0-.62.85,3.38,3.38,0,0,0-.18,1.1,3.48,3.48,0,0,0,.21,1.27,1.62,1.62,0,0,0,.67.82,1.84,1.84,0,0,0,1,.27,1.63,1.63,0,0,0,1.08-.37A1.93,1.93,0,0,0,36.89,49.28Z"/><path class="cls-3" d="M41.19,50.78a2.87,2.87,0,0,1-.75.47,2.19,2.19,0,0,1-.77.13,1.5,1.5,0,0,1-1.05-.33,1.09,1.09,0,0,1-.37-.86,1,1,0,0,1,.14-.55,1.19,1.19,0,0,1,.36-.41,1.69,1.69,0,0,1,.51-.23,5.34,5.34,0,0,1,.62-.1,7,7,0,0,0,1.26-.24v-.19a.77.77,0,0,0-.2-.6,1.18,1.18,0,0,0-.8-.24,1.27,1.27,0,0,0-.73.17,1,1,0,0,0-.35.62l-.69-.1a1.6,1.6,0,0,1,.31-.71,1.36,1.36,0,0,1,.62-.42,2.7,2.7,0,0,1,.94-.14,2.54,2.54,0,0,1,.86.12,1,1,0,0,1,.49.32,1,1,0,0,1,.22.47,4.27,4.27,0,0,1,0,.65v.94a10.35,10.35,0,0,0,0,1.24,1.58,1.58,0,0,0,.18.5h-.74A1.59,1.59,0,0,1,41.19,50.78Zm0-1.57a5.38,5.38,0,0,1-1.15.26,2.76,2.76,0,0,0-.62.14.56.56,0,0,0-.27.23.57.57,0,0,0-.1.34.59.59,0,0,0,.21.46.89.89,0,0,0,.62.19,1.44,1.44,0,0,0,.73-.18,1.07,1.07,0,0,0,.46-.48,1.65,1.65,0,0,0,.12-.71Z"/><path class="cls-3" d="M42.92,51.29V45.56h.7v5.73Z"/><path class="cls-3" d="M44.72,46.37v-.81h.7v.81Zm0,4.92V47.14h.7v4.15Z"/><path class="cls-3" d="M49.18,51.29v-.53a1.27,1.27,0,0,1-1.16.62,1.64,1.64,0,0,1-.91-.27,1.74,1.74,0,0,1-.64-.77,2.49,2.49,0,0,1-.23-1.12,3.11,3.11,0,0,1,.2-1.13,1.61,1.61,0,0,1,.63-.77,1.63,1.63,0,0,1,.92-.27,1.47,1.47,0,0,1,.67.15,1.62,1.62,0,0,1,.48.42V45.56h.69v5.73ZM47,49.22a1.76,1.76,0,0,0,.34,1.19,1,1,0,0,0,.79.39,1,1,0,0,0,.78-.37,1.72,1.72,0,0,0,.32-1.15A2,2,0,0,0,48.87,48a1,1,0,0,0-.81-.4,1,1,0,0,0-.79.38A1.91,1.91,0,0,0,47,49.22Z"/><path class="cls-3" d="M53.65,50.78a2.87,2.87,0,0,1-.75.47,2.24,2.24,0,0,1-.78.13,1.5,1.5,0,0,1-1-.33,1.09,1.09,0,0,1-.37-.86,1.15,1.15,0,0,1,.14-.55,1.19,1.19,0,0,1,.36-.41,1.69,1.69,0,0,1,.51-.23,6.21,6.21,0,0,1,.62-.1,7,7,0,0,0,1.26-.24v-.19a.74.74,0,0,0-.2-.6,1.16,1.16,0,0,0-.8-.24,1.29,1.29,0,0,0-.73.17,1.08,1.08,0,0,0-.35.62l-.69-.1a1.86,1.86,0,0,1,.31-.71,1.42,1.42,0,0,1,.62-.42,2.73,2.73,0,0,1,.94-.14,2.6,2.6,0,0,1,.87.12,1.13,1.13,0,0,1,.49.32,1.07,1.07,0,0,1,.21.47,3.25,3.25,0,0,1,0,.65v.94a10.35,10.35,0,0,0,0,1.24,1.58,1.58,0,0,0,.18.5h-.73A1.37,1.37,0,0,1,53.65,50.78Zm-.06-1.57a5.38,5.38,0,0,1-1.15.26,2.64,2.64,0,0,0-.61.14.58.58,0,0,0-.28.23.57.57,0,0,0-.1.34.59.59,0,0,0,.21.46.91.91,0,0,0,.63.19,1.43,1.43,0,0,0,.72-.18,1.09,1.09,0,0,0,.47-.48,1.85,1.85,0,0,0,.11-.71Z"/><path class="cls-3" d="M58.08,51.29v-.53a1.27,1.27,0,0,1-1.16.62,1.64,1.64,0,0,1-.91-.27,1.83,1.83,0,0,1-.65-.77,2.63,2.63,0,0,1-.22-1.12,2.92,2.92,0,0,1,.2-1.13,1.65,1.65,0,0,1,.62-.77,1.68,1.68,0,0,1,.93-.27,1.31,1.31,0,0,1,1.14.57V45.56h.7v5.73Zm-2.22-2.07a1.82,1.82,0,0,0,.33,1.19,1,1,0,0,0,.8.39,1,1,0,0,0,.78-.37,1.72,1.72,0,0,0,.32-1.15A1.93,1.93,0,0,0,57.76,48a1,1,0,0,0-.8-.4,1,1,0,0,0-.79.38A1.91,1.91,0,0,0,55.86,49.22Z"/><path class="cls-3" d="M64.75,51.29v-.53a1.27,1.27,0,0,1-1.16.62,1.64,1.64,0,0,1-.91-.27,1.74,1.74,0,0,1-.64-.77,2.49,2.49,0,0,1-.23-1.12,3.11,3.11,0,0,1,.2-1.13,1.61,1.61,0,0,1,.63-.77,1.63,1.63,0,0,1,.92-.27,1.47,1.47,0,0,1,.67.15,1.62,1.62,0,0,1,.48.42V45.56h.69v5.73Zm-2.22-2.07a1.76,1.76,0,0,0,.34,1.19,1,1,0,0,0,.79.39,1,1,0,0,0,.78-.37,1.72,1.72,0,0,0,.32-1.15A2,2,0,0,0,64.44,48a1,1,0,0,0-1.6,0A1.91,1.91,0,0,0,62.53,49.22Z"/><path class="cls-3" d="M69.35,50l.73.09a1.78,1.78,0,0,1-.64,1,2,2,0,0,1-1.19.35,1.87,1.87,0,0,1-1.44-.56,2.16,2.16,0,0,1-.53-1.57,2.31,2.31,0,0,1,.54-1.63,1.81,1.81,0,0,1,1.39-.57,1.75,1.75,0,0,1,1.36.56,2.27,2.27,0,0,1,.53,1.6v.18H67a1.62,1.62,0,0,0,.39,1,1.15,1.15,0,0,0,.87.36,1.08,1.08,0,0,0,.66-.2A1.35,1.35,0,0,0,69.35,50ZM67,48.82h2.32a1.39,1.39,0,0,0-.27-.79,1.07,1.07,0,0,0-.87-.41,1.1,1.1,0,0,0-.81.33A1.3,1.3,0,0,0,67,48.82Z"/><path class="cls-3" d="M70.94,51.29V45.56h.71v5.73Z"/><path class="cls-3" d="M74.68,50.05l.69-.11a1,1,0,0,0,.33.64,1.14,1.14,0,0,0,.75.22,1.13,1.13,0,0,0,.72-.19.63.63,0,0,0,.23-.47.42.42,0,0,0-.21-.37,3.14,3.14,0,0,0-.71-.24,6.07,6.07,0,0,1-1.08-.34A1,1,0,0,1,75,48.8a1.09,1.09,0,0,1-.15-.56,1.13,1.13,0,0,1,.12-.51,1.1,1.1,0,0,1,.35-.39,1.35,1.35,0,0,1,.45-.21,1.94,1.94,0,0,1,.6-.08,2.28,2.28,0,0,1,.86.14,1.15,1.15,0,0,1,.55.38,1.65,1.65,0,0,1,.24.64l-.69.09a.75.75,0,0,0-.27-.5,1,1,0,0,0-.64-.18,1.21,1.21,0,0,0-.69.16.47.47,0,0,0-.2.38.39.39,0,0,0,.08.25.71.71,0,0,0,.27.18l.62.18a8.23,8.23,0,0,1,1,.33,1.08,1.08,0,0,1,.47.37,1,1,0,0,1,.16.6,1.16,1.16,0,0,1-.2.66,1.34,1.34,0,0,1-.59.48,2.06,2.06,0,0,1-.88.17,2,2,0,0,1-1.23-.33A1.61,1.61,0,0,1,74.68,50.05Z"/><path class="cls-3" d="M81.8,50l.73.09a1.78,1.78,0,0,1-.64,1,2,2,0,0,1-1.19.35,1.87,1.87,0,0,1-1.44-.56,2.16,2.16,0,0,1-.53-1.57,2.3,2.3,0,0,1,.53-1.63,1.85,1.85,0,0,1,1.4-.57,1.75,1.75,0,0,1,1.36.56,2.27,2.27,0,0,1,.53,1.6v.18h-3.1a1.62,1.62,0,0,0,.39,1,1.15,1.15,0,0,0,.87.36,1.08,1.08,0,0,0,.66-.2A1.35,1.35,0,0,0,81.8,50Zm-2.31-1.13h2.32a1.39,1.39,0,0,0-.27-.79,1.07,1.07,0,0,0-.87-.41,1.1,1.1,0,0,0-.81.33A1.25,1.25,0,0,0,79.49,48.82Z"/><path class="cls-3" d="M83.4,51.29V47.14H84v.63a1.67,1.67,0,0,1,.45-.58.75.75,0,0,1,.45-.14,1.34,1.34,0,0,1,.72.22l-.24.66a.93.93,0,0,0-.51-.16.71.71,0,0,0-.42.14.73.73,0,0,0-.26.39,2.66,2.66,0,0,0-.12.82v2.17Z"/><path class="cls-3" d="M87.23,51.29l-1.58-4.15h.74l.89,2.48c.1.27.18.55.27.84.06-.22.15-.48.26-.79l.92-2.53h.72l-1.57,4.15Z"/><path class="cls-3" d="M90.08,46.37v-.81h.7v.81Zm0,4.92V47.14h.7v4.15Z"/><path class="cls-3" d="M94.56,49.77l.69.09A1.82,1.82,0,0,1,94.67,51a1.68,1.68,0,0,1-1.15.4,1.79,1.79,0,0,1-1.37-.55,2.31,2.31,0,0,1-.51-1.6,2.89,2.89,0,0,1,.22-1.18,1.55,1.55,0,0,1,.68-.75,2,2,0,0,1,1-.25,1.68,1.68,0,0,1,1.1.34,1.55,1.55,0,0,1,.55,1l-.68.1a1.14,1.14,0,0,0-.35-.62.84.84,0,0,0-.6-.22,1.08,1.08,0,0,0-.86.39,1.79,1.79,0,0,0-.33,1.2,1.86,1.86,0,0,0,.32,1.22,1,1,0,0,0,.83.37,1,1,0,0,0,.7-.25A1.29,1.29,0,0,0,94.56,49.77Z"/><path class="cls-3" d="M95.85,46.37v-.81h.71v.81Zm0,4.92V47.14h.71v4.15Z"/><path class="cls-3" d="M97.37,49.21a2.12,2.12,0,0,1,.64-1.7,1.9,1.9,0,0,1,1.3-.46,1.84,1.84,0,0,1,1.4.56,2.13,2.13,0,0,1,.54,1.55,2.77,2.77,0,0,1-.24,1.26,1.71,1.71,0,0,1-.7.71,2,2,0,0,1-1,.25,1.85,1.85,0,0,1-1.41-.56A2.22,2.22,0,0,1,97.37,49.21Zm.72,0a1.74,1.74,0,0,0,.35,1.2,1.17,1.17,0,0,0,1.74,0,1.85,1.85,0,0,0,.35-1.22,1.76,1.76,0,0,0-.35-1.17,1.17,1.17,0,0,0-1.74,0A1.73,1.73,0,0,0,98.09,49.21Z"/><path class="cls-2" d="M14.57,65.32V58.88h1.31v6.44Z"/><path class="cls-2" d="M21.35,65.32H20.12V62.94A3.79,3.79,0,0,0,20,62a.71.71,0,0,0-.26-.35.75.75,0,0,0-.43-.12,1,1,0,0,0-.57.18.84.84,0,0,0-.35.46,3.71,3.71,0,0,0-.1,1.07v2.12H17.1V60.65h1.14v.69a1.87,1.87,0,0,1,1.54-.79,1.82,1.82,0,0,1,.75.14,1.22,1.22,0,0,1,.51.38,1.19,1.19,0,0,1,.24.52,3.54,3.54,0,0,1,.07.83Z"/><path class="cls-2" d="M26.88,65.32H25.74v-.69a1.84,1.84,0,0,1-.68.6,1.72,1.72,0,0,1-.78.19,1.75,1.75,0,0,1-1.38-.65,2.63,2.63,0,0,1-.57-1.8,2.58,2.58,0,0,1,.56-1.81,1.81,1.81,0,0,1,1.41-.61,1.72,1.72,0,0,1,1.35.65V58.88h1.23Zm-3.29-2.44a2.22,2.22,0,0,0,.2,1.08.93.93,0,0,0,.84.49.91.91,0,0,0,.72-.36,1.71,1.71,0,0,0,.3-1.09,1.82,1.82,0,0,0-.29-1.16.92.92,0,0,0-.74-.35,1,1,0,0,0-.74.35A1.61,1.61,0,0,0,23.59,62.88Z"/><path class="cls-2" d="M28.1,60V58.88h1.24V60Zm0,5.3V60.65h1.24v4.67Z"/><path class="cls-2" d="M34.67,62l-1.22.22a.86.86,0,0,0-.28-.55.84.84,0,0,0-.56-.18.91.91,0,0,0-.74.32,1.63,1.63,0,0,0-.27,1.06,1.86,1.86,0,0,0,.28,1.17.9.9,0,0,0,.75.35.84.84,0,0,0,.57-.2,1.24,1.24,0,0,0,.32-.69l1.21.21A2.19,2.19,0,0,1,34,65a2.28,2.28,0,0,1-1.44.42,2.12,2.12,0,0,1-1.63-.64,2.95,2.95,0,0,1,0-3.59,2.17,2.17,0,0,1,1.65-.64,2.31,2.31,0,0,1,1.36.36A2.11,2.11,0,0,1,34.67,62Z"/><path class="cls-2" d="M36.53,62.07l-1.12-.2a1.71,1.71,0,0,1,.65-1,2.35,2.35,0,0,1,1.37-.32,3,3,0,0,1,1.23.19,1.24,1.24,0,0,1,.57.5,2.55,2.55,0,0,1,.16,1.1v1.44a5,5,0,0,0,.06.91,2.64,2.64,0,0,0,.22.63H38.44c0-.08-.07-.21-.12-.37s0-.12,0-.14a2.27,2.27,0,0,1-.68.46,2,2,0,0,1-.77.15A1.57,1.57,0,0,1,35.7,65a1.29,1.29,0,0,1-.42-1,1.27,1.27,0,0,1,.19-.7,1.23,1.23,0,0,1,.53-.48,4.07,4.07,0,0,1,1-.28,6.1,6.1,0,0,0,1.2-.31v-.12a.66.66,0,0,0-.17-.51,1.08,1.08,0,0,0-.67-.15.84.84,0,0,0-.51.13A.91.91,0,0,0,36.53,62.07Zm1.65,1q-.24.08-.75.18a2.4,2.4,0,0,0-.67.22.51.51,0,0,0-.24.44.58.58,0,0,0,.19.44.66.66,0,0,0,.49.19,1.06,1.06,0,0,0,.64-.22.71.71,0,0,0,.29-.4,2.15,2.15,0,0,0,0-.61Z"/><path class="cls-2" d="M44.89,65.32H43.75v-.69a1.84,1.84,0,0,1-.68.6,1.72,1.72,0,0,1-.78.19,1.75,1.75,0,0,1-1.38-.65,3.19,3.19,0,0,1,0-3.61,1.84,1.84,0,0,1,1.41-.61,1.73,1.73,0,0,1,1.36.65V58.88h1.23ZM41.6,62.88A2.22,2.22,0,0,0,41.8,64a.93.93,0,0,0,.84.49.91.91,0,0,0,.72-.36,1.71,1.71,0,0,0,.3-1.09,1.82,1.82,0,0,0-.29-1.16.92.92,0,0,0-.74-.35,1,1,0,0,0-.74.35A1.61,1.61,0,0,0,41.6,62.88Z"/><path class="cls-2" d="M45.82,62.92a2.54,2.54,0,0,1,.31-1.19,2,2,0,0,1,.86-.88,2.56,2.56,0,0,1,1.24-.3,2.31,2.31,0,0,1,1.73.68A2.35,2.35,0,0,1,50.64,63,2.44,2.44,0,0,1,50,64.73a2.33,2.33,0,0,1-1.72.69A2.65,2.65,0,0,1,47,65.13a2,2,0,0,1-.88-.85A2.85,2.85,0,0,1,45.82,62.92Zm1.27.06a1.56,1.56,0,0,0,.33,1.07,1.07,1.07,0,0,0,.81.37,1,1,0,0,0,.81-.37A1.57,1.57,0,0,0,49.37,63,1.55,1.55,0,0,0,49,61.92a1,1,0,0,0-.81-.37,1.07,1.07,0,0,0-.81.37A1.55,1.55,0,0,0,47.09,63Z"/><path class="cls-2" d="M52.79,65.32H51.56V60.65H52.7v.66a2.05,2.05,0,0,1,.53-.62,1,1,0,0,1,.54-.14,1.51,1.51,0,0,1,.81.23l-.38,1.07a1.15,1.15,0,0,0-.58-.2.65.65,0,0,0-.44.15.94.94,0,0,0-.29.51,7.36,7.36,0,0,0-.1,1.57Z"/><path class="cls-2" d="M61.52,64.17v1.15H57.19a3,3,0,0,1,.42-1.23A8,8,0,0,1,59,62.54a8.37,8.37,0,0,0,1-1,1.39,1.39,0,0,0,.26-.76.9.9,0,0,0-.22-.64.88.88,0,0,0-.62-.22.81.81,0,0,0-.61.24,1.22,1.22,0,0,0-.27.77l-1.23-.12A2.09,2.09,0,0,1,58,59.29a2.36,2.36,0,0,1,1.45-.44,2.1,2.1,0,0,1,1.5.51,1.68,1.68,0,0,1,.55,1.28,2.12,2.12,0,0,1-.16.83,3.28,3.28,0,0,1-.49.82,8.17,8.17,0,0,1-.81.83,9.35,9.35,0,0,0-.74.71,1.73,1.73,0,0,0-.25.34Z"/><path class="cls-2" d="M62.85,61.89V60.65h1.24v1.24Zm0,3.43V64.08h1.24v1.24Z"/><path class="cls-3" d="M14.59,75.32V69.59h4.14v.68H15.35V72h3.17v.67H15.35v2h3.52v.68Z"/><path class="cls-3" d="M18.93,76.93l.13-.6a1.19,1.19,0,0,0,.33,0,.35.35,0,0,0,.32-.14,1.41,1.41,0,0,0,.11-.71V71.17h.7v4.37a2,2,0,0,1-.2,1.07.93.93,0,0,1-.84.39A2,2,0,0,1,18.93,76.93Zm.89-6.52v-.82h.7v.82Z"/><path class="cls-3" d="M21.6,75.32V71.17h.63v.58a1.53,1.53,0,0,1,.52-.49,1.47,1.47,0,0,1,.74-.18,1.33,1.33,0,0,1,.75.19,1,1,0,0,1,.42.53,1.49,1.49,0,0,1,1.28-.72,1.26,1.26,0,0,1,.95.34,1.45,1.45,0,0,1,.33,1v2.85h-.7V72.7a1.73,1.73,0,0,0-.07-.6.51.51,0,0,0-.24-.3.75.75,0,0,0-.43-.12,1,1,0,0,0-.72.3,1.24,1.24,0,0,0-.29.93v2.41h-.7v-2.7a1.15,1.15,0,0,0-.18-.7.63.63,0,0,0-.56-.24,1.07,1.07,0,0,0-.55.16.87.87,0,0,0-.36.46,2.45,2.45,0,0,0-.12.87v2.15Z"/><path class="cls-3" d="M28.46,72v-.8h.8V72Zm0,3.35v-.8h.8v.8Z"/><path class="cls-3" d="M32.54,73.48l.72-.06a1.57,1.57,0,0,0,.23.7,1.43,1.43,0,0,0,.58.45,2.23,2.23,0,0,0,.88.17,2.2,2.2,0,0,0,.76-.13,1.08,1.08,0,0,0,.5-.36.8.8,0,0,0,.16-.49.72.72,0,0,0-.16-.47A1.22,1.22,0,0,0,35.7,73a10.16,10.16,0,0,0-1-.27,5.48,5.48,0,0,1-1.11-.36,1.62,1.62,0,0,1-.61-.54,1.33,1.33,0,0,1-.2-.71,1.41,1.41,0,0,1,.25-.81,1.49,1.49,0,0,1,.72-.57,2.69,2.69,0,0,1,1.05-.2,2.83,2.83,0,0,1,1.12.21,1.73,1.73,0,0,1,.75.6,1.77,1.77,0,0,1,.28.9l-.73.06a1.19,1.19,0,0,0-.39-.82,1.53,1.53,0,0,0-1-.28,1.65,1.65,0,0,0-1,.25.76.76,0,0,0-.32.61.67.67,0,0,0,.22.51,3.13,3.13,0,0,0,1.15.41,8.29,8.29,0,0,1,1.26.36,1.73,1.73,0,0,1,.74.59,1.38,1.38,0,0,1,.24.81,1.58,1.58,0,0,1-.26.86,1.79,1.79,0,0,1-.75.63,2.65,2.65,0,0,1-1.11.23,3.29,3.29,0,0,1-1.3-.23,1.83,1.83,0,0,1-.82-.68A2,2,0,0,1,32.54,73.48Z"/><path class="cls-3" d="M40.75,74.81a2.58,2.58,0,0,1-.75.46,2,2,0,0,1-.77.14,1.55,1.55,0,0,1-1.06-.33,1.13,1.13,0,0,1-.36-.86,1,1,0,0,1,.14-.55,1.1,1.1,0,0,1,.36-.41,1.69,1.69,0,0,1,.51-.23,5.34,5.34,0,0,1,.62-.1,5.84,5.84,0,0,0,1.25-.25,1.53,1.53,0,0,0,0-.18.77.77,0,0,0-.2-.6,1.18,1.18,0,0,0-.8-.24,1.27,1.27,0,0,0-.73.17,1,1,0,0,0-.35.62l-.69-.1a1.6,1.6,0,0,1,.31-.71,1.36,1.36,0,0,1,.62-.42,2.7,2.7,0,0,1,.94-.14,2.58,2.58,0,0,1,.86.12,1.15,1.15,0,0,1,.49.31,1.06,1.06,0,0,1,.22.48,4.68,4.68,0,0,1,0,.65v.94a9.55,9.55,0,0,0,.05,1.24,1.58,1.58,0,0,0,.18.5h-.74A1.59,1.59,0,0,1,40.75,74.81Zm-.06-1.57a5.12,5.12,0,0,1-1.14.26,2.76,2.76,0,0,0-.62.14.58.58,0,0,0-.37.56.59.59,0,0,0,.21.47.89.89,0,0,0,.62.19,1.49,1.49,0,0,0,.73-.18,1.12,1.12,0,0,0,.46-.48,1.67,1.67,0,0,0,.11-.71Z"/><path class="cls-3" d="M44,74.69l.1.62a2.69,2.69,0,0,1-.53.06,1.21,1.21,0,0,1-.59-.12.71.71,0,0,1-.3-.32,2.41,2.41,0,0,1-.09-.83V71.72h-.51v-.55h.51v-1l.7-.42v1.45H44v.55h-.71v2.42a1.4,1.4,0,0,0,0,.39.32.32,0,0,0,.12.14.54.54,0,0,0,.24,0Z"/><path class="cls-3" d="M44.72,70.4v-.81h.7v.81Zm0,4.92V71.17h.7v4.15Z"/><path class="cls-3" d="M46.21,74.08l.7-.11a1,1,0,0,0,.33.64,1.4,1.4,0,0,0,1.46,0,.61.61,0,0,0,.24-.47.42.42,0,0,0-.21-.37,3.52,3.52,0,0,0-.72-.24,5.89,5.89,0,0,1-1.07-.34,1,1,0,0,1-.45-.39,1,1,0,0,1-.16-.56,1,1,0,0,1,.13-.51,1.19,1.19,0,0,1,.34-.4,1.59,1.59,0,0,1,.45-.2,2,2,0,0,1,.61-.08,2.32,2.32,0,0,1,.86.14,1.17,1.17,0,0,1,.54.38,1.38,1.38,0,0,1,.24.64l-.68.09a.81.81,0,0,0-.28-.5,1,1,0,0,0-.63-.18,1.21,1.21,0,0,0-.69.16.48.48,0,0,0-.21.38.36.36,0,0,0,.09.24.52.52,0,0,0,.27.19,6.05,6.05,0,0,0,.62.18,7.7,7.7,0,0,1,1,.33,1.05,1.05,0,0,1,.46.37,1,1,0,0,1,.17.6,1.17,1.17,0,0,1-.21.66,1.24,1.24,0,0,1-.59.48,2.21,2.21,0,0,1-.87.17,2,2,0,0,1-1.24-.33A1.61,1.61,0,0,1,46.21,74.08Z"/><path class="cls-3" d="M50.66,75.32v-3.6H50v-.55h.62v-.44a1.85,1.85,0,0,1,.08-.62.86.86,0,0,1,.35-.45,1.34,1.34,0,0,1,.72-.17,4.13,4.13,0,0,1,.66.07l-.11.62a2,2,0,0,0-.41,0,.63.63,0,0,0-.46.13.84.84,0,0,0-.13.52v.38h.81v.55h-.81v3.6Z"/><path class="cls-3" d="M55.42,74.81a2.58,2.58,0,0,1-.75.46,2,2,0,0,1-.77.14,1.5,1.5,0,0,1-1-.33,1.11,1.11,0,0,1-.37-.86,1.15,1.15,0,0,1,.14-.55,1.1,1.1,0,0,1,.36-.41,1.69,1.69,0,0,1,.51-.23,5.34,5.34,0,0,1,.62-.1,6.1,6.1,0,0,0,1.26-.25V72.5a.77.77,0,0,0-.2-.6,1.18,1.18,0,0,0-.8-.24,1.27,1.27,0,0,0-.73.17,1,1,0,0,0-.35.62l-.69-.1a1.72,1.72,0,0,1,.31-.71,1.36,1.36,0,0,1,.62-.42,2.7,2.7,0,0,1,.94-.14,2.54,2.54,0,0,1,.86.12,1.09,1.09,0,0,1,.49.31A1.06,1.06,0,0,1,56,72a3.25,3.25,0,0,1,0,.65v.94a10.35,10.35,0,0,0,0,1.24,1.58,1.58,0,0,0,.18.5h-.73A1.6,1.6,0,0,1,55.42,74.81Zm-.05-1.57a5.38,5.38,0,0,1-1.15.26,2.76,2.76,0,0,0-.62.14.62.62,0,0,0-.37.56.59.59,0,0,0,.21.47.9.9,0,0,0,.63.19,1.43,1.43,0,0,0,.72-.18,1.12,1.12,0,0,0,.46-.48,1.65,1.65,0,0,0,.12-.71Z"/><path class="cls-3" d="M59.87,73.8l.7.09A1.84,1.84,0,0,1,60,75a1.71,1.71,0,0,1-1.15.4,1.74,1.74,0,0,1-1.37-.56A2.22,2.22,0,0,1,57,73.26a3.07,3.07,0,0,1,.22-1.18,1.6,1.6,0,0,1,.68-.75,2,2,0,0,1,1-.25,1.73,1.73,0,0,1,1.11.34,1.57,1.57,0,0,1,.55,1l-.68.1a1.28,1.28,0,0,0-.35-.63.91.91,0,0,0-.6-.21A1.1,1.1,0,0,0,58,72a1.78,1.78,0,0,0-.34,1.21A1.86,1.86,0,0,0,58,74.45a1,1,0,0,0,.84.38,1,1,0,0,0,.69-.25A1.24,1.24,0,0,0,59.87,73.8Z"/><path class="cls-3" d="M63.87,73.8l.7.09A1.84,1.84,0,0,1,64,75a1.71,1.71,0,0,1-1.15.4,1.74,1.74,0,0,1-1.37-.56A2.22,2.22,0,0,1,61,73.26a3.07,3.07,0,0,1,.22-1.18,1.6,1.6,0,0,1,.68-.75,2,2,0,0,1,1-.25,1.73,1.73,0,0,1,1.11.34,1.57,1.57,0,0,1,.55,1l-.68.1a1.28,1.28,0,0,0-.35-.63.91.91,0,0,0-.6-.21A1.1,1.1,0,0,0,62,72a1.78,1.78,0,0,0-.34,1.21A1.86,1.86,0,0,0,62,74.45a1,1,0,0,0,.84.38,1,1,0,0,0,.69-.25A1.24,1.24,0,0,0,63.87,73.8Z"/><path class="cls-3" d="M65.17,70.4v-.81h.7v.81Zm0,4.92V71.17h.7v4.15Z"/><path class="cls-3" d="M66.68,73.24a2.14,2.14,0,0,1,.64-1.7,1.92,1.92,0,0,1,1.31-.46,1.85,1.85,0,0,1,1.4.56,2.13,2.13,0,0,1,.54,1.54,2.71,2.71,0,0,1-.24,1.26,1.68,1.68,0,0,1-.7.72,2,2,0,0,1-1,.25,1.88,1.88,0,0,1-1.41-.56A2.22,2.22,0,0,1,66.68,73.24Zm.72,0a1.81,1.81,0,0,0,.35,1.2,1.13,1.13,0,0,0,.88.39,1.09,1.09,0,0,0,.87-.4,1.8,1.8,0,0,0,.35-1.21,1.76,1.76,0,0,0-.35-1.17,1.18,1.18,0,0,0-1.75,0A1.76,1.76,0,0,0,67.4,73.24Zm.84-2.59.52-1.09h.92l-.86,1.09Z"/><path class="cls-3" d="M71.39,75.32V71.17H72v.59a1.47,1.47,0,0,1,1.32-.68,1.73,1.73,0,0,1,.69.13,1.16,1.16,0,0,1,.47.35,1.63,1.63,0,0,1,.22.52,5.29,5.29,0,0,1,0,.69v2.55h-.7V72.79a2,2,0,0,0-.08-.64.73.73,0,0,0-.29-.34,1,1,0,0,0-.49-.13,1.16,1.16,0,0,0-.78.29,1.39,1.39,0,0,0-.32,1.08v2.27Z"/><rect class="cls-4" x="13.96" y="4.79" width="0.85" height="19.3" rx="0.42"/><rect class="cls-4" x="127.83" y="4.79" width="0.85" height="19.3" rx="0.42"/><path class="cls-3" d="M28,12.72H26.62l-.56-1.46H23.48L23,12.72H21.57l2.51-6.44h1.38Zm-2.4-2.54-.89-2.39-.87,2.39Z"/><path class="cls-3" d="M30.86,8.06V9H30v1.88a3.82,3.82,0,0,0,0,.67.28.28,0,0,0,.11.16.33.33,0,0,0,.21.06,1.54,1.54,0,0,0,.49-.12l.11,1a2.52,2.52,0,0,1-1,.18,1.64,1.64,0,0,1-.6-.11.87.87,0,0,1-.39-.29,1.18,1.18,0,0,1-.18-.48,7.26,7.26,0,0,1,0-.87V9h-.56v-1h.56V7.13L30,6.41V8.06Z"/><path class="cls-3" d="M34.42,11.24l1.23.21a2.06,2.06,0,0,1-.75,1,2.24,2.24,0,0,1-1.28.35,2.07,2.07,0,0,1-1.8-.79,2.69,2.69,0,0,1-.47-1.61A2.6,2.6,0,0,1,32,8.61,2,2,0,0,1,33.49,8a2.07,2.07,0,0,1,1.65.69,3,3,0,0,1,.57,2.11H32.62a1.25,1.25,0,0,0,.3.85.92.92,0,0,0,.71.31.8.8,0,0,0,.49-.16A1,1,0,0,0,34.42,11.24ZM34.49,10a1.15,1.15,0,0,0-.28-.81.84.84,0,0,0-.64-.28.88.88,0,0,0-.67.29,1.18,1.18,0,0,0-.26.8Z"/><path class="cls-3" d="M41,12.72H39.73V10.34a3.7,3.7,0,0,0-.08-1A.67.67,0,0,0,39.39,9,.72.72,0,0,0,39,8.9a1,1,0,0,0-.58.17.9.9,0,0,0-.35.47A4.19,4.19,0,0,0,38,10.61v2.11H36.71V8.06h1.15v.68A1.89,1.89,0,0,1,39.4,8a1.78,1.78,0,0,1,.74.15,1.14,1.14,0,0,1,.51.38A1.35,1.35,0,0,1,40.9,9a4.41,4.41,0,0,1,.06.83Z"/><path class="cls-3" d="M46.5,12.72H45.35V12a1.81,1.81,0,0,1-.67.6,1.91,1.91,0,0,1-.79.19,1.81,1.81,0,0,1-1.38-.65,2.64,2.64,0,0,1-.57-1.81,2.6,2.6,0,0,1,.56-1.8A1.82,1.82,0,0,1,43.91,8a1.75,1.75,0,0,1,1.35.65V6.28H46.5Zm-3.3-2.43a2.09,2.09,0,0,0,.21,1.08.94.94,0,0,0,.83.48.91.91,0,0,0,.73-.36,1.66,1.66,0,0,0,.3-1.08A1.86,1.86,0,0,0,45,9.25a.94.94,0,0,0-.75-.35.9.9,0,0,0-.73.35A1.56,1.56,0,0,0,43.2,10.29Z"/><path class="cls-3" d="M50.42,11.24l1.23.21a2.06,2.06,0,0,1-.75,1,2.24,2.24,0,0,1-1.28.35,2.08,2.08,0,0,1-1.8-.79,2.69,2.69,0,0,1-.47-1.61A2.6,2.6,0,0,1,48,8.61,2,2,0,0,1,49.49,8a2.07,2.07,0,0,1,1.65.69,3,3,0,0,1,.57,2.11H48.62a1.25,1.25,0,0,0,.3.85.92.92,0,0,0,.71.31.8.8,0,0,0,.49-.16A1,1,0,0,0,50.42,11.24ZM50.49,10a1.15,1.15,0,0,0-.28-.81.83.83,0,0,0-.64-.28.88.88,0,0,0-.67.29,1.18,1.18,0,0,0-.26.8Z"/><path class="cls-3" d="M53.9,12.72H52.67V8.06h1.15v.66a2.05,2.05,0,0,1,.52-.62A1,1,0,0,1,54.88,8a1.52,1.52,0,0,1,.81.24l-.38,1.07a1.12,1.12,0,0,0-.58-.2.72.72,0,0,0-.44.14,1,1,0,0,0-.28.52,7.09,7.09,0,0,0-.11,1.56Z"/><path class="cls-3" d="M58.72,7.43V6.28H60V7.43Zm0,5.29V8.06H60v4.66Z"/><path class="cls-3" d="M65.47,12.72H64.23V10.34a3.29,3.29,0,0,0-.08-1A.65.65,0,0,0,63.9,9a.75.75,0,0,0-.43-.12,1.06,1.06,0,0,0-.58.17,1,1,0,0,0-.35.47,4.19,4.19,0,0,0-.09,1.07v2.11H61.21V8.06h1.15v.68A1.89,1.89,0,0,1,63.9,8a1.86,1.86,0,0,1,.75.15,1.27,1.27,0,0,1,.51.38A1.2,1.2,0,0,1,65.4,9a3.6,3.6,0,0,1,.07.83Z"/><path class="cls-3" d="M68.86,8.06V9H68v1.88a6.69,6.69,0,0,0,0,.67.33.33,0,0,0,.11.16.37.37,0,0,0,.21.06,1.64,1.64,0,0,0,.5-.12l.1,1a2.5,2.5,0,0,1-1,.18,1.66,1.66,0,0,1-.61-.11.93.93,0,0,1-.39-.29,1.18,1.18,0,0,1-.17-.48,5.57,5.57,0,0,1,0-.87V9h-.57v-1h.57V7.13L68,6.41V8.06Z"/><path class="cls-3" d="M72.42,11.24l1.23.21a2.06,2.06,0,0,1-.75,1,2.24,2.24,0,0,1-1.28.35,2.08,2.08,0,0,1-1.8-.79,2.69,2.69,0,0,1-.46-1.61A2.55,2.55,0,0,1,70,8.61,2,2,0,0,1,71.5,8a2.07,2.07,0,0,1,1.64.69,3,3,0,0,1,.58,2.11h-3.1a1.25,1.25,0,0,0,.3.85.92.92,0,0,0,.72.31.77.77,0,0,0,.48-.16A1,1,0,0,0,72.42,11.24ZM72.49,10a1.19,1.19,0,0,0-.27-.81.86.86,0,0,0-.65-.28.88.88,0,0,0-.67.29,1.13,1.13,0,0,0-.25.8Z"/><path class="cls-3" d="M74.61,13,76,13.2a.48.48,0,0,0,.16.34.93.93,0,0,0,.56.13,1.39,1.39,0,0,0,.72-.14.61.61,0,0,0,.25-.31,1.83,1.83,0,0,0,.06-.57V12a1.68,1.68,0,0,1-1.4.75,1.71,1.71,0,0,1-1.49-.79,2.68,2.68,0,0,1-.43-1.56A2.62,2.62,0,0,1,75,8.57,1.85,1.85,0,0,1,76.42,8a1.71,1.71,0,0,1,1.42.76V8.06H79v4.19a4.13,4.13,0,0,1-.14,1.23,1.44,1.44,0,0,1-.38.64,1.61,1.61,0,0,1-.66.37,3.38,3.38,0,0,1-1,.13,2.68,2.68,0,0,1-1.68-.41,1.26,1.26,0,0,1-.49-1Zm1.1-2.73A1.68,1.68,0,0,0,76,11.38a.89.89,0,0,0,.71.35,1,1,0,0,0,.76-.36,1.5,1.5,0,0,0,.32-1,1.62,1.62,0,0,0-.3-1.08.93.93,0,0,0-.76-.35.91.91,0,0,0-.73.34A1.64,1.64,0,0,0,75.71,10.3Z"/><path class="cls-3" d="M81.4,12.72H80.17V8.06h1.15v.66a2.05,2.05,0,0,1,.52-.62A1,1,0,0,1,82.38,8a1.52,1.52,0,0,1,.81.24l-.38,1.07a1.12,1.12,0,0,0-.58-.2.72.72,0,0,0-.44.14,1,1,0,0,0-.28.52,7.09,7.09,0,0,0-.11,1.56Z"/><path class="cls-3" d="M84.65,9.48l-1.12-.2a1.68,1.68,0,0,1,.65-1A2.33,2.33,0,0,1,85.55,8a3,3,0,0,1,1.23.2,1.22,1.22,0,0,1,.57.49,2.6,2.6,0,0,1,.16,1.11v1.44a5,5,0,0,0,.06.91,2.58,2.58,0,0,0,.22.62H86.56q0-.12-.12-.36a1.19,1.19,0,0,1,0-.14,2.48,2.48,0,0,1-.68.46,2,2,0,0,1-.77.15,1.61,1.61,0,0,1-1.14-.39,1.32,1.32,0,0,1-.41-1,1.27,1.27,0,0,1,.19-.7,1.18,1.18,0,0,1,.53-.48,3.88,3.88,0,0,1,1-.29,7.18,7.18,0,0,0,1.2-.3V9.56a.63.63,0,0,0-.18-.51,1,1,0,0,0-.66-.15A.84.84,0,0,0,85,9,.78.78,0,0,0,84.65,9.48Zm1.65,1a5.62,5.62,0,0,1-.75.19,2.5,2.5,0,0,0-.68.22.51.51,0,0,0-.24.43.59.59,0,0,0,.2.45.66.66,0,0,0,.49.19,1.08,1.08,0,0,0,.64-.22.78.78,0,0,0,.29-.41,2.45,2.45,0,0,0,0-.6Z"/><path class="cls-3" d="M88.73,12.72V6.28H90v6.44Z"/><path class="cls-3" d="M91.14,8.06h1.14V8.7A1.81,1.81,0,0,1,93.73,8a1.5,1.5,0,0,1,.78.19,1.39,1.39,0,0,1,.54.56,2,2,0,0,1,.66-.56A1.56,1.56,0,0,1,96.47,8a1.65,1.65,0,0,1,.87.21,1.26,1.26,0,0,1,.53.61,2.58,2.58,0,0,1,.13,1v3H96.77V10.06a2.06,2.06,0,0,0-.13-.9.59.59,0,0,0-.53-.26.84.84,0,0,0-.49.16.89.89,0,0,0-.33.46,3.57,3.57,0,0,0-.1,1v2.24H94V10.17a3.17,3.17,0,0,0-.07-.88.59.59,0,0,0-.2-.3.69.69,0,0,0-.38-.09.9.9,0,0,0-.51.15.86.86,0,0,0-.33.45,3.11,3.11,0,0,0-.1,1v2.26H91.14Z"/><path class="cls-3" d="M101.94,11.24l1.23.21a2.06,2.06,0,0,1-.75,1,2.27,2.27,0,0,1-1.28.35A2.09,2.09,0,0,1,99.33,12a2.76,2.76,0,0,1-.46-1.61,2.55,2.55,0,0,1,.61-1.82A2,2,0,0,1,101,8a2.09,2.09,0,0,1,1.65.69,3,3,0,0,1,.57,2.11h-3.09a1.25,1.25,0,0,0,.3.85.9.9,0,0,0,.71.31.82.82,0,0,0,.49-.16A1,1,0,0,0,101.94,11.24ZM102,10a1.19,1.19,0,0,0-.28-.81.84.84,0,0,0-.64-.28.87.87,0,0,0-.67.29,1.14,1.14,0,0,0-.26.8Z"/><path class="cls-3" d="M108.48,12.72h-1.23V10.34a3.7,3.7,0,0,0-.08-1,.67.67,0,0,0-.26-.35.75.75,0,0,0-.43-.12,1,1,0,0,0-.57.17.9.9,0,0,0-.35.47,3.66,3.66,0,0,0-.1,1.07v2.11h-1.23V8.06h1.15v.68A1.87,1.87,0,0,1,106.91,8a1.79,1.79,0,0,1,.75.15,1.14,1.14,0,0,1,.51.38,1.2,1.2,0,0,1,.24.51,3.6,3.6,0,0,1,.07.83Z"/><path class="cls-3" d="M111.87,8.06V9H111v1.88a3.82,3.82,0,0,0,0,.67.31.31,0,0,0,.1.16.37.37,0,0,0,.21.06,1.58,1.58,0,0,0,.5-.12l.11,1a2.55,2.55,0,0,1-1,.18,1.64,1.64,0,0,1-.6-.11,1,1,0,0,1-.4-.29,1.18,1.18,0,0,1-.17-.48,7.26,7.26,0,0,1,0-.87V9h-.56v-1h.56V7.13L111,6.41V8.06Z"/><path class="cls-3" d="M115.44,11.24l1.23.21a2.06,2.06,0,0,1-.75,1,2.27,2.27,0,0,1-1.28.35,2.09,2.09,0,0,1-1.81-.79,2.76,2.76,0,0,1-.46-1.61A2.55,2.55,0,0,1,113,8.61,2,2,0,0,1,114.51,8a2.09,2.09,0,0,1,1.65.69,3,3,0,0,1,.57,2.11h-3.09a1.25,1.25,0,0,0,.3.85.9.9,0,0,0,.71.31.82.82,0,0,0,.49-.16A1,1,0,0,0,115.44,11.24Zm.07-1.25a1.19,1.19,0,0,0-.28-.81.84.84,0,0,0-.64-.28.87.87,0,0,0-.67.29,1.14,1.14,0,0,0-.26.8Z"/><path class="cls-3" d="M51.64,19.48l-1.12-.2a1.73,1.73,0,0,1,.65-1A2.37,2.37,0,0,1,52.54,18a3,3,0,0,1,1.23.2,1.22,1.22,0,0,1,.57.49,2.57,2.57,0,0,1,.17,1.11l0,1.44a5,5,0,0,0,.06.91,2.64,2.64,0,0,0,.23.62H53.55q0-.12-.12-.36c0-.07,0-.12,0-.14a2.48,2.48,0,0,1-.68.46,1.94,1.94,0,0,1-.76.15,1.59,1.59,0,0,1-1.14-.39,1.29,1.29,0,0,1-.42-1,1.36,1.36,0,0,1,.19-.7,1.29,1.29,0,0,1,.53-.48,4.16,4.16,0,0,1,1-.29,7.18,7.18,0,0,0,1.2-.3v-.12a.63.63,0,0,0-.17-.51,1.08,1.08,0,0,0-.67-.15.86.86,0,0,0-.51.13A.89.89,0,0,0,51.64,19.48Zm1.65,1a4.89,4.89,0,0,1-.75.19,2.53,2.53,0,0,0-.67.22.51.51,0,0,0-.24.43.58.58,0,0,0,.19.45.66.66,0,0,0,.49.19,1,1,0,0,0,.64-.22.8.8,0,0,0,.3-.41,2.63,2.63,0,0,0,0-.6Z"/><path class="cls-3" d="M55.73,22.72V16.28H57v6.44Z"/><path class="cls-3" d="M64.79,19.44l-1.21.22a.88.88,0,0,0-.28-.55.89.89,0,0,0-.57-.19.93.93,0,0,0-.73.32,1.61,1.61,0,0,0-.28,1.07A1.93,1.93,0,0,0,62,21.48a.92.92,0,0,0,.75.34.8.8,0,0,0,.58-.2,1.17,1.17,0,0,0,.31-.68l1.22.2a2.14,2.14,0,0,1-.73,1.26,2.23,2.23,0,0,1-1.44.43,2.11,2.11,0,0,1-1.63-.65,2.47,2.47,0,0,1-.61-1.78,2.55,2.55,0,0,1,.61-1.8A2.18,2.18,0,0,1,62.72,18a2.27,2.27,0,0,1,1.35.37A2,2,0,0,1,64.79,19.44Z"/><path class="cls-3" d="M65.73,22.72V16.28H67v6.44Z"/><path class="cls-3" d="M68.23,17.43V16.28h1.24v1.15Zm0,5.29V18.06h1.24v4.66Z"/><path class="cls-3" d="M73.43,21.24l1.23.21a2,2,0,0,1-.74,1,2.28,2.28,0,0,1-1.29.35,2.08,2.08,0,0,1-1.8-.79,2.76,2.76,0,0,1-.46-1.61A2.55,2.55,0,0,1,71,18.61,2,2,0,0,1,72.51,18a2.05,2.05,0,0,1,1.64.69,3,3,0,0,1,.58,2.11H71.64a1.2,1.2,0,0,0,.3.85.9.9,0,0,0,.71.31.82.82,0,0,0,.49-.16A1,1,0,0,0,73.43,21.24ZM73.5,20a1.14,1.14,0,0,0-.27-.81.84.84,0,0,0-.64-.28.87.87,0,0,0-.67.29,1.14,1.14,0,0,0-.26.8Z"/><path class="cls-3" d="M80,22.72H78.75V20.34a3.7,3.7,0,0,0-.08-1,.72.72,0,0,0-.26-.35A.75.75,0,0,0,78,18.9a1,1,0,0,0-.57.17.9.9,0,0,0-.35.47,3.66,3.66,0,0,0-.1,1.07v2.11H75.73V18.06h1.14v.68A1.89,1.89,0,0,1,78.41,18a1.83,1.83,0,0,1,.75.15,1.14,1.14,0,0,1,.51.38,1.2,1.2,0,0,1,.24.51,3.6,3.6,0,0,1,.07.83Z"/><path class="cls-3" d="M83.37,18.06v1h-.84v1.88a3.82,3.82,0,0,0,0,.67.31.31,0,0,0,.1.16.37.37,0,0,0,.21.06,1.58,1.58,0,0,0,.5-.12l.11,1a2.55,2.55,0,0,1-1,.18,1.64,1.64,0,0,1-.6-.11,1,1,0,0,1-.4-.29,1.18,1.18,0,0,1-.17-.48,7.26,7.26,0,0,1,0-.87V19h-.56v-1h.56v-.93l1.24-.72v1.65Z"/><path class="cls-3" d="M86.93,21.24l1.23.21a2,2,0,0,1-.74,1,2.28,2.28,0,0,1-1.29.35,2.08,2.08,0,0,1-1.8-.79,2.76,2.76,0,0,1-.46-1.61,2.55,2.55,0,0,1,.61-1.82A2,2,0,0,1,86,18a2.05,2.05,0,0,1,1.64.69,3,3,0,0,1,.58,2.11H85.14a1.2,1.2,0,0,0,.3.85.9.9,0,0,0,.71.31.82.82,0,0,0,.49-.16A1,1,0,0,0,86.93,21.24ZM87,20a1.14,1.14,0,0,0-.27-.81.84.84,0,0,0-.64-.28.87.87,0,0,0-.67.29,1.14,1.14,0,0,0-.26.8Z"/><circle class="cls-5" cx="165.56" cy="47.27" r="6.39"/><path class="cls-4" d="M163.18,48.34l1.13-.11a1.34,1.34,0,0,0,.41.83,1.25,1.25,0,0,0,.84.27,1.28,1.28,0,0,0,.84-.24.68.68,0,0,0,.28-.55.55.55,0,0,0-.11-.34.91.91,0,0,0-.42-.25c-.14-.05-.44-.13-.93-.25a3.25,3.25,0,0,1-1.3-.57,1.49,1.49,0,0,1-.53-1.15,1.44,1.44,0,0,1,.25-.82,1.53,1.53,0,0,1,.71-.58,3,3,0,0,1,1.13-.2,2.43,2.43,0,0,1,1.62.47,1.68,1.68,0,0,1,.58,1.27l-1.16.05a1,1,0,0,0-.32-.64,1.16,1.16,0,0,0-.73-.19,1.3,1.3,0,0,0-.79.21.4.4,0,0,0-.18.35.43.43,0,0,0,.17.35,3,3,0,0,0,1.06.38A5.66,5.66,0,0,1,167,47a1.63,1.63,0,0,1,.63.59,1.8,1.8,0,0,1,0,1.83,1.65,1.65,0,0,1-.78.64,3.21,3.21,0,0,1-1.24.21,2.5,2.5,0,0,1-1.67-.5A2.23,2.23,0,0,1,163.18,48.34Z"/><circle class="cls-6" cx="165.56" cy="71.17" r="6.39"/><path class="cls-7" d="M168.57,74.1h-1.26l-.5-1.3h-2.29l-.47,1.3h-1.23l2.23-5.73h1.23Zm-2.13-2.27-.79-2.12-.77,2.12Z"/></g></g></svg>