<svg xmlns="http://www.w3.org/2000/svg" viewBox="0 0 547.82 52.95"><defs><style>.cls-1{fill:#e3ca34;}.cls-2{fill:#fff;}.cls-3{fill:#c4ab30;}.cls-4{fill:#28203a;}.cls-5{fill:#00683b;}</style></defs><g id="Capa_2" data-name="Capa 2"><g id="Capa_1-2" data-name="Capa 1"><rect class="cls-1" x="191.56" width="142.64" height="28.77" rx="14.38"/><rect class="cls-2" x="205.52" y="4.79" width="0.85" height="19.3" rx="0.42"/><rect class="cls-2" x="319.39" y="4.79" width="0.85" height="19.3" rx="0.42"/><path class="cls-3" d="M0,41.06V34.61H1.3v6.45Z"/><path class="cls-3" d="M6.78,41.06H5.54V38.67a3.29,3.29,0,0,0-.08-1,.7.7,0,0,0-.25-.35.77.77,0,0,0-.43-.12,1,1,0,0,0-.58.17,1,1,0,0,0-.35.47,4.19,4.19,0,0,0-.09,1.07v2.12H2.52V36.39H3.67v.69A1.9,1.9,0,0,1,6,36.43a1.36,1.36,0,0,1,.51.38,1.46,1.46,0,0,1,.24.52,4.19,4.19,0,0,1,.07.83Z"/><path class="cls-3" d="M12.31,41.06H11.16v-.69a1.81,1.81,0,0,1-.67.6,1.76,1.76,0,0,1-2.16-.46,2.58,2.58,0,0,1-.58-1.8,2.61,2.61,0,0,1,.56-1.81,1.82,1.82,0,0,1,1.41-.62,1.75,1.75,0,0,1,1.35.65V34.61h1.24ZM9,38.62a2.09,2.09,0,0,0,.21,1.08.93.93,0,0,0,.83.49.9.9,0,0,0,.73-.37,1.66,1.66,0,0,0,.3-1.08,1.88,1.88,0,0,0-.29-1.16.92.92,0,0,0-.74-.35.94.94,0,0,0-.74.35A1.56,1.56,0,0,0,9,38.62Z"/><path class="cls-3" d="M13.53,35.76V34.61h1.23v1.15Zm0,5.3V36.39h1.23v4.67Z"/><path class="cls-3" d="M20.1,37.77,18.88,38a.86.86,0,0,0-.28-.55.84.84,0,0,0-.56-.18.92.92,0,0,0-.74.31A1.67,1.67,0,0,0,17,38.64a1.93,1.93,0,0,0,.28,1.17.93.93,0,0,0,.75.35.85.85,0,0,0,.58-.2,1.31,1.31,0,0,0,.32-.69l1.21.2a2.2,2.2,0,0,1-.73,1.27,2.23,2.23,0,0,1-1.43.42,2.15,2.15,0,0,1-1.64-.64,2.54,2.54,0,0,1-.61-1.79,2.51,2.51,0,0,1,.62-1.8A2.15,2.15,0,0,1,18,36.28a2.25,2.25,0,0,1,1.35.37A2.06,2.06,0,0,1,20.1,37.77Z"/><path class="cls-3" d="M22,37.81l-1.12-.2a1.81,1.81,0,0,1,.65-1,2.38,2.38,0,0,1,1.38-.33,3,3,0,0,1,1.23.2,1.29,1.29,0,0,1,.57.5,2.72,2.72,0,0,1,.16,1.1v1.44a5,5,0,0,0,.06.91,2.64,2.64,0,0,0,.22.63H23.87a2.3,2.3,0,0,1-.12-.37.93.93,0,0,0-.05-.14A2.23,2.23,0,0,1,23,41a2,2,0,0,1-.77.15,1.61,1.61,0,0,1-1.14-.39,1.28,1.28,0,0,1-.41-1,1.27,1.27,0,0,1,.19-.7,1.21,1.21,0,0,1,.52-.48,4.63,4.63,0,0,1,1-.29,6,6,0,0,0,1.2-.3v-.12a.63.63,0,0,0-.18-.51,1.07,1.07,0,0,0-.66-.15.89.89,0,0,0-.52.13A1,1,0,0,0,22,37.81Zm1.66,1q-.24.07-.75.18a2.5,2.5,0,0,0-.68.22.51.51,0,0,0-.24.43.62.62,0,0,0,.19.45.68.68,0,0,0,.5.19,1,1,0,0,0,.63-.22.76.76,0,0,0,.3-.41,2.45,2.45,0,0,0,.05-.6Z"/><path class="cls-3" d="M30.32,41.06H29.17v-.69a1.81,1.81,0,0,1-.67.6,1.73,1.73,0,0,1-.79.19,1.78,1.78,0,0,1-1.38-.65,3.17,3.17,0,0,1,0-3.61,1.82,1.82,0,0,1,1.41-.62,1.75,1.75,0,0,1,1.35.65V34.61h1.24ZM27,38.62a2.09,2.09,0,0,0,.21,1.08.93.93,0,0,0,.83.49.9.9,0,0,0,.73-.37,1.66,1.66,0,0,0,.3-1.08,1.88,1.88,0,0,0-.29-1.16.94.94,0,0,0-.75-.35.93.93,0,0,0-.73.35A1.56,1.56,0,0,0,27,38.62Z"/><path class="cls-3" d="M31.25,38.66a2.53,2.53,0,0,1,.3-1.19,2,2,0,0,1,.86-.88,2.48,2.48,0,0,1,1.24-.31,2.33,2.33,0,0,1,1.74.69,2.58,2.58,0,0,1,0,3.5,2.31,2.31,0,0,1-1.72.69,2.61,2.61,0,0,1-1.22-.29,1.93,1.93,0,0,1-.89-.85A2.85,2.85,0,0,1,31.25,38.66Zm1.27.06a1.61,1.61,0,0,0,.32,1.07,1.1,1.1,0,0,0,.82.37,1.07,1.07,0,0,0,.81-.37,1.59,1.59,0,0,0,.33-1.08,1.54,1.54,0,0,0-.33-1.05,1,1,0,0,0-.81-.37,1.07,1.07,0,0,0-.82.37A1.6,1.6,0,0,0,32.52,38.72Z"/><path class="cls-3" d="M38.21,41.06H37V36.39h1.15v.66a1.92,1.92,0,0,1,.53-.62.94.94,0,0,1,.53-.15,1.52,1.52,0,0,1,.81.24l-.38,1.07a1.12,1.12,0,0,0-.58-.2.72.72,0,0,0-.44.14,1,1,0,0,0-.28.52,7.14,7.14,0,0,0-.11,1.57Z"/><path class="cls-3" d="M45.93,41.06H44.7V36.4a4.29,4.29,0,0,1-1.6.94V36.22a3.85,3.85,0,0,0,1-.6,2.31,2.31,0,0,0,.78-1h1Z"/><path class="cls-3" d="M48.28,37.63V36.39h1.23v1.24Zm0,3.43V39.82h1.23v1.24Z"/><path class="cls-4" d="M.1,51.06V44.61H4.75v.77H1v2H4.51v.75H1v2.2h4v.76Z"/><path class="cls-4" d="M5,52.87l.15-.67a1.69,1.69,0,0,0,.38.06.44.44,0,0,0,.36-.16A1.66,1.66,0,0,0,6,51.29v-4.9h.79v4.92a2.27,2.27,0,0,1-.23,1.2,1,1,0,0,1-1,.44A2.57,2.57,0,0,1,5,52.87Zm1-7.34v-.92h.79v.92Z"/><path class="cls-4" d="M8,51.06V46.39h.71v.66a1.62,1.62,0,0,1,1.41-.77,1.55,1.55,0,0,1,.85.22,1.13,1.13,0,0,1,.47.6,1.69,1.69,0,0,1,1.44-.82,1.41,1.41,0,0,1,1.07.39,1.62,1.62,0,0,1,.37,1.18v3.21h-.78V48.12a2.22,2.22,0,0,0-.08-.69.6.6,0,0,0-.28-.33.81.81,0,0,0-.47-.13,1.11,1.11,0,0,0-.82.33,1.44,1.44,0,0,0-.33,1.05v2.71h-.79V48a1.34,1.34,0,0,0-.19-.79A.75.75,0,0,0,9.93,47a1.15,1.15,0,0,0-.62.18.92.92,0,0,0-.41.51,2.76,2.76,0,0,0-.13,1v2.43Z"/><path class="cls-4" d="M15.7,47.29v-.9h.9v.9Zm0,3.77v-.9h.9v.9Z"/><path class="cls-4" d="M20.6,51.06V44.61h4.66v.77H21.45v2H25v.75H21.45v2.2h4v.76Z"/><path class="cls-4" d="M26.55,51.06V44.61H29a3,3,0,0,1,1.19.2,1.52,1.52,0,0,1,.7.6,1.58,1.58,0,0,1,.25.85,1.53,1.53,0,0,1-.22.78,1.65,1.65,0,0,1-.68.59,1.69,1.69,0,0,1,.9.58,1.57,1.57,0,0,1,.31,1,1.85,1.85,0,0,1-.19.84,1.61,1.61,0,0,1-.47.6A1.94,1.94,0,0,1,30,51a4.36,4.36,0,0,1-1,.11Zm.85-3.74h1.39a3.23,3.23,0,0,0,.82-.07,1,1,0,0,0,.49-.32.94.94,0,0,0,.16-.57,1,1,0,0,0-.15-.56.83.83,0,0,0-.44-.34,3.8,3.8,0,0,0-1-.08H27.4Zm0,3H29a3.73,3.73,0,0,0,.58,0,1.63,1.63,0,0,0,.5-.18.87.87,0,0,0,.32-.36,1.16,1.16,0,0,0-.06-1.17,1,1,0,0,0-.51-.37,3.21,3.21,0,0,0-.94-.11H27.4Z"/><path class="cls-4" d="M32.73,51.06V44.61h.85v6.45Z"/><path class="cls-4" d="M36.73,51.06V45.38H34.6v-.77h5.11v.77H37.58v5.68Z"/><path class="cls-4" d="M40.58,51.06V44.61H42.8a4.81,4.81,0,0,1,1.15.1,2.22,2.22,0,0,1,.95.46,2.72,2.72,0,0,1,.76,1.1,4.31,4.31,0,0,1,.25,1.53,4.66,4.66,0,0,1-.17,1.3,3.29,3.29,0,0,1-.44.94,2.31,2.31,0,0,1-.59.58,2.36,2.36,0,0,1-.77.33,4.52,4.52,0,0,1-1,.11Zm.86-.76h1.37a3.27,3.27,0,0,0,1-.12,1.37,1.37,0,0,0,.58-.34,2,2,0,0,0,.47-.81A4.08,4.08,0,0,0,45,47.79a3,3,0,0,0-.33-1.56,1.63,1.63,0,0,0-.81-.72,3.22,3.22,0,0,0-1.1-.13H41.44Z"/><path class="cls-4" d="M46.38,51.06l2.47-6.45h.92l2.63,6.45h-1l-.75-2H48l-.71,2Zm1.85-2.65h2.19l-.67-1.78c-.21-.54-.36-1-.46-1.34a8.11,8.11,0,0,1-.35,1.23Z"/><path class="cls-3" d="M398.3,41.06V34.61h1.3v6.45Z"/><path class="cls-3" d="M405.08,41.06h-1.24V38.67a3.29,3.29,0,0,0-.08-1,.65.65,0,0,0-.25-.35.75.75,0,0,0-.43-.12,1.06,1.06,0,0,0-.58.17.89.89,0,0,0-.34.47,3.66,3.66,0,0,0-.1,1.07v2.12h-1.23V36.39H402v.69a1.9,1.9,0,0,1,2.29-.65,1.36,1.36,0,0,1,.51.38,1.19,1.19,0,0,1,.24.52,3.54,3.54,0,0,1,.07.83Z"/><path class="cls-3" d="M410.61,41.06h-1.15v-.69a1.81,1.81,0,0,1-.67.6,1.76,1.76,0,0,1-2.16-.46,3.14,3.14,0,0,1,0-3.61,1.82,1.82,0,0,1,1.41-.62,1.77,1.77,0,0,1,1.36.65V34.61h1.23Zm-3.29-2.44a2.11,2.11,0,0,0,.2,1.08.93.93,0,0,0,.84.49.89.89,0,0,0,.72-.37,1.66,1.66,0,0,0,.3-1.08,1.88,1.88,0,0,0-.29-1.16.92.92,0,0,0-.74-.35,1,1,0,0,0-.74.35A1.61,1.61,0,0,0,407.32,38.62Z"/><path class="cls-3" d="M411.83,35.76V34.61h1.23v1.15Zm0,5.3V36.39h1.23v4.67Z"/><path class="cls-3" d="M418.4,37.77l-1.22.22a.86.86,0,0,0-.28-.55.84.84,0,0,0-.56-.18.92.92,0,0,0-.74.31,1.68,1.68,0,0,0-.27,1.07,1.86,1.86,0,0,0,.28,1.17.9.9,0,0,0,.74.35.85.85,0,0,0,.58-.2,1.31,1.31,0,0,0,.32-.69l1.21.2a2.24,2.24,0,0,1-.72,1.27,2.28,2.28,0,0,1-1.44.42,2.11,2.11,0,0,1-1.63-.64,2.95,2.95,0,0,1,0-3.59,2.18,2.18,0,0,1,1.65-.65,2.25,2.25,0,0,1,1.35.37A2.06,2.06,0,0,1,418.4,37.77Z"/><path class="cls-3" d="M420.26,37.81l-1.12-.2a1.71,1.71,0,0,1,.65-1,2.33,2.33,0,0,1,1.37-.33,3,3,0,0,1,1.23.2,1.24,1.24,0,0,1,.57.5,2.55,2.55,0,0,1,.16,1.1v1.44a5,5,0,0,0,.06.91,2.64,2.64,0,0,0,.22.63h-1.22l-.12-.37a1.19,1.19,0,0,1,0-.14,2.27,2.27,0,0,1-.68.46,2,2,0,0,1-.77.15,1.61,1.61,0,0,1-1.14-.39,1.32,1.32,0,0,1-.41-1,1.27,1.27,0,0,1,.19-.7,1.18,1.18,0,0,1,.53-.48,4.34,4.34,0,0,1,1-.29,5.6,5.6,0,0,0,1.2-.3v-.12a.63.63,0,0,0-.18-.51,1,1,0,0,0-.66-.15.84.84,0,0,0-.51.13A.85.85,0,0,0,420.26,37.81Zm1.65,1q-.24.07-.75.18a2.4,2.4,0,0,0-.67.22.5.5,0,0,0-.25.43.59.59,0,0,0,.2.45.66.66,0,0,0,.49.19,1.08,1.08,0,0,0,.64-.22.74.74,0,0,0,.29-.41,2.45,2.45,0,0,0,.05-.6Z"/><path class="cls-3" d="M428.62,41.06h-1.15v-.69a1.81,1.81,0,0,1-.67.6,1.76,1.76,0,0,1-2.16-.46,2.58,2.58,0,0,1-.58-1.8,2.61,2.61,0,0,1,.56-1.81,1.82,1.82,0,0,1,1.41-.62,1.79,1.79,0,0,1,1.36.65V34.61h1.23Zm-3.29-2.44a2.11,2.11,0,0,0,.2,1.08.93.93,0,0,0,.84.49.89.89,0,0,0,.72-.37,1.66,1.66,0,0,0,.3-1.08,1.88,1.88,0,0,0-.29-1.16.92.92,0,0,0-.74-.35.94.94,0,0,0-.74.35A1.56,1.56,0,0,0,425.33,38.62Z"/><path class="cls-3" d="M429.55,38.66a2.43,2.43,0,0,1,.31-1.19,2,2,0,0,1,.85-.88,2.49,2.49,0,0,1,1.25-.31,2.32,2.32,0,0,1,1.73.69,2.58,2.58,0,0,1,0,3.5,2.29,2.29,0,0,1-1.71.69,2.65,2.65,0,0,1-1.23-.29,1.91,1.91,0,0,1-.88-.85A2.73,2.73,0,0,1,429.55,38.66Zm1.27.06a1.56,1.56,0,0,0,.33,1.07,1.07,1.07,0,0,0,1.62,0,1.59,1.59,0,0,0,.33-1.08,1.54,1.54,0,0,0-.33-1.05,1.07,1.07,0,0,0-1.62,0A1.55,1.55,0,0,0,430.82,38.72Z"/><path class="cls-3" d="M436.52,41.06h-1.24V36.39h1.15v.66a2.05,2.05,0,0,1,.53-.62,1,1,0,0,1,.53-.15,1.58,1.58,0,0,1,.82.24l-.39,1.07a1.09,1.09,0,0,0-.58-.2.72.72,0,0,0-.44.14,1,1,0,0,0-.28.52,7.36,7.36,0,0,0-.1,1.57Z"/><path class="cls-3" d="M441,39.35l1.2-.15a1.11,1.11,0,0,0,.3.7.85.85,0,0,0,.61.24.79.79,0,0,0,.64-.29,1.09,1.09,0,0,0,.27-.78,1,1,0,0,0-.26-.74.79.79,0,0,0-.61-.27,2.21,2.21,0,0,0-.56.09l.13-1a1.16,1.16,0,0,0,.77-.22.81.81,0,0,0,.26-.62.69.69,0,0,0-.19-.51.7.7,0,0,0-.52-.2.77.77,0,0,0-.54.22,1,1,0,0,0-.27.64l-1.14-.19a2.51,2.51,0,0,1,.36-.93,1.53,1.53,0,0,1,.67-.55,2.12,2.12,0,0,1,1-.2,1.91,1.91,0,0,1,1.46.58,1.46,1.46,0,0,1-.48,2.42,1.5,1.5,0,0,1,.89.54,1.52,1.52,0,0,1,.33,1,2,2,0,0,1-.62,1.45,2.13,2.13,0,0,1-1.54.6,2.1,2.1,0,0,1-1.45-.51A1.93,1.93,0,0,1,441,39.35Z"/><path class="cls-3" d="M446.58,37.63V36.39h1.24v1.24Zm0,3.43V39.82h1.24v1.24Z"/><path class="cls-4" d="M398.4,51.06V44.61h4.66v.77h-3.81v2h3.57v.75h-3.57v2.2h4v.76Z"/><path class="cls-4" d="M403.28,52.87l.15-.67a1.55,1.55,0,0,0,.37.06.44.44,0,0,0,.36-.16,1.66,1.66,0,0,0,.12-.81v-4.9h.79v4.92a2.28,2.28,0,0,1-.22,1.2,1.06,1.06,0,0,1-1,.44A2.51,2.51,0,0,1,403.28,52.87Zm1-7.34v-.92h.79v.92Z"/><path class="cls-4" d="M406.28,51.06V46.39H407v.66a1.67,1.67,0,0,1,.59-.56,1.75,1.75,0,0,1,1.68,0,1.11,1.11,0,0,1,.46.6,1.69,1.69,0,0,1,1.45-.82,1.4,1.4,0,0,1,1.06.39,1.62,1.62,0,0,1,.38,1.18v3.21h-.79V48.12a2.22,2.22,0,0,0-.08-.69.6.6,0,0,0-.28-.33A.81.81,0,0,0,411,47a1.11,1.11,0,0,0-.82.33,1.48,1.48,0,0,0-.32,1.05v2.71h-.79V48a1.33,1.33,0,0,0-.2-.79.75.75,0,0,0-.63-.26,1.15,1.15,0,0,0-.62.18,1,1,0,0,0-.41.51,3.06,3.06,0,0,0-.12,1v2.43Z"/><path class="cls-4" d="M414,47.29v-.9h.9v.9Zm0,3.77v-.9h.9v.9Z"/><path class="cls-4" d="M423.11,44.61H424v3.73a4.33,4.33,0,0,1-.22,1.54,1.86,1.86,0,0,1-.79.93,2.79,2.79,0,0,1-1.51.36,3.09,3.09,0,0,1-1.48-.32,1.76,1.76,0,0,1-.82-.9,4.37,4.37,0,0,1-.24-1.61V44.61h.85v3.72a3.8,3.8,0,0,0,.15,1.24,1.23,1.23,0,0,0,.54.61,1.78,1.78,0,0,0,.93.22,1.75,1.75,0,0,0,1.34-.43,2.43,2.43,0,0,0,.4-1.64Z"/><path class="cls-4" d="M427,50.35l.11.7a3.46,3.46,0,0,1-.6.07,1.32,1.32,0,0,1-.66-.14.79.79,0,0,1-.34-.36,2.89,2.89,0,0,1-.1-.93V47h-.58v-.61h.58V45.23l.79-.47v1.63h.8V47h-.8v2.73a1.76,1.76,0,0,0,0,.44.34.34,0,0,0,.14.15.49.49,0,0,0,.27.06Z"/><path class="cls-4" d="M427.79,45.52v-.91h.79v.91Zm0,5.54V46.39h.79v4.67Z"/><path class="cls-4" d="M429.76,51.06V44.61h.79v6.45Z"/><path class="cls-4" d="M431.78,45.52v-.91h.8v.91Zm0,5.54V46.39h.8v4.67Z"/><path class="cls-4" d="M436.81,51.06v-.59a1.46,1.46,0,0,1-1.31.69,1.78,1.78,0,0,1-1-.31,2,2,0,0,1-.73-.85,3,3,0,0,1-.26-1.27,3.23,3.23,0,0,1,.24-1.27,1.78,1.78,0,0,1,.69-.87,1.85,1.85,0,0,1,1.05-.31,1.54,1.54,0,0,1,.75.18,1.51,1.51,0,0,1,.53.47V44.61h.79v6.45Zm-2.5-2.33a2,2,0,0,0,.37,1.34,1.17,1.17,0,0,0,.9.44,1.13,1.13,0,0,0,.88-.42,2,2,0,0,0,.36-1.3,2.17,2.17,0,0,0-.37-1.4,1.13,1.13,0,0,0-.91-.45,1.09,1.09,0,0,0-.88.43A2.11,2.11,0,0,0,434.31,48.73Z"/><path class="cls-4" d="M441.83,50.48A3,3,0,0,1,441,51a2.58,2.58,0,0,1-.88.15,1.7,1.7,0,0,1-1.18-.37,1.25,1.25,0,0,1-.41-1,1.33,1.33,0,0,1,.15-.63,1.28,1.28,0,0,1,.41-.45,1.85,1.85,0,0,1,.57-.26,6.48,6.48,0,0,1,.7-.12,7,7,0,0,0,1.41-.28,1.92,1.92,0,0,0,0-.2.91.91,0,0,0-.22-.68,1.35,1.35,0,0,0-.91-.27,1.4,1.4,0,0,0-.82.19,1.18,1.18,0,0,0-.39.7l-.78-.11a1.9,1.9,0,0,1,.35-.8,1.52,1.52,0,0,1,.7-.47,3.1,3.1,0,0,1,1.06-.17,2.89,2.89,0,0,1,1,.14,1.38,1.38,0,0,1,.55.36,1.12,1.12,0,0,1,.24.54,3.78,3.78,0,0,1,.05.73V49.1a13.21,13.21,0,0,0,0,1.4,2,2,0,0,0,.21.56H442A1.71,1.71,0,0,1,441.83,50.48Zm-.07-1.77a5.35,5.35,0,0,1-1.29.3,3.22,3.22,0,0,0-.69.16.72.72,0,0,0-.31.26.7.7,0,0,0-.11.37.66.66,0,0,0,.24.53,1,1,0,0,0,.7.21,1.52,1.52,0,0,0,.81-.2,1.2,1.2,0,0,0,.53-.54,2.07,2.07,0,0,0,.12-.8Z"/><path class="cls-4" d="M446.82,51.06v-.59a1.46,1.46,0,0,1-1.31.69,1.78,1.78,0,0,1-1-.31,2,2,0,0,1-.73-.85,3,3,0,0,1-.26-1.27,3.23,3.23,0,0,1,.24-1.27,1.85,1.85,0,0,1,1.74-1.18,1.54,1.54,0,0,1,.75.18,1.51,1.51,0,0,1,.53.47V44.61h.79v6.45Zm-2.5-2.33a2,2,0,0,0,.37,1.34,1.19,1.19,0,0,0,.9.44,1.13,1.13,0,0,0,.88-.42,2,2,0,0,0,.36-1.3,2.17,2.17,0,0,0-.37-1.4,1.13,1.13,0,0,0-.91-.45,1.09,1.09,0,0,0-.88.43A2.11,2.11,0,0,0,444.32,48.73Z"/><path class="cls-4" d="M451.3,51.06V46.39H452v.66a1.67,1.67,0,0,1,1.48-.77,2,2,0,0,1,.78.16,1.29,1.29,0,0,1,.53.39,1.42,1.42,0,0,1,.24.59,4.22,4.22,0,0,1,0,.77v2.87h-.79V48.22a1.87,1.87,0,0,0-.1-.72.81.81,0,0,0-.32-.39,1.1,1.1,0,0,0-.55-.14,1.32,1.32,0,0,0-.88.32,1.6,1.6,0,0,0-.36,1.22v2.55Z"/><path class="cls-4" d="M459.5,49.55l.81.1a2.07,2.07,0,0,1-.71,1.12,2.19,2.19,0,0,1-1.34.39,2.13,2.13,0,0,1-1.62-.63,2.46,2.46,0,0,1-.6-1.77,2.62,2.62,0,0,1,.6-1.83,2.08,2.08,0,0,1,1.58-.65,2,2,0,0,1,1.53.64,2.56,2.56,0,0,1,.59,1.79,2,2,0,0,1,0,.22h-3.48a1.78,1.78,0,0,0,.44,1.17,1.27,1.27,0,0,0,1,.41,1.18,1.18,0,0,0,.75-.23A1.51,1.51,0,0,0,459.5,49.55Zm-2.6-1.27h2.6a1.59,1.59,0,0,0-.29-.89,1.24,1.24,0,0,0-1-.46,1.28,1.28,0,0,0-.92.37A1.4,1.4,0,0,0,456.9,48.28Z"/><path class="cls-4" d="M463,50.35l.12.7a3.57,3.57,0,0,1-.6.07,1.36,1.36,0,0,1-.67-.14.72.72,0,0,1-.33-.36,2.62,2.62,0,0,1-.1-.93V47h-.58v-.61h.58V45.23l.79-.47v1.63H463V47h-.79v2.73a1.37,1.37,0,0,0,0,.44.29.29,0,0,0,.14.15.49.49,0,0,0,.27.06Z"/><path class="cls-4" d="M466.85,50.48A2.84,2.84,0,0,1,466,51a2.54,2.54,0,0,1-.88.15,1.7,1.7,0,0,1-1.18-.37,1.25,1.25,0,0,1-.41-1,1.33,1.33,0,0,1,.15-.63,1.28,1.28,0,0,1,.41-.45,1.85,1.85,0,0,1,.57-.26,6.31,6.31,0,0,1,.71-.12,7.33,7.33,0,0,0,1.41-.28v-.2a.87.87,0,0,0-.22-.68,1.34,1.34,0,0,0-.9-.27,1.41,1.41,0,0,0-.83.19,1.23,1.23,0,0,0-.39.7l-.78-.11a2,2,0,0,1,.35-.8,1.57,1.57,0,0,1,.7-.47,3.1,3.1,0,0,1,1.06-.17,2.89,2.89,0,0,1,1,.14,1.38,1.38,0,0,1,.55.36,1.23,1.23,0,0,1,.25.54,5.29,5.29,0,0,1,0,.73V49.1a10.14,10.14,0,0,0,.05,1.4,1.71,1.71,0,0,0,.2.56H467A2,2,0,0,1,466.85,50.48Zm-.06-1.77a5.6,5.6,0,0,1-1.29.3,3.19,3.19,0,0,0-.7.16.79.79,0,0,0-.31.26.7.7,0,0,0-.11.37.66.66,0,0,0,.24.53,1,1,0,0,0,.7.21,1.58,1.58,0,0,0,.82-.2,1.23,1.23,0,0,0,.52-.54,2,2,0,0,0,.13-.8Z"/><path class="cls-3" d="M206.13,41.06V34.61h1.3v6.45Z"/><path class="cls-3" d="M212.91,41.06h-1.24V38.67a3.29,3.29,0,0,0-.08-1,.65.65,0,0,0-.25-.35.75.75,0,0,0-.43-.12,1,1,0,0,0-.58.17,1,1,0,0,0-.35.47,4.19,4.19,0,0,0-.09,1.07v2.12h-1.24V36.39h1.15v.69a1.9,1.9,0,0,1,2.29-.65,1.36,1.36,0,0,1,.51.38,1.46,1.46,0,0,1,.24.52,4.19,4.19,0,0,1,.07.83Z"/><path class="cls-3" d="M218.44,41.06h-1.15v-.69a1.81,1.81,0,0,1-.67.6,1.76,1.76,0,0,1-2.16-.46,2.58,2.58,0,0,1-.58-1.8,2.61,2.61,0,0,1,.56-1.81,1.82,1.82,0,0,1,1.41-.62,1.79,1.79,0,0,1,1.36.65V34.61h1.23Zm-3.3-2.44a2.09,2.09,0,0,0,.21,1.08.93.93,0,0,0,.84.49.89.89,0,0,0,.72-.37,1.66,1.66,0,0,0,.3-1.08,1.88,1.88,0,0,0-.29-1.16.92.92,0,0,0-.74-.35.94.94,0,0,0-.74.35A1.56,1.56,0,0,0,215.14,38.62Z"/><path class="cls-3" d="M219.66,35.76V34.61h1.23v1.15Zm0,5.3V36.39h1.23v4.67Z"/><path class="cls-3" d="M226.23,37.77,225,38a.86.86,0,0,0-.28-.55.84.84,0,0,0-.56-.18.92.92,0,0,0-.74.31,1.68,1.68,0,0,0-.27,1.07,1.94,1.94,0,0,0,.27,1.17.93.93,0,0,0,.75.35.85.85,0,0,0,.58-.2,1.31,1.31,0,0,0,.32-.69l1.21.2a2.2,2.2,0,0,1-.73,1.27,2.23,2.23,0,0,1-1.43.42,2.15,2.15,0,0,1-1.64-.64,2.54,2.54,0,0,1-.61-1.79,2.51,2.51,0,0,1,.62-1.8,2.15,2.15,0,0,1,1.65-.65,2.25,2.25,0,0,1,1.35.37A2.06,2.06,0,0,1,226.23,37.77Z"/><path class="cls-3" d="M228.08,37.81l-1.12-.2a1.77,1.77,0,0,1,.66-1,2.33,2.33,0,0,1,1.37-.33,3,3,0,0,1,1.23.2,1.24,1.24,0,0,1,.57.5,2.55,2.55,0,0,1,.16,1.1v1.44a5,5,0,0,0,.06.91,2.64,2.64,0,0,0,.22.63H230a2.3,2.3,0,0,1-.12-.37.93.93,0,0,0,0-.14,2.23,2.23,0,0,1-.67.46,2,2,0,0,1-.77.15,1.61,1.61,0,0,1-1.14-.39,1.32,1.32,0,0,1-.41-1,1.27,1.27,0,0,1,.19-.7,1.18,1.18,0,0,1,.53-.48,4.34,4.34,0,0,1,1-.29,5.77,5.77,0,0,0,1.2-.3v-.12a.63.63,0,0,0-.18-.51,1.07,1.07,0,0,0-.66-.15.89.89,0,0,0-.52.13A1,1,0,0,0,228.08,37.81Zm1.66,1q-.24.07-.75.18a2.5,2.5,0,0,0-.68.22.51.51,0,0,0-.24.43.59.59,0,0,0,.2.45.64.64,0,0,0,.49.19,1.08,1.08,0,0,0,.64-.22.8.8,0,0,0,.29-.41,2.45,2.45,0,0,0,.05-.6Z"/><path class="cls-3" d="M236.45,41.06H235.3v-.69a1.81,1.81,0,0,1-.67.6,1.73,1.73,0,0,1-.79.19,1.78,1.78,0,0,1-1.38-.65,3.17,3.17,0,0,1,0-3.61,1.82,1.82,0,0,1,1.41-.62,1.75,1.75,0,0,1,1.35.65V34.61h1.24Zm-3.3-2.44a2.09,2.09,0,0,0,.21,1.08.93.93,0,0,0,.83.49.9.9,0,0,0,.73-.37,1.66,1.66,0,0,0,.3-1.08,1.88,1.88,0,0,0-.29-1.16.92.92,0,0,0-.74-.35.94.94,0,0,0-.74.35A1.56,1.56,0,0,0,233.15,38.62Z"/><path class="cls-3" d="M237.38,38.66a2.53,2.53,0,0,1,.3-1.19,2.09,2.09,0,0,1,.86-.88,2.48,2.48,0,0,1,1.24-.31,2.33,2.33,0,0,1,1.74.69,2.58,2.58,0,0,1,0,3.5,2.31,2.31,0,0,1-1.72.69,2.64,2.64,0,0,1-1.22-.29,2,2,0,0,1-.89-.85A2.85,2.85,0,0,1,237.38,38.66Zm1.27.06a1.56,1.56,0,0,0,.33,1.07,1.07,1.07,0,0,0,1.62,0,1.59,1.59,0,0,0,.33-1.08,1.54,1.54,0,0,0-.33-1.05,1.07,1.07,0,0,0-1.62,0A1.55,1.55,0,0,0,238.65,38.72Z"/><path class="cls-3" d="M244.35,41.06h-1.24V36.39h1.15v.66a1.92,1.92,0,0,1,.53-.62.94.94,0,0,1,.53-.15,1.52,1.52,0,0,1,.81.24l-.38,1.07a1.12,1.12,0,0,0-.58-.2.72.72,0,0,0-.44.14,1,1,0,0,0-.28.52,7.36,7.36,0,0,0-.1,1.57Z"/><path class="cls-3" d="M253.07,39.91v1.15h-4.32a2.82,2.82,0,0,1,.42-1.24,8,8,0,0,1,1.39-1.54,9.08,9.08,0,0,0,1-1.06,1.32,1.32,0,0,0,.25-.75.86.86,0,0,0-1.45-.63,1.22,1.22,0,0,0-.26.78l-1.23-.12a2,2,0,0,1,.69-1.47,2.36,2.36,0,0,1,1.45-.44,2.1,2.1,0,0,1,1.5.51,1.71,1.71,0,0,1,.54,1.28,2.31,2.31,0,0,1-.15.83,3.34,3.34,0,0,1-.5.82,8.17,8.17,0,0,1-.81.83c-.39.35-.63.59-.74.71a2.46,2.46,0,0,0-.25.34Z"/><path class="cls-3" d="M254.41,37.63V36.39h1.23v1.24Zm0,3.43V39.82h1.23v1.24Z"/><path class="cls-4" d="M206.23,51.06V44.61h4.66v.77h-3.81v2h3.56v.75h-3.56v2.2h4v.76Z"/><path class="cls-4" d="M211.11,52.87l.14-.67a1.69,1.69,0,0,0,.38.06.44.44,0,0,0,.36-.16,1.66,1.66,0,0,0,.12-.81v-4.9h.79v4.92a2.27,2.27,0,0,1-.23,1.2,1,1,0,0,1-.94.44A2.45,2.45,0,0,1,211.11,52.87Zm1-7.34v-.92h.79v.92Z"/><path class="cls-4" d="M214.11,51.06V46.39h.71v.66a1.73,1.73,0,0,1,.58-.56,1.65,1.65,0,0,1,.83-.21,1.55,1.55,0,0,1,.85.22,1.09,1.09,0,0,1,.47.6,1.69,1.69,0,0,1,1.44-.82,1.41,1.41,0,0,1,1.07.39,1.62,1.62,0,0,1,.38,1.18v3.21h-.79V48.12a2.22,2.22,0,0,0-.08-.69.6.6,0,0,0-.28-.33.81.81,0,0,0-.47-.13,1.11,1.11,0,0,0-.82.33,1.44,1.44,0,0,0-.32,1.05v2.71h-.8V48a1.34,1.34,0,0,0-.19-.79.75.75,0,0,0-.63-.26,1.15,1.15,0,0,0-.62.18,1,1,0,0,0-.41.51,3,3,0,0,0-.13,1v2.43Z"/><path class="cls-4" d="M221.83,47.29v-.9h.9v.9Zm0,3.77v-.9h.9v.9Z"/><path class="cls-4" d="M226.86,51.06V44.61h.85v6.45Z"/><path class="cls-4" d="M229.11,51.06V46.39h.71v.66a1.7,1.7,0,0,1,1.49-.77,1.93,1.93,0,0,1,.77.16,1.17,1.17,0,0,1,.53.39,1.57,1.57,0,0,1,.25.59,4.51,4.51,0,0,1,0,.77v2.87h-.79V48.22a2.13,2.13,0,0,0-.09-.72.78.78,0,0,0-.33-.39,1.07,1.07,0,0,0-.55-.14,1.28,1.28,0,0,0-.87.32,1.56,1.56,0,0,0-.37,1.22v2.55Z"/><path class="cls-4" d="M234,51.44l.77.12a.72.72,0,0,0,.27.52,1.33,1.33,0,0,0,.8.22,1.46,1.46,0,0,0,.85-.22,1.11,1.11,0,0,0,.4-.62,4.53,4.53,0,0,0,.06-1,1.64,1.64,0,0,1-1.29.61,1.75,1.75,0,0,1-1.49-.7,2.68,2.68,0,0,1-.53-1.66,3.15,3.15,0,0,1,.24-1.24,2,2,0,0,1,.7-.87,2,2,0,0,1,1.08-.31,1.71,1.71,0,0,1,1.37.67v-.56h.73v4A3.77,3.77,0,0,1,237.7,52a1.62,1.62,0,0,1-.7.72,2.48,2.48,0,0,1-1.18.26,2.23,2.23,0,0,1-1.35-.37A1.28,1.28,0,0,1,234,51.44Zm.66-2.8A2,2,0,0,0,235,50a1.16,1.16,0,0,0,.91.42,1.18,1.18,0,0,0,.92-.42,2,2,0,0,0,.37-1.31,1.94,1.94,0,0,0-.38-1.3,1.18,1.18,0,0,0-.92-.43,1.11,1.11,0,0,0-.89.43A1.87,1.87,0,0,0,234.63,48.64Z"/><path class="cls-4" d="M239.11,51.06V46.39h.71v.71a1.92,1.92,0,0,1,.51-.66.9.9,0,0,1,.5-.16,1.58,1.58,0,0,1,.82.26l-.27.73a1.21,1.21,0,0,0-.59-.17.72.72,0,0,0-.46.16.77.77,0,0,0-.29.43,3,3,0,0,0-.14.92v2.45Z"/><path class="cls-4" d="M245.31,49.55l.82.1a2,2,0,0,1-.72,1.12,2.16,2.16,0,0,1-1.33.39,2.14,2.14,0,0,1-1.63-.63,2.46,2.46,0,0,1-.6-1.77,2.62,2.62,0,0,1,.61-1.83,2.06,2.06,0,0,1,1.57-.65,2,2,0,0,1,1.53.64,2.52,2.52,0,0,1,.6,1.79s0,.12,0,.22h-3.48a1.78,1.78,0,0,0,.44,1.17,1.26,1.26,0,0,0,1,.41,1.19,1.19,0,0,0,.75-.23A1.5,1.5,0,0,0,245.31,49.55Zm-2.59-1.27h2.6a1.51,1.51,0,0,0-.3-.89,1.23,1.23,0,0,0-1-.46,1.25,1.25,0,0,0-.91.37A1.4,1.4,0,0,0,242.72,48.28Z"/><path class="cls-4" d="M246.81,49.66l.78-.12a1.1,1.1,0,0,0,.37.72,1.26,1.26,0,0,0,.84.25,1.24,1.24,0,0,0,.81-.22.68.68,0,0,0,.26-.52.48.48,0,0,0-.23-.42,3.56,3.56,0,0,0-.81-.27,7.72,7.72,0,0,1-1.21-.38,1.25,1.25,0,0,1-.51-.45,1.18,1.18,0,0,1-.17-.62,1.27,1.27,0,0,1,.14-.58,1.38,1.38,0,0,1,.39-.44,1.56,1.56,0,0,1,.5-.23,2.56,2.56,0,0,1,.69-.1,2.84,2.84,0,0,1,1,.16,1.4,1.4,0,0,1,.62.43,1.69,1.69,0,0,1,.27.72l-.78.11a.8.8,0,0,0-.3-.56,1.1,1.1,0,0,0-.72-.21,1.26,1.26,0,0,0-.77.19.52.52,0,0,0-.24.42.45.45,0,0,0,.1.27.62.62,0,0,0,.3.21l.7.21a11.21,11.21,0,0,1,1.17.36,1.21,1.21,0,0,1,.52.42,1.14,1.14,0,0,1,.19.68,1.27,1.27,0,0,1-.23.74,1.49,1.49,0,0,1-.66.54,2.4,2.4,0,0,1-1,.19,2.12,2.12,0,0,1-1.38-.38A1.74,1.74,0,0,1,246.81,49.66Z"/><path class="cls-4" d="M251.33,48.72a2.42,2.42,0,0,1,.72-1.92,2.2,2.2,0,0,1,1.47-.52,2.07,2.07,0,0,1,1.57.64,2.38,2.38,0,0,1,.61,1.74,3,3,0,0,1-.27,1.41,1.87,1.87,0,0,1-.79.81,2.27,2.27,0,0,1-1.12.28,2.11,2.11,0,0,1-1.59-.63A2.5,2.5,0,0,1,251.33,48.72Zm.81,0a2,2,0,0,0,.39,1.35,1.28,1.28,0,0,0,1,.44,1.25,1.25,0,0,0,1-.45,2,2,0,0,0,.39-1.36,2,2,0,0,0-.39-1.32,1.32,1.32,0,0,0-2,0A2,2,0,0,0,252.14,48.72Z"/><path class="cls-4" d="M256.31,49.66l.78-.12a1.14,1.14,0,0,0,.37.72,1.26,1.26,0,0,0,.84.25,1.21,1.21,0,0,0,.81-.22.66.66,0,0,0,.27-.52.47.47,0,0,0-.24-.42,3.56,3.56,0,0,0-.81-.27,7.17,7.17,0,0,1-1.2-.38,1.13,1.13,0,0,1-.51-.45,1.1,1.1,0,0,1-.18-.62,1.27,1.27,0,0,1,.54-1,1.56,1.56,0,0,1,.5-.23,2.48,2.48,0,0,1,.68-.1,2.86,2.86,0,0,1,1,.16,1.37,1.37,0,0,1,.61.43,1.69,1.69,0,0,1,.27.72l-.77.11a.85.85,0,0,0-.31-.56,1.07,1.07,0,0,0-.71-.21,1.31,1.31,0,0,0-.78.19.53.53,0,0,0-.23.42.44.44,0,0,0,.09.27.66.66,0,0,0,.31.21l.7.21a11.21,11.21,0,0,1,1.17.36A1.28,1.28,0,0,1,260,49a1.21,1.21,0,0,1,.19.68,1.34,1.34,0,0,1-.23.74,1.58,1.58,0,0,1-.67.54,2.38,2.38,0,0,1-1,.19,2.15,2.15,0,0,1-1.39-.38A1.74,1.74,0,0,1,256.31,49.66Z"/><path class="cls-4" d="M213,12.73V6.28h1.3v6.45Z"/><path class="cls-4" d="M219.76,12.73h-1.24V10.34a3.29,3.29,0,0,0-.08-1,.7.7,0,0,0-.25-.35.77.77,0,0,0-.43-.12,1,1,0,0,0-.58.17.9.9,0,0,0-.35.47,4.19,4.19,0,0,0-.09,1.07v2.12H215.5V8.06h1.15v.68A1.89,1.89,0,0,1,218.19,8a1.78,1.78,0,0,1,.74.15,1.24,1.24,0,0,1,.52.38,1.46,1.46,0,0,1,.24.52,4.11,4.11,0,0,1,.07.83Z"/><path class="cls-4" d="M225.08,9.44l-1.22.22a.86.86,0,0,0-.28-.55.84.84,0,0,0-.56-.19.93.93,0,0,0-.74.32,1.68,1.68,0,0,0-.27,1.07,1.86,1.86,0,0,0,.28,1.17.9.9,0,0,0,.75.35.84.84,0,0,0,.57-.2,1.24,1.24,0,0,0,.32-.69l1.21.2a2.24,2.24,0,0,1-.72,1.27,2.28,2.28,0,0,1-1.44.42,2.11,2.11,0,0,1-1.63-.64,2.51,2.51,0,0,1-.61-1.79,2.5,2.5,0,0,1,.61-1.8A2.16,2.16,0,0,1,223,8a2.31,2.31,0,0,1,1.36.37A2.11,2.11,0,0,1,225.08,9.44Z"/><path class="cls-4" d="M227.2,12.73H226V8.06h1.15v.66a1.92,1.92,0,0,1,.53-.62.94.94,0,0,1,.53-.15,1.58,1.58,0,0,1,.82.24l-.39,1.07a1.12,1.12,0,0,0-.58-.2.72.72,0,0,0-.44.14,1,1,0,0,0-.28.52,7.31,7.31,0,0,0-.1,1.56Z"/><path class="cls-4" d="M232.22,11.24l1.23.21a2.06,2.06,0,0,1-.75,1,2.24,2.24,0,0,1-1.28.35,2.08,2.08,0,0,1-1.8-.79,2.67,2.67,0,0,1-.46-1.61,2.59,2.59,0,0,1,.6-1.82A2,2,0,0,1,231.3,8a2.07,2.07,0,0,1,1.64.69,3.09,3.09,0,0,1,.58,2.11h-3.1a1.25,1.25,0,0,0,.3.85.92.92,0,0,0,.71.31.72.72,0,0,0,.49-.16A1,1,0,0,0,232.22,11.24Zm.07-1.25a1.15,1.15,0,0,0-.28-.81.83.83,0,0,0-.64-.28.88.88,0,0,0-.67.29,1.2,1.2,0,0,0-.26.8Z"/><path class="cls-4" d="M234.43,8.06h1.14V8.7A1.82,1.82,0,0,1,237,8a1.5,1.5,0,0,1,.78.19,1.39,1.39,0,0,1,.54.56,2.15,2.15,0,0,1,.67-.56,1.53,1.53,0,0,1,.76-.19,1.64,1.64,0,0,1,.86.21,1.31,1.31,0,0,1,.54.62,2.75,2.75,0,0,1,.12,1v3h-1.23V10.06a1.94,1.94,0,0,0-.13-.9.59.59,0,0,0-.53-.26.87.87,0,0,0-.81.62,3.24,3.24,0,0,0-.1,1v2.25h-1.24V10.17a3.85,3.85,0,0,0-.06-.88A.59.59,0,0,0,237,9a.6.6,0,0,0-.37-.1.93.93,0,0,0-.52.15.86.86,0,0,0-.33.45,3.56,3.56,0,0,0-.09,1v2.27h-1.24Z"/><path class="cls-4" d="M245.23,11.24l1.23.21a2.06,2.06,0,0,1-.75,1,2.24,2.24,0,0,1-1.28.35,2.08,2.08,0,0,1-1.8-.79,2.67,2.67,0,0,1-.47-1.61,2.6,2.6,0,0,1,.61-1.82A2,2,0,0,1,244.3,8a2.07,2.07,0,0,1,1.65.69,3,3,0,0,1,.57,2.11h-3.09a1.25,1.25,0,0,0,.3.85.92.92,0,0,0,.71.31.74.74,0,0,0,.49-.16A1,1,0,0,0,245.23,11.24ZM245.3,10a1.15,1.15,0,0,0-.28-.81.83.83,0,0,0-.64-.28.88.88,0,0,0-.67.29,1.2,1.2,0,0,0-.26.8Z"/><path class="cls-4" d="M251.78,12.73h-1.24V10.34a3.7,3.7,0,0,0-.08-1,.7.7,0,0,0-.25-.35.77.77,0,0,0-.43-.12,1,1,0,0,0-.58.17.9.9,0,0,0-.35.47,4.19,4.19,0,0,0-.09,1.07v2.12h-1.24V8.06h1.15v.68A1.89,1.89,0,0,1,250.21,8a1.78,1.78,0,0,1,.74.15,1.24,1.24,0,0,1,.52.38,1.46,1.46,0,0,1,.24.52,4.11,4.11,0,0,1,.07.83Z"/><path class="cls-4" d="M255.17,8.06V9h-.85v1.88a3.82,3.82,0,0,0,0,.67.25.25,0,0,0,.11.16.35.35,0,0,0,.21.06,1.54,1.54,0,0,0,.49-.12l.11,1a2.52,2.52,0,0,1-1,.18,1.64,1.64,0,0,1-.6-.11.87.87,0,0,1-.39-.29,1.18,1.18,0,0,1-.18-.48,7.26,7.26,0,0,1,0-.87V9h-.56v-1h.56V7.13l1.24-.72V8.06Z"/><path class="cls-4" d="M257,9.48l-1.12-.2a1.71,1.71,0,0,1,.65-1A2.35,2.35,0,0,1,257.85,8a3,3,0,0,1,1.23.2,1.24,1.24,0,0,1,.57.5,2.52,2.52,0,0,1,.16,1.1v1.44a5,5,0,0,0,.06.91,2.64,2.64,0,0,0,.22.63h-1.22l-.12-.37c0-.07,0-.12,0-.14a2.27,2.27,0,0,1-.68.46,2,2,0,0,1-.77.15,1.57,1.57,0,0,1-1.13-.39,1.29,1.29,0,0,1-.42-1,1.27,1.27,0,0,1,.19-.7,1.18,1.18,0,0,1,.53-.48,4.51,4.51,0,0,1,1-.29,6.29,6.29,0,0,0,1.2-.3V9.56a.63.63,0,0,0-.18-.51,1,1,0,0,0-.66-.15.84.84,0,0,0-.51.13A.81.81,0,0,0,257,9.48Zm1.65,1a5.62,5.62,0,0,1-.75.19,2.4,2.4,0,0,0-.67.22.5.5,0,0,0-.25.43.59.59,0,0,0,.2.45.66.66,0,0,0,.49.19,1.08,1.08,0,0,0,.64-.22.78.78,0,0,0,.29-.41,2.45,2.45,0,0,0,.05-.6Z"/><path class="cls-4" d="M262.21,12.73H261V8.06h1.14v.66a2.2,2.2,0,0,1,.53-.62,1,1,0,0,1,.54-.15,1.52,1.52,0,0,1,.81.24l-.38,1.07a1.12,1.12,0,0,0-.58-.2.72.72,0,0,0-.44.14,1,1,0,0,0-.28.52,7.09,7.09,0,0,0-.11,1.56Z"/><path class="cls-4" d="M268.32,12.73l-1.88-4.67h1.29l.88,2.38.26.8.12-.4c0-.14.09-.27.13-.4L270,8.06h1.27l-1.85,4.67Z"/><path class="cls-4" d="M273,9.48l-1.12-.2a1.76,1.76,0,0,1,.65-1A2.37,2.37,0,0,1,273.86,8a3,3,0,0,1,1.23.2,1.24,1.24,0,0,1,.57.5,2.48,2.48,0,0,1,.17,1.1l0,1.44a5,5,0,0,0,.06.91,3.17,3.17,0,0,0,.22.63h-1.22l-.12-.37c0-.07,0-.12,0-.14a2.27,2.27,0,0,1-.68.46,2,2,0,0,1-.77.15,1.58,1.58,0,0,1-1.13-.39,1.29,1.29,0,0,1-.42-1,1.36,1.36,0,0,1,.19-.7,1.29,1.29,0,0,1,.53-.48,4.7,4.7,0,0,1,1-.29,6.29,6.29,0,0,0,1.2-.3V9.56a.66.66,0,0,0-.17-.51,1.08,1.08,0,0,0-.67-.15.84.84,0,0,0-.51.13A.93.93,0,0,0,273,9.48Zm1.65,1a4.89,4.89,0,0,1-.75.19,2.4,2.4,0,0,0-.67.22.51.51,0,0,0-.24.43.58.58,0,0,0,.19.45.66.66,0,0,0,.49.19,1,1,0,0,0,.64-.22.8.8,0,0,0,.3-.41,2.63,2.63,0,0,0,0-.6Z"/><path class="cls-4" d="M277,12.73V6.28h1.24v6.45Z"/><path class="cls-4" d="M279.26,10.33a2.53,2.53,0,0,1,.3-1.19,2,2,0,0,1,.86-.88A2.48,2.48,0,0,1,281.66,8a2.33,2.33,0,0,1,1.74.69,2.39,2.39,0,0,1,.68,1.74,2.37,2.37,0,0,1-.69,1.75,2.28,2.28,0,0,1-1.72.7,2.74,2.74,0,0,1-1.22-.29,2,2,0,0,1-.89-.85A2.85,2.85,0,0,1,279.26,10.33Zm1.26.06a1.56,1.56,0,0,0,.33,1.07,1.08,1.08,0,0,0,1.63,0,1.58,1.58,0,0,0,.32-1.08,1.53,1.53,0,0,0-.32-1.05,1.08,1.08,0,0,0-1.63,0A1.55,1.55,0,0,0,280.52,10.39Z"/><path class="cls-4" d="M286.22,12.73H285V8.06h1.15v.66a1.92,1.92,0,0,1,.53-.62A.94.94,0,0,1,287.2,8a1.52,1.52,0,0,1,.81.24l-.38,1.07a1.12,1.12,0,0,0-.58-.2.72.72,0,0,0-.44.14,1,1,0,0,0-.28.52,7.09,7.09,0,0,0-.11,1.56Z"/><path class="cls-4" d="M291,8.06h1.15v.68a1.76,1.76,0,0,1,.61-.57,1.71,1.71,0,0,1,.85-.22,1.8,1.8,0,0,1,1.38.64,2.64,2.64,0,0,1,.56,1.78,2.64,2.64,0,0,1-.57,1.81,1.75,1.75,0,0,1-1.38.65,1.6,1.6,0,0,1-.7-.15,2.45,2.45,0,0,1-.67-.53V14.5H291Zm1.22,2.25a1.82,1.82,0,0,0,.31,1.17,1,1,0,0,0,.76.37.89.89,0,0,0,.72-.34,1.79,1.79,0,0,0,.28-1.13A1.65,1.65,0,0,0,294,9.29a.91.91,0,0,0-.73-.36,1,1,0,0,0-.75.35A1.54,1.54,0,0,0,292.23,10.31Z"/><path class="cls-4" d="M297.46,9.48l-1.12-.2a1.77,1.77,0,0,1,.66-1A2.33,2.33,0,0,1,298.37,8a3,3,0,0,1,1.23.2,1.24,1.24,0,0,1,.57.5,2.52,2.52,0,0,1,.16,1.1v1.44a5,5,0,0,0,.06.91,2.64,2.64,0,0,0,.22.63h-1.22a2.3,2.3,0,0,1-.12-.37.93.93,0,0,0-.05-.14,2.23,2.23,0,0,1-.67.46,2,2,0,0,1-.77.15,1.61,1.61,0,0,1-1.14-.39,1.32,1.32,0,0,1-.41-1,1.27,1.27,0,0,1,.19-.7,1.18,1.18,0,0,1,.53-.48,4.34,4.34,0,0,1,1-.29,6.51,6.51,0,0,0,1.2-.3V9.56a.63.63,0,0,0-.18-.51,1.07,1.07,0,0,0-.66-.15.89.89,0,0,0-.52.13A.93.93,0,0,0,297.46,9.48Zm1.66,1a5.62,5.62,0,0,1-.75.19,2.5,2.5,0,0,0-.68.22.51.51,0,0,0-.24.43.59.59,0,0,0,.2.45.64.64,0,0,0,.49.19,1.08,1.08,0,0,0,.64-.22.84.84,0,0,0,.29-.41,2.45,2.45,0,0,0,.05-.6Z"/><path class="cls-4" d="M302.73,12.73H301.5V8.06h1.14v.66a2.2,2.2,0,0,1,.53-.62,1,1,0,0,1,.54-.15,1.52,1.52,0,0,1,.81.24l-.38,1.07a1.12,1.12,0,0,0-.58-.2.7.7,0,0,0-.44.14,1,1,0,0,0-.29.52,7.31,7.31,0,0,0-.1,1.56Z"/><path class="cls-4" d="M306,9.48l-1.12-.2a1.81,1.81,0,0,1,.65-1A2.37,2.37,0,0,1,306.87,8a3,3,0,0,1,1.23.2,1.24,1.24,0,0,1,.57.5,2.48,2.48,0,0,1,.17,1.1v1.44a5.16,5.16,0,0,0,.05.91,2.7,2.7,0,0,0,.23.63h-1.23c0-.09-.07-.21-.11-.37a.93.93,0,0,0,0-.14,2.15,2.15,0,0,1-.68.46,1.94,1.94,0,0,1-.76.15,1.61,1.61,0,0,1-1.14-.39,1.29,1.29,0,0,1-.42-1,1.36,1.36,0,0,1,.19-.7,1.29,1.29,0,0,1,.53-.48,4.63,4.63,0,0,1,1-.29,6.34,6.34,0,0,0,1.19-.3V9.56a.63.63,0,0,0-.17-.51,1.07,1.07,0,0,0-.66-.15.87.87,0,0,0-.52.13A.93.93,0,0,0,306,9.48Zm1.65,1a4.89,4.89,0,0,1-.75.19,2.53,2.53,0,0,0-.67.22.51.51,0,0,0-.24.43.58.58,0,0,0,.19.45.68.68,0,0,0,.5.19,1,1,0,0,0,.63-.22.8.8,0,0,0,.3-.41,2.63,2.63,0,0,0,0-.6Z"/><path class="cls-4" d="M216,22.73V16.28h1.24v6.45Z"/><path class="cls-4" d="M218.24,20.33a2.53,2.53,0,0,1,.3-1.19,2,2,0,0,1,.86-.88,2.48,2.48,0,0,1,1.24-.31,2.33,2.33,0,0,1,1.74.69,2.38,2.38,0,0,1,.67,1.74,2.36,2.36,0,0,1-.68,1.75,2.28,2.28,0,0,1-1.72.7,2.74,2.74,0,0,1-1.22-.29,2,2,0,0,1-.89-.85A2.85,2.85,0,0,1,218.24,20.33Zm1.26.06a1.56,1.56,0,0,0,.33,1.07,1.08,1.08,0,0,0,1.63,0,1.59,1.59,0,0,0,.33-1.08,1.54,1.54,0,0,0-.33-1.05,1.08,1.08,0,0,0-1.63,0A1.55,1.55,0,0,0,219.5,20.39Z"/><path class="cls-4" d="M223.59,21.39l1.24-.18a.87.87,0,0,0,.32.54,1,1,0,0,0,.67.19,1.19,1.19,0,0,0,.72-.18.39.39,0,0,0,.17-.33.32.32,0,0,0-.09-.23,1,1,0,0,0-.41-.16,6.81,6.81,0,0,1-1.9-.6,1.22,1.22,0,0,1-.55-1.05,1.28,1.28,0,0,1,.48-1,2.2,2.2,0,0,1,1.48-.42,2.59,2.59,0,0,1,1.43.32,1.57,1.57,0,0,1,.64.92l-1.17.21a.68.68,0,0,0-.28-.41,1,1,0,0,0-.6-.15,1.32,1.32,0,0,0-.69.14.28.28,0,0,0-.14.25.26.26,0,0,0,.12.22,4.59,4.59,0,0,0,1.15.35,3.39,3.39,0,0,1,1.38.55,1.13,1.13,0,0,1,.39.92,1.41,1.41,0,0,1-.54,1.1,2.38,2.38,0,0,1-1.59.46,2.6,2.6,0,0,1-1.51-.39A1.71,1.71,0,0,1,223.59,21.39Z"/><path class="cls-4" d="M231.41,23l1.41.18a.48.48,0,0,0,.17.33.89.89,0,0,0,.55.13,1.46,1.46,0,0,0,.73-.14.59.59,0,0,0,.24-.31,1.78,1.78,0,0,0,.06-.57V22a1.69,1.69,0,0,1-1.4.76,1.73,1.73,0,0,1-1.49-.8,2.68,2.68,0,0,1-.43-1.56,2.58,2.58,0,0,1,.57-1.8,1.81,1.81,0,0,1,1.4-.62,1.73,1.73,0,0,1,1.43.76v-.65h1.15v4.19a4.2,4.2,0,0,1-.13,1.23,1.54,1.54,0,0,1-.38.64,1.75,1.75,0,0,1-.66.37,3.42,3.42,0,0,1-1,.13,2.68,2.68,0,0,1-1.68-.41,1.25,1.25,0,0,1-.5-1Zm1.11-2.73a1.68,1.68,0,0,0,.28,1.08.91.91,0,0,0,.71.35,1,1,0,0,0,.77-.36,1.5,1.5,0,0,0,.31-1,1.62,1.62,0,0,0-.3-1.08,1,1,0,0,0-.75-.35.93.93,0,0,0-.74.34A1.64,1.64,0,0,0,232.52,20.3Z"/><path class="cls-4" d="M238.21,22.73H237V18.06h1.15v.66a2.05,2.05,0,0,1,.53-.62,1,1,0,0,1,.53-.15,1.58,1.58,0,0,1,.82.24l-.39,1.07a1.09,1.09,0,0,0-.58-.2.72.72,0,0,0-.44.14,1,1,0,0,0-.28.52,7.31,7.31,0,0,0-.1,1.56Z"/><path class="cls-4" d="M243.6,22.73V22a1.83,1.83,0,0,1-.67.59,1.93,1.93,0,0,1-.88.21,1.8,1.8,0,0,1-.84-.2,1.26,1.26,0,0,1-.54-.58,2.65,2.65,0,0,1-.17-1v-3h1.24V20.2a6.78,6.78,0,0,0,.06,1.21.69.69,0,0,0,.25.35.76.76,0,0,0,.46.13,1,1,0,0,0,.57-.17.93.93,0,0,0,.34-.43,5.11,5.11,0,0,0,.09-1.26v-2h1.24v4.67Z"/><path class="cls-4" d="M246,18.06h1.15v.68a1.76,1.76,0,0,1,.61-.57,1.73,1.73,0,0,1,.85-.22,1.8,1.8,0,0,1,1.38.64,2.64,2.64,0,0,1,.56,1.78,2.64,2.64,0,0,1-.57,1.81,1.75,1.75,0,0,1-1.38.65,1.6,1.6,0,0,1-.7-.15,2.45,2.45,0,0,1-.67-.53V24.5H246Zm1.22,2.25a1.88,1.88,0,0,0,.31,1.17,1,1,0,0,0,.76.37.89.89,0,0,0,.72-.34,1.78,1.78,0,0,0,.29-1.13,1.65,1.65,0,0,0-.3-1.09.91.91,0,0,0-.73-.36,1,1,0,0,0-.75.35A1.54,1.54,0,0,0,247.21,20.31Z"/><path class="cls-4" d="M251.24,20.33a2.53,2.53,0,0,1,.3-1.19,2,2,0,0,1,.86-.88,2.46,2.46,0,0,1,1.24-.31,2.33,2.33,0,0,1,1.74.69,2.38,2.38,0,0,1,.67,1.74,2.36,2.36,0,0,1-.68,1.75,2.28,2.28,0,0,1-1.72.7,2.71,2.71,0,0,1-1.22-.29,2,2,0,0,1-.89-.85A2.85,2.85,0,0,1,251.24,20.33Zm1.26.06a1.56,1.56,0,0,0,.33,1.07,1.08,1.08,0,0,0,1.63,0,1.64,1.64,0,0,0,.32-1.08,1.59,1.59,0,0,0-.32-1.05,1.08,1.08,0,0,0-1.63,0A1.55,1.55,0,0,0,252.5,20.39Z"/><path class="cls-4" d="M256.59,21.39l1.24-.18a.83.83,0,0,0,.32.54,1,1,0,0,0,.67.19,1.19,1.19,0,0,0,.72-.18.39.39,0,0,0,.17-.33.32.32,0,0,0-.09-.23,1,1,0,0,0-.41-.16,6.81,6.81,0,0,1-1.9-.6,1.22,1.22,0,0,1-.55-1.05,1.28,1.28,0,0,1,.48-1,2.2,2.2,0,0,1,1.48-.42,2.61,2.61,0,0,1,1.43.32,1.57,1.57,0,0,1,.64.92l-1.17.21a.68.68,0,0,0-.28-.41,1,1,0,0,0-.6-.15,1.39,1.39,0,0,0-.7.14.3.3,0,0,0-.14.25.27.27,0,0,0,.13.22,4.59,4.59,0,0,0,1.15.35,3.39,3.39,0,0,1,1.38.55,1.13,1.13,0,0,1,.39.92,1.41,1.41,0,0,1-.54,1.1,2.38,2.38,0,0,1-1.59.46,2.6,2.6,0,0,1-1.51-.39A1.71,1.71,0,0,1,256.59,21.39Z"/><path class="cls-4" d="M268.81,22.73h-1.15V22a1.81,1.81,0,0,1-.67.6,1.77,1.77,0,0,1-2.17-.46,2.63,2.63,0,0,1-.57-1.8,2.61,2.61,0,0,1,.56-1.81,1.82,1.82,0,0,1,1.41-.62,1.75,1.75,0,0,1,1.35.65V16.28h1.24Zm-3.3-2.44a2.09,2.09,0,0,0,.21,1.08,1,1,0,0,0,.83.49.92.92,0,0,0,.73-.37,1.66,1.66,0,0,0,.3-1.08,1.86,1.86,0,0,0-.29-1.16.94.94,0,0,0-.75-.35.9.9,0,0,0-.73.35A1.56,1.56,0,0,0,265.51,20.29Z"/><path class="cls-4" d="M272.73,21.24l1.23.21a2.06,2.06,0,0,1-.75,1,2.24,2.24,0,0,1-1.28.35,2.1,2.1,0,0,1-1.81-.79,2.74,2.74,0,0,1-.46-1.61,2.6,2.6,0,0,1,.61-1.82A2,2,0,0,1,271.8,18a2.07,2.07,0,0,1,1.65.69,3,3,0,0,1,.57,2.11h-3.09a1.25,1.25,0,0,0,.3.85.92.92,0,0,0,.71.31.74.74,0,0,0,.49-.16A1,1,0,0,0,272.73,21.24ZM272.8,20a1.15,1.15,0,0,0-.28-.81.84.84,0,0,0-.64-.28.88.88,0,0,0-.67.29,1.15,1.15,0,0,0-.26.8Z"/><path class="cls-4" d="M277.53,17.43V16.28h1.23v1.15Zm0,5.3V18.06h1.23v4.67Z"/><path class="cls-4" d="M284.28,22.73H283V20.34a3.7,3.7,0,0,0-.08-1,.7.7,0,0,0-.25-.35.77.77,0,0,0-.43-.12,1,1,0,0,0-.58.17.9.9,0,0,0-.35.47,4.19,4.19,0,0,0-.09,1.07v2.12H280V18.06h1.15v.68a1.89,1.89,0,0,1,1.54-.79,1.78,1.78,0,0,1,.74.15,1.24,1.24,0,0,1,.52.38,1.46,1.46,0,0,1,.24.52,4.11,4.11,0,0,1,.07.83Z"/><path class="cls-4" d="M287.67,18.06v1h-.85v1.88a3.82,3.82,0,0,0,0,.67.25.25,0,0,0,.11.16.35.35,0,0,0,.21.06,1.54,1.54,0,0,0,.49-.12l.11,1a2.52,2.52,0,0,1-1,.18,1.64,1.64,0,0,1-.6-.11.87.87,0,0,1-.39-.29,1.18,1.18,0,0,1-.18-.48,7.26,7.26,0,0,1,0-.87V19H285v-1h.56v-.93l1.24-.72v1.65Z"/><path class="cls-4" d="M291.23,21.24l1.23.21a2.06,2.06,0,0,1-.75,1,2.24,2.24,0,0,1-1.28.35,2.08,2.08,0,0,1-1.8-.79,2.67,2.67,0,0,1-.47-1.61,2.6,2.6,0,0,1,.61-1.82A2,2,0,0,1,290.3,18a2.07,2.07,0,0,1,1.65.69,3,3,0,0,1,.57,2.11h-3.09a1.25,1.25,0,0,0,.3.85.92.92,0,0,0,.71.31.74.74,0,0,0,.49-.16A1,1,0,0,0,291.23,21.24ZM291.3,20a1.15,1.15,0,0,0-.28-.81.83.83,0,0,0-.64-.28.88.88,0,0,0-.67.29,1.2,1.2,0,0,0-.26.8Z"/><path class="cls-4" d="M294.71,22.73h-1.23V18.06h1.14v.66a2.2,2.2,0,0,1,.53-.62,1,1,0,0,1,.54-.15,1.52,1.52,0,0,1,.81.24l-.38,1.07a1.12,1.12,0,0,0-.58-.2.72.72,0,0,0-.44.14,1,1,0,0,0-.28.52,7.09,7.09,0,0,0-.11,1.56Z"/><path class="cls-4" d="M299.74,21.24l1.23.21a2.06,2.06,0,0,1-.75,1,2.24,2.24,0,0,1-1.28.35,2.09,2.09,0,0,1-1.81-.79,2.74,2.74,0,0,1-.46-1.61,2.6,2.6,0,0,1,.61-1.82,2,2,0,0,1,1.53-.66,2.09,2.09,0,0,1,1.65.69,3,3,0,0,1,.57,2.11h-3.09a1.25,1.25,0,0,0,.3.85.9.9,0,0,0,.71.31.76.76,0,0,0,.49-.16A1,1,0,0,0,299.74,21.24Zm.07-1.25a1.15,1.15,0,0,0-.28-.81.84.84,0,0,0-.64-.28.87.87,0,0,0-.67.29,1.15,1.15,0,0,0-.26.8Zm-1.58-2.5.6-1.32h1.39L299,17.49Z"/><path class="cls-4" d="M301.6,21.39l1.24-.18a.92.92,0,0,0,.32.54,1.06,1.06,0,0,0,.68.19,1.19,1.19,0,0,0,.72-.18.38.38,0,0,0,.16-.33.36.36,0,0,0-.08-.23,1,1,0,0,0-.42-.16,6.7,6.7,0,0,1-1.89-.6,1.22,1.22,0,0,1-.55-1.05,1.27,1.27,0,0,1,.47-1,2.23,2.23,0,0,1,1.49-.42,2.55,2.55,0,0,1,1.42.32,1.52,1.52,0,0,1,.64.92l-1.16.21a.68.68,0,0,0-.28-.41,1,1,0,0,0-.6-.15,1.36,1.36,0,0,0-.7.14.3.3,0,0,0-.14.25.26.26,0,0,0,.12.22,4.91,4.91,0,0,0,1.16.35,3.39,3.39,0,0,1,1.38.55,1.16,1.16,0,0,1,.38.92,1.44,1.44,0,0,1-.53,1.1,2.38,2.38,0,0,1-1.59.46,2.58,2.58,0,0,1-1.51-.39A1.77,1.77,0,0,1,301.6,21.39Z"/><circle class="cls-5" cx="541.43" cy="46.39" r="6.39"/><path class="cls-2" d="M538.66,49.32V43.59h1.73l1,3.91,1-3.91h1.73v5.73h-1.07V44.81L542,49.32h-1.11l-1.13-4.51v4.51Z"/><circle class="cls-5" cx="356.43" cy="46.39" r="6.39"/><path class="cls-2" d="M353.67,49.32V43.59h1.73l1,3.91,1-3.91h1.73v5.73h-1.07V44.81L357,49.32h-1.11l-1.14-4.51v4.51Z"/><circle class="cls-5" cx="167.08" cy="46.39" r="6.39"/><path class="cls-2" d="M164.31,49.32V43.59H166l1,3.91,1-3.91h1.73v5.73h-1.07V44.81l-1.14,4.51h-1.11l-1.14-4.51v4.51Z"/></g></g></svg>