<svg xmlns="http://www.w3.org/2000/svg" viewBox="0 0 188.73 53.67"><defs><style>.cls-1{fill:#b2c91f;}.cls-2{fill:#859717;}.cls-3{fill:#28203a;}.cls-4{fill:#fff;}.cls-5{fill:#009a5c;}</style></defs><g id="Capa_2" data-name="Capa 2"><g id="Capa_1-2" data-name="Capa 1"><rect class="cls-1" width="142.64" height="28.77" rx="14.38"/><path class="cls-2" d="M14.58,41.29V34.85h1.3v6.44Z"/><path class="cls-2" d="M21.35,41.29H20.12V38.91a3.79,3.79,0,0,0-.08-1,.71.71,0,0,0-.26-.35.75.75,0,0,0-.43-.12,1,1,0,0,0-.57.18.84.84,0,0,0-.35.46,3.74,3.74,0,0,0-.1,1.08v2.11H17.1V36.62h1.15v.69a1.93,1.93,0,0,1,2.28-.65A1.22,1.22,0,0,1,21,37a1.19,1.19,0,0,1,.24.52,3.54,3.54,0,0,1,.07.83Z"/><path class="cls-2" d="M26.88,41.29H25.74V40.6a1.84,1.84,0,0,1-.68.6,1.72,1.72,0,0,1-.78.19,1.77,1.77,0,0,1-1.38-.64,2.67,2.67,0,0,1-.57-1.81,2.6,2.6,0,0,1,.56-1.81,1.81,1.81,0,0,1,1.41-.61,1.72,1.72,0,0,1,1.35.65V34.85h1.23Zm-3.29-2.44a2.22,2.22,0,0,0,.2,1.08.93.93,0,0,0,.84.49.89.89,0,0,0,.72-.36,1.71,1.71,0,0,0,.3-1.09,1.82,1.82,0,0,0-.29-1.16.92.92,0,0,0-.74-.35,1,1,0,0,0-.74.35A1.61,1.61,0,0,0,23.59,38.85Z"/><path class="cls-2" d="M28.1,36V34.85h1.24V36Zm0,5.3V36.62h1.24v4.67Z"/><path class="cls-2" d="M34.67,38l-1.22.22a.86.86,0,0,0-.28-.55.84.84,0,0,0-.56-.18.91.91,0,0,0-.74.32,1.63,1.63,0,0,0-.27,1.06A1.82,1.82,0,0,0,31.88,40a.9.9,0,0,0,.75.35.84.84,0,0,0,.57-.2,1.2,1.2,0,0,0,.32-.69l1.21.21A2.14,2.14,0,0,1,34,41a2.28,2.28,0,0,1-1.44.42,2.12,2.12,0,0,1-1.63-.64,2.95,2.95,0,0,1,0-3.59,2.17,2.17,0,0,1,1.65-.64,2.31,2.31,0,0,1,1.36.36A2.11,2.11,0,0,1,34.67,38Z"/><path class="cls-2" d="M36.53,38.05l-1.12-.21a1.76,1.76,0,0,1,.65-1,2.35,2.35,0,0,1,1.37-.32,3,3,0,0,1,1.23.19,1.24,1.24,0,0,1,.57.5,2.55,2.55,0,0,1,.16,1.1v1.45a4.82,4.82,0,0,0,.06.9,2.5,2.5,0,0,0,.22.63H38.44c0-.08-.07-.2-.12-.37s0-.12,0-.14a2.27,2.27,0,0,1-.68.46,2,2,0,0,1-.77.15A1.57,1.57,0,0,1,35.7,41a1.29,1.29,0,0,1-.42-1,1.27,1.27,0,0,1,.19-.7,1.23,1.23,0,0,1,.53-.48,4.07,4.07,0,0,1,1-.28,6.1,6.1,0,0,0,1.2-.31v-.12a.66.66,0,0,0-.17-.51,1.08,1.08,0,0,0-.67-.15.84.84,0,0,0-.51.13A1,1,0,0,0,36.53,38.05Zm1.65,1-.75.19a2.17,2.17,0,0,0-.67.21.53.53,0,0,0-.24.44.61.61,0,0,0,.19.45.69.69,0,0,0,.49.18,1.06,1.06,0,0,0,.64-.22.71.71,0,0,0,.29-.4,2.15,2.15,0,0,0,0-.61Z"/><path class="cls-2" d="M44.89,41.29H43.75V40.6a1.84,1.84,0,0,1-.68.6,1.72,1.72,0,0,1-.78.19,1.77,1.77,0,0,1-1.38-.64,3.21,3.21,0,0,1,0-3.62,1.84,1.84,0,0,1,1.41-.61,1.73,1.73,0,0,1,1.36.65V34.85h1.23ZM41.6,38.85a2.22,2.22,0,0,0,.2,1.08.93.93,0,0,0,.84.49.91.91,0,0,0,.72-.36,1.71,1.71,0,0,0,.3-1.09,1.82,1.82,0,0,0-.29-1.16.92.92,0,0,0-.74-.35,1,1,0,0,0-.74.35A1.61,1.61,0,0,0,41.6,38.85Z"/><path class="cls-2" d="M45.83,38.89a2.53,2.53,0,0,1,.3-1.19,2,2,0,0,1,.86-.88,2.56,2.56,0,0,1,1.24-.3,2.33,2.33,0,0,1,2.41,2.42A2.44,2.44,0,0,1,50,40.7a2.33,2.33,0,0,1-1.72.69A2.65,2.65,0,0,1,47,41.1a2,2,0,0,1-.88-.85A2.82,2.82,0,0,1,45.83,38.89Zm1.26.06A1.56,1.56,0,0,0,47.42,40a1.07,1.07,0,0,0,.81.37A1,1,0,0,0,49,40a1.88,1.88,0,0,0,0-2.13,1,1,0,0,0-.81-.37,1.07,1.07,0,0,0-.81.37A1.55,1.55,0,0,0,47.09,39Z"/><path class="cls-2" d="M52.79,41.29H51.56V36.62H52.7v.66a2,2,0,0,1,.53-.61,1,1,0,0,1,.54-.15,1.51,1.51,0,0,1,.81.23l-.38,1.08a1.09,1.09,0,0,0-.58-.21.65.65,0,0,0-.44.15.94.94,0,0,0-.29.51,7.36,7.36,0,0,0-.1,1.57Z"/><path class="cls-2" d="M60.51,41.29H59.27V36.63a4.12,4.12,0,0,1-1.59.94V36.45a3.85,3.85,0,0,0,1-.6,2.23,2.23,0,0,0,.77-1h1Z"/><path class="cls-2" d="M62.85,37.86V36.62h1.24v1.24Zm0,3.43V40.05h1.24v1.24Z"/><path class="cls-3" d="M14.59,51.29V45.56h4.14v.68H15.35V48h3.17v.67H15.35v2h3.52v.68Z"/><path class="cls-3" d="M18.93,52.9l.13-.6a1.19,1.19,0,0,0,.33.05.35.35,0,0,0,.32-.14,1.41,1.41,0,0,0,.11-.71V47.14h.7v4.37a2,2,0,0,1-.2,1.07.93.93,0,0,1-.84.39A2,2,0,0,1,18.93,52.9Zm.89-6.52v-.82h.7v.82Z"/><path class="cls-3" d="M21.6,51.29V47.14h.63v.58a1.53,1.53,0,0,1,.52-.49,1.47,1.47,0,0,1,.74-.18,1.33,1.33,0,0,1,.75.19,1,1,0,0,1,.42.53,1.49,1.49,0,0,1,1.28-.72,1.26,1.26,0,0,1,.95.34,1.47,1.47,0,0,1,.33,1v2.85h-.7V48.68a1.76,1.76,0,0,0-.07-.61.51.51,0,0,0-.24-.3.75.75,0,0,0-.43-.11.94.94,0,0,0-.72.29,1.28,1.28,0,0,0-.29.93v2.41h-.7v-2.7a1.15,1.15,0,0,0-.18-.7.63.63,0,0,0-.56-.23,1.06,1.06,0,0,0-.55.15.87.87,0,0,0-.36.46,2.45,2.45,0,0,0-.12.87v2.15Z"/><path class="cls-3" d="M28.46,47.94v-.8h.8v.8Zm0,3.35v-.8h.8v.8Z"/><path class="cls-3" d="M32.58,51.39l.34-1.67h-.66v-.58H33l.29-1.42H32.26v-.58h1.19l.34-1.68h.58L34,47.14h1.23l.34-1.68h.59l-.34,1.68h.68v.58h-.79l-.3,1.42h1.09v.58h-1.2L35,51.39H34.4l.34-1.67H33.51l-.34,1.67Zm1.05-2.25h1.22l.3-1.42H33.92Z"/><path class="cls-3" d="M43.56,49.28l.76.19a2.61,2.61,0,0,1-.86,1.43,2.43,2.43,0,0,1-1.52.49,2.73,2.73,0,0,1-1.5-.38,2.34,2.34,0,0,1-.88-1.09,3.78,3.78,0,0,1-.31-1.54,3.51,3.51,0,0,1,.34-1.56,2.39,2.39,0,0,1,1-1A2.84,2.84,0,0,1,42,45.46a2.35,2.35,0,0,1,1.44.44,2.3,2.3,0,0,1,.82,1.23l-.75.18a1.7,1.7,0,0,0-.58-.91,1.53,1.53,0,0,0-1-.29,1.84,1.84,0,0,0-1.1.32,1.64,1.64,0,0,0-.63.85,3.38,3.38,0,0,0-.18,1.1,3.48,3.48,0,0,0,.22,1.27,1.56,1.56,0,0,0,.66.82,1.84,1.84,0,0,0,1,.27A1.59,1.59,0,0,0,43,50.37,1.93,1.93,0,0,0,43.56,49.28Z"/><path class="cls-3" d="M45.14,51.29V45.56h.71v5.73Z"/><path class="cls-3" d="M46.94,46.37v-.81h.7v.81Zm0,4.92V47.14h.7v4.15Z"/><path class="cls-3" d="M51.55,50l.73.09a1.72,1.72,0,0,1-.64,1,1.92,1.92,0,0,1-1.18.35A1.89,1.89,0,0,1,49,50.82a2.21,2.21,0,0,1-.53-1.57A2.31,2.31,0,0,1,49,47.62a1.83,1.83,0,0,1,1.4-.57,1.78,1.78,0,0,1,1.36.56,2.27,2.27,0,0,1,.52,1.6v.18H49.21a1.57,1.57,0,0,0,.38,1,1.15,1.15,0,0,0,.87.36,1,1,0,0,0,.66-.2A1.28,1.28,0,0,0,51.55,50Zm-2.3-1.13h2.31A1.47,1.47,0,0,0,51.3,48,1.15,1.15,0,0,0,49.61,48,1.24,1.24,0,0,0,49.25,48.82Z"/><path class="cls-3" d="M53.16,51.29V47.14h.64v.59a1.47,1.47,0,0,1,1.32-.68,1.73,1.73,0,0,1,.69.13,1.16,1.16,0,0,1,.47.35,1.63,1.63,0,0,1,.22.52,5.29,5.29,0,0,1,0,.69v2.55h-.7V48.76a2,2,0,0,0-.08-.64.73.73,0,0,0-.29-.34,1,1,0,0,0-.49-.12,1.15,1.15,0,0,0-.78.28A1.39,1.39,0,0,0,53.87,49v2.27Z"/><path class="cls-3" d="M59.15,50.66l.1.62a2.77,2.77,0,0,1-.53.06,1.22,1.22,0,0,1-.6-.12.6.6,0,0,1-.29-.32,2.37,2.37,0,0,1-.09-.83V47.69h-.51v-.55h.51v-1l.7-.42v1.45h.71v.55h-.71v2.42a1.09,1.09,0,0,0,0,.39.27.27,0,0,0,.12.14.48.48,0,0,0,.24,0Z"/><path class="cls-3" d="M62.67,50l.73.09a1.72,1.72,0,0,1-.64,1,2.16,2.16,0,0,1-2.63-.21,2.21,2.21,0,0,1-.53-1.57,2.31,2.31,0,0,1,.54-1.63,1.83,1.83,0,0,1,1.4-.57,1.77,1.77,0,0,1,1.36.56,2.27,2.27,0,0,1,.52,1.6v.18H60.33a1.57,1.57,0,0,0,.38,1,1.17,1.17,0,0,0,.87.36,1,1,0,0,0,.66-.2A1.28,1.28,0,0,0,62.67,50Zm-2.3-1.13h2.31a1.47,1.47,0,0,0-.26-.79A1.15,1.15,0,0,0,60.73,48,1.24,1.24,0,0,0,60.37,48.82Z"/><path class="cls-3" d="M64,50.05l.7-.11a1,1,0,0,0,.32.64,1.14,1.14,0,0,0,.75.22,1.11,1.11,0,0,0,.72-.19.61.61,0,0,0,.24-.47.42.42,0,0,0-.21-.37,3.52,3.52,0,0,0-.72-.24,5.89,5.89,0,0,1-1.07-.34,1,1,0,0,1-.46-.39,1.09,1.09,0,0,1-.15-.56,1,1,0,0,1,.13-.51,1.07,1.07,0,0,1,.34-.39,1.35,1.35,0,0,1,.45-.21,2,2,0,0,1,.61-.08,2.23,2.23,0,0,1,.85.14,1.15,1.15,0,0,1,.55.38,1.38,1.38,0,0,1,.24.64l-.69.09a.75.75,0,0,0-.27-.5,1,1,0,0,0-.63-.18,1.16,1.16,0,0,0-.69.16.48.48,0,0,0-.21.38.4.4,0,0,0,.09.25.58.58,0,0,0,.27.18,6.05,6.05,0,0,0,.62.18,9.52,9.52,0,0,1,1,.33,1.05,1.05,0,0,1,.46.37,1,1,0,0,1,.17.6,1.17,1.17,0,0,1-.21.66,1.24,1.24,0,0,1-.59.48,2,2,0,0,1-.87.17,2,2,0,0,1-1.24-.33A1.61,1.61,0,0,1,64,50.05Z"/><path class="cls-3" d="M73.23,51.29v-.61a1.53,1.53,0,0,1-1.32.7,1.61,1.61,0,0,1-.69-.14,1.1,1.1,0,0,1-.47-.35,1.54,1.54,0,0,1-.22-.52,4.76,4.76,0,0,1,0-.66V47.14h.7v2.3a3.76,3.76,0,0,0,0,.74.69.69,0,0,0,.28.44.9.9,0,0,0,.53.16,1.12,1.12,0,0,0,.59-.17.86.86,0,0,0,.4-.44,2.34,2.34,0,0,0,.11-.81V47.14h.7v4.15Z"/><path class="cls-3" d="M74.67,50.05l.7-.11a1,1,0,0,0,.33.64,1.4,1.4,0,0,0,1.46,0,.61.61,0,0,0,.24-.47.42.42,0,0,0-.21-.37,3.52,3.52,0,0,0-.72-.24,6.18,6.18,0,0,1-1.07-.34A1,1,0,0,1,75,48.8a1.06,1.06,0,0,1,0-1.07,1.07,1.07,0,0,1,.34-.39,1.35,1.35,0,0,1,.45-.21,2,2,0,0,1,.61-.08,2.32,2.32,0,0,1,.86.14,1.17,1.17,0,0,1,.54.38,1.38,1.38,0,0,1,.24.64l-.68.09a.76.76,0,0,0-.28-.5,1,1,0,0,0-.63-.18,1.21,1.21,0,0,0-.69.16.48.48,0,0,0-.21.38.4.4,0,0,0,.09.25.71.71,0,0,0,.27.18,6.05,6.05,0,0,0,.62.18,8.83,8.83,0,0,1,1,.33,1,1,0,0,1,.46.37,1,1,0,0,1,.17.6,1.17,1.17,0,0,1-.21.66,1.24,1.24,0,0,1-.59.48,2,2,0,0,1-.87.17,2,2,0,0,1-1.23-.33A1.57,1.57,0,0,1,74.67,50.05Z"/><path class="cls-3" d="M81.67,51.29v-.61a1.5,1.5,0,0,1-1.31.7,1.58,1.58,0,0,1-.69-.14,1.1,1.1,0,0,1-.47-.35,1.54,1.54,0,0,1-.22-.52,4.76,4.76,0,0,1,0-.66V47.14h.7v2.3a3.76,3.76,0,0,0,0,.74.69.69,0,0,0,.28.44.9.9,0,0,0,.53.16,1.12,1.12,0,0,0,.59-.17.86.86,0,0,0,.4-.44,2.34,2.34,0,0,0,.11-.81V47.14h.7v4.15Z"/><path class="cls-3" d="M86.11,50.78a2.87,2.87,0,0,1-.75.47,2.2,2.2,0,0,1-.78.13,1.54,1.54,0,0,1-1-.33,1.12,1.12,0,0,1-.36-.86,1,1,0,0,1,.14-.55,1.19,1.19,0,0,1,.36-.41,1.75,1.75,0,0,1,.5-.23,6,6,0,0,1,.63-.1,6.71,6.71,0,0,0,1.25-.24,1.77,1.77,0,0,0,0-.19.77.77,0,0,0-.2-.6,1.18,1.18,0,0,0-.8-.24,1.27,1.27,0,0,0-.73.17,1,1,0,0,0-.35.62l-.69-.1a1.6,1.6,0,0,1,.31-.71,1.36,1.36,0,0,1,.62-.42,2.7,2.7,0,0,1,.94-.14,2.58,2.58,0,0,1,.86.12,1.07,1.07,0,0,1,.49.32,1,1,0,0,1,.22.47,4.68,4.68,0,0,1,0,.65v.94a9.55,9.55,0,0,0,0,1.24,1.58,1.58,0,0,0,.18.5h-.74A1.59,1.59,0,0,1,86.11,50.78Zm-.06-1.57a5.12,5.12,0,0,1-1.14.26,2.76,2.76,0,0,0-.62.14.58.58,0,0,0-.37.57.59.59,0,0,0,.21.46.89.89,0,0,0,.62.19,1.49,1.49,0,0,0,.73-.18,1.07,1.07,0,0,0,.46-.48,1.67,1.67,0,0,0,.11-.71Z"/><path class="cls-3" d="M87.85,51.29V47.14h.63v.63a1.56,1.56,0,0,1,.45-.58.71.71,0,0,1,.45-.14,1.34,1.34,0,0,1,.72.22l-.24.66a1,1,0,0,0-.52-.16.68.68,0,0,0-.41.14.73.73,0,0,0-.26.39,2.66,2.66,0,0,0-.12.82v2.17Z"/><path class="cls-3" d="M90.52,46.37v-.81h.71v.81Zm0,4.92V47.14h.71v4.15Z"/><path class="cls-3" d="M92,49.21a2.16,2.16,0,0,1,.64-1.7A1.94,1.94,0,0,1,94,47.05a1.84,1.84,0,0,1,1.4.56,2.13,2.13,0,0,1,.54,1.55,2.77,2.77,0,0,1-.24,1.26,1.71,1.71,0,0,1-.7.71,2,2,0,0,1-1,.25,1.85,1.85,0,0,1-1.41-.56A2.22,2.22,0,0,1,92,49.21Zm.73,0a1.79,1.79,0,0,0,.34,1.2,1.15,1.15,0,0,0,.88.39,1.11,1.11,0,0,0,.87-.39,1.85,1.85,0,0,0,.35-1.22A1.76,1.76,0,0,0,94.85,48a1.11,1.11,0,0,0-.87-.39,1.15,1.15,0,0,0-.88.39A1.78,1.78,0,0,0,92.76,49.21Z"/><path class="cls-3" d="M96.46,50.05l.7-.11a1,1,0,0,0,.33.64,1.4,1.4,0,0,0,1.46,0,.61.61,0,0,0,.24-.47.42.42,0,0,0-.21-.37,3.52,3.52,0,0,0-.72-.24,6.18,6.18,0,0,1-1.07-.34,1,1,0,0,1-.45-.39,1.06,1.06,0,0,1,0-1.07,1.07,1.07,0,0,1,.34-.39,1.35,1.35,0,0,1,.45-.21,2,2,0,0,1,.61-.08,2.32,2.32,0,0,1,.86.14,1.17,1.17,0,0,1,.54.38,1.38,1.38,0,0,1,.24.64l-.68.09a.81.81,0,0,0-.28-.5,1,1,0,0,0-.63-.18,1.21,1.21,0,0,0-.69.16.48.48,0,0,0-.21.38.4.4,0,0,0,.09.25.58.58,0,0,0,.27.18,6.05,6.05,0,0,0,.62.18,9.52,9.52,0,0,1,1,.33,1.05,1.05,0,0,1,.46.37,1,1,0,0,1,.17.6,1.17,1.17,0,0,1-.21.66,1.24,1.24,0,0,1-.59.48,2,2,0,0,1-.87.17A2,2,0,0,1,97,51.05,1.61,1.61,0,0,1,96.46,50.05Z"/><rect class="cls-4" x="127.83" y="4.79" width="0.85" height="19.3" rx="0.42"/><rect class="cls-4" x="13.96" y="4.73" width="0.85" height="19.3" rx="0.42"/><path class="cls-3" d="M47.41,10.36l1.26.4a2.79,2.79,0,0,1-1,1.56A3,3,0,0,1,43.89,12a3.38,3.38,0,0,1-.83-2.4,3.56,3.56,0,0,1,.83-2.5,2.87,2.87,0,0,1,2.19-.89,2.73,2.73,0,0,1,1.92.7,2.61,2.61,0,0,1,.66,1.19l-1.29.31a1.42,1.42,0,0,0-.48-.8A1.37,1.37,0,0,0,46,7.28a1.47,1.47,0,0,0-1.16.52,2.5,2.5,0,0,0-.45,1.66,2.7,2.7,0,0,0,.44,1.74,1.42,1.42,0,0,0,1.14.52,1.32,1.32,0,0,0,.9-.33A2,2,0,0,0,47.41,10.36Z"/><path class="cls-3" d="M51,12.72H49.73V8.06h1.15v.66a1.92,1.92,0,0,1,.53-.62A.94.94,0,0,1,51.94,8a1.52,1.52,0,0,1,.81.24l-.38,1.07a1.12,1.12,0,0,0-.58-.2.72.72,0,0,0-.44.14,1,1,0,0,0-.28.52A7.09,7.09,0,0,0,51,11.28Z"/><path class="cls-3" d="M56,11.24l1.23.21a2.06,2.06,0,0,1-.75,1,2.24,2.24,0,0,1-1.28.35A2.09,2.09,0,0,1,53.38,12a2.76,2.76,0,0,1-.46-1.61,2.6,2.6,0,0,1,.61-1.82A2,2,0,0,1,55.06,8a2.07,2.07,0,0,1,1.65.69,3,3,0,0,1,.57,2.11H54.19a1.25,1.25,0,0,0,.3.85.9.9,0,0,0,.71.31.8.8,0,0,0,.49-.16A1,1,0,0,0,56,11.24ZM56.06,10a1.15,1.15,0,0,0-.28-.81.84.84,0,0,0-.64-.28.88.88,0,0,0-.67.29,1.14,1.14,0,0,0-.26.8Z"/><path class="cls-3" d="M62.36,9.44l-1.22.22a.83.83,0,0,0-.28-.55.84.84,0,0,0-.56-.19,1,1,0,0,0-.74.32,1.68,1.68,0,0,0-.27,1.07,1.86,1.86,0,0,0,.28,1.17.9.9,0,0,0,.75.34.8.8,0,0,0,.57-.2,1.17,1.17,0,0,0,.32-.68l1.21.2a2.18,2.18,0,0,1-.72,1.26,2.23,2.23,0,0,1-1.44.43,2.1,2.1,0,0,1-1.63-.65A2.47,2.47,0,0,1,58,10.4a2.5,2.5,0,0,1,.61-1.8A2.18,2.18,0,0,1,60.28,8a2.31,2.31,0,0,1,1.36.37A2.07,2.07,0,0,1,62.36,9.44Z"/><path class="cls-3" d="M66,11.24l1.23.21a2.06,2.06,0,0,1-.75,1,2.24,2.24,0,0,1-1.28.35A2.08,2.08,0,0,1,63.4,12a2.69,2.69,0,0,1-.47-1.61,2.6,2.6,0,0,1,.61-1.82A2,2,0,0,1,65.07,8a2.07,2.07,0,0,1,1.65.69,3,3,0,0,1,.57,2.11H64.2a1.25,1.25,0,0,0,.3.85.92.92,0,0,0,.71.31.8.8,0,0,0,.49-.16A1,1,0,0,0,66,11.24ZM66.07,10a1.15,1.15,0,0,0-.28-.81.83.83,0,0,0-.64-.28.88.88,0,0,0-.67.29,1.14,1.14,0,0,0-.26.8Z"/><path class="cls-3" d="M69.48,12.72H68.25V8.06h1.14v.66a2.2,2.2,0,0,1,.53-.62A1,1,0,0,1,70.46,8a1.52,1.52,0,0,1,.81.24l-.38,1.07a1.12,1.12,0,0,0-.58-.2.7.7,0,0,0-.44.14,1,1,0,0,0-.29.52,8.08,8.08,0,0,0-.1,1.56Z"/><path class="cls-3" d="M77,11.24l1.23.21a2.06,2.06,0,0,1-.75,1,2.24,2.24,0,0,1-1.28.35A2.09,2.09,0,0,1,74.4,12a2.76,2.76,0,0,1-.46-1.61,2.6,2.6,0,0,1,.61-1.82A2,2,0,0,1,76.08,8a2.07,2.07,0,0,1,1.65.69,3,3,0,0,1,.57,2.11H75.21a1.25,1.25,0,0,0,.3.85.9.9,0,0,0,.71.31.8.8,0,0,0,.49-.16A1,1,0,0,0,77,11.24ZM77.08,10a1.15,1.15,0,0,0-.28-.81.84.84,0,0,0-.64-.28.87.87,0,0,0-.67.29,1.14,1.14,0,0,0-.26.8Z"/><path class="cls-3" d="M83.55,12.72H82.32V10.34a3.7,3.7,0,0,0-.08-1A.67.67,0,0,0,82,9a.75.75,0,0,0-.43-.12,1,1,0,0,0-.57.17.9.9,0,0,0-.35.47,4.06,4.06,0,0,0-.1,1.07v2.11H79.3V8.06h1.15v.68A1.87,1.87,0,0,1,82,8a1.79,1.79,0,0,1,.75.15,1.14,1.14,0,0,1,.51.38,1.35,1.35,0,0,1,.25.51,4.41,4.41,0,0,1,.06.83Z"/><path class="cls-3" d="M87.31,12.72V6.28h1.23v6.44Z"/><path class="cls-3" d="M89.52,10.33a2.43,2.43,0,0,1,.31-1.19,2,2,0,0,1,.85-.88A2.48,2.48,0,0,1,91.92,8a2.33,2.33,0,0,1,1.74.69,2.39,2.39,0,0,1,.68,1.74,2.38,2.38,0,0,1-.69,1.75,2.28,2.28,0,0,1-1.72.7,2.77,2.77,0,0,1-1.22-.29,2,2,0,0,1-.88-.85A2.73,2.73,0,0,1,89.52,10.33Zm1.27.06a1.57,1.57,0,0,0,.33,1.07,1.09,1.09,0,0,0,1.62,0,1.59,1.59,0,0,0,.33-1.08,1.52,1.52,0,0,0-.33-1.05,1.07,1.07,0,0,0-1.62,0A1.53,1.53,0,0,0,90.79,10.39Z"/><path class="cls-3" d="M94.87,11.39l1.24-.19a.89.89,0,0,0,.32.55,1.06,1.06,0,0,0,.68.19,1.24,1.24,0,0,0,.72-.18.41.41,0,0,0,.16-.33.32.32,0,0,0-.09-.23,1,1,0,0,0-.41-.16,6.81,6.81,0,0,1-1.9-.6,1.22,1.22,0,0,1-.55-1,1.28,1.28,0,0,1,.48-1A2.2,2.2,0,0,1,97,8a2.69,2.69,0,0,1,1.43.31,1.62,1.62,0,0,1,.64.93l-1.16.21A.69.69,0,0,0,97.62,9,1,1,0,0,0,97,8.84a1.34,1.34,0,0,0-.7.14.27.27,0,0,0-.14.25.28.28,0,0,0,.12.22,4.76,4.76,0,0,0,1.15.35,3.39,3.39,0,0,1,1.38.55,1.13,1.13,0,0,1,.39.92,1.41,1.41,0,0,1-.54,1.1,2.35,2.35,0,0,1-1.58.46,2.58,2.58,0,0,1-1.51-.39A1.73,1.73,0,0,1,94.87,11.39Z"/><path class="cls-3" d="M50.44,18.06h1.14v.64A1.83,1.83,0,0,1,53,18a1.49,1.49,0,0,1,.77.19,1.39,1.39,0,0,1,.54.56,2.15,2.15,0,0,1,.67-.56,1.53,1.53,0,0,1,.76-.19,1.7,1.7,0,0,1,.87.21,1.38,1.38,0,0,1,.53.61,2.81,2.81,0,0,1,.13,1v3H56.07V20.06a1.92,1.92,0,0,0-.13-.9.59.59,0,0,0-.52-.26.8.8,0,0,0-.49.16.89.89,0,0,0-.33.46,3.2,3.2,0,0,0-.1,1v2.24H53.26V20.17a3.85,3.85,0,0,0-.06-.88A.61.61,0,0,0,53,19a.65.65,0,0,0-.37-.09,1,1,0,0,0-.52.15.8.8,0,0,0-.32.45,3.11,3.11,0,0,0-.1,1v2.26H50.44Z"/><path class="cls-3" d="M61.24,21.24l1.23.21a2.06,2.06,0,0,1-.75,1,2.24,2.24,0,0,1-1.28.35,2.08,2.08,0,0,1-1.8-.79,2.69,2.69,0,0,1-.46-1.61,2.59,2.59,0,0,1,.6-1.82A2,2,0,0,1,60.32,18a2.07,2.07,0,0,1,1.64.69,3.09,3.09,0,0,1,.58,2.11h-3.1a1.25,1.25,0,0,0,.3.85.92.92,0,0,0,.71.31.78.78,0,0,0,.49-.16A1,1,0,0,0,61.24,21.24ZM61.31,20a1.15,1.15,0,0,0-.28-.81.83.83,0,0,0-.64-.28.88.88,0,0,0-.67.29,1.18,1.18,0,0,0-.26.8Z"/><path class="cls-3" d="M64.72,22.72H63.49V18.06h1.15v.66a1.92,1.92,0,0,1,.53-.62A.94.94,0,0,1,65.7,18a1.52,1.52,0,0,1,.81.24l-.38,1.07a1.12,1.12,0,0,0-.58-.2.72.72,0,0,0-.44.14,1,1,0,0,0-.28.52,7.09,7.09,0,0,0-.11,1.56Z"/><path class="cls-3" d="M71.11,19.44l-1.21.22a.88.88,0,0,0-.28-.55.87.87,0,0,0-.57-.19.93.93,0,0,0-.73.32A1.61,1.61,0,0,0,68,20.31a1.93,1.93,0,0,0,.28,1.17.92.92,0,0,0,.75.34.8.8,0,0,0,.58-.2,1.17,1.17,0,0,0,.31-.68l1.22.2a2.14,2.14,0,0,1-.73,1.26,2.23,2.23,0,0,1-1.44.43,2.11,2.11,0,0,1-1.63-.65,2.51,2.51,0,0,1-.61-1.78,2.55,2.55,0,0,1,.61-1.8A2.18,2.18,0,0,1,69,18a2.27,2.27,0,0,1,1.35.37A2,2,0,0,1,71.11,19.44Z"/><path class="cls-3" d="M73,19.48l-1.12-.2a1.78,1.78,0,0,1,.65-1A2.37,2.37,0,0,1,73.87,18a3,3,0,0,1,1.23.2,1.22,1.22,0,0,1,.57.49,2.57,2.57,0,0,1,.17,1.11v1.44a5.23,5.23,0,0,0,0,.91,2.64,2.64,0,0,0,.23.62H74.88a3.34,3.34,0,0,1-.11-.36.93.93,0,0,0,0-.14,2.33,2.33,0,0,1-.68.46,1.94,1.94,0,0,1-.76.15,1.61,1.61,0,0,1-1.14-.39,1.29,1.29,0,0,1-.42-1,1.36,1.36,0,0,1,.19-.7,1.29,1.29,0,0,1,.53-.48,4.11,4.11,0,0,1,1-.29,7.27,7.27,0,0,0,1.19-.3v-.12a.63.63,0,0,0-.17-.51,1.07,1.07,0,0,0-.66-.15.87.87,0,0,0-.52.13A.89.89,0,0,0,73,19.48Zm1.65,1a4.89,4.89,0,0,1-.75.19,2.53,2.53,0,0,0-.67.22.51.51,0,0,0-.24.43.58.58,0,0,0,.19.45.68.68,0,0,0,.5.19,1,1,0,0,0,.63-.22.8.8,0,0,0,.3-.41,2.63,2.63,0,0,0,0-.6Z"/><path class="cls-3" d="M81.33,22.72H80.19V22a1.84,1.84,0,0,1-.68.6,1.86,1.86,0,0,1-.78.19,1.78,1.78,0,0,1-1.38-.65,2.64,2.64,0,0,1-.57-1.81,2.56,2.56,0,0,1,.56-1.8A1.82,1.82,0,0,1,78.75,18a1.75,1.75,0,0,1,1.35.65V16.28h1.23ZM78,20.29a2.09,2.09,0,0,0,.21,1.08.92.92,0,0,0,.83.48.91.91,0,0,0,.73-.36,1.72,1.72,0,0,0,.29-1.08,1.87,1.87,0,0,0-.28-1.16,1,1,0,0,0-.75-.35.89.89,0,0,0-.73.35A1.56,1.56,0,0,0,78,20.29Z"/><path class="cls-3" d="M82.27,20.33a2.53,2.53,0,0,1,.3-1.19,2,2,0,0,1,.86-.88A2.46,2.46,0,0,1,84.67,18a2.33,2.33,0,0,1,1.74.69,2.59,2.59,0,0,1,0,3.49,2.28,2.28,0,0,1-1.72.7,2.71,2.71,0,0,1-1.22-.29,2,2,0,0,1-.89-.85A2.85,2.85,0,0,1,82.27,20.33Zm1.26.06a1.57,1.57,0,0,0,.33,1.07,1.1,1.1,0,0,0,1.63,0,1.58,1.58,0,0,0,.32-1.08,1.52,1.52,0,0,0-.32-1.05,1.08,1.08,0,0,0-1.63,0A1.53,1.53,0,0,0,83.53,20.39Z"/><path class="cls-3" d="M87.62,21.39l1.24-.19a.85.85,0,0,0,.32.55,1,1,0,0,0,.67.19,1.19,1.19,0,0,0,.72-.18.39.39,0,0,0,.17-.33.32.32,0,0,0-.09-.23,1,1,0,0,0-.41-.16,6.81,6.81,0,0,1-1.9-.6,1.22,1.22,0,0,1-.55-1.05,1.28,1.28,0,0,1,.48-1A2.2,2.2,0,0,1,89.75,18a2.69,2.69,0,0,1,1.43.31,1.62,1.62,0,0,1,.64.93l-1.17.21a.68.68,0,0,0-.28-.41,1,1,0,0,0-.6-.15,1.32,1.32,0,0,0-.69.14.27.27,0,0,0-.15.25.29.29,0,0,0,.13.22,4.59,4.59,0,0,0,1.15.35,3.39,3.39,0,0,1,1.38.55,1.13,1.13,0,0,1,.39.92,1.41,1.41,0,0,1-.54,1.1,2.38,2.38,0,0,1-1.59.46,2.6,2.6,0,0,1-1.51-.39A1.71,1.71,0,0,1,87.62,21.39Z"/><circle class="cls-5" cx="182.34" cy="47.27" r="6.39"/><path class="cls-4" d="M181.76,50.21V45.45h-1.7v-1h4.56v1h-1.7v4.76Z"/></g></g></svg>