<svg xmlns="http://www.w3.org/2000/svg" viewBox="0 0 598.88 72.76"><defs><style>.cls-1{fill:#add9f1;}.cls-2{fill:#28203a;}.cls-3{fill:#33a0dc;}.cls-4,.cls-5{fill:none;stroke:#9d9d9c;stroke-linecap:round;stroke-miterlimit:10;}.cls-5{stroke-dasharray:0 4.01;}</style></defs><g id="Capa_2" data-name="Capa 2"><g id="Capa_1-2" data-name="Capa 1"><rect class="cls-1" x="0.5" y="0.5" width="37.3" height="72.26"/><path class="cls-2" d="M19.15,65.39l-7.87-3V61.24L19.15,58v1.19l-2.38.92v3.29l2.38.86Zm-3.23-2.27V60.45l-2.18.82c-.67.25-1.21.44-1.64.56a10.28,10.28,0,0,1,1.51.42Z"/><path class="cls-2" d="M21.34,57.31H13.45v-.88h.74a2.29,2.29,0,0,1-.66-.7,2,2,0,0,1-.21-.95,2.25,2.25,0,0,1,.37-1.29,2.3,2.3,0,0,1,1.06-.85,3.9,3.9,0,0,1,1.51-.28,3.79,3.79,0,0,1,1.57.31,2.39,2.39,0,0,1,1.08.92,2.42,2.42,0,0,1,.37,1.26,1.74,1.74,0,0,1-.21.86,1.77,1.77,0,0,1-.51.63h2.78Zm-5-.87A2.48,2.48,0,0,0,18,56a1.37,1.37,0,0,0,.52-1.08,1.39,1.39,0,0,0-.54-1.1,2.57,2.57,0,0,0-1.69-.46,2.5,2.5,0,0,0-1.63.45,1.34,1.34,0,0,0-.55,1.07A1.41,1.41,0,0,0,14.65,56,2.59,2.59,0,0,0,16.33,56.44Z"/><path class="cls-2" d="M19.15,51.2h-5.7v-.87h.86a2.37,2.37,0,0,1-.8-.61,1.08,1.08,0,0,1-.19-.62,1.88,1.88,0,0,1,.31-1l.9.34a1.36,1.36,0,0,0-.21.71.91.91,0,0,0,.19.57,1.09,1.09,0,0,0,.53.36,4,4,0,0,0,1.12.16h3Z"/><path class="cls-2" d="M17.31,43.63l.13-1a2.46,2.46,0,0,1,1.36.87,3,3,0,0,1-.29,3.62,3,3,0,0,1-2.16.73,3.14,3.14,0,0,1-2.24-.74,2.49,2.49,0,0,1-.79-1.92,2.44,2.44,0,0,1,.78-1.87,3.1,3.1,0,0,1,2.19-.73h.26v4.25A2.14,2.14,0,0,0,18,46.32a1.55,1.55,0,0,0,.5-1.19,1.47,1.47,0,0,0-.28-.91A1.76,1.76,0,0,0,17.31,43.63ZM15.75,46.8V43.62a1.92,1.92,0,0,0-1.08.36,1.5,1.5,0,0,0-.56,1.2,1.53,1.53,0,0,0,.45,1.12A1.74,1.74,0,0,0,15.75,46.8Z"/><path class="cls-2" d="M19.15,41.41h-5.7v-.87h.81a2,2,0,0,1-.94-1.81,2.44,2.44,0,0,1,.18-.95,1.6,1.6,0,0,1,.49-.65,2,2,0,0,1,.71-.3,5.21,5.21,0,0,1,.94,0h3.51v1H15.68a2.43,2.43,0,0,0-.88.12.91.91,0,0,0-.47.4,1.22,1.22,0,0,0-.18.67,1.59,1.59,0,0,0,.4,1.07,1.91,1.91,0,0,0,1.48.45h3.12Z"/><path class="cls-2" d="M19.15,31.59h-.72a1.79,1.79,0,0,1,.85,1.6,2.24,2.24,0,0,1-.38,1.25,2.49,2.49,0,0,1-1,.89,3.61,3.61,0,0,1-1.55.31,4.07,4.07,0,0,1-1.55-.28,2.27,2.27,0,0,1-1.06-.86,2.23,2.23,0,0,1-.37-1.27,2,2,0,0,1,.21-.92,2,2,0,0,1,.57-.65H11.28v-1h7.87ZM16.3,34.65a2.47,2.47,0,0,0,1.64-.46,1.4,1.4,0,0,0,.54-1.09A1.38,1.38,0,0,0,18,32a2.45,2.45,0,0,0-1.59-.44,2.65,2.65,0,0,0-1.71.45,1.37,1.37,0,0,0-.55,1.11,1.34,1.34,0,0,0,.52,1.08A2.6,2.6,0,0,0,16.3,34.65Z"/><path class="cls-2" d="M12.39,29.17H11.28v-1h1.11Zm6.76,0h-5.7v-1h5.7Z"/><path class="cls-2" d="M19.15,27.24h-.78L14.2,23.61c0,.42,0,.78,0,1.09V27h-.78V22.37h.64l3.62,3.09.66.59c0-.43-.05-.84-.05-1.22V22.2h.83Z"/><path class="cls-2" d="M18.45,17.51a3.49,3.49,0,0,1,.64,1,2.85,2.85,0,0,1,.19,1.06,2.07,2.07,0,0,1-.46,1.45,1.63,1.63,0,0,1-1.94.31,1.59,1.59,0,0,1-.56-.5,2.55,2.55,0,0,1-.31-.69,7.59,7.59,0,0,1-.15-.86,8.68,8.68,0,0,0-.33-1.73h-.25a1.1,1.1,0,0,0-.84.27,1.66,1.66,0,0,0-.32,1.1,1.71,1.71,0,0,0,.24,1,1.42,1.42,0,0,0,.84.48l-.13.94a2.26,2.26,0,0,1-1-.42,1.83,1.83,0,0,1-.57-.85,3.74,3.74,0,0,1-.2-1.3,3.37,3.37,0,0,1,.17-1.19,1.34,1.34,0,0,1,1.09-1,6,6,0,0,1,.89,0h1.29a13.38,13.38,0,0,0,1.71-.07,2.21,2.21,0,0,0,.68-.24v1A2.05,2.05,0,0,1,18.45,17.51Zm-2.16.08a7.34,7.34,0,0,1,.36,1.58,3.2,3.2,0,0,0,.2.84.81.81,0,0,0,.31.39.86.86,0,0,0,1.1-.16,1.23,1.23,0,0,0,.26-.86,2,2,0,0,0-.24-1,1.53,1.53,0,0,0-.67-.64,2.24,2.24,0,0,0-1-.16Z"/><path class="cls-2" d="M12.4,15.12H11.28v-1H12.4Zm9,1.23-.82-.19a1.94,1.94,0,0,0,.08-.45.5.5,0,0,0-.2-.44,2,2,0,0,0-1-.15h-6v-1h6a2.87,2.87,0,0,1,1.47.28,1.27,1.27,0,0,1,.54,1.16A2.79,2.79,0,0,1,21.36,16.35Z"/><path class="cls-2" d="M17.31,8.77l.13-1a2.46,2.46,0,0,1,1.36.87,2.66,2.66,0,0,1,.48,1.64,2.62,2.62,0,0,1-.77,2,3,3,0,0,1-2.16.73,3.14,3.14,0,0,1-2.24-.74,2.49,2.49,0,0,1-.79-1.92,2.44,2.44,0,0,1,.78-1.87,3.09,3.09,0,0,1,2.19-.72h.26V12A2.14,2.14,0,0,0,18,11.46a1.55,1.55,0,0,0,.5-1.19,1.47,1.47,0,0,0-.28-.91A1.76,1.76,0,0,0,17.31,8.77Zm-1.56,3.17V8.76a1.92,1.92,0,0,0-1.08.36,1.5,1.5,0,0,0-.56,1.2,1.53,1.53,0,0,0,.45,1.12A1.74,1.74,0,0,0,15.75,11.94Z"/><path class="cls-2" d="M31.85,64.07l-.91.11a2,2,0,0,0,.08-.55,1.09,1.09,0,0,0-.1-.52.91.91,0,0,0-.3-.32,6.09,6.09,0,0,0-.72-.29l-.24-.09L24,64.58v-1l3.3-1.19c.42-.15.86-.29,1.32-.41-.44-.11-.88-.25-1.3-.4L24,60.32v-1l5.8,2.17a12.66,12.66,0,0,1,1.29.54,1.92,1.92,0,0,1,.7.6,1.36,1.36,0,0,1,.23.79A1.88,1.88,0,0,1,31.85,64.07Z"/><path class="cls-2" d="M29.65,51.77h-.72a1.77,1.77,0,0,1,.85,1.6,2.24,2.24,0,0,1-.38,1.25,2.49,2.49,0,0,1-1,.89,3.61,3.61,0,0,1-1.55.31,4.07,4.07,0,0,1-1.55-.28,2.25,2.25,0,0,1-1.43-2.13,2,2,0,0,1,.21-.92,2,2,0,0,1,.57-.65H21.78v-1h7.87ZM26.8,54.83a2.47,2.47,0,0,0,1.64-.46A1.4,1.4,0,0,0,29,53.28a1.38,1.38,0,0,0-.51-1.08,2.45,2.45,0,0,0-1.59-.44,2.65,2.65,0,0,0-1.71.45,1.37,1.37,0,0,0-.55,1.11,1.34,1.34,0,0,0,.52,1.08A2.6,2.6,0,0,0,26.8,54.83Z"/><path class="cls-2" d="M27.81,45.45l.13-1a2.48,2.48,0,0,1,1.36.88A3,3,0,0,1,29,49a3.07,3.07,0,0,1-2.16.73,3.18,3.18,0,0,1-2.24-.74A2.52,2.52,0,0,1,23.82,47a2.42,2.42,0,0,1,.78-1.87,3.05,3.05,0,0,1,2.19-.73h.26v4.25a2.19,2.19,0,0,0,1.43-.53A1.56,1.56,0,0,0,29,47a1.45,1.45,0,0,0-.28-.91A1.84,1.84,0,0,0,27.81,45.45Zm-1.56,3.18V45.44a1.91,1.91,0,0,0-1.08.37A1.46,1.46,0,0,0,24.61,47a1.52,1.52,0,0,0,.45,1.12A1.75,1.75,0,0,0,26.25,48.63Z"/><path class="cls-2" d="M28,43.63l-.15-1a1.32,1.32,0,0,0,.88-.45,1.58,1.58,0,0,0,.3-1,1.49,1.49,0,0,0-.27-1,.8.8,0,0,0-.63-.33.6.6,0,0,0-.52.29,4.81,4.81,0,0,0-.33,1,9,9,0,0,1-.46,1.47,1.43,1.43,0,0,1-.54.62,1.49,1.49,0,0,1-.77.21,1.46,1.46,0,0,1-.71-.17,1.73,1.73,0,0,1-.54-.47,2.12,2.12,0,0,1-.28-.62,3.2,3.2,0,0,1-.11-.83A3.25,3.25,0,0,1,24,40.19a1.6,1.6,0,0,1,.52-.75,2.21,2.21,0,0,1,.89-.34l.13.95a1,1,0,0,0-.69.37,1.35,1.35,0,0,0-.25.87,1.65,1.65,0,0,0,.22,1,.64.64,0,0,0,.52.28.54.54,0,0,0,.34-.12.81.81,0,0,0,.25-.37c0-.09.12-.38.25-.85a10.42,10.42,0,0,1,.45-1.43,1.49,1.49,0,0,1,.51-.64,1.44,1.44,0,0,1,.82-.23,1.58,1.58,0,0,1,.91.28,1.86,1.86,0,0,1,.67.81,3.11,3.11,0,0,1,.23,1.21,2.66,2.66,0,0,1-.46,1.69A2.18,2.18,0,0,1,28,43.63Z"/><path class="cls-2" d="M29,34a3.58,3.58,0,0,1,.64,1,2.9,2.9,0,0,1,.19,1.07,2,2,0,0,1-.46,1.44,1.52,1.52,0,0,1-1.17.51,1.66,1.66,0,0,1-.77-.19,1.7,1.7,0,0,1-.56-.5,2.61,2.61,0,0,1-.31-.7,7.19,7.19,0,0,1-.15-.86A8.55,8.55,0,0,0,26,34.1h-.25a1.06,1.06,0,0,0-.84.28,1.64,1.64,0,0,0-.32,1.1,1.67,1.67,0,0,0,.24,1,1.48,1.48,0,0,0,.84.49l-.13.94a2.53,2.53,0,0,1-1-.42,1.81,1.81,0,0,1-.57-.86,3.64,3.64,0,0,1-.2-1.29A3.33,3.33,0,0,1,24,34.14a1.55,1.55,0,0,1,.43-.67,1.61,1.61,0,0,1,.66-.3,5.58,5.58,0,0,1,.89-.05h1.29A14.19,14.19,0,0,0,29,33.06a2,2,0,0,0,.68-.25v1A2.05,2.05,0,0,1,29,34Zm-2.16.08a7.34,7.34,0,0,1,.36,1.58,3.31,3.31,0,0,0,.2.84.78.78,0,0,0,.31.38.83.83,0,0,0,.46.14.8.8,0,0,0,.64-.3,1.2,1.2,0,0,0,.26-.85,2,2,0,0,0-.24-1,1.59,1.59,0,0,0-.67-.64,2.43,2.43,0,0,0-1-.15Z"/><path class="cls-2" d="M29.65,31.63H24v-.87h.86a2.37,2.37,0,0,1-.8-.61,1.08,1.08,0,0,1-.19-.62,1.88,1.88,0,0,1,.31-1l.9.34a1.36,1.36,0,0,0-.21.71.86.86,0,0,0,.19.56,1,1,0,0,0,.53.36,3.65,3.65,0,0,0,1.12.17h3Z"/><path class="cls-2" d="M29.65,28H24V27.1h.86a2.37,2.37,0,0,1-.8-.62,1,1,0,0,1-.19-.62,1.88,1.88,0,0,1,.31-1l.9.33a1.41,1.41,0,0,0-.21.71.91.91,0,0,0,.19.57,1,1,0,0,0,.53.36,3.65,3.65,0,0,0,1.12.16h3Z"/><path class="cls-2" d="M26.8,24.66a2.94,2.94,0,0,1-2.35-.89A2.64,2.64,0,0,1,23.82,22a2.54,2.54,0,0,1,.77-1.92,2.91,2.91,0,0,1,2.13-.75,3.78,3.78,0,0,1,1.73.33,2.33,2.33,0,0,1,1,1A2.83,2.83,0,0,1,29.78,22,2.59,2.59,0,0,1,29,23.92,3.07,3.07,0,0,1,26.8,24.66Zm0-1a2.41,2.41,0,0,0,1.64-.48,1.6,1.6,0,0,0,0-2.4,2.5,2.5,0,0,0-1.67-.48,2.33,2.33,0,0,0-1.61.49,1.59,1.59,0,0,0,0,2.39A2.41,2.41,0,0,0,26.8,23.66Z"/><path class="cls-2" d="M29.65,18.2H21.78v-1h7.87Z"/><path class="cls-2" d="M29.65,15.76H21.78v-1h7.87Z"/><path class="cls-2" d="M26.8,13.65a2.93,2.93,0,0,1-2.35-.88A2.66,2.66,0,0,1,23.82,11a2.55,2.55,0,0,1,.77-1.93,2.91,2.91,0,0,1,2.13-.74,3.78,3.78,0,0,1,1.73.33,2.33,2.33,0,0,1,1,1A2.83,2.83,0,0,1,29.78,11,2.57,2.57,0,0,1,29,12.91,3.07,3.07,0,0,1,26.8,13.65Zm0-1a2.41,2.41,0,0,0,1.64-.48,1.6,1.6,0,0,0,0-2.4,2.5,2.5,0,0,0-1.67-.48,2.38,2.38,0,0,0-1.61.48,1.6,1.6,0,0,0,0,2.4A2.41,2.41,0,0,0,26.8,12.66Z"/><line class="cls-3" x1="0.5" y1="0.5" x2="598.38" y2="0.5"/><line class="cls-4" x1="0.5" y1="0.5" x2="0.5" y2="0.5"/><line class="cls-5" x1="4.51" y1="0.5" x2="596.38" y2="0.5"/><line class="cls-4" x1="598.38" y1="0.5" x2="598.38" y2="0.5"/></g></g></svg>