<svg xmlns="http://www.w3.org/2000/svg" viewBox="0 0 164.09 101.45"><defs><style>.cls-1{fill:#b2c91f;}.cls-2{fill:#859717;}.cls-3{fill:#28203a;}.cls-4{fill:#fff;}.cls-5{fill:#009a5c;}.cls-6{fill:#99c3b1;}.cls-7{fill:#00683b;}</style></defs><g id="Capa_2" data-name="Capa 2"><g id="Capa_1-2" data-name="Capa 1"><rect class="cls-1" width="142.64" height="28.77" rx="14.38"/><path class="cls-2" d="M15.19,41.29V34.85h1.3v6.44Z"/><path class="cls-2" d="M22,41.29H20.73V38.91a3.79,3.79,0,0,0-.08-1,.71.71,0,0,0-.26-.35.75.75,0,0,0-.43-.12,1,1,0,0,0-.57.18.84.84,0,0,0-.35.46,4.15,4.15,0,0,0-.1,1.08v2.11H17.71V36.62h1.15v.69a1.85,1.85,0,0,1,1.53-.79,1.79,1.79,0,0,1,.75.14,1.22,1.22,0,0,1,.51.38,1.32,1.32,0,0,1,.25.52,4.34,4.34,0,0,1,.06.83Z"/><path class="cls-2" d="M27.5,41.29H26.35V40.6a1.84,1.84,0,0,1-.68.6,1.69,1.69,0,0,1-.78.19,1.77,1.77,0,0,1-1.38-.64,2.67,2.67,0,0,1-.57-1.81,2.6,2.6,0,0,1,.56-1.81,1.81,1.81,0,0,1,1.41-.61,1.72,1.72,0,0,1,1.35.65V34.85H27.5Zm-3.3-2.44a2.09,2.09,0,0,0,.21,1.08.94.94,0,0,0,1.56.13,1.71,1.71,0,0,0,.3-1.09A1.88,1.88,0,0,0,26,37.81a1,1,0,0,0-.75-.35.92.92,0,0,0-.73.35A1.56,1.56,0,0,0,24.2,38.85Z"/><path class="cls-2" d="M28.71,36V34.85H30V36Zm0,5.3V36.62H30v4.67Z"/><path class="cls-2" d="M35.28,38l-1.21.22a1,1,0,0,0-.28-.55,1,1,0,0,0-1.3.14,1.57,1.57,0,0,0-.28,1.06A1.82,1.82,0,0,0,32.49,40a.93.93,0,0,0,.75.35.87.87,0,0,0,.58-.2,1.27,1.27,0,0,0,.31-.69l1.22.21A2.2,2.2,0,0,1,34.62,41a2.28,2.28,0,0,1-1.44.42,2.14,2.14,0,0,1-1.63-.64,2.95,2.95,0,0,1,0-3.59,2.17,2.17,0,0,1,1.65-.64,2.29,2.29,0,0,1,1.36.36A2,2,0,0,1,35.28,38Z"/><path class="cls-2" d="M37.14,38.05,36,37.84a1.76,1.76,0,0,1,.65-1A2.37,2.37,0,0,1,38,36.52a3,3,0,0,1,1.23.19,1.24,1.24,0,0,1,.57.5,2.52,2.52,0,0,1,.17,1.1l0,1.45a4.82,4.82,0,0,0,.06.9,3,3,0,0,0,.22.63H39.05c0-.08-.07-.2-.12-.37s0-.12,0-.14a2.27,2.27,0,0,1-.68.46,2,2,0,0,1-.77.15A1.58,1.58,0,0,1,36.31,41a1.29,1.29,0,0,1-.42-1,1.36,1.36,0,0,1,.19-.7,1.29,1.29,0,0,1,.53-.48,4.22,4.22,0,0,1,1-.28,6.1,6.1,0,0,0,1.2-.31v-.12a.66.66,0,0,0-.17-.51,1.08,1.08,0,0,0-.67-.15.84.84,0,0,0-.51.13A1,1,0,0,0,37.14,38.05Zm1.65,1c-.15.05-.4.11-.75.19a2.27,2.27,0,0,0-.67.21.53.53,0,0,0-.24.44.61.61,0,0,0,.19.45.69.69,0,0,0,.49.18,1,1,0,0,0,.64-.22.78.78,0,0,0,.3-.4,2.79,2.79,0,0,0,0-.61Z"/><path class="cls-2" d="M45.5,41.29H44.36V40.6a1.84,1.84,0,0,1-.68.6,1.72,1.72,0,0,1-.78.19,1.77,1.77,0,0,1-1.38-.64A2.67,2.67,0,0,1,41,38.94a2.6,2.6,0,0,1,.56-1.81,1.81,1.81,0,0,1,1.41-.61,1.72,1.72,0,0,1,1.35.65V34.85H45.5Zm-3.29-2.44a2.09,2.09,0,0,0,.21,1.08.9.9,0,0,0,.83.49.93.93,0,0,0,.73-.36A1.77,1.77,0,0,0,44.27,39,1.82,1.82,0,0,0,44,37.81a.95.95,0,0,0-1.47,0A1.56,1.56,0,0,0,42.21,38.85Z"/><path class="cls-2" d="M46.44,38.89a2.53,2.53,0,0,1,.3-1.19,2,2,0,0,1,.86-.88,2.56,2.56,0,0,1,1.24-.3,2.36,2.36,0,0,1,1.74.68,2.61,2.61,0,0,1,0,3.5,2.33,2.33,0,0,1-1.72.69,2.58,2.58,0,0,1-1.22-.29,1.93,1.93,0,0,1-.89-.85A2.82,2.82,0,0,1,46.44,38.89ZM47.7,39A1.56,1.56,0,0,0,48,40a1.08,1.08,0,0,0,1.63,0,1.93,1.93,0,0,0,0-2.13,1.08,1.08,0,0,0-1.63,0A1.55,1.55,0,0,0,47.7,39Z"/><path class="cls-2" d="M53.4,41.29H52.17V36.62h1.14v.66a2,2,0,0,1,.53-.61,1,1,0,0,1,.54-.15,1.51,1.51,0,0,1,.81.23l-.38,1.08a1.06,1.06,0,0,0-.58-.21.67.67,0,0,0-.44.15.88.88,0,0,0-.28.51,7.14,7.14,0,0,0-.11,1.57Z"/><path class="cls-2" d="M61.12,41.29H59.88V36.63a4.12,4.12,0,0,1-1.59.94V36.45a3.85,3.85,0,0,0,1.05-.6,2.25,2.25,0,0,0,.78-1h1Z"/><path class="cls-2" d="M63.47,37.86V36.62H64.7v1.24Zm0,3.43V40.05H64.7v1.24Z"/><path class="cls-3" d="M15.2,51.29V45.56h4.15v.68H16V48h3.17v.67H16v2h3.52v.68Z"/><path class="cls-3" d="M19.54,52.9l.13-.6a1.21,1.21,0,0,0,.34.05.36.36,0,0,0,.32-.14,1.45,1.45,0,0,0,.1-.71V47.14h.7v4.37a2,2,0,0,1-.2,1.07.92.92,0,0,1-.84.39A2,2,0,0,1,19.54,52.9Zm.89-6.52v-.82h.7v.82Z"/><path class="cls-3" d="M22.21,51.29V47.14h.63v.58a1.53,1.53,0,0,1,.52-.49,1.5,1.5,0,0,1,.74-.18,1.3,1.3,0,0,1,.75.19,1,1,0,0,1,.42.53,1.5,1.5,0,0,1,1.28-.72,1.26,1.26,0,0,1,.95.34,1.47,1.47,0,0,1,.33,1v2.85h-.7V48.68a2.14,2.14,0,0,0-.06-.61.57.57,0,0,0-.25-.3.73.73,0,0,0-.42-.11,1,1,0,0,0-.73.29,1.28,1.28,0,0,0-.29.93v2.41h-.7v-2.7a1.22,1.22,0,0,0-.17-.7.66.66,0,0,0-.57-.23,1.06,1.06,0,0,0-.55.15.92.92,0,0,0-.36.46,2.48,2.48,0,0,0-.11.87v2.15Z"/><path class="cls-3" d="M29.07,47.94v-.8h.8v.8Zm0,3.35v-.8h.8v.8Z"/><path class="cls-3" d="M36.09,49v-.67h2.43v2.12a4.3,4.3,0,0,1-1.16.67,3.37,3.37,0,0,1-1.21.23A3.16,3.16,0,0,1,34.61,51a2.38,2.38,0,0,1-1-1,3.38,3.38,0,0,1-.35-1.53,3.6,3.6,0,0,1,.35-1.56,2.29,2.29,0,0,1,1-1.07,3.07,3.07,0,0,1,1.51-.36,2.87,2.87,0,0,1,1.12.21,1.8,1.8,0,0,1,.79.56,2.51,2.51,0,0,1,.43.93l-.68.19a2.22,2.22,0,0,0-.32-.69,1.38,1.38,0,0,0-.55-.4,2,2,0,0,0-.79-.15,2.45,2.45,0,0,0-.9.16,1.7,1.7,0,0,0-.61.42,2.23,2.23,0,0,0-.36.56A3,3,0,0,0,34,48.41a2.75,2.75,0,0,0,.27,1.28,1.65,1.65,0,0,0,.76.76,2.37,2.37,0,0,0,1.07.25,2.45,2.45,0,0,0,1-.19,2.29,2.29,0,0,0,.71-.4V49Z"/><path class="cls-3" d="M42.38,50l.73.09a1.72,1.72,0,0,1-.64,1,1.92,1.92,0,0,1-1.18.35,1.89,1.89,0,0,1-1.45-.56,2.21,2.21,0,0,1-.53-1.57,2.31,2.31,0,0,1,.54-1.63,1.83,1.83,0,0,1,1.4-.57,1.77,1.77,0,0,1,1.36.56,2.27,2.27,0,0,1,.52,1.6v.18H40a1.57,1.57,0,0,0,.38,1,1.15,1.15,0,0,0,.87.36,1,1,0,0,0,.66-.2A1.28,1.28,0,0,0,42.38,50Zm-2.3-1.13h2.31a1.47,1.47,0,0,0-.26-.79A1.15,1.15,0,0,0,40.44,48,1.24,1.24,0,0,0,40.08,48.82Z"/><path class="cls-3" d="M43.71,50.05l.7-.11a1,1,0,0,0,.32.64,1.14,1.14,0,0,0,.75.22,1.11,1.11,0,0,0,.72-.19.59.59,0,0,0,.23-.47.41.41,0,0,0-.2-.37,3.52,3.52,0,0,0-.72-.24,5.89,5.89,0,0,1-1.07-.34A1,1,0,0,1,44,48.8a1.09,1.09,0,0,1-.15-.56,1,1,0,0,1,.13-.51,1.07,1.07,0,0,1,.34-.39,1.35,1.35,0,0,1,.45-.21,2,2,0,0,1,.61-.08,2.23,2.23,0,0,1,.85.14,1.15,1.15,0,0,1,.55.38,1.38,1.38,0,0,1,.24.64l-.69.09a.75.75,0,0,0-.27-.5,1,1,0,0,0-.63-.18,1.16,1.16,0,0,0-.69.16.48.48,0,0,0-.21.38.4.4,0,0,0,.09.25.6.6,0,0,0,.26.18l.63.18a9.52,9.52,0,0,1,1,.33,1.05,1.05,0,0,1,.46.37,1,1,0,0,1,.17.6,1.17,1.17,0,0,1-.21.66,1.24,1.24,0,0,1-.59.48,2,2,0,0,1-.87.17,2,2,0,0,1-1.24-.33A1.61,1.61,0,0,1,43.71,50.05Z"/><path class="cls-3" d="M49.53,50.66l.1.62a2.69,2.69,0,0,1-.53.06,1.18,1.18,0,0,1-.59-.12.62.62,0,0,1-.3-.32,2.37,2.37,0,0,1-.09-.83V47.69h-.51v-.55h.51v-1l.7-.42v1.45h.71v.55h-.71v2.42a1.09,1.09,0,0,0,0,.39.27.27,0,0,0,.12.14.54.54,0,0,0,.24,0Z"/><path class="cls-3" d="M50.22,46.37v-.81h.7v.81Zm0,4.92V47.14h.7v4.15Z"/><path class="cls-3" d="M51.73,49.21a2.16,2.16,0,0,1,.64-1.7,1.92,1.92,0,0,1,1.31-.46,1.85,1.85,0,0,1,1.4.56,2.13,2.13,0,0,1,.54,1.55,2.77,2.77,0,0,1-.24,1.26,1.77,1.77,0,0,1-.7.71,2,2,0,0,1-1,.25,1.85,1.85,0,0,1-1.41-.56A2.22,2.22,0,0,1,51.73,49.21Zm.72,0a1.79,1.79,0,0,0,.35,1.2,1.13,1.13,0,0,0,.88.39,1.11,1.11,0,0,0,.87-.39,1.85,1.85,0,0,0,.35-1.22A1.76,1.76,0,0,0,54.55,48a1.18,1.18,0,0,0-1.75,0A1.78,1.78,0,0,0,52.45,49.21Zm.84-2.59.52-1.09h.92l-.86,1.09Z"/><path class="cls-3" d="M56.44,51.29V47.14h.64v.59a1.47,1.47,0,0,1,1.32-.68,1.73,1.73,0,0,1,.69.13,1.16,1.16,0,0,1,.47.35,1.42,1.42,0,0,1,.21.52,3.67,3.67,0,0,1,0,.69v2.55h-.7V48.76a2,2,0,0,0-.08-.64.73.73,0,0,0-.29-.34,1,1,0,0,0-.49-.12,1.15,1.15,0,0,0-.78.28A1.39,1.39,0,0,0,57.15,49v2.27Z"/><path class="cls-3" d="M65.81,51.29v-.53a1.28,1.28,0,0,1-1.16.62,1.65,1.65,0,0,1-.92-.27,1.81,1.81,0,0,1-.64-.77,2.63,2.63,0,0,1-.23-1.12,2.92,2.92,0,0,1,.21-1.13,1.59,1.59,0,0,1,.62-.77,1.65,1.65,0,0,1,.92-.27,1.44,1.44,0,0,1,.67.15,1.4,1.4,0,0,1,.48.42V45.56h.7v5.73Zm-2.23-2.07a1.82,1.82,0,0,0,.34,1.19,1,1,0,0,0,1.58,0,1.77,1.77,0,0,0,.32-1.15A1.93,1.93,0,0,0,65.49,48a1,1,0,0,0-.81-.4,1,1,0,0,0-.78.38A1.9,1.9,0,0,0,63.58,49.22Z"/><path class="cls-3" d="M70.4,50l.73.09a1.72,1.72,0,0,1-.64,1,1.92,1.92,0,0,1-1.18.35,1.89,1.89,0,0,1-1.45-.56,2.21,2.21,0,0,1-.53-1.57,2.31,2.31,0,0,1,.54-1.63,1.83,1.83,0,0,1,1.4-.57,1.78,1.78,0,0,1,1.36.56,2.27,2.27,0,0,1,.52,1.6v.18H68.06a1.57,1.57,0,0,0,.38,1,1.15,1.15,0,0,0,.87.36,1,1,0,0,0,.66-.2A1.28,1.28,0,0,0,70.4,50Zm-2.3-1.13h2.31a1.47,1.47,0,0,0-.26-.79A1.15,1.15,0,0,0,68.46,48,1.24,1.24,0,0,0,68.1,48.82Z"/><path class="cls-3" d="M72,51.29V47.14h.63v.63a1.56,1.56,0,0,1,.45-.58.71.71,0,0,1,.45-.14,1.39,1.39,0,0,1,.72.22l-.24.66a1,1,0,0,0-.52-.16.68.68,0,0,0-.41.14.73.73,0,0,0-.26.39,2.66,2.66,0,0,0-.12.82v2.17Z"/><path class="cls-3" d="M77.52,50l.72.09a1.71,1.71,0,0,1-.63,1,2,2,0,0,1-1.19.35A1.85,1.85,0,0,1,75,50.82a2.17,2.17,0,0,1-.54-1.57A2.31,2.31,0,0,1,75,47.62a1.85,1.85,0,0,1,1.4-.57,1.77,1.77,0,0,1,1.36.56,2.27,2.27,0,0,1,.53,1.6,1.36,1.36,0,0,1,0,.18H75.17a1.57,1.57,0,0,0,.39,1,1.15,1.15,0,0,0,.86.36,1,1,0,0,0,.66-.2A1.29,1.29,0,0,0,77.52,50Zm-2.31-1.13h2.31a1.47,1.47,0,0,0-.26-.79,1.09,1.09,0,0,0-.87-.41,1.11,1.11,0,0,0-.82.33A1.24,1.24,0,0,0,75.21,48.82Z"/><path class="cls-3" d="M81.83,49.77l.69.09A1.72,1.72,0,0,1,81.94,51a1.67,1.67,0,0,1-1.14.4,1.77,1.77,0,0,1-1.37-.55,2.27,2.27,0,0,1-.52-1.6,3.07,3.07,0,0,1,.22-1.18,1.6,1.6,0,0,1,.68-.75,2,2,0,0,1,1-.25,1.73,1.73,0,0,1,1.11.34,1.6,1.6,0,0,1,.55,1l-.69.1a1.13,1.13,0,0,0-.34-.62.87.87,0,0,0-.6-.22A1.08,1.08,0,0,0,80,48a1.74,1.74,0,0,0-.34,1.2A1.92,1.92,0,0,0,80,50.43a1.07,1.07,0,0,0,.84.37,1,1,0,0,0,.69-.25A1.24,1.24,0,0,0,81.83,49.77Z"/><path class="cls-3" d="M83.13,51.29V45.56h.7v2.06a1.57,1.57,0,0,1,1.24-.57,1.66,1.66,0,0,1,.8.18,1.08,1.08,0,0,1,.49.5,2.24,2.24,0,0,1,.15.93v2.63H85.8V48.66a1.06,1.06,0,0,0-.23-.77.83.83,0,0,0-.64-.24,1.21,1.21,0,0,0-.59.16.92.92,0,0,0-.39.44,2,2,0,0,0-.12.77v2.27Z"/><path class="cls-3" d="M87.31,49.21a2.16,2.16,0,0,1,.64-1.7,1.94,1.94,0,0,1,1.31-.46,1.84,1.84,0,0,1,1.4.56,2.13,2.13,0,0,1,.54,1.55A2.77,2.77,0,0,1,91,50.42a1.71,1.71,0,0,1-.7.71,2,2,0,0,1-1,.25,1.85,1.85,0,0,1-1.41-.56A2.22,2.22,0,0,1,87.31,49.21Zm.73,0a1.79,1.79,0,0,0,.34,1.2,1.15,1.15,0,0,0,.88.39,1.11,1.11,0,0,0,.87-.39,1.85,1.85,0,0,0,.35-1.22A1.76,1.76,0,0,0,90.13,48a1.13,1.13,0,0,0-.87-.39,1.15,1.15,0,0,0-.88.39A1.78,1.78,0,0,0,88,49.21Z"/><path class="cls-3" d="M91.74,50.05l.7-.11a1,1,0,0,0,.33.64,1.4,1.4,0,0,0,1.46,0,.61.61,0,0,0,.24-.47.42.42,0,0,0-.21-.37,3.52,3.52,0,0,0-.72-.24,5.89,5.89,0,0,1-1.07-.34A1,1,0,0,1,92,48.8a1.06,1.06,0,0,1,0-1.07,1.07,1.07,0,0,1,.34-.39,1.35,1.35,0,0,1,.45-.21,2,2,0,0,1,.61-.08,2.32,2.32,0,0,1,.86.14,1.17,1.17,0,0,1,.54.38,1.38,1.38,0,0,1,.24.64l-.68.09a.81.81,0,0,0-.28-.5,1,1,0,0,0-.63-.18,1.21,1.21,0,0,0-.69.16.48.48,0,0,0-.21.38.4.4,0,0,0,.09.25.58.58,0,0,0,.27.18,6.05,6.05,0,0,0,.62.18,9.52,9.52,0,0,1,1,.33,1.05,1.05,0,0,1,.46.37,1,1,0,0,1,.17.6,1.17,1.17,0,0,1-.21.66,1.24,1.24,0,0,1-.59.48,2,2,0,0,1-.87.17,2,2,0,0,1-1.24-.33A1.61,1.61,0,0,1,91.74,50.05Z"/><path class="cls-3" d="M98.25,51.29V45.56H99v2.06a1.57,1.57,0,0,1,1.24-.57,1.66,1.66,0,0,1,.8.18,1.08,1.08,0,0,1,.49.5,2.24,2.24,0,0,1,.15.93v2.63h-.71V48.66a1.06,1.06,0,0,0-.23-.77.83.83,0,0,0-.64-.24,1.21,1.21,0,0,0-.59.16,1,1,0,0,0-.39.44A2,2,0,0,0,99,49v2.27Z"/><path class="cls-3" d="M105.42,51.29v-.61a1.53,1.53,0,0,1-1.32.7,1.61,1.61,0,0,1-.69-.14,1.1,1.1,0,0,1-.47-.35,1.54,1.54,0,0,1-.22-.52,4.76,4.76,0,0,1,0-.66V47.14h.7v2.3a3.76,3.76,0,0,0,.05.74.69.69,0,0,0,.28.44.9.9,0,0,0,.53.16,1.12,1.12,0,0,0,.59-.17.86.86,0,0,0,.4-.44,2.34,2.34,0,0,0,.11-.81V47.14h.7v4.15Z"/><path class="cls-3" d="M107.15,51.29V47.14h.62v.58a1.63,1.63,0,0,1,.52-.49,1.53,1.53,0,0,1,.74-.18,1.36,1.36,0,0,1,.76.19,1,1,0,0,1,.41.53,1.5,1.5,0,0,1,1.29-.72,1.23,1.23,0,0,1,.94.34,1.43,1.43,0,0,1,.34,1v2.85h-.7V48.68a1.76,1.76,0,0,0-.07-.61.57.57,0,0,0-.25-.3.73.73,0,0,0-.42-.11,1,1,0,0,0-.73.29,1.28,1.28,0,0,0-.29.93v2.41h-.7v-2.7a1.22,1.22,0,0,0-.17-.7.64.64,0,0,0-.56-.23,1.06,1.06,0,0,0-.55.15.94.94,0,0,0-.37.46,2.74,2.74,0,0,0-.11.87v2.15Z"/><path class="cls-3" d="M116.52,50.78a2.87,2.87,0,0,1-.75.47,2.24,2.24,0,0,1-.78.13,1.5,1.5,0,0,1-1-.33,1.09,1.09,0,0,1-.37-.86,1.15,1.15,0,0,1,.14-.55,1.19,1.19,0,0,1,.36-.41,1.69,1.69,0,0,1,.51-.23,6.21,6.21,0,0,1,.62-.1,7,7,0,0,0,1.26-.24v-.19a.74.74,0,0,0-.2-.6,1.16,1.16,0,0,0-.8-.24,1.29,1.29,0,0,0-.73.17,1.08,1.08,0,0,0-.35.62l-.69-.1a1.86,1.86,0,0,1,.31-.71,1.36,1.36,0,0,1,.62-.42,2.73,2.73,0,0,1,.94-.14,2.6,2.6,0,0,1,.87.12,1.13,1.13,0,0,1,.49.32,1.07,1.07,0,0,1,.21.47,3.25,3.25,0,0,1,0,.65v.94a10.35,10.35,0,0,0,0,1.24,1.58,1.58,0,0,0,.18.5h-.73A1.37,1.37,0,0,1,116.52,50.78Zm-.06-1.57a5.38,5.38,0,0,1-1.15.26,2.64,2.64,0,0,0-.61.14.58.58,0,0,0-.28.23.57.57,0,0,0-.1.34.59.59,0,0,0,.21.46.91.91,0,0,0,.63.19,1.43,1.43,0,0,0,.72-.18,1.09,1.09,0,0,0,.47-.48,1.85,1.85,0,0,0,.11-.71Z"/><path class="cls-3" d="M118.26,51.29V47.14h.63v.59a1.49,1.49,0,0,1,1.32-.68,1.73,1.73,0,0,1,.69.13,1.1,1.1,0,0,1,.47.35,1.28,1.28,0,0,1,.22.52,3.67,3.67,0,0,1,0,.69v2.55h-.7V48.76a2,2,0,0,0-.08-.64.75.75,0,0,0-.3-.34,1,1,0,0,0-.49-.12,1.13,1.13,0,0,0-.77.28A1.39,1.39,0,0,0,119,49v2.27Z"/><path class="cls-3" d="M122.45,49.21a2.12,2.12,0,0,1,.64-1.7,1.9,1.9,0,0,1,1.3-.46,1.84,1.84,0,0,1,1.4.56,2.13,2.13,0,0,1,.54,1.55,2.77,2.77,0,0,1-.24,1.26,1.71,1.71,0,0,1-.7.71,2,2,0,0,1-1,.25,1.85,1.85,0,0,1-1.41-.56A2.26,2.26,0,0,1,122.45,49.21Zm.72,0a1.79,1.79,0,0,0,.35,1.2,1.17,1.17,0,0,0,1.74,0,1.85,1.85,0,0,0,.35-1.22,1.76,1.76,0,0,0-.35-1.17,1.17,1.17,0,0,0-1.74,0A1.78,1.78,0,0,0,123.17,49.21Z"/><path class="cls-3" d="M126.88,50.05l.69-.11a1,1,0,0,0,.33.64,1.14,1.14,0,0,0,.75.22,1.08,1.08,0,0,0,.71-.19.61.61,0,0,0,.24-.47.42.42,0,0,0-.21-.37,3.09,3.09,0,0,0-.72-.24,6.18,6.18,0,0,1-1.07-.34,1,1,0,0,1-.45-.39,1.1,1.1,0,0,1-.16-.56,1.14,1.14,0,0,1,.13-.51,1.1,1.1,0,0,1,.35-.39,1.39,1.39,0,0,1,.44-.21,2,2,0,0,1,.61-.08,2.28,2.28,0,0,1,.86.14,1.12,1.12,0,0,1,.54.38,1.5,1.5,0,0,1,.25.64l-.69.09a.75.75,0,0,0-.27-.5,1,1,0,0,0-.64-.18,1.21,1.21,0,0,0-.69.16.48.48,0,0,0-.21.38.4.4,0,0,0,.09.25.71.71,0,0,0,.27.18l.62.18a8.83,8.83,0,0,1,1,.33,1,1,0,0,1,.46.37,1,1,0,0,1,.17.6,1.24,1.24,0,0,1-.2.66,1.31,1.31,0,0,1-.6.48,2,2,0,0,1-.87.17,2,2,0,0,1-1.23-.33A1.56,1.56,0,0,1,126.88,50.05Z"/><path class="cls-2" d="M15.19,65.32V58.88h1.3v6.44Z"/><path class="cls-2" d="M22,65.32H20.73V62.94a3.79,3.79,0,0,0-.08-1,.71.71,0,0,0-.26-.35.75.75,0,0,0-.43-.12,1,1,0,0,0-.57.18.84.84,0,0,0-.35.46,4.11,4.11,0,0,0-.1,1.07v2.12H17.71V60.65h1.15v.69a1.85,1.85,0,0,1,1.53-.79,1.79,1.79,0,0,1,.75.14,1.22,1.22,0,0,1,.51.38,1.32,1.32,0,0,1,.25.52,4.34,4.34,0,0,1,.06.83Z"/><path class="cls-2" d="M27.5,65.32H26.35v-.69a1.84,1.84,0,0,1-.68.6,1.69,1.69,0,0,1-.78.19,1.75,1.75,0,0,1-1.38-.65,2.63,2.63,0,0,1-.57-1.8,2.58,2.58,0,0,1,.56-1.81,1.81,1.81,0,0,1,1.41-.61,1.72,1.72,0,0,1,1.35.65V58.88H27.5Zm-3.3-2.44A2.09,2.09,0,0,0,24.41,64a.94.94,0,0,0,1.56.13,1.71,1.71,0,0,0,.3-1.09A1.88,1.88,0,0,0,26,61.84a1,1,0,0,0-.75-.35.92.92,0,0,0-.73.35A1.56,1.56,0,0,0,24.2,62.88Z"/><path class="cls-2" d="M28.71,60V58.88H30V60Zm0,5.3V60.65H30v4.67Z"/><path class="cls-2" d="M35.28,62l-1.21.22a1,1,0,0,0-.28-.55,1,1,0,0,0-1.3.14,1.57,1.57,0,0,0-.28,1.06,1.86,1.86,0,0,0,.28,1.17.93.93,0,0,0,.75.35.87.87,0,0,0,.58-.2,1.31,1.31,0,0,0,.31-.69l1.22.21A2.2,2.2,0,0,1,34.62,65a2.28,2.28,0,0,1-1.44.42,2.14,2.14,0,0,1-1.63-.64,2.95,2.95,0,0,1,0-3.59,2.17,2.17,0,0,1,1.65-.64,2.29,2.29,0,0,1,1.36.36A2,2,0,0,1,35.28,62Z"/><path class="cls-2" d="M37.14,62.07,36,61.87a1.76,1.76,0,0,1,.65-1A2.37,2.37,0,0,1,38,60.55a3,3,0,0,1,1.23.19,1.24,1.24,0,0,1,.57.5,2.52,2.52,0,0,1,.17,1.1l0,1.44a5,5,0,0,0,.06.91,3.17,3.17,0,0,0,.22.63H39.05c0-.08-.07-.21-.12-.37s0-.12,0-.14a2.27,2.27,0,0,1-.68.46,2,2,0,0,1-.77.15A1.58,1.58,0,0,1,36.31,65a1.29,1.29,0,0,1-.42-1,1.36,1.36,0,0,1,.19-.7,1.29,1.29,0,0,1,.53-.48,4.22,4.22,0,0,1,1-.28,6.1,6.1,0,0,0,1.2-.31v-.12a.66.66,0,0,0-.17-.51,1.08,1.08,0,0,0-.67-.15.84.84,0,0,0-.51.13A1,1,0,0,0,37.14,62.07Zm1.65,1a7,7,0,0,1-.75.18,2.53,2.53,0,0,0-.67.22.51.51,0,0,0-.24.44.58.58,0,0,0,.19.44.66.66,0,0,0,.49.19,1,1,0,0,0,.64-.22.78.78,0,0,0,.3-.4,2.79,2.79,0,0,0,0-.61Z"/><path class="cls-2" d="M45.5,65.32H44.36v-.69a1.84,1.84,0,0,1-.68.6,1.72,1.72,0,0,1-.78.19,1.75,1.75,0,0,1-1.38-.65A2.63,2.63,0,0,1,41,63a2.58,2.58,0,0,1,.56-1.81,1.81,1.81,0,0,1,1.41-.61,1.72,1.72,0,0,1,1.35.65V58.88H45.5Zm-3.29-2.44A2.09,2.09,0,0,0,42.42,64a.9.9,0,0,0,.83.49.93.93,0,0,0,.73-.36A1.77,1.77,0,0,0,44.27,63,1.82,1.82,0,0,0,44,61.84a.95.95,0,0,0-1.47,0A1.56,1.56,0,0,0,42.21,62.88Z"/><path class="cls-2" d="M46.44,62.92a2.53,2.53,0,0,1,.3-1.19,2,2,0,0,1,.86-.88,2.56,2.56,0,0,1,1.24-.3,2.32,2.32,0,0,1,1.74.68,2.61,2.61,0,0,1,0,3.5,2.33,2.33,0,0,1-1.72.69,2.58,2.58,0,0,1-1.22-.29,1.93,1.93,0,0,1-.89-.85A2.85,2.85,0,0,1,46.44,62.92ZM47.7,63A1.56,1.56,0,0,0,48,64.05a1.08,1.08,0,0,0,1.63,0A1.63,1.63,0,0,0,50,63a1.6,1.6,0,0,0-.32-1.06,1.08,1.08,0,0,0-1.63,0A1.55,1.55,0,0,0,47.7,63Z"/><path class="cls-2" d="M53.4,65.32H52.17V60.65h1.14v.66a2.2,2.2,0,0,1,.53-.62,1,1,0,0,1,.54-.14,1.51,1.51,0,0,1,.81.23l-.38,1.07a1.12,1.12,0,0,0-.58-.2.67.67,0,0,0-.44.15.88.88,0,0,0-.28.51,7.14,7.14,0,0,0-.11,1.57Z"/><path class="cls-2" d="M62.13,64.17v1.15H57.8a3,3,0,0,1,.42-1.23,8.36,8.36,0,0,1,1.39-1.55,9.68,9.68,0,0,0,1-1,1.37,1.37,0,0,0,.25-.76.77.77,0,0,0-.83-.86.81.81,0,0,0-.62.24,1.17,1.17,0,0,0-.26.77L58,60.76a2,2,0,0,1,.69-1.47,2.34,2.34,0,0,1,1.45-.44,2.09,2.09,0,0,1,1.49.51,1.68,1.68,0,0,1,.55,1.28,2.12,2.12,0,0,1-.16.83,3.28,3.28,0,0,1-.49.82,8.17,8.17,0,0,1-.81.83,9.35,9.35,0,0,0-.74.71,2.25,2.25,0,0,0-.25.34Z"/><path class="cls-2" d="M63.47,61.89V60.65H64.7v1.24Zm0,3.43V64.08H64.7v1.24Z"/><path class="cls-3" d="M15.2,75.32V69.59h4.15v.68H16V72h3.17v.67H16v2h3.52v.68Z"/><path class="cls-3" d="M19.54,76.93l.13-.6a1.21,1.21,0,0,0,.34,0,.36.36,0,0,0,.32-.14,1.45,1.45,0,0,0,.1-.71V71.17h.7v4.37a2,2,0,0,1-.2,1.07.92.92,0,0,1-.84.39A2,2,0,0,1,19.54,76.93Zm.89-6.52v-.82h.7v.82Z"/><path class="cls-3" d="M22.21,75.32V71.17h.63v.58a1.53,1.53,0,0,1,.52-.49,1.5,1.5,0,0,1,.74-.18,1.3,1.3,0,0,1,.75.19,1,1,0,0,1,.42.53,1.5,1.5,0,0,1,1.28-.72,1.26,1.26,0,0,1,.95.34,1.45,1.45,0,0,1,.33,1v2.85h-.7V72.7a2.11,2.11,0,0,0-.06-.6.57.57,0,0,0-.25-.3.74.74,0,0,0-.42-.12,1,1,0,0,0-.73.3,1.28,1.28,0,0,0-.29.93v2.41h-.7v-2.7a1.22,1.22,0,0,0-.17-.7.67.67,0,0,0-.57-.24,1.07,1.07,0,0,0-.55.16.92.92,0,0,0-.36.46,2.48,2.48,0,0,0-.11.87v2.15Z"/><path class="cls-3" d="M29.07,72v-.8h.8V72Zm0,3.35v-.8h.8v.8Z"/><path class="cls-3" d="M33.42,75.32V69.59H36a3.25,3.25,0,0,1,1.17.16,1.26,1.26,0,0,1,.63.54,1.62,1.62,0,0,1,.24.86,1.45,1.45,0,0,1-.39,1,2,2,0,0,1-1.22.53,2,2,0,0,1,.46.29,3.46,3.46,0,0,1,.62.76l1,1.56h-.95l-.76-1.19a7.64,7.64,0,0,0-.55-.79,1.76,1.76,0,0,0-.38-.39,1.32,1.32,0,0,0-.35-.15,2,2,0,0,0-.42,0h-.88v2.55Zm.76-3.2h1.63a2.42,2.42,0,0,0,.81-.11.88.88,0,0,0,.45-.34,1,1,0,0,0,.15-.52.85.85,0,0,0-.29-.66,1.37,1.37,0,0,0-.94-.27H34.18Z"/><path class="cls-3" d="M41.94,74l.73.09a1.78,1.78,0,0,1-.64,1,2,2,0,0,1-1.19.35,1.89,1.89,0,0,1-1.44-.56,2.17,2.17,0,0,1-.54-1.57,2.31,2.31,0,0,1,.54-1.63,1.85,1.85,0,0,1,1.4-.57,1.75,1.75,0,0,1,1.36.56,2.27,2.27,0,0,1,.53,1.6,1.36,1.36,0,0,1,0,.18H39.59a1.62,1.62,0,0,0,.39,1,1.15,1.15,0,0,0,.87.36,1.08,1.08,0,0,0,.66-.2A1.4,1.4,0,0,0,41.94,74Zm-2.31-1.14H42a1.36,1.36,0,0,0-.27-.78,1.07,1.07,0,0,0-.87-.41A1.1,1.1,0,0,0,40,72,1.25,1.25,0,0,0,39.63,72.84Z"/><path class="cls-3" d="M43.55,76.91V71.17h.64v.54a1.65,1.65,0,0,1,.51-.48,1.47,1.47,0,0,1,.69-.15,1.65,1.65,0,0,1,.94.27,1.62,1.62,0,0,1,.61.77,3,3,0,0,1,0,2.24,1.69,1.69,0,0,1-.66.78,1.72,1.72,0,0,1-.92.27,1.33,1.33,0,0,1-.63-.15,1.42,1.42,0,0,1-.46-.37v2Zm.63-3.64a1.77,1.77,0,0,0,.33,1.18,1,1,0,0,0,.78.38,1,1,0,0,0,.81-.39,1.92,1.92,0,0,0,.33-1.23A1.82,1.82,0,0,0,46.1,72a1,1,0,0,0-.77-.39,1,1,0,0,0-.8.42A1.87,1.87,0,0,0,44.18,73.27Z"/><path class="cls-3" d="M50.72,75.32v-.61a1.53,1.53,0,0,1-1.32.7,1.77,1.77,0,0,1-.69-.14,1.1,1.1,0,0,1-.47-.35A1.54,1.54,0,0,1,48,74.4a4.76,4.76,0,0,1,0-.66V71.17h.7v2.3a3.76,3.76,0,0,0,0,.74.74.74,0,0,0,.28.44.9.9,0,0,0,.53.16,1.12,1.12,0,0,0,.59-.17.86.86,0,0,0,.4-.44,2.34,2.34,0,0,0,.11-.81V71.17h.71v4.15Z"/><path class="cls-3" d="M54,74.69l.1.62a2.61,2.61,0,0,1-.53.06,1.21,1.21,0,0,1-.59-.12.71.71,0,0,1-.3-.32,2.49,2.49,0,0,1-.08-.83V71.72h-.52v-.55h.52v-1l.69-.42v1.45H54v.55h-.71v2.42a1.4,1.4,0,0,0,0,.39.41.41,0,0,0,.12.14.54.54,0,0,0,.24,0Z"/><path class="cls-3" d="M57.38,74.81a2.49,2.49,0,0,1-.76.46,2,2,0,0,1-.77.14,1.5,1.5,0,0,1-1.05-.33,1.11,1.11,0,0,1-.37-.86,1.15,1.15,0,0,1,.14-.55,1.1,1.1,0,0,1,.36-.41,1.69,1.69,0,0,1,.51-.23,6.21,6.21,0,0,1,.62-.1,6.1,6.1,0,0,0,1.26-.25V72.5a.74.74,0,0,0-.2-.6,1.16,1.16,0,0,0-.8-.24,1.29,1.29,0,0,0-.73.17,1,1,0,0,0-.35.62l-.69-.1a1.72,1.72,0,0,1,.31-.71,1.36,1.36,0,0,1,.62-.42,2.73,2.73,0,0,1,.94-.14,2.64,2.64,0,0,1,.87.12,1.11,1.11,0,0,1,.48.31A1.06,1.06,0,0,1,58,72a3.25,3.25,0,0,1,0,.65v.94a10.35,10.35,0,0,0,0,1.24,1.58,1.58,0,0,0,.18.5h-.73A1.37,1.37,0,0,1,57.38,74.81Zm-.06-1.57a5.38,5.38,0,0,1-1.15.26,2.64,2.64,0,0,0-.61.14.58.58,0,0,0-.28.23.56.56,0,0,0-.1.33.59.59,0,0,0,.21.47.91.91,0,0,0,.63.19,1.43,1.43,0,0,0,.72-.18,1.06,1.06,0,0,0,.46-.48,1.65,1.65,0,0,0,.12-.71Z"/><path class="cls-3" d="M61.83,73.8l.69.09A1.84,1.84,0,0,1,61.94,75a1.7,1.7,0,0,1-1.15.4,1.76,1.76,0,0,1-1.37-.56,2.27,2.27,0,0,1-.52-1.59,2.89,2.89,0,0,1,.23-1.18,1.53,1.53,0,0,1,.67-.75,2,2,0,0,1,1-.25,1.73,1.73,0,0,1,1.11.34,1.52,1.52,0,0,1,.55,1l-.68.1a1.21,1.21,0,0,0-.35-.63.88.88,0,0,0-.6-.21A1.1,1.1,0,0,0,60,72a1.84,1.84,0,0,0-.33,1.21A1.81,1.81,0,0,0,60,74.45a1,1,0,0,0,.83.38,1,1,0,0,0,.69-.25A1.24,1.24,0,0,0,61.83,73.8Z"/><path class="cls-3" d="M63.12,70.4v-.81h.71v.81Zm0,4.92V71.17h.71v4.15Z"/><path class="cls-3" d="M64.63,73.24a2.14,2.14,0,0,1,.64-1.7,1.94,1.94,0,0,1,1.31-.46,1.84,1.84,0,0,1,1.4.56,2.13,2.13,0,0,1,.54,1.54,2.71,2.71,0,0,1-.24,1.26,1.68,1.68,0,0,1-.7.72,2,2,0,0,1-1,.25,1.88,1.88,0,0,1-1.41-.56A2.22,2.22,0,0,1,64.63,73.24Zm.73,0a1.81,1.81,0,0,0,.34,1.2,1.15,1.15,0,0,0,.88.39,1.09,1.09,0,0,0,.87-.4,1.8,1.8,0,0,0,.35-1.21,1.76,1.76,0,0,0-.35-1.17,1.11,1.11,0,0,0-.87-.39,1.15,1.15,0,0,0-.88.39A1.76,1.76,0,0,0,65.36,73.24Zm.83-2.59.52-1.09h.92l-.86,1.09Z"/><path class="cls-3" d="M69.35,75.32V71.17H70v.59a1.47,1.47,0,0,1,1.32-.68,1.73,1.73,0,0,1,.69.13,1.16,1.16,0,0,1,.47.35,1.43,1.43,0,0,1,.22.52,4.82,4.82,0,0,1,0,.69v2.55H72V72.79a1.78,1.78,0,0,0-.08-.64.68.68,0,0,0-.29-.34,1,1,0,0,0-.49-.13,1.16,1.16,0,0,0-.78.29,1.43,1.43,0,0,0-.32,1.08v2.27Z"/><path class="cls-2" d="M15.19,89.35V82.9h1.3v6.45Z"/><path class="cls-2" d="M22,89.35H20.73V87a3.79,3.79,0,0,0-.08-1,.67.67,0,0,0-.26-.35.75.75,0,0,0-.43-.12,1,1,0,0,0-.57.17.9.9,0,0,0-.35.47,4.06,4.06,0,0,0-.1,1.07v2.12H17.71V84.68h1.15v.69a1.86,1.86,0,0,1,1.53-.8,1.79,1.79,0,0,1,.75.15,1.22,1.22,0,0,1,.51.38,1.32,1.32,0,0,1,.25.52,4.34,4.34,0,0,1,.06.83Z"/><path class="cls-2" d="M27.5,89.35H26.35v-.69a1.84,1.84,0,0,1-.68.6,1.69,1.69,0,0,1-.78.19,1.75,1.75,0,0,1-1.38-.65,2.63,2.63,0,0,1-.57-1.8,2.57,2.57,0,0,1,.56-1.81,1.82,1.82,0,0,1,1.41-.62,1.75,1.75,0,0,1,1.35.65V82.9H27.5Zm-3.3-2.44A2.09,2.09,0,0,0,24.41,88a.92.92,0,0,0,.83.49.9.9,0,0,0,.73-.37,1.66,1.66,0,0,0,.3-1.08A1.88,1.88,0,0,0,26,85.87a1,1,0,0,0-.75-.35.92.92,0,0,0-.73.35A1.56,1.56,0,0,0,24.2,86.91Z"/><path class="cls-2" d="M28.71,84.05V82.9H30v1.15Zm0,5.3V84.68H30v4.67Z"/><path class="cls-2" d="M35.28,86.06l-1.21.22a1,1,0,0,0-.28-.55.88.88,0,0,0-.57-.18.9.9,0,0,0-.73.31,1.61,1.61,0,0,0-.28,1.07,1.86,1.86,0,0,0,.28,1.17.93.93,0,0,0,.75.35.87.87,0,0,0,.58-.2,1.31,1.31,0,0,0,.31-.69l1.22.2A2.2,2.2,0,0,1,34.62,89a2.28,2.28,0,0,1-1.44.42,2.14,2.14,0,0,1-1.63-.64,2.95,2.95,0,0,1,0-3.59,2.18,2.18,0,0,1,1.65-.65,2.29,2.29,0,0,1,1.36.37A2,2,0,0,1,35.28,86.06Z"/><path class="cls-2" d="M37.14,86.1,36,85.9a1.76,1.76,0,0,1,.65-1A2.37,2.37,0,0,1,38,84.57a3,3,0,0,1,1.23.2,1.24,1.24,0,0,1,.57.5,2.52,2.52,0,0,1,.17,1.1l0,1.44a5,5,0,0,0,.06.91,3.17,3.17,0,0,0,.22.63H39.05L38.93,89c0-.07,0-.12,0-.14a2.27,2.27,0,0,1-.68.46,2,2,0,0,1-.77.15,1.58,1.58,0,0,1-1.13-.39,1.29,1.29,0,0,1-.42-1,1.36,1.36,0,0,1,.19-.7,1.29,1.29,0,0,1,.53-.48,4.7,4.7,0,0,1,1-.29,5.6,5.6,0,0,0,1.2-.3v-.12a.66.66,0,0,0-.17-.51,1.08,1.08,0,0,0-.67-.15.84.84,0,0,0-.51.13A1,1,0,0,0,37.14,86.1Zm1.65,1a7,7,0,0,1-.75.18,2.53,2.53,0,0,0-.67.22.51.51,0,0,0-.24.43.58.58,0,0,0,.19.45.66.66,0,0,0,.49.19,1,1,0,0,0,.64-.22.76.76,0,0,0,.3-.41,2.63,2.63,0,0,0,0-.6Z"/><path class="cls-2" d="M45.5,89.35H44.36v-.69a1.84,1.84,0,0,1-.68.6,1.72,1.72,0,0,1-.78.19,1.75,1.75,0,0,1-1.38-.65A2.63,2.63,0,0,1,41,87a2.57,2.57,0,0,1,.56-1.81,1.82,1.82,0,0,1,1.41-.62,1.75,1.75,0,0,1,1.35.65V82.9H45.5Zm-3.29-2.44A2.09,2.09,0,0,0,42.42,88a.93.93,0,0,0,1.56.12A1.72,1.72,0,0,0,44.27,87,1.82,1.82,0,0,0,44,85.87a.95.95,0,0,0-1.47,0A1.56,1.56,0,0,0,42.21,86.91Z"/><path class="cls-2" d="M46.44,87a2.53,2.53,0,0,1,.3-1.19,2,2,0,0,1,.86-.88,2.56,2.56,0,0,1,1.24-.31,2.33,2.33,0,0,1,1.74.69,2.61,2.61,0,0,1,0,3.5,2.33,2.33,0,0,1-1.72.69,2.58,2.58,0,0,1-1.22-.29,1.93,1.93,0,0,1-.89-.85A2.85,2.85,0,0,1,46.44,87ZM47.7,87A1.56,1.56,0,0,0,48,88.08a1.08,1.08,0,0,0,1.63,0A1.63,1.63,0,0,0,50,87,1.6,1.6,0,0,0,49.66,86,1.08,1.08,0,0,0,48,86,1.55,1.55,0,0,0,47.7,87Z"/><path class="cls-2" d="M53.4,89.35H52.17V84.68h1.14v.66a2.2,2.2,0,0,1,.53-.62,1,1,0,0,1,.54-.15,1.52,1.52,0,0,1,.81.24l-.38,1.07a1.12,1.12,0,0,0-.58-.2.72.72,0,0,0-.44.14,1,1,0,0,0-.28.52,7.14,7.14,0,0,0-.11,1.57Z"/><path class="cls-2" d="M57.91,87.64l1.2-.15a1.11,1.11,0,0,0,.31.7.87.87,0,0,0,1.25,0,1.13,1.13,0,0,0,.26-.78,1,1,0,0,0-.25-.74.8.8,0,0,0-.61-.27,2.22,2.22,0,0,0-.57.09l.14-1a1.13,1.13,0,0,0,.76-.22.78.78,0,0,0,.27-.62.68.68,0,0,0-.71-.71.77.77,0,0,0-.54.22,1.09,1.09,0,0,0-.28.65L58,84.56a2.51,2.51,0,0,1,.36-.93,1.5,1.5,0,0,1,.66-.55,2.17,2.17,0,0,1,1-.2,1.89,1.89,0,0,1,1.46.58A1.47,1.47,0,0,1,61,85.88a1.47,1.47,0,0,1,.88.54,1.52,1.52,0,0,1,.34,1,2,2,0,0,1-.62,1.45,2.15,2.15,0,0,1-1.55.6A2.12,2.12,0,0,1,58.58,89,2,2,0,0,1,57.91,87.64Z"/><path class="cls-2" d="M63.47,85.92V84.68H64.7v1.24Zm0,3.43V88.11H64.7v1.24Z"/><path class="cls-3" d="M15.2,99.35V93.62h4.15v.68H16v1.75h3.17v.67H16v2h3.52v.68Z"/><path class="cls-3" d="M19.54,101l.13-.6a1.74,1.74,0,0,0,.34,0,.36.36,0,0,0,.32-.14,1.45,1.45,0,0,0,.1-.71V95.2h.7v4.37a2,2,0,0,1-.2,1.07.92.92,0,0,1-.84.39A2,2,0,0,1,19.54,101Zm.89-6.52v-.82h.7v.82Z"/><path class="cls-3" d="M22.21,99.35V95.2h.63v.58a1.44,1.44,0,0,1,.52-.49,1.51,1.51,0,0,1,.74-.19,1.3,1.3,0,0,1,.75.2,1,1,0,0,1,.42.53,1.51,1.51,0,0,1,1.28-.73,1.26,1.26,0,0,1,.95.35,1.45,1.45,0,0,1,.33,1v2.85h-.7V96.73a2.11,2.11,0,0,0-.06-.6.57.57,0,0,0-.25-.3.74.74,0,0,0-.42-.12,1,1,0,0,0-.73.3,1.28,1.28,0,0,0-.29.93v2.41h-.7v-2.7a1.2,1.2,0,0,0-.17-.7.67.67,0,0,0-.57-.24,1.07,1.07,0,0,0-.55.16.88.88,0,0,0-.36.46,2.46,2.46,0,0,0-.11.86v2.16Z"/><path class="cls-3" d="M29.07,96v-.8h.8V96Zm0,3.35v-.8h.8v.8Z"/><path class="cls-3" d="M34.72,99.35v-5H32.84v-.68h4.54v.68h-1.9v5Z"/><path class="cls-3" d="M37.76,99.35V95.2h.63v.63a1.56,1.56,0,0,1,.45-.58.76.76,0,0,1,.45-.15,1.36,1.36,0,0,1,.72.23l-.24.65a1,1,0,0,0-.51-.15.68.68,0,0,0-.42.14.74.74,0,0,0-.26.38,2.73,2.73,0,0,0-.12.83v2.17Z"/><path class="cls-3" d="M43.14,98.84a2.58,2.58,0,0,1-.75.46,2.25,2.25,0,0,1-.78.14,1.52,1.52,0,0,1-1-.33,1.11,1.11,0,0,1-.37-.86,1.12,1.12,0,0,1,.14-.55,1.2,1.2,0,0,1,.36-.41,1.69,1.69,0,0,1,.51-.23,6,6,0,0,1,.63-.1,6.13,6.13,0,0,0,1.25-.25v-.18a.72.72,0,0,0-.2-.6,1.16,1.16,0,0,0-.8-.24,1.21,1.21,0,0,0-.73.17,1.08,1.08,0,0,0-.35.62l-.69-.1a1.86,1.86,0,0,1,.31-.71,1.42,1.42,0,0,1,.62-.42,2.73,2.73,0,0,1,.94-.15,2.57,2.57,0,0,1,.87.13,1.22,1.22,0,0,1,.49.31,1.33,1.33,0,0,1,.22.48,4.68,4.68,0,0,1,0,.65v.94a9.55,9.55,0,0,0,.05,1.24,1.56,1.56,0,0,0,.17.5h-.73A1.59,1.59,0,0,1,43.14,98.84Zm-.06-1.58a4.75,4.75,0,0,1-1.15.27,2.64,2.64,0,0,0-.61.14.61.61,0,0,0-.38.56.57.57,0,0,0,.22.47.89.89,0,0,0,.62.19,1.43,1.43,0,0,0,.72-.18,1.14,1.14,0,0,0,.47-.48,1.85,1.85,0,0,0,.11-.71Z"/><path class="cls-3" d="M44.85,100.94l-.08-.66a1.3,1.3,0,0,0,.4.07.82.82,0,0,0,.38-.08.69.69,0,0,0,.23-.22,5,5,0,0,0,.21-.52s0-.1.07-.18L44.48,95.2h.76l.86,2.4a9.75,9.75,0,0,1,.3,1,9.34,9.34,0,0,1,.29-.94l.89-2.42h.7L46.7,99.42a7.75,7.75,0,0,1-.39.94,1.49,1.49,0,0,1-.43.51,1,1,0,0,1-.58.16A1.38,1.38,0,0,1,44.85,100.94Z"/><path class="cls-3" d="M51.72,98l.73.09a1.81,1.81,0,0,1-.64,1,2,2,0,0,1-1.19.35,1.91,1.91,0,0,1-1.44-.56,2.16,2.16,0,0,1-.53-1.57,2.35,2.35,0,0,1,.53-1.63,1.85,1.85,0,0,1,1.4-.58,1.76,1.76,0,0,1,1.36.57,2.26,2.26,0,0,1,.53,1.59v.19h-3.1a1.62,1.62,0,0,0,.39,1,1.15,1.15,0,0,0,.87.36,1.08,1.08,0,0,0,.66-.2A1.4,1.4,0,0,0,51.72,98Zm-2.31-1.14h2.32a1.36,1.36,0,0,0-.27-.78,1.07,1.07,0,0,0-.87-.41,1.1,1.1,0,0,0-.81.33A1.25,1.25,0,0,0,49.41,96.87Z"/><path class="cls-3" d="M56,97.83l.69.09A1.84,1.84,0,0,1,56.15,99a1.7,1.7,0,0,1-1.15.4,1.76,1.76,0,0,1-1.37-.56,2.27,2.27,0,0,1-.52-1.59,2.89,2.89,0,0,1,.23-1.18,1.51,1.51,0,0,1,.68-.75,2,2,0,0,1,1-.26,1.7,1.7,0,0,1,1.1.35,1.52,1.52,0,0,1,.55,1l-.68.1a1.14,1.14,0,0,0-.35-.63.88.88,0,0,0-.6-.21,1.1,1.1,0,0,0-.86.38,1.84,1.84,0,0,0-.33,1.21,1.81,1.81,0,0,0,.32,1.21,1,1,0,0,0,.83.38,1,1,0,0,0,.69-.25A1.24,1.24,0,0,0,56,97.83Z"/><path class="cls-3" d="M58.86,98.72l.11.62a2.78,2.78,0,0,1-.54.06,1.21,1.21,0,0,1-.59-.12.71.71,0,0,1-.3-.32,2.81,2.81,0,0,1-.08-.83V95.75h-.52V95.2h.52v-1l.7-.42V95.2h.7v.55h-.7v2.42a1.55,1.55,0,0,0,0,.39.27.27,0,0,0,.13.13.38.38,0,0,0,.24.06Z"/><path class="cls-3" d="M59.29,97.27a2.11,2.11,0,0,1,.64-1.7,1.93,1.93,0,0,1,1.31-.47,1.82,1.82,0,0,1,1.39.57,2.07,2.07,0,0,1,.55,1.54,2.71,2.71,0,0,1-.24,1.26,1.74,1.74,0,0,1-.7.72,2,2,0,0,1-1,.25,1.87,1.87,0,0,1-1.41-.56A2.22,2.22,0,0,1,59.29,97.27Zm.72,0a1.81,1.81,0,0,0,.35,1.2,1.12,1.12,0,0,0,.88.39,1.1,1.1,0,0,0,.87-.4,1.8,1.8,0,0,0,.34-1.21,1.71,1.71,0,0,0-.35-1.17,1.11,1.11,0,0,0-.86-.39,1.12,1.12,0,0,0-.88.39A1.76,1.76,0,0,0,60,97.27Z"/><path class="cls-3" d="M64,99.35V95.2h.64v.63a1.67,1.67,0,0,1,.44-.58.76.76,0,0,1,.45-.15,1.42,1.42,0,0,1,.73.23L66,96a1.06,1.06,0,0,0-.52-.15.68.68,0,0,0-.41.14.76.76,0,0,0-.27.38,3.09,3.09,0,0,0-.11.83v2.17Z"/><path class="cls-3" d="M66.67,94.43v-.81h.7v.81Zm0,4.92V95.2h.7v4.15Z"/><path class="cls-3" d="M71.15,98.84a2.58,2.58,0,0,1-.75.46,2.21,2.21,0,0,1-.78.14,1.54,1.54,0,0,1-1.05-.33,1.14,1.14,0,0,1-.37-.86,1.12,1.12,0,0,1,.14-.55,1.23,1.23,0,0,1,.37-.41,1.64,1.64,0,0,1,.5-.23,6,6,0,0,1,.63-.1,6.13,6.13,0,0,0,1.25-.25c0-.09,0-.15,0-.18a.76.76,0,0,0-.2-.6,1.18,1.18,0,0,0-.8-.24,1.23,1.23,0,0,0-.74.17,1.14,1.14,0,0,0-.35.62l-.68-.1a1.71,1.71,0,0,1,.3-.71,1.4,1.4,0,0,1,.63-.42,2.69,2.69,0,0,1,.94-.15,2.55,2.55,0,0,1,.86.13,1.22,1.22,0,0,1,.49.31,1.18,1.18,0,0,1,.22.48,4.68,4.68,0,0,1,0,.65v.94a9.55,9.55,0,0,0,0,1.24,1.85,1.85,0,0,0,.17.5h-.73A1.59,1.59,0,0,1,71.15,98.84Zm-.06-1.58a4.63,4.63,0,0,1-1.15.27,2.64,2.64,0,0,0-.61.14.61.61,0,0,0-.38.56.6.6,0,0,0,.22.47.89.89,0,0,0,.62.19,1.43,1.43,0,0,0,.72-.18,1.14,1.14,0,0,0,.47-.48,1.85,1.85,0,0,0,.11-.71Z"/><path class="cls-3" d="M75.22,99.35V93.62h2.54a3.46,3.46,0,0,1,1.16.15,1.36,1.36,0,0,1,.64.55,1.61,1.61,0,0,1,.23.86,1.45,1.45,0,0,1-.39,1,2,2,0,0,1-1.22.53,2,2,0,0,1,.46.29,3.8,3.8,0,0,1,.63.76l1,1.56h-1l-.76-1.19c-.22-.35-.4-.61-.54-.79a2,2,0,0,0-.39-.39,1.19,1.19,0,0,0-.35-.15,2,2,0,0,0-.42,0H76v2.55Zm.75-3.2H77.6a2.53,2.53,0,0,0,.82-.11.89.89,0,0,0,.44-.34,1,1,0,0,0,.15-.52.88.88,0,0,0-.29-.67,1.41,1.41,0,0,0-.93-.26H76Z"/><path class="cls-3" d="M80.72,97.51l.72-.07a1.46,1.46,0,0,0,.24.71,1.25,1.25,0,0,0,.57.44,2.09,2.09,0,0,0,.88.17,2.3,2.3,0,0,0,.77-.12,1.1,1.1,0,0,0,.49-.36.8.8,0,0,0,.16-.49.78.78,0,0,0-.15-.47,1.24,1.24,0,0,0-.52-.34,10.44,10.44,0,0,0-1-.28,4.89,4.89,0,0,1-1.1-.35,1.58,1.58,0,0,1-.62-.54,1.33,1.33,0,0,1-.2-.71,1.41,1.41,0,0,1,.25-.81,1.49,1.49,0,0,1,.72-.57,2.69,2.69,0,0,1,1-.2,2.8,2.8,0,0,1,1.12.21,1.61,1.61,0,0,1,.75.6,1.77,1.77,0,0,1,.28.9l-.73.06a1.15,1.15,0,0,0-.39-.82,1.53,1.53,0,0,0-1-.28,1.58,1.58,0,0,0-1,.25.76.76,0,0,0-.32.61.65.65,0,0,0,.23.51A3,3,0,0,0,83,96a8.52,8.52,0,0,1,1.27.36,1.63,1.63,0,0,1,.73.59,1.38,1.38,0,0,1,.24.81,1.52,1.52,0,0,1-.26.86,1.68,1.68,0,0,1-.75.63,2.64,2.64,0,0,1-1.1.22,3.35,3.35,0,0,1-1.31-.22,1.83,1.83,0,0,1-.82-.68A2,2,0,0,1,80.72,97.51Z"/><path class="cls-3" d="M86.33,99.35V93.62h4.14v.68H87.09v1.75h3.17v.67H87.09v2h3.52v.68Z"/><rect class="cls-4" x="13.96" y="4.79" width="0.85" height="19.3" rx="0.42"/><rect class="cls-4" x="127.83" y="4.79" width="0.85" height="19.3" rx="0.42"/><path class="cls-3" d="M26.58,12.72H25.17l-.57-1.46H22l-.53,1.46H20.12l2.51-6.44H24Zm-2.39-2.54L23.3,7.79l-.87,2.39Z"/><path class="cls-3" d="M28.26,12.72H27V8.06h1.15v.66a1.92,1.92,0,0,1,.53-.62A.94.94,0,0,1,29.24,8a1.52,1.52,0,0,1,.81.24l-.38,1.07a1.12,1.12,0,0,0-.58-.2.72.72,0,0,0-.44.14,1,1,0,0,0-.28.52,7.09,7.09,0,0,0-.11,1.56Z"/><path class="cls-3" d="M30.31,8.06h1.14V8.7A1.82,1.82,0,0,1,32.9,8a1.5,1.5,0,0,1,.78.19,1.39,1.39,0,0,1,.54.56,2.15,2.15,0,0,1,.67-.56A1.53,1.53,0,0,1,35.65,8a1.7,1.7,0,0,1,.87.21,1.38,1.38,0,0,1,.53.61,2.81,2.81,0,0,1,.13,1v3H35.94V10.06a1.92,1.92,0,0,0-.13-.9.59.59,0,0,0-.52-.26.8.8,0,0,0-.49.16.89.89,0,0,0-.33.46,3.2,3.2,0,0,0-.1,1v2.24H33.13V10.17a3.85,3.85,0,0,0-.06-.88.61.61,0,0,0-.21-.3.68.68,0,0,0-.37-.09,1,1,0,0,0-.52.15.8.8,0,0,0-.32.45,3.11,3.11,0,0,0-.1,1v2.26H30.31Z"/><path class="cls-3" d="M37.94,10.33a2.53,2.53,0,0,1,.3-1.19,2.09,2.09,0,0,1,.86-.88A2.48,2.48,0,0,1,40.34,8a2.33,2.33,0,0,1,1.74.69,2.39,2.39,0,0,1,.68,1.74,2.38,2.38,0,0,1-.69,1.75,2.27,2.27,0,0,1-1.72.7,2.77,2.77,0,0,1-1.22-.29,2,2,0,0,1-.89-.85A2.85,2.85,0,0,1,37.94,10.33Zm1.27.06a1.57,1.57,0,0,0,.33,1.07,1.09,1.09,0,0,0,1.62,0,1.59,1.59,0,0,0,.33-1.08,1.52,1.52,0,0,0-.33-1.05,1.07,1.07,0,0,0-1.62,0A1.53,1.53,0,0,0,39.21,10.39Z"/><path class="cls-3" d="M47.79,12.72H46.55V10.34a3.86,3.86,0,0,0-.07-1A.72.72,0,0,0,46.22,9a.75.75,0,0,0-.43-.12,1.06,1.06,0,0,0-.58.17,1,1,0,0,0-.35.47,4.19,4.19,0,0,0-.09,1.07v2.11H43.54V8.06h1.14v.68A1.89,1.89,0,0,1,46.22,8,1.86,1.86,0,0,1,47,8.1a1.27,1.27,0,0,1,.51.38,1.33,1.33,0,0,1,.24.51,3.6,3.6,0,0,1,.07.83Z"/><path class="cls-3" d="M48.86,7.43V6.28H50.1V7.43Zm0,5.29V8.06H50.1v4.66Z"/><path class="cls-3" d="M50.69,12.72v-1l1.74-2c.29-.32.5-.56.64-.69H50.86v-1h3.86v.87L52.93,11l-.63.68.64,0h1.91v1.08Z"/><path class="cls-3" d="M56.43,9.48l-1.12-.2a1.68,1.68,0,0,1,.65-1A2.33,2.33,0,0,1,57.33,8a3,3,0,0,1,1.23.2,1.22,1.22,0,0,1,.57.49,2.77,2.77,0,0,1,.16,1.11v1.44a5,5,0,0,0,.06.91,2.58,2.58,0,0,0,.22.62H58.34l-.12-.36a.93.93,0,0,0,0-.14,2.43,2.43,0,0,1-.67.46,2,2,0,0,1-.77.15,1.61,1.61,0,0,1-1.14-.39,1.28,1.28,0,0,1-.41-1,1.27,1.27,0,0,1,.19-.7,1.21,1.21,0,0,1,.52-.48,4.11,4.11,0,0,1,1-.29,7.46,7.46,0,0,0,1.2-.3V9.56a.63.63,0,0,0-.18-.51,1.07,1.07,0,0,0-.66-.15.89.89,0,0,0-.52.13A.82.82,0,0,0,56.43,9.48Zm1.65,1a5.62,5.62,0,0,1-.75.19,2.5,2.5,0,0,0-.68.22.51.51,0,0,0-.24.43.59.59,0,0,0,.2.45.64.64,0,0,0,.49.19,1,1,0,0,0,.63-.22.8.8,0,0,0,.3-.41,2.45,2.45,0,0,0,0-.6Z"/><path class="cls-3" d="M61.51,12.72H60.27V8.06h1.15v.66A2.05,2.05,0,0,1,62,8.1,1,1,0,0,1,62.48,8a1.53,1.53,0,0,1,.82.24l-.38,1.07a1.15,1.15,0,0,0-.58-.2.7.7,0,0,0-.44.14,1,1,0,0,0-.29.52,7.31,7.31,0,0,0-.1,1.56Z"/><path class="cls-3" d="M66,12.72V6.28h1.24v6.44Z"/><path class="cls-3" d="M69.21,9.48l-1.12-.2a1.78,1.78,0,0,1,.65-1A2.37,2.37,0,0,1,70.11,8a3,3,0,0,1,1.24.2,1.24,1.24,0,0,1,.56.49,2.57,2.57,0,0,1,.17,1.11v1.44a5,5,0,0,0,.06.91,2.21,2.21,0,0,0,.22.62H71.13a1.86,1.86,0,0,1-.12-.36.93.93,0,0,0-.05-.14,2.43,2.43,0,0,1-.67.46,2,2,0,0,1-.77.15,1.61,1.61,0,0,1-1.14-.39,1.28,1.28,0,0,1-.41-1,1.35,1.35,0,0,1,.18-.7,1.29,1.29,0,0,1,.53-.48,4.11,4.11,0,0,1,1-.29,7.77,7.77,0,0,0,1.2-.3V9.56a.63.63,0,0,0-.18-.51A1.07,1.07,0,0,0,70,8.9a.75.75,0,0,0-.82.58Zm1.66,1a5.45,5.45,0,0,1-.76.19,2.53,2.53,0,0,0-.67.22.51.51,0,0,0-.24.43.62.62,0,0,0,.19.45.68.68,0,0,0,.5.19,1,1,0,0,0,.63-.22.8.8,0,0,0,.3-.41,2.45,2.45,0,0,0,.05-.6Z"/><path class="cls-3" d="M72.68,11.39l1.24-.19a.89.89,0,0,0,.32.55,1.06,1.06,0,0,0,.68.19,1.19,1.19,0,0,0,.72-.18.38.38,0,0,0,.16-.33.32.32,0,0,0-.09-.23A1,1,0,0,0,75.3,11a6.58,6.58,0,0,1-1.89-.6,1.23,1.23,0,0,1-.56-1,1.28,1.28,0,0,1,.48-1A2.23,2.23,0,0,1,74.82,8a2.65,2.65,0,0,1,1.42.31,1.58,1.58,0,0,1,.64.93l-1.16.21A.69.69,0,0,0,75.43,9a1,1,0,0,0-.59-.15,1.34,1.34,0,0,0-.7.14.29.29,0,0,0-.14.25.28.28,0,0,0,.12.22,4.74,4.74,0,0,0,1.16.35,3.4,3.4,0,0,1,1.37.55,1.13,1.13,0,0,1,.39.92,1.41,1.41,0,0,1-.54,1.1,2.33,2.33,0,0,1-1.58.46,2.58,2.58,0,0,1-1.51-.39A1.77,1.77,0,0,1,72.68,11.39Z"/><path class="cls-3" d="M81.44,12.72H80.21V8.06h1.15v.66a1.92,1.92,0,0,1,.53-.62A.94.94,0,0,1,82.42,8a1.52,1.52,0,0,1,.81.24l-.38,1.07a1.12,1.12,0,0,0-.58-.2.72.72,0,0,0-.44.14,1,1,0,0,0-.28.52,7.09,7.09,0,0,0-.11,1.56Z"/><path class="cls-3" d="M86.29,11.24l1.23.21a2.06,2.06,0,0,1-.75,1,2.24,2.24,0,0,1-1.28.35,2.07,2.07,0,0,1-1.8-.79,2.69,2.69,0,0,1-.47-1.61,2.6,2.6,0,0,1,.61-1.82A2,2,0,0,1,85.36,8,2.07,2.07,0,0,1,87,8.64a3,3,0,0,1,.57,2.11H84.49a1.25,1.25,0,0,0,.3.85.92.92,0,0,0,.71.31.8.8,0,0,0,.49-.16A1,1,0,0,0,86.29,11.24ZM86.36,10a1.15,1.15,0,0,0-.28-.81.84.84,0,0,0-.64-.28.88.88,0,0,0-.67.29,1.18,1.18,0,0,0-.26.8Z"/><path class="cls-3" d="M88.41,12.72V6.28h1.23v6.44Z"/><path class="cls-3" d="M91.65,9.48l-1.12-.2a1.78,1.78,0,0,1,.65-1A2.37,2.37,0,0,1,92.55,8a2.92,2.92,0,0,1,1.23.2,1.22,1.22,0,0,1,.57.49,2.57,2.57,0,0,1,.17,1.11v1.44a5.23,5.23,0,0,0,0,.91,2.64,2.64,0,0,0,.23.62H93.56a3.34,3.34,0,0,1-.11-.36.93.93,0,0,0,0-.14,2.43,2.43,0,0,1-.67.46,2,2,0,0,1-.77.15,1.61,1.61,0,0,1-1.14-.39,1.29,1.29,0,0,1-.42-1,1.36,1.36,0,0,1,.19-.7,1.29,1.29,0,0,1,.53-.48,4.11,4.11,0,0,1,1-.29,7.77,7.77,0,0,0,1.2-.3V9.56a.63.63,0,0,0-.18-.51,1.07,1.07,0,0,0-.66-.15A.87.87,0,0,0,92,9,.89.89,0,0,0,91.65,9.48Zm1.66,1a5.45,5.45,0,0,1-.76.19,2.53,2.53,0,0,0-.67.22.51.51,0,0,0-.24.43.58.58,0,0,0,.19.45.68.68,0,0,0,.5.19,1,1,0,0,0,.63-.22.8.8,0,0,0,.3-.41,2.45,2.45,0,0,0,0-.6Z"/><path class="cls-3" d="M99.63,9.44l-1.22.22a.88.88,0,0,0-.28-.55.87.87,0,0,0-.57-.19.93.93,0,0,0-.73.32,1.61,1.61,0,0,0-.28,1.07,1.93,1.93,0,0,0,.28,1.17.92.92,0,0,0,.75.34.8.8,0,0,0,.58-.2,1.17,1.17,0,0,0,.31-.68l1.22.2A2.14,2.14,0,0,1,99,12.4a2.21,2.21,0,0,1-1.44.43,2.11,2.11,0,0,1-1.63-.65,2.51,2.51,0,0,1-.61-1.78,2.55,2.55,0,0,1,.61-1.8A2.18,2.18,0,0,1,97.55,8a2.27,2.27,0,0,1,1.35.37A2,2,0,0,1,99.63,9.44Z"/><path class="cls-3" d="M100.38,7.43V6.28h1.24V7.43Zm0,5.29V8.06h1.24v4.66Z"/><path class="cls-3" d="M102.42,10.33a2.53,2.53,0,0,1,.3-1.19,2,2,0,0,1,.86-.88A2.46,2.46,0,0,1,104.82,8a2.34,2.34,0,0,1,1.74.69,2.38,2.38,0,0,1,.67,1.74,2.41,2.41,0,0,1-.68,1.75,2.3,2.3,0,0,1-1.72.7,2.78,2.78,0,0,1-1.23-.29,2,2,0,0,1-.88-.85A2.85,2.85,0,0,1,102.42,10.33Zm1.26.06a1.57,1.57,0,0,0,.33,1.07,1.1,1.1,0,0,0,1.63,0,1.64,1.64,0,0,0,.32-1.08,1.57,1.57,0,0,0-.32-1.05,1.08,1.08,0,0,0-1.63,0A1.53,1.53,0,0,0,103.68,10.39Z"/><path class="cls-3" d="M112.26,12.72H111V10.34a3.7,3.7,0,0,0-.08-1,.67.67,0,0,0-.26-.35.74.74,0,0,0-.42-.12,1,1,0,0,0-.58.17.9.9,0,0,0-.35.47,4.19,4.19,0,0,0-.09,1.07v2.11H108V8.06h1.15v.68A1.88,1.88,0,0,1,110.7,8a1.78,1.78,0,0,1,.74.15,1.14,1.14,0,0,1,.51.38,1.35,1.35,0,0,1,.25.51,4.41,4.41,0,0,1,.06.83Z"/><path class="cls-3" d="M116,11.24l1.23.21a2.06,2.06,0,0,1-.75,1,2.24,2.24,0,0,1-1.28.35,2.08,2.08,0,0,1-1.8-.79,2.69,2.69,0,0,1-.46-1.61,2.59,2.59,0,0,1,.6-1.82A2,2,0,0,1,115.12,8a2.07,2.07,0,0,1,1.64.69,3.09,3.09,0,0,1,.58,2.11h-3.1a1.25,1.25,0,0,0,.3.85.92.92,0,0,0,.71.31.78.78,0,0,0,.49-.16A1,1,0,0,0,116,11.24Zm.07-1.25a1.15,1.15,0,0,0-.28-.81.83.83,0,0,0-.64-.28.88.88,0,0,0-.67.29,1.18,1.18,0,0,0-.26.8Z"/><path class="cls-3" d="M117.73,11.39,119,11.2a.89.89,0,0,0,.32.55,1,1,0,0,0,.67.19,1.19,1.19,0,0,0,.72-.18.39.39,0,0,0,.17-.33.32.32,0,0,0-.09-.23,1,1,0,0,0-.41-.16,6.81,6.81,0,0,1-1.9-.6,1.22,1.22,0,0,1-.55-1,1.28,1.28,0,0,1,.48-1A2.2,2.2,0,0,1,119.86,8a2.69,2.69,0,0,1,1.43.31,1.62,1.62,0,0,1,.64.93l-1.17.21a.68.68,0,0,0-.28-.41,1,1,0,0,0-.59-.15,1.34,1.34,0,0,0-.7.14.27.27,0,0,0-.14.25.28.28,0,0,0,.12.22,4.59,4.59,0,0,0,1.15.35,3.39,3.39,0,0,1,1.38.55,1.13,1.13,0,0,1,.39.92,1.41,1.41,0,0,1-.54,1.1,2.38,2.38,0,0,1-1.59.46,2.6,2.6,0,0,1-1.51-.39A1.71,1.71,0,0,1,117.73,11.39Z"/><path class="cls-3" d="M23.43,19.44l-1.21.22a.88.88,0,0,0-.28-.55.89.89,0,0,0-.57-.19.91.91,0,0,0-.73.32,1.61,1.61,0,0,0-.28,1.07,1.93,1.93,0,0,0,.28,1.17.92.92,0,0,0,.75.34.8.8,0,0,0,.58-.2,1.17,1.17,0,0,0,.31-.68l1.22.2a2.14,2.14,0,0,1-.73,1.26,2.23,2.23,0,0,1-1.44.43,2.11,2.11,0,0,1-1.63-.65,2.51,2.51,0,0,1-.61-1.78,2.55,2.55,0,0,1,.61-1.8A2.18,2.18,0,0,1,21.36,18a2.27,2.27,0,0,1,1.35.37A2,2,0,0,1,23.43,19.44Z"/><path class="cls-3" d="M23.9,20.33a2.54,2.54,0,0,1,.31-1.19,2,2,0,0,1,.86-.88A2.46,2.46,0,0,1,26.31,18a2.32,2.32,0,0,1,1.73.69,2.58,2.58,0,0,1,0,3.49,2.3,2.3,0,0,1-1.72.7,2.78,2.78,0,0,1-1.23-.29,2,2,0,0,1-.88-.85A2.85,2.85,0,0,1,23.9,20.33Zm1.27.06a1.57,1.57,0,0,0,.33,1.07,1.06,1.06,0,0,0,.81.36,1,1,0,0,0,.81-.36,1.59,1.59,0,0,0,.33-1.08,1.52,1.52,0,0,0-.33-1.05,1,1,0,0,0-.81-.37,1,1,0,0,0-.81.37A1.53,1.53,0,0,0,25.17,20.39Z"/><path class="cls-3" d="M33.75,22.72H32.52V20.34a3.7,3.7,0,0,0-.08-1,.67.67,0,0,0-.26-.35.75.75,0,0,0-.43-.12,1,1,0,0,0-.57.17.9.9,0,0,0-.35.47,4.06,4.06,0,0,0-.1,1.07v2.11H29.5V18.06h1.15v.68A1.87,1.87,0,0,1,32.18,18a1.79,1.79,0,0,1,.75.15,1.14,1.14,0,0,1,.51.38,1.2,1.2,0,0,1,.24.51,3.6,3.6,0,0,1,.07.83Z"/><path class="cls-3" d="M37.14,22.72V16.28h1.24v6.44Z"/><path class="cls-3" d="M39.18,20.33a2.53,2.53,0,0,1,.3-1.19,2.09,2.09,0,0,1,.86-.88A2.48,2.48,0,0,1,41.58,18a2.33,2.33,0,0,1,1.74.69,2.57,2.57,0,0,1,0,3.49,2.28,2.28,0,0,1-1.72.7,2.77,2.77,0,0,1-1.22-.29,2,2,0,0,1-.89-.85A2.85,2.85,0,0,1,39.18,20.33Zm1.27.06a1.57,1.57,0,0,0,.33,1.07,1.09,1.09,0,0,0,1.62,0,1.59,1.59,0,0,0,.33-1.08,1.52,1.52,0,0,0-.33-1.05,1.07,1.07,0,0,0-1.62,0A1.53,1.53,0,0,0,40.45,20.39Z"/><path class="cls-3" d="M44.35,21.39l1.24-.19a.89.89,0,0,0,.32.55,1.06,1.06,0,0,0,.68.19,1.24,1.24,0,0,0,.72-.18.41.41,0,0,0,.16-.33.32.32,0,0,0-.09-.23A1,1,0,0,0,47,21a6.81,6.81,0,0,1-1.9-.6,1.22,1.22,0,0,1-.55-1.05,1.28,1.28,0,0,1,.48-1A2.2,2.2,0,0,1,46.48,18a2.69,2.69,0,0,1,1.43.31,1.62,1.62,0,0,1,.64.93l-1.16.21A.69.69,0,0,0,47.1,19a1,1,0,0,0-.59-.15,1.34,1.34,0,0,0-.7.14.27.27,0,0,0-.14.25.28.28,0,0,0,.12.22,4.76,4.76,0,0,0,1.15.35,3.39,3.39,0,0,1,1.38.55,1.13,1.13,0,0,1,.39.92,1.41,1.41,0,0,1-.54,1.1,2.35,2.35,0,0,1-1.58.46,2.58,2.58,0,0,1-1.51-.39A1.73,1.73,0,0,1,44.35,21.39Z"/><path class="cls-3" d="M51.81,23l1.42.17a.44.44,0,0,0,.16.34.91.91,0,0,0,.55.13,1.43,1.43,0,0,0,.73-.14.55.55,0,0,0,.24-.31,1.83,1.83,0,0,0,.06-.57V22a1.67,1.67,0,0,1-1.4.75,1.73,1.73,0,0,1-1.49-.79,2.75,2.75,0,0,1-.43-1.56,2.58,2.58,0,0,1,.57-1.8,1.81,1.81,0,0,1,1.4-.62,1.73,1.73,0,0,1,1.43.76v-.65h1.16v4.19a4.13,4.13,0,0,1-.14,1.23,1.54,1.54,0,0,1-.38.64,1.75,1.75,0,0,1-.66.37,3.38,3.38,0,0,1-1,.13,2.68,2.68,0,0,1-1.68-.41,1.27,1.27,0,0,1-.5-1Zm1.11-2.73a1.62,1.62,0,0,0,.29,1.08.89.89,0,0,0,.71.35,1,1,0,0,0,.76-.36,1.5,1.5,0,0,0,.31-1,1.62,1.62,0,0,0-.3-1.08.93.93,0,0,0-.75-.35.9.9,0,0,0-.73.34A1.58,1.58,0,0,0,52.92,20.3Z"/><path class="cls-3" d="M58.43,22.72H57.19V18.06h1.15v.66a2.05,2.05,0,0,1,.53-.62A1,1,0,0,1,59.4,18a1.53,1.53,0,0,1,.82.24l-.38,1.07a1.15,1.15,0,0,0-.58-.2.7.7,0,0,0-.44.14,1,1,0,0,0-.29.52,7.31,7.31,0,0,0-.1,1.56Z"/><path class="cls-3" d="M63.64,22.72V22a1.83,1.83,0,0,1-.67.59,1.93,1.93,0,0,1-.88.21,1.69,1.69,0,0,1-.84-.21,1.17,1.17,0,0,1-.54-.58,2.56,2.56,0,0,1-.17-1v-3h1.24V20.2a5.58,5.58,0,0,0,.07,1.21.67.67,0,0,0,.24.35.78.78,0,0,0,.46.13,1,1,0,0,0,.57-.17.87.87,0,0,0,.34-.43A5.23,5.23,0,0,0,63.55,20v-2h1.24v4.66Z"/><path class="cls-3" d="M65.85,18.06H67v.68a1.76,1.76,0,0,1,.61-.57,1.73,1.73,0,0,1,.85-.22,1.8,1.8,0,0,1,1.38.64,2.57,2.57,0,0,1,.56,1.78,2.65,2.65,0,0,1-.57,1.81,1.78,1.78,0,0,1-1.38.65,1.6,1.6,0,0,1-.7-.15,2.47,2.47,0,0,1-.66-.53V24.5H65.85Zm1.22,2.25a1.77,1.77,0,0,0,.32,1.16,1,1,0,0,0,.76.38.88.88,0,0,0,.71-.34,1.79,1.79,0,0,0,.29-1.14,1.69,1.69,0,0,0-.3-1.09,1,1,0,0,0-1.48,0A1.54,1.54,0,0,0,67.07,20.31Z"/><path class="cls-3" d="M70.92,20.33a2.53,2.53,0,0,1,.3-1.19,2,2,0,0,1,.86-.88A2.48,2.48,0,0,1,73.32,18a2.33,2.33,0,0,1,1.74.69,2.59,2.59,0,0,1,0,3.49,2.28,2.28,0,0,1-1.72.7,2.74,2.74,0,0,1-1.22-.29,2,2,0,0,1-.89-.85A2.85,2.85,0,0,1,70.92,20.33Zm1.26.06a1.57,1.57,0,0,0,.33,1.07,1.1,1.1,0,0,0,1.63,0,1.59,1.59,0,0,0,.33-1.08,1.52,1.52,0,0,0-.33-1.05,1.08,1.08,0,0,0-1.63,0A1.53,1.53,0,0,0,72.18,20.39Z"/><path class="cls-3" d="M76.09,21.39l1.24-.19a.89.89,0,0,0,.32.55,1,1,0,0,0,.67.19,1.25,1.25,0,0,0,.73-.18.41.41,0,0,0,.16-.33.32.32,0,0,0-.09-.23,1,1,0,0,0-.41-.16,6.81,6.81,0,0,1-1.9-.6,1.22,1.22,0,0,1-.55-1.05,1.28,1.28,0,0,1,.48-1A2.2,2.2,0,0,1,78.22,18a2.69,2.69,0,0,1,1.43.31,1.62,1.62,0,0,1,.64.93l-1.17.21a.68.68,0,0,0-.28-.41,1,1,0,0,0-.6-.15,1.32,1.32,0,0,0-.69.14.27.27,0,0,0-.14.25.28.28,0,0,0,.12.22,4.59,4.59,0,0,0,1.15.35,3.39,3.39,0,0,1,1.38.55,1.13,1.13,0,0,1,.39.92,1.41,1.41,0,0,1-.54,1.1,2.38,2.38,0,0,1-1.59.46,2.6,2.6,0,0,1-1.51-.39A1.71,1.71,0,0,1,76.09,21.39Z"/><path class="cls-3" d="M88,22.72H86.8V22a1.81,1.81,0,0,1-.67.6,1.87,1.87,0,0,1-.79.19A1.81,1.81,0,0,1,84,22.18a2.64,2.64,0,0,1-.57-1.81,2.6,2.6,0,0,1,.56-1.8A1.82,1.82,0,0,1,85.36,18a1.75,1.75,0,0,1,1.35.65V16.28H88Zm-3.3-2.43a2.09,2.09,0,0,0,.21,1.08.94.94,0,0,0,.83.48.91.91,0,0,0,.73-.36,1.66,1.66,0,0,0,.3-1.08,1.86,1.86,0,0,0-.29-1.16.94.94,0,0,0-.75-.35.9.9,0,0,0-.73.35A1.56,1.56,0,0,0,84.65,20.29Z"/><path class="cls-3" d="M91.69,21.24l1.23.21a2.06,2.06,0,0,1-.75,1,2.24,2.24,0,0,1-1.28.35,2.08,2.08,0,0,1-1.8-.79,2.69,2.69,0,0,1-.46-1.61,2.59,2.59,0,0,1,.6-1.82A2,2,0,0,1,90.77,18a2.07,2.07,0,0,1,1.64.69A3,3,0,0,1,93,20.75H89.89a1.25,1.25,0,0,0,.3.85.92.92,0,0,0,.71.31.78.78,0,0,0,.49-.16A1,1,0,0,0,91.69,21.24ZM91.76,20a1.15,1.15,0,0,0-.28-.81.83.83,0,0,0-.64-.28.88.88,0,0,0-.67.29,1.18,1.18,0,0,0-.26.8Z"/><path class="cls-3" d="M96.13,17.43V16.28h1.24v1.15Zm0,5.29V18.06h1.24v4.66Z"/><path class="cls-3" d="M102.7,22.72h-1.24V20.34a3.29,3.29,0,0,0-.08-1,.7.7,0,0,0-.25-.35.77.77,0,0,0-.43-.12,1,1,0,0,0-.58.17,1,1,0,0,0-.35.47,4.19,4.19,0,0,0-.09,1.07v2.11H98.44V18.06h1.15v.68a1.89,1.89,0,0,1,1.54-.79,1.86,1.86,0,0,1,.75.15,1.27,1.27,0,0,1,.51.38,1.5,1.5,0,0,1,.24.51,4.26,4.26,0,0,1,.07.83Z"/><path class="cls-3" d="M105.91,18.06v1h-.84v1.88a4.43,4.43,0,0,0,0,.67.33.33,0,0,0,.11.16.37.37,0,0,0,.21.06,1.54,1.54,0,0,0,.49-.12l.11,1a2.5,2.5,0,0,1-1,.18,1.66,1.66,0,0,1-.61-.11.87.87,0,0,1-.39-.29,1.18,1.18,0,0,1-.17-.48,5.57,5.57,0,0,1,0-.87V19h-.57v-1h.57v-.93l1.24-.72v1.65Z"/><path class="cls-3" d="M109.29,21.24l1.23.21a2.06,2.06,0,0,1-.75,1,2.24,2.24,0,0,1-1.28.35,2.08,2.08,0,0,1-1.8-.79,2.69,2.69,0,0,1-.46-1.61,2.59,2.59,0,0,1,.6-1.82,2,2,0,0,1,1.54-.66,2.07,2.07,0,0,1,1.64.69,3.09,3.09,0,0,1,.58,2.11h-3.1a1.25,1.25,0,0,0,.3.85.92.92,0,0,0,.71.31.78.78,0,0,0,.49-.16A1,1,0,0,0,109.29,21.24Zm.07-1.25a1.15,1.15,0,0,0-.28-.81.83.83,0,0,0-.64-.28.88.88,0,0,0-.67.29,1.18,1.18,0,0,0-.26.8Z"/><path class="cls-3" d="M112.59,22.72h-1.23V18.06h1.15v.66a1.92,1.92,0,0,1,.53-.62.94.94,0,0,1,.53-.15,1.52,1.52,0,0,1,.81.24L114,19.26a1.12,1.12,0,0,0-.58-.2.72.72,0,0,0-.44.14,1,1,0,0,0-.28.52,7.09,7.09,0,0,0-.11,1.56Z"/><path class="cls-3" d="M117.44,21.24l1.23.21a2.06,2.06,0,0,1-.75,1,2.24,2.24,0,0,1-1.28.35,2.08,2.08,0,0,1-1.8-.79,2.69,2.69,0,0,1-.47-1.61,2.6,2.6,0,0,1,.61-1.82,2,2,0,0,1,1.53-.66,2.07,2.07,0,0,1,1.65.69,3,3,0,0,1,.57,2.11h-3.09a1.25,1.25,0,0,0,.3.85.92.92,0,0,0,.71.31.8.8,0,0,0,.49-.16A1,1,0,0,0,117.44,21.24Zm.07-1.25a1.15,1.15,0,0,0-.28-.81.83.83,0,0,0-.64-.28.88.88,0,0,0-.67.29,1.14,1.14,0,0,0-.26.8Zm-1.58-2.5.61-1.32h1.38l-1.21,1.32Z"/><path class="cls-3" d="M119.13,21.39l1.23-.19a.94.94,0,0,0,.32.55,1.08,1.08,0,0,0,.68.19,1.19,1.19,0,0,0,.72-.18.38.38,0,0,0,.16-.33.31.31,0,0,0-.08-.23,1,1,0,0,0-.42-.16,6.82,6.82,0,0,1-1.89-.6,1.22,1.22,0,0,1-.55-1.05,1.28,1.28,0,0,1,.48-1,2.18,2.18,0,0,1,1.48-.42,2.65,2.65,0,0,1,1.42.31,1.64,1.64,0,0,1,.65.93l-1.17.21a.68.68,0,0,0-.28-.41,1,1,0,0,0-.6-.15,1.39,1.39,0,0,0-.7.14.29.29,0,0,0-.14.25.26.26,0,0,0,.13.22,4.59,4.59,0,0,0,1.15.35,3.39,3.39,0,0,1,1.38.55,1.12,1.12,0,0,1,.38.92,1.4,1.4,0,0,1-.53,1.1,2.38,2.38,0,0,1-1.59.46,2.6,2.6,0,0,1-1.51-.39A1.71,1.71,0,0,1,119.13,21.39Z"/><circle class="cls-5" cx="157.7" cy="47.27" r="6.39"/><path class="cls-4" d="M157.12,50.21V45.45h-1.7v-1H160v1h-1.7v4.76Z"/><circle class="cls-6" cx="157.7" cy="71.17" r="6.39"/><path class="cls-7" d="M160.71,74.1h-1.26l-.5-1.3h-2.29l-.47,1.3H155l2.23-5.73h1.22Zm-2.13-2.27-.79-2.12L157,71.83Z"/><circle class="cls-6" cx="157.7" cy="95.06" r="6.39"/><path class="cls-7" d="M160.71,98h-1.26l-.5-1.3h-2.29l-.47,1.3H155l2.23-5.73h1.22Zm-2.13-2.27-.79-2.12L157,95.72Z"/></g></g></svg>