<svg xmlns="http://www.w3.org/2000/svg" viewBox="0 0 598.88 111"><defs><style>.cls-1{fill:#e0e9a5;}.cls-2{fill:#28203a;}.cls-3{fill:#33a0dc;}.cls-4,.cls-5{fill:none;stroke:#9d9d9c;stroke-linecap:round;stroke-miterlimit:10;}.cls-5{stroke-dasharray:0 4.01;}</style></defs><g id="Capa_2" data-name="Capa 2"><g id="Capa_1-2" data-name="Capa 1"><rect class="cls-1" x="0.5" y="0.5" width="37.3" height="110.5"/><path class="cls-2" d="M14.32,73.43l.27-1a3.5,3.5,0,0,1,1.95,1.18,3.25,3.25,0,0,1,.68,2.08,3.69,3.69,0,0,1-.52,2.07,3.32,3.32,0,0,1-1.5,1.22,5.51,5.51,0,0,1-2.11.41,4.57,4.57,0,0,1-2.15-.47,3.25,3.25,0,0,1-1.39-1.33,3.89,3.89,0,0,1-.47-1.91,3.24,3.24,0,0,1,.6-2,3.08,3.08,0,0,1,1.69-1.12l.24,1a2.47,2.47,0,0,0-1.25.8A2.1,2.1,0,0,0,10,75.66a2.57,2.57,0,0,0,.43,1.52,2.29,2.29,0,0,0,1.17.85,4.56,4.56,0,0,0,1.51.25A5,5,0,0,0,14.84,78,2.22,2.22,0,0,0,16,77.08a2.65,2.65,0,0,0,.37-1.34,2.22,2.22,0,0,0-.51-1.48A2.59,2.59,0,0,0,14.32,73.43Z"/><path class="cls-2" d="M17.08,71.25H9.21v-1h7.87Z"/><path class="cls-2" d="M10.32,68.78H9.21v-1h1.11Zm6.76,0h-5.7v-1h5.7Z"/><path class="cls-2" d="M15.25,62.44l.12-1a2.44,2.44,0,0,1,1.36.88A2.63,2.63,0,0,1,17.21,64a2.58,2.58,0,0,1-.77,2,3,3,0,0,1-2.16.74,3.16,3.16,0,0,1-2.23-.74,2.53,2.53,0,0,1-.8-1.93A2.45,2.45,0,0,1,12,62.13a3.11,3.11,0,0,1,2.19-.72h.26v4.26a2.22,2.22,0,0,0,1.44-.53,1.61,1.61,0,0,0,.5-1.2,1.51,1.51,0,0,0-.28-.9A1.94,1.94,0,0,0,15.25,62.44Zm-1.57,3.17V62.43a1.92,1.92,0,0,0-1.08.36,1.49,1.49,0,0,0-.55,1.2,1.51,1.51,0,0,0,.44,1.12A1.78,1.78,0,0,0,13.68,65.61Z"/><path class="cls-2" d="M17.08,60.23h-5.7v-.87h.81a2.05,2.05,0,0,1-.94-1.82,2.3,2.3,0,0,1,.19-.95,1.41,1.41,0,0,1,.48-.64,1.67,1.67,0,0,1,.72-.3,5,5,0,0,1,.94-.06h3.5v1H13.61a2.77,2.77,0,0,0-.88.11,1,1,0,0,0-.47.4,1.34,1.34,0,0,0-.17.68,1.56,1.56,0,0,0,.39,1.06,1.93,1.93,0,0,0,1.49.45h3.11Z"/><path class="cls-2" d="M16.22,52l.85-.14a3.37,3.37,0,0,1,.09.73,1.7,1.7,0,0,1-.17.82.85.85,0,0,1-.44.4,3.4,3.4,0,0,1-1.14.12H12.13v.71h-.75v-.71H10l-.58-1h2V52h.75v1h3.34a1.85,1.85,0,0,0,.53,0,.39.39,0,0,0,.19-.17.68.68,0,0,0,.07-.33C16.26,52.32,16.24,52.17,16.22,52Z"/><path class="cls-2" d="M15.25,47.15l.12-1a2.48,2.48,0,0,1,1.36.87,2.68,2.68,0,0,1,.48,1.64,2.58,2.58,0,0,1-.77,2,3,3,0,0,1-2.16.74,3.12,3.12,0,0,1-2.23-.75,2.5,2.5,0,0,1-.8-1.92A2.45,2.45,0,0,1,12,46.84a3.11,3.11,0,0,1,2.19-.72h.26v4.26a2.22,2.22,0,0,0,1.44-.54,1.65,1.65,0,0,0,.22-2.1A1.86,1.86,0,0,0,15.25,47.15Zm-1.57,3.17V47.14a1.92,1.92,0,0,0-1.08.36,1.49,1.49,0,0,0-.55,1.2,1.52,1.52,0,0,0,.44,1.12A1.78,1.78,0,0,0,13.68,50.32Z"/><path class="cls-2" d="M15.38,45.32l-.15-1a1.39,1.39,0,0,0,.88-.45,1.91,1.91,0,0,0,0-2,.83.83,0,0,0-.64-.32.59.59,0,0,0-.52.28,4.84,4.84,0,0,0-.32,1,9.35,9.35,0,0,1-.47,1.48,1.43,1.43,0,0,1-.54.62,1.46,1.46,0,0,1-.77.21,1.51,1.51,0,0,1-.7-.17,1.56,1.56,0,0,1-.54-.48,1.83,1.83,0,0,1-.28-.61,2.84,2.84,0,0,1-.12-.84,3.28,3.28,0,0,1,.19-1.18,1.61,1.61,0,0,1,.53-.75,2,2,0,0,1,.88-.33l.13,1a1,1,0,0,0-.69.37,1.39,1.39,0,0,0-.24.87,1.56,1.56,0,0,0,.22.95.62.62,0,0,0,.51.29.52.52,0,0,0,.34-.12.9.9,0,0,0,.26-.37c0-.1.12-.38.24-.86.19-.68.34-1.16.45-1.43a1.46,1.46,0,0,1,.51-.63,1.38,1.38,0,0,1,.83-.23,1.62,1.62,0,0,1,.91.28,1.85,1.85,0,0,1,.66.81,3.09,3.09,0,0,1,.23,1.2,2.67,2.67,0,0,1-.46,1.7A2.14,2.14,0,0,1,15.38,45.32Z"/><path class="cls-2" d="M19.28,36.42l-.91.11a2.08,2.08,0,0,0,.09-.55,1.09,1.09,0,0,0-.11-.52.91.91,0,0,0-.3-.32,4.68,4.68,0,0,0-.72-.29l-.24-.09-5.71,2.17v-1l3.3-1.18c.42-.16.86-.29,1.32-.42-.44-.11-.87-.24-1.3-.39l-3.32-1.22v-1l5.8,2.17a11,11,0,0,1,1.3.54,2.1,2.1,0,0,1,.7.59,1.5,1.5,0,0,1,.22.8A1.88,1.88,0,0,1,19.28,36.42Z"/><path class="cls-2" d="M27.58,76.43h-5.7v-.87h.8a2.07,2.07,0,0,1-.67-.71,2,2,0,0,1-.26-1,1.93,1.93,0,0,1,.26-1,1.45,1.45,0,0,1,.74-.57,2,2,0,0,1-1-1.76,1.76,1.76,0,0,1,.47-1.31,2,2,0,0,1,1.45-.45h3.91v1H24a2.82,2.82,0,0,0-.84.09.9.9,0,0,0-.41.34,1.11,1.11,0,0,0-.15.58,1.33,1.33,0,0,0,.4,1,1.74,1.74,0,0,0,1.28.4h3.31v1h-3.7a1.71,1.71,0,0,0-1,.23.92.92,0,0,0-.32.78,1.42,1.42,0,0,0,.21.75,1.26,1.26,0,0,0,.63.5,3.37,3.37,0,0,0,1.19.16h3Z"/><path class="cls-2" d="M25.75,63.36l.12-1a2.48,2.48,0,0,1,1.36.87,2.68,2.68,0,0,1,.48,1.64,2.58,2.58,0,0,1-.77,2,3,3,0,0,1-2.16.74,3.12,3.12,0,0,1-2.23-.75,2.5,2.5,0,0,1-.8-1.92,2.45,2.45,0,0,1,.78-1.87,3.11,3.11,0,0,1,2.19-.72H25v4.26a2.22,2.22,0,0,0,1.44-.54,1.65,1.65,0,0,0,.22-2.1A1.86,1.86,0,0,0,25.75,63.36Zm-1.57,3.17V63.35a1.92,1.92,0,0,0-1.08.36,1.49,1.49,0,0,0-.55,1.2A1.52,1.52,0,0,0,23,66,1.78,1.78,0,0,0,24.18,66.53Z"/><path class="cls-2" d="M27.58,61.16h-5.7v-.87h.86a2.5,2.5,0,0,1-.8-.62,1.06,1.06,0,0,1-.19-.62,1.82,1.82,0,0,1,.31-1l.9.33a1.38,1.38,0,0,0-.21.71.91.91,0,0,0,.19.57,1,1,0,0,0,.53.36,3.67,3.67,0,0,0,1.13.16h3Z"/><path class="cls-2" d="M25.49,53.76l.13-.95a2.45,2.45,0,0,1,1.54.8,2.31,2.31,0,0,1,.55,1.57A2.47,2.47,0,0,1,27,57.07a3.13,3.13,0,0,1-2.2.71,3.85,3.85,0,0,1-1.61-.31,2.06,2.06,0,0,1-1-.93,2.78,2.78,0,0,1-.35-1.36,2.38,2.38,0,0,1,.47-1.52,2.12,2.12,0,0,1,1.34-.76l.14.94a1.54,1.54,0,0,0-.86.48,1.18,1.18,0,0,0-.29.82,1.5,1.5,0,0,0,.52,1.19,2.51,2.51,0,0,0,1.66.45,2.55,2.55,0,0,0,1.67-.44,1.44,1.44,0,0,0,.52-1.15,1.38,1.38,0,0,0-.35-.95A1.76,1.76,0,0,0,25.49,53.76Z"/><path class="cls-2" d="M26.88,48.26a3.58,3.58,0,0,1,.64,1,2.94,2.94,0,0,1,.19,1.07,2,2,0,0,1-.46,1.44,1.49,1.49,0,0,1-1.17.51,1.57,1.57,0,0,1-1.32-.69,2.35,2.35,0,0,1-.32-.7,5.86,5.86,0,0,1-.14-.86A9.16,9.16,0,0,0,24,48.34h-.25a1.07,1.07,0,0,0-.83.27,1.61,1.61,0,0,0-.33,1.1,1.71,1.71,0,0,0,.24,1,1.53,1.53,0,0,0,.85.48l-.13.94a2.21,2.21,0,0,1-1-.42,1.92,1.92,0,0,1-.58-.85,4,4,0,0,1-.2-1.3,3.57,3.57,0,0,1,.17-1.19,1.72,1.72,0,0,1,.43-.67,1.67,1.67,0,0,1,.66-.3,5.77,5.77,0,0,1,.89,0h1.29a14.19,14.19,0,0,0,1.71-.06,2,2,0,0,0,.68-.24v1A2.05,2.05,0,0,1,26.88,48.26Zm-2.16.08a7.24,7.24,0,0,1,.37,1.58,3.29,3.29,0,0,0,.19.84.84.84,0,0,0,.31.38.83.83,0,0,0,.46.14A.84.84,0,0,0,26.7,51a1.3,1.3,0,0,0,.26-.86,2,2,0,0,0-.25-1A1.48,1.48,0,0,0,26,48.5a2.22,2.22,0,0,0-1-.16Z"/><path class="cls-2" d="M27.58,42.16h-.72a1.79,1.79,0,0,1,.85,1.6A2.23,2.23,0,0,1,27.34,45a2.49,2.49,0,0,1-1.05.89,3.64,3.64,0,0,1-1.55.31,4,4,0,0,1-1.55-.28,2.22,2.22,0,0,1-1.44-2.13,1.87,1.87,0,0,1,.22-.92,2,2,0,0,1,.56-.65H19.71v-1h7.87Zm-2.84,3.06a2.49,2.49,0,0,0,1.64-.46,1.38,1.38,0,0,0,0-2.17,2.42,2.42,0,0,0-1.58-.44,2.68,2.68,0,0,0-1.72.45,1.37,1.37,0,0,0-.55,1.11,1.35,1.35,0,0,0,.53,1.08A2.58,2.58,0,0,0,24.74,45.22Z"/><path class="cls-2" d="M24.73,40.11a3,3,0,0,1-2.35-.88,2.67,2.67,0,0,1-.63-1.8,2.58,2.58,0,0,1,.77-1.92,2.94,2.94,0,0,1,2.13-.75,3.75,3.75,0,0,1,1.73.33,2.33,2.33,0,0,1,1,1,2.72,2.72,0,0,1,.35,1.38,2.54,2.54,0,0,1-.77,1.94A3.07,3.07,0,0,1,24.73,40.11Zm0-1a2.41,2.41,0,0,0,1.64-.48,1.49,1.49,0,0,0,.55-1.2,1.55,1.55,0,0,0-.55-1.2,2.54,2.54,0,0,0-1.67-.47,2.34,2.34,0,0,0-1.6.48,1.58,1.58,0,0,0,0,2.39A2.43,2.43,0,0,0,24.73,39.11Z"/><line class="cls-3" x1="0.5" y1="0.5" x2="598.38" y2="0.5"/><line class="cls-4" x1="0.5" y1="0.5" x2="0.5" y2="0.5"/><line class="cls-5" x1="4.51" y1="0.5" x2="596.38" y2="0.5"/><line class="cls-4" x1="598.38" y1="0.5" x2="598.38" y2="0.5"/></g></g></svg>