<svg xmlns="http://www.w3.org/2000/svg" viewBox="0 0 188.73 101.59"><defs><style>.cls-1{fill:#cb8517;}.cls-2{fill:#986411;}.cls-3{fill:#28203a;}.cls-4{fill:#fff;}.cls-5{fill:#009a5c;}.cls-6{fill:#99c3b1;}.cls-7{fill:#00683b;}</style></defs><g id="Capa_2" data-name="Capa 2"><g id="Capa_1-2" data-name="Capa 1"><rect class="cls-1" width="142.64" height="28.77" rx="14.38"/><path class="cls-2" d="M14.58,41.29V34.85h1.3v6.44Z"/><path class="cls-2" d="M21.35,41.29H20.12V38.91a3.79,3.79,0,0,0-.08-1,.71.71,0,0,0-.26-.35.75.75,0,0,0-.43-.12,1,1,0,0,0-.57.18.84.84,0,0,0-.35.46,3.74,3.74,0,0,0-.1,1.08v2.11H17.1V36.62h1.15v.69a1.93,1.93,0,0,1,2.28-.65A1.22,1.22,0,0,1,21,37a1.19,1.19,0,0,1,.24.52,3.54,3.54,0,0,1,.07.83Z"/><path class="cls-2" d="M26.88,41.29H25.74V40.6a1.84,1.84,0,0,1-.68.6,1.72,1.72,0,0,1-.78.19,1.77,1.77,0,0,1-1.38-.64,2.67,2.67,0,0,1-.57-1.81,2.6,2.6,0,0,1,.56-1.81,1.81,1.81,0,0,1,1.41-.61,1.72,1.72,0,0,1,1.35.65V34.85h1.23Zm-3.29-2.44a2.22,2.22,0,0,0,.2,1.08.93.93,0,0,0,.84.49.89.89,0,0,0,.72-.36,1.71,1.71,0,0,0,.3-1.09,1.82,1.82,0,0,0-.29-1.16.92.92,0,0,0-.74-.35,1,1,0,0,0-.74.35A1.61,1.61,0,0,0,23.59,38.85Z"/><path class="cls-2" d="M28.1,36V34.85h1.24V36Zm0,5.3V36.62h1.24v4.67Z"/><path class="cls-2" d="M34.67,38l-1.22.22a.86.86,0,0,0-.28-.55.84.84,0,0,0-.56-.18.91.91,0,0,0-.74.32,1.63,1.63,0,0,0-.27,1.06A1.82,1.82,0,0,0,31.88,40a.9.9,0,0,0,.75.35.84.84,0,0,0,.57-.2,1.2,1.2,0,0,0,.32-.69l1.21.21A2.14,2.14,0,0,1,34,41a2.28,2.28,0,0,1-1.44.42,2.12,2.12,0,0,1-1.63-.64,2.95,2.95,0,0,1,0-3.59,2.17,2.17,0,0,1,1.65-.64,2.31,2.31,0,0,1,1.36.36A2.11,2.11,0,0,1,34.67,38Z"/><path class="cls-2" d="M36.53,38.05l-1.12-.21a1.76,1.76,0,0,1,.65-1,2.35,2.35,0,0,1,1.37-.32,3,3,0,0,1,1.23.19,1.24,1.24,0,0,1,.57.5,2.55,2.55,0,0,1,.16,1.1v1.45a4.82,4.82,0,0,0,.06.9,2.5,2.5,0,0,0,.22.63H38.44c0-.08-.07-.2-.12-.37s0-.12,0-.14a2.27,2.27,0,0,1-.68.46,2,2,0,0,1-.77.15A1.57,1.57,0,0,1,35.7,41a1.29,1.29,0,0,1-.42-1,1.27,1.27,0,0,1,.19-.7,1.23,1.23,0,0,1,.53-.48,4.07,4.07,0,0,1,1-.28,6.1,6.1,0,0,0,1.2-.31v-.12a.66.66,0,0,0-.17-.51,1.08,1.08,0,0,0-.67-.15.84.84,0,0,0-.51.13A1,1,0,0,0,36.53,38.05Zm1.65,1-.75.19a2.17,2.17,0,0,0-.67.21.53.53,0,0,0-.24.44.61.61,0,0,0,.19.45.69.69,0,0,0,.49.18,1.06,1.06,0,0,0,.64-.22.71.71,0,0,0,.29-.4,2.15,2.15,0,0,0,0-.61Z"/><path class="cls-2" d="M44.89,41.29H43.75V40.6a1.84,1.84,0,0,1-.68.6,1.72,1.72,0,0,1-.78.19,1.77,1.77,0,0,1-1.38-.64,3.21,3.21,0,0,1,0-3.62,1.84,1.84,0,0,1,1.41-.61,1.73,1.73,0,0,1,1.36.65V34.85h1.23ZM41.6,38.85a2.22,2.22,0,0,0,.2,1.08.93.93,0,0,0,.84.49.91.91,0,0,0,.72-.36,1.71,1.71,0,0,0,.3-1.09,1.82,1.82,0,0,0-.29-1.16.92.92,0,0,0-.74-.35,1,1,0,0,0-.74.35A1.61,1.61,0,0,0,41.6,38.85Z"/><path class="cls-2" d="M45.83,38.89a2.53,2.53,0,0,1,.3-1.19,2,2,0,0,1,.86-.88,2.56,2.56,0,0,1,1.24-.3,2.33,2.33,0,0,1,2.41,2.42A2.44,2.44,0,0,1,50,40.7a2.33,2.33,0,0,1-1.72.69A2.65,2.65,0,0,1,47,41.1a2,2,0,0,1-.88-.85A2.82,2.82,0,0,1,45.83,38.89Zm1.26.06A1.56,1.56,0,0,0,47.42,40a1.07,1.07,0,0,0,.81.37A1,1,0,0,0,49,40a1.88,1.88,0,0,0,0-2.13,1,1,0,0,0-.81-.37,1.07,1.07,0,0,0-.81.37A1.55,1.55,0,0,0,47.09,39Z"/><path class="cls-2" d="M52.79,41.29H51.56V36.62H52.7v.66a2,2,0,0,1,.53-.61,1,1,0,0,1,.54-.15,1.51,1.51,0,0,1,.81.23l-.38,1.08a1.09,1.09,0,0,0-.58-.21.65.65,0,0,0-.44.15.94.94,0,0,0-.29.51,7.36,7.36,0,0,0-.1,1.57Z"/><path class="cls-2" d="M60.51,41.29H59.27V36.63a4.12,4.12,0,0,1-1.59.94V36.45a3.85,3.85,0,0,0,1-.6,2.23,2.23,0,0,0,.77-1h1Z"/><path class="cls-2" d="M62.85,37.86V36.62h1.24v1.24Zm0,3.43V40.05h1.24v1.24Z"/><path class="cls-3" d="M14.59,51.29V45.56h4.14v.68H15.35V48h3.17v.67H15.35v2h3.52v.68Z"/><path class="cls-3" d="M18.93,52.9l.13-.6a1.19,1.19,0,0,0,.33.05.35.35,0,0,0,.32-.14,1.41,1.41,0,0,0,.11-.71V47.14h.7v4.37a2,2,0,0,1-.2,1.07.93.93,0,0,1-.84.39A2,2,0,0,1,18.93,52.9Zm.89-6.52v-.82h.7v.82Z"/><path class="cls-3" d="M21.6,51.29V47.14h.63v.58a1.53,1.53,0,0,1,.52-.49,1.47,1.47,0,0,1,.74-.18,1.33,1.33,0,0,1,.75.19,1,1,0,0,1,.42.53,1.49,1.49,0,0,1,1.28-.72,1.26,1.26,0,0,1,.95.34,1.47,1.47,0,0,1,.33,1v2.85h-.7V48.68a1.76,1.76,0,0,0-.07-.61.51.51,0,0,0-.24-.3.75.75,0,0,0-.43-.11.94.94,0,0,0-.72.29,1.28,1.28,0,0,0-.29.93v2.41h-.7v-2.7a1.15,1.15,0,0,0-.18-.7.63.63,0,0,0-.56-.23,1.06,1.06,0,0,0-.55.15.87.87,0,0,0-.36.46,2.45,2.45,0,0,0-.12.87v2.15Z"/><path class="cls-3" d="M28.46,47.94v-.8h.8v.8Zm0,3.35v-.8h.8v.8Z"/><path class="cls-3" d="M35.48,49v-.67h2.43v2.12a4.3,4.3,0,0,1-1.16.67,3.39,3.39,0,0,1-1.22.23A3.15,3.15,0,0,1,34,51a2.33,2.33,0,0,1-1-1,3.38,3.38,0,0,1-.35-1.53A3.46,3.46,0,0,1,33,46.89a2.31,2.31,0,0,1,1-1.07,3.13,3.13,0,0,1,1.52-.36,2.9,2.9,0,0,1,1.12.21,1.86,1.86,0,0,1,.79.56,2.51,2.51,0,0,1,.43.93l-.68.19a2.47,2.47,0,0,0-.32-.69,1.38,1.38,0,0,0-.55-.4,2,2,0,0,0-.79-.15,2.41,2.41,0,0,0-.9.16,1.62,1.62,0,0,0-.61.42,1.78,1.78,0,0,0-.36.56,3,3,0,0,0-.22,1.16,2.89,2.89,0,0,0,.26,1.28,1.67,1.67,0,0,0,.77.76,2.34,2.34,0,0,0,1.07.25,2.45,2.45,0,0,0,1-.19,2.42,2.42,0,0,0,.71-.4V49Z"/><path class="cls-3" d="M39,51.29V45.56h1.14l1.36,4.06.27.84c.06-.2.17-.51.3-.91l1.37-4h1v5.73h-.73V46.5l-1.66,4.79h-.68l-1.66-4.88v4.88Z"/><path class="cls-3" d="M48.37,49v-.67h2.42v2.12a4.1,4.1,0,0,1-1.15.67,3.43,3.43,0,0,1-1.22.23A3.15,3.15,0,0,1,46.89,51a2.33,2.33,0,0,1-1-1,3.25,3.25,0,0,1-.35-1.53,3.59,3.59,0,0,1,.34-1.56,2.33,2.33,0,0,1,1-1.07,3.09,3.09,0,0,1,1.51-.36,2.92,2.92,0,0,1,1.13.21,1.83,1.83,0,0,1,.78.56,2.51,2.51,0,0,1,.44.93l-.69.19a2,2,0,0,0-.32-.69,1.41,1.41,0,0,0-.54-.4,2,2,0,0,0-.79-.15,2.41,2.41,0,0,0-.9.16,1.54,1.54,0,0,0-.61.42,1.78,1.78,0,0,0-.36.56,3,3,0,0,0-.22,1.16,2.76,2.76,0,0,0,.26,1.28,1.67,1.67,0,0,0,.77.76,2.31,2.31,0,0,0,1.07.25,2.45,2.45,0,0,0,1-.19,2.42,2.42,0,0,0,.71-.4V49Z"/><path class="cls-3" d="M51.28,51.29l2.2-5.73h.82l2.34,5.73h-.86l-.67-1.74h-2.4l-.63,1.74Zm1.65-2.35h1.94l-.59-1.59c-.19-.48-.32-.88-.41-1.19a7.55,7.55,0,0,1-.31,1.1Z"/><path class="cls-3" d="M60.28,53a6.66,6.66,0,0,1-1-1.72,5.35,5.35,0,0,1-.11-3.82,7.75,7.75,0,0,1,1.09-2h.5c-.31.55-.52.93-.62,1.16a6.26,6.26,0,0,0-.38,1.13,6.69,6.69,0,0,0-.16,1.47A7.11,7.11,0,0,0,60.78,53Z"/><path class="cls-3" d="M64.37,49v-.67H66.8v2.12a4.3,4.3,0,0,1-1.16.67,3.39,3.39,0,0,1-1.22.23A3.15,3.15,0,0,1,62.89,51a2.33,2.33,0,0,1-1-1,3.38,3.38,0,0,1-.35-1.53,3.6,3.6,0,0,1,.35-1.56,2.31,2.31,0,0,1,1-1.07,3.13,3.13,0,0,1,1.52-.36,2.9,2.9,0,0,1,1.12.21,1.86,1.86,0,0,1,.79.56,2.51,2.51,0,0,1,.43.93l-.68.19a2.47,2.47,0,0,0-.32-.69,1.38,1.38,0,0,0-.55-.4,2,2,0,0,0-.79-.15,2.41,2.41,0,0,0-.9.16,1.7,1.7,0,0,0-.61.42,2,2,0,0,0-.36.56,3,3,0,0,0-.22,1.16,2.89,2.89,0,0,0,.26,1.28,1.71,1.71,0,0,0,.77.76,2.34,2.34,0,0,0,1.07.25,2.45,2.45,0,0,0,1-.19,2.29,2.29,0,0,0,.71-.4V49Z"/><path class="cls-3" d="M70.66,50l.73.09a1.72,1.72,0,0,1-.64,1,1.92,1.92,0,0,1-1.18.35,1.89,1.89,0,0,1-1.45-.56,2.21,2.21,0,0,1-.53-1.57,2.31,2.31,0,0,1,.54-1.63,1.83,1.83,0,0,1,1.4-.57,1.78,1.78,0,0,1,1.36.56,2.27,2.27,0,0,1,.52,1.6v.18H68.32a1.57,1.57,0,0,0,.38,1,1.15,1.15,0,0,0,.87.36,1,1,0,0,0,.66-.2A1.28,1.28,0,0,0,70.66,50Zm-2.31-1.13h2.32a1.47,1.47,0,0,0-.26-.79A1.15,1.15,0,0,0,68.72,48,1.3,1.3,0,0,0,68.35,48.82Z"/><path class="cls-3" d="M72,50.05l.7-.11a1,1,0,0,0,.32.64,1.14,1.14,0,0,0,.75.22,1.13,1.13,0,0,0,.72-.19.59.59,0,0,0,.23-.47.43.43,0,0,0-.2-.37,3.52,3.52,0,0,0-.72-.24,5.63,5.63,0,0,1-1.07-.34,1,1,0,0,1-.46-.39,1.09,1.09,0,0,1-.15-.56,1,1,0,0,1,.13-.51,1.07,1.07,0,0,1,.34-.39,1.35,1.35,0,0,1,.45-.21,2,2,0,0,1,.61-.08,2.23,2.23,0,0,1,.85.14,1.15,1.15,0,0,1,.55.38,1.38,1.38,0,0,1,.24.64l-.69.09a.75.75,0,0,0-.27-.5,1,1,0,0,0-.63-.18,1.16,1.16,0,0,0-.69.16.48.48,0,0,0-.21.38.46.46,0,0,0,.08.25.71.71,0,0,0,.27.18l.62.18a9.16,9.16,0,0,1,1,.33,1.05,1.05,0,0,1,.46.37,1,1,0,0,1,.17.6,1.17,1.17,0,0,1-.21.66,1.29,1.29,0,0,1-.59.48,2.06,2.06,0,0,1-.88.17,2,2,0,0,1-1.23-.33A1.61,1.61,0,0,1,72,50.05Z"/><path class="cls-3" d="M77.81,50.66l.1.62a2.77,2.77,0,0,1-.53.06,1.22,1.22,0,0,1-.6-.12.6.6,0,0,1-.29-.32,2.37,2.37,0,0,1-.09-.83V47.69h-.51v-.55h.51v-1l.7-.42v1.45h.71v.55H77.1v2.42a1.09,1.09,0,0,0,0,.39.27.27,0,0,0,.12.14.48.48,0,0,0,.24,0Z"/><path class="cls-3" d="M78.5,46.37v-.81h.7v.81Zm0,4.92V47.14h.7v4.15Z"/><path class="cls-3" d="M80,49.21a2.12,2.12,0,0,1,.64-1.7A1.92,1.92,0,0,1,82,47.05a1.82,1.82,0,0,1,1.39.56,2.1,2.1,0,0,1,.55,1.55,2.77,2.77,0,0,1-.24,1.26,1.77,1.77,0,0,1-.7.71,2,2,0,0,1-1,.25,1.83,1.83,0,0,1-1.41-.56A2.22,2.22,0,0,1,80,49.21Zm.72,0a1.79,1.79,0,0,0,.35,1.2,1.18,1.18,0,0,0,1.75,0,1.85,1.85,0,0,0,.34-1.22A1.76,1.76,0,0,0,82.83,48a1.14,1.14,0,0,0-.87-.39,1.12,1.12,0,0,0-.88.39A1.78,1.78,0,0,0,80.73,49.21Zm.84-2.59.51-1.09H83l-.86,1.09Z"/><path class="cls-3" d="M84.72,51.29V47.14h.63v.59a1.49,1.49,0,0,1,1.32-.68,1.73,1.73,0,0,1,.69.13,1.1,1.1,0,0,1,.47.35,1.28,1.28,0,0,1,.22.52,3.67,3.67,0,0,1,0,.69v2.55h-.7V48.76a2,2,0,0,0-.08-.64.73.73,0,0,0-.29-.34,1,1,0,0,0-.49-.12,1.15,1.15,0,0,0-.78.28A1.39,1.39,0,0,0,85.42,49v2.27Z"/><path class="cls-3" d="M90.41,51.29l2.2-5.73h.82l2.34,5.73h-.86l-.67-1.74H91.85l-.63,1.74Zm1.66-2.35H94l-.6-1.59c-.18-.48-.32-.88-.41-1.19a6.47,6.47,0,0,1-.31,1.1Z"/><path class="cls-3" d="M99,49.77l.69.09A1.82,1.82,0,0,1,99.11,51a1.71,1.71,0,0,1-1.15.4,1.79,1.79,0,0,1-1.37-.55,2.31,2.31,0,0,1-.52-1.6,2.89,2.89,0,0,1,.23-1.18A1.53,1.53,0,0,1,97,47.3a2,2,0,0,1,1-.25,1.73,1.73,0,0,1,1.11.34,1.55,1.55,0,0,1,.55,1l-.68.1a1.14,1.14,0,0,0-.35-.62.84.84,0,0,0-.6-.22,1.08,1.08,0,0,0-.86.39,1.79,1.79,0,0,0-.33,1.2,1.86,1.86,0,0,0,.32,1.22,1,1,0,0,0,.83.37,1,1,0,0,0,.69-.25A1.24,1.24,0,0,0,99,49.77Z"/><path class="cls-3" d="M101.82,50.66l.1.62a2.61,2.61,0,0,1-.53.06,1.21,1.21,0,0,1-.59-.12.66.66,0,0,1-.3-.32,2.76,2.76,0,0,1-.08-.83V47.69H99.9v-.55h.52v-1l.7-.42v1.45h.7v.55h-.7v2.42a1.55,1.55,0,0,0,0,.39.41.41,0,0,0,.12.14.54.54,0,0,0,.24,0Z"/><path class="cls-3" d="M102.51,46.37v-.81h.71v.81Zm0,4.92V47.14h.71v4.15Z"/><path class="cls-3" d="M105.44,51.29l-1.58-4.15h.74l.9,2.48c.09.27.18.55.26.84.06-.22.15-.48.26-.79l.92-2.53h.73l-1.57,4.15Z"/><path class="cls-3" d="M108,49.21a2.12,2.12,0,0,1,.64-1.7,1.9,1.9,0,0,1,1.3-.46,1.84,1.84,0,0,1,1.4.56,2.13,2.13,0,0,1,.54,1.55,2.77,2.77,0,0,1-.24,1.26,1.71,1.71,0,0,1-.7.71,2,2,0,0,1-1,.25,1.85,1.85,0,0,1-1.41-.56A2.26,2.26,0,0,1,108,49.21Zm.72,0a1.79,1.79,0,0,0,.35,1.2,1.17,1.17,0,0,0,1.74,0,1.85,1.85,0,0,0,.35-1.22,1.76,1.76,0,0,0-.35-1.17,1.17,1.17,0,0,0-1.74,0A1.78,1.78,0,0,0,108.75,49.21Z"/><path class="cls-3" d="M112.46,50.05l.69-.11a1,1,0,0,0,.33.64,1.14,1.14,0,0,0,.75.22,1.08,1.08,0,0,0,.71-.19.61.61,0,0,0,.24-.47.42.42,0,0,0-.21-.37,3.29,3.29,0,0,0-.72-.24,6.18,6.18,0,0,1-1.07-.34,1,1,0,0,1-.45-.39,1,1,0,0,1-.16-.56,1.14,1.14,0,0,1,.13-.51,1.1,1.1,0,0,1,.35-.39,1.29,1.29,0,0,1,.44-.21,2,2,0,0,1,.61-.08,2.28,2.28,0,0,1,.86.14,1.12,1.12,0,0,1,.54.38,1.5,1.5,0,0,1,.25.64l-.69.09a.75.75,0,0,0-.27-.5,1,1,0,0,0-.64-.18,1.21,1.21,0,0,0-.69.16.48.48,0,0,0-.21.38.4.4,0,0,0,.09.25.71.71,0,0,0,.27.18l.62.18a8.83,8.83,0,0,1,1,.33,1,1,0,0,1,.46.37,1,1,0,0,1,.17.6,1.24,1.24,0,0,1-.2.66,1.31,1.31,0,0,1-.6.48,2,2,0,0,1-.87.17,2,2,0,0,1-1.23-.33A1.52,1.52,0,0,1,112.46,50.05Z"/><path class="cls-3" d="M117.2,53h-.51a7,7,0,0,0,1.17-3.75,6,6,0,0,0-.17-1.46,5.45,5.45,0,0,0-.37-1.12,11.86,11.86,0,0,0-.63-1.18h.51a7.41,7.41,0,0,1,1.08,2,5.32,5.32,0,0,1,.3,1.78,5.26,5.26,0,0,1-.4,2A7.29,7.29,0,0,1,117.2,53Z"/><path class="cls-2" d="M14.58,65.32V58.88h1.3v6.44Z"/><path class="cls-2" d="M21.35,65.32H20.12V62.94A3.79,3.79,0,0,0,20,62a.71.71,0,0,0-.26-.35.75.75,0,0,0-.43-.12,1,1,0,0,0-.57.18.84.84,0,0,0-.35.46,3.71,3.71,0,0,0-.1,1.07v2.12H17.1V60.65h1.15v.69a1.93,1.93,0,0,1,2.28-.65,1.22,1.22,0,0,1,.51.38,1.19,1.19,0,0,1,.24.52,3.54,3.54,0,0,1,.07.83Z"/><path class="cls-2" d="M26.88,65.32H25.74v-.69a1.84,1.84,0,0,1-.68.6,1.72,1.72,0,0,1-.78.19,1.75,1.75,0,0,1-1.38-.65,2.63,2.63,0,0,1-.57-1.8,2.58,2.58,0,0,1,.56-1.81,1.81,1.81,0,0,1,1.41-.61,1.72,1.72,0,0,1,1.35.65V58.88h1.23Zm-3.29-2.44a2.22,2.22,0,0,0,.2,1.08.93.93,0,0,0,.84.49.89.89,0,0,0,.72-.36,1.71,1.71,0,0,0,.3-1.09,1.82,1.82,0,0,0-.29-1.16.92.92,0,0,0-.74-.35,1,1,0,0,0-.74.35A1.61,1.61,0,0,0,23.59,62.88Z"/><path class="cls-2" d="M28.1,60V58.88h1.24V60Zm0,5.3V60.65h1.24v4.67Z"/><path class="cls-2" d="M34.67,62l-1.22.22a.86.86,0,0,0-.28-.55.84.84,0,0,0-.56-.18.91.91,0,0,0-.74.32,1.63,1.63,0,0,0-.27,1.06,1.86,1.86,0,0,0,.28,1.17.9.9,0,0,0,.75.35.84.84,0,0,0,.57-.2,1.24,1.24,0,0,0,.32-.69l1.21.21A2.14,2.14,0,0,1,34,65a2.28,2.28,0,0,1-1.44.42,2.12,2.12,0,0,1-1.63-.64,2.95,2.95,0,0,1,0-3.59,2.17,2.17,0,0,1,1.65-.64,2.31,2.31,0,0,1,1.36.36A2.11,2.11,0,0,1,34.67,62Z"/><path class="cls-2" d="M36.53,62.07l-1.12-.2a1.76,1.76,0,0,1,.65-1,2.35,2.35,0,0,1,1.37-.32,3,3,0,0,1,1.23.19,1.24,1.24,0,0,1,.57.5,2.55,2.55,0,0,1,.16,1.1v1.44a5,5,0,0,0,.06.91,2.64,2.64,0,0,0,.22.63H38.44c0-.08-.07-.21-.12-.37s0-.12,0-.14a2.27,2.27,0,0,1-.68.46,2,2,0,0,1-.77.15A1.57,1.57,0,0,1,35.7,65a1.29,1.29,0,0,1-.42-1,1.27,1.27,0,0,1,.19-.7,1.23,1.23,0,0,1,.53-.48,4.07,4.07,0,0,1,1-.28,6.1,6.1,0,0,0,1.2-.31v-.12a.66.66,0,0,0-.17-.51,1.08,1.08,0,0,0-.67-.15.84.84,0,0,0-.51.13A1,1,0,0,0,36.53,62.07Zm1.65,1q-.24.08-.75.18a2.4,2.4,0,0,0-.67.22.51.51,0,0,0-.24.44.58.58,0,0,0,.19.44.66.66,0,0,0,.49.19,1.06,1.06,0,0,0,.64-.22.71.71,0,0,0,.29-.4,2.15,2.15,0,0,0,0-.61Z"/><path class="cls-2" d="M44.89,65.32H43.75v-.69a1.84,1.84,0,0,1-.68.6,1.72,1.72,0,0,1-.78.19,1.75,1.75,0,0,1-1.38-.65,3.19,3.19,0,0,1,0-3.61,1.84,1.84,0,0,1,1.41-.61,1.73,1.73,0,0,1,1.36.65V58.88h1.23ZM41.6,62.88A2.22,2.22,0,0,0,41.8,64a.93.93,0,0,0,.84.49.91.91,0,0,0,.72-.36,1.71,1.71,0,0,0,.3-1.09,1.82,1.82,0,0,0-.29-1.16.92.92,0,0,0-.74-.35,1,1,0,0,0-.74.35A1.61,1.61,0,0,0,41.6,62.88Z"/><path class="cls-2" d="M45.83,62.92a2.53,2.53,0,0,1,.3-1.19,2,2,0,0,1,.86-.88,2.56,2.56,0,0,1,1.24-.3,2.31,2.31,0,0,1,1.73.68A2.35,2.35,0,0,1,50.64,63,2.44,2.44,0,0,1,50,64.73a2.33,2.33,0,0,1-1.72.69A2.65,2.65,0,0,1,47,65.13a2,2,0,0,1-.88-.85A2.85,2.85,0,0,1,45.83,62.92Zm1.26.06a1.56,1.56,0,0,0,.33,1.07,1.07,1.07,0,0,0,.81.37,1,1,0,0,0,.81-.37A1.57,1.57,0,0,0,49.37,63,1.55,1.55,0,0,0,49,61.92a1,1,0,0,0-.81-.37,1.07,1.07,0,0,0-.81.37A1.55,1.55,0,0,0,47.09,63Z"/><path class="cls-2" d="M52.79,65.32H51.56V60.65H52.7v.66a2.2,2.2,0,0,1,.53-.62,1,1,0,0,1,.54-.14,1.51,1.51,0,0,1,.81.23l-.38,1.07a1.15,1.15,0,0,0-.58-.2.65.65,0,0,0-.44.15.94.94,0,0,0-.29.51,7.36,7.36,0,0,0-.1,1.57Z"/><path class="cls-2" d="M61.52,64.17v1.15H57.19a3,3,0,0,1,.42-1.23A8,8,0,0,1,59,62.54a8.37,8.37,0,0,0,1-1,1.39,1.39,0,0,0,.26-.76.9.9,0,0,0-.22-.64.88.88,0,0,0-.62-.22.81.81,0,0,0-.61.24,1.22,1.22,0,0,0-.27.77l-1.23-.12A2.09,2.09,0,0,1,58,59.29a2.36,2.36,0,0,1,1.45-.44,2.1,2.1,0,0,1,1.5.51,1.68,1.68,0,0,1,.55,1.28,2.12,2.12,0,0,1-.16.83,3.28,3.28,0,0,1-.49.82,8.17,8.17,0,0,1-.81.83,9.35,9.35,0,0,0-.74.71,1.73,1.73,0,0,0-.25.34Z"/><path class="cls-2" d="M62.85,61.89V60.65h1.24v1.24Zm0,3.43V64.08h1.24v1.24Z"/><path class="cls-3" d="M14.59,75.32V69.59h4.14v.68H15.35V72h3.17v.67H15.35v2h3.52v.68Z"/><path class="cls-3" d="M18.93,76.93l.13-.6a1.19,1.19,0,0,0,.33,0,.35.35,0,0,0,.32-.14,1.41,1.41,0,0,0,.11-.71V71.17h.7v4.37a2,2,0,0,1-.2,1.07.93.93,0,0,1-.84.39A2,2,0,0,1,18.93,76.93Zm.89-6.52v-.82h.7v.82Z"/><path class="cls-3" d="M21.6,75.32V71.17h.63v.58a1.53,1.53,0,0,1,.52-.49,1.47,1.47,0,0,1,.74-.18,1.33,1.33,0,0,1,.75.19,1,1,0,0,1,.42.53,1.49,1.49,0,0,1,1.28-.72,1.26,1.26,0,0,1,.95.34,1.45,1.45,0,0,1,.33,1v2.85h-.7V72.7a1.73,1.73,0,0,0-.07-.6.51.51,0,0,0-.24-.3.75.75,0,0,0-.43-.12,1,1,0,0,0-.72.3,1.28,1.28,0,0,0-.29.93v2.41h-.7v-2.7a1.15,1.15,0,0,0-.18-.7.63.63,0,0,0-.56-.24,1.07,1.07,0,0,0-.55.16.87.87,0,0,0-.36.46,2.45,2.45,0,0,0-.12.87v2.15Z"/><path class="cls-3" d="M28.46,72v-.8h.8V72Zm0,3.35v-.8h.8v.8Z"/><path class="cls-3" d="M32.93,75.32V69.59h.76v5.73Z"/><path class="cls-3" d="M35,75.32V69.59h.76v5h2.82v.68Z"/><path class="cls-3" d="M39.6,75.32V69.59h.76v5.73Z"/><path class="cls-3" d="M43.85,69.24l.52-1.09h.92l-.86,1.09Zm.2,6.08V69.59h.75v5.73Z"/><path class="cls-3" d="M46.05,75.32V71.17h.63v.59A1.49,1.49,0,0,1,48,71.08a1.73,1.73,0,0,1,.69.13,1.1,1.1,0,0,1,.47.35,1.28,1.28,0,0,1,.22.52,3.67,3.67,0,0,1,0,.69v2.55h-.7V72.79a2,2,0,0,0-.08-.64.75.75,0,0,0-.3-.34.94.94,0,0,0-.49-.13,1.13,1.13,0,0,0-.77.29,1.39,1.39,0,0,0-.33,1.08v2.27Z"/><path class="cls-3" d="M53.19,75.32v-.53a1.27,1.27,0,0,1-1.16.62,1.64,1.64,0,0,1-.91-.27,1.83,1.83,0,0,1-.65-.77,2.63,2.63,0,0,1-.22-1.12,2.92,2.92,0,0,1,.2-1.13,1.68,1.68,0,0,1,.62-.78,1.76,1.76,0,0,1,.93-.26,1.31,1.31,0,0,1,1.14.57V69.59h.7v5.73ZM51,73.25a1.82,1.82,0,0,0,.33,1.19,1,1,0,0,0,.8.39,1,1,0,0,0,.78-.37,1.77,1.77,0,0,0,.32-1.15,1.93,1.93,0,0,0-.33-1.25,1,1,0,0,0-.8-.4,1,1,0,0,0-.79.38A1.91,1.91,0,0,0,51,73.25Z"/><path class="cls-3" d="M55,70.4v-.81h.71v.81Zm0,4.92V71.17h.71v4.15Z"/><path class="cls-3" d="M59.43,73.8l.69.09A1.75,1.75,0,0,1,59.54,75a1.67,1.67,0,0,1-1.14.4A1.74,1.74,0,0,1,57,74.85a2.22,2.22,0,0,1-.52-1.59,2.89,2.89,0,0,1,.22-1.18,1.6,1.6,0,0,1,.68-.75,2,2,0,0,1,1-.25,1.73,1.73,0,0,1,1.11.34,1.57,1.57,0,0,1,.55,1l-.69.1a1.2,1.2,0,0,0-.34-.63.91.91,0,0,0-.6-.21,1.09,1.09,0,0,0-.86.38,1.78,1.78,0,0,0-.34,1.21,1.86,1.86,0,0,0,.32,1.21,1,1,0,0,0,.84.38,1,1,0,0,0,.69-.25A1.24,1.24,0,0,0,59.43,73.8Z"/><path class="cls-3" d="M63.57,74l.72.09a1.76,1.76,0,0,1-.63,1,2,2,0,0,1-1.19.35A1.93,1.93,0,0,1,61,74.85a2.21,2.21,0,0,1-.53-1.57A2.31,2.31,0,0,1,61,71.65a1.85,1.85,0,0,1,1.4-.57,1.77,1.77,0,0,1,1.36.56,2.27,2.27,0,0,1,.53,1.6s0,.1,0,.18H61.22a1.57,1.57,0,0,0,.38,1,1.17,1.17,0,0,0,.87.36,1,1,0,0,0,.66-.2A1.41,1.41,0,0,0,63.57,74Zm-2.31-1.14h2.31a1.44,1.44,0,0,0-.26-.78A1.15,1.15,0,0,0,61.62,72,1.24,1.24,0,0,0,61.26,72.84Z"/><path class="cls-3" d="M70.09,75.32v-.53a1.27,1.27,0,0,1-1.16.62,1.62,1.62,0,0,1-.91-.27,1.76,1.76,0,0,1-.65-.77,2.63,2.63,0,0,1-.23-1.12,2.92,2.92,0,0,1,.21-1.13,1.68,1.68,0,0,1,.62-.78,1.76,1.76,0,0,1,.93-.26,1.31,1.31,0,0,1,1.14.57V69.59h.7v5.73Zm-2.22-2.07a1.82,1.82,0,0,0,.33,1.19,1,1,0,0,0,.8.39,1,1,0,0,0,.78-.37,1.77,1.77,0,0,0,.32-1.15,1.93,1.93,0,0,0-.33-1.25,1,1,0,0,0-.81-.4,1,1,0,0,0-.78.38A1.91,1.91,0,0,0,67.87,73.25Z"/><path class="cls-3" d="M74.69,74l.72.09a1.71,1.71,0,0,1-.63,1,2,2,0,0,1-1.19.35,1.89,1.89,0,0,1-1.44-.56,2.17,2.17,0,0,1-.54-1.57,2.31,2.31,0,0,1,.54-1.63,1.85,1.85,0,0,1,1.4-.57,1.77,1.77,0,0,1,1.36.56,2.27,2.27,0,0,1,.53,1.6,1.36,1.36,0,0,1,0,.18H72.34a1.57,1.57,0,0,0,.39,1,1.15,1.15,0,0,0,.86.36,1,1,0,0,0,.66-.2A1.34,1.34,0,0,0,74.69,74Zm-2.31-1.14h2.31a1.44,1.44,0,0,0-.26-.78,1.09,1.09,0,0,0-.87-.41,1.11,1.11,0,0,0-.82.33A1.24,1.24,0,0,0,72.38,72.84Z"/><path class="cls-3" d="M78.5,75.32V69.59h.71v5.73Z"/><path class="cls-3" d="M83.14,74l.72.09a1.71,1.71,0,0,1-.63,1,2,2,0,0,1-1.19.35,1.93,1.93,0,0,1-1.45-.56,2.21,2.21,0,0,1-.53-1.57,2.31,2.31,0,0,1,.54-1.63,1.85,1.85,0,0,1,1.4-.57,1.77,1.77,0,0,1,1.36.56,2.27,2.27,0,0,1,.53,1.6s0,.1,0,.18H80.79a1.57,1.57,0,0,0,.38,1,1.19,1.19,0,0,0,.87.36,1,1,0,0,0,.66-.2A1.41,1.41,0,0,0,83.14,74Zm-2.31-1.14h2.31a1.44,1.44,0,0,0-.26-.78A1.15,1.15,0,0,0,81.19,72,1.24,1.24,0,0,0,80.83,72.84Z"/><path class="cls-3" d="M84.46,74.08l.7-.11a1,1,0,0,0,.33.64,1.4,1.4,0,0,0,1.46,0,.61.61,0,0,0,.24-.47A.42.42,0,0,0,87,73.8a3.52,3.52,0,0,0-.72-.24,6.18,6.18,0,0,1-1.07-.34,1,1,0,0,1-.45-.39,1,1,0,0,1-.16-.56,1,1,0,0,1,.13-.51,1.19,1.19,0,0,1,.34-.4,1.59,1.59,0,0,1,.45-.2,2,2,0,0,1,.61-.08,2.32,2.32,0,0,1,.86.14,1.17,1.17,0,0,1,.54.38,1.38,1.38,0,0,1,.24.64l-.68.09a.81.81,0,0,0-.28-.5,1,1,0,0,0-.63-.18,1.21,1.21,0,0,0-.69.16.48.48,0,0,0-.21.38.36.36,0,0,0,.09.24.52.52,0,0,0,.27.19,6.05,6.05,0,0,0,.62.18,7.7,7.7,0,0,1,1,.33,1.05,1.05,0,0,1,.46.37,1,1,0,0,1,.17.6,1.17,1.17,0,0,1-.21.66,1.24,1.24,0,0,1-.59.48,2.21,2.21,0,0,1-.87.17A2,2,0,0,1,85,75.08,1.61,1.61,0,0,1,84.46,74.08Z"/><path class="cls-3" d="M88.75,70.4v-.81h.7v.81Zm0,4.92V71.17h.7v4.15Z"/><path class="cls-3" d="M90.26,73.24a2.11,2.11,0,0,1,.64-1.7,1.92,1.92,0,0,1,1.31-.46,1.82,1.82,0,0,1,1.39.56,2.09,2.09,0,0,1,.55,1.54,2.71,2.71,0,0,1-.24,1.26,1.74,1.74,0,0,1-.7.72,2,2,0,0,1-1,.25,1.87,1.87,0,0,1-1.41-.56A2.22,2.22,0,0,1,90.26,73.24Zm.72,0a1.81,1.81,0,0,0,.35,1.2,1.12,1.12,0,0,0,.88.39,1.1,1.1,0,0,0,.87-.4,1.8,1.8,0,0,0,.34-1.21,1.76,1.76,0,0,0-.34-1.17,1.14,1.14,0,0,0-.87-.39,1.12,1.12,0,0,0-.88.39A1.76,1.76,0,0,0,91,73.24Z"/><path class="cls-3" d="M95,75.32V71.17h.63v.59a1.49,1.49,0,0,1,1.32-.68,1.73,1.73,0,0,1,.69.13,1.1,1.1,0,0,1,.47.35,1.28,1.28,0,0,1,.22.52,3.67,3.67,0,0,1,0,.69v2.55h-.7V72.79a2,2,0,0,0-.08-.64.73.73,0,0,0-.29-.34,1,1,0,0,0-.49-.13A1.16,1.16,0,0,0,96,72a1.39,1.39,0,0,0-.33,1.08v2.27Z"/><path class="cls-3" d="M102.26,74l.73.09a1.78,1.78,0,0,1-.64,1,2,2,0,0,1-1.19.35,1.92,1.92,0,0,1-1.44-.56,2.16,2.16,0,0,1-.53-1.57,2.31,2.31,0,0,1,.54-1.63,1.81,1.81,0,0,1,1.39-.57,1.75,1.75,0,0,1,1.36.56,2.27,2.27,0,0,1,.53,1.6v.18h-3.1a1.62,1.62,0,0,0,.39,1,1.15,1.15,0,0,0,.87.36,1.08,1.08,0,0,0,.66-.2A1.4,1.4,0,0,0,102.26,74ZM100,72.84h2.32a1.36,1.36,0,0,0-.27-.78,1.07,1.07,0,0,0-.87-.41,1.1,1.1,0,0,0-.81.33A1.29,1.29,0,0,0,100,72.84Z"/><path class="cls-3" d="M103.59,74.08l.69-.11a1,1,0,0,0,.33.64,1.14,1.14,0,0,0,.75.22,1.13,1.13,0,0,0,.72-.19.63.63,0,0,0,.23-.47.42.42,0,0,0-.21-.37,3.14,3.14,0,0,0-.71-.24,6.07,6.07,0,0,1-1.08-.34,1,1,0,0,1-.45-.39,1.13,1.13,0,0,1,0-1.07,1.22,1.22,0,0,1,.35-.4,1.59,1.59,0,0,1,.45-.2,1.94,1.94,0,0,1,.6-.08,2.28,2.28,0,0,1,.86.14,1.15,1.15,0,0,1,.55.38,1.65,1.65,0,0,1,.24.64l-.69.09a.75.75,0,0,0-.27-.5,1,1,0,0,0-.64-.18,1.21,1.21,0,0,0-.69.16.5.5,0,0,0-.2.38.35.35,0,0,0,.08.24.62.62,0,0,0,.27.19l.62.18a6.83,6.83,0,0,1,1,.33,1.08,1.08,0,0,1,.47.37,1,1,0,0,1,.16.6,1.16,1.16,0,0,1-.2.66,1.29,1.29,0,0,1-.59.48,2.23,2.23,0,0,1-.88.17,2,2,0,0,1-1.23-.33A1.61,1.61,0,0,1,103.59,74.08Z"/><path class="cls-3" d="M110.1,70.4v-.81h.7v.81Zm0,4.92V71.17h.7v4.15Z"/><path class="cls-3" d="M111.87,75.32V71.17h.63v.59a1.49,1.49,0,0,1,1.32-.68,1.73,1.73,0,0,1,.69.13,1.1,1.1,0,0,1,.47.35,1.28,1.28,0,0,1,.22.52,3.67,3.67,0,0,1,0,.69v2.55h-.7V72.79a2,2,0,0,0-.08-.64.75.75,0,0,0-.3-.34.94.94,0,0,0-.49-.13,1.13,1.13,0,0,0-.77.29,1.39,1.39,0,0,0-.33,1.08v2.27Z"/><path class="cls-3" d="M119,73.8l.69.09a1.84,1.84,0,0,1-.58,1.12,1.7,1.7,0,0,1-1.15.4,1.76,1.76,0,0,1-1.37-.56,2.27,2.27,0,0,1-.52-1.59,2.89,2.89,0,0,1,.23-1.18,1.58,1.58,0,0,1,.67-.75,2,2,0,0,1,1-.25,1.7,1.7,0,0,1,1.1.34,1.52,1.52,0,0,1,.55,1l-.68.1a1.21,1.21,0,0,0-.35-.63.88.88,0,0,0-.6-.21,1.1,1.1,0,0,0-.86.38,1.84,1.84,0,0,0-.33,1.21,1.81,1.81,0,0,0,.32,1.21,1,1,0,0,0,.83.38,1,1,0,0,0,.69-.25A1.24,1.24,0,0,0,119,73.8Z"/><path class="cls-3" d="M123,74.81a2.49,2.49,0,0,1-.76.46,2,2,0,0,1-.77.14,1.5,1.5,0,0,1-1-.33,1.11,1.11,0,0,1-.37-.86,1.15,1.15,0,0,1,.14-.55,1.1,1.1,0,0,1,.36-.41,1.69,1.69,0,0,1,.51-.23,6.21,6.21,0,0,1,.62-.1,6.1,6.1,0,0,0,1.26-.25V72.5a.74.74,0,0,0-.2-.6,1.16,1.16,0,0,0-.8-.24,1.29,1.29,0,0,0-.73.17,1,1,0,0,0-.35.62l-.69-.1a1.72,1.72,0,0,1,.31-.71,1.36,1.36,0,0,1,.62-.42,2.73,2.73,0,0,1,.94-.14,2.64,2.64,0,0,1,.87.12,1.11,1.11,0,0,1,.48.31,1.06,1.06,0,0,1,.22.48,3.25,3.25,0,0,1,0,.65v.94a10.35,10.35,0,0,0,0,1.24,1.58,1.58,0,0,0,.18.5h-.73A1.37,1.37,0,0,1,123,74.81ZM123,73.24a5.38,5.38,0,0,1-1.15.26,2.64,2.64,0,0,0-.61.14.58.58,0,0,0-.28.23.56.56,0,0,0-.1.33.59.59,0,0,0,.21.47.91.91,0,0,0,.63.19,1.43,1.43,0,0,0,.72-.18,1.06,1.06,0,0,0,.46-.48,1.65,1.65,0,0,0,.12-.71Z"/><path class="cls-3" d="M124.77,76.91V71.17h.64v.54a1.65,1.65,0,0,1,.51-.48,1.47,1.47,0,0,1,.69-.15,1.65,1.65,0,0,1,.94.27,1.62,1.62,0,0,1,.61.77,3,3,0,0,1,0,2.24,1.69,1.69,0,0,1-.66.78,1.72,1.72,0,0,1-.92.27,1.33,1.33,0,0,1-.63-.15,1.42,1.42,0,0,1-.46-.37v2Zm.64-3.64a1.77,1.77,0,0,0,.32,1.18,1,1,0,0,0,.78.38,1,1,0,0,0,.81-.39,1.92,1.92,0,0,0,.33-1.23,1.88,1.88,0,0,0-.32-1.19,1,1,0,0,0-.78-.39,1,1,0,0,0-.8.42A1.87,1.87,0,0,0,125.41,73.27Z"/><path class="cls-3" d="M131.92,74.81a2.58,2.58,0,0,1-.75.46,2,2,0,0,1-.77.14,1.5,1.5,0,0,1-1.05-.33,1.11,1.11,0,0,1-.37-.86,1.15,1.15,0,0,1,.14-.55,1.1,1.1,0,0,1,.36-.41A1.69,1.69,0,0,1,130,73a5.34,5.34,0,0,1,.62-.1,6.1,6.1,0,0,0,1.26-.25V72.5a.77.77,0,0,0-.2-.6,1.18,1.18,0,0,0-.8-.24,1.27,1.27,0,0,0-.73.17,1,1,0,0,0-.35.62l-.69-.1a1.72,1.72,0,0,1,.31-.71,1.36,1.36,0,0,1,.62-.42,2.73,2.73,0,0,1,.94-.14,2.54,2.54,0,0,1,.86.12,1.09,1.09,0,0,1,.49.31,1.06,1.06,0,0,1,.22.48,3.25,3.25,0,0,1,0,.65v.94a10.35,10.35,0,0,0,0,1.24,1.58,1.58,0,0,0,.18.5h-.73A1.6,1.6,0,0,1,131.92,74.81Zm0-1.57a5.38,5.38,0,0,1-1.15.26,2.76,2.76,0,0,0-.62.14.62.62,0,0,0-.37.56.59.59,0,0,0,.21.47.9.9,0,0,0,.63.19,1.43,1.43,0,0,0,.72-.18,1.12,1.12,0,0,0,.46-.48,1.65,1.65,0,0,0,.12-.71Z"/><path class="cls-3" d="M136.37,73.8l.7.09a1.84,1.84,0,0,1-.58,1.12,1.71,1.71,0,0,1-1.15.4,1.74,1.74,0,0,1-1.37-.56,2.22,2.22,0,0,1-.52-1.59,3.07,3.07,0,0,1,.22-1.18,1.6,1.6,0,0,1,.68-.75,2,2,0,0,1,1-.25,1.73,1.73,0,0,1,1.11.34,1.57,1.57,0,0,1,.55,1l-.68.1a1.28,1.28,0,0,0-.35-.63.91.91,0,0,0-.6-.21,1.1,1.1,0,0,0-.86.38,1.84,1.84,0,0,0-.34,1.21,1.8,1.8,0,0,0,.33,1.21,1,1,0,0,0,.83.38,1,1,0,0,0,.69-.25A1.24,1.24,0,0,0,136.37,73.8Z"/><path class="cls-3" d="M137.67,70.4v-.81h.7v.81Zm0,4.92V71.17h.7v4.15Z"/><path class="cls-3" d="M141,74.69l.1.62a2.69,2.69,0,0,1-.53.06,1.18,1.18,0,0,1-.59-.12.71.71,0,0,1-.3-.32,2.41,2.41,0,0,1-.09-.83V71.72h-.51v-.55h.51v-1l.7-.42v1.45H141v.55h-.71v2.42a1.4,1.4,0,0,0,0,.39.27.27,0,0,0,.12.14.54.54,0,0,0,.24,0Z"/><path class="cls-3" d="M144.37,74.81a2.58,2.58,0,0,1-.75.46,2,2,0,0,1-.77.14,1.5,1.5,0,0,1-1-.33,1.11,1.11,0,0,1-.37-.86,1,1,0,0,1,.14-.55,1.1,1.1,0,0,1,.36-.41,1.69,1.69,0,0,1,.51-.23,5.34,5.34,0,0,1,.62-.1,6.1,6.1,0,0,0,1.26-.25V72.5a.77.77,0,0,0-.2-.6,1.18,1.18,0,0,0-.8-.24,1.27,1.27,0,0,0-.73.17,1,1,0,0,0-.35.62l-.69-.1a1.6,1.6,0,0,1,.31-.71,1.36,1.36,0,0,1,.62-.42,2.7,2.7,0,0,1,.94-.14,2.54,2.54,0,0,1,.86.12,1.09,1.09,0,0,1,.49.31A1.06,1.06,0,0,1,145,72a4.27,4.27,0,0,1,0,.65v.94a10.35,10.35,0,0,0,0,1.24,1.58,1.58,0,0,0,.18.5h-.74A1.59,1.59,0,0,1,144.37,74.81Zm-.05-1.57a5.38,5.38,0,0,1-1.15.26,2.76,2.76,0,0,0-.62.14.62.62,0,0,0-.37.56.59.59,0,0,0,.21.47.89.89,0,0,0,.62.19,1.44,1.44,0,0,0,.73-.18,1.12,1.12,0,0,0,.46-.48,1.65,1.65,0,0,0,.12-.71Z"/><path class="cls-3" d="M146.12,75.32V71.17h.63v.59a1.47,1.47,0,0,1,1.32-.68,1.73,1.73,0,0,1,.69.13,1.16,1.16,0,0,1,.47.35,1.43,1.43,0,0,1,.22.52,4.82,4.82,0,0,1,0,.69v2.55h-.71V72.79a1.78,1.78,0,0,0-.08-.64.68.68,0,0,0-.29-.34,1,1,0,0,0-.49-.13,1.12,1.12,0,0,0-.77.29,1.39,1.39,0,0,0-.33,1.08v2.27Z"/><path class="cls-3" d="M152.1,74.69l.1.62a2.69,2.69,0,0,1-.53.06,1.21,1.21,0,0,1-.59-.12.71.71,0,0,1-.3-.32,2.41,2.41,0,0,1-.09-.83V71.72h-.51v-.55h.51v-1l.7-.42v1.45h.71v.55h-.71v2.42a1.4,1.4,0,0,0,0,.39.41.41,0,0,0,.12.14.54.54,0,0,0,.24,0Z"/><path class="cls-3" d="M155.63,74l.72.09a1.71,1.71,0,0,1-.63,1,2,2,0,0,1-1.19.35,1.89,1.89,0,0,1-1.44-.56,2.17,2.17,0,0,1-.54-1.57,2.31,2.31,0,0,1,.54-1.63,1.85,1.85,0,0,1,1.4-.57,1.75,1.75,0,0,1,1.36.56,2.27,2.27,0,0,1,.53,1.6,1.36,1.36,0,0,1,0,.18h-3.09a1.62,1.62,0,0,0,.39,1,1.15,1.15,0,0,0,.86.36,1,1,0,0,0,.66-.2A1.34,1.34,0,0,0,155.63,74Zm-2.31-1.14h2.32a1.44,1.44,0,0,0-.27-.78,1.07,1.07,0,0,0-.87-.41,1.12,1.12,0,0,0-.82.33A1.24,1.24,0,0,0,153.32,72.84Z"/><path class="cls-3" d="M157,74.08l.69-.11a1,1,0,0,0,.33.64,1.14,1.14,0,0,0,.75.22,1.08,1.08,0,0,0,.71-.19.61.61,0,0,0,.24-.47.42.42,0,0,0-.21-.37,3.29,3.29,0,0,0-.72-.24,6.18,6.18,0,0,1-1.07-.34,1,1,0,0,1-.45-.39,1,1,0,0,1-.16-.56,1.1,1.1,0,0,1,.13-.51,1.22,1.22,0,0,1,.35-.4,1.51,1.51,0,0,1,.44-.2,2,2,0,0,1,.61-.08,2.28,2.28,0,0,1,.86.14,1.12,1.12,0,0,1,.54.38,1.5,1.5,0,0,1,.25.64l-.69.09a.75.75,0,0,0-.27-.5,1,1,0,0,0-.64-.18,1.21,1.21,0,0,0-.69.16.48.48,0,0,0-.21.38.36.36,0,0,0,.09.24.62.62,0,0,0,.27.19l.62.18a7.24,7.24,0,0,1,1,.33,1,1,0,0,1,.46.37,1,1,0,0,1,.17.6,1.24,1.24,0,0,1-.2.66,1.31,1.31,0,0,1-.6.48,2.18,2.18,0,0,1-.87.17,2,2,0,0,1-1.23-.33A1.52,1.52,0,0,1,157,74.08Z"/><path class="cls-2" d="M14.58,89.35V82.9h1.3v6.45Z"/><path class="cls-2" d="M21.35,89.35H20.12V87A3.79,3.79,0,0,0,20,86a.67.67,0,0,0-.26-.35.75.75,0,0,0-.43-.12,1,1,0,0,0-.57.17.9.9,0,0,0-.35.47,3.66,3.66,0,0,0-.1,1.07v2.12H17.1V84.68h1.15v.69a1.89,1.89,0,0,1,2.28-.65,1.22,1.22,0,0,1,.51.38,1.19,1.19,0,0,1,.24.52,3.54,3.54,0,0,1,.07.83Z"/><path class="cls-2" d="M26.88,89.35H25.74v-.69a1.84,1.84,0,0,1-.68.6,1.72,1.72,0,0,1-.78.19,1.75,1.75,0,0,1-1.38-.65,2.63,2.63,0,0,1-.57-1.8,2.57,2.57,0,0,1,.56-1.81,1.82,1.82,0,0,1,1.41-.62,1.75,1.75,0,0,1,1.35.65V82.9h1.23Zm-3.29-2.44a2.22,2.22,0,0,0,.2,1.08.93.93,0,0,0,.84.49.88.88,0,0,0,.72-.37,1.66,1.66,0,0,0,.3-1.08,1.82,1.82,0,0,0-.29-1.16.92.92,0,0,0-.74-.35,1,1,0,0,0-.74.35A1.61,1.61,0,0,0,23.59,86.91Z"/><path class="cls-2" d="M28.1,84.05V82.9h1.24v1.15Zm0,5.3V84.68h1.24v4.67Z"/><path class="cls-2" d="M34.67,86.06l-1.22.22a.86.86,0,0,0-.28-.55.84.84,0,0,0-.56-.18.94.94,0,0,0-.74.31,1.68,1.68,0,0,0-.27,1.07,1.86,1.86,0,0,0,.28,1.17.9.9,0,0,0,.75.35.84.84,0,0,0,.57-.2,1.24,1.24,0,0,0,.32-.69l1.21.2A2.13,2.13,0,0,1,34,89a2.28,2.28,0,0,1-1.44.42,2.12,2.12,0,0,1-1.63-.64,2.95,2.95,0,0,1,0-3.59,2.18,2.18,0,0,1,1.65-.65,2.31,2.31,0,0,1,1.36.37A2.11,2.11,0,0,1,34.67,86.06Z"/><path class="cls-2" d="M36.53,86.1l-1.12-.2a1.76,1.76,0,0,1,.65-1,2.35,2.35,0,0,1,1.37-.33,3,3,0,0,1,1.23.2,1.24,1.24,0,0,1,.57.5,2.55,2.55,0,0,1,.16,1.1v1.44a5,5,0,0,0,.06.91,2.64,2.64,0,0,0,.22.63H38.44L38.32,89c0-.07,0-.12,0-.14a2.27,2.27,0,0,1-.68.46,2,2,0,0,1-.77.15,1.57,1.57,0,0,1-1.13-.39,1.29,1.29,0,0,1-.42-1,1.27,1.27,0,0,1,.19-.7,1.23,1.23,0,0,1,.53-.48,4.51,4.51,0,0,1,1-.29,5.6,5.6,0,0,0,1.2-.3v-.12a.66.66,0,0,0-.17-.51,1.08,1.08,0,0,0-.67-.15.84.84,0,0,0-.51.13A1,1,0,0,0,36.53,86.1Zm1.65,1q-.24.08-.75.18a2.4,2.4,0,0,0-.67.22.51.51,0,0,0-.24.43.58.58,0,0,0,.19.45.66.66,0,0,0,.49.19,1.06,1.06,0,0,0,.64-.22.7.7,0,0,0,.29-.41,2,2,0,0,0,0-.6Z"/><path class="cls-2" d="M44.89,89.35H43.75v-.69a1.84,1.84,0,0,1-.68.6,1.72,1.72,0,0,1-.78.19,1.75,1.75,0,0,1-1.38-.65,3.19,3.19,0,0,1,0-3.61,1.85,1.85,0,0,1,1.41-.62,1.76,1.76,0,0,1,1.36.65V82.9h1.23ZM41.6,86.91A2.22,2.22,0,0,0,41.8,88a.93.93,0,0,0,.84.49.89.89,0,0,0,.72-.37,1.66,1.66,0,0,0,.3-1.08,1.82,1.82,0,0,0-.29-1.16.92.92,0,0,0-.74-.35,1,1,0,0,0-.74.35A1.61,1.61,0,0,0,41.6,86.91Z"/><path class="cls-2" d="M45.83,87a2.53,2.53,0,0,1,.3-1.19,2,2,0,0,1,.86-.88,2.56,2.56,0,0,1,1.24-.31,2.32,2.32,0,0,1,1.73.69A2.35,2.35,0,0,1,50.64,87,2.44,2.44,0,0,1,50,88.76a2.33,2.33,0,0,1-1.72.69A2.65,2.65,0,0,1,47,89.16a2,2,0,0,1-.88-.85A2.85,2.85,0,0,1,45.83,87Zm1.26.06a1.56,1.56,0,0,0,.33,1.07,1.07,1.07,0,0,0,.81.37,1,1,0,0,0,.81-.37A1.57,1.57,0,0,0,49.37,87,1.55,1.55,0,0,0,49,86a1,1,0,0,0-.81-.37,1,1,0,0,0-.81.37A1.55,1.55,0,0,0,47.09,87Z"/><path class="cls-2" d="M52.79,89.35H51.56V84.68H52.7v.66a2.2,2.2,0,0,1,.53-.62,1,1,0,0,1,.54-.15,1.52,1.52,0,0,1,.81.24l-.38,1.07a1.15,1.15,0,0,0-.58-.2.7.7,0,0,0-.44.14,1,1,0,0,0-.29.52,7.36,7.36,0,0,0-.1,1.57Z"/><path class="cls-2" d="M57.3,87.64l1.2-.15a1.11,1.11,0,0,0,.31.7.87.87,0,0,0,1.25,0,1.13,1.13,0,0,0,.26-.78,1.08,1.08,0,0,0-.25-.74.8.8,0,0,0-.61-.27,2.22,2.22,0,0,0-.57.09l.14-1a1.13,1.13,0,0,0,.76-.22.77.77,0,0,0,.26-.62.67.67,0,0,0-.7-.71.77.77,0,0,0-.54.22,1.09,1.09,0,0,0-.28.65l-1.13-.2a2.35,2.35,0,0,1,.35-.93,1.58,1.58,0,0,1,.67-.55,2.17,2.17,0,0,1,1-.2,1.91,1.91,0,0,1,1.46.58,1.47,1.47,0,0,1-.47,2.42,1.47,1.47,0,0,1,.88.54,1.52,1.52,0,0,1,.33,1A1.91,1.91,0,0,1,61,88.86,2.3,2.3,0,0,1,58,89,2,2,0,0,1,57.3,87.64Z"/><path class="cls-2" d="M62.85,85.92V84.68h1.24v1.24Zm0,3.43V88.11h1.24v1.24Z"/><path class="cls-3" d="M14.59,99.35V93.62h4.14v.68H15.35v1.75h3.17v.67H15.35v2h3.52v.68Z"/><path class="cls-3" d="M18.93,101l.13-.6a1.76,1.76,0,0,0,.33,0,.35.35,0,0,0,.32-.14,1.41,1.41,0,0,0,.11-.71V95.2h.7v4.37a2,2,0,0,1-.2,1.07.93.93,0,0,1-.84.39A2,2,0,0,1,18.93,101Zm.89-6.52v-.82h.7v.82Z"/><path class="cls-3" d="M21.6,99.35V95.2h.63v.58a1.44,1.44,0,0,1,.52-.49,1.48,1.48,0,0,1,.74-.19,1.33,1.33,0,0,1,.75.2,1,1,0,0,1,.42.53,1.5,1.5,0,0,1,1.28-.73,1.26,1.26,0,0,1,.95.35,1.45,1.45,0,0,1,.33,1v2.85h-.7V96.73a1.73,1.73,0,0,0-.07-.6.51.51,0,0,0-.24-.3.75.75,0,0,0-.43-.12,1,1,0,0,0-.72.3,1.28,1.28,0,0,0-.29.93v2.41h-.7v-2.7a1.13,1.13,0,0,0-.18-.7.63.63,0,0,0-.56-.24,1.07,1.07,0,0,0-.55.16.84.84,0,0,0-.36.46,2.42,2.42,0,0,0-.12.86v2.16Z"/><path class="cls-3" d="M28.46,96v-.8h.8V96Zm0,3.35v-.8h.8v.8Z"/><path class="cls-3" d="M32.93,99.35V93.62h.76v5.73Z"/><path class="cls-3" d="M37.7,97.1v-.67h2.43v2.12a4.25,4.25,0,0,1-1.15.67,3.46,3.46,0,0,1-1.22.22,3.27,3.27,0,0,1-1.54-.36,2.43,2.43,0,0,1-1-1,3.38,3.38,0,0,1-.35-1.53A3.57,3.57,0,0,1,35.18,95a2.36,2.36,0,0,1,1-1.08,3.18,3.18,0,0,1,1.51-.35,3.06,3.06,0,0,1,1.12.2,2,2,0,0,1,.79.56,2.56,2.56,0,0,1,.43.94l-.68.19a2.22,2.22,0,0,0-.32-.69,1.29,1.29,0,0,0-.55-.4,2,2,0,0,0-.79-.15,2.29,2.29,0,0,0-.9.16,1.58,1.58,0,0,0-.61.42,2.23,2.23,0,0,0-.36.56,3.14,3.14,0,0,0-.22,1.15,2.8,2.8,0,0,0,.27,1.29,1.69,1.69,0,0,0,.76.76,2.37,2.37,0,0,0,1.07.25,2.45,2.45,0,0,0,1-.19,2.49,2.49,0,0,0,.72-.4V97.1Z"/><path class="cls-3" d="M40.62,99.35l2.2-5.73h.81L46,99.35h-.87l-.67-1.74H42.05l-.63,1.74ZM42.27,97h1.94l-.6-1.59c-.18-.48-.32-.88-.4-1.19a9.05,9.05,0,0,1-.31,1.1Z"/><path class="cls-3" d="M46.6,99.35V93.62h4.14v.68H47.35v1.75h3.17v.67H47.35v2h3.52v.68Z"/><path class="cls-3" d="M54.07,93.27l.52-1.09h.92l-.85,1.09Zm.2,6.08V93.62H55v5.73Z"/><path class="cls-3" d="M56.27,99.35V95.2h.64v.59a1.48,1.48,0,0,1,1.32-.69,1.65,1.65,0,0,1,.68.14,1.2,1.2,0,0,1,.48.35,1.42,1.42,0,0,1,.21.52,3.67,3.67,0,0,1,0,.69v2.55h-.7V96.82a2,2,0,0,0-.08-.64.73.73,0,0,0-.29-.34,1,1,0,0,0-.49-.13,1.16,1.16,0,0,0-.78.29A1.39,1.39,0,0,0,57,97.08v2.27Z"/><path class="cls-3" d="M63.41,99.35v-.53a1.29,1.29,0,0,1-1.16.62,1.64,1.64,0,0,1-.91-.27,1.8,1.8,0,0,1-.64-.77,2.49,2.49,0,0,1-.23-1.12,3.11,3.11,0,0,1,.2-1.13,1.64,1.64,0,0,1,1.55-1.05,1.47,1.47,0,0,1,.67.16,1.62,1.62,0,0,1,.48.42V93.62h.7v5.73Zm-2.22-2.07a1.76,1.76,0,0,0,.34,1.19,1,1,0,0,0,.79.39,1,1,0,0,0,.78-.37,1.73,1.73,0,0,0,.32-1.15,1.93,1.93,0,0,0-.32-1.25,1,1,0,0,0-.81-.4,1,1,0,0,0-.79.38A1.89,1.89,0,0,0,61.19,97.28Z"/><path class="cls-3" d="M65.17,94.43v-.81h.71v.81Zm0,4.92V95.2h.71v4.15Z"/><path class="cls-3" d="M69.66,97.83l.69.09A1.84,1.84,0,0,1,69.77,99a1.7,1.7,0,0,1-1.15.4,1.76,1.76,0,0,1-1.37-.56,2.27,2.27,0,0,1-.52-1.59A2.89,2.89,0,0,1,67,96.11a1.49,1.49,0,0,1,.67-.75,2,2,0,0,1,1-.26,1.73,1.73,0,0,1,1.11.35,1.52,1.52,0,0,1,.55,1l-.68.1a1.14,1.14,0,0,0-.35-.63.88.88,0,0,0-.6-.21,1.1,1.1,0,0,0-.86.38,1.84,1.84,0,0,0-.33,1.21,1.81,1.81,0,0,0,.32,1.21,1,1,0,0,0,.83.38,1,1,0,0,0,.69-.25A1.24,1.24,0,0,0,69.66,97.83Z"/><path class="cls-3" d="M73.79,98l.72.09a1.74,1.74,0,0,1-.63,1,2,2,0,0,1-1.19.35,1.89,1.89,0,0,1-1.44-.56,2.17,2.17,0,0,1-.54-1.57,2.31,2.31,0,0,1,.54-1.63,1.85,1.85,0,0,1,1.4-.58,1.76,1.76,0,0,1,1.36.57,2.26,2.26,0,0,1,.53,1.59,1.42,1.42,0,0,1,0,.19H71.44a1.62,1.62,0,0,0,.39,1,1.15,1.15,0,0,0,.86.36,1,1,0,0,0,.66-.2A1.34,1.34,0,0,0,73.79,98Zm-2.31-1.14H73.8a1.44,1.44,0,0,0-.27-.78,1.07,1.07,0,0,0-.87-.41,1.12,1.12,0,0,0-.82.33A1.24,1.24,0,0,0,71.48,96.87Z"/><path class="cls-3" d="M80.31,99.35v-.53a1.29,1.29,0,0,1-1.16.62,1.64,1.64,0,0,1-.91-.27,1.89,1.89,0,0,1-.65-.77,2.63,2.63,0,0,1-.22-1.12,3.11,3.11,0,0,1,.2-1.13,1.62,1.62,0,0,1,1.55-1.05,1.35,1.35,0,0,1,1.14.58V93.62H81v5.73Zm-2.22-2.07a1.82,1.82,0,0,0,.33,1.19,1,1,0,0,0,.8.39,1,1,0,0,0,.78-.37,1.73,1.73,0,0,0,.32-1.15A2,2,0,0,0,80,96.09a1,1,0,0,0-.81-.4,1,1,0,0,0-.79.38A1.89,1.89,0,0,0,78.09,97.28Z"/><path class="cls-3" d="M84.91,98l.73.09a1.81,1.81,0,0,1-.64,1,2,2,0,0,1-1.19.35,1.91,1.91,0,0,1-1.44-.56,2.17,2.17,0,0,1-.54-1.57,2.31,2.31,0,0,1,.54-1.63,1.85,1.85,0,0,1,1.4-.58,1.76,1.76,0,0,1,1.36.57,2.26,2.26,0,0,1,.53,1.59v.19h-3.1a1.62,1.62,0,0,0,.39,1,1.15,1.15,0,0,0,.87.36,1.08,1.08,0,0,0,.66-.2A1.4,1.4,0,0,0,84.91,98ZM82.6,96.87h2.32a1.36,1.36,0,0,0-.27-.78,1.07,1.07,0,0,0-.87-.41A1.1,1.1,0,0,0,83,96,1.25,1.25,0,0,0,82.6,96.87Z"/><path class="cls-3" d="M88.61,99.69l.69.1a.6.6,0,0,0,.23.46,1.2,1.2,0,0,0,.72.2,1.24,1.24,0,0,0,.75-.2.93.93,0,0,0,.36-.54,3.89,3.89,0,0,0,0-.91,1.42,1.42,0,0,1-1.15.55,1.56,1.56,0,0,1-1.32-.62,2.4,2.4,0,0,1-.47-1.48,2.67,2.67,0,0,1,.22-1.1,1.66,1.66,0,0,1,1.58-1.05,1.48,1.48,0,0,1,1.21.6v-.5h.65v3.58a3.44,3.44,0,0,1-.2,1.38,1.47,1.47,0,0,1-.62.64,2.27,2.27,0,0,1-1.06.23,2,2,0,0,1-1.2-.33A1.15,1.15,0,0,1,88.61,99.69Zm.58-2.49a1.78,1.78,0,0,0,.33,1.19,1,1,0,0,0,.81.37,1,1,0,0,0,.81-.37,1.74,1.74,0,0,0,.33-1.17,1.68,1.68,0,0,0-.34-1.15,1,1,0,0,0-.81-.38,1,1,0,0,0-.8.38A1.68,1.68,0,0,0,89.19,97.2Z"/><path class="cls-3" d="M96,98l.73.09a1.81,1.81,0,0,1-.64,1,2,2,0,0,1-1.19.35,1.91,1.91,0,0,1-1.44-.56A2.16,2.16,0,0,1,93,97.31a2.31,2.31,0,0,1,.54-1.63,1.82,1.82,0,0,1,1.39-.58,1.76,1.76,0,0,1,1.36.57,2.26,2.26,0,0,1,.53,1.59v.19h-3.1a1.62,1.62,0,0,0,.39,1,1.15,1.15,0,0,0,.87.36,1.08,1.08,0,0,0,.66-.2A1.4,1.4,0,0,0,96,98Zm-2.31-1.14H96a1.36,1.36,0,0,0-.27-.78,1.07,1.07,0,0,0-.87-.41,1.1,1.1,0,0,0-.81.33A1.29,1.29,0,0,0,93.72,96.87Z"/><path class="cls-3" d="M97.36,98.11l.69-.11a1,1,0,0,0,.33.64,1.14,1.14,0,0,0,.75.22,1.13,1.13,0,0,0,.72-.19.63.63,0,0,0,.23-.47.42.42,0,0,0-.21-.37,2.68,2.68,0,0,0-.71-.24,6.07,6.07,0,0,1-1.08-.34,1,1,0,0,1-.45-.39,1.13,1.13,0,0,1,0-1.07,1.22,1.22,0,0,1,.35-.4,1.35,1.35,0,0,1,.45-.2,1.93,1.93,0,0,1,.6-.09,2.28,2.28,0,0,1,.86.15,1.15,1.15,0,0,1,.55.38,1.65,1.65,0,0,1,.24.64l-.69.09a.75.75,0,0,0-.27-.5,1,1,0,0,0-.64-.18,1.21,1.21,0,0,0-.69.16.46.46,0,0,0-.2.38.35.35,0,0,0,.08.24.62.62,0,0,0,.27.19l.62.18a6.83,6.83,0,0,1,1,.33,1.08,1.08,0,0,1,.47.37,1,1,0,0,1,.16.6,1.16,1.16,0,0,1-.2.66,1.34,1.34,0,0,1-.59.48,2.23,2.23,0,0,1-.88.17,1.9,1.9,0,0,1-1.23-.34A1.56,1.56,0,0,1,97.36,98.11Z"/><path class="cls-3" d="M103.17,98.72l.11.62a2.77,2.77,0,0,1-.53.06,1.22,1.22,0,0,1-.6-.12.71.71,0,0,1-.3-.32,2.81,2.81,0,0,1-.08-.83V95.75h-.52V95.2h.52v-1l.7-.42V95.2h.7v.55h-.7v2.42a1.55,1.55,0,0,0,0,.39.27.27,0,0,0,.13.13.38.38,0,0,0,.24.06Z"/><path class="cls-3" d="M103.87,94.43v-.81h.7v.81Zm0,4.92V95.2h.7v4.15Z"/><path class="cls-3" d="M105.38,97.27a2.11,2.11,0,0,1,.64-1.7,1.91,1.91,0,0,1,1.3-.47,1.85,1.85,0,0,1,1.4.57,2.11,2.11,0,0,1,.54,1.54,2.71,2.71,0,0,1-.24,1.26,1.71,1.71,0,0,1-.69.72,2,2,0,0,1-1,.25,1.88,1.88,0,0,1-1.41-.56A2.26,2.26,0,0,1,105.38,97.27Zm.72,0a1.81,1.81,0,0,0,.35,1.2,1.11,1.11,0,0,0,.87.39,1.09,1.09,0,0,0,.87-.4,1.75,1.75,0,0,0,.35-1.21,1.71,1.71,0,0,0-.35-1.17,1.17,1.17,0,0,0-1.74,0A1.76,1.76,0,0,0,106.1,97.27Zm.83-2.59.52-1.09h.92l-.86,1.09Z"/><path class="cls-3" d="M110.09,99.35V95.2h.63v.59A1.5,1.5,0,0,1,112,95.1a1.74,1.74,0,0,1,.69.14,1.1,1.1,0,0,1,.47.35,1.28,1.28,0,0,1,.22.52,3.67,3.67,0,0,1,0,.69v2.55h-.7V96.82a1.74,1.74,0,0,0-.09-.64.68.68,0,0,0-.29-.34,1,1,0,0,0-.49-.13,1.13,1.13,0,0,0-.77.29,1.39,1.39,0,0,0-.33,1.08v2.27Z"/><path class="cls-3" d="M119.47,98.84a2.58,2.58,0,0,1-.75.46,2.25,2.25,0,0,1-.78.14,1.5,1.5,0,0,1-1-.33,1.11,1.11,0,0,1-.37-.86,1.12,1.12,0,0,1,.14-.55,1.1,1.1,0,0,1,.36-.41,1.69,1.69,0,0,1,.51-.23,6,6,0,0,1,.63-.1,6.13,6.13,0,0,0,1.25-.25v-.18a.72.72,0,0,0-.2-.6,1.16,1.16,0,0,0-.8-.24,1.21,1.21,0,0,0-.73.17,1.08,1.08,0,0,0-.35.62l-.69-.1a1.86,1.86,0,0,1,.31-.71,1.42,1.42,0,0,1,.62-.42,2.73,2.73,0,0,1,.94-.15,2.57,2.57,0,0,1,.87.13,1.22,1.22,0,0,1,.49.31,1.17,1.17,0,0,1,.21.48,3.25,3.25,0,0,1,0,.65v.94a10.35,10.35,0,0,0,0,1.24,1.88,1.88,0,0,0,.18.5h-.73A1.59,1.59,0,0,1,119.47,98.84Zm-.06-1.58a4.75,4.75,0,0,1-1.15.27,2.64,2.64,0,0,0-.61.14.63.63,0,0,0-.28.23.56.56,0,0,0-.1.33.57.57,0,0,0,.22.47.87.87,0,0,0,.62.19,1.43,1.43,0,0,0,.72-.18,1.14,1.14,0,0,0,.47-.48,1.85,1.85,0,0,0,.11-.71Z"/><path class="cls-3" d="M121.21,99.35V95.2h.63v.58a1.44,1.44,0,0,1,.52-.49,1.48,1.48,0,0,1,.74-.19,1.33,1.33,0,0,1,.75.2,1,1,0,0,1,.42.53,1.5,1.5,0,0,1,1.28-.73,1.26,1.26,0,0,1,1,.35,1.45,1.45,0,0,1,.33,1v2.85h-.7V96.73a1.73,1.73,0,0,0-.07-.6.51.51,0,0,0-.24-.3.77.77,0,0,0-.43-.12,1,1,0,0,0-.72.3,1.24,1.24,0,0,0-.29.93v2.41h-.71v-2.7a1.13,1.13,0,0,0-.17-.7.63.63,0,0,0-.56-.24,1.07,1.07,0,0,0-.55.16.84.84,0,0,0-.36.46,2.42,2.42,0,0,0-.12.86v2.16Z"/><path class="cls-3" d="M128.52,99.35h-.65V93.62h.7v2a1.41,1.41,0,0,1,1.14-.56,1.76,1.76,0,0,1,.72.16,1.54,1.54,0,0,1,.57.43,2.17,2.17,0,0,1,.34.68,2.55,2.55,0,0,1,.13.84,2.39,2.39,0,0,1-.53,1.65,1.64,1.64,0,0,1-1.27.58,1.32,1.32,0,0,1-1.15-.61Zm0-2.11a2.09,2.09,0,0,0,.21,1.08,1,1,0,0,0,.9.54,1,1,0,0,0,.79-.4,1.76,1.76,0,0,0,.34-1.19,1.89,1.89,0,0,0-.32-1.2,1,1,0,0,0-.78-.39,1,1,0,0,0-.8.4A1.8,1.8,0,0,0,128.51,97.24Z"/><path class="cls-3" d="M132.33,94.43v-.81h.7v.81Zm0,4.92V95.2h.7v4.15Z"/><path class="cls-3" d="M136.94,98l.73.09a1.81,1.81,0,0,1-.64,1,2,2,0,0,1-1.19.35,1.91,1.91,0,0,1-1.44-.56,2.16,2.16,0,0,1-.53-1.57,2.31,2.31,0,0,1,.54-1.63,1.82,1.82,0,0,1,1.39-.58,1.76,1.76,0,0,1,1.36.57,2.26,2.26,0,0,1,.53,1.59v.19h-3.1a1.62,1.62,0,0,0,.39,1,1.15,1.15,0,0,0,.87.36,1.08,1.08,0,0,0,.66-.2A1.4,1.4,0,0,0,136.94,98Zm-2.31-1.14H137a1.36,1.36,0,0,0-.27-.78,1.07,1.07,0,0,0-.87-.41A1.1,1.1,0,0,0,135,96,1.29,1.29,0,0,0,134.63,96.87Z"/><path class="cls-3" d="M138.55,99.35V95.2h.63v.59a1.5,1.5,0,0,1,1.32-.69,1.74,1.74,0,0,1,.69.14,1.1,1.1,0,0,1,.47.35,1.28,1.28,0,0,1,.22.52,3.67,3.67,0,0,1,0,.69v2.55h-.7V96.82a2,2,0,0,0-.08-.64.75.75,0,0,0-.3-.34.94.94,0,0,0-.49-.13,1.13,1.13,0,0,0-.77.29,1.39,1.39,0,0,0-.33,1.08v2.27Z"/><path class="cls-3" d="M144.53,98.72l.11.62a2.78,2.78,0,0,1-.54.06,1.21,1.21,0,0,1-.59-.12.71.71,0,0,1-.3-.32,2.81,2.81,0,0,1-.08-.83V95.75h-.52V95.2h.52v-1l.7-.42V95.2h.7v.55h-.7v2.42a1.55,1.55,0,0,0,0,.39.27.27,0,0,0,.13.13.38.38,0,0,0,.24.06Z"/><path class="cls-3" d="M147.93,98.84a2.58,2.58,0,0,1-.75.46,2.21,2.21,0,0,1-.78.14,1.54,1.54,0,0,1-1.05-.33,1.14,1.14,0,0,1-.37-.86,1.17,1.17,0,0,1,.51-1,1.53,1.53,0,0,1,.5-.23,6,6,0,0,1,.63-.1,6.13,6.13,0,0,0,1.25-.25v-.18a.72.72,0,0,0-.2-.6,1.14,1.14,0,0,0-.8-.24,1.21,1.21,0,0,0-.73.17,1.08,1.08,0,0,0-.35.62l-.69-.1a1.86,1.86,0,0,1,.31-.71,1.42,1.42,0,0,1,.62-.42,2.75,2.75,0,0,1,.95-.15,2.55,2.55,0,0,1,.86.13,1.22,1.22,0,0,1,.49.31,1.33,1.33,0,0,1,.22.48,4.68,4.68,0,0,1,0,.65v.94a9.55,9.55,0,0,0,0,1.24,1.56,1.56,0,0,0,.17.5h-.73A1.59,1.59,0,0,1,147.93,98.84Zm-.06-1.58a4.63,4.63,0,0,1-1.15.27,2.64,2.64,0,0,0-.61.14.61.61,0,0,0-.38.56.57.57,0,0,0,.22.47.89.89,0,0,0,.62.19,1.43,1.43,0,0,0,.72-.18,1.14,1.14,0,0,0,.47-.48,1.85,1.85,0,0,0,.11-.71Z"/><path class="cls-3" d="M149.66,99.35V93.62h.7v5.73Z"/><path class="cls-3" d="M156.51,98l.73.09a1.81,1.81,0,0,1-.64,1,2,2,0,0,1-1.19.35,1.92,1.92,0,0,1-1.44-.56,2.16,2.16,0,0,1-.53-1.57,2.31,2.31,0,0,1,.54-1.63,1.82,1.82,0,0,1,1.39-.58,1.76,1.76,0,0,1,1.36.57,2.26,2.26,0,0,1,.53,1.59v.19h-3.1a1.62,1.62,0,0,0,.39,1,1.15,1.15,0,0,0,.87.36,1.08,1.08,0,0,0,.66-.2A1.4,1.4,0,0,0,156.51,98Zm-2.31-1.14h2.32a1.36,1.36,0,0,0-.27-.78,1.07,1.07,0,0,0-.87-.41,1.1,1.1,0,0,0-.81.33A1.29,1.29,0,0,0,154.2,96.87Z"/><path class="cls-3" d="M158.12,99.35V95.2h.63v.58a1.44,1.44,0,0,1,.52-.49,1.48,1.48,0,0,1,.74-.19,1.33,1.33,0,0,1,.75.2,1,1,0,0,1,.42.53,1.5,1.5,0,0,1,1.28-.73,1.26,1.26,0,0,1,.95.35,1.45,1.45,0,0,1,.33,1v2.85H163V96.73a1.73,1.73,0,0,0-.07-.6.51.51,0,0,0-.24-.3.77.77,0,0,0-.43-.12,1,1,0,0,0-.72.3,1.24,1.24,0,0,0-.29.93v2.41h-.71v-2.7a1.13,1.13,0,0,0-.17-.7.63.63,0,0,0-.56-.24,1.07,1.07,0,0,0-.55.16.84.84,0,0,0-.36.46,2.42,2.42,0,0,0-.12.86v2.16Z"/><path class="cls-3" d="M164.78,100.94V95.2h.64v.54a1.79,1.79,0,0,1,.52-.48,1.46,1.46,0,0,1,.69-.16,1.7,1.7,0,0,1,.94.28,1.68,1.68,0,0,1,.61.77,3,3,0,0,1,0,2.24,1.77,1.77,0,0,1-.67.78,1.69,1.69,0,0,1-.91.27,1.28,1.28,0,0,1-.63-.15,1.42,1.42,0,0,1-.46-.37v2Zm.64-3.64a1.79,1.79,0,0,0,.33,1.18,1,1,0,0,0,.78.38,1,1,0,0,0,.8-.39,1.86,1.86,0,0,0,.34-1.23,1.82,1.82,0,0,0-.33-1.19,1,1,0,0,0-1.57,0A1.87,1.87,0,0,0,165.42,97.3Z"/><path class="cls-3" d="M169.43,99.35v-.8h.8v.8Z"/><path class="cls-3" d="M26,10.36V9.27h2.8v2.57a3.6,3.6,0,0,1-1.18.69,4.16,4.16,0,0,1-1.58.31,3.56,3.56,0,0,1-1.76-.43,2.76,2.76,0,0,1-1.13-1.21,4,4,0,0,1-.37-1.72,3.75,3.75,0,0,1,.42-1.79,2.85,2.85,0,0,1,1.23-1.2A3.41,3.41,0,0,1,26,6.17a3.07,3.07,0,0,1,1.88.51,2.27,2.27,0,0,1,.87,1.39l-1.3.24A1.34,1.34,0,0,0,27,7.56,1.56,1.56,0,0,0,26,7.29a1.76,1.76,0,0,0-1.35.54,2.24,2.24,0,0,0-.5,1.6,2.52,2.52,0,0,0,.51,1.72,1.7,1.7,0,0,0,1.33.57,2.17,2.17,0,0,0,.82-.16,2.81,2.81,0,0,0,.71-.38v-.82Z"/><path class="cls-3" d="M32.73,11.24l1.23.21a2,2,0,0,1-.74,1,2.28,2.28,0,0,1-1.29.35,2.08,2.08,0,0,1-1.8-.79,2.74,2.74,0,0,1-.46-1.61,2.55,2.55,0,0,1,.61-1.82A2,2,0,0,1,31.81,8a2.09,2.09,0,0,1,1.65.69A3,3,0,0,1,34,10.75H30.94a1.2,1.2,0,0,0,.3.85.9.9,0,0,0,.71.31.76.76,0,0,0,.49-.16A1,1,0,0,0,32.73,11.24ZM32.8,10a1.16,1.16,0,0,0-.27-.81.84.84,0,0,0-.64-.28.87.87,0,0,0-.67.29A1.15,1.15,0,0,0,31,10Z"/><path class="cls-3" d="M34.6,11.39l1.24-.18a.87.87,0,0,0,.32.54,1.06,1.06,0,0,0,.68.19,1.19,1.19,0,0,0,.72-.18.38.38,0,0,0,.16-.33.32.32,0,0,0-.09-.23,1,1,0,0,0-.41-.16,6.58,6.58,0,0,1-1.89-.6,1.23,1.23,0,0,1-.56-1,1.28,1.28,0,0,1,.48-1A2.23,2.23,0,0,1,36.74,8a2.65,2.65,0,0,1,1.42.31,1.58,1.58,0,0,1,.64.93l-1.16.21A.69.69,0,0,0,37.35,9a1,1,0,0,0-.59-.15,1.34,1.34,0,0,0-.7.14.3.3,0,0,0-.14.25.26.26,0,0,0,.12.22,4.74,4.74,0,0,0,1.16.35,3.4,3.4,0,0,1,1.37.55,1.13,1.13,0,0,1,.39.92,1.41,1.41,0,0,1-.54,1.1,2.33,2.33,0,0,1-1.58.46,2.58,2.58,0,0,1-1.51-.39A1.77,1.77,0,0,1,34.6,11.39Z"/><path class="cls-3" d="M42.18,8.06V9h-.84v1.88a6.69,6.69,0,0,0,0,.67.36.36,0,0,0,.11.16.37.37,0,0,0,.21.06,1.58,1.58,0,0,0,.5-.12l.1,1a2.47,2.47,0,0,1-1,.18,1.57,1.57,0,0,1-.6-.11,1,1,0,0,1-.4-.29,1.18,1.18,0,0,1-.17-.48,5.57,5.57,0,0,1,0-.87V9h-.57v-1h.57V7.13l1.24-.72V8.06Z"/><path class="cls-3" d="M43,7.43V6.28h1.23V7.43Zm0,5.3V8.06h1.23v4.67Z"/><path class="cls-3" d="M45.25,10.33a2.54,2.54,0,0,1,.31-1.19,2,2,0,0,1,.86-.88A2.46,2.46,0,0,1,47.66,8a2.32,2.32,0,0,1,1.73.69,2.39,2.39,0,0,1,.68,1.74,2.44,2.44,0,0,1-.68,1.76,2.33,2.33,0,0,1-1.72.69,2.78,2.78,0,0,1-1.23-.29,2,2,0,0,1-.88-.85A2.85,2.85,0,0,1,45.25,10.33Zm1.27.06a1.56,1.56,0,0,0,.33,1.07,1.07,1.07,0,0,0,1.62,0,1.59,1.59,0,0,0,.33-1.08,1.54,1.54,0,0,0-.33-1.05,1.07,1.07,0,0,0-1.62,0A1.55,1.55,0,0,0,46.52,10.39Z"/><path class="cls-3" d="M55.28,12.73H54.05V10.34a3.7,3.7,0,0,0-.08-1A.67.67,0,0,0,53.71,9a.75.75,0,0,0-.43-.12,1,1,0,0,0-.57.17.9.9,0,0,0-.35.47,3.66,3.66,0,0,0-.1,1.07v2.12H51V8.06h1.15v.68A1.87,1.87,0,0,1,53.71,8a1.79,1.79,0,0,1,.75.15,1.14,1.14,0,0,1,.51.38,1.19,1.19,0,0,1,.24.52,3.54,3.54,0,0,1,.07.83Z"/><path class="cls-3" d="M57.46,9.48l-1.12-.2a1.71,1.71,0,0,1,.65-1A2.33,2.33,0,0,1,58.36,8a3,3,0,0,1,1.23.2,1.18,1.18,0,0,1,.57.5,2.52,2.52,0,0,1,.16,1.1v1.44a5,5,0,0,0,.06.91,2.8,2.8,0,0,0,.22.63H59.37l-.12-.37c0-.07,0-.12,0-.14a2.27,2.27,0,0,1-.68.46,2,2,0,0,1-.77.15,1.61,1.61,0,0,1-1.14-.39,1.32,1.32,0,0,1-.41-1,1.27,1.27,0,0,1,.19-.7,1.18,1.18,0,0,1,.53-.48,4.51,4.51,0,0,1,1-.29,6.29,6.29,0,0,0,1.2-.3V9.56a.63.63,0,0,0-.18-.51,1,1,0,0,0-.66-.15.84.84,0,0,0-.51.13A.81.81,0,0,0,57.46,9.48Zm1.65,1a5.62,5.62,0,0,1-.75.19,2.4,2.4,0,0,0-.67.22.52.52,0,0,0-.25.43.59.59,0,0,0,.2.45.66.66,0,0,0,.49.19,1.06,1.06,0,0,0,.64-.22.78.78,0,0,0,.29-.41,2.45,2.45,0,0,0,0-.6Z"/><path class="cls-3" d="M62.72,12.73H61.49V8.06h1.14v.66a2.2,2.2,0,0,1,.53-.62A1,1,0,0,1,63.7,8a1.52,1.52,0,0,1,.81.24l-.38,1.07a1.12,1.12,0,0,0-.58-.2.72.72,0,0,0-.44.14,1,1,0,0,0-.28.52,7.09,7.09,0,0,0-.11,1.56Z"/><path class="cls-3" d="M67.54,12.73V6.28h1.24v6.45Z"/><path class="cls-3" d="M71,9.48l-1.12-.2a1.71,1.71,0,0,1,.65-1A2.33,2.33,0,0,1,71.87,8a3,3,0,0,1,1.23.2,1.18,1.18,0,0,1,.57.5,2.52,2.52,0,0,1,.16,1.1v1.44a5,5,0,0,0,.06.91,2.8,2.8,0,0,0,.22.63H72.88l-.12-.37a1.19,1.19,0,0,1,0-.14,2.4,2.4,0,0,1-.68.46,2,2,0,0,1-.77.15,1.61,1.61,0,0,1-1.14-.39,1.32,1.32,0,0,1-.41-1,1.27,1.27,0,0,1,.19-.7,1.18,1.18,0,0,1,.53-.48,4.34,4.34,0,0,1,1-.29,6.29,6.29,0,0,0,1.2-.3V9.56a.63.63,0,0,0-.18-.51,1,1,0,0,0-.66-.15.84.84,0,0,0-.51.13A.81.81,0,0,0,71,9.48Zm1.65,1a5.62,5.62,0,0,1-.75.19,2.28,2.28,0,0,0-.67.22.5.5,0,0,0-.25.43.59.59,0,0,0,.2.45.66.66,0,0,0,.49.19,1.08,1.08,0,0,0,.64-.22.78.78,0,0,0,.29-.41,2.45,2.45,0,0,0,.05-.6Z"/><path class="cls-3" d="M77.11,11.39l1.24-.18a.92.92,0,0,0,.32.54,1.08,1.08,0,0,0,.68.19,1.19,1.19,0,0,0,.72-.18.38.38,0,0,0,.16-.33.31.31,0,0,0-.08-.23,1,1,0,0,0-.42-.16,6.82,6.82,0,0,1-1.89-.6,1.22,1.22,0,0,1-.55-1,1.3,1.3,0,0,1,.47-1A2.23,2.23,0,0,1,79.25,8a2.65,2.65,0,0,1,1.42.31,1.64,1.64,0,0,1,.65.93l-1.17.21A.68.68,0,0,0,79.87,9a1,1,0,0,0-.6-.15,1.36,1.36,0,0,0-.7.14.3.3,0,0,0-.14.25.25.25,0,0,0,.13.22,4.59,4.59,0,0,0,1.15.35,3.39,3.39,0,0,1,1.38.55,1.16,1.16,0,0,1,.38.92,1.44,1.44,0,0,1-.53,1.1,2.38,2.38,0,0,1-1.59.46,2.6,2.6,0,0,1-1.51-.39A1.77,1.77,0,0,1,77.11,11.39Z"/><path class="cls-3" d="M85.26,11.24l1.23.21a2.06,2.06,0,0,1-.75,1,2.24,2.24,0,0,1-1.28.35,2.08,2.08,0,0,1-1.8-.79,2.67,2.67,0,0,1-.47-1.61,2.6,2.6,0,0,1,.61-1.82A2,2,0,0,1,84.33,8,2.07,2.07,0,0,1,86,8.64a3,3,0,0,1,.57,2.11H83.46a1.25,1.25,0,0,0,.3.85.92.92,0,0,0,.71.31.74.74,0,0,0,.49-.16A1,1,0,0,0,85.26,11.24ZM85.33,10a1.16,1.16,0,0,0-.28-.81.84.84,0,0,0-.64-.28.88.88,0,0,0-.67.29,1.2,1.2,0,0,0-.26.8Z"/><path class="cls-3" d="M87.45,13l1.41.17a.44.44,0,0,0,.16.34.91.91,0,0,0,.55.14,1.4,1.4,0,0,0,.73-.15.55.55,0,0,0,.24-.31,1.78,1.78,0,0,0,.06-.57V12a1.68,1.68,0,0,1-1.4.76,1.74,1.74,0,0,1-1.49-.8,2.75,2.75,0,0,1-.43-1.56,2.58,2.58,0,0,1,.57-1.8A1.81,1.81,0,0,1,89.25,8a1.72,1.72,0,0,1,1.43.76V8.06h1.16v4.19a4.13,4.13,0,0,1-.14,1.23,1.54,1.54,0,0,1-.38.64,1.75,1.75,0,0,1-.66.37,3.38,3.38,0,0,1-1,.13,2.68,2.68,0,0,1-1.68-.41,1.27,1.27,0,0,1-.5-1A.86.86,0,0,1,87.45,13Zm1.1-2.73a1.62,1.62,0,0,0,.29,1.08.89.89,0,0,0,.71.35,1,1,0,0,0,.76-.36,1.5,1.5,0,0,0,.31-1,1.62,1.62,0,0,0-.3-1.08,1,1,0,0,0-.75-.35.9.9,0,0,0-.73.34A1.58,1.58,0,0,0,88.55,10.3Z"/><path class="cls-3" d="M96.13,12.73V12a1.83,1.83,0,0,1-.67.59,1.93,1.93,0,0,1-.88.21,1.69,1.69,0,0,1-.84-.21A1.17,1.17,0,0,1,93.2,12,2.56,2.56,0,0,1,93,11V8.06h1.24V10.2a6.78,6.78,0,0,0,.06,1.21.65.65,0,0,0,.25.35.76.76,0,0,0,.46.13,1,1,0,0,0,.57-.17.93.93,0,0,0,.34-.43A5.11,5.11,0,0,0,96,10v-2h1.24v4.67Z"/><path class="cls-3" d="M99.74,12.73H98.5V8.06h1.15v.66a2.05,2.05,0,0,1,.53-.62,1,1,0,0,1,.53-.15,1.56,1.56,0,0,1,.82.24l-.39,1.07a1.09,1.09,0,0,0-.58-.2.72.72,0,0,0-.44.14,1,1,0,0,0-.28.52,7.31,7.31,0,0,0-.1,1.56Z"/><path class="cls-3" d="M102.06,7.43V6.28h1.23V7.43Zm0,5.3V8.06h1.23v4.67Z"/><path class="cls-3" d="M108.84,12.73h-1.15V12a1.81,1.81,0,0,1-.67.6,1.73,1.73,0,0,1-.79.19,1.78,1.78,0,0,1-1.38-.65,2.64,2.64,0,0,1-.57-1.81,2.6,2.6,0,0,1,.56-1.8A1.82,1.82,0,0,1,106.25,8a1.75,1.75,0,0,1,1.35.65V6.28h1.24Zm-3.3-2.44a2.09,2.09,0,0,0,.21,1.08,1,1,0,0,0,.83.49.92.92,0,0,0,.73-.37,1.66,1.66,0,0,0,.3-1.08,1.86,1.86,0,0,0-.29-1.16.94.94,0,0,0-.74-.35.91.91,0,0,0-.74.35A1.56,1.56,0,0,0,105.54,10.29Z"/><path class="cls-3" d="M111,9.48l-1.12-.2a1.71,1.71,0,0,1,.65-1A2.35,2.35,0,0,1,111.88,8a3,3,0,0,1,1.23.2,1.18,1.18,0,0,1,.57.5,2.52,2.52,0,0,1,.16,1.1v1.44a5,5,0,0,0,.06.91,2.8,2.8,0,0,0,.22.63h-1.22l-.12-.37c0-.07,0-.12,0-.14a2.27,2.27,0,0,1-.68.46,2,2,0,0,1-.77.15,1.57,1.57,0,0,1-1.13-.39,1.29,1.29,0,0,1-.42-1,1.27,1.27,0,0,1,.19-.7,1.23,1.23,0,0,1,.53-.48,4.51,4.51,0,0,1,1-.29,6.29,6.29,0,0,0,1.2-.3V9.56a.66.66,0,0,0-.17-.51,1.08,1.08,0,0,0-.67-.15.84.84,0,0,0-.51.13A.81.81,0,0,0,111,9.48Zm1.65,1a5.62,5.62,0,0,1-.75.19,2.4,2.4,0,0,0-.67.22.51.51,0,0,0-.24.43.58.58,0,0,0,.19.45.66.66,0,0,0,.49.19,1.06,1.06,0,0,0,.64-.22.73.73,0,0,0,.29-.41,2,2,0,0,0,0-.6Z"/><path class="cls-3" d="M119.34,12.73h-1.15V12a1.81,1.81,0,0,1-.67.6,1.72,1.72,0,0,1-.78.19,1.75,1.75,0,0,1-1.38-.65,2.64,2.64,0,0,1-.58-1.81,2.6,2.6,0,0,1,.56-1.8A1.82,1.82,0,0,1,116.75,8a1.77,1.77,0,0,1,1.36.65V6.28h1.23Zm-3.29-2.44a2.11,2.11,0,0,0,.2,1.08,1,1,0,0,0,.84.49.92.92,0,0,0,.72-.37,1.66,1.66,0,0,0,.3-1.08,1.86,1.86,0,0,0-.29-1.16,1,1,0,0,0-1.48,0A1.56,1.56,0,0,0,116.05,10.29Z"/><path class="cls-3" d="M46.25,20.33a2.43,2.43,0,0,1,.31-1.19,2,2,0,0,1,.85-.88A2.52,2.52,0,0,1,48.66,18a2.32,2.32,0,0,1,1.73.69,2.58,2.58,0,0,1,0,3.5,2.3,2.3,0,0,1-1.72.69,2.77,2.77,0,0,1-1.22-.29,2,2,0,0,1-.88-.85A2.73,2.73,0,0,1,46.25,20.33Zm1.27.06a1.56,1.56,0,0,0,.33,1.07,1.07,1.07,0,0,0,1.62,0,1.59,1.59,0,0,0,.33-1.08,1.54,1.54,0,0,0-.33-1.05,1.07,1.07,0,0,0-1.62,0A1.55,1.55,0,0,0,47.52,20.39Z"/><path class="cls-3" d="M52,18.06h1.15v.68a1.76,1.76,0,0,1,.61-.57,1.73,1.73,0,0,1,.85-.22,1.8,1.8,0,0,1,1.38.64,2.64,2.64,0,0,1,.56,1.78A2.64,2.64,0,0,1,56,22.18a1.75,1.75,0,0,1-1.38.65,1.6,1.6,0,0,1-.7-.15,2.29,2.29,0,0,1-.66-.53V24.5H52Zm1.22,2.25a1.88,1.88,0,0,0,.31,1.17,1,1,0,0,0,.76.37.89.89,0,0,0,.72-.34,1.79,1.79,0,0,0,.29-1.14,1.69,1.69,0,0,0-.3-1.09.92.92,0,0,0-.73-.35,1,1,0,0,0-.75.35A1.54,1.54,0,0,0,53.22,20.31Z"/><path class="cls-3" d="M60.24,21.24l1.23.21a2.06,2.06,0,0,1-.75,1,2.27,2.27,0,0,1-1.28.35A2.09,2.09,0,0,1,57.63,22a2.74,2.74,0,0,1-.46-1.61,2.55,2.55,0,0,1,.61-1.82A2,2,0,0,1,59.31,18a2.09,2.09,0,0,1,1.65.69,3,3,0,0,1,.57,2.11H58.44a1.25,1.25,0,0,0,.3.85.9.9,0,0,0,.71.31.76.76,0,0,0,.49-.16A1,1,0,0,0,60.24,21.24ZM60.31,20a1.16,1.16,0,0,0-.28-.81.84.84,0,0,0-.64-.28.88.88,0,0,0-.67.29,1.15,1.15,0,0,0-.26.8Z"/><path class="cls-3" d="M63.72,22.73H62.49V18.06h1.14v.66a2.05,2.05,0,0,1,.53-.62A1,1,0,0,1,64.7,18a1.52,1.52,0,0,1,.81.24l-.38,1.07a1.12,1.12,0,0,0-.58-.2.7.7,0,0,0-.44.14,1,1,0,0,0-.29.52,7.31,7.31,0,0,0-.1,1.56Z"/><path class="cls-3" d="M67,19.48l-1.12-.2a1.81,1.81,0,0,1,.65-1A2.37,2.37,0,0,1,67.86,18a2.92,2.92,0,0,1,1.23.2,1.18,1.18,0,0,1,.57.5,2.48,2.48,0,0,1,.17,1.1v1.44a5.23,5.23,0,0,0,.05.91,2.88,2.88,0,0,0,.23.63H68.87c0-.09-.07-.21-.11-.37a.93.93,0,0,0-.05-.14,2.23,2.23,0,0,1-.67.46,2,2,0,0,1-.77.15,1.61,1.61,0,0,1-1.14-.39,1.28,1.28,0,0,1-.41-1,1.35,1.35,0,0,1,.18-.7,1.29,1.29,0,0,1,.53-.48,4.63,4.63,0,0,1,1-.29,6.74,6.74,0,0,0,1.2-.3v-.12a.63.63,0,0,0-.18-.51,1.07,1.07,0,0,0-.66-.15.89.89,0,0,0-.52.13A.93.93,0,0,0,67,19.48Zm1.66,1a5.45,5.45,0,0,1-.76.19,2.53,2.53,0,0,0-.67.22.51.51,0,0,0-.24.43.58.58,0,0,0,.19.45.68.68,0,0,0,.5.19,1,1,0,0,0,.63-.22.8.8,0,0,0,.3-.41,2.45,2.45,0,0,0,.05-.6Z"/><path class="cls-3" d="M75.12,19.44l-1.22.22a.91.91,0,0,0-.28-.55.86.86,0,0,0-.57-.18.92.92,0,0,0-.73.31A1.61,1.61,0,0,0,72,20.31a1.93,1.93,0,0,0,.28,1.17.93.93,0,0,0,.75.35.85.85,0,0,0,.58-.2,1.23,1.23,0,0,0,.31-.69l1.22.2a2.2,2.2,0,0,1-.73,1.27,2.26,2.26,0,0,1-1.44.42,2.11,2.11,0,0,1-1.63-.65,2.49,2.49,0,0,1-.61-1.78,2.55,2.55,0,0,1,.61-1.8A2.18,2.18,0,0,1,73,18a2.25,2.25,0,0,1,1.35.37A2,2,0,0,1,75.12,19.44Z"/><path class="cls-3" d="M76.05,17.43V16.28h1.24v1.15Zm0,5.3V18.06h1.24v4.67Z"/><path class="cls-3" d="M78.27,20.33a2.53,2.53,0,0,1,.3-1.19,2,2,0,0,1,.86-.88A2.46,2.46,0,0,1,80.67,18a2.33,2.33,0,0,1,1.74.69,2.38,2.38,0,0,1,.67,1.74,2.44,2.44,0,0,1-.68,1.76,2.33,2.33,0,0,1-1.72.69,2.71,2.71,0,0,1-1.22-.29,2,2,0,0,1-.89-.85A2.85,2.85,0,0,1,78.27,20.33Zm1.26.06a1.56,1.56,0,0,0,.33,1.07,1.08,1.08,0,0,0,1.63,0,1.64,1.64,0,0,0,.32-1.08,1.59,1.59,0,0,0-.32-1.05,1.08,1.08,0,0,0-1.63,0A1.55,1.55,0,0,0,79.53,20.39Z"/><path class="cls-3" d="M88.29,22.73H87.06V20.34a3.7,3.7,0,0,0-.08-1,.67.67,0,0,0-.26-.35.75.75,0,0,0-.43-.12,1,1,0,0,0-.57.17.9.9,0,0,0-.35.47,4.19,4.19,0,0,0-.09,1.07v2.12H84V18.06h1.15v.68A1.88,1.88,0,0,1,86.73,18a1.78,1.78,0,0,1,.74.15,1.14,1.14,0,0,1,.51.38,1.32,1.32,0,0,1,.25.52,4.34,4.34,0,0,1,.06.83Z"/><path class="cls-3" d="M90.47,19.48l-1.12-.2a1.76,1.76,0,0,1,.65-1A2.35,2.35,0,0,1,91.37,18a3,3,0,0,1,1.23.2,1.18,1.18,0,0,1,.57.5,2.52,2.52,0,0,1,.16,1.1v1.44a5,5,0,0,0,.06.91,3.41,3.41,0,0,0,.22.63H92.38l-.12-.37c0-.07,0-.12,0-.14a2.27,2.27,0,0,1-.68.46,2,2,0,0,1-.77.15,1.57,1.57,0,0,1-1.13-.39,1.29,1.29,0,0,1-.42-1,1.36,1.36,0,0,1,.19-.7,1.23,1.23,0,0,1,.53-.48,4.7,4.7,0,0,1,1-.29,6.29,6.29,0,0,0,1.2-.3v-.12a.66.66,0,0,0-.17-.51,1.08,1.08,0,0,0-.67-.15.84.84,0,0,0-.51.13A.93.93,0,0,0,90.47,19.48Zm1.65,1a5.62,5.62,0,0,1-.75.19,2.4,2.4,0,0,0-.67.22.51.51,0,0,0-.24.43.58.58,0,0,0,.19.45.66.66,0,0,0,.49.19,1,1,0,0,0,.64-.22.73.73,0,0,0,.29-.41,2,2,0,0,0,.05-.6Z"/><path class="cls-3" d="M94.55,22.73V16.28h1.24v6.45Z"/><rect class="cls-4" x="13.96" y="4.79" width="0.85" height="19.3" rx="0.42"/><rect class="cls-4" x="127.83" y="4.79" width="0.85" height="19.3" rx="0.42"/><circle class="cls-5" cx="182.34" cy="71.17" r="6.39"/><path class="cls-4" d="M181.76,74.1V69.34h-1.7v-1h4.56v1h-1.7V74.1Z"/><circle class="cls-6" cx="182.34" cy="95.19" r="6.39"/><path class="cls-7" d="M185.34,98.13h-1.26l-.5-1.3H181.3l-.48,1.3H179.6l2.23-5.73h1.22Zm-2.13-2.27-.79-2.12-.77,2.12Z"/><circle class="cls-6" cx="182.34" cy="47.14" r="6.39"/><path class="cls-7" d="M185.34,50.07h-1.26l-.5-1.3H181.3l-.48,1.3H179.6l2.23-5.73h1.22Zm-2.13-2.27-.79-2.12-.77,2.12Z"/></g></g></svg>