<svg xmlns="http://www.w3.org/2000/svg" viewBox="0 0 37.3 72.2"><defs><style>.cls-1{fill:#f4eaae;}.cls-2{fill:#28203a;}</style></defs><g id="Capa_2" data-name="Capa 2"><g id="Capa_1-2" data-name="Capa 1"><rect class="cls-1" width="37.3" height="72.2"/><path class="cls-2" d="M16.48,60h-.93V56.64h2.92a5.7,5.7,0,0,1,.92,1.58,4.67,4.67,0,0,1,.31,1.68A4.53,4.53,0,0,1,19.2,62a3.29,3.29,0,0,1-1.43,1.43,4.57,4.57,0,0,1-2.1.48,4.9,4.9,0,0,1-2.15-.48A3.21,3.21,0,0,1,12,62.06,4.37,4.37,0,0,1,11.56,60a4.27,4.27,0,0,1,.27-1.55,2.68,2.68,0,0,1,.77-1.08,3.42,3.42,0,0,1,1.29-.59l.26.94a2.65,2.65,0,0,0-.94.44,1.67,1.67,0,0,0-.55.75A2.7,2.7,0,0,0,12.45,60a3.12,3.12,0,0,0,.22,1.24,2.16,2.16,0,0,0,.57.84,2.8,2.8,0,0,0,.78.5,4.08,4.08,0,0,0,1.58.3,3.73,3.73,0,0,0,1.76-.37,2.3,2.3,0,0,0,1.06-1A3.24,3.24,0,0,0,18.76,60a3.57,3.57,0,0,0-.26-1.32,3.25,3.25,0,0,0-.56-1H16.48Z"/><path class="cls-2" d="M17.73,51.32l.12-1a2.41,2.41,0,0,1,1.36.88,2.63,2.63,0,0,1,.48,1.63,2.59,2.59,0,0,1-.77,2,3,3,0,0,1-2.16.73,3.16,3.16,0,0,1-2.23-.74,2.53,2.53,0,0,1-.8-1.93A2.45,2.45,0,0,1,14.51,51a3.11,3.11,0,0,1,2.19-.72H17v4.26A2.19,2.19,0,0,0,18.4,54a1.6,1.6,0,0,0,.5-1.19,1.45,1.45,0,0,0-.28-.91A1.84,1.84,0,0,0,17.73,51.32ZM16.17,54.5V51.31a1.84,1.84,0,0,0-1.08.37,1.44,1.44,0,0,0-.56,1.19A1.55,1.55,0,0,0,15,54,1.79,1.79,0,0,0,16.17,54.5Z"/><path class="cls-2" d="M19.57,49.11H13.86v-.87h.81a2.08,2.08,0,0,1-.94-1.82,2.3,2.3,0,0,1,.19-1,1.46,1.46,0,0,1,.48-.64,1.67,1.67,0,0,1,.72-.3,5,5,0,0,1,.94-.06h3.51v1H16.1a2.8,2.8,0,0,0-.89.11.94.94,0,0,0-.46.4,1.25,1.25,0,0,0-.18.68A1.56,1.56,0,0,0,15,47.69a1.93,1.93,0,0,0,1.49.45h3.12Z"/><path class="cls-2" d="M17.73,39.09l.12-1a2.4,2.4,0,0,1,1.36.87,2.65,2.65,0,0,1,.48,1.63,2.59,2.59,0,0,1-.77,2,3,3,0,0,1-2.16.73,3.11,3.11,0,0,1-2.23-.74,2.5,2.5,0,0,1-.8-1.92,2.44,2.44,0,0,1,.78-1.87,3.11,3.11,0,0,1,2.19-.73H17v4.25a2.14,2.14,0,0,0,1.44-.53,1.58,1.58,0,0,0,.5-1.19,1.47,1.47,0,0,0-.28-.91A1.76,1.76,0,0,0,17.73,39.09Zm-1.56,3.17V39.08a1.92,1.92,0,0,0-1.08.36,1.47,1.47,0,0,0-.56,1.2A1.56,1.56,0,0,0,15,41.76,1.78,1.78,0,0,0,16.17,42.26Z"/><path class="cls-2" d="M19.57,36.88H13.86V36h.87a2.27,2.27,0,0,1-.8-.61,1.09,1.09,0,0,1-.2-.62,2,2,0,0,1,.31-1l.9.34a1.36,1.36,0,0,0-.21.71,1,1,0,0,0,.19.57,1.19,1.19,0,0,0,.53.36,4.06,4.06,0,0,0,1.13.16h3Z"/><path class="cls-2" d="M18.86,29.49a3.64,3.64,0,0,1,.65,1,3.12,3.12,0,0,1,.18,1.07A2.09,2.09,0,0,1,19.24,33a1.52,1.52,0,0,1-1.18.51,1.61,1.61,0,0,1-.76-.19,1.7,1.7,0,0,1-.56-.5,2.63,2.63,0,0,1-.32-.7,7.65,7.65,0,0,1-.14-.86A9.33,9.33,0,0,0,16,29.57h-.26a1,1,0,0,0-.83.28,1.59,1.59,0,0,0-.33,1.1,1.67,1.67,0,0,0,.24,1,1.48,1.48,0,0,0,.85.49l-.13.94a2.33,2.33,0,0,1-1-.42,2,2,0,0,1-.58-.86,3.88,3.88,0,0,1-.2-1.29,3.57,3.57,0,0,1,.17-1.19,1.37,1.37,0,0,1,1.1-1,5.58,5.58,0,0,1,.89-.05h1.29a14.1,14.1,0,0,0,1.7-.06,2,2,0,0,0,.69-.25v1A2.11,2.11,0,0,1,18.86,29.49Zm-2.16.08a6.7,6.7,0,0,1,.37,1.58,4,4,0,0,0,.19.84.86.86,0,0,0,.78.52.81.81,0,0,0,.64-.3,1.25,1.25,0,0,0,.26-.85,1.93,1.93,0,0,0-.25-1,1.48,1.48,0,0,0-.67-.64,2.37,2.37,0,0,0-1-.15Z"/><path class="cls-2" d="M17.48,23.37l.12-.95a2.43,2.43,0,0,1,1.54.8,2.3,2.3,0,0,1,.55,1.57,2.47,2.47,0,0,1-.76,1.89,3.12,3.12,0,0,1-2.19.71,3.87,3.87,0,0,1-1.62-.31,2.1,2.1,0,0,1-1-.93,2.78,2.78,0,0,1-.35-1.36,2.38,2.38,0,0,1,.47-1.52,2.15,2.15,0,0,1,1.34-.76l.14.94a1.54,1.54,0,0,0-.86.48,1.18,1.18,0,0,0-.29.82,1.5,1.5,0,0,0,.52,1.19,2.51,2.51,0,0,0,1.66.45A2.53,2.53,0,0,0,18.38,26a1.41,1.41,0,0,0,.52-1.15,1.38,1.38,0,0,0-.35-.95A1.75,1.75,0,0,0,17.48,23.37Z"/><path class="cls-2" d="M12.8,21.59H11.69v-1H12.8Zm6.77,0H13.86v-1h5.71Z"/><path class="cls-2" d="M13.15,17.37l-1.5-.71V15.39l1.5,1.18Zm3.56,2.14a3,3,0,0,1-2.34-.88,2.63,2.63,0,0,1-.64-1.8,2.58,2.58,0,0,1,.77-1.92,2.94,2.94,0,0,1,2.13-.75,3.82,3.82,0,0,1,1.74.33,2.41,2.41,0,0,1,1,1,2.81,2.81,0,0,1,.34,1.37,2.57,2.57,0,0,1-.76,1.94A3.1,3.1,0,0,1,16.71,19.51Zm0-1A2.41,2.41,0,0,0,18.35,18a1.52,1.52,0,0,0,.55-1.21,1.48,1.48,0,0,0-.55-1.19,2.47,2.47,0,0,0-1.67-.48,2.35,2.35,0,0,0-1.6.48,1.54,1.54,0,0,0-.55,1.19A1.52,1.52,0,0,0,15.08,18,2.39,2.39,0,0,0,16.71,18.51Z"/><path class="cls-2" d="M19.57,13H13.86v-.87h.81a2.06,2.06,0,0,1-.94-1.82,2.26,2.26,0,0,1,.19-.94,1.44,1.44,0,0,1,.48-.65,2,2,0,0,1,.72-.3,5.21,5.21,0,0,1,.94,0h3.51v1H16.1a2.8,2.8,0,0,0-.89.11.94.94,0,0,0-.46.4,1.28,1.28,0,0,0-.18.68A1.59,1.59,0,0,0,15,11.62a2,2,0,0,0,1.49.44h3.12Z"/><path class="cls-2" d="M30.07,51.21h-.72a1.8,1.8,0,0,1,.84,1.6,2.23,2.23,0,0,1-.37,1.25,2.49,2.49,0,0,1-1.05.89,3.64,3.64,0,0,1-1.55.31A4,4,0,0,1,25.67,55a2.24,2.24,0,0,1-1.44-2.13A1.88,1.88,0,0,1,25,51.28H22.19v-1h7.88Zm-2.85,3.06a2.47,2.47,0,0,0,1.64-.46,1.4,1.4,0,0,0,.54-1.09,1.36,1.36,0,0,0-.52-1.08,2.4,2.4,0,0,0-1.58-.44,2.7,2.7,0,0,0-1.72.45A1.4,1.4,0,0,0,25,52.76a1.35,1.35,0,0,0,.53,1.08A2.58,2.58,0,0,0,27.22,54.27Z"/><path class="cls-2" d="M28.23,44.89l.12-1a2.41,2.41,0,0,1,1.36.88,2.63,2.63,0,0,1,.48,1.63,2.59,2.59,0,0,1-.77,2,3,3,0,0,1-2.16.73A3.16,3.16,0,0,1,25,48.38a2.53,2.53,0,0,1-.8-1.92A2.42,2.42,0,0,1,25,44.59a3.07,3.07,0,0,1,2.19-.73h.26v4.25a2.19,2.19,0,0,0,1.44-.53,1.6,1.6,0,0,0,.5-1.19,1.45,1.45,0,0,0-.28-.91A1.84,1.84,0,0,0,28.23,44.89Zm-1.56,3.18V44.88a1.91,1.91,0,0,0-1.08.37A1.44,1.44,0,0,0,25,46.44a1.55,1.55,0,0,0,.44,1.12A1.79,1.79,0,0,0,26.67,48.07Z"/><path class="cls-2" d="M30.07,38l-5.71,2.17v-1L27.78,38c.37-.13.75-.25,1.15-.36l-1.09-.36L24.36,36V35l5.71,2.16Z"/><path class="cls-2" d="M29.36,30.4a3.64,3.64,0,0,1,.65,1,3.16,3.16,0,0,1,.18,1.07A2.12,2.12,0,0,1,29.74,34a1.55,1.55,0,0,1-1.18.5,1.51,1.51,0,0,1-.76-.19,1.59,1.59,0,0,1-.56-.5,2.63,2.63,0,0,1-.32-.7,7.8,7.8,0,0,1-.14-.85,9.29,9.29,0,0,0-.33-1.73h-.26a1.07,1.07,0,0,0-.83.27,1.61,1.61,0,0,0-.33,1.1,1.71,1.71,0,0,0,.24,1,1.53,1.53,0,0,0,.85.48l-.13.94a2.21,2.21,0,0,1-1-.42,1.92,1.92,0,0,1-.58-.85,4,4,0,0,1-.2-1.3,3.57,3.57,0,0,1,.17-1.19,1.63,1.63,0,0,1,.44-.67,1.55,1.55,0,0,1,.66-.3,5.58,5.58,0,0,1,.89-.05h1.29a14.1,14.1,0,0,0,1.7-.06,2.18,2.18,0,0,0,.69-.24v1A2.11,2.11,0,0,1,29.36,30.4Zm-2.16.08a6.7,6.7,0,0,1,.37,1.58,3.79,3.79,0,0,0,.19.84.83.83,0,0,0,.32.39.88.88,0,0,0,.46.13.84.84,0,0,0,.64-.29,1.28,1.28,0,0,0,.26-.86,1.92,1.92,0,0,0-.25-1,1.43,1.43,0,0,0-.67-.64,2.19,2.19,0,0,0-1-.16Z"/><path class="cls-2" d="M30.07,28H22.19v-1h7.88Z"/><path class="cls-2" d="M27.21,25.92A2.93,2.93,0,0,1,24.87,25a2.62,2.62,0,0,1-.64-1.79A2.58,2.58,0,0,1,25,21.32a3,3,0,0,1,2.13-.74,3.82,3.82,0,0,1,1.74.33,2.38,2.38,0,0,1,1,1,2.82,2.82,0,0,1,.34,1.38,2.56,2.56,0,0,1-.76,1.93A3.1,3.1,0,0,1,27.21,25.92Zm0-1a2.41,2.41,0,0,0,1.64-.48,1.58,1.58,0,0,0,0-2.4,2.47,2.47,0,0,0-1.67-.48,2.35,2.35,0,0,0-1.6.48,1.55,1.55,0,0,0-.55,1.2,1.52,1.52,0,0,0,.55,1.2A2.39,2.39,0,0,0,27.21,24.93Z"/><path class="cls-2" d="M30.07,19.45H24.36v-.87h.87a2.27,2.27,0,0,1-.8-.61,1.09,1.09,0,0,1-.2-.62,1.91,1.91,0,0,1,.31-1l.9.33a1.36,1.36,0,0,0-.21.71,1,1,0,0,0,.19.57,1.19,1.19,0,0,0,.53.36,4.06,4.06,0,0,0,1.13.16h3Z"/></g></g></svg>