<svg xmlns="http://www.w3.org/2000/svg" viewBox="0 0 143.91 105.95"><defs><style>.cls-1{opacity:0.3;}.cls-2{fill:#fff;}.cls-3{fill:#a4a6a9;}.cls-4{fill:#221f20;}</style></defs><g id="Capa_2" data-name="Capa 2"><g id="Capa_1-2" data-name="Capa 1"><path class="cls-1" d="M140.69,16.59c-6.28-11.14-20.94-7.21-32.14-7.23-2,0-4.06-.13-6.16-.24C87.73,8.39,71.22,6.61,57.62,7.91a61.22,61.22,0,0,0-9.16,1.51c-27,10.74-17.41,34.34-15.86,54.5C28.55,69.76,20.73,77,6.34,78.74c0,0,14.47,1.35,25.67,5.59.5,7.5,3.07,14.44,12.72,19.22a26.43,26.43,0,0,0,7.71,1c2.85.12,5.63.12,8.37.07s5.45-.16,8.16-.28c8-.78,16-.4,24.08,0l6,.32c13.27-.4,31.26,6.27,38.59-7.82C147,79.85,141,59.09,143.2,40.1c.23-2.1.45-4.17.58-6.22C144.18,27.73,143.83,21.83,140.69,16.59Z"/><path class="cls-2" d="M136.48,10c-6.28-11.14-20.94-7.2-32.14-7.23-2,0-4.06-.13-6.15-.23C83.52,1.83,67,.05,53.41,1.35a62.76,62.76,0,0,0-9.16,1.51c-23.71,9.43-19.21,28.77-16.7,47A15.62,15.62,0,0,1,22.4,63.92c-4.56,3.81-11.07,7.17-20.27,8.26A127.73,127.73,0,0,1,22.42,76a9,9,0,0,1,6.09,6.7c1.3,5.57,4.52,10.58,12,14.3a26.37,26.37,0,0,0,7.7,1c2.85.12,5.63.13,8.38.07s5.44-.16,8.15-.28c8-.77,16-.4,24.08,0,2,.11,4,.23,6,.32,13.26-.4,31.25,6.27,38.58-7.82,9.33-17,3.33-37.8,5.55-56.8.22-2.09.44-4.17.57-6.22C140,21.17,139.62,15.28,136.48,10Z"/><path class="cls-3" d="M27.18,56.15A16,16,0,0,0,30,44.53C28.6,34,26.51,23.18,29.51,14.05c-6.38,10-3.7,23.18-2,35.8A16.42,16.42,0,0,1,27.18,56.15Z"/><path class="cls-3" d="M97.36,92.85l-6-.32c-8-.44-16.1-.81-24.08,0-2.71.12-5.41.23-8.16.29s-5.52,0-8.37-.08a26.39,26.39,0,0,1-7.71-1C35.53,88,32.3,83,31,77.38a8.94,8.94,0,0,0-6.08-6.7c-3.28-.94-6.59-1.67-9.57-2.23A41.42,41.42,0,0,1,2.13,72.18,127.73,127.73,0,0,1,22.42,76a9,9,0,0,1,6.09,6.7c1.3,5.57,4.52,10.58,12,14.3a26.37,26.37,0,0,0,7.7,1c2.85.12,5.63.13,8.38.07s5.44-.16,8.15-.28c8-.77,16-.4,24.08,0,2,.11,4,.23,6,.32,13.26-.4,31.25,6.27,38.58-7.82a38.33,38.33,0,0,0,2.21-4.8C128.16,98.93,110.46,92.44,97.36,92.85Z"/><path class="cls-4" d="M115.54,100.29c-3.29,0-6.7-.33-10.09-.65a87.88,87.88,0,0,0-10.56-.59l-4.8-.25-1.29-.07c-8.56-.46-16.27-.78-24,0-2.63.12-5.39.24-8.21.29-3.06.06-5.81,0-8.42-.07a27.57,27.57,0,0,1-7.88-1.06l-.12,0c-6.93-3.44-10.9-8.17-12.47-14.89a7.82,7.82,0,0,0-5.67-5.71C12.28,74.41.1,71.63,0,71.62l3.66-.54a32,32,0,0,0,18.27-7.87A14.64,14.64,0,0,0,26.76,50c-.16-1.17-.33-2.35-.5-3.52C23.76,29.08,21.17,11.1,44,2l.09,0A61.79,61.79,0,0,1,53.34.47c10.37-1,22.38-.21,34,.55,3.61.24,7.34.48,10.88.66,2.27.11,4.28.19,6.14.24,2.24,0,4.62-.15,7.13-.32,9.57-.63,20.41-1.34,25.66,8,3.48,5.82,3.58,12.28,3.22,17.83-.14,2-.35,4.13-.58,6.26-.77,6.57-.54,13.48-.32,20.17.42,12.62.86,25.67-5.34,37C130.12,98.52,123.2,100.29,115.54,100.29Zm-19.39-3c3,0,6.12.3,9.44.61,10.79,1,21.94,2.09,27.17-8,6-10.89,5.55-23.1,5.12-36-.22-6.75-.46-13.74.33-20.45.22-2.1.44-4.16.57-6.16.34-5.26.26-11.36-3-16.73v0c-4.75-8.42-14.65-7.77-24.23-7.14-2.53.17-4.93.32-7.24.32-1.89,0-3.91-.12-6.19-.24-3.55-.18-7.29-.42-10.9-.66C75.69,2,63.73,1.25,53.48,2.23a62.74,62.74,0,0,0-9,1.48C23,12.3,25.33,28.76,27.83,46.19c.17,1.18.34,2.35.5,3.53a16.52,16.52,0,0,1-5.45,14.91,36.67,36.67,0,0,1-15,7.4,121.87,121.87,0,0,1,14.7,3.11,9.81,9.81,0,0,1,6.66,7.34C30.71,88.61,34.37,93,40.79,96.16a25.8,25.8,0,0,0,7.43,1c2.62.11,5.34.14,8.37.08,2.81-.06,5.56-.17,8.14-.29,7.76-.75,15.53-.43,24.15,0l1.29.07,4.73.25Z"/><path d="M45,18.76a.17.17,0,0,1,0,.1.23.23,0,0,1-.11.07.87.87,0,0,1-.21,0l-.32,0L44,19l-.2,0a.23.23,0,0,1-.11-.07.17.17,0,0,1,0-.1V13.11h0l-2,5.65a.2.2,0,0,1-.06.11.47.47,0,0,1-.14.08,1,1,0,0,1-.21,0h-.62a.81.81,0,0,1-.21-.05.46.46,0,0,1-.14-.07.21.21,0,0,1-.06-.1l-1.94-5.65h0v5.65a.17.17,0,0,1,0,.1.23.23,0,0,1-.11.07l-.21,0-.33,0-.32,0a.88.88,0,0,1-.2,0,.19.19,0,0,1-.11-.07.17.17,0,0,1,0-.1V12.57a.61.61,0,0,1,.14-.42.56.56,0,0,1,.39-.14h.92a1.8,1.8,0,0,1,.43,0,.69.69,0,0,1,.3.13.76.76,0,0,1,.22.25,1.5,1.5,0,0,1,.15.38L41,17h0l1.56-4.13a2,2,0,0,1,.16-.38.72.72,0,0,1,.19-.25.51.51,0,0,1,.26-.14,1.25,1.25,0,0,1,.35,0h.95a.9.9,0,0,1,.25,0,.56.56,0,0,1,.17.11.4.4,0,0,1,.1.18.61.61,0,0,1,0,.24Z"/><path d="M51,18.78a.16.16,0,0,1,0,.09.2.2,0,0,1-.1.07l-.17,0h-.57l-.17,0a.22.22,0,0,1-.09-.07.16.16,0,0,1,0-.09v-.56a3,3,0,0,1-.81.65,1.81,1.81,0,0,1-.85.21,1.86,1.86,0,0,1-.83-.16,1.46,1.46,0,0,1-.54-.44,1.76,1.76,0,0,1-.3-.65,3.94,3.94,0,0,1-.08-.91V14a.29.29,0,0,1,0-.09.23.23,0,0,1,.11-.07.87.87,0,0,1,.21,0h.65a.87.87,0,0,1,.21,0,.23.23,0,0,1,.11.07.16.16,0,0,1,0,.09v2.71a2.82,2.82,0,0,0,0,.58,1,1,0,0,0,.15.34.75.75,0,0,0,.25.22.8.8,0,0,0,.36.07.93.93,0,0,0,.52-.18,3.16,3.16,0,0,0,.55-.55V14a.16.16,0,0,1,0-.09.23.23,0,0,1,.11-.07.87.87,0,0,1,.21,0h.65a.87.87,0,0,1,.21,0,.2.2,0,0,1,.1.07A.18.18,0,0,1,51,14Z"/><path d="M55.14,19l-.58,1.69a.35.35,0,0,1-.26.2,2.51,2.51,0,0,1-.63.06l-.34,0a.47.47,0,0,1-.2-.06.19.19,0,0,1-.07-.11.37.37,0,0,1,0-.16l.64-1.6a.41.41,0,0,1-.13-.1.34.34,0,0,1-.08-.14l-1.65-4.41a.79.79,0,0,1-.07-.29.2.2,0,0,1,.06-.15.38.38,0,0,1,.22-.08l.4,0h.37a.56.56,0,0,1,.21,0,.18.18,0,0,1,.11.1.9.9,0,0,1,.08.19l1.12,3.2h0l1-3.27a.3.3,0,0,1,.09-.18.3.3,0,0,1,.16-.07l.42,0,.38,0a.44.44,0,0,1,.23.08.19.19,0,0,1,.07.16.7.7,0,0,1,0,.23Z"/><path d="M64.89,16.32a4.45,4.45,0,0,1-.14,1.14,2.6,2.6,0,0,1-.41.87,1.8,1.8,0,0,1-.64.56,1.93,1.93,0,0,1-.88.19,2.15,2.15,0,0,1-.45,0,1.49,1.49,0,0,1-.4-.15,2.26,2.26,0,0,1-.37-.26,2.72,2.72,0,0,1-.38-.38v.53a.14.14,0,0,1,0,.09.2.2,0,0,1-.1.07.6.6,0,0,1-.18,0h-.55l-.18,0a.22.22,0,0,1-.09-.07.14.14,0,0,1,0-.09V11.71a.19.19,0,0,1,0-.1.52.52,0,0,1,.11-.07l.21,0,.33,0,.33,0,.2,0a.35.35,0,0,1,.11.07.21.21,0,0,1,0,.1v2.65a2.48,2.48,0,0,1,.36-.31,1.53,1.53,0,0,1,.37-.21,1.23,1.23,0,0,1,.37-.12,1.84,1.84,0,0,1,.41,0,1.79,1.79,0,0,1,.9.21,1.75,1.75,0,0,1,.61.57,2.64,2.64,0,0,1,.34.84A4.76,4.76,0,0,1,64.89,16.32Zm-1.41.09a3.81,3.81,0,0,0,0-.59,1.73,1.73,0,0,0-.16-.5A1,1,0,0,0,63,15a.81.81,0,0,0-.46-.13,1.17,1.17,0,0,0-.26,0A1.32,1.32,0,0,0,62,15a1.9,1.9,0,0,0-.28.24,2.37,2.37,0,0,0-.3.36v1.59a3.14,3.14,0,0,0,.54.55.9.9,0,0,0,.55.19A.72.72,0,0,0,63,17.8a1.32,1.32,0,0,0,.31-.35,1.77,1.77,0,0,0,.17-.49A2.56,2.56,0,0,0,63.48,16.41Z"/><path d="M70.51,18.78a.16.16,0,0,1,0,.09.22.22,0,0,1-.09.07l-.18,0h-.56l-.18,0a.22.22,0,0,1-.09-.07.16.16,0,0,1,0-.09v-.56a3.09,3.09,0,0,1-.8.65,2,2,0,0,1-1.69.05,1.46,1.46,0,0,1-.54-.44,1.75,1.75,0,0,1-.29-.65,3.88,3.88,0,0,1-.09-.91V14a.16.16,0,0,1,0-.09.2.2,0,0,1,.1-.07l.21,0h.66l.2,0a.19.19,0,0,1,.11.07.12.12,0,0,1,0,.09v2.71a3,3,0,0,0,0,.58,1.52,1.52,0,0,0,.15.34.75.75,0,0,0,.25.22.86.86,0,0,0,.36.07.91.91,0,0,0,.52-.18,3.55,3.55,0,0,0,.56-.55V14a.16.16,0,0,1,0-.09s0-.05.1-.07a.87.87,0,0,1,.21,0h.65a.87.87,0,0,1,.21,0,.3.3,0,0,1,.11.07.16.16,0,0,1,0,.09Z"/><path d="M76.29,16.24a.51.51,0,0,1-.11.37.41.41,0,0,1-.3.11H73a2.38,2.38,0,0,0,.07.56,1,1,0,0,0,.24.42,1,1,0,0,0,.4.27,1.8,1.8,0,0,0,.6.09,3.83,3.83,0,0,0,.63,0,3.91,3.91,0,0,0,.46-.11l.33-.12a.63.63,0,0,1,.21-.05l.08,0a.13.13,0,0,1,0,.07,1.06,1.06,0,0,1,0,.14c0,.06,0,.13,0,.22a1.21,1.21,0,0,1,0,.2c0,.06,0,.1,0,.14a.23.23,0,0,1,0,.1.22.22,0,0,1-.05.08,1,1,0,0,1-.19.1,2.35,2.35,0,0,1-.4.13c-.16,0-.35.08-.55.11a4.73,4.73,0,0,1-.67,0A3.44,3.44,0,0,1,73,18.92a2,2,0,0,1-.8-.49,1.9,1.9,0,0,1-.48-.83,3.72,3.72,0,0,1-.16-1.17,3.76,3.76,0,0,1,.16-1.15,2.46,2.46,0,0,1,.49-.87,2,2,0,0,1,.77-.54,2.54,2.54,0,0,1,1-.19,2.64,2.64,0,0,1,1,.18,1.77,1.77,0,0,1,.7.49,1.89,1.89,0,0,1,.4.74,3.14,3.14,0,0,1,.13.94ZM75,15.85a1.34,1.34,0,0,0-.23-.89.87.87,0,0,0-.75-.33,1.06,1.06,0,0,0-.45.1.9.9,0,0,0-.32.26,1.42,1.42,0,0,0-.19.39,2.43,2.43,0,0,0-.08.47Z"/><path d="M82,18.78a.16.16,0,0,1,0,.09.23.23,0,0,1-.11.07l-.21,0H81l-.21,0a.3.3,0,0,1-.11-.07.16.16,0,0,1,0-.09V16a2.64,2.64,0,0,0,0-.55,1,1,0,0,0-.15-.34.6.6,0,0,0-.25-.22.78.78,0,0,0-.35-.08.9.9,0,0,0-.52.19,2.85,2.85,0,0,0-.55.55v3.19a.16.16,0,0,1,0,.09.27.27,0,0,1-.12.07l-.2,0h-.66l-.2,0a.19.19,0,0,1-.11-.07.12.12,0,0,1,0-.09V14a.16.16,0,0,1,0-.09.2.2,0,0,1,.1-.07.6.6,0,0,1,.18,0h.56a.61.61,0,0,1,.17,0,.22.22,0,0,1,.09.07.16.16,0,0,1,0,.09v.56a3,3,0,0,1,.81-.65,1.84,1.84,0,0,1,.85-.21,1.89,1.89,0,0,1,.83.16,1.46,1.46,0,0,1,.54.44,1.72,1.72,0,0,1,.3.64,3.9,3.9,0,0,1,.09.9Z"/><path d="M87.39,18.79a.14.14,0,0,1-.06.12.3.3,0,0,1-.16.06l-.35,0-.35,0a.26.26,0,0,1-.15-.06.17.17,0,0,1,0-.12v-.38a2.1,2.1,0,0,1-.67.49,2,2,0,0,1-.84.18,2.19,2.19,0,0,1-.7-.1,1.36,1.36,0,0,1-.92-.78,1.77,1.77,0,0,1,0-1.4,1.33,1.33,0,0,1,.49-.51,2.28,2.28,0,0,1,.81-.3,5.36,5.36,0,0,1,1.12-.1h.47V15.6a1.51,1.51,0,0,0,0-.39.67.67,0,0,0-.15-.29.64.64,0,0,0-.28-.16,1.37,1.37,0,0,0-.44-.06,2.23,2.23,0,0,0-.6.08,3.67,3.67,0,0,0-.47.16l-.34.17a.54.54,0,0,1-.22.08.21.21,0,0,1-.11,0,.3.3,0,0,1-.07-.11.58.58,0,0,1,0-.17,1.52,1.52,0,0,1,0-.23.93.93,0,0,1,0-.26.42.42,0,0,1,.1-.17,1,1,0,0,1,.27-.18,2.7,2.7,0,0,1,.44-.17,4,4,0,0,1,.55-.13,3.08,3.08,0,0,1,.61-.05,3.45,3.45,0,0,1,1,.11,1.5,1.5,0,0,1,.65.34,1.23,1.23,0,0,1,.38.58,2.75,2.75,0,0,1,.12.86Zm-1.33-2.05h-.51a2.9,2.9,0,0,0-.56.05,1.12,1.12,0,0,0-.38.14.53.53,0,0,0-.21.24.69.69,0,0,0,.12.78.75.75,0,0,0,.53.17,1,1,0,0,0,.53-.14,2.25,2.25,0,0,0,.48-.42Z"/><path d="M96.05,16.31a4.47,4.47,0,0,1-.14,1.15,2.59,2.59,0,0,1-.4.87,1.87,1.87,0,0,1-.66.56,2,2,0,0,1-.89.19,1.61,1.61,0,0,1-.39,0,2.3,2.3,0,0,1-.34-.12,2.92,2.92,0,0,1-.32-.21,2.86,2.86,0,0,1-.33-.29v2.26a.12.12,0,0,1,0,.09.2.2,0,0,1-.11.08l-.2,0-.33,0-.33,0-.21,0a.31.31,0,0,1-.11-.08.16.16,0,0,1,0-.09V14a.16.16,0,0,1,0-.09.22.22,0,0,1,.09-.07l.18,0h.55l.18,0a.22.22,0,0,1,.09.07.16.16,0,0,1,0,.09v.57a3.55,3.55,0,0,1,.41-.38,2.07,2.07,0,0,1,.41-.27,1.75,1.75,0,0,1,.43-.17,2.44,2.44,0,0,1,.48-.05,1.86,1.86,0,0,1,.89.2,1.75,1.75,0,0,1,.61.57,2.64,2.64,0,0,1,.34.84A4.76,4.76,0,0,1,96.05,16.31Zm-1.41.1a3.7,3.7,0,0,0,0-.59,1.73,1.73,0,0,0-.15-.5,1,1,0,0,0-.29-.36.8.8,0,0,0-.45-.13,1.26,1.26,0,0,0-.27,0,1.32,1.32,0,0,0-.27.13,2.78,2.78,0,0,0-.28.24,4.07,4.07,0,0,0-.3.36v1.58a3.24,3.24,0,0,0,.54.56.86.86,0,0,0,.53.19.73.73,0,0,0,.45-.13,1,1,0,0,0,.31-.35,1.84,1.84,0,0,0,.17-.5A2.48,2.48,0,0,0,94.64,16.41Z"/><path d="M100.2,14.43a3,3,0,0,1,0,.32c0,.08,0,.14,0,.19a.14.14,0,0,1-.06.1l-.09,0a.16.16,0,0,1-.09,0l-.12,0-.15,0-.18,0a.59.59,0,0,0-.22.05,1,1,0,0,0-.24.14,2.11,2.11,0,0,0-.25.26,3.86,3.86,0,0,0-.28.4v3a.16.16,0,0,1,0,.09.3.3,0,0,1-.11.07l-.21,0h-.66l-.2,0a.23.23,0,0,1-.11-.07.18.18,0,0,1,0-.09V14a.16.16,0,0,1,0-.09.2.2,0,0,1,.1-.07.69.69,0,0,1,.18,0H98a.53.53,0,0,1,.17,0s.08,0,.09.07a.16.16,0,0,1,0,.09v.6a2.93,2.93,0,0,1,.35-.44,1.94,1.94,0,0,1,.32-.28.81.81,0,0,1,.3-.14,1,1,0,0,1,.3,0h.15l.17,0,.15,0a.19.19,0,0,1,.09.05.1.1,0,0,1,0,.06s0,.05,0,.08,0,.1,0,.17Z"/><path d="M105.34,16.24a.56.56,0,0,1-.11.37.45.45,0,0,1-.31.11H102a2,2,0,0,0,.07.56,1.06,1.06,0,0,0,.23.42,1,1,0,0,0,.41.27,1.8,1.8,0,0,0,.6.09,3.8,3.8,0,0,0,.62,0,3.66,3.66,0,0,0,.47-.11,2.2,2.2,0,0,0,.32-.12.76.76,0,0,1,.21-.05l.08,0a.13.13,0,0,1,0,.07.26.26,0,0,1,0,.14,1.41,1.41,0,0,1,0,.22v.2c0,.06,0,.1,0,.14a.62.62,0,0,1,0,.1.24.24,0,0,1-.06.08.73.73,0,0,1-.19.1,2.09,2.09,0,0,1-.4.13,5.33,5.33,0,0,1-.55.11,4.73,4.73,0,0,1-.67,0,3.52,3.52,0,0,1-1.12-.16,2,2,0,0,1-.8-.49,2.11,2.11,0,0,1-.48-.83,4,4,0,0,1-.16-1.17,3.75,3.75,0,0,1,.17-1.15,2.45,2.45,0,0,1,.48-.87,2,2,0,0,1,.77-.54,2.63,2.63,0,0,1,1-.19,2.67,2.67,0,0,1,1,.18,1.85,1.85,0,0,1,.7.49,2,2,0,0,1,.4.74,3.5,3.5,0,0,1,.13.94ZM104,15.85a1.4,1.4,0,0,0-.23-.89.88.88,0,0,0-.76-.33,1,1,0,0,0-.44.1.82.82,0,0,0-.32.26,1.18,1.18,0,0,0-.19.39,1.5,1.5,0,0,0-.08.47Z"/><path d="M110.77,14.32a.91.91,0,0,1-.06.38q-.06.12-.15.12H110a1,1,0,0,1,.17.29,1.34,1.34,0,0,1,0,.35,2,2,0,0,1-.14.74,1.48,1.48,0,0,1-.4.55,1.73,1.73,0,0,1-.63.34,3,3,0,0,1-.82.11,2.12,2.12,0,0,1-.44-.05,1.08,1.08,0,0,1-.32-.14,1.25,1.25,0,0,0-.12.17.5.5,0,0,0,0,.21.31.31,0,0,0,.14.26.69.69,0,0,0,.38.11l1.17,0a2.72,2.72,0,0,1,.73.12,1.41,1.41,0,0,1,.53.28,1.18,1.18,0,0,1,.34.43,1.48,1.48,0,0,1,.11.57,1.46,1.46,0,0,1-.62,1.22,2.56,2.56,0,0,1-.78.36,4,4,0,0,1-1.1.14,4.56,4.56,0,0,1-1-.1,2,2,0,0,1-.7-.27,1.07,1.07,0,0,1-.41-.41,1.14,1.14,0,0,1-.12-.52,1.27,1.27,0,0,1,0-.34,1.23,1.23,0,0,1,.14-.31,1.42,1.42,0,0,1,.22-.28,1.84,1.84,0,0,1,.29-.26,1,1,0,0,1-.36-.33,1,1,0,0,1-.12-.47,1.16,1.16,0,0,1,.14-.58,1.87,1.87,0,0,1,.38-.47,1.19,1.19,0,0,1-.3-.45,1.54,1.54,0,0,1-.12-.65,1.79,1.79,0,0,1,.15-.75,1.66,1.66,0,0,1,.41-.56,1.93,1.93,0,0,1,.63-.35,2.55,2.55,0,0,1,.81-.12,3,3,0,0,1,.43,0,2.14,2.14,0,0,1,.38.07h1.52q.09,0,.15.12A1,1,0,0,1,110.77,14.32Zm-1.42,5a.45.45,0,0,0-.19-.38,1.12,1.12,0,0,0-.54-.14l-1,0-.22.19a1.29,1.29,0,0,0-.13.18.47.47,0,0,0-.07.17.88.88,0,0,0,0,.17.45.45,0,0,0,.27.41,1.78,1.78,0,0,0,.77.13,1.83,1.83,0,0,0,.51-.06.9.9,0,0,0,.34-.16.67.67,0,0,0,.19-.23A.75.75,0,0,0,109.35,19.28ZM109,15.45a.81.81,0,0,0-.21-.6.86.86,0,0,0-.61-.22.79.79,0,0,0-.6.25,1.17,1.17,0,0,0-.15.27,1.12,1.12,0,0,0,0,.32.78.78,0,0,0,.21.58.81.81,0,0,0,.6.21,1,1,0,0,0,.35-.06.76.76,0,0,0,.25-.18.68.68,0,0,0,.15-.26A.81.81,0,0,0,109,15.45Z"/><path d="M116.21,18.78a.16.16,0,0,1,0,.09.22.22,0,0,1-.09.07l-.18,0h-.56l-.18,0a.22.22,0,0,1-.09-.07.16.16,0,0,1,0-.09v-.56a3,3,0,0,1-.81.65,1.81,1.81,0,0,1-.85.21,1.89,1.89,0,0,1-.83-.16,1.46,1.46,0,0,1-.54-.44,1.6,1.6,0,0,1-.29-.65,3.88,3.88,0,0,1-.09-.91V14a.16.16,0,0,1,0-.09.2.2,0,0,1,.1-.07l.21,0h.66l.2,0a.23.23,0,0,1,.11.07.18.18,0,0,1,0,.09v2.71a3,3,0,0,0,0,.58,1.17,1.17,0,0,0,.15.34.75.75,0,0,0,.25.22.83.83,0,0,0,.36.07.91.91,0,0,0,.52-.18,3.16,3.16,0,0,0,.55-.55V14a.16.16,0,0,1,0-.09.23.23,0,0,1,.11-.07.87.87,0,0,1,.21,0h.65a.87.87,0,0,1,.21,0,.3.3,0,0,1,.11.07.16.16,0,0,1,0,.09Z"/><path d="M122.14,18.78a.16.16,0,0,1,0,.09.23.23,0,0,1-.11.07l-.2,0h-.66l-.21,0a.2.2,0,0,1-.1-.07.18.18,0,0,1,0-.09V16a2.1,2.1,0,0,0-.05-.55,1.16,1.16,0,0,0-.14-.34.75.75,0,0,0-.25-.22.86.86,0,0,0-.36-.08.92.92,0,0,0-.52.19,2.85,2.85,0,0,0-.55.55v3.19a.16.16,0,0,1,0,.09.23.23,0,0,1-.11.07l-.21,0h-.66l-.2,0a.23.23,0,0,1-.11-.07.16.16,0,0,1,0-.09V14a.15.15,0,0,1,0-.09.2.2,0,0,1,.1-.07l.18,0h.56l.18,0s.07,0,.08.07a.16.16,0,0,1,0,.09v.56a3.3,3.3,0,0,1,.81-.65,2,2,0,0,1,1.68-.05,1.46,1.46,0,0,1,.54.44,1.72,1.72,0,0,1,.3.64,3.9,3.9,0,0,1,.09.9Z"/><path d="M126.2,18.3a1.6,1.6,0,0,1,0,.36.3.3,0,0,1-.08.18.28.28,0,0,1-.14.09,1,1,0,0,1-.22.07l-.27.05-.3,0a2.1,2.1,0,0,1-.7-.11,1.09,1.09,0,0,1-.49-.31,1.26,1.26,0,0,1-.28-.54,2.78,2.78,0,0,1-.09-.76V14.9H123c-.07,0-.12,0-.15-.13a1,1,0,0,1-.06-.42,1.84,1.84,0,0,1,0-.26.35.35,0,0,1,0-.17.2.2,0,0,1,.06-.09.17.17,0,0,1,.1,0h.57V12.73a.14.14,0,0,1,0-.09.21.21,0,0,1,.1-.08l.21,0h.66a.87.87,0,0,1,.21,0,.21.21,0,0,1,.1.08.15.15,0,0,1,0,.09V13.8h1l.09,0a.22.22,0,0,1,.07.09.53.53,0,0,1,0,.17,2,2,0,0,1,0,.26,1.31,1.31,0,0,1,0,.42c0,.09-.09.13-.16.13h-1v2.25a1.16,1.16,0,0,0,.12.59.48.48,0,0,0,.44.19.55.55,0,0,0,.19,0l.16,0,.11,0a.13.13,0,0,1,.08,0,.07.07,0,0,1,.06,0,.1.1,0,0,1,0,.07,1.57,1.57,0,0,1,0,.16A1.63,1.63,0,0,1,126.2,18.3Z"/><path d="M131.15,18.79a.13.13,0,0,1-.05.12.34.34,0,0,1-.17.06l-.34,0-.35,0a.27.27,0,0,1-.16-.06.16.16,0,0,1,0-.12v-.38a2.14,2.14,0,0,1-.68.49,1.92,1.92,0,0,1-.84.18,2.24,2.24,0,0,1-.7-.1,1.45,1.45,0,0,1-.55-.29,1.38,1.38,0,0,1-.37-.49,1.76,1.76,0,0,1-.12-.68,1.47,1.47,0,0,1,.16-.72,1.26,1.26,0,0,1,.49-.51,2.21,2.21,0,0,1,.81-.3,5.29,5.29,0,0,1,1.12-.1h.47V15.6a1.48,1.48,0,0,0-.05-.39.67.67,0,0,0-.15-.29.59.59,0,0,0-.28-.16,1.31,1.31,0,0,0-.43-.06,2.13,2.13,0,0,0-.6.08,3.2,3.2,0,0,0-.47.16l-.35.17a.49.49,0,0,1-.22.08.18.18,0,0,1-.1,0,.31.31,0,0,1-.08-.11.61.61,0,0,1,0-.17,1.52,1.52,0,0,1,0-.23.93.93,0,0,1,0-.26.33.33,0,0,1,.1-.17,1,1,0,0,1,.26-.18,3.12,3.12,0,0,1,.44-.17,4,4,0,0,1,.55-.13,3.18,3.18,0,0,1,.62-.05,3.38,3.38,0,0,1,1,.11,1.48,1.48,0,0,1,.66.34,1.31,1.31,0,0,1,.38.58,3.1,3.1,0,0,1,.11.86Zm-1.32-2.05h-.52a3,3,0,0,0-.56.05,1.06,1.06,0,0,0-.37.14.63.63,0,0,0-.22.24.75.75,0,0,0-.06.31.58.58,0,0,0,.19.47.74.74,0,0,0,.53.17,1,1,0,0,0,.52-.14,2.56,2.56,0,0,0,.49-.42Z"/><path d="M60.57,22.92a2,2,0,0,1,0,.26.6.6,0,0,1,0,.18.26.26,0,0,1-.07.1.12.12,0,0,1-.09,0H58.62v5.6a.17.17,0,0,1,0,.1.22.22,0,0,1-.12.07.87.87,0,0,1-.21,0l-.35,0-.34,0a.87.87,0,0,1-.21,0,.22.22,0,0,1-.12-.07.17.17,0,0,1,0-.1v-5.6H55.47a.17.17,0,0,1-.1,0,.44.44,0,0,1-.06-.1.6.6,0,0,1,0-.18,2,2,0,0,1,0-.26,2.35,2.35,0,0,1,0-.28.8.8,0,0,1,0-.18.35.35,0,0,1,.06-.09.17.17,0,0,1,.1,0h4.89a.12.12,0,0,1,.09,0,.22.22,0,0,1,.07.09.8.8,0,0,1,0,.18A2.35,2.35,0,0,1,60.57,22.92Z"/><path d="M64.79,26.57a.56.56,0,0,1-.11.37.41.41,0,0,1-.3.11H61.46a2.38,2.38,0,0,0,.07.56,1.06,1.06,0,0,0,.23.42,1,1,0,0,0,.41.27,1.8,1.8,0,0,0,.6.09,3.61,3.61,0,0,0,.62-.05,3.66,3.66,0,0,0,.47-.11l.32-.12a.76.76,0,0,1,.21-.05.15.15,0,0,1,.08,0,.22.22,0,0,1,.06.07,1.3,1.3,0,0,1,0,.13c0,.07,0,.14,0,.23s0,.14,0,.2a.52.52,0,0,1,0,.14.15.15,0,0,1,0,.1.21.21,0,0,1-.06.08.58.58,0,0,1-.19.1,2.94,2.94,0,0,1-.39.13c-.16,0-.35.07-.56.1a4.13,4.13,0,0,1-1.78-.11,2,2,0,0,1-.8-.49,2,2,0,0,1-.49-.83,4.06,4.06,0,0,1-.15-1.17,3.76,3.76,0,0,1,.16-1.15,2.32,2.32,0,0,1,.49-.87,2,2,0,0,1,.77-.55,2.73,2.73,0,0,1,1-.18,2.67,2.67,0,0,1,1,.18,1.77,1.77,0,0,1,.7.49,1.89,1.89,0,0,1,.4.74,3.14,3.14,0,0,1,.13.94Zm-1.31-.39a1.4,1.4,0,0,0-.23-.89A.87.87,0,0,0,62.5,25a1,1,0,0,0-.45.1.9.9,0,0,0-.32.26,1.18,1.18,0,0,0-.19.39,1.78,1.78,0,0,0-.08.47Z"/><path d="M69,24.76a3,3,0,0,1,0,.32c0,.08,0,.14,0,.19a.29.29,0,0,1-.06.1l-.09,0a.15.15,0,0,1-.09,0l-.13,0-.14,0h-.18a.62.62,0,0,0-.23,0,1.18,1.18,0,0,0-.23.14,2.11,2.11,0,0,0-.25.26,3.86,3.86,0,0,0-.28.4v3a.18.18,0,0,1,0,.09.23.23,0,0,1-.11.07l-.2,0h-.66l-.21,0a.3.3,0,0,1-.11-.07.16.16,0,0,1,0-.09v-4.8a.16.16,0,0,1,0-.09.2.2,0,0,1,.1-.07.6.6,0,0,1,.18,0h.56a.61.61,0,0,1,.17,0,.22.22,0,0,1,.09.07.16.16,0,0,1,0,.09v.6a2.93,2.93,0,0,1,.35-.44,1.94,1.94,0,0,1,.32-.28.81.81,0,0,1,.3-.14,1,1,0,0,1,.3,0h.15l.17,0,.15.05a.19.19,0,0,1,.09.05.07.07,0,0,1,0,.05l0,.09a.81.81,0,0,1,0,.17A2.73,2.73,0,0,1,69,24.76Z"/><path d="M74.11,26.57a.51.51,0,0,1-.11.37.41.41,0,0,1-.3.11H70.78a1.94,1.94,0,0,0,.08.56,1,1,0,0,0,.23.42.92.92,0,0,0,.41.27,1.72,1.72,0,0,0,.6.09,3.8,3.8,0,0,0,.62-.05,3.48,3.48,0,0,0,.46-.11l.33-.12a.63.63,0,0,1,.21-.05l.08,0a.13.13,0,0,1,0,.07.25.25,0,0,1,0,.13,1.62,1.62,0,0,1,0,.23,1.21,1.21,0,0,1,0,.2c0,.06,0,.1,0,.14a.62.62,0,0,1,0,.1l-.06.08a.73.73,0,0,1-.19.1,3.15,3.15,0,0,1-.4.13,5.53,5.53,0,0,1-.55.1,3.58,3.58,0,0,1-.67.05,3.48,3.48,0,0,1-1.12-.16,2,2,0,0,1-.8-.49,1.9,1.9,0,0,1-.48-.83,4.16,4.16,0,0,1,0-2.32,2.45,2.45,0,0,1,.48-.87,2.13,2.13,0,0,1,.77-.55,2.73,2.73,0,0,1,1-.18,2.64,2.64,0,0,1,1,.18,1.7,1.7,0,0,1,.7.49,1.91,1.91,0,0,1,.41.74,3.51,3.51,0,0,1,.12.94Zm-1.31-.39a1.34,1.34,0,0,0-.22-.89.9.9,0,0,0-.76-.33,1.06,1.06,0,0,0-.45.1.86.86,0,0,0-.31.26,1.2,1.2,0,0,0-.2.39,2.31,2.31,0,0,0-.08.47Z"/><path d="M76.82,28.3a2.38,2.38,0,0,1,0,.39,1.91,1.91,0,0,1-.06.33c0,.1-.08.2-.13.3a2.16,2.16,0,0,1-.19.31l-.72,1-.08.09-.11.06-.16,0-.23,0-.25,0a.39.39,0,0,1-.14,0,.08.08,0,0,1,0-.07.13.13,0,0,1,0-.1l.66-1.48V28.3a.87.87,0,0,1,0-.3.37.37,0,0,1,.13-.17.69.69,0,0,1,.23-.08l.34,0,.32,0a.69.69,0,0,1,.23.08.37.37,0,0,1,.13.17A1.21,1.21,0,0,1,76.82,28.3Z"/><path d="M85.37,26.64a4.49,4.49,0,0,1-.13,1.15,2.7,2.7,0,0,1-.41.87,1.75,1.75,0,0,1-.65.56,2,2,0,0,1-.9.19,1.48,1.48,0,0,1-.38,0,2,2,0,0,1-.34-.12,2.2,2.2,0,0,1-.32-.21,4.07,4.07,0,0,1-.34-.29V31a.16.16,0,0,1,0,.09.24.24,0,0,1-.11.08l-.21,0-.32,0-.33,0-.21,0a.24.24,0,0,1-.11-.08.16.16,0,0,1,0-.09v-6.7a.29.29,0,0,1,0-.09.2.2,0,0,1,.1-.07.6.6,0,0,1,.18,0h.54a.6.6,0,0,1,.18,0,.2.2,0,0,1,.1.07.29.29,0,0,1,0,.09v.57a4.62,4.62,0,0,1,.41-.38,3.32,3.32,0,0,1,.41-.28,1.94,1.94,0,0,1,.91-.21,1.93,1.93,0,0,1,.9.2,1.64,1.64,0,0,1,.6.57,2.43,2.43,0,0,1,.34.84A4.2,4.2,0,0,1,85.37,26.64Zm-1.41.1a3.73,3.73,0,0,0,0-.59,1.47,1.47,0,0,0-.16-.5.94.94,0,0,0-.29-.36.8.8,0,0,0-.45-.13,1.27,1.27,0,0,0-.26,0,1.11,1.11,0,0,0-.27.13,2.78,2.78,0,0,0-.28.24,4.05,4.05,0,0,0-.31.36v1.58a3.24,3.24,0,0,0,.54.56.91.91,0,0,0,.54.19.73.73,0,0,0,.45-.13,1.14,1.14,0,0,0,.3-.35,1.85,1.85,0,0,0,.18-.5A2.47,2.47,0,0,0,84,26.74Z"/><path d="M91.3,26.66a3.6,3.6,0,0,1-.17,1.12,2.46,2.46,0,0,1-.48.87,2.22,2.22,0,0,1-.83.56,3.11,3.11,0,0,1-1.15.2,3.07,3.07,0,0,1-1.11-.18,2.08,2.08,0,0,1-.79-.51,2.31,2.31,0,0,1-.46-.83,4.16,4.16,0,0,1,0-2.25,2.34,2.34,0,0,1,.5-.87,2.1,2.1,0,0,1,.82-.56,2.89,2.89,0,0,1,1.15-.2,3.32,3.32,0,0,1,1.11.17,2.08,2.08,0,0,1,.79.51,2.43,2.43,0,0,1,.46.84A3.87,3.87,0,0,1,91.3,26.66Zm-1.4.05a3.36,3.36,0,0,0-.05-.65,1.6,1.6,0,0,0-.19-.52,1,1,0,0,0-.36-.34,1.19,1.19,0,0,0-.56-.12,1.12,1.12,0,0,0-.53.11,1,1,0,0,0-.37.32,1.49,1.49,0,0,0-.22.51,3.39,3.39,0,0,0-.07.68,3.27,3.27,0,0,0,.06.65,1.6,1.6,0,0,0,.19.52.9.9,0,0,0,.36.34,1.19,1.19,0,0,0,.56.12,1.25,1.25,0,0,0,.53-.11,1,1,0,0,0,.37-.32,1.31,1.31,0,0,0,.21-.51A2.79,2.79,0,0,0,89.9,26.71Z"/><path d="M95.44,24.76a3,3,0,0,1,0,.32c0,.08,0,.14,0,.19a.14.14,0,0,1-.06.1l-.09,0a.16.16,0,0,1-.09,0l-.12,0-.15,0h-.18a.57.57,0,0,0-.22,0,1,1,0,0,0-.24.14,2.11,2.11,0,0,0-.25.26,3.86,3.86,0,0,0-.28.4v3a.16.16,0,0,1,0,.09.3.3,0,0,1-.11.07l-.21,0h-.66l-.2,0a.23.23,0,0,1-.11-.07.18.18,0,0,1,0-.09v-4.8a.16.16,0,0,1,0-.09.2.2,0,0,1,.1-.07.69.69,0,0,1,.18,0h.56a.53.53,0,0,1,.17,0s.08,0,.09.07a.16.16,0,0,1,0,.09v.6a3.75,3.75,0,0,1,.35-.44,2.45,2.45,0,0,1,.32-.28.81.81,0,0,1,.3-.14,1,1,0,0,1,.3,0h.15l.17,0,.15.05a.19.19,0,0,1,.09.05.12.12,0,0,1,.05.05s0,.06,0,.09,0,.1,0,.17Z"/><path d="M100.68,31a.16.16,0,0,1,0,.09.24.24,0,0,1-.11.08l-.2,0-.33,0-.32,0-.21,0a.24.24,0,0,1-.11-.08.16.16,0,0,1,0-.09V28.73A4.68,4.68,0,0,1,99,29a2.85,2.85,0,0,1-.37.21,1.29,1.29,0,0,1-.38.12,1.7,1.7,0,0,1-.4,0,1.81,1.81,0,0,1-.9-.21,1.64,1.64,0,0,1-.6-.57,2.65,2.65,0,0,1-.35-.84,4.77,4.77,0,0,1-.1-1A4.12,4.12,0,0,1,96,25.62a2.69,2.69,0,0,1,.4-.87,1.84,1.84,0,0,1,.66-.55A2.06,2.06,0,0,1,98,24a1.58,1.58,0,0,1,.38,0,1,1,0,0,1,.37.14,2.47,2.47,0,0,1,.38.25l.43.39v-.52a.16.16,0,0,1,0-.09.2.2,0,0,1,.1-.07.61.61,0,0,1,.17,0h.55l.18,0a.22.22,0,0,1,.09.07.15.15,0,0,1,0,.09ZM99.34,25.9a2.84,2.84,0,0,0-.55-.55,1,1,0,0,0-.56-.2.73.73,0,0,0-.45.13,1,1,0,0,0-.31.35,1.84,1.84,0,0,0-.17.5,2.51,2.51,0,0,0-.06.55,3.81,3.81,0,0,0,.05.59,1.61,1.61,0,0,0,.16.51.91.91,0,0,0,.29.35.76.76,0,0,0,.46.14,1.1,1.1,0,0,0,.27,0,1.11,1.11,0,0,0,.27-.13,3,3,0,0,0,.28-.24,3.16,3.16,0,0,0,.32-.37Z"/><path d="M106.59,29.11a.16.16,0,0,1,0,.09.22.22,0,0,1-.09.07l-.18,0h-.57l-.17,0a.22.22,0,0,1-.09-.07.16.16,0,0,1,0-.09v-.56a3,3,0,0,1-.81.65,1.81,1.81,0,0,1-.85.21,1.89,1.89,0,0,1-.83-.16,1.46,1.46,0,0,1-.54-.44,1.76,1.76,0,0,1-.3-.65,4.58,4.58,0,0,1-.08-.91V24.31a.16.16,0,0,1,0-.09.2.2,0,0,1,.1-.07.87.87,0,0,1,.21,0H103a.87.87,0,0,1,.21,0,.23.23,0,0,1,.11.07.16.16,0,0,1,0,.09V27a2.82,2.82,0,0,0,0,.58,1,1,0,0,0,.15.34.75.75,0,0,0,.25.22.8.8,0,0,0,.36.07.93.93,0,0,0,.52-.18,3.16,3.16,0,0,0,.55-.55V24.31a.16.16,0,0,1,0-.09.23.23,0,0,1,.11-.07.87.87,0,0,1,.21,0h.65a.87.87,0,0,1,.21,0,.2.2,0,0,1,.1.07.12.12,0,0,1,0,.09Z"/><path d="M112.37,26.57a.56.56,0,0,1-.11.37.41.41,0,0,1-.3.11H109a2.38,2.38,0,0,0,.07.56,1.06,1.06,0,0,0,.23.42,1,1,0,0,0,.41.27,1.8,1.8,0,0,0,.6.09,3.61,3.61,0,0,0,.62-.05,3.66,3.66,0,0,0,.47-.11,2.2,2.2,0,0,0,.32-.12.76.76,0,0,1,.21-.05.15.15,0,0,1,.08,0,.22.22,0,0,1,.06.07,1.3,1.3,0,0,1,0,.13c0,.07,0,.14,0,.23s0,.14,0,.2a.52.52,0,0,1,0,.14.15.15,0,0,1,0,.1A.21.21,0,0,1,112,29a.58.58,0,0,1-.19.1,2.94,2.94,0,0,1-.39.13c-.16,0-.35.07-.56.1a4.13,4.13,0,0,1-1.78-.11,2,2,0,0,1-.8-.49,2,2,0,0,1-.49-.83,4.06,4.06,0,0,1-.15-1.17,3.76,3.76,0,0,1,.16-1.15,2.32,2.32,0,0,1,.49-.87,2,2,0,0,1,.77-.55,2.73,2.73,0,0,1,1-.18,2.67,2.67,0,0,1,1,.18,1.77,1.77,0,0,1,.7.49,1.89,1.89,0,0,1,.4.74,3.14,3.14,0,0,1,.13.94Zm-1.31-.39a1.4,1.4,0,0,0-.23-.89.87.87,0,0,0-.75-.33,1,1,0,0,0-.45.1.9.9,0,0,0-.32.26,1.18,1.18,0,0,0-.19.39,1.78,1.78,0,0,0-.08.47Z"/><path d="M42.59,36.9a.52.52,0,0,1-.11.36.38.38,0,0,1-.3.12H39.26a2.38,2.38,0,0,0,.07.56,1,1,0,0,0,.24.42,1,1,0,0,0,.4.27,1.8,1.8,0,0,0,.6.09,3.83,3.83,0,0,0,.63,0l.46-.11.33-.12a.64.64,0,0,1,.2,0l.08,0s0,0,.06.07a1.3,1.3,0,0,1,0,.13c0,.06,0,.14,0,.23s0,.14,0,.2a.52.52,0,0,1,0,.14.17.17,0,0,1,0,.1.35.35,0,0,1-.05.08,1,1,0,0,1-.19.1,3.79,3.79,0,0,1-.4.13c-.16,0-.35.07-.56.1a4.13,4.13,0,0,1-1.78-.11,2,2,0,0,1-.8-.49,2,2,0,0,1-.49-.83,4.06,4.06,0,0,1-.15-1.17,3.76,3.76,0,0,1,.16-1.15,2.32,2.32,0,0,1,.49-.87,1.92,1.92,0,0,1,.77-.54,2.54,2.54,0,0,1,1-.19,2.88,2.88,0,0,1,1,.17,1.89,1.89,0,0,1,1.1,1.24,3.12,3.12,0,0,1,.13.93Zm-1.31-.39a1.33,1.33,0,0,0-.23-.89.87.87,0,0,0-.75-.33,1.06,1.06,0,0,0-.45.1.9.9,0,0,0-.32.26,1.18,1.18,0,0,0-.19.39,1.78,1.78,0,0,0-.08.47Z"/><path d="M46.51,32.82a1.85,1.85,0,0,1,0,.25,1.06,1.06,0,0,1,0,.14s0,.06,0,.07l-.06,0-.08,0-.11,0-.16,0-.22,0a.66.66,0,0,0-.25,0,.39.39,0,0,0-.17.14.67.67,0,0,0-.1.26,1.51,1.51,0,0,0,0,.39v.44h.88a.16.16,0,0,1,.09,0,.17.17,0,0,1,.07.09,1.08,1.08,0,0,1,0,.17c0,.07,0,.15,0,.26a1.35,1.35,0,0,1,0,.42c0,.08-.09.13-.16.13h-.88v3.87a.17.17,0,0,1,0,.1.23.23,0,0,1-.11.07l-.2,0h-.66l-.21,0a.2.2,0,0,1-.1-.07.17.17,0,0,1,0-.1V35.56h-.61c-.06,0-.11-.05-.15-.13a1.35,1.35,0,0,1-.05-.42,1.93,1.93,0,0,1,0-.26.53.53,0,0,1,0-.17.17.17,0,0,1,.07-.09.12.12,0,0,1,.09,0h.6v-.4A3.66,3.66,0,0,1,44,33.2a1.6,1.6,0,0,1,.31-.61,1.24,1.24,0,0,1,.52-.37,2.2,2.2,0,0,1,.76-.12,2.38,2.38,0,0,1,.39,0,2,2,0,0,1,.3.08.35.35,0,0,1,.14.07.36.36,0,0,1,.07.1s0,.11,0,.18A1.93,1.93,0,0,1,46.51,32.82Z"/><path d="M51.34,36.9a.52.52,0,0,1-.11.36.41.41,0,0,1-.31.12H48a2,2,0,0,0,.07.56,1,1,0,0,0,.23.42.92.92,0,0,0,.41.27,1.72,1.72,0,0,0,.6.09,3.8,3.8,0,0,0,.62,0l.46-.11.33-.12a.69.69,0,0,1,.21,0l.08,0a.13.13,0,0,1,0,.07.25.25,0,0,1,0,.13,1.55,1.55,0,0,1,0,.23,1.21,1.21,0,0,1,0,.2.57.57,0,0,1,0,.14l0,.1-.06.08a.73.73,0,0,1-.19.1,3.15,3.15,0,0,1-.4.13,5.53,5.53,0,0,1-.55.1,3.58,3.58,0,0,1-.67.05,3.48,3.48,0,0,1-1.12-.16,2,2,0,0,1-.8-.49,2,2,0,0,1-.48-.83,4.16,4.16,0,0,1,0-2.32,2.45,2.45,0,0,1,.48-.87,2,2,0,0,1,.77-.54,2.58,2.58,0,0,1,1-.19,2.81,2.81,0,0,1,1,.17,1.82,1.82,0,0,1,.7.5,1.91,1.91,0,0,1,.41.74,3.48,3.48,0,0,1,.13.93ZM50,36.51a1.39,1.39,0,0,0-.23-.89.9.9,0,0,0-.76-.33,1.06,1.06,0,0,0-.45.1.86.86,0,0,0-.31.26,1.2,1.2,0,0,0-.2.39,1.78,1.78,0,0,0-.07.47Z"/><path d="M56.07,38.67a1.48,1.48,0,0,1,0,.23.63.63,0,0,1,0,.16.81.81,0,0,1,0,.11l-.08.1-.22.15a2.43,2.43,0,0,1-.36.16,2.45,2.45,0,0,1-.43.11,2.59,2.59,0,0,1-.48,0,2.49,2.49,0,0,1-1-.17,1.83,1.83,0,0,1-.72-.5,2.39,2.39,0,0,1-.44-.82,4.16,4.16,0,0,1-.14-1.11,3.82,3.82,0,0,1,.18-1.24,2.31,2.31,0,0,1,.5-.87,2,2,0,0,1,.76-.51,2.78,2.78,0,0,1,1-.17,3,3,0,0,1,.42,0,2.22,2.22,0,0,1,.39.1,2.37,2.37,0,0,1,.32.15,1,1,0,0,1,.2.14.31.31,0,0,1,.08.1.23.23,0,0,1,0,.1.7.7,0,0,1,0,.16,1.55,1.55,0,0,1,0,.23,1.46,1.46,0,0,1,0,.44c0,.08-.09.12-.14.12a.35.35,0,0,1-.2-.07,1.91,1.91,0,0,0-.24-.17,1.69,1.69,0,0,0-.33-.17,1.27,1.27,0,0,0-.46-.07.93.93,0,0,0-.81.4A2.15,2.15,0,0,0,53.54,37a3.49,3.49,0,0,0,.07.69,1.57,1.57,0,0,0,.21.49,1,1,0,0,0,.34.3,1.21,1.21,0,0,0,.48.1,1.14,1.14,0,0,0,.48-.09,1.51,1.51,0,0,0,.36-.18l.25-.19a.32.32,0,0,1,.17-.08.11.11,0,0,1,.08,0,.15.15,0,0,1,.05.1s0,.11,0,.18A2.44,2.44,0,0,1,56.07,38.67Z"/><path d="M61.73,34.46a.39.39,0,0,1,.31.1.38.38,0,0,1,.09.28v4.59a.17.17,0,0,1,0,.1.23.23,0,0,1-.11.07l-.21,0h-.65l-.21,0a.2.2,0,0,1-.1-.07.13.13,0,0,1,0-.1V35.56H58.63v2.25a1.18,1.18,0,0,0,.12.59.49.49,0,0,0,.44.19l.2,0,.15,0,.11,0a.15.15,0,0,1,.09,0,.07.07,0,0,1,.06,0s0,0,0,.07,0,.09,0,.15a1.69,1.69,0,0,1,0,.25,1.6,1.6,0,0,1,0,.36.32.32,0,0,1-.22.27l-.22.07-.28.05h-.3a2,2,0,0,1-.69-.1,1.18,1.18,0,0,1-.49-.31,1.27,1.27,0,0,1-.29-.54,2.83,2.83,0,0,1-.09-.76V35.56h-.57c-.07,0-.12-.05-.16-.13a1.35,1.35,0,0,1,0-.42,1.93,1.93,0,0,1,0-.26.53.53,0,0,1,0-.17.17.17,0,0,1,.07-.09.16.16,0,0,1,.09,0h.57V33.39a.19.19,0,0,1,0-.1.35.35,0,0,1,.11-.07.87.87,0,0,1,.21,0h.65a.87.87,0,0,1,.21,0,.35.35,0,0,1,.11.07.19.19,0,0,1,0,.1v1.07ZM62.24,33a.79.79,0,0,1-.17.57.93.93,0,0,1-.62.15.92.92,0,0,1-.61-.15.71.71,0,0,1-.16-.54.79.79,0,0,1,.17-.57.91.91,0,0,1,.62-.16.86.86,0,0,1,.61.16A.71.71,0,0,1,62.24,33Z"/><path d="M67.9,34.64v.06s0,.06,0,.09l0,.1a1.21,1.21,0,0,1,0,.14l-1.44,4.33a.52.52,0,0,1-.07.15.49.49,0,0,1-.15.09,1.68,1.68,0,0,1-.29,0H65a1.3,1.3,0,0,1-.28,0,.27.27,0,0,1-.15-.09.31.31,0,0,1-.07-.14L63,35c0-.08,0-.14,0-.2s0-.1,0-.12v-.07a.17.17,0,0,1,0-.1.23.23,0,0,1,.11-.06l.2,0H64a.87.87,0,0,1,.21,0,.23.23,0,0,1,.11.07.37.37,0,0,1,0,.11l1.09,3.52,0,.13,0-.13,1.07-3.52a.37.37,0,0,1,0-.11.3.3,0,0,1,.11-.07l.2,0h.66l.2,0a.16.16,0,0,1,.09.06A.17.17,0,0,1,67.9,34.64Z"/><path d="M72.61,39.45a.13.13,0,0,1,0,.12.3.3,0,0,1-.17.06l-.34,0-.35,0a.3.3,0,0,1-.16-.06.16.16,0,0,1,0-.12v-.38a2.19,2.19,0,0,1-.68.49,1.92,1.92,0,0,1-.84.18,2.24,2.24,0,0,1-.7-.1,1.6,1.6,0,0,1-.55-.29,1.33,1.33,0,0,1-.36-.49,1.59,1.59,0,0,1-.13-.68,1.54,1.54,0,0,1,.16-.73,1.4,1.4,0,0,1,.49-.51,2.49,2.49,0,0,1,.81-.29,5.36,5.36,0,0,1,1.12-.1h.47v-.29a1.62,1.62,0,0,0-.05-.4.69.69,0,0,0-.15-.28.59.59,0,0,0-.28-.16,1.31,1.31,0,0,0-.43-.06,2.13,2.13,0,0,0-.6.08,2.32,2.32,0,0,0-.47.17l-.34.16a.57.57,0,0,1-.23.08.18.18,0,0,1-.1,0,.31.31,0,0,1-.08-.11.71.71,0,0,1,0-.17,1.52,1.52,0,0,1,0-.23.93.93,0,0,1,0-.26.42.42,0,0,1,.1-.17,1,1,0,0,1,.26-.18,3.12,3.12,0,0,1,.44-.17,4.43,4.43,0,0,1,.55-.13,3.18,3.18,0,0,1,.62,0,3.38,3.38,0,0,1,1,.11,1.48,1.48,0,0,1,.66.34,1.31,1.31,0,0,1,.38.58,2.76,2.76,0,0,1,.11.86ZM71.29,37.4h-.52a2.33,2.33,0,0,0-.56.05,1.06,1.06,0,0,0-.37.14.53.53,0,0,0-.21.24.62.62,0,0,0-.07.31.58.58,0,0,0,.19.47.74.74,0,0,0,.53.17,1,1,0,0,0,.52-.14,2.32,2.32,0,0,0,.49-.43Z"/><path d="M81.58,39.43a.17.17,0,0,1,0,.1.23.23,0,0,1-.11.07l-.2,0h-.66l-.21,0c-.05,0-.09,0-.1-.07a.17.17,0,0,1,0-.1V36.59a2,2,0,0,0,0-.44,1.16,1.16,0,0,0-.14-.34.64.64,0,0,0-.24-.22.68.68,0,0,0-.34-.08.81.81,0,0,0-.48.19,3.14,3.14,0,0,0-.54.55v3.18a.13.13,0,0,1,0,.1.2.2,0,0,1-.1.07l-.21,0h-.65l-.21,0a.23.23,0,0,1-.11-.07.17.17,0,0,1,0-.1V36.59a2,2,0,0,0,0-.44,1.15,1.15,0,0,0-.13-.34.64.64,0,0,0-.24-.22.74.74,0,0,0-.34-.08.84.84,0,0,0-.49.19,3.13,3.13,0,0,0-.53.55v3.18a.13.13,0,0,1,0,.1.19.19,0,0,1-.11.07l-.2,0h-.66l-.2,0a.27.27,0,0,1-.12-.07.17.17,0,0,1,0-.1V34.64a.16.16,0,0,1,0-.09.2.2,0,0,1,.1-.07.6.6,0,0,1,.18,0h.56a.61.61,0,0,1,.17,0,.22.22,0,0,1,.09.07.16.16,0,0,1,0,.09v.56a3,3,0,0,1,.79-.65,1.72,1.72,0,0,1,.82-.21,2.23,2.23,0,0,1,.54.06,1.57,1.57,0,0,1,.42.18,1.39,1.39,0,0,1,.32.27,1.65,1.65,0,0,1,.22.36q.22-.23.42-.39a2.3,2.3,0,0,1,.41-.28,1.7,1.7,0,0,1,.41-.15,1.4,1.4,0,0,1,.41,0,1.76,1.76,0,0,1,.8.16,1.35,1.35,0,0,1,.53.44,1.7,1.7,0,0,1,.29.64,3.36,3.36,0,0,1,.08.79Z"/><path d="M87.34,36.9a.52.52,0,0,1-.11.36.41.41,0,0,1-.31.12H84a2,2,0,0,0,.07.56,1.06,1.06,0,0,0,.23.42,1,1,0,0,0,.41.27,1.8,1.8,0,0,0,.6.09,3.8,3.8,0,0,0,.62,0l.47-.11.32-.12a.76.76,0,0,1,.21,0l.08,0a.13.13,0,0,1,0,.07.25.25,0,0,1,0,.13,1.55,1.55,0,0,1,0,.23V39c0,.06,0,.1,0,.14l0,.1-.06.08a.73.73,0,0,1-.19.1,3.15,3.15,0,0,1-.4.13,5.53,5.53,0,0,1-.55.1,3.58,3.58,0,0,1-.67.05,3.52,3.52,0,0,1-1.12-.16,2,2,0,0,1-.8-.49,2.11,2.11,0,0,1-.48-.83,4,4,0,0,1-.16-1.17,3.75,3.75,0,0,1,.17-1.15,2.45,2.45,0,0,1,.48-.87,2,2,0,0,1,.77-.54,2.63,2.63,0,0,1,1-.19,2.88,2.88,0,0,1,1,.17,2,2,0,0,1,.7.5,2,2,0,0,1,.4.74,3.48,3.48,0,0,1,.13.93ZM86,36.51a1.39,1.39,0,0,0-.23-.89.88.88,0,0,0-.76-.33,1,1,0,0,0-.44.1.82.82,0,0,0-.32.26,1.18,1.18,0,0,0-.19.39,1.45,1.45,0,0,0-.08.47Z"/><path d="M93,39.43a.18.18,0,0,1,0,.1.2.2,0,0,1-.1.07l-.21,0H92l-.2,0a.23.23,0,0,1-.11-.07.17.17,0,0,1,0-.1V36.7a2.57,2.57,0,0,0-.05-.55,1.52,1.52,0,0,0-.15-.34.75.75,0,0,0-.25-.22.8.8,0,0,0-.36-.08,1,1,0,0,0-.52.19,2.85,2.85,0,0,0-.55.55v3.18a.17.17,0,0,1,0,.1.23.23,0,0,1-.11.07l-.21,0H88.8l-.21,0a.23.23,0,0,1-.11-.07.17.17,0,0,1,0-.1V34.64a.16.16,0,0,1,0-.09s0,0,.09-.07l.18,0h.56a.6.6,0,0,1,.18,0,.22.22,0,0,1,.09.07.29.29,0,0,1,0,.09v.56a3.08,3.08,0,0,1,.81-.65,1.88,1.88,0,0,1,.86-.21,1.85,1.85,0,0,1,.82.16,1.41,1.41,0,0,1,.55.44,1.87,1.87,0,0,1,.29.64,3.83,3.83,0,0,1,.1.89Z"/><path d="M97.09,39a1.6,1.6,0,0,1,0,.36.32.32,0,0,1-.22.27l-.22.07-.28.05H96a2,2,0,0,1-.69-.1,1.18,1.18,0,0,1-.49-.31,1.27,1.27,0,0,1-.29-.54,2.83,2.83,0,0,1-.09-.76V35.56h-.57c-.07,0-.12-.05-.16-.13a1.1,1.1,0,0,1,0-.42,1.93,1.93,0,0,1,0-.26.53.53,0,0,1,0-.17.17.17,0,0,1,.07-.09.14.14,0,0,1,.09,0h.57V33.39a.19.19,0,0,1,0-.1.35.35,0,0,1,.11-.07.87.87,0,0,1,.21,0h.65a.87.87,0,0,1,.21,0,.35.35,0,0,1,.11.07.19.19,0,0,1,0,.1v1.07h1a.12.12,0,0,1,.09,0,.17.17,0,0,1,.07.09.53.53,0,0,1,0,.17,1.72,1.72,0,0,1,0,.26,1.06,1.06,0,0,1-.06.42.18.18,0,0,1-.15.13h-1v2.25a1.18,1.18,0,0,0,.12.59.48.48,0,0,0,.44.19l.2,0,.15,0,.11,0a.15.15,0,0,1,.09,0,.07.07,0,0,1,.06,0s0,0,0,.07,0,.09,0,.15A1.69,1.69,0,0,1,97.09,39Z"/><path d="M102.36,36.9a.47.47,0,0,1-.12.36.38.38,0,0,1-.3.12H99a2,2,0,0,0,.07.56,1,1,0,0,0,.23.42.92.92,0,0,0,.41.27,1.72,1.72,0,0,0,.6.09,3.8,3.8,0,0,0,.62,0l.46-.11.33-.12a.63.63,0,0,1,.21,0l.08,0a.13.13,0,0,1,0,.07.25.25,0,0,1,0,.13,1.55,1.55,0,0,1,0,.23,1.21,1.21,0,0,1,0,.2c0,.06,0,.1,0,.14l0,.1-.06.08a.73.73,0,0,1-.19.1,3.15,3.15,0,0,1-.4.13,5.53,5.53,0,0,1-.55.1,3.58,3.58,0,0,1-.67.05,3.48,3.48,0,0,1-1.12-.16,2,2,0,0,1-.8-.49,1.9,1.9,0,0,1-.48-.83,4.16,4.16,0,0,1,0-2.32,2.45,2.45,0,0,1,.48-.87,2,2,0,0,1,.77-.54,2.54,2.54,0,0,1,1-.19,2.85,2.85,0,0,1,1,.17,1.82,1.82,0,0,1,.7.5,1.91,1.91,0,0,1,.41.74,3.48,3.48,0,0,1,.13.93ZM101,36.51a1.33,1.33,0,0,0-.22-.89.9.9,0,0,0-.76-.33,1.06,1.06,0,0,0-.45.1.86.86,0,0,0-.31.26,1.2,1.2,0,0,0-.2.39,1.78,1.78,0,0,0-.07.47Z"/><path d="M111.46,39.42a.13.13,0,0,1,0,.1.23.23,0,0,1-.11.07l-.22,0-.34,0-.34,0a1,1,0,0,1-.22,0,.23.23,0,0,1-.11-.07.17.17,0,0,1,0-.1V36.61h-2.6v2.81a.13.13,0,0,1,0,.1.23.23,0,0,1-.11.07.87.87,0,0,1-.21,0l-.35,0-.34,0-.22,0a.23.23,0,0,1-.11-.07.13.13,0,0,1,0-.1V32.86a.13.13,0,0,1,0-.1.23.23,0,0,1,.11-.07l.22,0,.34,0,.35,0,.21,0a.23.23,0,0,1,.11.07.13.13,0,0,1,0,.1v2.55h2.6V32.86a.17.17,0,0,1,0-.1.23.23,0,0,1,.11-.07l.22,0,.34,0,.34,0,.22,0a.23.23,0,0,1,.11.07.13.13,0,0,1,0,.1Z"/><path d="M114.35,33a.79.79,0,0,1-.17.57,1,1,0,0,1-.62.15.9.9,0,0,1-.61-.15.71.71,0,0,1-.16-.54.79.79,0,0,1,.16-.57.94.94,0,0,1,.62-.16.87.87,0,0,1,.62.16A.76.76,0,0,1,114.35,33Zm-.1,6.41a.13.13,0,0,1,0,.1.23.23,0,0,1-.11.07l-.2,0h-.66l-.21,0a.3.3,0,0,1-.11-.07.17.17,0,0,1,0-.1V34.65a.16.16,0,0,1,0-.09.3.3,0,0,1,.11-.07.93.93,0,0,1,.21-.05h.66l.2.05a.23.23,0,0,1,.11.07.12.12,0,0,1,0,.09Z"/><path d="M120.14,39.43a.15.15,0,0,1,0,.1.22.22,0,0,1-.09.07.6.6,0,0,1-.18,0h-.55a.61.61,0,0,1-.17,0,.2.2,0,0,1-.1-.07.15.15,0,0,1,0-.1V38.9a2.92,2.92,0,0,1-.77.62,1.82,1.82,0,0,1-.9.22,1.88,1.88,0,0,1-.93-.21,1.78,1.78,0,0,1-.62-.57,2.43,2.43,0,0,1-.34-.84,4.83,4.83,0,0,1-.11-1,4.12,4.12,0,0,1,.14-1.15,2.49,2.49,0,0,1,.4-.87,1.73,1.73,0,0,1,.65-.55,2,2,0,0,1,.9-.19,1.64,1.64,0,0,1,.74.16,2.67,2.67,0,0,1,.64.48V32.39a.17.17,0,0,1,0-.1.23.23,0,0,1,.11-.07.81.81,0,0,1,.21,0h.65a.81.81,0,0,1,.21,0,.3.3,0,0,1,.11.07.17.17,0,0,1,0,.1Zm-1.35-3.2a2.93,2.93,0,0,0-.55-.56,1,1,0,0,0-.56-.19.85.85,0,0,0-.45.13,1,1,0,0,0-.31.35,2.45,2.45,0,0,0-.17.5,2.51,2.51,0,0,0-.06.55,3.81,3.81,0,0,0,0,.59,2.35,2.35,0,0,0,.16.51,1,1,0,0,0,.29.35.79.79,0,0,0,.47.14,1.26,1.26,0,0,0,.27,0,1,1,0,0,0,.27-.14,2.6,2.6,0,0,0,.28-.23,4.6,4.6,0,0,0,.31-.37Z"/><path d="M124.57,35.09a3,3,0,0,1,0,.32.84.84,0,0,1,0,.19.14.14,0,0,1-.06.1l-.08,0a.18.18,0,0,1-.1,0l-.12,0-.15,0h-.18a.57.57,0,0,0-.22,0,1,1,0,0,0-.24.14,2.11,2.11,0,0,0-.25.26,3.86,3.86,0,0,0-.28.4v3a.17.17,0,0,1,0,.1.23.23,0,0,1-.11.07l-.21,0h-.66l-.2,0a.23.23,0,0,1-.11-.07.17.17,0,0,1,0-.1V34.64a.15.15,0,0,1,0-.09.2.2,0,0,1,.1-.07l.18,0h.56a.53.53,0,0,1,.17,0s.08,0,.09.07a.16.16,0,0,1,0,.09v.6a3.75,3.75,0,0,1,.35-.44,2.45,2.45,0,0,1,.32-.28.81.81,0,0,1,.3-.14,1,1,0,0,1,.3,0h.15l.17,0,.15,0,.1.06a.15.15,0,0,1,0,.06s0,0,0,.08,0,.1,0,.17Z"/><path d="M130.12,37a3.93,3.93,0,0,1-.16,1.12,2.48,2.48,0,0,1-.49.87,2.26,2.26,0,0,1-.82.56,3.16,3.16,0,0,1-1.16.2,3.07,3.07,0,0,1-1.11-.18,2.08,2.08,0,0,1-.79-.51,2.28,2.28,0,0,1-.46-.84,3.8,3.8,0,0,1-.15-1.12,3.6,3.6,0,0,1,.17-1.12,2.32,2.32,0,0,1,.49-.87,2.18,2.18,0,0,1,.82-.56,2.89,2.89,0,0,1,1.15-.2,3.43,3.43,0,0,1,1.12.17,2,2,0,0,1,.78.52,2.16,2.16,0,0,1,.46.83A3.87,3.87,0,0,1,130.12,37Zm-1.39,0a3.34,3.34,0,0,0-.06-.65,1.6,1.6,0,0,0-.19-.52,1,1,0,0,0-.36-.34,1.16,1.16,0,0,0-.56-.12,1.12,1.12,0,0,0-.53.11,1,1,0,0,0-.37.32,1.48,1.48,0,0,0-.21.51,2.76,2.76,0,0,0-.08.68,3.34,3.34,0,0,0,.06.65,1.6,1.6,0,0,0,.19.52.9.9,0,0,0,.36.34,1.19,1.19,0,0,0,.56.12,1.25,1.25,0,0,0,.53-.11,1,1,0,0,0,.37-.32,1.49,1.49,0,0,0,.22-.51A3.31,3.31,0,0,0,128.73,37Z"/><path d="M41.24,49v.23a1.57,1.57,0,0,1,0,.16.81.81,0,0,1,0,.11.31.31,0,0,1-.08.1,1.33,1.33,0,0,1-.22.15,2.43,2.43,0,0,1-.36.16,3.16,3.16,0,0,1-.91.16,2.48,2.48,0,0,1-1-.18,1.91,1.91,0,0,1-.72-.5,2.22,2.22,0,0,1-.43-.82,3.77,3.77,0,0,1-.15-1.11,3.82,3.82,0,0,1,.18-1.24,2.31,2.31,0,0,1,.5-.87,2,2,0,0,1,.76-.51,2.78,2.78,0,0,1,1-.17,3,3,0,0,1,.42,0,2.22,2.22,0,0,1,.39.1,1.91,1.91,0,0,1,.32.15,1,1,0,0,1,.2.14.31.31,0,0,1,.08.1.23.23,0,0,1,0,.1.7.7,0,0,1,0,.16,1.55,1.55,0,0,1,0,.23,1.46,1.46,0,0,1,0,.44c0,.08-.08.12-.14.12a.3.3,0,0,1-.19-.07L40.59,46a1.69,1.69,0,0,0-.33-.17,1.27,1.27,0,0,0-.46-.07.93.93,0,0,0-.81.4,2.15,2.15,0,0,0-.28,1.19,3.49,3.49,0,0,0,.07.69,1.57,1.57,0,0,0,.21.49,1,1,0,0,0,.34.3,1.21,1.21,0,0,0,.48.1,1.22,1.22,0,0,0,.49-.09,1.64,1.64,0,0,0,.35-.18l.25-.19a.36.36,0,0,1,.17-.08.11.11,0,0,1,.08,0,.15.15,0,0,1,.05.1.45.45,0,0,1,0,.18A2.44,2.44,0,0,1,41.24,49Z"/><path d="M46.76,49.76a.16.16,0,0,1,0,.1.2.2,0,0,1-.1.07l-.17,0H45.9l-.17,0s-.08,0-.09-.07a.17.17,0,0,1,0-.1v-.55a3.3,3.3,0,0,1-.81.65,1.84,1.84,0,0,1-.85.21,1.86,1.86,0,0,1-.83-.16,1.56,1.56,0,0,1-.54-.44,1.76,1.76,0,0,1-.3-.65,3.88,3.88,0,0,1-.09-.91V45a.16.16,0,0,1,0-.09.23.23,0,0,1,.11-.07.87.87,0,0,1,.21,0h.65a.87.87,0,0,1,.21,0,.23.23,0,0,1,.11.07.16.16,0,0,1,0,.09v2.71a2.82,2.82,0,0,0,.05.58,1,1,0,0,0,.15.34.76.76,0,0,0,.25.22.8.8,0,0,0,.36.07.93.93,0,0,0,.52-.18,3.54,3.54,0,0,0,.55-.55V45a.16.16,0,0,1,0-.09.23.23,0,0,1,.11-.07.87.87,0,0,1,.21,0h.65a.77.77,0,0,1,.2,0,.23.23,0,0,1,.11.07.16.16,0,0,1,0,.09Z"/><path d="M52.55,47.23a.52.52,0,0,1-.11.36.41.41,0,0,1-.3.12H49.22a2,2,0,0,0,.07.56,1.06,1.06,0,0,0,.23.42,1,1,0,0,0,.41.27,1.8,1.8,0,0,0,.6.09,3.7,3.7,0,0,0,.62,0l.47-.11.32-.12a.76.76,0,0,1,.21-.05l.08,0a.22.22,0,0,1,.06.07,1.3,1.3,0,0,1,0,.13v.43c0,.06,0,.1,0,.14l0,.1-.06.08a.58.58,0,0,1-.19.1,2.69,2.69,0,0,1-.4.13l-.55.11a4.73,4.73,0,0,1-.67,0,3.42,3.42,0,0,1-1.11-.16,2.07,2.07,0,0,1-.81-.49,2.11,2.11,0,0,1-.48-.83,4,4,0,0,1-.16-1.17A3.75,3.75,0,0,1,48,46.27a2.45,2.45,0,0,1,.48-.87,2,2,0,0,1,.77-.54,2.63,2.63,0,0,1,1-.19,2.88,2.88,0,0,1,1,.17,2,2,0,0,1,.7.5,2,2,0,0,1,.4.74,3.12,3.12,0,0,1,.13.93Zm-1.31-.39A1.39,1.39,0,0,0,51,46a.87.87,0,0,0-.76-.33,1,1,0,0,0-.44.1.82.82,0,0,0-.32.26,1.18,1.18,0,0,0-.19.39,1.78,1.78,0,0,0-.08.47Z"/><path d="M58.24,49.76a.13.13,0,0,1,0,.1.2.2,0,0,1-.1.07l-.21,0h-.66l-.2,0a.23.23,0,0,1-.11-.07.17.17,0,0,1,0-.1V47a2.57,2.57,0,0,0,0-.55,1.52,1.52,0,0,0-.15-.34.75.75,0,0,0-.25-.22.8.8,0,0,0-.36-.08,1,1,0,0,0-.52.19,3.16,3.16,0,0,0-.55.55v3.18a.17.17,0,0,1,0,.1.23.23,0,0,1-.11.07l-.21,0H54l-.21,0a.23.23,0,0,1-.11-.07.17.17,0,0,1,0-.1V45a.16.16,0,0,1,0-.09s.05-.05.09-.07l.18,0h.56a.6.6,0,0,1,.18,0,.22.22,0,0,1,.09.07.16.16,0,0,1,0,.09v.56a3.09,3.09,0,0,1,.8-.65,1.88,1.88,0,0,1,.86-.21,1.82,1.82,0,0,1,.82.16,1.41,1.41,0,0,1,.55.44,2.1,2.1,0,0,1,.3.64,3.87,3.87,0,0,1,.09.89Z"/><path d="M62.3,49.29a1.6,1.6,0,0,1,0,.36.32.32,0,0,1-.22.27l-.22.07-.28,0h-.3a2,2,0,0,1-.69-.1,1.18,1.18,0,0,1-.49-.31,1.27,1.27,0,0,1-.29-.54,2.83,2.83,0,0,1-.09-.76V45.89h-.57c-.07,0-.12,0-.16-.13a1.35,1.35,0,0,1-.05-.42,1.93,1.93,0,0,1,0-.26.53.53,0,0,1,0-.17.17.17,0,0,1,.07-.09.16.16,0,0,1,.09,0h.57V43.72a.19.19,0,0,1,0-.1.35.35,0,0,1,.11-.07.87.87,0,0,1,.21,0h.65a.87.87,0,0,1,.21,0,.35.35,0,0,1,.11.07.19.19,0,0,1,0,.1v1.07h1a.17.17,0,0,1,.1,0,.16.16,0,0,1,.06.09.53.53,0,0,1,0,.17,1.72,1.72,0,0,1,0,.26,1.06,1.06,0,0,1-.06.42.18.18,0,0,1-.15.13H61v2.25a1.18,1.18,0,0,0,.12.59.49.49,0,0,0,.44.19l.2,0,.15,0,.11,0a.15.15,0,0,1,.09,0,.07.07,0,0,1,.06,0s0,0,0,.07,0,.09,0,.15A1.69,1.69,0,0,1,62.3,49.29Z"/><path d="M67.25,49.78a.14.14,0,0,1-.06.12A.3.3,0,0,1,67,50l-.35,0-.35,0a.26.26,0,0,1-.15-.06.17.17,0,0,1-.05-.12V49.4a2.1,2.1,0,0,1-.67.49,2,2,0,0,1-.84.18,2.3,2.3,0,0,1-.71-.1,1.7,1.7,0,0,1-.55-.29,1.45,1.45,0,0,1-.36-.49,1.59,1.59,0,0,1-.13-.68,1.54,1.54,0,0,1,.16-.73,1.38,1.38,0,0,1,.49-.5,2.28,2.28,0,0,1,.81-.3,5.36,5.36,0,0,1,1.12-.1h.47v-.29a1.64,1.64,0,0,0,0-.4.84.84,0,0,0-.15-.28.71.71,0,0,0-.28-.16,1.37,1.37,0,0,0-.44-.06,2.23,2.23,0,0,0-.6.08,2.32,2.32,0,0,0-.47.17l-.34.16a.54.54,0,0,1-.22.08A.19.19,0,0,1,63.2,46a.69.69,0,0,1-.05-.17,1.52,1.52,0,0,1,0-.23.93.93,0,0,1,0-.26.42.42,0,0,1,.1-.17,1,1,0,0,1,.27-.18,2.7,2.7,0,0,1,.44-.17,3.71,3.71,0,0,1,.55-.13,3.08,3.08,0,0,1,.61,0,3.45,3.45,0,0,1,1,.11,1.5,1.5,0,0,1,.65.34,1.23,1.23,0,0,1,.38.58,2.75,2.75,0,0,1,.12.86Zm-1.33-2.05H65.4a2.24,2.24,0,0,0-.55.05,1.12,1.12,0,0,0-.38.14.53.53,0,0,0-.21.24.69.69,0,0,0,.12.78.75.75,0,0,0,.53.17,1,1,0,0,0,.53-.14,2.29,2.29,0,0,0,.48-.43Z"/><path d="M74.71,49a1.48,1.48,0,0,1,0,.23.63.63,0,0,1,0,.16.81.81,0,0,1,0,.11.38.38,0,0,1-.09.1,1,1,0,0,1-.22.15,2.29,2.29,0,0,1-.35.16,2.7,2.7,0,0,1-.43.11,2.61,2.61,0,0,1-.48,0,2.48,2.48,0,0,1-1-.18,1.76,1.76,0,0,1-.72-.5,2.39,2.39,0,0,1-.44-.82,3.77,3.77,0,0,1-.15-1.11A3.82,3.82,0,0,1,71,46.22a2.33,2.33,0,0,1,.51-.87,2,2,0,0,1,.76-.51,2.7,2.7,0,0,1,1-.17,3,3,0,0,1,.42,0,2.36,2.36,0,0,1,.38.1,2.52,2.52,0,0,1,.33.15,1,1,0,0,1,.2.14l.08.1a.23.23,0,0,1,0,.1s0,.1,0,.16a1.55,1.55,0,0,1,0,.23,1.15,1.15,0,0,1-.06.44c0,.08-.08.12-.14.12a.32.32,0,0,1-.19-.07L74.06,46a1.69,1.69,0,0,0-.33-.17,1.33,1.33,0,0,0-.47-.07.91.91,0,0,0-.8.4,2.07,2.07,0,0,0-.28,1.19,2.87,2.87,0,0,0,.07.69,1.37,1.37,0,0,0,.21.49.89.89,0,0,0,.34.3,1.21,1.21,0,0,0,.48.1,1.14,1.14,0,0,0,.48-.09,1.43,1.43,0,0,0,.35-.18l.26-.19a.29.29,0,0,1,.17-.08.11.11,0,0,1,.08,0,.15.15,0,0,1,0,.1s0,.11,0,.18A2.44,2.44,0,0,1,74.71,49Z"/><path d="M80.48,47.32a3.93,3.93,0,0,1-.16,1.12,2.48,2.48,0,0,1-.49.87,2.26,2.26,0,0,1-.82.56,3.16,3.16,0,0,1-1.16.2,3.07,3.07,0,0,1-1.11-.18,2,2,0,0,1-.79-.51,2.28,2.28,0,0,1-.46-.84,3.8,3.8,0,0,1-.15-1.12,3.6,3.6,0,0,1,.17-1.12,2.32,2.32,0,0,1,.49-.87,2.18,2.18,0,0,1,.82-.56,2.89,2.89,0,0,1,1.15-.2,3.43,3.43,0,0,1,1.12.17,2,2,0,0,1,.78.52,2.16,2.16,0,0,1,.46.83A3.87,3.87,0,0,1,80.48,47.32Zm-1.39,0a3.34,3.34,0,0,0-.06-.65,1.6,1.6,0,0,0-.19-.52,1,1,0,0,0-.36-.34,1.16,1.16,0,0,0-.56-.12,1.12,1.12,0,0,0-.53.11,1,1,0,0,0-.37.32,1.48,1.48,0,0,0-.21.51,2.76,2.76,0,0,0-.08.68,3.34,3.34,0,0,0,.06.65,1.87,1.87,0,0,0,.19.52.9.9,0,0,0,.36.34,1.19,1.19,0,0,0,.56.12,1.25,1.25,0,0,0,.53-.11,1,1,0,0,0,.37-.32,1.49,1.49,0,0,0,.22-.51A3.31,3.31,0,0,0,79.09,47.37Z"/><path d="M86.12,49.76a.17.17,0,0,1,0,.1.23.23,0,0,1-.11.07l-.2,0h-.66l-.21,0a.2.2,0,0,1-.1-.07.18.18,0,0,1,0-.1V47a2.05,2.05,0,0,0,0-.55,1.16,1.16,0,0,0-.14-.34.75.75,0,0,0-.25-.22.83.83,0,0,0-.36-.08.92.92,0,0,0-.52.19,2.85,2.85,0,0,0-.55.55v3.18a.17.17,0,0,1,0,.1.23.23,0,0,1-.11.07l-.21,0H81.9l-.21,0a.23.23,0,0,1-.11-.07.17.17,0,0,1,0-.1V45a.29.29,0,0,1,0-.09.2.2,0,0,1,.1-.07l.18,0h.56l.18,0s.07,0,.08.07a.16.16,0,0,1,0,.09v.56a3.3,3.3,0,0,1,.81-.65,2,2,0,0,1,1.68-.05,1.38,1.38,0,0,1,.54.44,1.72,1.72,0,0,1,.3.64,3.87,3.87,0,0,1,.09.89Z"/><path d="M94.48,49.76a.17.17,0,0,1,0,.1.22.22,0,0,1-.09.07l-.18,0h-.56l-.18,0a.22.22,0,0,1-.09-.07.17.17,0,0,1,0-.1v-.55a3.09,3.09,0,0,1-.8.65,1.88,1.88,0,0,1-.86.21,1.92,1.92,0,0,1-.83-.16,1.56,1.56,0,0,1-.54-.44,1.75,1.75,0,0,1-.29-.65,3.88,3.88,0,0,1-.09-.91V45a.16.16,0,0,1,0-.09.19.19,0,0,1,.11-.07.88.88,0,0,1,.2,0h.66a.88.88,0,0,1,.2,0,.19.19,0,0,1,.11.07.12.12,0,0,1,0,.09v2.71a2.26,2.26,0,0,0,0,.58,1.16,1.16,0,0,0,.14.34.88.88,0,0,0,.25.22.86.86,0,0,0,.36.07.91.91,0,0,0,.52-.18,3.55,3.55,0,0,0,.56-.55V45a.16.16,0,0,1,0-.09.2.2,0,0,1,.1-.07.87.87,0,0,1,.21,0h.66a.88.88,0,0,1,.2,0,.23.23,0,0,1,.11.07.16.16,0,0,1,0,.09Z"/><path d="M100.41,49.76a.17.17,0,0,1,0,.1.23.23,0,0,1-.11.07l-.2,0h-.66l-.2,0a.19.19,0,0,1-.11-.07.17.17,0,0,1,0-.1V47a2,2,0,0,0-.06-.55,1.16,1.16,0,0,0-.14-.34.75.75,0,0,0-.25-.22.8.8,0,0,0-.36-.08.92.92,0,0,0-.52.19,2.85,2.85,0,0,0-.55.55v3.18a.17.17,0,0,1,0,.1.23.23,0,0,1-.11.07l-.21,0h-.65l-.21,0a.23.23,0,0,1-.11-.07.17.17,0,0,1,0-.1V45a.29.29,0,0,1,0-.09.2.2,0,0,1,.1-.07l.18,0h.56a.6.6,0,0,1,.18,0,.22.22,0,0,1,.09.07A.29.29,0,0,1,97,45v.56a3.3,3.3,0,0,1,.81-.65,2,2,0,0,1,1.68-.05,1.31,1.31,0,0,1,.54.44,1.72,1.72,0,0,1,.3.64,3.87,3.87,0,0,1,.09.89Z"/><path d="M105.82,49.78a.17.17,0,0,1,0,.12.34.34,0,0,1-.17.06l-.34,0-.35,0a.27.27,0,0,1-.16-.06.17.17,0,0,1,0-.12V49.4a2,2,0,0,1-.67.49,1.92,1.92,0,0,1-.84.18,2.24,2.24,0,0,1-.7-.1,1.6,1.6,0,0,1-.55-.29,1.48,1.48,0,0,1-.37-.49,1.75,1.75,0,0,1-.13-.68,1.54,1.54,0,0,1,.17-.73,1.3,1.3,0,0,1,.49-.5,2.16,2.16,0,0,1,.8-.3,5.46,5.46,0,0,1,1.13-.1h.46v-.29a1.64,1.64,0,0,0,0-.4.69.69,0,0,0-.15-.28.59.59,0,0,0-.28-.16,1.35,1.35,0,0,0-.43-.06,2.25,2.25,0,0,0-.61.08,2.87,2.87,0,0,0-.47.17l-.34.16a.49.49,0,0,1-.22.08.21.21,0,0,1-.11,0,.3.3,0,0,1-.07-.11c0-.05,0-.1,0-.17a1.62,1.62,0,0,1,0-.23.93.93,0,0,1,0-.26.33.33,0,0,1,.1-.17.88.88,0,0,1,.26-.18,3.12,3.12,0,0,1,.44-.17,4,4,0,0,1,.55-.13,3.12,3.12,0,0,1,.62,0,3.43,3.43,0,0,1,1,.11,1.48,1.48,0,0,1,.66.34,1.29,1.29,0,0,1,.37.58,2.75,2.75,0,0,1,.12.86Zm-1.33-2.05H104a2.28,2.28,0,0,0-.56.05,1.06,1.06,0,0,0-.37.14.63.63,0,0,0-.22.24.75.75,0,0,0-.06.31.58.58,0,0,0,.19.47.72.72,0,0,0,.53.17A1,1,0,0,0,104,49a2.07,2.07,0,0,0,.48-.43Z"/><path d="M113,48.41a1.66,1.66,0,0,1-.15.72,1.48,1.48,0,0,1-.44.52,1.85,1.85,0,0,1-.66.32,3.07,3.07,0,0,1-.82.1,3,3,0,0,1-.52,0,4.13,4.13,0,0,1-.44-.1,1.93,1.93,0,0,1-.32-.13.78.78,0,0,1-.19-.12.5.5,0,0,1-.09-.18,1.56,1.56,0,0,1,0-.35,1.7,1.7,0,0,1,0-.25,1,1,0,0,1,0-.15.18.18,0,0,1,.06-.08l.08,0a.43.43,0,0,1,.17.07l.29.15.4.15a2,2,0,0,0,.52.07,1.47,1.47,0,0,0,.32,0,.64.64,0,0,0,.25-.11.44.44,0,0,0,.16-.17.53.53,0,0,0,0-.25.4.4,0,0,0-.1-.28.78.78,0,0,0-.26-.2,2.57,2.57,0,0,0-.37-.16l-.42-.17a3.42,3.42,0,0,1-.43-.21,1.48,1.48,0,0,1-.37-.29,1.15,1.15,0,0,1-.26-.41,1.47,1.47,0,0,1-.1-.58,1.45,1.45,0,0,1,.13-.63,1.33,1.33,0,0,1,.39-.49,1.86,1.86,0,0,1,.61-.32,2.67,2.67,0,0,1,.82-.11,3.25,3.25,0,0,1,.44,0l.38.08.29.1.17.1s.06.05.07.08a.17.17,0,0,1,0,.1.52.52,0,0,1,0,.14,1.22,1.22,0,0,1,0,.21,1.55,1.55,0,0,1,0,.23.61.61,0,0,1,0,.15s0,.06-.06.07l-.07,0a.37.37,0,0,1-.15-.06,1.62,1.62,0,0,0-.26-.12l-.35-.12a1.65,1.65,0,0,0-.46-.06,1.47,1.47,0,0,0-.32,0,.65.65,0,0,0-.22.11.51.51,0,0,0-.13.16.65.65,0,0,0,0,.2.39.39,0,0,0,.1.28,1,1,0,0,0,.27.2,2.72,2.72,0,0,0,.38.16l.43.17a4.14,4.14,0,0,1,.43.2,1.82,1.82,0,0,1,.38.29,1.32,1.32,0,0,1,.37,1Z"/><path d="M118.47,47.23a.52.52,0,0,1-.11.36.38.38,0,0,1-.3.12h-2.92a2,2,0,0,0,.07.56,1.06,1.06,0,0,0,.23.42,1,1,0,0,0,.41.27,1.8,1.8,0,0,0,.6.09,3.61,3.61,0,0,0,.62,0l.47-.11.32-.12a.76.76,0,0,1,.21-.05.15.15,0,0,1,.08,0,.22.22,0,0,1,.06.07,1.3,1.3,0,0,1,0,.13v.43a.52.52,0,0,1,0,.14.17.17,0,0,1,0,.1.21.21,0,0,1-.06.08.58.58,0,0,1-.19.1,2.94,2.94,0,0,1-.39.13L117,50a4.59,4.59,0,0,1-.66,0,3.44,3.44,0,0,1-1.12-.16,2.07,2.07,0,0,1-.81-.49,2.11,2.11,0,0,1-.48-.83,4.06,4.06,0,0,1-.15-1.17,3.76,3.76,0,0,1,.16-1.15,2.45,2.45,0,0,1,.48-.87,2,2,0,0,1,.78-.54,2.54,2.54,0,0,1,1-.19,2.88,2.88,0,0,1,1,.17,1.89,1.89,0,0,1,1.1,1.24,3.12,3.12,0,0,1,.13.93Zm-1.31-.39a1.39,1.39,0,0,0-.23-.89.87.87,0,0,0-.75-.33,1,1,0,0,0-.45.1.9.9,0,0,0-.32.26,1.18,1.18,0,0,0-.19.39,1.78,1.78,0,0,0-.08.47Z"/><path d="M122.66,45.42a3,3,0,0,1,0,.32c0,.08,0,.14,0,.19a.29.29,0,0,1-.06.1l-.09,0a.2.2,0,0,1-.1,0l-.12,0-.14,0h-.18a.62.62,0,0,0-.23,0,1.18,1.18,0,0,0-.23.14,2.11,2.11,0,0,0-.25.26,3.86,3.86,0,0,0-.28.4v3a.18.18,0,0,1,0,.1.23.23,0,0,1-.11.07l-.2,0h-.66l-.21,0a.3.3,0,0,1-.11-.07.17.17,0,0,1,0-.1V45a.16.16,0,0,1,0-.09.2.2,0,0,1,.1-.07.6.6,0,0,1,.18,0h.56a.61.61,0,0,1,.17,0,.22.22,0,0,1,.09.07.16.16,0,0,1,0,.09v.6a2.93,2.93,0,0,1,.35-.44,1.94,1.94,0,0,1,.32-.28.81.81,0,0,1,.3-.14,1,1,0,0,1,.3,0h.15l.17,0,.15,0,.09.06a.07.07,0,0,1,0,.06l0,.08a.81.81,0,0,1,0,.17A2.73,2.73,0,0,1,122.66,45.42Z"/><path d="M125,43.35a.79.79,0,0,1-.17.57,1,1,0,0,1-.62.15.9.9,0,0,1-.61-.15.71.71,0,0,1-.16-.54.79.79,0,0,1,.16-.57.94.94,0,0,1,.62-.16.87.87,0,0,1,.62.16A.76.76,0,0,1,125,43.35Zm-.1,6.41a.18.18,0,0,1,0,.1.23.23,0,0,1-.11.07l-.2,0h-.66l-.21,0a.3.3,0,0,1-.11-.07.17.17,0,0,1,0-.1V45a.16.16,0,0,1,0-.09.3.3,0,0,1,.11-.07.6.6,0,0,1,.21,0,2.73,2.73,0,0,1,.66,0,.54.54,0,0,1,.2,0,.23.23,0,0,1,.11.07.18.18,0,0,1,0,.09Z"/><path d="M130.62,47.23a.52.52,0,0,1-.11.36.39.39,0,0,1-.3.12h-2.92a2,2,0,0,0,.07.56,1.06,1.06,0,0,0,.23.42A1,1,0,0,0,128,49a1.8,1.8,0,0,0,.6.09,3.7,3.7,0,0,0,.62,0l.47-.11a2.2,2.2,0,0,0,.32-.12.76.76,0,0,1,.21-.05l.08,0a.22.22,0,0,1,.06.07,1.3,1.3,0,0,1,0,.13v.43c0,.06,0,.1,0,.14l0,.1-.06.08a.58.58,0,0,1-.19.1,2.94,2.94,0,0,1-.39.13l-.56.11a4.68,4.68,0,0,1-.66,0,3.44,3.44,0,0,1-1.12-.16,2.07,2.07,0,0,1-.81-.49,2.11,2.11,0,0,1-.48-.83,4,4,0,0,1-.16-1.17,3.75,3.75,0,0,1,.17-1.15,2.45,2.45,0,0,1,.48-.87,2.07,2.07,0,0,1,.77-.54,2.63,2.63,0,0,1,1-.19,2.88,2.88,0,0,1,1,.17,2,2,0,0,1,.7.5,2,2,0,0,1,.4.74,3.12,3.12,0,0,1,.13.93Zm-1.31-.39a1.39,1.39,0,0,0-.23-.89.87.87,0,0,0-.76-.33,1,1,0,0,0-.44.1.82.82,0,0,0-.32.26,1.18,1.18,0,0,0-.19.39,1.78,1.78,0,0,0-.08.47Z"/><path d="M46.06,60.09a.15.15,0,0,1,0,.1.22.22,0,0,1-.09.07.6.6,0,0,1-.18,0h-.55a.61.61,0,0,1-.17,0,.2.2,0,0,1-.1-.07.15.15,0,0,1,0-.1v-.53a2.92,2.92,0,0,1-.77.62,1.82,1.82,0,0,1-.9.22,1.88,1.88,0,0,1-.93-.21,1.78,1.78,0,0,1-.62-.57,2.43,2.43,0,0,1-.34-.84,4.25,4.25,0,0,1-.11-1,4.12,4.12,0,0,1,.14-1.15,2.49,2.49,0,0,1,.4-.87,1.73,1.73,0,0,1,.65-.55,2,2,0,0,1,.9-.19,1.57,1.57,0,0,1,.73.16,2.53,2.53,0,0,1,.65.48V53.05a.17.17,0,0,1,0-.1.23.23,0,0,1,.11-.07.81.81,0,0,1,.21-.05h.65a.81.81,0,0,1,.21.05A.2.2,0,0,1,46,53a.13.13,0,0,1,0,.1Zm-1.35-3.2a3.26,3.26,0,0,0-.55-.56,1,1,0,0,0-.56-.19.85.85,0,0,0-.45.13,1,1,0,0,0-.31.35,2,2,0,0,0-.17.49,2.67,2.67,0,0,0-.06.56,3.81,3.81,0,0,0,0,.59,1.91,1.91,0,0,0,.16.51,1,1,0,0,0,.29.35.78.78,0,0,0,.46.14,1.26,1.26,0,0,0,.28,0,1,1,0,0,0,.26-.14,1.94,1.94,0,0,0,.29-.23,4.6,4.6,0,0,0,.31-.37Z"/><path d="M51.84,57.56a.52.52,0,0,1-.11.36.38.38,0,0,1-.3.12H48.51a2.38,2.38,0,0,0,.07.56,1,1,0,0,0,.24.42,1,1,0,0,0,.4.27,1.8,1.8,0,0,0,.6.09,3.83,3.83,0,0,0,.63-.05l.46-.11.33-.12a.64.64,0,0,1,.2-.05l.08,0s0,0,.06.07a1.06,1.06,0,0,1,0,.14s0,.13,0,.22,0,.14,0,.2a.59.59,0,0,1,0,.14.17.17,0,0,1,0,.1.35.35,0,0,1-.05.08,1,1,0,0,1-.19.1,3.79,3.79,0,0,1-.4.13l-.56.11c-.2,0-.43,0-.66,0a3.44,3.44,0,0,1-1.12-.16,2,2,0,0,1-.8-.49,2,2,0,0,1-.49-.83,4.06,4.06,0,0,1-.15-1.17,3.76,3.76,0,0,1,.16-1.15,2.32,2.32,0,0,1,.49-.87,1.92,1.92,0,0,1,.77-.54,2.54,2.54,0,0,1,1-.19,2.88,2.88,0,0,1,1,.17,1.9,1.9,0,0,1,.7.5,1.83,1.83,0,0,1,.4.74,3.12,3.12,0,0,1,.13.93Zm-1.31-.39a1.33,1.33,0,0,0-.23-.89.87.87,0,0,0-.75-.33.93.93,0,0,0-.45.1.9.9,0,0,0-.32.26,1.18,1.18,0,0,0-.19.39,1.78,1.78,0,0,0-.08.47Z"/><path d="M58.33,53.48c0,.1,0,.18,0,.25a1.06,1.06,0,0,1,0,.14s0,.06,0,.07l-.06,0-.08,0-.12,0-.16,0-.21,0a.62.62,0,0,0-.25,0,.49.49,0,0,0-.18.14.88.88,0,0,0-.1.26,2.21,2.21,0,0,0,0,.39v.44h.88a.11.11,0,0,1,.08,0,.17.17,0,0,1,.07.09.53.53,0,0,1,0,.16,2,2,0,0,1,0,.27,1.06,1.06,0,0,1-.06.42.18.18,0,0,1-.15.13h-.88v3.87a.17.17,0,0,1,0,.1.35.35,0,0,1-.11.07,1,1,0,0,1-.21,0l-.33,0-.32,0a1,1,0,0,1-.21,0,.35.35,0,0,1-.11-.07.17.17,0,0,1,0-.1V56.22h-.6c-.07,0-.12,0-.15-.13a1.1,1.1,0,0,1-.05-.42,2.18,2.18,0,0,1,0-.27.53.53,0,0,1,0-.16.16.16,0,0,1,.06-.09.17.17,0,0,1,.1,0h.59v-.4a3.63,3.63,0,0,1,.1-.86,1.4,1.4,0,0,1,.3-.61,1.34,1.34,0,0,1,.53-.37,2.11,2.11,0,0,1,.75-.12,2.5,2.5,0,0,1,.4,0l.3.08a.35.35,0,0,1,.14.07.21.21,0,0,1,.06.1.8.8,0,0,1,0,.18C58.32,53.29,58.33,53.37,58.33,53.48Z"/><path d="M63.46,60.09a.3.3,0,0,1,0,.1.29.29,0,0,1-.1.07.65.65,0,0,1-.17,0l-.28,0-.29,0a.65.65,0,0,1-.17,0,.17.17,0,0,1-.09-.07.17.17,0,0,1,0-.1v-.55a3.3,3.3,0,0,1-.81.65,1.84,1.84,0,0,1-.85.21,1.86,1.86,0,0,1-.83-.16,1.48,1.48,0,0,1-.54-.44,1.76,1.76,0,0,1-.3-.65,3.88,3.88,0,0,1-.09-.91V55.3a.16.16,0,0,1,0-.09.23.23,0,0,1,.11-.07.87.87,0,0,1,.21,0h.65a.87.87,0,0,1,.21,0,.23.23,0,0,1,.11.07.16.16,0,0,1,0,.09V58a2.65,2.65,0,0,0,0,.57.93.93,0,0,0,.15.35.76.76,0,0,0,.25.22.8.8,0,0,0,.36.07.93.93,0,0,0,.52-.18,3.54,3.54,0,0,0,.55-.55V55.3a.16.16,0,0,1,0-.09.23.23,0,0,1,.11-.07.88.88,0,0,1,.2,0h.66a.77.77,0,0,1,.2,0,.23.23,0,0,1,.11.07.16.16,0,0,1,0,.09Z"/><path d="M69.4,60.09a.17.17,0,0,1,0,.1.52.52,0,0,1-.11.07,1,1,0,0,1-.21,0l-.32,0-.33,0a1,1,0,0,1-.21,0,.35.35,0,0,1-.11-.07.17.17,0,0,1,0-.1V57.36a2.57,2.57,0,0,0,0-.55,1.17,1.17,0,0,0-.15-.34.67.67,0,0,0-.25-.22.8.8,0,0,0-.36-.08,1,1,0,0,0-.52.19,2.83,2.83,0,0,0-.54.55v3.18a.18.18,0,0,1,0,.1.35.35,0,0,1-.11.07.94.94,0,0,1-.2,0l-.33,0-.33,0a1.05,1.05,0,0,1-.21,0,.52.52,0,0,1-.11-.07.17.17,0,0,1,0-.1V55.3a.16.16,0,0,1,0-.09.2.2,0,0,1,.1-.07.6.6,0,0,1,.18,0h.56a.61.61,0,0,1,.17,0,.22.22,0,0,1,.09.07.16.16,0,0,1,0,.09v.56a3.09,3.09,0,0,1,.8-.65,2,2,0,0,1,1.69-.05,1.46,1.46,0,0,1,.54.44,1.72,1.72,0,0,1,.3.64,3.87,3.87,0,0,1,.09.89Z"/><path d="M74.35,59.33a1.55,1.55,0,0,1,0,.23.63.63,0,0,1,0,.16.81.81,0,0,1,0,.11.26.26,0,0,1-.09.1,1.16,1.16,0,0,1-.21.15,3,3,0,0,1-.36.16l-.43.11a2.59,2.59,0,0,1-.48,0,2.49,2.49,0,0,1-1-.17,1.7,1.7,0,0,1-.72-.51,2.25,2.25,0,0,1-.44-.81,4.27,4.27,0,0,1,0-2.35,2.33,2.33,0,0,1,.51-.87,2,2,0,0,1,.76-.51,2.7,2.7,0,0,1,1-.17,3,3,0,0,1,.42,0,2.36,2.36,0,0,1,.38.1,2.52,2.52,0,0,1,.33.15,1,1,0,0,1,.2.14l.08.1a.23.23,0,0,1,0,.1.7.7,0,0,1,0,.16,1.55,1.55,0,0,1,0,.23,1.09,1.09,0,0,1-.06.43c0,.09-.08.13-.13.13a.32.32,0,0,1-.2-.07l-.24-.17a1.69,1.69,0,0,0-.33-.17,1.33,1.33,0,0,0-.47-.07.91.91,0,0,0-.8.4,2.07,2.07,0,0,0-.28,1.19,2.73,2.73,0,0,0,.07.68,1.54,1.54,0,0,0,.21.5.89.89,0,0,0,.34.3,1.21,1.21,0,0,0,.48.1,1.14,1.14,0,0,0,.48-.09,1.43,1.43,0,0,0,.35-.18l.26-.19a.29.29,0,0,1,.17-.08.11.11,0,0,1,.08,0,.19.19,0,0,1,0,.1s0,.11,0,.18A2.44,2.44,0,0,1,74.35,59.33Z"/><path d="M76.78,53.68a.75.75,0,0,1-.16.56.89.89,0,0,1-.62.16,1,1,0,0,1-.62-.15.76.76,0,0,1-.15-.54.79.79,0,0,1,.16-.57A.89.89,0,0,1,76,53a.86.86,0,0,1,.61.16A.71.71,0,0,1,76.78,53.68Zm-.1,6.41a.17.17,0,0,1,0,.1.35.35,0,0,1-.11.07,1,1,0,0,1-.21,0l-.33,0-.32,0a1,1,0,0,1-.21,0,.35.35,0,0,1-.11-.07.17.17,0,0,1,0-.1V55.31a.16.16,0,0,1,0-.09.23.23,0,0,1,.11-.07.81.81,0,0,1,.21,0h.65a.81.81,0,0,1,.21,0,.23.23,0,0,1,.11.07.16.16,0,0,1,0,.09Z"/><path d="M82.87,57.65a3.61,3.61,0,0,1-.16,1.12,2.34,2.34,0,0,1-.49.87,2.1,2.1,0,0,1-.82.56,3.11,3.11,0,0,1-1.15.2,3.07,3.07,0,0,1-1.11-.18,2,2,0,0,1-.79-.51,2.14,2.14,0,0,1-.46-.84,3.84,3.84,0,0,1-.15-1.12,3.57,3.57,0,0,1,.16-1.12,2.46,2.46,0,0,1,.49-.87,2.41,2.41,0,0,1,.82-.57A3.13,3.13,0,0,1,80.37,55a3.09,3.09,0,0,1,1.11.17,2,2,0,0,1,.78.51,2.14,2.14,0,0,1,.46.84A3.87,3.87,0,0,1,82.87,57.65Zm-1.39.05a4.4,4.4,0,0,0,0-.65,1.87,1.87,0,0,0-.19-.52,1,1,0,0,0-.36-.34,1.19,1.19,0,0,0-.56-.12,1.12,1.12,0,0,0-.53.11,1,1,0,0,0-.37.32,1.49,1.49,0,0,0-.22.51,2.79,2.79,0,0,0-.07.68,3.34,3.34,0,0,0,.06.65,1.6,1.6,0,0,0,.19.52.9.9,0,0,0,.36.34,1.16,1.16,0,0,0,.56.12,1.25,1.25,0,0,0,.53-.11,1,1,0,0,0,.37-.32,1.48,1.48,0,0,0,.21-.51A2.73,2.73,0,0,0,81.48,57.7Z"/><path d="M88.52,60.09a.17.17,0,0,1,0,.1.35.35,0,0,1-.11.07,1,1,0,0,1-.21,0l-.32,0-.33,0a1,1,0,0,1-.21,0,.52.52,0,0,1-.11-.07.17.17,0,0,1,0-.1V57.36a2.57,2.57,0,0,0,0-.55,1,1,0,0,0-.15-.34.67.67,0,0,0-.25-.22.78.78,0,0,0-.35-.08,1,1,0,0,0-.53.19,3.14,3.14,0,0,0-.54.55v3.18a.13.13,0,0,1,0,.1.26.26,0,0,1-.11.07.94.94,0,0,1-.2,0l-.33,0-.33,0a.94.94,0,0,1-.2,0,.26.26,0,0,1-.11-.07.13.13,0,0,1,0-.1V55.3a.16.16,0,0,1,0-.09.2.2,0,0,1,.1-.07.6.6,0,0,1,.18,0h.56a.61.61,0,0,1,.17,0,.22.22,0,0,1,.09.07.16.16,0,0,1,0,.09v.56a3,3,0,0,1,.81-.65,1.84,1.84,0,0,1,.85-.21,1.89,1.89,0,0,1,.83.16,1.46,1.46,0,0,1,.54.44,1.72,1.72,0,0,1,.3.64,3.87,3.87,0,0,1,.09.89Z"/><path d="M93.93,60.11a.14.14,0,0,1-.06.12.3.3,0,0,1-.17.06l-.34,0-.35,0a.26.26,0,0,1-.15-.06.17.17,0,0,1,0-.12v-.38a2.1,2.1,0,0,1-.67.49,2,2,0,0,1-.84.18,2.3,2.3,0,0,1-.71-.1A1.7,1.7,0,0,1,90,60a1.45,1.45,0,0,1-.36-.49,1.59,1.59,0,0,1-.13-.68,1.54,1.54,0,0,1,.16-.73,1.38,1.38,0,0,1,.49-.5,2.28,2.28,0,0,1,.81-.3,5.36,5.36,0,0,1,1.12-.1h.47v-.29a1.51,1.51,0,0,0,0-.39.68.68,0,0,0-.16-.29.61.61,0,0,0-.27-.16,1.42,1.42,0,0,0-.44-.06,2.23,2.23,0,0,0-.6.08,3.2,3.2,0,0,0-.47.16l-.34.17a.54.54,0,0,1-.22.08.21.21,0,0,1-.11,0,.31.31,0,0,1-.08-.11s0-.1,0-.17a1.52,1.52,0,0,1,0-.23.93.93,0,0,1,0-.26.42.42,0,0,1,.1-.17,1,1,0,0,1,.27-.18,2.7,2.7,0,0,1,.44-.17,3.71,3.71,0,0,1,.55-.13,3.08,3.08,0,0,1,.61,0,3.45,3.45,0,0,1,1,.11,1.6,1.6,0,0,1,.65.33,1.31,1.31,0,0,1,.38.59,2.75,2.75,0,0,1,.12.86Zm-1.33-2h-.52a2.24,2.24,0,0,0-.55,0,1.12,1.12,0,0,0-.38.14.53.53,0,0,0-.21.24.69.69,0,0,0,.12.78.75.75,0,0,0,.53.17.92.92,0,0,0,.52-.14,2.1,2.1,0,0,0,.49-.43Z"/><path d="M96.63,60.09a.17.17,0,0,1,0,.1.52.52,0,0,1-.11.07,1.05,1.05,0,0,1-.21,0l-.33,0-.33,0a.94.94,0,0,1-.2,0,.35.35,0,0,1-.11-.07.17.17,0,0,1,0-.1V53a.19.19,0,0,1,0-.1.35.35,0,0,1,.11-.07l.2,0,.33,0,.33,0,.21,0a.52.52,0,0,1,.11.07.19.19,0,0,1,0,.1Z"/><path d="M99.43,53.68a.75.75,0,0,1-.16.56.91.91,0,0,1-.62.16.93.93,0,0,1-.62-.15.76.76,0,0,1-.16-.54.79.79,0,0,1,.17-.57.87.87,0,0,1,.62-.16.86.86,0,0,1,.61.16A.71.71,0,0,1,99.43,53.68Zm-.1,6.41a.17.17,0,0,1,0,.1.35.35,0,0,1-.11.07,1,1,0,0,1-.21,0l-.33,0-.33,0a.94.94,0,0,1-.2,0,.35.35,0,0,1-.11-.07.17.17,0,0,1,0-.1V55.31a.16.16,0,0,1,0-.09.23.23,0,0,1,.11-.07.83.83,0,0,1,.2,0H99a.81.81,0,0,1,.21,0,.23.23,0,0,1,.11.07.16.16,0,0,1,0,.09Z"/><path d="M105.22,60.09a.15.15,0,0,1,0,.1s0,.05-.09.07a.61.61,0,0,1-.17,0h-.55l-.18,0a.22.22,0,0,1-.09-.07.15.15,0,0,1,0-.1v-.53a3.12,3.12,0,0,1-.78.62,1.82,1.82,0,0,1-.9.22,1.87,1.87,0,0,1-.92-.21,1.7,1.7,0,0,1-.62-.57,2.44,2.44,0,0,1-.35-.84,4.83,4.83,0,0,1-.11-1,4.53,4.53,0,0,1,.14-1.15,2.69,2.69,0,0,1,.4-.87,1.76,1.76,0,0,1,.66-.55,2,2,0,0,1,.9-.19,1.6,1.6,0,0,1,.73.16,2.71,2.71,0,0,1,.65.48V53.05a.17.17,0,0,1,0-.1.19.19,0,0,1,.11-.07l.2-.05h.66l.2.05a.23.23,0,0,1,.11.07.17.17,0,0,1,0,.1Zm-1.34-3.2a3,3,0,0,0-.56-.56.9.9,0,0,0-.55-.19.86.86,0,0,0-.46.13,1,1,0,0,0-.3.35,2.05,2.05,0,0,0-.18.49,3.53,3.53,0,0,0,0,.56,2.88,2.88,0,0,0,0,.59,1.61,1.61,0,0,0,.16.51,1,1,0,0,0,.29.35.74.74,0,0,0,.46.14,1.26,1.26,0,0,0,.27,0,.87.87,0,0,0,.27-.14,1.89,1.89,0,0,0,.28-.23,4.51,4.51,0,0,0,.32-.37Z"/><path d="M110.66,60.11a.17.17,0,0,1,0,.12.34.34,0,0,1-.17.06l-.34,0-.35,0a.27.27,0,0,1-.16-.06.17.17,0,0,1,0-.12v-.38a2,2,0,0,1-.67.49,1.92,1.92,0,0,1-.84.18,2.24,2.24,0,0,1-.7-.1,1.6,1.6,0,0,1-.55-.29,1.48,1.48,0,0,1-.37-.49,1.75,1.75,0,0,1-.13-.68,1.54,1.54,0,0,1,.17-.73,1.3,1.3,0,0,1,.49-.5,2.16,2.16,0,0,1,.8-.3,5.46,5.46,0,0,1,1.13-.1h.46v-.29a1.51,1.51,0,0,0,0-.39.67.67,0,0,0-.15-.29.59.59,0,0,0-.28-.16,1.35,1.35,0,0,0-.43-.06,2.25,2.25,0,0,0-.61.08,4.29,4.29,0,0,0-.47.16l-.34.17a.49.49,0,0,1-.22.08.21.21,0,0,1-.11,0,.3.3,0,0,1-.07-.11.69.69,0,0,1,0-.17,1.62,1.62,0,0,1,0-.23,1.72,1.72,0,0,1,0-.26.45.45,0,0,1,.11-.17.88.88,0,0,1,.26-.18,3.12,3.12,0,0,1,.44-.17,4,4,0,0,1,.55-.13,3.12,3.12,0,0,1,.62,0,3.43,3.43,0,0,1,1,.11,1.58,1.58,0,0,1,.66.33,1.38,1.38,0,0,1,.37.59,2.75,2.75,0,0,1,.12.86Zm-1.33-2h-.51a2.28,2.28,0,0,0-.56,0,1.06,1.06,0,0,0-.37.14.63.63,0,0,0-.22.24.75.75,0,0,0-.06.31.58.58,0,0,0,.19.47.71.71,0,0,0,.52.17,1,1,0,0,0,.53-.14,2.07,2.07,0,0,0,.48-.43Z"/><path d="M116.55,60.09a.25.25,0,0,1,0,.1.22.22,0,0,1-.09.07l-.18,0h-.55a.61.61,0,0,1-.17,0,.2.2,0,0,1-.1-.07.15.15,0,0,1,0-.1v-.53a3.12,3.12,0,0,1-.78.62,1.82,1.82,0,0,1-.9.22,1.87,1.87,0,0,1-.92-.21,1.7,1.7,0,0,1-.62-.57,2.44,2.44,0,0,1-.35-.84,4.84,4.84,0,0,1-.1-1,4.55,4.55,0,0,1,.13-1.15,2.69,2.69,0,0,1,.4-.87,1.84,1.84,0,0,1,.66-.55,2,2,0,0,1,.9-.19,1.6,1.6,0,0,1,.73.16,2.53,2.53,0,0,1,.65.48V53.05a.17.17,0,0,1,0-.1.23.23,0,0,1,.11-.07l.2-.05h.66a.72.72,0,0,1,.2.05.23.23,0,0,1,.11.07.17.17,0,0,1,0,.1Zm-1.34-3.2a3,3,0,0,0-.56-.56.9.9,0,0,0-.55-.19.8.8,0,0,0-.45.13,1,1,0,0,0-.31.35,1.68,1.68,0,0,0-.17.49,2.67,2.67,0,0,0-.06.56,3.81,3.81,0,0,0,0,.59,1.61,1.61,0,0,0,.16.51,1,1,0,0,0,.29.35.76.76,0,0,0,.46.14,1.17,1.17,0,0,0,.27,0,.87.87,0,0,0,.27-.14,1.89,1.89,0,0,0,.28-.23,3.16,3.16,0,0,0,.32-.37Z"/><path d="M122.34,57.56a.52.52,0,0,1-.11.36.41.41,0,0,1-.31.12H119a2,2,0,0,0,.07.56,1.06,1.06,0,0,0,.23.42,1,1,0,0,0,.41.27,1.8,1.8,0,0,0,.6.09,3.8,3.8,0,0,0,.62-.05l.47-.11.32-.12a.76.76,0,0,1,.21-.05l.08,0a.13.13,0,0,1,0,.07.26.26,0,0,1,0,.14,1.35,1.35,0,0,1,0,.22v.2s0,.1,0,.14l0,.1L122,60a.73.73,0,0,1-.19.1,3.15,3.15,0,0,1-.4.13l-.55.11c-.21,0-.43,0-.67,0a3.52,3.52,0,0,1-1.12-.16,2,2,0,0,1-.8-.49,2.11,2.11,0,0,1-.48-.83,4,4,0,0,1-.16-1.17,3.75,3.75,0,0,1,.17-1.15,2.45,2.45,0,0,1,.48-.87,2,2,0,0,1,.77-.54,2.63,2.63,0,0,1,1-.19,2.88,2.88,0,0,1,1,.17,2,2,0,0,1,.7.5,2,2,0,0,1,.4.74,3.48,3.48,0,0,1,.13.93ZM121,57.17a1.39,1.39,0,0,0-.23-.89A.88.88,0,0,0,120,56a.87.87,0,0,0-.44.1.82.82,0,0,0-.32.26,1.18,1.18,0,0,0-.19.39,1.45,1.45,0,0,0-.08.47Z"/><path d="M126.82,58.74a1.66,1.66,0,0,1-.15.72,1.45,1.45,0,0,1-.43.52,1.83,1.83,0,0,1-.66.31,3.14,3.14,0,0,1-.83.11,2.78,2.78,0,0,1-.51,0,3.64,3.64,0,0,1-.44-.1,2.1,2.1,0,0,1-.32-.13.62.62,0,0,1-.19-.12.38.38,0,0,1-.09-.18,1.08,1.08,0,0,1,0-.35c0-.11,0-.19,0-.25a.39.39,0,0,1,0-.15.12.12,0,0,1,.05-.08l.08,0a.38.38,0,0,1,.18.07l.28.15.4.15a2.11,2.11,0,0,0,.52.07,1.66,1.66,0,0,0,.33,0,.66.66,0,0,0,.24-.11.37.37,0,0,0,.16-.17.54.54,0,0,0,.06-.25.45.45,0,0,0-.1-.28,1,1,0,0,0-.27-.2,2.57,2.57,0,0,0-.37-.16l-.42-.17a3.42,3.42,0,0,1-.43-.21,1.69,1.69,0,0,1-.37-.29,1.31,1.31,0,0,1-.26-.41,1.44,1.44,0,0,1-.1-.58,1.61,1.61,0,0,1,.13-.63,1.33,1.33,0,0,1,.39-.49,1.91,1.91,0,0,1,.62-.32,2.56,2.56,0,0,1,.81-.11,3.15,3.15,0,0,1,.44,0l.38.08a2.39,2.39,0,0,1,.29.1.75.75,0,0,1,.17.1.17.17,0,0,1,.07.08.3.3,0,0,1,0,.1.93.93,0,0,0,0,.14v.44q0,.09,0,.15a.13.13,0,0,1,0,.07l-.08,0a.37.37,0,0,1-.15-.06l-.25-.12-.36-.12a1.6,1.6,0,0,0-.46-.06,1.37,1.37,0,0,0-.31,0,.57.57,0,0,0-.22.11.4.4,0,0,0-.13.16.46.46,0,0,0-.05.2.39.39,0,0,0,.11.28.78.78,0,0,0,.26.2l.38.16.43.17a3.36,3.36,0,0,1,.43.2,1.82,1.82,0,0,1,.38.29,1.46,1.46,0,0,1,.27.41A1.42,1.42,0,0,1,126.82,58.74Z"/><path d="M51.42,70.42a.17.17,0,0,1,0,.1.23.23,0,0,1-.11.06.54.54,0,0,1-.2,0l-.33,0-.33,0a.56.56,0,0,1-.21,0,.23.23,0,0,1-.11-.06.17.17,0,0,1,0-.1V67.58a2,2,0,0,0,0-.44,1.16,1.16,0,0,0-.14-.34.64.64,0,0,0-.24-.22.71.71,0,0,0-.34-.08.87.87,0,0,0-.49.19,3.53,3.53,0,0,0-.53.55v3.18a.18.18,0,0,1,0,.1.19.19,0,0,1-.11.06.54.54,0,0,1-.2,0l-.33,0-.32,0a.56.56,0,0,1-.21,0,.23.23,0,0,1-.11-.06.17.17,0,0,1,0-.1V67.58a2,2,0,0,0,0-.44.94.94,0,0,0-.14-.34.69.69,0,0,0-.23-.22.74.74,0,0,0-.34-.08.84.84,0,0,0-.49.19,3.14,3.14,0,0,0-.54.55v3.18a.17.17,0,0,1,0,.1.23.23,0,0,1-.11.06.54.54,0,0,1-.2,0l-.33,0-.33,0a.56.56,0,0,1-.21,0,.23.23,0,0,1-.11-.06.17.17,0,0,1,0-.1V65.63a.16.16,0,0,1,0-.09.22.22,0,0,1,.09-.07l.18,0h.56a.6.6,0,0,1,.18,0,.22.22,0,0,1,.09.07.16.16,0,0,1,0,.09v.56a2.87,2.87,0,0,1,.79-.65,1.72,1.72,0,0,1,.82-.21,2.09,2.09,0,0,1,.53.06,1.5,1.5,0,0,1,.43.18,1,1,0,0,1,.31.27,1.69,1.69,0,0,1,.23.36,5.16,5.16,0,0,1,.42-.4,2.88,2.88,0,0,1,.41-.27,1.63,1.63,0,0,1,.4-.15,1.44,1.44,0,0,1,.41,0,1.8,1.8,0,0,1,.81.16,1.42,1.42,0,0,1,.53.44,1.87,1.87,0,0,1,.29.64,4,4,0,0,1,.08.79Z"/><path d="M57.29,70.42a.3.3,0,0,1,0,.1.19.19,0,0,1-.1.06.4.4,0,0,1-.18,0l-.27,0-.29,0a.39.39,0,0,1-.17,0,.19.19,0,0,1-.1-.06.3.3,0,0,1,0-.1v-.55a3.3,3.3,0,0,1-.81.65,1.84,1.84,0,0,1-.85.21,1.86,1.86,0,0,1-.83-.16,1.4,1.4,0,0,1-.54-.44,1.76,1.76,0,0,1-.3-.65,3.88,3.88,0,0,1-.09-.91V65.63a.16.16,0,0,1,0-.09.23.23,0,0,1,.11-.07.87.87,0,0,1,.21,0h.65a.87.87,0,0,1,.21,0,.23.23,0,0,1,.11.07.16.16,0,0,1,0,.09v2.71a2.65,2.65,0,0,0,0,.57.93.93,0,0,0,.15.35.76.76,0,0,0,.25.22.8.8,0,0,0,.36.07.83.83,0,0,0,.51-.19,2.77,2.77,0,0,0,.56-.54V65.63a.16.16,0,0,1,0-.09.19.19,0,0,1,.11-.07.88.88,0,0,1,.2,0H57a.88.88,0,0,1,.2,0,.23.23,0,0,1,.11.07.16.16,0,0,1,0,.09Z"/><path d="M61.43,70.61l-.58,1.69a.35.35,0,0,1-.26.2,2.57,2.57,0,0,1-.63.06l-.35,0a.61.61,0,0,1-.19-.06.15.15,0,0,1-.07-.11.5.5,0,0,1,0-.16l.64-1.6a.58.58,0,0,1-.12-.1.6.6,0,0,1-.09-.15L58.16,66a1.17,1.17,0,0,1-.07-.29.17.17,0,0,1,.07-.15.35.35,0,0,1,.22-.08l.4,0h.37a.41.41,0,0,1,.21,0,.21.21,0,0,1,.11.1.77.77,0,0,1,.07.19L60.67,69h0l1-3.27a.38.38,0,0,1,.08-.18.34.34,0,0,1,.17-.07l.42,0,.38,0a.38.38,0,0,1,.22.08.19.19,0,0,1,.08.16.8.8,0,0,1,0,.23Z"/><path d="M67.81,64a.75.75,0,0,1-.17.56.89.89,0,0,1-.62.16.9.9,0,0,1-.61-.15.71.71,0,0,1-.16-.54.79.79,0,0,1,.16-.57.89.89,0,0,1,.62-.16.84.84,0,0,1,.61.16A.71.71,0,0,1,67.81,64Zm-.11,6.41a.17.17,0,0,1,0,.1.23.23,0,0,1-.11.06.56.56,0,0,1-.21,0l-.32,0-.33,0a.56.56,0,0,1-.21,0,.23.23,0,0,1-.11-.06.17.17,0,0,1,0-.1V65.64a.16.16,0,0,1,0-.09.23.23,0,0,1,.11-.07.81.81,0,0,1,.21,0h.65a.81.81,0,0,1,.21,0,.23.23,0,0,1,.11.07.16.16,0,0,1,0,.09Z"/><path d="M73.63,70.42a.13.13,0,0,1,0,.1.19.19,0,0,1-.1.06.56.56,0,0,1-.21,0l-.32,0-.34,0a.54.54,0,0,1-.2,0,.23.23,0,0,1-.11-.06.17.17,0,0,1,0-.1V67.69a2.57,2.57,0,0,0,0-.55,1.52,1.52,0,0,0-.15-.34.67.67,0,0,0-.25-.22.8.8,0,0,0-.36-.08,1,1,0,0,0-.52.19,3.16,3.16,0,0,0-.55.55v3.18a.17.17,0,0,1,0,.1.23.23,0,0,1-.11.06.54.54,0,0,1-.2,0l-.33,0-.33,0a.56.56,0,0,1-.21,0,.23.23,0,0,1-.11-.06.17.17,0,0,1,0-.1V65.63a.16.16,0,0,1,0-.09.22.22,0,0,1,.09-.07l.18,0h.56a.6.6,0,0,1,.18,0,.22.22,0,0,1,.09.07.16.16,0,0,1,0,.09v.56a2.9,2.9,0,0,1,.8-.65,2,2,0,0,1,1.69-.05,1.46,1.46,0,0,1,.54.44,2.1,2.1,0,0,1,.3.64,3.87,3.87,0,0,1,.09.89Z"/><path d="M77.69,70a1.6,1.6,0,0,1,0,.36.38.38,0,0,1-.08.18.28.28,0,0,1-.14.09l-.22.07-.28,0h-.29a2.07,2.07,0,0,1-.7-.1,1.18,1.18,0,0,1-.49-.31,1.27,1.27,0,0,1-.29-.54,2.83,2.83,0,0,1-.09-.76V66.55h-.57c-.07,0-.12,0-.16-.13a1.35,1.35,0,0,1,0-.42,2.18,2.18,0,0,1,0-.27.53.53,0,0,1,0-.16s0-.08.07-.09a.16.16,0,0,1,.09,0h.57V64.38a.19.19,0,0,1,0-.1.35.35,0,0,1,.11-.07.87.87,0,0,1,.21,0h.65a.87.87,0,0,1,.21,0,.35.35,0,0,1,.11.07.19.19,0,0,1,0,.1v1.07h1a.17.17,0,0,1,.1,0,.13.13,0,0,1,.06.09.53.53,0,0,1,0,.16,2,2,0,0,1,0,.27,1.06,1.06,0,0,1-.06.42c0,.08-.08.13-.15.13h-1V68.8a1.12,1.12,0,0,0,.12.58.47.47,0,0,0,.44.2l.2,0,.15,0,.11,0a.15.15,0,0,1,.09,0,.07.07,0,0,1,.06,0s0,0,0,.07,0,.09,0,.15A1.69,1.69,0,0,1,77.69,70Z"/><path d="M83,67.89a.52.52,0,0,1-.11.36.41.41,0,0,1-.31.12H79.63a2,2,0,0,0,.07.56,1,1,0,0,0,.23.42.92.92,0,0,0,.41.27,1.72,1.72,0,0,0,.6.09,3.8,3.8,0,0,0,.62,0l.46-.11.33-.12a.69.69,0,0,1,.21-.05l.08,0a.13.13,0,0,1,0,.07.25.25,0,0,1,0,.13,1.55,1.55,0,0,1,0,.23,1.21,1.21,0,0,1,0,.2.61.61,0,0,1,0,.14l0,.1-.06.08a.73.73,0,0,1-.19.1l-.4.13a5.53,5.53,0,0,1-.55.1,4.68,4.68,0,0,1-.67,0,3.48,3.48,0,0,1-1.12-.16,2,2,0,0,1-.8-.49,2,2,0,0,1-.48-.83,4.16,4.16,0,0,1,0-2.32,2.45,2.45,0,0,1,.48-.87,2.13,2.13,0,0,1,.77-.55,3.09,3.09,0,0,1,2,0,1.91,1.91,0,0,1,.7.49,2,2,0,0,1,.41.75,3.48,3.48,0,0,1,.13.93Zm-1.31-.39a1.39,1.39,0,0,0-.23-.89.9.9,0,0,0-.76-.33.93.93,0,0,0-.45.1.86.86,0,0,0-.31.26,1.2,1.2,0,0,0-.2.39,1.78,1.78,0,0,0-.07.47Z"/><path d="M87.15,66.08c0,.13,0,.23,0,.32a.78.78,0,0,1,0,.19.23.23,0,0,1,0,.1l-.09,0a.2.2,0,0,1-.1,0l-.12,0-.15,0-.18,0a.59.59,0,0,0-.22,0,1,1,0,0,0-.23.14,2.12,2.12,0,0,0-.26.26c-.08.11-.18.24-.28.4v3a.17.17,0,0,1,0,.1.23.23,0,0,1-.11.06.56.56,0,0,1-.21,0l-.33,0-.32,0a.56.56,0,0,1-.21,0,.23.23,0,0,1-.11-.06.17.17,0,0,1,0-.1V65.63a.29.29,0,0,1,0-.09.26.26,0,0,1,.1-.07l.18,0h.56a.6.6,0,0,1,.18,0,.22.22,0,0,1,.09.07.29.29,0,0,1,0,.09v.6a3.71,3.71,0,0,1,.36-.44,1.91,1.91,0,0,1,.31-.28.79.79,0,0,1,.31-.14,1,1,0,0,1,.3,0h.15l.16,0,.15,0,.1,0a.21.21,0,0,1,0,.06.29.29,0,0,1,0,.09.72.72,0,0,1,0,.17C87.14,65.85,87.15,66,87.15,66.08Z"/><path d="M92.28,67.89a.52.52,0,0,1-.11.36.38.38,0,0,1-.3.12H89a2.38,2.38,0,0,0,.07.56,1.14,1.14,0,0,0,.23.42,1,1,0,0,0,.41.27,1.8,1.8,0,0,0,.6.09,3.61,3.61,0,0,0,.62,0l.47-.11.32-.12a.76.76,0,0,1,.21-.05.15.15,0,0,1,.08,0s0,0,.06.07a1.3,1.3,0,0,1,0,.13c0,.06,0,.14,0,.23s0,.14,0,.2a.59.59,0,0,1,0,.14.17.17,0,0,1,0,.1.35.35,0,0,1,0,.08.87.87,0,0,1-.2.1l-.39.13c-.16,0-.35.07-.56.1a4.54,4.54,0,0,1-.66,0A3.44,3.44,0,0,1,89,70.57a2,2,0,0,1-.8-.49,2,2,0,0,1-.49-.83,4.06,4.06,0,0,1-.15-1.17,3.76,3.76,0,0,1,.16-1.15,2.32,2.32,0,0,1,.49-.87,2,2,0,0,1,.77-.55,2.73,2.73,0,0,1,1-.18,2.88,2.88,0,0,1,1,.17,2,2,0,0,1,.7.49,1.94,1.94,0,0,1,.4.75,3.12,3.12,0,0,1,.13.93ZM91,67.5a1.39,1.39,0,0,0-.23-.89.87.87,0,0,0-.75-.33.93.93,0,0,0-.45.1.9.9,0,0,0-.32.26A1.18,1.18,0,0,0,89,67a1.78,1.78,0,0,0-.08.47Z"/><path d="M96.77,69.07a1.66,1.66,0,0,1-.16.72,1.35,1.35,0,0,1-.43.52,1.83,1.83,0,0,1-.66.31,3.09,3.09,0,0,1-.83.11,2.78,2.78,0,0,1-.51,0,4.13,4.13,0,0,1-.44-.1,2.1,2.1,0,0,1-.32-.13.62.62,0,0,1-.19-.12.38.38,0,0,1-.09-.18,1.56,1.56,0,0,1,0-.35,1.7,1.7,0,0,1,0-.25,1,1,0,0,1,0-.15.12.12,0,0,1,0-.08l.08,0a.38.38,0,0,1,.18.07l.29.15.4.15a2,2,0,0,0,.51.07,1.49,1.49,0,0,0,.33,0,1,1,0,0,0,.25-.11.4.4,0,0,0,.16-.18.6.6,0,0,0,0-.24.4.4,0,0,0-.1-.28.9.9,0,0,0-.26-.2,3.17,3.17,0,0,0-.37-.16l-.43-.17a4.11,4.11,0,0,1-.42-.21,1.48,1.48,0,0,1-.37-.29,1.33,1.33,0,0,1-.27-.41,1.67,1.67,0,0,1-.1-.58,1.46,1.46,0,0,1,.14-.63,1.41,1.41,0,0,1,.38-.49,1.74,1.74,0,0,1,.62-.32,2.56,2.56,0,0,1,.81-.11,3,3,0,0,1,.44,0l.39.08.29.1a.64.64,0,0,1,.16.1.3.3,0,0,1,.08.08l0,.1s0,.08,0,.14,0,.12,0,.2,0,.18,0,.24,0,.11,0,.15a.13.13,0,0,1,0,.07l-.07,0a.29.29,0,0,1-.15-.06l-.26-.12-.35-.12a1.65,1.65,0,0,0-.46-.06,1,1,0,0,0-.32,0,.65.65,0,0,0-.22.11.4.4,0,0,0-.13.16.45.45,0,0,0,0,.2.39.39,0,0,0,.1.28,1,1,0,0,0,.27.2,2.72,2.72,0,0,0,.38.16l.43.17a3.26,3.26,0,0,1,.43.2,2.12,2.12,0,0,1,.38.29,1.25,1.25,0,0,1,.26.41A1.41,1.41,0,0,1,96.77,69.07Z"/><path d="M101.86,70.44a.13.13,0,0,1,0,.12.34.34,0,0,1-.17.06l-.34,0-.35,0a.27.27,0,0,1-.16-.06.16.16,0,0,1,0-.12v-.38a2.31,2.31,0,0,1-.68.49,1.92,1.92,0,0,1-.84.18,2.24,2.24,0,0,1-.7-.1,1.47,1.47,0,0,1-.55-.3,1.35,1.35,0,0,1-.37-.48,1.76,1.76,0,0,1-.12-.68,1.54,1.54,0,0,1,.16-.73,1.4,1.4,0,0,1,.49-.51,2.4,2.4,0,0,1,.81-.29,5.29,5.29,0,0,1,1.12-.1h.47v-.29a1.62,1.62,0,0,0-.05-.4.69.69,0,0,0-.15-.28.59.59,0,0,0-.28-.16,1.31,1.31,0,0,0-.43-.06,2.25,2.25,0,0,0-.61.08,4.29,4.29,0,0,0-.47.16l-.34.17a.49.49,0,0,1-.22.08.18.18,0,0,1-.1,0,.31.31,0,0,1-.08-.11s0-.1,0-.17a1.62,1.62,0,0,1,0-.23.88.88,0,0,1,0-.26.33.33,0,0,1,.1-.17,1,1,0,0,1,.26-.18,3.12,3.12,0,0,1,.44-.17,3,3,0,0,1,.55-.13,3.18,3.18,0,0,1,.62,0,3.43,3.43,0,0,1,1,.11,1.48,1.48,0,0,1,.66.34,1.21,1.21,0,0,1,.37.58,2.75,2.75,0,0,1,.12.86Zm-1.32-2H100a2.33,2.33,0,0,0-.56,0,1.06,1.06,0,0,0-.37.14.63.63,0,0,0-.22.24.75.75,0,0,0-.06.31.58.58,0,0,0,.19.47.72.72,0,0,0,.53.17,1,1,0,0,0,.52-.14,2.32,2.32,0,0,0,.49-.43Z"/><path d="M107.79,70.42a.13.13,0,0,1,0,.1.19.19,0,0,1-.1.06.56.56,0,0,1-.21,0l-.32,0-.34,0a.54.54,0,0,1-.2,0,.23.23,0,0,1-.11-.06.17.17,0,0,1,0-.1V67.69a2.57,2.57,0,0,0,0-.55,1.52,1.52,0,0,0-.15-.34.67.67,0,0,0-.25-.22.8.8,0,0,0-.36-.08,1,1,0,0,0-.52.19,3.16,3.16,0,0,0-.55.55v3.18a.17.17,0,0,1,0,.1.23.23,0,0,1-.11.06.54.54,0,0,1-.2,0l-.33,0-.33,0a.56.56,0,0,1-.21,0,.23.23,0,0,1-.11-.06.17.17,0,0,1,0-.1V65.63a.16.16,0,0,1,0-.09.22.22,0,0,1,.09-.07l.18,0h.56a.6.6,0,0,1,.18,0,.22.22,0,0,1,.09.07.16.16,0,0,1,0,.09v.56a2.9,2.9,0,0,1,.8-.65,2,2,0,0,1,1.69-.05,1.46,1.46,0,0,1,.54.44,2.1,2.1,0,0,1,.3.64,3.87,3.87,0,0,1,.09.89Z"/><path d="M111.85,70a1.6,1.6,0,0,1,0,.36.38.38,0,0,1-.08.18.28.28,0,0,1-.14.09l-.22.07-.28,0h-.3a2,2,0,0,1-.69-.1,1.18,1.18,0,0,1-.49-.31,1.27,1.27,0,0,1-.29-.54,2.83,2.83,0,0,1-.09-.76V66.55h-.57c-.07,0-.12,0-.16-.13a1.35,1.35,0,0,1-.05-.42,2.18,2.18,0,0,1,0-.27.53.53,0,0,1,0-.16s0-.08.07-.09a.16.16,0,0,1,.09,0h.57V64.38a.19.19,0,0,1,0-.1.35.35,0,0,1,.11-.07.87.87,0,0,1,.21,0h.65a.87.87,0,0,1,.21,0,.35.35,0,0,1,.11.07.19.19,0,0,1,0,.1v1.07h1a.17.17,0,0,1,.1,0,.13.13,0,0,1,.06.09.53.53,0,0,1,0,.16,2,2,0,0,1,0,.27,1.06,1.06,0,0,1-.06.42.18.18,0,0,1-.15.13h-1V68.8a1.12,1.12,0,0,0,.12.58.47.47,0,0,0,.44.2l.2,0,.15,0,.11,0a.15.15,0,0,1,.09,0,.07.07,0,0,1,.06,0s0,0,0,.07,0,.09,0,.15A1.69,1.69,0,0,1,111.85,70Z"/><path d="M117.11,67.89a.47.47,0,0,1-.11.36.38.38,0,0,1-.3.12h-2.92a1.94,1.94,0,0,0,.08.56,1,1,0,0,0,.23.42.92.92,0,0,0,.41.27,1.72,1.72,0,0,0,.6.09,3.8,3.8,0,0,0,.62,0l.46-.11.33-.12a.63.63,0,0,1,.21-.05l.08,0a.13.13,0,0,1,0,.07.25.25,0,0,1,0,.13,1.55,1.55,0,0,1,0,.23,1.21,1.21,0,0,1,0,.2s0,.1,0,.14l0,.1-.06.08a.73.73,0,0,1-.19.1l-.4.13a5.53,5.53,0,0,1-.55.1,4.68,4.68,0,0,1-.67,0,3.48,3.48,0,0,1-1.12-.16,2,2,0,0,1-.8-.49,1.9,1.9,0,0,1-.48-.83,4.16,4.16,0,0,1,0-2.32,2.45,2.45,0,0,1,.48-.87,2.13,2.13,0,0,1,.77-.55,2.73,2.73,0,0,1,1-.18,2.85,2.85,0,0,1,1,.17,1.91,1.91,0,0,1,.7.49,2,2,0,0,1,.41.75,3.48,3.48,0,0,1,.12.93Zm-1.31-.39a1.33,1.33,0,0,0-.22-.89.9.9,0,0,0-.76-.33.93.93,0,0,0-.45.1.86.86,0,0,0-.31.26,1.2,1.2,0,0,0-.2.39,2.31,2.31,0,0,0-.08.47Z"/><path d="M121.6,69.07a1.66,1.66,0,0,1-.15.72,1.45,1.45,0,0,1-.43.52,1.83,1.83,0,0,1-.66.31,3.2,3.2,0,0,1-.83.11,2.78,2.78,0,0,1-.51,0,3.64,3.64,0,0,1-.44-.1,2.85,2.85,0,0,1-.33-.13.7.7,0,0,1-.18-.12.38.38,0,0,1-.09-.18,1.08,1.08,0,0,1,0-.35c0-.11,0-.19,0-.25a.39.39,0,0,1,0-.15.12.12,0,0,1,.05-.08l.08,0a.38.38,0,0,1,.18.07l.28.15.4.15a2.11,2.11,0,0,0,.52.07,1.66,1.66,0,0,0,.33,0,.88.88,0,0,0,.24-.11.35.35,0,0,0,.16-.18.48.48,0,0,0,.06-.24.45.45,0,0,0-.1-.28,1,1,0,0,0-.27-.2,2.57,2.57,0,0,0-.37-.16l-.42-.17a3.42,3.42,0,0,1-.43-.21,1.69,1.69,0,0,1-.37-.29,1.31,1.31,0,0,1-.26-.41,1.47,1.47,0,0,1-.1-.58,1.61,1.61,0,0,1,.13-.63,1.33,1.33,0,0,1,.39-.49,1.66,1.66,0,0,1,.62-.32,2.56,2.56,0,0,1,.81-.11,3.15,3.15,0,0,1,.44,0l.38.08a2.39,2.39,0,0,1,.29.1.75.75,0,0,1,.17.1.17.17,0,0,1,.07.08.3.3,0,0,1,0,.1s0,.08,0,.14a1.15,1.15,0,0,1,0,.2,1.63,1.63,0,0,1,0,.24.61.61,0,0,1,0,.15s0,.06,0,.07l-.08,0a.37.37,0,0,1-.15-.06l-.25-.12-.36-.12a1.6,1.6,0,0,0-.46-.06,1,1,0,0,0-.31,0,.7.7,0,0,0-.23.11.48.48,0,0,0-.12.16.46.46,0,0,0-.05.2.39.39,0,0,0,.11.28.78.78,0,0,0,.26.2l.38.16.43.17a2.39,2.39,0,0,1,.43.2,1.82,1.82,0,0,1,.38.29,1.46,1.46,0,0,1,.27.41A1.42,1.42,0,0,1,121.6,69.07Z"/><path d="M124.21,69.83a.91.91,0,0,1-.18.67.83.83,0,0,1-.62.18.93.93,0,0,1-.63-.17,1,1,0,0,1-.17-.65.93.93,0,0,1,.18-.67.85.85,0,0,1,.63-.17.83.83,0,0,1,.61.17A.86.86,0,0,1,124.21,69.83Z"/><path d="M43.75,80.69a.52.52,0,0,1-.07.15.37.37,0,0,1-.14.08,1.3,1.3,0,0,1-.26,0h-.81l-.26,0-.17,0a.28.28,0,0,1-.11,0,.18.18,0,0,1-.07-.08.33.33,0,0,1,0-.12l-2.07-6.16a2.32,2.32,0,0,1-.08-.3c0-.08,0-.14.06-.17A.39.39,0,0,1,40,74l.45,0h.38A.87.87,0,0,1,41,74a.21.21,0,0,1,.1.08,1,1,0,0,1,.06.14l1.69,5.36h0l1.66-5.34a.38.38,0,0,1,0-.14.2.2,0,0,1,.11-.09A.9.9,0,0,1,44.9,74h.4l.39,0a.25.25,0,0,1,.18.08.19.19,0,0,1,0,.17q0,.12-.09.3Z"/><path d="M50.58,78.22a.52.52,0,0,1-.11.36.41.41,0,0,1-.31.12H47.25a2,2,0,0,0,.07.56,1,1,0,0,0,.23.42A.92.92,0,0,0,48,80a1.72,1.72,0,0,0,.6.09,3.8,3.8,0,0,0,.62-.05l.46-.11.33-.12a.69.69,0,0,1,.21-.05l.08,0a.13.13,0,0,1,.05.07.25.25,0,0,1,0,.13,1.55,1.55,0,0,1,0,.23,1.21,1.21,0,0,1,0,.2.61.61,0,0,1,0,.14l0,.1-.06.08a.73.73,0,0,1-.19.1l-.4.13a5.53,5.53,0,0,1-.55.1,4.68,4.68,0,0,1-.67,0,3.48,3.48,0,0,1-1.12-.16,2,2,0,0,1-.8-.49,2,2,0,0,1-.48-.83,4.16,4.16,0,0,1,0-2.32,2.45,2.45,0,0,1,.48-.87,2.13,2.13,0,0,1,.77-.55,3.09,3.09,0,0,1,2.05,0,1.91,1.91,0,0,1,.7.49,2,2,0,0,1,.41.75,3.48,3.48,0,0,1,.13.93Zm-1.31-.39a1.39,1.39,0,0,0-.23-.89.9.9,0,0,0-.76-.33.93.93,0,0,0-.45.1.86.86,0,0,0-.31.26,1.2,1.2,0,0,0-.2.39,1.78,1.78,0,0,0-.07.47Z"/><path d="M55.77,80.77a.17.17,0,0,1-.05.12.38.38,0,0,1-.17.06l-.34,0-.36,0a.26.26,0,0,1-.15-.06.17.17,0,0,1-.05-.12v-.38a2.27,2.27,0,0,1-.67.49,1.92,1.92,0,0,1-.84.18,2.19,2.19,0,0,1-.7-.1,1.51,1.51,0,0,1-.56-.3,1.44,1.44,0,0,1-.36-.48,1.59,1.59,0,0,1-.13-.68,1.54,1.54,0,0,1,.17-.73,1.37,1.37,0,0,1,.48-.51,2.49,2.49,0,0,1,.81-.29,5.39,5.39,0,0,1,1.13-.1h.46v-.29a1.64,1.64,0,0,0,0-.4.69.69,0,0,0-.15-.28.64.64,0,0,0-.28-.16,1.37,1.37,0,0,0-.44-.06,2.23,2.23,0,0,0-.6.08,3.67,3.67,0,0,0-.47.16,3.56,3.56,0,0,0-.34.17.54.54,0,0,1-.22.08.21.21,0,0,1-.11,0,.3.3,0,0,1-.07-.11.69.69,0,0,1,0-.17,1.52,1.52,0,0,1,0-.23.88.88,0,0,1,0-.26.42.42,0,0,1,.1-.17,1,1,0,0,1,.27-.18,2.7,2.7,0,0,1,.44-.17,3,3,0,0,1,.55-.13,3.08,3.08,0,0,1,.61,0,3.45,3.45,0,0,1,1,.11,1.6,1.6,0,0,1,.66.34,1.29,1.29,0,0,1,.37.58,2.75,2.75,0,0,1,.12.86Zm-1.33-2h-.51a2.28,2.28,0,0,0-.56,0,1.12,1.12,0,0,0-.38.14.6.6,0,0,0-.21.24.74.74,0,0,0-.07.31.62.62,0,0,0,.19.47.75.75,0,0,0,.53.17A1,1,0,0,0,54,80a2.07,2.07,0,0,0,.48-.43Z"/><path d="M64.74,80.75a.17.17,0,0,1,0,.1.29.29,0,0,1-.11.06.54.54,0,0,1-.2,0l-.33,0-.34,0a.54.54,0,0,1-.2,0,.23.23,0,0,1-.11-.06.17.17,0,0,1,0-.1V77.91a2,2,0,0,0,0-.44.94.94,0,0,0-.14-.34.69.69,0,0,0-.23-.22.74.74,0,0,0-.34-.08.84.84,0,0,0-.49.19,3.54,3.54,0,0,0-.54.55v3.18a.17.17,0,0,1,0,.1.23.23,0,0,1-.11.06.56.56,0,0,1-.21,0l-.32,0-.33,0a.54.54,0,0,1-.2,0,.19.19,0,0,1-.11-.06.13.13,0,0,1,0-.1V77.91a2,2,0,0,0,0-.44,1.16,1.16,0,0,0-.14-.34.64.64,0,0,0-.24-.22.67.67,0,0,0-.33-.08A.87.87,0,0,0,59,77a3.53,3.53,0,0,0-.53.55v3.18a.17.17,0,0,1,0,.1.23.23,0,0,1-.11.06.56.56,0,0,1-.21,0l-.33,0-.32,0a.56.56,0,0,1-.21,0,.23.23,0,0,1-.11-.06.17.17,0,0,1,0-.1V76a.29.29,0,0,1,0-.09.2.2,0,0,1,.1-.07l.18,0H58l.18,0s.07,0,.08.07a.16.16,0,0,1,0,.09v.56a3.19,3.19,0,0,1,.79-.65,1.76,1.76,0,0,1,.83-.21,2.15,2.15,0,0,1,.53.06,1.33,1.33,0,0,1,.42.18,1,1,0,0,1,.32.27,1.69,1.69,0,0,1,.23.36,5.16,5.16,0,0,1,.42-.4,2.41,2.41,0,0,1,.41-.27,1.63,1.63,0,0,1,.4-.15,1.4,1.4,0,0,1,.41,0,1.8,1.8,0,0,1,.81.16,1.39,1.39,0,0,1,.52.44,1.56,1.56,0,0,1,.29.64,3.35,3.35,0,0,1,.09.79Z"/><path d="M70.91,78.31a3.61,3.61,0,0,1-.16,1.12,2.48,2.48,0,0,1-.49.87,2.18,2.18,0,0,1-.82.56,3.49,3.49,0,0,1-2.27,0,2.12,2.12,0,0,1-.78-.51,2.14,2.14,0,0,1-.46-.84,3.84,3.84,0,0,1-.15-1.12,3.57,3.57,0,0,1,.16-1.12,2.32,2.32,0,0,1,.49-.87,2.07,2.07,0,0,1,.82-.56,2.92,2.92,0,0,1,1.15-.2,3.18,3.18,0,0,1,1.12.17,2,2,0,0,1,.78.51,2.14,2.14,0,0,1,.46.84A3.87,3.87,0,0,1,70.91,78.31Zm-1.39,0a3.34,3.34,0,0,0-.06-.65,1.4,1.4,0,0,0-.19-.52,1,1,0,0,0-.35-.34,1.2,1.2,0,0,0-.57-.12,1.08,1.08,0,0,0-.52.11.88.88,0,0,0-.37.32,1.49,1.49,0,0,0-.22.51,2.79,2.79,0,0,0-.07.68,3.34,3.34,0,0,0,.06.65,1.6,1.6,0,0,0,.19.52.82.82,0,0,0,.35.34,1.19,1.19,0,0,0,.56.12,1.22,1.22,0,0,0,.53-.11,1,1,0,0,0,.38-.32,1.7,1.7,0,0,0,.21-.51A2.79,2.79,0,0,0,69.52,78.36Z"/><path d="M75.35,79.4a1.66,1.66,0,0,1-.15.72,1.45,1.45,0,0,1-.43.52,1.83,1.83,0,0,1-.66.31,2.82,2.82,0,0,1-.83.11,2.78,2.78,0,0,1-.51,0,3.64,3.64,0,0,1-.44-.1,2.85,2.85,0,0,1-.33-.13.7.7,0,0,1-.18-.12.38.38,0,0,1-.09-.18,1.08,1.08,0,0,1,0-.35c0-.11,0-.19,0-.25a.39.39,0,0,1,0-.15.12.12,0,0,1,.05-.08l.08,0a.38.38,0,0,1,.18.07l.28.15.4.15a2.11,2.11,0,0,0,.52.07,1.66,1.66,0,0,0,.33,0,.88.88,0,0,0,.24-.11.35.35,0,0,0,.16-.18.48.48,0,0,0,.06-.24.45.45,0,0,0-.1-.28,1,1,0,0,0-.27-.2,2.57,2.57,0,0,0-.37-.16l-.42-.17a3.42,3.42,0,0,1-.43-.21,1.69,1.69,0,0,1-.37-.29,1.31,1.31,0,0,1-.26-.41,1.47,1.47,0,0,1-.1-.58,1.61,1.61,0,0,1,.13-.63,1.33,1.33,0,0,1,.39-.49,1.66,1.66,0,0,1,.62-.32,2.56,2.56,0,0,1,.81-.11,3.15,3.15,0,0,1,.44,0l.38.08a2.39,2.39,0,0,1,.29.1A.75.75,0,0,1,75,76a.17.17,0,0,1,.07.08.3.3,0,0,1,0,.1s0,.08,0,.14a1.15,1.15,0,0,1,0,.2,1.63,1.63,0,0,1,0,.24.61.61,0,0,1,0,.15s0,.06,0,.07l-.08,0a.37.37,0,0,1-.15-.06l-.25-.12-.36-.12a1.6,1.6,0,0,0-.46-.06,1,1,0,0,0-.31,0,.7.7,0,0,0-.23.11.48.48,0,0,0-.12.16.46.46,0,0,0-.05.2.39.39,0,0,0,.11.28.78.78,0,0,0,.26.2l.38.16.43.17a2.39,2.39,0,0,1,.43.2,1.82,1.82,0,0,1,.38.29,1.46,1.46,0,0,1,.27.41A1.42,1.42,0,0,1,75.35,79.4Z"/><path d="M82.48,80a1.55,1.55,0,0,1,0,.23.63.63,0,0,1,0,.16.81.81,0,0,1,0,.11.65.65,0,0,1-.09.1,1,1,0,0,1-.22.15,2.29,2.29,0,0,1-.35.16l-.43.11a2.59,2.59,0,0,1-.48,0,2.49,2.49,0,0,1-1-.17,1.7,1.7,0,0,1-.72-.51,2.25,2.25,0,0,1-.44-.81,4.27,4.27,0,0,1,0-2.35,2.46,2.46,0,0,1,.5-.87,2,2,0,0,1,.77-.51,2.7,2.7,0,0,1,1-.17,2,2,0,0,1,.42,0,2.36,2.36,0,0,1,.38.1,1.66,1.66,0,0,1,.33.15,1,1,0,0,1,.2.14l.08.1a.23.23,0,0,1,0,.1s0,.1,0,.16,0,.14,0,.23a1.09,1.09,0,0,1-.06.43c0,.09-.08.13-.14.13a.32.32,0,0,1-.19-.07,2.49,2.49,0,0,0-.24-.17,2,2,0,0,0-.33-.17,1.33,1.33,0,0,0-.47-.07.9.9,0,0,0-.8.4A2.07,2.07,0,0,0,80,78.35,2.73,2.73,0,0,0,80,79a1.35,1.35,0,0,0,.21.5.89.89,0,0,0,.34.3,1.21,1.21,0,0,0,.48.1,1.14,1.14,0,0,0,.48-.09,1.64,1.64,0,0,0,.35-.18l.26-.19a.29.29,0,0,1,.17-.08.11.11,0,0,1,.08,0,.15.15,0,0,1,0,.1s0,.11,0,.18A2.44,2.44,0,0,1,82.48,80Z"/><path d="M88,80.75a.17.17,0,0,1,0,.1.16.16,0,0,1-.09.06.44.44,0,0,1-.18,0l-.27,0-.29,0a.48.48,0,0,1-.18,0,.2.2,0,0,1-.09-.06.3.3,0,0,1,0-.1V80.2a3.3,3.3,0,0,1-.81.65,2,2,0,0,1-1.68.05,1.51,1.51,0,0,1-.55-.44,1.93,1.93,0,0,1-.29-.65,3.88,3.88,0,0,1-.09-.91V76a.16.16,0,0,1,0-.09.23.23,0,0,1,.11-.07.87.87,0,0,1,.21,0h.65l.21,0a.3.3,0,0,1,.11.07.16.16,0,0,1,0,.09v2.71a2.13,2.13,0,0,0,0,.57,1.11,1.11,0,0,0,.14.35.8.8,0,0,0,.26.22.78.78,0,0,0,.35.07.84.84,0,0,0,.52-.19,2.77,2.77,0,0,0,.56-.54V76a.16.16,0,0,1,0-.09.2.2,0,0,1,.1-.07l.21,0h.66a.88.88,0,0,1,.2,0,.23.23,0,0,1,.11.07A.16.16,0,0,1,88,76Z"/><path d="M93.44,80.77a.17.17,0,0,1,0,.12.34.34,0,0,1-.17.06l-.34,0-.35,0a.27.27,0,0,1-.16-.06.17.17,0,0,1-.05-.12v-.38a2.15,2.15,0,0,1-.67.49,1.92,1.92,0,0,1-.84.18,2.24,2.24,0,0,1-.7-.1,1.47,1.47,0,0,1-.55-.3,1.35,1.35,0,0,1-.37-.48,1.75,1.75,0,0,1-.13-.68,1.54,1.54,0,0,1,.17-.73,1.4,1.4,0,0,1,.49-.51,2.34,2.34,0,0,1,.8-.29,5.46,5.46,0,0,1,1.13-.1h.46v-.29a1.64,1.64,0,0,0,0-.4.69.69,0,0,0-.15-.28.59.59,0,0,0-.28-.16,1.35,1.35,0,0,0-.43-.06,2.25,2.25,0,0,0-.61.08,4.29,4.29,0,0,0-.47.16l-.34.17a.49.49,0,0,1-.22.08.21.21,0,0,1-.11,0,.3.3,0,0,1-.07-.11.69.69,0,0,1,0-.17,2,2,0,0,1,0-.49.45.45,0,0,1,.11-.17.88.88,0,0,1,.26-.18,2.7,2.7,0,0,1,.44-.17,3,3,0,0,1,.55-.13,3.08,3.08,0,0,1,.61,0,3.45,3.45,0,0,1,1,.11,1.48,1.48,0,0,1,.66.34,1.29,1.29,0,0,1,.37.58,2.75,2.75,0,0,1,.12.86Zm-1.33-2H91.6a2.28,2.28,0,0,0-.56,0,1.21,1.21,0,0,0-.38.14.69.69,0,0,0-.21.24.75.75,0,0,0-.06.31.58.58,0,0,0,.19.47.71.71,0,0,0,.52.17,1,1,0,0,0,.53-.14,2.07,2.07,0,0,0,.48-.43Zm-.47-5.11.09-.1a.46.46,0,0,1,.14-.07.56.56,0,0,1,.2,0h.3a2.07,2.07,0,0,1,.39,0,.48.48,0,0,1,.21.06s.06.06,0,.09a.21.21,0,0,1,0,.12l-1,1.24a.38.38,0,0,1-.09.09l-.11.06-.17,0H91.3l-.29,0a.27.27,0,0,1-.16,0,.08.08,0,0,1,0-.09.28.28,0,0,1,.05-.12Z"/><path d="M96.14,80.75a.17.17,0,0,1,0,.1.23.23,0,0,1-.11.06.56.56,0,0,1-.21,0l-.32,0-.33,0a.56.56,0,0,1-.21,0,.23.23,0,0,1-.11-.06.17.17,0,0,1,0-.1V73.69a.17.17,0,0,1,0-.1.35.35,0,0,1,.11-.07.87.87,0,0,1,.21,0,1.52,1.52,0,0,1,.33,0,1.47,1.47,0,0,1,.32,0,.87.87,0,0,1,.21,0,.35.35,0,0,1,.11.07.17.17,0,0,1,0,.1Z"/><path d="M101.92,78.22a.52.52,0,0,1-.11.36.41.41,0,0,1-.31.12H98.59a2,2,0,0,0,.07.56,1,1,0,0,0,.23.42.92.92,0,0,0,.41.27,1.72,1.72,0,0,0,.6.09,3.8,3.8,0,0,0,.62-.05l.46-.11.33-.12a.69.69,0,0,1,.21-.05l.08,0a.13.13,0,0,1,.05.07.25.25,0,0,1,0,.13,1.55,1.55,0,0,1,0,.23,1.21,1.21,0,0,1,0,.2.61.61,0,0,1,0,.14l0,.1-.06.08a.73.73,0,0,1-.19.1l-.4.13a5.53,5.53,0,0,1-.55.1,4.68,4.68,0,0,1-.67,0,3.48,3.48,0,0,1-1.12-.16,2,2,0,0,1-.8-.49,2,2,0,0,1-.48-.83,4.16,4.16,0,0,1,0-2.32,2.45,2.45,0,0,1,.48-.87,2.13,2.13,0,0,1,.77-.55,2.76,2.76,0,0,1,1-.18,2.81,2.81,0,0,1,1,.17,1.91,1.91,0,0,1,.7.49,2,2,0,0,1,.41.75,3.48,3.48,0,0,1,.13.93Zm-1.31-.39a1.39,1.39,0,0,0-.23-.89.9.9,0,0,0-.76-.33.93.93,0,0,0-.45.1.86.86,0,0,0-.31.26,1.2,1.2,0,0,0-.2.39,1.78,1.78,0,0,0-.07.47Z"/><path d="M106.4,79.4a1.66,1.66,0,0,1-.15.72,1.45,1.45,0,0,1-.43.52,1.8,1.8,0,0,1-.67.31,2.71,2.71,0,0,1-.82.11,3,3,0,0,1-.52,0,3.45,3.45,0,0,1-.43-.1,2.85,2.85,0,0,1-.33-.13.56.56,0,0,1-.18-.12.5.5,0,0,1-.1-.18,1.56,1.56,0,0,1,0-.35c0-.11,0-.19,0-.25a.39.39,0,0,1,0-.15.12.12,0,0,1,0-.08l.08,0a.32.32,0,0,1,.17.07l.29.15.4.15a2,2,0,0,0,.52.07,1.47,1.47,0,0,0,.32,0,.82.82,0,0,0,.25-.11.4.4,0,0,0,.16-.18.47.47,0,0,0,0-.24.45.45,0,0,0-.09-.28,1,1,0,0,0-.27-.2,2.57,2.57,0,0,0-.37-.16l-.42-.17a3.42,3.42,0,0,1-.43-.21,1.48,1.48,0,0,1-.37-.29,1.31,1.31,0,0,1-.26-.41,1.47,1.47,0,0,1-.1-.58,1.45,1.45,0,0,1,.13-.63,1.33,1.33,0,0,1,.39-.49,1.69,1.69,0,0,1,.61-.32,2.67,2.67,0,0,1,.82-.11,3.15,3.15,0,0,1,.44,0l.38.08.29.1a.75.75,0,0,1,.17.1s.06,0,.07.08a.17.17,0,0,1,0,.1.52.52,0,0,1,0,.14,1.15,1.15,0,0,1,0,.2,1.63,1.63,0,0,1,0,.24.61.61,0,0,1,0,.15s0,.06,0,.07L106,77a.37.37,0,0,1-.15-.06l-.25-.12-.36-.12a1.6,1.6,0,0,0-.46-.06,1,1,0,0,0-.32,0,.65.65,0,0,0-.22.11.51.51,0,0,0-.13.16.65.65,0,0,0,0,.2.43.43,0,0,0,.1.28,1,1,0,0,0,.27.2,2.72,2.72,0,0,0,.38.16l.43.17a2.39,2.39,0,0,1,.43.2,1.82,1.82,0,0,1,.38.29,1.46,1.46,0,0,1,.27.41A1.42,1.42,0,0,1,106.4,79.4Z"/><path d="M113.28,79.4a1.66,1.66,0,0,1-.16.72,1.35,1.35,0,0,1-.43.52A1.83,1.83,0,0,1,112,81a2.73,2.73,0,0,1-.83.11,2.78,2.78,0,0,1-.51,0,4.13,4.13,0,0,1-.44-.1,2.1,2.1,0,0,1-.32-.13.62.62,0,0,1-.19-.12.38.38,0,0,1-.09-.18,1.56,1.56,0,0,1,0-.35,1.7,1.7,0,0,1,0-.25,1,1,0,0,1,0-.15.12.12,0,0,1,0-.08l.08,0a.38.38,0,0,1,.18.07l.29.15.4.15a2,2,0,0,0,.51.07,1.57,1.57,0,0,0,.33,0,1,1,0,0,0,.25-.11.34.34,0,0,0,.15-.18.48.48,0,0,0,.06-.24.4.4,0,0,0-.1-.28.9.9,0,0,0-.26-.2,3.17,3.17,0,0,0-.37-.16l-.43-.17a4.11,4.11,0,0,1-.42-.21,1.48,1.48,0,0,1-.37-.29,1.33,1.33,0,0,1-.27-.41,1.67,1.67,0,0,1-.1-.58,1.46,1.46,0,0,1,.14-.63,1.41,1.41,0,0,1,.38-.49,1.74,1.74,0,0,1,.62-.32,2.56,2.56,0,0,1,.81-.11,3.15,3.15,0,0,1,.44,0l.39.08.29.1a.91.91,0,0,1,.16.1.3.3,0,0,1,.08.08l0,.1s0,.08,0,.14,0,.12,0,.2,0,.18,0,.24,0,.11,0,.15a.13.13,0,0,1,0,.07l-.07,0a.29.29,0,0,1-.15-.06l-.26-.12-.35-.12a1.65,1.65,0,0,0-.46-.06,1,1,0,0,0-.32,0,.65.65,0,0,0-.22.11.4.4,0,0,0-.13.16.45.45,0,0,0,0,.2.39.39,0,0,0,.1.28,1,1,0,0,0,.27.2,2.72,2.72,0,0,0,.38.16l.43.17a3.26,3.26,0,0,1,.43.2,1.76,1.76,0,0,1,.37.29,1.13,1.13,0,0,1,.27.41A1.41,1.41,0,0,1,113.28,79.4Z"/><path d="M119.14,78.31a3.6,3.6,0,0,1-.17,1.12,2.46,2.46,0,0,1-.48.87,2.22,2.22,0,0,1-.83.56,3.11,3.11,0,0,1-1.15.2,3.07,3.07,0,0,1-1.11-.18,2.08,2.08,0,0,1-.79-.51,2.14,2.14,0,0,1-.46-.84,4.12,4.12,0,0,1,0-2.24,2.34,2.34,0,0,1,.5-.87,2,2,0,0,1,.82-.56,2.89,2.89,0,0,1,1.15-.2,3.09,3.09,0,0,1,1.11.17,2.08,2.08,0,0,1,.79.51,2.43,2.43,0,0,1,.46.84A3.87,3.87,0,0,1,119.14,78.31Zm-1.4,0a3.36,3.36,0,0,0,0-.65,1.6,1.6,0,0,0-.19-.52,1,1,0,0,0-.36-.34,1.19,1.19,0,0,0-.56-.12,1.12,1.12,0,0,0-.53.11,1,1,0,0,0-.37.32,1.49,1.49,0,0,0-.22.51,3.39,3.39,0,0,0-.07.68,3.34,3.34,0,0,0,.06.65,1.6,1.6,0,0,0,.19.52.9.9,0,0,0,.36.34,1.19,1.19,0,0,0,.56.12,1.25,1.25,0,0,0,.53-.11,1,1,0,0,0,.37-.32,1.31,1.31,0,0,0,.21-.51A2.79,2.79,0,0,0,117.74,78.36Z"/><path d="M124.78,80.75a.17.17,0,0,1,0,.1.23.23,0,0,1-.11.06.56.56,0,0,1-.21,0l-.32,0-.33,0a.56.56,0,0,1-.21,0,.19.19,0,0,1-.1-.06.13.13,0,0,1,0-.1V78a2.05,2.05,0,0,0-.05-.55,1,1,0,0,0-.15-.34.6.6,0,0,0-.25-.22.78.78,0,0,0-.35-.08.92.92,0,0,0-.52.19,2.85,2.85,0,0,0-.55.55v3.18a.17.17,0,0,1,0,.1.29.29,0,0,1-.11.06.6.6,0,0,1-.21,0l-.33,0-.33,0a.54.54,0,0,1-.2,0,.23.23,0,0,1-.11-.06.18.18,0,0,1,0-.1V76a.16.16,0,0,1,0-.09.2.2,0,0,1,.1-.07.69.69,0,0,1,.18,0h.56a.53.53,0,0,1,.17,0s.08,0,.09.07a.16.16,0,0,1,0,.09v.56a2.79,2.79,0,0,1,.81-.65,1.84,1.84,0,0,1,.85-.21,1.86,1.86,0,0,1,.83.16,1.46,1.46,0,0,1,.54.44,1.72,1.72,0,0,1,.3.64,3.87,3.87,0,0,1,.09.89Z"/><path d="M127.8,76.69a2,2,0,0,1,0,.38.66.66,0,0,1-.13.25.48.48,0,0,1-.23.13,1.31,1.31,0,0,1-.37,0,1.23,1.23,0,0,1-.36,0,.47.47,0,0,1-.24-.13.53.53,0,0,1-.12-.25,2.42,2.42,0,0,1,0-.76.52.52,0,0,1,.12-.26.57.57,0,0,1,.24-.14,1.71,1.71,0,0,1,.36,0,1.82,1.82,0,0,1,.37,0,.59.59,0,0,1,.23.14.64.64,0,0,1,.13.26A2,2,0,0,1,127.8,76.69Zm0,3.51a2,2,0,0,1,0,.38.66.66,0,0,1-.13.25.59.59,0,0,1-.23.14,1.82,1.82,0,0,1-.37,0,1.71,1.71,0,0,1-.36,0,.57.57,0,0,1-.24-.14.53.53,0,0,1-.12-.25,2.42,2.42,0,0,1,0-.76.52.52,0,0,1,.12-.26.57.57,0,0,1,.24-.14,1.71,1.71,0,0,1,.36,0,1.82,1.82,0,0,1,.37,0,.59.59,0,0,1,.23.14.64.64,0,0,1,.13.26A2,2,0,0,1,127.8,80.2Z"/></g></g></svg>