<svg xmlns="http://www.w3.org/2000/svg" xmlns:xlink="http://www.w3.org/1999/xlink" viewBox="0 0 191.84 188.44"><defs><style>.cls-1{opacity:0.2;}.Graphic-Style-5{fill:url(#linear-gradient);}.cls-2{fill:url(#Degradado_sin_nombre_26);}.Graphic-Style-3{fill:url(#linear-gradient-2);}</style><linearGradient id="linear-gradient" x1="14.3" y1="16.38" x2="161.14" y2="168.12" gradientUnits="userSpaceOnUse"><stop offset="0" stop-color="#e6e7e8"/><stop offset="1" stop-color="#fff"/></linearGradient><linearGradient id="Degradado_sin_nombre_26" x1="60.33" y1="116.18" x2="156.33" y2="8.95" gradientUnits="userSpaceOnUse"><stop offset="0" stop-color="#93d500"/><stop offset="1" stop-color="#00953b"/></linearGradient><linearGradient id="linear-gradient-2" x1="-25.14" y1="-14.12" x2="110.43" y2="125.98" gradientUnits="userSpaceOnUse"><stop offset="0" stop-color="#bcbec0"/><stop offset="1" stop-color="#6d6e71"/></linearGradient></defs><g id="Capa_2" data-name="Capa 2"><g id="Capa_1-2" data-name="Capa 1"><g id="_21" data-name="21"><path class="cls-1" d="M3.82,169.42V23c0-10.5,8.26-19,18.45-19h137.2a17.22,17.22,0,0,1,11.71,4.63L187.71,24a13.11,13.11,0,0,1,.92,18.14h0A24.11,24.11,0,0,0,182.73,58V169.42c0,10.51-8.26,19-18.45,19h-142C12.08,188.44,3.82,179.93,3.82,169.42Z"/><path class="Graphic-Style-5" d="M0,165.41V19C0,8.52,8.26,0,18.45,0h137.2a17.2,17.2,0,0,1,11.71,4.63L183.89,20a13.12,13.12,0,0,1,.93,18.14h0A24.07,24.07,0,0,0,178.91,54V165.41c0,10.51-8.26,19-18.45,19h-142C8.26,184.43,0,175.92,0,165.41Z"/><polygon class="cls-2" points="85.8 133.22 41.01 93.79 57.93 73.36 83.42 95.8 157.06 11.5 176.42 29.48 85.8 133.22"/><polygon class="Graphic-Style-3" points="145.75 79.2 145.75 150.25 33.17 150.25 33.17 34.19 124.48 34.19 143.68 12.21 11.85 12.21 11.85 172.22 167.07 172.22 167.07 54.79 145.75 79.2"/></g></g></g></svg>