<svg xmlns="http://www.w3.org/2000/svg" xmlns:xlink="http://www.w3.org/1999/xlink" viewBox="0 0 412.87 322.21"><defs><style>.cls-1{fill:#2459a5;opacity:0;}.cls-2{fill:#2257a1;opacity:0.02;}.cls-3{fill:#21559c;opacity:0.03;}.cls-4{fill:#1f5298;opacity:0.05;}.cls-5{fill:#1d5094;opacity:0.07;}.cls-6{fill:#1b4e90;opacity:0.08;}.cls-7{fill:#1a4c8b;opacity:0.1;}.cls-8{fill:#184987;opacity:0.12;}.cls-9{fill:#164783;opacity:0.13;}.cls-10{fill:#15457e;opacity:0.15;}.cls-11{fill:#13437a;opacity:0.17;}.cls-12{fill:#114076;opacity:0.18;}.cls-13{fill:#0f3e72;opacity:0.2;}.cls-14{fill:#0e3c6d;opacity:0.22;}.cls-15{fill:#0c3a69;opacity:0.23;}.cls-16{fill:#0a3765;opacity:0.25;}.cls-17{fill:#093560;opacity:0.27;}.cls-18{fill:#07335c;opacity:0.28;}.cls-19{fill:#053158;opacity:0.3;}.cls-20{fill:#032e54;opacity:0.32;}.cls-21{fill:#022c4f;opacity:0.33;}.cls-22{fill:#002a4b;opacity:0.35;}.cls-23{fill:url(#linear-gradient);}.cls-24{fill:#fff;}</style><linearGradient id="linear-gradient" x1="516.77" y1="216.39" x2="62.07" y2="-119.42" gradientTransform="translate(-202.63)" gradientUnits="userSpaceOnUse"><stop offset="0" stop-color="#fefefe"/><stop offset="0.24" stop-color="#f5f5f6"/><stop offset="0.63" stop-color="#dedee0"/><stop offset="1" stop-color="#c2c2c5"/></linearGradient></defs><g id="Capa_2" data-name="Capa 2"><g id="Capa_1-2" data-name="Capa 1"><path class="cls-1" d="M203.78,32.71C389,33.91,429.33,135,407.51,228.86,393,291.43,287.76,327.78,186.58,321.52,34.17,312.08-1.45,240.89,0,187.94,4,47.15,85.36,31.94,203.78,32.71Z" transform="translate(0)"/><path class="cls-2" d="M204.29,39.07c178.49,1.19,218.6,97.89,197.8,187.74-13.87,60.07-115.76,95-214.22,89C40.63,306.81,5,238.58,6.45,187.69,10.24,53.12,89.42,38.29,204.29,39.07Z" transform="translate(0)"/><path class="cls-3" d="M204.81,45.43c171.76,1.17,211.64,93.48,191.87,179.34-13.19,57.56-111.78,91.14-207.52,85.39C47.08,301.53,11.48,236.28,12.85,187.43,16.47,59.1,93.48,44.64,204.81,45.43Z" transform="translate(0)"/><path class="cls-4" d="M205.32,51.78C370.36,53,410,140.86,391.26,222.72c-12.51,55.06-107.8,87.26-200.81,81.76C53.54,296.26,17.94,234,19.25,187.18,22.69,65.08,97.54,51,205.32,51.78Z" transform="translate(0)"/><path class="cls-5" d="M205.84,58.14c158.31,1.15,197.72,84.67,180,162.54C374,273.23,282,304.05,191.74,298.8,60,291,24.4,231.67,25.66,186.92,28.92,71.05,101.6,57.35,205.84,58.14Z" transform="translate(0)"/><path class="cls-6" d="M206.35,64.5c151.59,1.14,190.76,80.26,174.08,154.13-11.15,50.05-99.84,79.48-187.4,74.49-126.59-7.41-162.16-63.75-161-106.45C35.15,77,105.66,63.7,206.35,64.5Z" transform="translate(0)"/><path class="cls-7" d="M206.87,70.86C351.72,72,390.67,146.71,375,216.59c-10.47,47.54-95.85,75.59-180.69,70.85-121.42-7-157-60.37-155.85-101C41.37,83,109.72,70.05,206.87,70.86Z" transform="translate(0)"/><path class="cls-8" d="M207.38,77.22c138.13,1.11,176.69,71.41,162.21,137.32-9.89,45-91.86,71.7-174,67.22-116.26-6.6-151.82-57-150.74-95.6C47.6,89,113.78,76.4,207.38,77.22Z" transform="translate(0)"/><path class="cls-9" d="M207.9,83.58c131.4,1.1,169.71,67,156.28,128.92C355,255,276.29,280.31,196.9,276.08,85.81,269.89,50.25,222.46,51.27,185.9,53.83,95,117.84,82.75,207.9,83.58Z" transform="translate(0)"/><path class="cls-10" d="M208.41,89.94C333.09,91,371.15,152.53,358.76,210.45c-8.56,40-83.9,63.93-160.56,59.95C92.26,264.62,56.72,220.16,57.68,185.65,60.05,100.93,121.9,89.1,208.41,89.94Z" transform="translate(0)"/><path class="cls-11" d="M208.93,96.3c118,1.07,155.76,58.17,144.41,112.11-7.88,37.48-79.91,60-153.85,56.31C98.71,259.34,63.18,217.86,64.08,185.39,66.28,106.91,126,95.46,208.93,96.3Z" transform="translate(0)"/><path class="cls-12" d="M209.44,102.66c111.23,1,148.79,53.76,138.49,103.7-7.22,35-75.94,56.15-147.15,52.69-95.61-5-131.14-43.5-130.3-73.91C72.51,112.88,130,101.81,209.44,102.66Z" transform="translate(0)"/><path class="cls-13" d="M210,109c104.5,1,141.81,49.35,132.55,95.3-6.55,32.47-71.95,52.26-140.44,49.05-90.45-4.57-126-40.12-125.18-68.49C78.73,118.86,134.08,108.16,210,109Z" transform="translate(0)"/><path class="cls-14" d="M210.47,115.38c97.78,1,134.85,44.94,126.62,86.9-5.87,29.95-68,48.36-133.73,45.41C118.08,243.52,82.57,211,83.29,184.62,85,124.83,138.14,114.51,210.47,115.38Z" transform="translate(0)"/><path class="cls-15" d="M211,121.73c91.05,1,127.88,40.54,120.68,78.5-5.2,27.45-64,44.61-127,41.78-80.13-3.6-115.62-33.36-115-57.64C91.19,130.81,142.2,120.86,211,121.73Z" transform="translate(0)"/><path class="cls-16" d="M211.5,128.09c84.33,1,120.92,36.13,114.76,70.1-4.53,24.94-60,40.71-120.32,38.14-75-3.2-110.45-30-109.84-52.22C97.41,136.79,146.26,127.22,211.5,128.09Z" transform="translate(0)"/><path class="cls-17" d="M212,134.45c77.6,1,114,31.73,108.82,61.69-3.85,22.44-56,36.82-113.61,34.51C137.43,227.85,102,204,102.5,183.86,103.64,142.76,150.32,133.57,212,134.45Z" transform="translate(0)"/><path class="cls-18" d="M212.53,140.81c70.88,1,107,27.32,102.89,53.29C312.26,214,263.39,227,208.52,225c-64.63-2.41-100.1-23.23-99.62-41.37C109.86,148.74,154.38,139.92,212.53,140.81Z" transform="translate(0)"/><path class="cls-19" d="M213.05,147.17c64.15,1,100.07,22.92,97,44.88C307.54,209.49,262,221,209.81,219.29c-59.46-2.14-94.93-19.86-94.5-35.94C116.09,154.71,158.44,146.27,213.05,147.17Z" transform="translate(0)"/><path class="cls-20" d="M213.56,153.53c57.43.95,93.15,18.52,91,36.48-1.77,14.94-44.07,25-93.49,23.6-54.3-1.73-89.76-16.48-89.39-30.52C122.32,160.69,162.5,152.62,213.56,153.53Z" transform="translate(0)"/><path class="cls-21" d="M214.08,159.89c50.7.93,86.26,14.12,85.09,28.07-1,12.44-40.08,21.15-86.78,20-49.13-1.32-84.58-13.1-84.27-25.09C128.54,166.66,166.56,159,214.08,159.89Z" transform="translate(0)"/><path class="cls-22" d="M214.59,166.25c44,.92,79.42,9.73,79.17,19.67s-36.1,17.25-80.08,16.33-79.41-9.72-79.16-19.67S170.62,165.33,214.59,166.25Z" transform="translate(0)"/><path class="cls-23" d="M391.14,0H21.73A21.8,21.8,0,0,0,0,21.73V252A21.8,21.8,0,0,0,21.73,273.7H225.78l-11.18,30c-1.93,4,2.62,8.35,6.38,5.92,19.59-12.63,36.86-24.69,53.7-35.92H391.14A21.8,21.8,0,0,0,412.87,252V21.73A21.8,21.8,0,0,0,391.14,0Z" transform="translate(0)"/><path class="cls-24" d="M4.08,256.05V25.81A21.8,21.8,0,0,1,25.81,4.08H395.23a21.6,21.6,0,0,1,13.15,4.49A21.73,21.73,0,0,0,391.14,0H21.73A21.8,21.8,0,0,0,0,21.73V252A21.8,21.8,0,0,0,21.73,273.7H22C12.1,272.28,4.08,266.38,4.08,256.05Z" transform="translate(0)"/><path class="cls-24" d="M218.68,307.78l12.14-33.73h-5.17L214.6,303.7a4.66,4.66,0,0,0,3.67,6.6A4.46,4.46,0,0,1,218.68,307.78Z" transform="translate(0)"/></g></g></svg>