<svg xmlns="http://www.w3.org/2000/svg" viewBox="0 0 75.11 75.11"><defs><style>.cls-1{fill:#006632;}.cls-2{fill:#fff;}</style></defs><g id="Capa_2" data-name="Capa 2"><g id="Capa_1-2" data-name="Capa 1"><circle class="cls-1" cx="37.55" cy="37.55" r="37.55" transform="translate(-5.53 68.61) rotate(-80.78)"/><path class="cls-2" d="M42.56,58H51a1.88,1.88,0,0,0,1.88-1.88V38h2a1.89,1.89,0,0,0,1.33-3.23L38.88,17.64a1.9,1.9,0,0,0-2.65,0L18.89,34.73A1.89,1.89,0,0,0,20.21,38h1.92V56.12A1.88,1.88,0,0,0,24,58h8.36a1.88,1.88,0,0,0,1.88-1.88V45.8h6.41V56.12A1.89,1.89,0,0,0,42.56,58ZM32.38,42a1.89,1.89,0,0,0-1.89,1.89V54.23H25.9V36.07a1.88,1.88,0,0,0-1.21-1.76L37.55,21.63,50.39,34.28a1.9,1.9,0,0,0-1.3,1.79V54.23H44.45V43.92A1.89,1.89,0,0,0,42.56,42Z"/><path class="cls-2" d="M34.13,27.34l-6.6,6.59A1.18,1.18,0,1,0,29.2,35.6L35.79,29a1.15,1.15,0,0,0,0-1.66A1.17,1.17,0,0,0,34.13,27.34Z"/></g></g></svg>