<svg xmlns="http://www.w3.org/2000/svg" viewBox="0 0 42 42"><defs><style>.cls-1{fill:#00877a;}.cls-2{fill:#fff;}</style></defs><g id="Capa_2" data-name="Capa 2"><g id="Capa_1-2" data-name="Capa 1"><circle class="cls-1" cx="21" cy="21" r="21" transform="translate(-4.26 36.61) rotate(-76.72)"/><path class="cls-2" d="M21,10.27A10.73,10.73,0,1,0,31.73,21,10.75,10.75,0,0,0,21,10.27Zm0,19.48A8.75,8.75,0,1,1,29.75,21,8.77,8.77,0,0,1,21,29.75Z"/><path class="cls-2" d="M21,26.91A5.92,5.92,0,0,1,15.09,21a.62.62,0,1,0-1.24,0A7.16,7.16,0,0,0,21,28.15a.62.62,0,1,0,0-1.24Z"/><path class="cls-2" d="M27.8,20.08H22V14.2a1,1,0,1,0-2,0v6.87a1,1,0,0,0,1,1h6.8a1,1,0,0,0,0-2Z"/></g></g></svg>