<svg xmlns="http://www.w3.org/2000/svg" viewBox="0 0 42 42"><defs><style>.cls-1{fill:#00877a;}.cls-2{fill:#fff;}</style></defs><g id="Capa_2" data-name="Capa 2"><g id="Capa_1-2" data-name="Capa 1"><circle class="cls-1" cx="21" cy="21" r="21"/><path class="cls-2" d="M35.32,31.71,33.2,29.59l2.08-2.08a.8.8,0,0,0-.37-1.34l-1.83-.46a12.74,12.74,0,1,0-7.57,7.57L26,35.11a.8.8,0,0,0,1.34.37l2.08-2.08,2.12,2.13a.8.8,0,0,0,1.13,0l2.68-2.69A.79.79,0,0,0,35.32,31.71Zm-7.65-7.39c.09-.72.15-1.46.17-2.21h4.4a11.33,11.33,0,0,1-.71,3.2ZM10,22.11h4.4a23.07,23.07,0,0,0,.46,4H11A11.11,11.11,0,0,1,10,22.11Zm1-5.58h3.81a23.07,23.07,0,0,0-.46,4H10A11.11,11.11,0,0,1,11,16.53Zm21.21,4h-4.4a23.07,23.07,0,0,0-.46-4h3.81A11.11,11.11,0,0,1,32.24,20.51Zm-6,0H21.91v-4h3.84A21.76,21.76,0,0,1,26.25,20.51Zm-4.34-5.57V10.3c1.69.63,2.82,2.92,3.4,4.64Zm-1.6-4.64v4.64h-3.4C17.48,13.22,18.62,10.93,20.31,10.3Zm0,6.23v4H16a21.76,21.76,0,0,1,.5-4ZM16,22.11h4.34v4H16.47A21.76,21.76,0,0,1,16,22.11Zm4.34,5.57v4.64c-1.69-.63-2.83-2.92-3.4-4.64Zm1.6,4.64V27.68h2.17l.47,1.84A5.57,5.57,0,0,1,21.91,32.32Zm2.3-8.88a.8.8,0,0,0-1,1l.43,1.68H21.91v-4h4.34c0,.61-.07,1.22-.14,1.82Zm6.05-8.5H27A13.19,13.19,0,0,0,25,10.87,11.15,11.15,0,0,1,30.26,14.94ZM17.18,10.87a13.17,13.17,0,0,0-1.94,4.07H12A11.18,11.18,0,0,1,17.18,10.87ZM12,27.68h3.28a13.27,13.27,0,0,0,1.94,4.07A11.18,11.18,0,0,1,12,27.68ZM25,31.76l.07-.09v.06Zm7,2.08L30,31.71a.8.8,0,0,0-1.13,0l-1.65,1.65-2.05-8,8,2.05L31.51,29a.8.8,0,0,0,0,1.13l2.12,2.12Z"/></g></g></svg>