<svg xmlns="http://www.w3.org/2000/svg" xmlns:xlink="http://www.w3.org/1999/xlink" viewBox="0 0 554.58 88.88"><defs><style>.cls-1{fill:url(#Degradado_sin_nombre_38);}.cls-2{fill:url(#Degradado_sin_nombre_38-2);}.cls-3{fill:url(#Degradado_sin_nombre_38-3);}.cls-4{fill:url(#Degradado_sin_nombre_38-4);}.cls-5{fill:url(#Degradado_sin_nombre_38-5);}.cls-6{fill:url(#Degradado_sin_nombre_38-6);}.cls-7{fill:url(#Degradado_sin_nombre_38-7);}.cls-8{fill:url(#Degradado_sin_nombre_38-8);}.cls-9{fill:url(#Degradado_sin_nombre_38-9);}.cls-10{fill:url(#Degradado_sin_nombre_38-10);}.cls-11{fill:#fff;}</style><radialGradient id="Degradado_sin_nombre_38" cx="711.23" cy="-301.21" r="296.32" gradientTransform="matrix(0, -0.5, -0.5, 0, -159.27, 461.5)" gradientUnits="userSpaceOnUse"><stop offset="0" stop-color="#93d500"/><stop offset="0.13" stop-color="#8cd203"/><stop offset="0.32" stop-color="#77c90b"/><stop offset="0.55" stop-color="#55ba19"/><stop offset="0.81" stop-color="#27a62b"/><stop offset="1" stop-color="#00953b"/></radialGradient><radialGradient id="Degradado_sin_nombre_38-2" cx="972.74" cy="-533.19" r="309.59" gradientTransform="matrix(0, -0.46, -0.46, 0, -160.12, 448.04)" xlink:href="#Degradado_sin_nombre_38"/><radialGradient id="Degradado_sin_nombre_38-3" cx="711.23" cy="-534.06" r="296.32" xlink:href="#Degradado_sin_nombre_38"/><radialGradient id="Degradado_sin_nombre_38-4" cx="972.74" cy="-786.07" r="309.59" gradientTransform="matrix(0, -0.46, -0.46, 0, -160.12, 448.04)" xlink:href="#Degradado_sin_nombre_38"/><radialGradient id="Degradado_sin_nombre_38-5" cx="711.23" cy="-766.91" r="296.32" xlink:href="#Degradado_sin_nombre_38"/><radialGradient id="Degradado_sin_nombre_38-6" cx="972.74" cy="-1038.95" r="309.59" gradientTransform="matrix(0, -0.46, -0.46, 0, -160.12, 448.04)" xlink:href="#Degradado_sin_nombre_38"/><radialGradient id="Degradado_sin_nombre_38-7" cx="711.23" cy="-999.76" r="296.32" xlink:href="#Degradado_sin_nombre_38"/><radialGradient id="Degradado_sin_nombre_38-8" cx="972.74" cy="-1291.83" r="309.59" gradientTransform="matrix(0, -0.46, -0.46, 0, -160.12, 448.04)" xlink:href="#Degradado_sin_nombre_38"/><radialGradient id="Degradado_sin_nombre_38-9" cx="711.23" cy="-1232.61" r="296.32" xlink:href="#Degradado_sin_nombre_38"/><radialGradient id="Degradado_sin_nombre_38-10" cx="972.74" cy="-1544.71" r="309.59" gradientTransform="matrix(0, -0.46, -0.46, 0, -160.12, 448.04)" xlink:href="#Degradado_sin_nombre_38"/></defs><g id="Capa_2" data-name="Capa 2"><g id="Capa_1-2" data-name="Capa 1"><path class="cls-1" d="M44.44,0A44.44,44.44,0,1,0,88.88,44.45,44.45,44.45,0,0,0,44.44,0Z"/><path class="cls-2" d="M44.44,6A38.44,38.44,0,1,0,82.88,44.44,38.43,38.43,0,0,0,44.44,6Z"/><path class="cls-3" d="M160.87,0A44.44,44.44,0,1,0,205.3,44.45,44.45,44.45,0,0,0,160.87,0Z"/><path class="cls-4" d="M160.87,6a38.44,38.44,0,1,0,38.44,38.43A38.42,38.42,0,0,0,160.87,6Z"/><path class="cls-5" d="M277.29,0a44.44,44.44,0,1,0,44.44,44.45A44.45,44.45,0,0,0,277.29,0Z"/><path class="cls-6" d="M277.29,6a38.44,38.44,0,1,0,38.44,38.43A38.43,38.43,0,0,0,277.29,6Z"/><path class="cls-7" d="M393.72,0a44.44,44.44,0,1,0,44.43,44.45A44.45,44.45,0,0,0,393.72,0Z"/><path class="cls-8" d="M393.72,6a38.44,38.44,0,1,0,38.44,38.43A38.43,38.43,0,0,0,393.72,6Z"/><path class="cls-9" d="M510.14,0a44.44,44.44,0,1,0,44.44,44.45A44.45,44.45,0,0,0,510.14,0Z"/><path class="cls-10" d="M510.14,6a38.44,38.44,0,1,0,38.44,38.43A38.43,38.43,0,0,0,510.14,6Z"/><path class="cls-11" d="M64.65,22.62H24.23a.69.69,0,0,0-.7.69h0V37.25h1.4V24H64V39.34H39.56v1.4H64.65a.71.71,0,0,0,.7-.7h0V23.31A.7.7,0,0,0,64.65,22.62Z"/><rect class="cls-11" x="46.53" y="26.1" width="13.94" height="1.39"/><rect class="cls-11" x="48.62" y="30.28" width="13.94" height="1.39"/><rect class="cls-11" x="45.83" y="34.46" width="13.94" height="1.39"/><path class="cls-11" d="M45.78,28.62a2.26,2.26,0,0,0-2.94-1.21l-.06,0-5.65,2.93a3.45,3.45,0,0,0,.34-1.48,3.49,3.49,0,1,0-7,0A3.39,3.39,0,0,0,31.22,31h0a4.79,4.79,0,0,0-4.45,3.09l-1.86,6.42a2.23,2.23,0,0,0,2.91,2.87A2.27,2.27,0,0,0,29.08,42l.72-2.32V49.79a3.44,3.44,0,0,0-2.09-.72,3.48,3.48,0,0,0-3.48,3.48,3.51,3.51,0,0,0,1.05,2.5,3.2,3.2,0,0,0-1.75,2.84v5.84a.7.7,0,0,0,.7.7h7a.69.69,0,0,0,.69-.7h0V57.89a3.19,3.19,0,0,0-1.24-2.52h5.28a3.2,3.2,0,0,0-1.25,2.52v5.84a.7.7,0,0,0,.7.7h7a.7.7,0,0,0,.7-.7h0V57.89a3.2,3.2,0,0,0-1.75-2.84,3.49,3.49,0,0,0-3.13-5.91V34.89l6.39-3.33A2.25,2.25,0,0,0,45.78,28.62ZM34,26.8a2.09,2.09,0,1,1-2.1,2.09A2.09,2.09,0,0,1,34,26.8ZM27.71,50.47a2.09,2.09,0,1,1-2.09,2.09A2.08,2.08,0,0,1,27.71,50.47ZM30.5,63H24.93V57.89a1.81,1.81,0,0,1,1.82-1.82h1.92a1.82,1.82,0,0,1,1.83,1.82Zm11.15-5.15V63H36.08V57.89a1.81,1.81,0,0,1,1.82-1.82h1.93A1.82,1.82,0,0,1,41.65,57.89Zm-2.79-7.42a2.09,2.09,0,1,1-2.09,2.09A2.08,2.08,0,0,1,38.86,50.47ZM44.5,29.79a.87.87,0,0,1-.52.51l-6.83,3.54a.71.71,0,0,0-.38.62V49.79A3.45,3.45,0,0,0,35.69,54h-1V42.13H33.29V54h-2.4a3.57,3.57,0,0,0,.31-1.4h0V35.16A.7.7,0,0,0,29.84,35l-2.08,6.62a.85.85,0,0,1-1.08.51l-.09,0a.87.87,0,0,1-.39-1.11l1.86-6.41a3.39,3.39,0,0,1,3.13-2.15h4.93a.61.61,0,0,0,.32-.08l6.93-3.59a.86.86,0,0,1,1.1.41A.85.85,0,0,1,44.5,29.79Z"/><path class="cls-11" d="M52.45,55.05A3.49,3.49,0,1,0,47.52,55l.06.07a3.2,3.2,0,0,0-1.75,2.84v5.84a.7.7,0,0,0,.7.7h7a.7.7,0,0,0,.7-.7h0V57.89A3.2,3.2,0,0,0,52.45,55.05ZM50,50.47a2.09,2.09,0,1,1-2.09,2.09A2.08,2.08,0,0,1,50,50.47ZM52.8,63H47.23V57.89a1.81,1.81,0,0,1,1.82-1.82H51a1.82,1.82,0,0,1,1.82,1.82Z"/><path class="cls-11" d="M63.6,55.05A3.49,3.49,0,1,0,58.67,55l.06.07A3.2,3.2,0,0,0,57,57.89v5.84a.7.7,0,0,0,.7.7h7a.7.7,0,0,0,.7-.7h0V57.89A3.2,3.2,0,0,0,63.6,55.05Zm-2.44-4.58a2.09,2.09,0,1,1-2.09,2.09A2.08,2.08,0,0,1,61.16,50.47ZM64,63H58.38V57.89a1.81,1.81,0,0,1,1.82-1.82h1.93A1.82,1.82,0,0,1,64,57.89Z"/><path class="cls-11" d="M154.59,28.59a9.6,9.6,0,1,0,3.52,18.52l1-1-.1-.11-.48-.45a8.34,8.34,0,1,1,3.5-3.64l.47.47.24.25.63-.63a9.6,9.6,0,0,0-8.82-13.37Z"/><path class="cls-11" d="M178.32,55.57h-.39a2.6,2.6,0,0,1-2.08-.77c-.08-.08-.16-.15-.16-.23a2.55,2.55,0,0,1-.54-1.7V51.63a1.76,1.76,0,0,0-.46-1.24,1.72,1.72,0,0,0-2.4,0l-.93,1-1.93-1.93L174,44.91a12.31,12.31,0,0,0,2.32.31A9.3,9.3,0,0,0,183,42.43,9.43,9.43,0,0,0,185.28,33l-.39-1.23-7.11,7.11-4.64-4.64,7.11-7.11L179,26.74a10.55,10.55,0,0,0-2.71-.38,9.1,9.1,0,0,0-5.57,1.85l-.15-.39-3.86,1a16.7,16.7,0,0,0-3.1-3l.85-3.86-5.87-2.32-2,3.4a16.46,16.46,0,0,0-4.33.08L150,19.79l-5.8,2.55,1,3.86a16.34,16.34,0,0,0-3,3.09l-3.86-.85L136,34.32l3.4,2a16.47,16.47,0,0,0,.08,4.33l-3.33,2.16,2.56,5.8,3.86-1a16.34,16.34,0,0,0,3.09,3L145,53.79a9.32,9.32,0,0,0-1.86,8.82l.39,1.23,7.11-7.11,4.64,4.64-7.11,7.11,1.23.39a10.49,10.49,0,0,0,2.71.38,9.25,9.25,0,0,0,6.64-2.78,9.55,9.55,0,0,0,2.48-9l4.64-4.63,1.93,1.93-.85.85a1.8,1.8,0,0,0-.39,1.85,1.71,1.71,0,0,0,1.62,1.09h1.24a2.6,2.6,0,0,1,1.7.54c.08.08.16.08.23.15a2.42,2.42,0,0,1,.78,2.09v.39l5.56,5.56a4.33,4.33,0,0,0,3.09,1.32A4.52,4.52,0,0,0,184,67.32a4.41,4.41,0,0,0,0-6.26Zm4.41,10.67a3,3,0,0,1-4.1,0l-5-5a4.21,4.21,0,0,0-1.23-2.93l-.31-.31a4.36,4.36,0,0,0-2.71-.85h-1.16c-.07,0-.15,0-.15-.08v-.15l.85-.85,3.56-3.56.85-.85a.14.14,0,0,1,.23,0l.07.08v1.23a4.24,4.24,0,0,0,.93,2.71,1.29,1.29,0,0,0,.31.31,4.24,4.24,0,0,0,2.94,1.24l5,5A2.83,2.83,0,0,1,182.73,66.24Zm-23.19-9.12.15.46a8,8,0,0,1-1.93,7.89,7.94,7.94,0,0,1-5.57,2.31,4.12,4.12,0,0,1-.92-.07l6.26-6.26-6.88-6.88-6.26,6.26a7.78,7.78,0,0,1,2.24-6.49A7.9,7.9,0,0,1,152.19,52a7.68,7.68,0,0,1,2.32.31l.47.15,5.25-5.26,4.64,4.64ZM143.23,45.83l-3.56.93-1.47-3.4,3.1-2-.08-.54a12.87,12.87,0,0,1-.08-4.87l.08-.54-3.17-1.86,1.31-3.4,3.64.78.31-.47A13,13,0,0,1,146.63,27l.46-.3-.92-3.56,3.4-1.47,2,3.09.54-.07a12.84,12.84,0,0,1,4.87-.08l.54.08,1.85-3.17,3.4,1.31L162,26.43l.46.31A12.72,12.72,0,0,1,166,30.07l.31.46,2.94-.77A9.17,9.17,0,0,0,167.34,38L163.41,42l-.63.63-.24-.25-.47-.47L160.16,40l.23-2.32-7.73-4.79-3.4,3.32,4.87,7.65,2.39-.31,2,2,.48.45.1.11-1,1-3.52,3.52a11.54,11.54,0,0,0-2.32-.31,9.52,9.52,0,0,0-5.18,1.54l.47-2.08-.47-.31a9.42,9.42,0,0,1-3.55-3.17ZM171,34.24l6.88,6.88,6.26-6.26a7.77,7.77,0,0,1-2.25,6.49,7.87,7.87,0,0,1-5.56,2.32,8.05,8.05,0,0,1-2.32-.31l-.46-.15-5.18,5.17-4.64-4.63,5.18-5.18-.15-.47a8,8,0,0,1,1.93-7.88,7.9,7.9,0,0,1,5.56-2.32,4,4,0,0,1,1,.08ZM160.75,45.58l0,0-.44-.44-.45-.45-2.77-2.77-2.16.31-3.63-5.8,1.54-1.54,5.8,3.63-.23,2.09,2.76,2.76.45.45.44.44,0,0L167.81,50l2.47,2.47L169,53.79l-2.48-2.47Z"/><rect class="cls-11" x="158.3" y="52.17" width="1.55" height="1.55" rx="0.77" transform="translate(9.15 127.99) rotate(-45)"/><rect class="cls-11" x="168.66" y="41.86" width="1.55" height="1.55" rx="0.77" transform="translate(19.48 132.29) rotate(-45)"/><path class="cls-11" d="M254.79,39.67a.92.92,0,0,0,.28-.05l.91-.29V49.68h0v0l.28,4.75a2.61,2.61,0,0,0,2.62,2.58h11.33a2.61,2.61,0,0,0,2.61-2.58l.28-4.75v0h0V39.33l.91.29a.74.74,0,0,0,.29.05.91.91,0,0,0,.28-1.78L273,37.36l-1.48-8.69a3,3,0,0,0-2.93-2.49h-8.17a3,3,0,0,0-2.93,2.49l-1.41,8.7-1.58.52a.91.91,0,0,0,.29,1.78Zm3.3-3.28.77-4.73h2.07a2,2,0,0,0,1.95-1.75l.22-1.9h2.81l.22,1.9a2,2,0,0,0,1.95,1.75h2.08l.81,4.71a18.61,18.61,0,0,0-6.58-1.22A18.82,18.82,0,0,0,258.09,36.39Zm6.82.59a15.05,15.05,0,0,1,5.54,1.16l-2.27,1.53H260.9l-2.26-1.53a15.34,15.34,0,0,1,4.48-1.06,13.33,13.33,0,0,1,1.79-.1Zm2.64,4.52v3.68h-6V41.5Zm1.83,4.2V41.07l1.89-1.27v7.73Zm-9.68,0-1.89,1.83V39.79l1.89,1.28ZM261,47h7.1l1.83,1.76H259.16Zm10,7.44a.78.78,0,0,1-.78.78H258.88a.78.78,0,0,1-.79-.78v-.06l-.22-3.79h13.35L271,54.39A.13.13,0,0,0,271,54.45ZM268.58,28a1.13,1.13,0,0,1,1.12.94l.15.88h-1.77a.14.14,0,0,1-.13-.13l-.2-1.69Zm-8.16,0h.84l-.2,1.7a.14.14,0,0,1-.13.12h-1.77l.14-.87A1.13,1.13,0,0,1,260.42,28Z"/><path class="cls-11" d="M280,37.89a.91.91,0,0,0,.28,1.78,1,1,0,0,0,.29-.05l.91-.29V49.68h0v0l.28,4.75a2.61,2.61,0,0,0,2.61,2.58H295.7a2.61,2.61,0,0,0,2.62-2.58l.28-4.75v0h0V39.33l.91.29a.71.71,0,0,0,.29.05.91.91,0,0,0,.28-1.78l-1.59-.53-1.29-7.53L297,28.67a3,3,0,0,0-2.93-2.49h-8.17A3,3,0,0,0,283,28.67l-1.41,8.7Zm3.59-1.5.77-4.73h2.06a2,2,0,0,0,2-1.75l.22-1.9h2.81l.22,1.9a2,2,0,0,0,1.95,1.75h2.08l.81,4.71a16.9,16.9,0,0,0-5.14-1.16,10.28,10.28,0,0,0-1.1-.06,17.14,17.14,0,0,0-6.64,1.24Zm8.16.7a14.1,14.1,0,0,1,4.19,1l-2.26,1.53H286.4l-2.26-1.53A15.84,15.84,0,0,1,289.36,37,12.74,12.74,0,0,1,291.75,37.09Zm1.3,4.41v3.68h-6V41.5Zm1.83,4.2V41.07l1.89-1.27v7.73Zm-9.68,0-1.89,1.83V39.79l1.89,1.28ZM286.49,47h7.1l1.83,1.76H284.66Zm10,7.44a.78.78,0,0,1-.79.78H284.37a.78.78,0,0,1-.78-.78.13.13,0,0,0,0-.06l-.22-3.79h13.35l-.22,3.79v.06ZM294.08,28a1.14,1.14,0,0,1,1.12.94l.15.88h-1.77a.15.15,0,0,1-.14-.13L293.25,28Zm-8.16,0h.84l-.2,1.7a.15.15,0,0,1-.14.12h-1.77l.14-.87A1.14,1.14,0,0,1,285.92,28Z"/><path class="cls-11" d="M299.79,62.6a.91.91,0,1,0,0-1.82H278.2V54a.91.91,0,0,0-1.82,0v6.76H254.79a.91.91,0,1,0,0,1.82h8.08v2.05h-8.08a.92.92,0,1,0,0,1.83h45a.92.92,0,1,0,0-1.83h-8.08V62.6Zm-35.09,0h7.17v2.05H264.7Zm9,0h7.18v2.05H273.7Zm9,0h7.17v2.05h-7.17Z"/><path class="cls-11" d="M275.4,24.24h1v21.3a.91.91,0,1,0,1.82,0V24.24h.94a.92.92,0,1,0,0-1.83H275.4a.92.92,0,1,0,0,1.83Z"/><path class="cls-11" d="M278.05,49.27a.92.92,0,1,0-1.52,1,.92.92,0,0,0,1.52-1Z"/><path class="cls-11" d="M519.41,37.25H501.33a.93.93,0,0,0,0,1.85h18.08a.93.93,0,1,0,0-1.85Z"/><path class="cls-11" d="M519.41,41.42H497.16a.93.93,0,0,0,0,1.85h22.25a.93.93,0,1,0,0-1.85Z"/><path class="cls-11" d="M497.16,34.93h22.25a.93.93,0,0,0,0-1.86H497.16a.93.93,0,0,0,0,1.86Z"/><path class="cls-11" d="M506.43,45.59h-9.27a.93.93,0,0,0,0,1.85h9.27a.93.93,0,1,0,0-1.85Z"/><path class="cls-11" d="M502.72,49.76h-5.56a.93.93,0,0,0,0,1.86h5.56a.93.93,0,0,0,0-1.86Z"/><path class="cls-11" d="M497.16,39.1a.93.93,0,1,0,0-1.85h0a.93.93,0,1,0,0,1.85Z"/><path class="cls-11" d="M523.12,51.65a2.8,2.8,0,0,0-2,.81l-3,3-.51-.51a2.78,2.78,0,1,0-3.93,3.94l2.47,2.47a2.79,2.79,0,0,0,3.93,0l5-5a2.78,2.78,0,0,0-2-4.74Zm.66,3.43-4.95,5a.93.93,0,0,1-1.31,0l-2.47-2.48a.88.88,0,0,1-.27-.65.91.91,0,0,1,.27-.66.93.93,0,0,1,.65-.27,1,1,0,0,1,.66.27l1.16,1.17a.93.93,0,0,0,1.31,0l3.63-3.64a1,1,0,0,1,.66-.27.93.93,0,0,1,.66,1.58Z"/><path class="cls-11" d="M526.83,46.7h-.93V21.49a1.85,1.85,0,0,0-1.85-1.86H500.87a.91.91,0,0,0-.65.27l-9.28,9.27a1,1,0,0,0-.27.66v31.7a1.86,1.86,0,0,0,1.86,1.86h16.68v.93A2.79,2.79,0,0,0,512,67.1h14.83a2.79,2.79,0,0,0,2.78-2.78V49.48a2.79,2.79,0,0,0-2.78-2.78ZM499.94,22.8v6.1h-6.1Zm-7.41,38.73V30.76h7.41a1.86,1.86,0,0,0,1.86-1.86V21.49h22.25V46.7H512a2.79,2.79,0,0,0-2.79,2.78V61.53Zm35.23,2.79a.93.93,0,0,1-.93.92H512a.92.92,0,0,1-.93-.92V49.48a.92.92,0,0,1,.93-.92h14.83a.93.93,0,0,1,.93.92Z"/><path class="cls-11" d="M401.93,44.17h-4.56V39.61a.92.92,0,0,0-.92-.92H391a.92.92,0,0,0-.92.92v4.56H385.5a.92.92,0,0,0-.92.91v5.48a.92.92,0,0,0,.92.92h4.56V56A.91.91,0,0,0,391,57h5.47a.91.91,0,0,0,.92-.91V51.48h4.56a.92.92,0,0,0,.92-.92V45.08A.92.92,0,0,0,401.93,44.17ZM401,49.65h-4.57a.91.91,0,0,0-.91.91v4.57h-3.65V50.56a.91.91,0,0,0-.91-.91h-4.57V46H391a.92.92,0,0,0,.91-.92V40.52h3.65v4.56a.92.92,0,0,0,.91.92H401Z"/><path class="cls-11" d="M412.53,31.39h-6.94V25.91a5.49,5.49,0,0,0-5.48-5.48H387.32a5.48,5.48,0,0,0-5.47,5.48v5.48h-6.94A4.57,4.57,0,0,0,370.34,36V59.69a4.58,4.58,0,0,0,4.57,4.57h37.62a4.57,4.57,0,0,0,4.56-4.57V36A4.57,4.57,0,0,0,412.53,31.39Zm-28.86-5.48a3.66,3.66,0,0,1,3.65-3.65h12.79a3.66,3.66,0,0,1,3.65,3.65v5.48h-1.83V26.82a2.74,2.74,0,0,0-2.74-2.74H388.24a2.74,2.74,0,0,0-2.74,2.74v4.57h-1.83Zm16.44.91v4.57H387.32V26.82a.92.92,0,0,1,.92-.91h10.95A.92.92,0,0,1,400.11,26.82ZM376.37,62.43h-1.46a2.74,2.74,0,0,1-2.74-2.74V36a2.74,2.74,0,0,1,2.74-2.74h1.46Zm32.87,0h-1.83V45.08a.91.91,0,0,0-1.82,0V62.43H381.85V45.08a.92.92,0,0,0-1.83,0V62.43h-1.83V33.21H380v4.57a.92.92,0,0,0,1.83,0V33.21h23.74v4.57a.91.91,0,0,0,1.82,0V33.21h1.83Zm6-2.74a2.74,2.74,0,0,1-2.73,2.74h-1.47V33.21h1.47A2.74,2.74,0,0,1,415.26,36Z"/></g></g></svg>