<svg xmlns="http://www.w3.org/2000/svg" xmlns:xlink="http://www.w3.org/1999/xlink" viewBox="0 0 419.06 251.8"><defs><style>.cls-1,.cls-3{fill:none;}.cls-2{fill:#fff;}.cls-3{stroke:#93d500;stroke-linecap:round;stroke-miterlimit:10;stroke-width:2px;stroke-dasharray:11.32 4.72 6.6 7.55 18.87 11.32;}.cls-4{clip-path:url(#clip-path);}.cls-5{fill:#e8f2fa;}.cls-6{fill:#d1e4fc;}.cls-7{fill:#dfedff;}.cls-8{fill:#8db2fc;}.cls-9{fill:#1b294b;}.cls-10{fill:#3a80d6;}.cls-11{fill:#2a3967;}.cls-12{fill:#a8ccff;}.cls-13{fill:#fddbba;}.cls-14{fill:#b53c37;}.cls-15{fill:#25468f;}.cls-16{fill:#ffae73;}.cls-17{fill:#1e3865;}.cls-18{fill:#a5d2ff;}.cls-19{fill:#ff912b;}.cls-20{fill:#fb7c1d;}.cls-21{fill:#f9924f;}.cls-22{fill:#214d9a;}.cls-23{fill:#f6fbff;opacity:0.8;}.cls-24{fill:#99aef9;}.cls-25{fill:#140772;}.cls-26{fill:#0e0755;}.cls-27{fill:#06042f;}.cls-28{fill:#18142d;}.cls-29{fill:#ff9b48;}.cls-30{fill:#f37a0d;}.cls-31{fill:#c9875e;}.cls-32{fill:#0e1a32;}.cls-33{fill:#0d2d64;}.cls-34{fill:#891d1c;}.cls-35{fill:#f0c39e;}.cls-36{fill:#73b471;}.cls-37{fill:#e7efff;}.cls-38{fill:#8bce87;}.cls-39{fill:#1a3e7e;}.cls-40{fill:#ff9841;}</style><clipPath id="clip-path" transform="translate(44.17)"><circle class="cls-1" cx="125.9" cy="125.9" r="119.26"/></clipPath></defs><g id="Capa_2" data-name="Capa 2"><g id="Capa_1-2" data-name="Capa 1"><circle class="cls-2" cx="170.07" cy="125.9" r="119.26"/><circle class="cls-3" cx="125.9" cy="125.9" r="124.9" transform="translate(-7.98 125.9) rotate(-45)"/><g class="cls-4"><path class="cls-5" d="M374.9,164.49c0,.69,0,1.39,0,2.08,0,.22,0,.44,0,.67s0,.44,0,.66l0,.66q0,.66-.06,1.32h0c0,.22,0,.44,0,.66s0,.44,0,.66,0,.31,0,.47,0,.32,0,.48,0,.35,0,.52,0,.49-.07.73l-.06.63c0,.21,0,.42-.07.63s-.06.52-.09.78c-.08.7-.17,1.39-.28,2.09,0,.22-.06.45-.1.68-.06.4-.13.81-.2,1.21,0,.21-.07.42-.11.63s-.12.66-.19,1c-.14.72-.29,1.44-.45,2.15-.06.27-.12.54-.19.81s-.09.36-.13.55c-.14.54-.28,1.09-.43,1.63l-.1.37c0,.15-.08.3-.13.45l-.24.81c0,.16-.1.33-.15.49a1.21,1.21,0,0,1-.05.18.74.74,0,0,0,0,.14c-.13.38-.25.76-.38,1.14l-.15.46c-.08.21-.15.43-.23.64s-.06.18-.1.27a.19.19,0,0,1,0,.07l-.08.2-.06.18-.21.55c0,.12-.09.24-.13.35a.42.42,0,0,0,0,.1.42.42,0,0,0,0,.1l-.15.37c-.05.13-.1.27-.16.4l-.3.71-.3.71,0,.06,0,.06c-.1.24-.21.48-.32.71l-.35.77h0c-.12.26-.24.51-.37.76l-.3.61a.08.08,0,0,0,0,0c0,.07-.07.13-.1.19l-.35.67-.4.74h0l-.06.12-.3.52-.05.1L366,201l-.44.73c-.15.25-.31.49-.46.73s-.31.48-.47.72-.31.47-.47.71l-.5.71c-.33.46-.67.93-1,1.39l-.51.66,0,0,0,0-.52.65L361,208h0l-.55.65-.16.18-.44.5c-.39.43-.8.86-1.21,1.29h0l-.38.39-.18.18-.25.25-.26.26h0l-.09.09-.05.05-.34.33-.07.07-.21.2-.36.33h0l0,0-.18.16-.08.07-.09.09a.46.46,0,0,0-.07.07l-.15.13-.09.08,0,0-.21.19-.23.2-.2.18-.19.16,0,0-.09.08,0,0-.08.06,0,0-.12.09-.09.08-.09.08-.22.18-.05,0-.11.09-.13.1-.12.1-.12.1-.07.06-.15.11c-.15.13-.31.25-.47.37l0,0h0l-.08.07-.24.18h0l-.09.07-.17.12-.13.1,0,0-.06.05,0,0-.3.23h0l-.12.09h0a.18.18,0,0,0-.07.05l-.14.1-.12.08-.11.08-.44.32-.12.08-.22.15-.32.22-.05,0-.16.11-.18.12-.08.05a.41.41,0,0,1-.11.07h0l-.12.08-.42.28-.08,0-.23.14-.09.06-.11.07a2.61,2.61,0,0,1-.28.17l-.08.06-.36.22-.18.11,0,0-.5.3-.07,0s0,0,0,0l-.07,0-.14.08-.18.11h0l-.22.13-.1.06-.18.09-.16.1-.49.27-.1.06-.17.08-.06,0h0l0,0a2.44,2.44,0,0,0-.28.14l-.12.07-.73.38-.2.11-.2.1-.54.27h0l-.49.24-.05,0-.06,0h0l-.21.1,0,0-.09,0-.08,0-.06,0-.08.05-.06,0-.2.1-.26.12-.08,0h0l-.51.23-.24.11-.39.17-.15.07-.12.05h0l-.35.16-.11,0-.14.06-.17.07-.21.09-.12.05-.52.21-.08,0,0,0-.31.12-.55.22-.33.13-.22.08-.2.07,0,0h-.05L336,225l-.09,0h0l-.22.08h0l-.3.11-.1,0h0l-.27.1-.12,0-.12,0-.36.13-.32.11-.14,0-.24.08-.36.12-.09,0-.08,0-.24.08-.39.12-.14.05-.35.1-.21.07-.3.09h0l-.17,0-.08,0-.15,0-.24.07-.47.14-.43.12-.18.05-.14,0-.16,0-.58.16h-.05l-.18,0-.35.09a.23.23,0,0,1-.11,0l-.05,0-.12,0-.23,0-.33.09-.11,0-.15,0-.34.09-.59.14-.19.05h0l-.1,0h-.11l-.13,0-.31.07-.2,0-.2.05-.72.16-.44.09h0l-.12,0h-.05l-.15,0-.52.11-.52.1-.21,0-.46.09h-.07l-.18,0h0l-.26.05h-.17l-.82.15-1.88.32-1.65.27-1.25.21c-1.35.22-2.71.43-4.06.63l-1.71.26-1.66.24-.19,0c-.5.08-1,.15-1.49.21l-1.35.19-1.15.15-2.39.31-1,.13-1.22.15c-2.91.36-5.81.68-8.71,1-1.22.13-2.45.25-3.67.36l-1.83.18-1.83.16-1.81.16-2.07.17-1.61.12c-1.82.15-3.65.28-5.47.4l-1.82.12-1.86.12-3.58.21-3.63.19c-2.5.12-5,.24-7.49.33s-5,.19-7.47.26l-4.62.13-2.84.07-2.48.05-2.14,0h-.36l-2.46,0-2.48,0-3.15,0-4.29.05-2.46,0c-9.1.07-18.19.1-27.31.15H189.3l-2.34,0h-3.39l-3.32,0-5.92.06-2.5,0h-.18l-4.63.08-.6,0-2.12,0-2.31.05-.6,0-2.12.05-1.56,0-1.47,0c-2.29.07-4.58.14-6.89.23l-1.72.07-1.13,0-2.33.1h-.08l-2.54.12-2.4.12-.34,0-2.36.12h0l-1.81.11-.89,0-2.88.18-1.6.11-.76,0-2.31.16-1.69.13-1.26.09-1.76.14-1.52.13-1.67.14-2.45.22-2.57.24h0l-2.59.26-2.15.22-.82.09-2.26.25-2,.23-1.1.12-2.14.26C23.6,250.64-16.63,243.71-31,214.67h0l0,0h0v0h0s0,0,0,0l0-.06,0,0h0l0-.05h0l-.11-.15,0,0-.07-.09,0,0a.1.1,0,0,1,0-.05l-.08-.11,0,0,0,0-.12-.17-.07-.1c0-.06-.09-.12-.13-.19v0l-.08-.12,0-.06-.16-.25-.19-.29-.06-.09,0-.07-.07-.12-.12-.18c-.09-.14-.19-.29-.28-.45a.41.41,0,0,1-.07-.11l0-.06-.08-.13c-.15-.25-.32-.51-.48-.79v0a.35.35,0,0,1-.05-.08l-.08-.13s0,0,0,0l-.07-.12a1.4,1.4,0,0,0-.1-.16l-.16-.29,0-.08-.12-.22h0l-.12-.22c-.2-.36-.41-.73-.62-1.12,0-.08-.09-.17-.14-.26h0l-.18-.33-.38-.72-.34-.67,0-.07-.15-.29,0-.1a2.4,2.4,0,0,0-.11-.23l-.08-.16-.13-.26,0-.06,0-.07,0-.05c-.1-.19-.19-.4-.29-.6a1.3,1.3,0,0,0-.08-.17l-.19-.42c-.07-.14-.13-.28-.2-.43s-.13-.28-.19-.43a1.42,1.42,0,0,1-.08-.18c0-.09-.08-.17-.11-.26a.3.3,0,0,1,0-.08.36.36,0,0,0,0-.09l-.12-.28-.06-.15c0-.1-.09-.2-.13-.3l-.06-.14c0-.11-.09-.21-.13-.32a.61.61,0,0,1,0-.12l-.15-.35a.3.3,0,0,0,0-.1l-.15-.38,0-.08-.09-.22a2.44,2.44,0,0,0-.1-.24l-.15-.41-.39-1v0c-.12-.35-.25-.69-.37-1.05a1.34,1.34,0,0,0-.07-.18v0l-.21-.61c-.07-.22-.15-.45-.22-.68,0,0,0-.1,0-.14s-.11-.33-.16-.5l0-.09-.18-.58a.56.56,0,0,0,0-.12c0-.18-.11-.37-.16-.56l-.14-.44c0-.13-.07-.25-.1-.37l-.15-.53,0-.13-.09-.32-.27-1-.18-.73-.12-.52a.83.83,0,0,1,0-.15.25.25,0,0,0,0-.07c0-.19-.09-.39-.13-.59s0-.1,0-.15-.09-.41-.13-.62l0-.13s0-.05,0-.08c0-.23-.09-.45-.14-.68l0-.18-.12-.61a0,0,0,0,1,0,0c0-.08,0-.17-.05-.26s0-.09,0-.13c-.07-.36-.13-.73-.19-1.09l0-.17a1.43,1.43,0,0,1,0-.22c0-.11,0-.23,0-.34l0-.14a2,2,0,0,0,0-.26s0-.06,0-.09,0-.05,0-.08,0-.21,0-.31l0-.22v0a.76.76,0,0,1,0-.21l-.09-.65a.43.43,0,0,1,0-.05c0-.27-.07-.53-.1-.8h0c0-.12,0-.23,0-.35s0-.25,0-.37,0-.11,0-.16l0-.25a.76.76,0,0,1,0-.15c0-.13,0-.27,0-.4l0-.25c0-.2,0-.4,0-.6,0,0,0-.08,0-.12v-.06c0-.19,0-.38,0-.57a2.45,2.45,0,0,1,0-.27.53.53,0,0,1,0-.13c0-.25,0-.52,0-.78s0-.32,0-.48,0-.25,0-.37v-.14c0-.25,0-.51,0-.76v-.14s0-.06,0-.09c0-.19,0-.38,0-.58v-.34c0-.27,0-.54,0-.8,0-.52,0-1,0-1.57s0-1,0-1.56c0-.7.08-1.41.13-2.12.07-.89.16-1.79.26-2.7,0-.18,0-.36.07-.54A73.74,73.74,0,0,1-35,138.19a118.07,118.07,0,0,0,9.44-23.29c8.13-27.77,7.15-55.28,17.47-75.4A48.15,48.15,0,0,1,2.07,25.92q1.67-1.55,3.37-3C27.09,5,54.58,2.35,120.49,9.09c69.38,7.1,124.4-10.79,180.62,4.73,54.2,15,48.37,67.75,59.67,94,.42,1,.86,1.92,1.34,2.83C367.82,121.58,374.87,142.83,374.9,164.49Z" transform="translate(44.17)"/><path class="cls-6" d="M374.35,174.67c-4.41.94-9.22,1.92-9,2a1,1,0,0,0,.3,0q-.71,2.36-1.49,4.67c-.12.33-.23.65-.34,1-.47,1.31-1,2.61-1.46,3.88-.28.69-.57,1.38-.86,2.06q-1,2.43-2.18,4.69l-.51,1c-.87,1.64-1.78,3.21-2.74,4.69-.2.31-.41.62-.62.92a40.27,40.27,0,0,1-3.7,4.69c-.42.45-.84.89-1.27,1.3a23.19,23.19,0,0,1-6.76,4.67l-.53.23-.13,0-138.76.1-25.74-.16-50.94-.3-153.87-.93A68.53,68.53,0,0,1-39.6,198.12a71.61,71.61,0,0,1-4-33.63A73.74,73.74,0,0,1-35,138.19a118.07,118.07,0,0,0,9.44-23.29H-5.74V97.69q3.93-1.29,8.29-2.35c3.71-.91,7.64-1.69,11.84-2.33l1.24-.19c2-.29,3.92-.64,5.76-1v20.95h9.15v-4.89l10.81,0V100h2.17V98.39h.29V100h10V98.39h.29V100h2v15.78H69v5.8h7.14v-3.37h6.63V104.79h3.31V98.54h.5v6.25h7.92V93.08h.78v11.71h5.24v-.17h0v-1.48h0v-1.41h0V99.4h0V97.9h0V95.56h0V94.07h0V91.73h0V90.12h0V87.78h0V85.72h0V83.38h0V81.83h1.56V80.08h.25v1.75h11.57V80.08h.25v1.75h2.11V94.07h1.48V91.73h0V90.12h0V87.78h0V86.17h0V83.83h16.45l.38.37V97.37H144.8V114.9h8.29V82.48h1.8V80.21h.33v2.27h6.54V80.21h.32v2.27h9.27V80.21h.32v2.27h5.83V80.21h.33v2.27h2.39v30.26h9.16v-4.89l10.8,0V100h2.18V98.39h.28V100h10V98.39h.29V100h2v15.78h12.86v5.8H235v-3.37h6.63V104.79h3.3V98.54h.5v6.25h7.93V93.08h.77v11.71h5.25v-.17h0v-1.48h0v-1.41h0V99.4h0V97.9h0V95.56h0V94.07h0V91.73h0V90.12h0V87.78h0V85.72h0V83.38h0V81.83h1.56V80.08h.25v1.75h11.57V80.08H273v1.75h2.11V94.07h1.47V91.73h0V90.12h0V87.78h0V86.17h0V83.83H293l.37.19V97.37H310.6V114.9h8.28V82.48h1.81V80.21H321v2.27h6.54V80.21h.33v2.27h9.26V80.21h.33v2.27H346v30.27h9.15v-4.9h5.61c.42,1,.86,1.92,1.34,2.83,5.7,10.89,12.75,32.14,12.78,53.8A91.25,91.25,0,0,1,374.35,174.67Z" transform="translate(44.17)"/><rect class="cls-7" x="203.69" y="82.48" width="20.7" height="5.13"/><rect class="cls-7" x="203.69" y="90.37" width="20.7" height="5.13"/><rect class="cls-7" x="203.69" y="98.44" width="20.7" height="5.13"/><rect class="cls-7" x="203.69" y="106.63" width="20.7" height="5.13"/><rect class="cls-7" x="203.69" y="114.53" width="20.7" height="5.13"/><rect class="cls-7" x="303.53" y="81.83" width="9.66" height="3.12"/><rect class="cls-7" x="303.53" y="86.63" width="9.66" height="3.12"/><rect class="cls-7" x="303.53" y="91.53" width="9.66" height="3.12"/><rect class="cls-7" x="303.53" y="96.5" width="9.66" height="3.12"/><rect class="cls-7" x="303.53" y="101.3" width="9.66" height="3.12"/><rect class="cls-7" x="303.53" y="106.58" width="9.66" height="3.12"/><rect class="cls-7" x="303.53" y="111.38" width="9.66" height="3.12"/><rect class="cls-7" x="303.53" y="116.27" width="9.66" height="3.12"/><rect class="cls-7" x="303.53" y="121.25" width="9.66" height="3.12"/><rect class="cls-7" x="303.53" y="126.05" width="9.66" height="3.12"/><rect class="cls-7" x="320.71" y="83.88" width="10.35" height="3.12"/><rect class="cls-7" x="320.71" y="88.67" width="10.35" height="3.12"/><rect class="cls-7" x="320.71" y="93.57" width="10.35" height="3.12"/><rect class="cls-7" x="320.71" y="98.54" width="10.35" height="3.12"/><rect class="cls-7" x="320.71" y="103.34" width="10.35" height="3.12"/><rect class="cls-7" x="320.71" y="108.35" width="10.35" height="3.12"/><rect class="cls-7" x="320.71" y="113.14" width="10.35" height="3.12"/><rect class="cls-7" x="320.71" y="118.04" width="10.35" height="3.12"/><rect class="cls-7" x="320.71" y="123.01" width="10.35" height="3.12"/><rect class="cls-7" x="320.71" y="127.81" width="10.35" height="3.12"/><rect class="cls-7" x="320.71" y="133.32" width="10.35" height="3.12"/><rect class="cls-7" x="320.71" y="138.11" width="10.35" height="3.12"/><rect class="cls-7" x="320.71" y="143.01" width="10.35" height="3.12"/><rect class="cls-7" x="320.71" y="147.98" width="10.35" height="3.12"/><rect class="cls-7" x="320.71" y="152.78" width="10.35" height="3.12"/><rect class="cls-7" x="371.34" y="82.48" width="18.85" height="5.13"/><rect class="cls-7" x="371.34" y="90.37" width="18.85" height="5.13"/><rect class="cls-7" x="371.34" y="98.44" width="18.85" height="5.13"/><rect class="cls-7" x="371.34" y="106.63" width="18.85" height="5.13"/><rect class="cls-7" x="371.34" y="114.53" width="18.85" height="5.13"/><rect class="cls-7" x="144.57" y="81.83" width="10.35" height="3.12"/><rect class="cls-7" x="144.57" y="86.63" width="10.35" height="3.12"/><rect class="cls-7" x="144.57" y="91.53" width="10.35" height="3.12"/><rect class="cls-7" x="144.57" y="96.5" width="10.35" height="3.12"/><rect class="cls-7" x="144.57" y="101.3" width="10.35" height="3.12"/><rect class="cls-7" x="144.57" y="106.58" width="10.35" height="3.12"/><rect class="cls-7" x="144.57" y="111.38" width="10.35" height="3.12"/><rect class="cls-7" x="144.57" y="116.27" width="10.35" height="3.12"/><rect class="cls-7" x="144.57" y="121.25" width="10.35" height="3.12"/><rect class="cls-7" x="144.57" y="126.05" width="10.35" height="3.12"/><rect class="cls-7" x="162.1" y="83.88" width="11.76" height="3.12"/><rect class="cls-7" x="162.1" y="88.67" width="11.76" height="3.12"/><rect class="cls-7" x="162.1" y="93.57" width="11.76" height="3.12"/><rect class="cls-7" x="162.1" y="98.54" width="11.76" height="3.12"/><rect class="cls-7" x="162.1" y="103.34" width="11.76" height="3.12"/><rect class="cls-7" x="162.1" y="108.35" width="11.76" height="3.12"/><rect class="cls-7" x="162.1" y="113.14" width="11.76" height="3.12"/><rect class="cls-7" x="162.1" y="118.04" width="11.76" height="3.12"/><rect class="cls-7" x="162.1" y="123.01" width="11.76" height="3.12"/><rect class="cls-7" x="162.1" y="127.81" width="11.76" height="3.12"/><rect class="cls-7" x="162.1" y="133.32" width="11.76" height="3.12"/><rect class="cls-7" x="162.1" y="138.11" width="11.76" height="3.12"/><rect class="cls-7" x="162.1" y="143.01" width="11.76" height="3.12"/><rect class="cls-7" x="162.1" y="147.98" width="11.76" height="3.12"/><rect class="cls-7" x="162.1" y="152.78" width="11.76" height="3.12"/><path class="cls-8" d="M374.9,164.49c0,28.29-12,57.27-54.65,64.69-75.36,13.08-143.54,2.63-220.1,12S-16.63,243.71-31,214.67c0,0-16.27-21.06-12.65-50.18Z" transform="translate(44.17)"/><path class="cls-9" d="M318.09,177.07H254.87l-21.36-1.92s3.82-9.52,4.87-9.66,77.71,0,77.71,0Z" transform="translate(44.17)"/><path class="cls-10" d="M224.39,176.14c1.58.64,11.09.78,11.09.78s-.22-11.65,9.58-10.29,8.08,11,8.08,11l47.1.84s-.76-12.29,9.63-11c8.64,1.08,6.42,10.95,6.42,10.95,8.62.45,9.51-2.48,9.51-2.48v-1.2h-.54v-3.18h.54v-2.37L324,165.07h0c-3.05-5.24-27-6.67-27-6.67-3.63-2.09-6.65-3.64-9-4.77-3.76-1.8-8.05-3.55-12.2-4a94,94,0,0,0-22.73.51c-2.65.43-15.95,6.22-16.95,6.72s-9.17,1.18-10.22,1.31a1.14,1.14,0,0,0-1,1.17l-.15.93-.55,3.55-.13.86a1.78,1.78,0,0,0-.76,1.48S222.82,175.49,224.39,176.14Z" transform="translate(44.17)"/><path class="cls-11" d="M315.73,175.15a7.25,7.25,0,1,0-7.25,7.25A7.25,7.25,0,0,0,315.73,175.15Z" transform="translate(44.17)"/><path class="cls-12" d="M308.48,169.48a5.67,5.67,0,0,0-5.67,5.67,5.54,5.54,0,0,0,.34,1.92,5.38,5.38,0,0,0,.36.81,3.21,3.21,0,0,0,.19.31,5.67,5.67,0,0,0,9.57,0c.11-.18.22-.37.32-.57s.16-.36.23-.55a5.53,5.53,0,0,0,.33-1.92A5.67,5.67,0,0,0,308.48,169.48Zm1,10.71a4.9,4.9,0,0,1-1,.11,4.73,4.73,0,0,1-.93-.09,5.07,5.07,0,0,1-2.62-1.34,4.36,4.36,0,0,1-.6-.68l-.22-.32a4.6,4.6,0,0,1-.4-.8,0,0,0,0,1,0,0,4.94,4.94,0,0,1-.37-1.89,5.29,5.29,0,0,1,.24-1.55,5.14,5.14,0,0,1,1.12-1.92,5.06,5.06,0,0,1,2.67-1.55,5.2,5.2,0,0,1,1.12-.13,4.94,4.94,0,0,1,1.1.12,5.19,5.19,0,0,1,2.58,1.43,5.17,5.17,0,0,1,1.47,3.6,4.89,4.89,0,0,1-.27,1.63,1.45,1.45,0,0,1-.11.29,3,3,0,0,1-.27.57,3.94,3.94,0,0,1-.35.55l-.22.29A5.16,5.16,0,0,1,309.5,180.19Z" transform="translate(44.17)"/><polygon class="cls-12" points="351.68 180.57 353.71 180.57 353.06 175 353.81 169.71 351.48 169.85 352.26 175 351.68 180.57"/><polygon class="cls-12" points="356.87 178.69 357.88 176.93 352.73 174.71 348.52 171.42 347.49 173.5 352.33 175.4 356.87 178.69"/><polygon class="cls-12" points="357.68 173.05 356.56 171.35 352.27 174.96 347.44 177.24 348.83 179.1 352.71 175.63 357.68 173.05"/><path class="cls-12" d="M310.38,175.14a1.89,1.89,0,1,0-1.89,1.89A1.89,1.89,0,0,0,310.38,175.14Z" transform="translate(44.17)"/><circle class="cls-11" cx="288.34" cy="175.15" r="7.25"/><path class="cls-12" d="M244.17,169.48a5.68,5.68,0,0,0-5.67,5.67c0,.15,0,.3,0,.45a5.71,5.71,0,0,0,.8,2.49.61.61,0,0,1,.07.1,5.67,5.67,0,0,0,8,1.66,5.79,5.79,0,0,0,1.61-1.66l.18-.31a5.62,5.62,0,0,0,.51-1.27,5.47,5.47,0,0,0,.19-1.46A5.67,5.67,0,0,0,244.17,169.48Zm4.88,7.29a5,5,0,0,1-.52,1.12l-.21.3-.22.29a5.09,5.09,0,0,1-1.49,1.2,5,5,0,0,1-1.42.51,3.21,3.21,0,0,1-.43.07,3.81,3.81,0,0,1-.59,0,4.73,4.73,0,0,1-.93-.09,5.07,5.07,0,0,1-2.62-1.34,4.23,4.23,0,0,1-.59-.68.94.94,0,0,1-.09-.12,4.85,4.85,0,0,1-.55-1,5,5,0,0,1-.34-1.39,4.1,4.1,0,0,1,0-.5,5.14,5.14,0,0,1,1.35-3.47,5.06,5.06,0,0,1,2.67-1.55,5.2,5.2,0,0,1,1.12-.13,4.94,4.94,0,0,1,1.1.12,5.19,5.19,0,0,1,2.58,1.43,5.17,5.17,0,0,1,1.47,3.6,5.06,5.06,0,0,1-.2,1.41A1.72,1.72,0,0,1,249.05,176.77Z" transform="translate(44.17)"/><polygon class="cls-12" points="287.37 180.57 289.4 180.57 288.75 175 289.5 169.71 287.18 169.85 287.95 175 287.37 180.57"/><polygon class="cls-12" points="292.56 178.69 293.57 176.93 288.42 174.71 284.21 171.42 283.18 173.5 288.02 175.4 292.56 178.69"/><polygon class="cls-12" points="293.37 173.05 292.26 171.35 287.96 174.96 283.13 177.24 284.53 179.1 288.4 175.63 293.37 173.05"/><path class="cls-12" d="M246.08,175.14a1.9,1.9,0,1,0-1.9,1.89A1.9,1.9,0,0,0,246.08,175.14Z" transform="translate(44.17)"/><path class="cls-13" d="M315.79,165.05h4.75a4.34,4.34,0,0,1,3.78,2.22l.16.29a.44.44,0,0,1-.38.66h-5.71a1.42,1.42,0,0,1-1-.46l-1.86-2A.41.41,0,0,1,315.79,165.05Z" transform="translate(44.17)"/><path class="cls-9" d="M321.55,175.15h1.62a1.47,1.47,0,0,1,1.29.76l.06.1a.15.15,0,0,1-.13.22h-1.95a.49.49,0,0,1-.36-.15l-.63-.69A.14.14,0,0,1,321.55,175.15Z" transform="translate(44.17)"/><path class="cls-12" d="M243.13,157.71l24.21.58a.85.85,0,0,0,.87-.85v-5.58a.79.79,0,0,0-.8-.78c-10.32.14-13.86.43-16,1.16-1.88.65-6.25,3.3-8.51,4.65A.44.44,0,0,0,243.13,157.71Z" transform="translate(44.17)"/><path class="cls-12" d="M270.31,151l-1.15,0v7.27l23.36.56a.3.3,0,0,0,.17-.56C290,156.49,280.82,150.92,270.31,151Z" transform="translate(44.17)"/><path class="cls-12" d="M243.21,157.71h0v-1l-.24.15A.46.46,0,0,0,243.21,157.71Z" transform="translate(44.17)"/><polygon class="cls-10" points="312.38 158.62 315.24 158.4 315.05 150.62 312.38 150.62 312.38 158.62"/><polygon class="cls-10" points="294.26 158.62 295.59 158.62 295.59 151.64 294.26 152.44 294.26 158.62"/><path class="cls-11" d="M289.6,156.44l-.71,2.36,3.9.09a.23.23,0,0,0,.14-.42A18.37,18.37,0,0,0,289.6,156.44Z" transform="translate(44.17)"/><path class="cls-9" d="M293.16,158.42l-.08-.06-.28-.19-.27-.18-.15-.1-.36-.23-.28-.18h0l0,0-.26-.16h0l-.09-.05-.14-.09L291,157c-.18-.12-.38-.24-.59-.36l-.2-.11-.41-.23-.1-.06-.84-.46-.09-.05-.13-.06c-.54-.29-1.09-.56-1.64-.82l-.09,0-.08,0-.53-.25-.17-.08-.36-.16-.18-.08L285,154l-.34-.14c-.76-.32-1.54-.61-2.31-.88l-.17-.06-.19-.07-.14-.05-.1,0-.19-.06h0l-.21-.06-.37-.12-.26-.08-.4-.12-.22-.06-.42-.12-.84-.22h0l-.08,0-.36-.09-.22,0-.06,0-.16,0-.22-.05-.23,0-.22-.05-.23,0h0l-.21,0-.21,0-.25,0-.15,0h-.07l-.46-.08-.23,0h0l-.41-.06-.75-.1h0l-.21,0-.15,0-.15,0h-.18l-.24,0-.23,0-.17,0-.34,0h-.23l-.23,0h-.63a.83.83,0,0,0-.44.12L271,151l0,0,0,0-.06.07a.8.8,0,0,0-.14.45v6a.93.93,0,0,0,.35.72l0,0a.83.83,0,0,0,.52.19l21.35.51h0a.39.39,0,0,0,.24-.09.34.34,0,0,0,.11-.17.36.36,0,0,0,0-.1h0A.36.36,0,0,0,293.16,158.42Zm-4.22.19h0l-17.3-.41a.55.55,0,0,1-.53-.55v-6a.39.39,0,0,1,.11-.27.41.41,0,0,1,.28-.11h1.07l.34,0,.17,0h.23l.23,0h.18l.15,0H274l.21,0h0l.74.09.4.06h0l.23,0,.45.07.07,0,.16,0,.24,0,.21,0,.21,0h0l.22,0,.23,0,.21,0,.22.05.17,0H278l.22,0,.36.09h.09l.84.22.42.12.22.06.38.11h0l.26.07.37.12.2.07h0l.19.06.24.08.19.07.17.06c.76.26,1.53.56,2.29.87l.34.14.58.25.18.08.36.16.18.08.52.24.17.08.07,0,1.55.77.13.07.09.05.76.41.12.07h0l.45.25.2.11.59.35.19.12.14.08.08,0,0,0,.26.15.05,0,.28.17.35.23.15.09.27.19.23.16.05,0,0,0h-.11Z" transform="translate(44.17)"/><path class="cls-9" d="M250.11,152.81l0,0a.1.1,0,0,0-.05,0,.76.76,0,0,0-.64.05L249,153l0,0-.08,0c-1,.56-2.46,1.43-4.29,2.6l-.24.15-.54.34-.64.42-.32.2,0,0h0a.6.6,0,0,0-.24.66.54.54,0,0,0,.49.41s0,0,0,0h.17l6.45.17h0a.59.59,0,0,0,.39-.16s0,0,0,0h0a.63.63,0,0,0,.16-.42v-4.07A.94.94,0,0,0,250.11,152.81Zm-.19,4.65a.3.3,0,0,1-.08.21.22.22,0,0,1-.15.06l-6.46-.17h-.16a.21.21,0,0,1-.19-.17.24.24,0,0,1,.09-.28h0l0,0,.2-.13.13-.08.64-.42.53-.34.24-.15c1.83-1.16,3.26-2,4.27-2.58l.08,0,0,0,.4-.2a.23.23,0,0,1,.11,0,.21.21,0,0,1,.12,0,.32.32,0,0,1,.14.27Z" transform="translate(44.17)"/><path class="cls-11" d="M289.6,156.44l-.71,2.36,3.9.09a.23.23,0,0,0,.14-.42A18.37,18.37,0,0,0,289.6,156.44Z" transform="translate(44.17)"/><path class="cls-9" d="M268.21,151.29l-.1-.12h0a1,1,0,0,0-.27-.19,1.07,1.07,0,0,0-.43-.09c-10.55.14-13.89.38-16,1.15l-.07,0-.13.05v6h.2l15.91.38h0a1.06,1.06,0,0,0,.73-.3l.12-.14a1,1,0,0,0,.19-.6v-5.57A1,1,0,0,0,268.21,151.29Zm-.19,6.15a.63.63,0,0,1-.2.47.7.7,0,0,1-.47.19l-15.73-.38v-5.34c2-.73,5.52-1,15.79-1.11h0a.59.59,0,0,1,.42.17.6.6,0,0,1,.18.43Z" transform="translate(44.17)"/><path class="cls-14" d="M224.19,163.86h4.56a2.2,2.2,0,0,0,1.74-.85l1.73-2.19a.32.32,0,0,0-.25-.51h-7.23Z" transform="translate(44.17)"/><path class="cls-9" d="M297,158.4l.19.31a4.3,4.3,0,0,0,3.38,2.08L316,161.87c5.44.38,8,3.16,8,3.2C320.93,159.83,297,158.4,297,158.4Z" transform="translate(44.17)"/><rect class="cls-9" x="269.3" y="150.98" width="0.19" height="24.43" transform="translate(42.36 3.02) rotate(-0.64)"/><rect class="cls-9" x="276.68" y="152.05" width="0.19" height="47.13" transform="translate(139.8 448.81) rotate(-88.85)"/><path class="cls-9" d="M272.16,163.39c0,.26,1.15.47,2.57.47s2.58-.21,2.58-.47-1.15-.47-2.58-.47S272.16,163.13,272.16,163.39Z" transform="translate(44.17)"/><path class="cls-9" d="M248.18,163.39c0,.26,1.16.47,2.58.47s2.57-.21,2.57-.47-1.15-.47-2.57-.47S248.18,163.13,248.18,163.39Z" transform="translate(44.17)"/><path class="cls-9" d="M255.05,175.16h.19a10.4,10.4,0,0,0-2.14-6.09,10.1,10.1,0,0,0-4.14-3,15.61,15.61,0,0,0-5.73-1.09v-7.27H243v7.46h.1a15.37,15.37,0,0,1,5.75,1.07,9.89,9.89,0,0,1,4.06,2.94A10.26,10.26,0,0,1,255.05,175.16Z" transform="translate(44.17)"/><path class="cls-9" d="M294.59,176a104.34,104.34,0,0,0-.58-13.21,30.21,30.21,0,0,0-.7-4.07l-.18.05s1.41,5.2,1.27,17.22Z" transform="translate(44.17)"/><rect class="cls-9" x="311.58" y="150.98" width="3.73" height="0.19"/><rect class="cls-15" x="301.36" y="153.36" width="0.24" height="7.33" transform="translate(7.42 123.17) rotate(-21.8)"/><path class="cls-15" d="M303.18,160.51c0-.1-.15-.18-.34-.18s-.34.08-.34.18.15.19.34.19S303.18,160.61,303.18,160.51Z" transform="translate(44.17)"/><path class="cls-10" d="M297.12,159.17a.39.39,0,0,0,.27-.2,80.76,80.76,0,0,1,5.54-8.4c3.09-4.13,7.88-9.64,13.12-12.43a.39.39,0,0,0,.16-.54.4.4,0,0,0-.54-.16,32.6,32.6,0,0,0-7.36,5.66,63,63,0,0,0-6,7,84,84,0,0,0-5.6,8.49.41.41,0,0,0,.16.54A.42.42,0,0,0,297.12,159.17Z" transform="translate(44.17)"/><path class="cls-16" d="M318.79,160.83a9.82,9.82,0,0,0-1.47.09c-.5.1-1.36.41-1.08.48s1.38.19,1.68.24.56.38.87.33a2,2,0,0,0,.76-.48Z" transform="translate(44.17)"/><path class="cls-16" d="M317.67,162.14l1.12-.17s-.21-.46-.39-.33a3.3,3.3,0,0,1-.64.26C317.65,161.94,317.67,162.14,317.67,162.14Z" transform="translate(44.17)"/><path class="cls-17" d="M319.09,161.26c-.3-.35-.3-.43-.3-.43s2.81-3.47,3.06-3.81,2.33-5.89,2.33-5.89h0a2.13,2.13,0,0,1,2.1,3.19c-1.08,1.82-2.2,3.7-2.52,4.11a19.53,19.53,0,0,1-4.14,3.21A1.29,1.29,0,0,1,319.09,161.26Z" transform="translate(44.17)"/><rect class="cls-18" x="322.14" y="160.44" width="0.55" height="2.35" transform="translate(718.39 82.28) rotate(140.67)"/><path class="cls-18" d="M320.85,160.37h0a.43.43,0,0,0,.56.07.42.42,0,0,0,.08-.6h0c-.05-.06,0-.16.09-.12a.58.58,0,0,1,.29.22.65.65,0,0,1-1,.79.64.64,0,0,1-.13-.29C320.68,160.35,320.79,160.3,320.85,160.37Z" transform="translate(44.17)"/><path class="cls-18" d="M323.18,163.21h0a.42.42,0,0,1,.05-.56.41.41,0,0,1,.6.05h0a.08.08,0,0,0,.15-.06.62.62,0,0,0-.17-.33.65.65,0,1,0-.72,1A.09.09,0,0,0,323.18,163.21Z" transform="translate(44.17)"/><path class="cls-16" d="M323.81,161.15a12.08,12.08,0,0,0-1.25,0,2.24,2.24,0,0,0-.68.34c0,.05,0,.2.11.19s.21-.09.19,0-.42.08-.39.29.29.78.76.73,1.27-.76,1.35-.78C324.55,161.69,323.81,161.15,323.81,161.15Z" transform="translate(44.17)"/><path class="cls-11" d="M338.54,180.05s.67.62.54,1.06-.73.73-.81,1.27-.41.83-.7.83h-1.4s-.22-.37.3-.49.72-.74.69-1.33a10.92,10.92,0,0,1,0-1.37l1.11-.26Z" transform="translate(44.17)"/><path class="cls-11" d="M330.34,181.74s.16,1.31-.13,1.45a33.76,33.76,0,0,1-3.8.1s0-.44.6-.54,1.67-.46,1.85-1.25S330.34,181.74,330.34,181.74Z" transform="translate(44.17)"/><path class="cls-19" d="M327.17,161.82s.2,2.47.43,5.44c.32,4,.7,9,.73,9.94.07,1.63.33,4.24.33,4.24a2.06,2.06,0,0,0,1.86.36,42.26,42.26,0,0,0,1.42-7.67l0-.2c.29-4,.75-12.46.75-12.46Z" transform="translate(44.17)"/><path class="cls-20" d="M328.76,163.79l3.18,10.34,0-.2c.29-4,.75-12.46.75-12.46Z" transform="translate(44.17)"/><path class="cls-19" d="M328.07,162.11s3.58,8.95,5.92,13.16,3.09,5.38,3.09,5.38,1.34-.53,1.46-.9c0,0-.89-8.12-2.47-10.11-.89-1.11-.91-3.32-1.31-5.59a47,47,0,0,0-1.74-6.47Z" transform="translate(44.17)"/><path class="cls-16" d="M326.44,149.63s-1.49,2.55-2.92,2.87a4.25,4.25,0,0,1,.29-1.19.5.5,0,0,0-.06-.5l-.17-.22a7.57,7.57,0,0,1-.52-.75l.49-1.29.34-.88a4.35,4.35,0,0,0,.51.74A3.45,3.45,0,0,0,326.44,149.63Z" transform="translate(44.17)"/><path class="cls-21" d="M324.4,148.41a2.71,2.71,0,0,1-.82,2.18,7.57,7.57,0,0,1-.52-.75l.49-1.29A3.06,3.06,0,0,1,324.4,148.41Z" transform="translate(44.17)"/><path class="cls-16" d="M322.67,150s2.19-.83,1.65-2.18-.61-2.37-2-1.91-1.48,1.09-1.41,1.59S322.09,150.2,322.67,150Z" transform="translate(44.17)"/><path class="cls-22" d="M327.17,163.72a13.18,13.18,0,0,0-.45-1.82,15.77,15.77,0,0,0-1.45-3.27h0c-.17-.28-.35-.55-.54-.82a7.62,7.62,0,0,1-.88-2.06,8.8,8.8,0,0,1-.39-1.55,4.75,4.75,0,0,1,0-1.85l.22-.88a3.39,3.39,0,0,0,1.72-2.21s4.68.9,7.22,7.18c0,0,1.56,4,1.61,4.14C334.59,161.72,329.94,164.65,327.17,163.72Z" transform="translate(44.17)"/><path class="cls-17" d="M329,159.18a15.07,15.07,0,0,1-2.31,2.72,15.77,15.77,0,0,0-1.45-3.27h0a4,4,0,0,0,.53-.91c.1-.38.21-2.07.21-2.07l3.34-1.29S329.63,158.06,329,159.18Z" transform="translate(44.17)"/><path class="cls-15" d="M324.67,145.35s.06-.06.17-.09a.48.48,0,0,0-.22,0,.61.61,0,0,0-.49-.41.37.37,0,0,1,.22.21c-.38-.25-1.09-.33-2.86.24-2.34.75-1.19,2.11-.84,2.23s1-.58,1.59-.67.9.73,1.12.8.1-.11.33-.3.37.26.36.57.44.6.44.6l.27-.49a4.26,4.26,0,0,0,0-2.58Z" transform="translate(44.17)"/><path class="cls-22" d="M323.45,161.74a1.13,1.13,0,0,1,0-.8,27.54,27.54,0,0,0,2.72-2.76,49.71,49.71,0,0,0-.5-5.29s1.72-1.79,2.78-1.58c.47.1,1.11,1.14,1.11,1.19a47.18,47.18,0,0,1-.9,6.12c-.68,1.74-4.53,3.52-4.53,3.52S323.59,162.12,323.45,161.74Z" transform="translate(44.17)"/><path class="cls-20" d="M325.19,154.1a.2.2,0,0,1,.25-.14.2.2,0,0,1,.15.24.21.21,0,1,1-.4-.1Z" transform="translate(44.17)"/><path class="cls-23" d="M91.11,40.34-8.1,39.5A48.15,48.15,0,0,1,2.07,25.92q1.67-1.55,3.37-3a39.33,39.33,0,0,1,25.42,5.45s25.13-3.5,43.74,3C87,35.78,91.11,40.34,91.11,40.34Z" transform="translate(44.17)"/><path class="cls-23" d="M167.73,43.18a20.6,20.6,0,0,1,19.81-9.56s20.29-17.93,41.92-2.39c0,0,23-3.85,40,3.33,11.36,4.79,15.11,9.82,15.11,9.82Z" transform="translate(44.17)"/><path class="cls-23" d="M49.51,65.29s5-7.57,16.78-6.73c0,0,17.18-12.62,35.5-1.68,0,0,19.48-2.71,33.9,2.34,9.62,3.37,12.79,6.91,12.79,6.91Z" transform="translate(44.17)"/><rect class="cls-15" x="38.69" y="103.64" width="2.08" height="94.49"/><path class="cls-15" d="M-1.5,199.67a4.64,4.64,0,0,1-2.94.69,5.13,5.13,0,0,1-2.95-.69v-22.2a2.78,2.78,0,0,1,2.78-2.77h.19a2.91,2.91,0,0,1,2.92,2.91Z" transform="translate(44.17)"/><rect class="cls-15" x="34.73" y="94.7" width="10" height="29.32" rx="2.61"/><path class="cls-24" d="M-8.23,109.1a3.84,3.84,0,0,1,3.84-3.84A3.84,3.84,0,0,1-.55,109.1a3.84,3.84,0,0,1-3.84,3.83A3.84,3.84,0,0,1-8.23,109.1Z" transform="translate(44.17)"/><path class="cls-24" d="M-8.23,117.78a3.84,3.84,0,0,1,3.84-3.84,3.84,3.84,0,0,1,3.84,3.84,3.84,3.84,0,0,1-3.84,3.84A3.84,3.84,0,0,1-8.23,117.78Z" transform="translate(44.17)"/><path class="cls-19" d="M-8.23,100.31a3.84,3.84,0,0,1,3.84-3.83,3.84,3.84,0,0,1,3.84,3.83,3.84,3.84,0,0,1-3.84,3.84A3.84,3.84,0,0,1-8.23,100.31Z" transform="translate(44.17)"/><rect class="cls-15" x="257.48" y="103.64" width="2.08" height="94.49"/><path class="cls-15" d="M217.29,199.67a4.64,4.64,0,0,1-2.94.69,5.13,5.13,0,0,1-2.95-.69v-22.2a2.78,2.78,0,0,1,2.78-2.77h.19a2.91,2.91,0,0,1,2.92,2.91Z" transform="translate(44.17)"/><rect class="cls-15" x="253.52" y="94.7" width="10" height="29.32" rx="2.61"/><path class="cls-24" d="M210.56,109.1a3.84,3.84,0,1,1,3.84,3.83A3.84,3.84,0,0,1,210.56,109.1Z" transform="translate(44.17)"/><path class="cls-24" d="M210.56,117.78a3.84,3.84,0,1,1,3.84,3.84A3.84,3.84,0,0,1,210.56,117.78Z" transform="translate(44.17)"/><path class="cls-19" d="M210.56,100.31a3.84,3.84,0,1,1,3.84,3.84A3.84,3.84,0,0,1,210.56,100.31Z" transform="translate(44.17)"/><path class="cls-9" d="M78.77,152.3h63.05l21.3-1.92s-3.82-9.5-4.85-9.64-77.51,0-77.51,0Z" transform="translate(44.17)"/><path class="cls-15" d="M172.21,151.36c-1.57.64-11.05.79-11.05.79s.21-11.63-9.56-10.27-8.06,11-8.06,11l-47,.84s.76-12.26-9.61-11c-8.62,1.07-6.4,10.92-6.4,10.92-4.45.23-6.83-.44-8.1-1.14h0c-.94-1.33-.85-9.29-.51-10.07l.93-2.13h0c3-5.23,26.91-6.66,26.91-6.66,3.62-2.08,6.63-3.63,9-4.76,3.75-1.79,8-3.54,12.16-4a94,94,0,0,1,22.67.51c2.64.43,15.91,6.21,16.91,6.71s9.14,1.17,10.18,1.3a1.14,1.14,0,0,1,1,1.17l.14.93.55,3.54.13.86a1.78,1.78,0,0,1,.77,1.47S173.78,150.72,172.21,151.36Z" transform="translate(44.17)"/><path class="cls-11" d="M81.11,150.38a7.24,7.24,0,1,1,7.24,7.23A7.24,7.24,0,0,1,81.11,150.38Z" transform="translate(44.17)"/><path class="cls-12" d="M94,150a5.6,5.6,0,0,0-.14-.94,6,6,0,0,0-.45-1.23,5.66,5.66,0,0,0-3.18-2.8l-.07,0a5.91,5.91,0,0,0-.69-.19l-.24,0a4.52,4.52,0,0,0-.53-.06h-.34a5.66,5.66,0,0,0-5.06,3.12,5.75,5.75,0,0,0-.43,1.16,5.67,5.67,0,0,0-.17,1.38A5.58,5.58,0,0,0,83,152.3a5.66,5.66,0,0,0,10.64,0,5.57,5.57,0,0,0,.33-1.92C94,150.25,94,150.13,94,150Zm-4.71,5.42a5.74,5.74,0,0,1-.93.08,4.9,4.9,0,0,1-1-.1,5.1,5.1,0,0,1-2.9-1.72,4.92,4.92,0,0,1-.84-1.39c0-.1-.08-.2-.11-.3a4.83,4.83,0,0,1-.27-1.62c0-.13,0-.25,0-.37a5.14,5.14,0,0,1,.37-1.58,4,4,0,0,1,.29-.59,4.74,4.74,0,0,1,.79-1.05,5.21,5.21,0,0,1,2.57-1.43,7,7,0,0,1,.8-.11h.6a5.59,5.59,0,0,1,.82.12,4.37,4.37,0,0,1,.8.25,5.06,5.06,0,0,1,1.86,1.29,5.16,5.16,0,0,1,.68.93,4.16,4.16,0,0,1,.24.47,4.6,4.6,0,0,1,.19.52,5,5,0,0,1,.23,1.18c0,.12,0,.24,0,.37a5.17,5.17,0,0,1-.36,1.89,0,0,0,0,1,0,0,5.18,5.18,0,0,1-3.83,3.13Z" transform="translate(44.17)"/><polygon class="cls-12" points="133.48 155.78 131.46 155.78 132.1 150.22 131.36 144.95 133.68 145.09 132.91 150.22 133.48 155.78"/><polygon class="cls-12" points="128.31 153.9 127.3 152.15 132.43 149.94 136.63 146.65 137.66 148.73 132.83 150.63 128.31 153.9"/><polygon class="cls-12" points="127.5 148.28 128.61 146.59 132.9 150.19 137.71 152.46 136.32 154.32 132.46 150.86 127.5 148.28"/><path class="cls-12" d="M86.45,150.37a1.89,1.89,0,1,1,1.89,1.89A1.89,1.89,0,0,1,86.45,150.37Z" transform="translate(44.17)"/><path class="cls-11" d="M145.25,150.38a7.24,7.24,0,1,1,7.24,7.23A7.24,7.24,0,0,1,145.25,150.38Z" transform="translate(44.17)"/><path class="cls-12" d="M158.11,149.78a5.52,5.52,0,0,0-.57-1.94,5.65,5.65,0,0,0-4.36-3.07,2,2,0,0,0-.24,0l-.45,0h-.16a5.06,5.06,0,0,0-.68.05l-.19,0a5.65,5.65,0,0,0-4,3,6,6,0,0,0-.25.58,4.88,4.88,0,0,0-.2.65,5.75,5.75,0,0,0-.14.94c0,.12,0,.24,0,.37a5.39,5.39,0,0,0,.19,1.45,5.65,5.65,0,0,0,11.1-1,3.39,3.39,0,0,0,0-.45Q158.14,150.08,158.11,149.78Zm-.85,2.48a5.23,5.23,0,0,1-1.23,1.83,5.15,5.15,0,0,1-2.62,1.34,5.62,5.62,0,0,1-.92.08,4.9,4.9,0,0,1-1-.1,5.19,5.19,0,0,1-3.86-3.41l-.06-.22a5,5,0,0,1-.2-1.4c0-.13,0-.25,0-.37a5.25,5.25,0,0,1,.36-1.54s0,0,0,0a5.34,5.34,0,0,1,.28-.59l.13-.21a5,5,0,0,1,.67-.84,5.19,5.19,0,0,1,1.86-1.22c.23-.08.47-.15.71-.21l.2,0a5.29,5.29,0,0,1,.9-.08l.44,0c.22,0,.44.06.65.1h0a5.06,5.06,0,0,1,3.33,2.47,4.89,4.89,0,0,1,.44,1,4.57,4.57,0,0,1,.22,1.18c0,.12,0,.24,0,.37a3.91,3.91,0,0,1,0,.49A4.87,4.87,0,0,1,157.26,152.26Z" transform="translate(44.17)"/><polygon class="cls-12" points="197.62 155.78 195.59 155.78 196.24 150.22 195.5 144.95 197.82 145.09 197.04 150.22 197.62 155.78"/><polygon class="cls-12" points="192.45 153.9 191.44 152.15 196.57 149.94 200.77 146.65 201.8 148.73 196.97 150.63 192.45 153.9"/><polygon class="cls-12" points="191.64 148.28 192.75 146.59 197.03 150.19 201.85 152.46 200.46 154.32 196.59 150.86 191.64 148.28"/><path class="cls-12" d="M150.59,150.37a1.89,1.89,0,1,1,1.88,1.89A1.89,1.89,0,0,1,150.59,150.37Z" transform="translate(44.17)"/><path class="cls-12" d="M81.36,141l-1.86,2a1.38,1.38,0,0,1-1,.45h-5.7a.44.44,0,0,1-.38-.65l.16-.29a4.15,4.15,0,0,1,.74-1h0a4.31,4.31,0,0,1,3-1.25h4.73A.42.42,0,0,1,81.36,141Z" transform="translate(44.17)"/><path class="cls-9" d="M75.31,150.38H73.7a1.48,1.48,0,0,0-1.29.75l-.06.1a.16.16,0,0,0,.13.23h2a.48.48,0,0,0,.35-.16l.63-.69A.13.13,0,0,0,75.31,150.38Z" transform="translate(44.17)"/><path class="cls-12" d="M153.52,133l-24.14.57a.85.85,0,0,1-.87-.84v-5.57a.79.79,0,0,1,.8-.78c10.3.14,13.83.43,15.94,1.16,1.87.64,6.23,3.29,8.49,4.63A.45.45,0,0,1,153.52,133Z" transform="translate(44.17)"/><path class="cls-12" d="M126.41,126.33l1.15,0v7.25l-23.29.56a.31.31,0,0,1-.18-.56C106.81,131.77,115.93,126.21,126.41,126.33Z" transform="translate(44.17)"/><path class="cls-12" d="M153.44,133h0v-1l.24.14A.47.47,0,0,1,153.44,133Z" transform="translate(44.17)"/><polygon class="cls-15" points="172.68 133.9 169.83 133.67 170.02 125.91 172.68 125.91 172.68 133.9"/><polygon class="cls-15" points="190.75 133.9 189.42 133.9 189.42 126.93 190.75 127.73 190.75 133.9"/><path class="cls-11" d="M107.18,131.72l.71,2.35-3.89.09a.23.23,0,0,1-.14-.42A18.23,18.23,0,0,1,107.18,131.72Z" transform="translate(44.17)"/><path class="cls-9" d="M111.63,133.79V134l6.3-.15v-.19Zm14.27-7.33-.06-.06s0,0,0,0,0,0,0,0l-.07-.06a.83.83,0,0,0-.44-.12h-1.08l-.34,0-.18,0-.23,0-.23,0-.18,0h-.16l-.15,0-.2,0h0l-.75.1-.41.06h0l-.23,0-.45.08h-.08l-.15,0-.24,0-.21,0-.22.05h0l-.22,0-.23,0-.22.05-.22,0-.17,0,0,0-.22,0-.37.09h-.1l-.83.22-.42.12-.22.06-.4.12-.25.08-.38.12-.2.06h0L115,128l-.24.08-.19.06-.17.06c-.77.27-1.55.57-2.31.88l-.34.14-.59.25-.18.08-.36.16-.17.08-.53.25-.17.08c-.55.26-1.1.53-1.63.82L108,131l-.09.05-.85.46-.09.06-.41.22-.2.12-.59.35-.2.12-.13.08-.09.05,0,0-.25.15,0,0h0l-.28.17-.35.23-.15.1-.27.18-.29.2-.08.05a.35.35,0,0,0-.15.31.36.36,0,0,0,0,.1.34.34,0,0,0,.11.17.36.36,0,0,0,.23.09h0l2.82-.07,5-.12,7.61-.18,5.9-.14a.88.88,0,0,0,.52-.18h0l0,0a.92.92,0,0,0,.35-.73v-6A.8.8,0,0,0,125.9,126.46Zm-.24,6.46a.55.55,0,0,1-.53.55l-7.2.17-6.3.15-3.75.09h0l-1.19,0L104,134h-.11l0,0,0,0,.23-.15.27-.18.15-.1.35-.23.27-.17.05,0,.26-.16h0l.08,0,.14-.09.19-.11.59-.35.2-.11.45-.26h0l.12-.06.76-.41.09-.05.13-.07c.53-.28,1.07-.55,1.61-.81l.17-.08.52-.24.18-.08.36-.16.18-.08.58-.25.34-.14c.75-.31,1.52-.6,2.28-.87l.17-.06.19-.06.24-.08.19-.06h0l.2-.06.37-.12.25-.08.4-.11.22-.07.41-.11.73-.19.11,0h.08l.37-.09.21,0,.06,0,.16,0,.22,0,.22,0,.22,0,.23,0h0l.21,0,.21,0,.24,0,.15,0,.07,0,.45-.07.23,0h0l.4-.06.74-.09h0l.2,0,.15,0,.16,0h.17l.24,0,.22,0,.18,0,.33,0h1.07a.41.41,0,0,1,.28.11.39.39,0,0,1,.11.27Z" transform="translate(44.17)"/><path class="cls-9" d="M153.86,132.1h0l0,0-.32-.21-.64-.41-.53-.35-.24-.14-.94-.6-.21-.13c-1.29-.8-2.34-1.43-3.13-1.86l-.08,0,0,0-.41-.21a.77.77,0,0,0-.64-.06l0,.05,0,0a.93.93,0,0,0-.14.58v4.06a.61.61,0,0,0,.15.41h0l0,0a.55.55,0,0,0,.38.16h0l4.2-.11h.19l2-.05h.19a.55.55,0,0,0,.48-.41A.58.58,0,0,0,153.86,132.1ZM147,133a.25.25,0,0,1-.16-.06.3.3,0,0,1-.08-.2v-4.06a.3.3,0,0,1,.14-.27.22.22,0,0,1,.13,0l.1,0,.4.2h0l.08,0q1.25.68,3.33,2l.21.13.72.46.23.15.54.34.64.41.13.09.19.12,0,0h0a.27.27,0,0,1,.1.29.22.22,0,0,1-.2.16h-.15l-2.07,0h-.19Z" transform="translate(44.17)"/><path class="cls-11" d="M107.18,131.72l.71,2.35-3.89.09a.23.23,0,0,1-.14-.42A18.23,18.23,0,0,1,107.18,131.72Z" transform="translate(44.17)"/><path class="cls-9" d="M145.32,127.35l-.07,0c-2.06-.76-5.34-1-15.55-1.14h-.39a1.07,1.07,0,0,0-.43.09,1.2,1.2,0,0,0-.27.19h0a.94.94,0,0,0-.09.12.9.9,0,0,0-.2.57v5.57a1,1,0,0,0,.2.59.79.79,0,0,0,.12.15,1,1,0,0,0,.72.29h.34l15.55-.37h.19v-6Zm-.26,5.65-15.36.36h-.33a.66.66,0,0,1-.47-.19.63.63,0,0,1-.2-.46v-5.57a.6.6,0,0,1,.18-.42.59.59,0,0,1,.42-.17h.4c9.94.15,13.36.39,15.36,1.1Z" transform="translate(44.17)"/><path class="cls-14" d="M172.41,139.12h-4.55a2.19,2.19,0,0,1-1.73-.85l-1.72-2.18a.32.32,0,0,1,.25-.51h7.2Z" transform="translate(44.17)"/><rect class="cls-9" x="115.14" y="138.36" width="24.36" height="0.19" transform="matrix(0.01, -1, 1, 0.01, 31.53, 264.12)"/><rect class="cls-9" x="96.47" y="150.75" width="47.01" height="0.19" transform="translate(41.22 2.39) rotate(-1.13)"/><path class="cls-11" d="M124.57,138.65c0,.26-1.15.47-2.56.47s-2.57-.21-2.57-.47,1.15-.47,2.57-.47S124.57,138.39,124.57,138.65Z" transform="translate(44.17)"/><path class="cls-11" d="M148.48,138.65c0,.26-1.14.47-2.56.47s-2.57-.21-2.57-.47,1.15-.47,2.57-.47S148.48,138.39,148.48,138.65Z" transform="translate(44.17)"/><path class="cls-9" d="M141.64,150.38h-.19a10.37,10.37,0,0,1,2.13-6.06,10,10,0,0,1,4.13-3,15.57,15.57,0,0,1,5.72-1.09V133h.19v7.44h-.1a15.51,15.51,0,0,0-5.74,1.07,9.85,9.85,0,0,0-4.05,2.94A10.16,10.16,0,0,0,141.64,150.38Z" transform="translate(44.17)"/><path class="cls-9" d="M102.2,151.19a101.28,101.28,0,0,1,.59-13.17,29.09,29.09,0,0,1,.69-4.06l.18,0c0,.05-1.41,5.18-1.27,17.18Z" transform="translate(44.17)"/><rect class="cls-9" x="169.76" y="126.27" width="3.72" height="0.19"/><rect class="cls-15" x="150.81" y="132.28" width="4.99" height="2.79" rx="0.73"/><rect class="cls-25" x="60.12" y="157.14" width="32.71" height="15.53"/><rect class="cls-19" x="164.69" y="97.8" width="1.58" height="14.64"/><path class="cls-25" d="M4.19,136.65l-.74-.16L5,129.29a5.54,5.54,0,0,1,5.39-4.37h3.87v.77H10.36a4.76,4.76,0,0,0-4.64,3.75Z" transform="translate(44.17)"/><rect class="cls-19" x="46.27" y="134.76" width="4.97" height="10.22" rx="1.3"/><rect class="cls-26" x="91.25" y="161.17" width="114.47" height="12.83"/><path class="cls-27" d="M43.21,174.72A10.2,10.2,0,1,0,33,184.91,10.2,10.2,0,0,0,43.21,174.72Z" transform="translate(44.17)"/><path class="cls-15" d="M40.46,172.71v0l0-.12a7.55,7.55,0,0,0-.68-1.6c-.11-.2-.23-.39-.36-.58a7.72,7.72,0,0,0-13,.34l-.14.24a7.69,7.69,0,0,0-.69,1.64.24.24,0,0,0,0,.08,7.42,7.42,0,0,0-.28,2.06,7.72,7.72,0,0,0,15.43.3v-.3A7.46,7.46,0,0,0,40.46,172.71Zm-2,6.34a6.49,6.49,0,0,1-.66.73,7,7,0,0,1-1.05.83,6.87,6.87,0,0,1-2.62,1,6.84,6.84,0,0,1-2.33,0,6.87,6.87,0,0,1-2.62-1,6.5,6.5,0,0,1-1.05-.83,7.29,7.29,0,0,1-.65-.72,7,7,0,0,1-1.41-3.15,7.51,7.51,0,0,1-.1-1.18,7.21,7.21,0,0,1,.1-1.14,5.86,5.86,0,0,1,.22-.92,6.74,6.74,0,0,1,.8-1.72l.18-.27.11-.15a7.26,7.26,0,0,1,1.71-1.61,7.06,7.06,0,0,1,2.68-1.07,7.19,7.19,0,0,1,2.39,0,7.06,7.06,0,0,1,2.68,1.07,6.94,6.94,0,0,1,1.59,1.47,1.34,1.34,0,0,1,.11.14q.16.21.3.42a7.1,7.1,0,0,1,.8,1.72,5.86,5.86,0,0,1,.22.92,7.2,7.2,0,0,1,.09,1.14V175a6,6,0,0,1-.1.95A6.89,6.89,0,0,1,38.51,179.05Z" transform="translate(44.17)"/><path class="cls-15" d="M35.43,174.74A2.42,2.42,0,1,0,33,177.15,2.42,2.42,0,0,0,35.43,174.74Z" transform="translate(44.17)"/><polygon class="cls-15" points="77.57 172.9 78.41 167.64 75.96 167.64 76.83 172.9 77.57 172.9"/><polygon class="cls-15" points="78.97 173.71 83.05 170.3 81.19 168.69 78.41 173.23 78.97 173.71"/><polygon class="cls-15" points="79.3 175.49 84.6 175.96 84.42 173.51 79.25 174.75 79.3 175.49"/><polygon class="cls-15" points="75.4 173.71 71.32 170.3 73.17 168.69 75.96 173.23 75.4 173.71"/><polygon class="cls-15" points="77.57 176.78 78.41 182.03 75.96 182.03 76.83 176.78 77.57 176.78"/><polygon class="cls-15" points="78.97 175.94 83.05 179.36 81.19 180.98 78.41 176.44 78.97 175.94"/><polygon class="cls-15" points="75.4 175.96 71.32 179.38 73.17 180.98 75.96 176.44 75.4 175.96"/><polygon class="cls-15" points="75.07 175.49 69.77 175.96 69.94 173.51 75.12 174.75 75.07 175.49"/><path class="cls-28" d="M144.05,174.72a10.2,10.2,0,1,0-10.2,10.19A10.2,10.2,0,0,0,144.05,174.72Z" transform="translate(44.17)"/><path class="cls-15" d="M141.54,174a7.72,7.72,0,0,0-7.68-7,7.7,7.7,0,0,0-6.73,3.93,7.63,7.63,0,0,0-1,3.06q0,.36,0,.72a7.72,7.72,0,1,0,15.43,0Q141.57,174.37,141.54,174Zm-2.19,5a6.49,6.49,0,0,1-.66.73,7,7,0,0,1-1.05.83,6.87,6.87,0,0,1-2.62,1,6.84,6.84,0,0,1-2.33,0,6.87,6.87,0,0,1-2.62-1,7,7,0,0,1-1-.83,8.8,8.8,0,0,1-.65-.72,6.94,6.94,0,0,1-1.4-3.15,6.48,6.48,0,0,1-.1-1.18q0-.36,0-.72l.06-.42a7,7,0,0,1,1-2.64q.13-.21.3-.42a7,7,0,0,1,4.38-2.68,7.19,7.19,0,0,1,2.39,0,7,7,0,0,1,4.38,2.68q.16.21.3.42a7,7,0,0,1,1,2.64l.06.42q0,.36,0,.72a6.48,6.48,0,0,1-.1,1.18A6.89,6.89,0,0,1,139.35,179.05Z" transform="translate(44.17)"/><path class="cls-15" d="M136.27,174.74a2.42,2.42,0,1,0-2.42,2.41A2.42,2.42,0,0,0,136.27,174.74Z" transform="translate(44.17)"/><polygon class="cls-15" points="178.41 172.9 179.25 167.64 176.8 167.64 177.67 172.9 178.41 172.9"/><polygon class="cls-15" points="179.81 173.71 183.88 170.3 182.03 168.69 179.25 173.23 179.81 173.71"/><polygon class="cls-15" points="180.14 175.49 185.44 175.96 185.26 173.51 180.09 174.75 180.14 175.49"/><polygon class="cls-15" points="176.24 173.71 172.16 170.3 174.01 168.69 176.8 173.23 176.24 173.71"/><polygon class="cls-15" points="178.41 176.78 179.25 182.03 176.8 182.03 177.67 176.78 178.41 176.78"/><polygon class="cls-15" points="179.81 175.94 183.88 179.36 182.03 180.98 179.25 176.44 179.81 175.94"/><polygon class="cls-15" points="176.24 175.96 172.16 179.38 174.01 180.98 176.8 176.44 176.24 175.96"/><polygon class="cls-15" points="175.91 175.49 170.61 175.96 170.78 173.51 175.96 174.75 175.91 175.49"/><polygon class="cls-19" points="96.93 101.39 96.88 99.4 102.4 95.7 152.22 95.31 152.26 100.96 96.93 101.39"/><rect class="cls-25" x="138.97" y="113.02" width="53.35" height="0.64"/><rect class="cls-26" x="159.85" y="112.44" width="11.59" height="1.72"/><rect class="cls-28" x="77.29" y="129.43" width="28.8" height="0.19" transform="matrix(0.16, -0.99, 0.99, 0.16, -6.69, 199.25)"/><polygon class="cls-19" points="128.04 149.13 127.8 148.84 133.52 144.2 138.27 148.8 138 149.08 133.5 144.71 128.04 149.13"/><rect class="cls-19" x="132.6" y="143.35" width="1.72" height="1.77"/><rect class="cls-19" x="127.03" y="147.84" width="12.22" height="2.16"/><rect class="cls-28" x="150.82" y="113.96" width="0.19" height="30.34" transform="translate(32.89 14.48) rotate(-5.3)"/><polygon class="cls-19" points="191.07 149.13 190.83 148.84 196.54 144.2 201.3 148.8 201.03 149.08 196.52 144.71 191.07 149.13"/><rect class="cls-19" x="195.63" y="143.35" width="1.72" height="1.77"/><rect class="cls-19" x="190.06" y="147.84" width="12.22" height="2.16"/><polygon class="cls-19" points="224.4 159.36 224.4 161.17 100.63 161.17 100.63 157.58 218.47 157.58 224.4 159.36"/><polygon class="cls-28" points="114.92 157.58 110.39 161.17 107.68 161.17 112.22 157.58 114.92 157.58"/><polygon class="cls-28" points="120.72 157.58 116.19 161.17 113.49 161.17 118.02 157.58 120.72 157.58"/><polygon class="cls-28" points="126.53 157.58 122 161.17 119.29 161.17 123.82 157.58 126.53 157.58"/><polygon class="cls-28" points="132.33 157.58 127.8 161.17 125.1 161.17 129.63 157.58 132.33 157.58"/><polygon class="cls-28" points="135.43 157.58 130.9 161.17 133.61 161.17 138.14 157.58 135.43 157.58"/><polygon class="cls-28" points="143.94 157.58 139.41 161.17 136.71 161.17 141.24 157.58 143.94 157.58"/><polygon class="cls-28" points="175.23 157.58 170.69 161.17 167.99 161.17 172.52 157.58 175.23 157.58"/><polygon class="cls-28" points="181.03 157.58 176.5 161.17 173.79 161.17 178.32 157.58 181.03 157.58"/><polygon class="cls-28" points="182.3 161.17 186.84 157.58 184.13 157.58 179.6 161.17 182.3 161.17"/><polygon class="cls-28" points="192.64 157.58 188.11 161.17 185.4 161.17 189.93 157.58 192.64 157.58"/><polygon class="cls-28" points="198.44 157.58 193.91 161.17 191.21 161.17 195.74 157.58 198.44 157.58"/><polygon class="cls-28" points="204.25 157.58 199.72 161.17 197.01 161.17 201.54 157.58 204.25 157.58"/><rect class="cls-19" x="104.51" y="164.65" width="52.37" height="13.37" rx="2.73"/><path class="cls-29" d="M45.11,128H11l2.27-4.19a6.35,6.35,0,0,1,5-3.36l27-2.38Z" transform="translate(44.17)"/><path class="cls-19" d="M45.11,128v30.68H28a3.49,3.49,0,0,0-2.8,1.41l-2.27,3.05H9.67a1.94,1.94,0,0,1-1.94-2l.41-14,.32-2.17L10.54,131l.45-3C11.18,127.79,45.11,128,45.11,128Z" transform="translate(44.17)"/><path class="cls-19" d="M23.93,168.51a6.7,6.7,0,0,0-1.73,4.61l.08,5.73-9.84-1.09a5.23,5.23,0,0,1-4.66-5.14l0-1.92-.06-5.32v-.1a2.14,2.14,0,0,1,2.14-2.16h13l2.87,3.44Z" transform="translate(44.17)"/><path class="cls-26" d="M25.69,166.56l2.64-2.05a2.89,2.89,0,0,1,1.81-.63h9.47A4.41,4.41,0,0,1,44,168.3v8.46a1.58,1.58,0,0,0,1.58,1.58h.53a1.4,1.4,0,0,0,1.4-1.4V161.15A2.55,2.55,0,0,0,45,158.6h0l-17.29.07a3.09,3.09,0,0,0-2.44,1.23l-2.43,3.22Z" transform="translate(44.17)"/><polygon class="cls-19" points="100.67 161.17 94.56 161.17 94.56 101.49 98.7 101.49 98.76 111.93 100.67 115.61 100.67 161.17"/><path class="cls-26" d="M49.83,101.11a2.65,2.65,0,1,1,2.65,2.65A2.65,2.65,0,0,1,49.83,101.11Z" transform="translate(44.17)"/><rect class="cls-26" x="52.25" y="102.53" width="55.17" height="0.43" transform="translate(43.43 0.58) rotate(-0.41)"/><path class="cls-25" d="M13.4,132.41v11.12A1.38,1.38,0,0,1,12,144.91H8.46L10.53,131H12A1.38,1.38,0,0,1,13.4,132.41Z" transform="translate(44.17)"/><path class="cls-25" d="M64.93,131.13h8.91a1.55,1.55,0,0,1,1.55,1.55v10.56a1.55,1.55,0,0,1-1.55,1.55H60.89a1.55,1.55,0,0,1-1.55-1.55v-6.52A5.59,5.59,0,0,1,64.93,131.13Z"/><path class="cls-28" d="M31.22,149.22a1.51,1.51,0,1,0-1.49,1.3A1.41,1.41,0,0,0,31.22,149.22Z" transform="translate(44.17)"/><rect class="cls-25" x="71.12" y="148.71" width="5.46" height="0.88" rx="0.23"/><rect class="cls-26" x="89.27" y="117.15" width="3.95" height="44.44"/><rect class="cls-26" x="147.88" y="93.79" width="5.44" height="9.36"/><rect class="cls-26" x="164.27" y="100.86" width="2.41" height="8.52"/><path class="cls-26" d="M118.51,98.72a2.8,2.8,0,1,1,2.8,2.8A2.81,2.81,0,0,1,118.51,98.72Z" transform="translate(44.17)"/><rect class="cls-26" x="151.75" y="96.8" width="13.85" height="0.76"/><rect class="cls-26" x="151.75" y="98.95" width="13.85" height="0.76"/><path class="cls-29" d="M94,116.11h0a1.49,1.49,0,0,1-1.49-1.49V113a1.08,1.08,0,0,1,1.08-1.08h.84A1.07,1.07,0,0,1,95.47,113v1.63A1.49,1.49,0,0,1,94,116.11Z" transform="translate(44.17)"/><path class="cls-29" d="M192.67,111.93h2a.54.54,0,0,1,.54.54v2.86a.78.78,0,0,1-.78.78H193a.78.78,0,0,1-.78-.78V112.4a.47.47,0,0,1,.47-.47Z"/><rect class="cls-30" x="79.6" y="127.98" width="9.73" height="30.67"/><path class="cls-8" d="M372,187c-5.68,19.78-20.48,36.74-51.7,42.16-75.36,13.08-143.54,2.63-220.1,12S-16.63,243.71-31,214.67a67.62,67.62,0,0,1-8.61-16.55A76.68,76.68,0,0,1-42.75,187Z" transform="translate(44.17)"/><path class="cls-8" d="M372,178.19c-5.68,19.79-20.48,36.74-51.7,42.16-75.36,13.09-143.54,2.63-220.1,12.05S-16.63,234.88-31,205.84A67.42,67.42,0,0,1-39.6,189.3a77.2,77.2,0,0,1-3.15-11.11Z" transform="translate(44.17)"/><path class="cls-31" d="M49.67,187.57s1,17.4,10,24.47l1.66-1.69s-4.67-3.29-6.36-7.71S50.32,186,49.67,187.57Z" transform="translate(44.17)"/><path class="cls-31" d="M61.24,195.29s-2.71,6.45-6.56,7.58l1.1,2.17S63,197.57,61.24,195.29Z" transform="translate(44.17)"/><path class="cls-20" d="M178.82,177.12l1.29-4.46a1.39,1.39,0,0,1,1.26-1.08h2.15a1.36,1.36,0,0,1,1.25,1.06l1.36,4.46a1.6,1.6,0,0,1-1.25,2.17h-4.8A1.6,1.6,0,0,1,178.82,177.12Z" transform="translate(44.17)"/><path class="cls-9" d="M109,219.15h95.31l32.19-2.9s-5.76-14.35-7.33-14.56-117.15,0-117.15,0Z" transform="translate(44.17)"/><path class="cls-19" d="M250.51,218.33c-2.37,1-17,.6-17,.6s.33-17.57-14.44-15.53S206.87,220,206.87,220l-71,1.26s1.15-18.52-14.52-16.57c-13,1.62-9.68,16.5-9.68,16.5-13,.67-14.33-3.73-14.33-3.73v-1.82h.81v-4.8h-.81v-3.56l2.73-6.26c1.15-2,4.27-3.59,8.3-4.9,12.09-3.95,32.38-5.16,32.38-5.16,5.48-3.15,10-5.49,13.58-7.19,5.67-2.71,12.13-5.36,18.38-6a142.2,142.2,0,0,1,34.28.78c4,.65,24,9.38,25.54,10.13s13.82,1.78,15.4,2a1.73,1.73,0,0,1,1.54,1.78l.21,1.4-.25.82-1.18-.41.5,1.78-.16.74,1.59.25.33,2.16.2,1.3C253.35,204.07,250.51,218.33,250.51,218.33Z" transform="translate(44.17)"/><circle class="cls-11" cx="123.44" cy="216.25" r="10.93" transform="translate(-52.63 332.43) rotate(-88.09)"/><path class="cls-12" d="M131.05,212.35a8.72,8.72,0,0,0-1.16-1.71,6.14,6.14,0,0,0-.43-.45c-.1-.1-.2-.2-.31-.29a8.51,8.51,0,0,0-11.59.16l-.06.05c-.17.17-.34.35-.49.53a8.64,8.64,0,0,0-1.67,2.88,8.54,8.54,0,0,0-.45,2.73,8.42,8.42,0,0,0,.51,2.9,8.55,8.55,0,0,0,16.09,0,8.42,8.42,0,0,0,.5-2.9A8.54,8.54,0,0,0,131.05,212.35Zm-6.2,11.54a8.22,8.22,0,0,1-1.41.13,7.82,7.82,0,0,1-5.91-2.75,7.5,7.5,0,0,1-1.28-2.12c-.06-.14-.12-.3-.17-.45a7.87,7.87,0,0,1,.06-5.07c0-.11.08-.22.13-.33a7.76,7.76,0,0,1,1.63-2.47l.2-.19c.19-.18.39-.36.59-.52l.11-.08a7.78,7.78,0,0,1,3-1.37,8.18,8.18,0,0,1,1.65-.18,7.91,7.91,0,0,1,1.7.19,7.79,7.79,0,0,1,2.77,1.23l.36.27a5.7,5.7,0,0,1,.52.46c.13.12.26.25.38.38a7.45,7.45,0,0,1,1,1.28,7.61,7.61,0,0,1,.72,1.62,7.48,7.48,0,0,1,.37,2.33,7.78,7.78,0,0,1-.55,2.86l0,0a7.81,7.81,0,0,1-5.79,4.74Z" transform="translate(44.17)"/><polygon class="cls-12" points="169.07 224.42 166.01 224.42 166.99 216.02 165.87 208.05 169.37 208.26 168.2 216.02 169.07 224.42"/><polygon class="cls-12" points="161.26 221.58 159.72 218.93 167.49 215.59 173.83 210.63 175.4 213.76 168.09 216.63 161.26 221.58"/><polygon class="cls-12" points="160.03 213.09 161.71 210.53 168.19 215.97 175.47 219.41 173.36 222.22 167.52 216.98 160.03 213.09"/><path class="cls-12" d="M120.58,216.24a2.85,2.85,0,1,1,2.85,2.85A2.84,2.84,0,0,1,120.58,216.24Z" transform="translate(44.17)"/><circle class="cls-11" cx="220.39" cy="216.25" r="10.93" transform="translate(39.33 427.47) rotate(-87.62)"/><path class="cls-12" d="M228.35,213.11a8.71,8.71,0,0,0-1.52-2.47v0a8.7,8.7,0,0,0-1.64-1.45,8.58,8.58,0,0,0-4.79-1.47,8.47,8.47,0,0,0-4.76,1.46,8.35,8.35,0,0,0-1.67,1.47h0a7.28,7.28,0,0,0-.67.88,6.91,6.91,0,0,0-.65,1.16,8.17,8.17,0,0,0-.69,2.3,7.68,7.68,0,0,0-.1,1.27,8.4,8.4,0,0,0,.29,2.2,8.54,8.54,0,0,0,16.78-1.52c0-.22,0-.45,0-.68A8.67,8.67,0,0,0,228.35,213.11Zm-.74,6a7.83,7.83,0,0,1-5.81,4.78,8.22,8.22,0,0,1-1.41.13,7.89,7.89,0,0,1-1.54-.16,7.79,7.79,0,0,1-4.38-2.59,8,8,0,0,1-1.44-2.56,3.37,3.37,0,0,1-.1-.34,7.76,7.76,0,0,1-.3-2.12,8.52,8.52,0,0,1,.1-1.24,7.63,7.63,0,0,1,.49-1.71c.06-.16.14-.32.21-.47a8,8,0,0,1,.75-1.22,7.23,7.23,0,0,1,.67-.78l.19-.19h0a7.64,7.64,0,0,1,2.2-1.47,7.43,7.43,0,0,1,1.49-.49,8.1,8.1,0,0,1,1.65-.18,8,8,0,0,1,1.7.19,8.18,8.18,0,0,1,1.47.49,7.93,7.93,0,0,1,2.17,1.45v0c.13.12.25.25.37.38a7.54,7.54,0,0,1,1.34,2,8.79,8.79,0,0,1,.34.9,7.47,7.47,0,0,1,.36,2.33c0,.26,0,.51,0,.76A7.78,7.78,0,0,1,227.61,219.11Z" transform="translate(44.17)"/><polygon class="cls-12" points="266.02 224.42 262.96 224.42 263.94 216.02 262.82 208.05 266.32 208.26 265.15 216.02 266.02 224.42"/><polygon class="cls-12" points="258.2 221.58 256.67 218.93 264.44 215.59 270.78 210.63 272.35 213.76 265.04 216.63 258.2 221.58"/><polygon class="cls-12" points="256.98 213.09 258.66 210.53 265.13 215.97 272.42 219.41 270.31 222.22 264.47 216.98 256.98 213.09"/><path class="cls-12" d="M217.52,216.24a2.86,2.86,0,1,1,2.86,2.85A2.85,2.85,0,0,1,217.52,216.24Z" transform="translate(44.17)"/><path class="cls-13" d="M112.43,201h-7.16a6.54,6.54,0,0,0-5.7,3.34l-.25.44a.67.67,0,0,0,.58,1h8.61a2.16,2.16,0,0,0,1.57-.68l2.8-3.05A.62.62,0,0,0,112.43,201Z" transform="translate(44.17)"/><path class="cls-9" d="M103.74,216.25H101.3a2.24,2.24,0,0,0-2,1.15l-.08.15a.22.22,0,0,0,.2.33h2.93a.73.73,0,0,0,.54-.23l1-1A.22.22,0,0,0,103.74,216.25Z" transform="translate(44.17)"/><path class="cls-12" d="M222,190l-36.5.87a1.27,1.27,0,0,1-1.3-1.27v-8.41a1.19,1.19,0,0,1,1.2-1.19c15.57.22,20.9.65,24.1,1.76,2.82,1,9.42,5,12.83,7A.67.67,0,0,1,222,190Z" transform="translate(44.17)"/><path class="cls-12" d="M181,179.91l1.74,0v11l-35.21.83a.46.46,0,0,1-.27-.84C151.36,188.12,165.14,179.73,181,179.91Z" transform="translate(44.17)"/><path class="cls-12" d="M221.84,190h0v-1.53l.36.22A.7.7,0,0,1,221.84,190Z" transform="translate(44.17)"/><polygon class="cls-19" points="228.33 191.34 224.02 191 224.3 179.27 228.33 179.27 228.33 191.34"/><polygon class="cls-19" points="255.64 191.34 253.63 191.34 253.63 180.81 255.64 182.01 255.64 191.34"/><path class="cls-11" d="M151.91,188.05,153,191.6l-5.87.14a.35.35,0,0,1-.22-.63A28.18,28.18,0,0,1,151.91,188.05Z" transform="translate(44.17)"/><path class="cls-9" d="M180.2,180.11a.76.76,0,0,0-.08-.11l0,0-.06-.05-.12-.09a1.15,1.15,0,0,0-.65-.19h-1l-.34,0h0l-.31,0-.51,0-.27,0-.34,0-.36,0-.26,0-.24,0-.23,0-.31,0h0l-1.13.14-.61.09h0l-.35.06-.69.11-.11,0-.23,0-.37.07-.32.06-.32.06h0l-.34.07-.34.07-.33.07-.34.07-.24.06-.09,0-.33.07-.55.14-.11,0h0l-1.27.34-.63.17-.34.1-.6.18-.39.12-.56.18-.31.1h0l-.3.1-.36.12-.29.1-.25.08c-1.17.41-2.34.86-3.49,1.33l-.51.21-.89.39-.28.12-.54.24-.27.12-.79.37-.25.12c-.84.4-1.67.81-2.47,1.23l-.18.1h0l-.14.07-1.27.7-.15.08-.62.35-.29.17-.9.53-.3.18-.2.12-.14.08,0,0-.39.24-.06,0h0l-.42.27-.54.34-.22.15-.42.28-.42.29-.12.08a.54.54,0,0,0-.24.47h0a.4.4,0,0,0,0,.15.45.45,0,0,0,.17.25.5.5,0,0,0,.35.14h0l4.2-.1,9.12-.22,18.86-.45a1.47,1.47,0,0,0,.8-.27h0l0,0a1.39,1.39,0,0,0,.53-1.09v-9.09A1.06,1.06,0,0,0,180.2,180.11Zm-.35,9.76a.84.84,0,0,1-.81.83l-18.85.44-7.22.18h-.08l-1.82,0-4,.09h-.15l0,0,.07,0,.35-.24.42-.27.22-.15.53-.34.41-.26.08-.05.38-.24,0,0,.12-.08.21-.12.29-.18.9-.53.29-.16.68-.39h0l.18-.1,1.14-.62.14-.07.2-.11.8-.41c.54-.28,1.09-.55,1.64-.81l.26-.12.78-.37.27-.12.54-.24.27-.12.88-.38.51-.21c1.14-.47,2.3-.91,3.46-1.31l.25-.09.28-.1L164,183l.29-.09h0l.3-.1.56-.17.39-.12.59-.18.33-.09.63-.18,1.26-.33h0l.11,0,.54-.14.33-.07.08,0,.25-.06.33-.07.33-.07.34-.07.33-.07h0l.32-.07.32-.06L172,181l.23,0,.11,0,.68-.12.34,0h0l.61-.09,1.12-.14h0l.31,0,.23,0,.23,0,.26,0,.36,0,.34,0,.26,0,.51,0h.67l.27,0h.68a.6.6,0,0,1,.42.16.58.58,0,0,1,.17.41Z" transform="translate(44.17)"/><path class="cls-9" d="M222.48,188.62h0l-.07,0-.49-.32-1-.63-.81-.52L220,187l-.22-.14c-.89-.56-1.71-1.08-2.48-1.55l-1.9-1.16c-.79-.47-1.49-.87-2.08-1.19h0l-.12-.06-.05,0-.62-.31a1.13,1.13,0,0,0-1-.09l-.08.06,0,0a.1.1,0,0,1,0,.05,1.54,1.54,0,0,0-.18.83v6.14a.94.94,0,0,0,.18.56l0,.06,0,0,0,0a.82.82,0,0,0,.58.24h0l1.21,0,2.08-.06,1.9,0,4.53-.11h.29a.83.83,0,0,0,.72-.62A.89.89,0,0,0,222.48,188.62Zm-10.63,1.28a.43.43,0,0,1-.12-.31v-6.14a.49.49,0,0,1,.21-.41.43.43,0,0,1,.19,0,.44.44,0,0,1,.15,0l.61.31,0,0,.12.07.26.14c.6.33,1.29.74,2.08,1.2.58.35,1.22.74,1.9,1.17L219,187l.47.29c.11.08.23.15.35.22l.81.52,1,.63.2.12.29.19.07,0h0a.37.37,0,0,1,.14.43.3.3,0,0,1-.28.25h-.24l-4.53.12-1.9,0-2.08.06-1.23,0A.35.35,0,0,1,211.85,189.9Z" transform="translate(44.17)"/><path class="cls-11" d="M151.91,188.05,153,191.6l-5.87.14a.35.35,0,0,1-.22-.63A28.18,28.18,0,0,1,151.91,188.05Z" transform="translate(44.17)"/><path class="cls-9" d="M209.56,181.45l-.1,0c-3.16-1.15-8.2-1.51-24.09-1.73a1.32,1.32,0,0,0-.65.14,1.42,1.42,0,0,0-.41.28h0a.8.8,0,0,0-.15.17,1.42,1.42,0,0,0-.29.87v8.41a1.51,1.51,0,0,0,.29.9,1.24,1.24,0,0,0,.18.22,1.59,1.59,0,0,0,1.09.44h0l24-.57h.29v-9Zm-.39,8.53-23.71.56a1,1,0,0,1-.72-.28,1,1,0,0,1-.29-.7v-8.41a.89.89,0,0,1,.9-.9h0c15.48.22,20.74.58,23.81,1.67Z" transform="translate(44.17)"/><path class="cls-14" d="M250.51,199.23h-6.87A3.34,3.34,0,0,1,241,198l-2.6-3.3a.48.48,0,0,1,.37-.77h10.89l.5,3.18Z" transform="translate(44.17)"/><rect class="cls-9" x="163.95" y="198.09" width="36.83" height="0.29" transform="translate(26.16 378.24) rotate(-89.32)"/><rect class="cls-9" x="135.72" y="216.81" width="71.05" height="0.29" transform="translate(39.88 3.46) rotate(-1.14)"/><path class="cls-20" d="M178.2,198.53c0,.39-1.74.7-3.88.7s-3.88-.31-3.88-.7,1.74-.71,3.88-.71S178.2,198.14,178.2,198.53Z" transform="translate(44.17)"/><path class="cls-20" d="M214.35,198.53c0,.39-1.74.7-3.88.7s-3.89-.31-3.89-.7,1.74-.71,3.89-.71S214.35,198.14,214.35,198.53Z" transform="translate(44.17)"/><path class="cls-9" d="M204,216.26h-.29a15.69,15.69,0,0,1,3.22-9.17,15.29,15.29,0,0,1,6.25-4.52,23.78,23.78,0,0,1,8.64-1.65V190h.29v11.25H222a23,23,0,0,0-8.68,1.62,14.92,14.92,0,0,0-6.12,4.43A15.31,15.31,0,0,0,204,216.26Z" transform="translate(44.17)"/><path class="cls-9" d="M144.39,217.48a154.61,154.61,0,0,1,.88-19.91,48.34,48.34,0,0,1,1-6.13l.28.08c0,.07-2.13,7.83-1.91,26Z" transform="translate(44.17)"/><rect class="cls-9" x="223.91" y="179.82" width="5.62" height="0.29"/><rect class="cls-20" x="195.23" y="189.07" width="9.12" height="4.78" rx="1.25"/><rect class="cls-28" x="178.78" y="203.14" width="2.12" height="2.13" transform="translate(403.85 408.41) rotate(180)"/><rect class="cls-28" x="176.67" y="201.04" width="2.12" height="2.13" transform="translate(399.62 404.2) rotate(180)"/><rect class="cls-28" x="174.54" y="203.14" width="2.12" height="2.13" transform="translate(395.36 408.41) rotate(180)"/><rect class="cls-28" x="172.42" y="201.04" width="2.12" height="2.13" transform="translate(391.13 404.2) rotate(180)"/><rect class="cls-28" x="170.25" y="203.14" width="2.12" height="2.13" transform="translate(386.78 408.41) rotate(180)"/><rect class="cls-28" x="168.13" y="201.04" width="2.12" height="2.13" transform="translate(382.55 404.2) rotate(180)"/><rect class="cls-28" x="166" y="203.14" width="2.12" height="2.13" transform="translate(378.29 408.41) rotate(180)"/><rect class="cls-28" x="163.89" y="201.04" width="2.12" height="2.13" transform="translate(374.06 404.2) rotate(180)"/><rect class="cls-28" x="161.78" y="203.14" width="2.12" height="2.13" transform="translate(369.85 408.41) rotate(180)"/><rect class="cls-28" x="159.66" y="201.04" width="2.12" height="2.13" transform="translate(365.61 404.2) rotate(180)"/><rect class="cls-28" x="157.54" y="203.14" width="2.12" height="2.13" transform="translate(361.36 408.41) rotate(180)"/><rect class="cls-28" x="155.42" y="201.04" width="2.12" height="2.13" transform="translate(357.12 404.2) rotate(180)"/><rect class="cls-28" x="153.25" y="203.14" width="2.12" height="2.13" transform="translate(352.78 408.41) rotate(180)"/><rect class="cls-28" x="151.13" y="201.04" width="2.12" height="2.13" transform="translate(348.54 404.2) rotate(180)"/><rect class="cls-28" x="149" y="203.14" width="2.12" height="2.13" transform="translate(344.29 408.41) rotate(180)"/><rect class="cls-28" x="146.88" y="201.04" width="2.12" height="2.13" transform="translate(340.05 404.2) rotate(180)"/><rect class="cls-28" x="205.7" y="201.04" width="2.12" height="2.13" transform="translate(457.68 404.2) rotate(180)"/><rect class="cls-28" x="203.57" y="203.14" width="2.12" height="2.13" transform="translate(453.42 408.41) rotate(180)"/><rect class="cls-28" x="201.45" y="201.04" width="2.12" height="2.13" transform="translate(449.19 404.2) rotate(180)"/><rect class="cls-28" x="199.35" y="203.14" width="2.12" height="2.13" transform="translate(444.98 408.41) rotate(180)"/><rect class="cls-28" x="197.23" y="201.04" width="2.12" height="2.13" transform="translate(440.74 404.2) rotate(180)"/><rect class="cls-28" x="195.1" y="203.14" width="2.12" height="2.13" transform="translate(436.49 408.41) rotate(180)"/><rect class="cls-28" x="192.98" y="201.04" width="2.12" height="2.13" transform="translate(432.25 404.2) rotate(180)"/><rect class="cls-28" x="190.81" y="203.14" width="2.12" height="2.13" transform="translate(427.9 408.41) rotate(180)"/><rect class="cls-28" x="188.69" y="201.04" width="2.12" height="2.13" transform="translate(423.67 404.2) rotate(180)"/><rect class="cls-28" x="186.56" y="203.14" width="2.12" height="2.13" transform="translate(419.41 408.41) rotate(180)"/><rect class="cls-28" x="184.45" y="201.04" width="2.12" height="2.13" transform="translate(415.18 404.2) rotate(180)"/><path class="cls-32" d="M264.8,226.74s.17,1.92-.24,2.12l-5.19,0s0-.59.84-.73,2.3-.62,2.54-1.71S264.8,226.74,264.8,226.74Z" transform="translate(44.17)"/><path class="cls-32" d="M279.86,226.74s.17,1.92-.24,2.12l-5.19,0s0-.59.84-.73,2.29-.62,2.54-1.71S279.86,226.74,279.86,226.74Z" transform="translate(44.17)"/><path class="cls-15" d="M262.35,226.66a4.92,4.92,0,0,0,2.88.44,61.86,61.86,0,0,0,3.35-10.75l.06-.29c.29-1.45.65-3.29,1-5.25.66-3.46,1.38-7.29,1.88-10,.4-2.13.66-3.57.66-3.57l-3.15-.2-4.2-.28-1.14-.08s-.18,3.81-.41,8.37C263,211.26,262.35,226.66,262.35,226.66Z" transform="translate(44.17)"/><path class="cls-33" d="M267.28,198.83l2.39,12c.66-3.46,1.38-7.29,1.88-10-.72-1.1-1.65-2.51-2.49-3.77l-4.2-.28C264.4,197.61,267.28,198.83,267.28,198.83Z" transform="translate(44.17)"/><path class="cls-15" d="M265.4,194.64,277.09,227s2.08.36,2.94-.25c0,0-.3-13.12-2.24-16.48-1.1-1.9-1.45-5.31-1.73-9-.27-3.52-.8-6.8-.8-6.8Z" transform="translate(44.17)"/><path class="cls-16" d="M266.79,180.06a3.15,3.15,0,0,0,2.15.09,4.31,4.31,0,0,0,1.39-.75,4,4,0,0,0,.54-.49l-.08-.1a6.26,6.26,0,0,1-1-3.89,1.51,1.51,0,0,0-.53.14c-1,.32-2.87,1.06-3,1.1h0s0,.46,0,1.3V178A6.94,6.94,0,0,0,266.79,180.06Z" transform="translate(44.17)"/><path class="cls-21" d="M266.34,177.23c3-.38,3.48-1.94,3.48-1.94a2.24,2.24,0,0,0-.53-.23c-1,.32-2.87,1.06-3,1.1h0S266.35,176.4,266.34,177.23Z" transform="translate(44.17)"/><path class="cls-16" d="M263.49,168.28s.49-.92,1.05-1,1.63-.09,1.67.15-1.45.87-1.55,1.13c-.15.41-.8.47-.8.47Z" transform="translate(44.17)"/><path class="cls-16" d="M265.72,176.09a7.82,7.82,0,0,0,1.39.2c1.14,0,2.6-.18,2.94-1.58.57-2.36,1.43-3.82-.95-4.54a3.68,3.68,0,0,0-2.58-.09,1.82,1.82,0,0,0-.86.9C265.28,171.72,264.75,175.78,265.72,176.09Z" transform="translate(44.17)"/><path class="cls-15" d="M263.87,171.33c1.41.83,3.17-.28,3.76-.08s.79,1.15.82,1.45.11.56.86.3a.36.36,0,0,1,.29,0c.34.16,0,1.12-.09,1.33,0,0-.12.68.31,1,.05,0,.86.31,2.46-2.73a2.68,2.68,0,0,0-.1-2.46c-.55-.93-2.54-1.7-4.19-2a2.19,2.19,0,0,0-1.41.08,2.59,2.59,0,0,0-1.08,1.43A5.08,5.08,0,0,1,263.87,171.33Z" transform="translate(44.17)"/><path class="cls-13" d="M262.33,183.57c6,4.62,4.09-5.06,4.09-5.06a13.09,13.09,0,0,0-2.83-.67c-.66.06-1.31-1.72-3.68-4.58h0l4-4.17s-.31-1.1-.55-1a15.51,15.51,0,0,0-1.71.74c-1.93.94-4.67,2.55-5.13,3.9C256.56,172.71,257.09,179.51,262.33,183.57Z" transform="translate(44.17)"/><path class="cls-34" d="M265.66,168.71h0Z" transform="translate(44.17)"/><path class="cls-13" d="M263.62,198.83a32.35,32.35,0,0,0,7.55.49,15.87,15.87,0,0,0,2.41-.49c.8-.21,1.43-.41,1.43-.41.68-.22,1.41-.73,1.24-1.51-.54-2.38-.93-8.72-1.46-12.66a2.13,2.13,0,0,1,.36-1.35h0a1.38,1.38,0,0,1,.27-.27,18.26,18.26,0,0,0,4.8-9.4c.12-.61.16-1,.16-1h0c-.6-1.88-5.56-4.35-6.74-4.77a.12.12,0,0,0-.12,0h0l0,.05-.07-.11a1.74,1.74,0,0,0-.9-.81c-.55-.11-1.63-.12-1.67.12s1.44.9,1.52,1.16.56.45.73.48h0l0,.08h0l4,4.25c-2.43,2.81-3.11,4.59-3.77,4.51a12.9,12.9,0,0,0-2.84.61h-.15s-2.11,1.46-3.85.68l0,0c-.4.1-3.23.84-3.85,1.64a10.2,10.2,0,0,0,0,3.53c.18,2.37.52,5.06.52,5.06C263.1,191.36,261.69,198.13,263.62,198.83Z" transform="translate(44.17)"/><path class="cls-16" d="M272.36,167.91c.12.33.56.45.73.48a2,2,0,0,1,.43-.89l0,.05-.07-.11a1.74,1.74,0,0,0-.9-.81c-.55-.11-1.63-.12-1.67.12S272.28,167.65,272.36,167.91Z" transform="translate(44.17)"/><path class="cls-35" d="M273.58,198.83c.8-.21,1.43-.41,1.43-.41.68-.22,1.41-.73,1.24-1.51-.54-2.38-.93-8.72-1.46-12.66a2.13,2.13,0,0,1,.36-1.35c-.7.75-2.61,3-2.92,5.18S272.85,196.48,273.58,198.83Z" transform="translate(44.17)"/><path class="cls-8" d="M358.64,210.64A59.66,59.66,0,0,1,336.18,225a88.88,88.88,0,0,1-15.93,4.23,484,484,0,0,1-58.91,6.26c-53.32,2.67-105-1.13-161.19,5.78C23.6,250.64-16.63,243.71-31,214.67a44.53,44.53,0,0,1-2.66-4Z" transform="translate(44.17)"/><path class="cls-36" d="M-13.86,214.71s1.69-12.73,12.36-15,14,1.72,20.54,3.74,15.57-.6,21.69,6.25,4.38,8.22,4.38,8.22h-59Z" transform="translate(44.17)"/><path class="cls-36" d="M4.58,202.1s6.16-11.28,9.61-9.58S4.58,202.1,4.58,202.1Z" transform="translate(44.17)"/><path class="cls-36" d="M-.3,201S0,194.36,3,193.69,1.37,201,1.37,201Z" transform="translate(44.17)"/><path class="cls-36" d="M31.79,207.27s1.35-8.88,3.64-8S31.79,207.27,31.79,207.27Z" transform="translate(44.17)"/><path class="cls-36" d="M336.18,225a88.88,88.88,0,0,1-15.93,4.23,484,484,0,0,1-58.91,6.26,32.73,32.73,0,0,1,7.56-9.25,19.87,19.87,0,0,1,11-4.61c14.3-1.19,18.41-12.45,39.65-5.49a76.1,76.1,0,0,1,7.44,2.85C331.68,221.08,334.49,223.16,336.18,225Z" transform="translate(44.17)"/><path class="cls-36" d="M310.38,217s-1.14-12-3.78-11.64S310.38,217,310.38,217Z" transform="translate(44.17)"/><path class="cls-36" d="M306.6,214.9s-3-6.11-6.23-5.19S306.6,214.9,306.6,214.9Z" transform="translate(44.17)"/><path class="cls-36" d="M272.72,225.94s-4.85-6.16-6.85-5.06S272.72,225.94,272.72,225.94Z" transform="translate(44.17)"/><path class="cls-37" d="M97.34,210.37s160-2.73,162,0-14.13,4.5-28.42,3-26.66-3-29.72-2.58,18.43,1.79,15.81,3.79-32.32-3.39-40.8-3.59-1.54,1-7.05,2.89-40.17-2.28-44.57-1.74,1.57,2-1.72,2.14-15.66-2.18-19-2.14S95.86,210.85,97.34,210.37Z" transform="translate(44.17)"/><path class="cls-37" d="M263.18,210.51s10.77-.27,12.76-.53,10.9-1,9.51,0-6.05.46-4.65,1.46-1.47.8-6.58.47S260.06,211.31,263.18,210.51Z" transform="translate(44.17)"/><path class="cls-37" d="M292.83,178.19s61.81-1.92,61-.59-12.09,1.26-11.16,2.36,8.37,3.45-.4,2.94-25-3.45-26.9-3.14,8.89,1.67,4,2.49-15.69-2.54-20.47-2.49-9.34-.43-8.94-1.07S292.17,178.21,292.83,178.19Z" transform="translate(44.17)"/><path class="cls-37" d="M18,178.19s61.81-1.92,61-.59S67,178.86,67.88,180s8.37,3.45-.4,2.94-25-3.45-26.91-3.14,8.89,1.67,4,2.49-15.69-2.54-20.48-2.49-9.33-.43-8.94-1.07S17.36,178.21,18,178.19Z" transform="translate(44.17)"/><path class="cls-37" d="M236.16,178.19s19.05-.71,19.79,0-5.39.37-4.12.91,4.29,2.08-.4,1.47-7.65-1.81-9.14-1.47,4.86,1.2,1.88,1.72S232.17,178.32,236.16,178.19Z" transform="translate(44.17)"/><path class="cls-37" d="M124.18,178.08s21.82-.71,22.67,0-6.18.36-4.72.91,4.91,2.08-.46,1.46-8.76-1.81-10.47-1.46,5.56,1.2,2.16,1.72S119.61,178.21,124.18,178.08Z" transform="translate(44.17)"/><path class="cls-37" d="M212,177.81s13.91-.71,14.45,0-3.94.36-3,.91,3.13,2.08-.29,1.46-5.59-1.81-6.68-1.46,3.55,1.19,1.38,1.72S209,177.94,212,177.81Z" transform="translate(44.17)"/><path class="cls-37" d="M-13.86,217.88c1.63-.91,77.24-2.39,75.84-.4s-23.46.67-18.81,2.8,3,3.11-13.7,1S5.56,218,9.68,220.81s-.94,3.38-10,.49S-17.19,219.74-13.86,217.88Z" transform="translate(44.17)"/><path class="cls-37" d="M69.87,227.61c1.63-.91,77.24-2.39,75.85-.4s-23.46.67-18.81,2.8,3,3.11-13.71,1-23.9-3.28-19.79-.49-.93,3.38-10,.49S66.54,229.47,69.87,227.61Z" transform="translate(44.17)"/><path class="cls-37" d="M54.39,210c.56-.31,26.22-.81,25.74-.13s-8,.22-6.38.94,1,1.06-4.65.35S61,210,62.38,211s-.32,1.15-3.38.17S53.26,210.6,54.39,210Z" transform="translate(44.17)"/><path class="cls-38" d="M345,208.79l-.08.18c-.45,1.14-.89,2.2-1.27,3.14-.87,0-1.85-.1-2.93-.17l-2.05-.13-2.17-.13a6.49,6.49,0,0,1-.1-1.36c0-.3,0-.58,0-.85a10.25,10.25,0,0,1,1.13-4.54,4.24,4.24,0,0,0,.78-2.17c0-1.4-.64-4.22.59-7.07a9.08,9.08,0,0,1,2.41-3.24c4.21-3.7,7.71-2.4,9.11-1C351.37,192.36,347.78,201.88,345,208.79Z" transform="translate(44.17)"/><path class="cls-31" d="M345.48,212.17l-1.81-.06c-.87,0-1.85-.1-2.93-.17-.33-.76-.73-1.66-1.17-2.63-.6-1.34-1.27-2.84-2-4.38-.48-1-1-2.09-1.46-3.13l-.2-.43c-.22-.46-.43-.91-.65-1.36v0a77.4,77.4,0,0,0-3.75-7.1l1.84.89-1.71-6.15,3.42,3.45.68-.92s1.44,2.32,3.21,5.53a72.62,72.62,0,0,1,5.93,13.11.84.84,0,0,1,.05.17A12.34,12.34,0,0,1,345.48,212.17Z" transform="translate(44.17)"/><path class="cls-31" d="M321.2,195.72s7.13,4.77,14.93,6.08l-.86-1.81a28.13,28.13,0,0,1-11.69-3.37Z" transform="translate(44.17)"/><path class="cls-38" d="M325.71,196.84a7.19,7.19,0,0,1-1.62,2.48c-1.29,1.39-2.81.83-4.45.23s-1.43-3.8.16-4.88a46.06,46.06,0,0,1,5.08-3.09c1.53-.76,5,.48,5.07,2.58s-1.52,2.53-2.53,2.88S325.94,196.31,325.71,196.84Z" transform="translate(44.17)"/><path class="cls-37" d="M354,209.17c-1.91,1.37-8.26.64-6.35,2,1.13.81.21,1-2.2,1l-1.81-.06c-.87,0-1.85-.1-2.93-.17l-2.05-.13-2.17-.13c-7.06-.41-16.76-.8-12.9-1.78,0,0,7.56-.19,12.84-.43,1.19-.05,2.27-.11,3.11-.16.64-.05,1.15-.09,1.48-.14.74-.1,2.18-.24,3.84-.37H345C349.46,208.44,355.41,208.19,354,209.17Z" transform="translate(44.17)"/><path class="cls-39" d="M293,192.52a3.45,3.45,0,0,1-.73.23,2,2,0,0,0-1.41,1.25,7,7,0,0,0-.1.8,2.55,2.55,0,0,1-.9,1.6c-.19.16-.4.29-.58.45a1.51,1.51,0,0,0-.5.91,1,1,0,0,0,.4.93c.36.24.86.18,1.21.43.17.12.29.3.45.43a1.1,1.1,0,0,0,1.13.15,1.26,1.26,0,0,0,.72-.91c.1-.5-.09-1,.06-1.53.27-.9,1.52-1.21,1.82-2.1a2.92,2.92,0,0,0-.1-1.49,1.61,1.61,0,0,1,.19-1.44,4,4,0,0,0-.71-.43C293.36,191.5,293.47,192.28,293,192.52Z" transform="translate(44.17)"/><path class="cls-40" d="M295,192l-.29.61s-1.22-.23-1.42-.67l.29-.61A1.88,1.88,0,0,1,295,192Z" transform="translate(44.17)"/><path class="cls-15" d="M99.74,193.92a1.27,1.27,0,0,0-1.56-.9l-12.82,3.36-.48-1.8a1.38,1.38,0,0,0-1.67-1l-6.51,1.72a1.42,1.42,0,0,0-1,1.73l.46,1.78-5.87,1.54L66,201.51A14.8,14.8,0,0,1,70.63,203l3.05-.81c-.26-.61.31-.68,1.68-.44l7-1.85,17.26-4.55a.45.45,0,0,0,.33-.55Zm-22.52,4.62-.22-.88a1.14,1.14,0,0,1,.8-1.39l5.14-1.34a.81.81,0,0,1,1,.6l.31,1.14Z" transform="translate(44.17)"/><path class="cls-37" d="M85.38,202.39c1.59,1.38,1,2-4.64.65-2.37-.57-4.2-1-5.38-1.25-1.37-.24-1.94-.17-1.68.44a4.16,4.16,0,0,0,.33.51c1.41,1.8-.3,2.17-3.38.3A14.8,14.8,0,0,0,66,201.51h0c-.29-.14-.29-.31.06-.69a21.44,21.44,0,0,1,4.25-.46c3.27-.2,8-.37,12.11-.42,5.19-.06,9.57.07,9.37.62C91.3,201.86,83.8,201,85.38,202.39Z" transform="translate(44.17)"/><path class="cls-8" d="M284.37,197.6c.27-.09,4.95-2.81,9.89-1s7,1,7,1l-5.57,7.22-13.12-1Z" transform="translate(44.17)"/></g></g></g></svg>