<svg xmlns="http://www.w3.org/2000/svg" viewBox="0 0 173.22 111.97"><defs><style>.cls-1{opacity:0.3;}.cls-2{fill:#fff;}.cls-3{fill:#a4a6a9;}.cls-4{fill:#221f20;}.cls-5{stroke:#000;stroke-miterlimit:10;stroke-width:0.24px;}</style></defs><g id="Capa_2" data-name="Capa 2"><g id="Capa_1-2" data-name="Capa 1"><path class="cls-1" d="M3.88,15.4c7.56-10.34,25.2-6.69,38.68-6.71,2.42,0,4.89-.13,7.41-.22,17.66-.69,37.52-2.34,53.9-1.13a96.21,96.21,0,0,1,11,1.4c32.51,10,21,45.51,19.09,64.22,4.87,5.43,14.28,12.17,31.6,13.76,0,0-17.41,1.25-30.89,5.18-.61,7-3.69,13.41-15.32,17.85a41.05,41.05,0,0,1-9.27,1c-3.43.11-6.78.11-10.08.07s-6.56-.16-9.81-.27a250.35,250.35,0,0,0-29,0c-2.42.1-4.83.21-7.25.3-16-.38-37.62,5.82-46.44-7.26C-3.7,87.75,3.52,68.48.85,50.85.58,48.91.32,47,.16,45.08-.32,39.38.1,20.26,3.88,15.4Z"/><path class="cls-2" d="M8.94,9.31C16.5-1,34.15,2.62,47.63,2.6c2.41,0,4.89-.12,7.41-.22C72.69,1.7,92.56,0,108.93,1.25a94.43,94.43,0,0,1,11,1.41c28.54,8.75,23.12,40.33,20.1,57.25-.89,5,1.48,10,6.19,13,5.49,3.54,13.33,6.66,24.4,7.67a195,195,0,0,0-24.42,3.55,9.55,9.55,0,0,0-7.32,6.21c-1.57,5.17-5.45,9.83-14.47,13.27a40.55,40.55,0,0,1-9.27,1c-3.44.11-6.78.12-10.08.07s-6.56-.15-9.82-.27a250.19,250.19,0,0,0-29,0l-7.25.29c-16-.37-37.63,5.82-46.45-7.25C1.36,81.66,8.58,62.4,5.92,44.77c-.27-1.94-.53-3.87-.69-5.77C4.74,33.29,5.16,14.18,8.94,9.31Z"/><path class="cls-3" d="M140.5,65.75A12.36,12.36,0,0,1,137.06,55c1.73-9.74,4.25-33.46.64-41.93,7.68,9.31,4.45,35.16,2.36,46.87A11.9,11.9,0,0,0,140.5,65.75Z"/><path class="cls-3" d="M56,99.81c2.42-.09,4.83-.2,7.25-.3a250.35,250.35,0,0,1,29,0c3.25.11,6.51.21,9.81.26s6.65.05,10.08-.06a41,41,0,0,0,9.27-1c9-3.44,12.91-8.09,14.47-13.26a9.56,9.56,0,0,1,7.32-6.22c3.95-.87,7.93-1.55,11.52-2.07a61.76,61.76,0,0,0,15.91,3.46,195,195,0,0,0-24.42,3.55,9.55,9.55,0,0,0-7.32,6.21c-1.57,5.17-5.45,9.83-14.47,13.27a40.55,40.55,0,0,1-9.27,1c-3.44.11-6.78.12-10.08.07s-6.56-.15-9.82-.27a250.19,250.19,0,0,0-29,0l-7.25.29c-16-.37-37.63,5.82-46.45-7.25A32.19,32.19,0,0,1,9.94,93C19,105.46,40.26,99.44,56,99.81Z"/><path class="cls-4" d="M11.77,97.92C4.31,87.4,4.84,75.29,5.34,63.58,5.61,57.38,5.89,51,5,44.87c-.28-2-.54-3.92-.7-5.81C3.83,33.9,4,14.26,8.14,8.87,14.46.24,27.51.9,39,1.49c3,.15,5.88.29,8.58.29,2.24,0,4.66-.12,7.39-.22,4.26-.17,8.75-.39,13.09-.61C82.07.24,96.53-.49,109,.43a97.44,97.44,0,0,1,11.16,1.42l.11,0c27.46,8.42,24.34,38.75,21.33,54.89-.2,1.09-.41,2.18-.6,3.26-.84,4.72,1.39,9.42,5.82,12.27,6.38,4.12,12.5,6.44,22,7.31l4.4.5c-.13,0-14.78,2.59-26.55,5.19-3.26.72-6,2.55-6.83,5.3-1.89,6.24-6.66,10.62-15,13.81l-.15,0a42.22,42.22,0,0,1-9.48,1c-3.14.1-6.45.13-10.13.07-3.4,0-6.72-.16-9.88-.27-9.28-.69-18.55-.39-28.85,0l-1.56.06-5.77.24c-4-.1-8.21.21-12.72.54-4.07.3-8.18.6-12.13.6C24.93,106.71,16.6,105.07,11.77,97.92Zm47.22,6,5.7-.23,1.55-.06c10.37-.44,19.72-.74,29.07,0,3.1.11,6.42.22,9.79.27,3.65,0,6.93,0,10.08-.07a39.69,39.69,0,0,0,8.94-.91c7.73-3,12.13-7,13.86-12.69a10.47,10.47,0,0,1,8-6.81c6.39-1.41,13-2.33,17.69-2.89a50.18,50.18,0,0,1-18-6.87c-5-3.22-7.51-8.52-6.57-13.84.2-1.09.4-2.18.61-3.27,3-16.18,5.86-45.1-20-53.06a94.94,94.94,0,0,0-10.84-1.38c-12.35-.91-26.73-.18-40.64.52-4.35.22-8.85.45-13.13.61-2.74.11-5.17.18-7.45.23-2.78,0-5.67-.15-8.72-.3C27.39,2.54,15.47,1.94,9.76,9.75l0,0c-3.87,5-4,24.29-3.56,29.17.16,1.85.42,3.77.69,5.72.94,6.22.66,12.71.39,19-.52,12-1,23.33,6.16,33.44,6.3,9.33,19.73,8.35,32.71,7.4,4-.3,7.79-.58,11.35-.58Z"/><path class="cls-5" d="M20.9,36.41a5.42,5.42,0,0,1-.23,1.68,3.48,3.48,0,0,1-.7,1.27,3.2,3.2,0,0,1-1.14.79,4.29,4.29,0,0,1-1.58.27,4.75,4.75,0,0,1-1.54-.23,2.69,2.69,0,0,1-1.1-.71,3.16,3.16,0,0,1-.66-1.2,6.35,6.35,0,0,1-.22-1.74A5.3,5.3,0,0,1,14,34.89a3.37,3.37,0,0,1,.69-1.25,3,3,0,0,1,1.15-.79,4.25,4.25,0,0,1,1.58-.28,4.67,4.67,0,0,1,1.52.23,2.67,2.67,0,0,1,1.1.7,3,3,0,0,1,.67,1.2A5.77,5.77,0,0,1,20.9,36.41Zm-1.61.08a5.25,5.25,0,0,0-.1-1.09,2.28,2.28,0,0,0-.31-.83,1.49,1.49,0,0,0-.6-.54,2,2,0,0,0-.94-.19,1.94,1.94,0,0,0-.95.21,1.67,1.67,0,0,0-.61.57,2.24,2.24,0,0,0-.33.84,4.68,4.68,0,0,0-.1,1,6.23,6.23,0,0,0,.09,1.11,2.39,2.39,0,0,0,.32.85,1.47,1.47,0,0,0,.6.53,2,2,0,0,0,.94.19,2,2,0,0,0,.95-.21,1.69,1.69,0,0,0,.61-.58,2.24,2.24,0,0,0,.33-.84A4.87,4.87,0,0,0,19.29,36.49Z"/><path class="cls-5" d="M25.14,40.28l-.64,1.85a.36.36,0,0,1-.28.21,2.47,2.47,0,0,1-.69.07l-.37,0a.56.56,0,0,1-.21-.07.14.14,0,0,1-.08-.12.67.67,0,0,1,0-.17l.7-1.75a.45.45,0,0,1-.14-.11.46.46,0,0,1-.09-.15l-1.79-4.8a1.07,1.07,0,0,1-.08-.31.19.19,0,0,1,.07-.17.55.55,0,0,1,.24-.09l.44,0h.4a.73.73,0,0,1,.23,0,.25.25,0,0,1,.12.11,1.17,1.17,0,0,1,.08.21l1.23,3.49h0l1.12-3.56c0-.1.05-.17.09-.2a.37.37,0,0,1,.19-.08l.45,0,.42,0a.55.55,0,0,1,.24.09.21.21,0,0,1,.08.17.91.91,0,0,1-.05.26Z"/><path class="cls-5" d="M32.48,37.32a.58.58,0,0,1-.12.4.48.48,0,0,1-.34.13H28.85a1.9,1.9,0,0,0,.08.6,1.07,1.07,0,0,0,.25.47,1.17,1.17,0,0,0,.44.29,2.06,2.06,0,0,0,.65.1,3.37,3.37,0,0,0,.68-.06l.51-.12.35-.13A.87.87,0,0,1,32,39s.07,0,.09,0a.22.22,0,0,1,.06.07s0,.09,0,.15a1.77,1.77,0,0,1,0,.24,1.41,1.41,0,0,1,0,.22c0,.06,0,.12,0,.16a.36.36,0,0,1,0,.11l-.06.08a.63.63,0,0,1-.21.11,2.41,2.41,0,0,1-.43.14c-.18,0-.38.08-.6.12a5.58,5.58,0,0,1-.73.05,3.78,3.78,0,0,1-1.22-.18,2.23,2.23,0,0,1-.88-.53,2.35,2.35,0,0,1-.52-.9,4.66,4.66,0,0,1,0-2.53,2.58,2.58,0,0,1,.53-1,2.31,2.31,0,0,1,.84-.6,3,3,0,0,1,1.11-.2,2.88,2.88,0,0,1,1.12.19,2.06,2.06,0,0,1,.77.54,2.25,2.25,0,0,1,.43.81,3.31,3.31,0,0,1,.15,1Zm-1.43-.42a1.49,1.49,0,0,0-.25-1,1,1,0,0,0-.82-.36,1.07,1.07,0,0,0-.49.11,1,1,0,0,0-.35.28,1.38,1.38,0,0,0-.21.42,1.77,1.77,0,0,0-.08.52Z"/><path class="cls-5" d="M36.15,39.09a2.65,2.65,0,0,1,.13-.87,1.94,1.94,0,0,1,.39-.67,2,2,0,0,1,.6-.45,2.3,2.3,0,0,1,.77-.21l0-1.14c0-.07.06-.13.17-.16a1.42,1.42,0,0,1,.46-.05H39a.87.87,0,0,1,.21,0,.2.2,0,0,1,.11.06.18.18,0,0,1,0,.11l.05,1.38a.92.92,0,0,1,0,.3.37.37,0,0,1-.08.19.29.29,0,0,1-.16.1l-.22,0h-.08a1.44,1.44,0,0,0-.54.1,1.14,1.14,0,0,0-.37.27.94.94,0,0,0-.21.38,1.49,1.49,0,0,0-.07.47,1.72,1.72,0,0,0,.08.52,1,1,0,0,0,.24.4,1,1,0,0,0,.4.26,1.72,1.72,0,0,0,.58.1,2.06,2.06,0,0,0,.52-.06,3.54,3.54,0,0,0,.39-.13l.28-.13a.35.35,0,0,1,.16-.06.11.11,0,0,1,.08,0,.23.23,0,0,1,.06.09c0,.05,0,.12,0,.2a3.22,3.22,0,0,1,0,.33,1.9,1.9,0,0,1,0,.3.26.26,0,0,1-.07.15.84.84,0,0,1-.23.14,2.49,2.49,0,0,1-.39.14,3.19,3.19,0,0,1-.51.12,3.58,3.58,0,0,1-.58,0,3.39,3.39,0,0,1-1.18-.19,2.22,2.22,0,0,1-.81-.52,2,2,0,0,1-.46-.73A2.58,2.58,0,0,1,36.15,39.09Zm1.73-5a1.54,1.54,0,0,1,0-.4.49.49,0,0,1,.13-.26.51.51,0,0,1,.26-.15,1.46,1.46,0,0,1,.39,0,1.58,1.58,0,0,1,.41,0,.53.53,0,0,1,.25.15.5.5,0,0,1,.14.26,2.25,2.25,0,0,1,0,.4,2.5,2.5,0,0,1,0,.42.5.5,0,0,1-.14.26.53.53,0,0,1-.25.15,1.58,1.58,0,0,1-.41,0,1.46,1.46,0,0,1-.39,0,.51.51,0,0,1-.26-.15.49.49,0,0,1-.13-.26A1.71,1.71,0,0,1,37.88,34.07Z"/><path class="cls-5" d="M44.44,37.41v2.66a.2.2,0,0,1,0,.11.32.32,0,0,1-.13.07,1.11,1.11,0,0,1-.24,0l-.37,0-.37,0a1.11,1.11,0,0,1-.24,0,.32.32,0,0,1-.13-.07.2.2,0,0,1,0-.11V37.41l-2.07-4.13a2.07,2.07,0,0,1-.15-.33.18.18,0,0,1,0-.19.44.44,0,0,1,.25-.07l.5,0,.43,0a.89.89,0,0,1,.26,0,.32.32,0,0,1,.13.08.85.85,0,0,1,.09.14l.84,1.86q.12.27.24.57c.08.2.17.41.25.62h0c.07-.21.15-.41.23-.61s.15-.39.23-.57L45,33a.52.52,0,0,1,.07-.15.48.48,0,0,1,.13-.09.75.75,0,0,1,.24,0l.41,0,.51,0a.41.41,0,0,1,.25.07.18.18,0,0,1,0,.19,3.13,3.13,0,0,1-.14.33Z"/><path class="cls-5" d="M55.06,37.32a.58.58,0,0,1-.12.4.45.45,0,0,1-.33.13H51.43a1.9,1.9,0,0,0,.08.6,1.07,1.07,0,0,0,.25.47,1.17,1.17,0,0,0,.44.29,2.08,2.08,0,0,0,.66.1,3.33,3.33,0,0,0,.67-.06l.51-.12L54.4,39a.74.74,0,0,1,.22,0s.07,0,.09,0a.22.22,0,0,1,.06.07.57.57,0,0,1,0,.15,1.77,1.77,0,0,1,0,.24,1.41,1.41,0,0,1,0,.22c0,.06,0,.12,0,.16a.36.36,0,0,1,0,.11.21.21,0,0,1-.06.08.54.54,0,0,1-.21.11,2.17,2.17,0,0,1-.43.14c-.18,0-.38.08-.6.12a5.58,5.58,0,0,1-.73.05,3.78,3.78,0,0,1-1.22-.18,2.13,2.13,0,0,1-.87-.53,2.24,2.24,0,0,1-.53-.9,4.41,4.41,0,0,1-.17-1.28,4.06,4.06,0,0,1,.18-1.25,2.58,2.58,0,0,1,.53-1,2.31,2.31,0,0,1,.84-.6,3,3,0,0,1,1.11-.2,2.88,2.88,0,0,1,1.12.19,2.06,2.06,0,0,1,.77.54,2.27,2.27,0,0,1,.44.81,3.64,3.64,0,0,1,.14,1Zm-1.43-.42a1.49,1.49,0,0,0-.25-1,1,1,0,0,0-.82-.36,1.07,1.07,0,0,0-.49.11,1,1,0,0,0-.35.28,1.38,1.38,0,0,0-.21.42,2.17,2.17,0,0,0-.08.52Z"/><path class="cls-5" d="M59.94,38.61a1.73,1.73,0,0,1-.16.78,1.64,1.64,0,0,1-.47.57,2.17,2.17,0,0,1-.72.34,3.28,3.28,0,0,1-.91.12,3.43,3.43,0,0,1-.56-.05,3,3,0,0,1-.47-.11,1.69,1.69,0,0,1-.35-.14.63.63,0,0,1-.21-.13.48.48,0,0,1-.1-.19,1.92,1.92,0,0,1,0-.39,2.1,2.1,0,0,1,0-.27c0-.07,0-.12,0-.17a.28.28,0,0,1,.06-.08l.09,0a.45.45,0,0,1,.19.08l.31.16c.13,0,.27.11.44.16a1.94,1.94,0,0,0,.56.08,1.88,1.88,0,0,0,.36,0,1.11,1.11,0,0,0,.27-.12.55.55,0,0,0,.17-.2.53.53,0,0,0,.06-.26.49.49,0,0,0-.11-.31,1.16,1.16,0,0,0-.29-.22,3,3,0,0,0-.4-.17l-.46-.18a4,4,0,0,1-.46-.23,1.81,1.81,0,0,1-.41-.32,1.45,1.45,0,0,1-.29-.45,1.67,1.67,0,0,1-.1-.63,1.58,1.58,0,0,1,.14-.69,1.54,1.54,0,0,1,.42-.53,2,2,0,0,1,.67-.35,3.09,3.09,0,0,1,.89-.12,3.75,3.75,0,0,1,.48,0l.42.09.31.12.19.1.08.09,0,.1a.78.78,0,0,1,0,.16,1.41,1.41,0,0,1,0,.22,1.93,1.93,0,0,1,0,.26.35.35,0,0,1,0,.16.16.16,0,0,1,0,.08l-.08,0a.43.43,0,0,1-.17-.06L59,35.76l-.38-.13a2,2,0,0,0-.5-.06,1.2,1.2,0,0,0-.35,0,.67.67,0,0,0-.24.12.49.49,0,0,0-.14.18.54.54,0,0,0-.05.22.41.41,0,0,0,.12.3,1,1,0,0,0,.29.22,3.17,3.17,0,0,0,.41.17l.47.18a5.08,5.08,0,0,1,.47.23,1.77,1.77,0,0,1,.41.31,1.51,1.51,0,0,1,.29.45A1.46,1.46,0,0,1,59.94,38.61Z"/><path class="cls-5" d="M64,39.57A1.79,1.79,0,0,1,64,40a.48.48,0,0,1-.08.2.74.74,0,0,1-.16.1l-.24.07-.3.05-.32,0a2.44,2.44,0,0,1-.76-.11,1.31,1.31,0,0,1-.53-.34,1.39,1.39,0,0,1-.31-.59,2.9,2.9,0,0,1-.1-.83V35.86h-.63a.2.2,0,0,1-.17-.14,1.23,1.23,0,0,1-.06-.46,2.33,2.33,0,0,1,0-.29.69.69,0,0,1,0-.18.2.2,0,0,1,.07-.1.2.2,0,0,1,.11,0h.62V33.5a.2.2,0,0,1,0-.11.31.31,0,0,1,.12-.08,1,1,0,0,1,.22,0l.36,0,.36,0a1,1,0,0,1,.22,0,.31.31,0,0,1,.12.08.21.21,0,0,1,0,.11v1.16h1.13a.17.17,0,0,1,.1,0,.21.21,0,0,1,.08.1A.69.69,0,0,1,64,35a2.33,2.33,0,0,1,0,.29,1.23,1.23,0,0,1-.06.46.2.2,0,0,1-.17.14H62.64v2.45a1.2,1.2,0,0,0,.13.64.53.53,0,0,0,.48.21.68.68,0,0,0,.21,0l.17,0,.12-.05.09,0,.07,0a.12.12,0,0,1,.05.08s0,.1,0,.17A1.87,1.87,0,0,1,64,39.57Z"/><path class="cls-5" d="M69.75,37.32a.58.58,0,0,1-.12.4.45.45,0,0,1-.33.13H66.12a1.9,1.9,0,0,0,.08.6,1.07,1.07,0,0,0,.25.47,1.17,1.17,0,0,0,.44.29,2.08,2.08,0,0,0,.66.1,3.51,3.51,0,0,0,.68-.06l.5-.12.36-.13a.74.74,0,0,1,.22,0s.07,0,.09,0a.22.22,0,0,1,.06.07.33.33,0,0,1,0,.15,1.77,1.77,0,0,1,0,.24,1.41,1.41,0,0,1,0,.22.76.76,0,0,1,0,.16.36.36,0,0,1,0,.11.21.21,0,0,1-.06.08.46.46,0,0,1-.21.11,2.17,2.17,0,0,1-.43.14c-.18,0-.38.08-.6.12a5.58,5.58,0,0,1-.73.05,3.78,3.78,0,0,1-1.22-.18,2.13,2.13,0,0,1-.87-.53,2.24,2.24,0,0,1-.53-.9,4.41,4.41,0,0,1-.17-1.28,4.06,4.06,0,0,1,.18-1.25,2.58,2.58,0,0,1,.53-1,2.31,2.31,0,0,1,.84-.6,3,3,0,0,1,1.11-.2,2.88,2.88,0,0,1,1.12.19,2.06,2.06,0,0,1,.77.54,2.27,2.27,0,0,1,.44.81,3.64,3.64,0,0,1,.14,1Zm-1.43-.42a1.49,1.49,0,0,0-.25-1,1,1,0,0,0-.82-.36,1.07,1.07,0,0,0-.49.11,1,1,0,0,0-.35.28,1.38,1.38,0,0,0-.21.42,2.17,2.17,0,0,0-.08.52Z"/><path class="cls-5" d="M78.12,40.1a.15.15,0,0,1-.06.13.5.5,0,0,1-.19.07l-.37,0-.38,0a.39.39,0,0,1-.17-.07.17.17,0,0,1,0-.13v-.41a2.24,2.24,0,0,1-.74.53,2.09,2.09,0,0,1-.91.2,2.7,2.7,0,0,1-.77-.11,1.73,1.73,0,0,1-.6-.32,1.46,1.46,0,0,1-.39-.53,1.72,1.72,0,0,1-.14-.74,1.64,1.64,0,0,1,.17-.79,1.45,1.45,0,0,1,.54-.56,2.53,2.53,0,0,1,.88-.32,6.27,6.27,0,0,1,1.22-.11h.51v-.32a1.88,1.88,0,0,0,0-.43.72.72,0,0,0-.16-.3.64.64,0,0,0-.31-.18,1.53,1.53,0,0,0-.47-.06,2.3,2.3,0,0,0-.66.08,3,3,0,0,0-.51.18l-.37.18a.48.48,0,0,1-.24.08.17.17,0,0,1-.12,0A.24.24,0,0,1,73.7,36a.87.87,0,0,1,0-.19,2,2,0,0,1,0-.25,1,1,0,0,1,0-.28.45.45,0,0,1,.11-.19,1.11,1.11,0,0,1,.29-.19,3.69,3.69,0,0,1,.48-.19,4.38,4.38,0,0,1,.6-.15,4.91,4.91,0,0,1,.67,0,4,4,0,0,1,1,.12,1.76,1.76,0,0,1,.72.37,1.42,1.42,0,0,1,.41.64,3.16,3.16,0,0,1,.13.93Zm-1.45-2.23h-.56a2.73,2.73,0,0,0-.61.05,1.1,1.1,0,0,0-.41.16.68.68,0,0,0-.23.25.74.74,0,0,0-.07.34.7.7,0,0,0,.2.52.86.86,0,0,0,.58.19,1.11,1.11,0,0,0,.57-.16,2.45,2.45,0,0,0,.53-.47Z"/><path class="cls-5" d="M84.84,37.4a4.81,4.81,0,0,1-.15,1.25,2.77,2.77,0,0,1-.43,1,1.84,1.84,0,0,1-.72.61,2.16,2.16,0,0,1-1,.21,1.73,1.73,0,0,1-.42-.05,1.63,1.63,0,0,1-.37-.13,2.41,2.41,0,0,1-.36-.23l-.36-.31v2.46a.17.17,0,0,1,0,.1.36.36,0,0,1-.12.08l-.23,0-.36,0-.35,0a1,1,0,0,1-.23,0,.23.23,0,0,1-.12-.08.17.17,0,0,1,0-.1v-7.3a.3.3,0,0,1,0-.1.23.23,0,0,1,.11-.07.74.74,0,0,1,.19,0h.6a.74.74,0,0,1,.19,0,.2.2,0,0,1,.1.07.17.17,0,0,1,0,.1v.62a5.63,5.63,0,0,1,.45-.42,3.79,3.79,0,0,1,.45-.29,2.07,2.07,0,0,1,.47-.18,2.12,2.12,0,0,1,.52-.06,1.93,1.93,0,0,1,1,.22,2,2,0,0,1,.66.62,2.87,2.87,0,0,1,.38.91A5.67,5.67,0,0,1,84.84,37.4Zm-1.53.1a4.48,4.48,0,0,0,0-.64,1.86,1.86,0,0,0-.17-.55,1.08,1.08,0,0,0-.32-.38.84.84,0,0,0-.49-.14,1,1,0,0,0-.29,0,1.53,1.53,0,0,0-.29.14,3.29,3.29,0,0,0-.31.26l-.33.39v1.73a3.36,3.36,0,0,0,.59.6,1,1,0,0,0,.59.21.81.81,0,0,0,.49-.14,1.35,1.35,0,0,0,.33-.38,2.15,2.15,0,0,0,.19-.54A3.05,3.05,0,0,0,83.31,37.5Z"/><path class="cls-5" d="M87.49,40.08a.2.2,0,0,1,0,.11.22.22,0,0,1-.12.07l-.23,0-.35,0-.36,0-.23,0a.35.35,0,0,1-.12-.07.2.2,0,0,1,0-.11V32.39a.2.2,0,0,1,0-.11.36.36,0,0,1,.12-.08l.23-.05h.71a1,1,0,0,1,.23.05.23.23,0,0,1,.12.08.2.2,0,0,1,0,.11Z"/><path class="cls-5" d="M90.55,33.1a.82.82,0,0,1-.18.61,1,1,0,0,1-.68.17,1.07,1.07,0,0,1-.67-.16.84.84,0,0,1-.17-.6.82.82,0,0,1,.18-.61,1,1,0,0,1,.68-.18,1,1,0,0,1,.66.17A.8.8,0,0,1,90.55,33.1Zm-.11,7a.15.15,0,0,1,0,.11.22.22,0,0,1-.12.07,1,1,0,0,1-.22,0l-.36,0-.36,0a1,1,0,0,1-.22,0,.22.22,0,0,1-.12-.07.15.15,0,0,1,0-.11V34.87a.14.14,0,0,1,0-.1.22.22,0,0,1,.12-.07.6.6,0,0,1,.22-.05,3.25,3.25,0,0,1,.72,0,.6.6,0,0,1,.22.05.22.22,0,0,1,.12.07.14.14,0,0,1,0,.1Z"/><path class="cls-5" d="M95.86,39.25a2,2,0,0,1,0,.26c0,.07,0,.12,0,.17a.66.66,0,0,1,0,.11.36.36,0,0,1-.09.12l-.24.16a2.4,2.4,0,0,1-.39.17,4.49,4.49,0,0,1-.47.13,3,3,0,0,1-.52,0A2.76,2.76,0,0,1,93,40.22a2,2,0,0,1-.78-.55,2.45,2.45,0,0,1-.48-.89,4,4,0,0,1-.16-1.21,4.17,4.17,0,0,1,.2-1.35,2.66,2.66,0,0,1,.54-.95,2.23,2.23,0,0,1,.84-.55,3,3,0,0,1,1-.19,2.4,2.4,0,0,1,.46,0,1.85,1.85,0,0,1,.42.11,1.61,1.61,0,0,1,.35.16.69.69,0,0,1,.22.15l.09.11a.23.23,0,0,1,0,.11c0,.05,0,.1,0,.17v.25a1.38,1.38,0,0,1,0,.48c0,.09-.09.14-.16.14a.37.37,0,0,1-.21-.09L95.15,36a3,3,0,0,0-.36-.18,1.52,1.52,0,0,0-.51-.08,1,1,0,0,0-.87.44,2.25,2.25,0,0,0-.31,1.3,3.22,3.22,0,0,0,.08.74,1.49,1.49,0,0,0,.22.54,1,1,0,0,0,.38.32,1.08,1.08,0,0,0,.52.11,1.35,1.35,0,0,0,.52-.09,2.37,2.37,0,0,0,.66-.4.35.35,0,0,1,.19-.09.12.12,0,0,1,.09,0,.19.19,0,0,1,0,.1,1,1,0,0,1,0,.21C95.85,39,95.86,39.12,95.86,39.25Z"/><path class="cls-5" d="M101.3,40.1a.15.15,0,0,1-.06.13.52.52,0,0,1-.18.07l-.37,0-.39,0a.46.46,0,0,1-.17-.07.17.17,0,0,1,0-.13v-.41a2.21,2.21,0,0,1-.73.53,2.14,2.14,0,0,1-.92.2,2.63,2.63,0,0,1-.76-.11,1.73,1.73,0,0,1-.6-.32,1.61,1.61,0,0,1-.4-.53,1.88,1.88,0,0,1-.14-.74,1.65,1.65,0,0,1,.18-.79,1.49,1.49,0,0,1,.53-.56,2.6,2.6,0,0,1,.88-.32,6.31,6.31,0,0,1,1.23-.11h.51v-.32a1.88,1.88,0,0,0,0-.43.74.74,0,0,0-.17-.3.61.61,0,0,0-.3-.18,1.63,1.63,0,0,0-.47-.06,2.21,2.21,0,0,0-.66.08,2.74,2.74,0,0,0-.51.18l-.38.18a.45.45,0,0,1-.24.08.15.15,0,0,1-.11,0,.19.19,0,0,1-.08-.11.53.53,0,0,1,0-.19,1,1,0,0,1,0-.25,1,1,0,0,1,0-.28.37.37,0,0,1,.11-.19,1,1,0,0,1,.29-.19,2.82,2.82,0,0,1,.48-.19,4.38,4.38,0,0,1,.6-.15,4.8,4.8,0,0,1,.67,0,4,4,0,0,1,1,.12,1.66,1.66,0,0,1,.71.37,1.34,1.34,0,0,1,.41.64,2.86,2.86,0,0,1,.13.93Zm-1.44-2.23h-.57a2.64,2.64,0,0,0-.6.05,1,1,0,0,0-.41.16.64.64,0,0,0-.24.25.89.89,0,0,0-.07.34.67.67,0,0,0,.21.52.86.86,0,0,0,.58.19,1.17,1.17,0,0,0,.57-.16,2.45,2.45,0,0,0,.53-.47Z"/><path class="cls-5" d="M107.76,34.66a.37.37,0,0,1,.44.41v5a.15.15,0,0,1,0,.11.22.22,0,0,1-.12.07,1,1,0,0,1-.22,0l-.35,0-.36,0a1,1,0,0,1-.23,0,.35.35,0,0,1-.12-.07.2.2,0,0,1,0-.11V35.86h-2.35v2.45a1.19,1.19,0,0,0,.14.64.53.53,0,0,0,.48.21.75.75,0,0,0,.21,0l.16,0,.13-.05.09,0,.06,0s0,0,0,.08a.61.61,0,0,1,0,.17,2.1,2.1,0,0,1,0,.27,1.92,1.92,0,0,1,0,.39.49.49,0,0,1-.08.19.5.5,0,0,1-.16.11l-.24.07-.3.05-.33,0a2.49,2.49,0,0,1-.76-.11,1.38,1.38,0,0,1-.53-.34,1.51,1.51,0,0,1-.31-.59,2.9,2.9,0,0,1-.1-.83V35.86h-.62a.18.18,0,0,1-.17-.14,1.23,1.23,0,0,1-.06-.46,2.53,2.53,0,0,1,0-.29.65.65,0,0,1,.05-.18.2.2,0,0,1,.07-.1.17.17,0,0,1,.1,0h.62V33.5a.2.2,0,0,1,0-.11.41.41,0,0,1,.12-.08l.23,0,.35,0,.36,0,.23,0,.12.08a.2.2,0,0,1,0,.11v1.16Zm.55-1.56a.82.82,0,0,1-.18.61,1,1,0,0,1-.67.17,1.05,1.05,0,0,1-.67-.16.8.8,0,0,1-.17-.6.82.82,0,0,1,.18-.61.93.93,0,0,1,.67-.18,1,1,0,0,1,.67.17A.8.8,0,0,1,108.31,33.1Z"/><path class="cls-5" d="M114.48,34.86v.07s0,.06,0,.09l0,.11a1.31,1.31,0,0,1,0,.15L112.84,40a.48.48,0,0,1-.08.16.32.32,0,0,1-.16.1,1.8,1.8,0,0,1-.32.05h-.51l-.5,0a1.11,1.11,0,0,1-.31,0,.31.31,0,0,1-.16-.09.6.6,0,0,1-.08-.16l-1.57-4.72c0-.08,0-.15-.05-.21a.5.5,0,0,1,0-.14v-.07a.2.2,0,0,1,0-.11.31.31,0,0,1,.12-.07.87.87,0,0,1,.22,0h.75l.23,0a.36.36,0,0,1,.12.08.67.67,0,0,1,.06.12l1.18,3.83,0,.15,0-.15L113,34.88a.33.33,0,0,1,0-.12.36.36,0,0,1,.12-.08l.22,0h.71a.87.87,0,0,1,.22,0,.29.29,0,0,1,.1.07A.2.2,0,0,1,114.48,34.86Z"/><path class="cls-5" d="M120.52,37.42a3.91,3.91,0,0,1-.18,1.22,2.54,2.54,0,0,1-.53,1,2.39,2.39,0,0,1-.9.61,3.17,3.17,0,0,1-1.25.22,3.47,3.47,0,0,1-1.22-.2,2.07,2.07,0,0,1-.85-.56,2.23,2.23,0,0,1-.5-.91,4.08,4.08,0,0,1-.17-1.22,3.86,3.86,0,0,1,.18-1.22,2.54,2.54,0,0,1,.54-1,2.18,2.18,0,0,1,.89-.61,3.24,3.24,0,0,1,1.25-.22,3.44,3.44,0,0,1,1.22.19,2,2,0,0,1,.85.56,2.25,2.25,0,0,1,.51.91A4.53,4.53,0,0,1,120.52,37.42Zm-1.52.06a3.84,3.84,0,0,0-.06-.71,1.61,1.61,0,0,0-.21-.57.93.93,0,0,0-.39-.37,1.22,1.22,0,0,0-.61-.14,1.26,1.26,0,0,0-.57.12,1,1,0,0,0-.4.35,1.58,1.58,0,0,0-.24.56,3.29,3.29,0,0,0-.08.74,3.84,3.84,0,0,0,.06.71,2.12,2.12,0,0,0,.21.57,1.06,1.06,0,0,0,.39.37,1.25,1.25,0,0,0,.61.13,1.34,1.34,0,0,0,.58-.12,1,1,0,0,0,.4-.35,1.46,1.46,0,0,0,.24-.55A3.32,3.32,0,0,0,119,37.48Z"/><path class="cls-5" d="M128.84,40.1a.15.15,0,0,1-.06.13.52.52,0,0,1-.18.07l-.37,0-.39,0a.46.46,0,0,1-.17-.07.17.17,0,0,1,0-.13v-.41a2.21,2.21,0,0,1-.73.53,2.14,2.14,0,0,1-.92.2,2.63,2.63,0,0,1-.76-.11,1.73,1.73,0,0,1-.6-.32,1.61,1.61,0,0,1-.4-.53,1.88,1.88,0,0,1-.14-.74,1.65,1.65,0,0,1,.18-.79,1.49,1.49,0,0,1,.53-.56,2.6,2.6,0,0,1,.88-.32,6.31,6.31,0,0,1,1.23-.11h.51v-.32a1.88,1.88,0,0,0-.05-.43.74.74,0,0,0-.17-.3.61.61,0,0,0-.3-.18,1.63,1.63,0,0,0-.47-.06,2.21,2.21,0,0,0-.66.08,2.74,2.74,0,0,0-.51.18l-.38.18a.45.45,0,0,1-.24.08.15.15,0,0,1-.11,0,.19.19,0,0,1-.08-.11.53.53,0,0,1-.05-.19,1,1,0,0,1,0-.25,1,1,0,0,1,0-.28.37.37,0,0,1,.11-.19,1,1,0,0,1,.29-.19,2.82,2.82,0,0,1,.48-.19,4.38,4.38,0,0,1,.6-.15,4.8,4.8,0,0,1,.67,0,4,4,0,0,1,1,.12,1.66,1.66,0,0,1,.71.37,1.34,1.34,0,0,1,.41.64,2.86,2.86,0,0,1,.13.93Zm-1.44-2.23h-.57a2.64,2.64,0,0,0-.6.05,1,1,0,0,0-.41.16.64.64,0,0,0-.24.25.89.89,0,0,0-.07.34.67.67,0,0,0,.21.52.86.86,0,0,0,.58.19,1.17,1.17,0,0,0,.57-.16,2.45,2.45,0,0,0,.53-.47Z"/><path class="cls-5" d="M25.14,54.6a.13.13,0,0,1,0,.1.19.19,0,0,1-.11.08,1,1,0,0,1-.23,0l-.35,0-.36,0-.23,0a.19.19,0,0,1-.11-.08.18.18,0,0,1,0-.1V52.12a3.66,3.66,0,0,1-.4.33,2.49,2.49,0,0,1-.4.24,2,2,0,0,1-.86.17,2,2,0,0,1-1-.23,1.92,1.92,0,0,1-.65-.62,2.92,2.92,0,0,1-.38-.92,5.62,5.62,0,0,1-.11-1.1A4.84,4.84,0,0,1,20,48.73a2.65,2.65,0,0,1,.45-.94,1.89,1.89,0,0,1,.71-.61,2.25,2.25,0,0,1,1-.21,1.86,1.86,0,0,1,.42.05,1.41,1.41,0,0,1,.4.15,2.3,2.3,0,0,1,.41.28c.14.11.3.26.47.42v-.56a.2.2,0,0,1,0-.11.23.23,0,0,1,.11-.07l.19,0,.3,0,.3,0,.19,0a.2.2,0,0,1,.1.07.2.2,0,0,1,0,.11ZM23.67,49a3.16,3.16,0,0,0-.6-.61,1,1,0,0,0-.61-.21.88.88,0,0,0-.49.14,1,1,0,0,0-.33.39,1.75,1.75,0,0,0-.19.53,3.08,3.08,0,0,0-.06.61,3.39,3.39,0,0,0,.05.64,1.77,1.77,0,0,0,.17.55,1.12,1.12,0,0,0,.32.39.8.8,0,0,0,.5.14,1,1,0,0,0,.3,0,1.53,1.53,0,0,0,.29-.14,3.29,3.29,0,0,0,.31-.26,3.7,3.7,0,0,0,.34-.4Z"/><path class="cls-5" d="M31.57,52.53a.17.17,0,0,1,0,.1.2.2,0,0,1-.1.07.74.74,0,0,1-.19,0h-.62a.74.74,0,0,1-.19,0,.2.2,0,0,1-.1-.07.17.17,0,0,1,0-.1v-.61a3.27,3.27,0,0,1-.88.71,2.06,2.06,0,0,1-.93.23,2,2,0,0,1-.9-.18A1.46,1.46,0,0,1,27,52.2a1.8,1.8,0,0,1-.32-.7,4.06,4.06,0,0,1-.1-1V47.31a.2.2,0,0,1,0-.11.22.22,0,0,1,.12-.07l.23,0,.35,0,.36,0a1,1,0,0,1,.22,0,.22.22,0,0,1,.12.07.15.15,0,0,1,0,.11v2.95a3.13,3.13,0,0,0,.05.62,1.15,1.15,0,0,0,.16.37.65.65,0,0,0,.28.24.8.8,0,0,0,.39.09,1,1,0,0,0,.56-.21,3.29,3.29,0,0,0,.61-.59V47.31a.2.2,0,0,1,0-.11.22.22,0,0,1,.12-.07,1,1,0,0,1,.22,0l.36,0,.36,0,.22,0a.35.35,0,0,1,.12.07.2.2,0,0,1,0,.11Z"/><path class="cls-5" d="M34.64,45.54a.82.82,0,0,1-.18.61,1,1,0,0,1-.68.17,1,1,0,0,1-.67-.16.83.83,0,0,1-.17-.59.85.85,0,0,1,.18-.62,1,1,0,0,1,.67-.17,1,1,0,0,1,.67.16A.81.81,0,0,1,34.64,45.54Zm-.11,7a.13.13,0,0,1,0,.1.22.22,0,0,1-.12.07.9.9,0,0,1-.22,0h-.72a.9.9,0,0,1-.22,0,.22.22,0,0,1-.12-.07.13.13,0,0,1,0-.1V47.32a.15.15,0,0,1,0-.11.31.31,0,0,1,.12-.07.9.9,0,0,1,.22,0l.36,0,.36,0a.9.9,0,0,1,.22,0,.31.31,0,0,1,.12.07.15.15,0,0,1,0,.11Z"/><path class="cls-5" d="M40.82,49.76a.56.56,0,0,1-.12.4.42.42,0,0,1-.33.13H37.19a2.37,2.37,0,0,0,.08.61,1.21,1.21,0,0,0,.25.46,1.1,1.1,0,0,0,.45.29,2,2,0,0,0,.65.1,3.44,3.44,0,0,0,.68-.06,4.11,4.11,0,0,0,.5-.12c.15,0,.26-.09.36-.12a.6.6,0,0,1,.23-.06l.08,0a.12.12,0,0,1,.06.08.26.26,0,0,1,0,.14,1.85,1.85,0,0,1,0,.25v.22c0,.06,0,.11,0,.15a.36.36,0,0,1,0,.11.24.24,0,0,1-.06.09.92.92,0,0,1-.2.11,4.09,4.09,0,0,1-.44.13,4,4,0,0,1-.6.12,5.58,5.58,0,0,1-.73,0,3.78,3.78,0,0,1-1.22-.18,2,2,0,0,1-.87-.53,2.24,2.24,0,0,1-.53-.9A4.41,4.41,0,0,1,35.69,50a4.06,4.06,0,0,1,.18-1.25,2.66,2.66,0,0,1,.53-.95,2.17,2.17,0,0,1,.84-.59A2.83,2.83,0,0,1,38.36,47a3.12,3.12,0,0,1,1.12.19,2,2,0,0,1,.76.54,2.27,2.27,0,0,1,.44.81,3.64,3.64,0,0,1,.14,1Zm-1.43-.42a1.49,1.49,0,0,0-.25-1,1,1,0,0,0-.82-.36,1.07,1.07,0,0,0-.49.11.93.93,0,0,0-.34.28,1,1,0,0,0-.21.42,2.27,2.27,0,0,0-.09.52Zm-.82-4.6a.48.48,0,0,1,.09-.11.35.35,0,0,1,.15-.07l.22,0h.33l.43,0a.71.71,0,0,1,.22.07.12.12,0,0,1,.06.1.17.17,0,0,1-.06.12l-1.13,1.36-.1.1-.12.06a.48.48,0,0,1-.18,0l-.28,0-.33,0a.34.34,0,0,1-.17-.06.08.08,0,0,1,0-.09.24.24,0,0,1,.06-.14Z"/><path class="cls-5" d="M47,52.53a.13.13,0,0,1,0,.1.22.22,0,0,1-.12.07.8.8,0,0,1-.22,0h-.71a.89.89,0,0,1-.23,0,.35.35,0,0,1-.12-.07.17.17,0,0,1,0-.1v-3a2.3,2.3,0,0,0-.06-.6,1.25,1.25,0,0,0-.16-.37.78.78,0,0,0-.27-.24.8.8,0,0,0-.39-.09,1,1,0,0,0-.57.21,2.8,2.8,0,0,0-.59.6v3.47a.18.18,0,0,1,0,.1.22.22,0,0,1-.12.07,1,1,0,0,1-.23,0h-.71a.9.9,0,0,1-.22,0,.22.22,0,0,1-.12-.07.13.13,0,0,1,0-.1V47.31a.2.2,0,0,1,0-.11.2.2,0,0,1,.1-.07l.2,0,.3,0,.31,0a.69.69,0,0,1,.19,0,.2.2,0,0,1,.1.07.2.2,0,0,1,0,.11v.6a3.22,3.22,0,0,1,.88-.7A2,2,0,0,1,45.1,47a2,2,0,0,1,.9.18,1.45,1.45,0,0,1,.59.47,2.11,2.11,0,0,1,.33.71,4.45,4.45,0,0,1,.1,1Z"/><path class="cls-5" d="M53.29,49.76a.56.56,0,0,1-.12.4.42.42,0,0,1-.34.13H49.66a2,2,0,0,0,.08.61,1.09,1.09,0,0,0,.25.46,1.06,1.06,0,0,0,.44.29,2.06,2.06,0,0,0,.65.1,3.37,3.37,0,0,0,.68-.06,3.88,3.88,0,0,0,.51-.12l.35-.12a.65.65,0,0,1,.23-.06l.09,0a.28.28,0,0,1,.06.08.42.42,0,0,1,0,.14,1.85,1.85,0,0,1,0,.25,1.48,1.48,0,0,1,0,.22c0,.06,0,.11,0,.15a.36.36,0,0,1,0,.11.47.47,0,0,1-.06.09l-.21.11a3.84,3.84,0,0,1-.43.13,4.54,4.54,0,0,1-.6.12,5.58,5.58,0,0,1-.73,0,3.78,3.78,0,0,1-1.22-.18,2,2,0,0,1-.87-.53,2.24,2.24,0,0,1-.53-.9A4.41,4.41,0,0,1,48.16,50a4.06,4.06,0,0,1,.18-1.25,2.66,2.66,0,0,1,.53-.95,2.17,2.17,0,0,1,.84-.59A2.82,2.82,0,0,1,50.82,47a3.08,3.08,0,0,1,1.12.19,2.06,2.06,0,0,1,.77.54,2.44,2.44,0,0,1,.44.81,3.64,3.64,0,0,1,.14,1Zm-1.43-.42a1.49,1.49,0,0,0-.25-1,1,1,0,0,0-.82-.36,1.07,1.07,0,0,0-.49.11,1,1,0,0,0-.35.28,1.38,1.38,0,0,0-.21.42,1.82,1.82,0,0,0-.08.52Z"/><path class="cls-5" d="M58.17,51.05a1.8,1.8,0,0,1-.16.79,1.61,1.61,0,0,1-.48.56,2.05,2.05,0,0,1-.71.35,3.72,3.72,0,0,1-.91.11,3.43,3.43,0,0,1-.56,0,2.93,2.93,0,0,1-.47-.12,2.65,2.65,0,0,1-.35-.13.86.86,0,0,1-.21-.13.42.42,0,0,1-.1-.2,1.79,1.79,0,0,1,0-.39,2.1,2.1,0,0,1,0-.27,1.57,1.57,0,0,1,0-.16.18.18,0,0,1,.06-.08.13.13,0,0,1,.09,0,.4.4,0,0,1,.19.07l.31.16a3.16,3.16,0,0,0,.44.16,1.94,1.94,0,0,0,.56.08,1.32,1.32,0,0,0,.36,0,1.11,1.11,0,0,0,.27-.12.52.52,0,0,0,.17-.19.6.6,0,0,0,.06-.27.44.44,0,0,0-.11-.3.82.82,0,0,0-.29-.22l-.4-.18-.46-.18a3.29,3.29,0,0,1-.46-.23,1.58,1.58,0,0,1-.41-.31,1.74,1.74,0,0,1-.29-.45,1.76,1.76,0,0,1-.1-.64,1.51,1.51,0,0,1,.14-.68,1.58,1.58,0,0,1,.42-.54,2.24,2.24,0,0,1,.67-.35,3.09,3.09,0,0,1,.89-.12,2.59,2.59,0,0,1,.48,0l.42.08.31.12.19.1.08.09,0,.11a.61.61,0,0,1,0,.15,1.55,1.55,0,0,1,0,.23,1.78,1.78,0,0,1,0,.25.35.35,0,0,1,0,.16.12.12,0,0,1-.05.08l-.09,0a.4.4,0,0,1-.16-.06,1.87,1.87,0,0,0-.28-.13l-.38-.14a2,2,0,0,0-.5-.06,1.69,1.69,0,0,0-.35,0,.67.67,0,0,0-.24.12.49.49,0,0,0-.14.18.54.54,0,0,0,0,.22.44.44,0,0,0,.11.3,1,1,0,0,0,.3.22l.41.18.47.18a3.31,3.31,0,0,1,.47.22,1.81,1.81,0,0,1,.41.32,1.35,1.35,0,0,1,.29.44A1.49,1.49,0,0,1,58.17,51.05Z"/><path class="cls-5" d="M67.24,49.84a5.46,5.46,0,0,1-.14,1.26,3,3,0,0,1-.44.95,2,2,0,0,1-.71.6,2.24,2.24,0,0,1-1,.21,1.87,1.87,0,0,1-.42,0,1.66,1.66,0,0,1-.37-.14,1.86,1.86,0,0,1-.35-.22c-.12-.09-.24-.2-.37-.32V54.6a.17.17,0,0,1,0,.1.18.18,0,0,1-.12.08,1,1,0,0,1-.23,0l-.35,0-.36,0-.23,0A.25.25,0,0,1,62,54.7a.17.17,0,0,1,0-.1V47.31a.2.2,0,0,1,0-.11.2.2,0,0,1,.1-.07l.19,0,.31,0,.29,0a.69.69,0,0,1,.19,0,.23.23,0,0,1,.11.07.2.2,0,0,1,0,.11v.61a5.37,5.37,0,0,1,.44-.41,2.93,2.93,0,0,1,.45-.3A2.07,2.07,0,0,1,64.6,47a2.18,2.18,0,0,1,.52-.06,2,2,0,0,1,1,.23,1.78,1.78,0,0,1,.66.62,2.76,2.76,0,0,1,.37.91A4.92,4.92,0,0,1,67.24,49.84ZM65.71,50a4.51,4.51,0,0,0,0-.65,1.8,1.8,0,0,0-.17-.54,1.1,1.1,0,0,0-.31-.39.86.86,0,0,0-.49-.14.92.92,0,0,0-.29,0,.89.89,0,0,0-.29.15,1.43,1.43,0,0,0-.31.26,2.79,2.79,0,0,0-.34.39v1.72a3.38,3.38,0,0,0,.6.6.9.9,0,0,0,.58.22.81.81,0,0,0,.49-.15,1.23,1.23,0,0,0,.33-.38,1.82,1.82,0,0,0,.19-.54A3,3,0,0,0,65.71,50Z"/><path class="cls-5" d="M73.37,52.53a.17.17,0,0,1,0,.1.2.2,0,0,1-.1.07.74.74,0,0,1-.19,0h-.62a.74.74,0,0,1-.19,0,.26.26,0,0,1-.1-.07.17.17,0,0,1,0-.1v-.61a3.12,3.12,0,0,1-.88.71,2,2,0,0,1-.92.23,2.08,2.08,0,0,1-.91-.18,1.46,1.46,0,0,1-.59-.48,1.8,1.8,0,0,1-.32-.7,4.06,4.06,0,0,1-.1-1V47.31a.2.2,0,0,1,0-.11.35.35,0,0,1,.12-.07l.23,0,.35,0,.36,0,.23,0a.35.35,0,0,1,.12.07.2.2,0,0,1,0,.11v2.95a3.13,3.13,0,0,0,0,.62,1.15,1.15,0,0,0,.16.37.71.71,0,0,0,.28.24.8.8,0,0,0,.39.09.93.93,0,0,0,.56-.21,3,3,0,0,0,.61-.59V47.31a.2.2,0,0,1,0-.11.22.22,0,0,1,.12-.07l.22,0,.36,0,.36,0a1,1,0,0,1,.22,0,.22.22,0,0,1,.12.07.2.2,0,0,1,0,.11Z"/><path class="cls-5" d="M79.68,49.76a.56.56,0,0,1-.12.4.42.42,0,0,1-.33.13H76.05a2,2,0,0,0,.08.61,1.09,1.09,0,0,0,.25.46,1.06,1.06,0,0,0,.44.29,2.13,2.13,0,0,0,.66.1,3.51,3.51,0,0,0,.68-.06,4.11,4.11,0,0,0,.5-.12l.36-.12a.61.61,0,0,1,.22-.06l.09,0a.17.17,0,0,1,.06.08.26.26,0,0,1,0,.14,1.85,1.85,0,0,1,0,.25v.22c0,.06,0,.11,0,.15a.36.36,0,0,1,0,.11.24.24,0,0,1-.06.09.85.85,0,0,1-.21.11,3.28,3.28,0,0,1-.43.13,4.54,4.54,0,0,1-.6.12,5.58,5.58,0,0,1-.73,0,3.78,3.78,0,0,1-1.22-.18,2,2,0,0,1-.87-.53,2.24,2.24,0,0,1-.53-.9A4.41,4.41,0,0,1,74.55,50a4.06,4.06,0,0,1,.18-1.25,2.66,2.66,0,0,1,.53-.95,2.17,2.17,0,0,1,.84-.59A2.82,2.82,0,0,1,77.21,47a3.08,3.08,0,0,1,1.12.19,2.06,2.06,0,0,1,.77.54,2.27,2.27,0,0,1,.44.81,3.64,3.64,0,0,1,.14,1Zm-1.43-.42a1.49,1.49,0,0,0-.25-1,1,1,0,0,0-.82-.36,1.07,1.07,0,0,0-.49.11,1.06,1.06,0,0,0-.35.28,1.38,1.38,0,0,0-.21.42,2.25,2.25,0,0,0-.08.52Z"/><path class="cls-5" d="M85.84,52.53a.15.15,0,0,1,0,.1.21.21,0,0,1-.1.08l-.19,0h-.6l-.19,0a.21.21,0,0,1-.1-.08.12.12,0,0,1,0-.1V52a3.39,3.39,0,0,1-.84.67,2,2,0,0,1-1,.24,2.07,2.07,0,0,1-1-.23,1.93,1.93,0,0,1-.68-.62,2.69,2.69,0,0,1-.37-.92,4.94,4.94,0,0,1-.12-1.1,4.84,4.84,0,0,1,.15-1.26,2.64,2.64,0,0,1,.44-.94,1.81,1.81,0,0,1,.71-.61,2.17,2.17,0,0,1,1-.21,1.74,1.74,0,0,1,.8.18,2.92,2.92,0,0,1,.71.52V44.85a.2.2,0,0,1,0-.11.23.23,0,0,1,.12-.08.9.9,0,0,1,.22,0h.72a1,1,0,0,1,.22,0,.36.36,0,0,1,.12.08.2.2,0,0,1,0,.11ZM84.38,49a3.18,3.18,0,0,0-.61-.61,1,1,0,0,0-.6-.21.89.89,0,0,0-.5.14,1,1,0,0,0-.33.39,1.75,1.75,0,0,0-.19.53,3.08,3.08,0,0,0-.06.61,4.48,4.48,0,0,0,0,.64,2.21,2.21,0,0,0,.17.55,1.12,1.12,0,0,0,.32.39.83.83,0,0,0,.51.14.92.92,0,0,0,.29,0,1.28,1.28,0,0,0,.29-.14,2.38,2.38,0,0,0,.31-.26,5.24,5.24,0,0,0,.35-.4Z"/><path class="cls-5" d="M92.14,49.76a.56.56,0,0,1-.12.4.42.42,0,0,1-.33.13H88.52a2.37,2.37,0,0,0,.07.61,1.23,1.23,0,0,0,.26.46,1.06,1.06,0,0,0,.44.29,2.06,2.06,0,0,0,.65.1,3.37,3.37,0,0,0,.68-.06,3.88,3.88,0,0,0,.51-.12l.35-.12a.65.65,0,0,1,.23-.06l.09,0a.28.28,0,0,1,.06.08,1.06,1.06,0,0,1,0,.14,1.85,1.85,0,0,1,0,.25,1.48,1.48,0,0,1,0,.22.61.61,0,0,1,0,.15.2.2,0,0,1,0,.11l-.06.09-.21.11a3.84,3.84,0,0,1-.43.13,4.39,4.39,0,0,1-.61.12,5.31,5.31,0,0,1-.72,0,3.73,3.73,0,0,1-1.22-.18,2.12,2.12,0,0,1-.88-.53,2.23,2.23,0,0,1-.52-.9,4.66,4.66,0,0,1,0-2.53,2.52,2.52,0,0,1,.53-.95,2.1,2.1,0,0,1,.84-.59A2.78,2.78,0,0,1,89.68,47a3.08,3.08,0,0,1,1.12.19,2.06,2.06,0,0,1,.77.54,2.25,2.25,0,0,1,.43.81,3.31,3.31,0,0,1,.14,1Zm-1.42-.42a1.49,1.49,0,0,0-.25-1,1,1,0,0,0-.82-.36,1,1,0,0,0-.49.11,1,1,0,0,0-.35.28,1.38,1.38,0,0,0-.21.42,1.82,1.82,0,0,0-.08.52Z"/><path class="cls-5" d="M99.74,51.05a1.67,1.67,0,0,1-.17.79,1.49,1.49,0,0,1-.47.56,2,2,0,0,1-.72.35,3.58,3.58,0,0,1-.9.11,3.43,3.43,0,0,1-.56,0,2.68,2.68,0,0,1-.47-.12,3.58,3.58,0,0,1-.36-.13,1,1,0,0,1-.2-.13.42.42,0,0,1-.1-.2,1.79,1.79,0,0,1,0-.39,2.1,2.1,0,0,1,0-.27.57.57,0,0,1,0-.16.18.18,0,0,1,.06-.08s0,0,.09,0a.44.44,0,0,1,.19.07l.31.16a3.16,3.16,0,0,0,.44.16,1.89,1.89,0,0,0,.56.08,1.37,1.37,0,0,0,.36,0,1.11,1.11,0,0,0,.27-.12.52.52,0,0,0,.17-.19.6.6,0,0,0,.06-.27.44.44,0,0,0-.11-.3.82.82,0,0,0-.29-.22l-.4-.18a4.37,4.37,0,0,1-.46-.18,4.09,4.09,0,0,1-.47-.23,1.72,1.72,0,0,1-.4-.31,1.51,1.51,0,0,1-.29-.45,1.75,1.75,0,0,1-.11-.64,1.51,1.51,0,0,1,.15-.68,1.58,1.58,0,0,1,.42-.54,2.24,2.24,0,0,1,.67-.35,3.09,3.09,0,0,1,.89-.12,2.59,2.59,0,0,1,.48,0l.41.08.32.12.19.1a.28.28,0,0,1,.07.09.36.36,0,0,1,0,.11s0,.09,0,.15,0,.14,0,.23,0,.19,0,.25a1.57,1.57,0,0,1,0,.16.12.12,0,0,1,0,.08l-.09,0a.4.4,0,0,1-.16-.06,2.51,2.51,0,0,0-.28-.13c-.11-.05-.24-.09-.39-.14a1.85,1.85,0,0,0-.5-.06,1.67,1.67,0,0,0-.34,0,.67.67,0,0,0-.24.12.49.49,0,0,0-.14.18.54.54,0,0,0,0,.22.44.44,0,0,0,.11.3.87.87,0,0,0,.3.22,4.14,4.14,0,0,0,.41.18l.47.18a3.21,3.21,0,0,1,.46.22,1.67,1.67,0,0,1,.42.32,1.35,1.35,0,0,1,.29.44A1.67,1.67,0,0,1,99.74,51.05Z"/><path class="cls-5" d="M105.67,49.76a.56.56,0,0,1-.12.4.42.42,0,0,1-.33.13H102a2.37,2.37,0,0,0,.08.61,1.21,1.21,0,0,0,.25.46,1.17,1.17,0,0,0,.45.29,2.06,2.06,0,0,0,.65.1,3.44,3.44,0,0,0,.68-.06,4.11,4.11,0,0,0,.5-.12l.36-.12a.6.6,0,0,1,.23-.06l.08,0a.12.12,0,0,1,.06.08.39.39,0,0,1,0,.14v.47c0,.06,0,.11,0,.15l0,.11-.07.09a.92.92,0,0,1-.2.11,4.09,4.09,0,0,1-.44.13,4,4,0,0,1-.6.12,5.58,5.58,0,0,1-.73,0,3.78,3.78,0,0,1-1.22-.18,2.09,2.09,0,0,1-.87-.53,2.23,2.23,0,0,1-.52-.9,4.53,4.53,0,0,1,0-2.53,2.82,2.82,0,0,1,.53-.95,2.17,2.17,0,0,1,.84-.59,2.83,2.83,0,0,1,1.12-.21,3.12,3.12,0,0,1,1.12.19,2,2,0,0,1,.76.54,2.13,2.13,0,0,1,.44.81,3.64,3.64,0,0,1,.14,1Zm-1.43-.42a1.49,1.49,0,0,0-.25-1,.94.94,0,0,0-.82-.36,1.07,1.07,0,0,0-.49.11.93.93,0,0,0-.34.28,1.38,1.38,0,0,0-.21.42,2.27,2.27,0,0,0-.09.52Z"/><path class="cls-5" d="M110.24,47.79a3.16,3.16,0,0,1,0,.35,1,1,0,0,1,0,.21.29.29,0,0,1-.06.1.17.17,0,0,1-.1,0,.18.18,0,0,1-.1,0l-.14,0-.16-.05-.19,0a.79.79,0,0,0-.25,0,1.48,1.48,0,0,0-.25.16,1.84,1.84,0,0,0-.28.28c-.09.12-.19.26-.3.43v3.26a.13.13,0,0,1,0,.1.22.22,0,0,1-.12.07.9.9,0,0,1-.22,0h-.72a.9.9,0,0,1-.22,0,.22.22,0,0,1-.12-.07.13.13,0,0,1,0-.1V47.31a.2.2,0,0,1,0-.11.23.23,0,0,1,.11-.07l.19,0,.3,0,.31,0a.61.61,0,0,1,.19,0,.2.2,0,0,1,.1.07.2.2,0,0,1,0,.11V48a4.23,4.23,0,0,1,.39-.48,2.22,2.22,0,0,1,.34-.3,1,1,0,0,1,.33-.15,1.26,1.26,0,0,1,.33-.05h.16l.18,0a.69.69,0,0,1,.17.05l.1,0a.18.18,0,0,1,0,.07.64.64,0,0,1,0,.09.84.84,0,0,1,0,.19C110.23,47.54,110.24,47.65,110.24,47.79Z"/><path class="cls-5" d="M116.05,47.3v.07s0,.06,0,.09,0,.07,0,.11,0,.1,0,.15l-1.57,4.73a.8.8,0,0,1-.08.16.31.31,0,0,1-.16.09,1.18,1.18,0,0,1-.31,0h-1a1.66,1.66,0,0,1-.31,0,.4.4,0,0,1-.16-.1.53.53,0,0,1-.08-.15l-1.57-4.73c0-.08,0-.15,0-.21a.53.53,0,0,1,0-.13V47.3a.17.17,0,0,1,0-.1.23.23,0,0,1,.12-.08.87.87,0,0,1,.22,0h.36l.39,0,.23,0a.24.24,0,0,1,.12.07l.06.12,1.19,3.84,0,.14,0-.14,1.17-3.84a.61.61,0,0,1,.05-.12.24.24,0,0,1,.12-.07l.22,0,.36,0h.35a.87.87,0,0,1,.22,0,.21.21,0,0,1,.1.08A.17.17,0,0,1,116.05,47.3Z"/><path class="cls-5" d="M118.51,45.54a.82.82,0,0,1-.19.61,1,1,0,0,1-.67.17,1,1,0,0,1-.67-.16.83.83,0,0,1-.17-.59A.85.85,0,0,1,117,45a1,1,0,0,1,.67-.17,1,1,0,0,1,.67.16A.81.81,0,0,1,118.51,45.54Zm-.11,7a.18.18,0,0,1,0,.1.22.22,0,0,1-.12.07,1,1,0,0,1-.23,0h-.71l-.23,0a.35.35,0,0,1-.12-.07.17.17,0,0,1,0-.1V47.32a.2.2,0,0,1,0-.11l.12-.07.23,0,.36,0,.35,0a1,1,0,0,1,.23,0,.31.31,0,0,1,.12.07.21.21,0,0,1,0,.11Z"/><path class="cls-5" d="M123.22,47.79c0,.14,0,.26,0,.35a.87.87,0,0,1,0,.21.14.14,0,0,1-.06.1.17.17,0,0,1-.1,0,.2.2,0,0,1-.1,0l-.13,0-.17-.05-.19,0a.69.69,0,0,0-.24,0,1.22,1.22,0,0,0-.26.16,1.45,1.45,0,0,0-.27.28,4.42,4.42,0,0,0-.31.43v3.26a.13.13,0,0,1,0,.1.22.22,0,0,1-.12.07.9.9,0,0,1-.22,0h-.72a1,1,0,0,1-.22,0,.22.22,0,0,1-.12-.07.18.18,0,0,1,0-.1V47.31a.2.2,0,0,1,0-.11.23.23,0,0,1,.11-.07l.19,0,.31,0,.31,0,.19,0a.22.22,0,0,1,.09.07.2.2,0,0,1,0,.11V48a5.69,5.69,0,0,1,.39-.48,2.22,2.22,0,0,1,.34-.3,1,1,0,0,1,.33-.15,1.26,1.26,0,0,1,.33-.05h.16l.19,0,.16.05a.19.19,0,0,1,.1,0,.18.18,0,0,1,0,.07.2.2,0,0,1,0,.09.84.84,0,0,1,0,.19A3,3,0,0,1,123.22,47.79Z"/><path class="cls-5" d="M18.09,65a.18.18,0,0,1-.06.13.38.38,0,0,1-.18.06,1.84,1.84,0,0,1-.37,0,2,2,0,0,1-.39,0,.34.34,0,0,1-.17-.06.21.21,0,0,1-.05-.13v-.42a2.39,2.39,0,0,1-.73.54,2.13,2.13,0,0,1-.92.19,2.64,2.64,0,0,1-.76-.1,1.75,1.75,0,0,1-.6-.33,1.52,1.52,0,0,1-.4-.53,1.83,1.83,0,0,1-.14-.73,1.69,1.69,0,0,1,.18-.8,1.47,1.47,0,0,1,.53-.55,2.61,2.61,0,0,1,.88-.33,6.37,6.37,0,0,1,1.23-.1h.51v-.32a1.81,1.81,0,0,0,0-.43.85.85,0,0,0-.17-.31.69.69,0,0,0-.3-.18,1.63,1.63,0,0,0-.47-.06,2.19,2.19,0,0,0-.66.09,2.74,2.74,0,0,0-.51.18,2.74,2.74,0,0,0-.38.18.56.56,0,0,1-.24.08.15.15,0,0,1-.11,0,.25.25,0,0,1-.08-.12.48.48,0,0,1,0-.19.9.9,0,0,1,0-.24,1.12,1.12,0,0,1,0-.29.41.41,0,0,1,.11-.19A1.19,1.19,0,0,1,14,59.8a4,4,0,0,1,.48-.19c.18,0,.38-.1.6-.14a3.64,3.64,0,0,1,.67,0,4.57,4.57,0,0,1,1.05.11,1.91,1.91,0,0,1,.71.37,1.39,1.39,0,0,1,.41.64,3,3,0,0,1,.13.94Zm-1.44-2.24h-.57a3.37,3.37,0,0,0-.6,0,1.21,1.21,0,0,0-.41.16.66.66,0,0,0-.24.26.89.89,0,0,0-.07.34.64.64,0,0,0,.21.51.81.81,0,0,0,.58.19,1.07,1.07,0,0,0,.57-.16,2.38,2.38,0,0,0,.53-.46Z"/><path class="cls-5" d="M24.82,62.28a4.84,4.84,0,0,1-.15,1.26,2.88,2.88,0,0,1-.44.95,2,2,0,0,1-.71.6,2.21,2.21,0,0,1-1,.21,1.87,1.87,0,0,1-.42,0,1.28,1.28,0,0,1-.37-.14,2.25,2.25,0,0,1-.35-.22,3.45,3.45,0,0,1-.36-.32V67a.15.15,0,0,1,0,.11.31.31,0,0,1-.12.08l-.22,0h-.72l-.22,0a.31.31,0,0,1-.12-.08.15.15,0,0,1,0-.11V59.75a.17.17,0,0,1,0-.1.21.21,0,0,1,.1-.08.88.88,0,0,1,.2,0l.3,0,.29,0a.88.88,0,0,1,.2,0,.21.21,0,0,1,.1.08.17.17,0,0,1,0,.1v.61a5.57,5.57,0,0,1,.45-.41,2.45,2.45,0,0,1,.44-.3,2.27,2.27,0,0,1,.47-.18,3,3,0,0,1,.52,0,2,2,0,0,1,1,.22,1.87,1.87,0,0,1,.66.62,2.76,2.76,0,0,1,.37.91A5,5,0,0,1,24.82,62.28Zm-1.54.11a3.32,3.32,0,0,0-.05-.64,1.77,1.77,0,0,0-.17-.55,1,1,0,0,0-.31-.38.79.79,0,0,0-.49-.15,1,1,0,0,0-.29,0,1,1,0,0,0-.29.14,2.69,2.69,0,0,0-.64.65v1.72a3.14,3.14,0,0,0,.59.61,1,1,0,0,0,.58.21.86.86,0,0,0,.49-.14,1,1,0,0,0,.33-.39,1.86,1.86,0,0,0,.19-.53A3.05,3.05,0,0,0,23.28,62.39Z"/><path class="cls-5" d="M30.44,65a.18.18,0,0,1-.06.13.38.38,0,0,1-.18.06,1.84,1.84,0,0,1-.37,0,2,2,0,0,1-.39,0,.27.27,0,0,1-.16-.06.17.17,0,0,1-.05-.13v-.42a2.43,2.43,0,0,1-.74.54,2.1,2.1,0,0,1-.92.19,2.64,2.64,0,0,1-.76-.1,1.75,1.75,0,0,1-.6-.33,1.52,1.52,0,0,1-.4-.53,1.83,1.83,0,0,1-.14-.73,1.69,1.69,0,0,1,.18-.8,1.47,1.47,0,0,1,.53-.55,2.61,2.61,0,0,1,.88-.33,6.37,6.37,0,0,1,1.23-.1H29v-.32a1.81,1.81,0,0,0-.05-.43.85.85,0,0,0-.17-.31.64.64,0,0,0-.3-.18,1.63,1.63,0,0,0-.47-.06,2.19,2.19,0,0,0-.66.09,3,3,0,0,0-.51.18,2.57,2.57,0,0,0-.37.18.64.64,0,0,1-.25.08.15.15,0,0,1-.11,0A.25.25,0,0,1,26,60.9a.48.48,0,0,1-.05-.19.9.9,0,0,1,0-.24,1.12,1.12,0,0,1,0-.29A.41.41,0,0,1,26.1,60a1.19,1.19,0,0,1,.29-.19,4,4,0,0,1,.48-.19c.18,0,.38-.1.6-.14a3.64,3.64,0,0,1,.67,0,4.51,4.51,0,0,1,1.05.11,1.91,1.91,0,0,1,.71.37,1.39,1.39,0,0,1,.41.64,3,3,0,0,1,.13.94ZM29,62.75h-.56a3.4,3.4,0,0,0-.61,0,1.21,1.21,0,0,0-.41.16.57.57,0,0,0-.23.26.74.74,0,0,0-.08.34.64.64,0,0,0,.21.51.81.81,0,0,0,.58.19,1.07,1.07,0,0,0,.57-.16,2.38,2.38,0,0,0,.53-.46Z"/><path class="cls-5" d="M35.27,60.24a3.11,3.11,0,0,1,0,.34,1,1,0,0,1,0,.21.36.36,0,0,1-.06.11.17.17,0,0,1-.1,0l-.1,0-.14,0-.16,0a.74.74,0,0,0-.44,0A1,1,0,0,0,34,61a2.46,2.46,0,0,0-.28.28c-.09.12-.19.26-.3.44V65a.13.13,0,0,1,0,.1.23.23,0,0,1-.12.08l-.22,0h-.72l-.22,0a.23.23,0,0,1-.12-.08.13.13,0,0,1,0-.1V59.75a.17.17,0,0,1,0-.1.24.24,0,0,1,.11-.08l.19,0,.3,0,.31,0a.61.61,0,0,1,.19,0,.21.21,0,0,1,.1.08.17.17,0,0,1,0,.1v.65a3.63,3.63,0,0,1,.39-.48,2.33,2.33,0,0,1,.34-.31,1.21,1.21,0,0,1,.33-.15,1.24,1.24,0,0,1,.33,0h.16l.18,0,.17,0,.1.06a.15.15,0,0,1,0,.06.87.87,0,0,1,0,.1.74.74,0,0,1,0,.18C35.26,60,35.27,60.09,35.27,60.24Z"/><path class="cls-5" d="M39.26,64.45a2,2,0,0,1,0,.4.43.43,0,0,1-.08.19.49.49,0,0,1-.16.1,1.35,1.35,0,0,1-.24.08l-.3,0-.32,0a2.13,2.13,0,0,1-.76-.12,1.16,1.16,0,0,1-.54-.34,1.47,1.47,0,0,1-.31-.58,3.31,3.31,0,0,1-.1-.83V60.74H35.8c-.08,0-.13,0-.17-.13a1.3,1.3,0,0,1-.06-.46,2.44,2.44,0,0,1,0-.29.56.56,0,0,1,.05-.18.2.2,0,0,1,.07-.1.19.19,0,0,1,.1,0h.62V58.39a.21.21,0,0,1,0-.11.24.24,0,0,1,.11-.08l.23-.05h.72a.9.9,0,0,1,.22.05.28.28,0,0,1,.12.08.2.2,0,0,1,0,.11v1.16H39a.17.17,0,0,1,.1,0,.15.15,0,0,1,.07.1.56.56,0,0,1,0,.18,2.44,2.44,0,0,1,0,.29,1.3,1.3,0,0,1-.06.46.17.17,0,0,1-.17.13H37.89V63.2a1.22,1.22,0,0,0,.14.64.53.53,0,0,0,.48.21l.21,0,.17-.05.12,0a.15.15,0,0,1,.09,0,.1.1,0,0,1,.07,0s0,0,0,.08,0,.1,0,.17A2,2,0,0,1,39.26,64.45Z"/><path class="cls-5" d="M45,62.21a.58.58,0,0,1-.12.4.45.45,0,0,1-.33.12H41.38a2.27,2.27,0,0,0,.07.61,1.15,1.15,0,0,0,.26.46,1,1,0,0,0,.44.29,1.81,1.81,0,0,0,.65.1,4.4,4.4,0,0,0,.68,0A3.75,3.75,0,0,0,44,64l.35-.12a.65.65,0,0,1,.23-.06.12.12,0,0,1,.09,0,.14.14,0,0,1,.06.07,1,1,0,0,1,0,.15,1.63,1.63,0,0,1,0,.24,1.41,1.41,0,0,1,0,.22c0,.06,0,.11,0,.16a.3.3,0,0,1,0,.1l-.06.09a.91.91,0,0,1-.21.11,3.64,3.64,0,0,1-.43.14c-.18,0-.38.08-.6.11a4.26,4.26,0,0,1-.73,0,4,4,0,0,1-1.22-.17,2.36,2.36,0,0,1-.88-.53,2.2,2.2,0,0,1-.52-.91,4,4,0,0,1-.17-1.27,4.08,4.08,0,0,1,.18-1.26,2.66,2.66,0,0,1,.53-.95,2.29,2.29,0,0,1,.84-.59,2.78,2.78,0,0,1,1.11-.2,2.88,2.88,0,0,1,1.12.19,2.16,2.16,0,0,1,.77.53,2.25,2.25,0,0,1,.43.81A3.4,3.4,0,0,1,45,62Zm-1.42-.42a1.52,1.52,0,0,0-.25-1,1,1,0,0,0-.82-.35,1,1,0,0,0-.49.1,1,1,0,0,0-.35.29,1.38,1.38,0,0,0-.21.42,1.72,1.72,0,0,0-.08.52Z"/><path class="cls-5" d="M53.88,65a.2.2,0,0,1,0,.11.2.2,0,0,1-.1.07l-.19,0H53l-.19,0a.23.23,0,0,1-.11-.07.2.2,0,0,1,0-.11v-.58a3.25,3.25,0,0,1-.85.67,2,2,0,0,1-2.66-.61,2.83,2.83,0,0,1-.38-.92,5.54,5.54,0,0,1-.11-1.1,4.81,4.81,0,0,1,.15-1.25,2.86,2.86,0,0,1,.43-1,1.9,1.9,0,0,1,.72-.6,2.17,2.17,0,0,1,1-.21,1.91,1.91,0,0,1,.8.17,2.94,2.94,0,0,1,.7.53V57.29a.13.13,0,0,1,0-.1.19.19,0,0,1,.11-.08.66.66,0,0,1,.23,0,1.84,1.84,0,0,1,.36,0,1.78,1.78,0,0,1,.35,0,.66.66,0,0,1,.23,0,.19.19,0,0,1,.11.08.13.13,0,0,1,0,.1Zm-1.47-3.49a3.48,3.48,0,0,0-.6-.61,1,1,0,0,0-.61-.21.81.81,0,0,0-.49.15,1,1,0,0,0-.34.38,2.21,2.21,0,0,0-.18.53,3.08,3.08,0,0,0-.06.61,3.39,3.39,0,0,0,0,.64,1.86,1.86,0,0,0,.17.55,1.12,1.12,0,0,0,.32.39.8.8,0,0,0,.5.15,1,1,0,0,0,.3,0,1.09,1.09,0,0,0,.29-.14,2.25,2.25,0,0,0,.31-.26c.1-.11.22-.24.34-.4Z"/><path class="cls-5" d="M60.18,62.21a.58.58,0,0,1-.12.4.45.45,0,0,1-.33.12H56.55a2.25,2.25,0,0,0,.08.61,1.14,1.14,0,0,0,.25.46,1.06,1.06,0,0,0,.45.29,1.81,1.81,0,0,0,.65.1,4.5,4.5,0,0,0,.68,0,4.71,4.71,0,0,0,.51-.13l.35-.12a.6.6,0,0,1,.23-.06l.09,0a.1.1,0,0,1,0,.07.39.39,0,0,1,0,.15c0,.06,0,.14,0,.24s0,.16,0,.22a.78.78,0,0,1,0,.16l0,.1-.06.09a.91.91,0,0,1-.21.11,3.88,3.88,0,0,1-.44.14,6,6,0,0,1-.6.11,4.14,4.14,0,0,1-.72,0,4,4,0,0,1-1.22-.17,2.36,2.36,0,0,1-.88-.53,2.2,2.2,0,0,1-.52-.91,4,4,0,0,1-.18-1.27,3.79,3.79,0,0,1,.19-1.26,2.64,2.64,0,0,1,.52-.95,2.29,2.29,0,0,1,.84-.59,2.83,2.83,0,0,1,1.12-.2,2.92,2.92,0,0,1,1.12.19A2,2,0,0,1,60,61a3.75,3.75,0,0,1,.14,1Zm-1.43-.42a1.52,1.52,0,0,0-.25-1,.94.94,0,0,0-.82-.35,1.07,1.07,0,0,0-.49.1,1,1,0,0,0-.34.29,1.38,1.38,0,0,0-.21.42,2.09,2.09,0,0,0-.09.52Z"/><path class="cls-5" d="M68.55,65a.18.18,0,0,1-.06.13.38.38,0,0,1-.18.06,1.89,1.89,0,0,1-.37,0,2,2,0,0,1-.39,0,.34.34,0,0,1-.17-.06.21.21,0,0,1,0-.13v-.42a2.39,2.39,0,0,1-.73.54,2.13,2.13,0,0,1-.92.19,2.64,2.64,0,0,1-.76-.1,1.75,1.75,0,0,1-.6-.33,1.41,1.41,0,0,1-.4-.53,1.83,1.83,0,0,1-.14-.73,1.69,1.69,0,0,1,.18-.8,1.47,1.47,0,0,1,.53-.55,2.61,2.61,0,0,1,.88-.33,6.37,6.37,0,0,1,1.23-.1h.51v-.32a1.81,1.81,0,0,0,0-.43.85.85,0,0,0-.17-.31.69.69,0,0,0-.3-.18,1.63,1.63,0,0,0-.47-.06,2.19,2.19,0,0,0-.66.09,2.86,2.86,0,0,0-.52.18,3.21,3.21,0,0,0-.37.18.6.6,0,0,1-.24.08.15.15,0,0,1-.11,0,.38.38,0,0,1-.09-.12,1.67,1.67,0,0,1,0-.19,1.77,1.77,0,0,1,0-.24,1.12,1.12,0,0,1,0-.29.41.41,0,0,1,.11-.19,1.31,1.31,0,0,1,.28-.19c.14-.06.3-.13.48-.19l.6-.14a3.71,3.71,0,0,1,.67,0,4.67,4.67,0,0,1,1.06.11,2,2,0,0,1,.71.37,1.39,1.39,0,0,1,.41.64,3,3,0,0,1,.13.94Zm-1.44-2.24h-.57a3.58,3.58,0,0,0-.61,0,1.24,1.24,0,0,0-.4.16.66.66,0,0,0-.24.26.74.74,0,0,0-.07.34.64.64,0,0,0,.21.51.8.8,0,0,0,.57.19,1,1,0,0,0,.57-.16,2.21,2.21,0,0,0,.54-.46Z"/><path class="cls-5" d="M77.72,65a.13.13,0,0,1,0,.1.24.24,0,0,1-.11.08l-.23,0h-.71l-.23,0a.36.36,0,0,1-.12-.08.17.17,0,0,1,0-.1V62a2.41,2.41,0,0,0-.06-.6A1.38,1.38,0,0,0,76,61a.78.78,0,0,0-.27-.24.93.93,0,0,0-.39-.08,1,1,0,0,0-.57.2,3.06,3.06,0,0,0-.59.6V65a.18.18,0,0,1,0,.1.23.23,0,0,1-.12.08l-.23,0h-.71l-.22,0a.23.23,0,0,1-.12-.08.13.13,0,0,1,0-.1V59.75a.17.17,0,0,1,0-.1.21.21,0,0,1,.1-.08l.2,0,.3,0,.31,0a.69.69,0,0,1,.19,0,.21.21,0,0,1,.1.08.17.17,0,0,1,0,.1v.6a3.42,3.42,0,0,1,.88-.7,1.94,1.94,0,0,1,.93-.23,2,2,0,0,1,.9.17,1.56,1.56,0,0,1,.59.48,2,2,0,0,1,.33.7,4.52,4.52,0,0,1,.1,1Z"/><path class="cls-5" d="M84.44,62.31a4.16,4.16,0,0,1-.17,1.21,2.54,2.54,0,0,1-.54.95,2.3,2.3,0,0,1-.89.62,3.47,3.47,0,0,1-1.26.21,3.42,3.42,0,0,1-1.21-.19,2.33,2.33,0,0,1-.86-.56,2.43,2.43,0,0,1-.5-.91,4.22,4.22,0,0,1-.16-1.23A4,4,0,0,1,79,61.19a2.46,2.46,0,0,1,.53-.95,2.57,2.57,0,0,1,.89-.61,3.95,3.95,0,0,1,2.48,0,2.16,2.16,0,0,1,.85.55,2.43,2.43,0,0,1,.5.91A4.24,4.24,0,0,1,84.44,62.31Zm-1.51.06a3.26,3.26,0,0,0-.07-.72,1.85,1.85,0,0,0-.2-.56,1.09,1.09,0,0,0-.39-.38,1.25,1.25,0,0,0-.61-.13,1.34,1.34,0,0,0-.58.12,1,1,0,0,0-.4.35,1.58,1.58,0,0,0-.24.56,3.22,3.22,0,0,0-.08.74,3.17,3.17,0,0,0,.07.71,1.56,1.56,0,0,0,.21.56A1,1,0,0,0,81,64a1.41,1.41,0,0,0,.61.13,1.28,1.28,0,0,0,.58-.12,1.07,1.07,0,0,0,.41-.35,1.72,1.72,0,0,0,.23-.55A3.36,3.36,0,0,0,82.93,62.37Z"/><path class="cls-5" d="M89.28,63.49a1.8,1.8,0,0,1-.16.79,1.64,1.64,0,0,1-.47.57,2.39,2.39,0,0,1-.72.34,3.29,3.29,0,0,1-.91.11,3.43,3.43,0,0,1-.56,0L86,65.15a2.53,2.53,0,0,1-.35-.14.86.86,0,0,1-.21-.13.56.56,0,0,1-.1-.19,1.92,1.92,0,0,1,0-.39,1.94,1.94,0,0,1,0-.27c0-.07,0-.13,0-.17a.18.18,0,0,1,.06-.08l.09,0a.4.4,0,0,1,.19.07L86,64a3.12,3.12,0,0,0,.44.17,2,2,0,0,0,.56.07,1.32,1.32,0,0,0,.36,0,1.11,1.11,0,0,0,.27-.12.52.52,0,0,0,.17-.19.6.6,0,0,0,.06-.27.44.44,0,0,0-.11-.3,1,1,0,0,0-.29-.22,3,3,0,0,0-.4-.17l-.46-.19a3.88,3.88,0,0,1-.46-.22,2.15,2.15,0,0,1-.41-.32,1.58,1.58,0,0,1-.29-.45,1.74,1.74,0,0,1-.1-.63,1.52,1.52,0,0,1,.56-1.23,2.22,2.22,0,0,1,.67-.34,3.09,3.09,0,0,1,.89-.12,3.87,3.87,0,0,1,.48,0,2.59,2.59,0,0,1,.42.09,1.58,1.58,0,0,1,.31.11,1,1,0,0,1,.19.11l.08.09a.62.62,0,0,1,0,.1.61.61,0,0,1,0,.15,1.55,1.55,0,0,1,0,.23,2,2,0,0,1,0,.26.33.33,0,0,1,0,.15.12.12,0,0,1,0,.08.12.12,0,0,1-.08,0,.43.43,0,0,1-.17-.06l-.28-.13a2.8,2.8,0,0,0-.38-.13,2,2,0,0,0-.5-.06,1.2,1.2,0,0,0-.35,0,.54.54,0,0,0-.24.12.55.55,0,0,0-.14.17.59.59,0,0,0-.05.22.47.47,0,0,0,.11.31,1.14,1.14,0,0,0,.3.21,2.2,2.2,0,0,0,.41.18l.47.18a5,5,0,0,1,.47.22,1.81,1.81,0,0,1,.41.32,1.29,1.29,0,0,1,.29.45A1.45,1.45,0,0,1,89.28,63.49Z"/><path class="cls-5" d="M95.67,62.31a3.84,3.84,0,0,1-.18,1.21,2.39,2.39,0,0,1-.53.95,2.46,2.46,0,0,1-.89.62,3.47,3.47,0,0,1-1.26.21,3.38,3.38,0,0,1-1.21-.19,2.25,2.25,0,0,1-.86-.56,2.3,2.3,0,0,1-.5-.91,4.2,4.2,0,0,1-.17-1.23,4,4,0,0,1,.18-1.22,2.62,2.62,0,0,1,.54-.95,2.48,2.48,0,0,1,.89-.61,3.47,3.47,0,0,1,1.26-.21,3.42,3.42,0,0,1,1.21.19,2,2,0,0,1,.85.55,2.32,2.32,0,0,1,.51.91A4.61,4.61,0,0,1,95.67,62.31Zm-1.52.06a4,4,0,0,0-.06-.72,1.63,1.63,0,0,0-.21-.56,1,1,0,0,0-.39-.38,1.23,1.23,0,0,0-.61-.13,1.26,1.26,0,0,0-.57.12,1,1,0,0,0-.4.35,1.58,1.58,0,0,0-.24.56,3.22,3.22,0,0,0-.08.74,3.92,3.92,0,0,0,.06.71,2,2,0,0,0,.21.56,1.09,1.09,0,0,0,.39.38,1.38,1.38,0,0,0,.61.13,1.31,1.31,0,0,0,.58-.12,1,1,0,0,0,.4-.35,1.53,1.53,0,0,0,.24-.55A3.38,3.38,0,0,0,94.15,62.37Z"/><path class="cls-5" d="M99.92,64.45a2,2,0,0,1,0,.4.43.43,0,0,1-.08.19.49.49,0,0,1-.16.1,1.35,1.35,0,0,1-.24.08l-.3,0-.32,0a2.16,2.16,0,0,1-.76-.12,1.22,1.22,0,0,1-.54-.34,1.45,1.45,0,0,1-.3-.58,2.9,2.9,0,0,1-.1-.83V60.74h-.63a.19.19,0,0,1-.17-.13,1.3,1.3,0,0,1-.06-.46,2.19,2.19,0,0,1,0-.29.6.6,0,0,1,0-.18.2.2,0,0,1,.07-.1.2.2,0,0,1,.11,0h.62V58.39a.2.2,0,0,1,0-.11.23.23,0,0,1,.12-.08.9.9,0,0,1,.22-.05h.72a.9.9,0,0,1,.22.05.23.23,0,0,1,.12.08.2.2,0,0,1,0,.11v1.16h1.14a.17.17,0,0,1,.1,0,.21.21,0,0,1,.08.1.6.6,0,0,1,0,.18,2.44,2.44,0,0,1,0,.29,1.67,1.67,0,0,1,0,.46.19.19,0,0,1-.17.13H98.55V63.2a1.22,1.22,0,0,0,.14.64.53.53,0,0,0,.48.21l.21,0,.17-.05.12,0a.15.15,0,0,1,.09,0,.1.1,0,0,1,.07,0,.12.12,0,0,1,0,.08s0,.1,0,.17A2,2,0,0,1,99.92,64.45Z"/><path class="cls-5" d="M104.34,60.24c0,.13,0,.25,0,.34s0,.16,0,.21a.36.36,0,0,1-.06.11.17.17,0,0,1-.1,0l-.11,0-.13,0-.16,0a.58.58,0,0,0-.19,0,.53.53,0,0,0-.25.05.83.83,0,0,0-.25.15,2.46,2.46,0,0,0-.28.28,5.27,5.27,0,0,0-.31.44V65a.17.17,0,0,1,0,.1.23.23,0,0,1-.12.08l-.23,0h-.71l-.23,0a.36.36,0,0,1-.12-.08.17.17,0,0,1,0-.1V59.75a.17.17,0,0,1,0-.1.21.21,0,0,1,.1-.08.88.88,0,0,1,.2,0l.3,0,.31,0a.69.69,0,0,1,.19,0,.21.21,0,0,1,.1.08.17.17,0,0,1,0,.1v.65a3,3,0,0,1,.38-.48,2.36,2.36,0,0,1,.35-.31,1.14,1.14,0,0,1,.65-.19h.17l.18,0,.16,0,.11.06s0,0,0,.06a.62.62,0,0,1,0,.1s0,.1,0,.18Z"/><path class="cls-5" d="M110.38,62.31a4.16,4.16,0,0,1-.17,1.21,2.54,2.54,0,0,1-.54.95,2.3,2.3,0,0,1-.89.62,3.47,3.47,0,0,1-1.26.21,3.42,3.42,0,0,1-1.21-.19,2.33,2.33,0,0,1-.86-.56,2.43,2.43,0,0,1-.5-.91,4.22,4.22,0,0,1-.16-1.23,4,4,0,0,1,.18-1.22,2.46,2.46,0,0,1,.53-.95,2.57,2.57,0,0,1,.89-.61,3.95,3.95,0,0,1,2.48,0,2.16,2.16,0,0,1,.85.55,2.43,2.43,0,0,1,.5.91A4.24,4.24,0,0,1,110.38,62.31Zm-1.51.06a4,4,0,0,0-.06-.72,2.17,2.17,0,0,0-.21-.56,1.09,1.09,0,0,0-.39-.38,1.25,1.25,0,0,0-.61-.13,1.34,1.34,0,0,0-.58.12,1,1,0,0,0-.4.35,1.79,1.79,0,0,0-.24.56,3.22,3.22,0,0,0-.08.74,3.17,3.17,0,0,0,.07.71,1.56,1.56,0,0,0,.21.56A1,1,0,0,0,107,64a1.41,1.41,0,0,0,.61.13,1.28,1.28,0,0,0,.58-.12,1.07,1.07,0,0,0,.41-.35,1.72,1.72,0,0,0,.23-.55A3.36,3.36,0,0,0,108.87,62.37Z"/><path class="cls-5" d="M115.22,63.49a1.8,1.8,0,0,1-.16.79,1.64,1.64,0,0,1-.47.57,2.39,2.39,0,0,1-.72.34,3.29,3.29,0,0,1-.91.11,3.43,3.43,0,0,1-.56,0l-.47-.11a2.53,2.53,0,0,1-.35-.14.86.86,0,0,1-.21-.13.56.56,0,0,1-.1-.19,1.92,1.92,0,0,1,0-.39,1.94,1.94,0,0,1,0-.27c0-.07,0-.13,0-.17a.18.18,0,0,1,.06-.08l.09,0a.4.4,0,0,1,.19.07l.31.16a3.12,3.12,0,0,0,.44.17,2,2,0,0,0,.57.07,1.25,1.25,0,0,0,.35,0,1.11,1.11,0,0,0,.27-.12.52.52,0,0,0,.17-.19.6.6,0,0,0,.06-.27.44.44,0,0,0-.11-.3,1,1,0,0,0-.29-.22,2.53,2.53,0,0,0-.4-.17l-.46-.19a3.88,3.88,0,0,1-.46-.22,2.15,2.15,0,0,1-.41-.32,1.58,1.58,0,0,1-.29-.45,1.89,1.89,0,0,1,0-1.32,1.58,1.58,0,0,1,.42-.54,2.22,2.22,0,0,1,.67-.34,3.09,3.09,0,0,1,.89-.12,3.75,3.75,0,0,1,.48,0,2.59,2.59,0,0,1,.42.09,1.58,1.58,0,0,1,.31.11,1,1,0,0,1,.19.11l.08.09a.62.62,0,0,1,0,.1.61.61,0,0,1,0,.15,1.55,1.55,0,0,1,0,.23,2,2,0,0,1,0,.26.33.33,0,0,1,0,.15.12.12,0,0,1,0,.08.12.12,0,0,1-.08,0,.43.43,0,0,1-.17-.06l-.28-.13a2.8,2.8,0,0,0-.38-.13,2,2,0,0,0-.5-.06,1.2,1.2,0,0,0-.35,0,.54.54,0,0,0-.24.12.55.55,0,0,0-.14.17.59.59,0,0,0,0,.22.43.43,0,0,0,.12.31.94.94,0,0,0,.29.21,2.2,2.2,0,0,0,.41.18l.47.18a5,5,0,0,1,.47.22,1.81,1.81,0,0,1,.41.32,1.29,1.29,0,0,1,.29.45A1.45,1.45,0,0,1,115.22,63.49Z"/><path class="cls-5" d="M123.86,63a2.34,2.34,0,0,1-.21,1,2.18,2.18,0,0,1-.61.74,2.93,2.93,0,0,1-.92.45,4.38,4.38,0,0,1-1.18.15,5.31,5.31,0,0,1-.72,0,5.39,5.39,0,0,1-.6-.14,2,2,0,0,1-.43-.17l-.23-.13a.44.44,0,0,1-.08-.11,1.27,1.27,0,0,1,0-.14.56.56,0,0,1,0-.2,2.44,2.44,0,0,1,0-.29,1.07,1.07,0,0,1,0-.38c0-.08.07-.11.14-.11a.44.44,0,0,1,.2.08l.37.17a5.32,5.32,0,0,0,.52.17,2.76,2.76,0,0,0,.67.07,1.93,1.93,0,0,0,.57-.07,1.05,1.05,0,0,0,.42-.22.83.83,0,0,0,.26-.33,1,1,0,0,0,.08-.43,1.06,1.06,0,0,0-.1-.48,1,1,0,0,0-.3-.36,1.5,1.5,0,0,0-.51-.23,3.13,3.13,0,0,0-.73-.08h-.65l-.13,0a.25.25,0,0,1-.09-.09.56.56,0,0,1,0-.18,2.36,2.36,0,0,1,0-.29,2.27,2.27,0,0,1,0-.28.58.58,0,0,1,0-.17.2.2,0,0,1,.08-.08l.12,0h.66a2.25,2.25,0,0,0,.61-.08,1.23,1.23,0,0,0,.44-.23.85.85,0,0,0,.27-.35,1.2,1.2,0,0,0,0-.83.81.81,0,0,0-.19-.29.84.84,0,0,0-.33-.2,1.26,1.26,0,0,0-.46-.08,1.81,1.81,0,0,0-.58.09,3.66,3.66,0,0,0-.48.2c-.14.08-.26.14-.36.21a.55.55,0,0,1-.22.09l-.09,0a.12.12,0,0,1,0-.08.61.61,0,0,1,0-.17,2.36,2.36,0,0,1,0-.29,1.7,1.7,0,0,1,0-.24.7.7,0,0,1,0-.16s0-.08,0-.11a.41.41,0,0,1,.09-.1,1.27,1.27,0,0,1,.24-.17,2.36,2.36,0,0,1,.45-.22,4.49,4.49,0,0,1,.64-.18,4.71,4.71,0,0,1,.78-.07,3.28,3.28,0,0,1,1,.13,1.92,1.92,0,0,1,.71.37,1.56,1.56,0,0,1,.44.6,2,2,0,0,1,.15.8,2.2,2.2,0,0,1-.09.64,1.54,1.54,0,0,1-.26.53,1.46,1.46,0,0,1-.42.4,2.1,2.1,0,0,1-.59.25v0a2,2,0,0,1,.71.2,1.78,1.78,0,0,1,.54.39,1.55,1.55,0,0,1,.34.53A1.81,1.81,0,0,1,123.86,63Z"/><path class="cls-5" d="M129.45,59.39a2.58,2.58,0,0,1-.14.86,1.94,1.94,0,0,1-.39.67,1.75,1.75,0,0,1-.59.45,2.45,2.45,0,0,1-.77.22l0,1.14c0,.07-.06.12-.17.16a1.72,1.72,0,0,1-.46,0h-.33l-.21,0a.3.3,0,0,1-.11-.07.23.23,0,0,1,0-.1l0-1.38a1.37,1.37,0,0,1,0-.31.3.3,0,0,1,.08-.18.29.29,0,0,1,.16-.1.69.69,0,0,1,.22,0h.08a1.27,1.27,0,0,0,.54-.1,1,1,0,0,0,.37-.26.92.92,0,0,0,.21-.39,1.45,1.45,0,0,0,.07-.47,1.72,1.72,0,0,0-.08-.52,1,1,0,0,0-.24-.4,1.11,1.11,0,0,0-.4-.26,1.7,1.7,0,0,0-.57-.09,2.09,2.09,0,0,0-.53.06,2.54,2.54,0,0,0-.39.13l-.28.12a.35.35,0,0,1-.16.06l-.08,0a.29.29,0,0,1-.06-.1.85.85,0,0,1,0-.2,2.63,2.63,0,0,1,0-.33,2.11,2.11,0,0,1,0-.3.35.35,0,0,1,.07-.15.88.88,0,0,1,.23-.13,1.76,1.76,0,0,1,.39-.15,3.24,3.24,0,0,1,.51-.11,2.78,2.78,0,0,1,.58,0,3.27,3.27,0,0,1,1.19.19,2.39,2.39,0,0,1,.8.51,2,2,0,0,1,.46.74A2.54,2.54,0,0,1,129.45,59.39Zm-1.74,5a2.37,2.37,0,0,1,0,.41.55.55,0,0,1-.14.26.5.5,0,0,1-.26.14,1.42,1.42,0,0,1-.39.05,1.4,1.4,0,0,1-.4-.05.5.5,0,0,1-.26-.14.53.53,0,0,1-.13-.26,2.12,2.12,0,0,1,0-.82.57.57,0,0,1,.13-.27.51.51,0,0,1,.26-.15,2,2,0,0,1,.79,0,.51.51,0,0,1,.26.15.58.58,0,0,1,.14.27A2.37,2.37,0,0,1,127.71,64.4Z"/></g></g></svg>