<svg xmlns="http://www.w3.org/2000/svg" viewBox="0 0 178.22 113.12"><defs><style>.cls-1{opacity:0.3;}.cls-2{fill:#fff;}.cls-3{fill:#a4a6a9;}.cls-4{fill:#221f20;}</style></defs><g id="Capa_2" data-name="Capa 2"><g id="Capa_1-2" data-name="Capa 1"><path class="cls-1" d="M174.23,17.71C166.45,5.82,148.3,10,134.43,10c-2.49-.06-5-.15-7.63-.26C108.64,9,88.2,7.05,71.35,8.44A88.39,88.39,0,0,0,60,10.06C26.56,21.52,38.45,46.72,40.37,68.25c-5,6.23-14.69,14-32.52,15.82,0,0,17.92,1.44,31.79,6,.62,8,3.8,15.43,15.76,20.53a37.5,37.5,0,0,0,9.54,1.1c3.53.12,7,.13,10.37.07s6.75-.17,10.1-.3c9.88-.83,19.86-.43,29.82,0l7.46.34c16.43-.44,38.71,6.69,47.78-8.35,11.55-18.21,4.13-40.37,6.87-60.65.28-2.23.54-4.45.71-6.64C178.55,29.61,178.12,23.31,174.23,17.71Z"/><path class="cls-2" d="M169,10.71C161.24-1.18,143.09,3,129.22,3c-2.49-.05-5-.14-7.63-.25C103.43,2,83,.05,66.14,1.44A86.66,86.66,0,0,0,54.8,3.06C25.43,13.12,31,33.77,34.11,53.22a15.48,15.48,0,0,1-6.37,15C22.1,72.31,14,75.9,2.64,77.07a181.12,181.12,0,0,1,25.13,4.07A10.24,10.24,0,0,1,35.3,88.3c1.61,5.94,5.6,11.3,14.89,15.26a37.49,37.49,0,0,0,9.53,1.09c3.54.13,7,.14,10.38.08s6.74-.17,10.1-.3c9.88-.83,19.86-.43,29.81,0l7.47.34c16.43-.44,38.7,6.69,47.78-8.35,11.55-18.21,4.13-40.37,6.87-60.65.27-2.24.54-4.45.71-6.64C173.34,22.61,172.9,16.31,169,10.71Z"/><path class="cls-3" d="M33.66,60a15.33,15.33,0,0,0,3.54-12.4c-1.78-11.21-4.37-22.8-.66-32.54-7.9,10.7-4.58,24.74-2.43,38.21A15.1,15.1,0,0,1,33.66,60Z"/><path class="cls-3" d="M120.57,99.13l-7.46-.34c-10-.47-19.94-.87-29.82,0-3.35.13-6.7.25-10.1.3s-6.84,0-10.37-.07a37.5,37.5,0,0,1-9.54-1.1C44,93.92,40,88.56,38.39,82.62a10.2,10.2,0,0,0-7.53-7.15c-4.06-1-8.16-1.79-11.85-2.39a57.8,57.8,0,0,1-16.37,4,181.12,181.12,0,0,1,25.13,4.07A10.24,10.24,0,0,1,35.3,88.3c1.61,5.94,5.6,11.3,14.89,15.26a37.49,37.49,0,0,0,9.53,1.09c3.54.13,7,.14,10.38.08s6.74-.17,10.09-.3c9.89-.83,19.87-.43,29.82,0l7.47.34c16.43-.44,38.7,6.69,47.78-8.35A36.88,36.88,0,0,0,168,91.32C158.71,105.62,136.79,98.7,120.57,99.13Z"/><path class="cls-4" d="M143.08,107.07c-4.07,0-8.3-.34-12.49-.69a126.45,126.45,0,0,0-13.09-.63l-5.93-.26-1.6-.08c-10.6-.49-20.15-.84-29.69,0-3.25.13-6.67.25-10.16.31-3.79.06-7.2,0-10.43-.08a38.84,38.84,0,0,1-9.76-1.13l-.14,0c-8.59-3.66-13.5-8.71-15.44-15.88-.86-3.17-3.68-5.27-7-6.1-12.12-3-27.19-6-27.32-6l4.53-.58c9.76-1,16-3.67,22.62-8.4a14.55,14.55,0,0,0,6-14.12c-.2-1.25-.41-2.5-.62-3.76-3.1-18.56-6.3-37.76,21.95-47.45l.11,0A88.5,88.5,0,0,1,66.06.5c12.84-1.06,27.71-.22,42.1.59,4.47.25,9.09.51,13.47.7,2.81.12,5.3.21,7.61.26,2.77,0,5.72-.16,8.82-.34C149.91,1,163.34.27,169.84,10.2c4.31,6.21,4.43,13.11,4,19-.16,2.17-.43,4.4-.71,6.68-1,7-.66,14.39-.39,21.53.52,13.47,1.06,27.41-6.62,39.5C161.14,105.18,152.56,107.07,143.08,107.07Zm-24-3.23c3.67,0,7.58.32,11.69.66,13.35,1.09,27.17,2.22,33.65-8.52,7.37-11.62,6.87-24.66,6.34-38.46-.28-7.22-.57-14.68.4-21.83.28-2.25.54-4.45.7-6.59.43-5.62.33-12.13-3.66-17.86v0c-5.88-9-18.14-8.3-30-7.62-3.14.18-6.11.34-9,.34-2.34,0-4.84-.13-7.67-.26-4.39-.19-9-.45-13.5-.7-14.31-.81-29.11-1.64-41.81-.59A87.59,87.59,0,0,0,55.07,4c-26.64,9.16-23.71,26.74-20.6,45.34.21,1.26.42,2.52.62,3.77A16.4,16.4,0,0,1,28.34,69,48.7,48.7,0,0,1,9.81,76.91,167.28,167.28,0,0,1,28,80.23a11.23,11.23,0,0,1,8.25,7.83c1.77,6.55,6.3,11.19,14.25,14.6a36.68,36.68,0,0,0,9.21,1c3.24.11,6.61.14,10.36.08,3.47-.06,6.88-.19,10.08-.31,9.61-.8,19.23-.46,29.9,0l1.6.08,5.86.26Z"/><path d="M50.88,34.29a6.12,6.12,0,0,1-.31,2.08,3.5,3.5,0,0,1-.92,1.41,3.68,3.68,0,0,1-1.44.8,7.1,7.1,0,0,1-2,.26H44.07a.6.6,0,0,1-.38-.13.57.57,0,0,1-.15-.44V30.56a.55.55,0,0,1,.15-.43.56.56,0,0,1,.38-.14h2.27a6.49,6.49,0,0,1,2,.28,3.6,3.6,0,0,1,1.38.82,3.52,3.52,0,0,1,.86,1.34A5.34,5.34,0,0,1,50.88,34.29ZM49,34.35a4.37,4.37,0,0,0-.14-1.17,2.68,2.68,0,0,0-.47-.94,2.3,2.3,0,0,0-.84-.62,3.51,3.51,0,0,0-1.33-.22h-.91v6h.93a3.74,3.74,0,0,0,1.25-.19,2,2,0,0,0,.84-.58,2.46,2.46,0,0,0,.51-1A4.92,4.92,0,0,0,49,34.35Z"/><path d="M57.61,35.38a.65.65,0,0,1-.14.46.5.5,0,0,1-.38.16H53.37a2.53,2.53,0,0,0,.09.7,1.35,1.35,0,0,0,.3.54,1.27,1.27,0,0,0,.52.34,2.16,2.16,0,0,0,.76.12,3.68,3.68,0,0,0,.79-.07,5.39,5.39,0,0,0,.6-.14l.41-.15a.83.83,0,0,1,.27-.06l.1,0a.22.22,0,0,1,.07.09.65.65,0,0,1,0,.17,2.44,2.44,0,0,1,0,.29v.25c0,.08,0,.14,0,.19a.83.83,0,0,1,0,.12.39.39,0,0,1-.08.1.77.77,0,0,1-.24.13,3,3,0,0,1-.5.16c-.21.05-.44.1-.71.14a5.57,5.57,0,0,1-.85.06,4.38,4.38,0,0,1-1.42-.21,2.5,2.5,0,0,1-1-.62,2.62,2.62,0,0,1-.62-1.05,5.12,5.12,0,0,1-.2-1.49,4.45,4.45,0,0,1,.22-1.47,3.06,3.06,0,0,1,.61-1.11,2.73,2.73,0,0,1,1-.69,3.38,3.38,0,0,1,1.3-.24,3.42,3.42,0,0,1,1.31.22,2.35,2.35,0,0,1,1.41,1.58,4.08,4.08,0,0,1,.16,1.19Zm-1.67-.49a1.73,1.73,0,0,0-.29-1.14,1.12,1.12,0,0,0-1-.41,1.26,1.26,0,0,0-.57.12,1.16,1.16,0,0,0-.4.33,1.51,1.51,0,0,0-.25.49,2.88,2.88,0,0,0-.1.61Zm-1-5.38a.34.34,0,0,1,.12-.12.39.39,0,0,1,.17-.09.89.89,0,0,1,.26,0l.38,0a3.1,3.1,0,0,1,.49,0,.61.61,0,0,1,.26.08.12.12,0,0,1,.08.12.37.37,0,0,1-.07.14L55.34,31.2a.57.57,0,0,1-.11.11.37.37,0,0,1-.14.07l-.21,0-.33,0-.38,0a.57.57,0,0,1-.2-.07.12.12,0,0,1,0-.11.43.43,0,0,1,.07-.16Z"/><path d="M60.6,38.81A4.53,4.53,0,0,1,60.48,40a2.19,2.19,0,0,1-.37.75,1.52,1.52,0,0,1-.63.46,2.39,2.39,0,0,1-.88.15,3.23,3.23,0,0,1-.48,0,1.58,1.58,0,0,1-.29-.08.25.25,0,0,1-.12-.1.78.78,0,0,1-.05-.14,1.1,1.1,0,0,1,0-.18,1.93,1.93,0,0,1,0-.26c0-.13,0-.23,0-.32a.88.88,0,0,1,0-.2.36.36,0,0,1,.06-.11.14.14,0,0,1,.09,0l.14,0h.23a1,1,0,0,0,.31,0,.46.46,0,0,0,.21-.18.82.82,0,0,0,.12-.3,3,3,0,0,0,0-.6V32.52a.21.21,0,0,1,0-.12.36.36,0,0,1,.13-.09,1.2,1.2,0,0,1,.26-.05,4.42,4.42,0,0,1,.84,0,1.33,1.33,0,0,1,.26.05.56.56,0,0,1,.14.09.19.19,0,0,1,0,.12Zm.13-8.37a1,1,0,0,1-.21.72,1.68,1.68,0,0,1-1.57,0,1.31,1.31,0,0,1,0-1.41,1.12,1.12,0,0,1,.79-.2,1.17,1.17,0,0,1,.78.19A1,1,0,0,1,60.73,30.44Z"/><path d="M67.24,38.63a.21.21,0,0,1-.07.15.68.68,0,0,1-.22.08l-.43,0-.45,0a.55.55,0,0,1-.2-.08.25.25,0,0,1-.05-.15v-.49a2.89,2.89,0,0,1-.86.63,2.5,2.5,0,0,1-1.07.23,3.08,3.08,0,0,1-.89-.13,1.87,1.87,0,0,1-.71-.38,1.64,1.64,0,0,1-.46-.61,2.14,2.14,0,0,1-.16-.87,2,2,0,0,1,.2-.92,1.7,1.7,0,0,1,.63-.65,3,3,0,0,1,1-.38A7.64,7.64,0,0,1,65,34.94h.6v-.37a2,2,0,0,0-.06-.51.79.79,0,0,0-.19-.35.81.81,0,0,0-.36-.22,2.09,2.09,0,0,0-.55-.06,3.07,3.07,0,0,0-.77.09l-.59.21-.44.21a.56.56,0,0,1-.28.1.19.19,0,0,1-.13,0,.34.34,0,0,1-.1-.13.71.71,0,0,1-.06-.22,2.64,2.64,0,0,1,0-.29A1.58,1.58,0,0,1,62,33a.59.59,0,0,1,.14-.22,1.32,1.32,0,0,1,.33-.22,4.37,4.37,0,0,1,.56-.22,6,6,0,0,1,.7-.17,5,5,0,0,1,.78-.06,4.84,4.84,0,0,1,1.23.14,2.09,2.09,0,0,1,.84.43,1.62,1.62,0,0,1,.48.75,3.5,3.5,0,0,1,.15,1.09ZM65.55,36h-.66a3.62,3.62,0,0,0-.71.06,1.5,1.5,0,0,0-.48.18.77.77,0,0,0-.27.3,1,1,0,0,0-.08.4.77.77,0,0,0,.24.6,1,1,0,0,0,.67.22,1.19,1.19,0,0,0,.67-.19,2.68,2.68,0,0,0,.62-.54Z"/><path d="M78.37,38.61a.19.19,0,0,1,0,.12.3.3,0,0,1-.14.08.79.79,0,0,1-.25,0l-.42,0-.42,0a.93.93,0,0,1-.27,0,.37.37,0,0,1-.14-.08.27.27,0,0,1,0-.12V35a2.47,2.47,0,0,0-.06-.56,1.3,1.3,0,0,0-.18-.43.8.8,0,0,0-.3-.28.83.83,0,0,0-.43-.1,1,1,0,0,0-.63.24,4.45,4.45,0,0,0-.68.69v4.06a.19.19,0,0,1,0,.12.3.3,0,0,1-.14.08.86.86,0,0,1-.26,0l-.41,0-.42,0a.8.8,0,0,1-.26,0,.26.26,0,0,1-.14-.08.19.19,0,0,1,0-.12V35a2.47,2.47,0,0,0-.06-.56,1.3,1.3,0,0,0-.18-.43.68.68,0,0,0-.3-.28.85.85,0,0,0-.43-.1,1,1,0,0,0-.63.24,3.69,3.69,0,0,0-.67.69v4.06a.28.28,0,0,1,0,.12.35.35,0,0,1-.15.08.8.8,0,0,1-.26,0l-.42,0-.41,0a.8.8,0,0,1-.26,0,.35.35,0,0,1-.15-.08.28.28,0,0,1,0-.12v-6.1a.21.21,0,0,1,0-.12s.06-.06.12-.09l.23,0h.71a1,1,0,0,1,.23,0s.09.05.11.09a.21.21,0,0,1,0,.12v.7a4.49,4.49,0,0,1,1-.82,2.22,2.22,0,0,1,1-.27,2.82,2.82,0,0,1,.68.08,2,2,0,0,1,.53.22,1.59,1.59,0,0,1,.41.36,1.92,1.92,0,0,1,.29.45,6,6,0,0,1,.53-.5,3.65,3.65,0,0,1,.52-.35,3.07,3.07,0,0,1,.52-.2,2.24,2.24,0,0,1,.52-.06,2.34,2.34,0,0,1,1,.2,1.88,1.88,0,0,1,.68.56,2.23,2.23,0,0,1,.36.83,4,4,0,0,1,.11,1Z"/><path d="M85.41,35.38a.6.6,0,0,1-.14.46.5.5,0,0,1-.38.16H81.18a2.53,2.53,0,0,0,.09.7,1.25,1.25,0,0,0,.81.88,2.16,2.16,0,0,0,.76.12,3.84,3.84,0,0,0,.8-.07,5.75,5.75,0,0,0,.59-.14l.41-.15a.83.83,0,0,1,.27-.06l.1,0a.22.22,0,0,1,.07.09.61.61,0,0,1,0,.17c0,.08,0,.17,0,.29s0,.18,0,.25,0,.14,0,.19a.34.34,0,0,1,0,.12.36.36,0,0,1-.07.1.74.74,0,0,1-.25.13,3,3,0,0,1-.5.16c-.21.05-.44.1-.71.14a5.53,5.53,0,0,1-.84.06,4.4,4.4,0,0,1-1.43-.21,2.5,2.5,0,0,1-1-.62,2.6,2.6,0,0,1-.61-1.05,4.8,4.8,0,0,1-.2-1.49,4.74,4.74,0,0,1,.21-1.47,3.06,3.06,0,0,1,.61-1.11,2.73,2.73,0,0,1,1-.69,3.4,3.4,0,0,1,1.31-.24,3.46,3.46,0,0,1,1.31.22,2.43,2.43,0,0,1,.89.63,2.56,2.56,0,0,1,.51,1,4.08,4.08,0,0,1,.16,1.19Zm-1.66-.49a1.79,1.79,0,0,0-.3-1.14,1.09,1.09,0,0,0-1-.41,1.34,1.34,0,0,0-.58.12,1.16,1.16,0,0,0-.4.33,1.51,1.51,0,0,0-.25.49,2.89,2.89,0,0,0-.09.61Z"/><path d="M99.13,38.61a.19.19,0,0,1,0,.12.26.26,0,0,1-.13.08.86.86,0,0,1-.26,0l-.42,0-.42,0a.93.93,0,0,1-.27,0,.26.26,0,0,1-.13-.08.19.19,0,0,1,0-.12V35a2.47,2.47,0,0,0-.06-.56,1.3,1.3,0,0,0-.18-.43.8.8,0,0,0-.3-.28.83.83,0,0,0-.43-.1,1,1,0,0,0-.62.24,4.05,4.05,0,0,0-.69.69v4.06a.19.19,0,0,1,0,.12.3.3,0,0,1-.14.08.8.8,0,0,1-.26,0l-.41,0-.42,0a.8.8,0,0,1-.26,0,.3.3,0,0,1-.14-.08.19.19,0,0,1,0-.12V35a2.47,2.47,0,0,0-.06-.56,1.3,1.3,0,0,0-.18-.43.68.68,0,0,0-.3-.28.83.83,0,0,0-.43-.1,1,1,0,0,0-.63.24,3.69,3.69,0,0,0-.67.69v4.06a.28.28,0,0,1,0,.12.37.37,0,0,1-.14.08.93.93,0,0,1-.27,0l-.41,0-.42,0a.8.8,0,0,1-.26,0,.26.26,0,0,1-.14-.08.19.19,0,0,1,0-.12v-6.1a.21.21,0,0,1,0-.12s.06-.06.12-.09l.23,0h.71a1,1,0,0,1,.23,0s.09.05.11.09a.21.21,0,0,1,0,.12v.7a4.49,4.49,0,0,1,1-.82,2.22,2.22,0,0,1,1-.27,2.82,2.82,0,0,1,.68.08,2.18,2.18,0,0,1,.54.22,1.72,1.72,0,0,1,.4.36,1.92,1.92,0,0,1,.29.45,4.92,4.92,0,0,1,.54-.5,3.16,3.16,0,0,1,.52-.35,2.69,2.69,0,0,1,.51-.2,2.24,2.24,0,0,1,.52-.06,2.42,2.42,0,0,1,1,.2,1.85,1.85,0,0,1,.67.56,2.23,2.23,0,0,1,.36.83,4,4,0,0,1,.11,1Z"/><path d="M106.71,35.5a4.55,4.55,0,0,1-.21,1.42,2.88,2.88,0,0,1-.62,1.11,2.64,2.64,0,0,1-1,.71,3.9,3.9,0,0,1-1.47.26,4,4,0,0,1-1.42-.23,2.57,2.57,0,0,1-1-.66,2.73,2.73,0,0,1-.59-1.06,5.11,5.11,0,0,1-.19-1.43,4.62,4.62,0,0,1,.21-1.43,2.91,2.91,0,0,1,.63-1.1,2.77,2.77,0,0,1,1-.72,3.9,3.9,0,0,1,1.47-.25,4.07,4.07,0,0,1,1.42.22,2.55,2.55,0,0,1,1,.65,2.8,2.8,0,0,1,.59,1.06A4.9,4.9,0,0,1,106.71,35.5Zm-1.77.06a5.35,5.35,0,0,0-.07-.83,1.93,1.93,0,0,0-.25-.66,1.16,1.16,0,0,0-.45-.43,1.42,1.42,0,0,0-.72-.16,1.6,1.6,0,0,0-.67.14,1.23,1.23,0,0,0-.47.41,2,2,0,0,0-.27.65,3.22,3.22,0,0,0-.1.86,4.25,4.25,0,0,0,.08.83,2,2,0,0,0,.24.66,1.09,1.09,0,0,0,.46.44,1.52,1.52,0,0,0,.71.15,1.48,1.48,0,0,0,.68-.14,1.29,1.29,0,0,0,.47-.4,2,2,0,0,0,.27-.65A3.75,3.75,0,0,0,104.94,35.56Z"/><path d="M112.08,36.88a2,2,0,0,1-.19.92,1.76,1.76,0,0,1-.55.66,2.51,2.51,0,0,1-.84.4,4,4,0,0,1-1.06.14,3.49,3.49,0,0,1-.65-.06,3.91,3.91,0,0,1-.56-.12,3.41,3.41,0,0,1-.41-.17.65.65,0,0,1-.23-.15.42.42,0,0,1-.12-.23,1.72,1.72,0,0,1,0-.45,2.92,2.92,0,0,1,0-.32.78.78,0,0,1,0-.19c0-.05,0-.08.07-.09a.17.17,0,0,1,.1,0,.52.52,0,0,1,.23.09l.36.19c.15.06.32.13.51.19a2.19,2.19,0,0,0,.66.09,1.64,1.64,0,0,0,.41,0,1,1,0,0,0,.32-.14.6.6,0,0,0,.2-.22.68.68,0,0,0,.07-.32.49.49,0,0,0-.13-.35,1.12,1.12,0,0,0-.33-.26,4.15,4.15,0,0,0-.47-.2l-.54-.21a4.53,4.53,0,0,1-.54-.27,1.92,1.92,0,0,1-.48-.37,1.59,1.59,0,0,1-.33-.53,1.82,1.82,0,0,1-.13-.74,1.94,1.94,0,0,1,.17-.8,1.85,1.85,0,0,1,.49-.62,2.37,2.37,0,0,1,.79-.41,3.66,3.66,0,0,1,1-.14,3.43,3.43,0,0,1,.56,0l.49.1a2.21,2.21,0,0,1,.37.14.9.9,0,0,1,.21.12.31.31,0,0,1,.1.1.5.5,0,0,1,0,.13s0,.1,0,.17a2.1,2.1,0,0,1,0,.27,2.63,2.63,0,0,1,0,.3c0,.07,0,.14,0,.18s0,.08-.07.09a.14.14,0,0,1-.09,0,.56.56,0,0,1-.19-.07l-.33-.16-.45-.15a2.12,2.12,0,0,0-.59-.07,1.59,1.59,0,0,0-.4,0,.92.92,0,0,0-.28.14.54.54,0,0,0-.16.21.55.55,0,0,0-.06.26.48.48,0,0,0,.13.35,1.11,1.11,0,0,0,.34.25,2.78,2.78,0,0,0,.49.21l.54.21a3.94,3.94,0,0,1,.55.26,1.92,1.92,0,0,1,.48.37,1.67,1.67,0,0,1,.34.52A1.81,1.81,0,0,1,112.08,36.88Z"/><path d="M116.55,38a2.52,2.52,0,0,1,0,.46.57.57,0,0,1-.1.22.51.51,0,0,1-.18.12l-.28.09-.35.06-.38,0a2.93,2.93,0,0,1-.89-.13,1.48,1.48,0,0,1-.62-.4,1.77,1.77,0,0,1-.36-.68,3.52,3.52,0,0,1-.12-1V33.67h-.73c-.09,0-.15-.05-.2-.16a1.67,1.67,0,0,1-.07-.54,2.92,2.92,0,0,1,0-.33,1,1,0,0,1,0-.22.2.2,0,0,1,.09-.11.21.21,0,0,1,.12,0h.72V30.92a.2.2,0,0,1,0-.13.33.33,0,0,1,.14-.09,1.2,1.2,0,0,1,.26-.05l.42,0,.42,0a1.2,1.2,0,0,1,.26.05.56.56,0,0,1,.14.09.28.28,0,0,1,0,.13v1.36h1.32a.21.21,0,0,1,.12,0,.2.2,0,0,1,.09.11,1,1,0,0,1,0,.22,2.92,2.92,0,0,1,0,.33,1.67,1.67,0,0,1-.07.54c0,.11-.11.16-.2.16H115v2.87a1.33,1.33,0,0,0,.16.74.6.6,0,0,0,.56.25.9.9,0,0,0,.24,0,1.17,1.17,0,0,0,.2-.06l.14-.05a.22.22,0,0,1,.11,0,.1.1,0,0,1,.07,0,.14.14,0,0,1,.06.1.69.69,0,0,1,0,.19A2.58,2.58,0,0,1,116.55,38Z"/><path d="M121.43,33.08c0,.16,0,.29,0,.4a.76.76,0,0,1,0,.25.17.17,0,0,1-.18.15.25.25,0,0,1-.12,0l-.16,0-.19-.05a.73.73,0,0,0-.22,0,.75.75,0,0,0-.29.06,1.4,1.4,0,0,0-.3.18,2,2,0,0,0-.32.33,5.37,5.37,0,0,0-.36.51v3.8a.19.19,0,0,1,0,.12.26.26,0,0,1-.14.08.8.8,0,0,1-.26,0l-.42,0-.42,0a.92.92,0,0,1-.26,0,.37.37,0,0,1-.14-.08.19.19,0,0,1,0-.12v-6.1a.21.21,0,0,1,0-.12.33.33,0,0,1,.13-.09,1,1,0,0,1,.23,0h.71a.8.8,0,0,1,.22,0,.29.29,0,0,1,.12.09.21.21,0,0,1,0,.12v.76a5.16,5.16,0,0,1,.45-.57,3.07,3.07,0,0,1,.41-.35,1,1,0,0,1,.38-.18,1.65,1.65,0,0,1,.38-.05h.19l.21,0,.19.06.13.06a.35.35,0,0,1,.05.08.81.81,0,0,1,0,.11,1.09,1.09,0,0,1,0,.22C121.43,32.78,121.43,32.91,121.43,33.08Z"/><path d="M127.1,38.63a.21.21,0,0,1-.07.15.68.68,0,0,1-.22.08l-.43,0-.45,0a.55.55,0,0,1-.2-.08.2.2,0,0,1-.06-.15v-.49a2.73,2.73,0,0,1-.85.63,2.54,2.54,0,0,1-1.07.23,3.15,3.15,0,0,1-.9-.13,1.9,1.9,0,0,1-.7-.38,1.64,1.64,0,0,1-.46-.61,2.14,2.14,0,0,1-.17-.87,1.92,1.92,0,0,1,.21-.92,1.7,1.7,0,0,1,.63-.65,3,3,0,0,1,1-.38,7.56,7.56,0,0,1,1.43-.12h.6v-.37a2,2,0,0,0-.06-.51.79.79,0,0,0-.19-.35.81.81,0,0,0-.36-.22,2.15,2.15,0,0,0-.55-.06,3,3,0,0,0-.77.09l-.6.21-.43.21a.59.59,0,0,1-.28.1.24.24,0,0,1-.14,0,.25.25,0,0,1-.09-.13.71.71,0,0,1-.06-.22,1.37,1.37,0,0,1,0-.29,1.58,1.58,0,0,1,0-.34.71.71,0,0,1,.13-.22,1.67,1.67,0,0,1,.34-.22,3.85,3.85,0,0,1,.56-.22,6,6,0,0,1,.7-.17,4.93,4.93,0,0,1,.78-.06,4.84,4.84,0,0,1,1.23.14,2.09,2.09,0,0,1,.84.43,1.61,1.61,0,0,1,.47.75,3.48,3.48,0,0,1,.16,1.09ZM125.41,36h-.66a3.62,3.62,0,0,0-.71.06,1.34,1.34,0,0,0-.48.18.77.77,0,0,0-.27.3.87.87,0,0,0-.09.4.78.78,0,0,0,.25.6.93.93,0,0,0,.67.22,1.21,1.21,0,0,0,.67-.19,2.68,2.68,0,0,0,.62-.54Z"/><path d="M132.45,33.08c0,.16,0,.29,0,.4a1.09,1.09,0,0,1-.05.25.27.27,0,0,1-.07.12.18.18,0,0,1-.11,0,.25.25,0,0,1-.12,0l-.16,0-.19-.05a.73.73,0,0,0-.22,0,.75.75,0,0,0-.29.06,1.69,1.69,0,0,0-.3.18,2,2,0,0,0-.32.33,5.37,5.37,0,0,0-.36.51v3.8a.19.19,0,0,1,0,.12.26.26,0,0,1-.14.08.8.8,0,0,1-.26,0l-.42,0-.41,0a.93.93,0,0,1-.27,0,.37.37,0,0,1-.14-.08.19.19,0,0,1,0-.12v-6.1a.16.16,0,0,1,0-.12s.06-.06.12-.09a1,1,0,0,1,.23,0h.71a.8.8,0,0,1,.22,0,.29.29,0,0,1,.12.09.21.21,0,0,1,0,.12v.76a5.16,5.16,0,0,1,.45-.57,3.07,3.07,0,0,1,.41-.35,1,1,0,0,1,.38-.18,1.65,1.65,0,0,1,.38-.05h.19l.21,0,.2.06.12.06a.35.35,0,0,1,0,.08.81.81,0,0,1,0,.11,1.09,1.09,0,0,1,0,.22C132.45,32.78,132.45,32.91,132.45,33.08Z"/><path d="M136.84,38a2.52,2.52,0,0,1,0,.46.57.57,0,0,1-.1.22.51.51,0,0,1-.18.12l-.28.09-.35.06-.38,0a2.93,2.93,0,0,1-.89-.13,1.48,1.48,0,0,1-.62-.4,1.64,1.64,0,0,1-.36-.68,3.52,3.52,0,0,1-.12-1V33.67h-.73c-.09,0-.15-.05-.2-.16a1.67,1.67,0,0,1-.07-.54,2.92,2.92,0,0,1,0-.33,1,1,0,0,1,.05-.22.2.2,0,0,1,.09-.11.21.21,0,0,1,.12,0h.72V30.92a.2.2,0,0,1,0-.13.33.33,0,0,1,.14-.09,1.2,1.2,0,0,1,.26-.05l.42,0,.42,0a1.2,1.2,0,0,1,.26.05.56.56,0,0,1,.14.09.28.28,0,0,1,0,.13v1.36h1.32a.21.21,0,0,1,.12,0,.2.2,0,0,1,.09.11,1,1,0,0,1,0,.22,2.92,2.92,0,0,1,0,.33,1.67,1.67,0,0,1-.07.54c-.05.11-.11.16-.2.16h-1.33v2.87a1.44,1.44,0,0,0,.15.74.62.62,0,0,0,.56.25.94.94,0,0,0,.25,0,1.17,1.17,0,0,0,.2-.06l.14-.05a.22.22,0,0,1,.11,0,.1.1,0,0,1,.07,0,.14.14,0,0,1,.06.1.69.69,0,0,1,0,.19A2.58,2.58,0,0,1,136.84,38Z"/><path d="M143.26,35.38a.6.6,0,0,1-.14.46.5.5,0,0,1-.38.16H139a2.52,2.52,0,0,0,.1.7,1.34,1.34,0,0,0,.29.54,1.27,1.27,0,0,0,.52.34,2.16,2.16,0,0,0,.76.12,3.84,3.84,0,0,0,.8-.07,5.75,5.75,0,0,0,.59-.14l.41-.15a.83.83,0,0,1,.27-.06l.1,0a.22.22,0,0,1,.07.09.61.61,0,0,1,0,.17c0,.08,0,.17,0,.29s0,.18,0,.25,0,.14,0,.19a.34.34,0,0,1,0,.12.86.86,0,0,1-.07.1.87.87,0,0,1-.25.13,3,3,0,0,1-.5.16c-.21.05-.44.1-.71.14a5.57,5.57,0,0,1-.85.06,4.38,4.38,0,0,1-1.42-.21,2.44,2.44,0,0,1-1.63-1.67,4.78,4.78,0,0,1-.21-1.49,4.73,4.73,0,0,1,.22-1.47,3.06,3.06,0,0,1,.61-1.11,2.73,2.73,0,0,1,1-.69,3.82,3.82,0,0,1,2.61,0,2.47,2.47,0,0,1,.9.63,2.56,2.56,0,0,1,.51,1,4.08,4.08,0,0,1,.16,1.19Zm-1.66-.49a1.79,1.79,0,0,0-.3-1.14,1.09,1.09,0,0,0-1-.41,1.29,1.29,0,0,0-.57.12,1.16,1.16,0,0,0-.4.33,1.51,1.51,0,0,0-.25.49,2.88,2.88,0,0,0-.1.61Z"/><path d="M151.58,36.88a2,2,0,0,1-.2.92,1.76,1.76,0,0,1-.55.66,2.51,2.51,0,0,1-.84.4,3.86,3.86,0,0,1-1.05.14,3.52,3.52,0,0,1-.66-.06,3.76,3.76,0,0,1-.55-.12,2.84,2.84,0,0,1-.41-.17.83.83,0,0,1-.24-.15.49.49,0,0,1-.12-.23,2.31,2.31,0,0,1,0-.45,2.58,2.58,0,0,1,0-.32.49.49,0,0,1,0-.19.13.13,0,0,1,.06-.09.2.2,0,0,1,.11,0,.5.5,0,0,1,.22.09l.36.19c.15.06.32.13.51.19a2.29,2.29,0,0,0,.66.09,1.73,1.73,0,0,0,.42,0,1,1,0,0,0,.31-.14.53.53,0,0,0,.2-.22.68.68,0,0,0,.07-.32.49.49,0,0,0-.13-.35,1.12,1.12,0,0,0-.33-.26,4.15,4.15,0,0,0-.47-.2l-.54-.21a4.53,4.53,0,0,1-.54-.27,1.87,1.87,0,0,1-.47-.37,1.79,1.79,0,0,1-.34-.53,2,2,0,0,1-.13-.74,1.8,1.8,0,0,1,.18-.8,1.63,1.63,0,0,1,.49-.62,2.22,2.22,0,0,1,.78-.41,3.69,3.69,0,0,1,1-.14,3.31,3.31,0,0,1,.55,0,4.67,4.67,0,0,1,.49.1,1.92,1.92,0,0,1,.37.14,1.35,1.35,0,0,1,.22.12.41.41,0,0,1,.09.1.5.5,0,0,1,0,.13.72.72,0,0,1,0,.17,2.1,2.1,0,0,1,0,.27,2.63,2.63,0,0,1,0,.3.45.45,0,0,1,0,.18s0,.08-.07.09a.12.12,0,0,1-.09,0,.64.64,0,0,1-.19-.07l-.33-.16-.45-.15a2,2,0,0,0-.58-.07,1.68,1.68,0,0,0-.41,0,1,1,0,0,0-.28.14.65.65,0,0,0-.16.21.55.55,0,0,0,0,.26.51.51,0,0,0,.12.35,1.16,1.16,0,0,0,.35.25,2.67,2.67,0,0,0,.48.21l.55.21a4.43,4.43,0,0,1,.54.26,2.18,2.18,0,0,1,.49.37,1.87,1.87,0,0,1,.34.52A2,2,0,0,1,151.58,36.88Z"/><path d="M158.37,38.61a.27.27,0,0,1,0,.12.36.36,0,0,1-.12.08.66.66,0,0,1-.23,0l-.35,0-.37,0a.65.65,0,0,1-.22,0,.24.24,0,0,1-.11-.08.19.19,0,0,1,0-.12V37.9a3.75,3.75,0,0,1-1,.82,2.23,2.23,0,0,1-1.08.28,2.41,2.41,0,0,1-1.06-.21,1.9,1.9,0,0,1-.69-.56,2.27,2.27,0,0,1-.37-.82,4.84,4.84,0,0,1-.12-1.17V32.51a.21.21,0,0,1,0-.12.31.31,0,0,1,.14-.09,1.2,1.2,0,0,1,.26,0h.84a1.33,1.33,0,0,1,.26,0,.38.38,0,0,1,.14.09.16.16,0,0,1,0,.12V36a3.47,3.47,0,0,0,.06.74,1.4,1.4,0,0,0,.19.43.87.87,0,0,0,.32.28.93.93,0,0,0,.45.1,1.12,1.12,0,0,0,.66-.24,3.56,3.56,0,0,0,.71-.7V32.51a.21.21,0,0,1,0-.12s.07-.06.14-.09a1.2,1.2,0,0,1,.26,0h.83a1.2,1.2,0,0,1,.26,0,.31.31,0,0,1,.14.09.16.16,0,0,1,0,.12Z"/><path d="M164.11,36.88a2,2,0,0,1-.19.92,1.76,1.76,0,0,1-.55.66,2.51,2.51,0,0,1-.84.4,4,4,0,0,1-1.06.14,5,5,0,0,1-1.2-.18,2.43,2.43,0,0,1-.41-.17,1.09,1.09,0,0,1-.25-.15.61.61,0,0,1-.11-.23,1.72,1.72,0,0,1,0-.45,2.92,2.92,0,0,1,0-.32.78.78,0,0,1,0-.19c0-.05,0-.08.07-.09a.17.17,0,0,1,.1,0,.52.52,0,0,1,.23.09l.36.19c.15.06.32.13.51.19a2.19,2.19,0,0,0,.66.09,1.64,1.64,0,0,0,.41,0,1,1,0,0,0,.32-.14.6.6,0,0,0,.2-.22.68.68,0,0,0,.07-.32.49.49,0,0,0-.13-.35,1.12,1.12,0,0,0-.33-.26,4.15,4.15,0,0,0-.47-.2L161,36a5.28,5.28,0,0,1-.53-.27,1.92,1.92,0,0,1-.48-.37,1.59,1.59,0,0,1-.33-.53,1.82,1.82,0,0,1-.13-.74,1.94,1.94,0,0,1,.17-.8,1.76,1.76,0,0,1,.5-.62,2.22,2.22,0,0,1,.78-.41,3.66,3.66,0,0,1,1-.14,3.36,3.36,0,0,1,.56,0l.49.1a1.92,1.92,0,0,1,.37.14.9.9,0,0,1,.21.12.31.31,0,0,1,.1.1s0,.08,0,.13,0,.1,0,.17a2.1,2.1,0,0,1,0,.27,2.63,2.63,0,0,1,0,.3c0,.07,0,.14,0,.18s0,.08-.07.09a.16.16,0,0,1-.09,0,.59.59,0,0,1-.2-.07l-.32-.16-.45-.15a2.1,2.1,0,0,0-.58-.07,1.68,1.68,0,0,0-.41,0,.92.92,0,0,0-.28.14.54.54,0,0,0-.16.21.55.55,0,0,0-.06.26.52.52,0,0,0,.13.35,1.11,1.11,0,0,0,.34.25,3.14,3.14,0,0,0,.49.21l.54.21a3.94,3.94,0,0,1,.55.26,1.92,1.92,0,0,1,.48.37,1.67,1.67,0,0,1,.34.52A1.81,1.81,0,0,1,164.11,36.88Z"/><path d="M47.74,49.21a1.92,1.92,0,0,1-.2.92,1.73,1.73,0,0,1-.54.66,2.48,2.48,0,0,1-.85.4,3.86,3.86,0,0,1-1,.14,3.42,3.42,0,0,1-.65-.06,3.91,3.91,0,0,1-.56-.12,3.41,3.41,0,0,1-.41-.17.83.83,0,0,1-.24-.15.41.41,0,0,1-.11-.23,1.72,1.72,0,0,1,0-.45,2.92,2.92,0,0,1,0-.32.78.78,0,0,1,0-.19s0-.08.07-.09a.17.17,0,0,1,.1,0,.46.46,0,0,1,.22.09l.37.19a4.69,4.69,0,0,0,.51.19,2.19,2.19,0,0,0,.66.09,1.7,1.7,0,0,0,.41,0,.89.89,0,0,0,.31-.14.63.63,0,0,0,.21-.22.83.83,0,0,0,.07-.32.54.54,0,0,0-.13-.35,1.17,1.17,0,0,0-.34-.26,3.49,3.49,0,0,0-.47-.2l-.54-.21q-.27-.12-.54-.27a2.07,2.07,0,0,1-.47-.37,1.59,1.59,0,0,1-.33-.53,1.8,1.8,0,0,1-.13-.73,2,2,0,0,1,.17-.81,1.73,1.73,0,0,1,.49-.62,2.41,2.41,0,0,1,.78-.41,3.74,3.74,0,0,1,1-.14,3.43,3.43,0,0,1,.56,0l.49.1a2.21,2.21,0,0,1,.37.14.9.9,0,0,1,.21.12.41.41,0,0,1,.09.1.28.28,0,0,1,0,.13s0,.1,0,.17,0,.16,0,.27,0,.22,0,.3a.69.69,0,0,1,0,.18s0,.08-.06.09a.17.17,0,0,1-.1,0,.64.64,0,0,1-.19-.07l-.32-.16-.45-.15a2.17,2.17,0,0,0-.59-.07,1.59,1.59,0,0,0-.4,0,.81.81,0,0,0-.28.14.56.56,0,0,0-.17.21.71.71,0,0,0,0,.26.48.48,0,0,0,.13.35,1.11,1.11,0,0,0,.34.25,2.67,2.67,0,0,0,.48.21l.55.21a4.55,4.55,0,0,1,.55.26,1.92,1.92,0,0,1,.48.37,1.87,1.87,0,0,1,.34.52A1.81,1.81,0,0,1,47.74,49.21Z"/><path d="M54.38,47.71a.65.65,0,0,1-.14.47.53.53,0,0,1-.38.15H50.15a2.53,2.53,0,0,0,.09.7,1.27,1.27,0,0,0,.29.54,1.35,1.35,0,0,0,.52.34,2.16,2.16,0,0,0,.76.12,3.84,3.84,0,0,0,.8-.07,5.18,5.18,0,0,0,.59-.14l.41-.14a.67.67,0,0,1,.27-.07l.1,0a.22.22,0,0,1,.07.09.61.61,0,0,1,0,.17c0,.08,0,.17,0,.29a1.85,1.85,0,0,1,0,.25.92.92,0,0,1,0,.19.34.34,0,0,1,0,.12.36.36,0,0,1-.07.1.74.74,0,0,1-.25.13,3,3,0,0,1-.5.16c-.21,0-.44.1-.7.14a5.77,5.77,0,0,1-.85.06,4.4,4.4,0,0,1-1.43-.21,2.5,2.5,0,0,1-1-.62,2.6,2.6,0,0,1-.61-1,5.44,5.44,0,0,1,0-3,3.06,3.06,0,0,1,.61-1.11,2.73,2.73,0,0,1,1-.69,3.4,3.4,0,0,1,1.31-.24,3.27,3.27,0,0,1,1.31.23,2.3,2.3,0,0,1,.89.62,2.56,2.56,0,0,1,.51,1,4.08,4.08,0,0,1,.16,1.19Zm-1.66-.49a1.86,1.86,0,0,0-.29-1.14,1.12,1.12,0,0,0-1-.41,1.34,1.34,0,0,0-.58.12,1.16,1.16,0,0,0-.4.33,1.32,1.32,0,0,0-.24.49,2.36,2.36,0,0,0-.1.61Z"/><path d="M59.44,45.41c0,.16,0,.29,0,.4a.76.76,0,0,1,0,.25.27.27,0,0,1-.07.12.2.2,0,0,1-.11,0,.25.25,0,0,1-.12,0l-.16,0-.19,0a.73.73,0,0,0-.22,0,.75.75,0,0,0-.29.06,1.4,1.4,0,0,0-.3.18,2,2,0,0,0-.32.33,5.37,5.37,0,0,0-.36.51v3.8a.19.19,0,0,1,0,.12.26.26,0,0,1-.14.08.8.8,0,0,1-.26,0l-.42,0-.42,0a.92.92,0,0,1-.26,0,.37.37,0,0,1-.14-.08.19.19,0,0,1,0-.12v-6.1a.21.21,0,0,1,0-.12.33.33,0,0,1,.13-.09,1,1,0,0,1,.23-.05h.71a.8.8,0,0,1,.22.05.29.29,0,0,1,.12.09.21.21,0,0,1,0,.12v.76a5.16,5.16,0,0,1,.45-.57,3.07,3.07,0,0,1,.41-.35,1,1,0,0,1,.38-.18,1.65,1.65,0,0,1,.38,0h.19l.21,0,.19.06.13.06a.35.35,0,0,1,.05.08.81.81,0,0,1,0,.11,1.09,1.09,0,0,1,0,.22C59.44,45.11,59.44,45.24,59.44,45.41Z"/><path d="M66,44.83v.08s0,.07,0,.11l0,.13a1.54,1.54,0,0,1,0,.17L64,50.84a.48.48,0,0,1-.09.19.38.38,0,0,1-.19.11,1.49,1.49,0,0,1-.37.06h-.59l-.6,0a2.06,2.06,0,0,1-.35,0,.39.39,0,0,1-.19-.12.51.51,0,0,1-.09-.18l-1.84-5.52q0-.14-.06-.24a.69.69,0,0,1,0-.16v-.09a.19.19,0,0,1,0-.12.26.26,0,0,1,.13-.08.8.8,0,0,1,.26-.05h.88a1.2,1.2,0,0,1,.26.05.27.27,0,0,1,.15.09,1,1,0,0,1,.06.14l1.39,4.48,0,.17,0-.17,1.37-4.48a.3.3,0,0,1,.06-.14.34.34,0,0,1,.14-.09l.26-.05h.83a.68.68,0,0,1,.25.05.22.22,0,0,1,.13.08A.27.27,0,0,1,66,44.83Z"/><path d="M68.54,42.77a.93.93,0,0,1-.22.72,1.16,1.16,0,0,1-.78.2,1.13,1.13,0,0,1-.78-.19.92.92,0,0,1-.21-.69,1,1,0,0,1,.21-.72,1.12,1.12,0,0,1,.79-.2,1.15,1.15,0,0,1,.78.19A.92.92,0,0,1,68.54,42.77Zm-.13,8.17a.21.21,0,0,1,0,.12.26.26,0,0,1-.14.08.8.8,0,0,1-.26,0l-.42,0-.41,0a.93.93,0,0,1-.27,0,.37.37,0,0,1-.14-.08.28.28,0,0,1,0-.12V44.85a.28.28,0,0,1,0-.12.56.56,0,0,1,.14-.09,1.46,1.46,0,0,1,.27,0,2.49,2.49,0,0,1,.41,0,2.56,2.56,0,0,1,.42,0,1.2,1.2,0,0,1,.26,0,.33.33,0,0,1,.14.09.21.21,0,0,1,0,.12Z"/><path d="M74.46,50a2.19,2.19,0,0,1,0,.29,1.25,1.25,0,0,1,0,.21c0,.05,0,.09,0,.13a.53.53,0,0,1-.11.13,1.84,1.84,0,0,1-.28.19,2.34,2.34,0,0,1-.45.2,3,3,0,0,1-.55.14,3.08,3.08,0,0,1-.61.06,3.24,3.24,0,0,1-1.25-.22,2.3,2.3,0,0,1-.91-.65,2.81,2.81,0,0,1-.56-1A4.67,4.67,0,0,1,69.47,48a5,5,0,0,1,.23-1.58,3.19,3.19,0,0,1,.64-1.1,2.55,2.55,0,0,1,1-.65,3.53,3.53,0,0,1,1.23-.21,3.27,3.27,0,0,1,.54,0c.17,0,.34.08.49.13a3.14,3.14,0,0,1,.41.19,1.39,1.39,0,0,1,.26.18.77.77,0,0,1,.1.12.46.46,0,0,1,0,.14c0,.05,0,.12,0,.2a2.44,2.44,0,0,1,0,.29,1.51,1.51,0,0,1-.07.56c0,.1-.1.16-.18.16a.44.44,0,0,1-.24-.1l-.31-.21A1.91,1.91,0,0,0,73.2,46a1.44,1.44,0,0,0-.58-.1,1.17,1.17,0,0,0-1,.52,2.72,2.72,0,0,0-.35,1.51,3.75,3.75,0,0,0,.09.87,1.64,1.64,0,0,0,.26.63,1.12,1.12,0,0,0,.43.38,1.52,1.52,0,0,0,.62.12,1.63,1.63,0,0,0,.61-.1,2.38,2.38,0,0,0,.45-.24,3.38,3.38,0,0,0,.32-.23.41.41,0,0,1,.22-.11.17.17,0,0,1,.1,0,.23.23,0,0,1,.06.13,1.19,1.19,0,0,1,0,.24A3.41,3.41,0,0,1,74.46,50Z"/><path d="M77.27,42.77a1,1,0,0,1-.21.72,1.68,1.68,0,0,1-1.57,0,1.31,1.31,0,0,1,0-1.41,1.12,1.12,0,0,1,.79-.2,1.17,1.17,0,0,1,.78.19A1,1,0,0,1,77.27,42.77Zm-.13,8.17a.19.19,0,0,1,0,.12.26.26,0,0,1-.14.08.8.8,0,0,1-.26,0l-.42,0-.42,0a.92.92,0,0,1-.26,0,.37.37,0,0,1-.14-.08.28.28,0,0,1,0-.12V44.85a.28.28,0,0,1,0-.12.56.56,0,0,1,.14-.09l.26,0a4.42,4.42,0,0,1,.84,0,1.2,1.2,0,0,1,.26,0,.33.33,0,0,1,.14.09.19.19,0,0,1,0,.12Z"/><path d="M84.75,47.83a4.55,4.55,0,0,1-.21,1.42,3,3,0,0,1-.62,1.11,2.68,2.68,0,0,1-1,.71,3.9,3.9,0,0,1-1.47.26A4,4,0,0,1,80,51.1a2.5,2.5,0,0,1-1-.66,2.64,2.64,0,0,1-.59-1A4.88,4.88,0,0,1,78.21,48a4.62,4.62,0,0,1,.21-1.43,3,3,0,0,1,.62-1.1,2.81,2.81,0,0,1,1-.72,3.81,3.81,0,0,1,1.46-.25,4,4,0,0,1,1.42.22,2.52,2.52,0,0,1,1,.65,2.66,2.66,0,0,1,.58,1.06A4.89,4.89,0,0,1,84.75,47.83ZM83,47.89a4.35,4.35,0,0,0-.07-.83,1.92,1.92,0,0,0-.24-.66,1.24,1.24,0,0,0-.45-.43,1.42,1.42,0,0,0-.72-.16,1.57,1.57,0,0,0-.67.14,1.16,1.16,0,0,0-.47.41,2,2,0,0,0-.28.65,3.72,3.72,0,0,0-.09.86,4.17,4.17,0,0,0,.08.83,2,2,0,0,0,.24.66,1.12,1.12,0,0,0,.45.44,1.52,1.52,0,0,0,.71.15,1.45,1.45,0,0,0,.68-.14,1.21,1.21,0,0,0,.47-.4,1.83,1.83,0,0,0,.28-.65A4.45,4.45,0,0,0,83,47.89Z"/><path d="M90.12,49.21a2,2,0,0,1-.2.92,1.76,1.76,0,0,1-.55.66,2.34,2.34,0,0,1-.84.4,3.86,3.86,0,0,1-1,.14,3.34,3.34,0,0,1-.65-.06,3.63,3.63,0,0,1-.56-.12,3.41,3.41,0,0,1-.41-.17.83.83,0,0,1-.24-.15.49.49,0,0,1-.12-.23,2.31,2.31,0,0,1,0-.45,2.58,2.58,0,0,1,0-.32.78.78,0,0,1,0-.19s0-.08.07-.09a.15.15,0,0,1,.1,0,.5.5,0,0,1,.22.09l.37.19a4.69,4.69,0,0,0,.51.19,2.17,2.17,0,0,0,.65.09,1.73,1.73,0,0,0,.42,0,.89.89,0,0,0,.31-.14.53.53,0,0,0,.2-.22.68.68,0,0,0,.07-.32.53.53,0,0,0-.12-.35,1.33,1.33,0,0,0-.34-.26,3.49,3.49,0,0,0-.47-.2L87,48.33l-.54-.27a2.07,2.07,0,0,1-.47-.37,1.79,1.79,0,0,1-.34-.53,2,2,0,0,1-.12-.73,1.81,1.81,0,0,1,.17-.81,1.73,1.73,0,0,1,.49-.62,2.32,2.32,0,0,1,.78-.41,3.74,3.74,0,0,1,1-.14,3.43,3.43,0,0,1,.56,0,4.45,4.45,0,0,1,.48.1,1.92,1.92,0,0,1,.37.14,1,1,0,0,1,.22.12.41.41,0,0,1,.09.1.5.5,0,0,1,0,.13s0,.1,0,.17,0,.16,0,.27,0,.22,0,.3a.69.69,0,0,1,0,.18.13.13,0,0,1-.06.09.17.17,0,0,1-.1,0,.64.64,0,0,1-.19-.07l-.32-.16-.45-.15a2.17,2.17,0,0,0-.59-.07,1.54,1.54,0,0,0-.4,0,.81.81,0,0,0-.28.14.56.56,0,0,0-.17.21.71.71,0,0,0,0,.26.48.48,0,0,0,.13.35,1,1,0,0,0,.34.25,2.67,2.67,0,0,0,.48.21l.55.21a5.4,5.4,0,0,1,.55.26,1.92,1.92,0,0,1,.48.37,1.87,1.87,0,0,1,.34.52A1.81,1.81,0,0,1,90.12,49.21Z"/><path d="M93.15,49.91a3.94,3.94,0,0,1,0,.5,3.15,3.15,0,0,1-.09.42,2.54,2.54,0,0,1-.16.38,2.06,2.06,0,0,1-.24.39l-.91,1.31a.65.65,0,0,1-.11.12.37.37,0,0,1-.14.07l-.2,0-.29,0-.32,0a.44.44,0,0,1-.18,0,.12.12,0,0,1-.06-.09.35.35,0,0,1,0-.13L91.29,51V49.91a1,1,0,0,1,.06-.37.43.43,0,0,1,.17-.22.67.67,0,0,1,.29-.1,2.76,2.76,0,0,1,.44,0,2.54,2.54,0,0,1,.41,0,.63.63,0,0,1,.28.1.41.41,0,0,1,.16.22A1,1,0,0,1,93.15,49.91Z"/><path d="M103.37,50.94a.19.19,0,0,1,0,.12.26.26,0,0,1-.13.08.93.93,0,0,1-.27,0l-.41,0-.42,0a.8.8,0,0,1-.26,0,.3.3,0,0,1-.14-.08.19.19,0,0,1,0-.12V46H99.4v4.94a.28.28,0,0,1,0,.12.37.37,0,0,1-.14.08.87.87,0,0,1-.27,0l-.42,0-.41,0a.8.8,0,0,1-.26,0,.26.26,0,0,1-.14-.08.19.19,0,0,1,0-.12V46h-.77a.21.21,0,0,1-.19-.16,1.67,1.67,0,0,1-.07-.54,2.92,2.92,0,0,1,0-.33,1,1,0,0,1,0-.22.24.24,0,0,1,.08-.11.24.24,0,0,1,.12,0h.76v-.54A3.92,3.92,0,0,1,97.81,43a2,2,0,0,1,.38-.78,1.57,1.57,0,0,1,.66-.46,2.63,2.63,0,0,1,.93-.15h.31l.29,0,.24.06a.45.45,0,0,1,.14.07l.06.09a.34.34,0,0,1,0,.12c0,.05,0,.12,0,.2v.29a2.32,2.32,0,0,1,0,.46c0,.09-.08.14-.15.14l-.09,0-.13,0-.16,0h-.24a.6.6,0,0,0-.53.24,1.56,1.56,0,0,0-.16.82v.58h3.46a.52.52,0,0,1,.38.11.43.43,0,0,1,.13.36Zm.13-8.15a1.8,1.8,0,0,1,0,.43.63.63,0,0,1-.15.28.71.71,0,0,1-.3.15,2.78,2.78,0,0,1-.94,0,.61.61,0,0,1-.3-.15.56.56,0,0,1-.16-.28,1.75,1.75,0,0,1,0-.43,1.67,1.67,0,0,1,0-.42.56.56,0,0,1,.16-.28.71.71,0,0,1,.3-.16,2.78,2.78,0,0,1,.94,0,.86.86,0,0,1,.3.16.63.63,0,0,1,.15.28A1.71,1.71,0,0,1,103.5,42.79Z"/><path d="M106.55,50.94a.28.28,0,0,1,0,.12.35.35,0,0,1-.15.08.8.8,0,0,1-.26,0l-.41,0-.42,0a.8.8,0,0,1-.26,0,.35.35,0,0,1-.15-.08.28.28,0,0,1,0-.12V42a.28.28,0,0,1,0-.13.49.49,0,0,1,.15-.09l.26-.06.42,0,.41,0,.26.06a.49.49,0,0,1,.15.09.28.28,0,0,1,0,.13Z"/><path d="M109.84,42.77a.93.93,0,0,1-.22.72,1.16,1.16,0,0,1-.78.2,1.18,1.18,0,0,1-.79-.19,1.31,1.31,0,0,1,0-1.41,1.12,1.12,0,0,1,.79-.2,1.17,1.17,0,0,1,.78.19A.92.92,0,0,1,109.84,42.77Zm-.14,8.17a.19.19,0,0,1,0,.12.26.26,0,0,1-.14.08.8.8,0,0,1-.26,0l-.42,0-.41,0a.93.93,0,0,1-.27,0,.37.37,0,0,1-.14-.08.28.28,0,0,1,0-.12V44.85a.28.28,0,0,1,0-.12.56.56,0,0,1,.14-.09,1.46,1.46,0,0,1,.27,0,2.49,2.49,0,0,1,.41,0,2.56,2.56,0,0,1,.42,0,1.2,1.2,0,0,1,.26,0,.33.33,0,0,1,.14.09.19.19,0,0,1,0,.12Z"/><path d="M116.34,51a.21.21,0,0,1-.07.15.68.68,0,0,1-.22.08l-.43,0-.45,0a.55.55,0,0,1-.2-.08.2.2,0,0,1-.06-.15v-.49a2.73,2.73,0,0,1-.85.63,2.54,2.54,0,0,1-1.07.23,3.15,3.15,0,0,1-.9-.13,1.9,1.9,0,0,1-.7-.38,1.64,1.64,0,0,1-.46-.61,2.14,2.14,0,0,1-.16-.87,1.92,1.92,0,0,1,.2-.92,1.7,1.7,0,0,1,.63-.65,3,3,0,0,1,1-.38,7.56,7.56,0,0,1,1.43-.12h.6V46.9a2,2,0,0,0-.06-.51.79.79,0,0,0-.19-.35.81.81,0,0,0-.36-.22,2.15,2.15,0,0,0-.55-.06,3,3,0,0,0-.77.09l-.6.21-.43.21a.59.59,0,0,1-.28.1.24.24,0,0,1-.14,0,.33.33,0,0,1-.09-.13.71.71,0,0,1-.06-.22,2.64,2.64,0,0,1,0-.29,1.58,1.58,0,0,1,0-.34.71.71,0,0,1,.13-.22,1.67,1.67,0,0,1,.34-.22,3.85,3.85,0,0,1,.56-.22,6,6,0,0,1,.7-.17,4.93,4.93,0,0,1,.78-.06,4.84,4.84,0,0,1,1.23.14,2.09,2.09,0,0,1,.84.43,1.62,1.62,0,0,1,.48.75,3.5,3.5,0,0,1,.15,1.09Zm-1.69-2.61H114a3.62,3.62,0,0,0-.71.06,1.42,1.42,0,0,0-.48.18.77.77,0,0,0-.27.3.87.87,0,0,0-.08.4.77.77,0,0,0,.24.6,1,1,0,0,0,.67.22,1.29,1.29,0,0,0,.67-.18,3.27,3.27,0,0,0,.62-.54Z"/><path d="M119.49,50.94a.19.19,0,0,1,0,.12.26.26,0,0,1-.14.08.8.8,0,0,1-.26,0l-.42,0-.41,0a.93.93,0,0,1-.27,0,.37.37,0,0,1-.14-.08.19.19,0,0,1,0-.12V42a.2.2,0,0,1,0-.13.56.56,0,0,1,.14-.09l.27-.06.41,0,.42,0,.26.06a.33.33,0,0,1,.14.09.2.2,0,0,1,0,.13Z"/><path d="M126.56,47.71a.65.65,0,0,1-.14.47.53.53,0,0,1-.38.15h-3.72a2.52,2.52,0,0,0,.1.7,1.27,1.27,0,0,0,.29.54,1.35,1.35,0,0,0,.52.34A2.16,2.16,0,0,0,124,50a3.68,3.68,0,0,0,.79-.07,5.39,5.39,0,0,0,.6-.14l.41-.14a.67.67,0,0,1,.27-.07l.1,0a.22.22,0,0,1,.07.09.61.61,0,0,1,0,.17v.54c0,.08,0,.14,0,.19a.34.34,0,0,1,0,.12.25.25,0,0,1-.08.1.66.66,0,0,1-.24.13,3,3,0,0,1-.5.16c-.21,0-.44.1-.71.14a5.53,5.53,0,0,1-.84.06,4.4,4.4,0,0,1-1.43-.21,2.5,2.5,0,0,1-1-.62,2.62,2.62,0,0,1-.62-1,5.12,5.12,0,0,1-.2-1.49,4.5,4.5,0,0,1,.22-1.47,3.06,3.06,0,0,1,.61-1.11,2.73,2.73,0,0,1,1-.69,3.4,3.4,0,0,1,1.31-.24,3.22,3.22,0,0,1,1.3.23,2.34,2.34,0,0,1,.9.62,2.56,2.56,0,0,1,.51,1,4.08,4.08,0,0,1,.16,1.19Zm-1.67-.49a1.73,1.73,0,0,0-.29-1.14,1.09,1.09,0,0,0-1-.41,1.29,1.29,0,0,0-.57.12,1.16,1.16,0,0,0-.4.33,1.51,1.51,0,0,0-.25.49,2.88,2.88,0,0,0-.1.61Z"/><path d="M132,49.21a2,2,0,0,1-.19.92,1.86,1.86,0,0,1-.55.66,2.51,2.51,0,0,1-.84.4,4,4,0,0,1-1.06.14,3.42,3.42,0,0,1-.65-.06,3.91,3.91,0,0,1-.56-.12,3.41,3.41,0,0,1-.41-.17.83.83,0,0,1-.24-.15.41.41,0,0,1-.11-.23,1.72,1.72,0,0,1,0-.45,2.92,2.92,0,0,1,0-.32.78.78,0,0,1,0-.19s0-.08.07-.09a.17.17,0,0,1,.1,0,.46.46,0,0,1,.22.09l.37.19a4.69,4.69,0,0,0,.51.19,2.19,2.19,0,0,0,.66.09,1.7,1.7,0,0,0,.41,0,1,1,0,0,0,.32-.14.6.6,0,0,0,.2-.22.83.83,0,0,0,.07-.32.54.54,0,0,0-.13-.35,1.27,1.27,0,0,0-.33-.26,3.66,3.66,0,0,0-.48-.2l-.54-.21q-.27-.12-.54-.27a2.07,2.07,0,0,1-.47-.37,1.59,1.59,0,0,1-.33-.53,1.8,1.8,0,0,1-.13-.73,2,2,0,0,1,.17-.81A1.85,1.85,0,0,1,128,45a2.37,2.37,0,0,1,.79-.41,3.61,3.61,0,0,1,1-.14,3.43,3.43,0,0,1,.56,0l.49.1a2.21,2.21,0,0,1,.37.14.9.9,0,0,1,.21.12.27.27,0,0,1,.09.1.28.28,0,0,1,0,.13s0,.1,0,.17a2.1,2.1,0,0,1,0,.27,2.63,2.63,0,0,1,0,.3c0,.07,0,.14,0,.18s0,.08-.07.09a.17.17,0,0,1-.1,0,.64.64,0,0,1-.19-.07l-.32-.16-.45-.15a2.12,2.12,0,0,0-.59-.07,1.59,1.59,0,0,0-.4,0,.81.81,0,0,0-.28.14.68.68,0,0,0-.17.21.71.71,0,0,0,0,.26.48.48,0,0,0,.13.35,1.11,1.11,0,0,0,.34.25,2.67,2.67,0,0,0,.48.21c.18.06.37.13.55.21a3.94,3.94,0,0,1,.55.26,1.92,1.92,0,0,1,.48.37,1.87,1.87,0,0,1,.34.52A1.81,1.81,0,0,1,132,49.21Z"/><path d="M139.42,51.17l-.74,2.16a.47.47,0,0,1-.33.25,3.26,3.26,0,0,1-.8.07l-.44,0a.67.67,0,0,1-.25-.08.17.17,0,0,1-.08-.14.32.32,0,0,1,0-.2l.81-2a.48.48,0,0,1-.16-.13.54.54,0,0,1-.11-.18l-2.09-5.6a1.19,1.19,0,0,1-.09-.37.24.24,0,0,1,.08-.2.53.53,0,0,1,.28-.1l.51,0h.47a.6.6,0,0,1,.26.05.3.3,0,0,1,.15.12A1.37,1.37,0,0,1,137,45l1.44,4.08h0l1.31-4.17a.45.45,0,0,1,.11-.23.41.41,0,0,1,.21-.09l.53,0,.49,0a.65.65,0,0,1,.29.11.24.24,0,0,1,.09.2.88.88,0,0,1-.06.29Z"/><path d="M149.74,50a2.44,2.44,0,0,1,0,.29q0,.12,0,.21a.5.5,0,0,1,0,.13.53.53,0,0,1-.11.13,1.43,1.43,0,0,1-.28.19,2.34,2.34,0,0,1-.45.2,3,3,0,0,1-.55.14,3.08,3.08,0,0,1-.61.06,3.24,3.24,0,0,1-1.25-.22,2.38,2.38,0,0,1-.91-.65,2.81,2.81,0,0,1-.56-1,5.7,5.7,0,0,1,0-3,3.19,3.19,0,0,1,.64-1.1,2.63,2.63,0,0,1,1-.65,3.53,3.53,0,0,1,1.23-.21,3.12,3.12,0,0,1,.54,0,4.93,4.93,0,0,1,.49.13,2.63,2.63,0,0,1,.41.19,1.39,1.39,0,0,1,.26.18l.11.12a.47.47,0,0,1,0,.14.94.94,0,0,1,0,.2,2.44,2.44,0,0,1,0,.29,1.51,1.51,0,0,1-.07.56c0,.1-.1.16-.18.16a.47.47,0,0,1-.24-.1l-.31-.21a2.06,2.06,0,0,0-.42-.21,1.52,1.52,0,0,0-.59-.1,1.17,1.17,0,0,0-1,.52,2.72,2.72,0,0,0-.35,1.51,3.75,3.75,0,0,0,.09.87,2,2,0,0,0,.26.63,1.15,1.15,0,0,0,.44.38,1.44,1.44,0,0,0,.61.12,1.59,1.59,0,0,0,.61-.1,2.38,2.38,0,0,0,.45-.24,3.38,3.38,0,0,0,.32-.23.41.41,0,0,1,.22-.11.15.15,0,0,1,.1,0,.32.32,0,0,1,.07.13,1.29,1.29,0,0,1,0,.24A3.41,3.41,0,0,1,149.74,50Z"/><path d="M156.8,47.83a4.87,4.87,0,0,1-.2,1.42,3,3,0,0,1-.63,1.11,2.64,2.64,0,0,1-1,.71,3.9,3.9,0,0,1-1.47.26A4.06,4.06,0,0,1,152,51.1a2.57,2.57,0,0,1-1-.66,2.62,2.62,0,0,1-.58-1,4.88,4.88,0,0,1-.19-1.44,4.62,4.62,0,0,1,.2-1.43,2.91,2.91,0,0,1,.63-1.1,2.77,2.77,0,0,1,1-.72,3.9,3.9,0,0,1,1.47-.25,4.07,4.07,0,0,1,1.42.22,2.55,2.55,0,0,1,1,.65,2.68,2.68,0,0,1,.59,1.06A4.9,4.9,0,0,1,156.8,47.83Zm-1.77.06a4.35,4.35,0,0,0-.07-.83,1.93,1.93,0,0,0-.25-.66,1.16,1.16,0,0,0-.45-.43,1.41,1.41,0,0,0-.71-.16,1.54,1.54,0,0,0-.67.14,1.26,1.26,0,0,0-.48.41,2,2,0,0,0-.27.65,3.69,3.69,0,0,0-.1.86,4.17,4.17,0,0,0,.08.83,2,2,0,0,0,.24.66,1.14,1.14,0,0,0,.46.44,1.52,1.52,0,0,0,.71.15,1.41,1.41,0,0,0,.67-.14,1.24,1.24,0,0,0,.48-.4,2,2,0,0,0,.27-.65A3.75,3.75,0,0,0,155,47.89Z"/><path d="M163.7,50.94a.19.19,0,0,1,0,.12.26.26,0,0,1-.13.08.93.93,0,0,1-.27,0l-.41,0-.42,0a.8.8,0,0,1-.26,0,.3.3,0,0,1-.14-.08.19.19,0,0,1,0-.12V47.46a2.6,2.6,0,0,0-.07-.7,1.3,1.3,0,0,0-.18-.43.86.86,0,0,0-.32-.28A1,1,0,0,0,161,46a1.12,1.12,0,0,0-.66.24,3.46,3.46,0,0,0-.7.69v4.06a.19.19,0,0,1,0,.12.3.3,0,0,1-.14.08.8.8,0,0,1-.26,0l-.42,0-.42,0a.86.86,0,0,1-.26,0,.37.37,0,0,1-.14-.08.19.19,0,0,1,0-.12v-6.1a.21.21,0,0,1,0-.12.33.33,0,0,1,.13-.09,1,1,0,0,1,.23-.05H159a.8.8,0,0,1,.22.05.29.29,0,0,1,.12.09.21.21,0,0,1,0,.12v.7a4.16,4.16,0,0,1,1-.82,2.34,2.34,0,0,1,1.09-.27,2.55,2.55,0,0,1,1.05.2,2,2,0,0,1,.69.56,2.43,2.43,0,0,1,.38.83,4.65,4.65,0,0,1,.11,1.13Z"/><path d="M52.68,65.69a.19.19,0,0,1,0,.12.25.25,0,0,1-.13.09.83.83,0,0,1-.26.06l-.42,0-.42,0a.77.77,0,0,1-.26-.06.24.24,0,0,1-.14-.09.28.28,0,0,1,0-.12v-2.9a5.09,5.09,0,0,1-.47.39,2.83,2.83,0,0,1-.47.27,2.08,2.08,0,0,1-.48.16,2.87,2.87,0,0,1-.52,0,2.26,2.26,0,0,1-1.14-.27,2.34,2.34,0,0,1-.77-.73,3.2,3.2,0,0,1-.43-1.07,6,6,0,0,1-.14-1.29,5.45,5.45,0,0,1,.18-1.46,3.17,3.17,0,0,1,.52-1.11,2.38,2.38,0,0,1,.84-.71,2.73,2.73,0,0,1,1.64-.19,1.46,1.46,0,0,1,.46.18,2.63,2.63,0,0,1,.49.33c.16.13.35.3.55.49v-.66a.16.16,0,0,1,0-.12s.06-.06.12-.09a.9.9,0,0,1,.22-.05h.7a.9.9,0,0,1,.22.05c.06,0,.1,0,.12.09a.21.21,0,0,1,0,.12ZM51,59.19a3.93,3.93,0,0,0-.7-.71,1.24,1.24,0,0,0-.71-.24,1,1,0,0,0-.58.16,1.23,1.23,0,0,0-.39.45,2.47,2.47,0,0,0-.22.63,4.05,4.05,0,0,0-.07.7,4.56,4.56,0,0,0,.06.75,2.36,2.36,0,0,0,.2.65,1.29,1.29,0,0,0,.38.45,1,1,0,0,0,.58.17,1.15,1.15,0,0,0,.69-.22,2.38,2.38,0,0,0,.36-.3c.12-.13.26-.28.4-.46Z"/><path d="M59.92,63.27a.28.28,0,0,1,0,.12.23.23,0,0,1-.12.08,1,1,0,0,1-.22.05l-.36,0-.36,0a.8.8,0,0,1-.22-.05.23.23,0,0,1-.12-.08.28.28,0,0,1,0-.12v-.71a3.57,3.57,0,0,1-1,.82,2.47,2.47,0,0,1-2.14.07,1.75,1.75,0,0,1-.69-.56,2.29,2.29,0,0,1-.38-.82,5.4,5.4,0,0,1-.11-1.17V57.17a.16.16,0,0,1,0-.12s.07-.06.13-.09a1.46,1.46,0,0,1,.27-.05h.83a1.2,1.2,0,0,1,.26.05c.07,0,.12,0,.14.09a.16.16,0,0,1,0,.12v3.44a3.3,3.3,0,0,0,.06.73,1.62,1.62,0,0,0,.19.44,1.06,1.06,0,0,0,.32.28,1,1,0,0,0,.46.1,1.12,1.12,0,0,0,.66-.24,4.18,4.18,0,0,0,.71-.7v-4a.21.21,0,0,1,0-.12.31.31,0,0,1,.14-.09,1.33,1.33,0,0,1,.26-.05h.84a1.33,1.33,0,0,1,.26.05c.06,0,.11,0,.13.09a.17.17,0,0,1,.05.12Z"/><path d="M67,60a.71.71,0,0,1-.14.47.53.53,0,0,1-.39.15H62.76a2.53,2.53,0,0,0,.09.7,1.24,1.24,0,0,0,.3.54,1.21,1.21,0,0,0,.52.34,2.13,2.13,0,0,0,.76.12,3.74,3.74,0,0,0,.79-.07,4.71,4.71,0,0,0,.59-.14l.42-.14a.63.63,0,0,1,.26-.07l.11,0a.35.35,0,0,1,.06.09.61.61,0,0,1,0,.17,2.44,2.44,0,0,1,0,.29,1.85,1.85,0,0,1,0,.25.82.82,0,0,1,0,.18.22.22,0,0,1,0,.13.36.36,0,0,1-.07.1.77.77,0,0,1-.24.13,3.94,3.94,0,0,1-.51.16c-.2,0-.44.1-.7.14a5.77,5.77,0,0,1-.85.06,4.33,4.33,0,0,1-1.42-.21,2.61,2.61,0,0,1-1-.62,2.72,2.72,0,0,1-.61-1,5.12,5.12,0,0,1-.2-1.49,4.79,4.79,0,0,1,.21-1.47,3,3,0,0,1,.62-1.11,2.64,2.64,0,0,1,1-.69,3.35,3.35,0,0,1,1.3-.24,3.23,3.23,0,0,1,1.31.23,2.3,2.3,0,0,1,.89.62,2.56,2.56,0,0,1,.51.95A4.07,4.07,0,0,1,67,59.77Zm-1.67-.49A1.76,1.76,0,0,0,65,58.41a1.12,1.12,0,0,0-1-.41,1.26,1.26,0,0,0-.57.12,1.08,1.08,0,0,0-.4.33,1.51,1.51,0,0,0-.25.49,2.36,2.36,0,0,0-.1.61Zm-1-5.37a.53.53,0,0,1,.11-.14l.17-.08a1,1,0,0,1,.26,0l.39,0a3.1,3.1,0,0,1,.49,0,.61.61,0,0,1,.26.08.12.12,0,0,1,.07.12.21.21,0,0,1-.07.14l-1.32,1.59-.11.11a.46.46,0,0,1-.14.07l-.22,0h-.7a.5.5,0,0,1-.2-.07.12.12,0,0,1,0-.11.31.31,0,0,1,.07-.16Z"/><path d="M77.18,60.16a4.87,4.87,0,0,1-.2,1.42,3,3,0,0,1-.62,1.1,2.7,2.7,0,0,1-1,.72,3.9,3.9,0,0,1-1.47.26,4,4,0,0,1-1.41-.23,2.43,2.43,0,0,1-1-.66,2.61,2.61,0,0,1-.59-1.06,4.76,4.76,0,0,1-.19-1.43,4.62,4.62,0,0,1,.21-1.43,2.89,2.89,0,0,1,.62-1.1,2.86,2.86,0,0,1,1-.72A3.9,3.9,0,0,1,74,56.78a4,4,0,0,1,1.42.22,2.59,2.59,0,0,1,1,.65A2.79,2.79,0,0,1,77,58.71,4.9,4.9,0,0,1,77.18,60.16Zm-1.77.06a4.35,4.35,0,0,0-.07-.83,2.15,2.15,0,0,0-.24-.66,1.26,1.26,0,0,0-.46-.43,1.38,1.38,0,0,0-.71-.16,1.57,1.57,0,0,0-.67.14,1.16,1.16,0,0,0-.47.41,2,2,0,0,0-.28.65,3.72,3.72,0,0,0-.09.86,4.21,4.21,0,0,0,.07.83,1.78,1.78,0,0,0,.25.66,1.12,1.12,0,0,0,.45.44,1.52,1.52,0,0,0,.71.15,1.45,1.45,0,0,0,.68-.14,1.21,1.21,0,0,0,.47-.4,1.82,1.82,0,0,0,.27-.65A3.75,3.75,0,0,0,75.41,60.22Z"/><path d="M81.87,62.67a2.69,2.69,0,0,1,0,.46.57.57,0,0,1-.1.22.69.69,0,0,1-.19.12l-.28.09-.34,0a2.43,2.43,0,0,1-.38,0,2.88,2.88,0,0,1-.89-.13,1.48,1.48,0,0,1-.62-.4,1.66,1.66,0,0,1-.37-.68,4,4,0,0,1-.11-1V58.33h-.73a.21.21,0,0,1-.2-.16,1.43,1.43,0,0,1-.07-.54,2.92,2.92,0,0,1,0-.33,1,1,0,0,1,0-.22.24.24,0,0,1,.08-.11l.12,0h.73V55.58a.2.2,0,0,1,0-.13.36.36,0,0,1,.13-.09,1.46,1.46,0,0,1,.27,0,2.49,2.49,0,0,1,.41,0,2.56,2.56,0,0,1,.42,0,1.46,1.46,0,0,1,.27,0,.48.48,0,0,1,.13.09.2.2,0,0,1,0,.13v1.36H81.6a.21.21,0,0,1,.12,0,.24.24,0,0,1,.08.11.64.64,0,0,1,.06.22,3.22,3.22,0,0,1,0,.33,1.43,1.43,0,0,1-.07.54.21.21,0,0,1-.19.16H80.27v2.86a1.44,1.44,0,0,0,.16.75.6.6,0,0,0,.56.25l.25,0a1.06,1.06,0,0,0,.19-.06l.15,0a.18.18,0,0,1,.1,0,.11.11,0,0,1,.08,0,.29.29,0,0,1,.06.1,1.49,1.49,0,0,1,0,.19A2.92,2.92,0,0,1,81.87,62.67Z"/><path d="M86.76,57.74c0,.16,0,.29,0,.4a1.31,1.31,0,0,1,0,.25.27.27,0,0,1-.07.12.2.2,0,0,1-.11,0l-.13,0-.15-.05-.19,0a.78.78,0,0,0-.22,0,.72.72,0,0,0-.29.06,1.19,1.19,0,0,0-.3.18,2,2,0,0,0-.32.33,5.37,5.37,0,0,0-.36.51v3.8a.19.19,0,0,1,0,.12.37.37,0,0,1-.14.08,1.33,1.33,0,0,1-.26.05l-.42,0-.42,0a1.33,1.33,0,0,1-.26-.05.3.3,0,0,1-.14-.08.19.19,0,0,1,0-.12v-6.1a.21.21,0,0,1,0-.12S82.94,57,83,57a.9.9,0,0,1,.22-.05h.72a.9.9,0,0,1,.22.05s.09,0,.11.09a.16.16,0,0,1,0,.12v.76a5.16,5.16,0,0,1,.45-.57,3,3,0,0,1,.4-.35,1.44,1.44,0,0,1,.38-.18,1.74,1.74,0,0,1,.39,0h.19l.21,0,.19.06.12.06a.21.21,0,0,1,.06.08.81.81,0,0,1,0,.11s0,.12,0,.22S86.76,57.57,86.76,57.74Z"/><path d="M93.53,60.16a4.55,4.55,0,0,1-.21,1.42,2.77,2.77,0,0,1-.62,1.1,2.66,2.66,0,0,1-1,.72,3.9,3.9,0,0,1-1.47.26,4,4,0,0,1-1.42-.23,2.5,2.5,0,0,1-1.58-1.72,4.75,4.75,0,0,1-.2-1.43,4.62,4.62,0,0,1,.21-1.43,2.91,2.91,0,0,1,.63-1.1,2.77,2.77,0,0,1,1-.72,3.9,3.9,0,0,1,1.47-.25,4.07,4.07,0,0,1,1.42.22,2.55,2.55,0,0,1,1,.65,2.68,2.68,0,0,1,.59,1.06A4.9,4.9,0,0,1,93.53,60.16Zm-1.77.06a5.35,5.35,0,0,0-.07-.83,1.93,1.93,0,0,0-.25-.66A1.16,1.16,0,0,0,91,58.3a1.42,1.42,0,0,0-.72-.16,1.53,1.53,0,0,0-.66.14,1.19,1.19,0,0,0-.48.41,2,2,0,0,0-.27.65,3.25,3.25,0,0,0-.09.86,4.21,4.21,0,0,0,.07.83,2,2,0,0,0,.24.66,1.14,1.14,0,0,0,.46.44,1.52,1.52,0,0,0,.71.15,1.48,1.48,0,0,0,.68-.14,1.29,1.29,0,0,0,.47-.4,2,2,0,0,0,.27-.65A3.75,3.75,0,0,0,91.76,60.22Z"/><path d="M98.9,61.54a2,2,0,0,1-.19.92,2,2,0,0,1-.55.66,2.51,2.51,0,0,1-.84.4,4,4,0,0,1-1.06.14,3.49,3.49,0,0,1-.65-.06,2.88,2.88,0,0,1-.56-.13,2.34,2.34,0,0,1-.41-.16.83.83,0,0,1-.24-.15.61.61,0,0,1-.11-.23,1.72,1.72,0,0,1,0-.45,2.92,2.92,0,0,1,0-.32.78.78,0,0,1,0-.19s0-.08.07-.09a.17.17,0,0,1,.1,0,.46.46,0,0,1,.22.09l.37.18a4.18,4.18,0,0,0,.51.2,2.19,2.19,0,0,0,.66.09,1.7,1.7,0,0,0,.41,0,1,1,0,0,0,.32-.14.6.6,0,0,0,.2-.22.83.83,0,0,0,.07-.32.49.49,0,0,0-.13-.35,1,1,0,0,0-.33-.26,3.66,3.66,0,0,0-.48-.2l-.54-.21q-.27-.12-.54-.27a2.07,2.07,0,0,1-.47-.37,1.59,1.59,0,0,1-.33-.53,1.8,1.8,0,0,1-.13-.73,1.92,1.92,0,0,1,.17-.81,1.85,1.85,0,0,1,.49-.62,2.37,2.37,0,0,1,.79-.41,3.61,3.61,0,0,1,1-.14,3.43,3.43,0,0,1,.56,0l.49.1a2.21,2.21,0,0,1,.37.14.64.64,0,0,1,.21.12.31.31,0,0,1,.1.1l0,.12a1.41,1.41,0,0,0,0,.18,2,2,0,0,1,0,.26,2.73,2.73,0,0,1,0,.31c0,.07,0,.14,0,.18s0,.08-.07.09l-.09,0a.59.59,0,0,1-.2-.07,3.15,3.15,0,0,0-.32-.16l-.45-.15A2.12,2.12,0,0,0,96.8,58a1.64,1.64,0,0,0-.4,0,.92.92,0,0,0-.28.14.54.54,0,0,0-.16.21.55.55,0,0,0-.06.26A.48.48,0,0,0,96,59a1.11,1.11,0,0,0,.34.25,4.51,4.51,0,0,0,.49.21l.54.21a3.94,3.94,0,0,1,.55.26,1.92,1.92,0,0,1,.48.37,1.67,1.67,0,0,1,.34.52A1.78,1.78,0,0,1,98.9,61.54Z"/><path d="M108,63.29a.21.21,0,0,1-.07.15.68.68,0,0,1-.22.08l-.43,0-.45,0a.55.55,0,0,1-.2-.08.2.2,0,0,1-.06-.15V62.8a2.73,2.73,0,0,1-.85.63,2.54,2.54,0,0,1-1.07.23,3.15,3.15,0,0,1-.9-.13,2.06,2.06,0,0,1-.7-.38,1.6,1.6,0,0,1-.46-.62,2.06,2.06,0,0,1-.17-.86,1.92,1.92,0,0,1,.21-.92,1.7,1.7,0,0,1,.63-.65,3,3,0,0,1,1-.38,7.5,7.5,0,0,1,1.43-.13h.6v-.36a1.93,1.93,0,0,0-.06-.51.89.89,0,0,0-.19-.36.9.9,0,0,0-.36-.21,2.15,2.15,0,0,0-.55-.06,3,3,0,0,0-.77.09,4.2,4.2,0,0,0-.6.21l-.43.21a.59.59,0,0,1-.28.1.24.24,0,0,1-.14-.05.28.28,0,0,1-.09-.14.58.58,0,0,1-.06-.21,2.64,2.64,0,0,1,0-.29,1.42,1.42,0,0,1,0-.33.65.65,0,0,1,.13-.23,1.67,1.67,0,0,1,.34-.22,4.37,4.37,0,0,1,.56-.22,6,6,0,0,1,.7-.17,4.93,4.93,0,0,1,.78-.06,4.84,4.84,0,0,1,1.23.14,2.09,2.09,0,0,1,.84.43,1.71,1.71,0,0,1,.48.75,3.8,3.8,0,0,1,.15,1.08Zm-1.69-2.61h-.66a3.62,3.62,0,0,0-.71.06,1.34,1.34,0,0,0-.48.18.77.77,0,0,0-.27.3.87.87,0,0,0-.08.4.78.78,0,0,0,.24.6.93.93,0,0,0,.67.22,1.29,1.29,0,0,0,.67-.18,3,3,0,0,0,.62-.55Z"/><path d="M115.57,60.13a5.91,5.91,0,0,1-.17,1.46,3.5,3.5,0,0,1-.51,1.12,2.35,2.35,0,0,1-.84.7,2.58,2.58,0,0,1-1.14.25,1.88,1.88,0,0,1-.49-.06,1.69,1.69,0,0,1-.43-.15,2.07,2.07,0,0,1-.41-.27,4.32,4.32,0,0,1-.43-.36v2.87a.19.19,0,0,1,0,.12.21.21,0,0,1-.14.09.77.77,0,0,1-.26.06l-.42,0-.42,0a.91.91,0,0,1-.26-.06.28.28,0,0,1-.14-.09.19.19,0,0,1,0-.12V57.17a.21.21,0,0,1,0-.12.33.33,0,0,1,.13-.09.9.9,0,0,1,.22-.05h.7a.9.9,0,0,1,.22.05c.06,0,.1,0,.12.09a.21.21,0,0,1,0,.12v.72a4.68,4.68,0,0,1,.52-.49,3.08,3.08,0,0,1,.52-.34,2,2,0,0,1,.55-.21,2.65,2.65,0,0,1,1.75.19,2.31,2.31,0,0,1,.77.72,3.2,3.2,0,0,1,.43,1.07A6,6,0,0,1,115.57,60.13Zm-1.79.12a4.56,4.56,0,0,0-.06-.75,2.4,2.4,0,0,0-.2-.64,1.14,1.14,0,0,0-.37-.44.88.88,0,0,0-.57-.17,1.4,1.4,0,0,0-.34,0,1.2,1.2,0,0,0-.34.17,4.07,4.07,0,0,0-.36.3,4,4,0,0,0-.39.46v2a3.82,3.82,0,0,0,.69.7,1.11,1.11,0,0,0,.69.25.92.92,0,0,0,.57-.17,1.2,1.2,0,0,0,.38-.45,2,2,0,0,0,.23-.62A3.33,3.33,0,0,0,113.78,60.25Z"/><path d="M118.39,63.27a.28.28,0,0,1,0,.12.35.35,0,0,1-.15.08,1.2,1.2,0,0,1-.26.05l-.42,0-.41,0a1.2,1.2,0,0,1-.26-.05.35.35,0,0,1-.15-.08.28.28,0,0,1,0-.12v-9a.28.28,0,0,1,0-.13.49.49,0,0,1,.15-.09l.26-.06.41,0,.42,0,.26.06a.49.49,0,0,1,.15.09.28.28,0,0,1,0,.13Z"/><path d="M121.68,55.1a.93.93,0,0,1-.22.72,1.16,1.16,0,0,1-.78.2,1.18,1.18,0,0,1-.79-.19,1.31,1.31,0,0,1,0-1.41,1.12,1.12,0,0,1,.79-.2,1.17,1.17,0,0,1,.78.19A.92.92,0,0,1,121.68,55.1Zm-.14,8.17a.19.19,0,0,1,0,.12.26.26,0,0,1-.14.08,1.2,1.2,0,0,1-.26.05l-.42,0-.41,0a1.46,1.46,0,0,1-.27-.05.37.37,0,0,1-.14-.08.28.28,0,0,1,0-.12V57.18a.28.28,0,0,1,0-.12A.56.56,0,0,1,120,57a1.46,1.46,0,0,1,.27,0,2.49,2.49,0,0,1,.41,0,2.56,2.56,0,0,1,.42,0,1.2,1.2,0,0,1,.26,0,.33.33,0,0,1,.14.09.19.19,0,0,1,0,.12Z"/><path d="M127.6,62.3a2.33,2.33,0,0,1,0,.29,1,1,0,0,1,0,.2,1.27,1.27,0,0,1,0,.14l-.11.13a1.84,1.84,0,0,1-.28.19,3.18,3.18,0,0,1-.45.2,3,3,0,0,1-.55.14,3.08,3.08,0,0,1-.61.06,3.24,3.24,0,0,1-1.25-.22,2.3,2.3,0,0,1-.91-.65,2.81,2.81,0,0,1-.56-1,4.67,4.67,0,0,1-.19-1.41,5,5,0,0,1,.23-1.58,3,3,0,0,1,.64-1.1,2.55,2.55,0,0,1,1-.65,3.45,3.45,0,0,1,1.23-.21,3.27,3.27,0,0,1,.54,0c.17,0,.34.08.49.13a3.14,3.14,0,0,1,.41.19,1.39,1.39,0,0,1,.26.18.77.77,0,0,1,.1.12.46.46,0,0,1,0,.14s0,.12,0,.2,0,.17,0,.29a1.77,1.77,0,0,1-.07.56c0,.1-.11.16-.18.16a.42.42,0,0,1-.24-.1l-.31-.21a1.91,1.91,0,0,0-.43-.21,1.47,1.47,0,0,0-.58-.1,1.17,1.17,0,0,0-1,.52,2.63,2.63,0,0,0-.36,1.51,3.75,3.75,0,0,0,.09.87,1.82,1.82,0,0,0,.27.63,1.12,1.12,0,0,0,.43.38,1.49,1.49,0,0,0,.62.12,1.63,1.63,0,0,0,.61-.1,2.38,2.38,0,0,0,.45-.24l.32-.23a.38.38,0,0,1,.22-.11.17.17,0,0,1,.1,0,.23.23,0,0,1,.06.13,1.19,1.19,0,0,1,0,.24A3.41,3.41,0,0,1,127.6,62.3Z"/><path d="M133.67,63.29a.18.18,0,0,1-.07.15.54.54,0,0,1-.21.08l-.44,0-.44,0a.48.48,0,0,1-.2-.08.2.2,0,0,1-.06-.15V62.8a2.77,2.77,0,0,1-.86.63,2.5,2.5,0,0,1-1.07.23,3.13,3.13,0,0,1-.89-.13,2,2,0,0,1-.7-.38,1.51,1.51,0,0,1-.46-.62,2.06,2.06,0,0,1-.17-.86,1.92,1.92,0,0,1,.21-.92,1.75,1.75,0,0,1,.62-.65,3.12,3.12,0,0,1,1-.38,7.5,7.5,0,0,1,1.43-.13H132v-.36a2.51,2.51,0,0,0,0-.51.91.91,0,0,0-.2-.36.86.86,0,0,0-.35-.21,2.15,2.15,0,0,0-.55-.06,3,3,0,0,0-.77.09,3.48,3.48,0,0,0-.6.21l-.43.21a.59.59,0,0,1-.29.1.21.21,0,0,1-.13-.05.39.39,0,0,1-.1-.14.93.93,0,0,1,0-.21,1.37,1.37,0,0,1,0-.29,1.42,1.42,0,0,1,0-.33.53.53,0,0,1,.13-.23,1.23,1.23,0,0,1,.34-.22,3.44,3.44,0,0,1,.56-.22,5.8,5.8,0,0,1,.69-.17,5.16,5.16,0,0,1,.79-.06,4.71,4.71,0,0,1,1.22.14,2.09,2.09,0,0,1,.84.43,1.62,1.62,0,0,1,.48.75,3.48,3.48,0,0,1,.15,1.08ZM132,60.68h-.65a3.55,3.55,0,0,0-.71.06,1.34,1.34,0,0,0-.48.18.77.77,0,0,0-.27.3.87.87,0,0,0-.09.4.78.78,0,0,0,.24.6,1,1,0,0,0,.68.22,1.26,1.26,0,0,0,.66-.18,2.79,2.79,0,0,0,.62-.55Z"/><path d="M140.93,56.94a.53.53,0,0,1,.4.12.49.49,0,0,1,.11.36v5.85a.19.19,0,0,1,0,.12.26.26,0,0,1-.13.08,1.46,1.46,0,0,1-.27.05l-.41,0-.42,0a1.2,1.2,0,0,1-.26-.05.3.3,0,0,1-.14-.08.19.19,0,0,1,0-.12V58.33H137v2.86a1.45,1.45,0,0,0,.15.75.62.62,0,0,0,.56.25l.25,0a1.17,1.17,0,0,0,.2-.06l.14,0a.22.22,0,0,1,.11,0,.1.1,0,0,1,.07,0,.14.14,0,0,1,.06.1.69.69,0,0,1,0,.19,2.58,2.58,0,0,1,0,.32,1.72,1.72,0,0,1,0,.45.45.45,0,0,1-.09.22.48.48,0,0,1-.19.13l-.28.09-.35,0a2.34,2.34,0,0,1-.38,0,2.93,2.93,0,0,1-.89-.13,1.48,1.48,0,0,1-.62-.4,1.64,1.64,0,0,1-.36-.68,3.55,3.55,0,0,1-.12-1V58.33h-.73c-.09,0-.15,0-.2-.16a1.67,1.67,0,0,1-.07-.54,2.92,2.92,0,0,1,0-.33,1,1,0,0,1,.05-.22.2.2,0,0,1,.09-.11.21.21,0,0,1,.12,0h.72V55.58a.2.2,0,0,1,0-.13.33.33,0,0,1,.14-.09,1.2,1.2,0,0,1,.26,0,2.56,2.56,0,0,1,.42,0,2.62,2.62,0,0,1,.42,0,1.2,1.2,0,0,1,.26,0,.56.56,0,0,1,.14.09.28.28,0,0,1,0,.13v1.36Zm.65-1.84a1,1,0,0,1-.21.72,1.17,1.17,0,0,1-.79.2,1.15,1.15,0,0,1-.78-.19,1.31,1.31,0,0,1,0-1.41,1.12,1.12,0,0,1,.79-.2,1.17,1.17,0,0,1,.78.19A1,1,0,0,1,141.58,55.1Z"/><path d="M148.51,57.16a.25.25,0,0,1,0,.08.41.41,0,0,1,0,.11l0,.13a1.36,1.36,0,0,1,0,.17l-1.83,5.52a.67.67,0,0,1-.1.19.38.38,0,0,1-.19.11,1.49,1.49,0,0,1-.36.06h-.6l-.59,0a1.49,1.49,0,0,1-.36-.06.32.32,0,0,1-.19-.11.76.76,0,0,1-.09-.18l-1.83-5.52c0-.09-.05-.17-.07-.24s0-.13,0-.16,0-.06,0-.09a.28.28,0,0,1,0-.12.3.3,0,0,1,.14-.08.8.8,0,0,1,.26-.05h.87a1.46,1.46,0,0,1,.27.05.24.24,0,0,1,.14.09.46.46,0,0,1,.07.14l1.39,4.48,0,.17,0-.17,1.36-4.48a.46.46,0,0,1,.07-.14A.28.28,0,0,1,147,57a1.2,1.2,0,0,1,.26-.05h.83a.73.73,0,0,1,.25.05.23.23,0,0,1,.12.08A.19.19,0,0,1,148.51,57.16Z"/><path d="M155.27,60.16a4.56,4.56,0,0,1-.2,1.42,2.89,2.89,0,0,1-.62,1.1,2.7,2.7,0,0,1-1,.72,3.9,3.9,0,0,1-1.47.26,4,4,0,0,1-1.41-.23,2.43,2.43,0,0,1-1-.66,2.61,2.61,0,0,1-.59-1.06,4.76,4.76,0,0,1-.19-1.43,4.62,4.62,0,0,1,.21-1.43,2.89,2.89,0,0,1,.62-1.1,2.81,2.81,0,0,1,1.05-.72,3.81,3.81,0,0,1,1.46-.25,4,4,0,0,1,1.42.22,2.52,2.52,0,0,1,1,.65,2.79,2.79,0,0,1,.58,1.06A4.9,4.9,0,0,1,155.27,60.16Zm-1.77.06a4.35,4.35,0,0,0-.07-.83,2.15,2.15,0,0,0-.24-.66,1.24,1.24,0,0,0-.45-.43,1.42,1.42,0,0,0-.72-.16,1.57,1.57,0,0,0-.67.14,1.16,1.16,0,0,0-.47.41,2,2,0,0,0-.28.65,3.72,3.72,0,0,0-.09.86,3.54,3.54,0,0,0,.08.83,1.78,1.78,0,0,0,.24.66,1.12,1.12,0,0,0,.45.44,1.52,1.52,0,0,0,.71.15,1.45,1.45,0,0,0,.68-.14,1.21,1.21,0,0,0,.47-.4,1.83,1.83,0,0,0,.28-.65A4.45,4.45,0,0,0,153.5,60.22Z"/><path d="M160.65,61.54a2,2,0,0,1-.2.92,1.84,1.84,0,0,1-.55.66,2.43,2.43,0,0,1-.84.4,3.86,3.86,0,0,1-1.05.14,3.34,3.34,0,0,1-.65-.06,2.72,2.72,0,0,1-.56-.13,2.06,2.06,0,0,1-.41-.16.83.83,0,0,1-.24-.15.49.49,0,0,1-.12-.23,2.31,2.31,0,0,1,0-.45,2.58,2.58,0,0,1,0-.32.78.78,0,0,1,0-.19.17.17,0,0,1,.06-.09.2.2,0,0,1,.11,0,.5.5,0,0,1,.22.09c.1.05.22.12.37.18a3.19,3.19,0,0,0,.51.2,2.17,2.17,0,0,0,.65.09,1.73,1.73,0,0,0,.42,0,1,1,0,0,0,.31-.14.53.53,0,0,0,.2-.22.68.68,0,0,0,.07-.32.53.53,0,0,0-.12-.35,1.14,1.14,0,0,0-.34-.26,4.15,4.15,0,0,0-.47-.2l-.54-.21a5.44,5.44,0,0,1-.54-.27,1.87,1.87,0,0,1-.47-.37,1.79,1.79,0,0,1-.34-.53,2,2,0,0,1-.12-.73,1.78,1.78,0,0,1,.17-.81,1.73,1.73,0,0,1,.49-.62,2.32,2.32,0,0,1,.78-.41,3.69,3.69,0,0,1,1-.14,3.52,3.52,0,0,1,.56,0,4.45,4.45,0,0,1,.48.1,1.92,1.92,0,0,1,.37.14.72.72,0,0,1,.22.12.41.41,0,0,1,.09.1.56.56,0,0,1,0,.12l0,.18c0,.07,0,.16,0,.26s0,.23,0,.31a.69.69,0,0,1,0,.18.13.13,0,0,1-.06.09.17.17,0,0,1-.1,0,.64.64,0,0,1-.19-.07l-.32-.16-.46-.15a2,2,0,0,0-.58-.07,1.54,1.54,0,0,0-.4,0,1,1,0,0,0-.29.14.65.65,0,0,0-.16.21.71.71,0,0,0,0,.26.48.48,0,0,0,.13.35,1,1,0,0,0,.34.25,3.63,3.63,0,0,0,.48.21l.55.21a4.43,4.43,0,0,1,.54.26,2.18,2.18,0,0,1,.49.37,1.87,1.87,0,0,1,.34.52A1.78,1.78,0,0,1,160.65,61.54Z"/><path d="M77.66,73.87a2.07,2.07,0,0,1-.19.92,1.84,1.84,0,0,1-.55.66,2.51,2.51,0,0,1-.84.4A4,4,0,0,1,75,76a3.49,3.49,0,0,1-.65-.06,2.88,2.88,0,0,1-.56-.13,2.34,2.34,0,0,1-.41-.16.65.65,0,0,1-.23-.15.42.42,0,0,1-.12-.23,1.72,1.72,0,0,1,0-.45,2.92,2.92,0,0,1,0-.32.78.78,0,0,1,0-.19.2.2,0,0,1,.07-.1l.1,0a.52.52,0,0,1,.23.09l.36.18a4.18,4.18,0,0,0,.51.2,2.59,2.59,0,0,0,.66.08,1.68,1.68,0,0,0,.41,0,1,1,0,0,0,.32-.14.56.56,0,0,0,.2-.23A.62.62,0,0,0,76,74a.49.49,0,0,0-.13-.35,1,1,0,0,0-.33-.26,4.15,4.15,0,0,0-.47-.2L74.52,73a3.36,3.36,0,0,1-.54-.26,1.92,1.92,0,0,1-.48-.37,1.59,1.59,0,0,1-.33-.53,1.82,1.82,0,0,1-.13-.74,1.91,1.91,0,0,1,.17-.8,1.85,1.85,0,0,1,.49-.62,2.37,2.37,0,0,1,.79-.41,3.66,3.66,0,0,1,1-.14,3.43,3.43,0,0,1,.56,0l.49.1a2.21,2.21,0,0,1,.37.14.64.64,0,0,1,.21.12.31.31,0,0,1,.1.1.56.56,0,0,1,0,.12s0,.11,0,.18a2.1,2.1,0,0,1,0,.27,2.63,2.63,0,0,1,0,.3q0,.1,0,.18s0,.08-.07.09a.14.14,0,0,1-.09,0,.45.45,0,0,1-.19-.08l-.33-.15a3.38,3.38,0,0,0-.45-.15,2.12,2.12,0,0,0-.59-.07,1.59,1.59,0,0,0-.4,0,.92.92,0,0,0-.28.14.54.54,0,0,0-.16.21.54.54,0,0,0-.06.25.5.5,0,0,0,.13.36,1.11,1.11,0,0,0,.34.25,3.79,3.79,0,0,0,.49.21q.27.09.54.21a3.94,3.94,0,0,1,.55.26,1.92,1.92,0,0,1,.48.37,1.56,1.56,0,0,1,.34.52A1.75,1.75,0,0,1,77.66,73.87Z"/><path d="M84.31,72.37a.67.67,0,0,1-.14.46.53.53,0,0,1-.39.15H80.07a2.6,2.6,0,0,0,.09.71,1.3,1.3,0,0,0,.3.54,1.21,1.21,0,0,0,.52.34,2.13,2.13,0,0,0,.76.12,3.74,3.74,0,0,0,.79-.07,5.18,5.18,0,0,0,.59-.14l.41-.14a.67.67,0,0,1,.27-.07l.1,0a.22.22,0,0,1,.07.09.61.61,0,0,1,0,.17,2.44,2.44,0,0,1,0,.29,1.85,1.85,0,0,1,0,.25.9.9,0,0,1,0,.18.33.33,0,0,1,0,.13.61.61,0,0,1-.07.1.77.77,0,0,1-.24.13,3.94,3.94,0,0,1-.51.16c-.2,0-.44.1-.7.14a5.77,5.77,0,0,1-.85.06,4.33,4.33,0,0,1-1.42-.21,2.61,2.61,0,0,1-1-.62,2.72,2.72,0,0,1-.61-1,5.17,5.17,0,0,1-.2-1.49,4.74,4.74,0,0,1,.21-1.47A3,3,0,0,1,79.15,70a2.64,2.64,0,0,1,1-.69,3.35,3.35,0,0,1,1.3-.24,3.42,3.42,0,0,1,1.31.22,2.32,2.32,0,0,1,.89.63,2.56,2.56,0,0,1,.51,1,4.07,4.07,0,0,1,.17,1.19Zm-1.67-.49a1.76,1.76,0,0,0-.29-1.14,1.12,1.12,0,0,0-1-.41,1.26,1.26,0,0,0-.57.12,1.08,1.08,0,0,0-.4.33,1.51,1.51,0,0,0-.25.49,2.36,2.36,0,0,0-.1.61Z"/><path d="M92.94,74.63a2.53,2.53,0,0,1,0,.29.56.56,0,0,1,0,.2.47.47,0,0,1,0,.14.45.45,0,0,1-.1.13l-.28.19a3.79,3.79,0,0,1-.45.2,3.56,3.56,0,0,1-2.41,0,2.34,2.34,0,0,1-.92-.65,2.79,2.79,0,0,1-.55-1,5.44,5.44,0,0,1,0-3,2.91,2.91,0,0,1,.64-1.1,2.38,2.38,0,0,1,1-.65A3.45,3.45,0,0,1,91,69.12a3.08,3.08,0,0,1,.53,0,3.65,3.65,0,0,1,.5.13,3.14,3.14,0,0,1,.41.19,1,1,0,0,1,.25.18l.11.12a.46.46,0,0,1,0,.14,1,1,0,0,1,0,.2,2.19,2.19,0,0,1,0,.29,1.65,1.65,0,0,1-.07.55c0,.11-.11.17-.18.17a.47.47,0,0,1-.25-.1l-.31-.21a1.64,1.64,0,0,0-.42-.21,1.49,1.49,0,0,0-.59-.1,1.16,1.16,0,0,0-1,.52,2.61,2.61,0,0,0-.36,1.51,3.75,3.75,0,0,0,.09.87,2,2,0,0,0,.26.63,1.23,1.23,0,0,0,.44.38,1.48,1.48,0,0,0,.61.12,1.68,1.68,0,0,0,.62-.1,2,2,0,0,0,.44-.24l.33-.23a.31.31,0,0,1,.21-.11.18.18,0,0,1,.11,0,.53.53,0,0,1,.06.13,1.19,1.19,0,0,1,0,.24C92.94,74.35,92.94,74.47,92.94,74.63Z"/><path d="M100,72.49a4.56,4.56,0,0,1-.2,1.42,3.12,3.12,0,0,1-.62,1.1,2.7,2.7,0,0,1-1.05.72,3.9,3.9,0,0,1-1.47.26,4,4,0,0,1-1.41-.23,2.5,2.5,0,0,1-1-.66A2.61,2.61,0,0,1,93.66,74a4.81,4.81,0,0,1-.19-1.43,4.62,4.62,0,0,1,.21-1.43,2.89,2.89,0,0,1,.62-1.1,2.81,2.81,0,0,1,1-.72,3.81,3.81,0,0,1,1.46-.25,4,4,0,0,1,1.42.22,2.59,2.59,0,0,1,1,.65A2.66,2.66,0,0,1,99.81,71,4.9,4.9,0,0,1,100,72.49Zm-1.77.06a4.35,4.35,0,0,0-.07-.83,2.15,2.15,0,0,0-.24-.66,1.26,1.26,0,0,0-.46-.43,1.38,1.38,0,0,0-.71-.16,1.57,1.57,0,0,0-.67.14,1.16,1.16,0,0,0-.47.41,2,2,0,0,0-.28.65,3.72,3.72,0,0,0-.09.86,5.25,5.25,0,0,0,.07.83,1.78,1.78,0,0,0,.25.66,1.19,1.19,0,0,0,.45.44,1.52,1.52,0,0,0,.71.15,1.59,1.59,0,0,0,.68-.14,1.16,1.16,0,0,0,.47-.41,1.7,1.7,0,0,0,.27-.64A3.75,3.75,0,0,0,98.23,72.55Z"/><path d="M106.91,75.6a.28.28,0,0,1,0,.12.37.37,0,0,1-.14.08,1.2,1.2,0,0,1-.26,0l-.42,0-.42,0a1.2,1.2,0,0,1-.26,0,.37.37,0,0,1-.14-.08.28.28,0,0,1,0-.12V72.12a3.18,3.18,0,0,0-.06-.7,1.55,1.55,0,0,0-.19-.43.81.81,0,0,0-.32-.29,1.06,1.06,0,0,0-.45-.09,1.15,1.15,0,0,0-.67.23,4.17,4.17,0,0,0-.69.7V75.6a.28.28,0,0,1,0,.12.35.35,0,0,1-.15.08,1.2,1.2,0,0,1-.26,0l-.42,0-.41,0a1.2,1.2,0,0,1-.26,0,.35.35,0,0,1-.15-.08.28.28,0,0,1,0-.12V69.5a.21.21,0,0,1,0-.12s.06-.06.12-.09l.23-.05.35,0,.37,0a.9.9,0,0,1,.22.05s.09,0,.11.09a.21.21,0,0,1,0,.12v.7a3.94,3.94,0,0,1,1-.82,2.34,2.34,0,0,1,1.09-.27,2.49,2.49,0,0,1,1,.2,1.83,1.83,0,0,1,.69.56,2.29,2.29,0,0,1,.38.82,4.75,4.75,0,0,1,.12,1.14Z"/><path d="M114,72.37a.67.67,0,0,1-.14.46.5.5,0,0,1-.39.15h-3.71a2.6,2.6,0,0,0,.09.71,1.42,1.42,0,0,0,.3.54,1.27,1.27,0,0,0,.52.34,2.13,2.13,0,0,0,.76.12,3.74,3.74,0,0,0,.79-.07,5.39,5.39,0,0,0,.6-.14l.41-.14a.67.67,0,0,1,.26-.07l.11,0a.2.2,0,0,1,.06.09.39.39,0,0,1,0,.17,2.44,2.44,0,0,1,0,.29v.25a1.41,1.41,0,0,0,0,.18.68.68,0,0,1,0,.13l-.08.1a.77.77,0,0,1-.24.13,3.94,3.94,0,0,1-.51.16c-.2,0-.43.1-.7.14a5.67,5.67,0,0,1-.85.06,4.33,4.33,0,0,1-1.42-.21,2.61,2.61,0,0,1-1-.62,2.72,2.72,0,0,1-.61-1,5.17,5.17,0,0,1-.2-1.49,4.74,4.74,0,0,1,.21-1.47,3.14,3.14,0,0,1,.62-1.11,2.64,2.64,0,0,1,1-.69,3.38,3.38,0,0,1,1.3-.24,3.42,3.42,0,0,1,1.31.22,2.32,2.32,0,0,1,.89.63,2.44,2.44,0,0,1,.52,1A4.08,4.08,0,0,1,114,72.1Zm-1.67-.49a1.7,1.7,0,0,0-.29-1.14,1.12,1.12,0,0,0-1-.41,1.26,1.26,0,0,0-.57.12,1.08,1.08,0,0,0-.4.33,1.51,1.51,0,0,0-.25.49,2.36,2.36,0,0,0-.1.61Z"/><path d="M119.7,74.63a2.53,2.53,0,0,1,0,.29c0,.08,0,.15,0,.2a.47.47,0,0,1,0,.14.45.45,0,0,1-.1.13,2.07,2.07,0,0,1-.29.19,3.18,3.18,0,0,1-.45.2,3,3,0,0,1-.55.14,3.08,3.08,0,0,1-.61.06,3.28,3.28,0,0,1-1.25-.22,2.38,2.38,0,0,1-.91-.65,2.81,2.81,0,0,1-.56-1,5,5,0,0,1-.18-1.41,4.94,4.94,0,0,1,.22-1.58,3.19,3.19,0,0,1,.64-1.1,2.52,2.52,0,0,1,1-.65,3.53,3.53,0,0,1,1.23-.21,3.12,3.12,0,0,1,.54,0,3.17,3.17,0,0,1,.49.13,2.63,2.63,0,0,1,.41.19.88.88,0,0,1,.26.18l.11.12a.47.47,0,0,1,0,.14.56.56,0,0,1,0,.2,2.44,2.44,0,0,1,0,.29,1.42,1.42,0,0,1-.07.55c0,.11-.1.17-.17.17a.47.47,0,0,1-.25-.1l-.31-.21a2.06,2.06,0,0,0-.42-.21,1.52,1.52,0,0,0-.59-.1,1.14,1.14,0,0,0-1,.52,2.61,2.61,0,0,0-.36,1.51,3.75,3.75,0,0,0,.09.87,2,2,0,0,0,.26.63,1.15,1.15,0,0,0,.44.38,1.44,1.44,0,0,0,.61.12,1.59,1.59,0,0,0,.61-.1,2.38,2.38,0,0,0,.45-.24c.13-.09.24-.16.32-.23a.35.35,0,0,1,.22-.11.15.15,0,0,1,.1,0,.32.32,0,0,1,.07.13c0,.06,0,.14,0,.24S119.7,74.47,119.7,74.63Z"/><path d="M124.27,75a2.83,2.83,0,0,1,0,.47.57.57,0,0,1-.1.22.78.78,0,0,1-.19.12l-.27.09-.35,0L123,76a2.93,2.93,0,0,1-.89-.13,1.41,1.41,0,0,1-.62-.41,1.56,1.56,0,0,1-.37-.67,4,4,0,0,1-.11-1V70.66h-.73a.21.21,0,0,1-.2-.16A1.43,1.43,0,0,1,120,70a1.62,1.62,0,0,1,0-.33,1,1,0,0,1,0-.22.24.24,0,0,1,.08-.11.27.27,0,0,1,.12,0H121V67.91a.2.2,0,0,1,0-.13.36.36,0,0,1,.13-.09,1.46,1.46,0,0,1,.27,0,2.49,2.49,0,0,1,.41,0,2.56,2.56,0,0,1,.42,0,1.46,1.46,0,0,1,.27,0,.36.36,0,0,1,.13.09.2.2,0,0,1,0,.13v1.36H124a.24.24,0,0,1,.12,0,.24.24,0,0,1,.08.11,1,1,0,0,1,.06.22,3.22,3.22,0,0,1,0,.33,1.43,1.43,0,0,1-.07.54.21.21,0,0,1-.19.16h-1.34v2.86a1.44,1.44,0,0,0,.16.75.61.61,0,0,0,.56.25l.25,0,.19-.06.15,0a.18.18,0,0,1,.1,0,.12.12,0,0,1,.08,0s0,0,.06.1,0,.11,0,.19A2.82,2.82,0,0,1,124.27,75Z"/><path d="M130.3,75.62a.21.21,0,0,1-.07.15.52.52,0,0,1-.22.07,2.31,2.31,0,0,1-.43,0,2.34,2.34,0,0,1-.45,0,.42.42,0,0,1-.2-.07.2.2,0,0,1-.06-.15v-.49a2.73,2.73,0,0,1-.85.63A2.54,2.54,0,0,1,127,76a3.21,3.21,0,0,1-.9-.13,2.06,2.06,0,0,1-.7-.38,1.6,1.6,0,0,1-.46-.62,2.06,2.06,0,0,1-.17-.86,1.92,1.92,0,0,1,.21-.92,1.64,1.64,0,0,1,.63-.65,3,3,0,0,1,1-.38,7.56,7.56,0,0,1,1.43-.12h.6v-.37a1.93,1.93,0,0,0-.06-.51.89.89,0,0,0-.19-.36.9.9,0,0,0-.36-.21,2,2,0,0,0-.55-.07,3.06,3.06,0,0,0-.77.1,3.67,3.67,0,0,0-.59.21l-.44.21a.59.59,0,0,1-.28.1.24.24,0,0,1-.14,0,.28.28,0,0,1-.09-.14.58.58,0,0,1-.06-.21,2.64,2.64,0,0,1,0-.29,1.58,1.58,0,0,1,0-.34.71.71,0,0,1,.13-.22,1.67,1.67,0,0,1,.34-.22,4.37,4.37,0,0,1,.56-.22,6,6,0,0,1,.7-.17,4.93,4.93,0,0,1,.78-.06,4.84,4.84,0,0,1,1.23.14,2.09,2.09,0,0,1,.84.43,1.71,1.71,0,0,1,.48.75,3.43,3.43,0,0,1,.15,1.08ZM128.61,73H128a3.62,3.62,0,0,0-.71.06,1.34,1.34,0,0,0-.48.18.77.77,0,0,0-.27.3,1,1,0,0,0-.08.4.78.78,0,0,0,.24.6.93.93,0,0,0,.67.22,1.21,1.21,0,0,0,.67-.19,2.68,2.68,0,0,0,.62-.54Z"/><path d="M133.76,74.84a1.21,1.21,0,0,1-.23.86,1.15,1.15,0,0,1-.79.22.84.84,0,0,1-1-1A1.24,1.24,0,0,1,132,74a1.16,1.16,0,0,1,.8-.22,1.15,1.15,0,0,1,.79.22A1.18,1.18,0,0,1,133.76,74.84Z"/></g></g></svg>