<svg xmlns="http://www.w3.org/2000/svg" viewBox="0 0 361.49 45.77"><defs><style>.cls-1{fill:#9a9fbd;}.cls-2{fill:#b2c91f;}.cls-3{fill:#fff;}.cls-4{fill:#d1df79;}.cls-5{fill:#28203a;}</style></defs><g id="Capa_2" data-name="Capa 2"><g id="Capa_1-2" data-name="Capa 1"><path class="cls-1" d="M250.78,23.45,235,1.84H9.13C4.83,1.84,1.35,5.06,1.35,9V37.42c0,4,3.48,7.2,7.78,7.2H235.05Z"/><path class="cls-1" d="M14.29,38a1,1,0,0,1-1-1V8.74a1,1,0,1,1,2,0V37A1,1,0,0,1,14.29,38Z"/><path class="cls-2" d="M249.43,21.61,233.62,0H7.78C3.48,0,0,3.22,0,7.19V35.58c0,4,3.48,7.2,7.78,7.2H233.7Z"/><path class="cls-3" d="M12.94,36.18a1,1,0,0,1-1-1V6.9a1,1,0,0,1,2,0V35.19A1,1,0,0,1,12.94,36.18Z"/><rect class="cls-4" x="264.75" y="1.25" width="96.74" height="44.52" rx="6.84"/><path class="cls-5" d="M292.76,19.74a3.87,3.87,0,0,1,1-2.79,3.26,3.26,0,0,1,2.47-1,3.4,3.4,0,0,1,1.79.48,3,3,0,0,1,1.21,1.32,4.57,4.57,0,0,1,0,3.87,3,3,0,0,1-1.25,1.3,3.56,3.56,0,0,1-1.73.44,3.34,3.34,0,0,1-1.81-.49,3.18,3.18,0,0,1-1.21-1.33A4.08,4.08,0,0,1,292.76,19.74Zm1,0a2.86,2.86,0,0,0,.7,2,2.43,2.43,0,0,0,3.5,0,3,3,0,0,0,.69-2.14,3.75,3.75,0,0,0-.29-1.52,2.27,2.27,0,0,0-.87-1,2.32,2.32,0,0,0-1.27-.36,2.42,2.42,0,0,0-1.73.69A3.06,3.06,0,0,0,293.74,19.76Z"/><path class="cls-5" d="M301.53,23.23h-.82V16.07h.88v2.55a1.75,1.75,0,0,1,1.42-.69,2.18,2.18,0,0,1,.91.19,1.88,1.88,0,0,1,.7.54,2.38,2.38,0,0,1,.43.84,3.32,3.32,0,0,1,.16,1.06,3,3,0,0,1-.66,2.06,2.09,2.09,0,0,1-1.58.73,1.66,1.66,0,0,1-1.44-.77Zm0-2.63a2.64,2.64,0,0,0,.25,1.34,1.26,1.26,0,0,0,1.13.68,1.24,1.24,0,0,0,1-.5,2.26,2.26,0,0,0,.42-1.49,2.3,2.3,0,0,0-.4-1.5,1.23,1.23,0,0,0-1-.48,1.27,1.27,0,0,0-1,.5A2.2,2.2,0,0,0,301.52,20.6Z"/><path class="cls-5" d="M305.16,25.24l.17-.75a1.51,1.51,0,0,0,.41.07.46.46,0,0,0,.4-.18,1.79,1.79,0,0,0,.13-.89V18h.88v5.47a2.57,2.57,0,0,1-.25,1.34,1.16,1.16,0,0,1-1,.48A2.61,2.61,0,0,1,305.16,25.24Zm1.11-8.15v-1h.88v1Z"/><path class="cls-5" d="M312.05,21.56l.91.11a2.23,2.23,0,0,1-.8,1.24,2.68,2.68,0,0,1-3.29-.27,2.73,2.73,0,0,1-.66-2,2.86,2.86,0,0,1,.67-2,2.28,2.28,0,0,1,1.75-.72,2.23,2.23,0,0,1,1.7.7,2.84,2.84,0,0,1,.66,2,2.2,2.2,0,0,1,0,.23h-3.86a2,2,0,0,0,.48,1.31,1.44,1.44,0,0,0,1.08.45,1.34,1.34,0,0,0,.83-.25A1.65,1.65,0,0,0,312.05,21.56Zm-2.89-1.42h2.9a1.74,1.74,0,0,0-.33-1,1.34,1.34,0,0,0-1.09-.51,1.41,1.41,0,0,0-1,.4A1.65,1.65,0,0,0,309.16,20.14Z"/><path class="cls-5" d="M316,22.44l.13.78a3.47,3.47,0,0,1-.67.08,1.51,1.51,0,0,1-.74-.15.89.89,0,0,1-.37-.4,3.2,3.2,0,0,1-.11-1v-3h-.64V18h.64V16.76l.88-.53V18H316v.69h-.88v3a1.6,1.6,0,0,0,0,.48.37.37,0,0,0,.16.17.51.51,0,0,0,.3.07A2.12,2.12,0,0,0,316,22.44Z"/><path class="cls-5" d="M316.85,17.08v-1h.87v1Zm0,6.15V18h.87v5.19Z"/><path class="cls-5" d="M320.5,23.23l-2-5.19h.93l1.11,3.11c.12.33.23.68.33,1,.08-.27.19-.6.33-1L322.38,18h.91l-2,5.19Z"/><path class="cls-5" d="M323.74,20.64a2.66,2.66,0,0,1,.8-2.14,2.42,2.42,0,0,1,1.63-.57,2.3,2.3,0,0,1,1.74.7,2.61,2.61,0,0,1,.68,1.93,3.44,3.44,0,0,1-.3,1.58,2.13,2.13,0,0,1-.87.89,2.55,2.55,0,0,1-1.25.32,2.33,2.33,0,0,1-1.76-.7A2.79,2.79,0,0,1,323.74,20.64Zm.9,0a2.21,2.21,0,0,0,.43,1.49,1.47,1.47,0,0,0,2.19,0,2.28,2.28,0,0,0,.43-1.52,2.16,2.16,0,0,0-.44-1.46,1.38,1.38,0,0,0-1.08-.5,1.41,1.41,0,0,0-1.1.5A2.19,2.19,0,0,0,324.64,20.64Z"/><path class="cls-5" d="M329.27,21.68l.87-.14a1.27,1.27,0,0,0,.41.81,1.43,1.43,0,0,0,.93.27,1.38,1.38,0,0,0,.9-.24.74.74,0,0,0,.3-.58.54.54,0,0,0-.26-.47,3.66,3.66,0,0,0-.9-.3,7.73,7.73,0,0,1-1.34-.42,1.26,1.26,0,0,1-.76-1.19,1.27,1.27,0,0,1,.16-.64,1.35,1.35,0,0,1,.43-.49,1.83,1.83,0,0,1,.56-.26,2.64,2.64,0,0,1,.76-.1,2.93,2.93,0,0,1,1.07.17,1.49,1.49,0,0,1,.68.48,1.76,1.76,0,0,1,.3.8l-.86.12a.93.93,0,0,0-.33-.63,1.27,1.27,0,0,0-.8-.22,1.45,1.45,0,0,0-.86.2.56.56,0,0,0-.26.47.47.47,0,0,0,.11.31.77.77,0,0,0,.33.23c.09,0,.35.11.78.22a13.33,13.33,0,0,1,1.3.41,1.23,1.23,0,0,1,.79,1.22,1.47,1.47,0,0,1-.26.82,1.59,1.59,0,0,1-.74.6,2.53,2.53,0,0,1-1.09.22,2.44,2.44,0,0,1-1.54-.42A2,2,0,0,1,329.27,21.68Z"/><path class="cls-5" d="M290.37,31.56l.91.11a2.27,2.27,0,0,1-.79,1.24,2.44,2.44,0,0,1-1.49.44,2.35,2.35,0,0,1-1.8-.71,2.69,2.69,0,0,1-.67-2,2.86,2.86,0,0,1,.67-2,2.3,2.3,0,0,1,1.75-.72,2.21,2.21,0,0,1,1.7.7,2.84,2.84,0,0,1,.66,2v.23h-3.87a2,2,0,0,0,.48,1.31,1.45,1.45,0,0,0,1.09.45,1.33,1.33,0,0,0,.82-.25A1.65,1.65,0,0,0,290.37,31.56Zm-2.88-1.42h2.89a1.74,1.74,0,0,0-.33-1,1.34,1.34,0,0,0-1.09-.51,1.41,1.41,0,0,0-1,.4A1.65,1.65,0,0,0,287.49,30.14Z"/><path class="cls-5" d="M292,31.68l.87-.14a1.27,1.27,0,0,0,.41.81,1.43,1.43,0,0,0,.93.27,1.38,1.38,0,0,0,.9-.24.74.74,0,0,0,.3-.58.54.54,0,0,0-.26-.47,3.66,3.66,0,0,0-.9-.3,7.73,7.73,0,0,1-1.34-.42,1.26,1.26,0,0,1-.76-1.19,1.27,1.27,0,0,1,.16-.64,1.35,1.35,0,0,1,.43-.49,1.83,1.83,0,0,1,.56-.26,2.68,2.68,0,0,1,.76-.1,2.93,2.93,0,0,1,1.07.17,1.43,1.43,0,0,1,.68.48,1.76,1.76,0,0,1,.3.8l-.86.12a.93.93,0,0,0-.33-.63,1.27,1.27,0,0,0-.8-.22,1.45,1.45,0,0,0-.86.2.59.59,0,0,0-.26.47.53.53,0,0,0,.11.31.77.77,0,0,0,.33.23c.09,0,.35.11.78.22a12.46,12.46,0,0,1,1.3.41,1.23,1.23,0,0,1,.79,1.22,1.47,1.47,0,0,1-.26.82,1.59,1.59,0,0,1-.74.6,2.53,2.53,0,0,1-1.09.22,2.44,2.44,0,0,1-1.54-.42A2,2,0,0,1,292,31.68Z"/><path class="cls-5" d="M299.3,32.44l.13.78a3.46,3.46,0,0,1-.66.08,1.56,1.56,0,0,1-.75-.15.89.89,0,0,1-.37-.4,3.29,3.29,0,0,1-.1-1v-3h-.65V28h.65V26.76l.87-.53V28h.88v.69h-.88v3a1.49,1.49,0,0,0,.05.48.35.35,0,0,0,.15.17.51.51,0,0,0,.3.07A2,2,0,0,0,299.3,32.44Z"/><path class="cls-5" d="M300.15,33.23V28h.79v.79a2.29,2.29,0,0,1,.56-.73,1,1,0,0,1,.57-.17,1.71,1.71,0,0,1,.9.28l-.3.81a1.35,1.35,0,0,0-.65-.19.79.79,0,0,0-.51.18.84.84,0,0,0-.33.48,3.31,3.31,0,0,0-.15,1v2.72Z"/><path class="cls-5" d="M306.88,32.59a3.44,3.44,0,0,1-.94.59,2.83,2.83,0,0,1-1,.17,1.9,1.9,0,0,1-1.32-.42,1.4,1.4,0,0,1-.45-1.07,1.36,1.36,0,0,1,.17-.69,1.48,1.48,0,0,1,.45-.51,2.26,2.26,0,0,1,.63-.29,7.55,7.55,0,0,1,.79-.13,8.08,8.08,0,0,0,1.56-.3c0-.12,0-.2,0-.23a1,1,0,0,0-.25-.76,1.48,1.48,0,0,0-1-.3,1.62,1.62,0,0,0-.92.22,1.35,1.35,0,0,0-.43.77l-.86-.12a2,2,0,0,1,.38-.89,1.73,1.73,0,0,1,.78-.52,3.53,3.53,0,0,1,1.18-.18,3.16,3.16,0,0,1,1.07.15,1.53,1.53,0,0,1,.61.39,1.39,1.39,0,0,1,.28.6,5,5,0,0,1,0,.81v1.18a11.75,11.75,0,0,0,.06,1.55,2.09,2.09,0,0,0,.22.62h-.92A1.77,1.77,0,0,1,306.88,32.59Zm-.08-2a6.34,6.34,0,0,1-1.43.33,3.64,3.64,0,0,0-.77.17.83.83,0,0,0-.35.29.76.76,0,0,0-.12.42.73.73,0,0,0,.27.58,1.14,1.14,0,0,0,.78.24,1.87,1.87,0,0,0,.9-.22,1.42,1.42,0,0,0,.58-.61,2,2,0,0,0,.14-.88Z"/><path class="cls-5" d="M311,32.44l.13.78a3.46,3.46,0,0,1-.66.08,1.56,1.56,0,0,1-.75-.15.89.89,0,0,1-.37-.4,3.29,3.29,0,0,1-.1-1v-3h-.65V28h.65V26.76l.87-.53V28H311v.69h-.88v3a1.49,1.49,0,0,0,.05.48.35.35,0,0,0,.15.17.51.51,0,0,0,.3.07A2,2,0,0,0,311,32.44Z"/><path class="cls-5" d="M315.38,31.56l.91.11a2.23,2.23,0,0,1-.8,1.24,2.39,2.39,0,0,1-1.48.44,2.35,2.35,0,0,1-1.8-.71,2.69,2.69,0,0,1-.67-2,2.86,2.86,0,0,1,.67-2,2.3,2.3,0,0,1,1.75-.72,2.21,2.21,0,0,1,1.7.7,2.84,2.84,0,0,1,.66,2v.23h-3.87a2,2,0,0,0,.48,1.31,1.45,1.45,0,0,0,1.09.45,1.33,1.33,0,0,0,.82-.25A1.65,1.65,0,0,0,315.38,31.56Zm-2.88-1.42h2.89a1.74,1.74,0,0,0-.33-1,1.34,1.34,0,0,0-1.09-.51,1.41,1.41,0,0,0-1,.4A1.65,1.65,0,0,0,312.5,30.14Zm.94-2.74.65-1.37h1.16l-1.08,1.37Z"/><path class="cls-5" d="M317.23,33.66l.86.13a.76.76,0,0,0,.3.57,1.45,1.45,0,0,0,.89.25,1.57,1.57,0,0,0,.94-.25,1.21,1.21,0,0,0,.45-.68,5,5,0,0,0,.06-1.13,1.8,1.8,0,0,1-1.43.68,2,2,0,0,1-1.66-.77,3,3,0,0,1-.58-1.85,3.42,3.42,0,0,1,.27-1.37,2.08,2.08,0,0,1,.77-1,2.11,2.11,0,0,1,1.2-.34,1.85,1.85,0,0,1,1.52.74V28h.81v4.49a4.14,4.14,0,0,1-.25,1.71,1.72,1.72,0,0,1-.78.8,2.68,2.68,0,0,1-1.32.29,2.58,2.58,0,0,1-1.5-.41A1.43,1.43,0,0,1,317.23,33.66Zm.73-3.12a2.25,2.25,0,0,0,.41,1.49,1.25,1.25,0,0,0,1,.47,1.32,1.32,0,0,0,1-.46,2.22,2.22,0,0,0,.41-1.47,2.12,2.12,0,0,0-.42-1.43,1.32,1.32,0,0,0-1-.49,1.27,1.27,0,0,0-1,.48A2.14,2.14,0,0,0,318,30.54Z"/><path class="cls-5" d="M323,27.08v-1h.88v1Zm0,6.15V28h.88v5.19Z"/><path class="cls-5" d="M328.56,31.33l.87.11a2.27,2.27,0,0,1-.73,1.4,2.11,2.11,0,0,1-1.43.51,2.24,2.24,0,0,1-1.71-.7,2.78,2.78,0,0,1-.65-2,3.54,3.54,0,0,1,.28-1.47,2,2,0,0,1,.84-1,2.54,2.54,0,0,1,1.24-.31,2.14,2.14,0,0,1,1.38.42,2,2,0,0,1,.69,1.22l-.85.13a1.47,1.47,0,0,0-.43-.79,1.16,1.16,0,0,0-.75-.26,1.34,1.34,0,0,0-1.08.48,2.2,2.2,0,0,0-.42,1.5,2.38,2.38,0,0,0,.4,1.52,1.3,1.3,0,0,0,1.05.47,1.23,1.23,0,0,0,.86-.31A1.6,1.6,0,0,0,328.56,31.33Z"/><path class="cls-5" d="M329.85,30.64a2.7,2.7,0,0,1,.8-2.14,2.44,2.44,0,0,1,1.63-.57,2.32,2.32,0,0,1,1.75.7,2.66,2.66,0,0,1,.68,1.93,3.44,3.44,0,0,1-.3,1.58,2.1,2.1,0,0,1-.88.89,2.55,2.55,0,0,1-1.25.32,2.36,2.36,0,0,1-1.76-.7A2.79,2.79,0,0,1,329.85,30.64Zm.9,0a2.21,2.21,0,0,0,.44,1.49,1.46,1.46,0,0,0,2.18,0,2.28,2.28,0,0,0,.44-1.52,2.16,2.16,0,0,0-.44-1.46,1.4,1.4,0,0,0-1.09-.5,1.39,1.39,0,0,0-1.09.5A2.19,2.19,0,0,0,330.75,30.64Z"/><path class="cls-5" d="M335.39,31.68l.87-.14a1.26,1.26,0,0,0,.4.81,1.48,1.48,0,0,0,.94.27,1.42,1.42,0,0,0,.9-.24.76.76,0,0,0,.29-.58.54.54,0,0,0-.26-.47,3.66,3.66,0,0,0-.9-.3,8,8,0,0,1-1.34-.42,1.28,1.28,0,0,1-.56-.49,1.32,1.32,0,0,1-.2-.7,1.38,1.38,0,0,1,.16-.64,1.45,1.45,0,0,1,.43-.49,2,2,0,0,1,.56-.26,2.68,2.68,0,0,1,.76-.1,3,3,0,0,1,1.08.17,1.54,1.54,0,0,1,.68.48,2,2,0,0,1,.3.8l-.86.12a.94.94,0,0,0-.34-.63,1.24,1.24,0,0,0-.79-.22,1.49,1.49,0,0,0-.87.2.59.59,0,0,0-.26.47.53.53,0,0,0,.11.31.75.75,0,0,0,.34.23c.09,0,.34.11.77.22a12.87,12.87,0,0,1,1.31.41,1.37,1.37,0,0,1,.57.46,1.33,1.33,0,0,1,.21.76,1.46,1.46,0,0,1-.25.82,1.65,1.65,0,0,1-.74.6,2.57,2.57,0,0,1-1.1.22,2.46,2.46,0,0,1-1.54-.42A2,2,0,0,1,335.39,31.68Z"/><path class="cls-5" d="M32.89,24.36l1.32.33a4.37,4.37,0,0,1-1.5,2.49,4.13,4.13,0,0,1-2.65.86,4.75,4.75,0,0,1-2.63-.66,4.17,4.17,0,0,1-1.55-1.91,6.86,6.86,0,0,1-.52-2.69A5.9,5.9,0,0,1,26,20.05a4.17,4.17,0,0,1,1.71-1.77,5,5,0,0,1,2.43-.6,4.13,4.13,0,0,1,2.53.76A4,4,0,0,1,34,20.6l-1.3.3a3.11,3.11,0,0,0-1-1.59,2.74,2.74,0,0,0-1.67-.5,3.22,3.22,0,0,0-1.93.56A2.86,2.86,0,0,0,27,20.85a6,6,0,0,0-.32,1.93A6.31,6.31,0,0,0,27.09,25a2.8,2.8,0,0,0,1.16,1.42,3.22,3.22,0,0,0,1.7.48,2.84,2.84,0,0,0,1.89-.65A3.22,3.22,0,0,0,32.89,24.36Z"/><path class="cls-5" d="M35.66,27.87v-10h1.23v10Z"/><path class="cls-5" d="M38.81,19.26V17.85H40v1.41Zm0,8.61V20.61H40v7.26Z"/><path class="cls-5" d="M46.88,25.53l1.27.16A3.12,3.12,0,0,1,47,27.42,3.36,3.36,0,0,1,45,28a3.32,3.32,0,0,1-2.53-1,3.83,3.83,0,0,1-.93-2.75,4,4,0,0,1,1-2.84,3.15,3.15,0,0,1,2.44-1,3.1,3.1,0,0,1,2.38,1,3.91,3.91,0,0,1,.92,2.79v.32H42.77a2.82,2.82,0,0,0,.68,1.84A2,2,0,0,0,45,27a1.91,1.91,0,0,0,1.15-.35A2.41,2.41,0,0,0,46.88,25.53Zm-4-2h4a2.36,2.36,0,0,0-.46-1.37,1.86,1.86,0,0,0-1.52-.71,2,2,0,0,0-1.43.56A2.28,2.28,0,0,0,42.84,23.54Z"/><path class="cls-5" d="M49.7,27.87V20.61h1.1v1a2.64,2.64,0,0,1,2.32-1.19,3,3,0,0,1,1.2.23,2,2,0,0,1,.83.62,2.4,2.4,0,0,1,.38.91,7.72,7.72,0,0,1,.07,1.2v4.46H54.37V23.45a3.17,3.17,0,0,0-.15-1.12,1.14,1.14,0,0,0-.51-.6,1.68,1.68,0,0,0-.85-.22,2,2,0,0,0-1.36.5,2.45,2.45,0,0,0-.57,1.89v4Z"/><path class="cls-5" d="M60.17,26.77l.18,1.09a4.85,4.85,0,0,1-.93.11,2.09,2.09,0,0,1-1-.22,1.15,1.15,0,0,1-.52-.55,4.46,4.46,0,0,1-.15-1.46V21.57h-.9v-1h.9v-1.8l1.22-.74v2.54h1.24v1H58.93v4.24a1.94,1.94,0,0,0,.07.68.49.49,0,0,0,.21.24.82.82,0,0,0,.42.09A4.31,4.31,0,0,0,60.17,26.77Z"/><path class="cls-5" d="M66.34,25.53l1.28.16a3.18,3.18,0,0,1-1.12,1.73,3.34,3.34,0,0,1-2.08.61,3.28,3.28,0,0,1-2.52-1A3.79,3.79,0,0,1,61,24.3a4,4,0,0,1,.95-2.84,3.15,3.15,0,0,1,2.44-1,3.1,3.1,0,0,1,2.38,1,3.92,3.92,0,0,1,.93,2.79c0,.07,0,.18,0,.32H62.23a2.88,2.88,0,0,0,.68,1.84,2,2,0,0,0,1.52.63,1.89,1.89,0,0,0,1.15-.35A2.34,2.34,0,0,0,66.34,25.53Zm-4-2h4.06a2.44,2.44,0,0,0-.47-1.37,1.86,1.86,0,0,0-1.52-.71,2,2,0,0,0-1.43.56A2.28,2.28,0,0,0,62.3,23.54Z"/><path class="cls-5" d="M68.67,25.7l1.21-.19a1.71,1.71,0,0,0,.57,1.12,2,2,0,0,0,1.31.39A1.92,1.92,0,0,0,73,26.68a1,1,0,0,0,.41-.81.75.75,0,0,0-.36-.66,5.38,5.38,0,0,0-1.26-.42,10.17,10.17,0,0,1-1.87-.59,1.75,1.75,0,0,1-.8-.69,1.82,1.82,0,0,1-.27-1A1.93,1.93,0,0,1,69.7,21a2.58,2.58,0,0,1,.78-.36,3.67,3.67,0,0,1,1.06-.14,4.31,4.31,0,0,1,1.51.24,2.11,2.11,0,0,1,1,.67,2.55,2.55,0,0,1,.42,1.12l-1.2.17a1.27,1.27,0,0,0-.48-.88,1.73,1.73,0,0,0-1.11-.31,2,2,0,0,0-1.21.28.81.81,0,0,0-.36.65.66.66,0,0,0,.15.43,1,1,0,0,0,.47.33c.13.05.49.15,1.09.32a14.15,14.15,0,0,1,1.82.57,1.73,1.73,0,0,1,1.11,1.7,2.08,2.08,0,0,1-.36,1.16,2.37,2.37,0,0,1-1,.84,3.9,3.9,0,0,1-1.53.29,3.45,3.45,0,0,1-2.16-.58A2.76,2.76,0,0,1,68.67,25.7Z"/><path class="cls-5" d="M80,30.67l-.13-1.16a2.86,2.86,0,0,0,.7.11,1.38,1.38,0,0,0,.66-.14,1.12,1.12,0,0,0,.4-.38,6.22,6.22,0,0,0,.38-.92l.11-.3-2.76-7.27h1.33l1.51,4.2c.19.54.37,1.1.52,1.69.15-.57.32-1.12.51-1.66l1.55-4.23H86L83.24,28a14,14,0,0,1-.69,1.65,2.43,2.43,0,0,1-.75.89,1.77,1.77,0,0,1-1,.29A2.54,2.54,0,0,1,80,30.67Z"/><path class="cls-5" d="M90.94,27.87V20.61H92v1a2.59,2.59,0,0,1,.91-.86,2.52,2.52,0,0,1,1.29-.32,2.39,2.39,0,0,1,1.32.33,1.76,1.76,0,0,1,.73.94,2.6,2.6,0,0,1,2.24-1.27,2.23,2.23,0,0,1,1.67.59,2.61,2.61,0,0,1,.58,1.85v5H99.55V23.3a3.39,3.39,0,0,0-.12-1.07,1,1,0,0,0-.43-.52,1.39,1.39,0,0,0-.74-.2A1.72,1.72,0,0,0,97,22a2.23,2.23,0,0,0-.51,1.63v4.22H95.25V23.15a2.11,2.11,0,0,0-.3-1.23,1.15,1.15,0,0,0-1-.41,1.71,1.71,0,0,0-1,.28,1.47,1.47,0,0,0-.64.8,4.5,4.5,0,0,0-.2,1.51v3.77Z"/><path class="cls-5" d="M107.57,25.53l1.27.16a3.12,3.12,0,0,1-1.11,1.73,3.36,3.36,0,0,1-2.08.61,3.32,3.32,0,0,1-2.53-1,3.83,3.83,0,0,1-.93-2.75,4,4,0,0,1,.94-2.84,3.18,3.18,0,0,1,2.45-1,3.1,3.1,0,0,1,2.38,1,3.91,3.91,0,0,1,.92,2.79v.32h-5.42a2.82,2.82,0,0,0,.68,1.84,2,2,0,0,0,1.52.63,1.91,1.91,0,0,0,1.15-.35A2.41,2.41,0,0,0,107.57,25.53Zm-4-2h4a2.44,2.44,0,0,0-.46-1.37,1.86,1.86,0,0,0-1.52-.71,2,2,0,0,0-1.43.56A2.24,2.24,0,0,0,103.53,23.54Z"/><path class="cls-5" d="M110.37,27.87V20.61h1.11v1.1a3.09,3.09,0,0,1,.78-1,1.41,1.41,0,0,1,.79-.24,2.44,2.44,0,0,1,1.27.39L113.89,22a1.82,1.82,0,0,0-.9-.26,1.16,1.16,0,0,0-.72.24,1.29,1.29,0,0,0-.46.67,4.73,4.73,0,0,0-.21,1.44v3.8Z"/><path class="cls-5" d="M119.79,25.21l1.21.16a3.19,3.19,0,0,1-1,2,3,3,0,0,1-2,.7,3.1,3.1,0,0,1-2.39-1,3.92,3.92,0,0,1-.91-2.79,5,5,0,0,1,.39-2.06,2.7,2.7,0,0,1,1.19-1.32,3.45,3.45,0,0,1,1.73-.44,3,3,0,0,1,1.94.59,2.76,2.76,0,0,1,1,1.7l-1.2.19a1.93,1.93,0,0,0-.6-1.1,1.55,1.55,0,0,0-1-.37,1.92,1.92,0,0,0-1.51.66,3.17,3.17,0,0,0-.58,2.11,3.23,3.23,0,0,0,.56,2.13A1.82,1.82,0,0,0,118,27a1.75,1.75,0,0,0,1.21-.44A2.25,2.25,0,0,0,119.79,25.21Z"/><path class="cls-5" d="M126.79,27a4.41,4.41,0,0,1-1.32.82,3.78,3.78,0,0,1-1.36.24,2.61,2.61,0,0,1-1.83-.58,1.93,1.93,0,0,1-.65-1.49,2,2,0,0,1,.24-1,2.19,2.19,0,0,1,.64-.71,3.14,3.14,0,0,1,.89-.4,9.72,9.72,0,0,1,1.09-.18,10.84,10.84,0,0,0,2.19-.43c0-.17,0-.27,0-.32a1.38,1.38,0,0,0-.35-1.06,2,2,0,0,0-1.4-.42,2.19,2.19,0,0,0-1.28.31,1.81,1.81,0,0,0-.61,1.08l-1.21-.17a3.06,3.06,0,0,1,.54-1.25,2.44,2.44,0,0,1,1.09-.73,4.89,4.89,0,0,1,1.65-.25,4.53,4.53,0,0,1,1.51.21,1.91,1.91,0,0,1,.85.56,1.94,1.94,0,0,1,.39.83,7.16,7.16,0,0,1,.06,1.14v1.64A16,16,0,0,0,128,27a2.6,2.6,0,0,0,.31.87H127A2.64,2.64,0,0,1,126.79,27Zm-.11-2.74a9.16,9.16,0,0,1-2,.46,4.56,4.56,0,0,0-1.07.25,1,1,0,0,0-.48.4,1,1,0,0,0-.17.58,1,1,0,0,0,.37.82,1.6,1.6,0,0,0,1.09.33,2.5,2.5,0,0,0,1.26-.31,2,2,0,0,0,.82-.85,3,3,0,0,0,.19-1.23Z"/><path class="cls-5" d="M134.54,27.87V27a2.24,2.24,0,0,1-2,1.08,2.84,2.84,0,0,1-1.6-.48,3.08,3.08,0,0,1-1.13-1.33,4.56,4.56,0,0,1-.4-2,5.21,5.21,0,0,1,.36-2,2.85,2.85,0,0,1,2.71-1.82,2.46,2.46,0,0,1,1.17.27,2.53,2.53,0,0,1,.83.72V17.85h1.23v10Zm-3.88-3.62a3.15,3.15,0,0,0,.58,2.08,1.79,1.79,0,0,0,1.39.69,1.73,1.73,0,0,0,1.37-.66,3,3,0,0,0,.57-2,3.45,3.45,0,0,0-.58-2.19,1.77,1.77,0,0,0-1.41-.7,1.71,1.71,0,0,0-1.37.67A3.32,3.32,0,0,0,130.66,24.25Z"/><path class="cls-5" d="M137.16,24.24a3.78,3.78,0,0,1,1.12-3,3.44,3.44,0,0,1,2.29-.8,3.25,3.25,0,0,1,2.45,1,3.72,3.72,0,0,1,.94,2.71,4.78,4.78,0,0,1-.42,2.2,2.94,2.94,0,0,1-1.22,1.25,3.53,3.53,0,0,1-1.75.44,3.28,3.28,0,0,1-2.47-1A4,4,0,0,1,137.16,24.24Zm1.27,0a3.07,3.07,0,0,0,.61,2.09,1.94,1.94,0,0,0,1.53.69,1.91,1.91,0,0,0,1.52-.7,3.12,3.12,0,0,0,.61-2.12,3,3,0,0,0-.61-2,2,2,0,0,0-1.52-.7,1.94,1.94,0,0,0-1.53.69A3.09,3.09,0,0,0,138.43,24.24Z"/></g></g></svg>