<svg xmlns="http://www.w3.org/2000/svg" viewBox="0 0 406.12 96.83"><defs><style>.cls-1{fill:#9a9fbd;}.cls-2{fill:#e3ca34;}.cls-3{fill:#fff;}.cls-4{fill:#eedf85;}.cls-5{fill:#28203a;}</style></defs><g id="Capa_2" data-name="Capa 2"><g id="Capa_1-2" data-name="Capa 1"><path class="cls-1" d="M250.78,23.45,235,1.84H9.13C4.83,1.84,1.35,5.06,1.35,9V37.42c0,4,3.48,7.2,7.78,7.2H235.05Z"/><path class="cls-1" d="M14.29,38a1,1,0,0,1-1-1V8.74a1,1,0,1,1,2,0V37A1,1,0,0,1,14.29,38Z"/><path class="cls-2" d="M249.43,21.61,233.62,0H7.78C3.48,0,0,3.22,0,7.19V35.58c0,4,3.48,7.2,7.78,7.2H233.7Z"/><path class="cls-3" d="M12.94,36.18a1,1,0,0,1-1-1V6.9a1,1,0,0,1,2,0V35.19A1,1,0,0,1,12.94,36.18Z"/><rect class="cls-4" x="264.75" y="1.88" width="96.74" height="44.52" rx="6.84"/><rect class="cls-1" x="349.19" y="39.9" width="94.96" height="18.91" rx="2.16" transform="translate(347.31 446.02) rotate(-90)"/><path class="cls-5" d="M400.77,80.81h-8.59V77.16a6.1,6.1,0,0,1,.23-2,2,2,0,0,1,.82-1,2.47,2.47,0,0,1,1.35-.37,2.33,2.33,0,0,1,1.6.56,2.69,2.69,0,0,1,.79,1.7,4.12,4.12,0,0,1,.73-.93,9.57,9.57,0,0,1,1.39-1l1.68-1v2.07l-1.87,1.26a13.07,13.07,0,0,0-1.27.91,1.29,1.29,0,0,0-.35.52,2.74,2.74,0,0,0-.1.88v.35h3.59Zm-5-1.73V77.79a6.42,6.42,0,0,0-.11-1.55,1,1,0,0,0-.36-.49,1.1,1.1,0,0,0-.64-.18,1,1,0,0,0-.7.23,1.06,1.06,0,0,0-.34.66q0,.21,0,1.26v1.36Z"/><path class="cls-5" d="M398.78,68.56l.28-1.64a2.71,2.71,0,0,1,1.38,1,3,3,0,0,1,.47,1.71,2.8,2.8,0,0,1-1.06,2.4,3.59,3.59,0,0,1-2.15.61,3.42,3.42,0,0,1-2.42-.81,2.66,2.66,0,0,1-.88-2,2.75,2.75,0,0,1,.92-2.19,4.05,4.05,0,0,1,2.81-.77V71a1.72,1.72,0,0,0,1.14-.4,1.26,1.26,0,0,0,.41-1,1,1,0,0,0-.22-.65A1.25,1.25,0,0,0,398.78,68.56Zm-1.66-.09a1.6,1.6,0,0,0-1.09.36,1.17,1.17,0,0,0-.37.86,1.14,1.14,0,0,0,.39.89,1.53,1.53,0,0,0,1.07.35Z"/><path class="cls-5" d="M399,66.07l-.25-1.65a1.25,1.25,0,0,0,.73-.43,1.5,1.5,0,0,0,.25-.9,1.58,1.58,0,0,0-.24-1,.51.51,0,0,0-.44-.22.43.43,0,0,0-.31.12,1.18,1.18,0,0,0-.21.55,9.1,9.1,0,0,1-.81,2.52,1.6,1.6,0,0,1-1.4.74A1.72,1.72,0,0,1,395,65.2a3,3,0,0,1-.55-2,3.45,3.45,0,0,1,.42-1.9,2.13,2.13,0,0,1,1.23-.85l.29,1.55a1,1,0,0,0-.56.38,1.36,1.36,0,0,0-.19.79,1.76,1.76,0,0,0,.18.93.37.37,0,0,0,.33.19.35.35,0,0,0,.3-.16,6.24,6.24,0,0,0,.46-1.54,4.58,4.58,0,0,1,.74-1.84,1.52,1.52,0,0,1,1.22-.51,1.86,1.86,0,0,1,1.47.71,3.17,3.17,0,0,1,.62,2.12,3.5,3.5,0,0,1-.52,2A2.37,2.37,0,0,1,399,66.07Z"/><path class="cls-5" d="M400.77,54.72h-.94a2.34,2.34,0,0,1,.79.89,2.53,2.53,0,0,1,.29,1.17,2.36,2.36,0,0,1-.28,1.13,1.63,1.63,0,0,1-.77.72,3.43,3.43,0,0,1-1.38.22h-3.94V57.2h2.86a8,8,0,0,0,1.61-.09.85.85,0,0,0,.47-.33,1,1,0,0,0,.17-.61,1.23,1.23,0,0,0-.23-.75,1.1,1.1,0,0,0-.57-.46,6.85,6.85,0,0,0-1.68-.12h-2.63V53.19h6.23Z"/><path class="cls-5" d="M400.77,51.49h-8.59V49.84h8.59Z"/><path class="cls-5" d="M394.54,45.3h1.32v1.12h2.5a6.67,6.67,0,0,0,.89,0,.35.35,0,0,0,.21-.15.48.48,0,0,0,.08-.27,2,2,0,0,0-.16-.67l1.28-.14a3.38,3.38,0,0,1,.25,1.3,2.09,2.09,0,0,1-.15.81,1.19,1.19,0,0,1-.39.52,1.5,1.5,0,0,1-.64.23,7.43,7.43,0,0,1-1.16,0h-2.71v.76h-1.32v-.76h-1.23l-1-1.65h2.19Z"/><path class="cls-5" d="M396.44,42.92l-.27,1.5a2.3,2.3,0,0,1-1.33-.87,3.17,3.17,0,0,1-.44-1.83,4,4,0,0,1,.26-1.64,1.69,1.69,0,0,1,.67-.76,3.44,3.44,0,0,1,1.47-.22l1.92,0a6,6,0,0,0,1.21-.08,3.66,3.66,0,0,0,.84-.29v1.63l-.49.15-.19.06a3.05,3.05,0,0,1,.61.9,2.6,2.6,0,0,1,.21,1,2.09,2.09,0,0,1-.53,1.51,1.71,1.71,0,0,1-1.31.56,1.81,1.81,0,0,1-.94-.25,1.69,1.69,0,0,1-.64-.71,5.87,5.87,0,0,1-.38-1.31,9,9,0,0,0-.41-1.6h-.16a.81.81,0,0,0-.67.24,1.34,1.34,0,0,0-.21.88,1.18,1.18,0,0,0,.18.69A1.16,1.16,0,0,0,396.44,42.92Zm1.34-2.2c.07.21.15.55.25,1a2.88,2.88,0,0,0,.29.9.69.69,0,0,0,.58.32.75.75,0,0,0,.59-.26.89.89,0,0,0,.26-.65,1.4,1.4,0,0,0-.3-.85,1,1,0,0,0-.54-.39,2.86,2.86,0,0,0-.8-.07Z"/><path class="cls-5" d="M400.77,31.77V33.3h-.92a2.61,2.61,0,0,1,.8.9,2.34,2.34,0,0,1-.61,2.89,4.23,4.23,0,0,1-4.81,0,2.44,2.44,0,0,1-.83-1.88,2.33,2.33,0,0,1,.87-1.81h-3.09V31.77Zm-3.25,4.4a2.79,2.79,0,0,0,1.44-.28,1.23,1.23,0,0,0,.65-1.11,1.21,1.21,0,0,0-.49-1,2.25,2.25,0,0,0-1.44-.4,2.45,2.45,0,0,0-1.55.39,1.27,1.27,0,0,0,0,2A2.06,2.06,0,0,0,397.52,36.17Z"/><path class="cls-5" d="M397.57,30.53a3.35,3.35,0,0,1-1.59-.4A2.76,2.76,0,0,1,394.81,29a3.36,3.36,0,0,1-.41-1.65,3.13,3.13,0,0,1,.92-2.32A3.45,3.45,0,0,1,400,25a3.08,3.08,0,0,1,.93,2.3,3.59,3.59,0,0,1-.39,1.63,2.74,2.74,0,0,1-1.13,1.18A3.79,3.79,0,0,1,397.57,30.53Zm.08-1.69a2,2,0,0,0,1.42-.44,1.44,1.44,0,0,0,0-2.16,2.09,2.09,0,0,0-1.43-.44,2,2,0,0,0-1.4.44,1.42,1.42,0,0,0,0,2.16A2,2,0,0,0,397.65,28.84Z"/><path class="cls-5" d="M399,23.4l-.25-1.65a1.2,1.2,0,0,0,.73-.43,1.46,1.46,0,0,0,.25-.9,1.58,1.58,0,0,0-.24-1,.51.51,0,0,0-.44-.22.43.43,0,0,0-.31.12,1.18,1.18,0,0,0-.21.55,9,9,0,0,1-.81,2.52,1.58,1.58,0,0,1-1.4.74,1.72,1.72,0,0,1-1.36-.64,3,3,0,0,1-.55-2,3.45,3.45,0,0,1,.42-1.9,2.17,2.17,0,0,1,1.23-.85l.29,1.55a1,1,0,0,0-.56.38,1.38,1.38,0,0,0-.19.79,1.83,1.83,0,0,0,.18.94.38.38,0,0,0,.33.18.35.35,0,0,0,.3-.16,6.24,6.24,0,0,0,.46-1.54,4.58,4.58,0,0,1,.74-1.84,1.52,1.52,0,0,1,1.22-.51,1.89,1.89,0,0,1,1.47.71,3.19,3.19,0,0,1,.62,2.12,3.48,3.48,0,0,1-.52,2A2.33,2.33,0,0,1,399,23.4Z"/><path class="cls-5" d="M292.76,19.74a3.87,3.87,0,0,1,1-2.79,3.26,3.26,0,0,1,2.47-1,3.4,3.4,0,0,1,1.79.48,3,3,0,0,1,1.21,1.32,4.24,4.24,0,0,1,.42,1.92,4.3,4.3,0,0,1-.44,1.95,3,3,0,0,1-1.25,1.3,3.56,3.56,0,0,1-1.73.44,3.34,3.34,0,0,1-1.81-.49,3.18,3.18,0,0,1-1.21-1.33A4.12,4.12,0,0,1,292.76,19.74Zm1,0a2.81,2.81,0,0,0,.7,2,2.26,2.26,0,0,0,1.74.75,2.29,2.29,0,0,0,1.76-.75,3.06,3.06,0,0,0,.69-2.14,3.75,3.75,0,0,0-.29-1.52,2.27,2.27,0,0,0-.87-1,2.32,2.32,0,0,0-1.27-.36,2.42,2.42,0,0,0-1.73.69A3.06,3.06,0,0,0,293.74,19.76Z"/><path class="cls-5" d="M301.53,23.23h-.82V16.07h.88v2.55a1.76,1.76,0,0,1,1.42-.7,2.19,2.19,0,0,1,.91.2,1.88,1.88,0,0,1,.7.54,2.38,2.38,0,0,1,.43.84,3.32,3.32,0,0,1,.16,1.06,3,3,0,0,1-.66,2.06,2.08,2.08,0,0,1-1.58.72,1.65,1.65,0,0,1-1.44-.76Zm0-2.63a2.64,2.64,0,0,0,.25,1.34,1.26,1.26,0,0,0,2.12.18,2.26,2.26,0,0,0,.42-1.49,2.3,2.3,0,0,0-.4-1.5,1.24,1.24,0,0,0-2,0A2.18,2.18,0,0,0,301.52,20.6Z"/><path class="cls-5" d="M305.16,25.24l.17-.75a1.51,1.51,0,0,0,.41.07.46.46,0,0,0,.4-.18,1.79,1.79,0,0,0,.13-.89V18h.88v5.47a2.5,2.5,0,0,1-.25,1.33,1.15,1.15,0,0,1-1,.49A2.61,2.61,0,0,1,305.16,25.24Zm1.11-8.15v-1h.88v1Z"/><path class="cls-5" d="M312.05,21.56l.91.11a2.17,2.17,0,0,1-.8,1.23,2.33,2.33,0,0,1-1.48.44,2.38,2.38,0,0,1-1.81-.7,2.73,2.73,0,0,1-.66-2,2.86,2.86,0,0,1,.67-2,2.29,2.29,0,0,1,1.75-.73,2.23,2.23,0,0,1,1.7.71,2.81,2.81,0,0,1,.66,2,2.37,2.37,0,0,1,0,.24h-3.86a2,2,0,0,0,.48,1.31,1.44,1.44,0,0,0,1.08.45,1.34,1.34,0,0,0,.83-.25A1.65,1.65,0,0,0,312.05,21.56Zm-2.89-1.42h2.9a1.81,1.81,0,0,0-.33-1,1.36,1.36,0,0,0-1.09-.5,1.41,1.41,0,0,0-1,.4A1.63,1.63,0,0,0,309.16,20.14Z"/><path class="cls-5" d="M316,22.44l.13.78a3.47,3.47,0,0,1-.67.08,1.51,1.51,0,0,1-.74-.16.87.87,0,0,1-.37-.39,3.2,3.2,0,0,1-.11-1v-3h-.64V18h.64V16.76l.88-.53V18H316v.69h-.88v3a1.6,1.6,0,0,0,0,.48.37.37,0,0,0,.16.17.6.6,0,0,0,.3.07Z"/><path class="cls-5" d="M316.85,17.08v-1h.87v1Zm0,6.15V18h.87v5.19Z"/><path class="cls-5" d="M320.5,23.23l-2-5.19h.93l1.11,3.11c.12.33.23.68.33,1,.08-.27.19-.6.33-1L322.38,18h.91l-2,5.19Z"/><path class="cls-5" d="M323.74,20.63a2.64,2.64,0,0,1,.8-2.13,2.43,2.43,0,0,1,1.63-.58,2.31,2.31,0,0,1,1.74.71,2.61,2.61,0,0,1,.68,1.93,3.47,3.47,0,0,1-.3,1.58,2.13,2.13,0,0,1-.87.89,2.55,2.55,0,0,1-1.25.31,2.33,2.33,0,0,1-1.76-.69A2.8,2.8,0,0,1,323.74,20.63Zm.9,0a2.22,2.22,0,0,0,.43,1.5,1.4,1.4,0,0,0,1.1.49,1.37,1.37,0,0,0,1.09-.5,2.23,2.23,0,0,0,.43-1.51,2.14,2.14,0,0,0-.44-1.46,1.38,1.38,0,0,0-1.08-.5,1.41,1.41,0,0,0-1.1.5A2.16,2.16,0,0,0,324.64,20.63Z"/><path class="cls-5" d="M329.27,21.68l.87-.14a1.22,1.22,0,0,0,.41.8,1.74,1.74,0,0,0,1.83,0,.74.74,0,0,0,.3-.58.54.54,0,0,0-.26-.47,3.66,3.66,0,0,0-.9-.3,7.73,7.73,0,0,1-1.34-.42,1.33,1.33,0,0,1-.57-.5,1.28,1.28,0,0,1-.19-.69,1.27,1.27,0,0,1,.16-.64,1.35,1.35,0,0,1,.43-.49,1.83,1.83,0,0,1,.56-.26,2.63,2.63,0,0,1,.76-.11,2.93,2.93,0,0,1,1.07.18,1.49,1.49,0,0,1,.68.48,1.72,1.72,0,0,1,.3.8l-.86.12a.93.93,0,0,0-.33-.63,1.27,1.27,0,0,0-.8-.22,1.38,1.38,0,0,0-.86.2.56.56,0,0,0-.26.47.43.43,0,0,0,.11.3.71.71,0,0,0,.33.24c.09,0,.35.11.78.22a11,11,0,0,1,1.3.41,1.34,1.34,0,0,1,.58.46,1.28,1.28,0,0,1,.21.75,1.48,1.48,0,0,1-.26.83,1.59,1.59,0,0,1-.74.6,2.68,2.68,0,0,1-1.09.21,2.44,2.44,0,0,1-1.54-.42A2,2,0,0,1,329.27,21.68Z"/><path class="cls-5" d="M290.37,31.56l.91.11a2.21,2.21,0,0,1-.79,1.23,2.38,2.38,0,0,1-1.49.44,2.34,2.34,0,0,1-1.8-.7,2.69,2.69,0,0,1-.67-2,2.86,2.86,0,0,1,.67-2,2.31,2.31,0,0,1,1.75-.73,2.22,2.22,0,0,1,1.7.71,2.81,2.81,0,0,1,.66,2v.24h-3.87a2,2,0,0,0,.48,1.31,1.45,1.45,0,0,0,1.09.45,1.33,1.33,0,0,0,.82-.25A1.65,1.65,0,0,0,290.37,31.56Zm-2.88-1.42h2.89a1.81,1.81,0,0,0-.33-1,1.36,1.36,0,0,0-1.09-.5,1.41,1.41,0,0,0-1,.4A1.63,1.63,0,0,0,287.49,30.14Z"/><path class="cls-5" d="M292,31.68l.87-.14a1.22,1.22,0,0,0,.41.8,1.74,1.74,0,0,0,1.83,0,.74.74,0,0,0,.3-.58.54.54,0,0,0-.26-.47,3.66,3.66,0,0,0-.9-.3,7.73,7.73,0,0,1-1.34-.42,1.33,1.33,0,0,1-.57-.5,1.28,1.28,0,0,1-.19-.69,1.27,1.27,0,0,1,.16-.64,1.35,1.35,0,0,1,.43-.49,1.83,1.83,0,0,1,.56-.26,2.68,2.68,0,0,1,.76-.11,2.93,2.93,0,0,1,1.07.18,1.43,1.43,0,0,1,.68.48,1.72,1.72,0,0,1,.3.8l-.86.12a.93.93,0,0,0-.33-.63,1.27,1.27,0,0,0-.8-.22,1.38,1.38,0,0,0-.86.2.59.59,0,0,0-.26.47.48.48,0,0,0,.11.3.71.71,0,0,0,.33.24c.09,0,.35.11.78.22a10.39,10.39,0,0,1,1.3.41,1.34,1.34,0,0,1,.58.46,1.28,1.28,0,0,1,.21.75,1.48,1.48,0,0,1-.26.83,1.59,1.59,0,0,1-.74.6,2.68,2.68,0,0,1-1.09.21,2.44,2.44,0,0,1-1.54-.42A2,2,0,0,1,292,31.68Z"/><path class="cls-5" d="M299.3,32.44l.13.78a3.46,3.46,0,0,1-.66.08,1.55,1.55,0,0,1-.75-.16.87.87,0,0,1-.37-.39,3.29,3.29,0,0,1-.1-1v-3h-.65V28h.65V26.76l.87-.53V28h.88v.69h-.88v3a1.49,1.49,0,0,0,.05.48.35.35,0,0,0,.15.17.6.6,0,0,0,.3.07A3.53,3.53,0,0,0,299.3,32.44Z"/><path class="cls-5" d="M300.15,33.23V28h.79v.79a2.29,2.29,0,0,1,.56-.73,1,1,0,0,1,.57-.18,1.73,1.73,0,0,1,.9.29l-.3.81a1.35,1.35,0,0,0-.65-.19.79.79,0,0,0-.51.18.84.84,0,0,0-.33.48,3.31,3.31,0,0,0-.15,1v2.72Z"/><path class="cls-5" d="M306.88,32.59a3.38,3.38,0,0,1-.94.58,2.61,2.61,0,0,1-1,.17,1.9,1.9,0,0,1-1.32-.41,1.51,1.51,0,0,1-.28-1.77,1.45,1.45,0,0,1,.45-.5,2.26,2.26,0,0,1,.63-.29,5.57,5.57,0,0,1,.79-.13,8.94,8.94,0,0,0,1.56-.3c0-.12,0-.2,0-.23a1,1,0,0,0-.25-.76,1.48,1.48,0,0,0-1-.3,1.54,1.54,0,0,0-.92.22,1.32,1.32,0,0,0-.43.77l-.86-.12a2,2,0,0,1,.38-.89,1.65,1.65,0,0,1,.78-.52,3.52,3.52,0,0,1,1.18-.19,3.13,3.13,0,0,1,1.07.16,1.53,1.53,0,0,1,.61.39,1.39,1.39,0,0,1,.28.6,5,5,0,0,1,0,.81v1.17a11.54,11.54,0,0,0,.06,1.55,2.06,2.06,0,0,0,.22.63h-.92A1.83,1.83,0,0,1,306.88,32.59Zm-.08-2a6.25,6.25,0,0,1-1.43.34,3.64,3.64,0,0,0-.77.17.83.83,0,0,0-.35.29.74.74,0,0,0-.12.42.73.73,0,0,0,.27.58,1.14,1.14,0,0,0,.78.24,1.77,1.77,0,0,0,.9-.23,1.34,1.34,0,0,0,.58-.6,2.07,2.07,0,0,0,.14-.88Z"/><path class="cls-5" d="M311,32.44l.13.78a3.46,3.46,0,0,1-.66.08,1.55,1.55,0,0,1-.75-.16.87.87,0,0,1-.37-.39,3.29,3.29,0,0,1-.1-1v-3h-.65V28h.65V26.76l.87-.53V28H311v.69h-.88v3a1.49,1.49,0,0,0,.05.48.35.35,0,0,0,.15.17.6.6,0,0,0,.3.07A3.53,3.53,0,0,0,311,32.44Z"/><path class="cls-5" d="M315.38,31.56l.91.11a2.17,2.17,0,0,1-.8,1.23,2.68,2.68,0,0,1-3.28-.26,2.69,2.69,0,0,1-.67-2,2.86,2.86,0,0,1,.67-2,2.31,2.31,0,0,1,1.75-.73,2.22,2.22,0,0,1,1.7.71,2.81,2.81,0,0,1,.66,2v.24h-3.87a2,2,0,0,0,.48,1.31,1.45,1.45,0,0,0,1.09.45,1.33,1.33,0,0,0,.82-.25A1.65,1.65,0,0,0,315.38,31.56Zm-2.88-1.42h2.89a1.81,1.81,0,0,0-.33-1,1.36,1.36,0,0,0-1.09-.5,1.41,1.41,0,0,0-1,.4A1.63,1.63,0,0,0,312.5,30.14Zm.94-2.74.65-1.37h1.16l-1.08,1.37Z"/><path class="cls-5" d="M317.23,33.66l.86.12a.77.77,0,0,0,.3.58,1.45,1.45,0,0,0,.89.24,1.57,1.57,0,0,0,.94-.24,1.21,1.21,0,0,0,.45-.68,5,5,0,0,0,.06-1.13,1.8,1.8,0,0,1-1.43.68,2,2,0,0,1-1.66-.77,3,3,0,0,1-.58-1.85,3.38,3.38,0,0,1,.27-1.37,2,2,0,0,1,.77-1,2.12,2.12,0,0,1,1.2-.35,1.86,1.86,0,0,1,1.52.75V28h.81v4.48a4.16,4.16,0,0,1-.25,1.72,1.77,1.77,0,0,1-.78.8,2.8,2.8,0,0,1-1.32.29,2.51,2.51,0,0,1-1.5-.42A1.4,1.4,0,0,1,317.23,33.66Zm.73-3.12a2.25,2.25,0,0,0,.41,1.49,1.28,1.28,0,0,0,1,.47,1.33,1.33,0,0,0,1-.47,2.18,2.18,0,0,0,.41-1.46,2.12,2.12,0,0,0-.42-1.43,1.32,1.32,0,0,0-1-.49,1.27,1.27,0,0,0-1,.48A2.14,2.14,0,0,0,318,30.54Z"/><path class="cls-5" d="M323,27.08v-1h.88v1Zm0,6.15V28h.88v5.19Z"/><path class="cls-5" d="M328.56,31.33l.87.11a2.27,2.27,0,0,1-.73,1.4,2.1,2.1,0,0,1-1.43.5,2.23,2.23,0,0,1-1.71-.69,2.8,2.8,0,0,1-.65-2,3.54,3.54,0,0,1,.28-1.47,1.93,1.93,0,0,1,.84-.94,2.54,2.54,0,0,1,1.24-.32,2.15,2.15,0,0,1,1.38.43,2,2,0,0,1,.69,1.22l-.85.13a1.47,1.47,0,0,0-.43-.79,1.16,1.16,0,0,0-.75-.26,1.36,1.36,0,0,0-1.08.47,2.25,2.25,0,0,0-.42,1.51,2.38,2.38,0,0,0,.4,1.52,1.33,1.33,0,0,0,1.05.47,1.19,1.19,0,0,0,.86-.32A1.55,1.55,0,0,0,328.56,31.33Z"/><path class="cls-5" d="M329.85,30.63a2.67,2.67,0,0,1,.8-2.13,2.44,2.44,0,0,1,1.63-.58,2.33,2.33,0,0,1,1.75.71,2.66,2.66,0,0,1,.68,1.93,3.47,3.47,0,0,1-.3,1.58,2.1,2.1,0,0,1-.88.89,2.55,2.55,0,0,1-1.25.31,2.36,2.36,0,0,1-1.76-.69A2.8,2.8,0,0,1,329.85,30.63Zm.9,0a2.22,2.22,0,0,0,.44,1.5,1.38,1.38,0,0,0,1.09.49,1.36,1.36,0,0,0,1.09-.5,2.23,2.23,0,0,0,.44-1.51,2.14,2.14,0,0,0-.44-1.46,1.4,1.4,0,0,0-1.09-.5,1.39,1.39,0,0,0-1.09.5A2.16,2.16,0,0,0,330.75,30.63Z"/><path class="cls-5" d="M335.39,31.68l.87-.14a1.21,1.21,0,0,0,.4.8,1.76,1.76,0,0,0,1.84,0,.76.76,0,0,0,.29-.58.54.54,0,0,0-.26-.47,3.66,3.66,0,0,0-.9-.3,8,8,0,0,1-1.34-.42,1.3,1.3,0,0,1-.56-.5,1.29,1.29,0,0,1-.2-.69,1.38,1.38,0,0,1,.16-.64,1.45,1.45,0,0,1,.43-.49,2,2,0,0,1,.56-.26,2.68,2.68,0,0,1,.76-.11,3,3,0,0,1,1.08.18,1.54,1.54,0,0,1,.68.48,2,2,0,0,1,.3.8l-.86.12a.94.94,0,0,0-.34-.63,1.24,1.24,0,0,0-.79-.22,1.41,1.41,0,0,0-.87.2.59.59,0,0,0-.26.47.48.48,0,0,0,.11.3.69.69,0,0,0,.34.24c.09,0,.34.11.77.22a10.7,10.7,0,0,1,1.31.41,1.37,1.37,0,0,1,.57.46,1.28,1.28,0,0,1,.21.75,1.47,1.47,0,0,1-.25.83,1.65,1.65,0,0,1-.74.6,2.73,2.73,0,0,1-1.1.21,2.46,2.46,0,0,1-1.54-.42A2,2,0,0,1,335.39,31.68Z"/><path class="cls-5" d="M31.18,22V20.86h4.24v3.72a7.4,7.4,0,0,1-2,1.17,6.09,6.09,0,0,1-2.13.4,5.74,5.74,0,0,1-2.69-.64,4.18,4.18,0,0,1-1.82-1.83A5.71,5.71,0,0,1,26.16,21a6.2,6.2,0,0,1,.61-2.73,4,4,0,0,1,1.76-1.88,5.48,5.48,0,0,1,2.64-.62,5.36,5.36,0,0,1,2,.35,3.41,3.41,0,0,1,1.38,1,4.23,4.23,0,0,1,.75,1.64l-1.19.32a3.73,3.73,0,0,0-.56-1.2,2.44,2.44,0,0,0-1-.7,3.4,3.4,0,0,0-1.38-.26,4.12,4.12,0,0,0-1.57.27,3,3,0,0,0-1.07.73,3.46,3.46,0,0,0-.63,1,5.16,5.16,0,0,0-.39,2A5,5,0,0,0,28,23.16a3,3,0,0,0,1.35,1.34,4.15,4.15,0,0,0,1.87.44,4.49,4.49,0,0,0,1.68-.33,4.43,4.43,0,0,0,1.25-.71V22Z"/><path class="cls-5" d="M42.19,23.63l1.27.15a3.08,3.08,0,0,1-1.11,1.73,3.76,3.76,0,0,1-4.6-.36,3.81,3.81,0,0,1-.94-2.75,4,4,0,0,1,.95-2.85,3.18,3.18,0,0,1,2.44-1,3.1,3.1,0,0,1,2.38,1,3.91,3.91,0,0,1,.92,2.79v.33H38.08a2.82,2.82,0,0,0,.68,1.83,2,2,0,0,0,1.52.64,1.84,1.84,0,0,0,1.15-.36A2.3,2.3,0,0,0,42.19,23.63Zm-4-2h4.06a2.5,2.5,0,0,0-.47-1.38,1.89,1.89,0,0,0-1.52-.71,2,2,0,0,0-1.43.57A2.26,2.26,0,0,0,38.15,21.64Z"/><path class="cls-5" d="M45,26V18.7h1.11v1a2.6,2.6,0,0,1,2.31-1.2,3,3,0,0,1,1.2.24,1.8,1.8,0,0,1,.83.62,2.29,2.29,0,0,1,.38.9,7.72,7.72,0,0,1,.07,1.2V26H49.68V21.55a3.23,3.23,0,0,0-.15-1.13,1.19,1.19,0,0,0-.5-.59,1.64,1.64,0,0,0-.86-.22,2,2,0,0,0-1.36.5A2.45,2.45,0,0,0,46.24,22v4Z"/><path class="cls-5" d="M57.76,23.63l1.28.15a3.1,3.1,0,0,1-1.12,1.73,3.76,3.76,0,0,1-4.6-.36,3.85,3.85,0,0,1-.94-2.75,4,4,0,0,1,.95-2.85,3.2,3.2,0,0,1,2.45-1,3.08,3.08,0,0,1,2.37,1,3.92,3.92,0,0,1,.93,2.79c0,.07,0,.18,0,.33H53.66a2.77,2.77,0,0,0,.67,1.83,2,2,0,0,0,1.52.64A1.88,1.88,0,0,0,57,24.76,2.36,2.36,0,0,0,57.76,23.63Zm-4-2h4.06a2.5,2.5,0,0,0-.47-1.38,1.89,1.89,0,0,0-1.52-.71,2,2,0,0,0-1.43.57A2.31,2.31,0,0,0,53.72,21.64Z"/><path class="cls-5" d="M60.57,26V18.7h1.1v1.11a3,3,0,0,1,.79-1,1.33,1.33,0,0,1,.79-.25,2.36,2.36,0,0,1,1.26.4l-.42,1.14a1.74,1.74,0,0,0-.9-.27,1.21,1.21,0,0,0-.73.24,1.38,1.38,0,0,0-.46.68,5,5,0,0,0-.2,1.43V26Z"/><path class="cls-5" d="M70,25.07a4.37,4.37,0,0,1-1.32.82,3.76,3.76,0,0,1-1.35.24,2.64,2.64,0,0,1-1.84-.59,1.91,1.91,0,0,1-.64-1.49,2,2,0,0,1,.87-1.68,3,3,0,0,1,.89-.4,7.8,7.8,0,0,1,1.09-.19,11.73,11.73,0,0,0,2.2-.42V21A1.35,1.35,0,0,0,69.54,20a2.08,2.08,0,0,0-1.41-.42,2.22,2.22,0,0,0-1.28.3,1.89,1.89,0,0,0-.61,1.08L65,20.78a3,3,0,0,1,.54-1.25,2.33,2.33,0,0,1,1.08-.73,4.93,4.93,0,0,1,1.65-.26,4.23,4.23,0,0,1,1.51.22,1.94,1.94,0,0,1,.86.55,1.92,1.92,0,0,1,.38.84,7.09,7.09,0,0,1,.06,1.13v1.64a17.7,17.7,0,0,0,.08,2.17,2.66,2.66,0,0,0,.31.87H70.23A2.58,2.58,0,0,1,70,25.07Zm-.1-2.75a9.35,9.35,0,0,1-2,.47,4.66,4.66,0,0,0-1.08.24,1.11,1.11,0,0,0-.48.4,1.1,1.1,0,0,0-.17.59,1.05,1.05,0,0,0,.37.82,1.59,1.59,0,0,0,1.09.32,2.52,2.52,0,0,0,1.27-.31,1.85,1.85,0,0,0,.81-.85,3,3,0,0,0,.2-1.23Z"/><path class="cls-5" d="M77.77,23.31l1.21.15a3.14,3.14,0,0,1-1,2,3,3,0,0,1-2,.71,3.11,3.11,0,0,1-2.39-1,3.92,3.92,0,0,1-.91-2.79A5.08,5.08,0,0,1,73,20.3,2.79,2.79,0,0,1,74.23,19,3.56,3.56,0,0,1,76,18.54a3,3,0,0,1,1.94.6,2.73,2.73,0,0,1,1,1.7l-1.2.18a2,2,0,0,0-.6-1.1,1.6,1.6,0,0,0-1-.37,1.9,1.9,0,0,0-1.51.67,3.15,3.15,0,0,0-.58,2.11,3.28,3.28,0,0,0,.56,2.12,1.8,1.8,0,0,0,1.46.67,1.71,1.71,0,0,0,1.21-.45A2.22,2.22,0,0,0,77.77,23.31Z"/><path class="cls-5" d="M80,17.36V15.94h1.23v1.42ZM80,26V18.7h1.23V26Z"/><path class="cls-5" d="M82.68,22.33a3.71,3.71,0,0,1,1.12-3,3.39,3.39,0,0,1,2.29-.81,3.26,3.26,0,0,1,2.44,1,3.72,3.72,0,0,1,1,2.71,4.83,4.83,0,0,1-.42,2.21,3,3,0,0,1-1.22,1.24,3.54,3.54,0,0,1-1.75.45,3.28,3.28,0,0,1-2.47-1A3.89,3.89,0,0,1,82.68,22.33Zm1.27,0a3.12,3.12,0,0,0,.6,2.09,2,2,0,0,0,3.06,0,3.15,3.15,0,0,0,.61-2.13,3.07,3.07,0,0,0-.61-2,2,2,0,0,0-3.06,0A3.09,3.09,0,0,0,84,22.33ZM85.4,17.8l.91-1.91h1.61l-1.5,1.91Z"/><path class="cls-5" d="M90.93,26V18.7H92v1a2.62,2.62,0,0,1,2.31-1.2,3,3,0,0,1,1.21.24,1.77,1.77,0,0,1,.82.62,2.3,2.3,0,0,1,.39.9,8.09,8.09,0,0,1,.06,1.2V26H95.59V21.55a3.27,3.27,0,0,0-.14-1.13,1.16,1.16,0,0,0-.51-.59,1.6,1.6,0,0,0-.86-.22,2,2,0,0,0-1.35.5A2.45,2.45,0,0,0,92.16,22v4Z"/><path class="cls-5" d="M107.31,26v-.91a2.26,2.26,0,0,1-2,1.08,2.81,2.81,0,0,1-1.59-.48,3,3,0,0,1-1.13-1.34,4.56,4.56,0,0,1-.4-2,5.2,5.2,0,0,1,.36-2A2.85,2.85,0,0,1,103.61,19a2.93,2.93,0,0,1,1.62-.47,2.41,2.41,0,0,1,1.17.28,2.32,2.32,0,0,1,.83.72v-3.6h1.22V26Zm-3.89-3.62a3.18,3.18,0,0,0,.59,2.09,1.76,1.76,0,0,0,1.39.69,1.74,1.74,0,0,0,1.37-.66,3.08,3.08,0,0,0,.56-2,3.41,3.41,0,0,0-.57-2.18,1.77,1.77,0,0,0-1.42-.7,1.71,1.71,0,0,0-1.37.67A3.35,3.35,0,0,0,103.42,22.34Z"/><path class="cls-5" d="M115.36,23.63l1.27.15a3,3,0,0,1-1.12,1.73,3.76,3.76,0,0,1-4.6-.36A3.85,3.85,0,0,1,110,22.4a4,4,0,0,1,.94-2.85,3.22,3.22,0,0,1,2.45-1,3.12,3.12,0,0,1,2.38,1,4,4,0,0,1,.92,2.79c0,.07,0,.18,0,.33h-5.41a2.72,2.72,0,0,0,.68,1.83,2,2,0,0,0,1.51.64,1.88,1.88,0,0,0,1.16-.36A2.37,2.37,0,0,0,115.36,23.63Zm-4-2h4.05a2.5,2.5,0,0,0-.46-1.38,1.91,1.91,0,0,0-1.53-.71,1.94,1.94,0,0,0-1.42.57A2.22,2.22,0,0,0,111.32,21.64Z"/><path class="cls-5" d="M124.08,26l-2.76-7.26h1.3l1.56,4.35c.16.47.32,1,.46,1.47.11-.39.26-.85.46-1.39l1.61-4.43H128L125.23,26Z"/><path class="cls-5" d="M133.8,25.07a4.37,4.37,0,0,1-1.32.82,3.76,3.76,0,0,1-1.35.24,2.64,2.64,0,0,1-1.84-.59,1.91,1.91,0,0,1-.64-1.49,2,2,0,0,1,.24-1,1.91,1.91,0,0,1,.64-.71,2.83,2.83,0,0,1,.88-.4,7.8,7.8,0,0,1,1.09-.19,11.73,11.73,0,0,0,2.2-.42V21a1.35,1.35,0,0,0-.34-1.06,2.08,2.08,0,0,0-1.41-.42,2.22,2.22,0,0,0-1.28.3,1.89,1.89,0,0,0-.61,1.08l-1.2-.16a3,3,0,0,1,.54-1.25,2.31,2.31,0,0,1,1.09-.73,4.82,4.82,0,0,1,1.64-.26,4.23,4.23,0,0,1,1.51.22,1.94,1.94,0,0,1,.86.55,1.92,1.92,0,0,1,.38.84,7.09,7.09,0,0,1,.06,1.13v1.64a17.7,17.7,0,0,0,.08,2.17,2.66,2.66,0,0,0,.31.87h-1.28A2.58,2.58,0,0,1,133.8,25.07Zm-.1-2.75a9.35,9.35,0,0,1-2,.47,4.42,4.42,0,0,0-1.07.24,1,1,0,0,0-.66,1,1.05,1.05,0,0,0,.37.82,1.59,1.59,0,0,0,1.09.32,2.52,2.52,0,0,0,1.27-.31,1.85,1.85,0,0,0,.81-.85,3,3,0,0,0,.2-1.23Z"/><path class="cls-5" d="M136.82,26v-10h1.23V26Z"/><path class="cls-5" d="M139.5,22.33a3.71,3.71,0,0,1,1.12-3,3.39,3.39,0,0,1,2.29-.81,3.26,3.26,0,0,1,2.44,1,3.72,3.72,0,0,1,1,2.71,4.83,4.83,0,0,1-.42,2.21,2.92,2.92,0,0,1-1.22,1.24,3.54,3.54,0,0,1-1.75.45,3.28,3.28,0,0,1-2.47-1A3.93,3.93,0,0,1,139.5,22.33Zm1.27,0a3.12,3.12,0,0,0,.6,2.09,2,2,0,0,0,3.06,0,3.15,3.15,0,0,0,.61-2.13,3.07,3.07,0,0,0-.61-2,2,2,0,0,0-3.06,0A3.09,3.09,0,0,0,140.77,22.33Z"/><path class="cls-5" d="M147.73,26V18.7h1.11v1.11a2.88,2.88,0,0,1,.78-1,1.33,1.33,0,0,1,.79-.25,2.36,2.36,0,0,1,1.27.4l-.43,1.14a1.74,1.74,0,0,0-.9-.27,1.16,1.16,0,0,0-.72.24,1.32,1.32,0,0,0-.46.68,4.66,4.66,0,0,0-.21,1.43V26Z"/></g></g></svg>