<svg xmlns="http://www.w3.org/2000/svg" xmlns:xlink="http://www.w3.org/1999/xlink" viewBox="0 0 149.14 211.5"><defs><style>.cls-1{mask:url(#mask);filter:url(#luminosity-noclip-3);}.cls-2,.cls-32,.cls-4,.cls-46,.cls-48{mix-blend-mode:multiply;}.cls-2{fill:url(#radial-gradient);}.cls-3{mask:url(#mask-2);filter:url(#luminosity-noclip-4);}.cls-4{fill:url(#radial-gradient-2);}.cls-5{isolation:isolate;}.cls-6{fill:#b4d1db;}.cls-7{fill:url(#radial-gradient-3);}.cls-8{fill:#69361f;}.cls-9{fill:url(#radial-gradient-4);}.cls-10{fill:url(#radial-gradient-5);}.cls-11{fill:url(#radial-gradient-6);}.cls-12{fill:url(#radial-gradient-7);}.cls-13{fill:url(#radial-gradient-8);}.cls-14{fill:url(#radial-gradient-9);}.cls-15{fill:url(#radial-gradient-10);}.cls-16{fill:url(#radial-gradient-11);}.cls-17{fill:url(#radial-gradient-12);}.cls-18{fill:url(#radial-gradient-13);}.cls-19{fill:url(#radial-gradient-14);}.cls-20{fill:url(#radial-gradient-15);}.cls-21{fill:url(#radial-gradient-16);}.cls-22{fill:url(#radial-gradient-17);}.cls-23{fill:url(#radial-gradient-18);}.cls-24{fill:url(#radial-gradient-19);}.cls-25{fill:url(#linear-gradient);}.cls-26{fill:url(#linear-gradient-2);}.cls-27{fill:url(#linear-gradient-3);}.cls-28{fill:url(#linear-gradient-4);}.cls-29{fill:url(#linear-gradient-5);}.cls-30{fill:url(#linear-gradient-6);}.cls-31{fill:url(#linear-gradient-7);}.cls-32{opacity:0.6;}.cls-33{fill:url(#radial-gradient-20);}.cls-34{fill:url(#radial-gradient-21);}.cls-35{fill:url(#radial-gradient-22);}.cls-36{fill:url(#linear-gradient-8);}.cls-37{fill:url(#linear-gradient-9);}.cls-38{fill:url(#linear-gradient-10);}.cls-39{fill:url(#linear-gradient-11);}.cls-40{fill:url(#linear-gradient-12);}.cls-41{fill:url(#linear-gradient-13);}.cls-42{fill:url(#linear-gradient-14);}.cls-43{fill:url(#linear-gradient-15);}.cls-44{fill:url(#linear-gradient-16);}.cls-45{mask:url(#mask-3);}.cls-46{fill:url(#radial-gradient-23);}.cls-47{mask:url(#mask-4);}.cls-48{fill:url(#radial-gradient-24);}.cls-49{mix-blend-mode:screen;opacity:0.5;}.cls-50{fill:url(#radial-gradient-25);}.cls-51{fill:url(#radial-gradient-26);}.cls-52{opacity:0.8;fill:url(#linear-gradient-17);}.cls-53{fill:#87be00;}.cls-54{fill:#add250;}.cls-55{filter:url(#luminosity-noclip-2);}.cls-56{filter:url(#luminosity-noclip);}</style><filter id="luminosity-noclip" x="40.25" y="-8222.59" width="70.27" height="32766" filterUnits="userSpaceOnUse" color-interpolation-filters="sRGB"><feFlood flood-color="#fff" result="bg"/><feBlend in="SourceGraphic" in2="bg"/></filter><mask id="mask" x="40.25" y="-8222.59" width="70.27" height="32766" maskUnits="userSpaceOnUse"><g class="cls-56"/></mask><radialGradient id="radial-gradient" cx="-10195.06" cy="439.68" r="99.03" gradientTransform="matrix(-0.98, 0.06, 0.06, 0.97, -9948.77, 295.87)" gradientUnits="userSpaceOnUse"><stop offset="0.16" stop-color="#1a1a1a"/><stop offset="0.25" stop-color="#414141"/><stop offset="0.4" stop-color="#7a7a7a"/><stop offset="0.54" stop-color="#aaa"/><stop offset="0.68" stop-color="#cfcfcf"/><stop offset="0.8" stop-color="#e9e9e9"/><stop offset="0.91" stop-color="#f9f9f9"/><stop offset="1" stop-color="#fff"/></radialGradient><filter id="luminosity-noclip-2" x="52.57" y="-8222.59" width="13.46" height="32766" filterUnits="userSpaceOnUse" color-interpolation-filters="sRGB"><feFlood flood-color="#fff" result="bg"/><feBlend in="SourceGraphic" in2="bg"/></filter><mask id="mask-2" x="52.57" y="-8222.59" width="13.46" height="32766" maskUnits="userSpaceOnUse"><g class="cls-55"/></mask><radialGradient id="radial-gradient-2" cx="-10192.58" cy="480.01" r="99.04" gradientTransform="matrix(-0.98, 0.06, 0.06, 0.97, -9948.77, 295.87)" gradientUnits="userSpaceOnUse"><stop offset="0.16" stop-color="#1a1a1a"/><stop offset="0.34" stop-color="#454545"/><stop offset="0.72" stop-color="#b0b0b0"/><stop offset="1" stop-color="#fff"/></radialGradient><radialGradient id="radial-gradient-3" cx="-10163.74" cy="485.71" fx="-10207.645196970814" r="52.46" gradientTransform="matrix(-0.98, 0.06, 0.06, 0.97, -9948.77, 295.87)" gradientUnits="userSpaceOnUse"><stop offset="0.07" stop-color="#e9ab45"/><stop offset="0.49" stop-color="#d48849"/><stop offset="0.6" stop-color="#c57c44"/><stop offset="0.8" stop-color="#9d5b36"/><stop offset="0.93" stop-color="#81452c"/></radialGradient><radialGradient id="radial-gradient-4" cx="132.33" cy="158.22" r="55.24" gradientTransform="translate(-73.21 -1.9) scale(0.98 0.98)" gradientUnits="userSpaceOnUse"><stop offset="0" stop-color="#ffd000"/><stop offset="0.12" stop-color="#e09b2f"/><stop offset="0.4" stop-color="#c77637"/><stop offset="0.82" stop-color="#6d3420"/><stop offset="1" stop-color="#522717"/></radialGradient><radialGradient id="radial-gradient-5" cx="-10155.75" cy="450.86" r="28.12" gradientTransform="matrix(-0.98, 0.06, 0.06, 0.97, -9948.77, 295.87)" gradientUnits="userSpaceOnUse"><stop offset="0" stop-color="#ffd000"/><stop offset="0.12" stop-color="#e09b2f"/><stop offset="0.26" stop-color="#c77637"/><stop offset="0.34" stop-color="#ad6330"/><stop offset="0.46" stop-color="#914f29"/><stop offset="0.58" stop-color="#7d4024"/><stop offset="0.7" stop-color="#713721"/><stop offset="0.82" stop-color="#6d3420"/><stop offset="1" stop-color="#522717"/></radialGradient><radialGradient id="radial-gradient-6" cx="-10199.87" cy="470.21" r="56.88" xlink:href="#radial-gradient-5"/><radialGradient id="radial-gradient-7" cx="-10199.87" cy="470.21" r="56.87" gradientTransform="matrix(-0.98, 0.06, 0.06, 0.97, -9948.77, 295.87)" gradientUnits="userSpaceOnUse"><stop offset="0" stop-color="#ffd831"/><stop offset="0.22" stop-color="#e9ab45"/><stop offset="0.39" stop-color="#d48849"/><stop offset="0.67" stop-color="#81452c"/></radialGradient><radialGradient id="radial-gradient-8" cx="-10174.23" cy="464.64" r="50.68" gradientTransform="matrix(-0.98, 0.06, 0.06, 0.97, -9948.77, 295.87)" gradientUnits="userSpaceOnUse"><stop offset="0.16" stop-color="#c77637"/><stop offset="0.82" stop-color="#6d3420"/><stop offset="1" stop-color="#522717"/></radialGradient><radialGradient id="radial-gradient-9" cx="-10199.88" cy="470.22" r="56.88" xlink:href="#radial-gradient-7"/><radialGradient id="radial-gradient-10" cx="-10199.89" cy="470.22" r="56.89" xlink:href="#radial-gradient-7"/><radialGradient id="radial-gradient-11" cx="-10199.85" cy="470.22" r="56.87" xlink:href="#radial-gradient-7"/><radialGradient id="radial-gradient-12" cx="134.9" cy="151" r="49.47" gradientTransform="translate(-73.21 -1.9) scale(0.98 0.98)" gradientUnits="userSpaceOnUse"><stop offset="0" stop-color="#ffd000"/><stop offset="0.29" stop-color="#e09b2f"/><stop offset="0.54" stop-color="#c77637"/><stop offset="0.82" stop-color="#6d3420"/><stop offset="1" stop-color="#522717"/></radialGradient><radialGradient id="radial-gradient-13" cx="142.17" cy="151.09" r="54.54" xlink:href="#radial-gradient-12"/><radialGradient id="radial-gradient-14" cx="145.62" cy="151.01" r="54.36" xlink:href="#radial-gradient-12"/><radialGradient id="radial-gradient-15" cx="-10194.17" cy="490.36" fx="-10216.059329806236" fy="475.8295724015844" r="66.67" gradientTransform="matrix(-0.98, 0.06, 0.06, 0.97, -9948.77, 295.87)" xlink:href="#radial-gradient-12"/><radialGradient id="radial-gradient-16" cx="-10203.29" cy="487.92" r="70.69" xlink:href="#radial-gradient-7"/><radialGradient id="radial-gradient-17" cx="160.47" cy="161.26" r="71.74" gradientTransform="translate(-73.21 -1.9) scale(0.98 0.98)" xlink:href="#radial-gradient-7"/><radialGradient id="radial-gradient-18" cx="124.71" cy="176.57" fx="97.56045493712031" fy="162.569262535328" r="64.17" gradientTransform="translate(-73.21 -1.9) scale(0.98 0.98)" xlink:href="#radial-gradient-7"/><radialGradient id="radial-gradient-19" cx="-10198.24" cy="495.53" r="56.77" xlink:href="#radial-gradient-7"/><linearGradient id="linear-gradient" x1="-10123.65" y1="522.39" x2="-10123.72" y2="521.84" gradientTransform="matrix(-1, 0.06, 0.06, 1, -10030.18, 305.19)" xlink:href="#radial-gradient-7"/><linearGradient id="linear-gradient-2" x1="-10102.45" y1="530.15" x2="-10109.76" y2="469.12" gradientTransform="matrix(-1, 0.06, 0.06, 1, -10030.18, 305.19)" xlink:href="#radial-gradient-7"/><linearGradient id="linear-gradient-3" x1="-10094.24" y1="529.18" x2="-10101.55" y2="468.11" gradientTransform="matrix(-1, 0.06, 0.06, 1, -10030.18, 305.19)" xlink:href="#radial-gradient-7"/><linearGradient id="linear-gradient-4" x1="-10093.21" y1="529.08" x2="-10100.53" y2="467.94" gradientTransform="matrix(-1, 0.06, 0.06, 1, -10030.18, 305.19)" xlink:href="#radial-gradient-7"/><linearGradient id="linear-gradient-5" x1="-10093.97" y1="529.12" x2="-10101.28" y2="468.12" gradientTransform="matrix(-1, 0.06, 0.06, 1, -10030.18, 305.19)" xlink:href="#radial-gradient-7"/><linearGradient id="linear-gradient-6" x1="-10086.96" y1="528.31" x2="-10094.27" y2="467.24" gradientTransform="matrix(-1, 0.06, 0.06, 1, -10030.18, 305.19)" xlink:href="#radial-gradient-7"/><linearGradient id="linear-gradient-7" x1="-10086.92" y1="528.33" x2="-10094.25" y2="467.19" gradientTransform="matrix(-1, 0.06, 0.06, 1, -10030.18, 305.19)" xlink:href="#radial-gradient-7"/><radialGradient id="radial-gradient-20" cx="-10178.61" cy="539.2" r="35.47" gradientTransform="matrix(-0.98, 0.06, 0.06, 0.97, -9948.77, 295.87)" xlink:href="#radial-gradient-12"/><radialGradient id="radial-gradient-21" cx="-10178.62" cy="539.2" r="35.48" gradientTransform="matrix(-0.98, 0.06, 0.06, 0.97, -9948.77, 295.87)" xlink:href="#radial-gradient-12"/><radialGradient id="radial-gradient-22" cx="-10178.61" cy="539.19" r="35.47" gradientTransform="matrix(-0.98, 0.06, 0.06, 0.97, -9948.77, 295.87)" xlink:href="#radial-gradient-12"/><linearGradient id="linear-gradient-8" x1="-10080.09" y1="653.96" x2="-10095.98" y2="521.24" gradientTransform="matrix(-1, 0.08, 0.08, 1, -10028.43, 383.55)" xlink:href="#radial-gradient-7"/><linearGradient id="linear-gradient-9" x1="-10081.63" y1="631.94" x2="-10088.94" y2="570.88" gradientTransform="matrix(-1, 0.08, 0.08, 1, -10028.43, 383.55)" xlink:href="#radial-gradient-7"/><linearGradient id="linear-gradient-10" x1="-10084.23" y1="632.25" x2="-10091.54" y2="571.19" gradientTransform="matrix(-1, 0.08, 0.08, 1, -10028.43, 383.55)" xlink:href="#radial-gradient-7"/><linearGradient id="linear-gradient-11" x1="-10096.72" y1="529.47" x2="-10104.03" y2="468.42" gradientTransform="matrix(-1, 0.06, 0.06, 1, -10030.18, 305.19)" xlink:href="#radial-gradient-7"/><linearGradient id="linear-gradient-12" x1="-10091.23" y1="552.3" x2="-10105.01" y2="437.28" gradientTransform="matrix(-1, 0.06, 0.06, 1, -10030.18, 305.19)" xlink:href="#radial-gradient-7"/><linearGradient id="linear-gradient-13" x1="-10086.21" y1="584" x2="-10106.37" y2="415.69" gradientTransform="matrix(-1, 0.06, 0.06, 1, -10030.18, 305.19)" xlink:href="#radial-gradient-7"/><linearGradient id="linear-gradient-14" x1="-10083.94" y1="601.53" x2="-10108.63" y2="395.37" gradientTransform="matrix(-1, 0.06, 0.06, 1, -10030.18, 305.19)" xlink:href="#radial-gradient-7"/><linearGradient id="linear-gradient-15" x1="-10081.77" y1="543.63" x2="-10095.91" y2="425.6" gradientTransform="matrix(-1, 0.06, 0.06, 1, -10030.18, 305.19)" xlink:href="#radial-gradient-7"/><linearGradient id="linear-gradient-16" x1="-10083.01" y1="527.84" x2="-10090.32" y2="466.78" gradientTransform="matrix(-1, 0.06, 0.06, 1, -10030.18, 305.19)" xlink:href="#radial-gradient-7"/><filter id="luminosity-noclip-3" x="40.25" y="66.38" width="70.27" height="145.07" filterUnits="userSpaceOnUse" color-interpolation-filters="sRGB"><feFlood flood-color="#fff" result="bg"/><feBlend in="SourceGraphic" in2="bg"/></filter><mask id="mask-3" x="40.25" y="66.38" width="70.27" height="145.07" maskUnits="userSpaceOnUse"><g class="cls-1"><path class="cls-2" d="M41.41,166c1.08-2.45,3.83-2.17,5.94-1.42a25.78,25.78,0,0,0,2.74.9,8.6,8.6,0,0,0,2.58.77,17.58,17.58,0,0,0,3.16.36A7.31,7.31,0,0,0,52,170.69l-.21.36a.28.28,0,0,0,0,.29.14.14,0,0,0,0,.06c-.14.44.44.9.75.46a9,9,0,0,1,1.58-1.72,5.18,5.18,0,0,1,2.27-.75,32.33,32.33,0,0,1,3.68.13,14.5,14.5,0,0,0,5.17-.63,5.68,5.68,0,0,0,5.12-.75,7.26,7.26,0,0,0,.74-.63,13.52,13.52,0,0,0,5.68-1.59c.37-.19.74-.4,1.1-.61a11.64,11.64,0,0,0,2.21,1c2.43.77,5,.51,7.45.83a8.54,8.54,0,0,1,3.4,1,16,16,0,0,0,2.26,1.15c.26.11.6-.23.38-.47-.56-.59-1-1.25-1.55-1.83-.31-.57-.6-1.16-.9-1.73,1.32.21,2.65.39,4,.67,1.58.34,3,1,4.53,1.44a9.46,9.46,0,0,0,3.62.5c1-.1,1.89-.32,2.83-.49,1.54.36,2.86,1.31,4.39,1.71.12,0,.17-.13.09-.2l0,0a.13.13,0,0,0-.07-.14,7.46,7.46,0,0,1-1-.9,7.14,7.14,0,0,0-2.82-2.67,6.67,6.67,0,0,0-2.61-.4l-.44-.07a9.82,9.82,0,0,1-1.93-.52h0a6.86,6.86,0,0,0-.56-.67.42.42,0,0,0-.08-.31,19.22,19.22,0,0,0-3.19-3.52,6.07,6.07,0,0,0-2.16-1.28l-.11,0c-.43-.39-.91-.74-1.36-1.09a8.1,8.1,0,0,0-2.2-2.24.47.47,0,0,0-.15-.06c-.89-1.14-1.68-2.34-2.6-3.47a29.37,29.37,0,0,1-2.81-6.88,39.39,39.39,0,0,1-1.13-10.31c0-1.94.08-3.87.11-5.79a21.14,21.14,0,0,0-.14-4.21,46.42,46.42,0,0,0-.08-7.73,34.26,34.26,0,0,0-1-6.29c-.06-.23-.12-.46-.19-.69-.52-3.49-.83-7.08,2-9.52,1.37-1.19,3-2,4.43-3.1a12.91,12.91,0,0,0,2.51-2.38,14.11,14.11,0,0,0,2-2.75c.11-.18-.14-.39-.27-.21a14,14,0,0,1-1.45,2.13,8.31,8.31,0,0,1-3.32,1.76,21.87,21.87,0,0,0-5.14,2.33l-.12.08c.67-2,1.45-3.87,2.12-5.82a54.83,54.83,0,0,0,1.85-7.48c.07-.34-.49-.51-.6-.16a38.88,38.88,0,0,1-2.77,6,21.18,21.18,0,0,0,1.07-5.63c.12-1.82-.38-3.7,0-5.49,0-.17-.22-.22-.29-.08a6.52,6.52,0,0,0-.7,2.22,34.32,34.32,0,0,0-1-4.7c-.1-.35-.67-.2-.62.15,1,5.46-.74,11.1-3.31,15.88a24.62,24.62,0,0,0-2.8,7c0,.09,0,.18,0,.26v-.2A71.68,71.68,0,0,1,77.78,90c.06-.43.12-.86.19-1.29.14-.64.26-1.29.37-1.95.11-.47.22-.94.36-1.4a20,20,0,0,0,.91-4.45c.14-2.86-.21-5.68-.21-8.54,0-.17-.27-.16-.29,0-.08.52-.14,1-.2,1.56a31.1,31.1,0,0,0-2.33-6.16.2.2,0,0,0-.37.14c1,3.88,1.9,7.87,1.16,11.89-.14.73-.3,1.46-.47,2.18a21.5,21.5,0,0,0-.71-2.9c-1-3.12-2.59-6.16-3.13-9.4a.29.29,0,0,0-.58.07c.06.66.14,1.3.24,1.94A11.61,11.61,0,0,0,71.46,70c-1.09-1.24-2.41-2.27-3.47-3.55a.09.09,0,0,0-.16.09,17.81,17.81,0,0,0,2.37,3.92A16.34,16.34,0,0,1,72.67,75c.57,1.49,1.17,3,1.7,4.55a33.15,33.15,0,0,1,.38,10.09c-.15,1.81-.37,3.61-.56,5.41-.13,1.24-.19,2.49-.33,3.73a9.7,9.7,0,0,0-.44-1.1c-1.21-2.6-2.76-5-4.1-7.55-.36-.68-.69-1.38-1-2.08-.41-2.74-1.29-5.39-1.51-8.17A32.82,32.82,0,0,0,65.24,71c-.11-.29-.59-.18-.53.13a39.62,39.62,0,0,1,.7,4.85c.13,1.67,0,3.35.13,5,0,.21,0,.42,0,.63,0-.07-.07-.15-.11-.22a11.83,11.83,0,0,1-.68-2.91c0-.28-.51-.3-.52,0s0,.52,0,.77a17.46,17.46,0,0,0-2.17-2.13c-.16-.16-.39.09-.27.26a18.41,18.41,0,0,1,1.66,3.83c.45,1.13.89,2.26,1.29,3.41a63.35,63.35,0,0,0,2.58,6.8,37,37,0,0,0,1.33,4.77,24,24,0,0,0,2.14,4.31,20.4,20.4,0,0,1,1,8.62c-.09.78-.2,1.55-.31,2.32-.7-1.15-1.23-2.37-1.85-3.55-1.51-2.83-3.48-5.39-5.12-8.14A28.71,28.71,0,0,1,61,89.72a15.79,15.79,0,0,0-1.62-5C58.56,83.31,57.43,82,57,80.41c-.06-.25-.48-.31-.49,0a12.92,12.92,0,0,0,1.21,4.53,32.86,32.86,0,0,1,1.23,6c.06.39.13.78.2,1.17a48.4,48.4,0,0,0-3-4.08,41.38,41.38,0,0,1-4.06-5.11c-.16-.27-.57,0-.46.26a27.16,27.16,0,0,0,3,5.93c1.28,1.92,2.28,4,3.44,6a31.49,31.49,0,0,1,3.07,6c-1.81-1.26-3.72-2.38-5.65-3.56-3.36-2-7.25-4.29-9.47-7.62-.14-.21-.5,0-.39.21a17.18,17.18,0,0,0,3.13,4.81c.68.68,1.39,1.33,2.13,1.94-.61-.2-1.22-.38-1.83-.55-3.23-.94-5.83-3-8.57-4.93-.15-.11-.39.08-.25.24a19.17,19.17,0,0,0,7.91,5.58c2.59.89,5.07,2.11,7.65,3a37.57,37.57,0,0,1,6,4.51c.41.62.81,1.24,1.24,1.83a26.92,26.92,0,0,1,2.36,3.73,33.51,33.51,0,0,1,3.06,8.74,43.32,43.32,0,0,1,.83,9.16c-.08,2.8-.49,5.75-.29,8.58a25.13,25.13,0,0,0-.86,3.47c0,.2-.06.4-.1.59-.33.66-.65,1.31-.94,1.94-1.35,2.9-2.23,6-3.46,8.93a66,66,0,0,1-3.78,6.84c-.33.58-.65,1.15-1,1.73a14.47,14.47,0,0,0-3.14.84,10.12,10.12,0,0,1-5.15.44c-1.56-.17-2.93-.37-4.33.37a6.44,6.44,0,0,0-1.95.09,4.26,4.26,0,0,0-2.23,1.23,6.08,6.08,0,0,0-1.18,2.5A.24.24,0,0,0,41.41,166Zm27.43-64.82c0-.11.09-.21.13-.31l.31-.25c-.06.09-.12.17-.17.26S68.92,101,68.84,101.13Z"/></g></mask><radialGradient id="radial-gradient-23" cx="125.09" cy="148.12" r="111.52" gradientTransform="translate(-73.21 -1.9) scale(0.98 0.98)" gradientUnits="userSpaceOnUse"><stop offset="0.16" stop-color="#e9ab45"/><stop offset="0.26" stop-color="#d69840"/><stop offset="0.48" stop-color="#b17438"/><stop offset="0.68" stop-color="#975a31"/><stop offset="0.86" stop-color="#874b2d"/><stop offset="1" stop-color="#81452c"/></radialGradient><filter id="luminosity-noclip-4" x="52.57" y="193.53" width="13.46" height="12.76" filterUnits="userSpaceOnUse" color-interpolation-filters="sRGB"><feFlood flood-color="#fff" result="bg"/><feBlend in="SourceGraphic" in2="bg"/></filter><mask id="mask-4" x="52.57" y="193.53" width="13.46" height="12.76" maskUnits="userSpaceOnUse"><g class="cls-3"><path class="cls-4" d="M58.58,203.31c2.44-1.17,3.25-1.67,4.45-4.1s3-5.68,3-5.68a52.61,52.61,0,0,0-2.58,6.16A5.91,5.91,0,0,0,62,202.21a2.92,2.92,0,0,0-1.24.9A7.91,7.91,0,0,0,56.83,206a4.61,4.61,0,0,0-1.61.26c.2-.11.4-.22.61-.31a17.58,17.58,0,0,1-3.16-.36l-.1,0C55.36,205.86,56.61,204.25,58.58,203.31Z"/></g></mask><radialGradient id="radial-gradient-24" cx="-10192.58" cy="480.01" r="99.04" gradientTransform="matrix(-0.98, 0.06, 0.06, 0.97, -9948.77, 295.87)" gradientUnits="userSpaceOnUse"><stop offset="0.16" stop-color="#e9ab45"/><stop offset="0.52" stop-color="#be813b"/><stop offset="1" stop-color="#81452c"/></radialGradient><radialGradient id="radial-gradient-25" cx="-10195.07" cy="492.04" fx="-10195.073788785548" r="71.78" xlink:href="#radial-gradient-3"/><radialGradient id="radial-gradient-26" cx="-10221.93" cy="498.09" fx="-10221.933979001382" r="155.12" xlink:href="#radial-gradient-3"/><linearGradient id="linear-gradient-17" x1="-10112.35" y1="531.33" x2="-10119.66" y2="470.3" gradientTransform="matrix(-1, 0.06, 0.06, 1, -10030.18, 305.19)" xlink:href="#radial-gradient-7"/></defs><g class="cls-5"><g id="Capa_2" data-name="Capa 2"><g id="Capa_1-2" data-name="Capa 1"><path class="cls-6" d="M24.06,151c13.56,10.58,31.33,15.43,48.57,14.44A82.83,82.83,0,0,0,135,130.37c18.95-27.43,19.07-62.68-.88-89.14C115.46,16.5,84.45,1.94,53.85.15c-7.57-.44-15.39-.07-22.32,3C14.68,10.58,15.94,29.79,17.78,45.33,19.32,58.26,12.67,62,7.14,72.69a62.54,62.54,0,0,0,13.29,75.24Q22.19,149.54,24.06,151Z"/><path class="cls-7" d="M41,205.17a6.28,6.28,0,0,1,1.18-2.5,4.3,4.3,0,0,1,2.23-1.23,6.44,6.44,0,0,1,2-.09c1.4-.74,2.78-.55,4.33-.38a10,10,0,0,0,5.15-.43A14.47,14.47,0,0,1,59,199.7c.32-.58.63-1.16,1-1.74a65,65,0,0,0,3.78-6.84c1.23-3,2.11-6,3.46-8.93.29-.62.62-1.27,1-1.93,0-.2.06-.4.1-.59.21-1.19.48-27,.85-28.1-.19-2.83.22-5.78.29-8.58a42.82,42.82,0,0,0-.83-9.17,33.35,33.35,0,0,0-3-8.72,28,28,0,0,0-2.36-3.74c-.43-.59-.83-1.21-1.24-1.83a38.1,38.1,0,0,0-6-4.51c-2.57-.92-5.05-2.14-7.64-3a19.12,19.12,0,0,1-7.91-5.59c-.15-.16.09-.35.25-.24,2.73,1.88,5.34,4,8.57,4.93.61.17,1.22.35,1.82.55-.73-.61-1.44-1.25-2.13-1.94a17,17,0,0,1-3.13-4.81c-.11-.22.25-.42.39-.21,2.22,3.34,6.11,5.57,9.47,7.62,1.93,1.18,3.85,2.3,5.66,3.57a31.61,31.61,0,0,0-3.08-6c-1.15-2-2.16-4.07-3.43-6a27.43,27.43,0,0,1-3-5.93c-.1-.27.31-.53.47-.25a40.19,40.19,0,0,0,4.06,5.1,48.4,48.4,0,0,1,3,4.08c-.08-.39-.15-.77-.21-1.16a32,32,0,0,0-1.23-6,12.9,12.9,0,0,1-1.2-4.53c0-.3.43-.23.48,0,.4,1.62,1.53,2.91,2.32,4.35a15.77,15.77,0,0,1,1.61,5,28.91,28.91,0,0,0,3.58,10.07c1.64,2.75,3.61,5.31,5.12,8.14.63,1.18,1.16,2.41,1.86,3.56.1-.78.21-1.55.3-2.32a20.41,20.41,0,0,0-1-8.63A23.38,23.38,0,0,1,68.75,111a35.89,35.89,0,0,1-1.33-4.77,60.61,60.61,0,0,1-2.59-6.8c-.39-1.15-.84-2.28-1.29-3.41a18.72,18.72,0,0,0-1.66-3.84c-.12-.17.12-.41.27-.25a16.72,16.72,0,0,1,2.16,2.13V93.3c0-.3.49-.28.52,0a11.33,11.33,0,0,0,.68,2.9c0,.07.07.14.1.22,0-.21,0-.42,0-.63-.09-1.67,0-3.34-.13-5a39.64,39.64,0,0,0-.71-4.85c-.06-.31.42-.42.53-.13a32.75,32.75,0,0,1,1.57,8.9c.22,2.78,1.11,5.43,1.52,8.17.31.7.64,1.4,1,2.08,1.34,2.53,2.88,5,4.1,7.55.16.35.3.72.43,1.1.14-1.24.21-2.49.34-3.72.19-1.81.4-3.61.55-5.41a32.88,32.88,0,0,0-.38-10.1c-.53-1.54-1.13-3.06-1.69-4.55a16.63,16.63,0,0,0-2.48-4.62,17.39,17.39,0,0,1-2.36-3.92.09.09,0,0,1,.16-.09c1,1.28,2.37,2.31,3.47,3.55a11.34,11.34,0,0,1,1.25,1.76c-.1-.64-.18-1.29-.24-1.94a.3.3,0,0,1,.59-.06c.53,3.23,2.14,6.28,3.13,9.39a23.5,23.5,0,0,1,.7,2.9c.18-.72.33-1.45.47-2.18.75-4-.15-8-1.16-11.89a.2.2,0,0,1,.37-.14,31.34,31.34,0,0,1,2.33,6.16c.06-.52.13-1,.2-1.56,0-.16.3-.17.3,0,0,2.86.34,5.68.2,8.55a19.9,19.9,0,0,1-.91,4.44c-.13.47-.25.93-.36,1.41-.11.65-.22,1.3-.37,1.94q-.1.65-.18,1.29a70.13,70.13,0,0,0-.34,9.83v.21a2.51,2.51,0,0,1,0-.27,24.91,24.91,0,0,1,2.8-7c2.58-4.78,4.27-10.42,3.32-15.88-.06-.35.52-.5.61-.15a33.17,33.17,0,0,1,1,4.7A6.66,6.66,0,0,1,85.88,94c.09-.14.34-.09.31.09-.4,1.78.1,3.66,0,5.48a20.79,20.79,0,0,1-1.07,5.63,38.56,38.56,0,0,0,2.77-6c.11-.33.67-.17.61.18a56.24,56.24,0,0,1-1.86,7.47c-.67,2-1.45,3.87-2.11,5.82l.11-.08a21.34,21.34,0,0,1,5.15-2.32,8.6,8.6,0,0,0,3.32-1.77,15.66,15.66,0,0,0,1.45-2.13c.13-.18.37,0,.26.21a9.6,9.6,0,0,1-3.14,3.7c-1.63,1-3.37,1.93-5.06,2.89a13.08,13.08,0,0,0-2.91,2.21,19.6,19.6,0,0,0-.54,7c.36,3.36,1.07,6.65,1.33,10,.52,6.67-.42,38,.06,44.64a34.12,34.12,0,0,0,1.64,8.42,26,26,0,0,0,1.66,3.88c.69,1.36,1.69,2.52,2.31,3.91l0,.08a18.51,18.51,0,0,1,1.27,1.39,14.09,14.09,0,0,0,1.71,2.2,6.79,6.79,0,0,0,2.4.84,6.33,6.33,0,0,1,2.38,1.5,15.27,15.27,0,0,1,2.27,3.51,5.8,5.8,0,0,0,1.35.78c1.65.67,3.51.59,5.17,1.37s2.31,2.28,3.68,3.18a.17.17,0,0,1,.07.15l0,0c.07.07,0,.23-.09.2-1.54-.4-2.86-1.36-4.4-1.71-.93.16-1.87.39-2.83.48a9.31,9.31,0,0,1-3.62-.49c-1.53-.46-2.95-1.1-4.53-1.44-1.31-.28-2.64-.46-4-.68.29.58.58,1.16.89,1.74.53.58,1,1.23,1.55,1.83.23.24-.12.58-.38.47a15.42,15.42,0,0,1-2.25-1.16,8.42,8.42,0,0,0-3.4-1c-2.5-.33-5-.06-7.46-.84a11.92,11.92,0,0,1-2.21-1c-.36.22-.72.42-1.09.62a13.67,13.67,0,0,1-5.69,1.59c-.24.23-.48.43-.73.63a5.71,5.71,0,0,1-5.13.75,14.7,14.7,0,0,1-5.17.63,32.17,32.17,0,0,0-3.67-.14,5.36,5.36,0,0,0-2.28.76,8.89,8.89,0,0,0-1.58,1.71c-.31.44-.89,0-.75-.45,0,0,0,0,0-.06a.3.3,0,0,1,0-.29l.21-.36A7.34,7.34,0,0,1,55.85,206a18.54,18.54,0,0,1-3.16-.36,8.93,8.93,0,0,1-2.57-.77,25.05,25.05,0,0,1-2.74-.9c-2.11-.75-4.87-1-6,1.42A.24.24,0,0,1,41,205.17Z"/><path class="cls-8" d="M52.18,211.5a.53.53,0,0,1-.41-.22.54.54,0,0,1-.09-.49v0a.35.35,0,0,1,0-.32,3.1,3.1,0,0,1,.21-.36,7.38,7.38,0,0,1,3.65-4,17.8,17.8,0,0,1-2.91-.35l-.17,0a8.37,8.37,0,0,1-2.42-.74,21.24,21.24,0,0,1-2.22-.71l-.52-.19a8.15,8.15,0,0,0-2.7-.53,3.15,3.15,0,0,0-3.16,1.91.28.28,0,0,1-.26.18.31.31,0,0,1-.26-.14.29.29,0,0,1,0-.27c.06-.17.11-.34.17-.5a4.69,4.69,0,0,1,1-2,4.23,4.23,0,0,1,2.26-1.25,6.26,6.26,0,0,1,2-.09,4.8,4.8,0,0,1,2.35-.54,16.48,16.48,0,0,1,1.81.14l.19,0a17.74,17.74,0,0,0,2,.13,8.17,8.17,0,0,0,3.1-.56,15,15,0,0,1,3.12-.84l.94-1.71c.4-.71.83-1.42,1.24-2.1a35.61,35.61,0,0,0,2.54-4.73c.53-1.26,1-2.57,1.45-3.83.61-1.69,1.24-3.44,2-5.1.27-.58.55-1.15.86-1.76l.09-.17,0-.21c0-.12,0-.25.07-.37.24-1.36.51-27.09.85-28.1a39.29,39.29,0,0,1,.13-5.53c.06-1,.13-2,.16-3a42.94,42.94,0,0,0-.83-9.15,33.47,33.47,0,0,0-3-8.72,26.37,26.37,0,0,0-2.35-3.72c-.32-.43-.63-.91-.93-1.35-.11-.16-.21-.32-.31-.48a37.08,37.08,0,0,0-6-4.49c-1.21-.44-2.43-1-3.6-1.44s-2.67-1.12-4-1.59a19,19,0,0,1-7.94-5.6.19.19,0,0,1,0-.22.26.26,0,0,1,.37-.11c.46.31.92.64,1.36.95a24.93,24.93,0,0,0,7.2,4c.56.16,1.06.31,1.52.46-.65-.55-1.29-1.14-1.89-1.75a16.83,16.83,0,0,1-3.14-4.82.25.25,0,0,1,0-.25.35.35,0,0,1,.27-.14.25.25,0,0,1,.22.12c2.07,3.12,5.66,5.3,8.82,7.22l.62.38,1.16.7c1.51.92,3,1.79,4.35,2.76a26.42,26.42,0,0,0-2.53-5l-.48-.82c-.42-.72-.83-1.47-1.22-2.19-.69-1.26-1.4-2.57-2.21-3.79a27.37,27.37,0,0,1-3-5.95.27.27,0,0,1,0-.29.36.36,0,0,1,.29-.16.26.26,0,0,1,.25.15,23.75,23.75,0,0,0,2.8,3.63c.42.48.85,1,1.26,1.46,1,1.26,1.95,2.51,2.82,3.82-.06-.3-.11-.58-.16-.86s-.09-.65-.14-1a25.4,25.4,0,0,0-1.08-5c-.1-.3-.22-.6-.33-.89a9.83,9.83,0,0,1-.88-3.66.25.25,0,0,1,.27-.26.33.33,0,0,1,.34.26,10.16,10.16,0,0,0,1.49,3c.28.44.57.89.82,1.35a16.21,16.21,0,0,1,1.63,5,28.31,28.31,0,0,0,3.57,10.05c.68,1.14,1.43,2.27,2.16,3.36,1,1.54,2.07,3.12,3,4.77.24.45.47.9.68,1.34.34.69.69,1.4,1.09,2.07V126c.09-.67.19-1.37.27-2a20.55,20.55,0,0,0-1-8.59A23.17,23.17,0,0,1,68.69,111a35.12,35.12,0,0,1-1.33-4.78,46.54,46.54,0,0,1-2.22-5.73c-.12-.35-.24-.71-.37-1.06-.38-1.13-.81-2.22-1.29-3.41-.14-.35-.27-.72-.4-1.08a11.32,11.32,0,0,0-1.25-2.74.24.24,0,0,1,0-.26.24.24,0,0,1,.38-.07c.22.21.46.43.73.66a9.62,9.62,0,0,1,1.32,1.31c0-.2,0-.39,0-.57a.29.29,0,0,1,.31-.28.33.33,0,0,1,.34.28,10.82,10.82,0,0,0,.63,2.76c0-.08,0-.17,0-.26,0-.75-.05-1.52-.06-2.26,0-.91,0-1.84-.08-2.75a38.3,38.3,0,0,0-.7-4.85.28.28,0,0,1,.06-.25.38.38,0,0,1,.28-.12.33.33,0,0,1,.31.2,32.22,32.22,0,0,1,1.57,8.92,34.5,34.5,0,0,0,.84,4.79c.25,1.1.51,2.24.68,3.37.36.8.67,1.46,1,2.08.51,1,1.06,1.93,1.59,2.86.86,1.51,1.75,3.07,2.5,4.68.12.26.23.54.35.85.06-.56.1-1.13.15-1.67s.09-1.19.15-1.78.11-1,.17-1.56c.14-1.26.28-2.57.39-3.85a33.25,33.25,0,0,0-.38-10.08c-.38-1.09-.79-2.18-1.2-3.23-.16-.44-.33-.87-.49-1.31a16.54,16.54,0,0,0-2.47-4.6,17.8,17.8,0,0,1-2.37-3.93.14.14,0,0,1,0-.14.17.17,0,0,1,.25,0,22.74,22.74,0,0,0,1.87,1.93c.54.52,1.1,1,1.6,1.62a10.54,10.54,0,0,1,1.1,1.5c-.08-.61-.15-1.13-.19-1.63a.29.29,0,0,1,.08-.27.4.4,0,0,1,.27-.12.37.37,0,0,1,.36.31,29.82,29.82,0,0,0,1.88,6c.44,1.1.88,2.25,1.24,3.38a21.82,21.82,0,0,1,.66,2.62c.17-.74.3-1.33.4-1.89.74-4-.12-7.89-1.16-11.87a.3.3,0,0,1,0-.24.28.28,0,0,1,.2-.1.27.27,0,0,1,.24.16,31,31,0,0,1,2.25,5.86c.06-.47.11-.87.17-1.24a.21.21,0,0,1,.21-.18.25.25,0,0,1,.15.06.21.21,0,0,1,0,.13c0,1.21.06,2.44.12,3.62.08,1.61.17,3.28.09,4.93a19.73,19.73,0,0,1-.91,4.42v0c-.13.44-.24.9-.35,1.4s-.23,1.29-.38,2c-.06.42-.13.85-.18,1.28a67.46,67.46,0,0,0-.35,9.4,25.75,25.75,0,0,1,2.73-6.69c2.1-3.88,4.37-9.79,3.32-15.84a.3.3,0,0,1,.07-.27.45.45,0,0,1,.33-.15.33.33,0,0,1,.33.24,33.29,33.29,0,0,1,.9,4.3A6.25,6.25,0,0,1,85.83,94a.24.24,0,0,1,.21-.11.24.24,0,0,1,.17.07.2.2,0,0,1,0,.17,12,12,0,0,0-.07,3.22,16.91,16.91,0,0,1,.06,2.25,20.87,20.87,0,0,1-.85,5,33.62,33.62,0,0,0,2.43-5.37.32.32,0,0,1,.32-.23.43.43,0,0,1,.33.15.29.29,0,0,1,.07.28,56.78,56.78,0,0,1-1.85,7.49c-.33,1-.7,2-1.06,2.9s-.68,1.81-1,2.73a21.77,21.77,0,0,1,5.13-2.3,8.35,8.35,0,0,0,3.3-1.76,6.75,6.75,0,0,0,1-1.34,9.21,9.21,0,0,1,.49-.78.22.22,0,0,1,.37,0,.25.25,0,0,1,0,.25l-.24.4a8.77,8.77,0,0,1-2.91,3.32c-1.11.71-2.28,1.36-3.42,2l-1.65.91a13.21,13.21,0,0,0-2.89,2.19,19.79,19.79,0,0,0-.53,7c.16,1.45.38,2.91.61,4.33.28,1.85.58,3.77.73,5.69a95.5,95.5,0,0,1,0,10.15c-.1,3.23-.21,31.2,0,34.48a34.16,34.16,0,0,0,1.64,8.42,28.21,28.21,0,0,0,1.65,3.87c.31.59.68,1.16,1,1.72a15.76,15.76,0,0,1,1.28,2.18.11.11,0,0,0,0,.06v0a15.46,15.46,0,0,1,1.26,1.39c.21.25.39.53.57.79a6.83,6.83,0,0,0,1.12,1.39,3.84,3.84,0,0,0,1.64.64l.75.19a6.4,6.4,0,0,1,2.4,1.52,9.55,9.55,0,0,1,1.75,2.56c.17.31.34.64.52.95a6,6,0,0,0,1.33.76,11.91,11.91,0,0,0,2.4.61,11.48,11.48,0,0,1,2.78.76,7.06,7.06,0,0,1,2.11,1.76,9.36,9.36,0,0,0,1.57,1.44.17.17,0,0,1,.1.16h0a.17.17,0,0,1,0,.2.16.16,0,0,1-.19.1,13.21,13.21,0,0,1-2.14-.84,10.84,10.84,0,0,0-2.24-.87l-.86.17c-.63.12-1.3.25-2,.31a4.58,4.58,0,0,1-.64,0,10.71,10.71,0,0,1-3-.53c-.6-.18-1.19-.39-1.76-.59a22.29,22.29,0,0,0-2.77-.85c-1-.21-2-.38-3-.53l-.8-.12.26.51.57,1.11c.25.27.49.56.72.84s.53.66.83,1a.31.31,0,0,1,.06.34.43.43,0,0,1-.51.23,15.94,15.94,0,0,1-2.27-1.16,8.41,8.41,0,0,0-3.37-1c-.9-.12-1.82-.16-2.71-.2a17.94,17.94,0,0,1-4.75-.64,11.16,11.16,0,0,1-2.19-1c-.33.2-.68.39-1.07.6a13.65,13.65,0,0,1-5.69,1.6c-.25.23-.49.44-.72.62a5.32,5.32,0,0,1-3.24,1,6.76,6.76,0,0,1-1.92-.28A14.49,14.49,0,0,1,60,209c-.38,0-.77,0-1.15-.08-.58,0-1.18-.08-1.78-.08-.26,0-.51,0-.74,0a4.91,4.91,0,0,0-2.24.74,8.53,8.53,0,0,0-1.57,1.7A.41.41,0,0,1,52.18,211.5Zm-7.53-8.15a8.24,8.24,0,0,1,2.75.54l.52.18a21.06,21.06,0,0,0,2.21.71h0a8,8,0,0,0,2.39.72l.16,0a17.73,17.73,0,0,0,3.15.35l0,.12a7.28,7.28,0,0,0-3.83,4.1c-.08.12-.14.24-.22.36a.26.26,0,0,0,0,.24v0s0,0,0,0v0a.42.42,0,0,0,.08.38.39.39,0,0,0,.3.17.31.31,0,0,0,.26-.15A8.54,8.54,0,0,1,54,209.5a5.19,5.19,0,0,1,2.3-.77c.24,0,.49,0,.75,0,.6,0,1.21,0,1.79.08l1.14.08a14.61,14.61,0,0,0,5.16-.63h0a7.18,7.18,0,0,0,1.91.28,5.13,5.13,0,0,0,3.16-1c.24-.18.48-.4.73-.63h0a13.39,13.39,0,0,0,5.66-1.59c.4-.21.76-.41,1.09-.61l0,0,0,0a10.59,10.59,0,0,0,2.19,1,17.79,17.79,0,0,0,4.73.64c.89,0,1.81.08,2.71.2a8.61,8.61,0,0,1,3.43,1,16.06,16.06,0,0,0,2.24,1.15.29.29,0,0,0,.35-.16.16.16,0,0,0,0-.21c-.29-.32-.57-.65-.83-1s-.47-.58-.72-.85h0c-.2-.37-.39-.74-.58-1.11l-.32-.62-.06-.12.12,0,.94.15c1,.16,2,.31,3,.53a23.85,23.85,0,0,1,2.79.85c.57.2,1.16.41,1.75.59a10.56,10.56,0,0,0,3,.52,4.43,4.43,0,0,0,.63,0c.65-.07,1.31-.19,2-.32l.87-.16h0a11.44,11.44,0,0,1,2.28.88,12.29,12.29,0,0,0,2.12.83s0,0,0,0a.09.09,0,0,0,0-.07l0,0v0a.06.06,0,0,0,0-.08,9.22,9.22,0,0,1-1.59-1.46,7.12,7.12,0,0,0-2.08-1.73,11,11,0,0,0-2.74-.74,12.21,12.21,0,0,1-2.43-.62,6.14,6.14,0,0,1-1.36-.79l0,0-.53-1a10.15,10.15,0,0,0-1.73-2.53,6.34,6.34,0,0,0-2.35-1.48,6.44,6.44,0,0,0-.73-.19,3.79,3.79,0,0,1-1.69-.67A6.81,6.81,0,0,1,92,195.52c-.17-.26-.36-.53-.56-.79a16.79,16.79,0,0,0-1.26-1.39l0,0v0s0,0,0,0a16.14,16.14,0,0,0-1.26-2.17,18.49,18.49,0,0,1-1-1.73,26.38,26.38,0,0,1-1.66-3.89A34.7,34.7,0,0,1,84.47,177c-.23-3.29-.12-31.26,0-34.49a92.93,92.93,0,0,0,0-10.15c-.15-1.91-.44-3.82-.73-5.67-.22-1.42-.45-2.88-.6-4.34a19.66,19.66,0,0,1,.54-7v0h0a13.24,13.24,0,0,1,2.93-2.21l1.65-.92c1.14-.62,2.31-1.26,3.41-2a8.72,8.72,0,0,0,2.88-3.28c.07-.13.16-.27.24-.4a.14.14,0,0,0,0-.13c0-.06-.12-.08-.16,0q-.25.38-.48.78a6.91,6.91,0,0,1-1,1.36,8.36,8.36,0,0,1-3.34,1.78,21.74,21.74,0,0,0-5.14,2.32l-.06,0,0,0-.15.1.06-.17c.33-1,.7-2,1-2.91s.73-1.93,1.06-2.9a53.55,53.55,0,0,0,1.85-7.47.19.19,0,0,0,0-.18.3.3,0,0,0-.24-.11.2.2,0,0,0-.2.14,34.81,34.81,0,0,1-2.5,5.53l-.28.51-.11,0a20.47,20.47,0,0,0,1.07-5.62,18.51,18.51,0,0,0-.06-2.23,11.49,11.49,0,0,1,.07-3.26.06.06,0,0,0,0-.06.13.13,0,0,0-.17,0,6.87,6.87,0,0,0-.69,2.2h-.12a33.88,33.88,0,0,0-.95-4.69A.2.2,0,0,0,84,91.4a.31.31,0,0,0-.23.1.18.18,0,0,0,0,.17c1.06,6.09-1.22,12-3.33,15.92a25.11,25.11,0,0,0-2.79,7c0,.05,0,.09,0,.14l0,.12H77.4v-.21a69,69,0,0,1,.35-9.84q.07-.64.18-1.29c.15-.66.27-1.32.37-1.94s.23-1,.36-1.42v0a18.82,18.82,0,0,0,.9-4.39c.08-1.64,0-3.31-.08-4.92-.06-1.18-.13-2.4-.13-3.62a.06.06,0,0,0,0,0,.09.09,0,0,0-.15,0c-.07.45-.14,1-.21,1.56h-.12a30.31,30.31,0,0,0-2.33-6.16.13.13,0,0,0-.22,0,.16.16,0,0,0,0,.13c1,4,1.91,7.91,1.16,11.92-.11.64-.26,1.31-.47,2.18h-.12a23.46,23.46,0,0,0-.7-2.89c-.36-1.13-.81-2.27-1.24-3.38a29.75,29.75,0,0,1-1.9-6,.22.22,0,0,0-.23-.19.29.29,0,0,0-.18.07.22.22,0,0,0,0,.18c0,.58.13,1.19.24,1.93l-.11,0a11.45,11.45,0,0,0-1.25-1.75c-.5-.56-1.06-1.1-1.6-1.62A20.11,20.11,0,0,1,68,81.23a0,0,0,0,0-.06,0h0a17.4,17.4,0,0,0,2.36,3.91,16.82,16.82,0,0,1,2.49,4.64c.16.43.32.87.49,1.3.4,1.06.82,2.15,1.2,3.25a33.55,33.55,0,0,1,.39,10.12c-.11,1.29-.25,2.59-.4,3.85,0,.52-.11,1-.16,1.56s-.11,1.19-.16,1.78S74,113,74,113.6l-.13,0a11,11,0,0,0-.43-1.1c-.75-1.6-1.64-3.16-2.5-4.67-.53-.93-1.09-1.9-1.6-2.87-.32-.61-.64-1.28-1-2.08v0c-.17-1.14-.42-2.28-.67-3.38a33,33,0,0,1-.84-4.8,32.23,32.23,0,0,0-1.57-8.88.19.19,0,0,0-.19-.13.27.27,0,0,0-.18.08.16.16,0,0,0,0,.15,40.44,40.44,0,0,1,.71,4.86c.07.92.07,1.85.08,2.75,0,.75,0,1.52,0,2.27,0,.21,0,.42.05.62l-.12,0,0-.1-.06-.13a11.53,11.53,0,0,1-.69-2.92.19.19,0,0,0-.21-.16.16.16,0,0,0-.18.15c0,.24,0,.49,0,.76v.22l-.12-.18a8.81,8.81,0,0,0-1.42-1.45c-.27-.23-.52-.45-.74-.67-.06-.06-.14,0-.18,0a.12.12,0,0,0,0,.13,11.22,11.22,0,0,1,1.27,2.77c.13.36.26.73.4,1.08.46,1.15.9,2.28,1.29,3.41.12.36.25.7.37,1.06a48.82,48.82,0,0,0,2.21,5.73A37.8,37.8,0,0,0,68.8,111a24.28,24.28,0,0,0,2.14,4.3h0a20.52,20.52,0,0,1,1,8.65c-.07.69-.17,1.38-.27,2.06l0,.44-.09-.15c-.45-.73-.83-1.49-1.19-2.23-.22-.44-.45-.9-.68-1.33-.88-1.65-1.93-3.24-3-4.77-.73-1.1-1.48-2.23-2.16-3.37a28.47,28.47,0,0,1-3.59-10.09,15.92,15.92,0,0,0-1.61-4.94c-.25-.45-.54-.91-.82-1.34a10.46,10.46,0,0,1-1.5-3,.22.22,0,0,0-.22-.16.13.13,0,0,0-.14.14,9.56,9.56,0,0,0,.87,3.62l.33.89a25.62,25.62,0,0,1,1.09,5c0,.33.09.65.14,1s.13.74.21,1.16l-.12,0a45.1,45.1,0,0,0-3-4.07c-.39-.49-.82-1-1.24-1.46a23,23,0,0,1-2.82-3.66A.16.16,0,0,0,52,97.6a.29.29,0,0,0-.19.11.2.2,0,0,0,0,.18,27.56,27.56,0,0,0,3,5.92c.81,1.22,1.53,2.53,2.22,3.81.39.71.8,1.46,1.22,2.18.15.27.32.54.47.81a25.4,25.4,0,0,1,2.6,5.25l.06.17-.15-.1c-1.44-1-2.93-1.91-4.5-2.87-.38-.22-.77-.46-1.15-.7l-.63-.37c-3.17-1.94-6.77-4.13-8.86-7.27a.15.15,0,0,0-.11-.06.22.22,0,0,0-.17.09.15.15,0,0,0,0,.13,17.19,17.19,0,0,0,3.11,4.78A26,26,0,0,0,51,111.6l-.06.11c-.55-.18-1.15-.36-1.83-.55a25,25,0,0,1-7.23-4c-.45-.31-.9-.64-1.36-1a.15.15,0,0,0-.19.06.08.08,0,0,0,0,.09,19.11,19.11,0,0,0,7.89,5.57c1.37.47,2.72,1,4,1.58s2.39,1,3.61,1.44a37.79,37.79,0,0,1,6,4.53l.33.49c.3.45.6.91.92,1.34a28.24,28.24,0,0,1,2.36,3.75,33.39,33.39,0,0,1,3.06,8.74,42.66,42.66,0,0,1,.83,9.19c0,1-.1,2-.16,3a42.64,42.64,0,0,0-.13,5.53v0h0c-.34,1-.61,26.73-.85,28.09l-.06.37,0,.24-.08.17c-.31.61-.6,1.19-.86,1.76-.78,1.66-1.4,3.41-2,5.1-.46,1.26-.92,2.56-1.45,3.82a36.46,36.46,0,0,1-2.55,4.75c-.41.69-.84,1.39-1.24,2.11L59,199.73l0,0h0a14.39,14.39,0,0,0-3.12.83,8.28,8.28,0,0,1-3.15.58c-.71,0-1.43-.07-2-.13l-.2,0c-.62-.06-1.21-.13-1.79-.13a4.74,4.74,0,0,0-2.31.52h0a6.51,6.51,0,0,0-1.94.09,4.28,4.28,0,0,0-2.2,1.21,5,5,0,0,0-1,2c-.05.16-.1.33-.16.5a.2.2,0,0,0,0,.16.22.22,0,0,0,.16.09.17.17,0,0,0,.14-.11A3.28,3.28,0,0,1,44.65,203.35Z"/><path class="cls-9" d="M58.11,99.46c1.57,3.94,1.65,8.31,3.3,12.22.56,1.34,1.21,2.66,1.9,4a.19.19,0,0,0,0,.2c.07.12.15.24.22.37C64.75,120,67.07,123.56,69,127a.07.07,0,0,0,.12,0,26.51,26.51,0,0,0-1.38-3.48c.65,1.27,1.31,2.53,2,3.77,0,.09.16,0,.19,0a28.32,28.32,0,0,1,.94,4.09.16.16,0,0,0,.31,0,15.78,15.78,0,0,0-.35-3.21c.12.24.23.47.36.7a.17.17,0,0,0,.1.09,24,24,0,0,1,1,4.66c0,.14.23.11.23,0a26.68,26.68,0,0,0-.69-4.81c.32,1,.63,1.9.92,2.86a.05.05,0,0,0,.1,0l0-.29c.06.23.13.45.2.66s.33.11.29-.07a12.39,12.39,0,0,1-.19-4.7,18.34,18.34,0,0,0,.33-4.25c0-.09-.14-.07-.14,0a29.77,29.77,0,0,1-.72,4.49c0-.81,0-1.62.07-2.43a27.64,27.64,0,0,0,.16-3.4c-.11-2.47-1.21-4.73-2.22-7a.06.06,0,0,0-.11,0A19.46,19.46,0,0,1,72,122.47c-.07,1.2-.29,2.5-.32,3.77a42.29,42.29,0,0,0-3-5.4c-1.51-2.43-3-4.85-4.44-7.34a34,34,0,0,1-3.33-9.23c-.66-2.76-2-5.08-3.15-7.65,0-.08-.18-.06-.16,0a18.75,18.75,0,0,0,1.32,3.84,31.42,31.42,0,0,1,1.43,4.76l.21.85h0c-.12-.51-.23-1-.36-1.51a28.33,28.33,0,0,0-1.88-5.2C58.22,99.31,58.07,99.37,58.11,99.46ZM67.47,121c.21.37.42.74.62,1.12.64,1.65,1.26,3.28,1.77,5-.63-1.38-1.23-2.83-1.87-4.28l.27.39c.07.1.24,0,.18-.09C68.08,122.38,67.78,121.67,67.47,121Z"/><path class="cls-10" d="M51.8,97.25c1.53,2,3.53,3.58,5.21,5.48a14,14,0,0,1,2.86,5.62.22.22,0,0,1-.13.25,16.8,16.8,0,0,1,1.16,2.74.08.08,0,0,1-.11.1c.32.72.64,1.45,1,2.16,0,0,0,.07-.08,0a14.09,14.09,0,0,1-2.26-3.7A7.77,7.77,0,0,1,58,107.6,40.72,40.72,0,0,0,56,104c-.91-1.41-2.13-2.55-2.91-4a.08.08,0,0,1,.14-.07,18.11,18.11,0,0,0,2.09,2.69q-.6-.84-1.17-1.71a.14.14,0,0,1,.08-.19,36.39,36.39,0,0,1-2.46-3.37S51.78,97.22,51.8,97.25Z"/><path class="cls-11" d="M46.65,105.51l.2.27c-.12-.22-.25-.44-.35-.67s.1-.17.16-.08a16.39,16.39,0,0,0,3.27,3.59,24.7,24.7,0,0,0,3.93,3c.64.38,1.29.74,1.94,1.09.91.46,1.82.91,2.67,1.45l0,0a23.17,23.17,0,0,1,3.51,2.4.13.13,0,0,1-.13.22c-.19-.08-.37-.16-.54-.25a12.4,12.4,0,0,0,1,.88.08.08,0,0,1,0,.11l.48.45a13.4,13.4,0,0,1,2.26,3.41c0,.09-.1.16-.15.08a20.23,20.23,0,0,0-3-3.65c-.68-.61-1.37-1.19-2-1.83-.74-.49-1.49-1-2.26-1.43-1.46-.87-3.05-1.53-4.52-2.42-2.73-1.65-5.41-3.54-6.8-6.49C46.31,105.5,46.56,105.37,46.65,105.51Z"/><path class="cls-12" d="M39.12,104.89c2.14,1.47,3.91,3.31,6.2,4.58s4.92,1.44,7.17,2.75a.1.1,0,0,1-.08.18,8.87,8.87,0,0,0-1.41-.53c.88.38,1.75.83,2.64,1.16.08,0,0,.14,0,.12a20,20,0,0,1-4.42-1.73l-.84-.21a15.8,15.8,0,0,1-3.58-1.54,24.39,24.39,0,0,1-5.91-4.53C38.72,105,39,104.78,39.12,104.89Z"/><path class="cls-13" d="M66.65,98.06l.06.29c-.21-1.85-.21-3.7-.32-5.56-.15-2.52-1.06-4.89-1.35-7.4,0-.14.19-.16.22,0a18,18,0,0,0,1.38,3.57,11.67,11.67,0,0,1,.71,3.25c.27,2.5.15,5,.59,7.46a23.83,23.83,0,0,0,2.77,7.46,34,34,0,0,1,1.72,3.48c.16.32.31.66.45,1a16.9,16.9,0,0,1,1.82,5.93.08.08,0,0,1-.15,0,21.19,21.19,0,0,0-.88-2.58,4.19,4.19,0,0,1-.28-.5c.14.34.28.69.41,1,0,.09-.1.14-.15,0s0,0,0,0a23.16,23.16,0,0,1,.56,6.29c0,.1-.16.1-.17,0a28.16,28.16,0,0,0-.46-3.92l-.13-.24a17.2,17.2,0,0,1,0,1.9c0,.06-.11.08-.13,0-.47-1.73-.68-3.54-1.08-5.3a13.56,13.56,0,0,0-.61-1.68c-.41-.91-.9-1.77-1.38-2.64.43,1.12.88,2.23,1.3,3.38a.11.11,0,0,1-.2.07,43.84,43.84,0,0,1-2.87-6.2,21.69,21.69,0,0,1-1-3.11,34.92,34.92,0,0,1-.85-6S66.64,98,66.65,98.06Z"/><path class="cls-14" d="M62.43,91.45A24.09,24.09,0,0,1,64,93.78a12.24,12.24,0,0,1-.17-1.92c0-.29.44-.46.55-.13a31.45,31.45,0,0,1,1,4.85c.46,1.31.71,2.71,1.07,4,0,0,0,0,0,0-.19-.44-.38-.88-.56-1.33a.1.1,0,0,1-.12,0c-.25-.63-.51-1.27-.75-1.92a.23.23,0,0,1-.26-.11c-.94-1.84-1.58-3.82-2.48-5.68C62.2,91.44,62.36,91.36,62.43,91.45Z"/><path class="cls-15" d="M72.8,83.39a.14.14,0,1,1,.27,0c.84,5.49,4.25,10.35,3.45,16.08a.09.09,0,0,1-.18,0,25.1,25.1,0,0,0-1.73-8.53C73.8,88.47,72.81,86,72.8,83.39Z"/><path class="cls-16" d="M69.67,82.48a13.34,13.34,0,0,1,3.84,6.3.07.07,0,0,1-.13,0c-1.18-2.14-2.46-4.19-3.84-6.22C69.48,82.52,69.6,82.4,69.67,82.48Z"/><path class="cls-17" d="M75.35,117.92c0,.07.15.08.15,0a9.93,9.93,0,0,1,.33-1.9.14.14,0,0,0,.08-.09,7.85,7.85,0,0,0,.44-1.73c0,1-.12,1.91-.23,2.87,0,.15.19.17.23,0,.13-.56.23-1.12.32-1.68a49.9,49.9,0,0,1-1,5s.06,0,.06,0c.73-2.29,1.63-4.36,1.7-6.81a60.92,60.92,0,0,1,.35-7.27c.18-1.22.45-2.43.59-3.65s.18-2.57.44-3.82a42.87,42.87,0,0,0,.89-7.9.16.16,0,0,0-.26-.12c0-.75-.14-1.51-.22-2.27,0-.09-.15-.08-.15,0,0,1.32,0,2.63.09,3.94,0,.16,0,.31-.07.46A19.91,19.91,0,0,0,79,90.71a18.6,18.6,0,0,0-.86-4.18,28.55,28.55,0,0,1-1.44-4.33.13.13,0,0,0-.25,0,12.74,12.74,0,0,0,.9,4.11,20.56,20.56,0,0,1,.92,4.46c0,.46.08.93.1,1.39a21.91,21.91,0,0,0-.65,4.71c-.12,1.95-.34,3.87-.64,5.81s-.68,4.14-.87,6.25a24.09,24.09,0,0,1,.74-7.84c0-.07-.1-.1-.12,0a18.52,18.52,0,0,0-1.32,7.24,45.19,45.19,0,0,1,.23,6c0,.34-.12.68-.2,1C75.33,116.16,75,117.16,75.35,117.92Zm2.86-21.63A23.89,23.89,0,0,1,78.38,93,32.25,32.25,0,0,1,78.21,96.29Z"/><path class="cls-18" d="M80.7,111.19l.87-1.6A14.39,14.39,0,0,0,80,113.67a.11.11,0,0,0,.21,0,20.81,20.81,0,0,1,2.16-5c-.47,1.27-1,2.52-1.48,3.79a.23.23,0,0,0,0,.2A32.08,32.08,0,0,0,79.69,116c0,.12.14.21.18.08a28.78,28.78,0,0,1,1.3-2.82c-.07.17-.14.35-.2.53a11.15,11.15,0,0,0-.92,4.62c0,.05.09.05.09,0A17.63,17.63,0,0,1,81.41,113c.72-1.54,1.48-3.06,2.2-4.61a.09.09,0,0,0,0-.1,15.23,15.23,0,0,0,.7-1.4,13.6,13.6,0,0,0,2.28-6.16c.25-2.92-1-5.72-.27-8.63,0-.12-.14-.15-.2-.06-1.38,2.34-.33,5.24-.47,7.77a11.49,11.49,0,0,1-.76,3.44,11.74,11.74,0,0,0,.24-1.18.16.16,0,0,0-.15-.2,19,19,0,0,0-.1-6.3.08.08,0,0,0-.16,0,33.42,33.42,0,0,1-.55,7.21c.06-.37.11-.75.14-1.13a.08.08,0,0,0-.16,0,21.41,21.41,0,0,1-2,5.56c.4-1.15.76-2.32,1.05-3.51,0-.09-.14-.14-.18,0-1.15,3.39-2.68,6.7-3.48,10.2,0,.08.11.11.13,0q.48-1.32,1-2.64A.26.26,0,0,0,80.7,111.19Zm3.23-7.32q-.06.31-.15.63c-.06.24-.13.48-.2.73l-.28.63A17,17,0,0,0,83.93,103.87Z"/><path class="cls-19" d="M81.53,117.76c.12-.45.24-.9.37-1.34a.19.19,0,0,0,.21,0,10.62,10.62,0,0,0,0,3.28.12.12,0,0,0,.23,0A15.06,15.06,0,0,1,84,113.46,23,23,0,0,0,86.56,108c.8-3,1.83-6.14,1.72-9.31,0-.13-.21-.12-.22,0a58.82,58.82,0,0,1-2,7.76c-.07.17-.14.33-.22.49s-.36.42-.54.63a4.45,4.45,0,0,0,.64-2.26c0-.07-.1-.07-.12,0-.32,1.48-1.3,2.72-1.83,4.14l-.09.23a29.9,29.9,0,0,0-2.59,8C81.31,117.85,81.5,117.87,81.53,117.76Zm2.59-6.38c.22-.55.45-1.11.7-1.65s.47-1,.71-1.43a.35.35,0,0,0,0-.08,18.74,18.74,0,0,1-1,2.6s0,0,0,0C84.39,111,84.26,111.2,84.12,111.38Z"/><path class="cls-20" d="M47.05,203c-.13-.07,0-.26.12-.21a31.89,31.89,0,0,0,5.07,1.75A25.2,25.2,0,0,1,49,203.17a.19.19,0,0,1,.16-.35,14.16,14.16,0,0,0,5.43,1,6.22,6.22,0,0,1-2.22-.66.17.17,0,0,1,.09-.32,24.44,24.44,0,0,0,3.73,0,9,9,0,0,0,2-.49l.12,0c-1.16-.06-2.33,0-3.48-.09a.12.12,0,1,1,0-.23,9.59,9.59,0,0,0,2.15-.3,2.24,2.24,0,0,1,1.42-.63,5.07,5.07,0,0,1,1.45,0s0,0,0,0c-.3,0-.6-.05-.88-.05a17.21,17.21,0,0,0-3,.23c-.12,0-.14-.17,0-.19.82-.18,1.83-.52,2.84-.74h-.29c-.11,0-.16-.15-.05-.19a5.8,5.8,0,0,1,2.19-.22A47,47,0,0,0,63,195.44c.59-1.18,1.36-2.26,2-3.4a19.56,19.56,0,0,0,1.93-4.77c.88-3.06,1.53-6.18,2.31-9.27.4-1.54.79-27.71,1-29.28s.21-3.34.47-5a0,0,0,0,1,.08,0c-.13,1.69,0,3.37,0,5s-.34,28-.7,29.68c.17-.51.34-25.65.5-26.16.09-.84.16-1.68.2-2.51.18-3.59.2-7.14.53-10.72,0-.09.16-.09.16,0,0,2,.15,4.08.27,6.12.15-3.1.36-6.21.39-9.31,0-.1.17-.12.17,0,.06,3.7.52,7.36.46,11.07s-.22,32-1.2,35.65a55.09,55.09,0,0,1-3.91,9.68c-.64,1.33-1.31,2.64-2.07,3.89l-.41.76a11.27,11.27,0,0,1-.92,2.3,11.86,11.86,0,0,1,3-.28.13.13,0,1,1,0,.25l-.66.15a.13.13,0,0,1-.09.15,6.84,6.84,0,0,0-1.92.74,16.16,16.16,0,0,1,2.2,0,.09.09,0,1,1,0,.18c-1.38.33-2.57.28-3.58,1.39-.37.4-.78.82-1.3.63l-.26.14a5.47,5.47,0,0,1,2.28,0c.14,0,.15.24,0,.25A8.14,8.14,0,0,0,60,204a5.82,5.82,0,0,0-1.61,1.14,3.68,3.68,0,0,0-.31.41.42.42,0,0,1-.22.4,9.5,9.5,0,0,1,1.6.35c.07,0,0,.14,0,.14a17.53,17.53,0,0,0-4.67.63c-.08,0-.16-.06-.1-.13a3,3,0,0,1,1.21-.81.18.18,0,0,1,0-.3l.13-.09a3.47,3.47,0,0,1-.74.16C52.27,206.23,49.46,204.41,47.05,203Z"/><path class="cls-21" d="M78.59,138.41c0-.84.06-1.68.1-2.52,0-.53-.06-1.06-.07-1.59-.2-4.91-.49-9.94.51-14.78a.1.1,0,0,1,.19,0,37.88,37.88,0,0,0-.19,7.76c.18-2.61.41-5.21.77-7.83a.1.1,0,0,1,.19,0,100.29,100.29,0,0,0-.41,13.09c0,.91,0,1.82,0,2.72.23,4.95.76,9.9.34,14.85,0,1.87-.21,28.37.08,30.23,0,.18-.23.21-.27,0-.34-1.67-.31-28-.23-29.66a.14.14,0,0,1,0-.06c-.09-2.18-.22-4.35-.36-6.53l-.06,1a.19.19,0,0,1-.13.18,28.13,28.13,0,0,0,.17,6.15.14.14,0,0,1-.28,0,21.67,21.67,0,0,1-.45-4.62C77.71,144.11,78.14,141.25,78.59,138.41Z"/><path class="cls-22" d="M82.4,185a20.85,20.85,0,0,0,4.24,8l.36.41c-.15-.13-.3-.26-.45-.41A22.74,22.74,0,0,1,83,188.56c-.1-.17-.4,0-.31.17a21.54,21.54,0,0,0,5.07,6.5,6.48,6.48,0,0,1-2.3-1.81.13.13,0,0,0-.22.12,5.38,5.38,0,0,0,2.23,2.35l.72.45a6.89,6.89,0,0,0-1.26.55c-.12.06,0,.24.1.19a4.56,4.56,0,0,1,1.7-.44l.26.12a4.87,4.87,0,0,0-2.28.67c-.09,0,0,.2.09.16a4,4,0,0,1,2.13-.37,4.49,4.49,0,0,0-2.22,1,.19.19,0,1,0,.22.3,4.37,4.37,0,0,1,4.64-.11,4.6,4.6,0,0,0-2.12,1.66c0,.08,0,.18.11.12A8.41,8.41,0,0,1,92.68,199l.23.14c-.76.38-1.44.9-2.23,1.23-.11,0-.07.23,0,.2.84-.18,1.59-.48,2.33-.67a5.37,5.37,0,0,0-2.22,1.25c-.08.08,0,.23.11.15a4.45,4.45,0,0,1,3.54-.84,2.93,2.93,0,0,0-1.59,1.36c-.07.11.11.2.18.11a3.25,3.25,0,0,1,4-.53c1.07.77,2.23,1.69,2.42,3-.28.07-.55.14-.81.23-.11,0-.06.19,0,.18.69,0,1.37,0,2.05,0a6.4,6.4,0,0,0,.62.2c-.63.13-1.25.28-1.87.39a.07.07,0,0,0,0,.13c1.07-.09,2.1-.2,3.12-.23l.3,0a9.72,9.72,0,0,1-2.12.37c-.07,0-.07.11,0,.12a42.82,42.82,0,0,0,4.67-.22,6,6,0,0,1,4,2.34s.1,0,.07-.05l-.27-.35a10.51,10.51,0,0,0,1,.87s.09,0,0-.06c-1.23-1.17-2.11-3.18-3.79-3.8a6.69,6.69,0,0,0-2.62-.4,8.54,8.54,0,0,0-1.83-.12l-.28-.08a6,6,0,0,0-.83-1.06.41.41,0,0,0-.08-.31c-1.25-1.62-3-4-5.12-4.51a13.47,13.47,0,0,0-1.7-1.42,8.14,8.14,0,0,0-2.2-2.25.38.38,0,0,0-.15-.05c-.88-1.14-1.68-2.34-2.59-3.48A28.61,28.61,0,0,1,86.33,184c-.9-3.38-1.16-31.45-1.14-34.94,0-1.93.08-3.86.11-5.79a21.86,21.86,0,0,0-.13-4.2,47.52,47.52,0,0,0-.08-7.73,35.29,35.29,0,0,0-1-6.29l-.18-.69c-.52-3.49-.84-7.08,2-9.52,1.37-1.19,3-2,4.43-3.1a13.74,13.74,0,0,0,3.33-3.47.07.07,0,1,0-.11-.08c-1.26,1.55-3.33,2.5-5,3.56-.51.31-1,.63-1.52,1l1-.93c.06,0,0-.15-.06-.12a7.41,7.41,0,0,0-3.45,3.07l-.26.28a6.21,6.21,0,0,1,1-1.71c.06-.06,0-.17-.11-.11a6.58,6.58,0,0,0-1.94,3.34,6.4,6.4,0,0,0-.47,1.19c0-.12-.19-.16-.2,0a20.55,20.55,0,0,0,.07,4.15,39.77,39.77,0,0,0,.94,6.14c.12.84.24,1.68.31,2.51,0,.51.08,1,.11,1.52-.08-.8-.18-1.6-.31-2.37-.36-2-1.23-3.87-1.36-5.91,0-.08-.12-.07-.12,0,0,2,.85,3.94.93,6,0,.87.09,1.73.16,2.58-.48-2.21-1.14-4.38-1.5-6.61a.19.19,0,0,0-.37,0c.37,3.31,1.48,6.53,1.6,9.86,0,1.54-.11,3.07-.12,4.61-.41-3.31-1.06-6.58-1.26-9.9,0-.16-.26-.13-.26,0,.06,3.9.71,7.75,1,11.63.14,1.82-.12,3.67.09,5.48,0,.5.13,1,.21,1.5,0,2.12.08,28.89.39,31l-.66-2c-.13-6.06-.64-36.72-1.51-42.72a.14.14,0,0,0-.27,0c.47,5.14.63,10.3,1,15.45-.32-2-.59-4.09-.76-6.15a.08.08,0,0,0-.15,0c.24,5,.9,34.59,2.12,39.45,0,.19.36.17.32,0-.25-1.39-.51-2.77-.77-4.16v-.87c.82,3.27,1.49,6.69,3.13,9.65a13.42,13.42,0,0,0,1.71,3c.82,1,1.73,2,2.66,3l.3.37-.37-.22a25.36,25.36,0,0,1-5.27-7.19c-.1-.19-.41-.08-.33.13a24.38,24.38,0,0,0,1.52,3,21,21,0,0,1-3.18-5.7C82.6,184.75,82.35,184.86,82.4,185Zm1.41-45c0,.38,0,.74,0,1.12v-.43C83.79,140.48,83.8,140.25,83.81,140Zm23.06,65.56a.22.22,0,0,0,.18-.08,1.88,1.88,0,0,1,.23.16c.28.22.54.44.79.68A8.37,8.37,0,0,0,106.87,205.58Zm-16.49-8.75,0-.05c.24.06.48.12.72.2C90.89,196.92,90.64,196.87,90.38,196.83Z"/><path class="cls-23" d="M53.06,210.13c.66-1.6,3.07-1.26,4.48-1.24a19.19,19.19,0,0,0,2.39-.1,8,8,0,0,0,4.21-.27.26.26,0,0,0,.17,0,.85.85,0,0,0,.34-.3,7.91,7.91,0,0,0,3.95.11,2.83,2.83,0,0,0,1.75-1,.29.29,0,0,0,.16,0,2.35,2.35,0,0,0,.63-.35,6.78,6.78,0,0,0,2.53-.49,6.38,6.38,0,0,0,.84-.32c.51-.2,1-.41,1.49-.59a5.66,5.66,0,0,1,1.84-.5,9,9,0,0,1,1.63.3,2.78,2.78,0,0,0,1.75-.24.07.07,0,0,0,0-.13,2.2,2.2,0,0,1-.57-.05.11.11,0,0,0,0-.19,7.21,7.21,0,0,0-3.33-1.07,8.24,8.24,0,0,1-2.09-1.38,8.3,8.3,0,0,1-1.41-2.66l.07-.05a11.64,11.64,0,0,1,1.32-1.4,14.58,14.58,0,0,1,1.48-1c.16-.1,0-.35-.15-.28-.37.14-.84.3-1.32.52.59-.85,1.17-1.7,2.33-1.71.2,0,.19-.3,0-.34a3,3,0,0,0-1.73.16.2.2,0,0,0,0-.07.39.39,0,0,0,.26-.46.24.24,0,0,0,.08-.11.11.11,0,0,0,0-.05l.06,0,0,0a5.82,5.82,0,0,1,3.49,1.29,12.59,12.59,0,0,0-2.62-.13c-.26,0-.27.45,0,.46a9.66,9.66,0,0,1,2.88.43,4.06,4.06,0,0,1,1,.53l.22.32a5.62,5.62,0,0,0-4.37-.06c-.11,0-.07.23,0,.21a7.37,7.37,0,0,1,2.22.08,8.18,8.18,0,0,0-3.7,2,.11.11,0,0,0,.13.18,8.12,8.12,0,0,1,4.76-1.42,5.16,5.16,0,0,0-4.61,2.24.14.14,0,0,0,.22.18,4.16,4.16,0,0,1,3.19-1.47,5.19,5.19,0,0,0-1.59,1.09c-.08.07,0,.2.13.14a5.36,5.36,0,0,1,3.86-1c.41.08.82.18,1.21.27a5.46,5.46,0,0,0-3.6,1.2.11.11,0,0,0,.13.18,4.77,4.77,0,0,1,4.09-.62,6.23,6.23,0,0,0-3.56,2.7c-.13.21.2.37.36.21a6.22,6.22,0,0,1,1.63-1.18,3.51,3.51,0,0,0-.37.78c0,.11.12.23.19.12a3.14,3.14,0,0,1,3.51-1.39,8.78,8.78,0,0,0-2.76.9c-.1.06-.08.25.06.22a17.9,17.9,0,0,1,2.92-.44,2.72,2.72,0,0,0-1,.78c-.08.08,0,.2.12.16a4.53,4.53,0,0,1,2.49-.19,1.24,1.24,0,0,0-1.28.87.1.1,0,0,0,.17.1c1-1.37,3.5,1,4.53,1.44h0a10.57,10.57,0,0,0,5,2.35c.12,0,.15-.16,0-.19a9.12,9.12,0,0,1-1.77-.67.3.3,0,0,0-.06-.34c-.51-.48-1.24-1.19-2.07-1.9-.14-.15-.27-.32-.4-.49l-.22-.35a3.33,3.33,0,0,1,.58-.26,2.47,2.47,0,0,1,2.14,0,.11.11,0,0,0,.14-.17,3.28,3.28,0,0,0-.9-.53,10.08,10.08,0,0,1,2.17.38c.12,0,.14-.14,0-.19-1.48-.85-3.54-1.28-4.91-.26-.06-.06-.11-.13-.16-.19a2.48,2.48,0,0,1,.3-.25,6.47,6.47,0,0,0,1-.85c.11-.11-.06-.29-.18-.2a11.94,11.94,0,0,1-1.5.66l-.14.1-.07-.07a6.93,6.93,0,0,0-2.49-2.14,11.58,11.58,0,0,0-.95-.69,2.86,2.86,0,0,1,1.45,0c.11,0,.19-.14.09-.2a2.18,2.18,0,0,0-1.69-.28l-.26.06.06,0a5,5,0,0,1,1.77-.18.08.08,0,1,0,0-.16,5.63,5.63,0,0,0-2.47.14l-.24-.14a11.08,11.08,0,0,0-2.31-4.31,10.8,10.8,0,0,0-.48-1c-.24-.79-.47-1.6-.7-2.42a54.12,54.12,0,0,1-2.06-8.3.06.06,0,1,0-.12,0A40.62,40.62,0,0,0,80.56,191c0-.09-.07-.17-.09-.25-.68-1.84-1.32-3.69-1.88-5.56,0-.05-.1,0-.09,0,.46,2,.89,4,1.5,5.89a3.42,3.42,0,0,0-.49-.44,19.47,19.47,0,0,1-1.1-3.05c0-.12-.22-.07-.2.05a13.31,13.31,0,0,0,.49,2.42l-.22-.18a.21.21,0,0,0-.36.15l-.23,0H78c.15,0,.13-.27,0-.25a5.07,5.07,0,0,0-1.42.43,1.81,1.81,0,0,1,1-.58c.13,0,.16-.24,0-.24a1.93,1.93,0,0,0-1.08.27c-.08-.83-.16-1.65-.23-2.42a39,39,0,0,1-.16-8.36.06.06,0,1,0-.12,0,25.83,25.83,0,0,0-.49,8c.08,1.19.17,2.39.22,3.58l-.07.11a17.18,17.18,0,0,0-.35-3.65c0-1,0-1.93,0-2.9.11-4.26.37-33.14.73-37.39s1-8.43,1.24-12.65a21.06,21.06,0,0,0-.44-5.6,14.25,14.25,0,0,1-.4-6.32c0-.09-.13-.13-.16,0-1.21,3.88.17,7.83-.14,11.81-.25,3.28-.7,6.55-1.06,9.82.13-1.7.27-3.39.39-5.08a72.76,72.76,0,0,0-.25-11.34.09.09,0,0,0-.17,0,67.93,67.93,0,0,1-.3,7.66c0-1.58-.08-3.16-.19-4.74a.1.1,0,0,0-.2,0c.17,4-.32,8-.38,12.09-.26,2.76-.43,5.53-.6,8.32-.12,1.92,0,28.47-.22,30.39-.19,1.74-.71,3.45-.83,5.2,0,.13,0,.25,0,.37a29.1,29.1,0,0,1-.78,3,21,21,0,0,0-.87,2.84l-.68.91a3,3,0,0,0-1,1.2.1.1,0,0,0,0,.12.35.35,0,0,0,0,.08.1.1,0,1,0,.16.13c.08-.1.17-.19.26-.29a10.71,10.71,0,0,1,1.27-.63.59.59,0,0,1,0,.13,2.41,2.41,0,0,0-.58.4.16.16,0,0,0,.15.28,4.11,4.11,0,0,1,1-.2s0,0,0,.05l-.09.14h-.13a3.32,3.32,0,0,0-3.26,1.62c-.07.11.11.21.19.11a3.17,3.17,0,0,1,2.44-.87,3.73,3.73,0,0,0-.36.43.47.47,0,0,0,0,.1,5.68,5.68,0,0,0-1.76.91.13.13,0,0,0,.15.2,4.38,4.38,0,0,1,2.1-.56.33.33,0,0,0,.19.25c.82.42,2,.75,2.45,1.57a2.31,2.31,0,0,0-.66-.49,4.67,4.67,0,0,0-3.13-.22.19.19,0,0,0,0,.37,4.24,4.24,0,0,1,2.69.51,1.78,1.78,0,0,1,.55.62,2.64,2.64,0,0,0-2.18-.48.12.12,0,0,0,0,.23,2.3,2.3,0,0,1,2.3,1.19,6.94,6.94,0,0,1,.56,1.56,3.67,3.67,0,0,0-2.52-1.93.16.16,0,0,0-.09.3,3.59,3.59,0,0,1,2.28,2.93,1.84,1.84,0,0,1-1,2.09,5.71,5.71,0,0,0-1.92-3.48c-.08-.06-.17.06-.1.13a4.4,4.4,0,0,1,1.38,2.61,2.61,2.61,0,0,1,0,1,.33.33,0,0,0-.06.1l-.2.07a4.88,4.88,0,0,0-2.13-3.34,5.81,5.81,0,0,0-4.22-1.16.11.11,0,0,0,0,.21,4.9,4.9,0,0,1,2.62.73,2.22,2.22,0,0,0-2.88,1c-.07.14.14.22.22.1.76-1.25,2.64-.48,3.55.14a5.83,5.83,0,0,1,1.37,1.2l.09.17c-.87-1.2-2.54-2.27-3.68-1.65-.09.06,0,.19.08.19a3.7,3.7,0,0,1,2.49,1.13,2.87,2.87,0,0,1,.81,1.16c.12.42-.06.64-.2,1a.28.28,0,0,0,0,.18l-.31.12a4.1,4.1,0,0,0-1.08-2.29c-.09-.09-.25.07-.17.16a3.32,3.32,0,0,1,.83,1.38,1.06,1.06,0,0,1-.36,1.33,4.61,4.61,0,0,1-.53,0,16.09,16.09,0,0,1-1.75-.19c.4-1.23-1.48-2.46-2.45-2.77-.11,0-.19.13-.07.17a3.56,3.56,0,0,1,1.55,1.06,2.46,2.46,0,0,1,.46.8,1.9,1.9,0,0,1,0,.71h-.28c-.11-1.25-2.16-2.22-3.12-2.51-.15,0-.25.17-.1.22a5.44,5.44,0,0,1,1.78,1.05,1.8,1.8,0,0,0-.39,0,.29.29,0,0,0-.16,0,3,3,0,0,0-.58-.12,2.62,2.62,0,0,0-.6-.37c-.12-.06-.19.12-.08.18a1.09,1.09,0,0,1,.63,1c-.07.4-.49.51-.8.69l-.08.06a19.09,19.09,0,0,1-4.13.47c-1.66,0-4.05.19-4.45,2.17A.12.12,0,0,0,53.06,210.13Zm24.51-15.77a2.43,2.43,0,0,1,1.58.18c.42.21.81.46,1.23.67l0,0c.15.2.31.39.46.6l-.41-.33A5.81,5.81,0,0,0,77.57,194.36Z"/><path class="cls-24" d="M53.66,207.88a9.61,9.61,0,0,0,.73-.7s0,0,0,0a3.66,3.66,0,0,1-.72.75A0,0,0,1,1,53.66,207.88Z"/><path class="cls-25" d="M105.89,204.67a3.69,3.69,0,0,1,.87.28,4.46,4.46,0,0,0-.48-.09A2.33,2.33,0,0,0,105.89,204.67Z"/><path class="cls-26" d="M78.26,194.32c-.1,0-.07-.14,0-.14a6.89,6.89,0,0,1,6,5.21,4.47,4.47,0,0,1,1.18,1,3,3,0,0,1,2.47,1.41,3.89,3.89,0,0,1,2,1.88,3.19,3.19,0,0,1,1.53,1.26.21.21,0,0,1-.18.33l.38.44a10.37,10.37,0,0,0,2.83,2.81.06.06,0,0,1,0,.11A4.61,4.61,0,0,1,92.25,207a11.81,11.81,0,0,0-4.59-2.58s0-.05,0-.05a10.72,10.72,0,0,1,2.39.72,3.9,3.9,0,0,0-2.52-.8c-.08,0-.12-.12,0-.14A2.9,2.9,0,0,1,89,204l-.26-.17a3.28,3.28,0,0,0-1.44,0c-.1,0-.14-.15,0-.19a4.33,4.33,0,0,1,.73-.18l-.16-.07a4.67,4.67,0,0,0-2.62.06c-.11,0-.14-.15,0-.19a5,5,0,0,1,2.5-.42,4.79,4.79,0,0,0-3.37-.59c-.13,0-.19-.2-.06-.24a5.15,5.15,0,0,1,1-.16,5.26,5.26,0,0,0-3.17.48.09.09,0,1,1-.1-.14,5.46,5.46,0,0,1,3.51-.94l-.35-.32h0a5,5,0,0,0-.54-.08.2.2,0,0,1-.2,0h0a11,11,0,0,0-2.44.13c-.12,0-.14-.17,0-.19a18.16,18.16,0,0,1,1.92-.33,4,4,0,0,0-1.07-.6,5.87,5.87,0,0,0-2.08-.27.1.1,0,0,1,0-.2,6.19,6.19,0,0,1,1.83,0,5.9,5.9,0,0,0-3.81-.17.09.09,0,1,1-.06-.16,6.7,6.7,0,0,1,4.29-.14,11.11,11.11,0,0,0-.69-1.21A4.19,4.19,0,0,0,80.14,196c-.1,0,0-.21,0-.19a4.1,4.1,0,0,1,2,1.24A7,7,0,0,1,83.49,199l.07,0C82.65,196.74,80.86,194.59,78.26,194.32Z"/><path class="cls-27" d="M74.72,193.79a4.37,4.37,0,0,1,6.17.14,4.29,4.29,0,0,1,1.32,1.25c.05.08,0,.19-.13.12A5,5,0,0,0,76.61,194a.13.13,0,0,1-.12-.22,2.75,2.75,0,0,1,1.88-.61,4.36,4.36,0,0,0-3.59.73S74.69,193.83,74.72,193.79Z"/><path class="cls-28" d="M74.75,192.68a4,4,0,0,1,5.56.21c.09.12,0,.3-.18.23-1.73-.94-3.46-1.59-5.26-.31C74.79,192.87,74.67,192.75,74.75,192.68Z"/><path class="cls-29" d="M76,191.58a2.83,2.83,0,0,1,1.49-.48A2.6,2.6,0,0,0,76,191c-.09,0-.19-.1-.08-.17a3.37,3.37,0,0,1,3.47.52.14.14,0,0,1,0,.19,6.23,6.23,0,0,1,1.33.87c.06.06,0,.17-.08.13-.62-.29-1.23-.61-1.88-.84a4.4,4.4,0,0,0-2.73.1A.14.14,0,0,1,76,191.58Z"/><path class="cls-30" d="M68.44,197.33c.68-1.11,2.35-1,3.56-.55-.21-.11-.41-.21-.62-.3a4.51,4.51,0,0,0-2.33-.22.11.11,0,0,1-.08,0l-.25,0c-.13,0-.14-.16,0-.19l.77-.18a.14.14,0,0,1,0-.2,1.23,1.23,0,0,1,.36-.25h-.06c-.13,0-.18-.18-.06-.22a2,2,0,0,1,1.85.18.18.18,0,0,1,.06.17,6.17,6.17,0,0,1,.93.49.06.06,0,0,1-.06.11,3.89,3.89,0,0,0-2.37-.4c.89-.1,1.82,0,2.25.77a.15.15,0,0,1,0,.17c.29.19.57.4.83.6.06,0,0,.12-.07.09l-.32-.2s0,0-.06,0a4.9,4.9,0,0,0-1.83-.5,2.77,2.77,0,0,0-.71,0,2.36,2.36,0,0,1,1,.1c1,.34,1.49,1.17,2.24,1.87a0,0,0,1,1,0,0c-.54-.35-1-.79-1.51-1.18a2.5,2.5,0,0,0-1.55-.45,4.92,4.92,0,0,0-1.39.5.17.17,0,0,1-.2-.24l-.12.08A.12.12,0,0,1,68.44,197.33Z"/><path class="cls-31" d="M70.1,194.83a2.44,2.44,0,0,1,2,.31.17.17,0,0,1-.17.29c-.29-.1-.54-.23-.83-.3a5.62,5.62,0,0,0-.92-.08C70,195.05,70,194.84,70.1,194.83Z"/><g class="cls-32"><path class="cls-33" d="M67,208.48a4.08,4.08,0,0,0,.9-.22,1,1,0,0,0,.59-.89.06.06,0,0,1,.12,0,1.14,1.14,0,0,1-.26,1,1.79,1.79,0,0,0,1-1.85,0,0,0,1,1,0,0,1.59,1.59,0,0,1,0,1.21h0l.27-.11c.56-1.1-.36-2.87-1.24-3.7,0,0,0-.06,0,0,.81.74,1.84,2.41,1.61,3.56a2.22,2.22,0,0,0,.64-.46,2.25,2.25,0,0,0,.57-1.71.09.09,0,0,1,.17,0,2.58,2.58,0,0,1-.19,1.64,2.18,2.18,0,0,0,.75-1.18.1.1,0,0,1,.19,0,2.37,2.37,0,0,1-.3,1,4.41,4.41,0,0,0,.72-.5c.06-.11.12-.23.18-.37a7.37,7.37,0,0,0,.36-1.64,5.56,5.56,0,0,0-.48-1.58c0-.07.08-.13.13-.06a5,5,0,0,1,.52.87.09.09,0,0,1,.08.11v.08a3.83,3.83,0,0,1,.22.73,6,6,0,0,0-.58-2.2c0-.06.07-.12.11-.06a7.11,7.11,0,0,1,.8,2.35,3.94,3.94,0,0,0-.78-3.37.06.06,0,0,1,.1-.07,3.75,3.75,0,0,1,.44.53,4.89,4.89,0,0,0-2.46-2.89,0,0,0,1,1,0-.08,4.74,4.74,0,0,1,2.94,3.9,3.12,3.12,0,0,1-.19,3c0,.82-.36,1.45-1.22,1.39a3.19,3.19,0,0,1-.57.39,1.32,1.32,0,0,1-.41.21c-.21.1-.44.19-.65.27a.22.22,0,0,1-.21,0,2.71,2.71,0,0,1-1.45.53,2.09,2.09,0,0,1-.75.3,1.22,1.22,0,0,1-1.17.33.13.13,0,0,1-.07-.05.92.92,0,0,1-.71-.08C66.84,208.64,66.92,208.5,67,208.48Z"/><path class="cls-34" d="M62.4,209a1.82,1.82,0,0,0,.73-.87,2,2,0,0,0-.08-1.34c0-.08.08-.13.12,0a2.33,2.33,0,0,1,.17,1.66,1,1,0,0,0,.21-.72,2.43,2.43,0,0,0-.43-1.21s0-.1.06-.06a2.23,2.23,0,0,1,.65,1.43.81.81,0,0,1,0,.22,1.29,1.29,0,0,0-.21-1.48,3.71,3.71,0,0,0-1.2-1.06c-.06,0,0-.14,0-.11,1,.39,2.79,2,1.47,3a.13.13,0,0,1-.19,0,.8.8,0,0,1-.22.32,1.72,1.72,0,0,0,1-2,.07.07,0,0,1,.12,0,1.94,1.94,0,0,1-.11,1.63,1,1,0,0,0,.51-1,.09.09,0,0,1,.18,0,1.15,1.15,0,0,1-.67,1.34.13.13,0,0,1-.18-.08,1.85,1.85,0,0,1-1.79.78.14.14,0,0,1-.11-.08A.14.14,0,0,1,62.4,209Z"/><path class="cls-35" d="M61.06,208.74a3.87,3.87,0,0,0,1.07-.05c.35-.22.78-.42.67-.91,0-.06.08-.08.1,0a.78.78,0,0,1-.37.91s0,0,0,0a1.44,1.44,0,0,1-1.51.25A.1.1,0,0,1,61.06,208.74Z"/></g><path class="cls-36" d="M72.94,190.93a7.45,7.45,0,0,1-.68,1.56.94.94,0,0,0-.06.15l0,.05a9.8,9.8,0,0,0-.49,1c0,.05-.09,0-.07,0,.11-.32.26-.63.39-.94a.14.14,0,0,1,0-.15,1.46,1.46,0,0,1,.07-.19,38.61,38.61,0,0,0,1.45-11.51c0-.07.1-.09.1,0a27.64,27.64,0,0,1-.09,5.75,54.14,54.14,0,0,0,.78-6.9c0-.06.06-.07.09,0,.11-2.08.2-28.79.28-30.87,0-.05.07,0,.07,0,0,2.43,0,29.48-.07,31.9.11-1,.21-1.93.3-2.89,0,0,0,0,0,0-.15,4-.54,8.07-.83,12.1,0,.09-.09.09-.14.06-.12.95-.26,1.91-.42,2.86,0,.09-.15.07-.14,0,.16-1.88.3-3.76.44-5.64,0,.22-.08.45-.13.67,0,0,0,0,0,0-.26,2.17-.61,4.54-2,6.33-.05.06-.14,0-.1-.08A11.85,11.85,0,0,0,73.24,190c-.08.25-.16.5-.25.75C73,190.78,73,190.85,72.94,190.93Z"/><path class="cls-37" d="M72.34,188.81a20.29,20.29,0,0,0,.33-5.16c0-.12.19-.15.2,0a17.45,17.45,0,0,1-.12,4.27,9.49,9.49,0,0,1-.42,1.9,12.16,12.16,0,0,0-1,2.35c0,.08-.13.06-.12,0C71.32,191,72.08,190,72.34,188.81Z"/><path class="cls-38" d="M75,184.22c0-.08.13-.08.14,0a22,22,0,0,1-.12,2.29c0,.76,0,1.52,0,2.28a.1.1,0,0,1-.2,0c0-.16,0-.32,0-.48-.13,1-.26,1.92-.32,2.89,0,.1-.17.1-.18,0C74.15,188.85,75,186.57,75,184.22Z"/><path class="cls-39" d="M80.87,182.2c.16,1.14.35,2.28.55,3.41a22.1,22.1,0,0,0,.76,4,.07.07,0,0,1-.14,0,14.84,14.84,0,0,1-.68-3,41,41,0,0,1-.61-4.39A.06.06,0,0,1,80.87,182.2Z"/><path class="cls-40" d="M79.24,177.56c.08,1.28.24,2.56.4,3.82a17.55,17.55,0,0,0,.8,4.13c0,.05,0,.05.08,0a7.26,7.26,0,0,0,.55,1.79c0,.06.14,0,.11-.05a8.39,8.39,0,0,1-.57-2.52.17.17,0,0,0,0-.12c0-.26,0-.53,0-.79.12.75.25,1.5.4,2.25,0,.1.19.08.17,0-.91-4.37-1-33.53-1.32-38-.16-2.23-.17-4.47-.34-6.71a49.74,49.74,0,0,1-.29-6.57c0-.06-.08-.07-.09,0a58,58,0,0,0-.07,8,.09.09,0,0,0,0,.05c0,1.28,0,2.59,0,3.91-.11-1.79-.2-3.59-.2-5.37a.05.05,0,0,0-.1,0C78.48,145.28,78.74,173.74,79.24,177.56Zm1,3.05-.09-.52a1.8,1.8,0,0,1,0-.22l0,0C80.18,180.1,80.2,180.36,80.23,180.61Zm-.45.64c.19,1.14.39,2.28.59,3.42a.13.13,0,0,0,0,.09c0,.11,0,.23,0,.35A20.51,20.51,0,0,1,79.78,181.25Z"/><path class="cls-41" d="M78.32,150.06c-.13-2.21-.09-4.43-.17-6.62a0,0,0,1,1,.08,0c.28,3.25.58,31.13.88,34.39,0,0,0,0,0,.08,0,1.24.27,2.45.43,3.68,0,.1-.08.14-.16.1s0,.22.08.33-.1.14-.13.05a26.91,26.91,0,0,1-.62-3.55c-.2-1-.32-26.71-.4-27.77l-.09-.6A.06.06,0,0,1,78.32,150.06Z"/><path class="cls-42" d="M78.06,147.85s0,0,0,0c.09,3.45.77,31.48.91,34.92,0,.12-.18.15-.2,0C78.49,179.35,78.07,151.3,78.06,147.85Z"/><path class="cls-43" d="M64.76,195.81A42.91,42.91,0,0,0,67.38,190a1.06,1.06,0,0,0,0,.19.09.09,0,0,0,.18.05c.4-1,.77-2,1.14-3-.24.84-.49,1.68-.8,2.51-.17.45-.36.9-.54,1.35s-.47,1-.75,1.5c0,.06.06.12.09.06a12.14,12.14,0,0,0,.75-1.37.13.13,0,0,0,.14-.07A28.36,28.36,0,0,0,69.32,187a28.22,28.22,0,0,0,1.57-4.29c.26-.78.51-1.57.74-2.35.6-2,.57-28.76.76-30.84,0,0,0,0,0,0-.23,2.16-.38,28.87-.93,31,.72-3.48,1-31.7,1-35.19,0-.06-.09-.06-.1,0-.18,1.63-.31,3.26-.48,4.88a.08.08,0,0,0-.08.07c-.07.34-.14.68-.2,1,0-.33.08-.65.12-1,.11-1.14-.17-2.4.25-3.48a0,0,0,0,0-.09,0c-.55,1-.31,2.17-.44,3.22-.24,1.78-.65,28.17-1,29.91a2,2,0,0,0-.07.26c.09-.79.16-1.58.19-2.38,0-.09-.14-.11-.14,0a27.69,27.69,0,0,1-.42,4,38.22,38.22,0,0,1-1.15,4c-.15.38-.29.77-.43,1.15.25-1,.48-1.94.77-2.89,0-.08-.09-.13-.12-.06-.65,2-1.08,4.11-1.86,6.09s-1.61,3.85-2.52,5.74C64.56,195.85,64.71,195.91,64.76,195.81Zm6.41-16.34c.13-.71.25-1.41.36-2.11-.08.55-.16,1.11-.27,1.66Zm-2.25,7.38c.1-.36.19-.72.29-1.09,0-.19.09-.38.14-.57.48-1.49.92-3,1.26-4.55-.16.76-.33,1.53-.52,2.3C69.76,184.27,69.36,185.57,68.92,186.85Z"/><path class="cls-44" d="M65.86,190.51c1.1-2.95,2.4-5.81,3.47-8.77,0,0,.08,0,.07,0-1,3-2.2,5.88-3.44,8.77A.05.05,0,1,1,65.86,190.51Z"/><g class="cls-45"><path class="cls-46" d="M41.41,205.36c1.08-2.46,3.83-2.17,5.94-1.42a25.78,25.78,0,0,0,2.74.9,8.9,8.9,0,0,0,2.58.77,17.58,17.58,0,0,0,3.16.36A7.31,7.31,0,0,0,52,210.1l-.21.36a.28.28,0,0,0,0,.29.14.14,0,0,0,0,.06c-.14.44.44.89.75.45a9.2,9.2,0,0,1,1.58-1.71,5.32,5.32,0,0,1,2.27-.76,32.34,32.34,0,0,1,3.68.14,14.5,14.5,0,0,0,5.17-.63,5.68,5.68,0,0,0,5.12-.75,7.26,7.26,0,0,0,.74-.63,13.52,13.52,0,0,0,5.68-1.59c.37-.2.74-.4,1.1-.62a12.33,12.33,0,0,0,2.21,1c2.43.77,5,.51,7.45.83a8.54,8.54,0,0,1,3.4,1,17.14,17.14,0,0,0,2.26,1.15c.26.11.6-.23.38-.47-.56-.6-1-1.25-1.55-1.83-.31-.58-.6-1.16-.9-1.73,1.32.21,2.65.39,4,.67,1.58.34,3,1,4.53,1.44a9.26,9.26,0,0,0,3.62.49c1-.09,1.89-.31,2.83-.48,1.54.36,2.86,1.31,4.39,1.71.12,0,.17-.13.09-.2l0,0a.13.13,0,0,0-.07-.14,7.46,7.46,0,0,1-1-.9,7.14,7.14,0,0,0-2.82-2.67,6.67,6.67,0,0,0-2.61-.4l-.44-.07a9.82,9.82,0,0,1-1.93-.52h0a8.19,8.19,0,0,0-.56-.66.42.42,0,0,0-.08-.31A18.9,18.9,0,0,0,97.69,199a6.25,6.25,0,0,0-2.16-1.29l-.11,0c-.43-.39-.91-.74-1.36-1.09a8.1,8.1,0,0,0-2.2-2.24.47.47,0,0,0-.15-.06c-.89-1.14-1.68-2.34-2.6-3.48A29,29,0,0,1,86.3,184c-.89-3.38-1.15-31.45-1.13-34.93,0-1.94.08-3.87.11-5.79a21.16,21.16,0,0,0-.14-4.21,46.29,46.29,0,0,0-.08-7.72,34.37,34.37,0,0,0-1-6.3c-.06-.23-.12-.46-.19-.69-.52-3.49-.83-7.08,2-9.52,1.37-1.19,3-2,4.43-3.09a13.22,13.22,0,0,0,2.51-2.38,14.5,14.5,0,0,0,2-2.76c.11-.18-.14-.39-.27-.21a14,14,0,0,1-1.45,2.13,8.33,8.33,0,0,1-3.32,1.77,21.44,21.44,0,0,0-5.14,2.32l-.12.08c.67-2,1.45-3.87,2.12-5.82a54.7,54.7,0,0,0,1.85-7.47c.07-.35-.49-.51-.6-.17a38.45,38.45,0,0,1-2.77,6,21.18,21.18,0,0,0,1.07-5.63c.12-1.82-.38-3.7,0-5.48,0-.18-.22-.23-.29-.09a6.52,6.52,0,0,0-.7,2.22,34.94,34.94,0,0,0-1-4.7c-.1-.35-.67-.19-.62.15,1,5.46-.74,11.1-3.31,15.88a24.73,24.73,0,0,0-2.8,7,2.56,2.56,0,0,0,0,.27v-.21a71.73,71.73,0,0,1,.34-9.83c.06-.43.12-.86.19-1.28.14-.65.26-1.3.37-2,.11-.47.22-.94.36-1.41a19.79,19.79,0,0,0,.91-4.44c.14-2.87-.21-5.69-.21-8.55,0-.16-.27-.16-.29,0-.08.52-.14,1-.2,1.56a31.34,31.34,0,0,0-2.33-6.16.2.2,0,0,0-.37.14c1,3.88,1.9,7.87,1.16,11.89-.14.74-.3,1.46-.47,2.18a21.87,21.87,0,0,0-.71-2.9c-1-3.11-2.59-6.16-3.13-9.39a.29.29,0,0,0-.58.06c.06.66.14,1.3.24,1.94a11.53,11.53,0,0,0-1.26-1.75c-1.09-1.25-2.41-2.28-3.47-3.56a.09.09,0,0,0-.16.09A17.81,17.81,0,0,0,70.2,85.2a16.34,16.34,0,0,1,2.47,4.62c.57,1.49,1.17,3,1.7,4.55a33.2,33.2,0,0,1,.38,10.1c-.15,1.8-.37,3.61-.56,5.41-.13,1.23-.19,2.48-.33,3.72a10.51,10.51,0,0,0-.44-1.1c-1.21-2.6-2.76-5-4.1-7.55-.36-.68-.69-1.38-1-2.08-.41-2.74-1.29-5.39-1.51-8.17a32.82,32.82,0,0,0-1.57-8.9c-.11-.29-.59-.18-.53.13a39.9,39.9,0,0,1,.7,4.85c.13,1.68,0,3.35.13,5,0,.21,0,.43,0,.63,0-.07-.07-.15-.11-.22a11.76,11.76,0,0,1-.68-2.9c0-.29-.51-.31-.52,0s0,.52,0,.77a17.46,17.46,0,0,0-2.17-2.13c-.16-.16-.39.09-.27.26A18.41,18.41,0,0,1,63.52,96c.45,1.13.89,2.26,1.29,3.41a62.55,62.55,0,0,0,2.58,6.8A37,37,0,0,0,68.72,111a24,24,0,0,0,2.14,4.31,20.43,20.43,0,0,1,1,8.63c-.09.77-.2,1.54-.31,2.32-.7-1.15-1.23-2.38-1.85-3.56-1.51-2.83-3.48-5.39-5.12-8.14A28.71,28.71,0,0,1,61,104.5a15.65,15.65,0,0,0-1.62-5c-.78-1.45-1.91-2.74-2.31-4.36-.06-.24-.48-.31-.49,0a12.92,12.92,0,0,0,1.21,4.53,32.79,32.79,0,0,1,1.23,6c.06.39.13.77.2,1.16a46.69,46.69,0,0,0-3-4.07,42.14,42.14,0,0,1-4.06-5.11c-.16-.28-.57,0-.46.25a27.16,27.16,0,0,0,3,5.93c1.28,1.92,2.28,4,3.44,6a31.57,31.57,0,0,1,3.07,6c-1.81-1.27-3.72-2.39-5.65-3.57-3.36-2-7.25-4.28-9.47-7.62a.23.23,0,0,0-.39.22,17.13,17.13,0,0,0,3.13,4.8A27.81,27.81,0,0,0,51,111.65c-.61-.19-1.22-.38-1.83-.55-3.23-.94-5.83-3-8.57-4.93-.15-.1-.39.08-.25.24A19.19,19.19,0,0,0,48.21,112c2.59.89,5.07,2.1,7.65,3a37.57,37.57,0,0,1,6,4.51c.41.62.81,1.25,1.24,1.83a27,27,0,0,1,2.36,3.74,33.32,33.32,0,0,1,3.06,8.73,43.35,43.35,0,0,1,.83,9.17c-.08,2.79-.49,5.74-.29,8.57-.38,1.13-.64,26.91-.86,28.1,0,.2-.06.39-.1.59-.33.66-.65,1.31-.94,1.93-1.35,2.91-2.23,6-3.46,8.94A66,66,0,0,1,59.91,198c-.33.57-.65,1.15-1,1.73a14.47,14.47,0,0,0-3.14.84,10,10,0,0,1-5.15.43c-1.56-.17-2.93-.36-4.33.38a6.44,6.44,0,0,0-1.95.09,4.26,4.26,0,0,0-2.23,1.23,6.08,6.08,0,0,0-1.18,2.5A.24.24,0,0,0,41.41,205.36Zm27.43-89.45c0-.11.09-.21.13-.31l.31-.25c-.06.09-.12.18-.17.27A3.71,3.71,0,0,0,68.84,115.91Z"/></g><g class="cls-32"><g class="cls-47"><path class="cls-48" d="M58.58,203.31c2.44-1.17,3.25-1.67,4.45-4.1s3-5.68,3-5.68a52.61,52.61,0,0,0-2.58,6.16A5.91,5.91,0,0,0,62,202.21a2.92,2.92,0,0,0-1.24.9A7.91,7.91,0,0,0,56.83,206a4.61,4.61,0,0,0-1.61.26c.2-.11.4-.22.61-.31a17.58,17.58,0,0,1-3.16-.36l-.1,0C55.36,205.86,56.61,204.25,58.58,203.31Z"/></g></g><g class="cls-49"><path class="cls-50" d="M83.66,144.55c0-.11.17-.08.17,0-.13,3.58,0,31.76.45,35.32,0-.64,0-1.28-.07-1.91s-.06-25.89-.07-26.51c0-.06,0-.12,0-.17-.16-3.16-.14-6.3,0-9.45a.07.07,0,0,1,.13,0c0,1.33,0,2.66.11,4,.09-1.5.2-3,.28-4.48,0-.12.2-.11.2,0,0,.78,0,1.56,0,2.33a.57.57,0,0,1,0-.13c.15-2.07.07-4.15,0-6.22,0-.08.13-.1.14,0a71.58,71.58,0,0,1-.13,10c-.16,1.87.05,28.26.25,30.11s.23,3.82.48,5.72a.06.06,0,0,1-.12,0c-.32-1.73-.42-3.48-.61-5.22-.07-.61-.15-25.84-.24-26.44v.2c.16,2.86.19,30.34.52,33.19,0,.1-.14.14-.16.05a23.26,23.26,0,0,1-.66-4.5.16.16,0,0,1-.28-.06C83.4,176.72,83.36,148.29,83.66,144.55Z"/><path class="cls-51" d="M83.09,144.71c0-.09.17-.08.17,0,0,2.57.18,29.77.19,32.34,0,.15-.23.19-.24,0C83,174.51,83,147.3,83.09,144.71Z"/></g><path class="cls-52" d="M86.34,192.11a20.49,20.49,0,0,0,2,2.53,21.64,21.64,0,0,1-2.2-1.82c-.08-.08-.18.05-.11.13a24.48,24.48,0,0,0,3,2.84,8.86,8.86,0,0,0-1.4-.47.09.09,0,0,0,0,.17c.6.25,1.15.67,1.76.93l-.39.1a.09.09,0,0,0,0,.17,4.76,4.76,0,0,0,1.64-.06,4,4,0,0,0,1.09.22,10.83,10.83,0,0,0-1.93.46c-.09,0,0,.16,0,.16a11.34,11.34,0,0,1,3.29-.12,4,4,0,0,1,.86.32,4.11,4.11,0,0,0-2.14.79.09.09,0,0,0,.09.16,6.21,6.21,0,0,1,3.14-.17,2.05,2.05,0,0,0-1.33.68c-.06.08,0,.16.11.12a3.08,3.08,0,0,1,2.89,0,4.56,4.56,0,0,0-3.2.35c-.09.05,0,.19.07.15,1.53-.67,3.23-.09,4.66.72a6.27,6.27,0,0,0-2.91-.21c-.08,0-.1.14,0,.14a7.86,7.86,0,0,1,4.37,1.48,8.08,8.08,0,0,1,1.74,1.93,3.4,3.4,0,0,0-1.26.5c-.09.06,0,.17.08.15a5.17,5.17,0,0,1,1.49-.19v0a.25.25,0,0,0,.4,0l.64.08a5.77,5.77,0,0,0-.77.21c-.08,0,0,.14,0,.14a9.32,9.32,0,0,1,2.36.09l.29.07a5.61,5.61,0,0,0-1.09.37.07.07,0,0,0,0,.14,22.67,22.67,0,0,1,2.6-.09l.2,0h.08a2.44,2.44,0,0,1,.91.33,28.84,28.84,0,0,1,3,2.57,0,0,0,1,0,0,0c-.85-.81-1.62-2.19-2.69-2.9a3.14,3.14,0,0,0-1.62-1.14,4.7,4.7,0,0,0-2-.15,5.93,5.93,0,0,0-1.92-.3c-.18-.93-1.5-1.91-2.11-2.35l-.34-.22a.25.25,0,0,0,0-.33.39.39,0,0,1-.1-.08,4.87,4.87,0,0,0-1.26-1.21.3.3,0,0,0-.07-.19,5,5,0,0,0-2.81-1.62,4,4,0,0,0-.39-.3,3.62,3.62,0,0,0-1.09-.92,38.58,38.58,0,0,1-5.08-6.49,33.47,33.47,0,0,1-3.36-9.29c0-.05-.09,0-.08,0a29.51,29.51,0,0,0,2.63,9.07,27.15,27.15,0,0,1-2.19-4.13,0,0,0,0,0-.06,0,25.27,25.27,0,0,0,3.08,6.36,28.27,28.27,0,0,0,2.46,3.1,28.45,28.45,0,0,1-5.36-6.9c0-.06-.14,0-.1.08A39.83,39.83,0,0,0,89.28,194c.26.33.55.67.85,1a8.62,8.62,0,0,1-2.83-2.93c0-.08-.17,0-.14,0a8.44,8.44,0,0,0,.48,1c-.48-.6-.93-1.22-1.39-1.84A26.73,26.73,0,0,1,83,185.57a.08.08,0,1,0-.15.06A25.31,25.31,0,0,0,86.34,192.11Z"/><path class="cls-53" d="M76.47,81.8a5.13,5.13,0,0,0-2.88-2.72c.4.43.39,1.1.68,1.61a1.94,1.94,0,0,0,1,.79A5.71,5.71,0,0,0,76.47,81.8Z"/><path class="cls-53" d="M77.8,78.29a2.69,2.69,0,0,1,1.26.33A3.3,3.3,0,0,0,80.3,79a1,1,0,0,0,1-.66,1.14,1.14,0,0,1-.8,1,8.62,8.62,0,0,1-1.34.28,3.7,3.7,0,0,0-2.66,2.44,4.14,4.14,0,0,1-.28-2.27A1.85,1.85,0,0,1,77.8,78.29Z"/><path class="cls-54" d="M77.69,80.2a5.31,5.31,0,0,0,0-1.06A3.39,3.39,0,0,1,77,81l.1,0a4.25,4.25,0,0,1,.47-.48A1,1,0,0,0,77.69,80.2Z"/><path class="cls-54" d="M78,80.17l.31-.19a.91.91,0,0,0,.11-.16.83.83,0,0,0,0-.62A2.73,2.73,0,0,1,78,80.17Z"/><path class="cls-54" d="M79.09,79.66a.7.7,0,0,0,.26-.62,6,6,0,0,1-.52.7Z"/><path class="cls-53" d="M102.57,102.67a9,9,0,0,0-1.43,2.44,9.52,9.52,0,0,1-1.39,2.47,3.15,3.15,0,0,1-2.47,1.19c-1.24-.07-2.27-1.11-3.51-1.14a6.57,6.57,0,0,1,1.57-3.33,4.25,4.25,0,0,1,3.33-1.4c.64,0,1.27.28,1.91.31A3.33,3.33,0,0,0,102.57,102.67Z"/><path class="cls-54" d="M94,107.5a17,17,0,0,1,3.76-1.62,7.46,7.46,0,0,0,3.41-2.19,3.47,3.47,0,0,1-1.44,1.64,10,10,0,0,1-2,.88Z"/><path class="cls-54" d="M96.73,105.66a6.34,6.34,0,0,0,1-1.7l-2.51,3A3.11,3.11,0,0,0,96.73,105.66Z"/><path class="cls-54" d="M98.62,105.3a3.65,3.65,0,0,0,.53-1.37A6,6,0,0,1,97.63,106a.67.67,0,0,0,.61-.19A1.75,1.75,0,0,0,98.62,105.3Z"/><path class="cls-54" d="M96.3,106.8c-.21-.09-.47-.18-.65,0a6.63,6.63,0,0,0,1.93.59,2.27,2.27,0,0,0,1.86-.63A4.12,4.12,0,0,1,96.3,106.8Z"/><path class="cls-54" d="M100.39,105.85a8.53,8.53,0,0,1-2.62.1,1.07,1.07,0,0,0,.58.34A2.37,2.37,0,0,0,100.39,105.85Z"/><path class="cls-53" d="M39.79,103.24a6.34,6.34,0,0,0-2.68-2.88,9.32,9.32,0,0,0-3.82-1c-1.32-.1-2.65-.07-4-.15a6.25,6.25,0,0,1,1.44,3.55,19.76,19.76,0,0,0,.65,3.84A3.87,3.87,0,0,0,34,109.25a4.79,4.79,0,0,0,2.9-.52,7.68,7.68,0,0,0,2-1.16,3.54,3.54,0,0,0,1.23-1.92A3.88,3.88,0,0,0,39.79,103.24Z"/><path class="cls-54" d="M39.55,106.83a7.38,7.38,0,0,1-3.77-2A22,22,0,0,1,33,101.5c1.47.68,2.2,2.33,3.38,3.45A11.29,11.29,0,0,0,39.55,106.83Z"/><path class="cls-54" d="M35.93,104.71c-.24-1-.49-1.95-.74-2.92a7.29,7.29,0,0,0,.05,1.55A2.4,2.4,0,0,0,35.93,104.71Z"/><path class="cls-54" d="M34.79,104.66a5.72,5.72,0,0,1-2.78-.93,5.17,5.17,0,0,0,4.11,1.43c0-.3-.13-.36-.42-.45A3.43,3.43,0,0,0,34.79,104.66Z"/><path class="cls-54" d="M33.12,105.54A3.74,3.74,0,0,0,35.41,107a4.37,4.37,0,0,0,2.87-.56c-.17-.09-.52-.16-.61-.33a3.43,3.43,0,0,1-2.32.29A10,10,0,0,1,33.12,105.54Z"/><path class="cls-53" d="M62.27,89.43A3.31,3.31,0,0,0,60.91,88,4.62,4.62,0,0,0,59,87.46c-.67-.06-1.34,0-2-.08a3.14,3.14,0,0,1,.73,1.8A10.48,10.48,0,0,0,58,91.12a2,2,0,0,0,1.33,1.36,2.5,2.5,0,0,0,1.46-.27,3.72,3.72,0,0,0,1-.59,1.78,1.78,0,0,0,.62-1A2,2,0,0,0,62.27,89.43Z"/><path class="cls-54" d="M62.15,91.25a3.82,3.82,0,0,1-1.91-1,11.9,11.9,0,0,1-1.39-1.69c.75.34,1.12,1.18,1.71,1.75A5.79,5.79,0,0,0,62.15,91.25Z"/><path class="cls-54" d="M60.31,90.17l-.37-1.47a4.07,4.07,0,0,0,0,.78A1.24,1.24,0,0,0,60.31,90.17Z"/><path class="cls-54" d="M59.74,90.15a2.85,2.85,0,0,1-1.41-.47,2.62,2.62,0,0,0,2.08.72c0-.15-.07-.18-.21-.22A1.43,1.43,0,0,0,59.74,90.15Z"/><path class="cls-54" d="M58.89,90.6a1.93,1.93,0,0,0,1.16.72A2.29,2.29,0,0,0,61.5,91c-.08,0-.26-.08-.3-.17A1.71,1.71,0,0,1,60,91,5.89,5.89,0,0,1,58.89,90.6Z"/></g></g></g></svg>