<svg xmlns="http://www.w3.org/2000/svg" viewBox="0 0 361.49 44.62"><defs><style>.cls-1{fill:#9a9fbd;}.cls-2{fill:#0088d3;}.cls-3{fill:#fff;}.cls-4{fill:#66b8e5;}.cls-5{fill:#28203a;}</style></defs><g id="Capa_2" data-name="Capa 2"><g id="Capa_1-2" data-name="Capa 1"><path class="cls-1" d="M250.78,23.45,235,1.84H9.13C4.83,1.84,1.35,5.06,1.35,9V37.42c0,4,3.48,7.2,7.78,7.2H235.05Z"/><path class="cls-1" d="M14.29,38a1,1,0,0,1-1-1V8.74a1,1,0,1,1,2,0V37A1,1,0,0,1,14.29,38Z"/><path class="cls-2" d="M249.43,21.61,233.62,0H7.78C3.48,0,0,3.22,0,7.19V35.58c0,4,3.48,7.2,7.78,7.2H233.7Z"/><path class="cls-3" d="M12.94,36.18a1,1,0,0,1-1-1V6.9a1,1,0,0,1,2,0V35.19A1,1,0,0,1,12.94,36.18Z"/><rect class="cls-4" x="264.75" width="96.74" height="44.52" rx="6.84"/><path class="cls-5" d="M24,25.49l3.85-10h1.43l4.1,10H31.82l-1.17-3H26.46l-1.1,3Zm2.89-4.12h3.4l-1-2.77c-.32-.85-.55-1.54-.71-2.08a13.29,13.29,0,0,1-.54,1.91Z"/><path class="cls-5" d="M34.23,28.27v-10h1.12v.94a2.81,2.81,0,0,1,.9-.83,2.49,2.49,0,0,1,1.21-.27,2.87,2.87,0,0,1,1.64.47,3,3,0,0,1,1.07,1.35,5,5,0,0,1,.36,1.91,4.78,4.78,0,0,1-.4,2,3,3,0,0,1-2.76,1.84,2.21,2.21,0,0,1-1.1-.26,2.5,2.5,0,0,1-.81-.65v3.53Zm1.12-6.37A3.16,3.16,0,0,0,35.91,24a1.74,1.74,0,0,0,1.38.67,1.78,1.78,0,0,0,1.4-.69,3.3,3.3,0,0,0,.59-2.15,3.15,3.15,0,0,0-.58-2.08A1.71,1.71,0,0,0,37.34,19a1.76,1.76,0,0,0-1.39.73A3.33,3.33,0,0,0,35.35,21.9Z"/><path class="cls-5" d="M42,25.49V18.23h1.11v1.1a3.11,3.11,0,0,1,.78-1,1.41,1.41,0,0,1,.79-.24,2.44,2.44,0,0,1,1.27.39l-.43,1.14a1.82,1.82,0,0,0-.9-.26,1.16,1.16,0,0,0-.72.24,1.29,1.29,0,0,0-.46.67,4.73,4.73,0,0,0-.21,1.44v3.8Z"/><path class="cls-5" d="M51.65,23.15l1.27.16A3.12,3.12,0,0,1,51.81,25a3.38,3.38,0,0,1-2.08.61,3.31,3.31,0,0,1-2.53-1,3.83,3.83,0,0,1-.93-2.75,4,4,0,0,1,.94-2.84,3.18,3.18,0,0,1,2.45-1,3.12,3.12,0,0,1,2.38,1A4,4,0,0,1,53,21.85c0,.07,0,.18,0,.32H47.54A2.82,2.82,0,0,0,48.22,24a2,2,0,0,0,1.52.63,1.91,1.91,0,0,0,1.15-.35A2.41,2.41,0,0,0,51.65,23.15Zm-4-2h4a2.44,2.44,0,0,0-.46-1.37,1.87,1.87,0,0,0-1.53-.71,2,2,0,0,0-1.42.56A2.24,2.24,0,0,0,47.61,21.16Z"/><path class="cls-5" d="M54.47,25.49V18.23h1.1v1a2.61,2.61,0,0,1,2.31-1.19,3,3,0,0,1,1.21.23,1.84,1.84,0,0,1,.82.62,2.35,2.35,0,0,1,.39.91A7.56,7.56,0,0,1,60.37,21v4.47H59.13V21.07A3.21,3.21,0,0,0,59,20a1.14,1.14,0,0,0-.51-.6,1.69,1.69,0,0,0-.86-.22,2,2,0,0,0-1.35.5,2.45,2.45,0,0,0-.57,1.89v4Z"/><path class="cls-5" d="M67,25.49v-.92a2.26,2.26,0,0,1-2,1.08,2.86,2.86,0,0,1-1.6-.48,3.06,3.06,0,0,1-1.12-1.33,4.56,4.56,0,0,1-.4-2,5.21,5.21,0,0,1,.36-2,2.78,2.78,0,0,1,1.09-1.35,2.85,2.85,0,0,1,1.62-.47,2.38,2.38,0,0,1,2,1V15.47H68.1v10Zm-3.89-3.62A3.15,3.15,0,0,0,63.66,24a1.76,1.76,0,0,0,1.39.69A1.74,1.74,0,0,0,66.42,24,3.07,3.07,0,0,0,67,22a3.44,3.44,0,0,0-.57-2.19,1.79,1.79,0,0,0-1.42-.7,1.74,1.74,0,0,0-1.37.67A3.36,3.36,0,0,0,63.07,21.87Z"/><path class="cls-5" d="M70,16.88V15.47h1.24v1.41Zm0,8.61V18.23h1.24v7.26Z"/><path class="cls-5" d="M72.5,25.49v-1l4.62-5.3c-.52,0-1,0-1.39,0h-3v-1h5.94V19l-3.93,4.61-.76.84c.55,0,1.06-.06,1.55-.06h3.35v1.06Z"/><path class="cls-5" d="M84.89,24.59a4.63,4.63,0,0,1-1.32.82,3.78,3.78,0,0,1-1.36.24,2.64,2.64,0,0,1-1.84-.58,2,2,0,0,1-.64-1.5,2,2,0,0,1,.24-1,2.19,2.19,0,0,1,.64-.71,3.21,3.21,0,0,1,.88-.4,8.31,8.31,0,0,1,1.1-.18,10.84,10.84,0,0,0,2.19-.43c0-.17,0-.27,0-.32a1.38,1.38,0,0,0-.35-1.06,2,2,0,0,0-1.4-.42,2.17,2.17,0,0,0-1.28.31,1.81,1.81,0,0,0-.61,1.07l-1.21-.16a3,3,0,0,1,.54-1.25,2.44,2.44,0,0,1,1.09-.73,4.85,4.85,0,0,1,1.65-.25,4.53,4.53,0,0,1,1.51.21A1.75,1.75,0,0,1,86,19.67,7.16,7.16,0,0,1,86,20.81v1.64a16,16,0,0,0,.08,2.17,2.6,2.6,0,0,0,.31.87H85.13A2.43,2.43,0,0,1,84.89,24.59Zm-.11-2.74a9.16,9.16,0,0,1-2,.46,4.1,4.1,0,0,0-1.07.25,1.08,1.08,0,0,0-.49.4,1.06,1.06,0,0,0-.17.58,1,1,0,0,0,.38.82,1.58,1.58,0,0,0,1.09.33,2.5,2.5,0,0,0,1.26-.31,1.9,1.9,0,0,0,.81-.85,2.86,2.86,0,0,0,.2-1.23Z"/><path class="cls-5" d="M86.37,28.31l.23-1a2.8,2.8,0,0,0,.58.1.66.66,0,0,0,.56-.25,2.48,2.48,0,0,0,.19-1.25V18.23h1.23v7.66a3.59,3.59,0,0,1-.35,1.86,1.63,1.63,0,0,1-1.48.69A3.83,3.83,0,0,1,86.37,28.31ZM87.93,16.9V15.47h1.23V16.9Z"/><path class="cls-5" d="M96,23.15l1.28.16A3.13,3.13,0,0,1,96.17,25a3.34,3.34,0,0,1-2.08.61,3.28,3.28,0,0,1-2.52-1,3.84,3.84,0,0,1-.94-2.75,4,4,0,0,1,1-2.84,3.17,3.17,0,0,1,2.45-1,3.08,3.08,0,0,1,2.37,1,3.92,3.92,0,0,1,.93,2.79c0,.07,0,.18,0,.32H91.91A2.82,2.82,0,0,0,92.58,24a2,2,0,0,0,1.52.63,1.94,1.94,0,0,0,1.16-.35A2.4,2.4,0,0,0,96,23.15Zm-4-2H96a2.44,2.44,0,0,0-.47-1.37A1.86,1.86,0,0,0,94,19.08a2,2,0,0,0-1.43.56A2.33,2.33,0,0,0,92,21.16Z"/><path class="cls-5" d="M102.67,28.28l-.14-1.15a2.86,2.86,0,0,0,.7.11,1.35,1.35,0,0,0,.66-.14,1.12,1.12,0,0,0,.4-.38,5.24,5.24,0,0,0,.38-.92c0-.07.06-.17.11-.3L102,18.23h1.33l1.51,4.2c.2.54.37,1.1.53,1.68.14-.56.31-1.11.5-1.65l1.55-4.23h1.23l-2.76,7.38a12.4,12.4,0,0,1-.69,1.65,2.51,2.51,0,0,1-.75.89,1.77,1.77,0,0,1-1,.29A2.47,2.47,0,0,1,102.67,28.28Z"/><path class="cls-5" d="M118.32,25.49v-.92a2.26,2.26,0,0,1-2,1.08,2.86,2.86,0,0,1-1.6-.48,3.06,3.06,0,0,1-1.12-1.33,4.56,4.56,0,0,1-.4-2,5.21,5.21,0,0,1,.36-2,2.78,2.78,0,0,1,1.09-1.35,2.85,2.85,0,0,1,1.62-.47,2.45,2.45,0,0,1,1.16.27,2.57,2.57,0,0,1,.84.72V15.47h1.22v10Zm-3.89-3.62A3.15,3.15,0,0,0,115,24a1.75,1.75,0,0,0,2.76,0,3.07,3.07,0,0,0,.56-2,3.44,3.44,0,0,0-.57-2.19,1.8,1.8,0,0,0-1.42-.7,1.72,1.72,0,0,0-1.37.67A3.3,3.3,0,0,0,114.43,21.87Z"/><path class="cls-5" d="M126.37,23.15l1.27.16A3.08,3.08,0,0,1,126.52,25a3.78,3.78,0,0,1-4.6-.37,3.83,3.83,0,0,1-.93-2.75,4,4,0,0,1,.94-2.84,3.17,3.17,0,0,1,2.45-1,3.12,3.12,0,0,1,2.38,1,4,4,0,0,1,.92,2.79c0,.07,0,.18,0,.32h-5.41a2.82,2.82,0,0,0,.67,1.84,2,2,0,0,0,1.52.63,1.94,1.94,0,0,0,1.16-.35A2.41,2.41,0,0,0,126.37,23.15Zm-4-2h4a2.44,2.44,0,0,0-.47-1.37,1.86,1.86,0,0,0-1.52-.71,2,2,0,0,0-1.42.56A2.24,2.24,0,0,0,122.33,21.16Z"/><path class="cls-5" d="M128.69,23.32l1.22-.19a1.71,1.71,0,0,0,.57,1.12,2,2,0,0,0,1.31.39A1.9,1.9,0,0,0,133,24.3a1,1,0,0,0,.41-.81.75.75,0,0,0-.36-.66,5.38,5.38,0,0,0-1.26-.42,11.35,11.35,0,0,1-1.87-.59,1.85,1.85,0,0,1-.79-.69,1.91,1.91,0,0,1,0-1.87,2,2,0,0,1,.6-.69,2.54,2.54,0,0,1,.79-.36,3.62,3.62,0,0,1,1.06-.14,4.29,4.29,0,0,1,1.5.24,2.05,2.05,0,0,1,1,.67,2.55,2.55,0,0,1,.43,1.12l-1.21.17a1.3,1.3,0,0,0-.47-.88,1.73,1.73,0,0,0-1.11-.31,2,2,0,0,0-1.21.28.81.81,0,0,0-.37.65.62.62,0,0,0,.16.43,1,1,0,0,0,.47.33c.12.05.48.15,1.08.32a15,15,0,0,1,1.83.57,1.92,1.92,0,0,1,.81.64,1.89,1.89,0,0,1,.29,1.06,2,2,0,0,1-.36,1.15,2.27,2.27,0,0,1-1,.85,3.9,3.9,0,0,1-1.53.29,3.4,3.4,0,0,1-2.15-.58A2.77,2.77,0,0,1,128.69,23.32Z"/><path class="cls-5" d="M140.92,24.59a4.49,4.49,0,0,1-1.32.82,3.76,3.76,0,0,1-1.35.24,2.64,2.64,0,0,1-1.84-.58,1.93,1.93,0,0,1-.64-1.5,2,2,0,0,1,.24-1,2.06,2.06,0,0,1,.63-.71,3.27,3.27,0,0,1,.89-.4,8.11,8.11,0,0,1,1.09-.18,10.82,10.82,0,0,0,2.2-.43v-.32a1.38,1.38,0,0,0-.34-1.06,2.08,2.08,0,0,0-1.41-.42,2.19,2.19,0,0,0-1.28.31,1.86,1.86,0,0,0-.61,1.07L136,20.3a3,3,0,0,1,.54-1.25,2.4,2.4,0,0,1,1.08-.73,4.93,4.93,0,0,1,1.65-.25,4.53,4.53,0,0,1,1.51.21,2.1,2.1,0,0,1,.86.55,2,2,0,0,1,.38.84,7.16,7.16,0,0,1,.06,1.14v1.64a17.94,17.94,0,0,0,.08,2.17,2.84,2.84,0,0,0,.31.87h-1.28A2.64,2.64,0,0,1,140.92,24.59Zm-.1-2.74a9.45,9.45,0,0,1-2,.46,4.09,4.09,0,0,0-1.08.25,1,1,0,0,0-.48.4,1,1,0,0,0-.17.58,1,1,0,0,0,.37.82,1.6,1.6,0,0,0,1.09.33,2.54,2.54,0,0,0,1.27-.31,2,2,0,0,0,.81-.85,3,3,0,0,0,.2-1.23Z"/><path class="cls-5" d="M144,25.49V18.23h1.11v1.1a3.11,3.11,0,0,1,.78-1,1.41,1.41,0,0,1,.79-.24,2.44,2.44,0,0,1,1.27.39l-.42,1.14a1.88,1.88,0,0,0-.91-.26,1.16,1.16,0,0,0-.72.24,1.29,1.29,0,0,0-.46.67,4.73,4.73,0,0,0-.2,1.44v3.8Z"/><path class="cls-5" d="M148.62,25.49V18.23h1.1v1.1a3.11,3.11,0,0,1,.79-1,1.39,1.39,0,0,1,.79-.24,2.43,2.43,0,0,1,1.26.39l-.42,1.14a1.82,1.82,0,0,0-.9-.26,1.18,1.18,0,0,0-.73.24,1.35,1.35,0,0,0-.46.67,5.06,5.06,0,0,0-.2,1.44v3.8Z"/><path class="cls-5" d="M152.83,21.86a3.74,3.74,0,0,1,1.13-3,3.34,3.34,0,0,1,2.28-.8,3.25,3.25,0,0,1,2.45,1,3.73,3.73,0,0,1,.95,2.71,4.78,4.78,0,0,1-.42,2.2A3,3,0,0,1,158,25.21a3.61,3.61,0,0,1-1.75.44,3.28,3.28,0,0,1-2.47-1A4,4,0,0,1,152.83,21.86Zm1.27,0a3.09,3.09,0,0,0,.61,2.09,1.94,1.94,0,0,0,1.53.69,1.91,1.91,0,0,0,1.52-.7,3.12,3.12,0,0,0,.61-2.12,3,3,0,0,0-.61-2,2,2,0,0,0-3,0A3.07,3.07,0,0,0,154.1,21.86Z"/><path class="cls-5" d="M161.05,25.49v-10h1.23v10Z"/><path class="cls-5" d="M164.16,25.49v-10h1.23v10Z"/><path class="cls-5" d="M166.84,21.86a3.74,3.74,0,0,1,1.12-3,3.39,3.39,0,0,1,2.29-.8,3.23,3.23,0,0,1,2.44,1,3.69,3.69,0,0,1,.95,2.71,4.78,4.78,0,0,1-.42,2.2A3,3,0,0,1,172,25.21a3.64,3.64,0,0,1-1.75.44,3.28,3.28,0,0,1-2.47-1A4,4,0,0,1,166.84,21.86Zm1.27,0a3.14,3.14,0,0,0,.6,2.09,2,2,0,0,0,1.54.69,1.91,1.91,0,0,0,1.52-.7,3.12,3.12,0,0,0,.61-2.12,3,3,0,0,0-.61-2,2,2,0,0,0-3.06,0A3.12,3.12,0,0,0,168.11,21.86Z"/><path class="cls-5" d="M292.76,17.45a3.87,3.87,0,0,1,1-2.79,3.26,3.26,0,0,1,2.47-1,3.49,3.49,0,0,1,1.79.47,3.12,3.12,0,0,1,1.21,1.33,4.24,4.24,0,0,1,.42,1.92,4.3,4.3,0,0,1-.44,1.95,3,3,0,0,1-1.25,1.3,3.56,3.56,0,0,1-1.73.44,3.34,3.34,0,0,1-1.81-.49,3.24,3.24,0,0,1-1.21-1.33A4.12,4.12,0,0,1,292.76,17.45Zm1,0a2.82,2.82,0,0,0,.7,2,2.26,2.26,0,0,0,1.74.75,2.29,2.29,0,0,0,1.76-.75,3.08,3.08,0,0,0,.69-2.14,3.75,3.75,0,0,0-.29-1.52,2.35,2.35,0,0,0-.87-1,2.5,2.5,0,0,0-3,.34A3.05,3.05,0,0,0,293.74,17.46Z"/><path class="cls-5" d="M301.53,20.94h-.82V13.78h.88v2.55a1.76,1.76,0,0,1,1.42-.7,2.19,2.19,0,0,1,.91.2,1.79,1.79,0,0,1,.7.54,2.38,2.38,0,0,1,.43.84,3.32,3.32,0,0,1,.16,1.06,3,3,0,0,1-.66,2.06,2.08,2.08,0,0,1-1.58.72,1.65,1.65,0,0,1-1.44-.76Zm0-2.64a2.66,2.66,0,0,0,.25,1.35,1.26,1.26,0,0,0,2.12.18,2.26,2.26,0,0,0,.42-1.49,2.3,2.3,0,0,0-.4-1.5,1.24,1.24,0,0,0-2,0A2.17,2.17,0,0,0,301.52,18.3Z"/><path class="cls-5" d="M305.16,23l.17-.75a1.51,1.51,0,0,0,.41.07.46.46,0,0,0,.4-.18,1.79,1.79,0,0,0,.13-.89V15.75h.88v5.47a2.5,2.5,0,0,1-.25,1.33,1.15,1.15,0,0,1-1,.49A2.61,2.61,0,0,1,305.16,23Zm1.11-8.15v-1h.88v1Z"/><path class="cls-5" d="M312.05,19.27l.91.11a2.17,2.17,0,0,1-.8,1.23,2.33,2.33,0,0,1-1.48.44,2.38,2.38,0,0,1-1.81-.7,2.73,2.73,0,0,1-.66-2,2.86,2.86,0,0,1,.67-2,2.26,2.26,0,0,1,1.75-.73,2.23,2.23,0,0,1,1.7.71,2.81,2.81,0,0,1,.66,2,2.37,2.37,0,0,1,0,.24h-3.86a2,2,0,0,0,.48,1.31,1.44,1.44,0,0,0,1.08.45,1.34,1.34,0,0,0,.83-.25A1.65,1.65,0,0,0,312.05,19.27Zm-2.89-1.42h2.9a1.81,1.81,0,0,0-.33-1,1.33,1.33,0,0,0-1.09-.5,1.41,1.41,0,0,0-1,.4A1.63,1.63,0,0,0,309.16,17.85Z"/><path class="cls-5" d="M316,20.15l.13.78a3.39,3.39,0,0,1-.67.07,1.51,1.51,0,0,1-.74-.15.87.87,0,0,1-.37-.39,3.24,3.24,0,0,1-.11-1v-3h-.64v-.68h.64V14.47l.88-.53v1.81H316v.68h-.88v3a1.6,1.6,0,0,0,0,.48.37.37,0,0,0,.16.17.61.61,0,0,0,.3.06Z"/><path class="cls-5" d="M316.85,14.79v-1h.87v1Zm0,6.15V15.75h.87v5.19Z"/><path class="cls-5" d="M320.5,20.94l-2-5.19h.93l1.11,3.11c.12.33.23.68.33,1q.12-.41.33-1l1.15-3.16h.91l-2,5.19Z"/><path class="cls-5" d="M323.74,18.34a2.64,2.64,0,0,1,.8-2.13,2.43,2.43,0,0,1,1.63-.58,2.34,2.34,0,0,1,1.74.7,2.65,2.65,0,0,1,.68,1.94,3.4,3.4,0,0,1-.3,1.57,2.16,2.16,0,0,1-.87.9,2.55,2.55,0,0,1-1.25.31,2.33,2.33,0,0,1-1.76-.69A2.8,2.8,0,0,1,323.74,18.34Zm.9,0a2.19,2.19,0,0,0,.43,1.49,1.38,1.38,0,0,0,1.1.5,1.4,1.4,0,0,0,1.09-.5,2.26,2.26,0,0,0,.43-1.52,2.13,2.13,0,0,0-.44-1.45,1.38,1.38,0,0,0-1.08-.5,1.4,1.4,0,0,0-1.1.49A2.21,2.21,0,0,0,324.64,18.34Z"/><path class="cls-5" d="M329.27,19.39l.87-.14a1.22,1.22,0,0,0,.41.8,1.38,1.38,0,0,0,.93.28,1.33,1.33,0,0,0,.9-.25.71.71,0,0,0,.3-.57.54.54,0,0,0-.26-.47,3.66,3.66,0,0,0-.9-.3,7.73,7.73,0,0,1-1.34-.42,1.33,1.33,0,0,1-.57-.5,1.28,1.28,0,0,1-.19-.69,1.33,1.33,0,0,1,.16-.65A1.44,1.44,0,0,1,330,16a1.84,1.84,0,0,1,.56-.25,2.63,2.63,0,0,1,.76-.11,2.93,2.93,0,0,1,1.07.18,1.42,1.42,0,0,1,.68.48,1.68,1.68,0,0,1,.3.8l-.86.12a.93.93,0,0,0-.33-.63,1.27,1.27,0,0,0-.8-.22,1.38,1.38,0,0,0-.86.2.56.56,0,0,0-.26.46.44.44,0,0,0,.11.31.71.71,0,0,0,.33.24l.78.22a11,11,0,0,1,1.3.41,1.34,1.34,0,0,1,.58.46,1.28,1.28,0,0,1,.21.75,1.48,1.48,0,0,1-.26.83,1.59,1.59,0,0,1-.74.6,2.68,2.68,0,0,1-1.09.21,2.44,2.44,0,0,1-1.54-.42A2,2,0,0,1,329.27,19.39Z"/><path class="cls-5" d="M290.37,29.27l.91.11a2.21,2.21,0,0,1-.79,1.23,2.38,2.38,0,0,1-1.49.44,2.34,2.34,0,0,1-1.8-.7,2.69,2.69,0,0,1-.67-2,2.86,2.86,0,0,1,.67-2,2.27,2.27,0,0,1,1.75-.73,2.22,2.22,0,0,1,1.7.71,2.81,2.81,0,0,1,.66,2v.24h-3.87a2,2,0,0,0,.48,1.31,1.45,1.45,0,0,0,1.09.45,1.33,1.33,0,0,0,.82-.25A1.65,1.65,0,0,0,290.37,29.27Zm-2.88-1.42h2.89a1.81,1.81,0,0,0-.33-1,1.33,1.33,0,0,0-1.09-.5,1.41,1.41,0,0,0-1,.4A1.63,1.63,0,0,0,287.49,27.85Z"/><path class="cls-5" d="M292,29.39l.87-.14a1.22,1.22,0,0,0,.41.8,1.38,1.38,0,0,0,.93.28,1.33,1.33,0,0,0,.9-.25.71.71,0,0,0,.3-.57.54.54,0,0,0-.26-.47,3.66,3.66,0,0,0-.9-.3,7.73,7.73,0,0,1-1.34-.42,1.33,1.33,0,0,1-.57-.5,1.28,1.28,0,0,1-.19-.69,1.33,1.33,0,0,1,.16-.65,1.44,1.44,0,0,1,.43-.49,1.84,1.84,0,0,1,.56-.25,2.68,2.68,0,0,1,.76-.11,2.93,2.93,0,0,1,1.07.18,1.37,1.37,0,0,1,.68.48,1.68,1.68,0,0,1,.3.8l-.86.12a.93.93,0,0,0-.33-.63,1.27,1.27,0,0,0-.8-.22,1.38,1.38,0,0,0-.86.2A.58.58,0,0,0,293,27a.49.49,0,0,0,.11.31.71.71,0,0,0,.33.24l.78.22a10.39,10.39,0,0,1,1.3.41,1.34,1.34,0,0,1,.58.46,1.28,1.28,0,0,1,.21.75,1.48,1.48,0,0,1-.26.83,1.59,1.59,0,0,1-.74.6,2.68,2.68,0,0,1-1.09.21,2.44,2.44,0,0,1-1.54-.42A2,2,0,0,1,292,29.39Z"/><path class="cls-5" d="M299.3,30.15l.13.78a3.37,3.37,0,0,1-.66.07,1.56,1.56,0,0,1-.75-.15.87.87,0,0,1-.37-.39,3.34,3.34,0,0,1-.1-1v-3h-.65v-.68h.65V24.47l.87-.53v1.81h.88v.68h-.88v3a1.49,1.49,0,0,0,.05.48.35.35,0,0,0,.15.17.61.61,0,0,0,.3.06Z"/><path class="cls-5" d="M300.15,30.94V25.75h.79v.79a2.29,2.29,0,0,1,.56-.73,1,1,0,0,1,.57-.18,1.73,1.73,0,0,1,.9.29l-.3.81a1.35,1.35,0,0,0-.65-.19.79.79,0,0,0-.51.18.84.84,0,0,0-.33.48,3.31,3.31,0,0,0-.15,1v2.72Z"/><path class="cls-5" d="M306.88,30.3a3.38,3.38,0,0,1-.94.58,2.61,2.61,0,0,1-1,.17,2,2,0,0,1-1.32-.41,1.51,1.51,0,0,1-.28-1.77,1.36,1.36,0,0,1,.45-.5,2.26,2.26,0,0,1,.63-.29,5.57,5.57,0,0,1,.79-.13,8.94,8.94,0,0,0,1.56-.3c0-.13,0-.2,0-.23a1,1,0,0,0-.25-.76,1.48,1.48,0,0,0-1-.3,1.54,1.54,0,0,0-.92.22,1.32,1.32,0,0,0-.43.77l-.86-.12a2,2,0,0,1,.38-.89,1.65,1.65,0,0,1,.78-.52,3.28,3.28,0,0,1,1.18-.19,3.13,3.13,0,0,1,1.07.16,1.34,1.34,0,0,1,.61.39,1.39,1.39,0,0,1,.28.6,5,5,0,0,1,0,.81v1.17a11.54,11.54,0,0,0,.06,1.55,2.06,2.06,0,0,0,.22.63h-.92A1.83,1.83,0,0,1,306.88,30.3Zm-.08-2a6.83,6.83,0,0,1-1.43.34,3.64,3.64,0,0,0-.77.17.83.83,0,0,0-.35.29.73.73,0,0,0-.12.41.75.75,0,0,0,.27.59,1.14,1.14,0,0,0,.78.23,1.77,1.77,0,0,0,.9-.22,1.37,1.37,0,0,0,.58-.61,2,2,0,0,0,.14-.87Z"/><path class="cls-5" d="M311,30.15l.13.78a3.37,3.37,0,0,1-.66.07,1.56,1.56,0,0,1-.75-.15.87.87,0,0,1-.37-.39,3.34,3.34,0,0,1-.1-1v-3h-.65v-.68h.65V24.47l.87-.53v1.81H311v.68h-.88v3a1.49,1.49,0,0,0,.05.48.35.35,0,0,0,.15.17.61.61,0,0,0,.3.06Z"/><path class="cls-5" d="M315.38,29.27l.91.11a2.17,2.17,0,0,1-.8,1.23,2.68,2.68,0,0,1-3.28-.26,2.69,2.69,0,0,1-.67-2,2.86,2.86,0,0,1,.67-2,2.27,2.27,0,0,1,1.75-.73,2.22,2.22,0,0,1,1.7.71,2.81,2.81,0,0,1,.66,2v.24h-3.87a2,2,0,0,0,.48,1.31,1.45,1.45,0,0,0,1.09.45,1.33,1.33,0,0,0,.82-.25A1.65,1.65,0,0,0,315.38,29.27Zm-2.88-1.42h2.89a1.81,1.81,0,0,0-.33-1,1.33,1.33,0,0,0-1.09-.5,1.41,1.41,0,0,0-1,.4A1.63,1.63,0,0,0,312.5,27.85Zm.94-2.74.65-1.37h1.16l-1.08,1.37Z"/><path class="cls-5" d="M317.23,31.37l.86.12a.77.77,0,0,0,.3.58,1.45,1.45,0,0,0,.89.24,1.57,1.57,0,0,0,.94-.24,1.21,1.21,0,0,0,.45-.68,5,5,0,0,0,.06-1.13,1.8,1.8,0,0,1-1.43.68,2,2,0,0,1-1.66-.78,3,3,0,0,1-.58-1.85,3.45,3.45,0,0,1,.27-1.37,2.05,2.05,0,0,1,.77-1,2.12,2.12,0,0,1,1.2-.35,1.86,1.86,0,0,1,1.52.75v-.63h.81v4.48a4.16,4.16,0,0,1-.25,1.72,1.77,1.77,0,0,1-.78.8,2.8,2.8,0,0,1-1.32.29,2.51,2.51,0,0,1-1.5-.42A1.41,1.41,0,0,1,317.23,31.37Zm.73-3.12a2.25,2.25,0,0,0,.41,1.49,1.28,1.28,0,0,0,1,.47,1.33,1.33,0,0,0,1-.47,2.19,2.19,0,0,0,.41-1.46,2.17,2.17,0,0,0-.42-1.44,1.34,1.34,0,0,0-1-.48,1.27,1.27,0,0,0-1,.48A2.12,2.12,0,0,0,318,28.25Z"/><path class="cls-5" d="M323,24.79v-1h.88v1Zm0,6.15V25.75h.88v5.19Z"/><path class="cls-5" d="M328.56,29l.87.11a2.3,2.3,0,0,1-.73,1.4,2.1,2.1,0,0,1-1.43.5,2.23,2.23,0,0,1-1.71-.69,2.8,2.8,0,0,1-.65-2,3.54,3.54,0,0,1,.28-1.47A1.93,1.93,0,0,1,326,26a2.54,2.54,0,0,1,1.24-.32,2.15,2.15,0,0,1,1.38.43,2,2,0,0,1,.69,1.21l-.85.14a1.47,1.47,0,0,0-.43-.79,1.11,1.11,0,0,0-.75-.26,1.33,1.33,0,0,0-1.08.47,2.25,2.25,0,0,0-.42,1.51,2.4,2.4,0,0,0,.4,1.52,1.33,1.33,0,0,0,1.05.47,1.19,1.19,0,0,0,.86-.32A1.55,1.55,0,0,0,328.56,29Z"/><path class="cls-5" d="M329.85,28.34a2.67,2.67,0,0,1,.8-2.13,2.44,2.44,0,0,1,1.63-.58,2.36,2.36,0,0,1,1.75.7,2.7,2.7,0,0,1,.68,1.94,3.4,3.4,0,0,1-.3,1.57,2.12,2.12,0,0,1-.88.9,2.55,2.55,0,0,1-1.25.31,2.36,2.36,0,0,1-1.76-.69A2.8,2.8,0,0,1,329.85,28.34Zm.9,0a2.19,2.19,0,0,0,.44,1.49,1.36,1.36,0,0,0,1.09.5,1.39,1.39,0,0,0,1.09-.5,2.26,2.26,0,0,0,.44-1.52,2.13,2.13,0,0,0-.44-1.45,1.4,1.4,0,0,0-1.09-.5,1.38,1.38,0,0,0-1.09.49A2.21,2.21,0,0,0,330.75,28.34Z"/><path class="cls-5" d="M335.39,29.39l.87-.14a1.21,1.21,0,0,0,.4.8,1.42,1.42,0,0,0,.94.28,1.36,1.36,0,0,0,.9-.25.73.73,0,0,0,.29-.57.54.54,0,0,0-.26-.47,3.66,3.66,0,0,0-.9-.3,8,8,0,0,1-1.34-.42,1.3,1.3,0,0,1-.56-.5,1.29,1.29,0,0,1-.2-.69,1.45,1.45,0,0,1,.16-.65,1.55,1.55,0,0,1,.43-.49,2,2,0,0,1,.56-.25,2.68,2.68,0,0,1,.76-.11,3,3,0,0,1,1.08.18,1.47,1.47,0,0,1,.68.48,1.91,1.91,0,0,1,.3.8l-.86.12a.94.94,0,0,0-.34-.63,1.24,1.24,0,0,0-.79-.22,1.41,1.41,0,0,0-.87.2.58.58,0,0,0-.26.46.49.49,0,0,0,.11.31.69.69,0,0,0,.34.24l.77.22a10.7,10.7,0,0,1,1.31.41,1.37,1.37,0,0,1,.57.46,1.28,1.28,0,0,1,.21.75,1.47,1.47,0,0,1-.25.83,1.65,1.65,0,0,1-.74.6,2.73,2.73,0,0,1-1.1.21,2.46,2.46,0,0,1-1.54-.42A2,2,0,0,1,335.39,29.39Z"/></g></g></svg>