<svg id="Capa_1" data-name="Capa 1" xmlns="http://www.w3.org/2000/svg" viewBox="0 0 203.08 129.45"><defs><style>.cls-1{opacity:0.3;}.cls-2{fill:#fff;}.cls-3{fill:#9ea0a3;}.cls-4{fill:#231f20;}.cls-5{font-size:15.69px;font-family:Calibri-Bold, Calibri;font-weight:700;letter-spacing:-0.03em;}.cls-6{letter-spacing:-0.02em;}.cls-7{letter-spacing:-0.03em;}.cls-8{letter-spacing:-0.03em;}.cls-9{letter-spacing:-0.02em;}.cls-10{letter-spacing:-0.02em;}.cls-11{letter-spacing:-0.03em;}.cls-12{letter-spacing:-0.03em;}</style></defs><path class="cls-1" d="M195.28,22.51c-8.72-13.33-29.06-8.63-44.61-8.65-2.78-.06-5.64-.16-8.54-.29-20.36-.88-43.27-3-62.15-1.45a97.84,97.84,0,0,0-12.72,1.81C29.77,26.78,43.1,55,45.25,79.15c-5.62,7-16.47,15.68-36.45,17.73,0,0,20.08,1.62,35.63,6.69.7,9,4.26,17.29,17.66,23a42.22,42.22,0,0,0,10.69,1.22c4,.15,7.83.16,11.63.09s7.56-.19,11.32-.34c11.08-.92,22.26-.48,33.42,0l8.37.39c18.41-.49,43.38,7.5,53.56-9.36,12.95-20.41,4.62-45.25,7.69-68,.31-2.51.61-5,.8-7.44C200.13,35.84,199.64,28.78,195.28,22.51Z"/><path class="cls-2" d="M189.44,14.66C180.72,1.33,160.38,6,144.83,6c-2.78-.06-5.64-.16-8.55-.29-20.35-.88-43.26-3-62.15-1.45A97.92,97.92,0,0,0,61.42,6.08C28.51,17.36,34.76,40.5,38.24,62.31A17.4,17.4,0,0,1,31.1,79.15C24.77,83.7,15.73,87.73,3,89a202.15,202.15,0,0,1,28.16,4.58,11.45,11.45,0,0,1,8.45,8c1.8,6.67,6.28,12.67,16.68,17.11A42.21,42.21,0,0,0,66.94,120c4,.14,7.82.15,11.63.08s7.56-.19,11.32-.34c11.08-.92,22.26-.47,33.42,0l8.37.38c18.41-.49,43.38,7.5,53.56-9.36,12.94-20.4,4.62-45.25,7.69-68,.31-2.5.61-5,.8-7.44C194.29,28,193.8,20.94,189.44,14.66Z"/><path class="cls-3" d="M37.73,69.85a17.22,17.22,0,0,0,4-13.9c-2-12.56-4.91-25.55-.74-36.48-8.86,12-5.13,27.74-2.72,42.84A17.09,17.09,0,0,1,37.73,69.85Z"/><path class="cls-3" d="M135.14,113.76c-2.78-.11-5.57-.25-8.36-.38-11.17-.52-22.35-1-33.43,0-3.75.14-7.51.28-11.31.34s-7.67,0-11.63-.09a42.17,42.17,0,0,1-10.69-1.22C49.31,107.92,44.84,101.92,43,95.26a11.49,11.49,0,0,0-8.44-8c-4.55-1.12-9.15-2-13.28-2.67A64.41,64.41,0,0,1,3,89a202.15,202.15,0,0,1,28.16,4.58,11.45,11.45,0,0,1,8.45,8c1.8,6.67,6.28,12.67,16.68,17.11A42.21,42.21,0,0,0,66.94,120c4,.14,7.82.15,11.63.08s7.56-.19,11.32-.34c11.08-.92,22.26-.47,33.42,0l8.37.38c18.41-.49,43.38,7.5,53.56-9.36A43.68,43.68,0,0,0,188.3,105C177.89,121.05,153.32,113.28,135.14,113.76Z"/><path class="cls-4" d="M160.37,122.67c-4.56,0-9.3-.39-14-.77a138.33,138.33,0,0,0-14.66-.71c-2.27-.09-4.46-.2-6.66-.3l-1.79-.08c-11.88-.56-22.58-.94-33.28,0-3.64.14-7.48.28-11.39.35-4.24.06-8.07,0-11.69-.09A43.77,43.77,0,0,1,56,119.76l-.17-.06c-9.63-4.11-15.13-9.77-17.3-17.81-1-3.55-4.13-5.9-7.88-6.83C17,91.7.14,88.37,0,88.36l5.07-.64C16,86.6,23.07,83.6,30.43,78.3a16.3,16.3,0,0,0,6.71-15.83c-.22-1.4-.45-2.8-.69-4.21C33,37.45,29.38,15.94,61.05,5.08l.13,0A100.36,100.36,0,0,1,74,3.21C88.44,2,105.11,3,121.23,3.88c5,.28,10.19.57,15.1.78,3.15.14,5.94.23,8.53.29,3.1,0,6.41-.18,9.89-.38C168,3.81,183.08,3,190.37,14.09c4.83,7,5,14.69,4.46,21.34-.18,2.44-.48,4.93-.8,7.49-1.06,7.85-.74,16.13-.43,24.13.58,15.1,1.18,30.72-7.42,44.27C180.61,120.55,171,122.67,160.37,122.67Zm-26.91-3.62c4.12,0,8.5.36,13.1.73,15,1.23,30.45,2.5,37.72-9.54,8.27-13,7.7-27.64,7.11-43.11-.32-8.09-.64-16.45.45-24.48.31-2.51.6-5,.79-7.38.47-6.29.36-13.59-4.11-20v0c-6.59-10.08-20.34-9.3-33.63-8.54-3.52.2-6.84.38-10,.38-2.63-.06-5.43-.15-8.6-.29-4.92-.21-10.11-.5-15.13-.79-16-.9-32.63-1.84-46.87-.66A97.11,97.11,0,0,0,61.73,7.1c-29.86,10.27-26.58,30-23.1,50.83.24,1.41.48,2.82.7,4.22A18.37,18.37,0,0,1,31.76,80,54.62,54.62,0,0,1,11,88.86,190.47,190.47,0,0,1,31.4,92.58a12.59,12.59,0,0,1,9.24,8.78c2,7.34,7.07,12.54,16,16.37a41,41,0,0,0,10.31,1.17c3.64.12,7.42.15,11.62.08,3.89-.06,7.71-.2,11.29-.34,10.79-.9,21.57-.51,33.52,0l1.8.08c2.19.1,4.38.21,6.57.3C132.3,119.05,132.88,119.05,133.46,119.05Z"/><text class="cls-5" transform="translate(52.01 57.14)">t<tspan class="cls-6" x="4.93" y="0">e </tspan><tspan class="cls-7" x="15.75" y="0">v</tspan><tspan class="cls-8" x="22.72" y="0">o</tspan><tspan class="cls-6" x="30.75" y="0">y a </tspan><tspan class="cls-9" x="51.77" y="0">c</tspan><tspan class="cls-10" x="57.94" y="0">o</tspan><tspan class="cls-7" x="66.07" y="0">n</tspan><tspan class="cls-11" x="74.03" y="0">t</tspan><tspan class="cls-6" x="79" y="0">ar cuáles </tspan><tspan class="cls-10"><tspan x="8.81" y="13.82">son sus ben</tspan><tspan class="cls-12" x="81.25" y="13.82">e</tspan><tspan x="88.72" y="13.82">ficios:</tspan></tspan></text></svg>