<svg id="Capa_1" data-name="Capa 1" xmlns="http://www.w3.org/2000/svg" viewBox="0 0 161.27 102.06"><defs><style>.cls-1{opacity:0.3;}.cls-2{fill:#fff;}.cls-3{fill:#9ea0a3;}.cls-4{fill:#231f20;}.cls-5{font-size:16px;stroke:#000;stroke-miterlimit:10;stroke-width:0.24px;font-family:Calibri-Bold, Calibri;font-weight:700;}</style></defs><path class="cls-1" d="M4.45,14.29C11.3,5.41,27.28,8.55,39.5,8.53c2.18,0,4.43-.11,6.71-.19,16-.59,34-2,48.83-1a89,89,0,0,1,10,1.21c29.46,8.55,19,39.06,17.29,55.13,4.42,4.65,12.94,10.44,28.64,11.8,0,0-15.78,1.08-28,4.45-.54,6-3.34,11.51-13.87,15.32a39,39,0,0,1-8.4.82c-3.11.09-6.14.1-9.13.06s-5.94-.14-8.9-.23a237,237,0,0,0-26.25,0l-6.58.25c-14.46-.32-34.08,5-42.08-6.23-10.17-13.58-3.63-30.12-6-45.25-.25-1.67-.48-3.33-.63-5C.64,34.88,1,18.47,4.45,14.29Z"/><path class="cls-2" d="M9,9.06C15.89.19,31.87,3.32,44.09,3.31c2.18-.05,4.43-.11,6.71-.2,16-.58,34-2,48.83-1a89.06,89.06,0,0,1,10,1.2C135.48,10.86,130.57,38,127.83,52.5c-.8,4.28,1.35,8.6,5.61,11.2,5,3,12.08,5.72,22.11,6.59a186.15,186.15,0,0,0-22.13,3c-3.24.68-5.79,2.71-6.63,5.34-1.42,4.43-4.94,8.43-13.11,11.39a38.39,38.39,0,0,1-8.4.81c-3.11.1-6.14.1-9.14.06s-5.94-.13-8.89-.23a242,242,0,0,0-26.25,0L54.42,91C40,90.66,20.34,96,12.34,84.76,2.17,71.17,8.71,54.64,6.3,39.5c-.25-1.67-.48-3.32-.63-5C5.23,29.65,5.61,13.24,9,9.06Z"/><path class="cls-3" d="M128.23,57.52a10.31,10.31,0,0,1-3.12-9.26c1.57-8.36,3.86-28.72.59-36,7,8,4,30.17,2.13,40.23A9.72,9.72,0,0,0,128.23,57.52Z"/><path class="cls-3" d="M51.7,86.75l6.57-.25a237.17,237.17,0,0,1,26.26,0c3,.09,5.9.18,8.89.22s6,0,9.14,0a39.06,39.06,0,0,0,8.4-.82c8.17-3,11.69-6.95,13.11-11.39.84-2.63,3.39-4.66,6.63-5.34,3.57-.74,7.19-1.33,10.43-1.78a58.37,58.37,0,0,0,14.42,3,186.15,186.15,0,0,0-22.13,3c-3.24.68-5.79,2.71-6.63,5.34-1.42,4.43-4.94,8.43-13.11,11.39a38.39,38.39,0,0,1-8.4.81c-3.11.1-6.14.1-9.14.06s-5.94-.13-8.89-.23a242,242,0,0,0-26.25,0L54.42,91C40,90.66,20.34,96,12.34,84.76a28.23,28.23,0,0,1-2.4-3.83C18.12,91.6,37.42,86.43,51.7,86.75Z"/><path class="cls-4" d="M11.6,85.12c-6.76-9-6.28-19.42-5.82-29.47.24-5.33.49-10.83-.35-16.07-.24-1.7-.48-3.36-.63-5-.39-4.43-.28-21.29,3.51-25.92,5.73-7.41,17.55-6.84,28-6.33,2.74.13,5.34.25,7.78.25,2,0,4.22-.1,6.69-.19,3.86-.14,7.93-.34,11.87-.53C75.3,1.28,88.39.65,99.7,1.44a93.79,93.79,0,0,1,10.11,1.22l.1,0C134.79,9.91,132,36,129.24,49.8c-.19.94-.37,1.87-.55,2.8-.76,4,1.26,8.09,5.27,10.54,5.79,3.53,11.33,5.52,19.93,6.27l4,.43c-.11,0-13.38,2.22-24.05,4.46-2.95.61-5.44,2.18-6.19,4.55-1.71,5.35-6,9.12-13.6,11.85l-.13,0a40.45,40.45,0,0,1-8.59.84c-2.84.08-5.85.1-9.18.06-3.08,0-6.09-.14-8.95-.23a235.08,235.08,0,0,0-26.14,0l-1.41,0-5.23.2c-3.59-.08-7.44.19-11.52.47-3.69.26-7.42.52-11,.52C23.53,92.68,16,91.27,11.6,85.12Zm42.78,5.16,5.16-.2L61,90a238.69,238.69,0,0,1,26.34,0c2.81.09,5.81.18,8.87.23,3.3,0,6.27,0,9.13-.06a37.75,37.75,0,0,0,8.1-.78c7-2.55,11-6,12.56-10.9.91-2.86,3.69-5.1,7.25-5.84,5.8-1.22,11.75-2,16-2.48a47.31,47.31,0,0,1-16.32-5.9c-4.52-2.76-6.8-7.31-5.94-11.88.17-.93.36-1.87.54-2.81,2.74-13.89,5.32-38.71-18.14-45.55a89.44,89.44,0,0,0-9.82-1.18c-11.19-.78-24.22-.16-36.83.44-3.94.19-8,.39-11.89.53-2.48.09-4.69.15-6.75.19-2.52,0-5.13-.12-7.9-.25C25.75,3.25,15,2.73,9.77,9.44v0c-3.51,4.28-3.6,20.85-3.22,25,.14,1.59.37,3.23.62,4.91.85,5.34.6,10.91.35,16.29C7,66,6.6,75.73,13.1,84.4c5.7,8,17.87,7.17,29.63,6.36,3.62-.25,7.06-.49,10.29-.49Z"/><text class="cls-5" transform="translate(25.15 48.09)">Y de bonus...</text></svg>