<svg xmlns="http://www.w3.org/2000/svg" xmlns:xlink="http://www.w3.org/1999/xlink" viewBox="0 0 49.23 51.03"><defs><style>.cls-1{mask:url(#mask);filter:url(#luminosity-noclip-3);}.cls-2,.cls-4,.cls-7,.cls-9{mix-blend-mode:multiply;}.cls-2{fill:url(#radial-gradient);}.cls-3{mask:url(#mask-2);filter:url(#luminosity-noclip-4);}.cls-4{fill:url(#radial-gradient-2);}.cls-5{isolation:isolate;}.cls-6{mask:url(#mask-3);}.cls-7{fill:url(#Degradado_sin_nombre_153);}.cls-8{mask:url(#mask-4);}.cls-9{fill:url(#Degradado_sin_nombre_151);}.cls-10{fill:url(#Degradado_sin_nombre_8);}.cls-11{fill:none;stroke:#1fc299;stroke-linecap:round;stroke-linejoin:round;stroke-width:1.43px;}.cls-12{fill:#fefefe;}.cls-13{filter:url(#luminosity-noclip-2);}.cls-14{filter:url(#luminosity-noclip);}</style><filter id="luminosity-noclip" x="7.79" y="-8650.5" width="41.22" height="32766" filterUnits="userSpaceOnUse" color-interpolation-filters="sRGB"><feFlood flood-color="#fff" result="bg"/><feBlend in="SourceGraphic" in2="bg"/></filter><mask id="mask" x="7.79" y="-8650.5" width="41.22" height="32766" maskUnits="userSpaceOnUse"><g class="cls-14"/></mask><radialGradient id="radial-gradient" cx="-1073.53" cy="-368.81" r="14.62" gradientTransform="matrix(0.98, 0.27, -1.01, 0.11, 705.56, 378.4)" gradientUnits="userSpaceOnUse"><stop offset="0.5" stop-color="#a6a6a6"/><stop offset="0.6" stop-color="#a3a3a3"/><stop offset="0.67" stop-color="#999"/><stop offset="0.75" stop-color="#888"/><stop offset="0.81" stop-color="#707070"/><stop offset="0.88" stop-color="#515151"/><stop offset="0.94" stop-color="#2c2c2c"/><stop offset="1"/></radialGradient><filter id="luminosity-noclip-2" x="0" y="-8650.5" width="41.22" height="32766" filterUnits="userSpaceOnUse" color-interpolation-filters="sRGB"><feFlood flood-color="#fff" result="bg"/><feBlend in="SourceGraphic" in2="bg"/></filter><mask id="mask-2" x="0" y="-8650.5" width="41.22" height="32766" maskUnits="userSpaceOnUse"><g class="cls-13"/></mask><radialGradient id="radial-gradient-2" cx="-692.32" cy="-1260.93" r="14.62" gradientTransform="matrix(-0.98, 0.27, 1.01, 0.11, 620.91, 378.4)" xlink:href="#radial-gradient"/><filter id="luminosity-noclip-3" x="7.79" y="43.74" width="41.22" height="8.54" filterUnits="userSpaceOnUse" color-interpolation-filters="sRGB"><feFlood flood-color="#fff" result="bg"/><feBlend in="SourceGraphic" in2="bg"/></filter><mask id="mask-3" x="7.79" y="43.74" width="41.22" height="8.54" maskUnits="userSpaceOnUse"><g class="cls-1"><path class="cls-2" d="M49,49.6c-.19,2.19-9.58,3.25-21,2.37S7.6,48.61,7.8,46.42s9.59-3.25,21-2.37S49.21,47.41,49,49.6Z"/></g></mask><radialGradient id="Degradado_sin_nombre_153" cx="-1073.53" cy="-368.81" r="14.62" gradientTransform="matrix(0.98, 0.27, -1.01, 0.11, 705.56, 378.4)" gradientUnits="userSpaceOnUse"><stop offset="0" stop-color="#3c3c3b"/><stop offset="1" stop-color="#fff" stop-opacity="0"/></radialGradient><filter id="luminosity-noclip-4" x="0" y="43.74" width="41.22" height="8.54" filterUnits="userSpaceOnUse" color-interpolation-filters="sRGB"><feFlood flood-color="#fff" result="bg"/><feBlend in="SourceGraphic" in2="bg"/></filter><mask id="mask-4" x="0" y="43.74" width="41.22" height="8.54" maskUnits="userSpaceOnUse"><g class="cls-3"><path class="cls-4" d="M0,49.6C.2,51.79,9.58,52.85,21,52s20.44-3.36,20.25-5.55-9.59-3.25-21-2.37S-.2,47.41,0,49.6Z"/></g></mask><radialGradient id="Degradado_sin_nombre_151" cx="-692.32" cy="-1260.93" r="14.62" gradientTransform="matrix(-0.98, 0.27, 1.01, 0.11, 620.91, 378.4)" gradientUnits="userSpaceOnUse"><stop offset="0" stop-color="#3c3c3b"/><stop offset="0" stop-color="#3d3d3c"/><stop offset="1" stop-color="#fff" stop-opacity="0"/></radialGradient><linearGradient id="Degradado_sin_nombre_8" x1="24.63" y1="49.2" x2="24.63" gradientTransform="translate(11.47 -7.63) rotate(22.82)" gradientUnits="userSpaceOnUse"><stop offset="0" stop-color="#005c68"/><stop offset="1" stop-color="#1fb57b"/></linearGradient></defs><g class="cls-5"><g id="Capa_1" data-name="Capa 1"><g class="cls-6"><path class="cls-7" d="M49,49.6c-.19,2.19-9.58,3.25-21,2.37S7.6,48.61,7.8,46.42s9.59-3.25,21-2.37S49.21,47.41,49,49.6Z"/></g><g class="cls-8"><path class="cls-9" d="M0,49.6C.2,51.79,9.58,52.85,21,52s20.44-3.36,20.25-5.55-9.59-3.25-21-2.37S-.2,47.41,0,49.6Z"/></g><circle class="cls-10" cx="24.63" cy="24.6" r="24.6" transform="translate(-7.61 11.47) rotate(-22.82)"/><path class="cls-11" d="M32.38,5.19a20.67,20.67,0,0,1,13.33,17"/><path class="cls-12" d="M22,37.42a3.38,3.38,0,0,0,5.18,0Z"/><path class="cls-12" d="M27.89,36.85H21.12a.62.62,0,0,1-.62-.62.62.62,0,0,1,.62-.62h6.77a.62.62,0,0,1,.62.62A.62.62,0,0,1,27.89,36.85Z"/><path class="cls-12" d="M27.89,35H21.12a.63.63,0,0,1,0-1.25h6.77a.63.63,0,0,1,0,1.25Z"/><path class="cls-12" d="M32.85,24.09a.69.69,0,0,1-.24-.05.61.61,0,0,1-.33-.81,8.51,8.51,0,0,0-.21-7,8.46,8.46,0,0,0-10.76-3.86,7.84,7.84,0,0,0-5.11,6.94,8.31,8.31,0,0,0,.6,3.89.62.62,0,0,1-.33.82.61.61,0,0,1-.81-.33,9.48,9.48,0,0,1-.7-4.47,9.1,9.1,0,0,1,5.85-8,9.71,9.71,0,0,1,12.36,4.41,9.69,9.69,0,0,1,.25,8.05A.63.63,0,0,1,32.85,24.09Z"/><path class="cls-12" d="M17.75,20.25h-.07a.62.62,0,0,1-.54-.69,8,8,0,0,1,1-3.09A7,7,0,0,1,23.19,13a.61.61,0,0,1,.72.49.62.62,0,0,1-.5.73,5.75,5.75,0,0,0-4.2,2.86,6.9,6.9,0,0,0-.84,2.62A.61.61,0,0,1,17.75,20.25Z"/><path class="cls-12" d="M30.64,25.93a6.81,6.81,0,0,1-.7.72l-.77.69-.51.46a4.13,4.13,0,0,0-1.52,2.89c0,.3-.06.61-.09.92,0,.11,0,.23-.05.35H22c-.08-.67-.16-1.32-.24-1.88a3.12,3.12,0,0,0-1-1.84c-.39-.39-.8-.77-1.21-1.14L19,26.59a7.69,7.69,0,0,1-.62-.66H30.64m2.18-1.24Zm0,0H16.2a8.19,8.19,0,0,0,2,2.81c.58.54,1.17,1.07,1.74,1.63a1.92,1.92,0,0,1,.63,1.12c.1.75.2,1.5.27,2.26.05.48.26.7.76.7h5.88a.65.65,0,0,0,.73-.68c.05-.59.14-1.17.18-1.76a3,3,0,0,1,1.11-2c.42-.38.83-.77,1.26-1.14a7.74,7.74,0,0,0,2.07-2.9Z"/></g></g></svg>