<svg id="Capa_1" data-name="Capa 1" xmlns="http://www.w3.org/2000/svg" viewBox="0 0 37.61 37.6"><defs><style>.cls-1{fill:#b5b5b5;}.cls-2{fill:#e5e4e5;}.cls-3{fill:#cfccd0;}.cls-4{fill:#ae444c;}.cls-5{fill:#c54c56;}.cls-6{fill:#ae2932;}</style></defs><circle class="cls-1" cx="18.8" cy="18.8" r="18.8" transform="translate(-5.82 8.76) rotate(-22.82)"/><path class="cls-2" d="M30,29.88a2.47,2.47,0,0,1-2.48,2.47h-17a2.46,2.46,0,0,1-2.47-2.47V7.17A2.46,2.46,0,0,1,10.54,4.7H21.13a1.83,1.83,0,0,1,1.31.54l7,7A1.86,1.86,0,0,1,30,13.59Z"/><path class="cls-3" d="M12.21,32.35H10.54a2.46,2.46,0,0,1-2.47-2.47V7.17A2.46,2.46,0,0,1,10.54,4.7h1.67A2.46,2.46,0,0,0,9.74,7.17V29.88A2.46,2.46,0,0,0,12.21,32.35Z"/><path class="cls-3" d="M30,13.59v.9H23.57a3.35,3.35,0,0,1-3.34-3.34V4.7h.9a1.83,1.83,0,0,1,1.31.54l7,7A1.86,1.86,0,0,1,30,13.59Z"/><path class="cls-4" d="M29.86,12.82H23.57a1.67,1.67,0,0,1-1.67-1.67V4.86a2,2,0,0,1,.54.38l7,7a1.83,1.83,0,0,1,.38.54Z"/><path class="cls-5" d="M29,28.68H9.08a2.23,2.23,0,0,1-2.22-2.22V18.33A2.23,2.23,0,0,1,9.08,16.1H29a2.22,2.22,0,0,1,2.22,2.23v8.13A2.22,2.22,0,0,1,29,28.68Z"/><path class="cls-6" d="M10.48,28.68H9.08a2.23,2.23,0,0,1-2.22-2.22V18.33A2.23,2.23,0,0,1,9.08,16.1h1.4a2.23,2.23,0,0,0-2.23,2.23v8.13A2.23,2.23,0,0,0,10.48,28.68Z"/><path class="cls-2" d="M26.18,19.66a.42.42,0,0,0,.42-.42.41.41,0,0,0-.42-.41H23.63a.41.41,0,0,0-.42.41v6.3a.42.42,0,0,0,.42.42.41.41,0,0,0,.41-.42V22.75H26a.41.41,0,0,0,.41-.42.41.41,0,0,0-.41-.41H24V19.66Z"/><path class="cls-2" d="M19.19,18.9H17.45a.42.42,0,0,0-.3.12.45.45,0,0,0-.12.3h0v6.05a.3.3,0,0,0,0,.1h0a.42.42,0,0,0,.12.3.45.45,0,0,0,.29.12h0l1.79,0a2.64,2.64,0,0,0,2.1-1.06,4,4,0,0,0,.75-2.42c0-2.09-1.17-3.49-2.91-3.49Zm0,6.14H17.88c0-.69,0-2,0-2.66V19.73h1.32c1.53,0,2.07,1.38,2.07,2.66C21.26,23.93,20.43,25,19.24,25Z"/><path class="cls-2" d="M13.12,18.82H11.34c-.36,0-.38.16-.38.38v6.4a.38.38,0,1,0,.76,0V23.2h1.4a2.19,2.19,0,1,0,0-4.38Zm0,3.61H11.73V19.59h1.39a1.42,1.42,0,1,1,0,2.84Z"/></svg>