<svg xmlns="http://www.w3.org/2000/svg" viewBox="0 0 161.63 172.8"><defs><style>.cls-1{fill:#f9f5f3;}.cls-2{fill:#f9eae0;}.cls-3{fill:#a0c8ff;}.cls-4{fill:#91b2fa;}.cls-5{fill:#fa8ebb;}.cls-6{fill:#f57fb0;}.cls-7{fill:#ffce69;}.cls-8{fill:#ffbd61;}.cls-9{fill:#bdd3dd;}.cls-10{fill:#abc4d6;}.cls-11{fill:#283b56;}</style></defs><g id="Capa_2" data-name="Capa 2"><g id="Capa_1-2" data-name="Capa 1"><path class="cls-1" d="M30.49,35.21V159.09a11.18,11.18,0,0,0,11.19,11.18H147.91a11.17,11.17,0,0,0,11.18-11.18V35.21Z"/><path class="cls-2" d="M151.33,35.21V159.09a11.18,11.18,0,0,1-11.18,11.18h7.76a11.17,11.17,0,0,0,11.18-11.18V35.21Z"/><path class="cls-3" d="M70.49,133,26.85,89.31,11,105.12l43.64,43.64a2.7,2.7,0,0,0,1.91.79H59l12.29-12.28v-2.41a2.71,2.71,0,0,0-.79-1.91Z"/><path class="cls-4" d="M70.49,133,26.85,89.31,23,93.18l45.16,45.16a2.73,2.73,0,0,1,.73,1.34l2.42-2.41v-2.41a2.71,2.71,0,0,0-.79-1.91Z"/><path class="cls-2" d="M71.28,146.85v-12a2.75,2.75,0,0,0-.17-1L55.64,149.38a2.74,2.74,0,0,0,.94.17h12a2.7,2.7,0,0,0,2.7-2.7Z"/><path class="cls-5" d="M12.07,82.44l-7.9,7.91a5.57,5.57,0,0,0,0,7.9l7.9,7.91L27.89,90.35,20,82.44A5.6,5.6,0,0,0,12.07,82.44Z"/><path class="cls-6" d="M12.15,82.37a.27.27,0,0,1,.08.07L24,94.22l3.88-3.87L20,82.44a5.59,5.59,0,0,0-7.83-.07Z"/><path class="cls-7" d="M147.91,13.71H41.68A11.19,11.19,0,0,0,30.49,24.9V41.67h128.6V24.9A11.18,11.18,0,0,0,147.91,13.71Z"/><path class="cls-8" d="M147.91,13.71h-7.76A11.19,11.19,0,0,1,151.33,24.9V41.67h7.76V24.9A11.18,11.18,0,0,0,147.91,13.71Z"/><path class="cls-9" d="M47.27,19.31a5.59,5.59,0,0,0,11.18,0V8.12a5.59,5.59,0,0,0-11.18,0Z"/><path class="cls-9" d="M131.14,19.31a5.59,5.59,0,1,0,11.18,0V8.12a5.59,5.59,0,1,0-11.18,0Z"/><path class="cls-9" d="M75.22,19.31a5.6,5.6,0,0,0,11.19,0V8.12a5.6,5.6,0,0,0-11.19,0Z"/><path class="cls-9" d="M103.18,19.31a5.59,5.59,0,0,0,11.18,0V8.12a5.59,5.59,0,0,0-11.18,0Z"/><path class="cls-10" d="M136.73,2.53a5.56,5.56,0,0,0-3.88,1.57,5.59,5.59,0,0,1,1.71,4V19.31a5.6,5.6,0,0,1-1.71,4,5.59,5.59,0,0,0,9.47-4V8.12A5.59,5.59,0,0,0,136.73,2.53Z"/><path class="cls-10" d="M108.77,2.53a5.58,5.58,0,0,0-3.88,1.57,5.59,5.59,0,0,1,1.71,4V19.31a5.6,5.6,0,0,1-1.71,4,5.59,5.59,0,0,0,9.47-4V8.12A5.59,5.59,0,0,0,108.77,2.53Z"/><path class="cls-10" d="M80.82,2.53A5.6,5.6,0,0,0,76.93,4.1a5.55,5.55,0,0,1,1.71,4V19.31a5.56,5.56,0,0,1-1.71,4,5.59,5.59,0,0,0,9.48-4V8.12A5.59,5.59,0,0,0,80.82,2.53Z"/><path class="cls-10" d="M52.86,2.53A5.56,5.56,0,0,0,49,4.1a5.59,5.59,0,0,1,1.71,4V19.31a5.6,5.6,0,0,1-1.71,4,5.59,5.59,0,0,0,9.47-4V8.12A5.59,5.59,0,0,0,52.86,2.53Z"/><path class="cls-11" d="M147.91,11.18h-3.06V8.12a8.12,8.12,0,0,0-16.24,0v3.06H116.89V8.12a8.12,8.12,0,0,0-16.24,0v3.06H88.94V8.12a8.13,8.13,0,0,0-16.25,0v3.06H61V8.12a8.12,8.12,0,0,0-16.24,0v3.06H41.68A13.73,13.73,0,0,0,28,24.9V86.84l-6.19-6.19a8.13,8.13,0,0,0-11.49,0l-7.9,7.91a8.12,8.12,0,0,0,0,11.48L28,125.63v33.46A13.73,13.73,0,0,0,41.68,172.8h86.1a2.53,2.53,0,1,0,0-5.06H41.68A8.66,8.66,0,0,1,33,159.09v-28.4l20.65,20.65.19.17.14.1.06,0,.18.11,0,0,.2.09h0l.19.07,0,0,.19,0,0,0,.18,0H70.23l3.21,3.22A2.53,2.53,0,0,0,77,151.72l-3.21-3.22V133.74a2.09,2.09,0,0,0,0-.25.43.43,0,0,0,0-.05l0-.2s0,0,0,0a1.46,1.46,0,0,0,0-.2v0c0-.07,0-.13-.07-.2v0a1.24,1.24,0,0,0-.1-.2v0l-.11-.18,0-.06a1.71,1.71,0,0,0-.11-.14,1.54,1.54,0,0,0-.17-.19L52.42,111.3h87.1a2.54,2.54,0,1,0,0-5.07H50.06a2.52,2.52,0,0,0-1.87.84L33,91.9V44.2H156.56V61.47a2.54,2.54,0,0,0,5.07,0V24.9a13.74,13.74,0,0,0-13.72-13.72ZM68.75,147H61.58l7.17-7.17Zm-53.1-40.86L20,101.83l39.81,39.82L55.46,146Zm47.72,31.91L23.56,98.25l4.33-4.32L67.7,133.74ZM6,92.14l7.91-7.91a3.07,3.07,0,0,1,4.33,0l6.12,6.12-6.12,6.11h0l-6.12,6.12L6,96.46A3.05,3.05,0,0,1,6,92.14ZM136.73,5.06a3.07,3.07,0,0,1,3.06,3.06V19.31a3.06,3.06,0,1,1-6.12,0V13.72h0V8.12A3.07,3.07,0,0,1,136.73,5.06Zm-28,0a3.07,3.07,0,0,1,3.06,3.06V19.31a3.06,3.06,0,0,1-6.12,0V13.72h0V8.12A3.07,3.07,0,0,1,108.77,5.06Zm-31,3.06a3.06,3.06,0,0,1,6.12,0v5.59h0v5.59a3.06,3.06,0,0,1-6.12,0ZM52.86,5.06a3.07,3.07,0,0,1,3.06,3.06v5.59h0v5.59a3.06,3.06,0,1,1-6.12,0V13.72h0V8.12A3.07,3.07,0,0,1,52.86,5.06ZM33,39.14V24.9a8.67,8.67,0,0,1,8.66-8.65h3.06v3.06a8.12,8.12,0,0,0,16.24,0V16.25H72.69v3.06a8.13,8.13,0,0,0,16.25,0V16.25h11.71v3.06a8.13,8.13,0,0,0,16.25,0V16.25h11.71v3.06a8.12,8.12,0,0,0,16.24,0V16.25h3.06a8.66,8.66,0,0,1,8.65,8.65V39.14Z"/><path class="cls-11" d="M159.09,69.06a2.53,2.53,0,0,0-2.53,2.53v87.5a8.66,8.66,0,0,1-8.65,8.65h-10a2.53,2.53,0,0,0,0,5.06h10a13.73,13.73,0,0,0,13.72-13.71V71.59a2.54,2.54,0,0,0-2.54-2.53Z"/><path class="cls-11" d="M50.06,61h89.46a2.54,2.54,0,1,0,0-5.07H50.06a2.54,2.54,0,0,0,0,5.07Z"/><path class="cls-11" d="M50.06,77.75h89.46a2.53,2.53,0,1,0,0-5.06H50.06a2.53,2.53,0,0,0,0,5.06Z"/><path class="cls-11" d="M50.06,94.52h89.46a2.53,2.53,0,1,0,0-5.06H50.06a2.53,2.53,0,0,0,0,5.06Z"/><path class="cls-11" d="M142.06,125.54a2.54,2.54,0,0,0-2.54-2.53H80.82a2.53,2.53,0,1,0,0,5.06h58.7A2.54,2.54,0,0,0,142.06,125.54Z"/></g></g></svg>