<svg xmlns="http://www.w3.org/2000/svg" xmlns:xlink="http://www.w3.org/1999/xlink" viewBox="0 0 798.11 361.76"><defs><style>.cls-1{isolation:isolate;}.cls-2{fill:#cdd8ba;}.cls-3,.cls-4{fill:#38383a;}.cls-12,.cls-18,.cls-20,.cls-29,.cls-3,.cls-30,.cls-5,.cls-7,.cls-92,.cls-93,.cls-94{fill-rule:evenodd;}.cls-5,.cls-6{fill:#212121;}.cls-8{fill:#684846;}.cls-9{fill:#72716c;}.cls-10{fill:#8a616b;}.cls-11{fill:#4e3635;}.cls-12{fill:#636466;}.cls-13{fill:#323f49;}.cls-14,.cls-18,.cls-19,.cls-20,.cls-24,.cls-30,.cls-31,.cls-32,.cls-33,.cls-79,.cls-90{fill:none;}.cls-14,.cls-31{stroke:#a1a6ac;}.cls-14,.cls-18,.cls-19,.cls-20,.cls-24,.cls-30,.cls-31,.cls-32,.cls-33,.cls-79{stroke-miterlimit:10;}.cls-14,.cls-24{stroke-width:1.5px;}.cls-15{fill:#a1a6ac;}.cls-16,.cls-29{fill:#565551;}.cls-17,.cls-94{fill:#ed7500;}.cls-18,.cls-19{stroke:#636466;}.cls-18,.cls-19,.cls-20,.cls-30,.cls-32,.cls-33{stroke-width:2px;}.cls-20{stroke:#323f49;}.cls-21{fill:#33a498;}.cls-22{fill:#267b72;}.cls-23{fill:#85c8c1;}.cls-24{stroke:#636b74;}.cls-25{fill:#bfc1b9;}.cls-26{fill:#6d6666;}.cls-27{fill:#fff;}.cls-28{fill:#2a292d;}.cls-30{stroke:#565551;}.cls-31{stroke-width:20px;}.cls-32,.cls-33{stroke:#fff;}.cls-33{stroke-dasharray:12.02 8.01;}.cls-34{fill:#e0dfdd;}.cls-35{opacity:0.68;}.cls-36{fill:#b2b1b1;}.cls-37{fill:#ce2222;}.cls-38{fill:#a53620;}.cls-39{fill:#83a0a5;}.cls-40{fill:#ffca7a;}.cls-41{fill:#4e6c87;}.cls-42{fill:#95b6ba;}.cls-43{fill:#6e8689;}.cls-44{fill:#3e5668;}.cls-45{opacity:0.14;}.cls-46{fill:#d36837;}.cls-47{fill:#f2f1f0;}.cls-48{fill:#2aad94;}.cls-49{fill:#72c6dd;}.cls-50{fill:#2f3f60;}.cls-51{fill:#32ceb0;}.cls-52{fill:#381306;opacity:0.43;}.cls-53{fill:#43c4ab;}.cls-54{fill:#125b4d;}.cls-55{fill:#3f2112;opacity:0.45;}.cls-56{fill:#7cedd8;}.cls-57{fill:#5e0d07;opacity:0.26;}.cls-58{fill:#1ca086;}.cls-59{fill:#b2a9a6;}.cls-60{fill:#fff1f0;}.cls-61,.cls-62{fill:#3a1a08;}.cls-61{opacity:0.42;}.cls-63{fill:#dcfff8;}.cls-64{fill:#4c1f0d;}.cls-65{fill:#504168;}.cls-66{fill:#465989;}.cls-67{fill:#ffefee;}.cls-68{fill:#3d2d2d;}.cls-69{fill:#725c49;}.cls-70{fill:#2b1b1b;opacity:0.55;}.cls-71{fill:#0c6655;}.cls-72{fill:#93aa31;}.cls-73{fill:#262626;}.cls-74{fill:#e4e6e3;}.cls-75{fill:#d2d4d1;}.cls-76{fill:#9fa19e;}.cls-77{fill:url(#linear-gradient);}.cls-78{fill:url(#linear-gradient-2);}.cls-79{stroke:#101e21;stroke-width:0.25px;}.cls-79,.cls-90{stroke-linecap:round;}.cls-80{fill:url(#linear-gradient-3);}.cls-81{fill:url(#linear-gradient-4);}.cls-82{fill:#f9fbf8;}.cls-83{fill:#4e780a;}.cls-84{fill:#63990d;}.cls-85{fill:#a5aeb5;mix-blend-mode:screen;}.cls-86{fill:#141414;}.cls-87{fill:#6b6b6b;}.cls-88{fill:url(#linear-gradient-5);}.cls-89{fill:url(#linear-gradient-6);}.cls-90{stroke:#6fc9c8;stroke-linejoin:round;stroke-width:4px;}.cls-91{fill:#262f37;}.cls-92{fill:#b25800;}.cls-93,.cls-95{fill:#db5500;}.cls-96{fill:#354e72;}.cls-97{fill:#00877a;}</style><linearGradient id="linear-gradient" x1="218.18" y1="317.81" x2="218.18" y2="331.03" gradientUnits="userSpaceOnUse"><stop offset="0" stop-color="#63990d"/><stop offset="0.99" stop-color="#aaca11"/></linearGradient><linearGradient id="linear-gradient-2" x1="216.45" y1="316.76" x2="216.45" y2="329.63" xlink:href="#linear-gradient"/><linearGradient id="linear-gradient-3" x1="315.08" y1="317.81" x2="315.08" y2="331.03" xlink:href="#linear-gradient"/><linearGradient id="linear-gradient-4" x1="313.35" y1="316.76" x2="313.35" y2="329.63" xlink:href="#linear-gradient"/><linearGradient id="linear-gradient-5" x1="248.42" y1="307.51" x2="248.42" y2="320.73" xlink:href="#linear-gradient"/><linearGradient id="linear-gradient-6" x1="246.69" y1="306.46" x2="246.69" y2="319.33" xlink:href="#linear-gradient"/></defs><g class="cls-1"><g id="Capa_2" data-name="Capa 2"><g id="Capa_1-2" data-name="Capa 1"><path class="cls-2" d="M392.8,97.06H369a14.93,14.93,0,0,1-14.93-14.92V75.89A16.16,16.16,0,0,0,338,59.77H179.87a16.17,16.17,0,0,0-16.13,16.12v6.25a14.92,14.92,0,0,1-14.92,14.92H58.91a16.17,16.17,0,0,0-16.12,16.12v90.75a16.18,16.18,0,0,0,16.12,16.12H72.2A14.92,14.92,0,0,1,87.12,235v10.75a16.17,16.17,0,0,0,16.12,16.12h0a14.92,14.92,0,0,1,14.92,14.92v4.82a14.92,14.92,0,0,1-14.92,14.92H88.56a16.17,16.17,0,0,0-16.12,16.12v31.7a16.17,16.17,0,0,0,16.12,16.12H392.8a16.17,16.17,0,0,0,16.12-16.12V113.18A16.16,16.16,0,0,0,392.8,97.06Z"/><polygon class="cls-3" points="77.47 26.22 60.33 35.76 60.33 37.51 77.47 27.97 77.47 26.22"/><polygon class="cls-3" points="60.33 26.22 77.47 35.76 77.47 37.51 60.33 27.97 60.33 26.22"/><polygon class="cls-3" points="75.51 15.82 62.11 25.23 62.11 26.98 75.69 17.44 75.69 16.76 75.51 15.82"/><polygon class="cls-3" points="62.29 15.82 75.69 25.23 75.69 26.98 62.11 17.44 62.11 16.76 62.29 15.82"/><polygon class="cls-3" points="79.53 36.87 57.84 48.59 57.84 50.46 79.85 38.56 79.53 36.87"/><polygon class="cls-3" points="58.26 36.87 79.95 48.59 79.95 50.46 57.94 38.56 58.26 36.87"/><polygon class="cls-3" points="73.46 3.57 64.33 14.51 64.33 16.26 73.46 5.32 73.46 3.57"/><polygon class="cls-3" points="64.33 3.57 73.46 14.51 73.46 16.26 64.33 5.32 64.33 3.57"/><rect class="cls-4" x="61.52" y="25.49" width="14.75" height="1.75"/><rect class="cls-4" x="62.75" y="15.12" width="12.29" height="1.75"/><rect class="cls-4" x="59.54" y="36.34" width="18.71" height="1.75"/><rect class="cls-4" x="57.49" y="48.7" width="22.81" height="1.75"/><polygon class="cls-3" points="64.8 2.64 72.99 2.64 82.28 51.27 79.6 51.27 71.27 5.06 66.4 5.06 58.12 51.27 55.51 51.27 64.8 2.64"/><polygon class="cls-5" points="77.47 26.22 68.9 30.99 68.9 32.74 77.47 27.97 77.47 26.22"/><polygon class="cls-5" points="68.9 30.99 77.47 35.76 77.47 37.51 68.9 32.74 68.9 30.99"/><polygon class="cls-5" points="75.51 15.82 68.9 20.46 68.9 22.21 75.69 17.44 75.69 16.76 75.51 15.82"/><polygon class="cls-5" points="68.9 20.46 75.69 25.23 75.69 26.98 68.9 22.21 68.9 20.46"/><polygon class="cls-5" points="79.53 36.87 68.9 42.61 68.9 44.48 79.85 38.56 79.53 36.87"/><polygon class="cls-5" points="68.9 42.61 79.95 48.59 79.95 50.46 68.9 44.48 68.9 42.61"/><polygon class="cls-5" points="73.46 3.57 68.9 9.04 68.9 10.79 73.46 5.32 73.46 3.57"/><polygon class="cls-5" points="68.9 9.04 73.46 14.51 73.46 16.26 68.9 10.79 68.9 9.04"/><rect class="cls-6" x="68.9" y="25.49" width="7.37" height="1.75"/><rect class="cls-6" x="68.9" y="15.12" width="6.15" height="1.75"/><rect class="cls-6" x="68.9" y="36.34" width="9.35" height="1.75"/><rect class="cls-6" x="68.9" y="48.7" width="11.4" height="1.75"/><polygon class="cls-5" points="68.9 2.64 72.99 2.64 82.28 51.27 79.6 51.27 71.27 5.06 68.9 5.06 68.9 2.64"/><rect class="cls-6" x="63.39" width="11.01" height="4.33" rx="0.36"/><path class="cls-7" d="M68.9,0H74a.36.36,0,0,1,.36.36V4a.36.36,0,0,1-.36.36H68.9Z"/><rect class="cls-8" x="160.46" y="138.77" width="3.25" height="21.12"/><rect class="cls-8" x="171.52" y="138.77" width="3.25" height="21.12"/><circle class="cls-9" cx="167.61" cy="126.47" r="17.46"/><rect class="cls-8" x="146.17" y="121.21" width="42.89" height="7.15"/><rect class="cls-10" x="146.17" y="123" width="42.89" height="3.57"/><rect class="cls-8" x="149.36" y="128.36" width="4.85" height="31.53"/><rect class="cls-8" x="181.02" y="128.36" width="4.85" height="31.53"/><rect class="cls-11" x="149.36" y="128.36" width="4.85" height="4.21"/><rect class="cls-11" x="181.02" y="128.36" width="4.85" height="4.21"/><path class="cls-12" d="M123.92,124.72v-1.11h-5.44v1.11h-6a1.07,1.07,0,0,0-1.07,1.06v34.6H129v-34.6a1.07,1.07,0,0,0-1.06-1.06Z"/><path class="cls-13" d="M84.31,134.42h31.32a1.06,1.06,0,0,1,1.06,1.06v24.89a0,0,0,0,1,0,0H83.24a0,0,0,0,1,0,0V135.49A1.06,1.06,0,0,1,84.31,134.42Z"/><line class="cls-14" x1="120.22" y1="138.29" x2="120.22" y2="160.38"/><line class="cls-14" x1="125.2" y1="141.04" x2="120.22" y2="141.04"/><line class="cls-14" x1="125.2" y1="144.36" x2="120.22" y2="144.36"/><line class="cls-14" x1="125.2" y1="147.68" x2="120.22" y2="147.68"/><line class="cls-14" x1="125.2" y1="151" x2="120.22" y2="151"/><line class="cls-14" x1="125.2" y1="154.32" x2="120.22" y2="154.32"/><line class="cls-14" x1="125.2" y1="157.64" x2="120.22" y2="157.64"/><line class="cls-14" x1="125.2" y1="138.29" x2="125.2" y2="160.38"/><path class="cls-15" d="M101.5,155.17a6.12,6.12,0,0,0-1.45-7.72h0v0a4.48,4.48,0,0,1-.16,3.59l-.39.78-.12-.86a3.67,3.67,0,0,0-.64-1.63h0l0-.08a6.38,6.38,0,0,1-.56,2.61,3.68,3.68,0,0,0,.2,3.37l.41.7-.75-.32a5,5,0,0,1-2.45-7.05,7.35,7.35,0,0,0,.78-2.14l.14-.72.36.64a3.87,3.87,0,0,1,.37,1h0v.05h0a9.2,9.2,0,0,0,1.8-5l0-.46.39.25a7,7,0,0,1,3,4.56v0h0v0a2.33,2.33,0,0,0,.48-1.41v-.8l.48.64a8,8,0,0,1,1.61,5.15,6.09,6.09,0,0,1-3.17,5.13L101,156Z"/><path class="cls-16" d="M209.66,157.94l7.09-8.66h-3.4l-5.07,6.65v-6.65H204v6.64l-5.08-6.64h-3.4l7.09,8.66a7.29,7.29,0,0,0-2,1.75h11.15A7.34,7.34,0,0,0,209.66,157.94Z"/><path class="cls-17" d="M220.83,147.48a1.8,1.8,0,0,1-1.8,1.8H193.24a1.8,1.8,0,0,1-1.8-1.8h0a1.8,1.8,0,0,1,1.8-1.79H219a1.8,1.8,0,0,1,1.8,1.79Z"/><path class="cls-17" d="M213.33,162.08a1.23,1.23,0,0,1-1.23,1.23H200.17a1.24,1.24,0,0,1-1.24-1.23h0a1.24,1.24,0,0,1,1.24-1.24H212.1a1.23,1.23,0,0,1,1.23,1.24Z"/><rect class="cls-13" x="81.03" y="109.98" width="69.13" height="2"/><path class="cls-18" d="M83.24,142.37H68.69a1.83,1.83,0,0,0-1.83,1.83v22.25a1.83,1.83,0,0,0,1.83,1.83h5.14a1.82,1.82,0,0,0,1.83-1.83V149.88a1.83,1.83,0,0,1,1.83-1.83h5.75"/><path class="cls-18" d="M129,137.84h3.59a2.09,2.09,0,0,1,2.09,2.09v24.84"/><path class="cls-18" d="M165.35,333.75v8.13a2.08,2.08,0,0,0,2.09,2.09H326.71"/><path class="cls-18" d="M255.26,94.87h3.58A2.09,2.09,0,0,1,260.93,97v24.85"/><line class="cls-19" x1="142.33" y1="111.98" x2="142.33" y2="132.57"/><path class="cls-20" d="M153,165.41H83.5a2,2,0,0,0-2,2v0a2,2,0,0,0,2,2h70.69a2,2,0,0,1,2,2v0a2,2,0,0,1-2,2H83.5a2,2,0,0,0-2,2v0a2,2,0,0,0,2,2h70.69a2,2,0,0,1,2,2v0a2,2,0,0,1-2,2H83.5a2,2,0,0,0-2,2h0a2,2,0,0,0,2,2h19.58a2,2,0,0,1,2,2v9a2,2,0,0,0,2,2h62"/><path class="cls-20" d="M279.36,121.81H209.9a2,2,0,0,0-2,2v0a2,2,0,0,0,2,2h70.69a2,2,0,0,1,2,2v0a2,2,0,0,1-2,2H209.9a2,2,0,0,0-2,2v0a2,2,0,0,0,2,2h70.69a2,2,0,0,1,2,2v0a2,2,0,0,1-2,2H209.9a2,2,0,0,0-2,2h0a2,2,0,0,0,2,2h19.58a2,2,0,0,1,2,2v21.16"/><path class="cls-21" d="M288,100.73a22.57,22.57,0,0,0,17.27,0V78.38a29.22,29.22,0,0,0-17.27,0Z"/><path class="cls-22" d="M288,78.38a29.22,29.22,0,0,1,17.27,0v-3a22.57,22.57,0,0,0-17.27,0Z"/><path class="cls-22" d="M288,84.64a80.41,80.41,0,0,1,17.27,0v-3a43.29,43.29,0,0,0-17.27,0Z"/><path class="cls-23" d="M288,98.06a28.14,28.14,0,0,0,17.27,0V95A39.92,39.92,0,0,1,288,95Z"/><path class="cls-21" d="M269.44,100.73a22.59,22.59,0,0,0,17.28,0V78.38a29.25,29.25,0,0,0-17.28,0Z"/><path class="cls-22" d="M269.44,78.38a29.25,29.25,0,0,1,17.28,0v-3a22.59,22.59,0,0,0-17.28,0Z"/><path class="cls-22" d="M269.44,84.64a80.5,80.5,0,0,1,17.28,0v-3a43.34,43.34,0,0,0-17.28,0Z"/><path class="cls-23" d="M269.44,98.06a28.17,28.17,0,0,0,17.28,0V95a40,40,0,0,1-17.28,0Z"/><path class="cls-21" d="M250.89,100.73a22.59,22.59,0,0,0,17.28,0V78.38a29.25,29.25,0,0,0-17.28,0Z"/><path class="cls-22" d="M250.89,78.38a29.25,29.25,0,0,1,17.28,0v-3a22.59,22.59,0,0,0-17.28,0Z"/><path class="cls-22" d="M250.89,84.64a80.5,80.5,0,0,1,17.28,0v-3a43.34,43.34,0,0,0-17.28,0Z"/><path class="cls-23" d="M250.89,98.06a28.17,28.17,0,0,0,17.28,0V95a40,40,0,0,1-17.28,0Z"/><rect class="cls-22" x="268.17" y="75.35" width="1.28" height="1.73"/><rect class="cls-22" x="268.17" y="82.91" width="1.28" height="1.73"/><rect class="cls-22" x="286.72" y="75.35" width="1.28" height="1.73"/><rect class="cls-22" x="286.72" y="82.91" width="1.28" height="1.73"/><rect class="cls-22" x="305.27" y="75.35" width="1.28" height="1.73"/><rect class="cls-22" x="306.55" y="74.39" width="1.81" height="27.77"/><rect class="cls-22" x="247.8" y="74.39" width="1.81" height="27.77"/><rect class="cls-22" x="305.27" y="82.91" width="1.28" height="1.73"/><rect class="cls-22" x="249.61" y="75.35" width="1.28" height="1.73"/><rect class="cls-22" x="249.61" y="82.91" width="1.28" height="1.73"/><path class="cls-21" d="M229.25,100.73a22.59,22.59,0,0,0,17.28,0V78.38a29.25,29.25,0,0,0-17.28,0Z"/><path class="cls-22" d="M229.25,78.38a29.25,29.25,0,0,1,17.28,0v-3a22.59,22.59,0,0,0-17.28,0Z"/><path class="cls-22" d="M229.25,84.64a80.5,80.5,0,0,1,17.28,0v-3a43.34,43.34,0,0,0-17.28,0Z"/><path class="cls-23" d="M229.25,98.06a28.17,28.17,0,0,0,17.28,0V95a40,40,0,0,1-17.28,0Z"/><path class="cls-21" d="M210.7,100.73a22.59,22.59,0,0,0,17.28,0V78.38a29.25,29.25,0,0,0-17.28,0Z"/><path class="cls-22" d="M210.7,78.38a29.25,29.25,0,0,1,17.28,0v-3a22.59,22.59,0,0,0-17.28,0Z"/><path class="cls-22" d="M210.7,84.64a80.5,80.5,0,0,1,17.28,0v-3a43.34,43.34,0,0,0-17.28,0Z"/><path class="cls-23" d="M210.7,98.06a28.17,28.17,0,0,0,17.28,0V95a40,40,0,0,1-17.28,0Z"/><path class="cls-21" d="M192.14,100.73a22.59,22.59,0,0,0,17.28,0V78.38a29.25,29.25,0,0,0-17.28,0Z"/><path class="cls-22" d="M192.14,78.38a29.25,29.25,0,0,1,17.28,0v-3a22.59,22.59,0,0,0-17.28,0Z"/><path class="cls-22" d="M192.14,84.64a80.5,80.5,0,0,1,17.28,0v-3a43.34,43.34,0,0,0-17.28,0Z"/><path class="cls-23" d="M192.14,98.06a28.17,28.17,0,0,0,17.28,0V95a40,40,0,0,1-17.28,0Z"/><rect class="cls-22" x="209.42" y="75.35" width="1.28" height="1.73"/><rect class="cls-22" x="209.42" y="82.91" width="1.28" height="1.73"/><rect class="cls-22" x="227.98" y="75.35" width="1.28" height="1.73"/><rect class="cls-22" x="227.98" y="82.91" width="1.28" height="1.73"/><rect class="cls-22" x="246.53" y="75.35" width="1.28" height="1.73"/><rect class="cls-22" x="247.8" y="74.39" width="1.81" height="27.77"/><rect class="cls-22" x="189.06" y="74.39" width="1.81" height="27.77"/><rect class="cls-22" x="246.53" y="82.91" width="1.28" height="1.73"/><rect class="cls-22" x="190.87" y="75.35" width="1.28" height="1.73"/><rect class="cls-22" x="190.87" y="82.91" width="1.28" height="1.73"/><path class="cls-12" d="M249.52,82.52V81.41h-5.45v1.11h-6A1.06,1.06,0,0,0,237,83.58v34.6h17.62V83.58a1.05,1.05,0,0,0-1.06-1.06Z"/><path class="cls-13" d="M209.9,92.22h31.32a1.06,1.06,0,0,1,1.06,1.06v24.89a0,0,0,0,1,0,0H208.83a0,0,0,0,1,0,0V93.28A1.06,1.06,0,0,1,209.9,92.22Z"/><line class="cls-24" x1="229.69" y1="96.09" x2="229.69" y2="118.18"/><line class="cls-24" x1="234.66" y1="98.84" x2="229.69" y2="98.84"/><line class="cls-24" x1="234.66" y1="102.16" x2="229.69" y2="102.16"/><line class="cls-24" x1="234.66" y1="105.47" x2="229.69" y2="105.47"/><line class="cls-24" x1="234.66" y1="108.79" x2="229.69" y2="108.79"/><line class="cls-24" x1="234.66" y1="112.11" x2="229.69" y2="112.11"/><line class="cls-24" x1="234.66" y1="115.43" x2="229.69" y2="115.43"/><line class="cls-24" x1="234.66" y1="96.09" x2="234.66" y2="118.18"/><path class="cls-20" d="M262.56,137.64V156a3.25,3.25,0,0,1-3.26,3.25H231.44"/><path class="cls-20" d="M247.75,175.62v19.09a3.32,3.32,0,0,1-3.26,3.38H216.63"/><path class="cls-18" d="M189.06,126.57h9.71a3.44,3.44,0,0,0,3.43-3.43V109.86a3.43,3.43,0,0,1,3.43-3.43h3.2"/><rect class="cls-25" x="178.28" y="189.62" width="1.1" height="14.86"/><rect class="cls-26" x="179.38" y="189.62" width="1.1" height="14.86"/><rect class="cls-26" x="183.91" y="204.48" width="53.69" height="1.61"/><polygon class="cls-25" points="230.15 205.35 183 205.36 183 209.62 232.66 209.62 230.15 205.35"/><path class="cls-27" d="M177.57,192.52h-9.94l-4.17,7v9.27h2.93a4.63,4.63,0,0,1,9.22,0h2Z"/><polygon class="cls-28" points="167.34 194.24 164.61 199.43 173.95 199.43 173.95 194.24 167.34 194.24"/><path class="cls-28" d="M167.93,194.31s-.17-.07-.37-.07h-3.08c-.12,0-.15,0-.15.07v4.32c0,.11,0,.14.08.14h.64c.2,0,.36,0,.36-.07s-.16-.07-.36-.07h-.21a.36.36,0,0,1-.36-.37v-3.51a.36.36,0,0,1,.36-.37h2.72C167.76,194.38,167.93,194.35,167.93,194.31Z"/><path class="cls-26" d="M163.66,195.66v1.86a.75.75,0,0,0,.75.75v-3.36A.74.74,0,0,0,163.66,195.66Z"/><path class="cls-28" d="M165.15,197.53v-1.87a.74.74,0,0,0-.74-.75v3.36A.74.74,0,0,0,165.15,197.53Z"/><path class="cls-28" d="M174,201a.37.37,0,0,1-.38.37h-2.19A.37.37,0,0,1,171,201a.38.38,0,0,1,.38-.38h2.19A.38.38,0,0,1,174,201Z"/><path class="cls-26" d="M164,205.83h2.77v3.79H164a1.9,1.9,0,0,1,0-3.79Z"/><path class="cls-26" d="M169,209.27a2,2,0,0,1,2-2v-1.88a4,4,0,1,0,0,8.06V211.3A2,2,0,0,1,169,209.27Z"/><path class="cls-27" d="M169,209.27a2,2,0,0,0,2,2v-4.06A2,2,0,0,0,169,209.27Z"/><path class="cls-28" d="M175,209.38a4,4,0,0,0-4-4v1.88a2,2,0,0,1,0,4.06v2.12A4,4,0,0,0,175,209.38Z"/><path class="cls-25" d="M173,209.27a2,2,0,0,0-2-2v4.06A2,2,0,0,0,173,209.27Z"/><path class="cls-26" d="M193.05,209.27a2,2,0,0,1,2-2v-1.89a4,4,0,0,0,0,8.07V211.3A2,2,0,0,1,193.05,209.27Z"/><path class="cls-27" d="M193.05,209.27a2,2,0,0,0,2,2v-4.06A2,2,0,0,0,193.05,209.27Z"/><path class="cls-28" d="M199.12,209.39a4,4,0,0,0-4-4v1.89a2,2,0,1,1,0,4.06v2.12A4,4,0,0,0,199.12,209.39Z"/><path class="cls-25" d="M197.12,209.27a2,2,0,0,0-2-2v4.06A2,2,0,0,0,197.12,209.27Z"/><path class="cls-26" d="M202.22,209.27a2,2,0,0,1,2-2v-1.89a4,4,0,0,0,0,8.07V211.3A2,2,0,0,1,202.22,209.27Z"/><path class="cls-27" d="M202.22,209.27a2,2,0,0,0,2,2v-4.06A2,2,0,0,0,202.22,209.27Z"/><path class="cls-28" d="M208.28,209.39a4,4,0,0,0-4-4v1.89a2,2,0,0,1,0,4.06v2.12A4,4,0,0,0,208.28,209.39Z"/><path class="cls-25" d="M206.28,209.27a2,2,0,0,0-2-2v4.06A2,2,0,0,0,206.28,209.27Z"/><polygon class="cls-28" points="209.17 207.81 209.77 207.23 206.27 203.65 192.33 203.65 188.81 207.23 189.41 207.81 192.67 204.48 205.91 204.48 209.17 207.81"/><path class="cls-26" d="M218.32,209.27a2,2,0,0,1,2-2v-1.89a4,4,0,1,0,0,8.07V211.3A2,2,0,0,1,218.32,209.27Z"/><path class="cls-27" d="M218.32,209.27a2,2,0,0,0,2,2v-4.06A2,2,0,0,0,218.32,209.27Z"/><path class="cls-28" d="M224.38,209.39a4,4,0,0,0-4-4v1.89a2,2,0,0,1,0,4.06v2.12A4,4,0,0,0,224.38,209.39Z"/><path class="cls-25" d="M222.38,209.27a2,2,0,0,0-2-2v4.06A2,2,0,0,0,222.38,209.27Z"/><path class="cls-26" d="M227.48,209.27a2,2,0,0,1,2-2v-1.89a4,4,0,1,0,0,8.07V211.3A2,2,0,0,1,227.48,209.27Z"/><path class="cls-27" d="M227.48,209.27a2,2,0,0,0,2,2v-4.06A2,2,0,0,0,227.48,209.27Z"/><path class="cls-28" d="M233.55,209.39a4,4,0,0,0-4-4v1.89a2,2,0,0,1,0,4.06v2.12A4,4,0,0,0,233.55,209.39Z"/><path class="cls-25" d="M231.54,209.27a2,2,0,0,0-2-2v4.06A2,2,0,0,0,231.54,209.27Z"/><polygon class="cls-28" points="234.44 207.81 235.03 207.23 231.53 203.65 217.59 203.65 214.07 207.23 214.67 207.81 217.93 204.48 231.17 204.48 234.44 207.81"/><rect class="cls-26" x="175.33" y="205.83" width="7.67" height="3.79"/><rect class="cls-28" x="188.35" y="189.61" width="5.16" height="1.07"/><path class="cls-28" d="M235,196.66c0-3.3-1.21-6-8-6H190.51c-6.78,0-8.63,2.57-8.63,5.87v.5H235Z"/><path class="cls-28" d="M190.51,203.64H227c6.78,0,8-3.3,8-6.6H181.88v.5C181.88,200.85,183.73,203.64,190.51,203.64Z"/><path class="cls-28" d="M166.73,209.37a4.27,4.27,0,0,1,8.54,0,2.09,2.09,0,0,1,0,.25h1.65c0-.08,0-.17,0-.25a5.92,5.92,0,1,0-11.84,0c0,.08,0,.17,0,.25h1.66A2,2,0,0,1,166.73,209.37Z"/><rect class="cls-28" x="177.57" y="204.48" width="6.81" height="6.54"/><path class="cls-26" d="M179.38,200.38a2.05,2.05,0,1,0,0,4.1Z"/><path class="cls-28" d="M181.43,202.43a2.05,2.05,0,0,0-2.05-2.05v4.1A2.05,2.05,0,0,0,181.43,202.43Z"/><path class="cls-29" d="M351.45,164.68H214.88a11.33,11.33,0,0,0-.87-1.19,2.38,2.38,0,0,1-1.91,1H200.17a2.38,2.38,0,0,1-1.91-1,10.07,10.07,0,0,0-.87,1.19H180.24a5.47,5.47,0,1,0,0,10.94h17.15a10.31,10.31,0,0,0,17.49,0H338.33V341.67H326.58V346h12.77a3.32,3.32,0,0,0,3.31-3.32V219.92h8.17a3.06,3.06,0,0,0,3.07-3.06V167.12A2.45,2.45,0,0,0,351.45,164.68Zm-1.89,50.9h-6.9V173.73a2.45,2.45,0,0,0-2.44-2.45H275.84a1.13,1.13,0,0,1-1.13-1.13h0a1.14,1.14,0,0,1,1.13-1.14h73.72Z"/><rect class="cls-8" x="187.38" y="161.5" width="4.06" height="17.31"/><rect class="cls-8" x="220.83" y="161.5" width="4.06" height="17.31"/><rect class="cls-8" x="258.91" y="161.5" width="4.06" height="17.31"/><path class="cls-30" d="M253.35,175.62v4.9a3.78,3.78,0,0,0,3.78,3.78h17.58"/><circle class="cls-9" cx="281.23" cy="196.02" r="17.46"/><rect class="cls-8" x="259.78" y="190.75" width="42.89" height="7.15"/><rect class="cls-10" x="259.78" y="192.54" width="42.89" height="3.57"/><rect class="cls-8" x="262.97" y="197.9" width="4.85" height="20.08"/><rect class="cls-8" x="294.63" y="197.9" width="4.85" height="20.08"/><rect class="cls-11" x="262.97" y="197.9" width="4.85" height="4.21"/><rect class="cls-11" x="294.63" y="197.9" width="4.85" height="4.21"/><path class="cls-31" d="M291,139.78h65.7a17.28,17.28,0,0,1,17.28,17.28V344.64"/><line class="cls-32" x1="290.96" y1="139.78" x2="296.96" y2="139.78"/><path class="cls-33" d="M305,139.78h51.69a17.28,17.28,0,0,1,17.28,17.28V334.64"/><line class="cls-32" x1="373.94" y1="338.64" x2="373.94" y2="344.64"/><rect class="cls-25" x="337.65" y="120.8" width="1.1" height="14.86"/><rect class="cls-26" x="336.54" y="120.8" width="1.1" height="14.86"/><rect class="cls-26" x="304.77" y="135.66" width="28.35" height="1.61"/><polygon class="cls-25" points="313.11 136.53 334.03 136.53 334.03 140.8 311.99 140.8 313.11 136.53"/><path class="cls-27" d="M339.45,123.7h9.94l4.17,7V140h-2.93a4.63,4.63,0,0,0-9.22,0h-2Z"/><polygon class="cls-28" points="349.68 125.42 352.42 130.61 343.07 130.61 343.08 125.42 349.68 125.42"/><path class="cls-28" d="M349.1,125.49s.16-.08.36-.08h3.09c.11,0,.14,0,.14.08v4.32c0,.11,0,.14-.07.14H352c-.2,0-.36,0-.36-.07s.16-.07.36-.07h.21a.38.38,0,0,0,.37-.37v-3.51a.36.36,0,0,0-.36-.37h-2.72C349.26,125.56,349.1,125.53,349.1,125.49Z"/><path class="cls-26" d="M353.36,126.83v1.87a.75.75,0,0,1-.74.75v-3.36A.74.74,0,0,1,353.36,126.83Z"/><path class="cls-28" d="M351.87,128.7v-1.87a.75.75,0,0,1,.75-.74v3.36A.76.76,0,0,1,351.87,128.7Z"/><path class="cls-28" d="M343.08,132.22a.36.36,0,0,0,.37.37h2.2a.38.38,0,0,0,0-.75h-2.2A.37.37,0,0,0,343.08,132.22Z"/><path class="cls-26" d="M353.05,137h-2.77v3.79h2.77a1.9,1.9,0,0,0,0-3.79Z"/><path class="cls-26" d="M348.05,140.45a2,2,0,0,0-2-2v-1.89a4,4,0,0,1,0,8.07v-2.12A2,2,0,0,0,348.05,140.45Z"/><path class="cls-27" d="M348.05,140.45a2,2,0,0,1-2,2v-4.06A2,2,0,0,1,348.05,140.45Z"/><path class="cls-28" d="M342,140.56a4,4,0,0,1,4-4v1.89a2,2,0,1,0,0,4.06v2.12A4,4,0,0,1,342,140.56Z"/><path class="cls-25" d="M344,140.45a2,2,0,0,1,2-2v4.06A2,2,0,0,1,344,140.45Z"/><path class="cls-26" d="M324,140.45a2,2,0,0,0-2-2v-1.89a4,4,0,0,1,0,8.07v-2.12A2,2,0,0,0,324,140.45Z"/><path class="cls-27" d="M324,140.45a2,2,0,0,1-2,2v-4.06A2,2,0,0,1,324,140.45Z"/><path class="cls-28" d="M317.91,140.57a4,4,0,0,1,4-4v1.89a2,2,0,1,0,0,4.06v2.12A4,4,0,0,1,317.91,140.57Z"/><path class="cls-25" d="M319.91,140.45a2,2,0,0,1,2-2v4.06A2,2,0,0,1,319.91,140.45Z"/><path class="cls-26" d="M314.8,140.45a2,2,0,0,0-2-2v-1.89a4,4,0,0,1,0,8.07v-2.12A2,2,0,0,0,314.8,140.45Z"/><path class="cls-27" d="M314.8,140.45a2,2,0,0,1-2,2v-4.06A2,2,0,0,1,314.8,140.45Z"/><path class="cls-28" d="M308.74,140.57a4,4,0,0,1,4-4v1.89a2,2,0,1,0,0,4.06v2.12A4,4,0,0,1,308.74,140.57Z"/><path class="cls-25" d="M310.74,140.45a2,2,0,0,1,2-2v4.06A2,2,0,0,1,310.74,140.45Z"/><polygon class="cls-28" points="307.85 138.99 307.26 138.41 310.75 134.82 324.7 134.82 328.21 138.41 327.62 138.99 324.35 135.66 311.12 135.66 307.85 138.99"/><rect class="cls-26" x="334.03" y="137.01" width="7.67" height="3.79"/><rect class="cls-28" x="323.52" y="120.79" width="5.16" height="1.07"/><path class="cls-27" d="M301.29,127.84c0-3.3.77-6,5.09-6h23.26c4.32,0,5.5,2.56,5.5,5.87v.5H301.29Z"/><path class="cls-28" d="M329.64,134.82H306.38c-4.32,0-5.09-3.3-5.09-6.6h33.85v.5C335.14,132,334,134.82,329.64,134.82Z"/><path class="cls-28" d="M350.29,140.55a4.27,4.27,0,0,0-8.54,0c0,.08,0,.17,0,.25h-1.65c0-.08,0-.17,0-.25a5.92,5.92,0,0,1,11.84,0c0,.08,0,.17,0,.25h-1.65C350.28,140.72,350.29,140.64,350.29,140.55Z"/><rect class="cls-28" x="332.65" y="135.66" width="6.81" height="6.54"/><path class="cls-26" d="M337.65,131.56a2,2,0,1,1,0,4.1Z"/><path class="cls-28" d="M335.59,133.61a2.06,2.06,0,0,1,2.06-2.06v4.11A2.05,2.05,0,0,1,335.59,133.61Z"/><polygon class="cls-34" points="175.3 313.06 168.8 313.06 170.13 291.69 174.33 291.69 175.3 313.06"/><g class="cls-35"><polygon class="cls-36" points="173.31 291.69 173.31 311.81 175.2 311.81 174.33 291.69 173.31 291.69"/></g><polygon class="cls-37" points="174.58 297.27 169.78 297.27 169.95 294.63 174.46 294.63 174.58 297.27"/><polygon class="cls-37" points="174.89 304.12 169.36 304.12 169.52 301.47 174.77 301.47 174.89 304.12"/><polygon class="cls-37" points="175.2 310.96 168.93 310.96 169.1 308.31 175.08 308.31 175.2 310.96"/><polygon class="cls-38" points="173.31 294.63 173.31 297.27 174.58 297.27 174.46 294.63 173.31 294.63"/><polygon class="cls-38" points="173.31 301.47 173.31 304.12 174.89 304.12 174.77 301.47 173.31 301.47"/><polygon class="cls-38" points="173.31 308.31 173.31 310.93 175.2 310.96 175.08 308.31 173.31 308.31"/><polygon class="cls-34" points="166.29 313.06 159.8 313.06 161.13 291.69 165.32 291.69 166.29 313.06"/><g class="cls-35"><polygon class="cls-36" points="164.31 291.69 164.31 311.81 166.2 311.81 165.32 291.69 164.31 291.69"/></g><polygon class="cls-37" points="165.58 297.27 160.78 297.27 160.94 294.63 165.46 294.63 165.58 297.27"/><polygon class="cls-37" points="165.89 304.12 160.35 304.12 160.52 301.47 165.77 301.47 165.89 304.12"/><polygon class="cls-37" points="166.2 310.96 159.93 310.96 160.09 308.31 166.08 308.31 166.2 310.96"/><polygon class="cls-38" points="164.31 294.63 164.31 297.27 165.58 297.27 165.46 294.63 164.31 294.63"/><polygon class="cls-38" points="164.31 301.47 164.31 304.12 165.89 304.12 165.77 301.47 164.31 301.47"/><polygon class="cls-38" points="164.31 308.31 164.31 310.93 166.2 310.96 166.08 308.31 164.31 308.31"/><polygon class="cls-34" points="156.89 313.06 150.39 313.06 151.72 291.69 155.92 291.69 156.89 313.06"/><g class="cls-35"><polygon class="cls-36" points="154.9 291.69 154.9 311.81 156.79 311.81 155.92 291.69 154.9 291.69"/></g><polygon class="cls-37" points="156.17 297.27 151.37 297.27 151.54 294.63 156.05 294.63 156.17 297.27"/><polygon class="cls-37" points="156.48 304.12 150.95 304.12 151.11 301.47 156.36 301.47 156.48 304.12"/><polygon class="cls-37" points="156.79 310.96 150.52 310.96 150.69 308.31 156.67 308.31 156.79 310.96"/><polygon class="cls-38" points="154.9 294.63 154.9 297.27 156.17 297.27 156.05 294.63 154.9 294.63"/><polygon class="cls-38" points="154.9 301.47 154.9 304.12 156.48 304.12 156.36 301.47 154.9 301.47"/><polygon class="cls-38" points="154.9 308.31 154.9 310.93 156.79 310.96 156.67 308.31 154.9 308.31"/><rect class="cls-39" x="136.14" y="312.43" width="40.39" height="21.28"/><rect class="cls-39" x="122.91" y="318.07" width="13.23" height="15.65"/><path class="cls-34" d="M164.93,313.06h0Z"/><path class="cls-34" d="M174.18,313.06h0Z"/><rect class="cls-40" x="190.33" y="308.12" width="15.2" height="26"/><rect class="cls-36" x="176.52" y="316.13" width="13.8" height="5"/><rect class="cls-39" x="135.1" y="311.81" width="42.48" height="1.25"/><rect class="cls-41" x="137.71" y="324.8" width="10.18" height="6.84"/><path class="cls-42" d="M148,331.77H137.58v-7.11H148Zm-10.19-.27h9.91v-6.57h-9.91Z"/><rect class="cls-42" x="139" y="324.66" width="0.12" height="6.94"/><rect class="cls-42" x="142.79" y="321.19" width="0.12" height="10" transform="translate(-183.34 469.04) rotate(-90)"/><rect class="cls-42" x="142.79" y="322.6" width="0.12" height="10" transform="translate(-184.75 470.44) rotate(-90)"/><rect class="cls-42" x="142.79" y="324.01" width="0.12" height="10" transform="translate(-186.16 471.85) rotate(-90)"/><rect class="cls-42" x="142.79" y="325.41" width="0.12" height="10" transform="translate(-187.56 473.26) rotate(-90)"/><rect class="cls-42" x="140.6" y="324.66" width="0.12" height="6.94"/><rect class="cls-42" x="142.2" y="324.66" width="0.12" height="6.94"/><rect class="cls-42" x="143.8" y="324.66" width="0.12" height="6.94"/><rect class="cls-42" x="145.41" y="324.66" width="0.12" height="6.94"/><rect class="cls-42" x="147.01" y="324.66" width="0.12" height="6.94"/><rect class="cls-41" x="151.24" y="324.71" width="10.18" height="6.84"/><path class="cls-42" d="M161.56,331.69H151.11v-7.11h10.45Zm-10.18-.27h9.91v-6.57h-9.91Z"/><rect class="cls-42" x="152.53" y="324.58" width="0.12" height="6.94"/><rect class="cls-42" x="156.31" y="321.11" width="0.12" height="10" transform="translate(-169.73 482.48) rotate(-90)"/><rect class="cls-42" x="156.31" y="322.51" width="0.12" height="10" transform="translate(-171.13 483.89) rotate(-90)"/><rect class="cls-42" x="156.31" y="323.92" width="0.12" height="10" transform="translate(-172.54 485.29) rotate(-90)"/><rect class="cls-42" x="156.31" y="325.33" width="0.12" height="10" transform="translate(-173.95 486.7) rotate(-90)"/><rect class="cls-42" x="154.13" y="324.58" width="0.12" height="6.94"/><rect class="cls-42" x="155.73" y="324.58" width="0.12" height="6.94"/><rect class="cls-42" x="157.33" y="324.58" width="0.12" height="6.94"/><rect class="cls-42" x="158.94" y="324.58" width="0.12" height="6.94"/><rect class="cls-42" x="160.54" y="324.58" width="0.12" height="6.94"/><rect class="cls-41" x="164.58" y="324.6" width="10.18" height="6.84"/><path class="cls-42" d="M174.9,331.57H164.45v-7.11H174.9Zm-10.18-.27h9.91v-6.56h-9.91Z"/><rect class="cls-42" x="165.86" y="324.46" width="0.12" height="6.94"/><rect class="cls-42" x="169.65" y="320.99" width="0.12" height="10" transform="translate(-156.27 495.71) rotate(-90)"/><rect class="cls-42" x="169.65" y="322.4" width="0.12" height="10" transform="translate(-157.68 497.11) rotate(-90)"/><rect class="cls-42" x="169.65" y="323.81" width="0.12" height="10" transform="translate(-159.09 498.52) rotate(-90)"/><rect class="cls-42" x="169.65" y="325.21" width="0.12" height="10" transform="translate(-160.49 499.93) rotate(-90)"/><rect class="cls-42" x="167.47" y="324.46" width="0.12" height="6.94"/><rect class="cls-42" x="169.07" y="324.46" width="0.12" height="6.94"/><rect class="cls-42" x="170.67" y="324.46" width="0.12" height="6.94"/><rect class="cls-42" x="172.27" y="324.46" width="0.12" height="6.94"/><rect class="cls-42" x="173.88" y="324.46" width="0.12" height="6.94"/><path class="cls-43" d="M136.14,313.06c0,.15,40.38,1.94,40.38,1.94v-1.94Z"/><polygon class="cls-43" points="136.14 318.07 136.14 333.71 134.08 333.71 136.14 318.07"/><rect class="cls-42" x="136.14" y="320.73" width="40.38" height="1.02"/><rect class="cls-42" x="136.19" y="322.25" width="40.38" height="0.51"/><rect class="cls-41" x="124.11" y="319.04" width="1.23" height="1.94"/><rect class="cls-41" x="128.68" y="319.04" width="1.23" height="1.94"/><rect class="cls-41" x="133.24" y="319.04" width="1.23" height="1.94"/><rect class="cls-41" x="124.35" y="327.12" width="1.23" height="1.94"/><rect class="cls-41" x="128.91" y="327.12" width="1.23" height="1.94"/><rect class="cls-41" x="133.48" y="327.12" width="1.23" height="1.94"/><rect class="cls-41" x="137.71" y="314.53" width="9.42" height="1.98"/><polygon class="cls-44" points="138.29 315.01 147.13 315.01 147.13 314.53 137.72 314.53 137.72 316.51 138.29 316.51 138.29 315.01"/><rect class="cls-41" x="137.62" y="317.37" width="9.42" height="1.98"/><polygon class="cls-44" points="138.19 317.85 147.04 317.85 147.04 317.37 137.62 317.37 137.62 319.35 138.19 319.35 138.19 317.85"/><rect class="cls-41" x="151.67" y="314.53" width="9.42" height="1.98"/><polygon class="cls-44" points="152.25 315.01 161.09 315.01 161.09 314.53 151.67 314.53 151.67 316.51 152.25 316.51 152.25 315.01"/><rect class="cls-41" x="151.57" y="317.37" width="9.42" height="1.98"/><polygon class="cls-44" points="152.15 317.85 160.99 317.85 160.99 317.37 151.57 317.37 151.57 319.35 152.15 319.35 152.15 317.85"/><rect class="cls-41" x="165.06" y="314.53" width="9.42" height="1.98"/><polygon class="cls-44" points="165.63 315.01 174.47 315.01 174.47 314.53 165.06 314.53 165.06 316.51 165.63 316.51 165.63 315.01"/><rect class="cls-41" x="164.96" y="317.37" width="9.42" height="1.98"/><polygon class="cls-44" points="165.53 317.85 174.38 317.85 174.38 317.37 164.96 317.37 164.96 319.35 165.53 319.35 165.53 317.85"/><rect class="cls-41" x="194.9" y="309.29" width="1.27" height="7.76"/><path class="cls-36" d="M194.86,309.22v7.9h1.33v-7.9Zm.07,1.84h1.2v1.81h-1.2Zm0,5.93V315.4h1.2V317Zm1.2-1.72h-1.2V313h1.2Zm-1.2-4.34v-1.57h1.2v1.57Z"/><g class="cls-45"><polygon class="cls-27" points="194.93 311.96 195.88 309.36 196.13 309.36 194.93 313.59 194.93 311.96"/></g><g class="cls-45"><path class="cls-27" d="M194.93,314.83c0-.05,1.2-2.61,1.2-2.61v1.09l-1.2,3.05Z"/></g><rect class="cls-41" x="193.25" y="309.29" width="1.27" height="7.76"/><path class="cls-36" d="M193.22,309.22v7.9h1.33v-7.9Zm.06,1.84h1.21v1.81h-1.21Zm0,5.93V315.4h1.21V317Zm1.21-1.72h-1.21V313h1.21Zm-1.21-4.34v-1.57h1.21v1.57Z"/><g class="cls-45"><polygon class="cls-27" points="193.28 311.96 194.24 309.36 194.49 309.36 193.28 313.59 193.28 311.96"/></g><g class="cls-45"><path class="cls-27" d="M193.28,314.83c0-.05,1.21-2.61,1.21-2.61v1.09l-1.21,3.05Z"/></g><rect class="cls-41" x="191.61" y="309.29" width="1.27" height="7.76"/><path class="cls-36" d="M191.58,309.22v7.9h1.33v-7.9Zm.06,1.84h1.2v1.81h-1.2Zm0,5.93V315.4h1.2V317Zm1.2-1.72h-1.2V313h1.2Zm-1.2-4.34v-1.57h1.2v1.57Z"/><g class="cls-45"><polygon class="cls-27" points="191.64 311.96 192.59 309.36 192.84 309.36 191.64 313.59 191.64 311.96"/></g><g class="cls-45"><path class="cls-27" d="M191.64,314.83c0-.05,1.2-2.61,1.2-2.61v1.09l-1.2,3.05Z"/></g><rect class="cls-41" x="203.09" y="309.29" width="1.27" height="7.76"/><path class="cls-36" d="M203.06,309.22v7.9h1.33v-7.9Zm.07,1.84h1.2v1.81h-1.2Zm0,5.93V315.4h1.2V317Zm1.2-1.72h-1.2V313h1.2Zm-1.2-4.34v-1.57h1.2v1.57Z"/><g class="cls-45"><polygon class="cls-27" points="203.13 311.96 204.08 309.36 204.33 309.36 203.13 313.59 203.13 311.96"/></g><g class="cls-45"><path class="cls-27" d="M203.13,314.83c0-.05,1.2-2.61,1.2-2.61v1.09l-1.2,3.05Z"/></g><rect class="cls-41" x="201.45" y="309.29" width="1.27" height="7.76"/><path class="cls-36" d="M201.42,309.22v7.9h1.33v-7.9Zm.06,1.84h1.21v1.81h-1.21Zm0,5.93V315.4h1.21V317Zm1.21-1.72h-1.21V313h1.21Zm-1.21-4.34v-1.57h1.21v1.57Z"/><g class="cls-45"><polygon class="cls-27" points="201.48 311.96 202.44 309.36 202.69 309.36 201.48 313.59 201.48 311.96"/></g><g class="cls-45"><path class="cls-27" d="M201.48,314.83c0-.05,1.21-2.61,1.21-2.61v1.09l-1.21,3.05Z"/></g><rect class="cls-41" x="199.81" y="309.29" width="1.27" height="7.76"/><path class="cls-36" d="M199.77,309.22v7.9h1.34v-7.9Zm.07,1.84H201v1.81h-1.2Zm0,5.93V315.4H201V317Zm1.2-1.72h-1.2V313H201Zm-1.2-4.34v-1.57H201v1.57Z"/><g class="cls-45"><polygon class="cls-27" points="199.84 311.96 200.79 309.36 201.04 309.36 199.84 313.59 199.84 311.96"/></g><g class="cls-45"><path class="cls-27" d="M199.84,314.83c0-.05,1.2-2.61,1.2-2.61v1.09l-1.2,3.05Z"/></g><rect class="cls-41" x="194.9" y="319.19" width="1.27" height="7.76"/><path class="cls-36" d="M194.86,319.13V327h1.33v-7.89Zm.07,1.84h1.2v1.8h-1.2Zm0,5.92v-1.58h1.2v1.58Zm1.2-1.72h-1.2V322.9h1.2Zm-1.2-4.33v-1.58h1.2v1.58Z"/><g class="cls-45"><polygon class="cls-27" points="194.93 321.87 195.88 319.26 196.13 319.26 194.93 323.49 194.93 321.87"/></g><g class="cls-45"><path class="cls-27" d="M194.93,324.73c0-.05,1.2-2.61,1.2-2.61v1.09l-1.2,3.05Z"/></g><rect class="cls-41" x="193.25" y="319.19" width="1.27" height="7.76"/><path class="cls-36" d="M193.22,319.13V327h1.33v-7.89Zm.06,1.84h1.21v1.8h-1.21Zm0,5.92v-1.58h1.21v1.58Zm1.21-1.72h-1.21V322.9h1.21Zm-1.21-4.33v-1.58h1.21v1.58Z"/><g class="cls-45"><polygon class="cls-27" points="193.28 321.87 194.24 319.26 194.49 319.26 193.28 323.49 193.28 321.87"/></g><g class="cls-45"><path class="cls-27" d="M193.28,324.73c0-.05,1.21-2.61,1.21-2.61v1.09l-1.21,3.05Z"/></g><rect class="cls-41" x="191.61" y="319.19" width="1.27" height="7.76"/><path class="cls-36" d="M191.58,319.13V327h1.33v-7.89Zm.06,1.84h1.2v1.8h-1.2Zm0,5.92v-1.58h1.2v1.58Zm1.2-1.72h-1.2V322.9h1.2Zm-1.2-4.33v-1.58h1.2v1.58Z"/><g class="cls-45"><polygon class="cls-27" points="191.64 321.87 192.59 319.26 192.84 319.26 191.64 323.49 191.64 321.87"/></g><g class="cls-45"><path class="cls-27" d="M191.64,324.73c0-.05,1.2-2.61,1.2-2.61v1.09l-1.2,3.05Z"/></g><rect class="cls-41" x="203.09" y="319.19" width="1.27" height="7.76"/><path class="cls-36" d="M203.06,319.13V327h1.33v-7.89Zm.07,1.84h1.2v1.8h-1.2Zm0,5.92v-1.58h1.2v1.58Zm1.2-1.72h-1.2V322.9h1.2Zm-1.2-4.33v-1.58h1.2v1.58Z"/><g class="cls-45"><polygon class="cls-27" points="203.13 321.87 204.08 319.26 204.33 319.26 203.13 323.49 203.13 321.87"/></g><g class="cls-45"><path class="cls-27" d="M203.13,324.73c0-.05,1.2-2.61,1.2-2.61v1.09l-1.2,3.05Z"/></g><rect class="cls-41" x="201.45" y="319.19" width="1.27" height="7.76"/><path class="cls-36" d="M201.42,319.13V327h1.33v-7.89Zm.06,1.84h1.21v1.8h-1.21Zm0,5.92v-1.58h1.21v1.58Zm1.21-1.72h-1.21V322.9h1.21Zm-1.21-4.33v-1.58h1.21v1.58Z"/><g class="cls-45"><polygon class="cls-27" points="201.48 321.87 202.44 319.26 202.69 319.26 201.48 323.49 201.48 321.87"/></g><g class="cls-45"><path class="cls-27" d="M201.48,324.73c0-.05,1.21-2.61,1.21-2.61v1.09l-1.21,3.05Z"/></g><rect class="cls-41" x="199.81" y="319.19" width="1.27" height="7.76"/><path class="cls-36" d="M199.77,319.13V327h1.34v-7.89Zm.07,1.84H201v1.8h-1.2Zm0,5.92v-1.58H201v1.58Zm1.2-1.72h-1.2V322.9H201Zm-1.2-4.33v-1.58H201v1.58Z"/><g class="cls-45"><polygon class="cls-27" points="199.84 321.87 200.79 319.26 201.04 319.26 199.84 323.49 199.84 321.87"/></g><g class="cls-45"><path class="cls-27" d="M199.84,324.73c0-.05,1.2-2.61,1.2-2.61v1.09l-1.2,3.05Z"/></g><rect class="cls-46" x="190.33" y="330.39" width="15.2" height="3.74"/><rect class="cls-46" x="190.33" y="328.5" width="15.2" height="0.42"/><rect class="cls-34" x="176.52" y="316.69" width="13.8" height="0.38"/><rect class="cls-34" x="176.52" y="320.32" width="13.8" height="0.48"/><path class="cls-47" d="M175,286.62a14.86,14.86,0,0,1,2.59-.4,10.56,10.56,0,0,0,3.59-1.15c1-.57,2-1.32,3-1.86a11.29,11.29,0,0,1,3.36-1,6.39,6.39,0,0,1,4.8.82,2.92,2.92,0,0,1,1.15,1.65,3,3,0,0,1-1.36,3,6.76,6.76,0,0,1-3.29,1,19.31,19.31,0,0,1-3.4,0,26.49,26.49,0,0,0-4.35-.35c-1.68.11-3.29.75-5,.91-.76.07-1.52,0-2.27.16-.37.06-1.36.64-1.68.52s.05-.86.25-1.18A4.56,4.56,0,0,1,175,286.62Z"/><path class="cls-47" d="M164.07,286.15a9.14,9.14,0,0,1,5.14-2c1.53-.13,3.18,0,4.49-.8a18.19,18.19,0,0,0,2.39-2.26,5.9,5.9,0,0,1,3.89-1.45,3.2,3.2,0,0,1,2.29.82,1.71,1.71,0,0,1,.18,2.26c-.74.81-2.09.44-3.12.8a8.46,8.46,0,0,0-1.64,1,9.17,9.17,0,0,1-4.25,1l-3.72.25a12.29,12.29,0,0,0-4.89,1c-.68.35-.57,1.07-1,1.69-.25.35-.75,2.27-1.23,2.52,0,0-.11,0-.11-.08C162.56,289.62,163.16,286.92,164.07,286.15Z"/><path class="cls-47" d="M154.65,286.53a12.23,12.23,0,0,1,4.48-2.58,10,10,0,0,0,2-.87,11.94,11.94,0,0,0,2.7-3,9.34,9.34,0,0,1,3-2.69,5,5,0,0,1,3.92-.44,3.43,3.43,0,0,1,2.36,3,.91.91,0,0,1-.09.52,1.09,1.09,0,0,1-.49.38c-1.31.56-2.85.33-4.13.93a7.57,7.57,0,0,0-1.63,1.19,11.77,11.77,0,0,1-4.22,2.7,29.51,29.51,0,0,1-4.7.51,4.7,4.7,0,0,0-4,2.42c-.19.45-.92,1.49-.72.36A5.21,5.21,0,0,1,154.65,286.53Z"/><line class="cls-19" x1="240.57" y1="333.71" x2="240.57" y2="343.97"/><line class="cls-19" x1="272.44" y1="333.71" x2="272.44" y2="343.97"/><rect class="cls-48" x="281.01" y="316.63" width="19.66" height="16.99"/><polygon class="cls-49" points="302.27 317.3 274.66 317.3 274.66 309.92 294.32 309.92 302.27 317.3"/><path class="cls-50" d="M302.06,317H274.14v.32H276v.4h26v-.4h.33v-.11A.22.22,0,0,0,302.06,317Z"/><polygon class="cls-51" points="300.67 325.15 300.67 333.69 283.13 333.69 283.13 325.15 283.13 325.15 292 316.87 300.67 325.15"/><polygon class="cls-52" points="300.67 325 300.67 325.26 300.22 325.26 293.2 319.13 286.86 325.02 283.39 324.58 292.01 316.6 300.67 325"/><polygon class="cls-50" points="301.37 325.26 300.44 325.26 300.44 325.1 292.01 316.92 282.87 325.4 282.4 324.82 292.02 316.28 301.37 325.26"/><polygon class="cls-53" points="283.13 333.61 262.35 333.61 262.35 317.69 272.63 308.24 283.13 317.7 283.13 333.61"/><polygon class="cls-54" points="283 316.85 283.03 333.62 262.29 333.66 283.13 333.69 283.13 316.97 283 316.85"/><polygon class="cls-55" points="264.37 319.17 262.35 319.17 262.35 318.06 264.22 317.97 264.37 318.06 264.37 319.17"/><rect class="cls-56" x="262.26" y="317.97" width="1.96" height="1.1"/><polygon class="cls-55" points="264.37 320.39 262.35 320.39 262.35 319.28 264.22 319.19 264.37 319.28 264.37 320.39"/><rect class="cls-56" x="262.26" y="319.19" width="1.96" height="1.1"/><polygon class="cls-55" points="264.37 321.7 262.35 321.7 262.35 320.6 264.22 320.42 264.37 320.6 264.37 321.7"/><rect class="cls-56" x="262.26" y="320.42" width="1.96" height="1.1"/><polygon class="cls-55" points="281.17 319.27 283.13 319.27 283.13 318.16 281.32 318.07 281.17 318.16 281.17 319.27"/><rect class="cls-56" x="281.32" y="318.07" width="1.96" height="1.1" transform="translate(564.59 637.25) rotate(180)"/><polygon class="cls-55" points="281.17 320.49 283.13 320.49 283.13 319.38 281.32 319.29 281.17 319.38 281.17 320.49"/><rect class="cls-56" x="281.32" y="319.29" width="1.96" height="1.1" transform="translate(564.59 639.69) rotate(180)"/><polygon class="cls-55" points="281.17 321.71 283.13 321.71 283.13 320.61 281.32 320.52 281.17 320.61 281.17 321.71"/><rect class="cls-56" x="281.32" y="320.52" width="1.96" height="1.1" transform="translate(564.59 642.14) rotate(180)"/><polygon class="cls-49" points="283.84 325.02 261.03 325.02 261.23 324.62 262.35 322.45 283.13 322.45 283.73 324.62 283.84 325.02"/><polygon class="cls-57" points="283.84 325.02 261.03 325.02 261.23 324.62 283.73 324.62 283.84 325.02"/><polygon class="cls-49" points="272.53 322.07 268.13 325 276.65 325 272.53 322.07"/><polygon class="cls-50" points="267.95 325.4 267.69 325.01 272.54 321.79 277.08 325.02 276.81 325.4 272.53 322.36 267.95 325.4"/><rect class="cls-50" x="260.95" y="325.02" width="22.89" height="0.38"/><polygon class="cls-50" points="261.23 316.99 261.23 317.97 262.35 317.79 272.63 308.24 283.11 317.66 284.22 317.97 284.22 317.09 272.67 306.56 261.23 316.99"/><polygon class="cls-58" points="272.67 307.39 261.23 317.97 262.35 317.83 272.63 308.24 283.13 317.7 284.22 317.97 272.67 307.39"/><rect class="cls-59" x="269.65" y="313.45" width="5.66" height="7.69"/><rect class="cls-60" x="263.75" y="325.98" width="3.01" height="5.75"/><rect class="cls-41" x="264.14" y="326.33" width="2.14" height="5.1"/><path class="cls-27" d="M265.31,326.3h-1.2v5.16h2.2V326.3Zm-.06,5.1h-1.08v-1.93h1.08Zm0-2h-1.08v-.95h1.08Zm0-1h-1.08v-1h1.08Zm0-1.07h-1.08v-1h1.08Zm1,4h-.94v-1.93h.94Zm0-2h-.94v-.95h.94Zm0-1h-.94v-1h.94Zm0-1.07h-.94v-1h.94Z"/><rect class="cls-60" x="279.32" y="325.98" width="3.01" height="5.75"/><rect class="cls-41" x="279.72" y="326.33" width="2.14" height="5.1"/><path class="cls-27" d="M280.88,326.3h-1.19v5.16h2.19V326.3Zm-.06,5.1h-1.07v-1.93h1.07Zm0-2h-1.07v-.95h1.07Zm0-1h-1.07v-1h1.07Zm0-1.07h-1.07v-1h1.07Zm1,4h-.95v-1.93h.95Zm0-2h-.95v-.95h.95Zm0-1h-.95v-1h.95Zm0-1.07h-.95v-1h.95Z"/><rect class="cls-41" x="269.65" y="313.45" width="5.66" height="7.69"/><polygon class="cls-50" points="270.43 314.01 275.31 314.01 275.31 313.45 269.65 313.45 269.65 321.14 270.43 321.14 270.43 314.01"/><path class="cls-60" d="M276,313.79v-.52h-6.91v.52h.42v7h-.42v.52H276v-.52h-.47v-7Zm-.83,5.9h-2.75v-1.62h2.75Zm-2.75-1.82V316h2.75v1.85Zm2.75-2.06h-2.75v-2.18h2.75Zm-5.3-2.18h2.34v2.18h-2.34v-2.18Zm0,2.39h2.34v1.85h-2.34Zm0,2.05h2.34v1.62h-2.34Zm0,2.73v-.91h2.34V321h-2.34Zm2.55.16v-1.07h2.75V321Z"/><polygon class="cls-61" points="267.64 328.86 262.35 325.71 262.35 325.4 283.13 325.4 283.13 328.86 267.64 328.86"/><rect class="cls-62" x="262.26" y="330.26" width="7.52" height="3.36"/><rect class="cls-62" x="275.61" y="330.26" width="7.52" height="3.36"/><rect class="cls-63" x="262.41" y="330.49" width="0.6" height="2.54"/><rect class="cls-63" x="263.3" y="330.49" width="0.6" height="2.54"/><rect class="cls-63" x="264.2" y="330.49" width="0.6" height="2.54"/><rect class="cls-63" x="265.09" y="330.49" width="0.6" height="2.54"/><rect class="cls-63" x="265.98" y="330.49" width="0.6" height="2.54"/><rect class="cls-63" x="266.87" y="330.49" width="0.6" height="2.54"/><rect class="cls-63" x="267.77" y="330.49" width="0.6" height="2.54"/><rect class="cls-63" x="268.66" y="330.49" width="0.6" height="2.54"/><rect class="cls-63" x="276.85" y="330.49" width="0.53" height="2.79"/><rect class="cls-63" x="277.65" y="330.49" width="0.53" height="2.79"/><rect class="cls-63" x="278.44" y="330.49" width="0.53" height="2.79"/><rect class="cls-63" x="279.24" y="330.49" width="0.53" height="2.79"/><rect class="cls-63" x="280.03" y="330.49" width="0.53" height="2.79"/><rect class="cls-63" x="280.83" y="330.49" width="0.53" height="2.79"/><rect class="cls-63" x="281.63" y="330.49" width="0.53" height="2.79"/><rect class="cls-63" x="282.42" y="330.49" width="0.53" height="2.79"/><rect class="cls-60" x="270.98" y="326.97" width="3.01" height="5.75"/><rect class="cls-64" x="271.37" y="327.32" width="2.14" height="5.47"/><rect class="cls-65" x="270.83" y="332.72" width="3.28" height="0.35"/><rect class="cls-65" x="270.08" y="333.03" width="4.71" height="0.37"/><rect class="cls-65" x="269.78" y="333.35" width="5.83" height="0.42"/><rect class="cls-66" x="289.47" y="322.72" width="6.96" height="2.01"/><polygon class="cls-50" points="290.02 323.29 296.42 323.29 296.42 322.72 289.46 322.72 289.46 324.73 290.02 324.73 290.02 323.29"/><path class="cls-67" d="M289.39,322.64v2.17h7.11v-2.17Zm2.3,2h-2.15V322.8h2.15Zm2.52,0h-2.35V322.8h2.35Zm2.13,0h-2V322.8h2Z"/><rect class="cls-67" x="286.85" y="325.85" width="10.18" height="7.84"/><rect class="cls-68" x="287.21" y="326.52" width="9.45" height="7.17"/><rect class="cls-69" x="287.21" y="326.69" width="9.45" height="0.38"/><rect class="cls-69" x="287.21" y="327.23" width="9.45" height="0.38"/><rect class="cls-69" x="287.21" y="327.78" width="9.45" height="0.38"/><rect class="cls-69" x="287.21" y="328.33" width="9.45" height="0.38"/><rect class="cls-69" x="287.21" y="328.88" width="9.45" height="0.38"/><rect class="cls-69" x="287.21" y="329.43" width="9.45" height="0.38"/><rect class="cls-69" x="287.21" y="329.98" width="9.45" height="0.38"/><rect class="cls-69" x="287.21" y="330.53" width="9.45" height="0.38"/><rect class="cls-69" x="287.21" y="331.08" width="9.45" height="0.38"/><rect class="cls-69" x="287.21" y="331.63" width="9.45" height="0.38"/><rect class="cls-69" x="287.21" y="332.18" width="9.45" height="0.38"/><rect class="cls-69" x="287.21" y="332.73" width="9.45" height="0.38"/><rect class="cls-69" x="287.21" y="333.28" width="9.45" height="0.38"/><polygon class="cls-70" points="288.06 327.24 296.66 327.24 296.66 326.52 287.21 326.52 287.21 333.69 288.06 333.69 288.06 327.24"/><rect class="cls-63" x="262.26" y="332.95" width="7.52" height="0.74"/><rect class="cls-63" x="261.96" y="330.26" width="7.69" height="0.42"/><rect class="cls-63" x="275.85" y="330.26" width="7.28" height="0.42"/><rect class="cls-63" x="275.61" y="333.19" width="7.52" height="0.5"/><rect class="cls-71" x="261.82" y="325.4" width="0.59" height="8.29"/><rect class="cls-63" x="268.73" y="325.4" width="1.05" height="8.18"/><rect class="cls-63" x="275.61" y="325.4" width="1.05" height="8.29"/><path class="cls-72" d="M261.78,333.75a1.17,1.17,0,0,0,0-.26,1.11,1.11,0,0,0-1.05-1,1.41,1.41,0,0,0-1.41-1.08,1.43,1.43,0,0,0-1.41,1.06h-.05a1,1,0,0,0-1,1,.87.87,0,0,0,.06.32Z"/><rect class="cls-41" x="223.16" y="293.05" width="21.24" height="38.99"/><rect class="cls-73" x="226.53" y="293.11" width="3.97" height="19.39"/><rect class="cls-74" x="221.29" y="291.16" width="24.47" height="1.88"/><rect class="cls-73" x="226.23" y="293.11" width="0.29" height="19.36"/><rect class="cls-73" x="234.46" y="293.11" width="0.29" height="19.36"/><rect class="cls-73" x="238.91" y="293.11" width="0.29" height="19.36"/><rect class="cls-73" x="230.26" y="293.11" width="0.47" height="19.36"/><rect class="cls-74" x="221.29" y="291.16" width="1.87" height="21.34"/><rect class="cls-74" x="223.16" y="297.09" width="21.7" height="1.8"/><rect class="cls-74" x="223.16" y="305.01" width="21.7" height="1.8"/><rect class="cls-75" x="221.29" y="291.16" width="24.8" height="0.26"/><rect class="cls-76" x="221.29" y="291.43" width="24.47" height="0.11"/><rect class="cls-75" x="223.15" y="297.09" width="21.99" height="0.26"/><rect class="cls-76" x="223.15" y="297.35" width="21.69" height="0.11"/><rect class="cls-75" x="223.15" y="304.64" width="21.99" height="0.26"/><rect class="cls-76" x="223.15" y="304.9" width="21.69" height="0.11"/><rect class="cls-73" x="223.16" y="293.05" width="21.24" height="0.15"/><rect class="cls-73" x="223.16" y="293.05" width="0.16" height="4.05"/><rect class="cls-73" x="223.16" y="298.89" width="21.24" height="0.18"/><rect class="cls-73" x="223.16" y="298.89" width="0.16" height="6.11"/><rect class="cls-73" x="223.16" y="306.81" width="0.16" height="5.69"/><rect class="cls-73" x="223.16" y="306.81" width="21.24" height="0.2"/><rect class="cls-73" x="220.67" y="290.37" width="25.42" height="0.18" transform="translate(466.75 580.92) rotate(180)"/><rect class="cls-73" x="221.4" y="290.46" width="0.15" height="0.7" transform="translate(442.95 581.63) rotate(180)"/><rect class="cls-73" x="245.65" y="290.46" width="0.15" height="0.7" transform="translate(491.44 581.63) rotate(180)"/><rect class="cls-76" x="227.22" y="291.53" width="0.07" height="1.51"/><rect class="cls-76" x="233.48" y="291.53" width="0.07" height="1.51"/><rect class="cls-76" x="239.75" y="291.53" width="0.07" height="1.51"/><path class="cls-77" d="M220.41,317.33,214.07,326a4.86,4.86,0,0,0,3.32,1.3h0a4.9,4.9,0,0,0,4.91-4.9V321.2A4.91,4.91,0,0,0,220.41,317.33Z"/><path class="cls-78" d="M217.39,316.29h0a4.91,4.91,0,0,0-4.9,4.91v1.18a4.88,4.88,0,0,0,1.58,3.6l6.34-8.65A4.89,4.89,0,0,0,217.39,316.29Z"/><polyline class="cls-79" points="217.91 333.71 217.91 321.15 214.74 317.98"/><line class="cls-79" x1="217.91" y1="325.42" x2="215.83" y2="323.34"/><line class="cls-79" x1="217.91" y1="327.43" x2="219.38" y2="325.96"/><path class="cls-80" d="M317.31,317.33,311,326a4.9,4.9,0,0,0,3.33,1.3h0a4.9,4.9,0,0,0,4.9-4.9V321.2A4.93,4.93,0,0,0,317.31,317.33Z"/><path class="cls-81" d="M314.29,316.29h0a4.91,4.91,0,0,0-4.91,4.91v1.18A4.88,4.88,0,0,0,311,326l6.35-8.65A4.91,4.91,0,0,0,314.29,316.29Z"/><polyline class="cls-79" points="314.8 333.71 314.8 321.15 311.63 317.98"/><line class="cls-79" x1="314.8" y1="325.42" x2="312.73" y2="323.34"/><line class="cls-79" x1="314.8" y1="327.43" x2="316.27" y2="325.96"/><rect class="cls-73" x="226.53" y="314.27" width="3.97" height="19.39"/><rect class="cls-74" x="221.29" y="312.32" width="24.47" height="1.88"/><rect class="cls-73" x="226.23" y="314.27" width="0.29" height="19.36"/><rect class="cls-73" x="234.46" y="314.27" width="0.29" height="19.36"/><rect class="cls-73" x="238.91" y="314.27" width="0.29" height="19.36"/><rect class="cls-73" x="230.26" y="314.27" width="0.47" height="19.36"/><rect class="cls-74" x="221.29" y="312.32" width="1.87" height="21.34"/><rect class="cls-74" x="223.16" y="318.25" width="21.7" height="1.8"/><rect class="cls-74" x="223.16" y="326.16" width="21.7" height="1.8"/><rect class="cls-75" x="221.29" y="312.32" width="24.8" height="0.26"/><rect class="cls-76" x="221.29" y="312.58" width="24.47" height="0.11"/><rect class="cls-75" x="223.15" y="318.25" width="21.99" height="0.26"/><rect class="cls-76" x="223.15" y="318.51" width="21.69" height="0.11"/><rect class="cls-75" x="223.15" y="325.79" width="21.99" height="0.26"/><rect class="cls-76" x="223.15" y="326.05" width="21.69" height="0.11"/><rect class="cls-73" x="223.16" y="314.2" width="21.24" height="0.15"/><rect class="cls-73" x="223.16" y="314.2" width="0.16" height="4.05"/><rect class="cls-73" x="223.16" y="320.05" width="21.24" height="0.18"/><rect class="cls-73" x="223.16" y="320.05" width="0.16" height="6.11"/><rect class="cls-73" x="223.16" y="327.96" width="0.16" height="5.7"/><rect class="cls-73" x="223.16" y="327.96" width="21.24" height="0.2"/><rect class="cls-73" x="220.67" y="311.53" width="25.42" height="0.18" transform="translate(466.75 623.24) rotate(180)"/><rect class="cls-73" x="221.4" y="311.62" width="0.15" height="0.7" transform="translate(442.95 623.94) rotate(180)"/><rect class="cls-73" x="245.65" y="311.62" width="0.15" height="0.7" transform="translate(491.44 623.94) rotate(180)"/><rect class="cls-76" x="227.22" y="312.69" width="0.07" height="1.51"/><rect class="cls-76" x="233.48" y="312.69" width="0.07" height="1.51"/><rect class="cls-76" x="239.75" y="312.69" width="0.07" height="1.51"/><rect class="cls-82" x="210.5" y="333.68" width="108.7" height="0.44"/><path class="cls-83" d="M228.13,332.94c-4.38.11-8.65-.55-13.14-.22a9.8,9.8,0,0,1-3.5,0v.94h22.8v-1.22a.69.69,0,0,0-.68-.68H232.4c-.63.26-1.25.55-1.86.77A18.82,18.82,0,0,1,228.13,332.94Z"/><path class="cls-84" d="M211.49,332.41v.28a9.8,9.8,0,0,0,3.5,0c4.49-.33,8.76.33,13.14.22a18.82,18.82,0,0,0,2.41-.44c.61-.22,1.23-.51,1.86-.77H212.17A.68.68,0,0,0,211.49,332.41Z"/><rect class="cls-41" x="234.59" y="320.77" width="11.37" height="3.05"/><rect class="cls-41" x="234.47" y="326.57" width="14.78" height="7.06"/><rect class="cls-82" x="231.32" y="323.87" width="18.5" height="2.7"/><rect class="cls-82" x="231.32" y="318.07" width="15.25" height="2.7"/><rect class="cls-82" x="231.32" y="319.98" width="3.27" height="6.59"/><rect class="cls-75" x="232.09" y="326.57" width="2.38" height="7.11"/><rect class="cls-75" x="233.97" y="323.81" width="16.24" height="0.27"/><polygon class="cls-76" points="249.82 324.15 234.16 324.15 234.05 324.08 249.82 324.08 249.82 324.15"/><rect class="cls-76" x="243.58" y="324.15" width="0.04" height="2.42"/><rect class="cls-76" x="237.35" y="324.15" width="0.04" height="2.42"/><rect class="cls-76" x="237.35" y="318.07" width="0.04" height="2.7"/><rect class="cls-76" x="243.54" y="318.07" width="0.04" height="2.7"/><rect class="cls-85" x="236.48" y="326.57" width="0.89" height="7.11"/><rect class="cls-85" x="243.6" y="326.57" width="0.89" height="7.11"/><rect class="cls-73" x="237.35" y="320.77" width="6.25" height="3.05"/><rect class="cls-86" x="237.35" y="320.77" width="6.25" height="0.76"/><rect class="cls-73" x="237.35" y="326.54" width="6.25" height="7.15"/><rect class="cls-86" x="237.35" y="326.54" width="6.25" height="1.1"/><rect class="cls-73" x="244.48" y="326.57" width="0.25" height="7.11"/><rect class="cls-87" x="244.74" y="326.57" width="4.52" height="3.42"/><rect class="cls-82" x="249.25" y="326.57" width="0.3" height="7.11"/><rect class="cls-73" x="243.6" y="320.77" width="2.36" height="0.28"/><rect class="cls-73" x="243.6" y="322.24" width="2.36" height="0.28"/><rect class="cls-73" x="244.51" y="326.57" width="4.74" height="0.28"/><rect class="cls-73" x="234.59" y="320.77" width="2.79" height="0.28"/><rect class="cls-73" x="234.59" y="322.24" width="2.79" height="0.28"/><rect class="cls-73" x="234.59" y="320.77" width="0.22" height="3.05"/><rect class="cls-73" x="232.09" y="326.54" width="4.39" height="0.41"/><rect class="cls-73" x="234.59" y="323.02" width="15.69" height="0.18"/><rect class="cls-73" x="249.4" y="323.11" width="0.15" height="0.7"/><path class="cls-88" d="M250.65,307l-6.34,8.65a4.9,4.9,0,0,0,3.32,1.3h0a4.91,4.91,0,0,0,4.91-4.91V310.9A4.89,4.89,0,0,0,250.65,307Z"/><path class="cls-89" d="M247.63,306h0a4.9,4.9,0,0,0-4.9,4.9v1.18a4.91,4.91,0,0,0,1.58,3.61l6.34-8.65A4.89,4.89,0,0,0,247.63,306Z"/><polyline class="cls-79" points="248.15 333.79 248.15 310.85 244.98 307.68"/><line class="cls-79" x1="248.15" y1="315.12" x2="246.07" y2="313.05"/><line class="cls-79" x1="248.15" y1="317.14" x2="249.62" y2="315.67"/><path class="cls-90" d="M91.74,47.25a5.76,5.76,0,1,1-11.51,0,5.76,5.76,0,1,1-11.51,0,5.76,5.76,0,1,1-11.51,0,5.76,5.76,0,1,1-11.51,0"/><rect class="cls-13" x="141.93" y="69.77" width="0.41" height="38.39"/><rect class="cls-13" x="140.82" y="103.44" width="2.63" height="6.54"/><rect class="cls-91" x="142.13" y="69.77" width="0.2" height="38.39"/><rect class="cls-91" x="142.13" y="103.44" width="1.31" height="6.54"/><path class="cls-92" d="M134.69,47.11c7.55,3.33,9.86,17.47,7.53,24.85L132,63.42l-.37-.22,0-.11c-.72-2.62-1.33-5.19-2-7.82l5.17-8.16Zm-1,12.35,6.89-1.14a28,28,0,0,0-1.43-3.84l-6.18,2.37.72,2.61Zm7.26.31-6.52,2.4.45,1.71,6.38,5.4a19.91,19.91,0,0,0-.31-9.51Zm-8.72-5.14,6.18-1.6a10.44,10.44,0,0,0-2.65-3.24l-3.63,4.49Z"/><rect class="cls-13" x="92.33" y="70.65" width="2.63" height="31.2"/><rect class="cls-91" x="93.64" y="70.65" width="1.31" height="31.21"/><rect class="cls-6" x="92.33" y="99.74" width="2.63" height="2.12"/><rect x="93.64" y="99.74" width="1.31" height="2.12"/><rect class="cls-13" x="91.02" y="101.1" width="5.25" height="3.62"/><rect class="cls-91" x="93.64" y="101.1" width="2.63" height="3.62"/><rect class="cls-6" x="91.02" y="103.54" width="5.25" height="1.45"/><rect x="93.64" y="103.54" width="2.63" height="1.45"/><rect class="cls-13" x="89.7" y="104.73" width="7.88" height="5.25"/><rect class="cls-91" x="93.64" y="104.73" width="3.94" height="5.25"/><rect class="cls-6" x="89.7" y="108.58" width="7.88" height="1.4"/><rect x="93.64" y="108.58" width="3.94" height="1.4"/><path class="cls-93" d="M134.82,46.16c7.56,3.33,9.87,17.48,7.54,24.85l-10.27-8.53-.37-.23,0-.11c-.72-2.62-1.33-5.19-2-7.82l5.16-8.16Zm-1,12.36,6.88-1.14a26.89,26.89,0,0,0-1.42-3.85l-6.18,2.37.72,2.62Zm7.26.3-6.52,2.4.45,1.71,6.37,5.4a19.89,19.89,0,0,0-.3-9.51Zm-8.72-5.14,6.18-1.59a10.49,10.49,0,0,0-2.65-3.25l-3.63,4.49Z"/><rect class="cls-91" x="90.72" y="60.34" width="41.7" height="5.99" transform="translate(-12.43 30.41) rotate(-14.71)"/><rect class="cls-13" x="91.93" y="61.5" width="39.28" height="3.67" transform="translate(-12.43 30.41) rotate(-14.71)"/><polygon class="cls-94" points="107.42 86.28 119.74 95.06 119.74 96.67 107.42 87.89 107.42 86.28"/><polygon class="cls-94" points="109.08 77.22 118.56 86 118.56 87.6 109.08 78.83 109.08 77.22"/><polygon class="cls-94" points="106.14 96.68 121.57 106.96 121.57 108.57 106.14 98.29 106.14 96.68"/><polygon class="cls-94" points="110.64 66.12 116.74 76.18 116.74 77.79 110.64 67.73 110.64 66.12"/><rect class="cls-17" x="107.42" y="86.28" width="11.58" height="1.61"/><rect class="cls-17" x="108.39" y="76.74" width="9.65" height="1.61"/><rect class="cls-17" x="105.87" y="96.25" width="14.69" height="1.61"/><rect class="cls-17" x="104.26" y="107.62" width="17.91" height="1.61"/><polygon class="cls-94" points="110 65.26 116.43 65.26 123.72 109.98 121.61 109.98 115.07 67.5 111.25 67.5 104.75 109.98 102.7 109.98 110 65.26"/><polygon class="cls-93" points="113.21 90.41 119.74 95.06 119.74 96.67 113.21 92.01 113.21 90.41"/><polygon class="cls-93" points="113.21 81.04 118.56 86 118.56 87.6 113.21 82.65 113.21 81.04"/><polygon class="cls-93" points="113.21 101.4 121.57 106.96 121.57 108.57 113.21 103 113.21 101.4"/><polygon class="cls-93" points="113.21 70.37 116.74 76.18 116.74 77.79 113.21 71.97 113.21 70.37"/><rect class="cls-95" x="113.21" y="86.28" width="5.79" height="1.61"/><rect class="cls-95" x="113.21" y="76.74" width="4.83" height="1.61"/><rect class="cls-95" x="113.21" y="96.25" width="7.35" height="1.61"/><rect class="cls-95" x="113.21" y="107.62" width="8.95" height="1.61"/><polygon class="cls-93" points="113.21 65.26 116.43 65.26 123.72 109.98 121.61 109.98 115.07 67.5 113.21 67.5 113.21 65.26"/><path class="cls-15" d="M225.55,201.1a4,4,0,0,0-1-5.06h0v0a3,3,0,0,1-.11,2.35l-.25.51-.08-.57a2.39,2.39,0,0,0-.42-1.06h0l0-.06a4.12,4.12,0,0,1-.36,1.72,2.43,2.43,0,0,0,.12,2.21l.28.46-.49-.21a3.29,3.29,0,0,1-1.61-4.63,4.71,4.71,0,0,0,.51-1.4l.09-.47.24.42a2.41,2.41,0,0,1,.24.65h0v0h0a6,6,0,0,0,1.18-3.26l0-.31.25.17a4.56,4.56,0,0,1,2,3v0h0v0a1.54,1.54,0,0,0,.31-.92v-.53l.32.42a5.27,5.27,0,0,1,1.05,3.38,4,4,0,0,1-2.08,3.36l-.54.3Z"/><path class="cls-96" d="M18.16,85.9a1.3,1.3,0,0,1-1.4-1.41V81.3a4.28,4.28,0,0,1,4.3-4.6,4.23,4.23,0,0,1,4.27,4.5v2h3a1.35,1.35,0,1,1,0,2.7ZM23,83.2V81.36A1.8,1.8,0,0,0,21,79.5a1.8,1.8,0,0,0-1.91,1.86V83.2Z"/><path class="cls-96" d="M21.19,76a1.28,1.28,0,0,1-1.3-1.34c0-.68.25-1.26,1.08-1.26v0a2.05,2.05,0,0,1-1.08-1.82,1.27,1.27,0,0,1,1.39-1.26c.84,0,.9.77,1.26,1.55s.7,1.56,1.73,1.56h4a1.31,1.31,0,1,1,0,2.6Z"/><path class="cls-96" d="M24.81,61.38a4.66,4.66,0,1,1,0,9.29,4.66,4.66,0,1,1,0-9.29Zm0,6.69c1.24,0,2.61-.64,2.61-2s-1.37-2-2.61-2-2.65.63-2.65,2S23.56,68.07,24.81,68.07Z"/><path class="cls-96" d="M28.25,51.42a1.31,1.31,0,0,1,1.44,1.3A1.25,1.25,0,0,1,28.61,54a2.8,2.8,0,0,1,1.18,2.37c0,2.61-2.43,4.27-4.88,4.27s-5.13-1.39-5.13-4.18a3.75,3.75,0,0,1,.9-2.46H17.15a1.31,1.31,0,1,1,0-2.6Zm-6.09,4.63c0,1.35,1.42,2,2.65,2s2.61-.67,2.61-2-1.44-2-2.7-2S22.16,54.66,22.16,56.05Z"/><path class="cls-96" d="M21.33,50a1.3,1.3,0,1,1,0-2.59H26A1.68,1.68,0,0,0,26,44H21.33a1.31,1.31,0,1,1,0-2.6H26c2.31,0,3.78,1.54,3.78,4.27S28.32,50,26,50Z"/><path class="cls-96" d="M22.66,33.5c0,.64-.5,1.22-.5,2,0,1.48,1.31,2.18,2.65,2.18a2.39,2.39,0,0,0,2.61-2.18,14.41,14.41,0,0,0-.54-1.93A1.13,1.13,0,0,1,28,32.51c1.33,0,1.78,2.23,1.78,3.16a4.71,4.71,0,0,1-5,4.65,4.83,4.83,0,0,1-5-4.65c0-1,.38-3.16,1.64-3.16C22,32.51,22.66,32.88,22.66,33.5Z"/><path class="cls-96" d="M22.66,25.16c0,.65-.5,1.23-.5,2.06,0,1.47,1.31,2.17,2.65,2.17a2.39,2.39,0,0,0,2.61-2.17,14,14,0,0,0-.54-1.93A1.14,1.14,0,0,1,28,24.17c1.33,0,1.78,2.24,1.78,3.17a4.71,4.71,0,0,1-5,4.65,4.83,4.83,0,0,1-5-4.65c0-1,.38-3.17,1.64-3.17C22,24.17,22.66,24.55,22.66,25.16Z"/><path class="cls-96" d="M17.42,20.56A1.48,1.48,0,0,1,18.92,22a1.52,1.52,0,0,1-1.5,1.46A1.5,1.5,0,0,1,16,22,1.48,1.48,0,0,1,17.42,20.56Zm3.91,2.75a1.3,1.3,0,1,1,0-2.59h6.92a1.3,1.3,0,1,1,0,2.59Z"/><path class="cls-96" d="M15.84,14.45a1.86,1.86,0,0,1-.18-.68,1.14,1.14,0,0,1,1.12-1,1,1,0,0,1,1.06.73l.79,2c.18.52.18.36.18.72,0,.54-.68,1-1.31,1a.88.88,0,0,1-.72-.51l-.08-.14Zm9-4.08a4.66,4.66,0,1,1,0,9.29,4.83,4.83,0,0,1-5-4.65A4.82,4.82,0,0,1,24.81,10.37Zm0,6.69c1.24,0,2.61-.64,2.61-2s-1.37-2-2.61-2-2.65.63-2.65,2S23.56,17.06,24.81,17.06Z"/><path class="cls-96" d="M21.33,9.27A1.31,1.31,0,0,1,19.89,8a1.09,1.09,0,0,1,1-1.18,2.8,2.8,0,0,1-1.07-2.51A3.32,3.32,0,0,1,23.28.74h5a1.3,1.3,0,1,1,0,2.59H23.73A1.61,1.61,0,0,0,21.94,5a1.63,1.63,0,0,0,1.79,1.66h4.52a1.3,1.3,0,1,1,0,2.59Z"/><path class="cls-96" d="M19.24,199.46v2A1.16,1.16,0,0,1,18,202.64a1.2,1.2,0,0,1-1.24-1.22v-6.63A1.2,1.2,0,0,1,18,193.57a1.16,1.16,0,0,1,1.24,1.22v2h9a1.35,1.35,0,1,1,0,2.7Z"/><path class="cls-96" d="M21.19,194.74a1.27,1.27,0,0,1-1.3-1.33c0-.68.25-1.26,1.08-1.26v0a2,2,0,0,1-1.08-1.81A1.27,1.27,0,0,1,21.28,189c.84,0,.9.78,1.26,1.55s.7,1.57,1.73,1.57h4a1.3,1.3,0,1,1,0,2.59Z"/><path class="cls-96" d="M28,179.85c.67,0,1.7,0,1.7,1.25,0,.75-.42,1.06-1.1,1.24a3.1,3.1,0,0,1,1.2,2.47c0,2.43-2.07,4.28-5,4.28s-5-1.91-5-4.28A3,3,0,0,1,21,182.34a1.23,1.23,0,0,1-1.08-1.24c0-1.25,1-1.25,1.69-1.25Zm-.57,4.6c0-1.36-1.37-2-2.61-2s-2.65.63-2.65,2,1.4,2.05,2.65,2.05S27.42,185.85,27.42,184.45Z"/><path class="cls-96" d="M21.33,178.38a1.31,1.31,0,0,1-1.44-1.3,1.09,1.09,0,0,1,1-1.18,2.8,2.8,0,0,1-1.07-2.51,3.32,3.32,0,0,1,3.5-3.54h5a1.3,1.3,0,1,1,0,2.59H23.73a1.68,1.68,0,1,0,0,3.35h4.52a1.3,1.3,0,1,1,0,2.59Z"/><path class="cls-96" d="M22.81,162.92c0,.48-.76,1.47-.76,2.32,0,.47.22.88.72.88,1.21,0,1-4.5,4-4.5,1.73,0,3,1.46,3,3.69,0,1.46-.82,3.62-2,3.62a1.23,1.23,0,0,1-1.15-1.12c0-1,.88-1.45.88-2.68,0-.79-.25-1-.73-1-1.19,0-1,4.5-4,4.5-1.8,0-3-1.46-3-3.51,0-1.28.6-3.25,1.88-3.25A1.12,1.12,0,0,1,22.81,162.92Z"/><path class="cls-96" d="M21.33,160.7a1.31,1.31,0,0,1-1.44-1.29,1.25,1.25,0,0,1,1.08-1.3,2.86,2.86,0,0,1-1.19-2.46c0-2.8,2.61-4.18,5.13-4.18s4.88,1.65,4.88,4.27a3.64,3.64,0,0,1-.9,2.37h3.17a1.3,1.3,0,1,1,0,2.59Zm6.09-4.62c0-1.35-1.41-2-2.61-2s-2.65.67-2.65,2,1.3,2,2.56,2S27.42,157.5,27.42,156.08Z"/><path class="cls-96" d="M24.81,141.46a4.66,4.66,0,1,1,0,9.29,4.66,4.66,0,1,1,0-9.29Zm0,6.7c1.24,0,2.61-.65,2.61-2s-1.37-2.06-2.61-2.06-2.65.63-2.65,2.06S23.56,148.16,24.81,148.16Z"/><path class="cls-96" d="M21.19,140.4a1.27,1.27,0,0,1-1.3-1.33c0-.69.25-1.26,1.08-1.26v0A2,2,0,0,1,19.89,136a1.27,1.27,0,0,1,1.39-1.26c.84,0,.9.78,1.26,1.55s.7,1.57,1.73,1.57h4a1.3,1.3,0,1,1,0,2.59Z"/><path class="cls-96" d="M22.27,133.74v.58a1,1,0,0,1-1.14,1.13A1.1,1.1,0,0,1,20,134.32v-.58H18.45a1.3,1.3,0,1,1,0-2.59H20v-.74c0-.67.3-1.24,1.13-1.24a1.1,1.1,0,0,1,1.14,1.24v.74h6a1.3,1.3,0,1,1,0,2.59Z"/><path class="cls-96" d="M25.65,127a2.23,2.23,0,0,0,1.87-2.44c0-1.34-1-2.26-1-2.94a1.15,1.15,0,0,1,1.12-1.06c1.11,0,2.19,2.3,2.19,4.23a4.72,4.72,0,0,1-5,4.86,4.66,4.66,0,1,1-.31-9.31c.77,0,1.15.34,1.15,1.14Zm-1.73-4.06a2,2,0,0,0-2,2.07,2.09,2.09,0,0,0,2,2.05Z"/><path class="cls-96" d="M2.48,361.31a1.33,1.33,0,0,1-1.38-1.39v-3c0-4,2.59-6.33,6.59-6.33a5.82,5.82,0,0,1,6.23,6.15v3.14a1.32,1.32,0,0,1-1.35,1.42Zm9-2.7v-1.82c0-2.32-1.71-3.38-3.87-3.38s-4,1.08-4,3.56v1.64Z"/><path class="cls-96" d="M1.76,346.66a1.49,1.49,0,0,1,1.5,1.46,1.52,1.52,0,0,1-1.5,1.45,1.46,1.46,0,0,1,0-2.91Zm3.91,2.75a1.3,1.3,0,1,1,0-2.59h6.92a1.3,1.3,0,1,1,0,2.59Z"/><path class="cls-96" d="M7.15,339.92c0,.49-.76,1.48-.76,2.33,0,.47.22.88.72.88,1.21,0,1-4.5,4-4.5,1.73,0,3,1.46,3,3.69,0,1.46-.82,3.62-2,3.62A1.23,1.23,0,0,1,11,344.82c0-1,.89-1.46.89-2.68,0-.79-.26-1-.74-1-1.19,0-1,4.5-4,4.5-1.8,0-3-1.45-3-3.51,0-1.28.6-3.24,1.88-3.24A1.12,1.12,0,0,1,7.15,339.92Z"/><path class="cls-96" d="M6.61,337.08v.58a1,1,0,0,1-1.14,1.13,1.1,1.1,0,0,1-1.13-1.13v-.58H2.79a1.3,1.3,0,1,1,0-2.59H4.34v-.74c0-.67.31-1.24,1.13-1.24a1.1,1.1,0,0,1,1.14,1.24v.74h6a1.3,1.3,0,1,1,0,2.59Z"/><path class="cls-96" d="M5.53,332.42a1.27,1.27,0,0,1-1.3-1.33c0-.69.25-1.26,1.08-1.26v0A2,2,0,0,1,4.23,328a1.27,1.27,0,0,1,1.39-1.26c.84,0,.9.78,1.26,1.55s.7,1.57,1.73,1.57h4a1.3,1.3,0,1,1,0,2.59Z"/><path class="cls-96" d="M1.76,323.67a1.49,1.49,0,0,1,1.5,1.46,1.52,1.52,0,0,1-1.5,1.46,1.46,1.46,0,0,1,0-2.92Zm3.91,2.76a1.31,1.31,0,1,1,0-2.6h6.92a1.31,1.31,0,1,1,0,2.6Z"/><path class="cls-96" d="M1.49,322.4a1.31,1.31,0,1,1,0-2.6H5a3.76,3.76,0,0,1-.9-2.47c0-2.79,2.61-4.17,5.13-4.17s4.88,1.66,4.88,4.27A2.8,2.8,0,0,1,13,319.8,1.25,1.25,0,0,1,14,321.1a1.32,1.32,0,0,1-1.44,1.3Zm10.27-4.63c0-1.35-1.41-2-2.61-2s-2.65.67-2.65,2,1.3,2,2.56,2S11.76,319.19,11.76,317.77Z"/><path class="cls-96" d="M5.67,312.06a1.3,1.3,0,1,1,0-2.59H10.3a1.68,1.68,0,0,0,0-3.35H5.67a1.3,1.3,0,1,1,0-2.59h4.68c2.31,0,3.78,1.53,3.78,4.27s-1.47,4.26-3.78,4.26Z"/><path class="cls-96" d="M7,295.61c0,.65-.5,1.22-.5,2.05,0,1.48,1.31,2.18,2.65,2.18a2.39,2.39,0,0,0,2.61-2.18,13.79,13.79,0,0,0-.54-1.92,1.13,1.13,0,0,1,1.13-1.12c1.33,0,1.78,2.23,1.78,3.17a4.71,4.71,0,0,1-5,4.64,4.83,4.83,0,0,1-5-4.64c0-1,.38-3.17,1.64-3.17C6.3,294.62,7,295,7,295.61Z"/><path class="cls-96" d="M1.76,291a1.49,1.49,0,0,1,1.5,1.46,1.52,1.52,0,0,1-1.5,1.46,1.46,1.46,0,0,1,0-2.92Zm3.91,2.76a1.31,1.31,0,1,1,0-2.6h6.92a1.31,1.31,0,1,1,0,2.6Z"/><path class="cls-96" d="M.18,284.9a1.91,1.91,0,0,1-.18-.68,1.15,1.15,0,0,1,1.12-1,1,1,0,0,1,1.06.74L3,286c.18.52.18.36.18.72,0,.54-.68.95-1.31.95a.86.86,0,0,1-.72-.5L1,287Zm9-4.09a4.66,4.66,0,1,1,0,9.29,4.66,4.66,0,1,1,0-9.29Zm0,6.7c1.24,0,2.61-.65,2.61-2.05s-1.37-2-2.61-2-2.65.63-2.65,2S7.9,287.51,9.15,287.51Z"/><path class="cls-96" d="M5.67,279.72a1.31,1.31,0,0,1-1.44-1.3,1.09,1.09,0,0,1,1-1.19,2.78,2.78,0,0,1-1.07-2.5,3.33,3.33,0,0,1,3.5-3.55h5a1.31,1.31,0,1,1,0,2.6H8.07a1.67,1.67,0,1,0,0,3.34h4.52a1.31,1.31,0,1,1,0,2.6Z"/><path class="cls-96" d="M6,265.53a1.62,1.62,0,0,1-.66.13,1.24,1.24,0,0,1-1.12-1.22,1.32,1.32,0,0,1,.92-1.3L10,261.36l-4.88-1.91a1.32,1.32,0,0,1-.92-1.3,1.24,1.24,0,0,1,1.12-1.22,1.47,1.47,0,0,1,.66.12l10.81,4.34a1.39,1.39,0,0,1,1,1.23A1.2,1.2,0,0,1,16.73,264a2.15,2.15,0,0,1-.76-.16l-2.81-1.14Z"/><path class="cls-96" d="M23,354.94c0,.64-.5,1.22-.5,2.05,0,1.47,1.31,2.18,2.65,2.18A2.39,2.39,0,0,0,27.76,357a14.41,14.41,0,0,0-.54-1.93A1.13,1.13,0,0,1,28.35,354c1.33,0,1.78,2.23,1.78,3.16a4.71,4.71,0,0,1-5,4.65,4.83,4.83,0,0,1-5-4.65c0-1,.38-3.16,1.64-3.16C22.3,354,23,354.32,23,354.94Z"/><path class="cls-96" d="M25.15,344.14a4.66,4.66,0,1,1,0,9.29,4.66,4.66,0,1,1,0-9.29Zm0,6.69c1.24,0,2.61-.65,2.61-2.05s-1.37-2-2.61-2-2.65.63-2.65,2S23.9,350.83,25.15,350.83Z"/><path class="cls-96" d="M21.67,343a1.31,1.31,0,0,1-1.44-1.3,1.09,1.09,0,0,1,1-1.18,3.32,3.32,0,0,1,.24-5.1,3.9,3.9,0,0,1-1.32-2.74,3.25,3.25,0,0,1,3.5-3.54h5a1.3,1.3,0,1,1,0,2.59H24.07c-1.05,0-1.79.57-1.79,1.51s.74,1.53,1.79,1.53h4.52a1.3,1.3,0,1,1,0,2.59H24.07c-1.05,0-1.79.58-1.79,1.52s.74,1.53,1.79,1.53h4.52a1.3,1.3,0,1,1,0,2.59Z"/><path class="cls-96" d="M26,325.62a2.25,2.25,0,0,0,1.88-2.45c0-1.34-1.05-2.25-1.05-2.94a1.15,1.15,0,0,1,1.12-1.06c1.11,0,2.19,2.3,2.19,4.23a4.72,4.72,0,0,1-5,4.86,4.66,4.66,0,1,1-.31-9.31A1,1,0,0,1,26,320.09Zm-1.73-4.07a2,2,0,0,0-2,2.07,2.09,2.09,0,0,0,2,2.05Z"/><path class="cls-96" d="M21.53,318.07a1.27,1.27,0,0,1-1.3-1.33c0-.68.25-1.26,1.08-1.26v0a2.05,2.05,0,0,1-1.08-1.82,1.27,1.27,0,0,1,1.39-1.26c.84,0,.9.77,1.26,1.54s.7,1.57,1.73,1.57h4a1.3,1.3,0,1,1,0,2.59Z"/><path class="cls-96" d="M23,305.92c0,.65-.5,1.23-.5,2.06,0,1.47,1.31,2.17,2.65,2.17A2.39,2.39,0,0,0,27.76,308a14,14,0,0,0-.54-1.93,1.14,1.14,0,0,1,1.13-1.12c1.33,0,1.78,2.23,1.78,3.17a4.71,4.71,0,0,1-5,4.65,4.83,4.83,0,0,1-5-4.65c0-1,.38-3.17,1.64-3.17C22.3,304.93,23,305.31,23,305.92Z"/><path class="cls-96" d="M17.76,301.32a1.48,1.48,0,0,1,1.5,1.45,1.52,1.52,0,0,1-1.5,1.46,1.5,1.5,0,0,1-1.42-1.46A1.48,1.48,0,0,1,17.76,301.32Zm3.91,2.75a1.3,1.3,0,1,1,0-2.59h6.92a1.3,1.3,0,1,1,0,2.59Z"/><path class="cls-96" d="M28.33,291.18c.67,0,1.7,0,1.7,1.24,0,.76-.42,1.07-1.1,1.24a3.11,3.11,0,0,1,1.2,2.47c0,2.43-2.07,4.29-5,4.29s-5-1.91-5-4.29a3,3,0,0,1,1.19-2.47,1.23,1.23,0,0,1-1.08-1.24c0-1.24,1-1.24,1.69-1.24Zm-.57,4.59c0-1.35-1.37-2-2.61-2s-2.65.63-2.65,2,1.4,2.05,2.65,2.05S27.76,297.18,27.76,295.77Z"/><path class="cls-96" d="M17.49,289.74a1.3,1.3,0,1,1,0-2.59h11.1a1.3,1.3,0,1,1,0,2.59Z"/><path class="cls-96" d="M17.76,283a1.49,1.49,0,0,1,1.5,1.46,1.52,1.52,0,0,1-1.5,1.46,1.46,1.46,0,0,1,0-2.92Zm3.91,2.76a1.31,1.31,0,1,1,0-2.6h6.92a1.31,1.31,0,1,1,0,2.6Z"/><path class="cls-96" d="M22.61,278v3a1.14,1.14,0,1,1-2.27,0v-5.89a.79.79,0,0,1,.81-.84,1.13,1.13,0,0,1,.77.26l5.73,4.09v-3.42a1.14,1.14,0,1,1,2.27,0v6c0,.58-.29,1.06-.88,1.06a1.45,1.45,0,0,1-.71-.23Z"/><path class="cls-96" d="M28.33,264.2c.67,0,1.7,0,1.7,1.24,0,.76-.42,1.06-1.1,1.24a3.11,3.11,0,0,1,1.2,2.47c0,2.43-2.07,4.29-5,4.29s-5-1.91-5-4.29a3,3,0,0,1,1.19-2.47,1.23,1.23,0,0,1-1.08-1.24c0-1.24,1-1.24,1.69-1.24Zm-.57,4.59c0-1.35-1.37-2-2.61-2s-2.65.63-2.65,2,1.4,2,2.65,2S27.76,270.19,27.76,268.79Z"/><path class="cls-96" d="M23,256.28c0,.65-.5,1.22-.5,2.05,0,1.48,1.31,2.18,2.65,2.18a2.39,2.39,0,0,0,2.61-2.18,13.79,13.79,0,0,0-.54-1.92,1.13,1.13,0,0,1,1.13-1.12c1.33,0,1.78,2.23,1.78,3.17a4.71,4.71,0,0,1-5,4.64,4.82,4.82,0,0,1-5-4.64c0-1,.38-3.17,1.64-3.17C22.3,255.29,23,255.67,23,256.28Z"/><path class="cls-96" d="M17.76,251.67a1.49,1.49,0,0,1,1.5,1.46,1.52,1.52,0,0,1-1.5,1.46,1.46,1.46,0,0,1,0-2.92Zm3.91,2.76a1.31,1.31,0,1,1,0-2.6h6.92a1.31,1.31,0,1,1,0,2.6Z"/><path class="cls-96" d="M16.18,245.57a1.91,1.91,0,0,1-.18-.68,1.15,1.15,0,0,1,1.12-1,1,1,0,0,1,1.06.74l.79,2c.18.52.18.36.18.72,0,.54-.68,1-1.31,1a.86.86,0,0,1-.72-.5L17,247.7Zm9-4.09a4.66,4.66,0,1,1,0,9.29,4.66,4.66,0,1,1,0-9.29Zm0,6.7c1.24,0,2.61-.65,2.61-2.05s-1.37-2-2.61-2-2.65.63-2.65,2S23.9,248.18,25.15,248.18Z"/><path class="cls-96" d="M21.67,240.39a1.31,1.31,0,0,1-1.44-1.3,1.1,1.1,0,0,1,1-1.19,2.78,2.78,0,0,1-1.07-2.5,3.33,3.33,0,0,1,3.5-3.55h5a1.31,1.31,0,1,1,0,2.6H24.07a1.61,1.61,0,0,0-1.79,1.69,1.63,1.63,0,0,0,1.79,1.66h4.52a1.3,1.3,0,1,1,0,2.59Z"/><path class="cls-97" d="M456.74,135.62h-1.41A1.55,1.55,0,0,1,453.7,134a1.6,1.6,0,0,1,1.63-1.65h3.41a1.55,1.55,0,0,1,1.6,1.7v13.66a1.8,1.8,0,1,1-3.6,0Z"/><path class="cls-97" d="M465.19,145.94a1.87,1.87,0,1,1-1.87,1.87A1.87,1.87,0,0,1,465.19,145.94Z"/><path class="cls-96" d="M475.92,134.15a1.76,1.76,0,0,1,1.85-1.84h4c5.38,0,8.45,3.45,8.45,8.78,0,5-3.26,8.31-8.21,8.31h-4.18a1.76,1.76,0,0,1-1.89-1.81Zm3.6,11.93h2.42c3.1,0,4.52-2.28,4.52-5.16,0-3.07-1.44-5.3-4.76-5.3h-2.18Z"/><path class="cls-96" d="M495.46,133.19a2,2,0,0,1-1.95,2,2,2,0,0,1-1.94-2,1.95,1.95,0,0,1,3.89,0Zm-3.68,5.21a1.74,1.74,0,1,1,3.46,0v9.22a1.74,1.74,0,1,1-3.46,0Z"/><path class="cls-96" d="M504.43,140.37c-.65,0-2-1-3.09-1-.63,0-1.18.29-1.18,1,0,1.61,6,1.37,6,5.31,0,2.3-1.94,4.05-4.92,4.05-1.95,0-4.82-1.1-4.82-2.66a1.62,1.62,0,0,1,1.48-1.54c1.35,0,2,1.18,3.58,1.18,1.06,0,1.37-.34,1.37-1,0-1.58-6-1.34-6-5.3,0-2.4,1.94-4,4.68-4,1.7,0,4.32.79,4.32,2.49A1.49,1.49,0,0,1,504.43,140.37Z"/><path class="cls-96" d="M508.22,139.65h-.77a1.4,1.4,0,0,1-1.51-1.51,1.47,1.47,0,0,1,1.51-1.51h.77v-2.07a1.74,1.74,0,1,1,3.46,0v2.07h1c.89,0,1.66.4,1.66,1.51a1.46,1.46,0,0,1-1.66,1.51h-1v8a1.74,1.74,0,1,1-3.46,0Z"/><path class="cls-96" d="M514.44,138.21a1.7,1.7,0,0,1,1.77-1.73c.92,0,1.68.34,1.68,1.44h.05a2.74,2.74,0,0,1,2.43-1.44,1.69,1.69,0,0,1,1.68,1.85c0,1.13-1,1.2-2.07,1.68s-2.09.94-2.09,2.3v5.31a1.73,1.73,0,1,1-3.45,0Z"/><path class="cls-96" d="M526.1,133.19a2,2,0,0,1-1.94,2,2,2,0,0,1-1.95-2,2,2,0,0,1,1.95-1.89A2,2,0,0,1,526.1,133.19Zm-3.67,5.21a1.74,1.74,0,1,1,3.46,0v9.22a1.74,1.74,0,1,1-3.46,0Z"/><path class="cls-96" d="M527.81,132.83a1.73,1.73,0,1,1,3.45,0v4.71a5,5,0,0,1,3.29-1.2c3.72,0,5.57,3.48,5.57,6.84s-2.21,6.5-5.69,6.5a3.75,3.75,0,0,1-3.17-1.58,1.65,1.65,0,0,1-1.73,1.44,1.75,1.75,0,0,1-1.72-1.92ZM534,146.51c1.8,0,2.69-1.87,2.69-3.48s-.89-3.52-2.69-3.52-2.71,1.72-2.71,3.4S532.08,146.51,534,146.51Z"/><path class="cls-96" d="M541.58,138.4a1.74,1.74,0,1,1,3.46,0v6.17a2.23,2.23,0,0,0,4.46,0V138.4a1.74,1.74,0,1,1,3.46,0v6.24c0,3.07-2,5-5.69,5s-5.69-2-5.69-5Z"/><path class="cls-96" d="M563.52,140.18c-.87,0-1.63-.67-2.74-.67-2,0-2.9,1.75-2.9,3.52s1,3.48,2.9,3.48a18.86,18.86,0,0,0,2.57-.72,1.52,1.52,0,0,1,1.49,1.52c0,1.77-3,2.37-4.23,2.37-3.72,0-6.19-3.05-6.19-6.65a6.43,6.43,0,0,1,6.19-6.69c1.37,0,4.23.5,4.23,2.18C564.84,139.24,564.33,140.18,563.52,140.18Z"/><path class="cls-96" d="M569.66,133.19a2,2,0,0,1-1.94,2,2,2,0,0,1-2-2,2,2,0,0,1,2-1.89A2,2,0,0,1,569.66,133.19ZM566,138.4a1.74,1.74,0,1,1,3.46,0v9.22a1.74,1.74,0,1,1-3.46,0Z"/><path class="cls-96" d="M583.25,143c0,3.6-2.48,6.65-6.2,6.65s-6.19-3.05-6.19-6.65a6.21,6.21,0,1,1,12.39,0Zm-5.45-11.95a2.68,2.68,0,0,1,.91-.24,1.53,1.53,0,0,1,1.3,1.49,1.36,1.36,0,0,1-1,1.41l-2.69,1.06c-.69.24-.48.24-1,.24-.72,0-1.27-.91-1.27-1.75a1.19,1.19,0,0,1,.67-1l.2-.1ZM574.32,143c0,1.66.86,3.48,2.73,3.48s2.74-1.82,2.74-3.48-.84-3.52-2.74-3.52S574.32,141.38,574.32,143Z"/><path class="cls-96" d="M584.71,138.4a1.75,1.75,0,0,1,1.73-1.92,1.45,1.45,0,0,1,1.58,1.27,3.76,3.76,0,0,1,3.34-1.41,4.43,4.43,0,0,1,4.73,4.65v6.63a1.74,1.74,0,1,1-3.46,0v-6a2.23,2.23,0,1,0-4.46,0v6a1.74,1.74,0,1,1-3.46,0Z"/><path class="cls-96" d="M604.48,138.4a1.75,1.75,0,0,1,1.73-1.92,1.65,1.65,0,0,1,1.73,1.44,3.84,3.84,0,0,1,3.29-1.58c3.72,0,5.57,3.48,5.57,6.84s-2.21,6.5-5.69,6.5a4.94,4.94,0,0,1-3.17-1.2v4.23a1.74,1.74,0,1,1-3.46,0Zm6.17,8.11c1.8,0,2.69-1.87,2.69-3.48s-.89-3.52-2.69-3.52-2.71,1.72-2.71,3.4S608.76,146.51,610.65,146.51Z"/><path class="cls-96" d="M630.14,143c0,3.6-2.47,6.65-6.19,6.65s-6.19-3.05-6.19-6.65a6.21,6.21,0,1,1,12.38,0Zm-8.93,0c0,1.66.87,3.48,2.74,3.48s2.74-1.82,2.74-3.48-.84-3.52-2.74-3.52S621.21,141.38,621.21,143Z"/><path class="cls-96" d="M631.56,138.21a1.7,1.7,0,0,1,1.77-1.73c.92,0,1.68.34,1.68,1.44h0a2.74,2.74,0,0,1,2.43-1.44,1.69,1.69,0,0,1,1.68,1.85c0,1.13-1,1.2-2.07,1.68s-2.09.94-2.09,2.3v5.31a1.73,1.73,0,1,1-3.45,0Z"/><path class="cls-96" d="M657.84,148.39c0,4.15-2.71,6.24-6.65,6.24-1.42,0-5.45-.7-5.45-2.6a1.69,1.69,0,0,1,1.39-1.51c1.11,0,2.33,1.08,4.32,1.08a2.66,2.66,0,0,0,2.93-2.73v-.82h0a3.94,3.94,0,0,1-3.48,1.63c-3.62,0-5.33-3.19-5.33-6.62s2.21-6.72,5.69-6.72a3.78,3.78,0,0,1,3.17,1.58,1.66,1.66,0,0,1,1.73-1.44,1.75,1.75,0,0,1,1.73,1.92Zm-6.17-8.88c-1.8,0-2.69,1.87-2.69,3.48,0,1.84.89,3.52,2.69,3.52s2.71-1.72,2.71-3.4S653.56,139.51,651.67,139.51Z"/><path class="cls-96" d="M671.61,147.28c0,.89,0,2.26-1.65,2.26-1,0-1.42-.55-1.66-1.47a4.13,4.13,0,0,1-3.29,1.61c-3.24,0-5.71-2.76-5.71-6.65s2.54-6.69,5.71-6.69a4,4,0,0,1,3.29,1.58,1.65,1.65,0,0,1,1.66-1.44c1.65,0,1.65,1.37,1.65,2.26Zm-6.12-.77c1.8,0,2.67-1.82,2.67-3.48s-.84-3.52-2.67-3.52-2.73,1.87-2.73,3.52S663.62,146.51,665.49,146.51Z"/><path class="cls-96" d="M680.85,140.37c-.65,0-2-1-3.09-1-.63,0-1.18.29-1.18,1,0,1.61,6,1.37,6,5.31,0,2.3-1.94,4.05-4.92,4.05-1.94,0-4.82-1.1-4.82-2.66a1.62,1.62,0,0,1,1.48-1.54c1.35,0,1.95,1.18,3.58,1.18,1.06,0,1.37-.34,1.37-1,0-1.58-6-1.34-6-5.3,0-2.4,1.94-4,4.68-4,1.7,0,4.32.79,4.32,2.49A1.49,1.49,0,0,1,680.85,140.37Z"/><path class="cls-96" d="M695.68,143c0,3.6-2.47,6.65-6.19,6.65s-6.19-3.05-6.19-6.65a6.21,6.21,0,1,1,12.38,0Zm-8.92,0c0,1.66.86,3.48,2.73,3.48s2.74-1.82,2.74-3.48-.84-3.52-2.74-3.52S686.76,141.38,686.76,143Z"/><path class="cls-96" d="M709,147.62a1.75,1.75,0,0,1-1.73,1.92,1.66,1.66,0,0,1-1.73-1.44,3.75,3.75,0,0,1-3.17,1.58c-3.48,0-5.69-3.24-5.69-6.5s1.85-6.84,5.57-6.84a5,5,0,0,1,3.29,1.2v-4.71a1.74,1.74,0,1,1,3.46,0Zm-6.17-8.11c-1.8,0-2.69,1.89-2.69,3.52s.89,3.48,2.69,3.48,2.71-1.92,2.71-3.6S704.64,139.51,702.79,139.51Z"/><path class="cls-96" d="M710.92,138.4a1.74,1.74,0,1,1,3.46,0v6.17a2.23,2.23,0,1,0,4.46,0V138.4a1.74,1.74,0,1,1,3.46,0v6.24c0,3.07-2,5-5.69,5s-5.69-2-5.69-5Z"/><path class="cls-96" d="M732.86,140.18c-.86,0-1.63-.67-2.74-.67-2,0-2.9,1.75-2.9,3.52s1,3.48,2.9,3.48a18.86,18.86,0,0,0,2.57-.72,1.52,1.52,0,0,1,1.49,1.52c0,1.77-3,2.37-4.22,2.37-3.72,0-6.2-3.05-6.2-6.65a6.43,6.43,0,0,1,6.2-6.69c1.36,0,4.22.5,4.22,2.18C734.18,139.24,733.68,140.18,732.86,140.18Z"/><path class="cls-96" d="M736.22,139.65h-.77a1.4,1.4,0,0,1-1.51-1.51,1.47,1.47,0,0,1,1.51-1.51h.77v-2.07a1.74,1.74,0,1,1,3.46,0v2.07h1c.89,0,1.66.4,1.66,1.51a1.46,1.46,0,0,1-1.66,1.51h-1v8a1.74,1.74,0,1,1-3.46,0Z"/><path class="cls-96" d="M754.36,143c0,3.6-2.47,6.65-6.19,6.65S742,146.63,742,143a6.21,6.21,0,1,1,12.38,0Zm-8.92,0c0,1.66.86,3.48,2.73,3.48s2.74-1.82,2.74-3.48-.84-3.52-2.74-3.52S745.44,141.38,745.44,143Z"/><path class="cls-97" d="M463.92,233c1.06,0,1.87.48,1.87,1.59a1.55,1.55,0,0,1-1.73,1.58h-8c-1.06,0-1.87-.48-1.87-1.58a2,2,0,0,1,.55-1.23c2-2.37,4.15-4.53,6-7.17a3.94,3.94,0,0,0,.84-2.24,1.79,1.79,0,0,0-1.72-1.84c-2.76,0-1.44,3.88-3.75,3.88a1.66,1.66,0,0,1-1.75-1.75,5.65,5.65,0,0,1,5.64-5.45c3,0,5.33,1.95,5.33,5,0,3.33-3.72,6.64-5.76,9.21Z"/><path class="cls-97" d="M470.09,232.66a1.88,1.88,0,1,1-1.87,1.88A1.88,1.88,0,0,1,470.09,232.66Z"/><path class="cls-96" d="M494.11,226c1.51,0,2.11.77,2.11,2.31,0,4.63-3,8.11-7.82,8.11s-8.26-3.87-8.26-8.84,3.36-8.83,8.26-8.83c3.62,0,6.6,1.71,6.6,3.39a1.52,1.52,0,0,1-1.49,1.68c-1.63,0-2-1.75-5.11-1.75s-4.51,2.61-4.51,5.51,1.46,5.53,4.51,5.53c1.9,0,4.08-1.06,4.08-3.8H490a1.66,1.66,0,1,1,0-3.31Z"/><path class="cls-96" d="M509.42,234c0,.89,0,2.25-1.65,2.25-1,0-1.42-.55-1.66-1.46a4.13,4.13,0,0,1-3.29,1.61c-3.24,0-5.71-2.76-5.71-6.65s2.55-6.7,5.71-6.7a4,4,0,0,1,3.29,1.59,1.65,1.65,0,0,1,1.66-1.44c1.65,0,1.65,1.36,1.65,2.25Zm-6.12-.77c1.8,0,2.67-1.82,2.67-3.48s-.84-3.53-2.67-3.53-2.73,1.87-2.73,3.53S501.43,233.24,503.3,233.24Z"/><path class="cls-96" d="M518.66,227.1c-.64,0-2-1-3.09-1-.63,0-1.18.29-1.18,1,0,1.61,6,1.37,6,5.3,0,2.31-1.94,4.06-4.92,4.06-1.94,0-4.82-1.11-4.82-2.67a1.62,1.62,0,0,1,1.48-1.53c1.35,0,2,1.17,3.58,1.17,1.06,0,1.37-.33,1.37-1,0-1.58-6-1.34-6-5.3,0-2.4,1.94-4,4.68-4,1.7,0,4.32.8,4.32,2.5A1.5,1.5,0,0,1,518.66,227.1Z"/><path class="cls-96" d="M528.05,225.13a1.75,1.75,0,0,1,1.72-1.92,1.46,1.46,0,0,1,1.59,1.27,3.72,3.72,0,0,1,3.34-1.42,4.42,4.42,0,0,1,4.72,4.66v6.62a1.73,1.73,0,1,1-3.45,0v-6a2.24,2.24,0,1,0-4.47,0v6a1.73,1.73,0,1,1-3.45,0Z"/><path class="cls-96" d="M553.2,234c0,.89,0,2.25-1.66,2.25-1,0-1.41-.55-1.65-1.46a4.13,4.13,0,0,1-3.29,1.61c-3.24,0-5.71-2.76-5.71-6.65s2.54-6.7,5.71-6.7a4,4,0,0,1,3.29,1.59,1.63,1.63,0,0,1,1.65-1.44c1.66,0,1.66,1.36,1.66,2.25Zm-6.12-.77c1.8,0,2.66-1.82,2.66-3.48s-.84-3.53-2.66-3.53-2.74,1.87-2.74,3.53S545.21,233.24,547.08,233.24Z"/><path class="cls-96" d="M556,226.38h-.77a1.4,1.4,0,0,1-1.51-1.52,1.47,1.47,0,0,1,1.51-1.51H556v-2.06a1.73,1.73,0,1,1,3.45,0v2.06h1a1.44,1.44,0,0,1,1.65,1.51,1.46,1.46,0,0,1-1.65,1.52h-1v8a1.73,1.73,0,1,1-3.45,0Z"/><path class="cls-96" d="M562.27,225.13a1.74,1.74,0,1,1,3.46,0v6.17a2.23,2.23,0,1,0,4.46,0v-6.17a1.74,1.74,0,1,1,3.46,0v6.24c0,3.07-2,5-5.69,5s-5.69-2-5.69-5Z"/><path class="cls-96" d="M575.57,224.94a1.69,1.69,0,0,1,1.77-1.73c.91,0,1.68.33,1.68,1.44h.05a2.72,2.72,0,0,1,2.42-1.44,1.69,1.69,0,0,1,1.68,1.85c0,1.12-1,1.2-2.06,1.68s-2.09.93-2.09,2.3v5.3a1.73,1.73,0,1,1-3.45,0Z"/><path class="cls-96" d="M595.41,234c0,.89,0,2.25-1.65,2.25-1,0-1.42-.55-1.66-1.46a4.13,4.13,0,0,1-3.29,1.61c-3.24,0-5.71-2.76-5.71-6.65s2.55-6.7,5.71-6.7a4,4,0,0,1,3.29,1.59,1.65,1.65,0,0,1,1.66-1.44c1.65,0,1.65,1.36,1.65,2.25Zm-6.12-.77c1.8,0,2.67-1.82,2.67-3.48s-.84-3.53-2.67-3.53-2.73,1.87-2.73,3.53S587.42,233.24,589.29,233.24Z"/><path class="cls-96" d="M597.33,219.56a1.74,1.74,0,1,1,3.46,0v14.78a1.74,1.74,0,1,1-3.46,0Z"/><path class="cls-96" d="M617.73,226.9c-.86,0-1.63-.67-2.73-.67-2,0-2.91,1.75-2.91,3.53s1,3.48,2.91,3.48a19.29,19.29,0,0,0,2.57-.72,1.52,1.52,0,0,1,1.48,1.51c0,1.78-3,2.38-4.22,2.38-3.72,0-6.19-3-6.19-6.65s2.54-6.7,6.19-6.7c1.37,0,4.22.51,4.22,2.19C619.05,226,618.55,226.9,617.73,226.9Z"/><path class="cls-96" d="M632.13,229.76c0,3.6-2.47,6.65-6.19,6.65s-6.19-3-6.19-6.65,2.54-6.7,6.19-6.7S632.13,226.26,632.13,229.76Zm-8.92,0c0,1.66.86,3.48,2.73,3.48s2.74-1.82,2.74-3.48-.84-3.53-2.74-3.53S623.21,228.1,623.21,229.76Z"/><path class="cls-96" d="M633.6,225.13a1.75,1.75,0,0,1,1.73-1.92,1.46,1.46,0,0,1,1.58,1.29,4.29,4.29,0,0,1,3.22-1.44,4.38,4.38,0,0,1,3.57,1.76,5.19,5.19,0,0,1,3.65-1.76c2.81,0,4.73,1.64,4.73,4.66v6.62a1.74,1.74,0,1,1-3.46,0v-6c0-1.39-.77-2.38-2-2.38s-2,1-2,2.38v6a1.74,1.74,0,1,1-3.46,0v-6c0-1.39-.77-2.38-2-2.38-1.41,0-2,1-2,2.38v6a1.73,1.73,0,1,1-3.45,0Z"/><path class="cls-96" d="M654,225.13a1.75,1.75,0,0,1,1.73-1.92,1.65,1.65,0,0,1,1.73,1.44,3.83,3.83,0,0,1,3.29-1.59c3.72,0,5.57,3.48,5.57,6.84s-2.21,6.51-5.69,6.51a4.94,4.94,0,0,1-3.17-1.2v4.22a1.74,1.74,0,1,1-3.46,0Zm6.17,8.11c1.8,0,2.69-1.87,2.69-3.48s-.89-3.53-2.69-3.53-2.71,1.73-2.71,3.41S658.32,233.24,660.21,233.24Z"/><path class="cls-96" d="M667.77,224.94a1.69,1.69,0,0,1,1.78-1.73c.91,0,1.68.33,1.68,1.44h0a2.71,2.71,0,0,1,2.42-1.44,1.69,1.69,0,0,1,1.68,1.85c0,1.12-1,1.2-2.06,1.68s-2.09.93-2.09,2.3v5.3a1.74,1.74,0,1,1-3.46,0Z"/><path class="cls-96" d="M679.44,219.92a2,2,0,0,1-2,2,2,2,0,0,1-1.94-2,1.95,1.95,0,0,1,3.89,0Zm-3.68,5.21a1.74,1.74,0,1,1,3.46,0v9.21a1.74,1.74,0,1,1-3.46,0Z"/><path class="cls-96" d="M681.14,225.13a1.75,1.75,0,0,1,1.73-1.92,1.45,1.45,0,0,1,1.58,1.29,4.31,4.31,0,0,1,3.22-1.44,4.38,4.38,0,0,1,3.57,1.76,5.21,5.21,0,0,1,3.65-1.76c2.81,0,4.73,1.64,4.73,4.66v6.62a1.73,1.73,0,1,1-3.45,0v-6c0-1.39-.77-2.38-2-2.38a2.1,2.1,0,0,0-2,2.38v6a1.74,1.74,0,1,1-3.46,0v-6c0-1.39-.77-2.38-2-2.38-1.42,0-2,1-2,2.38v6a1.74,1.74,0,1,1-3.46,0Z"/><path class="cls-96" d="M705.21,219.92a2,2,0,0,1-1.94,2,2,2,0,0,1-1.95-2,2,2,0,0,1,1.95-1.9A2,2,0,0,1,705.21,219.92Zm-3.67,5.21a1.74,1.74,0,1,1,3.46,0v9.21a1.74,1.74,0,1,1-3.46,0Z"/><path class="cls-96" d="M718.72,234.34a1.74,1.74,0,0,1-1.72,1.92,1.65,1.65,0,0,1-1.73-1.44,3.76,3.76,0,0,1-3.17,1.59c-3.48,0-5.69-3.24-5.69-6.51s1.85-6.84,5.57-6.84a5,5,0,0,1,3.29,1.2v-4.7a1.73,1.73,0,1,1,3.45,0Zm-6.16-8.11c-1.8,0-2.69,1.9-2.69,3.53s.89,3.48,2.69,3.48,2.71-1.92,2.71-3.6S714.4,226.23,712.56,226.23Z"/><path class="cls-96" d="M732.57,229.76c0,3.6-2.47,6.65-6.19,6.65s-6.19-3-6.19-6.65,2.54-6.7,6.19-6.7S732.57,226.26,732.57,229.76Zm-8.93,0c0,1.66.87,3.48,2.74,3.48s2.74-1.82,2.74-3.48-.84-3.53-2.74-3.53S723.64,228.1,723.64,229.76Z"/><path class="cls-96" d="M745.15,220.14a7.85,7.85,0,0,1-.46,1.58,24.65,24.65,0,0,0-1.25,7.56,22.19,22.19,0,0,0,1.11,7.1,14.64,14.64,0,0,1,.6,1.9,1.47,1.47,0,0,1-1.54,1.54,1.49,1.49,0,0,1-1.25-.91c-1.27-2.21-1.94-7.11-1.94-9.63,0-2.26.77-8.54,2.4-10.22a1.09,1.09,0,0,1,.79-.32A1.46,1.46,0,0,1,745.15,220.14Z"/><path class="cls-96" d="M759.64,226c1.52,0,2.12.77,2.12,2.31,0,4.63-3,8.11-7.83,8.11s-8.26-3.87-8.26-8.84,3.37-8.83,8.26-8.83c3.63,0,6.6,1.71,6.6,3.39a1.52,1.52,0,0,1-1.49,1.68c-1.63,0-2-1.75-5.11-1.75-3,0-4.51,2.61-4.51,5.51s1.46,5.53,4.51,5.53c1.9,0,4.08-1.06,4.08-3.8h-2.45a1.66,1.66,0,1,1,0-3.31Z"/><path class="cls-96" d="M763.1,220.76a1.72,1.72,0,0,1,1.8-1.87,2.25,2.25,0,0,1,1.51.79L774,229.83h.05v-9.07a1.8,1.8,0,1,1,3.6,0v13.63a1.72,1.72,0,0,1-1.8,1.87,2.23,2.23,0,0,1-1.51-.79l-7.61-10h0v8.95a1.8,1.8,0,1,1-3.6,0Z"/><path class="cls-96" d="M787.27,218.74c1.75,0,5.16.58,5.16,2.69a1.52,1.52,0,0,1-1.49,1.61c-1,0-1.66-.84-3.67-.84-3,0-4.52,2.52-4.52,5.45s1.56,5.3,4.52,5.3c2,0,2.83-1,3.81-1a1.7,1.7,0,0,1,1.59,1.64c0,2.3-3.63,2.83-5.4,2.83-4.87,0-8.26-3.87-8.26-8.84S782.37,218.74,787.27,218.74Z"/><path class="cls-96" d="M793.39,238.42a7.81,7.81,0,0,1,.45-1.58,24.65,24.65,0,0,0,1.25-7.56,22.57,22.57,0,0,0-1.1-7.11,14.06,14.06,0,0,1-.6-1.89,1.46,1.46,0,0,1,1.53-1.54,1.49,1.49,0,0,1,1.25.92c1.27,2.2,1.94,7.1,1.94,9.62,0,2.26-.76,8.54-2.4,10.22a1.08,1.08,0,0,1-.79.32A1.46,1.46,0,0,1,793.39,238.42Z"/><path class="cls-97" d="M464.71,309.86a4.19,4.19,0,0,1-2,3.67,4.78,4.78,0,0,1,2.93,4.3c0,2.88-2.64,5.3-6.05,5.3s-5.76-2.61-5.76-4.51a1.82,1.82,0,0,1,1.85-1.61c1.63,0,1.25,2.81,4,2.81a2.22,2.22,0,0,0,2.26-2.23c0-3.36-4.08-.89-4.08-3.72,0-2.52,3.41-.82,3.41-3.48a1.59,1.59,0,0,0-1.73-1.61c-2.28,0-2,2.35-3.6,2.35a1.65,1.65,0,0,1-1.56-1.77c0-1.87,2.57-3.89,5.23-3.89C463.06,305.47,464.71,308,464.71,309.86Z"/><path class="cls-97" d="M470.09,319.39a1.87,1.87,0,1,1-1.87,1.87A1.87,1.87,0,0,1,470.09,319.39Z"/><path class="cls-96" d="M494.11,312.72c1.51,0,2.11.77,2.11,2.3,0,4.63-3,8.11-7.82,8.11s-8.26-3.86-8.26-8.83,3.36-8.83,8.26-8.83c3.62,0,6.6,1.7,6.6,3.38a1.52,1.52,0,0,1-1.49,1.68c-1.63,0-2-1.75-5.11-1.75s-4.51,2.62-4.51,5.52,1.46,5.52,4.51,5.52c1.9,0,4.08-1.05,4.08-3.79H490a1.62,1.62,0,0,1-1.68-1.68,1.6,1.6,0,0,1,1.68-1.63Z"/><path class="cls-96" d="M509.42,320.73c0,.89,0,2.26-1.65,2.26-1,0-1.42-.55-1.66-1.46a4.15,4.15,0,0,1-3.29,1.6c-3.24,0-5.71-2.76-5.71-6.64s2.55-6.7,5.71-6.7a3.94,3.94,0,0,1,3.29,1.58,1.65,1.65,0,0,1,1.66-1.44c1.65,0,1.65,1.37,1.65,2.26ZM503.3,320c1.8,0,2.67-1.83,2.67-3.48s-.84-3.53-2.67-3.53-2.73,1.87-2.73,3.53S501.43,320,503.3,320Z"/><path class="cls-96" d="M518.66,313.82c-.64,0-2-1-3.09-1-.63,0-1.18.29-1.18,1,0,1.61,6,1.37,6,5.31,0,2.3-1.94,4.05-4.92,4.05-1.94,0-4.82-1.1-4.82-2.66a1.62,1.62,0,0,1,1.48-1.54c1.35,0,2,1.18,3.58,1.18,1.06,0,1.37-.34,1.37-1,0-1.59-6-1.35-6-5.31,0-2.4,1.94-4,4.68-4,1.7,0,4.32.79,4.32,2.49A1.49,1.49,0,0,1,518.66,313.82Z"/><path class="cls-96" d="M528.05,311.85a1.75,1.75,0,0,1,1.72-1.92,1.46,1.46,0,0,1,1.59,1.27,3.74,3.74,0,0,1,3.34-1.41,4.42,4.42,0,0,1,4.72,4.66v6.62a1.73,1.73,0,1,1-3.45,0v-6a2.24,2.24,0,1,0-4.47,0v6a1.73,1.73,0,1,1-3.45,0Z"/><path class="cls-96" d="M553.2,320.73c0,.89,0,2.26-1.66,2.26-1,0-1.41-.55-1.65-1.46a4.15,4.15,0,0,1-3.29,1.6c-3.24,0-5.71-2.76-5.71-6.64s2.54-6.7,5.71-6.7a4,4,0,0,1,3.29,1.58,1.63,1.63,0,0,1,1.65-1.44c1.66,0,1.66,1.37,1.66,2.26Zm-6.12-.76c1.8,0,2.66-1.83,2.66-3.48s-.84-3.53-2.66-3.53-2.74,1.87-2.74,3.53S545.21,320,547.08,320Z"/><path class="cls-96" d="M556,313.1h-.77a1.39,1.39,0,0,1-1.51-1.51,1.47,1.47,0,0,1,1.51-1.51H556V308a1.73,1.73,0,1,1,3.45,0v2.07h1a1.52,1.52,0,1,1,0,3h-1v8a1.73,1.73,0,1,1-3.45,0Z"/><path class="cls-96" d="M562.27,311.85a1.74,1.74,0,1,1,3.46,0V318a2.23,2.23,0,0,0,4.46,0v-6.17a1.74,1.74,0,1,1,3.46,0v6.24c0,3.08-2,5-5.69,5s-5.69-2-5.69-5Z"/><path class="cls-96" d="M575.57,311.66a1.7,1.7,0,0,1,1.77-1.73c.91,0,1.68.34,1.68,1.44h.05a2.72,2.72,0,0,1,2.42-1.44,1.69,1.69,0,0,1,1.68,1.85c0,1.13-1,1.2-2.06,1.68s-2.09.94-2.09,2.31v5.3a1.73,1.73,0,1,1-3.45,0Z"/><path class="cls-96" d="M595.41,320.73c0,.89,0,2.26-1.65,2.26-1,0-1.42-.55-1.66-1.46a4.15,4.15,0,0,1-3.29,1.6c-3.24,0-5.71-2.76-5.71-6.64s2.55-6.7,5.71-6.7a3.94,3.94,0,0,1,3.29,1.58,1.65,1.65,0,0,1,1.66-1.44c1.65,0,1.65,1.37,1.65,2.26Zm-6.12-.76c1.8,0,2.67-1.83,2.67-3.48s-.84-3.53-2.67-3.53-2.73,1.87-2.73,3.53S587.42,320,589.29,320Z"/><path class="cls-96" d="M597.33,306.28a1.74,1.74,0,1,1,3.46,0v14.79a1.74,1.74,0,1,1-3.46,0Z"/><path class="cls-96" d="M609.09,306.28a1.74,1.74,0,1,1,3.46,0v14.79a1.74,1.74,0,1,1-3.46,0Z"/><path class="cls-96" d="M618.09,306.65a2,2,0,0,1-1.94,2,2,2,0,0,1-1.95-2,2,2,0,0,1,1.95-1.9A2,2,0,0,1,618.09,306.65Zm-3.67,5.2a1.74,1.74,0,1,1,3.46,0v9.22a1.74,1.74,0,1,1-3.46,0Z"/><path class="cls-96" d="M628.39,313.63c-.87,0-1.63-.67-2.74-.67-2,0-2.9,1.75-2.9,3.53s1,3.48,2.9,3.48a18.86,18.86,0,0,0,2.57-.72,1.51,1.51,0,0,1,1.49,1.51c0,1.77-3,2.37-4.23,2.37-3.72,0-6.19-3-6.19-6.64a6.43,6.43,0,0,1,6.19-6.7c1.37,0,4.23.5,4.23,2.18C629.71,312.69,629.21,313.63,628.39,313.63Z"/><path class="cls-96" d="M630.91,311.85a1.73,1.73,0,1,1,3.45,0V318a2.24,2.24,0,0,0,4.47,0v-6.17a1.73,1.73,0,1,1,3.45,0v6.24c0,3.08-2,5-5.68,5s-5.69-2-5.69-5Z"/><path class="cls-96" d="M656.06,320.73c0,.89,0,2.26-1.65,2.26-1,0-1.42-.55-1.66-1.46a4.15,4.15,0,0,1-3.29,1.6c-3.24,0-5.71-2.76-5.71-6.64s2.54-6.7,5.71-6.7a4,4,0,0,1,3.29,1.58,1.63,1.63,0,0,1,1.66-1.44c1.65,0,1.65,1.37,1.65,2.26Zm-6.12-.76c1.8,0,2.67-1.83,2.67-3.48s-.85-3.53-2.67-3.53-2.74,1.87-2.74,3.53S648.07,320,649.94,320Z"/><path class="cls-96" d="M669.84,321.07a1.75,1.75,0,0,1-1.73,1.92,1.66,1.66,0,0,1-1.73-1.44,3.75,3.75,0,0,1-3.17,1.58c-3.48,0-5.69-3.24-5.69-6.5s1.85-6.84,5.57-6.84a5,5,0,0,1,3.29,1.2v-4.71a1.74,1.74,0,1,1,3.46,0ZM663.67,313c-1.8,0-2.69,1.89-2.69,3.53s.89,3.48,2.69,3.48,2.71-1.92,2.71-3.6S665.52,313,663.67,313Z"/><path class="cls-96" d="M683.68,316.49c0,3.6-2.47,6.64-6.19,6.64s-6.19-3-6.19-6.64a6.21,6.21,0,1,1,12.38,0Zm-8.92,0c0,1.65.86,3.48,2.73,3.48s2.74-1.83,2.74-3.48-.84-3.53-2.74-3.53S674.76,314.83,674.76,316.49Z"/><path class="cls-96" d="M696.26,306.86a7.85,7.85,0,0,1-.46,1.58,24.68,24.68,0,0,0-1.24,7.56,22.29,22.29,0,0,0,1.1,7.11,14.17,14.17,0,0,1,.6,1.9,1.46,1.46,0,0,1-1.54,1.53,1.48,1.48,0,0,1-1.24-.91c-1.28-2.21-2-7.1-2-9.63,0-2.25.77-8.54,2.4-10.22a1.13,1.13,0,0,1,.79-.31A1.45,1.45,0,0,1,696.26,306.86Z"/><path class="cls-96" d="M710.76,312.72c1.51,0,2.11.77,2.11,2.3,0,4.63-3,8.11-7.83,8.11s-8.25-3.86-8.25-8.83,3.36-8.83,8.25-8.83c3.63,0,6.6,1.7,6.6,3.38a1.51,1.51,0,0,1-1.48,1.68c-1.64,0-2-1.75-5.12-1.75-3,0-4.51,2.62-4.51,5.52s1.47,5.52,4.51,5.52c1.9,0,4.08-1.05,4.08-3.79h-2.44a1.61,1.61,0,0,1-1.68-1.68,1.59,1.59,0,0,1,1.68-1.63Z"/><path class="cls-96" d="M714.21,307.49a1.72,1.72,0,0,1,1.8-1.88,2.2,2.2,0,0,1,1.51.8l7.61,10.15h0v-9.07a1.8,1.8,0,1,1,3.6,0v13.63A1.72,1.72,0,0,1,727,323a2.27,2.27,0,0,1-1.51-.79l-7.61-10h-.05v9a1.8,1.8,0,1,1-3.6,0Z"/><path class="cls-96" d="M730.79,307.49a1.81,1.81,0,1,1,3.61,0v12h4.27a1.64,1.64,0,0,1,1.73,1.73,1.69,1.69,0,0,1-1.73,1.59h-6a1.78,1.78,0,0,1-1.88-2Z"/><path class="cls-96" d="M740.06,325.15a7.85,7.85,0,0,1,.46-1.58,24.7,24.7,0,0,0,1.24-7.57,22.27,22.27,0,0,0-1.1-7.1,14.17,14.17,0,0,1-.6-1.9,1.46,1.46,0,0,1,1.54-1.53,1.48,1.48,0,0,1,1.24.91c1.28,2.21,1.95,7.11,1.95,9.62,0,2.26-.77,8.55-2.4,10.23a1.09,1.09,0,0,1-.79.31A1.45,1.45,0,0,1,740.06,325.15Z"/></g></g></g></svg>