<svg xmlns="http://www.w3.org/2000/svg" xmlns:xlink="http://www.w3.org/1999/xlink" viewBox="0 0 260.23 215.79"><defs><style>.cls-1,.cls-10,.cls-11,.cls-12,.cls-13{fill:none;}.cls-2{isolation:isolate;}.cls-3{opacity:0.46;}.cls-4{clip-path:url(#clip-path);}.cls-5{fill:#acd29d;}.cls-6{fill:#a6bc6d;}.cls-7{fill:#198780;}.cls-8{fill:#b5e0f2;}.cls-9{fill:#74baa2;}.cls-10,.cls-11,.cls-12,.cls-13{stroke:#fff;stroke-miterlimit:10;}.cls-10{stroke-width:1.01px;}.cls-11{stroke-width:1.11px;}.cls-12,.cls-13{stroke-linecap:round;}.cls-12{stroke-width:0.7px;}.cls-13{stroke-width:0.76px;}.cls-14{fill:#5b5e66;}.cls-15{fill:#34373b;}.cls-16{fill:#62656e;}.cls-17{fill:#231f20;}.cls-18{fill:#4d5057;}.cls-19{fill:#646770;}.cls-20{fill:#54595e;}.cls-21{fill:#015792;}.cls-22,.cls-23,.cls-26,.cls-27{mix-blend-mode:screen;}.cls-22,.cls-26{opacity:0.27;}.cls-22{fill:url(#linear-gradient);}.cls-23,.cls-27{opacity:0.21;}.cls-23{fill:url(#linear-gradient-2);}.cls-24{fill:#686b70;}.cls-25{fill:#242629;}.cls-26{fill:url(#linear-gradient-3);}.cls-27{fill:url(#linear-gradient-4);}.cls-28{fill:#51545b;}.cls-29{fill:#747882;}.cls-30{fill:#60636b;}.cls-31{fill:#676a73;}.cls-32{fill:#8b909c;}</style><clipPath id="clip-path"><rect class="cls-1" x="33.66" y="200.46" width="187.81" height="11.27"/></clipPath><linearGradient id="linear-gradient" x1="165.64" y1="162.22" x2="215.69" y2="162.22" gradientUnits="userSpaceOnUse"><stop offset="0" stop-color="#fff"/><stop offset="1"/></linearGradient><linearGradient id="linear-gradient-2" x1="162.32" y1="158.22" x2="209.29" y2="158.22" xlink:href="#linear-gradient"/><linearGradient id="linear-gradient-3" x1="356.3" y1="162.22" x2="406.35" y2="162.22" gradientTransform="matrix(-1, 0, 0, 1, 451.37, 0)" xlink:href="#linear-gradient"/><linearGradient id="linear-gradient-4" x1="352.98" y1="158.22" x2="399.95" y2="158.22" gradientTransform="matrix(-1, 0, 0, 1, 451.37, 0)" xlink:href="#linear-gradient"/></defs><g class="cls-2"><g id="Capa_2" data-name="Capa 2"><g id="Capa_1-2" data-name="Capa 1"><g class="cls-3"><g class="cls-4"><path class="cls-5" d="M221.46,206.1c0,3.11-42,5.63-93.9,5.63s-93.9-2.52-93.9-5.63,42-5.64,93.9-5.64,93.9,2.52,93.9,5.64"/></g></g><path class="cls-6" d="M228,103.51A99.52,99.52,0,1,1,128.51,4,99.52,99.52,0,0,1,228,103.51"/><path class="cls-7" d="M16,123.62c-5.42.18-4.71-5.64-.22-6.33,3.92-.6,8.61,1.55,9.72,2.1a55.48,55.48,0,0,1-4.12-6.27c-1.16-.89-4.71-3.89-5.92-8.24-1.45-5.22,4.38-5.9,6.1-1.7,1.36,3.31.7,7.72.36,9.46A49.82,49.82,0,0,0,25,117.47c-.28-2.08-.54-5.78.71-8.62,1.82-4.16,7.62-3.34,6.05,1.85a16.86,16.86,0,0,1-5.9,8c1.51,2,3.34,4.3,5.44,6.61-.29-2.05-.57-5.84.69-8.72,1.82-4.16,7.63-3.34,6.06,1.85a16.77,16.77,0,0,1-5.82,7.88,83.44,83.44,0,0,0,6.61,6.3c-.3-1.77-.84-6.17.58-9.41C41.2,119,47,119.81,45.43,125a16.89,16.89,0,0,1-6.06,8.06A66.94,66.94,0,0,0,48,139.19c-.25-1.25-1.1-6.3.48-9.91,1.83-4.16,7.63-3.35,6.06,1.84-1.38,4.56-5.35,7.57-6.28,8.22a49.35,49.35,0,0,0,10,4.51c-.18-.88-1.21-6.27.46-10.07,1.82-4.16,7.63-3.35,6.06,1.84-1.43,4.71-5.61,7.76-6.37,8.28a40.51,40.51,0,0,0,6.77,1.53.36.36,0,0,1,.3.39.35.35,0,0,1-.29.29h-.1a41.85,41.85,0,0,1-6.75-1.52A16.91,16.91,0,0,1,51.43,152c-4.83,2.46-6.65-3.11-2.88-5.64,2.63-1.77,6.44-2.15,8.5-2.22a51.54,51.54,0,0,1-8.68-4c-.93,1.18-3.95,4.65-8.27,5.8-5.23,1.4-5.86-4.43-1.64-6.11,2.89-1.16,6.62-.77,8.68-.42a66.51,66.51,0,0,1-8.37-6c-.62.83-3.78,4.8-8.46,6.05-5.24,1.4-5.86-4.43-1.64-6.11,3.56-1.43,8.38-.51,9.79-.19-1.49-1.26-2.85-2.51-4.08-3.7-.89-.87-1.75-1.74-2.57-2.61-.68.9-3.81,4.79-8.44,6-5.23,1.39-5.86-4.43-1.64-6.12,3.53-1.41,8.3-.53,9.76-.2,0,0,0,0,0,0a84.83,84.83,0,0,1-5.87-7c-.65.56-4.7,3.87-9.66,4"/><path class="cls-7" d="M28.44,184.73c-4.18.7-2.74,5.05.81,4.88,3.09-.14,6.34-2.51,7.11-3.1a43.27,43.27,0,0,0-2.19,5.43,13.33,13.33,0,0,0-3.26,7.22c-.3,4.21,4.26,3.84,4.93.36.53-2.74-.65-6-1.18-7.29a38,38,0,0,1,1.62-4.18,13.39,13.39,0,0,0,1.86,6.49c2,2.9,6.35,1.38,4.35-2.34A13.15,13.15,0,0,0,36.75,187a66.28,66.28,0,0,1,3.15-5.9,13.51,13.51,0,0,0,1.87,6.57c2,2.9,6.35,1.38,4.35-2.35a13,13,0,0,0-5.67-5.13,65.59,65.59,0,0,1,4.09-5.85c0,1.41.31,4.85,1.89,7.12,2,2.9,6.36,1.38,4.36-2.35a13.22,13.22,0,0,0-5.88-5.23,52.32,52.32,0,0,1,5.65-6c0,1,.13,5,1.9,7.51,2,2.9,6.36,1.39,4.36-2.34a13.38,13.38,0,0,0-6.08-5.33,39.27,39.27,0,0,1,6.95-5c0,.71,0,5,1.9,7.65,2,2.9,6.35,1.38,4.35-2.35a13.37,13.37,0,0,0-6.15-5.35,31.52,31.52,0,0,1,5-2.22.26.26,0,0,0,.16-.34.27.27,0,0,0-.26-.18l-.08,0a31.69,31.69,0,0,0-4.93,2.19,13.18,13.18,0,0,0-6.42-4.63c-4.07-1.14-4.61,3.41-1.34,4.76,2.29.95,5.27.65,6.86.39a39,39,0,0,0-6,4.38,13.1,13.1,0,0,0-7.22-3.17c-4.22-.27-3.8,4.29-.32,4.93a13.48,13.48,0,0,0,6.71-1,52.05,52.05,0,0,0-5.48,5.88A13.37,13.37,0,0,0,37,170.34c-4.22-.26-3.8,4.3-.31,4.94,3,.54,6.49-.9,7.52-1.37-.94,1.19-1.79,2.36-2.55,3.46-.55.8-1.07,1.6-1.57,2.39a13.36,13.36,0,0,0-7.38-3.31c-4.22-.26-3.8,4.3-.31,4.94,2.92.53,6.43-.88,7.5-1.35v0a64.69,64.69,0,0,0-3.42,6.25,13.31,13.31,0,0,0-8-1.6"/><path class="cls-7" d="M65.42,181.65c2.23-.06,6.06,3,5.36,8.33-1.65-2.92-3.65-4.27-4.61-3s1.1,1.73,2.29,3.12a4.46,4.46,0,0,1,1.3,3.55,16.74,16.74,0,0,1-4,5.25c.75-2.91-.34-7.46-2.08-6.58s2.26,3.52-1,8.78A15.93,15.93,0,0,1,58.44,203s1.11-6-1-5.54.24,3.63-1.38,6c-1.81,0-7,.72-7,.72l-1.48-6.78a8.51,8.51,0,0,1,3.95-2.05c2-.23,1.71-1.64.56-1.85a6,6,0,0,0-4.69,1.78c-.23-1.78.16-4.7.63-5.35s3.34-3,6.13-2.61c1.09.16,1.49-.18,1.58-.74s-.58-1-1.64-1.2a8,8,0,0,0-5.09,1.39,15.36,15.36,0,0,1,3.62-5.43c.72-.48,3-.47,4.89.56.77.51,1.87,1.46,2.51.72s.09-1.25-1.26-2.24a5.52,5.52,0,0,0-3.19-1.1,8.07,8.07,0,0,1,5.49-.86,6,6,0,0,1,4.3,3.26"/><path class="cls-8" d="M68.17,178.38l-.58-.41-3.88,5.36-14.09,2.12c-.13.26-.25.52-.36.77l1-.14a7.43,7.43,0,0,1,3.92-.72l.35.07,8.63-1.29-2.27,3.12L49,189.05a4.9,4.9,0,0,0-.91.85h0l12.2-1.83-2.34,3.22-10.51,1.59c0,.24,0,.48,0,.72l10-1.5L55,195.33l-5.78.87a11.06,11.06,0,0,0-1.29.91l6.49-1-1.82,2.51-4.55.68.15.7,3.82-.57-3,4.18.12.52.43-.06,3.11-4.29.89,3.83.71-.07-1-4.52,1.73-2.39,1.45,6.19a4.54,4.54,0,0,0,.29-1.88l-1.18-5.08,2.37-3.27,2.27,9.77.67-.28-2.39-10.25,2.37-3.27,2.59,11.1a8.48,8.48,0,0,0,.43-1.29l-2.46-10.58,2.28-3.15,3.1,13.28c.19-.2.39-.42.58-.64l-3.13-13.4Z"/><path class="cls-7" d="M42.61,144c12.43-3.58,22.3,4.46,22.3,4.46s-4.08,12.06-16.51,15.64-28.48-2.68-28.48-2.68S30.19,147.55,42.61,144"/><path class="cls-9" d="M54.38,147.78a28.06,28.06,0,0,0-3.07-1.25,14.27,14.27,0,0,0-2.18-.56,8,8,0,0,0-.82-.09,17.91,17.91,0,0,1,2.74,1.25c.81.44,1.76,1,2.81,1.63l1.64,1,.41.24c-2.67.8-5.24,1.58-7.65,2.33l-.06,0a23.84,23.84,0,0,0-7.45-3.19,13.14,13.14,0,0,0-2.45-.31c-.58,0-.9,0-.9,0l.87.18a17,17,0,0,1,2.29.74,40.79,40.79,0,0,1,6,3.11c-2.77.87-5.32,1.7-7.58,2.45l-.12-.08-.67-.41c-.45-.26-.88-.5-1.31-.72a14.89,14.89,0,0,0-2.34-1,8.17,8.17,0,0,0-1.67-.35,5.75,5.75,0,0,0-.62,0l.6.12a10.85,10.85,0,0,1,1.58.55,23.85,23.85,0,0,1,2.18,1.15l1.25.77.32.21c-6.17,2.05-10,3.43-10,3.43s4-.87,10.3-2.42c-.06.12-.12.24-.17.36-.22.46-.43.9-.64,1.31a22.1,22.1,0,0,1-1.24,2.13,11.67,11.67,0,0,1-1,1.31l-.45.42s.19-.11.52-.34a9.19,9.19,0,0,0,1.23-1.19,14.55,14.55,0,0,0,1.46-2.06c.25-.41.49-.85.73-1.3l.35-.71.06-.13c2.31-.57,4.91-1.23,7.72-2a40.73,40.73,0,0,1-3.46,5.85,18.24,18.24,0,0,1-1.54,1.84l-.65.62s.29-.15.78-.46a12.1,12.1,0,0,0,1.9-1.57A23.63,23.63,0,0,0,48.7,154l0-.06c2.45-.65,5-1.35,7.71-2.1l-.21.43L55.37,154c-.54,1.09-1,2.07-1.51,2.87a16.1,16.1,0,0,1-1.65,2.52,7,7,0,0,0,.64-.51,13.36,13.36,0,0,0,1.55-1.63,26.61,26.61,0,0,0,1.94-2.7c.34-.53.67-1.09,1-1.68s.54-1,.82-1.5l2.26-.65c1.62-.47,3-.9,4.08-1.3.27-.63.4-1,.4-1s-.32-.26-.89-.65c-1.14.25-2.52.6-4.14,1.07l-2.26.66-1.49-.84c-.6-.32-1.18-.62-1.75-.89"/><path class="cls-7" d="M22,139.77a10.25,10.25,0,0,1,6.23,6.31,10.27,10.27,0,0,1-8.75,1.44c-4.8-1.55-8.61-7.08-8.61-7.08s6.34-2.23,11.13-.67"/><path class="cls-9" d="M25,143.57a11.21,11.21,0,0,0-.72-1.08,6.18,6.18,0,0,0-.58-.65,2.58,2.58,0,0,0-.25-.21,6,6,0,0,1,.61,1c.17.32.36.71.56,1.14.09.22.2.45.31.69,0,0,0,.11.07.17-1-.33-2-.64-3-.92l0,0A9.26,9.26,0,0,0,20.31,141a4.91,4.91,0,0,0-.72-.63l-.29-.19.24.25a5.91,5.91,0,0,1,.57.74,15.24,15.24,0,0,1,1.28,2.32l-3-.87,0,0-.13-.28c-.08-.18-.17-.35-.26-.51a6.31,6.31,0,0,0-.54-.83,3.41,3.41,0,0,0-.47-.47l-.19-.15.16.18a3.46,3.46,0,0,1,.39.52,8,8,0,0,1,.46.85l.23.52.06.14c-2.44-.69-4-1.08-4-1.08s1.47.59,3.85,1.47l-.13.08-.49.28c-.32.17-.62.31-.87.42a3.67,3.67,0,0,1-.62.19l-.24,0h.25a3.63,3.63,0,0,0,.65-.11,6,6,0,0,0,.92-.35c.17-.08.35-.16.52-.26l.27-.15.05,0c.87.32,1.85.68,2.92,1.05a16.58,16.58,0,0,1-2.4,1.14,6.14,6.14,0,0,1-.9.25l-.34.06a2.55,2.55,0,0,0,.35,0,4.14,4.14,0,0,0,1-.09,9.24,9.24,0,0,0,2.95-1.14h0l3,1-.16.09-.66.37c-.41.23-.79.43-1.11.59a7.38,7.38,0,0,1-1.08.46,2.33,2.33,0,0,0,.31,0,4.41,4.41,0,0,0,.86-.19,9,9,0,0,0,1.22-.45c.22-.09.45-.2.69-.32l.59-.3.87.28c.63.21,1.16.36,1.6.47.23-.14.36-.24.36-.24s-.05-.15-.15-.4c-.42-.17-.94-.36-1.57-.56l-.87-.28q-.15-.32-.3-.6c-.12-.23-.25-.46-.37-.67"/><path class="cls-7" d="M15.31,171.2c6-3.7,12.33-.95,12.33-.95s-.36,6.92-6.34,10.62S6,183.68,6,183.68s3.34-8.77,9.32-12.48"/><path class="cls-9" d="M22,171.46a15,15,0,0,0-1.79-.2,7.56,7.56,0,0,0-1.23,0,3.58,3.58,0,0,0-.44.07,9.1,9.1,0,0,1,1.62.25l1.71.44,1,.29.25.07c-1.28.81-2.51,1.59-3.66,2.34h0a13,13,0,0,0-4.37-.57,7.57,7.57,0,0,0-1.33.2l-.47.15.49,0a10.85,10.85,0,0,1,1.3.05,22.68,22.68,0,0,1,3.63.74c-1.33.87-2.54,1.67-3.61,2.4l-.08,0-.41-.12-.79-.18a8.25,8.25,0,0,0-1.37-.16,4.52,4.52,0,0,0-.92.06l-.33.08.33,0a4.6,4.6,0,0,1,.91.06,10.58,10.58,0,0,1,1.31.27l.77.22.2.06c-2.93,2-4.73,3.28-4.73,3.28s1.95-1,5-2.79l0,.21c-.05.27-.09.54-.15.78a11.09,11.09,0,0,1-.33,1.3,5.34,5.34,0,0,1-.35.84l-.17.29.22-.26a4.56,4.56,0,0,0,.47-.8,9.16,9.16,0,0,0,.46-1.3c.07-.25.13-.51.19-.79,0-.13.05-.27.07-.42l0-.07c1.13-.64,2.39-1.37,3.75-2.17a22.87,22.87,0,0,1-1,3.58,8.86,8.86,0,0,1-.53,1.18l-.25.42a3.64,3.64,0,0,0,.34-.35,7.59,7.59,0,0,0,.77-1.1A13.3,13.3,0,0,0,20,175.58v0l3.73-2.23a2.21,2.21,0,0,0,0,.25c-.07.36-.13.7-.2,1-.12.65-.24,1.24-.36,1.73a8.83,8.83,0,0,1-.5,1.56,2.5,2.5,0,0,0,.26-.37,6.37,6.37,0,0,0,.57-1.08,13.52,13.52,0,0,0,.62-1.7c.1-.32.19-.67.28-1s.14-.59.21-.9l1.09-.68c.78-.48,1.42-.91,1.94-1.28.05-.37.06-.59.06-.59s-.2-.09-.56-.21q-.84.45-2,1.17l-1.09.68-.9-.22-1-.21"/><path class="cls-7" d="M243.42,140.86c-8.54,2-15-3.73-15-3.73s3.16-8,11.7-10.09,19.24,2.71,19.24,2.71-7.4,9.07-16,11.11"/><path class="cls-9" d="M235.55,137.9a18.59,18.59,0,0,0,2,.95,9.72,9.72,0,0,0,1.46.44,3.76,3.76,0,0,0,.55.09,11.1,11.1,0,0,1-1.81-.93c-.54-.33-1.17-.73-1.86-1.2l-1.08-.73-.27-.18c1.84-.45,3.6-.9,5.26-1.34l0,0a16.16,16.16,0,0,0,5,2.39,7.74,7.74,0,0,0,1.65.29c.39,0,.61,0,.61,0l-.59-.15A10.69,10.69,0,0,1,245,137a27,27,0,0,1-4-2.3l5.22-1.42.09.05a4.27,4.27,0,0,0,.44.3c.29.2.58.37.86.53a9.62,9.62,0,0,0,1.56.73,5.61,5.61,0,0,0,1.12.29c.27,0,.42,0,.42,0l-.41-.1a7.24,7.24,0,0,1-1-.42,15.23,15.23,0,0,1-1.45-.85c-.27-.17-.54-.36-.82-.56l-.22-.15c4.25-1.2,6.9-2,6.9-2s-2.73.47-7.06,1.32l.12-.24c.16-.3.32-.59.48-.86a12.41,12.41,0,0,1,.91-1.41,6.77,6.77,0,0,1,.74-.86l.32-.27-.36.22a5.17,5.17,0,0,0-.87.76,9.62,9.62,0,0,0-1.06,1.36c-.18.26-.36.55-.54.86l-.26.46,0,.09c-1.59.31-3.37.68-5.3,1.09a27.82,27.82,0,0,1,2.53-3.86,12.07,12.07,0,0,1,1.1-1.2l.46-.4s-.2.09-.54.29a8.91,8.91,0,0,0-1.34,1,16.15,16.15,0,0,0-3.34,4.37l0,0c-1.68.36-3.45.75-5.29,1.18l.15-.29c.22-.39.44-.77.64-1.14.4-.72.78-1.37,1.12-1.9a11.57,11.57,0,0,1,1.19-1.66,4,4,0,0,0-.45.33,9.19,9.19,0,0,0-1.1,1.06,17.68,17.68,0,0,0-1.4,1.77c-.25.35-.49.72-.73,1.11l-.61,1-1.56.37c-1.11.26-2,.52-2.8.75-.21.42-.31.68-.31.68s.21.19.58.47c.79-.14,1.73-.33,2.85-.6l1.55-.37,1,.61c.39.24.78.46,1.15.66"/><path class="cls-7" d="M234.61,171.89a10.66,10.66,0,0,1-6.88-6.12,10.65,10.65,0,0,1,9-2.09c5.08,1.29,9.41,6.76,9.41,6.76s-6.42,2.74-11.5,1.45"/><path class="cls-9" d="M231.27,168.15a12.74,12.74,0,0,0,.82,1.07,5.35,5.35,0,0,0,.65.64,2.53,2.53,0,0,0,.27.2,6.38,6.38,0,0,1-.7-1c-.2-.32-.42-.71-.65-1.14l-.37-.69-.09-.17c1.09.27,2.15.52,3.15.75v0a9.83,9.83,0,0,0,2,2.64,5.29,5.29,0,0,0,.79.6l.32.18-.27-.24a6.72,6.72,0,0,1-.65-.73A16.29,16.29,0,0,1,235,168l3.15.69,0,.06.15.28.31.51a5.45,5.45,0,0,0,.62.82,2.74,2.74,0,0,0,.52.46,1.46,1.46,0,0,0,.21.14l-.19-.17a3.73,3.73,0,0,1-.43-.51,7.5,7.5,0,0,1-.53-.85c-.1-.17-.19-.34-.28-.52l-.07-.15c2.57.55,4.2.85,4.2.85s-1.57-.51-4.1-1.26l.13-.09.5-.33a7.34,7.34,0,0,1,.87-.49,3.5,3.5,0,0,1,.63-.24l.24-.06-.25,0a3,3,0,0,0-.67.16,5.27,5.27,0,0,0-.94.42c-.17.09-.34.2-.52.31l-.26.17,0,0-3.1-.89a16.69,16.69,0,0,1,2.4-1.34,6.88,6.88,0,0,1,.92-.32l.35-.09a3.49,3.49,0,0,0-.37,0,5.39,5.39,0,0,0-1,.16,9.72,9.72,0,0,0-3,1.39h0l-3.13-.84.16-.11.65-.42,1.12-.7a7.47,7.47,0,0,1,1.09-.54,1.59,1.59,0,0,0-.33.05,4.9,4.9,0,0,0-.87.25,9.47,9.47,0,0,0-1.23.55c-.23.11-.46.24-.7.38l-.59.36-.93-.24c-.65-.17-1.22-.29-1.69-.38l-.35.27s.06.16.18.41c.45.15,1,.31,1.67.48l.92.23.36.6q.21.34.42.66"/><path class="cls-7" d="M204.3,151.09c-1.67-2.09-1.5-8,4-11.13-1.59,3.68-1.42,6.56.45,6.57s.86-2.3,1.32-4.44a5.28,5.28,0,0,1,2.44-3.8c.9-.43,5.05-.57,7.9,0-3.31,1.39-6.85,5.73-4.76,6.74s1.72-4.7,9.09-5.38a19.15,19.15,0,0,1,4.82,2.63s-6.5,3.29-4.54,5,3.28-2.86,6.71-3c1.36,1.69,5.71,6.09,5.71,6.09l-5.37,6.3a10.05,10.05,0,0,1-4.81-2.26c-1.66-1.74-2.79-.44-2.16.81a7.2,7.2,0,0,0,5.09,3.17c-1.53,1.5-4.58,3.24-5.54,3.27s-5.29-1-6.93-3.94c-.63-1.15-1.24-1.29-1.84-1s-.53,1.28,0,2.43a9.46,9.46,0,0,0,5,3.83,18,18,0,0,1-7.78.48c-1-.33-2.59-2.47-3-5-.07-1.11,0-2.83-1.13-2.91s-1.26.82-1.21,2.82a6.57,6.57,0,0,0,1.26,3.83,9.65,9.65,0,0,1-4.79-4.61,7.1,7.1,0,0,1,0-6.43"/><path class="cls-9" d="M199.2,150.83c0,.17,0,.64,0,.85l7.9-.19,12.21,11.86c.35-.06.68-.13,1-.21l-.84-.82a9,9,0,0,1-3.52-3.2l-.19-.4-7.47-7.26,4.61-.1,10.29,10a6.43,6.43,0,0,0,1.47.25h0l-10.57-10.27,4.76-.11,9.11,8.84.72-.48-8.64-8.39,4.76-.11,5,4.86a13.24,13.24,0,0,0,1.81.58L226,151.05l3.7-.08,3.95,3.83.55-.65-3.31-3.21,6.17-.15.41-.48s-.14-.13-.36-.37l-6.33.15,3-3.62-.58-.62-3.54,4.27-3.53.08,4.85-5.85a5.31,5.31,0,0,0-2,1.08l-4,4.8-4.83.11,7.64-9.23-.74-.43-8,9.68-4.83.12L222.92,140a9.12,9.12,0,0,0-1.53.52l-8.27,10-4.66.11,10.39-12.55c-.34,0-.68-.07-1-.09l-10.48,12.67Z"/><path class="cls-7" d="M216.11,140.25a14.45,14.45,0,0,0-8.78-4.91,25.85,25.85,0,0,0-7.72.2,70.74,70.74,0,0,0,11.8-6.09,10.65,10.65,0,0,0,8,3.53c5.58,0,11.13-4.89,11-4.91a13.49,13.49,0,0,0-9-2.61,22.81,22.81,0,0,0-6.73,1.76,70.32,70.32,0,0,0,9.31-8.09,9.17,9.17,0,0,0,7.13,1.38c4.56-1,8.25-5.9,8.19-5.91a11.31,11.31,0,0,0-7.9-.65,17.69,17.69,0,0,0-4.92,2.45,71,71,0,0,0,5.66-7.49,7.94,7.94,0,0,0,6.06,0c3.62-1.52,6-6,6-6a9.45,9.45,0,0,0-6.69.55A14,14,0,0,0,234,106q1.58-2.69,2.91-5.51a1.39,1.39,0,0,0,.06-.19,12.36,12.36,0,0,0,4.13-5.46,12.78,12.78,0,0,0,0-8.08,18.72,18.72,0,0,0-4.37,6.5,17.26,17.26,0,0,0-.83,6.53.91.91,0,0,0-.11.16q-1.31,2.77-2.85,5.4a9.31,9.31,0,0,0,.18-4.15A8.28,8.28,0,0,0,229.15,96a15.16,15.16,0,0,0-.89,7,9.88,9.88,0,0,0,2.82,5.2,67.79,67.79,0,0,1-5.56,7.35,10.83,10.83,0,0,0,1.2-5.12,9.7,9.7,0,0,0-3.61-6.7,17.58,17.58,0,0,0-2.3,7.81,11.94,11.94,0,0,0,2.26,6.7,69.19,69.19,0,0,1-9.14,8,12.78,12.78,0,0,0,2.95-5.94c.74-4.92-2.67-8.54-2.62-8.54a20.88,20.88,0,0,0-4.42,8.28,14.61,14.61,0,0,0,.88,8.38,68.15,68.15,0,0,1-11.58,6,13.62,13.62,0,0,0,4.78-5.56c2-4.94-.66-9.53-.61-9.52a23.14,23.14,0,0,0-6.66,7.49,15.78,15.78,0,0,0-1.32,9q-2.43.81-4.93,1.45a.66.66,0,1,0,.31,1.23c1.7-.43,3.38-.92,5-1.47a11.28,11.28,0,0,0,7.45,5.72c5.92,1.38,13-2.39,12.93-2.43"/><path class="cls-7" d="M216.12,163.16a14.4,14.4,0,0,1-8.6,5.22,26.12,26.12,0,0,1-7.73.08,69.07,69.07,0,0,1,12,5.66,10.63,10.63,0,0,1,7.82-3.8c5.58-.18,11.3,4.49,11.22,4.51a13.45,13.45,0,0,1-8.91,2.93,22.42,22.42,0,0,1-6.79-1.53,70.89,70.89,0,0,1,9.59,7.76,9.17,9.17,0,0,1,7.08-1.62c4.59.85,8.45,5.6,8.39,5.61a11.27,11.27,0,0,1-7.87.93,18.08,18.08,0,0,1-5-2.27,70.19,70.19,0,0,1,5.92,7.28,7.93,7.93,0,0,1,6.05-.23c3.68,1.39,6.22,5.84,6.18,5.84a9.45,9.45,0,0,1-6.71-.31,14,14,0,0,1-3.58-2.4c1.11,1.74,2.14,3.55,3.1,5.4a1.27,1.27,0,0,1,.06.18,12.26,12.26,0,0,1,4.32,5.32,12.67,12.67,0,0,1,.26,8.07,18.84,18.84,0,0,1-4.6-6.34,17.15,17.15,0,0,1-1.05-6.5.88.88,0,0,1-.12-.15q-1.41-2.73-3-5.3a9.52,9.52,0,0,1,.33,4.14,8.3,8.3,0,0,1-3.74,5.3,15.23,15.23,0,0,1-1.13-7,9.78,9.78,0,0,1,2.63-5.29,69.06,69.06,0,0,0-5.81-7.16,10.83,10.83,0,0,1,1.37,5.08,9.68,9.68,0,0,1-3.37,6.82,17.78,17.78,0,0,1-2.58-7.72,12.05,12.05,0,0,1,2-6.78,69.68,69.68,0,0,0-9.42-7.61,12.62,12.62,0,0,1,3.16,5.83,11.26,11.26,0,0,1-2.32,8.62,20.94,20.94,0,0,1-4.7-8.12,14.55,14.55,0,0,1,.59-8.41,68.81,68.81,0,0,0-11.8-5.56,13.54,13.54,0,0,1,5,5.38c2.2,4.87-.33,9.55-.27,9.54a23.13,23.13,0,0,1-6.93-7.25,15.88,15.88,0,0,1-1.63-8.93c-1.63-.48-3.29-.91-5-1.27a.66.66,0,1,1,.27-1.24q2.58.56,5.07,1.29a11.26,11.26,0,0,1,7.24-6c5.87-1.59,13.09,1.93,13,2"/><path class="cls-10" d="M235.39,80a5.12,5.12,0,1,1-5.12-5.12A5.12,5.12,0,0,1,235.39,80Z"/><path class="cls-10" d="M259.35,100.35a1.9,1.9,0,1,1-1.89-1.9A1.88,1.88,0,0,1,259.35,100.35Z"/><path class="cls-10" d="M216.7,92.1a2.84,2.84,0,1,1-2.84-2.84A2.85,2.85,0,0,1,216.7,92.1Z"/><path class="cls-10" d="M229.66,55.63a1.34,1.34,0,1,1-1.34-1.34A1.34,1.34,0,0,1,229.66,55.63Z"/><path class="cls-11" d="M28.57,92.49a2.93,2.93,0,1,1-2.93-2.92A2.93,2.93,0,0,1,28.57,92.49Z"/><path class="cls-11" d="M13.87,110.46a2.2,2.2,0,1,1-2.2-2.2A2.2,2.2,0,0,1,13.87,110.46Z"/><circle class="cls-11" cx="10.3" cy="66.19" r="2.44" transform="translate(-24.55 8.98) rotate(-22.5)"/><path class="cls-11" d="M8.72,89.71a1,1,0,1,1-2,0,1,1,0,0,1,2,0Z"/><path class="cls-11" d="M158.11,50.68a1,1,0,1,1-2,0,1,1,0,0,1,2,0Z"/><path class="cls-11" d="M40.2,54.58a1.47,1.47,0,1,1-1.47-1.47A1.46,1.46,0,0,1,40.2,54.58Z"/><path class="cls-11" d="M15,158a1.47,1.47,0,1,1-1.46-1.46A1.47,1.47,0,0,1,15,158Z"/><path class="cls-10" d="M254.33,85.94a.67.67,0,1,1-.67-.67A.67.67,0,0,1,254.33,85.94Z"/><line class="cls-12" x1="246.1" y1="63.97" x2="246.1" y2="67.23"/><line class="cls-12" x1="246.1" y1="70.39" x2="246.1" y2="73.65"/><line class="cls-12" x1="250.94" y1="68.81" x2="247.68" y2="68.81"/><line class="cls-12" x1="244.52" y1="68.81" x2="241.26" y2="68.81"/><line class="cls-12" x1="158.71" y1="72.42" x2="158.71" y2="75.68"/><line class="cls-12" x1="158.71" y1="78.84" x2="158.71" y2="82.1"/><line class="cls-12" x1="163.55" y1="77.26" x2="160.29" y2="77.26"/><line class="cls-12" x1="157.13" y1="77.26" x2="153.87" y2="77.26"/><line class="cls-12" x1="150.66" y1="0.35" x2="150.66" y2="3.61"/><line class="cls-12" x1="150.66" y1="6.77" x2="150.66" y2="10.03"/><line class="cls-12" x1="155.5" y1="5.19" x2="152.24" y2="5.19"/><line class="cls-12" x1="149.08" y1="5.19" x2="145.83" y2="5.19"/><line class="cls-12" x1="255.04" y1="142.33" x2="255.04" y2="145.59"/><line class="cls-12" x1="255.04" y1="148.75" x2="255.04" y2="152.01"/><line class="cls-12" x1="259.88" y1="147.17" x2="256.62" y2="147.17"/><line class="cls-12" x1="253.46" y1="147.17" x2="250.2" y2="147.17"/><line class="cls-12" x1="249.07" y1="110.87" x2="249.07" y2="114.13"/><line class="cls-12" x1="249.07" y1="117.29" x2="249.07" y2="120.55"/><line class="cls-12" x1="253.91" y1="115.71" x2="250.65" y2="115.71"/><line class="cls-12" x1="247.49" y1="115.71" x2="244.23" y2="115.71"/><line class="cls-12" x1="9.51" y1="163.62" x2="9.51" y2="166.88"/><line class="cls-12" x1="9.51" y1="170.04" x2="9.51" y2="173.3"/><line class="cls-12" x1="14.34" y1="168.46" x2="11.09" y2="168.46"/><line class="cls-12" x1="7.93" y1="168.46" x2="4.67" y2="168.46"/><line class="cls-12" x1="192.92" y1="61.35" x2="192.92" y2="64.61"/><line class="cls-12" x1="192.92" y1="67.77" x2="192.92" y2="71.03"/><line class="cls-12" x1="197.76" y1="66.19" x2="194.5" y2="66.19"/><line class="cls-12" x1="191.34" y1="66.19" x2="188.08" y2="66.19"/><line class="cls-12" x1="213.02" y1="34.19" x2="213.02" y2="37.45"/><line class="cls-12" x1="213.02" y1="40.61" x2="213.02" y2="43.87"/><line class="cls-12" x1="217.85" y1="39.03" x2="214.59" y2="39.03"/><line class="cls-12" x1="211.44" y1="39.03" x2="208.18" y2="39.03"/><line class="cls-13" x1="57.45" y1="29.58" x2="57.45" y2="33.15"/><line class="cls-13" x1="57.45" y1="36.6" x2="57.45" y2="40.16"/><line class="cls-13" x1="62.73" y1="34.87" x2="59.17" y2="34.87"/><line class="cls-13" x1="55.72" y1="34.87" x2="52.16" y2="34.87"/><line class="cls-13" x1="30.39" y1="65.1" x2="30.39" y2="68.66"/><line class="cls-13" x1="30.39" y1="72.11" x2="30.39" y2="75.67"/><line class="cls-13" x1="35.68" y1="70.38" x2="32.12" y2="70.38"/><line class="cls-13" x1="28.67" y1="70.38" x2="25.11" y2="70.38"/><line class="cls-13" x1="42.41" y1="98.26" x2="42.41" y2="101.82"/><line class="cls-13" x1="42.41" y1="105.27" x2="42.41" y2="108.83"/><line class="cls-13" x1="47.69" y1="103.55" x2="44.13" y2="103.55"/><line class="cls-13" x1="40.68" y1="103.55" x2="37.12" y2="103.55"/><path class="cls-10" d="M93.71,35.78a3,3,0,1,1-3-3A3,3,0,0,1,93.71,35.78Z"/><path class="cls-10" d="M82.3,66.88a3,3,0,1,1-3-3A3,3,0,0,1,82.3,66.88Z"/><path class="cls-10" d="M139.15,14.58A5.15,5.15,0,1,1,134,9.43,5.16,5.16,0,0,1,139.15,14.58Z"/><path class="cls-10" d="M111.77,72.11A5.15,5.15,0,1,1,106.62,67,5.15,5.15,0,0,1,111.77,72.11Z"/><path class="cls-10" d="M184.28,36.39A2.42,2.42,0,1,1,181.86,34,2.42,2.42,0,0,1,184.28,36.39Z"/><circle class="cls-10" cx="4.14" cy="131.72" r="3.64" transform="translate(-50.09 11.61) rotate(-22.5)"/><path class="cls-10" d="M17.84,196.29a3.94,3.94,0,1,1-3.94-3.94A3.93,3.93,0,0,1,17.84,196.29Z"/><path class="cls-10" d="M246.08,157.82a2.42,2.42,0,1,1-2.42-2.42A2.42,2.42,0,0,1,246.08,157.82Z"/><path class="cls-10" d="M258,175.94a3.94,3.94,0,1,1-3.93-3.94A3.93,3.93,0,0,1,258,175.94Z"/><path class="cls-14" d="M145.81,125.31a94.61,94.61,0,0,0-7.66-8.41c.82-1,5.26-10.93-1.14-19.29a175,175,0,0,0,24.29,6.83S149.75,114,145.81,125.31Z"/><path class="cls-15" d="M145.81,126.56a110.58,110.58,0,0,0-8.48-9.21c.82-1,6.08-10.13-.32-18.49,9.66,3.6,23.77,6.46,23.77,6.46S149.75,115.26,145.81,126.56Z"/><path class="cls-14" d="M114.9,125.31a93.1,93.1,0,0,1,7.66-8.41c-.82-1-5.26-10.93,1.14-19.29a175,175,0,0,1-24.29,6.83S111,114,114.9,125.31Z"/><path class="cls-15" d="M114.9,126.56a110.58,110.58,0,0,1,8.48-9.21c-.82-1-6.08-10.13.32-18.49-9.66,3.6-23.77,6.46-23.77,6.46S111,115.26,114.9,126.56Z"/><path class="cls-14" d="M143.34,106.42c0,.92.17,9,0,9.84-1.2,6.09-6.62,3.52-12.81,3.52s-11.57,1.81-12.78-4.25c-.18-.89,0-8.17,0-9.11,0-7.38,5.73-13.37,12.81-13.37S143.34,99,143.34,106.42Z"/><path class="cls-16" d="M130.53,95.2a13.94,13.94,0,0,1,12.12,6.87,12.65,12.65,0,0,0-24.23,0A13.93,13.93,0,0,1,130.53,95.2Z"/><path class="cls-17" d="M118.32,108.75c-.09.18-.15.22-.15.08V103a1.73,1.73,0,0,1,.15-.57c.08-.18.14-.21.14-.07v5.86A1.64,1.64,0,0,1,118.32,108.75Z"/><path class="cls-17" d="M119.19,106.81c-.1.16-.18.18-.18,0V101a1.24,1.24,0,0,1,.18-.53c.09-.16.18-.17.18,0v5.86A1.33,1.33,0,0,1,119.19,106.81Z"/><path class="cls-17" d="M120.12,105.43c-.12.14-.21.15-.21,0V99.58a.93.93,0,0,1,.21-.5c.11-.14.2-.14.2,0v5.86A1,1,0,0,1,120.12,105.43Z"/><path class="cls-17" d="M121.23,104.23c-.13.12-.23.11-.23,0V98.34a.75.75,0,0,1,.23-.46c.13-.12.23-.11.23,0v5.86A.75.75,0,0,1,121.23,104.23Z"/><path class="cls-17" d="M122.46,103.2c-.14.1-.25.07-.25-.06V97.28a.61.61,0,0,1,.25-.43c.14-.11.26-.08.26.06v5.86A.67.67,0,0,1,122.46,103.2Z"/><path class="cls-17" d="M123.79,102.33c-.15.09-.26,0-.26-.08V96.38a.54.54,0,0,1,.26-.4c.15-.08.27,0,.27.1v5.86A.5.5,0,0,1,123.79,102.33Z"/><path class="cls-17" d="M125.21,101.65c-.16.06-.29,0-.29-.13V95.66a.45.45,0,0,1,.29-.36c.15-.07.28,0,.28.13v5.86A.47.47,0,0,1,125.21,101.65Z"/><path class="cls-17" d="M126.68,101.13c-.16.05-.29,0-.29-.16V95.11a.4.4,0,0,1,.29-.33c.17,0,.3,0,.3.16v5.86A.39.39,0,0,1,126.68,101.13Z"/><path class="cls-17" d="M128.21,100.79c-.17,0-.3-.06-.3-.19V94.73a.33.33,0,0,1,.3-.29c.16,0,.3.06.3.19v5.86A.35.35,0,0,1,128.21,100.79Z"/><path class="cls-17" d="M129.76,100.61c-.17,0-.31-.09-.31-.22V94.53a.31.31,0,0,1,.31-.27.26.26,0,0,1,.3.23v5.87A.29.29,0,0,1,129.76,100.61Z"/><path class="cls-17" d="M131.32,100.61c-.17,0-.31-.12-.31-.25V94.49a.27.27,0,0,1,.31-.23.3.3,0,0,1,.3.27v5.86A.26.26,0,0,1,131.32,100.61Z"/><path class="cls-17" d="M132.87,100.79a.35.35,0,0,1-.31-.3V94.63c0-.13.14-.22.31-.19a.34.34,0,0,1,.3.29v5.87C133.17,100.73,133,100.81,132.87,100.79Z"/><path class="cls-17" d="M134.39,101.13a.4.4,0,0,1-.3-.33V94.94c0-.13.14-.21.3-.16a.4.4,0,0,1,.29.33V101C134.68,101.11,134.55,101.18,134.39,101.13Z"/><path class="cls-17" d="M135.87,101.65a.47.47,0,0,1-.29-.36V95.43c0-.14.13-.2.29-.13a.46.46,0,0,1,.28.36v5.86C136.15,101.66,136,101.71,135.87,101.65Z"/><path class="cls-17" d="M137.28,102.33a.5.5,0,0,1-.27-.39V96.08c0-.13.12-.18.27-.1a.55.55,0,0,1,.27.4v5.87C137.55,102.38,137.43,102.42,137.28,102.33Z"/><path class="cls-17" d="M138.61,103.2a.65.65,0,0,1-.25-.43V96.91c0-.14.11-.17.25-.06a.61.61,0,0,1,.25.43v5.86C138.86,103.27,138.75,103.3,138.61,103.2Z"/><path class="cls-17" d="M139.84,104.23a.81.81,0,0,1-.23-.46V97.91c0-.14.11-.15.23,0a.75.75,0,0,1,.23.46v5.87C140.07,104.34,140,104.35,139.84,104.23Z"/><path class="cls-17" d="M141,105.43a.91.91,0,0,1-.21-.49V99.08c0-.14.09-.14.21,0a1,1,0,0,1,.2.5v5.86C141.16,105.58,141.07,105.57,141,105.43Z"/><path class="cls-17" d="M141.93,107.09a1.29,1.29,0,0,1-.18-.52v-5.86c0-.14.09-.12.18,0a1.23,1.23,0,0,1,.18.54v5.86C142.11,107.27,142,107.25,141.93,107.09Z"/><path class="cls-17" d="M142.76,108.75a1.68,1.68,0,0,1-.15-.56v-5.86c0-.14.07-.11.15.07a1.69,1.69,0,0,1,.14.57v5.86C142.9,109,142.84,108.93,142.76,108.75Z"/><path class="cls-14" d="M188.73,105.83c0,6.35-6.59,9.65-13.91,9.65s-13.25-5.15-13.25-11.49,5.93-11.5,13.25-11.5A13.66,13.66,0,0,1,187.26,100,18.53,18.53,0,0,1,188.73,105.83Z"/><ellipse class="cls-15" cx="175.57" cy="107.19" rx="13.25" ry="11.49"/><path class="cls-14" d="M203.67,129.9c-1.21,12.85-16,21.38-31.37,19.6-12.14-1.41-21.06-1.69-24-9.87a77.22,77.22,0,0,1-1.78-11.5c0-9.42,13.72-31,31.32-27.84C193.08,103,204.87,117.06,203.67,129.9Z"/><path class="cls-18" d="M195.05,109.3l10.66,33.57c4.81-3.48-2.58-7.23-2-13C204.34,122.67,200.9,115.06,195.05,109.3Z"/><path class="cls-19" d="M160.61,105l8.47,47c2.94.45-.35-2.9,3.22-2.49,1.24.15,12.27.22,13.5.23L174.42,100C169.49,99.61,164.57,100.79,160.61,105Z"/><path class="cls-15" d="M205.63,137.46c-1.24,13.3-15.15,22.85-31,21C159.57,156.72,148,147,148,136.34c0-9.75,14.2-32.09,32.42-28.83C196.13,110.33,206.88,124.16,205.63,137.46Z"/><path class="cls-14" d="M209.29,137c1.07,2.36,9.08,19.73,8.62,21.18-2.7,8.45-22.12,0-34.15,0-9.51,0-20.1,13.21-24.49,7.39-.78-13.59-1-23.17-1-26.63,0-10.63,11.16-21.13,25.26-21.13S204.48,126.4,209.29,137Z"/><path class="cls-18" d="M209.29,137c-2.61-5.78-5.84-10.94-10.5-14.45L213,162.22c9,1.77,3.18,1.35,4.89-4C218.37,156.77,210.36,139.4,209.29,137Z"/><path class="cls-19" d="M163.92,126l6.58,39.61c3.92-1.09,12.29-4.82,17.58-6.92l-9.75-40.37A26.92,26.92,0,0,0,163.92,126Z"/><path class="cls-20" d="M217.11,155.2v4.53a4.83,4.83,0,0,0,.8-1.51A8.66,8.66,0,0,0,217.11,155.2Z"/><path class="cls-21" d="M215.69,164.5a20.92,20.92,0,0,1-4.81,13.22c-4.82,6-12.82,9.86-21.88,9.86-13.7,0-25-8.94-26.51-20.46a20.39,20.39,0,0,1,3.15-13.78,24.31,24.31,0,0,1,6.7-6.87A29.21,29.21,0,0,1,189,141.41a28.53,28.53,0,0,1,20.11,7.91,21.82,21.82,0,0,1,6.16,11.11A19.44,19.44,0,0,1,215.69,164.5Z"/><path class="cls-22" d="M215.69,164.5a20.92,20.92,0,0,1-4.81,13.22,45.48,45.48,0,0,1-15.76-1.09c-13.69-3.36-24.43-12.37-29.48-23.29a24.31,24.31,0,0,1,6.7-6.87A85.24,85.24,0,0,0,199.12,158a88.78,88.78,0,0,0,16.15,2.44A19.44,19.44,0,0,1,215.69,164.5Z"/><path class="cls-23" d="M209.29,152c0,12.75-11.95,23.09-26.69,23.09a28.49,28.49,0,0,1-20.11-7.92,20.59,20.59,0,0,1-.17-2.62c0-12.76,12-23.09,26.68-23.09a28.53,28.53,0,0,1,20.11,7.91A19,19,0,0,1,209.29,152Z"/><path class="cls-14" d="M189,190.62c-15.13,0-27.85-9.93-29.56-23.1a21.88,21.88,0,0,1-.2-3A23.73,23.73,0,0,1,163,151.71a27,27,0,0,1,7.54-7.73A32.09,32.09,0,0,1,189,138.37a31.76,31.76,0,0,1,22.3,8.8,24.93,24.93,0,0,1,7,12.65,23.59,23.59,0,0,1,.48,4.68,23.84,23.84,0,0,1-5.49,15.12C207.72,186.51,198.64,190.62,189,190.62Zm0-48.34a28.67,28.67,0,0,0-16.45,5,23.25,23.25,0,0,0-6.5,6.66,19.58,19.58,0,0,0-3.16,10.58,18.64,18.64,0,0,0,.17,2.47c1.47,11.26,12.62,19.75,25.94,19.75,8.59,0,16.64-3.61,21.52-9.66a19.79,19.79,0,0,0,4.6-12.56,18.34,18.34,0,0,0-.4-3.84A20.9,20.9,0,0,0,208.81,150,28.22,28.22,0,0,0,189,142.28Z"/><path class="cls-24" d="M213.29,151.4c-5.57-6.9-14.65-11-24.29-11-15.13,0-27.85,9.93-29.56,23.11a18.56,18.56,0,0,0-.17,2.11q0-.56,0-1.11a21.88,21.88,0,0,1,.2-3c1.71-13.17,14.43-23.11,29.56-23.11,9.64,0,18.72,4.12,24.29,11a23.8,23.8,0,0,1,5.49,15.12q0,.48,0,1A23.86,23.86,0,0,0,213.29,151.4Z"/><path class="cls-24" d="M214.72,170.35A20.9,20.9,0,0,1,208.81,181,28.18,28.18,0,0,1,189,188.74a28.75,28.75,0,0,1-16.45-5,23.51,23.51,0,0,1-6.5-6.66,19.61,19.61,0,0,1-3.16-10.58c0-.35,0-.71,0-1.06a19.67,19.67,0,0,0,3.12,9.62,23.38,23.38,0,0,0,6.5,6.66,28.67,28.67,0,0,0,16.45,5A28.18,28.18,0,0,0,208.81,179a20.87,20.87,0,0,0,5.91-10.62,18,18,0,0,0,.37-2.82c0,.33,0,.66,0,1A18.32,18.32,0,0,1,214.72,170.35Z"/><path class="cls-14" d="M148.41,131.7a92.08,92.08,0,0,0-7.66-8.42c.82-1,5.26-10.92-1.14-19.29,9.66,3.6,20.53,6.4,21.69,6.76C161.3,110.75,152.36,120.4,148.41,131.7Z"/><path class="cls-15" d="M148.41,132.94a112.22,112.22,0,0,0-8.48-9.21c.82-1,6.08-10.13-.32-18.49,9.66,3.6,23.77,6.47,23.77,6.47S152.36,121.65,148.41,132.94Z"/><path class="cls-25" d="M141.39,121c1.41-2.77,3.51-8.91.15-15l-1.93-.69A15.57,15.57,0,0,1,141.39,121Z"/><path class="cls-25" d="M149.82,129.53c4.68-9.81,13.56-17.82,13.56-17.82l-.65-.14C160,114.31,153.3,121.41,149.82,129.53Z"/><path class="cls-14" d="M72,105.83c0,6.35,6.59,9.65,13.92,9.65S99.14,110.33,99.14,104s-5.93-11.5-13.25-11.5A13.65,13.65,0,0,0,73.45,100,18.27,18.27,0,0,0,72,105.83Z"/><ellipse class="cls-15" cx="85.13" cy="107.19" rx="13.25" ry="11.49"/><path class="cls-14" d="M57,129.9c1.21,12.85,16,21.38,31.37,19.6,12.14-1.41,21.06-1.69,24-9.87a77.22,77.22,0,0,0,1.78-11.5c0-9.42-13.72-31-31.32-27.84C67.63,103,55.84,117.06,57,129.9Z"/><path class="cls-18" d="M99.7,104.65l-3.92,43.79c6.29-1.12,14.69-3.45,16.6-8.81a77.22,77.22,0,0,0,1.78-11.5C114.16,122.06,108.46,110.94,99.7,104.65Z"/><path class="cls-19" d="M76.24,102.25c-7,2.06-14,9.91-16.75,15.52l-5,20.6c2.78,4.72,6.24,8.38,12.1,10.45Z"/><path class="cls-15" d="M55.08,137.46c1.24,13.3,15.14,22.85,31,21,15-1.75,26.65-11.48,26.65-22.13,0-9.75-14.2-32.09-32.42-28.83C64.58,110.33,53.83,124.16,55.08,137.46Z"/><path class="cls-14" d="M51.42,137c-1.07,2.36-9.08,19.73-8.62,21.18,2.7,8.45,22.12,0,34.15,0,9.51,0,20.1,13.21,24.49,7.39.77-13.59,1-23.17,1-26.63,0-10.63-11.16-21.13-25.26-21.13S56.23,126.4,51.42,137Z"/><path class="cls-18" d="M98.27,127.71l-3.2,39.38c1.25.06,5.53-.36,6.37-1.48.77-13.59,1-23.17,1-26.63A18.38,18.38,0,0,0,98.27,127.71Z"/><path class="cls-19" d="M57.35,127,44,161.61c4.88-.83,11.54,1.19,16.36.61l12.15-44A23.54,23.54,0,0,0,57.35,127Z"/><path class="cls-21" d="M45,164.5a20.87,20.87,0,0,0,4.81,13.22c4.82,6,12.82,9.86,21.88,9.86,13.7,0,25-8.94,26.5-20.46a18.9,18.9,0,0,0,.18-2.62,20.57,20.57,0,0,0-3.32-11.16,24.31,24.31,0,0,0-6.7-6.87,29.21,29.21,0,0,0-16.66-5.06,28.51,28.51,0,0,0-20.11,7.91,21.75,21.75,0,0,0-6.16,11.11A19.44,19.44,0,0,0,45,164.5Z"/><path class="cls-26" d="M45,164.5a20.87,20.87,0,0,0,4.81,13.22,45.48,45.48,0,0,0,15.76-1.09c13.69-3.36,24.43-12.37,29.48-23.29a24.31,24.31,0,0,0-6.7-6.87A85.34,85.34,0,0,1,61.59,158a88.78,88.78,0,0,1-16.15,2.44A19.44,19.44,0,0,0,45,164.5Z"/><path class="cls-27" d="M51.42,152C51.42,164.7,63.37,175,78.11,175a28.45,28.45,0,0,0,20.1-7.92,18.9,18.9,0,0,0,.18-2.62c0-12.76-12-23.09-26.68-23.09a28.51,28.51,0,0,0-20.11,7.91A19,19,0,0,0,51.42,152Z"/><path class="cls-28" d="M47.42,179.62a23.84,23.84,0,0,1-5.49-15.12,22.87,22.87,0,0,1,.48-4.68,24.93,24.93,0,0,1,7-12.65,31.76,31.76,0,0,1,22.3-8.8A32.09,32.09,0,0,1,90.14,144a27,27,0,0,1,7.54,7.73,23.73,23.73,0,0,1,3.79,12.79,21.88,21.88,0,0,1-.2,3c-1.72,13.17-14.43,23.1-29.56,23.1C62.07,190.62,53,186.51,47.42,179.62ZM51.89,150A21,21,0,0,0,46,160.66a18.34,18.34,0,0,0-.4,3.84,19.83,19.83,0,0,0,4.59,12.56c4.89,6.05,12.94,9.66,21.53,9.66,13.32,0,24.47-8.49,25.94-19.75a18.64,18.64,0,0,0,.17-2.47,19.67,19.67,0,0,0-3.16-10.58,23.29,23.29,0,0,0-6.51-6.66,28.62,28.62,0,0,0-16.44-5A28.26,28.26,0,0,0,51.89,150Z"/><path class="cls-24" d="M47.42,151.4c5.57-6.9,14.65-11,24.29-11,15.13,0,27.84,9.93,29.56,23.11a18.56,18.56,0,0,1,.17,2.11q0-.56,0-1.11a21.88,21.88,0,0,0-.2-3c-1.72-13.17-14.43-23.11-29.56-23.11-9.64,0-18.72,4.12-24.29,11a23.8,23.8,0,0,0-5.49,15.12q0,.48,0,1A23.86,23.86,0,0,1,47.42,151.4Z"/><path class="cls-24" d="M46,170.35A21,21,0,0,0,51.89,181a28.22,28.22,0,0,0,19.82,7.76,28.69,28.69,0,0,0,16.44-5,23.55,23.55,0,0,0,6.51-6.66,19.7,19.7,0,0,0,3.16-10.58c0-.35,0-.71,0-1.06a19.77,19.77,0,0,1-3.12,9.62,23.42,23.42,0,0,1-6.51,6.66,28.62,28.62,0,0,1-16.44,5A28.22,28.22,0,0,1,51.89,179,20.92,20.92,0,0,1,46,168.34a18,18,0,0,1-.37-2.82c0,.33,0,.66,0,1A18.32,18.32,0,0,0,46,170.35Z"/><path class="cls-14" d="M112.3,131.7a90.64,90.64,0,0,1,7.66-8.42c-.82-1-5.13-10.4,1.27-18.76-9.66,3.6-23.9,5.94-23.9,5.94S108.35,120.4,112.3,131.7Z"/><path class="cls-15" d="M112.3,132.94a112.64,112.64,0,0,1,8.7-9.35c-.82-1-6.3-10,.1-18.35-9.66,3.6-23.77,6.47-23.77,6.47S108.35,121.65,112.3,132.94Z"/><ellipse class="cls-29" cx="130.53" cy="114.66" rx="12.81" ry="13.36"/><path class="cls-30" d="M130.53,124.83a10.17,10.17,0,1,1,9.82-10.17A10,10,0,0,1,130.53,124.83Z"/><path class="cls-31" d="M130.53,124.29a9.63,9.63,0,1,1,9.32-9.63A9.49,9.49,0,0,1,130.53,124.29Z"/><path class="cls-32" d="M118.1,116.55c0-7.37,5.74-13.36,12.81-13.36a12.93,12.93,0,0,1,12.37,9.87,12.78,12.78,0,0,0-25.48,2,13.93,13.93,0,0,0,.44,3.5A14.42,14.42,0,0,1,118.1,116.55Z"/><path class="cls-25" d="M119,121a16.41,16.41,0,0,1,.16-15l1.93-.69A15.76,15.76,0,0,0,119,121Z"/><path class="cls-25" d="M110.88,129.53c-4.67-9.81-13.55-17.82-13.55-17.82l.65-.14C100.75,114.31,107.41,121.41,110.88,129.53Z"/></g></g></g></svg>