<svg xmlns="http://www.w3.org/2000/svg" viewBox="0 0 68.69 69.24"><defs><style>.cls-1{fill:#00877a;}</style></defs><g id="Capa_2" data-name="Capa 2"><g id="Capa_1-2" data-name="Capa 1"><path class="cls-1" d="M33.92,5.4a.73.73,0,1,0,0,1.45A27.67,27.67,0,1,1,6.25,34.52a.73.73,0,0,0-.72-.73.73.73,0,0,0-.73.73A29.12,29.12,0,1,0,33.92,5.4Z"/><path class="cls-1" d="M33.92,2.6A31.72,31.72,0,0,0,11.35,12a.73.73,0,0,0,1,1A30.46,30.46,0,1,1,55.46,56.06a30.47,30.47,0,0,1-43.08,0,.73.73,0,0,0-1,1A31.92,31.92,0,1,0,56.49,12,31.7,31.7,0,0,0,33.92,2.6Z"/><path class="cls-1" d="M53.78,6.17A34.35,34.35,0,0,0,27.88.57a.77.77,0,0,0-.63.91.79.79,0,0,0,.91.64A33,33,0,0,1,61.23,53.43,33,33,0,0,1,1.56,40.53a.78.78,0,0,0-.91-.64.79.79,0,0,0-.64.92A34.61,34.61,0,0,0,62.52,54.33,34.62,34.62,0,0,0,53.78,6.17Z"/></g></g></svg>