<svg xmlns="http://www.w3.org/2000/svg" xmlns:xlink="http://www.w3.org/1999/xlink" viewBox="0 0 408.13 246.38"><defs><style>.cls-1{mask:url(#mask);filter:url(#luminosity-noclip-6);}.cls-10,.cls-2,.cls-4,.cls-40,.cls-41,.cls-42,.cls-43,.cls-44,.cls-45,.cls-48,.cls-49,.cls-50,.cls-51,.cls-54,.cls-55,.cls-56,.cls-57,.cls-6,.cls-60,.cls-61,.cls-62,.cls-63,.cls-68,.cls-69,.cls-8{mix-blend-mode:multiply;}.cls-2{fill:url(#radial-gradient);}.cls-3{mask:url(#mask-2);filter:url(#luminosity-noclip-7);}.cls-4{fill:url(#radial-gradient-2);}.cls-5{mask:url(#mask-3);filter:url(#luminosity-noclip-8);}.cls-6{fill:url(#radial-gradient-3);}.cls-7{mask:url(#mask-4);filter:url(#luminosity-noclip-9);}.cls-8{fill:url(#radial-gradient-4);}.cls-9{mask:url(#mask-5);filter:url(#luminosity-noclip-10);}.cls-10{fill:url(#radial-gradient-5);}.cls-11{isolation:isolate;}.cls-12{fill:#466898;}.cls-13{fill:#00953b;}.cls-14{fill:#746aa2;}.cls-15,.cls-16,.cls-17,.cls-18{fill:none;stroke-linecap:round;stroke-miterlimit:10;stroke-width:3px;}.cls-15{stroke:#466898;}.cls-16{stroke:#00953b;}.cls-17{stroke:#746aa2;}.cls-18{stroke:url(#Degradado_sin_nombre_10);}.cls-19,.cls-67{fill:#fff;}.cls-20{fill:#c8c4ce;}.cls-21{fill:#e3e3e4;}.cls-22{fill:#dbd5e2;}.cls-23{fill:#38353f;}.cls-24{fill:#4f4c54;}.cls-25{fill:#fcfcfc;}.cls-26{fill:#375a64;}.cls-27{fill:#1a2e35;}.cls-28{fill:#ffc19d;}.cls-29{fill:#ff9c6a;}.cls-30,.cls-42,.cls-43,.cls-44,.cls-45,.cls-48,.cls-49,.cls-50,.cls-51,.cls-54,.cls-55,.cls-56,.cls-57,.cls-60,.cls-61,.cls-62,.cls-63{opacity:0.3;}.cls-31{fill:url(#linear-gradient);}.cls-32{fill:url(#linear-gradient-2);}.cls-33{fill:url(#linear-gradient-3);}.cls-34{fill:url(#linear-gradient-4);}.cls-35{fill:#fbc086;}.cls-36{fill:url(#linear-gradient-5);}.cls-37{fill:url(#linear-gradient-6);}.cls-38{fill:url(#linear-gradient-7);}.cls-39{fill:#797b7d;}.cls-40,.cls-41{fill:#aeb0b3;}.cls-40{opacity:0.2;}.cls-41,.cls-67{opacity:0.4;}.cls-42{fill:url(#radial-gradient-6);}.cls-43{fill:url(#radial-gradient-7);}.cls-44{fill:url(#radial-gradient-8);}.cls-45{fill:url(#radial-gradient-9);}.cls-46{mask:url(#mask-6);}.cls-47,.cls-53,.cls-59,.cls-65,.cls-71{mix-blend-mode:lighten;}.cls-47,.cls-53,.cls-59,.cls-65{opacity:0.7;}.cls-47{fill:url(#radial-gradient-10);}.cls-48{fill:url(#radial-gradient-11);}.cls-49{fill:url(#radial-gradient-12);}.cls-50{fill:url(#radial-gradient-13);}.cls-51{fill:url(#radial-gradient-14);}.cls-52{mask:url(#mask-7);}.cls-53{fill:url(#radial-gradient-15);}.cls-54{fill:url(#radial-gradient-16);}.cls-55{fill:url(#radial-gradient-17);}.cls-56{fill:url(#radial-gradient-18);}.cls-57{fill:url(#radial-gradient-19);}.cls-58{mask:url(#mask-8);}.cls-59{fill:url(#radial-gradient-20);}.cls-60{fill:url(#radial-gradient-21);}.cls-61{fill:url(#radial-gradient-22);}.cls-62{fill:url(#radial-gradient-23);}.cls-63{fill:url(#radial-gradient-24);}.cls-64{mask:url(#mask-9);}.cls-65{fill:url(#radial-gradient-25);}.cls-66{fill:url(#radial-gradient-26);}.cls-67{mix-blend-mode:screen;}.cls-68,.cls-69{opacity:0.5;}.cls-68{fill:url(#radial-gradient-27);}.cls-69{fill:url(#radial-gradient-28);}.cls-70{mask:url(#mask-10);}.cls-71{fill:url(#radial-gradient-29);}.cls-72{fill:#f0aa00;}.cls-73{fill:#fc0;}.cls-74{fill:#fcdc59;}.cls-75{fill:#da8100;}.cls-76{fill:#ea9c00;}.cls-77{fill:#fbfce6;}.cls-78{filter:url(#luminosity-noclip-5);}.cls-79{filter:url(#luminosity-noclip-4);}.cls-80{filter:url(#luminosity-noclip-3);}.cls-81{filter:url(#luminosity-noclip-2);}.cls-82{filter:url(#luminosity-noclip);}</style><filter id="luminosity-noclip" x="312.41" y="-10454.21" width="10.86" height="32766" filterUnits="userSpaceOnUse" color-interpolation-filters="sRGB"><feFlood flood-color="#fff" result="bg"/><feBlend in="SourceGraphic" in2="bg"/></filter><mask id="mask" x="312.41" y="-10454.21" width="10.86" height="32766" maskUnits="userSpaceOnUse"><g class="cls-82"/></mask><radialGradient id="radial-gradient" cx="-226.77" cy="153.05" r="22.45" gradientTransform="matrix(-1, 0, 0, 1, 97.42, 0)" gradientUnits="userSpaceOnUse"><stop offset="0" stop-color="#fff"/><stop offset="1" stop-color="#1a1a1a"/></radialGradient><filter id="luminosity-noclip-2" x="285.56" y="-10454.21" width="10.86" height="32766" filterUnits="userSpaceOnUse" color-interpolation-filters="sRGB"><feFlood flood-color="#fff" result="bg"/><feBlend in="SourceGraphic" in2="bg"/></filter><mask id="mask-2" x="285.56" y="-10454.21" width="10.86" height="32766" maskUnits="userSpaceOnUse"><g class="cls-81"/></mask><radialGradient id="radial-gradient-2" cx="-199.91" cy="153.05" r="22.45" xlink:href="#radial-gradient"/><filter id="luminosity-noclip-3" x="258.7" y="-10454.21" width="10.86" height="32766" filterUnits="userSpaceOnUse" color-interpolation-filters="sRGB"><feFlood flood-color="#fff" result="bg"/><feBlend in="SourceGraphic" in2="bg"/></filter><mask id="mask-3" x="258.7" y="-10454.21" width="10.86" height="32766" maskUnits="userSpaceOnUse"><g class="cls-80"/></mask><radialGradient id="radial-gradient-3" cx="-173.06" cy="153.05" r="22.45" xlink:href="#radial-gradient"/><filter id="luminosity-noclip-4" x="271.97" y="-10454.21" width="10.86" height="32766" filterUnits="userSpaceOnUse" color-interpolation-filters="sRGB"><feFlood flood-color="#fff" result="bg"/><feBlend in="SourceGraphic" in2="bg"/></filter><mask id="mask-4" x="271.97" y="-10454.21" width="10.86" height="32766" maskUnits="userSpaceOnUse"><g class="cls-79"/></mask><radialGradient id="radial-gradient-4" cx="-186.32" cy="176.08" r="22.45" xlink:href="#radial-gradient"/><filter id="luminosity-noclip-5" x="299.18" y="-10454.21" width="10.86" height="32766" filterUnits="userSpaceOnUse" color-interpolation-filters="sRGB"><feFlood flood-color="#fff" result="bg"/><feBlend in="SourceGraphic" in2="bg"/></filter><mask id="mask-5" x="299.18" y="-10454.21" width="10.86" height="32766" maskUnits="userSpaceOnUse"><g class="cls-78"/></mask><radialGradient id="radial-gradient-5" cx="-211.59" cy="176.31" r="22.45" gradientTransform="matrix(-1, 0, 0, 1, 97.42, 0)" gradientUnits="userSpaceOnUse"><stop offset="0" stop-color="#fff"/><stop offset="0.5" stop-color="#1a1a1a"/></radialGradient><linearGradient id="Degradado_sin_nombre_10" x1="35.59" y1="102.85" x2="372.54" y2="102.85" gradientUnits="userSpaceOnUse"><stop offset="0" stop-color="#466898"/><stop offset="0.2" stop-color="#496899"/><stop offset="0.31" stop-color="#51689a"/><stop offset="0.41" stop-color="#5f699d"/><stop offset="0.5" stop-color="#736aa2"/><stop offset="0.5" stop-color="#746aa2"/><stop offset="0.52" stop-color="#686f97"/><stop offset="0.57" stop-color="#487a7b"/><stop offset="0.63" stop-color="#2e8463"/><stop offset="0.69" stop-color="#198c51"/><stop offset="0.77" stop-color="#0b9145"/><stop offset="0.85" stop-color="#03943d"/><stop offset="1" stop-color="#00953b"/></linearGradient><linearGradient id="linear-gradient" x1="32.81" y1="36.79" x2="40.65" y2="26.22" gradientUnits="userSpaceOnUse"><stop offset="0" stop-color="#fd6b64"/><stop offset="0.25" stop-color="#fbc156"/><stop offset="0.57" stop-color="#f3f56f"/><stop offset="0.74" stop-color="#8bd7b5"/><stop offset="1" stop-color="#1d5ca5"/></linearGradient><linearGradient id="linear-gradient-2" x1="-7.87" y1="104.82" x2="56.44" y2="27.65" gradientUnits="userSpaceOnUse"><stop offset="0" stop-color="#fd6b64"/><stop offset="0.25" stop-color="#fbc156"/><stop offset="0.49" stop-color="#f3f56f"/><stop offset="0.74" stop-color="#8bd7b5"/><stop offset="1" stop-color="#1d5ca5"/></linearGradient><linearGradient id="linear-gradient-3" x1="28.79" y1="44.39" x2="62.61" y2="80.78" xlink:href="#linear-gradient-2"/><linearGradient id="linear-gradient-4" x1="136.31" y1="61.2" x2="14.09" y2="73.92" gradientUnits="userSpaceOnUse"><stop offset="0" stop-color="#fd6b64"/><stop offset="0.25" stop-color="#fbc156"/><stop offset="0.32" stop-color="#f3f56f"/><stop offset="0.39" stop-color="#ceea88"/><stop offset="0.46" stop-color="#b1e29c"/><stop offset="0.53" stop-color="#9cdcaa"/><stop offset="0.6" stop-color="#8fd8b2"/><stop offset="0.67" stop-color="#8bd7b5"/><stop offset="0.96" stop-color="#1d5ca5"/></linearGradient><linearGradient id="linear-gradient-5" x1="3.55" y1="92.18" x2="44.39" y2="38.82" gradientUnits="userSpaceOnUse"><stop offset="0" stop-color="#fd6b64"/><stop offset="0.25" stop-color="#fbc156"/><stop offset="0.34" stop-color="#f3f56f"/><stop offset="0.72" stop-color="#8bd7b5"/><stop offset="1" stop-color="#1d5ca5"/></linearGradient><linearGradient id="linear-gradient-6" x1="5.3" y1="-5.07" x2="72.79" y2="81.6" gradientUnits="userSpaceOnUse"><stop offset="0" stop-color="#fd6b64"/><stop offset="0.25" stop-color="#fbc156"/><stop offset="0.28" stop-color="#f3f56f"/><stop offset="0.78" stop-color="#8bd7b5"/><stop offset="1" stop-color="#1d5ca5"/></linearGradient><linearGradient id="linear-gradient-7" x1="137.68" y1="58.5" x2="3.88" y2="66.97" gradientUnits="userSpaceOnUse"><stop offset="0" stop-color="#fd6b64"/><stop offset="0.25" stop-color="#fbc156"/><stop offset="0.32" stop-color="#f3f56f"/><stop offset="0.4" stop-color="#ceea88"/><stop offset="0.47" stop-color="#b1e29c"/><stop offset="0.55" stop-color="#9cdcaa"/><stop offset="0.63" stop-color="#8fd8b2"/><stop offset="0.7" stop-color="#8bd7b5"/><stop offset="0.94" stop-color="#1d5ca5"/></linearGradient><radialGradient id="radial-gradient-6" cx="-227.54" cy="151.42" r="26.68" gradientTransform="matrix(-1, 0, 0, 1, 97.42, 0)" gradientUnits="userSpaceOnUse"><stop offset="0.51" stop-color="#4687c9"/><stop offset="0.61" stop-color="#3963b3"/><stop offset="0.71" stop-color="#2f46a0"/><stop offset="0.81" stop-color="#283193"/><stop offset="0.91" stop-color="#23248c"/><stop offset="1" stop-color="#222089"/></radialGradient><radialGradient id="radial-gradient-7" cx="-227.54" cy="151.42" r="26.68" xlink:href="#radial-gradient-6"/><radialGradient id="radial-gradient-8" cx="-227.54" cy="151.42" r="26.68" xlink:href="#radial-gradient-6"/><radialGradient id="radial-gradient-9" cx="-227.54" cy="151.43" r="26.67" xlink:href="#radial-gradient-6"/><filter id="luminosity-noclip-6" x="312.41" y="154.05" width="10.86" height="11.01" filterUnits="userSpaceOnUse" color-interpolation-filters="sRGB"><feFlood flood-color="#fff" result="bg"/><feBlend in="SourceGraphic" in2="bg"/></filter><mask id="mask-6" x="312.41" y="154.05" width="10.86" height="11.01" maskUnits="userSpaceOnUse"><g class="cls-1"><path class="cls-2" d="M312.54,157a5.55,5.55,0,0,0,3,3.12c1,.5,2.34.77,3.18,1.57a15.49,15.49,0,0,1,1.67,2c.39.51,1.42,1.84,2.18,1.08s.74-2.25.67-3.28C323,158,321,155,317.47,154.16a.07.07,0,0,0-.08,0,6.3,6.3,0,0,0-3.2.17C312.91,154.72,312.07,155.65,312.54,157Z"/></g></mask><radialGradient id="radial-gradient-10" cx="-226.77" cy="153.05" r="22.45" gradientTransform="matrix(-1, 0, 0, 1, 97.42, 0)" gradientUnits="userSpaceOnUse"><stop offset="0" stop-color="#fff"/><stop offset="1" stop-color="#fff"/></radialGradient><radialGradient id="radial-gradient-11" cx="-200.69" cy="151.42" r="26.68" xlink:href="#radial-gradient-6"/><radialGradient id="radial-gradient-12" cx="-200.69" cy="151.42" r="26.68" xlink:href="#radial-gradient-6"/><radialGradient id="radial-gradient-13" cx="-200.69" cy="151.42" r="26.68" xlink:href="#radial-gradient-6"/><radialGradient id="radial-gradient-14" cx="-200.69" cy="151.43" r="26.67" xlink:href="#radial-gradient-6"/><filter id="luminosity-noclip-7" x="285.56" y="154.05" width="10.86" height="11.01" filterUnits="userSpaceOnUse" color-interpolation-filters="sRGB"><feFlood flood-color="#fff" result="bg"/><feBlend in="SourceGraphic" in2="bg"/></filter><mask id="mask-7" x="285.56" y="154.05" width="10.86" height="11.01" maskUnits="userSpaceOnUse"><g class="cls-3"><path class="cls-4" d="M285.69,157a5.49,5.49,0,0,0,3,3.12c1,.5,2.34.77,3.18,1.57a16.33,16.33,0,0,1,1.67,2c.38.51,1.42,1.84,2.17,1.08s.75-2.25.68-3.28c-.25-3.51-2.27-6.54-5.77-7.39a.06.06,0,0,0-.07,0,6.29,6.29,0,0,0-3.2.17C286.06,154.72,285.22,155.65,285.69,157Z"/></g></mask><radialGradient id="radial-gradient-15" cx="-199.91" cy="153.05" r="22.45" xlink:href="#radial-gradient-10"/><radialGradient id="radial-gradient-16" cx="-173.83" cy="151.42" r="26.68" xlink:href="#radial-gradient-6"/><radialGradient id="radial-gradient-17" cx="-173.83" cy="151.42" r="26.68" xlink:href="#radial-gradient-6"/><radialGradient id="radial-gradient-18" cx="-173.83" cy="151.42" r="26.68" xlink:href="#radial-gradient-6"/><radialGradient id="radial-gradient-19" cx="-173.83" cy="151.43" r="26.67" xlink:href="#radial-gradient-6"/><filter id="luminosity-noclip-8" x="258.7" y="154.05" width="10.86" height="11.01" filterUnits="userSpaceOnUse" color-interpolation-filters="sRGB"><feFlood flood-color="#fff" result="bg"/><feBlend in="SourceGraphic" in2="bg"/></filter><mask id="mask-8" x="258.7" y="154.05" width="10.86" height="11.01" maskUnits="userSpaceOnUse"><g class="cls-5"><path class="cls-6" d="M258.84,157a5.5,5.5,0,0,0,3,3.12c1,.5,2.35.77,3.19,1.57a15.41,15.41,0,0,1,1.66,2c.39.51,1.42,1.84,2.18,1.08s.75-2.25.68-3.28c-.25-3.51-2.28-6.54-5.77-7.39a.07.07,0,0,0-.08,0,6.3,6.3,0,0,0-3.2.17C259.2,154.72,258.37,155.65,258.84,157Z"/></g></mask><radialGradient id="radial-gradient-20" cx="-173.06" cy="153.05" r="22.45" xlink:href="#radial-gradient-10"/><radialGradient id="radial-gradient-21" cx="-187.1" cy="174.46" r="26.68" xlink:href="#radial-gradient-6"/><radialGradient id="radial-gradient-22" cx="-187.1" cy="174.46" r="26.68" xlink:href="#radial-gradient-6"/><radialGradient id="radial-gradient-23" cx="-187.1" cy="174.46" r="26.68" xlink:href="#radial-gradient-6"/><radialGradient id="radial-gradient-24" cx="-187.1" cy="174.46" r="26.67" xlink:href="#radial-gradient-6"/><filter id="luminosity-noclip-9" x="271.97" y="177.08" width="10.86" height="11.01" filterUnits="userSpaceOnUse" color-interpolation-filters="sRGB"><feFlood flood-color="#fff" result="bg"/><feBlend in="SourceGraphic" in2="bg"/></filter><mask id="mask-9" x="271.97" y="177.08" width="10.86" height="11.01" maskUnits="userSpaceOnUse"><g class="cls-7"><path class="cls-8" d="M272.1,180.06a5.52,5.52,0,0,0,3,3.12c1,.5,2.34.76,3.18,1.57a16.33,16.33,0,0,1,1.67,2c.38.51,1.42,1.83,2.17,1.08s.75-2.26.68-3.29c-.25-3.51-2.27-6.54-5.77-7.38a.11.11,0,0,0-.08,0,6.38,6.38,0,0,0-3.19.18C272.47,177.75,271.63,178.68,272.1,180.06Z"/></g></mask><radialGradient id="radial-gradient-25" cx="-186.32" cy="176.08" r="22.45" xlink:href="#radial-gradient-10"/><radialGradient id="radial-gradient-26" cx="-214.07" cy="174.46" r="26.68" gradientTransform="matrix(-1, 0, 0, 1, 97.42, 0)" gradientUnits="userSpaceOnUse"><stop offset="0.23" stop-color="#c30f8f"/><stop offset="0.39" stop-color="#d71d86"/><stop offset="0.6" stop-color="#ec2c7d"/><stop offset="0.8" stop-color="#f93578"/><stop offset="1" stop-color="#fd3876"/></radialGradient><radialGradient id="radial-gradient-27" cx="-221.85" cy="164.45" r="45.6" gradientTransform="matrix(-1, 0, 0, 1, 97.42, 0)" gradientUnits="userSpaceOnUse"><stop offset="0.22" stop-color="#542697"/><stop offset="0.27" stop-color="#662893"/><stop offset="0.39" stop-color="#942d8b"/><stop offset="0.52" stop-color="#ba3183"/><stop offset="0.64" stop-color="#d7347d"/><stop offset="0.77" stop-color="#ec3679"/><stop offset="0.89" stop-color="#f93877"/><stop offset="1" stop-color="#fd3876"/></radialGradient><radialGradient id="radial-gradient-28" cx="-221.84" cy="164.45" r="45.6" xlink:href="#radial-gradient-27"/><filter id="luminosity-noclip-10" x="299.18" y="177.08" width="10.86" height="11.01" filterUnits="userSpaceOnUse" color-interpolation-filters="sRGB"><feFlood flood-color="#fff" result="bg"/><feBlend in="SourceGraphic" in2="bg"/></filter><mask id="mask-10" x="299.18" y="177.08" width="10.86" height="11.01" maskUnits="userSpaceOnUse"><g class="cls-9"><path class="cls-10" d="M299.31,180.06a5.52,5.52,0,0,0,3,3.12c1,.5,2.34.76,3.18,1.57a16.33,16.33,0,0,1,1.67,2c.38.51,1.42,1.83,2.17,1.08s.75-2.26.68-3.29c-.25-3.51-2.27-6.54-5.77-7.38a.11.11,0,0,0-.08,0,6.38,6.38,0,0,0-3.19.18C299.68,177.75,298.84,178.68,299.31,180.06Z"/></g></mask><radialGradient id="radial-gradient-29" cx="-211.59" cy="176.31" r="22.45" gradientTransform="matrix(-1, 0, 0, 1, 97.42, 0)" gradientUnits="userSpaceOnUse"><stop offset="0" stop-color="#231f20"/><stop offset="0.5" stop-color="#b2e5e3"/></radialGradient></defs><g class="cls-11"><g id="Capa_2" data-name="Capa 2"><g id="Capa_1-2" data-name="Capa 1"><path class="cls-12" d="M6.24,2A1.07,1.07,0,0,1,7.36.78,1.08,1.08,0,0,1,8.49,2v8.52a1.08,1.08,0,0,1-1.13,1.17,1.07,1.07,0,0,1-1.12-1.17Z"/><path class="cls-12" d="M9.78,4.68a1.09,1.09,0,0,1,1.08-1.2.92.92,0,0,1,1,.81,2.67,2.67,0,0,1,2-.9,2.74,2.74,0,0,1,2.23,1.09,3.26,3.26,0,0,1,2.28-1.09,2.71,2.71,0,0,1,3,2.91v4.14a1.09,1.09,0,1,1-2.16,0V6.67c0-.87-.48-1.48-1.26-1.48a1.31,1.31,0,0,0-1.28,1.48v3.77a1.09,1.09,0,1,1-2.16,0V6.67c0-.87-.48-1.48-1.26-1.48s-1.27.61-1.27,1.48v3.77a1.09,1.09,0,1,1-2.16,0Z"/><path class="cls-12" d="M22.56,4.68a1.09,1.09,0,0,1,1.08-1.2,1,1,0,0,1,1.08.9,2.38,2.38,0,0,1,2.05-1c2.33,0,3.48,2.17,3.48,4.28s-1.38,4.06-3.55,4.06a3.1,3.1,0,0,1-2-.75v2.64a1.09,1.09,0,1,1-2.16,0Zm3.85,5.07c1.13,0,1.68-1.17,1.68-2.17s-.55-2.21-1.68-2.21S24.72,6.45,24.72,7.5,25.23,9.75,26.41,9.75Z"/><path class="cls-12" d="M38.59,7.58a3.88,3.88,0,1,1-7.74,0,3.88,3.88,0,1,1,7.74,0ZM33,7.58c0,1,.54,2.17,1.71,2.17s1.71-1.14,1.71-2.17-.52-2.21-1.71-2.21S33,6.54,33,7.58Z"/><path class="cls-12" d="M44.05,5.91c-.4,0-1.23-.63-1.93-.63-.39,0-.74.18-.74.6,0,1,3.75.85,3.75,3.31,0,1.44-1.21,2.54-3.07,2.54-1.22,0-3-.69-3-1.67a1,1,0,0,1,.93-1c.84,0,1.22.74,2.24.74.66,0,.85-.21.85-.62,0-1-3.75-.84-3.75-3.31,0-1.5,1.22-2.52,2.93-2.52,1.06,0,2.7.49,2.7,1.56A.94.94,0,0,1,44.05,5.91Z"/><path class="cls-12" d="M48.16,1.42A1.24,1.24,0,0,1,47,2.67a1.27,1.27,0,0,1-1.22-1.25A1.25,1.25,0,0,1,47,.24,1.23,1.23,0,0,1,48.16,1.42ZM45.87,4.68a1.09,1.09,0,1,1,2.16,0v5.76a1.09,1.09,0,1,1-2.16,0Z"/><path class="cls-12" d="M49.23,1.2a1.09,1.09,0,1,1,2.16,0V4.14a3.09,3.09,0,0,1,2-.75c2.33,0,3.48,2.17,3.48,4.28s-1.38,4.06-3.55,4.06a2.34,2.34,0,0,1-2-1,1,1,0,0,1-1.08.9,1.09,1.09,0,0,1-1.08-1.2Zm3.85,8.55c1.13,0,1.68-1.17,1.68-2.17s-.55-2.21-1.68-2.21S51.39,6.45,51.39,7.5,51.9,9.75,53.08,9.75Z"/><path class="cls-12" d="M57.81,1.2A1.09,1.09,0,1,1,60,1.2v9.24a1.09,1.09,0,1,1-2.16,0Z"/><path class="cls-12" d="M62.91,8.28a1.87,1.87,0,0,0,2,1.56c1.11,0,1.87-.87,2.44-.87a1,1,0,0,1,.89.93c0,.93-1.92,1.83-3.53,1.83a3.93,3.93,0,0,1-4-4.15,3.89,3.89,0,1,1,7.76-.26.83.83,0,0,1-.95,1ZM66.3,6.84a1.71,1.71,0,0,0-1.73-1.65,1.74,1.74,0,0,0-1.71,1.65Z"/><path class="cls-12" d="M83.62,93.25a1.07,1.07,0,0,1,1.12-1.17,1.08,1.08,0,0,1,1.13,1.17v8.52a1.08,1.08,0,0,1-1.13,1.17,1.07,1.07,0,0,1-1.12-1.17Z"/><path class="cls-12" d="M87.16,96a1.09,1.09,0,0,1,1.08-1.2.92.92,0,0,1,1,.81,2.67,2.67,0,0,1,2-.9,2.77,2.77,0,0,1,2.23,1.1,3.25,3.25,0,0,1,2.28-1.1,2.71,2.71,0,0,1,3,2.91v4.14a1.09,1.09,0,1,1-2.16,0V98A1.29,1.29,0,1,0,94,98v3.76a1.09,1.09,0,1,1-2.16,0V98c0-.87-.48-1.49-1.26-1.49s-1.27.62-1.27,1.49v3.76a1.09,1.09,0,1,1-2.16,0Z"/><path class="cls-12" d="M99.93,96a1.09,1.09,0,0,1,1.08-1.2,1,1,0,0,1,1.08.9,2.41,2.41,0,0,1,2.06-1c2.32,0,3.48,2.18,3.48,4.28s-1.38,4.06-3.55,4.06a3.09,3.09,0,0,1-2-.75v2.64a1.09,1.09,0,1,1-2.16,0Zm3.86,5.07c1.13,0,1.68-1.17,1.68-2.17s-.55-2.21-1.68-2.21-1.7,1.08-1.7,2.13S102.6,101.05,103.79,101.05Z"/><path class="cls-12" d="M108.51,95.86a1.07,1.07,0,0,1,1.12-1.08c.57,0,1,.21,1,.9h0a1.7,1.7,0,0,1,1.51-.9,1.06,1.06,0,0,1,1,1.16c0,.7-.64.75-1.29,1s-1.31.58-1.31,1.44v3.31a1.09,1.09,0,1,1-2.16,0Z"/><path class="cls-12" d="M120.69,98.88a3.88,3.88,0,1,1-7.74,0,3.88,3.88,0,1,1,7.74,0Zm-5.58,0c0,1,.54,2.17,1.71,2.17s1.71-1.14,1.71-2.17-.52-2.21-1.71-2.21S115.11,97.84,115.11,98.88Z"/><path class="cls-12" d="M121.61,92.5a1.09,1.09,0,1,1,2.16,0v2.94a3.14,3.14,0,0,1,2-.75c2.33,0,3.48,2.18,3.48,4.28s-1.38,4.06-3.55,4.06a2.34,2.34,0,0,1-2-1,1,1,0,0,1-1.08.9,1.09,1.09,0,0,1-1.08-1.2Zm3.85,8.55c1.13,0,1.68-1.17,1.68-2.17s-.55-2.21-1.68-2.21-1.69,1.08-1.69,2.13S124.28,101.05,125.46,101.05Z"/><path class="cls-12" d="M137.6,101.53c0,.56,0,1.41-1,1.41-.63,0-.88-.34-1-.91a2.59,2.59,0,0,1-2.06,1c-2,0-3.57-1.72-3.57-4.15s1.6-4.19,3.57-4.19a2.48,2.48,0,0,1,2.06,1,1,1,0,0,1,1-.9c1,0,1,.86,1,1.41Zm-3.83-.48c1.13,0,1.67-1.14,1.67-2.17s-.53-2.21-1.67-2.21-1.71,1.17-1.71,2.21S132.6,101.05,133.77,101.05Z"/><path class="cls-12" d="M138.83,92.5a1.09,1.09,0,1,1,2.16,0v2.94a3.14,3.14,0,0,1,2-.75c2.33,0,3.48,2.18,3.48,4.28S145.14,103,143,103a2.34,2.34,0,0,1-2-1,1,1,0,0,1-1.08.9,1.09,1.09,0,0,1-1.08-1.2Zm3.85,8.55c1.13,0,1.68-1.17,1.68-2.17s-.55-2.21-1.68-2.21S141,97.75,141,98.8,141.5,101.05,142.68,101.05Z"/><path class="cls-12" d="M147.41,92.5a1.09,1.09,0,1,1,2.16,0v9.24a1.09,1.09,0,1,1-2.16,0Z"/><path class="cls-12" d="M152.51,99.58a1.86,1.86,0,0,0,2,1.56c1.11,0,1.87-.87,2.44-.87a1,1,0,0,1,.89.93c0,.93-1.92,1.83-3.53,1.83a3.93,3.93,0,0,1-4-4.15,3.89,3.89,0,1,1,7.76-.26c0,.65-.29,1-.95,1Zm3.39-1.44a1.71,1.71,0,0,0-1.73-1.65,1.75,1.75,0,0,0-1.71,1.65Z"/><path class="cls-12" d="M79.72,221.7a1.08,1.08,0,0,1,1.17-1.17h2.66a3.58,3.58,0,1,1,.09,7.14H82v2.45a1.13,1.13,0,1,1-2.25,0Zm2.25,4H83.5a1.6,1.6,0,0,0,0-3.19H82Z"/><path class="cls-12" d="M88,224.21a1.07,1.07,0,0,1,1.11-1.08c.57,0,1,.21,1,.91h0a1.72,1.72,0,0,1,1.52-.91,1.06,1.06,0,0,1,1,1.16c0,.71-.65.75-1.29,1.05s-1.31.58-1.31,1.44v3.31a1.09,1.09,0,1,1-2.16,0Z"/><path class="cls-12" d="M100.15,227.23a3.88,3.88,0,1,1-7.74,0,3.88,3.88,0,1,1,7.74,0Zm-5.58,0c0,1,.54,2.18,1.71,2.18S98,228.26,98,227.23s-.52-2.2-1.71-2.2S94.57,226.2,94.57,227.23Z"/><path class="cls-12" d="M101.07,220.86a1.09,1.09,0,1,1,2.16,0v2.93a3.14,3.14,0,0,1,2-.75c2.33,0,3.48,2.18,3.48,4.28s-1.38,4.06-3.55,4.06a2.34,2.34,0,0,1-2-1,1,1,0,0,1-1.08.9,1.09,1.09,0,0,1-1.08-1.2Zm3.85,8.55c1.13,0,1.68-1.17,1.68-2.18s-.55-2.2-1.68-2.2-1.69,1.08-1.69,2.13S103.74,229.41,104.92,229.41Z"/><path class="cls-12" d="M117.06,229.88c0,.56,0,1.41-1,1.41-.63,0-.88-.34-1-.91a2.59,2.59,0,0,1-2.06,1c-2,0-3.57-1.72-3.57-4.15S111,223,112.93,223a2.47,2.47,0,0,1,2.06,1,1,1,0,0,1,1-.91c1,0,1,.86,1,1.41Zm-3.83-.47c1.13,0,1.67-1.15,1.67-2.18s-.53-2.2-1.67-2.2-1.71,1.17-1.71,2.2S112.06,229.41,113.23,229.41Z"/><path class="cls-12" d="M118.29,220.86a1.09,1.09,0,1,1,2.16,0v2.93a3.14,3.14,0,0,1,2-.75c2.33,0,3.48,2.18,3.48,4.28s-1.38,4.06-3.55,4.06a2.34,2.34,0,0,1-2-1,1,1,0,0,1-1.08.9,1.09,1.09,0,0,1-1.08-1.2Zm3.85,8.55c1.13,0,1.68-1.17,1.68-2.18s-.55-2.2-1.68-2.2-1.69,1.08-1.69,2.13S121,229.41,122.14,229.41Z"/><path class="cls-12" d="M129.16,221.08a1.24,1.24,0,0,1-1.21,1.25,1.27,1.27,0,0,1-1.22-1.25,1.22,1.22,0,0,1,2.43,0Zm-2.29,3.25a1.09,1.09,0,1,1,2.16,0v5.76a1.09,1.09,0,1,1-2.16,0Z"/><path class="cls-12" d="M130.2,220.86a1.09,1.09,0,1,1,2.16,0v9.23a1.09,1.09,0,1,1-2.16,0Z"/><path class="cls-12" d="M135.82,221.08a1.24,1.24,0,0,1-1.21,1.25,1.27,1.27,0,0,1-1.22-1.25,1.22,1.22,0,0,1,2.43,0Zm-2.29,3.25a1.09,1.09,0,1,1,2.16,0v5.76a1.09,1.09,0,1,1-2.16,0Z"/><path class="cls-12" d="M144.27,230.09a1.09,1.09,0,0,1-1.08,1.2,1,1,0,0,1-1.08-.9,2.36,2.36,0,0,1-2,1,3.82,3.82,0,0,1-3.56-4.06c0-2.1,1.16-4.28,3.48-4.28a3.17,3.17,0,0,1,2.06.75v-2.93a1.09,1.09,0,1,1,2.16,0ZM140.41,225c-1.12,0-1.68,1.18-1.68,2.2s.56,2.18,1.68,2.18,1.7-1.2,1.7-2.25S141.57,225,140.41,225Z"/><path class="cls-12" d="M152.88,229.88c0,.56,0,1.41-1,1.41-.63,0-.88-.34-1-.91a2.59,2.59,0,0,1-2.06,1c-2,0-3.57-1.72-3.57-4.15s1.59-4.19,3.57-4.19a2.47,2.47,0,0,1,2.06,1,1,1,0,0,1,1-.91c1,0,1,.86,1,1.41Zm-3.83-.47c1.13,0,1.67-1.15,1.67-2.18s-.53-2.2-1.67-2.2-1.71,1.17-1.71,2.2S147.88,229.41,149.05,229.41Z"/><path class="cls-12" d="M161.49,230.09a1.09,1.09,0,0,1-1.08,1.2,1,1,0,0,1-1.08-.9,2.36,2.36,0,0,1-2,1,3.82,3.82,0,0,1-3.56-4.06c0-2.1,1.16-4.28,3.48-4.28a3.17,3.17,0,0,1,2.06.75v-2.93a1.09,1.09,0,1,1,2.16,0ZM157.63,225c-1.12,0-1.68,1.18-1.68,2.2s.56,2.18,1.68,2.18,1.7-1.2,1.7-2.25S158.79,225,157.63,225Z"/><path class="cls-12" d="M112.72,237.59h-.88a1,1,0,0,1-1-1,1,1,0,0,1,1-1H114a1,1,0,0,1,1,1.06v8.53a1.13,1.13,0,1,1-2.25,0Z"/><path class="cls-12" d="M120.25,235.9a.81.81,0,0,1,.84-.55.85.85,0,0,1,.89.82,1.86,1.86,0,0,1-.14.42l-4,9.24a.82.82,0,0,1-.84.55.86.86,0,0,1-.9-.82,1.71,1.71,0,0,1,.14-.42Z"/><path class="cls-12" d="M122.64,242.67c0-2.27,2.29-5.45,3.81-6.86a3.33,3.33,0,0,1,.48-.36.81.81,0,0,1,.45-.1,1.26,1.26,0,0,1,1.06,1.09,1.07,1.07,0,0,1-.31.62c-.6.73-1.58,1.69-2.07,2.4l0,0a2.39,2.39,0,0,1,.94-.19,3.28,3.28,0,0,1,3.14,3.37,3.71,3.71,0,0,1-3.77,3.71A3.63,3.63,0,0,1,122.64,242.67Zm2.34,0a1.43,1.43,0,1,0,1.42-1.56A1.43,1.43,0,0,0,125,242.67Z"/><path class="cls-13" d="M246.7,221.7a1.08,1.08,0,0,1,1.17-1.17h2.66a3.58,3.58,0,1,1,.09,7.14H249v2.45a1.13,1.13,0,1,1-2.25,0Zm2.25,4h1.53a1.6,1.6,0,0,0,0-3.19H249Z"/><path class="cls-13" d="M255,224.21a1.07,1.07,0,0,1,1.11-1.08c.57,0,1.05.21,1.05.91h0a1.72,1.72,0,0,1,1.52-.91,1.06,1.06,0,0,1,1,1.16c0,.71-.65.75-1.29,1.05s-1.31.58-1.31,1.44v3.31a1.09,1.09,0,1,1-2.16,0Z"/><path class="cls-13" d="M267.13,227.23a3.88,3.88,0,1,1-7.74,0,3.88,3.88,0,1,1,7.74,0Zm-5.58,0c0,1,.54,2.18,1.71,2.18s1.71-1.15,1.71-2.18-.52-2.2-1.71-2.2S261.55,226.2,261.55,227.23Z"/><path class="cls-13" d="M268.05,220.86a1.09,1.09,0,1,1,2.16,0v2.93a3.14,3.14,0,0,1,2.05-.75c2.33,0,3.48,2.18,3.48,4.28s-1.38,4.06-3.55,4.06a2.34,2.34,0,0,1-2-1,1,1,0,0,1-1.08.9,1.09,1.09,0,0,1-1.08-1.2Zm3.85,8.55c1.13,0,1.68-1.17,1.68-2.18S273,225,271.9,225s-1.69,1.08-1.69,2.13S270.72,229.41,271.9,229.41Z"/><path class="cls-13" d="M284,229.88c0,.56,0,1.41-1,1.41-.63,0-.88-.34-1-.91a2.59,2.59,0,0,1-2.06,1c-2,0-3.57-1.72-3.57-4.15s1.59-4.19,3.57-4.19a2.47,2.47,0,0,1,2.06,1,1,1,0,0,1,1-.91c1,0,1,.86,1,1.41Zm-3.83-.47c1.13,0,1.67-1.15,1.67-2.18s-.53-2.2-1.67-2.2-1.71,1.17-1.71,2.2S279,229.41,280.21,229.41Z"/><path class="cls-13" d="M285.27,220.86a1.09,1.09,0,1,1,2.16,0v2.93a3.14,3.14,0,0,1,2.05-.75c2.33,0,3.48,2.18,3.48,4.28s-1.38,4.06-3.55,4.06a2.34,2.34,0,0,1-2-1,1,1,0,0,1-1.08.9,1.09,1.09,0,0,1-1.08-1.2Zm3.85,8.55c1.13,0,1.68-1.17,1.68-2.18s-.55-2.2-1.68-2.2-1.69,1.08-1.69,2.13S287.94,229.41,289.12,229.41Z"/><path class="cls-13" d="M296.14,221.08a1.24,1.24,0,0,1-1.21,1.25,1.27,1.27,0,0,1-1.22-1.25,1.22,1.22,0,0,1,2.43,0Zm-2.29,3.25a1.09,1.09,0,1,1,2.16,0v5.76a1.09,1.09,0,1,1-2.16,0Z"/><path class="cls-13" d="M297.18,220.86a1.09,1.09,0,1,1,2.16,0v9.23a1.09,1.09,0,1,1-2.16,0Z"/><path class="cls-13" d="M302.8,221.08a1.24,1.24,0,0,1-1.21,1.25,1.27,1.27,0,0,1-1.22-1.25,1.22,1.22,0,0,1,2.43,0Zm-2.3,3.25a1.09,1.09,0,1,1,2.17,0v5.76a1.09,1.09,0,1,1-2.17,0Z"/><path class="cls-13" d="M311.25,230.09a1.09,1.09,0,0,1-1.08,1.2,1,1,0,0,1-1.08-.9,2.36,2.36,0,0,1-2,1,3.82,3.82,0,0,1-3.56-4.06c0-2.1,1.16-4.28,3.48-4.28a3.19,3.19,0,0,1,2.06.75v-2.93a1.09,1.09,0,1,1,2.16,0ZM307.39,225c-1.13,0-1.68,1.18-1.68,2.2s.55,2.18,1.68,2.18,1.7-1.2,1.7-2.25S308.55,225,307.39,225Z"/><path class="cls-13" d="M319.85,229.88c0,.56,0,1.41-1,1.41-.63,0-.89-.34-1-.91a2.57,2.57,0,0,1-2,1c-2,0-3.57-1.72-3.57-4.15s1.59-4.19,3.57-4.19a2.46,2.46,0,0,1,2,1,1,1,0,0,1,1-.91c1,0,1,.86,1,1.41Zm-3.82-.47c1.12,0,1.66-1.15,1.66-2.18s-.52-2.2-1.66-2.2-1.71,1.17-1.71,2.2S314.86,229.41,316,229.41Z"/><path class="cls-13" d="M328.46,230.09a1.09,1.09,0,0,1-1.08,1.2,1,1,0,0,1-1.08-.9,2.34,2.34,0,0,1-2,1c-2.17,0-3.55-2-3.55-4.06s1.15-4.28,3.48-4.28a3.14,3.14,0,0,1,2.05.75v-2.93a1.09,1.09,0,1,1,2.16,0ZM324.61,225c-1.13,0-1.68,1.18-1.68,2.2s.55,2.18,1.68,2.18,1.69-1.2,1.69-2.25S325.76,225,324.61,225Z"/><path class="cls-13" d="M277.18,243.85a1,1,0,0,1-1.05-.89,1.17,1.17,0,0,1,.21-.66l3.36-6.09a1.53,1.53,0,0,1,1.53-.86,1.7,1.7,0,0,1,1.73,1.92v4.6h.25a1,1,0,1,1,0,2H283v1.27c0,.8-.32,1.17-1.08,1.17s-1.08-.37-1.08-1.17v-1.27Zm3.62-6.16h0l-2,4.18h2.06Z"/><path class="cls-13" d="M288.76,235.9a.81.81,0,0,1,.84-.55.85.85,0,0,1,.89.82,1.86,1.86,0,0,1-.14.42l-4,9.24a.82.82,0,0,1-.84.55.86.86,0,0,1-.9-.82,1.71,1.71,0,0,1,.14-.42Z"/><path class="cls-13" d="M294.13,239.19a5.3,5.3,0,0,1,1.13-.15,3.09,3.09,0,0,1,3.1,3.19c0,2.51-1.38,4.15-4,4.15-1.07,0-3.3-.68-3.3-2a1,1,0,0,1,1-1c.6,0,1.32,1,2.32,1a1.77,1.77,0,0,0,1.59-2,1.37,1.37,0,0,0-1.44-1.52c-.87,0-1,.5-1.77.5a.84.84,0,0,1-.88-.71c0-.19,0-.34,0-.5l.38-3.17c.16-1.17.45-1.42,1.17-1.42h3.61a1,1,0,0,1,1.1.94,1,1,0,0,1-1.05,1.12h-2.82Z"/><path class="cls-13" d="M258.92,93.34a1.08,1.08,0,0,1,1.17-1.17h2.65a3.57,3.57,0,0,1,3.84,3.59,3.52,3.52,0,0,1-3.75,3.55h-1.66v2.46a1.13,1.13,0,1,1-2.25,0Zm2.25,4h1.53a1.59,1.59,0,0,0,0-3.18h-1.53Z"/><path class="cls-13" d="M267.17,95.86a1.06,1.06,0,0,1,1.11-1.08c.57,0,1.05.21,1.05.9h0a1.7,1.7,0,0,1,1.51-.9,1.06,1.06,0,0,1,1.05,1.16c0,.7-.64.75-1.29,1s-1.3.58-1.3,1.44v3.31a1.09,1.09,0,1,1-2.16,0Z"/><path class="cls-13" d="M279.35,98.88a3.88,3.88,0,1,1-7.74,0,3.88,3.88,0,1,1,7.74,0Zm-5.58,0c0,1,.54,2.17,1.71,2.17s1.71-1.14,1.71-2.17-.53-2.21-1.71-2.21S273.77,97.84,273.77,98.88Z"/><path class="cls-13" d="M280.26,92.5a1.09,1.09,0,1,1,2.16,0v2.94a3.17,3.17,0,0,1,2.06-.75c2.32,0,3.48,2.18,3.48,4.28A3.82,3.82,0,0,1,284.4,103a2.36,2.36,0,0,1-2-1,1,1,0,0,1-1.08.9,1.09,1.09,0,0,1-1.08-1.2Zm3.86,8.55c1.12,0,1.68-1.17,1.68-2.17s-.56-2.21-1.68-2.21-1.7,1.08-1.7,2.13S282.93,101.05,284.12,101.05Z"/><path class="cls-13" d="M296.25,101.53c0,.56,0,1.41-1,1.41-.63,0-.89-.34-1-.91a2.57,2.57,0,0,1-2.05,1c-2,0-3.57-1.72-3.57-4.15s1.59-4.19,3.57-4.19a2.48,2.48,0,0,1,2.05,1,1,1,0,0,1,1-.9c1,0,1,.86,1,1.41Zm-3.82-.48c1.12,0,1.66-1.14,1.66-2.17s-.52-2.21-1.66-2.21-1.71,1.17-1.71,2.21S291.26,101.05,292.43,101.05Z"/><path class="cls-13" d="M297.48,92.5a1.09,1.09,0,1,1,2.16,0v2.94a3.17,3.17,0,0,1,2.06-.75c2.32,0,3.48,2.18,3.48,4.28a3.82,3.82,0,0,1-3.56,4.06,2.36,2.36,0,0,1-2-1,1,1,0,0,1-1.08.9,1.09,1.09,0,0,1-1.08-1.2Zm3.86,8.55c1.12,0,1.68-1.17,1.68-2.17s-.56-2.21-1.68-2.21-1.7,1.08-1.7,2.13S300.15,101.05,301.34,101.05Z"/><path class="cls-13" d="M306.06,92.5a1.09,1.09,0,1,1,2.16,0v9.24a1.09,1.09,0,1,1-2.16,0Z"/><path class="cls-13" d="M311.16,99.58a1.87,1.87,0,0,0,2,1.56c1.11,0,1.88-.87,2.45-.87a1,1,0,0,1,.88.93c0,.93-1.92,1.83-3.52,1.83A3.93,3.93,0,0,1,309,98.88a3.88,3.88,0,1,1,7.75-.26c0,.65-.28,1-.94,1Zm3.39-1.44a1.71,1.71,0,0,0-1.72-1.65,1.74,1.74,0,0,0-1.71,1.65Z"/><path class="cls-14" d="M160.3,1.93A1.51,1.51,0,0,1,161.77.78a1.6,1.6,0,0,1,1.5,1.08L165,7.8h0l1.77-5.94a1.61,1.61,0,0,1,1.5-1.08,1.5,1.5,0,0,1,1.47,1.15l1.4,8.37a2.35,2.35,0,0,1,0,.26,1,1,0,0,1-1.08,1.08c-.76,0-1.06-.35-1.17-1.05l-.88-6.11h0l-1.8,6.29a1.26,1.26,0,0,1-2.4,0l-1.8-6.29h0l-.89,6.11c-.1.7-.4,1.05-1.17,1.05a1,1,0,0,1-1.08-1.08,1.18,1.18,0,0,1,0-.26Z"/><path class="cls-14" d="M174.46,1.42a1.24,1.24,0,0,1-1.21,1.25A1.27,1.27,0,0,1,172,1.42,1.25,1.25,0,0,1,173.25.24,1.23,1.23,0,0,1,174.46,1.42Zm-2.29,3.26a1.09,1.09,0,1,1,2.16,0v5.76a1.09,1.09,0,1,1-2.16,0Z"/><path class="cls-14" d="M176.05,5.46h-.48a.87.87,0,0,1-.94-1,.91.91,0,0,1,.94-.94h.48V2.28a1.09,1.09,0,1,1,2.16,0V3.57h.62a.91.91,0,0,1,1,.94.91.91,0,0,1-1,1h-.62v5a1.09,1.09,0,1,1-2.16,0Z"/><path class="cls-14" d="M187.35,10.23c0,.55,0,1.41-1,1.41-.63,0-.88-.35-1-.92a2.6,2.6,0,0,1-2.06,1c-2,0-3.57-1.73-3.57-4.15s1.59-4.19,3.57-4.19a2.48,2.48,0,0,1,2.06,1,1,1,0,0,1,1-.9c1,0,1,.85,1,1.41Zm-3.83-.48c1.13,0,1.67-1.14,1.67-2.17s-.53-2.21-1.67-2.21-1.71,1.17-1.71,2.21S182.35,9.75,183.52,9.75Z"/><path class="cls-14" d="M196,10.44a1.09,1.09,0,0,1-1.08,1.2,1,1,0,0,1-1.08-.9,2.36,2.36,0,0,1-2,1,3.82,3.82,0,0,1-3.56-4.06c0-2.11,1.16-4.28,3.48-4.28a3.11,3.11,0,0,1,2.06.75V1.2a1.09,1.09,0,1,1,2.16,0ZM192.1,5.37c-1.12,0-1.68,1.18-1.68,2.21s.56,2.17,1.68,2.17,1.7-1.2,1.7-2.25S193.26,5.37,192.1,5.37Z"/><path class="cls-14" d="M200.67,5a1.49,1.49,0,0,1-.11-.55,1,1,0,0,1,1-.93,1.09,1.09,0,0,1,1.08.77l1.49,4.06,1.59-4.06a1.09,1.09,0,0,1,1.08-.77,1,1,0,0,1,1,.93,1.18,1.18,0,0,1-.11.55l-3.61,9a1.17,1.17,0,0,1-1,.86,1,1,0,0,1-1.13-.93,1.7,1.7,0,0,1,.14-.63l.94-2.34Z"/><path class="cls-14" d="M212.44,4.68a1.09,1.09,0,0,1,1.08-1.2.91.91,0,0,1,1,.81,2.7,2.7,0,0,1,2-.9,2.76,2.76,0,0,1,2.24,1.09A3.24,3.24,0,0,1,221,3.39a2.71,2.71,0,0,1,3,2.91v4.14a1.09,1.09,0,1,1-2.16,0V6.67c0-.87-.48-1.48-1.26-1.48s-1.27.61-1.27,1.48v3.77a1.09,1.09,0,1,1-2.16,0V6.67c0-.87-.48-1.48-1.26-1.48s-1.28.61-1.28,1.48v3.77a1.09,1.09,0,1,1-2.16,0Z"/><path class="cls-14" d="M227.49,1.42a1.24,1.24,0,0,1-1.22,1.25,1.27,1.27,0,0,1-1.21-1.25,1.22,1.22,0,0,1,2.43,0Zm-2.3,3.26a1.09,1.09,0,1,1,2.16,0v5.76a1.09,1.09,0,1,1-2.16,0Z"/><path class="cls-14" d="M229.08,5.46h-.48a.88.88,0,0,1-.95-1,.92.92,0,0,1,.95-.94h.48V2.28a1.09,1.09,0,1,1,2.16,0V3.57h.61c.56,0,1,.26,1,.94a.92.92,0,0,1-1,1h-.61v5a1.09,1.09,0,1,1-2.16,0Z"/><path class="cls-14" d="M240.37,10.23c0,.55,0,1.41-1,1.41-.63,0-.89-.35-1-.92a2.58,2.58,0,0,1-2.05,1c-2,0-3.57-1.73-3.57-4.15s1.59-4.19,3.57-4.19a2.48,2.48,0,0,1,2.05,1,1,1,0,0,1,1-.9c1,0,1,.85,1,1.41Zm-3.82-.48c1.12,0,1.66-1.14,1.66-2.17s-.52-2.21-1.66-2.21-1.71,1.17-1.71,2.21S235.38,9.75,236.55,9.75Z"/><path class="cls-14" d="M249,10.44a1.09,1.09,0,0,1-1.08,1.2,1,1,0,0,1-1.08-.9,2.34,2.34,0,0,1-2,1c-2.17,0-3.55-2-3.55-4.06s1.15-4.28,3.48-4.28a3.09,3.09,0,0,1,2,.75V1.2a1.09,1.09,0,1,1,2.16,0Zm-3.85-5.07c-1.13,0-1.68,1.18-1.68,2.21s.55,2.17,1.68,2.17,1.69-1.2,1.69-2.25S246.28,5.37,245.13,5.37Z"/><path class="cls-13" d="M355,2.19a1,1,0,0,1-1,1.11c-.62,0-1.1-.45-2-.45-.64,0-1.23.35-1.23,1,0,1.54,5,.55,5,4.42a3.57,3.57,0,0,1-3.84,3.48c-1.15,0-3.64-.27-3.64-1.68a1,1,0,0,1,1-1.07c.71,0,1.55.59,2.52.59s1.53-.56,1.53-1.29c0-1.77-5-.7-5-4.19A3.48,3.48,0,0,1,352,.69C352.87.69,355,1,355,2.19Z"/><path class="cls-13" d="M358.39,8.28a1.87,1.87,0,0,0,2,1.56c1.11,0,1.87-.87,2.45-.87a1,1,0,0,1,.88.93c0,.93-1.92,1.83-3.52,1.83a3.93,3.93,0,0,1-4.05-4.15,3.88,3.88,0,1,1,7.75-.26c0,.64-.28,1-.94,1Zm3.39-1.44a1.71,1.71,0,0,0-1.72-1.65,1.73,1.73,0,0,0-1.71,1.65Z"/><path class="cls-13" d="M372.09,10.92c0,2.59-1.7,3.9-4.16,3.9-.88,0-3.4-.44-3.4-1.62a1.05,1.05,0,0,1,.87-.95c.69,0,1.45.68,2.7.68a1.67,1.67,0,0,0,1.83-1.71v-.51h0a2.48,2.48,0,0,1-2.18,1c-2.26,0-3.33-2-3.33-4.14s1.38-4.2,3.56-4.2a2.36,2.36,0,0,1,2,1,1,1,0,0,1,1.07-.9,1.09,1.09,0,0,1,1.09,1.2Zm-3.86-5.55c-1.12,0-1.68,1.17-1.68,2.17,0,1.16.56,2.21,1.68,2.21s1.7-1.08,1.7-2.13S369.42,5.37,368.23,5.37Z"/><path class="cls-13" d="M373.31,4.68a1.09,1.09,0,1,1,2.16,0V8.54a1.4,1.4,0,0,0,2.79,0V4.68a1.09,1.09,0,1,1,2.16,0v3.9c0,1.92-1.27,3.15-3.55,3.15s-3.56-1.23-3.56-3.15Z"/><path class="cls-13" d="M381.63,4.56a1.06,1.06,0,0,1,1.11-1.08c.57,0,1.05.21,1.05.9h0a1.7,1.7,0,0,1,1.51-.9,1,1,0,0,1,1.05,1.15c0,.71-.64.75-1.29,1s-1.3.59-1.3,1.44v3.32a1.09,1.09,0,1,1-2.16,0Z"/><path class="cls-13" d="M393.8,7.58a3.87,3.87,0,1,1-7.73,0,3.88,3.88,0,1,1,7.73,0Zm-5.57,0c0,1,.54,2.17,1.71,2.17s1.71-1.14,1.71-2.17-.53-2.21-1.71-2.21S388.23,6.54,388.23,7.58Z"/><circle class="cls-15" cx="37.09" cy="55.87" r="35.59"/><circle class="cls-15" cx="120.57" cy="172.62" r="35.59"/><circle class="cls-16" cx="287.55" cy="172.62" r="35.59"/><circle class="cls-17" cx="204.06" cy="55.87" r="35.59"/><circle class="cls-16" cx="371.04" cy="55.87" r="35.59"/><line class="cls-15" x1="120.57" y1="137.03" x2="120.57" y2="114.25"/><line class="cls-17" x1="204.06" y1="91.46" x2="204.06" y2="114.25"/><line class="cls-16" x1="287.55" y1="137.03" x2="287.55" y2="114.25"/><polyline class="cls-18" points="371.04 91.46 371.04 114.25 37.09 114.25 37.09 91.46"/><line class="cls-15" x1="29.2" y1="127.36" x2="39.28" y2="127.36"/><line class="cls-15" x1="69.19" y1="121.4" x2="79.28" y2="121.4"/><line class="cls-15" x1="35.7" y1="121.4" x2="63.28" y2="121.4"/><line class="cls-16" x1="390.43" y1="114.25" x2="380.34" y2="114.25"/><line class="cls-16" x1="350.43" y1="120.22" x2="340.35" y2="120.22"/><line class="cls-16" x1="383.92" y1="120.22" x2="356.35" y2="120.22"/><path class="cls-19" d="M136.94,158.08l-1.23-1.66A2.52,2.52,0,0,0,134,155L132,154,109.73,181l5.76,4.09Z"/><path class="cls-20" d="M136.94,158.08,145.1,175c.57,1.37.79,2.16,0,3.14L129,197.65a2.36,2.36,0,0,1-3.08.61l-10.64-14.75c-.88-1.1-1.18-2.27-.27-3.38L133.32,158a2.72,2.72,0,0,1,1.17-.82A2,2,0,0,1,136.94,158.08Z"/><path class="cls-21" d="M132,154l-18.77-6.79a2.36,2.36,0,0,0-3.08.61L94,167.35a2.35,2.35,0,0,0,0,3.14l17.17,9.64c1.31.75,2.46.73,3.37-.37l18.33-22.18.09-.12A2.14,2.14,0,0,0,132,154Z"/><path class="cls-22" d="M125.9,198.26l-12.19-17L94,170.49l12.25,15.69a4.22,4.22,0,0,0,1.27,1.07Z"/><path class="cls-19" d="M125.9,198.26l-12.19-17L94,170.49l20,10.32S122.18,191.25,125.9,198.26Z"/><path class="cls-21" d="M137.13,179.7c1,.79,2.67.29,3.82-1.1s1.31-3.17.36-4-2.66-.3-3.82,1.1S136.18,178.91,137.13,179.7Z"/><path class="cls-23" d="M137.33,179.16c.95.79,2.66.3,3.81-1.1s1.32-3.17.36-3.95-2.66-.3-3.81,1.09S136.37,178.37,137.33,179.16Z"/><path class="cls-21" d="M131.51,170.75c1,.84,2.83.31,4.06-1.17s1.4-3.37.38-4.21-2.83-.32-4.06,1.17S130.49,169.91,131.51,170.75Z"/><path class="cls-23" d="M131.72,170.18c1,.83,2.83.31,4.06-1.17s1.4-3.37.38-4.21-2.83-.32-4.06,1.17S130.7,169.34,131.72,170.18Z"/><path class="cls-21" d="M127.89,190.67c1,.79,2.66.29,3.81-1.1s1.32-3.17.36-4-2.66-.3-3.81,1.1S126.93,189.88,127.89,190.67Z"/><path class="cls-23" d="M128.08,190.13c1,.79,2.67.3,3.82-1.1s1.31-3.17.36-3.95-2.67-.3-3.82,1.09S127.13,189.34,128.08,190.13Z"/><path class="cls-21" d="M122.26,181.87c1,.84,2.84.32,4.06-1.17s1.4-3.37.39-4.21-2.84-.31-4.06,1.17S121.25,181,122.26,181.87Z"/><path class="cls-23" d="M122.47,181.3c1,.84,2.83.32,4.06-1.17s1.4-3.37.39-4.21-2.84-.31-4.07,1.17S121.45,180.46,122.47,181.3Z"/><path class="cls-19" d="M109,156.33c1,.88,2.81.44,4.11-1s1.54-3.3.57-4.18-2.82-.45-4.11,1S108,155.44,109,156.33Z"/><path class="cls-24" d="M109.22,155.77c1,.88,2.82.44,4.11-1s1.55-3.3.57-4.18-2.82-.45-4.11,1S108.24,154.88,109.22,155.77Z"/><path class="cls-19" d="M110,175.79c.9,1,2.77.68,4.18-.64s1.82-3.16.91-4.13-2.77-.67-4.17.64S109.06,174.83,110,175.79Z"/><path class="cls-24" d="M110.24,175.25c.9,1,2.77.68,4.18-.64s1.81-3.16.91-4.12-2.77-.68-4.17.64S109.34,174.29,110.24,175.25Z"/><path class="cls-25" d="M107.12,182.7c.6-.72,2.41-.2,4.06,1.16s2.49,3,1.89,3.77-2.41.2-4-1.16S106.53,183.43,107.12,182.7Z"/><path class="cls-23" d="M106.87,182.06c.59-.72,2.41-.2,4,1.16s2.49,3.05,1.9,3.77-2.41.2-4.06-1.16S106.27,182.78,106.87,182.06Z"/><path class="cls-26" d="M394.36,77.2l-.06.67V78l-.05.54c0,.06,0,.11,0,.15l-.37,4.48a35.43,35.43,0,0,1-22.81,8.27,34.53,34.53,0,0,1-3.69-.19h-.1a35.45,35.45,0,0,1-14.08-4.6l-.13-.07-.08,0-.18-.11c-.09-3.51-.43-17.81-.25-20.65a17.71,17.71,0,0,1,2.75-7.55l8.06-4L364.69,51,365,51h.05l5.87-1.37h0l8.78-2.06.15.25L381.23,50h0l.74,1.18,2.85.7,6.77,1.66.85,7.29h0l0,.1.11,1V62l.2,1.7,0,.14,1.27,10.88.23,2v0Z"/><path class="cls-27" d="M378.67,38a43.59,43.59,0,0,0,1.55-7.48,15.55,15.55,0,0,0-1-7.5c-.15-.35-1.42-2.72-1.8-2.66s.55,2.27.42,2.51a13.15,13.15,0,0,0-1.08,7.71A35.34,35.34,0,0,0,378.67,38Z"/><path class="cls-28" d="M378.43,28.27c-.13-6.39-3.94-11.64-10.33-11.34l-.58.06a11.42,11.42,0,0,0-10.23,11.63c.14,5.54.36,11.65.71,14.59.72,6.09,6.91,6.4,6.91,6.4s.29,4,.29,4l2.62,2.85L380,48.94Z"/><path class="cls-29" d="M364.91,49.65a14.81,14.81,0,0,0,7.69-3.18,7.6,7.6,0,0,1-7.42,5.62Z"/><path class="cls-27" d="M360.8,33.59a.88.88,0,0,0,.93.79.85.85,0,0,0,.82-.88.87.87,0,0,0-.93-.79A.84.84,0,0,0,360.8,33.59Z"/><path class="cls-27" d="M358.86,31c.12.1.73-.46,1.67-.56s1.67.3,1.76.18-.09-.25-.41-.44a2.47,2.47,0,0,0-1.42-.28,2.29,2.29,0,0,0-1.31.58C358.88,30.76,358.8,31,358.86,31Z"/><path class="cls-27" d="M369.08,32.89a.88.88,0,0,0,.93.79.83.83,0,0,0,.81-.88.86.86,0,0,0-.93-.79A.82.82,0,0,0,369.08,32.89Z"/><path class="cls-27" d="M368.08,30.43c.12.1.73-.46,1.67-.55s1.67.3,1.76.17-.09-.25-.41-.44a2.49,2.49,0,0,0-1.43-.28,2.35,2.35,0,0,0-1.31.59C368.1,30.17,368,30.38,368.08,30.43Z"/><path class="cls-27" d="M365.48,38a6.59,6.59,0,0,0-1.55-.11c-.24,0-.48,0-.53-.19a1.21,1.21,0,0,1,.08-.72c.17-.6.34-1.24.52-1.9a30.47,30.47,0,0,0,1.08-4.93A31.69,31.69,0,0,0,363.6,35c-.17.67-.33,1.3-.48,1.91a1.39,1.39,0,0,0,0,1,.66.66,0,0,0,.43.31,1.51,1.51,0,0,0,.42,0A6.46,6.46,0,0,0,365.48,38Z"/><path class="cls-27" d="M368.3,38.34c-.15,0,0,1-.84,1.84s-1.89.81-1.88,1,.26.18.72.14a2.54,2.54,0,0,0,1.58-.74,2.25,2.25,0,0,0,.64-1.54C368.51,38.56,368.37,38.32,368.3,38.34Z"/><path class="cls-27" d="M367.73,26.62c.12.25,1,0,2.16,0s2,.23,2.15,0-.13-.34-.51-.55a3.51,3.51,0,0,0-1.64-.38,3.4,3.4,0,0,0-1.64.37C367.86,26.28,367.68,26.5,367.73,26.62Z"/><path class="cls-27" d="M358.92,27.86c.19.2.81-.09,1.59-.18s1.44,0,1.57-.25-.07-.32-.38-.49a2.21,2.21,0,0,0-1.32-.21,2.14,2.14,0,0,0-1.22.56C358.91,27.54,358.84,27.77,358.92,27.86Z"/><path class="cls-28" d="M378.4,32.83c.1,0,4.06-1.68,4.37,2.51s-4,3.62-4,3.5S378.4,32.83,378.4,32.83Z"/><path class="cls-29" d="M380,37.16s.07.05.2.1a.76.76,0,0,0,.55,0,1.8,1.8,0,0,0,.71-1.68,2.28,2.28,0,0,0-.28-1,.87.87,0,0,0-.59-.52.37.37,0,0,0-.41.23c-.05.13,0,.21,0,.22s-.09-.07-.07-.24a.47.47,0,0,1,.14-.28.54.54,0,0,1,.4-.13,1,1,0,0,1,.81.59,2.38,2.38,0,0,1,.33,1.15,1.87,1.87,0,0,1-.93,1.88.77.77,0,0,1-.67-.06C380,37.27,379.94,37.17,380,37.16Z"/><path class="cls-27" d="M359.55,21.52c-.7-.33,1.19-2.66,2.81-3.52,2.44-1.3,6.24-2.25,8.6-1.74a10.12,10.12,0,0,1,6.82,4.3,16.48,16.48,0,0,1,2.38,8.28,5,5,0,0,1-.42,2.6c-.53,1-1.61,1.62-1.48,2.89a1.73,1.73,0,0,1-.35,1.3c-.71.87-1.7.16-2.18-.58a12.18,12.18,0,0,1-1.45-5.4,12.2,12.2,0,0,1,0-4c.16-.71.45-1.39.57-2.1a2.51,2.51,0,0,0-.43-2.07,3.18,3.18,0,0,0-.36-.33,4.37,4.37,0,0,0-4.38-.54c-2.31,1-6.25,2.49-7.35,1.76a6.56,6.56,0,0,1-2-1.78Z"/><path class="cls-26" d="M355.29,58.23l-2.11,28.43-.13-.07-.08,0-.18-.11a36.24,36.24,0,0,1-6.36-4.85l1.3-7.82S349,64,350.32,61.87,355,58.56,355.29,58.23Z"/><g class="cls-30"><path d="M381,67.62a16.37,16.37,0,0,0,.74,3.86,5.52,5.52,0,0,0,2.38,3,7.18,7.18,0,0,1,1.43.82c.43.4.65,1,1,1.43a4.17,4.17,0,0,0,1.76,1,15.52,15.52,0,0,0,5.84.93c.06-.67.06-3.14.13-3.81Z"/></g><path class="cls-26" d="M391.59,53.52s4.32,1.27,5.59,3.12,3.51,9,4,10.29.05,4.4-.81,6.6-2.36,4.11-4.95,4.39-6.68-1.2-7.6-2.18a7.82,7.82,0,0,1-1.3-3.18,23.35,23.35,0,0,0,3.39-.85Z"/><path class="cls-27" d="M389.88,71.71s0,0-.05,0l-.16.06L389,72a22.94,22.94,0,0,1-2.52.61l0,0a11.55,11.55,0,0,0,.44,1.58,7.92,7.92,0,0,0,.38.85,2.93,2.93,0,0,0,.58.79,4.54,4.54,0,0,0,.87.58,9.54,9.54,0,0,0,1,.46,15.34,15.34,0,0,0,2.29.73,11.46,11.46,0,0,0,2.58.33c.23,0,.45,0,.68,0s.45-.06.67-.12a4.79,4.79,0,0,0,1.3-.5,5.85,5.85,0,0,0,2.06-2,10.82,10.82,0,0,0,1.23-2.77,16,16,0,0,0,.49-2.3,11,11,0,0,0,.12-2.28,3.93,3.93,0,0,0-.23-1.07l-.34-1-.68-2c-.44-1.31-.88-2.55-1.32-3.7a24.05,24.05,0,0,0-1.39-3.12,3.83,3.83,0,0,0-1-1.09,8.83,8.83,0,0,0-1.1-.74,16,16,0,0,0-1.91-.92c-.54-.23-1-.38-1.26-.48l-.33-.12-.11,0s0,0,.11,0l.34.1c.29.1.73.24,1.27.46a15.92,15.92,0,0,1,1.94.91,8.18,8.18,0,0,1,1.12.73,4,4,0,0,1,1,1.11A22.26,22.26,0,0,1,398.79,60c.45,1.15.89,2.39,1.34,3.7.23.66.45,1.33.68,2l.35,1a4.15,4.15,0,0,1,.24,1.11,11.26,11.26,0,0,1-.12,2.31,14.8,14.8,0,0,1-.5,2.32,10.52,10.52,0,0,1-1.24,2.82,6,6,0,0,1-2.12,2.06,4.9,4.9,0,0,1-1.34.52c-.23.06-.47.08-.69.12s-.47,0-.7,0a11.58,11.58,0,0,1-2.61-.34,15.62,15.62,0,0,1-2.31-.75,10.76,10.76,0,0,1-1-.47,4.25,4.25,0,0,1-.89-.61,3.14,3.14,0,0,1-.6-.82,7,7,0,0,1-.37-.86,10.49,10.49,0,0,1-.43-1.61v0h0A25.67,25.67,0,0,0,389,72l.65-.19.17,0Z"/><path class="cls-27" d="M397.81,69.4s-.13-.53-.49-1.33a9.16,9.16,0,0,0-1.95-2.76,6.17,6.17,0,0,0-1.52-1.08l-.38-.17a2.65,2.65,0,0,0-.37-.12,3.83,3.83,0,0,0-.7-.15l-.15,0h-.43a1.89,1.89,0,0,0-.44,0l-.38,0a1.3,1.3,0,0,1,.37-.11,2.46,2.46,0,0,1,.45-.06l.28,0h.15l.17,0a3.2,3.2,0,0,1,.71.12c.13,0,.26.07.39.12l.4.17a6,6,0,0,1,1.56,1.1A8.41,8.41,0,0,1,397.42,68a4.42,4.42,0,0,1,.21.56,4.26,4.26,0,0,1,.12.43A1.83,1.83,0,0,1,397.81,69.4Z"/><path class="cls-27" d="M400.17,65.53a7.91,7.91,0,0,0-.65-1.32,5.09,5.09,0,0,0-2.76-2.08,8.86,8.86,0,0,0-3.51-.2l-1.07.13a2,2,0,0,1-.4,0,2.08,2.08,0,0,1,.39-.09c.25,0,.61-.12,1.07-.18a8.2,8.2,0,0,1,3.57.15,5,5,0,0,1,1.75,1,5.28,5.28,0,0,1,1.06,1.23,4.55,4.55,0,0,1,.46,1A1.18,1.18,0,0,1,400.17,65.53Z"/><path class="cls-27" d="M396.91,60.89a9.51,9.51,0,0,0-5.11.2,2.65,2.65,0,0,1,.71-.3,7.35,7.35,0,0,1,1.83-.31,6.93,6.93,0,0,1,1.84.17A2.1,2.1,0,0,1,396.91,60.89Z"/><path class="cls-27" d="M389.92,54.59s0,.45-.09,1.15a18.46,18.46,0,0,0,0,2.77,16.81,16.81,0,0,0,.45,2.64l-.12,0c-.12-.36-.23-.66-.29-.86a1.25,1.25,0,0,1-.09-.33,2.21,2.21,0,0,1,.15.3l.34.85-.11,0a14.51,14.51,0,0,1-.49-2.65,14.09,14.09,0,0,1,0-2.8c0-.35.08-.64.12-.83A1.28,1.28,0,0,1,389.92,54.59Z"/><path class="cls-28" d="M383.81,46.55a2.69,2.69,0,0,0-2.53,2.7,38.23,38.23,0,0,0,0,5c0,.91-.39,4.13-.39,4.13a4.57,4.57,0,0,0-1.51,3,2.29,2.29,0,0,0,1.19,2.14,2.76,2.76,0,0,0,.65,3A3.49,3.49,0,0,0,381.1,69a2.47,2.47,0,0,0,1.35,1,1.53,1.53,0,0,0,.93,2.1,6.66,6.66,0,0,0,2.33.29l1.67,0,1.48.82s2.52-1.1,2.59-2.59l.06-1.49a29.41,29.41,0,0,1-.77-3.24c-.07-.77.58-2.65.19-3.49s-1.75-1.34-1.62-2.52a2.8,2.8,0,0,0-.71-2.47,17.83,17.83,0,0,0-3.16-1.94,12.21,12.21,0,0,1-.66-3.17C384.78,51,386.07,47,383.81,46.55Z"/><path class="cls-29" d="M385.32,56a3.56,3.56,0,0,1-.62.4c-.39.23-.94.54-1.56.88l-1.58.83a3.78,3.78,0,0,1-.67.3,2.76,2.76,0,0,1,.62-.4c.39-.24.94-.54,1.55-.88l1.58-.83A3.66,3.66,0,0,1,385.32,56Z"/><path class="cls-29" d="M386.79,61s-.06.07-.19.17a5.1,5.1,0,0,1-.59.41,11.24,11.24,0,0,1-2.1,1.07,12,12,0,0,1-2.27.61,4.75,4.75,0,0,1-.71.08c-.17,0-.26,0-.26,0s.36-.07.95-.19a14.32,14.32,0,0,0,2.23-.66,14,14,0,0,0,2.1-1C386.47,61.21,386.78,61,386.79,61Z"/><path class="cls-29" d="M388.72,59.41s0,.3-.31.54-.56.3-.57.26.22-.16.46-.38S388.68,59.39,388.72,59.41Z"/><path class="cls-29" d="M387.79,65.46a4.59,4.59,0,0,1-.93.34,18,18,0,0,1-2.36.54,19.23,19.23,0,0,1-2.4.23,5.48,5.48,0,0,1-1,0,7.42,7.42,0,0,1,1-.09c.61,0,1.45-.12,2.38-.27s1.75-.34,2.35-.49A9.14,9.14,0,0,1,387.79,65.46Z"/><path class="cls-29" d="M389.84,65.09a4.07,4.07,0,0,1,.18-.48,3.07,3.07,0,0,0,.12-1.19,2.91,2.91,0,0,0-.4-1.13,3.58,3.58,0,0,1-.28-.43,1.15,1.15,0,0,1,.37.37,2.39,2.39,0,0,1,.47,1.17,2.47,2.47,0,0,1-.18,1.25C390,65,389.86,65.1,389.84,65.09Z"/><path class="cls-29" d="M387.91,70a3.56,3.56,0,0,1-.8.19,12.6,12.6,0,0,1-3.94,0,3,3,0,0,1-.79-.2,5.68,5.68,0,0,1,.81.08,19.14,19.14,0,0,0,1.95.12,17,17,0,0,0,2-.11A4.72,4.72,0,0,1,387.91,70Z"/><path class="cls-29" d="M383.93,52.32s-.1.11-.31.18a1.88,1.88,0,0,1-.86.09,2,2,0,0,1-.82-.29c-.18-.12-.27-.23-.26-.24a4.22,4.22,0,0,0,1.1.37A3.81,3.81,0,0,0,383.93,52.32Z"/><path class="cls-29" d="M390.31,65.28s0,.08,0,.24a3.13,3.13,0,0,1-.08.66c-.06.27-.17.59-.27.94a2.69,2.69,0,0,0-.11,1.14c.05.4.35.72.4,1.12a1.51,1.51,0,0,1-.25,1,2.72,2.72,0,0,1-.41.53.65.65,0,0,1-.18.17s.22-.28.49-.75a1.51,1.51,0,0,0,.2-.89c0-.34-.34-.67-.41-1.12a2.65,2.65,0,0,1,.13-1.21c.11-.36.22-.66.3-.93A7.26,7.26,0,0,0,390.31,65.28Z"/><path class="cls-27" d="M391.15,67.25a1,1,0,0,1,.11.29c.05.19.13.47.2.83a7.14,7.14,0,0,1,.15,1.26,3.42,3.42,0,0,1-.28,1.53,4.52,4.52,0,0,1-1,1.23,9.23,9.23,0,0,1-1,.78c-.3.2-.55.35-.73.45a1,1,0,0,1-.28.14s.37-.26.94-.68a11.58,11.58,0,0,0,1-.8,4.49,4.49,0,0,0,.92-1.19,3.35,3.35,0,0,0,.28-1.46,8.52,8.52,0,0,0-.11-1.24C391.23,67.68,391.13,67.25,391.15,67.25Z"/><path class="cls-27" d="M367.49,56.81a2.59,2.59,0,0,1-.36-.27l-.95-.79-.65-.55a1.78,1.78,0,0,0-.37-.26.45.45,0,0,0-.42,0c-.27.14-.45.49-.68.78l-.69.93c-.38.51-.75,1-1.08,1.44l-.21.28.07-.34a15.59,15.59,0,0,1,.78-2.73,6.45,6.45,0,0,1,.32-.76c.08-.17.13-.26.13-.26a1,1,0,0,1-.09.28c-.06.18-.16.44-.27.77A19.21,19.21,0,0,0,362.3,58l-.14-.06,1.07-1.45.7-.93.33-.44a1.22,1.22,0,0,1,.41-.37.59.59,0,0,1,.55,0,2.06,2.06,0,0,1,.4.29l.63.56.92.83A2.48,2.48,0,0,1,367.49,56.81Z"/><path class="cls-27" d="M380.73,54.16l-.12.11-.37.28-1.38,1L374.24,59l-.07,0,0-.07-.12-.18-2.31-3.66.08,0a17.9,17.9,0,0,0-2.57,1.28l-.68.43-.24.15s.07-.07.22-.18.37-.27.66-.47A15.67,15.67,0,0,1,371.73,55l0,0,0,.05c.67,1.06,1.47,2.3,2.33,3.64l.12.18-.12,0,4.64-3.36,1.41-1,.39-.26Z"/><path class="cls-27" d="M353.06,85.22c0,.51,0,1,0,1.37l-.08,0q0-.58,0-1.32c0-2-.11-4.69-.21-7.7s-.17-5.73-.17-7.7c0-1,0-1.78,0-2.33,0-.27,0-.48,0-.64a2,2,0,0,1,0-.22.57.57,0,0,1,0,.22c0,.16,0,.37,0,.64,0,.57,0,1.36,0,2.33,0,2,.12,4.69.22,7.7S353.05,83.25,353.06,85.22Z"/><path class="cls-27" d="M368.37,59.68a.62.62,0,0,1,0,.09c0,.07,0,.16,0,.27s-.07.59-.12,1c-.1.89-.24,2.18-.4,3.77s-.31,3.49-.45,5.6-.23,4.43-.29,6.87,0,4.76,0,6.87.12,4,.21,5.62c0,.53.05,1,.08,1.48h-.1c0-.45-.07-1-.1-1.47-.1-1.59-.18-3.5-.24-5.61s-.05-4.44,0-6.89.17-4.76.3-6.87.32-4,.49-5.6.32-2.88.45-3.77c.06-.43.11-.77.14-1s0-.19.05-.26S368.36,59.68,368.37,59.68Z"/><path class="cls-16" d="M396.45,80.79c-.82.84-1.69,1.64-2.59,2.4a35.43,35.43,0,0,1-22.81,8.27,34.53,34.53,0,0,1-3.69-.19h-.1a35.45,35.45,0,0,1-14.08-4.6l-.13-.07-.08,0-.18-.11a35.46,35.46,0,0,1-9-7.71"/><polygon class="cls-31" points="40.65 31.01 36.63 38.02 32.35 31.01 40.65 31.01"/><polygon class="cls-32" points="50.45 60.65 41.77 60.65 36.65 52.28 32.43 45.36 19.6 67.76 11.07 67.76 32.12 31.01 32.35 31.01 36.63 38.02 40.86 44.94 50.45 60.65"/><polygon class="cls-33" points="55.1 68.25 50.27 74.56 46.12 67.76 46.11 67.76 41.77 60.65 50.45 60.65 54.79 67.75 54.8 67.76 55.1 68.25"/><polygon class="cls-34" points="59.66 73.83 59.69 73.87 59.02 75.07 21.21 75.07 17.4 67.75 56.1 67.75 56.11 67.76 63.1 67.77 59.66 73.83"/><polygon class="cls-35" points="23.61 75.06 15.08 75.06 11.07 67.76 19.6 67.76 23.61 75.06"/><polygon class="cls-36" points="36.65 52.28 31.86 60.65 27.78 67.77 23.61 75.06 19.6 67.76 32.43 45.36 36.65 52.28"/><polygon class="cls-37" points="40.65 31.01 32.12 31.01 54.77 67.77 63.1 67.77 40.65 31.01"/><polygon class="cls-38" points="63.09 67.77 54.8 67.76 54.42 67.76 46.12 67.76 27.78 67.77 31.86 60.65 58.76 60.65 63.09 67.77"/><path class="cls-19" d="M302.87,162.66a11.54,11.54,0,1,0,11.54-11.53A11.54,11.54,0,0,0,302.87,162.66Z"/><path class="cls-39" d="M302.76,162.66a11.65,11.65,0,1,1,11.65,11.64A11.67,11.67,0,0,1,302.76,162.66Zm.23,0a11.42,11.42,0,1,0,11.42-11.42A11.43,11.43,0,0,0,303,162.66Z"/><path class="cls-40" d="M302.87,162.66a11.54,11.54,0,1,0,11.54-11.53A11.54,11.54,0,0,0,302.87,162.66Zm5-1a8.18,8.18,0,1,1,8.17,8.18A8.17,8.17,0,0,1,307.85,161.66Z"/><path class="cls-41" d="M311.48,151.5c-6.51,2.95-8.26,13.91-2.82,18.67a11.82,11.82,0,0,0,6,2.48,12.28,12.28,0,0,0,5.93-.28,11.54,11.54,0,1,1-9.15-20.87Z"/><path class="cls-42" d="M322.85,159a13.24,13.24,0,0,1-2.23-1.19,1.78,1.78,0,0,1-.78-.91c-.41-1.4.92-1.59,1.88-1.19s1.9,1.32,3,1.77a11.24,11.24,0,0,1,1,2.87C324.62,159.73,323.5,159.27,322.85,159Z"/><path class="cls-43" d="M322.2,162.08a40.41,40.41,0,0,1,3.69,1.7,11.11,11.11,0,0,1-.48,2.32c-2-1.51-5.49-1.75-7.59-2.34-3.16-.9-6.25-3.63-6.91-6.93a7.17,7.17,0,0,1,.89-5.41,11.8,11.8,0,0,1,2.61-.29,11.5,11.5,0,0,1,7.87,3.11c-1.19-.44-2.35-.94-3.56-1.31a4.35,4.35,0,0,0-3.11-.15,2.69,2.69,0,0,0-1.15,2.67C314.63,159.68,319,160.68,322.2,162.08Z"/><path class="cls-44" d="M304.93,161.82c.92.69,2.22.89,2.5-.53s-1.05-3.2-1.45-4.61a10.47,10.47,0,0,1-.31-1.54,11.75,11.75,0,0,1,3.11-2.54c-1,2.07-1.85,4.09-1,6.55a11.58,11.58,0,0,0,6,6.4c3,1.41,6.35,1.66,9.39,2.93.3.13.62.27.93.43a11.69,11.69,0,0,1-3.6,3.54,3.6,3.6,0,0,0-2.79-3.32c-2.51-.48-3.71,1.88-5.81,2.64a7.56,7.56,0,0,1-4.65-.07,12.27,12.27,0,0,1-1.78-1.75,11.3,11.3,0,0,0,2.69,0c1.38-.18,4-.81,3.95-2.66-.07-2.48-3.9-2.55-5.64-2.75a13,13,0,0,1-3.56-1c0-.28,0-.56,0-.84a11.64,11.64,0,0,1,.42-3.09A5.15,5.15,0,0,0,304.93,161.82Z"/><path class="cls-45" d="M315.43,171.76a2.16,2.16,0,0,1,2.9,1.74,11.6,11.6,0,0,1-6.43.42A22.27,22.27,0,0,1,315.43,171.76Z"/><g class="cls-46"><path class="cls-47" d="M312.54,157a5.55,5.55,0,0,0,3,3.12c1,.5,2.34.77,3.18,1.57a15.49,15.49,0,0,1,1.67,2c.39.51,1.42,1.84,2.18,1.08s.74-2.25.67-3.28C323,158,321,155,317.47,154.16a.07.07,0,0,0-.08,0,6.3,6.3,0,0,0-3.2.17C312.91,154.72,312.07,155.65,312.54,157Z"/></g><path class="cls-19" d="M276,162.66a11.54,11.54,0,1,0,11.53-11.53A11.53,11.53,0,0,0,276,162.66Z"/><path class="cls-39" d="M275.91,162.66a11.65,11.65,0,1,1,11.64,11.64A11.66,11.66,0,0,1,275.91,162.66Zm.22,0a11.42,11.42,0,1,0,11.42-11.42A11.44,11.44,0,0,0,276.13,162.66Z"/><path class="cls-40" d="M276,162.66a11.54,11.54,0,1,0,11.53-11.53A11.53,11.53,0,0,0,276,162.66Zm5-1a8.18,8.18,0,1,1,8.17,8.18A8.17,8.17,0,0,1,281,161.66Z"/><path class="cls-41" d="M284.63,151.5c-6.52,2.95-8.26,13.91-2.82,18.67a11.82,11.82,0,0,0,6,2.48,12.27,12.27,0,0,0,5.93-.28,11.53,11.53,0,1,1-9.14-20.87Z"/><path class="cls-48" d="M296,159a13.24,13.24,0,0,1-2.23-1.19,1.74,1.74,0,0,1-.78-.91c-.41-1.4.92-1.59,1.88-1.19s1.9,1.32,3,1.77a11.64,11.64,0,0,1,1,2.87C297.76,159.73,296.65,159.27,296,159Z"/><path class="cls-49" d="M295.35,162.08c.61.26,2.19.89,3.68,1.7a11.78,11.78,0,0,1-.47,2.32c-1.95-1.51-5.49-1.75-7.59-2.34-3.16-.9-6.26-3.63-6.91-6.93a7.13,7.13,0,0,1,.89-5.41,11.71,11.71,0,0,1,2.6-.29,11.46,11.46,0,0,1,7.87,3.11c-1.18-.44-2.34-.94-3.55-1.31a4.37,4.37,0,0,0-3.12-.15,2.7,2.7,0,0,0-1.14,2.67C287.78,159.68,292.09,160.68,295.35,162.08Z"/><path class="cls-50" d="M278.08,161.82c.91.69,2.22.89,2.49-.53s-1-3.2-1.44-4.61a8.39,8.39,0,0,1-.31-1.54,11.7,11.7,0,0,1,3.1-2.54c-1,2.07-1.84,4.09-.95,6.55a11.56,11.56,0,0,0,5.95,6.4c3,1.41,6.35,1.66,9.4,2.93.3.13.61.27.92.43a11.48,11.48,0,0,1-3.6,3.54,3.59,3.59,0,0,0-2.78-3.32c-2.52-.48-3.72,1.88-5.82,2.64a7.52,7.52,0,0,1-4.64-.07,12.27,12.27,0,0,1-1.78-1.75,11.2,11.2,0,0,0,2.68,0c1.38-.18,4-.81,3.95-2.66-.06-2.48-3.89-2.55-5.64-2.75a13.2,13.2,0,0,1-3.56-1q0-.42,0-.84a11.64,11.64,0,0,1,.42-3.09A5.15,5.15,0,0,0,278.08,161.82Z"/><path class="cls-51" d="M288.58,171.76a2.16,2.16,0,0,1,2.9,1.74,11.64,11.64,0,0,1-3.93.69,11.47,11.47,0,0,1-2.5-.27A21.83,21.83,0,0,1,288.58,171.76Z"/><g class="cls-52"><path class="cls-53" d="M285.69,157a5.49,5.49,0,0,0,3,3.12c1,.5,2.34.77,3.18,1.57a16.33,16.33,0,0,1,1.67,2c.38.51,1.42,1.84,2.17,1.08s.75-2.25.68-3.28c-.25-3.51-2.27-6.54-5.77-7.39a.06.06,0,0,0-.07,0,6.29,6.29,0,0,0-3.2.17C286.06,154.72,285.22,155.65,285.69,157Z"/></g><path class="cls-19" d="M249.17,162.66a11.53,11.53,0,1,0,11.53-11.53A11.53,11.53,0,0,0,249.17,162.66Z"/><path class="cls-39" d="M249.06,162.66A11.64,11.64,0,1,1,260.7,174.3,11.66,11.66,0,0,1,249.06,162.66Zm.22,0a11.42,11.42,0,1,0,11.42-11.42A11.43,11.43,0,0,0,249.28,162.66Z"/><path class="cls-40" d="M249.17,162.66a11.53,11.53,0,1,0,11.53-11.53A11.53,11.53,0,0,0,249.17,162.66Zm5-1a8.18,8.18,0,1,1,8.18,8.18A8.17,8.17,0,0,1,254.14,161.66Z"/><path class="cls-41" d="M257.78,151.5c-6.52,2.95-8.27,13.91-2.83,18.67a11.82,11.82,0,0,0,6,2.48,12.27,12.27,0,0,0,5.93-.28,11.53,11.53,0,1,1-9.14-20.87Z"/><path class="cls-54" d="M269.14,159a14.06,14.06,0,0,1-2.23-1.19,1.72,1.72,0,0,1-.77-.91c-.42-1.4.92-1.59,1.87-1.19s1.91,1.32,3,1.77a11.24,11.24,0,0,1,1,2.87C270.91,159.73,269.79,159.27,269.14,159Z"/><path class="cls-55" d="M268.5,162.08c.6.26,2.19.89,3.68,1.7a11.78,11.78,0,0,1-.47,2.32c-2-1.51-5.49-1.75-7.59-2.34-3.17-.9-6.26-3.63-6.92-6.93a7.17,7.17,0,0,1,.89-5.41,11.8,11.8,0,0,1,2.61-.29,11.48,11.48,0,0,1,7.87,3.11c-1.19-.44-2.35-.94-3.56-1.31a4.35,4.35,0,0,0-3.11-.15,2.71,2.71,0,0,0-1.15,2.67C260.92,159.68,265.24,160.68,268.5,162.08Z"/><path class="cls-56" d="M251.22,161.82c.92.69,2.22.89,2.5-.53s-1-3.2-1.45-4.61a9.34,9.34,0,0,1-.3-1.54,11.55,11.55,0,0,1,3.1-2.54c-1,2.07-1.85,4.09-1,6.55a11.58,11.58,0,0,0,6,6.4c3,1.41,6.35,1.66,9.39,2.93.31.13.62.27.93.43a11.58,11.58,0,0,1-3.6,3.54,3.59,3.59,0,0,0-2.79-3.32c-2.51-.48-3.71,1.88-5.81,2.64a7.52,7.52,0,0,1-4.64-.07,11.79,11.79,0,0,1-1.78-1.75,11.21,11.21,0,0,0,2.68,0c1.38-.18,4-.81,3.95-2.66-.06-2.48-3.89-2.55-5.64-2.75a13,13,0,0,1-3.56-1q0-.42,0-.84a11.25,11.25,0,0,1,.42-3.09A5.13,5.13,0,0,0,251.22,161.82Z"/><path class="cls-57" d="M261.73,171.76a2.16,2.16,0,0,1,2.9,1.74,11.64,11.64,0,0,1-3.93.69,11.4,11.4,0,0,1-2.5-.27A21.83,21.83,0,0,1,261.73,171.76Z"/><g class="cls-58"><path class="cls-59" d="M258.84,157a5.5,5.5,0,0,0,3,3.12c1,.5,2.35.77,3.19,1.57a15.41,15.41,0,0,1,1.66,2c.39.51,1.42,1.84,2.18,1.08s.75-2.25.68-3.28c-.25-3.51-2.28-6.54-5.77-7.39a.07.07,0,0,0-.08,0,6.3,6.3,0,0,0-3.2.17C259.2,154.72,258.37,155.65,258.84,157Z"/></g><path class="cls-19" d="M262.43,185.69A11.54,11.54,0,1,0,274,174.16,11.54,11.54,0,0,0,262.43,185.69Z"/><path class="cls-39" d="M262.32,185.69A11.65,11.65,0,1,1,274,197.34,11.65,11.65,0,0,1,262.32,185.69Zm.22,0A11.42,11.42,0,1,0,274,174.27,11.44,11.44,0,0,0,262.54,185.69Z"/><path class="cls-40" d="M262.43,185.69A11.54,11.54,0,1,0,274,174.16,11.54,11.54,0,0,0,262.43,185.69Zm5-1a8.17,8.17,0,1,1,8.17,8.17A8.17,8.17,0,0,1,267.41,184.7Z"/><path class="cls-41" d="M271,174.53c-6.52,2.95-8.26,13.92-2.82,18.67a11.72,11.72,0,0,0,6,2.49,12.27,12.27,0,0,0,5.93-.29,11.41,11.41,0,0,1-6.22,1.83,11.54,11.54,0,0,1-2.92-22.7Z"/><path class="cls-60" d="M282.41,182a14.86,14.86,0,0,1-2.23-1.19,1.7,1.7,0,0,1-.78-.91c-.41-1.41.92-1.6,1.88-1.19s1.9,1.31,3,1.76a11.79,11.79,0,0,1,1,2.87C284.17,182.76,283.06,182.31,282.41,182Z"/><path class="cls-61" d="M281.76,185.11a39.82,39.82,0,0,1,3.68,1.71,11.68,11.68,0,0,1-.47,2.31c-2-1.5-5.49-1.75-7.59-2.34-3.16-.89-6.26-3.62-6.91-6.93a7.07,7.07,0,0,1,.89-5.4,11.71,11.71,0,0,1,2.6-.3,11.46,11.46,0,0,1,7.87,3.11c-1.18-.44-2.34-.94-3.55-1.3a4.43,4.43,0,0,0-3.12-.16,2.71,2.71,0,0,0-1.15,2.67C274.19,182.71,278.5,183.72,281.76,185.11Z"/><path class="cls-62" d="M264.49,184.86c.91.69,2.21.89,2.49-.53s-1-3.2-1.44-4.61a8.56,8.56,0,0,1-.31-1.54,11.58,11.58,0,0,1,3.1-2.55c-1,2.07-1.84,4.09-.95,6.56a11.56,11.56,0,0,0,5.95,6.4c3,1.4,6.35,1.66,9.4,2.93l.92.42a11.48,11.48,0,0,1-3.6,3.54,3.59,3.59,0,0,0-2.78-3.31c-2.52-.48-3.72,1.88-5.82,2.64a7.52,7.52,0,0,1-4.64-.07A11.85,11.85,0,0,1,265,193a10.75,10.75,0,0,0,2.68,0c1.38-.19,4-.81,4-2.67-.06-2.48-3.89-2.55-5.64-2.74a14,14,0,0,1-3.56-1c0-.28,0-.56,0-.85a11.57,11.57,0,0,1,.42-3.08A5.21,5.21,0,0,0,264.49,184.86Z"/><path class="cls-63" d="M275,194.79a2.16,2.16,0,0,1,2.9,1.74,11.35,11.35,0,0,1-6.43.42A23.34,23.34,0,0,1,275,194.79Z"/><g class="cls-64"><path class="cls-65" d="M272.1,180.06a5.52,5.52,0,0,0,3,3.12c1,.5,2.34.76,3.18,1.57a16.33,16.33,0,0,1,1.67,2c.38.51,1.42,1.83,2.17,1.08s.75-2.26.68-3.29c-.25-3.51-2.27-6.54-5.77-7.38a.11.11,0,0,0-.08,0,6.38,6.38,0,0,0-3.19.18C272.47,177.75,271.63,178.68,272.1,180.06Z"/></g><path class="cls-66" d="M289.4,185.69a11.54,11.54,0,1,0,11.53-11.53A11.54,11.54,0,0,0,289.4,185.69Z"/><path class="cls-39" d="M289.29,185.69a11.65,11.65,0,1,1,11.64,11.65A11.65,11.65,0,0,1,289.29,185.69Zm.22,0a11.42,11.42,0,1,0,11.42-11.42A11.44,11.44,0,0,0,289.51,185.69Z"/><path class="cls-67" d="M310.45,182.36c-.6-.42-1.36-1-1.33-1.84a2.46,2.46,0,0,1,1.05-2,11.55,11.55,0,0,1,2.26,4.7A5.5,5.5,0,0,1,310.45,182.36Z"/><path class="cls-67" d="M302.17,176.94a10.25,10.25,0,0,1-1.41-2.77h.41a11.43,11.43,0,0,1,5.61,1.46C306.34,177.6,303.69,179,302.17,176.94Z"/><path class="cls-67" d="M297.59,178.48a3.15,3.15,0,0,1-2.73,1.92,9.94,9.94,0,0,1-3.8-.24,11.53,11.53,0,0,1,5-4.8A2.27,2.27,0,0,1,297.59,178.48Z"/><path class="cls-67" d="M302.78,181a.23.23,0,0,0,.13,0,2.87,2.87,0,0,1,2.72,1.7,2.32,2.32,0,0,1-1.86,3.06,3.05,3.05,0,0,1-3.54-1.85C299.64,182.06,301,180.81,302.78,181Z"/><path class="cls-67" d="M294.81,185.94c1.21,2.57-2.06,3.69-4.4,3.89a11.49,11.49,0,0,1-.68-5.57C291.47,183.86,294.26,184.76,294.81,185.94Z"/><path class="cls-67" d="M294.44,194c.31-.68,1-1.35,1.63-.47s-.16,1.67-1,2c-.33-.21-.64-.42-.94-.65A5,5,0,0,1,294.44,194Z"/><path class="cls-67" d="M301.1,195.2c-.39-1.82-.19-4.22,1.57-5.29a4,4,0,0,1,5.83,1.88,5.08,5.08,0,0,1,.32,2.54A11.57,11.57,0,0,1,302,197.2,6.11,6.11,0,0,1,301.1,195.2Z"/><path class="cls-67" d="M310.29,187.56a1.81,1.81,0,0,1,2.4-1.21,11.38,11.38,0,0,1-.78,3.55C311,189.33,310.2,188.21,310.29,187.56Z"/><path class="cls-67" d="M298.29,187.68c.14-.05.16-.16.11-.24a1.17,1.17,0,0,1,1.3.37,1.72,1.72,0,0,1,.38,1.73,1.35,1.35,0,1,1-1.79-1.86Z"/><path class="cls-68" d="M289.64,185.69a11.54,11.54,0,1,0,11.53-11.53A11.54,11.54,0,0,0,289.64,185.69Zm5-1a8.17,8.17,0,1,1,8.17,8.17A8.17,8.17,0,0,1,294.62,184.7Z"/><path class="cls-69" d="M298.25,174.54c-6.52,2.94-8.26,13.91-2.82,18.66a11.72,11.72,0,0,0,6,2.49,12.27,12.27,0,0,0,5.93-.29,11.41,11.41,0,0,1-6.22,1.83,11.53,11.53,0,0,1-2.92-22.69Z"/><g class="cls-70"><path class="cls-71" d="M299.31,180.06a5.52,5.52,0,0,0,3,3.12c1,.5,2.34.76,3.18,1.57a16.33,16.33,0,0,1,1.67,2c.38.51,1.42,1.83,2.17,1.08s.75-2.26.68-3.29c-.25-3.51-2.27-6.54-5.77-7.38a.11.11,0,0,0-.08,0,6.38,6.38,0,0,0-3.19.18C299.68,177.75,298.84,178.68,299.31,180.06Z"/></g><ellipse class="cls-72" cx="205.44" cy="55.5" rx="17.97" ry="21.57"/><rect class="cls-72" x="201.96" y="33.93" width="3.95" height="43.14"/><ellipse class="cls-73" cx="201.96" cy="55.5" rx="17.97" ry="21.57"/><path class="cls-74" d="M201.39,61A20.88,20.88,0,0,0,209,48.12c.53-3.62,1.5-8.25.65-12.13A15.42,15.42,0,0,0,202,33.93c-9.93,0-18,9.66-18,21.57a24.47,24.47,0,0,0,3.61,13A37.24,37.24,0,0,0,201.39,61Z"/><path class="cls-75" d="M215.21,55.1c0,9.15-6.07,16.57-13.56,16.57s-13.57-7.42-13.57-16.57,6.08-16.58,13.57-16.58S215.21,45.94,215.21,55.1Z"/><path class="cls-72" d="M215.87,55.5c0,8.93-5.88,16.17-13.14,16.17s-13.14-7.24-13.14-16.17,5.89-16.18,13.14-16.18S215.87,46.56,215.87,55.5Z"/><path class="cls-76" d="M206.62,46l-3.58.66a5.09,5.09,0,0,1,1.22,3.21l2.36-.27v1.76l-2.34.19c-.22,3.45-2,5.57-4.76,5.61a97.58,97.58,0,0,1,5.37,9.93l-2.09-.47a95.07,95.07,0,0,0-5.32-9.38v-1.8h1.19c2.35,0,3.61-1.48,3.76-3.72l-5,.41V50.67l4.89-.57c-.31-1.83-1.46-2.56-3.35-2.23l-1.54.27v-1.9l9.14-2Z"/><path class="cls-73" d="M206.32,45.62l-3.59.69A5,5,0,0,1,204,49.49l2.37-.29V51l-2.35.21c-.21,3.42-2,5.56-4.76,5.62a90.21,90.21,0,0,1,5.37,9.82l-2.08-.45a94.48,94.48,0,0,0-5.33-9.28V55.08l1.2,0c2.34,0,3.6-1.5,3.76-3.73l-5,.45V50.34l4.89-.61c-.3-1.82-1.45-2.54-3.35-2.19l-1.54.28V45.94l9.15-2.08Z"/><polygon class="cls-77" points="222.13 60.46 222.88 61.83 224.25 62.57 222.88 63.32 222.13 64.69 221.38 63.32 220.01 62.57 221.38 61.83 222.13 60.46"/><polygon class="cls-77" points="217.71 36.18 218.45 37.54 219.81 38.28 218.45 39.02 217.71 40.38 216.97 39.02 215.61 38.28 216.97 37.54 217.71 36.18"/></g></g></g></svg>