<svg xmlns="http://www.w3.org/2000/svg" viewBox="0 0 397.1 225.6"><defs><style>.cls-1{fill:#e3e1ec;}.cls-2{fill:#f9b384;}.cls-3,.cls-8{fill:#1f3c88;}.cls-10,.cls-4{fill:#e28b6d;}.cls-5,.cls-6{fill:#102048;}.cls-10,.cls-16,.cls-6{opacity:0.6;}.cls-7{fill:#fff;}.cls-14,.cls-8{opacity:0.3;}.cls-9{fill:#708cd5;}.cls-11,.cls-16{fill:#6f3428;}.cls-12{fill:#ee6f57;}.cls-13{fill:#fbc343;}.cls-14{fill:none;stroke:#6f3428;stroke-miterlimit:10;stroke-width:8px;}.cls-15{fill:#fc8879;opacity:0.4;}.cls-17{fill:#00877a;}.cls-18{fill:#354e72;}</style></defs><g id="Capa_2" data-name="Capa 2"><g id="Capa_1-2" data-name="Capa 1"><path class="cls-1" d="M394,146.8c15.22,43.93-21.73,123.14-195.63,47.22C111.16,156,37.05,213.42,27.88,167,6.51,58.7,151.24-48.81,215.82,43.56,274.85,128,366.29,66.85,394,146.8Z"/><path class="cls-2" d="M113.82,35c-2.1-.4-4.06-3.9-4.74-5.25a1.65,1.65,0,0,1-.15-1.07l.83-4.42s1.93.32,1.78,2.89a1.89,1.89,0,0,0,.14.78l.73,1.93,2.18-1.69-1.19-3.37a5.74,5.74,0,0,1-2.43.17c-1.7-.54.53-1.86,1.23-2s2.25-.71,3,.49,1.12,1.9,1.12,1.9.78-2.67.25-8.66c0-.26.65-.26.84-.07.57.58,1.47,2.34,1.52,7.67,0,0,.09-6.22,1.16-6.86.88-.52,1.32,2.52.7,7.68,0,0,1.15-4.47,2-4.48,1.39,0,0,11.94-3.47,15.51Z"/><path class="cls-2" d="M120.4,33.12c-.06.59-.13,1.17-.2,1.73h0a50.73,50.73,0,0,1-.92,5.27c0,.07,0,.14,0,.21-1.06,4.34-1.25,6.47-4.87,5.9L110.64,42l0,0-.27-.31.75-2.23.1-.3.56-1.62.07-.21,1-2.79.39-1.14Z"/><path class="cls-3" d="M51.22,187.44l-.95,3c-6.5,2.13-10.29,4.58-10.53,7.43H58.53L60,187.92A14.5,14.5,0,0,1,51.22,187.44Z"/><path class="cls-2" d="M53.58,180.08l-2.36,7.36a14.5,14.5,0,0,0,8.82.48l1-6.39Z"/><path class="cls-2" d="M85.71,187.12l.55-7.51-8.83.47L77,187A14.42,14.42,0,0,0,85.71,187.12Z"/><path class="cls-3" d="M96.33,197.84c-.24-2.85-3.56-6.76-10.84-7.69l.22-3A14.42,14.42,0,0,1,77,187l-.76,10.85Z"/><polygon class="cls-2" points="78.55 36.88 67.9 36.95 67.9 20.84 78.23 20.84 78.24 21.82 78.29 26.93 78.36 35.13 78.55 36.88"/><path class="cls-4" d="M78.29,27.7c-1.92,2-6.91-.26-9-2.47l9-2.63Z"/><path class="cls-2" d="M80.76,17.12a23.36,23.36,0,0,1-.28,3.63C80,24,78.58,26.8,75.41,26.89c-7.5.21-9.63-4.07-11-7.58s.88-12,.88-12l9.71-1,5.32,4.37A39.42,39.42,0,0,1,80.76,17.12Z"/><path class="cls-5" d="M64.67,17.3s2.13-.1,2.5-5.62A7.56,7.56,0,0,0,76,9.25a5.12,5.12,0,0,0,9-1.84c1.29-3.69-2.27-9.19-7.46-5.86C72.42-1,64.71-.84,62.49,5.46c0,0-7.72,3.56.45,11.4A10.21,10.21,0,0,0,64.67,17.3Z"/><polygon class="cls-5" points="94.16 94.78 88.27 183.8 74.44 183.8 77.9 97.41 80.01 96.43 94.16 94.78"/><polygon class="cls-3" points="58.12 82.59 48.41 183.8 63.49 183.8 77.84 99.74 94.16 94.78 94.88 76.81 58.53 75.98 58.12 82.59"/><path class="cls-6" d="M60.28,82.82c8.24,3,27.56-.43,31.57-4.54L89,72.57,57.22,76.8Z"/><path class="cls-7" d="M91.11,76.9l-.82.34A56.35,56.35,0,0,1,80,80.31a47.08,47.08,0,0,1-6.92.85,40.15,40.15,0,0,1-10.87-.88l4.62-43L67.36,32s6,7.44,12.7-.77Z"/><path class="cls-8" d="M73.05,81.16a40.15,40.15,0,0,1-10.87-.88l4.62-43,1.65-2.38C72.52,44.76,76.69,66.68,73.05,81.16Z"/><path class="cls-9" d="M67.9,30.29c4.59,19.49,6.48,39.54-.28,61.8C62.61,94,57.15,94,51.3,92.3l1.45-40.48-34,23.39L16.66,62.46C29.74,50,52.35,31.05,67.9,30.29Z"/><path class="cls-8" d="M90.29,77.24A56.35,56.35,0,0,1,80,80.31c-2-11.76-2.5-31.08-.84-39.8Z"/><path class="cls-10" d="M119.28,40.13c0,.07,0,.14,0,.21-1.06,4.34-1.25,6.47-4.87,5.9L110.64,42l0,0,.48-2.54.1-.3.56-1.62.07-.21Z"/><path class="cls-9" d="M118.63,44.07S109.5,63.44,104.07,63.9c-5.25.45-7.74-4.64-7.74-4.64l3.72,28.29a23.7,23.7,0,0,1-14.67,2.07c-4.91-16-6.77-36.59-7.14-59.56,4,.24,11.86.58,14.68,2.4,5.06,3.25,11.31,14.87,11.31,14.87l7.28-9.92Z"/><path class="cls-11" d="M7.22,16.79S7.77,7.53,8.72,8s2.83,8.49,2.83,8.49l-2,3.26Z"/><path class="cls-12" d="M35,184.06l.28,3a9.78,9.78,0,0,1-8.87,10.62l-.79.07A9.78,9.78,0,0,1,15,188.93l-.27-3.05Z"/><rect class="cls-13" x="8.09" y="37.05" width="20.35" height="148.21" transform="translate(-9.87 2.08) rotate(-5.13)"/><rect class="cls-14" x="13.57" y="34.13" width="7.23" height="129.91" transform="matrix(1, -0.09, 0.09, 1, -8.8, 1.93)"/><polygon class="cls-5" points="35.03 184.06 14.76 185.88 14.23 179.93 13.86 175.8 12.71 163.1 32.99 161.27 34.13 173.98 34.5 178.11 35.03 184.06"/><rect class="cls-13" x="14" y="174.88" width="20.35" height="4.15" transform="matrix(1, -0.09, 0.09, 1, -15.74, 2.87)"/><path class="cls-12" d="M1.5,38.26,7.13,15.69a4.85,4.85,0,0,0,4.3-.59L21.77,36.44Z"/><path class="cls-2" d="M65.79,16.37c-.09-.34-1.61-.79-1.94-.89a2.32,2.32,0,0,0-1.58,0c-1.83.83-1.59,3.45-.64,4.82A4.15,4.15,0,0,0,63.87,22c.33.1,3.48.14,3.34-.37Z"/><path class="cls-2" d="M8.19,69A2.75,2.75,0,0,0,4.67,67.2C2.36,68,.35,69.34,0,71.64c-.28,2.09.77,8.78,5.44,9.64L5.1,77.84S8,77.17,8.53,75.93C8.94,75.07,9,71.44,8.19,69Z"/><path class="cls-3" d="M94.9,46c.25,1.47.46,2.93.66,4.4s.37,2.94.56,4.41l.48,4.42c.14,1.48.27,3,.37,4.43l-.24,0c-.26-1.46-.47-2.93-.67-4.4l-.55-4.41c-.16-1.47-.34-2.94-.47-4.42s-.28-2.95-.38-4.43Z"/><path class="cls-3" d="M53.23,45.78c0,1.65,0,3.29-.09,4.93S53,54,53,55.63l-.27,4.92c-.11,1.63-.22,3.27-.38,4.91h-.24c0-1.65,0-3.29.08-4.93l.2-4.92c.09-1.64.16-3.28.28-4.92s.22-3.27.37-4.91Z"/><path class="cls-5" d="M73.31,16.21c.13.59-.11,1.14-.54,1.23s-.88-.3-1-.88.11-1.14.53-1.23S73.18,15.63,73.31,16.21Z"/><path class="cls-5" d="M79.48,15.49c0,.6-.4,1.07-.84,1s-.77-.52-.74-1.12.4-1.07.84-1.05S79.51,14.89,79.48,15.49Z"/><path class="cls-4" d="M76,16a12.71,12.71,0,0,1,.31,1.48,1.19,1.19,0,0,0,.3.52,2.15,2.15,0,0,0,.59.29,1.6,1.6,0,0,1,.73.55,1,1,0,0,1,.08,1,2.12,2.12,0,0,1-.61.62c-.21.14-.42.29-.64.42l-.16-.18c.17-.2.34-.38.52-.57a2.14,2.14,0,0,0,.4-.52c.13-.29-.15-.6-.56-.77a2.09,2.09,0,0,1-.76-.42,1.49,1.49,0,0,1-.39-.82,13.94,13.94,0,0,1,0-1.55Z"/><path class="cls-5" d="M70.35,14.64a1.84,1.84,0,0,1,.63-1,1.91,1.91,0,0,1,1.13-.42,2.06,2.06,0,0,1,2,1.1l-.19.15a2.64,2.64,0,0,0-1.73-.64,2,2,0,0,0-1.57.88Z"/><path class="cls-5" d="M76.75,13.88a2,2,0,0,1,.48-.78,1.59,1.59,0,0,1,.88-.43,1.54,1.54,0,0,1,1.64.82l-.19.14a2,2,0,0,0-1.36-.35,1.77,1.77,0,0,0-.64.23A4.47,4.47,0,0,0,77,14Z"/><path class="cls-7" d="M73.32,22c1.08,1.69,2.52,1.88,3.63.1Z"/><path class="cls-15" d="M80.79,16.71a28.92,28.92,0,0,1-.31,4A1.89,1.89,0,0,1,79.18,19,2.38,2.38,0,0,1,80.79,16.71Z"/><circle class="cls-15" cx="70.68" cy="20.08" r="2"/><path class="cls-4" d="M64.48,18.36a11.31,11.31,0,0,0-1.12-.74,1,1,0,0,0-.49-.13,1.13,1.13,0,0,0-.52.24l-.2-.13a.92.92,0,0,1,.59-.63,1.09,1.09,0,0,1,.89.1,2.34,2.34,0,0,1,1,1.14Z"/><path class="cls-16" d="M8.53,75.93,5.66,84.67l-.59-6.83A5.91,5.91,0,0,0,8.53,75.93Z"/><path class="cls-17" d="M116.2,70c0-1.4.7-2.43,2.18-2.43h7a1.86,1.86,0,0,1,2,1.93,1.89,1.89,0,0,1-2,1.93H120.4v4.09H125a1.89,1.89,0,0,1,2,1.93,1.93,1.93,0,0,1-2,1.93H120.4v4.26h5.18a1.87,1.87,0,0,1,2,1.93,1.9,1.9,0,0,1-2,1.93h-7.23a2,2,0,0,1-2.15-2.1Z"/><path class="cls-17" d="M129.05,74.69a2,2,0,0,1,2-2.24,1.7,1.7,0,0,1,1.84,1.48,4.38,4.38,0,0,1,3.9-1.65,5.16,5.16,0,0,1,5.51,5.43v7.73a2,2,0,1,1-4,0v-7a2.61,2.61,0,1,0-5.21,0v7a2,2,0,1,1-4,0Z"/><path class="cls-17" d="M152.07,68.19a2,2,0,1,1,4,0V85.44a2,2,0,1,1-4,0Z"/><path class="cls-17" d="M172.11,85.05c0,1,0,2.63-1.93,2.63-1.17,0-1.65-.64-1.93-1.71a4.82,4.82,0,0,1-3.84,1.88c-3.78,0-6.66-3.22-6.66-7.76s3-7.81,6.66-7.81a4.61,4.61,0,0,1,3.84,1.85,1.91,1.91,0,0,1,1.93-1.68c1.93,0,1.93,1.6,1.93,2.63Zm-7.14-.9c2.1,0,3.11-2.13,3.11-4.06S167.1,76,165,76s-3.19,2.18-3.19,4.11S162.79,84.15,165,84.15Z"/><path class="cls-17" d="M181,75.59a2.94,2.94,0,0,1-.25-1.18,2,2,0,0,1,2.1-2,1.84,1.84,0,0,1,1.79,1.43l2.58,8h0l2.58-8a1.83,1.83,0,0,1,1.79-1.43,2,2,0,0,1,2.1,2,3.12,3.12,0,0,1-.25,1.18L189.42,86c-.39,1-.81,1.68-2.19,1.68S185.44,87,185.05,86Z"/><path class="cls-17" d="M199.08,68.61a2.31,2.31,0,0,1-2.27,2.33,2.36,2.36,0,0,1-2.27-2.33,2.27,2.27,0,0,1,4.54,0Zm-4.29,6.08a2,2,0,1,1,4,0V85.44a2,2,0,1,1-4,0Z"/><path class="cls-17" d="M214.84,85.44a2,2,0,0,1-2,2.24,1.93,1.93,0,0,1-2-1.68,4.41,4.41,0,0,1-3.7,1.85c-4.06,0-6.63-3.78-6.63-7.59s2.15-8,6.49-8a5.88,5.88,0,0,1,3.84,1.4V68.19a2,2,0,1,1,4,0ZM207.64,76c-2.1,0-3.13,2.21-3.13,4.11s1,4.06,3.13,4.06,3.17-2.24,3.17-4.2S209.8,76,207.64,76Z"/><path class="cls-17" d="M230.91,85.05c0,1,0,2.63-1.93,2.63-1.18,0-1.65-.64-1.93-1.71a4.82,4.82,0,0,1-3.84,1.88c-3.78,0-6.66-3.22-6.66-7.76s3-7.81,6.66-7.81a4.61,4.61,0,0,1,3.84,1.85A1.91,1.91,0,0,1,229,72.45c1.93,0,1.93,1.6,1.93,2.63Zm-7.14-.9c2.1,0,3.11-2.13,3.11-4.06s-1-4.11-3.11-4.11-3.19,2.18-3.19,4.11S221.59,84.15,223.77,84.15Z"/><path class="cls-17" d="M116.09,101.69a2,2,0,0,1,2-2.24,1.7,1.7,0,0,1,1.85,1.48,4.36,4.36,0,0,1,3.89-1.65,5.17,5.17,0,0,1,5.52,5.43v7.73a2,2,0,1,1-4,0v-7a2.61,2.61,0,1,0-5.21,0v7a2,2,0,1,1-4,0Z"/><path class="cls-17" d="M145.51,107.09c0,4.2-2.88,7.76-7.22,7.76s-7.22-3.56-7.22-7.76,3-7.81,7.22-7.81S145.51,103,145.51,107.09Zm-10.41,0c0,1.93,1,4.06,3.19,4.06s3.19-2.13,3.19-4.06-1-4.11-3.19-4.11S135.1,105.16,135.1,107.09Z"/><path class="cls-17" d="M154.73,95.19a2,2,0,1,1,4,0v5.49h.05a4.8,4.8,0,0,1,3.67-1.4,5.17,5.17,0,0,1,5.52,5.43v7.73a2,2,0,1,1-4,0v-7a2.61,2.61,0,1,0-5.21,0v7a2,2,0,1,1-4,0Z"/><path class="cls-17" d="M184.07,112.05c0,1,0,2.63-1.93,2.63-1.18,0-1.65-.64-1.93-1.71a4.82,4.82,0,0,1-3.84,1.88c-3.78,0-6.66-3.22-6.66-7.76s3-7.81,6.66-7.81a4.63,4.63,0,0,1,3.84,1.85,1.91,1.91,0,0,1,1.93-1.68c1.93,0,1.93,1.6,1.93,2.63Zm-7.14-.9c2.1,0,3.11-2.13,3.11-4.06s-1-4.11-3.11-4.11-3.19,2.18-3.19,4.11S174.75,111.15,176.93,111.15Z"/><path class="cls-17" d="M185.36,102.22a2.92,2.92,0,0,1-.2-1,1.94,1.94,0,0,1,1.91-1.73,2,2,0,0,1,2,1.43l2.77,7.59,3-7.59a2.06,2.06,0,0,1,2-1.43,1.93,1.93,0,0,1,1.9,1.73,2.39,2.39,0,0,1-.19,1L191.8,119a2.18,2.18,0,0,1-1.91,1.6,1.87,1.87,0,0,1-2.1-1.74,3.37,3.37,0,0,1,.26-1.17l1.76-4.37Z"/><path class="cls-17" d="M207.34,101.69a2,2,0,0,1,2-2.24,1.93,1.93,0,0,1,2,1.68,4.48,4.48,0,0,1,3.84-1.85c4.34,0,6.49,4.06,6.49,8s-2.57,7.59-6.63,7.59a5.77,5.77,0,0,1-3.7-1.4v4.93a2,2,0,1,1-4,0Zm7.19,9.46c2.1,0,3.14-2.18,3.14-4.06s-1-4.11-3.14-4.11-3.16,2-3.16,4S212.32,111.15,214.53,111.15Z"/><path class="cls-17" d="M223.35,101.47a2,2,0,0,1,2.08-2c1.06,0,2,.39,2,1.68h.05a3.19,3.19,0,0,1,2.83-1.68,2,2,0,0,1,2,2.15c0,1.32-1.2,1.41-2.41,2s-2.43,1.1-2.43,2.69v6.19a2,2,0,1,1-4,0Z"/><path class="cls-17" d="M235.48,108.41c.28,2,1.93,2.91,3.81,2.91,2.07,0,3.5-1.62,4.56-1.62a1.78,1.78,0,0,1,1.65,1.73c0,1.74-3.58,3.42-6.58,3.42-4.53,0-7.56-3.3-7.56-7.76,0-4.08,3-7.81,7.23-7.81a7.51,7.51,0,0,1,7.25,7.34c0,1.2-.53,1.79-1.77,1.79Zm6.33-2.69a3.2,3.2,0,0,0-3.22-3.08,3.25,3.25,0,0,0-3.2,3.08Z"/><path class="cls-17" d="M247.26,101.69a2,2,0,0,1,2-2.24,1.7,1.7,0,0,1,1.85,1.51,5,5,0,0,1,3.75-1.68,5.12,5.12,0,0,1,4.17,2,6.09,6.09,0,0,1,4.26-2c3.27,0,5.51,1.9,5.51,5.43v7.73a2,2,0,1,1-4,0v-7c0-1.62-.89-2.77-2.35-2.77s-2.38,1.15-2.38,2.77v7a2,2,0,1,1-4,0v-7c0-1.62-.9-2.77-2.35-2.77-1.65,0-2.38,1.15-2.38,2.77v7a2,2,0,1,1-4,0Z"/><path class="cls-17" d="M275.35,95.61a2.31,2.31,0,0,1-2.27,2.33,2.37,2.37,0,0,1-2.27-2.33,2.27,2.27,0,0,1,4.54,0Zm-4.29,6.08a2,2,0,1,1,4,0v10.75a2,2,0,1,1-4,0Z"/><path class="cls-17" d="M291.2,107.09c0,4.2-2.89,7.76-7.23,7.76s-7.22-3.56-7.22-7.76,3-7.81,7.22-7.81S291.2,103,291.2,107.09Zm-10.42,0c0,1.93,1,4.06,3.19,4.06s3.19-2.13,3.19-4.06-1-4.11-3.19-4.11S280.78,105.16,280.78,107.09Z"/><path class="cls-17" d="M301.39,104c-.76,0-2.3-1.17-3.61-1.17-.73,0-1.38.33-1.38,1.12,0,1.88,7,1.59,7,6.19,0,2.69-2.26,4.73-5.74,4.73-2.26,0-5.62-1.29-5.62-3.11a1.9,1.9,0,0,1,1.73-1.79c1.57,0,2.27,1.37,4.17,1.37,1.24,0,1.6-.39,1.6-1.15,0-1.84-7-1.57-7-6.19,0-2.8,2.27-4.7,5.46-4.7,2,0,5,.93,5,2.91A1.74,1.74,0,0,1,301.39,104Z"/><path class="cls-17" d="M116.09,128.69a2,2,0,0,1,2-2.24,1.7,1.7,0,0,1,1.85,1.48,4.36,4.36,0,0,1,3.89-1.65,5.17,5.17,0,0,1,5.52,5.43v7.73a2,2,0,1,1-4,0v-7a2.61,2.61,0,1,0-5.21,0v7a2,2,0,1,1-4,0Z"/><path class="cls-17" d="M135.88,122.61a2.31,2.31,0,0,1-2.27,2.33,2.36,2.36,0,0,1-2.26-2.33,2.27,2.27,0,0,1,4.53,0Zm-4.28,6.08a2,2,0,1,1,4,0v10.75a2,2,0,1,1-4,0Z"/><path class="cls-17" d="M155.4,130.76c-1,0-1.91-.78-3.19-.78-2.3,0-3.39,2-3.39,4.11s1.2,4.06,3.39,4.06c1,0,2.52-.84,3-.84a1.78,1.78,0,0,1,1.74,1.77c0,2.07-3.47,2.77-4.93,2.77-4.34,0-7.22-3.56-7.22-7.76s3-7.81,7.22-7.81c1.6,0,4.93.59,4.93,2.55C156.94,129.67,156.35,130.76,155.4,130.76Z"/><path class="cls-17" d="M172.11,139.05c0,1,0,2.63-1.93,2.63-1.17,0-1.65-.64-1.93-1.71a4.82,4.82,0,0,1-3.84,1.88c-3.78,0-6.66-3.22-6.66-7.76s3-7.81,6.66-7.81a4.61,4.61,0,0,1,3.84,1.85,1.91,1.91,0,0,1,1.93-1.68c1.93,0,1.93,1.6,1.93,2.63Zm-7.14-.9c2.1,0,3.11-2.13,3.11-4.06S167.1,130,165,130s-3.19,2.18-3.19,4.11S162.79,138.15,165,138.15Z"/><path class="cls-17" d="M182.89,131c-.75,0-2.29-1.17-3.61-1.17-.73,0-1.37.33-1.37,1.12,0,1.88,7,1.59,7,6.19,0,2.69-2.27,4.73-5.74,4.73-2.27,0-5.63-1.29-5.63-3.11a1.91,1.91,0,0,1,1.74-1.79c1.57,0,2.27,1.37,4.17,1.37,1.23,0,1.6-.39,1.6-1.15,0-1.84-7-1.57-7-6.19,0-2.8,2.26-4.7,5.46-4.7,2,0,5,.93,5,2.91A1.74,1.74,0,0,1,182.89,131Z"/><path class="cls-17" d="M187.32,130.14h-.9a1.63,1.63,0,0,1-1.76-1.76,1.71,1.71,0,0,1,1.76-1.76h.9v-2.41a2,2,0,1,1,4,0v2.41h1.15c1,0,1.93.47,1.93,1.76a1.7,1.7,0,0,1-1.93,1.76h-1.15v9.3a2,2,0,1,1-4,0Z"/><path class="cls-17" d="M198.85,122.61a2.31,2.31,0,0,1-2.26,2.33,2.36,2.36,0,0,1-2.27-2.33,2.33,2.33,0,0,1,2.27-2.21A2.3,2.3,0,0,1,198.85,122.61Zm-4.28,6.08a2,2,0,1,1,4,0v10.75a2,2,0,1,1-4,0Z"/><path class="cls-17" d="M214.62,140.34c0,4.84-3.17,7.28-7.76,7.28-1.65,0-6.36-.81-6.36-3a2,2,0,0,1,1.63-1.76c1.29,0,2.71,1.26,5,1.26a3.1,3.1,0,0,0,3.41-3.19v-1h-.05a4.6,4.6,0,0,1-4.06,1.91c-4.23,0-6.22-3.72-6.22-7.73s2.58-7.84,6.64-7.84a4.38,4.38,0,0,1,3.69,1.85,1.93,1.93,0,0,1,2-1.68,2,2,0,0,1,2,2.24ZM207.42,130c-2.1,0-3.14,2.18-3.14,4.06,0,2.15,1,4.11,3.14,4.11s3.16-2,3.16-4S209.63,130,207.42,130Z"/><path class="cls-17" d="M230.77,134.09c0,4.2-2.88,7.76-7.22,7.76s-7.23-3.56-7.23-7.76,3-7.81,7.23-7.81S230.77,130,230.77,134.09Zm-10.41,0c0,1.93,1,4.06,3.19,4.06s3.19-2.13,3.19-4.06-1-4.11-3.19-4.11S220.36,132.16,220.36,134.09Z"/><path class="cls-17" d="M241,131c-.75,0-2.29-1.17-3.61-1.17-.73,0-1.37.33-1.37,1.12,0,1.88,7,1.59,7,6.19,0,2.69-2.27,4.73-5.74,4.73-2.27,0-5.63-1.29-5.63-3.11a1.91,1.91,0,0,1,1.74-1.79c1.57,0,2.27,1.37,4.17,1.37,1.23,0,1.6-.39,1.6-1.15,0-1.84-7-1.57-7-6.19,0-2.8,2.26-4.7,5.46-4.7,2,0,5,.93,5,2.91A1.74,1.74,0,0,1,241,131Z"/><path class="cls-17" d="M246.48,144.31a2,2,0,0,1-1.6,1,1.92,1.92,0,0,1-1.9-1.85,2.65,2.65,0,0,1,.34-1.12l2.32-4.2a2.06,2.06,0,0,1,1.62-1A2,2,0,0,1,249.2,139a2.7,2.7,0,0,1-.37,1.12Z"/><path class="cls-17" d="M124.57,158c-.76,0-2.3-1.17-3.61-1.17-.73,0-1.37.33-1.37,1.12,0,1.88,7,1.59,7,6.19,0,2.69-2.27,4.73-5.74,4.73-2.27,0-5.63-1.29-5.63-3.11A1.9,1.9,0,0,1,117,164c1.57,0,2.27,1.37,4.18,1.37,1.23,0,1.59-.39,1.59-1.15,0-1.84-7-1.57-7-6.19,0-2.8,2.27-4.7,5.46-4.7,2,0,5,.93,5,2.91A1.74,1.74,0,0,1,124.57,158Z"/><path class="cls-17" d="M132.24,149.61a2.31,2.31,0,0,1-2.27,2.33,2.36,2.36,0,0,1-2.26-2.33,2.27,2.27,0,0,1,4.53,0ZM128,155.69a2,2,0,1,1,4,0v10.75a2,2,0,1,1-4,0Z"/><path class="cls-17" d="M134.23,155.69a2,2,0,0,1,2-2.24,1.7,1.7,0,0,1,1.84,1.48,4.38,4.38,0,0,1,3.9-1.65,5.16,5.16,0,0,1,5.51,5.43v7.73a2,2,0,1,1-4,0v-7a2.61,2.61,0,1,0-5.21,0v7a2,2,0,1,1-4,0Z"/><path class="cls-17" d="M163.66,161.09c0,4.2-2.89,7.76-7.23,7.76s-7.22-3.56-7.22-7.76,3-7.81,7.22-7.81S163.66,157,163.66,161.09Zm-10.42,0c0,1.93,1,4.06,3.19,4.06s3.2-2.13,3.2-4.06-1-4.11-3.2-4.11S153.24,159.16,153.24,161.09Z"/><path class="cls-18" d="M181.83,148.24c2,0,6,.67,6,3.14a1.77,1.77,0,0,1-1.74,1.87c-1.14,0-1.93-1-4.28-1-3.47,0-5.26,2.94-5.26,6.36s1.82,6.19,5.26,6.19c2.35,0,3.3-1.18,4.45-1.18a2,2,0,0,1,1.85,1.91c0,2.68-4.23,3.3-6.3,3.3-5.68,0-9.63-4.51-9.63-10.3S176.12,148.24,181.83,148.24Z"/><path class="cls-18" d="M189.31,158.55c0-5.83,3.92-10.31,9.63-10.31s9.63,4.62,9.63,10.31-3.89,10.3-9.63,10.3S189.31,164.34,189.31,158.55Zm14.89,0c0-3.39-1.76-6.45-5.26-6.45s-5.27,3.06-5.27,6.45,1.71,6.43,5.27,6.43S204.2,162,204.2,158.55Z"/><path class="cls-18" d="M210.14,150.59a2,2,0,0,1,2.1-2.18,2.61,2.61,0,0,1,1.76.92l8.88,11.85h.05V150.59a2.1,2.1,0,1,1,4.2,0V166.5a2,2,0,0,1-2.1,2.18,2.68,2.68,0,0,1-1.76-.92l-8.88-11.71h0V166.5a2.1,2.1,0,1,1-4.2,0Z"/><path class="cls-18" d="M241.27,151a1.93,1.93,0,0,1-1.87,2.07c-1.15,0-2.05-.84-3.73-.84-1.2,0-2.29.65-2.29,1.82,0,2.89,9.35,1,9.35,8.26,0,4-3.3,6.5-7.17,6.5-2.15,0-6.8-.5-6.8-3.14a1.87,1.87,0,0,1,1.87-2c1.32,0,2.89,1.1,4.71,1.1s2.85-1,2.85-2.41c0-3.31-9.35-1.32-9.35-7.81,0-3.92,3.22-6.36,6.95-6.36C237.35,148.24,241.27,148.83,241.27,151Z"/><path class="cls-18" d="M244.52,151c0-1.4.7-2.43,2.18-2.43h7a1.87,1.87,0,0,1,2,1.93,1.89,1.89,0,0,1-2,1.93h-4.93v4.09h4.59a1.9,1.9,0,0,1,2.05,1.93,1.93,1.93,0,0,1-2.05,1.93h-4.59v4.26h5.18a1.87,1.87,0,0,1,2,1.93,1.89,1.89,0,0,1-2,1.93h-7.22a2,2,0,0,1-2.16-2.1Z"/><path class="cls-18" d="M266.33,148.24c2.05,0,6,.67,6,3.14a1.77,1.77,0,0,1-1.73,1.87c-1.15,0-1.94-1-4.29-1-3.47,0-5.26,2.94-5.26,6.36s1.82,6.19,5.26,6.19c2.35,0,3.31-1.18,4.45-1.18a2,2,0,0,1,1.85,1.91c0,2.68-4.22,3.3-6.3,3.3-5.68,0-9.63-4.51-9.63-10.3S260.62,148.24,266.33,148.24Z"/><path class="cls-18" d="M274.42,150.59a2.1,2.1,0,1,1,4.2,0v9.77a4.29,4.29,0,0,0,4.32,4.62,4.4,4.4,0,0,0,4.28-4.62v-9.77a2.1,2.1,0,1,1,4.2,0v10a8.5,8.5,0,0,1-17,0Z"/><path class="cls-18" d="M293.77,151c0-1.4.7-2.43,2.19-2.43h6.94a1.87,1.87,0,0,1,2,1.93,1.89,1.89,0,0,1-2,1.93H298v4.09h4.59a1.9,1.9,0,0,1,2.05,1.93,1.93,1.93,0,0,1-2.05,1.93H298v4.26h5.18a1.86,1.86,0,0,1,2,1.93,1.89,1.89,0,0,1-2,1.93h-7.22a2,2,0,0,1-2.16-2.1Z"/><path class="cls-18" d="M306.57,150.59a2,2,0,0,1,2.1-2.18,2.61,2.61,0,0,1,1.76.92l8.88,11.85h.05V150.59a2.1,2.1,0,1,1,4.2,0V166.5a2,2,0,0,1-2.1,2.18,2.68,2.68,0,0,1-1.76-.92l-8.88-11.71h-.05V166.5a2.1,2.1,0,1,1-4.2,0Z"/><path class="cls-18" d="M334.76,148.24c2.05,0,6,.67,6,3.14a1.77,1.77,0,0,1-1.73,1.87c-1.15,0-1.93-1-4.29-1-3.47,0-5.26,2.94-5.26,6.36s1.82,6.19,5.26,6.19c2.36,0,3.31-1.18,4.46-1.18a2,2,0,0,1,1.84,1.91c0,2.68-4.22,3.3-6.3,3.3-5.68,0-9.63-4.51-9.63-10.3S329.05,148.24,334.76,148.24Z"/><path class="cls-18" d="M343,150.59a2.1,2.1,0,1,1,4.2,0V166.5a2.1,2.1,0,1,1-4.2,0Z"/><path class="cls-18" d="M354.36,150.56a3.31,3.31,0,0,1,3-2.32,3.18,3.18,0,0,1,3,2.32l5.48,15.24a3.28,3.28,0,0,1,.23,1,1.86,1.86,0,0,1-1.93,1.85,2,2,0,0,1-2.05-1.46l-.84-2.63h-7.78l-.84,2.61a2,2,0,0,1-2,1.48,2,2,0,0,1-2.07-2,2.27,2.27,0,0,1,.2-.92Zm.31,10.17H360l-2.6-8.12h-.06Z"/><path class="cls-18" d="M379.17,151a1.94,1.94,0,0,1-1.87,2.07c-1.15,0-2.05-.84-3.73-.84-1.2,0-2.29.65-2.29,1.82,0,2.89,9.35,1,9.35,8.26,0,4-3.31,6.5-7.17,6.5-2.16,0-6.8-.5-6.8-3.14a1.87,1.87,0,0,1,1.87-2c1.32,0,2.89,1.1,4.71,1.1s2.85-1,2.85-2.41c0-3.31-9.35-1.32-9.35-7.81,0-3.92,3.22-6.36,6.94-6.36C375.25,148.24,379.17,148.83,379.17,151Z"/><path class="cls-18" d="M384.91,164.48a2.19,2.19,0,1,1-2.18,2.19A2.19,2.19,0,0,1,384.91,164.48Z"/></g></g></svg>