<svg xmlns="http://www.w3.org/2000/svg" viewBox="0 0 194.73 66.87"><defs><style>.cls-1{fill:#466898;}</style></defs><g id="Capa_2" data-name="Capa 2"><g id="Capa_1-2" data-name="Capa 1"><path class="cls-1" d="M184.43,59.08H10.29A10.31,10.31,0,0,1,0,48.78V18.33A10.3,10.3,0,0,1,10.29,8H184.43a10.3,10.3,0,0,1,10.3,10.29V48.78A10.31,10.31,0,0,1,184.43,59.08ZM10.29,9.46a8.88,8.88,0,0,0-8.87,8.87V48.78a8.88,8.88,0,0,0,8.87,8.87H184.43a8.88,8.88,0,0,0,8.87-8.87V18.33a8.88,8.88,0,0,0-8.87-8.87Z"/><path class="cls-1" d="M163,66.39H116.29a.72.72,0,0,1,0-1.43H163a.72.72,0,0,1,0,1.43Z"/><path class="cls-1" d="M175.08,63.11H158.47a.71.71,0,0,1,0-1.42h16.61a.71.71,0,0,1,0,1.42Z"/><path class="cls-1" d="M175.08,66.87H171a.71.71,0,0,1,0-1.42h4.12a.71.71,0,1,1,0,1.42Z"/><path class="cls-1" d="M183,61.9h-2.31a.71.71,0,0,1,0-1.42H183a.71.71,0,0,1,0,1.42Z"/><path class="cls-1" d="M76.62,1.91H30A.72.72,0,0,1,30,.48H76.62a.72.72,0,0,1,0,1.43Z"/><path class="cls-1" d="M34.44,5.18H17.83a.71.71,0,0,1,0-1.42H34.44a.71.71,0,1,1,0,1.42Z"/><path class="cls-1" d="M22,1.42H17.83a.71.71,0,0,1,0-1.42H22a.71.71,0,1,1,0,1.42Z"/><path class="cls-1" d="M12.25,6.39H10A.71.71,0,0,1,10,5h2.3a.71.71,0,1,1,0,1.42Z"/></g></g></svg>