<svg xmlns="http://www.w3.org/2000/svg" viewBox="0 0 156.17 44.1"><defs><style>.cls-1{fill:#746aa2;}</style></defs><g id="Capa_2" data-name="Capa 2"><g id="Capa_1-2" data-name="Capa 1"><path class="cls-1" d="M147.91,37.85H8.26A8.27,8.27,0,0,1,0,29.59V14.7A8.27,8.27,0,0,1,8.26,6.44H147.91a8.27,8.27,0,0,1,8.26,8.26V29.59A8.27,8.27,0,0,1,147.91,37.85ZM8.26,7.59A7.12,7.12,0,0,0,1.14,14.7V29.59A7.12,7.12,0,0,0,8.26,36.7H147.91A7.12,7.12,0,0,0,155,29.59V14.7a7.12,7.12,0,0,0-7.12-7.11Z"/><path class="cls-1" d="M130.69,43.71H93.27a.58.58,0,0,1-.58-.57.57.57,0,0,1,.58-.57h37.42a.56.56,0,0,1,.57.57A.57.57,0,0,1,130.69,43.71Z"/><path class="cls-1" d="M140.41,41.08H127.09a.57.57,0,0,1-.57-.57.58.58,0,0,1,.57-.57h13.32a.57.57,0,0,1,.57.57A.56.56,0,0,1,140.41,41.08Z"/><path class="cls-1" d="M140.41,44.1h-3.3a.57.57,0,0,1-.57-.57.56.56,0,0,1,.57-.57h3.3a.56.56,0,0,1,.57.57A.57.57,0,0,1,140.41,44.1Z"/><path class="cls-1" d="M146.73,40.11h-1.85a.57.57,0,0,1-.57-.57.58.58,0,0,1,.57-.57h1.85a.57.57,0,0,1,.57.57A.56.56,0,0,1,146.73,40.11Z"/><path class="cls-1" d="M61.45,1.53H24A.56.56,0,0,1,23.45,1,.56.56,0,0,1,24,.39H61.45a.57.57,0,1,1,0,1.14Z"/><path class="cls-1" d="M27.62,4.16H14.3A.58.58,0,0,1,14.3,3H27.62a.58.58,0,0,1,0,1.15Z"/><path class="cls-1" d="M17.6,1.14H14.3a.56.56,0,0,1-.57-.57A.57.57,0,0,1,14.3,0h3.3a.58.58,0,0,1,.58.57A.57.57,0,0,1,17.6,1.14Z"/><path class="cls-1" d="M9.83,5.13H8a.58.58,0,0,1-.57-.57A.57.57,0,0,1,8,4H9.83a.57.57,0,0,1,.57.57A.58.58,0,0,1,9.83,5.13Z"/></g></g></svg>