<svg id="svg8" height="512" viewBox="0 0 135.46666 135.46667" width="512" xmlns="http://www.w3.org/2000/svg" xmlns:svg="http://www.w3.org/2000/svg"><g id="layer1" transform="translate(0 -161.533)"><g stroke-linecap="round" stroke-linejoin="round"><path id="path9007" d="m73.771936 176.48436-30.40703 30.40705c21.62571 14.1235 31.70413 24.41684 45.42305 45.42305l13.893884-13.8939 16.51315-16.51314c-21.006214-13.71891-31.299554-23.79733-45.423054-45.42306z" fill="#994d66" stroke-width=".923"/><path id="path9266" d="m73.771802 176.48456-30.40693 30.40692c2.091351 1.36584 4.072292 2.69499 5.961393 4.00234l28.448394-28.44891c-1.307264-1.88898-2.637113-3.86914-4.002857-5.96035z" fill="#804063" stroke-width=".923"/><path id="path9005" d="m60.336836 224.20906-53.4832405 46.28179c-5.4311802 4.69989-5.0787101 13.25599.00001 18.33469 5.0787005 5.07872 13.6437805 5.43895 18.3346805 0l46.28179-53.48323z" fill="#994d66" stroke-width=".93"/><path id="path9245" d="m60.336964 224.20929-5.715415 4.93406 7.488949 7.48895-45.38896 52.72237c-1.123971 1.30321-2.46243 2.27579-3.929993 2.92798 4.400663 1.2262 9.259832.1799 12.39666-3.45715l46.281928-53.48304z" fill="#804063" stroke-width=".93"/><path id="path9257" d="m102.56849 209.95021-25.73796 25.73745c2.519601 3.08891 5.003515 6.42002 7.560779 10.09551.0777-.0658.154548-.13285.227893-.20619l27.838608-27.8381c.0734-.0733.14038-.15019.20619-.22789-3.67546-2.55723-7.00661-5.04122-10.09551-7.56078z" fill="#804063" stroke-width=".923"/><path id="path9011" d="m128.12592 220.83422 2.49452 2.49452c2.59117 2.59117 2.59116 6.76325-.00002 9.35443l-31.056724 31.05672c-2.59117 2.59117-6.76327 2.59119-9.35444.00001l-2.49451-2.49453c-2.59116-2.59118-2.59118-6.76325.00001-9.35442l31.056724-31.05674c2.59117-2.59117 6.76325-2.59118 9.35444.00001z" fill="#ffa14e" stroke-width=".93"/><path id="path9013" d="m87.862406 187.98417 19.832764 19.83277c1.42914 1.42914 1.42914 3.7302 0 5.15934l-27.838354 27.83835c-1.42915 1.42914-3.73022 1.42914-5.15936 0l-19.83275-19.83275c-1.42915-1.42915-1.42915-3.73022 0-5.15936l27.83834-27.83834c1.42915-1.42915 3.73022-1.42915 5.15936-.00001z" fill="#ffa14e" stroke-width=".93"/></g><path id="path6951-2" d="m61.719242 274.38131h56.484928c2.9692 0 5.3596 2.41909 5.3596 5.42396v2.57635c0 3.00487-2.3904 5.42396-5.3596 5.42396h-56.484928c-2.9692 0-5.3596-2.41909-5.3596-5.42396v-2.57635c0-3.00487 2.3904-5.42396 5.3596-5.42396z" fill="#ffa14e" fill-rule="evenodd"/><path id="rect10635-9" d="m56.427642 281.98474h67.068228c2.9692 0 5.3596 2.41909 5.3596 5.42396v2.57635c0 3.00487-2.3904 5.42396-5.3596 5.42396h-67.068228c-2.9693 0-5.3597-2.41909-5.3597-5.42396v-2.57635c0-3.00487 2.3904-5.42396 5.3597-5.42396z" fill="#994d66" fill-rule="evenodd"/><path id="path8471-0" d="m123.56067 281.98615v.13074 2.57659c0 3.00487-2.3906 5.42396-5.3598 5.42396-40.544495-.0147-26.595028.0214-67.134828-.002.068 2.94381 2.4329 5.29321 5.3588 5.29321h67.067728c2.9693 0 5.3599-2.41908 5.3599-5.42396v-2.57658c0-2.98281-2.3559-5.38723-5.2948-5.42241z" fill="#804063" fill-rule="evenodd"/><path id="path9848-4" d="m55.035442 285.92042v1.05834h2.1177v-1.05834zm5.2932 0v1.05834h2.1172v-1.05834zm5.2917 0v1.05834h2.1172v-1.05834zm5.2901 0v1.05834h2.1177v-1.05834zm5.2932 0v1.05834h2.1172v-1.05834zm5.2917 0v1.05834h2.1166v-1.05834zm5.2901 0v1.05834h2.1177v-1.05834zm5.2932 0v1.05834h2.1172v-1.05834zm5.2912 0v1.05834h2.1171v-1.05834zm5.290598 0v1.05834h2.1177v-1.05834zm5.2932 0v1.05834h2.1172v-1.05834zm5.2912 0v1.05834h2.1171v-1.05834zm5.2906 0v1.05834h2.1177v-1.05834zm5.2932 0v1.05834h2.1172v-1.05834z" fill="#804063" fill-rule="evenodd" stroke-width=".265"/><path id="path9228" d="m39.74959 242.02474-21.134627 18.28829 16.750915 16.75091 18.288806-21.13411z" fill="#ffa14e" stroke-linecap="round" stroke-linejoin="round" stroke-width=".93"/><path id="path9250" d="m49.270973 251.54612-18.238163 21.18476 4.333068 4.33306 18.288806-21.13411z" fill="#ff7377" stroke-linecap="round" stroke-linejoin="round" stroke-width=".93"/><path id="path9270" d="m338.09766 105.99023-104.57813 104.87696-15.91797-15.91797-10.25 10.25c-2.70073 2.70074-4.05078 6.2254-4.05078 9.75 0 3.52463 1.35005 7.04926 4.05078 9.75l74.95899 74.95898c5.40147 5.40148 14.09852 5.40148 19.5 0l105.21484-105.21679c5.40147-5.40152 5.40147-14.09853 0-19.5l-10.25-10.25-94.96484 94.96679c-5.40148 5.40148-14.09853 5.40148-19.5 0l-43.3125-43.3125 104.59375-104.86132z" fill="#ff7377" stroke-linecap="round" stroke-linejoin="round" stroke-width="3.515" transform="matrix(.265 0 0 .265 0 161.533)"/><path id="path9052" d="m75.79081 228.63366.74836.74836 1.497086-1.49708-.748359-.74836zm3.741797-3.74179.74836.74836 1.497086-1.49709-.748359-.74836zm3.740666-3.74067.748359.74836 1.49744-1.49744-.748359-.74836zm3.742858-3.74286.748359.74836 1.497086-1.49708-.748359-.74836zm3.741797-3.74179.748359.74836 1.496662-1.49667-.748359-.74835zm3.740665-3.74067.74836.74836 1.497441-1.49744-.748361-.74836zm3.742859-3.74285.74836.74835 1.497078-1.49708-.748358-.74836z" fill="#ff7377" fill-rule="evenodd" stroke-width=".265"/><path id="path9009" d="m72.350626 165.05893 2.49452 2.49453c2.59116 2.59118 2.59118 6.76324-.00001 9.35442l-31.05672 31.05672c-2.59119 2.59119-6.76326 2.59119-9.35443.00002l-2.49451-2.49454c-2.59117-2.59117-2.59118-6.76325 0-9.35442l31.05671-31.05672c2.59119-2.59119 6.76327-2.59119 9.35444-.00001z" fill="#ffa14e" stroke-linecap="round" stroke-linejoin="round" stroke-width=".93"/></g></svg>