<svg xmlns="http://www.w3.org/2000/svg" viewBox="0 0 140.19 148.41"><defs><style>.cls-1{isolation:isolate;}.cls-2{fill:#cfd0d2;mix-blend-mode:multiply;}.cls-3{fill:#feede1;}.cls-4{fill:#dfcfc4;}.cls-5{fill:#e5c94f;}.cls-6{fill:#e5e5ff;}.cls-7{fill:#bbbbd1;}.cls-8{fill:#466898;}.cls-9{fill:#eadf1b;}.cls-10{fill:#eda719;}.cls-11{fill:#df244b;}.cls-12{fill:#7dba43;}.cls-13{fill:#dae1ea;}</style></defs><g class="cls-1"><g id="Capa_2" data-name="Capa 2"><g id="Capa_1-2" data-name="Capa 1"><polygon class="cls-2" points="135.35 148.41 140.19 33.8 140.19 33.8 140.19 33.8 121.52 14.53 7.91 9.73 2.29 142.79 135.35 148.41"/><polygon class="cls-3" points="0 140.42 133.06 146.04 137.9 31.43 119.22 12.16 5.62 7.37 0 140.42"/><polygon class="cls-4" points="119.22 12.16 137.9 31.43 118.44 30.61 119.22 12.16"/><path class="cls-5" d="M60.22,2.18,16.77,0c-.14,1-.37,2.09-.42,2.63a110.88,110.88,0,0,0-.51,11.08L60,15.93c0-3.06.11-6.13.2-9.19C60.21,5.36,60.13,3.69,60.22,2.18Z"/><rect class="cls-6" x="42.27" y="112.13" width="13.95" height="16.79" rx="3" transform="translate(-73.11 165.02) rotate(-87.76)"/><rect class="cls-7" x="23.25" y="111.39" width="13.95" height="16.79" rx="3" transform="translate(-90.64 145.31) rotate(-87.76)"/><path class="cls-8" d="M32.63,131a.48.48,0,0,1-.48.49c-.28,0-.49-.22-.91-.24s-.57.14-.58.42c0,.71,2.29.35,2.22,2.12a1.63,1.63,0,0,1-1.82,1.53c-.53,0-1.67-.19-1.64-.84a.46.46,0,0,1,.47-.47c.33,0,.7.3,1.15.32s.71-.23.72-.57c0-.81-2.28-.41-2.22-2a1.59,1.59,0,0,1,1.77-1.49C31.69,130.28,32.65,130.46,32.63,131Z"/><path class="cls-8" d="M34.09,133.85a.87.87,0,0,0,.91.76c.51,0,.87-.37,1.13-.36a.44.44,0,0,1,.39.44c0,.43-.91.81-1.65.78a1.81,1.81,0,0,1-1.78-2,1.78,1.78,0,1,1,3.56,0c0,.3-.15.44-.45.43Zm1.58-.6a.78.78,0,0,0-.76-.78.79.79,0,0,0-.81.72Z"/><path class="cls-8" d="M36.81,132.53a.88.88,0,0,1-.05-.29.48.48,0,0,1,.54-.46.44.44,0,0,1,.42.36l.56,2h0l.71-1.93a.46.46,0,0,1,.46-.33.47.47,0,0,1,.49.5.71.71,0,0,1-.07.29l-1.1,2.52a.5.5,0,0,1-.55.39c-.34,0-.43-.18-.52-.44Z"/><path class="cls-8" d="M41,134.12a.85.85,0,0,0,.91.75c.5,0,.87-.36,1.13-.35a.44.44,0,0,1,.39.44c0,.43-.91.81-1.65.78a1.81,1.81,0,0,1-1.78-2,1.78,1.78,0,1,1,3.56,0c0,.3-.15.44-.45.42Zm1.58-.6a.78.78,0,0,0-.76-.78.8.8,0,0,0-.82.72Z"/><path class="cls-8" d="M43.91,132.53a.49.49,0,0,1,.53-.48c.26,0,.47.12.46.44h0a.78.78,0,0,1,.71-.39.49.49,0,0,1,.46.55c0,.32-.31.33-.61.46s-.61.24-.63.63l-.06,1.52a.5.5,0,1,1-1,0Z"/><path class="cls-8" d="M46.2,132.67a.49.49,0,0,1,.51-.53.51.51,0,0,1,.48.57l-.11,2.64a.49.49,0,0,1-.51.53.5.5,0,0,1-.48-.56Zm1.11-1.45a.57.57,0,0,1-.58.55.58.58,0,0,1-.54-.59.57.57,0,0,1,.58-.52A.56.56,0,0,1,47.31,131.22Z"/><path class="cls-8" d="M51,135.51a.51.51,0,0,1-.52.53.47.47,0,0,1-.48-.43,1.07,1.07,0,0,1-.92.41,1.74,1.74,0,0,1-1.56-1.92c0-1,.6-1.94,1.67-1.9a1.41,1.41,0,0,1,.93.38l0-1.35a.5.5,0,1,1,1,0Zm-1.68-2.4c-.52,0-.79.52-.81,1s.21,1,.73,1,.8-.52.82-1S49.87,133.13,49.34,133.11Z"/><path class="cls-8" d="M55,135.57c0,.25,0,.64-.5.62-.29,0-.4-.17-.46-.44a1.19,1.19,0,0,1-1,.43,1.73,1.73,0,0,1-1.56-2,1.78,1.78,0,0,1,1.71-1.86,1.15,1.15,0,0,1,.92.5.48.48,0,0,1,.49-.4c.48,0,.46.41.45.67Zm-1.75-.29c.52,0,.79-.5.8-1s-.2-1-.72-1-.8.5-.82,1S52.68,135.26,53.22,135.28Z"/><path class="cls-8" d="M58.91,135.82a.5.5,0,0,1-.52.53.48.48,0,0,1-.47-.44,1.06,1.06,0,0,1-.93.42,1.75,1.75,0,0,1-1.56-1.92c0-1,.61-1.94,1.68-1.9a1.38,1.38,0,0,1,.92.38l.06-1.35a.49.49,0,0,1,.51-.53.51.51,0,0,1,.48.57Zm-1.68-2.4c-.51,0-.79.52-.8,1s.21,1,.73,1,.79-.52.81-1S57.76,133.44,57.23,133.42Z"/><path class="cls-8" d="M64.77,134.73a1.78,1.78,0,1,1-3.54-.14,1.78,1.78,0,1,1,3.54.14Zm-2.55-.1c0,.47.2,1,.74,1s.8-.5.82-1-.2-1-.74-1S62.23,134.15,62.22,134.63Z"/><path class="cls-8" d="M69.53,134.1c-.25,0-.46-.22-.78-.23-.56,0-.85.47-.87,1a.91.91,0,0,0,.8,1,5,5,0,0,0,.74-.18.44.44,0,0,1,.41.45c0,.51-.88.65-1.24.64a1.82,1.82,0,0,1-1.7-2A1.85,1.85,0,0,1,68.74,133c.39,0,1.21.19,1.19.68C69.92,133.84,69.76,134.1,69.53,134.1Z"/><path class="cls-8" d="M73.62,135.08a1.78,1.78,0,1,1-3.54-.14,1.78,1.78,0,1,1,3.54.14Zm-2.55-.1c0,.47.2,1,.74,1s.81-.49.82-1-.2-1-.74-1S71.09,134.5,71.07,135Z"/><path class="cls-8" d="M74.1,133.77a.5.5,0,0,1,.51-.54.42.42,0,0,1,.44.39,1.06,1.06,0,0,1,1-.37,1.27,1.27,0,0,1,1.31,1.38l-.08,1.9a.5.5,0,0,1-.51.53.51.51,0,0,1-.48-.57l.07-1.72a.64.64,0,1,0-1.28-.05L75,136.44a.49.49,0,0,1-.51.53.5.5,0,0,1-.48-.56Z"/><path class="cls-8" d="M80,134.56c-.18,0-.55-.31-.87-.33s-.34.07-.35.27c0,.46,1.7.46,1.66,1.58A1.26,1.26,0,0,1,79,137.19c-.55,0-1.37-.37-1.35-.82a.47.47,0,0,1,.44-.42c.39,0,.55.36,1,.38.31,0,.4-.08.41-.27,0-.45-1.71-.45-1.66-1.59a1.2,1.2,0,0,1,1.38-1.1c.49,0,1.23.28,1.21.76A.42.42,0,0,1,80,134.56Z"/><path class="cls-8" d="M81.58,135.71a.86.86,0,0,0,.91.75c.51,0,.88-.36,1.14-.35a.44.44,0,0,1,.39.44c0,.42-.92.8-1.65.78a1.8,1.8,0,0,1-1.78-2,1.78,1.78,0,1,1,3.56,0c0,.3-.15.43-.46.42Zm1.58-.6a.78.78,0,0,0-.76-.79.8.8,0,0,0-.81.73Z"/><path class="cls-8" d="M87,134.78c-.25,0-.47-.21-.78-.23-.57,0-.85.47-.87,1a.91.91,0,0,0,.79,1,4.45,4.45,0,0,0,.74-.18.43.43,0,0,1,.41.45c0,.51-.88.65-1.23.64a1.8,1.8,0,0,1-1.7-2,1.85,1.85,0,0,1,1.85-1.85c.39,0,1.2.2,1.18.68C87.37,134.52,87.22,134.79,87,134.78Z"/><path class="cls-8" d="M87.73,134.3a.49.49,0,0,1,.51-.53.51.51,0,0,1,.48.57l-.07,1.76a.62.62,0,0,0,.61.67.63.63,0,0,0,.67-.62l.07-1.76a.49.49,0,0,1,.51-.53.5.5,0,0,1,.48.56l-.07,1.79c0,.88-.64,1.42-1.69,1.38s-1.61-.62-1.57-1.51Z"/><path class="cls-8" d="M92.28,136.13a.86.86,0,0,0,.91.75c.51,0,.88-.37,1.14-.36a.45.45,0,0,1,.39.45c0,.42-.92.8-1.65.77a1.8,1.8,0,0,1-1.78-2,1.78,1.78,0,1,1,3.56,0c0,.29-.15.43-.45.42Zm1.58-.6a.78.78,0,0,0-.76-.79.79.79,0,0,0-.81.73Z"/><path class="cls-8" d="M95.24,134.59a.51.51,0,0,1,.52-.53.42.42,0,0,1,.44.38,1.06,1.06,0,0,1,1-.37,1.26,1.26,0,0,1,1.3,1.39l-.07,1.9a.5.5,0,1,1-1,0l.07-1.73a.64.64,0,1,0-1.28-.05l-.07,1.73a.5.5,0,1,1-1,0Z"/><path class="cls-8" d="M101.51,135.34c-.25,0-.46-.21-.78-.22-.56,0-.85.47-.87,1a.91.91,0,0,0,.79,1,4.89,4.89,0,0,0,.75-.18.44.44,0,0,1,.41.45c0,.51-.88.65-1.24.64a1.82,1.82,0,0,1-1.7-2,1.85,1.85,0,0,1,1.85-1.85c.39,0,1.21.19,1.19.68C101.9,135.09,101.74,135.35,101.51,135.34Z"/><path class="cls-8" d="M102.24,134.87a.5.5,0,1,1,1,0l-.1,2.64a.51.51,0,0,1-.52.53.49.49,0,0,1-.47-.56Zm1.11-1.46a.57.57,0,0,1-.58.55.56.56,0,1,1,0-1.11A.56.56,0,0,1,103.35,133.41Z"/><path class="cls-8" d="M107.06,137.6c0,.26,0,.65-.5.63-.29,0-.4-.18-.45-.44a1.2,1.2,0,0,1-1,.42,1.73,1.73,0,0,1-1.56-2,1.79,1.79,0,0,1,1.71-1.86,1.12,1.12,0,0,1,.93.49.47.47,0,0,1,.49-.39c.47,0,.46.41.45.66Zm-1.74-.29c.51,0,.78-.49.8-1s-.2-1-.72-1-.81.51-.83,1S104.78,137.29,105.32,137.31Z"/><path class="cls-8" d="M13.72,125.06a.5.5,0,0,1-.52-.56l.05-1.22a1.64,1.64,0,1,1,3.28.09l0,.76,1.13.05a.49.49,0,0,1,.51.53.49.49,0,0,1-.55.5Zm1.87-1,0-.7a.73.73,0,0,0-1.46-.06l0,.7Z"/><path class="cls-8" d="M15,121.32a.48.48,0,0,1-.47-.53c0-.26.11-.48.43-.46v0a.75.75,0,0,1-.38-.71.47.47,0,0,1,.54-.46c.33,0,.33.31.46.61s.25.61.64.63l1.52.06a.49.49,0,0,1,.53.51.51.51,0,0,1-.57.48Z"/><path class="cls-8" d="M16.62,115.79a1.78,1.78,0,1,1-.14,3.55,1.78,1.78,0,1,1,.14-3.55Zm-.1,2.56c.48,0,1-.21,1-.75s-.49-.8-1-.82-1,.2-1.05.75S16.05,118.33,16.52,118.35Z"/><path class="cls-8" d="M13.72,115.26a.51.51,0,0,1-.53-.52.49.49,0,0,1,.57-.47l1.34,0a1.42,1.42,0,0,1-.3-.95,1.75,1.75,0,0,1,2-1.52,1.75,1.75,0,0,1,1.8,1.7,1.08,1.08,0,0,1-.49.89.47.47,0,0,1,.39.51.49.49,0,0,1-.57.47Zm4-1.62c0-.51-.51-.79-1-.81s-1,.22-1,.74.46.79.94.81S17.68,114.19,17.71,113.64Z"/><path class="cls-8" d="M18.14,108.09c.26,0,.65,0,.63.5,0,.29-.17.4-.44.45a1.21,1.21,0,0,1,.43,1,1.75,1.75,0,0,1-2,1.56,1.78,1.78,0,0,1-1.86-1.71,1.16,1.16,0,0,1,.5-.93.47.47,0,0,1-.4-.49c0-.47.41-.46.67-.45Zm-.29,1.74c0-.51-.49-.78-1-.8s-1,.2-1,.72.5.81,1,.83A.88.88,0,0,0,17.85,109.83Z"/><path class="cls-8" d="M14,107.36a.5.5,0,1,1,0-1l1.35,0a1.37,1.37,0,0,1-.3-1,1.74,1.74,0,0,1,2-1.52,1.76,1.76,0,0,1,1.8,1.7,1.06,1.06,0,0,1-.49.89.48.48,0,0,1,.39.51.51.51,0,0,1-.57.48Zm4-1.61c0-.52-.5-.79-1-.81s-1,.21-1,.73.46.8.94.81S18,106.29,18,105.75Z"/><path class="cls-8" d="M14.32,102.38a.56.56,0,1,1,0,1.11.57.57,0,0,1-.52-.57A.56.56,0,0,1,14.32,102.38Zm1.45,1.11a.5.5,0,0,1-.53-.52.51.51,0,0,1,.57-.47l2.64.1a.5.5,0,0,1,.53.52.48.48,0,0,1-.56.47Z"/><path class="cls-8" d="M14.24,101.9a.5.5,0,1,1,0-1l4.23.17a.49.49,0,0,1,.53.51.5.5,0,0,1-.56.48Z"/><path class="cls-8" d="M14.44,99.33a.57.57,0,0,1,.55.58.58.58,0,0,1-.59.53.57.57,0,0,1-.52-.58A.56.56,0,0,1,14.44,99.33Zm1.45,1.11a.51.51,0,0,1-.53-.52.5.5,0,0,1,.57-.47l2.64.1a.5.5,0,0,1,.53.52.49.49,0,0,1-.56.47Z"/><path class="cls-8" d="M18.73,95.62a.49.49,0,0,1,.53.51.47.47,0,0,1-.43.48,1.11,1.11,0,0,1,.42.93,1.76,1.76,0,0,1-1.93,1.55,1.74,1.74,0,0,1-1.9-1.67,1.43,1.43,0,0,1,.38-.93l-1.35,0a.5.5,0,1,1,0-1Zm-2.4,1.67c0,.52.52.79,1,.81s1-.21,1-.73-.52-.8-1-.82S16.35,96.76,16.33,97.29Z"/><path class="cls-8" d="M18.79,91.67c.25,0,.64,0,.62.49,0,.29-.17.41-.44.46a1.2,1.2,0,0,1,.43,1,1.75,1.75,0,0,1-2,1.57,1.78,1.78,0,0,1-1.85-1.72,1.12,1.12,0,0,1,.49-.92.48.48,0,0,1-.4-.49c0-.48.41-.46.67-.45Zm-.29,1.74c0-.52-.5-.78-1-.8s-1,.2-1,.72.5.81,1,.83S18.47,94,18.5,93.41Z"/><path class="cls-8" d="M19,87.72a.5.5,0,0,1,.53.52.49.49,0,0,1-.44.48,1,1,0,0,1,.42.92,1.75,1.75,0,0,1-1.92,1.56c-1,0-1.94-.61-1.9-1.67a1.39,1.39,0,0,1,.38-.93l-1.35,0a.51.51,0,0,1-.53-.52.49.49,0,0,1,.57-.47Zm-2.4,1.68c0,.51.51.79,1,.81s1-.22,1-.73-.52-.8-1-.82S16.66,88.87,16.64,89.4Z"/><path class="cls-8" d="M18,81.86a1.78,1.78,0,1,1-.14,3.55A1.78,1.78,0,1,1,18,81.86Zm-.1,2.56c.47,0,1-.21,1-.75s-.49-.8-1-.82-1,.2-1,.74S17.37,84.4,17.85,84.42Z"/><path class="cls-8" d="M17.08,79.33v.22a.4.4,0,0,1-.45.42.42.42,0,0,1-.42-.45V79.3l-.51,0a1,1,0,0,1-1.09-1.09c0-.35.14-.68.48-.66s.41.14.4.42,0,.33.35.34l.41,0V78c0-.3.14-.5.45-.49s.43.23.42.52v.31l2.28.09a.5.5,0,1,1,0,1Z"/><path class="cls-8" d="M16.73,77.52a.48.48,0,0,1-.47-.53c0-.26.11-.48.43-.46v0a.75.75,0,0,1-.38-.71.48.48,0,0,1,.54-.46c.33,0,.34.31.46.61s.25.61.64.63l1.52.06a.49.49,0,0,1,.53.51.51.51,0,0,1-.57.48Z"/><path class="cls-8" d="M18.56,74.61a.86.86,0,0,0,.75-.91c0-.51-.37-.87-.36-1.13a.44.44,0,0,1,.44-.39c.43,0,.81.91.78,1.65a1.8,1.8,0,0,1-2,1.78,1.78,1.78,0,1,1,0-3.56.38.38,0,0,1,.42.45ZM18,73a.79.79,0,0,0-.07,1.57Z"/><path class="cls-8" d="M17.62,69.21c0,.24-.21.46-.22.77,0,.57.47.85,1,.87a.91.91,0,0,0,1-.79,4.45,4.45,0,0,0-.18-.74.43.43,0,0,1,.45-.41c.51,0,.65.88.64,1.24a1.8,1.8,0,0,1-2,1.69A1.84,1.84,0,0,1,16.49,70c0-.4.19-1.21.67-1.19C17.37,68.82,17.63,69,17.62,69.21Z"/><path class="cls-8" d="M17.14,68.46a.49.49,0,0,1-.53-.51.51.51,0,0,1,.57-.48l1.77.07A.64.64,0,0,0,19,66.27l-1.77-.07a.5.5,0,1,1,0-1l1.79.08c.88,0,1.42.64,1.38,1.68s-.63,1.61-1.51,1.57Z"/><path class="cls-8" d="M19,63.91a.86.86,0,0,0,.76-.91c0-.51-.37-.87-.36-1.13a.44.44,0,0,1,.44-.39c.43,0,.81.91.78,1.64a1.81,1.81,0,0,1-2,1.79,1.78,1.78,0,1,1,0-3.56c.3,0,.44.14.43.45Zm-.6-1.58a.79.79,0,0,0-.06,1.57Z"/><path class="cls-8" d="M17.44,61a.5.5,0,0,1-.53-.52.42.42,0,0,1,.38-.44,1.06,1.06,0,0,1-.37-1,1.26,1.26,0,0,1,1.39-1.3l1.9.07a.5.5,0,1,1,0,1l-1.73-.06A.64.64,0,1,0,18.39,60l1.73.07a.5.5,0,1,1,0,1Z"/><path class="cls-8" d="M18.19,54.68c0,.25-.21.46-.22.78,0,.56.47.85,1,.87a.92.92,0,0,0,1-.79,6.44,6.44,0,0,0-.18-.75.44.44,0,0,1,.45-.41c.51,0,.65.88.63,1.24a1.8,1.8,0,0,1-2,1.7,1.84,1.84,0,0,1-1.85-1.85c0-.39.19-1.2.67-1.18C17.94,54.29,18.2,54.45,18.19,54.68Z"/><path class="cls-8" d="M16.26,52.84a.57.57,0,0,1,.55.58.56.56,0,1,1-.55-.58ZM17.71,54a.49.49,0,0,1-.53-.51.51.51,0,0,1,.57-.48l2.64.11a.49.49,0,0,1,.53.51.51.51,0,0,1-.57.48Z"/><path class="cls-8" d="M20.45,49.13c.25,0,.64,0,.63.5,0,.29-.18.4-.44.46a1.16,1.16,0,0,1,.42,1,1.73,1.73,0,0,1-2,1.56,1.77,1.77,0,0,1-1.85-1.71,1.12,1.12,0,0,1,.49-.93.46.46,0,0,1-.39-.49c0-.47.4-.46.66-.45Zm-.29,1.74c0-.51-.49-.78-1-.8s-1,.2-1,.73.51.8,1,.82S20.14,51.41,20.16,50.87Z"/><rect class="cls-6" x="61.92" y="112.9" width="13.95" height="16.79" rx="3" transform="translate(-55 185.39) rotate(-87.76)"/><path class="cls-8" d="M37.59,26.48a1,1,0,0,1,1-.7,1,1,0,0,1,.93.73l1,3.86h0l1.28-3.77a1,1,0,0,1,1-.65,1,1,0,0,1,.92.77l.68,5.41a.92.92,0,0,1,0,.16.68.68,0,0,1-.73.67c-.49,0-.67-.25-.72-.71l-.41-3.93h0l-1.32,4a.8.8,0,0,1-1.53-.06l-1-4.08h0l-.72,3.9c-.09.45-.29.66-.78.64a.66.66,0,0,1-.66-.72.92.92,0,0,1,0-.16Z"/><path class="cls-8" d="M49.75,32.29c0,.35,0,.9-.7.88-.4,0-.56-.25-.64-.62a1.67,1.67,0,0,1-1.34.6,2.43,2.43,0,0,1-2.19-2.76,2.48,2.48,0,0,1,2.39-2.59,1.6,1.6,0,0,1,1.3.68.66.66,0,0,1,.68-.55c.67,0,.65.58.63.93Zm-2.44-.41c.72,0,1.09-.68,1.12-1.35s-.28-1.42-1-1.45-1.13.7-1.16,1.37S46.56,31.86,47.31,31.88Z"/><path class="cls-8" d="M51,29.27h-.31a.55.55,0,0,1-.58-.63.58.58,0,0,1,.63-.58h.31l0-.83a.69.69,0,1,1,1.38.06l0,.83h.39a.61.61,0,1,1,0,1.21h-.4l-.12,3.19a.7.7,0,1,1-1.39-.05Z"/><path class="cls-8" d="M53.51,28.79a.69.69,0,0,1,.74-.66c.37,0,.67.16.65.6h0a1.13,1.13,0,0,1,1-.54.68.68,0,0,1,.64.77c0,.45-.43.47-.85.64s-.85.35-.87.89l-.09,2.13a.69.69,0,1,1-1.38-.06Z"/><path class="cls-8" d="M56.72,29a.7.7,0,1,1,1.38.05L58,32.74a.7.7,0,1,1-1.39-.05Zm1.55-2a.79.79,0,0,1-.81.76.78.78,0,1,1,.06-1.56A.79.79,0,0,1,58.27,27Z"/><path class="cls-8" d="M60.87,29.66l-1.61-.06a.61.61,0,1,1,.05-1.22l3.14.13a.42.42,0,0,1,.44.45.62.62,0,0,1-.16.41l-2.31,3,1.83.07a.61.61,0,1,1,0,1.21L59,33.5c-.31,0-.56-.18-.55-.5a.84.84,0,0,1,.14-.37Z"/><path class="cls-8" d="M70.67,33.24A.69.69,0,0,1,70,34a.66.66,0,0,1-.67-.6A1.5,1.5,0,0,1,68,34a2.44,2.44,0,0,1-2.18-2.69c0-1.35.85-2.71,2.34-2.66a2,2,0,0,1,1.3.54l.07-1.89a.7.7,0,1,1,1.39.06Zm-2.34-3.35c-.72,0-1.11.72-1.13,1.37s.3,1.41,1,1.44,1.12-.73,1.14-1.4S69.07,29.92,68.33,29.89Z"/><path class="cls-8" d="M72.64,31.93a1.19,1.19,0,0,0,1.27,1c.71,0,1.22-.51,1.59-.49a.61.61,0,0,1,.54.61c0,.6-1.28,1.13-2.3,1.09a2.53,2.53,0,0,1-2.5-2.77,2.49,2.49,0,1,1,5,0,.54.54,0,0,1-.63.6Zm2.21-.84A1.1,1.1,0,0,0,73.78,30a1.13,1.13,0,0,0-1.14,1Z"/><path class="cls-8" d="M79.35,29.8a.67.67,0,0,1,.73-.66c.37,0,.67.16.66.6h0a1.11,1.11,0,0,1,1-.54.68.68,0,0,1,.64.77c0,.45-.43.47-.85.64s-.85.34-.87.89l-.09,2.13a.69.69,0,1,1-1.38-.06Z"/><path class="cls-8" d="M82.55,30a.69.69,0,1,1,1.38.06l-.14,3.69a.7.7,0,1,1-1.38,0Zm1.55-2a.78.78,0,0,1-.81.76.78.78,0,1,1,.06-1.56A.79.79,0,0,1,84.1,28Z"/><path class="cls-8" d="M85.73,32.44A1.19,1.19,0,0,0,87,33.49c.71,0,1.22-.51,1.59-.49a.62.62,0,0,1,.55.62c0,.59-1.28,1.12-2.31,1.08a2.52,2.52,0,0,1-2.49-2.77,2.49,2.49,0,1,1,5,0,.54.54,0,0,1-.64.59Zm2.21-.84a1.1,1.1,0,0,0-1.06-1.1,1.12,1.12,0,0,0-1.14,1Z"/><path class="cls-8" d="M92.76,31.19c-.26,0-.77-.43-1.22-.45-.26,0-.48.1-.49.37,0,.64,2.38.64,2.32,2.22a1.75,1.75,0,0,1-2,1.55c-.78,0-1.92-.52-1.9-1.15a.66.66,0,0,1,.62-.59c.54,0,.76.5,1.42.53.42,0,.55-.11.56-.37,0-.64-2.38-.64-2.32-2.22a1.69,1.69,0,0,1,1.94-1.55c.68,0,1.72.39,1.69,1.07A.58.58,0,0,1,92.76,31.19Z"/><path class="cls-8" d="M98.56,34.64A2.39,2.39,0,0,1,95.79,37c-.57,0-2.17-.37-2.14-1.13a.67.67,0,0,1,.58-.58c.44,0,.92.47,1.72.5a1.06,1.06,0,0,0,1.21-1l0-.33h0a1.61,1.61,0,0,1-1.42.6c-1.46-.06-2.09-1.36-2-2.74a2.48,2.48,0,0,1,2.39-2.6,1.48,1.48,0,0,1,1.24.68.67.67,0,0,1,.72-.55.7.7,0,0,1,.66.8ZM96.22,31c-.72,0-1.11.71-1.13,1.36s.3,1.42,1,1.45,1.12-.65,1.14-1.32S97,31,96.22,31Z"/><path class="cls-8" d="M104.19,32.71a2.49,2.49,0,1,1-5-.19,2.49,2.49,0,1,1,5,.19Zm-3.58-.14c0,.67.3,1.41,1,1.44s1.12-.69,1.15-1.35-.28-1.43-1-1.46S100.64,31.91,100.61,32.57Z"/><path class="cls-8" d="M107.74,31.78c-.26,0-.77-.43-1.22-.45-.25,0-.48.09-.49.36,0,.65,2.38.65,2.32,2.22a1.74,1.74,0,0,1-2,1.55c-.78,0-1.92-.51-1.9-1.14a.66.66,0,0,1,.63-.59c.53,0,.76.5,1.41.52.42,0,.55-.11.56-.37,0-.63-2.38-.63-2.32-2.22a1.68,1.68,0,0,1,1.94-1.54c.68,0,1.72.38,1.69,1.07A.6.6,0,0,1,107.74,31.78Z"/><path class="cls-8" d="M52.9,41.5a.69.69,0,0,1-.72.74.66.66,0,0,1-.67-.6,1.51,1.51,0,0,1-1.29.58A2.44,2.44,0,0,1,48,39.53c.05-1.35.84-2.71,2.34-2.66a2,2,0,0,1,1.3.54l.07-1.89a.7.7,0,0,1,.72-.74.69.69,0,0,1,.66.8Zm-2.34-3.35c-.72,0-1.11.72-1.13,1.37s.3,1.41,1,1.44,1.11-.73,1.14-1.4S51.3,38.18,50.56,38.15Z"/><path class="cls-8" d="M54.87,40.19a1.19,1.19,0,0,0,1.27,1.05c.71,0,1.22-.51,1.59-.5a.63.63,0,0,1,.54.62c0,.6-1.28,1.13-2.31,1.09a2.52,2.52,0,0,1-2.49-2.77,2.49,2.49,0,1,1,5,0c0,.42-.21.61-.63.6Zm2.21-.84A1.1,1.1,0,0,0,56,38.25a1.12,1.12,0,0,0-1.14,1Z"/><path class="cls-8" d="M59.08,35.81a.7.7,0,1,1,1.38,0l-.23,5.93a.7.7,0,0,1-.72.74.69.69,0,0,1-.66-.8Z"/><path class="cls-8" d="M63.73,38.22a.7.7,0,0,1,.72-.74.67.67,0,0,1,.67.61,1.52,1.52,0,0,1,1.34-.59c1.49.06,2.18,1.48,2.13,2.83a2.46,2.46,0,0,1-2.38,2.52A2,2,0,0,1,65,42.32L64.89,44a.7.7,0,1,1-1.39,0Zm2.34,3.35c.73,0,1.11-.71,1.14-1.35s-.31-1.43-1-1.46-1.11.65-1.14,1.33S65.31,41.54,66.07,41.57Z"/><path class="cls-8" d="M69.24,38.36A.67.67,0,0,1,70,37.7c.36,0,.66.16.65.6h0a1.11,1.11,0,0,1,1-.54.68.68,0,0,1,.65.77c0,.45-.44.46-.86.64s-.85.34-.87.89l-.08,2.13a.7.7,0,1,1-1.39-.06Z"/><path class="cls-8" d="M77,40.6a2.49,2.49,0,1,1-5-.19,2.49,2.49,0,1,1,5,.19Zm-3.58-.14c0,.67.29,1.41,1,1.44s1.13-.69,1.15-1.35-.28-1.43-1-1.46S73.42,39.8,73.4,40.46Z"/><path class="cls-8" d="M81.06,39.61c-.35,0-.65-.29-1.09-.31-.79,0-1.19.66-1.22,1.37a1.28,1.28,0,0,0,1.11,1.44,6.94,6.94,0,0,0,1-.25.6.6,0,0,1,.57.63c0,.71-1.22.91-1.73.89a2.52,2.52,0,0,1-2.37-2.76A2.57,2.57,0,0,1,80,38c.55,0,1.69.27,1.66.94C81.6,39.26,81.38,39.63,81.06,39.61Z"/><path class="cls-8" d="M83.12,41.29a1.21,1.21,0,0,0,1.27,1.06c.71,0,1.23-.52,1.59-.5a.62.62,0,0,1,.55.62c0,.6-1.28,1.12-2.31,1.08a2.52,2.52,0,0,1-2.49-2.76,2.49,2.49,0,1,1,5,0c0,.41-.21.61-.63.59Zm2.21-.83a1.09,1.09,0,0,0-1.06-1.1,1.1,1.1,0,0,0-1.14,1Z"/><path class="cls-8" d="M90.15,40.05c-.26,0-.77-.44-1.22-.46-.25,0-.48.1-.49.37,0,.65,2.38.64,2.32,2.22a1.74,1.74,0,0,1-2,1.55c-.78,0-1.92-.52-1.89-1.14a.65.65,0,0,1,.62-.6c.54,0,.76.5,1.41.53.43,0,.56-.11.56-.37,0-.64-2.38-.63-2.32-2.22a1.7,1.7,0,0,1,1.94-1.55c.69,0,1.72.39,1.7,1.07A.62.62,0,0,1,90.15,40.05Z"/><path class="cls-8" d="M96.06,41.35a2.49,2.49,0,1,1-5-.2,2.49,2.49,0,1,1,5,.2Zm-3.58-.14c0,.66.29,1.41,1,1.43s1.13-.68,1.16-1.35-.29-1.42-1.05-1.45S92.51,40.54,92.48,41.21Z"/><rect class="cls-6" x="80.94" y="113.64" width="13.95" height="16.79" rx="3" transform="translate(-37.46 205.11) rotate(-87.76)"/><rect class="cls-6" x="99.96" y="114.38" width="13.95" height="16.79" rx="3" transform="translate(-19.93 224.83) rotate(-87.76)"/><rect class="cls-9" x="44.79" y="47.66" width="13.95" height="16.79" rx="3" transform="translate(-6.27 105.59) rotate(-87.76)"/><rect class="cls-10" x="64.44" y="48.43" width="13.95" height="16.79" rx="3" transform="matrix(0.04, -1, 1, 0.04, 11.84, 125.96)"/><rect class="cls-11" x="83.46" y="49.17" width="13.95" height="16.79" rx="3" transform="translate(29.38 145.68) rotate(-87.76)"/><rect class="cls-11" x="102.47" y="49.91" width="13.95" height="16.79" rx="3" transform="translate(46.91 165.4) rotate(-87.76)"/><rect class="cls-12" x="44.16" y="63.84" width="13.95" height="16.79" rx="3" transform="matrix(0.04, -1, 1, 0.04, -23.05, 120.51)"/><rect class="cls-9" x="63.8" y="64.61" width="13.95" height="16.79" rx="3" transform="translate(-4.93 140.88) rotate(-87.76)"/><rect class="cls-10" x="82.82" y="65.35" width="13.95" height="16.79" rx="3" transform="translate(12.6 160.6) rotate(-87.76)"/><rect class="cls-11" x="101.84" y="66.09" width="13.95" height="16.79" rx="3" transform="translate(30.14 180.31) rotate(-87.76)"/><rect class="cls-12" x="43.52" y="80.02" width="13.95" height="16.79" rx="3" transform="translate(-39.82 135.42) rotate(-87.76)"/><rect class="cls-12" x="63.17" y="80.79" width="13.95" height="16.79" rx="3" transform="translate(-21.71 155.79) rotate(-87.76)"/><rect class="cls-9" x="82.19" y="81.53" width="13.95" height="16.79" rx="3" transform="translate(-4.17 175.51) rotate(-87.76)"/><rect class="cls-10" x="101.21" y="82.27" width="13.95" height="16.79" rx="3" transform="translate(13.36 195.23) rotate(-87.76)"/><rect class="cls-12" x="42.89" y="96.2" width="13.95" height="16.79" rx="3" transform="translate(-56.6 150.34) rotate(-87.76)"/><rect class="cls-13" x="25.77" y="46.92" width="13.95" height="16.79" rx="3" transform="translate(-23.81 85.87) rotate(-87.76)"/><rect class="cls-13" x="25.14" y="63.1" width="13.95" height="16.79" rx="3" transform="translate(-40.58 100.79) rotate(-87.76)"/><rect class="cls-13" x="24.51" y="79.28" width="13.95" height="16.79" rx="3" transform="translate(-57.35 115.7) rotate(-87.76)"/><rect class="cls-13" x="23.87" y="95.46" width="13.95" height="16.79" rx="3" transform="translate(-74.13 130.62) rotate(-87.76)"/><rect class="cls-12" x="62.54" y="96.97" width="13.95" height="16.79" rx="3" transform="translate(-38.48 170.71) rotate(-87.76)"/><rect class="cls-12" x="81.56" y="97.71" width="13.95" height="16.79" rx="3" transform="translate(-20.95 190.43) rotate(-87.76)"/><rect class="cls-9" x="100.58" y="98.45" width="13.95" height="16.79" rx="3" transform="translate(-3.41 210.15) rotate(-87.76)"/><path class="cls-8" d="M32.51,53.23l-.57,0a.62.62,0,0,1-.63-.69.65.65,0,0,1,.68-.64l1.37.06a.62.62,0,0,1,.61.71l-.21,5.47a.72.72,0,1,1-1.44-.06Z"/><path class="cls-8" d="M33.6,73.74c.42,0,.74.22.73.66a.62.62,0,0,1-.72.61l-3.21-.12c-.43,0-.75-.23-.73-.67a.82.82,0,0,1,.24-.48A37.23,37.23,0,0,0,32.42,71a1.62,1.62,0,0,0,.37-.88.71.71,0,0,0-.66-.77c-1.11,0-.64,1.53-1.57,1.5a.66.66,0,0,1-.67-.73A2.27,2.27,0,0,1,32.24,68a2,2,0,0,1,2,2.09c0,1.33-1.59,2.6-2.45,3.6Z"/><path class="cls-8" d="M33.44,86a1.67,1.67,0,0,1-.85,1.44,1.92,1.92,0,0,1,1.11,1.77,2.3,2.3,0,0,1-2.51,2A2.19,2.19,0,0,1,29,89.34a.73.73,0,0,1,.77-.62c.65,0,.46,1.15,1.54,1.19a.89.89,0,0,0,.94-.86c.06-1.35-1.62-.42-1.57-1.55s1.37-.28,1.42-1.34a.65.65,0,0,0-.67-.68c-.92,0-.83.92-1.48.89a.67.67,0,0,1-.6-.74c0-.75,1.09-1.51,2.16-1.47A1.9,1.9,0,0,1,33.44,86Z"/><path class="cls-8" d="M28.83,105.72a.6.6,0,0,1-.65-.59.76.76,0,0,1,.15-.42l2.31-3.82a1,1,0,0,1,1-.52,1.09,1.09,0,0,1,1.06,1.27l-.11,3h.16a.63.63,0,0,1,.65.66.62.62,0,0,1-.7.61h-.16l0,.81c0,.51-.24.75-.73.73s-.68-.27-.66-.78l0-.82Zm2.48-3.86h0l-1.41,2.63,1.32.05Z"/><path class="cls-8" d="M48.34,117.64a1.13,1.13,0,0,1,1.06-.76,1.09,1.09,0,0,1,1,.84L52.08,123a.94.94,0,0,1,.06.36.64.64,0,0,1-.68.61.69.69,0,0,1-.69-.53l-.25-.92-2.67-.1-.33.88a.65.65,0,0,1-.71.48.69.69,0,0,1-.69-.7.87.87,0,0,1,.08-.31Zm0,3.5,1.83.07-.79-2.83h0Z"/><path class="cls-8" d="M66.67,118.39a.7.7,0,0,1,.79-.69l1.85.07a1.71,1.71,0,0,1,1.74,1.77,1.45,1.45,0,0,1-1,1.38v0a1.67,1.67,0,0,1,1.4,1.69,2,2,0,0,1-2.32,2l-2-.08a.71.71,0,0,1-.74-.76Zm1.25,4.92,1.14,0a.82.82,0,0,0,.94-.8c0-.45-.32-.77-1-.8l-1,0Zm.12-2.87.75,0a.7.7,0,0,0,.8-.73.69.69,0,0,0-.75-.71l-.75,0Z"/><path class="cls-8" d="M88.58,118.41c.71,0,2.06.31,2,1.16a.6.6,0,0,1-.62.62c-.4,0-.65-.36-1.46-.39-1.19,0-1.85.94-1.89,2.11a1.89,1.89,0,0,0,1.72,2.2c.81,0,1.15-.36,1.55-.35a.69.69,0,0,1,.61.68c0,.93-1.5,1.08-2.21,1a3.55,3.55,0,0,1,.27-7.08Z"/><path class="cls-8" d="M104.26,119.88a.71.71,0,0,1,.77-.71l1.6.06a3.2,3.2,0,0,1,3.25,3.66,3.12,3.12,0,0,1-3.43,3.2l-1.67-.07a.7.7,0,0,1-.73-.75Zm1.25,4.84,1,0c1.24,0,1.84-.85,1.89-2s-.5-2.15-1.82-2.2l-.88,0Z"/></g></g></g></svg>