<svg xmlns="http://www.w3.org/2000/svg" viewBox="0 0 740.84 345.56"><defs><style>.cls-1{fill:#eadf1b;}.cls-2{fill:#eda719;}.cls-3{fill:#df244b;}.cls-4{fill:#7dba43;}.cls-5{fill:#d3e5da;}.cls-6{fill:#e3e5e8;}.cls-7{fill:#e3e5d3;}.cls-8{fill:#e5dfd3;}.cls-9{fill:#e5d3d3;}.cls-10,.cls-11,.cls-12,.cls-13{fill:none;stroke-miterlimit:10;stroke-width:2px;}.cls-10{stroke:#7dba43;}.cls-11{stroke:#df244b;}.cls-12{stroke:#eadf1b;}.cls-13{stroke:#eda719;}</style></defs><g id="Capa_2" data-name="Capa 2"><g id="Capa_1-2" data-name="Capa 1"><rect class="cls-1" x="158.86" width="82.02" height="20.27" rx="3"/><rect class="cls-1" x="244.13" width="82.02" height="20.27" rx="3"/><rect class="cls-2" x="329.41" width="82.02" height="20.27" rx="3"/><rect class="cls-3" x="414.69" width="82.02" height="20.27" rx="3"/><rect class="cls-3" x="499.96" width="82.02" height="20.27" rx="3"/><rect class="cls-4" x="158.86" y="23.53" width="82.02" height="20.27" rx="3"/><rect class="cls-1" x="244.13" y="23.53" width="82.02" height="20.27" rx="3"/><rect class="cls-2" x="329.41" y="23.53" width="82.02" height="20.27" rx="3"/><rect class="cls-3" x="414.69" y="23.53" width="82.02" height="20.27" rx="3"/><rect class="cls-3" x="499.96" y="23.53" width="82.02" height="20.27" rx="3"/><rect class="cls-4" x="158.86" y="47.05" width="82.02" height="20.27" rx="3"/><rect class="cls-1" x="244.13" y="47.05" width="82.02" height="20.27" rx="3"/><rect class="cls-1" x="329.41" y="47.05" width="82.02" height="20.27" rx="3"/><rect class="cls-2" x="414.69" y="47.05" width="82.02" height="20.27" rx="3"/><rect class="cls-3" x="499.96" y="47.05" width="82.02" height="20.27" rx="3"/><rect class="cls-4" x="158.86" y="70.58" width="82.02" height="20.27" rx="3"/><rect class="cls-4" x="244.13" y="70.58" width="82.02" height="20.27" rx="3"/><rect class="cls-1" x="329.41" y="70.58" width="82.02" height="20.27" rx="3"/><rect class="cls-2" x="414.69" y="70.58" width="82.02" height="20.27" rx="3"/><rect class="cls-3" x="499.96" y="70.58" width="82.02" height="20.27" rx="3"/><rect class="cls-4" x="158.86" y="94.1" width="82.02" height="20.27" rx="3"/><rect class="cls-4" x="244.13" y="94.1" width="82.02" height="20.27" rx="3"/><rect class="cls-4" x="329.41" y="94.1" width="82.02" height="20.27" rx="3"/><rect class="cls-1" x="414.69" y="94.1" width="82.02" height="20.27" rx="3"/><rect class="cls-2" x="499.96" y="94.1" width="82.02" height="20.27" rx="3"/><path class="cls-5" d="M152.59,195.22c0,2.09-28.2,3.79-63,3.79s-63-1.7-63-3.79,28.2-3.78,63-3.78,63,1.69,63,3.78"/><rect class="cls-4" y="156.9" width="179.21" height="37.88" rx="10.09"/><rect class="cls-6" y="202.37" width="179.21" height="143.19" rx="10.09"/><path class="cls-7" d="M339.8,195.22c0,2.09-28.2,3.79-63,3.79s-63-1.7-63-3.79,28.21-3.78,63-3.78,63,1.69,63,3.78"/><rect class="cls-1" x="187.21" y="156.9" width="179.21" height="37.88" rx="10.09"/><rect class="cls-6" x="187.21" y="202.37" width="179.21" height="143.19" rx="10.09"/><path class="cls-8" d="M527,195.22c0,2.09-28.2,3.79-63,3.79s-63-1.7-63-3.79,28.2-3.78,63-3.78,63,1.69,63,3.78"/><rect class="cls-2" x="374.42" y="156.9" width="179.21" height="37.88" rx="10.09"/><rect class="cls-6" x="374.42" y="202.37" width="179.21" height="143.19" rx="10.09"/><path class="cls-9" d="M714.22,195.22c0,2.09-28.2,3.79-63,3.79s-63-1.7-63-3.79,28.2-3.78,63-3.78,63,1.69,63,3.78"/><rect class="cls-3" x="561.62" y="156.9" width="179.21" height="37.88" rx="10.09"/><rect class="cls-6" x="561.62" y="202.37" width="179.21" height="143.19" rx="10.09"/><polyline class="cls-10" points="89.61 156.9 89.61 104.24 158.86 104.24"/><polyline class="cls-11" points="651.55 156.9 651.55 80.71 582.3 80.71"/><polyline class="cls-12" points="455.69 114.37 455.69 135.64 276.81 135.64 276.81 156.9"/><polyline class="cls-13" points="540.97 114.37 540.97 135.64 464.02 135.64 464.02 156.9"/></g></g></svg>