<svg xmlns="http://www.w3.org/2000/svg" viewBox="0 0 51.79 46.39"><defs><style>.cls-1{fill:#c9f3ff;}.cls-2{fill:#72d9ff;}.cls-3{fill:#a1e457;}.cls-4{fill:#354e72;}</style></defs><g id="Capa_2" data-name="Capa 2"><g id="Capa_1-2" data-name="Capa 1"><path class="cls-1" d="M25.23,7.29a2.17,2.17,0,0,0-2.18,2.18h0v34a2.17,2.17,0,0,0,2.18,2.18H48.85A2.18,2.18,0,0,0,51,43.45V14.74h-7.1V7.29Z"/><path class="cls-2" d="M43.93,14.74H51l-7.1-7.45Z"/><path class="cls-1" d="M2.94.76A2.19,2.19,0,0,0,.76,2.94v34a2.19,2.19,0,0,0,2.18,2.18H26.56a2.19,2.19,0,0,0,2.19-2.18V8.22h-7.1V.76Z"/><path class="cls-2" d="M21.65,8.22h7.1L21.65.76Z"/><path class="cls-2" d="M36.13,29.39l3.8-2.93-3.8-2.94-3.79-2.93v4H23.05v3.8h9.29v4Z"/><path class="cls-3" d="M15.66,17l-3.8,2.93,3.8,2.94,3.79,2.93v-4h9.3V18h-9.3v-4Z"/><path class="cls-4" d="M34.84,6.52H28.19s-6-6.29-6-6.29A.83.83,0,0,0,21.65,0H2.94A2.94,2.94,0,0,0,0,2.94v34a2.94,2.94,0,0,0,2.94,2.94h3a.76.76,0,0,0,0-1.52h-3a1.42,1.42,0,0,1-1.41-1.42v-34A1.41,1.41,0,0,1,2.94,1.53h18V8.22a.76.76,0,0,0,.76.76H28v8.29H20.22v-3.2a.78.78,0,0,0-.78-.76.73.73,0,0,0-.45.16L11.4,19.33a.76.76,0,0,0-.14,1.07.62.62,0,0,0,.14.14L19,26.41a.77.77,0,0,0,1.07-.15.85.85,0,0,0,.16-.46V22.6H28v1.19H23.05a.77.77,0,0,0-.76.77v3.8a.76.76,0,0,0,.76.76H28v7.81a1.43,1.43,0,0,1-1.42,1.42H16.09a.76.76,0,1,0,0,1.52h6.2v3.58a2.93,2.93,0,0,0,2.94,2.94H48.85a2.94,2.94,0,0,0,2.94-2.94V14.74a.76.76,0,0,0-.23-.55c-7.59-8-7.05-7.43-7.18-7.53a.88.88,0,0,0-.44-.14h-6.1a.77.77,0,1,0,0,1.53h5.33v6.69a.76.76,0,0,0,.76.76h6.34v28a1.43,1.43,0,0,1-1.42,1.42H25.23a1.43,1.43,0,0,1-1.42-1.42V39.87h2.75a3,3,0,0,0,3-2.94V29.12h2.07v3.2A.76.76,0,0,0,32,33a.79.79,0,0,0,.8-.08l7.59-5.87A.78.78,0,0,0,40.53,26a.8.8,0,0,0-.13-.13L32.81,20a.76.76,0,0,0-1.07.13.74.74,0,0,0-.16.47v3.2H29.51c0-3.79,0-11.86,0-15.74h5.35a.77.77,0,0,0,0-1.53Zm-12.43.93V2.67L27,7.45ZM44.7,14V9.2L49.25,14Zm-25.25,7.1a.76.76,0,0,0-.76.76h0v2.41l-5.58-4.32,5.58-4.31V18a.77.77,0,0,0,.76.77H28v2.28Zm12.89,4.24a.76.76,0,0,0,.76-.76h0V22.14l5.59,4.31L33.1,30.77V28.36a.76.76,0,0,0-.76-.76H23.81V25.32Z"/><path class="cls-4" d="M13.09,39.87a.76.76,0,1,0,0-1.52H8.92a.76.76,0,0,0,0,1.52h4.17Z"/><path class="cls-4" d="M46.29,21.35a.76.76,0,0,0,0-1.52H39.13a.76.76,0,1,0,0,1.52Z"/><path class="cls-4" d="M46.29,27.22a.76.76,0,0,0,0-1.52H42.71a.76.76,0,0,0,0,1.52Z"/><path class="cls-4" d="M46.29,33.09a.77.77,0,0,0,0-1.53H39.13a.77.77,0,0,0,0,1.53Z"/><path class="cls-4" d="M12.66,14.83a.76.76,0,0,0,0-1.52H5.5a.76.76,0,0,0,0,1.52Z"/><path class="cls-4" d="M9.08,20.7a.77.77,0,0,0,0-1.53H5.5a.77.77,0,0,0,0,1.53Z"/><path class="cls-4" d="M12.66,26.57a.77.77,0,0,0,.76-.77.76.76,0,0,0-.76-.76H5.5a.76.76,0,0,0-.76.76.77.77,0,0,0,.76.77Z"/></g></g></svg>