<svg xmlns="http://www.w3.org/2000/svg" viewBox="0 0 40.79 47.55"><defs><style>.cls-1{fill:#ffcbbe;}.cls-2{fill:#eaac9d;}.cls-3{fill:#dd636e;}.cls-4{fill:#da4a54;}.cls-5{fill:#354e72;}.cls-6{fill:#fff;}</style></defs><g id="Capa_2" data-name="Capa 2"><g id="Capa_1-2" data-name="Capa 1"><path class="cls-1" d="M6.18,26.41l-4,11.38L.7,39.27l6.5,6.51,8.73-8.73,6.4-11.43L11.52,23.39a4.67,4.67,0,0,0-5.34,3Z"/><path class="cls-2" d="M12.26,34.59l.26.26,6.69-6.69L17,26,12.26,30.7A2.74,2.74,0,0,0,12.26,34.59Z"/><ellipse class="cls-3" cx="25" cy="15.79" rx="14.65" ry="15.52" transform="translate(-3.84 22.3) rotate(-45)"/><path class="cls-4" d="M27.66,30.77a15.8,15.8,0,0,1-13-4.62C8.59,20.08,8.31,10.53,14,4.81a14.34,14.34,0,0,1,11.9-4,14,14,0,0,0-8.32,4c-5.72,5.72-5.44,15.27.62,21.34A16,16,0,0,0,27.66,30.77Z"/><path class="cls-1" d="M22.25,24,3.84,42.42l4.44,4.44,2.43-2.43,2.21,0A8.22,8.22,0,0,0,21.26,37l.23-2.38L27.18,29A3.49,3.49,0,0,0,22.25,24Z"/><path class="cls-2" d="M19.9,33.24A10.6,10.6,0,0,1,9.14,42.85L6.71,45.28l1.57,1.58,2.43-2.43,2.21,0A8.22,8.22,0,0,0,21.26,37l.23-2.38L27.18,29a3.49,3.49,0,0,0,0-4.93,3.51,3.51,0,0,0-.91-.66,3.51,3.51,0,0,1-.66,4l-5.69,5.69Z"/><path class="cls-5" d="M15,22.09h-.09a.77.77,0,0,1-.55-.35C11.1,16.46,11.91,9.86,16.26,6a11.39,11.39,0,0,1,7.09-2.81,12.86,12.86,0,0,1,7.47,2.05.74.74,0,0,1,.12,1.15L15.5,21.88A.73.73,0,0,1,15,22.09ZM23.88,4.7a10,10,0,0,0-6.64,2.46,10.68,10.68,0,0,0-2.1,13L29.21,6.06A11.35,11.35,0,0,0,23.88,4.7Z"/><path class="cls-5" d="M40.79,16.2A16.62,16.62,0,0,0,35.86,4.94,16.58,16.58,0,0,0,24.59,0,14.74,14.74,0,0,0,9.26,13.79a16.29,16.29,0,0,0,1.92,8.84,5.38,5.38,0,0,0-5.65,3.55l-.82,2.31a.69.69,0,0,0,.43.89.59.59,0,0,0,.23,0A.7.7,0,0,0,6,29l.81-2.31a4,4,0,0,1,4.54-2.58l.77.16a16.47,16.47,0,0,0,2,2.41,17,17,0,0,0,2.45,2l-2.84,2.84a.69.69,0,0,0,0,1,.71.71,0,0,0,1,0L20.23,27l1.14-1.14,1.37-1.37a2.79,2.79,0,0,1,4.76,2v.08a2.76,2.76,0,0,1-.55,1.6l-.26.3L21,34.15a.62.62,0,0,0-.2.42L20.57,37a7.52,7.52,0,0,1-7.64,6.82l-2.21,0a.67.67,0,0,0-.5.21L8.28,45.87l-6.6-6.6,1-1A.65.65,0,0,0,2.84,38L5.1,31.58a.69.69,0,1,0-1.31-.46L1.58,37.41.2,38.78a.71.71,0,0,0,0,1l7.59,7.58a.7.7,0,0,0,1,0L11,45.13l1.92,0A8.93,8.93,0,0,0,22,37.08l.2-2.12,3.38-3.39h.36A14.77,14.77,0,0,0,40.79,16.2ZM27.67,23.53a4.16,4.16,0,0,0-5.91,0L20,25.24a12.43,12.43,0,0,1-2-1.39L32.87,9.05c3.92,4.72,3.68,11.49-.6,15.24a9.43,9.43,0,0,1-3.38,1.92A4.14,4.14,0,0,0,27.67,23.53Zm7.82,2.74A13.3,13.3,0,0,1,27,30.14l.7-.7a4.08,4.08,0,0,0,1-1.6,11.29,11.29,0,0,0,4.58-2.43c5-4.36,5.2-12.25.52-17.59l-.33-.36a.77.77,0,0,0-.53-.24.79.79,0,0,0-.54.22L16.47,23.35a.75.75,0,0,0,0,1.06A13.84,13.84,0,0,0,19,26.33l-1.34,1.34a16.39,16.39,0,0,1-2.47-2,16,16,0,0,1-2-2.43,15.06,15.06,0,0,1-2.5-9.33A13.35,13.35,0,0,1,24.55,1.4,15.48,15.48,0,0,1,39.39,16.24,13.42,13.42,0,0,1,35.49,26.27Z"/><path class="cls-6" d="M23.88,4.7a10,10,0,0,0-6.64,2.46,10.68,10.68,0,0,0-2.1,13L29.21,6.06A11.35,11.35,0,0,0,23.88,4.7Z"/><path class="cls-6" d="M27.67,23.53a4.16,4.16,0,0,0-5.91,0L20,25.24a12.43,12.43,0,0,1-2-1.39L32.87,9.05c3.92,4.72,3.68,11.49-.6,15.24a9.43,9.43,0,0,1-3.38,1.92A4.14,4.14,0,0,0,27.67,23.53Z"/></g></g></svg>