<svg xmlns="http://www.w3.org/2000/svg" viewBox="0 0 39.19 50.83"><defs><style>.cls-1{fill:#63d3b0;}.cls-2{fill:#24a073;}.cls-3{fill:#354e72;}</style></defs><g id="Capa_2" data-name="Capa 2"><g id="Capa_1-2" data-name="Capa 1"><path class="cls-1" d="M37.58,31.16a.8.8,0,0,1,.56,1.38l-18,17.27a.78.78,0,0,1-1.1,0l-18-17.27a.8.8,0,0,1,.56-1.38h5.2a.8.8,0,0,0,.8-.8V1.6a.8.8,0,0,1,.8-.8H30.78a.8.8,0,0,1,.8.8V30.36a.8.8,0,0,0,.8.8Z"/><path class="cls-2" d="M38.14,32.54l-18,17.27a.78.78,0,0,1-1.1,0l-.93-.89L33.75,34.36a.63.63,0,0,0-.44-1.08H29.22a.63.63,0,0,1-.62-.63V.8h2.18a.8.8,0,0,1,.8.8V30.36a.8.8,0,0,0,.8.8h5.2A.8.8,0,0,1,38.14,32.54Z"/><path class="cls-3" d="M39.07,31.37a1.61,1.61,0,0,0-1.49-1h-5.2V1.6A1.6,1.6,0,0,0,30.78,0H8.41a1.6,1.6,0,0,0-1.6,1.6V19.18a.8.8,0,0,0,1.6,0V1.6H30.78V30.36a1.6,1.6,0,0,0,1.6,1.6h5.21l-18,17.28L1.61,32h5.2a1.6,1.6,0,0,0,1.6-1.6V23.17a.8.8,0,1,0-1.6,0v7.19H1.61A1.61,1.61,0,0,0,.49,33.12l18,17.27a1.63,1.63,0,0,0,1.12.44,1.54,1.54,0,0,0,1.1-.44l18-17.27A1.61,1.61,0,0,0,39.07,31.37Z"/></g></g></svg>