<svg xmlns="http://www.w3.org/2000/svg" viewBox="0 0 47.18 47.55"><defs><style>.cls-1{fill:#ffcbbe;}.cls-2{fill:#eaac9d;}.cls-3{fill:#dd636e;}.cls-4{fill:#da4a54;}.cls-5{fill:#80cb8e;}.cls-6{fill:#6ec17d;}.cls-7{fill:#354e72;}</style></defs><g id="Capa_2" data-name="Capa 2"><g id="Capa_1-2" data-name="Capa 1"><path class="cls-1" d="M16.73,41.12A11.26,11.26,0,0,0,18.32,44h0a7.08,7.08,0,0,0,5.87,2.84h7.72c6.34,0,9.91-6.48,9.91-12.06V28.91a2.62,2.62,0,0,0-.75-1.83,2.6,2.6,0,0,0-4.43,1.83V26.15a2.6,2.6,0,0,0-5.19,0v-.26a2.6,2.6,0,1,0-5.19,0V16.38a2.59,2.59,0,0,0-5.18,0V30.3A8.82,8.82,0,0,0,20,27.63a3,3,0,0,0-5.18,2.87c.76,1.37.76,4.44.76,4.48a19.83,19.83,0,0,0,1.19,6.18Z"/><path class="cls-2" d="M34.25,45.62a8.48,8.48,0,0,0,2.8-.46,8.44,8.44,0,0,1-5.14,1.7H24.19a7.33,7.33,0,0,1-3.48-.81,7.25,7.25,0,0,1-2.39-2,11.26,11.26,0,0,1-1.59-2.9A19.78,19.78,0,0,1,15.55,35s0-3.11-.76-4.48a3,3,0,0,1,2.52-4.39,2.93,2.93,0,0,0-.18,3.16c.76,1.37.76,4.43.76,4.47a19.4,19.4,0,0,0,1.18,6.14,11.06,11.06,0,0,0,1.58,2.9,7.09,7.09,0,0,0,5.88,2.84Z"/><path class="cls-2" d="M32.31,30.5a.86.86,0,0,0,.87-.86V26.15a2.59,2.59,0,0,1,1.73-2.45,2.74,2.74,0,0,0-.87-.14,2.59,2.59,0,0,0-2.59,2.59v3.49a.86.86,0,0,0,.86.86Z"/><path class="cls-2" d="M37.5,29.78a.86.86,0,0,0,.86-.87h0a2.59,2.59,0,0,1,1.73-2.44,2.47,2.47,0,0,0-.86-.15,2.59,2.59,0,0,0-2.59,2.59h0a.86.86,0,0,0,.86.87Z"/><path class="cls-2" d="M21.94,35.39a.85.85,0,0,0,.86-.86V16.38a2.59,2.59,0,0,1,1.73-2.44,2.47,2.47,0,0,0-.86-.15,2.59,2.59,0,0,0-2.59,2.59V34.53a.85.85,0,0,0,.86.86Z"/><path class="cls-2" d="M27.13,30.24a.86.86,0,0,0,.86-.86V25.89a2.59,2.59,0,0,1,1.73-2.45,2.72,2.72,0,0,0-.86-.15,2.59,2.59,0,0,0-2.6,2.6v3.49a.86.86,0,0,0,.87.86Z"/><circle class="cls-3" cx="9.76" cy="9.76" r="9.06"/><path class="cls-4" d="M10.94,18.74a9.23,9.23,0,0,1-1.18.07A9.06,9.06,0,1,1,9.76.7a9.23,9.23,0,0,1,1.18.07,9.06,9.06,0,0,0,0,18Z"/><circle class="cls-5" cx="37.43" cy="9.76" r="9.06"/><path class="cls-6" d="M38.61,18.74a9.23,9.23,0,0,1-1.18.07A9.06,9.06,0,1,1,37.43.7a9.23,9.23,0,0,1,1.18.07,9.06,9.06,0,0,0,0,18Z"/><path class="cls-7" d="M39.23,25.62a3.31,3.31,0,0,0-1.9.61v-.08a3.29,3.29,0,0,0-5.61-2.33l-.17.18a3.08,3.08,0,0,0-.37-.44A3.29,3.29,0,0,0,27,23.2V16.38a3.3,3.3,0,0,0-3.29-3.29,3.26,3.26,0,0,0-2.32,1,3.22,3.22,0,0,0-1,2.32V27a3.66,3.66,0,0,0-6.2,3.86A11.5,11.5,0,0,1,14.86,35a20.27,20.27,0,0,0,1.22,6.39,11.91,11.91,0,0,0,1.69,3.08,8.22,8.22,0,0,0,2.62,2.22,8.06,8.06,0,0,0,3.8.88h7.72c6.16,0,10-5.68,10.54-11.29a.7.7,0,0,0-.63-.76.69.69,0,0,0-.76.62c-.51,5-3.82,10-9.15,10H24.19a6.35,6.35,0,0,1-5.32-2.57,10.2,10.2,0,0,1-1.49-2.72A19.08,19.08,0,0,1,16.25,35c0-.34,0-3.33-.85-4.82a2.26,2.26,0,0,1,4-2.19,9,9,0,0,1,1,2.39V35a.7.7,0,0,0,1.39,0V16.38a1.9,1.9,0,0,1,3.79,0V29.93a.7.7,0,1,0,1.39,0v-4a1.9,1.9,0,0,1,1.9-1.9,1.91,1.91,0,0,1,1.9,1.9v3.2a.7.7,0,0,0,1.4,0V26.16h0a1.9,1.9,0,1,1,3.79,0v2.76a.7.7,0,0,0,.7.7.68.68,0,0,0,.66-.49.66.66,0,0,0,0-.21,1.9,1.9,0,0,1,3.8,0v4.5a.7.7,0,0,0,1.39,0v-4.5a3.29,3.29,0,0,0-3.29-3.29Z"/><path class="cls-7" d="M13.73,17.93a.69.69,0,0,0-.9-.39,8.37,8.37,0,1,1,5.29-7.78A8.33,8.33,0,0,1,15,16.24a.7.7,0,0,0-.1,1,.71.71,0,0,0,1,.1,9.75,9.75,0,1,0-2.58,1.51.69.69,0,0,0,.39-.9Z"/><path class="cls-7" d="M13.77,5.74a.69.69,0,0,0-1,0l-3,3-3-3a.69.69,0,0,0-1,1l3,3-3,3a.69.69,0,0,0,0,1,.68.68,0,0,0,1,0l3-3,3,3a.68.68,0,0,0,1,0,.68.68,0,0,0,0-1l-3-3,3-3a.68.68,0,0,0,0-1Z"/><path class="cls-7" d="M37.43,0a9.76,9.76,0,1,0,9.75,9.76A9.77,9.77,0,0,0,37.43,0Zm0,18.12a8.37,8.37,0,1,1,8.36-8.36A8.37,8.37,0,0,1,37.43,18.12Z"/><path class="cls-7" d="M41.67,4.74a.71.71,0,0,0-.94.31l-3.9,7.8-3-3a.69.69,0,0,0-1,1l3.66,3.66a.67.67,0,0,0,.49.21h.11a.73.73,0,0,0,.52-.38L42,5.67a.7.7,0,0,0-.31-.93Z"/></g></g></svg>