<svg xmlns="http://www.w3.org/2000/svg" xmlns:xlink="http://www.w3.org/1999/xlink" viewBox="0 0 146.69 237.64"><defs><style>.cls-1{isolation:isolate;}.cls-2{mix-blend-mode:multiply;}.cls-3{fill:#fff;opacity:0;}.cls-4{fill:#f9f9f9;opacity:0.05;}.cls-5{fill:#f3f3f3;opacity:0.1;}.cls-6{fill:#ededee;opacity:0.14;}.cls-7{fill:#e7e7e8;opacity:0.19;}.cls-8{fill:#e1e1e2;opacity:0.24;}.cls-9{fill:#dbdbdc;opacity:0.29;}.cls-10{fill:#d5d5d6;opacity:0.33;}.cls-11{fill:#cfcfd1;opacity:0.38;}.cls-12{fill:#c9c9cb;opacity:0.43;}.cls-13{fill:#c3c3c5;opacity:0.48;}.cls-14{fill:#bcbebf;opacity:0.52;}.cls-15{fill:#b6b8b9;opacity:0.57;}.cls-16{fill:#b0b2b3;opacity:0.62;}.cls-17{fill:#aaacae;opacity:0.67;}.cls-18{fill:#a4a6a8;opacity:0.71;}.cls-19{fill:#9ea0a2;opacity:0.76;}.cls-20{fill:#989a9c;opacity:0.81;}.cls-21{fill:#929496;opacity:0.86;}.cls-22{fill:#8c8e91;opacity:0.9;}.cls-23{fill:#86888b;opacity:0.95;}.Graphic-Style{fill:#808285;}.cls-24{fill:url(#linear-gradient);}.cls-25{fill:url(#linear-gradient-2);}.cls-26{fill:url(#Degradado_sin_nombre_6);}.cls-27{fill:url(#linear-gradient-3);}.cls-28{fill:#7dba43;}.cls-29{fill:#eadf1b;}.cls-30{fill:#eda719;}.cls-31{fill:#df244b;}.cls-32{fill:none;stroke:#808285;stroke-linecap:round;stroke-miterlimit:10;stroke-width:1.3px;stroke-dasharray:5;}.cls-33{fill:#354e72;}</style><linearGradient id="linear-gradient" x1="50.4" y1="113.64" x2="136.32" y2="113.64" gradientUnits="userSpaceOnUse"><stop offset="0" stop-color="#fff"/><stop offset="1" stop-color="#d1d3d4"/></linearGradient><linearGradient id="linear-gradient-2" x1="51.79" y1="113.64" x2="134.94" y2="113.64" gradientUnits="userSpaceOnUse"><stop offset="0" stop-color="#d1d3d4"/><stop offset="1" stop-color="#fff"/></linearGradient><linearGradient id="Degradado_sin_nombre_6" x1="62.18" y1="113.64" x2="124.54" y2="113.64" xlink:href="#linear-gradient"/><linearGradient id="linear-gradient-3" x1="63.57" y1="113.64" x2="123.16" y2="113.64" gradientUnits="userSpaceOnUse"><stop offset="0" stop-color="#dd1e47"/><stop offset="1" stop-color="#e24263"/></linearGradient></defs><g class="cls-1"><g id="Capa_2" data-name="Capa 2"><g id="Capa_1-2" data-name="Capa 1"><g class="cls-2"><path class="cls-3" d="M103.73,237.64a43,43,0,0,1-25-77.94V35.31a24.95,24.95,0,1,1,49.89,0V159.7a43,43,0,0,1-24.94,77.94Z"/><path class="cls-4" d="M78.3,34.82a24.93,24.93,0,1,1,49.86,0V159.21l.12.09a42.94,42.94,0,1,1-50-.09Z"/><path class="cls-5" d="M77.82,34.32a24.92,24.92,0,0,1,49.84,0V158.73l.12.08a42.93,42.93,0,1,1-50-.08Z"/><path class="cls-6" d="M77.34,33.83a24.91,24.91,0,1,1,49.81,0V158.24l.12.08a42.93,42.93,0,1,1-49.93-.08Z"/><path class="cls-7" d="M76.86,33.34a24.89,24.89,0,1,1,49.78,0V157.75l.12.09a42.91,42.91,0,1,1-49.9-.09Z"/><path class="cls-8" d="M76.38,32.84a24.88,24.88,0,1,1,49.76,0V157.27l.11.08a42.9,42.9,0,1,1-49.87-.08Z"/><path class="cls-9" d="M75.9,32.35a24.87,24.87,0,1,1,49.73,0V156.78l.12.08a42.89,42.89,0,1,1-49.85-.08Z"/><path class="cls-10" d="M75.42,31.85a24.85,24.85,0,0,1,49.7,0V156.29l.12.09a42.87,42.87,0,1,1-49.82-.09Z"/><path class="cls-11" d="M74.94,31.36a24.84,24.84,0,0,1,49.68,0V155.81l.11.08a42.86,42.86,0,1,1-49.79-.08Z"/><path class="cls-12" d="M74.46,30.87a24.83,24.83,0,1,1,49.65,0V155.32l.12.08a42.85,42.85,0,1,1-49.77-.08Z"/><path class="cls-13" d="M74,30.37a24.81,24.81,0,1,1,49.62,0V154.83l.12.09A42.83,42.83,0,1,1,74,154.83Z"/><path class="cls-14" d="M73.5,29.88a24.8,24.8,0,1,1,49.6,0V154.35l.11.08a42.82,42.82,0,1,1-49.71-.08Z"/><path class="cls-15" d="M73,29.39a24.79,24.79,0,1,1,49.57,0V153.86l.12.08A42.81,42.81,0,1,1,73,153.86Z"/><path class="cls-16" d="M72.54,28.89a24.77,24.77,0,1,1,49.54,0V153.37l.12.09a42.79,42.79,0,1,1-49.66-.09Z"/><path class="cls-17" d="M72.06,28.4a24.76,24.76,0,0,1,49.52,0V152.89l.11.08a42.77,42.77,0,1,1-49.63-.09Z"/><path class="cls-18" d="M71.58,27.91a24.75,24.75,0,1,1,49.49,0V152.4l.12.08a42.77,42.77,0,1,1-49.61-.08Z"/><path class="cls-19" d="M71.1,27.41a24.73,24.73,0,0,1,49.46,0v124.5l.12.09a42.75,42.75,0,1,1-49.58-.09Z"/><path class="cls-20" d="M70.62,26.92a24.72,24.72,0,0,1,49.44,0v124.5l.11.09a42.73,42.73,0,1,1-49.55-.09Z"/><path class="cls-21" d="M70.14,26.43a24.71,24.71,0,1,1,49.41,0V150.94l.11.08a42.72,42.72,0,1,1-49.52-.08Z"/><path class="cls-22" d="M69.65,25.93a24.7,24.7,0,0,1,49.39,0V150.45l.12.08a42.71,42.71,0,1,1-49.5-.08Z"/><path class="cls-23" d="M69.17,25.44a24.69,24.69,0,0,1,49.37,0V150l.11.09A42.69,42.69,0,1,1,69.17,150Z"/><path class="Graphic-Style" d="M93.36,227a42.69,42.69,0,0,1-24.78-77.44l.11-.08V24.94a24.67,24.67,0,0,1,49.34,0V149.48l.11.08A42.69,42.69,0,0,1,93.36,227Z"/></g><path class="cls-24" d="M93.36,227.27a43,43,0,0,1-24.94-77.94V24.94a24.95,24.95,0,0,1,49.89,0v124.4a43,43,0,0,1-25,77.93Z"/><path class="cls-25" d="M93.36,225.89A41.58,41.58,0,0,1,69.8,150.06V24.94a23.56,23.56,0,0,1,47.12,0V150.06a41.57,41.57,0,0,1-23.56,75.83Z"/><g class="cls-2"><path class="cls-3" d="M100.26,222.39a31.18,31.18,0,0,1-17.67-56.87l4.51-3.1V31.85a13.17,13.17,0,1,1,26.33,0V162.42l4.5,3.1a31.18,31.18,0,0,1-17.67,56.87Z"/><path class="cls-4" d="M99.93,222.05A31.17,31.17,0,0,1,82.27,165.2l4.51-3.1V31.52a13.15,13.15,0,1,1,26.3,0V162.1l4.51,3.1a31.17,31.17,0,0,1-17.66,56.85Z"/><path class="cls-5" d="M99.6,221.71A31.16,31.16,0,0,1,82,164.88l4.52-3.1V31.19a13.14,13.14,0,1,1,26.27,0V161.78l4.52,3.1A31.16,31.16,0,0,1,99.6,221.71Z"/><path class="cls-6" d="M99.28,221.37a31.14,31.14,0,0,1-17.65-56.8l4.52-3.11V30.86a13.13,13.13,0,1,1,26.25,0v130.6l4.52,3.11a31.14,31.14,0,0,1-17.64,56.8Z"/><path class="cls-7" d="M99,221a31.13,31.13,0,0,1-17.64-56.78l4.52-3.12V30.53a13.12,13.12,0,0,1,26.23,0v130.6l4.52,3.12A31.13,31.13,0,0,1,99,221Z"/><path class="cls-8" d="M98.62,220.69A31.12,31.12,0,0,1,81,163.93l4.53-3.12V30.2a13.1,13.1,0,1,1,26.2,0V160.81l4.53,3.12a31.12,31.12,0,0,1-17.63,56.76Z"/><path class="cls-9" d="M98.29,220.34a31.1,31.1,0,0,1-17.62-56.73l4.53-3.12V29.87a13.09,13.09,0,0,1,26.18,0V160.49l4.53,3.12a31.1,31.1,0,0,1-17.62,56.73Z"/><path class="cls-10" d="M98,220a31.08,31.08,0,0,1-17.61-56.7l4.54-3.13V29.54a13.07,13.07,0,0,1,26.14,0V160.17l4.55,3.13A31.09,31.09,0,0,1,98,220Z"/><path class="cls-11" d="M97.63,219.66A31.07,31.07,0,0,1,80,163l4.54-3.13V29.22a13.06,13.06,0,0,1,26.12,0V159.85l4.55,3.13a31.07,31.07,0,0,1-17.61,56.68Z"/><path class="cls-12" d="M97.3,219.32a31.07,31.07,0,0,1-17.6-56.66l4.56-3.13V28.89a13,13,0,1,1,26.09,0V159.53l4.55,3.13a31.06,31.06,0,0,1-17.6,56.66Z"/><path class="cls-13" d="M97,219a31.06,31.06,0,0,1-17.6-56.64l4.56-3.14V28.56a13,13,0,0,1,26.07,0V159.2l4.56,3.14A31.06,31.06,0,0,1,97,219Z"/><path class="cls-14" d="M96.65,218.63A31,31,0,0,1,79.06,162l4.57-3.14V28.23a13,13,0,1,1,26,0V158.88l4.56,3.14a31,31,0,0,1-17.58,56.61Z"/><path class="cls-15" d="M96.32,218.29a31,31,0,0,1-17.58-56.58l4.57-3.15V27.9a13,13,0,0,1,26,0V158.56l4.57,3.15a31,31,0,0,1-17.58,56.58Z"/><path class="cls-16" d="M96,218a31,31,0,0,1-17.57-56.56L83,158.24V27.57a13,13,0,0,1,26,0V158.24l4.58,3.15A31,31,0,0,1,96,218Z"/><path class="cls-17" d="M95.66,217.61A31,31,0,0,1,78.1,161.07l4.58-3.15V27.24a13,13,0,0,1,26,0V157.92l4.58,3.15a31,31,0,0,1-17.56,56.54Z"/><path class="cls-18" d="M95.33,217.27a31,31,0,0,1-17.55-56.52l4.59-3.15V26.92a13,13,0,1,1,25.93,0V157.6l4.59,3.15a31,31,0,0,1-17.56,56.52Z"/><path class="cls-19" d="M95,216.93a31,31,0,0,1-17.54-56.49l4.59-3.16V26.59a13,13,0,1,1,25.91,0V157.28l4.59,3.16A31,31,0,0,1,95,216.93Z"/><path class="cls-20" d="M94.68,216.58a31,31,0,0,1-17.54-56.46L81.73,157V26.26a12.95,12.95,0,0,1,25.89,0V157l4.59,3.17a31,31,0,0,1-17.53,56.46Z"/><path class="cls-21" d="M94.35,216.24A30.94,30.94,0,0,1,76.82,159.8l4.6-3.17V25.93a12.93,12.93,0,1,1,25.85,0v130.7l4.61,3.17a30.94,30.94,0,0,1-17.53,56.44Z"/><path class="cls-22" d="M94,215.9a30.93,30.93,0,0,1-17.53-56.42l4.61-3.17V25.6a12.92,12.92,0,0,1,25.83,0V156.31l4.61,3.17A30.93,30.93,0,0,1,94,215.9Z"/><path class="cls-23" d="M93.69,215.56a30.92,30.92,0,0,1-17.52-56.39L80.79,156V25.27a12.9,12.9,0,0,1,25.8,0V156l4.62,3.18a30.92,30.92,0,0,1-17.52,56.39Z"/><path class="Graphic-Style" d="M93.36,215.22a30.91,30.91,0,0,1-17.51-56.37l4.62-3.18V24.94a12.89,12.89,0,0,1,25.78,0V155.67l4.62,3.18a30.91,30.91,0,0,1-17.51,56.37Z"/></g><path class="cls-26" d="M93.36,215.49a31.18,31.18,0,0,1-17.67-56.87l4.51-3.1V24.94a13.17,13.17,0,0,1,26.33,0V155.52l4.5,3.1a31.18,31.18,0,0,1-17.67,56.87Z"/><path class="Graphic-Style" d="M116.11,137.2H112a.7.7,0,0,1,0-1.39h4.16a.7.7,0,0,1,0,1.39Z"/><path class="Graphic-Style" d="M116.11,123.34H112a.7.7,0,0,1,0-1.39h4.16a.7.7,0,0,1,0,1.39Z"/><path class="Graphic-Style" d="M116.27,109.32h-4.15a.7.7,0,1,1,0-1.39h4.15a.7.7,0,1,1,0,1.39Z"/><path class="Graphic-Style" d="M116.11,95.62H112a.69.69,0,0,1,0-1.38h4.16a.69.69,0,1,1,0,1.38Z"/><path class="Graphic-Style" d="M116.11,81.76H112a.69.69,0,0,1,0-1.38h4.16a.69.69,0,1,1,0,1.38Z"/><path class="Graphic-Style" d="M116.11,67.9H112a.69.69,0,0,1,0-1.38h4.16a.69.69,0,1,1,0,1.38Z"/><path class="Graphic-Style" d="M116.11,54.05H112a.7.7,0,0,1,0-1.39h4.16a.7.7,0,0,1,0,1.39Z"/><path class="Graphic-Style" d="M116.11,40.19H112a.7.7,0,0,1,0-1.39h4.16a.7.7,0,0,1,0,1.39Z"/><path class="Graphic-Style" d="M116.11,26.33H112a.7.7,0,0,1,0-1.39h4.16a.7.7,0,0,1,0,1.39Z"/><path class="cls-27" d="M123.16,184.32a29.8,29.8,0,1,1-46.68-24.56l5.1-3.51V25a11.78,11.78,0,0,1,23.56,0v131.3l5.1,3.51A29.8,29.8,0,0,1,123.16,184.32Z"/><path class="cls-28" d="M123.16,184.32a29.8,29.8,0,1,1-46.68-24.56l5.1-3.51h23.56l5.1,3.51A29.8,29.8,0,0,1,123.16,184.32Z"/><rect class="cls-29" x="81.58" y="108.56" width="23.56" height="47.69"/><rect class="cls-30" x="81.58" y="60.86" width="23.56" height="47.7"/><path class="cls-31" d="M105.14,25V60.86H81.58V25a11.78,11.78,0,0,1,23.56,0Z"/><line class="cls-32" x1="107.37" y1="108.56" x2="0.65" y2="108.56"/><path class="cls-33" d="M10.58,213.41a1.3,1.3,0,0,1-1.41-1.35,1.67,1.67,0,0,1,.6-1.14l7.61-5.71v0h-6.8a1.35,1.35,0,1,1,0-2.7H20.81a1.28,1.28,0,0,1,1.4,1.35,1.72,1.72,0,0,1-.59,1.13l-7.53,5.71v0h6.72a1.35,1.35,0,1,1,0,2.7Z"/><path class="cls-33" d="M10,198.32a1.48,1.48,0,0,1,1.49,1.46A1.52,1.52,0,0,1,10,201.24a1.46,1.46,0,0,1,0-2.92Zm3.91,2.76a1.31,1.31,0,1,1,0-2.6h6.91a1.31,1.31,0,1,1,0,2.6Z"/><path class="cls-33" d="M14.43,197.64a2,2,0,0,1-.75.16,1.25,1.25,0,0,1-1.26-1.35,1.17,1.17,0,0,1,.91-1.15l5.12-1.66v0L13.33,192a1.18,1.18,0,0,1-.91-1.15,1.25,1.25,0,0,1,1.26-1.35,1.81,1.81,0,0,1,.75.16l6.7,2.61c.67.25,1.08.52,1.08,1.4s-.41,1.16-1.08,1.41Z"/><path class="cls-33" d="M18.18,186.64a2.24,2.24,0,0,0,1.87-2.45c0-1.33-1-2.25-1-2.93a1.15,1.15,0,0,1,1.11-1.07c1.12,0,2.2,2.31,2.2,4.24a4.73,4.73,0,0,1-5,4.86A4.66,4.66,0,1,1,17,180c.78,0,1.16.34,1.16,1.13Zm-1.73-4.07a2,2,0,0,0-2,2.07,2.08,2.08,0,0,0,2,2.05Z"/><path class="cls-33" d="M9.68,179.1a1.3,1.3,0,1,1,0-2.59H20.77a1.3,1.3,0,1,1,0,2.59Z"/><path class="cls-33" d="M36.52,204.51c.66,0,1.69,0,1.69,1.24,0,.76-.41,1.07-1.1,1.25a3.09,3.09,0,0,1,1.21,2.46c0,2.43-2.07,4.29-5,4.29s-5-1.91-5-4.29A3,3,0,0,1,29.5,207a1.24,1.24,0,0,1-1.08-1.25c0-1.24,1-1.24,1.69-1.24Zm-.58,4.59c0-1.35-1.37-2-2.61-2s-2.65.63-2.65,2,1.41,2.06,2.65,2.06S35.94,210.51,35.94,209.1Z"/><path class="cls-33" d="M31.19,196.59c0,.65-.51,1.23-.51,2.06,0,1.47,1.32,2.17,2.65,2.17a2.38,2.38,0,0,0,2.61-2.17,14,14,0,0,0-.54-1.93,1.14,1.14,0,0,1,1.14-1.12c1.33,0,1.78,2.24,1.78,3.17a4.72,4.72,0,0,1-5,4.65,4.82,4.82,0,0,1-5-4.65c0-1,.38-3.17,1.64-3.17C30.49,195.6,31.19,196,31.19,196.59Z"/><path class="cls-33" d="M34.18,192.62a2.24,2.24,0,0,0,1.87-2.45c0-1.33-1-2.25-1-2.94a1.14,1.14,0,0,1,1.11-1.06c1.12,0,2.2,2.3,2.2,4.23a4.72,4.72,0,0,1-5,4.86A4.66,4.66,0,1,1,33,186c.78,0,1.16.35,1.16,1.14Zm-1.73-4.07a2,2,0,0,0-2,2.07,2.09,2.09,0,0,0,2,2Z"/><path class="cls-33" d="M29.86,185a1.31,1.31,0,0,1-1.44-1.3,1.23,1.23,0,0,1,1.08-1.29A2.87,2.87,0,0,1,28.31,180c0-2.79,2.61-4.18,5.13-4.18s4.88,1.66,4.88,4.27a3.74,3.74,0,0,1-.9,2.38h3.17a1.3,1.3,0,1,1,0,2.59Zm6.08-4.63c0-1.35-1.4-2-2.61-2s-2.65.67-2.65,2,1.3,2,2.56,2S35.94,181.83,35.94,180.41Z"/><path class="cls-33" d="M30.79,174.08v.57a1.05,1.05,0,0,1-1.13,1.14,1.11,1.11,0,0,1-1.14-1.14v-.57H27a1.31,1.31,0,1,1,0-2.6h1.55v-.73a1.14,1.14,0,1,1,2.27,0v.73h6a1.31,1.31,0,1,1,0,2.6Z"/><path class="cls-33" d="M36.52,160.52c.66,0,1.69,0,1.69,1.24,0,.76-.41,1.07-1.1,1.25a3.09,3.09,0,0,1,1.21,2.46c0,2.43-2.07,4.29-5,4.29s-5-1.91-5-4.29A3,3,0,0,1,29.5,163a1.24,1.24,0,0,1-1.08-1.25c0-1.24,1-1.24,1.69-1.24Zm-.58,4.59c0-1.35-1.37-2-2.61-2s-2.65.63-2.65,2,1.41,2,2.65,2S35.94,166.52,35.94,165.11Z"/><path class="cls-33" d="M25.68,159.05a1.31,1.31,0,1,1,0-2.6h3.53a3.7,3.7,0,0,1-.9-2.46c0-2.79,2.61-4.18,5.13-4.18s4.88,1.66,4.88,4.27a2.81,2.81,0,0,1-1.19,2.37,1.25,1.25,0,0,1,1.08,1.3,1.31,1.31,0,0,1-1.44,1.3Zm10.26-4.63c0-1.35-1.4-2-2.61-2s-2.65.67-2.65,2,1.3,2,2.56,2S35.94,155.84,35.94,154.42Z"/><path class="cls-33" d="M25.68,148.75a1.3,1.3,0,1,1,0-2.59H36.77a1.3,1.3,0,1,1,0,2.59Z"/><path class="cls-33" d="M34.18,142.63a2.24,2.24,0,0,0,1.87-2.45c0-1.33-1-2.25-1-2.93a1.15,1.15,0,0,1,1.11-1.07c1.12,0,2.2,2.31,2.2,4.24a4.73,4.73,0,0,1-5,4.86A4.66,4.66,0,1,1,33,136c.78,0,1.16.34,1.16,1.13Zm-1.73-4.07a2.06,2.06,0,0,0,0,4.12Z"/><path class="cls-33" d="M10.58,98.73a1.3,1.3,0,0,1-1.41-1.35,1.67,1.67,0,0,1,.6-1.14l7.61-5.71v0h-6.8a1.35,1.35,0,1,1,0-2.7H20.81a1.28,1.28,0,0,1,1.4,1.35,1.72,1.72,0,0,1-.59,1.13L14.09,96v0h6.72a1.35,1.35,0,1,1,0,2.7Z"/><path class="cls-33" d="M10,83.64a1.48,1.48,0,0,1,1.49,1.46A1.52,1.52,0,0,1,10,86.56a1.46,1.46,0,0,1,0-2.92Zm3.91,2.76a1.31,1.31,0,1,1,0-2.6h6.91a1.31,1.31,0,1,1,0,2.6Z"/><path class="cls-33" d="M14.43,83a1.81,1.81,0,0,1-.75.16,1.25,1.25,0,0,1-1.26-1.35,1.17,1.17,0,0,1,.91-1.15L18.45,79v0l-5.12-1.66a1.18,1.18,0,0,1-.91-1.15,1.25,1.25,0,0,1,1.26-1.35,1.81,1.81,0,0,1,.75.16l6.7,2.61c.67.25,1.08.52,1.08,1.4s-.41,1.16-1.08,1.41Z"/><path class="cls-33" d="M18.18,72a2.24,2.24,0,0,0,1.87-2.45c0-1.33-1-2.25-1-2.93a1.15,1.15,0,0,1,1.11-1.07c1.12,0,2.2,2.31,2.2,4.24a4.73,4.73,0,0,1-5,4.86A4.66,4.66,0,1,1,17,65.3c.78,0,1.16.34,1.16,1.13Zm-1.73-4.07a2.06,2.06,0,0,0-2,2.07,2.08,2.08,0,0,0,2,2.05Z"/><path class="cls-33" d="M9.68,64.42a1.3,1.3,0,1,1,0-2.59H20.77a1.3,1.3,0,1,1,0,2.59Z"/><path class="cls-33" d="M26,96a1.48,1.48,0,0,1,1.49,1.46A1.52,1.52,0,0,1,26,98.89,1.46,1.46,0,0,1,26,96Zm3.91,2.76a1.31,1.31,0,1,1,0-2.6h6.91a1.31,1.31,0,1,1,0,2.6Z"/><path class="cls-33" d="M29.86,94.69a1.3,1.3,0,0,1-1.44-1.29,1.09,1.09,0,0,1,.95-1.19,2.8,2.8,0,0,1-1.06-2.5,3.32,3.32,0,0,1,3.49-3.55h5a1.3,1.3,0,1,1,0,2.59H32.25a1.68,1.68,0,1,0,0,3.35h4.52a1.3,1.3,0,1,1,0,2.59Z"/><path class="cls-33" d="M36.52,75.83c.66,0,1.69,0,1.69,1.24,0,.76-.41,1.06-1.1,1.24a3.12,3.12,0,0,1,1.21,2.47c0,2.43-2.07,4.28-5,4.28s-5-1.9-5-4.28a3,3,0,0,1,1.19-2.47,1.23,1.23,0,0,1-1.08-1.24c0-1.24,1-1.24,1.69-1.24Zm-.58,4.59c0-1.35-1.37-2-2.61-2s-2.65.63-2.65,2,1.41,2,2.65,2S35.94,81.82,35.94,80.42Z"/><path class="cls-33" d="M31.19,67.91c0,.65-.51,1.22-.51,2,0,1.48,1.32,2.18,2.65,2.18A2.38,2.38,0,0,0,35.94,70,13.79,13.79,0,0,0,35.4,68a1.14,1.14,0,0,1,1.14-1.12c1.33,0,1.78,2.23,1.78,3.17a4.71,4.71,0,0,1-5,4.64,4.81,4.81,0,0,1-5-4.64c0-1,.38-3.17,1.64-3.17C30.49,66.92,31.19,67.3,31.19,67.91Z"/><path class="cls-33" d="M34.18,63.93a2.24,2.24,0,0,0,1.87-2.45c0-1.33-1-2.25-1-2.93a1.14,1.14,0,0,1,1.11-1.06c1.12,0,2.2,2.3,2.2,4.23a4.72,4.72,0,0,1-5,4.86A4.66,4.66,0,1,1,33,57.27c.78,0,1.16.34,1.16,1.14Zm-1.73-4.07a2.06,2.06,0,0,0-2,2.07,2.09,2.09,0,0,0,2,2.06Z"/><path class="cls-33" d="M29.86,56.35a1.3,1.3,0,0,1-1.44-1.29,1.24,1.24,0,0,1,1.08-1.3,2.84,2.84,0,0,1-1.19-2.46c0-2.79,2.61-4.18,5.13-4.18s4.88,1.65,4.88,4.27a3.69,3.69,0,0,1-.9,2.37h3.17a1.3,1.3,0,1,1,0,2.59Zm6.08-4.62c0-1.35-1.4-2-2.61-2s-2.65.67-2.65,2,1.3,2,2.56,2S35.94,53.15,35.94,51.73Z"/><path class="cls-33" d="M30.79,45.39V46a1,1,0,0,1-1.13,1.13A1.11,1.11,0,0,1,28.52,46v-.58H27a1.3,1.3,0,1,1,0-2.59h1.55v-.74a1.14,1.14,0,1,1,2.27,0v.74h6a1.3,1.3,0,1,1,0,2.59Z"/><path class="cls-33" d="M36.52,31.84c.66,0,1.69,0,1.69,1.24,0,.76-.41,1.06-1.1,1.24a3.12,3.12,0,0,1,1.21,2.47c0,2.43-2.07,4.28-5,4.28s-5-1.9-5-4.28a3,3,0,0,1,1.19-2.47,1.23,1.23,0,0,1-1.08-1.24c0-1.24,1-1.24,1.69-1.24Zm-.58,4.59c0-1.35-1.37-2-2.61-2s-2.65.63-2.65,2,1.41,2,2.65,2S35.94,37.83,35.94,36.43Z"/><path class="cls-33" d="M25.68,30.36a1.3,1.3,0,1,1,0-2.59h3.53a3.72,3.72,0,0,1-.9-2.47c0-2.79,2.61-4.17,5.13-4.17s4.88,1.65,4.88,4.26a2.82,2.82,0,0,1-1.19,2.38,1.25,1.25,0,0,1,1.08,1.3,1.31,1.31,0,0,1-1.44,1.29Zm10.26-4.62c0-1.35-1.4-2-2.61-2s-2.65.67-2.65,2,1.3,2,2.56,2S35.94,27.16,35.94,25.74Z"/><path class="cls-33" d="M25.68,20.07a1.3,1.3,0,1,1,0-2.59H36.77a1.3,1.3,0,1,1,0,2.59Z"/><path class="cls-33" d="M34.18,14a2.24,2.24,0,0,0,1.87-2.45c0-1.33-1-2.25-1-2.94A1.15,1.15,0,0,1,36.12,7.5c1.12,0,2.2,2.31,2.2,4.23a4.73,4.73,0,0,1-5,4.87,4.82,4.82,0,0,1-5-4.65A4.81,4.81,0,0,1,33,7.29c.78,0,1.16.34,1.16,1.13ZM32.45,9.88a2,2,0,0,0-2,2.07,2.08,2.08,0,0,0,2,2.05Z"/></g></g></g></svg>