<svg xmlns="http://www.w3.org/2000/svg" viewBox="0 0 140.19 148.41"><defs><style>.cls-1{isolation:isolate;}.cls-2{fill:#cfd0d2;mix-blend-mode:multiply;}.cls-3{fill:#feede1;}.cls-4{fill:#dfcfc4;}.cls-5{fill:#e5c94f;}.cls-6{fill:#df244b;}.cls-7{fill:#fff;}.cls-8{fill:#142339;}</style></defs><g class="cls-1"><g id="Capa_2" data-name="Capa 2"><g id="Capa_1-2" data-name="Capa 1"><polygon class="cls-2" points="135.35 148.41 140.19 33.8 140.19 33.8 140.19 33.8 121.52 14.53 7.91 9.73 2.29 142.79 135.35 148.41"/><polygon class="cls-3" points="0 140.42 133.06 146.04 137.9 31.43 119.22 12.16 5.62 7.37 0 140.42"/><polygon class="cls-4" points="119.22 12.16 137.9 31.43 118.44 30.61 119.22 12.16"/><path class="cls-5" d="M60.22,2.18,16.77,0c-.14,1-.37,2.09-.42,2.63a110.88,110.88,0,0,0-.51,11.08L60,15.93c0-3.06.11-6.13.2-9.19C60.21,5.36,60.13,3.69,60.22,2.18Z"/><rect class="cls-6" x="25.74" y="46.27" width="88.33" height="33.92" rx="7.12" transform="translate(2.73 -2.89) rotate(2.42)"/><path class="cls-7" d="M38.33,57.6a1.07,1.07,0,0,1,1.21-1.12l2.63.11c2.31.1,3.69,1.2,3.59,3.55a2.9,2.9,0,0,1-2.89,2.71l2.43,2.84a1,1,0,0,1,.27.67,1.15,1.15,0,0,1-1.17,1.11,1.14,1.14,0,0,1-.85-.43l-3.16-4.17h0l-.14,3.25A1.12,1.12,0,1,1,38,66Zm2.1,3.65,1.54.06a1.33,1.33,0,1,0,.12-2.65l-1.55-.06Z"/><path class="cls-7" d="M46.66,58.09c0-.75.43-1.29,1.22-1.25L51.6,57a1,1,0,0,1,1,1.08,1,1,0,0,1-1.11,1L48.87,59l-.09,2.19,2.46.1a1,1,0,0,1,1,1.08,1,1,0,0,1-1.14,1l-2.46-.11-.09,2.28,2.77.12a1,1,0,0,1,1,1.08,1,1,0,0,1-1.11,1l-3.86-.17a1.09,1.09,0,0,1-1.11-1.17Z"/><path class="cls-7" d="M56.08,58.25a1.77,1.77,0,0,1,1.66-1.18,1.7,1.7,0,0,1,1.55,1.31l2.59,8.28a1.87,1.87,0,0,1,.1.56,1,1,0,0,1-1.08.94,1,1,0,0,1-1.06-.82l-.39-1.43-4.17-.18-.5,1.38a1.05,1.05,0,0,1-1.12.75,1.08,1.08,0,0,1-1.06-1.1,1.41,1.41,0,0,1,.12-.49ZM56,63.69l2.84.12-1.21-4.4h0Z"/><path class="cls-7" d="M67.84,57.5c1.09,0,3.2.49,3.15,1.81a1,1,0,0,1-1,1c-.62,0-1-.57-2.27-.62-1.86-.08-2.89,1.45-3,3.28s.83,3.35,2.67,3.43c1.26,0,1.8-.56,2.41-.53a1.06,1.06,0,0,1,.95,1.06c-.06,1.44-2.34,1.67-3.45,1.63a5.2,5.2,0,0,1-4.92-5.74C62.58,59.68,64.78,57.37,67.84,57.5Z"/><path class="cls-7" d="M74,60l-1.63-.07a1,1,0,0,1-1-1.08,1,1,0,0,1,1.07-1l5.51.23a1,1,0,0,1,1,1.08,1,1,0,0,1-1.07,1l-1.63-.07-.32,7.53a1.13,1.13,0,1,1-2.25-.1Z"/><path class="cls-7" d="M79.4,59.25a1.13,1.13,0,1,1,2.25.09l-.36,8.51A1.13,1.13,0,1,1,79,67.76Z"/><path class="cls-7" d="M82.35,59.84a1.53,1.53,0,0,1-.09-.56,1.13,1.13,0,0,1,1.2-1,1.11,1.11,0,0,1,1,.77l2.06,6.34,2.59-6.14a1.12,1.12,0,0,1,2.16.44,1.48,1.48,0,0,1-.13.55l-3.64,8.21a1.14,1.14,0,0,1-2.21-.1Z"/><path class="cls-7" d="M91.27,64a5.18,5.18,0,0,1,5.39-5.3,5.25,5.25,0,0,1,4.92,5.74c-.13,3.1-2.32,5.42-5.39,5.29S91.14,67.11,91.27,64Zm8,.34c.08-1.82-.8-3.49-2.67-3.57s-2.89,1.52-3,3.33.76,3.49,2.67,3.57S99.16,66.18,99.24,64.35Z"/><path class="cls-8" d="M39.33,89.22c.75,0,1,.43,1,1.2a3.79,3.79,0,0,1-4.07,3.88,4.42,4.42,0,0,1,.37-8.82c1.81.08,3.26,1,3.22,1.83a.75.75,0,0,1-.77.81c-.82,0-.95-.92-2.52-1s-2.31,1.22-2.37,2.67.62,2.78,2.14,2.85a1.87,1.87,0,0,0,2.11-1.81l-1.22,0a.83.83,0,1,1,.07-1.66Z"/><path class="cls-8" d="M41.1,88.86a.87.87,0,1,1,1.73.08L42.7,92a1.12,1.12,0,1,0,2.23.09L45.06,89a.87.87,0,1,1,1.72.07l-.13,3.12c-.07,1.53-1.13,2.47-2.95,2.39S40.9,93.51,41,92Z"/><path class="cls-8" d="M47.74,89.14a.87.87,0,1,1,1.73.08l-.19,4.6a.88.88,0,0,1-.91.92.87.87,0,0,1-.82-1Zm1.95-2.52a1,1,0,1,1-.93-1A1,1,0,0,1,49.69,86.62Z"/><path class="cls-8" d="M56.14,93.94c0,.44,0,1.13-.88,1.09-.5,0-.69-.3-.79-.76a2.1,2.1,0,0,1-1.68.73c-1.62-.07-2.79-1.5-2.71-3.44a3.09,3.09,0,0,1,3-3.22,1.94,1.94,0,0,1,1.61.86.83.83,0,0,1,.86-.69c.82,0,.8.72.78,1.16Zm-3-.51c.9,0,1.37-.86,1.4-1.68s-.34-1.78-1.25-1.82-1.41.88-1.45,1.7S52.16,93.39,53.1,93.43Z"/><path class="cls-8" d="M60.9,90.68c-.32,0-1-.54-1.52-.56-.32,0-.6.11-.61.45,0,.8,3,.81,2.88,2.77a2.17,2.17,0,0,1-2.54,1.93c-1,0-2.39-.66-2.35-1.44a.81.81,0,0,1,.77-.73c.67,0,.95.63,1.76.66.53,0,.69-.14.71-.46,0-.79-3-.8-2.89-2.78a2.1,2.1,0,0,1,2.43-1.91c.85,0,2.14.49,2.1,1.34A.74.74,0,0,1,60.9,90.68Z"/><path class="cls-8" d="M66,90.54l-.38,0a.69.69,0,0,1-.72-.78A.75.75,0,0,1,65.7,89l.39,0,0-1a.87.87,0,1,1,1.73.07l0,1,.49,0c.45,0,.82.24.8.79a.73.73,0,0,1-.86.72l-.49,0-.17,4a.87.87,0,1,1-1.72-.07Z"/><path class="cls-8" d="M74.89,94.73c0,.45,0,1.13-.88,1.09-.5,0-.69-.3-.79-.76a2.07,2.07,0,0,1-1.68.73c-1.62-.07-2.79-1.5-2.71-3.44a3.09,3.09,0,0,1,3-3.22,2,2,0,0,1,1.61.86.83.83,0,0,1,.86-.69c.83,0,.8.72.78,1.17Zm-3-.51c.9,0,1.37-.85,1.4-1.68s-.34-1.78-1.25-1.82-1.41.88-1.44,1.7S70.91,94.18,71.85,94.22Zm.8-7.69a1.6,1.6,0,0,1,.46-.1.77.77,0,0,1,.62.77.69.69,0,0,1-.52.69l-1.37.47c-.35.11-.24.11-.48.1s-.62-.48-.6-.9a.6.6,0,0,1,.36-.47l.09,0Z"/><path class="cls-8" d="M80.31,91.41c-.43,0-.8-.37-1.35-.4-1,0-1.48.82-1.52,1.7a1.59,1.59,0,0,0,1.37,1.8,9.17,9.17,0,0,0,1.3-.3.75.75,0,0,1,.71.78c0,.89-1.53,1.13-2.16,1.1a3.15,3.15,0,0,1-3-3.45A3.21,3.21,0,0,1,79,89.43c.68,0,2.09.34,2.06,1.18C81,91,80.72,91.42,80.31,91.41Z"/><path class="cls-8" d="M82,91.21h-.39a.7.7,0,0,1-.72-.79.73.73,0,0,1,.79-.72h.38l0-1a.87.87,0,1,1,1.73.08l0,1,.5,0a.76.76,0,1,1-.07,1.51l-.49,0-.17,4a.87.87,0,1,1-1.72-.08Z"/><path class="cls-8" d="M85.14,90.72a.87.87,0,1,1,1.72.07l-.19,4.61a.87.87,0,1,1-1.73-.08Zm1.94-2.52a1,1,0,0,1-1,1,1,1,0,1,1,.08-1.94A1,1,0,0,1,87.08,88.2Z"/><path class="cls-8" d="M92.08,91.9c-.44,0-.81-.37-1.36-.39-1,0-1.48.82-1.52,1.7A1.59,1.59,0,0,0,90.58,95a9.32,9.32,0,0,0,1.29-.3.74.74,0,0,1,.71.78c0,.89-1.53,1.12-2.16,1.1a3.15,3.15,0,0,1-3-3.45,3.21,3.21,0,0,1,3.24-3.21c.68,0,2.09.34,2.06,1.18C92.75,91.46,92.48,91.92,92.08,91.9Z"/><path class="cls-8" d="M99.08,95.75c0,.45,0,1.13-.87,1.09-.51,0-.7-.3-.8-.76a2,2,0,0,1-1.67.73A3,3,0,0,1,93,93.37a3.1,3.1,0,0,1,3-3.22,2,2,0,0,1,1.6.86.82.82,0,0,1,.86-.68c.83,0,.8.71.78,1.16Zm-3-.51c.9,0,1.37-.85,1.41-1.68s-.35-1.78-1.26-1.82-1.41.88-1.44,1.71A1.54,1.54,0,0,0,96,95.24Z"/><path class="cls-8" d="M103.84,92.5c-.32,0-1-.55-1.52-.57-.31,0-.59.12-.61.45,0,.81,3,.81,2.89,2.78,0,1.15-1.06,2-2.55,1.92-1,0-2.38-.65-2.35-1.43a.82.82,0,0,1,.78-.74c.67,0,.94.63,1.76.67.53,0,.69-.14.7-.47,0-.79-3-.79-2.88-2.77a2.1,2.1,0,0,1,2.42-1.92c.85,0,2.14.49,2.1,1.34A.74.74,0,0,1,103.84,92.5Z"/><path class="cls-8" d="M37.68,101a3.1,3.1,0,1,1-6.18-.26,3.1,3.1,0,1,1,6.18.26Zm-4.46-.19c0,.83.36,1.76,1.29,1.8s1.41-.85,1.45-1.68-.35-1.78-1.3-1.82S33.26,100,33.22,100.78Z"/><path class="cls-8" d="M38.51,98.69a.88.88,0,0,1,.91-.92.84.84,0,0,1,.83.76,1.91,1.91,0,0,1,1.67-.73c1.86.08,2.71,1.86,2.64,3.54a3.05,3.05,0,0,1-3,3.12A2.43,2.43,0,0,1,40,103.8l-.09,2.11a.87.87,0,1,1-1.73-.08Zm2.91,4.18c.9,0,1.38-.88,1.42-1.68s-.37-1.78-1.27-1.82-1.39.81-1.43,1.65S40.47,102.83,41.42,102.87Z"/><path class="cls-8" d="M46.66,101.92a1.5,1.5,0,0,0,1.58,1.31c.89,0,1.53-.63,2-.61a.77.77,0,0,1,.68.77c0,.74-1.6,1.4-2.88,1.34a3.13,3.13,0,0,1-3.09-3.45,3.1,3.1,0,1,1,6.2.06.66.66,0,0,1-.79.73Zm2.76-1A1.37,1.37,0,0,0,48.1,99.5a1.39,1.39,0,0,0-1.42,1.27Z"/><path class="cls-8" d="M51.81,99.16a.85.85,0,0,1,.93-.83c.45,0,.83.21.8.76h0a1.36,1.36,0,0,1,1.24-.67.85.85,0,0,1,.8,1c0,.56-.54.58-1.07.79s-1.06.43-1.09,1.11l-.11,2.65a.87.87,0,1,1-1.73-.08Z"/><path class="cls-8" d="M61.53,104.1c0,.45,0,1.13-.87,1.1-.5,0-.7-.31-.8-.77a2,2,0,0,1-1.67.73c-1.62-.06-2.8-1.49-2.71-3.44a3.09,3.09,0,0,1,3-3.22,2,2,0,0,1,1.61.86.81.81,0,0,1,.85-.68c.83,0,.8.72.78,1.16Zm-3-.51c.9,0,1.37-.85,1.41-1.68s-.35-1.78-1.26-1.82-1.4.88-1.44,1.71S57.56,103.55,58.49,103.59Z"/><path class="cls-8" d="M67,100.78c-.43,0-.8-.37-1.35-.39-1,0-1.49.81-1.53,1.7a1.59,1.59,0,0,0,1.38,1.8,9.67,9.67,0,0,0,1.3-.31.77.77,0,0,1,.71.79c0,.88-1.54,1.12-2.16,1.09a3.13,3.13,0,0,1-3-3.45,3.22,3.22,0,0,1,3.23-3.21c.68,0,2.1.34,2.06,1.18C67.64,100.34,67.37,100.8,67,100.78Z"/><path class="cls-8" d="M68.23,100A.87.87,0,1,1,70,100l-.2,4.6a.87.87,0,1,1-1.72-.07Zm2-2.53a1,1,0,1,1-1.94-.08,1,1,0,0,1,1.94.08Z"/><path class="cls-8" d="M76.75,102.62a3.1,3.1,0,1,1-6.18-.26,3.1,3.1,0,1,1,6.18.26Zm-4.46-.19c0,.83.36,1.76,1.3,1.8s1.4-.85,1.44-1.68-.35-1.78-1.29-1.82S72.33,101.61,72.29,102.43Z"/><path class="cls-8" d="M77.58,100.34a.88.88,0,0,1,.91-.92.73.73,0,0,1,.76.67,1.87,1.87,0,0,1,1.7-.64,2.22,2.22,0,0,1,2.26,2.43l-.14,3.3a.87.87,0,1,1-1.72-.07l.12-3a1.06,1.06,0,0,0-1.07-1.23A1.09,1.09,0,0,0,79.24,102l-.12,3a.87.87,0,1,1-1.73-.08Z"/><path class="cls-8" d="M90,105.3c0,.45,0,1.13-.88,1.1-.5,0-.69-.31-.79-.77a2.07,2.07,0,0,1-1.68.73c-1.61-.06-2.79-1.49-2.71-3.44a3.09,3.09,0,0,1,3-3.22,2,2,0,0,1,1.61.86.83.83,0,0,1,.86-.68c.83,0,.8.72.78,1.16Zm-3-.51c.9,0,1.37-.85,1.4-1.68s-.34-1.78-1.25-1.82-1.41.88-1.44,1.71A1.54,1.54,0,0,0,86.92,104.79Z"/><path class="cls-8" d="M91.23,98.13a.87.87,0,1,1,1.72.08l-.31,7.38a.87.87,0,1,1-1.72-.08Z"/><path class="cls-8" d="M95.06,104a1.51,1.51,0,0,0,1.58,1.32c.89,0,1.53-.64,2-.62a.78.78,0,0,1,.68.78c0,.74-1.6,1.39-2.88,1.34a3.14,3.14,0,0,1-3.09-3.46,3.1,3.1,0,1,1,6.2.06c0,.52-.26.76-.79.74Zm2.76-1a1.36,1.36,0,0,0-1.32-1.37,1.38,1.38,0,0,0-1.42,1.26Z"/><path class="cls-8" d="M103.82,102.43c-.32,0-1-.54-1.52-.56-.31,0-.6.11-.61.45,0,.8,3,.81,2.88,2.77A2.17,2.17,0,0,1,102,107c-1,0-2.38-.66-2.35-1.44a.81.81,0,0,1,.77-.73c.68,0,1,.63,1.76.66.53,0,.7-.14.71-.46,0-.79-3-.8-2.88-2.78a2.09,2.09,0,0,1,2.42-1.91c.85,0,2.14.49,2.1,1.34A.74.74,0,0,1,103.82,102.43Z"/></g></g></g></svg>