<svg xmlns="http://www.w3.org/2000/svg" viewBox="0 0 142.07 146.58"><defs><style>.cls-1{isolation:isolate;}.cls-2{fill:#cfd0d2;mix-blend-mode:multiply;}.cls-3{fill:#feede1;}.cls-4{fill:#dfcfc4;}.cls-5{fill:#e5c94f;}.cls-6{fill:#df244b;}.cls-7{fill:#fff;}.cls-8{fill:#142339;}</style></defs><g class="cls-1"><g id="Capa_2" data-name="Capa 2"><g id="Capa_1-2" data-name="Capa 1"><polygon class="cls-2" points="9.01 146.58 4.17 31.97 4.17 31.97 4.17 31.97 22.85 12.7 136.45 7.9 142.07 140.96 9.01 146.58"/><polygon class="cls-3" points="137.9 137.57 4.84 143.19 0 28.59 18.68 9.31 132.28 4.52 137.9 137.57"/><polygon class="cls-4" points="18.68 9.31 0 28.59 19.45 27.77 18.68 9.31"/><path class="cls-5" d="M100.45,0l-57,2.45c-.07,1-.25,2.12-.26,2.67a87,87,0,0,0,.54,11.07L101.6,13.7c-.27-3-.53-6.1-.74-9.16C100.77,3.16,100.49,1.51,100.45,0Z"/><rect class="cls-6" x="23.83" y="43.42" width="88.33" height="33.92" rx="7.12" transform="translate(-2.49 2.92) rotate(-2.42)"/><path class="cls-7" d="M36.05,57.44a1.07,1.07,0,0,1,1.11-1.22l2.63-.11c2.31-.1,3.78.87,3.88,3.23A2.92,2.92,0,0,1,41,62.29l2.66,2.61a1,1,0,0,1,.33.65,1.15,1.15,0,0,1-1.08,1.2,1.09,1.09,0,0,1-.88-.35l-3.5-3.89h0l.14,3.25a1.13,1.13,0,1,1-2.25.1Zm2.4,3.45L40,60.83a1.28,1.28,0,0,0,1.34-1.4,1.25,1.25,0,0,0-1.45-1.25l-1.54.06Z"/><path class="cls-7" d="M44.39,57.22c0-.75.32-1.32,1.11-1.35l3.72-.16a1,1,0,0,1,1.11,1,1,1,0,0,1-1,1.08l-2.64.11.09,2.19L49.22,60a1,1,0,0,1,1.14,1,1,1,0,0,1-1,1.08l-2.46.1.1,2.28,2.77-.11a1,1,0,0,1,1.11,1,1,1,0,0,1-1,1.08l-3.87.17a1.1,1.1,0,0,1-1.2-1.08Z"/><path class="cls-7" d="M53.79,56.58a1.77,1.77,0,0,1,1.55-1.31A1.7,1.7,0,0,1,57,56.45l3.28,8a1.66,1.66,0,0,1,.14.55,1,1,0,0,1-1,1,1,1,0,0,1-1.12-.74l-.51-1.39-4.17.18-.39,1.41a1,1,0,0,1-1.05.84,1.07,1.07,0,0,1-1.15-1,1.49,1.49,0,0,1,.08-.5Zm.4,5.44L57,61.89l-1.58-4.28h0Z"/><path class="cls-7" d="M65.44,54.84c1.1,0,3.24.23,3.3,1.55a1,1,0,0,1-.89,1c-.61,0-1.06-.48-2.31-.43-1.86.08-2.75,1.69-2.68,3.52s1.12,3.27,3,3.2c1.26-.06,1.74-.71,2.36-.73a1.06,1.06,0,0,1,1,1c.06,1.44-2.19,1.87-3.3,1.91a5.19,5.19,0,0,1-5.39-5.29C60.39,57.46,62.39,55,65.44,54.84Z"/><path class="cls-7" d="M71.76,56.83l-1.63.07a1,1,0,0,1-1.07-1,1,1,0,0,1,1-1.08l5.51-.23a1,1,0,0,1,1.07,1,1,1,0,0,1-1,1.07L74,56.73l.31,7.53a1.12,1.12,0,1,1-2.24.09Z"/><path class="cls-7" d="M77.11,55.61a1.13,1.13,0,1,1,2.25-.09L79.72,64a1.13,1.13,0,1,1-2.25.09Z"/><path class="cls-7" d="M80.1,56A1.48,1.48,0,0,1,80,55.4,1.12,1.12,0,0,1,82.13,55l2.59,6.13,2.06-6.33a1.11,1.11,0,0,1,1-.78A1.12,1.12,0,0,1,89,55a1.34,1.34,0,0,1-.08.56L86,64.07a1.11,1.11,0,0,1-1.07.91,1.13,1.13,0,0,1-1.15-.82Z"/><path class="cls-7" d="M89.34,59.36c-.13-3.12,1.87-5.6,4.92-5.73a5.24,5.24,0,0,1,5.39,5.29c.13,3.11-1.85,5.61-4.92,5.74A5.2,5.2,0,0,1,89.34,59.36Zm8-.34c-.07-1.81-1.09-3.4-3-3.33s-2.75,1.76-2.67,3.57,1.06,3.41,3,3.33S97.39,60.85,97.31,59Z"/><path class="cls-8" d="M29.35,86.75a.85.85,0,0,1,.89-1l2.12-.09a2.86,2.86,0,1,1,.31,5.7l-1.33,0,.09,2a.9.9,0,1,1-1.8.07Zm1.93,3.11,1.22,0a1.27,1.27,0,0,0-.11-2.54l-1.22,0Z"/><path class="cls-8" d="M36,88.48a.84.84,0,0,1,.85-.89c.46,0,.85.13.87.68h0A1.34,1.34,0,0,1,39,87.5a.84.84,0,0,1,.88.88c0,.57-.49.63-1,.89s-1,.51-1,1.19L38,93.11a.87.87,0,1,1-1.73.07Z"/><path class="cls-8" d="M45.86,90.48a3.1,3.1,0,1,1-6.18.26,3.1,3.1,0,1,1,6.18-.26Zm-4.46.19c0,.83.51,1.72,1.44,1.68s1.33-1,1.29-1.79-.49-1.75-1.44-1.71S41.37,89.84,41.4,90.67Z"/><path class="cls-8" d="M50.82,88.85c-.43,0-.83-.31-1.38-.28-1,0-1.41.93-1.37,1.82a1.6,1.6,0,0,0,1.52,1.68,9.88,9.88,0,0,0,1.27-.42.76.76,0,0,1,.77.73c0,.88-1.43,1.24-2.06,1.27a3.15,3.15,0,0,1-3.23-3.19A3.21,3.21,0,0,1,49.29,87c.68,0,2.12.16,2.16,1C51.46,88.35,51.23,88.83,50.82,88.85Z"/><path class="cls-8" d="M53.56,90.72a1.49,1.49,0,0,0,1.68,1.18c.89,0,1.47-.76,1.92-.78a.76.76,0,0,1,.74.72c0,.74-1.47,1.52-2.75,1.58a3.15,3.15,0,0,1-3.38-3.19A3.11,3.11,0,1,1,58,89.77a.67.67,0,0,1-.72.8Zm2.66-1.26a1.37,1.37,0,0,0-1.44-1.26,1.4,1.4,0,0,0-1.31,1.37Z"/><path class="cls-8" d="M64.57,92a.87.87,0,0,1-.82,1,.82.82,0,0,1-.89-.68,1.86,1.86,0,0,1-1.55.85,3,3,0,0,1-3-3.12c-.07-1.68.78-3.46,2.64-3.53a2.48,2.48,0,0,1,1.67.53l-.1-2.35a.87.87,0,1,1,1.72-.08Zm-3.25-3.92c-.89,0-1.3,1-1.26,1.82s.51,1.72,1.41,1.68,1.32-1,1.28-1.85S62.25,88,61.32,88.06Z"/><path class="cls-8" d="M67.07,84.67a1,1,0,0,1-.93,1,1,1,0,0,1-1-1,1,1,0,0,1,1.95-.08Zm-1.73,2.67a.87.87,0,1,1,1.73-.07l.19,4.6a.87.87,0,1,1-1.72.07Z"/><path class="cls-8" d="M68,87.23a.88.88,0,0,1,.82-1,.74.74,0,0,1,.82.62,2.17,2.17,0,0,1,1.57-.79,2.24,2.24,0,0,1,1.83.8,2.56,2.56,0,0,1,1.78-1,2.16,2.16,0,0,1,2.46,2.22l.14,3.31a.87.87,0,1,1-1.73.07l-.12-3c0-.7-.44-1.17-1.06-1.15a1.05,1.05,0,0,0-1,1.23l.13,3a.87.87,0,1,1-1.73.07l-.12-3c0-.7-.44-1.17-1.06-1.15s-1,.54-1,1.23l.13,3a.87.87,0,1,1-1.73.07Z"/><path class="cls-8" d="M79.94,84.12a1,1,0,0,1-.93,1,1,1,0,0,1-1-1,1,1,0,0,1,.93-1A1,1,0,0,1,79.94,84.12ZM78.22,86.8a.87.87,0,1,1,1.72-.07l.2,4.6a.87.87,0,1,1-1.73.07Z"/><path class="cls-8" d="M82.42,89.5a1.48,1.48,0,0,0,1.68,1.18c.88,0,1.47-.76,1.92-.78a.77.77,0,0,1,.74.72c0,.74-1.47,1.52-2.75,1.58A3.15,3.15,0,0,1,80.63,89a3.11,3.11,0,1,1,6.19-.46.67.67,0,0,1-.73.8Zm2.66-1.26a1.38,1.38,0,0,0-2.75.11Z"/><path class="cls-8" d="M87.34,86.41a.87.87,0,0,1,.82-1A.72.72,0,0,1,89,86a1.89,1.89,0,0,1,1.64-.78,2.23,2.23,0,0,1,2.46,2.23l.14,3.31a.87.87,0,1,1-1.73.07l-.13-3a1.07,1.07,0,0,0-1.17-1.14,1.1,1.1,0,0,0-1.06,1.24l.13,3a.87.87,0,1,1-1.72.08Z"/><path class="cls-8" d="M94.45,86.74h-.38a.7.7,0,0,1-.79-.72.75.75,0,0,1,.73-.79h.38l0-1a.87.87,0,1,1,1.72-.08l.05,1,.49,0a.76.76,0,1,1,.06,1.51l-.49,0,.17,4a.87.87,0,1,1-1.73.08Z"/><path class="cls-8" d="M103.59,88a3.11,3.11,0,1,1-6.19.27,3.11,3.11,0,1,1,6.19-.27Zm-4.46.19c0,.83.5,1.72,1.44,1.68s1.33-1,1.29-1.79-.49-1.75-1.44-1.71S99.09,87.41,99.13,88.23Z"/><path class="cls-8" d="M107.89,86.53c-.32,0-1-.46-1.56-.44-.31,0-.58.17-.57.51,0,.8,3,.55,3.11,2.52,0,1.15-.89,2.06-2.37,2.13-1,0-2.43-.45-2.47-1.23a.82.82,0,0,1,.71-.8c.67,0,1,.55,1.81.51.53,0,.68-.19.67-.52,0-.79-3-.54-3.11-2.52a2.09,2.09,0,0,1,2.25-2.11c.85,0,2.17.3,2.21,1.15A.75.75,0,0,1,107.89,86.53Z"/><path class="cls-8" d="M48.62,100.3a3.11,3.11,0,1,1-6.19.26,3.11,3.11,0,1,1,6.19-.26Zm-4.46.19c0,.83.5,1.72,1.44,1.68s1.32-1,1.29-1.79-.49-1.75-1.44-1.71S44.12,99.67,44.16,100.49Z"/><path class="cls-8" d="M49.25,98a.87.87,0,0,1,.82-1,.83.83,0,0,1,.9.68,1.9,1.9,0,0,1,1.61-.86c1.85-.08,2.85,1.62,2.92,3.29a3.06,3.06,0,0,1-2.7,3.37,2.46,2.46,0,0,1-1.61-.53l.09,2.11a.87.87,0,1,1-1.73.07Zm3.25,3.92c.9,0,1.31-1,1.27-1.79s-.52-1.75-1.41-1.71-1.32.92-1.29,1.76S51.56,101.92,52.5,101.88Z"/><path class="cls-8" d="M57.65,100.49a1.48,1.48,0,0,0,1.68,1.17c.88,0,1.47-.75,1.92-.77a.77.77,0,0,1,.74.71c0,.74-1.47,1.53-2.75,1.58A3.15,3.15,0,0,1,55.86,100a3.11,3.11,0,1,1,6.19-.47c0,.52-.2.78-.73.8Zm2.66-1.27a1.38,1.38,0,0,0-2.75.12Z"/><path class="cls-8" d="M62.54,97.3a.86.86,0,0,1,.85-.9c.46,0,.85.14.87.69h0a1.37,1.37,0,0,1,1.18-.78.84.84,0,0,1,.87.89c0,.57-.48.62-1,.89s-1,.51-1,1.19l.11,2.65a.87.87,0,1,1-1.73.07Z"/><path class="cls-8" d="M72.65,101.41c0,.45,0,1.13-.78,1.17-.51,0-.72-.25-.86-.7a2.09,2.09,0,0,1-1.61.87c-1.62.07-2.91-1.26-3-3.2a3.1,3.1,0,0,1,2.71-3.46,2,2,0,0,1,1.68.72.81.81,0,0,1,.79-.75c.83,0,.86.65.88,1.09Zm-3.07-.25c.89,0,1.29-1,1.25-1.8s-.49-1.74-1.4-1.7-1.33,1-1.29,1.82S68.64,101.2,69.58,101.16Z"/><path class="cls-8" d="M73.89,97.54l-.38,0a.7.7,0,0,1-.79-.72.74.74,0,0,1,.72-.79l.39,0,0-1a.86.86,0,0,1,.82-1,.87.87,0,0,1,.9.92l0,1,.5,0a.72.72,0,0,1,.85.72c0,.54-.35.77-.79.79l-.49,0,.17,4a.87.87,0,0,1-.83,1,.86.86,0,0,1-.9-.92Z"/><path class="cls-8" d="M78.69,94.11a1,1,0,0,1-.92,1,1,1,0,0,1-1-1,1,1,0,0,1,.93-1A1,1,0,0,1,78.69,94.11ZM77,96.79a.87.87,0,1,1,1.73-.07l.19,4.6a.87.87,0,1,1-1.73.07Z"/><path class="cls-8" d="M79.28,97.08a1.12,1.12,0,0,1-.13-.5A.83.83,0,0,1,80,95.7a.78.78,0,0,1,.79.58l1.25,3.36h0l1-3.45a.79.79,0,0,1,.74-.65.84.84,0,0,1,.94.8,1.31,1.31,0,0,1-.09.51l-1.55,4.53c-.15.45-.32.74-.9.76s-.78-.24-1-.68Z"/><path class="cls-8" d="M91.22,98.5a3.1,3.1,0,1,1-6.18.27,3.1,3.1,0,1,1,6.18-.27Zm-4.45.19c0,.83.5,1.72,1.44,1.68s1.32-1,1.29-1.79-.5-1.75-1.44-1.71S86.73,97.87,86.77,98.69Z"/><path class="cls-8" d="M95.53,97c-.32,0-1-.46-1.56-.44-.31,0-.58.17-.57.51,0,.8,3,.55,3.11,2.52,0,1.15-.89,2.06-2.37,2.13-1,0-2.43-.45-2.47-1.23a.82.82,0,0,1,.71-.8c.67,0,1,.55,1.81.51.53,0,.68-.19.66-.52,0-.79-3-.54-3.1-2.52A2.09,2.09,0,0,1,94,95c.85,0,2.17.3,2.21,1.15A.75.75,0,0,1,95.53,97Z"/></g></g></g></svg>