<svg xmlns="http://www.w3.org/2000/svg" viewBox="0 0 471.47 129.2"><defs><style>.cls-1{fill:#eadf1b;}.cls-2{fill:#eda719;}.cls-3{fill:#df244b;}.cls-4{fill:#7dba43;}.cls-5{fill:#335215;}.cls-6{fill:#755403;}.cls-7{fill:#6e071c;}</style></defs><g id="Capa_2" data-name="Capa 2"><g id="Capa_1-2" data-name="Capa 1"><rect class="cls-1" x="1.2" y="1.2" width="90.92" height="22.47" rx="3"/><rect class="cls-1" x="95.74" y="1.2" width="90.92" height="22.47" rx="3"/><rect class="cls-2" x="190.28" y="1.2" width="90.92" height="22.47" rx="3"/><rect class="cls-3" x="284.81" y="1.2" width="90.92" height="22.47" rx="3"/><rect class="cls-3" x="379.35" y="1.2" width="90.92" height="22.47" rx="3"/><rect class="cls-4" x="1.2" y="27.28" width="90.92" height="22.47" rx="3"/><rect class="cls-1" x="95.74" y="27.28" width="90.92" height="22.47" rx="3"/><rect class="cls-2" x="190.28" y="27.28" width="90.92" height="22.47" rx="3"/><rect class="cls-3" x="284.81" y="27.28" width="90.92" height="22.47" rx="3"/><rect class="cls-3" x="379.35" y="27.28" width="90.92" height="22.47" rx="3"/><rect class="cls-4" x="1.2" y="53.36" width="90.92" height="22.47" rx="3"/><rect class="cls-1" x="95.74" y="53.36" width="90.92" height="22.47" rx="3"/><rect class="cls-1" x="190.28" y="53.36" width="90.92" height="22.47" rx="3"/><rect class="cls-2" x="284.81" y="53.36" width="90.92" height="22.47" rx="3"/><rect class="cls-3" x="379.35" y="53.36" width="90.92" height="22.47" rx="3"/><rect class="cls-4" x="1.2" y="79.44" width="90.92" height="22.47" rx="3"/><rect class="cls-4" x="95.74" y="79.44" width="90.92" height="22.47" rx="3"/><rect class="cls-1" x="190.28" y="79.44" width="90.92" height="22.47" rx="3"/><rect class="cls-2" x="284.81" y="79.44" width="90.92" height="22.47" rx="3"/><rect class="cls-3" x="379.35" y="79.44" width="90.92" height="22.47" rx="3"/><rect class="cls-4" x="1.2" y="105.52" width="90.92" height="22.47" rx="3"/><rect class="cls-4" x="95.74" y="105.52" width="90.92" height="22.47" rx="3"/><rect class="cls-4" x="190.28" y="105.52" width="90.92" height="22.47" rx="3"/><rect class="cls-1" x="284.81" y="105.52" width="90.92" height="22.47" rx="3"/><rect class="cls-2" x="379.35" y="105.52" width="90.92" height="22.47" rx="3"/><path class="cls-5" d="M91.33,28.08V76.51a3.73,3.73,0,0,0,3.73,3.73h90.81v22.35a3.73,3.73,0,0,0,3.72,3.73H280.4V127.2H2V28.08H91.33m.28-2H1.73A1.72,1.72,0,0,0,0,27.81v99.66a1.73,1.73,0,0,0,1.73,1.73h279a1.73,1.73,0,0,0,1.72-1.73V106.05a1.72,1.72,0,0,0-1.72-1.73H189.59a1.72,1.72,0,0,1-1.72-1.73V80a1.73,1.73,0,0,0-1.73-1.73H95.06a1.72,1.72,0,0,1-1.73-1.73V27.81a1.72,1.72,0,0,0-1.72-1.73Z"/><path class="cls-6" d="M280.4,2V50.43a3.73,3.73,0,0,0,3.73,3.73h90.81v48.43a3.73,3.73,0,0,0,3.72,3.73h90.81V127.2H285.61V104.84a3.73,3.73,0,0,0-3.73-3.72H191.07V78.76A3.73,3.73,0,0,0,187.35,75H96.54V26.6a3.73,3.73,0,0,0-3.73-3.72H2V2H280.4m.28-2H1.73A1.72,1.72,0,0,0,0,1.73V23.15a1.73,1.73,0,0,0,1.73,1.73H92.81a1.73,1.73,0,0,1,1.73,1.72V75.31A1.73,1.73,0,0,0,96.26,77h91.09a1.72,1.72,0,0,1,1.72,1.72v22.63a1.73,1.73,0,0,0,1.73,1.73h91.08a1.73,1.73,0,0,1,1.73,1.72v22.63a1.73,1.73,0,0,0,1.72,1.73H469.75a1.73,1.73,0,0,0,1.72-1.73V106.05a1.72,1.72,0,0,0-1.72-1.73H378.66a1.72,1.72,0,0,1-1.72-1.73V53.88a1.73,1.73,0,0,0-1.73-1.72H284.13a1.72,1.72,0,0,1-1.73-1.73V1.73A1.72,1.72,0,0,0,280.68,0Z"/><path class="cls-7" d="M469.47,2v99.12H380.14V52.68A3.73,3.73,0,0,0,376.42,49H285.61V2H469.47m.28-2H285.33a1.72,1.72,0,0,0-1.72,1.73v47.5A1.72,1.72,0,0,0,285.33,51h91.09a1.73,1.73,0,0,1,1.72,1.73v48.71a1.73,1.73,0,0,0,1.73,1.73h89.88a1.73,1.73,0,0,0,1.72-1.73V1.73A1.72,1.72,0,0,0,469.75,0Z"/></g></g></svg>