<svg xmlns="http://www.w3.org/2000/svg" viewBox="0 0 811.65 446.16"><defs><style>.cls-1{isolation:isolate;}.cls-2{fill:#eadf1b;}.cls-3{fill:#eda719;}.cls-4{fill:#df244b;}.cls-5{fill:#7dba43;}.cls-6{fill:#335215;}.cls-7{fill:#755403;}.cls-8{fill:#6e071c;}.cls-10,.cls-11,.cls-9{fill:none;stroke-width:2px;}.cls-9{stroke:#335215;}.cls-11,.cls-9{stroke-linejoin:round;}.cls-10{stroke:#755403;stroke-miterlimit:10;}.cls-11{stroke:#6e071c;}.cls-12{fill:#cfd0d2;mix-blend-mode:multiply;}.cls-13{fill:#feede1;}.cls-14{fill:#dfcfc4;}.cls-15{fill:#e5c94f;}.cls-16{fill:#fff;}.cls-17{fill:#142339;}.cls-18{fill:#ea821b;}</style></defs><g class="cls-1"><g id="Capa_2" data-name="Capa 2"><g id="Capa_1-2" data-name="Capa 1"><rect class="cls-2" x="169.88" y="159.06" width="90.92" height="22.47" rx="3"/><rect class="cls-2" x="264.41" y="159.06" width="90.92" height="22.47" rx="3"/><rect class="cls-3" x="358.95" y="159.06" width="90.92" height="22.47" rx="3"/><rect class="cls-4" x="453.48" y="159.06" width="90.92" height="22.47" rx="3"/><rect class="cls-4" x="548.02" y="159.06" width="90.92" height="22.47" rx="3"/><rect class="cls-5" x="169.88" y="185.14" width="90.92" height="22.47" rx="3"/><rect class="cls-2" x="264.41" y="185.14" width="90.92" height="22.47" rx="3"/><rect class="cls-3" x="358.95" y="185.14" width="90.92" height="22.47" rx="3"/><rect class="cls-4" x="453.48" y="185.14" width="90.92" height="22.47" rx="3"/><rect class="cls-4" x="548.02" y="185.14" width="90.92" height="22.47" rx="3"/><rect class="cls-5" x="169.88" y="211.22" width="90.92" height="22.47" rx="3"/><rect class="cls-2" x="264.41" y="211.22" width="90.92" height="22.47" rx="3"/><rect class="cls-2" x="358.95" y="211.22" width="90.92" height="22.47" rx="3"/><rect class="cls-3" x="453.48" y="211.22" width="90.92" height="22.47" rx="3"/><rect class="cls-4" x="548.02" y="211.22" width="90.92" height="22.47" rx="3"/><rect class="cls-5" x="169.88" y="237.3" width="90.92" height="22.47" rx="3"/><rect class="cls-5" x="264.41" y="237.3" width="90.92" height="22.47" rx="3"/><rect class="cls-2" x="358.95" y="237.3" width="90.92" height="22.47" rx="3"/><rect class="cls-3" x="453.48" y="237.3" width="90.92" height="22.47" rx="3"/><rect class="cls-4" x="548.02" y="237.3" width="90.92" height="22.47" rx="3"/><rect class="cls-5" x="169.88" y="263.38" width="90.92" height="22.47" rx="3"/><rect class="cls-5" x="264.41" y="263.38" width="90.92" height="22.47" rx="3"/><rect class="cls-5" x="358.95" y="263.38" width="90.92" height="22.47" rx="3"/><rect class="cls-2" x="453.48" y="263.38" width="90.92" height="22.47" rx="3"/><rect class="cls-3" x="548.02" y="263.38" width="90.92" height="22.47" rx="3"/><path class="cls-6" d="M260,185.94v48.43a3.74,3.74,0,0,0,3.73,3.73h90.81v22.35a3.73,3.73,0,0,0,3.73,3.73h90.81v20.87H170.67V185.94H260m.28-2H170.4a1.73,1.73,0,0,0-1.73,1.73v99.66a1.73,1.73,0,0,0,1.73,1.72h279a1.73,1.73,0,0,0,1.73-1.72V263.91a1.73,1.73,0,0,0-1.73-1.73H358.27a1.72,1.72,0,0,1-1.73-1.73V237.83a1.72,1.72,0,0,0-1.73-1.73H263.73a1.73,1.73,0,0,1-1.73-1.73v-48.7a1.72,1.72,0,0,0-1.72-1.73Z"/><path class="cls-7" d="M449.08,159.86v48.43A3.73,3.73,0,0,0,452.8,212h90.81v48.43a3.73,3.73,0,0,0,3.73,3.73h90.81v20.87H454.28V262.7a3.74,3.74,0,0,0-3.73-3.73H359.74V236.62a3.73,3.73,0,0,0-3.72-3.73H265.21V184.46a3.74,3.74,0,0,0-3.73-3.73H170.67V159.86H449.08m.27-2h-279a1.73,1.73,0,0,0-1.73,1.73V181a1.73,1.73,0,0,0,1.73,1.72h91.08a1.73,1.73,0,0,1,1.73,1.73v48.71a1.72,1.72,0,0,0,1.72,1.72H356a1.73,1.73,0,0,1,1.72,1.73v22.63a1.73,1.73,0,0,0,1.73,1.72h91.08a1.73,1.73,0,0,1,1.73,1.73v22.63a1.72,1.72,0,0,0,1.73,1.72H638.42a1.73,1.73,0,0,0,1.73-1.72V263.91a1.73,1.73,0,0,0-1.73-1.73H547.34a1.72,1.72,0,0,1-1.73-1.73V211.74a1.72,1.72,0,0,0-1.72-1.72H452.8a1.72,1.72,0,0,1-1.72-1.73v-48.7a1.73,1.73,0,0,0-1.73-1.73Z"/><path class="cls-8" d="M638.15,159.86V259H548.82V210.54a3.74,3.74,0,0,0-3.73-3.73H454.28V159.86H638.15m.27-2H454a1.72,1.72,0,0,0-1.73,1.73v47.5a1.72,1.72,0,0,0,1.73,1.72h91.08a1.74,1.74,0,0,1,1.73,1.73v48.71a1.72,1.72,0,0,0,1.72,1.72h89.88a1.73,1.73,0,0,0,1.73-1.72V159.59a1.73,1.73,0,0,0-1.73-1.73Z"/><path class="cls-9" d="M122.52,274.62s19.74-31.51,107.33-26.23"/><polygon class="cls-6" points="225.72 251.65 229.26 248.41 226.02 244.88 228.89 245 232.13 248.54 228.6 251.78 225.72 251.65"/><path class="cls-10" d="M492.9,336s-107.93,5-58.64-105.67"/><polygon class="cls-7" points="435.85 235.39 434.07 230.94 429.62 232.72 430.75 230.07 435.2 228.29 436.98 232.74 435.85 235.39"/><path class="cls-10" d="M687.3,293c-1.37.34-111.61,18.71-164.31-41.16"/><polygon class="cls-7" points="528.22 252.46 523.43 252.22 523.19 257.01 521.26 254.88 521.5 250.09 526.28 250.32 528.22 252.46"/><path class="cls-11" d="M680.05,133.28S601.42,138,585.4,194.17"/><polygon class="cls-8" points="583.32 189.41 585.62 193.62 589.83 191.31 589.02 194.08 584.81 196.38 582.51 192.17 583.32 189.41"/><path class="cls-11" d="M521.5,133.1s5.36,25.36-24.7,38.41"/><polygon class="cls-8" points="499.15 166.82 497.34 171.27 501.78 173.07 499.13 174.19 494.69 172.38 496.49 167.94 499.15 166.82"/><polygon class="cls-12" points="484.94 10.42 480.1 125.03 480.1 125.03 480.1 125.03 498.77 144.3 612.38 149.09 618 16.04 484.94 10.42"/><polygon class="cls-13" points="615.72 13.77 482.67 8.15 477.82 122.75 496.5 142.03 610.1 146.82 615.72 13.77"/><polygon class="cls-14" points="496.5 142.03 477.82 122.75 497.28 123.58 496.5 142.03"/><path class="cls-15" d="M596.85,3.33,530.7,0c-.18,1-.5,2.09-.56,2.63a73.22,73.22,0,0,0-.48,11.08l67.15,3.37c0-3.06,0-6.13.07-9.2C596.91,6.5,596.75,4.83,596.85,3.33Z"/><rect class="cls-4" x="502.79" y="47.05" width="88.33" height="33.92" rx="7.12" transform="translate(3.19 -23.02) rotate(2.42)"/><path class="cls-16" d="M515.38,58.39a1.06,1.06,0,0,1,1.2-1.12l2.64.11c2.31.1,3.69,1.19,3.59,3.55a2.92,2.92,0,0,1-2.89,2.71l2.43,2.83a1,1,0,0,1,.27.68,1.14,1.14,0,0,1-1.17,1.1,1.18,1.18,0,0,1-.86-.42l-3.15-4.17h0l-.14,3.26a1.13,1.13,0,1,1-2.25-.1Zm2.1,3.65,1.54.06a1.27,1.27,0,0,0,1.45-1.27,1.25,1.25,0,0,0-1.34-1.38l-1.54-.07Z"/><path class="cls-16" d="M523.7,58.88c0-.75.43-1.29,1.23-1.26l3.72.16a1,1,0,0,1,1,1.08,1,1,0,0,1-1.11,1l-2.64-.11-.09,2.19,2.46.11a1,1,0,0,1,1.05,1.08,1,1,0,0,1-1.14,1l-2.46-.1-.09,2.28,2.77.12a1,1,0,0,1,1,1.07,1,1,0,0,1-1.11,1l-3.87-.16a1.09,1.09,0,0,1-1.1-1.17Z"/><path class="cls-16" d="M533.13,59a1.75,1.75,0,0,1,1.65-1.17,1.68,1.68,0,0,1,1.55,1.31l2.6,8.27A1.6,1.6,0,0,1,539,68,1,1,0,0,1,538,69a1.05,1.05,0,0,1-1.06-.83l-.39-1.42-4.17-.18-.51,1.38a1,1,0,0,1-1.11.74,1.08,1.08,0,0,1-1.07-1.09,1.53,1.53,0,0,1,.13-.49Zm-.07,5.45,2.85.12-1.21-4.4h0Z"/><path class="cls-16" d="M544.88,58.28c1.1,0,3.21.5,3.16,1.82a1,1,0,0,1-1,1c-.61,0-1-.56-2.27-.62-1.86-.08-2.88,1.46-3,3.28s.84,3.36,2.68,3.44c1.26,0,1.79-.56,2.41-.53a1,1,0,0,1,.94,1.06c-.06,1.44-2.33,1.67-3.44,1.62a5.19,5.19,0,0,1-4.92-5.73C539.63,60.46,541.83,58.16,544.88,58.28Z"/><path class="cls-16" d="M551,60.79l-1.64-.06a1,1,0,0,1-1-1.08,1,1,0,0,1,1.06-1l5.52.23A1,1,0,0,1,556,60a1,1,0,0,1-1.06,1l-1.63-.07-.32,7.52a1.13,1.13,0,1,1-2.25-.09Z"/><path class="cls-16" d="M556.45,60a1.07,1.07,0,0,1,1.17-1.12,1.08,1.08,0,0,1,1.07,1.22l-.36,8.51a1.12,1.12,0,1,1-2.24-.1Z"/><path class="cls-16" d="M559.39,60.62a1.49,1.49,0,0,1-.08-.56,1.13,1.13,0,0,1,1.2-1,1.15,1.15,0,0,1,1,.78l2.06,6.33L566.14,60a1.13,1.13,0,0,1,1.06-.69,1.11,1.11,0,0,1,1.1,1.12,1.31,1.31,0,0,1-.13.55l-3.63,8.21a1.12,1.12,0,0,1-1.14.82c-.66,0-.9-.42-1.08-.91Z"/><path class="cls-16" d="M568.31,64.8c.14-3.12,2.34-5.43,5.39-5.3a5.25,5.25,0,0,1,4.92,5.73c-.13,3.11-2.31,5.43-5.38,5.3A5.2,5.2,0,0,1,568.31,64.8Zm8,.33c.07-1.81-.8-3.48-2.67-3.56s-2.89,1.51-3,3.33.77,3.48,2.67,3.56S576.21,67,576.29,65.13Z"/><path class="cls-17" d="M520.83,87.65a.85.85,0,0,1,1-.89l2.13.09a2.84,2.84,0,0,1,2.94,3,2.81,2.81,0,0,1-3.11,2.71l-1.33,0-.09,2a.86.86,0,0,1-.94.9.85.85,0,0,1-.85-1Zm1.66,3.27,1.23,0a1.27,1.27,0,0,0,.1-2.54l-1.22-.06Z"/><path class="cls-17" d="M527.45,87.26a.87.87,0,1,1,1.73.07l-.31,7.38a.87.87,0,1,1-1.73-.07Z"/><path class="cls-17" d="M535.73,94.84c0,.44-.05,1.12-.87,1.09-.51,0-.7-.31-.8-.77a2.07,2.07,0,0,1-1.68.73c-1.61-.06-2.79-1.49-2.71-3.44a3.1,3.1,0,0,1,3-3.22,2,2,0,0,1,1.61.86.82.82,0,0,1,.86-.68c.83,0,.8.72.78,1.16Zm-3-.52c.9,0,1.37-.85,1.4-1.68s-.34-1.78-1.25-1.82-1.41.88-1.44,1.71A1.54,1.54,0,0,0,532.69,94.32Z"/><path class="cls-17" d="M536.9,90.44a.88.88,0,0,1,.91-.92.73.73,0,0,1,.76.67,1.88,1.88,0,0,1,1.7-.64A2.22,2.22,0,0,1,542.53,92l-.14,3.3a.87.87,0,1,1-1.73-.07l.13-3a1.12,1.12,0,1,0-2.23-.09l-.13,3a.87.87,0,1,1-1.72-.07Z"/><path class="cls-17" d="M546.78,90.86a.88.88,0,0,1,.91-.92.83.83,0,0,1,.83.75,1.91,1.91,0,0,1,1.67-.72c1.86.08,2.71,1.86,2.64,3.54a3.05,3.05,0,0,1-3,3.12,2.48,2.48,0,0,1-1.56-.66l-.09,2.1a.87.87,0,0,1-.9.93.88.88,0,0,1-.82-1ZM549.69,95c.9,0,1.38-.88,1.42-1.68s-.37-1.78-1.27-1.82-1.39.81-1.43,1.65S548.74,95,549.69,95Z"/><path class="cls-17" d="M559.37,95.83c0,.45,0,1.13-.87,1.1-.51,0-.7-.31-.8-.77a2,2,0,0,1-1.67.73,3,3,0,0,1-2.72-3.44,3.1,3.1,0,0,1,3-3.22,2,2,0,0,1,1.61.86.8.8,0,0,1,.85-.68c.83,0,.8.71.78,1.16Zm-3-.51c.9,0,1.37-.85,1.41-1.68s-.35-1.78-1.26-1.82-1.41.88-1.44,1.71A1.54,1.54,0,0,0,556.33,95.32Z"/><path class="cls-17" d="M560.53,91.34a.84.84,0,0,1,.92-.82c.45,0,.83.2.81.75h0a1.35,1.35,0,0,1,1.24-.66.84.84,0,0,1,.8,1c0,.57-.54.58-1.06.8s-1.07.42-1.1,1.11l-.11,2.64a.87.87,0,1,1-1.72-.07Z"/><path class="cls-17" d="M570.25,96.29c0,.45,0,1.13-.88,1.1-.5,0-.69-.31-.79-.77a2.07,2.07,0,0,1-1.68.73c-1.62-.07-2.79-1.5-2.71-3.44a3.09,3.09,0,0,1,3-3.22,2,2,0,0,1,1.61.86.82.82,0,0,1,.86-.68c.82,0,.8.71.78,1.16Zm-3-.51c.9,0,1.37-.85,1.4-1.68s-.35-1.78-1.26-1.82-1.4.88-1.44,1.7S566.27,95.74,567.21,95.78Z"/><path class="cls-17" d="M507.23,102a1.48,1.48,0,0,0,1.57,1.31c.89,0,1.53-.63,2-.61a.76.76,0,0,1,.67.77c0,.75-1.59,1.4-2.87,1.35a3.14,3.14,0,0,1-3.1-3.46,3.1,3.1,0,1,1,6.2.06c0,.51-.26.76-.78.73Zm2.75-1a1.36,1.36,0,0,0-1.32-1.37,1.39,1.39,0,0,0-1.42,1.26Z"/><path class="cls-17" d="M512,99.71a1.14,1.14,0,0,1-.09-.51.84.84,0,0,1,.93-.8.79.79,0,0,1,.74.65l1,3.45h0l1.24-3.36a.8.8,0,0,1,.8-.58.84.84,0,0,1,.86.88,1.37,1.37,0,0,1-.13.5l-1.93,4.38c-.18.44-.37.71-1,.68s-.76-.31-.9-.76Z"/><path class="cls-17" d="M519.2,102.51a1.5,1.5,0,0,0,1.58,1.32c.89,0,1.53-.63,2-.61a.75.75,0,0,1,.67.77c0,.74-1.59,1.4-2.88,1.34a3.14,3.14,0,0,1-3.09-3.45,3.1,3.1,0,1,1,6.2.05c0,.52-.26.76-.79.74Zm2.76-1a1.37,1.37,0,0,0-1.32-1.38,1.39,1.39,0,0,0-1.42,1.26Z"/><path class="cls-17" d="M524.37,99.85a.88.88,0,0,1,.91-.92.73.73,0,0,1,.76.67,1.9,1.9,0,0,1,1.7-.64,2.22,2.22,0,0,1,2.26,2.43l-.14,3.3a.87.87,0,0,1-.9.93.88.88,0,0,1-.83-1l.13-3a1.06,1.06,0,0,0-1.07-1.23,1.09,1.09,0,0,0-1.16,1.14l-.12,3a.87.87,0,1,1-1.73-.08Z"/><path class="cls-17" d="M531.43,100.77h-.38a.7.7,0,0,1-.72-.79.73.73,0,0,1,.78-.72h.39l0-1a.87.87,0,1,1,1.73.08l0,1,.49,0c.45,0,.82.24.8.79a.73.73,0,0,1-.86.72l-.49,0-.17,4a.87.87,0,1,1-1.72-.08Z"/><path class="cls-17" d="M540.42,102.85a3.1,3.1,0,1,1-6.18-.26,3.1,3.1,0,1,1,6.18.26Zm-4.46-.19c0,.82.36,1.75,1.3,1.79s1.4-.85,1.44-1.68-.35-1.78-1.29-1.82S536,101.83,536,102.66Z"/><path class="cls-17" d="M544.84,101.7c-.32,0-1-.55-1.52-.57-.31,0-.59.12-.61.46,0,.8,3,.81,2.89,2.77-.05,1.15-1.06,2-2.55,1.92-1,0-2.38-.65-2.35-1.43a.81.81,0,0,1,.78-.73c.67,0,.94.62,1.76.66.53,0,.69-.14.7-.47,0-.79-3-.79-2.88-2.77a2.09,2.09,0,0,1,2.42-1.91c.85,0,2.14.48,2.1,1.33A.74.74,0,0,1,544.84,101.7Z"/><path class="cls-17" d="M553.83,102c-.43,0-.8-.37-1.35-.39-1,0-1.49.81-1.53,1.7a1.59,1.59,0,0,0,1.38,1.8,8.34,8.34,0,0,0,1.3-.31.77.77,0,0,1,.71.79c0,.89-1.54,1.12-2.16,1.1a3.14,3.14,0,0,1-2.95-3.45,3.2,3.2,0,0,1,3.23-3.21c.68,0,2.1.34,2.06,1.18C554.51,101.54,554.24,102,553.83,102Z"/><path class="cls-17" d="M555.11,101.05a.84.84,0,0,1,.92-.82c.46,0,.83.2.81.75h0a1.36,1.36,0,0,1,1.24-.66.83.83,0,0,1,.8,1c0,.57-.54.58-1.06.8s-1.06.42-1.09,1.11l-.12,2.64a.87.87,0,1,1-1.72-.07Z"/><path class="cls-17" d="M560.48,97.72a1.37,1.37,0,0,1,.46-.11.78.78,0,0,1,.62.78.69.69,0,0,1-.52.68l-1.37.47c-.35.11-.24.11-.48.1s-.62-.48-.6-.9a.6.6,0,0,1,.36-.47l.1,0Zm-1.38,3.6a.87.87,0,1,1,1.72.07l-.19,4.6a.87.87,0,1,1-1.73-.07Z"/><path class="cls-17" d="M562.17,102.07h-.38a.7.7,0,0,1-.72-.79.73.73,0,0,1,.78-.72h.39l0-1a.87.87,0,1,1,1.73.07l0,1,.49,0c.45,0,.82.23.8.79a.74.74,0,0,1-.86.72l-.49,0-.17,4a.87.87,0,1,1-1.72-.07Z"/><path class="cls-17" d="M565.31,101.58a.87.87,0,1,1,1.72.07l-.19,4.6a.87.87,0,1,1-1.73-.07Zm1.94-2.52a1,1,0,0,1-1,1,1,1,0,0,1-.93-1,1,1,0,0,1,1.94.09Z"/><path class="cls-17" d="M572.24,102.76c-.43,0-.8-.37-1.35-.39-1,0-1.49.81-1.52,1.7a1.59,1.59,0,0,0,1.37,1.8,9,9,0,0,0,1.3-.31.76.76,0,0,1,.71.79c0,.88-1.53,1.12-2.16,1.1a3.15,3.15,0,0,1-3-3.45,3.23,3.23,0,0,1,3.23-3.22c.69,0,2.1.34,2.07,1.18C572.92,102.32,572.65,102.78,572.24,102.76Z"/><path class="cls-17" d="M579.38,104.49a3.11,3.11,0,1,1-6.19-.26,3.11,3.11,0,1,1,6.19.26Zm-4.46-.19c0,.83.36,1.76,1.29,1.8s1.41-.85,1.44-1.68-.35-1.78-1.29-1.82S575,103.48,574.92,104.3Z"/><path class="cls-17" d="M583.8,103.34c-.33,0-1-.54-1.53-.56-.31,0-.59.12-.61.45,0,.8,3,.81,2.89,2.78a2.18,2.18,0,0,1-2.54,1.92c-1,0-2.39-.66-2.35-1.43a.81.81,0,0,1,.77-.74c.67,0,.94.63,1.76.66.53,0,.69-.14.7-.46,0-.79-3-.8-2.88-2.77a2.1,2.1,0,0,1,2.42-1.92c.85,0,2.14.49,2.11,1.34A.75.75,0,0,1,583.8,103.34Z"/><polygon class="cls-12" points="800.69 66.22 805.53 180.82 805.53 180.82 805.53 180.82 786.85 200.09 673.25 204.89 667.63 71.83 800.69 66.22"/><polygon class="cls-13" points="665.32 69.56 798.37 63.94 803.21 178.55 784.54 197.82 670.93 202.62 665.32 69.56"/><polygon class="cls-14" points="784.54 197.82 803.21 178.55 783.76 179.37 784.54 197.82"/><path class="cls-15" d="M716.53,59.12l66.14-3.32c.19,1,.51,2.08.57,2.62a73.27,73.27,0,0,1,.48,11.08l-67.15,3.38c0-3.07,0-6.13-.07-9.2C716.47,62.3,716.63,60.63,716.53,59.12Z"/><rect class="cls-5" x="689.92" y="102.85" width="88.33" height="33.92" rx="7.12" transform="translate(-4.4 31.08) rotate(-2.42)"/><path class="cls-16" d="M695.91,117.12a1.07,1.07,0,0,1,1.12-1.21l2.66-.12a3.57,3.57,0,0,1,4,3.42,3.51,3.51,0,0,1-3.59,3.71l-1.67.07.11,2.46a1.13,1.13,0,1,1-2.25.1Zm2.42,3.9,1.53-.07a1.59,1.59,0,0,0-.14-3.18l-1.52.07Z"/><path class="cls-16" d="M704.25,116.77a1,1,0,0,1,1.1-1.21l2.64-.12c2.31-.09,3.77.88,3.87,3.23a2.9,2.9,0,0,1-2.65,3l2.66,2.62a1,1,0,0,1,.33.65,1.16,1.16,0,0,1-1.08,1.2,1.18,1.18,0,0,1-.88-.35l-3.5-3.89h0l.14,3.25a1.13,1.13,0,1,1-2.25.09Zm2.39,3.46,1.55-.07a1.33,1.33,0,1,0-.11-2.65l-1.55.07Z"/><path class="cls-16" d="M712.58,116.56a1.15,1.15,0,0,1,1.12-1.36l3.71-.15a1,1,0,0,1,1.11,1,1,1,0,0,1-1,1.08l-2.64.11.1,2.19,2.45-.1a1,1,0,0,1,1.14,1,1,1,0,0,1-1,1.08l-2.46.1.1,2.28,2.77-.12a1,1,0,0,1,1.11,1,1,1,0,0,1-1,1.08l-3.87.16a1.09,1.09,0,0,1-1.2-1.07Z"/><path class="cls-16" d="M719.52,116.11a1.1,1.1,0,0,1,1.1-1.2l2.49-.1c3.36-.15,5.37,1.93,5.51,5.26a4.86,4.86,0,0,1-4.91,5.4l-2.61.11a1.1,1.1,0,0,1-1.23-1.07Zm2.56,7.36,1.51-.07c1.94-.08,2.76-1.54,2.68-3.34s-1-3.27-3.1-3.19l-1.37.06Z"/><path class="cls-16" d="M729.51,115.62a1.13,1.13,0,1,1,2.25-.1l.36,8.51a1.13,1.13,0,1,1-2.25.1Z"/><path class="cls-16" d="M737.79,114c1.09-.05,3.24.22,3.29,1.54a1,1,0,0,1-.89,1c-.61,0-1.05-.48-2.31-.43-1.86.08-2.75,1.7-2.68,3.52s1.12,3.27,3,3.2c1.26-.06,1.74-.71,2.36-.73a1,1,0,0,1,1,1c.06,1.44-2.19,1.87-3.3,1.92a5.2,5.2,0,0,1-5.38-5.3C732.73,116.62,734.73,114.13,737.79,114Z"/><path class="cls-16" d="M744.1,116l-1.63.07a1,1,0,0,1-1.06-1,1,1,0,0,1,1-1.08l5.52-.23a1,1,0,0,1,1.06,1,1,1,0,0,1-1,1.08l-1.63.07.32,7.52a1.13,1.13,0,1,1-2.25.09Z"/><path class="cls-16" d="M749.46,114.77a1.12,1.12,0,1,1,2.24-.09l.36,8.51a1.12,1.12,0,1,1-2.24.1Z"/><path class="cls-16" d="M752.44,115.11a1.3,1.3,0,0,1-.12-.55,1.12,1.12,0,0,1,2.15-.43l2.59,6.13,2.06-6.33a1.15,1.15,0,0,1,1-.78,1.13,1.13,0,0,1,1.2,1,1.35,1.35,0,0,1-.09.56l-2.92,8.49c-.18.49-.42.89-1.08.91a1.11,1.11,0,0,1-1.14-.82Z"/><path class="cls-16" d="M761.69,118.52c-.14-3.12,1.86-5.6,4.92-5.73a5.25,5.25,0,0,1,5.39,5.3c.13,3.1-1.85,5.6-4.93,5.73A5.19,5.19,0,0,1,761.69,118.52Zm8-.34c-.08-1.81-1.09-3.4-3-3.32s-2.74,1.75-2.67,3.56,1.06,3.41,3,3.33S769.74,120,769.66,118.18Z"/><path class="cls-17" d="M683.24,146.69a.86.86,0,0,1,.9-1l2.12-.09a2.86,2.86,0,1,1,.31,5.7l-1.33.06.09,2a.86.86,0,0,1-.86,1,.85.85,0,0,1-.94-.89Zm1.94,3.11,1.22-.05a1.27,1.27,0,0,0-.11-2.54l-1.22,0Z"/><path class="cls-17" d="M689.81,145.74a.87.87,0,1,1,1.73-.07l.31,7.38a.87.87,0,1,1-1.73.08Z"/><path class="cls-17" d="M698.7,152.59c0,.45,0,1.13-.78,1.17-.51,0-.72-.25-.86-.7a2.06,2.06,0,0,1-1.61.87c-1.62.07-2.91-1.26-3-3.2a3.1,3.1,0,0,1,2.71-3.46,2,2,0,0,1,1.67.72.82.82,0,0,1,.8-.75c.83,0,.86.65.88,1.09Zm-3.08-.25c.9,0,1.3-1,1.26-1.79s-.49-1.75-1.4-1.71-1.33,1-1.3,1.82S694.69,152.38,695.62,152.34Z"/><path class="cls-17" d="M699.5,148.12a.86.86,0,0,1,.82-1,.73.73,0,0,1,.82.6,1.85,1.85,0,0,1,1.63-.78,2.21,2.21,0,0,1,2.46,2.22l.14,3.31a.87.87,0,1,1-1.73.07l-.12-3a1.12,1.12,0,1,0-2.23.09l.12,3a.87.87,0,1,1-1.72.07Z"/><path class="cls-17" d="M715.46,152.05a.87.87,0,0,1-.82,1,.82.82,0,0,1-.89-.68,1.86,1.86,0,0,1-1.55.85,3,3,0,0,1-3-3.12c-.07-1.68.78-3.46,2.64-3.54a2.58,2.58,0,0,1,1.67.53l-.1-2.34a.87.87,0,1,1,1.72-.08Zm-3.25-3.92c-.9,0-1.3,1-1.26,1.82s.51,1.72,1.41,1.68,1.31-1,1.28-1.85S713.14,148.09,712.21,148.13Z"/><path class="cls-17" d="M717.77,150.23a1.5,1.5,0,0,0,1.68,1.18c.89,0,1.47-.76,1.92-.78a.75.75,0,0,1,.74.71c0,.75-1.47,1.53-2.75,1.58a3.15,3.15,0,0,1-3.38-3.18,3.11,3.11,0,1,1,6.19-.47c0,.52-.2.78-.72.8Zm2.66-1.27A1.37,1.37,0,0,0,719,147.7a1.41,1.41,0,0,0-1.31,1.38Z"/><path class="cls-17" d="M730.23,147.71c-.43,0-.82-.3-1.38-.28a1.56,1.56,0,0,0-1.37,1.82,1.59,1.59,0,0,0,1.52,1.68,9.57,9.57,0,0,0,1.27-.41.74.74,0,0,1,.77.72c0,.89-1.43,1.25-2.06,1.28a3.15,3.15,0,0,1-3.23-3.19,3.22,3.22,0,0,1,3-3.48c.69,0,2.12.17,2.16,1C730.87,147.21,730.64,147.69,730.23,147.71Z"/><path class="cls-17" d="M737.49,148.83a3.11,3.11,0,1,1-6.19.26,3.11,3.11,0,1,1,6.19-.26ZM733,149c0,.83.51,1.72,1.44,1.68s1.33-1,1.29-1.8-.49-1.74-1.44-1.7S733,148.19,733,149Z"/><path class="cls-17" d="M738.12,146.49a.88.88,0,0,1,.83-1,.72.72,0,0,1,.81.6,1.86,1.86,0,0,1,1.64-.77,2.21,2.21,0,0,1,2.46,2.22l.14,3.31a.87.87,0,1,1-1.73.07l-.12-3a1.12,1.12,0,1,0-2.23.09l.12,3a.87.87,0,1,1-1.72.07Z"/><path class="cls-17" d="M745.24,146.81l-.39,0a.7.7,0,0,1-.78-.73.73.73,0,0,1,.72-.78l.38,0,0-1a.87.87,0,1,1,1.72-.07l0,1,.49,0a.73.73,0,0,1,.86.72c0,.54-.35.77-.8.79l-.49,0,.17,4a.87.87,0,1,1-1.73.07Z"/><path class="cls-17" d="M750,143.38a1,1,0,0,1-.93,1,1,1,0,0,1-.08-1.95A1,1,0,0,1,750,143.38Zm-1.73,2.68A.87.87,0,1,1,750,146l.19,4.61a.87.87,0,1,1-1.72.07Z"/><path class="cls-17" d="M751,145.94a.87.87,0,0,1,.82-1,.73.73,0,0,1,.82.6,1.89,1.89,0,0,1,1.64-.78,2.23,2.23,0,0,1,2.46,2.23l.13,3.31a.86.86,0,0,1-.82,1,.87.87,0,0,1-.9-.92l-.13-3a1.12,1.12,0,1,0-2.23.1l.13,3a.87.87,0,1,1-1.73.08Z"/><path class="cls-17" d="M757.67,145.66a.87.87,0,1,1,1.72-.07l.13,3.08a1.12,1.12,0,1,0,2.23-.09l-.13-3.08a.87.87,0,1,1,1.73-.08l.13,3.12c.06,1.53-.91,2.56-2.74,2.64s-2.88-.87-2.94-2.4Z"/><path class="cls-17" d="M766,142.7a1,1,0,0,1-.93,1,1,1,0,0,1-1-1,1,1,0,0,1,.93-1A1,1,0,0,1,766,142.7Zm-1.72,2.68a.87.87,0,1,1,1.72-.07l.2,4.6a.87.87,0,1,1-1.73.07Z"/><path class="cls-17" d="M773.08,149.62a.87.87,0,0,1-.82,1,.83.83,0,0,1-.89-.69,1.87,1.87,0,0,1-1.55.86,3.06,3.06,0,0,1-3-3.13c-.07-1.67.78-3.45,2.64-3.53a2.58,2.58,0,0,1,1.67.53l-.1-2.35a.87.87,0,1,1,1.72-.07Zm-3.25-3.92c-.9,0-1.3,1-1.26,1.82s.51,1.72,1.41,1.68,1.31-1,1.28-1.85S770.76,145.66,769.83,145.7Z"/><path class="cls-17" d="M780,149.16c0,.45,0,1.13-.78,1.16-.5,0-.72-.24-.86-.69a2.09,2.09,0,0,1-1.61.87,3,3,0,0,1-3-3.2,3.1,3.1,0,0,1,2.71-3.46,2,2,0,0,1,1.68.72.81.81,0,0,1,.79-.75c.83,0,.86.64.88,1.09Zm-3.07-.25c.9,0,1.29-1,1.25-1.8s-.49-1.74-1.4-1.7-1.33,1-1.29,1.82S776,149,776.89,148.91Z"/><path class="cls-17" d="M786.85,149a.88.88,0,0,1-.83,1,.84.84,0,0,1-.89-.69,1.87,1.87,0,0,1-1.55.86,3.06,3.06,0,0,1-3-3.13c-.07-1.67.78-3.45,2.63-3.53a2.51,2.51,0,0,1,1.67.53l-.1-2.35a.87.87,0,1,1,1.73-.07Zm-3.25-3.92c-.9,0-1.31,1-1.27,1.82s.52,1.72,1.41,1.68,1.32-1,1.28-1.86S784.52,145.08,783.6,145.12Z"/><path class="cls-17" d="M711.61,162.16a.87.87,0,0,1-.82,1,.83.83,0,0,1-.9-.68,1.9,1.9,0,0,1-1.55.86,3.06,3.06,0,0,1-3-3.13c-.07-1.68.78-3.46,2.63-3.53a2.5,2.5,0,0,1,1.67.52l-.1-2.34a.87.87,0,1,1,1.73-.08Zm-3.25-3.93c-.9,0-1.3,1-1.27,1.82s.52,1.72,1.42,1.68,1.31-1,1.27-1.85S709.28,158.2,708.36,158.23Z"/><path class="cls-17" d="M713.91,160.33a1.5,1.5,0,0,0,1.68,1.18c.89,0,1.47-.76,1.93-.78a.77.77,0,0,1,.74.71c0,.74-1.48,1.53-2.76,1.58a3.14,3.14,0,0,1-3.37-3.18,3.1,3.1,0,1,1,6.18-.46c0,.51-.19.77-.72.79Zm2.66-1.27a1.37,1.37,0,0,0-1.43-1.26,1.4,1.4,0,0,0-1.31,1.38Z"/><path class="cls-17" d="M718.7,154.46a.87.87,0,1,1,1.72-.07l.31,7.38a.87.87,0,1,1-1.72.07Z"/><path class="cls-17" d="M724.71,157a.87.87,0,0,1,.83-1,.72.72,0,0,1,.81.6,1.89,1.89,0,0,1,1.64-.78,2.21,2.21,0,0,1,2.46,2.23l.14,3.3a.87.87,0,1,1-1.73.08l-.13-3a1.11,1.11,0,1,0-2.22.09l.12,3a.87.87,0,1,1-1.72.07Z"/><path class="cls-17" d="M732.89,159.53a1.5,1.5,0,0,0,1.68,1.18c.89,0,1.47-.76,1.93-.78a.77.77,0,0,1,.74.71c0,.74-1.48,1.53-2.76,1.58a3.14,3.14,0,0,1-3.37-3.18,3.1,3.1,0,1,1,6.18-.47c0,.52-.19.78-.72.8Zm2.66-1.27a1.37,1.37,0,0,0-1.43-1.26,1.39,1.39,0,0,0-1.31,1.38Z"/><path class="cls-17" d="M743.92,161.17c.09,2.08-1.22,3.18-3.18,3.26-.71,0-2.74-.23-2.78-1.18a.84.84,0,0,1,.66-.78c.55,0,1.19.49,2.18.45a1.34,1.34,0,0,0,1.41-1.43l0-.41h0a2,2,0,0,1-1.71.89c-1.81.08-2.72-1.48-2.8-3.2s1-3.4,2.7-3.47A1.88,1.88,0,0,1,742,156a.82.82,0,0,1,.83-.75.87.87,0,0,1,.9.92Zm-3.26-4.3c-.9,0-1.31,1-1.27,1.8s.52,1.74,1.41,1.7,1.32-.92,1.29-1.76S741.6,156.83,740.66,156.87Z"/><path class="cls-17" d="M750.73,158.21a3.11,3.11,0,1,1-6.19.26,3.11,3.11,0,1,1,6.19-.26Zm-4.46.19c0,.83.51,1.72,1.44,1.68s1.33-1,1.29-1.8-.49-1.74-1.44-1.7S746.24,157.57,746.27,158.4Z"/><path class="cls-17" d="M755.69,156.57c-.43,0-.83-.3-1.38-.28a1.78,1.78,0,0,0,.15,3.5,10.09,10.09,0,0,0,1.27-.41.76.76,0,0,1,.77.72c0,.89-1.43,1.25-2.06,1.28a3.14,3.14,0,0,1-3.23-3.19,3.21,3.21,0,0,1,2.95-3.47c.68,0,2.12.16,2.16,1C756.33,156.08,756.1,156.55,755.69,156.57Z"/><path class="cls-17" d="M758.62,153a1,1,0,0,1-.93,1,1,1,0,0,1-1-1,1,1,0,0,1,2-.08Zm-1.73,2.67a.87.87,0,1,1,1.73-.07l.19,4.6a.87.87,0,1,1-1.72.07Z"/><path class="cls-17" d="M765.61,157.58a3.11,3.11,0,1,1-6.19.26,3.11,3.11,0,1,1,6.19-.26Zm-4.46.19c0,.83.5,1.72,1.44,1.68s1.33-1,1.29-1.8-.49-1.74-1.44-1.7S761.11,156.94,761.15,157.77Z"/><polygon class="cls-12" points="806.81 370.86 811.65 256.26 811.65 256.26 811.65 256.26 792.97 236.99 679.37 232.19 673.75 365.25 806.81 370.86"/><polygon class="cls-13" points="671.46 362.88 804.52 368.5 809.36 253.89 790.68 234.62 677.08 229.82 671.46 362.88"/><polygon class="cls-14" points="790.68 234.62 809.36 253.89 789.9 253.07 790.68 234.62"/><path class="cls-15" d="M731.68,224.64l-43.46-2.18c-.14,1-.36,2.09-.42,2.63-.35,3.68-.51,7.39-.5,11.08l44.12,2.22c.05-3.07.11-6.13.2-9.2C731.67,227.82,731.59,226.15,731.68,224.64Z"/><rect class="cls-4" x="697.2" y="268.73" width="88.33" height="33.92" rx="7.12" transform="translate(12.71 -31.02) rotate(2.42)"/><path class="cls-16" d="M709.79,280.07A1.06,1.06,0,0,1,711,279l2.64.11c2.31.09,3.69,1.19,3.59,3.54a2.92,2.92,0,0,1-2.89,2.72l2.43,2.83a1,1,0,0,1,.27.67,1.14,1.14,0,0,1-1.17,1.11,1.12,1.12,0,0,1-.85-.43l-3.16-4.17h0l-.14,3.25a1.12,1.12,0,1,1-2.24-.09Zm2.1,3.64,1.54.07a1.28,1.28,0,0,0,1.45-1.28,1.25,1.25,0,0,0-1.34-1.37l-1.54-.07Z"/><path class="cls-16" d="M718.12,280.55c0-.75.43-1.29,1.22-1.25l3.72.16a1,1,0,0,1,1,1.07,1,1,0,0,1-1.11,1l-2.64-.11-.09,2.19,2.46.1a1,1,0,0,1,1,1.08,1,1,0,0,1-1.14,1l-2.46-.1-.09,2.28,2.77.11a1,1,0,0,1,1,1.08,1,1,0,0,1-1.11,1l-3.86-.16a1.1,1.1,0,0,1-1.11-1.17Z"/><path class="cls-16" d="M727.54,280.71a1.76,1.76,0,0,1,1.66-1.18,1.72,1.72,0,0,1,1.55,1.32l2.59,8.27a2,2,0,0,1,.1.56,1,1,0,0,1-1.08.95,1.05,1.05,0,0,1-1.06-.83l-.39-1.43-4.17-.17-.51,1.37a1,1,0,0,1-1.11.75,1.06,1.06,0,0,1-1.06-1.09,1.35,1.35,0,0,1,.12-.49Zm-.07,5.45,2.85.12-1.21-4.41h0Z"/><path class="cls-16" d="M739.3,280c1.09.05,3.2.5,3.15,1.82a1,1,0,0,1-1,1c-.62,0-1-.57-2.28-.62-1.85-.08-2.88,1.45-3,3.28s.84,3.36,2.68,3.43c1.26.06,1.8-.55,2.41-.53a1.06,1.06,0,0,1,.95,1.06c-.06,1.44-2.34,1.68-3.45,1.63a5.19,5.19,0,0,1-4.92-5.73C734,282.14,736.24,279.83,739.3,280Z"/><path class="cls-16" d="M745.42,282.47l-1.63-.07a1,1,0,0,1-1-1.07,1,1,0,0,1,1.06-1l5.52.24a1,1,0,0,1,1,1.07,1,1,0,0,1-1.07,1l-1.63-.07-.32,7.52a1.13,1.13,0,1,1-2.25-.1Z"/><path class="cls-16" d="M750.86,281.71a1.13,1.13,0,1,1,2.25.09l-.36,8.52a1.13,1.13,0,1,1-2.25-.1Z"/><path class="cls-16" d="M753.81,282.3a1.35,1.35,0,0,1-.09-.56,1.12,1.12,0,0,1,2.19-.25l2.06,6.33,2.59-6.14a1.12,1.12,0,0,1,2.16.44,1.48,1.48,0,0,1-.13.55L759,290.88a1.11,1.11,0,0,1-1.14.82,1.12,1.12,0,0,1-1.07-.91Z"/><path class="cls-16" d="M762.73,286.47c.13-3.11,2.33-5.42,5.39-5.29a5.24,5.24,0,0,1,4.92,5.73c-.13,3.1-2.32,5.43-5.39,5.3A5.2,5.2,0,0,1,762.73,286.47Zm8,.34c.08-1.81-.8-3.49-2.67-3.56s-2.89,1.51-3,3.32.77,3.49,2.68,3.57S770.62,288.64,770.7,286.81Z"/><path class="cls-17" d="M710.79,311.68c.75,0,1,.43,1,1.2a3.79,3.79,0,0,1-4.08,3.88,4.42,4.42,0,0,1,.38-8.81c1.81.07,3.26,1,3.22,1.82a.76.76,0,0,1-.78.81c-.81,0-.94-.91-2.51-1s-2.31,1.21-2.37,2.66.61,2.79,2.13,2.85a1.87,1.87,0,0,0,2.12-1.81l-1.22-.05a.83.83,0,1,1,.07-1.65Z"/><path class="cls-17" d="M712.56,311.33a.87.87,0,1,1,1.72.07l-.13,3.08a1.12,1.12,0,1,0,2.23.09l.13-3.07a.87.87,0,1,1,1.73.07l-.13,3.11c-.07,1.54-1.13,2.48-3,2.4s-2.8-1.1-2.73-2.64Z"/><path class="cls-17" d="M719.2,311.61a.87.87,0,1,1,1.73.07l-.2,4.6a.87.87,0,1,1-1.72-.07Zm1.94-2.52a1,1,0,0,1-1,1,1,1,0,0,1-.93-1,1,1,0,0,1,1-.9A1,1,0,0,1,721.14,309.09Z"/><path class="cls-17" d="M727.59,316.41c0,.44,0,1.12-.87,1.09-.5,0-.7-.31-.8-.77a2,2,0,0,1-1.67.73c-1.62-.06-2.8-1.49-2.71-3.44a3.1,3.1,0,0,1,3-3.22,2,2,0,0,1,1.61.86A.81.81,0,0,1,727,311c.82,0,.79.72.77,1.16Zm-3-.52c.9,0,1.37-.85,1.41-1.68s-.35-1.78-1.26-1.82-1.4.88-1.44,1.71S723.62,315.85,724.55,315.89Z"/><path class="cls-17" d="M732.36,313.15c-.33,0-1-.55-1.53-.57-.31,0-.59.12-.6.45,0,.81,3,.81,2.88,2.78a2.18,2.18,0,0,1-2.54,1.92c-1,0-2.39-.65-2.36-1.43a.83.83,0,0,1,.78-.74c.67,0,1,.63,1.76.67.53,0,.69-.14.7-.47,0-.79-3-.79-2.88-2.77a2.09,2.09,0,0,1,2.42-1.91c.85,0,2.14.48,2.11,1.33A.75.75,0,0,1,732.36,313.15Z"/><path class="cls-17" d="M737.48,313l-.38,0a.7.7,0,0,1-.73-.79.74.74,0,0,1,.79-.72l.38,0,.05-1a.87.87,0,1,1,1.72.08l0,1,.49,0c.44,0,.82.24.8.79a.73.73,0,0,1-.86.72l-.49,0-.17,4a.87.87,0,1,1-1.73-.08Z"/><path class="cls-17" d="M746.35,317.2c0,.44-.05,1.12-.88,1.09-.5,0-.69-.31-.8-.77a2.07,2.07,0,0,1-1.67.74,3,3,0,0,1-2.71-3.44,3.1,3.1,0,0,1,3-3.23,2,2,0,0,1,1.61.86.82.82,0,0,1,.86-.68c.82,0,.79.72.78,1.16Zm-3-.52c.89,0,1.36-.85,1.4-1.68s-.35-1.78-1.26-1.82-1.4.88-1.44,1.71S742.37,316.64,743.31,316.68Zm.8-7.68a1.09,1.09,0,0,1,.46-.1.76.76,0,0,1,.62.77.7.7,0,0,1-.53.69l-1.36.47c-.35.1-.24.1-.48.1s-.62-.49-.6-.91a.59.59,0,0,1,.35-.46l.1-.05Z"/><path class="cls-17" d="M751.77,313.87c-.43,0-.8-.37-1.35-.39-1,0-1.49.81-1.53,1.7a1.6,1.6,0,0,0,1.38,1.8,9.31,9.31,0,0,0,1.3-.31.76.76,0,0,1,.71.79c0,.88-1.54,1.12-2.16,1.1a3.14,3.14,0,0,1-3-3.45,3.22,3.22,0,0,1,3.23-3.22c.68,0,2.1.35,2.06,1.18C752.45,313.43,752.18,313.89,751.77,313.87Z"/><path class="cls-17" d="M753.46,313.68l-.38,0a.69.69,0,0,1-.72-.78.73.73,0,0,1,.78-.73l.39,0,0-1a.87.87,0,1,1,1.73.07l0,1,.49,0c.45,0,.82.24.8.79a.73.73,0,0,1-.86.72l-.49,0-.17,4a.86.86,0,0,1-.9.92.87.87,0,0,1-.83-1Z"/><path class="cls-17" d="M756.59,313.19a.87.87,0,1,1,1.73.07l-.2,4.6a.86.86,0,0,1-.9.92.87.87,0,0,1-.82-1Zm1.95-2.52a1,1,0,1,1-1.94-.09,1,1,0,0,1,1.94.09Z"/><path class="cls-17" d="M763.53,314.37c-.43,0-.8-.37-1.35-.39-1-.05-1.49.81-1.52,1.7a1.58,1.58,0,0,0,1.37,1.79,9.52,9.52,0,0,0,1.3-.3.76.76,0,0,1,.71.79c0,.88-1.54,1.12-2.16,1.09a3.14,3.14,0,0,1-3-3.45,3.2,3.2,0,0,1,3.23-3.21c.69,0,2.1.34,2.07,1.18C764.21,313.93,763.94,314.39,763.53,314.37Z"/><path class="cls-17" d="M770.54,318.22c0,.44,0,1.12-.88,1.09-.5,0-.69-.31-.79-.77a2.07,2.07,0,0,1-1.68.74,3,3,0,0,1-2.71-3.44,3.1,3.1,0,0,1,3-3.23,2,2,0,0,1,1.61.87.83.83,0,0,1,.86-.69c.83,0,.8.72.78,1.16Zm-3-.51c.9,0,1.37-.86,1.4-1.69s-.34-1.77-1.25-1.81-1.41.87-1.44,1.7S766.56,317.67,767.5,317.71Z"/><path class="cls-17" d="M775.3,315c-.32,0-1-.54-1.52-.57-.31,0-.6.12-.61.46,0,.8,3,.81,2.88,2.77a2.16,2.16,0,0,1-2.54,1.92c-1,0-2.38-.65-2.35-1.43a.81.81,0,0,1,.77-.73c.68,0,1,.63,1.77.66.52,0,.69-.14.7-.46,0-.79-3-.8-2.88-2.78a2.09,2.09,0,0,1,2.42-1.91c.85,0,2.14.48,2.1,1.34A.74.74,0,0,1,775.3,315Z"/><path class="cls-17" d="M709.14,323.44a3.11,3.11,0,1,1-6.19-.26,3.11,3.11,0,1,1,6.19.26Zm-4.46-.19c0,.83.36,1.76,1.29,1.79s1.41-.85,1.44-1.68-.34-1.77-1.29-1.81S704.71,322.42,704.68,323.25Z"/><path class="cls-17" d="M710,321.16a.86.86,0,0,1,.9-.92.81.81,0,0,1,.83.75,1.93,1.93,0,0,1,1.68-.72c1.86.08,2.71,1.85,2.64,3.53a3.06,3.06,0,0,1-3,3.13,2.44,2.44,0,0,1-1.56-.67l-.09,2.11a.87.87,0,1,1-1.72-.07Zm2.91,4.18c.9,0,1.38-.88,1.41-1.68s-.37-1.78-1.26-1.82-1.39.8-1.43,1.64S711.93,325.3,712.88,325.34Z"/><path class="cls-17" d="M718.12,324.38a1.49,1.49,0,0,0,1.58,1.32c.88,0,1.52-.63,2-.61a.77.77,0,0,1,.68.77c0,.74-1.6,1.39-2.88,1.34a3.15,3.15,0,0,1-3.1-3.46,3.11,3.11,0,1,1,6.21.06c0,.52-.26.76-.79.74Zm2.76-1a1.37,1.37,0,0,0-1.33-1.37,1.4,1.4,0,0,0-1.42,1.26Z"/><path class="cls-17" d="M723.27,321.62a.84.84,0,0,1,.92-.82c.46,0,.83.2.81.75h0a1.35,1.35,0,0,1,1.24-.66.84.84,0,0,1,.8.95c0,.57-.54.58-1.07.8s-1.06.42-1.09,1.1l-.11,2.65a.87.87,0,1,1-1.73-.07Z"/><path class="cls-17" d="M733,326.57c0,.44,0,1.13-.87,1.09-.51,0-.7-.3-.8-.76a2.1,2.1,0,0,1-1.68.73,3,3,0,0,1-2.71-3.44,3.09,3.09,0,0,1,3-3.22,1.94,1.94,0,0,1,1.61.86.83.83,0,0,1,.86-.69c.83,0,.8.72.78,1.16Zm-3-.51c.9,0,1.37-.86,1.4-1.68s-.34-1.78-1.25-1.82-1.41.87-1.44,1.7S729,326,730,326.06Z"/><path class="cls-17" d="M738.42,323.25c-.44,0-.8-.37-1.36-.4-1,0-1.48.82-1.52,1.7a1.59,1.59,0,0,0,1.38,1.8,9.32,9.32,0,0,0,1.29-.3.75.75,0,0,1,.71.78c0,.89-1.53,1.13-2.15,1.1a3.15,3.15,0,0,1-3-3.45,3.22,3.22,0,0,1,3.24-3.21c.68,0,2.1.34,2.06,1.18C739.09,322.81,738.82,323.26,738.42,323.25Z"/><path class="cls-17" d="M739.69,322.41a.87.87,0,1,1,1.73.07l-.2,4.61a.87.87,0,1,1-1.72-.08Zm1.94-2.52a1,1,0,0,1-1,.95,1,1,0,1,1,.08-1.94A1,1,0,0,1,741.63,319.89Z"/><path class="cls-17" d="M748.21,325.09a3.1,3.1,0,1,1-6.18-.26,3.1,3.1,0,1,1,6.18.26Zm-4.46-.19c0,.83.36,1.76,1.29,1.79s1.41-.85,1.44-1.68-.34-1.77-1.29-1.81S743.79,324.07,743.75,324.9Z"/><path class="cls-17" d="M749,322.81a.88.88,0,0,1,.91-.93.73.73,0,0,1,.76.67,1.85,1.85,0,0,1,1.69-.63,2.21,2.21,0,0,1,2.27,2.42l-.14,3.31a.87.87,0,1,1-1.73-.07l.13-3a1.12,1.12,0,1,0-2.23-.1l-.13,3a.87.87,0,1,1-1.72-.07Z"/><path class="cls-17" d="M761.42,327.77c0,.44,0,1.13-.88,1.09-.5,0-.69-.3-.79-.76a2.1,2.1,0,0,1-1.68.73c-1.62-.07-2.79-1.5-2.71-3.44a3.09,3.09,0,0,1,3-3.22A1.94,1.94,0,0,1,760,323a.83.83,0,0,1,.86-.69c.82,0,.8.72.78,1.17Zm-3-.51c.9,0,1.37-.86,1.4-1.68s-.34-1.78-1.26-1.82-1.4.88-1.44,1.7S757.44,327.22,758.38,327.26Z"/><path class="cls-17" d="M762.68,320.6a.87.87,0,1,1,1.73.07l-.31,7.38a.87.87,0,1,1-1.73-.07Z"/><path class="cls-17" d="M766.52,326.43a1.49,1.49,0,0,0,1.58,1.31c.88,0,1.52-.63,2-.61a.75.75,0,0,1,.67.77c0,.74-1.59,1.4-2.87,1.34a3.15,3.15,0,0,1-3.1-3.45,3.11,3.11,0,1,1,6.21.06c0,.51-.26.75-.79.73Zm2.76-1A1.38,1.38,0,0,0,768,324a1.4,1.4,0,0,0-1.42,1.26Z"/><path class="cls-17" d="M775.28,324.9c-.33,0-1-.55-1.53-.57-.31,0-.59.12-.6.45,0,.81,3,.81,2.88,2.78a2.18,2.18,0,0,1-2.54,1.92c-1,0-2.39-.65-2.35-1.43a.81.81,0,0,1,.77-.74c.67,0,1,.63,1.76.67.53,0,.69-.14.71-.47,0-.79-3-.79-2.89-2.77a2.09,2.09,0,0,1,2.42-1.91c.85,0,2.14.48,2.11,1.33A.74.74,0,0,1,775.28,324.9Z"/><polygon class="cls-12" points="613.18 307.48 618.02 422.09 618.02 422.09 618.02 422.09 599.34 441.36 485.74 446.16 480.12 313.1 613.18 307.48"/><polygon class="cls-13" points="477.81 310.82 610.86 305.21 615.7 419.81 597.03 439.09 483.42 443.88 477.81 310.82"/><polygon class="cls-14" points="597.03 439.08 615.7 419.81 596.25 420.64 597.03 439.08"/><path class="cls-15" d="M529,300.39l66.14-3.33c.19,1,.51,2.09.57,2.63a73.22,73.22,0,0,1,.48,11.08l-67.15,3.37c0-3.06,0-6.13-.07-9.2C529,303.57,529.12,301.89,529,300.39Z"/><rect class="cls-18" x="502.41" y="344.11" width="88.33" height="33.92" rx="7.12" transform="translate(-14.75 23.38) rotate(-2.42)"/><path class="cls-16" d="M508.54,358.38a1.07,1.07,0,0,1,1.12-1.21l2.65-.12a3.58,3.58,0,0,1,4,3.42,3.53,3.53,0,0,1-3.6,3.71l-1.66.07.1,2.46a1.13,1.13,0,1,1-2.25.09Zm2.41,3.89,1.53-.06a1.59,1.59,0,0,0-.13-3.18l-1.53.07Z"/><path class="cls-16" d="M516.87,358a1.06,1.06,0,0,1,1.1-1.22l2.64-.11c2.31-.1,3.78.88,3.88,3.23a2.91,2.91,0,0,1-2.66,2.95l2.67,2.62a1,1,0,0,1,.32.65,1.14,1.14,0,0,1-1.07,1.2,1.18,1.18,0,0,1-.89-.35l-3.49-3.9h0l.14,3.25a1.08,1.08,0,0,1-1.07,1.22,1.09,1.09,0,0,1-1.18-1.13Zm2.4,3.46,1.54-.07a1.33,1.33,0,1,0-.11-2.65l-1.54.07Z"/><path class="cls-16" d="M525,361.86c-.13-3.11,1.86-5.6,4.92-5.73a5.25,5.25,0,0,1,5.39,5.3c.13,3.1-1.85,5.6-4.92,5.73A5.19,5.19,0,0,1,525,361.86Zm8-.33c-.08-1.82-1.09-3.41-3-3.33s-2.75,1.75-2.67,3.56,1.06,3.41,3,3.33S533,363.35,532.93,361.53Z"/><path class="cls-16" d="M538.49,357A1.77,1.77,0,0,1,540,355.7a1.71,1.71,0,0,1,1.66,1.18l3.28,8a1.55,1.55,0,0,1,.14.55,1,1,0,0,1-1,1,1.06,1.06,0,0,1-1.13-.73l-.51-1.39-4.16.17-.39,1.41a1,1,0,0,1-1.05.84,1.06,1.06,0,0,1-1.15-1,1.49,1.49,0,0,1,.08-.5Zm.39,5.44,2.85-.12L540.16,358h0Z"/><path class="cls-16" d="M550.14,355.27c1.1,0,3.24.23,3.29,1.55a.94.94,0,0,1-.88,1c-.62,0-1.06-.48-2.32-.43-1.86.08-2.75,1.7-2.67,3.52s1.11,3.27,3,3.2c1.26-.06,1.74-.71,2.35-.73a1.06,1.06,0,0,1,1,1c.06,1.44-2.19,1.87-3.3,1.91a5.19,5.19,0,0,1-5.39-5.29C545.09,357.89,547.08,355.4,550.14,355.27Z"/><path class="cls-16" d="M556.46,357.26l-1.64.07a1,1,0,0,1-1.06-1,1,1,0,0,1,1-1.08l5.51-.23a1,1,0,0,1,1.06,1,1,1,0,0,1-1,1.08l-1.64.07.32,7.52A1.07,1.07,0,0,1,558,365.9a1.08,1.08,0,0,1-1.18-1.12Z"/><path class="cls-16" d="M561.81,356a1.13,1.13,0,1,1,2.25-.09l.36,8.51a1.13,1.13,0,1,1-2.25.1Z"/><path class="cls-16" d="M564.8,356.38a1.31,1.31,0,0,1-.13-.55,1.12,1.12,0,0,1,2.16-.43l2.58,6.13,2.06-6.33a1.12,1.12,0,0,1,2.19.25,1.34,1.34,0,0,1-.08.56l-2.93,8.49c-.18.49-.41.89-1.07.91a1.13,1.13,0,0,1-1.15-.82Z"/><path class="cls-16" d="M574,359.79c-.13-3.12,1.86-5.6,4.92-5.73a5.24,5.24,0,0,1,5.39,5.29c.13,3.11-1.85,5.61-4.92,5.74A5.19,5.19,0,0,1,574,359.79Zm8-.34c-.08-1.81-1.09-3.4-3-3.32s-2.75,1.75-2.67,3.56,1.06,3.41,3,3.33S582.09,361.28,582,359.45Z"/><path class="cls-17" d="M522.55,386.82a.86.86,0,0,1,.89-1l2.12-.09a2.86,2.86,0,0,1,3.19,2.74,2.82,2.82,0,0,1-2.88,3l-1.32.06.08,2a.88.88,0,0,1-.86,1,.86.86,0,0,1-.94-.9Zm1.93,3.12,1.22-.05a1.28,1.28,0,0,0-.11-2.55l-1.22.06Z"/><path class="cls-17" d="M529.11,385.87a.87.87,0,1,1,1.73-.07l.31,7.38a.87.87,0,1,1-1.73.08Z"/><path class="cls-17" d="M538,392.73c0,.44,0,1.12-.78,1.16-.5,0-.72-.25-.86-.7a2,2,0,0,1-1.61.87c-1.61.07-2.91-1.25-3-3.2a3.1,3.1,0,0,1,2.71-3.46,2,2,0,0,1,1.68.72.81.81,0,0,1,.79-.75c.83,0,.86.65.88,1.09Zm-3.07-.26c.9,0,1.29-1,1.25-1.79s-.49-1.75-1.4-1.71-1.33,1-1.29,1.82S534,392.51,534.93,392.47Z"/><path class="cls-17" d="M538.8,388.25a.87.87,0,0,1,.82-1,.73.73,0,0,1,.82.6,1.85,1.85,0,0,1,1.63-.78,2.21,2.21,0,0,1,2.46,2.23l.14,3.3a.87.87,0,1,1-1.72.07l-.13-3a1.12,1.12,0,1,0-2.23.09l.13,3a.87.87,0,1,1-1.73.07Z"/><path class="cls-17" d="M548.68,387.83a.87.87,0,0,1,.82-1,.82.82,0,0,1,.89.68,1.92,1.92,0,0,1,1.61-.86c1.86-.08,2.85,1.62,2.92,3.3a3.06,3.06,0,0,1-2.7,3.37,2.49,2.49,0,0,1-1.61-.54l.09,2.11A.87.87,0,1,1,549,395Zm3.25,3.92c.9,0,1.3-1,1.27-1.79s-.52-1.74-1.42-1.71-1.32.93-1.28,1.76S551,391.79,551.93,391.75Z"/><path class="cls-17" d="M561.64,391.73c0,.44.05,1.12-.78,1.16-.5,0-.72-.25-.86-.7a2,2,0,0,1-1.6.87c-1.62.07-2.91-1.25-3-3.19a3.1,3.1,0,0,1,2.71-3.47,2,2,0,0,1,1.68.72.82.82,0,0,1,.8-.75c.82,0,.85.65.87,1.09Zm-3.07-.26c.9,0,1.29-1,1.26-1.79s-.5-1.74-1.41-1.71-1.33,1-1.29,1.82S557.63,391.51,558.57,391.47Z"/><path class="cls-17" d="M562.41,387.16a.85.85,0,0,1,.85-.9c.46,0,.85.13.87.68h0a1.38,1.38,0,0,1,1.18-.77.84.84,0,0,1,.88.89c0,.56-.49.62-1,.88s-1,.51-1,1.19l.11,2.65a.87.87,0,0,1-.82,1,.87.87,0,0,1-.9-.93Z"/><path class="cls-17" d="M572.51,391.27c0,.44,0,1.13-.77,1.16-.51,0-.72-.25-.86-.7a2.07,2.07,0,0,1-1.61.88,3,3,0,0,1-3-3.2,3.1,3.1,0,0,1,2.71-3.47,2,2,0,0,1,1.67.73.82.82,0,0,1,.8-.76c.83,0,.86.65.87,1.09Zm-3.07-.26c.9,0,1.29-1,1.26-1.79s-.5-1.74-1.41-1.71-1.32,1-1.29,1.82S568.51,391.05,569.44,391Z"/><path class="cls-17" d="M510.2,402.28a1.49,1.49,0,0,0,1.69,1.17c.88,0,1.46-.75,1.92-.77a.77.77,0,0,1,.74.71c0,.74-1.47,1.53-2.76,1.58a3.14,3.14,0,0,1-3.37-3.18,3.1,3.1,0,1,1,6.18-.47c0,.52-.19.78-.72.8Zm2.66-1.27a1.37,1.37,0,0,0-2.74.12Z"/><path class="cls-17" d="M514.75,399.59a1.37,1.37,0,0,1-.13-.5.84.84,0,0,1,.87-.88.8.8,0,0,1,.79.58l1.24,3.36h0l1-3.45a.78.78,0,0,1,.74-.65.83.83,0,0,1,.93.8,1.14,1.14,0,0,1-.09.51l-1.54,4.53c-.15.45-.32.74-.91.76s-.78-.24-1-.68Z"/><path class="cls-17" d="M522.18,401.77a1.5,1.5,0,0,0,1.68,1.18c.89,0,1.47-.76,1.93-.78a.76.76,0,0,1,.73.71c0,.75-1.47,1.53-2.75,1.59a3.15,3.15,0,0,1-3.37-3.19,3.1,3.1,0,1,1,6.18-.46.67.67,0,0,1-.72.8Zm2.66-1.26a1.36,1.36,0,0,0-1.43-1.26,1.38,1.38,0,0,0-1.31,1.37Z"/><path class="cls-17" d="M527.11,398.68a.87.87,0,0,1,.82-1,.73.73,0,0,1,.82.6,1.87,1.87,0,0,1,1.63-.78,2.21,2.21,0,0,1,2.46,2.23L533,403a.87.87,0,1,1-1.73.08l-.12-3a1.12,1.12,0,1,0-2.23.09l.13,3a.87.87,0,1,1-1.73.07Z"/><path class="cls-17" d="M534.22,399h-.39a.69.69,0,0,1-.78-.72.74.74,0,0,1,.72-.79h.39l0-1a.87.87,0,1,1,1.73-.08l0,1,.49,0c.45,0,.84.17.86.72a.73.73,0,0,1-.79.79l-.5,0,.17,4a.87.87,0,1,1-1.72.07Z"/><path class="cls-17" d="M543.35,400.31a3.1,3.1,0,1,1-6.18.26,3.1,3.1,0,1,1,6.18-.26Zm-4.46.19c0,.83.51,1.72,1.44,1.68s1.33-1,1.29-1.79-.49-1.75-1.44-1.71S538.86,399.67,538.89,400.5Z"/><path class="cls-17" d="M547.66,398.8c-.32,0-1-.46-1.57-.44-.31,0-.58.17-.56.5,0,.81,3,.56,3.1,2.53,0,1.15-.88,2.06-2.37,2.12-1,.05-2.43-.45-2.46-1.22a.81.81,0,0,1,.71-.8c.67,0,1,.54,1.81.51.53,0,.68-.2.66-.52,0-.79-3-.54-3.11-2.52a2.09,2.09,0,0,1,2.25-2.11c.86,0,2.18.3,2.21,1.15A.74.74,0,0,1,547.66,398.8Z"/><path class="cls-17" d="M556.63,398.32c-.43,0-.82-.3-1.38-.27-1,0-1.41.93-1.37,1.82a1.58,1.58,0,0,0,1.52,1.67,8.29,8.29,0,0,0,1.27-.41.75.75,0,0,1,.77.72c0,.89-1.43,1.25-2.05,1.28a3.15,3.15,0,0,1-3.24-3.19,3.21,3.21,0,0,1,3-3.47c.69,0,2.12.16,2.16,1C557.27,397.83,557,398.31,556.63,398.32Z"/><path class="cls-17" d="M557.83,397.29a.85.85,0,0,1,.85-.9c.46,0,.85.13.87.68h0a1.38,1.38,0,0,1,1.18-.77.84.84,0,0,1,.88.89c0,.56-.49.62-1,.88s-1,.51-1,1.19l.11,2.65A.87.87,0,1,1,558,402Z"/><path class="cls-17" d="M562.91,393.51a1.35,1.35,0,0,1,.45-.14c.36,0,.66.39.68.72a.7.7,0,0,1-.46.72l-1.33.59c-.34.13-.23.13-.47.14s-.65-.43-.67-.85a.56.56,0,0,1,.31-.49l.1-.06Zm-1.08,3.71a.87.87,0,1,1,1.72-.08l.2,4.6a.87.87,0,1,1-1.73.08Z"/><path class="cls-17" d="M565,397.71h-.38a.7.7,0,0,1-.79-.72.74.74,0,0,1,.72-.79h.39l0-1a.87.87,0,1,1,1.73-.08l0,1,.49,0c.45,0,.84.17.86.72a.73.73,0,0,1-.79.79l-.5,0,.17,4a.87.87,0,1,1-1.72.08Z"/><path class="cls-17" d="M569.76,394.28a1,1,0,0,1-.93,1,1,1,0,0,1-.08-1.94A1,1,0,0,1,569.76,394.28ZM568,397a.87.87,0,1,1,1.72-.07l.2,4.6a.87.87,0,1,1-1.73.07Z"/><path class="cls-17" d="M575.05,397.55c-.43,0-.83-.31-1.38-.28-1,0-1.41.93-1.38,1.82a1.6,1.6,0,0,0,1.53,1.68,9.16,9.16,0,0,0,1.26-.42.77.77,0,0,1,.78.73c0,.88-1.44,1.25-2.06,1.27a3.14,3.14,0,0,1-3.23-3.19,3.21,3.21,0,0,1,2.95-3.47c.68,0,2.12.16,2.15,1C575.69,397.05,575.46,397.53,575.05,397.55Z"/><path class="cls-17" d="M582.3,398.67a3.1,3.1,0,1,1-6.18.26,3.1,3.1,0,1,1,6.18-.26Zm-4.46.19c0,.82.51,1.72,1.45,1.68s1.32-1,1.29-1.8-.5-1.74-1.44-1.7S577.81,398,577.84,398.86Z"/><path class="cls-17" d="M586.61,397.15c-.32,0-1-.46-1.57-.43-.31,0-.58.16-.56.5,0,.8,3,.56,3.11,2.52,0,1.15-.89,2.07-2.38,2.13-1,0-2.43-.45-2.46-1.23a.82.82,0,0,1,.71-.8c.67,0,1,.55,1.81.52.53,0,.68-.2.66-.53,0-.79-3-.54-3.1-2.52a2.1,2.1,0,0,1,2.25-2.11c.85,0,2.17.31,2.21,1.16A.75.75,0,0,1,586.61,397.15Z"/><polygon class="cls-12" points="9.01 370.35 4.17 255.74 4.17 255.74 4.17 255.74 22.85 236.47 136.45 231.67 142.07 364.73 9.01 370.35"/><polygon class="cls-13" points="137.9 361.35 4.84 366.96 0 252.36 18.68 233.09 132.28 228.29 137.9 361.35"/><polygon class="cls-14" points="18.68 233.09 0 252.36 19.45 251.53 18.68 233.09"/><path class="cls-15" d="M100.45,223.77l-57,2.45c-.07,1-.25,2.13-.26,2.67A87,87,0,0,0,43.74,240l57.86-2.48c-.27-3.06-.53-6.11-.74-9.17C100.77,226.93,100.49,225.28,100.45,223.77Z"/><rect class="cls-4" x="23.83" y="267.19" width="88.33" height="33.92" rx="7.12" transform="translate(-11.93 3.12) rotate(-2.42)"/><path class="cls-16" d="M36.06,281.21a1.06,1.06,0,0,1,1.1-1.22l2.64-.11c2.31-.1,3.78.88,3.88,3.23A2.92,2.92,0,0,1,41,286.06l2.67,2.62a1,1,0,0,1,.32.64,1.13,1.13,0,0,1-1.07,1.2,1.11,1.11,0,0,1-.89-.35l-3.49-3.89h0l.13,3.25a1.13,1.13,0,1,1-2.25.1Zm2.4,3.45L40,284.6a1.28,1.28,0,0,0,1.34-1.39A1.26,1.26,0,0,0,39.89,282l-1.54.06Z"/><path class="cls-16" d="M44.4,281c0-.75.32-1.32,1.11-1.35l3.72-.16a1,1,0,0,1,1.11,1,1,1,0,0,1-1,1.08l-2.64.11.09,2.19,2.46-.11a1,1,0,0,1,1.14,1,1,1,0,0,1-1.06,1.08l-2.45.11.09,2.27,2.78-.11a1,1,0,0,1,1.1,1,1,1,0,0,1-1,1.07l-3.86.17a1.09,1.09,0,0,1-1.2-1.08Z"/><path class="cls-16" d="M53.8,280.35A1.76,1.76,0,0,1,55.35,279,1.72,1.72,0,0,1,57,280.22l3.28,8a1.55,1.55,0,0,1,.14.55,1,1,0,0,1-1,1,1.06,1.06,0,0,1-1.13-.74l-.51-1.38-4.16.17-.39,1.41a1,1,0,0,1-1,.84,1.06,1.06,0,0,1-1.15-1,1.27,1.27,0,0,1,.08-.5Zm.39,5.44,2.85-.12-1.58-4.29h0Z"/><path class="cls-16" d="M65.45,278.61c1.09,0,3.24.23,3.29,1.55a.94.94,0,0,1-.88,1c-.62,0-1.06-.48-2.32-.43-1.86.08-2.75,1.7-2.67,3.52s1.11,3.27,3,3.2c1.25-.06,1.74-.71,2.35-.73a1,1,0,0,1,1,1c.06,1.44-2.18,1.87-3.29,1.91a5.18,5.18,0,0,1-5.39-5.29C60.4,281.23,62.39,278.74,65.45,278.61Z"/><path class="cls-16" d="M71.77,280.6l-1.64.07a1,1,0,0,1-1.06-1,1,1,0,0,1,1-1.08l5.52-.23a1,1,0,0,1,1.06,1,1,1,0,0,1-1,1.08l-1.64.07.32,7.52a1.13,1.13,0,1,1-2.25.09Z"/><path class="cls-16" d="M77.12,279.38a1.07,1.07,0,0,1,1.07-1.21,1.08,1.08,0,0,1,1.18,1.12l.36,8.51a1.13,1.13,0,1,1-2.25.1Z"/><path class="cls-16" d="M80.11,279.72a1.31,1.31,0,0,1-.13-.55,1.12,1.12,0,0,1,2.16-.43l2.58,6.13,2.06-6.33a1.12,1.12,0,0,1,2.19.25,1.52,1.52,0,0,1-.08.56L86,287.84c-.18.49-.41.89-1.07.91a1.12,1.12,0,0,1-1.15-.82Z"/><path class="cls-16" d="M89.35,283.13c-.13-3.12,1.86-5.6,4.92-5.73a5.24,5.24,0,0,1,5.39,5.29c.13,3.11-1.85,5.61-4.92,5.74A5.19,5.19,0,0,1,89.35,283.13Zm8-.34c-.08-1.81-1.09-3.4-3-3.32s-2.75,1.75-2.67,3.56,1.06,3.41,3,3.33S97.4,284.62,97.32,282.79Z"/><path class="cls-17" d="M29.35,310.52a.86.86,0,0,1,.9-1l2.12-.09a2.86,2.86,0,1,1,.31,5.7l-1.33.06.09,2a.86.86,0,0,1-.86,1,.85.85,0,0,1-.94-.89Zm1.94,3.12,1.22-.06A1.27,1.27,0,0,0,32.4,311l-1.22,0Z"/><path class="cls-17" d="M36,312.26a.85.85,0,0,1,.85-.9c.46,0,.85.13.87.68h0a1.36,1.36,0,0,1,1.18-.77.83.83,0,0,1,.87.89c0,.56-.49.62-1,.88s-1,.51-1,1.19l.12,2.65a.87.87,0,1,1-1.73.08Z"/><path class="cls-17" d="M45.87,314.26a3.11,3.11,0,1,1-6.19.26,3.11,3.11,0,1,1,6.19-.26Zm-4.46.18c0,.83.5,1.72,1.44,1.68s1.33-1,1.29-1.79-.49-1.75-1.44-1.71S41.37,313.62,41.41,314.44Z"/><path class="cls-17" d="M50.83,312.62c-.43,0-.83-.3-1.38-.28a1.56,1.56,0,0,0-1.37,1.82,1.58,1.58,0,0,0,1.52,1.68,9.88,9.88,0,0,0,1.27-.42.77.77,0,0,1,.77.73c0,.88-1.44,1.25-2.06,1.27a3.14,3.14,0,0,1-3.23-3.19,3.21,3.21,0,0,1,2.95-3.47c.68,0,2.12.16,2.15,1C51.47,312.12,51.24,312.6,50.83,312.62Z"/><path class="cls-17" d="M53.57,314.49a1.48,1.48,0,0,0,1.68,1.18c.88,0,1.47-.76,1.92-.78a.78.78,0,0,1,.74.72c0,.74-1.47,1.52-2.75,1.58A3.15,3.15,0,0,1,51.78,314a3.11,3.11,0,1,1,6.19-.47c0,.51-.2.78-.72.8Zm2.66-1.26A1.38,1.38,0,0,0,54.79,312a1.4,1.4,0,0,0-1.31,1.38Z"/><path class="cls-17" d="M64.58,315.76a.87.87,0,0,1-.82,1,.82.82,0,0,1-.89-.68,1.9,1.9,0,0,1-1.55.86,3.06,3.06,0,0,1-3-3.13c-.07-1.68.78-3.45,2.64-3.53a2.43,2.43,0,0,1,1.66.53l-.09-2.35a.87.87,0,0,1,.82-1,.87.87,0,0,1,.9.93Zm-3.25-3.92c-.9,0-1.3,1-1.27,1.82s.52,1.71,1.42,1.68,1.31-1,1.28-1.86S62.25,311.8,61.33,311.84Z"/><path class="cls-17" d="M67.07,308.44a1,1,0,0,1-.92,1,1,1,0,0,1-1-1,1,1,0,0,1,.93-1A1,1,0,0,1,67.07,308.44Zm-1.72,2.68a.87.87,0,1,1,1.73-.08l.19,4.6a.87.87,0,1,1-1.73.08Z"/><path class="cls-17" d="M68,311a.87.87,0,0,1,.82-1,.73.73,0,0,1,.82.61,2.17,2.17,0,0,1,1.57-.79,2.22,2.22,0,0,1,1.82.8,2.64,2.64,0,0,1,1.79-.95,2.17,2.17,0,0,1,2.46,2.23l.14,3.3a.87.87,0,1,1-1.73.08l-.13-3c0-.7-.43-1.17-1-1.14a1,1,0,0,0-1,1.22l.13,3a.87.87,0,1,1-1.73.08l-.13-3a1,1,0,0,0-1-1.15c-.71,0-1,.54-1,1.23l.13,3a.87.87,0,1,1-1.73.07Z"/><path class="cls-17" d="M80,307.89a1,1,0,0,1-.93,1,1,1,0,0,1-1-.95,1,1,0,0,1,1.94-.09Zm-1.72,2.68A.87.87,0,1,1,80,310.5l.2,4.6a.87.87,0,1,1-1.73.07Z"/><path class="cls-17" d="M82.42,313.28a1.49,1.49,0,0,0,1.69,1.17c.88,0,1.47-.75,1.92-.77a.77.77,0,0,1,.74.71c0,.74-1.47,1.53-2.76,1.58a3.14,3.14,0,0,1-3.37-3.18,3.11,3.11,0,1,1,6.19-.47c0,.52-.2.78-.73.8ZM85.08,312a1.36,1.36,0,0,0-1.43-1.26,1.38,1.38,0,0,0-1.31,1.38Z"/><path class="cls-17" d="M87.35,310.19a.88.88,0,0,1,.82-1,.73.73,0,0,1,.82.6,1.86,1.86,0,0,1,1.64-.77,2.2,2.2,0,0,1,2.45,2.22l.14,3.31a.87.87,0,1,1-1.72.07l-.13-3a1.07,1.07,0,0,0-1.17-1.14,1.09,1.09,0,0,0-1.06,1.24l.13,3a.87.87,0,1,1-1.73.07Z"/><path class="cls-17" d="M94.46,310.51l-.38,0a.7.7,0,0,1-.79-.73A.73.73,0,0,1,94,309l.38,0,0-1a.87.87,0,1,1,1.72-.07l0,1,.5,0a.72.72,0,0,1,.85.72c0,.54-.35.77-.79.79l-.49,0,.17,4a.87.87,0,1,1-1.73.07Z"/><path class="cls-17" d="M103.59,311.82a3.1,3.1,0,1,1-6.18.26,3.1,3.1,0,1,1,6.18-.26Zm-4.45.19c0,.82.5,1.71,1.44,1.68s1.32-1,1.29-1.8-.5-1.74-1.44-1.7S99.1,311.18,99.14,312Z"/><path class="cls-17" d="M107.9,310.3c-.32,0-1-.46-1.56-.44-.32,0-.59.17-.57.51,0,.8,3,.56,3.11,2.52.05,1.15-.89,2.07-2.37,2.13-1,0-2.44-.45-2.47-1.23a.82.82,0,0,1,.71-.8c.67,0,1,.55,1.81.52.53,0,.68-.2.66-.53,0-.79-3-.54-3.1-2.52a2.09,2.09,0,0,1,2.25-2.11c.85,0,2.17.3,2.21,1.16A.75.75,0,0,1,107.9,310.3Z"/><path class="cls-17" d="M48.62,324.08a3.1,3.1,0,1,1-6.18.26,3.1,3.1,0,1,1,6.18-.26Zm-4.45.18c0,.83.5,1.72,1.44,1.68s1.32-1,1.29-1.79-.5-1.74-1.44-1.7S44.13,323.44,44.17,324.26Z"/><path class="cls-17" d="M49.26,321.73a.87.87,0,0,1,.82-1,.83.83,0,0,1,.9.68,1.92,1.92,0,0,1,1.6-.86c1.86-.08,2.86,1.62,2.93,3.3a3,3,0,0,1-2.7,3.36,2.4,2.4,0,0,1-1.61-.53l.09,2.11a.87.87,0,1,1-1.73.07Zm3.25,3.92c.9,0,1.3-1,1.27-1.79s-.52-1.74-1.42-1.71-1.31.92-1.28,1.76S51.56,325.69,52.51,325.65Z"/><path class="cls-17" d="M57.65,324.26a1.51,1.51,0,0,0,1.69,1.18c.88,0,1.46-.76,1.92-.78a.77.77,0,0,1,.74.71c0,.74-1.47,1.53-2.76,1.58a3.13,3.13,0,0,1-3.37-3.18,3.1,3.1,0,1,1,6.18-.46.65.65,0,0,1-.72.79ZM60.31,323a1.36,1.36,0,0,0-1.43-1.26,1.4,1.4,0,0,0-1.31,1.38Z"/><path class="cls-17" d="M62.55,321.08a.84.84,0,0,1,.85-.9c.46,0,.85.13.87.68h0a1.34,1.34,0,0,1,1.18-.77.83.83,0,0,1,.87.88c0,.57-.49.62-1,.89s-1,.51-1,1.19l.12,2.65a.87.87,0,1,1-1.73.07Z"/><path class="cls-17" d="M72.66,325.19c0,.44,0,1.12-.78,1.16-.51,0-.72-.25-.86-.7a2,2,0,0,1-1.61.87c-1.62.07-2.91-1.25-3-3.2a3.1,3.1,0,0,1,2.71-3.46,2,2,0,0,1,1.67.72.82.82,0,0,1,.8-.75c.83,0,.86.65.88,1.09Zm-3.08-.26c.9,0,1.29-1,1.26-1.79s-.49-1.75-1.4-1.71-1.33,1-1.3,1.82S68.65,325,69.58,324.93Z"/><path class="cls-17" d="M73.9,321.32h-.38a.7.7,0,0,1-.79-.72.74.74,0,0,1,.72-.79h.39l0-1a.87.87,0,1,1,1.73-.08l0,1,.49,0c.45,0,.84.17.86.72s-.35.77-.79.79l-.49,0,.16,4a.87.87,0,1,1-1.72.08Z"/><path class="cls-17" d="M78.7,317.88a1,1,0,0,1-.93,1,1,1,0,0,1-1-.95,1,1,0,0,1,.93-1A1,1,0,0,1,78.7,317.88ZM77,320.56a.87.87,0,1,1,1.72-.07l.2,4.6a.87.87,0,1,1-1.73.07Z"/><path class="cls-17" d="M79.29,320.85a1.06,1.06,0,0,1-.13-.5.83.83,0,0,1,.86-.88.78.78,0,0,1,.79.58l1.25,3.36h0L83,320a.78.78,0,0,1,.74-.64.83.83,0,0,1,.94.8,1.51,1.51,0,0,1-.09.5l-1.55,4.53c-.15.45-.32.74-.9.76s-.78-.24-1-.68Z"/><path class="cls-17" d="M91.23,322.28a3.1,3.1,0,1,1-6.18.26,3.1,3.1,0,1,1,6.18-.26Zm-4.46.19c0,.82.51,1.71,1.44,1.67s1.33-1,1.3-1.79-.5-1.74-1.44-1.7S86.74,321.64,86.77,322.47Z"/><path class="cls-17" d="M95.54,320.76c-.32,0-1-.46-1.56-.44-.32,0-.59.17-.57.51,0,.8,3,.56,3.11,2.52a2.18,2.18,0,0,1-2.37,2.13c-1,0-2.44-.45-2.47-1.23a.82.82,0,0,1,.71-.8c.67,0,1,.55,1.81.51.53,0,.68-.19.66-.52,0-.79-3-.54-3.1-2.52A2.09,2.09,0,0,1,94,318.81c.85,0,2.17.3,2.21,1.16A.75.75,0,0,1,95.54,320.76Z"/><rect class="cls-5" x="171.17" y="108.07" width="88.33" height="33.92" rx="7.12"/><path class="cls-16" d="M177.31,120.74a1.08,1.08,0,0,1,1.17-1.17h2.65a3.57,3.57,0,0,1,3.84,3.59,3.52,3.52,0,0,1-3.75,3.55h-1.66v2.46a1.13,1.13,0,1,1-2.25,0Zm2.25,4h1.53a1.59,1.59,0,0,0,0-3.18h-1.53Z"/><path class="cls-16" d="M185.65,120.74a1.06,1.06,0,0,1,1.15-1.17h2.64c2.31,0,3.74,1,3.74,3.39a2.92,2.92,0,0,1-2.78,2.84l2.55,2.73a1,1,0,0,1,.3.66,1.13,1.13,0,0,1-2,.76l-3.33-4h0v3.25a1.13,1.13,0,1,1-2.25,0Zm2.25,3.56h1.54a1.28,1.28,0,0,0,1.4-1.34,1.26,1.26,0,0,0-1.4-1.32H187.9Z"/><path class="cls-16" d="M194,120.88c0-.75.37-1.31,1.17-1.31h3.72a1,1,0,0,1,1.06,1,1,1,0,0,1-1.06,1h-2.64v2.19h2.46a1,1,0,1,1,0,2.07h-2.46v2.28H199a1,1,0,1,1,0,2.07h-3.87a1.09,1.09,0,0,1-1.15-1.12Z"/><path class="cls-16" d="M200.93,120.73a1.11,1.11,0,0,1,1.16-1.16h2.49c3.36,0,5.28,2.16,5.28,5.49a4.85,4.85,0,0,1-5.13,5.19h-2.61a1.1,1.1,0,0,1-1.19-1.12Zm2.25,7.45h1.52c1.93,0,2.82-1.42,2.82-3.22s-.9-3.32-3-3.32h-1.37Z"/><path class="cls-16" d="M210.94,120.65a1.13,1.13,0,1,1,2.25,0v8.52a1.13,1.13,0,1,1-2.25,0Z"/><path class="cls-16" d="M219.28,119.39c1.09,0,3.22.36,3.22,1.68a1,1,0,0,1-.93,1c-.61,0-1-.53-2.29-.53-1.86,0-2.82,1.58-2.82,3.41s1,3.31,2.82,3.31c1.26,0,1.77-.63,2.38-.63a1.06,1.06,0,0,1,1,1c0,1.44-2.26,1.77-3.37,1.77a5.19,5.19,0,0,1-5.16-5.52C214.12,121.79,216.22,119.39,219.28,119.39Z"/><path class="cls-16" d="M225.5,121.64h-1.63a1,1,0,0,1-1-1,1,1,0,0,1,1-1h5.52a1,1,0,0,1,1,1,1,1,0,0,1-1,1h-1.64v7.53a1.13,1.13,0,1,1-2.25,0Z"/><path class="cls-16" d="M230.9,120.65a1.13,1.13,0,1,1,2.25,0v8.52a1.13,1.13,0,1,1-2.25,0Z"/><path class="cls-16" d="M233.87,121.12a1.54,1.54,0,0,1-.1-.56,1.12,1.12,0,0,1,2.17-.34l2.33,6.24,2.32-6.24a1.12,1.12,0,0,1,2.18.34,1.36,1.36,0,0,1-.11.56l-3.28,8.35c-.2.48-.45.87-1.11.87a1.12,1.12,0,0,1-1.11-.87Z"/><path class="cls-16" d="M243,124.91c0-3.12,2.1-5.52,5.16-5.52a5.25,5.25,0,0,1,5.16,5.52c0,3.11-2.08,5.52-5.16,5.52A5.19,5.19,0,0,1,243,124.91Zm8,0c0-1.81-.94-3.45-2.82-3.45s-2.82,1.64-2.82,3.45.92,3.45,2.82,3.45S250.94,126.74,250.94,124.91Z"/><path class="cls-17" d="M178.34,62.91a1.66,1.66,0,0,1,1.8-1.8h4.07c3.38,0,5.88,2.21,5.88,5.5s-2.6,5.45-5.75,5.45h-2.55v3.77a1.73,1.73,0,1,1-3.45,0ZM181.79,69h2.35a2.44,2.44,0,0,0,0-4.87h-2.35Z"/><path class="cls-17" d="M191.13,62.77a1.73,1.73,0,1,1,3.45,0V74.31h4.09A1.56,1.56,0,0,1,200.33,76a1.61,1.61,0,0,1-1.66,1.51h-5.75a1.7,1.7,0,0,1-1.79-1.88Z"/><path class="cls-17" d="M204.72,62.74a2.71,2.71,0,0,1,2.46-1.9,2.6,2.6,0,0,1,2.46,1.9l4.51,12.51a2.6,2.6,0,0,1,.18.85,1.53,1.53,0,0,1-1.58,1.52,1.61,1.61,0,0,1-1.68-1.19l-.69-2.17H204l-.69,2.14a1.6,1.6,0,0,1-1.66,1.22,1.65,1.65,0,0,1-1.7-1.61,1.92,1.92,0,0,1,.16-.76Zm.25,8.35h4.37l-2.13-6.67h-.05Z"/><path class="cls-17" d="M215.28,62.77A1.65,1.65,0,0,1,217,61a2.17,2.17,0,0,1,1.45.76l7.29,9.73h0V62.77a1.73,1.73,0,1,1,3.45,0V75.83a1.65,1.65,0,0,1-1.73,1.79,2.21,2.21,0,0,1-1.45-.76l-7.29-9.61h0v8.58a1.73,1.73,0,1,1-3.45,0Z"/><path class="cls-17" d="M237.34,62.88a1.68,1.68,0,0,1,1.77-1.77h3.81c5.15,0,8.1,3.31,8.1,8.42,0,4.83-3.13,8-7.87,8h-4a1.68,1.68,0,0,1-1.81-1.72Zm3.45,11.43h2.32c3,0,4.32-2.18,4.32-4.94,0-3-1.38-5.09-4.55-5.09h-2.09Z"/><path class="cls-17" d="M252.68,63.11c0-1.15.57-2,1.79-2h5.7a1.53,1.53,0,0,1,1.64,1.59,1.56,1.56,0,0,1-1.64,1.58h-4v3.36h3.77a1.56,1.56,0,0,1,1.68,1.59,1.59,1.59,0,0,1-1.68,1.59h-3.77v3.49h4.25A1.53,1.53,0,0,1,262,75.9a1.55,1.55,0,0,1-1.63,1.58h-5.93a1.68,1.68,0,0,1-1.77-1.72Z"/><path class="cls-17" d="M269.49,62.91a1.63,1.63,0,0,1,1.77-1.8h4.05c3.54,0,5.72,1.59,5.72,5.2,0,2.53-1.91,4-4.25,4.34l3.91,4.19a1.49,1.49,0,0,1,.46,1A1.74,1.74,0,0,1,278.09,77L273,70.84h0v5a1.73,1.73,0,1,1-3.45,0Zm3.45,5.44h2.37a2,2,0,1,0,0-4.07h-2.37Z"/><path class="cls-17" d="M282.28,63.11c0-1.15.57-2,1.79-2h5.7a1.53,1.53,0,0,1,1.64,1.59,1.56,1.56,0,0,1-1.64,1.58h-4v3.36h3.77a1.56,1.56,0,0,1,1.68,1.59,1.59,1.59,0,0,1-1.68,1.59h-3.77v3.49H290a1.53,1.53,0,0,1,1.63,1.59A1.55,1.55,0,0,1,290,77.48h-5.93a1.68,1.68,0,0,1-1.77-1.72Z"/><path class="cls-17" d="M302.61,63.14a1.6,1.6,0,0,1-1.54,1.7c-.95,0-1.68-.69-3.06-.69-1,0-1.89.53-1.89,1.49,0,2.37,7.68.85,7.68,6.79,0,3.28-2.71,5.33-5.88,5.33-1.77,0-5.59-.41-5.59-2.58a1.54,1.54,0,0,1,1.54-1.63c1.08,0,2.37.9,3.86.9s2.35-.85,2.35-2c0-2.71-7.68-1.08-7.68-6.41,0-3.22,2.64-5.22,5.7-5.22C299.39,60.84,302.61,61.32,302.61,63.14Z"/><path class="cls-17" d="M305.28,62.91a1.65,1.65,0,0,1,1.79-1.8h4.07c3.38,0,5.89,2.21,5.89,5.5s-2.6,5.45-5.75,5.45h-2.55v3.77a1.73,1.73,0,1,1-3.45,0ZM308.73,69h2.34a2.44,2.44,0,0,0,0-4.87h-2.34Z"/><path class="cls-17" d="M317.93,62.77a1.73,1.73,0,1,1,3.45,0v8a3.52,3.52,0,0,0,3.54,3.8,3.62,3.62,0,0,0,3.52-3.8v-8a1.73,1.73,0,1,1,3.45,0V71a7,7,0,0,1-14,0Z"/><path class="cls-17" d="M333.82,63.11c0-1.15.58-2,1.79-2h5.71A1.53,1.53,0,0,1,343,62.7a1.55,1.55,0,0,1-1.63,1.58h-4.05v3.36H341a1.56,1.56,0,0,1,1.68,1.59A1.59,1.59,0,0,1,341,70.82h-3.77v3.49h4.25a1.53,1.53,0,0,1,1.64,1.59,1.56,1.56,0,0,1-1.64,1.58h-5.93a1.68,1.68,0,0,1-1.77-1.72Z"/><path class="cls-17" d="M354.15,63.14a1.6,1.6,0,0,1-1.54,1.7c-.94,0-1.68-.69-3.06-.69-1,0-1.88.53-1.88,1.49,0,2.37,7.68.85,7.68,6.79,0,3.28-2.72,5.33-5.89,5.33-1.77,0-5.59-.41-5.59-2.58a1.54,1.54,0,0,1,1.54-1.63c1.08,0,2.37.9,3.87.9s2.34-.85,2.34-2c0-2.71-7.68-1.08-7.68-6.41,0-3.22,2.64-5.22,5.7-5.22C350.93,60.84,354.15,61.32,354.15,63.14Z"/><path class="cls-17" d="M359.58,64.28h-2.51a1.48,1.48,0,0,1-1.56-1.58,1.54,1.54,0,0,1,1.56-1.59h8.47a1.54,1.54,0,0,1,1.56,1.59,1.48,1.48,0,0,1-1.56,1.58H363V75.83a1.73,1.73,0,1,1-3.45,0Z"/><path class="cls-17" d="M369.54,62.74a2.71,2.71,0,0,1,2.46-1.9,2.6,2.6,0,0,1,2.46,1.9L379,75.25a2.9,2.9,0,0,1,.18.85,1.53,1.53,0,0,1-1.59,1.52,1.59,1.59,0,0,1-1.67-1.19l-.69-2.17h-6.4l-.69,2.14a1.59,1.59,0,0,1-1.65,1.22,1.65,1.65,0,0,1-1.7-1.61,1.92,1.92,0,0,1,.16-.76Zm.25,8.35h4.37L372,64.42h0Z"/><path class="cls-17" d="M182.14,83.74a2.7,2.7,0,0,1,2.46-1.9,2.6,2.6,0,0,1,2.46,1.9l4.5,12.51a2.69,2.69,0,0,1,.19.85,1.53,1.53,0,0,1-1.59,1.52,1.61,1.61,0,0,1-1.68-1.19l-.69-2.17H181.4l-.69,2.14a1.59,1.59,0,0,1-1.66,1.22,1.65,1.65,0,0,1-1.7-1.61,2.12,2.12,0,0,1,.16-.76Zm.25,8.35h4.37l-2.14-6.67h-.05Z"/><path class="cls-17" d="M199,84.11c0-1.15.57-2,1.79-2h5.7a1.52,1.52,0,0,1,1.63,1.59,1.55,1.55,0,0,1-1.63,1.58h-4.05v3.36h3.78a1.55,1.55,0,0,1,1.67,1.59,1.58,1.58,0,0,1-1.67,1.59h-3.78v3.49h4.26a1.53,1.53,0,0,1,1.63,1.59,1.55,1.55,0,0,1-1.63,1.58h-5.93A1.67,1.67,0,0,1,199,96.76Z"/><path class="cls-17" d="M211.32,83.74A2.33,2.33,0,0,1,213.58,82a2.46,2.46,0,0,1,2.3,1.66l2.71,9.11h0l2.71-9.11a2.45,2.45,0,0,1,2.3-1.66,2.31,2.31,0,0,1,2.25,1.77L228,96.58a2.61,2.61,0,0,1,0,.39,1.59,1.59,0,0,1-1.65,1.65c-1.18,0-1.64-.53-1.8-1.61l-1.35-9.36h0l-2.76,9.64a1.94,1.94,0,0,1-3.68,0L214,87.65h0L212.61,97c-.16,1.08-.62,1.61-1.79,1.61A1.59,1.59,0,0,1,209.16,97a2.61,2.61,0,0,1,0-.39Z"/><path class="cls-17" d="M229.65,84.11a1.75,1.75,0,0,1,1.8-2h5.7a1.53,1.53,0,0,1,1.63,1.59,1.55,1.55,0,0,1-1.63,1.58H233.1v3.36h3.77a1.56,1.56,0,0,1,1.68,1.59,1.58,1.58,0,0,1-1.68,1.59H233.1v3.49h4.26A1.53,1.53,0,0,1,239,96.9a1.55,1.55,0,0,1-1.63,1.58h-5.94a1.68,1.68,0,0,1-1.77-1.72Z"/><path class="cls-17" d="M240.3,83.91a1.63,1.63,0,0,1,1.77-1.8h4.05c3.54,0,5.73,1.59,5.73,5.2,0,2.53-1.91,4-4.26,4.34l3.91,4.19a1.49,1.49,0,0,1,.46,1,1.76,1.76,0,0,1-1.72,1.77,1.77,1.77,0,0,1-1.34-.6l-5.1-6.18h-.05v5a1.73,1.73,0,1,1-3.45,0Zm3.45,5.44h2.37a2,2,0,1,0,0-4.07h-2.37Z"/><path class="cls-17" d="M265.83,88.78c1.45,0,2,.74,2,2.21,0,4.44-2.89,7.77-7.49,7.77s-7.91-3.7-7.91-8.46,3.22-8.46,7.91-8.46c3.47,0,6.32,1.63,6.32,3.24a1.45,1.45,0,0,1-1.42,1.61c-1.57,0-1.89-1.68-4.9-1.68S256,87.51,256,90.3s1.41,5.29,4.33,5.29c1.81,0,3.91-1,3.91-3.64h-2.35a1.59,1.59,0,1,1,0-3.17Z"/><path class="cls-17" d="M269.28,84.11a1.75,1.75,0,0,1,1.8-2h5.7a1.53,1.53,0,0,1,1.63,1.59,1.55,1.55,0,0,1-1.63,1.58h-4v3.36h3.77a1.56,1.56,0,0,1,1.68,1.59,1.58,1.58,0,0,1-1.68,1.59h-3.77v3.49H277a1.53,1.53,0,0,1,1.63,1.59A1.55,1.55,0,0,1,277,98.48h-5.94a1.68,1.68,0,0,1-1.77-1.72Z"/><path class="cls-17" d="M279.79,83.77a1.66,1.66,0,0,1,1.73-1.8,2.17,2.17,0,0,1,1.45.76l7.29,9.73h0V83.77a1.73,1.73,0,1,1,3.45,0V96.83A1.64,1.64,0,0,1,292,98.62a2.17,2.17,0,0,1-1.45-.76l-7.29-9.61h-.05v8.58a1.73,1.73,0,1,1-3.45,0Z"/><path class="cls-17" d="M303,81.84c1.68,0,4.95.55,4.95,2.57A1.46,1.46,0,0,1,306.47,86c-.94,0-1.58-.8-3.52-.8-2.85,0-4.32,2.41-4.32,5.22s1.49,5.08,4.32,5.08c1.94,0,2.72-1,3.66-1a1.63,1.63,0,0,1,1.52,1.57c0,2.2-3.47,2.71-5.18,2.71-4.66,0-7.91-3.7-7.91-8.46S298.26,81.84,303,81.84Z"/><path class="cls-17" d="M309.74,83.77a1.73,1.73,0,1,1,3.45,0V96.83a1.73,1.73,0,1,1-3.45,0Z"/><path class="cls-17" d="M319.05,83.74a2.71,2.71,0,0,1,2.46-1.9,2.6,2.6,0,0,1,2.46,1.9l4.51,12.51a2.69,2.69,0,0,1,.19.85,1.53,1.53,0,0,1-1.59,1.52,1.61,1.61,0,0,1-1.68-1.19l-.69-2.17h-6.39l-.69,2.14A1.6,1.6,0,0,1,316,98.62a1.65,1.65,0,0,1-1.7-1.61,2.12,2.12,0,0,1,.16-.76Zm.26,8.35h4.37l-2.14-6.67h-.05Z"/><path class="cls-17" d="M339.43,84.14a1.6,1.6,0,0,1-1.54,1.7c-.94,0-1.68-.69-3.06-.69-1,0-1.88.53-1.88,1.49,0,2.37,7.68.85,7.68,6.79,0,3.28-2.72,5.33-5.89,5.33-1.77,0-5.59-.41-5.59-2.58a1.54,1.54,0,0,1,1.54-1.63c1.08,0,2.37.9,3.87.9s2.34-.85,2.34-2c0-2.71-7.68-1.08-7.68-6.41,0-3.22,2.64-5.22,5.7-5.22C336.21,81.84,339.43,82.32,339.43,84.14Z"/><rect class="cls-18" x="267.01" y="108.07" width="88.33" height="33.92" rx="7.12"/><path class="cls-16" d="M273.27,120.74a1.08,1.08,0,0,1,1.17-1.17h2.66a3.57,3.57,0,0,1,3.84,3.59,3.53,3.53,0,0,1-3.75,3.55h-1.67v2.46a1.13,1.13,0,1,1-2.25,0Zm2.25,4h1.53a1.59,1.59,0,0,0,0-3.18h-1.53Z"/><path class="cls-16" d="M281.61,120.74a1.07,1.07,0,0,1,1.16-1.17h2.64c2.31,0,3.73,1,3.73,3.39a2.91,2.91,0,0,1-2.77,2.84l2.55,2.73a1,1,0,0,1,.3.66,1.14,1.14,0,0,1-2,.76l-3.33-4h0v3.25a1.13,1.13,0,1,1-2.25,0Zm2.25,3.56h1.55A1.28,1.28,0,0,0,286.8,123a1.26,1.26,0,0,0-1.39-1.32h-1.55Z"/><path class="cls-16" d="M289.53,124.91c0-3.12,2.1-5.52,5.16-5.52a5.25,5.25,0,0,1,5.16,5.52c0,3.11-2.08,5.52-5.16,5.52A5.19,5.19,0,0,1,289.53,124.91Zm8,0c0-1.81-.94-3.45-2.82-3.45s-2.82,1.64-2.82,3.45.92,3.45,2.82,3.45S297.51,126.74,297.51,124.91Z"/><path class="cls-16" d="M303.26,120.64a1.76,1.76,0,0,1,1.6-1.25,1.71,1.71,0,0,1,1.61,1.25l2.94,8.16a1.75,1.75,0,0,1,.12.55,1,1,0,0,1-1,1,1,1,0,0,1-1.09-.78l-.45-1.41h-4.17l-.45,1.4a1,1,0,0,1-1.08.79,1.08,1.08,0,0,1-1.11-1.05,1.25,1.25,0,0,1,.1-.49Zm.16,5.44h2.85l-1.39-4.35h0Z"/><path class="cls-16" d="M315,119.39c1.1,0,3.23.36,3.23,1.68a1,1,0,0,1-.93,1c-.62,0-1-.53-2.3-.53-1.86,0-2.82,1.58-2.82,3.41s1,3.31,2.82,3.31c1.26,0,1.77-.63,2.39-.63a1.06,1.06,0,0,1,1,1c0,1.44-2.27,1.77-3.38,1.77a5.19,5.19,0,0,1-5.16-5.52C309.81,121.79,311.91,119.39,315,119.39Z"/><path class="cls-16" d="M321.2,121.64h-1.64a1,1,0,0,1-1-1,1,1,0,0,1,1-1h5.52a1,1,0,0,1,1,1,1,1,0,0,1-1,1h-1.63v7.53a1.13,1.13,0,1,1-2.25,0Z"/><path class="cls-16" d="M326.6,120.65a1.13,1.13,0,1,1,2.25,0v8.52a1.13,1.13,0,1,1-2.25,0Z"/><path class="cls-16" d="M329.57,121.12a1.36,1.36,0,0,1-.11-.56,1.12,1.12,0,0,1,2.18-.34l2.32,6.24,2.33-6.24a1.12,1.12,0,0,1,2.17.34,1.54,1.54,0,0,1-.1.56l-3.29,8.35a1.12,1.12,0,0,1-1.11.87c-.66,0-.91-.39-1.11-.87Z"/><path class="cls-16" d="M338.66,124.91c0-3.12,2.1-5.52,5.16-5.52a5.25,5.25,0,0,1,5.16,5.52c0,3.11-2.09,5.52-5.16,5.52A5.19,5.19,0,0,1,338.66,124.91Zm8,0c0-1.81-.95-3.45-2.82-3.45S341,123.1,341,124.91s.91,3.45,2.82,3.45S346.64,126.74,346.64,124.91Z"/><rect class="cls-4" x="362.84" y="108.07" width="88.33" height="33.92" rx="7.12"/><path class="cls-16" d="M375.22,120.74a1.06,1.06,0,0,1,1.15-1.17H379c2.31,0,3.74,1,3.74,3.39A2.92,2.92,0,0,1,380,125.8l2.55,2.73a1,1,0,0,1,.3.66,1.13,1.13,0,0,1-2,.76l-3.33-4h0v3.25a1.13,1.13,0,1,1-2.25,0Zm2.25,3.56H379a1.28,1.28,0,0,0,1.4-1.34,1.26,1.26,0,0,0-1.4-1.32h-1.54Z"/><path class="cls-16" d="M383.56,120.88c0-.75.37-1.31,1.17-1.31h3.72a1,1,0,0,1,1.06,1,1,1,0,0,1-1.06,1h-2.64v2.19h2.46a1,1,0,1,1,0,2.07h-2.46v2.28h2.77a1,1,0,1,1,0,2.07h-3.87a1.09,1.09,0,0,1-1.15-1.12Z"/><path class="cls-16" d="M393,120.64a1.76,1.76,0,0,1,1.6-1.25,1.71,1.71,0,0,1,1.61,1.25l2.94,8.16a1.75,1.75,0,0,1,.12.55,1,1,0,0,1-1,1,1,1,0,0,1-1.09-.78l-.45-1.41H392.5l-.45,1.4a1,1,0,0,1-1.08.79,1.08,1.08,0,0,1-1.11-1.05,1.25,1.25,0,0,1,.1-.49Zm.16,5.44H396l-1.39-4.35h0Z"/><path class="cls-16" d="M404.69,119.39c1.1,0,3.23.36,3.23,1.68a1,1,0,0,1-.93,1c-.62,0-1-.53-2.3-.53-1.86,0-2.82,1.58-2.82,3.41s1,3.31,2.82,3.31c1.26,0,1.77-.63,2.39-.63a1.06,1.06,0,0,1,1,1c0,1.44-2.27,1.77-3.38,1.77a5.19,5.19,0,0,1-5.16-5.52C399.53,121.79,401.63,119.39,404.69,119.39Z"/><path class="cls-16" d="M410.92,121.64h-1.64a1,1,0,0,1-1-1,1,1,0,0,1,1-1h5.52a1,1,0,0,1,1,1,1,1,0,0,1-1,1h-1.63v7.53a1.13,1.13,0,1,1-2.25,0Z"/><path class="cls-16" d="M416.32,120.65a1.13,1.13,0,1,1,2.25,0v8.52a1.13,1.13,0,1,1-2.25,0Z"/><path class="cls-16" d="M419.29,121.12a1.36,1.36,0,0,1-.11-.56,1.12,1.12,0,0,1,2.18-.34l2.32,6.24,2.33-6.24a1.12,1.12,0,0,1,2.17.34,1.54,1.54,0,0,1-.1.56l-3.29,8.35a1.12,1.12,0,0,1-1.11.87c-.66,0-.91-.39-1.11-.87Z"/><path class="cls-16" d="M428.38,124.91c0-3.12,2.1-5.52,5.16-5.52a5.25,5.25,0,0,1,5.16,5.52c0,3.11-2.09,5.52-5.16,5.52A5.19,5.19,0,0,1,428.38,124.91Zm8,0c0-1.81-.95-3.45-2.82-3.45s-2.82,1.64-2.82,3.45.91,3.45,2.82,3.45S436.36,126.74,436.36,124.91Z"/></g></g></g></svg>