<svg xmlns="http://www.w3.org/2000/svg" viewBox="0 0 963.77 322.66"><defs><style>.cls-1{isolation:isolate;}.cls-2{fill:#eadf1b;}.cls-3{fill:#eda719;}.cls-4{fill:#df244b;}.cls-5{fill:#7dba43;}.cls-6{fill:#335215;}.cls-7{fill:#755403;}.cls-8{fill:#6e071c;}.cls-10,.cls-11,.cls-9{fill:none;stroke-width:2px;}.cls-9{stroke:#335215;}.cls-11,.cls-9{stroke-linejoin:round;}.cls-10{stroke:#755403;stroke-miterlimit:10;}.cls-11{stroke:#6e071c;}.cls-12{fill:#cfd0d2;mix-blend-mode:multiply;}.cls-13{fill:#feede1;}.cls-14{fill:#dfcfc4;}.cls-15{fill:#e5c94f;}.cls-16{fill:#fff;}.cls-17{fill:#142339;}.cls-18{fill:#ea821b;}</style></defs><g class="cls-1"><g id="Capa_2" data-name="Capa 2"><g id="Capa_1-2" data-name="Capa 1"><rect class="cls-2" x="169.88" y="159.06" width="90.92" height="22.47" rx="3"/><rect class="cls-2" x="264.41" y="159.06" width="90.92" height="22.47" rx="3"/><rect class="cls-3" x="358.95" y="159.06" width="90.92" height="22.47" rx="3"/><rect class="cls-4" x="453.48" y="159.06" width="90.92" height="22.47" rx="3"/><rect class="cls-4" x="548.02" y="159.06" width="90.92" height="22.47" rx="3"/><rect class="cls-5" x="169.88" y="185.14" width="90.92" height="22.47" rx="3"/><rect class="cls-2" x="264.41" y="185.14" width="90.92" height="22.47" rx="3"/><rect class="cls-3" x="358.95" y="185.14" width="90.92" height="22.47" rx="3"/><rect class="cls-4" x="453.48" y="185.14" width="90.92" height="22.47" rx="3"/><rect class="cls-4" x="548.02" y="185.14" width="90.92" height="22.47" rx="3"/><rect class="cls-5" x="169.88" y="211.22" width="90.92" height="22.47" rx="3"/><rect class="cls-2" x="264.41" y="211.22" width="90.92" height="22.47" rx="3"/><rect class="cls-2" x="358.95" y="211.22" width="90.92" height="22.47" rx="3"/><rect class="cls-3" x="453.48" y="211.22" width="90.92" height="22.47" rx="3"/><rect class="cls-4" x="548.02" y="211.22" width="90.92" height="22.47" rx="3"/><rect class="cls-5" x="169.88" y="237.3" width="90.92" height="22.47" rx="3"/><rect class="cls-5" x="264.41" y="237.3" width="90.92" height="22.47" rx="3"/><rect class="cls-2" x="358.95" y="237.3" width="90.92" height="22.47" rx="3"/><rect class="cls-3" x="453.48" y="237.3" width="90.92" height="22.47" rx="3"/><rect class="cls-4" x="548.02" y="237.3" width="90.92" height="22.47" rx="3"/><rect class="cls-5" x="169.88" y="263.38" width="90.92" height="22.47" rx="3"/><rect class="cls-5" x="264.41" y="263.38" width="90.92" height="22.47" rx="3"/><rect class="cls-5" x="358.95" y="263.38" width="90.92" height="22.47" rx="3"/><rect class="cls-2" x="453.48" y="263.38" width="90.92" height="22.47" rx="3"/><rect class="cls-3" x="548.02" y="263.38" width="90.92" height="22.47" rx="3"/><path class="cls-6" d="M260,185.94v48.43a3.74,3.74,0,0,0,3.73,3.73h90.81v22.35a3.73,3.73,0,0,0,3.73,3.73h90.81v20.88H170.67V185.94H260m.28-2H170.4a1.73,1.73,0,0,0-1.73,1.72v99.67a1.74,1.74,0,0,0,1.73,1.73h279a1.74,1.74,0,0,0,1.73-1.73V263.91a1.73,1.73,0,0,0-1.73-1.73H358.27a1.72,1.72,0,0,1-1.73-1.73V237.83a1.72,1.72,0,0,0-1.73-1.73H263.73a1.73,1.73,0,0,1-1.73-1.73V185.66a1.72,1.72,0,0,0-1.72-1.72Z"/><path class="cls-7" d="M449.08,159.86v48.43A3.73,3.73,0,0,0,452.8,212h90.81v48.43a3.73,3.73,0,0,0,3.73,3.73h90.81v20.88H454.28V262.7a3.73,3.73,0,0,0-3.73-3.72H359.74V236.62a3.73,3.73,0,0,0-3.72-3.73H265.21V184.46a3.74,3.74,0,0,0-3.73-3.73H170.67V159.86H449.08m.27-2h-279a1.73,1.73,0,0,0-1.73,1.72V181a1.73,1.73,0,0,0,1.73,1.72h91.08a1.73,1.73,0,0,1,1.73,1.73v48.71a1.72,1.72,0,0,0,1.72,1.72H356a1.73,1.73,0,0,1,1.72,1.73v22.63a1.74,1.74,0,0,0,1.73,1.73h91.08a1.72,1.72,0,0,1,1.73,1.72v22.63a1.73,1.73,0,0,0,1.73,1.73H638.42a1.74,1.74,0,0,0,1.73-1.73V263.91a1.73,1.73,0,0,0-1.73-1.73H547.34a1.72,1.72,0,0,1-1.73-1.73V211.74a1.72,1.72,0,0,0-1.72-1.72H452.8a1.72,1.72,0,0,1-1.72-1.73V159.58a1.73,1.73,0,0,0-1.73-1.72Z"/><path class="cls-8" d="M638.15,159.86V259H548.82V210.54a3.74,3.74,0,0,0-3.73-3.73H454.28V159.86H638.15m.27-2H454a1.72,1.72,0,0,0-1.73,1.72v47.51a1.72,1.72,0,0,0,1.73,1.72h91.08a1.74,1.74,0,0,1,1.73,1.73v48.71a1.73,1.73,0,0,0,1.72,1.73h89.88a1.74,1.74,0,0,0,1.73-1.73V159.58a1.73,1.73,0,0,0-1.73-1.72Z"/><path class="cls-9" d="M122.52,274.62s19.74-31.51,107.33-26.23"/><polygon class="cls-6" points="225.72 251.65 229.26 248.41 226.02 244.88 228.89 245 232.13 248.54 228.6 251.78 225.72 251.65"/><path class="cls-10" d="M681.87,252.26c-52-30.66-207.67-42.39-244.65-25"/><polygon class="cls-7" points="439.35 222.5 437.78 227.03 442.32 228.59 439.73 229.85 435.2 228.29 436.76 223.76 439.35 222.5"/><path class="cls-10" d="M823.58,310.48C694.45,335.82,552,318.82,522.39,252.19"/><polygon class="cls-7" points="527.1 254.49 522.64 252.73 520.88 257.19 519.74 254.55 521.5 250.09 525.96 251.85 527.1 254.49"/><path class="cls-11" d="M680.05,133.28s-78.63,4.75-94.64,60.89"/><polygon class="cls-8" points="583.32 189.41 585.62 193.62 589.83 191.31 589.02 194.08 584.81 196.38 582.51 192.17 583.32 189.41"/><path class="cls-11" d="M521.5,133.1s5.36,25.36-24.7,38.41"/><polygon class="cls-8" points="499.15 166.82 497.34 171.27 501.78 173.07 499.13 174.19 494.69 172.38 496.49 167.94 499.15 166.82"/><polygon class="cls-12" points="484.94 10.42 480.1 125.03 480.1 125.03 480.1 125.03 498.77 144.3 612.38 149.09 618 16.04 484.94 10.42"/><polygon class="cls-13" points="615.72 13.77 482.67 8.15 477.82 122.75 496.5 142.03 610.1 146.82 615.72 13.77"/><polygon class="cls-14" points="496.5 142.03 477.82 122.75 497.28 123.58 496.5 142.03"/><path class="cls-15" d="M596.85,3.33,530.7,0c-.18,1-.5,2.09-.56,2.63a73.22,73.22,0,0,0-.48,11.08l67.15,3.37c0-3.06,0-6.13.07-9.2C596.91,6.5,596.75,4.83,596.85,3.33Z"/><rect class="cls-4" x="502.79" y="47.05" width="88.33" height="33.92" rx="7.12" transform="translate(3.19 -23.02) rotate(2.42)"/><path class="cls-16" d="M515.38,58.39a1.06,1.06,0,0,1,1.2-1.12l2.64.11c2.31.1,3.69,1.19,3.59,3.54a2.92,2.92,0,0,1-2.89,2.72l2.43,2.83a1,1,0,0,1,.27.68,1.14,1.14,0,0,1-1.17,1.1,1.18,1.18,0,0,1-.86-.42l-3.15-4.18h0l-.14,3.26a1.13,1.13,0,1,1-2.25-.1Zm2.1,3.65,1.54.06a1.28,1.28,0,0,0,1.45-1.27,1.25,1.25,0,0,0-1.34-1.38l-1.54-.07Z"/><path class="cls-16" d="M523.71,58.88c0-.75.42-1.29,1.22-1.26l3.72.16a1,1,0,0,1,1,1.08,1,1,0,0,1-1.11,1l-2.64-.12-.09,2.19,2.46.11a1,1,0,0,1,1.05,1.08,1,1,0,0,1-1.14,1l-2.46-.1-.1,2.28,2.78.12a1,1,0,0,1,1,1.07,1,1,0,0,1-1.11,1l-3.87-.16a1.09,1.09,0,0,1-1.1-1.17Z"/><path class="cls-16" d="M533.13,59a1.74,1.74,0,0,1,1.65-1.17,1.68,1.68,0,0,1,1.55,1.31l2.6,8.27A1.59,1.59,0,0,1,539,68,1,1,0,0,1,538,69a1.05,1.05,0,0,1-1.06-.83l-.39-1.42-4.17-.18-.51,1.37a1,1,0,0,1-1.11.75,1.08,1.08,0,0,1-1.07-1.09,1.3,1.3,0,0,1,.13-.49Zm-.07,5.45,2.85.12-1.21-4.4h0Z"/><path class="cls-16" d="M544.88,58.28c1.1,0,3.21.5,3.16,1.82a1,1,0,0,1-1,1c-.61,0-1-.57-2.27-.62-1.86-.08-2.88,1.46-3,3.28s.84,3.36,2.68,3.43c1.26.06,1.79-.55,2.41-.52a1,1,0,0,1,.94,1.06c-.06,1.44-2.33,1.67-3.44,1.62a5.19,5.19,0,0,1-4.92-5.73C539.63,60.46,541.83,58.15,544.88,58.28Z"/><path class="cls-16" d="M551,60.79l-1.63-.06a1,1,0,0,1-1-1.08,1,1,0,0,1,1.06-1l5.52.23A1,1,0,0,1,556,60a1,1,0,0,1-1.06,1l-1.63-.07-.32,7.52a1.13,1.13,0,1,1-2.25-.09Z"/><path class="cls-16" d="M556.45,60a1.07,1.07,0,0,1,1.17-1.12,1.08,1.08,0,0,1,1.07,1.22l-.36,8.51a1.12,1.12,0,1,1-2.24-.1Z"/><path class="cls-16" d="M559.39,60.62a1.52,1.52,0,0,1-.08-.56,1.13,1.13,0,0,1,1.2-1,1.15,1.15,0,0,1,1,.78l2.06,6.33L566.14,60a1.13,1.13,0,0,1,1.06-.69,1.11,1.11,0,0,1,1.1,1.12,1.31,1.31,0,0,1-.13.55l-3.63,8.21a1.12,1.12,0,0,1-1.15.82c-.65,0-.89-.42-1.07-.91Z"/><path class="cls-16" d="M568.31,64.8c.14-3.12,2.34-5.43,5.39-5.3a5.26,5.26,0,0,1,4.93,5.73c-.14,3.1-2.32,5.43-5.39,5.3A5.2,5.2,0,0,1,568.31,64.8Zm8,.33c.07-1.81-.8-3.48-2.67-3.56s-2.89,1.51-3,3.33.77,3.48,2.67,3.56S576.21,67,576.29,65.13Z"/><path class="cls-17" d="M516.75,86.2a1,1,0,0,1,1.14-1l2.47.1a3.33,3.33,0,0,1,3.44,3.5,3.29,3.29,0,0,1-3.63,3.17l-1.56-.07-.1,2.3a1,1,0,1,1-2.09-.09ZM518.69,90l1.43.06a1.48,1.48,0,0,0,.12-3l-1.43-.06Z"/><path class="cls-17" d="M524.47,85.74a1,1,0,1,1,2,.09l-.36,8.62a1,1,0,1,1-2-.09Z"/><path class="cls-17" d="M534.14,94.59c0,.52-.06,1.32-1,1.28-.59,0-.82-.36-.93-.9a2.45,2.45,0,0,1-2,.86c-1.89-.08-3.26-1.75-3.17-4s1.65-3.84,3.5-3.76a2.31,2.31,0,0,1,1.88,1,1,1,0,0,1,1-.8c1,0,.93.84.91,1.36Zm-3.55-.6c1,.05,1.59-1,1.64-2s-.41-2.08-1.47-2.13-1.64,1-1.68,2S529.5,94,530.59,94Z"/><path class="cls-17" d="M535.5,89.46a1,1,0,0,1,1-1.08.86.86,0,0,1,.9.78,2.19,2.19,0,0,1,2-.74,2.59,2.59,0,0,1,2.64,2.83l-.16,3.87a1,1,0,1,1-2-.09l.15-3.51a1.3,1.3,0,1,0-2.6-.11l-.15,3.51A1,1,0,0,1,536.23,96a1,1,0,0,1-1-1.16Z"/><path class="cls-17" d="M547,90a1,1,0,0,1,1.06-1.08,1,1,0,0,1,1,.88,2.25,2.25,0,0,1,2-.84c2.17.09,3.16,2.17,3.08,4.13a3.58,3.58,0,0,1-3.48,3.65,2.92,2.92,0,0,1-1.82-.78l-.1,2.46a1,1,0,1,1-2-.08Zm3.4,4.88c1.05,0,1.61-1,1.65-2s-.43-2.08-1.48-2.13-1.62.94-1.66,1.92S549.32,94.78,550.42,94.83Z"/><path class="cls-17" d="M561.72,95.76c0,.51-.06,1.31-1,1.27-.59,0-.81-.36-.93-.89a2.44,2.44,0,0,1-2,.85c-1.89-.08-3.26-1.75-3.17-4s1.65-3.85,3.5-3.77a2.31,2.31,0,0,1,1.88,1,1,1,0,0,1,1-.8c1,0,.93.84.91,1.35Zm-3.55-.6c1.05,0,1.6-1,1.64-2s-.4-2.08-1.47-2.12-1.64,1-1.68,2S557.08,95.11,558.17,95.16Z"/><path class="cls-17" d="M563.06,90.51a1,1,0,0,1,1.08-1c.53,0,1,.24.94.88h0a1.59,1.59,0,0,1,1.45-.78,1,1,0,0,1,.93,1.12c0,.66-.63.67-1.24.93S565,92.19,565,93l-.13,3.09a1,1,0,1,1-2-.08Z"/><path class="cls-17" d="M574.41,96.29c0,.52-.06,1.32-1,1.28-.58,0-.81-.36-.92-.9a2.42,2.42,0,0,1-2,.86c-1.89-.08-3.26-1.75-3.17-4s1.65-3.84,3.5-3.76a2.31,2.31,0,0,1,1.88,1,1,1,0,0,1,1-.8c1,0,.93.84.91,1.36Zm-3.55-.6c1,0,1.59-1,1.64-2s-.41-2.08-1.47-2.12-1.64,1-1.68,2S569.76,95.65,570.86,95.69Z"/><path class="cls-17" d="M500.86,103.37a1.75,1.75,0,0,0,1.84,1.54c1,0,1.79-.74,2.32-.72a.9.9,0,0,1,.79.91c0,.86-1.86,1.63-3.36,1.57a3.69,3.69,0,0,1-3.62-4,3.63,3.63,0,1,1,7.25.07c0,.6-.31.88-.92.86Zm3.22-1.21a1.59,1.59,0,0,0-1.54-1.6,1.61,1.61,0,0,0-1.66,1.47Z"/><path class="cls-17" d="M506.41,100.69a1.37,1.37,0,0,1-.1-.59,1,1,0,0,1,1.09-.94.93.93,0,0,1,.87.76l1.12,4h0l1.45-3.92a.93.93,0,0,1,.93-.67,1,1,0,0,1,1,1,1.35,1.35,0,0,1-.15.59l-2.25,5.12a1,1,0,0,1-1.12.79c-.69,0-.89-.36-1.06-.89Z"/><path class="cls-17" d="M514.84,104a1.74,1.74,0,0,0,1.84,1.54c1,0,1.78-.74,2.31-.72a.89.89,0,0,1,.79.91c0,.86-1.86,1.63-3.36,1.57a3.67,3.67,0,0,1-3.61-4,3.62,3.62,0,1,1,7.24.07.76.76,0,0,1-.92.85Zm3.21-1.21a1.58,1.58,0,0,0-1.54-1.6,1.62,1.62,0,0,0-1.66,1.47Z"/><path class="cls-17" d="M520.87,100.85a1,1,0,0,1,1-1.07.84.84,0,0,1,.89.78,2.19,2.19,0,0,1,2-.75,2.58,2.58,0,0,1,2.64,2.83l-.16,3.87a1,1,0,1,1-2-.09l.15-3.51a1.31,1.31,0,1,0-2.61-.11l-.15,3.51a1,1,0,1,1-2-.08Z"/><path class="cls-17" d="M529.1,101.93l-.45,0a.82.82,0,0,1-.84-.92.86.86,0,0,1,.92-.84l.45,0,.05-1.21a1,1,0,0,1,1-1.07,1,1,0,0,1,1,1.16l0,1.2.57,0c.52,0,1,.27.93.92a.85.85,0,0,1-1,.84l-.57,0-.2,4.64a1,1,0,1,1-2-.08Z"/><path class="cls-17" d="M539.6,104.35a3.63,3.63,0,1,1-7.23-.3,3.63,3.63,0,1,1,7.23.3Zm-5.21-.22c0,1,.42,2.05,1.51,2.1s1.64-1,1.68-2-.4-2.08-1.51-2.13S534.43,103.16,534.39,104.13Z"/><path class="cls-17" d="M544.75,103c-.38,0-1.12-.63-1.78-.66-.36,0-.69.14-.71.53,0,.94,3.47.94,3.37,3.24-.06,1.34-1.23,2.32-3,2.24-1.13,0-2.78-.76-2.75-1.67a1,1,0,0,1,.91-.86c.78,0,1.1.74,2.06.78.61,0,.8-.17.82-.54,0-.93-3.47-.94-3.37-3.24a2.45,2.45,0,0,1,2.83-2.24c1,0,2.5.57,2.46,1.56A.88.88,0,0,1,544.75,103Z"/><path class="cls-17" d="M555.23,103.34c-.5,0-.93-.43-1.58-.46-1.14,0-1.73,1-1.78,2a1.86,1.86,0,0,0,1.61,2.1,11.14,11.14,0,0,0,1.52-.36.89.89,0,0,1,.83.92c-.05,1-1.8,1.31-2.52,1.28a3.67,3.67,0,0,1-3.45-4,3.76,3.76,0,0,1,3.77-3.75c.8,0,2.46.4,2.41,1.38C556,102.83,555.71,103.36,555.23,103.34Z"/><path class="cls-17" d="M556.72,102.26a1,1,0,0,1,1.08-1c.53,0,1,.24.94.88h0a1.61,1.61,0,0,1,1.45-.78,1,1,0,0,1,.93,1.12c0,.66-.63.68-1.24.93s-1.24.5-1.28,1.29l-.13,3.1a1,1,0,1,1-2-.09Z"/><path class="cls-17" d="M563,98.36a1.4,1.4,0,0,1,.54-.12.89.89,0,0,1,.72.9.8.8,0,0,1-.61.8l-1.59.55c-.41.12-.29.13-.57.12s-.72-.57-.69-1.06a.67.67,0,0,1,.41-.54l.12-.05Zm-1.62,4.2a1,1,0,1,1,2,.09l-.23,5.37a1,1,0,1,1-2-.08Z"/><path class="cls-17" d="M565,103.44h-.44a.83.83,0,0,1-.85-.92.87.87,0,0,1,.92-.85l.45,0,.05-1.2a1,1,0,1,1,2,.08l-.05,1.21.58,0a.89.89,0,1,1-.08,1.76l-.57,0-.2,4.65a1,1,0,1,1-2-.09Z"/><path class="cls-17" d="M568.62,102.87a1,1,0,1,1,2,.09l-.22,5.37a1,1,0,1,1-2-.09Zm2.27-3A1.17,1.17,0,0,1,569.7,101a1.18,1.18,0,0,1-1.08-1.21,1.14,1.14,0,0,1,2.27.09Z"/><path class="cls-17" d="M576.72,104.25c-.51,0-.94-.43-1.58-.46-1.15-.05-1.74.95-1.78,2a1.86,1.86,0,0,0,1.61,2.1,11.32,11.32,0,0,0,1.51-.36.88.88,0,0,1,.83.92c0,1-1.79,1.31-2.52,1.28a3.67,3.67,0,0,1-3.45-4,3.76,3.76,0,0,1,3.78-3.75c.8,0,2.45.4,2.41,1.38C577.51,103.74,577.19,104.27,576.72,104.25Z"/><path class="cls-17" d="M585,106.27a3.62,3.62,0,1,1-7.22-.31,3.62,3.62,0,1,1,7.22.31Zm-5.21-.22c0,1,.42,2,1.51,2.1s1.64-1,1.69-2-.41-2.07-1.51-2.12S579.88,105.08,579.83,106.05Z"/><path class="cls-17" d="M590.2,104.93c-.38,0-1.13-.64-1.78-.66-.37,0-.7.14-.71.53,0,.94,3.46.94,3.36,3.24-.05,1.34-1.23,2.32-3,2.24-1.14,0-2.79-.76-2.75-1.67a.94.94,0,0,1,.9-.86c.79,0,1.11.73,2.06.77.61,0,.81-.16.82-.54,0-.92-3.46-.93-3.37-3.24a2.45,2.45,0,0,1,2.83-2.23c1,0,2.5.57,2.46,1.56A.87.87,0,0,1,590.2,104.93Z"/><polygon class="cls-12" points="800.69 13.36 805.53 127.96 805.53 127.96 805.53 127.96 786.85 147.24 673.25 152.03 667.63 18.98 800.69 13.36"/><polygon class="cls-13" points="665.32 16.7 798.37 11.08 803.21 125.69 784.54 144.96 670.93 149.76 665.32 16.7"/><polygon class="cls-14" points="784.54 144.96 803.21 125.69 783.76 126.51 784.54 144.96"/><path class="cls-15" d="M716.53,6.26l66.14-3.32c.19,1,.51,2.08.57,2.62a73.27,73.27,0,0,1,.48,11.08L716.57,20c0-3.07,0-6.14-.07-9.2C716.47,9.44,716.63,7.77,716.53,6.26Z"/><rect class="cls-5" x="689.92" y="49.99" width="88.33" height="33.92" rx="7.12" transform="translate(-2.17 31.03) rotate(-2.42)"/><path class="cls-16" d="M695.91,64.26A1.07,1.07,0,0,1,697,63.05l2.66-.12a3.57,3.57,0,0,1,4,3.42,3.51,3.51,0,0,1-3.59,3.71l-1.67.07.11,2.46a1.13,1.13,0,1,1-2.25.1Zm2.42,3.9,1.53-.07a1.59,1.59,0,0,0-.14-3.18L698.2,65Z"/><path class="cls-16" d="M704.25,63.91a1.06,1.06,0,0,1,1.1-1.22l2.64-.11c2.31-.09,3.77.88,3.87,3.23a2.9,2.9,0,0,1-2.65,3l2.66,2.62a1,1,0,0,1,.33.65,1.16,1.16,0,0,1-1.07,1.2,1.18,1.18,0,0,1-.89-.35L706.74,69h0l.14,3.25a1.13,1.13,0,1,1-2.25.09Zm2.39,3.46,1.55-.07a1.33,1.33,0,1,0-.11-2.65l-1.55.07Z"/><path class="cls-16" d="M712.58,63.7a1.15,1.15,0,0,1,1.12-1.36l3.72-.16a1,1,0,1,1,.08,2.07l-2.64.11.1,2.19,2.45-.1a1,1,0,0,1,1.14,1,1,1,0,0,1-1,1.08l-2.46.1.1,2.28,2.77-.12a1,1,0,0,1,1.11,1,1,1,0,0,1-1,1.08l-3.87.16a1.09,1.09,0,0,1-1.2-1.07Z"/><path class="cls-16" d="M719.52,63.25a1.1,1.1,0,0,1,1.1-1.2l2.49-.11c3.36-.14,5.37,1.94,5.51,5.27a4.86,4.86,0,0,1-4.91,5.4l-2.61.11a1.1,1.1,0,0,1-1.23-1.08Zm2.56,7.36,1.51-.07c1.94-.08,2.76-1.54,2.68-3.34s-1-3.27-3.1-3.19l-1.37.06Z"/><path class="cls-16" d="M729.51,62.76a1.13,1.13,0,1,1,2.25-.1l.36,8.51a1.13,1.13,0,1,1-2.25.1Z"/><path class="cls-16" d="M737.79,61.15c1.09,0,3.24.22,3.29,1.54a1,1,0,0,1-.89,1c-.61,0-1.05-.48-2.31-.43-1.86.08-2.75,1.7-2.67,3.52s1.11,3.28,2.95,3.2c1.26-.06,1.74-.71,2.36-.73a1,1,0,0,1,1,1c.06,1.44-2.19,1.87-3.3,1.92a5.2,5.2,0,0,1-5.38-5.3C732.73,63.76,734.73,61.27,737.79,61.15Z"/><path class="cls-16" d="M744.1,63.13l-1.63.07a1,1,0,0,1-1.06-1,1,1,0,0,1,1-1.08l5.52-.23a1,1,0,0,1,1.06,1A1,1,0,0,1,748,63l-1.63.06.32,7.53a1.13,1.13,0,1,1-2.25.09Z"/><path class="cls-16" d="M749.46,61.91a1.12,1.12,0,1,1,2.24-.09l.36,8.51a1.12,1.12,0,1,1-2.24.1Z"/><path class="cls-16" d="M752.44,62.25a1.3,1.3,0,0,1-.12-.55,1.12,1.12,0,0,1,2.15-.43l2.59,6.13,2.06-6.33a1.12,1.12,0,0,1,2.19.25,1.35,1.35,0,0,1-.09.56l-2.92,8.49c-.18.49-.42.89-1.08.91a1.11,1.11,0,0,1-1.14-.82Z"/><path class="cls-16" d="M761.69,65.66c-.14-3.12,1.86-5.6,4.92-5.73a5.25,5.25,0,0,1,5.39,5.3c.13,3.1-1.85,5.6-4.93,5.73A5.19,5.19,0,0,1,761.69,65.66Zm8-.34c-.08-1.81-1.09-3.4-3-3.32S764,63.75,764,65.56s1.06,3.41,3,3.33S769.74,67.15,769.66,65.32Z"/><path class="cls-17" d="M674.59,92.92a1,1,0,0,1,1-1.14l2.48-.1a3.34,3.34,0,1,1,.36,6.66l-1.55.06.1,2.3a1.05,1.05,0,1,1-2.1.09Zm2.25,3.63,1.43-.06a1.48,1.48,0,0,0-.13-3l-1.42.06Z"/><path class="cls-17" d="M682.25,91.81a1,1,0,1,1,2-.08l.37,8.62a1,1,0,1,1-2,.08Z"/><path class="cls-17" d="M692.62,99.81c0,.52,0,1.32-.91,1.36-.59,0-.84-.29-1-.81a2.46,2.46,0,0,1-1.88,1c-1.89.08-3.4-1.47-3.49-3.74s1.31-4,3.16-4a2.33,2.33,0,0,1,2,.85,1,1,0,0,1,.93-.88c1,0,1,.75,1,1.27ZM689,99.52c1.05,0,1.51-1.13,1.47-2.1s-.58-2-1.64-2-1.55,1.16-1.51,2.12S687.94,99.56,689,99.52Z"/><path class="cls-17" d="M693.54,94.59a1,1,0,0,1,1-1.16.85.85,0,0,1,1,.7,2.19,2.19,0,0,1,1.91-.91,2.58,2.58,0,0,1,2.87,2.6l.16,3.86a1,1,0,1,1-2,.09l-.15-3.52a1.3,1.3,0,1,0-2.6.11l.15,3.52a1,1,0,1,1-2,.08Z"/><path class="cls-17" d="M712.18,99.18a1,1,0,0,1-1,1.17,1,1,0,0,1-1-.8,2.2,2.2,0,0,1-1.81,1,3.57,3.57,0,0,1-3.48-3.65c-.08-2,.91-4,3.08-4.13a2.92,2.92,0,0,1,1.95.62l-.12-2.74a1,1,0,1,1,2-.09Zm-3.79-4.58c-1,.05-1.53,1.18-1.48,2.13s.6,2,1.65,2,1.53-1.18,1.49-2.16S709.46,94.56,708.39,94.6Z"/><path class="cls-17" d="M714.86,97.05a1.75,1.75,0,0,0,2,1.38c1-.05,1.71-.89,2.25-.91a.9.9,0,0,1,.86.83c0,.87-1.72,1.79-3.22,1.85a3.67,3.67,0,0,1-3.94-3.72,3.62,3.62,0,1,1,7.22-.54.77.77,0,0,1-.84.93ZM718,95.57a1.6,1.6,0,0,0-1.68-1.47,1.64,1.64,0,0,0-1.53,1.61Z"/><path class="cls-17" d="M729.41,94.11c-.5,0-1-.35-1.61-.33a1.83,1.83,0,0,0-1.61,2.13,1.86,1.86,0,0,0,1.78,2,10.78,10.78,0,0,0,1.48-.48.89.89,0,0,1,.91.84c0,1-1.68,1.46-2.41,1.49A3.66,3.66,0,0,1,724.18,96a3.76,3.76,0,0,1,3.44-4.06c.8,0,2.48.19,2.52,1.17C730.16,93.53,729.89,94.09,729.41,94.11Z"/><path class="cls-17" d="M737.88,95.42a3.63,3.63,0,1,1-7.23.31,3.63,3.63,0,1,1,7.23-.31Zm-5.21.22c0,1,.59,2,1.68,2s1.55-1.13,1.51-2.09-.58-2-1.68-2S732.63,94.68,732.67,95.64Z"/><path class="cls-17" d="M738.61,92.68a1,1,0,0,1,1-1.16.86.86,0,0,1,1,.7,2.18,2.18,0,0,1,1.91-.9,2.58,2.58,0,0,1,2.87,2.6l.16,3.86a1,1,0,1,1-2,.08l-.15-3.51a1.3,1.3,0,1,0-2.6.11l.14,3.51a1,1,0,1,1-2,.09Z"/><path class="cls-17" d="M746.91,93.06l-.45,0a.82.82,0,0,1-.92-.84.86.86,0,0,1,.85-.92l.44,0-.05-1.2a1,1,0,1,1,2-.09l.05,1.2.57,0A.89.89,0,1,1,749.5,93l-.58,0,.2,4.64a1,1,0,1,1-2,.09Z"/><path class="cls-17" d="M752.51,89.05a1.14,1.14,0,0,1-1.08,1.21,1.17,1.17,0,0,1-1.18-1.11,1.13,1.13,0,0,1,2.26-.1Zm-2,3.13a1,1,0,0,1,1-1.16,1,1,0,0,1,1.06,1.08l.22,5.37a1,1,0,1,1-2,.09Z"/><path class="cls-17" d="M753.63,92.05a1,1,0,0,1,1-1.16.85.85,0,0,1,1,.7,2.19,2.19,0,0,1,1.91-.91,2.59,2.59,0,0,1,2.87,2.6l.16,3.86a1,1,0,1,1-2,.09l-.15-3.51a1.3,1.3,0,1,0-2.6.11l.15,3.51a1,1,0,1,1-2,.08Z"/><path class="cls-17" d="M761.41,91.72a1,1,0,1,1,2-.08l.15,3.59a1.3,1.3,0,1,0,2.6-.11L766,91.53a1,1,0,1,1,2-.09l.16,3.64c.07,1.79-1.07,3-3.2,3.08s-3.36-1-3.44-2.8Z"/><path class="cls-17" d="M771.17,88.27a1.15,1.15,0,0,1-1.08,1.21,1.18,1.18,0,0,1-1.18-1.12,1.13,1.13,0,0,1,2.26-.09Zm-2,3.12a1,1,0,1,1,2-.08l.23,5.37a1,1,0,1,1-2,.09Z"/><path class="cls-17" d="M779.41,96.35a1,1,0,0,1-1,1.16,1,1,0,0,1-1-.8,2.2,2.2,0,0,1-1.81,1,3.56,3.56,0,0,1-3.47-3.65c-.09-2,.91-4,3.07-4.13a2.92,2.92,0,0,1,1.95.62L777,87.81a1,1,0,1,1,2-.08Zm-3.8-4.58c-1.05,0-1.52,1.17-1.48,2.12s.6,2,1.65,2,1.54-1.18,1.49-2.16S776.69,91.72,775.61,91.77Z"/><path class="cls-17" d="M787.42,95.81c0,.52.06,1.32-.91,1.36-.58,0-.83-.29-1-.82a2.38,2.38,0,0,1-1.87,1c-1.89.08-3.4-1.47-3.5-3.73s1.32-4,3.17-4a2.29,2.29,0,0,1,2,.84,1,1,0,0,1,.93-.88c1,0,1,.76,1,1.28Zm-3.58-.3c1,0,1.51-1.13,1.47-2.09s-.58-2-1.64-2-1.55,1.16-1.51,2.12S782.75,95.56,783.84,95.51Z"/><path class="cls-17" d="M795.46,95.67a1,1,0,0,1-1,1.16,1,1,0,0,1-1-.8,2.17,2.17,0,0,1-1.81,1,3.57,3.57,0,0,1-3.48-3.65c-.08-2,.91-4,3.08-4.12a2.91,2.91,0,0,1,2,.61l-.12-2.74a1,1,0,1,1,2-.08Zm-3.79-4.58c-1,0-1.52,1.17-1.48,2.12s.6,2,1.65,2S793.37,94,793.33,93,792.74,91,791.67,91.09Z"/><path class="cls-17" d="M707.7,111.38a1,1,0,0,1-1,1.17,1,1,0,0,1-1-.8,2.2,2.2,0,0,1-1.81,1,3.57,3.57,0,0,1-3.48-3.65c-.08-2,.91-4,3.08-4.13a2.92,2.92,0,0,1,2,.62l-.12-2.74a1,1,0,1,1,2-.09Zm-3.79-4.57c-1,0-1.53,1.17-1.49,2.12s.61,2,1.66,2,1.53-1.19,1.49-2.16S705,106.76,703.91,106.81Z"/><path class="cls-17" d="M710.38,109.25a1.75,1.75,0,0,0,2,1.38c1,0,1.71-.89,2.24-.91a.9.9,0,0,1,.87.83c0,.87-1.72,1.78-3.22,1.85a3.67,3.67,0,0,1-3.94-3.72,3.62,3.62,0,1,1,7.22-.54.77.77,0,0,1-.84.93Zm3.11-1.48a1.6,1.6,0,0,0-1.68-1.47,1.64,1.64,0,0,0-1.53,1.61Z"/><path class="cls-17" d="M716,102.4a1,1,0,1,1,2-.09l.36,8.62a1,1,0,1,1-2,.09Z"/><path class="cls-17" d="M723,105.35a1,1,0,0,1,1-1.16.86.86,0,0,1,1,.7,2.18,2.18,0,0,1,1.91-.9,2.58,2.58,0,0,1,2.87,2.6l.16,3.86a1,1,0,1,1-2,.08l-.15-3.51a1.3,1.3,0,1,0-2.6.11l.14,3.51a1,1,0,1,1-2,.09Z"/><path class="cls-17" d="M732.52,108.32a1.75,1.75,0,0,0,2,1.37c1,0,1.72-.88,2.25-.91a.91.91,0,0,1,.86.84c0,.86-1.72,1.78-3.22,1.84a3.67,3.67,0,0,1-3.94-3.71,3.63,3.63,0,1,1,7.23-.55c0,.6-.23.91-.85.94Zm3.11-1.48a1.59,1.59,0,0,0-1.67-1.47,1.62,1.62,0,0,0-1.53,1.61Z"/><path class="cls-17" d="M745.4,110.24c.1,2.42-1.43,3.71-3.72,3.8-.83,0-3.19-.27-3.24-1.37a1,1,0,0,1,.77-.92c.65,0,1.39.57,2.55.52a1.55,1.55,0,0,0,1.64-1.67l0-.47h0a2.31,2.31,0,0,1-2,1c-2.11.09-3.18-1.73-3.27-3.73s1.12-4,3.15-4.06a2.19,2.19,0,0,1,1.89.84,1,1,0,0,1,1-.88,1,1,0,0,1,1.06,1.08Zm-3.81-5c-1.05.05-1.52,1.16-1.48,2.1s.6,2,1.65,2,1.54-1.07,1.5-2S742.69,105.17,741.59,105.21Z"/><path class="cls-17" d="M753.34,106.78a3.62,3.62,0,1,1-7.22.3,3.62,3.62,0,1,1,7.22-.3Zm-5.21.22c0,1,.59,2,1.69,2s1.55-1.13,1.51-2.1-.58-2-1.69-2S748.09,106,748.13,107Z"/><path class="cls-17" d="M759.13,104.87c-.5,0-1-.36-1.61-.33-1.15,0-1.65,1.09-1.61,2.13a1.87,1.87,0,0,0,1.78,2,10.6,10.6,0,0,0,1.48-.49.89.89,0,0,1,.91.85c0,1-1.68,1.46-2.41,1.49a3.67,3.67,0,0,1-3.77-3.72,3.75,3.75,0,0,1,3.44-4.06c.8,0,2.48.19,2.52,1.17C759.88,104.29,759.61,104.85,759.13,104.87Z"/><path class="cls-17" d="M762.54,100.64a1.17,1.17,0,0,1-1.09,1.21,1.18,1.18,0,0,1-1.18-1.11,1.14,1.14,0,0,1,2.27-.1Zm-2,3.13a1,1,0,1,1,2-.09l.23,5.38a1,1,0,1,1-2,.08Z"/><path class="cls-17" d="M770.7,106.05a3.62,3.62,0,1,1-7.22.3,3.62,3.62,0,1,1,7.22-.3Zm-5.21.22c0,1,.59,2,1.68,2s1.56-1.13,1.51-2.1-.57-2-1.68-2S765.45,105.3,765.49,106.27Z"/><polygon class="cls-12" points="958.93 318.46 963.77 203.85 963.77 203.85 963.77 203.85 945.09 184.58 831.49 179.78 825.87 312.84 958.93 318.46"/><polygon class="cls-13" points="823.58 310.48 956.63 316.1 961.47 201.49 942.8 182.22 829.2 177.42 823.58 310.48"/><polygon class="cls-14" points="942.8 182.22 961.47 201.49 942.02 200.67 942.8 182.22"/><path class="cls-15" d="M883.8,172.24l-43.46-2.19c-.14,1-.36,2.1-.42,2.64-.35,3.68-.51,7.38-.5,11.07L883.54,186c.05-3.06.11-6.13.2-9.19C883.78,175.41,883.71,173.75,883.8,172.24Z"/><rect class="cls-4" x="849.32" y="216.32" width="88.33" height="33.92" rx="7.12" transform="translate(10.64 -37.49) rotate(2.42)"/><path class="cls-16" d="M861.91,227.66a1.06,1.06,0,0,1,1.2-1.12l2.64.11c2.31.1,3.69,1.2,3.59,3.55a2.9,2.9,0,0,1-2.89,2.71l2.43,2.84a1,1,0,0,1,.27.67,1.14,1.14,0,0,1-1.17,1.1,1.11,1.11,0,0,1-.85-.42L864,232.93h0l-.14,3.25a1.13,1.13,0,1,1-2.25-.1Zm2.1,3.65,1.54.06A1.27,1.27,0,0,0,867,230.1a1.26,1.26,0,0,0-1.34-1.38l-1.54-.06Z"/><path class="cls-16" d="M870.24,228.15c0-.75.43-1.29,1.22-1.26l3.72.16a1,1,0,0,1,1,1.08,1,1,0,0,1-1.11,1l-2.64-.11-.09,2.18,2.46.11a1,1,0,0,1,1,1.08,1,1,0,0,1-1.14,1l-2.46-.11-.09,2.28,2.77.12a1,1,0,0,1,1,1.08,1,1,0,0,1-1.11,1l-3.87-.17a1.1,1.1,0,0,1-1.1-1.17Z"/><path class="cls-16" d="M879.66,228.31a1.76,1.76,0,0,1,1.65-1.18,1.7,1.7,0,0,1,1.56,1.31l2.59,8.28a1.53,1.53,0,0,1,.09.56,1,1,0,0,1-1.07.94,1,1,0,0,1-1.06-.82L883,236l-4.17-.18-.51,1.38a1,1,0,0,1-1.11.75,1.08,1.08,0,0,1-1.06-1.1,1.41,1.41,0,0,1,.12-.49Zm-.07,5.44,2.85.12-1.21-4.4h0Z"/><path class="cls-16" d="M891.41,227.56c1.1,0,3.21.49,3.16,1.81a1,1,0,0,1-1,1c-.61,0-1-.57-2.27-.63-1.86-.07-2.88,1.46-3,3.29s.84,3.35,2.68,3.43c1.26,0,1.8-.56,2.41-.53a1,1,0,0,1,.94,1.06c-.06,1.44-2.33,1.67-3.44,1.63a5.2,5.2,0,0,1-4.92-5.74C886.16,229.74,888.36,227.43,891.41,227.56Z"/><path class="cls-16" d="M897.54,230.07l-1.63-.07a1,1,0,0,1-1-1.08,1,1,0,0,1,1.06-1l5.52.23a1,1,0,0,1,1,1.08,1,1,0,0,1-1.06,1l-1.63-.07-.32,7.52a1.13,1.13,0,1,1-2.25-.09Z"/><path class="cls-16" d="M903,229.31a1.12,1.12,0,1,1,2.24.09l-.36,8.51a1.12,1.12,0,1,1-2.24-.09Z"/><path class="cls-16" d="M905.92,229.9a1.52,1.52,0,0,1-.08-.56,1.13,1.13,0,0,1,2.19-.26l2.06,6.34,2.59-6.14a1.12,1.12,0,0,1,2.15.44,1.33,1.33,0,0,1-.12.55l-3.64,8.21a1.11,1.11,0,0,1-1.14.82c-.66,0-.9-.43-1.08-.92Z"/><path class="cls-16" d="M914.85,234.07c.13-3.12,2.33-5.43,5.38-5.3a5.25,5.25,0,0,1,4.93,5.74c-.13,3.1-2.32,5.42-5.39,5.29A5.18,5.18,0,0,1,914.85,234.07Zm8,.34c.07-1.82-.8-3.49-2.67-3.57s-2.89,1.51-3,3.33.77,3.48,2.68,3.56S922.74,236.24,922.82,234.41Z"/><path class="cls-17" d="M858.09,258.23c.88,0,1.21.5,1.17,1.39a4.43,4.43,0,0,1-4.76,4.54,5.17,5.17,0,0,1,.43-10.3c2.12.09,3.81,1.16,3.77,2.14a.89.89,0,0,1-.91.94c-.95,0-1.1-1.07-2.94-1.15s-2.69,1.42-2.76,3.11.71,3.25,2.49,3.33a2.18,2.18,0,0,0,2.47-2.11l-1.42-.06a.94.94,0,0,1-.94-1,.93.93,0,0,1,1-.91Z"/><path class="cls-17" d="M860.15,257.81a1,1,0,1,1,2,.08l-.15,3.6a1.3,1.3,0,1,0,2.6.11l.15-3.59a1,1,0,1,1,2,.08l-.15,3.64c-.08,1.79-1.32,2.89-3.44,2.8s-3.27-1.29-3.2-3.08Z"/><path class="cls-17" d="M867.9,258.14a1,1,0,1,1,2,.08l-.23,5.38a1,1,0,0,1-1,1.07,1,1,0,0,1-1-1.16Zm2.27-2.95A1.16,1.16,0,0,1,869,256.3a1.17,1.17,0,0,1-1.08-1.21,1.14,1.14,0,0,1,2.27.1Z"/><path class="cls-17" d="M877.7,263.74c0,.51-.06,1.31-1,1.27-.58,0-.81-.35-.93-.89a2.42,2.42,0,0,1-2,.86c-1.89-.09-3.27-1.75-3.17-4a3.63,3.63,0,0,1,3.5-3.77,2.32,2.32,0,0,1,1.87,1,1,1,0,0,1,1-.8c1,0,.93.84.91,1.36Zm-3.55-.6c1.05,0,1.59-1,1.63-2s-.4-2.08-1.46-2.13-1.64,1-1.68,2S873.05,263.09,874.15,263.14Z"/><path class="cls-17" d="M883.25,259.93c-.38,0-1.12-.63-1.78-.66-.37,0-.69.14-.71.53,0,.94,3.46.95,3.37,3.24-.06,1.35-1.24,2.32-3,2.25-1.14-.05-2.79-.77-2.75-1.68a1,1,0,0,1,.91-.86c.78,0,1.1.74,2,.78.62,0,.81-.16.83-.54,0-.93-3.47-.93-3.37-3.24a2.45,2.45,0,0,1,2.83-2.24c1,0,2.49.57,2.45,1.56A.86.86,0,0,1,883.25,259.93Z"/><path class="cls-17" d="M889.22,259.77l-.44,0a.83.83,0,0,1-.85-.92.87.87,0,0,1,.92-.85l.45,0,.05-1.2a1,1,0,1,1,2,.09l-.05,1.2.58,0a.89.89,0,1,1-.08,1.76l-.57,0-.2,4.65a1,1,0,1,1-2-.09Z"/><path class="cls-17" d="M899.57,264.66c0,.52-.05,1.32-1,1.28-.59,0-.81-.36-.93-.9a2.41,2.41,0,0,1-2,.86c-1.89-.08-3.26-1.75-3.16-4s1.64-3.84,3.49-3.76a2.3,2.3,0,0,1,1.88,1,1,1,0,0,1,1-.8c1,0,.93.84.91,1.36Zm-3.55-.6c1.05.05,1.6-1,1.64-2s-.4-2.08-1.47-2.12-1.64,1-1.68,2S894.93,264,896,264.06Zm.94-9a1.33,1.33,0,0,1,.54-.12.89.89,0,0,1,.72.9.8.8,0,0,1-.61.8l-1.59.55c-.42.12-.29.13-.57.12s-.72-.57-.7-1.06a.68.68,0,0,1,.42-.54l.11-.05Z"/><path class="cls-17" d="M905.9,260.78c-.5,0-.94-.43-1.58-.46-1.15-.05-1.73.95-1.78,2a1.86,1.86,0,0,0,1.61,2.1,10.94,10.94,0,0,0,1.51-.36.88.88,0,0,1,.83.92c0,1-1.79,1.31-2.52,1.28a3.66,3.66,0,0,1-3.44-4,3.74,3.74,0,0,1,3.77-3.75c.8,0,2.45.4,2.41,1.38C906.69,260.27,906.38,260.8,905.9,260.78Z"/><path class="cls-17" d="M907.87,260.55l-.45,0a.81.81,0,0,1-.84-.91.86.86,0,0,1,.92-.85l.44,0,0-1.2a1,1,0,1,1,2,.08l0,1.21.57,0c.52,0,1,.28.93.92a.85.85,0,0,1-1,.84l-.58,0-.19,4.65a1,1,0,1,1-2-.09Z"/><path class="cls-17" d="M911.52,260a1,1,0,1,1,2,.08l-.23,5.38a1,1,0,1,1-2-.09Zm2.27-3a1.16,1.16,0,0,1-1.18,1.12,1.2,1.2,0,0,1-1.09-1.21,1.16,1.16,0,0,1,1.18-1.06A1.14,1.14,0,0,1,913.79,257Z"/><path class="cls-17" d="M919.62,261.36c-.5,0-.93-.43-1.58-.46-1.15,0-1.73,1-1.78,2a1.87,1.87,0,0,0,1.61,2.11,10.94,10.94,0,0,0,1.51-.36.87.87,0,0,1,.83.92c0,1-1.79,1.31-2.52,1.28a3.66,3.66,0,0,1-3.44-4,3.75,3.75,0,0,1,3.77-3.75c.8,0,2.45.4,2.41,1.38C920.41,260.85,920.1,261.38,919.62,261.36Z"/><path class="cls-17" d="M927.8,265.85c0,.52-.06,1.32-1,1.28-.59,0-.82-.36-.93-.9a2.42,2.42,0,0,1-2,.86c-1.89-.08-3.26-1.75-3.17-4s1.65-3.84,3.5-3.76a2.32,2.32,0,0,1,1.88,1,.94.94,0,0,1,1-.79c1,0,.93.83.91,1.35Zm-3.55-.6c1,.05,1.6-1,1.64-2s-.41-2.08-1.47-2.12-1.64,1-1.68,2S923.16,265.21,924.25,265.25Z"/><path class="cls-17" d="M933.35,262.05c-.38,0-1.12-.64-1.78-.66-.36,0-.69.13-.71.53,0,.93,3.47.94,3.37,3.24-.06,1.34-1.23,2.32-3,2.24-1.13,0-2.78-.76-2.75-1.67a1,1,0,0,1,.91-.86c.78,0,1.1.73,2.06.77.61,0,.8-.16.82-.54,0-.92-3.47-.93-3.37-3.24a2.44,2.44,0,0,1,2.83-2.23c1,0,2.5.56,2.45,1.56A.86.86,0,0,1,933.35,262.05Z"/><path class="cls-17" d="M856.14,272.36a3.62,3.62,0,1,1-7.22-.31,3.62,3.62,0,1,1,7.22.31Zm-5.2-.22c0,1,.42,2.05,1.51,2.09s1.64-1,1.68-2-.4-2.08-1.51-2.12S851,271.17,850.94,272.14Z"/><path class="cls-17" d="M857.11,269.69a1,1,0,0,1,1-1.08,1,1,0,0,1,1,.89,2.24,2.24,0,0,1,2-.85c2.17.1,3.16,2.17,3.08,4.13a3.57,3.57,0,0,1-3.48,3.65,2.79,2.79,0,0,1-1.81-.78l-.11,2.47a1,1,0,1,1-2-.09Zm3.4,4.88c1,.05,1.61-1,1.65-2s-.43-2.08-1.48-2.12-1.63.94-1.67,1.92S859.4,274.53,860.51,274.57Z"/><path class="cls-17" d="M866.62,273.46a1.74,1.74,0,0,0,1.84,1.53c1,.05,1.78-.73,2.32-.71a.91.91,0,0,1,.79.9c0,.87-1.87,1.63-3.37,1.57a3.68,3.68,0,0,1-3.61-4,3.63,3.63,0,1,1,7.25.07c0,.6-.31.89-.92.86Zm3.22-1.21a1.6,1.6,0,0,0-1.55-1.61,1.63,1.63,0,0,0-1.66,1.47Z"/><path class="cls-17" d="M872.63,270.23a1,1,0,0,1,1.07-1c.54,0,1,.24.95.88h0a1.61,1.61,0,0,1,1.45-.78,1,1,0,0,1,.93,1.12c0,.66-.63.68-1.25.93s-1.24.49-1.27,1.29l-.13,3.1a1,1,0,1,1-2-.09Z"/><path class="cls-17" d="M884,276c0,.52-.05,1.32-1,1.28-.59,0-.81-.36-.93-.9a2.39,2.39,0,0,1-2,.86c-1.88-.08-3.26-1.75-3.16-4s1.65-3.84,3.49-3.76a2.31,2.31,0,0,1,1.88,1,1,1,0,0,1,1-.79c1,0,.94.83.91,1.35Zm-3.55-.6c1.05,0,1.6-1,1.64-2s-.4-2.08-1.46-2.12-1.65,1-1.69,2S879.33,275.37,880.42,275.41Z"/><path class="cls-17" d="M890.3,272.13c-.5,0-.93-.43-1.58-.46-1.14-.05-1.73.95-1.78,2a1.86,1.86,0,0,0,1.61,2.1,11.52,11.52,0,0,0,1.52-.36.89.89,0,0,1,.83.92c0,1-1.8,1.31-2.53,1.28a3.67,3.67,0,0,1-3.44-4,3.75,3.75,0,0,1,3.77-3.75c.8,0,2.45.4,2.41,1.38C891.09,271.62,890.78,272.15,890.3,272.13Z"/><path class="cls-17" d="M891.78,271.16a1,1,0,1,1,2,.08l-.23,5.38a1,1,0,1,1-2-.09Zm2.27-3a1.14,1.14,0,0,1-1.18,1.11,1.17,1.17,0,0,1-1.08-1.21,1.13,1.13,0,0,1,2.26.1Z"/><path class="cls-17" d="M901.73,274.28a3.62,3.62,0,1,1-7.22-.3,3.62,3.62,0,1,1,7.22.3Zm-5.21-.22c0,1,.42,2.05,1.51,2.1s1.64-1,1.68-2-.4-2.08-1.5-2.13S896.56,273.1,896.52,274.06Z"/><path class="cls-17" d="M902.69,271.62a1,1,0,0,1,1.06-1.08.85.85,0,0,1,.89.78,2.17,2.17,0,0,1,2-.74,2.57,2.57,0,0,1,2.64,2.83l-.16,3.86a1,1,0,1,1-2-.08l.15-3.52a1.25,1.25,0,0,0-1.25-1.44,1.26,1.26,0,0,0-1.35,1.33l-.15,3.52a1,1,0,1,1-2-.09Z"/><path class="cls-17" d="M917.14,277.41c0,.52-.06,1.32-1,1.28-.59,0-.82-.36-.93-.9a2.42,2.42,0,0,1-2,.86c-1.89-.08-3.26-1.75-3.17-4s1.65-3.84,3.5-3.76a2.32,2.32,0,0,1,1.88,1,1,1,0,0,1,1-.79c1,0,.93.83.91,1.35Zm-3.55-.6c1,.05,1.6-1,1.64-2s-.41-2.08-1.47-2.12-1.64,1-1.68,2S912.5,276.77,913.59,276.81Z"/><path class="cls-17" d="M918.61,269a1,1,0,1,1,2,.08l-.36,8.62a1,1,0,1,1-2-.08Z"/><path class="cls-17" d="M923.09,275.84a1.74,1.74,0,0,0,1.84,1.54c1,0,1.78-.74,2.31-.72a.89.89,0,0,1,.79.9c0,.87-1.86,1.64-3.36,1.57a3.66,3.66,0,0,1-3.61-4,3.62,3.62,0,1,1,7.24.06c0,.61-.3.89-.92.86Zm3.21-1.21a1.59,1.59,0,0,0-1.54-1.61,1.64,1.64,0,0,0-1.66,1.48Z"/><path class="cls-17" d="M933.31,274.06c-.38,0-1.13-.64-1.78-.67-.37,0-.7.14-.71.54,0,.93,3.46.94,3.37,3.24-.06,1.34-1.24,2.31-3,2.24-1.14-.05-2.79-.76-2.75-1.67a.94.94,0,0,1,.9-.86c.79,0,1.11.73,2.06.77.62,0,.81-.16.82-.54,0-.92-3.46-.93-3.37-3.24a2.45,2.45,0,0,1,2.83-2.23c1,0,2.5.56,2.46,1.56A.87.87,0,0,1,933.31,274.06Z"/><polygon class="cls-12" points="799.32 174.37 804.16 288.97 804.16 288.97 804.16 288.97 785.49 308.24 671.88 313.04 666.27 179.98 799.32 174.37"/><polygon class="cls-13" points="663.95 177.71 797.01 172.09 801.85 286.7 783.17 305.97 669.57 310.77 663.95 177.71"/><polygon class="cls-14" points="783.17 305.97 801.85 286.7 782.39 287.52 783.17 305.97"/><path class="cls-15" d="M715.16,167.27,781.31,164c.19,1,.5,2.08.57,2.62a74.6,74.6,0,0,1,.48,11.08L715.2,181c0-3.07,0-6.14-.07-9.2C715.11,170.45,715.27,168.78,715.16,167.27Z"/><rect class="cls-18" x="688.56" y="210.99" width="88.33" height="33.92" rx="7.12" transform="translate(-8.96 31.12) rotate(-2.42)"/><path class="cls-16" d="M694.68,225.27a1.08,1.08,0,0,1,1.12-1.22l2.66-.11a3.58,3.58,0,1,1,.39,7.13l-1.67.07.11,2.46a1.13,1.13,0,1,1-2.25.09Zm2.42,3.89,1.53-.06a1.52,1.52,0,0,0,1.48-1.66,1.5,1.5,0,0,0-1.62-1.52L697,226Z"/><path class="cls-16" d="M703,224.92a1.06,1.06,0,0,1,1.1-1.22l2.64-.11c2.31-.1,3.77.87,3.87,3.23a2.92,2.92,0,0,1-2.65,3l2.66,2.62a1,1,0,0,1,.33.64,1.14,1.14,0,0,1-1.07,1.2,1.18,1.18,0,0,1-.89-.35l-3.5-3.89h0l.14,3.25a1.13,1.13,0,1,1-2.25.1Zm2.39,3.45,1.55-.06a1.29,1.29,0,0,0,1.34-1.4,1.27,1.27,0,0,0-1.45-1.26l-1.55.07Z"/><path class="cls-16" d="M711.11,228.75C711,225.63,713,223.14,716,223a5.24,5.24,0,0,1,5.39,5.29c.13,3.1-1.85,5.61-4.93,5.74A5.2,5.2,0,0,1,711.11,228.75Zm8-.34c-.08-1.81-1.09-3.41-3-3.33s-2.75,1.76-2.68,3.57,1.06,3.41,3,3.33S719.16,230.24,719.08,228.41Z"/><path class="cls-16" d="M724.64,223.9a1.75,1.75,0,0,1,1.55-1.31,1.67,1.67,0,0,1,1.65,1.17l3.29,8a2,2,0,0,1,.14.55,1,1,0,0,1-1,1,1.05,1.05,0,0,1-1.13-.73l-.51-1.39-4.17.18-.39,1.41a1,1,0,0,1-1,.84,1.07,1.07,0,0,1-1.15-1,1.23,1.23,0,0,1,.08-.5Zm.39,5.43,2.85-.12-1.58-4.29h0Z"/><path class="cls-16" d="M736.29,222.16c1.09,0,3.24.22,3.29,1.54a1,1,0,0,1-.88,1.05c-.62,0-1.06-.49-2.32-.43-1.86.08-2.75,1.69-2.67,3.52s1.11,3.27,2.95,3.19c1.26-.05,1.75-.7,2.36-.73a1.05,1.05,0,0,1,1,1c.06,1.44-2.19,1.86-3.3,1.91a5.19,5.19,0,0,1-5.38-5.3C731.24,224.77,733.23,222.29,736.29,222.16Z"/><path class="cls-16" d="M742.6,224.14l-1.63.07a1,1,0,0,1-1.06-1,1,1,0,0,1,1-1.07l5.52-.24a1,1,0,0,1,1.06,1,1,1,0,0,1-1,1.08l-1.64.07.32,7.52a1.13,1.13,0,1,1-2.25.1Z"/><path class="cls-16" d="M748,222.93a1.13,1.13,0,1,1,2.25-.1l.35,8.52a1.12,1.12,0,1,1-2.24.09Z"/><path class="cls-16" d="M750.94,223.27a1.47,1.47,0,0,1-.12-.55,1.12,1.12,0,0,1,2.15-.44l2.59,6.14,2.06-6.34a1.13,1.13,0,0,1,2.19.26,1.52,1.52,0,0,1-.08.56l-2.93,8.48c-.18.49-.42.89-1.08.92a1.12,1.12,0,0,1-1.14-.82Z"/><path class="cls-16" d="M760.19,226.68c-.14-3.12,1.86-5.61,4.92-5.74a5.26,5.26,0,0,1,5.39,5.3c.13,3.1-1.85,5.6-4.93,5.73A5.18,5.18,0,0,1,760.19,226.68Zm8-.34c-.08-1.82-1.09-3.41-3-3.33s-2.75,1.75-2.68,3.57,1.06,3.4,3,3.32S768.24,228.17,768.16,226.34Z"/><path class="cls-17" d="M704.5,252.61a1,1,0,0,1,1-1.14l2.48-.1a3.33,3.33,0,0,1,3.72,3.19,3.29,3.29,0,0,1-3.36,3.46l-1.55.07.09,2.29a1,1,0,1,1-2.09.09Zm2.26,3.63,1.43-.06a1.48,1.48,0,0,0-.13-3l-1.43.05Z"/><path class="cls-17" d="M712.16,251.5a1,1,0,1,1,2-.09l.36,8.63a1,1,0,1,1-2,.08Z"/><path class="cls-17" d="M722.54,259.5c0,.52.05,1.32-.91,1.36-.59,0-.84-.29-1-.81a2.44,2.44,0,0,1-1.88,1c-1.89.08-3.4-1.46-3.5-3.73s1.32-4,3.17-4a2.31,2.31,0,0,1,2,.85,1,1,0,0,1,.93-.89c1,0,1,.76,1,1.28Zm-3.59-.3c1,0,1.51-1.13,1.47-2.09s-.58-2-1.64-2-1.55,1.16-1.51,2.12S717.86,259.25,719,259.2Z"/><path class="cls-17" d="M723.46,254.28a1,1,0,0,1,1-1.17.86.86,0,0,1,1,.7,2.18,2.18,0,0,1,1.91-.9,2.58,2.58,0,0,1,2.87,2.6l.16,3.86a1,1,0,1,1-2,.08l-.15-3.51a1.3,1.3,0,1,0-2.6.11l.15,3.51a1,1,0,1,1-2,.09Z"/><path class="cls-17" d="M735,253.79a1,1,0,0,1,1-1.16,1,1,0,0,1,1,.79,2.23,2.23,0,0,1,1.88-1c2.17-.09,3.33,1.89,3.42,3.85a3.57,3.57,0,0,1-3.16,3.93,2.86,2.86,0,0,1-1.88-.62l.11,2.46a1,1,0,1,1-2,.09Zm3.79,4.58c1.05-.05,1.53-1.16,1.49-2.1s-.61-2-1.66-2-1.54,1.07-1.5,2S737.68,258.41,738.78,258.37Z"/><path class="cls-17" d="M750.12,258.34c0,.51.06,1.31-.91,1.35-.59,0-.84-.28-1-.81a2.4,2.4,0,0,1-1.88,1c-1.89.08-3.4-1.47-3.49-3.74s1.32-4,3.16-4a2.31,2.31,0,0,1,2,.84,1,1,0,0,1,.93-.88c1,0,1,.76,1,1.27Zm-3.59-.3c1.05-.05,1.51-1.13,1.47-2.1s-.58-2-1.64-2-1.55,1.16-1.51,2.13S745.44,258.09,746.53,258Z"/><path class="cls-17" d="M751,253a1,1,0,0,1,1-1.05c.53,0,1,.15,1,.8h0a1.57,1.57,0,0,1,1.38-.9,1,1,0,0,1,1,1c0,.66-.57.73-1.16,1s-1.2.6-1.16,1.4l.13,3.09a1,1,0,1,1-2,.09Z"/><path class="cls-17" d="M762.81,257.8c0,.52.05,1.32-.91,1.36-.59,0-.84-.29-1-.82a2.42,2.42,0,0,1-1.88,1c-1.89.08-3.4-1.47-3.5-3.73s1.32-4,3.17-4a2.32,2.32,0,0,1,2,.84,1,1,0,0,1,.93-.88c1,0,1,.76,1,1.28Zm-3.59-.3c1,0,1.51-1.13,1.47-2.09s-.58-2-1.64-2-1.55,1.16-1.51,2.12S758.13,257.55,759.22,257.5Z"/><path class="cls-17" d="M690.12,271.06a1.74,1.74,0,0,0,2,1.37c1,0,1.71-.88,2.24-.9a.9.9,0,0,1,.87.83c0,.87-1.72,1.78-3.22,1.84a3.66,3.66,0,0,1-3.94-3.71,3.62,3.62,0,1,1,7.22-.55c0,.61-.23.91-.84.94Zm3.11-1.48a1.6,1.6,0,0,0-1.68-1.47,1.64,1.64,0,0,0-1.53,1.61Z"/><path class="cls-17" d="M695.43,267.92a1.34,1.34,0,0,1-.15-.58,1,1,0,0,1,1-1,.92.92,0,0,1,.93.68l1.45,3.92h0l1.12-4a.92.92,0,0,1,.87-.75,1,1,0,0,1,1.09.93,1.55,1.55,0,0,1-.1.59l-1.81,5.3c-.18.52-.37.85-1.06.88s-.91-.28-1.13-.79Z"/><path class="cls-17" d="M704.1,270.47a1.73,1.73,0,0,0,2,1.37c1,0,1.72-.88,2.25-.91a.91.91,0,0,1,.86.84c0,.87-1.72,1.78-3.22,1.84A3.67,3.67,0,0,1,702,269.9a3.63,3.63,0,1,1,7.23-.55c0,.61-.23.91-.85.94Zm3.1-1.48a1.59,1.59,0,0,0-1.67-1.47,1.62,1.62,0,0,0-1.53,1.61Z"/><path class="cls-17" d="M709.84,266.86a1,1,0,0,1,1-1.16.85.85,0,0,1,1,.7,2.19,2.19,0,0,1,1.91-.91,2.59,2.59,0,0,1,2.87,2.6l.16,3.87a1,1,0,1,1-2,.08l-.15-3.51a1.3,1.3,0,1,0-2.6.11l.14,3.51a1,1,0,1,1-2,.09Z"/><path class="cls-17" d="M718.14,267.24l-.45,0a.83.83,0,0,1-.92-.85.86.86,0,0,1,.85-.91l.44,0,0-1.21a1,1,0,1,1,2-.08l.05,1.2.57,0c.52,0,1,.19,1,.84a.85.85,0,0,1-.93.92l-.58,0,.2,4.65a1,1,0,0,1-1,1.16,1,1,0,0,1-1-1.07Z"/><path class="cls-17" d="M728.8,268.77a3.62,3.62,0,1,1-7.22.3,3.62,3.62,0,1,1,7.22-.3Zm-5.21.22c0,1,.59,2,1.69,2s1.55-1.13,1.51-2.1-.58-2-1.69-2S723.55,268,723.59,269Z"/><path class="cls-17" d="M733.82,267c-.37,0-1.17-.54-1.82-.51-.37,0-.68.19-.67.58,0,.94,3.54.66,3.63,2.95.06,1.34-1,2.41-2.77,2.49-1.13,0-2.84-.53-2.88-1.44a1,1,0,0,1,.83-.93c.79,0,1.17.64,2.12.6.61,0,.79-.23.77-.61,0-.92-3.53-.64-3.63-2.95a2.45,2.45,0,0,1,2.63-2.46c1,0,2.54.35,2.58,1.35A.87.87,0,0,1,733.82,267Z"/><path class="cls-17" d="M744.3,266.44c-.51,0-1-.35-1.62-.32-1.14.05-1.64,1.09-1.6,2.13a1.87,1.87,0,0,0,1.78,2,12.74,12.74,0,0,0,1.48-.49.89.89,0,0,1,.9.85c0,1-1.67,1.46-2.4,1.49a3.68,3.68,0,0,1-3.78-3.73,3.75,3.75,0,0,1,3.45-4.05c.8,0,2.47.19,2.52,1.16C745,265.86,744.77,266.42,744.3,266.44Z"/><path class="cls-17" d="M745.69,265.24a1,1,0,0,1,1-1.06c.53,0,1,.16,1,.8h0a1.62,1.62,0,0,1,1.38-.9,1,1,0,0,1,1,1c0,.66-.58.72-1.17,1s-1.19.59-1.16,1.39l.13,3.1a1,1,0,1,1-2,.08Z"/><path class="cls-17" d="M751.61,260.82a1.42,1.42,0,0,1,.53-.16c.42,0,.77.46.79.83a.79.79,0,0,1-.54.85l-1.54.69c-.4.15-.28.15-.56.16s-.76-.5-.78-1a.68.68,0,0,1,.37-.58l.11-.06Zm-1.26,4.33a1,1,0,1,1,2-.08l.23,5.37a1,1,0,1,1-2,.08Z"/><path class="cls-17" d="M754,265.73h-.45a.81.81,0,0,1-.91-.84.85.85,0,0,1,.84-.92l.45,0,0-1.2a1,1,0,1,1,2-.09l.05,1.21.58,0a.85.85,0,0,1,1,.84c0,.63-.41.9-.93.93l-.57,0,.19,4.65a1,1,0,1,1-2,.08Z"/><path class="cls-17" d="M759.61,261.72a1.17,1.17,0,0,1-1.09,1.21,1.19,1.19,0,0,1-1.18-1.12,1.17,1.17,0,0,1,1.09-1.15A1.15,1.15,0,0,1,759.61,261.72Zm-2,3.13a1,1,0,1,1,2-.09l.23,5.37a1,1,0,1,1-2,.09Z"/><path class="cls-17" d="M765.78,265.54c-.5,0-1-.36-1.61-.33-1.15.05-1.65,1.09-1.61,2.13a1.87,1.87,0,0,0,1.78,2,10.6,10.6,0,0,0,1.48-.49.89.89,0,0,1,.91.85c0,1-1.68,1.46-2.41,1.49a3.67,3.67,0,0,1-3.77-3.72,3.75,3.75,0,0,1,3.44-4.06c.8,0,2.48.19,2.52,1.17C766.53,265,766.26,265.52,765.78,265.54Z"/><path class="cls-17" d="M774.25,266.85a3.63,3.63,0,1,1-7.23.3,3.63,3.63,0,1,1,7.23-.3Zm-5.21.22c0,1,.59,2,1.68,2s1.55-1.13,1.51-2.1-.58-2-1.68-2S769,266.1,769,267.07Z"/><path class="cls-17" d="M779.27,265.08c-.38,0-1.17-.54-1.83-.51-.36,0-.68.19-.66.59,0,.93,3.53.65,3.63,2.94.05,1.34-1,2.41-2.77,2.49-1.14.05-2.84-.53-2.88-1.44a1,1,0,0,1,.83-.93c.78,0,1.16.64,2.11.6.62,0,.79-.23.78-.61,0-.92-3.54-.64-3.63-2.94a2.45,2.45,0,0,1,2.63-2.47c1,0,2.54.35,2.58,1.35A.87.87,0,0,1,779.27,265.08Z"/><polygon class="cls-12" points="9.01 301.58 4.17 186.97 4.17 186.97 4.17 186.97 22.85 167.7 136.45 162.9 142.07 295.96 9.01 301.58"/><polygon class="cls-13" points="137.9 292.57 4.84 298.19 0 183.59 18.68 164.31 132.28 159.52 137.9 292.57"/><polygon class="cls-14" points="18.68 164.31 0 183.59 19.45 182.76 18.68 164.31"/><path class="cls-15" d="M100.45,155l-57,2.45c-.07,1-.25,2.12-.26,2.67a87,87,0,0,0,.54,11.07l57.86-2.49c-.27-3-.53-6.11-.74-9.16C100.77,158.16,100.49,156.51,100.45,155Z"/><rect class="cls-4" x="23.83" y="198.42" width="88.33" height="33.92" rx="7.12" transform="translate(-9.03 3.06) rotate(-2.42)"/><path class="cls-16" d="M36.06,212.43a1.06,1.06,0,0,1,1.1-1.21l2.64-.11c2.31-.1,3.78.87,3.88,3.23A2.91,2.91,0,0,1,41,217.28l2.67,2.62a1,1,0,0,1,.32.65,1.14,1.14,0,0,1-1.07,1.2,1.18,1.18,0,0,1-.89-.35l-3.49-3.89h0l.13,3.25A1.08,1.08,0,0,1,37.59,222a1.07,1.07,0,0,1-1.17-1.12Zm2.4,3.46,1.54-.06a1.29,1.29,0,0,0,1.34-1.4,1.27,1.27,0,0,0-1.45-1.26l-1.54.07Z"/><path class="cls-16" d="M44.4,212.22a1.15,1.15,0,0,1,1.11-1.36l3.72-.15a1,1,0,0,1,1.11,1,1,1,0,0,1-1,1.08l-2.64.11.09,2.19,2.46-.11a1,1,0,0,1,1.14,1A1,1,0,0,1,49.31,217l-2.45.1.09,2.28,2.78-.12a1,1,0,0,1,1.1,1,1,1,0,0,1-1,1.08l-3.86.17a1.1,1.1,0,0,1-1.2-1.08Z"/><path class="cls-16" d="M53.8,211.58a1.77,1.77,0,0,1,1.55-1.31A1.72,1.72,0,0,1,57,211.44l3.28,8a1.66,1.66,0,0,1,.14.55,1,1,0,0,1-1,1,1.06,1.06,0,0,1-1.13-.74l-.51-1.39-4.16.18-.39,1.41a1,1,0,0,1-1,.84,1.06,1.06,0,0,1-1.15-1,1.27,1.27,0,0,1,.08-.5Zm.39,5.43,2.85-.12-1.58-4.28h0Z"/><path class="cls-16" d="M65.45,209.84c1.09,0,3.24.23,3.29,1.55a1,1,0,0,1-.88,1c-.62,0-1.06-.48-2.32-.43-1.86.08-2.75,1.69-2.67,3.52s1.11,3.27,3,3.19c1.25-.05,1.74-.7,2.35-.73a1.06,1.06,0,0,1,1,1c.06,1.44-2.18,1.87-3.29,1.91a5.19,5.19,0,0,1-5.39-5.29C60.4,212.46,62.39,210,65.45,209.84Z"/><path class="cls-16" d="M71.77,211.83l-1.64.07a1,1,0,0,1-1.06-1,1,1,0,0,1,1-1.08l5.52-.23a1,1,0,0,1,1.06,1,1,1,0,0,1-1,1.07l-1.64.07.32,7.53a1.13,1.13,0,1,1-2.25.09Z"/><path class="cls-16" d="M77.12,210.61a1.13,1.13,0,1,1,2.25-.09l.36,8.51a1.13,1.13,0,1,1-2.25.09Z"/><path class="cls-16" d="M80.11,211a1.31,1.31,0,0,1-.13-.55,1.12,1.12,0,0,1,1.11-1.13,1.14,1.14,0,0,1,1,.69l2.58,6.14,2.06-6.33A1.12,1.12,0,0,1,89,210a1.34,1.34,0,0,1-.08.56L86,219.07a1.15,1.15,0,0,1-2.22.09Z"/><path class="cls-16" d="M89.35,214.36c-.13-3.12,1.86-5.6,4.92-5.73a5.24,5.24,0,0,1,5.39,5.29c.13,3.1-1.85,5.61-4.92,5.74A5.2,5.2,0,0,1,89.35,214.36Zm8-.34c-.08-1.81-1.09-3.41-3-3.33s-2.75,1.76-2.67,3.57,1.06,3.41,3,3.33S97.4,215.85,97.32,214Z"/><path class="cls-17" d="M22.73,240.75a1,1,0,0,1,1-1.13l2.48-.11A3.34,3.34,0,0,1,30,242.7a3.3,3.3,0,0,1-3.36,3.47l-1.56.06.1,2.3a1.05,1.05,0,1,1-2.1.09ZM25,244.39l1.42-.06a1.41,1.41,0,0,0,1.38-1.55,1.39,1.39,0,0,0-1.5-1.42l-1.43.06Z"/><path class="cls-17" d="M30.52,242.78a1,1,0,0,1,1-1.05c.54,0,1,.15,1,.8h0a1.57,1.57,0,0,1,1.38-.9,1,1,0,0,1,1,1c0,.66-.57.73-1.16,1s-1.2.6-1.16,1.4l.13,3.09a1,1,0,1,1-2,.09Z"/><path class="cls-17" d="M42,245.11a3.62,3.62,0,1,1-7.22.31,3.62,3.62,0,1,1,7.22-.31Zm-5.21.22c.05,1,.59,2,1.69,2S40,246.16,40,245.2s-.58-2-1.69-2S36.75,244.37,36.79,245.33Z"/><path class="cls-17" d="M47.79,243.2c-.5,0-1-.35-1.61-.32-1.15,0-1.65,1.09-1.61,2.12a1.85,1.85,0,0,0,1.78,2,10.78,10.78,0,0,0,1.48-.48.89.89,0,0,1,.91.84c0,1-1.68,1.46-2.41,1.49a3.66,3.66,0,0,1-3.77-3.72A3.76,3.76,0,0,1,46,241c.8,0,2.48.19,2.52,1.17C48.54,242.62,48.27,243.18,47.79,243.2Z"/><path class="cls-17" d="M51,245.39a1.74,1.74,0,0,0,2,1.38c1-.05,1.72-.89,2.25-.91a.9.9,0,0,1,.86.83c0,.87-1.72,1.79-3.21,1.85a3.68,3.68,0,0,1-4-3.72,3.63,3.63,0,1,1,7.23-.54c0,.6-.23.91-.85.93Zm3.1-1.47a1.59,1.59,0,0,0-1.67-1.48,1.62,1.62,0,0,0-1.53,1.61Z"/><path class="cls-17" d="M63.84,246.87a1,1,0,0,1-1,1.16,1,1,0,0,1-1.05-.8,2.18,2.18,0,0,1-1.8,1,3.58,3.58,0,0,1-3.48-3.66c-.09-2,.91-4,3.08-4.12a2.9,2.9,0,0,1,1.94.62l-.11-2.75a1,1,0,1,1,2-.08ZM60,242.29c-1,0-1.52,1.17-1.48,2.12s.6,2,1.65,2,1.54-1.19,1.5-2.17S61.12,242.24,60,242.29Z"/><path class="cls-17" d="M66.74,238.32a1.17,1.17,0,0,1-1.09,1.21,1.14,1.14,0,0,1-.09-2.27A1.16,1.16,0,0,1,66.74,238.32Zm-2,3.13a1,1,0,1,1,2-.09l.23,5.38a1,1,0,1,1-2,.08Z"/><path class="cls-17" d="M67.86,241.32a1,1,0,0,1,1-1.17.85.85,0,0,1,1,.72,2.52,2.52,0,0,1,1.84-.92,2.59,2.59,0,0,1,2.13.93,3.07,3.07,0,0,1,2.09-1.11,2.53,2.53,0,0,1,2.87,2.6l.16,3.86a1,1,0,1,1-2,.09l-.15-3.51c0-.82-.51-1.37-1.24-1.34a1.23,1.23,0,0,0-1.13,1.44l.15,3.51a1,1,0,0,1-1,1.16,1,1,0,0,1-1-1.07L72.32,243c0-.81-.51-1.37-1.24-1.33s-1.16.62-1.13,1.43l.15,3.51a1,1,0,1,1-2,.09Z"/><path class="cls-17" d="M81.76,237.69a1.16,1.16,0,0,1-1.08,1.21,1.19,1.19,0,0,1-1.19-1.12,1.17,1.17,0,0,1,1.09-1.15A1.15,1.15,0,0,1,81.76,237.69Zm-2,3.12a1,1,0,1,1,2-.08L82,246.1a1,1,0,1,1-2,.09Z"/><path class="cls-17" d="M84.65,244a1.74,1.74,0,0,0,2,1.38c1,0,1.72-.89,2.25-.91a.9.9,0,0,1,.86.83c0,.87-1.72,1.78-3.22,1.85a3.68,3.68,0,0,1-3.94-3.72,3.63,3.63,0,1,1,7.23-.54.78.78,0,0,1-.85.93Zm3.1-1.48A1.6,1.6,0,0,0,86.08,241a1.62,1.62,0,0,0-1.53,1.61Z"/><path class="cls-17" d="M90.39,240.36a1,1,0,0,1,1-1.16.85.85,0,0,1,1,.7,2.17,2.17,0,0,1,1.91-.9,2.58,2.58,0,0,1,2.87,2.6l.16,3.86a1,1,0,1,1-2,.08L95.09,242a1.3,1.3,0,1,0-2.6.11l.14,3.51a1,1,0,1,1-2,.09Z"/><path class="cls-17" d="M98.69,240.74l-.45,0a.83.83,0,0,1-.92-.84.86.86,0,0,1,.85-.92l.44,0,0-1.2a1,1,0,1,1,2-.09l0,1.2.57,0a.89.89,0,1,1,.08,1.76l-.58,0,.2,4.64a1,1,0,1,1-2,.09Z"/><path class="cls-17" d="M109.35,242.27a3.62,3.62,0,1,1-7.22.3,3.62,3.62,0,1,1,7.22-.3Zm-5.21.22c0,1,.59,2,1.69,2s1.55-1.13,1.51-2.1-.58-2-1.69-2S104.1,241.52,104.14,242.49Z"/><path class="cls-17" d="M114.37,240.5c-.37,0-1.17-.54-1.83-.51-.36,0-.67.2-.66.59,0,.94,3.54.65,3.63,2.94.06,1.35-1,2.42-2.77,2.49-1.13.05-2.84-.53-2.88-1.44a1,1,0,0,1,.83-.93c.79,0,1.17.64,2.12.6.61,0,.79-.23.77-.61,0-.92-3.53-.63-3.63-2.94a2.46,2.46,0,0,1,2.63-2.47c1,0,2.54.36,2.58,1.35A.87.87,0,0,1,114.37,240.5Z"/><path class="cls-17" d="M45.23,257a3.62,3.62,0,1,1-7.22.3,3.62,3.62,0,1,1,7.22-.3Zm-5.2.22c0,1,.59,2,1.68,2s1.55-1.13,1.51-2.1-.58-2-1.68-2S40,256.24,40,257.21Z"/><path class="cls-17" d="M46,254.25a1,1,0,0,1,1-1.16,1,1,0,0,1,1,.8,2.24,2.24,0,0,1,1.88-1c2.17-.09,3.33,1.89,3.42,3.85a3.56,3.56,0,0,1-3.16,3.93,2.87,2.87,0,0,1-1.88-.62l.11,2.47a1,1,0,0,1-1,1.16,1,1,0,0,1-1.06-1.08Zm3.8,4.58c1-.05,1.52-1.16,1.48-2.1s-.61-2-1.66-2-1.53,1.08-1.49,2.06S48.66,258.88,49.77,258.83Z"/><path class="cls-17" d="M55.76,257.2a1.75,1.75,0,0,0,2,1.38c1-.05,1.71-.89,2.25-.91a.9.9,0,0,1,.86.83c0,.87-1.72,1.78-3.22,1.85a3.67,3.67,0,0,1-3.94-3.72,3.62,3.62,0,1,1,7.22-.54.77.77,0,0,1-.84.93Zm3.11-1.48a1.6,1.6,0,0,0-1.67-1.47,1.62,1.62,0,0,0-1.53,1.61Z"/><path class="cls-17" d="M61.48,253.48a1,1,0,0,1,1-1c.53,0,1,.16,1,.8h0a1.6,1.6,0,0,1,1.38-.9,1,1,0,0,1,1,1c0,.65-.58.72-1.17,1s-1.19.59-1.16,1.39l.13,3.1a1,1,0,1,1-2,.08Z"/><path class="cls-17" d="M73.27,258.28c0,.52.06,1.32-.91,1.36-.59,0-.84-.29-1-.81a2.43,2.43,0,0,1-1.88,1c-1.89.08-3.4-1.47-3.49-3.74s1.32-4,3.16-4a2.27,2.27,0,0,1,2,.84A1,1,0,0,1,72,252c1,0,1,.75,1,1.27ZM69.68,258c1-.05,1.51-1.13,1.47-2.1s-.57-2-1.64-2S68,255.06,68,256,68.59,258,69.68,258Z"/><path class="cls-17" d="M74.72,253.77h-.45a.81.81,0,0,1-.92-.84.86.86,0,0,1,.85-.92l.44,0,0-1.2a1,1,0,1,1,2-.09l0,1.21.57,0a.85.85,0,0,1,1,.84.87.87,0,0,1-.93.93l-.58,0,.2,4.65a1,1,0,0,1-1,1.16,1,1,0,0,1-1.06-1.08Z"/><path class="cls-17" d="M80.32,249.76A1.15,1.15,0,0,1,79.24,251a1.2,1.2,0,0,1-1.19-1.12,1.17,1.17,0,0,1,1.09-1.15A1.15,1.15,0,0,1,80.32,249.76Zm-2,3.13a1,1,0,1,1,2-.09l.23,5.37a1,1,0,1,1-2,.09Z"/><path class="cls-17" d="M81,253.22a1.5,1.5,0,0,1-.15-.58,1,1,0,0,1,1-1,.91.91,0,0,1,.92.68l1.46,3.92h0l1.12-4a.9.9,0,0,1,.86-.75,1,1,0,0,1,1.09.93,1.42,1.42,0,0,1-.1.6l-1.81,5.29c-.17.52-.37.85-1.05.88s-.91-.28-1.13-.79Z"/><path class="cls-17" d="M95,254.89a3.63,3.63,0,1,1-7.23.3,3.63,3.63,0,1,1,7.23-.3Zm-5.21.22c0,1,.59,2,1.68,2s1.55-1.13,1.51-2.1-.58-2-1.68-2S89.7,254.14,89.74,255.11Z"/><path class="cls-17" d="M100,253.12c-.38,0-1.17-.54-1.83-.51-.36,0-.68.19-.66.59,0,.93,3.53.65,3.63,2.94,0,1.35-1,2.42-2.77,2.49-1.14.05-2.84-.53-2.88-1.44a1,1,0,0,1,.83-.93c.78,0,1.16.64,2.11.6.62,0,.79-.23.78-.61,0-.92-3.53-.63-3.63-2.94a2.45,2.45,0,0,1,2.63-2.47c1,0,2.54.35,2.58,1.35A.87.87,0,0,1,100,253.12Z"/><rect class="cls-5" x="171.17" y="108.07" width="88.33" height="33.92" rx="7.12"/><path class="cls-16" d="M177.31,120.74a1.08,1.08,0,0,1,1.17-1.17h2.65a3.57,3.57,0,0,1,3.84,3.59,3.52,3.52,0,0,1-3.75,3.55h-1.66v2.46a1.13,1.13,0,1,1-2.25,0Zm2.25,4h1.53a1.59,1.59,0,0,0,0-3.18h-1.53Z"/><path class="cls-16" d="M185.65,120.74a1.06,1.06,0,0,1,1.15-1.17h2.64c2.31,0,3.74,1,3.74,3.39a2.92,2.92,0,0,1-2.78,2.84l2.55,2.73a1,1,0,0,1,.3.66,1.13,1.13,0,0,1-2,.76l-3.33-4h0v3.25a1.13,1.13,0,1,1-2.25,0Zm2.25,3.56h1.54a1.28,1.28,0,0,0,1.4-1.34,1.26,1.26,0,0,0-1.4-1.32H187.9Z"/><path class="cls-16" d="M194,120.88c0-.75.37-1.31,1.17-1.31h3.72a1,1,0,0,1,1.06,1,1,1,0,0,1-1.06,1h-2.64v2.19h2.46a1,1,0,1,1,0,2.07h-2.46v2.28H199a1,1,0,1,1,0,2.07h-3.87a1.09,1.09,0,0,1-1.15-1.12Z"/><path class="cls-16" d="M200.93,120.73a1.11,1.11,0,0,1,1.16-1.16h2.49c3.36,0,5.28,2.16,5.28,5.49a4.85,4.85,0,0,1-5.13,5.19h-2.61a1.1,1.1,0,0,1-1.19-1.12Zm2.25,7.45h1.52c1.93,0,2.82-1.42,2.82-3.22s-.9-3.32-3-3.32h-1.37Z"/><path class="cls-16" d="M210.94,120.65a1.13,1.13,0,1,1,2.25,0v8.52a1.13,1.13,0,1,1-2.25,0Z"/><path class="cls-16" d="M219.28,119.39c1.09,0,3.22.36,3.22,1.68a1,1,0,0,1-.93,1c-.61,0-1-.53-2.29-.53-1.86,0-2.82,1.58-2.82,3.41s1,3.31,2.82,3.31c1.26,0,1.77-.63,2.38-.63a1.06,1.06,0,0,1,1,1c0,1.44-2.26,1.77-3.37,1.77a5.19,5.19,0,0,1-5.16-5.52C214.12,121.79,216.22,119.39,219.28,119.39Z"/><path class="cls-16" d="M225.5,121.64h-1.63a1,1,0,0,1-1-1,1,1,0,0,1,1-1h5.52a1,1,0,0,1,1,1,1,1,0,0,1-1,1h-1.64v7.53a1.13,1.13,0,1,1-2.25,0Z"/><path class="cls-16" d="M230.9,120.65a1.13,1.13,0,1,1,2.25,0v8.52a1.13,1.13,0,1,1-2.25,0Z"/><path class="cls-16" d="M233.87,121.12a1.54,1.54,0,0,1-.1-.56,1.12,1.12,0,0,1,2.17-.34l2.33,6.24,2.32-6.24a1.12,1.12,0,0,1,2.18.34,1.36,1.36,0,0,1-.11.56l-3.28,8.35c-.2.48-.45.87-1.11.87a1.12,1.12,0,0,1-1.11-.87Z"/><path class="cls-16" d="M243,124.91c0-3.12,2.1-5.52,5.16-5.52a5.25,5.25,0,0,1,5.16,5.52c0,3.11-2.08,5.52-5.16,5.52A5.19,5.19,0,0,1,243,124.91Zm8,0c0-1.81-.94-3.45-2.82-3.45s-2.82,1.64-2.82,3.45.92,3.45,2.82,3.45S250.94,126.74,250.94,124.91Z"/><path class="cls-17" d="M178.34,62.91a1.66,1.66,0,0,1,1.8-1.8h4.07c3.38,0,5.88,2.21,5.88,5.5s-2.6,5.45-5.75,5.45h-2.55v3.77a1.73,1.73,0,1,1-3.45,0ZM181.79,69h2.35a2.44,2.44,0,0,0,0-4.87h-2.35Z"/><path class="cls-17" d="M191.13,62.77a1.73,1.73,0,1,1,3.45,0V74.31h4.09A1.56,1.56,0,0,1,200.33,76a1.61,1.61,0,0,1-1.66,1.51h-5.75a1.7,1.7,0,0,1-1.79-1.88Z"/><path class="cls-17" d="M204.72,62.74a2.71,2.71,0,0,1,2.46-1.9,2.6,2.6,0,0,1,2.46,1.9l4.51,12.51a2.6,2.6,0,0,1,.18.85,1.53,1.53,0,0,1-1.58,1.52,1.61,1.61,0,0,1-1.68-1.19l-.69-2.16H204l-.69,2.13a1.6,1.6,0,0,1-1.66,1.22,1.65,1.65,0,0,1-1.7-1.61,1.92,1.92,0,0,1,.16-.76Zm.25,8.35h4.37l-2.13-6.67h-.05Z"/><path class="cls-17" d="M215.28,62.77A1.65,1.65,0,0,1,217,61a2.17,2.17,0,0,1,1.45.76l7.29,9.73h0V62.77a1.73,1.73,0,1,1,3.45,0V75.83a1.65,1.65,0,0,1-1.73,1.79,2.21,2.21,0,0,1-1.45-.76l-7.28-9.61h-.05v8.58a1.73,1.73,0,1,1-3.45,0Z"/><path class="cls-17" d="M237.34,62.88a1.68,1.68,0,0,1,1.77-1.77h3.81c5.15,0,8.1,3.31,8.1,8.42,0,4.83-3.13,8-7.87,8h-4a1.68,1.68,0,0,1-1.81-1.72Zm3.45,11.43h2.32c3,0,4.32-2.18,4.32-4.94,0-3-1.38-5.09-4.55-5.09h-2.09Z"/><path class="cls-17" d="M252.68,63.11c0-1.15.57-2,1.79-2h5.7a1.53,1.53,0,0,1,1.64,1.59,1.56,1.56,0,0,1-1.64,1.58h-4v3.36h3.77a1.56,1.56,0,0,1,1.68,1.59,1.59,1.59,0,0,1-1.68,1.59h-3.77v3.49h4.25A1.53,1.53,0,0,1,262,75.9a1.55,1.55,0,0,1-1.63,1.58h-5.93a1.68,1.68,0,0,1-1.77-1.72Z"/><path class="cls-17" d="M269.49,62.91a1.63,1.63,0,0,1,1.77-1.8h4.05c3.54,0,5.72,1.59,5.72,5.2,0,2.53-1.9,4-4.25,4.34l3.91,4.19a1.49,1.49,0,0,1,.46,1A1.74,1.74,0,0,1,278.09,77L273,70.84h0v5a1.73,1.73,0,1,1-3.45,0Zm3.45,5.44h2.37a2,2,0,1,0,0-4.07h-2.37Z"/><path class="cls-17" d="M282.28,63.11c0-1.15.57-2,1.79-2h5.7a1.53,1.53,0,0,1,1.64,1.59,1.55,1.55,0,0,1-1.64,1.58h-4v3.36h3.77a1.56,1.56,0,0,1,1.68,1.59,1.59,1.59,0,0,1-1.68,1.59h-3.77v3.49H290a1.52,1.52,0,0,1,1.63,1.59A1.55,1.55,0,0,1,290,77.48h-5.93a1.68,1.68,0,0,1-1.77-1.72Z"/><path class="cls-17" d="M302.61,63.14a1.6,1.6,0,0,1-1.54,1.7c-.94,0-1.68-.69-3.06-.69-1,0-1.89.53-1.89,1.49,0,2.37,7.68.85,7.68,6.79,0,3.28-2.71,5.33-5.88,5.33-1.77,0-5.59-.41-5.59-2.58a1.54,1.54,0,0,1,1.54-1.63c1.08,0,2.37.9,3.86.9s2.35-.85,2.35-2c0-2.71-7.68-1.08-7.68-6.41,0-3.22,2.64-5.22,5.7-5.22C299.39,60.84,302.61,61.32,302.61,63.14Z"/><path class="cls-17" d="M305.28,62.91a1.65,1.65,0,0,1,1.79-1.8h4.07c3.38,0,5.89,2.21,5.89,5.5s-2.6,5.45-5.75,5.45h-2.55v3.77a1.73,1.73,0,1,1-3.45,0ZM308.73,69h2.34a2.44,2.44,0,0,0,0-4.87h-2.34Z"/><path class="cls-17" d="M317.93,62.77a1.73,1.73,0,1,1,3.45,0v8a3.52,3.52,0,0,0,3.54,3.8,3.62,3.62,0,0,0,3.52-3.8v-8a1.73,1.73,0,1,1,3.45,0V71a7,7,0,0,1-14,0Z"/><path class="cls-17" d="M333.82,63.11c0-1.15.58-2,1.79-2h5.71A1.53,1.53,0,0,1,343,62.7a1.55,1.55,0,0,1-1.63,1.58h-4.05v3.36H341a1.56,1.56,0,0,1,1.68,1.59A1.59,1.59,0,0,1,341,70.82h-3.77v3.49h4.25a1.53,1.53,0,0,1,1.64,1.59,1.56,1.56,0,0,1-1.64,1.58h-5.93a1.68,1.68,0,0,1-1.77-1.72Z"/><path class="cls-17" d="M354.15,63.14a1.6,1.6,0,0,1-1.54,1.7c-.94,0-1.68-.69-3.06-.69-1,0-1.88.53-1.88,1.49,0,2.37,7.68.85,7.68,6.79,0,3.28-2.72,5.33-5.89,5.33-1.77,0-5.59-.41-5.59-2.58a1.54,1.54,0,0,1,1.54-1.63c1.08,0,2.37.9,3.87.9s2.34-.85,2.34-2c0-2.71-7.68-1.08-7.68-6.41,0-3.22,2.65-5.22,5.7-5.22C350.93,60.84,354.15,61.32,354.15,63.14Z"/><path class="cls-17" d="M359.58,64.28h-2.51a1.48,1.48,0,0,1-1.56-1.58,1.54,1.54,0,0,1,1.56-1.59h8.47a1.54,1.54,0,0,1,1.56,1.59,1.48,1.48,0,0,1-1.56,1.58H363V75.83a1.73,1.73,0,1,1-3.45,0Z"/><path class="cls-17" d="M369.54,62.74a2.71,2.71,0,0,1,2.46-1.9,2.6,2.6,0,0,1,2.46,1.9L379,75.25a2.9,2.9,0,0,1,.18.85,1.53,1.53,0,0,1-1.59,1.52,1.62,1.62,0,0,1-1.68-1.19l-.68-2.16h-6.4l-.69,2.13a1.59,1.59,0,0,1-1.65,1.22,1.65,1.65,0,0,1-1.7-1.61,1.92,1.92,0,0,1,.16-.76Zm.25,8.35h4.37L372,64.42h0Z"/><path class="cls-17" d="M182.14,83.74a2.7,2.7,0,0,1,2.46-1.9,2.6,2.6,0,0,1,2.46,1.9l4.5,12.51a2.69,2.69,0,0,1,.19.85,1.53,1.53,0,0,1-1.59,1.52,1.61,1.61,0,0,1-1.68-1.19l-.69-2.16H181.4l-.69,2.13a1.59,1.59,0,0,1-1.66,1.22,1.65,1.65,0,0,1-1.7-1.61,2.12,2.12,0,0,1,.16-.76Zm.25,8.35h4.37l-2.14-6.67h-.05Z"/><path class="cls-17" d="M199,84.11c0-1.15.57-2,1.79-2h5.7a1.52,1.52,0,0,1,1.63,1.59,1.55,1.55,0,0,1-1.63,1.58h-4.05v3.36h3.78a1.55,1.55,0,0,1,1.67,1.59,1.58,1.58,0,0,1-1.67,1.59h-3.78v3.49h4.26a1.53,1.53,0,0,1,1.63,1.59,1.55,1.55,0,0,1-1.63,1.58h-5.93A1.67,1.67,0,0,1,199,96.76Z"/><path class="cls-17" d="M211.32,83.74A2.33,2.33,0,0,1,213.58,82a2.46,2.46,0,0,1,2.3,1.66l2.71,9.11h0l2.72-9.11a2.45,2.45,0,0,1,2.3-1.66,2.31,2.31,0,0,1,2.25,1.77L228,96.58a2.61,2.61,0,0,1,0,.39,1.59,1.59,0,0,1-1.65,1.65c-1.18,0-1.63-.53-1.8-1.61l-1.35-9.36h0l-2.76,9.64a1.94,1.94,0,0,1-3.68,0L214,87.65h0L212.61,97c-.16,1.08-.62,1.61-1.79,1.61A1.59,1.59,0,0,1,209.16,97a2.61,2.61,0,0,1,0-.39Z"/><path class="cls-17" d="M229.65,84.11a1.75,1.75,0,0,1,1.8-2h5.7a1.53,1.53,0,0,1,1.63,1.59,1.55,1.55,0,0,1-1.63,1.58H233.1v3.36h3.78a1.55,1.55,0,0,1,1.67,1.59,1.58,1.58,0,0,1-1.67,1.59H233.1v3.49h4.26A1.53,1.53,0,0,1,239,96.9a1.55,1.55,0,0,1-1.63,1.58h-5.94a1.68,1.68,0,0,1-1.77-1.72Z"/><path class="cls-17" d="M240.3,83.91a1.63,1.63,0,0,1,1.77-1.8h4.05c3.54,0,5.73,1.59,5.73,5.2,0,2.53-1.91,4-4.26,4.34l3.91,4.19a1.49,1.49,0,0,1,.46,1,1.76,1.76,0,0,1-1.72,1.77,1.77,1.77,0,0,1-1.34-.6l-5.1-6.18h-.05v5a1.73,1.73,0,1,1-3.45,0Zm3.45,5.44h2.37a2,2,0,1,0,0-4.07h-2.37Z"/><path class="cls-17" d="M265.83,88.78c1.45,0,2,.74,2,2.21,0,4.44-2.89,7.77-7.49,7.77s-7.91-3.7-7.91-8.46,3.22-8.46,7.91-8.46c3.47,0,6.32,1.63,6.32,3.24a1.45,1.45,0,0,1-1.42,1.61c-1.57,0-1.89-1.68-4.9-1.68S256,87.52,256,90.3s1.4,5.29,4.32,5.29c1.81,0,3.91-1,3.91-3.64h-2.35a1.59,1.59,0,1,1,0-3.17Z"/><path class="cls-17" d="M269.28,84.11a1.75,1.75,0,0,1,1.8-2h5.7a1.53,1.53,0,0,1,1.63,1.59,1.55,1.55,0,0,1-1.63,1.58h-4v3.36h3.77a1.56,1.56,0,0,1,1.68,1.59,1.58,1.58,0,0,1-1.68,1.59h-3.77v3.49H277a1.53,1.53,0,0,1,1.63,1.59A1.55,1.55,0,0,1,277,98.48h-5.94a1.68,1.68,0,0,1-1.77-1.72Z"/><path class="cls-17" d="M279.79,83.77a1.66,1.66,0,0,1,1.73-1.8,2.17,2.17,0,0,1,1.45.76l7.29,9.73h0V83.77a1.73,1.73,0,1,1,3.45,0V96.83A1.64,1.64,0,0,1,292,98.62a2.17,2.17,0,0,1-1.45-.76l-7.29-9.61h-.05v8.58a1.73,1.73,0,1,1-3.45,0Z"/><path class="cls-17" d="M303,81.84c1.68,0,4.95.55,4.95,2.57A1.46,1.46,0,0,1,306.47,86c-.94,0-1.59-.8-3.52-.8-2.85,0-4.32,2.41-4.32,5.22s1.5,5.08,4.32,5.08c1.93,0,2.72-1,3.66-1a1.63,1.63,0,0,1,1.52,1.57c0,2.2-3.47,2.71-5.18,2.71-4.66,0-7.91-3.7-7.91-8.46S298.26,81.84,303,81.84Z"/><path class="cls-17" d="M309.74,83.77a1.73,1.73,0,1,1,3.45,0V96.83a1.73,1.73,0,1,1-3.45,0Z"/><path class="cls-17" d="M319.05,83.74a2.71,2.71,0,0,1,2.46-1.9,2.6,2.6,0,0,1,2.46,1.9l4.51,12.51a2.69,2.69,0,0,1,.19.85,1.53,1.53,0,0,1-1.59,1.52,1.61,1.61,0,0,1-1.68-1.19l-.69-2.16h-6.39l-.69,2.13A1.59,1.59,0,0,1,316,98.62a1.65,1.65,0,0,1-1.7-1.61,2.12,2.12,0,0,1,.16-.76Zm.26,8.35h4.37l-2.14-6.67h-.05Z"/><path class="cls-17" d="M339.43,84.14a1.6,1.6,0,0,1-1.54,1.7c-.94,0-1.68-.69-3.06-.69-1,0-1.88.53-1.88,1.49,0,2.37,7.68.85,7.68,6.79,0,3.28-2.72,5.33-5.89,5.33-1.77,0-5.59-.41-5.59-2.58a1.54,1.54,0,0,1,1.54-1.63c1.08,0,2.37.9,3.86.9s2.35-.85,2.35-2c0-2.71-7.68-1.08-7.68-6.41,0-3.22,2.65-5.22,5.7-5.22C336.21,81.84,339.43,82.32,339.43,84.14Z"/><rect class="cls-18" x="267.01" y="108.07" width="88.33" height="33.92" rx="7.12"/><path class="cls-16" d="M273.27,120.74a1.08,1.08,0,0,1,1.17-1.17h2.66a3.57,3.57,0,0,1,3.84,3.59,3.53,3.53,0,0,1-3.75,3.55h-1.67v2.46a1.13,1.13,0,1,1-2.25,0Zm2.25,4h1.53a1.59,1.59,0,0,0,0-3.18h-1.53Z"/><path class="cls-16" d="M281.61,120.74a1.07,1.07,0,0,1,1.16-1.17h2.64c2.31,0,3.73,1,3.73,3.39a2.91,2.91,0,0,1-2.77,2.84l2.55,2.73a1,1,0,0,1,.3.66,1.14,1.14,0,0,1-2,.76l-3.33-4h0v3.25a1.13,1.13,0,1,1-2.25,0Zm2.25,3.56h1.55A1.28,1.28,0,0,0,286.8,123a1.26,1.26,0,0,0-1.39-1.32h-1.55Z"/><path class="cls-16" d="M289.53,124.91c0-3.12,2.1-5.52,5.16-5.52a5.25,5.25,0,0,1,5.16,5.52c0,3.11-2.08,5.52-5.16,5.52A5.19,5.19,0,0,1,289.53,124.91Zm8,0c0-1.81-.94-3.45-2.82-3.45s-2.82,1.64-2.82,3.45.92,3.45,2.82,3.45S297.51,126.74,297.51,124.91Z"/><path class="cls-16" d="M303.26,120.64a1.76,1.76,0,0,1,1.6-1.25,1.71,1.71,0,0,1,1.61,1.25l2.94,8.16a1.75,1.75,0,0,1,.12.55,1,1,0,0,1-1,1,1,1,0,0,1-1.09-.78l-.45-1.41h-4.17l-.45,1.4a1,1,0,0,1-1.08.79,1.08,1.08,0,0,1-1.11-1.05,1.25,1.25,0,0,1,.1-.49Zm.16,5.44h2.85l-1.39-4.35h0Z"/><path class="cls-16" d="M315,119.39c1.1,0,3.23.36,3.23,1.68a1,1,0,0,1-.93,1c-.62,0-1-.53-2.3-.53-1.86,0-2.82,1.58-2.82,3.41s1,3.31,2.82,3.31c1.26,0,1.77-.63,2.39-.63a1.06,1.06,0,0,1,1,1c0,1.44-2.27,1.77-3.38,1.77a5.19,5.19,0,0,1-5.16-5.52C309.81,121.79,311.91,119.39,315,119.39Z"/><path class="cls-16" d="M321.2,121.64h-1.64a1,1,0,0,1-1-1,1,1,0,0,1,1-1h5.52a1,1,0,0,1,1,1,1,1,0,0,1-1,1h-1.63v7.53a1.13,1.13,0,1,1-2.25,0Z"/><path class="cls-16" d="M326.6,120.65a1.13,1.13,0,1,1,2.25,0v8.52a1.13,1.13,0,1,1-2.25,0Z"/><path class="cls-16" d="M329.57,121.12a1.36,1.36,0,0,1-.11-.56,1.12,1.12,0,0,1,2.18-.34l2.32,6.24,2.33-6.24a1.12,1.12,0,0,1,2.17.34,1.54,1.54,0,0,1-.1.56l-3.29,8.35a1.12,1.12,0,0,1-1.11.87c-.66,0-.91-.39-1.11-.87Z"/><path class="cls-16" d="M338.66,124.91c0-3.12,2.1-5.52,5.16-5.52a5.25,5.25,0,0,1,5.16,5.52c0,3.11-2.09,5.52-5.16,5.52A5.19,5.19,0,0,1,338.66,124.91Zm8,0c0-1.81-.95-3.45-2.82-3.45S341,123.1,341,124.91s.91,3.45,2.82,3.45S346.64,126.74,346.64,124.91Z"/><rect class="cls-4" x="362.84" y="108.07" width="88.33" height="33.92" rx="7.12"/><path class="cls-16" d="M375.22,120.74a1.06,1.06,0,0,1,1.15-1.17H379c2.31,0,3.74,1,3.74,3.39A2.92,2.92,0,0,1,380,125.8l2.55,2.73a1,1,0,0,1,.3.66,1.13,1.13,0,0,1-2,.76l-3.33-4h0v3.25a1.13,1.13,0,1,1-2.25,0Zm2.25,3.56H379a1.28,1.28,0,0,0,1.4-1.34,1.26,1.26,0,0,0-1.4-1.32h-1.54Z"/><path class="cls-16" d="M383.56,120.88c0-.75.37-1.31,1.17-1.31h3.72a1,1,0,0,1,1.06,1,1,1,0,0,1-1.06,1h-2.64v2.19h2.46a1,1,0,1,1,0,2.07h-2.46v2.28h2.77a1,1,0,1,1,0,2.07h-3.87a1.09,1.09,0,0,1-1.15-1.12Z"/><path class="cls-16" d="M393,120.64a1.76,1.76,0,0,1,1.6-1.25,1.71,1.71,0,0,1,1.61,1.25l2.94,8.16a1.75,1.75,0,0,1,.12.55,1,1,0,0,1-1,1,1,1,0,0,1-1.09-.78l-.45-1.41H392.5l-.45,1.4a1,1,0,0,1-1.08.79,1.08,1.08,0,0,1-1.11-1.05,1.25,1.25,0,0,1,.1-.49Zm.16,5.44H396l-1.39-4.35h0Z"/><path class="cls-16" d="M404.69,119.39c1.1,0,3.23.36,3.23,1.68a1,1,0,0,1-.93,1c-.62,0-1-.53-2.3-.53-1.86,0-2.82,1.58-2.82,3.41s1,3.31,2.82,3.31c1.26,0,1.77-.63,2.39-.63a1.06,1.06,0,0,1,1,1c0,1.44-2.27,1.77-3.38,1.77a5.19,5.19,0,0,1-5.16-5.52C399.53,121.79,401.63,119.39,404.69,119.39Z"/><path class="cls-16" d="M410.92,121.64h-1.64a1,1,0,0,1-1-1,1,1,0,0,1,1-1h5.52a1,1,0,0,1,1,1,1,1,0,0,1-1,1h-1.63v7.53a1.13,1.13,0,1,1-2.25,0Z"/><path class="cls-16" d="M416.32,120.65a1.13,1.13,0,1,1,2.25,0v8.52a1.13,1.13,0,1,1-2.25,0Z"/><path class="cls-16" d="M419.29,121.12a1.36,1.36,0,0,1-.11-.56,1.12,1.12,0,0,1,2.18-.34l2.32,6.24,2.33-6.24a1.12,1.12,0,0,1,2.17.34,1.54,1.54,0,0,1-.1.56l-3.29,8.35a1.12,1.12,0,0,1-1.11.87c-.66,0-.91-.39-1.11-.87Z"/><path class="cls-16" d="M428.38,124.91c0-3.12,2.1-5.52,5.16-5.52a5.25,5.25,0,0,1,5.16,5.52c0,3.11-2.09,5.52-5.16,5.52A5.19,5.19,0,0,1,428.38,124.91Zm8,0c0-1.81-.95-3.45-2.82-3.45s-2.82,1.64-2.82,3.45.91,3.45,2.82,3.45S436.36,126.74,436.36,124.91Z"/></g></g></g></svg>