<svg xmlns="http://www.w3.org/2000/svg" viewBox="0 0 963.77 322.66"><defs><style>.cls-1{isolation:isolate;}.cls-2{fill:#eadf1b;}.cls-3{fill:#eda719;}.cls-4{fill:#df244b;}.cls-5{fill:#7dba43;}.cls-6{fill:#335215;}.cls-7{fill:#755403;}.cls-8{fill:#6e071c;}.cls-10,.cls-11,.cls-9{fill:none;stroke-width:2px;}.cls-9{stroke:#335215;}.cls-11,.cls-9{stroke-linejoin:round;}.cls-10{stroke:#755403;stroke-miterlimit:10;}.cls-11{stroke:#6e071c;}.cls-12{fill:#cfd0d2;mix-blend-mode:multiply;}.cls-13{fill:#feede1;}.cls-14{fill:#dfcfc4;}.cls-15{fill:#e5c94f;}.cls-16{fill:#fff;}.cls-17{fill:#142339;}.cls-18{fill:#ea821b;}</style></defs><g class="cls-1"><g id="Capa_2" data-name="Capa 2"><g id="Capa_1-2" data-name="Capa 1"><rect class="cls-2" x="169.88" y="159.06" width="90.92" height="22.47" rx="3"/><rect class="cls-2" x="264.41" y="159.06" width="90.92" height="22.47" rx="3"/><rect class="cls-3" x="358.95" y="159.06" width="90.92" height="22.47" rx="3"/><rect class="cls-4" x="453.48" y="159.06" width="90.92" height="22.47" rx="3"/><rect class="cls-4" x="548.02" y="159.06" width="90.92" height="22.47" rx="3"/><rect class="cls-5" x="169.88" y="185.14" width="90.92" height="22.47" rx="3"/><rect class="cls-2" x="264.41" y="185.14" width="90.92" height="22.47" rx="3"/><rect class="cls-3" x="358.95" y="185.14" width="90.92" height="22.47" rx="3"/><rect class="cls-4" x="453.48" y="185.14" width="90.92" height="22.47" rx="3"/><rect class="cls-4" x="548.02" y="185.14" width="90.92" height="22.47" rx="3"/><rect class="cls-5" x="169.88" y="211.22" width="90.92" height="22.47" rx="3"/><rect class="cls-2" x="264.41" y="211.22" width="90.92" height="22.47" rx="3"/><rect class="cls-2" x="358.95" y="211.22" width="90.92" height="22.47" rx="3"/><rect class="cls-3" x="453.48" y="211.22" width="90.92" height="22.47" rx="3"/><rect class="cls-4" x="548.02" y="211.22" width="90.92" height="22.47" rx="3"/><rect class="cls-5" x="169.88" y="237.3" width="90.92" height="22.47" rx="3"/><rect class="cls-5" x="264.41" y="237.3" width="90.92" height="22.47" rx="3"/><rect class="cls-2" x="358.95" y="237.3" width="90.92" height="22.47" rx="3"/><rect class="cls-3" x="453.48" y="237.3" width="90.92" height="22.47" rx="3"/><rect class="cls-4" x="548.02" y="237.3" width="90.92" height="22.47" rx="3"/><rect class="cls-5" x="169.88" y="263.38" width="90.92" height="22.47" rx="3"/><rect class="cls-5" x="264.41" y="263.38" width="90.92" height="22.47" rx="3"/><rect class="cls-5" x="358.95" y="263.38" width="90.92" height="22.47" rx="3"/><rect class="cls-2" x="453.48" y="263.38" width="90.92" height="22.47" rx="3"/><rect class="cls-3" x="548.02" y="263.38" width="90.92" height="22.47" rx="3"/><path class="cls-6" d="M260,185.94v48.43a3.74,3.74,0,0,0,3.73,3.73h90.81v22.35a3.73,3.73,0,0,0,3.73,3.73h90.81v20.87H170.67V185.94H260m.28-2H170.4a1.73,1.73,0,0,0-1.73,1.73v99.66a1.73,1.73,0,0,0,1.73,1.72h279a1.73,1.73,0,0,0,1.73-1.72V263.91a1.73,1.73,0,0,0-1.73-1.73H358.27a1.72,1.72,0,0,1-1.73-1.73V237.83a1.72,1.72,0,0,0-1.73-1.73H263.73a1.73,1.73,0,0,1-1.73-1.73v-48.7a1.72,1.72,0,0,0-1.72-1.73Z"/><path class="cls-7" d="M449.08,159.86v48.43A3.73,3.73,0,0,0,452.8,212h90.81v48.43a3.73,3.73,0,0,0,3.73,3.73h90.81v20.87H454.28V262.7a3.74,3.74,0,0,0-3.73-3.73H359.74V236.62a3.73,3.73,0,0,0-3.72-3.73H265.21V184.46a3.74,3.74,0,0,0-3.73-3.73H170.67V159.86H449.08m.27-2h-279a1.73,1.73,0,0,0-1.73,1.73V181a1.73,1.73,0,0,0,1.73,1.72h91.08a1.73,1.73,0,0,1,1.73,1.73v48.71a1.72,1.72,0,0,0,1.72,1.72H356a1.73,1.73,0,0,1,1.72,1.73v22.63a1.73,1.73,0,0,0,1.73,1.72h91.08a1.73,1.73,0,0,1,1.73,1.73v22.63a1.72,1.72,0,0,0,1.73,1.72H638.42a1.73,1.73,0,0,0,1.73-1.72V263.91a1.73,1.73,0,0,0-1.73-1.73H547.34a1.72,1.72,0,0,1-1.73-1.73V211.74a1.72,1.72,0,0,0-1.72-1.72H452.8a1.72,1.72,0,0,1-1.72-1.73v-48.7a1.73,1.73,0,0,0-1.73-1.73Z"/><path class="cls-8" d="M638.15,159.86V259H548.82V210.54a3.74,3.74,0,0,0-3.73-3.73H454.28V159.86H638.15m.27-2H454a1.72,1.72,0,0,0-1.73,1.73v47.5a1.72,1.72,0,0,0,1.73,1.72h91.08a1.74,1.74,0,0,1,1.73,1.73v48.71a1.72,1.72,0,0,0,1.72,1.72h89.88a1.73,1.73,0,0,0,1.73-1.72V159.59a1.73,1.73,0,0,0-1.73-1.73Z"/><path class="cls-9" d="M122.52,274.62s19.74-31.51,107.33-26.23"/><polygon class="cls-6" points="225.72 251.65 229.26 248.41 226.02 244.88 228.89 245 232.13 248.54 228.6 251.78 225.72 251.65"/><path class="cls-10" d="M681.87,252.26c-52-30.66-207.67-42.39-244.65-25"/><polygon class="cls-7" points="439.35 222.5 437.78 227.03 442.32 228.59 439.73 229.85 435.2 228.29 436.76 223.76 439.35 222.5"/><path class="cls-10" d="M823.58,310.48C694.45,335.82,552,318.82,522.39,252.19"/><polygon class="cls-7" points="527.1 254.49 522.64 252.73 520.88 257.19 519.74 254.55 521.5 250.09 525.96 251.85 527.1 254.49"/><path class="cls-11" d="M680.05,133.28S601.42,138,585.4,194.17"/><polygon class="cls-8" points="583.32 189.41 585.62 193.62 589.83 191.31 589.02 194.08 584.81 196.38 582.51 192.17 583.32 189.41"/><path class="cls-11" d="M521.5,133.1s5.36,25.36-24.7,38.41"/><polygon class="cls-8" points="499.15 166.82 497.34 171.27 501.78 173.07 499.13 174.19 494.69 172.38 496.49 167.94 499.15 166.82"/><polygon class="cls-12" points="484.94 10.42 480.1 125.03 480.1 125.03 480.1 125.03 498.77 144.3 612.38 149.09 618 16.04 484.94 10.42"/><polygon class="cls-13" points="615.72 13.77 482.67 8.15 477.82 122.75 496.5 142.03 610.1 146.82 615.72 13.77"/><polygon class="cls-14" points="496.5 142.03 477.82 122.75 497.28 123.58 496.5 142.03"/><path class="cls-15" d="M596.85,3.33,530.7,0c-.18,1-.5,2.09-.56,2.63a73.22,73.22,0,0,0-.48,11.08l67.15,3.37c0-3.06,0-6.13.07-9.2C596.91,6.5,596.75,4.83,596.85,3.33Z"/><rect class="cls-4" x="502.79" y="47.05" width="88.33" height="33.92" rx="7.12" transform="translate(3.19 -23.02) rotate(2.42)"/><path class="cls-16" d="M515.38,58.39a1.06,1.06,0,0,1,1.2-1.12l2.64.11c2.31.1,3.69,1.19,3.59,3.54a2.92,2.92,0,0,1-2.89,2.72l2.43,2.83a1,1,0,0,1,.27.68,1.14,1.14,0,0,1-1.17,1.1,1.18,1.18,0,0,1-.86-.42l-3.15-4.18h0l-.14,3.26a1.13,1.13,0,1,1-2.25-.1Zm2.1,3.65,1.54.06a1.28,1.28,0,0,0,1.45-1.27,1.25,1.25,0,0,0-1.34-1.38l-1.54-.07Z"/><path class="cls-16" d="M523.71,58.88c0-.75.42-1.29,1.22-1.26l3.72.16a1,1,0,0,1,1,1.08,1,1,0,0,1-1.11,1l-2.64-.12-.09,2.19,2.46.11a1,1,0,0,1,1.05,1.08,1,1,0,0,1-1.14,1l-2.46-.1-.1,2.28,2.78.12a1,1,0,0,1,1,1.07,1,1,0,0,1-1.11,1l-3.87-.16a1.09,1.09,0,0,1-1.1-1.17Z"/><path class="cls-16" d="M533.13,59a1.74,1.74,0,0,1,1.65-1.17,1.68,1.68,0,0,1,1.55,1.31l2.6,8.28A1.51,1.51,0,0,1,539,68,1,1,0,0,1,538,69a1.05,1.05,0,0,1-1.06-.83l-.39-1.42-4.17-.18-.51,1.38a1,1,0,0,1-1.11.74,1.08,1.08,0,0,1-1.07-1.09,1.3,1.3,0,0,1,.13-.49Zm-.07,5.45,2.85.12-1.21-4.4h0Z"/><path class="cls-16" d="M544.88,58.28c1.1,0,3.21.5,3.16,1.82a1,1,0,0,1-1,1c-.61,0-1-.57-2.27-.62-1.86-.08-2.88,1.46-3,3.28s.84,3.36,2.68,3.43c1.26.06,1.79-.55,2.41-.52a1,1,0,0,1,.94,1.06c-.06,1.44-2.33,1.67-3.44,1.62-3-.12-5-2.63-4.92-5.73S541.83,58.15,544.88,58.28Z"/><path class="cls-16" d="M551,60.79l-1.63-.06a1,1,0,0,1-1-1.08,1,1,0,0,1,1.06-1l5.52.23A1,1,0,0,1,556,60a1,1,0,0,1-1.06,1l-1.63-.07-.32,7.52a1.13,1.13,0,1,1-2.25-.09Z"/><path class="cls-16" d="M556.45,60a1.07,1.07,0,0,1,1.17-1.12,1.08,1.08,0,0,1,1.07,1.22l-.36,8.51a1.12,1.12,0,1,1-2.24-.1Z"/><path class="cls-16" d="M559.39,60.62a1.52,1.52,0,0,1-.08-.56,1.13,1.13,0,0,1,1.2-1,1.15,1.15,0,0,1,1,.78l2.06,6.33L566.14,60a1.13,1.13,0,0,1,1.06-.69,1.11,1.11,0,0,1,1.1,1.12,1.31,1.31,0,0,1-.13.55l-3.63,8.21a1.12,1.12,0,0,1-1.15.82c-.65,0-.89-.42-1.07-.91Z"/><path class="cls-16" d="M568.31,64.8c.14-3.12,2.34-5.43,5.39-5.3a5.26,5.26,0,0,1,4.93,5.73c-.14,3.1-2.32,5.43-5.39,5.3A5.2,5.2,0,0,1,568.31,64.8Zm8,.33c.07-1.81-.8-3.48-2.67-3.56s-2.89,1.51-3,3.33.77,3.48,2.67,3.56S576.21,67,576.29,65.13Z"/><path class="cls-17" d="M520.83,87.65a.86.86,0,0,1,1-.89l2.13.09a2.85,2.85,0,0,1,2.94,3,2.81,2.81,0,0,1-3.11,2.71l-1.33,0-.09,2a.86.86,0,0,1-.94.9.85.85,0,0,1-.85-1Zm1.66,3.27,1.23,0a1.27,1.27,0,0,0,.1-2.54l-1.22-.06Z"/><path class="cls-17" d="M527.45,87.26a.87.87,0,1,1,1.73.07l-.31,7.38a.87.87,0,1,1-1.73-.07Z"/><path class="cls-17" d="M535.73,94.84c0,.44-.05,1.12-.88,1.09-.5,0-.69-.31-.79-.77a2.07,2.07,0,0,1-1.68.73c-1.61-.06-2.79-1.49-2.71-3.44a3.1,3.1,0,0,1,3-3.22,2,2,0,0,1,1.61.86.82.82,0,0,1,.86-.68c.83,0,.8.72.78,1.16Zm-3-.52c.9,0,1.37-.85,1.4-1.68s-.34-1.78-1.25-1.82-1.41.88-1.44,1.71S531.76,94.28,532.69,94.32Z"/><path class="cls-17" d="M536.9,90.44a.88.88,0,0,1,.91-.92.73.73,0,0,1,.76.67,1.88,1.88,0,0,1,1.7-.64A2.22,2.22,0,0,1,542.53,92l-.14,3.3a.87.87,0,1,1-1.73-.07l.13-3a1.12,1.12,0,1,0-2.23-.09l-.13,3a.87.87,0,1,1-1.72-.08Z"/><path class="cls-17" d="M546.78,90.86a.87.87,0,0,1,.91-.92.83.83,0,0,1,.83.75,1.93,1.93,0,0,1,1.67-.72c1.86.08,2.71,1.86,2.64,3.54a3.06,3.06,0,0,1-3,3.12,2.44,2.44,0,0,1-1.56-.67l-.08,2.11a.87.87,0,1,1-1.73-.07ZM549.69,95c.9,0,1.38-.88,1.42-1.68s-.37-1.78-1.27-1.82-1.39.81-1.43,1.65S548.74,95,549.69,95Z"/><path class="cls-17" d="M559.37,95.83c0,.45,0,1.13-.87,1.1-.51,0-.7-.31-.8-.77a2,2,0,0,1-1.67.73,3,3,0,0,1-2.72-3.44,3.1,3.1,0,0,1,3-3.22,2,2,0,0,1,1.61.86.8.8,0,0,1,.85-.68c.83,0,.8.71.78,1.16Zm-3-.51c.9,0,1.37-.85,1.41-1.68s-.35-1.78-1.26-1.82-1.41.88-1.44,1.71A1.54,1.54,0,0,0,556.33,95.32Z"/><path class="cls-17" d="M560.53,91.35a.84.84,0,0,1,.92-.83c.45,0,.83.2.81.75h0a1.34,1.34,0,0,1,1.24-.67.83.83,0,0,1,.8,1c0,.57-.54.58-1.07.8s-1.06.42-1.09,1.11l-.11,2.64a.87.87,0,1,1-1.72-.07Z"/><path class="cls-17" d="M570.25,96.29c0,.45,0,1.13-.88,1.09-.5,0-.69-.3-.79-.76a2.07,2.07,0,0,1-1.68.73c-1.62-.07-2.79-1.5-2.71-3.44a3.09,3.09,0,0,1,3-3.22,2,2,0,0,1,1.61.86.81.81,0,0,1,.86-.68c.82,0,.79.71.78,1.16Zm-3-.51c.9,0,1.37-.85,1.4-1.68s-.35-1.78-1.26-1.82-1.4.88-1.44,1.7S566.27,95.74,567.21,95.78Z"/><path class="cls-17" d="M507.23,102a1.48,1.48,0,0,0,1.57,1.31c.89,0,1.53-.63,2-.61a.76.76,0,0,1,.67.77c0,.75-1.59,1.4-2.87,1.35a3.14,3.14,0,0,1-3.1-3.46,3.1,3.1,0,1,1,6.2.06c0,.51-.26.76-.78.73Zm2.75-1a1.36,1.36,0,0,0-1.32-1.37,1.39,1.39,0,0,0-1.42,1.26Z"/><path class="cls-17" d="M512,99.71a1.14,1.14,0,0,1-.09-.51.83.83,0,0,1,.93-.8.79.79,0,0,1,.74.65l1,3.45h0l1.24-3.36a.8.8,0,0,1,.8-.58.84.84,0,0,1,.86.88,1.37,1.37,0,0,1-.13.5l-1.93,4.38c-.18.44-.37.71-1,.68s-.76-.31-.9-.76Z"/><path class="cls-17" d="M519.21,102.52a1.49,1.49,0,0,0,1.57,1.31c.89,0,1.53-.63,2-.61a.75.75,0,0,1,.68.77c0,.74-1.6,1.4-2.88,1.34a3.14,3.14,0,0,1-3.09-3.45,3.1,3.1,0,1,1,6.2.06.66.66,0,0,1-.79.73Zm2.75-1a1.37,1.37,0,0,0-1.32-1.38,1.39,1.39,0,0,0-1.42,1.26Z"/><path class="cls-17" d="M524.38,99.85a.87.87,0,0,1,.9-.92.73.73,0,0,1,.76.67,1.9,1.9,0,0,1,1.7-.64,2.22,2.22,0,0,1,2.26,2.43l-.14,3.3a.86.86,0,0,1-.9.92.87.87,0,0,1-.83-1l.13-3a1.06,1.06,0,0,0-1.07-1.23,1.09,1.09,0,0,0-1.16,1.14l-.12,3a.87.87,0,1,1-1.73-.08Z"/><path class="cls-17" d="M531.43,100.77h-.38a.7.7,0,0,1-.72-.79.73.73,0,0,1,.78-.72h.39l0-1a.87.87,0,1,1,1.73.08l0,1,.49,0c.45,0,.82.24.8.79a.73.73,0,0,1-.86.72l-.49,0-.17,4a.87.87,0,1,1-1.72-.08Z"/><path class="cls-17" d="M540.42,102.85a3.1,3.1,0,1,1-6.18-.26,3.1,3.1,0,1,1,6.18.26Zm-4.46-.19c0,.82.36,1.75,1.3,1.79s1.4-.85,1.44-1.68-.35-1.78-1.29-1.82S536,101.83,536,102.66Z"/><path class="cls-17" d="M544.84,101.7c-.32,0-1-.55-1.52-.57-.31,0-.59.12-.61.46,0,.8,3,.81,2.89,2.77a2.18,2.18,0,0,1-2.55,1.92c-1,0-2.38-.65-2.35-1.43a.83.83,0,0,1,.78-.74c.67,0,.94.63,1.76.67.53,0,.69-.14.7-.47,0-.78-3-.79-2.88-2.77a2.09,2.09,0,0,1,2.42-1.91c.85,0,2.14.48,2.1,1.33A.74.74,0,0,1,544.84,101.7Z"/><path class="cls-17" d="M553.83,102c-.43,0-.8-.37-1.35-.39-1,0-1.49.81-1.53,1.7a1.59,1.59,0,0,0,1.38,1.8,8.34,8.34,0,0,0,1.3-.31.77.77,0,0,1,.71.79c0,.89-1.54,1.12-2.16,1.1a3.14,3.14,0,0,1-2.95-3.45,3.2,3.2,0,0,1,3.23-3.21c.68,0,2.1.34,2.06,1.18C554.51,101.54,554.24,102,553.83,102Z"/><path class="cls-17" d="M555.11,101.05a.84.84,0,0,1,.92-.82c.46,0,.83.2.81.75h0a1.36,1.36,0,0,1,1.24-.66.83.83,0,0,1,.8,1c0,.57-.54.58-1.06.8s-1.07.42-1.09,1.11l-.12,2.64a.87.87,0,1,1-1.72-.07Z"/><path class="cls-17" d="M560.48,97.71a1.6,1.6,0,0,1,.46-.1.77.77,0,0,1,.62.77.69.69,0,0,1-.52.69l-1.37.47c-.35.11-.24.11-.48.1s-.62-.48-.6-.9a.57.57,0,0,1,.36-.46l.1,0Zm-1.39,3.61a.87.87,0,1,1,1.73.07l-.19,4.6a.87.87,0,1,1-1.73-.07Z"/><path class="cls-17" d="M562.17,102.07h-.38a.7.7,0,0,1-.72-.79.73.73,0,0,1,.78-.72h.39l0-1a.87.87,0,1,1,1.73.08l0,1,.5,0c.44,0,.81.23.79.79a.74.74,0,0,1-.86.72l-.49,0-.17,4a.87.87,0,1,1-1.72-.07Z"/><path class="cls-17" d="M565.31,101.58a.87.87,0,1,1,1.72.07l-.19,4.6a.87.87,0,1,1-1.73-.07Zm1.94-2.52a1,1,0,0,1-1,1,1,1,0,0,1-.93-1,1,1,0,0,1,1.94.09Z"/><path class="cls-17" d="M572.24,102.76c-.43,0-.8-.37-1.35-.39-1,0-1.49.81-1.52,1.7a1.59,1.59,0,0,0,1.37,1.8,10.52,10.52,0,0,0,1.3-.31.76.76,0,0,1,.71.79c0,.88-1.53,1.12-2.16,1.1a3.15,3.15,0,0,1-3-3.45,3.23,3.23,0,0,1,3.23-3.22c.69,0,2.1.34,2.07,1.18C572.92,102.32,572.65,102.78,572.24,102.76Z"/><path class="cls-17" d="M579.38,104.49a3.11,3.11,0,1,1-6.19-.26,3.11,3.11,0,1,1,6.19.26Zm-4.46-.19c0,.83.36,1.76,1.29,1.8s1.4-.85,1.44-1.68-.35-1.78-1.29-1.82S575,103.48,574.92,104.3Z"/><path class="cls-17" d="M583.8,103.35c-.33,0-1-.55-1.53-.57-.31,0-.59.12-.6.45,0,.8,3,.81,2.88,2.78a2.18,2.18,0,0,1-2.54,1.92c-1,0-2.39-.66-2.35-1.43a.81.81,0,0,1,.77-.74c.67,0,1,.63,1.76.66.53,0,.69-.14.7-.46,0-.79-3-.8-2.88-2.77a2.1,2.1,0,0,1,2.42-1.92c.85,0,2.14.49,2.11,1.34A.77.77,0,0,1,583.8,103.35Z"/><polygon class="cls-12" points="800.69 13.36 805.53 127.96 805.53 127.96 805.53 127.96 786.85 147.24 673.25 152.03 667.63 18.98 800.69 13.36"/><polygon class="cls-13" points="665.32 16.7 798.37 11.08 803.21 125.69 784.54 144.96 670.93 149.76 665.32 16.7"/><polygon class="cls-14" points="784.54 144.96 803.21 125.69 783.76 126.51 784.54 144.96"/><path class="cls-15" d="M716.53,6.26l66.14-3.32c.19,1,.51,2.08.57,2.62a73.27,73.27,0,0,1,.48,11.08L716.57,20c0-3.07,0-6.14-.07-9.2C716.47,9.44,716.63,7.77,716.53,6.26Z"/><rect class="cls-5" x="689.92" y="49.99" width="88.33" height="33.92" rx="7.12" transform="translate(-2.17 31.03) rotate(-2.42)"/><path class="cls-16" d="M695.91,64.26A1.07,1.07,0,0,1,697,63.05l2.66-.12a3.57,3.57,0,0,1,4,3.42,3.51,3.51,0,0,1-3.59,3.71l-1.67.07.11,2.46a1.13,1.13,0,1,1-2.25.1Zm2.42,3.9,1.53-.07a1.59,1.59,0,0,0-.14-3.18L698.2,65Z"/><path class="cls-16" d="M704.25,63.91a1,1,0,0,1,1.1-1.21l2.64-.12c2.31-.09,3.77.88,3.87,3.23a2.9,2.9,0,0,1-2.65,3l2.66,2.62a1,1,0,0,1,.33.65,1.16,1.16,0,0,1-1.07,1.2,1.18,1.18,0,0,1-.89-.35L706.74,69h0l.14,3.25a1.13,1.13,0,1,1-2.25.09Zm2.39,3.46,1.55-.07a1.33,1.33,0,1,0-.11-2.65l-1.55.07Z"/><path class="cls-16" d="M712.58,63.7a1.15,1.15,0,0,1,1.12-1.36l3.72-.15a1,1,0,0,1,1.1,1,1,1,0,0,1-1,1.07l-2.64.11.1,2.19,2.45-.1a1,1,0,0,1,1.14,1,1,1,0,0,1-1,1.08l-2.46.1.1,2.28,2.77-.12a1,1,0,0,1,1.11,1,1,1,0,0,1-1,1.08l-3.87.16a1.09,1.09,0,0,1-1.2-1.07Z"/><path class="cls-16" d="M719.52,63.25a1.1,1.1,0,0,1,1.1-1.2l2.49-.1c3.36-.15,5.37,1.93,5.51,5.26a4.85,4.85,0,0,1-4.91,5.4l-2.61.11a1.1,1.1,0,0,1-1.23-1.07Zm2.56,7.36,1.51-.07c1.94-.08,2.76-1.54,2.68-3.34s-1-3.27-3.1-3.19l-1.37.06Z"/><path class="cls-16" d="M729.51,62.76a1.13,1.13,0,1,1,2.25-.1l.36,8.51a1.13,1.13,0,1,1-2.25.1Z"/><path class="cls-16" d="M737.79,61.15c1.09,0,3.24.22,3.29,1.54a1,1,0,0,1-.89,1c-.61,0-1.05-.48-2.31-.43-1.86.08-2.75,1.7-2.67,3.52s1.11,3.28,2.95,3.2c1.26-.06,1.74-.71,2.36-.73a1,1,0,0,1,1,1c.06,1.44-2.19,1.87-3.3,1.92a5.2,5.2,0,0,1-5.38-5.3C732.73,63.76,734.73,61.28,737.79,61.15Z"/><path class="cls-16" d="M744.1,63.13l-1.63.07a1,1,0,0,1-1.06-1,1,1,0,0,1,1-1.08l5.52-.23a1,1,0,0,1,1.06,1A1,1,0,0,1,748,63l-1.63.06.32,7.53a1.13,1.13,0,1,1-2.25.09Z"/><path class="cls-16" d="M749.46,61.91a1.12,1.12,0,1,1,2.24-.09l.36,8.51a1.12,1.12,0,1,1-2.24.1Z"/><path class="cls-16" d="M752.44,62.25a1.3,1.3,0,0,1-.12-.55,1.12,1.12,0,0,1,2.15-.43l2.59,6.13,2.06-6.33a1.12,1.12,0,0,1,2.19.25,1.35,1.35,0,0,1-.09.56l-2.92,8.49c-.18.49-.42.89-1.08.91a1.11,1.11,0,0,1-1.14-.82Z"/><path class="cls-16" d="M761.69,65.66c-.14-3.12,1.86-5.6,4.92-5.73a5.25,5.25,0,0,1,5.39,5.3c.13,3.1-1.85,5.6-4.93,5.73A5.19,5.19,0,0,1,761.69,65.66Zm8-.34c-.08-1.81-1.09-3.4-3-3.32S764,63.75,764,65.56s1.06,3.41,3,3.33S769.74,67.15,769.66,65.32Z"/><path class="cls-17" d="M683.24,93.83a.86.86,0,0,1,.9-1l2.12-.09a2.86,2.86,0,1,1,.31,5.7l-1.33.06.09,2a.86.86,0,0,1-.86,1,.85.85,0,0,1-.94-.89ZM685.18,97l1.22-.06a1.27,1.27,0,0,0-.11-2.54l-1.22.05Z"/><path class="cls-17" d="M689.81,92.88a.87.87,0,1,1,1.73-.07l.31,7.38a.87.87,0,1,1-1.73.08Z"/><path class="cls-17" d="M698.7,99.74c0,.44,0,1.12-.78,1.16-.51,0-.72-.25-.86-.7a2.06,2.06,0,0,1-1.61.87c-1.62.07-2.91-1.26-3-3.2a3.1,3.1,0,0,1,2.71-3.46,2,2,0,0,1,1.67.72.83.83,0,0,1,.8-.75c.83,0,.86.65.88,1.09Zm-3.08-.26c.9,0,1.3-1,1.26-1.79s-.49-1.75-1.4-1.71-1.33,1-1.3,1.82S694.69,99.52,695.62,99.48Z"/><path class="cls-17" d="M699.5,95.26a.86.86,0,0,1,.82-1,.73.73,0,0,1,.82.6,1.85,1.85,0,0,1,1.63-.78,2.21,2.21,0,0,1,2.46,2.22l.14,3.31a.87.87,0,1,1-1.73.07l-.12-3a1.12,1.12,0,1,0-2.23.09l.13,3a.87.87,0,1,1-1.73.07Z"/><path class="cls-17" d="M715.46,99.2a.87.87,0,0,1-.82,1,.82.82,0,0,1-.89-.68,1.86,1.86,0,0,1-1.55.85,3,3,0,0,1-3-3.12c-.07-1.68.78-3.46,2.64-3.54a2.58,2.58,0,0,1,1.67.53l-.1-2.34a.87.87,0,1,1,1.72-.08Zm-3.25-3.93c-.9,0-1.3,1-1.26,1.82s.51,1.72,1.41,1.68,1.31-1,1.28-1.85S713.14,95.24,712.21,95.27Z"/><path class="cls-17" d="M717.77,97.37a1.5,1.5,0,0,0,1.68,1.18c.89,0,1.47-.76,1.92-.78a.75.75,0,0,1,.74.71c0,.75-1.47,1.53-2.75,1.58A3.15,3.15,0,0,1,716,96.88a3.11,3.11,0,1,1,6.19-.47c0,.52-.2.78-.72.8Zm2.66-1.27A1.37,1.37,0,0,0,719,94.84a1.41,1.41,0,0,0-1.31,1.38Z"/><path class="cls-17" d="M730.23,94.85c-.43,0-.82-.3-1.38-.28a1.56,1.56,0,0,0-1.37,1.82A1.59,1.59,0,0,0,729,98.07a9.57,9.57,0,0,0,1.27-.41.74.74,0,0,1,.77.72c0,.89-1.43,1.25-2.06,1.28a3.15,3.15,0,0,1-3.23-3.19,3.22,3.22,0,0,1,3-3.48c.69,0,2.12.17,2.16,1C730.87,94.35,730.64,94.83,730.23,94.85Z"/><path class="cls-17" d="M737.49,96a3.11,3.11,0,1,1-6.19.26,3.11,3.11,0,1,1,6.19-.26Zm-4.46.19c0,.83.51,1.72,1.44,1.68s1.33-1,1.29-1.8-.49-1.74-1.44-1.7S733,95.33,733,96.16Z"/><path class="cls-17" d="M738.12,93.63a.88.88,0,0,1,.83-1,.72.72,0,0,1,.81.61,1.86,1.86,0,0,1,1.64-.78,2.21,2.21,0,0,1,2.46,2.22L744,98a.87.87,0,1,1-1.73.07l-.12-3a1.12,1.12,0,1,0-2.23.09l.12,3a.87.87,0,1,1-1.72.07Z"/><path class="cls-17" d="M745.24,94l-.39,0a.7.7,0,0,1-.78-.73.73.73,0,0,1,.72-.78l.38,0,0-1a.87.87,0,1,1,1.72-.07l0,1,.49,0a.73.73,0,0,1,.86.72c0,.54-.35.77-.8.79l-.49,0,.17,4a.87.87,0,1,1-1.73.07Z"/><path class="cls-17" d="M750,90.52a1,1,0,0,1-.93,1,1,1,0,0,1-.08-2A1,1,0,0,1,750,90.52Zm-1.73,2.68a.87.87,0,1,1,1.73-.08l.19,4.61a.86.86,0,0,1-.82,1,.87.87,0,0,1-.9-.92Z"/><path class="cls-17" d="M751,93.08a.87.87,0,0,1,.82-1,.73.73,0,0,1,.82.6,1.89,1.89,0,0,1,1.64-.78,2.23,2.23,0,0,1,2.46,2.23l.13,3.31a.86.86,0,0,1-.82,1,.87.87,0,0,1-.9-.92l-.13-3a1.12,1.12,0,1,0-2.23.1l.13,3a.87.87,0,1,1-1.73.08Z"/><path class="cls-17" d="M757.67,92.8a.87.87,0,1,1,1.72-.07l.13,3.08a1.12,1.12,0,1,0,2.23-.09l-.13-3.08a.87.87,0,1,1,1.73-.08l.13,3.12c.06,1.53-.91,2.56-2.74,2.64s-2.88-.87-2.94-2.4Z"/><path class="cls-17" d="M766,89.84a1,1,0,0,1-.93,1,1,1,0,0,1-1-.95,1,1,0,0,1,.93-1A1,1,0,0,1,766,89.84Zm-1.72,2.68a.87.87,0,1,1,1.72-.07l.2,4.6a.87.87,0,1,1-1.73.07Z"/><path class="cls-17" d="M773.08,96.76a.87.87,0,0,1-.82,1,.83.83,0,0,1-.89-.69,1.87,1.87,0,0,1-1.55.86,3.06,3.06,0,0,1-3-3.13c-.07-1.67.78-3.45,2.64-3.53a2.58,2.58,0,0,1,1.67.53l-.1-2.35a.87.87,0,1,1,1.72-.07Zm-3.25-3.92c-.9,0-1.3,1-1.26,1.82s.51,1.72,1.41,1.68,1.31-1,1.28-1.85S770.76,92.8,769.83,92.84Z"/><path class="cls-17" d="M780,96.3c0,.45,0,1.13-.78,1.16-.5,0-.72-.24-.86-.69a2.09,2.09,0,0,1-1.61.87,3,3,0,0,1-3-3.2A3.1,3.1,0,0,1,776.43,91a2,2,0,0,1,1.68.72.81.81,0,0,1,.79-.75c.83,0,.86.64.88,1.09Zm-3.07-.25c.9,0,1.29-1,1.25-1.8s-.49-1.74-1.4-1.7-1.33,1-1.29,1.82S776,96.09,776.89,96.05Z"/><path class="cls-17" d="M786.85,96.18a.88.88,0,0,1-.83,1,.84.84,0,0,1-.89-.69,1.87,1.87,0,0,1-1.55.86,3.06,3.06,0,0,1-3-3.13c-.07-1.67.78-3.45,2.63-3.53a2.51,2.51,0,0,1,1.67.53l-.1-2.35a.87.87,0,1,1,1.73-.07Zm-3.25-3.92c-.9,0-1.31,1-1.27,1.82s.52,1.72,1.41,1.68,1.32-1,1.28-1.86S784.52,92.22,783.6,92.26Z"/><path class="cls-17" d="M711.61,109.3a.87.87,0,0,1-.82,1,.83.83,0,0,1-.9-.68,1.9,1.9,0,0,1-1.55.86,3.06,3.06,0,0,1-3-3.13c-.07-1.68.78-3.46,2.63-3.53a2.5,2.5,0,0,1,1.67.52l-.1-2.34a.87.87,0,1,1,1.73-.08Zm-3.25-3.93c-.9,0-1.3,1-1.27,1.82s.52,1.72,1.42,1.68,1.31-1,1.27-1.85S709.28,105.34,708.36,105.37Z"/><path class="cls-17" d="M713.91,107.47a1.5,1.5,0,0,0,1.68,1.18c.89,0,1.47-.76,1.93-.78a.77.77,0,0,1,.74.71c0,.74-1.48,1.53-2.76,1.58a3.14,3.14,0,0,1-3.37-3.18,3.1,3.1,0,1,1,6.18-.46.65.65,0,0,1-.72.79Zm2.66-1.27a1.37,1.37,0,0,0-1.43-1.26,1.4,1.4,0,0,0-1.31,1.38Z"/><path class="cls-17" d="M718.7,101.6a.87.87,0,1,1,1.72-.07l.31,7.38A.87.87,0,1,1,719,109Z"/><path class="cls-17" d="M724.71,104.13a.87.87,0,0,1,.83-1,.72.72,0,0,1,.81.6A1.89,1.89,0,0,1,728,103a2.21,2.21,0,0,1,2.46,2.23l.14,3.3a.87.87,0,1,1-1.73.08l-.13-3a1.11,1.11,0,1,0-2.22.09l.12,3a.87.87,0,1,1-1.72.07Z"/><path class="cls-17" d="M732.89,106.67a1.5,1.5,0,0,0,1.68,1.18c.89,0,1.47-.76,1.93-.78a.77.77,0,0,1,.74.71c0,.74-1.48,1.53-2.76,1.58a3.14,3.14,0,0,1-3.37-3.18,3.1,3.1,0,1,1,6.18-.47c0,.52-.19.78-.72.8Zm2.66-1.27a1.37,1.37,0,0,0-1.43-1.26,1.39,1.39,0,0,0-1.31,1.38Z"/><path class="cls-17" d="M743.92,108.31c.09,2.08-1.22,3.18-3.18,3.26-.71,0-2.74-.23-2.78-1.18a.84.84,0,0,1,.66-.78c.55,0,1.19.49,2.18.45a1.34,1.34,0,0,0,1.41-1.43l0-.41h0a2,2,0,0,1-1.71.89c-1.81.08-2.72-1.48-2.8-3.2s1-3.4,2.7-3.47a1.88,1.88,0,0,1,1.62.72.82.82,0,0,1,.83-.75.87.87,0,0,1,.9.92Zm-3.26-4.3c-.9,0-1.31,1-1.27,1.8s.52,1.74,1.41,1.7,1.32-.92,1.29-1.76S741.6,104,740.66,104Z"/><path class="cls-17" d="M750.73,105.35a3.11,3.11,0,1,1-6.19.26,3.11,3.11,0,1,1,6.19-.26Zm-4.46.19c0,.83.51,1.72,1.44,1.68s1.33-1,1.29-1.8-.49-1.74-1.44-1.7S746.24,104.71,746.27,105.54Z"/><path class="cls-17" d="M755.69,103.71c-.43,0-.83-.3-1.38-.28a1.78,1.78,0,0,0,.15,3.5,10.09,10.09,0,0,0,1.27-.41.76.76,0,0,1,.77.72c0,.89-1.43,1.25-2.06,1.28a3.15,3.15,0,0,1-3.23-3.19,3.21,3.21,0,0,1,2.95-3.47c.68,0,2.12.16,2.16,1C756.33,103.22,756.1,103.7,755.69,103.71Z"/><path class="cls-17" d="M758.62,100.1a1,1,0,0,1-.93,1,1,1,0,0,1-1-.95,1,1,0,0,1,2-.08Zm-1.73,2.67a.87.87,0,1,1,1.73-.07l.19,4.6a.87.87,0,1,1-1.72.07Z"/><path class="cls-17" d="M765.61,104.72a3.11,3.11,0,1,1-6.19.26,3.11,3.11,0,1,1,6.19-.26Zm-4.46.19c0,.83.5,1.72,1.44,1.68s1.33-1,1.29-1.8-.49-1.74-1.44-1.7S761.11,104.08,761.15,104.91Z"/><polygon class="cls-12" points="958.93 318.46 963.77 203.85 963.77 203.85 963.77 203.85 945.09 184.58 831.49 179.78 825.87 312.84 958.93 318.46"/><polygon class="cls-13" points="823.58 310.48 956.63 316.1 961.47 201.49 942.8 182.22 829.2 177.42 823.58 310.48"/><polygon class="cls-14" points="942.8 182.22 961.47 201.49 942.02 200.67 942.8 182.22"/><path class="cls-15" d="M883.8,172.24l-43.46-2.19c-.14,1-.36,2.1-.42,2.64-.35,3.68-.51,7.38-.5,11.07L883.54,186c.05-3.06.11-6.13.2-9.19C883.78,175.41,883.71,173.75,883.8,172.24Z"/><rect class="cls-4" x="849.32" y="216.32" width="88.33" height="33.92" rx="7.12" transform="translate(10.64 -37.49) rotate(2.42)"/><path class="cls-16" d="M861.91,227.66a1.06,1.06,0,0,1,1.2-1.12l2.64.11c2.31.1,3.69,1.2,3.59,3.55a2.9,2.9,0,0,1-2.89,2.71l2.43,2.84a1,1,0,0,1,.27.67,1.13,1.13,0,0,1-2,.68L864,232.93h0l-.14,3.25a1.13,1.13,0,1,1-2.25-.1Zm2.1,3.65,1.54.06A1.27,1.27,0,0,0,867,230.1a1.26,1.26,0,0,0-1.34-1.38l-1.54-.06Z"/><path class="cls-16" d="M870.24,228.15c0-.75.43-1.29,1.22-1.26l3.72.16a1,1,0,0,1,1,1.08,1,1,0,0,1-1.11,1l-2.64-.11-.09,2.19,2.46.1a1,1,0,0,1,1,1.08,1,1,0,0,1-1.14,1l-2.46-.11-.09,2.28,2.77.12a1,1,0,0,1,1,1.08,1,1,0,0,1-1.11,1l-3.87-.17a1.1,1.1,0,0,1-1.1-1.17Z"/><path class="cls-16" d="M879.66,228.31a1.76,1.76,0,0,1,1.65-1.18,1.7,1.7,0,0,1,1.56,1.31l2.59,8.28a1.53,1.53,0,0,1,.09.56,1,1,0,0,1-1.07.94,1,1,0,0,1-1.06-.82L883,236l-4.17-.18-.51,1.38a1,1,0,0,1-1.11.75,1.08,1.08,0,0,1-1.06-1.1,1.41,1.41,0,0,1,.12-.49Zm-.07,5.44,2.85.12-1.21-4.4h0Z"/><path class="cls-16" d="M891.41,227.56c1.1,0,3.21.49,3.16,1.81a1,1,0,0,1-1,1c-.61,0-1-.57-2.27-.63-1.86-.07-2.88,1.46-3,3.29s.84,3.35,2.68,3.43c1.26,0,1.8-.56,2.41-.53a1,1,0,0,1,.94,1.06c-.06,1.44-2.33,1.67-3.44,1.63a5.2,5.2,0,0,1-4.92-5.74C886.16,229.74,888.36,227.43,891.41,227.56Z"/><path class="cls-16" d="M897.54,230.07l-1.63-.07a1,1,0,0,1-1-1.08,1,1,0,0,1,1.06-1l5.52.23a1,1,0,0,1,1,1.08,1,1,0,0,1-1.06,1l-1.63-.07-.32,7.53a1.13,1.13,0,1,1-2.25-.1Z"/><path class="cls-16" d="M903,229.31a1.12,1.12,0,1,1,2.24.09l-.36,8.51a1.12,1.12,0,1,1-2.24-.09Z"/><path class="cls-16" d="M905.92,229.9a1.52,1.52,0,0,1-.08-.56,1.13,1.13,0,0,1,2.19-.26l2.06,6.34,2.59-6.14a1.12,1.12,0,0,1,2.15.44,1.33,1.33,0,0,1-.12.55l-3.64,8.21a1.11,1.11,0,0,1-1.14.82c-.66,0-.9-.43-1.08-.92Z"/><path class="cls-16" d="M914.85,234.07c.13-3.12,2.33-5.43,5.38-5.3a5.25,5.25,0,0,1,4.93,5.74c-.13,3.1-2.32,5.42-5.39,5.29A5.18,5.18,0,0,1,914.85,234.07Zm8,.34c.07-1.82-.8-3.49-2.67-3.57s-2.89,1.52-3,3.33.77,3.48,2.68,3.56S922.74,236.24,922.82,234.41Z"/><path class="cls-17" d="M862.9,259.28c.76,0,1,.43,1,1.2a3.8,3.8,0,0,1-4.08,3.88,4.42,4.42,0,0,1,.38-8.82c1.8.08,3.25,1,3.22,1.83a.76.76,0,0,1-.78.81c-.81,0-.94-.92-2.51-1s-2.31,1.21-2.37,2.66.61,2.78,2.13,2.85A1.87,1.87,0,0,0,862,260.9l-1.22,0A.81.81,0,0,1,860,260a.8.8,0,0,1,.88-.77Z"/><path class="cls-17" d="M864.68,258.92a.87.87,0,1,1,1.72.08l-.13,3.08a1.12,1.12,0,0,0,2.23.09l.13-3.08a.87.87,0,1,1,1.73.07l-.14,3.12c-.06,1.53-1.12,2.47-2.94,2.4s-2.8-1.11-2.74-2.64Z"/><path class="cls-17" d="M871.32,259.2a.87.87,0,1,1,1.72.08l-.19,4.6a.87.87,0,0,1-.9.92.86.86,0,0,1-.82-1Zm1.94-2.52a1,1,0,0,1-1,.95,1,1,0,1,1,1-.95Z"/><path class="cls-17" d="M879.71,264c0,.44,0,1.13-.87,1.09-.51,0-.7-.3-.8-.76a2.06,2.06,0,0,1-1.67.73,3,3,0,0,1-2.72-3.44,3.1,3.1,0,0,1,3-3.22,2,2,0,0,1,1.61.86.82.82,0,0,1,.85-.69c.83,0,.8.72.78,1.17Zm-3-.51c.9,0,1.37-.86,1.41-1.68s-.35-1.78-1.26-1.82-1.4.88-1.44,1.7S875.74,263.45,876.67,263.49Z"/><path class="cls-17" d="M884.48,260.74c-.33,0-1-.54-1.53-.56-.31,0-.59.11-.61.45,0,.8,3,.81,2.89,2.78a2.18,2.18,0,0,1-2.54,1.92c-1-.05-2.39-.66-2.36-1.44a.82.82,0,0,1,.78-.73c.67,0,.94.63,1.76.66.53,0,.69-.14.7-.46,0-.79-3-.8-2.88-2.78a2.09,2.09,0,0,1,2.42-1.91c.85,0,2.14.49,2.1,1.34A.73.73,0,0,1,884.48,260.74Z"/><path class="cls-17" d="M889.6,260.6l-.38,0a.69.69,0,0,1-.73-.78.75.75,0,0,1,.79-.73l.38,0,.05-1a.87.87,0,1,1,1.72.07l0,1,.49,0c.44,0,.82.24.79.79a.72.72,0,0,1-.85.72l-.49,0-.17,4a.87.87,0,1,1-1.73-.07Z"/><path class="cls-17" d="M898.46,264.79c0,.45,0,1.13-.87,1.09-.5,0-.7-.3-.8-.76a2,2,0,0,1-1.67.73,3,3,0,0,1-2.71-3.44,3.09,3.09,0,0,1,3-3.22,2,2,0,0,1,1.61.86.8.8,0,0,1,.85-.68c.83,0,.8.71.78,1.16Zm-3-.51c.9,0,1.37-.85,1.41-1.68s-.35-1.78-1.26-1.82-1.4.88-1.44,1.7S894.49,264.24,895.42,264.28Zm.81-7.69a1.53,1.53,0,0,1,.46-.1.76.76,0,0,1,.61.78.68.68,0,0,1-.52.68l-1.36.47c-.35.11-.25.11-.49.1s-.61-.48-.59-.9a.57.57,0,0,1,.35-.47l.1,0Z"/><path class="cls-17" d="M903.89,261.47c-.43,0-.8-.37-1.35-.4-1,0-1.49.82-1.53,1.71a1.59,1.59,0,0,0,1.38,1.79,9.89,9.89,0,0,0,1.3-.3.76.76,0,0,1,.71.79c0,.88-1.54,1.12-2.16,1.09a3.14,3.14,0,0,1-3-3.45,3.2,3.2,0,0,1,3.23-3.21c.68,0,2.1.34,2.06,1.18C904.57,261,904.3,261.49,903.89,261.47Z"/><path class="cls-17" d="M905.58,261.28l-.38,0a.7.7,0,0,1-.73-.79.74.74,0,0,1,.79-.72l.38,0,.05-1a.87.87,0,1,1,1.72.07l0,1,.49,0c.44,0,.82.24.8.79a.73.73,0,0,1-.86.72l-.49,0-.17,4a.87.87,0,1,1-1.73-.08Z"/><path class="cls-17" d="M908.71,260.78a.87.87,0,1,1,1.73.08l-.2,4.6a.87.87,0,1,1-1.72-.07Zm1.95-2.52a1,1,0,0,1-1,.95,1,1,0,1,1,.08-1.94A1,1,0,0,1,910.66,258.26Z"/><path class="cls-17" d="M915.65,262c-.43,0-.8-.37-1.35-.39-1,0-1.49.82-1.53,1.7a1.6,1.6,0,0,0,1.38,1.8,9.89,9.89,0,0,0,1.3-.3.74.74,0,0,1,.71.78c0,.89-1.54,1.13-2.16,1.1a3.14,3.14,0,0,1-3-3.45,3.2,3.2,0,0,1,3.23-3.21c.68,0,2.1.34,2.06,1.18C916.33,261.53,916.06,262,915.65,262Z"/><path class="cls-17" d="M922.66,265.81c0,.45,0,1.13-.88,1.1-.5,0-.69-.31-.79-.77a2.07,2.07,0,0,1-1.68.73c-1.62-.07-2.79-1.5-2.71-3.44a3.09,3.09,0,0,1,3-3.22,2,2,0,0,1,1.61.86.82.82,0,0,1,.86-.68c.82,0,.8.72.78,1.16Zm-3-.51c.9,0,1.37-.85,1.4-1.68s-.34-1.78-1.26-1.82-1.4.88-1.43,1.71S918.68,265.26,919.62,265.3Z"/><path class="cls-17" d="M927.42,262.56c-.32,0-1-.55-1.52-.57-.32,0-.6.12-.61.45,0,.81,3,.81,2.88,2.78a2.17,2.17,0,0,1-2.54,1.92c-1,0-2.38-.65-2.35-1.43a.81.81,0,0,1,.77-.74c.67,0,1,.63,1.76.67.53,0,.69-.14.71-.47,0-.79-3-.79-2.89-2.77a2.11,2.11,0,0,1,2.42-1.92c.86,0,2.15.49,2.11,1.34A.75.75,0,0,1,927.42,262.56Z"/><path class="cls-17" d="M861.25,271a3.1,3.1,0,1,1-6.18-.26,3.1,3.1,0,1,1,6.18.26Zm-4.45-.18a1.54,1.54,0,0,0,1.29,1.79c.94,0,1.41-.85,1.44-1.68s-.35-1.78-1.29-1.82S856.83,270,856.8,270.85Z"/><path class="cls-17" d="M862.09,268.75a.87.87,0,0,1,.9-.92.83.83,0,0,1,.83.76,1.93,1.93,0,0,1,1.68-.73c1.86.08,2.71,1.86,2.63,3.54a3,3,0,0,1-3,3.12,2.48,2.48,0,0,1-1.56-.66l-.09,2.11a.87.87,0,1,1-1.72-.08Zm2.91,4.18c.9,0,1.38-.88,1.41-1.68s-.37-1.78-1.27-1.82-1.39.81-1.42,1.65S864.05,272.89,865,272.93Z"/><path class="cls-17" d="M870.24,272a1.49,1.49,0,0,0,1.58,1.31c.88,0,1.52-.63,2-.61a.76.76,0,0,1,.67.77c0,.75-1.59,1.4-2.87,1.35a3.16,3.16,0,0,1-3.1-3.46,3.1,3.1,0,1,1,6.2.06.66.66,0,0,1-.78.73Zm2.76-1a1.36,1.36,0,0,0-1.33-1.37,1.39,1.39,0,0,0-1.42,1.26Z"/><path class="cls-17" d="M875.39,269.22a.84.84,0,0,1,.92-.83c.46,0,.83.21.81.76h0a1.37,1.37,0,0,1,1.24-.67.84.84,0,0,1,.8,1c0,.56-.54.58-1.06.79s-1.06.43-1.09,1.11l-.11,2.65a.88.88,0,0,1-.91.92.87.87,0,0,1-.82-1Z"/><path class="cls-17" d="M885.11,274.17c0,.44-.05,1.12-.88,1.09-.5,0-.69-.31-.79-.77a2.1,2.1,0,0,1-1.68.74c-1.62-.07-2.79-1.5-2.71-3.45a3.1,3.1,0,0,1,3-3.22,2,2,0,0,1,1.61.86.83.83,0,0,1,.86-.68c.83,0,.8.72.78,1.16Zm-3-.52c.9,0,1.37-.85,1.4-1.68s-.34-1.78-1.25-1.82-1.41.88-1.44,1.71S881.13,273.61,882.07,273.65Z"/><path class="cls-17" d="M890.53,270.84c-.43,0-.8-.37-1.35-.39-1,0-1.48.81-1.52,1.7A1.59,1.59,0,0,0,889,274a9,9,0,0,0,1.3-.31.76.76,0,0,1,.71.79c0,.89-1.53,1.12-2.16,1.1a3.15,3.15,0,0,1-3-3.45,3.23,3.23,0,0,1,3.24-3.22c.68,0,2.09.34,2.06,1.18C891.21,270.4,890.94,270.86,890.53,270.84Z"/><path class="cls-17" d="M891.81,270a.87.87,0,1,1,1.72.07l-.19,4.6a.86.86,0,0,1-.9.92.87.87,0,0,1-.83-1Zm1.94-2.53a1,1,0,0,1-1,1,1,1,0,0,1-.93-1,1,1,0,0,1,1-.9A1,1,0,0,1,893.75,267.48Z"/><path class="cls-17" d="M900.33,272.68a3.11,3.11,0,1,1-6.19-.26,3.11,3.11,0,1,1,6.19.26Zm-4.46-.18c0,.82.36,1.75,1.29,1.79s1.41-.85,1.44-1.68-.34-1.78-1.29-1.82S895.91,271.67,895.87,272.5Z"/><path class="cls-17" d="M901.16,270.4a.87.87,0,0,1,.9-.92.73.73,0,0,1,.77.67,1.88,1.88,0,0,1,1.69-.64,2.22,2.22,0,0,1,2.27,2.43l-.14,3.3a.87.87,0,1,1-1.73-.07l.13-3a1.12,1.12,0,1,0-2.23-.09l-.13,3A.87.87,0,1,1,901,275Z"/><path class="cls-17" d="M913.54,275.37c0,.44,0,1.12-.88,1.09-.5,0-.7-.31-.8-.77a2.07,2.07,0,0,1-1.67.74,3,3,0,0,1-2.71-3.44,3.1,3.1,0,0,1,3-3.23,2,2,0,0,1,1.61.86.82.82,0,0,1,.86-.68c.82,0,.79.72.77,1.16Zm-3-.52c.89,0,1.36-.85,1.4-1.68s-.35-1.78-1.26-1.82-1.4.88-1.44,1.71S909.56,274.81,910.5,274.85Z"/><path class="cls-17" d="M914.8,268.19a.87.87,0,1,1,1.73.08l-.31,7.38a.87.87,0,1,1-1.73-.08Z"/><path class="cls-17" d="M918.64,274a1.49,1.49,0,0,0,1.57,1.32c.89,0,1.53-.64,2-.62a.76.76,0,0,1,.67.78c0,.74-1.59,1.39-2.87,1.34a3.14,3.14,0,0,1-3.1-3.46,3.1,3.1,0,1,1,6.2.06c0,.52-.26.76-.78.74Zm2.75-1a1.36,1.36,0,0,0-1.32-1.38,1.4,1.4,0,0,0-1.42,1.26Z"/><path class="cls-17" d="M927.4,272.49c-.33,0-1-.54-1.53-.56-.31,0-.59.11-.61.45,0,.8,3,.81,2.89,2.78a2.18,2.18,0,0,1-2.54,1.92c-1,0-2.39-.66-2.36-1.44a.82.82,0,0,1,.78-.73c.67,0,1,.63,1.76.66.53,0,.69-.14.7-.46,0-.79-3-.8-2.88-2.78a2.1,2.1,0,0,1,2.42-1.91c.85,0,2.14.49,2.11,1.34A.75.75,0,0,1,927.4,272.49Z"/><polygon class="cls-12" points="799.32 174.37 804.16 288.97 804.16 288.97 804.16 288.97 785.49 308.24 671.88 313.04 666.27 179.98 799.32 174.37"/><polygon class="cls-13" points="663.95 177.71 797.01 172.09 801.85 286.7 783.17 305.97 669.57 310.77 663.95 177.71"/><polygon class="cls-14" points="783.17 305.97 801.85 286.7 782.39 287.52 783.17 305.97"/><path class="cls-15" d="M715.16,167.27,781.31,164c.19,1,.5,2.08.57,2.62a74.6,74.6,0,0,1,.48,11.08L715.2,181c0-3.07,0-6.14-.07-9.2C715.11,170.45,715.27,168.78,715.16,167.27Z"/><rect class="cls-18" x="688.56" y="210.99" width="88.33" height="33.92" rx="7.12" transform="translate(-8.96 31.12) rotate(-2.42)"/><path class="cls-16" d="M694.68,225.27a1.08,1.08,0,0,1,1.12-1.22l2.66-.11a3.58,3.58,0,1,1,.39,7.13l-1.67.07.11,2.46a1.13,1.13,0,1,1-2.25.09Zm2.42,3.89,1.53-.06a1.52,1.52,0,0,0,1.48-1.66,1.5,1.5,0,0,0-1.62-1.52L697,226Z"/><path class="cls-16" d="M703,224.92a1.06,1.06,0,0,1,1.1-1.22l2.64-.11c2.31-.1,3.77.87,3.87,3.23a2.92,2.92,0,0,1-2.65,3l2.66,2.62a1,1,0,0,1,.33.64,1.14,1.14,0,0,1-1.07,1.2,1.18,1.18,0,0,1-.89-.35l-3.5-3.89h0l.14,3.25a1.13,1.13,0,1,1-2.25.1Zm2.39,3.45,1.55-.06a1.29,1.29,0,0,0,1.34-1.4,1.27,1.27,0,0,0-1.45-1.26l-1.55.07Z"/><path class="cls-16" d="M711.11,228.75C711,225.63,713,223.14,716,223a5.24,5.24,0,0,1,5.39,5.29c.13,3.1-1.85,5.61-4.93,5.74A5.2,5.2,0,0,1,711.11,228.75Zm8-.34c-.08-1.81-1.09-3.41-3-3.33s-2.75,1.76-2.68,3.57,1.06,3.41,3,3.33S719.16,230.24,719.08,228.41Z"/><path class="cls-16" d="M724.64,223.9a1.75,1.75,0,0,1,1.55-1.31,1.67,1.67,0,0,1,1.65,1.17l3.29,8a2,2,0,0,1,.14.55,1,1,0,0,1-1,1,1.05,1.05,0,0,1-1.13-.73l-.51-1.39-4.17.18-.39,1.41a1,1,0,0,1-1,.84,1.07,1.07,0,0,1-1.15-1,1.23,1.23,0,0,1,.08-.5Zm.39,5.43,2.85-.12-1.58-4.29h0Z"/><path class="cls-16" d="M736.29,222.16c1.09,0,3.24.22,3.29,1.54a1,1,0,0,1-.88,1.05c-.62,0-1.06-.49-2.32-.43-1.86.08-2.75,1.69-2.67,3.52s1.11,3.27,2.95,3.19c1.26-.05,1.75-.7,2.36-.73a1.05,1.05,0,0,1,1,1c.06,1.44-2.19,1.86-3.3,1.91a5.19,5.19,0,0,1-5.38-5.3C731.24,224.78,733.23,222.29,736.29,222.16Z"/><path class="cls-16" d="M742.6,224.14l-1.63.07a1,1,0,0,1-1.06-1,1,1,0,0,1,1-1.07l5.52-.24a1,1,0,0,1,1.06,1,1,1,0,0,1-1,1.08l-1.64.07.32,7.52a1.13,1.13,0,1,1-2.25.1Z"/><path class="cls-16" d="M748,222.93a1.13,1.13,0,1,1,2.25-.1l.35,8.52a1.12,1.12,0,1,1-2.24.09Z"/><path class="cls-16" d="M750.94,223.27a1.47,1.47,0,0,1-.12-.55,1.12,1.12,0,0,1,2.15-.44l2.59,6.14,2.06-6.34a1.13,1.13,0,0,1,2.19.26,1.52,1.52,0,0,1-.08.56l-2.93,8.48c-.18.49-.42.89-1.08.92a1.12,1.12,0,0,1-1.14-.82Z"/><path class="cls-16" d="M760.19,226.68c-.14-3.12,1.86-5.61,4.92-5.74a5.26,5.26,0,0,1,5.39,5.3c.13,3.1-1.85,5.6-4.93,5.73A5.18,5.18,0,0,1,760.19,226.68Zm8-.34c-.08-1.81-1.09-3.41-3-3.33s-2.75,1.75-2.68,3.57,1.06,3.41,3,3.32S768.24,228.17,768.16,226.34Z"/><path class="cls-17" d="M708.69,253.71a.86.86,0,0,1,.9-1l2.12-.09a2.86,2.86,0,1,1,.31,5.7l-1.33,0,.09,2a.9.9,0,1,1-1.8.07Zm1.94,3.11,1.22-.05a1.27,1.27,0,0,0-.11-2.54l-1.22.05Z"/><path class="cls-17" d="M715.26,252.76a.87.87,0,1,1,1.73-.07l.31,7.38a.87.87,0,1,1-1.73.07Z"/><path class="cls-17" d="M724.15,259.61c0,.44,0,1.13-.78,1.16-.51,0-.72-.24-.86-.69a2.09,2.09,0,0,1-1.61.87c-1.62.07-2.91-1.26-3-3.2a3.09,3.09,0,0,1,2.71-3.46,2,2,0,0,1,1.67.72.83.83,0,0,1,.8-.76c.83,0,.86.65.87,1.1Zm-3.08-.25c.9,0,1.3-1,1.26-1.8s-.49-1.74-1.4-1.7-1.33,1-1.3,1.82S720.14,259.4,721.07,259.36Z"/><path class="cls-17" d="M724.94,255.14a.88.88,0,0,1,.83-1,.73.73,0,0,1,.82.6,1.84,1.84,0,0,1,1.63-.77,2.21,2.21,0,0,1,2.46,2.22l.14,3.31a.87.87,0,1,1-1.73.07l-.12-3a1.12,1.12,0,1,0-2.23.1l.12,3a.87.87,0,1,1-1.72.08Z"/><path class="cls-17" d="M734.82,254.72a.88.88,0,0,1,.83-1,.82.82,0,0,1,.89.69,1.9,1.9,0,0,1,1.61-.86c1.85-.08,2.85,1.62,2.92,3.29a3.05,3.05,0,0,1-2.7,3.37,2.46,2.46,0,0,1-1.61-.53l.09,2.11a.87.87,0,1,1-1.72.07Zm3.25,3.92c.9,0,1.31-1,1.27-1.8s-.51-1.74-1.41-1.7-1.32.92-1.29,1.76S737.13,258.68,738.07,258.64Z"/><path class="cls-17" d="M747.79,258.61c0,.45.05,1.13-.78,1.17-.5,0-.72-.25-.86-.7a2.09,2.09,0,0,1-1.61.87,3,3,0,0,1-3-3.2,3.1,3.1,0,0,1,2.71-3.46,2,2,0,0,1,1.68.72.81.81,0,0,1,.79-.75c.83,0,.86.64.88,1.09Zm-3.07-.25c.9,0,1.29-1,1.25-1.8s-.49-1.74-1.4-1.7-1.33,1-1.29,1.82S743.78,258.4,744.72,258.36Z"/><path class="cls-17" d="M748.56,254a.86.86,0,0,1,.85-.9c.45,0,.84.14.87.69h0a1.35,1.35,0,0,1,1.18-.77.84.84,0,0,1,.88.88c0,.57-.49.62-1,.88s-1,.52-1,1.2l.11,2.65a.87.87,0,1,1-1.72.07Z"/><path class="cls-17" d="M758.66,258.15c0,.45.05,1.13-.78,1.17-.5,0-.72-.25-.86-.7a2.07,2.07,0,0,1-1.6.87c-1.62.07-2.91-1.26-3-3.2a3.09,3.09,0,0,1,2.71-3.46,2,2,0,0,1,1.67.72.81.81,0,0,1,.8-.75c.82,0,.85.65.87,1.09Zm-3.07-.25c.9,0,1.29-1,1.26-1.79s-.5-1.75-1.41-1.71-1.32,1-1.29,1.82S754.66,257.94,755.59,257.9Z"/><path class="cls-17" d="M696.35,269.16a1.5,1.5,0,0,0,1.68,1.18c.89,0,1.47-.76,1.93-.78a.78.78,0,0,1,.74.72c0,.74-1.48,1.52-2.76,1.58a3.15,3.15,0,0,1-3.37-3.19,3.1,3.1,0,1,1,6.18-.46.67.67,0,0,1-.72.8ZM699,267.9a1.36,1.36,0,0,0-1.43-1.26,1.38,1.38,0,0,0-1.31,1.37Z"/><path class="cls-17" d="M700.9,266.47a1.2,1.2,0,0,1-.13-.5.83.83,0,0,1,.86-.87.78.78,0,0,1,.79.58l1.25,3.35h0l.95-3.45a.81.81,0,0,1,.74-.64.84.84,0,0,1,.94.8,1.14,1.14,0,0,1-.09.51l-1.55,4.53c-.15.45-.31.73-.9.76s-.78-.25-1-.68Z"/><path class="cls-17" d="M708.33,268.66a1.48,1.48,0,0,0,1.68,1.17c.89,0,1.47-.75,1.92-.77a.75.75,0,0,1,.74.71c0,.74-1.47,1.53-2.75,1.58a3.15,3.15,0,0,1-3.38-3.18,3.11,3.11,0,1,1,6.19-.47c0,.52-.2.78-.72.8Zm2.66-1.27a1.37,1.37,0,0,0-1.44-1.26,1.4,1.4,0,0,0-1.31,1.38Z"/><path class="cls-17" d="M713.25,265.57a.88.88,0,0,1,.83-1,.72.72,0,0,1,.81.6,1.86,1.86,0,0,1,1.64-.77,2.21,2.21,0,0,1,2.46,2.22l.14,3.31a.87.87,0,1,1-1.73.07l-.12-3a1.12,1.12,0,1,0-2.23.1l.12,3a.87.87,0,1,1-1.72.07Z"/><path class="cls-17" d="M720.37,265.89l-.39,0a.69.69,0,0,1-.78-.73.73.73,0,0,1,.72-.78l.38,0,0-1a.87.87,0,1,1,1.72-.07l0,1,.49,0a.73.73,0,0,1,.86.72c0,.54-.35.77-.8.79l-.49,0,.17,4a.87.87,0,1,1-1.73.07Z"/><path class="cls-17" d="M729.5,267.2a3.11,3.11,0,1,1-6.19.26,3.11,3.11,0,1,1,6.19-.26Zm-4.46.19c0,.82.5,1.72,1.44,1.68s1.33-1,1.29-1.8-.49-1.74-1.44-1.7S725,266.56,725,267.39Z"/><path class="cls-17" d="M733.81,265.68c-.33,0-1-.46-1.57-.44-.31,0-.58.17-.57.51,0,.8,3,.56,3.11,2.52.05,1.15-.88,2.07-2.37,2.13-1,0-2.43-.45-2.46-1.23a.81.81,0,0,1,.71-.8c.67,0,1,.55,1.81.52.52,0,.67-.2.66-.53,0-.79-3-.54-3.11-2.52a2.1,2.1,0,0,1,2.25-2.11c.85,0,2.18.31,2.21,1.16A.74.74,0,0,1,733.81,265.68Z"/><path class="cls-17" d="M742.78,265.21c-.43,0-.83-.3-1.38-.28a1.56,1.56,0,0,0-1.37,1.82,1.59,1.59,0,0,0,1.52,1.68,12.06,12.06,0,0,0,1.27-.41.75.75,0,0,1,.77.72c0,.89-1.43,1.25-2.06,1.28a3.16,3.16,0,0,1-3.23-3.19,3.22,3.22,0,0,1,3-3.48c.68,0,2.12.17,2.16,1C743.42,264.71,743.19,265.19,742.78,265.21Z"/><path class="cls-17" d="M744,264.17a.85.85,0,0,1,.85-.9c.45,0,.84.14.87.69h0a1.35,1.35,0,0,1,1.18-.77.84.84,0,0,1,.88.88c0,.57-.49.62-1,.89s-1,.51-1,1.19l.11,2.65a.87.87,0,1,1-1.72.07Z"/><path class="cls-17" d="M749.05,260.39a1.36,1.36,0,0,1,.45-.13.75.75,0,0,1,.68.71.68.68,0,0,1-.46.73l-1.32.58c-.34.14-.23.13-.47.14s-.66-.43-.67-.85a.57.57,0,0,1,.31-.49l.1-.05ZM748,264.1a.87.87,0,1,1,1.73-.07l.19,4.6a.87.87,0,1,1-1.72.07Z"/><path class="cls-17" d="M751.11,264.59l-.39,0a.69.69,0,0,1-.78-.72.73.73,0,0,1,.72-.79l.38,0,0-1a.87.87,0,1,1,1.72-.07l0,1,.49,0a.73.73,0,0,1,.86.72c0,.54-.35.77-.8.79l-.49,0,.17,4a.87.87,0,1,1-1.73.07Z"/><path class="cls-17" d="M755.91,261.16a1,1,0,0,1-.93,1,1,1,0,0,1-1-1,1,1,0,0,1,1.94-.08Zm-1.72,2.68a.87.87,0,1,1,1.72-.07l.19,4.6a.87.87,0,1,1-1.72.07Z"/><path class="cls-17" d="M761.2,264.43c-.43,0-.83-.3-1.38-.28a1.57,1.57,0,0,0-1.38,1.83,1.59,1.59,0,0,0,1.53,1.67,9.35,9.35,0,0,0,1.26-.41.76.76,0,0,1,.78.72c0,.89-1.44,1.25-2.06,1.28a3.13,3.13,0,0,1-3.23-3.19,3.22,3.22,0,0,1,2.95-3.48c.68,0,2.12.17,2.15,1C761.84,263.94,761.61,264.41,761.2,264.43Z"/><path class="cls-17" d="M768.45,265.55a3.1,3.1,0,1,1-6.18.26,3.1,3.1,0,1,1,6.18-.26Zm-4.46.19c0,.83.51,1.72,1.44,1.68s1.33-1,1.29-1.79-.49-1.75-1.44-1.71S764,264.91,764,265.74Z"/><path class="cls-17" d="M772.76,264c-.32,0-1-.46-1.57-.44-.31,0-.58.17-.56.51,0,.8,3,.55,3.1,2.52,0,1.15-.88,2.06-2.37,2.13-1,0-2.43-.45-2.46-1.23a.81.81,0,0,1,.71-.8c.67,0,1,.55,1.81.51.53,0,.67-.2.66-.52,0-.79-3-.54-3.11-2.52a2.1,2.1,0,0,1,2.25-2.11c.86,0,2.18.3,2.21,1.15A.74.74,0,0,1,772.76,264Z"/><polygon class="cls-12" points="9.01 301.58 4.17 186.97 4.17 186.97 4.17 186.97 22.85 167.7 136.45 162.9 142.07 295.96 9.01 301.58"/><polygon class="cls-13" points="137.9 292.57 4.84 298.19 0 183.59 18.68 164.31 132.28 159.52 137.9 292.57"/><polygon class="cls-14" points="18.68 164.31 0 183.59 19.45 182.76 18.68 164.31"/><path class="cls-15" d="M100.45,155l-57,2.45c-.07,1-.25,2.12-.26,2.67a87,87,0,0,0,.54,11.07l57.86-2.49c-.27-3-.53-6.11-.74-9.16C100.77,158.16,100.49,156.51,100.45,155Z"/><rect class="cls-4" x="23.83" y="198.42" width="88.33" height="33.92" rx="7.12" transform="translate(-9.03 3.06) rotate(-2.42)"/><path class="cls-16" d="M36.06,212.44a1.06,1.06,0,0,1,1.1-1.22l2.64-.11c2.31-.1,3.78.87,3.88,3.23A2.91,2.91,0,0,1,41,217.28l2.67,2.62a1,1,0,0,1,.32.65,1.14,1.14,0,0,1-1.07,1.2,1.18,1.18,0,0,1-.89-.35l-3.49-3.89h0l.13,3.25A1.08,1.08,0,0,1,37.59,222a1.07,1.07,0,0,1-1.17-1.12Zm2.4,3.45,1.54-.06a1.29,1.29,0,0,0,1.34-1.4,1.27,1.27,0,0,0-1.45-1.26l-1.54.07Z"/><path class="cls-16" d="M44.4,212.22a1.15,1.15,0,0,1,1.11-1.36l3.72-.15a1,1,0,0,1,1.11,1,1,1,0,0,1-1,1.08l-2.64.11.09,2.19,2.46-.11a1,1,0,1,1,.08,2.07l-2.45.1.09,2.28,2.78-.12a1,1,0,0,1,1.1,1,1,1,0,0,1-1,1.08l-3.86.17a1.1,1.1,0,0,1-1.2-1.08Z"/><path class="cls-16" d="M53.8,211.58a1.77,1.77,0,0,1,1.55-1.31A1.72,1.72,0,0,1,57,211.45l3.28,8a1.66,1.66,0,0,1,.14.55,1,1,0,0,1-1,1,1.06,1.06,0,0,1-1.13-.74l-.51-1.39-4.16.18-.39,1.41a1,1,0,0,1-1,.84,1.06,1.06,0,0,1-1.15-1,1.27,1.27,0,0,1,.08-.5Zm.39,5.43,2.85-.12-1.58-4.28h0Z"/><path class="cls-16" d="M65.45,209.84c1.09,0,3.24.23,3.29,1.55a1,1,0,0,1-.88,1c-.62,0-1.06-.48-2.32-.43-1.86.08-2.75,1.69-2.67,3.52s1.11,3.27,3,3.19c1.25-.05,1.74-.7,2.35-.73a1.06,1.06,0,0,1,1,1c.06,1.44-2.18,1.87-3.29,1.91a5.19,5.19,0,0,1-5.39-5.29C60.4,212.46,62.39,210,65.45,209.84Z"/><path class="cls-16" d="M71.77,211.83l-1.64.07a1,1,0,0,1-1.06-1,1,1,0,0,1,1-1.08l5.52-.23a1,1,0,0,1,1.06,1,1,1,0,0,1-1,1.07l-1.64.07.32,7.53a1.07,1.07,0,0,1-1.07,1.21,1.08,1.08,0,0,1-1.18-1.12Z"/><path class="cls-16" d="M77.12,210.61a1.13,1.13,0,1,1,2.25-.09l.36,8.51a1.13,1.13,0,1,1-2.25.09Z"/><path class="cls-16" d="M80.11,211a1.31,1.31,0,0,1-.13-.55,1.12,1.12,0,0,1,1.11-1.13,1.14,1.14,0,0,1,1,.69l2.58,6.14,2.06-6.33A1.12,1.12,0,0,1,89,210a1.34,1.34,0,0,1-.08.56L86,219.07a1.15,1.15,0,0,1-2.22.09Z"/><path class="cls-16" d="M89.35,214.36c-.13-3.12,1.86-5.6,4.92-5.73a5.24,5.24,0,0,1,5.39,5.29c.13,3.11-1.85,5.61-4.92,5.74A5.2,5.2,0,0,1,89.35,214.36Zm8-.34c-.08-1.81-1.09-3.41-3-3.33s-2.75,1.76-2.67,3.57,1.06,3.41,3,3.33S97.4,215.85,97.32,214Z"/><path class="cls-17" d="M29.35,241.75a.86.86,0,0,1,.9-1l2.12-.09a2.86,2.86,0,1,1,.31,5.7l-1.33.06.09,2a.86.86,0,0,1-.86,1,.85.85,0,0,1-.94-.89Zm1.94,3.11,1.22-.05a1.27,1.27,0,0,0-.11-2.54l-1.22,0Z"/><path class="cls-17" d="M36,243.49a.85.85,0,0,1,.85-.9c.46,0,.85.13.87.68h0A1.36,1.36,0,0,1,39,242.5a.83.83,0,0,1,.87.89c0,.56-.49.62-1,.88s-1,.51-1,1.19l.12,2.65a.87.87,0,1,1-1.73.07Z"/><path class="cls-17" d="M45.87,245.48a3.11,3.11,0,1,1-6.19.26,3.11,3.11,0,1,1,6.19-.26Zm-4.46.19c0,.83.5,1.72,1.44,1.68a1.54,1.54,0,0,0,1.29-1.79c0-.83-.49-1.75-1.44-1.71S41.37,244.85,41.41,245.67Z"/><path class="cls-17" d="M50.83,243.85c-.43,0-.83-.31-1.38-.28a1.56,1.56,0,0,0-1.37,1.82,1.58,1.58,0,0,0,1.52,1.68,9.88,9.88,0,0,0,1.27-.42.77.77,0,0,1,.77.73c0,.88-1.43,1.24-2.06,1.27a3.14,3.14,0,0,1-3.23-3.19A3.21,3.21,0,0,1,49.3,242c.68,0,2.12.16,2.16,1C51.47,243.35,51.24,243.83,50.83,243.85Z"/><path class="cls-17" d="M53.57,245.72a1.49,1.49,0,0,0,1.68,1.18c.88,0,1.47-.76,1.92-.78a.77.77,0,0,1,.74.72c0,.74-1.47,1.52-2.75,1.58a3.15,3.15,0,0,1-3.38-3.19,3.11,3.11,0,1,1,6.19-.46.67.67,0,0,1-.72.8Zm2.66-1.26a1.37,1.37,0,0,0-1.44-1.26,1.4,1.4,0,0,0-1.31,1.37Z"/><path class="cls-17" d="M64.58,247a.87.87,0,0,1-.82,1,.82.82,0,0,1-.89-.68,1.9,1.9,0,0,1-1.55.86,3.06,3.06,0,0,1-3-3.13c-.07-1.68.78-3.45,2.64-3.53a2.43,2.43,0,0,1,1.66.53l-.09-2.35a.87.87,0,0,1,.82-1,.87.87,0,0,1,.9.93Zm-3.25-3.92c-.9,0-1.3,1-1.27,1.81s.52,1.72,1.42,1.68,1.31-1,1.28-1.85S62.25,243,61.33,243.07Z"/><path class="cls-17" d="M67.07,239.67a1,1,0,0,1-.92,1,1,1,0,0,1-1-.95,1,1,0,0,1,.93-1A1,1,0,0,1,67.07,239.67Zm-1.72,2.67a.87.87,0,1,1,1.73-.07l.19,4.6a.87.87,0,1,1-1.73.08Z"/><path class="cls-17" d="M68,242.23a.87.87,0,0,1,.82-1,.73.73,0,0,1,.82.61,2.17,2.17,0,0,1,1.57-.79,2.22,2.22,0,0,1,1.82.8,2.64,2.64,0,0,1,1.79-1,2.17,2.17,0,0,1,2.46,2.23l.14,3.3a.87.87,0,1,1-1.73.08l-.13-3a1,1,0,1,0-2,.08l.13,3a.87.87,0,1,1-1.73.07l-.13-3a1,1,0,0,0-1-1.15c-.71,0-1,.54-1,1.23l.13,3a.88.88,0,0,1-.83,1,.87.87,0,0,1-.9-.93Z"/><path class="cls-17" d="M80,239.12a1,1,0,0,1-.93,1,1,1,0,0,1-1-1,1,1,0,0,1,1.94-.08Zm-1.72,2.68a.87.87,0,1,1,1.72-.07l.2,4.6a.87.87,0,1,1-1.73.07Z"/><path class="cls-17" d="M82.42,244.5a1.49,1.49,0,0,0,1.69,1.18c.88,0,1.47-.76,1.92-.78a.78.78,0,0,1,.74.72c0,.74-1.47,1.52-2.76,1.58A3.14,3.14,0,0,1,80.64,244a3.11,3.11,0,1,1,6.19-.47c0,.52-.2.78-.73.8Zm2.66-1.26A1.36,1.36,0,0,0,83.65,242a1.38,1.38,0,0,0-1.31,1.38Z"/><path class="cls-17" d="M87.35,241.42a.88.88,0,0,1,.82-1,.73.73,0,0,1,.82.6,1.89,1.89,0,0,1,1.64-.78,2.23,2.23,0,0,1,2.46,2.23l.13,3.31a.87.87,0,1,1-1.72.07l-.13-3a1.07,1.07,0,0,0-1.17-1.14,1.09,1.09,0,0,0-1.06,1.24l.13,3a.87.87,0,1,1-1.73.08Z"/><path class="cls-17" d="M94.46,241.74l-.38,0a.7.7,0,0,1-.79-.73.73.73,0,0,1,.73-.78l.38,0,0-1a.87.87,0,0,1,.82-1,.87.87,0,0,1,.9.93l0,1,.5,0a.71.71,0,0,1,.85.72.73.73,0,0,1-.79.79l-.49,0,.17,4a.87.87,0,1,1-1.73.08Z"/><path class="cls-17" d="M103.59,243.05a3.1,3.1,0,1,1-6.18.26,3.1,3.1,0,1,1,6.18-.26Zm-4.45.18c0,.83.5,1.72,1.44,1.68s1.32-1,1.29-1.79-.49-1.75-1.44-1.71S99.1,242.41,99.14,243.23Z"/><path class="cls-17" d="M107.9,241.53c-.32,0-1-.46-1.56-.44-.32,0-.59.17-.57.51,0,.8,3,.55,3.11,2.52.05,1.15-.89,2.07-2.37,2.13-1,0-2.44-.45-2.47-1.23a.82.82,0,0,1,.71-.8c.67,0,1,.55,1.81.51.53,0,.68-.19.66-.52,0-.79-3-.54-3.1-2.52a2.09,2.09,0,0,1,2.25-2.11c.85,0,2.17.3,2.21,1.15A.76.76,0,0,1,107.9,241.53Z"/><path class="cls-17" d="M48.62,255.3a3.1,3.1,0,1,1-6.18.27,3.1,3.1,0,1,1,6.18-.27Zm-4.45.19c0,.83.5,1.72,1.44,1.68s1.32-1,1.29-1.79-.5-1.75-1.44-1.71S44.13,254.67,44.17,255.49Z"/><path class="cls-17" d="M49.26,253a.87.87,0,0,1,.82-1,.83.83,0,0,1,.9.68,1.92,1.92,0,0,1,1.6-.86c1.86-.08,2.86,1.62,2.93,3.3a3.05,3.05,0,0,1-2.7,3.36,2.4,2.4,0,0,1-1.61-.53l.09,2.11a.87.87,0,1,1-1.73.07Zm3.25,3.92c.9,0,1.3-1,1.27-1.79s-.52-1.75-1.42-1.71-1.31.92-1.28,1.76S51.56,256.92,52.51,256.88Z"/><path class="cls-17" d="M57.65,255.49a1.51,1.51,0,0,0,1.69,1.18c.88,0,1.46-.76,1.92-.78a.77.77,0,0,1,.74.71c0,.74-1.47,1.53-2.76,1.58A3.14,3.14,0,0,1,55.87,255a3.1,3.1,0,1,1,6.18-.47c0,.52-.19.78-.72.8Zm2.66-1.27A1.36,1.36,0,0,0,58.88,253a1.4,1.4,0,0,0-1.31,1.38Z"/><path class="cls-17" d="M62.55,252.3a.86.86,0,0,1,.85-.9c.46,0,.85.14.87.69h0a1.34,1.34,0,0,1,1.18-.77.83.83,0,0,1,.87.88c0,.57-.49.62-1,.89s-1,.51-1,1.19l.12,2.65a.87.87,0,1,1-1.73.07Z"/><path class="cls-17" d="M72.66,256.42c0,.44,0,1.12-.78,1.16-.51,0-.72-.25-.86-.7a2.06,2.06,0,0,1-1.61.87c-1.62.07-2.91-1.26-3-3.2a3.1,3.1,0,0,1,2.71-3.46,2,2,0,0,1,1.67.72.83.83,0,0,1,.8-.75c.83,0,.86.65.88,1.09Zm-3.08-.26c.9,0,1.3-1,1.26-1.79s-.49-1.75-1.4-1.71-1.33,1-1.3,1.82S68.65,256.2,69.58,256.16Z"/><path class="cls-17" d="M73.9,252.54l-.38,0a.7.7,0,0,1-.79-.72.74.74,0,0,1,.72-.79l.39,0,0-1a.87.87,0,1,1,1.73-.08l0,1,.49,0c.45,0,.84.17.86.72s-.35.77-.79.79l-.49,0,.16,4a.87.87,0,1,1-1.72.07Z"/><path class="cls-17" d="M78.7,249.11a1,1,0,0,1-.93,1,1,1,0,0,1-1-1,1,1,0,0,1,.93-1A1,1,0,0,1,78.7,249.11ZM77,251.79a.87.87,0,1,1,1.73-.07l.19,4.6a.87.87,0,1,1-1.73.07Z"/><path class="cls-17" d="M79.29,252.08a1.12,1.12,0,0,1-.13-.5.83.83,0,0,1,.86-.88.78.78,0,0,1,.79.58l1.25,3.36h0l1-3.45a.78.78,0,0,1,.74-.65.84.84,0,0,1,.94.8,1.52,1.52,0,0,1-.09.51l-1.55,4.53c-.15.45-.32.74-.9.76s-.78-.24-1-.68Z"/><path class="cls-17" d="M91.23,253.51a3.1,3.1,0,1,1-6.18.26,3.1,3.1,0,1,1,6.18-.26Zm-4.46.18c0,.83.51,1.72,1.44,1.68s1.33-1,1.3-1.79-.5-1.75-1.44-1.71S86.74,252.87,86.77,253.69Z"/><path class="cls-17" d="M95.54,252c-.32,0-1-.46-1.56-.44-.32,0-.59.17-.57.51,0,.8,3,.55,3.11,2.52,0,1.15-.89,2.06-2.37,2.13-1,0-2.44-.45-2.47-1.23a.82.82,0,0,1,.71-.8c.67,0,1,.55,1.81.51.53,0,.68-.19.66-.52,0-.79-3-.54-3.1-2.52A2.09,2.09,0,0,1,94,250c.85,0,2.17.3,2.21,1.16A.75.75,0,0,1,95.54,252Z"/><rect class="cls-5" x="171.17" y="108.07" width="88.33" height="33.92" rx="7.12"/><path class="cls-16" d="M177.31,120.74a1.08,1.08,0,0,1,1.17-1.17h2.65a3.57,3.57,0,0,1,3.84,3.59,3.52,3.52,0,0,1-3.75,3.55h-1.66v2.46a1.13,1.13,0,1,1-2.25,0Zm2.25,4h1.53a1.59,1.59,0,0,0,0-3.18h-1.53Z"/><path class="cls-16" d="M185.65,120.74a1.06,1.06,0,0,1,1.15-1.17h2.64c2.31,0,3.74,1,3.74,3.39a2.92,2.92,0,0,1-2.78,2.84l2.55,2.73a1,1,0,0,1,.3.66,1.13,1.13,0,0,1-2,.76l-3.33-4h0v3.25a1.13,1.13,0,1,1-2.25,0Zm2.25,3.56h1.54a1.28,1.28,0,0,0,1.4-1.34,1.26,1.26,0,0,0-1.4-1.32H187.9Z"/><path class="cls-16" d="M194,120.88c0-.75.37-1.31,1.17-1.31h3.72a1,1,0,0,1,1.06,1,1,1,0,0,1-1.06,1h-2.64v2.19h2.46a1,1,0,1,1,0,2.07h-2.46v2.28H199a1,1,0,1,1,0,2.07h-3.87a1.09,1.09,0,0,1-1.15-1.12Z"/><path class="cls-16" d="M200.93,120.73a1.11,1.11,0,0,1,1.16-1.16h2.49c3.36,0,5.28,2.16,5.28,5.49a4.85,4.85,0,0,1-5.13,5.19h-2.61a1.1,1.1,0,0,1-1.19-1.12Zm2.25,7.45h1.52c1.93,0,2.82-1.42,2.82-3.22s-.9-3.32-3-3.32h-1.37Z"/><path class="cls-16" d="M210.94,120.65a1.13,1.13,0,1,1,2.25,0v8.52a1.13,1.13,0,1,1-2.25,0Z"/><path class="cls-16" d="M219.28,119.39c1.09,0,3.22.36,3.22,1.68a1,1,0,0,1-.93,1c-.61,0-1-.53-2.29-.53-1.86,0-2.82,1.58-2.82,3.41s1,3.31,2.82,3.31c1.26,0,1.77-.63,2.38-.63a1.06,1.06,0,0,1,1,1c0,1.44-2.26,1.77-3.37,1.77a5.19,5.19,0,0,1-5.16-5.52C214.12,121.79,216.22,119.39,219.28,119.39Z"/><path class="cls-16" d="M225.5,121.64h-1.63a1,1,0,0,1-1-1,1,1,0,0,1,1-1h5.52a1,1,0,0,1,1,1,1,1,0,0,1-1,1h-1.64v7.53a1.13,1.13,0,1,1-2.25,0Z"/><path class="cls-16" d="M230.9,120.65a1.13,1.13,0,1,1,2.25,0v8.52a1.13,1.13,0,1,1-2.25,0Z"/><path class="cls-16" d="M233.87,121.12a1.54,1.54,0,0,1-.1-.56,1.12,1.12,0,0,1,2.17-.34l2.33,6.24,2.32-6.24a1.12,1.12,0,0,1,2.18.34,1.36,1.36,0,0,1-.11.56l-3.28,8.35c-.2.48-.45.87-1.11.87a1.12,1.12,0,0,1-1.11-.87Z"/><path class="cls-16" d="M243,124.91c0-3.12,2.1-5.52,5.16-5.52a5.25,5.25,0,0,1,5.16,5.52c0,3.11-2.08,5.52-5.16,5.52A5.19,5.19,0,0,1,243,124.91Zm8,0c0-1.81-.94-3.45-2.82-3.45s-2.82,1.64-2.82,3.45.92,3.45,2.82,3.45S250.94,126.74,250.94,124.91Z"/><path class="cls-17" d="M178.34,62.91a1.66,1.66,0,0,1,1.8-1.8h4.07c3.38,0,5.88,2.21,5.88,5.5s-2.6,5.45-5.75,5.45h-2.55v3.77a1.73,1.73,0,1,1-3.45,0ZM181.79,69h2.35a2.44,2.44,0,0,0,0-4.87h-2.35Z"/><path class="cls-17" d="M191.13,62.77a1.73,1.73,0,1,1,3.45,0V74.31h4.09A1.57,1.57,0,0,1,200.33,76a1.61,1.61,0,0,1-1.66,1.51h-5.75a1.7,1.7,0,0,1-1.79-1.88Z"/><path class="cls-17" d="M204.72,62.74a2.71,2.71,0,0,1,2.46-1.9,2.6,2.6,0,0,1,2.46,1.9l4.51,12.51a2.6,2.6,0,0,1,.18.85,1.53,1.53,0,0,1-1.58,1.52,1.61,1.61,0,0,1-1.68-1.19l-.69-2.16H204l-.69,2.13a1.6,1.6,0,0,1-1.66,1.22,1.65,1.65,0,0,1-1.7-1.61,1.92,1.92,0,0,1,.16-.76Zm.25,8.35h4.37l-2.13-6.67h-.05Z"/><path class="cls-17" d="M215.28,62.77A1.65,1.65,0,0,1,217,61a2.17,2.17,0,0,1,1.45.76l7.29,9.73h0V62.77a1.73,1.73,0,1,1,3.45,0V75.83a1.65,1.65,0,0,1-1.73,1.79,2.21,2.21,0,0,1-1.45-.76l-7.28-9.61h-.05v8.58a1.73,1.73,0,1,1-3.45,0Z"/><path class="cls-17" d="M237.34,62.88a1.68,1.68,0,0,1,1.77-1.77h3.81c5.15,0,8.1,3.31,8.1,8.42,0,4.83-3.13,8-7.87,8h-4a1.68,1.68,0,0,1-1.81-1.72Zm3.45,11.43h2.32c3,0,4.32-2.18,4.32-4.94,0-3-1.38-5.09-4.55-5.09h-2.09Z"/><path class="cls-17" d="M252.68,63.11c0-1.15.57-2,1.79-2h5.7a1.53,1.53,0,0,1,1.64,1.59,1.56,1.56,0,0,1-1.64,1.58h-4v3.36h3.77a1.56,1.56,0,0,1,1.68,1.59,1.59,1.59,0,0,1-1.68,1.59h-3.77v3.49h4.25A1.53,1.53,0,0,1,262,75.9a1.55,1.55,0,0,1-1.63,1.58h-5.93a1.68,1.68,0,0,1-1.77-1.72Z"/><path class="cls-17" d="M269.49,62.91a1.63,1.63,0,0,1,1.77-1.8h4.05c3.54,0,5.72,1.59,5.72,5.2,0,2.53-1.9,4-4.25,4.34l3.91,4.19a1.51,1.51,0,0,1,.46,1A1.74,1.74,0,0,1,278.09,77L273,70.84h0v5a1.73,1.73,0,1,1-3.45,0Zm3.45,5.45h2.37a2,2,0,0,0,2.14-2,1.94,1.94,0,0,0-2.14-2h-2.37Z"/><path class="cls-17" d="M282.28,63.11c0-1.15.57-2,1.79-2h5.7a1.53,1.53,0,0,1,1.64,1.59,1.55,1.55,0,0,1-1.64,1.58h-4v3.36h3.77a1.56,1.56,0,0,1,1.68,1.59,1.59,1.59,0,0,1-1.68,1.59h-3.77v3.49H290a1.52,1.52,0,0,1,1.63,1.59A1.55,1.55,0,0,1,290,77.48h-5.93a1.68,1.68,0,0,1-1.77-1.72Z"/><path class="cls-17" d="M302.61,63.14a1.6,1.6,0,0,1-1.54,1.7c-.94,0-1.68-.69-3.06-.69-1,0-1.89.53-1.89,1.49,0,2.37,7.68.85,7.68,6.79,0,3.28-2.71,5.33-5.88,5.33-1.77,0-5.59-.41-5.59-2.57a1.54,1.54,0,0,1,1.54-1.64c1.08,0,2.37.9,3.86.9s2.35-.85,2.35-2c0-2.71-7.68-1.08-7.68-6.41,0-3.22,2.64-5.22,5.7-5.22C299.39,60.84,302.61,61.32,302.61,63.14Z"/><path class="cls-17" d="M305.28,62.91a1.65,1.65,0,0,1,1.79-1.8h4.07c3.38,0,5.89,2.21,5.89,5.5s-2.6,5.45-5.75,5.45h-2.55v3.77a1.73,1.73,0,1,1-3.45,0ZM308.73,69h2.34a2.44,2.44,0,0,0,0-4.87h-2.34Z"/><path class="cls-17" d="M317.93,62.77a1.73,1.73,0,1,1,3.45,0v8a3.52,3.52,0,0,0,3.54,3.8,3.62,3.62,0,0,0,3.52-3.8v-8a1.73,1.73,0,1,1,3.45,0V71a7,7,0,0,1-14,0Z"/><path class="cls-17" d="M333.82,63.11c0-1.15.58-2,1.79-2h5.71A1.53,1.53,0,0,1,343,62.7a1.55,1.55,0,0,1-1.63,1.58h-4.05v3.36H341a1.56,1.56,0,0,1,1.68,1.59A1.59,1.59,0,0,1,341,70.82h-3.77v3.49h4.25a1.53,1.53,0,0,1,1.64,1.59,1.56,1.56,0,0,1-1.64,1.58h-5.93a1.68,1.68,0,0,1-1.77-1.72Z"/><path class="cls-17" d="M354.15,63.14a1.6,1.6,0,0,1-1.54,1.7c-.94,0-1.68-.69-3.06-.69-1,0-1.88.53-1.88,1.49,0,2.37,7.68.85,7.68,6.79,0,3.28-2.72,5.33-5.89,5.33-1.77,0-5.59-.41-5.59-2.57a1.54,1.54,0,0,1,1.54-1.64c1.08,0,2.37.9,3.87.9s2.34-.85,2.34-2c0-2.71-7.68-1.08-7.68-6.41,0-3.22,2.65-5.22,5.7-5.22C350.93,60.84,354.15,61.32,354.15,63.14Z"/><path class="cls-17" d="M359.58,64.28h-2.51a1.48,1.48,0,0,1-1.56-1.58,1.54,1.54,0,0,1,1.56-1.59h8.47a1.54,1.54,0,0,1,1.56,1.59,1.48,1.48,0,0,1-1.56,1.58H363V75.83a1.73,1.73,0,1,1-3.45,0Z"/><path class="cls-17" d="M369.54,62.74a2.71,2.71,0,0,1,2.46-1.9,2.6,2.6,0,0,1,2.46,1.9L379,75.25a2.9,2.9,0,0,1,.18.85,1.53,1.53,0,0,1-1.59,1.52,1.62,1.62,0,0,1-1.68-1.19l-.68-2.16h-6.4l-.69,2.13a1.59,1.59,0,0,1-1.65,1.22,1.65,1.65,0,0,1-1.7-1.61,1.92,1.92,0,0,1,.16-.76Zm.25,8.35h4.37L372,64.42h0Z"/><path class="cls-17" d="M182.14,83.74a2.7,2.7,0,0,1,2.46-1.9,2.6,2.6,0,0,1,2.46,1.9l4.5,12.51a2.69,2.69,0,0,1,.19.85,1.53,1.53,0,0,1-1.59,1.52,1.61,1.61,0,0,1-1.68-1.19l-.69-2.16H181.4l-.69,2.13a1.59,1.59,0,0,1-1.66,1.22,1.65,1.65,0,0,1-1.7-1.61,2.12,2.12,0,0,1,.16-.76Zm.25,8.35h4.37l-2.14-6.67h-.05Z"/><path class="cls-17" d="M199,84.11c0-1.15.57-2,1.79-2h5.7a1.52,1.52,0,0,1,1.63,1.59,1.55,1.55,0,0,1-1.63,1.58h-4.05v3.36h3.78a1.55,1.55,0,0,1,1.67,1.59,1.58,1.58,0,0,1-1.67,1.59h-3.78v3.49h4.26a1.53,1.53,0,0,1,1.63,1.59,1.55,1.55,0,0,1-1.63,1.58h-5.93A1.67,1.67,0,0,1,199,96.76Z"/><path class="cls-17" d="M211.32,83.74A2.33,2.33,0,0,1,213.58,82a2.46,2.46,0,0,1,2.3,1.66l2.71,9.11h0l2.72-9.11a2.45,2.45,0,0,1,2.3-1.66,2.31,2.31,0,0,1,2.25,1.77L228,96.58a2.61,2.61,0,0,1,0,.39,1.59,1.59,0,0,1-1.65,1.65c-1.18,0-1.63-.53-1.8-1.61l-1.35-9.36h0l-2.76,9.64a1.94,1.94,0,0,1-3.68,0L214,87.65h0L212.61,97c-.16,1.08-.62,1.61-1.79,1.61A1.59,1.59,0,0,1,209.16,97a2.61,2.61,0,0,1,0-.39Z"/><path class="cls-17" d="M229.65,84.11a1.75,1.75,0,0,1,1.8-2h5.7a1.53,1.53,0,0,1,1.63,1.59,1.55,1.55,0,0,1-1.63,1.58H233.1v3.36h3.78a1.55,1.55,0,0,1,1.67,1.59,1.58,1.58,0,0,1-1.67,1.59H233.1v3.49h4.26A1.53,1.53,0,0,1,239,96.9a1.55,1.55,0,0,1-1.63,1.58h-5.94a1.68,1.68,0,0,1-1.77-1.72Z"/><path class="cls-17" d="M240.3,83.91a1.63,1.63,0,0,1,1.77-1.8h4.05c3.54,0,5.73,1.59,5.73,5.2,0,2.53-1.91,4-4.26,4.34l3.91,4.19a1.51,1.51,0,0,1,.46,1,1.76,1.76,0,0,1-1.72,1.77,1.77,1.77,0,0,1-1.34-.6l-5.1-6.18h-.05v5a1.73,1.73,0,1,1-3.45,0Zm3.45,5.45h2.37a2,2,0,0,0,2.14-2,1.93,1.93,0,0,0-2.14-2h-2.37Z"/><path class="cls-17" d="M265.83,88.78c1.45,0,2,.74,2,2.21,0,4.44-2.89,7.77-7.49,7.77s-7.91-3.7-7.91-8.46,3.22-8.46,7.91-8.46c3.47,0,6.32,1.63,6.32,3.24a1.45,1.45,0,0,1-1.42,1.61c-1.57,0-1.89-1.68-4.9-1.68S256,87.52,256,90.3s1.4,5.29,4.32,5.29c1.81,0,3.91-1,3.91-3.64h-2.35a1.59,1.59,0,1,1,0-3.17Z"/><path class="cls-17" d="M269.28,84.11a1.75,1.75,0,0,1,1.8-2h5.7a1.53,1.53,0,0,1,1.63,1.59,1.55,1.55,0,0,1-1.63,1.58h-4v3.36h3.77a1.56,1.56,0,0,1,1.68,1.59,1.58,1.58,0,0,1-1.68,1.59h-3.77v3.49H277a1.53,1.53,0,0,1,1.63,1.59A1.55,1.55,0,0,1,277,98.48h-5.94a1.68,1.68,0,0,1-1.77-1.72Z"/><path class="cls-17" d="M279.79,83.77a1.66,1.66,0,0,1,1.73-1.8,2.17,2.17,0,0,1,1.45.76l7.29,9.73h0V83.77a1.73,1.73,0,1,1,3.45,0V96.83A1.64,1.64,0,0,1,292,98.62a2.17,2.17,0,0,1-1.45-.76l-7.29-9.61h-.05v8.58a1.73,1.73,0,1,1-3.45,0Z"/><path class="cls-17" d="M303,81.84c1.68,0,4.95.55,4.95,2.57A1.46,1.46,0,0,1,306.47,86c-.94,0-1.59-.8-3.52-.8-2.85,0-4.32,2.41-4.32,5.22s1.5,5.08,4.32,5.08c1.93,0,2.72-1,3.66-1a1.63,1.63,0,0,1,1.52,1.57c0,2.2-3.47,2.71-5.18,2.71-4.66,0-7.91-3.7-7.91-8.46S298.26,81.84,303,81.84Z"/><path class="cls-17" d="M309.74,83.77a1.73,1.73,0,1,1,3.45,0V96.83a1.73,1.73,0,1,1-3.45,0Z"/><path class="cls-17" d="M319.05,83.74a2.71,2.71,0,0,1,2.46-1.9,2.6,2.6,0,0,1,2.46,1.9l4.51,12.51a2.69,2.69,0,0,1,.19.85,1.53,1.53,0,0,1-1.59,1.52,1.61,1.61,0,0,1-1.68-1.19l-.69-2.16h-6.39l-.69,2.13A1.59,1.59,0,0,1,316,98.62a1.65,1.65,0,0,1-1.7-1.61,2.12,2.12,0,0,1,.16-.76Zm.26,8.35h4.37l-2.14-6.67h-.05Z"/><path class="cls-17" d="M339.43,84.14a1.6,1.6,0,0,1-1.54,1.7c-.94,0-1.68-.69-3.06-.69-1,0-1.88.53-1.88,1.49,0,2.37,7.68.85,7.68,6.79,0,3.28-2.72,5.33-5.89,5.33-1.77,0-5.59-.41-5.59-2.57a1.54,1.54,0,0,1,1.54-1.64c1.08,0,2.37.9,3.86.9s2.35-.85,2.35-2c0-2.71-7.68-1.08-7.68-6.41,0-3.22,2.65-5.22,5.7-5.22C336.21,81.84,339.43,82.32,339.43,84.14Z"/><rect class="cls-18" x="267.01" y="108.07" width="88.33" height="33.92" rx="7.12"/><path class="cls-16" d="M273.27,120.74a1.08,1.08,0,0,1,1.17-1.17h2.66a3.57,3.57,0,0,1,3.84,3.59,3.53,3.53,0,0,1-3.75,3.55h-1.67v2.46a1.13,1.13,0,1,1-2.25,0Zm2.25,4h1.53a1.59,1.59,0,0,0,0-3.18h-1.53Z"/><path class="cls-16" d="M281.61,120.74a1.07,1.07,0,0,1,1.16-1.17h2.64c2.31,0,3.73,1,3.73,3.39a2.91,2.91,0,0,1-2.77,2.84l2.55,2.73a1,1,0,0,1,.3.66,1.14,1.14,0,0,1-2,.76l-3.33-4h0v3.25a1.13,1.13,0,1,1-2.25,0Zm2.25,3.56h1.55A1.28,1.28,0,0,0,286.8,123a1.26,1.26,0,0,0-1.39-1.32h-1.55Z"/><path class="cls-16" d="M289.53,124.91c0-3.12,2.1-5.52,5.16-5.52a5.25,5.25,0,0,1,5.16,5.52c0,3.11-2.08,5.52-5.16,5.52A5.19,5.19,0,0,1,289.53,124.91Zm8,0c0-1.81-.94-3.45-2.82-3.45s-2.82,1.64-2.82,3.45.92,3.45,2.82,3.45S297.51,126.74,297.51,124.91Z"/><path class="cls-16" d="M303.26,120.64a1.76,1.76,0,0,1,1.6-1.25,1.71,1.71,0,0,1,1.61,1.25l2.94,8.16a1.75,1.75,0,0,1,.12.55,1,1,0,0,1-1,1,1,1,0,0,1-1.09-.78l-.45-1.41h-4.17l-.45,1.4a1,1,0,0,1-1.08.79,1.08,1.08,0,0,1-1.11-1.05,1.25,1.25,0,0,1,.1-.49Zm.16,5.44h2.85l-1.39-4.35h0Z"/><path class="cls-16" d="M315,119.39c1.1,0,3.23.36,3.23,1.68a1,1,0,0,1-.93,1c-.62,0-1-.53-2.3-.53-1.86,0-2.82,1.58-2.82,3.41s1,3.31,2.82,3.31c1.26,0,1.77-.63,2.39-.63a1.06,1.06,0,0,1,1,1c0,1.44-2.27,1.77-3.38,1.77a5.19,5.19,0,0,1-5.16-5.52C309.81,121.79,311.91,119.39,315,119.39Z"/><path class="cls-16" d="M321.2,121.64h-1.64a1,1,0,0,1-1-1,1,1,0,0,1,1-1h5.52a1,1,0,0,1,1,1,1,1,0,0,1-1,1h-1.63v7.53a1.13,1.13,0,1,1-2.25,0Z"/><path class="cls-16" d="M326.6,120.65a1.13,1.13,0,1,1,2.25,0v8.52a1.13,1.13,0,1,1-2.25,0Z"/><path class="cls-16" d="M329.57,121.12a1.36,1.36,0,0,1-.11-.56,1.12,1.12,0,0,1,2.18-.34l2.32,6.24,2.33-6.24a1.12,1.12,0,0,1,2.17.34,1.54,1.54,0,0,1-.1.56l-3.29,8.35a1.12,1.12,0,0,1-1.11.87c-.66,0-.91-.39-1.11-.87Z"/><path class="cls-16" d="M338.66,124.91c0-3.12,2.1-5.52,5.16-5.52a5.25,5.25,0,0,1,5.16,5.52c0,3.11-2.09,5.52-5.16,5.52A5.19,5.19,0,0,1,338.66,124.91Zm8,0c0-1.81-.95-3.45-2.82-3.45S341,123.1,341,124.91s.91,3.45,2.82,3.45S346.64,126.74,346.64,124.91Z"/><rect class="cls-4" x="362.84" y="108.07" width="88.33" height="33.92" rx="7.12"/><path class="cls-16" d="M375.22,120.74a1.06,1.06,0,0,1,1.15-1.17H379c2.31,0,3.74,1,3.74,3.39A2.92,2.92,0,0,1,380,125.8l2.55,2.73a1,1,0,0,1,.3.66,1.13,1.13,0,0,1-2,.76l-3.33-4h0v3.25a1.13,1.13,0,1,1-2.25,0Zm2.25,3.56H379a1.28,1.28,0,0,0,1.4-1.34,1.26,1.26,0,0,0-1.4-1.32h-1.54Z"/><path class="cls-16" d="M383.56,120.88c0-.75.37-1.31,1.17-1.31h3.72a1,1,0,0,1,1.06,1,1,1,0,0,1-1.06,1h-2.64v2.19h2.46a1,1,0,1,1,0,2.07h-2.46v2.28h2.77a1,1,0,1,1,0,2.07h-3.87a1.09,1.09,0,0,1-1.15-1.12Z"/><path class="cls-16" d="M393,120.64a1.76,1.76,0,0,1,1.6-1.25,1.71,1.71,0,0,1,1.61,1.25l2.94,8.16a1.75,1.75,0,0,1,.12.55,1,1,0,0,1-1,1,1,1,0,0,1-1.09-.78l-.45-1.41H392.5l-.45,1.4a1,1,0,0,1-1.08.79,1.08,1.08,0,0,1-1.11-1.05,1.25,1.25,0,0,1,.1-.49Zm.16,5.44H396l-1.39-4.35h0Z"/><path class="cls-16" d="M404.69,119.39c1.1,0,3.23.36,3.23,1.68a1,1,0,0,1-.93,1c-.62,0-1-.53-2.3-.53-1.86,0-2.82,1.58-2.82,3.41s1,3.31,2.82,3.31c1.26,0,1.77-.63,2.39-.63a1.06,1.06,0,0,1,1,1c0,1.44-2.27,1.77-3.38,1.77a5.19,5.19,0,0,1-5.16-5.52C399.53,121.79,401.63,119.39,404.69,119.39Z"/><path class="cls-16" d="M410.92,121.64h-1.64a1,1,0,0,1-1-1,1,1,0,0,1,1-1h5.52a1,1,0,0,1,1,1,1,1,0,0,1-1,1h-1.63v7.53a1.13,1.13,0,1,1-2.25,0Z"/><path class="cls-16" d="M416.32,120.65a1.13,1.13,0,1,1,2.25,0v8.52a1.13,1.13,0,1,1-2.25,0Z"/><path class="cls-16" d="M419.29,121.12a1.36,1.36,0,0,1-.11-.56,1.12,1.12,0,0,1,2.18-.34l2.32,6.24,2.33-6.24a1.12,1.12,0,0,1,2.17.34,1.54,1.54,0,0,1-.1.56l-3.29,8.35a1.12,1.12,0,0,1-1.11.87c-.66,0-.91-.39-1.11-.87Z"/><path class="cls-16" d="M428.38,124.91c0-3.12,2.1-5.52,5.16-5.52a5.25,5.25,0,0,1,5.16,5.52c0,3.11-2.09,5.52-5.16,5.52A5.19,5.19,0,0,1,428.38,124.91Zm8,0c0-1.81-.95-3.45-2.82-3.45s-2.82,1.64-2.82,3.45.91,3.45,2.82,3.45S436.36,126.74,436.36,124.91Z"/></g></g></g></svg>