<svg xmlns="http://www.w3.org/2000/svg" viewBox="0 0 242.54 168.53"><defs><style>.cls-1{fill:#00877a;}.cls-2{fill:#fbc657;}.cls-3{fill:#fff;}.cls-4{fill:#8b2732;}.cls-5{fill:#db6845;}.cls-6{fill:#c3573c;}.cls-7{fill:#ff8b4a;}</style></defs><g id="Capa_2" data-name="Capa 2"><g id="Capa_1-2" data-name="Capa 1"><polygon class="cls-1" points="242.54 51.2 223.43 84.27 242.54 117.33 0 117.33 20.11 84.27 0 51.2 242.54 51.2"/><polygon class="cls-2" points="205.54 84.27 195.82 90.79 204.27 98.9 193.57 103.64 200.48 113.09 189.11 115.89 194.26 126.41 182.58 127.19 185.82 138.44 174.18 137.18 175.44 148.82 164.19 145.57 163.41 157.25 152.9 152.1 150.1 163.47 140.65 156.56 135.9 167.26 127.8 158.82 121.27 168.53 114.74 158.82 106.64 167.27 101.89 156.56 92.44 163.47 89.64 152.1 79.13 157.25 78.35 145.57 67.1 148.81 68.36 137.18 56.72 138.43 59.96 127.18 48.28 126.41 53.43 115.89 42.07 113.09 48.97 103.64 38.27 98.9 46.72 90.79 37 84.27 46.72 77.74 38.27 69.63 48.97 64.89 42.07 55.44 53.43 52.64 48.28 42.12 59.97 41.35 56.72 30.1 68.36 31.35 67.1 19.71 78.35 22.96 79.13 11.28 89.64 16.43 92.44 5.06 101.89 11.97 106.64 1.26 114.74 9.72 121.27 0 127.8 9.72 135.9 1.26 140.65 11.97 150.1 5.06 152.9 16.43 163.41 11.28 164.19 22.96 175.44 19.71 174.19 31.35 185.82 30.1 182.58 41.35 194.26 42.12 189.11 52.64 200.48 55.44 193.57 64.89 204.27 69.63 195.82 77.74 205.54 84.27"/><path class="cls-1" d="M121.27,148.85a64.59,64.59,0,1,1,64.59-64.58A64.66,64.66,0,0,1,121.27,148.85Zm0-125.53a60.95,60.95,0,1,0,61,61A61,61,0,0,0,121.27,23.32Z"/><path class="cls-3" d="M160.14,126.11l-.91,0-.92-.07c-.87-.06-1.68-.11-2.56-.22l-2.51-.2c-1.84-.13-5.35-1.84-5.16-4.48l2.57-36c.17-2.39,3.32-3.71,5.43-3.71h.33l1,0,.06-.86c.79-11.13-2.11-20.85-8.17-27.36a24.86,24.86,0,0,0-9.73-6.43,4.65,4.65,0,0,1-3.7,1.84H107.41a4.65,4.65,0,0,1-3.86-2,24.83,24.83,0,0,0-10.34,6.66c-6.07,6.52-9,16.22-8.17,27.33l.07.88,1.08,0h.27c2.11,0,5.26,1.32,5.43,3.71l2.57,36c.19,2.64-3.32,4.35-5.17,4.48l-2.55.21c-.83.1-1.64.15-2.51.21l-.92.07c-.3,0-.61,0-.91,0a12.83,12.83,0,0,1-12.76-11.88L68.3,95.45a12.92,12.92,0,0,1,7.87-12.72l-.1-1.49c-1-13.63,2.76-25.74,10.54-34.11,6.75-7.25,16-11.08,26.74-11.08h15.84c10.74,0,20,3.82,26.71,11.05,7.78,8.37,11.54,20.49,10.56,34.14l-.1,1.49a12.89,12.89,0,0,1,7.88,12.72l-1.34,18.78a12.83,12.83,0,0,1-12.75,11.88Z"/><path class="cls-3" d="M129.19,37.55c10.31,0,19.17,3.66,25.61,10.58,7.5,8,11.11,19.77,10.16,33l-.18,2.62a11.34,11.34,0,0,1,8,11.6l-1.34,18.77a11.34,11.34,0,0,1-11.27,10.49l-.8,0-.31,0c-1.09-.08-2-.13-3.1-.26l-2.57-.21c-1.44-.1-3.88-1.45-3.78-2.88l2.57-36c.1-1.36,2.46-2.32,3.93-2.32h.22l2.51.1L159,80.7c.82-11.54-2.22-21.66-8.58-28.48A26.37,26.37,0,0,0,138.87,45a3.16,3.16,0,0,1-3,2.16H107.41a3.17,3.17,0,0,1-3.06-2.37,26.47,26.47,0,0,0-12.24,7.46c-6.35,6.82-9.39,16.93-8.56,28.46L83.72,83l2.52-.1h.22c1.47,0,3.84,1,3.93,2.32l2.57,36c.11,1.43-2.33,2.78-3.78,2.88l-2.57.21c-1,.13-2,.18-3.09.26l-.32,0c-.27,0-.53,0-.8,0a11.32,11.32,0,0,1-11.26-10.49L69.79,95.35a11.32,11.32,0,0,1,8-11.59l-.19-2.63c-1-13.21,2.65-24.92,10.15-33,6.45-6.93,15.32-10.6,25.64-10.6h15.84m0-3H113.35c-11.18,0-20.8,4-27.84,11.56-8.07,8.67-12,21.19-10.94,35.24l0,.46a14.43,14.43,0,0,0-7.8,13.75l1.34,18.78A14.35,14.35,0,0,0,82.4,127.61c.34,0,.68,0,1,0l.31,0,.6,0c.86-.06,1.67-.11,2.58-.22l2.52-.21a8.5,8.5,0,0,0,3.91-1.45A5.22,5.22,0,0,0,96,121L93.39,85c-.24-3.31-4.14-5.08-6.89-5.1-.63-10.45,2.13-19.54,7.8-25.64a23.38,23.38,0,0,1,8.77-5.92,6.15,6.15,0,0,0,4.34,1.79h28.47a6.12,6.12,0,0,0,4.1-1.57,23.2,23.2,0,0,1,8.23,5.68c5.67,6.1,8.44,15.19,7.81,25.66-2.75,0-6.63,1.8-6.86,5.11l-2.57,36a5.18,5.18,0,0,0,2.61,4.63,8.48,8.48,0,0,0,4,1.45l2.48.21c.91.11,1.72.16,2.59.22l.59,0,.31,0c.34,0,.69,0,1,0a14.34,14.34,0,0,0,14.26-13.27l1.34-18.78a14.42,14.42,0,0,0-7.82-13.76l0-.46c1-14.06-2.89-26.59-11-35.26-7-7.54-16.65-11.53-27.81-11.53Z"/><path class="cls-4" d="M104.33,43.24a3,3,0,0,0-.1.74,3.18,3.18,0,0,0,3.18,3.17h28.47A3.17,3.17,0,0,0,139.05,44a3,3,0,0,0-.09-.74A272.2,272.2,0,0,0,104.33,43.24Z"/><path class="cls-5" d="M164.72,84.63l-6-.43.25-3.5c.82-11.54-2.22-21.66-8.58-28.48-5.27-5.67-12.61-8.67-21.21-8.67H113.35c-8.61,0-16,3-21.24,8.69-6.35,6.82-9.39,16.93-8.56,28.46l.24,3.35-6,.43-.24-3.35c-1-13.21,2.65-24.92,10.15-33,6.45-6.93,15.32-10.6,25.64-10.6h15.84c10.31,0,19.17,3.66,25.61,10.58,7.5,8,11.11,19.77,10.16,33Z"/><path class="cls-6" d="M154.8,48.13c-6.44-6.92-15.3-10.58-25.61-10.58h-5.68v6h5.68c8.6,0,15.94,3,21.21,8.67C156.76,59,159.8,69.16,159,80.7l-.25,3.5,6,.43.24-3.5C165.91,67.9,162.3,56.18,154.8,48.13Z"/><path class="cls-7" d="M162.29,83.28l-.32,0c-1.4-.1-2.29-.14-3.24-.24l-2.8,41.28c1.06.13,2,.18,3.1.26l.31,0a11.33,11.33,0,0,0,12.07-10.46l1.34-18.77A11.33,11.33,0,0,0,162.29,83.28Z"/><path class="cls-4" d="M158.87,83l-2.57-.1c-1.44-.1-4.05.89-4.15,2.32l-2.57,36c-.1,1.43,2.34,2.78,3.78,2.88l2.57.21Z"/><path class="cls-7" d="M80.25,83.28l.32,0c1.41-.1,2.29-.14,3.24-.24l2.8,41.28c-1,.13-2,.18-3.09.26l-.32,0a11.32,11.32,0,0,1-12.06-10.46L69.79,95.35A11.33,11.33,0,0,1,80.25,83.28Z"/><path class="cls-4" d="M83.67,83l2.57-.1c1.45-.1,4.05.89,4.15,2.32l2.57,36c.11,1.43-2.33,2.78-3.78,2.88l-2.57.21Z"/></g></g></svg>