<svg xmlns="http://www.w3.org/2000/svg" viewBox="0 0 66.42 66.95"><defs><style>.cls-1{fill:#00877a;}</style></defs><g id="Capa_2" data-name="Capa 2"><g id="Capa_1-2" data-name="Capa 1"><path class="cls-1" d="M33.62,61.74a.7.7,0,0,0,.7-.71.7.7,0,0,0-.7-.7A26.76,26.76,0,1,1,60.37,33.58a.71.71,0,0,0,1.41,0A28.16,28.16,0,1,0,33.62,61.74Z"/><path class="cls-1" d="M33.62,64.44a30.66,30.66,0,0,0,21.82-9,.7.7,0,0,0-1-1A29.46,29.46,0,1,1,12.79,12.75a29.45,29.45,0,0,1,41.66,0,.7.7,0,1,0,1-1A30.86,30.86,0,1,0,11.8,55.4,30.62,30.62,0,0,0,33.62,64.44Z"/><path class="cls-1" d="M14.42,61a33.29,33.29,0,0,0,25,5.42.77.77,0,0,0,.61-.89.75.75,0,0,0-.88-.61,31.94,31.94,0,0,1-32-49.62A31.94,31.94,0,0,1,51.66,7.22,31.73,31.73,0,0,1,64.91,27.77a.76.76,0,0,0,1.5-.27A33.48,33.48,0,0,0,6,14.42,33.48,33.48,0,0,0,14.42,61Z"/></g></g></svg>