<svg xmlns="http://www.w3.org/2000/svg" viewBox="0 0 71.46 80.94"><defs><style>.cls-1{fill:#00953a;}.cls-2{fill:none;stroke:#00953a;stroke-miterlimit:10;stroke-width:2px;}</style></defs><title>Marcador</title><g id="Capa_1" data-name="Capa 1"><path class="cls-1" d="M40.52,2H13.42c-.23,0-.41-.34-.41-.75s.19-.75.41-.75h27.1c.23,0,.41.34.41.75S40.75,2,40.52,2Z"/><path class="cls-1" d="M16,5.46H6.38c-.23,0-.41-.34-.41-.75S6.15,4,6.38,4H16c.23,0,.41.34.41.75S16.25,5.46,16,5.46Z"/><path class="cls-1" d="M8.77,1.5H6.38C6.15,1.5,6,1.16,6,.75S6.15,0,6.38,0H8.77c.23,0,.41.34.41.75S9,1.5,8.77,1.5Z"/><path class="cls-1" d="M3.14,6.73H1.8c-.23,0-.41-.34-.41-.75s.19-.75.41-.75H3.14c.23,0,.41.34.41.75S3.37,6.73,3.14,6.73Z"/><rect class="cls-2" x="1" y="6.32" width="69.46" height="64.47" rx="32.24" ry="32.24"/><path class="cls-1" d="M61.22,80.43H40.39c-.18,0-.32-.34-.32-.75s.14-.75.32-.75H61.22c.18,0,.32.34.32.75S61.4,80.43,61.22,80.43Z"/><path class="cls-1" d="M66.63,77H59.22c-.18,0-.32-.34-.32-.75s.14-.75.32-.75h7.41c.18,0,.32.34.32.75S66.81,77,66.63,77Z"/><path class="cls-1" d="M66.63,80.94H64.79c-.18,0-.32-.34-.32-.75s.14-.75.32-.75h1.84c.18,0,.32.34.32.75S66.81,80.94,66.63,80.94Z"/><path class="cls-1" d="M70.15,75.71h-1c-.18,0-.32-.34-.32-.75s.14-.75.32-.75h1c.18,0,.32.34.32.75S70.32,75.71,70.15,75.71Z"/></g></svg>