<svg xmlns="http://www.w3.org/2000/svg" viewBox="0 0 338.23 93.28"><defs><style>.cls-1{fill:#fff;stroke:#00953a;stroke-miterlimit:10;stroke-width:2px;}.cls-2{fill:#00953a;}</style></defs><title>Pantalla 52.1-Exposicion</title><g id="Capa_1" data-name="Capa 1"><rect class="cls-1" x="1" y="16.02" width="336.23" height="76.26" rx="9.3" ry="9.3"/><path class="cls-2" d="M105.7,2.71H39.46a1,1,0,1,1,0-2H105.7a1,1,0,0,1,0,2Z"/><path class="cls-2" d="M45.82,7.35H22.25a1,1,0,0,1,0-2H45.82a1,1,0,0,1,0,2Z"/><path class="cls-2" d="M28.1,2H22.25a1,1,0,0,1,0-2H28.1a1,1,0,1,1,0,2Z"/><path class="cls-2" d="M14.34,9.08H11.07a1,1,0,0,1,0-2h3.27a1,1,0,1,1,0,2Z"/></g></svg>