<svg xmlns="http://www.w3.org/2000/svg" xmlns:xlink="http://www.w3.org/1999/xlink" viewBox="0 0 474.92 270.65"><defs><style>.cls-1,.cls-165,.cls-166,.cls-167,.cls-168,.cls-170{fill:none;}.cls-2{isolation:isolate;}.cls-3{clip-path:url(#clip-path);}.cls-4{opacity:0.31;}.cls-10,.cls-4{mix-blend-mode:multiply;}.cls-5{opacity:0.36;}.cls-6{clip-path:url(#clip-path-2);}.cls-7{clip-path:url(#clip-path-3);}.cls-8{clip-path:url(#clip-path-4);}.cls-9{fill:url(#Degradado_sin_nombre_1008);}.cls-11{clip-path:url(#clip-path-6);}.cls-12{fill:#877996;}.cls-13{fill:#b9b9be;}.cls-14{clip-path:url(#clip-path-9);}.cls-15{fill:url(#Degradado_sin_nombre_1012);}.cls-16{clip-path:url(#clip-path-11);}.cls-17{clip-path:url(#clip-path-12);}.cls-18{clip-path:url(#clip-path-13);}.cls-19{clip-path:url(#clip-path-14);}.cls-20{fill:url(#Degradado_sin_nombre_1016);}.cls-21{clip-path:url(#clip-path-15);}.cls-22{clip-path:url(#clip-path-16);}.cls-23{fill:#fff;}.cls-24{fill:#fdfdfd;}.cls-25{fill:#fcfcfc;}.cls-26{fill:#fbfbfb;}.cls-27{fill:#fafafa;}.cls-28{fill:#f9f9f9;}.cls-29{fill:#f8f8f8;}.cls-30{fill:#f7f7f7;}.cls-31{fill:#f6f6f6;}.cls-32{fill:#f5f5f5;}.cls-33{fill:#f4f4f4;}.cls-34{fill:#f3f3f3;}.cls-35{fill:#f2f3f3;}.cls-36{fill:#f1f2f2;}.cls-37{fill:#f0f1f1;}.cls-38{fill:#eff0f0;}.cls-39{fill:#eeefef;}.cls-40{fill:#edeeee;}.cls-41{fill:#eceded;}.cls-42{fill:#ebecec;}.cls-43{fill:#eaebeb;}.cls-44{fill:#e9eaea;}.cls-45{fill:#e8e9e9;}.cls-46{fill:#e7e8e8;}.cls-47{fill:#e6e7e7;}.cls-48{fill:#e5e6e6;}.cls-49{fill:#e4e5e5;}.cls-50{fill:#e3e4e4;}.cls-51{fill:#e2e3e3;}.cls-52{fill:#e1e2e2;}.cls-53{fill:#e0e1e1;}.cls-54{fill:#dfe0e0;}.cls-55{fill:#dedfdf;}.cls-56{fill:#dddede;}.cls-57{fill:#dbdede;}.cls-58{fill:#dadddd;}.cls-59{fill:#d9dcdc;}.cls-60{fill:#d8dbdb;}.cls-61{fill:#d7dada;}.cls-62{fill:#d6d9d9;}.cls-63{fill:#d5d8d8;}.cls-64{fill:#d4d7d7;}.cls-65{fill:#d3d6d6;}.cls-66{fill:#d2d5d5;}.cls-67{fill:#d1d4d4;}.cls-68{fill:#d0d3d3;}.cls-69{fill:#cfd2d2;}.cls-70{fill:#ced1d1;}.cls-71{fill:#cdd0d0;}.cls-72{fill:#cccfcf;}.cls-73{fill:#cbcece;}.cls-74{fill:#cacdcd;}.cls-75{fill:#c9cccc;}.cls-76{fill:#c8cbcb;}.cls-77{fill:#c7caca;}.cls-78{fill:#c6c9c9;}.cls-79{fill:#c5c9c9;}.cls-80{fill:#c4c8c8;}.cls-81{fill:#c3c7c7;}.cls-82{fill:#c2c6c6;}.cls-83{fill:#c1c5c5;}.cls-84{fill:#c0c4c4;}.cls-85{fill:#bfc3c3;}.cls-86{fill:#bec2c2;}.cls-87{fill:#bdc1c1;}.cls-88{fill:#bcc0c0;}.cls-89{fill:#bbbfbf;}.cls-90{fill:#babebe;}.cls-91{fill:#b9bdbd;}.cls-92{fill:#b8bcbc;}.cls-93{fill:#b7bbbb;}.cls-94{fill:#b6baba;}.cls-95{fill:#b5b9b9;}.cls-96{fill:#b4b8b8;}.cls-97{fill:#b3b7b7;}.cls-98{fill:#b2b6b6;}.cls-99{fill:#b1b5b5;}.cls-100{fill:#b0b4b4;}.cls-101{fill:#afb3b3;}.cls-102{fill:#aeb3b3;}.cls-103{fill:#adb2b2;}.cls-104{fill:#acb1b1;}.cls-105{fill:#abb0b0;}.cls-106{fill:#aaafaf;}.cls-107{fill:#a9aeae;}.cls-108{fill:#a8adad;}.cls-109{fill:#a7acac;}.cls-110{fill:#a6abab;}.cls-111{fill:#a5aaaa;}.cls-112{fill:#a4a9a9;}.cls-113{fill:#a3a8a8;}.cls-114{fill:#a2a7a7;}.cls-115{fill:#a1a6a6;}.cls-116{fill:#a0a5a5;}.cls-117{fill:#9fa4a4;}.cls-118{fill:#9ea3a3;}.cls-119{fill:#9da2a2;}.cls-120{fill:#9ca1a1;}.cls-121{fill:#9ba0a0;}.cls-122{fill:#9a9f9f;}.cls-123{fill:#999e9e;}.cls-124{fill:#989e9e;}.cls-125{fill:#979d9d;}.cls-126{fill:#969c9c;}.cls-127{fill:#959b9b;}.cls-128{fill:#949a9a;}.cls-129{fill:#939999;}.cls-130{fill:#929898;}.cls-131{fill:#919797;}.cls-132{fill:#909696;}.cls-133{fill:#8f9595;}.cls-134{fill:#8e9494;}.cls-135{fill:#8d9393;}.cls-136{fill:#8c9292;}.cls-137{fill:#8b9191;}.cls-138{fill:#8a9090;}.cls-139{fill:#898f8f;}.cls-140{fill:#888e8e;}.cls-141{fill:#878d8d;}.cls-142{fill:#868c8c;}.cls-143{fill:#858b8b;}.cls-144{fill:#848a8a;}.cls-145{fill:#838989;}.cls-146{fill:#818989;}.cls-147{fill:#808888;}.cls-148{fill:#808787;}.cls-149{fill:#7f8686;}.cls-150{fill:#7e8585;}.cls-151{fill:#7d8484;}.cls-152{fill:#7c8383;}.cls-153{fill:#7b8282;}.cls-154{fill:#7a8181;}.cls-155{fill:#798080;}.cls-156{fill:#788080;}.cls-157{fill:#777f7f;}.cls-158{fill:#62b6ba;}.cls-159{fill:#73c2ca;}.cls-160{fill:#96eae4;}.cls-161{fill:#d9e46b;}.cls-162{fill:#198780;}.cls-163{fill:#b5e0f2;}.cls-164{fill:#74baa2;}.cls-165,.cls-166,.cls-167,.cls-168{stroke:#fff;}.cls-165,.cls-166,.cls-167,.cls-168,.cls-170{stroke-miterlimit:10;}.cls-165{stroke-width:1.11px;}.cls-166,.cls-167{stroke-linecap:round;}.cls-166{stroke-width:0.7px;}.cls-167{stroke-width:0.76px;}.cls-168{stroke-width:1.01px;}.cls-169{fill:#00953a;}.cls-170{stroke:#95d600;}</style><clipPath id="clip-path"><rect class="cls-1" x="-734.37" y="-699.63" width="1347.46" height="660.34"/></clipPath><clipPath id="clip-path-2"><rect class="cls-1" x="-148.32" y="-363.79" width="559.7" height="376.68"/></clipPath><clipPath id="clip-path-3"><rect class="cls-1" x="-148.32" y="-354.5" width="475.13" height="315.87"/></clipPath><clipPath id="clip-path-4"><path class="cls-1" d="M408.75-39.52l-7.53-.17A24.14,24.14,0,0,0,388-40l-8.34-.18V1.61h0c0,2.14,1.45,4.28,4.29,5.92,5.7,3.29,14.92,3.31,20.58,0,2.84-1.64,4.25-3.8,4.23-6Z"/></clipPath><linearGradient id="Degradado_sin_nombre_1008" x1="-3994.9" y1="16.95" x2="-3993.9" y2="16.95" gradientTransform="matrix(29.1, 0, 0, -29.1, 116635.6, 478.02)" gradientUnits="userSpaceOnUse"><stop offset="0" stop-color="#836f72"/><stop offset="0.22" stop-color="#8e7d80"/><stop offset="0.75" stop-color="#d7c7c0"/><stop offset="1" stop-color="#d7c7c0"/></linearGradient><clipPath id="clip-path-6"><rect class="cls-1" x="396.27" y="-161.09" width="11.11" height="171.11"/></clipPath><clipPath id="clip-path-9"><path class="cls-1" d="M406.28-164.69l-.49-.28a4.49,4.49,0,0,0-4.54,0A4.5,4.5,0,0,0,399-161v.1a.64.64,0,0,0,.08.26,3.84,3.84,0,0,1,2-2.87,2.88,2.88,0,0,1,2.7-.11l.49.28a9,9,0,0,1,4.51,7.8V11.27a2.19,2.19,0,0,0,1.6-.11.73.73,0,0,0,.43-.58V-156.89a9,9,0,0,0-4.5-7.8"/></clipPath><linearGradient id="Degradado_sin_nombre_1012" x1="-4013.21" y1="20.01" x2="-4012.21" y2="20.01" gradientTransform="matrix(0, 34.52, 34.52, 0, -285.85, 138429.01)" gradientUnits="userSpaceOnUse"><stop offset="0" stop-color="#b5b5c1"/><stop offset="0.01" stop-color="#b6b6c2"/><stop offset="0.28" stop-color="#d7d7e3"/><stop offset="0.43" stop-color="#e3e3f0"/><stop offset="1" stop-color="#e3e3f0"/></linearGradient><clipPath id="clip-path-11"><rect class="cls-1" x="691.03" y="-323.5" width="265.36" height="284.88"/></clipPath><clipPath id="clip-path-12"><rect class="cls-1" x="600.82" y="11.13" width="10.37" height="26.15" transform="translate(141.59 414.26) rotate(-42.31)"/></clipPath><clipPath id="clip-path-13"><rect class="cls-1" x="525.32" y="-54.69" width="170.72" height="162.69"/></clipPath><clipPath id="clip-path-14"><path class="cls-1" d="M620.41,36.89c-46.83,44.56-89.16,76.11-94.53,70.45S554.11,61,600.94,16.42,690.1-59.69,695.48-54,667.24-7.68,620.41,36.89"/></clipPath><radialGradient id="Degradado_sin_nombre_1016" cx="-3948.92" cy="-6.14" r="1" gradientTransform="matrix(0, 14.12, -117.05, 0.02, -107.5, 55801.59)" gradientUnits="userSpaceOnUse"><stop offset="0" stop-color="#6a613f"/><stop offset="0.22" stop-color="#99937b"/><stop offset="0.45" stop-color="#c4c1b4"/><stop offset="0.65" stop-color="#e4e3dd"/><stop offset="0.81" stop-color="#f8f7f6"/><stop offset="0.9" stop-color="#fff"/><stop offset="1" stop-color="#fff"/></radialGradient><clipPath id="clip-path-15"><rect class="cls-1" x="227.01" y="-358.44" width="386.08" height="319.15"/></clipPath><clipPath id="clip-path-16"><rect class="cls-1" x="222.1" y="-256.35" width="494.57" height="303.32"/></clipPath></defs><title>Pantalla 55-1</title><g class="cls-2"><g id="Capa_1" data-name="Capa 1"><g class="cls-3"><g class="cls-5"><g class="cls-6"><g class="cls-7"><g class="cls-8"><rect class="cls-9" x="379.65" y="-41.12" width="29.12" height="51.96"/></g></g><g class="cls-7"><g class="cls-10"><g class="cls-11"><path class="cls-12" d="M406.92-120.65v-4.28l-2.63-2.63v-32.55l-5-.81-.74-.17a2.2,2.2,0,0,0-2,1c-.59,1.12-.22,1.78,1.17,2.24a7,7,0,0,0,2.72.3V-125l2.63,2.63v39.87l.91.91v5.19L403-76v40l1.08,1.08v5.15l-1.13.46V10l3.57-.48V-31.12l.85-.73V-37l-1-1v-39.7l1-.8v-5.13L406.83-85Z"/></g></g></g><g class="cls-7"><path class="cls-13" d="M399-161a4.49,4.49,0,0,1,2.27-3.93,4.5,4.5,0,0,1,4.54,0l.49.28a9,9,0,0,1,4.5,7.8V10.57h0a.74.74,0,0,1-.43.59,2.27,2.27,0,0,1-2.06,0,.72.72,0,0,1-.42-.59h0V-156.89a6.11,6.11,0,0,0-3-5.28l-.49-.28a1.6,1.6,0,0,0-1.63,0,1.6,1.6,0,0,0-.81,1.41v.11a.73.73,0,0,1-.43.6,2.28,2.28,0,0,1-2.06,0,.71.71,0,0,1-.42-.6Z"/></g><g class="cls-7"><g class="cls-14"><rect class="cls-15" x="316.13" y="-86.12" width="177.51" height="17.87" transform="translate(468.15 330.1) rotate(-88.04)"/></g></g></g></g></g><g class="cls-3"><g class="cls-16"><g class="cls-17"><g class="cls-10"><g class="cls-18"><g class="cls-19"><rect class="cls-20" x="485.83" y="-98.06" width="249.69" height="249.42" transform="translate(149.84 428.24) rotate(-43.57)"/></g></g></g></g></g></g><g class="cls-21"><g class="cls-10"><g class="cls-22"><g class="cls-22"><path class="cls-23" d="M222.1-44.58,340-116.25l-59.65-33.34L465.13-256.35,716.67-106.73,539.9-3.23C496.58,34.17,420.52,37.09,398.18,37.09h0l-3.22,0L379.68,47Z"/></g><path class="cls-24" d="M465.12-256.21,716.48-106.74,539.85-3.32C496.54,34.07,420.49,37,398.2,37h0L395,37l-15.27,9.89L222.3-44.61l117.87-71.64-2.05-1.17-57.53-32.15Z"/><path class="cls-25" d="M465.1-256.07,716.28-106.75,539.79-3.41C496.5,34,420.46,37,398.21,36.87h0l-3.21,0-15.25,9.88L222.48-44.64l117.8-71.6-2-1.16-57.5-32.13Z"/><path class="cls-26" d="M465.09-255.93l251,149.17L539.73-3.49c-43.27,37.37-119.3,40.34-141.5,40.25h0l-3.21,0L379.79,46.6,222.68-44.68l117.74-71.56-2-1.17L281-149.51Z"/><path class="cls-27" d="M465.08-255.79l250.83,149L539.68-3.58C496.43,33.77,420.41,36.73,398.26,36.64h0l-3.21,0-15.21,9.86-157-91.18,117.67-71.51-2-1.16-57.43-32.1Z"/><path class="cls-28" d="M465.07-255.65,715.72-106.79,539.62-3.67C496.39,33.67,420.38,36.62,398.28,36.53h0l-3.2,0-15.19,9.85L223.08-44.75l117.6-71.47-1.94-1.17-57.4-32.08Z"/><path class="cls-29" d="M465.05-255.51,715.52-106.8l-176,103C496.35,33.57,420.34,36.51,398.29,36.42h0l-3.2,0-15.18,9.83-156.65-91L340.8-116.21l-1.91-1.17-57.37-32.06Z"/><path class="cls-30" d="M465-255.37l250.3,148.56L539.51-3.84C496.31,33.47,420.32,36.39,398.32,36.3h0l-3.2,0L380,46.1,223.46-44.81,340.93-116.2l-1.87-1.16-57.34-32Z"/><path class="cls-31" d="M465-255.23,715.15-106.82,539.45-3.92c-43.17,37.3-119.16,40.21-141.11,40.12h0l-3.2,0L380,46,223.66-44.85l117.4-71.35-1.85-1.17-57.3-32Z"/><path class="cls-32" d="M465-255.09,715-106.83,539.4-4c-43.16,37.28-119.13,40.18-141,40.09h0l-3.2,0L380,45.85,223.86-44.88l117.33-71.31-1.82-1.16-57.27-32Z"/><path class="cls-33" d="M465-254.95,714.77-106.84,539.33-4.1C496.2,33.17,420.23,36.06,398.38,36h0l-3.19,0-15.1,9.79L224-44.92l117.26-71.27-1.79-1.17-57.23-32Z"/><path class="cls-34" d="M465-254.81s249.59,147.95,249.59,148L539.28-4.18c-43.12,37.26-119.07,40.13-140.88,40h0l-3.19,0L380.12,45.6,224.24-45l117.19-71.23-1.76-1.16-57.2-32Z"/><path class="cls-35" d="M465-254.67s249.41,147.79,249.41,147.8L539.22-4.27c-43.1,37.24-119,40.1-140.8,40h0l-3.19,0-15.07,9.77L224.44-45l117.13-71.19-1.73-1.16-57.17-31.94Z"/><path class="cls-36" d="M465-254.53S714.2-106.89,714.2-106.87L539.17-4.35c-43.08,37.23-119,40.08-140.72,40h0l-3.19,0L380.2,45.36,224.64-45,341.7-116.16l-1.7-1.16-57.13-31.92Z"/><path class="cls-37" d="M465-254.39S714-106.9,714-106.88L539.11-4.44c-43.06,37.22-119,40-140.65,40h0l-3.19,0-15,9.74L224.83-45.05l117-71.1-1.67-1.16-57.1-31.9Z"/><path class="cls-38" d="M464.94-254.25S713.82-106.91,713.82-106.89L539.05-4.53c-43,37.2-119,40-140.57,39.93h0l-3.18,0-15,9.73L225-45.09l116.92-71.06-1.64-1.16L283.24-149.2Z"/><path class="cls-39" d="M464.93-254.1s248.7,147.18,248.7,147.2L539-4.61c-43,37.19-118.93,40-140.49,39.9h0l-3.18,0-15,9.72-155.1-90.1,116.86-71-1.61-1.16-57-31.86Z"/><path class="cls-40" d="M464.91-254s248.52,147,248.52,147L538.93-4.7c-43,37.17-118.91,40-140.42,39.88h0l-3.18,0-15,9.71-154.95-90,116.79-71-1.58-1.17-57-31.85Z"/><path class="cls-41" d="M464.9-253.82s248.35,146.88,248.35,146.9L538.88-4.79C495.9,32.38,420,35.16,398.54,35.07h0l-3.18,0-15,9.7L225.61-45.19l116.72-70.94-1.55-1.16-57-31.83Z"/><path class="cls-42" d="M464.89-253.68S713.06-107,713.06-106.94L538.83-4.87C495.86,32.28,420,35,398.56,35h0l-3.17,0-14.95,9.68L225.8-45.22l116.65-70.9-1.52-1.17L284-149.09Z"/><path class="cls-43" d="M464.88-253.54s248,146.57,248,146.59L538.77-5C495.83,32.18,420,34.94,398.59,34.84h0l-3.17,0-14.93,9.67L226-45.26l116.58-70.86-1.49-1.16-56.9-31.79Z"/><path class="cls-44" d="M464.86-253.4S712.68-107,712.68-107L538.71-5C495.78,32.08,419.91,34.82,398.6,34.73h0l-3.17,0-14.91,9.66L226.19-45.29l116.52-70.81-1.46-1.17L284.38-149Z"/><path class="cls-45" d="M464.85-253.26S712.49-107,712.49-107L538.65-5.13c-42.9,37.11-118.76,39.84-140,39.75h0l-3.17,0-14.89,9.65L226.39-45.32,342.84-116.1l-1.43-1.17L284.58-149Z"/><path class="cls-46" d="M464.84-253.12S712.3-107,712.3-107L538.6-5.22c-42.89,37.09-118.74,39.81-140,39.72h0l-3.17,0L380.6,44.12l-154-89.47L343-116.09l-1.4-1.17L284.77-149Z"/><path class="cls-47" d="M464.83-253S712.11-107,712.11-107L538.54-5.3C495.68,31.78,419.84,34.49,398.67,34.39h0l-3.17,0L380.65,44,226.78-45.39,343.1-116.08l-1.37-1.17L285-149Z"/><path class="cls-48" d="M464.81-252.84S711.92-107,711.92-107L538.48-5.39C495.63,31.68,419.8,34.37,398.68,34.28h0l-3.16,0-14.84,9.62L227-45.43l116.25-70.65-1.34-1.17-56.73-31.69Z"/><path class="cls-49" d="M464.8-252.7S711.73-107,711.73-107L538.43-5.47C495.6,31.58,419.77,34.26,398.7,34.17h0l-3.16,0-14.82,9.61L227.17-45.46l116.18-70.61L342-117.24l-56.7-31.67Z"/><path class="cls-50" d="M464.79-252.56S711.54-107.05,711.54-107L538.37-5.56c-42.81,37-118.62,39.71-139.65,39.62h0l-3.16,0-14.8,9.59L227.37-45.5l116.11-70.57-1.28-1.17-56.66-31.65Z"/><path class="cls-51" d="M464.78-252.42S711.36-107.06,711.36-107L538.32-5.65C495.53,31.38,419.72,34,398.75,33.94h0l-3.16,0L380.81,43.5l-153.24-89,116-70.53-1.25-1.16-56.63-31.63Z"/><path class="cls-52" d="M464.76-252.28S711.16-107.08,711.16-107L538.25-5.73c-42.77,37-118.57,39.66-139.49,39.56h0l-3.16,0-14.77,9.57L227.75-45.56l116-70.49-1.22-1.17-56.6-31.61Z"/><path class="cls-53" d="M464.75-252.14S711-107.09,711-107.06L538.2-5.82c-42.75,37-118.54,39.63-139.41,39.54h0l-3.15,0-14.75,9.56L227.95-45.6,343.86-116l-1.19-1.16-56.56-31.6Z"/><path class="cls-54" d="M464.74-252s246,144.9,246,144.93L538.15-5.91c-42.73,37-118.51,39.61-139.34,39.51h0l-3.15,0-14.73,9.55L228.15-45.63,344-116l-1.16-1.17L286.3-148.78Z"/><path class="cls-55" d="M464.72-251.85S710.59-107.11,710.59-107.08L538.08-6C495.37,31,419.6,33.59,398.82,33.49h0l-3.15,0L381,43,228.33-45.67,344.11-116,343-117.19l-56.5-31.56Z"/><path class="cls-56" d="M464.71-251.71S710.4-107.12,710.4-107.09L538-6.08c-42.69,37-118.45,39.55-139.18,39.46h0l-3.15,0L381,42.87,228.53-45.7,344.24-116l-1.1-1.17-56.46-31.54Z"/><path class="cls-57" d="M464.7-251.57S710.21-107.13,710.21-107.1L538-6.16C495.3,30.78,419.55,33.37,398.87,33.27h0l-3.14,0L381,42.75,228.73-45.73,344.37-116l-1.07-1.16L286.87-148.7Z"/><path class="cls-58" d="M464.69-251.43S710-107.15,710-107.11L537.92-6.25c-42.66,36.93-118.4,39.5-139,39.41h0l-3.14,0-14.66,9.5L228.93-45.77,344.5-116l-1-1.17-56.4-31.5Z"/><path class="cls-59" d="M464.67-251.29S709.83-107.16,709.83-107.12L537.85-6.34C495.22,30.58,419.49,33.14,398.9,33h0l-3.14,0L381.12,42.5l-152-88.31L344.62-116l-1-1.16-56.36-31.48Z"/><path class="cls-60" d="M464.66-251.15s245,144,245,144L537.8-6.42C495.18,30.48,419.46,33,398.93,32.93h0l-3.14,0-14.62,9.48L229.31-45.84,344.75-116l-1-1.17-56.33-31.46Z"/><path class="cls-61" d="M464.65-251s244.8,143.83,244.8,143.87L537.75-6.51c-42.6,36.89-118.31,39.43-138.8,39.33h0l-3.14,0-14.61,9.47L229.51-45.87,344.88-116l-.95-1.17-56.3-31.44Z"/><path class="cls-62" d="M464.64-250.87S709.27-107.19,709.27-107.16L537.69-6.59C495.11,30.28,419.41,32.8,399,32.71h0l-3.13,0-14.59,9.46-151.54-88L345-116l-.92-1.17-56.26-31.42Z"/><path class="cls-63" d="M464.62-250.73S709.07-107.21,709.07-107.17L537.63-6.68C495.07,30.18,419.37,32.69,399,32.59h0l-3.13,0L381.28,42,229.9-45.94l115.23-70-.89-1.17L288-148.54Z"/><path class="cls-64" d="M464.61-250.59S708.88-107.22,708.88-107.18L537.57-6.77C495,30.08,419.35,32.58,399,32.48h0l-3.13,0-14.55,9.43L230.09-46l115.16-70-.86-1.17L288.2-148.51Z"/><path class="cls-65" d="M464.6-250.45S708.69-107.23,708.69-107.19L537.52-6.85C495,30,419.32,32.47,399,32.37h0l-3.13,0-14.53,9.42L230.29-46,345.39-116l-.83-1.17L288.4-148.49Z"/><path class="cls-66" d="M464.59-250.31S708.51-107.24,708.51-107.2L537.47-6.94C495,29.88,419.29,32.36,399.05,32.26h0l-3.12,0-14.52,9.41L230.49-46l115-69.91-.8-1.17-56.13-31.35Z"/><path class="cls-67" d="M464.57-250.17s243.74,142.91,243.74,143L537.4-7C494.92,29.78,419.26,32.24,399.07,32.14h0l-3.12,0-14.5,9.4L230.68-46.07l115-69.87-.77-1.17-56.09-31.33Z"/><path class="cls-68" d="M464.56-250s243.56,142.76,243.56,142.8L537.35-7.11C494.88,29.68,419.23,32.13,399.09,32h0L396,32l-14.48,9.39L230.88-46.11l114.89-69.83L345-117.1,289-148.41Z"/><path class="cls-69" d="M464.55-249.89S707.94-107.28,707.94-107.23L537.29-7.2C494.85,29.58,419.21,32,399.11,31.92h0l-3.12,0-14.46,9.38L231.07-46.14,345.9-115.93l-.71-1.17-56-31.29Z"/><path class="cls-70" d="M464.54-249.75s243.21,142.46,243.21,142.5L537.24-7.28c-42.43,36.76-118.06,39.19-138.1,39.09h0l-3.12,0-14.45,9.37L231.27-46.18,346-115.92l-.68-1.17-56-31.27Z"/><path class="cls-71" d="M464.52-249.61s243,142.3,243,142.35L537.18-7.37c-42.41,36.75-118,39.17-138,39.06h0l-3.11,0L381.6,41,231.46-46.21l114.69-69.7-.65-1.17-56-31.25Z"/><path class="cls-72" d="M464.51-249.46s242.85,142.15,242.85,142.2L537.12-7.46c-42.39,36.74-118,39.14-137.95,39h0l-3.11,0-14.41,9.34-150-87.14,114.62-69.66-.62-1.17L289.73-148.3Z"/><path class="cls-73" d="M464.5-249.32s242.68,142,242.68,142L537.07-7.54c-42.37,36.72-118,39.11-137.87,39h0l-3.11,0-14.39,9.33-149.84-87L346.41-115.9l-.59-1.17-55.89-31.21Z"/><path class="cls-74" d="M464.48-249.18S707-107.34,707-107.29L537-7.63c-42.35,36.71-117.95,39.09-137.79,39h0l-3.11,0-14.37,9.32L232-46.31l114.49-69.58-.56-1.16-55.86-31.19Z"/><path class="cls-75" d="M464.47-249S706.79-107.35,706.79-107.3L536.95-7.72C494.62,29,419,31.35,399.23,31.24h0l-3.11,0-14.36,9.31L232.24-46.35l114.42-69.54-.53-1.17L290.3-148.23Z"/><path class="cls-76" d="M464.46-248.9S706.61-107.36,706.61-107.31L536.89-7.8C494.58,28.88,419,31.23,399.25,31.13h0l-3.1,0-14.34,9.3L232.44-46.38l114.35-69.5-.5-1.16L290.49-148.2Z"/><path class="cls-77" d="M464.45-248.76s242,141.39,242,141.44L536.84-7.89C494.55,28.78,419,31.12,399.28,31h0l-3.1,0-14.32,9.29L232.64-46.42l114.28-69.46-.47-1.17-55.76-31.14Z"/><path class="cls-78" d="M464.43-248.62S706.22-107.39,706.22-107.33L536.78-8C494.5,28.68,418.94,31,399.29,30.91h0l-3.1,0-14.3,9.27L232.82-46.45,347-115.87,346.6-117l-55.73-31.12Z"/><path class="cls-79" d="M464.42-248.48S706-107.4,706-107.34L536.72-8.06c-42.25,36.64-117.8,39-137.41,38.85h0l-3.1,0L381.93,40,233-46.48l114.15-69.37-.41-1.17-55.69-31.1Z"/><path class="cls-80" d="M464.41-248.34s241.43,140.93,241.43,141L536.67-8.15C494.43,28.48,418.89,30.79,399.34,30.68h0l-3.09,0L382,39.9,233.22-46.52,347.3-115.85l-.38-1.17-55.66-31.08Z"/><path class="cls-81" d="M464.4-248.2S705.66-107.42,705.66-107.36l-169,99.13c-42.21,36.61-117.75,38.9-137.25,38.8h0c-1.48,0-2.54,0-3.09,0L382,39.77,233.42-46.55l114-69.29-.35-1.17-55.63-31.06Z"/><path class="cls-82" d="M464.38-248.06S705.46-107.43,705.46-107.38L536.55-8.32c-42.2,36.6-117.72,38.88-137.18,38.77h0c-1.49,0-2.54,0-3.09,0L382,39.65,233.6-46.59l113.94-69.25-.32-1.17-55.59-31Z"/><path class="cls-83" d="M464.37-247.92s240.9,140.47,240.9,140.53L536.5-8.4C494.32,28.18,418.8,30.45,399.39,30.34h0c-1.49,0-2.54,0-3.09,0l-14.22,9.22L233.8-46.62l113.87-69.21-.29-1.17-55.56-31Z"/><path class="cls-84" d="M464.36-247.78S705.09-107.46,705.09-107.4L536.44-8.49c-42.16,36.57-117.67,38.83-137,38.72h0c-1.49,0-2.54,0-3.09,0l-14.2,9.21L234-46.65l113.81-69.17-.26-1.17L292-148Z"/><path class="cls-85" d="M464.35-247.64S704.9-107.47,704.9-107.41L536.39-8.58C494.25,28,418.75,30.22,399.44,30.12h0c-1.5,0-2.55,0-3.08,0l-14.18,9.2-148-86,113.74-69.13-.23-1.17-55.49-31Z"/><path class="cls-86" d="M464.33-247.5s240.37,140,240.37,140.08L536.32-8.66C494.21,27.88,418.71,30.11,399.45,30h0c-1.5,0-2.55,0-3.08,0l-14.16,9.18L234.38-46.72l113.67-69.09-.2-1.17-55.46-31Z"/><path class="cls-87" d="M464.32-247.36S704.52-107.49,704.52-107.43L536.27-8.75C494.17,27.78,418.69,30,399.48,29.89h0c-1.5,0-2.55,0-3.08,0L382.25,39,234.58-46.76l113.6-69L348-117l-55.43-30.94Z"/><path class="cls-88" d="M464.31-247.22s240,139.71,240,139.77L536.21-8.84C494.14,27.68,418.66,29.89,399.5,29.78h0c-1.51,0-2.55,0-3.08,0l-14.13,9.16L234.78-46.79l113.54-69-.14-1.17-55.39-30.92Z"/><path class="cls-89" d="M464.29-247.07S704.13-107.52,704.13-107.45l-168,98.53c-42.06,36.5-117.52,38.7-136.64,38.59h0c-1.51,0-2.56,0-3.08,0l-14.11,9.15L235-46.82l113.47-69-.11-1.17L293-147.86Z"/><path class="cls-90" d="M464.28-246.93S703.94-107.53,703.94-107.46L536.1-9c-42,36.49-117.5,38.67-136.56,38.56h0c-1.51,0-2.56,0-3.07,0l-14.09,9.14L235.17-46.86l113.4-68.92-.08-1.17-55.33-30.89Z"/><path class="cls-91" d="M464.27-246.79S703.76-107.54,703.76-107.47L536-9.09C494,27.38,418.57,29.55,399.56,29.44h0c-1.51,0-2.56,0-3.07,0l-14.07,9.13-147-85.43L348.7-115.77l-.05-1.17L293.35-147.8Z"/><path class="cls-92" d="M464.26-246.65s239.31,139.1,239.31,139.17L536-9.18C494,27.28,418.55,29.44,399.58,29.33h0c-1.52,0-2.56,0-3.07,0l-14.05,9.12L235.56-46.93l113.26-68.84,0-1.17-55.26-30.85Z"/><path class="cls-93" d="M464.24-246.51s239.13,138.95,239.13,139L535.92-9.27c-42,36.45-117.41,38.59-136.33,38.49h0c-1.52,0-2.57,0-3.07,0l-14,9.1L235.75-47l113.2-68.8v-1.17l-55.22-30.83Z"/><path class="cls-94" d="M464.23-246.37s239,138.8,239,138.87L535.87-9.35c-42,36.44-117.38,38.57-136.25,38.46h0c-1.52,0-2.57,0-3.06,0l-14,9.09L235.95-47l113.13-68.76,0-1.17-55.19-30.81Z"/><path class="cls-95" d="M464.22-246.23S703-107.59,703-107.52L535.82-9.44C493.87,27,418.46,29.1,399.64,29h0c-1.53,0-2.57,0-3.06,0l-14,9.08L236.14-47l113.06-68.71.07-1.17L294.12-147.7Z"/><path class="cls-96" d="M464.21-246.09s238.6,138.49,238.6,138.56l-167.05,98C493.84,26.88,418.43,29,399.66,28.88h0c-1.53,0-2.57,0-3.06,0l-14,9.07-146.27-85,113-68.67.1-1.17-55.12-30.77Z"/><path class="cls-97" d="M464.19-245.95S702.61-107.61,702.61-107.54L535.7-9.61c-41.91,36.39-117.3,38.49-136,38.38h0c-1.53,0-2.58,0-3.06,0l-14,9.06L236.53-47.1l112.93-68.63.13-1.17-55.09-30.75Z"/><path class="cls-98" d="M464.18-245.81S702.43-107.62,702.43-107.55L535.64-9.7C493.76,26.69,418.37,28.77,399.7,28.66h0c-1.54,0-2.58,0-3.06,0l-13.95,9-146-84.8,112.86-68.59.16-1.17-55.06-30.73Z"/><path class="cls-99" d="M464.17-245.67s238.07,138,238.07,138.11L535.59-9.78C493.72,26.59,418.35,28.66,399.72,28.55h0c-1.54,0-2.58,0-3.06,0l-13.93,9L236.93-47.17l112.79-68.55.19-1.17-55-30.71Z"/><path class="cls-100" d="M464.16-245.53s237.89,137.88,237.89,138L535.53-9.87c-41.85,36.36-117.21,38.41-135.79,38.3h0c-1.54,0-2.58,0-3.05,0l-13.91,9L237.12-47.2l112.72-68.51.22-1.17-55-30.69Z"/><path class="cls-101" d="M464.14-245.39s237.71,137.73,237.71,137.8L535.47-10C493.64,26.39,418.29,28.43,399.76,28.32h0c-1.54,0-2.59,0-3.05,0l-13.9,9L237.31-47.23,350-115.7l.25-1.17-55-30.67Z"/><path class="cls-102" d="M464.13-245.25S701.67-107.67,701.67-107.59L535.42-10C493.61,26.29,418.26,28.28,399.78,28.21h0c-1.55,0-2.59,0-3,0l-13.88,9L237.51-47.27,350.1-115.69l.28-1.17-54.92-30.65Z"/><path class="cls-103" d="M464.12-245.11s237.36,137.42,237.36,137.5L535.36-10.13C493.57,26.19,418.23,28.17,399.8,28.1h0c-1.55,0-2.59,0-3,0L382.9,37,237.71-47.3l112.52-68.38.31-1.17-54.89-30.64Z"/><path class="cls-104" d="M464.1-245S701.28-107.69,701.28-107.62l-166,97.4C493.53,26.09,418.2,28.06,399.82,28h0c-1.55,0-2.6,0-3,0l-13.84,9-145-84.26,112.45-68.35.34-1.17-54.86-30.62Z"/><path class="cls-105" d="M464.09-244.83s237,137.12,237,137.2L535.24-10.3C493.49,26,418.17,27.95,399.84,27.87h0c-1.56,0-2.6,0-3,0L383,36.8,238.09-47.37l112.38-68.3.37-1.17L296-147.44Z"/><path class="cls-106" d="M464.08-244.68s236.83,137,236.83,137L535.19-10.39c-41.73,36.27-117,38.22-135.33,38.14h0c-1.56,0-2.6,0-3,0l-13.81,9L238.29-47.4l112.32-68.26.4-1.17-54.79-30.58Z"/><path class="cls-107" d="M464.07-244.54s236.65,136.81,236.65,136.9L535.14-10.47c-41.71,36.26-117,38.2-135.25,38.12h0c-1.56,0-2.6,0-3,0l-13.79,8.94-144.57-84,112.25-68.22.43-1.17-54.76-30.56Z"/><path class="cls-108" d="M464.05-244.4S700.52-107.74,700.52-107.66L535.07-10.56c-41.69,36.24-117,38.17-135.17,38.09h0c-1.57,0-2.6,0-3,0l-13.77,8.93L238.67-47.47l112.18-68.18.46-1.17-54.72-30.54Z"/><path class="cls-109" d="M464-244.26s236.3,136.51,236.3,136.59L535-10.64c-41.68,36.23-117,38.15-135.09,38.06h0c-1.57,0-2.61,0-3,0L383.13,36.3,238.87-47.51,351-115.64l.49-1.17-54.69-30.52Z"/><path class="cls-110" d="M464-244.12S700.15-107.77,700.15-107.68L535-10.73c-41.66,36.22-116.93,38.12-135,38h0c-1.57,0-2.61,0-3,0l-13.73,8.91L239.07-47.54l112-68.1.52-1.17L297-147.31Z"/><path class="cls-111" d="M464-244S700-107.78,700-107.69L534.91-10.82C493.27,25.39,418,27.28,400,27.2h0c-1.57,0-2.61,0-3,0l-13.72,8.9-144-83.63,112-68.06.55-1.17-54.62-30.48Z"/><path class="cls-112" d="M464-243.84S699.77-107.79,699.77-107.7L534.85-10.9C493.23,25.29,418,27.17,400,27.08h0c-1.58,0-2.62,0-3,0l-13.7,8.89L239.46-47.61l111.91-68,.58-1.17-54.59-30.46Z"/><path class="cls-113" d="M464-243.7s235.59,135.9,235.59,136L534.79-11c-41.6,36.18-116.85,38-134.79,38h0c-1.58,0-2.62,0-3,0L383.3,35.8,239.65-47.64l111.84-68,.61-1.17-54.56-30.44Z"/><path class="cls-114" d="M464-243.56S699.39-107.81,699.39-107.73L534.74-11.07C493.16,25.09,417.92,26.94,400,26.86h0c-1.58,0-2.62,0-3,0l-13.66,8.86L239.85-47.68l111.77-67.93.64-1.17L297.74-147.2Z"/><path class="cls-115" d="M464-243.42S699.2-107.83,699.2-107.74L534.68-11.16C493.12,25,417.89,26.83,400,26.75h0c-1.59,0-2.62,0-3,0l-13.65,8.85L240-47.71,351.76-115.6l.67-1.17-54.49-30.4Z"/><path class="cls-116" d="M464-243.28S699-107.84,699-107.75L534.62-11.25c-41.54,36.14-116.76,38-134.56,37.88h0c-1.59,0-2.62,0-3,0l-13.63,8.84L240.24-47.75,351.88-115.6l.7-1.17-54.45-30.39Z"/><path class="cls-117" d="M463.94-243.14S698.82-107.85,698.82-107.76L534.56-11.33C493,24.79,417.83,26.61,400.09,26.52h0c-1.59,0-2.63,0-3,0l-13.61,8.83-143-83.09L352-115.59l.72-1.17-54.42-30.37Z"/><path class="cls-118" d="M463.93-243s234.7,135.14,234.7,135.23L534.51-11.42C493,24.69,417.8,26.5,400.11,26.41h0c-1.59,0-2.63,0-3,0L383.5,35.18l-142.87-83,111.5-67.77.76-1.17L298.5-147.1Z"/><path class="cls-119" d="M463.91-242.86s234.52,135,234.52,135.08l-164,96.27C493,24.59,417.77,26.39,400.12,26.3h0c-1.6,0-2.63,0-3,0l-13.57,8.81L240.82-47.85l111.44-67.73.78-1.17-54.35-30.33Z"/><path class="cls-120" d="M463.9-242.72S698.25-107.89,698.25-107.79L534.39-11.59C492.93,24.49,417.74,26.27,400.14,26.18h0c-1.6,0-2.64,0-3,0l-13.56,8.8L241-47.88l111.37-67.69.81-1.17L298.88-147Z"/><path class="cls-121" d="M463.89-242.58S698.06-107.9,698.06-107.8L534.34-11.68C492.89,24.39,417.72,26.16,400.17,26.07h0c-1.6,0-2.64,0-3,0l-13.54,8.79L241.22-47.92l111.3-67.65.84-1.17L299.07-147Z"/><path class="cls-122" d="M463.88-242.43s234,134.53,234,134.62l-163.59,96C492.86,24.29,417.69,26.05,400.19,26h0c-1.61,0-2.64,0-3,0l-13.52,8.77L241.41-47.95l111.23-67.6.88-1.17L299.27-147Z"/><path class="cls-123" d="M463.86-242.29S697.68-107.92,697.68-107.82l-163.46,96c-41.41,36-116.56,37.79-134,37.7h0c-1.61,0-2.64,0-3,0l-13.5,8.76L241.6-48l111.17-67.56.9-1.17L299.45-147Z"/><path class="cls-124" d="M463.85-242.15S697.49-107.93,697.49-107.83L534.17-11.94c-41.39,36-116.54,37.77-133.94,37.67h0c-1.61,0-2.65,0-3,0l-13.48,8.75L241.8-48l111.1-67.52.93-1.17-54.19-30.23Z"/><path class="cls-125" d="M463.84-242S697.3-107.94,697.3-107.85L534.11-12C492.74,24,417.6,25.72,400.25,25.62h0c-1.62,0-2.65,0-3,0l-13.47,8.74L242-48.05l111-67.48,1-1.17-54.15-30.21Z"/><path class="cls-126" d="M463.83-241.87S697.11-108,697.11-107.86L534.06-12.11c-41.35,36-116.48,37.71-133.78,37.62h0c-1.62,0-2.65,0-3,0l-13.45,8.73L242.19-48.09l111-67.44,1-1.17L300-146.89Z"/><path class="cls-127" d="M463.81-241.73S696.92-108,696.92-107.87L534-12.19c-41.33,36-116.45,37.69-133.71,37.59h0c-1.62,0-2.65,0-3,0l-13.43,8.72L242.38-48.12l110.89-67.4,1-1.17-54.09-30.17Z"/><path class="cls-128" d="M463.8-241.59S696.73-108,696.73-107.88L533.94-12.28c-41.31,36-116.42,37.66-133.63,37.57h0c-1.62,0-2.66,0-3,0L383.9,33.94,242.58-48.15l110.83-67.36,1.05-1.17-54.05-30.16Z"/><path class="cls-129" d="M463.79-241.45S696.54-108,696.54-107.89L533.88-12.37c-41.29,36-116.4,37.64-133.55,37.54h0c-1.63,0-2.66,0-3,0l-13.4,8.69-141.17-82L353.54-115.5l1.08-1.17-54-30.14Z"/><path class="cls-130" d="M463.78-241.31S696.36-108,696.36-107.9L533.83-12.45C492.56,23.49,417.46,25.16,400.35,25.06h0c-1.63,0-2.66,0-3,0L384,33.7,243-48.22,353.67-115.5l1.11-1.17-54-30.12Z"/><path class="cls-131" d="M463.76-241.17S696.16-108,696.16-107.91L533.77-12.54C492.51,23.39,417.43,25,400.37,24.95h0c-1.63,0-2.66,0-3,0L384,33.57,243.16-48.26l110.62-67.23,1.14-1.17-54-30.1Z"/><path class="cls-132" d="M463.75-241S696-108,696-107.92L533.71-12.63C492.48,23.29,417.4,24.94,400.39,24.84h0c-1.64,0-2.67,0-3,0l-13.34,8.66L243.36-48.29l110.56-67.19,1.17-1.17-53.92-30.08Z"/><path class="cls-133" d="M463.74-240.89s232,132.85,232,133L533.66-12.71c-41.21,35.9-116.28,37.54-133.24,37.43h0c-1.64,0-2.67,0-3,0L384.1,33.32,243.56-48.32,354-115.48l1.2-1.17L301.36-146.7Z"/><path class="cls-134" d="M463.73-240.75S695.6-108.05,695.6-107.94L533.6-12.8c-41.2,35.89-116.26,37.51-133.17,37.41h0c-1.64,0-2.67,0-3,0L384.15,33.2,243.76-48.36l110.42-67.11,1.23-1.17-53.85-30Z"/><path class="cls-135" d="M463.71-240.61S695.4-108.06,695.4-108L533.54-12.88C492.36,23,417.31,24.6,400.45,24.5h0c-1.65,0-2.67,0-3,0l-13.29,8.63L243.94-48.39,354.3-115.46l1.26-1.17-53.82-30Z"/><path class="cls-136" d="M463.7-240.47S695.21-108.08,695.21-108L533.49-13c-41.16,35.86-116.2,37.46-133,37.36h0c-1.65,0-2.68,0-3,0L384.22,33,244.14-48.43l110.28-67,1.29-1.17-53.79-30Z"/><path class="cls-137" d="M463.69-240.33S695-108.09,695-108L533.43-13.06C492.29,22.79,417.26,24.38,400.5,24.27h0c-1.65,0-2.68,0-3,0l-13.25,8.6L244.34-48.46l110.22-67,1.32-1.17-53.75-30Z"/><path class="cls-138" d="M463.67-240.19S694.83-108.1,694.83-108L533.37-13.14c-41.12,35.83-116.14,37.41-132.86,37.3h0c-1.66,0-2.68,0-3,0L384.3,32.7,244.53-48.5l110.15-66.94,1.35-1.17-53.72-30Z"/><path class="cls-139" d="M463.66-240s231,131.93,231,132L533.31-13.23C492.21,22.59,417.2,24.16,400.53,24h0c-1.66,0-2.68,0-3,0l-13.22,8.58L244.72-48.53l110.08-66.9,1.38-1.17L302.5-146.54Z"/><path class="cls-140" d="M463.65-239.9S694.45-108.12,694.45-108L533.26-13.32C492.18,22.49,417.17,24,400.55,23.94h0c-1.66,0-2.69,0-3,0l-13.2,8.57-139.46-81,110-66.86,1.41-1.17L302.7-146.52Z"/><path class="cls-141" d="M463.64-239.76S694.27-108.13,694.27-108L533.2-13.4C492.14,22.39,417.15,23.93,400.58,23.82h0c-1.66,0-2.69,0-3,0l-13.18,8.56L245.12-48.6l109.95-66.82,1.44-1.17-53.62-29.91Z"/><path class="cls-142" d="M463.62-239.62S694.07-108.15,694.07-108L533.14-13.49c-41,35.78-116,37.31-132.55,37.2h0c-1.67,0-2.69,0-3,0l-13.17,8.55L245.31-48.63l109.88-66.78,1.47-1.17-53.58-29.89Z"/><path class="cls-143" d="M463.61-239.48S693.88-108.16,693.88-108L533.09-13.57c-41,35.77-116,37.28-132.47,37.17h0c-1.67,0-2.69,0-3,0L384.5,32.08l-139-80.75L355.32-115.4l1.5-1.17-53.55-29.87Z"/><path class="cls-144" d="M463.6-239.34S693.69-108.17,693.69-108.05L533-13.66c-41,35.75-116,37.26-132.4,37.15h0c-1.67,0-2.7,0-3,0L384.55,32,245.7-48.7l109.74-66.7,1.53-1.17-53.52-29.85Z"/><path class="cls-145" d="M463.59-239.2s229.92,131,229.92,131.14L533-13.75C492,22,417,23.49,400.66,23.37h0c-1.68,0-2.7,0-3,0l-13.11,8.51L245.9-48.73l109.67-66.66,1.56-1.17-53.48-29.83Z"/><path class="cls-146" d="M463.57-239.06s229.74,130.87,229.74,131L532.91-13.83C491.95,21.89,417,23.38,400.67,23.26h0c-1.68,0-2.7,0-3,0l-13.09,8.5L246.09-48.77,355.7-115.38l1.59-1.17-53.45-29.81Z"/><path class="cls-147" d="M463.56-238.92S693.12-108.21,693.12-108.09L532.86-13.92C491.91,21.79,417,23.27,400.7,23.15h0c-1.68,0-2.7,0-3,0l-13.08,8.49L246.29-48.8l109.54-66.57,1.62-1.17L304-146.33Z"/><path class="cls-148" d="M463.55-238.78S692.94-108.22,692.94-108.1L532.81-14c-40.93,35.7-115.86,37.16-132.09,37h0c-1.69,0-2.71,0-2.95,0l-13.06,8.48L246.48-48.84,356-115.37l1.65-1.17-53.38-29.77Z"/><path class="cls-149" d="M463.54-238.64S692.75-108.23,692.75-108.11l-160,94c-40.91,35.68-115.83,37.13-132,37h0c-1.69,0-2.71,0-2.95,0l-13,8.46L246.68-48.87l109.4-66.49,1.68-1.17-53.35-29.75Z"/><path class="cls-150" d="M463.52-238.5s229,130.26,229,130.38L532.69-14.18c-40.89,35.67-115.8,37.11-131.93,37h0c-1.69,0-2.71,0-2.95,0l-13,8.45L246.87-48.9l109.34-66.45,1.71-1.17L304.6-146.26Z"/><path class="cls-151" d="M463.51-238.36s228.85,130.1,228.85,130.23L532.63-14.26c-40.87,35.66-115.78,37.08-131.86,37h0c-1.69,0-2.71,0-2.94,0l-13,8.44-137.76-80,109.27-66.41,1.74-1.17-53.28-29.71Z"/><path class="cls-152" d="M463.5-238.22s228.68,130,228.68,130.08L532.58-14.35C491.73,21.29,416.83,22.71,400.8,22.59h0c-1.7,0-2.72,0-2.94-.05l-13,8.43L247.27-49l109.2-66.37,1.77-1.17L305-146.2Z"/><path class="cls-153" d="M463.48-238.08S692-108.28,692-108.15L532.51-14.44c-40.83,35.63-115.72,37-131.7,36.91h0c-1.7,0-2.72,0-2.94,0l-13,8.42L247.45-49l109.13-66.33,1.8-1.17-53.22-29.68Z"/><path class="cls-154" d="M463.47-237.94S691.79-108.29,691.79-108.16L532.46-14.52c-40.81,35.62-115.69,37-131.62,36.88h0c-1.7,0-2.72,0-2.94-.05l-13,8.41L247.65-49l109.07-66.29,1.83-1.17-53.18-29.66Z"/><path class="cls-155" d="M463.46-237.8S691.61-108.3,691.61-108.17L532.41-14.61c-40.79,35.6-115.66,37-131.55,36.86h0c-1.71,0-2.72,0-2.94-.05L385,30.6,247.85-49.07l109-66.24,1.86-1.17-53.15-29.64Z"/><path class="cls-156" d="M463.45-237.65s228,129.34,228,129.47L532.35-14.69c-40.77,35.59-115.64,37-131.47,36.83h0c-1.71,0-2.73,0-2.93-.05L385,30.47,248-49.11,357-115.31l1.89-1.17L305.75-146.1Z"/><path class="cls-157" d="M463.43-237.51l-157.5,91.44L359-116.47,248.23-49.14,385.06,30.35,398,22c2.07.07,89.15,2.68,134.33-36.75L691.22-108.2v-.13Z"/></g></g><polygon class="cls-158" points="381.81 27.2 381.82 35.97 596.32 -100.43 596.32 -112.03 381.81 27.2"/><polygon class="cls-159" points="239.74 -54.2 239.74 -46.57 381.82 35.97 381.81 27.2 239.74 -54.2"/><polygon class="cls-160" points="663.28 -154.14 526.55 -230.32 442.57 -224.91 440.88 -176.97 239.73 -54.2 381.8 27.2 663.28 -154.14"/><path class="cls-161" d="M535-20.52C486.85,21.8,395.07,18,395.07,18l98.78-63.41Z"/></g><path class="cls-162" d="M15.95,130c-5.42.18-4.71-5.64-.22-6.33,3.92-.6,8.61,1.55,9.72,2.1a55.45,55.45,0,0,1-4.12-6.27c-1.16-.89-4.71-3.89-5.92-8.23-1.45-5.22,4.38-5.9,6.1-1.7,1.36,3.31.7,7.72.35,9.46A51.75,51.75,0,0,0,25,123.84c-.29-2.08-.54-5.78.7-8.62,1.82-4.16,7.63-3.35,6.06,1.84A16.82,16.82,0,0,1,25.81,125a85.14,85.14,0,0,0,5.45,6.62c-.29-2.06-.57-5.84.69-8.72,1.82-4.16,7.63-3.35,6.06,1.84a16.76,16.76,0,0,1-5.82,7.88,82.13,82.13,0,0,0,6.61,6.31c-.31-1.77-.84-6.17.58-9.41,1.82-4.16,7.63-3.35,6.06,1.84a16.92,16.92,0,0,1-6.06,8.06A66.34,66.34,0,0,0,48,145.56c-.25-1.25-1.1-6.29.49-9.91,1.82-4.16,7.63-3.35,6.06,1.84-1.38,4.57-5.35,7.57-6.29,8.23a49.94,49.94,0,0,0,10,4.51c-.19-.88-1.21-6.27.46-10.07,1.82-4.16,7.63-3.35,6.06,1.84-1.42,4.71-5.61,7.76-6.37,8.28a40.63,40.63,0,0,0,6.77,1.53.34.34,0,0,1,0,.68h-.1A41.46,41.46,0,0,1,58.32,151c-.63,1.3-2.86,5.39-6.89,7.44-4.83,2.46-6.65-3.11-2.88-5.64,2.63-1.76,6.44-2.15,8.51-2.22a51.36,51.36,0,0,1-8.69-4c-.93,1.18-4,4.65-8.27,5.8-5.24,1.4-5.86-4.43-1.64-6.12,2.89-1.16,6.62-.77,8.68-.41a67.84,67.84,0,0,1-8.37-6c-.62.83-3.78,4.8-8.46,6.05-5.24,1.4-5.86-4.43-1.64-6.12,3.56-1.42,8.38-.51,9.79-.19-1.49-1.25-2.85-2.5-4.08-3.7-.89-.86-1.75-1.74-2.57-2.61-.67.9-3.81,4.79-8.43,6-5.23,1.4-5.86-4.43-1.64-6.12,3.53-1.41,8.3-.52,9.76-.2v-.05a85.45,85.45,0,0,1-5.87-7c-.65.55-4.7,3.87-9.66,4"/><path class="cls-162" d="M28.44,191.1c-4.17.7-2.73,5,.81,4.88,3.1-.14,6.35-2.51,7.12-3.1a43.16,43.16,0,0,0-2.19,5.43,13.23,13.23,0,0,0-3.26,7.21c-.3,4.22,4.26,3.84,4.93.36.53-2.74-.66-6-1.19-7.29a40.4,40.4,0,0,1,1.62-4.17,13.45,13.45,0,0,0,1.87,6.49c2,2.9,6.35,1.38,4.35-2.34a13.12,13.12,0,0,0-5.75-5.17,66.61,66.61,0,0,1,3.15-5.9,13.53,13.53,0,0,0,1.87,6.57c2,2.9,6.35,1.38,4.35-2.34a13.08,13.08,0,0,0-5.67-5.13,64,64,0,0,1,4.09-5.85c0,1.4.31,4.85,1.9,7.11,2,2.9,6.35,1.38,4.35-2.34a13.21,13.21,0,0,0-5.88-5.24,51.76,51.76,0,0,1,5.66-6c0,1,.13,5,1.9,7.51,2,2.9,6.35,1.38,4.35-2.34a13.32,13.32,0,0,0-6.08-5.33,39.08,39.08,0,0,1,6.95-5c0,.71,0,5,1.9,7.64,2,2.9,6.35,1.38,4.35-2.34A13.36,13.36,0,0,0,57.79,169a31.63,31.63,0,0,1,4.94-2.21.27.27,0,0,0-.1-.52l-.08,0a32.22,32.22,0,0,0-4.93,2.2,13.21,13.21,0,0,0-6.42-4.63c-4.07-1.14-4.61,3.41-1.34,4.76a13.57,13.57,0,0,0,6.85.39,40.09,40.09,0,0,0-6,4.38,13.21,13.21,0,0,0-7.22-3.17c-4.22-.26-3.8,4.29-.32,4.93a13.48,13.48,0,0,0,6.7-1A53.1,53.1,0,0,0,44.38,180a13.35,13.35,0,0,0-7.4-3.33c-4.22-.26-3.8,4.29-.31,4.93,2.95.54,6.49-.9,7.52-1.36-.94,1.19-1.8,2.35-2.55,3.46q-.82,1.2-1.57,2.39a13.31,13.31,0,0,0-7.38-3.31c-4.22-.26-3.8,4.29-.32,4.93,2.92.54,6.43-.88,7.5-1.35v0a66.83,66.83,0,0,0-3.42,6.25,13.37,13.37,0,0,0-8-1.59"/><path class="cls-162" d="M65.42,188c2.24-.05,6.06,3,5.36,8.34-1.65-2.92-3.65-4.27-4.61-3s1.1,1.74,2.29,3.12a4.43,4.43,0,0,1,1.3,3.56c-.17.82-2.18,3.65-4,5.25.75-2.91-.34-7.47-2.08-6.58s2.26,3.52-1,8.78a16,16,0,0,1-4.19,1.88s1.11-6-1-5.54.25,3.63-1.38,6c-1.81,0-7,.71-7,.71l-1.47-6.77a8.43,8.43,0,0,1,3.95-2.06c2-.23,1.71-1.64.55-1.85a6,6,0,0,0-4.69,1.78c-.22-1.78.16-4.7.63-5.35s3.34-3,6.13-2.62c1.09.16,1.49-.18,1.58-.74s-.58-1-1.65-1.19a7.89,7.89,0,0,0-5.09,1.39,15.22,15.22,0,0,1,3.62-5.43c.71-.48,3-.47,4.88.56.78.51,1.87,1.46,2.51.72s.09-1.25-1.26-2.24a5.45,5.45,0,0,0-3.19-1.1,8.08,8.08,0,0,1,5.5-.86A6,6,0,0,1,65.42,188"/><path class="cls-163" d="M68.17,184.75l-.58-.42-3.88,5.36-14.09,2.12c-.13.26-.26.52-.36.77l1-.15a7.52,7.52,0,0,1,3.92-.72l.36.08,8.62-1.3-2.27,3.12L49,195.42a5.18,5.18,0,0,0-.91.85h0l12.2-1.84-2.34,3.23-10.51,1.58c0,.24,0,.48,0,.73l10-1.5L55,201.7l-5.78.87a10.71,10.71,0,0,0-1.3.92l6.49-1L52.61,205l-4.55.69.15.7,3.82-.57L49,210l.11.52.43-.06,3.11-4.29.89,3.83.71-.07-1.05-4.52L54.93,203l1.44,6.2a4.47,4.47,0,0,0,.29-1.88l-1.18-5.08L57.86,199l2.27,9.76.67-.27-2.39-10.25,2.37-3.27L63.37,206a7.84,7.84,0,0,0,.43-1.29l-2.46-10.57L63.62,191l3.09,13.28.58-.64-3.12-13.4Z"/><path class="cls-162" d="M42.61,150.34c12.42-3.58,22.3,4.46,22.3,4.46s-4.09,12.06-16.51,15.64-28.48-2.67-28.48-2.67,10.27-13.84,22.7-17.42"/><path class="cls-164" d="M54.38,154.15a26.54,26.54,0,0,0-3.08-1.26,13.73,13.73,0,0,0-2.18-.55,7,7,0,0,0-.82-.09A17,17,0,0,1,51,153.5c.81.44,1.77,1,2.81,1.63l1.64,1,.41.25c-2.67.79-5.23,1.57-7.64,2.33l-.06,0a23.9,23.9,0,0,0-7.45-3.19,12.78,12.78,0,0,0-2.45-.31c-.58,0-.9,0-.9,0l.87.18a17,17,0,0,1,2.28.74,40.91,40.91,0,0,1,6,3.11c-2.77.87-5.32,1.7-7.58,2.44l-.12-.08-.67-.41c-.45-.26-.88-.51-1.31-.72a15,15,0,0,0-2.34-1,8.59,8.59,0,0,0-1.67-.35c-.4,0-.62,0-.62,0l.6.12a10.44,10.44,0,0,1,1.57.55A20.85,20.85,0,0,1,36.65,161c.4.23.82.49,1.24.77l.33.21c-6.17,2-10,3.43-10,3.43s4-.87,10.3-2.42l-.16.35c-.22.46-.43.9-.65,1.31a20.82,20.82,0,0,1-1.24,2.13,10.37,10.37,0,0,1-1,1.31l-.45.43s.19-.11.52-.35A8.54,8.54,0,0,0,36.73,167a15.08,15.08,0,0,0,1.47-2.06c.25-.41.49-.85.72-1.3l.35-.7.06-.13c2.31-.57,4.91-1.23,7.72-2a41.07,41.07,0,0,1-3.46,5.85A17.13,17.13,0,0,1,42,168.48l-.64.62s.28-.14.77-.46a12.66,12.66,0,0,0,1.91-1.56,23.91,23.91,0,0,0,4.61-6.67l0-.06c2.44-.65,5-1.35,7.71-2.1l-.21.43-.86,1.72c-.55,1.1-1.06,2.07-1.51,2.88a16.89,16.89,0,0,1-1.65,2.52,7.12,7.12,0,0,0,.64-.51,13.64,13.64,0,0,0,1.55-1.63,26.64,26.64,0,0,0,1.94-2.7c.34-.53.67-1.09,1-1.68l.82-1.5,2.26-.65c1.61-.47,3-.9,4.07-1.3.27-.63.41-1,.41-1s-.32-.26-.89-.65c-1.14.25-2.52.6-4.14,1.07l-2.26.66-1.5-.83c-.6-.32-1.18-.62-1.74-.89"/><path class="cls-162" d="M22,146.14a10.25,10.25,0,0,1,6.23,6.31,10.26,10.26,0,0,1-8.75,1.44c-4.79-1.56-8.61-7.09-8.61-7.09s6.34-2.23,11.14-.67"/><path class="cls-164" d="M25,149.94a10.49,10.49,0,0,0-.72-1.08,5.35,5.35,0,0,0-.58-.65,2.69,2.69,0,0,0-.24-.21,6.57,6.57,0,0,1,.61,1c.17.32.35.71.55,1.14l.31.68L25,151l-3-.92v0a9.32,9.32,0,0,0-1.71-2.66,5,5,0,0,0-.72-.64l-.29-.19.24.25a6.61,6.61,0,0,1,.58.74,16,16,0,0,1,1.27,2.33l-3-.87,0-.05-.13-.28c-.09-.18-.17-.36-.27-.52a5.85,5.85,0,0,0-.54-.82,3.39,3.39,0,0,0-.46-.48l-.2-.14.17.17a4.13,4.13,0,0,1,.39.52,8.21,8.21,0,0,1,.46.85c.08.16.15.34.23.52l.06.14c-2.44-.69-4-1.08-4-1.08s1.48.59,3.85,1.47l-.13.08-.49.28a7.83,7.83,0,0,1-.87.42,4.1,4.1,0,0,1-.62.2l-.24,0h.24a3.26,3.26,0,0,0,.66-.11,5.76,5.76,0,0,0,.92-.35l.52-.26.27-.15,0,0,2.92,1.05a16,16,0,0,1-2.4,1.13,6.65,6.65,0,0,1-.9.26l-.34.06.35,0a5,5,0,0,0,1-.09,9.34,9.34,0,0,0,2.95-1.14h0l2.95,1-.16.09-.65.37c-.42.23-.79.44-1.12.6a6.65,6.65,0,0,1-1.08.45l.32,0a5.31,5.31,0,0,0,.86-.19,10.44,10.44,0,0,0,1.22-.45l.69-.32.59-.31.87.29c.62.2,1.16.36,1.6.47.23-.14.35-.24.35-.24s0-.15-.15-.4c-.42-.17-.95-.36-1.57-.56l-.87-.28-.3-.6c-.12-.23-.24-.46-.37-.67"/><path class="cls-162" d="M15.31,177.57c6-3.71,12.34-1,12.34-1s-.36,6.92-6.34,10.63S6,190,6,190s3.34-8.76,9.32-12.47"/><path class="cls-164" d="M22,177.83a14.49,14.49,0,0,0-1.8-.2,7.45,7.45,0,0,0-1.22,0,3.91,3.91,0,0,0-.44.07,9.17,9.17,0,0,1,1.62.25c.49.11,1.07.26,1.71.44l1,.28.25.07c-1.28.81-2.51,1.6-3.66,2.35h0a13,13,0,0,0-4.37-.57,6.9,6.9,0,0,0-1.33.2c-.3.08-.47.15-.47.15l.48,0a9.12,9.12,0,0,1,1.3,0,22.31,22.31,0,0,1,3.63.74c-1.32.87-2.53,1.67-3.61,2.4L15,184l-.41-.12c-.27-.07-.54-.13-.79-.18a8.09,8.09,0,0,0-1.37-.16,4.69,4.69,0,0,0-.93.06l-.33.08.34,0a5.7,5.7,0,0,1,.9.06,11.43,11.43,0,0,1,1.32.28l.76.22.2.06c-2.93,2-4.73,3.27-4.73,3.27s2-1,5-2.78l0,.21c0,.27-.09.53-.14.78a11.2,11.2,0,0,1-.33,1.3,5.67,5.67,0,0,1-.35.84l-.17.29s.08-.09.22-.26a4.71,4.71,0,0,0,.47-.8,8.13,8.13,0,0,0,.46-1.3c.07-.25.13-.51.19-.79l.08-.42v-.08c1.13-.64,2.39-1.37,3.75-2.17a22.32,22.32,0,0,1-.95,3.57,9.25,9.25,0,0,1-.54,1.19l-.25.42s.13-.12.34-.35a7,7,0,0,0,.77-1.1A13,13,0,0,0,20,181.95v0c1.18-.7,2.43-1.45,3.73-2.24l0,.25-.2,1c-.12.65-.25,1.24-.37,1.73a9.18,9.18,0,0,1-.49,1.56,3.8,3.8,0,0,0,.26-.36,7.27,7.27,0,0,0,.57-1.08,14.55,14.55,0,0,0,.62-1.7c.1-.33.19-.67.28-1l.21-.91,1.09-.67c.78-.48,1.42-.91,1.94-1.28.05-.37.06-.59.06-.59s-.21-.09-.56-.21c-.56.3-1.23.69-2,1.17l-1.09.68-.91-.22-1-.21"/><circle class="cls-165" cx="25.64" cy="98.86" r="2.93"/><circle class="cls-165" cx="11.67" cy="116.83" r="2.2"/><circle class="cls-165" cx="7.74" cy="96.08" r="0.98"/><circle class="cls-165" cx="13.54" cy="164.36" r="1.46"/><line class="cls-166" x1="9.51" y1="169.99" x2="9.51" y2="173.25"/><line class="cls-166" x1="9.51" y1="176.41" x2="9.51" y2="179.67"/><line class="cls-166" x1="14.34" y1="174.83" x2="11.09" y2="174.83"/><line class="cls-166" x1="7.93" y1="174.83" x2="4.67" y2="174.83"/><line class="cls-167" x1="42.41" y1="104.63" x2="42.41" y2="108.19"/><line class="cls-167" x1="42.41" y1="111.64" x2="42.41" y2="115.2"/><line class="cls-167" x1="47.69" y1="109.92" x2="44.13" y2="109.92"/><line class="cls-167" x1="40.68" y1="109.92" x2="37.12" y2="109.92"/><circle class="cls-168" cx="4.14" cy="138.09" r="3.64"/><circle class="cls-168" cx="13.9" cy="202.66" r="3.94"/><path class="cls-162" d="M458.46,165.51c-8.54,2-15-3.72-15-3.72s3.15-8.05,11.69-10.09,19.24,2.71,19.24,2.71-7.4,9.07-15.95,11.1"/><path class="cls-164" d="M450.59,162.55a18,18,0,0,0,2,.95,9.26,9.26,0,0,0,1.46.45,5,5,0,0,0,.55.09,11.54,11.54,0,0,1-1.81-.94c-.54-.32-1.17-.73-1.86-1.2l-1.08-.73-.27-.18c1.84-.45,3.6-.9,5.26-1.34l0,0a16.26,16.26,0,0,0,5,2.4,8.62,8.62,0,0,0,1.65.29c.4,0,.61,0,.61,0l-.59-.15a11.64,11.64,0,0,1-1.53-.57,27.91,27.91,0,0,1-4-2.3c1.91-.51,3.66-1,5.22-1.42l.08.06.44.3c.29.19.58.37.86.53a10.23,10.23,0,0,0,1.56.73,5.76,5.76,0,0,0,1.12.29l.42,0-.41-.1a7.09,7.09,0,0,1-1-.43,14.16,14.16,0,0,1-1.45-.85l-.82-.56-.22-.15c4.25-1.19,6.9-2,6.9-2s-2.73.46-7.06,1.32l.12-.23c.16-.3.32-.6.48-.87a14.08,14.08,0,0,1,.91-1.41,7.05,7.05,0,0,1,.74-.85l.32-.28s-.13.07-.36.22a5.91,5.91,0,0,0-.87.76,10.33,10.33,0,0,0-1.06,1.35c-.18.27-.36.56-.53.86l-.26.46,0,.09c-1.59.32-3.37.68-5.3,1.09a28,28,0,0,1,2.53-3.86,11.61,11.61,0,0,1,1.1-1.2l.46-.4s-.2.09-.54.29a8.73,8.73,0,0,0-1.34,1,16.24,16.24,0,0,0-3.34,4.38l0,0c-1.68.36-3.45.76-5.3,1.18l.16-.28.64-1.14c.41-.73.78-1.37,1.12-1.9a11.48,11.48,0,0,1,1.2-1.66,4.85,4.85,0,0,0-.45.33,9.35,9.35,0,0,0-1.1,1.06,18.1,18.1,0,0,0-1.4,1.77c-.24.35-.49.72-.73,1.11l-.6,1-1.56.37c-1.11.27-2,.52-2.81.76-.21.42-.31.68-.31.68s.21.18.58.47c.79-.13,1.73-.33,2.84-.59l1.56-.37,1,.61c.4.24.78.46,1.16.66"/><path class="cls-162" d="M449.65,196.55a10.66,10.66,0,0,1-6.89-6.12,10.66,10.66,0,0,1,9-2.09c5.08,1.29,9.41,6.76,9.41,6.76s-6.42,2.74-11.5,1.45"/><path class="cls-164" d="M446.31,192.81a10.73,10.73,0,0,0,.82,1.07,5.43,5.43,0,0,0,.65.64,2.91,2.91,0,0,0,.27.2,6.89,6.89,0,0,1-.7-1c-.19-.32-.41-.71-.65-1.15l-.37-.68-.09-.17,3.15.75v0a9.71,9.71,0,0,0,2,2.64,5.15,5.15,0,0,0,.79.61l.32.17-.27-.24a6.84,6.84,0,0,1-.65-.72,16.6,16.6,0,0,1-1.48-2.33l3.15.7,0,.05.15.28c.1.18.2.36.31.52a5.94,5.94,0,0,0,.62.82,3.55,3.55,0,0,0,.51.46l.21.13-.19-.17a4.36,4.36,0,0,1-.44-.52,8.53,8.53,0,0,1-.53-.85c-.09-.16-.18-.34-.28-.52l-.07-.14c2.58.55,4.2.85,4.2.85s-1.57-.51-4.09-1.26l.13-.09.49-.33a8.39,8.39,0,0,1,.87-.49,4.24,4.24,0,0,1,.63-.24l.24-.06-.25,0a3.42,3.42,0,0,0-.67.16,6.13,6.13,0,0,0-.93.42l-.52.31-.27.17,0,0-3.1-.89a16.65,16.65,0,0,1,2.41-1.34,7.07,7.07,0,0,1,.91-.33l.35-.08h-.36a5.09,5.09,0,0,0-1,.16,9.69,9.69,0,0,0-3,1.39l0,0-3.12-.84.16-.11.65-.43c.42-.27.79-.51,1.12-.7a6.9,6.9,0,0,1,1.09-.54l-.33,0a5.48,5.48,0,0,0-.87.25A10.84,10.84,0,0,0,447,190l-.7.38-.59.36-.92-.24c-.66-.17-1.22-.29-1.69-.38l-.35.27s.06.15.18.41c.45.15,1,.31,1.67.47l.93.23.35.6c.14.24.29.46.43.67"/><path class="cls-162" d="M419.34,175.74c-1.67-2.09-1.5-8,4-11.13-1.58,3.68-1.42,6.56.46,6.57s.86-2.3,1.31-4.43a5.3,5.3,0,0,1,2.44-3.8c.9-.43,5-.57,7.9,0-3.31,1.39-6.85,5.73-4.75,6.74s1.71-4.7,9.09-5.37a19.08,19.08,0,0,1,4.82,2.62s-6.5,3.29-4.54,5,3.27-2.86,6.71-3c1.36,1.69,5.71,6.09,5.71,6.09l-5.37,6.3a10.07,10.07,0,0,1-4.81-2.27c-1.66-1.73-2.79-.44-2.16.81a7.18,7.18,0,0,0,5.09,3.17c-1.53,1.5-4.58,3.25-5.54,3.27s-5.29-1-6.93-3.94c-.63-1.15-1.24-1.29-1.84-1s-.53,1.28.06,2.43a9.41,9.41,0,0,0,5,3.83,18.17,18.17,0,0,1-7.78.48c-1-.33-2.59-2.47-3-5-.08-1.11,0-2.83-1.13-2.91s-1.26.82-1.21,2.82a6.5,6.5,0,0,0,1.26,3.83,9.65,9.65,0,0,1-4.79-4.6,7.13,7.13,0,0,1,0-6.44"/><path class="cls-164" d="M414.24,175.48c0,.17,0,.64,0,.85l7.91-.18L434.38,188c.34-.06.68-.13,1-.21l-.84-.82a9,9,0,0,1-3.52-3.2q-.1-.2-.18-.4l-7.47-7.26L428,176l10.29,10a6.16,6.16,0,0,0,1.47.24h0L429.16,176l4.76-.11,9.11,8.85.72-.49-8.64-8.39,4.76-.11,5,4.86a12.8,12.8,0,0,0,1.81.57l-5.63-5.46,3.69-.09,3.95,3.83.55-.65-3.31-3.21,6.17-.14.41-.48-.36-.37-6.33.15,3-3.62-.58-.63-3.54,4.27-3.53.08L446,169a5.36,5.36,0,0,0-2,1.08l-4,4.8-4.83.11,7.64-9.23-.74-.43-8,9.69-4.83.11L438,164.64a9.22,9.22,0,0,0-1.54.53l-8.27,10-4.65.11,10.39-12.55-1-.09-10.48,12.67Z"/><path class="cls-162" d="M431.15,164.91a14.43,14.43,0,0,0-8.79-4.91,25.74,25.74,0,0,0-7.72.19,70,70,0,0,0,11.8-6.08,10.64,10.64,0,0,0,7.95,3.53c5.59,0,11.13-4.89,11.06-4.91a13.46,13.46,0,0,0-9-2.61,22.69,22.69,0,0,0-6.73,1.77,70.21,70.21,0,0,0,9.31-8.09,9.18,9.18,0,0,0,7.13,1.38c4.56-1,8.25-5.9,8.19-5.9a11.26,11.26,0,0,0-7.91-.65,17.77,17.77,0,0,0-4.92,2.44,69.9,69.9,0,0,0,5.66-7.49,7.88,7.88,0,0,0,6.06,0c3.62-1.52,6-6,6-6a9.41,9.41,0,0,0-6.69.54A14.15,14.15,0,0,0,449,130.6q1.57-2.68,2.91-5.51a.94.94,0,0,0,.06-.19,12.23,12.23,0,0,0,4.13-5.46,12.76,12.76,0,0,0,0-8.07,18.69,18.69,0,0,0-4.37,6.49,17.09,17.09,0,0,0-.83,6.53,1,1,0,0,0-.11.16q-1.31,2.77-2.86,5.41a9.4,9.4,0,0,0,.18-4.15,8.28,8.28,0,0,0-3.92-5.16,15.19,15.19,0,0,0-.89,7,9.87,9.87,0,0,0,2.82,5.2,68.73,68.73,0,0,1-5.56,7.35,10.92,10.92,0,0,0,1.2-5.13,9.72,9.72,0,0,0-3.61-6.7,17.7,17.7,0,0,0-2.3,7.81,12,12,0,0,0,2.26,6.7,68.92,68.92,0,0,1-9.14,7.95,12.68,12.68,0,0,0,2.95-5.94c.75-4.92-2.67-8.53-2.62-8.54a21,21,0,0,0-4.42,8.29,14.58,14.58,0,0,0,.88,8.38,68.65,68.65,0,0,1-11.59,6,13.59,13.59,0,0,0,4.79-5.55c2-4.94-.67-9.53-.61-9.53a23.18,23.18,0,0,0-6.66,7.49,15.77,15.77,0,0,0-1.32,9q-2.43.81-4.93,1.44a.66.66,0,1,0,.31,1.23q2.55-.64,5-1.47a11.27,11.27,0,0,0,7.45,5.73c5.92,1.38,13-2.39,12.93-2.43"/><path class="cls-162" d="M431.16,187.81a14.43,14.43,0,0,1-8.61,5.22,25.77,25.77,0,0,1-7.72.08,70,70,0,0,1,12,5.66,10.64,10.64,0,0,1,7.82-3.81c5.58-.17,11.29,4.49,11.22,4.51a13.46,13.46,0,0,1-8.91,2.93,22.7,22.7,0,0,1-6.79-1.53,70.16,70.16,0,0,1,9.59,7.76,9.19,9.19,0,0,1,7.08-1.63c4.59.86,8.45,5.6,8.4,5.61a11.26,11.26,0,0,1-7.88.93,17.8,17.8,0,0,1-5-2.27,69.92,69.92,0,0,1,5.92,7.29,7.88,7.88,0,0,1,6.05-.23c3.67,1.39,6.21,5.83,6.18,5.83a9.4,9.4,0,0,1-6.71-.31,14.16,14.16,0,0,1-3.58-2.4q1.66,2.62,3.1,5.4a1.07,1.07,0,0,1,.06.19,12.23,12.23,0,0,1,4.32,5.31,12.74,12.74,0,0,1,.26,8.07,18.7,18.7,0,0,1-4.6-6.33,17.12,17.12,0,0,1-1.06-6.5,1,1,0,0,1-.11-.16q-1.41-2.73-3-5.3a9.4,9.4,0,0,1,.33,4.15,8.29,8.29,0,0,1-3.74,5.29,15.17,15.17,0,0,1-1.14-7,9.87,9.87,0,0,1,2.64-5.29,68.78,68.78,0,0,0-5.82-7.15,10.93,10.93,0,0,1,1.38,5.08,9.72,9.72,0,0,1-3.37,6.82,17.69,17.69,0,0,1-2.58-7.73,12,12,0,0,1,2-6.77,69,69,0,0,0-9.42-7.62,12.68,12.68,0,0,1,3.16,5.83c.92,4.89-2.36,8.62-2.32,8.63a21,21,0,0,1-4.7-8.12,14.59,14.59,0,0,1,.59-8.41,68.74,68.74,0,0,0-11.79-5.56,13.6,13.6,0,0,1,5,5.38c2.2,4.87-.33,9.55-.27,9.54a23.18,23.18,0,0,1-6.92-7.25,15.77,15.77,0,0,1-1.63-8.93q-2.45-.72-5-1.27a.66.66,0,1,1,.27-1.24q2.57.55,5.07,1.29a11.27,11.27,0,0,1,7.24-6c5.87-1.59,13.09,1.93,13,2"/><circle class="cls-168" cx="445.31" cy="104.66" r="5.12"/><circle class="cls-168" cx="472.5" cy="125" r="1.9"/><circle class="cls-168" cx="428.9" cy="116.76" r="2.84"/><circle class="cls-168" cx="468.7" cy="110.59" r="0.67"/><line class="cls-166" x1="470.08" y1="166.98" x2="470.08" y2="170.24"/><line class="cls-166" x1="470.08" y1="173.4" x2="470.08" y2="176.66"/><line class="cls-166" x1="474.92" y1="171.82" x2="471.66" y2="171.82"/><line class="cls-166" x1="468.5" y1="171.82" x2="465.24" y2="171.82"/><line class="cls-166" x1="464.11" y1="135.53" x2="464.11" y2="138.79"/><line class="cls-166" x1="464.11" y1="141.95" x2="464.11" y2="145.2"/><line class="cls-166" x1="468.95" y1="140.37" x2="465.69" y2="140.37"/><line class="cls-166" x1="462.53" y1="140.37" x2="459.27" y2="140.37"/><circle class="cls-168" cx="458.7" cy="182.48" r="2.42"/><circle class="cls-168" cx="469.12" cy="200.6" r="3.94"/><path class="cls-169" d="M88.33,53.6C63.81,77.13,52.58,108,54.89,137.88,58.2,180.65,89,221.76,136.1,246.11c63.55,32.88,145.2,33.08,206.49-1.54,57.29-32.36,91-86.17,95.15-139.27,1-13.13.17-26.7-6.92-38.73-17.22-29.23-61.73-27.05-97.74-23.85-30,2.66-38.6-8.86-63.38-18.47A188,188,0,0,0,198.48,11.9c-38.81.84-76.89,13.93-103.06,35.41Q91.71,50.36,88.33,53.6Z"/><path class="cls-170" d="M86.33,42.24C61.81,65.78,50.57,96.62,52.89,126.53,56.2,169.3,87,210.4,134.09,234.75c63.55,32.88,145.2,33.08,206.49-1.54,57.29-32.36,91-86.17,95.15-139.27,1-13.13.17-26.7-6.92-38.73C411.6,26,367.09,28.16,331.09,31.36c-30,2.66-38.6-8.86-63.38-18.47A188,188,0,0,0,196.47.54C157.66,1.39,119.58,14.47,93.41,36Q89.7,39,86.33,42.24Z"/></g></g></svg>