<svg xmlns="http://www.w3.org/2000/svg" xmlns:xlink="http://www.w3.org/1999/xlink" viewBox="0 0 211.26 65.41"><defs><style>.cls-1,.cls-7,.cls-8{fill:none;}.cls-2{isolation:isolate;}.cls-3{clip-path:url(#clip-path);}.cls-4{mix-blend-mode:multiply;opacity:0.31;}.cls-5{fill:#198680;}.cls-6{fill:#74b9a1;}.cls-7,.cls-8{stroke:#00953b;stroke-linecap:round;stroke-miterlimit:10;}.cls-7{stroke-width:1.19px;}.cls-8{stroke-width:1.09px;}</style><clipPath id="clip-path"><rect class="cls-1" x="-247.87" y="-723.23" width="1347.46" height="660.34"/></clipPath></defs><g class="cls-2"><g id="Capa_1" data-name="Capa 1"><path class="cls-5" d="M6,15.73c-3.76-.67-2.42-4.58.78-4.39,2.79.16,5.7,2.33,6.38,2.87A38,38,0,0,1,11.2,9.29,11.9,11.9,0,0,1,8.33,2.75c-.23-3.81,3.88-3.43,4.45-.28C13.23,5,12.13,7.89,11.64,9a38.22,38.22,0,0,0,1.41,3.78A12.18,12.18,0,0,1,14.8,7c1.87-2.6,5.75-1.19,3.91,2.16a11.86,11.86,0,0,1-5.24,4.6,58.11,58.11,0,0,0,2.78,5.36A12.24,12.24,0,0,1,18,13.21c1.87-2.6,5.75-1.18,3.91,2.16a11.84,11.84,0,0,1-5.17,4.57,58.47,58.47,0,0,0,3.63,5.32c.05-1.27.32-4.38,1.78-6.4,1.87-2.6,5.75-1.18,3.9,2.16a11.9,11.9,0,0,1-5.36,4.66,47.17,47.17,0,0,0,5,5.49c0-.9.17-4.5,1.8-6.76,1.86-2.6,5.74-1.18,3.9,2.16a12,12,0,0,1-5.54,4.74,35.06,35.06,0,0,0,6.21,4.58c0-.64.09-4.5,1.8-6.88,1.87-2.59,5.75-1.18,3.9,2.16a12,12,0,0,1-5.6,4.77A28.87,28.87,0,0,0,36.64,38a.24.24,0,0,1,.14.31.24.24,0,0,1-.23.16h-.08a29.12,29.12,0,0,1-4.42-2,11.94,11.94,0,0,1-5.84,4.11c-3.69,1-4.13-3.12-1.16-4.3a12.19,12.19,0,0,1,6.19-.28,36.08,36.08,0,0,1-5.4-4,12,12,0,0,1-6.55,2.79c-3.81.19-3.38-3.92-.23-4.46a12.18,12.18,0,0,1,6,1,46.18,46.18,0,0,1-4.89-5.36A12,12,0,0,1,13.5,28.8c-3.81.2-3.39-3.91-.23-4.45,2.66-.46,5.84.88,6.77,1.31-.84-1.08-1.6-2.14-2.27-3.15-.49-.73-.95-1.45-1.39-2.17a12,12,0,0,1-6.69,2.91c-3.81.19-3.38-3.92-.23-4.46,2.64-.45,5.79.86,6.75,1.3v0a59.37,59.37,0,0,1-3-5.67A12,12,0,0,1,6,15.73"/><path class="cls-5" d="M15.45,55.51c-2-.09-1.8,2.1-.11,2.38A7.12,7.12,0,0,0,19,57.14a21.48,21.48,0,0,0-1.58,2.34,6.42,6.42,0,0,0-2.26,3.07c-.56,2,1.62,2.24,2.29.67a6.72,6.72,0,0,0,.17-3.56,20.9,20.9,0,0,1,1.19-1.8A6.51,6.51,0,0,0,19,61.11c.67,1.57,2.86,1.29,2.29-.67a6.36,6.36,0,0,0-2.19-3c.58-.76,1.28-1.6,2.08-2.46a6.53,6.53,0,0,0,.22,3.28c.67,1.57,2.85,1.29,2.29-.67a6.26,6.26,0,0,0-2.16-3,30.21,30.21,0,0,1,2.52-2.35,6.78,6.78,0,0,0,.17,3.55c.67,1.57,2.86,1.29,2.29-.67a6.33,6.33,0,0,0-2.24-3.06,24.61,24.61,0,0,1,3.27-2.26,7.07,7.07,0,0,0,.14,3.73c.67,1.57,2.85,1.29,2.28-.67a6.48,6.48,0,0,0-2.32-3.12,18.11,18.11,0,0,1,3.77-1.65,7.23,7.23,0,0,0,.13,3.79c.67,1.57,2.85,1.29,2.29-.67a6.46,6.46,0,0,0-2.36-3.14,15.64,15.64,0,0,1,2.55-.55.12.12,0,0,0,.11-.14.13.13,0,0,0-.1-.11h0a15.19,15.19,0,0,0-2.55.54A6.32,6.32,0,0,0,28.92,45c-1.81-.95-2.52,1.14-1.11,2.11A6.63,6.63,0,0,0,31,48a19.17,19.17,0,0,0-3.29,1.45,6.36,6.36,0,0,0-3.08-2.22c-2-.54-2.22,1.65-.65,2.3a6.41,6.41,0,0,0,3.26.19,27.22,27.22,0,0,0-3.17,2.22,6.47,6.47,0,0,0-3.15-2.31c-2-.55-2.23,1.64-.65,2.29A7.1,7.1,0,0,0,24,52c-.57.46-1.09.92-1.56,1.37s-.66.64-1,1A6.43,6.43,0,0,0,18.28,52c-2-.55-2.22,1.64-.64,2.29a7.13,7.13,0,0,0,3.67.12v0a30.5,30.5,0,0,0-2.24,2.6,6.35,6.35,0,0,0-3.61-1.56"/><path class="cls-5" d="M15.85,64.39l-.2,0c-.49-.18-1-.77-.66-1.84a6.59,6.59,0,0,1,2.3-3.14,17,17,0,0,1,1.18-1.79,6.43,6.43,0,0,1-3.16.49h0a1.63,1.63,0,0,1-1.46-1.65c.05-.53.51-1.13,1.63-1.08h0A6.58,6.58,0,0,1,19,56.81c.55-.71,1.16-1.42,1.79-2.1a6.54,6.54,0,0,1-3.26-.22,1.64,1.64,0,0,1-1.07-2c.17-.5.75-1,1.83-.67a6.48,6.48,0,0,1,3.11,2.2c.27-.28.55-.56.84-.83s.7-.65,1.06-1A6.36,6.36,0,0,1,20.21,52a1.62,1.62,0,0,1-1.07-1.95c.17-.5.75-1,1.83-.67a6.49,6.49,0,0,1,3.13,2.23A28.08,28.08,0,0,1,26.47,50a5.79,5.79,0,0,1-2.55-.3,1.62,1.62,0,0,1-1.07-1.95c.17-.5.75-1,1.83-.68a6.43,6.43,0,0,1,3.08,2.17,19.51,19.51,0,0,1,2.42-1.13,5.8,5.8,0,0,1-2.47-.83,1.62,1.62,0,0,1-.64-2.13c.27-.45.94-.8,1.93-.28a6.57,6.57,0,0,1,2.57,2.78A15.25,15.25,0,0,1,34,47.09h.09a.3.3,0,0,1,0,.6,16,16,0,0,0-2.19.44,6.42,6.42,0,0,1,2.14,3c.31,1.07-.16,1.66-.66,1.84a1.63,1.63,0,0,1-1.95-1,7,7,0,0,1-.2-3.61A18.83,18.83,0,0,0,28,49.76a6.4,6.4,0,0,1,2.17,3.05c.31,1.07-.16,1.66-.66,1.83a1.62,1.62,0,0,1-1.95-1,6.77,6.77,0,0,1-.23-3.45,26.2,26.2,0,0,0-2.74,1.92,6.37,6.37,0,0,1,2.13,3c.31,1.07-.16,1.66-.66,1.83a1.63,1.63,0,0,1-2-1,6.43,6.43,0,0,1-.26-3.17c-.68.59-1.36,1.22-2,1.89a6.38,6.38,0,0,1,2.07,3c.31,1.07-.16,1.65-.66,1.83a1.63,1.63,0,0,1-2-1,6.1,6.1,0,0,1-.3-2.83c-.56.63-1.1,1.27-1.59,1.91a6.47,6.47,0,0,1,2.11,3c.31,1.07-.16,1.66-.66,1.83a1.62,1.62,0,0,1-2-1,5.84,5.84,0,0,1-.32-2.65c-.29.43-.54.82-.74,1.18a6.87,6.87,0,0,1-.2,3.59A1.66,1.66,0,0,1,15.85,64.39Zm1.6-4.71a6.28,6.28,0,0,0-2.12,2.92c-.2.7,0,1.24.44,1.41a1.28,1.28,0,0,0,1.52-.86,6.7,6.7,0,0,0,.16-3.45ZM19,57.57l-.05.32A6.25,6.25,0,0,0,19.2,61a1.26,1.26,0,0,0,1.51.85c.47-.17.64-.7.44-1.4A6.07,6.07,0,0,0,19,57.57Zm2.4-2.87-.05.29a6.47,6.47,0,0,0,.21,3.18,1.29,1.29,0,0,0,1.52.86c.47-.17.64-.71.44-1.41a6.27,6.27,0,0,0-2.09-2.9Zm-6,1h0c-.73,0-1.21.26-1.26.76a1.27,1.27,0,0,0,1.17,1.27h0a6.53,6.53,0,0,0,3.4-.66A6.12,6.12,0,0,0,15.44,55.68Zm8.82-3.43v0a6.61,6.61,0,0,0,.17,3.45,1.26,1.26,0,0,0,1.51.85c.48-.17.64-.7.44-1.4A6.24,6.24,0,0,0,24.26,52.25ZM18,52.15c-.59-.1-1,.08-1.18.51a1.27,1.27,0,0,0,.87,1.5,6.73,6.73,0,0,0,3.47.13,6.09,6.09,0,0,0-2.94-2.08A1.8,1.8,0,0,0,18,52.15ZM27.71,50a6.79,6.79,0,0,0,.16,3.47,1.27,1.27,0,0,0,1.52.85c.47-.17.64-.7.43-1.4A6.14,6.14,0,0,0,27.71,50Zm-7.06-.28c-.59-.11-1,.08-1.18.5a1.29,1.29,0,0,0,.87,1.51,6.72,6.72,0,0,0,3.47.13,6.12,6.12,0,0,0-2.94-2.09Zm10.92-1.37a6.79,6.79,0,0,0,.16,3.47,1.27,1.27,0,0,0,1.52.85c.47-.16.64-.7.44-1.4A6.19,6.19,0,0,0,31.57,48.34Zm-7.21-1c-.59-.1-1,.08-1.18.51a1.27,1.27,0,0,0,.87,1.5,6.29,6.29,0,0,0,3.17.19l.3,0a6.19,6.19,0,0,0-2.94-2.1Zm3.92-2.37a.83.83,0,0,0-.91.34,1.29,1.29,0,0,0,.54,1.66,6.3,6.3,0,0,0,3.09.84h.27a6.14,6.14,0,0,0-2.44-2.65A1.68,1.68,0,0,0,28.28,44.94Z"/><path class="cls-5" d="M21.32,33.67C30.41,33,36,40,36,40s-4.59,7.71-13.68,8.34-19.22-6-19.22-6,9.11-8,18.19-8.66"/><path class="cls-6" d="M28.87,38a18.69,18.69,0,0,0-1.94-1.32,9.46,9.46,0,0,0-1.42-.7,4.79,4.79,0,0,0-.55-.19,11.59,11.59,0,0,1,1.7,1.27c.5.42,1.07.94,1.7,1.54l1,.93.25.23c-2,.15-3.84.31-5.61.48l0,0a16.69,16.69,0,0,0-4.66-3.29,9,9,0,0,0-1.64-.57c-.4-.09-.62-.12-.62-.12l.57.25a12.56,12.56,0,0,1,1.46.85,28.42,28.42,0,0,1,3.71,3c-2,.19-3.91.39-5.58.57l-.07-.07-.41-.38c-.26-.25-.53-.48-.79-.69a10.53,10.53,0,0,0-1.47-1,5.38,5.38,0,0,0-1.1-.48l-.42-.11.39.17a8.73,8.73,0,0,1,1,.62,13.92,13.92,0,0,1,1.33,1.11c.25.22.49.46.75.71l.19.19c-4.55.51-7.39.9-7.39.9s2.87,0,7.44-.16c-.05.08-.11.15-.16.22-.22.29-.43.56-.64.81a13.05,13.05,0,0,1-1.17,1.29,8.16,8.16,0,0,1-.9.75l-.37.23.4-.17a5.93,5.93,0,0,0,1-.63A10.78,10.78,0,0,0,16.14,43c.23-.24.46-.51.69-.79s.22-.29.34-.43l.06-.08,5.61-.22A28.58,28.58,0,0,1,19.59,45a11.69,11.69,0,0,1-1.33,1l-.53.33s.22-.06.6-.2a8.87,8.87,0,0,0,1.54-.8A16.42,16.42,0,0,0,24,41.5l0,0c1.78-.08,3.67-.19,5.62-.31l-.21.27-.84,1c-.54.68-1,1.28-1.46,1.76a11.75,11.75,0,0,1-1.51,1.49,3.83,3.83,0,0,0,.52-.26,8.21,8.21,0,0,0,1.3-.89A17.92,17.92,0,0,0,29.22,43c.31-.31.62-.65.94-1l.78-.92L32.6,41c1.18-.08,2.17-.19,3-.3.28-.39.43-.64.43-.64s-.19-.22-.52-.57c-.83,0-1.83,0-3,.12l-1.65.12-.91-.79c-.37-.31-.72-.6-1.07-.87"/><path class="cls-5" d="M7.77,27.75A7.24,7.24,0,0,1,11.13,33a7.24,7.24,0,0,1-6.24-.3C1.82,30.94,0,26.57,0,26.57s4.69-.6,7.77,1.18"/><path class="cls-6" d="M9.25,30.81A6.06,6.06,0,0,0,8.92,30a3.76,3.76,0,0,0-.31-.54,1.28,1.28,0,0,0-.14-.18,4.2,4.2,0,0,1,.28.78c.06.25.14.54.21.87,0,.16.07.34.11.51l0,.13c-.66-.38-1.31-.73-1.91-1.07v0a6.37,6.37,0,0,0-.79-2.08,3.27,3.27,0,0,0-.4-.54,2.36,2.36,0,0,0-.18-.18l.13.21a3.6,3.6,0,0,1,.29.59,11.47,11.47,0,0,1,.54,1.79l-1.93-1v0c0-.07,0-.14,0-.21s-.07-.27-.11-.4a6.41,6.41,0,0,0-.25-.65,3,3,0,0,0-.25-.39.84.84,0,0,0-.12-.13l.09.14a2.12,2.12,0,0,1,.19.42,5.21,5.21,0,0,1,.19.65l.09.39a.43.43,0,0,0,0,.11c-1.58-.83-2.59-1.33-2.59-1.33s.93.62,2.44,1.58l-.1,0L4,29.5l-.66.16a3,3,0,0,1-.46,0H2.72l.17,0a3,3,0,0,0,.47,0,4.06,4.06,0,0,0,.69-.11,3.2,3.2,0,0,0,.39-.1l.21-.07h0l1.85,1.16a11.75,11.75,0,0,1-1.81.43,6.31,6.31,0,0,1-.66,0H3.82l.24.07a4.38,4.38,0,0,0,.67.08,6.68,6.68,0,0,0,2.2-.36H7L8.83,32l-.12,0-.5.16-.86.25a4.63,4.63,0,0,1-.81.15,1.18,1.18,0,0,0,.22,0,3.15,3.15,0,0,0,.62,0,7.21,7.21,0,0,0,.9-.13l.52-.12.46-.13.56.33c.4.23.74.41,1,.56l.28-.12s0-.11,0-.29c-.27-.18-.6-.39-1-.62l-.56-.32-.12-.46c-.05-.18-.1-.35-.16-.51"/><path class="cls-5" d="M205.32,15.73c3.76-.67,2.41-4.58-.78-4.39-2.79.16-5.7,2.33-6.39,2.87a38.27,38.27,0,0,0,1.92-4.92,11.9,11.9,0,0,0,2.86-6.54c.23-3.81-3.88-3.43-4.45-.28C198,5,199.14,7.89,199.63,9a36.22,36.22,0,0,1-1.42,3.78A12.18,12.18,0,0,0,196.46,7c-1.87-2.6-5.75-1.19-3.9,2.16a11.76,11.76,0,0,0,5.24,4.6A58.11,58.11,0,0,1,195,19.11a12.26,12.26,0,0,0-1.76-5.9c-1.87-2.6-5.75-1.18-3.9,2.16a11.78,11.78,0,0,0,5.17,4.57,58.47,58.47,0,0,1-3.63,5.32c-.05-1.27-.33-4.38-1.78-6.4-1.87-2.6-5.75-1.18-3.91,2.16a12,12,0,0,0,5.36,4.66,46.3,46.3,0,0,1-5,5.49c0-.9-.17-4.5-1.79-6.76-1.87-2.6-5.75-1.18-3.9,2.16a12,12,0,0,0,5.54,4.74,35.14,35.14,0,0,1-6.22,4.58c0-.64-.09-4.5-1.8-6.88-1.86-2.59-5.74-1.18-3.9,2.16a12.07,12.07,0,0,0,5.61,4.77A28.87,28.87,0,0,1,174.63,38a.25.25,0,0,0-.15.31.26.26,0,0,0,.24.16h.07a29.24,29.24,0,0,0,4.43-2,11.89,11.89,0,0,0,5.84,4.11c3.68,1,4.12-3.12,1.15-4.3a12.15,12.15,0,0,0-6.18-.28,37.13,37.13,0,0,0,5.4-4A11.88,11.88,0,0,0,192,34.71c3.82.19,3.39-3.92.24-4.46a12.16,12.16,0,0,0-6,1,47,47,0,0,0,4.88-5.36,12,12,0,0,0,6.72,2.92c3.81.2,3.38-3.91.23-4.45-2.66-.46-5.85.88-6.78,1.31.84-1.08,1.6-2.14,2.27-3.15.49-.73.95-1.45,1.39-2.17a12,12,0,0,0,6.7,2.91c3.81.19,3.38-3.92.23-4.46-2.64-.45-5.8.86-6.75,1.3v0a59.14,59.14,0,0,0,3-5.67,12.06,12.06,0,0,0,7.25,1.35"/><path class="cls-5" d="M195.82,55.51c2-.09,1.79,2.1.11,2.38a7.14,7.14,0,0,1-3.67-.75,20.11,20.11,0,0,1,1.58,2.34,6.36,6.36,0,0,1,2.26,3.07c.57,2-1.62,2.24-2.29.67a6.93,6.93,0,0,1-.17-3.56,20.44,20.44,0,0,0-1.18-1.8,6.53,6.53,0,0,1-.23,3.25c-.67,1.57-2.85,1.29-2.29-.67a6.36,6.36,0,0,1,2.19-3A31.08,31.08,0,0,0,190.05,55a6.42,6.42,0,0,1-.22,3.28c-.66,1.57-2.85,1.29-2.28-.67a6.25,6.25,0,0,1,2.15-3,31.69,31.69,0,0,0-2.51-2.35,6.91,6.91,0,0,1-.18,3.55c-.67,1.57-2.85,1.29-2.29-.67A6.4,6.4,0,0,1,187,52.06a24.61,24.61,0,0,0-3.27-2.26,7.07,7.07,0,0,1-.14,3.73c-.67,1.57-2.86,1.29-2.29-.67a6.42,6.42,0,0,1,2.33-3.12,18.2,18.2,0,0,0-3.78-1.65,7.09,7.09,0,0,1-.12,3.79c-.67,1.57-2.86,1.29-2.29-.67a6.34,6.34,0,0,1,2.36-3.14,15.53,15.53,0,0,0-2.56-.55.12.12,0,0,1-.11-.14.13.13,0,0,1,.11-.11h0a15.28,15.28,0,0,1,2.54.54A6.3,6.3,0,0,1,182.35,45c1.8-.95,2.52,1.14,1.11,2.11a6.65,6.65,0,0,1-3.19.87,19.42,19.42,0,0,1,3.28,1.45,6.46,6.46,0,0,1,3.09-2.22c2-.54,2.22,1.65.64,2.3a6.4,6.4,0,0,1-3.26.19,26.39,26.39,0,0,1,3.17,2.22,6.46,6.46,0,0,1,3.16-2.31c2-.55,2.22,1.64.64,2.29a7.06,7.06,0,0,1-3.68.12c.56.46,1.08.92,1.55,1.37s.67.64,1,1A6.39,6.39,0,0,1,193,52c2-.55,2.23,1.64.65,2.29a7.13,7.13,0,0,1-3.67.12v0a30.5,30.5,0,0,1,2.24,2.6,6.36,6.36,0,0,1,3.62-1.56"/><path class="cls-5" d="M193.65,63.29a7,7,0,0,1-.19-3.59c-.21-.36-.46-.75-.75-1.18a5.84,5.84,0,0,1-.32,2.65,1.62,1.62,0,0,1-2,1c-.49-.17-1-.76-.65-1.83a6.4,6.4,0,0,1,2.11-3c-.5-.64-1-1.28-1.59-1.91a6.1,6.1,0,0,1-.3,2.83,1.63,1.63,0,0,1-2,1c-.5-.18-1-.76-.66-1.83a6.31,6.31,0,0,1,2.06-3q-1-1-2-1.89a6.43,6.43,0,0,1-.26,3.17,1.63,1.63,0,0,1-2,1c-.49-.17-1-.76-.66-1.83a6.44,6.44,0,0,1,2.13-3,26.2,26.2,0,0,0-2.74-1.92,6.75,6.75,0,0,1-.22,3.45,1.63,1.63,0,0,1-2,1c-.5-.17-1-.76-.66-1.83a6.4,6.4,0,0,1,2.18-3.05,18.58,18.58,0,0,0-3.23-1.42,6.93,6.93,0,0,1-.19,3.61,1.64,1.64,0,0,1-2,1c-.5-.18-1-.77-.66-1.84a6.42,6.42,0,0,1,2.14-3,15.73,15.73,0,0,0-2.19-.44.31.31,0,0,1-.26-.34.29.29,0,0,1,.25-.26h.09a15.48,15.48,0,0,1,2.43.51,6.5,6.5,0,0,1,2.57-2.78c1-.52,1.65-.17,1.93.28a1.63,1.63,0,0,1-.64,2.13,5.84,5.84,0,0,1-2.47.83,20.2,20.2,0,0,1,2.42,1.13A6.38,6.38,0,0,1,186.59,47c1.07-.3,1.66.18,1.83.68a1.64,1.64,0,0,1-1.07,1.95,5.81,5.81,0,0,1-2.55.3,26.42,26.42,0,0,1,2.36,1.7,6.53,6.53,0,0,1,3.14-2.23c1.08-.3,1.66.17,1.83.67A1.64,1.64,0,0,1,191.06,52a6.4,6.4,0,0,1-3.14.24c.36.31.72.63,1.06,1s.57.55.84.83a6.52,6.52,0,0,1,3.12-2.2c1.07-.31,1.65.17,1.82.67a1.62,1.62,0,0,1-1.06,2,6.54,6.54,0,0,1-3.26.22c.63.68,1.23,1.39,1.79,2.1a6.54,6.54,0,0,1,3.58-1.48h0c1.11,0,1.57.55,1.63,1.08A1.63,1.63,0,0,1,196,58.06h0a6.43,6.43,0,0,1-3.16-.49A20.91,20.91,0,0,1,194,59.36a6.65,6.65,0,0,1,2.29,3.14c.31,1.07-.16,1.66-.66,1.84l-.19,0A1.67,1.67,0,0,1,193.65,63.29Zm.16-3.59a6.62,6.62,0,0,0,.17,3.45,1.27,1.27,0,0,0,1.51.86c.48-.17.64-.71.44-1.41a6.21,6.21,0,0,0-2.11-2.92Zm-3.7.79c-.2.7,0,1.23.44,1.4a1.27,1.27,0,0,0,1.52-.85,6.35,6.35,0,0,0,.21-3.15l0-.32A6.08,6.08,0,0,0,190.11,60.49Zm-.3-5.77a6.14,6.14,0,0,0-2.09,2.9c-.21.7,0,1.24.44,1.41a1.28,1.28,0,0,0,1.51-.86,6.35,6.35,0,0,0,.21-3.18l0-.29Zm2.68,2.33a6.59,6.59,0,0,0,3.41.66h0a1.28,1.28,0,0,0,1.18-1.27c-.05-.5-.54-.79-1.26-.76h0A6.2,6.2,0,0,0,192.49,57.05Zm-7.6-1.88c-.2.7,0,1.23.44,1.4a1.27,1.27,0,0,0,1.52-.85,6.7,6.7,0,0,0,.16-3.45v0A6.24,6.24,0,0,0,184.89,55.17Zm8.14-3a6.2,6.2,0,0,0-2.94,2.08,6.73,6.73,0,0,0,3.47-.13,1.27,1.27,0,0,0,.87-1.5c-.14-.43-.58-.61-1.17-.51Zm-11.59.7c-.2.7,0,1.23.44,1.4a1.26,1.26,0,0,0,1.51-.85,6.7,6.7,0,0,0,.17-3.47A6.15,6.15,0,0,0,181.44,52.91Zm8.95-3.15a6,6,0,0,0-2.93,2.09,6.69,6.69,0,0,0,3.46-.13,1.27,1.27,0,0,0,.87-1.51c-.14-.42-.58-.61-1.17-.5Zm-12.81,1.5c-.2.7,0,1.24.44,1.4a1.26,1.26,0,0,0,1.51-.85,6.81,6.81,0,0,0,.17-3.47A6.12,6.12,0,0,0,177.58,51.26Zm9.1-3.9a6.25,6.25,0,0,0-2.94,2.1l.31,0a6.25,6.25,0,0,0,3.16-.19,1.26,1.26,0,0,0,.87-1.5c-.14-.43-.58-.61-1.17-.51Zm-4.25-2.22A6.21,6.21,0,0,0,180,47.79h.27a6.36,6.36,0,0,0,3.1-.84,1.3,1.3,0,0,0,.54-1.66.84.84,0,0,0-.91-.34A1.73,1.73,0,0,0,182.43,45.14Z"/><path class="cls-5" d="M189.94,33.67C180.86,33,175.24,40,175.24,40s4.59,7.71,13.67,8.34,19.23-6,19.23-6-9.11-8-18.2-8.66"/><path class="cls-6" d="M182.4,38a18.65,18.65,0,0,1,1.93-1.32,9.46,9.46,0,0,1,1.42-.7,4.79,4.79,0,0,1,.55-.19,12.26,12.26,0,0,0-1.7,1.27c-.49.42-1.07.94-1.7,1.54l-1,.93-.24.23c1.95.15,3.83.31,5.6.48a.08.08,0,0,0,0,0A16.72,16.72,0,0,1,192,36.94a9,9,0,0,1,1.64-.57c.4-.09.62-.12.62-.12l-.58.25a12.56,12.56,0,0,0-1.46.85,28.41,28.41,0,0,0-3.7,3c2,.19,3.91.39,5.58.57l.07-.07.4-.38c.27-.25.53-.48.8-.69a11.11,11.11,0,0,1,1.46-1,5.62,5.62,0,0,1,1.1-.48l.43-.11-.4.17a8,8,0,0,0-1,.62,13.93,13.93,0,0,0-1.34,1.11c-.24.22-.49.46-.74.71l-.2.19c4.56.51,7.4.9,7.4.9s-2.87,0-7.45-.16l.17.22q.32.44.63.81a14.43,14.43,0,0,0,1.17,1.29,8.1,8.1,0,0,0,.91.75l.37.23s-.15,0-.41-.17a6.81,6.81,0,0,1-1-.63A11.54,11.54,0,0,1,195.13,43c-.23-.24-.46-.51-.69-.79l-.35-.43-.06-.08-5.6-.22A28.6,28.6,0,0,0,191.67,45a12.65,12.65,0,0,0,1.33,1l.54.33s-.22-.06-.6-.2a8.55,8.55,0,0,1-1.55-.8,16.76,16.76,0,0,1-4.16-3.91l0,0c-1.78-.08-3.66-.19-5.62-.31l.21.27.84,1c.54.68,1,1.28,1.47,1.76a11.38,11.38,0,0,0,1.5,1.49,3.49,3.49,0,0,1-.51-.26,8.21,8.21,0,0,1-1.31-.89A17.92,17.92,0,0,1,182.05,43c-.31-.31-.62-.65-.94-1l-.79-.92L178.67,41c-1.18-.08-2.18-.19-3-.3-.28-.39-.43-.64-.43-.64s.18-.22.52-.57c.82,0,1.82,0,3,.12l1.65.12c.31-.27.61-.54.91-.79s.72-.6,1.07-.87"/><path class="cls-5" d="M203.5,27.75A7.21,7.21,0,0,0,200.14,33a7.21,7.21,0,0,0,6.23-.3c3.08-1.78,4.89-6.15,4.89-6.15s-4.69-.6-7.76,1.18"/><path class="cls-6" d="M202,30.81a7.49,7.49,0,0,1,.34-.85,3.89,3.89,0,0,1,.3-.54l.14-.18a4.8,4.8,0,0,0-.27.78q-.11.38-.21.87l-.12.51,0,.13,1.92-1.07v0a6.6,6.6,0,0,1,.79-2.08,4,4,0,0,1,.4-.54,2.36,2.36,0,0,1,.18-.18l-.13.21a6.57,6.57,0,0,0-.29.59,11.57,11.57,0,0,0-.53,1.79l1.92-1v0c0-.07,0-.14,0-.21s.07-.27.11-.4a3.69,3.69,0,0,1,.25-.65,2.22,2.22,0,0,1,.25-.39l.11-.13-.09.14c-.05.1-.12.24-.19.42s-.13.4-.19.65,0,.26-.08.39a.43.43,0,0,0,0,.11c1.58-.83,2.58-1.33,2.58-1.33s-.93.62-2.44,1.58l.1,0,.39.13c.24.07.47.12.66.16a2.93,2.93,0,0,0,.45,0h.17l-.17,0a3,3,0,0,1-.46,0,3.91,3.91,0,0,1-.69-.11,3.34,3.34,0,0,1-.4-.1l-.2-.07h0l-1.86,1.16a11.84,11.84,0,0,0,1.82.43,6.16,6.16,0,0,0,.66,0h.24l-.24.07a4.07,4.07,0,0,1-.67.08,6.76,6.76,0,0,1-2.2-.36h0c-.59.36-1.22.74-1.88,1.12l.13,0,.5.16c.32.1.61.19.86.25a4.63,4.63,0,0,0,.81.15l-.23,0a3,3,0,0,1-.61,0,7.35,7.35,0,0,1-.91-.13l-.52-.12-.45-.13-.56.33c-.4.23-.75.41-1,.56l-.27-.12s0-.11,0-.29c.26-.18.6-.39,1-.62l.56-.32.12-.46c0-.18.1-.35.15-.51"/><rect class="cls-7" x="24.81" y="10.54" width="161.64" height="47.75" rx="10.09"/><line class="cls-7" x1="121.46" y1="64.41" x2="160.48" y2="64.41"/><line class="cls-7" x1="156.73" y1="61.67" x2="170.62" y2="61.67"/><line class="cls-7" x1="167.17" y1="64.81" x2="170.62" y2="64.81"/><line class="cls-7" x1="175.28" y1="60.66" x2="177.21" y2="60.66"/><line class="cls-8" x1="81.85" y1="4.28" x2="46.23" y2="4.28"/><line class="cls-8" x1="49.65" y1="6.78" x2="36.98" y2="6.78"/><line class="cls-8" x1="40.12" y1="3.91" x2="36.98" y2="3.91"/><line class="cls-8" x1="32.72" y1="7.71" x2="30.96" y2="7.71"/></g></g></svg>