<svg xmlns="http://www.w3.org/2000/svg" xmlns:xlink="http://www.w3.org/1999/xlink" viewBox="0 0 401 237.91"><defs><style>.cls-1,.cls-10,.cls-11,.cls-37,.cls-8,.cls-9{fill:none;}.cls-2{opacity:0.46;}.cls-3{clip-path:url(#clip-path);}.cls-4{fill:#abd19c;}.cls-5{fill:#198680;}.cls-6{fill:#b4dff1;}.cls-7{fill:#74b9a1;}.cls-10,.cls-11,.cls-8,.cls-9{stroke:#fff;}.cls-10,.cls-11,.cls-37,.cls-8,.cls-9{stroke-miterlimit:10;}.cls-8{stroke-width:1.11px;}.cls-10,.cls-9{stroke-linecap:round;}.cls-9{stroke-width:0.7px;}.cls-10{stroke-width:0.76px;}.cls-11{stroke-width:1.01px;}.cls-12{fill:#03635a;}.cls-13{fill:#03847a;}.cls-14,.cls-16{fill:#fff;}.cls-14{opacity:0.78;}.cls-15{opacity:0.6;}.cls-17{fill:#93d500;}.cls-18{fill:#91b3fa;}.cls-19{fill:url(#linear-gradient);}.cls-20{fill:url(#linear-gradient-2);}.cls-21{fill:url(#linear-gradient-3);}.cls-22{fill:url(#linear-gradient-4);}.cls-23{fill:url(#linear-gradient-5);}.cls-24{fill:url(#linear-gradient-6);}.cls-25{fill:url(#linear-gradient-7);}.cls-26{fill:url(#linear-gradient-8);}.cls-27{fill:url(#linear-gradient-9);}.cls-28{fill:url(#linear-gradient-10);}.cls-29{fill:url(#linear-gradient-11);}.cls-30{fill:url(#linear-gradient-12);}.cls-31{fill:url(#linear-gradient-13);}.cls-32{fill:url(#linear-gradient-14);}.cls-33{fill:url(#linear-gradient-15);}.cls-34{fill:url(#linear-gradient-16);}.cls-35{fill:url(#linear-gradient-17);}.cls-36{fill:url(#linear-gradient-18);}.cls-37{stroke:#00953b;stroke-width:0.9px;}</style><clipPath id="clip-path"><rect class="cls-1" x="79.37" y="206.99" width="226.21" height="9.43"/></clipPath><linearGradient id="linear-gradient" x1="170.42" y1="180" x2="160.69" y2="193.71" gradientUnits="userSpaceOnUse"><stop offset="0" stop-color="#09005d"/><stop offset="1" stop-color="#1a0f91"/></linearGradient><linearGradient id="linear-gradient-2" x1="195.32" y1="148.94" x2="131.59" y2="236.21" gradientUnits="userSpaceOnUse"><stop offset="0" stop-color="#4f52ff"/><stop offset="1" stop-color="#4042e2"/></linearGradient><linearGradient id="linear-gradient-3" x1="154.28" y1="190.97" x2="156.09" y2="153.52" xlink:href="#linear-gradient-2"/><linearGradient id="linear-gradient-4" x1="212.92" y1="136.1" x2="196.04" y2="153.18" xlink:href="#linear-gradient"/><linearGradient id="linear-gradient-5" x1="293.71" y1="215.89" x2="309.47" y2="219.78" gradientTransform="translate(332.28 -116.34) rotate(64.07)" xlink:href="#linear-gradient-2"/><linearGradient id="linear-gradient-6" x1="223.15" y1="185.51" x2="244.22" y2="198.7" gradientTransform="translate(327.5 -113.36) rotate(64.07)" xlink:href="#linear-gradient-2"/><linearGradient id="linear-gradient-7" x1="119.17" y1="-72.11" x2="8.22" y2="-126.15" gradientTransform="matrix(1, -0.05, 0.05, 1, 171.1, 295.14)" xlink:href="#linear-gradient-2"/><linearGradient id="linear-gradient-8" x1="162.19" y1="155.93" x2="179.43" y2="168.28" gradientTransform="matrix(0.44, 0.9, -0.9, 0.44, 250.85, -66.08)" xlink:href="#linear-gradient"/><linearGradient id="linear-gradient-9" x1="207.21" y1="177.89" x2="151.58" y2="155.04" gradientTransform="translate(223.35 -48.1) rotate(64.07)" xlink:href="#linear-gradient-2"/><linearGradient id="linear-gradient-10" x1="148.4" y1="156.12" x2="174.49" y2="169.01" gradientTransform="translate(237.85 -54.22) rotate(64.07)" xlink:href="#linear-gradient-2"/><linearGradient id="linear-gradient-11" x1="130.82" y1="199.22" x2="146.18" y2="188.17" gradientTransform="translate(250.97 -33.25) rotate(64.07)" xlink:href="#linear-gradient"/><linearGradient id="linear-gradient-12" x1="139.67" y1="216.96" x2="148.67" y2="192.6" xlink:href="#linear-gradient-2"/><linearGradient id="linear-gradient-13" x1="132.84" y1="129" x2="142.11" y2="152.59" gradientTransform="translate(248.9 -36.01) rotate(64.07)" xlink:href="#linear-gradient"/><linearGradient id="linear-gradient-14" x1="138.82" y1="221.87" x2="152.31" y2="183.51" gradientTransform="translate(248.9 -36.01) rotate(64.07)" xlink:href="#linear-gradient-2"/><linearGradient id="linear-gradient-15" x1="8914.1" y1="-5330.19" x2="8930.89" y2="-5353.03" gradientTransform="matrix(1, 0, 0, -1, -9135.92, -5728.37)" xlink:href="#linear-gradient"/><linearGradient id="linear-gradient-16" x1="198.58" y1="98.73" x2="186.1" y2="118.99" xlink:href="#linear-gradient-2"/><linearGradient id="linear-gradient-17" x1="167.07" y1="104.88" x2="170.14" y2="128.18" gradientTransform="translate(224.75 -74.61) rotate(64.07)" xlink:href="#linear-gradient"/><linearGradient id="linear-gradient-18" x1="200.89" y1="101.39" x2="182.07" y2="128.03" gradientTransform="translate(224.75 -74.61) rotate(64.07)" xlink:href="#linear-gradient-2"/></defs><g id="Capa_1" data-name="Capa 1"><g class="cls-2"><g class="cls-3"><path class="cls-4" d="M305.58,211.71c0,2.6-50.63,4.71-113.1,4.71s-113.11-2.11-113.11-4.71S130,207,192.48,207s113.1,2.11,113.1,4.72"/></g></g><path class="cls-5" d="M14.65,111.3c-5,.16-4.31-5.16-.2-5.79,3.59-.56,7.88,1.41,8.9,1.92a52,52,0,0,1-3.78-5.75,15.49,15.49,0,0,1-5.41-7.54c-1.33-4.78,4-5.4,5.58-1.56,1.25,3,.64,7.08.33,8.66a49,49,0,0,0,2.82,4.43c-.26-1.9-.49-5.3.65-7.89,1.67-3.81,7-3.07,5.55,1.68a15.35,15.35,0,0,1-5.41,7.28,73.32,73.32,0,0,0,5,6.07c-.27-1.89-.53-5.35.63-8,1.66-3.81,7-3.06,5.54,1.69a15.32,15.32,0,0,1-5.32,7.21,73,73,0,0,0,6.05,5.78c-.28-1.63-.77-5.65.53-8.62,1.67-3.81,7-3.06,5.55,1.69A15.47,15.47,0,0,1,36.1,120a60.63,60.63,0,0,0,7.9,5.61c-.23-1.15-1-5.77.45-9.08,1.67-3.81,7-3.06,5.54,1.69-1.26,4.18-4.9,6.93-5.75,7.53a45.92,45.92,0,0,0,9.14,4.13c-.17-.81-1.11-5.74.42-9.23,1.67-3.81,7-3.06,5.55,1.69-1.31,4.31-5.14,7.1-5.83,7.58a35.94,35.94,0,0,0,6.2,1.4.33.33,0,0,1,.27.36.31.31,0,0,1-.26.26h-.1a38.11,38.11,0,0,1-6.17-1.39,15.53,15.53,0,0,1-6.31,6.81c-4.43,2.26-6.1-2.84-2.65-5.16,2.41-1.62,5.9-2,7.79-2a47.15,47.15,0,0,1-7.95-3.64,15.5,15.5,0,0,1-7.57,5.32c-4.8,1.28-5.37-4.06-1.51-5.6,2.65-1.06,6.07-.71,8-.38a62,62,0,0,1-7.66-5.5c-.57.76-3.46,4.4-7.75,5.54-4.79,1.29-5.37-4.05-1.5-5.6,3.26-1.3,7.67-.46,9-.17-1.37-1.15-2.62-2.29-3.74-3.39-.82-.79-1.61-1.59-2.36-2.38a15.6,15.6,0,0,1-7.72,5.51c-4.8,1.28-5.37-4.06-1.51-5.6,3.24-1.29,7.61-.48,8.94-.18a.09.09,0,0,0,0,0,77.57,77.57,0,0,1-5.38-6.4c-.59.51-4.3,3.54-8.84,3.69"/><path class="cls-5" d="M26.08,167.27c-3.82.64-2.5,4.62.75,4.47,2.83-.14,5.81-2.3,6.51-2.84a39.78,39.78,0,0,0-2,5,12.17,12.17,0,0,0-3,6.61c-.27,3.86,3.9,3.52,4.52.33.49-2.51-.6-5.51-1.09-6.68a38.91,38.91,0,0,1,1.48-3.82A12.39,12.39,0,0,0,35,176.25c1.87,2.66,5.82,1.27,4-2.15a12.07,12.07,0,0,0-5.26-4.73A59.92,59.92,0,0,1,36.58,164a12.45,12.45,0,0,0,1.71,6c1.87,2.66,5.82,1.27,4-2.14a11.92,11.92,0,0,0-5.19-4.7,57.32,57.32,0,0,1,3.74-5.36c0,1.29.28,4.44,1.74,6.52,1.86,2.66,5.82,1.27,4-2.15a12.07,12.07,0,0,0-5.38-4.79,47.06,47.06,0,0,1,5.18-5.51c0,.91.12,4.56,1.74,6.88,1.87,2.65,5.82,1.26,4-2.15a12.22,12.22,0,0,0-5.57-4.88,35.63,35.63,0,0,1,6.36-4.57c0,.65,0,4.57,1.74,7,1.87,2.66,5.82,1.27,4-2.15a12.18,12.18,0,0,0-5.63-4.9,28.83,28.83,0,0,1,4.53-2,.23.23,0,0,0,.15-.31.25.25,0,0,0-.24-.17l-.07,0a29.69,29.69,0,0,0-4.52,2,12.05,12.05,0,0,0-5.88-4.24c-3.73-1-4.22,3.12-1.22,4.36a12.49,12.49,0,0,0,6.27.35,37,37,0,0,0-5.52,4,12.13,12.13,0,0,0-6.62-2.9c-3.86-.24-3.48,3.93-.29,4.52a12.35,12.35,0,0,0,6.14-.94,47.82,47.82,0,0,0-5,5.39,12.27,12.27,0,0,0-6.79-3c-3.86-.24-3.48,3.93-.28,4.52,2.69.49,5.94-.83,6.89-1.25-.87,1.09-1.65,2.16-2.34,3.17q-.75,1.09-1.44,2.19a12.08,12.08,0,0,0-6.76-3c-3.86-.24-3.48,3.93-.28,4.52,2.67.49,5.89-.81,6.86-1.24v0a62.36,62.36,0,0,0-3.13,5.72,12.2,12.2,0,0,0-7.34-1.46"/><path class="cls-5" d="M60,164.44c2-.05,5.56,2.78,4.92,7.64-1.52-2.68-3.35-3.91-4.22-2.78s1,1.59,2.09,2.86a4.11,4.11,0,0,1,1.19,3.26,15.38,15.38,0,0,1-3.68,4.81c.68-2.67-.31-6.84-1.91-6s2.07,3.23-.94,8A14.64,14.64,0,0,1,53.57,184s1-5.49-.92-5.07.22,3.32-1.26,5.5c-1.67.05-6.37.66-6.37.66l-1.35-6.2A7.73,7.73,0,0,1,47.28,177c1.83-.2,1.57-1.5.51-1.69a5.51,5.51,0,0,0-4.29,1.63,10.67,10.67,0,0,1,.57-4.9c.44-.59,3.06-2.76,5.62-2.39,1,.14,1.37-.17,1.45-.68s-.53-.91-1.51-1.09A7.23,7.23,0,0,0,45,169.11a14,14,0,0,1,3.32-5c.65-.44,2.71-.44,4.47.5.72.47,1.72,1.34,2.3.67s.09-1.15-1.15-2.05a5,5,0,0,0-2.92-1,7.4,7.4,0,0,1,5-.79,5.48,5.48,0,0,1,3.93,3"/><path class="cls-6" d="M62.48,161.45l-.53-.38L58.39,166l-12.9,2a7.36,7.36,0,0,0-.33.7l.88-.13a6.92,6.92,0,0,1,3.59-.66l.33.07,7.89-1.19-2.07,2.86-10.87,1.64a5.24,5.24,0,0,0-.84.78h0l11.17-1.69-2.14,3-9.62,1.45c0,.22,0,.44,0,.66L52.57,174,50.42,177l-5.29.8a8.84,8.84,0,0,0-1.19.84l6-.9L48.23,180l-4.18.63.14.64,3.5-.53-2.78,3.83.11.48.39-.05,2.85-3.93.82,3.5.65-.06-1-4.14,1.59-2.19,1.33,5.67a4.1,4.1,0,0,0,.26-1.72l-1.08-4.65,2.17-3,2.08,9,.61-.25-2.18-9.39,2.17-3L58.08,181a7.16,7.16,0,0,0,.39-1.19l-2.25-9.68,2.09-2.89,2.83,12.17c.18-.19.36-.39.53-.59l-2.86-12.27Z"/><path class="cls-5" d="M39.07,129.94C50.45,126.66,59.49,134,59.49,134s-3.74,11-15.12,14.32-26.08-2.45-26.08-2.45,9.4-12.67,20.78-15.95"/><path class="cls-7" d="M49.85,133.43A24,24,0,0,0,47,132.28a12.71,12.71,0,0,0-2-.51,5,5,0,0,0-.74-.08,15.06,15.06,0,0,1,2.5,1.14c.75.41,1.62.91,2.58,1.5l1.5.91.37.23c-2.44.73-4.79,1.44-7,2.13l-.06,0a22.07,22.07,0,0,0-6.82-2.92,11.3,11.3,0,0,0-2.24-.28,7.5,7.5,0,0,0-.82,0l.8.17a14.39,14.39,0,0,1,2.08.67,37.31,37.31,0,0,1,5.54,2.85c-2.54.8-4.87,1.56-6.94,2.24l-.11-.07-.62-.38c-.41-.24-.81-.46-1.2-.65a13.26,13.26,0,0,0-2.14-.89,8.56,8.56,0,0,0-1.53-.32l-.57,0,.56.12a10.51,10.51,0,0,1,1.44.5,19.83,19.83,0,0,1,2,1c.37.22.75.46,1.14.71l.3.19c-5.65,1.87-9.16,3.14-9.16,3.14s3.64-.79,9.43-2.21c0,.11-.11.22-.15.32-.2.42-.4.83-.59,1.2a19,19,0,0,1-1.14,2,9.21,9.21,0,0,1-.95,1.19l-.41.39s.17-.1.47-.32a7.57,7.57,0,0,0,1.13-1.08A13.9,13.9,0,0,0,35,143.26c.23-.37.45-.77.66-1.19.11-.21.22-.43.32-.65l.06-.12c2.12-.52,4.5-1.12,7.07-1.79A38,38,0,0,1,40,144.87a15.76,15.76,0,0,1-1.41,1.68l-.59.56s.26-.13.71-.41a11.93,11.93,0,0,0,1.75-1.44,21.81,21.81,0,0,0,4.22-6.1l0-.06c2.24-.59,4.61-1.23,7.06-1.92l-.19.39-.78,1.58c-.51,1-1,1.9-1.39,2.63a15.55,15.55,0,0,1-1.51,2.31,7.34,7.34,0,0,0,.59-.47,13.34,13.34,0,0,0,1.42-1.49,24.58,24.58,0,0,0,1.77-2.48c.31-.48.62-1,.92-1.54s.5-.9.75-1.37l2.08-.59c1.48-.43,2.72-.83,3.73-1.2.25-.58.37-.93.37-.93s-.29-.23-.81-.59c-1,.23-2.31.55-3.79,1l-2.07.6-1.37-.77c-.55-.29-1.08-.56-1.6-.81"/><path class="cls-5" d="M20.23,126.09a9.39,9.39,0,0,1,5.7,5.78,9.38,9.38,0,0,1-8,1.32C13.53,131.76,10,126.7,10,126.7s5.81-2,10.2-.61"/><path class="cls-7" d="M23,129.57c-.23-.38-.46-.71-.66-1a4.41,4.41,0,0,0-.54-.6,1.63,1.63,0,0,0-.22-.19,5.58,5.58,0,0,1,.56.91l.51,1c.09.2.18.41.28.62l.07.16-2.73-.84v0a8.64,8.64,0,0,0-1.56-2.43,4.22,4.22,0,0,0-.67-.58,2.36,2.36,0,0,0-.27-.17l.23.22a5.52,5.52,0,0,1,.52.68,14.22,14.22,0,0,1,1.17,2.13l-2.73-.8,0,0-.12-.26c-.08-.17-.16-.32-.24-.47a5.9,5.9,0,0,0-.5-.76,2.46,2.46,0,0,0-.43-.43l-.17-.13.15.15a4.35,4.35,0,0,1,.35.48,6.11,6.11,0,0,1,.42.78l.21.47.06.13c-2.24-.63-3.65-1-3.65-1s1.36.54,3.53,1.35l-.12.07-.45.26a6.88,6.88,0,0,1-.79.38,3.19,3.19,0,0,1-.57.18l-.22,0h.22a3.69,3.69,0,0,0,.6-.1,6.18,6.18,0,0,0,.85-.32l.47-.24.25-.14,0,0c.8.3,1.7.62,2.68,1a15.94,15.94,0,0,1-2.2,1,5.68,5.68,0,0,1-.82.23l-.31,0a2,2,0,0,0,.32,0,3.8,3.8,0,0,0,.87-.08,8.49,8.49,0,0,0,2.7-1l0,0,2.7.93-.15.08-.6.34-1,.55a5.87,5.87,0,0,1-1,.41l.29,0a5.13,5.13,0,0,0,.78-.17,10.15,10.15,0,0,0,1.12-.42c.2-.08.41-.18.63-.29l.54-.28.8.26c.57.19,1.06.33,1.47.43a3.28,3.28,0,0,0,.32-.22s0-.14-.13-.37q-.59-.23-1.44-.51l-.8-.26-.28-.55-.33-.61"/><path class="cls-5" d="M14.06,154.88c5.48-3.4,11.3-.88,11.3-.88s-.33,6.34-5.81,9.73-14,2.57-14,2.57,3.06-8,8.53-11.42"/><path class="cls-7" d="M20.22,155.12a12.35,12.35,0,0,0-1.64-.19,6.23,6.23,0,0,0-1.12,0l-.41.06a8.08,8.08,0,0,1,1.48.24c.45.1,1,.23,1.57.4l.92.26.23.06c-1.17.74-2.29,1.46-3.35,2.15h0a11.72,11.72,0,0,0-4-.52,6.54,6.54,0,0,0-1.21.18l-.43.13.44,0a9.09,9.09,0,0,1,1.19.05,21.13,21.13,0,0,1,3.32.67l-3.3,2.2-.07,0-.38-.11c-.25-.06-.49-.12-.72-.16a6.91,6.91,0,0,0-1.25-.15,3.9,3.9,0,0,0-.85.06l-.3.07.3,0a4.41,4.41,0,0,1,.83.05,10.72,10.72,0,0,1,1.21.26c.22.05.46.12.7.2l.18.05c-2.68,1.82-4.33,3-4.33,3s1.79-.95,4.61-2.55l0,.19c0,.25-.09.49-.13.72a10.12,10.12,0,0,1-.31,1.19,5.83,5.83,0,0,1-.32.77l-.16.26a2.45,2.45,0,0,0,.2-.24,3.89,3.89,0,0,0,.43-.73,8.44,8.44,0,0,0,.43-1.19c.06-.23.12-.47.17-.72s.05-.25.07-.38v-.08c1-.58,2.19-1.25,3.44-2a20.1,20.1,0,0,1-.87,3.27,8.08,8.08,0,0,1-.49,1.09L16,164s.11-.11.3-.33a5.27,5.27,0,0,0,.71-1,11.81,11.81,0,0,0,1.31-3.81v0c1.08-.64,2.23-1.32,3.41-2,0,.08,0,.16,0,.24-.06.32-.12.64-.18.94-.11.6-.23,1.13-.34,1.58a8.47,8.47,0,0,1-.45,1.43,2.65,2.65,0,0,0,.24-.33,6.58,6.58,0,0,0,.52-1,12.44,12.44,0,0,0,.57-1.56c.09-.3.17-.61.25-.94s.13-.55.19-.83l1-.62c.71-.44,1.31-.83,1.78-1.17.05-.34.06-.55.06-.55l-.51-.19c-.52.28-1.13.63-1.85,1.07l-1,.62-.83-.19c-.33-.08-.65-.14-1-.19"/><path class="cls-8" d="M26.2,82.79a2.68,2.68,0,1,1-2.68-2.68A2.68,2.68,0,0,1,26.2,82.79Z"/><path class="cls-8" d="M12.74,99.25a2,2,0,1,1-2-2A2,2,0,0,1,12.74,99.25Z"/><path class="cls-8" d="M8,80.25a.9.9,0,1,1-.9-.9A.89.89,0,0,1,8,80.25Z"/><path class="cls-8" d="M13.78,142.78a1.34,1.34,0,1,1-1.34-1.34A1.34,1.34,0,0,1,13.78,142.78Z"/><line class="cls-9" x1="8.75" y1="147.93" x2="8.75" y2="150.92"/><line class="cls-9" x1="8.75" y1="153.81" x2="8.75" y2="156.8"/><line class="cls-9" x1="13.18" y1="152.37" x2="10.19" y2="152.37"/><line class="cls-9" x1="7.3" y1="152.37" x2="4.32" y2="152.37"/><line class="cls-10" x1="38.88" y1="88.08" x2="38.88" y2="91.34"/><line class="cls-10" x1="38.88" y1="94.5" x2="38.88" y2="97.76"/><line class="cls-10" x1="43.72" y1="92.92" x2="40.46" y2="92.92"/><line class="cls-10" x1="37.3" y1="92.92" x2="34.04" y2="92.92"/><circle class="cls-11" cx="3.84" cy="118.72" r="3.33" transform="matrix(0.92, -0.38, 0.38, 0.92, -45.14, 10.5)"/><path class="cls-11" d="M16.38,177.85a3.61,3.61,0,1,1-3.61-3.61A3.61,3.61,0,0,1,16.38,177.85Z"/><path class="cls-5" d="M376.39,148.58c-8-.31-12.3-7-12.3-7s4.76-6.32,12.8-6,16.3,7.13,16.3,7.13-8.77,6.17-16.8,5.87"/><path class="cls-7" d="M370.18,144a16.66,16.66,0,0,0,1.57,1.34,8.26,8.26,0,0,0,1.18.75c.29.15.46.22.46.22a10.45,10.45,0,0,1-1.37-1.28c-.39-.42-.85-.93-1.34-1.51l-.78-.91-.19-.23c1.73.06,3.4.09,5,.12l0,0a15,15,0,0,0,3.78,3.34,7.79,7.79,0,0,0,1.39.66,4.69,4.69,0,0,0,.53.16l-.48-.28a10.22,10.22,0,0,1-1.2-.88,25.75,25.75,0,0,1-3-3l5,0,.06.07c.1.13.21.25.31.37s.42.47.63.68a9.36,9.36,0,0,0,1.2,1,5.35,5.35,0,0,0,.91.53l.37.13-.34-.19a7.33,7.33,0,0,1-.82-.63,14.36,14.36,0,0,1-1.06-1.1l-.59-.7-.15-.19c4,0,6.58-.07,6.58-.07s-2.52-.27-6.55-.59l.16-.17c.22-.23.43-.45.64-.65a12.09,12.09,0,0,1,1.15-1,6.55,6.55,0,0,1,.86-.57l.35-.16-.37.1a6,6,0,0,0-1,.46,10.33,10.33,0,0,0-1.27.93l-.68.63-.34.35-.07.06c-1.47-.11-3.13-.23-4.94-.34a25.18,25.18,0,0,1,3.19-2.78,9.4,9.4,0,0,1,1.27-.79l.5-.24s-.2,0-.55.12a8.12,8.12,0,0,0-1.43.55,15,15,0,0,0-4,3l0,0c-1.57-.09-3.23-.18-5-.26L370,141l.84-.84c.54-.54,1-1,1.46-1.41a10.39,10.39,0,0,1,1.46-1.16s-.18,0-.48.17a8.46,8.46,0,0,0-1.23.67,16.22,16.22,0,0,0-1.67,1.21c-.31.25-.61.52-.93.8l-.77.73c-.49,0-1,0-1.47-.06-1,0-1.93,0-2.66,0-.28.32-.44.52-.44.52s.14.22.4.56c.73.07,1.61.13,2.66.17l1.46.06.72.78c.29.31.57.6.86.87"/><path class="cls-5" d="M361,173.78a9.75,9.75,0,0,1-4.56-7.1,9.76,9.76,0,0,1,8.43.37c4.16,2.39,6.63,8.28,6.63,8.28s-6.34.84-10.5-1.55"/><path class="cls-7" d="M358.94,169.65a11.43,11.43,0,0,0,.46,1.15,5.05,5.05,0,0,0,.41.72l.19.24a6.13,6.13,0,0,1-.37-1c-.09-.33-.19-.73-.29-1.17,0-.22-.11-.45-.16-.69,0-.06,0-.12,0-.18l2.59,1.44v0a9.27,9.27,0,0,0,1.07,2.81,5,5,0,0,0,.55.73l.24.23-.18-.28a6.72,6.72,0,0,1-.39-.8,16.11,16.11,0,0,1-.73-2.41l2.61,1.39v.05l.06.29.15.53a4.49,4.49,0,0,0,.35.87,3.55,3.55,0,0,0,.33.54l.16.17-.12-.19a3.16,3.16,0,0,1-.26-.57,7.74,7.74,0,0,1-.26-.87l-.12-.53a.77.77,0,0,1,0-.15c2.13,1.12,3.49,1.79,3.49,1.79s-1.26-.84-3.3-2.13l.14,0,.51-.17c.33-.1.64-.17.89-.22a4.35,4.35,0,0,1,.62-.06h.23l-.23,0a3,3,0,0,0-.63,0,5,5,0,0,0-.93.14l-.53.14-.28.09-.05,0-2.52-1.55a15.41,15.41,0,0,1,2.45-.59,5.37,5.37,0,0,1,.89-.06h.33l-.32-.09a4.62,4.62,0,0,0-.91-.1,8.67,8.67,0,0,0-3,.49h0l-2.55-1.51.17-.06.68-.21c.43-.14.82-.25,1.16-.34a6.25,6.25,0,0,1,1.09-.21l-.3,0a4.69,4.69,0,0,0-.83,0,11.29,11.29,0,0,0-1.22.18l-.71.16-.61.17-.76-.43c-.54-.31-1-.56-1.4-.75l-.38.15s0,.15.06.4c.36.24.81.52,1.35.83l.76.44c.06.2.11.41.17.61s.14.47.21.69"/><path class="cls-5" d="M339.36,148c-1-2.25.64-7.39,6.31-8.82-2.3,2.86-2.87,5.44-1.21,5.91s1.32-1.82,2.25-3.59a4.84,4.84,0,0,1,3.09-2.75c.9-.15,4.59.74,7,2-3.26.42-7.46,3.37-5.85,4.78s2.67-3.72,9.34-2.5a17.56,17.56,0,0,1,3.6,3.5s-6.55,1.3-5.23,3.26,3.6-1.72,6.67-1c.78,1.83,3.54,6.78,3.54,6.78l-6.29,4.24a9.25,9.25,0,0,1-3.69-3.19c-1-1.94-2.36-1.08-2.1.18a6.55,6.55,0,0,0,3.7,4c-1.72,1-4.84,1.74-5.69,1.52s-4.42-2.18-5.14-5.18c-.28-1.17-.78-1.45-1.39-1.31s-.78,1-.55,2.15a8.64,8.64,0,0,0,3.47,4.62,16.57,16.57,0,0,1-7-1.5c-.77-.53-1.67-2.81-1.4-5.19.2-1,.73-2.49-.28-2.84s-1.32.41-1.77,2.18a6,6,0,0,0,.17,3.69,8.79,8.79,0,0,1-3.09-5.24,6.51,6.51,0,0,1,1.57-5.68"/><path class="cls-7" d="M334.93,146.46c0,.16-.15.57-.19.76l7,1.79,7.84,13.47c.32,0,.63.05.93.05l-.54-.92a8.33,8.33,0,0,1-2.31-3.7c0-.13-.05-.27-.07-.39l-4.8-8.25,4.09,1,6.62,11.35a5.52,5.52,0,0,0,1.23.58h0L348,150.59l4.23,1.07L358,161.71l.75-.25-5.55-9.53,4.23,1.08,3.22,5.52a10.48,10.48,0,0,0,1.45.95l-3.61-6.2,3.28.83,2.53,4.36L365,158l-2.13-3.65,5.48,1.4.48-.33-.23-.41L363,153.61l3.54-2.46c-.13-.23-.25-.47-.36-.69L362,153.35l-3.13-.8,5.72-4a4.76,4.76,0,0,0-2,.46l-4.69,3.25-4.28-1.09,9-6.26-.55-.56L352.56,151l-4.28-1.09,10.24-7.11a8.59,8.59,0,0,0-1.48.09l-9.76,6.77-4.13-1.05,12.26-8.51c-.29-.12-.59-.23-.89-.33l-12.37,8.58Z"/><path class="cls-5" d="M352.45,141.31a13.2,13.2,0,0,0-6.54-6.5,23.44,23.44,0,0,0-6.86-1.73A64.24,64.24,0,0,0,351,130.62a9.77,9.77,0,0,0,6.14,5.07c4.94,1.36,11-1.57,11-1.6a12.34,12.34,0,0,0-7.29-4.53,20.83,20.83,0,0,0-6.38-.1,64,64,0,0,0,10.21-4.84,8.4,8.4,0,0,0,5.95,3c4.27.23,8.73-3.17,8.68-3.18a10.28,10.28,0,0,0-6.81-2.53,16.12,16.12,0,0,0-4.94.94,64.94,64.94,0,0,0,6.84-5.21,7.19,7.19,0,0,0,5.34,1.51c3.57-.44,6.79-3.85,6.75-3.86a8.58,8.58,0,0,0-6-1.17,12.89,12.89,0,0,0-3.71,1.37c1.37-1.32,2.67-2.7,3.92-4.14a.86.86,0,0,0,.1-.16,11.09,11.09,0,0,0,5-3.8,11.67,11.67,0,0,0,2-7.12,17,17,0,0,0-5.46,4.64,15.8,15.8,0,0,0-2.34,5.56,1.42,1.42,0,0,0-.13.12c-1.23,1.41-2.52,2.77-3.86,4.06a8.61,8.61,0,0,0,1.19-3.62,7.59,7.59,0,0,0-2.19-5.52,14.06,14.06,0,0,0-2.51,6,9,9,0,0,0,1.21,5.28,63.61,63.61,0,0,1-6.72,5.11,10.1,10.1,0,0,0,2.32-4.22,8.87,8.87,0,0,0-1.54-6.8,16.29,16.29,0,0,0-3.95,6.32,11,11,0,0,0,.34,6.47,63.34,63.34,0,0,1-10,4.75,11.58,11.58,0,0,0,4.06-4.51,10.34,10.34,0,0,0-.2-8.18,19.42,19.42,0,0,0-5.94,6.22,13.39,13.39,0,0,0-1.29,7.61,62.84,62.84,0,0,1-11.69,2.41,12.5,12.5,0,0,0,5.59-3.72c3-3.85,1.76-8.57,1.81-8.55a21.26,21.26,0,0,0-7.72,5,14.44,14.44,0,0,0-3.38,7.59q-2.34.12-4.71.06a.69.69,0,0,0-.77.56c0,.32.32.59.75.6,1.6,0,3.2,0,4.79-.06a10.33,10.33,0,0,0,5.15,6.89c4.88,2.68,12.07,1.1,12,1.05"/><path class="cls-5" d="M346.81,161.51a13.23,13.23,0,0,1-8.88,2.48,23.55,23.55,0,0,1-6.83-1.83,64.28,64.28,0,0,1,9.2,8,9.7,9.7,0,0,1,7.83-1.43c5,1.22,8.85,6.75,8.78,6.75a12.38,12.38,0,0,1-8.58.38,20.6,20.6,0,0,1-5.61-3,64.31,64.31,0,0,1,6.54,9.21,8.45,8.45,0,0,1,6.65.31c3.83,1.89,6.06,7,6,7a10.36,10.36,0,0,1-7.18-1.12A16.32,16.32,0,0,1,350.9,185a65.76,65.76,0,0,1,3.43,7.89,7.17,7.17,0,0,1,5.39,1.29c2.9,2.13,4,6.68,4,6.67a8.62,8.62,0,0,1-5.84-1.93,13,13,0,0,1-2.57-3q.82,2.73,1.41,5.53c0,.06,0,.12,0,.18a11.15,11.15,0,0,1,2.49,5.75,11.68,11.68,0,0,1-1.75,7.18,17,17,0,0,1-2.5-6.72,15.72,15.72,0,0,1,.67-6,.67.67,0,0,1-.06-.17q-.57-2.74-1.38-5.42a8.68,8.68,0,0,1-.73,3.73,7.56,7.56,0,0,1-4.6,3.75,13.87,13.87,0,0,1,.72-6.44,9.09,9.09,0,0,1,3.63-4,62.59,62.59,0,0,0-3.36-7.74,10.09,10.09,0,0,1,0,4.82,8.89,8.89,0,0,1-4.66,5.18,16.21,16.21,0,0,1-.37-7.45,11,11,0,0,1,3.46-5.47,62.8,62.8,0,0,0-6.43-9,11.55,11.55,0,0,1,1.35,5.92,10.38,10.38,0,0,1-4.17,7,19.27,19.27,0,0,1-2.15-8.33,13.38,13.38,0,0,1,2.59-7.27,62.5,62.5,0,0,0-9-7.82,12.47,12.47,0,0,1,3.06,6c.74,4.83-2.64,8.34-2.59,8.35a21,21,0,0,1-4.32-8.11,14.46,14.46,0,0,1,.76-8.28q-2-1.24-4.08-2.34a.69.69,0,0,1-.4-.87.68.68,0,0,1,.94-.16q2.13,1.13,4.16,2.39a10.3,10.3,0,0,1,7.86-3.5c5.57.05,11.07,4.94,11,4.95"/><path class="cls-11" d="M384.31,92.92a4.68,4.68,0,1,1-3.25-5.78A4.68,4.68,0,0,1,384.31,92.92Z"/><path class="cls-11" d="M400.43,116.78a1.73,1.73,0,1,1-1.21-2.14A1.74,1.74,0,0,1,400.43,116.78Z"/><path class="cls-11" d="M364.85,99A2.61,2.61,0,1,1,363,95.78,2.61,2.61,0,0,1,364.85,99Z"/><path class="cls-11" d="M399.56,102.83a.62.62,0,0,1-.76.42.61.61,0,1,1,.76-.42Z"/><line class="cls-9" x1="386.27" y1="152.74" x2="385.47" y2="155.61"/><line class="cls-9" x1="384.69" y1="158.4" x2="383.89" y2="161.27"/><line class="cls-9" x1="389.35" y1="158.2" x2="386.47" y2="157.4"/><line class="cls-9" x1="383.69" y1="156.62" x2="380.81" y2="155.81"/><line class="cls-9" x1="388.77" y1="123.52" x2="387.96" y2="126.4"/><line class="cls-9" x1="387.18" y1="129.18" x2="386.38" y2="132.06"/><line class="cls-9" x1="391.84" y1="128.98" x2="388.97" y2="128.18"/><line class="cls-9" x1="386.18" y1="127.4" x2="383.3" y2="126.6"/><path class="cls-11" d="M374.55,164.2a2.22,2.22,0,1,1-1.54-2.74A2.23,2.23,0,0,1,374.55,164.2Z"/><path class="cls-11" d="M380.61,183.12a3.6,3.6,0,1,1-2.5-4.44A3.59,3.59,0,0,1,380.61,183.12Z"/><path class="cls-12" d="M140.13,56.68A11.85,11.85,0,0,1,152,44.84H252.73a10.44,10.44,0,0,1,10.43,9.9l7.43,146.07a7.7,7.7,0,0,1-7.54,8.09L147.57,211a7.31,7.31,0,0,1-7.44-7.3Z"/><path class="cls-13" d="M148.39,47.09a3.44,3.44,0,0,1,3.9-3.44c13.76,1.87,61.07,7.64,100.19,4.64a3.17,3.17,0,0,1,3.42,3L263.7,198a3.66,3.66,0,0,1-3.44,3.85c-16.45,1-84.2,4.74-108.37,2.21a2.92,2.92,0,0,1-2.6-2.88Z"/><path class="cls-14" d="M150,50.76a3.31,3.31,0,0,1,3.75-3.3c13.24,1.8,58.77,7.35,96.42,4.46a3.07,3.07,0,0,1,3.3,2.89L261,196a3.53,3.53,0,0,1-3.31,3.71c-15.83.94-81,4.56-104.29,2.12a2.79,2.79,0,0,1-2.5-2.76Z"/><path class="cls-14" d="M162.27,61.65l1.4,30.27a1.93,1.93,0,0,0,1.87,1.84c5.61.15,23.07.58,32.94.07a2.15,2.15,0,0,0,2-2.08c.19-5.68.6-22.2-.69-29.11a2.42,2.42,0,0,0-2.3-2l-33.14-1.16A2,2,0,0,0,162.27,61.65Z"/><g class="cls-15"><path class="cls-16" d="M245.22,64.28a1,1,0,0,0,1.1-1,1.15,1.15,0,0,0-1.16-1l-36.44-.65a.73.73,0,0,0-.75,1.05l.21.59a1.69,1.69,0,0,0,1.5,1.06Z"/></g><g class="cls-15"><path class="cls-16" d="M208.72,67.23a.73.73,0,0,0-.75,1l.21.59a1.7,1.7,0,0,0,1.5,1.07h35.54a1,1,0,0,0,1.1-1,1.14,1.14,0,0,0-1.16-1Z"/></g><g class="cls-15"><path class="cls-16" d="M208.72,73a.73.73,0,0,0-.75,1l.21.6a1.7,1.7,0,0,0,1.5,1.06h35.54a1,1,0,0,0,1.1-1,1.15,1.15,0,0,0-1.16-1Z"/></g><g class="cls-15"><path class="cls-16" d="M248.75,103.26a1,1,0,0,0,1.06-1,1.19,1.19,0,0,0-1.19-1l-85.24-.67c-.62,0-.81.39-.42.87l.76,1a2.64,2.64,0,0,0,1.83.88Z"/></g><g class="cls-15"><path class="cls-16" d="M163.38,106.19c-.62,0-.81.39-.42.88l.76,1a2.65,2.65,0,0,0,1.83.89h83.2a1,1,0,0,0,1.06-1,1.17,1.17,0,0,0-1.19-1Z"/></g><path class="cls-17" d="M163.05,115.62c2-.16,5.88-.23,8-.26a1.9,1.9,0,0,1,1.89,1.46,31.05,31.05,0,0,1,.9,7.72,1.71,1.71,0,0,1-1.72,1.67l-7.78-.09a1.86,1.86,0,0,1-1.84-1.69l-.69-7.33A1.36,1.36,0,0,1,163.05,115.62Z"/><g class="cls-15"><path class="cls-16" d="M177.4,118.62a.9.9,0,0,0-1,1.07l.2,1.36a1.37,1.37,0,0,0,1.3,1.12h19a1.13,1.13,0,0,0,1.12-1.13v-.43a1.2,1.2,0,0,0-1.14-1.17Z"/></g><path class="cls-17" d="M205.47,115.62c2.05-.16,5.88-.23,8-.26a1.91,1.91,0,0,1,1.89,1.46,31.13,31.13,0,0,1,.89,7.72,1.7,1.7,0,0,1-1.71,1.67l-7.78-.09a1.87,1.87,0,0,1-1.85-1.69l-.68-7.33A1.36,1.36,0,0,1,205.47,115.62Z"/><g class="cls-15"><path class="cls-16" d="M219.81,118.62a.89.89,0,0,0-.95,1.07l.2,1.36a1.36,1.36,0,0,0,1.29,1.12h19a1.11,1.11,0,0,0,1.11-1.13v-.43a1.2,1.2,0,0,0-1.14-1.17Z"/></g><g class="cls-15"><path class="cls-16" d="M160.67,140.67A2.25,2.25,0,0,0,162.9,142l85.28-.56a1.39,1.39,0,1,0,0-2.7l-85.29-.3C161.38,138.43,160.28,139.54,160.67,140.67Z"/></g><g class="cls-15"><path class="cls-16" d="M160.67,156.07a2.25,2.25,0,0,0,2.23,1.33l85.28-.56a1.39,1.39,0,1,0,0-2.7l-85.29-.31C161.38,153.83,160.28,154.94,160.67,156.07Z"/></g><g class="cls-15"><path class="cls-16" d="M160.67,171.47a2.25,2.25,0,0,0,2.23,1.33l85.28-.57a1.55,1.55,0,0,0,1.72-1.37,1.57,1.57,0,0,0-1.72-1.32l-85.29-.31C161.38,169.23,160.28,170.34,160.67,171.47Z"/></g><g class="cls-15"><path class="cls-16" d="M160.67,186.87h0a2.25,2.25,0,0,0,2.23,1.33l85.28-.57a1.55,1.55,0,0,0,1.72-1.38,1.59,1.59,0,0,0-1.72-1.32l-85.29-.3C161.38,184.63,160.28,185.74,160.67,186.87Z"/></g><path class="cls-12" d="M208.6,24.92c-3.63-2.53-6.8-2.48-9-1.82a4.43,4.43,0,0,0-3.15,4.67l1,10.48,11.43,1S215.74,29.89,208.6,24.92Zm-5,8.46a2.85,2.85,0,1,1,2.85-2.85A2.85,2.85,0,0,1,203.58,33.38Z"/><path class="cls-18" d="M198.52,33.84a.26.26,0,0,1-.27-.25l-.16-1.67a.29.29,0,0,1,.25-.3.27.27,0,0,1,.3.25l.16,1.67a.28.28,0,0,1-.25.3Zm-.3-3.27a.27.27,0,0,1-.27-.25l-.12-1.27a4.25,4.25,0,0,1,3-4.45,8.53,8.53,0,0,1,4.17-.17.28.28,0,0,1,.22.33.28.28,0,0,1-.33.21,8.09,8.09,0,0,0-3.91.16A3.69,3.69,0,0,0,198.38,29l.12,1.27a.28.28,0,0,1-.25.3Z"/><path class="cls-12" d="M181.78,45V39.76a3.22,3.22,0,0,1,3.32-3.22l36.35,1.25a3.13,3.13,0,0,1,3,2.94l.3,5.06Z"/><path class="cls-18" d="M195.33,38.53h-1.56a.28.28,0,1,1,0-.55h1.56a.28.28,0,1,1,0,.55Z"/><path class="cls-18" d="M183.74,43.38a.28.28,0,0,1-.27-.28V41a3,3,0,0,1,3-3h5.74a.28.28,0,1,1,0,.55h-5.74A2.44,2.44,0,0,0,184,41V43.1A.28.28,0,0,1,183.74,43.38Z"/><path class="cls-12" d="M167,46.36a3.42,3.42,0,0,1,3.42-3.26H234a4.7,4.7,0,0,1,4.63,3.9l0,.31a4,4,0,0,1-4,4.72h-65.2a2.62,2.62,0,0,1-2.62-2.75Z"/><rect class="cls-19" x="116.55" y="194.18" width="75.19" height="17.52"/><path class="cls-20" d="M115,203.86h78.08a0,0,0,0,1,0,0v1.56a5.17,5.17,0,0,1-5.17,5.17H121.71a6.73,6.73,0,0,1-6.73-6.73v0a0,0,0,0,1,0,0Z"/><path class="cls-21" d="M115,196.22h78.08a0,0,0,0,1,0,0v0a6.73,6.73,0,0,1-6.73,6.73H121.71a6.73,6.73,0,0,1-6.73-6.73v0a0,0,0,0,1,0,0Z"/><path class="cls-22" d="M117.51,193.69h73a2.52,2.52,0,0,1,2.52,2.52v0a0,0,0,0,1,0,0H115a0,0,0,0,1,0,0v0A2.52,2.52,0,0,1,117.51,193.69Z"/><ellipse class="cls-23" cx="259.11" cy="207.36" rx="5.92" ry="5.09" transform="translate(-40.68 349.7) rotate(-64.07)"/><rect class="cls-24" x="250.99" y="202.85" width="6.7" height="4.38" rx="2.19" transform="translate(-41.28 344.1) rotate(-64.07)"/><path class="cls-25" d="M254.28,200.76a13.82,13.82,0,0,1-3.13,6.41,3.8,3.8,0,0,1-3.66,1.2c-13.27-2.66-41.09-19.86-68.11-34.88-1.79-1-3-2.12-2.18-3.86l1.86-3.83c.84-1.72,2.85-.75,4.73,0,28.58,11.74,58.89,22,69.29,31.45A3.75,3.75,0,0,1,254.28,200.76Z"/><rect class="cls-26" x="170.63" y="165.19" width="15.2" height="4.45" rx="0.37" transform="translate(-50.27 254.49) rotate(-64.07)"/><rect class="cls-27" x="142.51" y="152.21" width="15.2" height="4.45" rx="0.37" transform="translate(-54.41 221.9) rotate(-64.07)"/><rect class="cls-28" x="139.4" y="147.48" width="45.7" height="30.96" transform="translate(-55.26 237.62) rotate(-64.07)"/><rect class="cls-29" x="149.19" y="168.45" width="5.75" height="30.96" transform="translate(-79.85 240.24) rotate(-64.07)"/><path class="cls-30" d="M165.86,191l-1.25,2.57a1.77,1.77,0,0,1-2.11.93,86.54,86.54,0,0,1-25.17-12.25,1.76,1.76,0,0,1-.57-2.21l1.25-2.58Z"/><rect class="cls-31" x="151.65" y="164.3" width="3.15" height="33.19" rx="0.39" transform="translate(-76.46 239.58) rotate(-64.07)"/><rect class="cls-32" x="152.07" y="164.3" width="2.32" height="33.19" rx="0.35" transform="translate(-76.46 239.58) rotate(-64.07)"/><rect class="cls-33" x="170.79" y="124.01" width="5.75" height="30.96" transform="translate(375.07 44.32) rotate(115.93)"/><path class="cls-34" d="M187.71,146l1.25-2.57a1.79,1.79,0,0,0-.57-2.24A86.8,86.8,0,0,0,163.21,129a1.76,1.76,0,0,0-2.09.92l-1.25,2.58Z"/><rect class="cls-35" x="170.42" y="125.7" width="3.15" height="33.19" rx="0.39" transform="translate(-31.18 234.75) rotate(-64.07)"/><rect class="cls-36" x="170.84" y="125.7" width="2.32" height="33.19" rx="0.35" transform="translate(-31.18 234.75) rotate(-64.07)"/><path class="cls-37" d="M83.7,38.68c-18,21.55-26.27,49.8-24.57,77.19C61.56,155,84.23,192.68,118.81,215c46.71,30.12,106.71,30.3,151.76-1.41,42.11-29.64,66.9-78.91,69.94-127.55.75-12,.12-24.45-5.09-35.47-12.66-26.77-45.37-24.77-71.83-21.84-22,2.43-28.37-8.12-46.58-16.92A114.18,114.18,0,0,0,164.65.49c-28.52.77-56.51,12.75-75.74,32.43Q86.18,35.71,83.7,38.68Z"/></g></svg>