<svg xmlns="http://www.w3.org/2000/svg" xmlns:xlink="http://www.w3.org/1999/xlink" viewBox="0 0 242.54 168.53"><defs><style>.cls-1{fill:none;}.cls-2{isolation:isolate;}.cls-3{clip-path:url(#clip-path);}.cls-4{opacity:0.47;}.cls-5{clip-path:url(#clip-path-2);}.cls-6{clip-path:url(#clip-path-3);}.cls-7{mix-blend-mode:multiply;}.cls-7,.cls-9{opacity:0.5;}.cls-8{clip-path:url(#clip-path-7);}.cls-9{mix-blend-mode:overlay;}.cls-10{clip-path:url(#clip-path-8);}.cls-11{opacity:0.75;}.cls-12{fill:#70655f;}.cls-13{opacity:0.92;}.cls-14{clip-path:url(#clip-path-10);}.cls-15{opacity:0.94;}.cls-16{clip-path:url(#clip-path-11);}.cls-17{opacity:0.79;}.cls-18{clip-path:url(#clip-path-12);}.cls-19{opacity:0.76;}.cls-20{clip-path:url(#clip-path-13);}.cls-21{opacity:0.95;}.cls-22{clip-path:url(#clip-path-14);}.cls-23{fill:#42311c;}.cls-24{fill:#00867a;}.cls-25{fill:#fac557;}.cls-26{fill:#fff;stroke:#fff;stroke-miterlimit:10;stroke-width:3px;}.cls-27{fill:#372421;}.cls-28{fill:#777e79;}.cls-29{fill:#626664;}.cls-30{fill:#52003e;}.cls-31{fill:#37002a;}</style><clipPath id="clip-path"><rect class="cls-1" x="-1589.73" y="-494.89" width="1347.46" height="660.34"/></clipPath><clipPath id="clip-path-2"><rect class="cls-1" x="-278.9" y="-159.05" width="589.7" height="376.68"/></clipPath><clipPath id="clip-path-3"><rect class="cls-1" x="-164.33" y="-118.77" width="265.36" height="284.88"/></clipPath><clipPath id="clip-path-7"><path class="cls-1" d="M-247,239.18l-12.31-13.52c4.46-11.93,18.56-30.11,41.07-50.61,17.47-15.9,43.13-30.81,54.34-41.14,6.6-6.09,18.19-21.61,27.13-29.75,20.53-18.69,36.05-22.84,42.18-16.11s.55,21.79-20,40.49c-8.93,8.13-25.47,18.22-32.14,24.23C-158.1,163-175.35,187.12-192.81,203c-22.51,20.5-41.93,32.84-54.23,36.15"/></clipPath><clipPath id="clip-path-8"><rect class="cls-1" x="-285.94" y="-31.35" width="344.03" height="323.77"/></clipPath><clipPath id="clip-path-10"><rect class="cls-1" x="-277.04" y="-22.92" width="324.73" height="306.99"/></clipPath><clipPath id="clip-path-11"><rect class="cls-1" x="-268.01" y="-14.52" width="307.67" height="290.18"/></clipPath><clipPath id="clip-path-12"><rect class="cls-1" x="-259.2" y="-6.1" width="289.79" height="273.34"/></clipPath><clipPath id="clip-path-13"><rect class="cls-1" x="-250.24" y="1.76" width="272.94" height="257.11"/></clipPath><clipPath id="clip-path-14"><rect class="cls-1" x="-241.29" y="9.77" width="255.55" height="240.67"/></clipPath></defs><g class="cls-2"><g id="Capa_1" data-name="Capa 1"><g class="cls-3"><g class="cls-6"><g class="cls-8"><g class="cls-9"><g class="cls-10"><g class="cls-11"><g class="cls-10"><path class="cls-12" d="M52.2-26.47a16.12,16.12,0,0,1,4.36,6.94l0,.05c2.63,9.29,1.8,17.63-2.33,24.1-2.64,4.2-5.28,8.74-8,13.86-1,1.78-1.73,3.28-2.35,4.7l-.08.15c-2.29,3.86-2.88,8.47-3.55,13.36-1.07,7.79-2.14,15.83-10.4,20.67C23.24,61.53,17.59,66.7,11.57,74,10.24,75.62,9,77.16,7.92,78.68a110.12,110.12,0,0,1-15.1,22.51c-1.35,1.64-2.84,3.34-4.45,5.18l-.08.08-.06,0c-13.62,12-25.49,26.41-34.33,37.69l-.06,0c-.89,1-1.79,2-2.7,2.95-1.54,1.63-3,3.09-4.39,4.56l0,0,0,.05c-4.37,3.94-9.12,7.77-13.67,11.45-11.49,9.27-23.36,18.84-31,31.52l-.08.13c-1.23,1.56-2.56,3.11-3.9,4.63-1.11,1.21-2.28,2.4-3.47,3.57l-.05.06,0,0c-8,6.61-11.14,15.65-13.74,24.36-.37,1.26-.76,2.56-1.11,3.85l-.62,2c-1.31,2.65-2.07,6.13-2.86,9.8-1.9,8.79-4,18.74-15.43,18.09-4.6-.13-8.51-2.36-12.68-4.7a60.56,60.56,0,0,0-6.46-3.36l-.17-.05a38.6,38.6,0,0,0-5.37-2.43c-3.76-1.3-6.93-1.15-10,.49l-1.28.84c-.94.63-1.9,1.27-2.85,1.89-51.38,34-88.71,46.2-102.36,33.63-6.78-6.22-7.25-17.67-1.38-34,5.44-15.13,16.42-34.43,31.8-55.87l.83-1.18,1.54-2.14a18.92,18.92,0,0,0,2.17-4,32.78,32.78,0,0,0,1.38-4.37l0-.1c1.25-3.89-1.39-6.65-4.46-9.85-.81-.84-1.61-1.7-2.35-2.59a11.35,11.35,0,0,1-2.71-4.92l-.05-.26,0-.22c1.21-9.19,9.43-12.63,17.36-16,4.54-1.9,8.82-3.71,11.77-6.48l.11-.1.16-.09c1.89-1.11,3.59-2.16,5.17-3.21,7.71-5.12,13-10.44,16.64-16.79l.11-.16c1.35-1.76,2.58-3.32,3.8-4.7a60,60,0,0,1,4.18-4.41l.09-.06a38.4,38.4,0,0,1,5-3.39c7-4.1,13.33-9.11,19.5-14,4-3.17,8.15-6.42,12.37-9.36,1.8-1.5,3.51-2.87,4.79-3.89a72.46,72.46,0,0,1,7.51-5.42c1.68-1.1,3.4-2.25,5-3.46,1.42-1,2.8-2,4.21-3,5.24-4.34,10.59-8.65,15.8-12.86,9.87-8,20.08-16.21,29.69-24.66l.09-.06,4-3.06,4-3,.21-.14c2-1,4-2.12,6-3.29l.06,0C-58.31,17.37-44.81,6-36-7.23c1.49-2.12,2.7-3.85,3.77-5.51l.16-.27.25-.15a25.93,25.93,0,0,1,6-2.86,53.25,53.25,0,0,1,5.92-2.59l.11,0A41.75,41.75,0,0,1-9.5-19.87c4.76-.14,9.3-.31,13.39-3l.23-.1c2.47-1,4.9-2,7.17-2.82,19.8-7.21,33.55-7.45,40.91-.71m1.24,7.6A12.73,12.73,0,0,0,50-24.36c-6.2-5.69-19.08-5.21-37.3,1.45-2.2.79-4.54,1.71-6.9,2.69C1-17.13-4.17-17-9.13-16.83a39.56,39.56,0,0,0-9.5,1.09,54.48,54.48,0,0,0-5.61,2.46l-.21.09a23.89,23.89,0,0,0-5.14,2.42c-1.05,1.61-2.23,3.31-3.64,5.31-9.05,13.61-22.91,25.3-41.13,34.69-2,1.13-4,2.22-5.93,3.25-1.28,1-2.57,1.93-3.87,2.94s-2.61,2-3.9,3c-9.69,8.5-19.9,16.73-29.79,24.72-5.22,4.2-10.58,8.55-15.83,12.86l-.06,0c-1.4,1-2.86,2.09-4.23,3-1.67,1.23-3.43,2.4-5.13,3.52a66.36,66.36,0,0,0-7.25,5.24h0c-1.29,1-3,2.39-4.82,3.94l-.12.08c-4.17,2.88-8.3,6.13-12.31,9.31-6.23,4.88-12.65,9.94-19.81,14.14a40.89,40.89,0,0,0-4.55,3.1c-1.31,1.25-2.62,2.61-4,4.19-1.14,1.31-2.33,2.79-3.63,4.49-3.85,6.68-9.43,12.29-17.47,17.63-1.6,1.08-3.29,2.15-5.19,3.25-3.33,3.08-8,5-12.53,6.93-7.43,3.13-14.46,6.09-15.57,13.5a8.36,8.36,0,0,0,2,3.33c.63.79,1.39,1.58,2.18,2.41,3.11,3.25,7,7.3,5.2,12.83a27.71,27.71,0,0,1-1.46,4.68,22.86,22.86,0,0,1-2.46,4.54c-.51.72-1,1.44-1.56,2.15l-.84,1.18c-30.93,43.17-42.51,75.31-31,86,5.94,5.44,18.1,5.22,35.24-.71s38.8-17.46,62.89-33.35c1-.65,1.9-1.29,2.86-1.9l1.45-1c3.91-2.09,8.13-2.32,12.8-.71a42.9,42.9,0,0,1,5.83,2.63A68.93,68.93,0,0,1-150.4,254c3.91,2.22,7.26,4.14,11,4.23,8.14.49,10.15-5.94,12.28-15.85a46.54,46.54,0,0,1,3-10.32l.49-1.68c.36-1.27.75-2.56,1.12-3.83,2.69-9.09,6.06-18.56,14.58-25.65,1.14-1.12,2.24-2.28,3.3-3.44,1.32-1.43,2.55-2.92,3.7-4.39,7.89-13.05,20-22.78,31.59-32.16,4.54-3.68,9.24-7.47,13.55-11.36,1.41-1.42,2.83-2.9,4.34-4.49.87-.93,1.75-1.89,2.61-2.82,8.9-11.33,20.84-25.88,34.59-38,1.6-1.79,3-3.44,4.4-5.05A106.54,106.54,0,0,0,5,77.14L5.09,77c1.19-1.61,2.45-3.2,3.82-4.86,6.24-7.61,12.08-12.94,19-17.31C35,50.6,36,43.55,37,36.07c.66-4.91,1.34-10,3.89-14.3.66-1.47,1.39-3,2.39-4.83,2.78-5.14,5.47-9.74,8.15-14,3.71-5.8,4.39-13.33,2-21.8"/></g></g><g class="cls-13"><g class="cls-14"><path class="cls-12" d="M43.74-18l.13.31c4.44,9.26,5,19,1.71,29.81-.56,1.85-1.23,3.76-2,5.7l-.08.14c-2.1,4-3.27,8.44-4.39,12.8-1.66,6.3-3.37,12.82-7.88,18.16a185.68,185.68,0,0,1-14.3,15.81c-2.22,2.3-4.53,4.65-6.75,7-1.48,1.58-2.74,3-3.94,4.43a140,140,0,0,1-11,17.06C-6.1,95-7.51,96.78-9,98.61c-4.93,5.62-10.2,11-15.31,16.13-8.7,8.83-17.77,18-25,28.44l-.12.13c-1,1.05-2,2.2-3.38,3.59-1.52,1.58-2.88,2.95-4.11,4.17l0,0h0c-4,3.49-8.14,6.89-12.16,10.18-11,8.94-22.32,18.2-30.74,29.83l-.07.1c-1.32,1.48-2.62,2.94-4,4.41-.9,1-1.81,2-2.75,3s-1.88,2-2.82,2.93l0,0-.06.05c-8.46,7.24-10.81,17.48-13.14,27.43l-.17.78c-.34,1.49-.7,3-1,4.42-.2.87-.35,1.73-.53,2.62-1.08,5.34-2.29,11.36-7.28,15.24-5.44,4.31-13.45,4-24.56-.9-1.43-.61-2.84-1.25-4.26-1.9s-2.81-1.19-4-1.58c-4.42-1.42-7.8-1.27-11,.51-1.38.9-2.73,1.76-4.09,2.63-21.85,14.05-41.64,24.19-57.14,29.27-16.78,5.49-28.59,5.22-35.11-.76C-287.92,264.5-263.21,223-247,199.62l1.06-1.54c.5-.75,1-1.51,1.57-2.28l1-1.38c1.08-1.52,1.76-2.51,1.48-3.51l-.06-.35,0-.32a16.26,16.26,0,0,0,.34-4.72,31.46,31.46,0,0,0-.63-4.91c-.77-1.27-1.61-2.74-2.38-4.21a34,34,0,0,1-2-4.45,11.55,11.55,0,0,1-.71-8.31c1.42-5.28,7.94-7.49,11.9-8.81,2.09-.88,4.11-1.8,6-2.71,14-6.73,23.81-14.42,30-23.52l.05-.07c1.19-1.55,2.34-3.09,3.52-4.59,1.32-1.69,2.52-3.15,3.64-4.5l.11-.09a54.43,54.43,0,0,1,4.7-4c1.76-1.38,3.51-2.81,5.31-4.24,8.41-6.76,17.09-13.72,26.71-19.3l4.39-3.45a37.54,37.54,0,0,1,7.1-5.44A45.11,45.11,0,0,0-138.52,79l.08-.07c1-.8,2.06-1.57,3.11-2.36s2-1.58,3-2.37c1.28-1,2.48-1.94,3.71-2.93l.08-.06A214.15,214.15,0,0,0-109,55.41,226.32,226.32,0,0,1-90.17,40.07c1.32-1.12,2.68-2.28,4-3.44l.71-.65,3.71-2.78c1.12-.81,2.22-1.64,3.35-2.45l.14-.1C-62.28,21.78-45.7,11.88-33.59-3l0,0c1.55-1.72,2.88-3.25,4.07-4.69l.12-.14.18-.12c1.57-1.06,3.13-2,4.69-2.91,1.71-1,3.34-1.83,5-2.58A40.41,40.41,0,0,1,3.05-17.14c1.88-.69,3.89-1.38,5.86-2,12.59-4,22.45-4.83,29.23-2.28a15.83,15.83,0,0,1,5.33,3.2ZM40.5,16.48c.76-1.86,1.41-3.68,1.93-5.43C45.47,1.1,45-7.88,41-16.37a14.11,14.11,0,0,0-3.89-2.27c-6.06-2.26-15.11-1.49-27,2.36C8.12-15.62,6-14.89,4-14.17L3.64-14l-.4-.08a37.37,37.37,0,0,0-21.16,3.42c-1.55.7-3.12,1.51-4.73,2.44-1.43.83-2.89,1.72-4.33,2.65C-28.16-4.17-29.44-2.68-31-1-43.34,14.22-60.14,24.26-76.32,33.26l-3.27,2.38c-1.2.88-2.42,1.81-3.63,2.7l-.62.58c-1.36,1.18-2.74,2.39-4.09,3.51l-.12.08A226.2,226.2,0,0,0-106.66,57.7a217.23,217.23,0,0,1-19.76,16l-3.68,2.93c-1,.8-2,1.58-3.06,2.38s-2.05,1.59-3.07,2.35a45.44,45.44,0,0,1-5.71,4.11,32.88,32.88,0,0,0-6.63,5.08l-.08.08-.09.06c-1.47,1.14-3,2.35-4.56,3.6l-.18.13c-9.44,5.43-18.11,12.38-26.42,19.06-1.79,1.44-3.56,2.86-5.35,4.25-1.49,1.16-3,2.46-4.45,3.82-1.08,1.26-2.22,2.69-3.48,4.32s-2.35,3-3.48,4.53c-6.55,9.53-16.74,17.52-31.19,24.49-1.93.93-4,1.86-6.13,2.79l-.15,0c-3.59,1.2-9,3-10.05,6.92a8.61,8.61,0,0,0,.51,6.34l0,.14a33.18,33.18,0,0,0,1.87,4.14c.78,1.48,1.66,3,2.44,4.28l.1.21.1.26a37.42,37.42,0,0,1,.75,5.61,21,21,0,0,1-.35,5.17c.39,2.17-.81,3.85-2,5.49a14.63,14.63,0,0,0-.88,1.29l-1.64,2.33-1,1.5c-26.24,38-35.71,66.36-25.33,75.91,11,10.18,44-.63,88-28.94l4.09-2.66.1-.07c5.28-3,10.39-1.85,13.74-.76a42.19,42.19,0,0,1,4.35,1.71q2.12,1,4.2,1.87c9.84,4.38,16.72,4.82,21.15,1.27,4.16-3.25,5.24-8.51,6.26-13.6.18-.91.34-1.82.55-2.68.39-1.5.7-3,1-4.42l.19-.83c2.3-9.85,4.87-21,14-28.84.9-.92,1.84-1.88,2.73-2.84s1.84-2,2.75-3c1.27-1.4,2.54-2.85,3.84-4.31,8.65-11.87,20.11-21.25,31.18-30.3,4-3.25,8.13-6.63,12.06-10.05,1.24-1.23,2.57-2.56,4.07-4.11,1.27-1.31,2.31-2.43,3.25-3.45,7.35-10.61,16.45-19.82,25.26-28.76,5.07-5.12,10.29-10.43,15.17-16,1.38-1.73,2.77-3.52,4.06-5.24A135.52,135.52,0,0,0,3.33,74.53l.19-.26c1.24-1.47,2.56-3,4.07-4.61,2.25-2.4,4.58-4.79,6.84-7.11A181.26,181.26,0,0,0,28.53,47c4.2-5,5.74-10.89,7.37-17.15,1.16-4.5,2.37-9.11,4.6-13.33"/></g></g><g class="cls-15"><g class="cls-16"><path class="cls-12" d="M35-9.87l.15.21a30.22,30.22,0,0,1,4,21.71A45.52,45.52,0,0,1,38,17.19C37,37.8,24,52.33,11.43,66.35l-2.78,3.1c-1.54,1.74-2.78,3.16-3.91,4.47A127.15,127.15,0,0,1-11.32,97.54c-1.34,1.6-2.57,3-3.78,4.35l-.05.06,0,0c-14.68,13.52-26.6,25-36,39.32l-.12.17c-1.14,1.29-2.32,2.54-3.34,3.62-1.52,1.59-2.88,2.95-4.15,4.19l0,0h0c-4.11,3.62-8.37,7.13-12.47,10.51-10.57,8.73-20.53,17-29.1,27.19-1.41,1.63-2.73,3.19-4.06,4.73-1.79,2.07-3.68,4.22-5.61,6.3l-2.28,2.42-.67.7-.09.06c-7,5.59-9.66,13.21-12.54,21.27-1.16,3.2-2.33,6.53-3.79,9.74a45.55,45.55,0,0,1-2.53,4.83l-.06.1c-5.4,7.59-11.69,11.55-18.72,11.74h-.09a12.25,12.25,0,0,1-6-2.16c-1.34-.6-2.65-1.23-3.82-1.77l-.72-.35c-5.16-2.05-9-2.42-12.51-1.23-1.2.69-2.38,1.43-3.56,2.16l-.46.28c-20.15,12.76-38.33,21.88-52.59,26.4-15.46,4.9-26.42,4.57-32.5-1.07-10.66-9.83-3.92-34.41,18.95-69.23.6-.86,1.19-1.76,1.8-2.66l1.07-1.6a15.47,15.47,0,0,0,3.28-6.49,28.2,28.2,0,0,0,.6-3.64,13.83,13.83,0,0,0-.52-4.54,35.85,35.85,0,0,0-1.76-5l-.07-.18,0-.18c-.23-1.41-1.51-2.78-2.78-4.1a9.85,9.85,0,0,1-.77-.82,5.61,5.61,0,0,1-1.88-5.07c.49-3.91,4.82-7.53,7.73-8.81,15.67-6.59,30.43-12.77,38.81-26.2l.07-.1c1.11-1.46,2.27-3,3.42-4.47s2.45-3,3.5-4.25c1.37-1.49,2.74-2.89,4.12-4.23a65.94,65.94,0,0,1,5-4.44l.09-.06c3.66-2.53,7.2-5.3,10.59-7.95,5.74-4.45,11.71-9.09,18.57-12.93,1.5-1.16,2.95-2.33,4.29-3.4,4.39-3.61,8.83-6.91,13.13-10.11l.29-.21c1.58-1.18,3-2.3,4.25-3.35l.15-.1A290.74,290.74,0,0,0-86.63,41l0,0v0c1.14-1,2.19-1.92,3.22-2.78l0,0c1.22-.92,2.45-1.83,3.66-2.7s2.31-1.65,3.48-2.48l.18-.12c1.85-.9,3.7-1.86,5.51-2.91A183,183,0,0,0-31.89,0c1.52-1.39,3-2.76,4.51-4.12l.19-.16c1.48-.92,3-1.8,4.45-2.54A44.44,44.44,0,0,1-2.28-12.29a52.3,52.3,0,0,1,6.64.53c2.08-.59,3.92-1.06,5.64-1.44,8-1.75,14.44-1.75,19.33,0A16.07,16.07,0,0,1,34.78-10ZM-17.61,99.77c1.16-1.27,2.34-2.64,3.65-4.2A123.93,123.93,0,0,0,1.82,72.32l.08-.15L2,72c1.18-1.36,2.47-2.82,4.07-4.62.92-1,1.84-2.08,2.77-3.12C21.71,50,33.85,36.41,34.69,16.69l0-.17.07-.16a45.91,45.91,0,0,0,1.19-5A27.25,27.25,0,0,0,32.42-8.08a11.89,11.89,0,0,0-4.06-2.31c-4.24-1.49-10.08-1.43-17.41.18-1.74.37-3.61.85-5.78,1.49l-.35.09-.38,0A50.78,50.78,0,0,0-2-9.25,41.24,41.24,0,0,0-21-4.18c-1.37.7-2.76,1.51-4.15,2.39-1.47,1.34-2.91,2.65-4.36,4A186.38,186.38,0,0,1-68.63,32.55c-1.85,1-3.73,2-5.59,2.94-1.09.78-2.2,1.55-3.33,2.35s-2.37,1.76-3.56,2.67c-1,.84-2,1.69-3.08,2.65a291.85,291.85,0,0,1-44.88,36.35c-1.3,1.07-2.71,2.19-4.31,3.38l-.33.25c-4.23,3.16-8.65,6.44-13,10-1.42,1.15-2.9,2.34-4.46,3.54l-.19.13c-6.67,3.74-12.58,8.32-18.27,12.72-3.45,2.69-7,5.45-10.7,8-1.61,1.28-3.2,2.7-4.8,4.24-1.37,1.29-2.67,2.67-4,4.08-1,1.16-2.15,2.54-3.4,4.12s-2.27,2.95-3.36,4.38c-8.85,14.15-24.75,20.81-40.07,27.25-2.24,1-5.7,3.93-6,6.64a2.68,2.68,0,0,0,.92,2.46l.11.08c.22.26.5.54.74.82,1.5,1.55,3.16,3.33,3.65,5.58a41.73,41.73,0,0,1,1.81,5.35,16.79,16.79,0,0,1,.59,5.51,30.2,30.2,0,0,1-.67,4,18.11,18.11,0,0,1-3.8,7.55l-.93,1.37c-.57.89-1.19,1.79-1.78,2.68-21.71,33-28.84,56.85-19.58,65.41,10.27,9.43,40.5-.22,80.95-25.84l.47-.27c1.24-.77,2.48-1.53,3.81-2.29l.25-.1c5.54-2,11-.37,15.11,1.23l.13.07.77.4c1.24.59,2.5,1.2,3.82,1.77l.17,0,.12.12a8.91,8.91,0,0,0,4.22,1.65c5.91-.22,11.37-3.72,16.2-10.48a47.94,47.94,0,0,0,2.36-4.54c1.42-3.09,2.58-6.34,3.69-9.49,2.85-8,5.8-16.36,13.37-22.45l.51-.56c.77-.81,1.51-1.58,2.27-2.41,1.92-2.05,3.77-4.17,5.58-6.24,1.29-1.52,2.62-3.06,4-4.68,8.69-10.41,18.75-18.73,29.45-27.54,4.1-3.37,8.3-6.86,12.39-10.43,1.22-1.22,2.57-2.56,4-4.1,1-1,2.11-2.21,3.19-3.45,9.61-14.54,21.64-26.13,36.39-39.73"/></g></g><g class="cls-17"><g class="cls-18"><path class="cls-12" d="M26.08-1.8a14.4,14.4,0,0,1,3.8,5.88l.06.22a33.35,33.35,0,0,1,.63,6.08,40.47,40.47,0,0,1-.25,5.87l0,.1c-.47,2.78-.76,5.67-1,8.7-.63,7-1.25,14.28-5,20.46C20,52.11,15,57.65,10,63c-1.51,1.65-3.07,3.36-4.56,5C4.11,69.6,2.92,71,1.85,72.29A113.37,113.37,0,0,1-8.83,89.4c-1.29,1.72-2.65,3.52-4.12,5.32l-.14.12L-15.29,97c-13.93,13.45-28.29,27.34-39,43.71l-.14.19c-1.38,1.51-2.81,3-3.93,4.11-1.48,1.46-2.74,2.66-3.88,3.76l-.08.08A461,461,0,0,0-106.66,188c-.62.78-1.22,1.58-1.81,2.33l-1,1.26c-.79,1-1.6,2-2.43,3.07s-1.79,2.11-2.57,3l-.11.1-.11.09c-6.44,4.91-11.28,11.78-15.69,22.24l-.06.16c-5.95,10.41-17,15.8-27.15,19.74l-.18.07A26.05,26.05,0,0,1-165,241a36.86,36.86,0,0,1-8.08-1.18,22.63,22.63,0,0,0-3.4,1.1l-2.2,1.3-1.92,1.14C-202.08,256.27-240.17,276-254.4,263c-12-11,.7-38,13.43-58.61.84-1.39,1.73-2.8,2.62-4.21l.14-.18a15.66,15.66,0,0,0,3.75-7.62,34.77,34.77,0,0,0,.57-4.38v-.06a20.37,20.37,0,0,0-1.06-7.41c-.22-.84-.49-1.68-.75-2.51-.12-.43-.24-.86-.36-1.25a11.35,11.35,0,0,1-2.42-8.8,7.32,7.32,0,0,1,3.82-5.53c4-2.36,8.12-4.37,12.21-6.33,9.61-4.62,18.71-9,24.59-17.57l.07-.08q1.72-2.13,3.5-4.51c1.08-1.44,2.18-3,3.29-4.59l.07-.09c1.4-1.83,2.78-3.5,4.14-5.12s2.6-3,3.78-4.33c6-6.86,13.71-11.58,21.06-16.14,3.67-2.26,7.45-4.6,11-7.16,1.41-1.1,2.86-2.28,4.4-3.57l.14-.12.17-.07a33.44,33.44,0,0,0,7.58-5.81,48.73,48.73,0,0,1,6.27-5.24l1.5-1.29c1.15-1,2.32-2.05,3.49-3l.2-.14c1.31-.8,2.65-1.55,4-2.33,13.52-7.8,26.3-15.2,34.4-27.67l.18-.2c1.49-1.56,2.76-2.8,4-3.94a48.81,48.81,0,0,1,4.55-3.61c1.31-.92,2.69-1.87,4.09-2.8,1.63-1.1,3.34-2.2,5.18-3.39l.19-.11c1.71-.8,3.45-1.67,5.17-2.58,11.84-5.93,21.3-13.91,31.56-23,1.41-1.23,2.81-2.48,4.25-3.71L-25.33.14l.2-.15a47.09,47.09,0,0,1,4.32-2.28A33.49,33.49,0,0,1-6.06-5.44a38,38,0,0,1,6.61.68c1.57-.17,3.12-.4,4.6-.63l1.44-.22C15.37-6.9,22-5.64,26.08-1.8m.67,6.52A11.49,11.49,0,0,0,23.86.26c-3.3-3-8.88-4-16.53-2.86-.48.08-1,.14-1.44.23-1.6.24-3.27.5-5,.68H.63l-.26,0a37.33,37.33,0,0,0-6.25-.69A30.15,30.15,0,0,0-19.19.47a32.88,32.88,0,0,0-3.93,2.07l-4.22,3.65c-1.41,1.21-2.82,2.46-4.22,3.69-10.41,9.17-20,17.28-32.17,23.39-1.67.91-3.43,1.75-5.16,2.57C-70.68,37-72.34,38.1-74,39.15c-1.39.94-2.74,1.88-4,2.76a44.33,44.33,0,0,0-4.28,3.43c-1.16,1-2.39,2.2-3.8,3.68-8.48,12.95-21.51,20.5-35.3,28.48l-3.83,2.22c-1.11,1-2.23,2-3.36,3l-1.73,1.47a48,48,0,0,0-6,5,36.34,36.34,0,0,1-8.11,6.21c-1.52,1.27-3,2.45-4.41,3.56-3.67,2.65-7.47,5-11.2,7.31-7.55,4.66-14.65,9-20.42,15.58-1.19,1.3-2.39,2.7-3.74,4.28s-2.65,3.23-4.07,5c-1.13,1.63-2.22,3.2-3.33,4.67s-2.37,3.12-3.55,4.55c-6.32,9.15-16.16,13.88-25.69,18.46-4,1.94-8.16,3.95-12,6.24l-.11,0a4.62,4.62,0,0,0-2.35,3.53,8.2,8.2,0,0,0,1.91,6.59l.23.27.1.33c.13.53.3,1,.46,1.57.24.87.51,1.72.75,2.58a22.24,22.24,0,0,1,1.12,8.48,32.67,32.67,0,0,1-.61,4.7,18.2,18.2,0,0,1-4.29,8.82c-.88,1.38-1.73,2.71-2.54,4-17,27.52-22.09,47.5-14.08,54.86,9,8.32,35,.78,69.65-20.13.63-.36,1.26-.72,1.88-1.11l2.29-1.37.21-.1a23.92,23.92,0,0,1,4.44-1.38l.41-.09.39.11a32.89,32.89,0,0,0,7.7,1.13,23.45,23.45,0,0,0,6.25-.69c9.58-3.76,20.07-8.87,25.58-18.44,4.55-10.82,9.61-18,16.42-23.22.74-.85,1.52-1.77,2.38-2.83s1.63-2,2.44-3l.94-1.25c.66-.8,1.26-1.59,1.9-2.38l.1-.12a458.9,458.9,0,0,1,44.58-39.45c1.09-1,2.35-2.23,3.77-3.64,1-1.07,2.41-2.48,3.75-3.94,10.89-16.59,25.38-30.58,39.35-44.1l2.18-2.09c1.41-1.76,2.77-3.51,4-5.19A113.08,113.08,0,0,0-1,70.71l.18-.26c1.1-1.35,2.32-2.8,3.74-4.39S6,62.6,7.5,60.94c4.85-5.29,9.82-10.73,13.9-17.1,3.4-5.61,4-12.55,4.64-19.27.24-2.92.53-6,1-8.89a42.42,42.42,0,0,0,.28-5.46,37.44,37.44,0,0,0-.58-5.5"/></g></g><g class="cls-19"><g class="cls-20"><path class="cls-12" d="M17.39,6.4A13.69,13.69,0,0,1,20.93,12,21,21,0,0,1,22,19c3.73,19.57-7.44,33-18.22,46.06L2.8,66.19c-1.31,1.58-2.68,3.25-4,4.93A142,142,0,0,1-11.86,87.67c-1.25,1.72-2.58,3.51-4,5.28l-.08.08c-4.37,4.82-9,9.44-13.58,13.89-9.82,9.7-19.13,18.87-25.83,30.24l-.15.18c-1.38,1.64-3,3.32-5.22,5.53-1.46,1.4-2.74,2.63-3.92,3.74C-70.3,151.93-76.5,157.07-82.49,162c-7.66,6.36-15.62,13-22.37,20l-4.86,4.58-2.06,1.95c-2.56,2.39-5.21,4.85-7.84,7.25-1.09,1-2.2,2-3.31,3l-.06,0c-4.71,3.77-8.3,8.64-11.77,13.37-5.35,7.22-10.86,14.71-20.53,18.78a22.88,22.88,0,0,1-6,2.89,37.6,37.6,0,0,1-6.08,2.21,39.21,39.21,0,0,1-6.71,1.16c-1.78.45-3.57.8-5.34,1.11l-3.94,2.24c-21.93,12.41-50.56,25-62.34,14.1-10.73-9.86-.55-33.15,9.87-50.94.71-1.22,1.41-2.4,2.16-3.62l.33-.56a15.81,15.81,0,0,0,2.36-4.4,21.64,21.64,0,0,0,1-4.87v-.06a13.06,13.06,0,0,0-.4-4.92c-.24-1-.53-2.18-.85-3.22-.2-.76-.42-1.52-.58-2.27a10.76,10.76,0,0,1,3.6-12.87,77.9,77.9,0,0,1,12-7.09c6.86-3.53,13.33-6.84,17.26-13.05l.09-.12c.93-1.15,1.91-2.37,2.94-3.76,2.88-3.92,5.52-8.05,7.85-11.7,1-1.47,2.29-3.4,3.65-5.29,1.2-1.68,2.31-3.15,3.4-4.53l.16-.15c7.68-7.22,16.7-12.9,25.44-18.37,2.24-1.43,4.6-2.89,6.85-4.37,1.44-1.13,2.79-2.26,4.14-3.43l.16-.16.18-.07c3.33-1.58,5.69-4,8.18-6.42a61,61,0,0,1,4.6-4.24c1.49-1.32,3.23-2.84,5-4.33l.14-.12.21-.09c1.85-.83,3.75-1.75,5.57-2.7h0A95.75,95.75,0,0,0-87.33,51.48c1-1,1.88-2,2.78-3l1.42-1.54c1.45-1.5,2.83-3,4.22-4.42l.1-.11.12-.08c1.17-.87,2.45-1.75,3.88-2.71l.14-.06c1.32-.7,2.68-1.42,4.08-2.21s2.69-1.5,4-2.29l.11,0c1.83-.88,3.75-1.88,5.6-2.91s3.5-2,5.38-3.25c4.32-2.78,8.54-5.92,12.6-8.94,2.66-2,5.14-3.84,7.69-5.6,1.75-1.31,3.42-2.55,5.06-3.71,1.9-1.35,3.61-2.52,5.27-3.64l.14-.07c1.33-.69,2.66-1.32,4-1.86a41.17,41.17,0,0,1,23-2.68A38.76,38.76,0,0,1,8,2.49,16.26,16.26,0,0,1,17.39,6.4M-18.5,91c1.37-1.74,2.66-3.46,3.93-5.17A149.28,149.28,0,0,0-4.1,69.52l.13-.24c1.36-1.7,2.78-3.42,4.14-5.06l.94-1.13C12,50,22.26,37.55,18.69,19.19l0-.29a18.38,18.38,0,0,0-.81-6.22c-1.44-4.16-4.8-6.54-10-7.16a36.43,36.43,0,0,0-5.39-.14H2.29l-.19,0A37.81,37.81,0,0,0-19.19,7.8c-1.21.51-2.45,1.08-3.69,1.71-1.6,1.09-3.29,2.24-5.1,3.52-1.64,1.17-3.28,2.39-5.06,3.71-2.53,1.78-5,3.62-7.65,5.59-4.13,3.06-8.33,6.21-12.78,9.07-1.94,1.23-3.72,2.3-5.51,3.3s-3.87,2.1-5.74,3c-1.36.78-2.71,1.53-4.06,2.27s-2.76,1.51-4.08,2.21c-1.33.89-2.5,1.72-3.63,2.51-1.35,1.45-2.72,2.88-4.11,4.32L-82,50.54c-.87,1-1.77,2-2.69,3a98.32,98.32,0,0,1-33.85,26.21c-1.82,1-3.67,1.86-5.5,2.68-1.69,1.41-3.36,2.89-4.82,4.18l-.06,0a58,58,0,0,0-4.39,4c-2.53,2.5-5.12,5.1-8.82,6.91-1.36,1.18-2.68,2.27-4.11,3.41l-.12.08c-2.3,1.5-4.67,3-7,4.44-8.57,5.41-17.43,11-24.91,18-1,1.28-2.11,2.73-3.23,4.31-1.36,1.88-2.67,3.79-3.63,5.23-2.35,3.66-5,7.81-7.93,11.81-1,1.4-2,2.63-3,3.79-4.34,6.82-11.44,10.45-18.31,14A76,76,0,0,0-226,169.4l-.06,0a8,8,0,0,0-2.63,9.65l.05.21c.21.74.41,1.48.62,2.24.29,1.13.63,2.27.87,3.4a16.14,16.14,0,0,1,.43,5.91,21.27,21.27,0,0,1-1.14,5.49,17.9,17.9,0,0,1-2.74,5.09l-.2.36c-.72,1.19-1.45,2.4-2.14,3.58-13.77,23.53-17.64,40.77-10.57,47.27,7.87,7.24,29.12,1.89,58.27-14.68,1.41-.76,2.81-1.56,4.2-2.37l.24-.12.31-.05c1.79-.29,3.65-.67,5.49-1.15h.25a34.74,34.74,0,0,0,6.25-1.08,37.26,37.26,0,0,0,5.69-2.06l.25-.1a19.92,19.92,0,0,0,5.35-2.63l.23-.12c9-3.76,14.06-10.61,19.44-17.9,3.57-4.85,7.26-9.85,12.23-13.86,1.09-1,2.17-2,3.3-3,2.61-2.39,5.25-4.85,7.79-7.21l2.06-1.94,4.8-4.55c6.83-7,14.85-13.7,22.56-20.11,6-4.94,12.1-10.06,17.72-15.34,1.19-1.1,2.44-2.29,3.91-3.71,2.12-2.07,3.66-3.69,5-5.24,6.84-11.6,16.71-21.31,26.19-30.67,4.51-4.45,9.16-9,13.46-13.75"/></g></g><g class="cls-21"><g class="cls-22"><path class="cls-12" d="M8.66,14.63a13,13,0,0,1,3.89,7C18.12,38,9,50.36.28,62.27-.3,63-.85,63.78-1.39,64.53c-1.34,1.85-2.36,3.28-3.25,4.6a106.3,106.3,0,0,1-9.64,16.49c-1.18,1.7-2.46,3.44-3.78,5.18l-.12.15c-2.78,2.79-5.62,5.6-8.37,8.29-12.4,12.26-24.17,23.84-33,38.12l-.15.22c-1.45,1.56-3,3.12-4.43,4.57C-71,148.82-78.48,155-85.64,160.88c-8.36,6.88-17,14-24.62,21.88l-.06.05c-1.47,1.39-3,2.76-4.46,4.19-3.18,3-6,5.63-9,8.32-1,.92-2.06,1.84-3.07,2.73l-.12.09c-4.71,3.38-8.63,7.72-12.4,11.93-5.27,5.85-10.72,11.9-18.37,15.49a56.13,56.13,0,0,1-5.41,3,47.14,47.14,0,0,1-6.08,2.35c-1.79.66-3.35,1.17-4.82,1.59s-3.21.87-4.86,1.23c-1.27.72-2.56,1.42-3.81,2.12-18.91,10.23-43.67,20.37-54.22,10.66-7.19-6.62-5.35-20.83,5.35-41.1.69-1.32,1.46-2.71,2.27-4.17l.07-.11a17.3,17.3,0,0,0,2.86-7.35c.21-1.17.33-2.48.46-4.09v-.09a27.23,27.23,0,0,0-.22-6.18l-.07-.68a22,22,0,0,1,.07-7.25c-.29-3,2-4.63,3.59-5.84a14.81,14.81,0,0,0,1.35-1.06l.13-.13a101.22,101.22,0,0,1,8.85-5.46c5.75-3.29,11.66-6.65,15.63-11.87l.09-.13c1.15-1.23,2.32-2.54,3.59-4,2.26-2.64,4.45-5.45,6.58-8.14,3.4-4.31,6.92-8.78,10.77-12.82,1-1.19,2-2.39,3-3.59,8.08-10.52,16.85-17.7,26.76-21.93,1.11-.91,2.28-1.91,3.5-3,1.53-1.38,3.13-2.59,4.69-3.79a38.23,38.23,0,0,0,7.14-6.4l.08-.09.07-.08c1.6-1.4,3.48-3,5.32-4.61l.2-.16.24-.1c2-.76,3.93-1.62,5.84-2.57,1.68-.77,3.45-1.66,5.63-2.81l.09,0c11.1-4.83,19.68-13.64,28.23-23,1-1.09,1.94-2.19,2.95-3.3.45-.51.9-1,1.36-1.5l.07-.08c1.5-1.5,3-3,4.6-4.52l.08-.07.15-.11c1.67-1.11,3.47-2.21,5.43-3.36,2.29-1.36,4.7-2.75,7.41-4.26L-59,34.52l.07,0C-47.89,29.3-37.8,22.5-28,15.93l.09-.06a52.47,52.47,0,0,1,5.27-2.68c8.35-3.73,16.27-4.42,24.18-2a14.62,14.62,0,0,1,7.15,3.48M-20.72,88.85c1.28-1.67,2.54-3.38,3.66-5A102.73,102.73,0,0,0-7.64,67.67l.12-.22c1-1.38,2-2.84,3.36-4.75.59-.78,1.14-1.51,1.69-2.26,8.75-11.9,17-23.13,11.88-38.15l0-.17c-1-4.49-3.69-7.06-8.43-8l-.19-.06C-6.41,11.9-13.35,12.48-21.09,16c-1.61.73-3.22,1.55-4.93,2.53-9.86,6.63-20,13.46-31.24,18.73-1.23.67-2.45,1.34-3.69,2-2.65,1.48-5.06,2.87-7.33,4.2-1.88,1.12-3.59,2.18-5.24,3.24-1.48,1.46-3,2.9-4.43,4.37-.46.49-.91,1-1.33,1.48-1,1.09-2,2.18-2.94,3.3C-91,65.46-99.83,74.49-111.46,79.57c-2.13,1.14-4,2.07-5.65,2.83-1.89.94-3.85,1.8-5.83,2.58-1.74,1.46-3.51,3-5,4.33a42,42,0,0,1-7.56,6.82c-1.52,1.15-3.07,2.3-4.51,3.62s-2.57,2.24-3.71,3.22l-.18.13-.2.08c-9.53,4-18,10.94-25.82,21.17l-.09.07c-1,1.18-2,2.38-3,3.59l0,.06c-3.78,4-7.27,8.4-10.65,12.69-2.12,2.7-4.36,5.55-6.65,8.22-1.28,1.49-2.44,2.81-3.64,4.1-4.3,5.64-10.46,9.15-16.44,12.55a99.27,99.27,0,0,0-8.51,5.24,16.6,16.6,0,0,1-1.54,1.23c-1.64,1.21-2.66,2.05-2.43,3.49l0,.3-.08.28a19.51,19.51,0,0,0-.05,6.49l.07.67a31.67,31.67,0,0,1,.24,6.8c-.13,1.69-.28,3.08-.49,4.32a19.69,19.69,0,0,1-3.29,8.42c-.8,1.41-1.54,2.78-2.18,4-9.87,18.73-12.05,32.05-6.1,37.5,6.9,6.39,25.2,2.28,50.21-11.25,1.29-.7,2.64-1.43,4-2.19l.21-.12.24,0c1.67-.35,3.28-.75,4.85-1.23s2.92-.9,4.7-1.54l.07,0a44.35,44.35,0,0,0,5.68-2.2,45.69,45.69,0,0,0,5.14-2.89l.2-.11c7.15-3.28,12.16-8.86,17.5-14.8,3.86-4.3,7.88-8.75,12.79-12.28,1-.89,2-1.79,3-2.67,3-2.68,5.88-5.34,9-8.28,1.47-1.4,2.94-2.79,4.43-4.16,7.76-8,16.45-15.14,24.84-22.09,7.15-5.87,14.54-12,21.34-18.55,1.36-1.37,2.84-2.88,4.27-4.41,9-14.5,20.78-26.15,33.33-38.51,2.69-2.65,5.5-5.44,8.25-8.21"/></g></g><path class="cls-23" d="M51.31-25.63a15,15,0,0,1,4,6.36c2.51,9,1.76,17-2.2,23.21-2.67,4.22-5.32,8.8-8.08,13.93-1,1.79-1.74,3.32-2.41,4.8-2.42,4.08-3,9-3.72,13.78-1,7.51-2,15.3-9.83,19.86A77.17,77.17,0,0,0,10.49,73.24c-1.35,1.63-2.6,3.22-3.76,4.82A109.38,109.38,0,0,1-8.22,100.4c-1.4,1.64-2.85,3.32-4.46,5.16-13.71,12-25.63,26.54-34.49,37.84-.91,1-1.8,1.94-2.69,2.91-1.54,1.62-3,3.11-4.42,4.57-4.34,3.92-9.06,7.73-13.64,11.42-11.55,9.31-23.53,19-31.26,31.81-1.22,1.57-2.5,3.1-3.86,4.59-1.1,1.19-2.23,2.37-3.42,3.53-8.18,6.83-11.44,16-14.08,24.9-.39,1.29-.75,2.57-1.12,3.83l-.53,1.8c-1.4,2.82-2.16,6.34-3,10.11-1.88,8.74-3.85,17.79-14.16,17.19-4.27-.12-8-2.27-12-4.53a68.11,68.11,0,0,0-6.66-3.4,42.52,42.52,0,0,0-5.62-2.54c-4.12-1.44-7.7-1.25-11.12.58l-1.31.88c-1,.64-1.92,1.26-2.88,1.91-24.18,16-46.11,27.6-63.32,33.57-18.13,6.28-30.71,6.35-37.35.22-12.48-11.51-1.32-43.69,30.65-88.31l.85-1.16c.49-.7,1-1.44,1.53-2.14a20.63,20.63,0,0,0,2.28-4.21,30.61,30.61,0,0,0,1.42-4.5c1.5-4.59-1.7-7.89-4.74-11.11-.78-.81-1.58-1.67-2.32-2.48a10.31,10.31,0,0,1-2.4-4.42l0-.07c1.12-8.55,9-11.87,16.66-15.09,4.42-1.86,9-3.79,12.13-6.72l.06,0c1.93-1.13,3.62-2.18,5.24-3.25,7.86-5.22,13.26-10.69,17-17.16,1.38-1.8,2.63-3.32,3.8-4.7a55.4,55.4,0,0,1,4.12-4.3,39.37,39.37,0,0,1,4.84-3.32c7-4.13,13.42-9.17,19.63-14,4-3.19,8.17-6.43,12.36-9.35,1.82-1.54,3.54-2.9,4.86-4a76.06,76.06,0,0,1,7.38-5.35c1.67-1.08,3.44-2.24,5.11-3.48,1.37-1,2.8-2,4.2-3,5.25-4.33,10.62-8.67,15.83-12.88,9.87-7.94,20.07-16.19,29.72-24.68l4-3.07c1.34-1,2.62-2,4-3,2-1.07,4.06-2.2,6.1-3.35,18-9.24,31.6-20.73,40.51-34.15,1.48-2.09,2.71-3.84,3.78-5.52v0l.06,0a26.09,26.09,0,0,1,5.82-2.78,54.63,54.63,0,0,1,5.86-2.55,41.75,41.75,0,0,1,10-1.19c4.93-.15,9.59-.31,14-3.15,2.5-1.05,4.9-2,7.16-2.81,19.25-7,32.55-7.36,39.47-1m-330.49,312c12.7,11.7,50-1,99.84-33.89,1-.62,1.92-1.27,2.85-1.91l1.34-.87c3.65-2,7.36-2.15,11.74-.66a42.55,42.55,0,0,1,5.66,2.59,58.47,58.47,0,0,1,6.69,3.45c3.9,2.2,7.6,4.31,11.74,4.41,9.78.56,11.66-8.24,13.52-16.75.8-3.78,1.58-7.36,3-10.19l.48-1.75c.39-1.28.76-2.56,1.15-3.86,2.64-8.91,5.92-18.21,14.26-25.14,1.17-1.13,2.3-2.32,3.35-3.49,1.35-1.45,2.63-3,3.84-4.53,7.77-12.89,19.74-22.55,31.35-31.91,4.58-3.69,9.27-7.49,13.61-11.4,1.43-1.45,2.85-2.93,4.39-4.56L-47.7,143c8.86-11.3,20.79-25.85,34.54-37.9,1.58-1.81,3.05-3.48,4.4-5.11A106.71,106.71,0,0,0,6.14,77.72c1.23-1.63,2.45-3.2,3.82-4.86,6.18-7.49,11.93-12.76,18.71-17,7.55-4.46,8.55-11.77,9.58-19.49.66-4.84,1.35-9.83,3.81-14,.64-1.45,1.39-3,2.36-4.8,2.8-5.14,5.45-9.72,8.11-13.95,3.87-6.08,4.63-13.95,2.14-22.73a14.1,14.1,0,0,0-3.81-6.07c-6.61-6.1-20-5.69-38.75,1.14-2.24.79-4.63,1.76-7.07,2.76C.54-18.36-4.47-18.19-9.27-18a40.77,40.77,0,0,0-9.88,1.16,50.64,50.64,0,0,0-5.76,2.52,25.84,25.84,0,0,0-5.7,2.68c-1.07,1.67-2.25,3.42-3.74,5.51-9,13.47-22.65,25-40.71,34.3-2.07,1.18-4.1,2.28-6.08,3.33l-3.88,3c-1.34,1-2.66,2-4,3-9.69,8.51-19.89,16.74-29.77,24.7-5.21,4.19-10.61,8.56-15.85,12.9-1.45,1.06-2.82,2.07-4.2,3-1.71,1.25-3.44,2.39-5.15,3.52a69,69,0,0,0-7.32,5.3c-1.32,1-3,2.4-4.85,3.94-4.23,2.93-8.39,6.19-12.4,9.37-6.2,4.87-12.6,9.91-19.65,14.06a36,36,0,0,0-4.79,3.26c-1.31,1.25-2.64,2.65-4,4.24-1.19,1.37-2.39,2.88-3.74,4.65-3.75,6.52-9.21,12-17.16,17.33-1.6,1.07-3.32,2.11-5.23,3.24-3.21,3-7.81,4.92-12.29,6.82-7.49,3.13-15.19,6.39-16.3,14.57a9.57,9.57,0,0,0,2.3,4.06c.67.85,1.44,1.67,2.24,2.5,3.19,3.31,6.51,6.78,4.93,11.64a32.53,32.53,0,0,1-1.46,4.58A21.44,21.44,0,0,1-246,195.5c-.52.71-1,1.44-1.54,2.14l-.84,1.15c-31.78,44.37-43,76.28-30.77,87.55"/><path class="cls-23" d="M42.65-17.37l0,.05c4.29,9,4.81,18.48,1.65,29-.55,1.78-1.23,3.68-2,5.59C40.16,21.39,39,26,37.79,30.37c-1.61,6.16-3.25,12.54-7.64,17.73A192.29,192.29,0,0,1,15.93,63.84c-2.27,2.3-4.58,4.66-6.78,7C7.62,72.53,6.31,74,5.09,75.47a138,138,0,0,1-11,17C-7.19,94.24-8.57,96-10,97.82c-4.88,5.57-10.12,10.89-15.24,16.06C-34,122.75-43.09,132-50.38,142.46c-1,1.08-2.06,2.21-3.37,3.59-1.53,1.56-2.89,2.93-4.13,4.16-4,3.5-8.11,6.86-12.14,10.13-11,9-22.4,18.29-30.94,30.07-1.33,1.48-2.62,2.94-3.93,4.39-.91,1-1.81,2-2.74,3s-1.87,2-2.82,2.9c-8.73,7.51-11.24,18.4-13.48,28l-.19.84c-.35,1.47-.68,2.93-1,4.4-.21.87-.39,1.77-.57,2.66-1,5.36-2.17,10.94-6.85,14.55-5,4-12.58,3.68-23.16-1.06-1.45-.56-2.83-1.21-4.27-1.84a38.31,38.31,0,0,0-4.12-1.62c-4.8-1.6-8.56-1.41-12.12.61-1.36.86-2.72,1.78-4.07,2.64-45.58,29.27-78.61,39.74-90.6,28.68-11.27-10.39-2.19-38.88,25-78.22l1.07-1.53c.53-.76,1.05-1.49,1.57-2.26.31-.46.65-.94.93-1.35,1.14-1.57,2.09-2.9,1.67-4.48l0-.08,0-.05a17.09,17.09,0,0,0,.37-5,31.94,31.94,0,0,0-.72-5.3c-.79-1.29-1.67-2.83-2.44-4.34a32.84,32.84,0,0,1-2-4.36,10.37,10.37,0,0,1-.64-7.51c1.28-4.78,7.25-6.76,11.21-8.08,2.11-.92,4.15-1.86,6.06-2.76,14.15-6.81,24.16-14.64,30.51-23.94,1.16-1.53,2.31-3.06,3.51-4.59s2.5-3.13,3.59-4.43a54.37,54.37,0,0,1,4.67-4c1.77-1.41,3.53-2.83,5.31-4.24,8.39-6.74,17.09-13.72,26.65-19.24,1.54-1.23,3-2.44,4.53-3.58a36.15,36.15,0,0,1,6.94-5.34,43.81,43.81,0,0,0,5.54-4c1-.79,2.1-1.58,3.12-2.4s2-1.57,3-2.36c1.26-1,2.49-2,3.71-3a213.86,213.86,0,0,0,19.64-15.86A226,226,0,0,1-89.29,41c1.32-1.1,2.69-2.31,4-3.46l.69-.61,3.68-2.76c1.1-.83,2.23-1.64,3.35-2.45,16.08-8.95,32.77-18.9,45-34,1.55-1.73,2.89-3.26,4.11-4.71h0l.07,0c1.5-1,3.07-2,4.57-2.87,1.68-.95,3.3-1.8,4.9-2.52A39.18,39.18,0,0,1,3.28-15.91c2-.72,4.06-1.43,6.12-2.1,12.32-4,21.87-4.75,28.32-2.31a14.36,14.36,0,0,1,4.87,2.91ZM-270.46,278.11c11.74,10.82,44.43.33,89.74-28.76,1.35-.88,2.72-1.77,4.11-2.65,3.69-2.09,7.71-2.29,12.65-.68a40.86,40.86,0,0,1,4.19,1.66c1.44.63,2.84,1.25,4.28,1.85,10.3,4.6,17.66,5,22.45,1.14,4.54-3.51,5.62-9,6.68-14.25.18-.89.36-1.8.56-2.66.36-1.48.68-2.94,1-4.42l.2-.82c2.26-9.72,4.8-20.7,13.65-28.29.94-.95,1.87-1.92,2.79-2.88s1.83-2,2.74-3c1.31-1.45,2.6-2.91,3.9-4.38,8.55-11.8,20-21.13,31-30.12,4-3.3,8.16-6.67,12.1-10.13,1.25-1.21,2.57-2.55,4.1-4.14,1.35-1.38,2.38-2.51,3.35-3.54,7.27-10.54,16.37-19.76,25.16-28.65,5.09-5.15,10.35-10.49,15.19-16,1.42-1.8,2.83-3.6,4.12-5.33a134.78,134.78,0,0,0,11-17c1.26-1.5,2.59-3,4.11-4.64,2.21-2.37,4.54-4.77,6.78-7.06a189,189,0,0,0,14.2-15.69c4.31-5.12,5.95-11.44,7.53-17.56,1.16-4.44,2.36-9,4.56-13.15.74-1.87,1.44-3.74,2-5.53,3.12-10.34,2.59-19.67-1.58-28.54a15,15,0,0,0-4.6-2.71c-6.3-2.37-15.7-1.57-27.86,2.34C7.6-16.77,5.47-16,3.48-15.29H3.4l-.06,0a38.85,38.85,0,0,0-21.9,3.51,48.35,48.35,0,0,0-4.83,2.49Q-25.67-8-27.93-6.48c-1.21,1.42-2.54,3-4.09,4.68-12.27,15.1-29,25.09-45.1,34-1.11.83-2.23,1.64-3.36,2.45s-2.42,1.82-3.64,2.75l-.67.58c-1.32,1.17-2.7,2.37-4.07,3.52A222.54,222.54,0,0,0-107.6,56.79,217.28,217.28,0,0,1-127.3,72.7c-1.19,1-2.43,1.94-3.69,2.94-1,.79-2,1.59-3,2.39s-2.1,1.59-3.11,2.35a40.24,40.24,0,0,1-5.6,4,35.41,35.41,0,0,0-6.86,5.26l-4.58,3.63c-9.56,5.51-18.25,12.49-26.63,19.22-1.8,1.43-3.56,2.86-5.33,4.26a57.83,57.83,0,0,0-4.58,3.9c-1.08,1.26-2.24,2.71-3.56,4.41-1.19,1.49-2.34,3-3.53,4.58-6.4,9.36-16.42,17.22-30.71,24.1-1.89.9-3.94,1.85-6.09,2.76-3.88,1.31-9.67,3.23-10.88,7.72a9.91,9.91,0,0,0,.61,7.14,34,34,0,0,0,2,4.31c.77,1.51,1.68,3,2.44,4.34l0,.11a31.77,31.77,0,0,1,.74,5.41,17.85,17.85,0,0,1-.38,5.12c.44,1.8-.62,3.27-1.74,4.86-.29.43-.64.87-.95,1.33-.52.79-1,1.52-1.58,2.27l-1,1.54c-27,39-36.17,67.3-25.11,77.43"/><path class="cls-23" d="M33.94-9.15l0,0a28.77,28.77,0,0,1,3.89,20.87,46.83,46.83,0,0,1-1.2,5.16c-.92,20.32-13.77,34.7-26.26,48.62L7.61,68.64c-1.56,1.77-2.86,3.23-4,4.58a125.52,125.52,0,0,1-16,23.54c-1.31,1.56-2.55,3-3.74,4.29-14.71,13.59-26.74,25.1-36.23,39.56-1.13,1.31-2.34,2.58-3.35,3.62-1.49,1.57-2.85,2.93-4.08,4.15-4.15,3.61-8.37,7.13-12.46,10.51-10.63,8.73-20.63,17-29.25,27.33-1.41,1.61-2.73,3.16-4.05,4.7-1.81,2.08-3.66,4.21-5.59,6.29-.74.79-1.52,1.59-2.29,2.4l-.57.64c-7.29,5.81-10,13.58-13,21.81-1.1,3.16-2.28,6.45-3.74,9.61a45.33,45.33,0,0,1-2.46,4.73c-5.2,7.31-11.16,11.1-17.75,11.29a10.81,10.81,0,0,1-5.4-2c-1.37-.59-2.7-1.24-3.88-1.8l-.79-.38c-5.58-2.21-9.76-2.59-13.64-1.21-1.21.69-2.45,1.45-3.66,2.19l-.49.32c-41.83,26.49-72.27,35.78-83.41,25.51-10.18-9.36-3.36-33.39,19.2-67.69.58-.9,1.17-1.77,1.79-2.68l.95-1.44a16.23,16.23,0,0,0,3.52-7,26.79,26.79,0,0,0,.64-3.8,14.42,14.42,0,0,0-.55-4.92,35,35,0,0,0-1.82-5.23v-.06c-.27-1.8-1.75-3.31-3.14-4.78-.28-.28-.53-.57-.8-.83a4.54,4.54,0,0,1-1.52-4c.49-3.49,4.51-6.83,7.08-8,15.13-6.36,30.75-12.88,39.34-26.65,1.1-1.45,2.28-3,3.42-4.43,1.27-1.62,2.4-3,3.46-4.22,1.3-1.45,2.69-2.86,4-4.16,1.66-1.58,3.29-3,5-4.37,3.71-2.57,7.26-5.33,10.68-8,5.74-4.46,11.7-9.1,18.52-12.9,1.49-1.17,3-2.36,4.36-3.49,4.36-3.56,8.81-6.87,13.08-10l.3-.22c1.6-1.21,3-2.31,4.3-3.39A289.85,289.85,0,0,0-85.63,41.84c1.12-1,2.14-1.9,3.19-2.76s2.42-1.82,3.63-2.69,2.31-1.65,3.44-2.45c1.92-.94,3.77-1.92,5.62-3A185.66,185.66,0,0,0-30.89.86c1.48-1.38,2.95-2.72,4.44-4.09,1.54-1,3-1.81,4.43-2.55A43.38,43.38,0,0,1-2.15-11.07a56.92,56.92,0,0,1,6.71.56c2.15-.61,4.06-1.1,5.83-1.49,7.67-1.69,13.91-1.73,18.57-.1a15,15,0,0,1,4.95,2.9Zm-295.7,279.07c10.91,10,41,.68,82.58-25.62l.49-.31c1.22-.75,2.46-1.52,3.77-2.24,4-1.47,8.37-1.06,14.17,1.21l.84.38c1.19.57,2.52,1.23,3.84,1.81l.08,0a9.92,9.92,0,0,0,5,1.88c6.34-.17,12.15-3.88,17.24-11,.84-1.41,1.62-2.92,2.43-4.64,1.42-3.15,2.57-6.42,3.71-9.6,3-8.31,5.73-16.13,13.11-22l.54-.61c.76-.82,1.56-1.6,2.28-2.41,1.91-2.05,3.8-4.19,5.6-6.26,1.3-1.53,2.62-3.08,4-4.69,8.62-10.35,18.66-18.64,29.31-27.42,4.08-3.38,8.32-6.87,12.44-10.47,1.23-1.22,2.56-2.58,4.08-4.16,1-1,2.17-2.25,3.31-3.55,9.5-14.44,21.5-26,36.25-39.6,1.17-1.31,2.4-2.69,3.7-4.27A124.4,124.4,0,0,0,3,72.9l0-.05C4.22,71.49,5.51,70,7.11,68.23c.92-1,1.84-2.08,2.77-3.11,13-14.5,25.26-28.18,26.09-48.3l0-.07c.51-1.82.91-3.5,1.21-5.14A28.46,28.46,0,0,0,33.41-8.81a13.09,13.09,0,0,0-4.68-2.72c-4.48-1.58-10.59-1.53-18.14.14-1.78.38-3.7.87-5.87,1.5H4.65l-.09,0a49.19,49.19,0,0,0-6.67-.6A42.37,42.37,0,0,0-21.69-5.24c-1.4.72-2.86,1.57-4.31,2.47l-4.41,4.08a187.14,187.14,0,0,1-39,30.21c-1.86,1-3.74,2-5.59,2.92-1.11.78-2.27,1.59-3.42,2.44s-2.42,1.76-3.64,2.68c-1,.86-2,1.74-3.16,2.75a291.8,291.8,0,0,1-44.76,36.25c-1.26,1-2.71,2.16-4.32,3.37l-.29.22c-4.26,3.19-8.69,6.46-13,10-1.41,1.13-2.9,2.35-4.42,3.49a153.08,153.08,0,0,0-18.46,12.9c-3.46,2.68-7,5.44-10.69,8-1.63,1.3-3.31,2.77-4.93,4.34-1.35,1.31-2.7,2.69-4,4.1-1,1.23-2.19,2.61-3.43,4.21s-2.33,3-3.42,4.42c-8.65,13.88-24.36,20.47-39.57,26.83-2.57,1.14-6.34,4.4-6.75,7.54a3.85,3.85,0,0,0,1.35,3.53,10.58,10.58,0,0,0,.8.84c1.45,1.54,3,3.11,3.31,5.09a39.41,39.41,0,0,1,1.79,5.25,14.46,14.46,0,0,1,.56,5.14,24.9,24.9,0,0,1-.63,3.86,16.64,16.64,0,0,1-3.61,7.16l-1,1.43c-.59.89-1.21,1.8-1.76,2.67-22.07,33.54-29.12,57.92-19.35,67"/><path class="cls-23" d="M25.2-.95a13.16,13.16,0,0,1,3.46,5.31,39.16,39.16,0,0,1,.63,6,35.31,35.31,0,0,1-.3,5.74c-.47,2.85-.74,5.88-1,8.82-.58,6.89-1.21,14-4.86,20C19,51.34,13.92,56.84,9,62.19c-1.52,1.64-3.08,3.37-4.61,5.06s-2.61,3-3.7,4.39a115.75,115.75,0,0,1-10.62,17c-1.29,1.73-2.64,3.49-4.11,5.29l-2.25,2.19C-30.22,109.61-44.65,123.54-55.46,140c-1.4,1.57-2.83,3-3.92,4.15-1.44,1.43-2.72,2.66-3.85,3.72a456.93,456.93,0,0,0-44.48,39.37c-.61.74-1.21,1.53-1.84,2.35l-1,1.27c-.82,1-1.61,2-2.42,3s-1.76,2.08-2.56,3C-122.19,202-127.1,209-131.6,219.63c-5.78,10.12-16.65,15.4-26.57,19.29a24.34,24.34,0,0,1-7,.81,34.57,34.57,0,0,1-8.06-1.21,23.72,23.72,0,0,0-4,1.27l-2.26,1.36-1.88,1.12c-17.58,10.62-32.77,17.8-45.11,21.33-12.85,3.67-22,3.18-27-1.49-8.86-8.16-4-28.45,13.68-57.13.85-1.39,1.73-2.76,2.62-4.17a16.6,16.6,0,0,0,4-8.17,37.82,37.82,0,0,0,.61-4.53,21.21,21.21,0,0,0-1.1-7.83c-.24-.88-.5-1.72-.75-2.59-.14-.47-.31-1-.44-1.48a10.17,10.17,0,0,1-2.33-8,6.39,6.39,0,0,1,3.29-4.73c3.89-2.32,8.08-4.33,12.12-6.29,9.77-4.7,19-9.15,25-17.94,1.21-1.46,2.38-3,3.56-4.54s2.2-3,3.33-4.68c1.41-1.8,2.77-3.5,4.14-5.11s2.57-3,3.73-4.28c5.94-6.75,13.52-11.41,20.84-15.95,3.66-2.25,7.48-4.61,11-7.2,1.46-1.15,2.92-2.31,4.49-3.63l.06,0c3-1.46,5.35-3.67,7.86-6a48.39,48.39,0,0,1,6.23-5.16l1.51-1.34c1.16-1,2.32-2,3.48-3l4-2.35c13.64-7.88,26.51-15.33,34.78-28,1.52-1.6,2.78-2.84,4-3.93a49.91,49.91,0,0,1,4.43-3.53c1.32-.92,2.71-1.87,4.1-2.8,1.63-1.1,3.33-2.22,5.18-3.39,1.74-.81,3.52-1.69,5.22-2.61,12-6,21.5-14,31.82-23.14,1.36-1.23,2.8-2.49,4.21-3.7l4.34-3.73a37.84,37.84,0,0,1,4.24-2.26A32.51,32.51,0,0,1-6-4.25,41.34,41.34,0,0,1,.6-3.53c1.66-.16,3.26-.4,4.86-.65l1.43-.24c8.34-1.23,14.48,0,18.31,3.47M-253,261.7c9.61,8.87,35.59,1.59,71.28-19.95.62-.39,1.25-.75,1.9-1.14s1.51-.89,2.27-1.35a22.86,22.86,0,0,1,4.28-1.34l.07,0,.08,0a33.37,33.37,0,0,0,8,1.19,24,24,0,0,0,6.74-.8c9.76-3.8,20.55-9.07,26.22-19,4.51-10.73,9.48-17.79,16.2-22.89.76-.88,1.56-1.84,2.48-2.95l2.42-3,1-1.27,1.86-2.37a462.82,462.82,0,0,1,44.54-39.43c1.11-1,2.35-2.23,3.82-3.69,1.08-1.08,2.54-2.57,3.85-4.06,10.84-16.49,25.29-30.46,39.27-44l2.23-2.15c1.41-1.75,2.8-3.53,4.06-5.23a120.84,120.84,0,0,0,10.62-17c1.11-1.4,2.34-2.83,3.75-4.44S7,63.42,8.52,61.76c4.88-5.3,9.93-10.82,14-17.22,3.54-5.86,4.21-12.94,4.79-19.77.27-3,.53-6,1-8.86a38.44,38.44,0,0,0,.25-5.63A38,38,0,0,0,28,4.47a12.77,12.77,0,0,0-3.27-5C21.1-3.91,15.14-5,7-3.8L5.6-3.58c-1.59.25-3.24.5-5,.69l-.1,0A37.73,37.73,0,0,0-6-3.64a32.14,32.14,0,0,0-13.84,3A38.37,38.37,0,0,0-24,1.56C-25.39,2.77-26.83,4-28.24,5.25S-31.09,7.73-32.49,9c-10.36,9.12-19.89,17.19-31.93,23.21-1.71.93-3.49,1.82-5.2,2.59l-5.16,3.38c-1.38,1-2.74,1.86-4.06,2.78a44.26,44.26,0,0,0-4.36,3.5c-1.21,1.07-2.49,2.3-3.92,3.82-8.34,12.77-21.27,20.27-35,28.2-1.33.75-2.66,1.54-4,2.3-1.1,1-2.26,2-3.43,3L-131,83.11a50,50,0,0,0-6.2,5.13c-2.52,2.34-4.91,4.58-8,6.07-1.56,1.32-3,2.49-4.46,3.61-3.62,2.64-7.44,5-11.12,7.24-7.27,4.51-14.82,9.17-20.69,15.82-1.18,1.3-2.39,2.71-3.76,4.32s-2.67,3.24-4.08,5.06c-1.14,1.63-2.27,3.21-3.33,4.67s-2.37,3.12-3.56,4.56c-6.14,8.88-15.88,13.57-25.28,18.08-4,2-8.19,4-12.07,6.3a5.63,5.63,0,0,0-3,4.34,9.33,9.33,0,0,0,2.2,7.59l0,.14c.17.51.34,1,.49,1.55.24.86.51,1.71.74,2.57a21.73,21.73,0,0,1,1.11,8.07,41.76,41.76,0,0,1-.61,4.57,17,17,0,0,1-4.11,8.38c-.87,1.38-1.76,2.78-2.59,4.15-17.55,28.4-22.43,48.43-13.8,56.37"/><path class="cls-23" d="M16.5,7.24a12.24,12.24,0,0,1,3.2,5,20,20,0,0,1,.92,6.84c3.74,19.05-7.27,32.37-18,45.23l-.93,1.13C.39,67-1,68.72-2.37,70.46A146.65,146.65,0,0,1-12.93,86.94c-1.27,1.72-2.61,3.49-4,5.24-4.39,4.82-9,9.42-13.56,13.86-9.93,9.76-19.27,19-26,30.48-1.39,1.63-3,3.31-5.2,5.48-1.46,1.42-2.72,2.6-3.91,3.69-5.63,5.32-11.83,10.46-17.79,15.42-7.7,6.38-15.66,13-22.49,20l-4.8,4.54-2.07,1.95c-2.57,2.38-5.2,4.85-7.81,7.23-1.12,1-2.23,2-3.32,3-4.81,3.87-8.48,8.81-12,13.58-5.28,7.13-10.72,14.52-20.17,18.46a21,21,0,0,1-5.82,2.84,37,37,0,0,1-5.93,2.17,39.4,39.4,0,0,1-6.63,1.12c-1.8.45-3.69.85-5.52,1.13-1.4.81-2.78,1.57-4.14,2.35-30.43,17.29-52,22.36-60.72,14.34-7.9-7.27-4.29-24.83,10.17-49.49.68-1.19,1.38-2.36,2.14-3.58l.22-.44a16.08,16.08,0,0,0,2.59-4.73,22.83,22.83,0,0,0,1.06-5.11,15.29,15.29,0,0,0-.4-5.35c-.27-1.08-.59-2.2-.86-3.33-.22-.75-.44-1.53-.65-2.27A9.68,9.68,0,0,1-227.27,168a77.56,77.56,0,0,1,11.86-7c7-3.57,13.6-7,17.7-13.42,1-1.19,2-2.43,3-3.82,2.9-3.95,5.54-8.08,7.88-11.76,1-1.46,2.29-3.36,3.64-5.26,1.2-1.67,2.28-3.13,3.34-4.48,7.64-7.16,16.63-12.8,25.33-18.28,2.28-1.43,4.63-2.9,7-4.42,1.41-1.11,2.8-2.3,4.2-3.49l.06,0c3.49-1.66,6-4.2,8.51-6.65a51.46,51.46,0,0,1,4.52-4.16c1.48-1.32,3.25-2.87,5-4.34l.07,0c1.9-.84,3.79-1.76,5.64-2.72A96.71,96.71,0,0,0-86.27,52.26c.91-1,1.83-2,2.73-3l1.42-1.53c1.42-1.47,2.82-3,4.22-4.43,1.22-.91,2.48-1.79,3.88-2.71,1.37-.71,2.75-1.46,4.16-2.24l4.06-2.27c1.89-.92,3.82-1.91,5.72-3s3.51-2,5.42-3.24c4.38-2.83,8.59-6,12.65-9,2.67-2,5.15-3.83,7.69-5.6,1.77-1.35,3.42-2.54,5.07-3.7C-27.39,10.24-25.68,9-24,8c1.3-.67,2.61-1.29,3.91-1.85A40.11,40.11,0,0,1,2.27,3.55,34.81,34.81,0,0,1,8,3.72,14.85,14.85,0,0,1,16.5,7.24M-244.37,253.47c8.48,7.8,29.75,2.67,59.93-14.47,1.37-.75,2.77-1.54,4.17-2.34l.1,0c1.87-.31,3.74-.66,5.63-1.14a38.26,38.26,0,0,0,6.52-1.11,39.83,39.83,0,0,0,5.91-2.15,21.18,21.18,0,0,0,5.72-2.8c9.34-3.91,14.75-11.23,20-18.28,3.54-4.82,7.2-9.8,12.09-13.7,1.08-1,2.16-2,3.28-3,2.6-2.38,5.28-4.88,7.8-7.25l2.07-1.94,4.8-4.53c6.83-7.05,14.8-13.66,22.51-20.07,6-4.95,12.15-10.06,17.81-15.39,1.16-1.1,2.44-2.32,3.87-3.71,2.19-2.15,3.79-3.81,5.13-5.4C-50.27,124.63-40.46,115-31,105.61c4.51-4.43,9.18-9,13.54-13.82,1.36-1.76,2.67-3.51,3.93-5.22A146.78,146.78,0,0,0-2.92,70.09C-1.55,68.35-.13,66.63,1.23,65l.91-1.13C12.71,51.14,23.67,37.93,20,19.07a18.78,18.78,0,0,0-.91-6.68C17.46,7.75,13.67,5,7.91,4.31a33.82,33.82,0,0,0-5.58-.15H2.24a39.34,39.34,0,0,0-22,2.52c-1.27.54-2.56,1.16-3.86,1.8-1.59,1.08-3.31,2.26-5.17,3.59-1.64,1.15-3.28,2.37-5.06,3.69-2.54,1.79-5,3.63-7.65,5.6-4.09,3-8.34,6.21-12.72,9-1.9,1.22-3.69,2.29-5.45,3.27s-3.84,2.06-5.74,3c-1.32.78-2.7,1.55-4,2.29s-2.79,1.52-4.13,2.22c-1.4.93-2.64,1.81-3.79,2.64l-4.15,4.39L-83,49.7l-2.7,2.95a97.63,97.63,0,0,1-33.52,26c-1.83.94-3.72,1.86-5.62,2.7-1.73,1.47-3.46,3-4.95,4.3a50.82,50.82,0,0,0-4.47,4.13c-2.49,2.47-5.06,5-8.67,6.75-1.37,1.21-2.76,2.35-4.17,3.51-2.33,1.5-4.71,3-7,4.44-8.65,5.44-17.6,11.06-25.14,18.16q-1.56,2-3.32,4.43c-1.36,1.89-2.66,3.8-3.66,5.24-2.32,3.66-5,7.83-7.91,11.79-1,1.41-2,2.63-3,3.79-4.15,6.58-10.81,10-17.88,13.61a81.42,81.42,0,0,0-11.81,6.95,9.13,9.13,0,0,0-3,11c.19.8.4,1.58.62,2.34.31,1.09.6,2.23.87,3.33a15.14,15.14,0,0,1,.39,5.54,21.23,21.23,0,0,1-1.09,5.24,17.32,17.32,0,0,1-2.63,4.86l-.22.39c-.74,1.25-1.44,2.41-2.13,3.59-14.3,24.39-18,41.72-10.32,48.75"/><path class="cls-23" d="M7.78,15.46a12,12,0,0,1,3.52,6.42c5.38,15.84-3.52,28-12.1,39.64-.58.76-1.13,1.51-1.66,2.27-1.4,1.91-2.43,3.37-3.39,4.73a106.62,106.62,0,0,1-9.52,16.4c-1.2,1.68-2.45,3.4-3.79,5.14-2.78,2.81-5.62,5.62-8.34,8.3-12.5,12.31-24.29,23.93-33.15,38.33-1.49,1.62-3,3.15-4.44,4.59C-72,147.93-79.38,154-86.54,160c-8.38,6.9-17.07,14.06-24.73,22-1.49,1.39-3,2.78-4.48,4.17-3.17,3-6,5.63-9,8.3-1,.94-2,1.84-3.07,2.74-4.83,3.45-8.8,7.84-12.59,12.1-5.22,5.79-10.63,11.77-18.1,15.24a45,45,0,0,1-5.31,3,42.89,42.89,0,0,1-5.92,2.31c-1.8.67-3.35,1.17-4.8,1.59-1.62.47-3.3.92-5,1.24-1.34.77-2.64,1.49-4,2.2-26.16,14.16-44.83,18-52.6,10.92-6.71-6.2-4.76-19.93,5.67-39.69.66-1.3,1.43-2.69,2.22-4.11a18,18,0,0,0,3.07-7.84,35.42,35.42,0,0,0,.47-4.21,29.89,29.89,0,0,0-.23-6.45l-.06-.68a21.16,21.16,0,0,1,.07-7c-.33-2.5,1.51-3.87,3.14-5.05a14.56,14.56,0,0,0,1.44-1.16,102.74,102.74,0,0,1,8.79-5.43c5.82-3.31,11.84-6.75,15.95-12.17,1.2-1.27,2.38-2.6,3.65-4.09,2.27-2.68,4.47-5.47,6.62-8.19,3.38-4.29,6.89-8.76,10.73-12.78,1-1.19,2-2.4,3-3.61,8-10.43,16.69-17.54,26.49-21.67,1.12-.94,2.34-2,3.63-3.16,1.51-1.33,3.11-2.55,4.63-3.7a39,39,0,0,0,7.33-6.61c1.6-1.42,3.46-3.08,5.35-4.64l.07,0c2-.78,4-1.66,5.93-2.6,1.73-.79,3.49-1.69,5.66-2.84,11.33-4.94,20-13.84,28.65-23.29,1-1.12,2-2.23,3-3.33.44-.51.9-1,1.34-1.52l4.6-4.51c1.74-1.12,3.5-2.24,5.46-3.38,2.28-1.36,4.7-2.74,7.38-4.24,1.24-.7,2.46-1.38,3.71-2.06C-47.15,30.37-37,23.54-27.22,16.92c1.82-1,3.48-1.87,5.17-2.63,8.1-3.61,15.74-4.25,23.31-2a13.08,13.08,0,0,1,6.52,3.13M-235.65,245.24c7.49,6.93,25.88,3,51.82-11,1.32-.7,2.64-1.43,4-2.21h.09c1.67-.36,3.33-.76,5-1.26,1.45-.42,3-.92,4.77-1.56a45.9,45.9,0,0,0,5.83-2.26,51.21,51.21,0,0,0,5.3-3c7.41-3.42,12.52-9.11,17.91-15.11,3.87-4.28,7.82-8.7,12.69-12.18,1-.86,2-1.79,3-2.7,3-2.67,5.87-5.36,9-8.31,1.51-1.41,3-2.78,4.47-4.18,7.69-7.91,16.38-15.08,24.76-22,7.18-5.9,14.57-12,21.39-18.61,1.44-1.45,3-3,4.4-4.54,8.87-14.38,20.71-26,33.19-38.4,2.75-2.68,5.56-5.47,8.37-8.28,1.27-1.69,2.55-3.43,3.72-5.07a106.13,106.13,0,0,0,9.5-16.36c1-1.42,2-2.88,3.4-4.79.55-.73,1.09-1.49,1.67-2.26C7.14,49.59,16,37.58,10.67,22c-1.09-5-4.32-8-9.54-9.07-7.46-2.25-14.9-1.63-22.84,1.91a56.16,56.16,0,0,0-5.1,2.61c-9.83,6.62-20,13.43-31.16,18.69l-3.7,2.07c-2.69,1.49-5.1,2.88-7.39,4.22-1.92,1.14-3.69,2.24-5.38,3.33-1.5,1.47-3,3-4.52,4.48-.46.49-.91,1-1.36,1.5-1,1.11-2,2.18-3,3.34-8.69,9.49-17.41,18.42-28.84,23.4-2.16,1.18-3.95,2-5.65,2.84-1.92.93-3.92,1.83-6,2.61-1.85,1.56-3.69,3.17-5.23,4.54a37.91,37.91,0,0,1-7.42,6.71c-1.51,1.13-3.09,2.33-4.57,3.65s-2.52,2.24-3.68,3.21l-.06,0c-9.73,4.1-18.34,11.15-26.33,21.53-1,1.21-2.05,2.42-3,3.62-3.85,4-7.36,8.47-10.74,12.77-2.15,2.72-4.34,5.52-6.65,8.21-1.25,1.47-2.44,2.81-3.61,4.08-4.18,5.49-10.25,8.95-16.12,12.31a95.88,95.88,0,0,0-8.7,5.35,12,12,0,0,1-1.48,1.18c-1.59,1.18-3.24,2.37-2.9,4.55v.13a20.82,20.82,0,0,0-.09,6.89l.08.68A28.73,28.73,0,0,1-224,190c-.14,1.67-.26,3-.48,4.21a19,19,0,0,1-3.15,8c-.79,1.42-1.52,2.81-2.19,4.08-10.3,19.52-12.32,33-5.81,39"/></g></g></g></g></g><polygon class="cls-24" points="242.54 51.2 223.43 84.27 242.54 117.33 0 117.33 20.11 84.27 0 51.2 242.54 51.2"/><polygon class="cls-25" points="205.54 84.27 195.82 90.79 204.27 98.9 193.57 103.64 200.48 113.09 189.11 115.89 194.26 126.41 182.58 127.19 185.82 138.44 174.18 137.18 175.44 148.82 164.19 145.57 163.41 157.25 152.9 152.1 150.1 163.47 140.65 156.56 135.9 167.26 127.8 158.82 121.27 168.53 114.74 158.82 106.64 167.27 101.89 156.56 92.44 163.47 89.64 152.1 79.13 157.25 78.35 145.57 67.1 148.81 68.36 137.18 56.72 138.43 59.96 127.18 48.28 126.41 53.43 115.89 42.07 113.09 48.97 103.64 38.27 98.9 46.72 90.79 37 84.27 46.72 77.74 38.27 69.63 48.97 64.89 42.07 55.44 53.43 52.64 48.28 42.12 59.97 41.35 56.72 30.1 68.36 31.35 67.1 19.71 78.35 22.96 79.13 11.28 89.64 16.43 92.44 5.06 101.89 11.97 106.64 1.26 114.74 9.72 121.27 0 127.8 9.72 135.9 1.26 140.65 11.97 150.1 5.06 152.9 16.43 163.41 11.28 164.19 22.96 175.44 19.71 174.19 31.35 185.82 30.1 182.58 41.35 194.26 42.12 189.11 52.64 200.48 55.44 193.57 64.89 204.27 69.63 195.82 77.74 205.54 84.27"/><path class="cls-24" d="M121.27,148.85a64.59,64.59,0,1,1,64.59-64.58A64.66,64.66,0,0,1,121.27,148.85Zm0-125.53a60.95,60.95,0,1,0,61,61A61,61,0,0,0,121.27,23.32Z"/><path class="cls-26" d="M87.45,68.39H90a0,0,0,0,1,0,0V84.74a0,0,0,0,1,0,0H87.45a3.36,3.36,0,0,1-3.36-3.36V71.75A3.36,3.36,0,0,1,87.45,68.39Z"/><path class="cls-26" d="M152.55,68.39h2.55a3.36,3.36,0,0,1,3.36,3.36v9.63a3.36,3.36,0,0,1-3.36,3.36h-2.55a0,0,0,0,1,0,0V68.39A0,0,0,0,1,152.55,68.39Z"/><path class="cls-26" d="M121.53,31.57h2.55a0,0,0,0,1,0,0V47.91a0,0,0,0,1,0,0h-2.55a3.36,3.36,0,0,1-3.36-3.36V34.92A3.36,3.36,0,0,1,121.53,31.57Z" transform="translate(160.86 -81.38) rotate(90)"/><path class="cls-26" d="M150.67,41.58H91.88a3,3,0,0,0-3,3v72.54A11.86,11.86,0,0,0,100.73,129h41.09a11.85,11.85,0,0,0,11.84-11.85V44.57A3,3,0,0,0,150.67,41.58ZM118.24,118a1,1,0,1,1-2,0V108.9a1,1,0,1,1,2,0Zm4,0a1,1,0,0,1-2,0V108.9a1,1,0,0,1,2,0Zm4,0a1,1,0,1,1-2,0V108.9a1,1,0,1,1,2,0Z"/><path class="cls-26" d="M150.67,41.58H121V108a.76.76,0,0,1,.26-.06,1,1,0,0,1,1,1V118a1,1,0,0,1-1,1,1.09,1.09,0,0,1-.26,0v10h20.81a11.85,11.85,0,0,0,11.84-11.85V44.57A3,3,0,0,0,150.67,41.58ZM126.32,118a1,1,0,1,1-2,0V108.9a1,1,0,1,1,2,0Z"/><rect class="cls-26" x="94.64" y="69.66" width="52.97" height="20.28"/><rect class="cls-26" x="121.01" y="69.66" width="26.6" height="20.28"/><path class="cls-27" d="M87.45,68.26H90a0,0,0,0,1,0,0V84.61a0,0,0,0,1,0,0H87.45a3.36,3.36,0,0,1-3.36-3.36V71.62A3.36,3.36,0,0,1,87.45,68.26Z"/><path class="cls-27" d="M152.55,68.26h2.55a3.36,3.36,0,0,1,3.36,3.36v9.63a3.36,3.36,0,0,1-3.36,3.36h-2.55a0,0,0,0,1,0,0V68.26A0,0,0,0,1,152.55,68.26Z"/><path class="cls-27" d="M121.53,31.44h2.55a0,0,0,0,1,0,0V47.78a0,0,0,0,1,0,0h-2.55a3.36,3.36,0,0,1-3.36-3.36V34.79A3.36,3.36,0,0,1,121.53,31.44Z" transform="translate(160.73 -81.51) rotate(90)"/><path class="cls-28" d="M150.67,41.45H91.88a3,3,0,0,0-3,3V117a11.85,11.85,0,0,0,11.85,11.84h41.09A11.84,11.84,0,0,0,153.66,117V44.44A3,3,0,0,0,150.67,41.45Zm-32.43,76.4a1,1,0,1,1-2,0v-9.08a1,1,0,1,1,2,0Zm4,0a1,1,0,0,1-2,0v-9.08a1,1,0,0,1,2,0Zm4,0a1,1,0,0,1-2,0v-9.08a1,1,0,0,1,2,0Z"/><path class="cls-29" d="M150.67,41.45H121v66.36a1.09,1.09,0,0,1,.26,0,1,1,0,0,1,1,1v9.08a1,1,0,0,1-1,1,1.09,1.09,0,0,1-.26,0v10h20.81A11.84,11.84,0,0,0,153.66,117V44.44A3,3,0,0,0,150.67,41.45Zm-24.35,76.4a1,1,0,0,1-2,0v-9.08a1,1,0,0,1,2,0Z"/><rect class="cls-30" x="94.64" y="69.52" width="52.97" height="20.28"/><rect class="cls-31" x="121.01" y="69.52" width="26.6" height="20.28"/></g></g></svg>