<svg xmlns="http://www.w3.org/2000/svg" xmlns:xlink="http://www.w3.org/1999/xlink" viewBox="0 0 156.75 240.52"><defs><style>.cls-1{fill:none;}.cls-2{fill:#32324c;opacity:0.1;}.cls-3{opacity:0.46;}.cls-4{clip-path:url(#clip-path);}.cls-5{fill:#abd19c;}.cls-6{fill:#03635a;}.cls-7{fill:#03847a;}.cls-8{fill:#fff;}</style><clipPath id="clip-path"><rect class="cls-1" x="4.56" y="203.55" width="151" height="10.82"/></clipPath></defs><g id="Capa_1" data-name="Capa 1"><path class="cls-2" d="M143.22,179.13c-4,59.43-79,83.51-116,36.84-7.56-9.53-9.37-32.51-7.41-44.63C27.67,122.48,52.73,117.49,34,86.58S13.58-.44,65.22,0s18.36,83,53.94,106.08C135.43,116.64,145.32,148.18,143.22,179.13Z"/><path class="cls-2" d="M151.49,82.78a7.9,7.9,0,0,1-8.69-2.5c-3.36-4.07-8.72-12.3-7.12-21.87,2.28-13.66,19.6-2.75,21,12.61C157.32,78.7,154.49,81.7,151.49,82.78Z"/><path class="cls-2" d="M133,46.83A4.12,4.12,0,0,1,130.26,43c-.09-2.75.33-7.85,4-11.29,5.31-4.91,9,5.12,4.62,11.9C136.75,47,134.63,47.34,133,46.83Z"/><path class="cls-2" d="M3.87,139.13A4.08,4.08,0,0,1,.45,135.9c-.59-2.69-1.1-7.79,1.93-11.84,4.32-5.79,9.74,3.41,6.69,10.86C7.55,138.64,5.52,139.35,3.87,139.13Z"/><g class="cls-3"><g class="cls-4"><path class="cls-5" d="M155.56,209c0,3-33.8,5.41-75.5,5.41S4.56,211.94,4.56,209s33.8-5.41,75.5-5.41,75.5,2.42,75.5,5.41"/></g></g><ellipse class="cls-6" cx="77.86" cy="44.85" rx="55.83" ry="12.79"/><ellipse class="cls-6" cx="77.86" cy="202.17" rx="55.83" ry="12.79"/><rect class="cls-7" x="23" y="46.82" width="109.73" height="154.38"/><ellipse class="cls-7" cx="77.86" cy="46.82" rx="54.86" ry="12.11"/><ellipse class="cls-7" cx="77.86" cy="200.88" rx="54.86" ry="12.11"/><path class="cls-6" d="M78.19,166.26a449.69,449.69,0,0,1-55.32-3.44,1,1,0,0,1,.26-2,439.69,439.69,0,0,0,109.47,0,1,1,0,0,1,.26,2A433.9,433.9,0,0,1,78.19,166.26Z"/><path class="cls-6" d="M78.19,74.7a449.67,449.67,0,0,0-55.32,3.43,1,1,0,0,0,.26,2.05,439.69,439.69,0,0,1,109.47,0,1,1,0,0,0,.26-2.05A433.9,433.9,0,0,0,78.19,74.7Z"/><circle class="cls-6" cx="79.74" cy="121.59" r="37.82"/><rect class="cls-8" x="54.28" y="125" width="4" height="14.02"/><rect class="cls-8" x="61.47" y="126.98" width="4" height="12.04"/><rect class="cls-8" x="68.67" y="119.34" width="4" height="19.68"/><rect class="cls-8" x="75.86" y="120.75" width="4" height="18.27"/><rect class="cls-8" x="83.06" y="114.44" width="4" height="24.57"/><rect class="cls-8" x="90.25" y="111.04" width="4" height="27.98"/><rect class="cls-8" x="97.45" y="108" width="4" height="31.02"/></g></svg>