<svg xmlns="http://www.w3.org/2000/svg" viewBox="0 0 334.66 87.26"><defs><style>.cls-1{fill:#fbedd1;stroke:#eda719;stroke-miterlimit:10;stroke-width:3px;}.cls-2{fill:#142339;}</style></defs><g id="Capa_2" data-name="Capa 2"><g id="Capa_1-2" data-name="Capa 1"><rect class="cls-1" x="1.5" y="1.5" width="331.66" height="84.26" rx="24.26"/><path class="cls-2" d="M63.28,25.83A1.72,1.72,0,0,1,65.07,24H71a1.59,1.59,0,0,1,0,3.18H66.73v3.35h3.56A1.55,1.55,0,0,1,72,32.13a1.57,1.57,0,0,1-1.66,1.61H66.73v5a1.73,1.73,0,1,1-3.45,0Z"/><path class="cls-2" d="M73.4,29.88a1.66,1.66,0,1,1,3.31,0v5.9a2.14,2.14,0,0,0,4.28,0v-5.9a1.66,1.66,0,1,1,3.31,0v6c0,2.95-2,4.83-5.45,4.83S73.4,38.8,73.4,35.85Z"/><path class="cls-2" d="M86.19,29.88A1.67,1.67,0,0,1,87.84,28a1.39,1.39,0,0,1,1.52,1.21,3.59,3.59,0,0,1,3.2-1.35,4.24,4.24,0,0,1,4.53,4.46v6.35a1.67,1.67,0,1,1-3.32,0V32.93a2.14,2.14,0,1,0-4.27,0v5.78a1.66,1.66,0,1,1-3.31,0Z"/><path class="cls-2" d="M107.21,31.58c-.83,0-1.57-.65-2.62-.65-1.89,0-2.79,1.68-2.79,3.38s1,3.34,2.79,3.34a18.48,18.48,0,0,0,2.46-.69,1.44,1.44,0,0,1,1.42,1.45c0,1.7-2.85,2.27-4,2.27-3.57,0-5.94-2.92-5.94-6.37a6.16,6.16,0,0,1,5.94-6.41c1.31,0,4,.48,4,2.09C108.47,30.68,108,31.58,107.21,31.58Z"/><path class="cls-2" d="M113.1,24.88a1.9,1.9,0,0,1-1.87,1.91,1.93,1.93,0,0,1-1.86-1.91,1.87,1.87,0,0,1,3.73,0Zm-3.52,5a1.66,1.66,0,1,1,3.31,0v8.83a1.66,1.66,0,1,1-3.31,0Z"/><path class="cls-2" d="M126.11,34.31c0,3.45-2.37,6.37-5.93,6.37s-5.93-2.92-5.93-6.37a5.95,5.95,0,1,1,11.86,0Zm-8.55,0c0,1.59.83,3.34,2.62,3.34s2.62-1.75,2.62-3.34-.8-3.38-2.62-3.38S117.56,32.73,117.56,34.31Z"/><path class="cls-2" d="M127.52,29.88A1.67,1.67,0,0,1,129.17,28a1.39,1.39,0,0,1,1.52,1.21,3.59,3.59,0,0,1,3.2-1.35,4.24,4.24,0,0,1,4.53,4.46v6.35a1.66,1.66,0,1,1-3.31,0V32.93a2.14,2.14,0,1,0-4.28,0v5.78a1.66,1.66,0,1,1-3.31,0Z"/><path class="cls-2" d="M143,35.39a2.86,2.86,0,0,0,3.13,2.4c1.7,0,2.87-1.34,3.75-1.34a1.46,1.46,0,0,1,1.35,1.43c0,1.42-2.94,2.8-5.4,2.8a6,6,0,0,1-6.21-6.37,6,6,0,1,1,11.89-.39c0,1-.44,1.47-1.45,1.47Zm5.2-2.2a2.62,2.62,0,0,0-2.65-2.53,2.66,2.66,0,0,0-2.62,2.53Z"/><path class="cls-2" d="M159.62,31.76c-.62,0-1.88-1-3-1-.6,0-1.13.27-1.13.92,0,1.54,5.75,1.31,5.75,5.08,0,2.2-1.86,3.88-4.71,3.88-1.87,0-4.63-1-4.63-2.55a1.56,1.56,0,0,1,1.43-1.47c1.29,0,1.86,1.13,3.43,1.13,1,0,1.31-.33,1.31-.95,0-1.52-5.75-1.29-5.75-5.08,0-2.3,1.86-3.86,4.48-3.86,1.63,0,4.14.76,4.14,2.39A1.43,1.43,0,0,1,159.62,31.76Z"/><path class="cls-2" d="M180,34.31c0,3.45-2.37,6.37-5.93,6.37s-5.93-2.92-5.93-6.37a5.95,5.95,0,1,1,11.86,0Zm-8.55,0c0,1.59.82,3.34,2.62,3.34s2.62-1.75,2.62-3.34-.81-3.38-2.62-3.38S171.45,32.73,171.45,34.31Z"/><path class="cls-2" d="M181.41,29.88A1.67,1.67,0,0,1,183.06,28a1.59,1.59,0,0,1,1.66,1.37,3.67,3.67,0,0,1,3.15-1.51c3.56,0,5.33,3.33,5.33,6.55s-2.11,6.23-5.45,6.23a4.7,4.7,0,0,1-3-1.15v4a1.66,1.66,0,1,1-3.31,0Zm5.91,7.77c1.72,0,2.57-1.8,2.57-3.34s-.85-3.38-2.57-3.38-2.6,1.66-2.6,3.27S185.5,37.65,187.32,37.65Z"/><path class="cls-2" d="M197.27,35.39a2.87,2.87,0,0,0,3.13,2.4c1.7,0,2.88-1.34,3.75-1.34a1.47,1.47,0,0,1,1.36,1.43c0,1.42-2.95,2.8-5.41,2.8a6,6,0,0,1-6.21-6.37,6,6,0,1,1,11.89-.39c0,1-.43,1.47-1.44,1.47Zm5.2-2.2a2.61,2.61,0,0,0-2.64-2.53,2.66,2.66,0,0,0-2.62,2.53Z"/><path class="cls-2" d="M206.91,29.69a1.63,1.63,0,0,1,1.7-1.65c.88,0,1.61.32,1.61,1.37h.05A2.6,2.6,0,0,1,212.59,28a1.61,1.61,0,0,1,1.61,1.77c0,1.08-1,1.15-2,1.61s-2,.89-2,2.2v5.09a1.66,1.66,0,1,1-3.31,0Z"/><path class="cls-2" d="M225.93,38.38c0,.85,0,2.17-1.59,2.17-1,0-1.35-.53-1.58-1.41a4,4,0,0,1-3.15,1.54c-3.11,0-5.48-2.64-5.48-6.37s2.44-6.41,5.48-6.41a3.79,3.79,0,0,1,3.15,1.51A1.56,1.56,0,0,1,224.34,28c1.59,0,1.59,1.31,1.59,2.16Zm-5.86-.73c1.72,0,2.55-1.75,2.55-3.34s-.81-3.38-2.55-3.38-2.63,1.8-2.63,3.38S218.27,37.65,220.07,37.65Z"/><path class="cls-2" d="M228.62,31.07h-.73a1.34,1.34,0,0,1-1.45-1.45,1.41,1.41,0,0,1,1.45-1.45h.73v-2a1.66,1.66,0,1,1,3.31,0v2h.95a1.46,1.46,0,1,1,0,2.9h-.95v7.64a1.66,1.66,0,1,1-3.31,0Z"/><path class="cls-2" d="M238.1,24.88a1.89,1.89,0,0,1-1.86,1.91,1.94,1.94,0,0,1-1.87-1.91,1.87,1.87,0,0,1,3.73,0Zm-3.52,5a1.66,1.66,0,1,1,3.31,0v8.83a1.66,1.66,0,1,1-3.31,0Z"/><path class="cls-2" d="M239,30.61a2.43,2.43,0,0,1-.2-1,1.59,1.59,0,0,1,1.72-1.6A1.5,1.5,0,0,1,242,29.21l2.12,6.53h0l2.12-6.53A1.5,1.5,0,0,1,247.71,28a1.6,1.6,0,0,1,1.73,1.6,2.46,2.46,0,0,1-.21,1l-3.34,8.55c-.32.86-.66,1.39-1.79,1.39s-1.47-.53-1.79-1.39Z"/><path class="cls-2" d="M261.67,38.38c0,.85,0,2.17-1.58,2.17-1,0-1.36-.53-1.59-1.41a4,4,0,0,1-3.15,1.54c-3.11,0-5.47-2.64-5.47-6.37s2.43-6.41,5.47-6.41a3.79,3.79,0,0,1,3.15,1.51A1.57,1.57,0,0,1,260.09,28c1.58,0,1.58,1.31,1.58,2.16Zm-5.86-.73c1.72,0,2.55-1.75,2.55-3.34s-.8-3.38-2.55-3.38-2.62,1.8-2.62,3.38S254,37.65,255.81,37.65Z"/><path class="cls-2" d="M270.53,31.76c-.62,0-1.89-1-3-1-.6,0-1.13.27-1.13.92,0,1.54,5.75,1.31,5.75,5.08,0,2.2-1.86,3.88-4.71,3.88-1.86,0-4.62-1-4.62-2.55a1.55,1.55,0,0,1,1.42-1.47c1.29,0,1.87,1.13,3.43,1.13,1,0,1.31-.33,1.31-.95,0-1.52-5.75-1.29-5.75-5.08,0-2.3,1.86-3.86,4.49-3.86,1.63,0,4.13.76,4.13,2.39A1.42,1.42,0,0,1,270.53,31.76Z"/><path class="cls-2" d="M109.2,50.88A1.67,1.67,0,0,1,110.85,49a1.39,1.39,0,0,1,1.52,1.21,3.59,3.59,0,0,1,3.2-1.35,4.24,4.24,0,0,1,4.53,4.46v6.35a1.66,1.66,0,1,1-3.31,0V53.93a2.14,2.14,0,1,0-4.28,0v5.78a1.66,1.66,0,1,1-3.31,0Z"/><path class="cls-2" d="M125.46,45.88a1.89,1.89,0,0,1-1.86,1.91,1.94,1.94,0,0,1-1.87-1.91,1.91,1.91,0,0,1,1.87-1.81A1.89,1.89,0,0,1,125.46,45.88Zm-3.52,5a1.66,1.66,0,1,1,3.31,0v8.83a1.66,1.66,0,1,1-3.31,0Z"/><path class="cls-2" d="M126.33,51.61a2.43,2.43,0,0,1-.2-1,1.59,1.59,0,0,1,1.72-1.6,1.5,1.5,0,0,1,1.47,1.17l2.12,6.53h0l2.12-6.53A1.5,1.5,0,0,1,135.07,49a1.6,1.6,0,0,1,1.73,1.6,2.46,2.46,0,0,1-.21,1l-3.33,8.55c-.33.86-.67,1.39-1.8,1.39S130,61,129.67,60.16Z"/><path class="cls-2" d="M140.39,56.39a2.85,2.85,0,0,0,3.12,2.4c1.7,0,2.88-1.34,3.75-1.34a1.47,1.47,0,0,1,1.36,1.43c0,1.42-3,2.8-5.41,2.8a6,6,0,0,1-6.2-6.37,5.95,5.95,0,1,1,11.88-.39c0,1-.43,1.47-1.45,1.47Zm5.19-2.2a2.61,2.61,0,0,0-2.64-2.53,2.66,2.66,0,0,0-2.62,2.53Z"/><path class="cls-2" d="M150,45.54a1.66,1.66,0,1,1,3.31,0V59.71a1.66,1.66,0,1,1-3.31,0Z"/><path class="cls-2" d="M162.14,52.07h-.73A1.34,1.34,0,0,1,160,50.62a1.41,1.41,0,0,1,1.45-1.45h.73v-2a1.66,1.66,0,1,1,3.31,0v2h1a1.46,1.46,0,1,1,0,2.9h-1v7.64a1.66,1.66,0,1,1-3.31,0Z"/><path class="cls-2" d="M179.46,59.38c0,.85,0,2.17-1.59,2.17-1,0-1.35-.53-1.58-1.41a4,4,0,0,1-3.15,1.54c-3.11,0-5.48-2.64-5.48-6.37s2.44-6.41,5.48-6.41a3.81,3.81,0,0,1,3.15,1.51A1.56,1.56,0,0,1,177.87,49c1.59,0,1.59,1.31,1.59,2.16Zm-5-15.52a2.49,2.49,0,0,1,.88-.23,1.46,1.46,0,0,1,1.24,1.43,1.31,1.31,0,0,1-.94,1.35l-2.58,1c-.66.23-.46.23-.92.23-.69,0-1.22-.88-1.22-1.68a1.12,1.12,0,0,1,.65-.92l.18-.09Zm-.92,14.79c1.73,0,2.56-1.75,2.56-3.34s-.81-3.38-2.56-3.38S171,53.73,171,55.31,171.8,58.65,173.59,58.65Z"/><path class="cls-2" d="M189.58,52.58c-.83,0-1.56-.65-2.62-.65-1.89,0-2.78,1.68-2.78,3.38s1,3.34,2.78,3.34a18.05,18.05,0,0,0,2.46-.69,1.44,1.44,0,0,1,1.42,1.45c0,1.7-2.85,2.27-4,2.27-3.57,0-5.94-2.92-5.94-6.37a6.16,6.16,0,0,1,5.94-6.41c1.31,0,4,.48,4,2.09C190.84,51.68,190.36,52.58,189.58,52.58Z"/><path class="cls-2" d="M192.8,52.07h-.73a1.34,1.34,0,0,1-1.45-1.45,1.41,1.41,0,0,1,1.45-1.45h.73v-2a1.66,1.66,0,1,1,3.31,0v2h.94c.86,0,1.59.39,1.59,1.45a1.4,1.4,0,0,1-1.59,1.45h-.94v7.64a1.66,1.66,0,1,1-3.31,0Z"/><path class="cls-2" d="M202.28,45.88a1.9,1.9,0,0,1-1.87,1.91,1.94,1.94,0,0,1-1.86-1.91,1.87,1.87,0,0,1,3.73,0Zm-3.52,5a1.66,1.66,0,1,1,3.31,0v8.83a1.66,1.66,0,1,1-3.31,0Z"/><path class="cls-2" d="M212.14,52.58c-.83,0-1.56-.65-2.62-.65-1.88,0-2.78,1.68-2.78,3.38s1,3.34,2.78,3.34A18.05,18.05,0,0,0,212,58a1.45,1.45,0,0,1,1.43,1.45c0,1.7-2.85,2.27-4,2.27-3.56,0-5.93-2.92-5.93-6.37a6.16,6.16,0,0,1,5.93-6.41c1.31,0,4,.48,4,2.09C213.41,51.68,212.92,52.58,212.14,52.58Z"/><path class="cls-2" d="M225.94,55.31c0,3.45-2.37,6.37-5.93,6.37s-5.93-2.92-5.93-6.37a5.95,5.95,0,1,1,11.86,0Zm-8.55,0c0,1.59.83,3.34,2.62,3.34s2.62-1.75,2.62-3.34-.8-3.38-2.62-3.38S217.39,53.73,217.39,55.31Z"/></g></g></svg>