<svg xmlns="http://www.w3.org/2000/svg" viewBox="0 0 334.66 87.26"><defs><style>.cls-1{fill:#cbe3b4;stroke:#7dba43;stroke-miterlimit:10;stroke-width:3px;}.cls-2{fill:#142339;}</style></defs><g id="Capa_2" data-name="Capa 2"><g id="Capa_1-2" data-name="Capa 1"><rect class="cls-1" x="1.5" y="1.5" width="331.66" height="84.26" rx="24.26"/><path class="cls-2" d="M37.21,25.83A1.72,1.72,0,0,1,39,24h5.89a1.59,1.59,0,0,1,0,3.18H40.66v3.35h3.56a1.55,1.55,0,0,1,1.66,1.57,1.57,1.57,0,0,1-1.66,1.61H40.66v5a1.73,1.73,0,1,1-3.45,0Z"/><path class="cls-2" d="M47.33,29.88a1.66,1.66,0,1,1,3.31,0v5.9a2.14,2.14,0,0,0,4.28,0v-5.9a1.66,1.66,0,1,1,3.31,0v6c0,2.95-2,4.83-5.45,4.83s-5.45-1.88-5.45-4.83Z"/><path class="cls-2" d="M60.12,29.88A1.67,1.67,0,0,1,61.77,28a1.39,1.39,0,0,1,1.52,1.21,3.59,3.59,0,0,1,3.2-1.35A4.24,4.24,0,0,1,71,32.36v6.35a1.66,1.66,0,1,1-3.31,0V32.93a2.14,2.14,0,1,0-4.28,0v5.78a1.66,1.66,0,1,1-3.31,0Z"/><path class="cls-2" d="M81.14,31.58c-.83,0-1.57-.65-2.62-.65-1.89,0-2.79,1.68-2.79,3.38s1,3.34,2.79,3.34A18.48,18.48,0,0,0,81,37a1.44,1.44,0,0,1,1.42,1.45c0,1.7-2.85,2.27-4.05,2.27-3.56,0-5.93-2.92-5.93-6.37a6.16,6.16,0,0,1,5.93-6.41c1.32,0,4.05.48,4.05,2.09C82.4,30.68,81.92,31.58,81.14,31.58Z"/><path class="cls-2" d="M87,24.88a1.9,1.9,0,0,1-1.87,1.91,1.94,1.94,0,0,1-1.86-1.91,1.87,1.87,0,0,1,3.73,0Zm-3.52,5a1.66,1.66,0,1,1,3.31,0v8.83a1.66,1.66,0,1,1-3.31,0Z"/><path class="cls-2" d="M100,34.31c0,3.45-2.37,6.37-5.93,6.37s-5.93-2.92-5.93-6.37a5.95,5.95,0,1,1,11.86,0Zm-8.55,0c0,1.59.83,3.34,2.62,3.34s2.62-1.75,2.62-3.34-.8-3.38-2.62-3.38S91.49,32.73,91.49,34.31Z"/><path class="cls-2" d="M101.45,29.88A1.67,1.67,0,0,1,103.1,28a1.39,1.39,0,0,1,1.52,1.21,3.59,3.59,0,0,1,3.2-1.35,4.24,4.24,0,0,1,4.53,4.46v6.35a1.66,1.66,0,1,1-3.31,0V32.93a2.14,2.14,0,1,0-4.28,0v5.78a1.66,1.66,0,1,1-3.31,0Z"/><path class="cls-2" d="M116.9,35.39a2.86,2.86,0,0,0,3.13,2.4c1.7,0,2.87-1.34,3.75-1.34a1.47,1.47,0,0,1,1.36,1.43c0,1.42-3,2.8-5.41,2.8a6,6,0,0,1-6.21-6.37,6,6,0,1,1,11.89-.39c0,1-.44,1.47-1.45,1.47Zm5.2-2.2a2.61,2.61,0,0,0-2.64-2.53,2.67,2.67,0,0,0-2.63,2.53Z"/><path class="cls-2" d="M133.55,31.76c-.62,0-1.88-1-3-1-.6,0-1.13.27-1.13.92,0,1.54,5.75,1.31,5.75,5.08,0,2.2-1.86,3.88-4.71,3.88-1.87,0-4.63-1-4.63-2.55a1.56,1.56,0,0,1,1.43-1.47c1.29,0,1.86,1.13,3.43,1.13,1,0,1.31-.33,1.31-.95,0-1.52-5.75-1.29-5.75-5.08,0-2.3,1.86-3.86,4.48-3.86,1.63,0,4.14.76,4.14,2.39A1.43,1.43,0,0,1,133.55,31.76Z"/><path class="cls-2" d="M153.93,34.31c0,3.45-2.37,6.37-5.93,6.37s-5.93-2.92-5.93-6.37a5.95,5.95,0,1,1,11.86,0Zm-8.55,0c0,1.59.82,3.34,2.62,3.34s2.62-1.75,2.62-3.34-.81-3.38-2.62-3.38S145.38,32.73,145.38,34.31Z"/><path class="cls-2" d="M155.34,29.88A1.67,1.67,0,0,1,157,28a1.59,1.59,0,0,1,1.66,1.37,3.67,3.67,0,0,1,3.15-1.51c3.56,0,5.33,3.33,5.33,6.55s-2.11,6.23-5.45,6.23a4.7,4.7,0,0,1-3-1.15v4a1.66,1.66,0,1,1-3.31,0Zm5.91,7.77c1.72,0,2.57-1.8,2.57-3.34s-.85-3.38-2.57-3.38-2.6,1.66-2.6,3.27S159.43,37.65,161.25,37.65Z"/><path class="cls-2" d="M171.21,35.39a2.85,2.85,0,0,0,3.12,2.4c1.7,0,2.88-1.34,3.75-1.34a1.47,1.47,0,0,1,1.36,1.43c0,1.42-2.95,2.8-5.41,2.8a6,6,0,0,1-6.2-6.37,5.95,5.95,0,1,1,11.88-.39c0,1-.43,1.47-1.45,1.47Zm5.19-2.2a2.61,2.61,0,0,0-2.64-2.53,2.66,2.66,0,0,0-2.62,2.53Z"/><path class="cls-2" d="M180.84,29.69a1.63,1.63,0,0,1,1.7-1.65c.88,0,1.61.32,1.61,1.37h0A2.6,2.6,0,0,1,186.52,28a1.61,1.61,0,0,1,1.61,1.77c0,1.08-1,1.15-2,1.61s-2,.89-2,2.2v5.09a1.66,1.66,0,1,1-3.31,0Z"/><path class="cls-2" d="M199.86,38.38c0,.85,0,2.17-1.59,2.17-1,0-1.35-.53-1.58-1.41a4,4,0,0,1-3.15,1.54c-3.11,0-5.48-2.64-5.48-6.37s2.44-6.41,5.48-6.41a3.79,3.79,0,0,1,3.15,1.51A1.56,1.56,0,0,1,198.27,28c1.59,0,1.59,1.31,1.59,2.16ZM194,37.65c1.72,0,2.55-1.75,2.55-3.34s-.81-3.38-2.55-3.38-2.62,1.8-2.62,3.38S192.2,37.65,194,37.65Z"/><path class="cls-2" d="M202.55,31.07h-.73a1.34,1.34,0,0,1-1.45-1.45,1.41,1.41,0,0,1,1.45-1.45h.73v-2a1.67,1.67,0,1,1,3.32,0v2h.94a1.46,1.46,0,1,1,0,2.9h-.94v7.64a1.67,1.67,0,1,1-3.32,0Z"/><path class="cls-2" d="M212,24.88a1.89,1.89,0,0,1-1.86,1.91,1.94,1.94,0,0,1-1.87-1.91,1.91,1.91,0,0,1,1.87-1.81A1.89,1.89,0,0,1,212,24.88Zm-3.52,5a1.66,1.66,0,1,1,3.31,0v8.83a1.66,1.66,0,1,1-3.31,0Z"/><path class="cls-2" d="M212.9,30.61a2.43,2.43,0,0,1-.2-1,1.59,1.59,0,0,1,1.72-1.6,1.5,1.5,0,0,1,1.47,1.17L218,35.74h0l2.12-6.53A1.5,1.5,0,0,1,221.64,28a1.6,1.6,0,0,1,1.73,1.6,2.46,2.46,0,0,1-.21,1l-3.33,8.55c-.33.86-.67,1.39-1.8,1.39s-1.47-.53-1.79-1.39Z"/><path class="cls-2" d="M235.6,38.38c0,.85,0,2.17-1.58,2.17-1,0-1.36-.53-1.59-1.41a4,4,0,0,1-3.15,1.54c-3.11,0-5.47-2.64-5.47-6.37s2.43-6.41,5.47-6.41a3.79,3.79,0,0,1,3.15,1.51A1.57,1.57,0,0,1,234,28c1.58,0,1.58,1.31,1.58,2.16Zm-5.86-.73c1.72,0,2.55-1.75,2.55-3.34s-.8-3.38-2.55-3.38-2.62,1.8-2.62,3.38S227.94,37.65,229.74,37.65Z"/><path class="cls-2" d="M244.46,31.76c-.62,0-1.89-1-3-1-.6,0-1.13.27-1.13.92,0,1.54,5.75,1.31,5.75,5.08,0,2.2-1.86,3.88-4.71,3.88-1.86,0-4.62-1-4.62-2.55a1.55,1.55,0,0,1,1.42-1.47c1.29,0,1.87,1.13,3.43,1.13,1,0,1.31-.33,1.31-.95,0-1.52-5.75-1.29-5.75-5.08,0-2.3,1.86-3.86,4.49-3.86,1.63,0,4.13.76,4.13,2.39A1.42,1.42,0,0,1,244.46,31.76Z"/><path class="cls-2" d="M253.45,29.88A1.67,1.67,0,0,1,255.11,28a1.39,1.39,0,0,1,1.52,1.21,3.58,3.58,0,0,1,3.19-1.35,4.24,4.24,0,0,1,4.53,4.46v6.35a1.66,1.66,0,1,1-3.31,0V32.93a2.14,2.14,0,1,0-4.28,0v5.78a1.66,1.66,0,1,1-3.31,0Z"/><path class="cls-2" d="M269.71,24.88a1.89,1.89,0,0,1-1.86,1.91A1.93,1.93,0,0,1,266,24.88a1.86,1.86,0,0,1,3.72,0Zm-3.52,5a1.67,1.67,0,1,1,3.32,0v8.83a1.67,1.67,0,1,1-3.32,0Z"/><path class="cls-2" d="M270.59,30.61a2.46,2.46,0,0,1-.21-1A1.6,1.6,0,0,1,272.1,28a1.51,1.51,0,0,1,1.48,1.17l2.11,6.53h.05l2.11-6.53A1.51,1.51,0,0,1,279.32,28a1.6,1.6,0,0,1,1.73,1.6,2.46,2.46,0,0,1-.21,1l-3.33,8.55c-.32.86-.67,1.39-1.79,1.39s-1.48-.53-1.8-1.39Z"/><path class="cls-2" d="M284.64,35.39a2.86,2.86,0,0,0,3.13,2.4c1.7,0,2.87-1.34,3.74-1.34a1.47,1.47,0,0,1,1.36,1.43c0,1.42-2.94,2.8-5.4,2.8a6,6,0,0,1-6.21-6.37,6,6,0,1,1,11.89-.39c0,1-.44,1.47-1.45,1.47Zm5.2-2.2a2.63,2.63,0,0,0-2.65-2.53,2.66,2.66,0,0,0-2.62,2.53Z"/><path class="cls-2" d="M294.28,24.54a1.66,1.66,0,1,1,3.31,0V38.71a1.66,1.66,0,1,1-3.31,0Z"/><path class="cls-2" d="M64.69,56.39a2.86,2.86,0,0,0,3.13,2.4c1.7,0,2.88-1.34,3.75-1.34a1.47,1.47,0,0,1,1.36,1.43c0,1.42-3,2.8-5.41,2.8a6,6,0,0,1-6.21-6.37,6,6,0,1,1,11.89-.39c0,1-.44,1.47-1.45,1.47Zm5.2-2.2a2.61,2.61,0,0,0-2.64-2.53,2.67,2.67,0,0,0-2.63,2.53Z"/><path class="cls-2" d="M81.34,52.76c-.62,0-1.88-1-3-1-.6,0-1.13.27-1.13.92C77.25,54.26,83,54,83,57.8c0,2.2-1.86,3.88-4.71,3.88-1.87,0-4.63-1-4.63-2.55a1.56,1.56,0,0,1,1.43-1.47c1.29,0,1.86,1.13,3.43,1.13,1,0,1.31-.33,1.31-.95,0-1.52-5.75-1.29-5.75-5.08,0-2.3,1.86-3.86,4.48-3.86,1.63,0,4.14.76,4.14,2.39A1.43,1.43,0,0,1,81.34,52.76Z"/><path class="cls-2" d="M85,52.07h-.74a1.34,1.34,0,0,1-1.44-1.45,1.41,1.41,0,0,1,1.44-1.45H85v-2a1.66,1.66,0,1,1,3.31,0v2h.94c.85,0,1.59.39,1.59,1.45a1.4,1.4,0,0,1-1.59,1.45h-.94v7.64a1.66,1.66,0,1,1-3.31,0Z"/><path class="cls-2" d="M90.94,50.69A1.62,1.62,0,0,1,92.64,49c.87,0,1.61.32,1.61,1.37h0A2.62,2.62,0,0,1,96.62,49a1.62,1.62,0,0,1,1.61,1.77c0,1.08-1,1.15-2,1.61s-2,.89-2,2.2v5.09a1.66,1.66,0,1,1-3.31,0Z"/><path class="cls-2" d="M110,59.38c0,.85,0,2.17-1.59,2.17-1,0-1.36-.53-1.59-1.41a4,4,0,0,1-3.15,1.54c-3.1,0-5.47-2.64-5.47-6.37s2.44-6.41,5.47-6.41a3.78,3.78,0,0,1,3.15,1.51A1.57,1.57,0,0,1,108.37,49C110,49,110,50.35,110,51.2Zm-5.87-.73c1.73,0,2.55-1.75,2.55-3.34s-.8-3.38-2.55-3.38-2.62,1.8-2.62,3.38S102.3,58.65,104.09,58.65Z"/><path class="cls-2" d="M112.65,52.07h-.74a1.34,1.34,0,0,1-1.45-1.45,1.41,1.41,0,0,1,1.45-1.45h.74v-2a1.66,1.66,0,1,1,3.31,0v2h.94c.85,0,1.59.39,1.59,1.45a1.4,1.4,0,0,1-1.59,1.45H116v7.64a1.66,1.66,0,1,1-3.31,0Z"/><path class="cls-2" d="M121.32,56.39a2.86,2.86,0,0,0,3.13,2.4c1.7,0,2.87-1.34,3.74-1.34a1.47,1.47,0,0,1,1.36,1.43c0,1.42-2.94,2.8-5.4,2.8a6,6,0,0,1-6.21-6.37,6,6,0,1,1,11.89-.39c0,1-.44,1.47-1.45,1.47Zm3.29-12.53a2.4,2.4,0,0,1,.87-.23,1.46,1.46,0,0,1,1.24,1.43,1.31,1.31,0,0,1-.94,1.35l-2.58,1c-.66.23-.46.23-.92.23-.69,0-1.21-.88-1.21-1.68a1.1,1.1,0,0,1,.64-.92l.18-.09Zm1.9,10.33a2.61,2.61,0,0,0-2.64-2.53,2.66,2.66,0,0,0-2.62,2.53Z"/><path class="cls-2" d="M142.32,60.44c0,4-2.6,6-6.37,6-1.36,0-5.22-.67-5.22-2.48a1.61,1.61,0,0,1,1.33-1.45c1.06,0,2.23,1,4.14,1A2.54,2.54,0,0,0,139,60.9v-.78h0a3.8,3.8,0,0,1-3.34,1.56c-3.47,0-5.1-3.06-5.1-6.34s2.12-6.44,5.45-6.44a3.59,3.59,0,0,1,3,1.51A1.59,1.59,0,0,1,140.66,49a1.67,1.67,0,0,1,1.66,1.84Zm-5.91-8.51c-1.73,0-2.58,1.8-2.58,3.34,0,1.77.85,3.38,2.58,3.38S139,57,139,55.38,138.22,51.93,136.41,51.93Z"/><path class="cls-2" d="M147.68,45.88a1.9,1.9,0,0,1-1.87,1.91A1.93,1.93,0,0,1,144,45.88a1.87,1.87,0,0,1,3.73,0Zm-3.52,5a1.66,1.66,0,1,1,3.31,0v8.83a1.66,1.66,0,1,1-3.31,0Z"/><path class="cls-2" d="M157.54,52.58c-.83,0-1.56-.65-2.62-.65-1.89,0-2.78,1.68-2.78,3.38s1,3.34,2.78,3.34a18.05,18.05,0,0,0,2.46-.69,1.45,1.45,0,0,1,1.43,1.45c0,1.7-2.86,2.27-4.05,2.27-3.57,0-5.93-2.92-5.93-6.37a6.16,6.16,0,0,1,5.93-6.41c1.31,0,4.05.48,4.05,2.09C158.81,51.68,158.32,52.58,157.54,52.58Z"/><path class="cls-2" d="M171.34,55.31c0,3.45-2.37,6.37-5.93,6.37s-5.94-2.92-5.94-6.37a6,6,0,1,1,11.87,0Zm-8.55,0c0,1.59.82,3.34,2.62,3.34S168,56.9,168,55.31s-.81-3.38-2.62-3.38S162.79,53.73,162.79,55.31Z"/><path class="cls-2" d="M190.29,55.31c0,3.45-2.37,6.37-5.93,6.37s-5.93-2.92-5.93-6.37a5.95,5.95,0,1,1,11.86,0Zm-8.55,0c0,1.59.83,3.34,2.62,3.34S187,56.9,187,55.31s-.8-3.38-2.62-3.38S181.74,53.73,181.74,55.31Z"/><path class="cls-2" d="M209.18,60.44c0,4-2.6,6-6.37,6-1.36,0-5.22-.67-5.22-2.48a1.61,1.61,0,0,1,1.33-1.45c1.06,0,2.23,1,4.14,1a2.54,2.54,0,0,0,2.8-2.62v-.78h0a3.8,3.8,0,0,1-3.34,1.56c-3.47,0-5.1-3.06-5.1-6.34s2.11-6.44,5.45-6.44a3.59,3.59,0,0,1,3,1.51A1.59,1.59,0,0,1,207.52,49a1.67,1.67,0,0,1,1.66,1.84Zm-5.91-8.51c-1.73,0-2.58,1.8-2.58,3.34,0,1.77.85,3.38,2.58,3.38s2.59-1.66,2.59-3.27S205.08,51.93,203.27,51.93Z"/><path class="cls-2" d="M213.73,56.39a2.86,2.86,0,0,0,3.13,2.4c1.7,0,2.87-1.34,3.75-1.34A1.46,1.46,0,0,1,222,58.88c0,1.42-2.94,2.8-5.4,2.8a6,6,0,0,1-6.21-6.37,6,6,0,1,1,11.89-.39c0,1-.44,1.47-1.45,1.47Zm5.2-2.2a2.63,2.63,0,0,0-2.65-2.53,2.66,2.66,0,0,0-2.62,2.53Z"/><path class="cls-2" d="M223.41,50.88A1.67,1.67,0,0,1,225.07,49a1.39,1.39,0,0,1,1.52,1.21,3.58,3.58,0,0,1,3.19-1.35,4.24,4.24,0,0,1,4.53,4.46v6.35a1.66,1.66,0,1,1-3.31,0V53.93a2.14,2.14,0,1,0-4.28,0v5.78a1.66,1.66,0,1,1-3.31,0Z"/><path class="cls-2" d="M238.87,56.39a2.86,2.86,0,0,0,3.13,2.4c1.7,0,2.87-1.34,3.75-1.34a1.46,1.46,0,0,1,1.35,1.43c0,1.42-2.94,2.8-5.4,2.8a6,6,0,0,1-6.21-6.37,6,6,0,1,1,11.89-.39c0,1-.44,1.47-1.45,1.47Zm5.2-2.2a2.63,2.63,0,0,0-2.65-2.53,2.66,2.66,0,0,0-2.62,2.53Z"/><path class="cls-2" d="M248.51,50.69a1.62,1.62,0,0,1,1.7-1.65c.87,0,1.61.32,1.61,1.37h0A2.61,2.61,0,0,1,254.19,49a1.62,1.62,0,0,1,1.61,1.77c0,1.08-1,1.15-2,1.61s-2,.89-2,2.2v5.09a1.66,1.66,0,1,1-3.31,0Z"/><path class="cls-2" d="M267.53,59.38c0,.85,0,2.17-1.59,2.17-1,0-1.36-.53-1.59-1.41a4,4,0,0,1-3.15,1.54c-3.1,0-5.47-2.64-5.47-6.37s2.44-6.41,5.47-6.41a3.78,3.78,0,0,1,3.15,1.51A1.57,1.57,0,0,1,265.94,49c1.59,0,1.59,1.31,1.59,2.16Zm-5.87-.73c1.73,0,2.55-1.75,2.55-3.34s-.8-3.38-2.55-3.38S259,53.73,259,55.31,259.87,58.65,261.66,58.65Z"/><path class="cls-2" d="M269.37,45.54a1.66,1.66,0,1,1,3.31,0V59.71a1.66,1.66,0,1,1-3.31,0Z"/></g></g></svg>