<svg xmlns="http://www.w3.org/2000/svg" viewBox="0 0 334.66 87.26"><defs><style>.cls-1{fill:#edd5e7;stroke:#a32d87;stroke-miterlimit:10;stroke-width:3px;}.cls-2{fill:#142339;}</style></defs><g id="Capa_2" data-name="Capa 2"><g id="Capa_1-2" data-name="Capa 1"><rect class="cls-1" x="1.5" y="1.5" width="331.66" height="84.26" rx="24.26"/><path class="cls-2" d="M63.28,25.83A1.73,1.73,0,0,1,65.07,24H71a1.59,1.59,0,0,1,0,3.18H66.73v3.36h3.56A1.54,1.54,0,0,1,72,32.13a1.57,1.57,0,0,1-1.66,1.61H66.73v5a1.73,1.73,0,1,1-3.45,0Z"/><path class="cls-2" d="M73.4,29.87a1.66,1.66,0,1,1,3.31,0v5.91a2.14,2.14,0,0,0,4.28,0V29.87a1.66,1.66,0,1,1,3.31,0v6c0,2.95-2,4.83-5.45,4.83S73.4,38.8,73.4,35.85Z"/><path class="cls-2" d="M86.19,29.87A1.67,1.67,0,0,1,87.84,28a1.39,1.39,0,0,1,1.52,1.21,3.59,3.59,0,0,1,3.2-1.35,4.24,4.24,0,0,1,4.53,4.46V38.7a1.67,1.67,0,1,1-3.32,0V32.93a2.14,2.14,0,1,0-4.27,0V38.7a1.66,1.66,0,1,1-3.31,0Z"/><path class="cls-2" d="M107.21,31.58c-.83,0-1.57-.65-2.62-.65-1.89,0-2.79,1.68-2.79,3.38s1,3.34,2.79,3.34a18.48,18.48,0,0,0,2.46-.69,1.44,1.44,0,0,1,1.42,1.45c0,1.7-2.85,2.27-4,2.27-3.57,0-5.94-2.92-5.94-6.37a6.16,6.16,0,0,1,5.94-6.41c1.31,0,4,.48,4,2.09C108.47,30.68,108,31.58,107.21,31.58Z"/><path class="cls-2" d="M113.1,24.89a1.89,1.89,0,0,1-1.87,1.9,1.93,1.93,0,0,1-1.86-1.9,1.87,1.87,0,0,1,3.73,0Zm-3.52,5a1.66,1.66,0,1,1,3.31,0V38.7a1.66,1.66,0,1,1-3.31,0Z"/><path class="cls-2" d="M126.11,34.31c0,3.45-2.37,6.37-5.93,6.37s-5.93-2.92-5.93-6.37a5.95,5.95,0,1,1,11.86,0Zm-8.55,0c0,1.59.83,3.34,2.62,3.34s2.62-1.75,2.62-3.34-.8-3.38-2.62-3.38S117.56,32.73,117.56,34.31Z"/><path class="cls-2" d="M127.52,29.87A1.67,1.67,0,0,1,129.17,28a1.39,1.39,0,0,1,1.52,1.21,3.59,3.59,0,0,1,3.2-1.35,4.24,4.24,0,0,1,4.53,4.46V38.7a1.66,1.66,0,1,1-3.31,0V32.93a2.14,2.14,0,1,0-4.28,0V38.7a1.66,1.66,0,1,1-3.31,0Z"/><path class="cls-2" d="M143,35.39a2.86,2.86,0,0,0,3.13,2.39c1.7,0,2.87-1.33,3.75-1.33a1.46,1.46,0,0,1,1.35,1.43c0,1.42-2.94,2.8-5.4,2.8a6,6,0,0,1-6.21-6.37,6,6,0,1,1,11.89-.39c0,1-.44,1.47-1.45,1.47Zm5.2-2.2a2.62,2.62,0,0,0-2.65-2.53,2.66,2.66,0,0,0-2.62,2.53Z"/><path class="cls-2" d="M159.62,31.76c-.62,0-1.88-1-3-1-.6,0-1.13.28-1.13.92,0,1.54,5.75,1.32,5.75,5.09,0,2.2-1.86,3.88-4.71,3.88-1.87,0-4.63-1.06-4.63-2.55a1.56,1.56,0,0,1,1.43-1.47c1.29,0,1.86,1.12,3.43,1.12,1,0,1.31-.32,1.31-.94,0-1.52-5.75-1.29-5.75-5.08,0-2.3,1.86-3.86,4.48-3.86,1.63,0,4.14.76,4.14,2.39A1.43,1.43,0,0,1,159.62,31.76Z"/><path class="cls-2" d="M180,34.31c0,3.45-2.37,6.37-5.93,6.37s-5.93-2.92-5.93-6.37a5.95,5.95,0,1,1,11.86,0Zm-8.55,0c0,1.59.82,3.34,2.62,3.34s2.62-1.75,2.62-3.34-.81-3.38-2.62-3.38S171.45,32.73,171.45,34.31Z"/><path class="cls-2" d="M181.41,29.87A1.67,1.67,0,0,1,183.06,28a1.59,1.59,0,0,1,1.66,1.37,3.67,3.67,0,0,1,3.15-1.51c3.56,0,5.33,3.33,5.33,6.55s-2.11,6.23-5.45,6.23a4.7,4.7,0,0,1-3-1.15v4a1.66,1.66,0,1,1-3.31,0Zm5.91,7.78c1.72,0,2.57-1.8,2.57-3.34s-.85-3.38-2.57-3.38-2.6,1.66-2.6,3.27S185.5,37.65,187.32,37.65Z"/><path class="cls-2" d="M197.27,35.39a2.86,2.86,0,0,0,3.13,2.39c1.7,0,2.88-1.33,3.75-1.33a1.47,1.47,0,0,1,1.36,1.43c0,1.42-2.95,2.8-5.41,2.8a6,6,0,0,1-6.21-6.37,6,6,0,1,1,11.89-.39c0,1-.43,1.47-1.44,1.47Zm5.2-2.2a2.61,2.61,0,0,0-2.64-2.53,2.66,2.66,0,0,0-2.62,2.53Z"/><path class="cls-2" d="M206.91,29.69a1.63,1.63,0,0,1,1.7-1.65c.88,0,1.61.32,1.61,1.37h.05A2.6,2.6,0,0,1,212.59,28a1.61,1.61,0,0,1,1.61,1.77c0,1.08-1,1.15-2,1.6s-2,.9-2,2.21V38.7a1.66,1.66,0,1,1-3.31,0Z"/><path class="cls-2" d="M225.93,38.38c0,.85,0,2.16-1.59,2.16-1,0-1.35-.52-1.58-1.4a4,4,0,0,1-3.15,1.54c-3.11,0-5.48-2.64-5.48-6.37s2.44-6.41,5.48-6.41a3.79,3.79,0,0,1,3.15,1.51A1.56,1.56,0,0,1,224.34,28c1.59,0,1.59,1.31,1.59,2.16Zm-5.86-.73c1.72,0,2.55-1.75,2.55-3.34s-.81-3.38-2.55-3.38-2.63,1.8-2.63,3.38S218.27,37.65,220.07,37.65Z"/><path class="cls-2" d="M228.62,31.07h-.73a1.34,1.34,0,0,1-1.45-1.45,1.41,1.41,0,0,1,1.45-1.45h.73v-2a1.66,1.66,0,1,1,3.31,0v2h.95a1.46,1.46,0,1,1,0,2.9h-.95V38.7a1.66,1.66,0,1,1-3.31,0Z"/><path class="cls-2" d="M238.1,24.89a1.89,1.89,0,0,1-1.86,1.9,1.94,1.94,0,0,1-1.87-1.9,1.87,1.87,0,0,1,3.73,0Zm-3.52,5a1.66,1.66,0,1,1,3.31,0V38.7a1.66,1.66,0,1,1-3.31,0Z"/><path class="cls-2" d="M239,30.61a2.42,2.42,0,0,1-.2-1A1.59,1.59,0,0,1,240.49,28,1.5,1.5,0,0,1,242,29.21l2.12,6.53h0l2.12-6.53A1.5,1.5,0,0,1,247.71,28a1.6,1.6,0,0,1,1.73,1.61,2.46,2.46,0,0,1-.21,1l-3.34,8.55c-.32.86-.66,1.38-1.79,1.38s-1.47-.52-1.79-1.38Z"/><path class="cls-2" d="M261.67,38.38c0,.85,0,2.16-1.58,2.16-1,0-1.36-.52-1.59-1.4a4,4,0,0,1-3.15,1.54c-3.11,0-5.47-2.64-5.47-6.37s2.43-6.41,5.47-6.41a3.79,3.79,0,0,1,3.15,1.51A1.57,1.57,0,0,1,260.09,28c1.58,0,1.58,1.31,1.58,2.16Zm-5.86-.73c1.72,0,2.55-1.75,2.55-3.34s-.8-3.38-2.55-3.38-2.62,1.8-2.62,3.38S254,37.65,255.81,37.65Z"/><path class="cls-2" d="M270.53,31.76c-.62,0-1.89-1-3-1-.6,0-1.13.28-1.13.92,0,1.54,5.75,1.32,5.75,5.09,0,2.2-1.86,3.88-4.71,3.88-1.86,0-4.62-1.06-4.62-2.55a1.55,1.55,0,0,1,1.42-1.47c1.29,0,1.87,1.12,3.43,1.12,1,0,1.31-.32,1.31-.94,0-1.52-5.75-1.29-5.75-5.08,0-2.3,1.86-3.86,4.49-3.86,1.63,0,4.13.76,4.13,2.39A1.42,1.42,0,0,1,270.53,31.76Z"/><path class="cls-2" d="M82.56,50.87A1.67,1.67,0,0,1,84.22,49a1.39,1.39,0,0,1,1.52,1.21,3.58,3.58,0,0,1,3.19-1.35,4.24,4.24,0,0,1,4.53,4.46V59.7a1.66,1.66,0,1,1-3.31,0V53.93a2.14,2.14,0,1,0-4.27,0V59.7a1.67,1.67,0,1,1-3.32,0Z"/><path class="cls-2" d="M98.83,45.89A1.89,1.89,0,0,1,97,47.79a1.93,1.93,0,0,1-1.86-1.9,1.87,1.87,0,0,1,3.73,0Zm-3.52,5a1.66,1.66,0,1,1,3.31,0V59.7a1.66,1.66,0,1,1-3.31,0Z"/><path class="cls-2" d="M99.7,51.61a2.46,2.46,0,0,1-.21-1A1.6,1.6,0,0,1,101.22,49a1.5,1.5,0,0,1,1.47,1.17l2.11,6.53h0L107,50.21A1.5,1.5,0,0,1,108.44,49a1.6,1.6,0,0,1,1.72,1.61,2.42,2.42,0,0,1-.2,1l-3.34,8.55c-.32.86-.67,1.38-1.79,1.38s-1.47-.52-1.8-1.38Z"/><path class="cls-2" d="M113.75,56.39a2.86,2.86,0,0,0,3.13,2.39c1.7,0,2.87-1.33,3.75-1.33A1.46,1.46,0,0,1,122,58.88c0,1.42-2.94,2.8-5.4,2.8a6,6,0,0,1-6.21-6.37,6,6,0,1,1,11.89-.39c0,1-.44,1.47-1.45,1.47Zm5.2-2.2a2.63,2.63,0,0,0-2.65-2.53,2.66,2.66,0,0,0-2.62,2.53Z"/><path class="cls-2" d="M123.39,45.54a1.66,1.66,0,1,1,3.31,0V59.7a1.66,1.66,0,1,1-3.31,0Z"/><path class="cls-2" d="M142.94,52.58c-.83,0-1.57-.65-2.62-.65-1.89,0-2.79,1.68-2.79,3.38s1,3.34,2.79,3.34a18.93,18.93,0,0,0,2.46-.69,1.44,1.44,0,0,1,1.42,1.45c0,1.7-2.85,2.27-4,2.27-3.56,0-5.93-2.92-5.93-6.37a6.16,6.16,0,0,1,5.93-6.41c1.31,0,4,.48,4,2.09C144.2,51.68,143.72,52.58,142.94,52.58Z"/><path class="cls-2" d="M156.74,55.31c0,3.45-2.37,6.37-5.94,6.37s-5.93-2.92-5.93-6.37a6,6,0,1,1,11.87,0Zm-8.56,0c0,1.59.83,3.34,2.62,3.34s2.63-1.75,2.63-3.34-.81-3.38-2.63-3.38S148.18,53.73,148.18,55.31Z"/><path class="cls-2" d="M158.14,50.87A1.67,1.67,0,0,1,159.8,49a1.38,1.38,0,0,1,1.51,1.24,4.11,4.11,0,0,1,3.09-1.38,4.19,4.19,0,0,1,3.42,1.68,5,5,0,0,1,3.5-1.68c2.69,0,4.53,1.56,4.53,4.46V59.7a1.66,1.66,0,1,1-3.31,0V53.93a2,2,0,1,0-3.89,0V59.7a1.66,1.66,0,1,1-3.31,0V53.93c0-1.33-.74-2.27-1.93-2.27-1.36,0-2,.94-2,2.27V59.7a1.66,1.66,0,1,1-3.31,0Z"/><path class="cls-2" d="M177.74,50.87a1.66,1.66,0,1,1,3.31,0v5.91a2.14,2.14,0,0,0,4.28,0V50.87a1.66,1.66,0,1,1,3.31,0v6c0,2.95-2,4.83-5.45,4.83s-5.45-1.88-5.45-4.83Z"/><path class="cls-2" d="M190.52,50.87A1.67,1.67,0,0,1,192.18,49a1.39,1.39,0,0,1,1.52,1.21,3.58,3.58,0,0,1,3.19-1.35,4.25,4.25,0,0,1,4.54,4.46V59.7a1.67,1.67,0,1,1-3.32,0V53.93a2.14,2.14,0,1,0-4.27,0V59.7a1.67,1.67,0,1,1-3.32,0Z"/><path class="cls-2" d="M206.78,45.89a1.88,1.88,0,0,1-1.86,1.9,1.93,1.93,0,0,1-1.86-1.9,1.86,1.86,0,0,1,3.72,0Zm-3.51,5a1.66,1.66,0,1,1,3.31,0V59.7a1.66,1.66,0,1,1-3.31,0Z"/><path class="cls-2" d="M209.22,52.07h-.73A1.34,1.34,0,0,1,207,50.62a1.41,1.41,0,0,1,1.45-1.45h.73v-2a1.66,1.66,0,1,1,3.31,0v2h.95a1.46,1.46,0,1,1,0,2.9h-.95V59.7a1.66,1.66,0,1,1-3.31,0Z"/><path class="cls-2" d="M226.54,59.38c0,.85,0,2.16-1.59,2.16-1,0-1.35-.52-1.58-1.4a4,4,0,0,1-3.15,1.54c-3.11,0-5.48-2.64-5.48-6.37s2.44-6.41,5.48-6.41a3.81,3.81,0,0,1,3.15,1.51A1.56,1.56,0,0,1,225,49c1.59,0,1.59,1.31,1.59,2.16Zm-5.86-.73c1.72,0,2.55-1.75,2.55-3.34s-.81-3.38-2.55-3.38-2.63,1.8-2.63,3.38S218.88,58.65,220.68,58.65Z"/><path class="cls-2" d="M228.38,50.69a1.63,1.63,0,0,1,1.7-1.65c.88,0,1.61.32,1.61,1.37h.05A2.6,2.6,0,0,1,234.06,49a1.61,1.61,0,0,1,1.61,1.77c0,1.08-1,1.15-2,1.6s-2,.9-2,2.21V59.7a1.66,1.66,0,1,1-3.31,0Z"/><path class="cls-2" d="M239.56,45.89a1.89,1.89,0,0,1-1.86,1.9,1.94,1.94,0,0,1-1.87-1.9,1.87,1.87,0,0,1,3.73,0Zm-3.52,5a1.66,1.66,0,1,1,3.31,0V59.7a1.66,1.66,0,1,1-3.31,0Z"/><path class="cls-2" d="M252.58,55.31c0,3.45-2.37,6.37-5.94,6.37s-5.93-2.92-5.93-6.37a6,6,0,1,1,11.87,0Zm-8.56,0c0,1.59.83,3.34,2.62,3.34s2.62-1.75,2.62-3.34-.8-3.38-2.62-3.38S244,53.73,244,55.31Z"/></g></g></svg>