<svg xmlns="http://www.w3.org/2000/svg" viewBox="0 0 122.21 111.05"><defs><style>.cls-1{opacity:0.3;}.cls-2{fill:#fff;}.cls-3{fill:#93979a;}.cls-4{fill:#241f20;}.cls-5{stroke:#000;stroke-miterlimit:10;stroke-width:0.27px;}</style></defs><g id="Capa_2" data-name="Capa 2"><g id="Capa_1-2" data-name="Capa 1"><path class="cls-1" d="M116.89,82.73s-37-.61-32.83-36.48C88.57,7.72,37.21,1.53,17.21,20.07-17.86,52.59,5.73,99.79,43.88,108.42S100,103.32,116.89,82.73Z"/><path class="cls-2" d="M119.62,69.73s-37,1.63-35-34.43C86.81-3.43,35.17-6.5,16.33,13.23c-33,34.58-6.62,80.26,32,86.57S104,91.3,119.62,69.73Z"/><path class="cls-3" d="M7.13,25.71C.38,54.41,23,83,52.9,87.85c31.07,5.08,48.23-3.53,61.87-18.34a37.4,37.4,0,0,0,4.85.22C104,91.3,86.9,106.11,48.3,99.8,14.21,94.23-10.37,57.93,7.13,25.71Z"/><path class="cls-4" d="M48.1,101.06C27,97.61,9.11,82.75,2.57,63.21c-6-17.87-1.43-35.94,12.83-50.87C26.94.27,50-3.62,66.89,3.69c13.1,5.68,19.86,16.93,19,31.68-.56,10.1,2,18.08,7.54,23.72,9.81,9.94,26,9.36,26.11,9.36l2.64-.12-1.55,2.14c-14.15,19.59-29.08,32.09-55.52,32.09A105.84,105.84,0,0,1,48.1,101.06ZM91.65,60.9c-6.1-6.18-8.89-14.81-8.28-25.67.76-13.6-5.46-24-17.5-29.19-15.68-6.8-37.94-3.1-48.62,8.07C3.68,28.32-.67,45.47,5,62.39c6.25,18.66,23.33,32.85,43.52,36.15,35.2,5.75,52.65-6.17,68.6-27.56C111.9,70.75,99.93,69.27,91.65,60.9Z"/><path class="cls-5" d="M25.36,43.66a2.59,2.59,0,0,1-.25,1.18,2.31,2.31,0,0,1-.67.84,2.87,2.87,0,0,1-1,.51,4,4,0,0,1-1.22.17,4.25,4.25,0,0,1-.82-.07,6.26,6.26,0,0,1-.66-.17,2.53,2.53,0,0,1-.49-.22,1.64,1.64,0,0,1-.28-.19.65.65,0,0,1-.12-.25,2.69,2.69,0,0,1,0-.46,3.33,3.33,0,0,1,0-.34,1.07,1.07,0,0,1,0-.23.28.28,0,0,1,.08-.12.21.21,0,0,1,.12,0,.62.62,0,0,1,.26.11,4.8,4.8,0,0,0,.43.24,3.35,3.35,0,0,0,.62.24,3.13,3.13,0,0,0,.85.11,1.65,1.65,0,0,0,.56-.08,1.18,1.18,0,0,0,.42-.21.82.82,0,0,0,.27-.34,1.13,1.13,0,0,0,.09-.45.77.77,0,0,0-.16-.5A1.48,1.48,0,0,0,23,43a5.93,5.93,0,0,0-.57-.3l-.66-.3a6.11,6.11,0,0,1-.67-.35,3.29,3.29,0,0,1-.57-.48,2.23,2.23,0,0,1-.41-.66A2.33,2.33,0,0,1,20,40a2.44,2.44,0,0,1,.23-1.07,2.2,2.2,0,0,1,.61-.77,2.62,2.62,0,0,1,.9-.45,3.82,3.82,0,0,1,1.71-.11,3.18,3.18,0,0,1,.57.13,3.44,3.44,0,0,1,.46.17.89.89,0,0,1,.27.17.27.27,0,0,1,.09.11.34.34,0,0,1,0,.12s0,.11,0,.19v.29a3.11,3.11,0,0,1,0,.32q0,.14,0,.21a.32.32,0,0,1-.07.13.18.18,0,0,1-.11,0,.52.52,0,0,1-.23-.09c-.11-.06-.23-.13-.39-.2a2.94,2.94,0,0,0-.53-.2,2.29,2.29,0,0,0-.66-.09,1.51,1.51,0,0,0-.5.07,1.17,1.17,0,0,0-.35.19.86.86,0,0,0-.21.29,1.15,1.15,0,0,0-.07.36.82.82,0,0,0,.16.49,1.48,1.48,0,0,0,.41.37,3.61,3.61,0,0,0,.59.3l.67.3c.23.11.45.23.67.36a2.43,2.43,0,0,1,.58.48,2.27,2.27,0,0,1,.42.65A2.44,2.44,0,0,1,25.36,43.66Z"/><path class="cls-5" d="M32,42.89a.65.65,0,0,1-.14.45.5.5,0,0,1-.37.14H27.93a2.4,2.4,0,0,0,.08.68,1.32,1.32,0,0,0,.29.52,1.2,1.2,0,0,0,.49.32,2,2,0,0,0,.74.12,4.19,4.19,0,0,0,.76-.07,3.39,3.39,0,0,0,.57-.14l.39-.13a.85.85,0,0,1,.26-.07.17.17,0,0,1,.1,0,.13.13,0,0,1,.06.08.53.53,0,0,1,0,.17,2.1,2.1,0,0,1,0,.27,1.85,1.85,0,0,1,0,.25.88.88,0,0,1,0,.17.21.21,0,0,1,0,.12.53.53,0,0,1-.06.1.83.83,0,0,1-.24.12l-.48.16c-.2,0-.43.09-.68.13a6.91,6.91,0,0,1-.81,0A4.32,4.32,0,0,1,28,46.17a2.54,2.54,0,0,1-1-.6,2.48,2.48,0,0,1-.59-1,4.75,4.75,0,0,1-.2-1.43,4.4,4.4,0,0,1,.21-1.41A2.85,2.85,0,0,1,27,40.65,2.51,2.51,0,0,1,28,40a3.13,3.13,0,0,1,1.25-.23,3.39,3.39,0,0,1,1.26.21,2.46,2.46,0,0,1,.86.6,2.58,2.58,0,0,1,.49.91A4.2,4.2,0,0,1,32,42.63Zm-1.61-.47a1.67,1.67,0,0,0-.28-1.1,1.07,1.07,0,0,0-.92-.39,1.35,1.35,0,0,0-.55.11,1.18,1.18,0,0,0-.38.32,1.28,1.28,0,0,0-.24.48,2.13,2.13,0,0,0-.09.58Z"/><path class="cls-5" d="M41.78,40.13v.07s0,.07,0,.11,0,.08,0,.12a1.36,1.36,0,0,1,0,.17l-1.76,5.3a.51.51,0,0,1-.09.18.39.39,0,0,1-.18.1,1.39,1.39,0,0,1-.35.06h-.58l-.56,0a2.24,2.24,0,0,1-.35,0,.4.4,0,0,1-.18-.11.46.46,0,0,1-.09-.17L35.8,40.6q0-.14-.06-.24a1,1,0,0,0,0-.15v-.08a.16.16,0,0,1,0-.12.22.22,0,0,1,.13-.08,1.09,1.09,0,0,1,.25,0h.4a2.76,2.76,0,0,1,.44,0l.26,0a.25.25,0,0,1,.13.09.4.4,0,0,1,.07.13l1.33,4.3,0,.17,0-.17,1.31-4.3a.26.26,0,0,1,.06-.13.28.28,0,0,1,.14-.09,1.19,1.19,0,0,1,.24,0,2.43,2.43,0,0,1,.41,0h.39a.89.89,0,0,1,.24,0,.23.23,0,0,1,.12.08A.21.21,0,0,1,41.78,40.13Z"/><path class="cls-5" d="M48,42.89a.65.65,0,0,1-.13.45.51.51,0,0,1-.37.14H44a2.38,2.38,0,0,0,.09.68,1.31,1.31,0,0,0,.28.52,1.23,1.23,0,0,0,.5.32,2,2,0,0,0,.73.12,4.1,4.1,0,0,0,.76-.07,3.39,3.39,0,0,0,.57-.14l.4-.13a.78.78,0,0,1,.26-.07.12.12,0,0,1,.09,0s.05,0,.07.08a.53.53,0,0,1,0,.17c0,.07,0,.16,0,.27s0,.18,0,.25,0,.12,0,.17a.34.34,0,0,1,0,.12.61.61,0,0,1-.07.1.88.88,0,0,1-.23.12l-.49.16c-.19,0-.42.09-.67.13a7.08,7.08,0,0,1-.82,0,4.36,4.36,0,0,1-1.37-.19,2.38,2.38,0,0,1-1.57-1.61,4.76,4.76,0,0,1-.19-1.43,4.71,4.71,0,0,1,.2-1.41,3.15,3.15,0,0,1,.59-1.07A2.54,2.54,0,0,1,44,40a3.1,3.1,0,0,1,1.25-.23,3.3,3.3,0,0,1,1.25.21,2.37,2.37,0,0,1,.86.6,2.43,2.43,0,0,1,.49.91A3.85,3.85,0,0,1,48,42.63Zm-1.6-.47a1.73,1.73,0,0,0-.28-1.1,1.09,1.09,0,0,0-.92-.39,1.35,1.35,0,0,0-.55.11,1.12,1.12,0,0,0-.39.32,1.43,1.43,0,0,0-.23.48,2.13,2.13,0,0,0-.1.58Z"/><path class="cls-5" d="M61.76,46a.21.21,0,0,1,0,.11.24.24,0,0,1-.13.08.85.85,0,0,1-.25,0l-.4,0-.41,0a.73.73,0,0,1-.25,0c-.07,0-.11,0-.13-.08a.15.15,0,0,1,0-.11V42.51a2.2,2.2,0,0,0-.06-.53,1.06,1.06,0,0,0-.17-.42.69.69,0,0,0-.29-.27.86.86,0,0,0-.41-.09,1,1,0,0,0-.6.23,4.08,4.08,0,0,0-.66.66V46a.15.15,0,0,1,0,.11s-.07.06-.13.08a.79.79,0,0,1-.25,0l-.4,0-.4,0a.79.79,0,0,1-.25,0,.24.24,0,0,1-.14-.08.21.21,0,0,1,0-.11V42.51a2.22,2.22,0,0,0-.05-.53,1.23,1.23,0,0,0-.17-.42.69.69,0,0,0-.29-.27.88.88,0,0,0-.41-.09,1,1,0,0,0-.61.23,4.07,4.07,0,0,0-.65.66V46a.2.2,0,0,1,0,.11.27.27,0,0,1-.14.08.79.79,0,0,1-.25,0l-.4,0-.4,0a.86.86,0,0,1-.26,0,.24.24,0,0,1-.13-.08.15.15,0,0,1,0-.11V40.13a.2.2,0,0,1,0-.11s.06-.06.12-.09l.22,0a1.67,1.67,0,0,1,.34,0,1.83,1.83,0,0,1,.35,0,.87.87,0,0,1,.21,0s.09,0,.11.09a.2.2,0,0,1,0,.11v.68a4.16,4.16,0,0,1,1-.79,2.14,2.14,0,0,1,1-.26,2.64,2.64,0,0,1,.65.07,2,2,0,0,1,.51.22,1.59,1.59,0,0,1,.39.34,1.83,1.83,0,0,1,.28.44,4.68,4.68,0,0,1,.52-.49,3.51,3.51,0,0,1,.49-.33,2,2,0,0,1,.5-.19,2.07,2.07,0,0,1,.5-.06,2.2,2.2,0,0,1,1,.19,1.73,1.73,0,0,1,.65.54,2.27,2.27,0,0,1,.35.79,4.21,4.21,0,0,1,.11,1Z"/><path class="cls-5" d="M68.93,46a.2.2,0,0,1,0,.11.18.18,0,0,1-.12.08.54.54,0,0,1-.21,0l-.34,0-.35,0a.54.54,0,0,1-.21,0,.21.21,0,0,1-.12-.08.2.2,0,0,1,0-.11v-.68a3.7,3.7,0,0,1-1,.79,2.26,2.26,0,0,1-1,.26,2.33,2.33,0,0,1-1-.19,1.9,1.9,0,0,1-.67-.54,2.48,2.48,0,0,1-.36-.79,5.1,5.1,0,0,1-.1-1.12V40.13a.2.2,0,0,1,0-.11.33.33,0,0,1,.13-.09l.26,0a4,4,0,0,1,.8,0,1.31,1.31,0,0,1,.25,0c.06,0,.11,0,.13.09a.15.15,0,0,1,0,.11v3.31a3.06,3.06,0,0,0,.06.7,1.33,1.33,0,0,0,.18.42.8.8,0,0,0,.31.27,1,1,0,0,0,1.07-.14,3.52,3.52,0,0,0,.68-.67V40.13a.15.15,0,0,1,0-.11s.07-.06.13-.09a1.31,1.31,0,0,1,.25,0,2.36,2.36,0,0,1,.4,0,2.3,2.3,0,0,1,.4,0,1.18,1.18,0,0,1,.25,0c.06,0,.11,0,.13.09a.15.15,0,0,1,0,.11Z"/><path class="cls-5" d="M74,46.21l-.71,2.08c0,.11-.15.18-.32.23a3,3,0,0,1-.77.07,2.43,2.43,0,0,1-.42,0,.62.62,0,0,1-.24-.07.17.17,0,0,1-.08-.14.38.38,0,0,1,0-.19l.78-2a.61.61,0,0,1-.16-.12.75.75,0,0,1-.1-.17l-2-5.39a1,1,0,0,1-.09-.35A.26.26,0,0,1,70,40a.43.43,0,0,1,.27-.09,3.19,3.19,0,0,1,.49,0h.45a.73.73,0,0,1,.25,0,.21.21,0,0,1,.14.12,1.1,1.1,0,0,1,.09.23l1.38,3.92h0l1.26-4a.45.45,0,0,1,.1-.22.4.4,0,0,1,.21-.08,3,3,0,0,1,.51,0,3.09,3.09,0,0,1,.47,0,.57.57,0,0,1,.27.09.25.25,0,0,1,.09.2,1.11,1.11,0,0,1,0,.28Z"/><path class="cls-5" d="M16.87,52.11a1,1,0,0,1-.2.69,1.18,1.18,0,0,1-.76.19,1.08,1.08,0,0,1-.75-.19.88.88,0,0,1-.19-.66.92.92,0,0,1,.2-.69,1.08,1.08,0,0,1,.76-.2,1.12,1.12,0,0,1,.74.19A.87.87,0,0,1,16.87,52.11ZM16.75,60a.21.21,0,0,1,0,.11.3.3,0,0,1-.14.08,1.09,1.09,0,0,1-.25,0l-.4,0-.4,0a1.09,1.09,0,0,1-.25,0,.3.3,0,0,1-.14-.08.21.21,0,0,1,0-.11V54.1a.21.21,0,0,1,0-.11.31.31,0,0,1,.14-.09,1.09,1.09,0,0,1,.25,0,2.3,2.3,0,0,1,.4,0,2.3,2.3,0,0,1,.4,0,1.09,1.09,0,0,1,.25,0,.31.31,0,0,1,.14.09.21.21,0,0,1,0,.11Z"/><path class="cls-5" d="M24,60a.15.15,0,0,1,0,.11.32.32,0,0,1-.13.08,1.2,1.2,0,0,1-.26,0l-.39,0-.41,0-.25,0a.32.32,0,0,1-.13-.08.15.15,0,0,1,0-.11V56.6a3,3,0,0,0-.06-.67,1.19,1.19,0,0,0-.18-.41.74.74,0,0,0-.31-.27.85.85,0,0,0-.43-.1,1.12,1.12,0,0,0-.64.23,3.52,3.52,0,0,0-.67.67V60a.15.15,0,0,1,0,.11.32.32,0,0,1-.13.08,1.33,1.33,0,0,1-.26,0l-.4,0-.4,0-.25,0a.37.37,0,0,1-.14-.08.2.2,0,0,1,0-.11V54.09a.27.27,0,0,1,0-.12.23.23,0,0,1,.12-.08.9.9,0,0,1,.22,0h.68a1,1,0,0,1,.22,0,.21.21,0,0,1,.1.08.19.19,0,0,1,0,.12v.68a3.62,3.62,0,0,1,1-.79,2.21,2.21,0,0,1,1.05-.26,2.33,2.33,0,0,1,1,.19,1.75,1.75,0,0,1,.66.54,2.22,2.22,0,0,1,.37.79A4.82,4.82,0,0,1,24,56.33Z"/><path class="cls-5" d="M29,59.37a2.44,2.44,0,0,1,0,.44.57.57,0,0,1-.1.22.56.56,0,0,1-.17.11l-.27.08a1.86,1.86,0,0,1-.34.06l-.36,0a2.68,2.68,0,0,1-.85-.12,1.49,1.49,0,0,1-.6-.39,1.51,1.51,0,0,1-.35-.65,3.65,3.65,0,0,1-.11-.93v-3h-.7c-.09,0-.15-.06-.19-.16a1.25,1.25,0,0,1-.07-.51,1.62,1.62,0,0,1,0-.33.53.53,0,0,1,.05-.2A.19.19,0,0,1,25,53.9a.2.2,0,0,1,.11,0h.7V52.56a.27.27,0,0,1,0-.12.42.42,0,0,1,.14-.09,1.09,1.09,0,0,1,.25-.05l.4,0,.4,0a1.33,1.33,0,0,1,.26.05.48.48,0,0,1,.13.09.28.28,0,0,1,0,.12v1.31h1.27l.12,0a.35.35,0,0,1,.08.11.83.83,0,0,1,.05.2,3.22,3.22,0,0,1,0,.33,1.52,1.52,0,0,1-.06.51c-.05.1-.11.16-.19.16H27.42V58a1.38,1.38,0,0,0,.15.72.6.6,0,0,0,.54.23.86.86,0,0,0,.23,0l.19,0,.14-.05a.19.19,0,0,1,.1,0,.11.11,0,0,1,.07,0s.05,0,.06.09a1.49,1.49,0,0,1,0,.19A2.54,2.54,0,0,1,29,59.37Z"/><path class="cls-5" d="M35.39,56.85a.61.61,0,0,1-.13.44.47.47,0,0,1-.37.15H31.32a2.43,2.43,0,0,0,.09.68,1.38,1.38,0,0,0,.28.52,1.23,1.23,0,0,0,.5.32,2.29,2.29,0,0,0,.73.11,4.38,4.38,0,0,0,.77-.06,5.07,5.07,0,0,0,.56-.14,3,3,0,0,0,.4-.14.78.78,0,0,1,.26-.06l.1,0,.06.09a.53.53,0,0,1,0,.16c0,.08,0,.17,0,.28s0,.18,0,.24a.9.9,0,0,1,0,.18.34.34,0,0,1,0,.12l-.07.09a.68.68,0,0,1-.23.13,4.23,4.23,0,0,1-.49.15,5,5,0,0,1-.67.13,5.36,5.36,0,0,1-.82.06,4.39,4.39,0,0,1-1.37-.2,2.55,2.55,0,0,1-1-.59,2.44,2.44,0,0,1-.58-1,4.65,4.65,0,0,1-.2-1.43,4.44,4.44,0,0,1,.21-1.41,2.88,2.88,0,0,1,.59-1.06,2.56,2.56,0,0,1,.94-.67,3.28,3.28,0,0,1,1.25-.22,3.39,3.39,0,0,1,1.26.21,2.42,2.42,0,0,1,.85.6,2.45,2.45,0,0,1,.5.91,4.14,4.14,0,0,1,.15,1.14Zm-1.6-.48a1.72,1.72,0,0,0-.28-1.09,1.08,1.08,0,0,0-.92-.4A1.2,1.2,0,0,0,32,55a1.34,1.34,0,0,0-.39.32,1.38,1.38,0,0,0-.23.47,2.2,2.2,0,0,0-.1.58Z"/><path class="cls-5" d="M40.51,54.63c0,.16,0,.29,0,.39a1.19,1.19,0,0,1,0,.24.35.35,0,0,1-.07.12.18.18,0,0,1-.11,0l-.11,0-.15,0-.18-.05a.78.78,0,0,0-.22,0,.66.66,0,0,0-.27.06,1.46,1.46,0,0,0-.29.17,2.39,2.39,0,0,0-.31.32,3.72,3.72,0,0,0-.34.49V60a.21.21,0,0,1,0,.11.3.3,0,0,1-.14.08l-.25,0-.4,0-.4,0a1.09,1.09,0,0,1-.25,0,.3.3,0,0,1-.14-.08.21.21,0,0,1,0-.11V54.09a.27.27,0,0,1,0-.12.36.36,0,0,1,.12-.08,1,1,0,0,1,.22,0h.69a.81.81,0,0,1,.21,0,.24.24,0,0,1,.11.08.27.27,0,0,1,0,.12v.73a4.59,4.59,0,0,1,.44-.54,1.9,1.9,0,0,1,.38-.34,1.79,1.79,0,0,1,.37-.18,1.55,1.55,0,0,1,.37,0h.18l.21,0,.18.05.11.06a.19.19,0,0,1,.06.07l0,.11c0,.05,0,.12,0,.21Z"/><path class="cls-5" d="M46.79,56.85a.61.61,0,0,1-.13.44.49.49,0,0,1-.38.15H42.72a2.43,2.43,0,0,0,.09.68,1.38,1.38,0,0,0,.28.52,1.23,1.23,0,0,0,.5.32,2.24,2.24,0,0,0,.73.11,4.26,4.26,0,0,0,.76-.06,4.76,4.76,0,0,0,.57-.14,3.6,3.6,0,0,0,.4-.14.74.74,0,0,1,.25-.06l.1,0a.22.22,0,0,1,.07.09.35.35,0,0,1,0,.16,2.35,2.35,0,0,1,0,.28v.24c0,.07,0,.13,0,.18a.34.34,0,0,1,0,.12l-.07.09a.82.82,0,0,1-.23.13,4.23,4.23,0,0,1-.49.15,6.55,6.55,0,0,1-1.49.19,4.35,4.35,0,0,1-1.37-.2,2.48,2.48,0,0,1-1-.59,2.57,2.57,0,0,1-.59-1A4.67,4.67,0,0,1,41,57.08a4.75,4.75,0,0,1,.2-1.41,3,3,0,0,1,.59-1.06,2.69,2.69,0,0,1,1-.67,3.74,3.74,0,0,1,2.5,0,2.37,2.37,0,0,1,.86.6,2.43,2.43,0,0,1,.49.91,3.79,3.79,0,0,1,.16,1.14Zm-1.6-.48a1.72,1.72,0,0,0-.28-1.09,1.1,1.1,0,0,0-.92-.4,1.18,1.18,0,0,0-.55.12,1.12,1.12,0,0,0-.39.32,1.6,1.6,0,0,0-.24.47,2.7,2.7,0,0,0-.09.58Z"/><path class="cls-5" d="M52.27,58.29a2,2,0,0,1-.18.88,1.94,1.94,0,0,1-.53.64,2.33,2.33,0,0,1-.81.38,3.63,3.63,0,0,1-1,.13,4.23,4.23,0,0,1-.63,0,3.22,3.22,0,0,1-.53-.12,3.31,3.31,0,0,1-.4-.16.91.91,0,0,1-.23-.15.41.41,0,0,1-.11-.21,1.68,1.68,0,0,1,0-.44c0-.13,0-.23,0-.3s0-.14,0-.19,0-.08.07-.09a.16.16,0,0,1,.1,0,.4.4,0,0,1,.21.08l.35.18a3.91,3.91,0,0,0,.49.18,2.08,2.08,0,0,0,.63.09,1.56,1.56,0,0,0,.4,0,.83.83,0,0,0,.3-.13.6.6,0,0,0,.2-.22.67.67,0,0,0,.06-.3.52.52,0,0,0-.12-.34,1.16,1.16,0,0,0-.32-.24,3.18,3.18,0,0,0-.45-.2l-.52-.2a5,5,0,0,1-.52-.26,1.7,1.7,0,0,1-.45-.35,1.48,1.48,0,0,1-.32-.51,1.7,1.7,0,0,1-.13-.71,1.77,1.77,0,0,1,.17-.77,1.82,1.82,0,0,1,.47-.6,2.23,2.23,0,0,1,.75-.39,3.46,3.46,0,0,1,1-.13,4.58,4.58,0,0,1,.53,0,4.24,4.24,0,0,1,.47.1,2.12,2.12,0,0,1,.36.13l.2.12a.28.28,0,0,1,.09.1.34.34,0,0,1,0,.12.72.72,0,0,1,0,.17,1.78,1.78,0,0,1,0,.25,2.44,2.44,0,0,1,0,.29.48.48,0,0,1,0,.18.13.13,0,0,1-.06.08.16.16,0,0,1-.09,0,.64.64,0,0,1-.19-.07,1.8,1.8,0,0,0-.31-.15L50.82,55a2.38,2.38,0,0,0-.56-.07,1.48,1.48,0,0,0-.39,0,.68.68,0,0,0-.27.13.62.62,0,0,0-.16.2.7.7,0,0,0,0,.25.5.5,0,0,0,.12.34,1.4,1.4,0,0,0,.33.24,3.49,3.49,0,0,0,.47.2l.52.2c.18.07.35.16.53.25a2.28,2.28,0,0,1,.46.36,1.81,1.81,0,0,1,.33.5A1.78,1.78,0,0,1,52.27,58.29Z"/><path class="cls-5" d="M58.5,60a.18.18,0,0,1-.06.14.71.71,0,0,1-.21.08l-.42,0-.43,0a.49.49,0,0,1-.19-.08.22.22,0,0,1,0-.14V59.5a2.55,2.55,0,0,1-.83.6,2.31,2.31,0,0,1-1,.22,2.93,2.93,0,0,1-.86-.12,1.93,1.93,0,0,1-.68-.36,1.56,1.56,0,0,1-.44-.6,2.13,2.13,0,0,1,0-1.71,1.72,1.72,0,0,1,.6-.63,3,3,0,0,1,1-.36,6.91,6.91,0,0,1,1.37-.12h.57v-.35a2.31,2.31,0,0,0-.05-.49.81.81,0,0,0-.19-.34A.82.82,0,0,0,56.3,55a2,2,0,0,0-.53-.06,2.83,2.83,0,0,0-.74.09,4.67,4.67,0,0,0-.57.2l-.42.21a.6.6,0,0,1-.27.09.21.21,0,0,1-.13-.05.25.25,0,0,1-.09-.13.76.76,0,0,1-.06-.21,2.13,2.13,0,0,1,0-.27,1,1,0,0,1,0-.33.57.57,0,0,1,.12-.21,1.46,1.46,0,0,1,.32-.21,3.38,3.38,0,0,1,.54-.21,4.38,4.38,0,0,1,.67-.16,4.77,4.77,0,0,1,.76-.06,4.52,4.52,0,0,1,1.18.13,2.09,2.09,0,0,1,.8.41,1.69,1.69,0,0,1,.46.72A3.61,3.61,0,0,1,58.5,56Zm-1.62-2.51h-.63a3.3,3.3,0,0,0-.68.06,1.3,1.3,0,0,0-.46.17.71.71,0,0,0-.26.29.79.79,0,0,0-.08.38.75.75,0,0,0,.23.58.94.94,0,0,0,.65.21,1.21,1.21,0,0,0,.64-.18,2.64,2.64,0,0,0,.59-.51Z"/><path class="cls-5" d="M65.74,60a.2.2,0,0,1,0,.11.3.3,0,0,1-.14.08,1.09,1.09,0,0,1-.25,0l-.4,0-.4,0a1.09,1.09,0,0,1-.25,0,.26.26,0,0,1-.13-.08.15.15,0,0,1,0-.11V56.6a2.45,2.45,0,0,0-.07-.67,1.19,1.19,0,0,0-.18-.41.77.77,0,0,0-.3-.27.89.89,0,0,0-.44-.1,1.09,1.09,0,0,0-.63.23,3.52,3.52,0,0,0-.67.67V60a.21.21,0,0,1,0,.11.37.37,0,0,1-.14.08l-.25,0-.4,0-.4,0a1.33,1.33,0,0,1-.26,0,.32.32,0,0,1-.13-.08.15.15,0,0,1,0-.11V54.09a.27.27,0,0,1,0-.12.28.28,0,0,1,.12-.08,1,1,0,0,1,.22,0h.69a.81.81,0,0,1,.21,0,.24.24,0,0,1,.11.08.27.27,0,0,1,0,.12v.68a3.81,3.81,0,0,1,1-.79,2.18,2.18,0,0,1,1.05-.26,2.37,2.37,0,0,1,1,.19,1.75,1.75,0,0,1,.66.54,2,2,0,0,1,.36.79,4.31,4.31,0,0,1,.11,1.09Z"/><path class="cls-5" d="M70.71,59.37a1.68,1.68,0,0,1,0,.44.45.45,0,0,1-.09.22.5.5,0,0,1-.18.11,1.25,1.25,0,0,1-.27.08,1.61,1.61,0,0,1-.33.06l-.36,0a2.75,2.75,0,0,1-.86-.12,1.56,1.56,0,0,1-.6-.39,1.61,1.61,0,0,1-.34-.65,3.23,3.23,0,0,1-.12-.93v-3h-.7c-.08,0-.14-.06-.19-.16a1.52,1.52,0,0,1-.06-.51,3.22,3.22,0,0,1,0-.33.83.83,0,0,1,0-.2.24.24,0,0,1,.08-.11.24.24,0,0,1,.12,0h.69V52.56a.28.28,0,0,1,0-.12.36.36,0,0,1,.13-.09A1.33,1.33,0,0,1,68,52.3l.4,0,.4,0a1.09,1.09,0,0,1,.25.05.36.36,0,0,1,.13.09.19.19,0,0,1,0,.12v1.31h1.28a.2.2,0,0,1,.11,0,.24.24,0,0,1,.08.11.83.83,0,0,1,0,.2,2.92,2.92,0,0,1,0,.33,1.25,1.25,0,0,1-.07.51c0,.1-.1.16-.19.16H69.17V58a1.38,1.38,0,0,0,.15.72.6.6,0,0,0,.54.23.9.9,0,0,0,.24,0l.18,0,.14-.05.1,0a.11.11,0,0,1,.08,0,.17.17,0,0,1,.06.09s0,.11,0,.19A2.23,2.23,0,0,1,70.71,59.37Z"/><path class="cls-5" d="M77.15,56.85a.61.61,0,0,1-.14.44.47.47,0,0,1-.37.15H73.08a2.43,2.43,0,0,0,.09.68,1.38,1.38,0,0,0,.28.52A1.17,1.17,0,0,0,74,59a2.24,2.24,0,0,0,.73.11,4.26,4.26,0,0,0,.76-.06,4.76,4.76,0,0,0,.57-.14,3.6,3.6,0,0,0,.4-.14.74.74,0,0,1,.25-.06l.1,0a.22.22,0,0,1,.07.09.57.57,0,0,1,0,.16,2.35,2.35,0,0,1,0,.28v.24c0,.07,0,.13,0,.18a.83.83,0,0,1,0,.12l-.07.09a.82.82,0,0,1-.23.13,4.23,4.23,0,0,1-.49.15,6.55,6.55,0,0,1-1.49.19,4.35,4.35,0,0,1-1.37-.2,2.48,2.48,0,0,1-1-.59,2.57,2.57,0,0,1-.59-1,4.67,4.67,0,0,1-.19-1.43,4.75,4.75,0,0,1,.2-1.41,3,3,0,0,1,.59-1.06,2.65,2.65,0,0,1,.94-.67,3.31,3.31,0,0,1,1.25-.22,3.39,3.39,0,0,1,1.26.21,2.37,2.37,0,0,1,.86.6,2.43,2.43,0,0,1,.49.91,3.79,3.79,0,0,1,.16,1.14Zm-1.6-.48a1.72,1.72,0,0,0-.28-1.09,1.1,1.1,0,0,0-.92-.4,1.18,1.18,0,0,0-.55.12,1.12,1.12,0,0,0-.39.32,1.6,1.6,0,0,0-.24.47,2.7,2.7,0,0,0-.09.58Z"/><path class="cls-5" d="M80.45,59.22a1.17,1.17,0,0,1-.21.82,1.09,1.09,0,0,1-.77.21,1.07,1.07,0,0,1-.76-.2,1.12,1.12,0,0,1-.21-.79,1.17,1.17,0,0,1,.21-.82,1.12,1.12,0,0,1,.78-.21,1.05,1.05,0,0,1,.75.2A1.12,1.12,0,0,1,80.45,59.22Z"/></g></g></svg>