<svg xmlns="http://www.w3.org/2000/svg" viewBox="0 0 162.42 185.97"><defs><style>.cls-1{opacity:0.3;}.cls-2{fill:#fff;}.cls-3{fill:#93979a;}.cls-4{fill:#241f20;}</style></defs><g id="Capa_2" data-name="Capa 2"><g id="Capa_1-2" data-name="Capa 1"><path class="cls-1" d="M157.78,116c-6.64-34.08-.28-75.46-1.3-88.47S150.14,10,132.31,9.7,47,5,33.29,13.8c0,0-17.14,7.14-9.1,42.71,5.87,26,9,48.33,9.52,68.06-.1,1.39-1.73,19.26-19.34,21.06,0,0,15.18,2.91,17.81,15-.95,16,.69,26.09,18.38,25.26,22.82-1.07,76.07-1.95,90.76-1.59C167.56,185,164.42,150.1,157.78,116Z"/><path class="cls-2" d="M150.89,108.71c-6.63-34.08-.28-75.45-1.29-88.46S143.25,2.65,125.42,2.4s-85.3-4.65-99,4.1c0,0-17.14,7.14-9.1,42.71,5.88,26,9,48.33,9.52,68.06-.1,1.4-1.73,19.26-19.34,21.06,0,0,15.19,2.91,17.81,15-.95,16,.69,26.1,18.38,25.27,22.82-1.08,76.07-1.95,90.76-1.6C160.68,177.66,157.53,142.8,150.89,108.71Z"/><path class="cls-3" d="M26.82,117.27a27.39,27.39,0,0,1-1.43,6.53,27.38,27.38,0,0,0,4.45-12.57c-.57-19.72-3.64-42-9.52-68.05-3.32-14.72-2.33-24.56,0-31-4,5.74-7.57,16.77-3,37.08C23.18,75.21,26.25,97.54,26.82,117.27Z"/><path class="cls-3" d="M137.45,171c-14.69-.36-67.94.52-90.76,1.59-17.69.83-19.33-9.25-18.38-25.26C26.9,140.8,21.85,137,17.48,134.78a20.85,20.85,0,0,1-10,3.55s15.19,2.91,17.81,15c-.95,16,.69,26.1,18.38,25.27,22.82-1.08,76.07-1.95,90.76-1.6,10.14.25,15.88-4.82,18.74-13.08C149.86,168.56,144.81,171.17,137.45,171Z"/><path class="cls-4" d="M40.81,179.74c-5-.11-8.82-1.25-11.54-3.44-5.29-4.25-6-11.9-5.32-22.87-2.51-11.19-16.63-14-16.77-14.05L0,138l7.32-.74c16.38-1.67,18-18.18,18.17-20-.57-19.85-3.68-42.06-9.5-67.8-7.85-34.77,8-43,9.68-43.82,11-6.85,50.49-6,86.7-4.68,5.38.2,10,.37,13.07.41,18,.29,24.41,5,25.48,18.86.33,4.12-.07,10.91-.58,19.5-1.13,19.21-2.68,45.53,1.87,68.87,5,25.85,8.57,53.76-3.36,64.76-3.6,3.33-8.47,4.94-14.45,4.8h-.07c-14.35-.34-67.16.49-90.58,1.59C42.73,179.75,41.75,179.77,40.81,179.74ZM12.07,138.57c5,1.89,12.7,6.12,14.53,14.61l0,.11v.13c-.62,10.43-.08,17.64,4.52,21.35,2.66,2.14,6.73,3,12.45,2.78,23.47-1.11,76.42-1.94,90.81-1.6h.08c5.22.12,9.27-1.21,12.37-4.07,11.27-10.39,7.38-39.12,2.73-63h0c-4.59-23.55-3-50-1.9-69.3.5-8.53.9-15.26.59-19.26-1-12.83-6.13-16.6-22.87-16.84-3.09,0-7.75-.21-13.15-.41-25.88-.95-74.06-2.72-85,4.28L27,7.46c-.15.07-16.12,7.4-8.4,41.56,5.84,25.86,9,48.17,9.54,68.22C28,119.21,26.47,134.51,12.07,138.57Z"/><path d="M75,53a2.29,2.29,0,0,1,.12.44.26.26,0,0,1-.06.25.54.54,0,0,1-.31.1l-.6,0h-.62a1.92,1.92,0,0,1-.34,0,.28.28,0,0,1-.16-.1.48.48,0,0,1-.08-.16l-.68-2h-3.8l-.64,2a.68.68,0,0,1-.08.19.27.27,0,0,1-.16.11,1.22,1.22,0,0,1-.33.06l-.54,0a4.07,4.07,0,0,1-.56,0,.39.39,0,0,1-.28-.11.32.32,0,0,1-.06-.25,3.38,3.38,0,0,1,.12-.44l3.12-9a.68.68,0,0,1,.11-.21.37.37,0,0,1,.2-.13,1.2,1.2,0,0,1,.38-.05l.64,0,.73,0a1.63,1.63,0,0,1,.43.05.36.36,0,0,1,.21.13.71.71,0,0,1,.12.23Zm-4.64-7.42h0l-1.42,4.3h2.86Z"/><path d="M80.89,51.56a2.31,2.31,0,0,1-.23,1,2,2,0,0,1-.63.76,2.85,2.85,0,0,1-1,.46,4.81,4.81,0,0,1-1.95.09,4.87,4.87,0,0,1-.63-.15,3.35,3.35,0,0,1-.47-.18.78.78,0,0,1-.27-.18.5.5,0,0,1-.14-.25,2.32,2.32,0,0,1,0-.52c0-.15,0-.27,0-.37a1,1,0,0,1,0-.22.17.17,0,0,1,.08-.1.2.2,0,0,1,.11,0,.54.54,0,0,1,.26.1l.42.21a4.18,4.18,0,0,0,.58.22,2.48,2.48,0,0,0,.75.1,2.12,2.12,0,0,0,.47,0,1.19,1.19,0,0,0,.36-.16.64.64,0,0,0,.23-.26.68.68,0,0,0,.08-.36.63.63,0,0,0-.14-.4,1.32,1.32,0,0,0-.39-.29,3.79,3.79,0,0,0-.53-.24l-.62-.24c-.21-.09-.42-.19-.62-.3a2.49,2.49,0,0,1-.54-.43,1.81,1.81,0,0,1-.38-.6,2.1,2.1,0,0,1-.15-.84,2.17,2.17,0,0,1,.2-.92,1.94,1.94,0,0,1,.56-.71,2.55,2.55,0,0,1,.9-.46,3.91,3.91,0,0,1,1.18-.17,4.48,4.48,0,0,1,.64,0,4.23,4.23,0,0,1,.56.12,2.05,2.05,0,0,1,.42.15,1.17,1.17,0,0,1,.24.14.4.4,0,0,1,.11.12.38.38,0,0,1,0,.14,1,1,0,0,1,0,.2,2.36,2.36,0,0,1,0,.3,2.82,2.82,0,0,1,0,.34.56.56,0,0,1,0,.21.15.15,0,0,1-.07.11.2.2,0,0,1-.11,0,.59.59,0,0,1-.22-.08,2.57,2.57,0,0,0-.37-.18l-.51-.18a2.73,2.73,0,0,0-.67-.08,1.56,1.56,0,0,0-.46.06.87.87,0,0,0-.32.15.61.61,0,0,0-.19.24.72.72,0,0,0-.06.29.62.62,0,0,0,.14.41,1.25,1.25,0,0,0,.4.29,4.15,4.15,0,0,0,.55.23l.62.24.63.3a2.86,2.86,0,0,1,.55.42,2,2,0,0,1,.54,1.43Z"/><path d="M84,53.53a.2.2,0,0,1,0,.13.45.45,0,0,1-.17.1,1,1,0,0,1-.3.06l-.47,0-.48,0a1.13,1.13,0,0,1-.3-.06.4.4,0,0,1-.16-.1.21.21,0,0,1,0-.13v-7a.22.22,0,0,1,0-.14.4.4,0,0,1,.16-.1l.3-.06.48,0,.47,0,.3.06a.45.45,0,0,1,.17.1.21.21,0,0,1,0,.14Zm-.75-10.4a.86.86,0,0,1,.13-.14.63.63,0,0,1,.2-.1,1.86,1.86,0,0,1,.3,0l.43,0a4.24,4.24,0,0,1,.57,0,.76.76,0,0,1,.3.09.16.16,0,0,1,.08.14.3.3,0,0,1-.08.16l-1.51,1.82-.13.13a.48.48,0,0,1-.16.08,1.31,1.31,0,0,1-.25,0,2,2,0,0,1-.37,0l-.43,0a.51.51,0,0,1-.23-.08.12.12,0,0,1,0-.13.67.67,0,0,1,.08-.18Z"/><path d="M95.39,49.84a.8.8,0,0,1-.16.53.6.6,0,0,1-.44.17H90.54a2.88,2.88,0,0,0,.11.81A1.61,1.61,0,0,0,91,52a1.44,1.44,0,0,0,.6.38,2.48,2.48,0,0,0,.87.14,5,5,0,0,0,.91-.08,6.06,6.06,0,0,0,.67-.16l.47-.17a1.19,1.19,0,0,1,.31-.07.24.24,0,0,1,.12,0,.22.22,0,0,1,.07.09.83.83,0,0,1,0,.2c0,.09,0,.2,0,.33a2.53,2.53,0,0,1,0,.29,1.25,1.25,0,0,1,0,.21.46.46,0,0,1,0,.14l-.08.12a1.36,1.36,0,0,1-.28.14,3.28,3.28,0,0,1-.58.19,6.76,6.76,0,0,1-.8.15,6,6,0,0,1-1,.07,5.34,5.34,0,0,1-1.63-.23A3.14,3.14,0,0,1,89.47,53a3.07,3.07,0,0,1-.7-1.21,5.73,5.73,0,0,1-.23-1.7,5.2,5.2,0,0,1,.25-1.68,3.43,3.43,0,0,1,.7-1.26,3.11,3.11,0,0,1,1.12-.8,4.32,4.32,0,0,1,3,0,2.63,2.63,0,0,1,1,.71,3,3,0,0,1,.59,1.09,4.86,4.86,0,0,1,.19,1.36Zm-1.91-.56A2,2,0,0,0,93.15,48a1.3,1.3,0,0,0-1.1-.47,1.45,1.45,0,0,0-.65.14,1.32,1.32,0,0,0-.46.38,1.73,1.73,0,0,0-.28.56,2.63,2.63,0,0,0-.12.7Z"/><path d="M101.59,51.56a2.31,2.31,0,0,1-.22,1,2,2,0,0,1-.63.76,2.85,2.85,0,0,1-1,.46,4.59,4.59,0,0,1-1.2.15,4.47,4.47,0,0,1-.75-.06,4.29,4.29,0,0,1-1.11-.33,1,1,0,0,1-.27-.18.49.49,0,0,1-.13-.25,2.21,2.21,0,0,1,0-.52,3.57,3.57,0,0,1,0-.37,1.09,1.09,0,0,1,0-.22.17.17,0,0,1,.08-.1.21.21,0,0,1,.12,0,.51.51,0,0,1,.25.1l.42.21a4.73,4.73,0,0,0,.58.22,2.54,2.54,0,0,0,.76.1,2.26,2.26,0,0,0,.47,0,1.19,1.19,0,0,0,.36-.16.64.64,0,0,0,.23-.26.8.8,0,0,0,.08-.36.59.59,0,0,0-.15-.4,1.16,1.16,0,0,0-.38-.29,4.58,4.58,0,0,0-.54-.24L98,50.54c-.21-.09-.41-.19-.61-.3a2.49,2.49,0,0,1-.54-.43,1.83,1.83,0,0,1-.39-.6,2.3,2.3,0,0,1-.14-.84,2.17,2.17,0,0,1,.2-.92,1.85,1.85,0,0,1,.56-.71,2.42,2.42,0,0,1,.89-.46,4,4,0,0,1,1.19-.17,4.34,4.34,0,0,1,.63,0,3.91,3.91,0,0,1,.56.12,1.69,1.69,0,0,1,.42.15,1,1,0,0,1,.25.14.35.35,0,0,1,.1.12.26.26,0,0,1,0,.14c0,.05,0,.12,0,.2a2.63,2.63,0,0,1,0,.3,3.23,3.23,0,0,1,0,.34.87.87,0,0,1,0,.21.19.19,0,0,1-.07.11.23.23,0,0,1-.11,0,.59.59,0,0,1-.22-.08,3.21,3.21,0,0,0-.37-.18l-.52-.18a2.67,2.67,0,0,0-.67-.08,1.6,1.6,0,0,0-.46.06.87.87,0,0,0-.32.15.88.88,0,0,0-.19.24.72.72,0,0,0-.06.29.58.58,0,0,0,.15.41,1.32,1.32,0,0,0,.39.29,4.8,4.8,0,0,0,.55.23l.63.24c.21.09.42.19.62.3a2.58,2.58,0,0,1,.55.42,2,2,0,0,1,.54,1.43Z"/><path d="M105.06,52.67a1.41,1.41,0,0,1-.25,1,1.29,1.29,0,0,1-.91.25,1,1,0,0,1-1.16-1.18,1.39,1.39,0,0,1,.25-1,1.81,1.81,0,0,1,1.82,0A1.34,1.34,0,0,1,105.06,52.67Z"/><path d="M42.08,78.62v3.55a.2.2,0,0,1-.06.14.32.32,0,0,1-.16.1,1.22,1.22,0,0,1-.32.06,4.18,4.18,0,0,1-1,0,1.13,1.13,0,0,1-.31-.06.31.31,0,0,1-.17-.1.24.24,0,0,1-.05-.14V78.62l-2.76-5.51a2.21,2.21,0,0,1-.19-.45c0-.11,0-.19,0-.24a.58.58,0,0,1,.33-.11l.68,0,.57,0a1.31,1.31,0,0,1,.34.06.43.43,0,0,1,.18.11,1.4,1.4,0,0,1,.12.18l1.12,2.49q.16.36.33.75l.32.84h0l.3-.82.31-.76,1.11-2.47a.53.53,0,0,1,.09-.2.41.41,0,0,1,.18-.12,1.14,1.14,0,0,1,.32-.06l.54,0,.69,0a.61.61,0,0,1,.34.11c.06,0,.07.13,0,.24a3.22,3.22,0,0,1-.19.45Z"/><path d="M56,75a.59.59,0,0,1,.45.14.58.58,0,0,1,.13.41v6.69a.2.2,0,0,1,0,.13.49.49,0,0,1-.16.1,1.42,1.42,0,0,1-.3.06l-.47,0-.48,0a1.42,1.42,0,0,1-.3-.06.34.34,0,0,1-.16-.1.21.21,0,0,1,0-.13V76.54H51.46v3.28a1.6,1.6,0,0,0,.18.85.7.7,0,0,0,.64.29,1.2,1.2,0,0,0,.28,0l.22-.06.17-.06a.27.27,0,0,1,.12,0,.16.16,0,0,1,.09,0,.15.15,0,0,1,.06.11.8.8,0,0,1,.05.22,3.21,3.21,0,0,1,0,.36,3.12,3.12,0,0,1,0,.52.47.47,0,0,1-.32.4l-.33.1a2.28,2.28,0,0,1-.39.06,3.25,3.25,0,0,1-.44,0,3,3,0,0,1-1-.15,1.6,1.6,0,0,1-.71-.46,1.83,1.83,0,0,1-.42-.78,4,4,0,0,1-.13-1.1V76.54h-.84c-.1,0-.17-.06-.22-.18a1.53,1.53,0,0,1-.08-.61,2.12,2.12,0,0,1,0-.38.7.7,0,0,1,.06-.25.25.25,0,0,1,.09-.13.23.23,0,0,1,.14,0h.83V73.4a.21.21,0,0,1,0-.14.29.29,0,0,1,.16-.11,1,1,0,0,1,.3-.06l.47,0,.49,0a1.13,1.13,0,0,1,.3.06.3.3,0,0,1,.15.11.22.22,0,0,1,.05.14V75Zm.74-2.09a1.12,1.12,0,0,1-.24.82,1.34,1.34,0,0,1-.9.22,1.41,1.41,0,0,1-.9-.21,1.1,1.1,0,0,1-.23-.79,1.14,1.14,0,0,1,.24-.83,1.34,1.34,0,0,1,.9-.23,1.35,1.35,0,0,1,.89.22A1.08,1.08,0,0,1,56.71,72.86Z"/><path d="M64.65,78.5a.8.8,0,0,1-.16.53.6.6,0,0,1-.44.17H59.8a2.88,2.88,0,0,0,.11.81,1.61,1.61,0,0,0,.33.62,1.54,1.54,0,0,0,.6.38,2.48,2.48,0,0,0,.87.14,5,5,0,0,0,.91-.08,6.06,6.06,0,0,0,.67-.16l.47-.17a.88.88,0,0,1,.31-.07.24.24,0,0,1,.12,0,.22.22,0,0,1,.07.09.83.83,0,0,1,0,.2c0,.09,0,.2,0,.33a2.53,2.53,0,0,1,0,.29,1.25,1.25,0,0,1,0,.21.46.46,0,0,1-.05.14.83.83,0,0,1-.08.12,1.36,1.36,0,0,1-.28.14,3.28,3.28,0,0,1-.58.19,6.76,6.76,0,0,1-.8.15,6,6,0,0,1-1,.07,5.34,5.34,0,0,1-1.63-.23A2.79,2.79,0,0,1,58,80.48a5.73,5.73,0,0,1-.23-1.7,5.2,5.2,0,0,1,.25-1.68,3.43,3.43,0,0,1,.7-1.26,3.11,3.11,0,0,1,1.12-.8,4.32,4.32,0,0,1,3,0,2.63,2.63,0,0,1,1,.71,3,3,0,0,1,.59,1.09,4.86,4.86,0,0,1,.19,1.36Zm-1.91-.56a2,2,0,0,0-.33-1.31,1.3,1.3,0,0,0-1.1-.47,1.45,1.45,0,0,0-.65.14,1.32,1.32,0,0,0-.46.38,1.73,1.73,0,0,0-.28.56,2.63,2.63,0,0,0-.12.7Z"/><path d="M72.6,82.19a.21.21,0,0,1,0,.13.36.36,0,0,1-.15.1,1.76,1.76,0,0,1-.3.06l-.48,0-.48,0a1.57,1.57,0,0,1-.3-.06.36.36,0,0,1-.15-.1.17.17,0,0,1,0-.13v-4a3.28,3.28,0,0,0-.08-.8,1.57,1.57,0,0,0-.21-.49A.86.86,0,0,0,70,76.6a1.08,1.08,0,0,0-.52-.12,1.26,1.26,0,0,0-.76.28,3.93,3.93,0,0,0-.8.79v4.64a.2.2,0,0,1,0,.13.49.49,0,0,1-.16.1,1.7,1.7,0,0,1-.31.06l-.47,0-.48,0a1.76,1.76,0,0,1-.3-.06.4.4,0,0,1-.16-.1.21.21,0,0,1,0-.13v-7a.29.29,0,0,1,0-.14.39.39,0,0,1,.14-.1l.27-.06.4,0,.41,0,.26.06a.31.31,0,0,1,.12.1.21.21,0,0,1,0,.14V76a4.47,4.47,0,0,1,1.18-.94,2.75,2.75,0,0,1,1.25-.31,2.66,2.66,0,0,1,1.19.24,2,2,0,0,1,.79.63,2.63,2.63,0,0,1,.44.94,5.49,5.49,0,0,1,.13,1.3Z"/><path d="M80.65,78.5a.8.8,0,0,1-.16.53.6.6,0,0,1-.44.17H75.8a2.88,2.88,0,0,0,.11.81,1.5,1.5,0,0,0,.34.62,1.44,1.44,0,0,0,.59.38,2.48,2.48,0,0,0,.87.14,4.89,4.89,0,0,0,.91-.08,6.06,6.06,0,0,0,.67-.16l.47-.17a.88.88,0,0,1,.31-.07.21.21,0,0,1,.12,0,.22.22,0,0,1,.07.09.53.53,0,0,1,0,.2,3.22,3.22,0,0,1,0,.33,2.53,2.53,0,0,1,0,.29,1.25,1.25,0,0,1,0,.21.46.46,0,0,1-.05.14.83.83,0,0,1-.08.12,1.12,1.12,0,0,1-.28.14,3.28,3.28,0,0,1-.58.19,6.76,6.76,0,0,1-.8.15,6,6,0,0,1-1,.07,5.34,5.34,0,0,1-1.63-.23,3.14,3.14,0,0,1-1.17-.71,3.07,3.07,0,0,1-.7-1.21,5.73,5.73,0,0,1-.23-1.7,5.49,5.49,0,0,1,.25-1.68,3.43,3.43,0,0,1,.7-1.26,3.11,3.11,0,0,1,1.12-.8,4.32,4.32,0,0,1,3,0,2.63,2.63,0,0,1,1,.71,2.81,2.81,0,0,1,.59,1.09,4.52,4.52,0,0,1,.19,1.36Zm-1.91-.56a2,2,0,0,0-.33-1.31,1.3,1.3,0,0,0-1.1-.47,1.45,1.45,0,0,0-.65.14,1.32,1.32,0,0,0-.46.38,1.73,1.73,0,0,0-.28.56,2.63,2.63,0,0,0-.12.7Z"/><path d="M91.52,75.7a1.54,1.54,0,0,1-.08.56q-.09.18-.21.18h-.82a1.1,1.1,0,0,1,.24.42,1.69,1.69,0,0,1,.08.5,2.67,2.67,0,0,1-.21,1.08,2.2,2.2,0,0,1-.58.8,2.65,2.65,0,0,1-.91.49,4.07,4.07,0,0,1-1.19.17,2.32,2.32,0,0,1-.65-.09,1.33,1.33,0,0,1-.46-.19.92.92,0,0,0-.17.25.62.62,0,0,0-.08.31.45.45,0,0,0,.2.37,1,1,0,0,0,.56.16l1.7.06a4.2,4.2,0,0,1,1.06.17,2.32,2.32,0,0,1,.78.41,1.7,1.7,0,0,1,.48.62,2.07,2.07,0,0,1,.17.84,2.16,2.16,0,0,1-.23,1,2.24,2.24,0,0,1-.68.8,3.59,3.59,0,0,1-1.13.53,5.9,5.9,0,0,1-1.6.19,6.67,6.67,0,0,1-1.52-.14,3.17,3.17,0,0,1-1-.39,1.54,1.54,0,0,1-.59-.6,1.61,1.61,0,0,1-.18-.76,2,2,0,0,1,.06-.49,1.82,1.82,0,0,1,.2-.45,2.4,2.4,0,0,1,.32-.41,2.67,2.67,0,0,1,.43-.37A1.3,1.3,0,0,1,85,81.2a1.25,1.25,0,0,1-.19-.68,1.69,1.69,0,0,1,.21-.84,2.74,2.74,0,0,1,.55-.68,2.06,2.06,0,0,1-.44-.66,2.39,2.39,0,0,1-.16-1,2.68,2.68,0,0,1,.21-1.09,2.45,2.45,0,0,1,.6-.81,2.57,2.57,0,0,1,.92-.51,3.59,3.59,0,0,1,1.17-.18,6.26,6.26,0,0,1,.63,0A4.11,4.11,0,0,1,89,75h2.22a.25.25,0,0,1,.21.17A1.4,1.4,0,0,1,91.52,75.7Zm-2.06,7.21a.61.61,0,0,0-.28-.54,1.53,1.53,0,0,0-.77-.2l-1.4,0a2,2,0,0,0-.33.29,1.43,1.43,0,0,0-.19.26.82.82,0,0,0-.1.24,1,1,0,0,0,0,.24.65.65,0,0,0,.39.6,2.53,2.53,0,0,0,1.11.2,2.65,2.65,0,0,0,.75-.09,1.46,1.46,0,0,0,.5-.24.88.88,0,0,0,.26-.33A1,1,0,0,0,89.46,82.91ZM89,77.35a1.22,1.22,0,0,0-.31-.88,1.25,1.25,0,0,0-.89-.31,1.12,1.12,0,0,0-.5.1,1,1,0,0,0-.37.27,1,1,0,0,0-.21.39,1.39,1.39,0,0,0-.07.46,1.12,1.12,0,0,0,.31.84,1.17,1.17,0,0,0,.87.31,1.29,1.29,0,0,0,.51-.09,1.12,1.12,0,0,0,.37-.26,1.3,1.3,0,0,0,.22-.38A1.63,1.63,0,0,0,89,77.35Z"/><path d="M97,75.87c0,.18,0,.34,0,.46a1.43,1.43,0,0,1,0,.28.37.37,0,0,1-.08.14.25.25,0,0,1-.13,0l-.14,0-.18-.06-.21-.06a1.06,1.06,0,0,0-.26,0,1,1,0,0,0-.33.06,1.43,1.43,0,0,0-.34.21,2.56,2.56,0,0,0-.36.37,5.2,5.2,0,0,0-.41.58v4.35a.21.21,0,0,1,0,.13.4.4,0,0,1-.16.1,1.76,1.76,0,0,1-.3.06l-.48,0-.47,0a1.42,1.42,0,0,1-.3-.06.45.45,0,0,1-.17-.1.2.2,0,0,1,0-.13v-7a.21.21,0,0,1,0-.14.27.27,0,0,1,.14-.1l.26-.06.4,0,.42,0L94,75a.34.34,0,0,1,.13.1.21.21,0,0,1,0,.14v.86a5.49,5.49,0,0,1,.51-.64,3.11,3.11,0,0,1,.46-.4,1.59,1.59,0,0,1,.44-.21,1.67,1.67,0,0,1,.44-.06h.22l.24,0,.22.06a.58.58,0,0,1,.14.08s0,.05.06.08l0,.13c0,.06,0,.14,0,.25Z"/><path d="M103.46,82.21a.21.21,0,0,1-.08.17.55.55,0,0,1-.24.09,4.27,4.27,0,0,1-1,0,.5.5,0,0,1-.23-.09.24.24,0,0,1-.06-.17v-.56a3.22,3.22,0,0,1-1,.72,2.91,2.91,0,0,1-1.23.26,3.64,3.64,0,0,1-1-.14,2.37,2.37,0,0,1-.8-.43,2,2,0,0,1-.53-.71,2.48,2.48,0,0,1-.19-1,2.21,2.21,0,0,1,.24-1.06,2,2,0,0,1,.71-.75,3.63,3.63,0,0,1,1.18-.43,8.69,8.69,0,0,1,1.63-.14h.68v-.42a2.52,2.52,0,0,0-.06-.58,1.08,1.08,0,0,0-.22-.41.93.93,0,0,0-.41-.24,2.25,2.25,0,0,0-.63-.08,3.36,3.36,0,0,0-.88.11,5.8,5.8,0,0,0-.68.25,3.93,3.93,0,0,0-.5.24.76.76,0,0,1-.32.11.2.2,0,0,1-.15-.06.28.28,0,0,1-.11-.15,1.49,1.49,0,0,1-.07-.25,1.72,1.72,0,0,1,0-.33,1.41,1.41,0,0,1,0-.39.57.57,0,0,1,.14-.25,1.64,1.64,0,0,1,.39-.25,4.51,4.51,0,0,1,.64-.25,5.53,5.53,0,0,1,.8-.19,5.26,5.26,0,0,1,.89-.08,5.7,5.7,0,0,1,1.41.16,2.45,2.45,0,0,1,.95.49,1.94,1.94,0,0,1,.55.86,4.13,4.13,0,0,1,.17,1.24Zm-1.93-3h-.75a4.52,4.52,0,0,0-.81.07,1.54,1.54,0,0,0-.55.22.84.84,0,0,0-.31.34,1.06,1.06,0,0,0-.09.45.9.9,0,0,0,.27.69,1.1,1.1,0,0,0,.77.25,1.43,1.43,0,0,0,.76-.21,3,3,0,0,0,.71-.62Z"/><path d="M111.76,82.19a.21.21,0,0,1-.05.13.34.34,0,0,1-.16.1,1.42,1.42,0,0,1-.3.06l-.47,0-.48,0a1.42,1.42,0,0,1-.3-.06.49.49,0,0,1-.16-.1.2.2,0,0,1,0-.13v-4a3.28,3.28,0,0,0-.08-.8,1.57,1.57,0,0,0-.21-.49,1,1,0,0,0-.37-.32,1,1,0,0,0-.51-.12,1.26,1.26,0,0,0-.76.28,3.93,3.93,0,0,0-.8.79v4.64a.21.21,0,0,1,0,.13.34.34,0,0,1-.16.1,1.42,1.42,0,0,1-.3.06l-.47,0-.48,0a1.42,1.42,0,0,1-.3-.06.34.34,0,0,1-.16-.1.21.21,0,0,1-.05-.13v-7a.21.21,0,0,1,0-.14.32.32,0,0,1,.14-.1l.26-.06.41,0,.41,0,.25.06a.28.28,0,0,1,.13.1.21.21,0,0,1,0,.14V76a4.47,4.47,0,0,1,1.18-.94,2.74,2.74,0,0,1,1.24-.31,2.67,2.67,0,0,1,1.2.24,2,2,0,0,1,.79.63,2.63,2.63,0,0,1,.44.94,6.07,6.07,0,0,1,.13,1.3Z"/><path d="M120,82.19a.23.23,0,0,1,0,.14.34.34,0,0,1-.13.1,1.33,1.33,0,0,1-.26,0l-.39,0-.41,0-.25,0a.32.32,0,0,1-.14-.1.24.24,0,0,1,0-.14v-.78a4.22,4.22,0,0,1-1.13.9,2.94,2.94,0,0,1-2.65,0,2.47,2.47,0,0,1-.9-.83,3.6,3.6,0,0,1-.5-1.22,6.46,6.46,0,0,1-.16-1.48,6.59,6.59,0,0,1,.2-1.67,3.85,3.85,0,0,1,.58-1.26,2.64,2.64,0,0,1,1-.81,3.05,3.05,0,0,1,1.32-.28,2.33,2.33,0,0,1,1.06.24,3.64,3.64,0,0,1,.94.7V71.94a.27.27,0,0,1,0-.15.36.36,0,0,1,.15-.1,1.67,1.67,0,0,1,.3-.07l.48,0,.48,0a1.37,1.37,0,0,1,.29.07.34.34,0,0,1,.16.1.27.27,0,0,1,0,.15Zm-2-4.66a4.09,4.09,0,0,0-.8-.81,1.35,1.35,0,0,0-.81-.28,1.09,1.09,0,0,0-.66.19,1.25,1.25,0,0,0-.45.51,3,3,0,0,0-.25.71,4.45,4.45,0,0,0-.08.81,4.72,4.72,0,0,0,.07.85,2.57,2.57,0,0,0,.23.74,1.38,1.38,0,0,0,.43.52,1.09,1.09,0,0,0,.67.2,1.27,1.27,0,0,0,.39-.06,1.4,1.4,0,0,0,.39-.19,2.55,2.55,0,0,0,.41-.35,5.31,5.31,0,0,0,.46-.53Z"/><path d="M128.07,78.5a.75.75,0,0,1-.16.53.59.59,0,0,1-.44.17h-4.24a2.9,2.9,0,0,0,.1.81,1.62,1.62,0,0,0,.34.62,1.44,1.44,0,0,0,.59.38,2.56,2.56,0,0,0,.87.14,4.81,4.81,0,0,0,.91-.08,6.29,6.29,0,0,0,.68-.16l.47-.17a.84.84,0,0,1,.3-.07.21.21,0,0,1,.12,0,.24.24,0,0,1,.08.09.88.88,0,0,1,0,.2,3.22,3.22,0,0,1,0,.33v.29q0,.12,0,.21a.47.47,0,0,1,0,.14.94.94,0,0,1-.09.12,1,1,0,0,1-.27.14,4,4,0,0,1-.58.19,7.38,7.38,0,0,1-.81.15,5.9,5.9,0,0,1-1,.07,5.23,5.23,0,0,1-1.62-.23,3,3,0,0,1-1.17-.71,2.84,2.84,0,0,1-.7-1.21,5.42,5.42,0,0,1-.23-1.7,5.5,5.5,0,0,1,.24-1.68,3.58,3.58,0,0,1,.7-1.26,3.11,3.11,0,0,1,1.12-.8,4.35,4.35,0,0,1,3,0,2.79,2.79,0,0,1,1,.71,2.93,2.93,0,0,1,.58,1.09,4.52,4.52,0,0,1,.19,1.36Zm-1.9-.56a2.06,2.06,0,0,0-.34-1.31,1.28,1.28,0,0,0-1.09-.47,1.53,1.53,0,0,0-.66.14,1.42,1.42,0,0,0-.46.38,2,2,0,0,0-.28.56,3.1,3.1,0,0,0-.11.7Z"/><path d="M134.27,80.22a2.31,2.31,0,0,1-.22,1,2,2,0,0,1-.63.76,2.85,2.85,0,0,1-1,.46,4.81,4.81,0,0,1-2,.09,4.5,4.5,0,0,1-.63-.15,3.35,3.35,0,0,1-.47-.18,1,1,0,0,1-.28-.18.58.58,0,0,1-.13-.25,2.21,2.21,0,0,1-.05-.52,3.41,3.41,0,0,1,0-.37,1,1,0,0,1,.05-.22s0-.09.07-.1a.27.27,0,0,1,.12,0,.57.57,0,0,1,.26.1l.41.21a4.35,4.35,0,0,0,.59.22,2.48,2.48,0,0,0,.75.1,2.19,2.19,0,0,0,.47,0,1.19,1.19,0,0,0,.36-.16.64.64,0,0,0,.23-.26.8.8,0,0,0,.08-.36.63.63,0,0,0-.14-.4,1.32,1.32,0,0,0-.39-.29,4.58,4.58,0,0,0-.54-.24l-.61-.24c-.21-.09-.42-.19-.62-.3a2.49,2.49,0,0,1-.54-.43,1.67,1.67,0,0,1-.38-.6A2.1,2.1,0,0,1,129,77a2.17,2.17,0,0,1,.2-.92,1.94,1.94,0,0,1,.56-.71,2.47,2.47,0,0,1,.9-.46,3.91,3.91,0,0,1,1.18-.17,4.48,4.48,0,0,1,.64,0,3.76,3.76,0,0,1,.55.12,2,2,0,0,1,.43.15,1.17,1.17,0,0,1,.24.14.4.4,0,0,1,.11.12.39.39,0,0,1,0,.14.94.94,0,0,1,0,.2,2.63,2.63,0,0,1,0,.3,3.23,3.23,0,0,1,0,.34.87.87,0,0,1,0,.21.19.19,0,0,1-.07.11.2.2,0,0,1-.11,0,.59.59,0,0,1-.22-.08,2.57,2.57,0,0,0-.37-.18l-.52-.18a2.59,2.59,0,0,0-.66-.08,1.56,1.56,0,0,0-.46.06,1,1,0,0,0-.33.15.69.69,0,0,0-.18.24.73.73,0,0,0-.07.29.58.58,0,0,0,.15.41,1.32,1.32,0,0,0,.39.29,5.69,5.69,0,0,0,.55.23l.63.24c.21.09.42.19.62.3a2.93,2.93,0,0,1,.56.42,2.07,2.07,0,0,1,.39.6A2.29,2.29,0,0,1,134.27,80.22Z"/><path d="M59.31,92.94a6.59,6.59,0,0,1-.2,1.67,3.77,3.77,0,0,1-.59,1.26,2.61,2.61,0,0,1-.94.81,2.76,2.76,0,0,1-1.27.28,2.84,2.84,0,0,1-.66-.07,2.13,2.13,0,0,1-.58-.21,3.56,3.56,0,0,1-.54-.38,5.56,5.56,0,0,1-.56-.54v.75a.24.24,0,0,1,0,.15.32.32,0,0,1-.14.1,1.2,1.2,0,0,1-.26,0l-.4,0-.4,0a1.33,1.33,0,0,1-.26,0,.39.39,0,0,1-.14-.1.33.33,0,0,1,0-.15V86.24a.23.23,0,0,1,0-.14.32.32,0,0,1,.16-.1,1.11,1.11,0,0,1,.3-.07,5.77,5.77,0,0,1,1,0,1.11,1.11,0,0,1,.3.07.32.32,0,0,1,.16.1.23.23,0,0,1,0,.14v3.85a4.29,4.29,0,0,1,.54-.45,2.61,2.61,0,0,1,.53-.31,2.12,2.12,0,0,1,.54-.17,2.91,2.91,0,0,1,.6-.06,2.47,2.47,0,0,1,2.19,1.14,3.59,3.59,0,0,1,.49,1.22A6.46,6.46,0,0,1,59.31,92.94Zm-2,.14a5.9,5.9,0,0,0-.06-.86,2.68,2.68,0,0,0-.24-.74,1.41,1.41,0,0,0-.42-.51,1.09,1.09,0,0,0-.66-.19,1.58,1.58,0,0,0-.38,0,1.4,1.4,0,0,0-.39.19,3.07,3.07,0,0,0-.41.35,5.12,5.12,0,0,0-.45.52V94.2a3.84,3.84,0,0,0,.8.81,1.27,1.27,0,0,0,.79.28,1.09,1.09,0,0,0,.65-.2,1.57,1.57,0,0,0,.44-.51,2.13,2.13,0,0,0,.25-.71A3.53,3.53,0,0,0,57.27,93.08Z"/><path d="M67,92.83a.8.8,0,0,1-.16.53.6.6,0,0,1-.44.17H62.15a2.88,2.88,0,0,0,.11.81,1.5,1.5,0,0,0,.34.62,1.44,1.44,0,0,0,.59.38,2.48,2.48,0,0,0,.87.14A4.89,4.89,0,0,0,65,95.4a6.06,6.06,0,0,0,.67-.16l.48-.17a.79.79,0,0,1,.3-.07.21.21,0,0,1,.12,0s0,0,.08.09a.88.88,0,0,1,0,.2,3.22,3.22,0,0,1,0,.33,2.53,2.53,0,0,1,0,.29,1.25,1.25,0,0,1,0,.21.58.58,0,0,1,0,.14l-.08.12a1.12,1.12,0,0,1-.28.14,3.28,3.28,0,0,1-.58.19,6.76,6.76,0,0,1-.8.15,6,6,0,0,1-1,.07,5.34,5.34,0,0,1-1.63-.23A3,3,0,0,1,61.08,96a2.83,2.83,0,0,1-.69-1.2,5.41,5.41,0,0,1-.24-1.7,5.49,5.49,0,0,1,.25-1.68,3.43,3.43,0,0,1,.7-1.26,3.11,3.11,0,0,1,1.12-.8,3.92,3.92,0,0,1,1.49-.27,4,4,0,0,1,1.5.26,2.67,2.67,0,0,1,1,.71,2.81,2.81,0,0,1,.59,1.09A4.5,4.5,0,0,1,67,92.51Zm-1.91-.57a2,2,0,0,0-.33-1.3,1.3,1.3,0,0,0-1.1-.47,1.45,1.45,0,0,0-.65.14,1.42,1.42,0,0,0-.46.38,1.73,1.73,0,0,0-.28.56,3.11,3.11,0,0,0-.12.69Z"/><path d="M75,96.51a.21.21,0,0,1,0,.14.49.49,0,0,1-.16.1,1.42,1.42,0,0,1-.3.06l-.47,0-.48,0a1.7,1.7,0,0,1-.31-.06.36.36,0,0,1-.15-.1.22.22,0,0,1-.05-.14v-4a3.37,3.37,0,0,0-.07-.8,1.38,1.38,0,0,0-.22-.49,1,1,0,0,0-.36-.33,1.21,1.21,0,0,0-.52-.11,1.33,1.33,0,0,0-.76.27,4.62,4.62,0,0,0-.8.8v4.63a.21.21,0,0,1,0,.14.4.4,0,0,1-.16.1,1.76,1.76,0,0,1-.3.06l-.48,0-.48,0a1.76,1.76,0,0,1-.3-.06.4.4,0,0,1-.16-.1.21.21,0,0,1,0-.14v-7a.21.21,0,0,1,0-.14.27.27,0,0,1,.14-.1l.26-.06.4,0,.41,0,.26.06a.34.34,0,0,1,.13.1.29.29,0,0,1,0,.14v.8a4.28,4.28,0,0,1,1.17-.94,2.66,2.66,0,0,1,1.25-.31,2.89,2.89,0,0,1,1.2.23,2.17,2.17,0,0,1,.79.64,2.61,2.61,0,0,1,.43.94,5.43,5.43,0,0,1,.13,1.3Z"/><path d="M83,92.83a.75.75,0,0,1-.16.53.59.59,0,0,1-.44.17H78.16a2.9,2.9,0,0,0,.1.81,1.5,1.5,0,0,0,.34.62,1.44,1.44,0,0,0,.59.38,2.48,2.48,0,0,0,.87.14A4.81,4.81,0,0,0,81,95.4a6.06,6.06,0,0,0,.67-.16l.48-.17a.79.79,0,0,1,.3-.07.21.21,0,0,1,.12,0,.18.18,0,0,1,.08.09.88.88,0,0,1,0,.2,3.22,3.22,0,0,1,0,.33,2.53,2.53,0,0,1,0,.29,1.25,1.25,0,0,1,0,.21.58.58,0,0,1,0,.14.42.42,0,0,1-.08.12,1,1,0,0,1-.28.14,3.44,3.44,0,0,1-.57.19,7.38,7.38,0,0,1-.81.15,5.9,5.9,0,0,1-1,.07,5.34,5.34,0,0,1-1.63-.23A2.93,2.93,0,0,1,77.09,96a2.75,2.75,0,0,1-.7-1.2,5.42,5.42,0,0,1-.23-1.7,5.5,5.5,0,0,1,.24-1.68,3.43,3.43,0,0,1,.7-1.26,3.11,3.11,0,0,1,1.12-.8,3.92,3.92,0,0,1,1.49-.27,4,4,0,0,1,1.5.26,2.79,2.79,0,0,1,1,.71,2.93,2.93,0,0,1,.58,1.09A4.5,4.5,0,0,1,83,92.51Zm-1.91-.57a2,2,0,0,0-.33-1.3,1.3,1.3,0,0,0-1.1-.47,1.48,1.48,0,0,0-.65.14,1.42,1.42,0,0,0-.46.38,1.73,1.73,0,0,0-.28.56,2.62,2.62,0,0,0-.11.69Z"/><path d="M91.07,96.51a.22.22,0,0,1,0,.14.36.36,0,0,1-.15.1,1.76,1.76,0,0,1-.3.06l-.48,0-.48,0a1.57,1.57,0,0,1-.3-.06.36.36,0,0,1-.15-.1.17.17,0,0,1,0-.14V90.87H86.52v5.64a.21.21,0,0,1,0,.14.49.49,0,0,1-.16.1,1.42,1.42,0,0,1-.3.06l-.48,0-.47,0a1.7,1.7,0,0,1-.31-.06.4.4,0,0,1-.16-.1.29.29,0,0,1,0-.14V90.87h-.87a.25.25,0,0,1-.23-.18,1.8,1.8,0,0,1-.07-.61c0-.15,0-.28,0-.39a1.11,1.11,0,0,1,0-.24.34.34,0,0,1,.1-.13.2.2,0,0,1,.13,0h.87v-.62a4.63,4.63,0,0,1,.15-1.24,2.25,2.25,0,0,1,.44-.89A1.93,1.93,0,0,1,85.9,86,3.12,3.12,0,0,1,87,85.83h.35l.33,0,.27.07a.46.46,0,0,1,.16.08.36.36,0,0,1,.07.1.46.46,0,0,1,0,.14c0,.06,0,.13,0,.22v.34a2.2,2.2,0,0,1,0,.53c0,.1-.08.15-.17.15h-.1l-.14,0-.19,0h-.28a.67.67,0,0,0-.6.28,1.75,1.75,0,0,0-.19.93v.66h4a.64.64,0,0,1,.44.13.51.51,0,0,1,.15.41Zm.15-9.31a2.17,2.17,0,0,1,0,.49A.77.77,0,0,1,91,88a.64.64,0,0,1-.34.17,2,2,0,0,1-.53,0,2.06,2.06,0,0,1-.54,0,.72.72,0,0,1-.35-.17.6.6,0,0,1-.18-.32,2.17,2.17,0,0,1,0-.49,2,2,0,0,1,0-.47.6.6,0,0,1,.18-.32.65.65,0,0,1,.35-.18,2,2,0,0,1,.54-.06,2,2,0,0,1,.53.06.59.59,0,0,1,.34.18.77.77,0,0,1,.18.32A2,2,0,0,1,91.22,87.2Z"/><path d="M98,95.41c0,.13,0,.24,0,.34s0,.16,0,.23a1.31,1.31,0,0,1,0,.15.64.64,0,0,1-.12.15,1.86,1.86,0,0,1-.32.22,3.66,3.66,0,0,1-.52.23,4.82,4.82,0,0,1-.63.16,3.93,3.93,0,0,1-.69.06,3.73,3.73,0,0,1-1.43-.25,2.58,2.58,0,0,1-1-.74,3.16,3.16,0,0,1-.64-1.19,5.6,5.6,0,0,1-.22-1.61,5.47,5.47,0,0,1,.27-1.81,3.4,3.4,0,0,1,.73-1.26,2.89,2.89,0,0,1,1.11-.74,3.92,3.92,0,0,1,1.4-.24,4.21,4.21,0,0,1,.62,0,4.58,4.58,0,0,1,.56.15,2.9,2.9,0,0,1,.47.21,1.69,1.69,0,0,1,.29.21.47.47,0,0,1,.12.14l.06.15c0,.06,0,.14,0,.23a3.22,3.22,0,0,1,0,.33,1.82,1.82,0,0,1-.08.64c0,.12-.12.19-.2.19a.5.5,0,0,1-.28-.11,4.37,4.37,0,0,0-.36-.25,2.68,2.68,0,0,0-.48-.24,1.92,1.92,0,0,0-.67-.11,1.34,1.34,0,0,0-1.17.59A3.07,3.07,0,0,0,94.32,93a4.14,4.14,0,0,0,.1,1,2.17,2.17,0,0,0,.3.72,1.31,1.31,0,0,0,.5.44,1.71,1.71,0,0,0,.7.14,1.83,1.83,0,0,0,.7-.12,2.43,2.43,0,0,0,.51-.27l.37-.27a.43.43,0,0,1,.25-.12.16.16,0,0,1,.12,0,.3.3,0,0,1,.07.14A1.56,1.56,0,0,1,98,95,2.62,2.62,0,0,1,98,95.41Z"/><path d="M101.22,87.19A1.12,1.12,0,0,1,101,88a2,2,0,0,1-1.8,0,1.05,1.05,0,0,1-.23-.78,1.14,1.14,0,0,1,.24-.83,1.34,1.34,0,0,1,.9-.23,1.35,1.35,0,0,1,.89.22A1.08,1.08,0,0,1,101.22,87.19Zm-.15,9.32a.22.22,0,0,1,0,.14.34.34,0,0,1-.16.1,1.42,1.42,0,0,1-.3.06l-.47,0-.48,0a1.42,1.42,0,0,1-.3-.06.34.34,0,0,1-.16-.1.22.22,0,0,1-.05-.14v-7a.24.24,0,0,1,.05-.14.44.44,0,0,1,.16-.1,1,1,0,0,1,.3-.06,3,3,0,0,1,.48,0,3,3,0,0,1,.47,0,1,1,0,0,1,.3.06.44.44,0,0,1,.16.1.24.24,0,0,1,0,.14Z"/><path d="M109.76,93a5.15,5.15,0,0,1-.24,1.62,3.22,3.22,0,0,1-.71,1.27,3.09,3.09,0,0,1-1.19.82,4.54,4.54,0,0,1-1.68.29,4.66,4.66,0,0,1-1.62-.26,2.84,2.84,0,0,1-1.14-.75,3,3,0,0,1-.67-1.21,5.47,5.47,0,0,1-.22-1.64,5.26,5.26,0,0,1,.24-1.63,3.53,3.53,0,0,1,.71-1.26,3.13,3.13,0,0,1,1.19-.82,4.54,4.54,0,0,1,1.68-.29,4.88,4.88,0,0,1,1.62.25,2.84,2.84,0,0,1,1.14.75,3.16,3.16,0,0,1,.67,1.21A5.89,5.89,0,0,1,109.76,93Zm-2,.08a4.68,4.68,0,0,0-.08-1,2.21,2.21,0,0,0-.27-.76,1.46,1.46,0,0,0-.52-.5,1.81,1.81,0,0,0-.82-.17,1.71,1.71,0,0,0-.77.16,1.4,1.4,0,0,0-.54.46,2.32,2.32,0,0,0-.31.75,4.2,4.2,0,0,0-.11,1,4.65,4.65,0,0,0,.09.95,2.45,2.45,0,0,0,.28.76,1.23,1.23,0,0,0,.52.49,1.62,1.62,0,0,0,.81.18,1.71,1.71,0,0,0,.77-.16,1.36,1.36,0,0,0,.54-.47,1.94,1.94,0,0,0,.31-.73A4.25,4.25,0,0,0,107.73,93Z"/><path d="M115.9,94.55a2.31,2.31,0,0,1-.22,1,2,2,0,0,1-.63.76,2.85,2.85,0,0,1-1,.46,4.61,4.61,0,0,1-1.21.15,4.44,4.44,0,0,1-.74-.06,4.66,4.66,0,0,1-.64-.15,3.91,3.91,0,0,1-.47-.18,1,1,0,0,1-.27-.18.49.49,0,0,1-.13-.25,1.78,1.78,0,0,1,0-.52c0-.15,0-.28,0-.37s0-.16,0-.22a.24.24,0,0,1,.08-.11l.12,0a.55.55,0,0,1,.25.1l.42.21a4.73,4.73,0,0,0,.58.22,2.48,2.48,0,0,0,.75.1,2.28,2.28,0,0,0,.48,0,1.19,1.19,0,0,0,.36-.16.64.64,0,0,0,.23-.26.8.8,0,0,0,.08-.36.59.59,0,0,0-.15-.4,1.27,1.27,0,0,0-.38-.29,4.58,4.58,0,0,0-.54-.24l-.62-.24c-.21-.09-.41-.19-.62-.3a2.22,2.22,0,0,1-.53-.43,1.83,1.83,0,0,1-.39-.6,2.3,2.3,0,0,1-.14-.84,2.17,2.17,0,0,1,.19-.92,1.87,1.87,0,0,1,.57-.71,2.6,2.6,0,0,1,.89-.47,4.32,4.32,0,0,1,1.18-.16,4.37,4.37,0,0,1,.64.05c.21,0,.39.07.56.11a2.18,2.18,0,0,1,.42.16,1,1,0,0,1,.25.14.47.47,0,0,1,.1.11.53.53,0,0,1,0,.15c0,.05,0,.12,0,.2a2.63,2.63,0,0,1,0,.3,3.23,3.23,0,0,1,0,.34.87.87,0,0,1,0,.21.16.16,0,0,1-.08.11.18.18,0,0,1-.11,0,.47.47,0,0,1-.21-.09l-.38-.17c-.14-.06-.32-.12-.51-.18a2.73,2.73,0,0,0-.67-.08,1.56,1.56,0,0,0-.46.06.73.73,0,0,0-.32.15.65.65,0,0,0-.25.53.58.58,0,0,0,.15.41,1.32,1.32,0,0,0,.39.29,4.15,4.15,0,0,0,.55.23l.62.24c.22.09.42.19.63.3a2.58,2.58,0,0,1,.55.42,2,2,0,0,1,.54,1.43Z"/><path d="M119.37,95.66a1.36,1.36,0,0,1-.26,1,1.25,1.25,0,0,1-.91.25.95.95,0,0,1-1.15-1.18,1.38,1.38,0,0,1,.25-1,1.81,1.81,0,0,1,1.82,0A1.34,1.34,0,0,1,119.37,95.66Z"/></g></g></svg>