<svg xmlns="http://www.w3.org/2000/svg" viewBox="0 0 173.22 111.97"><defs><style>.cls-1{opacity:0.3;}.cls-2{fill:#fff;}.cls-3{fill:#96989b;}.cls-4{fill:#231f20;}.cls-5{stroke:#000;stroke-miterlimit:10;stroke-width:0.24px;}</style></defs><g id="Capa_2" data-name="Capa 2"><g id="Capa_1-2" data-name="Capa 1"><path class="cls-1" d="M3.88,15.4c7.56-10.34,25.2-6.69,38.68-6.71,2.42,0,4.89-.13,7.41-.22,17.66-.69,37.52-2.34,53.9-1.13a96.21,96.21,0,0,1,11,1.4c32.51,10,21,45.51,19.09,64.22,4.87,5.43,14.28,12.17,31.6,13.76,0,0-17.41,1.25-30.89,5.18-.61,7-3.69,13.41-15.32,17.85a41.05,41.05,0,0,1-9.27,1c-3.43.11-6.78.11-10.08.07s-6.56-.16-9.81-.27a250.35,250.35,0,0,0-29,0c-2.42.1-4.83.21-7.25.3-16-.38-37.62,5.82-46.44-7.26C-3.7,87.75,3.52,68.48.85,50.85.58,48.91.32,47,.16,45.08-.32,39.38.1,20.26,3.88,15.4Z"/><path class="cls-2" d="M8.94,9.31C16.5-1,34.15,2.62,47.63,2.6c2.41,0,4.89-.12,7.41-.22C72.69,1.7,92.56,0,108.93,1.25a94.43,94.43,0,0,1,11,1.41c28.54,8.75,23.12,40.33,20.1,57.25-.89,5,1.48,10,6.19,13,5.49,3.54,13.33,6.66,24.4,7.67a195,195,0,0,0-24.42,3.55,9.55,9.55,0,0,0-7.32,6.21c-1.57,5.17-5.45,9.83-14.47,13.27a40.55,40.55,0,0,1-9.27,1c-3.44.11-6.78.12-10.08.07s-6.56-.15-9.82-.27a250.19,250.19,0,0,0-29,0l-7.25.29c-16-.37-37.63,5.82-46.45-7.25C1.36,81.66,8.58,62.4,5.92,44.77c-.27-1.94-.53-3.87-.69-5.77C4.74,33.29,5.16,14.18,8.94,9.31Z"/><path class="cls-3" d="M140.5,65.75A12.36,12.36,0,0,1,137.06,55c1.73-9.74,4.25-33.46.64-41.93,7.68,9.31,4.45,35.16,2.36,46.87A11.9,11.9,0,0,0,140.5,65.75Z"/><path class="cls-3" d="M56,99.81c2.42-.09,4.83-.2,7.25-.3a250.35,250.35,0,0,1,29,0c3.25.11,6.51.21,9.81.26s6.65.05,10.08-.06a41,41,0,0,0,9.27-1c9-3.44,12.91-8.09,14.47-13.26a9.56,9.56,0,0,1,7.32-6.22c3.95-.87,7.93-1.55,11.52-2.07a61.76,61.76,0,0,0,15.91,3.46,195,195,0,0,0-24.42,3.55,9.55,9.55,0,0,0-7.32,6.21c-1.57,5.17-5.45,9.83-14.47,13.27a40.55,40.55,0,0,1-9.27,1c-3.44.11-6.78.12-10.08.07s-6.56-.15-9.82-.27a250.19,250.19,0,0,0-29,0l-7.25.29c-16-.37-37.63,5.82-46.45-7.25A32.19,32.19,0,0,1,9.94,93C19,105.46,40.26,99.44,56,99.81Z"/><path class="cls-4" d="M11.77,97.92C4.31,87.4,4.84,75.29,5.34,63.58,5.61,57.38,5.89,51,5,44.87c-.28-2-.54-3.92-.7-5.81C3.83,33.9,4,14.26,8.14,8.87,14.46.24,27.51.9,39,1.49c3,.15,5.88.29,8.58.29,2.24,0,4.66-.12,7.39-.22,4.26-.17,8.75-.39,13.09-.61C82.07.24,96.53-.49,109,.43a97.44,97.44,0,0,1,11.16,1.42l.11,0c27.46,8.42,24.34,38.75,21.33,54.89-.2,1.09-.41,2.18-.6,3.26-.84,4.72,1.39,9.42,5.82,12.27,6.38,4.12,12.5,6.44,22,7.31l4.4.5c-.13,0-14.78,2.59-26.55,5.19-3.26.72-6,2.55-6.83,5.3-1.89,6.24-6.66,10.62-15,13.81l-.15,0a42.22,42.22,0,0,1-9.48,1c-3.14.1-6.45.13-10.13.07-3.4,0-6.72-.16-9.88-.27-9.28-.69-18.55-.39-28.85,0l-1.56.06-5.77.24c-4-.1-8.21.21-12.72.54-4.07.3-8.18.6-12.13.6C24.93,106.71,16.6,105.07,11.77,97.92Zm47.22,6,5.7-.23,1.55-.06c10.37-.44,19.72-.74,29.07,0,3.1.11,6.42.22,9.79.27,3.65,0,6.93,0,10.08-.07a39.69,39.69,0,0,0,8.94-.91c7.73-3,12.13-7,13.86-12.69a10.47,10.47,0,0,1,8-6.81c6.39-1.41,13-2.33,17.69-2.89a50.18,50.18,0,0,1-18-6.87c-5-3.22-7.51-8.52-6.57-13.84.2-1.09.4-2.18.61-3.27,3-16.18,5.86-45.1-20-53.06a94.94,94.94,0,0,0-10.84-1.38c-12.35-.91-26.73-.18-40.64.52-4.35.22-8.85.45-13.13.61-2.74.11-5.17.18-7.45.23-2.78,0-5.67-.15-8.72-.3C27.39,2.54,15.47,1.94,9.76,9.75l0,0c-3.87,5-4,24.29-3.56,29.17.16,1.85.42,3.77.69,5.72.94,6.22.66,12.71.39,19-.52,12-1,23.33,6.16,33.44,6.3,9.33,19.73,8.35,32.71,7.4,4-.3,7.79-.58,11.35-.58Z"/><path class="cls-5" d="M27,36.41a5.73,5.73,0,0,1-.23,1.68,3.35,3.35,0,0,1-.7,1.26,2.92,2.92,0,0,1-1.15.79,4,4,0,0,1-1.57.28,4.82,4.82,0,0,1-1.55-.23,2.72,2.72,0,0,1-1.09-.71,3,3,0,0,1-.66-1.21,5.87,5.87,0,0,1-.22-1.73,5.62,5.62,0,0,1,.23-1.65,3.39,3.39,0,0,1,.7-1.25,3.07,3.07,0,0,1,1.14-.79,4.34,4.34,0,0,1,1.59-.28A4.71,4.71,0,0,1,25,32.8a2.74,2.74,0,0,1,1.1.7,3.16,3.16,0,0,1,.66,1.2A5.75,5.75,0,0,1,27,36.41Zm-1.62.08a6.08,6.08,0,0,0-.09-1.09,2.28,2.28,0,0,0-.32-.83,1.49,1.49,0,0,0-.6-.54,2,2,0,0,0-.93-.19,1.94,1.94,0,0,0-.95.21,1.7,1.7,0,0,0-.62.57,2.63,2.63,0,0,0-.33.84,5.34,5.34,0,0,0-.09,1,6.23,6.23,0,0,0,.09,1.11,2.59,2.59,0,0,0,.31.85,1.47,1.47,0,0,0,.6.53,2,2,0,0,0,.94.19,1.94,1.94,0,0,0,.95-.21,1.73,1.73,0,0,0,.62-.58,2.63,2.63,0,0,0,.33-.84A5.64,5.64,0,0,0,25.4,36.49Z"/><path class="cls-5" d="M33.08,40.09a.17.17,0,0,1,0,.1.35.35,0,0,1-.12.07l-.23,0-.38,0h-.39l-.25,0a.36.36,0,0,1-.15-.08l-.09-.12L29.7,37.32v2.76a.2.2,0,0,1,0,.11.35.35,0,0,1-.12.07l-.23,0-.36,0-.35,0-.23,0a.22.22,0,0,1-.12-.07.21.21,0,0,1,0-.11V32.39a.21.21,0,0,1,0-.11.23.23,0,0,1,.12-.08,1,1,0,0,1,.23-.05h.71l.23.05a.36.36,0,0,1,.12.08.2.2,0,0,1,0,.11V37l1.55-2.08a.4.4,0,0,1,.1-.12.34.34,0,0,1,.16-.08,1.11,1.11,0,0,1,.24,0h.73a1.11,1.11,0,0,1,.24,0,.22.22,0,0,1,.12.07.15.15,0,0,1,0,.11.49.49,0,0,1-.05.19,1.35,1.35,0,0,1-.13.21L31.18,37l1.76,2.73c.05.08.08.15.11.2A.5.5,0,0,1,33.08,40.09Z"/><path class="cls-5" d="M35.71,39.21c0,.15,0,.29,0,.42a1.9,1.9,0,0,1-.08.36,2.26,2.26,0,0,1-.13.33,3,3,0,0,1-.21.33l-.78,1.13a.76.76,0,0,1-.09.09l-.12.07-.17,0h-.53a.37.37,0,0,1-.15,0s0,0,0-.07a.26.26,0,0,1,0-.11l.71-1.62v-.92a1,1,0,0,1,.05-.33.37.37,0,0,1,.14-.18.62.62,0,0,1,.25-.09l.37,0,.35,0a.62.62,0,0,1,.25.09.37.37,0,0,1,.14.18A1,1,0,0,1,35.71,39.21Z"/><path class="cls-5" d="M41.26,40.08a.21.21,0,0,1,0,.11.22.22,0,0,1-.12.07l-.23,0-.35,0-.36,0-.23,0a.35.35,0,0,1-.12-.07.2.2,0,0,1,0-.11V32.39a.2.2,0,0,1,0-.11.36.36,0,0,1,.12-.08l.23-.05h.71a1,1,0,0,1,.23.05.23.23,0,0,1,.12.08.21.21,0,0,1,0,.11Z"/><path class="cls-5" d="M47.55,37.32a.58.58,0,0,1-.12.4.45.45,0,0,1-.33.13H43.92a1.9,1.9,0,0,0,.08.6,1.07,1.07,0,0,0,.25.47,1.17,1.17,0,0,0,.44.29,2.15,2.15,0,0,0,.66.09,3.56,3.56,0,0,0,.68,0l.5-.12.36-.13a.74.74,0,0,1,.22,0s.07,0,.09,0a.22.22,0,0,1,.06.07.33.33,0,0,1,0,.15,1.77,1.77,0,0,1,0,.24v.22c0,.06,0,.12,0,.16a.36.36,0,0,1,0,.11.21.21,0,0,1-.06.08.46.46,0,0,1-.21.11,2.17,2.17,0,0,1-.43.14c-.18,0-.38.08-.6.12a5.58,5.58,0,0,1-.73.05A3.78,3.78,0,0,1,44,40.24a2.13,2.13,0,0,1-.87-.53,2.24,2.24,0,0,1-.53-.9,4.46,4.46,0,0,1-.17-1.28,4.06,4.06,0,0,1,.18-1.25,2.58,2.58,0,0,1,.53-1,2.31,2.31,0,0,1,.84-.6,3,3,0,0,1,1.11-.2,2.88,2.88,0,0,1,1.12.19,2.06,2.06,0,0,1,.77.54,2.27,2.27,0,0,1,.44.81,3.64,3.64,0,0,1,.14,1Zm-1.43-.42a1.49,1.49,0,0,0-.25-1,1,1,0,0,0-.82-.36,1.07,1.07,0,0,0-.49.11,1,1,0,0,0-.35.28,1.38,1.38,0,0,0-.21.42,2.17,2.17,0,0,0-.08.52Z"/><path class="cls-5" d="M52.43,38.61a1.73,1.73,0,0,1-.16.78,1.53,1.53,0,0,1-.47.57,2.17,2.17,0,0,1-.72.34,3.33,3.33,0,0,1-1.46.07,2.84,2.84,0,0,1-.48-.11,1.69,1.69,0,0,1-.35-.14.76.76,0,0,1-.21-.13.48.48,0,0,1-.1-.19,1.92,1.92,0,0,1,0-.39,2.1,2.1,0,0,1,0-.27c0-.07,0-.12,0-.17a.28.28,0,0,1,.06-.08l.09,0a.45.45,0,0,1,.19.08l.31.16c.13,0,.27.11.44.16a2,2,0,0,0,.57.08,1.23,1.23,0,0,0,.35-.05.81.81,0,0,0,.27-.11.47.47,0,0,0,.17-.2.53.53,0,0,0,.06-.26.49.49,0,0,0-.11-.31,1.16,1.16,0,0,0-.29-.22,2.53,2.53,0,0,0-.4-.17l-.46-.18a4,4,0,0,1-.46-.23,1.81,1.81,0,0,1-.41-.32,1.28,1.28,0,0,1-.28-.45,1.48,1.48,0,0,1-.11-.63,1.74,1.74,0,0,1,.14-.69,1.46,1.46,0,0,1,.43-.53,1.85,1.85,0,0,1,.67-.35,3,3,0,0,1,.88-.12,3.64,3.64,0,0,1,.48,0l.42.09a1.55,1.55,0,0,1,.31.12l.19.1a.32.32,0,0,1,.08.09l0,.1a.78.78,0,0,1,0,.16,1.41,1.41,0,0,1,0,.22,1.93,1.93,0,0,1,0,.26.35.35,0,0,1,0,.16.16.16,0,0,1-.05.08L52,36a.43.43,0,0,1-.17-.06,1.45,1.45,0,0,0-.28-.14l-.38-.13a2,2,0,0,0-.5-.06,1.2,1.2,0,0,0-.35,0,.67.67,0,0,0-.24.12.49.49,0,0,0-.14.18.54.54,0,0,0,0,.22.41.41,0,0,0,.12.3,1,1,0,0,0,.29.22,3.17,3.17,0,0,0,.41.17l.47.18a5.08,5.08,0,0,1,.47.23,1.77,1.77,0,0,1,.41.31,1.51,1.51,0,0,1,.29.45A1.46,1.46,0,0,1,52.43,38.61Z"/><path class="cls-5" d="M59.34,39.57a1.92,1.92,0,0,1,0,.39.37.37,0,0,1-.09.2.48.48,0,0,1-.15.1l-.24.07-.3.05-.32,0a2.51,2.51,0,0,1-.77-.11,1.38,1.38,0,0,1-.53-.34,1.51,1.51,0,0,1-.31-.59,3.31,3.31,0,0,1-.1-.83V35.86h-.62c-.08,0-.13,0-.17-.14a1.23,1.23,0,0,1-.06-.46,2.53,2.53,0,0,1,0-.29.65.65,0,0,1,.05-.18.2.2,0,0,1,.07-.1.17.17,0,0,1,.1,0h.62V33.5a.2.2,0,0,1,0-.11l.12-.08.23,0,.35,0,.36,0,.23,0,.12.08a.2.2,0,0,1,0,.11v1.16h1.14a.17.17,0,0,1,.1,0,.2.2,0,0,1,.07.1.65.65,0,0,1,0,.18,2.53,2.53,0,0,1,0,.29,1.23,1.23,0,0,1-.06.46c0,.09-.09.14-.17.14H58v2.45a1.22,1.22,0,0,0,.14.64.53.53,0,0,0,.48.21.75.75,0,0,0,.21,0l.16,0,.13-.05.09,0,.06,0s0,0,0,.08a.61.61,0,0,1,0,.17A2.1,2.1,0,0,1,59.34,39.57Z"/><path class="cls-5" d="M65.08,37.32a.58.58,0,0,1-.12.4.45.45,0,0,1-.33.13H61.45a2.23,2.23,0,0,0,.08.6,1.32,1.32,0,0,0,.25.47,1.29,1.29,0,0,0,.45.29,2.08,2.08,0,0,0,.65.09,3.43,3.43,0,0,0,.68,0l.51-.12.35-.13a.8.8,0,0,1,.23,0,.15.15,0,0,1,.09,0,.22.22,0,0,1,.06.07s0,.09,0,.15,0,.15,0,.24,0,.16,0,.22a.7.7,0,0,1,0,.16l0,.11-.06.08a.63.63,0,0,1-.21.11,2.41,2.41,0,0,1-.43.14c-.18,0-.38.08-.61.12a5.43,5.43,0,0,1-.72.05,3.73,3.73,0,0,1-1.22-.18,2.07,2.07,0,0,1-1.4-1.43A4.13,4.13,0,0,1,60,37.53a3.78,3.78,0,0,1,.18-1.25,2.56,2.56,0,0,1,.52-1,2.31,2.31,0,0,1,.84-.6,3,3,0,0,1,1.12-.2,2.92,2.92,0,0,1,1.12.19,2,2,0,0,1,.76.54,2.13,2.13,0,0,1,.44.81,3.31,3.31,0,0,1,.14,1Zm-1.43-.42a1.49,1.49,0,0,0-.24-1,1,1,0,0,0-.83-.36,1.1,1.1,0,0,0-.49.11,1,1,0,0,0-.34.28,1.38,1.38,0,0,0-.21.42,2.18,2.18,0,0,0-.09.52Z"/><path class="cls-5" d="M71.28,40.08a.2.2,0,0,1,0,.11.35.35,0,0,1-.12.07l-.23,0-.35,0-.36,0-.23,0a.23.23,0,0,1-.11-.07.15.15,0,0,1,0-.11v-3a2.94,2.94,0,0,0,0-.59,1.15,1.15,0,0,0-.16-.37.71.71,0,0,0-.28-.24.8.8,0,0,0-.39-.09,1,1,0,0,0-.56.21,2.55,2.55,0,0,0-.6.59v3.47a.15.15,0,0,1,0,.11.22.22,0,0,1-.12.07,1,1,0,0,1-.22,0l-.36,0-.36,0-.22,0a.22.22,0,0,1-.12-.07.15.15,0,0,1,0-.11V34.86a.17.17,0,0,1,0-.1.23.23,0,0,1,.11-.07.74.74,0,0,1,.19,0h.62a.74.74,0,0,1,.19,0,.22.22,0,0,1,.09.07.17.17,0,0,1,0,.1v.61a3.27,3.27,0,0,1,.88-.71,2.07,2.07,0,0,1,.94-.23,2.14,2.14,0,0,1,.89.17,1.6,1.6,0,0,1,.6.48,2,2,0,0,1,.32.71,3.91,3.91,0,0,1,.1,1Z"/><path class="cls-5" d="M77.43,35.23a1.07,1.07,0,0,1-.06.41c-.05.09-.1.14-.16.14H76.6a1,1,0,0,1,.18.31,1.21,1.21,0,0,1,.06.38,2.09,2.09,0,0,1-.16.81,1.58,1.58,0,0,1-.43.59,1.77,1.77,0,0,1-.69.37,2.77,2.77,0,0,1-.89.13,1.86,1.86,0,0,1-.48-.06,1,1,0,0,1-.35-.15.83.83,0,0,0-.13.18.64.64,0,0,0,0,.24.35.35,0,0,0,.15.28.8.8,0,0,0,.41.12l1.27,0a3.61,3.61,0,0,1,.8.13,1.59,1.59,0,0,1,.58.3,1.44,1.44,0,0,1,.37.48,1.52,1.52,0,0,1,.12.62,1.66,1.66,0,0,1-.17.73,1.51,1.51,0,0,1-.51.59,2.4,2.4,0,0,1-.85.4,4.28,4.28,0,0,1-1.2.15,5.2,5.2,0,0,1-1.13-.11,2.36,2.36,0,0,1-.78-.29,1.18,1.18,0,0,1-.44-.45,1.2,1.2,0,0,1-.13-.57,1.14,1.14,0,0,1,0-.37,1.36,1.36,0,0,1,.14-.33,2.34,2.34,0,0,1,.24-.31,2.21,2.21,0,0,1,.32-.28.93.93,0,0,1-.39-.37,1,1,0,0,1-.13-.5,1.33,1.33,0,0,1,.15-.63,2,2,0,0,1,.41-.51,2,2,0,0,1-.33-.5,1.85,1.85,0,0,1-.12-.71,2.14,2.14,0,0,1,.16-.82,1.83,1.83,0,0,1,.45-.61,2.09,2.09,0,0,1,.69-.38,2.94,2.94,0,0,1,.87-.13,3.75,3.75,0,0,1,.48,0l.41.08h1.66c.07,0,.12.05.16.13A1.15,1.15,0,0,1,77.43,35.23Zm-1.54,5.4a.47.47,0,0,0-.21-.41,1.18,1.18,0,0,0-.58-.15l-1,0a1.79,1.79,0,0,0-.24.22,1.25,1.25,0,0,0-.15.19.45.45,0,0,0-.07.18.58.58,0,0,0,0,.19.48.48,0,0,0,.29.44,1.91,1.91,0,0,0,.84.15,1.82,1.82,0,0,0,.56-.07,1.06,1.06,0,0,0,.37-.17.76.76,0,0,0,.2-.25A.72.72,0,0,0,75.89,40.63Zm-.35-4.17a.8.8,0,0,0-.89-.89.86.86,0,0,0-.38.07.75.75,0,0,0-.44.5,1.27,1.27,0,0,0,0,.34.85.85,0,0,0,.23.63.88.88,0,0,0,.65.23.94.94,0,0,0,.39-.07.66.66,0,0,0,.27-.19,1,1,0,0,0,.17-.28A1.27,1.27,0,0,0,75.54,36.46Z"/><path class="cls-5" d="M83.57,37.42a4.28,4.28,0,0,1-.17,1.22,2.7,2.7,0,0,1-.54,1,2.28,2.28,0,0,1-.89.61,3.46,3.46,0,0,1-1.26.22,3.41,3.41,0,0,1-1.21-.2,2.14,2.14,0,0,1-.86-.56,2.36,2.36,0,0,1-.5-.91A4.1,4.1,0,0,1,78,37.53a4.18,4.18,0,0,1,.17-1.22,2.54,2.54,0,0,1,.54-1,2.32,2.32,0,0,1,.89-.61,3.26,3.26,0,0,1,1.26-.22,3.47,3.47,0,0,1,1.22.19,2.18,2.18,0,0,1,.85.56,2.36,2.36,0,0,1,.5.91A4.17,4.17,0,0,1,83.57,37.42Zm-1.51.06a3.11,3.11,0,0,0-.07-.71,1.82,1.82,0,0,0-.2-.57,1.06,1.06,0,0,0-.39-.37,1.25,1.25,0,0,0-.61-.14,1.34,1.34,0,0,0-.58.12,1,1,0,0,0-.4.35,1.58,1.58,0,0,0-.24.56,3.29,3.29,0,0,0-.08.74,3.11,3.11,0,0,0,.07.71,1.82,1.82,0,0,0,.2.57,1.06,1.06,0,0,0,.39.37,1.28,1.28,0,0,0,.61.13,1.31,1.31,0,0,0,.58-.12,1.07,1.07,0,0,0,.41-.35,1.63,1.63,0,0,0,.23-.55A3.29,3.29,0,0,0,82.06,37.48Z"/><path class="cls-5" d="M92,38a2.32,2.32,0,0,1-.22,1.05,2.21,2.21,0,0,1-.6.75,2.67,2.67,0,0,1-.89.45,3.5,3.5,0,0,1-1.09.16,3.41,3.41,0,0,1-.73-.07,3.89,3.89,0,0,1-.59-.15,3,3,0,0,1-.43-.19,1.25,1.25,0,0,1-.25-.18.42.42,0,0,1-.11-.22,2.07,2.07,0,0,1,0-.41,2.63,2.63,0,0,1,0-.3.77.77,0,0,1,0-.2.23.23,0,0,1,.07-.11.17.17,0,0,1,.1,0,.52.52,0,0,1,.23.09,3.19,3.19,0,0,0,.39.22,3.75,3.75,0,0,0,.55.21,2.86,2.86,0,0,0,.76.1,2,2,0,0,0,.5-.07,1.35,1.35,0,0,0,.38-.19.72.72,0,0,0,.23-.31.87.87,0,0,0,.09-.4.72.72,0,0,0-.14-.44,1.71,1.71,0,0,0-.37-.33,4,4,0,0,0-.51-.27l-.59-.26c-.21-.1-.4-.2-.6-.32a2.64,2.64,0,0,1-.51-.43,2,2,0,0,1-.36-.59,2,2,0,0,1-.14-.81,2.09,2.09,0,0,1,.2-1,1.9,1.9,0,0,1,.54-.68,2.21,2.21,0,0,1,.81-.41,3.53,3.53,0,0,1,1-.14,4.9,4.9,0,0,1,.54,0,3.66,3.66,0,0,1,.5.12,3.22,3.22,0,0,1,.41.15.7.7,0,0,1,.24.15.31.31,0,0,1,.08.1.28.28,0,0,1,0,.11.72.72,0,0,1,0,.17c0,.07,0,.15,0,.25s0,.21,0,.29,0,.14,0,.19a.36.36,0,0,1-.06.11.13.13,0,0,1-.1,0,.51.51,0,0,1-.21-.08,2.63,2.63,0,0,0-.34-.18,3.74,3.74,0,0,0-.48-.18,2.21,2.21,0,0,0-.59-.08,1.2,1.2,0,0,0-.44.07A.78.78,0,0,0,89,34a.55.55,0,0,0-.19.26.83.83,0,0,0-.06.32.69.69,0,0,0,.14.43,1.08,1.08,0,0,0,.37.33,2.81,2.81,0,0,0,.52.27l.6.27a4.83,4.83,0,0,1,.59.32,2.13,2.13,0,0,1,.52.42,1.79,1.79,0,0,1,.37.59A1.92,1.92,0,0,1,92,38Z"/><path class="cls-5" d="M97.56,40.1a.15.15,0,0,1-.06.13.52.52,0,0,1-.18.07l-.37,0-.39,0a.46.46,0,0,1-.17-.07.17.17,0,0,1,0-.13v-.41a2.36,2.36,0,0,1-.73.53,2.14,2.14,0,0,1-.92.2,2.63,2.63,0,0,1-.76-.11,1.73,1.73,0,0,1-.6-.32,1.49,1.49,0,0,1-.4-.53,1.88,1.88,0,0,1-.14-.74,1.65,1.65,0,0,1,.18-.79,1.49,1.49,0,0,1,.53-.56,2.6,2.6,0,0,1,.88-.32,6.31,6.31,0,0,1,1.23-.11h.51v-.32a1.88,1.88,0,0,0-.05-.43.74.74,0,0,0-.17-.3.54.54,0,0,0-.3-.18,1.63,1.63,0,0,0-.47-.06,2.21,2.21,0,0,0-.66.08,2.51,2.51,0,0,0-.51.18l-.38.18a.48.48,0,0,1-.24.08.15.15,0,0,1-.11,0s-.06-.06-.09-.11a.9.9,0,0,1,0-.19,1,1,0,0,1,0-.25,1,1,0,0,1,0-.28.37.37,0,0,1,.11-.19,1,1,0,0,1,.29-.19,3.05,3.05,0,0,1,.47-.19,5,5,0,0,1,.61-.15,4.68,4.68,0,0,1,.67,0,4.1,4.1,0,0,1,1,.12A1.66,1.66,0,0,1,97,35a1.34,1.34,0,0,1,.41.64,2.86,2.86,0,0,1,.13.93Zm-1.44-2.24h-.57a2.74,2.74,0,0,0-.61.06,1,1,0,0,0-.4.16.64.64,0,0,0-.24.25.89.89,0,0,0-.07.34.67.67,0,0,0,.21.52.85.85,0,0,0,.57.19,1.18,1.18,0,0,0,.58-.16,2.45,2.45,0,0,0,.53-.47Z"/><path class="cls-5" d="M107.34,40.08a.21.21,0,0,1,0,.11.22.22,0,0,1-.12.07,1,1,0,0,1-.22,0l-.36,0-.36,0a1,1,0,0,1-.22,0,.22.22,0,0,1-.12-.07.2.2,0,0,1,0-.11V37a2.28,2.28,0,0,0-.05-.48,1.42,1.42,0,0,0-.15-.37.66.66,0,0,0-.26-.24.75.75,0,0,0-.37-.09.88.88,0,0,0-.54.21,3.25,3.25,0,0,0-.58.59v3.47a.15.15,0,0,1,0,.11.22.22,0,0,1-.12.07,1,1,0,0,1-.22,0l-.35,0-.36,0-.23,0a.35.35,0,0,1-.12-.07.2.2,0,0,1,0-.11V37a2.28,2.28,0,0,0,0-.48,1,1,0,0,0-.15-.37.6.6,0,0,0-.26-.24.72.72,0,0,0-.37-.09.83.83,0,0,0-.53.21,3,3,0,0,0-.58.59v3.47a.21.21,0,0,1,0,.11.22.22,0,0,1-.12.07l-.22,0-.36,0-.36,0a1,1,0,0,1-.22,0,.22.22,0,0,1-.12-.07.15.15,0,0,1,0-.11V34.86a.17.17,0,0,1,0-.1.19.19,0,0,1,.11-.07.74.74,0,0,1,.19,0H100a.64.64,0,0,1,.19,0,.2.2,0,0,1,.1.07.17.17,0,0,1,0,.1v.61a3.55,3.55,0,0,1,.86-.71,1.94,1.94,0,0,1,.9-.23,2,2,0,0,1,.58.07,1.59,1.59,0,0,1,.46.19,1.43,1.43,0,0,1,.35.3,1.58,1.58,0,0,1,.24.39,5.9,5.9,0,0,1,.46-.43,2.93,2.93,0,0,1,.45-.3,2.35,2.35,0,0,1,.44-.17,2.12,2.12,0,0,1,.44,0,2.09,2.09,0,0,1,.88.17,1.61,1.61,0,0,1,.58.48,1.83,1.83,0,0,1,.31.71,3.88,3.88,0,0,1,.1.85Z"/><path class="cls-5" d="M114,37.4a4.81,4.81,0,0,1-.15,1.25,2.78,2.78,0,0,1-.44,1,2,2,0,0,1-.71.61,2.21,2.21,0,0,1-1,.21,1.86,1.86,0,0,1-.42-.05,1.82,1.82,0,0,1-.37-.13,2.33,2.33,0,0,1-.35-.23,3.31,3.31,0,0,1-.36-.31v2.46a.14.14,0,0,1,0,.1.23.23,0,0,1-.12.08.9.9,0,0,1-.22,0l-.36,0-.36,0a.9.9,0,0,1-.22,0,.23.23,0,0,1-.12-.08.14.14,0,0,1,0-.1v-7.3a.17.17,0,0,1,0-.1.2.2,0,0,1,.1-.07l.2,0h.59l.2,0a.2.2,0,0,1,.1.07.17.17,0,0,1,0,.1v.62a4.32,4.32,0,0,1,.45-.42,3,3,0,0,1,.44-.29,2.27,2.27,0,0,1,.47-.18,2.24,2.24,0,0,1,.52-.06,2,2,0,0,1,1,.22,1.87,1.87,0,0,1,.66.62,2.85,2.85,0,0,1,.37.91A5,5,0,0,1,114,37.4Zm-1.54.1a3.39,3.39,0,0,0,0-.64,1.86,1.86,0,0,0-.17-.55,1.06,1.06,0,0,0-.31-.38.84.84,0,0,0-.49-.14,1,1,0,0,0-.29,0,1.53,1.53,0,0,0-.29.14,3.29,3.29,0,0,0-.31.26,3.37,3.37,0,0,0-.33.39v1.72a2.88,2.88,0,0,0,.59.61,1,1,0,0,0,.58.21.79.79,0,0,0,.49-.14,1.1,1.1,0,0,0,.33-.38,1.82,1.82,0,0,0,.19-.54A3.05,3.05,0,0,0,112.5,37.5Z"/><path class="cls-5" d="M116.69,40.08a.15.15,0,0,1,0,.11.22.22,0,0,1-.12.07,1,1,0,0,1-.22,0l-.36,0-.35,0-.23,0a.22.22,0,0,1-.12-.07.21.21,0,0,1,0-.11V32.39a.21.21,0,0,1,0-.11.23.23,0,0,1,.12-.08,1,1,0,0,1,.23-.05h.71a.9.9,0,0,1,.22.05.23.23,0,0,1,.12.08.15.15,0,0,1,0,.11Z"/><path class="cls-5" d="M123,37.32a.58.58,0,0,1-.12.4.45.45,0,0,1-.33.13h-3.18a2.23,2.23,0,0,0,.08.6,1.18,1.18,0,0,0,.25.47,1.29,1.29,0,0,0,.45.29,2.08,2.08,0,0,0,.65.09,3.49,3.49,0,0,0,.68,0l.51-.12.35-.13a.8.8,0,0,1,.23,0,.15.15,0,0,1,.09,0,.13.13,0,0,1,0,.07.54.54,0,0,1,0,.15c0,.07,0,.15,0,.24s0,.16,0,.22a.7.7,0,0,1,0,.16l0,.11-.06.08a.63.63,0,0,1-.21.11,2.29,2.29,0,0,1-.44.14,5.76,5.76,0,0,1-.6.12,5.43,5.43,0,0,1-.72.05,3.69,3.69,0,0,1-1.22-.18,2.07,2.07,0,0,1-1.4-1.43,4.12,4.12,0,0,1-.18-1.28,3.77,3.77,0,0,1,.19-1.25,2.56,2.56,0,0,1,.52-1,2.31,2.31,0,0,1,.84-.6,3,3,0,0,1,1.12-.2,2.92,2.92,0,0,1,1.12.19,2,2,0,0,1,.76.54,2.13,2.13,0,0,1,.44.81,3.64,3.64,0,0,1,.14,1Zm-1.43-.42a1.49,1.49,0,0,0-.25-1,.94.94,0,0,0-.82-.36,1.1,1.1,0,0,0-.49.11.93.93,0,0,0-.34.28,1.38,1.38,0,0,0-.21.42,2.18,2.18,0,0,0-.09.52Z"/><path class="cls-5" d="M22.94,52.53a.13.13,0,0,1,0,.1.23.23,0,0,1-.11.07,1,1,0,0,1-.22,0h-.72a1,1,0,0,1-.23,0,.22.22,0,0,1-.12-.07.17.17,0,0,1,0-.1v-3.1a2.28,2.28,0,0,0,0-.48,1,1,0,0,0-.15-.37.74.74,0,0,0-.26-.24.72.72,0,0,0-.37-.09.85.85,0,0,0-.53.21,3.05,3.05,0,0,0-.59.6v3.47a.17.17,0,0,1,0,.1.35.35,0,0,1-.12.07l-.23,0h-.71a.9.9,0,0,1-.22,0,.22.22,0,0,1-.12-.07.13.13,0,0,1,0-.1v-3.1A1.77,1.77,0,0,0,18,49a1,1,0,0,0-.15-.37.64.64,0,0,0-.25-.24.75.75,0,0,0-.37-.09.88.88,0,0,0-.54.21,3,3,0,0,0-.58.6v3.47a.13.13,0,0,1,0,.1.22.22,0,0,1-.12.07.9.9,0,0,1-.22,0H15a1,1,0,0,1-.22,0,.22.22,0,0,1-.12-.07.18.18,0,0,1,0-.1V47.31a.2.2,0,0,1,0-.11.23.23,0,0,1,.11-.07.88.88,0,0,1,.2,0l.3,0,.31,0,.19,0a.22.22,0,0,1,.09.07.2.2,0,0,1,0,.11v.6a3.34,3.34,0,0,1,.87-.7,1.78,1.78,0,0,1,.89-.24,2,2,0,0,1,.58.07,1.48,1.48,0,0,1,.46.19,1.72,1.72,0,0,1,.35.3,1.8,1.8,0,0,1,.25.4,3.74,3.74,0,0,1,.46-.44,2.55,2.55,0,0,1,.44-.29,1.6,1.6,0,0,1,.44-.17,1.74,1.74,0,0,1,.45-.06,1.94,1.94,0,0,1,.88.18,1.46,1.46,0,0,1,.57.47,2.09,2.09,0,0,1,.32.71,3.89,3.89,0,0,1,.09.85Z"/><path class="cls-5" d="M28.83,52.54a.15.15,0,0,1-.06.13.34.34,0,0,1-.18.07l-.37,0-.38,0a.3.3,0,0,1-.17-.07.14.14,0,0,1-.05-.13v-.41a2.43,2.43,0,0,1-.74.54,2.09,2.09,0,0,1-.91.19,2.65,2.65,0,0,1-.77-.11,1.73,1.73,0,0,1-.6-.32,1.52,1.52,0,0,1-.4-.53,1.88,1.88,0,0,1-.14-.74,1.65,1.65,0,0,1,.18-.79,1.57,1.57,0,0,1,.53-.56,2.81,2.81,0,0,1,.89-.32,6.2,6.2,0,0,1,1.22-.11h.51v-.31a1.75,1.75,0,0,0-.05-.43.71.71,0,0,0-.17-.31.64.64,0,0,0-.3-.18,1.58,1.58,0,0,0-.47-.06,2.59,2.59,0,0,0-.66.08l-.51.18-.37.18a.51.51,0,0,1-.25.09.21.21,0,0,1-.11,0,.36.36,0,0,1-.08-.12.74.74,0,0,1-.05-.19,1.79,1.79,0,0,1,0-.24,1.07,1.07,0,0,1,0-.29.45.45,0,0,1,.11-.19,1.11,1.11,0,0,1,.29-.19,2.82,2.82,0,0,1,.48-.19,3.31,3.31,0,0,1,.6-.14,3.63,3.63,0,0,1,.67-.06,4,4,0,0,1,1,.12,1.76,1.76,0,0,1,.72.37,1.46,1.46,0,0,1,.4.64,2.86,2.86,0,0,1,.13.93Zm-1.44-2.23h-.56a3.49,3.49,0,0,0-.61,0,1.21,1.21,0,0,0-.41.16.61.61,0,0,0-.23.25.78.78,0,0,0-.08.35.65.65,0,0,0,.21.51.81.81,0,0,0,.58.19,1.07,1.07,0,0,0,.57-.16,2.67,2.67,0,0,0,.53-.46Z"/><path class="cls-5" d="M35.29,52.53a.17.17,0,0,1,0,.1.35.35,0,0,1-.12.07,1,1,0,0,1-.23,0H34.2a1,1,0,0,1-.23,0,.23.23,0,0,1-.11-.07.13.13,0,0,1,0-.1v-3a2.3,2.3,0,0,0-.06-.6.89.89,0,0,0-.16-.37.69.69,0,0,0-.27-.24.8.8,0,0,0-.39-.09,1,1,0,0,0-.56.21,2.42,2.42,0,0,0-.6.6v3.47a.13.13,0,0,1,0,.1.22.22,0,0,1-.12.07.9.9,0,0,1-.22,0h-.72a.9.9,0,0,1-.22,0,.22.22,0,0,1-.12-.07.13.13,0,0,1,0-.1V47.31a.2.2,0,0,1,0-.11.23.23,0,0,1,.11-.07l.19,0,.3,0,.32,0,.19,0a.22.22,0,0,1,.09.07.2.2,0,0,1,0,.11v.6a3.22,3.22,0,0,1,.88-.7,2,2,0,0,1,.94-.24,2,2,0,0,1,.89.18,1.49,1.49,0,0,1,.6.47,2.09,2.09,0,0,1,.32.71,3.91,3.91,0,0,1,.1,1Z"/><path class="cls-5" d="M41.18,52.54a.17.17,0,0,1,0,.13.42.42,0,0,1-.19.07l-.37,0-.38,0a.3.3,0,0,1-.17-.07.14.14,0,0,1-.05-.13v-.41a2.43,2.43,0,0,1-.74.54,2.09,2.09,0,0,1-.91.19,2.65,2.65,0,0,1-.77-.11,1.73,1.73,0,0,1-.6-.32,1.52,1.52,0,0,1-.4-.53,1.88,1.88,0,0,1-.14-.74,1.65,1.65,0,0,1,.18-.79,1.52,1.52,0,0,1,.54-.56,2.66,2.66,0,0,1,.88-.32,6.2,6.2,0,0,1,1.22-.11h.51v-.31a1.75,1.75,0,0,0-.05-.43.63.63,0,0,0-.17-.31.64.64,0,0,0-.3-.18,1.58,1.58,0,0,0-.47-.06,2.59,2.59,0,0,0-.66.08l-.51.18-.37.18a.51.51,0,0,1-.25.09.21.21,0,0,1-.11,0,.36.36,0,0,1-.08-.12.74.74,0,0,1-.05-.19,1.79,1.79,0,0,1,0-.24,1.07,1.07,0,0,1,0-.29.45.45,0,0,1,.11-.19,1.11,1.11,0,0,1,.29-.19,2.82,2.82,0,0,1,.48-.19,3.31,3.31,0,0,1,.6-.14,3.63,3.63,0,0,1,.67-.06,4,4,0,0,1,1,.12,1.76,1.76,0,0,1,.72.37,1.46,1.46,0,0,1,.4.64,2.86,2.86,0,0,1,.13.93Zm-1.44-2.23h-.56a3.49,3.49,0,0,0-.61,0,1.21,1.21,0,0,0-.41.16.61.61,0,0,0-.23.25.78.78,0,0,0-.08.35.65.65,0,0,0,.21.51.81.81,0,0,0,.58.19,1,1,0,0,0,.57-.16,2.67,2.67,0,0,0,.53-.46Z"/><path class="cls-5" d="M47.36,47.67a1,1,0,0,1-.06.41c0,.09-.1.14-.16.14h-.62a.8.8,0,0,1,.19.32,1.5,1.5,0,0,1,0,.37,2.09,2.09,0,0,1-.15.81,1.56,1.56,0,0,1-.44.6,2,2,0,0,1-.68.37,3.09,3.09,0,0,1-.89.12,1.86,1.86,0,0,1-.48-.06,1.33,1.33,0,0,1-.35-.14.83.83,0,0,0-.13.18.46.46,0,0,0-.06.23.32.32,0,0,0,.15.28.8.8,0,0,0,.42.12l1.27,0a3.2,3.2,0,0,1,.8.12,1.69,1.69,0,0,1,.58.31,1.19,1.19,0,0,1,.36.47,1.38,1.38,0,0,1,.13.62,1.66,1.66,0,0,1-.17.73,1.61,1.61,0,0,1-.51.6,2.68,2.68,0,0,1-.85.4,4.71,4.71,0,0,1-1.2.14,5.43,5.43,0,0,1-1.14-.1,2.38,2.38,0,0,1-.77-.3,1.16,1.16,0,0,1-.44-.44,1.26,1.26,0,0,1-.14-.57,1.44,1.44,0,0,1,0-.37,2.07,2.07,0,0,1,.15-.34,1.72,1.72,0,0,1,.24-.31,3,3,0,0,1,.32-.28,1,1,0,0,1-.39-.36,1,1,0,0,1-.14-.51,1.34,1.34,0,0,1,.16-.63,2,2,0,0,1,.41-.51,1.51,1.51,0,0,1-.33-.49,1.87,1.87,0,0,1-.12-.72,1.92,1.92,0,0,1,.16-.81,1.73,1.73,0,0,1,.45-.61,1.82,1.82,0,0,1,.68-.38,2.75,2.75,0,0,1,.88-.13l.47,0a2.59,2.59,0,0,1,.42.09h1.66a.18.18,0,0,1,.16.13A1.09,1.09,0,0,1,47.36,47.67Zm-1.55,5.4a.45.45,0,0,0-.21-.4,1.05,1.05,0,0,0-.58-.16l-1,0a1.38,1.38,0,0,0-.25.21.81.81,0,0,0-.14.2.71.71,0,0,0-.08.18,1.09,1.09,0,0,0,0,.18.48.48,0,0,0,.29.44,1.9,1.9,0,0,0,.84.16,2.19,2.19,0,0,0,.56-.07,1.42,1.42,0,0,0,.37-.18.76.76,0,0,0,.2-.25A.71.71,0,0,0,45.81,53.07Zm-.34-4.17a.85.85,0,0,0-.24-.65.86.86,0,0,0-.66-.24.92.92,0,0,0-.38.08.68.68,0,0,0-.27.2.9.9,0,0,0-.16.29,1,1,0,0,0,0,.35.89.89,0,0,0,.23.63.9.9,0,0,0,.65.23,1.13,1.13,0,0,0,.39-.07.68.68,0,0,0,.27-.2.71.71,0,0,0,.16-.28A1,1,0,0,0,45.47,48.9Z"/><path class="cls-5" d="M53,49.76a.56.56,0,0,1-.12.4.42.42,0,0,1-.33.13H49.4a2.37,2.37,0,0,0,.08.61,1.21,1.21,0,0,0,.25.46,1.17,1.17,0,0,0,.45.29,2.06,2.06,0,0,0,.65.1,3.44,3.44,0,0,0,.68-.06,4.83,4.83,0,0,0,.51-.12l.35-.12a.6.6,0,0,1,.23-.06l.09,0a.18.18,0,0,1,.05.07.54.54,0,0,1,0,.15c0,.07,0,.15,0,.25s0,.16,0,.22a.61.61,0,0,1,0,.15l0,.11-.06.08a.83.83,0,0,1-.21.12,3.5,3.5,0,0,1-.44.13,4,4,0,0,1-.6.12,5.43,5.43,0,0,1-.72,0,3.69,3.69,0,0,1-1.22-.18,2.12,2.12,0,0,1-.88-.53,2.23,2.23,0,0,1-.52-.9A4.08,4.08,0,0,1,47.9,50a3.77,3.77,0,0,1,.19-1.25,2.64,2.64,0,0,1,.52-.95,2.17,2.17,0,0,1,.84-.59A2.83,2.83,0,0,1,50.57,47a3.12,3.12,0,0,1,1.12.19,2,2,0,0,1,.76.54,2.13,2.13,0,0,1,.44.81,3.64,3.64,0,0,1,.14,1Zm-1.43-.42a1.49,1.49,0,0,0-.25-1,.94.94,0,0,0-.82-.36,1.1,1.1,0,0,0-.49.11.93.93,0,0,0-.34.28,1.38,1.38,0,0,0-.21.42,2.27,2.27,0,0,0-.09.52Z"/><path class="cls-5" d="M57.6,47.79c0,.14,0,.26,0,.35a2,2,0,0,1,0,.21.29.29,0,0,1-.06.1.17.17,0,0,1-.1,0l-.1,0-.14,0L57,48.37l-.19,0a.79.79,0,0,0-.25,0,1.48,1.48,0,0,0-.25.16,1.84,1.84,0,0,0-.28.28c-.09.12-.19.26-.3.43v3.26a.13.13,0,0,1,0,.1.22.22,0,0,1-.12.07.9.9,0,0,1-.22,0h-.72a.9.9,0,0,1-.22,0,.22.22,0,0,1-.12-.07.13.13,0,0,1,0-.1V47.31a.2.2,0,0,1,0-.11.23.23,0,0,1,.11-.07l.19,0,.3,0,.31,0a.77.77,0,0,1,.2,0,.22.22,0,0,1,.09.07.2.2,0,0,1,0,.11V48a5.69,5.69,0,0,1,.39-.48,2.22,2.22,0,0,1,.34-.3,1,1,0,0,1,.33-.15,1.26,1.26,0,0,1,.33-.05h.16l.18,0a.69.69,0,0,1,.17.05l.1,0a.18.18,0,0,1,0,.07.64.64,0,0,1,0,.09.84.84,0,0,1,0,.19C57.59,47.54,57.6,47.65,57.6,47.79Z"/><path class="cls-5" d="M60.14,51.9a1,1,0,0,1-.18.71.87.87,0,0,1-.65.19.89.89,0,0,1-.64-.18,1,1,0,0,1-.18-.69,1,1,0,0,1,.18-.71,1.22,1.22,0,0,1,1.29,0A1,1,0,0,1,60.14,51.9Zm2.72,0a1,1,0,0,1-.19.71.84.84,0,0,1-.64.19.92.92,0,0,1-.65-.18,1,1,0,0,1-.18-.69,1,1,0,0,1,.18-.71A.87.87,0,0,1,62,51a.92.92,0,0,1,.65.18A1,1,0,0,1,62.86,51.9Zm2.71,0a1,1,0,0,1-.18.71.87.87,0,0,1-.65.19.89.89,0,0,1-.64-.18,1,1,0,0,1-.18-.69,1,1,0,0,1,.18-.71.84.84,0,0,1,.64-.19.92.92,0,0,1,.65.18A1,1,0,0,1,65.57,51.9Z"/><path class="cls-5" d="M69.91,46.52a1.54,1.54,0,0,1,0-.4.57.57,0,0,1,.13-.27.65.65,0,0,1,.26-.14,1.49,1.49,0,0,1,.4,0,1.54,1.54,0,0,1,.4,0,.55.55,0,0,1,.25.14.57.57,0,0,1,.13.27,1.54,1.54,0,0,1,0,.4,1.62,1.62,0,0,1,0,.41.57.57,0,0,1-.13.27.48.48,0,0,1-.25.15,1.54,1.54,0,0,1-.4,0,1.49,1.49,0,0,1-.4,0,.56.56,0,0,1-.26-.15.57.57,0,0,1-.13-.27A1.62,1.62,0,0,1,69.91,46.52Zm.18,1.72a.36.36,0,0,1,0-.11.21.21,0,0,1,.1-.08.83.83,0,0,1,.2,0l.31,0,.31,0a.74.74,0,0,1,.19,0,.24.24,0,0,1,.11.08.2.2,0,0,1,0,.11l.15,5.31a.25.25,0,0,1,0,.13.27.27,0,0,1-.13.1,1,1,0,0,1-.24.06h-.39a2.18,2.18,0,0,1-.39,0,1.11,1.11,0,0,1-.24,0,.28.28,0,0,1-.13-.1.2.2,0,0,1,0-.13Z"/><path class="cls-5" d="M79.94,52.15c0,.14.07.25.09.34a.21.21,0,0,1,0,.18.38.38,0,0,1-.23.08h-.91a1.32,1.32,0,0,1-.26,0,.27.27,0,0,1-.18-.2L77.89,51H75.05l-.49,1.48a.35.35,0,0,1-.06.14.23.23,0,0,1-.12.08.72.72,0,0,1-.24,0h-.41l-.42,0a.34.34,0,0,1-.21-.08.24.24,0,0,1,0-.19,1.68,1.68,0,0,1,.09-.33l2.33-6.72a.48.48,0,0,1,.09-.16.27.27,0,0,1,.15-.09.69.69,0,0,1,.28,0h1a.92.92,0,0,1,.32,0,.31.31,0,0,1,.16.09.6.6,0,0,1,.09.18ZM76.46,46.6h0l-1.08,3.22h2.15Z"/><path class="cls-5" d="M88.57,54.6a.17.17,0,0,1,0,.1.25.25,0,0,1-.12.08,1,1,0,0,1-.22,0l-.36,0-.36,0a.9.9,0,0,1-.22,0,.18.18,0,0,1-.12-.08.17.17,0,0,1,0-.1V52.12a3.71,3.71,0,0,1-.41.33,2.12,2.12,0,0,1-.4.24,2,2,0,0,1-.41.13,2.12,2.12,0,0,1-.44,0A1.85,1.85,0,0,1,83.81,52a2.91,2.91,0,0,1-.37-.92,4.94,4.94,0,0,1-.12-1.1,4.84,4.84,0,0,1,.15-1.26,2.65,2.65,0,0,1,.45-.94,1.84,1.84,0,0,1,.72-.61,2.19,2.19,0,0,1,1-.21A1.84,1.84,0,0,1,86,47a1.22,1.22,0,0,1,.4.15,2.3,2.3,0,0,1,.41.28,5.51,5.51,0,0,1,.47.42v-.56a.21.21,0,0,1,0-.11.2.2,0,0,1,.1-.07l.19,0,.31,0,.29,0a.69.69,0,0,1,.19,0,.2.2,0,0,1,.1.07.2.2,0,0,1,0,.11ZM87.11,49a2.92,2.92,0,0,0-.61-.61,1,1,0,0,0-.6-.21.92.92,0,0,0-.5.14,1,1,0,0,0-.33.39,1.75,1.75,0,0,0-.19.53,3.08,3.08,0,0,0-.06.61,4.48,4.48,0,0,0,.05.64,2.09,2.09,0,0,0,.18.55,1,1,0,0,0,.31.39.9.9,0,0,0,.51.14.92.92,0,0,0,.29,0,1.35,1.35,0,0,0,.3-.14,3.25,3.25,0,0,0,.3-.26,5.24,5.24,0,0,0,.35-.4Z"/><path class="cls-5" d="M95,52.53a.17.17,0,0,1,0,.1s0,0-.1.07a.74.74,0,0,1-.19,0h-.62a.74.74,0,0,1-.19,0,.26.26,0,0,1-.1-.07.3.3,0,0,1,0-.1v-.61a3.3,3.3,0,0,1-.89.71,2,2,0,0,1-.92.23,2.08,2.08,0,0,1-.91-.18,1.46,1.46,0,0,1-.59-.48,1.8,1.8,0,0,1-.32-.7,4.06,4.06,0,0,1-.1-1V47.31a.2.2,0,0,1,0-.11.35.35,0,0,1,.12-.07l.23,0,.35,0,.36,0,.23,0a.35.35,0,0,1,.12.07.2.2,0,0,1,0,.11v2.95a2.43,2.43,0,0,0,.06.62.83.83,0,0,0,.16.37.62.62,0,0,0,.27.24.8.8,0,0,0,.39.09.91.91,0,0,0,.56-.21,3,3,0,0,0,.61-.59V47.31a.2.2,0,0,1,0-.11.22.22,0,0,1,.12-.07l.23,0,.35,0,.36,0a1,1,0,0,1,.22,0,.22.22,0,0,1,.12.07.2.2,0,0,1,0,.11Z"/><path class="cls-5" d="M101.31,49.76a.56.56,0,0,1-.12.4.42.42,0,0,1-.33.13H97.68a2.37,2.37,0,0,0,.08.61,1.09,1.09,0,0,0,.25.46,1.06,1.06,0,0,0,.44.29,2.13,2.13,0,0,0,.66.1,3.51,3.51,0,0,0,.68-.06,4.11,4.11,0,0,0,.5-.12l.36-.12a.61.61,0,0,1,.22-.06l.09,0a.13.13,0,0,1,.06.07.33.33,0,0,1,0,.15,1.85,1.85,0,0,1,0,.25v.22c0,.06,0,.11,0,.15a.36.36,0,0,1,0,.11.16.16,0,0,1-.06.08.56.56,0,0,1-.21.12,3.28,3.28,0,0,1-.43.13,4.23,4.23,0,0,1-.6.12,5.58,5.58,0,0,1-.73,0,3.78,3.78,0,0,1-1.22-.18,2,2,0,0,1-.87-.53,2.24,2.24,0,0,1-.53-.9A4.41,4.41,0,0,1,96.18,50a4.06,4.06,0,0,1,.18-1.25,2.66,2.66,0,0,1,.53-.95,2.17,2.17,0,0,1,.84-.59A2.82,2.82,0,0,1,98.84,47a3.08,3.08,0,0,1,1.12.19,2.06,2.06,0,0,1,.77.54,2.27,2.27,0,0,1,.44.81,3.64,3.64,0,0,1,.14,1Zm-1.43-.42a1.49,1.49,0,0,0-.25-1,1,1,0,0,0-.82-.36,1.07,1.07,0,0,0-.49.11,1.06,1.06,0,0,0-.35.28,1.38,1.38,0,0,0-.21.42,3,3,0,0,0-.08.52Z"/><path class="cls-5" d="M110.22,52.53a.18.18,0,0,1,0,.1.22.22,0,0,1-.12.07.9.9,0,0,1-.22,0h-.72a.9.9,0,0,1-.22,0,.22.22,0,0,1-.12-.07.17.17,0,0,1,0-.1v-3a2.3,2.3,0,0,0-.06-.6,1.25,1.25,0,0,0-.16-.37.69.69,0,0,0-.27-.24.8.8,0,0,0-.39-.09,1,1,0,0,0-.57.21,2.82,2.82,0,0,0-.6.6v3.47a.17.17,0,0,1,0,.1.22.22,0,0,1-.12.07,1,1,0,0,1-.23,0h-.71l-.23,0a.35.35,0,0,1-.12-.07.17.17,0,0,1,0-.1V47.31a.2.2,0,0,1,0-.11.2.2,0,0,1,.1-.07.88.88,0,0,1,.2,0l.3,0,.31,0a.69.69,0,0,1,.19,0,.2.2,0,0,1,.1.07.2.2,0,0,1,0,.11v.6a3.22,3.22,0,0,1,.88-.7,2,2,0,0,1,.93-.24,2,2,0,0,1,.9.18,1.52,1.52,0,0,1,.59.47,2.11,2.11,0,0,1,.33.71,4.45,4.45,0,0,1,.1,1Z"/><path class="cls-5" d="M116.94,49.86a4.23,4.23,0,0,1-.17,1.22,2.62,2.62,0,0,1-.54,1,2.36,2.36,0,0,1-.89.61,3.26,3.26,0,0,1-1.26.22,3.38,3.38,0,0,1-1.21-.19,2.16,2.16,0,0,1-.86-.57,2.31,2.31,0,0,1-.5-.9,4.22,4.22,0,0,1-.16-1.23,3.91,3.91,0,0,1,.17-1.22,2.54,2.54,0,0,1,.54-1,2.44,2.44,0,0,1,.89-.61,3.26,3.26,0,0,1,1.26-.22,3.72,3.72,0,0,1,1.22.19,2.29,2.29,0,0,1,.85.56,2.43,2.43,0,0,1,.5.91A4.22,4.22,0,0,1,116.94,49.86Zm-1.51.06a3.88,3.88,0,0,0-.07-.71,1.76,1.76,0,0,0-.2-.56,1.09,1.09,0,0,0-.39-.38,1.29,1.29,0,0,0-.62-.13,1.32,1.32,0,0,0-.57.12,1,1,0,0,0-.4.35,1.53,1.53,0,0,0-.24.55,3.36,3.36,0,0,0-.08.74,3.26,3.26,0,0,0,.07.72,1.85,1.85,0,0,0,.2.56,1.06,1.06,0,0,0,.39.37,1.28,1.28,0,0,0,.61.13,1.31,1.31,0,0,0,.58-.12,1,1,0,0,0,.4-.34,1.58,1.58,0,0,0,.24-.56A3.22,3.22,0,0,0,115.43,49.92Z"/><path class="cls-5" d="M122.29,52.53a.17.17,0,0,1,0,.1.35.35,0,0,1-.12.07l-.23,0h-.71a1,1,0,0,1-.23,0,.22.22,0,0,1-.12-.07.17.17,0,0,1,0-.1v-7.7a.23.23,0,0,1,0-.11.22.22,0,0,1,.12-.07.66.66,0,0,1,.23,0,1.78,1.78,0,0,1,.35,0,1.84,1.84,0,0,1,.36,0,.71.71,0,0,1,.23,0,.35.35,0,0,1,.12.07.23.23,0,0,1,0,.11Z"/><path class="cls-5" d="M128.21,52.54a.15.15,0,0,1-.06.13.38.38,0,0,1-.18.07l-.38,0-.38,0a.3.3,0,0,1-.17-.07.17.17,0,0,1-.05-.13v-.41a2.39,2.39,0,0,1-.73.54,2.13,2.13,0,0,1-.92.19,2.58,2.58,0,0,1-.76-.11,1.78,1.78,0,0,1-.61-.32,1.38,1.38,0,0,1-.39-.53,1.72,1.72,0,0,1-.14-.74,1.65,1.65,0,0,1,.18-.79,1.49,1.49,0,0,1,.53-.56,2.84,2.84,0,0,1,.88-.32,6.27,6.27,0,0,1,1.22-.11h.51v-.31a1.37,1.37,0,0,0-.05-.43.61.61,0,0,0-.16-.31.73.73,0,0,0-.31-.18,1.53,1.53,0,0,0-.47-.06,2.57,2.57,0,0,0-.65.08l-.52.18-.37.18a.51.51,0,0,1-.24.09.28.28,0,0,1-.12,0,.36.36,0,0,1-.08-.12.74.74,0,0,1-.05-.19,1.79,1.79,0,0,1,0-.24,1.07,1.07,0,0,1,0-.29.39.39,0,0,1,.12-.19,1,1,0,0,1,.28-.19,3.69,3.69,0,0,1,.48-.19,3.75,3.75,0,0,1,.6-.14,3.71,3.71,0,0,1,.67-.06,4,4,0,0,1,1,.12,1.76,1.76,0,0,1,.72.37,1.47,1.47,0,0,1,.41.64,2.86,2.86,0,0,1,.13.93Zm-1.45-2.23h-.56a3.49,3.49,0,0,0-.61,0,1.3,1.3,0,0,0-.41.16.68.68,0,0,0-.23.25.78.78,0,0,0-.07.35.65.65,0,0,0,.21.51.79.79,0,0,0,.57.19,1,1,0,0,0,.57-.16,2.42,2.42,0,0,0,.53-.46Z"/><path class="cls-5" d="M34.88,64.14a1.85,1.85,0,0,1,0,.25.9.9,0,0,1,0,.18.36.36,0,0,1,0,.11.27.27,0,0,1-.09.11.75.75,0,0,1-.24.16,1.91,1.91,0,0,1-.38.18,3.37,3.37,0,0,1-.48.12,3,3,0,0,1-.52,0A2.76,2.76,0,0,1,32,65.11a2,2,0,0,1-.78-.55,2.5,2.5,0,0,1-.48-.9,4.36,4.36,0,0,1-.16-1.2,4.24,4.24,0,0,1,.2-1.36,2.49,2.49,0,0,1,.55-.94,2.14,2.14,0,0,1,.83-.56,3,3,0,0,1,1.05-.18,2.32,2.32,0,0,1,.46,0l.42.11a2.29,2.29,0,0,1,.35.16,1,1,0,0,1,.22.15.35.35,0,0,1,.09.11.34.34,0,0,1,0,.12s0,.1,0,.17,0,.15,0,.25a1.29,1.29,0,0,1-.06.47c0,.1-.09.14-.15.14a.42.42,0,0,1-.22-.08l-.26-.18a1.51,1.51,0,0,0-.36-.18,1.28,1.28,0,0,0-.5-.09,1,1,0,0,0-.88.45,2.19,2.19,0,0,0-.31,1.29,3.38,3.38,0,0,0,.08.75,1.66,1.66,0,0,0,.23.54.88.88,0,0,0,.37.32,1.21,1.21,0,0,0,.52.11,1.4,1.4,0,0,0,.53-.09,2.69,2.69,0,0,0,.38-.2l.28-.21a.3.3,0,0,1,.18-.09.12.12,0,0,1,.09,0,.36.36,0,0,1,.06.11c0,.05,0,.12,0,.2A2.92,2.92,0,0,1,34.88,64.14Z"/><path class="cls-5" d="M41.17,62.31A3.84,3.84,0,0,1,41,63.52a2.52,2.52,0,0,1-.53.95,2.42,2.42,0,0,1-.9.62,3.92,3.92,0,0,1-2.47,0,2.22,2.22,0,0,1-.85-.56,2.32,2.32,0,0,1-.51-.91,4.58,4.58,0,0,1-.16-1.23,4,4,0,0,1,.18-1.22,2.62,2.62,0,0,1,.54-.95,2.39,2.39,0,0,1,.89-.61,3.37,3.37,0,0,1,1.25-.21,3.44,3.44,0,0,1,1.22.19,2.09,2.09,0,0,1,.85.55,2.3,2.3,0,0,1,.5.91A4.22,4.22,0,0,1,41.17,62.31Zm-1.52,0a4,4,0,0,0-.06-.71,1.63,1.63,0,0,0-.21-.56,1.09,1.09,0,0,0-.39-.38,1.23,1.23,0,0,0-.61-.13,1.26,1.26,0,0,0-.57.12,1.07,1.07,0,0,0-.41.35,1.78,1.78,0,0,0-.23.56,2.75,2.75,0,0,0-.08.74,3.92,3.92,0,0,0,.06.71,1.56,1.56,0,0,0,.21.56,1,1,0,0,0,.39.38,1.38,1.38,0,0,0,.61.13,1.34,1.34,0,0,0,.58-.12,1,1,0,0,0,.4-.35,1.52,1.52,0,0,0,.23-.55A2.88,2.88,0,0,0,39.65,62.36Z"/><path class="cls-5" d="M47.32,65a.13.13,0,0,1,0,.1.24.24,0,0,1-.11.08l-.23,0h-.71l-.23,0a.36.36,0,0,1-.12-.08.17.17,0,0,1,0-.1V62a2.41,2.41,0,0,0-.06-.6,1.12,1.12,0,0,0-.16-.37.78.78,0,0,0-.27-.24A.93.93,0,0,0,45,60.7a1,1,0,0,0-.57.2,3.06,3.06,0,0,0-.59.6V65a.13.13,0,0,1,0,.1.23.23,0,0,1-.12.08l-.22,0h-.72l-.22,0a.23.23,0,0,1-.12-.08.13.13,0,0,1,0-.1V59.75a.17.17,0,0,1,0-.1.24.24,0,0,1,.11-.08l.19,0,.3,0,.31,0a.61.61,0,0,1,.19,0,.21.21,0,0,1,.1.08.17.17,0,0,1,0,.1v.6a3.42,3.42,0,0,1,.88-.7,1.94,1.94,0,0,1,.93-.23,2,2,0,0,1,.9.17,1.56,1.56,0,0,1,.59.48,2,2,0,0,1,.33.7,4,4,0,0,1,.1,1Z"/><path class="cls-5" d="M54,62.31a4.16,4.16,0,0,1-.17,1.21,2.66,2.66,0,0,1-.53.95,2.42,2.42,0,0,1-.9.62,3.47,3.47,0,0,1-1.26.21A3.42,3.42,0,0,1,50,65.11a2.22,2.22,0,0,1-.85-.56,2.32,2.32,0,0,1-.51-.91,4.22,4.22,0,0,1-.16-1.23,4,4,0,0,1,.18-1.22,2.6,2.6,0,0,1,.53-.95,2.57,2.57,0,0,1,.89-.61,3.95,3.95,0,0,1,2.48,0,2.16,2.16,0,0,1,.85.55,2.43,2.43,0,0,1,.5.91A4.24,4.24,0,0,1,54,62.31Zm-1.51,0a4,4,0,0,0-.06-.71,1.63,1.63,0,0,0-.21-.56,1.09,1.09,0,0,0-.39-.38,1.25,1.25,0,0,0-.61-.13,1.34,1.34,0,0,0-.58.12,1.12,1.12,0,0,0-.4.35,2.06,2.06,0,0,0-.24.56,3.22,3.22,0,0,0-.08.74,3.88,3.88,0,0,0,.07.71,1.56,1.56,0,0,0,.21.56,1,1,0,0,0,.39.38,1.33,1.33,0,0,0,.6.13,1.28,1.28,0,0,0,.58-.12,1.07,1.07,0,0,0,.41-.35,1.72,1.72,0,0,0,.23-.55A3.38,3.38,0,0,0,52.53,62.36Z"/><path class="cls-5" d="M59.16,64.14a1.85,1.85,0,0,1,0,.25c0,.07,0,.13,0,.18a.36.36,0,0,1,0,.11.27.27,0,0,1-.09.11,1.09,1.09,0,0,1-.24.16,1.91,1.91,0,0,1-.38.18,3.37,3.37,0,0,1-.48.12,3,3,0,0,1-.52,0,2.76,2.76,0,0,1-1.07-.19,2,2,0,0,1-.78-.55,2.5,2.5,0,0,1-.48-.9,4.36,4.36,0,0,1-.16-1.2,4.24,4.24,0,0,1,.2-1.36,2.49,2.49,0,0,1,.55-.94,2.14,2.14,0,0,1,.83-.56,3,3,0,0,1,1.05-.18,2.32,2.32,0,0,1,.46,0l.42.11a2.29,2.29,0,0,1,.35.16,1,1,0,0,1,.22.15s.08.08.09.11a.34.34,0,0,1,0,.12s0,.1,0,.17,0,.15,0,.25a1.29,1.29,0,0,1-.06.47c0,.1-.09.14-.15.14a.42.42,0,0,1-.22-.08l-.26-.18a1.51,1.51,0,0,0-.36-.18,1.28,1.28,0,0,0-.5-.09,1,1,0,0,0-.88.45,2.19,2.19,0,0,0-.31,1.29,3.38,3.38,0,0,0,.08.75,1.65,1.65,0,0,0,.22.54,1,1,0,0,0,.38.32,1.21,1.21,0,0,0,.52.11,1.44,1.44,0,0,0,.53-.09,2.69,2.69,0,0,0,.38-.2l.27-.21a.35.35,0,0,1,.19-.09.12.12,0,0,1,.09,0,.36.36,0,0,1,.06.11c0,.05,0,.12,0,.2A2.92,2.92,0,0,1,59.16,64.14Z"/><path class="cls-5" d="M65.05,62.21a.58.58,0,0,1-.12.4.45.45,0,0,1-.33.12H61.42a2.25,2.25,0,0,0,.08.61,1.14,1.14,0,0,0,.25.46,1,1,0,0,0,.44.29,1.87,1.87,0,0,0,.66.1,4.61,4.61,0,0,0,.68,0A4,4,0,0,0,64,64l.36-.12a.61.61,0,0,1,.22-.06l.09,0a.12.12,0,0,1,.06.08.28.28,0,0,1,0,.15,1.63,1.63,0,0,1,0,.24v.22c0,.06,0,.11,0,.15a.28.28,0,0,1,0,.11.24.24,0,0,1-.06.09.6.6,0,0,1-.21.11,3.11,3.11,0,0,1-.43.14c-.17,0-.38.08-.6.11a4.26,4.26,0,0,1-.73,0,4.08,4.08,0,0,1-1.22-.17,2.14,2.14,0,0,1-.87-.54,2.11,2.11,0,0,1-.53-.9,4.34,4.34,0,0,1-.17-1.27,4.08,4.08,0,0,1,.18-1.26,2.66,2.66,0,0,1,.53-.95,2.29,2.29,0,0,1,.84-.59,2.82,2.82,0,0,1,1.11-.2,2.88,2.88,0,0,1,1.12.19,2.16,2.16,0,0,1,.77.53,2.27,2.27,0,0,1,.44.81,3.75,3.75,0,0,1,.14,1Zm-1.43-.42a1.52,1.52,0,0,0-.25-1,1,1,0,0,0-.82-.35,1.07,1.07,0,0,0-.49.1,1,1,0,0,0-.34.29,1.2,1.2,0,0,0-.22.42,2.7,2.7,0,0,0-.08.52Z"/><path class="cls-5" d="M71.25,65a.18.18,0,0,1,0,.1.23.23,0,0,1-.12.08l-.22,0h-.72l-.22,0a.28.28,0,0,1-.12-.08.17.17,0,0,1,0-.1V62a2.41,2.41,0,0,0-.06-.6,1.38,1.38,0,0,0-.16-.37.78.78,0,0,0-.27-.24.93.93,0,0,0-.39-.08,1,1,0,0,0-.57.2,3.38,3.38,0,0,0-.6.6V65a.17.17,0,0,1,0,.1.23.23,0,0,1-.12.08l-.23,0h-.71l-.23,0a.36.36,0,0,1-.12-.08.17.17,0,0,1,0-.1V59.75a.17.17,0,0,1,0-.1.21.21,0,0,1,.1-.08.88.88,0,0,1,.2,0l.3,0,.31,0a.69.69,0,0,1,.19,0,.21.21,0,0,1,.1.08.17.17,0,0,1,0,.1v.6a3.42,3.42,0,0,1,.88-.7,1.94,1.94,0,0,1,.93-.23,2,2,0,0,1,.9.17,1.64,1.64,0,0,1,.59.48,2,2,0,0,1,.33.7,4.52,4.52,0,0,1,.1,1Z"/><path class="cls-5" d="M83.71,65a.13.13,0,0,1,0,.1.23.23,0,0,1-.12.08l-.22,0h-.72l-.22,0a.23.23,0,0,1-.12-.08.17.17,0,0,1,0-.1v-3.1a2.44,2.44,0,0,0,0-.48A1.37,1.37,0,0,0,82,61a.7.7,0,0,0-.63-.32.93.93,0,0,0-.54.2,3.73,3.73,0,0,0-.58.6V65a.13.13,0,0,1,0,.1.23.23,0,0,1-.12.08l-.22,0H79.2l-.23,0a.36.36,0,0,1-.12-.08.17.17,0,0,1,0-.1v-3.1a2.44,2.44,0,0,0,0-.48,1.11,1.11,0,0,0-.15-.37.75.75,0,0,0-.26-.24A.81.81,0,0,0,78,60.7a.92.92,0,0,0-.53.2,3.35,3.35,0,0,0-.58.6V65a.13.13,0,0,1,0,.1.23.23,0,0,1-.12.08l-.22,0h-.72l-.22,0a.23.23,0,0,1-.12-.08.13.13,0,0,1,0-.1V59.75a.17.17,0,0,1,0-.1.24.24,0,0,1,.11-.08l.19,0,.3,0,.31,0a.61.61,0,0,1,.19,0,.21.21,0,0,1,.1.08.17.17,0,0,1,0,.1v.6a3.73,3.73,0,0,1,.86-.7,1.83,1.83,0,0,1,.9-.23,2.52,2.52,0,0,1,.58.06,1.6,1.6,0,0,1,.46.2,1.27,1.27,0,0,1,.35.3,1.28,1.28,0,0,1,.24.39,4.45,4.45,0,0,1,.46-.43,2.93,2.93,0,0,1,.45-.3,2,2,0,0,1,.44-.17,1.64,1.64,0,0,1,.45,0,1.9,1.9,0,0,1,.87.17,1.61,1.61,0,0,1,.58.48,1.79,1.79,0,0,1,.31.7,3.44,3.44,0,0,1,.1.86Z"/><path class="cls-5" d="M90.1,65a.16.16,0,0,1,0,.1.24.24,0,0,1-.11.08l-.19,0h-.61l-.2,0a.18.18,0,0,1-.09-.08.17.17,0,0,1,0-.1v-.6a3.6,3.6,0,0,1-.88.7,1.94,1.94,0,0,1-.93.23,2.24,2.24,0,0,1-.91-.17,1.64,1.64,0,0,1-.59-.48,1.84,1.84,0,0,1-.32-.71,4.54,4.54,0,0,1-.1-1V59.75a.13.13,0,0,1,0-.1.24.24,0,0,1,.11-.08l.23,0,.35,0,.36,0,.23,0a.36.36,0,0,1,.12.08.17.17,0,0,1,0,.1v3a2.43,2.43,0,0,0,.06.62.93.93,0,0,0,.16.38.78.78,0,0,0,.27.24.93.93,0,0,0,.39.08,1,1,0,0,0,.57-.2,3.75,3.75,0,0,0,.6-.6V59.75a.17.17,0,0,1,0-.1.23.23,0,0,1,.12-.08l.23,0,.35,0,.36,0a1,1,0,0,1,.22,0,.23.23,0,0,1,.12.08.17.17,0,0,1,0,.1Z"/><path class="cls-5" d="M95.54,64.14c0,.1,0,.18,0,.25s0,.13,0,.18l0,.11a.27.27,0,0,1-.09.11,1.09,1.09,0,0,1-.24.16,2,2,0,0,1-.39.18,2.93,2.93,0,0,1-.47.12,3,3,0,0,1-.52,0,2.73,2.73,0,0,1-1.07-.19,2,2,0,0,1-.78-.55,2.5,2.5,0,0,1-.48-.9,4.66,4.66,0,0,1,0-2.56,2.61,2.61,0,0,1,.54-.94,2.22,2.22,0,0,1,.83-.56,3,3,0,0,1,1.06-.18,2.38,2.38,0,0,1,.46,0l.42.11a2.29,2.29,0,0,1,.35.16,1.33,1.33,0,0,1,.22.15l.09.11a.34.34,0,0,1,0,.12.72.72,0,0,1,0,.17,1.85,1.85,0,0,1,0,.25,1.29,1.29,0,0,1-.06.47c0,.1-.09.14-.15.14a.43.43,0,0,1-.21-.08l-.26-.18a1.51,1.51,0,0,0-.36-.18,1.33,1.33,0,0,0-.51-.09,1,1,0,0,0-.88.45,2.28,2.28,0,0,0-.3,1.29,2.88,2.88,0,0,0,.08.75,1.65,1.65,0,0,0,.22.54.91.91,0,0,0,.38.32,1.21,1.21,0,0,0,.52.11A1.35,1.35,0,0,0,94.5,64a2.36,2.36,0,0,0,.39-.2l.27-.21a.35.35,0,0,1,.19-.09l.09,0a.23.23,0,0,1,0,.11.56.56,0,0,1,0,.2A2.58,2.58,0,0,1,95.54,64.14Z"/><path class="cls-5" d="M101.59,65a.13.13,0,0,1,0,.1.24.24,0,0,1-.11.08l-.23,0h-.71l-.23,0a.36.36,0,0,1-.12-.08.17.17,0,0,1,0-.1V62a2.41,2.41,0,0,0-.06-.6A1.12,1.12,0,0,0,99.9,61a.78.78,0,0,0-.27-.24.93.93,0,0,0-.39-.08,1,1,0,0,0-.57.2,3.06,3.06,0,0,0-.59.6V65a.13.13,0,0,1,0,.1.23.23,0,0,1-.12.08l-.22,0H97l-.22,0a.23.23,0,0,1-.12-.08.13.13,0,0,1,0-.1v-7.7a.13.13,0,0,1,0-.1.23.23,0,0,1,.12-.08A.9.9,0,0,1,97,57l.36,0,.36,0a.9.9,0,0,1,.22.05.23.23,0,0,1,.12.08.13.13,0,0,1,0,.1v2.89a2.73,2.73,0,0,1,.77-.56,2.2,2.2,0,0,1,1.72,0,1.56,1.56,0,0,1,.59.48,2,2,0,0,1,.33.71,4,4,0,0,1,.1,1Z"/><path class="cls-5" d="M108.31,62.31a3.85,3.85,0,0,1-.17,1.21,2.66,2.66,0,0,1-.53.95,2.42,2.42,0,0,1-.9.62,3.47,3.47,0,0,1-1.26.21,3.42,3.42,0,0,1-1.21-.19,2.22,2.22,0,0,1-.85-.56,2.32,2.32,0,0,1-.51-.91,4.22,4.22,0,0,1-.16-1.23,4,4,0,0,1,.18-1.22,2.6,2.6,0,0,1,.53-.95,2.52,2.52,0,0,1,.9-.61,3.37,3.37,0,0,1,1.25-.21,3.47,3.47,0,0,1,1.22.19,2.09,2.09,0,0,1,.85.55,2.43,2.43,0,0,1,.5.91A4.24,4.24,0,0,1,108.31,62.31Zm-1.51,0a4,4,0,0,0-.06-.71,1.63,1.63,0,0,0-.21-.56,1.09,1.09,0,0,0-.39-.38,1.25,1.25,0,0,0-.61-.13,1.34,1.34,0,0,0-.58.12,1.12,1.12,0,0,0-.4.35,2.06,2.06,0,0,0-.24.56,3.22,3.22,0,0,0-.08.74,3.88,3.88,0,0,0,.07.71,1.56,1.56,0,0,0,.21.56,1,1,0,0,0,.39.38,1.33,1.33,0,0,0,.6.13,1.28,1.28,0,0,0,.58-.12,1.07,1.07,0,0,0,.41-.35,1.72,1.72,0,0,0,.23-.55A3.38,3.38,0,0,0,106.8,62.36Z"/><path class="cls-5" d="M111.74,64.4a1.62,1.62,0,0,1,0,.41.53.53,0,0,1-.13.26.55.55,0,0,1-.26.14,1.45,1.45,0,0,1-.4.05,1.5,1.5,0,0,1-.4-.05.47.47,0,0,1-.25-.14.46.46,0,0,1-.13-.26,2.12,2.12,0,0,1,0-.82.49.49,0,0,1,.13-.27.48.48,0,0,1,.25-.15,1.54,1.54,0,0,1,.4,0,1.49,1.49,0,0,1,.4,0,.56.56,0,0,1,.26.15.57.57,0,0,1,.13.27A1.62,1.62,0,0,1,111.74,64.4Zm-.18-1.71a.3.3,0,0,1,0,.1.21.21,0,0,1-.1.08l-.2.05-.31,0-.31,0a.74.74,0,0,1-.19-.05.24.24,0,0,1-.11-.08.17.17,0,0,1,0-.1l-.15-5.32a.28.28,0,0,1,0-.13.34.34,0,0,1,.13-.1,1.11,1.11,0,0,1,.24,0,2.3,2.3,0,0,1,.39,0,2.18,2.18,0,0,1,.39,0,.7.7,0,0,1,.24.06.22.22,0,0,1,.13.09.2.2,0,0,1,0,.13Z"/></g></g></svg>