<svg xmlns="http://www.w3.org/2000/svg" viewBox="0 0 178.22 113.12"><defs><style>.cls-1{opacity:0.3;}.cls-2{fill:#fff;}.cls-3{fill:#96989b;}.cls-4{fill:#231f20;}</style></defs><g id="Capa_2" data-name="Capa 2"><g id="Capa_1-2" data-name="Capa 1"><path class="cls-1" d="M174.23,17.71C166.45,5.82,148.3,10,134.43,10c-2.49-.06-5-.15-7.63-.26C108.64,9,88.2,7.05,71.35,8.44A88.39,88.39,0,0,0,60,10.06C26.56,21.52,38.45,46.72,40.37,68.25c-5,6.23-14.69,14-32.52,15.82,0,0,17.92,1.44,31.79,6,.62,8,3.8,15.43,15.76,20.53a37.5,37.5,0,0,0,9.54,1.1c3.53.12,7,.13,10.37.07s6.75-.17,10.1-.3c9.88-.83,19.86-.43,29.82,0l7.46.34c16.43-.44,38.71,6.69,47.78-8.35,11.55-18.21,4.13-40.37,6.87-60.65.28-2.23.54-4.45.71-6.64C178.55,29.61,178.12,23.31,174.23,17.71Z"/><path class="cls-2" d="M169,10.71C161.24-1.18,143.09,3,129.22,3c-2.49-.05-5-.14-7.63-.25C103.43,2,83,.05,66.14,1.44A86.66,86.66,0,0,0,54.8,3.06C25.43,13.12,31,33.77,34.11,53.22a15.48,15.48,0,0,1-6.37,15C22.1,72.31,14,75.9,2.64,77.07a181.12,181.12,0,0,1,25.13,4.07A10.24,10.24,0,0,1,35.3,88.3c1.61,5.94,5.6,11.3,14.89,15.26a37.49,37.49,0,0,0,9.53,1.09c3.54.13,7,.14,10.38.08s6.74-.17,10.1-.3c9.88-.83,19.86-.43,29.81,0l7.47.34c16.43-.44,38.7,6.69,47.78-8.35,11.55-18.21,4.13-40.37,6.87-60.65.27-2.24.54-4.45.71-6.64C173.34,22.61,172.9,16.31,169,10.71Z"/><path class="cls-3" d="M33.66,60a15.33,15.33,0,0,0,3.54-12.4c-1.78-11.21-4.37-22.8-.66-32.54-7.9,10.7-4.58,24.74-2.43,38.21A15.1,15.1,0,0,1,33.66,60Z"/><path class="cls-3" d="M120.57,99.13l-7.46-.34c-10-.47-19.94-.87-29.82,0-3.35.13-6.7.25-10.1.3s-6.84,0-10.37-.07a37.5,37.5,0,0,1-9.54-1.1C44,93.92,40,88.56,38.39,82.62a10.2,10.2,0,0,0-7.53-7.15c-4.06-1-8.16-1.79-11.85-2.39a57.8,57.8,0,0,1-16.37,4,181.12,181.12,0,0,1,25.13,4.07A10.24,10.24,0,0,1,35.3,88.3c1.61,5.94,5.6,11.3,14.89,15.26a37.49,37.49,0,0,0,9.53,1.09c3.54.13,7,.14,10.38.08s6.74-.17,10.09-.3c9.89-.83,19.87-.43,29.82,0l7.47.34c16.43-.44,38.7,6.69,47.78-8.35A36.88,36.88,0,0,0,168,91.32C158.71,105.62,136.79,98.7,120.57,99.13Z"/><path class="cls-4" d="M143.08,107.07c-4.07,0-8.3-.34-12.49-.69a126.45,126.45,0,0,0-13.09-.63l-5.93-.26-1.6-.08c-10.6-.49-20.15-.84-29.69,0-3.25.13-6.67.25-10.16.31-3.79.06-7.2,0-10.43-.08a38.84,38.84,0,0,1-9.76-1.13l-.14,0c-8.59-3.66-13.5-8.71-15.44-15.88-.86-3.17-3.68-5.27-7-6.1-12.12-3-27.19-6-27.32-6l4.53-.58c9.76-1,16-3.67,22.62-8.4a14.55,14.55,0,0,0,6-14.12c-.2-1.25-.41-2.5-.62-3.76-3.1-18.56-6.3-37.76,21.95-47.45l.11,0A88.5,88.5,0,0,1,66.06.5c12.84-1.06,27.71-.22,42.1.59,4.47.25,9.09.51,13.47.7,2.81.12,5.3.21,7.61.26,2.77,0,5.72-.16,8.82-.34C149.91,1,163.34.27,169.84,10.2c4.31,6.21,4.43,13.11,4,19-.16,2.17-.43,4.4-.71,6.68-1,7-.66,14.39-.39,21.53.52,13.47,1.06,27.41-6.62,39.5C161.14,105.18,152.56,107.07,143.08,107.07Zm-24-3.23c3.67,0,7.58.32,11.69.66,13.35,1.09,27.17,2.22,33.65-8.52,7.37-11.62,6.87-24.66,6.34-38.46-.28-7.22-.57-14.68.4-21.83.28-2.25.54-4.45.7-6.59.43-5.62.33-12.13-3.66-17.86v0c-5.88-9-18.14-8.3-30-7.62-3.14.18-6.11.34-9,.34-2.34,0-4.84-.13-7.67-.26-4.39-.19-9-.45-13.5-.7-14.31-.81-29.11-1.64-41.81-.59A87.59,87.59,0,0,0,55.07,4c-26.64,9.16-23.71,26.74-20.6,45.34.21,1.26.42,2.52.62,3.77A16.4,16.4,0,0,1,28.34,69,48.7,48.7,0,0,1,9.81,76.91,167.28,167.28,0,0,1,28,80.23a11.23,11.23,0,0,1,8.25,7.83c1.77,6.55,6.3,11.19,14.25,14.6a36.68,36.68,0,0,0,9.21,1c3.24.11,6.61.14,10.36.08,3.47-.06,6.88-.19,10.08-.31,9.61-.8,19.23-.46,29.9,0l1.6.08,5.86.26Z"/><path d="M52.8,21.07a3.45,3.45,0,0,1-.23,1.32,2.44,2.44,0,0,1-.68,1,2.78,2.78,0,0,1-1.08.6,5,5,0,0,1-1.53.21h-.73V27a.17.17,0,0,1,0,.12.27.27,0,0,1-.15.09,1.22,1.22,0,0,1-.27.06l-.44,0-.43,0a1.33,1.33,0,0,1-.28-.06.24.24,0,0,1-.14-.09.16.16,0,0,1,0-.12V19a.65.65,0,0,1,.16-.48.62.62,0,0,1,.45-.16h2.08a5.74,5.74,0,0,1,.6,0,5.59,5.59,0,0,1,.68.1,3,3,0,0,1,.8.29,2.64,2.64,0,0,1,.7.53,2.27,2.27,0,0,1,.43.76A3,3,0,0,1,52.8,21.07Zm-1.88.13a1.6,1.6,0,0,0-.16-.77,1.08,1.08,0,0,0-.4-.44,1.2,1.2,0,0,0-.51-.18,3.12,3.12,0,0,0-.54,0h-.76v3h.8a1.87,1.87,0,0,0,.72-.12,1.1,1.1,0,0,0,.48-.32,1.44,1.44,0,0,0,.28-.5A2.08,2.08,0,0,0,50.92,21.2Z"/><path d="M59.6,27a.16.16,0,0,1,0,.12.19.19,0,0,1-.12.09.9.9,0,0,1-.22.05l-.35,0-.37,0a.9.9,0,0,1-.22-.05.27.27,0,0,1-.12-.09.21.21,0,0,1,0-.12v-.7a3.75,3.75,0,0,1-1,.82,2.33,2.33,0,0,1-1.08.27,2.42,2.42,0,0,1-1.06-.2,1.9,1.9,0,0,1-.69-.56,2.43,2.43,0,0,1-.38-.83,5.37,5.37,0,0,1-.11-1.16V20.9a.16.16,0,0,1,0-.12.21.21,0,0,1,.14-.09,1.2,1.2,0,0,1,.26-.05l.42,0,.41,0a1.46,1.46,0,0,1,.27.05.28.28,0,0,1,.14.09.21.21,0,0,1,0,.12v3.44a3.3,3.3,0,0,0,.06.73,1.18,1.18,0,0,0,.19.44.87.87,0,0,0,.32.28,1.06,1.06,0,0,0,.45.1,1.12,1.12,0,0,0,.66-.24,3.85,3.85,0,0,0,.71-.7V20.9a.16.16,0,0,1,0-.12.22.22,0,0,1,.13-.09,1.46,1.46,0,0,1,.27-.05l.41,0,.42,0a1.2,1.2,0,0,1,.26.05.28.28,0,0,1,.14.09.16.16,0,0,1,0,.12Z"/><path d="M66.68,23.77a.62.62,0,0,1-.14.46.49.49,0,0,1-.38.15H62.44a2.59,2.59,0,0,0,.1.71,1.41,1.41,0,0,0,.29.54,1.27,1.27,0,0,0,.52.34,2.18,2.18,0,0,0,.76.11A4.54,4.54,0,0,0,64.9,26a5.39,5.39,0,0,0,.6-.14l.41-.15a.83.83,0,0,1,.27-.06l.1,0a.22.22,0,0,1,.07.09.61.61,0,0,1,0,.17v.54c0,.07,0,.13,0,.18a.4.4,0,0,1,0,.13l-.08.1A.87.87,0,0,1,66,27a4.27,4.27,0,0,1-.5.16c-.21,0-.44.1-.71.14a7.34,7.34,0,0,1-.85.05,4.39,4.39,0,0,1-1.42-.2,2.47,2.47,0,0,1-1.64-1.68,5.07,5.07,0,0,1-.2-1.49,4.43,4.43,0,0,1,.22-1.46,3,3,0,0,1,.61-1.11,2.73,2.73,0,0,1,1-.69,3.38,3.38,0,0,1,1.3-.24,3.42,3.42,0,0,1,1.31.22,2.36,2.36,0,0,1,.9.63,2.52,2.52,0,0,1,.51.94,4.17,4.17,0,0,1,.16,1.19ZM65,23.28a1.7,1.7,0,0,0-.29-1.14,1.1,1.1,0,0,0-1-.42,1.14,1.14,0,0,0-.57.13,1.16,1.16,0,0,0-.4.33,1.51,1.51,0,0,0-.25.49,2.88,2.88,0,0,0-.1.61Z"/><path d="M72.11,25.27a2,2,0,0,1-.2.92,1.74,1.74,0,0,1-.55.66,2.34,2.34,0,0,1-.84.4,3.87,3.87,0,0,1-1,.13,3.43,3.43,0,0,1-.65-.05,3.86,3.86,0,0,1-.56-.13,2.34,2.34,0,0,1-.41-.16.83.83,0,0,1-.24-.15.41.41,0,0,1-.11-.23,1.64,1.64,0,0,1,0-.45,2.58,2.58,0,0,1,0-.32.78.78,0,0,1,0-.19.2.2,0,0,1,.07-.1l.1,0a.5.5,0,0,1,.22.09l.37.18a2.48,2.48,0,0,0,.51.19,2.19,2.19,0,0,0,.66.09,1.32,1.32,0,0,0,.41-.05.88.88,0,0,0,.31-.13.66.66,0,0,0,.21-.23.75.75,0,0,0,.06-.31.51.51,0,0,0-.12-.35A1.14,1.14,0,0,0,70,24.8c-.14-.07-.29-.14-.47-.21L69,24.38a4.43,4.43,0,0,1-.54-.26,2.4,2.4,0,0,1-.47-.37,1.59,1.59,0,0,1-.33-.53,1.82,1.82,0,0,1-.13-.74,1.91,1.91,0,0,1,.17-.8,1.86,1.86,0,0,1,.49-.63,2.61,2.61,0,0,1,.78-.4,3.4,3.4,0,0,1,1-.14,3.43,3.43,0,0,1,.56,0l.49.1.37.13a.86.86,0,0,1,.21.13.41.41,0,0,1,.09.1.21.21,0,0,1,0,.12l0,.18c0,.07,0,.16,0,.26s0,.23,0,.3a.78.78,0,0,1,0,.19.15.15,0,0,1-.06.09.16.16,0,0,1-.1,0,.44.44,0,0,1-.19-.07c-.09,0-.19-.1-.32-.15a2.37,2.37,0,0,0-.45-.15,2.16,2.16,0,0,0-.59-.08,1.56,1.56,0,0,0-.4.05.67.67,0,0,0-.28.14.56.56,0,0,0-.17.21.7.7,0,0,0,0,.25.52.52,0,0,0,.13.36,1.3,1.3,0,0,0,.34.25l.48.21.55.21a4.55,4.55,0,0,1,.55.26,1.92,1.92,0,0,1,.48.37,1.7,1.7,0,0,1,.47,1.24Z"/><path d="M79.54,27.23l-.74,2.16a.44.44,0,0,1-.33.24,3.23,3.23,0,0,1-.8.08,2.51,2.51,0,0,1-.44,0,.68.68,0,0,1-.25-.07.24.24,0,0,1-.09-.14.42.42,0,0,1,0-.2l.81-2a.48.48,0,0,1-.16-.13.87.87,0,0,1-.11-.18l-2.1-5.61A1.07,1.07,0,0,1,75.3,21a.23.23,0,0,1,.08-.2.49.49,0,0,1,.27-.1,3.64,3.64,0,0,1,.52,0h.47a1.2,1.2,0,0,1,.26.05.32.32,0,0,1,.15.13,1.54,1.54,0,0,1,.09.24l1.44,4.08h0L79.91,21c0-.12.06-.2.11-.23a.41.41,0,0,1,.21-.09,3.16,3.16,0,0,1,.53,0,3.38,3.38,0,0,1,.49,0,.57.57,0,0,1,.28.1.27.27,0,0,1,.1.21.88.88,0,0,1-.06.29Z"/><path d="M88.37,23.88a4.62,4.62,0,0,1-.2,1.43,3.21,3.21,0,0,1-.62,1.1,2.81,2.81,0,0,1-1,.72,3.9,3.9,0,0,1-1.47.25,4,4,0,0,1-1.41-.22,2.43,2.43,0,0,1-1-.66A2.68,2.68,0,0,1,82,25.44,4.85,4.85,0,0,1,81.84,24a4.62,4.62,0,0,1,.21-1.43,3,3,0,0,1,.62-1.11,2.91,2.91,0,0,1,1-.71,3.81,3.81,0,0,1,1.46-.25,4,4,0,0,1,1.42.22,2.48,2.48,0,0,1,1,.65,2.79,2.79,0,0,1,.58,1.06A4.88,4.88,0,0,1,88.37,23.88ZM86.6,24a4.28,4.28,0,0,0-.07-.83,2.15,2.15,0,0,0-.24-.66,1.38,1.38,0,0,0-.46-.44,1.49,1.49,0,0,0-.71-.15,1.41,1.41,0,0,0-.67.14,1.16,1.16,0,0,0-.47.41,1.75,1.75,0,0,0-.28.65,3.72,3.72,0,0,0-.09.86,4.28,4.28,0,0,0,.07.83,1.78,1.78,0,0,0,.25.66,1.19,1.19,0,0,0,.45.44,1.52,1.52,0,0,0,.71.15,1.59,1.59,0,0,0,.68-.14,1.16,1.16,0,0,0,.47-.41,1.87,1.87,0,0,0,.27-.64A3.81,3.81,0,0,0,86.6,24Z"/><path d="M96.63,25.27a2.07,2.07,0,0,1-.19.92,2,2,0,0,1-.55.66,2.51,2.51,0,0,1-.84.4,4,4,0,0,1-1.06.13,3.49,3.49,0,0,1-.65-.05,3.86,3.86,0,0,1-.56-.13,2.34,2.34,0,0,1-.41-.16.83.83,0,0,1-.24-.15.41.41,0,0,1-.11-.23,1.72,1.72,0,0,1,0-.45,2.92,2.92,0,0,1,0-.32.78.78,0,0,1,0-.19.2.2,0,0,1,.07-.1l.1,0a.46.46,0,0,1,.22.09l.37.18a2.48,2.48,0,0,0,.51.19,2.19,2.19,0,0,0,.66.09,1.32,1.32,0,0,0,.41-.05,1,1,0,0,0,.32-.13.63.63,0,0,0,.2-.23.74.74,0,0,0,.07-.31.52.52,0,0,0-.13-.35,1,1,0,0,0-.34-.26,4.32,4.32,0,0,0-.47-.21l-.54-.21a4.43,4.43,0,0,1-.54-.26,2.4,2.4,0,0,1-.47-.37,1.59,1.59,0,0,1-.33-.53,1.82,1.82,0,0,1-.13-.74,1.91,1.91,0,0,1,.17-.8,2,2,0,0,1,.49-.63,2.55,2.55,0,0,1,.79-.4,3.29,3.29,0,0,1,1-.14,3.43,3.43,0,0,1,.56,0l.49.1.37.13a.86.86,0,0,1,.21.13.2.2,0,0,1,.09.1.33.33,0,0,1,.05.12,1.41,1.41,0,0,0,0,.18,2,2,0,0,1,0,.26,2.45,2.45,0,0,1,0,.3.78.78,0,0,1,0,.19.15.15,0,0,1-.06.09.16.16,0,0,1-.1,0,.44.44,0,0,1-.19-.07,3.39,3.39,0,0,0-.32-.15,2.37,2.37,0,0,0-.45-.15,2.1,2.1,0,0,0-.59-.08,1.56,1.56,0,0,0-.4.05.74.74,0,0,0-.28.14.68.68,0,0,0-.17.21.7.7,0,0,0-.05.25.52.52,0,0,0,.13.36,1.3,1.3,0,0,0,.34.25l.48.21c.18.06.37.13.55.21a4.55,4.55,0,0,1,.55.26,1.92,1.92,0,0,1,.48.37,1.7,1.7,0,0,1,.47,1.24Z"/><path d="M99.5,18.83a.93.93,0,0,1-.22.72,1.16,1.16,0,0,1-.78.2,1.19,1.19,0,0,1-.78-.19.92.92,0,0,1-.21-.69,1,1,0,0,1,.21-.72,1.12,1.12,0,0,1,.79-.21,1.16,1.16,0,0,1,.78.2A.92.92,0,0,1,99.5,18.83ZM99.37,27a.21.21,0,0,1,0,.12.27.27,0,0,1-.15.09,1.2,1.2,0,0,1-.26.05l-.41,0-.42,0a1.2,1.2,0,0,1-.26-.05.27.27,0,0,1-.15-.09.21.21,0,0,1,0-.12V20.91a.28.28,0,0,1,0-.12.49.49,0,0,1,.15-.09l.26-.06.42,0,.41,0,.26.06a.49.49,0,0,1,.15.09.28.28,0,0,1,0,.12Z"/><path d="M106.43,23.77a.62.62,0,0,1-.14.46.49.49,0,0,1-.38.15H102.2a2.6,2.6,0,0,0,.09.71,1.41,1.41,0,0,0,.29.54,1.35,1.35,0,0,0,.52.34,2.18,2.18,0,0,0,.76.11,4.66,4.66,0,0,0,.8-.06,5.18,5.18,0,0,0,.59-.14l.41-.15a.83.83,0,0,1,.27-.06l.1,0a.22.22,0,0,1,.07.09.61.61,0,0,1,0,.17c0,.08,0,.17,0,.29a1.85,1.85,0,0,1,0,.25.9.9,0,0,1,0,.18.4.4,0,0,1,0,.13.61.61,0,0,1-.07.1,1.08,1.08,0,0,1-.24.13,5.27,5.27,0,0,1-.51.16c-.21,0-.44.1-.7.14a7.62,7.62,0,0,1-.85.05,4.45,4.45,0,0,1-1.43-.2,2.62,2.62,0,0,1-1-.62,2.58,2.58,0,0,1-.61-1.06,5.41,5.41,0,0,1,0-2.95,3.13,3.13,0,0,1,.61-1.11,2.68,2.68,0,0,1,1-.69,3.31,3.31,0,0,1,1.3-.24,3.46,3.46,0,0,1,1.31.22,2.32,2.32,0,0,1,.89.63,2.52,2.52,0,0,1,.51.94,4.17,4.17,0,0,1,.16,1.19Zm-1.66-.49a1.82,1.82,0,0,0-.29-1.14,1.12,1.12,0,0,0-1-.42,1.21,1.21,0,0,0-.58.13,1.16,1.16,0,0,0-.4.33,1.32,1.32,0,0,0-.24.49,2.36,2.36,0,0,0-.1.61Z"/><path d="M113.39,27a.16.16,0,0,1,0,.12.22.22,0,0,1-.13.09,1.46,1.46,0,0,1-.27.05l-.41,0-.42,0a1.2,1.2,0,0,1-.26-.05.24.24,0,0,1-.14-.09.16.16,0,0,1,0-.12V23.51a2.56,2.56,0,0,0-.07-.69,1.35,1.35,0,0,0-.18-.44,1,1,0,0,0-.32-.28,1.08,1.08,0,0,0-.46-.1,1.12,1.12,0,0,0-.66.24,3.84,3.84,0,0,0-.7.7v4a.16.16,0,0,1,0,.12.24.24,0,0,1-.14.09,1.2,1.2,0,0,1-.26.05l-.42,0-.42,0a1.33,1.33,0,0,1-.26-.05.24.24,0,0,1-.14-.09.16.16,0,0,1,0-.12V20.9a.21.21,0,0,1,0-.12.25.25,0,0,1,.13-.09,1,1,0,0,1,.23-.05l.35,0,.36,0a.8.8,0,0,1,.22.05.27.27,0,0,1,.12.09.21.21,0,0,1,0,.12v.7a3.94,3.94,0,0,1,1-.82,2.34,2.34,0,0,1,1.09-.27,2.55,2.55,0,0,1,1,.2,1.9,1.9,0,0,1,.69.56,2.38,2.38,0,0,1,.38.82,5.37,5.37,0,0,1,.11,1.14Z"/><path d="M118.28,26.39a1.81,1.81,0,0,1,0,.46.38.38,0,0,1-.1.23.7.7,0,0,1-.18.12l-.28.09-.35.05a2.3,2.3,0,0,1-.37,0,2.61,2.61,0,0,1-.89-.13,1.48,1.48,0,0,1-.63-.4,1.7,1.7,0,0,1-.36-.68,3.87,3.87,0,0,1-.11-1V22.06h-.74a.22.22,0,0,1-.19-.16,1.43,1.43,0,0,1-.07-.54,3.22,3.22,0,0,1,0-.33.85.85,0,0,1,.06-.22.24.24,0,0,1,.08-.11.28.28,0,0,1,.12,0H115V19.3a.27.27,0,0,1,0-.12.24.24,0,0,1,.14-.09.9.9,0,0,1,.27-.06h.83a.77.77,0,0,1,.26.06.24.24,0,0,1,.14.09.19.19,0,0,1,0,.12v1.36H118a.28.28,0,0,1,.12,0,.24.24,0,0,1,.08.11.6.6,0,0,1,.05.22,1.62,1.62,0,0,1,0,.33,1.43,1.43,0,0,1-.07.54.22.22,0,0,1-.19.16h-1.34v2.86a1.37,1.37,0,0,0,.16.75.6.6,0,0,0,.56.25l.25,0,.19-.06.14-.05.11,0a.13.13,0,0,1,.08,0,.23.23,0,0,1,.06.09c0,.05,0,.12,0,.2A1.42,1.42,0,0,1,118.28,26.39Z"/><path d="M125.28,23.88a4.62,4.62,0,0,1-.21,1.43,3.05,3.05,0,0,1-.62,1.1,2.81,2.81,0,0,1-1,.72,3.9,3.9,0,0,1-1.47.25,4,4,0,0,1-1.41-.22,2.5,2.5,0,0,1-1-.66,2.8,2.8,0,0,1-.59-1.06,4.85,4.85,0,0,1-.19-1.43,4.62,4.62,0,0,1,.21-1.43,3.16,3.16,0,0,1,.62-1.11,2.91,2.91,0,0,1,1.05-.71,3.81,3.81,0,0,1,1.46-.25,4.13,4.13,0,0,1,1.43.22,2.45,2.45,0,0,1,1,.65,2.66,2.66,0,0,1,.58,1.06A4.86,4.86,0,0,1,125.28,23.88Zm-1.77.07a4.25,4.25,0,0,0-.08-.83,1.73,1.73,0,0,0-.24-.66,1.27,1.27,0,0,0-.45-.44,1.54,1.54,0,0,0-.72-.15,1.44,1.44,0,0,0-.67.14,1.16,1.16,0,0,0-.47.41,1.94,1.94,0,0,0-.28.65,3.72,3.72,0,0,0-.09.86,4.25,4.25,0,0,0,.08.83,2,2,0,0,0,.24.66,1.19,1.19,0,0,0,.45.44A1.55,1.55,0,0,0,122,26a1.59,1.59,0,0,0,.68-.14,1.16,1.16,0,0,0,.47-.41,1.71,1.71,0,0,0,.28-.64A3.81,3.81,0,0,0,123.51,24Z"/><path d="M135,29.41a.2.2,0,0,1,0,.13.36.36,0,0,1-.13.09l-.26.06-.42,0-.42,0-.26-.06a.42.42,0,0,1-.14-.09.28.28,0,0,1,0-.13V26.52a5.09,5.09,0,0,1-.47.39,2.83,2.83,0,0,1-.47.27,2.46,2.46,0,0,1-.48.16,2.82,2.82,0,0,1-.52,0,2.17,2.17,0,0,1-1.91-1,3.29,3.29,0,0,1-.43-1.07,6,6,0,0,1-.14-1.29,5.58,5.58,0,0,1,.18-1.47,3.21,3.21,0,0,1,.52-1.1,2.38,2.38,0,0,1,.84-.71,2.64,2.64,0,0,1,1.16-.24,1.91,1.91,0,0,1,.48,0,1.52,1.52,0,0,1,.47.18,3.63,3.63,0,0,1,.48.32c.16.14.35.3.55.5V20.9a.16.16,0,0,1,0-.12.19.19,0,0,1,.12-.09,1,1,0,0,1,.22-.05l.36,0,.34,0a.9.9,0,0,1,.22.05.19.19,0,0,1,.12.09.21.21,0,0,1,0,.12Zm-1.71-6.49a3.63,3.63,0,0,0-.7-.71,1.16,1.16,0,0,0-.71-.25,1,1,0,0,0-.58.17,1.23,1.23,0,0,0-.39.45,2.39,2.39,0,0,0-.22.62,4.17,4.17,0,0,0-.07.71,4.56,4.56,0,0,0,.06.75,2.48,2.48,0,0,0,.2.65,1.38,1.38,0,0,0,.38.45,1,1,0,0,0,.59.17,1.33,1.33,0,0,0,.34-.05,1.35,1.35,0,0,0,.34-.17,2.38,2.38,0,0,0,.36-.3,5.34,5.34,0,0,0,.4-.47Z"/><path d="M142.26,27a.21.21,0,0,1,0,.12.19.19,0,0,1-.12.09.9.9,0,0,1-.22.05l-.36,0-.36,0a.9.9,0,0,1-.22-.05.19.19,0,0,1-.12-.09.21.21,0,0,1,0-.12v-.7a3.75,3.75,0,0,1-1,.82,2.34,2.34,0,0,1-1.09.27,2.37,2.37,0,0,1-1-.2,1.75,1.75,0,0,1-.69-.56,2.26,2.26,0,0,1-.38-.83,5.37,5.37,0,0,1-.11-1.16V20.9a.16.16,0,0,1,0-.12.22.22,0,0,1,.13-.09,1.46,1.46,0,0,1,.27-.05l.41,0,.42,0a1.2,1.2,0,0,1,.26.05.21.21,0,0,1,.14.09.16.16,0,0,1,0,.12v3.44a3.18,3.18,0,0,0,.07.73,1.35,1.35,0,0,0,.18.44,1,1,0,0,0,.33.28,1.06,1.06,0,0,0,.45.1,1.12,1.12,0,0,0,.66-.24,3.85,3.85,0,0,0,.71-.7V20.9a.21.21,0,0,1,0-.12.28.28,0,0,1,.14-.09l.26-.05.42,0,.42,0a1.2,1.2,0,0,1,.26.05.28.28,0,0,1,.14.09.21.21,0,0,1,0,.12Z"/><path d="M149.34,23.77a.67.67,0,0,1-.14.46.5.5,0,0,1-.39.15H145.1a2.6,2.6,0,0,0,.09.71,1.42,1.42,0,0,0,.3.54A1.21,1.21,0,0,0,146,26a2.14,2.14,0,0,0,.76.11,4.62,4.62,0,0,0,.79-.06,4.71,4.71,0,0,0,.59-.14c.17-.06.31-.1.42-.15a.84.84,0,0,1,.26-.06l.11,0a.2.2,0,0,1,.06.09.61.61,0,0,1,0,.17,2.44,2.44,0,0,1,0,.29v.25l0,.18a.25.25,0,0,1,0,.13.3.3,0,0,1-.07.1,1.08,1.08,0,0,1-.24.13,3.94,3.94,0,0,1-.51.16c-.2,0-.44.1-.7.14a7.62,7.62,0,0,1-.85.05,4.35,4.35,0,0,1-1.42-.2,2.73,2.73,0,0,1-1-.62,2.69,2.69,0,0,1-.61-1.06,5.07,5.07,0,0,1-.2-1.49,4.72,4.72,0,0,1,.21-1.46,3,3,0,0,1,.62-1.11,2.64,2.64,0,0,1,1-.69,3.35,3.35,0,0,1,1.3-.24,3.42,3.42,0,0,1,1.31.22,2.32,2.32,0,0,1,.89.63,2.54,2.54,0,0,1,.52.94,4.56,4.56,0,0,1,.16,1.19Zm-1.67-.49a1.76,1.76,0,0,0-.29-1.14,1.12,1.12,0,0,0-1-.42,1.14,1.14,0,0,0-.57.13,1.08,1.08,0,0,0-.4.33,1.51,1.51,0,0,0-.25.49,2.36,2.36,0,0,0-.1.61Z"/><path d="M159.18,27a.16.16,0,0,1,0,.12.25.25,0,0,1-.13.09,1.46,1.46,0,0,1-.27.05l-.41,0-.42,0a1.46,1.46,0,0,1-.27-.05.25.25,0,0,1-.13-.09.16.16,0,0,1,0-.12V23.51a2.56,2.56,0,0,0-.07-.69,1.18,1.18,0,0,0-.19-.44.84.84,0,0,0-.31-.28,1.06,1.06,0,0,0-1.12.14,3.84,3.84,0,0,0-.7.7v4a.16.16,0,0,1,0,.12.24.24,0,0,1-.14.09,1.33,1.33,0,0,1-.26.05l-.42,0-.42,0a1.33,1.33,0,0,1-.26-.05.24.24,0,0,1-.14-.09.16.16,0,0,1,0-.12V18a.19.19,0,0,1,0-.12.31.31,0,0,1,.14-.09,1.26,1.26,0,0,1,.26-.06l.42,0,.42,0a1.26,1.26,0,0,1,.26.06.31.31,0,0,1,.14.09.19.19,0,0,1,0,.12v3.37a3.5,3.5,0,0,1,.91-.65,2.24,2.24,0,0,1,1-.21,2.55,2.55,0,0,1,1.05.2,2,2,0,0,1,.69.56,2.52,2.52,0,0,1,.38.83,5.4,5.4,0,0,1,.11,1.15Z"/><path d="M165.79,27a.19.19,0,0,1-.07.16.52.52,0,0,1-.22.07,2.24,2.24,0,0,1-.43,0,2.41,2.41,0,0,1-.45,0,.42.42,0,0,1-.2-.07.25.25,0,0,1,0-.16v-.48a2.89,2.89,0,0,1-.86.63,2.5,2.5,0,0,1-1.07.22,3.09,3.09,0,0,1-.89-.12,2,2,0,0,1-.71-.38,1.68,1.68,0,0,1-.46-.62,2.3,2.3,0,0,1,0-1.78,1.64,1.64,0,0,1,.63-.65,3,3,0,0,1,1-.38,6.67,6.67,0,0,1,1.42-.13h.6V23a1.9,1.9,0,0,0-.06-.5.89.89,0,0,0-.19-.36.9.9,0,0,0-.36-.21,2,2,0,0,0-.55-.07,2.66,2.66,0,0,0-.77.1,3.67,3.67,0,0,0-.59.21l-.44.21a.56.56,0,0,1-.28.1.19.19,0,0,1-.13-.05.3.3,0,0,1-.1-.14,1,1,0,0,1-.06-.22,2.3,2.3,0,0,1,0-.28,1.05,1.05,0,0,1,0-.34.46.46,0,0,1,.13-.22,1.09,1.09,0,0,1,.33-.22,4.37,4.37,0,0,1,.56-.22,6,6,0,0,1,.7-.17,5,5,0,0,1,.78-.06,4.43,4.43,0,0,1,1.23.14,2,2,0,0,1,.84.43,1.62,1.62,0,0,1,.48.75,3.43,3.43,0,0,1,.15,1.08ZM164.1,24.4h-.66a3.62,3.62,0,0,0-.71.06,1.78,1.78,0,0,0-.48.19.77.77,0,0,0-.27.3,1,1,0,0,0-.08.4.78.78,0,0,0,.24.6,1,1,0,0,0,.67.22,1.19,1.19,0,0,0,.67-.19,2.68,2.68,0,0,0,.62-.54Z"/><path d="M64.56,37.6a2.07,2.07,0,0,1-.19.92,1.84,1.84,0,0,1-.55.66,2.51,2.51,0,0,1-.84.4,4,4,0,0,1-1.06.13,3.49,3.49,0,0,1-.65-.05,3.86,3.86,0,0,1-.56-.13,2.34,2.34,0,0,1-.41-.16.83.83,0,0,1-.24-.15A.61.61,0,0,1,60,39a1.72,1.72,0,0,1,0-.45,2.92,2.92,0,0,1,0-.32A.78.78,0,0,1,60,38a.2.2,0,0,1,.07-.1l.1,0a.52.52,0,0,1,.23.09l.36.18a3,3,0,0,0,.51.19,2.19,2.19,0,0,0,.66.09,1.68,1.68,0,0,0,.41,0,1.34,1.34,0,0,0,.32-.14.63.63,0,0,0,.2-.23.62.62,0,0,0,.07-.31.48.48,0,0,0-.13-.35,1,1,0,0,0-.33-.26L62,36.92l-.55-.21a3.71,3.71,0,0,1-.53-.26,2.19,2.19,0,0,1-.48-.37,1.59,1.59,0,0,1-.33-.53,1.82,1.82,0,0,1-.13-.74,1.91,1.91,0,0,1,.17-.8,2,2,0,0,1,.49-.63,2.55,2.55,0,0,1,.79-.4,3.33,3.33,0,0,1,1-.14,3.43,3.43,0,0,1,.56,0l.49.1.37.13a.86.86,0,0,1,.21.13.31.31,0,0,1,.1.1s0,.08,0,.12,0,.11,0,.18a2,2,0,0,1,0,.26,2.45,2.45,0,0,1,0,.3c0,.08,0,.14,0,.19a.22.22,0,0,1-.07.09.15.15,0,0,1-.09,0,.47.47,0,0,1-.2-.07,3.39,3.39,0,0,0-.32-.15,2.37,2.37,0,0,0-.45-.15,2.1,2.1,0,0,0-.59-.08,1.62,1.62,0,0,0-.4.05.74.74,0,0,0-.28.14.54.54,0,0,0-.16.21.54.54,0,0,0-.06.25.52.52,0,0,0,.13.36,1.3,1.3,0,0,0,.34.25l.49.21q.27.09.54.21a3.94,3.94,0,0,1,.55.26,1.92,1.92,0,0,1,.48.37,1.56,1.56,0,0,1,.34.52A1.75,1.75,0,0,1,64.56,37.6Z"/><path d="M67.43,31.16a1,1,0,0,1-.21.72,1.21,1.21,0,0,1-.79.2,1.19,1.19,0,0,1-.78-.19.92.92,0,0,1-.21-.69,1,1,0,0,1,.21-.72,1.61,1.61,0,0,1,1.57,0A.92.92,0,0,1,67.43,31.16Zm-.13,8.16a.21.21,0,0,1,0,.12.28.28,0,0,1-.14.09,1.46,1.46,0,0,1-.27,0l-.41,0-.42,0a1.2,1.2,0,0,1-.26,0,.21.21,0,0,1-.14-.09.17.17,0,0,1-.05-.12V33.24a.21.21,0,0,1,.05-.12.33.33,0,0,1,.14-.09L66,33l.42,0,.41,0,.27.06a.56.56,0,0,1,.14.09.28.28,0,0,1,0,.12Z"/><path d="M74.52,39.32a.18.18,0,0,1,0,.13s-.06.06-.11.09a.68.68,0,0,1-.23,0l-.34,0-.36,0a.67.67,0,0,1-.22,0c-.06,0-.1,0-.12-.09a.18.18,0,0,1,0-.13v-.67a3.54,3.54,0,0,1-1,.78,2.29,2.29,0,0,1-1.14.28,2.24,2.24,0,0,1-2-1,3.3,3.3,0,0,1-.44-1.07,6,6,0,0,1-.13-1.29,5.6,5.6,0,0,1,.17-1.47,3.39,3.39,0,0,1,.51-1.1,2.27,2.27,0,0,1,.83-.71,2.66,2.66,0,0,1,1.15-.24,2.05,2.05,0,0,1,.93.21,3.14,3.14,0,0,1,.83.61v-3.3a.2.2,0,0,1,0-.13.36.36,0,0,1,.13-.09l.27-.06.41,0,.42,0,.26.06a.56.56,0,0,1,.14.09.28.28,0,0,1,0,.13Zm-1.71-4.07a3.64,3.64,0,0,0-.71-.71,1.16,1.16,0,0,0-.71-.25,1,1,0,0,0-.57.17,1.07,1.07,0,0,0-.39.45,2.39,2.39,0,0,0-.22.62,3.35,3.35,0,0,0-.07.71,4.56,4.56,0,0,0,.06.75,2.4,2.4,0,0,0,.2.64,1.3,1.3,0,0,0,.37.46,1,1,0,0,0,.59.17,1.27,1.27,0,0,0,.34,0,1.41,1.41,0,0,0,.35-.17,3,3,0,0,0,.35-.3,5.3,5.3,0,0,0,.41-.47Z"/><path d="M82.13,36.21a4.94,4.94,0,0,1-.2,1.43,3.21,3.21,0,0,1-.62,1.1,2.81,2.81,0,0,1-1,.72,3.9,3.9,0,0,1-1.47.25,4.11,4.11,0,0,1-1.42-.22,2.47,2.47,0,0,1-1-.66,2.68,2.68,0,0,1-.59-1.06,4.85,4.85,0,0,1-.19-1.43,4.62,4.62,0,0,1,.21-1.43,2.88,2.88,0,0,1,.62-1.11,3,3,0,0,1,1-.71,3.9,3.9,0,0,1,1.47-.25,4,4,0,0,1,1.42.22,2.55,2.55,0,0,1,1,.65,2.79,2.79,0,0,1,.58,1.06A4.88,4.88,0,0,1,82.13,36.21Zm-1.77.07a4.35,4.35,0,0,0-.07-.83,2.15,2.15,0,0,0-.24-.66,1.38,1.38,0,0,0-.46-.44,1.49,1.49,0,0,0-.71-.15,1.41,1.41,0,0,0-.67.14,1.16,1.16,0,0,0-.47.41,1.75,1.75,0,0,0-.28.65,3.72,3.72,0,0,0-.09.86,4.28,4.28,0,0,0,.07.83,2,2,0,0,0,.24.66,1.29,1.29,0,0,0,.46.44,1.52,1.52,0,0,0,.71.15,1.59,1.59,0,0,0,.68-.14,1.16,1.16,0,0,0,.47-.41,1.87,1.87,0,0,0,.27-.64A3.81,3.81,0,0,0,80.36,36.28Z"/><path d="M91.88,39.32a.21.21,0,0,1,0,.12.27.27,0,0,1-.12.09l-.23,0-.35,0-.37,0a1,1,0,0,1-.22,0,.27.27,0,0,1-.12-.09.21.21,0,0,1,0-.12v-.7a3.75,3.75,0,0,1-1,.82,2.33,2.33,0,0,1-1.08.27,2.42,2.42,0,0,1-1.06-.2,1.9,1.9,0,0,1-.69-.56,2.24,2.24,0,0,1-.37-.83A4.75,4.75,0,0,1,86.06,37V33.23a.21.21,0,0,1,0-.12.24.24,0,0,1,.14-.09A1.2,1.2,0,0,1,86.5,33l.42,0,.41,0a1.46,1.46,0,0,1,.27.05.28.28,0,0,1,.14.09.16.16,0,0,1,0,.12v3.44a3.3,3.3,0,0,0,.06.73,1.18,1.18,0,0,0,.19.44.87.87,0,0,0,.32.28,1.06,1.06,0,0,0,.45.1,1.12,1.12,0,0,0,.66-.24,3.85,3.85,0,0,0,.71-.7V33.23a.16.16,0,0,1,0-.12.21.21,0,0,1,.14-.09,1.2,1.2,0,0,1,.26-.05L91,33l.41,0a1.2,1.2,0,0,1,.26.05.24.24,0,0,1,.14.09.16.16,0,0,1,0,.12Z"/><path d="M99.15,39.32a.16.16,0,0,1,0,.12.22.22,0,0,1-.13.09,1.31,1.31,0,0,1-.27,0l-.41,0-.42,0a1.2,1.2,0,0,1-.26,0,.24.24,0,0,1-.14-.09.16.16,0,0,1,0-.12V35.84a2.56,2.56,0,0,0-.07-.69,1.35,1.35,0,0,0-.18-.44,1,1,0,0,0-.32-.28,1.08,1.08,0,0,0-.46-.1,1.12,1.12,0,0,0-.66.24,3.84,3.84,0,0,0-.7.7v4a.16.16,0,0,1,0,.12.24.24,0,0,1-.14.09,1.2,1.2,0,0,1-.26,0l-.42,0-.42,0-.26,0a.28.28,0,0,1-.14-.09.16.16,0,0,1,0-.12V33.23a.21.21,0,0,1,0-.12.25.25,0,0,1,.13-.09,1,1,0,0,1,.23-.05l.35,0,.36,0a.8.8,0,0,1,.22.05.23.23,0,0,1,.12.09.21.21,0,0,1,0,.12v.7a3.94,3.94,0,0,1,1-.82,2.34,2.34,0,0,1,1.09-.27,2.55,2.55,0,0,1,1,.2,1.9,1.9,0,0,1,.69.56,2.38,2.38,0,0,1,.38.82,4.79,4.79,0,0,1,.11,1.14Z"/><path d="M107.36,33.79c0,.17,0,.3,0,.41a1.19,1.19,0,0,1,0,.24.32.32,0,0,1-.07.13.2.2,0,0,1-.11,0l-.13,0-.15,0-.19-.06-.23,0a.71.71,0,0,0-.28.06,1.19,1.19,0,0,0-.3.18,2,2,0,0,0-.32.33,5.1,5.1,0,0,0-.36.5v3.8a.16.16,0,0,1,0,.12.24.24,0,0,1-.14.09,1.33,1.33,0,0,1-.26,0l-.42,0-.42,0a1.2,1.2,0,0,1-.26,0,.24.24,0,0,1-.14-.09.16.16,0,0,1,0-.12V33.23a.21.21,0,0,1,0-.12.23.23,0,0,1,.12-.09l.23-.05.36,0,.36,0a.9.9,0,0,1,.22.05.2.2,0,0,1,.11.09.16.16,0,0,1,0,.12V34a5.16,5.16,0,0,1,.45-.57,2.44,2.44,0,0,1,.4-.35,1.18,1.18,0,0,1,.38-.18,1.31,1.31,0,0,1,.39,0h.19l.21,0,.19.06a.33.33,0,0,1,.12.06.16.16,0,0,1,.06.08.53.53,0,0,1,0,.11c0,.05,0,.12,0,.21Z"/><path d="M113,39.34a.19.19,0,0,1-.07.16.43.43,0,0,1-.21.07,2.36,2.36,0,0,1-.44,0,2.29,2.29,0,0,1-.44,0,.38.38,0,0,1-.2-.07.21.21,0,0,1-.06-.16v-.48a2.77,2.77,0,0,1-.86.63,2.5,2.5,0,0,1-1.07.22,3.14,3.14,0,0,1-.89-.12,2,2,0,0,1-.7-.38,1.58,1.58,0,0,1-.46-.62,2.06,2.06,0,0,1-.17-.86,1.92,1.92,0,0,1,.21-.92,1.68,1.68,0,0,1,.62-.65,3.12,3.12,0,0,1,1-.38,6.77,6.77,0,0,1,1.43-.13h.59v-.37a2.49,2.49,0,0,0,0-.5,1,1,0,0,0-.19-.36.9.9,0,0,0-.36-.21,2.11,2.11,0,0,0-.55-.07,2.61,2.61,0,0,0-.77.1,3.48,3.48,0,0,0-.6.21l-.43.21a.59.59,0,0,1-.29.1.21.21,0,0,1-.13,0,.39.39,0,0,1-.1-.14,1,1,0,0,1-.05-.22,1.23,1.23,0,0,1,0-.28,1.52,1.52,0,0,1,0-.34.56.56,0,0,1,.13-.22,1.17,1.17,0,0,1,.34-.22,3.44,3.44,0,0,1,.56-.22,5.53,5.53,0,0,1,.7-.17,4.93,4.93,0,0,1,.78-.06,4.43,4.43,0,0,1,1.23.14,1.93,1.93,0,0,1,.83.43,1.62,1.62,0,0,1,.48.75,3.43,3.43,0,0,1,.15,1.08Zm-1.69-2.61h-.65a3.55,3.55,0,0,0-.71.06,1.55,1.55,0,0,0-.48.19.77.77,0,0,0-.27.3.84.84,0,0,0-.09.4.76.76,0,0,0,.25.6,1,1,0,0,0,.67.22,1.24,1.24,0,0,0,.67-.19,2.66,2.66,0,0,0,.61-.54Z"/><path d="M118,38.72a2.43,2.43,0,0,1,0,.46.45.45,0,0,1-.1.23.7.7,0,0,1-.18.12l-.28.09-.35.05a2.36,2.36,0,0,1-.38,0,2.65,2.65,0,0,1-.89-.13,1.39,1.39,0,0,1-.62-.4,1.7,1.7,0,0,1-.36-.68,3.43,3.43,0,0,1-.12-1V34.39h-.73c-.09,0-.15-.06-.2-.16a1.67,1.67,0,0,1-.07-.54,2.92,2.92,0,0,1,0-.33.9.9,0,0,1,0-.22s0-.09.09-.11a.21.21,0,0,1,.12,0h.72V31.63a.19.19,0,0,1,0-.12.21.21,0,0,1,.14-.09.77.77,0,0,1,.26-.06h.84a.77.77,0,0,1,.26.06.22.22,0,0,1,.18.21V33h1.32a.21.21,0,0,1,.12,0,.2.2,0,0,1,.09.11.9.9,0,0,1,.05.22,2.92,2.92,0,0,1,0,.33,1.43,1.43,0,0,1-.07.54c0,.1-.11.16-.2.16h-1.33v2.86a1.37,1.37,0,0,0,.16.75.6.6,0,0,0,.56.25l.24,0,.2-.06.14-.05a.23.23,0,0,1,.11,0,.11.11,0,0,1,.07,0s0,.05.06.09a.88.88,0,0,1,0,.2A2.54,2.54,0,0,1,118,38.72Z"/><path d="M124.94,36.21a4.94,4.94,0,0,1-.2,1.43,3.07,3.07,0,0,1-.63,1.1,2.7,2.7,0,0,1-1,.72,3.9,3.9,0,0,1-1.47.25,4.07,4.07,0,0,1-1.42-.22,2.57,2.57,0,0,1-1-.66,2.79,2.79,0,0,1-.58-1.06,4.85,4.85,0,0,1-.19-1.43,4.94,4.94,0,0,1,.2-1.43,3,3,0,0,1,.63-1.11,2.87,2.87,0,0,1,1-.71,3.9,3.9,0,0,1,1.47-.25,4,4,0,0,1,1.42.22,2.55,2.55,0,0,1,1,.65,2.79,2.79,0,0,1,.58,1.06A4.88,4.88,0,0,1,124.94,36.21Zm-1.77.07a4.35,4.35,0,0,0-.07-.83,2.15,2.15,0,0,0-.24-.66,1.38,1.38,0,0,0-.46-.44,1.52,1.52,0,0,0-.71-.15,1.41,1.41,0,0,0-.67.14,1.16,1.16,0,0,0-.47.41,1.75,1.75,0,0,0-.28.65,3.72,3.72,0,0,0-.09.86,4.28,4.28,0,0,0,.07.83,2,2,0,0,0,.24.66,1.29,1.29,0,0,0,.46.44,1.52,1.52,0,0,0,.71.15,1.62,1.62,0,0,0,.68-.14,1.23,1.23,0,0,0,.47-.41,1.87,1.87,0,0,0,.27-.64A3.81,3.81,0,0,0,123.17,36.28Z"/><path d="M138.61,39.32a.21.21,0,0,1,0,.12.28.28,0,0,1-.14.09,1.2,1.2,0,0,1-.26,0l-.42,0-.42,0a1.46,1.46,0,0,1-.27,0,.22.22,0,0,1-.13-.09.16.16,0,0,1,0-.12V35.71a2.4,2.4,0,0,0-.06-.56,1.35,1.35,0,0,0-.18-.44.74.74,0,0,0-.3-.28.94.94,0,0,0-.43-.1,1,1,0,0,0-.62.24,4.58,4.58,0,0,0-.69.7v4a.16.16,0,0,1,0,.12.21.21,0,0,1-.14.09,1.2,1.2,0,0,1-.26,0l-.41,0-.42,0a1.33,1.33,0,0,1-.26,0,.24.24,0,0,1-.14-.09.16.16,0,0,1,0-.12V35.71a2.4,2.4,0,0,0-.06-.56,1.62,1.62,0,0,0-.17-.44.89.89,0,0,0-.3-.28,1,1,0,0,0-.44-.1,1,1,0,0,0-.62.24,4.15,4.15,0,0,0-.68.7v4a.16.16,0,0,1,0,.12.28.28,0,0,1-.14.09,1.46,1.46,0,0,1-.27,0l-.41,0-.42,0a1.2,1.2,0,0,1-.26,0,.24.24,0,0,1-.14-.09.16.16,0,0,1,0-.12V33.23a.21.21,0,0,1,0-.12.19.19,0,0,1,.12-.09l.23-.05.35,0,.37,0a.9.9,0,0,1,.22.05.2.2,0,0,1,.11.09.21.21,0,0,1,0,.12v.7a3.88,3.88,0,0,1,1-.82,2.15,2.15,0,0,1,1-.27,2.4,2.4,0,0,1,.68.08,1.86,1.86,0,0,1,.54.22,1.71,1.71,0,0,1,.4.35,2,2,0,0,1,.29.46,4.92,4.92,0,0,1,.54-.5,2.64,2.64,0,0,1,.52-.35,2.69,2.69,0,0,1,.51-.2,2.31,2.31,0,0,1,.52-.06,2.42,2.42,0,0,1,1,.2,1.75,1.75,0,0,1,.67.56,2.37,2.37,0,0,1,.37.82,4.64,4.64,0,0,1,.11,1Z"/><path d="M145.8,39.32a.16.16,0,0,1,0,.12.19.19,0,0,1-.12.09.9.9,0,0,1-.22,0l-.35,0-.37,0a.9.9,0,0,1-.22,0,.23.23,0,0,1-.12-.09.21.21,0,0,1,0-.12v-.7a3.75,3.75,0,0,1-1,.82,2.33,2.33,0,0,1-1.08.27,2.39,2.39,0,0,1-1.06-.2,1.82,1.82,0,0,1-.69-.56,2.26,2.26,0,0,1-.38-.83A5.37,5.37,0,0,1,140,37V33.23a.16.16,0,0,1,0-.12.21.21,0,0,1,.14-.09,1.2,1.2,0,0,1,.26-.05l.42,0,.41,0a1.46,1.46,0,0,1,.27.05.28.28,0,0,1,.14.09.21.21,0,0,1,0,.12v3.44a3.3,3.3,0,0,0,.06.73,1.18,1.18,0,0,0,.19.44.87.87,0,0,0,.32.28,1.06,1.06,0,0,0,.45.1,1.12,1.12,0,0,0,.66-.24,3.85,3.85,0,0,0,.71-.7V33.23a.16.16,0,0,1,0-.12.22.22,0,0,1,.13-.09,1.46,1.46,0,0,1,.27-.05l.41,0,.42,0a1.2,1.2,0,0,1,.26.05.28.28,0,0,1,.14.09.21.21,0,0,1,0,.12Z"/><path d="M150.78,39.56,150,41.72a.44.44,0,0,1-.33.24,3.17,3.17,0,0,1-.8.08,2.59,2.59,0,0,1-.44,0,.57.57,0,0,1-.24-.07.17.17,0,0,1-.09-.14.31.31,0,0,1,0-.2l.81-2a.48.48,0,0,1-.16-.13.87.87,0,0,1-.11-.18l-2.09-5.61a1.15,1.15,0,0,1-.09-.36.23.23,0,0,1,.08-.2.53.53,0,0,1,.28-.1,3.39,3.39,0,0,1,.51,0h.47a1.2,1.2,0,0,1,.26,0,.32.32,0,0,1,.15.13,1.54,1.54,0,0,1,.09.24l1.44,4.08h0l1.31-4.16c0-.12.06-.2.11-.23a.41.41,0,0,1,.21-.09,3.16,3.16,0,0,1,.53,0,3.38,3.38,0,0,1,.49,0,.57.57,0,0,1,.28.1.24.24,0,0,1,.1.21.88.88,0,0,1-.06.29Z"/><path d="M59.26,45.55v.08s0,.07,0,.11a.79.79,0,0,1,0,.13,1.36,1.36,0,0,1,0,.17l-1.83,5.52a1.14,1.14,0,0,1-.09.19.53.53,0,0,1-.2.11,1.55,1.55,0,0,1-.36,0l-.6,0-.59,0a1.49,1.49,0,0,1-.36-.06.36.36,0,0,1-.19-.11l-.09-.18L53,46A1.4,1.4,0,0,1,53,45.8a.8.8,0,0,1,0-.16s0-.06,0-.09a.21.21,0,0,1,0-.12.42.42,0,0,1,.14-.09,1.3,1.3,0,0,1,.26,0l.42,0,.45,0a1.46,1.46,0,0,1,.27.05.24.24,0,0,1,.14.09.46.46,0,0,1,.07.14l1.39,4.47,0,.18,0-.18,1.37-4.47a.3.3,0,0,1,.06-.14.28.28,0,0,1,.14-.09A1.2,1.2,0,0,1,58,45.3l.42,0,.41,0a1.18,1.18,0,0,1,.25,0,.31.31,0,0,1,.12.09A.16.16,0,0,1,59.26,45.55Z"/><path d="M65,51.67a.19.19,0,0,1-.07.16.47.47,0,0,1-.21.07,2.44,2.44,0,0,1-.44,0,2.49,2.49,0,0,1-.45,0,.34.34,0,0,1-.19-.07.21.21,0,0,1-.06-.16v-.48a2.77,2.77,0,0,1-.86.63,2.5,2.5,0,0,1-1.07.22,3.14,3.14,0,0,1-.89-.12,2.11,2.11,0,0,1-.71-.38,1.8,1.8,0,0,1-.46-.62,2.06,2.06,0,0,1-.16-.86,2,2,0,0,1,.21-.93,1.65,1.65,0,0,1,.62-.64,2.91,2.91,0,0,1,1-.38A6.71,6.71,0,0,1,62.7,48h.59v-.37a1.85,1.85,0,0,0-.06-.5.89.89,0,0,0-.19-.36.93.93,0,0,0-.35-.21,2.17,2.17,0,0,0-.55-.07,2.57,2.57,0,0,0-.77.1,3.48,3.48,0,0,0-.6.21l-.43.21a.62.62,0,0,1-.29.1.21.21,0,0,1-.13-.05.39.39,0,0,1-.1-.14,2.18,2.18,0,0,1-.06-.22,2.3,2.3,0,0,1,0-.28,1.44,1.44,0,0,1,0-.34.46.46,0,0,1,.13-.22,1.09,1.09,0,0,1,.33-.22,4.37,4.37,0,0,1,.56-.22,6.52,6.52,0,0,1,.7-.17,5.16,5.16,0,0,1,.79-.06,4.35,4.35,0,0,1,1.22.14,2,2,0,0,1,.84.43,1.62,1.62,0,0,1,.48.75A3.43,3.43,0,0,1,65,47.57Zm-1.69-2.61h-.65a3.73,3.73,0,0,0-.72.06,1.59,1.59,0,0,0-.47.19.64.64,0,0,0-.27.3.84.84,0,0,0-.09.4.78.78,0,0,0,.24.6,1,1,0,0,0,.68.22,1.18,1.18,0,0,0,.66-.19,2.49,2.49,0,0,0,.62-.54Z"/><path d="M68.14,51.65a.16.16,0,0,1,0,.12.28.28,0,0,1-.14.09,1.46,1.46,0,0,1-.27,0l-.41,0-.42,0a1.2,1.2,0,0,1-.26,0,.21.21,0,0,1-.14-.09.16.16,0,0,1,0-.12v-9a.2.2,0,0,1,0-.13.21.21,0,0,1,.14-.09,1.12,1.12,0,0,1,.26-.06l.42,0,.41,0a1.37,1.37,0,0,1,.27.06.28.28,0,0,1,.14.09.2.2,0,0,1,0,.13Z"/><path d="M71.43,43.49a1,1,0,0,1-.21.72,1.21,1.21,0,0,1-.79.2,1.19,1.19,0,0,1-.78-.19.92.92,0,0,1-.21-.69,1,1,0,0,1,.21-.73,1.19,1.19,0,0,1,.79-.2,1.13,1.13,0,0,1,.78.2A.92.92,0,0,1,71.43,43.49Zm-.13,8.16a.21.21,0,0,1,0,.12.28.28,0,0,1-.14.09,1.46,1.46,0,0,1-.27,0l-.41,0-.42,0a1.2,1.2,0,0,1-.26,0,.21.21,0,0,1-.14-.09.17.17,0,0,1-.05-.12V45.57a.17.17,0,0,1,.05-.12.33.33,0,0,1,.14-.09L70,45.3l.42,0,.41,0,.27.06a.56.56,0,0,1,.14.09.21.21,0,0,1,0,.12Z"/><path d="M78.9,48.54A4.62,4.62,0,0,1,78.69,50a2.91,2.91,0,0,1-.62,1.1,2.86,2.86,0,0,1-1,.72,3.9,3.9,0,0,1-1.47.25,4,4,0,0,1-1.42-.22,2.57,2.57,0,0,1-1-.66,2.66,2.66,0,0,1-.58-1.06,4.84,4.84,0,0,1-.2-1.43,4.62,4.62,0,0,1,.21-1.43,3,3,0,0,1,.63-1.11,2.87,2.87,0,0,1,1-.71,3.9,3.9,0,0,1,1.47-.25,4.07,4.07,0,0,1,1.42.22,2.45,2.45,0,0,1,1,.65,2.68,2.68,0,0,1,.59,1.06A4.88,4.88,0,0,1,78.9,48.54Zm-1.77.07a5.25,5.25,0,0,0-.07-.83,1.93,1.93,0,0,0-.25-.66,1.19,1.19,0,0,0-.45-.44,1.54,1.54,0,0,0-.72-.15,1.39,1.39,0,0,0-.66.14,1.19,1.19,0,0,0-.48.41,1.93,1.93,0,0,0-.27.65,3.22,3.22,0,0,0-.1.86,4.25,4.25,0,0,0,.08.83,2.15,2.15,0,0,0,.24.66,1.22,1.22,0,0,0,.46.44,1.52,1.52,0,0,0,.71.15,1.54,1.54,0,0,0,.67-.14,1.19,1.19,0,0,0,.48-.41,1.87,1.87,0,0,0,.27-.64A3.81,3.81,0,0,0,77.13,48.61Z"/><path d="M84.27,49.93a2.07,2.07,0,0,1-.19.92,2,2,0,0,1-.55.66,2.51,2.51,0,0,1-.84.4,4,4,0,0,1-1.06.13A3.49,3.49,0,0,1,81,52a2.88,2.88,0,0,1-.56-.13A2.34,2.34,0,0,1,80,51.7a.83.83,0,0,1-.24-.15.45.45,0,0,1-.11-.23,1.72,1.72,0,0,1,0-.45,2.92,2.92,0,0,1,0-.32.78.78,0,0,1,0-.19.2.2,0,0,1,.07-.1l.1,0a.54.54,0,0,1,.22.08l.37.19a4.23,4.23,0,0,0,.51.19,2.19,2.19,0,0,0,.66.09,1.73,1.73,0,0,0,.41,0,1.34,1.34,0,0,0,.32-.14.63.63,0,0,0,.2-.23.74.74,0,0,0,.07-.31.48.48,0,0,0-.13-.35,1.09,1.09,0,0,0-.33-.26l-.48-.21L81.12,49c-.18-.08-.36-.16-.54-.26a2.4,2.4,0,0,1-.47-.37,1.59,1.59,0,0,1-.33-.53,1.82,1.82,0,0,1-.13-.74,1.91,1.91,0,0,1,.17-.8,2,2,0,0,1,.49-.63,2.55,2.55,0,0,1,.79-.4,3.29,3.29,0,0,1,1-.14,3.43,3.43,0,0,1,.56,0l.49.1.37.13a.86.86,0,0,1,.21.13.17.17,0,0,1,.09.1.33.33,0,0,1,.05.12,1.41,1.41,0,0,0,0,.18,2,2,0,0,1,0,.26,2.45,2.45,0,0,1,0,.3c0,.08,0,.14,0,.19a.22.22,0,0,1-.07.09.15.15,0,0,1-.09,0,.43.43,0,0,1-.2-.07,2,2,0,0,0-.32-.15,2.37,2.37,0,0,0-.45-.15,2.1,2.1,0,0,0-.59-.08,1.56,1.56,0,0,0-.4,0,.74.74,0,0,0-.28.14.54.54,0,0,0-.16.21.54.54,0,0,0-.06.25.52.52,0,0,0,.13.36,1.3,1.3,0,0,0,.34.25,4.79,4.79,0,0,0,.49.21l.54.2a5.6,5.6,0,0,1,.55.27,1.92,1.92,0,0,1,.48.37,1.56,1.56,0,0,1,.34.52A1.75,1.75,0,0,1,84.27,49.93Z"/><path d="M91.45,48.54a4.94,4.94,0,0,1-.2,1.43,3.07,3.07,0,0,1-.63,1.1,2.7,2.7,0,0,1-1,.72,3.9,3.9,0,0,1-1.47.25,4.07,4.07,0,0,1-1.42-.22,2.57,2.57,0,0,1-1-.66,2.66,2.66,0,0,1-.58-1.06,4.85,4.85,0,0,1-.19-1.43,4.62,4.62,0,0,1,.2-1.43,3,3,0,0,1,.63-1.11,2.87,2.87,0,0,1,1-.71,3.9,3.9,0,0,1,1.47-.25,4,4,0,0,1,1.42.22,2.55,2.55,0,0,1,1,.65,2.79,2.79,0,0,1,.58,1.06A4.88,4.88,0,0,1,91.45,48.54Zm-1.77.07a4.28,4.28,0,0,0-.07-.83,2.15,2.15,0,0,0-.24-.66,1.29,1.29,0,0,0-.46-.44,1.52,1.52,0,0,0-.71-.15,1.41,1.41,0,0,0-.67.14,1.16,1.16,0,0,0-.47.41,1.75,1.75,0,0,0-.28.65,3.72,3.72,0,0,0-.09.86,4.28,4.28,0,0,0,.07.83,2.15,2.15,0,0,0,.24.66,1.29,1.29,0,0,0,.46.44,1.52,1.52,0,0,0,.71.15,1.62,1.62,0,0,0,.68-.14,1.23,1.23,0,0,0,.47-.41,1.87,1.87,0,0,0,.27-.64A3.81,3.81,0,0,0,89.68,48.61Z"/><path d="M94.44,50.92a1.22,1.22,0,0,1-.21.84,1.06,1.06,0,0,1-.76.21,1,1,0,0,1-.74-.21,1.15,1.15,0,0,1-.21-.8,1.22,1.22,0,0,1,.21-.84,1.06,1.06,0,0,1,.76-.21,1.05,1.05,0,0,1,.75.21A1.15,1.15,0,0,1,94.44,50.92Zm3.18,0a1.21,1.21,0,0,1-.22.84,1.05,1.05,0,0,1-.75.21,1.06,1.06,0,0,1-.76-.21,1.15,1.15,0,0,1-.21-.8,1.22,1.22,0,0,1,.21-.84,1.1,1.1,0,0,1,.76-.21,1.05,1.05,0,0,1,.75.21A1.09,1.09,0,0,1,97.62,50.92Zm3.16,0a1.22,1.22,0,0,1-.21.84,1.06,1.06,0,0,1-.76.21,1.05,1.05,0,0,1-.75-.21,1.15,1.15,0,0,1-.21-.8,1.16,1.16,0,0,1,.22-.84,1.44,1.44,0,0,1,1.5,0A1.15,1.15,0,0,1,100.78,50.92Z"/><path d="M111.08,43.78c0,.13,0,.24,0,.34a.9.9,0,0,1,0,.22.33.33,0,0,1-.09.13.15.15,0,0,1-.11,0H108.6v7.13a.16.16,0,0,1,0,.12.27.27,0,0,1-.15.09l-.27.06-.44,0-.43,0-.28-.06a.27.27,0,0,1-.15-.09.16.16,0,0,1,0-.12V44.51h-2.22a.15.15,0,0,1-.11,0,.24.24,0,0,1-.08-.13.85.85,0,0,1-.06-.22c0-.1,0-.21,0-.34s0-.25,0-.35a.94.94,0,0,1,.06-.23.18.18,0,0,1,.08-.12.15.15,0,0,1,.11,0h6.24a.15.15,0,0,1,.11,0s.06.06.09.12a1,1,0,0,1,0,.23C111.08,43.53,111.08,43.64,111.08,43.78Z"/><path d="M115.88,51.67a.19.19,0,0,1-.07.16.43.43,0,0,1-.21.07,2.31,2.31,0,0,1-.43,0,2.34,2.34,0,0,1-.45,0,.38.38,0,0,1-.2-.07.21.21,0,0,1-.06-.16v-.48a2.77,2.77,0,0,1-.86.63,2.47,2.47,0,0,1-1.07.22,3.14,3.14,0,0,1-.89-.12,2.06,2.06,0,0,1-.7-.38,1.68,1.68,0,0,1-.46-.62,2.06,2.06,0,0,1-.17-.86,2,2,0,0,1,.21-.93,1.73,1.73,0,0,1,.62-.64,2.91,2.91,0,0,1,1-.38A6.77,6.77,0,0,1,113.6,48h.59v-.37a1.88,1.88,0,0,0,0-.5,1,1,0,0,0-.19-.36.9.9,0,0,0-.36-.21,2.11,2.11,0,0,0-.55-.07,2.61,2.61,0,0,0-.77.1,4.2,4.2,0,0,0-.6.21l-.43.21a.59.59,0,0,1-.29.1.21.21,0,0,1-.13-.05.28.28,0,0,1-.09-.14.64.64,0,0,1-.06-.22,1.23,1.23,0,0,1,0-.28,1.52,1.52,0,0,1,0-.34.56.56,0,0,1,.13-.22,1.17,1.17,0,0,1,.34-.22,3.85,3.85,0,0,1,.56-.22,5.53,5.53,0,0,1,.7-.17,4.93,4.93,0,0,1,.78-.06,4.43,4.43,0,0,1,1.23.14,1.87,1.87,0,0,1,.83.43,1.62,1.62,0,0,1,.48.75,3.43,3.43,0,0,1,.15,1.08Zm-1.69-2.61h-.65a3.55,3.55,0,0,0-.71.06,1.55,1.55,0,0,0-.48.19.77.77,0,0,0-.27.3.84.84,0,0,0-.09.4.76.76,0,0,0,.25.6,1,1,0,0,0,.67.22,1.24,1.24,0,0,0,.67-.19,2.66,2.66,0,0,0,.61-.54Z"/><path d="M123.14,51.65a.16.16,0,0,1,0,.12.25.25,0,0,1-.13.09,1.46,1.46,0,0,1-.27,0l-.41,0-.42,0a1.46,1.46,0,0,1-.27,0,.25.25,0,0,1-.13-.09.16.16,0,0,1,0-.12V48.17a2.56,2.56,0,0,0-.07-.69,1.18,1.18,0,0,0-.19-.44.84.84,0,0,0-.31-.28,1.06,1.06,0,0,0-1.12.14,3.54,3.54,0,0,0-.7.7v4a.16.16,0,0,1,0,.12.24.24,0,0,1-.14.09,1.33,1.33,0,0,1-.26,0l-.42,0-.42,0a1.33,1.33,0,0,1-.26,0,.24.24,0,0,1-.14-.09.16.16,0,0,1,0-.12V45.56a.21.21,0,0,1,0-.12.25.25,0,0,1,.13-.09,1,1,0,0,1,.23-.05l.35,0,.36,0a.8.8,0,0,1,.22.05.2.2,0,0,1,.11.09.16.16,0,0,1,0,.12v.7a3.94,3.94,0,0,1,1-.82,2.34,2.34,0,0,1,1.09-.27,2.55,2.55,0,0,1,1,.2,1.9,1.9,0,0,1,.69.56,2.38,2.38,0,0,1,.38.82,5.37,5.37,0,0,1,.11,1.14Z"/><path d="M128,51.05a1.81,1.81,0,0,1,0,.46.45.45,0,0,1-.1.23.7.7,0,0,1-.18.12,1.58,1.58,0,0,1-.28.08,1.7,1.7,0,0,1-.35.06,2.36,2.36,0,0,1-.38,0,2.59,2.59,0,0,1-.88-.13,1.42,1.42,0,0,1-.63-.4,1.7,1.7,0,0,1-.36-.68,3.45,3.45,0,0,1-.11-1V46.72H124a.21.21,0,0,1-.19-.16,1.43,1.43,0,0,1-.07-.54,3.22,3.22,0,0,1,0-.33.75.75,0,0,1,.06-.22.24.24,0,0,1,.08-.11.17.17,0,0,1,.12,0h.73V44a.27.27,0,0,1,0-.12.24.24,0,0,1,.14-.09,1.22,1.22,0,0,1,.27-.06H126a1.12,1.12,0,0,1,.26.06.24.24,0,0,1,.14.09.19.19,0,0,1,0,.12v1.36h1.33a.19.19,0,0,1,.12,0,.24.24,0,0,1,.08.11.8.8,0,0,1,0,.22,2.92,2.92,0,0,1,0,.33,1.43,1.43,0,0,1-.07.54.21.21,0,0,1-.2.16h-1.33v2.86a1.35,1.35,0,0,0,.16.75.6.6,0,0,0,.56.25l.24,0,.2-.06.14,0,.11,0a.13.13,0,0,1,.08,0,.23.23,0,0,1,.06.09c0,.05,0,.12,0,.2A2.41,2.41,0,0,1,128,51.05Z"/><path d="M135,48.54a4.62,4.62,0,0,1-.2,1.43,3.05,3.05,0,0,1-.62,1.1,2.81,2.81,0,0,1-1,.72,3.9,3.9,0,0,1-1.47.25,4,4,0,0,1-1.41-.22,2.5,2.5,0,0,1-1-.66,2.68,2.68,0,0,1-.59-1.06,4.85,4.85,0,0,1-.19-1.43,4.62,4.62,0,0,1,.21-1.43,3.16,3.16,0,0,1,.62-1.11,2.91,2.91,0,0,1,1.05-.71,3.81,3.81,0,0,1,1.46-.25,4,4,0,0,1,1.42.22,2.42,2.42,0,0,1,1,.65,2.66,2.66,0,0,1,.58,1.06A4.88,4.88,0,0,1,135,48.54Zm-1.77.07a4.28,4.28,0,0,0-.07-.83,2.15,2.15,0,0,0-.24-.66,1.26,1.26,0,0,0-.45-.44,1.54,1.54,0,0,0-.72-.15,1.44,1.44,0,0,0-.67.14,1.16,1.16,0,0,0-.47.41,1.94,1.94,0,0,0-.28.65,3.72,3.72,0,0,0-.09.86,4.25,4.25,0,0,0,.08.83,2.15,2.15,0,0,0,.24.66,1.19,1.19,0,0,0,.45.44,1.52,1.52,0,0,0,.71.15,1.59,1.59,0,0,0,.68-.14,1.16,1.16,0,0,0,.47-.41,1.71,1.71,0,0,0,.28-.64A3.85,3.85,0,0,0,133.25,48.61Z"/><path d="M144.77,54.07a.2.2,0,0,1,0,.13.48.48,0,0,1-.13.09l-.26.06-.42,0-.42,0-.26-.06a.42.42,0,0,1-.14-.09.28.28,0,0,1,0-.13V51.18a5.09,5.09,0,0,1-.47.39,2.83,2.83,0,0,1-.47.27,2.46,2.46,0,0,1-.48.16,2.82,2.82,0,0,1-.52,0,2.17,2.17,0,0,1-1.91-1,3.29,3.29,0,0,1-.43-1.07,6,6,0,0,1-.14-1.29,5.53,5.53,0,0,1,.18-1.47,3.21,3.21,0,0,1,.52-1.1,2.38,2.38,0,0,1,.84-.71,2.63,2.63,0,0,1,1.15-.24,2,2,0,0,1,.49,0,1.38,1.38,0,0,1,.46.18,3.14,3.14,0,0,1,.49.32c.16.14.35.3.55.5v-.66a.21.21,0,0,1,0-.12.25.25,0,0,1,.13-.09.9.9,0,0,1,.22-.05l.36,0,.34,0a.9.9,0,0,1,.22.05.19.19,0,0,1,.12.09.21.21,0,0,1,0,.12Zm-1.71-6.49a3.63,3.63,0,0,0-.7-.71,1.25,1.25,0,0,0-.71-.25,1,1,0,0,0-.58.17,1.23,1.23,0,0,0-.39.45,2.27,2.27,0,0,0-.22.62,4.17,4.17,0,0,0-.07.71,4.56,4.56,0,0,0,.06.75,2.48,2.48,0,0,0,.2.65,1.38,1.38,0,0,0,.38.45,1,1,0,0,0,.58.17,1.34,1.34,0,0,0,.35-.05,1.54,1.54,0,0,0,.34-.17,2,2,0,0,0,.36-.31,4,4,0,0,0,.4-.46Z"/><path d="M152,51.65a.21.21,0,0,1,0,.12.19.19,0,0,1-.12.09,1,1,0,0,1-.22,0l-.36,0-.36,0a.8.8,0,0,1-.22,0,.19.19,0,0,1-.12-.09.21.21,0,0,1,0-.12V51a4.11,4.11,0,0,1-1,.82,2.56,2.56,0,0,1-2.14.07,1.83,1.83,0,0,1-.69-.56,2.26,2.26,0,0,1-.38-.83,5.37,5.37,0,0,1-.11-1.16V45.56a.16.16,0,0,1,0-.12.22.22,0,0,1,.13-.09,1.46,1.46,0,0,1,.27-.05l.41,0,.42,0a1.2,1.2,0,0,1,.26.05.21.21,0,0,1,.14.09.16.16,0,0,1,0,.12V49a2.75,2.75,0,0,0,.07.73,1.35,1.35,0,0,0,.18.44,1.06,1.06,0,0,0,.32.28,1.06,1.06,0,0,0,1.12-.14,3.85,3.85,0,0,0,.71-.7v-4a.21.21,0,0,1,0-.12.24.24,0,0,1,.14-.09,1.33,1.33,0,0,1,.26-.05l.42,0,.42,0a1.33,1.33,0,0,1,.26.05.22.22,0,0,1,.13.09.17.17,0,0,1,0,.12Z"/><path d="M159.09,48.43a.67.67,0,0,1-.14.46.51.51,0,0,1-.39.15h-3.71a2.6,2.6,0,0,0,.09.71,1.3,1.3,0,0,0,.3.54,1.21,1.21,0,0,0,.52.34,2.13,2.13,0,0,0,.76.12,4.55,4.55,0,0,0,.79-.07,4.71,4.71,0,0,0,.59-.14c.17-.06.31-.1.42-.15a.78.78,0,0,1,.26-.06l.1,0a.22.22,0,0,1,.07.09.61.61,0,0,1,0,.17,2.44,2.44,0,0,1,0,.29,1.85,1.85,0,0,1,0,.25.9.9,0,0,1,0,.18.28.28,0,0,1,0,.13.61.61,0,0,1-.07.1,1.08,1.08,0,0,1-.24.13,3.94,3.94,0,0,1-.51.16c-.2,0-.44.1-.7.14a7.62,7.62,0,0,1-.85,0,4.35,4.35,0,0,1-1.42-.2,2.73,2.73,0,0,1-1-.62,2.69,2.69,0,0,1-.61-1.06,5.07,5.07,0,0,1-.2-1.49,4.72,4.72,0,0,1,.21-1.46,3,3,0,0,1,.62-1.11,2.64,2.64,0,0,1,1-.69,3.35,3.35,0,0,1,1.3-.24,3.42,3.42,0,0,1,1.31.22,2.32,2.32,0,0,1,.89.63,2.52,2.52,0,0,1,.51.94,4.17,4.17,0,0,1,.17,1.19Zm-1.67-.49a1.76,1.76,0,0,0-.29-1.14,1.12,1.12,0,0,0-1-.42,1.14,1.14,0,0,0-.57.13,1.08,1.08,0,0,0-.4.33,1.51,1.51,0,0,0-.25.49,2.36,2.36,0,0,0-.1.61Z"/><path d="M52.9,66.4a.28.28,0,0,1,0,.13.56.56,0,0,1-.14.09l-.26.06-.42,0-.41,0-.27-.06a.36.36,0,0,1-.13-.09.2.2,0,0,1,0-.13V63.5a5.07,5.07,0,0,1-.48.4,2.83,2.83,0,0,1-.47.27,2.6,2.6,0,0,1-.47.16,3,3,0,0,1-.52,0,2.3,2.3,0,0,1-1.15-.27,2.13,2.13,0,0,1-.76-.73,3.16,3.16,0,0,1-.44-1.06A6,6,0,0,1,46.77,61a5.55,5.55,0,0,1,.17-1.47,3.21,3.21,0,0,1,.52-1.1,2.38,2.38,0,0,1,.84-.71,2.67,2.67,0,0,1,1.16-.24,1.86,1.86,0,0,1,.48,0,1.52,1.52,0,0,1,.47.18,3.63,3.63,0,0,1,.48.32c.17.14.35.3.55.5v-.66a.16.16,0,0,1,0-.12.19.19,0,0,1,.12-.09,1,1,0,0,1,.22,0l.36,0,.34,0a1,1,0,0,1,.23,0,.2.2,0,0,1,.11.09.16.16,0,0,1,0,.12Zm-1.71-6.49a3.64,3.64,0,0,0-.71-.71,1.16,1.16,0,0,0-.71-.25,1,1,0,0,0-.57.17,1.07,1.07,0,0,0-.39.45,2.27,2.27,0,0,0-.22.62,3.35,3.35,0,0,0-.07.71,4.56,4.56,0,0,0,.06.75,2,2,0,0,0,.2.64,1.3,1.3,0,0,0,.37.46,1,1,0,0,0,.59.17,1.27,1.27,0,0,0,.34-.05,1.41,1.41,0,0,0,.35-.17,2.36,2.36,0,0,0,.35-.31,4,4,0,0,0,.41-.46Z"/><path d="M60.13,64a.21.21,0,0,1,0,.12.27.27,0,0,1-.12.09l-.23,0-.35,0-.37,0a.9.9,0,0,1-.22,0,.27.27,0,0,1-.12-.09.21.21,0,0,1,0-.12v-.7a3.94,3.94,0,0,1-1,.82,2.33,2.33,0,0,1-1.08.27,2.57,2.57,0,0,1-1.06-.2,2,2,0,0,1-.69-.56,2.43,2.43,0,0,1-.38-.83,5.37,5.37,0,0,1-.11-1.16V57.89a.16.16,0,0,1,0-.12.21.21,0,0,1,.14-.09,1.2,1.2,0,0,1,.26,0l.42,0,.41,0a1.46,1.46,0,0,1,.27,0,.28.28,0,0,1,.14.09.21.21,0,0,1,0,.12v3.44a3.36,3.36,0,0,0,.06.73,1.18,1.18,0,0,0,.19.44.87.87,0,0,0,.32.28,1.06,1.06,0,0,0,.45.1,1.12,1.12,0,0,0,.66-.24,3.85,3.85,0,0,0,.71-.7v-4a.16.16,0,0,1,0-.12.22.22,0,0,1,.13-.09,1.46,1.46,0,0,1,.27,0l.41,0,.42,0a1.2,1.2,0,0,1,.26,0,.24.24,0,0,1,.14.09.16.16,0,0,1,0,.12Z"/><path d="M63.43,55.82a1,1,0,0,1-.21.72,1.17,1.17,0,0,1-.79.2,1.23,1.23,0,0,1-.78-.19,1,1,0,0,1-.2-.69,1,1,0,0,1,.21-.73,1.17,1.17,0,0,1,.79-.2,1.16,1.16,0,0,1,.78.2A1,1,0,0,1,63.43,55.82ZM63.3,64a.16.16,0,0,1,0,.12.24.24,0,0,1-.14.09,1.2,1.2,0,0,1-.26,0l-.42,0-.42,0a1.33,1.33,0,0,1-.26,0,.24.24,0,0,1-.14-.09.16.16,0,0,1,0-.12V57.9a.16.16,0,0,1,0-.12.42.42,0,0,1,.14-.09l.26-.06.42,0,.42,0,.26.06a.42.42,0,0,1,.14.09.16.16,0,0,1,0,.12Z"/><path d="M70.37,60.76a.67.67,0,0,1-.14.46.5.5,0,0,1-.39.15H66.13a2.6,2.6,0,0,0,.09.71,1.42,1.42,0,0,0,.3.54A1.27,1.27,0,0,0,67,63a2.14,2.14,0,0,0,.76.11,4.54,4.54,0,0,0,.79-.06,4.71,4.71,0,0,0,.59-.14c.17-.06.31-.1.42-.15a.84.84,0,0,1,.26-.06l.11,0a.35.35,0,0,1,.07.09.65.65,0,0,1,0,.17,2.35,2.35,0,0,1,0,.28v.26a1.41,1.41,0,0,0,0,.18c0,.05,0,.09,0,.13l-.08.1a1.08,1.08,0,0,1-.24.13,3.94,3.94,0,0,1-.51.16c-.2,0-.43.1-.7.14a7.48,7.48,0,0,1-.85.05,4.68,4.68,0,0,1-1.42-.2,2.47,2.47,0,0,1-1.64-1.68,5.07,5.07,0,0,1-.2-1.49,4.72,4.72,0,0,1,.21-1.46,3.14,3.14,0,0,1,.62-1.11,2.73,2.73,0,0,1,1-.69,3.38,3.38,0,0,1,1.3-.24,3.42,3.42,0,0,1,1.31.22,2.32,2.32,0,0,1,.89.63,2.4,2.4,0,0,1,.52.94,4.17,4.17,0,0,1,.16,1.19Zm-1.67-.5a1.69,1.69,0,0,0-.29-1.13,1.12,1.12,0,0,0-1-.42,1.14,1.14,0,0,0-.57.13,1.08,1.08,0,0,0-.4.33,1.51,1.51,0,0,0-.25.49,2.35,2.35,0,0,0-.1.6Z"/><path d="M75.42,58.45c0,.17,0,.3,0,.41a1.19,1.19,0,0,1,0,.24.32.32,0,0,1-.07.13.21.21,0,0,1-.12,0l-.12,0-.15-.06-.19,0-.23,0a.71.71,0,0,0-.28.06,1.19,1.19,0,0,0-.3.18,2,2,0,0,0-.32.33,5.1,5.1,0,0,0-.36.5V64a.21.21,0,0,1,0,.12.28.28,0,0,1-.14.09,1.46,1.46,0,0,1-.27,0l-.41,0-.42,0a1.2,1.2,0,0,1-.26,0,.21.21,0,0,1-.14-.09.16.16,0,0,1,0-.12V57.89a.21.21,0,0,1,0-.12.19.19,0,0,1,.12-.09l.23,0,.35,0,.37,0a.9.9,0,0,1,.22,0,.2.2,0,0,1,.11.09.21.21,0,0,1,0,.12v.75a3.92,3.92,0,0,1,.45-.56,2.44,2.44,0,0,1,.4-.35,1.09,1.09,0,0,1,.38-.18,1.31,1.31,0,0,1,.39,0h.19l.21,0,.19.06.12.06a.22.22,0,0,1,0,.08.16.16,0,0,1,0,.11s0,.12,0,.21Z"/><path d="M82.2,60.87A4.51,4.51,0,0,1,82,62.29a3,3,0,0,1-.62,1.11,2.81,2.81,0,0,1-1.05.72,3.9,3.9,0,0,1-1.47.25,4,4,0,0,1-1.41-.22,2.57,2.57,0,0,1-1-.66,2.8,2.8,0,0,1-.59-1.06A5.21,5.21,0,0,1,75.66,61a4.62,4.62,0,0,1,.21-1.43,3,3,0,0,1,.63-1.11,2.79,2.79,0,0,1,1-.71A3.81,3.81,0,0,1,79,57.5a4.13,4.13,0,0,1,1.43.22,2.45,2.45,0,0,1,1,.65A2.8,2.8,0,0,1,82,59.43,5.23,5.23,0,0,1,82.2,60.87Zm-1.77.07a4.25,4.25,0,0,0-.08-.83,1.73,1.73,0,0,0-.24-.66,1.19,1.19,0,0,0-.45-.44,1.54,1.54,0,0,0-.72-.15,1.44,1.44,0,0,0-.67.14,1.16,1.16,0,0,0-.47.41,2.16,2.16,0,0,0-.28.65,3.72,3.72,0,0,0-.09.86,4.25,4.25,0,0,0,.08.83,2.15,2.15,0,0,0,.24.66,1.19,1.19,0,0,0,.45.44,1.57,1.57,0,0,0,.72.15,1.54,1.54,0,0,0,.67-.14,1.16,1.16,0,0,0,.47-.41,1.78,1.78,0,0,0,.28-.64A3.81,3.81,0,0,0,80.43,60.94Z"/><path d="M92,66.4a.21.21,0,0,1,0,.13.36.36,0,0,1-.13.09l-.26.06-.42,0-.42,0-.26-.06a.56.56,0,0,1-.14-.09.28.28,0,0,1,0-.13V63.5a5.07,5.07,0,0,1-.48.4,2.83,2.83,0,0,1-.47.27,2.46,2.46,0,0,1-.48.16,2.78,2.78,0,0,1-.51,0,2.3,2.3,0,0,1-1.15-.27,2.13,2.13,0,0,1-.76-.73A3.16,3.16,0,0,1,86,62.31,6,6,0,0,1,85.81,61,5.53,5.53,0,0,1,86,59.55a3.21,3.21,0,0,1,.52-1.1,2.38,2.38,0,0,1,.84-.71,2.64,2.64,0,0,1,1.16-.24,1.86,1.86,0,0,1,.48,0,1.52,1.52,0,0,1,.47.18,3.63,3.63,0,0,1,.48.32c.17.14.35.3.55.5v-.66a.16.16,0,0,1,0-.12.19.19,0,0,1,.12-.09,1,1,0,0,1,.22,0l.36,0,.34,0a1,1,0,0,1,.23,0,.2.2,0,0,1,.11.09.21.21,0,0,1,0,.12Zm-1.71-6.49a3.94,3.94,0,0,0-.71-.71,1.16,1.16,0,0,0-.71-.25,1,1,0,0,0-.58.17,1.23,1.23,0,0,0-.39.45,2.26,2.26,0,0,0-.21.62,3.36,3.36,0,0,0-.08.71,3.67,3.67,0,0,0,.07.75,2,2,0,0,0,.2.64,1.2,1.2,0,0,0,.37.46,1,1,0,0,0,.59.17,1.27,1.27,0,0,0,.34-.05,1.6,1.6,0,0,0,.35-.17,2.36,2.36,0,0,0,.35-.31,4,4,0,0,0,.41-.46Z"/><path d="M99.18,64a.16.16,0,0,1,0,.12.19.19,0,0,1-.12.09.9.9,0,0,1-.22,0l-.35,0-.37,0a.9.9,0,0,1-.22,0,.23.23,0,0,1-.12-.09.21.21,0,0,1,0-.12v-.7a3.94,3.94,0,0,1-1,.82,2.33,2.33,0,0,1-1.08.27,2.54,2.54,0,0,1-1.06-.2,1.92,1.92,0,0,1-.69-.56,2.26,2.26,0,0,1-.38-.83,5.37,5.37,0,0,1-.11-1.16V57.89a.16.16,0,0,1,0-.12.21.21,0,0,1,.14-.09,1.2,1.2,0,0,1,.26,0l.42,0,.41,0a1.2,1.2,0,0,1,.26,0,.27.27,0,0,1,.15.09.21.21,0,0,1,0,.12v3.44a3.36,3.36,0,0,0,.06.73,1.18,1.18,0,0,0,.19.44.87.87,0,0,0,.32.28,1.06,1.06,0,0,0,.45.1,1.12,1.12,0,0,0,.66-.24,3.85,3.85,0,0,0,.71-.7v-4a.16.16,0,0,1,0-.12.22.22,0,0,1,.13-.09,1.46,1.46,0,0,1,.27,0l.41,0,.42,0a1.2,1.2,0,0,1,.26,0,.28.28,0,0,1,.14.09.21.21,0,0,1,0,.12Z"/><path d="M106.26,60.76a.67.67,0,0,1-.14.46.5.5,0,0,1-.39.15H102a2.6,2.6,0,0,0,.09.71,1.42,1.42,0,0,0,.3.54,1.27,1.27,0,0,0,.52.34,2.14,2.14,0,0,0,.76.11,4.54,4.54,0,0,0,.79-.06,5.39,5.39,0,0,0,.6-.14l.41-.15a.83.83,0,0,1,.27-.06l.1,0a.22.22,0,0,1,.07.09.65.65,0,0,1,0,.17,2.35,2.35,0,0,1,0,.28v.26c0,.07,0,.13,0,.18s0,.09,0,.13l-.08.1a1.08,1.08,0,0,1-.24.13,4.27,4.27,0,0,1-.5.16c-.21,0-.44.1-.71.14a7.48,7.48,0,0,1-.85.05,4.68,4.68,0,0,1-1.42-.2,2.47,2.47,0,0,1-1.64-1.68,5.07,5.07,0,0,1-.2-1.49,4.72,4.72,0,0,1,.21-1.46,3.14,3.14,0,0,1,.62-1.11,2.73,2.73,0,0,1,1-.69,3.38,3.38,0,0,1,1.3-.24,3.42,3.42,0,0,1,1.31.22,2.32,2.32,0,0,1,.89.63,2.4,2.4,0,0,1,.52.94,4.17,4.17,0,0,1,.16,1.19Zm-1.67-.5a1.69,1.69,0,0,0-.29-1.13,1.11,1.11,0,0,0-1-.42,1.14,1.14,0,0,0-.57.13,1.16,1.16,0,0,0-.4.33,1.51,1.51,0,0,0-.25.49,2.35,2.35,0,0,0-.1.6Z"/><path d="M114.2,58.45c0,.17,0,.3,0,.41a.75.75,0,0,1,0,.24.32.32,0,0,1-.07.13.2.2,0,0,1-.11,0l-.12,0-.16-.06-.19,0-.22,0a.75.75,0,0,0-.29.06,1.69,1.69,0,0,0-.3.18,2,2,0,0,0-.32.33,5.1,5.1,0,0,0-.36.5V64a.16.16,0,0,1,0,.12.24.24,0,0,1-.14.09,1.2,1.2,0,0,1-.26,0l-.42,0-.41,0a1.46,1.46,0,0,1-.27,0,.28.28,0,0,1-.14-.09.16.16,0,0,1,0-.12V57.89a.21.21,0,0,1,0-.12.25.25,0,0,1,.13-.09,1,1,0,0,1,.23,0l.35,0,.36,0a.8.8,0,0,1,.22,0,.23.23,0,0,1,.12.09.21.21,0,0,1,0,.12v.75a6.06,6.06,0,0,1,.45-.56,2.93,2.93,0,0,1,.4-.35,1.14,1.14,0,0,1,.39-.18,1.24,1.24,0,0,1,.38,0h.19l.21,0,.2.06.12.06a.22.22,0,0,1,0,.08.53.53,0,0,1,0,.11,1.06,1.06,0,0,1,0,.21C114.2,58.16,114.2,58.29,114.2,58.45Z"/><path d="M120.45,60.76a.62.62,0,0,1-.14.46.49.49,0,0,1-.38.15h-3.72a2.59,2.59,0,0,0,.1.71,1.41,1.41,0,0,0,.29.54,1.27,1.27,0,0,0,.52.34,2.18,2.18,0,0,0,.76.11,4.74,4.74,0,0,0,.8-.06,5.75,5.75,0,0,0,.59-.14l.41-.15a.83.83,0,0,1,.27-.06l.1,0a.22.22,0,0,1,.07.09.61.61,0,0,1,0,.17c0,.08,0,.17,0,.28s0,.19,0,.26,0,.13,0,.18a.5.5,0,0,1,0,.13.35.35,0,0,1-.08.1.87.87,0,0,1-.24.13,4.27,4.27,0,0,1-.5.16c-.21,0-.44.1-.71.14a7.3,7.3,0,0,1-.84.05,4.7,4.7,0,0,1-1.43-.2,2.62,2.62,0,0,1-1-.62,2.47,2.47,0,0,1-.61-1.06,4.74,4.74,0,0,1-.21-1.49,4.43,4.43,0,0,1,.22-1.46,3,3,0,0,1,.61-1.11,2.73,2.73,0,0,1,1-.69,3.82,3.82,0,0,1,2.61,0,2.36,2.36,0,0,1,.9.63,2.52,2.52,0,0,1,.51.94,4.17,4.17,0,0,1,.16,1.19Zm-1.67-.5a1.69,1.69,0,0,0-.29-1.13,1.1,1.1,0,0,0-1-.42,1.14,1.14,0,0,0-.57.13,1.16,1.16,0,0,0-.4.33,1.51,1.51,0,0,0-.25.49,2.89,2.89,0,0,0-.1.6Z"/><path d="M127.13,57.88V58s0,.07,0,.11l0,.13a1.54,1.54,0,0,1,0,.17l-1.83,5.52a.48.48,0,0,1-.09.19.48.48,0,0,1-.19.11,1.57,1.57,0,0,1-.37,0l-.59,0-.59,0a1.32,1.32,0,0,1-.36-.06.38.38,0,0,1-.19-.11.51.51,0,0,1-.09-.18l-1.84-5.52-.06-.25a.64.64,0,0,1,0-.15v-.09a.16.16,0,0,1,0-.12.36.36,0,0,1,.13-.09,1.3,1.3,0,0,1,.26,0l.42,0,.45,0a1.43,1.43,0,0,1,.28,0,.22.22,0,0,1,.13.09.37.37,0,0,1,.07.14L124,62.38l0,.17,0-.17,1.37-4.47a.37.37,0,0,1,.06-.14.27.27,0,0,1,.15-.09,1.09,1.09,0,0,1,.25,0l.42,0,.42,0a1.31,1.31,0,0,1,.25,0,.41.41,0,0,1,.12.09A.21.21,0,0,1,127.13,57.88Z"/><path d="M129.72,55.82a.93.93,0,0,1-.22.72,1.16,1.16,0,0,1-.78.2,1.19,1.19,0,0,1-.78-.19.92.92,0,0,1-.21-.69,1,1,0,0,1,.21-.73,1.17,1.17,0,0,1,.79-.2,1.16,1.16,0,0,1,.78.2A.92.92,0,0,1,129.72,55.82ZM129.59,64a.21.21,0,0,1,0,.12.27.27,0,0,1-.15.09,1.2,1.2,0,0,1-.26,0l-.41,0-.42,0a1.2,1.2,0,0,1-.26,0,.27.27,0,0,1-.15-.09.21.21,0,0,1,0-.12V57.9a.21.21,0,0,1,0-.12.49.49,0,0,1,.15-.09l.26-.06.42,0,.41,0,.26.06a.49.49,0,0,1,.15.09.21.21,0,0,1,0,.12Z"/><path d="M135.31,62.26a2.07,2.07,0,0,1-.19.92,1.84,1.84,0,0,1-.55.66,2.51,2.51,0,0,1-.84.4,3.92,3.92,0,0,1-1,.13,3.53,3.53,0,0,1-.66-.05,3.71,3.71,0,0,1-.55-.13,2.06,2.06,0,0,1-.41-.16.83.83,0,0,1-.24-.15.55.55,0,0,1-.12-.23,1.72,1.72,0,0,1,0-.45,2.92,2.92,0,0,1,0-.32c0-.08,0-.14,0-.19a.29.29,0,0,1,.07-.1l.11,0a.66.66,0,0,1,.22.08l.36.19A4.23,4.23,0,0,0,132,63a2.29,2.29,0,0,0,.66.09,1.38,1.38,0,0,0,.42,0,1,1,0,0,0,.31-.13.55.55,0,0,0,.2-.23.62.62,0,0,0,.07-.31.48.48,0,0,0-.13-.35,1,1,0,0,0-.33-.26l-.47-.21q-.27-.09-.54-.21a4.49,4.49,0,0,1-.54-.26,2.19,2.19,0,0,1-.48-.37,1.76,1.76,0,0,1-.33-.53,2,2,0,0,1-.13-.74,1.91,1.91,0,0,1,.17-.8,1.79,1.79,0,0,1,.5-.63,2.39,2.39,0,0,1,.78-.4,3.36,3.36,0,0,1,1-.14,3.31,3.31,0,0,1,.55,0,3,3,0,0,1,.49.1,3.07,3.07,0,0,1,.37.13,1.27,1.27,0,0,1,.22.13.28.28,0,0,1,.09.1.34.34,0,0,1,0,.12.9.9,0,0,1,0,.18,2,2,0,0,1,0,.26,2.45,2.45,0,0,1,0,.3.84.84,0,0,1,0,.19.22.22,0,0,1-.07.09.13.13,0,0,1-.09,0,.4.4,0,0,1-.19-.07l-.33-.15a2.37,2.37,0,0,0-.45-.15,2.08,2.08,0,0,0-.58-.08,1.64,1.64,0,0,0-.41,0,.82.82,0,0,0-.28.14.54.54,0,0,0-.16.21.54.54,0,0,0-.06.25.57.57,0,0,0,.13.36,1.21,1.21,0,0,0,.35.25l.48.21.54.2a5.6,5.6,0,0,1,.55.27,1.92,1.92,0,0,1,.48.37,1.56,1.56,0,0,1,.34.52A1.75,1.75,0,0,1,135.31,62.26Z"/><path d="M142,60.76a.67.67,0,0,1-.14.46.5.5,0,0,1-.39.15h-3.71a2.6,2.6,0,0,0,.09.71,1.42,1.42,0,0,0,.3.54,1.21,1.21,0,0,0,.52.34,2.14,2.14,0,0,0,.76.11,4.62,4.62,0,0,0,.79-.06,4.71,4.71,0,0,0,.59-.14c.17-.06.31-.1.42-.15a.84.84,0,0,1,.26-.06l.11,0a.2.2,0,0,1,.06.09.61.61,0,0,1,0,.17,2.35,2.35,0,0,1,0,.28v.26q0,.1,0,.18a.28.28,0,0,1,0,.13.3.3,0,0,1-.07.1,1.08,1.08,0,0,1-.24.13,3.94,3.94,0,0,1-.51.16c-.2,0-.44.1-.7.14a7.62,7.62,0,0,1-.85.05,4.63,4.63,0,0,1-1.42-.2,2.73,2.73,0,0,1-1-.62,2.69,2.69,0,0,1-.61-1.06A5.07,5.07,0,0,1,136,61a4.72,4.72,0,0,1,.21-1.46,3,3,0,0,1,.62-1.11,2.64,2.64,0,0,1,1-.69,3.35,3.35,0,0,1,1.3-.24,3.42,3.42,0,0,1,1.31.22,2.32,2.32,0,0,1,.89.63,2.4,2.4,0,0,1,.52.94,4.56,4.56,0,0,1,.16,1.19Zm-1.67-.5a1.69,1.69,0,0,0-.29-1.13,1.12,1.12,0,0,0-1-.42,1.14,1.14,0,0,0-.57.13,1.08,1.08,0,0,0-.4.33,1.51,1.51,0,0,0-.25.49,2.35,2.35,0,0,0-.1.6Z"/><path d="M152.8,64a.17.17,0,0,1-.05.12.22.22,0,0,1-.13.09,1.33,1.33,0,0,1-.26,0l-.42,0-.42,0a1.46,1.46,0,0,1-.27,0,.22.22,0,0,1-.13-.09.16.16,0,0,1,0-.12V60.37a2.4,2.4,0,0,0-.06-.56,1.35,1.35,0,0,0-.18-.44.89.89,0,0,0-.3-.28.94.94,0,0,0-.43-.1,1,1,0,0,0-.62.24,4.16,4.16,0,0,0-.69.7v4a.16.16,0,0,1,0,.12.24.24,0,0,1-.14.09,1.2,1.2,0,0,1-.26,0l-.41,0-.42,0a1.2,1.2,0,0,1-.26,0,.24.24,0,0,1-.14-.09.16.16,0,0,1,0-.12V60.37a2.4,2.4,0,0,0-.06-.56,1.35,1.35,0,0,0-.18-.44.74.74,0,0,0-.3-.28.94.94,0,0,0-.43-.1,1,1,0,0,0-.63.24,3.79,3.79,0,0,0-.67.7v4a.21.21,0,0,1,0,.12.28.28,0,0,1-.14.09,1.46,1.46,0,0,1-.27,0l-.41,0-.42,0a1.2,1.2,0,0,1-.26,0,.21.21,0,0,1-.14-.09.16.16,0,0,1,0-.12V57.89a.21.21,0,0,1,0-.12.19.19,0,0,1,.12-.09l.23,0,.35,0,.37,0a.9.9,0,0,1,.22,0,.2.2,0,0,1,.11.09.21.21,0,0,1,0,.12v.7a4.23,4.23,0,0,1,1-.82,2.22,2.22,0,0,1,1.05-.27,2.4,2.4,0,0,1,.68.08,1.86,1.86,0,0,1,.54.22,1.93,1.93,0,0,1,.4.35,2,2,0,0,1,.29.46,6.32,6.32,0,0,1,.54-.51,3.08,3.08,0,0,1,.52-.34,2.16,2.16,0,0,1,.51-.2,2.24,2.24,0,0,1,.52-.06,2.28,2.28,0,0,1,1,.2,1.75,1.75,0,0,1,.67.56,2.37,2.37,0,0,1,.37.82,4.64,4.64,0,0,1,.11,1Z"/><path d="M160.37,60.87a4.51,4.51,0,0,1-.21,1.42,2.88,2.88,0,0,1-.62,1.11,2.77,2.77,0,0,1-1,.72,3.9,3.9,0,0,1-1.47.25,4,4,0,0,1-1.42-.22,2.57,2.57,0,0,1-1-.66,2.66,2.66,0,0,1-.58-1.06,4.84,4.84,0,0,1-.2-1.43,4.62,4.62,0,0,1,.21-1.43,3,3,0,0,1,.63-1.11,2.87,2.87,0,0,1,1-.71,3.9,3.9,0,0,1,1.47-.25,4.07,4.07,0,0,1,1.42.22,2.45,2.45,0,0,1,1,.65,2.68,2.68,0,0,1,.59,1.06A4.88,4.88,0,0,1,160.37,60.87Zm-1.77.07a5.25,5.25,0,0,0-.07-.83,1.93,1.93,0,0,0-.25-.66,1.19,1.19,0,0,0-.45-.44,1.52,1.52,0,0,0-.71-.15,1.41,1.41,0,0,0-.67.14,1.19,1.19,0,0,0-.48.41,1.93,1.93,0,0,0-.27.65,3.69,3.69,0,0,0-.1.86,4.25,4.25,0,0,0,.08.83,2.15,2.15,0,0,0,.24.66,1.22,1.22,0,0,0,.46.44,1.52,1.52,0,0,0,.71.15,1.62,1.62,0,0,0,.68-.14,1.23,1.23,0,0,0,.47-.41,2,2,0,0,0,.27-.64A3.81,3.81,0,0,0,158.6,60.94Z"/><path d="M165.74,62.26a2.07,2.07,0,0,1-.19.92,2,2,0,0,1-.55.66,2.51,2.51,0,0,1-.84.4,4,4,0,0,1-1.06.13,3.49,3.49,0,0,1-.65-.05,3.86,3.86,0,0,1-.56-.13,2.34,2.34,0,0,1-.41-.16.83.83,0,0,1-.24-.15.55.55,0,0,1-.11-.23,1.72,1.72,0,0,1,0-.45,2.92,2.92,0,0,1,0-.32.78.78,0,0,1,0-.19.2.2,0,0,1,.07-.1l.1,0a.62.62,0,0,1,.23.08,3.78,3.78,0,0,0,.36.19,4.23,4.23,0,0,0,.51.19,2.19,2.19,0,0,0,.66.09,1.28,1.28,0,0,0,.41,0,1,1,0,0,0,.32-.13.63.63,0,0,0,.2-.23.62.62,0,0,0,.07-.31.48.48,0,0,0-.13-.35,1,1,0,0,0-.33-.26l-.47-.21-.55-.21a5.2,5.2,0,0,1-.53-.26,2.19,2.19,0,0,1-.48-.37,1.59,1.59,0,0,1-.33-.53,1.85,1.85,0,0,1-.13-.74,1.91,1.91,0,0,1,.17-.8,1.88,1.88,0,0,1,.49-.63,2.55,2.55,0,0,1,.79-.4,3.33,3.33,0,0,1,1-.14,3.43,3.43,0,0,1,.56,0,3.26,3.26,0,0,1,.49.1l.37.13a.86.86,0,0,1,.21.13.24.24,0,0,1,.1.1.83.83,0,0,1,0,.12c0,.05,0,.11,0,.18a2,2,0,0,1,0,.26,2.45,2.45,0,0,1,0,.3c0,.08,0,.14,0,.19a.22.22,0,0,1-.07.09.15.15,0,0,1-.09,0,.43.43,0,0,1-.2-.07,2,2,0,0,0-.32-.15,2.37,2.37,0,0,0-.45-.15,2.1,2.1,0,0,0-.59-.08,1.56,1.56,0,0,0-.4,0,.74.74,0,0,0-.28.14.54.54,0,0,0-.16.21.54.54,0,0,0-.06.25.52.52,0,0,0,.13.36,1.3,1.3,0,0,0,.34.25c.14.07.31.14.49.21l.54.2a5.6,5.6,0,0,1,.55.27,1.92,1.92,0,0,1,.48.37,1.56,1.56,0,0,1,.34.52A1.75,1.75,0,0,1,165.74,62.26Z"/><path d="M77.19,76.31a.16.16,0,0,1,0,.12.24.24,0,0,1-.14.09,1.2,1.2,0,0,1-.26,0l-.42,0-.42,0-.26,0a.28.28,0,0,1-.14-.09.16.16,0,0,1,0-.12v-9a.19.19,0,0,1,0-.12.38.38,0,0,1,.14-.09.91.91,0,0,1,.26-.06l.42,0,.42,0a.77.77,0,0,1,.26.06.31.31,0,0,1,.14.09.19.19,0,0,1,0,.12Z"/><path d="M83.82,76.33a.18.18,0,0,1-.06.15.41.41,0,0,1-.22.08,2.31,2.31,0,0,1-.43,0,2.34,2.34,0,0,1-.45,0,.31.31,0,0,1-.2-.08.18.18,0,0,1-.06-.15v-.48a2.77,2.77,0,0,1-.86.63,2.47,2.47,0,0,1-1.07.22,3.14,3.14,0,0,1-.89-.12,2.06,2.06,0,0,1-.7-.38,1.68,1.68,0,0,1-.46-.62,2.06,2.06,0,0,1-.17-.86,2,2,0,0,1,.21-.93,1.73,1.73,0,0,1,.62-.64,2.91,2.91,0,0,1,1-.38,6.77,6.77,0,0,1,1.43-.13h.6v-.37a1.9,1.9,0,0,0-.06-.5,1,1,0,0,0-.19-.36.9.9,0,0,0-.36-.21,2.11,2.11,0,0,0-.55-.07,2.61,2.61,0,0,0-.77.1,4.2,4.2,0,0,0-.6.21l-.43.21a.59.59,0,0,1-.29.1.24.24,0,0,1-.13,0,.28.28,0,0,1-.09-.14.64.64,0,0,1-.06-.22,1.23,1.23,0,0,1,0-.28,1.52,1.52,0,0,1,0-.34.56.56,0,0,1,.13-.22,1.17,1.17,0,0,1,.34-.22,3.85,3.85,0,0,1,.56-.22,4.48,4.48,0,0,1,.7-.17,4.93,4.93,0,0,1,.78-.06,4.43,4.43,0,0,1,1.23.14,1.87,1.87,0,0,1,.83.43,1.62,1.62,0,0,1,.48.75,3.43,3.43,0,0,1,.15,1.08Zm-1.68-2.61h-.66a3.55,3.55,0,0,0-.71.06,1.55,1.55,0,0,0-.48.19.77.77,0,0,0-.27.3.84.84,0,0,0-.09.4.79.79,0,0,0,.25.6,1,1,0,0,0,.67.22,1.33,1.33,0,0,0,.67-.19,2.68,2.68,0,0,0,.62-.54Z"/><path d="M92.44,74.59a2.08,2.08,0,0,1-.2.92,1.84,1.84,0,0,1-.55.66,2.34,2.34,0,0,1-.84.4,3.87,3.87,0,0,1-1,.13,3.36,3.36,0,0,1-.65,0,3.57,3.57,0,0,1-.56-.13,2.34,2.34,0,0,1-.41-.16.83.83,0,0,1-.24-.15.55.55,0,0,1-.12-.23,2.31,2.31,0,0,1,0-.45,2.58,2.58,0,0,1,0-.32.78.78,0,0,1,0-.19.2.2,0,0,1,.07-.1l.1,0a.59.59,0,0,1,.22.08l.37.19a3.25,3.25,0,0,0,.51.19,2.19,2.19,0,0,0,.66.09,1.32,1.32,0,0,0,.41,0,1,1,0,0,0,.31-.13.55.55,0,0,0,.2-.23.62.62,0,0,0,.07-.31.51.51,0,0,0-.12-.35,1.14,1.14,0,0,0-.34-.26c-.14-.07-.29-.14-.47-.21l-.54-.21c-.18-.08-.36-.16-.54-.26a2.13,2.13,0,0,1-.47-.37,1.79,1.79,0,0,1-.34-.53,2,2,0,0,1-.12-.74,1.8,1.8,0,0,1,.66-1.43,2.49,2.49,0,0,1,.78-.4,3.4,3.4,0,0,1,1-.14,3.43,3.43,0,0,1,.56,0,2.89,2.89,0,0,1,.48.1,3.07,3.07,0,0,1,.37.13,1,1,0,0,1,.22.13.28.28,0,0,1,.09.1.34.34,0,0,1,0,.12l0,.18c0,.07,0,.16,0,.26s0,.23,0,.3a.78.78,0,0,1,0,.19.2.2,0,0,1-.06.09.16.16,0,0,1-.1,0,.44.44,0,0,1-.19-.07l-.32-.15a2.76,2.76,0,0,0-.46-.15,2,2,0,0,0-.58-.08,1.5,1.5,0,0,0-.4,0,.67.67,0,0,0-.28.14.56.56,0,0,0-.17.21.7.7,0,0,0,0,.25.52.52,0,0,0,.13.36,1.15,1.15,0,0,0,.34.25l.48.21.55.2q.27.12.54.27a2.18,2.18,0,0,1,.49.37,1.74,1.74,0,0,1,.34.52A1.93,1.93,0,0,1,92.44,74.59Z"/><path d="M95.3,68.15a1,1,0,0,1-.21.72,1.17,1.17,0,0,1-.79.2,1.23,1.23,0,0,1-.78-.19,1,1,0,0,1-.2-.69,1,1,0,0,1,.21-.73,1.17,1.17,0,0,1,.79-.2,1.16,1.16,0,0,1,.78.2A1,1,0,0,1,95.3,68.15Zm-.13,8.16a.16.16,0,0,1,0,.12.24.24,0,0,1-.14.09,1.2,1.2,0,0,1-.26,0l-.42,0-.42,0a1.33,1.33,0,0,1-.26,0,.24.24,0,0,1-.14-.09.16.16,0,0,1,0-.12V70.23a.16.16,0,0,1,0-.12.42.42,0,0,1,.14-.09l.26-.06.42,0,.42,0L95,70a.42.42,0,0,1,.14.09.16.16,0,0,1,0,.12Z"/><path d="M102.1,70.64a1.15,1.15,0,0,1-.07.48c0,.11-.11.16-.19.16h-.71a1,1,0,0,1,.21.38,1.21,1.21,0,0,1,.07.43,2.4,2.4,0,0,1-.18,1,1.94,1.94,0,0,1-.51.69,2.13,2.13,0,0,1-.8.43,3.39,3.39,0,0,1-1,.15,2,2,0,0,1-.56-.07,1.23,1.23,0,0,1-.41-.17.8.8,0,0,0-.15.21.68.68,0,0,0-.07.28.37.37,0,0,0,.18.32.84.84,0,0,0,.49.14l1.48.06a3.64,3.64,0,0,1,.93.14,2.09,2.09,0,0,1,.68.36,1.53,1.53,0,0,1,.43.55,1.86,1.86,0,0,1,.14.73,1.77,1.77,0,0,1-.2.85,2,2,0,0,1-.59.7,3.19,3.19,0,0,1-1,.46,5.18,5.18,0,0,1-1.39.17,6.29,6.29,0,0,1-1.33-.12,3.09,3.09,0,0,1-.91-.34,1.43,1.43,0,0,1-.51-.53,1.34,1.34,0,0,1-.16-.66A1.49,1.49,0,0,1,96,77a1.55,1.55,0,0,1,.17-.4,2.2,2.2,0,0,1,.28-.36,2.94,2.94,0,0,1,.37-.32,1.24,1.24,0,0,1-.45-.43,1.11,1.11,0,0,1-.16-.59,1.53,1.53,0,0,1,.18-.74,2.49,2.49,0,0,1,.48-.6,1.63,1.63,0,0,1-.38-.57,2,2,0,0,1-.15-.83,2.42,2.42,0,0,1,.19-1,2.07,2.07,0,0,1,.53-.71,2.29,2.29,0,0,1,.8-.44,3.26,3.26,0,0,1,1-.16,4.74,4.74,0,0,1,.55,0,3.3,3.3,0,0,1,.49.09h1.93c.08,0,.14,0,.19.15A1.25,1.25,0,0,1,102.1,70.64ZM100.3,77a.52.52,0,0,0-.25-.47,1.27,1.27,0,0,0-.67-.18l-1.23,0a1.41,1.41,0,0,0-.28.25,1.09,1.09,0,0,0-.17.22.79.79,0,0,0-.09.22,1.36,1.36,0,0,0,0,.21.57.57,0,0,0,.35.52,2.12,2.12,0,0,0,1,.18,2.48,2.48,0,0,0,.66-.08,1.33,1.33,0,0,0,.43-.21.87.87,0,0,0,.23-.29A.8.8,0,0,0,100.3,77Zm-.4-4.87a1,1,0,0,0-.28-.76,1,1,0,0,0-.77-.28,1,1,0,0,0-.44.09.85.85,0,0,0-.32.23.88.88,0,0,0-.19.34,1.4,1.4,0,0,0-.06.41,1,1,0,0,0,.27.73,1,1,0,0,0,.76.27,1.06,1.06,0,0,0,.45-.08.83.83,0,0,0,.32-.22,1.09,1.09,0,0,0,.19-.33A1.34,1.34,0,0,0,99.9,72.08Z"/><path d="M108.75,76.31a.21.21,0,0,1,0,.12.27.27,0,0,1-.12.09l-.23,0-.35,0-.37,0a.9.9,0,0,1-.22,0,.27.27,0,0,1-.12-.09.21.21,0,0,1,0-.12v-.7a3.94,3.94,0,0,1-1,.82,2.33,2.33,0,0,1-1.08.27,2.57,2.57,0,0,1-1.06-.2,2,2,0,0,1-.69-.56,2.43,2.43,0,0,1-.38-.83,5.37,5.37,0,0,1-.11-1.16V70.22a.16.16,0,0,1,0-.12.21.21,0,0,1,.14-.09,1.2,1.2,0,0,1,.26-.05l.42,0,.41,0a1.46,1.46,0,0,1,.27.05.28.28,0,0,1,.14.09.21.21,0,0,1,0,.12v3.44a3.36,3.36,0,0,0,.06.73,1.18,1.18,0,0,0,.19.44.87.87,0,0,0,.32.28,1.06,1.06,0,0,0,.45.1,1.12,1.12,0,0,0,.66-.24,3.85,3.85,0,0,0,.71-.7v-4a.16.16,0,0,1,0-.12.22.22,0,0,1,.13-.09,1.46,1.46,0,0,1,.27-.05l.41,0,.42,0a1.2,1.2,0,0,1,.26.05.24.24,0,0,1,.14.09.16.16,0,0,1,0,.12Z"/><path d="M112.05,68.15a1,1,0,0,1-.21.72,1.17,1.17,0,0,1-.79.2,1.21,1.21,0,0,1-.78-.19,1,1,0,0,1-.2-.69,1,1,0,0,1,.21-.73,1.17,1.17,0,0,1,.79-.2,1.16,1.16,0,0,1,.78.2A1,1,0,0,1,112.05,68.15Zm-.13,8.16a.16.16,0,0,1,0,.12.24.24,0,0,1-.14.09,1.33,1.33,0,0,1-.26,0l-.42,0-.42,0a1.33,1.33,0,0,1-.26,0,.24.24,0,0,1-.14-.09.16.16,0,0,1,0-.12V70.23a.16.16,0,0,1,0-.12.42.42,0,0,1,.14-.09l.26-.06.42,0,.42,0,.26.06a.42.42,0,0,1,.14.09.16.16,0,0,1,0,.12Z"/><path d="M119,73.09a.67.67,0,0,1-.14.46.5.5,0,0,1-.39.15h-3.71a2.6,2.6,0,0,0,.09.71,1.42,1.42,0,0,0,.3.54,1.21,1.21,0,0,0,.52.34,2.14,2.14,0,0,0,.76.11,4.62,4.62,0,0,0,.79-.06,4.71,4.71,0,0,0,.59-.14c.17-.06.31-.1.42-.15a.84.84,0,0,1,.26-.06l.11,0a.2.2,0,0,1,.06.09.61.61,0,0,1,0,.17,2.35,2.35,0,0,1,0,.28v.26a1.41,1.41,0,0,0,0,.18.5.5,0,0,1-.05.13.3.3,0,0,1-.07.1,1.08,1.08,0,0,1-.24.13,3.94,3.94,0,0,1-.51.16c-.2,0-.44.1-.7.14a7.48,7.48,0,0,1-.85,0,4.63,4.63,0,0,1-1.42-.2,2.73,2.73,0,0,1-1-.62,2.69,2.69,0,0,1-.61-1.06,5.07,5.07,0,0,1-.2-1.49,4.72,4.72,0,0,1,.21-1.46,3,3,0,0,1,.62-1.11,2.64,2.64,0,0,1,1-.69,3.35,3.35,0,0,1,1.3-.24,3.42,3.42,0,0,1,1.31.22,2.32,2.32,0,0,1,.89.63,2.4,2.4,0,0,1,.52.94,4.56,4.56,0,0,1,.16,1.19Zm-1.67-.5a1.69,1.69,0,0,0-.29-1.13,1.12,1.12,0,0,0-1-.42,1.14,1.14,0,0,0-.57.13,1.08,1.08,0,0,0-.4.33,1.51,1.51,0,0,0-.25.49,2.35,2.35,0,0,0-.1.6Z"/><path d="M126,76.31a.16.16,0,0,1,0,.12.24.24,0,0,1-.14.09,1.2,1.2,0,0,1-.26,0l-.41,0-.43,0a1.33,1.33,0,0,1-.26,0,.28.28,0,0,1-.14-.09.21.21,0,0,1,0-.12V72.83a3.14,3.14,0,0,0-.06-.69,1.36,1.36,0,0,0-.19-.44.87.87,0,0,0-.32-.28,1.06,1.06,0,0,0-.45-.1,1.12,1.12,0,0,0-.66.24,3.55,3.55,0,0,0-.7.7v4a.21.21,0,0,1,0,.12.28.28,0,0,1-.14.09,1.46,1.46,0,0,1-.27,0l-.41,0-.42,0a1.2,1.2,0,0,1-.26,0,.21.21,0,0,1-.14-.09.16.16,0,0,1,0-.12V70.22a.21.21,0,0,1,0-.12.19.19,0,0,1,.12-.09l.23-.05.35,0,.37,0a.9.9,0,0,1,.22.05.2.2,0,0,1,.11.09.21.21,0,0,1,0,.12v.7a3.91,3.91,0,0,1,1-.82,2.37,2.37,0,0,1,1.09-.27,2.34,2.34,0,0,1,1.05.2,1.75,1.75,0,0,1,.69.56,2.06,2.06,0,0,1,.38.82,4.75,4.75,0,0,1,.12,1.14Z"/><path d="M130.84,75.71a2.43,2.43,0,0,1,0,.46.55.55,0,0,1-.1.23.7.7,0,0,1-.18.12,1.58,1.58,0,0,1-.28.08,1.82,1.82,0,0,1-.35.06,2.36,2.36,0,0,1-.38,0,2.65,2.65,0,0,1-.89-.13,1.39,1.39,0,0,1-.62-.4,1.7,1.7,0,0,1-.36-.68,3.43,3.43,0,0,1-.12-1V71.38h-.73c-.09,0-.15-.06-.2-.16a1.67,1.67,0,0,1-.07-.54,2.92,2.92,0,0,1,0-.33.8.8,0,0,1,0-.22.2.2,0,0,1,.09-.11.21.21,0,0,1,.12,0h.72V68.62a.19.19,0,0,1,0-.12.21.21,0,0,1,.14-.09.77.77,0,0,1,.26-.06h.84a.77.77,0,0,1,.26.06.22.22,0,0,1,.18.21V70h1.32a.21.21,0,0,1,.12,0,.2.2,0,0,1,.09.11.8.8,0,0,1,0,.22,2.92,2.92,0,0,1,0,.33,1.67,1.67,0,0,1-.07.54c-.05.1-.11.16-.2.16h-1.33v2.86a1.48,1.48,0,0,0,.15.75.62.62,0,0,0,.57.25l.24,0,.2-.06.14,0a.23.23,0,0,1,.11,0,.11.11,0,0,1,.07,0s.05,0,.06.09a.88.88,0,0,1,0,.2A2.41,2.41,0,0,1,130.84,75.71Z"/><path d="M137.26,73.09a.62.62,0,0,1-.14.46.49.49,0,0,1-.38.15H133a2.59,2.59,0,0,0,.1.71,1.41,1.41,0,0,0,.29.54,1.35,1.35,0,0,0,.52.34,2.18,2.18,0,0,0,.76.11,4.74,4.74,0,0,0,.8-.06,5.75,5.75,0,0,0,.59-.14l.41-.15a.83.83,0,0,1,.27-.06l.1,0a.22.22,0,0,1,.07.09.61.61,0,0,1,0,.17c0,.08,0,.17,0,.28s0,.19,0,.26,0,.13,0,.18a.5.5,0,0,1,0,.13.61.61,0,0,1-.07.1,1,1,0,0,1-.25.13,4.27,4.27,0,0,1-.5.16c-.21,0-.44.1-.71.14a7.3,7.3,0,0,1-.84,0,4.7,4.7,0,0,1-1.43-.2,2.62,2.62,0,0,1-1-.62,2.47,2.47,0,0,1-.61-1.06,5.17,5.17,0,0,1,0-2.95,3,3,0,0,1,.61-1.11,2.73,2.73,0,0,1,1-.69,3.82,3.82,0,0,1,2.61,0,2.36,2.36,0,0,1,.9.63,2.52,2.52,0,0,1,.51.94,4.17,4.17,0,0,1,.16,1.19Zm-1.66-.5a1.75,1.75,0,0,0-.3-1.13,1.1,1.1,0,0,0-1-.42,1.2,1.2,0,0,0-1,.46,1.51,1.51,0,0,0-.25.49,2.89,2.89,0,0,0-.1.6Z"/><path d="M76.57,88.64a.21.21,0,0,1,0,.12.28.28,0,0,1-.14.09,1.2,1.2,0,0,1-.26.05l-.42,0-.42,0a1.2,1.2,0,0,1-.26-.05.28.28,0,0,1-.14-.09.16.16,0,0,1,0-.12V85.16a3.08,3.08,0,0,0-.06-.69A1.62,1.62,0,0,0,74.6,84a.87.87,0,0,0-.32-.28,1.06,1.06,0,0,0-.45-.1,1.17,1.17,0,0,0-.67.24,3.52,3.52,0,0,0-.69.7v4a.17.17,0,0,1,0,.12.21.21,0,0,1-.14.09,1.2,1.2,0,0,1-.26.05l-.42,0-.41,0a1.46,1.46,0,0,1-.27-.05.28.28,0,0,1-.14-.09.21.21,0,0,1,0-.12v-9a.22.22,0,0,1,.18-.21.9.9,0,0,1,.27-.06l.41,0,.42,0a.77.77,0,0,1,.26.06.21.21,0,0,1,.14.09.21.21,0,0,1,0,.12V83a3.1,3.1,0,0,1,.9-.65,2.31,2.31,0,0,1,1-.21,2.34,2.34,0,0,1,1,.2,1.75,1.75,0,0,1,.69.56,2.34,2.34,0,0,1,.38.83,4.78,4.78,0,0,1,.12,1.15Z"/><path d="M83.61,85.42a.67.67,0,0,1-.14.46.51.51,0,0,1-.39.15H79.37a2.6,2.6,0,0,0,.09.71,1.3,1.3,0,0,0,.3.54,1.21,1.21,0,0,0,.52.34,2.14,2.14,0,0,0,.76.11,4.62,4.62,0,0,0,.79-.06,4.71,4.71,0,0,0,.59-.14c.17-.06.31-.1.42-.15a.73.73,0,0,1,.26-.06l.1,0a.22.22,0,0,1,.07.09.61.61,0,0,1,0,.17,2.35,2.35,0,0,1,0,.28,2,2,0,0,1,0,.26.9.9,0,0,1,0,.18.5.5,0,0,1,0,.13.61.61,0,0,1-.07.1,1.08,1.08,0,0,1-.24.13,3.94,3.94,0,0,1-.51.16,5.51,5.51,0,0,1-.7.13,5.77,5.77,0,0,1-.85.06,4.63,4.63,0,0,1-1.42-.2,2.73,2.73,0,0,1-1-.62,2.69,2.69,0,0,1-.61-1.06,5.07,5.07,0,0,1-.2-1.49,4.72,4.72,0,0,1,.21-1.46,3,3,0,0,1,.62-1.11,2.53,2.53,0,0,1,1-.69,3.35,3.35,0,0,1,1.3-.24,3.42,3.42,0,0,1,1.31.22,2.32,2.32,0,0,1,.89.63,2.52,2.52,0,0,1,.51.94,4.12,4.12,0,0,1,.17,1.19Zm-1.67-.5a1.75,1.75,0,0,0-.29-1.13,1.12,1.12,0,0,0-1-.42,1.14,1.14,0,0,0-.57.13,1.08,1.08,0,0,0-.4.33,1.51,1.51,0,0,0-.25.49,2.35,2.35,0,0,0-.1.6Z"/><path d="M88.66,83.11c0,.17,0,.3,0,.41s0,.18,0,.24a.32.32,0,0,1-.08.13.18.18,0,0,1-.11,0l-.12,0-.16-.06-.18,0-.23,0a.79.79,0,0,0-.29.06,1.35,1.35,0,0,0-.29.18,1.69,1.69,0,0,0-.32.33,3.09,3.09,0,0,0-.36.5v3.8a.21.21,0,0,1,0,.12.27.27,0,0,1-.15.09,1.2,1.2,0,0,1-.26.05l-.42,0-.41,0a1.2,1.2,0,0,1-.26-.05.27.27,0,0,1-.15-.09.21.21,0,0,1,0-.12V82.55a.21.21,0,0,1,0-.12.19.19,0,0,1,.12-.09l.23,0,.35,0,.36,0a1,1,0,0,1,.23,0,.2.2,0,0,1,.11.09.21.21,0,0,1,0,.12v.75a6.06,6.06,0,0,1,.45-.56,2.4,2.4,0,0,1,.41-.35,1.09,1.09,0,0,1,.38-.18,1.28,1.28,0,0,1,.38,0H88l.22,0,.19,0,.12.07a.22.22,0,0,1,0,.08.53.53,0,0,1,0,.11,1.06,1.06,0,0,1,0,.21C88.66,82.82,88.66,83,88.66,83.11Z"/><path d="M93.36,83.11c0,.17,0,.3,0,.41a1.19,1.19,0,0,1,0,.24.32.32,0,0,1-.07.13.2.2,0,0,1-.11,0l-.13,0-.15-.06-.19,0-.22,0a.75.75,0,0,0-.29.06,1.4,1.4,0,0,0-.3.18,2,2,0,0,0-.32.33,5.1,5.1,0,0,0-.36.5v3.8a.16.16,0,0,1,0,.12.24.24,0,0,1-.14.09,1.2,1.2,0,0,1-.26.05l-.42,0-.42,0a1.33,1.33,0,0,1-.26-.05.28.28,0,0,1-.14-.09.16.16,0,0,1,0-.12V82.55a.21.21,0,0,1,0-.12.25.25,0,0,1,.13-.09,1,1,0,0,1,.23,0l.35,0,.36,0a.8.8,0,0,1,.22,0,.27.27,0,0,1,.12.09.21.21,0,0,1,0,.12v.75a6.06,6.06,0,0,1,.45-.56,2.37,2.37,0,0,1,.4-.35,1.14,1.14,0,0,1,.39-.18,1.2,1.2,0,0,1,.38,0h.19a.76.76,0,0,1,.21,0l.19,0,.12.07a.16.16,0,0,1,.06.08.53.53,0,0,1,0,.11,1.06,1.06,0,0,1,0,.21C93.35,82.82,93.36,83,93.36,83.11Z"/><path d="M99,88.66a.18.18,0,0,1-.06.15.41.41,0,0,1-.22.08,2.31,2.31,0,0,1-.43,0,2.34,2.34,0,0,1-.45,0,.34.34,0,0,1-.2-.08.18.18,0,0,1-.06-.15v-.48a2.77,2.77,0,0,1-.86.63,2.47,2.47,0,0,1-1.07.22,3.14,3.14,0,0,1-.89-.12,2.06,2.06,0,0,1-.7-.38,1.68,1.68,0,0,1-.46-.62,2.06,2.06,0,0,1-.17-.86,2,2,0,0,1,.21-.93,1.83,1.83,0,0,1,.62-.65,3.12,3.12,0,0,1,1-.37A6.77,6.77,0,0,1,96.74,85h.6V84.6a1.85,1.85,0,0,0-.06-.5,1,1,0,0,0-.19-.36.9.9,0,0,0-.36-.21,1.75,1.75,0,0,0-.55-.07,2.61,2.61,0,0,0-.77.1,4.2,4.2,0,0,0-.6.21l-.43.21a.73.73,0,0,1-.28.1A.24.24,0,0,1,94,84a.28.28,0,0,1-.09-.14.64.64,0,0,1-.06-.22,1.23,1.23,0,0,1,0-.28,1.52,1.52,0,0,1,0-.34.56.56,0,0,1,.13-.22,1.33,1.33,0,0,1,.34-.22,3.85,3.85,0,0,1,.56-.22,4.48,4.48,0,0,1,.7-.17,4.93,4.93,0,0,1,.78-.06,4.43,4.43,0,0,1,1.23.14,1.87,1.87,0,0,1,.83.43,1.62,1.62,0,0,1,.48.75A3.43,3.43,0,0,1,99,84.56Zm-1.68-2.61h-.66a3.55,3.55,0,0,0-.71.06,1.55,1.55,0,0,0-.48.19.77.77,0,0,0-.27.3.84.84,0,0,0-.09.4.79.79,0,0,0,.25.6,1,1,0,0,0,.67.22,1.33,1.33,0,0,0,.67-.19,2.68,2.68,0,0,0,.62-.54Z"/><path d="M110.16,88.64a.16.16,0,0,1,0,.12.24.24,0,0,1-.14.09,1.2,1.2,0,0,1-.26.05l-.41,0-.43,0a1.2,1.2,0,0,1-.26-.05.24.24,0,0,1-.14-.09.21.21,0,0,1,0-.12V85a3.06,3.06,0,0,0,0-.56,1.35,1.35,0,0,0-.18-.44.89.89,0,0,0-.3-.28,1,1,0,0,0-.44-.1,1,1,0,0,0-.62.24,3.8,3.8,0,0,0-.68.7v4a.21.21,0,0,1,0,.12.28.28,0,0,1-.14.09,1.46,1.46,0,0,1-.27.05l-.41,0-.41,0a1.46,1.46,0,0,1-.27-.05.28.28,0,0,1-.14-.09.21.21,0,0,1,0-.12V85a2.34,2.34,0,0,0-.06-.56,1.35,1.35,0,0,0-.17-.44.89.89,0,0,0-.3-.28,1,1,0,0,0-.43-.1,1,1,0,0,0-.63.24,3.8,3.8,0,0,0-.68.7v4a.16.16,0,0,1,0,.12.24.24,0,0,1-.14.09,1.33,1.33,0,0,1-.26.05l-.42,0-.42,0a1.33,1.33,0,0,1-.26-.05.24.24,0,0,1-.14-.09.16.16,0,0,1,0-.12V82.55a.21.21,0,0,1,0-.12.25.25,0,0,1,.13-.09,1,1,0,0,1,.23,0l.35,0,.36,0a.8.8,0,0,1,.22,0,.2.2,0,0,1,.11.09.16.16,0,0,1,0,.12v.7a3.83,3.83,0,0,1,1-.82,2.16,2.16,0,0,1,1-.27,2.76,2.76,0,0,1,.67.07,2.2,2.2,0,0,1,.54.23,2,2,0,0,1,.41.35,2,2,0,0,1,.28.46c.19-.2.37-.36.54-.51a3.54,3.54,0,0,1,.52-.34,2.16,2.16,0,0,1,.51-.2,2.33,2.33,0,0,1,.53-.06,2.26,2.26,0,0,1,1,.2,1.75,1.75,0,0,1,.67.56,2,2,0,0,1,.37.82,4.64,4.64,0,0,1,.11,1Z"/><path d="M113.42,80.48a1,1,0,0,1-.21.72,1.17,1.17,0,0,1-.79.2,1.21,1.21,0,0,1-.78-.19,1,1,0,0,1-.2-.69,1,1,0,0,1,.21-.73,1.17,1.17,0,0,1,.79-.2,1.16,1.16,0,0,1,.78.2A1,1,0,0,1,113.42,80.48Zm-.13,8.16a.16.16,0,0,1,0,.12.24.24,0,0,1-.14.09,1.33,1.33,0,0,1-.26.05l-.42,0-.42,0a1.33,1.33,0,0,1-.26-.05.24.24,0,0,1-.14-.09.16.16,0,0,1,0-.12V82.56a.16.16,0,0,1,0-.12.42.42,0,0,1,.14-.09l.26-.06.42,0,.42,0,.26.06a.42.42,0,0,1,.14.09.16.16,0,0,1,0,.12Z"/><path d="M120.36,85.42a.67.67,0,0,1-.14.46.5.5,0,0,1-.39.15h-3.71a2.6,2.6,0,0,0,.09.71,1.42,1.42,0,0,0,.3.54,1.21,1.21,0,0,0,.52.34,2.14,2.14,0,0,0,.76.11,4.62,4.62,0,0,0,.79-.06,4.71,4.71,0,0,0,.59-.14c.17-.06.31-.1.42-.15a.84.84,0,0,1,.26-.06l.11,0a.2.2,0,0,1,.06.09.39.39,0,0,1,0,.17,2.35,2.35,0,0,1,0,.28v.26a1.41,1.41,0,0,0,0,.18.5.5,0,0,1,0,.13.3.3,0,0,1-.07.1,1.08,1.08,0,0,1-.24.13,3.94,3.94,0,0,1-.51.16,5.51,5.51,0,0,1-.7.13,5.67,5.67,0,0,1-.85.06,4.63,4.63,0,0,1-1.42-.2,2.73,2.73,0,0,1-1-.62,2.69,2.69,0,0,1-.61-1.06,5.07,5.07,0,0,1-.2-1.49,4.72,4.72,0,0,1,.21-1.46,3.14,3.14,0,0,1,.62-1.11,2.53,2.53,0,0,1,1-.69,3.35,3.35,0,0,1,1.3-.24,3.42,3.42,0,0,1,1.31.22,2.32,2.32,0,0,1,.89.63,2.4,2.4,0,0,1,.52.94,4.13,4.13,0,0,1,.16,1.19Zm-1.67-.5a1.69,1.69,0,0,0-.29-1.13,1.12,1.12,0,0,0-1-.42,1.14,1.14,0,0,0-.57.13,1.08,1.08,0,0,0-.4.33,1.51,1.51,0,0,0-.25.49,2.35,2.35,0,0,0-.1.6Z"/><path d="M127.32,88.64a.16.16,0,0,1,0,.12.28.28,0,0,1-.14.09,1.2,1.2,0,0,1-.26.05l-.42,0-.42,0a1.2,1.2,0,0,1-.26-.05.28.28,0,0,1-.14-.09.21.21,0,0,1,0-.12V85.16a3.08,3.08,0,0,0-.06-.69,1.62,1.62,0,0,0-.19-.44.87.87,0,0,0-.32-.28,1.06,1.06,0,0,0-.45-.1,1.17,1.17,0,0,0-.67.24,3.52,3.52,0,0,0-.69.7v4a.21.21,0,0,1,0,.12.28.28,0,0,1-.14.09,1.46,1.46,0,0,1-.27.05l-.41,0-.42,0a1.2,1.2,0,0,1-.26-.05.21.21,0,0,1-.14-.09.17.17,0,0,1-.05-.12V82.55a.21.21,0,0,1,0-.12.19.19,0,0,1,.12-.09l.23,0,.35,0,.37,0a.9.9,0,0,1,.22,0,.2.2,0,0,1,.11.09.21.21,0,0,1,0,.12v.7a3.75,3.75,0,0,1,1-.82,2.37,2.37,0,0,1,1.09-.27,2.34,2.34,0,0,1,1,.2,1.75,1.75,0,0,1,.69.56,2.06,2.06,0,0,1,.38.82,4.69,4.69,0,0,1,.12,1.14Z"/><path d="M132.21,88a2.43,2.43,0,0,1,0,.46.55.55,0,0,1-.1.23.5.5,0,0,1-.18.11,1,1,0,0,1-.28.09,1.82,1.82,0,0,1-.35.06,2.36,2.36,0,0,1-.38,0,2.65,2.65,0,0,1-.89-.13,1.39,1.39,0,0,1-.62-.4,1.7,1.7,0,0,1-.36-.68,3.43,3.43,0,0,1-.12-1V83.71h-.73c-.09,0-.15-.06-.2-.16a1.67,1.67,0,0,1-.07-.54,2.92,2.92,0,0,1,0-.33.8.8,0,0,1,0-.22.2.2,0,0,1,.09-.11.16.16,0,0,1,.12,0h.72V81a.19.19,0,0,1,0-.12.21.21,0,0,1,.14-.09.77.77,0,0,1,.26-.06h.84a.77.77,0,0,1,.26.06.22.22,0,0,1,.18.21v1.36h1.32a.16.16,0,0,1,.12,0,.2.2,0,0,1,.09.11.8.8,0,0,1,.05.22,2.92,2.92,0,0,1,0,.33,1.67,1.67,0,0,1-.07.54c0,.1-.11.16-.2.16h-1.33v2.86a1.39,1.39,0,0,0,.16.75.6.6,0,0,0,.56.25l.24,0,.2-.06.14,0a.23.23,0,0,1,.11,0,.11.11,0,0,1,.07,0s0,0,.06.09a.88.88,0,0,1,0,.2A2.41,2.41,0,0,1,132.21,88Z"/><path d="M138.23,88.66a.16.16,0,0,1-.07.15.37.37,0,0,1-.21.08,2.44,2.44,0,0,1-.44,0,2.49,2.49,0,0,1-.45,0,.28.28,0,0,1-.19-.08.18.18,0,0,1-.06-.15v-.48a2.77,2.77,0,0,1-.86.63,2.5,2.5,0,0,1-1.07.22,3.14,3.14,0,0,1-.89-.12,2.11,2.11,0,0,1-.71-.38,1.8,1.8,0,0,1-.46-.62,2.06,2.06,0,0,1-.16-.86,2,2,0,0,1,.21-.93,1.75,1.75,0,0,1,.62-.65,3.12,3.12,0,0,1,1-.37A6.71,6.71,0,0,1,136,85h.59V84.6a1.85,1.85,0,0,0-.06-.5.89.89,0,0,0-.19-.36.93.93,0,0,0-.35-.21,1.79,1.79,0,0,0-.55-.07,2.57,2.57,0,0,0-.77.1,3.48,3.48,0,0,0-.6.21l-.43.21a.76.76,0,0,1-.29.1.21.21,0,0,1-.13,0,.39.39,0,0,1-.1-.14,2.18,2.18,0,0,1-.06-.22,2.3,2.3,0,0,1,0-.28,1.44,1.44,0,0,1,0-.34.46.46,0,0,1,.13-.22,1.09,1.09,0,0,1,.33-.22,4.37,4.37,0,0,1,.56-.22,4.78,4.78,0,0,1,.7-.17,5.16,5.16,0,0,1,.79-.06,4.35,4.35,0,0,1,1.22.14,2,2,0,0,1,.84.43,1.62,1.62,0,0,1,.48.75,3.43,3.43,0,0,1,.15,1.08Zm-1.69-2.61h-.65a3.73,3.73,0,0,0-.72.06,1.59,1.59,0,0,0-.47.19.64.64,0,0,0-.27.3.84.84,0,0,0-.09.4.78.78,0,0,0,.24.6,1,1,0,0,0,.68.22,1.27,1.27,0,0,0,.66-.19,2.49,2.49,0,0,0,.62-.54Z"/><path d="M141.69,87.89a1.27,1.27,0,0,1-.22.86,1.18,1.18,0,0,1-.8.21.83.83,0,0,1-1-1,1.22,1.22,0,0,1,.22-.86,1.13,1.13,0,0,1,.8-.22,1.1,1.1,0,0,1,.79.22A1.13,1.13,0,0,1,141.69,87.89Z"/></g></g></svg>