<svg xmlns="http://www.w3.org/2000/svg" viewBox="0 0 75.11 75.11"><defs><style>.cls-1{fill:#006632;}.cls-2{fill:#fff;}</style></defs><g id="Capa_2" data-name="Capa 2"><g id="Capa_1-2" data-name="Capa 1"><circle class="cls-1" cx="37.55" cy="37.55" r="37.55" transform="translate(-11.51 17.23) rotate(-22.5)"/><path class="cls-2" d="M21.42,49.1h1.77v10l9.88-10H53.69a5.28,5.28,0,0,0,5.25-5.28V21.24A5.28,5.28,0,0,0,53.69,16H21.42a5.27,5.27,0,0,0-5.25,5.28V43.82A5.27,5.27,0,0,0,21.42,49.1ZM19.71,21.52a2.07,2.07,0,0,1,2.06-2.08H53.34a2.07,2.07,0,0,1,2.06,2.08V43.68a2.07,2.07,0,0,1-2.06,2.08H32.86a2.39,2.39,0,0,0-1.67.7l-4.61,4.7v-3a2.37,2.37,0,0,0-2.36-2.37H21.77a2.07,2.07,0,0,1-2.06-2.08Z"/><path class="cls-2" d="M38.12,39.09a1.49,1.49,0,0,0-1.07.43,1.38,1.38,0,0,0-.46,1,1.41,1.41,0,0,0,.46,1,1.51,1.51,0,0,0,1.07.44,1.54,1.54,0,0,0,1.47-1.48,1.5,1.5,0,0,0-1.47-1.48Z"/><path class="cls-2" d="M33.74,28.43c.56,0,1-.45,1.21-1.27A2.88,2.88,0,0,1,38.05,25,3.35,3.35,0,0,1,40.5,26a3.29,3.29,0,0,1,.93,2.45,2.57,2.57,0,0,1-2.08,2.81c-.17.07-.54.16-1.08.3a3,3,0,0,0-1,.39,1.15,1.15,0,0,0-.41,1v3.86A1.18,1.18,0,0,0,38.05,38c.87-.07,1.3-.5,1.3-1.3v-3q4.9-1.07,4.9-5.94A5.12,5.12,0,0,0,41,23.28a7,7,0,0,0-2.75-.62,6.36,6.36,0,0,0-3.79,1.13,4.54,4.54,0,0,0-1.94,2.67,3,3,0,0,1,0,.58,1.36,1.36,0,0,0,.35.95A2.83,2.83,0,0,0,33.74,28.43Z"/></g></g></svg>