<svg xmlns="http://www.w3.org/2000/svg" xmlns:xlink="http://www.w3.org/1999/xlink" viewBox="0 0 420.57 164.42"><defs><style>.cls-1{fill:#2459a5;opacity:0;}.cls-2{fill:#2257a1;opacity:0.02;}.cls-3{fill:#21559c;opacity:0.03;}.cls-4{fill:#1f5298;opacity:0.05;}.cls-5{fill:#1d5094;opacity:0.07;}.cls-6{fill:#1b4e90;opacity:0.08;}.cls-7{fill:#1a4c8b;opacity:0.1;}.cls-8{fill:#184987;opacity:0.12;}.cls-9{fill:#164783;opacity:0.13;}.cls-10{fill:#15457e;opacity:0.15;}.cls-11{fill:#13437a;opacity:0.17;}.cls-12{fill:#114076;opacity:0.18;}.cls-13{fill:#0f3e72;opacity:0.2;}.cls-14{fill:#0e3c6d;opacity:0.22;}.cls-15{fill:#0c3a69;opacity:0.23;}.cls-16{fill:#0a3765;opacity:0.25;}.cls-17{fill:#093560;opacity:0.27;}.cls-18{fill:#07335c;opacity:0.28;}.cls-19{fill:#053158;opacity:0.3;}.cls-20{fill:#032e54;opacity:0.32;}.cls-21{fill:#022c4f;opacity:0.33;}.cls-22{fill:#002a4b;opacity:0.35;}.cls-23{fill:url(#linear-gradient);}.cls-24{fill:#fff;}</style><linearGradient id="linear-gradient" x1="490.73" y1="124.2" x2="145.96" y2="-130.41" gradientTransform="translate(-202.63)" gradientUnits="userSpaceOnUse"><stop offset="0" stop-color="#fefefe"/><stop offset="0.24" stop-color="#f5f5f6"/><stop offset="0.63" stop-color="#dedee0"/><stop offset="1" stop-color="#c2c2c5"/></linearGradient></defs><g id="Capa_2" data-name="Capa 2"><g id="Capa_1-2" data-name="Capa 1"><path class="cls-1" d="M211.48,0C396.69.7,437,58.11,415.21,111.41,400.66,146.94,295.46,167.58,194.28,164c-152.4-5.36-188-45.79-186.53-75.86C11.72,8.22,93.07-.42,211.48,0Z"/><path class="cls-2" d="M212,3.63c178.49.67,218.6,55.59,197.8,106.61-13.87,34.12-115.76,54-214.22,50.56C48.33,155.67,12.72,116.93,14.15,88,17.94,11.61,97.13,3.19,212,3.63Z"/><path class="cls-3" d="M212.51,7.24c171.76.67,211.64,53.09,191.87,101.84-13.19,32.69-111.78,51.76-207.52,48.5-142.08-4.9-177.68-42-176.31-69.7C24.17,15,101.19,6.79,212.51,7.24Z"/><path class="cls-4" d="M213,10.85c165,.66,204.68,50.58,185.94,97.07-12.51,31.27-107.8,49.55-200.81,46.43C61.24,149.68,25.64,114.31,27,87.74,30.39,18.4,105.25,10.4,213,10.85Z"/><path class="cls-5" d="M213.54,14.46c158.31.65,197.72,48.08,180,92.3-11.82,29.84-103.81,47.34-194.1,44.36C67.69,146.69,32.1,113,33.36,87.59,36.62,21.79,109.31,14,213.54,14.46Z"/><path class="cls-6" d="M214.05,18.07c151.59.65,190.67,45.54,174.08,87.53-11.22,28.39-99.83,45.13-187.4,42.3-126.58-4.21-162.16-36.2-161-60.45C42.85,25.18,113.37,17.61,214.05,18.07Z"/><path class="cls-7" d="M214.57,21.68c144.86.64,183.68,43,168.14,82.76-10.55,27-95.85,42.93-180.68,40.23C80.6,140.7,45,110.39,46.17,87.3,49.07,28.58,117.43,21.22,214.57,21.68Z"/><path class="cls-8" d="M215.08,25.29c138.14.63,176.71,40.52,162.21,78-9.88,25.53-91.86,40.72-174,38.17C87.05,137.7,51.49,109.08,52.57,87.16,55.3,32,121.49,24.83,215.08,25.29Z"/><path class="cls-9" d="M215.6,28.9c131.41.63,169.73,38,156.28,73.22-9.21,24.1-87.89,38.51-167.27,36.1C93.51,134.71,58,107.77,59,87,61.53,35.36,125.54,28.44,215.6,28.9Z"/><path class="cls-10" d="M216.11,32.52C340.8,33.13,378.87,68,366.46,101c-8.54,22.68-83.9,36.3-160.56,34C100,131.71,64.42,106.47,65.38,86.87,67.75,38.76,129.6,32,216.11,32.52Z"/><path class="cls-11" d="M216.63,36.13c118,.6,155.78,33,144.41,63.66-7.87,21.26-79.91,34.1-153.85,32C106.42,128.72,70.88,105.16,71.78,86.72,74,42.15,133.66,35.65,216.63,36.13Z"/><path class="cls-12" d="M217.15,39.74c111.22.6,148.8,30.48,138.48,58.89-7.21,19.83-75.94,31.89-147.15,29.92-95.61-2.83-131.14-24.7-130.29-42C80.21,45.55,137.72,39.26,217.15,39.74Z"/><path class="cls-13" d="M217.66,43.35c104.5.59,141.83,28,132.55,54.12-6.53,18.4-71.95,29.68-140.44,27.85-90.44-2.59-126-22.78-125.18-38.89C86.43,48.94,141.78,42.86,217.66,43.35Z"/><path class="cls-14" d="M218.18,47C316,47.55,353,72.43,344.79,96.31c-5.86,17-68,27.47-133.73,25.79C125.78,119.73,90.27,101.24,91,86.29,92.66,52.33,145.84,46.47,218.18,47Z"/><path class="cls-15" d="M218.69,50.57c91.05.58,127.9,23,120.69,44.58-5.19,15.55-64,25.26-127,23.72C132.23,116.74,96.73,99.93,97.4,86.14,98.89,55.73,149.9,50.08,218.69,50.57Z"/><path class="cls-16" d="M219.21,54.18C303.53,54.75,340.14,74.65,334,94c-4.51,14.13-60,23.05-120.32,21.66-74.95-1.91-110.45-17-109.84-29.65C105.11,59.12,154,53.69,219.21,54.18Z"/><path class="cls-17" d="M219.72,57.79c77.6.57,114,18,108.82,35-3.83,12.71-56,20.84-113.61,19.59-69.79-1.67-105.27-15.11-104.73-26.57C111.34,62.51,158,57.29,219.72,57.79Z"/><path class="cls-18" d="M220.24,61.41c70.87.55,107,15.47,102.89,30.26C320,103,271.09,110.3,216.22,109.2c-64.62-1.45-100.1-13.2-99.61-23.49C117.57,65.91,162.08,60.9,220.24,61.41Z"/><path class="cls-19" d="M220.75,65c64.15.54,100.08,13,97,25.48-2.46,9.88-48,16.43-100.2,15.47-59.46-1.21-94.93-11.27-94.5-20.41C123.79,69.3,166.14,64.51,220.75,65Z"/><path class="cls-20" d="M221.27,68.63c57.42.54,93.15,10.49,91,20.71-1.76,8.47-44.07,14.22-93.49,13.41-54.3-1-89.75-9.36-89.39-17.33C130,72.69,170.2,68.11,221.27,68.63Z"/><path class="cls-21" d="M221.78,72.24c50.7.53,86.26,8,85.1,15.94-1,7.06-40.09,12-86.78,11.34-49.14-.75-84.59-7.44-84.28-14.25C136.25,76.09,174.26,71.72,221.78,72.24Z"/><path class="cls-22" d="M222.3,75.85c44,.52,79.41,5.53,79.16,11.17s-36.1,9.8-80.07,9.28S142,90.77,142.22,85.13,178.32,75.33,222.3,75.85Z"/><path class="cls-23" d="M391.14,24.19H21.73A21.79,21.79,0,0,0,0,45.91v36a21.8,21.8,0,0,0,21.73,21.73h74.7l-11.18,30c-1.93,4,2.62,8.35,6.38,5.92,19.59-12.63,36.86-24.69,53.71-35.92h245.8a21.8,21.8,0,0,0,21.73-21.73v-36A21.79,21.79,0,0,0,391.14,24.19Z"/><path class="cls-24" d="M4.08,86V50A21.79,21.79,0,0,1,25.81,28.27H395.23a21.6,21.6,0,0,1,13.15,4.49,21.73,21.73,0,0,0-17.24-8.57H21.73A21.79,21.79,0,0,0,0,45.91v36a21.8,21.8,0,0,0,21.73,21.73H22C12.1,102.19,4.08,96.29,4.08,86Z"/><path class="cls-24" d="M89.33,137.69,101.47,104H96.31L85.25,133.61a4.67,4.67,0,0,0,3.67,6.6A4.55,4.55,0,0,1,89.33,137.69Z"/></g></g></svg>