<svg xmlns="http://www.w3.org/2000/svg" viewBox="0 0 799.67 275.5"><defs><style>.cls-1{fill:none;}.cls-1,.cls-2{stroke:#006632;stroke-linecap:round;stroke-miterlimit:10;stroke-width:2px;}.cls-2{fill:#006632;}</style></defs><g id="Capa_2" data-name="Capa 2"><g id="Capa_1-2" data-name="Capa 1"><rect class="cls-1" x="1" y="88.13" width="166.63" height="129.09" rx="16.77"/><rect class="cls-1" x="220.64" y="1" width="166.63" height="139.84" rx="16.77"/><rect class="cls-1" x="220.42" y="197.5" width="166.63" height="67.02" rx="16.77"/><rect class="cls-1" x="426.74" y="30.84" width="209.45" height="86.25" rx="16.77"/><rect class="cls-1" x="426.74" y="188.26" width="209.45" height="86.25" rx="16.77"/><polyline class="cls-1" points="84.31 88.13 84.31 73.96 220.42 73.96"/><polyline class="cls-1" points="84.31 217.22 84.31 231.38 220.42 231.38"/><rect class="cls-2" x="664.98" y="88.13" width="133.68" height="129.09" rx="16.77" transform="translate(1463.65 305.34) rotate(-180)"/><polyline class="cls-1" points="731.83 88.13 731.83 73.96 636.19 73.96"/><polyline class="cls-1" points="731.83 217.22 731.83 231.38 636.19 231.38"/><line class="cls-1" x1="387.26" y1="73.96" x2="426.74" y2="73.96"/><line class="cls-1" x1="387.26" y1="231.38" x2="426.74" y2="231.38"/></g></g></svg>