<svg xmlns="http://www.w3.org/2000/svg" viewBox="0 0 75.11 75.11"><defs><style>.cls-1{fill:#006632;}.cls-2{fill:#fff;}</style></defs><g id="Capa_2" data-name="Capa 2"><g id="Capa_1-2" data-name="Capa 1"><circle class="cls-1" cx="37.55" cy="37.55" r="37.55"/><path class="cls-2" d="M41.9,37.91a1.06,1.06,0,0,0,.63-.21A1.08,1.08,0,0,0,43,36.65l-.69-4,2.92-2.85a1.07,1.07,0,0,0-.6-1.83l-4-.59-1.81-3.65a1.11,1.11,0,0,0-1.92,0L35,27.37,31,28a1.07,1.07,0,0,0-.6,1.83l2.92,2.85-.69,4a1.08,1.08,0,0,0,1.56,1.14l3.61-1.9,3.61,1.9A1.06,1.06,0,0,0,41.9,37.91Zm-3.61-4.18a1,1,0,0,0-1,0l-2.18,1.14.42-2.43a1.11,1.11,0,0,0-.31-.95l-1.77-1.72,2.44-.35a1.08,1.08,0,0,0,.81-.59l1.09-2.21,1.09,2.21a1.08,1.08,0,0,0,.81.59l2.44.35-1.77,1.72a1.08,1.08,0,0,0-.31.95l.42,2.43Z"/><path class="cls-2" d="M59.3,55,53.64,40.26a1.48,1.48,0,0,0-.08-.13,14.82,14.82,0,0,0,.17-1.7,8.28,8.28,0,0,1,.26-2,8.07,8.07,0,0,1,.92-1.67,6.73,6.73,0,0,0,1.43-3.59,6.73,6.73,0,0,0-1.43-3.6A8.07,8.07,0,0,1,54,25.91a8.28,8.28,0,0,1-.26-2,6.55,6.55,0,0,0-.93-3.65,6.69,6.69,0,0,0-3.21-2,8.06,8.06,0,0,1-1.79-.85A8,8,0,0,1,46.47,16a6.7,6.7,0,0,0-2.95-2.44,6.53,6.53,0,0,0-3.72.24,8.35,8.35,0,0,1-2,.37,8.35,8.35,0,0,1-2-.37,6.56,6.56,0,0,0-3.73-.24A6.72,6.72,0,0,0,29.11,16a8,8,0,0,1-1.33,1.42,8.06,8.06,0,0,1-1.79.85,6.69,6.69,0,0,0-3.21,2,6.55,6.55,0,0,0-.93,3.65,8.82,8.82,0,0,1-.26,2,8,8,0,0,1-.93,1.68,6.73,6.73,0,0,0-1.42,3.59,6.8,6.8,0,0,0,1.42,3.59,7.7,7.7,0,0,1,.93,1.67,8.82,8.82,0,0,1,.26,2c0,.23,0,.48,0,.72l0,0L15.81,55a1.89,1.89,0,0,0,.3,1.88,1.91,1.91,0,0,0,1.79.66l5.86-1,3.84,4.58a1.88,1.88,0,0,0,1.44.67,1.34,1.34,0,0,0,.34,0,1.87,1.87,0,0,0,1.45-1.21l4.26-11.67a.34.34,0,0,0,0-.1l.68-.17a8.35,8.35,0,0,1,2-.37,8.35,8.35,0,0,1,2,.37l.13,0,4.35,11.91a1.87,1.87,0,0,0,1.45,1.22l.33,0a1.87,1.87,0,0,0,1.45-.68l3.84-4.58,5.86,1A1.89,1.89,0,0,0,59.3,55ZM29,59.37,25.31,55a1.89,1.89,0,0,0-1.77-.64l-5.56,1,5-13a7.26,7.26,0,0,0,3,1.81,8.06,8.06,0,0,1,1.79.85,8,8,0,0,1,1.33,1.42,6.66,6.66,0,0,0,2.94,2.44,3.71,3.71,0,0,0,.71.14Zm8.83-13.31a10.32,10.32,0,0,0-2.56.44,5.05,5.05,0,0,1-2.51.28A5.11,5.11,0,0,1,30.78,45,9.62,9.62,0,0,0,29,43.22a9.47,9.47,0,0,0-2.28-1.12,5,5,0,0,1-2.24-1.28A5.06,5.06,0,0,1,24,38.31a9.49,9.49,0,0,0-.36-2.53,10,10,0,0,0-1.16-2.19,5,5,0,0,1-1.08-2.41,5,5,0,0,1,1.08-2.42,10,10,0,0,0,1.16-2.19A9.49,9.49,0,0,0,24,24a5.06,5.06,0,0,1,.53-2.51,5,5,0,0,1,2.24-1.28A9.85,9.85,0,0,0,29,19.13a9.33,9.33,0,0,0,1.74-1.81,5.11,5.11,0,0,1,1.94-1.75,5.05,5.05,0,0,1,2.51.28,9.88,9.88,0,0,0,2.56.44,10,10,0,0,0,2.56-.44,5,5,0,0,1,2.51-.28,5,5,0,0,1,1.93,1.76,9.62,9.62,0,0,0,1.75,1.8,9.47,9.47,0,0,0,2.28,1.12,5,5,0,0,1,2.24,1.28A5.06,5.06,0,0,1,51.59,24,9.49,9.49,0,0,0,52,26.57a9.69,9.69,0,0,0,1.16,2.18,5.05,5.05,0,0,1,1.08,2.43,5,5,0,0,1-1.08,2.42A9.69,9.69,0,0,0,52,35.78a9.49,9.49,0,0,0-.36,2.53,5.06,5.06,0,0,1-.53,2.51,5,5,0,0,1-2.24,1.28,10.27,10.27,0,0,0-2.28,1.12A9.68,9.68,0,0,0,44.79,45a5,5,0,0,1-1.93,1.75,5,5,0,0,1-2.51-.28A10.4,10.4,0,0,0,37.79,46.06Zm13.78,8.31a1.9,1.9,0,0,0-1.78.65l-3.64,4.35L42.36,49a3.56,3.56,0,0,0,1.16-.18,6.63,6.63,0,0,0,2.95-2.44A8,8,0,0,1,47.8,45a8.06,8.06,0,0,1,1.79-.85,8.13,8.13,0,0,0,2.67-1.46l4.87,12.68Z"/></g></g></svg>