<svg xmlns="http://www.w3.org/2000/svg" viewBox="0 0 75.11 75.11"><defs><style>.cls-1{fill:#006632;}.cls-2{fill:#fff;}</style></defs><g id="Capa_2" data-name="Capa 2"><g id="Capa_1-2" data-name="Capa 1"><circle class="cls-1" cx="37.55" cy="37.55" r="37.55"/><path class="cls-2" d="M56.08,28.35v-.09a1.78,1.78,0,0,0-.44-.83L45,16.81a1.49,1.49,0,0,0-1-.42H28.69a4.5,4.5,0,0,0-4.49,4.49V35H20.35a2.84,2.84,0,0,0-2.87,2.87V50.72a2.84,2.84,0,0,0,2.87,2.87H24.2v.73a4.5,4.5,0,0,0,4.49,4.5H51.6a4.5,4.5,0,0,0,4.49-4.5Zm-29,25.15H42.51a2.84,2.84,0,0,0,2.87-2.86V37.82A2.84,2.84,0,0,0,42.51,35H27.08V20.83a1.61,1.61,0,0,1,1.61-1.6H42.55V25.4A4.5,4.5,0,0,0,47,29.89h6.17V54.25a1.64,1.64,0,0,1-1.61,1.6H28.69a1.61,1.61,0,0,1-1.61-1.61ZM42.55,37.82V50.67H20.37l0-12.84ZM45.38,25.4V21.27L51.13,27H47A1.61,1.61,0,0,1,45.38,25.4Z"/><path class="cls-2" d="M27.81,43.36a1.89,1.89,0,0,0-2-1.86H23.3V47h1.18V45.18h1.29A1.83,1.83,0,0,0,27.81,43.36Zm-2.2.76H24.44V42.56h1.17c.57,0,1,.31,1,.76A.88.88,0,0,1,25.61,44.12Z"/><path class="cls-2" d="M34.07,44.23c0-1.59-1.29-2.73-3.15-2.73H29V47h2a2.8,2.8,0,0,0,3.15-2.73Zm-3.9-1.67h.94a1.7,1.7,0,0,1,1.79,1.56,1.66,1.66,0,0,1-1.79,1.78h-.94Z"/><path class="cls-2" d="M36.58,44.84h2.73V43.78H36.58V42.56h3V41.5H35.4V47h1.18Z"/></g></g></svg>