<svg xmlns="http://www.w3.org/2000/svg" xmlns:xlink="http://www.w3.org/1999/xlink" viewBox="0 0 114.48 114.48"><defs><style>.cls-1{fill:url(#Degradado_sin_nombre_62);}.cls-2{fill:url(#Degradado_sin_nombre_62-2);}.cls-3{fill:url(#Degradado_sin_nombre_62-3);}</style><linearGradient id="Degradado_sin_nombre_62" x1="6.45" y1="57.24" x2="108.03" y2="57.24" gradientUnits="userSpaceOnUse"><stop offset="0" stop-color="#93d500" stop-opacity="0.8"/><stop offset="0.36" stop-color="#94d502" stop-opacity="0.8"/><stop offset="0.5" stop-color="#97d609" stop-opacity="0.81"/><stop offset="0.59" stop-color="#9cd814" stop-opacity="0.82"/><stop offset="0.67" stop-color="#a3db25" stop-opacity="0.83"/><stop offset="0.73" stop-color="#acdf3b" stop-opacity="0.85"/><stop offset="0.79" stop-color="#b8e357" stop-opacity="0.87"/><stop offset="0.84" stop-color="#c5e977" stop-opacity="0.89"/><stop offset="0.89" stop-color="#d5ef9d" stop-opacity="0.92"/><stop offset="0.93" stop-color="#e8f6c8" stop-opacity="0.96"/><stop offset="0.97" stop-color="#fbfdf6" stop-opacity="0.99"/><stop offset="0.98" stop-color="#fff"/></linearGradient><linearGradient id="Degradado_sin_nombre_62-2" x1="-477.63" y1="982.26" x2="-368.74" y2="982.26" gradientTransform="translate(-365.94 1039.5) rotate(180)" xlink:href="#Degradado_sin_nombre_62"/><linearGradient id="Degradado_sin_nombre_62-3" x1="0" y1="57.24" x2="114.48" y2="57.24" xlink:href="#Degradado_sin_nombre_62"/></defs><g id="Capa_2" data-name="Capa 2"><g id="Capa_1-2" data-name="Capa 1"><path class="cls-1" d="M57.24,108A50.79,50.79,0,1,1,108,57.24,50.84,50.84,0,0,1,57.24,108Zm0-96.58A45.79,45.79,0,1,0,103,57.24,45.84,45.84,0,0,0,57.24,11.45Z"/><path class="cls-2" d="M57.24,2.79A54.45,54.45,0,1,1,2.79,57.24,54.52,54.52,0,0,1,57.24,2.79Zm0,106.9A52.45,52.45,0,1,0,4.79,57.24,52.51,52.51,0,0,0,57.24,109.69Z"/><path class="cls-3" d="M57.24,114.48a57.24,57.24,0,1,1,57.24-57.24A57.31,57.31,0,0,1,57.24,114.48ZM57.24,1a56.24,56.24,0,1,0,56.24,56.24A56.3,56.3,0,0,0,57.24,1Z"/></g></g></svg>