<svg xmlns="http://www.w3.org/2000/svg" viewBox="0 0 75.11 75.11"><defs><style>.cls-1{fill:#006632;}.cls-2{fill:#fff;}</style></defs><g id="Capa_2" data-name="Capa 2"><g id="Capa_1-2" data-name="Capa 1"><circle class="cls-1" cx="37.55" cy="37.55" r="37.55"/><path class="cls-2" d="M41.84,19.07,27.33,29.89V45.27L42,56.07a2,2,0,0,0,1.47.64,2,2,0,0,0,2-1.92V20.4a2,2,0,0,0-2.11-2A2.11,2.11,0,0,0,41.84,19.07ZM41.7,51.14,31.12,43.35V31.79L41.7,23.91Z"/><path class="cls-2" d="M20.22,45.43h4.45V29.67H20.22a3.66,3.66,0,0,0-3.66,3.67v8.43A3.66,3.66,0,0,0,20.22,45.43Zm.13-12h.52v8.17h-.52Z"/><path class="cls-2" d="M48.8,44.53a1.89,1.89,0,0,0,2.52-.92,13.93,13.93,0,0,0-.2-12.12,1.9,1.9,0,0,0-3.39,1.73A10.08,10.08,0,0,1,47.88,42,1.9,1.9,0,0,0,48.8,44.53Z"/><path class="cls-2" d="M55.4,28a1.9,1.9,0,1,0-3.08,2.22,13.25,13.25,0,0,1,1.87,11.4A12.77,12.77,0,0,1,52.58,45a1.9,1.9,0,0,0,3.15,2.11,16.4,16.4,0,0,0,2.1-4.41A16.89,16.89,0,0,0,55.4,28Z"/></g></g></svg>