<svg id="Capa_1" data-name="Capa 1" xmlns="http://www.w3.org/2000/svg" viewBox="0 0 980 485"><defs><style>.cls-1{fill:#8acaf0;}.cls-2{fill:#c2e0f4;}.cls-3{fill:#6bb8e7;}.cls-4{fill:#456227;}.cls-5{fill:#587b2c;}.cls-6{fill:#9cbc3e;}</style></defs><rect class="cls-1" x="-0.1" y="0.01" width="980" height="484.99"/><path class="cls-2" d="M308.74,96.64c5.26,4.09,19.83,3.08,14.66-7.56-4-8.34-18-3.89-24.73-4.79-11.3-1.51-12.74-11.29-20.18-17.83-4.77-4.19-15-5.8-21-6.4a112.82,112.82,0,0,0-26.8.94c-7.45,1.12-13.27,3.65-20.89-.24-8-4.07-9.15-14.38-16.43-18.35-5.47-3-13-.06-18.29-3.11-3.57-2.07-4.67-6-8.35-8.35S156.59,27,152.19,26.38c-8.76-1.26-20.81-.57-29.27,1.93-9.8,2.9-11.56,11.65-19.63,15.88-4.74,2.48-10.84-.18-15.7,2.65-6.36,3.71-5.9,12.23-13.39,14.21C67.51,62.83,58.14,55.49,50.05,57c-6.81,1.26-11.3,4.81-15.77,9.79-3.87,4.32.92,5.1-5.36,7.47-2.41.91-5.5-2-7.66-1.18-4.18,1.52-7.92,6.71-7,11.52C17,98.07,51.63,100.78,61.06,98.81c8.71-1.81,11.06-4.83,19.15-1,11.09,5.18,15.26,15.47,28.14,8.15,14.18-8,9.37-10.27,25.72-4,13.26,5.08,22.7,1.26,35.93-.42,10.46-1.33,21.27,0,31.46,1.76,10.65,1.88,16-.53,25.79-1.78,9-1.16,12.67,7.12,19.72,7.49,8.26.44,16.1-10.51,25.66-10.49,4.37,0,9.8,3.52,13.61,3,4.28-.63,4.16-2.42,7.42-3.78,5.11-2.14,7.1-5.32,15.08-1"/><path class="cls-3" d="M34,90.62c9.35,1.75,7.39-11.19,14.1-13.53,6.49-2.26,12.71,4.85,17.85,7.59,5.47,2.91,8.14,2.34,13-1.62,4.53-3.66,6.55-4.73,12.59-3.18,3.85,1,8.71,4.15,12.83,3.44,8.2-1.4,6.67-14.37,13.27-18.16,12.58-7.22,17,16.29,27.95,13.24,6-1.66,6.44-9.78,14.23-9.17,8.5.66,10.44,11.24,18.91,12.21,7.87.9,16-5.35,24.1-5.91,11.74-.82,27.65,1.74,36.1,11.18,3,3.33,4.63,10.66,10.49,9.18,3.57-.89,6.57-6.44,9.48-8.61,5.16-3.87,9.09-6.06,15.49-4.93a30.19,30.19,0,0,1,10.61,4c2.84,1.82,5.25,6.21,8.19,6.73,8.53,1.51,26-11.78,30.68,2.47-2.37,4.33-11.27,4.1-15.14,1.09-8-4.33-10-1.15-15.08,1-3.26,1.36-3.14,3.15-7.42,3.78-3.81.56-9.24-2.94-13.61-3-9.56,0-17.4,10.94-25.66,10.49-7.05-.37-10.68-8.65-19.72-7.49-9.81,1.25-15.14,3.66-25.79,1.78-10.19-1.81-21-3.09-31.46-1.76-13.23,1.68-22.67,5.5-35.92.43-16.36-6.26-11.55-4-25.73,4-12.88,7.32-17-3-28.14-8.15-8.09-3.78-10.44-.76-19.15,1S21.19,98.39,15.15,87a8.67,8.67,0,0,1,.69-1.19c5.67-8.18,12.47,3.74,18.13,4.81"/><path class="cls-2" d="M936.89,114.51c2.92,3.27,12,1.23,15.84-.13,6.58-2.35,10.89-6.24,12.67-13.41C968.22,89.59,957.45,82,947,84.74c.44-9-8.15-12.7-15.7-16-5-2.2-11.87-3-16.21.63-4-7.77-18.51-15.29-25.88-7-11.24-11.24-37.8,7.67-36.71,22-6.06.41-12,8.65-12.3,14.63-.53,12.31,11.56,16.65,20.89,18,3.59.52,8.18.17,11.64,1,3.89,1,6.26,4,10.93,4.53,9.14,1.1,17.38-.85,23.77-7.91,7,9.25,24.36,10,29.43-.1"/><path class="cls-3" d="M848.09,100.7a5.94,5.94,0,0,1,2.23.17c1.48.43,3,2.55,4.22.36,1.5-2.8-1.39-6.94,2.66-8.42a7.62,7.62,0,0,1,7.53,1.67c1.3,1.13,3.75,5,5.43,2.31,2.53-4.06-4.31-13.64,5.1-11.24,3.26.83,5.41,2.28,6.6,5.43.82,2.18,2.28,6.6,5.43,5.21,2-.9,1.52-3.77,2.05-5.48,1.88-6,10-9,15.63-8.5,4.82.44,11.87,3.5,15.24,7.23a14.75,14.75,0,0,1,3.6,9.2c.1,1.61-.47,6.51,2.12,6.55,2.1,0,3-5.07,3.86-6.51a6.83,6.83,0,0,1,7.36-3,10.67,10.67,0,0,1,5.31,3c1.84,1.91,1.77,3.1,2,5.43.43,3.54,3.12,6.21,4.32,1.29,1.37-5.56,2.8-10.76,9.79-10.25a11,11,0,0,1,7.15,3.75,15.49,15.49,0,0,1-.36,2c-1.78,7.17-6.09,11.06-12.67,13.41-3.81,1.36-12.92,3.4-15.84.13-5.07,10.15-22.45,9.34-29.43.1-6.39,7.06-14.63,9-23.76,7.91C879,122,876.65,119,872.76,118c-3.46-.87-8-.52-11.64-1-7.26-1-16.17-3.91-19.52-10.94a7.85,7.85,0,0,1,2.15-3.37,7.72,7.72,0,0,1,4.34-1.94"/><path class="cls-4" d="M979.9,326.64v127.6l-.3.7-492.9-37.4L-.1,454.64V323.44a21.9,21.9,0,0,1,3.3-1.2,21,21,0,0,1,6.1-.5,20.39,20.39,0,0,1,15.1-17.5c10.8-2.7,21.8,4.3,24.6,15.6v.1a21.72,21.72,0,0,1,2.4-.7c11.5-2.9,23.2,4.5,26.1,16.4a2.35,2.35,0,0,1,.2.8,16.51,16.51,0,0,1,6.5-3.2,18.69,18.69,0,0,1,16.6,4,17.49,17.49,0,0,1,11.4-9.1,12.7,12.7,0,0,1,3.4-.5,17.55,17.55,0,0,1,12.8-13.2c9.4-2.4,19,3.7,21.5,13.6a17.49,17.49,0,0,1,.4,6.8l1.2-.3a16,16,0,0,1,15.9,5,16.3,16.3,0,0,1,10.1-7.6c8.7-2.2,17.7,3.4,20,12.6a19.07,19.07,0,0,1,.5,5.3,1.85,1.85,0,0,1,.7-.2,14.8,14.8,0,0,1,15.5,5.6,15,15,0,0,1,8.7-6,14.78,14.78,0,0,1,11.3,1.8,17.66,17.66,0,0,1,13.1-4.6,13.54,13.54,0,0,1,10-10.1c7.4-1.9,15,2.9,16.9,10.7a17.59,17.59,0,0,1,.4,5.1,6.89,6.89,0,0,1,.8-.3,12.92,12.92,0,0,1,14.9,8,17.12,17.12,0,0,1,10.9-8.5,17.59,17.59,0,0,1,14.5,2.8,11.32,11.32,0,0,1,22.4-1.7,9.66,9.66,0,0,1,7.3,1.1,10.31,10.31,0,0,1,7.3-7.4,10.42,10.42,0,0,1,12.4,7.8c0,.2.1.3.1.4a10.14,10.14,0,0,1,2.4-1,7.82,7.82,0,0,1,2.6-.2c0-.2-.1-.3-.1-.4-1.1-5,1.6-10,6.4-11.2a9.09,9.09,0,0,1,10.9,6.9,7,7,0,0,1,.3,2.9,8.09,8.09,0,0,1,6.1,3.5c.1,0,.3-.1.4-.1a7.83,7.83,0,0,1,9.3,5.9c.1.5.1.9.2,1.4l.1-.1a7.75,7.75,0,0,1,7.7,2.6,6.57,6.57,0,0,1,4.7-5.2h.2a6.51,6.51,0,0,1,4.8-6.7,6.32,6.32,0,0,1,7.7,4.9,3,3,0,0,1,.2,1,5,5,0,0,1,3.1-2.4,3.67,3.67,0,0,1,1.8-.1,5.13,5.13,0,0,1,3.7-6.2,5.25,5.25,0,0,1,6.3,3.9,5,5,0,0,1,.1,2.1,5.47,5.47,0,0,1,3.5,3.3,2.2,2.2,0,0,1,.8-.1,3.93,3.93,0,0,1,2.9,1.3,3.89,3.89,0,0,1,7.5-1.8c.2,0,.4-.1.6-.1a2.32,2.32,0,0,1,1.9.9,2.38,2.38,0,0,1,1.1-.6,1.7,1.7,0,0,1,1,0,2.07,2.07,0,0,1,1.4-1,2.49,2.49,0,0,1,.8-.1,2.76,2.76,0,0,1,1.6-1.2,2.72,2.72,0,0,1,3.2,2,3,3,0,0,1,2.7.9,1.46,1.46,0,0,1,.9-.6,1,1,0,0,1,.9.1,1.29,1.29,0,0,1,1-1.2,1.31,1.31,0,0,1,1.2.3,1.41,1.41,0,0,1,1-1.4,1.39,1.39,0,0,1,1.7,1.1v.1c.2-.1.3-.2.5-.2a1.37,1.37,0,0,1,1.7,1v.1c.1-.1.2-.2.3-.2a1.2,1.2,0,0,1,1.3.6.54.54,0,0,1,.4-.3c.1,0,.2.1.3.1v-.1l2.4.3,2.3-.3v.2c.1-.1.2-.2.3-.2a.54.54,0,0,1,.4.3,1.2,1.2,0,0,1,1.3-.6c.1,0,.2.1.3.2v-.1a1.37,1.37,0,0,1,1.7-1c.2,0,.3.1.5.2v-.1a1.39,1.39,0,0,1,1.7-1.1,1.41,1.41,0,0,1,1,1.4,1.31,1.31,0,0,1,1.2-.3,1.38,1.38,0,0,1,1.1,1.2,1,1,0,0,1,.9-.1,1.46,1.46,0,0,1,.9.6,3,3,0,0,1,2.7-.9,2.72,2.72,0,0,1,3.2-2,2.76,2.76,0,0,1,1.6,1.2,2.49,2.49,0,0,1,.8.1,2.07,2.07,0,0,1,1.4,1,1.7,1.7,0,0,1,1,0,2.38,2.38,0,0,1,1.1.6,2.32,2.32,0,0,1,1.9-.9c.2,0,.4.1.6.1a3.89,3.89,0,0,1,7.5,1.8,4,4,0,0,1,3-1.3,2.2,2.2,0,0,1,.8.1,5.47,5.47,0,0,1,3.5-3.3,5,5,0,0,1,.1-2.1,5.25,5.25,0,0,1,6.3-3.9,5.13,5.13,0,0,1,3.7,6.2,3.67,3.67,0,0,1,1.8.1,5,5,0,0,1,3.1,2.4,3,3,0,0,1,.2-1,6.37,6.37,0,0,1,7.8-4.9,6.51,6.51,0,0,1,4.8,6.7h.2a6.57,6.57,0,0,1,4.7,5.2,7.75,7.75,0,0,1,7.7-2.6l.1.1c.1-.5.1-.9.2-1.4a7.89,7.89,0,0,1,9.4-5.9c.1,0,.3.1.4.1a8.09,8.09,0,0,1,6.1-3.5,7,7,0,0,1,.3-2.9,8.92,8.92,0,1,1,17.3,4.3c0,.1-.1.2-.1.4a8.22,8.22,0,0,1,2.7.2,10.14,10.14,0,0,1,2.4,1c0-.1.1-.2.1-.4a10.42,10.42,0,0,1,12.4-7.8,10.31,10.31,0,0,1,7.3,7.4,10,10,0,0,1,7.4-1.1,11.38,11.38,0,0,1,22.5,1.7,17.41,17.41,0,0,1,25.5,5.7,12.92,12.92,0,0,1,14.9-8,6.89,6.89,0,0,1,.8.3,17.59,17.59,0,0,1,.4-5.1,14.11,14.11,0,0,1,17-10.7,13.54,13.54,0,0,1,10,10.1,17.13,17.13,0,0,1,5.5.5,17.39,17.39,0,0,1,7.7,4.1,14.78,14.78,0,0,1,11.3-1.8,15,15,0,0,1,8.7,6,15,15,0,0,1,15.6-5.6,1.85,1.85,0,0,1,.7.2,19.07,19.07,0,0,1,.5-5.3c2.3-9.2,11.3-14.8,20.1-12.6a16.3,16.3,0,0,1,10.1,7.6,16.21,16.21,0,0,1,16-5l1.2.3a17.49,17.49,0,0,1,.4-6.8c2.5-9.9,12.1-16,21.6-13.6a17.55,17.55,0,0,1,12.8,13.2,12.7,12.7,0,0,1,3.4.5,17.67,17.67,0,0,1,11.5,9.1,18.69,18.69,0,0,1,16.6-4,16.93,16.93,0,0,1,6.6,3.2,2.35,2.35,0,0,1,.2-.8c2.9-11.9,14.6-19.3,26.2-16.4a21.72,21.72,0,0,1,2.4.7v-.1c2.8-11.3,13.8-18.3,24.7-15.6a20.39,20.39,0,0,1,15.1,17.5,21,21,0,0,1,6.1.5A18,18,0,0,1,979.9,326.64Z"/><path class="cls-5" d="M980.1,338.92c-9.05.91-16.59,6.25-18.11,13.57a13.2,13.2,0,0,0,1.79,9.69,26.36,26.36,0,0,0-6.07-1.56A25.46,25.46,0,0,0,939.25,365c-2.76-4.51-8.24-8-15.08-8.88a25.17,25.17,0,0,0-12.54,1.46c-2.83-4.33-8.17-7.64-14.84-8.53a26.35,26.35,0,0,0-6.33-.07c-2.24-4.9-7.78-8.77-14.88-9.72-10.33-1.38-20.06,3.94-21.71,11.88v.05c-.4-.07-.8-.16-1.21-.21-9.08-1.22-17.69,2.41-21.44,8.46a21.06,21.06,0,0,0-7.43-2.44c-9.65-1.29-18.72,3.68-20.26,11.1a10.6,10.6,0,0,0,.16,4.92c-10.84-1.26-20.94,4.37-22.67,12.72a12.28,12.28,0,0,0-.24,2.75,19.29,19.29,0,0,0-7.29-2.47,20.53,20.53,0,0,0-10,1.12,21.35,21.35,0,0,0-13.91-7.26l-.16,0c.15-5.75-5.2-10.91-12.77-11.93-7-.93-13.65,2-16.32,6.75a25.34,25.34,0,0,0-14.91.71,16.21,16.21,0,0,0-6.89-2.55c-6-.8-11.66,1.45-14.4,5.29a17.11,17.11,0,0,0-3.91-1,16.92,16.92,0,0,0-10.87,2.1,15,15,0,0,0-5.54-1.85,16.2,16.2,0,0,0-4.72.06c-1.89-3.14-5.69-5.55-10.44-6.18a17.64,17.64,0,0,0-8.12.79,13.18,13.18,0,0,0-5.72-2.14c-6.24-.84-12.1,2.37-13.09,7.15a6.89,6.89,0,0,0,.49,4.28c-5-.19-9.54,2.55-10.36,6.48a6.38,6.38,0,0,0,1.34,5.28c-3.26.95-5.76,3.15-6.34,6v0a11.65,11.65,0,0,0-5.23-2,12.65,12.65,0,0,0-6.18.69,9.39,9.39,0,0,0-6.22-3.31,11.17,11.17,0,0,0-3.27,0c-.71-2.74-3.54-5-7.32-5.52a11.2,11.2,0,0,0-5.36.58,7.46,7.46,0,0,0-6-4,9.38,9.38,0,0,0-2.54,0c-.51-2.46-3-4.51-6.32-5-4.17-.56-8.09,1.59-8.76,4.8a4.67,4.67,0,0,0,.37,2.88q-.45-.11-.93-.18a10.24,10.24,0,0,0-8.59,2.64,7.27,7.27,0,0,0-3.34-1.29c-3.49-.46-6.76,1.33-7.32,4v.1h0a7.62,7.62,0,0,0-3-1.1,7.08,7.08,0,0,0-6.53,2.34,7.13,7.13,0,0,0-1.13-.26,6.48,6.48,0,0,0-2.94.27,6,6,0,0,0-2.66-1,6.61,6.61,0,0,0-3.13.35,4.24,4.24,0,0,0-2.38-1.08,1.46,1.46,0,0,0-.29,0,4,4,0,0,0-2.77-1.53,4.4,4.4,0,0,0-3.67,1.08,5,5,0,0,0-1.43-.42,4.6,4.6,0,0,0-3.16.68,3.38,3.38,0,0,0-.87-.25,3.42,3.42,0,0,0-1.4.11,2.52,2.52,0,0,0-2.13-1.52,2.61,2.61,0,0,0-3,1.66c0,.06,0,.12,0,.19s-.06,0-.09.05-.06,0-.1-.05,0-.13,0-.19a2.59,2.59,0,0,0-3-1.66,2.51,2.51,0,0,0-2.12,1.52,3.22,3.22,0,0,0-2.26.14,4.58,4.58,0,0,0-3.15-.68,4.8,4.8,0,0,0-1.42.42,4.39,4.39,0,0,0-3.66-1.08,4,4,0,0,0-2.76,1.53,1.46,1.46,0,0,0-.29,0,4.18,4.18,0,0,0-2.37,1.08,6.57,6.57,0,0,0-3.12-.35,6,6,0,0,0-2.65,1,6.41,6.41,0,0,0-2.92-.27,6.66,6.66,0,0,0-1.13.26,7.05,7.05,0,0,0-6.51-2.34,7.47,7.47,0,0,0-3,1.1h-.05l0-.1c-.56-2.68-3.82-4.47-7.29-4a7.23,7.23,0,0,0-3.33,1.29,10.17,10.17,0,0,0-8.56-2.64c-.32.05-.63.11-.92.18a4.67,4.67,0,0,0,.36-2.88c-.66-3.21-4.57-5.36-8.72-4.8-3.34.45-5.79,2.5-6.3,5a9.31,9.31,0,0,0-2.53,0,7.45,7.45,0,0,0-6,4,11.1,11.1,0,0,0-5.34-.58c-3.76.5-6.59,2.78-7.29,5.52a11.1,11.1,0,0,0-3.26,0,9.36,9.36,0,0,0-6.2,3.31,12.53,12.53,0,0,0-6.15-.69,11.52,11.52,0,0,0-5.21,2v0c-.59-2.84-3.08-5-6.32-6a6.41,6.41,0,0,0,1.33-5.28c-.81-3.93-5.29-6.67-10.31-6.48a7,7,0,0,0,.48-4.28c-1-4.78-6.82-8-13-7.15a13.1,13.1,0,0,0-5.7,2.14,17.51,17.51,0,0,0-8.09-.79c-4.73.63-8.52,3-10.4,6.18a16.12,16.12,0,0,0-4.71-.06,14.94,14.94,0,0,0-5.52,1.85,16.8,16.8,0,0,0-10.83-2.1,17.07,17.07,0,0,0-3.89,1c-2.73-3.84-8.39-6.09-14.34-5.29a16.07,16.07,0,0,0-6.87,2.55,25.33,25.33,0,0,0-12-1.27,25.93,25.93,0,0,0-2.84.56c-2.66-4.76-9.28-7.68-16.26-6.75-7.54,1-12.87,6.18-12.72,11.93l-.16,0a21.25,21.25,0,0,0-13.86,7.26,20.37,20.37,0,0,0-10-1.12,19.14,19.14,0,0,0-7.26,2.47,13.58,13.58,0,0,0-.24-2.75c-1.73-8.35-11.79-14-22.59-12.72a10.73,10.73,0,0,0,.16-4.92c-1.53-7.42-10.58-12.39-20.19-11.1a21,21,0,0,0-7.4,2.44c-3.74-6.05-12.32-9.68-21.35-8.46-.41.05-.81.14-1.22.21v-.05c-1.64-7.94-11.33-13.26-21.62-11.88-7.07,1-12.6,4.82-14.83,9.72a26.18,26.18,0,0,0-6.31.07c-6.64.89-12,4.2-14.78,8.53a25,25,0,0,0-12.5-1.46c-6.81.92-12.27,4.37-15,8.88a25.29,25.29,0,0,0-18.39-4.39,26.32,26.32,0,0,0-6.05,1.56A13.3,13.3,0,0,0,18,352.49c-1.52-7.32-9-12.66-18-13.57v96.52l489.2-18.33,491,18.33Z"/><polygon class="cls-6" points="492.52 404.72 0.03 401.07 0.03 484.99 492.52 484.99 979.9 484.99 979.9 396.3 492.52 404.72"/></svg>