<svg xmlns="http://www.w3.org/2000/svg" xmlns:xlink="http://www.w3.org/1999/xlink" viewBox="0 0 251.8 251.8"><defs><style>.cls-1,.cls-20{fill:#fff;}.cls-2{fill:none;stroke:#93d500;stroke-linecap:round;stroke-miterlimit:10;stroke-width:2px;stroke-dasharray:11.32 4.72 6.6 7.55 18.87 11.32;}.cls-3{fill:url(#linear-gradient);}.cls-4{opacity:0.3;}.cls-5{fill:#91b3fa;}.cls-6{fill:#bdd0fb;}.cls-7{fill:#7d97f4;}.cls-8{fill:url(#linear-gradient-2);}.cls-9{fill:url(#linear-gradient-3);}.cls-10{fill:url(#linear-gradient-4);}.cls-11{fill:url(#linear-gradient-5);}.cls-12{fill:url(#linear-gradient-6);}.cls-13{fill:url(#linear-gradient-7);}.cls-14{fill:url(#linear-gradient-8);}.cls-15{fill:url(#linear-gradient-9);}.cls-16,.cls-18{opacity:0.42;}.cls-16{fill:url(#linear-gradient-10);}.cls-17{fill:url(#linear-gradient-11);}.cls-18{fill:url(#linear-gradient-12);}.cls-19{fill:url(#linear-gradient-13);}.cls-20{opacity:0.56;}.cls-21{fill:url(#linear-gradient-14);}.cls-22{fill:url(#linear-gradient-15);}.cls-23,.cls-26{opacity:0.6;}.cls-23{fill:url(#linear-gradient-16);}.cls-24{fill:url(#linear-gradient-17);}.cls-25{fill:url(#linear-gradient-18);}.cls-26{fill:url(#linear-gradient-19);}.cls-27{fill:url(#linear-gradient-20);}.cls-28{fill:url(#linear-gradient-21);}.cls-29{fill:url(#linear-gradient-22);}.cls-30{fill:url(#linear-gradient-23);}.cls-31{fill:url(#linear-gradient-24);}.cls-32{fill:url(#linear-gradient-25);}.cls-33{fill:url(#linear-gradient-26);}.cls-34{fill:url(#linear-gradient-27);}.cls-35{fill:url(#linear-gradient-28);}.cls-36{fill:url(#linear-gradient-29);}.cls-37{fill:url(#linear-gradient-30);}.cls-38{fill:url(#linear-gradient-31);}.cls-39{fill:url(#linear-gradient-32);}.cls-40{fill:url(#linear-gradient-33);}.cls-41{fill:url(#linear-gradient-34);}.cls-42{fill:url(#linear-gradient-35);}.cls-43{fill:url(#linear-gradient-36);}.cls-44{fill:url(#linear-gradient-37);}.cls-45{fill:url(#linear-gradient-38);}.cls-46{opacity:0.25;fill:url(#linear-gradient-39);}.cls-47{fill:url(#linear-gradient-40);}.cls-48{fill:url(#linear-gradient-41);}.cls-49{fill:url(#linear-gradient-42);}.cls-50{fill:url(#linear-gradient-43);}.cls-51{fill:url(#linear-gradient-44);}.cls-52{fill:url(#linear-gradient-45);}.cls-53{fill:url(#linear-gradient-46);}.cls-54{fill:url(#linear-gradient-47);}</style><linearGradient id="linear-gradient" x1="233.55" y1="256.89" x2="84.44" y2="71.71" gradientUnits="userSpaceOnUse"><stop offset="0" stop-color="#dae3fe"/><stop offset="1" stop-color="#e9effd"/></linearGradient><linearGradient id="linear-gradient-2" x1="59.56" y1="66.5" x2="76.61" y2="66.5" gradientUnits="userSpaceOnUse"><stop offset="0" stop-color="#4f52ff"/><stop offset="1" stop-color="#4042e2"/></linearGradient><linearGradient id="linear-gradient-3" x1="72.91" y1="80.95" x2="88.95" y2="80.95" xlink:href="#linear-gradient-2"/><linearGradient id="linear-gradient-4" x1="-595.63" y1="620.55" x2="-585.92" y2="656.17" gradientTransform="matrix(-0.68, -0.73, -0.73, 0.68, 634.35, -1062.17)" gradientUnits="userSpaceOnUse"><stop offset="0" stop-color="#09005d"/><stop offset="1" stop-color="#1a0f91"/></linearGradient><linearGradient id="linear-gradient-5" x1="-587.44" y1="334.25" x2="-577.72" y2="369.86" gradientTransform="matrix(-0.68, -0.73, -0.91, 0.85, 538.59, -972.89)" xlink:href="#linear-gradient-4"/><linearGradient id="linear-gradient-6" x1="-4422.29" y1="15.98" x2="-4432.41" y2="116.76" gradientTransform="translate(4566.6)" gradientUnits="userSpaceOnUse"><stop offset="0" stop-color="#ff928e"/><stop offset="1" stop-color="#fe7062"/></linearGradient><linearGradient id="linear-gradient-7" x1="62.27" y1="100.53" x2="52.15" y2="201.31" gradientUnits="userSpaceOnUse"><stop offset="0" stop-color="#e1473d"/><stop offset="1" stop-color="#e9605a"/></linearGradient><linearGradient id="linear-gradient-8" x1="204.9" y1="114.85" x2="194.78" y2="215.63" xlink:href="#linear-gradient-7"/><linearGradient id="linear-gradient-9" x1="-4499.12" y1="-345.2" x2="-4529.53" y2="-275.03" gradientTransform="matrix(1, -0.04, 0.04, 1, 4616.51, 293.12)" xlink:href="#linear-gradient-4"/><linearGradient id="linear-gradient-10" x1="-4435.96" y1="-554.31" x2="-4469.54" y2="-454.95" gradientTransform="translate(4618.36 293.2) rotate(-2.1)" xlink:href="#linear-gradient-2"/><linearGradient id="linear-gradient-11" x1="-4460.65" y1="-328.62" x2="-4491.06" y2="-258.43" gradientTransform="translate(4618.36 293.2) rotate(-2.1)" xlink:href="#linear-gradient-4"/><linearGradient id="linear-gradient-12" x1="-4403.52" y1="-543.35" x2="-4437.1" y2="-443.99" gradientTransform="translate(4618.36 293.2) rotate(-2.1)" xlink:href="#linear-gradient-2"/><linearGradient id="linear-gradient-13" x1="207.85" y1="115.14" x2="197.73" y2="215.93" xlink:href="#linear-gradient-7"/><linearGradient id="linear-gradient-14" x1="93.31" y1="103.65" x2="83.19" y2="204.43" xlink:href="#linear-gradient-7"/><linearGradient id="linear-gradient-15" x1="70.46" y1="190.33" x2="98.42" y2="190.33" gradientTransform="matrix(1, 0, 0, 1, 0, 0)" xlink:href="#linear-gradient-4"/><linearGradient id="linear-gradient-16" x1="116.6" y1="81.7" x2="67.22" y2="248.45" gradientTransform="translate(10.65 -4.38) rotate(3.17)" xlink:href="#linear-gradient-2"/><linearGradient id="linear-gradient-17" x1="176.71" y1="112.02" x2="166.59" y2="212.8" xlink:href="#linear-gradient-7"/><linearGradient id="linear-gradient-18" x1="154.63" y1="191.01" x2="182.59" y2="191.01" gradientTransform="matrix(1, 0, 0, 1, 0, 0)" xlink:href="#linear-gradient-4"/><linearGradient id="linear-gradient-19" x1="195.11" y1="101.53" x2="145.73" y2="268.29" gradientTransform="translate(10.82 -9.03) rotate(3.17)" xlink:href="#linear-gradient-2"/><linearGradient id="linear-gradient-20" x1="151.09" y1="109.45" x2="140.97" y2="210.23" gradientTransform="matrix(1, 0, 0, 1, 0, 0)" xlink:href="#linear-gradient-6"/><linearGradient id="linear-gradient-21" x1="131.31" y1="107.46" x2="121.19" y2="208.24" xlink:href="#linear-gradient-7"/><linearGradient id="linear-gradient-22" x1="54.69" y1="99.77" x2="44.57" y2="200.55" xlink:href="#linear-gradient-7"/><linearGradient id="linear-gradient-23" x1="-1960" y1="-642.89" x2="-1946.52" y2="-607.17" gradientTransform="matrix(0.99, 0.16, -0.16, 0.99, 1978.31, 1076.11)" gradientUnits="userSpaceOnUse"><stop offset="0" stop-color="#febbba"/><stop offset="1" stop-color="#ff928e"/></linearGradient><linearGradient id="linear-gradient-24" x1="220.36" y1="69.85" x2="195.26" y2="90.89" gradientTransform="matrix(1, 0, 0, 1, 0, 0)" xlink:href="#linear-gradient-6"/><linearGradient id="linear-gradient-25" x1="4629.49" y1="204.48" x2="4642.87" y2="204.48" gradientTransform="matrix(-1, 0, 0, 1, 4802.37, 0)" xlink:href="#linear-gradient-2"/><linearGradient id="linear-gradient-26" x1="4629.49" y1="206.88" x2="4642.87" y2="206.88" gradientTransform="matrix(-1, 0, 0, 1, 4802.37, 0)" xlink:href="#linear-gradient-4"/><linearGradient id="linear-gradient-27" x1="4606.46" y1="204.51" x2="4612.73" y2="204.51" gradientTransform="matrix(-1, 0, 0, 1, 4802.37, 0)" xlink:href="#linear-gradient-2"/><linearGradient id="linear-gradient-28" x1="4606.46" y1="207.36" x2="4612.54" y2="207.36" gradientTransform="matrix(-1, 0, 0, 1, 4802.37, 0)" xlink:href="#linear-gradient-4"/><linearGradient id="linear-gradient-29" x1="-1741.2" y1="-144.21" x2="-1766.3" y2="-123.17" gradientTransform="translate(2234.16)" xlink:href="#linear-gradient-6"/><linearGradient id="linear-gradient-30" x1="4640.69" y1="115.68" x2="4642.36" y2="105.38" gradientTransform="matrix(-1, 0, 0, 1, 4802.37, 0)" xlink:href="#linear-gradient-23"/><linearGradient id="linear-gradient-31" x1="4646.08" y1="98.99" x2="4635.29" y2="107.25" gradientTransform="matrix(-1, 0, 0, 1, 4802.37, 0)" xlink:href="#linear-gradient-23"/><linearGradient id="linear-gradient-32" x1="4637.96" y1="92.88" x2="4647.74" y2="105.47" gradientTransform="matrix(-1, 0, 0, 1, 4802.37, 0)" xlink:href="#linear-gradient-4"/><linearGradient id="linear-gradient-33" x1="4644.74" y1="97.24" x2="4633.95" y2="105.5" gradientTransform="matrix(-1, 0, 0, 1, 4802.37, 0)" xlink:href="#linear-gradient-23"/><linearGradient id="linear-gradient-34" x1="-2079.51" y1="-3.74" x2="-2084.65" y2="-26.74" gradientTransform="translate(2234.16)" xlink:href="#linear-gradient-23"/><linearGradient id="linear-gradient-35" x1="-1739.83" y1="-142.58" x2="-1764.93" y2="-121.54" gradientTransform="translate(2234.16)" xlink:href="#linear-gradient-6"/><linearGradient id="linear-gradient-36" x1="-1970.13" y1="-642.06" x2="-1956.65" y2="-606.34" xlink:href="#linear-gradient-23"/><linearGradient id="linear-gradient-37" x1="168.8" y1="81.84" x2="185.4" y2="57.76" xlink:href="#linear-gradient-2"/><linearGradient id="linear-gradient-38" x1="170.42" y1="200.51" x2="194.66" y2="123.46" gradientTransform="matrix(1, 0, 0, 1, 0, 0)" xlink:href="#linear-gradient-4"/><linearGradient id="linear-gradient-39" x1="4639" y1="147.84" x2="4625.13" y2="165.76" gradientTransform="matrix(-1, 0, 0, 1, 4802.37, 0)" gradientUnits="userSpaceOnUse"><stop offset="0" stop-color="#5ab6ff"/><stop offset="1" stop-color="#2f68e3"/></linearGradient><linearGradient id="linear-gradient-40" x1="175.57" y1="99.12" x2="161.75" y2="163.05" gradientTransform="matrix(1, 0, 0, 1, 0, 0)" xlink:href="#linear-gradient-4"/><linearGradient id="linear-gradient-41" x1="161.19" y1="95.36" x2="147.02" y2="160.93" gradientTransform="matrix(1, 0, 0, 1, 0, 0)" xlink:href="#linear-gradient-4"/><linearGradient id="linear-gradient-42" x1="170.84" y1="97.79" x2="156.86" y2="162.52" gradientTransform="matrix(1, 0, 0, 1, 0, 0)" xlink:href="#linear-gradient-4"/><linearGradient id="linear-gradient-43" x1="196.5" y1="92.76" x2="182.13" y2="115.43" xlink:href="#linear-gradient-2"/><linearGradient id="linear-gradient-44" x1="138.24" y1="45.93" x2="130.75" y2="68.39" xlink:href="#linear-gradient-2"/><linearGradient id="linear-gradient-45" x1="829.58" y1="-3382.27" x2="848.11" y2="-3320.95" gradientTransform="matrix(0.52, -0.85, 0.85, 0.52, 2620.03, 2589.91)" xlink:href="#linear-gradient-2"/><linearGradient id="linear-gradient-46" x1="819.68" y1="-2810.48" x2="838.21" y2="-2749.16" gradientTransform="matrix(0.52, -0.85, 1.06, 0.64, 2731.63, 2658.36)" xlink:href="#linear-gradient-2"/><linearGradient id="linear-gradient-47" x1="-2055.51" y1="139.01" x2="-2040.17" y2="161.16" gradientTransform="translate(2234.16)" xlink:href="#linear-gradient-23"/></defs><g id="Capa_2" data-name="Capa 2"><g id="Capa_1-2" data-name="Capa 1"><circle class="cls-1" cx="125.9" cy="125.9" r="119.26"/><circle class="cls-2" cx="125.9" cy="125.9" r="124.9"/><path class="cls-3" d="M192.53,183.86a60.51,60.51,0,0,1-9.23,7.77c-30.1,21.59-65.71,15.3-73.28,13.76-11.17-2.27-32.78-6.66-48.4-25C38,152.58,41.67,108.8,60,79.89c3.35-5.28,21.06-34.62,57.06-39.33,21.78-2.84,47.18,2.9,65.57,18.3C221.23,91.2,218.48,156.54,192.53,183.86Z"/><g class="cls-4"><path class="cls-5" d="M97.72,97.92a.85.85,0,0,1-1.07-.39c-.45-.85-.87-1.73-1.25-2.62a.85.85,0,0,1,.45-1.12h0a.87.87,0,0,1,1.11.46c.36.84.76,1.68,1.19,2.49a.85.85,0,0,1-.36,1.15A.2.2,0,0,1,97.72,97.92ZM95,91l-.09,0a.86.86,0,0,1-1.05-.6c-.25-.94-.47-1.89-.64-2.84a.85.85,0,1,1,1.67-.3c.17.9.38,1.8.62,2.69A.85.85,0,0,1,95,91Zm-1.13-7.33a.94.94,0,0,1-.29.06.86.86,0,0,1-.89-.82c0-1,0-1.94,0-2.9a.85.85,0,1,1,1.7.07c0,.92,0,1.85,0,2.76A.87.87,0,0,1,93.86,83.68Zm.53-7.41a.86.86,0,0,1-.48,0,.85.85,0,0,1-.68-1c.18-.94.4-1.9.65-2.83a.86.86,0,0,1,1.65.46,26.92,26.92,0,0,0-.62,2.69A.86.86,0,0,1,94.39,76.27Zm2.17-7.1a.89.89,0,0,1-.66,0A.86.86,0,0,1,95.45,68c.39-.88.81-1.76,1.27-2.62a.85.85,0,0,1,1.5.81c-.43.81-.84,1.65-1.2,2.49A.84.84,0,0,1,96.56,69.17Zm3.68-6.45a.84.84,0,0,1-.82-.1.86.86,0,0,1-.19-1.19c.57-.78,1.18-1.54,1.82-2.27a.85.85,0,0,1,1.28,1.12c-.6.69-1.18,1.42-1.72,2.16A.83.83,0,0,1,100.24,62.72Zm28.21-13.56a1,1,0,0,1-.36.06c-.91,0-1.84,0-2.76,0a.86.86,0,0,1-.89-.82.85.85,0,0,1,.82-.88c1-.05,1.94-.05,2.91,0a.86.86,0,0,1,.81.89A.84.84,0,0,1,128.45,49.16Zm-23.19,8.1a.85.85,0,0,1-1-.23.86.86,0,0,1,.08-1.21c.73-.63,1.5-1.24,2.28-1.81a.85.85,0,1,1,1,1.38c-.74.54-1.47,1.12-2.16,1.72A1,1,0,0,1,105.26,57.26ZM121,49.68l-.16,0c-.91.17-1.81.38-2.7.62a.85.85,0,0,1-.45-1.64c.93-.26,1.89-.48,2.84-.65a.85.85,0,0,1,1,.68A.86.86,0,0,1,121,49.68Zm-9.66,3.37a.85.85,0,0,1-1.07-.39.84.84,0,0,1,.35-1.15c.85-.45,1.73-.88,2.62-1.26h0a.85.85,0,0,1,1.11.45.86.86,0,0,1-.45,1.12c-.85.36-1.68.76-2.49,1.19Z"/><path class="cls-5" d="M134.38,50a.88.88,0,0,1-.51,0c-.43-.1-.86-.19-1.3-.27a.85.85,0,0,1-.68-1,.84.84,0,0,1,1-.68l1.37.28a.86.86,0,0,1,.13,1.63Z"/></g><g class="cls-4"><path class="cls-5" d="M155.45,65.17a.86.86,0,0,1-1-.35c-.23-.38-.47-.76-.71-1.13a.85.85,0,0,1,1.42-.94c.26.39.51.79.75,1.19a.86.86,0,0,1-.29,1.17Z"/><path class="cls-5" d="M139.48,113.1l-1.11.42a.85.85,0,1,1-.58-1.6c.86-.32,1.7-.66,2.51-1a.85.85,0,0,1,.72,1.55C140.51,112.66,140,112.89,139.48,113.1Zm-5.43,1.67-.14,0c-.93.2-1.88.37-2.82.49a.85.85,0,0,1-.22-1.69c.89-.12,1.8-.27,2.68-.46a.85.85,0,0,1,.5,1.62Zm10.9-4.5a.85.85,0,0,1-.78-1.51c.76-.48,1.51-1,2.22-1.56a.87.87,0,0,1,1.2.16.86.86,0,0,1-.16,1.2c-.75.58-1.54,1.13-2.34,1.64Zm-18.17,5.26a.87.87,0,0,1-.32.06c-.95,0-1.92-.06-2.86-.14a.85.85,0,0,1-.77-.93.84.84,0,0,1,.92-.77c.9.08,1.82.13,2.72.13a.86.86,0,0,1,.31,1.65Zm23.84-9.85a.85.85,0,0,1-.92-1.39c.63-.64,1.25-1.32,1.82-2a.86.86,0,0,1,1.2-.11.85.85,0,0,1,.11,1.2c-.61.73-1.25,1.44-1.92,2.12A.81.81,0,0,1,150.62,105.68Zm4.53-5.73a.85.85,0,0,1-1-1.24c.48-.77.93-1.56,1.35-2.36A.84.84,0,0,1,156.6,96a.85.85,0,0,1,.37,1.15c-.43.84-.91,1.68-1.41,2.48A.85.85,0,0,1,155.15,100Zm3.18-6.58a.88.88,0,0,1-.6,0,.85.85,0,0,1-.52-1.09c.3-.85.57-1.72.79-2.59a.85.85,0,0,1,1.65.43c-.24.92-.52,1.84-.84,2.73A.84.84,0,0,1,158.33,93.37ZM160,86.25a.75.75,0,0,1-.42.06.85.85,0,0,1-.74-1c.11-.9.18-1.81.21-2.71a.85.85,0,0,1,1.7.06c0,1-.11,1.91-.22,2.85A.85.85,0,0,1,160,86.25Zm.06-7.31a.86.86,0,0,1-.23.06.84.84,0,0,1-.93-.76c-.1-.9-.23-1.8-.4-2.69a.85.85,0,0,1,1.68-.31c.17.93.31,1.88.41,2.82A.85.85,0,0,1,160.05,78.94Zm-1.54-7.14,0,0a.85.85,0,0,1-1.08-.54c-.21-.63-.44-1.26-.69-1.87-.09-.23-.18-.45-.28-.67a.86.86,0,0,1,.45-1.12.86.86,0,0,1,1.12.45c.1.23.19.47.29.7.26.65.5,1.31.73,2A.86.86,0,0,1,158.51,71.8Z"/><path class="cls-5" d="M119.5,114.66a.87.87,0,0,1-.51,0c-.45-.11-.9-.22-1.35-.35a.85.85,0,1,1,.45-1.64q.64.18,1.29.33a.85.85,0,0,1,.12,1.62Z"/></g><path class="cls-5" d="M116.87,105.06a.41.41,0,0,0,.46,0l3.59-3.26a21.23,21.23,0,0,0,6.81.76l2.79,4a.41.41,0,0,0,.44.15l5.58-1.62a.42.42,0,0,0,.29-.37l.24-4.83a21.45,21.45,0,0,0,5.34-4.28l4.78.82a.39.39,0,0,0,.41-.2l2.81-5.1a.38.38,0,0,0-.06-.45L147.1,87a21.16,21.16,0,0,0,.75-6.8l4-2.79A.4.4,0,0,0,152,77l-1.62-5.59a.39.39,0,0,0-.36-.28l-4.84-.24a20.83,20.83,0,0,0-4.28-5.34l.83-4.78a.4.4,0,0,0-.2-.42l-5.1-2.8a.41.41,0,0,0-.46.05l-3.59,3.26a21.2,21.2,0,0,0-6.8-.76l-2.8-4a.4.4,0,0,0-.43-.15l-5.59,1.62a.42.42,0,0,0-.29.36l-.24,4.84a21.45,21.45,0,0,0-5.34,4.28l-4.77-.82a.4.4,0,0,0-.42.2l-2.8,5.09a.39.39,0,0,0,0,.46l3.25,3.6a21.16,21.16,0,0,0-.75,6.8l-4,2.79a.4.4,0,0,0-.15.44l1.62,5.58a.39.39,0,0,0,.36.29l4.84.24a21,21,0,0,0,4.28,5.34l-.83,4.78a.43.43,0,0,0,.21.42Z"/><path class="cls-6" d="M128.81,86.71a5.85,5.85,0,0,1-5.13-10.47,5.85,5.85,0,0,1,8,2.09,5.86,5.86,0,0,1-2.1,8A5.5,5.5,0,0,1,128.81,86.71ZM125,77.12a4.68,4.68,0,0,0-.59.3,4.3,4.3,0,1,0,.59-.3Z"/><path class="cls-6" d="M132.08,94.49a13.47,13.47,0,0,1-1.39.49h0l-.45.12a14.76,14.76,0,0,1-2.27.39h-.29a.31.31,0,0,1-.34-.21.19.19,0,0,1,0-.1.35.35,0,0,1,.32-.37,13.51,13.51,0,0,0,2.87-.51,13.71,13.71,0,0,0,9.33-17,12.45,12.45,0,0,0-.46-1.34,13.71,13.71,0,0,0-16.5-8,13.71,13.71,0,0,0-9.34,17A12,12,0,0,0,114,86.3a13.67,13.67,0,0,0,3.36,4.9.34.34,0,0,1,.09.12.33.33,0,0,1-.07.36.34.34,0,0,1-.48,0,14.4,14.4,0,0,1-3.54-5.14,13.18,13.18,0,0,1-.47-1.38,14.37,14.37,0,0,1,20.73-16.6A14.23,14.23,0,0,1,140,75.77a12.85,12.85,0,0,1,.49,1.4,14.36,14.36,0,0,1-8.41,17.32Z"/><g class="cls-4"><path class="cls-5" d="M79.15,129.63a.52.52,0,0,1-.61-.16c-.28-.35-.55-.71-.8-1.08a.52.52,0,0,1,.86-.6c.24.35.5.69.77,1a.53.53,0,0,1-.09.74Z"/><path class="cls-5" d="M76.94,126.24a.52.52,0,0,1-.66-.24c-.36-.69-.69-1.39-1-2.11-.06-.15-.12-.3-.17-.45a.54.54,0,0,1,.3-.68.53.53,0,0,1,.68.31c.06.14.11.29.17.43a20.2,20.2,0,0,0,.93,2,.54.54,0,0,1-.22.72ZM75,121.13l-.07,0a.53.53,0,0,1-.64-.39,23.31,23.31,0,0,1-.5-2.75.54.54,0,0,1,.47-.59.53.53,0,0,1,.58.46,19.61,19.61,0,0,0,.48,2.63A.54.54,0,0,1,75,121.13Zm-.64-5.43a.65.65,0,0,1-.2,0,.53.53,0,0,1-.52-.53,23.65,23.65,0,0,1,.19-2.8.53.53,0,0,1,1,.14,21.63,21.63,0,0,0-.19,2.66A.54.54,0,0,1,74.36,115.7Zm.72-5.42a.53.53,0,0,1-.71-.62,24.48,24.48,0,0,1,.87-2.67.53.53,0,0,1,.69-.29.52.52,0,0,1,.29.68,20.92,20.92,0,0,0-.83,2.54A.51.51,0,0,1,75.08,110.28Zm2-5.08a.55.55,0,0,1-.45,0,.54.54,0,0,1-.21-.71,21.53,21.53,0,0,1,1.5-2.37.52.52,0,1,1,.85.61A20.39,20.39,0,0,0,77.36,105,.57.57,0,0,1,77.09,105.2Zm3.19-4.44a.53.53,0,0,1-.55-.1.51.51,0,0,1,0-.74,21.75,21.75,0,0,1,2-1.94.52.52,0,0,1,.74.06.54.54,0,0,1-.06.75,21,21,0,0,0-1.93,1.84A.5.5,0,0,1,80.28,100.76Zm4.18-3.52a.54.54,0,0,1-.64-.2.53.53,0,0,1,.15-.73,22.49,22.49,0,0,1,2.44-1.38.54.54,0,0,1,.71.24.55.55,0,0,1-.25.71,22,22,0,0,0-2.32,1.31ZM92,94.12l-.09,0a22.46,22.46,0,0,0-2.24.6,2.55,2.55,0,0,0-.33.11.53.53,0,0,1-.35-1l.35-.11a20.07,20.07,0,0,1,2.36-.63.52.52,0,0,1,.62.4A.53.53,0,0,1,92,94.12Z"/></g><g class="cls-4"><path class="cls-5" d="M105.17,136.34a.53.53,0,0,1-.68-.29.54.54,0,0,1,.28-.69,19.11,19.11,0,0,0,2.36-1.16.54.54,0,0,1,.72.2.53.53,0,0,1-.2.72,21.72,21.72,0,0,1-2.47,1.21Zm-2.54.89h0a24.51,24.51,0,0,1-2.7.6.53.53,0,1,1-.16-1,22.67,22.67,0,0,0,2.57-.57.52.52,0,0,1,.65.36A.53.53,0,0,1,102.63,137.23Zm7.21-3.55a.52.52,0,0,1-.61-.18.51.51,0,0,1,.1-.73,22,22,0,0,0,2-1.7.53.53,0,0,1,.75,0,.52.52,0,0,1,0,.74,22.55,22.55,0,0,1-2.11,1.78Zm-12.52,4.38a.58.58,0,0,1-.18,0,23.07,23.07,0,0,1-2.76-.08.53.53,0,0,1-.48-.57.54.54,0,0,1,.57-.48,23.18,23.18,0,0,0,2.63.08.53.53,0,0,1,.55.5A.54.54,0,0,1,97.32,138.06ZM113.73,130a.53.53,0,0,1-.6-.83,22.91,22.91,0,0,0,1.54-2.12.53.53,0,1,1,.89.56,22.24,22.24,0,0,1-1.62,2.23A.54.54,0,0,1,113.73,130Zm2.89-4.54a.5.5,0,0,1-.43,0,.52.52,0,0,1-.24-.7,23.5,23.5,0,0,0,1-2.44.52.52,0,1,1,1,.34,24.27,24.27,0,0,1-1,2.55A.55.55,0,0,1,116.62,125.43Zm1.71-5.09a.5.5,0,0,1-.3,0,.53.53,0,0,1-.41-.62,20.89,20.89,0,0,0,.38-2.6.53.53,0,0,1,1,.08,22.44,22.44,0,0,1-.4,2.73A.53.53,0,0,1,118.33,120.34Z"/><path class="cls-5" d="M91.94,137.58a.54.54,0,0,1-.31,0l-1.31-.32a.52.52,0,0,1-.36-.65.52.52,0,0,1,.64-.37c.41.11.83.22,1.25.31a.52.52,0,0,1,.41.62A.54.54,0,0,1,91.94,137.58Z"/></g><path class="cls-5" d="M89.8,131.11a.27.27,0,0,0,.31,0l2.4-2.17a14.4,14.4,0,0,0,4.55.5l1.87,2.65a.27.27,0,0,0,.29.1l3.74-1.08a.26.26,0,0,0,.19-.24l.16-3.24a14.31,14.31,0,0,0,3.58-2.87l3.19.56a.28.28,0,0,0,.28-.14l1.88-3.41a.27.27,0,0,0,0-.31L110,119a14.4,14.4,0,0,0,.5-4.55l2.65-1.87a.27.27,0,0,0,.1-.29l-1.08-3.74a.26.26,0,0,0-.25-.19l-3.23-.16a14.31,14.31,0,0,0-2.87-3.58l.55-3.19a.26.26,0,0,0-.13-.28l-3.41-1.88a.27.27,0,0,0-.31,0l-2.4,2.18A14.15,14.15,0,0,0,95.6,101l-1.87-2.65a.27.27,0,0,0-.29-.1L89.7,99.33a.26.26,0,0,0-.19.25l-.16,3.23a14.31,14.31,0,0,0-3.58,2.87l-3.19-.55a.26.26,0,0,0-.28.13l-1.88,3.41a.27.27,0,0,0,0,.31l2.17,2.4a14.43,14.43,0,0,0-.5,4.55l-2.65,1.87a.27.27,0,0,0-.1.29l1.08,3.74a.26.26,0,0,0,.24.19l3.24.16a14.31,14.31,0,0,0,2.87,3.58L86.25,129a.28.28,0,0,0,.14.28Z"/><path class="cls-6" d="M97.81,118.9a4,4,0,0,1-2.49.15,4,4,0,1,1,3-.41A5.2,5.2,0,0,1,97.81,118.9Zm-2.57-6.42-.39.19a3,3,0,0,0-1,4A2.87,2.87,0,0,0,95.59,118a2.92,2.92,0,0,0,2.22-.3h0a2.95,2.95,0,0,0,1-4A2.94,2.94,0,0,0,95.24,112.48Z"/><path class="cls-6" d="M100.08,124.32c-.31.12-.63.23-1,.33a9.67,9.67,0,0,1-2,.36h-.09a.53.53,0,0,1-.53-.33.41.41,0,0,1,0-.16A.53.53,0,0,1,97,124a9,9,0,0,0,1.85-.33h0l.1,0a8.79,8.79,0,0,0,3.73-2.24,9.28,9.28,0,0,0,1.43-1.9v0l0,0a8.83,8.83,0,0,0,.75-6.75c-.09-.29-.19-.58-.3-.86a8.87,8.87,0,0,0-16.73,5.81c.08.28.18.57.29.85a8.9,8.9,0,0,0,2.19,3.17.64.64,0,0,1,.13.19.51.51,0,0,1-.11.55.52.52,0,0,1-.74,0,9.77,9.77,0,0,1-2.44-3.55,8.22,8.22,0,0,1-.33-1,9.92,9.92,0,1,1,13.24,6.43Z"/><rect class="cls-7" x="70.69" y="60.15" width="5.8" height="131.51"/><rect class="cls-7" x="48.72" y="46.9" width="49.58" height="49.58" rx="11.72"/><rect class="cls-1" x="51.55" y="49.33" width="44.12" height="44.12" rx="10.42"/><path class="cls-7" d="M64.35,58.45,61.45,57a.72.72,0,0,0-.79.11l-.32.29-.51.45-.32.3a.71.71,0,0,0-.2.78l1.11,3a1.41,1.41,0,0,0,1,.91l2,.43L76.12,77.45l.74-.66.51-.46.69-.62L65.34,61.59l-.2-2A1.46,1.46,0,0,0,64.35,58.45Z"/><path class="cls-8" d="M64.15,58.62l-2.62-1.29a.67.67,0,0,0-.74.08l-.28.25-.46.42-.29.26a.66.66,0,0,0-.16.72l1,2.74a1.28,1.28,0,0,0,.93.82l1.77.39L74.78,75.74l.65-.59.46-.41.72-.64L65.14,61.36l-.23-1.76A1.29,1.29,0,0,0,64.15,58.62Z"/><path class="cls-9" d="M86.52,80.48l-9-8.07-4.57,4.13,7,9.61a6.08,6.08,0,0,0,2.58,2l2.77,1.19a1.37,1.37,0,0,0,1.42-.2l1.9-1.71a1.36,1.36,0,0,0,.38-1.27l-.46-2.33A6.2,6.2,0,0,0,86.52,80.48Z"/><rect class="cls-7" x="71.22" y="73.63" width="7.66" height="1.59" rx="0.75" transform="translate(-30.52 69.35) rotate(-42.01)"/><rect class="cls-7" x="79.28" y="74.91" width="1.3" height="14.17" rx="0.64" transform="matrix(0.74, -0.67, 0.67, 0.74, -34.33, 74.52)"/><rect class="cls-7" x="81.53" y="72.88" width="1.3" height="14.17" rx="0.64" transform="translate(-32.4 75.55) rotate(-42.01)"/><path class="cls-7" d="M58.2,80l-.61.57c-1.05,1-1.37,2.34-.71,3l.78.83c.66.71,2,.49,3.09-.48l.61-.57.12-.12L78.83,65.66l-1.7-1.83L58.32,79.9Zm.84.81c.78-.74,1.78-.95,2.21-.48s.15,1.44-.63,2.17-1.79.95-2.22.49S58.25,81.55,59,80.82Z"/><path class="cls-7" d="M82.45,57.15l-3.54,3.3a1.11,1.11,0,0,0-.35.91l.17,1.76a1.09,1.09,0,0,0,.92,1l1.74.29a1.11,1.11,0,0,0,.94-.28l3.54-3.3a.86.86,0,0,1,1.44.59,6.42,6.42,0,0,1-2.06,4.84A6.06,6.06,0,0,1,77,57.38a6.38,6.38,0,0,1,5-1.7A.85.85,0,0,1,82.45,57.15Z"/><path class="cls-10" d="M82.76,57.48l-3.54,3.3a1.13,1.13,0,0,0-.35.92L79,63.46a1.1,1.1,0,0,0,.92,1l1.74.29a1.12,1.12,0,0,0,.94-.29l3.54-3.3a.86.86,0,0,1,1.44.59,6.4,6.4,0,0,1-2.06,4.84,6.06,6.06,0,0,1-8.26-8.86,6.39,6.39,0,0,1,5-1.71A.85.85,0,0,1,82.76,57.48Z"/><path class="cls-11" d="M58.44,80.28l-.61.57c-1,1-1.36,2.34-.7,3l.78.84c.66.71,2,.49,3.09-.49l.61-.57.12-.11L79.08,65.92l-1.7-1.82L58.57,80.17Zm.84.8c.79-.73,1.78-1,2.22-.48s.15,1.44-.64,2.18-1.78,1-2.21.48S58.5,81.82,59.28,81.08Z"/><path class="cls-12" d="M138.29,141c19,4.75,30.12,17.44,35.61,18.72s27.49,2.45,31.07,5.79.16,5.7,4.78,10c5.1,14.4-10.7,18.71-10.7,18.71l-143.6-1.17s-9.69.87-9.91-6.05a121.36,121.36,0,0,1,.15-16.26c.51-6.23,3-6.93,4.41-10.17S65,157,67.59,153.4s5.75-9.33,16.88-11.29C99.85,139.41,127.28,138.27,138.29,141Z"/><path class="cls-13" d="M44.77,186.59c.25,8,13.74,6.55,13.8,6.54s10.72-8.21-4-7.89a23.94,23.94,0,0,1-8.93-2.46Z"/><path class="cls-14" d="M210.62,179.07s.14,2-3.66,4.1c-4.71,2.57-24-.39-24-.39l1.1,10.66,15.42.79C199.08,194.33,219.69,193.14,210.62,179.07Z"/><path class="cls-15" d="M70,163.81s-.46-3.61,3.34-8,6-7.35,8.92-8.1S106.56,144,108,146.24s3.21,16.23,3.21,16.23Z"/><path class="cls-16" d="M82.67,147.29c2.39-.36,20.56-2.47,25.25-1.87l1.22,4.67L70,163.81a10.47,10.47,0,0,1,1.76-5.9C75.06,153,80.17,147.6,82.67,147.29Z"/><path class="cls-17" d="M114.35,146.23c.59,2.7,2.77,15.85,2.77,15.85l46.19-.21s-14.56-13.38-25.75-15.5S114,144.81,114.35,146.23Z"/><path class="cls-18" d="M136,145.38c-9.12-1.27-12.46-1-22-.19l.92,3.82s14.23-2.79,27.48-1.17A20.55,20.55,0,0,0,136,145.38Z"/><path class="cls-19" d="M203.91,164.84s-7.48-2.4-9.31,3.52c-1.74,5.63,15.15,7.15,15.15,7.15S208.5,167.15,203.91,164.84Z"/><path class="cls-20" d="M67.47,157.42h.12c1.76-.54,3.24-2.39,5-4.53,2.51-3.13,5.34-6.68,10-7.56,8.87-1.69,22.32-2.87,22.45-2.88a.44.44,0,0,0,.4-.47.42.42,0,0,0-.47-.39c-.14,0-13.63,1.19-22.54,2.89-4.94.94-8,4.78-10.48,7.87-1.63,2-3,3.78-4.53,4.23a.43.43,0,0,0,.13.85Z"/><path class="cls-20" d="M53.72,162.35a.44.44,0,0,0,.39-.24c.72-1.47,4-2.14,7.07-2.78,1.12-.23,2.27-.47,3.33-.75a.43.43,0,1,0-.22-.84c-1,.27-2.18.51-3.28.74-3.48.71-6.77,1.39-7.68,3.24a.43.43,0,0,0,.19.58A.49.49,0,0,0,53.72,162.35Z"/><path class="cls-20" d="M117.17,192.2h0a.45.45,0,0,0,.45-.47.46.46,0,0,0-.26-.42c-.9-1.45-2.07-17.09-2.6-26.73a.45.45,0,0,0-.48-.43.45.45,0,0,0-.43.48c0,.06.38,6.88.92,13.59C115.9,191.87,116.58,192.2,117.17,192.2Z"/><path class="cls-21" d="M101.56,193a15.23,15.23,0,0,0,.16-2.27,17.15,17.15,0,0,0-34.3,0,15.37,15.37,0,0,0,.16,2.28Z"/><circle class="cls-22" cx="84.44" cy="190.33" r="13.98"/><circle class="cls-23" cx="84.44" cy="190.33" r="11.35" transform="translate(-10.4 4.96) rotate(-3.17)"/><path class="cls-7" d="M94,194.44h-.08a.2.2,0,0,1-.1-.27A9.86,9.86,0,0,0,79.9,181.73a.2.2,0,0,1-.27-.08.19.19,0,0,1,.08-.27,10.25,10.25,0,0,1,15.26,9,10.31,10.31,0,0,1-.81,4A.2.2,0,0,1,94,194.44Z"/><path class="cls-24" d="M185.74,193.62a14.77,14.77,0,0,0,.16-2.23,17.16,17.16,0,0,0-34.31,0,13.88,13.88,0,0,0,.17,2.26Z"/><circle class="cls-25" cx="168.61" cy="191.01" r="13.98"/><circle class="cls-26" cx="168.61" cy="191.01" r="11.35" transform="translate(-10.31 9.62) rotate(-3.17)"/><path class="cls-7" d="M178.15,195.13l-.08,0a.2.2,0,0,1-.11-.26,9.73,9.73,0,0,0,.78-3.84,9.86,9.86,0,0,0-14.66-8.6.19.19,0,0,1-.27-.07.21.21,0,0,1,.07-.28A10.26,10.26,0,0,1,178.34,195,.22.22,0,0,1,178.15,195.13Z"/><path class="cls-27" d="M155.74,160.89l-3.5-3.67a10.35,10.35,0,0,0-5.3-3L140,152.7a3.34,3.34,0,0,0-3.94,3.11l0,.48a3.46,3.46,0,0,0,3.31,4l8.94-.11a3.1,3.1,0,0,1,2.87,2l.16.41a1.39,1.39,0,0,0,1.27.91h2.2A1.51,1.51,0,0,0,155.74,160.89Z"/><path class="cls-28" d="M119.59,165.09h11.58A1.4,1.4,0,0,1,132.4,167a5.22,5.22,0,0,1-4.79,3.75c-2.7.21-6.1-1.44-8.67-3A1.42,1.42,0,0,1,119.59,165.09Z"/><path class="cls-29" d="M45.64,170.74l2,.36a1.41,1.41,0,0,1,1.16,1.39v4.78a1.41,1.41,0,0,1-1.41,1.41h-2Z"/><path class="cls-30" d="M143.29,130.84l2.19,3a18.92,18.92,0,0,0,9.25-1.54,20.78,20.78,0,0,0-2.67-7A21.81,21.81,0,0,1,143.29,130.84Z"/><path class="cls-31" d="M163.06,124.17l-4.59-10.65a24.64,24.64,0,0,1-6.41,11.8,20.78,20.78,0,0,1,2.67,7A17.17,17.17,0,0,0,163.06,124.17Z"/><path class="cls-32" d="M167.85,207.18c-3.12.14-6.13,0-8.15-.05,1.84-1.31,6.06-4.15,9.6-5.28l2.42-.14a10,10,0,0,1,1.12,4.11C172.44,206.32,171.26,207,167.85,207.18Z"/><path class="cls-33" d="M159.68,207.14h0c2,.1,5,.19,8.15.05,3.41-.16,4.59-.86,5-1.36,0,.13,0,.26,0,.4a1.14,1.14,0,0,1-1,1.23c-2.55.19-8.88.63-11.93.47A.43.43,0,0,1,159.68,207.14Z"/><path class="cls-34" d="M189.66,206.34a23,23,0,0,1,.88-4.12c.44-.84,2,0,2,0a4,4,0,0,1,1.55,1.33c.32.53,1.18,2,1.77,3a.69.69,0,0,1,.09.36l-6.08.22A1.21,1.21,0,0,1,189.66,206.34Z"/><path class="cls-35" d="M195.91,207a.71.71,0,0,1-.67.68l-4.34.11a1.21,1.21,0,0,1-1.07-.57Z"/><path class="cls-36" d="M153.74,112.26c3.88-1,11-2.61,16.72-2.27a2.58,2.58,0,0,1,2.43,2.42c.86,15.16,2,28.62,4.25,36.44A28.56,28.56,0,0,1,162.37,151,163.82,163.82,0,0,1,152.82,124s-1.6-8.16,0-10.89A1.61,1.61,0,0,1,153.74,112.26Z"/><path class="cls-37" d="M163.07,101.64s1,5.84,1.27,8.54a1.06,1.06,0,0,1-.58,1.06,7.75,7.75,0,0,1-5.84.62,1,1,0,0,1-.67-1l.17-7.8Z"/><path class="cls-38" d="M156.68,95.17s-1.89,4.34-2,6.62-.62,3.75,2,4.21a5.6,5.6,0,0,0,6.06-3.12s1.88-3.5,1.46-4.93S156.68,95.17,156.68,95.17Z"/><path class="cls-39" d="M161.84,101.25h-.34s1.38-2.82.17-3.31-4.89-.49-5.92-2.18,1.63-2.64,2.95-3.23a6.35,6.35,0,0,0-1.53-.17l-.27-.2c.07.14.94-.54,1-.69s1.07-.78,1.15-.65c.32.51-1,1.16,1.28,1.59,3.25.6,5.4,1.91,5.45,4.16a.18.18,0,0,0,.28.14c.24-.14-.71-.21-.2.22a1.67,1.67,0,0,1,.65,1.15,2.18,2.18,0,0,1-.74,1.61,1.13,1.13,0,0,0-.35.83c0,.32.2.58.24.9s-.35.68-.66.86-.85.5-1.26.77c-.23.16-.69.64-1,.56a.18.18,0,0,1-.14-.18l.12-2a.17.17,0,0,0-.17-.19Z"/><path class="cls-40" d="M161.75,101.66s.73-2.77,2-2-.65,3.1-1.65,3.21Z"/><path class="cls-41" d="M182.92,132.45a24.2,24.2,0,0,1,.84,11.15l2.53.67s3.26-3.88,2.52-12.5A12.42,12.42,0,0,0,182.92,132.45Z"/><path class="cls-42" d="M188.81,131.77c-.09-1-.22-2-.42-3.08-1.7-9.51-13.89-16.81-16.75-18.42a.4.4,0,0,0-.58.36l.4,12.92c6.79.91,10,4.79,11.46,8.9A12.42,12.42,0,0,1,188.81,131.77Z"/><path class="cls-43" d="M137.06,131.84a1.64,1.64,0,0,1-.89-1.08c-.25-.92-.45-2.36.54-2.63,1.47-.4,3.55,2.56,3.55,2.56l.89,2.18,1,.72C141.11,133.71,139.22,132.92,137.06,131.84Z"/><path class="cls-44" d="M166.18,99.05c-1.55-.42-3.09-.85-4.63-1.29-2.63-.75-5.3-1.41-7.89-2.27L152,95a2.07,2.07,0,0,1-1-.54c-.25-.31-.14-.77.28-.78a10,10,0,0,1,2.19.2c.21,0,2.24.41,2.23.45s.78-5.34,6.81-3.48C169.8,93.07,167.08,99.53,166.18,99.05Z"/><path class="cls-45" d="M162.37,151.18c.15.78,5.46,34,5.78,51.2a.57.57,0,0,0,.47.57,10.1,10.1,0,0,0,3.26,0,.41.41,0,0,0,.31-.38c.19-3.2,1.68-30.29-.15-43,0,0,15.1,34.08,17.38,43.48a.48.48,0,0,0,.48.37,10.81,10.81,0,0,0,3-.58.87.87,0,0,0,.51-1c-1.28-5.62-10.24-44.38-16.32-52.92Z"/><path class="cls-46" d="M172,159a.2.2,0,0,0,.14-.06.2.2,0,0,0,0-.28l-2-2.06a.2.2,0,1,0-.29.27l2,2.07A.2.2,0,0,0,172,159Z"/><path class="cls-47" d="M162.59,151.53l-5.52-13.07-.92-14.75,11.28-1a70.52,70.52,0,0,0,7.8,11.64,1,1,0,0,1,.24.46L179,148.47Z"/><path class="cls-48" d="M156.15,123.71c-1.19-3.46-1.6-7.06-2.41-11.45,1.13-.71,1.52-1,2.6-.8.74,4.4,1.51,8.57,2.48,12.42Z"/><path class="cls-49" d="M165.14,122.91a64.85,64.85,0,0,1,1-13,4.7,4.7,0,0,1,3,0c-1.07,4.66-1.08,9.24-1.63,13.41Z"/><path class="cls-50" d="M198.74,152.24l2.25,1.37c3.85,2.34,5.7,6.36,4.12,9l-1.88,3.09c-1.59,2.6-6,2.81-9.85.46l-2.25-1.37c-.15-.09-.3-.18-.44-.28L125.8,121.06l4.09-6.73L198.29,152Zm-2.08,3c-2.91-1.77-6.11-1.8-7.16-.08s.45,4.56,3.36,6.32,6.11,1.8,7.16.08S199.56,157,196.66,155.27Z"/><path class="cls-51" d="M109.18,97.08l13,7.93a3.51,3.51,0,0,1,1.66,2.61l.61,5.54a3.51,3.51,0,0,1-2.22,3.65l-5.2,2a3.49,3.49,0,0,1-3.08-.28l-13-7.93a2.69,2.69,0,0,0-4.06,2.74A20.14,20.14,0,0,0,106.33,127c9.38,5.71,20.28,2.32,25.77-6.7s3.48-20.27-5.9-26a20.14,20.14,0,0,0-16.45-2.11A2.7,2.7,0,0,0,109.18,97.08Z"/><path class="cls-52" d="M108.44,98.31l13,7.93a3.51,3.51,0,0,1,1.66,2.61l.61,5.54a3.5,3.5,0,0,1-2.22,3.65l-5.2,2a3.49,3.49,0,0,1-3.08-.28l-13-7.93a2.69,2.69,0,0,0-4.06,2.74,20.13,20.13,0,0,0,9.43,13.64c9.39,5.71,20.29,2.32,25.77-6.71s3.49-20.26-5.89-26A20.17,20.17,0,0,0,109,93.44,2.69,2.69,0,0,0,108.44,98.31Z"/><path class="cls-53" d="M198.14,153.22l2.25,1.37c3.86,2.35,5.7,6.36,4.12,9l-1.88,3.09c-1.58,2.6-6,2.81-9.85.46l-2.25-1.37-.44-.28-64.89-43.4,4.1-6.74L197.69,153Zm-2.08,3c-2.9-1.77-6.11-1.8-7.16-.08s.46,4.56,3.36,6.33,6.11,1.79,7.16.07S199,158,196.06,156.25Z"/><path class="cls-54" d="M183.93,142.33h-3.12s2.53,1.52,2.61,3.12a16,16,0,0,1-1.51,5.81c-.56,1,7.07-1.47,4.38-8.93Z"/></g></g></svg>