<svg xmlns="http://www.w3.org/2000/svg" viewBox="0 0 251.8 251.8"><defs><style>.cls-1{fill:#fff;}.cls-2{fill:none;stroke:#93d500;stroke-linecap:round;stroke-miterlimit:10;stroke-width:2px;stroke-dasharray:11.32 4.72 6.6 7.55 18.87 11.32;}.cls-3{fill:#453f42;}.cls-4{fill:#3e373d;}.cls-5{fill:#343030;}.cls-6{fill:#534c51;}.cls-7{fill:#736c73;}.cls-8{fill:#b31917;}.cls-9{fill:#e10b14;}.cls-10{fill:#e4331d;}.cls-11{fill:#ed705a;}.cls-12{fill:#585156;}.cls-13{fill:#453e44;}</style></defs><g id="Capa_2" data-name="Capa 2"><g id="Capa_1-2" data-name="Capa 1"><circle class="cls-1" cx="125.9" cy="125.9" r="119.26"/><circle class="cls-2" cx="125.9" cy="125.9" r="124.9" transform="translate(-52.15 125.9) rotate(-45)"/><path class="cls-3" d="M103.76,52.41a.91.91,0,0,0-.91-.85H75.16a.9.9,0,0,0-.79.47.88.88,0,0,0,0,.91c3,4.93,5.24,11.42,7.36,17.7,3.75,11.11,4.86,21.6,12.72,21.6h11.1a1,1,0,0,0,.67-.29.89.89,0,0,0,.24-.68Z"/><path class="cls-3" d="M103.76,107.22a.91.91,0,0,0-.91-.84H75.16a.91.91,0,0,0-.79.46.89.89,0,0,0,0,.92c3,4.93,5.24,11.42,7.36,17.7,3.75,11.1,4.86,21.59,12.72,21.59h11.1a1,1,0,0,0,.67-.28.91.91,0,0,0,.24-.68Z"/><path class="cls-3" d="M103.76,162a.91.91,0,0,0-.91-.85H75.16a.9.9,0,0,0-.79.47.88.88,0,0,0,0,.91c3,4.93,5.24,11.42,7.36,17.7,3.75,11.11,4.86,21.6,12.72,21.6h11.1a1,1,0,0,0,.67-.29.89.89,0,0,0,.24-.68Z"/><path class="cls-3" d="M142.29,52.41a.91.91,0,0,1,.91-.85h27.68a.92.92,0,0,1,.8.47.88.88,0,0,1,0,.91c-3,4.93-5.23,11.42-7.35,17.7-3.76,11.11-4.86,21.6-12.72,21.6h-11.1a.92.92,0,0,1-.67-.29.89.89,0,0,1-.24-.68Z"/><path class="cls-3" d="M142.29,107.22a.91.91,0,0,1,.91-.84h27.68a.93.93,0,0,1,.8.46.89.89,0,0,1,0,.92c-3,4.93-5.23,11.42-7.35,17.7-3.76,11.1-4.86,21.59-12.72,21.59h-11.1a.89.89,0,0,1-.91-1Z"/><path class="cls-3" d="M142.29,162a.91.91,0,0,1,.91-.85h27.68a.92.92,0,0,1,.8.47.88.88,0,0,1,0,.91c-3,4.93-5.23,11.42-7.35,17.7-3.76,11.11-4.86,21.6-12.72,21.6h-11.1a.92.92,0,0,1-.67-.29.89.89,0,0,1-.24-.68Z"/><path class="cls-4" d="M146.22,54.48a5.1,5.1,0,0,1-5.11,5.1h-36a5.09,5.09,0,0,1-5.09-5.1V41.74a5.09,5.09,0,0,1,5.09-5.11h36a5.1,5.1,0,0,1,5.11,5.11Z"/><path class="cls-4" d="M146.22,211.38a5.1,5.1,0,0,1-5.11,5.1h-36a5.09,5.09,0,0,1-5.09-5.1V198.64a5.09,5.09,0,0,1,5.09-5.11h36a5.1,5.1,0,0,1,5.11,5.11Z"/><path class="cls-4" d="M142.22,165.46a4.21,4.21,0,0,1-4.22,4.21H108.28a4.2,4.2,0,0,1-4.21-4.21V154.92a4.2,4.2,0,0,1,4.21-4.21H138a4.21,4.21,0,0,1,4.22,4.21Z"/><rect class="cls-5" x="94.69" y="43.48" width="56.91" height="166.47" rx="0.8"/><rect class="cls-3" x="96.51" y="44.83" width="53.27" height="53.27" rx="0.8"/><path class="cls-6" d="M148.23,71.46a25,25,0,1,1-25-25A25,25,0,0,1,148.23,71.46Z"/><path class="cls-7" d="M101.3,47.9a1.61,1.61,0,1,1-1.6-1.6A1.61,1.61,0,0,1,101.3,47.9Z"/><path class="cls-7" d="M101.3,94.84a1.61,1.61,0,1,1-1.6-1.61A1.6,1.6,0,0,1,101.3,94.84Z"/><path class="cls-7" d="M148.23,47.9a1.61,1.61,0,1,1-1.6-1.6A1.61,1.61,0,0,1,148.23,47.9Z"/><path class="cls-7" d="M148.23,94.84a1.61,1.61,0,1,1-1.6-1.61A1.6,1.6,0,0,1,148.23,94.84Z"/><path class="cls-5" d="M144.7,71.46A21.45,21.45,0,1,1,123.26,50,21.46,21.46,0,0,1,144.7,71.46Z"/><path class="cls-8" d="M142.55,71.46a19.3,19.3,0,1,1-19.29-19.3A19.3,19.3,0,0,1,142.55,71.46Z"/><path class="cls-9" d="M140.82,71.46A17.56,17.56,0,1,1,123.26,53.9,17.56,17.56,0,0,1,140.82,71.46Z"/><path class="cls-10" d="M125.7,85.67c0,.92-1.1,1.65-2.45,1.65s-2.44-.73-2.44-1.65,1.1-1.65,2.44-1.65S125.7,84.76,125.7,85.67Z"/><path class="cls-10" d="M123.26,74.31a31.71,31.71,0,0,0,17.45-4.84,17.56,17.56,0,0,0-34.9,0A31.79,31.79,0,0,0,123.26,74.31Z"/><path class="cls-11" d="M132.33,62.51c0,3.39-4.06,6.14-9.07,6.14s-9.08-2.75-9.08-6.14,4.07-6.15,9.08-6.15S132.33,59.12,132.33,62.51Z"/><rect class="cls-3" x="96.51" y="99.99" width="53.27" height="53.27" rx="0.8"/><path class="cls-6" d="M148.23,126.63a25,25,0,1,1-25-25A25,25,0,0,1,148.23,126.63Z"/><path class="cls-7" d="M101.3,103.07a1.61,1.61,0,1,1-1.6-1.61A1.6,1.6,0,0,1,101.3,103.07Z"/><path class="cls-7" d="M101.3,150a1.61,1.61,0,1,1-1.6-1.6A1.61,1.61,0,0,1,101.3,150Z"/><path class="cls-7" d="M148.23,103.07a1.61,1.61,0,1,1-1.6-1.61A1.6,1.6,0,0,1,148.23,103.07Z"/><path class="cls-7" d="M148.23,150a1.61,1.61,0,1,1-1.6-1.6A1.61,1.61,0,0,1,148.23,150Z"/><path class="cls-5" d="M144.7,126.63a21.45,21.45,0,1,1-21.44-21.45A21.45,21.45,0,0,1,144.7,126.63Z"/><path class="cls-6" d="M142.55,126.63a19.3,19.3,0,1,1-19.29-19.3A19.29,19.29,0,0,1,142.55,126.63Z"/><path class="cls-4" d="M140.82,126.62a17.56,17.56,0,1,1-17.56-17.56A17.56,17.56,0,0,1,140.82,126.62Z"/><path class="cls-12" d="M125.7,140.79c0,.92-1.1,1.66-2.45,1.66s-2.44-.74-2.44-1.66,1.1-1.65,2.44-1.65S125.7,139.88,125.7,140.79Z"/><path class="cls-13" d="M123.26,129.48a31.79,31.79,0,0,0,17.45-4.84,17.56,17.56,0,0,0-34.9,0A31.79,31.79,0,0,0,123.26,129.48Z"/><path class="cls-12" d="M132.33,117.67c0,3.39-4.06,6.14-9.07,6.14s-9.08-2.75-9.08-6.14,4.07-6.14,9.08-6.14S132.33,114.28,132.33,117.67Z"/><rect class="cls-3" x="96.51" y="155.15" width="53.27" height="53.27" rx="0.8"/><path class="cls-6" d="M148.23,181.79a25,25,0,1,1-25-25A25,25,0,0,1,148.23,181.79Z"/><path class="cls-7" d="M101.3,158.23a1.61,1.61,0,1,1-1.6-1.61A1.61,1.61,0,0,1,101.3,158.23Z"/><path class="cls-7" d="M101.3,205.16a1.61,1.61,0,1,1-1.6-1.6A1.61,1.61,0,0,1,101.3,205.16Z"/><circle class="cls-7" cx="146.63" cy="158.23" r="1.6"/><path class="cls-7" d="M148.23,205.16a1.61,1.61,0,1,1-1.6-1.6A1.61,1.61,0,0,1,148.23,205.16Z"/><path class="cls-5" d="M144.7,181.79a21.45,21.45,0,1,1-21.44-21.45A21.45,21.45,0,0,1,144.7,181.79Z"/><path class="cls-6" d="M142.55,181.79a19.3,19.3,0,1,1-19.29-19.3A19.3,19.3,0,0,1,142.55,181.79Z"/><path class="cls-4" d="M140.82,181.79a17.56,17.56,0,1,1-17.56-17.56A17.57,17.57,0,0,1,140.82,181.79Z"/><path class="cls-13" d="M123.26,184.64a31.79,31.79,0,0,0,17.45-4.84,17.56,17.56,0,0,0-34.9,0A31.71,31.71,0,0,0,123.26,184.64Z"/><path class="cls-12" d="M132.33,172.84c0,3.39-4.06,6.13-9.07,6.13s-9.08-2.74-9.08-6.13,4.07-6.15,9.08-6.15S132.33,169.44,132.33,172.84Z"/><path class="cls-12" d="M125.7,196.08c0,.91-1.1,1.65-2.45,1.65s-2.44-.74-2.44-1.65,1.1-1.66,2.44-1.66S125.7,195.16,125.7,196.08Z"/><path class="cls-10" d="M86.62,43.15a1.53,1.53,0,0,0-1-1.88L68.66,36.34a1.51,1.51,0,0,0-1.88,1h0a1.51,1.51,0,0,0,1,1.87l16.93,4.94a1.53,1.53,0,0,0,1.88-1Z"/><path class="cls-10" d="M88,38.94a1.52,1.52,0,0,0,.08-2.14l-12-12.94A1.5,1.5,0,0,0,74,23.77h0a1.52,1.52,0,0,0-.09,2.14l12,12.94a1.5,1.5,0,0,0,2.13.09Z"/><path class="cls-10" d="M159,43.15a1.53,1.53,0,0,1,1-1.88L177,36.34a1.51,1.51,0,0,1,1.88,1h0a1.51,1.51,0,0,1-1,1.87l-16.93,4.94a1.52,1.52,0,0,1-1.88-1Z"/><path class="cls-10" d="M157.65,38.94a1.52,1.52,0,0,1-.09-2.14l12-12.94a1.5,1.5,0,0,1,2.13-.09h0a1.52,1.52,0,0,1,.08,2.14l-12,12.94a1.5,1.5,0,0,1-2.13.09Z"/><path class="cls-10" d="M86.62,95.67a1.51,1.51,0,0,1-1,1.87l-16.93,4.94a1.51,1.51,0,0,1-1.88-1h0a1.51,1.51,0,0,1,1-1.87l16.93-4.94a1.53,1.53,0,0,1,1.88,1Z"/><path class="cls-10" d="M88,99.88a1.52,1.52,0,0,1,.08,2.14L76.1,115a1.5,1.5,0,0,1-2.13.09h0a1.52,1.52,0,0,1-.09-2.14l12-12.94A1.5,1.5,0,0,1,88,99.88Z"/><path class="cls-10" d="M159,95.67a1.51,1.51,0,0,0,1,1.87L177,102.48a1.51,1.51,0,0,0,1.88-1h0a1.51,1.51,0,0,0-1-1.87l-16.93-4.94a1.52,1.52,0,0,0-1.88,1Z"/><path class="cls-10" d="M157.65,99.88a1.52,1.52,0,0,0-.09,2.14l12,12.94a1.5,1.5,0,0,0,2.13.09h0a1.52,1.52,0,0,0,.08-2.14l-12-12.94a1.5,1.5,0,0,0-2.13-.09Z"/></g></g></svg>