<svg xmlns="http://www.w3.org/2000/svg" viewBox="0 0 251.8 251.8"><defs><style>.cls-1{fill:none;stroke:#93d500;stroke-linecap:round;stroke-miterlimit:10;stroke-width:2px;stroke-dasharray:11.32 4.72 6.6 7.55 18.87 11.32;}.cls-2{fill:#fff;}.cls-3{fill:#be433c;}.cls-4{fill:#86a4c0;}.cls-5{fill:#253f54;}.cls-6{fill:#b5b3ba;}.cls-7{fill:#f4b683;}.cls-8{fill:#d56734;}.cls-9{fill:#a6bed8;}.cls-10{fill:#3e2c20;}.cls-11{fill:#dfdfef;}.cls-12{fill:#e9e200;}.cls-13{fill:#422719;}.cls-14{fill:#e38859;}.cls-15{fill:#3a3944;}.cls-16{fill:#001240;}.cls-17{fill:#040311;}.cls-18{fill:#ffc550;}.cls-19{fill:#eee;}.cls-20{fill:#b1ccea;}</style></defs><g id="Capa_2" data-name="Capa 2"><g id="Capa_1-2" data-name="Capa 1"><circle class="cls-1" cx="125.9" cy="125.9" r="124.9"/><path class="cls-2" d="M244,125.94a119.18,119.18,0,0,1-91,115.8c-2,.5-4,.9-6,1.3a117.13,117.13,0,0,1-20.7,2.1h-1.5c-1.5,0-3,0-4.5-.1a118.2,118.2,0,0,1-21.6-2.8,42.09,42.09,0,0,1-4.8-1.2,119.12,119.12,0,0,1-67.7-182.2,57.36,57.36,0,0,1,3.6-5c.9-1.3,1.9-2.6,2.9-3.8.8-1,1.6-1.9,2.4-2.8l3-3.3a15.93,15.93,0,0,1,1.3-1.3c1.6-1.7,3.3-3.3,5-5l.1-.1A119.36,119.36,0,0,1,244,125.94Z"/><polygon class="cls-3" points="174.93 83.33 181.55 69.61 171.62 72.45 196.69 33.17 158.84 78.6 173.04 75.28 172.09 89.01 174.93 83.33"/><polygon class="cls-3" points="182.84 109.58 195.87 101.68 185.99 98.65 228.41 79.36 171.92 96.85 185.63 101.8 177.37 112.8 182.84 109.58"/><ellipse class="cls-4" cx="162.81" cy="175.61" rx="5.67" ry="9.18" transform="translate(-20.44 329.77) rotate(-87.24)"/><ellipse class="cls-4" cx="165.1" cy="128.99" rx="5.67" ry="9.18" transform="translate(28.3 287.68) rotate(-87.24)"/><rect class="cls-4" x="140.48" y="143.27" width="46.97" height="18.35" transform="translate(3.79 308.87) rotate(-87.24)"/><ellipse class="cls-4" cx="27.47" cy="107.46" rx="9.18" ry="7.4" transform="translate(-82.17 90.69) rotate(-66.96)"/><ellipse class="cls-4" cx="83.61" cy="131.3" rx="9.18" ry="7.4" transform="translate(-69.94 156.85) rotate(-66.96)"/><rect class="cls-4" x="46.19" y="88.6" width="18.35" height="61.37" transform="translate(-76.08 123.56) rotate(-66.96)"/><path class="cls-4" d="M44.46,63.65l-6.82,43.69L20.58,104.5s6.7-35.65,4.88-43.41Z"/><path class="cls-5" d="M147,243a117.13,117.13,0,0,1-20.7,2.1l-1.2-4.3,25.7-8.2.3-.1,1.9,9.2C151,242.24,149,242.64,147,243Z"/><path class="cls-5" d="M121.52,240.84l-1.2,4.2a118.2,118.2,0,0,1-21.6-2.8,42.09,42.09,0,0,1-4.8-1.2l1.6-8,.1-.5Z"/><path class="cls-5" d="M151.12,219.54v9.2a25.61,25.61,0,0,1-.3,3.9A28.23,28.23,0,0,1,147,243a117.13,117.13,0,0,1-20.7,2.1h-1.5c-1.5,0-3,0-4.5-.1a118.2,118.2,0,0,1-21.6-2.8,26.51,26.51,0,0,1-3.2-9.2,22.82,22.82,0,0,1-.4-4.5v-9a1.79,1.79,0,0,1,1.8-1.8h52.4A1.79,1.79,0,0,1,151.12,219.54Z"/><path class="cls-6" d="M110.74,114.3s9.32-7.18,24.18-1.5-18.62,22.78-18.62,22.78Z"/><rect class="cls-7" x="114.08" y="96.69" width="18.69" height="29.33"/><path class="cls-8" d="M132.77,96.69h-16a24.23,24.23,0,0,0-2.07,1.55l-.62.53v18.11l.31.06a25.75,25.75,0,0,0,8.92-.3,37,37,0,0,0,9.46-2.75Z"/><path class="cls-9" d="M163.53,123.27l-24.69-7.63-12.42,9.57-4.08.58-4.08-.58-12.41-9.57-24.69,7.63,10.77,81.25s-4.49,9.2-.45,16.61c0,0,6.12,3.25,26.48,2.16v.08l1.07-.14c1.06-.06,2.16-.14,3.3-.23,1.14.09,2.24.17,3.3.23l1.08.14v-.08c20.36,1.09,26.48-2.16,26.48-2.16,4-7.41-.45-16.61-.45-16.61Z"/><polygon class="cls-4" points="123.76 126.63 111.28 112.26 105.91 116.52 111.76 141.17 123.76 126.63"/><polygon class="cls-4" points="122.97 126.63 135.46 112.26 140.83 116.52 134.98 141.17 122.97 126.63"/><path class="cls-10" d="M94.09,222l-.17,5.69c27.54,7.79,57.65.89,57.65.89v-5.53C109.05,229,94.09,222,94.09,222Z"/><path class="cls-11" d="M116.62,223.74v8.8h12.6v-8.8Zm10.7,7.4h-8.8V225h8.8Z"/><rect class="cls-5" x="134.45" y="223.85" width="2.11" height="8.22"/><rect class="cls-5" x="144.43" y="222.8" width="2.11" height="8.22"/><rect class="cls-5" x="107.35" y="223.64" width="2.11" height="8.22"/><rect class="cls-5" x="96.89" y="222.38" width="2.11" height="8.22"/><path class="cls-12" d="M118,223.29v.08l1.07-.14c1.06-.06,2.16-.14,3.3-.23,1.14.09,2.24.17,3.3.23l1.08.14v-.08c20.36,1.09,26.48-2.16,26.48-2.16,4-7.41-.45-16.61-.45-16.61l10.78-81.25L153,120a77.23,77.23,0,0,1-10.86,19.58c-10.39,13.11-30.21,13.76-41.14,1.1a24.51,24.51,0,0,1-5.78-20l-1.51-1.29-12.59,3.89,10.77,81.25s-4.49,9.2-.45,16.61C91.48,221.13,97.6,224.38,118,223.29Z"/><polygon class="cls-2" points="86.2 161.34 87.84 173.71 156.84 173.71 158.48 161.34 86.2 161.34"/><polygon class="cls-2" points="90.22 191.58 91.86 203.96 152.83 203.96 154.47 191.58 90.22 191.58"/><path class="cls-13" d="M107.28,46.7A18.77,18.77,0,0,0,100,55.26c-3.36,7.88-1.68,20.32,4.14,26.76,1.67,1.85,4,3.41,6.46,2.94a7.28,7.28,0,0,0,4.31-3.32c3.55-5.16,3.94-11.87,3.71-18.17-.1-2.71-.29-5.43-.33-8.15,0-2.33,1.72-7,.56-9.12-1.36-2.42-6.07-1.78-8.15-1.09A16.37,16.37,0,0,0,107.28,46.7Z"/><path class="cls-13" d="M130.14,42.26a14.52,14.52,0,0,1,9.4,9.75c2.8.16,4.7,2.91,5.73,5.52a27.9,27.9,0,0,1,1.7,13.8,14,14,0,0,1-2.06,6.13A11.87,11.87,0,0,1,138.26,82,18,18,0,0,1,122,78.1a24.23,24.23,0,0,1-7.83-15.19c-.68-5.1-.48-12.78,2.27-17.36C118.88,41.42,126.07,41,130.14,42.26Z"/><circle class="cls-7" cx="122.39" cy="66.57" r="18.65" transform="translate(14.05 154.17) rotate(-67.5)"/><circle class="cls-7" cx="122.39" cy="87.17" r="18.65" transform="translate(-4.98 166.89) rotate(-67.5)"/><rect class="cls-7" x="103.74" y="65.93" width="37.3" height="22.8"/><path class="cls-7" d="M145.54,78.26c-2.37-4.2-6,1.15-6,1.15l-1.18,9.86C144.57,87.88,147.91,82.46,145.54,78.26Z"/><path class="cls-14" d="M139.82,81.66s1.84-3.35,3.56-2.32,1.35,6.3-3.93,7.38Z"/><path class="cls-7" d="M98.55,78.26c2.38-4.2,6,1.15,6,1.15l1.19,9.86C99.52,87.88,96.18,82.46,98.55,78.26Z"/><path class="cls-14" d="M104.27,81.66s-1.83-3.35-3.56-2.32-1.35,6.3,3.94,7.38Z"/><path class="cls-15" d="M128.18,79a1.58,1.58,0,1,0,1.55-1.84A1.71,1.71,0,0,0,128.18,79Z"/><path class="cls-15" d="M115,79a1.57,1.57,0,1,1-1.55-1.83A1.7,1.7,0,0,1,115,79Z"/><path class="cls-8" d="M122.24,80.37a24.61,24.61,0,0,1,.07,3.09c0,1-.1,2.05-.19,3.06l-.07.76L122,88l0,.19v.17a1.82,1.82,0,0,0,0,.33,1.84,1.84,0,0,0,0,.33l0,.17a.25.25,0,0,0,0,.08l0,.08a5,5,0,0,0,1.61,2.38,3.26,3.26,0,0,1-.72-.31,2.46,2.46,0,0,1-.34-.22,2.51,2.51,0,0,1-.32-.25,3.72,3.72,0,0,1-1-1.34,3.63,3.63,0,0,1-.27-1.27V88c0-.26,0-.51,0-.77l.06-.77c.09-1,.23-2,.41-3.05A22.74,22.74,0,0,1,122.24,80.37Z"/><path class="cls-13" d="M126,75.79a4.69,4.69,0,0,1,2.24-4.53,5.62,5.62,0,0,1,2.55-.78,7.91,7.91,0,0,1,1.29.07,7.6,7.6,0,0,1,1.23.38c-.42.13-.82.2-1.21.29s-.77.19-1.13.31a9.15,9.15,0,0,0-2,.89,6.78,6.78,0,0,0-1.63,1.41A11.59,11.59,0,0,0,126,75.79Z"/><path class="cls-13" d="M109.91,70.66a4.72,4.72,0,0,1,5,.52,5.38,5.38,0,0,1,1.62,2.12,6.76,6.76,0,0,1,.39,1.23,9.26,9.26,0,0,1,.08,1.28,10.42,10.42,0,0,1-.7-1c-.25-.32-.45-.65-.69-1a9.12,9.12,0,0,0-1.53-1.57,7.21,7.21,0,0,0-1.89-1A12.4,12.4,0,0,0,109.91,70.66Z"/><path class="cls-16" d="M102,57.24s-19.4-6.81-5.93-15.16,20.63-12,26.11-11.21,34,10.07,30.94,21S111.22,64.76,102,57.24Z"/><path class="cls-17" d="M132.41,47.69c-18.81-6.26-35.52,4.64-37,6.2A31.94,31.94,0,0,0,102,57.24c7.68,6.28,36.06,5.87,47-.76C146.11,52.6,143.06,51.23,132.41,47.69Z"/><circle class="cls-18" cx="122.58" cy="39.86" r="5.41" transform="translate(73.69 159.13) rotate(-85.72)"/><path class="cls-19" d="M147.56,57.26c-2.62-2.64-6.22-4.08-15.09-7-15.79-5.25-30.1,1.59-35.14,4.84A34.08,34.08,0,0,0,102,57.24C109.38,63.26,135.78,63.13,147.56,57.26Z"/><path class="cls-16" d="M122.83,52.61s-23.09-.29-26,8,51.28,7.51,50.71,1.94C146.56,53.33,136.39,53.9,122.83,52.61Z"/><path class="cls-20" d="M134.6,53.66c-3.45-.41-7.43-.64-11.77-1h-.55l.18.93,3.62,12,.41,1.22A116.06,116.06,0,0,0,138.23,66Z"/><rect class="cls-16" x="125.99" y="151.28" width="27.37" height="8.42"/><path class="cls-7" d="M42.32,45.44l-.1,5.5V51L42,62.54a.91.91,0,0,1-.3.7v.2a1.61,1.61,0,0,1-1.1.5l-8.5-.2a1.7,1.7,0,0,1-.7-.1H31a.6.6,0,0,1-.4-.1.37.37,0,0,1-.3-.1,5.68,5.68,0,0,1-2.9-2c0-.1-.1-.2-.2-.3a4.4,4.4,0,0,1-1-2.3,57.36,57.36,0,0,1,3.6-5c.9-1.3,1.9-2.6,2.9-3.8.8-1,1.6-1.9,2.4-2.8l3-3.3,1.1.1h1.7A1.37,1.37,0,0,1,42.32,45.44Z"/><path class="cls-7" d="M45.82,56.74v1.1a.75.75,0,0,1-.1.5,7.16,7.16,0,0,1-1,2.9,5.14,5.14,0,0,1-2.7,2.1.37.37,0,0,1-.3.1,7.61,7.61,0,0,1-2.1.3l-8.2-.1H31a.6.6,0,0,1-.4-.1.37.37,0,0,1-.3-.1,1.43,1.43,0,0,1-.7-1.3v-.4l.2-7.9c.9-1.3,1.9-2.6,2.9-3.8l5.5.2h1.3a6,6,0,0,1,2.7.7V51a6,6,0,0,1,3,2.9A6.71,6.71,0,0,1,45.82,56.74Z"/><path class="cls-7" d="M53,52.7h0c.48,1,.34,2.14-.31,2.44l-7.77,3.58a1,1,0,0,1-.89,0,2.68,2.68,0,0,1-1.18-1.29h0c-.48-1-.34-2.14.32-2.45l7.77-3.58a1.28,1.28,0,0,1,1.34.36A2.79,2.79,0,0,1,53,52.7Z"/><path class="cls-7" d="M44.42,37.64l-2.1,13.2-.1.1V51a2.57,2.57,0,0,1-.5,1.2,2.2,2.2,0,0,1-1.8.7,2.12,2.12,0,0,1-1.7-2.3v-.5l1-6.1.2-1.4C41,40.94,42.72,39.34,44.42,37.64Z"/><path class="cls-7" d="M38.22,45.24a2.23,2.23,0,0,1-.3,1.4,2.27,2.27,0,0,1-1.6,1.1,1.46,1.46,0,0,1-1.2-.5l3-3.3Z"/><path class="cls-15" d="M119.88,96.69h4.76v4.24s2.91,2.61,0,5.21-7.67-1.53-4.76-4.73Z"/><path class="cls-8" d="M116.77,96.69c1-.12,2-.18,3-.23l1.48,0,1.47,0h1.48l1.48,0c1,.05,2,.11,3,.23-1,.13-2,.19-3,.23-.5,0-1,0-1.48,0l-1.48,0-1.47,0c-.49,0-1,0-1.48,0C118.74,96.88,117.75,96.82,116.77,96.69Z"/><path class="cls-15" d="M136,134.55a4.21,4.21,0,0,1-1.82-.42c-7.54-3.59-9.79-29.95-9.89-31.07a.49.49,0,1,1,1-.08c0,.27,2.3,26.91,9.33,30.26a3.71,3.71,0,0,0,3.89-.57c10.44-7.16,7.66-14.39,7.63-14.46a.49.49,0,0,1,.91-.37,9.15,9.15,0,0,1,.21,5c-.56,2.67-2.44,6.68-8.2,10.63A5.43,5.43,0,0,1,136,134.55Z"/><path class="cls-15" d="M109.23,134.55a5.43,5.43,0,0,1-3-1.07c-5.76-3.95-7.64-8-8.19-10.63a9.1,9.1,0,0,1,.2-5,.49.49,0,0,1,.64-.27.49.49,0,0,1,.27.64,8.31,8.31,0,0,0-.14,4.5c.77,3.56,3.46,7,7.77,10a3.71,3.71,0,0,0,3.89.57c7-3.35,9.31-30,9.33-30.26a.49.49,0,1,1,1,.08c-.09,1.12-2.35,27.48-9.89,31.07A4.21,4.21,0,0,1,109.23,134.55Z"/><path class="cls-7" d="M163.92,189.47l-14.52-4.68a2.51,2.51,0,0,1-1.7-3.09l8.89-27.59a2.51,2.51,0,0,1,3.19-1.51L182.59,160A2.51,2.51,0,0,1,184.3,163l-6.38,19.8a10.12,10.12,0,0,1-4.11,5.35A11.53,11.53,0,0,1,163.92,189.47Z"/><path class="cls-7" d="M164.81,189.58l-14-4.51a10.25,10.25,0,0,1-6.68-6.9,10.14,10.14,0,0,1,.08-6l.61-1.9a10.84,10.84,0,0,1,13.59-7l13.45,4.34a2.42,2.42,0,0,1,1.56,3L167.85,188A2.42,2.42,0,0,1,164.81,189.58Z"/><path class="cls-7" d="M191.87,148.94h0c-1.58-1.15-3.52-1.19-4.32-.09l-9.51,13a2,2,0,0,0-.3,1.62,4.22,4.22,0,0,0,1.71,2.47h0c1.57,1.15,3.52,1.19,4.32.1l9.51-13a2.39,2.39,0,0,0,0-2.51A4.65,4.65,0,0,0,191.87,148.94Z"/><path class="cls-7" d="M183.46,132h0a3.62,3.62,0,0,0-4.54,2.37l-7.67,22.87a3.79,3.79,0,0,0,0,2.33,3.51,3.51,0,0,0,2.22,2.3h0a3.64,3.64,0,0,0,4.54-2.38l7.66-22.86a3.73,3.73,0,0,0-.46-3.34A3.39,3.39,0,0,0,183.46,132Z"/><path class="cls-7" d="M177.31,124h0c-1.85-.62-4,.64-4.68,2.8L164,152.37a4.66,4.66,0,0,0-.11,2.58,3.43,3.43,0,0,0,2.16,2.47h0c1.85.62,3.95-.64,4.68-2.8l8.59-25.6a4.39,4.39,0,0,0-.35-3.68A3.26,3.26,0,0,0,177.31,124Z"/><path class="cls-7" d="M140.92,156.67h0c-1.8.76-2.87,2.31-2.39,3.44l5.7,13.38a1.77,1.77,0,0,0,1.18.95,4.55,4.55,0,0,0,3-.29h0c1.79-.77,2.87-2.31,2.39-3.44l-5.71-13.38a2.17,2.17,0,0,0-2.09-1.09A5.06,5.06,0,0,0,140.92,156.67Z"/><path class="cls-7" d="M163,123.39h0c-1.92-.34-3.92,1.8-4.43,4.74l-6.06,34.92a7.34,7.34,0,0,0,.15,3.33,3.36,3.36,0,0,0,2.41,2.62h0c1.93.34,3.92-1.8,4.43-4.74l6.06-34.92a6.63,6.63,0,0,0-.72-4.62A2.77,2.77,0,0,0,163,123.39Z"/></g></g></svg>