<svg xmlns="http://www.w3.org/2000/svg" xmlns:xlink="http://www.w3.org/1999/xlink" viewBox="0 0 251.8 251.8"><defs><style>.cls-1{fill:#fff;}.cls-2{fill:none;stroke:#93d500;stroke-linecap:round;stroke-miterlimit:10;stroke-width:2px;stroke-dasharray:11.32 4.72 6.6 7.55 18.87 11.32;}.cls-3{fill:url(#linear-gradient);}.cls-4{fill:url(#Degradado_sin_nombre_31);}.cls-5{fill:#740e1e;}.cls-6{fill:#3a070f;}.cls-7{fill:#e6332a;}</style><linearGradient id="linear-gradient" x1="27.7" y1="125.9" x2="221.54" y2="125.9" gradientUnits="userSpaceOnUse"><stop offset="0" stop-color="#ff928e"/><stop offset="1" stop-color="#fe7062"/></linearGradient><linearGradient id="Degradado_sin_nombre_31" x1="48.94" y1="117.98" x2="202.64" y2="117.98" gradientUnits="userSpaceOnUse"><stop offset="0" stop-color="#a5ca00"/><stop offset="0.39" stop-color="#ffd01f"/><stop offset="1" stop-color="#ff7543"/></linearGradient></defs><g id="Capa_2" data-name="Capa 2"><g id="Capa_1-2" data-name="Capa 1"><circle class="cls-1" cx="125.9" cy="125.9" r="119.26"/><circle class="cls-2" cx="125.9" cy="125.9" r="124.9"/><path class="cls-3" d="M124.62,29a96.93,96.93,0,1,0,96.92,96.92A97,97,0,0,0,124.62,29Zm0,187.72a90.78,90.78,0,1,1,45.72-12.34A90.47,90.47,0,0,1,124.62,216.7Z"/><path class="cls-4" d="M202.44,123.19c0-.24,0-.58-.08-1s-.07-.75-.11-1.14c-.09-.8-.18-1.67-.28-2.61-.29-1.75-.54-3.77-1.06-6a79.15,79.15,0,0,0-34.27-50,76.88,76.88,0,0,0-39.18-12.51l-1.81-.07h-1.81l-1.81,0h-.39l-.21,0-.42,0-.83,0c-2.06.1-4.84.37-7.23.73A75.32,75.32,0,0,0,63.88,79.78a73.17,73.17,0,0,0-14.7,50.11A71.76,71.76,0,0,0,64,168.3a74.48,74.48,0,0,0,10,10.5c1.57,1.26,2.91,2.44,4.21,3.31s2.31,1.7,3.24,2.24l2.77,1.74-2.63-1.93a69.69,69.69,0,0,1-16-17,68.25,68.25,0,0,1-8-16.4A68.33,68.33,0,0,1,58,106.53,66.11,66.11,0,0,1,90.49,69.77a63.68,63.68,0,0,1,23.9-6.61c1-.12,2-.1,2.94-.15s2.08,0,3.18,0H122c-.3,0,0,0-.07,0H122l1.51.1,1.49.1,1.49.17a63.13,63.13,0,0,1,11.46,2.37,62.42,62.42,0,0,1,32.8,23.94,60.78,60.78,0,0,1,7.37,14.37,60.14,60.14,0,0,1,2.91,12c.27,1.69.33,3.21.46,4.53,0,.6,0,1.16.05,1.67,0,.26,0,.5,0,.74s0,.44,0,.73c0,2.14,0,3.28,0,3.28l10.56-.27,10.55-.27Z"/><path class="cls-5" d="M136,125.9a11.16,11.16,0,0,1-.24,2.33c11.42-7,36.92-23.62,36.92-23.62S144,112.53,131,116.47A11.34,11.34,0,0,1,136,125.9Z"/><path class="cls-6" d="M136,125.9a11.36,11.36,0,1,0-.24,2.33A11.16,11.16,0,0,0,136,125.9Z"/><path class="cls-7" d="M171.06,147a1.06,1.06,0,0,1-.11.21.45.45,0,0,1-.24.15,2,2,0,0,1-.46.08c-.19,0-.44,0-.73,0a7,7,0,0,1-.73,0,1.83,1.83,0,0,1-.44-.08.34.34,0,0,1-.19-.15.31.31,0,0,1,0-.21l2.46-12.34h0L163.7,147a.78.78,0,0,1-.55.39,5.55,5.55,0,0,1-1.14.09,3.16,3.16,0,0,1-1.09-.13c-.23-.09-.34-.2-.35-.34l-1.78-12.36h0L156.29,147a.5.5,0,0,1-.1.21.53.53,0,0,1-.25.15,2,2,0,0,1-.45.08,8.9,8.9,0,0,1-1.46,0,1.73,1.73,0,0,1-.43-.08.33.33,0,0,1-.2-.15.26.26,0,0,1,0-.21l2.69-13.52a2,2,0,0,1,.18-.52,1.38,1.38,0,0,1,.31-.4,1.52,1.52,0,0,1,.41-.24,1.7,1.7,0,0,1,.51-.08h1.92a3.72,3.72,0,0,1,.88.09,1.42,1.42,0,0,1,.6.3,1.34,1.34,0,0,1,.35.55,3,3,0,0,1,.17.82l1.47,9h.06l5.2-9a6.11,6.11,0,0,1,.47-.79,2.5,2.5,0,0,1,.52-.55,1.83,1.83,0,0,1,.64-.32,2.9,2.9,0,0,1,.83-.1h2.18a1.46,1.46,0,0,1,.5.08.87.87,0,0,1,.34.24.84.84,0,0,1,.15.39,1.56,1.56,0,0,1,0,.52Z"/><path class="cls-7" d="M186.91,146.22a3.56,3.56,0,0,1,.05.67.41.41,0,0,1-.16.36.92.92,0,0,1-.52.15q-.36,0-1,0h-.73l-.44-.06a.38.38,0,0,1-.21-.15.57.57,0,0,1-.07-.25l-.41-3.05h-5.69l-1.57,3a1.43,1.43,0,0,1-.19.27.72.72,0,0,1-.3.17,3.12,3.12,0,0,1-.54.08c-.22,0-.5,0-.84,0s-.64,0-.84,0a.53.53,0,0,1-.39-.17.44.44,0,0,1,0-.38,5.31,5.31,0,0,1,.3-.66l7.36-13.45a2.44,2.44,0,0,1,.23-.32.8.8,0,0,1,.34-.19,2.62,2.62,0,0,1,.59-.08l1,0,1.1,0a3,3,0,0,1,.63.08.49.49,0,0,1,.29.19,1,1,0,0,1,.09.36Zm-4.6-11.13h0l-3.39,6.45h4.27Z"/><path class="cls-7" d="M197.57,139.55l2.32,6.62a3,3,0,0,1,.15.67.41.41,0,0,1-.14.39.92.92,0,0,1-.53.17c-.25,0-.6,0-1,0s-.58,0-.76,0a2.7,2.7,0,0,1-.44-.07.51.51,0,0,1-.23-.15,1,1,0,0,1-.11-.23L195,141.45,191.06,147a1.21,1.21,0,0,1-.22.23.87.87,0,0,1-.32.15,4.33,4.33,0,0,1-.53.07c-.23,0-.51,0-.86,0s-.74,0-1,0a.68.68,0,0,1-.45-.16c-.08-.09-.07-.22,0-.38a5.09,5.09,0,0,1,.41-.66l5-6.68L191,133.36a4.32,4.32,0,0,1-.15-.65.43.43,0,0,1,.14-.38,1,1,0,0,1,.54-.16,9.2,9.2,0,0,1,1,0c.33,0,.6,0,.79,0a1.58,1.58,0,0,1,.45.08.48.48,0,0,1,.24.16,1.16,1.16,0,0,1,.11.27l1.61,4.94,3.53-5a1.6,1.6,0,0,1,.21-.23,1.05,1.05,0,0,1,.3-.15,2,2,0,0,1,.5-.07c.21,0,.48,0,.83,0a8.63,8.63,0,0,1,1,0,.73.73,0,0,1,.48.16c.07.08.07.21,0,.38a3.58,3.58,0,0,1-.4.65Z"/></g></g></svg>