<svg xmlns="http://www.w3.org/2000/svg" xmlns:xlink="http://www.w3.org/1999/xlink" viewBox="0 0 290.64 251.8"><defs><style>.cls-1,.cls-4{fill:none;}.cls-2{isolation:isolate;}.cls-3{fill:#fff;}.cls-4{stroke:#93d500;stroke-linecap:round;stroke-miterlimit:10;stroke-width:2px;stroke-dasharray:11.32 4.72 6.6 7.55 18.87 11.32;}.cls-5{clip-path:url(#clip-path);}.cls-19,.cls-6{fill:#786584;}.cls-7{fill:#b26e61;}.cls-8{fill:#f9cd8c;}.cls-9{fill:#d8a079;}.cls-10{fill:#af939d;}.cls-11{fill:#d2cad6;}.cls-12{fill:#b7a1b6;}.cls-13{fill:#e1dee8;}.cls-14{fill:#d9d3de;}.cls-15{fill:#e8e8e8;}.cls-16{fill:#f7d254;}.cls-17{fill:#9d7a86;}.cls-18{fill:#b0949e;}.cls-19{mix-blend-mode:multiply;opacity:0.5;}.cls-20{fill:#3f413f;}.cls-21{fill:#202120;}.cls-22{fill:#91583a;}.cls-23{fill:#fae583;}.cls-24{fill:#ce925a;}.cls-25{fill:#6d422c;}.cls-26{fill:#f2e1bb;}.cls-27{fill:#ab9054;}.cls-28{fill:#2c6284;}.cls-29{fill:#402c44;}.cls-30{fill:#000100;}.cls-31{fill:#553303;}.cls-32{fill:#653e00;}.cls-33{fill:#59371a;}.cls-34{fill:#3476a2;}.cls-35{fill:#e9cd8d;}.cls-36{fill:#3a393a;}.cls-37{fill:#4d4c4d;}.cls-38{fill:#3987bd;}.cls-39{fill:#591029;}.cls-40{fill:#553c5e;}.cls-41{fill:#e96a78;}.cls-42{fill:#f29b9b;}.cls-43{fill:#cb4462;}.cls-44{fill:#ea6f80;}.cls-45{fill:#fad24a;}.cls-46{fill:#ba9037;}.cls-47{fill:#eb5e7e;}.cls-48{fill:#b2a0b7;}.cls-49{fill:#6e3334;}.cls-50{fill:#de4a6c;}.cls-51{fill:#b61e55;}.cls-52{fill:#a38dac;}</style><clipPath id="clip-path" transform="translate(19.42)"><circle class="cls-1" cx="125.9" cy="125.9" r="119.26"/></clipPath></defs><g class="cls-2"><g id="Capa_2" data-name="Capa 2"><g id="Capa_1-2" data-name="Capa 1"><circle class="cls-3" cx="145.32" cy="125.9" r="119.26"/><circle class="cls-4" cx="125.9" cy="125.9" r="124.9" transform="translate(-32.73 125.9) rotate(-45)"/><g class="cls-5"><polygon class="cls-6" points="256.24 91.49 256.24 87.51 251.24 95.78 251.24 99.83 256.24 91.49"/><polygon class="cls-7" points="283.04 122.23 244.07 143.97 219.32 162.33 167.19 186.85 116.99 214.84 116.99 211.18 288.03 112.45 283.04 122.23"/><polygon class="cls-8" points="5.49 154.36 20.95 164.41 48.92 173.01 54.25 182.65 52.88 177.25 48.99 167.14 20.84 158.71 3.09 148.36 5.49 154.36"/><polygon class="cls-9" points="96.44 195.52 54.25 182.65 52.88 177.25 95.61 189.58 96.44 195.52"/><polygon class="cls-8" points="116.99 214.84 96.44 195.52 95.61 189.58 116.99 211.18 116.99 214.84"/><polygon class="cls-10" points="95.61 189.58 52.88 177.25 52.88 173.3 95.61 185.63 95.61 189.58"/><polygon class="cls-11" points="95.61 185.63 95.61 189.58 105.1 199.17 105.1 195.22 95.61 185.63"/><polygon class="cls-12" points="290.64 107 116.99 207.23 95.61 185.63 52.89 173.3 48.99 163.19 20.84 154.76 17.88 153.06 13.61 150.6 0.16 142.86 176.1 41.14 185.48 46.58 187.03 50.45 188.64 54.45 192.1 63.06 223.89 69.22 256.24 87.51 251.24 95.78 281.9 102.13 290.64 107"/><polygon class="cls-7" points="255.11 93.33 255.11 96.58 253.4 96.23 255.11 93.33"/><polygon class="cls-6" points="290.64 110.97 116.99 211.18 116.99 202.91 290.64 102.68 290.64 110.97"/><polygon class="cls-13" points="105.1 190.91 105.1 199.17 107.91 202 107.91 193.74 105.1 190.91"/><polygon class="cls-14" points="116.99 202.91 107.91 193.74 107.91 202 116.99 211.18 116.99 202.91"/><polygon class="cls-15" points="105.1 190.91 268.72 96.47 274.39 97.64 107.91 193.74 105.1 190.91"/><polygon class="cls-11" points="274.39 97.64 107.91 193.74 116.99 202.91 290.57 102.72 285.63 99.97 274.39 97.64"/><polygon class="cls-11" points="48.99 163.19 20.84 154.76 9.06 147.98 9.06 151.93 20.84 158.71 48.99 167.14 52.88 177.25 52.88 173.3 48.99 163.19"/><polygon class="cls-14" points="0.16 138.67 0.16 146.81 6.02 150.18 6.02 142.04 0.16 138.67"/><polygon class="cls-13" points="6.02 142.04 6.02 150.18 9.06 151.93 9.06 143.79 6.02 142.04"/><polygon class="cls-6" points="185.08 42.19 9.06 143.75 9.06 147.98 185.08 46.43 185.08 42.19"/><polygon class="cls-11" points="176.18 37.12 0.16 138.67 6.02 142.04 182.04 40.49 176.18 37.12"/><polygon class="cls-3" points="101.63 191.72 263.38 98.29 257.1 96.99 98.53 188.58 101.63 191.72"/><polygon class="cls-3" points="188.64 54.45 17.88 153.06 13.61 150.6 187.03 50.45 188.64 54.45"/><polygon class="cls-16" points="78 154.85 56.6 167.28 60.76 169.8 82.16 157.38 78 154.85"/><polygon class="cls-16" points="124.31 128.12 102.91 140.55 107.08 143.07 128.48 130.65 124.31 128.12"/><polygon class="cls-16" points="170.63 101.39 149.23 113.82 153.39 116.34 174.79 103.92 170.63 101.39"/><polygon class="cls-16" points="216.95 74.67 195.55 87.09 199.71 89.61 221.11 77.19 216.95 74.67"/><path class="cls-12" d="M-13.4,142.2a.12.12,0,0,1-.08,0l-5.86-3.37a.16.16,0,0,1-.06-.22.17.17,0,0,1,.22-.06l5.86,3.37a.15.15,0,0,1,.06.22A.16.16,0,0,1-13.4,142.2Z" transform="translate(19.42)"/><path class="cls-12" d="M-7.11,138.58a1.59,1.59,0,0,1-.29-.15l-5.66-3.25a.17.17,0,0,1,0-.22c0-.07.35,0,.43.07L-7,138.28a.16.16,0,0,1,0,.22A.16.16,0,0,1-7.11,138.58Z" transform="translate(19.42)"/><path class="cls-12" d="M-.83,135s-.47-.25-.49-.26-5.46-3.14-5.45-3.15a.15.15,0,0,1,0-.21c0-.07.55.15.62.19l5.45,3.14a.15.15,0,0,1,0,.21A.16.16,0,0,1-.83,135Z" transform="translate(19.42)"/><path class="cls-12" d="M5.45,131.32s-.67-.37-.7-.38-5.24-3-5.24-3a.15.15,0,0,1,0-.2c0-.07.76.26.83.3l5.24,3a.17.17,0,0,1,0,.21A.16.16,0,0,1,5.45,131.32Z" transform="translate(19.42)"/><path class="cls-12" d="M11.74,127.69s-.89-.48-.91-.5-5-2.91-5-2.92a.13.13,0,0,1,0-.19,4.37,4.37,0,0,1,1,.43s5,2.9,5,2.92a.15.15,0,0,1,0,.2A.16.16,0,0,1,11.74,127.69Z" transform="translate(19.42)"/><path class="cls-12" d="M18,124.06s-1.09-.6-1.11-.61-4.84-2.8-4.83-2.81a.14.14,0,0,1,0-.19,6.57,6.57,0,0,1,1.23.55s4.83,2.79,4.82,2.81a.13.13,0,0,1,0,.19A.14.14,0,0,1,18,124.06Z" transform="translate(19.42)"/><path class="cls-12" d="M24.3,120.44s-1.3-.73-1.32-.74S18.36,117,18.37,117a.11.11,0,0,1,0-.18,12,12,0,0,1,1.42.67s4.63,2.68,4.62,2.7a.13.13,0,0,1,0,.19A.16.16,0,0,1,24.3,120.44Z" transform="translate(19.42)"/><path class="cls-12" d="M30.59,116.81s-1.51-.85-1.53-.86-4.42-2.56-4.41-2.58a.13.13,0,0,1,0-.18,14.36,14.36,0,0,1,1.63.8s4.42,2.56,4.41,2.58a.13.13,0,0,1,0,.18A.16.16,0,0,1,30.59,116.81Z" transform="translate(19.42)"/><path class="cls-12" d="M36.87,113.18s-1.71-1-1.73-1-4.22-2.44-4.21-2.47a.12.12,0,0,1,0-.17s1.78.89,1.84.92S37,112.93,37,113a.13.13,0,0,1,0,.18A.11.11,0,0,1,36.87,113.18Z" transform="translate(19.42)"/><path class="cls-12" d="M43.15,109.55l-1.93-1.09s-4-2.34-4-2.36a.12.12,0,0,1,0-.17c0-.05,2,1,2,1s4,2.34,4,2.36a.14.14,0,0,1,0,.18A.12.12,0,0,1,43.15,109.55Z" transform="translate(19.42)"/><path class="cls-12" d="M49.44,105.93s-2.13-1.21-2.15-1.22-3.8-2.22-3.79-2.24a.14.14,0,0,1,0-.17s2.19,1.14,2.24,1.17,3.8,2.21,3.79,2.24a.14.14,0,0,1,0,.17A.15.15,0,0,1,49.44,105.93Z" transform="translate(19.42)"/><path class="cls-12" d="M55.72,102.3S53.38,101,53.37,101s-3.6-2.1-3.58-2.13a.12.12,0,0,1,.05-.16s2.39,1.26,2.43,1.29,3.6,2.1,3.59,2.13a.14.14,0,0,1,0,.17A.17.17,0,0,1,55.72,102.3Z" transform="translate(19.42)"/><path class="cls-12" d="M62,98.67l-2.55-1.46s-3.4-2-3.38-2a.13.13,0,0,1,.06-.16s2.6,1.39,2.64,1.41,3.39,2,3.37,2a.11.11,0,0,1,0,.16A.13.13,0,0,1,62,98.67Z" transform="translate(19.42)"/><path class="cls-12" d="M68.29,95s-2.75-1.56-2.77-1.57-3.19-1.87-3.16-1.91a.1.1,0,0,1,.07-.14s2.79,1.5,2.84,1.53,3.18,1.87,3.16,1.9a.12.12,0,0,1,0,.16A.11.11,0,0,1,68.29,95Z" transform="translate(19.42)"/><path class="cls-12" d="M74.57,91.42l-3-1.7s-3-1.76-3-1.79a.11.11,0,0,1,.08-.14s3,1.63,3,1.65,3,1.76,3,1.8a.12.12,0,0,1,0,.15A.2.2,0,0,1,74.57,91.42Z" transform="translate(19.42)"/><path class="cls-12" d="M80.86,87.79S77.69,86,77.68,86s-2.78-1.64-2.76-1.68a.11.11,0,0,1,.09-.13s3.21,1.75,3.25,1.77S81,87.57,81,87.62a.12.12,0,0,1-.05.14A.1.1,0,0,1,80.86,87.79Z" transform="translate(19.42)"/><path class="cls-12" d="M87.14,84.16s-3.37-1.93-3.39-1.93-2.57-1.53-2.54-1.57a.11.11,0,0,1,.1-.13s3.41,1.88,3.44,1.9S87.32,84,87.3,84a.11.11,0,0,1-.06.14A.11.11,0,0,1,87.14,84.16Z" transform="translate(19.42)"/><path class="cls-12" d="M93.42,80.53l-3.59-2S87.47,77.07,87.49,77a.12.12,0,0,1,.11-.12s3.62,2,3.65,2,2.36,1.41,2.34,1.46a.12.12,0,0,1-.06.13A.14.14,0,0,1,93.42,80.53Z" transform="translate(19.42)"/><path class="cls-12" d="M99.71,76.9l-3.8-2.17s-2.16-1.29-2.13-1.34a.12.12,0,0,1,.12-.12s3.82,2.13,3.84,2.14,2.16,1.3,2.14,1.35a.15.15,0,0,1-.07.13A.12.12,0,0,1,99.71,76.9Z" transform="translate(19.42)"/><path class="cls-12" d="M106,73.28,102,71c-.06,0-2-1.18-1.93-1.23a.13.13,0,0,1,.13-.11s4,2.25,4,2.27,2,1.18,1.92,1.23a.13.13,0,0,1-.07.13A.17.17,0,0,1,106,73.28Z" transform="translate(19.42)"/><path class="cls-12" d="M112.27,69.65l-4.21-2.41s-1.75-1.07-1.71-1.12a.12.12,0,0,1,.14-.11s4.22,2.38,4.25,2.39,1.74,1.07,1.71,1.12a.13.13,0,0,1-.08.12A.11.11,0,0,1,112.27,69.65Z" transform="translate(19.42)"/><path class="cls-12" d="M118.56,66l-4.42-2.53a14.68,14.68,0,0,1-1.51-1,.13.13,0,0,1,.15-.1s4.43,2.5,4.45,2.51a15.23,15.23,0,0,1,1.51,1,.14.14,0,0,1-.18.12Z" transform="translate(19.42)"/><path class="cls-12" d="M124.84,62.39l-4.62-2.65a11.1,11.1,0,0,1-1.31-.89.14.14,0,0,1,.16-.1s4.64,2.63,4.66,2.64a10.19,10.19,0,0,1,1.3.89.13.13,0,0,1-.1.11A.1.1,0,0,1,124.84,62.39Z" transform="translate(19.42)"/><path class="cls-12" d="M131.12,58.77,126.29,56a7.29,7.29,0,0,1-1.09-.79.13.13,0,0,1,.17-.08s4.84,2.74,4.85,2.75a7.58,7.58,0,0,1,1.1.78.14.14,0,0,1-.11.11Z" transform="translate(19.42)"/><path class="cls-12" d="M137.41,55.14l-5-2.89a5.44,5.44,0,0,1-.89-.67.14.14,0,0,1,.18-.08s5.05,2.87,5.06,2.88a4.57,4.57,0,0,1,.89.66.17.17,0,0,1-.11.11Z" transform="translate(19.42)"/><path class="cls-12" d="M143.69,51.51l-5.24-3c-.07,0-.72-.49-.68-.56a.14.14,0,0,1,.19-.07l5.25,3c.07,0,.73.49.69.56a.16.16,0,0,1-.12.09A.14.14,0,0,1,143.69,51.51Z" transform="translate(19.42)"/><path class="cls-12" d="M150,47.88l-5.44-3.13c-.08,0-.52-.37-.48-.44a.14.14,0,0,1,.2-.07s5.46,3.12,5.46,3.12.52.38.47.45a.16.16,0,0,1-.12.09A.15.15,0,0,1,150,47.88Z" transform="translate(19.42)"/><path class="cls-12" d="M156.26,44.26,150.6,41c-.07,0-.31-.26-.26-.34a.16.16,0,0,1,.21-.06l5.66,3.25c.07,0,.31.25.26.33a.13.13,0,0,1-.13.08A.11.11,0,0,1,156.26,44.26Z" transform="translate(19.42)"/><path class="cls-12" d="M162.62,40.65l-.08,0-5.86-3.37a.16.16,0,0,1-.06-.22.16.16,0,0,1,.22-.06l5.86,3.37a.15.15,0,0,1,.06.22A.16.16,0,0,1,162.62,40.65Z" transform="translate(19.42)"/><polygon class="cls-15" points="185.08 42.19 9.06 143.75 6.02 142.04 182.04 40.49 185.08 42.19"/><path class="cls-12" d="M101.58,200.76l-.08,0L89,193.54a.18.18,0,0,1-.06-.22.16.16,0,0,1,.22-.06l12.49,7.2a.15.15,0,0,1,.06.22A.16.16,0,0,1,101.58,200.76Z" transform="translate(19.42)"/><path class="cls-12" d="M116.25,192.29a.11.11,0,0,1-.08,0l-12.49-7.2a.16.16,0,0,1-.06-.22.17.17,0,0,1,.22-.06l12.49,7.2a.16.16,0,0,1-.08.3Z" transform="translate(19.42)"/><path class="cls-12" d="M130.91,183.83l-.08,0-12.48-7.2a.15.15,0,0,1-.06-.22.16.16,0,0,1,.22-.06l12.49,7.2a.16.16,0,0,1-.09.3Z" transform="translate(19.42)"/><path class="cls-12" d="M145.58,175.36a.11.11,0,0,1-.08,0L133,168.15a.16.16,0,0,1-.06-.22.15.15,0,0,1,.22-.06l12.48,7.19a.17.17,0,0,1,.06.22A.17.17,0,0,1,145.58,175.36Z" transform="translate(19.42)"/><path class="cls-12" d="M160.24,166.9l-.08,0-12.48-7.2a.17.17,0,0,1-.06-.22.16.16,0,0,1,.22-.05l12.48,7.19a.15.15,0,0,1,.06.22A.16.16,0,0,1,160.24,166.9Z" transform="translate(19.42)"/><path class="cls-12" d="M174.91,158.43a.12.12,0,0,1-.08,0l-12.48-7.19a.16.16,0,0,1,0-.22.17.17,0,0,1,.22-.06L175,158.13a.16.16,0,0,1,.06.22A.16.16,0,0,1,174.91,158.43Z" transform="translate(19.42)"/><path class="cls-12" d="M189.58,150l-.08,0L177,142.76a.16.16,0,0,1-.06-.22.16.16,0,0,1,.22-.06l12.48,7.19a.17.17,0,0,1,.06.22A.17.17,0,0,1,189.58,150Z" transform="translate(19.42)"/><path class="cls-12" d="M204.24,141.5a.11.11,0,0,1-.08,0l-12.47-7.18a.17.17,0,0,1-.06-.22.15.15,0,0,1,.22-.06l12.47,7.18a.17.17,0,0,1,.06.22A.16.16,0,0,1,204.24,141.5Z" transform="translate(19.42)"/><path class="cls-12" d="M218.9,133l-.08,0-12.46-7.18a.17.17,0,0,1-.06-.23.16.16,0,0,1,.22,0L219,132.74a.15.15,0,0,1,.06.22A.16.16,0,0,1,218.9,133Z" transform="translate(19.42)"/><path class="cls-12" d="M233.57,124.57a.11.11,0,0,1-.08,0L221,117.37a.15.15,0,0,1-.06-.22.16.16,0,0,1,.22-.06l12.46,7.18a.17.17,0,0,1,.06.22A.15.15,0,0,1,233.57,124.57Z" transform="translate(19.42)"/><path class="cls-12" d="M248.24,116.11l-.08,0-12.46-7.18a.15.15,0,0,1-.06-.22.16.16,0,0,1,.22-.06l12.46,7.18a.17.17,0,0,1,.06.22A.17.17,0,0,1,248.24,116.11Z" transform="translate(19.42)"/><path class="cls-12" d="M262.9,107.64a.12.12,0,0,1-.08,0l-12.46-7.18a.17.17,0,0,1-.06-.22.18.18,0,0,1,.22-.06L263,107.34a.17.17,0,0,1,.06.22A.14.14,0,0,1,262.9,107.64Z" transform="translate(19.42)"/><polygon class="cls-6" points="108.75 112.09 112.86 111.31 108.77 107.86 109.26 106.41 110.17 107.68 111.14 106.81 116.95 108.08 112.07 108.03 115.31 109.9 119.13 109.56 125.11 105.88 126.12 97.29 139.78 94.17 128.16 98.47 129.44 106.56 123.89 110.21 128.77 111.67 132.7 110.27 142.85 113.08 133.11 112.34 129.93 114.18 121.24 112.83 114.7 112.55 112.2 114.08 119.61 114.69 114.32 120.69 117.58 124.49 108.58 128.15 104.64 133.6 106.63 126.09 113.52 124.41 111.3 119.96 115.33 116.25 111.02 117.2 98.41 116.47 94.81 120.2 97.09 115.7 107.25 115.62 100.04 114 97.73 110.5 101.38 113.22 105.41 113.19 108.38 114.76 108.75 112.09"/><polygon class="cls-6" points="124.53 99 124.64 96.17 127.45 95.27 124.43 90.64 126.09 94.85 123.23 95.78 123.75 98.07 123.17 99 124.58 101.37 123.96 98.97 124.53 99"/><polygon class="cls-6" points="122.02 113.77 127.03 115.16 129.37 118.41 133.8 119.07 128.28 119.13 126.22 116.32 122.74 115.93 122.02 113.77"/><polygon class="cls-6" points="121.02 114.94 121.64 117.73 119.54 119.49 121.07 120.37 119.15 122.33 119.77 120.61 117.27 119.62 120.55 117.55 121.02 114.94"/><polygon class="cls-17" points="111.02 117.2 106.91 116.96 107.25 115.62 102.86 114.63 105.41 114.61 108.38 116.18 108.75 113.51 112.86 112.73 112.86 111.31 110.2 109.07 111.18 107.63 114.09 108.05 112.07 108.03 112.07 109.45 115.31 111.32 119.13 110.98 125.11 107.31 126.12 98.71 129.7 97.89 128.16 98.47 128.16 99.89 129.24 106.7 123.89 110.21 123.89 111.63 128.77 113.09 132.7 111.69 140.34 113.06 133.11 112.34 129.93 114.18 121.24 112.83 114.7 112.55 112.2 114.08 112.2 115.5 118.44 116.01 114.32 120.69 114.32 122.12 116.68 124.86 108.58 128.15 104.64 133.6 106.63 127.52 113.52 125.83 113.52 124.41 111.79 120.94 115.33 117.67 115.33 116.25 111.02 117.2"/><polygon class="cls-17" points="97.78 117.12 95.58 119.4 97.09 117.13 97.78 117.12"/><polygon class="cls-17" points="100.04 114 98.44 111.55 100.72 114.15 100.04 114"/><polygon class="cls-17" points="126.09 94.85 125.86 94.26 126.68 95.52 125.89 95.77 126.09 94.85"/><polygon class="cls-17" points="124.53 99 123.96 98.97 124 100.39 123.61 99.72 123.75 99.49 123.75 98.07 123.53 97.11 124.62 96.75 124.53 99"/><path class="cls-18" d="M107.25,102.93c-.07-.26.11-1.11.56-.84.17.1.18.49.24.67s.22.54.3.83a2.73,2.73,0,0,1,.13,1c0,.12-.5.81-.66.57-.3-.42-.12-1-.26-1.51C107.48,103.42,107.32,103.19,107.25,102.93Z" transform="translate(19.42)"/><path class="cls-18" d="M94.55,118.9c.18-.2,1-.52,1,0,0,.2-.31.42-.43.57s-.33.48-.52.7a3,3,0,0,1-.78.68c-.11.05-1,0-.85-.24.2-.48.78-.65,1.12-1C94.27,119.36,94.37,119.1,94.55,118.9Z" transform="translate(19.42)"/><path class="cls-18" d="M94.3,110.89c.23.21.43.64.11.73-.13,0-.25-.1-.31-.23a.77.77,0,0,1-.14-.34C93.93,110.69,94.13,110.72,94.3,110.89Z" transform="translate(19.42)"/><path class="cls-18" d="M110.34,113.68a.74.74,0,0,1-.12.17.17.17,0,0,1-.19,0c-.07,0-.06-.17,0-.25a1.14,1.14,0,0,1,.79-.6c.2-.06.41-.09.61-.14a2.78,2.78,0,0,1,.52-.2c.24,0,.22.12.08.33C111.63,113.61,110.77,113,110.34,113.68Z" transform="translate(19.42)"/><path class="cls-18" d="M104.57,109.43a1,1,0,0,0-.75.58,1.24,1.24,0,0,1-.12.23.21.21,0,0,1-.23.06.25.25,0,0,1-.09-.21,1,1,0,0,1,.57-.89c.36-.16.8-.09,1.15-.28.12-.06.42-.36.57-.27s0,.32,0,.42C105.42,109.47,105,109.35,104.57,109.43Z" transform="translate(19.42)"/><path class="cls-18" d="M97.25,117.33a.4.4,0,0,0-.1.39s0,.07,0,.11a.08.08,0,0,1-.06.08.1.1,0,0,1-.08,0,.43.43,0,0,1,0-.45c.08-.15.25-.24.32-.39s0-.24.12-.25.1.1.11.15C97.55,117.12,97.36,117.2,97.25,117.33Z" transform="translate(19.42)"/><path class="cls-18" d="M95,124.39a.45.45,0,0,1,.4-.1s.07,0,.1,0,.08,0,.08-.06,0-.06,0-.08a.43.43,0,0,0-.45,0c-.15.08-.25.24-.4.31s-.24,0-.25.12.09.1.15.11S94.84,124.5,95,124.39Z" transform="translate(19.42)"/><path class="cls-18" d="M101.6,111.82a.21.21,0,0,1-.08.22.2.2,0,0,1-.24,0c-.08-.06-.1-.17-.14-.26a1.57,1.57,0,0,1-.12-.3c0-.19.07-.36.27-.27S101.56,111.67,101.6,111.82Z" transform="translate(19.42)"/><path class="cls-18" d="M104.55,98.12a.54.54,0,0,1,.1-.49c.08-.09.23-.14.29,0a.18.18,0,0,1,0,.19l0,.27c0,.09-.07.21-.17.2S104.57,98.18,104.55,98.12Z" transform="translate(19.42)"/><path class="cls-18" d="M90.71,115.2a.54.54,0,0,1-.16.48c-.08.08-.24.11-.28,0s0-.13.06-.18l.09-.26c0-.09.09-.21.18-.18S90.7,115.14,90.71,115.2Z" transform="translate(19.42)"/><path class="cls-18" d="M107.51,99.92a.55.55,0,0,1-.26.44c-.1,0-.26,0-.28-.06a.18.18,0,0,1,.11-.17l.13-.23c.05-.09.14-.19.23-.14S107.51,99.86,107.51,99.92Z" transform="translate(19.42)"/><path class="cls-18" d="M87.05,129l.13-.58s0,0,0,0,.11,0,.12,0a.19.19,0,0,1,0,.07.35.35,0,0,0,0,.37.35.35,0,0,1,0,.08.2.2,0,0,1-.06.18c0,.06-.13.13-.21.1S87,129.11,87.05,129Z" transform="translate(19.42)"/><path class="cls-18" d="M107.47,106.6l1,.07-.05.06a.12.12,0,0,1,0,.21.15.15,0,0,1-.13,0,.64.64,0,0,0-.63.14.45.45,0,0,1-.13.11.37.37,0,0,1-.32,0c-.12-.07-.26-.19-.23-.33S107.29,106.59,107.47,106.6Z" transform="translate(19.42)"/><path class="cls-19" d="M79.68,106.31a6.18,6.18,0,0,0,4.35-.82c2-1.1,3.31-2.07,3.21-3.35s-3.65-3.35-7.56-1.77S78.66,106.12,79.68,106.31Z" transform="translate(19.42)"/><path class="cls-20" d="M76.1,100.64a3.88,3.88,0,0,0-.45.54,2.39,2.39,0,0,0-.13.21c-.06.12-.14.28-.19.4a2.2,2.2,0,0,0-.12.44c0,.13,0,.3,0,.44v.22a2.6,2.6,0,0,0,1.66,2,8,8,0,0,0,7.23-.52,2.54,2.54,0,0,0,1.34-2.18,2.83,2.83,0,0,0-.94-1.86,3.17,3.17,0,0,0-.51-.39,5.11,5.11,0,0,0-.57-.33c-.18-.07-.42-.18-.63-.25l-.65-.17-.34-.06c-.16,0-.56-.07-.69-.08h-.35l-.69,0a7,7,0,0,0-1.39.22,6.6,6.6,0,0,0-.68.22c-.38.14-.62.27-.67.29a4.54,4.54,0,0,0-.61.38A3.53,3.53,0,0,0,76.1,100.64Z" transform="translate(19.42)"/><path class="cls-20" d="M75.32,103.83c.05.12.11.28.17.39a2.84,2.84,0,0,0,.22.34,3,3,0,0,0,.62.64l.3.22.52.29a5.8,5.8,0,0,0,1.33.45,7.3,7.3,0,0,0,1.38.16,8.08,8.08,0,0,0,1.39-.1,8.65,8.65,0,0,0,1.38-.36c.24-.1.38-.16.66-.3a6.16,6.16,0,0,0,.55-.33,4.54,4.54,0,0,0,.82-.71,3,3,0,0,0,.39-.56,1.84,1.84,0,0,0,.19-.4,2.23,2.23,0,0,0,.13-.44,3.13,3.13,0,0,0,0-.43,1.61,1.61,0,0,0,0-.22,2.54,2.54,0,0,1-1.34,2.18,8,8,0,0,1-7.23.52,2.58,2.58,0,0,1-1.66-2A3,3,0,0,0,75.32,103.83Z" transform="translate(19.42)"/><path class="cls-21" d="M76.88,105.37h0a2.88,2.88,0,0,1-1.54-1.49,2.21,2.21,0,0,0,.12.27l.14.26a3.42,3.42,0,0,0,1.33,1.09h0c2.91,1.31,7.06.42,8.22-1.75a3.23,3.23,0,0,0,.2-.57C84.71,105.62,80.11,106.81,76.88,105.37Z" transform="translate(19.42)"/><path class="cls-21" d="M76.37,105.23l.18.13.08.06,0,0Z" transform="translate(19.42)"/><path class="cls-21" d="M76.76,105.49h0l.31.18,0,0Z" transform="translate(19.42)"/><path class="cls-21" d="M77.53,105.85a3.05,3.05,0,0,1-.32-.13s0,0,0,0l.07,0,.24.1h0S77.54,105.88,77.53,105.85Z" transform="translate(19.42)"/><path class="cls-21" d="M77.71,105.91l0,0,.08,0,.24.07h0s0,0,0,0Z" transform="translate(19.42)"/><path class="cls-21" d="M78.25,106.06s0,0,0,0h0l.18,0,.11,0s0,0,0,0Z" transform="translate(19.42)"/><path class="cls-21" d="M78.82,106.17l0,0,.35,0s0,0,.07,0Z" transform="translate(19.42)"/><path class="cls-21" d="M79.4,106.23a.21.21,0,0,1-.08.06h.36s0,0,.11-.06Z" transform="translate(19.42)"/><path class="cls-21" d="M80,106.25l0,0a.26.26,0,0,1-.1,0h.37a.21.21,0,0,0,.15-.07Z" transform="translate(19.42)"/><path class="cls-21" d="M80.59,106.23a.36.36,0,0,1-.17.08h.14l.22,0a.41.41,0,0,0,.2-.09Z" transform="translate(19.42)"/><path class="cls-21" d="M81.18,106.16a.46.46,0,0,1-.2.1l.25,0h0l.11,0a.53.53,0,0,0,.21-.11l-.39.07Z" transform="translate(19.42)"/><path class="cls-21" d="M81.77,106.05l0,0a.45.45,0,0,1-.18.07l.12,0,.16,0,.08,0a.76.76,0,0,0,.24-.12Z" transform="translate(19.42)"/><path class="cls-21" d="M82.33,105.9l0,0a.5.5,0,0,1-.21.1l.36-.11a.68.68,0,0,0,.25-.14Z" transform="translate(19.42)"/><path class="cls-21" d="M82.78,105.78l-.15.08h0l.09,0,.25-.11h0a1.09,1.09,0,0,0,.23-.14l-.34.14Z" transform="translate(19.42)"/><path class="cls-21" d="M83.24,105.58l-.07,0,.08,0,.2-.11.11-.06.13-.1c-.09.06-.22.12-.31.17Z" transform="translate(19.42)"/><path class="cls-21" d="M83.7,105.32l.14-.09.16-.11h0l.11-.09a2.75,2.75,0,0,1-.28.19Z" transform="translate(19.42)"/><path class="cls-21" d="M84.2,105h0l.14-.12,0,0,.09-.08,0,0a2.29,2.29,0,0,1-.23.21A.12.12,0,0,1,84.2,105Z" transform="translate(19.42)"/><path class="cls-21" d="M84.05,104.37a8,8,0,0,1-7.23.52,2.6,2.6,0,0,1-1.66-2l0,.28a2.58,2.58,0,0,0,1.66,2,8,8,0,0,0,7.23-.52,2.54,2.54,0,0,0,1.34-2.18l0-.28A2.54,2.54,0,0,1,84.05,104.37Z" transform="translate(19.42)"/><path class="cls-21" d="M85.05,101.08a1.07,1.07,0,0,1,.07.15Z" transform="translate(19.42)"/><path class="cls-21" d="M76.85,104.5c-1.39-.71-1.88-1.62-1.5-2.76h0a3.3,3.3,0,0,0-.12.38c-.32,1.5,1.13,2.26,1.6,2.51,3.42,1.63,9.34-.13,8.4-3.18l0,0a1.07,1.07,0,0,0-.09-.19,1.11,1.11,0,0,1,.07.16C86.06,103.89,80.89,106.3,76.85,104.5Z" transform="translate(19.42)"/><path class="cls-21" d="M77.6,103.85l-.28-.12-.25.19L77,104a1.83,1.83,0,0,0,0,.32l.31.13a3.43,3.43,0,0,1,0-.39Z" transform="translate(19.42)"/><path class="cls-21" d="M78.06,104l-.3-.09-.3.26a1.89,1.89,0,0,0,.06.39l.33.1c0-.16-.06-.27-.08-.38Z" transform="translate(19.42)"/><path class="cls-21" d="M78.54,104.1l-.32-.07-.28.29c0,.16.06.27.09.38l.35.07a3,3,0,0,1-.1-.37Z" transform="translate(19.42)"/><path class="cls-21" d="M78.71,104.13c-.11.12-.18.22-.26.31s.08.26.12.37l.36,0a3.38,3.38,0,0,1-.13-.37l.23-.31Z" transform="translate(19.42)"/><path class="cls-21" d="M79.21,104.2l-.23.32c0,.15.1.25.14.36l.37,0c-.07-.14-.11-.25-.16-.35l.21-.33Z" transform="translate(19.42)"/><path class="cls-21" d="M79.52,104.56c.06.14.12.25.17.35h.37c-.08-.13-.13-.24-.18-.33l.17-.35h-.33Z" transform="translate(19.42)"/><path class="cls-21" d="M80.57,104.19l-.34,0c-.06.14-.11.24-.16.34s.14.25.19.34l.38,0c-.09-.13-.15-.23-.21-.33Z" transform="translate(19.42)"/><path class="cls-21" d="M81.21,104.8l-.24-.31c0-.15.08-.26.11-.36l-.33,0c0,.15-.09.26-.13.36l.21.32Z" transform="translate(19.42)"/><path class="cls-21" d="M81.76,104.69l-.25-.29a2.54,2.54,0,0,0,.07-.37l-.32.07-.1.36.24.31Z" transform="translate(19.42)"/><path class="cls-21" d="M82.3,104.54l-.27-.27a3.39,3.39,0,0,0,0-.37l-.32.09a2.44,2.44,0,0,1-.06.36l.26.29Z" transform="translate(19.42)"/><path class="cls-21" d="M82.82,104.36l-.29-.26c0-.15,0-.27,0-.37l-.31.11a3.57,3.57,0,0,1,0,.37l.27.27Z" transform="translate(19.42)"/><path class="cls-21" d="M83.31,104.14l-.3-.24a1.82,1.82,0,0,0,0-.37l-.28.14a2.4,2.4,0,0,1,0,.37c.13.1.22.19.29.25Z" transform="translate(19.42)"/><path class="cls-21" d="M83.76,103.89l-.31-.22a2.45,2.45,0,0,0-.07-.37l-.26.16a2.93,2.93,0,0,1,0,.37l.3.23Z" transform="translate(19.42)"/><path class="cls-21" d="M84.16,103.6l-.3-.2a2.32,2.32,0,0,0-.12-.35l-.23.17a2.35,2.35,0,0,1,.09.36l.3.21Z" transform="translate(19.42)"/><path class="cls-21" d="M84.2,103.12a2,2,0,0,0-.15-.35l-.19.18a3,3,0,0,1,.12.36,2.12,2.12,0,0,1,.3.18l.22-.2Z" transform="translate(19.42)"/><path class="cls-21" d="M84.48,102.82a1.81,1.81,0,0,0-.19-.33l-.15.18a2.48,2.48,0,0,1,.16.35,1.87,1.87,0,0,1,.3.17l.17-.21Z" transform="translate(19.42)"/><path class="cls-21" d="M84.69,102.51a1.77,1.77,0,0,0-.22-.32l-.11.2a2.61,2.61,0,0,1,.2.32l.28.15.13-.21A2.43,2.43,0,0,0,84.69,102.51Z" transform="translate(19.42)"/><path class="cls-21" d="M84.84,102.19a2.08,2.08,0,0,0-.25-.3l-.07.2a2.21,2.21,0,0,1,.23.31,1.62,1.62,0,0,1,.27.14l.08-.22A1.58,1.58,0,0,0,84.84,102.19Z" transform="translate(19.42)"/><path class="cls-21" d="M84.93,101.87a2.46,2.46,0,0,0-.27-.28l0,.2a1.6,1.6,0,0,1,.26.29l.25.12,0-.22A1.28,1.28,0,0,0,84.93,101.87Z" transform="translate(19.42)"/><path class="cls-21" d="M85,101.55a1.65,1.65,0,0,0-.29-.26v.2a2.67,2.67,0,0,1,.29.27,1.69,1.69,0,0,1,.23.11v-.22A.88.88,0,0,0,85,101.55Z" transform="translate(19.42)"/><path class="cls-21" d="M85.11,101.32h0a.84.84,0,0,0-.2-.08,2.4,2.4,0,0,0-.31-.24h0l0,.18a3.46,3.46,0,0,1,.31.26.83.83,0,0,1,.21.1h0Z" transform="translate(19.42)"/><path class="cls-21" d="M84.48,100.7h0l.08.18h0a1.7,1.7,0,0,1,.3.23.43.43,0,0,1,.19.08h0L85,101h0a.77.77,0,0,0-.17-.07A2.08,2.08,0,0,0,84.48,100.7Z" transform="translate(19.42)"/><path class="cls-21" d="M84.3,100.42l.12.18h0a2,2,0,0,1,.32.2.38.38,0,0,1,.17.08l-.14-.2a.37.37,0,0,0-.14-.07A2.67,2.67,0,0,0,84.3,100.42Z" transform="translate(19.42)"/><path class="cls-21" d="M84.23,100.33h0a1.77,1.77,0,0,1,.33.19l.13.06-.09-.09-.07-.07,0,0a.3.3,0,0,0-.1,0,1.92,1.92,0,0,0-.34-.18Z" transform="translate(19.42)"/><path class="cls-21" d="M84,100.07h0a1.68,1.68,0,0,1,.33.16.12.12,0,0,1,.08,0l0,0-.17-.14,0,0,0,0a1.36,1.36,0,0,0-.34-.15Z" transform="translate(19.42)"/><path class="cls-21" d="M83.66,99.84h0A1.92,1.92,0,0,1,84,100l0,0,0,0-.22-.14h0a1.58,1.58,0,0,0-.34-.13Z" transform="translate(19.42)"/><path class="cls-21" d="M83.28,99.62l.13,0,.21.1h0l-.2-.1-.06,0-.09,0L83,99.49Z" transform="translate(19.42)"/><path class="cls-21" d="M83.05,99.48l0,0h0l-.27-.1h0l-.23-.06.29.1Z" transform="translate(19.42)"/><path class="cls-21" d="M82.54,99.31l-.32-.09-.12,0,.31.08Z" transform="translate(19.42)"/><path class="cls-21" d="M82.08,99.19l-.35-.07h-.12l.32.06Z" transform="translate(19.42)"/><path class="cls-21" d="M81.54,99.1l-.22,0h-.21l.33,0Z" transform="translate(19.42)"/><path class="cls-21" d="M81,99.05h0Z" transform="translate(19.42)"/><path class="cls-21" d="M80.1,99.05h0Z" transform="translate(19.42)"/><polygon class="cls-21" points="99.37 99.06 99.03 99.1 98.99 99.11 99.32 99.07 99.37 99.06"/><path class="cls-21" d="M79.43,99.12l-.11,0-.23,0h0l.33-.06Z" transform="translate(19.42)"/><path class="cls-21" d="M78.92,99.21l-.27.07h-.06l0,0,.32-.08Z" transform="translate(19.42)"/><path class="cls-21" d="M78.4,99.35h0l-.27.09a0,0,0,0,0,0,0Z" transform="translate(19.42)"/><path class="cls-21" d="M77.93,99.52v0l-.29.12h0a0,0,0,0,0,0,0Z" transform="translate(19.42)"/><path class="cls-21" d="M77.49,99.71h0l-.14.06-.09,0-.06,0,0,0Z" transform="translate(19.42)"/><path class="cls-21" d="M76.83,100.1l.25-.16H77l0,0h0l-.18.12h0Z" transform="translate(19.42)"/><path class="cls-21" d="M76.5,100.37l.21-.17a.13.13,0,0,0-.08,0l-.07,0-.22.18,0,0Z" transform="translate(19.42)"/><path class="cls-21" d="M76.23,100.66h0l.16-.17h0a.21.21,0,0,0-.12,0l-.14.12-.19.19.13-.11A.39.39,0,0,1,76.23,100.66Z" transform="translate(19.42)"/><path class="cls-21" d="M75.94,100.81l-.06.07.07-.09Z" transform="translate(19.42)"/><path class="cls-21" d="M75.76,101a1,1,0,0,0-.08.11l-.09.13h0a2.44,2.44,0,0,1,.25-.28.65.65,0,0,1,.18,0h0l.12-.19h0a.45.45,0,0,0-.16,0A1.14,1.14,0,0,0,75.76,101Z" transform="translate(19.42)"/><path class="cls-21" d="M75.53,101.39l-.1.22a1.78,1.78,0,0,1,.23-.31,1,1,0,0,1,.22,0l.09-.19a.77.77,0,0,0-.2,0A1.84,1.84,0,0,0,75.53,101.39Z" transform="translate(19.42)"/><path class="cls-21" d="M75.39,101.72l-.06.22a1.77,1.77,0,0,1,.22-.32l.24-.07,0-.19a.71.71,0,0,0-.22,0A1.62,1.62,0,0,0,75.39,101.72Z" transform="translate(19.42)"/><path class="cls-21" d="M75.31,102.06v.21a2.84,2.84,0,0,1,.2-.33l.27-.09v-.19a1.35,1.35,0,0,0-.25.07A2.08,2.08,0,0,0,75.31,102.06Z" transform="translate(19.42)"/><path class="cls-21" d="M75.31,102.39l0,.21a2.63,2.63,0,0,1,.18-.34,2,2,0,0,1,.28-.11l0-.19-.27.09A1.33,1.33,0,0,0,75.31,102.39Z" transform="translate(19.42)"/><path class="cls-21" d="M75.44,102.93a1.75,1.75,0,0,1,.16-.36,2.38,2.38,0,0,1,.29-.13l-.07-.19a1.29,1.29,0,0,0-.28.12,1.58,1.58,0,0,0-.17.35Z" transform="translate(19.42)"/><path class="cls-21" d="M75.49,103l.12.2a2.25,2.25,0,0,1,.13-.37l.3-.15-.1-.18a1.74,1.74,0,0,0-.3.14A2,2,0,0,0,75.49,103Z" transform="translate(19.42)"/><path class="cls-21" d="M75.69,103.35l.16.19a1.63,1.63,0,0,1,.09-.38l.32-.17-.15-.17a2.15,2.15,0,0,0-.31.16A1.66,1.66,0,0,0,75.69,103.35Z" transform="translate(19.42)"/><path class="cls-21" d="M75.94,103.64l.2.18a1.72,1.72,0,0,1,.07-.38l.31-.19-.18-.17-.32.18A2.37,2.37,0,0,0,75.94,103.64Z" transform="translate(19.42)"/><path class="cls-21" d="M76.26,103.91l.25.17a2.24,2.24,0,0,1,0-.39l.32-.21-.22-.15-.32.2A3.33,3.33,0,0,0,76.26,103.91Z" transform="translate(19.42)"/><path class="cls-21" d="M77.18,103.73l0,0-.23-.13c-.14.09-.23.16-.32.23a2.53,2.53,0,0,0,0,.38l.26.14s0,0,0-.06,0-.16,0-.32Z" transform="translate(19.42)"/><path class="cls-22" d="M77.63,100.17c-1.29.84-1.2,2.12.22,2.86a5,5,0,0,0,4.92-.36,1.51,1.51,0,0,0-.22-2.85A5.41,5.41,0,0,0,77.63,100.17Zm4.87-.3a1.47,1.47,0,0,1,.21,2.77,4.89,4.89,0,0,1-4.81.35c-1.39-.72-1.47-2-.21-2.79A5.3,5.3,0,0,1,82.5,99.87Z" transform="translate(19.42)"/><path class="cls-23" d="M77.9,103a4.89,4.89,0,0,0,4.81-.35,1.47,1.47,0,0,0-.21-2.77,5.3,5.3,0,0,0-4.81.33C76.43,101,76.51,102.27,77.9,103Zm1.36-1.83a.46.46,0,0,1,.44,0c.13.08.14.21,0,.28a.48.48,0,0,1-.45,0C79.16,101.35,79.15,101.23,79.26,101.16Zm-.1,2a3.4,3.4,0,0,1-1-.36,2.81,2.81,0,0,1-.69-.51s0-.12.13-.1c.5.05.75.1,1.26.18a.19.19,0,0,1,.1,0s0,0,0,.06l.27.63S79.25,103.2,79.16,103.18Zm.17-1.17a.52.52,0,0,1,.44,0c.13.07.13.17,0,.24a.52.52,0,0,1-.44,0C79.22,102.18,79.21,102.07,79.33,102Zm1.4.16c-.12,0-.13-.14,0-.23a.58.58,0,0,1,.44-.08c.12,0,.13.14,0,.23A.58.58,0,0,1,80.73,102.17Zm1.78.14s.06.06,0,.09a3.86,3.86,0,0,1-.64.38l-.22.1-.12.05a5.82,5.82,0,0,1-.93.26.2.2,0,0,1-.11,0s0,0,0-.07l.55-.62a.28.28,0,0,1,.18-.09c.5-.06.74-.09,1.24-.11A.08.08,0,0,1,82.51,102.31Zm.15-2,0,0a1.54,1.54,0,0,1,.34.43.61.61,0,0,1,.07.14v0a1.06,1.06,0,0,1,0,.61c0,.06-.14.09-.21.06-.37-.16-.55-.23-.91-.36a.07.07,0,0,1,0-.11l.49-.78A.21.21,0,0,1,82.66,100.36Zm-1.57.71c.12.05.13.16,0,.26a.5.5,0,0,1-.44.08c-.12-.06-.13-.18,0-.28A.47.47,0,0,1,81.09,101.07Zm-.59.47c.17.08.18.22,0,.33a.6.6,0,0,1-.59,0,.18.18,0,0,1,0-.34A.68.68,0,0,1,80.5,101.54Zm-1.08-1.7a8.81,8.81,0,0,1,1-.07h.07a5.7,5.7,0,0,1,1.07.13h0c.06,0,.06.1,0,.14-.44.21-.66.33-1.09.52a.28.28,0,0,1-.22,0c-.38-.21-.57-.34-1-.57C79.29,99.94,79.32,99.86,79.42,99.84Zm-1.1.44a.08.08,0,0,1,0,0l.23.79s0,.1-.08.11c-.44.12-.66.18-1.09.33a.19.19,0,0,1-.15,0s0,0,0-.06a1.29,1.29,0,0,1,.28-.64.53.53,0,0,1,.12-.14,2.12,2.12,0,0,1,.51-.42A.19.19,0,0,1,78.32,100.28Z" transform="translate(19.42)"/><path class="cls-24" d="M79.33,103.11l-.27-.63s0,0,0-.06a.19.19,0,0,0-.1,0c-.51-.08-.76-.13-1.26-.18-.1,0-.18.05-.13.1a5.37,5.37,0,0,0,.69.51,4.84,4.84,0,0,1-.63-.47s0-.1.12-.09c.46,0,.68.09,1.14.16a.19.19,0,0,1,.09,0s0,0,0,.05l.25.58s-.07.08-.16.06a5.79,5.79,0,0,1-.86-.33,5.86,5.86,0,0,0,1,.36C79.25,103.2,79.35,103.16,79.33,103.11Z" transform="translate(19.42)"/><path class="cls-24" d="M81,102.5l-.55.62s0,0,0,.07a.2.2,0,0,0,.11,0c.31-.06.93-.26.93-.26s-.55.18-.83.23a.17.17,0,0,1-.1,0s0,0,0-.06l.5-.57a.2.2,0,0,1,.16-.07,10.8,10.8,0,0,1,1.13-.11h.07s0,0,0,.09a6,6,0,0,1-.56.33,6.15,6.15,0,0,0,.64-.38s0-.07,0-.09a.08.08,0,0,0-.07,0c-.5,0-.74,0-1.24.11A.28.28,0,0,0,81,102.5Z" transform="translate(19.42)"/><path class="cls-24" d="M82,101.19a.07.07,0,0,0,0,.11c.36.13.54.2.91.36.07,0,.19,0,.21-.06a2.08,2.08,0,0,0,0-.61,2.05,2.05,0,0,1,0,.55.18.18,0,0,1-.2.06c-.33-.15-.49-.21-.82-.34a.07.07,0,0,1,0-.1l.45-.7a.16.16,0,0,1,.19,0h0a2.16,2.16,0,0,1,.3.38,2.66,2.66,0,0,0-.34-.43l0,0a.21.21,0,0,0-.2,0Z" transform="translate(19.42)"/><path class="cls-24" d="M79.36,100c.38.23.57.36,1,.57a.28.28,0,0,0,.22,0c.43-.19.65-.31,1.09-.52.08,0,.08-.11,0-.14h0c-.32-.07-1.07-.13-1.07-.13a9.32,9.32,0,0,1,1,.12h0c.06,0,0,.09,0,.13-.4.19-.6.29-1,.46a.23.23,0,0,1-.2,0l-.86-.52c-.07,0,0-.12,0-.13.31,0,1-.07,1-.07s-.72,0-1,.07C79.32,99.86,79.29,99.94,79.36,100Z" transform="translate(19.42)"/><path class="cls-24" d="M77.63,100.7a4.59,4.59,0,0,1,.45-.37.17.17,0,0,1,.17,0s0,0,0,0c.09.28.13.43.22.71,0,0,0,.09-.09.1-.39.12-.59.17-1,.31a.32.32,0,0,1-.14,0s0,0,0-.06a2.56,2.56,0,0,1,.26-.58,2.37,2.37,0,0,0-.28.64s0,0,0,.06a.19.19,0,0,0,.15,0c.43-.15.65-.21,1.09-.33.06,0,.1-.06.08-.11l-.23-.79a.08.08,0,0,0,0,0,.19.19,0,0,0-.18,0A3.93,3.93,0,0,0,77.63,100.7Z" transform="translate(19.42)"/><path class="cls-20" d="M79.23,103.09l-.25-.58s0,0,0-.05a.19.19,0,0,0-.09,0c-.46-.07-.68-.11-1.14-.16-.09,0-.16,0-.12.09a2.46,2.46,0,0,0,.63.47,3.07,3.07,0,0,0,.86.33C79.16,103.17,79.25,103.13,79.23,103.09Z" transform="translate(19.42)"/><path class="cls-20" d="M82.44,102.36h-.07a10.8,10.8,0,0,0-1.13.11.2.2,0,0,0-.16.07l-.5.57s0,.05,0,.06a.17.17,0,0,0,.1,0,4.87,4.87,0,0,0,.83-.23l.12-.05.22-.1a3,3,0,0,0,.56-.33S82.48,102.38,82.44,102.36Z" transform="translate(19.42)"/><path class="cls-20" d="M82.73,100.43h0a.16.16,0,0,0-.19,0l-.45.7a.07.07,0,0,0,0,.1c.33.13.49.19.82.34a.18.18,0,0,0,.2-.06,1,1,0,0,0,0-.55v0a.61.61,0,0,0-.07-.14A1.2,1.2,0,0,0,82.73,100.43Z" transform="translate(19.42)"/><path class="cls-20" d="M79.47,100l.86.52a.23.23,0,0,0,.2,0c.39-.17.59-.27,1-.46.07,0,.08-.1,0-.13h0a5,5,0,0,0-1-.12h-.07a6,6,0,0,0-1,.07C79.43,99.85,79.4,99.93,79.47,100Z" transform="translate(19.42)"/><path class="cls-20" d="M77.29,101.48a.32.32,0,0,0,.14,0c.39-.14.59-.19,1-.31.07,0,.1-.05.09-.1-.09-.28-.13-.43-.22-.71,0,0,0,0,0,0a.17.17,0,0,0-.17,0,2.07,2.07,0,0,0-.45.37.53.53,0,0,0-.12.14,1.25,1.25,0,0,0-.26.58S77.27,101.46,77.29,101.48Z" transform="translate(19.42)"/><path class="cls-20" d="M79.94,101.92a.6.6,0,0,0,.59,0c.15-.11.14-.25,0-.33a.68.68,0,0,0-.59,0A.18.18,0,0,0,79.94,101.92Zm.49-.33c.13.06.14.17,0,.25a.46.46,0,0,1-.44,0c-.12-.07-.13-.18,0-.26A.52.52,0,0,1,80.43,101.59Z" transform="translate(19.42)"/><path class="cls-20" d="M79.35,102.25a.52.52,0,0,0,.44,0c.11-.07.11-.17,0-.24a.52.52,0,0,0-.44,0C79.21,102.07,79.22,102.18,79.35,102.25Zm0-.2a.36.36,0,0,1,.32,0c.09,0,.09.12,0,.16a.34.34,0,0,1-.31,0C79.32,102.17,79.31,102.09,79.39,102.05Z" transform="translate(19.42)"/><path class="cls-22" d="M79.41,102.22a.34.34,0,0,0,.31,0c.08,0,.08-.11,0-.16a.36.36,0,0,0-.32,0C79.31,102.09,79.32,102.17,79.41,102.22Z" transform="translate(19.42)"/><path class="cls-20" d="M81.15,101.86a.58.58,0,0,0-.44.08c-.11.09-.1.19,0,.23a.58.58,0,0,0,.44-.08C81.28,102,81.27,101.89,81.15,101.86Zm-.36.27c-.09,0-.09-.1,0-.17a.43.43,0,0,1,.31-.06c.09,0,.09.1,0,.17A.43.43,0,0,1,80.79,102.13Z" transform="translate(19.42)"/><path class="cls-22" d="M81.09,101.9a.43.43,0,0,0-.31.06c-.08.07-.08.14,0,.17a.43.43,0,0,0,.31-.06C81.18,102,81.18,101.93,81.09,101.9Z" transform="translate(19.42)"/><path class="cls-20" d="M80.67,101.41a.5.5,0,0,0,.44-.08c.11-.1.1-.21,0-.26a.47.47,0,0,0-.44.06C80.54,101.23,80.55,101.35,80.67,101.41Zm.36-.29c.09,0,.09.12,0,.18a.32.32,0,0,1-.31.06c-.09,0-.09-.13,0-.19A.32.32,0,0,1,81,101.12Z" transform="translate(19.42)"/><path class="cls-22" d="M80.73,101.36a.32.32,0,0,0,.31-.06c.08-.06.08-.15,0-.18a.32.32,0,0,0-.31,0C80.64,101.23,80.64,101.32,80.73,101.36Z" transform="translate(19.42)"/><path class="cls-20" d="M79.28,101.44a.48.48,0,0,0,.45,0c.11-.07.1-.2,0-.28a.46.46,0,0,0-.44,0C79.15,101.23,79.16,101.35,79.28,101.44Zm0-.24a.31.31,0,0,1,.31,0c.09.06.1.15,0,.2a.33.33,0,0,1-.32,0C79.25,101.34,79.25,101.25,79.33,101.2Z" transform="translate(19.42)"/><path class="cls-22" d="M79.34,101.4a.33.33,0,0,0,.32,0c.08,0,.07-.14,0-.2a.31.31,0,0,0-.31,0C79.25,101.25,79.25,101.34,79.34,101.4Z" transform="translate(19.42)"/><path class="cls-22" d="M79.91,101.76v-.11H80a.5.5,0,0,1,.43,0l0,0h.07v.1a.16.16,0,0,1-.08.14.49.49,0,0,1-.44,0,.15.15,0,0,1-.09-.12Z" transform="translate(19.42)"/><path class="cls-25" d="M80.44,101.74a.47.47,0,0,1-.43,0c-.13-.07-.14-.18,0-.25a.49.49,0,0,1,.44,0A.14.14,0,0,1,80.44,101.74Z" transform="translate(19.42)"/><path class="cls-20" d="M80.36,101.7a.28.28,0,0,1-.28,0c-.08,0-.08-.11,0-.16a.39.39,0,0,1,.28,0C80.43,101.57,80.44,101.64,80.36,101.7Z" transform="translate(19.42)"/><path class="cls-25" d="M79.34,101.3a.12.12,0,0,0,0,0,.12.12,0,0,0,0,.05.33.33,0,0,0,.32,0,.1.1,0,0,0,0,0s0,0,0-.05A.31.31,0,0,0,79.34,101.3Z" transform="translate(19.42)"/><path class="cls-25" d="M79.4,102.15l0,0a.1.1,0,0,0,0,0,.34.34,0,0,0,.31,0l0,0-.05,0A.34.34,0,0,0,79.4,102.15Z" transform="translate(19.42)"/><path class="cls-25" d="M80.73,101.36a.32.32,0,0,0,.31-.06.12.12,0,0,0,0,0l-.06,0a.3.3,0,0,0-.3,0,.12.12,0,0,0,0,0A.1.1,0,0,0,80.73,101.36Z" transform="translate(19.42)"/><path class="cls-25" d="M80.79,102.13a.43.43,0,0,0,.31-.06l0,0,0,0a.43.43,0,0,0-.31.06l0,0Z" transform="translate(19.42)"/><path class="cls-19" d="M57.25,124.3a1.89,1.89,0,0,0,.51-3.24c-.67-.65,5.68-3.18,5.68-3.18l1.43.74s1.81-2,.17-3.54c3.38-1.29,6.89-2.32,7.86-2.71s3.6-4.15,3.47-4.85,4.28-1.29,4.81-1.36c.46-.82.82-2.13,1.51-2.49s1.8-.8,2.55-.11c1.82,1.3,6,1.53,6.53-.35A21.39,21.39,0,0,1,93,99.49c.32-.41,1.86-1.72.72-2.27s-2.28-1.15-3-.08c.29-1.44,2.19-2-.28-3.45s-4.58-3.11-8,.82c-3.39,0-12.42,7.3-13.34,9.66a63.52,63.52,0,0,1-3.56,6.75l-7.85,4.53,1.25.7-6.29,3.06Z" transform="translate(19.42)"/><path class="cls-26" d="M61,81.17l-1.49-.44a.33.33,0,0,1-.23-.37l0-.23a.33.33,0,0,1,.42-.26l1,.27.48.77A.17.17,0,0,1,61,81.17Z" transform="translate(19.42)"/><path class="cls-26" d="M62.35,80.71l.1-1.15a.82.82,0,0,0-.26-.66l-.72-.64a.68.68,0,0,0-.68-.14l-1,.35a.67.67,0,0,0-.44.43l-.15.45a.33.33,0,0,0,.23.41l.15,0a.5.5,0,0,1,.37.36l.26,1a.46.46,0,0,0,.56.33L62,81.12A.45.45,0,0,0,62.35,80.71Z" transform="translate(19.42)"/><path class="cls-27" d="M61,79.44c0-.3.19-.63.45-.47s.46.33.36,1a1.1,1.1,0,0,1-.9.94,3.93,3.93,0,0,1-.76.09l-.23-.84a.5.5,0,0,0-.37-.36l-.1,0C59.78,79.79,60.94,79.73,61,79.44Z" transform="translate(19.42)"/><path class="cls-28" d="M56.53,82.47a2.51,2.51,0,0,0-1.49,3c.86,2.27,6.65,3.12,7.72,3.31a4.41,4.41,0,0,0,1.63-.15c.83-.31,1.17-2,0-2.4C61.74,85.41,58.33,81.89,56.53,82.47Z" transform="translate(19.42)"/><path class="cls-28" d="M60.58,81.38c.19-.54,1.53-.9,2.44.34a10.6,10.6,0,0,1,2.12,5.44,1.1,1.1,0,0,1-.14.65c-.87,1.08-3.12.38-3.17-.71S60.15,82.62,60.58,81.38Z" transform="translate(19.42)"/><path class="cls-29" d="M65,116.91a1.13,1.13,0,0,1,0,1.33c-.42.45-1.67.63-3.13,0l-1.46-.67-.3-.5-.48-.24-.38.28s-1.58-.68-1.82-1.42a.85.85,0,0,1,.33-1Z" transform="translate(19.42)"/><path class="cls-30" d="M62.29,114.74c1,.38,3.83,2.16,2.52,3.11-.14.1-1,.59-3.08-.29-2.36-1-3.7-1.66-4-2.11-.56-.82.22-1.89.22-1.89Z" transform="translate(19.42)"/><path class="cls-31" d="M57.94,97.68c3.08,3.45,6.72,8.42,6,8.8a49.34,49.34,0,0,0-1.23,8.61c-.85.59-4.46.21-4.88-1.62,0-2.56,1.08-4.87,1.79-6.84-1.79-2.19-5.68-3.28-6.89-6.46Z" transform="translate(19.42)"/><path class="cls-29" d="M57.69,123.05a1,1,0,0,1-.44,1.25,3.71,3.71,0,0,1-3.34-.74l-1.29-1-.2-.55-.42-.33-.46.21s-1.49-1.16-1.48-1.93a1,1,0,0,1,.53-.8Z" transform="translate(19.42)"/><path class="cls-30" d="M55.07,120.27c.93.57,2.69,2.33,2.62,2.78-.14.82-1.66,1.38-3.73-.13s-3.3-2.36-3.51-2.86c-.39-.92.59-1.81.59-1.81Z" transform="translate(19.42)"/><path class="cls-32" d="M58,97.38s.44,3.72-2.5,5.73c1.31,4.44,1.77,8.3,1.2,8.49,0,0-1.51,5.69-1.47,8.79-.85.58-4.12-.11-4.55-1.94,0-2.57.57-7.09,2.05-8.56-.88-3.13-4.31-4.57-3.45-8.8C49.29,100.09,52.84,96.42,58,97.38Z" transform="translate(19.42)"/><path class="cls-33" d="M58,96.23v1.15a13,13,0,0,1-4.8,3.71c-2.92,1.23-3.92,0-3.92,0v-1Z" transform="translate(19.42)"/><path class="cls-14" d="M56.46,97.73c.13-.1.25,0,.27.1l.11.72a.54.54,0,0,1-.19.46l-.57.45c-.12.1-.24.05-.27-.1l-.1-.72a.54.54,0,0,1,.18-.46Zm0,1.17.09-.07a.29.29,0,0,0,.09-.23l-.07-.49c0-.08-.07-.1-.13,0l-.09.07.11.77ZM56,98.71l.2-.16,0-.26-.09.08a.26.26,0,0,0-.09.22l0,.12Zm0,.37c0,.08.07.1.13,0l.09-.07,0-.25L56,99l0,.11Z" transform="translate(19.42)"/><path class="cls-34" d="M57.46,82.57c-.39-.23-3.53-.74-9,5.06-1,1.12-1.28,11.42,1.28,12.8s7.75-3,8.4-4.41C58.92,94.27,60.77,84.55,57.46,82.57Z" transform="translate(19.42)"/><path class="cls-28" d="M54.19,83.13c.4-.21,2.6,2.21,2.21,3.12-.52,1.23-3.64.75-4.65-.39-.3-.34-.47-.87-.1-1.13A13.23,13.23,0,0,1,54.19,83.13Z" transform="translate(19.42)"/><path class="cls-35" d="M52.17,83.17a3.9,3.9,0,0,1-.27,1.28c-.14.23,0,.77.63,1.15a3.66,3.66,0,0,0,2.82.53.47.47,0,0,0,.31-.53,5.75,5.75,0,0,1,0-1.52S53.74,82.52,52.17,83.17Z" transform="translate(19.42)"/><path class="cls-27" d="M55.63,85.16a5.66,5.66,0,0,1,.07-1.08s-2-1.56-3.53-.91A2.48,2.48,0,0,1,52,84a1.11,1.11,0,0,0,.81.5c.2,0,.24,0,.85.53A1.76,1.76,0,0,0,55.63,85.16Z" transform="translate(19.42)"/><path class="cls-35" d="M55.15,77.9c1.41.47,2.83,1,2.59,2.48-.37,2.33-.15,4.06-2.18,4.56s-3.37-1.35-4.08-2.54A3.08,3.08,0,0,1,55.15,77.9Z" transform="translate(19.42)"/><path class="cls-36" d="M51.64,83.74c1.12.79,1.35.58,1.47.49a2.53,2.53,0,0,1-.61-1.31c-.79.2-1.38-1.79-.12-1.24-.1-.73.94-.31,1.22-.25,1.09.25,3.48.47,4.41-.65s-.34-3.46-2.19-3.94c-2.61-.69-4.2,0-5,1.78S50.36,82.85,51.64,83.74Z" transform="translate(19.42)"/><path class="cls-37" d="M51,78.31c.83-1.54,2.38-2.11,4.83-1.47a3.49,3.49,0,0,1,1.94,1.42,2.09,2.09,0,0,1-.41,1.88c-1.06.77-3.46.33-4.68-.26A3.2,3.2,0,0,1,51,78.31Z" transform="translate(19.42)"/><path class="cls-27" d="M55.28,84.15c0,.19.27.65.91.38a1.09,1.09,0,0,0,.75-1c0-.33-.33-.21-.64-.1C55.81,83.6,55.34,83.7,55.28,84.15Z" transform="translate(19.42)"/><path class="cls-27" d="M51.88,82.93l1-1.1a.34.34,0,0,1,.46,0l.15.1a.35.35,0,0,1,.06.52l-.66.76-.85.09A.2.2,0,0,1,51.88,82.93Z" transform="translate(19.42)"/><path class="cls-26" d="M51.76,84.76l-.1-1.57a.37.37,0,0,1,.23-.37l1.77-.72a.37.37,0,0,1,.31,0l.77.37a.53.53,0,0,1,.23.3l.42.89a.38.38,0,0,1-.48.4l-.24-.17a.42.42,0,0,0-.43,0,.56.56,0,0,0-.3.35l-.36,1a.38.38,0,0,1-.5.29L52,85.09A.38.38,0,0,1,51.76,84.76Z" transform="translate(19.42)"/><path class="cls-38" d="M48.25,87.74c-.83.41-1.42,2.57-.29,3.83,1.62,1.81,1.47,2.21,3.06,3.28a2.4,2.4,0,0,0,1.85.24A1.59,1.59,0,0,0,54,92.61C53.13,91.59,49.6,87.08,48.25,87.74Z" transform="translate(19.42)"/><path class="cls-38" d="M51.63,85.27a1.55,1.55,0,0,1,2.4-.56c1.87,1.21.53,7.33.21,9.06a.79.79,0,0,1-.35.59c-1.23.66-3.28-.75-3.35-1.84A28.82,28.82,0,0,1,51.63,85.27Z" transform="translate(19.42)"/><path class="cls-19" d="M116.44,118.53l1.71.6,5.12-3.46a6.76,6.76,0,0,0,3.25-.47c1.46-.86,3.74-2.25,4.91-4.1l11-3.64,15.4-5.65,29-17.13L161.54,71.13l-52.9,43.51Z" transform="translate(19.42)"/><polygon class="cls-39" points="180.38 88.4 176.32 86.42 173.6 86.28 177.06 83.37 180.47 83.92 180.47 86.68 180.38 88.4"/><polygon class="cls-40" points="180.47 86.68 186.36 82.7 185.74 84.77 180.38 88.4 180.47 86.68"/><path class="cls-20" d="M160.33,87.37a3.74,3.74,0,0,0-.25-.66,1.55,1.55,0,0,0-.12-.22c-.07-.11-.17-.26-.25-.36a2,2,0,0,0-.32-.33l-.35-.26-.2-.1a2.56,2.56,0,0,0-2.56.43,8,8,0,0,0-3.16,6.52,2.53,2.53,0,0,0,1.22,2.25,3.14,3.14,0,0,0,2.67-.13,4.81,4.81,0,0,0,.57-.33,6.48,6.48,0,0,0,.53-.42l.47-.47.23-.27c.1-.12.34-.45.41-.56l.19-.29.33-.62a8.39,8.39,0,0,0,.5-1.31c0-.22.1-.42.15-.7a6.92,6.92,0,0,0,.08-.72,6.39,6.39,0,0,0,0-.72A4.55,4.55,0,0,0,160.33,87.37Z" transform="translate(19.42)"/><path class="cls-20" d="M158,85.1l-.43,0a2.68,2.68,0,0,0-.4,0,3.28,3.28,0,0,0-.86.22l-.34.15c-.16.08-.36.21-.52.3a6.13,6.13,0,0,0-1.05.93,6.77,6.77,0,0,0-.82,1.12,6.94,6.94,0,0,0-.61,1.26,7.54,7.54,0,0,0-.38,1.36,7,7,0,0,0-.07.73,4.56,4.56,0,0,0,0,.64,4.4,4.4,0,0,0,.2,1.06,3.55,3.55,0,0,0,.29.62,2.35,2.35,0,0,0,.57.69,2.88,2.88,0,0,0,.35.26l.2.11a2.56,2.56,0,0,1-1.23-2.25A8,8,0,0,1,156,85.75a2.59,2.59,0,0,1,2.56-.44A2.37,2.37,0,0,0,158,85.1Z" transform="translate(19.42)"/><path class="cls-21" d="M155.84,85.68h0a2.87,2.87,0,0,1,2.06-.59l-.3,0a1.38,1.38,0,0,0-.29,0,3.28,3.28,0,0,0-1.62.6h0c-2.58,1.87-3.89,5.91-2.59,8a2.54,2.54,0,0,0,.4.46C151.71,92.33,153,87.76,155.84,85.68Z" transform="translate(19.42)"/><path class="cls-21" d="M156.22,85.31l-.21.09-.09,0h0Z" transform="translate(19.42)"/><path class="cls-21" d="M155.79,85.51h0l-.31.18h0Z" transform="translate(19.42)"/><path class="cls-21" d="M155.09,86l.28-.21h0a.18.18,0,0,0-.07,0l-.2.15h0Z" transform="translate(19.42)"/><path class="cls-21" d="M155,86.13h0l-.05.05-.19.17h0l0,0Z" transform="translate(19.42)"/><path class="cls-21" d="M154.55,86.52l0,0,0,0-.13.13-.07.09,0,0C154.37,86.72,154.48,86.61,154.55,86.52Z" transform="translate(19.42)"/><path class="cls-21" d="M154.18,87l0-.06-.22.28a.15.15,0,0,0,0,.08C154,87.17,154.11,87.05,154.18,87Z" transform="translate(19.42)"/><path class="cls-21" d="M153.83,87.43a.19.19,0,0,1,0-.1l0,0,0,0c0,.07-.09.13-.13.19l0,0a.27.27,0,0,0,0,.13Z" transform="translate(19.42)"/><path class="cls-21" d="M153.52,87.94s0,0,0,0a.12.12,0,0,1,0-.1c-.06.1-.13.22-.18.32a.25.25,0,0,0,0,.17Z" transform="translate(19.42)"/><path class="cls-21" d="M153.24,88.47a.26.26,0,0,1,0-.19l0,0,0,.07-.1.21a.31.31,0,0,0,0,.21Z" transform="translate(19.42)"/><path class="cls-21" d="M153,89a.4.4,0,0,1,0-.23l-.1.25v0a.36.36,0,0,0,0,.09.46.46,0,0,0,0,.24c0-.11.09-.26.13-.37Z" transform="translate(19.42)"/><path class="cls-21" d="M152.8,89.57s0,0,0-.06a.4.4,0,0,1,0-.19s0,.08,0,.12a.88.88,0,0,1-.05.15.29.29,0,0,1,0,.09.53.53,0,0,0,0,.26Z" transform="translate(19.42)"/><path class="cls-21" d="M152.65,90.13a.11.11,0,0,0,0,0,.78.78,0,0,1,0-.22c0,.1-.06.25-.08.36a.66.66,0,0,0,0,.28C152.6,90.39,152.63,90.25,152.65,90.13Z" transform="translate(19.42)"/><path class="cls-21" d="M152.53,90.58s0-.12,0-.17h0v.09c0,.09,0,.19,0,.28h0a2.44,2.44,0,0,0,0,.27c0-.11,0-.25.05-.36A.5.5,0,0,1,152.53,90.58Z" transform="translate(19.42)"/><path class="cls-21" d="M152.47,91.09a.28.28,0,0,1,0-.09v.45a1.39,1.39,0,0,1,0,.15c0-.1,0-.24,0-.35A.78.78,0,0,0,152.47,91.09Z" transform="translate(19.42)"/><path class="cls-21" d="M152.47,91.61a.91.91,0,0,0,0,.17V92h0a.77.77,0,0,0,0,.15c0-.1,0-.24,0-.34A1.1,1.1,0,0,1,152.47,91.61Z" transform="translate(19.42)"/><path class="cls-21" d="M152.53,92.22v0l0,.18v0l0,.12v0c0-.09,0-.21-.06-.3S152.54,92.25,152.53,92.22Z" transform="translate(19.42)"/><path class="cls-21" d="M153.12,92.39a8,8,0,0,1,3.16-6.52,2.56,2.56,0,0,1,2.56-.43l-.25-.13a2.59,2.59,0,0,0-2.56.44,8,8,0,0,0-3.17,6.52,2.56,2.56,0,0,0,1.23,2.25l.25.12A2.53,2.53,0,0,1,153.12,92.39Z" transform="translate(19.42)"/><path class="cls-21" d="M155.47,94.9h0Z" transform="translate(19.42)"/><path class="cls-21" d="M156.6,86.09c1.32-.84,2.35-.82,3.14.08h0l-.27-.29c-1.14-1-2.52-.15-3,.13-3.11,2.15-4.55,8.15-1.44,8.87h0l.21,0-.17,0C152.53,94.37,153,88.69,156.6,86.09Z" transform="translate(19.42)"/><path class="cls-21" d="M156.8,87.07l.24-.19c0-.13,0-.17,0-.31a1,1,0,0,0-.08-.11,1.46,1.46,0,0,0-.28-.14l-.27.21a2,2,0,0,1,.35.15C156.76,86.84,156.78,87,156.8,87.07Z" transform="translate(19.42)"/><path class="cls-21" d="M156.44,87.39l.23-.21c0-.16-.06-.29-.08-.39a3.12,3.12,0,0,0-.36-.15l-.25.24a1.84,1.84,0,0,1,.36.13A3.13,3.13,0,0,1,156.44,87.39Z" transform="translate(19.42)"/><path class="cls-21" d="M156.11,87.75l.21-.24c0-.16-.08-.28-.11-.38a3,3,0,0,0-.36-.12l-.24.27.37.09C156,87.53,156.08,87.67,156.11,87.75Z" transform="translate(19.42)"/><path class="cls-21" d="M156,87.88l-.13-.37-.38-.09-.22.29.38.07.15.36Z" transform="translate(19.42)"/><path class="cls-21" d="M155.69,88.28l-.16-.35-.39-.06-.2.31.38,0,.18.35Z" transform="translate(19.42)"/><path class="cls-21" d="M155.22,88.37l-.39,0-.18.32H155l.2.32.17-.29C155.35,88.6,155.28,88.49,155.22,88.37Z" transform="translate(19.42)"/><path class="cls-21" d="M155,89.46l.15-.3-.22-.32h-.39l-.16.33.39,0C154.87,89.29,155,89.38,155,89.46Z" transform="translate(19.42)"/><path class="cls-21" d="M154.17,89.71l.38,0,.26.28.13-.31-.24-.29-.39,0Z" transform="translate(19.42)"/><path class="cls-21" d="M154,90.25l.39-.07c.11.11.2.18.28.25l.1-.32-.26-.27-.39.06Z" transform="translate(19.42)"/><path class="cls-21" d="M153.84,90.79l.38-.1a2,2,0,0,0,.3.22l.08-.32-.29-.23-.38.08Z" transform="translate(19.42)"/><path class="cls-21" d="M153.74,91.33l.37-.12a3.27,3.27,0,0,0,.32.19l0-.32-.31-.21-.37.11Z" transform="translate(19.42)"/><path class="cls-21" d="M153.69,91.86l.35-.14a3.11,3.11,0,0,0,.34.16l0-.32a3.25,3.25,0,0,1-.33-.17l-.36.12Z" transform="translate(19.42)"/><path class="cls-21" d="M153.69,92.38l.33-.16a3.75,3.75,0,0,0,.36.12V92L154,91.9l-.35.14Z" transform="translate(19.42)"/><path class="cls-21" d="M153.73,92.87l.32-.16.37.08,0-.29a1.94,1.94,0,0,1-.36-.11l-.33.16Z" transform="translate(19.42)"/><path class="cls-21" d="M154.13,93.15a3.15,3.15,0,0,0,.37,0l-.06-.26a1.74,1.74,0,0,1-.37-.07l-.31.17.07.28Z" transform="translate(19.42)"/><path class="cls-21" d="M154.25,93.54h.38l-.09-.23a2.18,2.18,0,0,1-.38,0l-.29.17.1.25Z" transform="translate(19.42)"/><path class="cls-21" d="M154.41,93.88a1.84,1.84,0,0,0,.38,0l-.11-.19a1.66,1.66,0,0,1-.38,0l-.27.17.12.21A3,3,0,0,0,154.41,93.88Z" transform="translate(19.42)"/><path class="cls-21" d="M154.61,94.17a1.62,1.62,0,0,0,.38-.07l-.13-.16a2.05,2.05,0,0,1-.39,0,1.23,1.23,0,0,1-.25.17l.15.18A2.5,2.5,0,0,0,154.61,94.17Z" transform="translate(19.42)"/><path class="cls-21" d="M154.84,94.4a1.48,1.48,0,0,0,.38-.1l-.15-.12a2.63,2.63,0,0,1-.38.07,1.1,1.1,0,0,1-.24.16l.17.14A.94.94,0,0,0,154.84,94.4Z" transform="translate(19.42)"/><path class="cls-21" d="M155.11,94.58a2,2,0,0,0,.37-.12l-.17-.1a1.9,1.9,0,0,1-.38.11.94.94,0,0,1-.21.15l.19.1A1,1,0,0,0,155.11,94.58Z" transform="translate(19.42)"/><path class="cls-21" d="M155.23,94.83h0a.74.74,0,0,0,.17-.12,2.18,2.18,0,0,0,.36-.15h0l-.19,0a2.39,2.39,0,0,1-.37.13,1.26,1.26,0,0,1-.19.14h0Z" transform="translate(19.42)"/><path class="cls-21" d="M156.08,94.6h0l-.19,0h0a1.19,1.19,0,0,1-.35.15.77.77,0,0,1-.17.13h0l.22,0h0a.58.58,0,0,0,.15-.11A1.91,1.91,0,0,0,156.08,94.6Z" transform="translate(19.42)"/><path class="cls-21" d="M156.41,94.58l-.22,0h0a1.52,1.52,0,0,1-.33.18.48.48,0,0,1-.15.1l.24,0a.24.24,0,0,0,.13-.09A1.72,1.72,0,0,0,156.41,94.58Z" transform="translate(19.42)"/><path class="cls-21" d="M156.53,94.56h0a1.57,1.57,0,0,1-.33.19.21.21,0,0,1-.12.08l.12,0,.1,0h.05l.09-.06a2.75,2.75,0,0,0,.33-.21Z" transform="translate(19.42)"/><path class="cls-21" d="M156.88,94.47h0a2,2,0,0,1-.31.2l-.07,0h0l.21-.08h0l0,0a3.4,3.4,0,0,0,.3-.22Z" transform="translate(19.42)"/><path class="cls-21" d="M157.24,94.32h0a1.23,1.23,0,0,1-.29.22l0,0h0l.23-.12h0a1.27,1.27,0,0,0,.28-.23Z" transform="translate(19.42)"/><path class="cls-21" d="M157.61,94.1a.38.38,0,0,1-.09.09l-.18.14h0l.18-.12.05,0,.08,0a1.19,1.19,0,0,0,.2-.19Z" transform="translate(19.42)"/><path class="cls-21" d="M157.85,94l0,0h0l.22-.18h0a.89.89,0,0,0,.16-.17l-.23.2Z" transform="translate(19.42)"/><path class="cls-21" d="M158.25,93.62l.24-.24.08-.1-.23.23A.65.65,0,0,1,158.25,93.62Z" transform="translate(19.42)"/><path class="cls-21" d="M158.59,93.28l.23-.27.07-.1-.21.25A1.25,1.25,0,0,0,158.59,93.28Z" transform="translate(19.42)"/><path class="cls-21" d="M158.94,92.85l.13-.17.07-.11.05-.07-.19.27Z" transform="translate(19.42)"/><path class="cls-21" d="M159.25,92.41l0,0,.14-.21,0-.08v0l-.17.29Z" transform="translate(19.42)"/><path class="cls-21" d="M159.7,91.63v0l-.14.26C159.62,91.79,159.66,91.71,159.7,91.63Z" transform="translate(19.42)"/><polygon class="cls-21" points="179.19 91.49 179.33 91.18 179.34 91.14 179.21 91.45 179.19 91.49"/><path class="cls-21" d="M160,91l0-.1.08-.22a0,0,0,0,0,0,0L160,91Z" transform="translate(19.42)"/><path class="cls-21" d="M160.15,90.52l.08-.26v0h0v-.06l-.09.32Z" transform="translate(19.42)"/><path class="cls-21" d="M160.29,90v0l.06-.27a0,0,0,0,0,0,0Z" transform="translate(19.42)"/><path class="cls-21" d="M160.38,89.52a0,0,0,0,1,0,0l0-.3v0h0Z" transform="translate(19.42)"/><path class="cls-21" d="M160.43,89h0v-.33s0,0,0,0Z" transform="translate(19.42)"/><path class="cls-21" d="M160.42,88.27l0,.3,0,0v-.09c0-.07,0-.15,0-.21v0A.09.09,0,0,1,160.42,88.27Z" transform="translate(19.42)"/><path class="cls-21" d="M160.35,87.85l.05.27a.13.13,0,0,0,0-.07.25.25,0,0,1,0-.08c0-.09,0-.19,0-.28v.06A.19.19,0,0,1,160.35,87.85Z" transform="translate(19.42)"/><path class="cls-21" d="M160.24,87.47h0l.08.23h0a.19.19,0,0,0,.05-.11,1,1,0,0,0,0-.18,2.58,2.58,0,0,0-.08-.26l0,.16A.59.59,0,0,1,160.24,87.47Z" transform="translate(19.42)"/><path class="cls-21" d="M160.26,87.15l0-.09,0,.11Z" transform="translate(19.42)"/><path class="cls-21" d="M160.16,86.88l-.06-.12-.07-.14h0a1.26,1.26,0,0,1,.12.36.64.64,0,0,1-.06.18h0l.1.19h0a.51.51,0,0,0,.06-.15A2.07,2.07,0,0,0,160.16,86.88Z" transform="translate(19.42)"/><path class="cls-21" d="M160,86.5l-.14-.2a1.46,1.46,0,0,1,.15.36,1.05,1.05,0,0,1-.06.21l.12.18a.78.78,0,0,0,.06-.19A1.24,1.24,0,0,0,160,86.5Z" transform="translate(19.42)"/><path class="cls-21" d="M159.74,86.21l-.16-.16a1.82,1.82,0,0,1,.17.35,1.53,1.53,0,0,1-.06.25l.14.14a1.28,1.28,0,0,0,.07-.22A2.1,2.1,0,0,0,159.74,86.21Z" transform="translate(19.42)"/><path class="cls-21" d="M159.49,86l-.18-.12a2.48,2.48,0,0,1,.19.34,1.81,1.81,0,0,1-.06.27l.16.11c0-.11.05-.19.07-.25A2.25,2.25,0,0,0,159.49,86Z" transform="translate(19.42)"/><path class="cls-21" d="M159.21,85.81l-.21-.08a1.62,1.62,0,0,1,.21.33c0,.11,0,.21,0,.29l.18.08c0-.13,0-.21.05-.28A1.72,1.72,0,0,0,159.21,85.81Z" transform="translate(19.42)"/><path class="cls-21" d="M158.67,85.66a1.45,1.45,0,0,1,.23.31,2.69,2.69,0,0,1,0,.32l.19,0c0-.14,0-.23.05-.31a1.93,1.93,0,0,0-.22-.32Z" transform="translate(19.42)"/><path class="cls-21" d="M158.55,85.65h-.23a2.05,2.05,0,0,1,.25.29,3.28,3.28,0,0,1,0,.34h.21a2.35,2.35,0,0,0,0-.33A1.65,1.65,0,0,0,158.55,85.65Z" transform="translate(19.42)"/><path class="cls-21" d="M158.19,85.66l-.25,0a2.46,2.46,0,0,1,.28.27c0,.14,0,.25,0,.36l.22,0a2.44,2.44,0,0,0,0-.35A1.44,1.44,0,0,0,158.19,85.66Z" transform="translate(19.42)"/><path class="cls-21" d="M157.81,85.73l-.26.09a3.12,3.12,0,0,1,.3.24c0,.15,0,.27,0,.37l.23-.07c0-.16,0-.27,0-.37A3.08,3.08,0,0,0,157.81,85.73Z" transform="translate(19.42)"/><path class="cls-21" d="M157.41,85.88l-.27.12a2.49,2.49,0,0,1,.32.22c0,.15,0,.27,0,.38l.24-.11c0-.16,0-.28,0-.38A2.21,2.21,0,0,0,157.41,85.88Z" transform="translate(19.42)"/><path class="cls-21" d="M157.11,86.76l0,.06.22-.15c0-.16,0-.28,0-.38a2.87,2.87,0,0,0-.33-.21l-.25.16,0,.05a2.6,2.6,0,0,1,.28.15C157.09,86.57,157.09,86.6,157.11,86.76Z" transform="translate(19.42)"/><path class="cls-22" d="M160,88.93c-.08-1.54-1.24-2.1-2.59-1.24a5.06,5.06,0,0,0-2.15,4.45,1.51,1.51,0,0,0,2.57,1.23A5.42,5.42,0,0,0,160,88.93ZM157.8,93.3a1.47,1.47,0,0,1-2.51-1.2,4.91,4.91,0,0,1,2.09-4.35c1.33-.83,2.46-.28,2.53,1.22A5.33,5.33,0,0,1,157.8,93.3Z" transform="translate(19.42)"/><path class="cls-23" d="M157.38,87.75a4.91,4.91,0,0,0-2.09,4.35,1.47,1.47,0,0,0,2.51,1.2A5.33,5.33,0,0,0,159.91,89C159.84,87.47,158.71,86.92,157.38,87.75Zm.91,2.1a.44.44,0,0,1-.24.37c-.13.07-.25,0-.25-.12a.43.43,0,0,1,.24-.37C158.18,89.66,158.29,89.71,158.29,89.85Zm-1.7-1.1a3.69,3.69,0,0,1,.79-.65,2.47,2.47,0,0,1,.79-.33c.07,0,.08.08,0,.16-.29.41-.46.6-.78,1l-.08.07-.08,0-.68-.09C156.51,88.93,156.53,88.82,156.59,88.75Zm.94.73a.58.58,0,0,1-.24.38c-.12.07-.21,0-.21-.11a.47.47,0,0,1,.23-.37C157.43,89.3,157.53,89.35,157.53,89.48Zm-.85,1.14c.1-.09.19-.05.21.1a.53.53,0,0,1-.14.41c-.1.09-.19.05-.21-.1A.54.54,0,0,1,156.68,90.62Zm-1,1.47s-.08,0-.09,0a4.56,4.56,0,0,1,0-.74,2,2,0,0,1,0-.24.51.51,0,0,1,0-.13,5,5,0,0,1,.23-.94.15.15,0,0,1,.06-.09s.06,0,.07,0c.1.31.15.46.27.78a.36.36,0,0,1,0,.2c-.2.46-.29.69-.52,1.13A.1.1,0,0,1,155.67,92.09Zm1.61,1.1,0,0a1.53,1.53,0,0,1-.55.08h-.19A1.18,1.18,0,0,1,156,93s0-.17.05-.22c.32-.23.47-.35.77-.6a.06.06,0,0,1,.11,0l.43.81A.19.19,0,0,1,157.28,93.19Zm.18-1.71c-.11.08-.21,0-.24-.12a.47.47,0,0,1,.15-.41c.11-.09.23,0,.25.12A.49.49,0,0,1,157.46,91.48Zm-.12-.75c-.15.11-.28,0-.3-.14a.64.64,0,0,1,.25-.54c.16-.1.31,0,.32.16A.71.71,0,0,1,157.34,90.73Zm2-.09a6.37,6.37,0,0,1-.46,1l0,.06a5.49,5.49,0,0,1-.64.86s0,0,0,0-.12,0-.11-.09c0-.49,0-.74.09-1.21a.28.28,0,0,1,.11-.18c.38-.22.59-.32,1-.54C159.34,90.48,159.39,90.55,159.35,90.64Zm.18-1.17a.07.07,0,0,1-.06,0l-.8-.2s-.07-.06-.06-.13c.12-.44.17-.65.27-1.1a.2.2,0,0,1,.08-.13s0,0,.07,0a1.36,1.36,0,0,1,.42.56l.06.17a2.76,2.76,0,0,1,.11.66A.17.17,0,0,1,159.53,89.47Z" transform="translate(19.42)"/><path class="cls-24" d="M156.57,88.93l.68.09.08,0,.08-.07c.32-.4.49-.59.78-1,.06-.08.05-.18,0-.16a4.64,4.64,0,0,0-.79.33,4.56,4.56,0,0,1,.72-.3c.06,0,.07.07,0,.15-.27.37-.42.54-.71.9l-.08.07-.06,0-.63-.09s0-.1,0-.16a5.84,5.84,0,0,1,.72-.59,6.76,6.76,0,0,0-.79.65C156.53,88.82,156.51,88.93,156.57,88.93Z" transform="translate(19.42)"/><path class="cls-24" d="M156.26,90.7c-.12-.32-.17-.47-.27-.78,0,0,0,0-.07,0a.15.15,0,0,0-.06.09,8.26,8.26,0,0,0-.23.94s.11-.57.2-.84a.35.35,0,0,1,.06-.09s.05,0,.06,0c.1.29.14.43.25.71a.33.33,0,0,1,0,.19c-.18.41-.27.62-.47,1l0,0s-.08,0-.08,0a5,5,0,0,1,0-.65s0,.52,0,.74c0,.06,0,.07.09,0a.1.1,0,0,0,.05-.06c.23-.44.32-.67.52-1.13A.36.36,0,0,0,156.26,90.7Z" transform="translate(19.42)"/><path class="cls-24" d="M156.91,92.18a.06.06,0,0,0-.11,0c-.3.25-.45.37-.77.6-.06,0-.09.18-.05.22a2.26,2.26,0,0,0,.54.29A2,2,0,0,1,156,93s0-.15.05-.2c.29-.21.43-.32.7-.55a.07.07,0,0,1,.11,0c.15.3.22.45.38.74a.18.18,0,0,1-.06.18h0a2.25,2.25,0,0,1-.48.08,3,3,0,0,0,.55-.08l0,0a.19.19,0,0,0,.06-.2Z" transform="translate(19.42)"/><path class="cls-24" d="M159.26,90.52c-.39.22-.6.32-1,.54a.28.28,0,0,0-.11.18c0,.47-.06.72-.09,1.21,0,.08,0,.12.11.09s0,0,0,0c.22-.24.64-.86.64-.86s-.38.56-.58.78l0,0c-.05,0-.1,0-.1-.08,0-.44.05-.66.1-1.09a.19.19,0,0,1,.1-.17c.34-.2.52-.29.88-.49.07,0,.12,0,.09.11-.12.29-.42.86-.42.86s.34-.63.46-1C159.39,90.55,159.34,90.48,159.26,90.52Z" transform="translate(19.42)"/><path class="cls-24" d="M159.51,88.66a5.17,5.17,0,0,1,.09.58.17.17,0,0,1-.08.14s0,0-.05,0l-.73-.17s-.06-.06,0-.12c.1-.4.15-.6.23-1A.2.2,0,0,1,159,88s.05,0,.07,0a2.27,2.27,0,0,1,.38.51,2.69,2.69,0,0,0-.42-.56s0,0-.07,0a.2.2,0,0,0-.08.13c-.1.45-.15.66-.27,1.1,0,.07,0,.12.06.13l.8.2a.07.07,0,0,0,.06,0,.17.17,0,0,0,.09-.15A5,5,0,0,0,159.51,88.66Z" transform="translate(19.42)"/><path class="cls-20" d="M156.64,88.85l.63.09.06,0,.08-.07c.29-.36.44-.53.71-.9,0-.08,0-.17,0-.15a2.52,2.52,0,0,0-.72.3,3.33,3.33,0,0,0-.72.59C156.6,88.75,156.59,88.85,156.64,88.85Z" transform="translate(19.42)"/><path class="cls-20" d="M155.67,92l0,0c.2-.41.29-.62.47-1a.33.33,0,0,0,0-.19c-.11-.28-.15-.42-.25-.71,0,0,0,0-.06,0a.35.35,0,0,0-.06.09,4.68,4.68,0,0,0-.2.84.51.51,0,0,0,0,.13,2,2,0,0,0,0,.24,2.8,2.8,0,0,0,0,.65C155.59,92,155.63,92,155.67,92Z" transform="translate(19.42)"/><path class="cls-20" d="M157.19,93.21h0a.18.18,0,0,0,.06-.18c-.16-.29-.23-.44-.38-.74a.07.07,0,0,0-.11,0c-.27.23-.41.34-.7.55-.06,0-.09.16-.05.2a1.11,1.11,0,0,0,.49.26h.19A1.16,1.16,0,0,0,157.19,93.21Z" transform="translate(19.42)"/><path class="cls-20" d="M159.22,90.62c-.36.2-.54.29-.88.49a.19.19,0,0,0-.1.17c-.05.43-.06.65-.1,1.09,0,.08.05.12.1.08l0,0a4.94,4.94,0,0,0,.58-.78l0-.06a6.2,6.2,0,0,0,.42-.86C159.34,90.65,159.29,90.58,159.22,90.62Z" transform="translate(19.42)"/><path class="cls-20" d="M159,88a.2.2,0,0,0-.07.12c-.08.4-.13.6-.23,1,0,.06,0,.11,0,.12l.73.17s0,0,.05,0a.17.17,0,0,0,.08-.14,2.7,2.7,0,0,0-.09-.58l-.06-.17a1.18,1.18,0,0,0-.38-.51S159,88,159,88Z" transform="translate(19.42)"/><path class="cls-20" d="M157.29,90.05a.64.64,0,0,0-.25.54c0,.19.15.25.3.14a.71.71,0,0,0,.27-.52C157.6,90,157.45,90,157.29,90.05Zm0,.59c-.11.08-.21,0-.22-.1a.46.46,0,0,1,.19-.4.13.13,0,0,1,.23.11A.5.5,0,0,1,157.33,90.64Z" transform="translate(19.42)"/><path class="cls-20" d="M157.31,89.38a.47.47,0,0,0-.23.37c0,.14.09.18.21.11a.58.58,0,0,0,.24-.38C157.53,89.35,157.43,89.3,157.31,89.38Zm.15.14a.42.42,0,0,1-.17.27c-.08,0-.15,0-.15-.08a.37.37,0,0,1,.16-.27C157.39,89.39,157.46,89.43,157.46,89.52Z" transform="translate(19.42)"/><path class="cls-22" d="M157.3,89.44a.37.37,0,0,0-.16.27c0,.1.07.13.15.08a.42.42,0,0,0,.17-.27C157.46,89.43,157.39,89.39,157.3,89.44Z" transform="translate(19.42)"/><path class="cls-20" d="M156.75,91.13a.53.53,0,0,0,.14-.41c0-.15-.11-.19-.21-.1a.54.54,0,0,0-.14.41C156.56,91.18,156.65,91.22,156.75,91.13Zm-.06-.44c.07-.06.13,0,.15.07a.44.44,0,0,1-.1.3c-.07.06-.14,0-.15-.07A.39.39,0,0,1,156.69,90.69Z" transform="translate(19.42)"/><path class="cls-22" d="M156.74,91.06a.44.44,0,0,0,.1-.3c0-.1-.08-.13-.15-.07a.39.39,0,0,0-.1.3C156.6,91.09,156.67,91.12,156.74,91.06Z" transform="translate(19.42)"/><path class="cls-20" d="M157.37,91a.47.47,0,0,0-.15.41c0,.15.13.2.24.12a.49.49,0,0,0,.16-.41C157.6,90.92,157.48,90.86,157.37,91Zm.08.45c-.08.06-.15,0-.17-.08a.35.35,0,0,1,.1-.3c.08,0,.16,0,.18.09A.38.38,0,0,1,157.45,91.4Z" transform="translate(19.42)"/><path class="cls-22" d="M157.38,91a.35.35,0,0,0-.1.3c0,.1.09.14.17.08a.38.38,0,0,0,.11-.29C157.54,91,157.46,91,157.38,91Z" transform="translate(19.42)"/><path class="cls-20" d="M158,89.73a.43.43,0,0,0-.24.37c0,.14.12.19.25.12a.44.44,0,0,0,.24-.37C158.29,89.71,158.18,89.66,158,89.73Zm.18.15a.33.33,0,0,1-.17.27c-.1,0-.18,0-.18-.09a.32.32,0,0,1,.17-.26C158.14,89.75,158.22,89.79,158.22,89.88Z" transform="translate(19.42)"/><path class="cls-22" d="M158,89.8a.32.32,0,0,0-.17.26c0,.1.08.14.18.09a.33.33,0,0,0,.17-.27C158.22,89.79,158.14,89.75,158,89.8Z" transform="translate(19.42)"/><path class="cls-22" d="M157.45,90.12l.1,0,0,.07s0,0,0,0a.51.51,0,0,1-.19.4h0l0,.06-.09,0c-.05,0-.07-.07-.08-.14a.49.49,0,0,1,.19-.39.18.18,0,0,1,.15,0Z" transform="translate(19.42)"/><path class="cls-25" d="M157.2,90.58a.47.47,0,0,1,.2-.39c.12-.08.21,0,.22.11a.51.51,0,0,1-.19.4C157.32,90.78,157.21,90.72,157.2,90.58Z" transform="translate(19.42)"/><path class="cls-20" d="M157.28,90.53a.3.3,0,0,1,.12-.25c.08,0,.14,0,.15.07a.33.33,0,0,1-.12.25C157.35,90.65,157.29,90.62,157.28,90.53Z" transform="translate(19.42)"/><path class="cls-25" d="M158.13,89.84a.14.14,0,0,0,0-.06l-.07,0a.32.32,0,0,0-.17.26.08.08,0,0,0,0,.06.11.11,0,0,0,.07,0A.3.3,0,0,0,158.13,89.84Z" transform="translate(19.42)"/><path class="cls-25" d="M157.37,89.48s0,0,0-.06l-.06,0a.37.37,0,0,0-.16.27.43.43,0,0,0,0,.05l0,0A.38.38,0,0,0,157.37,89.48Z" transform="translate(19.42)"/><path class="cls-25" d="M157.38,91a.35.35,0,0,0-.1.3.11.11,0,0,0,0,.06.09.09,0,0,0,.06,0,.35.35,0,0,0,.11-.29s0,0,0-.06Z" transform="translate(19.42)"/><path class="cls-25" d="M156.69,90.69a.39.39,0,0,0-.1.3s0,0,0,.05l.05,0a.45.45,0,0,0,.1-.3s0,0,0,0Z" transform="translate(19.42)"/><polygon class="cls-39" points="149.04 109.61 144.19 107.23 142.24 107.66 145.79 104.54 149.21 105.34 149.14 107.89 149.04 109.61"/><polygon class="cls-40" points="172.32 92.2 172.66 93.62 149.04 109.61 149.14 107.89 172.32 92.2"/><path class="cls-20" d="M129.26,108.4a3.8,3.8,0,0,0-.25-.67,2.12,2.12,0,0,0-.11-.21l-.26-.37a1.88,1.88,0,0,0-.31-.32l-.36-.26a1.86,1.86,0,0,0-.19-.11,2.6,2.6,0,0,0-2.57.44,8,8,0,0,0-3.16,6.52,2.53,2.53,0,0,0,1.22,2.25,2.83,2.83,0,0,0,2.08.11,3.51,3.51,0,0,0,.59-.24,4.17,4.17,0,0,0,.57-.34,4.86,4.86,0,0,0,.53-.42c.15-.13.33-.32.47-.47s.16-.19.23-.27a6,6,0,0,0,.41-.55c.06-.09.14-.21.19-.3l.33-.61a8.53,8.53,0,0,0,.5-1.32,6.72,6.72,0,0,0,.15-.69,4.84,4.84,0,0,0,.08-.73,6.44,6.44,0,0,0,0-.72A4.57,4.57,0,0,0,129.26,108.4Z" transform="translate(19.42)"/><path class="cls-20" d="M126.88,106.13a2.1,2.1,0,0,0-.43,0,2.68,2.68,0,0,0-.4,0,3,3,0,0,0-.86.22,2.52,2.52,0,0,0-.34.15c-.16.08-.36.2-.52.3a6.09,6.09,0,0,0-1,.93,7.5,7.5,0,0,0-.82,1.11,7.33,7.33,0,0,0-.61,1.26,6.65,6.65,0,0,0-.37,1.37,5,5,0,0,0-.08.72c0,.19,0,.45,0,.64a4.06,4.06,0,0,0,.21,1.07,3.46,3.46,0,0,0,.28.62,1.83,1.83,0,0,0,.26.36,1.62,1.62,0,0,0,.31.33l.36.26a1.14,1.14,0,0,0,.19.1,2.52,2.52,0,0,1-1.22-2.25,8,8,0,0,1,3.16-6.51,2.54,2.54,0,0,1,2.56-.44A2.37,2.37,0,0,0,126.88,106.13Z" transform="translate(19.42)"/><path class="cls-21" d="M124.77,106.71h0a2.87,2.87,0,0,1,2.06-.59l-.3,0h-.29a3.33,3.33,0,0,0-1.61.61h0c-2.59,1.87-3.9,5.91-2.6,8a3.47,3.47,0,0,0,.4.45C120.64,113.36,121.91,108.79,124.77,106.71Z" transform="translate(19.42)"/><path class="cls-21" d="M125.15,106.33l-.21.09-.09,0h0Z" transform="translate(19.42)"/><path class="cls-21" d="M124.72,106.54h0l-.31.19h0Z" transform="translate(19.42)"/><path class="cls-21" d="M124,107l.28-.22h0l-.07.05-.2.16h0Z" transform="translate(19.42)"/><path class="cls-21" d="M123.88,107.16s0,0,0,0l-.06,0-.19.18h0l0,0A3.07,3.07,0,0,1,123.88,107.16Z" transform="translate(19.42)"/><path class="cls-21" d="M123.48,107.55l0,0,0,0-.13.14-.07.08s0,0,0,0Z" transform="translate(19.42)"/><path class="cls-21" d="M123.11,108s0-.06,0-.07l-.22.28a.1.1,0,0,0,0,.09Z" transform="translate(19.42)"/><path class="cls-21" d="M122.76,108.46c0-.07,0-.08,0-.1l0,0,0,0-.13.19,0,0a.26.26,0,0,0,0,.13Z" transform="translate(19.42)"/><path class="cls-21" d="M122.45,109s0,0,0,0a.14.14,0,0,1,0-.1c-.06.09-.13.22-.18.31a.37.37,0,0,0,0,.18Z" transform="translate(19.42)"/><path class="cls-21" d="M122.17,109.49a.23.23,0,0,1,0-.18l0,0,0,.07-.1.2a.42.42,0,0,0,0,.22Z" transform="translate(19.42)"/><path class="cls-21" d="M121.93,110a.51.51,0,0,1,0-.23l-.09.24v0a.3.3,0,0,1,0,.1.54.54,0,0,0,0,.23l.13-.36Z" transform="translate(19.42)"/><path class="cls-21" d="M121.74,110.6s0,0,0-.06a.58.58,0,0,1,0-.19l0,.12s0,.1,0,.15l0,.08a.76.76,0,0,0,0,.27C121.66,110.85,121.7,110.71,121.74,110.6Z" transform="translate(19.42)"/><path class="cls-21" d="M121.58,111.16v0a.85.85,0,0,1,0-.23c0,.11-.06.26-.08.37a.88.88,0,0,0,0,.28Z" transform="translate(19.42)"/><path class="cls-21" d="M121.47,111.61a1,1,0,0,1,0-.17h0v.09l0,.27h0a1.23,1.23,0,0,0,0,.27,2.33,2.33,0,0,1,0-.37S121.47,111.64,121.47,111.61Z" transform="translate(19.42)"/><path class="cls-21" d="M121.4,112.11s0-.06,0-.08v.45s0,.07,0,.15c0-.11,0-.25,0-.35A1,1,0,0,0,121.4,112.11Z" transform="translate(19.42)"/><path class="cls-21" d="M121.4,112.64a.86.86,0,0,0,0,.16l0,.2h0a.68.68,0,0,0,0,.14c0-.1,0-.23,0-.34A1,1,0,0,0,121.4,112.64Z" transform="translate(19.42)"/><path class="cls-21" d="M121.46,113.25v0l0,.18v0l0,.11v0c0-.09,0-.21-.06-.3S121.47,113.27,121.46,113.25Z" transform="translate(19.42)"/><path class="cls-21" d="M122.05,113.42a8,8,0,0,1,3.16-6.52,2.6,2.6,0,0,1,2.57-.44l-.26-.12a2.54,2.54,0,0,0-2.56.44,8,8,0,0,0-3.16,6.51,2.52,2.52,0,0,0,1.22,2.25l.25.13A2.53,2.53,0,0,1,122.05,113.42Z" transform="translate(19.42)"/><path class="cls-21" d="M124.4,115.93h0Z" transform="translate(19.42)"/><path class="cls-21" d="M125.53,107.12c1.32-.85,2.35-.82,3.15.08h0c-.08-.1-.19-.21-.27-.3-1.14-1-2.52-.15-3,.14-3.11,2.15-4.55,8.15-1.44,8.86h0l.21,0-.17,0C121.46,115.4,122,109.72,125.53,107.12Z" transform="translate(19.42)"/><path class="cls-21" d="M125.73,108.1l.24-.19c0-.14,0-.18,0-.32l-.08-.11-.28-.13-.27.2a2.53,2.53,0,0,1,.36.16C125.69,107.86,125.71,108,125.73,108.1Z" transform="translate(19.42)"/><path class="cls-21" d="M125.37,108.42l.23-.22c0-.16,0-.28-.08-.39a2.9,2.9,0,0,0-.36-.14l-.25.24.36.12A3.21,3.21,0,0,1,125.37,108.42Z" transform="translate(19.42)"/><path class="cls-21" d="M125,108.77l.21-.23c0-.16-.07-.29-.1-.39l-.37-.11-.24.26a3.72,3.72,0,0,1,.37.1C125,108.55,125,108.7,125,108.77Z" transform="translate(19.42)"/><path class="cls-21" d="M124.93,108.91l-.14-.37a2.53,2.53,0,0,0-.38-.09l-.22.29.38.06.15.37Z" transform="translate(19.42)"/><path class="cls-21" d="M124.62,109.31l-.16-.36-.38,0-.21.3.38,0,.19.35Z" transform="translate(19.42)"/><path class="cls-21" d="M124.15,109.4l-.38,0-.19.33H124l.2.32.17-.29A3.72,3.72,0,0,0,124.15,109.4Z" transform="translate(19.42)"/><path class="cls-21" d="M123.94,110.49l.15-.3c-.09-.13-.15-.23-.22-.32h-.38l-.17.34.39,0C123.8,110.32,123.88,110.41,123.94,110.49Z" transform="translate(19.42)"/><path class="cls-21" d="M123.1,110.74l.39,0,.25.28.13-.32c-.1-.11-.17-.2-.24-.29l-.39,0Z" transform="translate(19.42)"/><path class="cls-21" d="M122.92,111.28l.38-.08a2.68,2.68,0,0,0,.28.25l.1-.32c-.11-.1-.19-.19-.26-.26l-.39,0Z" transform="translate(19.42)"/><path class="cls-21" d="M122.77,111.82l.38-.1a3.15,3.15,0,0,0,.3.22l.08-.32-.29-.24-.38.08Z" transform="translate(19.42)"/><path class="cls-21" d="M122.67,112.35l.37-.11a2.91,2.91,0,0,0,.32.18l0-.31-.3-.21-.38.1Z" transform="translate(19.42)"/><path class="cls-21" d="M122.62,112.89l.35-.14.34.15,0-.31a2,2,0,0,1-.33-.18l-.36.13Z" transform="translate(19.42)"/><path class="cls-21" d="M122.62,113.4l.33-.15a3.75,3.75,0,0,0,.36.12v-.3a2.84,2.84,0,0,1-.34-.15l-.35.15Z" transform="translate(19.42)"/><path class="cls-21" d="M122.66,113.9l.32-.17a1.66,1.66,0,0,0,.37.08l0-.28a3.21,3.21,0,0,1-.36-.11l-.33.16Z" transform="translate(19.42)"/><path class="cls-21" d="M123.06,114.17a1.89,1.89,0,0,0,.38,0l-.07-.25-.37-.07-.31.17.07.28Z" transform="translate(19.42)"/><path class="cls-21" d="M123.18,114.56a1.59,1.59,0,0,0,.38,0l-.09-.22a1.9,1.9,0,0,1-.37,0l-.3.17.1.25A1.48,1.48,0,0,0,123.18,114.56Z" transform="translate(19.42)"/><path class="cls-21" d="M123.34,114.9a1.51,1.51,0,0,0,.39,0l-.12-.19a2.53,2.53,0,0,1-.38,0l-.27.17.12.21A1.67,1.67,0,0,0,123.34,114.9Z" transform="translate(19.42)"/><path class="cls-21" d="M123.54,115.19a1.62,1.62,0,0,0,.38-.07l-.13-.16a1.52,1.52,0,0,1-.38.05l-.26.17.15.17A1.43,1.43,0,0,0,123.54,115.19Z" transform="translate(19.42)"/><path class="cls-21" d="M123.77,115.43a3.33,3.33,0,0,0,.38-.1l-.15-.13a1.73,1.73,0,0,1-.38.08,1.64,1.64,0,0,1-.24.16l.18.14Z" transform="translate(19.42)"/><path class="cls-21" d="M124,115.61a2.55,2.55,0,0,0,.37-.13l-.17-.09a2.93,2.93,0,0,1-.38.11l-.21.15.19.1A1,1,0,0,0,124,115.61Z" transform="translate(19.42)"/><path class="cls-21" d="M124.16,115.86h0a.55.55,0,0,0,.17-.13,1.66,1.66,0,0,0,.37-.15h0l-.18-.06a3.2,3.2,0,0,1-.38.14,1.08,1.08,0,0,1-.19.13h0Z" transform="translate(19.42)"/><path class="cls-21" d="M125,115.62h0l-.19,0h0a2.17,2.17,0,0,1-.35.15.49.49,0,0,1-.17.12h0l.22,0h0a.58.58,0,0,0,.15-.11A1.87,1.87,0,0,0,125,115.62Z" transform="translate(19.42)"/><path class="cls-21" d="M125.34,115.61h-.22a1.8,1.8,0,0,1-.34.17.4.4,0,0,1-.15.11l.24,0a.25.25,0,0,0,.13-.09A1.72,1.72,0,0,0,125.34,115.61Z" transform="translate(19.42)"/><path class="cls-21" d="M125.46,115.59h0a2.69,2.69,0,0,1-.32.19.49.49,0,0,1-.12.08l.12,0,.1,0h0s0,0,.09-.07a1.89,1.89,0,0,0,.33-.21Z" transform="translate(19.42)"/><path class="cls-21" d="M125.81,115.5h0a1.3,1.3,0,0,1-.31.21s0,0-.07.05h0l.21-.08,0,0,0,0a1.38,1.38,0,0,0,.31-.22Z" transform="translate(19.42)"/><path class="cls-21" d="M126.17,115.34h0a2.77,2.77,0,0,1-.29.22l0,0h0l.23-.12h0a2.26,2.26,0,0,0,.29-.23Z" transform="translate(19.42)"/><path class="cls-21" d="M126.55,115.13l-.09.09-.19.14h0l.18-.11.06,0,.07-.06a1.19,1.19,0,0,0,.2-.19Z" transform="translate(19.42)"/><path class="cls-21" d="M126.78,115l0,0h0l.22-.19h0a.74.74,0,0,0,.16-.18l-.23.2A1,1,0,0,1,126.78,115Z" transform="translate(19.42)"/><path class="cls-21" d="M127.19,114.64l.23-.24.08-.09-.22.23Z" transform="translate(19.42)"/><path class="cls-21" d="M127.52,114.3l.23-.27.07-.1-.21.25A.54.54,0,0,1,127.52,114.3Z" transform="translate(19.42)"/><path class="cls-21" d="M127.87,113.88l.13-.18.07-.1a.22.22,0,0,0,.05-.08l-.19.27Z" transform="translate(19.42)"/><path class="cls-21" d="M128.18,113.44l0,0,.14-.22,0-.07v0l-.17.29Z" transform="translate(19.42)"/><path class="cls-21" d="M128.63,112.65h0l-.14.26Z" transform="translate(19.42)"/><polygon class="cls-21" points="148.12 112.52 148.26 112.2 148.27 112.17 148.14 112.47 148.12 112.52"/><path class="cls-21" d="M128.91,112l0-.1.08-.22v0l-.11.32Z" transform="translate(19.42)"/><path class="cls-21" d="M129.08,111.55l.08-.27h0v-.06l-.09.32Z" transform="translate(19.42)"/><path class="cls-21" d="M129.22,111v0l.06-.27v0Z" transform="translate(19.42)"/><path class="cls-21" d="M129.31,110.54s0,0,0,0,0-.31,0-.31v0h0Z" transform="translate(19.42)"/><path class="cls-21" d="M129.36,110.06h0l0-.15v-.17l0,0Z" transform="translate(19.42)"/><path class="cls-21" d="M129.35,109.3l0,.3s0,0,0,0v-.09a1.62,1.62,0,0,0,0-.22v0S129.37,109.28,129.35,109.3Z" transform="translate(19.42)"/><path class="cls-21" d="M129.28,108.88l.05.27a.31.31,0,0,0,0-.07s0-.06,0-.09,0-.18,0-.27v.06A.27.27,0,0,1,129.28,108.88Z" transform="translate(19.42)"/><path class="cls-21" d="M129.17,108.5h0l.08.23h0a.43.43,0,0,0,.06-.12l0-.17c0-.08-.05-.18-.08-.27a1.08,1.08,0,0,1,0,.17A.59.59,0,0,1,129.17,108.5Z" transform="translate(19.42)"/><path class="cls-21" d="M129.19,108.17l0-.08,0,.1Z" transform="translate(19.42)"/><path class="cls-21" d="M129.09,107.91l-.05-.12-.07-.14h0a1.77,1.77,0,0,1,.13.36.87.87,0,0,1-.07.17h0l.09.2h0a.51.51,0,0,0,.06-.15A1.8,1.8,0,0,0,129.09,107.91Z" transform="translate(19.42)"/><path class="cls-21" d="M128.89,107.52l-.13-.19a1.88,1.88,0,0,1,.14.36,1.29,1.29,0,0,1-.06.21l.12.17a.76.76,0,0,0,.07-.19A2.08,2.08,0,0,0,128.89,107.52Z" transform="translate(19.42)"/><path class="cls-21" d="M128.68,107.24l-.17-.16a.47.47,0,0,1,.11.59l.15.14a1.94,1.94,0,0,0,.06-.22A2,2,0,0,0,128.68,107.24Z" transform="translate(19.42)"/><path class="cls-21" d="M128.42,107l-.18-.12a2,2,0,0,1,.19.34,1.81,1.81,0,0,1-.06.27l.17.11c0-.12.05-.19.06-.26A1.74,1.74,0,0,0,128.42,107Z" transform="translate(19.42)"/><path class="cls-21" d="M128.14,106.84l-.21-.08a2.31,2.31,0,0,1,.22.32,2.08,2.08,0,0,1-.05.3l.18.07a2.11,2.11,0,0,0,.05-.28A1.37,1.37,0,0,0,128.14,106.84Z" transform="translate(19.42)"/><path class="cls-21" d="M127.6,106.68a3.83,3.83,0,0,1,.24.31c0,.13,0,.23,0,.33l.2,0a2.27,2.27,0,0,0,0-.3,1.57,1.57,0,0,0-.22-.33Z" transform="translate(19.42)"/><path class="cls-21" d="M127.48,106.67h-.23a2,2,0,0,1,.25.29,3.32,3.32,0,0,1,0,.35h.21a2.63,2.63,0,0,0,0-.33A1.39,1.39,0,0,0,127.48,106.67Z" transform="translate(19.42)"/><path class="cls-21" d="M127.12,106.68l-.25,0a1.45,1.45,0,0,1,.28.27c0,.13,0,.25,0,.35l.22,0a2.44,2.44,0,0,0,0-.35A1.94,1.94,0,0,0,127.12,106.68Z" transform="translate(19.42)"/><path class="cls-21" d="M126.74,106.76l-.26.09a1.57,1.57,0,0,1,.3.24c0,.14,0,.26,0,.37l.23-.08a2.14,2.14,0,0,0,0-.36A1.63,1.63,0,0,0,126.74,106.76Z" transform="translate(19.42)"/><path class="cls-21" d="M126.34,106.9l-.27.13a1.93,1.93,0,0,1,.32.22,2.87,2.87,0,0,1,0,.38l.24-.12c0-.16,0-.27,0-.37A2.4,2.4,0,0,0,126.34,106.9Z" transform="translate(19.42)"/><path class="cls-21" d="M126,107.78l0,.06.22-.14c0-.16,0-.28,0-.39a2.64,2.64,0,0,0-.33-.2l-.25.16a.1.1,0,0,1,0,0,1.28,1.28,0,0,1,.28.15C126,107.6,126,107.63,126,107.78Z" transform="translate(19.42)"/><path class="cls-22" d="M128.9,110c-.08-1.54-1.24-2.11-2.59-1.24a5.06,5.06,0,0,0-2.15,4.44,1.51,1.51,0,0,0,2.57,1.23A5.41,5.41,0,0,0,128.9,110Zm-2.17,4.36a1.47,1.47,0,0,1-2.51-1.2,4.9,4.9,0,0,1,2.09-4.34c1.33-.84,2.46-.29,2.54,1.21A5.37,5.37,0,0,1,126.73,114.32Z" transform="translate(19.42)"/><path class="cls-23" d="M126.31,108.78a4.9,4.9,0,0,0-2.09,4.34,1.47,1.47,0,0,0,2.51,1.2,5.37,5.37,0,0,0,2.12-4.33C128.77,108.49,127.64,107.94,126.31,108.78Zm.91,2.09a.44.44,0,0,1-.24.38c-.13.07-.25,0-.25-.12a.48.48,0,0,1,.24-.38C127.11,110.69,127.22,110.74,127.22,110.87Zm-1.69-1.1a3.64,3.64,0,0,1,.78-.64,2.77,2.77,0,0,1,.79-.34c.07,0,.08.08,0,.17-.29.4-.46.6-.78,1a.18.18,0,0,1-.08.07.13.13,0,0,1-.08,0l-.68-.09S125.46,109.84,125.53,109.77Zm.93.74a.54.54,0,0,1-.24.37c-.12.08-.21,0-.21-.1a.5.5,0,0,1,.23-.38C126.36,110.33,126.46,110.38,126.46,110.51Zm-.85,1.13c.1-.08.19,0,.21.1a.57.57,0,0,1-.14.42c-.1.09-.19,0-.21-.1A.57.57,0,0,1,125.61,111.64Zm-1,1.48s-.09,0-.09,0a3.72,3.72,0,0,1,0-.75l0-.24a.69.69,0,0,1,0-.13,5.37,5.37,0,0,1,.23-.94.2.2,0,0,1,.06-.09s.06,0,.07,0c.1.31.15.46.27.78a.29.29,0,0,1,0,.2c-.2.45-.29.69-.52,1.13C124.64,113.09,124.62,113.1,124.61,113.12Zm1.6,1.1s0,0,0,0a1.76,1.76,0,0,1-.55.09l-.15,0h0a1,1,0,0,1-.54-.29s0-.16,0-.21c.32-.23.47-.36.77-.6a.07.07,0,0,1,.12,0c.16.32.25.49.42.81A.18.18,0,0,1,126.21,114.22Zm.18-1.72c-.11.09-.21,0-.23-.11a.45.45,0,0,1,.14-.42.15.15,0,0,1,.25.12A.47.47,0,0,1,126.39,112.5Zm-.11-.74c-.16.11-.29,0-.31-.15a.63.63,0,0,1,.25-.53c.16-.1.31,0,.32.15A.68.68,0,0,1,126.28,111.76Zm2-.09a7,7,0,0,1-.47,1l0,.06a5.82,5.82,0,0,1-.64.86l0,0c-.06,0-.12,0-.11-.09,0-.48,0-.73.1-1.2a.24.24,0,0,1,.11-.19c.37-.22.58-.32,1-.53C128.27,111.51,128.32,111.58,128.29,111.67Zm.17-1.17a.07.07,0,0,1-.06,0l-.8-.19s-.07-.06,0-.13c.11-.44.17-.66.26-1.11a.17.17,0,0,1,.08-.12.08.08,0,0,1,.08,0,1.31,1.31,0,0,1,.41.57l.06.17a2.68,2.68,0,0,1,.11.66A.19.19,0,0,1,128.46,110.5Z" transform="translate(19.42)"/><path class="cls-24" d="M125.5,110l.68.09a.13.13,0,0,0,.08,0,.18.18,0,0,0,.08-.07c.32-.39.49-.59.78-1,.06-.09,0-.18,0-.17a5.37,5.37,0,0,0-.79.34,4.34,4.34,0,0,1,.72-.31c.06,0,.07.08,0,.15-.27.37-.42.55-.71.91a.19.19,0,0,1-.07.06.11.11,0,0,1-.07,0l-.63-.08s0-.1,0-.17a5.81,5.81,0,0,1,.71-.58,6.72,6.72,0,0,0-.78.64C125.46,109.84,125.45,110,125.5,110Z" transform="translate(19.42)"/><path class="cls-24" d="M125.19,111.73c-.12-.32-.17-.47-.27-.78,0,0,0,0-.07,0a.2.2,0,0,0-.06.09,8.81,8.81,0,0,0-.23.94,8,8,0,0,1,.21-.84.22.22,0,0,1,0-.08s.05,0,.07,0c.09.28.14.42.24.71a.23.23,0,0,1,0,.18c-.18.42-.27.63-.47,1a.11.11,0,0,1,0,0s-.08,0-.08,0,0-.66,0-.66a6.6,6.6,0,0,0,0,.75c0,.06,0,.07.09,0s0,0,0-.06c.23-.44.32-.68.52-1.13A.29.29,0,0,0,125.19,111.73Z" transform="translate(19.42)"/><path class="cls-24" d="M125.85,113.21a.07.07,0,0,0-.12,0c-.3.24-.45.37-.77.6-.06,0-.09.17,0,.21a1.93,1.93,0,0,0,.54.29A2,2,0,0,1,125,114s0-.15.05-.19l.7-.55a.07.07,0,0,1,.11,0l.38.74a.2.2,0,0,1,0,.18h0a2.25,2.25,0,0,1-.48.08,2.51,2.51,0,0,0,.55-.09s0,0,0,0a.18.18,0,0,0,.06-.2C126.1,113.7,126,113.53,125.85,113.21Z" transform="translate(19.42)"/><path class="cls-24" d="M128.19,111.55c-.39.21-.6.31-1,.53a.24.24,0,0,0-.11.19c-.06.47-.07.72-.1,1.2,0,.09,0,.13.11.09l0,0c.22-.25.64-.86.64-.86s-.38.56-.58.78l0,0s-.1,0-.09-.08c0-.44,0-.67.09-1.1a.25.25,0,0,1,.1-.16c.34-.2.52-.3.88-.49.07,0,.12,0,.09.11-.11.29-.42.86-.42.86s.34-.64.47-1C128.32,111.58,128.27,111.51,128.19,111.55Z" transform="translate(19.42)"/><path class="cls-24" d="M128.44,109.69a3.32,3.32,0,0,1,.09.58.16.16,0,0,1-.08.14h0l-.73-.17s-.06-.06,0-.12c.1-.4.15-.6.23-1a.15.15,0,0,1,.08-.11,0,0,0,0,1,.06,0,2.07,2.07,0,0,1,.38.51A2.53,2.53,0,0,0,128,109a.08.08,0,0,0-.08,0,.17.17,0,0,0-.08.12c-.09.45-.15.67-.26,1.11,0,.07,0,.12,0,.13l.8.19a.07.07,0,0,0,.06,0,.19.19,0,0,0,.09-.15A4.69,4.69,0,0,0,128.44,109.69Z" transform="translate(19.42)"/><path class="cls-20" d="M125.57,109.88l.63.08a.11.11,0,0,0,.07,0,.19.19,0,0,0,.07-.06c.29-.36.44-.54.71-.91,0-.07,0-.16,0-.15a2.57,2.57,0,0,0-.72.31,3.23,3.23,0,0,0-.71.58C125.54,109.78,125.52,109.88,125.57,109.88Z" transform="translate(19.42)"/><path class="cls-20" d="M124.6,113a.11.11,0,0,0,0,0c.2-.4.29-.61.47-1a.23.23,0,0,0,0-.18c-.1-.29-.15-.43-.24-.71,0,0,0,0-.07,0a.22.22,0,0,0,0,.08,4.3,4.3,0,0,0-.21.84.69.69,0,0,0,0,.13l0,.24a3.58,3.58,0,0,0,0,.66C124.52,113,124.56,113.05,124.6,113Z" transform="translate(19.42)"/><path class="cls-20" d="M126.12,114.24h0a.2.2,0,0,0,0-.18l-.38-.74a.07.07,0,0,0-.11,0l-.7.55c-.06,0-.09.15-.05.19a1,1,0,0,0,.49.26h0l.15,0A1.34,1.34,0,0,0,126.12,114.24Z" transform="translate(19.42)"/><path class="cls-20" d="M128.15,111.65c-.36.19-.54.29-.88.49a.25.25,0,0,0-.1.16c0,.43-.06.66-.09,1.1,0,.08,0,.11.09.08l0,0a5.45,5.45,0,0,0,.58-.78l0-.06a5.25,5.25,0,0,0,.42-.86C128.27,111.67,128.22,111.61,128.15,111.65Z" transform="translate(19.42)"/><path class="cls-20" d="M127.94,109a.15.15,0,0,0-.08.11c-.08.41-.13.61-.23,1,0,.06,0,.11,0,.12l.73.17h0a.16.16,0,0,0,.08-.14,1.81,1.81,0,0,0-.09-.58l-.06-.17A1.07,1.07,0,0,0,128,109,0,0,0,0,0,127.94,109Z" transform="translate(19.42)"/><path class="cls-20" d="M126.22,111.08a.63.63,0,0,0-.25.53c0,.2.15.26.31.15a.68.68,0,0,0,.26-.53C126.53,111.05,126.38,111,126.22,111.08Zm0,.59c-.11.08-.21,0-.22-.11a.43.43,0,0,1,.19-.39c.12-.08.22,0,.23.11A.47.47,0,0,1,126.26,111.67Z" transform="translate(19.42)"/><path class="cls-20" d="M126.24,110.4a.5.5,0,0,0-.23.38c0,.13.09.18.21.1a.54.54,0,0,0,.24-.37C126.46,110.38,126.36,110.33,126.24,110.4Zm.15.15a.35.35,0,0,1-.17.26c-.08.06-.15,0-.15-.07a.38.38,0,0,1,.16-.27C126.32,110.42,126.39,110.45,126.39,110.55Z" transform="translate(19.42)"/><path class="cls-22" d="M126.23,110.47a.38.38,0,0,0-.16.27c0,.09.07.13.15.07a.35.35,0,0,0,.17-.26C126.39,110.45,126.32,110.42,126.23,110.47Z" transform="translate(19.42)"/><path class="cls-20" d="M125.68,112.16a.57.57,0,0,0,.14-.42c0-.14-.11-.18-.21-.1a.57.57,0,0,0-.14.42C125.49,112.2,125.58,112.25,125.68,112.16Zm-.06-.44c.07-.06.14,0,.15.07a.41.41,0,0,1-.1.3c-.07.06-.14,0-.15-.08A.37.37,0,0,1,125.62,111.72Z" transform="translate(19.42)"/><path class="cls-22" d="M125.67,112.09a.41.41,0,0,0,.1-.3c0-.1-.08-.13-.15-.07a.37.37,0,0,0-.1.29C125.53,112.12,125.6,112.15,125.67,112.09Z" transform="translate(19.42)"/><path class="cls-20" d="M126.3,112a.45.45,0,0,0-.14.42c0,.15.12.2.23.11a.47.47,0,0,0,.16-.41A.15.15,0,0,0,126.3,112Zm.08.45c-.08.06-.15,0-.17-.07a.33.33,0,0,1,.11-.3c.07-.06.15,0,.17.08A.3.3,0,0,1,126.38,112.42Z" transform="translate(19.42)"/><path class="cls-22" d="M126.32,112.05a.33.33,0,0,0-.11.3c0,.1.09.13.17.07a.3.3,0,0,0,.11-.29C126.47,112,126.39,112,126.32,112.05Z" transform="translate(19.42)"/><path class="cls-20" d="M127,110.75a.48.48,0,0,0-.24.38c0,.13.12.19.25.12a.44.44,0,0,0,.24-.38C127.22,110.74,127.11,110.69,127,110.75Zm.18.16a.3.3,0,0,1-.17.26c-.09,0-.18,0-.18-.08a.32.32,0,0,1,.17-.26C127.07,110.78,127.15,110.81,127.15,110.91Z" transform="translate(19.42)"/><path class="cls-22" d="M127,110.83a.32.32,0,0,0-.17.26c0,.1.09.13.18.08a.3.3,0,0,0,.17-.26C127.15,110.81,127.07,110.78,127,110.83Z" transform="translate(19.42)"/><path class="cls-22" d="M126.38,111.14l.1,0,0,.06v0a.47.47,0,0,1-.19.39l0,0,0,.06-.1,0a.2.2,0,0,1-.08-.14.46.46,0,0,1,.2-.39.15.15,0,0,1,.15,0Z" transform="translate(19.42)"/><path class="cls-25" d="M126.13,111.61a.46.46,0,0,1,.2-.39c.12-.08.22,0,.22.11a.47.47,0,0,1-.19.39A.13.13,0,0,1,126.13,111.61Z" transform="translate(19.42)"/><path class="cls-20" d="M126.21,111.56a.3.3,0,0,1,.12-.25c.08,0,.14,0,.15.07a.33.33,0,0,1-.12.25A.09.09,0,0,1,126.21,111.56Z" transform="translate(19.42)"/><path class="cls-25" d="M127.06,110.87s0-.05,0-.06a.12.12,0,0,0-.08,0,.32.32,0,0,0-.17.26.14.14,0,0,0,0,.06l.07,0A.32.32,0,0,0,127.06,110.87Z" transform="translate(19.42)"/><path class="cls-25" d="M126.3,110.5a.07.07,0,0,0,0,0l-.06,0a.38.38,0,0,0-.16.27s0,0,0,.05l0,0A.37.37,0,0,0,126.3,110.5Z" transform="translate(19.42)"/><path class="cls-25" d="M126.32,112.05a.33.33,0,0,0-.11.3.14.14,0,0,0,0,.06s0,0,.06,0a.32.32,0,0,0,.11-.29.14.14,0,0,0,0-.07Z" transform="translate(19.42)"/><path class="cls-25" d="M125.62,111.72a.37.37,0,0,0-.1.29.14.14,0,0,0,0,.06l0,0a.38.38,0,0,0,.1-.3s0,0,0,0Z" transform="translate(19.42)"/><g class="cls-2"><polygon class="cls-41" points="184.3 75.38 160.97 63.97 162.49 64.06 185.82 75.47 184.3 75.38"/><polygon class="cls-42" points="133.47 113.53 110.13 102.11 125.94 87.67 149.27 99.09 133.47 113.53"/><polygon class="cls-41" points="133.82 118.26 110.48 106.84 110.13 102.11 133.47 113.53 133.82 118.26"/><path class="cls-43" d="M164.88,75.38l1.51.09.54,7.23-5.88,4c-.2-2.69-2.19-3.65-4.44-2.12a9.35,9.35,0,0,0-3.71,7.64l-23.18,15.69c-.21-2.7-2.19-3.65-4.44-2.13a9.38,9.38,0,0,0-3.71,7.64l-7.17,4.86-.36-4.74,15.81-14.44Z" transform="translate(19.42)"/></g><polygon class="cls-40" points="140.99 113.4 141.32 114.83 135.3 118.91 133.82 118.26 140.99 113.4"/><polygon class="cls-44" points="149.27 99.09 125.94 87.67 133.14 74.92 152.84 84.58 149.27 99.09"/><polygon class="cls-43" points="127.1 88.31 133.63 76.51 151.43 85.23 148.16 98.54 127.1 88.31"/><polygon class="cls-42" points="152.84 84.58 133.14 74.92 157.94 58.13 177.65 67.79 152.84 84.58"/><polygon class="cls-43" points="177.65 67.79 184.3 75.38 149.27 99.09 152.84 84.58 177.65 67.79"/><polygon class="cls-45" points="133.75 118.53 130.5 116.94 130.45 116.29 133.7 117.88 133.75 118.53"/><polygon class="cls-23" points="133.7 117.88 130.45 116.29 131.58 115.53 134.83 117.12 133.7 117.88"/><polygon class="cls-46" points="134.83 117.12 134.88 117.76 133.75 118.53 133.7 117.88 134.83 117.12"/><polygon class="cls-45" points="185.94 82.81 185.41 82.54 185.36 81.89 185.89 82.16 185.94 82.81"/><polygon class="cls-23" points="185.89 82.16 185.36 81.89 186.49 81.13 187.02 81.4 185.89 82.16"/><polygon class="cls-46" points="187.02 81.4 187.07 82.04 185.94 82.81 185.89 82.16 187.02 81.4"/><polygon class="cls-45" points="113.13 108.51 109.88 106.92 109.83 106.28 113.08 107.86 113.13 108.51"/><polygon class="cls-23" points="113.08 107.86 109.83 106.28 110.17 106.05 113.42 107.64 113.08 107.86"/><polygon class="cls-46" points="113.42 107.64 113.47 108.28 113.13 108.51 113.08 107.86 113.42 107.64"/><polygon class="cls-47" points="176.79 69.33 182.92 76.35 173.1 82.99 168.69 74.82 176.79 69.33"/><polygon class="cls-47" points="167.74 75.46 172.15 83.63 162.82 89.95 160.36 80.46 167.74 75.46"/><polygon class="cls-47" points="159.35 81.14 161.81 90.63 150.91 98.01 153.79 84.9 159.35 81.14"/><polygon class="cls-48" points="133.76 113.91 133.48 113.77 134.44 114.19 134.72 114.33 133.76 113.91"/><polygon class="cls-49" points="134.03 117.55 130.49 115.81 130.22 112.18 133.76 113.91 134.03 117.55"/><polygon class="cls-11" points="133.7 117.77 130.16 116.04 129.89 112.4 133.43 114.14 133.7 117.77"/><polygon class="cls-48" points="129.89 112.4 130.22 112.18 133.76 113.91 133.43 114.14 129.89 112.4"/><polygon class="cls-40" points="134.72 114.33 133.76 113.91 133.43 114.14 133.7 117.77 134.03 117.55 134.92 116.95 134.72 114.33"/><path class="cls-49" d="M131.45,106.72l-.6-8.38v0l2.93-13.58,6.61-4.49,2.76,9.89.6,8.27Zm-.39-8.37.57,8,11.92-8.06L143,90.17l-2.68-9.6L134,84.86Z" transform="translate(19.42)"/><path class="cls-49" d="M143.56,98.54l-.6-8.37-2.74-9.8,8.42-5.7,4.66,8.58.28,3.78-1,2.59-.2,2.93Zm-3.1-18.09,2.7,9.69.58,8,8.47-5.74.2-2.87,1-2.56-.28-3.69L148.57,75Z" transform="translate(19.42)"/><path class="cls-42" d="M142.48,91.92l0,.59a.71.71,0,0,1-.29.59l-1.36.92c-.17.12-.33,0-.34-.16l0-.59Z" transform="translate(19.42)"/><path class="cls-39" d="M140.49,93.27l0,.59,1.36-.93a.71.71,0,0,0,.29-.59v-.2Z" transform="translate(19.42)"/><path class="cls-42" d="M152.84,84.92l0,.58a.75.75,0,0,1-.29.59l-1.36.92c-.18.12-.33,0-.35-.16l0-.58Z" transform="translate(19.42)"/><path class="cls-39" d="M150.84,86.27l0,.58,1.37-.93a.74.74,0,0,0,.29-.59l0-.2Z" transform="translate(19.42)"/><polygon class="cls-50" points="134.29 76.84 128.42 87.08 139.31 79.7 139.37 79.33 134.29 76.84"/><polygon class="cls-49" points="113.72 107.67 110.17 105.94 109.9 102.31 113.45 104.04 113.72 107.67"/><polygon class="cls-11" points="113.38 107.9 109.84 106.17 109.57 102.53 113.11 104.27 113.38 107.9"/><polygon class="cls-48" points="109.57 102.53 109.9 102.31 113.45 104.04 113.11 104.27 109.57 102.53"/><polygon class="cls-40" points="113.45 104.04 113.72 107.67 113.38 107.9 113.11 104.27 113.45 104.04"/><polygon class="cls-48" points="110.15 102.42 109.9 102.31 110.16 102.43 110.15 102.42"/><polygon class="cls-51" points="127.47 114.09 115.58 108.3 115.82 106.93 126.98 112.37 127.47 114.09"/><polygon class="cls-42" points="115.82 106.93 116.15 106.7 127.32 112.14 126.98 112.37 115.82 106.93"/><polygon class="cls-43" points="127.32 112.14 127.8 113.86 127.47 114.09 126.98 112.37 127.32 112.14"/><polygon class="cls-52" points="185.79 81.84 185.35 81.63 185.15 79.01 185.59 79.22 185.79 81.84"/><polygon class="cls-48" points="185.59 79.22 185.15 79.01 185.96 77.39 186.4 77.61 185.59 79.22"/><polygon class="cls-40" points="186.74 77.38 186.4 77.61 185.59 79.22 185.79 81.84 186.67 81.25 187 81.02 186.74 77.38"/><polygon class="cls-48" points="185.93 76.99 185.96 77.39 186.4 77.61 186.74 77.38 185.93 76.99"/><path class="cls-49" d="M113.85,112.2l-.06,0L92.66,101.83l14-12.83.06,0L127.9,99.37ZM93,101.78,113.82,112l13.73-12.53L106.74,89.24Z" transform="translate(19.42)"/><polygon class="cls-6" points="46.1 156.73 43.82 157.54 40.98 156.7 40.98 157.52 43.82 158.37 46.1 157.56 49.57 158.18 52 158.36 46.1 156.73"/><polygon class="cls-6" points="36 157.34 38.22 157.15 41.69 155.01 42.28 150.02 44.36 149.54 50.22 147.38 42.28 149.19 41.69 154.18 38.22 156.32 36 156.51 34.11 155.43 34.11 156.25 36 157.34"/><polygon class="cls-6" points="34.58 157.34 33.45 156.39 34.58 157.34 32.19 157.79 32.14 158.11 33.22 158.42 34.58 158.16 34.58 157.34"/><polygon class="cls-6" points="38.05 159.81 38.5 159.3 35.38 159.04 38.05 159.81"/><polygon class="cls-6" points="43.47 150.7 44.09 154.66 40.98 156.7 44.21 154.58 43.47 149.87 43.47 150.7"/><polygon class="cls-6" points="35.29 155.44 36.95 155.46 33.58 154.72 33.01 155.23 32.48 154.49 32.2 155.33 33.03 156.03 33.6 155.2 35.29 155.44"/><polygon class="cls-6" points="39.45 158.22 37.38 158.13 39.45 158.22 44.49 159 45.61 158.36 44.49 159 39.45 158.22"/><polygon class="cls-6" points="41.05 150.99 40.82 150.6 40.9 150.47 40.9 149.64 40.57 150.18 41.38 151.56 41.02 150.16 41.05 150.99"/><polygon class="cls-6" points="41.36 150.18 41.42 148.54 42.48 148.2 42.15 148.31 42.26 147.77 40.6 148.31 40.78 149.08 41.41 148.88 41.36 150.18"/><polygon class="cls-6" points="42.6 148.16 43.05 148.02 41.3 145.33 42.19 147.59 42.13 147.43 42.6 148.16"/><polygon class="cls-6" points="46.74 161.85 44.17 161.46 42.81 159.57 39.9 158.77 40.31 160.02 42.34 160.25 43.09 161.27 45.15 161.86 46.74 161.85"/><polygon class="cls-6" points="39.19 160.14 39.49 160.23 39.32 159.44 39.19 160.14"/><path class="cls-17" d="M24.4,158.37l-2.84-.85v-.82l3.11-2-.63-4v-.83l.9-.33-2.08.48-.59,5-3.48,2.14-2.21.19-1.89-1.09v-.82h1.18l-1.69-.24-.57.83.42.36,1.13.94v.83l-1.37.26,1.25.36,1.18-.73,1.74.08,2.06.09,5.05.78,1.12-.64.73-.43,4.2.42-1-.17-3.47-.63Zm-.51-3.7a.08.08,0,0,1,0,.13s-.05,0-.07,0a.36.36,0,0,0-.37.08.24.24,0,0,1-.08.06.2.2,0,0,1-.18,0c-.07,0-.15-.11-.14-.19s.16-.12.26-.11l.61,0,0,0ZM23.5,152c.1.05.11.28.14.39s.13.31.18.48a1.71,1.71,0,0,1,.07.59c0,.07-.29.47-.38.33s-.07-.58-.15-.87-.14-.28-.18-.43S23.24,151.82,23.5,152Zm-.42-1.14.07-.14s.08-.1.14-.08a.12.12,0,0,1,0,.1.32.32,0,0,1-.15.25c-.06,0-.15,0-.16,0A.1.1,0,0,1,23.08,150.84Zm-7.43,6.25c.14.12.25.37.07.43s-.15-.07-.19-.14a.43.43,0,0,1-.07-.2C15.44,157,15.55,157,15.65,157.09Zm4.2.67a.12.12,0,0,1-.14,0,.3.3,0,0,1-.08-.16,1.22,1.22,0,0,1-.07-.17c0-.11,0-.21.15-.16s.16.27.19.36A.13.13,0,0,1,19.85,157.76Zm1.33-1.18a.27.27,0,0,1-.07.13.11.11,0,0,1-.13,0,.15.15,0,0,1-.05-.13.59.59,0,0,1,.33-.51c.21-.09.47-.05.67-.16s.24-.21.33-.16,0,.18,0,.25c-.14.23-.41.16-.63.2A.64.64,0,0,0,21.18,156.58Zm4.76,1.75c-.21.34-.72,0-1,.39a.31.31,0,0,1-.07.09.08.08,0,0,1-.1,0c-.05,0,0-.09,0-.14a.69.69,0,0,1,.46-.35l.36-.08a1.88,1.88,0,0,1,.3-.12C26,158.14,26,158.21,25.94,158.33Z" transform="translate(19.42)"/><polygon class="cls-17" points="42.48 148.2 42.6 148.16 42.13 147.43 42.19 147.59 42.26 147.77 42.15 148.31 42.48 148.2"/><path class="cls-17" d="M21.48,150.47l-.08.13.23.39,0-.83.34,0,0-1.3-.63.2.13.56Zm.19-1.08s.13-.08.16,0a.11.11,0,0,1,0,.11l0,.16c0,.05,0,.13-.1.12a.1.1,0,0,1-.07-.08A.28.28,0,0,1,21.67,149.39Z" transform="translate(19.42)"/><path class="cls-18" d="M23.18,152.47c0,.15.13.28.18.43s0,.63.15.87.37-.26.38-.33a1.71,1.71,0,0,0-.07-.59c-.05-.17-.12-.32-.18-.48s0-.34-.14-.39C23.24,151.82,23.14,152.31,23.18,152.47Z" transform="translate(19.42)"/><path class="cls-18" d="M15.53,157.38c0,.07.11.16.19.14s.07-.31-.07-.43-.21-.11-.19.09A.43.43,0,0,0,15.53,157.38Z" transform="translate(19.42)"/><path class="cls-18" d="M25.89,158.14a1.88,1.88,0,0,0-.3.12l-.36.08a.69.69,0,0,0-.46.35c0,.05,0,.11,0,.14a.08.08,0,0,0,.1,0,.31.31,0,0,0,.07-.09c.25-.39.76-.05,1-.39C26,158.21,26,158.14,25.89,158.14Z" transform="translate(19.42)"/><path class="cls-18" d="M22.25,156c0-.07.1-.21,0-.25s-.26.12-.33.16-.46.07-.67.16a.59.59,0,0,0-.33.51.15.15,0,0,0,.05.13.11.11,0,0,0,.13,0,.27.27,0,0,0,.07-.13.64.64,0,0,1,.44-.34C21.84,156.2,22.11,156.27,22.25,156Z" transform="translate(19.42)"/><path class="cls-18" d="M19.71,157.27c-.11-.05-.18,0-.15.16a1.22,1.22,0,0,0,.07.17.3.3,0,0,0,.08.16.12.12,0,0,0,.14,0,.13.13,0,0,0,0-.13C19.87,157.54,19.8,157.31,19.71,157.27Z" transform="translate(19.42)"/><path class="cls-18" d="M21.68,149.75c.06,0,.09-.07.1-.12l0-.16a.11.11,0,0,0,0-.11c0-.05-.12,0-.16,0a.28.28,0,0,0-.06.28A.1.1,0,0,0,21.68,149.75Z" transform="translate(19.42)"/><path class="cls-18" d="M23.18,151a.32.32,0,0,0,.15-.25.12.12,0,0,0,0-.1c-.06,0-.11,0-.14.08l-.07.14a.1.1,0,0,0-.06.1C23,151,23.12,151,23.18,151Z" transform="translate(19.42)"/><path class="cls-18" d="M23.3,154.6c-.1,0-.23,0-.26.11s.07.15.14.19a.2.2,0,0,0,.18,0,.24.24,0,0,0,.08-.06.36.36,0,0,1,.37-.08s.05,0,.07,0a.08.08,0,0,0,0-.13s0,0,0,0Z" transform="translate(19.42)"/></g></g></g></g></svg>