<svg id="Capa_1" data-name="Capa 1" xmlns="http://www.w3.org/2000/svg" viewBox="0 0 168.93 123.41"><defs><style>.cls-1{opacity:0.3;}.cls-2{fill:#fff;}.cls-3{fill:#96989b;}.cls-4{fill:#231f20;}.cls-5{stroke:#000;stroke-miterlimit:10;stroke-width:0.26px;}</style></defs><path class="cls-1" d="M4.93,17C12.2,5.82,29.18,9.76,42.15,9.73q3.49-.08,7.14-.24c17-.73,36.1-2.52,51.86-1.21a81.6,81.6,0,0,1,10.61,1.51c31.28,10.75,20.16,49.1,18.36,69.29,4.69,5.85,13.75,13.12,30.42,14.84,0,0-16.76,1.35-29.73,5.59-.58,7.51-3.55,14.46-14.74,19.25a35.05,35.05,0,0,1-8.92,1c-3.31.12-6.53.12-9.7.07s-6.31-.16-9.45-.29c-9.24-.77-18.57-.39-27.89,0l-7,.32c-15.36-.41-36.2,6.27-44.69-7.83C-2.37,95,4.58,74.24,2,55.22c-.26-2.09-.52-4.17-.67-6.22C.88,42.84,1.29,22.22,4.93,17Z"/><path class="cls-2" d="M9.8,10.41C17.08-.75,34.05,3.19,47,3.17c2.32,0,4.7-.14,7.13-.24C71.15,2.19,90.27.41,106,1.71a81.31,81.31,0,0,1,10.61,1.52C144.1,12.67,138.88,46.74,136,65a14.57,14.57,0,0,0,6,14.09c5.28,3.81,12.82,7.17,23.48,8.27a169.4,169.4,0,0,0-23.51,3.82,9.59,9.59,0,0,0-7,6.71c-1.51,5.58-5.24,10.6-13.92,14.32a35.19,35.19,0,0,1-8.93,1c-3.3.12-6.52.13-9.7.07s-6.31-.16-9.44-.28c-9.25-.78-18.58-.4-27.89,0-2.33.11-4.66.23-7,.32-15.37-.4-36.21,6.28-44.7-7.82C2.51,88.46,9.45,67.68,6.89,48.66c-.26-2.1-.51-4.18-.67-6.23C5.76,36.28,6.16,15.66,9.8,10.41Z"/><path class="cls-3" d="M136.4,71.3a14.43,14.43,0,0,1-3.31-11.63c1.67-10.51,4.09-36.1.62-45.24C141.1,24.47,138,52.36,136,65A14.27,14.27,0,0,0,136.4,71.3Z"/><path class="cls-3" d="M55.11,108l7-.32c9.32-.44,18.65-.81,27.9,0,3.13.12,6.26.24,9.44.29s6.39,0,9.7-.07a35.5,35.5,0,0,0,8.92-1c8.69-3.72,12.42-8.74,13.93-14.31a9.57,9.57,0,0,1,7-6.71c3.8-.94,7.64-1.68,11.08-2.24a53.62,53.62,0,0,0,15.32,3.74,169.4,169.4,0,0,0-23.51,3.82,9.59,9.59,0,0,0-7,6.71c-1.51,5.58-5.24,10.6-13.92,14.32a35.19,35.19,0,0,1-8.93,1c-3.3.12-6.52.13-9.7.07s-6.31-.16-9.44-.28c-9.25-.78-18.58-.4-27.89,0-2.33.11-4.66.23-7,.32-15.37-.4-36.21,6.28-44.7-7.82a36.64,36.64,0,0,1-2.55-4.82C19.44,114.13,39.94,107.64,55.11,108Z"/><path class="cls-4" d="M12.52,106C5.35,94.66,5.85,81.59,6.34,69c.25-6.69.52-13.61-.37-20.19-.26-2.13-.51-4.22-.67-6.26C4.88,36.93,5,15.75,9,9.93,15.11.62,27.67,1.33,38.75,2c2.91.17,5.66.32,8.26.32,2.16,0,4.48-.12,7.11-.24,4.1-.18,8.42-.42,12.6-.66C80.18.62,94.09-.17,106.1.83a82,82,0,0,1,10.74,1.53l.1,0c26.43,9.08,23.43,41.8,20.53,59.21-.2,1.18-.39,2.36-.58,3.53a13.66,13.66,0,0,0,5.6,13.24c6.15,4.43,12,6.94,21.16,7.88l4.24.54c-.12,0-14.22,2.79-25.55,5.6-3.14.78-5.78,2.75-6.58,5.72-1.82,6.72-6.4,11.46-14.44,14.9l-.14,0a36.64,36.64,0,0,1-9.12,1.06c-3,.11-6.21.13-9.75.07-3.27-.05-6.47-.17-9.51-.29-8.93-.74-17.86-.42-27.77,0l-1.5.07-5.55.25a118,118,0,0,0-12.24.59c-3.92.32-7.87.65-11.68.65C25.19,115.49,17.17,113.72,12.52,106ZM58,112.48l5.47-.25,1.5-.07c10-.47,19-.79,28,0,3,.12,6.18.23,9.43.29,3.5.06,6.66,0,9.69-.08a33.88,33.88,0,0,0,8.61-1c7.44-3.19,11.68-7.55,13.34-13.69a10.51,10.51,0,0,1,7.7-7.35,161.41,161.41,0,0,1,17-3.11,45.61,45.61,0,0,1-17.33-7.41,15.41,15.41,0,0,1-6.31-14.93c.18-1.18.38-2.36.58-3.54,2.9-17.45,5.64-48.65-19.27-57.24A81.4,81.4,0,0,0,105.94,2.6c-11.88-1-25.72-.2-39.11.55-4.19.24-8.51.49-12.63.66-2.64.12-5,.2-7.17.25-2.68,0-5.45-.16-8.39-.33C27.55,3.1,16.08,2.45,10.58,10.88v0C6.84,16.28,6.75,37.1,7.15,42.37c.15,2,.39,4.07.65,6.17.91,6.72.64,13.71.38,20.48-.5,12.94-1,25.17,5.93,36.07,6.06,10.07,19,9,31.48,8,3.84-.31,7.49-.61,10.92-.61Z"/><path class="cls-5" d="M31.46,36.79a.2.2,0,0,1,0,.11.24.24,0,0,1-.13.08,1.11,1.11,0,0,1-.24.05,2,2,0,0,1-.37,0,2,2,0,0,1-.37,0,1.11,1.11,0,0,1-.24-.05A.25.25,0,0,1,30,36.9a.21.21,0,0,1,0-.11V30.3h0L27.6,36.79a.57.57,0,0,1-.08.13.53.53,0,0,1-.15.08.87.87,0,0,1-.25,0h-.71l-.25,0A.54.54,0,0,1,26,36.9a.26.26,0,0,1-.07-.11L23.71,30.3h0v6.49a.2.2,0,0,1,0,.11s-.06.06-.13.08L23.3,37a2.12,2.12,0,0,1-.38,0,2,2,0,0,1-.37,0,1,1,0,0,1-.23-.05c-.06,0-.11,0-.13-.08a.2.2,0,0,1,0-.11V29.68a.65.65,0,0,1,.16-.48.63.63,0,0,1,.45-.17h1.06a2.31,2.31,0,0,1,.49,0,1,1,0,0,1,.35.15.85.85,0,0,1,.24.29,1.74,1.74,0,0,1,.18.43l1.72,4.76h0L28.63,30a2.57,2.57,0,0,1,.17-.43,1,1,0,0,1,.23-.29.62.62,0,0,1,.3-.16,1.5,1.5,0,0,1,.4,0h1.09a.88.88,0,0,1,.29,0,.41.41,0,0,1,.19.12.72.72,0,0,1,.12.21.77.77,0,0,1,0,.27Z"/><path class="cls-5" d="M34.78,29.44a.92.92,0,0,1-.19.65,1.06,1.06,0,0,1-.71.18,1,1,0,0,1-.71-.18.83.83,0,0,1-.18-.62.87.87,0,0,1,.19-.65,1,1,0,0,1,.71-.18,1.06,1.06,0,0,1,.7.17A.83.83,0,0,1,34.78,29.44Zm-.12,7.36a.14.14,0,0,1,0,.11.23.23,0,0,1-.12.08,1.11,1.11,0,0,1-.24,0h-.75a1.11,1.11,0,0,1-.24,0,.32.32,0,0,1-.13-.08.18.18,0,0,1,0-.11V31.31a.17.17,0,0,1,0-.1.32.32,0,0,1,.13-.08,1,1,0,0,1,.24-.06h.75a1,1,0,0,1,.24.06.23.23,0,0,1,.12.08.13.13,0,0,1,0,.1Z"/><path class="cls-5" d="M39.74,31.81c0,.15,0,.27,0,.37s0,.17,0,.22a.23.23,0,0,1-.07.11.17.17,0,0,1-.1,0l-.11,0-.14-.05-.17,0a.68.68,0,0,0-.21,0,.56.56,0,0,0-.25.05,1,1,0,0,0-.27.16,2.81,2.81,0,0,0-.29.3,4.32,4.32,0,0,0-.33.46V36.8a.18.18,0,0,1,0,.11.32.32,0,0,1-.13.08,1.11,1.11,0,0,1-.24,0h-.75a1.11,1.11,0,0,1-.24,0,.23.23,0,0,1-.12-.08.14.14,0,0,1,0-.11V31.3a.23.23,0,0,1,0-.11.23.23,0,0,1,.11-.07.81.81,0,0,1,.21-.05h.64a.64.64,0,0,1,.2.05.3.3,0,0,1,.11.07.23.23,0,0,1,0,.11V32a3.36,3.36,0,0,1,.4-.51,2.05,2.05,0,0,1,.37-.32,1,1,0,0,1,.34-.16A1.41,1.41,0,0,1,39,31h.17l.19,0,.17.05.11.06a.12.12,0,0,1,0,.07.62.62,0,0,1,0,.1s0,.11,0,.19Z"/><path class="cls-5" d="M45.11,36.82a.17.17,0,0,1-.06.14.42.42,0,0,1-.2.07l-.39,0-.4,0a.3.3,0,0,1-.18-.07.16.16,0,0,1-.05-.14v-.44a2.38,2.38,0,0,1-.78.57,2.18,2.18,0,0,1-1,.21,2.64,2.64,0,0,1-.81-.12,1.75,1.75,0,0,1-.63-.34,1.48,1.48,0,0,1-.42-.56,1.86,1.86,0,0,1-.15-.77,1.74,1.74,0,0,1,.19-.84,1.55,1.55,0,0,1,.56-.58,2.82,2.82,0,0,1,.93-.35,7,7,0,0,1,1.29-.11h.54v-.33a1.53,1.53,0,0,0-.06-.45.74.74,0,0,0-.17-.33.78.78,0,0,0-.32-.19,1.75,1.75,0,0,0-.5-.06,2.4,2.4,0,0,0-.69.09,3.4,3.4,0,0,0-.54.19,3.6,3.6,0,0,0-.39.19.54.54,0,0,1-.26.08.19.19,0,0,1-.12,0,.36.36,0,0,1-.08-.12,1,1,0,0,1-.06-.2,2,2,0,0,1,0-.26.8.8,0,0,1,0-.3.49.49,0,0,1,.11-.2,1.1,1.1,0,0,1,.31-.2,3.46,3.46,0,0,1,.5-.2A4.87,4.87,0,0,1,42,31a4.17,4.17,0,0,1,.71-.06,4,4,0,0,1,1.11.13,1.79,1.79,0,0,1,.75.39,1.47,1.47,0,0,1,.43.67,3.17,3.17,0,0,1,.14,1Zm-1.52-2.35H43a3.87,3.87,0,0,0-.64.05,1.21,1.21,0,0,0-.43.17.62.62,0,0,0-.24.27.8.8,0,0,0-.08.36.67.67,0,0,0,.22.54.9.9,0,0,0,.61.2,1.16,1.16,0,0,0,.6-.17,2.42,2.42,0,0,0,.56-.49Z"/><path class="cls-5" d="M48.48,35.88a3.24,3.24,0,0,1,0,.45,2.33,2.33,0,0,1-.08.38,3.45,3.45,0,0,1-.14.34,2.25,2.25,0,0,1-.22.35l-.82,1.19-.1.1-.13.07-.18,0-.26,0-.29,0a.43.43,0,0,1-.16,0,.09.09,0,0,1,0-.08.15.15,0,0,1,0-.11l.76-1.71v-1a.84.84,0,0,1,0-.34.38.38,0,0,1,.15-.2.85.85,0,0,1,.27-.09l.38,0,.37,0a.79.79,0,0,1,.26.09.38.38,0,0,1,.15.2A1.09,1.09,0,0,1,48.48,35.88Z"/><path class="cls-5" d="M57.85,33.89a.62.62,0,0,1-.12.42.47.47,0,0,1-.35.14H54a2.55,2.55,0,0,0,.08.64,1.25,1.25,0,0,0,.27.48,1.11,1.11,0,0,0,.47.31,2,2,0,0,0,.68.1,5,5,0,0,0,.72,0c.21,0,.38-.09.53-.13l.38-.13a.69.69,0,0,1,.24-.06l.09,0a.18.18,0,0,1,.06.08.46.46,0,0,1,0,.15v.49c0,.06,0,.12,0,.16a.34.34,0,0,1,0,.12.47.47,0,0,1-.06.09.77.77,0,0,1-.22.12l-.46.14a4.43,4.43,0,0,1-.63.12,4.72,4.72,0,0,1-.77.06A4.06,4.06,0,0,1,54.11,37a2.3,2.3,0,0,1-.93-.56,2.41,2.41,0,0,1-.55-.95,4.48,4.48,0,0,1-.18-1.34,4.23,4.23,0,0,1,.19-1.33,2.79,2.79,0,0,1,.56-1,2.31,2.31,0,0,1,.88-.62A3,3,0,0,1,55.26,31a3.2,3.2,0,0,1,1.18.2,2.24,2.24,0,0,1,.8.57,2.27,2.27,0,0,1,.47.85,4.09,4.09,0,0,1,.14,1.08Zm-1.5-.44a1.66,1.66,0,0,0-.26-1,1,1,0,0,0-.87-.37,1.21,1.21,0,0,0-.52.11,1,1,0,0,0-.36.3,1.21,1.21,0,0,0-.22.44,2.43,2.43,0,0,0-.09.55Z"/><path class="cls-5" d="M63,35.25a2,2,0,0,1-.17.83,1.69,1.69,0,0,1-.5.6,2.23,2.23,0,0,1-.76.36,3.58,3.58,0,0,1-1,.12,3.81,3.81,0,0,1-.59,0,3.33,3.33,0,0,1-.5-.12,1.92,1.92,0,0,1-.37-.14,1.21,1.21,0,0,1-.22-.14.42.42,0,0,1-.1-.2,2,2,0,0,1,0-.41,2.07,2.07,0,0,1,0-.29.65.65,0,0,1,0-.17.17.17,0,0,1,.06-.09.16.16,0,0,1,.1,0,.47.47,0,0,1,.2.07,2.5,2.5,0,0,0,.33.17A3,3,0,0,0,60,36a2.1,2.1,0,0,0,.59.08A1.32,1.32,0,0,0,61,36a.84.84,0,0,0,.29-.12.49.49,0,0,0,.18-.2.68.68,0,0,0,.06-.29.47.47,0,0,0-.11-.31,1.22,1.22,0,0,0-.3-.24l-.43-.18-.49-.19a4.3,4.3,0,0,1-.48-.24,1.74,1.74,0,0,1-.43-.34,1.35,1.35,0,0,1-.3-.47,1.71,1.71,0,0,1-.12-.67A1.58,1.58,0,0,1,59,32a1.62,1.62,0,0,1,.44-.57,2.37,2.37,0,0,1,.71-.36,3,3,0,0,1,.93-.13,3.89,3.89,0,0,1,1,.13l.33.12a.73.73,0,0,1,.19.11l.09.09a.42.42,0,0,1,0,.12,1.57,1.57,0,0,1,0,.16v.5c0,.07,0,.13,0,.17a.18.18,0,0,1-.06.08.16.16,0,0,1-.09,0,.5.5,0,0,1-.17-.07l-.3-.14c-.11,0-.25-.09-.4-.14a2.15,2.15,0,0,0-.53-.06,1.28,1.28,0,0,0-.36,0,.64.64,0,0,0-.26.13.49.49,0,0,0-.14.18.48.48,0,0,0-.05.23.47.47,0,0,0,.11.33,1.07,1.07,0,0,0,.31.22,3.05,3.05,0,0,0,.44.19l.49.19a3.12,3.12,0,0,1,.49.23,2.15,2.15,0,0,1,.44.34,1.74,1.74,0,0,1,.31.47A1.8,1.8,0,0,1,63,35.25Z"/><path class="cls-5" d="M67.28,36.26a2.26,2.26,0,0,1,0,.42.41.41,0,0,1-.09.2A.5.5,0,0,1,67,37l-.26.08-.31,0-.34,0a2.36,2.36,0,0,1-.8-.12,1.39,1.39,0,0,1-.57-.36,1.61,1.61,0,0,1-.32-.61,3.25,3.25,0,0,1-.11-.88V32.35h-.66c-.08,0-.13-.05-.18-.14a1.42,1.42,0,0,1-.06-.49,2.36,2.36,0,0,1,0-.3.69.69,0,0,1,0-.19.24.24,0,0,1,.08-.11.2.2,0,0,1,.11,0h.65V29.87a.17.17,0,0,1,0-.12.23.23,0,0,1,.12-.08,1.11,1.11,0,0,1,.24-.05h.75a1.11,1.11,0,0,1,.24.05.23.23,0,0,1,.12.08.17.17,0,0,1,0,.12v1.22H67a.23.23,0,0,1,.11,0,.23.23,0,0,1,.07.11.64.64,0,0,1,0,.19,2.63,2.63,0,0,1,0,.3,1.42,1.42,0,0,1-.06.49.2.2,0,0,1-.18.14h-1.2v2.59a1.31,1.31,0,0,0,.14.67.57.57,0,0,0,.51.23.78.78,0,0,0,.22,0l.18,0,.13-.05.09,0a.09.09,0,0,1,.07,0s0,0,.06.08,0,.1,0,.18A2.27,2.27,0,0,1,67.28,36.26Z"/><path class="cls-5" d="M73.34,33.89a.62.62,0,0,1-.13.42.47.47,0,0,1-.35.14H69.51a2.55,2.55,0,0,0,.08.64,1.25,1.25,0,0,0,.27.48,1.11,1.11,0,0,0,.47.31A2,2,0,0,0,71,36a4.83,4.83,0,0,0,.71,0c.21,0,.39-.09.54-.13l.37-.13a.69.69,0,0,1,.24-.06l.09,0a.1.1,0,0,1,.06.08.46.46,0,0,1,0,.15c0,.07,0,.16,0,.26s0,.17,0,.23a.7.7,0,0,1,0,.16.34.34,0,0,1,0,.12.24.24,0,0,1-.06.09.77.77,0,0,1-.22.12l-.46.14a4.43,4.43,0,0,1-.63.12,4.63,4.63,0,0,1-.77.06A4.15,4.15,0,0,1,69.59,37a2.2,2.2,0,0,1-.92-.56,2.42,2.42,0,0,1-.56-.95,4.48,4.48,0,0,1-.18-1.34,4.54,4.54,0,0,1,.19-1.33,3,3,0,0,1,.56-1,2.39,2.39,0,0,1,.88-.62A3,3,0,0,1,70.74,31a3.2,3.2,0,0,1,1.18.2,2.19,2.19,0,0,1,.81.57,2.4,2.4,0,0,1,.46.85,3.71,3.71,0,0,1,.15,1.08Zm-1.51-.44a1.6,1.6,0,0,0-.26-1,1,1,0,0,0-.87-.37,1.13,1.13,0,0,0-.51.11,1,1,0,0,0-.37.3,1.4,1.4,0,0,0-.22.44,2.43,2.43,0,0,0-.09.55Z"/><path class="cls-5" d="M82.55,33.89a.57.57,0,0,1-.13.42.45.45,0,0,1-.35.14H78.73a2.16,2.16,0,0,0,.08.64,1.24,1.24,0,0,0,.26.48,1.17,1.17,0,0,0,.47.31,2,2,0,0,0,.69.1,5.08,5.08,0,0,0,.72,0l.53-.13.37-.13a.69.69,0,0,1,.24-.06l.1,0a.18.18,0,0,1,.06.08.49.49,0,0,1,0,.15,2,2,0,0,1,0,.26,1.55,1.55,0,0,1,0,.23c0,.06,0,.12,0,.16a.34.34,0,0,1,0,.12l-.07.09a.67.67,0,0,1-.21.12l-.46.14a4.89,4.89,0,0,1-.64.12,4.51,4.51,0,0,1-.76.06A4.17,4.17,0,0,1,78.8,37a2.26,2.26,0,0,1-.92-.56,2.29,2.29,0,0,1-.55-.95,4.48,4.48,0,0,1-.18-1.34,4.23,4.23,0,0,1,.19-1.33,2.93,2.93,0,0,1,.55-1,2.42,2.42,0,0,1,.89-.62A2.94,2.94,0,0,1,80,31a3.16,3.16,0,0,1,1.18.2,2.19,2.19,0,0,1,.81.57,2.26,2.26,0,0,1,.46.85,3.71,3.71,0,0,1,.15,1.08ZM81,33.45a1.54,1.54,0,0,0-.26-1,1,1,0,0,0-.86-.37,1.21,1.21,0,0,0-.52.11,1,1,0,0,0-.36.3,1.21,1.21,0,0,0-.22.44,1.67,1.67,0,0,0-.09.55Z"/><path class="cls-5" d="M87.7,35.25a1.84,1.84,0,0,1-.18.83,1.67,1.67,0,0,1-.49.6,2.32,2.32,0,0,1-.76.36,3.58,3.58,0,0,1-1,.12,3.7,3.7,0,0,1-.59,0,3.06,3.06,0,0,1-.5-.12,1.92,1.92,0,0,1-.37-.14,1.21,1.21,0,0,1-.22-.14.42.42,0,0,1-.1-.2,1.48,1.48,0,0,1,0-.41,2.36,2.36,0,0,1,0-.29.61.61,0,0,1,0-.17.13.13,0,0,1,.06-.09.13.13,0,0,1,.09,0,.4.4,0,0,1,.2.07,2.5,2.5,0,0,0,.33.17,4,4,0,0,0,.46.18,2.23,2.23,0,0,0,.6.08,1.38,1.38,0,0,0,.37-.05.84.84,0,0,0,.29-.12.49.49,0,0,0,.18-.2.68.68,0,0,0,.06-.29.43.43,0,0,0-.12-.31.93.93,0,0,0-.3-.24l-.42-.18-.49-.19a4.44,4.44,0,0,1-.49-.24,1.8,1.8,0,0,1-.73-.81,1.92,1.92,0,0,1-.11-.67,1.72,1.72,0,0,1,.15-.72,1.78,1.78,0,0,1,.45-.57,2.31,2.31,0,0,1,.7-.36,3.05,3.05,0,0,1,.94-.13,2.74,2.74,0,0,1,.5,0,2.63,2.63,0,0,1,.44.09l.34.12a1,1,0,0,1,.19.11.22.22,0,0,1,.08.09.42.42,0,0,1,0,.12.63.63,0,0,1,0,.16,1.55,1.55,0,0,1,0,.23,2.1,2.1,0,0,1,0,.27.4.4,0,0,1,0,.17.1.1,0,0,1-.06.08.11.11,0,0,1-.08,0,.53.53,0,0,1-.18-.07l-.29-.14-.41-.14a2.06,2.06,0,0,0-.52-.06,1.35,1.35,0,0,0-.37,0,.66.66,0,0,0-.25.13.43.43,0,0,0-.15.18.64.64,0,0,0-.05.23.48.48,0,0,0,.12.33,1.07,1.07,0,0,0,.31.22,2.91,2.91,0,0,0,.43.19l.5.19a3.6,3.6,0,0,1,.49.23,2.08,2.08,0,0,1,.43.34,1.54,1.54,0,0,1,.31.47A1.6,1.6,0,0,1,87.7,35.25Z"/><path class="cls-5" d="M98,36.79a.15.15,0,0,1,0,.11s-.07.06-.13.08a1.09,1.09,0,0,1-.25.05,2.12,2.12,0,0,1-.38,0,2.3,2.3,0,0,1-.4,0,1.09,1.09,0,0,1-.25-.05.24.24,0,0,1-.13-.08.21.21,0,0,1,0-.11V33.57h-3v3.22a.21.21,0,0,1,0,.11.24.24,0,0,1-.13.08A1.09,1.09,0,0,1,93,37a3.81,3.81,0,0,1-.78,0A1.09,1.09,0,0,1,92,37a.27.27,0,0,1-.14-.08.21.21,0,0,1,0-.11V29.25a.25.25,0,0,1,0-.11.37.37,0,0,1,.14-.08l.25,0H93l.25,0a.32.32,0,0,1,.13.08.25.25,0,0,1,0,.11v2.93h3V29.25a.25.25,0,0,1,0-.11.32.32,0,0,1,.13-.08l.25,0h.78l.25,0a.26.26,0,0,1,.13.08.17.17,0,0,1,0,.11Z"/><path class="cls-5" d="M101.36,29.44a.87.87,0,0,1-.19.65,1,1,0,0,1-.71.18,1,1,0,0,1-.7-.18.79.79,0,0,1-.19-.62.92.92,0,0,1,.19-.65,1.06,1.06,0,0,1,.71-.18,1.11,1.11,0,0,1,.71.17A.88.88,0,0,1,101.36,29.44Zm-.11,7.36a.18.18,0,0,1,0,.11.32.32,0,0,1-.13.08,1.11,1.11,0,0,1-.24,0h-.75a1.11,1.11,0,0,1-.24,0,.28.28,0,0,1-.12-.08.14.14,0,0,1,0-.11V31.31a.13.13,0,0,1,0-.1.28.28,0,0,1,.12-.08,1,1,0,0,1,.24-.06h.75a1,1,0,0,1,.24.06.32.32,0,0,1,.13.08.18.18,0,0,1,0,.1Z"/><path class="cls-5" d="M108,36.8a.21.21,0,0,1,0,.12.21.21,0,0,1-.1.08.88.88,0,0,1-.2,0H107a.88.88,0,0,1-.2,0,.24.24,0,0,1-.11-.08.21.21,0,0,1,0-.12v-.61a3.56,3.56,0,0,1-.89.71,2.14,2.14,0,0,1-1,.26,2.19,2.19,0,0,1-1.06-.25,2,2,0,0,1-.71-.65,2.92,2.92,0,0,1-.4-1,5.5,5.5,0,0,1-.12-1.16,4.87,4.87,0,0,1,.16-1.32,2.71,2.71,0,0,1,.46-1,2,2,0,0,1,.75-.64,2.28,2.28,0,0,1,1-.22,1.78,1.78,0,0,1,.83.19,3,3,0,0,1,.75.55v-3a.2.2,0,0,1,0-.11.32.32,0,0,1,.13-.08,1.11,1.11,0,0,1,.24-.05,2,2,0,0,1,.37,0,2.12,2.12,0,0,1,.38,0,1,1,0,0,1,.23.05.32.32,0,0,1,.13.08.2.2,0,0,1,0,.11Zm-1.54-3.67a3,3,0,0,0-.64-.64,1,1,0,0,0-.64-.23.91.91,0,0,0-.52.16,1.14,1.14,0,0,0-.35.4,2.48,2.48,0,0,0-.2.56,3.39,3.39,0,0,0-.06.64,5.06,5.06,0,0,0,0,.68,2.08,2.08,0,0,0,.19.58,1,1,0,0,0,.33.41.9.9,0,0,0,.53.15,1.06,1.06,0,0,0,.31,0,1.15,1.15,0,0,0,.31-.16,2,2,0,0,0,.33-.27,4.25,4.25,0,0,0,.36-.42Z"/><path class="cls-5" d="M113.11,31.81c0,.15,0,.27,0,.37s0,.17,0,.22a.23.23,0,0,1-.07.11.15.15,0,0,1-.1,0l-.11,0-.14-.05-.17,0a.65.65,0,0,0-.2,0,.6.6,0,0,0-.26.05,1,1,0,0,0-.27.16,2.81,2.81,0,0,0-.29.3,3.28,3.28,0,0,0-.32.46V36.8a.14.14,0,0,1,0,.11A.26.26,0,0,1,111,37a1,1,0,0,1-.23,0H110l-.23,0a.26.26,0,0,1-.13-.08.18.18,0,0,1,0-.11V31.3a.23.23,0,0,1,0-.11.23.23,0,0,1,.11-.07l.21-.05h.65a.83.83,0,0,1,.2.05.26.26,0,0,1,.1.07.23.23,0,0,1,0,.11V32a3.36,3.36,0,0,1,.41-.51,1.73,1.73,0,0,1,.36-.32A1.09,1.09,0,0,1,112,31a1.33,1.33,0,0,1,.34-.05h.17l.19,0,.18.05.11.06,0,.07a.87.87,0,0,1,0,.1.84.84,0,0,1,0,.19C113.1,31.55,113.11,31.67,113.11,31.81Z"/><path class="cls-5" d="M119.47,34a4.3,4.3,0,0,1-.18,1.28,2.79,2.79,0,0,1-.56,1,2.56,2.56,0,0,1-1,.65,3.58,3.58,0,0,1-1.32.23,3.54,3.54,0,0,1-1.28-.21,2.24,2.24,0,0,1-.9-.59,2.36,2.36,0,0,1-.53-1,4.25,4.25,0,0,1-.17-1.29,4.37,4.37,0,0,1,.18-1.29,2.81,2.81,0,0,1,.57-1,2.53,2.53,0,0,1,.94-.64,3.54,3.54,0,0,1,1.32-.23,3.74,3.74,0,0,1,1.28.2,2.21,2.21,0,0,1,.9.59,2.49,2.49,0,0,1,.53,1A4.6,4.6,0,0,1,119.47,34Zm-1.6.06a4.38,4.38,0,0,0-.06-.75,1.65,1.65,0,0,0-.22-.59,1.12,1.12,0,0,0-.41-.4,1.38,1.38,0,0,0-.64-.14,1.44,1.44,0,0,0-.61.12,1.15,1.15,0,0,0-.42.37,1.75,1.75,0,0,0-.25.59,3.1,3.1,0,0,0-.09.78,4.35,4.35,0,0,0,.07.75,2,2,0,0,0,.22.6,1.1,1.1,0,0,0,.41.39,1.38,1.38,0,0,0,.64.14,1.41,1.41,0,0,0,.61-.13,1,1,0,0,0,.43-.37,1.61,1.61,0,0,0,.24-.58A3.12,3.12,0,0,0,117.87,34.06Z"/><path class="cls-5" d="M122.53,36.13a1.11,1.11,0,0,1-.2.77,1.05,1.05,0,0,1-.72.19,1,1,0,0,1-.72-.19,1.06,1.06,0,0,1-.2-.74,1.11,1.11,0,0,1,.2-.77,1.43,1.43,0,0,1,1.44,0A1.07,1.07,0,0,1,122.53,36.13Z"/><path class="cls-5" d="M23.14,47.15a3.89,3.89,0,0,1-.21,1.32,2.6,2.6,0,0,1-1.68,1.59,4.9,4.9,0,0,1-2.77,0,2.86,2.86,0,0,1-1-.57,2.63,2.63,0,0,1-.63-.95,3.66,3.66,0,0,1-.22-1.34V42.37a.15.15,0,0,1,0-.11s.07-.06.13-.08l.25,0a2.24,2.24,0,0,1,.4,0,2.12,2.12,0,0,1,.38,0,1.09,1.09,0,0,1,.25,0c.06,0,.11,0,.13.08a.15.15,0,0,1,0,.11v4.71a2.49,2.49,0,0,0,.12.82,1.44,1.44,0,0,0,.34.58,1.31,1.31,0,0,0,.52.34,2,2,0,0,0,1.37,0,1.39,1.39,0,0,0,.51-.34,1.47,1.47,0,0,0,.32-.56,2.19,2.19,0,0,0,.12-.75v-4.8a.2.2,0,0,1,0-.11.24.24,0,0,1,.13-.08l.25,0a2.36,2.36,0,0,1,.4,0,2.12,2.12,0,0,1,.38,0,1.11,1.11,0,0,1,.24,0c.07,0,.11,0,.13.08a.15.15,0,0,1,0,.11Z"/><path class="cls-5" d="M30,49.92a.18.18,0,0,1,0,.1.21.21,0,0,1-.12.08,1.11,1.11,0,0,1-.24,0h-.75a1.11,1.11,0,0,1-.24,0,.18.18,0,0,1-.12-.08.13.13,0,0,1,0-.1V46.78a2.57,2.57,0,0,0-.06-.63,1.39,1.39,0,0,0-.17-.39A.73.73,0,0,0,28,45.5a.86.86,0,0,0-.41-.09,1.11,1.11,0,0,0-.6.22,2.85,2.85,0,0,0-.62.63v3.66a.18.18,0,0,1,0,.1.24.24,0,0,1-.13.08,1.11,1.11,0,0,1-.24,0h-.75a1.11,1.11,0,0,1-.24,0,.21.21,0,0,1-.12-.08.13.13,0,0,1,0-.1v-5.5a.18.18,0,0,1,0-.11.24.24,0,0,1,.11-.08l.21,0h.64a.64.64,0,0,1,.2,0,.24.24,0,0,1,.11.08.18.18,0,0,1,0,.11v.63a3.25,3.25,0,0,1,.93-.74A2.23,2.23,0,0,1,29,44.25a1.69,1.69,0,0,1,.62.5,2,2,0,0,1,.34.74,4.39,4.39,0,0,1,.11,1Z"/><path class="cls-5" d="M39.1,49.94a.16.16,0,0,1-.06.13.38.38,0,0,1-.19.07,2.07,2.07,0,0,1-.39,0,2.19,2.19,0,0,1-.41,0,.38.38,0,0,1-.18-.07.19.19,0,0,1,0-.13V49.5a2.45,2.45,0,0,1-.77.56,2.22,2.22,0,0,1-1,.21,2.53,2.53,0,0,1-.8-.12,1.69,1.69,0,0,1-.64-.33,1.56,1.56,0,0,1-.42-.56,2.09,2.09,0,0,1-.14-.78,1.86,1.86,0,0,1,.18-.84,1.58,1.58,0,0,1,.57-.58,2.49,2.49,0,0,1,.92-.34A6.16,6.16,0,0,1,37,46.6h.54v-.33a2,2,0,0,0,0-.45.76.76,0,0,0-.18-.33A.72.72,0,0,0,37,45.3a1.68,1.68,0,0,0-.49-.06,2.53,2.53,0,0,0-.7.09,4.8,4.8,0,0,0-.54.19l-.39.19a.54.54,0,0,1-.25.09.17.17,0,0,1-.12,0,.27.27,0,0,1-.09-.12.83.83,0,0,1-.05-.2,1.06,1.06,0,0,1,0-.26,1.26,1.26,0,0,1,0-.3.47.47,0,0,1,.12-.2,1.27,1.27,0,0,1,.3-.2,3.46,3.46,0,0,1,.5-.2,5.47,5.47,0,0,1,.64-.15,4,4,0,0,1,.7-.06,4.45,4.45,0,0,1,1.11.13,1.77,1.77,0,0,1,.76.39,1.55,1.55,0,0,1,.43.67,3.23,3.23,0,0,1,.13,1Zm-1.52-2.36H37a3.78,3.78,0,0,0-.64.05,1.33,1.33,0,0,0-.43.17.64.64,0,0,0-.25.27.8.8,0,0,0-.08.36.71.71,0,0,0,.22.54.9.9,0,0,0,.61.2A1.13,1.13,0,0,0,37,49a2.61,2.61,0,0,0,.56-.48Z"/><path class="cls-5" d="M46.19,47.09A4.92,4.92,0,0,1,46,48.41a2.71,2.71,0,0,1-.46,1,2,2,0,0,1-.75.64,2.4,2.4,0,0,1-1,.22,2,2,0,0,1-.44-.05,2,2,0,0,1-.39-.14,1.94,1.94,0,0,1-.37-.24,3.57,3.57,0,0,1-.38-.33V52.1a.21.21,0,0,1,0,.11.26.26,0,0,1-.13.08,1.09,1.09,0,0,1-.23.06l-.38,0-.38,0a.94.94,0,0,1-.23-.06.26.26,0,0,1-.13-.08.15.15,0,0,1,0-.11V44.42a.18.18,0,0,1,0-.11.24.24,0,0,1,.11-.08.83.83,0,0,1,.2,0h.63a.81.81,0,0,1,.21,0,.31.31,0,0,1,.11.08.18.18,0,0,1,0,.11v.64a4.58,4.58,0,0,1,.47-.43,2.79,2.79,0,0,1,.47-.32,3,3,0,0,1,.5-.19,2.35,2.35,0,0,1,.54-.06,2.06,2.06,0,0,1,1,.24,2,2,0,0,1,.7.65,2.94,2.94,0,0,1,.39,1A5.55,5.55,0,0,1,46.19,47.09Zm-1.61.11a3.74,3.74,0,0,0-.06-.68,1.79,1.79,0,0,0-.18-.58,1.08,1.08,0,0,0-.33-.4.85.85,0,0,0-.51-.15,1.06,1.06,0,0,0-.31,0,1.25,1.25,0,0,0-.31.15,2.42,2.42,0,0,0-.32.27,3.89,3.89,0,0,0-.35.41v1.81a3.17,3.17,0,0,0,.62.64,1,1,0,0,0,.62.23.8.8,0,0,0,.51-.16,1.14,1.14,0,0,0,.35-.4,2,2,0,0,0,.2-.56A3.38,3.38,0,0,0,44.58,47.2Z"/><path class="cls-5" d="M51,44.93a3.36,3.36,0,0,1,0,.36c0,.1,0,.17,0,.22a.19.19,0,0,1-.07.11.17.17,0,0,1-.1,0,.23.23,0,0,1-.11,0l-.14,0-.17-.05-.2,0a.75.75,0,0,0-.26,0,1.28,1.28,0,0,0-.27.16,2.81,2.81,0,0,0-.29.3,4,4,0,0,0-.32.46v3.43a.18.18,0,0,1,0,.1.24.24,0,0,1-.13.08,1.11,1.11,0,0,1-.24,0h-.75a1.11,1.11,0,0,1-.24,0,.18.18,0,0,1-.12-.08.13.13,0,0,1,0-.1v-5.5a.18.18,0,0,1,0-.11.24.24,0,0,1,.11-.08l.21,0h.64a.64.64,0,0,1,.2,0,.24.24,0,0,1,.11.08.18.18,0,0,1,0,.11v.68a4.14,4.14,0,0,1,.4-.51,2.55,2.55,0,0,1,.37-.32,1,1,0,0,1,.34-.16,1.41,1.41,0,0,1,.35,0h.17l.19,0,.18,0,.1.06a.12.12,0,0,1,0,.07.62.62,0,0,1,0,.1s0,.11,0,.2S51,44.78,51,44.93Z"/><path class="cls-5" d="M57.33,47.11a4.26,4.26,0,0,1-.18,1.28,2.81,2.81,0,0,1-.57,1,2.44,2.44,0,0,1-.94.65,3.59,3.59,0,0,1-1.33.23A3.48,3.48,0,0,1,53,50.06a2.18,2.18,0,0,1-.9-.59,2.32,2.32,0,0,1-.53-.95,4.3,4.3,0,0,1-.18-1.3,4.25,4.25,0,0,1,.19-1.28,2.73,2.73,0,0,1,.57-1,2.44,2.44,0,0,1,.94-.65,3.5,3.5,0,0,1,1.32-.23,3.78,3.78,0,0,1,1.28.2,2.35,2.35,0,0,1,.9.59,2.49,2.49,0,0,1,.53,1A4.66,4.66,0,0,1,57.33,47.11Zm-1.6.06a4.38,4.38,0,0,0-.06-.75,2,2,0,0,0-.22-.59,1.12,1.12,0,0,0-.41-.4,1.39,1.39,0,0,0-.65-.14,1.26,1.26,0,0,0-.6.13,1,1,0,0,0-.43.37,1.81,1.81,0,0,0-.25.58,3.67,3.67,0,0,0-.08.78,3.48,3.48,0,0,0,.07.75,1.78,1.78,0,0,0,.22.6,1,1,0,0,0,.41.39,1.35,1.35,0,0,0,.64.14A1.31,1.31,0,0,0,55,48.9a1.07,1.07,0,0,0,.43-.36,1.66,1.66,0,0,0,.24-.59A3.12,3.12,0,0,0,55.73,47.17Z"/><path class="cls-5" d="M63.58,44.41v.07a.38.38,0,0,1,0,.1,1,1,0,0,0,0,.12,1.13,1.13,0,0,1,0,.15l-1.65,5a.54.54,0,0,1-.08.17.35.35,0,0,1-.17.1,1.28,1.28,0,0,1-.33,0H60.19a2,2,0,0,1-.32,0A.36.36,0,0,1,59.7,50a.48.48,0,0,1-.08-.16l-1.65-5a1,1,0,0,1-.06-.22.5.5,0,0,1,0-.14v-.08a.2.2,0,0,1,0-.11.36.36,0,0,1,.12-.08l.24,0h.79a1.11,1.11,0,0,1,.24,0,.24.24,0,0,1,.13.08.67.67,0,0,1,.06.12l1.25,4,0,.16,0-.16,1.23-4a.23.23,0,0,1,.06-.12.21.21,0,0,1,.12-.08,1.11,1.11,0,0,1,.24,0h.75a1,1,0,0,1,.22,0,.2.2,0,0,1,.11.08A.2.2,0,0,1,63.58,44.41Z"/><path class="cls-5" d="M66.17,42.55a.87.87,0,0,1-.19.65,1.06,1.06,0,0,1-.71.18,1.09,1.09,0,0,1-.71-.17,1.2,1.2,0,0,1,0-1.28,1,1,0,0,1,.71-.18,1,1,0,0,1,.7.18A.79.79,0,0,1,66.17,42.55Zm-.12,7.37a.17.17,0,0,1,0,.1.24.24,0,0,1-.13.08,1.11,1.11,0,0,1-.24,0H64.9a1.11,1.11,0,0,1-.24,0,.24.24,0,0,1-.13-.08.17.17,0,0,1,0-.1V44.43a.2.2,0,0,1,0-.11.32.32,0,0,1,.13-.08,1.11,1.11,0,0,1,.24-.05,2,2,0,0,1,.37,0,2.06,2.06,0,0,1,.38,0,1.11,1.11,0,0,1,.24.05.32.32,0,0,1,.13.08.2.2,0,0,1,0,.11Z"/><path class="cls-5" d="M71.47,48.36a1.81,1.81,0,0,1-.17.83,1.61,1.61,0,0,1-.5.6,2.23,2.23,0,0,1-.76.36,3.58,3.58,0,0,1-1,.12,3.81,3.81,0,0,1-.59-.05l-.5-.11a2.81,2.81,0,0,1-.37-.15.83.83,0,0,1-.21-.14.35.35,0,0,1-.11-.2,1.93,1.93,0,0,1,0-.41,2.07,2.07,0,0,1,0-.29.65.65,0,0,1,0-.17.23.23,0,0,1,.06-.09l.1,0a.53.53,0,0,1,.2.08l.33.17a3,3,0,0,0,.46.17,2.1,2.1,0,0,0,.59.08,1.48,1.48,0,0,0,.38,0,.9.9,0,0,0,.28-.13.49.49,0,0,0,.18-.2.64.64,0,0,0,.06-.28.45.45,0,0,0-.11-.32,1,1,0,0,0-.3-.23,3.46,3.46,0,0,0-.43-.19l-.49-.19a4.3,4.3,0,0,1-.48-.24,2,2,0,0,1-.43-.33,1.45,1.45,0,0,1-.3-.48,1.66,1.66,0,0,1-.11-.66,1.73,1.73,0,0,1,.15-.73,1.5,1.5,0,0,1,.44-.56,2.17,2.17,0,0,1,.71-.37,3.37,3.37,0,0,1,.93-.13,3.89,3.89,0,0,1,.95.13l.33.12a1.21,1.21,0,0,1,.19.11l.09.1a.66.66,0,0,1,0,.11,1.37,1.37,0,0,0,0,.16c0,.06,0,.14,0,.24s0,.2,0,.27a1.57,1.57,0,0,1,0,.16.35.35,0,0,1-.06.09l-.09,0a.35.35,0,0,1-.17-.07l-.3-.14-.4-.13a1.74,1.74,0,0,0-.53-.07,1.79,1.79,0,0,0-.36,0,.64.64,0,0,0-.26.13.45.45,0,0,0-.14.19.43.43,0,0,0,0,.23.52.52,0,0,0,.11.32,1.31,1.31,0,0,0,.31.23l.44.18.49.19a4.44,4.44,0,0,1,.49.24,1.81,1.81,0,0,1,.44.33,1.54,1.54,0,0,1,.31.47A1.8,1.8,0,0,1,71.47,48.36Z"/><path class="cls-5" d="M74.31,42.55a.87.87,0,0,1-.19.65,1,1,0,0,1-.71.18,1.11,1.11,0,0,1-.71-.17.88.88,0,0,1-.18-.63.92.92,0,0,1,.19-.65,1.49,1.49,0,0,1,1.42,0A.83.83,0,0,1,74.31,42.55Zm-.12,7.37a.17.17,0,0,1,0,.1.24.24,0,0,1-.13.08,1.11,1.11,0,0,1-.24,0H73a1.11,1.11,0,0,1-.24,0,.18.18,0,0,1-.12-.08.13.13,0,0,1,0-.1V44.43a.15.15,0,0,1,0-.11.23.23,0,0,1,.12-.08,1.11,1.11,0,0,1,.24-.05,2.12,2.12,0,0,1,.38,0,2,2,0,0,1,.37,0,1.11,1.11,0,0,1,.24.05.32.32,0,0,1,.13.08.2.2,0,0,1,0,.11Z"/><path class="cls-5" d="M81.31,47.11a4.25,4.25,0,0,1-.19,1.28,2.65,2.65,0,0,1-.56,1,2.52,2.52,0,0,1-.94.65,3.59,3.59,0,0,1-1.33.23A3.54,3.54,0,0,1,77,50.06a2.24,2.24,0,0,1-.9-.59,2.44,2.44,0,0,1-.53-.95,4.66,4.66,0,0,1-.17-1.3,4,4,0,0,1,.19-1.28,2.58,2.58,0,0,1,.56-1,2.52,2.52,0,0,1,.94-.65,3.59,3.59,0,0,1,1.33-.23,3.78,3.78,0,0,1,1.28.2,2.35,2.35,0,0,1,.9.59,2.47,2.47,0,0,1,.52,1A4.3,4.3,0,0,1,81.31,47.11Zm-1.6.06a3.54,3.54,0,0,0-.07-.75,1.54,1.54,0,0,0-.22-.59,1.1,1.1,0,0,0-.4-.4,1.42,1.42,0,0,0-.65-.14,1.26,1.26,0,0,0-.6.13,1,1,0,0,0-.43.37,1.81,1.81,0,0,0-.25.58,3.67,3.67,0,0,0-.08.78,3.48,3.48,0,0,0,.07.75,1.77,1.77,0,0,0,.21.6,1,1,0,0,0,.41.39,1.42,1.42,0,0,0,.65.14A1.33,1.33,0,0,0,79,48.9a1,1,0,0,0,.42-.36,1.67,1.67,0,0,0,.25-.59A3.67,3.67,0,0,0,79.71,47.17Z"/><path class="cls-5" d="M87.79,49.92a.13.13,0,0,1,0,.1.18.18,0,0,1-.12.08,1.11,1.11,0,0,1-.24,0h-.75a1.11,1.11,0,0,1-.24,0,.18.18,0,0,1-.12-.08.13.13,0,0,1,0-.1V46.78a2.57,2.57,0,0,0-.06-.63,1.15,1.15,0,0,0-.17-.39.77.77,0,0,0-.28-.26.91.91,0,0,0-.41-.09,1.06,1.06,0,0,0-.6.22,3.11,3.11,0,0,0-.63.63v3.66a.13.13,0,0,1,0,.1.21.21,0,0,1-.12.08,1.11,1.11,0,0,1-.24,0h-.75a1.11,1.11,0,0,1-.24,0,.24.24,0,0,1-.13-.08.18.18,0,0,1,0-.1v-5.5a.18.18,0,0,1,0-.11.28.28,0,0,1,.12-.08.83.83,0,0,1,.2,0h.65l.2,0a.27.27,0,0,1,.1.08.18.18,0,0,1,0,.11v.63a3.25,3.25,0,0,1,.93-.74,2.13,2.13,0,0,1,1-.25,2.09,2.09,0,0,1,1,.19,1.62,1.62,0,0,1,.62.5,2,2,0,0,1,.34.74,4.39,4.39,0,0,1,.11,1Z"/><path class="cls-5" d="M94,49.94a.16.16,0,0,1-.06.13.42.42,0,0,1-.2.07,2,2,0,0,1-.39,0,2.07,2.07,0,0,1-.4,0,.34.34,0,0,1-.18-.07.19.19,0,0,1,0-.13V49.5a2.49,2.49,0,0,1-.78.56,2.18,2.18,0,0,1-1,.21,2.64,2.64,0,0,1-.81-.12,1.73,1.73,0,0,1-.63-.33,1.56,1.56,0,0,1-.42-.56,1.9,1.9,0,0,1-.15-.78,1.86,1.86,0,0,1,.19-.84,1.55,1.55,0,0,1,.56-.58,2.61,2.61,0,0,1,.93-.34,6.16,6.16,0,0,1,1.29-.12h.54v-.33a1.53,1.53,0,0,0-.06-.45.74.74,0,0,0-.17-.33.78.78,0,0,0-.32-.19,1.75,1.75,0,0,0-.5-.06,2.45,2.45,0,0,0-.69.09,4.8,4.8,0,0,0-.54.19,3.6,3.6,0,0,0-.39.19.57.57,0,0,1-.26.09.21.21,0,0,1-.12,0,.36.36,0,0,1-.08-.12.8.8,0,0,1-.06-.2,2.09,2.09,0,0,1,0-.26,1.26,1.26,0,0,1,0-.3.56.56,0,0,1,.11-.2,1.38,1.38,0,0,1,.31-.2,3.46,3.46,0,0,1,.5-.2,5.81,5.81,0,0,1,.63-.15,4.17,4.17,0,0,1,.71-.06,4.45,4.45,0,0,1,1.11.13,1.73,1.73,0,0,1,.75.39,1.47,1.47,0,0,1,.43.67,3.22,3.22,0,0,1,.14,1Zm-1.52-2.36h-.59a3.91,3.91,0,0,0-.65.05,1.43,1.43,0,0,0-.43.17.68.68,0,0,0-.24.27.8.8,0,0,0-.08.36.67.67,0,0,0,.22.54.9.9,0,0,0,.61.2,1.13,1.13,0,0,0,.6-.17,2.61,2.61,0,0,0,.56-.48Z"/><path class="cls-5" d="M100.77,49.92a.2.2,0,0,1,0,.11.24.24,0,0,1-.11.08.77.77,0,0,1-.2,0H99.8l-.2,0a.24.24,0,0,1-.11-.08.15.15,0,0,1,0-.11v-.61a3.61,3.61,0,0,1-.89.71,2.21,2.21,0,0,1-1,.25A2.12,2.12,0,0,1,96.46,50a2.07,2.07,0,0,1-.7-.65,2.72,2.72,0,0,1-.4-1,5.43,5.43,0,0,1-.12-1.16,5.32,5.32,0,0,1,.15-1.32,3.18,3.18,0,0,1,.46-1,2,2,0,0,1,.75-.63,2.31,2.31,0,0,1,1-.23,1.92,1.92,0,0,1,.84.19,3,3,0,0,1,.74.55v-3a.25.25,0,0,1,0-.11.23.23,0,0,1,.12-.08,1.11,1.11,0,0,1,.24-.05l.38,0,.37,0a1.11,1.11,0,0,1,.24.05.28.28,0,0,1,.12.08.17.17,0,0,1,0,.11Zm-1.55-3.68a3.48,3.48,0,0,0-.63-.64,1.08,1.08,0,0,0-.64-.22.89.89,0,0,0-.52.15,1,1,0,0,0-.35.4,2,2,0,0,0-.2.57,3.29,3.29,0,0,0-.07.63,3.74,3.74,0,0,0,.06.68,2.32,2.32,0,0,0,.18.58,1.06,1.06,0,0,0,.34.41.88.88,0,0,0,.53.15,1.06,1.06,0,0,0,.31,0,1.25,1.25,0,0,0,.31-.15,1.94,1.94,0,0,0,.32-.28c.11-.11.23-.25.36-.41Z"/><path class="cls-5" d="M107.89,47.11a4.26,4.26,0,0,1-.18,1.28,2.67,2.67,0,0,1-.57,1,2.44,2.44,0,0,1-.94.65,3.58,3.58,0,0,1-1.32.23,3.54,3.54,0,0,1-1.28-.21,2.24,2.24,0,0,1-.9-.59,2.32,2.32,0,0,1-.53-.95,4.31,4.31,0,0,1-.17-1.3,4.26,4.26,0,0,1,.18-1.28,2.73,2.73,0,0,1,.57-1,2.44,2.44,0,0,1,.94-.65,3.54,3.54,0,0,1,1.32-.23,3.78,3.78,0,0,1,1.28.2,2.28,2.28,0,0,1,.9.59,2.49,2.49,0,0,1,.53,1A4.66,4.66,0,0,1,107.89,47.11Zm-1.6.06a4.38,4.38,0,0,0-.06-.75,1.72,1.72,0,0,0-.22-.59,1.12,1.12,0,0,0-.41-.4,1.38,1.38,0,0,0-.64-.14,1.31,1.31,0,0,0-.61.13,1,1,0,0,0-.42.37,1.46,1.46,0,0,0-.25.58,3.1,3.1,0,0,0-.09.78,4.25,4.25,0,0,0,.07.75,2,2,0,0,0,.22.6,1,1,0,0,0,.41.39,1.38,1.38,0,0,0,.64.14,1.31,1.31,0,0,0,.61-.13,1.07,1.07,0,0,0,.43-.36,1.66,1.66,0,0,0,.24-.59A3.12,3.12,0,0,0,106.29,47.17Z"/><path class="cls-5" d="M112.65,44.93c0,.14,0,.27,0,.36a.87.87,0,0,1,0,.22.15.15,0,0,1-.06.11.17.17,0,0,1-.1,0,.22.22,0,0,1-.11,0l-.14,0-.17-.05-.21,0a.74.74,0,0,0-.25,0,1.28,1.28,0,0,0-.27.16,2.09,2.09,0,0,0-.29.3c-.1.12-.21.28-.33.46v3.43a.17.17,0,0,1,0,.1.24.24,0,0,1-.13.08,1.11,1.11,0,0,1-.24,0h-.75a1.11,1.11,0,0,1-.24,0,.18.18,0,0,1-.12-.08.13.13,0,0,1,0-.1v-5.5a.18.18,0,0,1,0-.11.24.24,0,0,1,.11-.08.81.81,0,0,1,.21,0h.64a.64.64,0,0,1,.2,0,.21.21,0,0,1,.1.08.14.14,0,0,1,0,.11v.68a3.36,3.36,0,0,1,.4-.51,2.55,2.55,0,0,1,.37-.32,1,1,0,0,1,.34-.16,1.41,1.41,0,0,1,.35,0h.17l.19,0,.17,0,.11.06a.18.18,0,0,1,0,.07.62.62,0,0,1,0,.1s0,.11,0,.2Z"/><path class="cls-5" d="M121.68,49.92a.2.2,0,0,1,0,.11.21.21,0,0,1-.1.08.88.88,0,0,1-.2,0h-.64l-.2,0a.31.31,0,0,1-.11-.08.2.2,0,0,1,0-.11v-.61a3.61,3.61,0,0,1-.89.71,2.25,2.25,0,0,1-1,.25,2.08,2.08,0,0,1-1.06-.25,2,2,0,0,1-.71-.65,3.14,3.14,0,0,1-.4-1,5.43,5.43,0,0,1-.12-1.16,4.87,4.87,0,0,1,.16-1.32,3,3,0,0,1,.46-1,2,2,0,0,1,.75-.63,2.28,2.28,0,0,1,1-.23,1.91,1.91,0,0,1,.83.19,3.06,3.06,0,0,1,.75.55v-3a.23.23,0,0,1,0-.11.32.32,0,0,1,.13-.08,1.11,1.11,0,0,1,.24-.05l.37,0,.38,0a.89.89,0,0,1,.23.05.32.32,0,0,1,.13.08.23.23,0,0,1,0,.11Zm-1.54-3.68a3.21,3.21,0,0,0-.64-.64,1,1,0,0,0-.64-.22.91.91,0,0,0-.52.15,1.14,1.14,0,0,0-.35.4,2.39,2.39,0,0,0-.2.57,3.28,3.28,0,0,0-.06.63,4.94,4.94,0,0,0,0,.68,2,2,0,0,0,.19.58,1,1,0,0,0,.33.41.9.9,0,0,0,.53.15,1.06,1.06,0,0,0,.31,0,1,1,0,0,0,.31-.15,1.64,1.64,0,0,0,.33-.28c.11-.11.23-.25.36-.41Z"/><path class="cls-5" d="M128.33,47a.66.66,0,0,1-.13.42.45.45,0,0,1-.35.13H124.5a2.11,2.11,0,0,0,.09.64,1.22,1.22,0,0,0,.26.49,1.19,1.19,0,0,0,.47.3,2,2,0,0,0,.69.11,3.69,3.69,0,0,0,.71-.06,4.31,4.31,0,0,0,.54-.13l.37-.13a.69.69,0,0,1,.24-.06l.09,0a.12.12,0,0,1,.06.08.53.53,0,0,1,0,.16c0,.06,0,.15,0,.25s0,.17,0,.23a.79.79,0,0,1,0,.17l0,.11-.07.09a.77.77,0,0,1-.22.12,2.69,2.69,0,0,1-.45.14c-.19,0-.4.09-.64.13a6.1,6.1,0,0,1-.77.05,3.87,3.87,0,0,1-1.28-.19,2.2,2.2,0,0,1-.92-.56,2.42,2.42,0,0,1-.56-1,4.48,4.48,0,0,1-.18-1.34,4.59,4.59,0,0,1,.19-1.33,2.81,2.81,0,0,1,.56-1,2.3,2.3,0,0,1,.88-.63,3.14,3.14,0,0,1,1.18-.22,3,3,0,0,1,1.18.21,2.06,2.06,0,0,1,.81.56,2.45,2.45,0,0,1,.46.86,3.59,3.59,0,0,1,.15,1.07Zm-1.51-.45a1.61,1.61,0,0,0-.26-1,1,1,0,0,0-.87-.37,1.16,1.16,0,0,0-.51.11,1.22,1.22,0,0,0-.37.3,1.45,1.45,0,0,0-.22.45,2.34,2.34,0,0,0-.09.54Z"/><path class="cls-5" d="M23.69,60.2a5.32,5.32,0,0,1-.15,1.32,3.08,3.08,0,0,1-.46,1,2,2,0,0,1-.76.64,2.26,2.26,0,0,1-1,.22,2.06,2.06,0,0,1-.44,0,1.77,1.77,0,0,1-.38-.15,2.14,2.14,0,0,1-.38-.23c-.12-.1-.25-.21-.38-.34v2.59a.15.15,0,0,1,0,.11s-.06.06-.12.09a1.11,1.11,0,0,1-.24,0l-.38,0-.37,0a1.11,1.11,0,0,1-.24,0,.33.33,0,0,1-.13-.09.21.21,0,0,1,0-.11V57.53a.15.15,0,0,1,0-.11.21.21,0,0,1,.1-.08l.21,0,.32,0,.31,0a.88.88,0,0,1,.2,0,.24.24,0,0,1,.11.08.2.2,0,0,1,0,.11v.65a6.17,6.17,0,0,1,.47-.44,2.72,2.72,0,0,1,.47-.31,1.91,1.91,0,0,1,.5-.19,2.38,2.38,0,0,1,.55-.06,2.21,2.21,0,0,1,1,.23,2,2,0,0,1,.69.65,2.9,2.9,0,0,1,.39,1A5.39,5.39,0,0,1,23.69,60.2Zm-1.61.11a5.06,5.06,0,0,0,0-.68,2.38,2.38,0,0,0-.18-.57,1.15,1.15,0,0,0-.34-.41A.83.83,0,0,0,21,58.5a1.12,1.12,0,0,0-.31,0,1.25,1.25,0,0,0-.31.15,2.42,2.42,0,0,0-.32.27,3.89,3.89,0,0,0-.35.41V61.2a3.81,3.81,0,0,0,.62.64,1,1,0,0,0,.62.22.85.85,0,0,0,.51-.15,1.16,1.16,0,0,0,.35-.41,1.85,1.85,0,0,0,.2-.56A2.7,2.7,0,0,0,22.08,60.31Z"/><path class="cls-5" d="M28.47,58c0,.15,0,.27,0,.36s0,.17,0,.23a.23.23,0,0,1-.07.11.15.15,0,0,1-.1,0l-.11,0-.14,0-.17-.05-.2,0a.8.8,0,0,0-.26,0,1,1,0,0,0-.27.17,2,2,0,0,0-.29.29,5.13,5.13,0,0,0-.32.46V63a.15.15,0,0,1,0,.11.26.26,0,0,1-.13.07.61.61,0,0,1-.23,0l-.38,0-.38,0a.71.71,0,0,1-.23,0,.32.32,0,0,1-.13-.07.21.21,0,0,1,0-.11v-5.5a.2.2,0,0,1,0-.11.23.23,0,0,1,.12-.08l.2,0,.32,0,.33,0,.2,0a.27.27,0,0,1,.1.08.2.2,0,0,1,0,.11v.68a4.78,4.78,0,0,1,.41-.51,1.93,1.93,0,0,1,.36-.31,1.13,1.13,0,0,1,.35-.17,1.32,1.32,0,0,1,.34,0h.17a.69.69,0,0,1,.2,0l.17.05a.28.28,0,0,1,.11,0l.05.07s0,.06,0,.1a1,1,0,0,1,0,.2A3.33,3.33,0,0,1,28.47,58Z"/><path class="cls-5" d="M34.83,60.22a4.37,4.37,0,0,1-.18,1.29,2.88,2.88,0,0,1-.56,1,2.46,2.46,0,0,1-1,.64,3.38,3.38,0,0,1-1.32.23,3.78,3.78,0,0,1-1.28-.2,2.47,2.47,0,0,1-.9-.59,2.36,2.36,0,0,1-.53-1,4.84,4.84,0,0,1,0-2.58,2.81,2.81,0,0,1,.57-1,2.55,2.55,0,0,1,.94-.65,4.16,4.16,0,0,1,2.61,0,2.14,2.14,0,0,1,.89.59,2.26,2.26,0,0,1,.53,1A4.66,4.66,0,0,1,34.83,60.22Zm-1.59.06a4.14,4.14,0,0,0-.07-.74,1.78,1.78,0,0,0-.22-.6,1,1,0,0,0-.41-.39,1.24,1.24,0,0,0-.64-.15,1.48,1.48,0,0,0-.61.13,1.07,1.07,0,0,0-.42.37,1.67,1.67,0,0,0-.25.59,3,3,0,0,0-.09.78,4.35,4.35,0,0,0,.07.75,2.06,2.06,0,0,0,.22.59,1,1,0,0,0,.41.39,1.26,1.26,0,0,0,.64.14,1.41,1.41,0,0,0,.61-.12,1.11,1.11,0,0,0,.43-.37,1.92,1.92,0,0,0,.25-.58A3.7,3.7,0,0,0,33.24,60.28Z"/><path class="cls-5" d="M41.28,63a.2.2,0,0,1,0,.11.24.24,0,0,1-.11.08.5.5,0,0,1-.2,0l-.31,0-.32,0a.54.54,0,0,1-.2,0,.24.24,0,0,1-.11-.08A.21.21,0,0,1,40,63v-.61a3.61,3.61,0,0,1-.89.71,2.09,2.09,0,0,1-1,.25A2.16,2.16,0,0,1,37,63.14a2,2,0,0,1-.71-.66,2.67,2.67,0,0,1-.4-1,5.52,5.52,0,0,1-.12-1.17A5.32,5.32,0,0,1,35.9,59a3.18,3.18,0,0,1,.46-1,2,2,0,0,1,.76-.63,2.26,2.26,0,0,1,1-.22,1.92,1.92,0,0,1,.84.18,3,3,0,0,1,.75.56v-3a.2.2,0,0,1,0-.11s.06-.06.12-.09a1.11,1.11,0,0,1,.24-.05l.38,0,.37,0a1.11,1.11,0,0,1,.24.05c.06,0,.1,0,.12.09a.15.15,0,0,1,0,.11Zm-1.54-3.68a3.84,3.84,0,0,0-.64-.64,1.08,1.08,0,0,0-.64-.22.89.89,0,0,0-.52.15,1,1,0,0,0-.35.41,1.85,1.85,0,0,0-.2.56,3.39,3.39,0,0,0-.07.64,3.71,3.71,0,0,0,.06.67,2.32,2.32,0,0,0,.18.58,1.15,1.15,0,0,0,.34.41.84.84,0,0,0,.53.16,1.06,1.06,0,0,0,.31,0,1.25,1.25,0,0,0,.31-.15,2.42,2.42,0,0,0,.32-.27l.37-.42Z"/><path class="cls-5" d="M48.06,63a.2.2,0,0,1,0,.11.23.23,0,0,1-.11.07.54.54,0,0,1-.21,0l-.31,0-.33,0a.48.48,0,0,1-.2,0,.23.23,0,0,1-.11-.07.2.2,0,0,1,0-.11v-.64a3.25,3.25,0,0,1-.93.74,2,2,0,0,1-1,.25,2.28,2.28,0,0,1-1-.18,1.74,1.74,0,0,1-.62-.51,2,2,0,0,1-.34-.74,4.45,4.45,0,0,1-.1-1.05V57.53a.2.2,0,0,1,0-.11.26.26,0,0,1,.13-.08l.24,0,.37,0,.38,0,.23,0a.26.26,0,0,1,.13.08.21.21,0,0,1,0,.11v3.11a3.69,3.69,0,0,0,0,.66,1.39,1.39,0,0,0,.17.39.78.78,0,0,0,.29.25.91.91,0,0,0,.41.09,1,1,0,0,0,.6-.22,3.3,3.3,0,0,0,.63-.62V57.53a.21.21,0,0,1,0-.11.23.23,0,0,1,.12-.08,1.19,1.19,0,0,1,.24,0l.38,0,.37,0a1.19,1.19,0,0,1,.24,0,.28.28,0,0,1,.12.08.15.15,0,0,1,0,.11Z"/><path class="cls-5" d="M53.78,62.15a2.1,2.1,0,0,1,0,.27.9.9,0,0,1,0,.18.83.83,0,0,1,0,.12s-.05.07-.1.12a.81.81,0,0,1-.25.17,3,3,0,0,1-.4.19l-.5.13a3.31,3.31,0,0,1-.55.05,3,3,0,0,1-1.13-.2,2,2,0,0,1-.82-.59,2.65,2.65,0,0,1-.51-.94,4.45,4.45,0,0,1-.16-1.27,4.31,4.31,0,0,1,.2-1.42,2.72,2.72,0,0,1,.58-1,2.36,2.36,0,0,1,.87-.59,3.31,3.31,0,0,1,1.11-.19,2.63,2.63,0,0,1,.49,0,2,2,0,0,1,.44.11,2.56,2.56,0,0,1,.37.17.81.81,0,0,1,.23.16l.1.11a.34.34,0,0,1,0,.12c0,.05,0,.11,0,.19s0,.16,0,.26a1.45,1.45,0,0,1-.06.5c-.05.1-.1.15-.17.15a.37.37,0,0,1-.22-.09L53,58.72a1.77,1.77,0,0,0-.39-.19,1.4,1.4,0,0,0-.53-.09,1,1,0,0,0-.92.47,2.34,2.34,0,0,0-.32,1.36,3.15,3.15,0,0,0,.08.79,1.69,1.69,0,0,0,.23.56,1,1,0,0,0,.4.35,1.35,1.35,0,0,0,.55.11,1.32,1.32,0,0,0,.55-.1,2,2,0,0,0,.41-.21l.29-.21a.35.35,0,0,1,.19-.1.17.17,0,0,1,.1,0,.33.33,0,0,1,.06.12s0,.12,0,.21A3.22,3.22,0,0,1,53.78,62.15Z"/><path class="cls-5" d="M58.16,62.49a2.07,2.07,0,0,1,0,.41.72.72,0,0,1-.09.21.45.45,0,0,1-.17.1,1.23,1.23,0,0,1-.25.08l-.31.05a2.06,2.06,0,0,1-.35,0,2.71,2.71,0,0,1-.8-.11,1.42,1.42,0,0,1-.56-.36,1.54,1.54,0,0,1-.33-.62,3.25,3.25,0,0,1-.1-.87V58.58h-.66q-.12,0-.18-.15a1.4,1.4,0,0,1-.06-.48,2.63,2.63,0,0,1,0-.3.72.72,0,0,1,0-.2.21.21,0,0,1,.08-.1.18.18,0,0,1,.11,0h.65V56.09a.2.2,0,0,1,0-.11.32.32,0,0,1,.13-.08.72.72,0,0,1,.24,0l.37,0,.38,0a.72.72,0,0,1,.24,0,.36.36,0,0,1,.12.08.21.21,0,0,1,0,.11v1.23h1.19a.2.2,0,0,1,.11,0,.21.21,0,0,1,.08.1.77.77,0,0,1,0,.2,1.32,1.32,0,0,1,0,.3,1.4,1.4,0,0,1-.06.48q-.06.15-.18.15h-1.2v2.58a1.25,1.25,0,0,0,.14.68.54.54,0,0,0,.5.22l.23,0,.17,0,.13-.05.1,0,.07,0a.15.15,0,0,1,0,.09s0,.1,0,.17A1.23,1.23,0,0,1,58.16,62.49Z"/><path class="cls-5" d="M64.72,60.22a4.37,4.37,0,0,1-.18,1.29,2.88,2.88,0,0,1-.56,1,2.53,2.53,0,0,1-.95.64,3.38,3.38,0,0,1-1.32.23,3.78,3.78,0,0,1-1.28-.2,2.47,2.47,0,0,1-.9-.59,2.36,2.36,0,0,1-.53-1,4.84,4.84,0,0,1,0-2.58,2.81,2.81,0,0,1,.57-1,2.55,2.55,0,0,1,.94-.65,4.13,4.13,0,0,1,2.6,0A2.11,2.11,0,0,1,64,58a2.37,2.37,0,0,1,.53,1A4.66,4.66,0,0,1,64.72,60.22Zm-1.6.06a4.18,4.18,0,0,0-.06-.74,1.78,1.78,0,0,0-.22-.6,1,1,0,0,0-.41-.39,1.24,1.24,0,0,0-.64-.15,1.44,1.44,0,0,0-.61.13,1.07,1.07,0,0,0-.42.37,1.67,1.67,0,0,0-.25.59,3,3,0,0,0-.09.78,4.35,4.35,0,0,0,.07.75,2.06,2.06,0,0,0,.22.59,1,1,0,0,0,.41.39,1.26,1.26,0,0,0,.64.14,1.41,1.41,0,0,0,.61-.12,1.11,1.11,0,0,0,.43-.37,1.69,1.69,0,0,0,.24-.58A3.15,3.15,0,0,0,63.12,60.28Z"/><path class="cls-5" d="M69.82,61.48a1.94,1.94,0,0,1-.17.82,1.61,1.61,0,0,1-.5.6,2.23,2.23,0,0,1-.76.36,3.58,3.58,0,0,1-1,.12,3.81,3.81,0,0,1-.59,0c-.18,0-.35-.07-.5-.12a2.81,2.81,0,0,1-.37-.15.84.84,0,0,1-.22-.14.42.42,0,0,1-.1-.2,1.93,1.93,0,0,1,0-.41,2.19,2.19,0,0,1,0-.29.65.65,0,0,1,0-.17.35.35,0,0,1,.06-.09l.1,0a.53.53,0,0,1,.2.08l.33.17a3,3,0,0,0,.46.17,1.79,1.79,0,0,0,.59.08,1.35,1.35,0,0,0,.37,0,1.1,1.1,0,0,0,.29-.12.6.6,0,0,0,.18-.21.61.61,0,0,0,.06-.28.52.52,0,0,0-.11-.32,1.19,1.19,0,0,0-.3-.23,3.46,3.46,0,0,0-.43-.19c-.16,0-.32-.12-.49-.19a4.3,4.3,0,0,1-.48-.24,2,2,0,0,1-.43-.33,1.35,1.35,0,0,1-.3-.47,1.71,1.71,0,0,1-.12-.67,1.63,1.63,0,0,1,.16-.73,1.59,1.59,0,0,1,.44-.56,2,2,0,0,1,.71-.36,3,3,0,0,1,.93-.13,4.24,4.24,0,0,1,.51,0l.44.1a1.27,1.27,0,0,1,.33.12.73.73,0,0,1,.19.11.38.38,0,0,1,.09.09.35.35,0,0,1,0,.11s0,.1,0,.16v.51c0,.07,0,.13,0,.17a.18.18,0,0,1-.06.08l-.09,0a.43.43,0,0,1-.17-.06,2.15,2.15,0,0,0-.3-.14,2.64,2.64,0,0,0-.4-.14,2.13,2.13,0,0,0-.53-.07,1.25,1.25,0,0,0-.36,0,.79.79,0,0,0-.26.12.52.52,0,0,0-.14.19.46.46,0,0,0,0,.23.45.45,0,0,0,.11.32,1.09,1.09,0,0,0,.31.23,2.24,2.24,0,0,0,.44.18l.49.19A4.44,4.44,0,0,1,69,60a1.81,1.81,0,0,1,.44.33,1.74,1.74,0,0,1,.31.47A1.86,1.86,0,0,1,69.82,61.48Z"/><path class="cls-5" d="M77,63.24l-.66,1.95a.4.4,0,0,1-.3.22,2.75,2.75,0,0,1-.73.07l-.39,0a.71.71,0,0,1-.22-.07.17.17,0,0,1-.08-.13.31.31,0,0,1,0-.18l.74-1.84a.72.72,0,0,1-.15-.11.7.7,0,0,1-.09-.17l-1.9-5.06a1.1,1.1,0,0,1-.08-.33.21.21,0,0,1,.08-.17.39.39,0,0,1,.25-.09,2.77,2.77,0,0,1,.46,0h.42a.67.67,0,0,1,.24.05.24.24,0,0,1,.13.11,1.23,1.23,0,0,1,.09.22l1.29,3.68h0l1.19-3.75a.41.41,0,0,1,.09-.22.42.42,0,0,1,.2-.07,2.51,2.51,0,0,1,.47,0,2.59,2.59,0,0,1,.44,0,.42.42,0,0,1,.26.09.2.2,0,0,1,.09.18,1,1,0,0,1,0,.27Z"/><path class="cls-5" d="M86.56,61.48a1.8,1.8,0,0,1-.18.82,1.69,1.69,0,0,1-.49.6,2.32,2.32,0,0,1-.76.36,4,4,0,0,1-1.54.08,4.11,4.11,0,0,1-.5-.12,3,3,0,0,1-.38-.15.76.76,0,0,1-.21-.14.42.42,0,0,1-.11-.2,2.07,2.07,0,0,1,0-.41,2.44,2.44,0,0,1,0-.29.61.61,0,0,1,0-.17.15.15,0,0,1,.06-.09l.09,0a.48.48,0,0,1,.2.08l.33.17a3.44,3.44,0,0,0,.46.17,1.86,1.86,0,0,0,.6.08,1.4,1.4,0,0,0,.37,0,1,1,0,0,0,.28-.12.76.76,0,0,0,.19-.21.61.61,0,0,0,.06-.28.47.47,0,0,0-.12-.32.91.91,0,0,0-.3-.23,4.08,4.08,0,0,0-.42-.19,4.94,4.94,0,0,1-.49-.19,4.44,4.44,0,0,1-.49-.24,2,2,0,0,1-.43-.33,1.72,1.72,0,0,1-.3-.47,1.92,1.92,0,0,1-.11-.67,1.77,1.77,0,0,1,.15-.73,1.51,1.51,0,0,1,.45-.56,1.86,1.86,0,0,1,.7-.36,3.05,3.05,0,0,1,.94-.13,4.07,4.07,0,0,1,.5,0,4.13,4.13,0,0,1,.44.1,1.27,1.27,0,0,1,.33.12l.2.11a.22.22,0,0,1,.08.09.36.36,0,0,1,0,.11s0,.1,0,.16a1.63,1.63,0,0,1,0,.24,2.1,2.1,0,0,1,0,.27c0,.07,0,.13,0,.17s0,.07-.06.08l-.09,0a.49.49,0,0,1-.17-.06,2,2,0,0,0-.29-.14,2.79,2.79,0,0,0-.41-.14,2.06,2.06,0,0,0-.53-.07,1.25,1.25,0,0,0-.36,0,.73.73,0,0,0-.25.12.45.45,0,0,0-.15.19.59.59,0,0,0-.05.23.45.45,0,0,0,.12.32,1.09,1.09,0,0,0,.31.23,2.14,2.14,0,0,0,.43.18l.49.19c.17.07.33.15.5.24a1.76,1.76,0,0,1,.43.33,1.54,1.54,0,0,1,.31.47A1.66,1.66,0,0,1,86.56,61.48Z"/><path class="cls-5" d="M92.81,60.12a.62.62,0,0,1-.13.42.45.45,0,0,1-.35.13H89a2.11,2.11,0,0,0,.09.64,1.16,1.16,0,0,0,.26.49,1.19,1.19,0,0,0,.47.3,2,2,0,0,0,.69.11,3.69,3.69,0,0,0,.71-.06,4.31,4.31,0,0,0,.54-.13l.37-.13a.69.69,0,0,1,.24-.06l.09,0a.16.16,0,0,1,.06.08.53.53,0,0,1,0,.16c0,.07,0,.15,0,.26a1.62,1.62,0,0,1,0,.23.78.78,0,0,1,0,.16.81.81,0,0,1,0,.11.31.31,0,0,1-.07.09.77.77,0,0,1-.22.12l-.45.15-.64.12a6.1,6.1,0,0,1-.77.05,4.17,4.17,0,0,1-1.28-.18,2.21,2.21,0,0,1-.92-.57,2.38,2.38,0,0,1-.56-.94,4.6,4.6,0,0,1-.18-1.35A4.47,4.47,0,0,1,87.59,59a2.86,2.86,0,0,1,.56-1,2.41,2.41,0,0,1,.88-.63,3.14,3.14,0,0,1,1.18-.21,3,3,0,0,1,1.18.2,2.17,2.17,0,0,1,.81.56,2.38,2.38,0,0,1,.46.86,3.69,3.69,0,0,1,.15,1.07Zm-1.51-.45a1.58,1.58,0,0,0-.26-1,1,1,0,0,0-.87-.38,1,1,0,0,0-.51.12,1.06,1.06,0,0,0-.37.29,1.57,1.57,0,0,0-.22.45,2.34,2.34,0,0,0-.09.54Z"/><path class="cls-5" d="M97.62,58c0,.15,0,.27,0,.36s0,.17,0,.23a.23.23,0,0,1-.07.11.15.15,0,0,1-.1,0l-.11,0-.14,0L97,58.65l-.2,0a.8.8,0,0,0-.26,0,1,1,0,0,0-.27.17,2,2,0,0,0-.29.29,5.13,5.13,0,0,0-.32.46V63a.15.15,0,0,1,0,.11.26.26,0,0,1-.13.07.71.71,0,0,1-.23,0l-.38,0-.38,0a.71.71,0,0,1-.23,0,.26.26,0,0,1-.13-.07.15.15,0,0,1,0-.11v-5.5a.2.2,0,0,1,0-.11.24.24,0,0,1,.11-.08l.21,0,.32,0,.33,0a.88.88,0,0,1,.2,0,.27.27,0,0,1,.1.08.2.2,0,0,1,0,.11v.68a4.78,4.78,0,0,1,.41-.51,1.66,1.66,0,0,1,.36-.31,1.13,1.13,0,0,1,.35-.17,1.32,1.32,0,0,1,.34,0H97a.63.63,0,0,1,.19,0l.18.05a.28.28,0,0,1,.11,0l0,.07s0,.06,0,.1a1,1,0,0,1,0,.2C97.61,57.77,97.62,57.89,97.62,58Z"/><path class="cls-5" d="M103.75,57.52a.25.25,0,0,1,0,.08.31.31,0,0,1,0,.09.5.5,0,0,1,0,.12s0,.1,0,.16l-1.66,5a.38.38,0,0,1-.08.17.26.26,0,0,1-.17.1,1,1,0,0,1-.33,0l-.54,0-.53,0a1.94,1.94,0,0,1-.33,0,.4.4,0,0,1-.16-.1.46.46,0,0,1-.09-.17l-1.65-5a1.31,1.31,0,0,1-.06-.23,1.15,1.15,0,0,1,0-.14.22.22,0,0,1,0-.08.15.15,0,0,1,0-.11.22.22,0,0,1,.12-.07.89.89,0,0,1,.23-.05h.38l.41,0a1.19,1.19,0,0,1,.24,0c.06,0,.11,0,.13.08a.39.39,0,0,1,.06.13l1.25,4,0,.15,0-.15,1.23-4a.26.26,0,0,1,.06-.13.24.24,0,0,1,.13-.08,1,1,0,0,1,.23,0l.38,0h.37a1,1,0,0,1,.23.05.23.23,0,0,1,.11.07A.2.2,0,0,1,103.75,57.52Z"/><path class="cls-5" d="M106.33,55.67a.84.84,0,0,1-.19.64,1,1,0,0,1-.71.18,1.06,1.06,0,0,1-.7-.17.81.81,0,0,1-.19-.62.9.9,0,0,1,.19-.65,1,1,0,0,1,.71-.19,1,1,0,0,1,.71.18A.86.86,0,0,1,106.33,55.67ZM106.22,63a.21.21,0,0,1,0,.11.32.32,0,0,1-.13.07.72.72,0,0,1-.24,0l-.37,0-.38,0a.72.72,0,0,1-.24,0,.22.22,0,0,1-.12-.07.15.15,0,0,1,0-.11V57.54a.15.15,0,0,1,0-.11.23.23,0,0,1,.12-.08,1.11,1.11,0,0,1,.24-.05l.38,0,.37,0a1.11,1.11,0,0,1,.24.05.32.32,0,0,1,.13.08.21.21,0,0,1,0,.11Z"/><path class="cls-5" d="M111.93,62.15c0,.11,0,.2,0,.27s0,.13,0,.18a1,1,0,0,1,0,.12.48.48,0,0,1-.1.12,1,1,0,0,1-.25.17,3.14,3.14,0,0,1-.41.19,5.16,5.16,0,0,1-.5.13,3.31,3.31,0,0,1-.55.05,3,3,0,0,1-1.12-.2,2.14,2.14,0,0,1-.83-.59,2.49,2.49,0,0,1-.5-.94,4.44,4.44,0,0,1-.17-1.27,4.29,4.29,0,0,1,.21-1.42,2.7,2.7,0,0,1,.57-1,2.4,2.4,0,0,1,.88-.59,3.31,3.31,0,0,1,1.11-.19,2.52,2.52,0,0,1,.48,0,2.12,2.12,0,0,1,.45.11,2.56,2.56,0,0,1,.37.17,1,1,0,0,1,.23.16l.1.11a.83.83,0,0,1,0,.12.92.92,0,0,1,0,.19,2,2,0,0,1,0,.26,1.45,1.45,0,0,1-.06.5c0,.1-.09.15-.16.15a.37.37,0,0,1-.22-.09l-.28-.19a1.68,1.68,0,0,0-.38-.19,1.44,1.44,0,0,0-.53-.09,1.07,1.07,0,0,0-.93.47,2.42,2.42,0,0,0-.32,1.36,3.7,3.7,0,0,0,.08.79,1.93,1.93,0,0,0,.24.56,1,1,0,0,0,.39.35,1.4,1.4,0,0,0,.56.11,1.35,1.35,0,0,0,.55-.1,1.88,1.88,0,0,0,.4-.21l.29-.21a.41.41,0,0,1,.2-.1.12.12,0,0,1,.09,0,.17.17,0,0,1,.06.12.58.58,0,0,1,0,.21A2.92,2.92,0,0,1,111.93,62.15Z"/><path class="cls-5" d="M114.72,55.67a.84.84,0,0,1-.19.64,1,1,0,0,1-.71.18,1.11,1.11,0,0,1-.71-.17.85.85,0,0,1-.18-.62.9.9,0,0,1,.19-.65,1,1,0,0,1,.71-.19,1,1,0,0,1,.71.18A.86.86,0,0,1,114.72,55.67ZM114.61,63a.21.21,0,0,1,0,.11.32.32,0,0,1-.13.07.72.72,0,0,1-.24,0l-.37,0-.38,0a.72.72,0,0,1-.24,0,.22.22,0,0,1-.12-.07.15.15,0,0,1,0-.11V57.54a.15.15,0,0,1,0-.11.23.23,0,0,1,.12-.08,1.11,1.11,0,0,1,.24-.05l.38,0,.37,0a1.11,1.11,0,0,1,.24.05.32.32,0,0,1,.13.08.21.21,0,0,1,0,.11Z"/><path class="cls-5" d="M121.72,60.22a4.37,4.37,0,0,1-.19,1.29,2.73,2.73,0,0,1-.56,1,2.42,2.42,0,0,1-.94.64,3.4,3.4,0,0,1-1.33.23,3.78,3.78,0,0,1-1.28-.2A2.26,2.26,0,0,1,116,61.63a4.66,4.66,0,0,1-.17-1.3,4,4,0,0,1,.19-1.28,2.54,2.54,0,0,1,1.5-1.65,3.6,3.6,0,0,1,1.33-.22,3.55,3.55,0,0,1,1.28.2,2.24,2.24,0,0,1,.9.59,2.36,2.36,0,0,1,.52,1A4.3,4.3,0,0,1,121.72,60.22Zm-1.6.06a3.38,3.38,0,0,0-.07-.74,1.59,1.59,0,0,0-.22-.6,1,1,0,0,0-.4-.39,1.3,1.3,0,0,0-.65-.15,1.4,1.4,0,0,0-.6.13,1,1,0,0,0-.43.37,1.87,1.87,0,0,0-.25.59,3.94,3.94,0,0,0,0,1.53,1.8,1.8,0,0,0,.21.59,1,1,0,0,0,.41.39,1.3,1.3,0,0,0,.65.14,1.48,1.48,0,0,0,.61-.12,1.15,1.15,0,0,0,.42-.37,1.7,1.7,0,0,0,.25-.58A3.7,3.7,0,0,0,120.12,60.28Z"/><path class="cls-5" d="M126.82,61.48a1.8,1.8,0,0,1-.18.82,1.69,1.69,0,0,1-.49.6,2.32,2.32,0,0,1-.76.36,4,4,0,0,1-1.54.08,4.11,4.11,0,0,1-.5-.12,3,3,0,0,1-.38-.15.76.76,0,0,1-.21-.14.42.42,0,0,1-.11-.2,2.07,2.07,0,0,1,0-.41,2.44,2.44,0,0,1,0-.29.61.61,0,0,1,0-.17.15.15,0,0,1,.06-.09l.09,0a.48.48,0,0,1,.2.08l.33.17a3.44,3.44,0,0,0,.46.17,1.86,1.86,0,0,0,.6.08,1.4,1.4,0,0,0,.37,0,1,1,0,0,0,.28-.12.76.76,0,0,0,.19-.21.61.61,0,0,0,.06-.28.47.47,0,0,0-.12-.32.91.91,0,0,0-.3-.23,3.46,3.46,0,0,0-.43-.19l-.48-.19a4.44,4.44,0,0,1-.49-.24,2,2,0,0,1-.43-.33,1.72,1.72,0,0,1-.3-.47,1.92,1.92,0,0,1-.11-.67,1.77,1.77,0,0,1,.15-.73,1.51,1.51,0,0,1,.45-.56,1.86,1.86,0,0,1,.7-.36,3.05,3.05,0,0,1,.94-.13,4.07,4.07,0,0,1,.5,0,4.13,4.13,0,0,1,.44.1,1.27,1.27,0,0,1,.33.12l.2.11a.22.22,0,0,1,.08.09.36.36,0,0,1,0,.11s0,.1,0,.16a1.63,1.63,0,0,1,0,.24,2.1,2.1,0,0,1,0,.27c0,.07,0,.13,0,.17s0,.07-.06.08l-.09,0a.49.49,0,0,1-.17-.06,2,2,0,0,0-.29-.14,2.79,2.79,0,0,0-.41-.14,2.06,2.06,0,0,0-.53-.07,1.25,1.25,0,0,0-.36,0,.73.73,0,0,0-.25.12.45.45,0,0,0-.15.19.59.59,0,0,0,0,.23.45.45,0,0,0,.12.32,1.09,1.09,0,0,0,.31.23,2.14,2.14,0,0,0,.43.18l.49.19c.17.07.33.15.5.24a2,2,0,0,1,.43.33,1.54,1.54,0,0,1,.31.47A1.66,1.66,0,0,1,126.82,61.48Z"/><path class="cls-5" d="M30.8,73.31a5.32,5.32,0,0,1-.15,1.32,3.14,3.14,0,0,1-.46,1,2.08,2.08,0,0,1-.75.63,2.29,2.29,0,0,1-1,.22,2.15,2.15,0,0,1-.45,0,1.74,1.74,0,0,1-.38-.14,4,4,0,0,1-.38-.24l-.38-.33v2.59a.17.17,0,0,1,0,.11.23.23,0,0,1-.12.08,1.11,1.11,0,0,1-.24,0l-.38,0-.37,0a1.11,1.11,0,0,1-.24,0,.32.32,0,0,1-.13-.08.23.23,0,0,1,0-.11V70.64a.2.2,0,0,1,0-.11.2.2,0,0,1,.1-.07.59.59,0,0,1,.21,0l.32,0,.31,0a.53.53,0,0,1,.2,0,.23.23,0,0,1,.11.07.2.2,0,0,1,0,.11v.65a6.17,6.17,0,0,1,.47-.44,3.17,3.17,0,0,1,.47-.31,1.91,1.91,0,0,1,.5-.19,2.38,2.38,0,0,1,.55-.06,2.09,2.09,0,0,1,1,.24,1.87,1.87,0,0,1,.69.65,2.77,2.77,0,0,1,.39,1A5.52,5.52,0,0,1,30.8,73.31Zm-1.61.11a4.8,4.8,0,0,0-.05-.67,2.32,2.32,0,0,0-.18-.58,1.12,1.12,0,0,0-.34-.4.82.82,0,0,0-.51-.16,1.12,1.12,0,0,0-.31,0,1.05,1.05,0,0,0-.3.15,2,2,0,0,0-.33.27,3.23,3.23,0,0,0-.35.42v1.81a3.82,3.82,0,0,0,.62.64,1,1,0,0,0,.62.22.91.91,0,0,0,.52-.15,1.21,1.21,0,0,0,.34-.4,2,2,0,0,0,.2-.57A2.7,2.7,0,0,0,29.19,73.42Z"/><path class="cls-5" d="M36.73,76.16a.18.18,0,0,1-.06.14.58.58,0,0,1-.19.07l-.4,0-.4,0a.52.52,0,0,1-.18-.07.22.22,0,0,1,0-.14v-.44a2.49,2.49,0,0,1-.77.57,2.22,2.22,0,0,1-1,.2,2.65,2.65,0,0,1-.81-.11,1.91,1.91,0,0,1-.63-.34,1.56,1.56,0,0,1-.42-.56,1.87,1.87,0,0,1-.14-.78,1.81,1.81,0,0,1,.18-.83,1.61,1.61,0,0,1,.57-.59,2.9,2.9,0,0,1,.92-.34,7,7,0,0,1,1.29-.11h.54V72.5a2,2,0,0,0-.05-.46.83.83,0,0,0-.18-.32.64.64,0,0,0-.32-.19,1.73,1.73,0,0,0-.49-.06,3,3,0,0,0-.7.08,4.8,4.8,0,0,0-.54.19l-.39.2a.64.64,0,0,1-.25.08.16.16,0,0,1-.12,0,.27.27,0,0,1-.09-.12,1,1,0,0,1,0-.2,1.1,1.1,0,0,1,0-.26,1.15,1.15,0,0,1,0-.3.41.41,0,0,1,.12-.2.9.9,0,0,1,.3-.2,3.46,3.46,0,0,1,.5-.2,5.47,5.47,0,0,1,.64-.15,4,4,0,0,1,.7-.06,4,4,0,0,1,1.11.13,1.88,1.88,0,0,1,.76.38,1.59,1.59,0,0,1,.43.68,3.14,3.14,0,0,1,.13,1ZM35.21,73.8h-.59a2.9,2.9,0,0,0-.64.06,1.26,1.26,0,0,0-.44.17.66.66,0,0,0-.24.26.87.87,0,0,0-.08.37.71.71,0,0,0,.22.54.9.9,0,0,0,.61.2,1.13,1.13,0,0,0,.6-.17,2.42,2.42,0,0,0,.56-.49Z"/><path class="cls-5" d="M41.82,71.15a3.57,3.57,0,0,1,0,.37c0,.09,0,.16,0,.22a.23.23,0,0,1-.07.11.15.15,0,0,1-.1,0l-.11,0-.14,0-.17,0a.64.64,0,0,0-.2,0,.58.58,0,0,0-.26.06,1,1,0,0,0-.27.16,1.67,1.67,0,0,0-.29.3,3.8,3.8,0,0,0-.32.45v3.43a.21.21,0,0,1,0,.11.32.32,0,0,1-.13.08l-.24,0-.37,0-.38,0-.24,0a.23.23,0,0,1-.12-.08.15.15,0,0,1,0-.11v-5.5a.2.2,0,0,1,0-.11.23.23,0,0,1,.11-.07.65.65,0,0,1,.21,0l.32,0,.32,0a.44.44,0,0,1,.2,0,.23.23,0,0,1,.11.07.2.2,0,0,1,0,.11v.68a4.84,4.84,0,0,1,.4-.5,2.05,2.05,0,0,1,.37-.32,1,1,0,0,1,.34-.16,1.06,1.06,0,0,1,.35,0h.17a.63.63,0,0,1,.19,0l.18,0,.1.06a.13.13,0,0,1,0,.06.81.81,0,0,1,0,.11s0,.1,0,.19S41.82,71,41.82,71.15Z"/><path class="cls-5" d="M47.18,76.16a.18.18,0,0,1-.06.14.58.58,0,0,1-.19.07l-.4,0-.4,0A.45.45,0,0,1,46,76.3a.22.22,0,0,1-.05-.14v-.44a2.53,2.53,0,0,1-.78.57,2.17,2.17,0,0,1-1,.2,2.65,2.65,0,0,1-.81-.11,1.91,1.91,0,0,1-.63-.34,1.56,1.56,0,0,1-.42-.56,1.87,1.87,0,0,1-.15-.78,1.81,1.81,0,0,1,.19-.83,1.58,1.58,0,0,1,.56-.59,3.06,3.06,0,0,1,.93-.34,7,7,0,0,1,1.29-.11h.54V72.5a2,2,0,0,0,0-.46.83.83,0,0,0-.18-.32.64.64,0,0,0-.32-.19,1.73,1.73,0,0,0-.49-.06,2.93,2.93,0,0,0-.7.08,4.8,4.8,0,0,0-.54.19c-.16.07-.28.14-.39.2a.63.63,0,0,1-.26.08.19.19,0,0,1-.12,0,.36.36,0,0,1-.08-.12,1,1,0,0,1-.06-.2,2.17,2.17,0,0,1,0-.26,1.15,1.15,0,0,1,0-.3.49.49,0,0,1,.11-.2,1.1,1.1,0,0,1,.31-.2,3.46,3.46,0,0,1,.5-.2,5.47,5.47,0,0,1,.64-.15,4,4,0,0,1,.7-.06,4,4,0,0,1,1.11.13,1.83,1.83,0,0,1,.75.38,1.42,1.42,0,0,1,.43.68,2.86,2.86,0,0,1,.14,1ZM45.66,73.8h-.59a3,3,0,0,0-.65.06A1.21,1.21,0,0,0,44,74a.66.66,0,0,0-.24.26.87.87,0,0,0-.08.37.67.67,0,0,0,.22.54.9.9,0,0,0,.61.2,1.13,1.13,0,0,0,.6-.17,2.42,2.42,0,0,0,.56-.49Z"/><path class="cls-5" d="M56.67,73.23a.57.57,0,0,1-.13.42.45.45,0,0,1-.35.14H52.84a2.08,2.08,0,0,0,.09.63,1.13,1.13,0,0,0,.73.8,2,2,0,0,0,.69.1,3.69,3.69,0,0,0,.71-.06,4.31,4.31,0,0,0,.54-.13A3.07,3.07,0,0,0,56,75a.93.93,0,0,1,.24,0s.07,0,.09,0a.16.16,0,0,1,.07.07,1.57,1.57,0,0,1,0,.16,1.93,1.93,0,0,1,0,.26,1.55,1.55,0,0,1,0,.23.7.7,0,0,1,0,.16.35.35,0,0,1,0,.12l-.07.09a1,1,0,0,1-.22.11,3.92,3.92,0,0,1-.45.15,4.89,4.89,0,0,1-.64.12,4.62,4.62,0,0,1-.76,0,4.19,4.19,0,0,1-1.29-.18,2.26,2.26,0,0,1-.92-.56,2.29,2.29,0,0,1-.55-1,4.91,4.91,0,0,1,0-2.67,2.69,2.69,0,0,1,.55-1,2.48,2.48,0,0,1,.89-.63,3.09,3.09,0,0,1,1.17-.21,3.16,3.16,0,0,1,1.18.2,2.19,2.19,0,0,1,.81.57,2.26,2.26,0,0,1,.46.85A3.69,3.69,0,0,1,56.67,73Zm-1.51-.44a1.6,1.6,0,0,0-.26-1,1,1,0,0,0-.87-.37,1.06,1.06,0,0,0-.51.11.88.88,0,0,0-.36.3,1.23,1.23,0,0,0-.23.44,2.34,2.34,0,0,0-.09.55Z"/><path class="cls-5" d="M59.5,76.14a.15.15,0,0,1,0,.11.23.23,0,0,1-.12.08l-.24,0-.38,0-.37,0-.24,0a.32.32,0,0,1-.13-.08.21.21,0,0,1,0-.11V68a.21.21,0,0,1,0-.11.32.32,0,0,1,.13-.08,1,1,0,0,1,.24-.06h.75a1,1,0,0,1,.24.06.23.23,0,0,1,.12.08.15.15,0,0,1,0,.11Z"/><path class="cls-5" d="M69.16,76.14a.15.15,0,0,1,0,.11.23.23,0,0,1-.12.08l-.24,0-.37,0-.38,0-.24,0a.23.23,0,0,1-.12-.08.15.15,0,0,1,0-.11V73a2.68,2.68,0,0,0-.06-.63,1.15,1.15,0,0,0-.17-.39.75.75,0,0,0-.28-.25.93.93,0,0,0-.42-.09,1,1,0,0,0-.59.22,2.81,2.81,0,0,0-.63.62v3.66a.15.15,0,0,1,0,.11.26.26,0,0,1-.13.08l-.23,0-.38,0-.38,0-.23,0a.26.26,0,0,1-.13-.08.21.21,0,0,1,0-.11v-5.5a.2.2,0,0,1,0-.11.23.23,0,0,1,.11-.07.65.65,0,0,1,.21,0l.32,0,.33,0a.53.53,0,0,1,.2,0,.26.26,0,0,1,.1.07.2.2,0,0,1,0,.11v.64a3.25,3.25,0,0,1,.93-.74,2,2,0,0,1,1-.25,2.27,2.27,0,0,1,1,.18,1.64,1.64,0,0,1,.62.51,2,2,0,0,1,.34.74,4.24,4.24,0,0,1,.11,1Z"/><path class="cls-5" d="M75.76,73.23a.62.62,0,0,1-.12.42.47.47,0,0,1-.35.14H71.94a2.47,2.47,0,0,0,.08.63,1.22,1.22,0,0,0,.27.49,1.11,1.11,0,0,0,.47.31,2,2,0,0,0,.68.1,3.73,3.73,0,0,0,.72-.06,4.12,4.12,0,0,0,.53-.13,3.3,3.3,0,0,0,.38-.13.93.93,0,0,1,.24,0,.13.13,0,0,1,.09,0,.14.14,0,0,1,.06.07.53.53,0,0,1,0,.16v.49c0,.06,0,.12,0,.16a.34.34,0,0,1,0,.12.24.24,0,0,1-.06.09,1.38,1.38,0,0,1-.22.11,3.56,3.56,0,0,1-.46.15,4.43,4.43,0,0,1-.63.12,4.75,4.75,0,0,1-.77,0A4.08,4.08,0,0,1,72,76.31a2.2,2.2,0,0,1-.92-.56,2.31,2.31,0,0,1-.56-1,4.5,4.5,0,0,1-.18-1.35,4.17,4.17,0,0,1,.19-1.32,2.71,2.71,0,0,1,.56-1A2.45,2.45,0,0,1,72,70.5a3.14,3.14,0,0,1,1.18-.21,3.2,3.2,0,0,1,1.18.2,2.16,2.16,0,0,1,.8.57,2.27,2.27,0,0,1,.47.85A4.07,4.07,0,0,1,75.76,73Zm-1.5-.44a1.66,1.66,0,0,0-.26-1,1.22,1.22,0,0,0-1.38-.26,1,1,0,0,0-.37.3,1.4,1.4,0,0,0-.22.44,2.34,2.34,0,0,0-.09.55Z"/><path class="cls-5" d="M82,71a1,1,0,0,1-.07.44c0,.1-.1.14-.16.14h-.65a.88.88,0,0,1,.19.34,1.23,1.23,0,0,1,.06.39,2,2,0,0,1-.16.85,1.71,1.71,0,0,1-.46.63,2.08,2.08,0,0,1-.72.39,3.1,3.1,0,0,1-.94.13,2.1,2.1,0,0,1-.51-.06,1.18,1.18,0,0,1-.37-.15.91.91,0,0,0-.13.19.51.51,0,0,0-.06.25.34.34,0,0,0,.16.29.77.77,0,0,0,.44.13L80,75a3,3,0,0,1,.83.13,1.66,1.66,0,0,1,.62.32,1.33,1.33,0,0,1,.38.5,1.53,1.53,0,0,1,.14.66,1.67,1.67,0,0,1-.18.76,1.79,1.79,0,0,1-.54.63,2.68,2.68,0,0,1-.9.42,4.73,4.73,0,0,1-1.26.15,5.22,5.22,0,0,1-1.2-.11,2.32,2.32,0,0,1-.81-.31,1.15,1.15,0,0,1-.46-.47,1.21,1.21,0,0,1-.15-.6,1.74,1.74,0,0,1,0-.39,1.58,1.58,0,0,1,.16-.35,1.51,1.51,0,0,1,.25-.33,2,2,0,0,1,.34-.29,1,1,0,0,1-.41-.39,1,1,0,0,1-.15-.53,1.32,1.32,0,0,1,.17-.66,2,2,0,0,1,.43-.54,1.7,1.7,0,0,1-.35-.52,2,2,0,0,1-.13-.76,2.16,2.16,0,0,1,.17-.86,1.89,1.89,0,0,1,.48-.64,2.1,2.1,0,0,1,.72-.4,3,3,0,0,1,.92-.14,4,4,0,0,1,.5,0c.16,0,.3,0,.44.09h1.75c.07,0,.12,0,.16.14A1,1,0,0,1,82,71Zm-1.63,5.7a.48.48,0,0,0-.22-.43,1.16,1.16,0,0,0-.61-.16l-1.11,0a1.51,1.51,0,0,0-.41.43.89.89,0,0,0-.07.19.62.62,0,0,0,0,.19.49.49,0,0,0,.31.47,1.92,1.92,0,0,0,.88.16,2,2,0,0,0,.59-.07,1.18,1.18,0,0,0,.39-.19.58.58,0,0,0,.21-.26A.8.8,0,0,0,80.37,76.72ZM80,72.32a.93.93,0,0,0-.25-.69,1,1,0,0,0-.7-.24.81.81,0,0,0-.68.28.73.73,0,0,0-.17.31,1.15,1.15,0,0,0-.06.37.86.86,0,0,0,.25.66.93.93,0,0,0,.68.25,1,1,0,0,0,.41-.08,1,1,0,0,0,.29-.2,1.11,1.11,0,0,0,.17-.3A1,1,0,0,0,80,72.32Z"/><path class="cls-5" d="M88.47,73.34a4.35,4.35,0,0,1-.18,1.28,2.81,2.81,0,0,1-.57,1,2.55,2.55,0,0,1-.94.65,3.6,3.6,0,0,1-1.33.22,3.49,3.49,0,0,1-1.27-.2,2.28,2.28,0,0,1-.9-.59,2.36,2.36,0,0,1-.53-1,4.28,4.28,0,0,1-.18-1.29,4.37,4.37,0,0,1,.19-1.29,2.81,2.81,0,0,1,.57-1,2.42,2.42,0,0,1,.94-.64,3.5,3.5,0,0,1,1.32-.23,3.78,3.78,0,0,1,1.28.2,2.24,2.24,0,0,1,.9.59,2.52,2.52,0,0,1,.53,1A4.73,4.73,0,0,1,88.47,73.34Zm-1.6.06a4.38,4.38,0,0,0-.06-.75,2,2,0,0,0-.22-.6,1,1,0,0,0-.41-.39,1.28,1.28,0,0,0-.65-.14,1.4,1.4,0,0,0-.6.12,1.18,1.18,0,0,0-.43.37,2,2,0,0,0-.25.59,3.67,3.67,0,0,0-.08.78,3.54,3.54,0,0,0,.07.75,1.65,1.65,0,0,0,.22.59,1.05,1.05,0,0,0,.41.4,1.35,1.35,0,0,0,.64.13,1.44,1.44,0,0,0,.61-.12,1.18,1.18,0,0,0,.43-.37,1.61,1.61,0,0,0,.24-.58A3.12,3.12,0,0,0,86.87,73.4Z"/><path class="cls-5" d="M93.86,75.27a2,2,0,0,1,0,.26.92.92,0,0,1,0,.19.83.83,0,0,1,0,.12.32.32,0,0,1-.1.11,1,1,0,0,1-.25.18,2.65,2.65,0,0,1-.41.18,3.17,3.17,0,0,1-.49.13,3.31,3.31,0,0,1-.55,0,3,3,0,0,1-1.13-.2,2.11,2.11,0,0,1-.82-.58,2.58,2.58,0,0,1-.51-.94,4.5,4.5,0,0,1-.16-1.27,4.37,4.37,0,0,1,.2-1.43,2.8,2.8,0,0,1,.58-1,2.22,2.22,0,0,1,.87-.58,3.08,3.08,0,0,1,1.11-.19,2.63,2.63,0,0,1,.49,0,2.83,2.83,0,0,1,.44.12,1.79,1.79,0,0,1,.37.16,1.08,1.08,0,0,1,.23.16l.1.12a.34.34,0,0,1,0,.12s0,.11,0,.18,0,.16,0,.26a1.17,1.17,0,0,1-.07.5c0,.1-.09.15-.16.15a.37.37,0,0,1-.22-.09l-.27-.19a2.36,2.36,0,0,0-.39-.19,1.4,1.4,0,0,0-.53-.09,1,1,0,0,0-.92.47A2.35,2.35,0,0,0,91,73.39a3.12,3.12,0,0,0,.08.78,1.84,1.84,0,0,0,.23.57,1.09,1.09,0,0,0,.4.34,1.35,1.35,0,0,0,.55.11,1.51,1.51,0,0,0,.55-.09,2.6,2.6,0,0,0,.41-.22l.29-.21a.32.32,0,0,1,.19-.09.17.17,0,0,1,.1,0,.23.23,0,0,1,0,.11,1.12,1.12,0,0,1,0,.21A3.33,3.33,0,0,1,93.86,75.27Z"/><path class="cls-5" d="M96.65,68.78a.87.87,0,0,1-.19.65,1.09,1.09,0,0,1-.71.17,1,1,0,0,1-.7-.17.83.83,0,0,1-.18-.62.92.92,0,0,1,.18-.65,1.08,1.08,0,0,1,.72-.18,1,1,0,0,1,.7.17A.88.88,0,0,1,96.65,68.78Zm-.11,7.36a.15.15,0,0,1,0,.11.26.26,0,0,1-.13.08l-.23,0-.38,0-.38,0-.23,0a.26.26,0,0,1-.13-.08.21.21,0,0,1,0-.11V70.65a.25.25,0,0,1,0-.11.36.36,0,0,1,.13-.08l.23,0,.38,0,.38,0a1,1,0,0,1,.23,0,.36.36,0,0,1,.13.08.17.17,0,0,1,0,.11Z"/><path class="cls-5" d="M103.65,73.34a4,4,0,0,1-.19,1.28,2.65,2.65,0,0,1-.56,1,2.55,2.55,0,0,1-.94.65,3.6,3.6,0,0,1-1.33.22,3.49,3.49,0,0,1-1.27-.2,2.21,2.21,0,0,1-.9-.59,2.36,2.36,0,0,1-.53-1,4.28,4.28,0,0,1-.18-1.29,4.37,4.37,0,0,1,.19-1.29,2.67,2.67,0,0,1,.57-1,2.42,2.42,0,0,1,.94-.64,3.5,3.5,0,0,1,1.32-.23,3.78,3.78,0,0,1,1.28.2,2.24,2.24,0,0,1,.9.59,2.52,2.52,0,0,1,.53,1A4.73,4.73,0,0,1,103.65,73.34Zm-1.6.06a4.38,4.38,0,0,0-.06-.75,2,2,0,0,0-.22-.6,1.09,1.09,0,0,0-.41-.39,1.28,1.28,0,0,0-.65-.14,1.4,1.4,0,0,0-.6.12,1.18,1.18,0,0,0-.43.37,2,2,0,0,0-.25.59,3.67,3.67,0,0,0-.08.78,3.54,3.54,0,0,0,.07.75,1.65,1.65,0,0,0,.22.59,1.05,1.05,0,0,0,.41.4,1.35,1.35,0,0,0,.64.13,1.44,1.44,0,0,0,.61-.12,1.15,1.15,0,0,0,.42-.37,1.46,1.46,0,0,0,.25-.58A3.12,3.12,0,0,0,102.05,73.4Z"/><path class="cls-5" d="M113,76.14a.21.21,0,0,1,0,.12.26.26,0,0,1-.1.07.81.81,0,0,1-.21,0H112a.83.83,0,0,1-.2,0,.23.23,0,0,1-.11-.07.21.21,0,0,1,0-.12v-.61a3.56,3.56,0,0,1-.89.71,2.13,2.13,0,0,1-1,.25,2.16,2.16,0,0,1-1.06-.24,2,2,0,0,1-.71-.66,2.78,2.78,0,0,1-.4-1,5.5,5.5,0,0,1-.12-1.16,4.87,4.87,0,0,1,.16-1.32,2.64,2.64,0,0,1,.46-1,2,2,0,0,1,.75-.64,2.26,2.26,0,0,1,1-.22,1.79,1.79,0,0,1,.84.19,3,3,0,0,1,.75.55v-3a.2.2,0,0,1,0-.11.32.32,0,0,1,.13-.08.94.94,0,0,1,.23-.06l.38,0,.38,0a1.09,1.09,0,0,1,.23.06.23.23,0,0,1,.12.08.15.15,0,0,1,0,.11Zm-1.54-3.67a3.59,3.59,0,0,0-.64-.65,1.12,1.12,0,0,0-.64-.22.91.91,0,0,0-.52.15,1.08,1.08,0,0,0-.35.41,2.31,2.31,0,0,0-.2.56,3.39,3.39,0,0,0-.06.64,4.91,4.91,0,0,0,0,.67,2,2,0,0,0,.19.59,1.11,1.11,0,0,0,.33.41.9.9,0,0,0,.53.15,1.06,1.06,0,0,0,.31-.05,1.1,1.1,0,0,0,.31-.15,2.46,2.46,0,0,0,.33-.27,4.25,4.25,0,0,0,.36-.42Z"/><path class="cls-5" d="M119.59,73.23a.62.62,0,0,1-.12.42.47.47,0,0,1-.35.14h-3.35a2.47,2.47,0,0,0,.08.63,1.22,1.22,0,0,0,.27.49,1.11,1.11,0,0,0,.47.31,2,2,0,0,0,.68.1,3.8,3.8,0,0,0,.72-.06,4.12,4.12,0,0,0,.53-.13,3.3,3.3,0,0,0,.38-.13.93.93,0,0,1,.24,0,.13.13,0,0,1,.09,0,.14.14,0,0,1,.06.07.53.53,0,0,1,0,.16v.49c0,.06,0,.12,0,.16a.34.34,0,0,1,0,.12.47.47,0,0,1-.06.09,1.38,1.38,0,0,1-.22.11,3.56,3.56,0,0,1-.46.15,4.43,4.43,0,0,1-.63.12,4.75,4.75,0,0,1-.77,0,4.08,4.08,0,0,1-1.28-.18,2.2,2.2,0,0,1-.92-.56,2.31,2.31,0,0,1-.56-1,4.5,4.5,0,0,1-.18-1.35,4.17,4.17,0,0,1,.19-1.32,2.71,2.71,0,0,1,.56-1,2.45,2.45,0,0,1,.88-.63,3.14,3.14,0,0,1,1.18-.21,3.2,3.2,0,0,1,1.18.2,2.16,2.16,0,0,1,.8.57,2.27,2.27,0,0,1,.47.85,4.07,4.07,0,0,1,.14,1.07Zm-1.5-.44a1.66,1.66,0,0,0-.26-1,1.22,1.22,0,0,0-1.38-.26,1,1,0,0,0-.37.3,1.4,1.4,0,0,0-.22.44,2.34,2.34,0,0,0-.09.55Z"/><path class="cls-5" d="M26,88.86a2,2,0,0,1,.09.35.22.22,0,0,1-.05.2.39.39,0,0,1-.24.08h-1a1.45,1.45,0,0,1-.27,0,.26.26,0,0,1-.19-.21l-.54-1.6h-3l-.5,1.56a.61.61,0,0,1-.07.14.22.22,0,0,1-.13.09.73.73,0,0,1-.25,0h-.43a2.63,2.63,0,0,1-.44,0,.3.3,0,0,1-.22-.09.21.21,0,0,1,0-.2,3,3,0,0,1,.09-.34l2.47-7.08a.54.54,0,0,1,.08-.17.26.26,0,0,1,.16-.1,1.08,1.08,0,0,1,.3,0h1.08a1.37,1.37,0,0,1,.34,0,.31.31,0,0,1,.17.1.48.48,0,0,1,.09.19ZM22.35,83h0L21.21,86.4h2.26Z"/><path class="cls-5" d="M32,84.14a1,1,0,0,1-.07.43c0,.1-.1.15-.16.15h-.65a.73.73,0,0,1,.19.33,1.32,1.32,0,0,1,.06.39,2.13,2.13,0,0,1-.16.86,1.61,1.61,0,0,1-.46.63,2.08,2.08,0,0,1-.72.39,3.39,3.39,0,0,1-.94.13,1.59,1.59,0,0,1-.5-.07,1.15,1.15,0,0,1-.38-.15c0,.06-.09.12-.13.19a.54.54,0,0,0-.06.25.35.35,0,0,0,.16.29.79.79,0,0,0,.44.13l1.34,0a3.52,3.52,0,0,1,.84.13,1.76,1.76,0,0,1,.61.32,1.45,1.45,0,0,1,.39.5,1.69,1.69,0,0,1,.13.66,1.71,1.71,0,0,1-.18.77,1.68,1.68,0,0,1-.54.62,2.72,2.72,0,0,1-.89.42,4.73,4.73,0,0,1-1.27.16,6,6,0,0,1-1.2-.11A2.8,2.8,0,0,1,27,91.3a1.23,1.23,0,0,1-.46-.48,1.21,1.21,0,0,1-.15-.6,1.32,1.32,0,0,1,.06-.39,1.19,1.19,0,0,1,.15-.35,1.85,1.85,0,0,1,.25-.32,2,2,0,0,1,.34-.3.91.91,0,0,1-.41-.39,1,1,0,0,1-.15-.53,1.35,1.35,0,0,1,.17-.66,2,2,0,0,1,.43-.54,1.67,1.67,0,0,1-.34-.52,1.83,1.83,0,0,1-.13-.75,2,2,0,0,1,.17-.86,1.69,1.69,0,0,1,.47-.64,2.12,2.12,0,0,1,.72-.41,3,3,0,0,1,.92-.13,4,4,0,0,1,.5,0l.44.08h1.75c.07,0,.12,0,.17.14A1.23,1.23,0,0,1,32,84.14Zm-1.63,5.69a.48.48,0,0,0-.22-.43,1.16,1.16,0,0,0-.61-.16l-1.1,0a1.56,1.56,0,0,0-.26.23l-.15.2a.6.6,0,0,0-.08.19,1.36,1.36,0,0,0,0,.2.51.51,0,0,0,.31.47,2.06,2.06,0,0,0,.88.16,2,2,0,0,0,.59-.08,1.18,1.18,0,0,0,.39-.18.66.66,0,0,0,.21-.27A.73.73,0,0,0,30.36,89.83ZM30,85.44a.87.87,0,0,0-.94-.94,1,1,0,0,0-.4.08.7.7,0,0,0-.29.21.9.9,0,0,0-.17.3,1.15,1.15,0,0,0-.06.37.86.86,0,0,0,.93.91,1,1,0,0,0,.41-.08.66.66,0,0,0,.29-.2,1,1,0,0,0,.17-.3A1,1,0,0,0,30,85.44Z"/><path class="cls-5" d="M38.24,89.25a.18.18,0,0,1,0,.11.24.24,0,0,1-.11.08.83.83,0,0,1-.2,0h-.65a.83.83,0,0,1-.2,0,.21.21,0,0,1-.1-.08.14.14,0,0,1,0-.11v-.63a3.36,3.36,0,0,1-.92.74,2.16,2.16,0,0,1-1,.25,2.06,2.06,0,0,1-.95-.19,1.65,1.65,0,0,1-.63-.5,2.14,2.14,0,0,1-.34-.75,5,5,0,0,1-.1-1V83.75a.13.13,0,0,1,0-.1.18.18,0,0,1,.12-.08,1.11,1.11,0,0,1,.24,0h.75a1.11,1.11,0,0,1,.24,0,.18.18,0,0,1,.12.08.13.13,0,0,1,0,.1v3.11a2.73,2.73,0,0,0,.06.66,1.14,1.14,0,0,0,.16.39.89.89,0,0,0,.29.26.93.93,0,0,0,.42.09,1.05,1.05,0,0,0,.59-.22,3.4,3.4,0,0,0,.64-.63V83.75a.17.17,0,0,1,0-.1s.07-.06.13-.08a1,1,0,0,1,.23,0h.76l.23,0a.18.18,0,0,1,.12.08.13.13,0,0,1,0,.1Z"/><path class="cls-5" d="M44.49,89.27a.17.17,0,0,1-.06.14.42.42,0,0,1-.2.07l-.39,0-.4,0a.3.3,0,0,1-.18-.07.16.16,0,0,1,0-.14v-.43a2.49,2.49,0,0,1-.78.56,2.18,2.18,0,0,1-1,.21,2.6,2.6,0,0,1-.81-.12,1.75,1.75,0,0,1-.63-.34,1.52,1.52,0,0,1-.42-.55,1.94,1.94,0,0,1-.15-.78,1.74,1.74,0,0,1,.19-.84,1.55,1.55,0,0,1,.56-.58,2.82,2.82,0,0,1,.93-.35,7,7,0,0,1,1.29-.11H43v-.33a1.53,1.53,0,0,0-.06-.45.74.74,0,0,0-.17-.33.78.78,0,0,0-.32-.19,1.75,1.75,0,0,0-.5-.06,2.4,2.4,0,0,0-.69.09,3.4,3.4,0,0,0-.54.19,3.6,3.6,0,0,0-.39.19.54.54,0,0,1-.26.08.19.19,0,0,1-.12,0,.62.62,0,0,1-.09-.12.83.83,0,0,1,0-.2,2,2,0,0,1,0-.26,1.15,1.15,0,0,1,0-.3.59.59,0,0,1,.12-.2,1.18,1.18,0,0,1,.3-.2,4.18,4.18,0,0,1,.51-.2,4.87,4.87,0,0,1,.63-.15,4.17,4.17,0,0,1,.71-.06,4,4,0,0,1,1.11.13,1.79,1.79,0,0,1,.75.39,1.47,1.47,0,0,1,.43.67,3.17,3.17,0,0,1,.14,1ZM43,86.92h-.6a3.87,3.87,0,0,0-.64,0,1.33,1.33,0,0,0-.43.17.62.62,0,0,0-.24.27.8.8,0,0,0-.08.36.67.67,0,0,0,.22.54.88.88,0,0,0,.61.2,1.19,1.19,0,0,0,.6-.17,2.42,2.42,0,0,0,.56-.49Z"/><path class="cls-5" d="M52.08,89.46l-.66,2a.41.41,0,0,1-.31.23,3.2,3.2,0,0,1-.72.06,2.18,2.18,0,0,1-.39,0,.47.47,0,0,1-.22-.07.18.18,0,0,1-.09-.12.45.45,0,0,1,0-.18l.74-1.85a.33.33,0,0,1-.15-.11.51.51,0,0,1-.09-.16l-1.9-5.06a1.1,1.1,0,0,1-.08-.33.22.22,0,0,1,.08-.18.55.55,0,0,1,.25-.09,3,3,0,0,1,.46,0h.42a.75.75,0,0,1,.24,0,.25.25,0,0,1,.13.12,1,1,0,0,1,.09.22l1.29,3.68h0l1.19-3.76a.34.34,0,0,1,.09-.21.38.38,0,0,1,.2-.08,2.71,2.71,0,0,1,.47,0,2.82,2.82,0,0,1,.44,0,.65.65,0,0,1,.26.09.22.22,0,0,1,.08.19.69.69,0,0,1-.05.26Z"/><path class="cls-5" d="M62.56,87.07a2.45,2.45,0,0,1-.24,1.11,2.32,2.32,0,0,1-.63.79,2.88,2.88,0,0,1-.94.48,4.26,4.26,0,0,1-1.15.16,4.69,4.69,0,0,1-.77-.07,6.15,6.15,0,0,1-.62-.16,4.19,4.19,0,0,1-.46-.2,1.34,1.34,0,0,1-.26-.19.45.45,0,0,1-.11-.23,2.27,2.27,0,0,1,0-.44,2.88,2.88,0,0,1,0-.32.65.65,0,0,1,0-.21.23.23,0,0,1,.07-.11.2.2,0,0,1,.11,0,.45.45,0,0,1,.24.1c.11.06.24.14.41.22a4.12,4.12,0,0,0,.58.23,3.18,3.18,0,0,0,.8.1,1.79,1.79,0,0,0,.53-.07,1.5,1.5,0,0,0,.4-.2,1.11,1.11,0,0,0,.25-.32,1.18,1.18,0,0,0,.08-.43.73.73,0,0,0-.15-.46,1.29,1.29,0,0,0-.38-.35,4.52,4.52,0,0,0-.54-.28l-.62-.28a4.77,4.77,0,0,1-.63-.34,2.93,2.93,0,0,1-.54-.45,2.15,2.15,0,0,1-.38-.62,2.21,2.21,0,0,1-.15-.86,2.31,2.31,0,0,1,.21-1,2.05,2.05,0,0,1,.58-.72,2.52,2.52,0,0,1,.85-.43,3.84,3.84,0,0,1,1-.14,5.27,5.27,0,0,1,.56,0,3.77,3.77,0,0,1,.53.12,3.12,3.12,0,0,1,.44.17,1.28,1.28,0,0,1,.26.15.59.59,0,0,1,.08.11.66.66,0,0,1,0,.11s0,.11,0,.18v.27a2.63,2.63,0,0,1,0,.3.56.56,0,0,1,0,.2.17.17,0,0,1-.06.12.14.14,0,0,1-.11,0,.52.52,0,0,1-.21-.09l-.37-.19a3.56,3.56,0,0,0-.5-.18,2,2,0,0,0-.62-.08,1.56,1.56,0,0,0-.46.06.88.88,0,0,0-.33.18.73.73,0,0,0-.2.27,1,1,0,0,0-.06.34.78.78,0,0,0,.14.46,1.48,1.48,0,0,0,.39.35,4.69,4.69,0,0,0,.55.28l.63.28a5.49,5.49,0,0,1,.63.34,2.17,2.17,0,0,1,.55.45,2,2,0,0,1,.39.62A2.09,2.09,0,0,1,62.56,87.07Z"/><path class="cls-5" d="M68.39,89.27a.17.17,0,0,1-.06.14.42.42,0,0,1-.19.07l-.4,0-.4,0a.34.34,0,0,1-.18-.07.2.2,0,0,1,0-.14v-.43a2.49,2.49,0,0,1-.78.56,2.18,2.18,0,0,1-1,.21,2.64,2.64,0,0,1-.81-.12,1.75,1.75,0,0,1-.63-.34,1.52,1.52,0,0,1-.42-.55,1.94,1.94,0,0,1-.15-.78,1.86,1.86,0,0,1,.19-.84,1.55,1.55,0,0,1,.56-.58,2.82,2.82,0,0,1,.93-.35,7,7,0,0,1,1.29-.11h.54v-.33a2,2,0,0,0-.05-.45.88.88,0,0,0-.18-.33.78.78,0,0,0-.32-.19,1.73,1.73,0,0,0-.49-.06,2.48,2.48,0,0,0-.7.09,3.4,3.4,0,0,0-.54.19l-.39.19a.51.51,0,0,1-.26.08.19.19,0,0,1-.12,0,.36.36,0,0,1-.08-.12.8.8,0,0,1-.06-.2,2.09,2.09,0,0,1,0-.26,1.15,1.15,0,0,1,0-.3.56.56,0,0,1,.11-.2,1.1,1.1,0,0,1,.31-.2,3.46,3.46,0,0,1,.5-.2,5.47,5.47,0,0,1,.64-.15,4,4,0,0,1,.7-.06,4,4,0,0,1,1.11.13,1.73,1.73,0,0,1,.75.39,1.39,1.39,0,0,1,.43.67,2.9,2.9,0,0,1,.14,1Zm-1.52-2.35h-.59a3.91,3.91,0,0,0-.65,0,1.43,1.43,0,0,0-.43.17.62.62,0,0,0-.24.27.8.8,0,0,0-.08.36.67.67,0,0,0,.22.54.9.9,0,0,0,.61.2,1.13,1.13,0,0,0,.6-.17,2.42,2.42,0,0,0,.56-.49Z"/><path class="cls-5" d="M75.2,89.25a.18.18,0,0,1,0,.11.32.32,0,0,1-.13.08.89.89,0,0,1-.23,0H74a.89.89,0,0,1-.23,0,.32.32,0,0,1-.13-.08.18.18,0,0,1,0-.11V86.12a2.57,2.57,0,0,0-.06-.63,1.34,1.34,0,0,0-.17-.4.82.82,0,0,0-.7-.34,1,1,0,0,0-.6.22,3.11,3.11,0,0,0-.63.63v3.65a.18.18,0,0,1,0,.11.32.32,0,0,1-.13.08,1.11,1.11,0,0,1-.24,0h-.75a1.11,1.11,0,0,1-.24,0,.23.23,0,0,1-.12-.08.14.14,0,0,1,0-.11v-5.5a.17.17,0,0,1,0-.1.19.19,0,0,1,.11-.08.93.93,0,0,1,.21,0h.64a.64.64,0,0,1,.2,0,.23.23,0,0,1,.11.08.17.17,0,0,1,0,.1v.64a3.36,3.36,0,0,1,.92-.74,2.08,2.08,0,0,1,1-.25,2,2,0,0,1,.94.19,1.65,1.65,0,0,1,.63.5,2,2,0,0,1,.34.74,4.39,4.39,0,0,1,.11,1Z"/><path class="cls-5" d="M81.8,86.34a.57.57,0,0,1-.13.42.44.44,0,0,1-.34.14H78a2.16,2.16,0,0,0,.08.64,1.13,1.13,0,0,0,.27.48,1.07,1.07,0,0,0,.46.31,2,2,0,0,0,.69.1,3.94,3.94,0,0,0,.72-.05l.53-.13.37-.13a.69.69,0,0,1,.24-.06l.1,0a.18.18,0,0,1,.06.08.49.49,0,0,1,0,.15,2,2,0,0,1,0,.26v.23c0,.07,0,.12,0,.17a.36.36,0,0,1,0,.11l-.06.09a.77.77,0,0,1-.22.12,3.74,3.74,0,0,1-.46.14,5,5,0,0,1-.63.12,4.72,4.72,0,0,1-.77.06,3.89,3.89,0,0,1-1.29-.19,2.33,2.33,0,0,1-.92-.56,2.41,2.41,0,0,1-.55-1,4.48,4.48,0,0,1-.18-1.34,4.27,4.27,0,0,1,.19-1.33,2.93,2.93,0,0,1,.55-1,2.42,2.42,0,0,1,.89-.62,2.94,2.94,0,0,1,1.17-.22,3.05,3.05,0,0,1,1.19.21,2.1,2.1,0,0,1,.8.56,2.26,2.26,0,0,1,.46.85,3.71,3.71,0,0,1,.15,1.08Zm-1.5-.44a1.6,1.6,0,0,0-.27-1,1,1,0,0,0-.86-.37,1.21,1.21,0,0,0-.52.11,1,1,0,0,0-.36.3,1.3,1.3,0,0,0-.22.44,2,2,0,0,0-.09.55Z"/><path class="cls-5" d="M87.76,89.27a.17.17,0,0,1-.06.14.38.38,0,0,1-.19.07l-.39,0-.41,0a.38.38,0,0,1-.18-.07.2.2,0,0,1,0-.14v-.43a2.35,2.35,0,0,1-.77.56,2.19,2.19,0,0,1-1,.21,2.53,2.53,0,0,1-.8-.12,1.71,1.71,0,0,1-.64-.34,1.4,1.4,0,0,1-.41-.55,1.94,1.94,0,0,1-.15-.78,1.74,1.74,0,0,1,.19-.84,1.48,1.48,0,0,1,.56-.58,2.82,2.82,0,0,1,.93-.35,6.94,6.94,0,0,1,1.28-.11h.54v-.33a2,2,0,0,0,0-.45.86.86,0,0,0-.17-.33.78.78,0,0,0-.32-.19,1.8,1.8,0,0,0-.5-.06,2.4,2.4,0,0,0-.69.09,2.81,2.81,0,0,0-.54.19l-.4.19a.51.51,0,0,1-.25.08.16.16,0,0,1-.12,0,.27.27,0,0,1-.09-.12.83.83,0,0,1,0-.2,2,2,0,0,1,0-.26,1.15,1.15,0,0,1,0-.3.47.47,0,0,1,.12-.2,1.18,1.18,0,0,1,.3-.2,3.19,3.19,0,0,1,.51-.2,4.87,4.87,0,0,1,.63-.15,4.08,4.08,0,0,1,.71-.06,3.9,3.9,0,0,1,1.1.13,1.77,1.77,0,0,1,.76.39,1.47,1.47,0,0,1,.43.67,3.19,3.19,0,0,1,.13,1Zm-1.52-2.35h-.59A3.78,3.78,0,0,0,85,87a1.33,1.33,0,0,0-.43.17.65.65,0,0,0-.25.27.8.8,0,0,0-.07.36.7.7,0,0,0,.21.54.9.9,0,0,0,.61.2,1.13,1.13,0,0,0,.6-.17,2.23,2.23,0,0,0,.56-.49Z"/><path class="cls-5" d="M98.07,89.25a.18.18,0,0,1,0,.11.36.36,0,0,1-.12.08,1.11,1.11,0,0,1-.24,0h-.76a.89.89,0,0,1-.23,0,.26.26,0,0,1-.13-.08.18.18,0,0,1,0-.11V86a2.57,2.57,0,0,0,0-.5,1.34,1.34,0,0,0-.16-.4,1,1,0,0,0-.28-.25.8.8,0,0,0-.39-.09.91.91,0,0,0-.56.22,3.71,3.71,0,0,0-.62.63v3.65a.18.18,0,0,1,0,.11.32.32,0,0,1-.13.08,1.11,1.11,0,0,1-.24,0h-.74a1.11,1.11,0,0,1-.24,0,.32.32,0,0,1-.13-.08.18.18,0,0,1,0-.11V86a2,2,0,0,0-.06-.5,1.11,1.11,0,0,0-.15-.4.76.76,0,0,0-.28-.25.79.79,0,0,0-.38-.09.91.91,0,0,0-.57.22,3.36,3.36,0,0,0-.61.63v3.65a.14.14,0,0,1,0,.11.26.26,0,0,1-.13.08.89.89,0,0,1-.23,0h-.76l-.23,0a.32.32,0,0,1-.13-.08.18.18,0,0,1,0-.11v-5.5a.17.17,0,0,1,0-.1.21.21,0,0,1,.12-.08l.2,0h.65l.2,0a.2.2,0,0,1,.1.08.17.17,0,0,1,0,.1v.64a3.49,3.49,0,0,1,.91-.74,1.9,1.9,0,0,1,1-.25,2.84,2.84,0,0,1,.61.07,1.75,1.75,0,0,1,.48.21A1.39,1.39,0,0,1,94,84a2.26,2.26,0,0,1,.26.42A4.08,4.08,0,0,1,94.7,84a2.92,2.92,0,0,1,.47-.31,2.19,2.19,0,0,1,.46-.18,1.89,1.89,0,0,1,.47-.06,2,2,0,0,1,.93.19,1.66,1.66,0,0,1,.61.5,2.17,2.17,0,0,1,.33.74,4.43,4.43,0,0,1,.1.9Z"/><path class="cls-5" d="M101.26,81.89a.87.87,0,0,1-.19.65,1.49,1.49,0,0,1-1.42,0,.83.83,0,0,1-.18-.62.87.87,0,0,1,.19-.65,1,1,0,0,1,.71-.18,1.11,1.11,0,0,1,.71.17A.88.88,0,0,1,101.26,81.89Zm-.12,7.36a.18.18,0,0,1,0,.11.32.32,0,0,1-.13.08,1.11,1.11,0,0,1-.24,0H100a1.11,1.11,0,0,1-.24,0,.23.23,0,0,1-.12-.08.14.14,0,0,1,0-.11V83.77a.14.14,0,0,1,0-.11.23.23,0,0,1,.12-.08,1,1,0,0,1,.24-.06h.75a1,1,0,0,1,.24.06.32.32,0,0,1,.13.08.18.18,0,0,1,0,.11Z"/><path class="cls-5" d="M107.77,86.34a.62.62,0,0,1-.12.42.47.47,0,0,1-.35.14H104a2.55,2.55,0,0,0,.08.64,1.25,1.25,0,0,0,.27.48,1.11,1.11,0,0,0,.47.31,2,2,0,0,0,.69.1,3.76,3.76,0,0,0,.71-.05c.21,0,.38-.09.53-.13l.38-.13a.69.69,0,0,1,.24-.06l.09,0a.1.1,0,0,1,.06.08.46.46,0,0,1,0,.15c0,.07,0,.16,0,.26s0,.17,0,.23a.79.79,0,0,1,0,.17.36.36,0,0,1,0,.11.24.24,0,0,1-.06.09.77.77,0,0,1-.22.12,3.74,3.74,0,0,1-.46.14,4.43,4.43,0,0,1-.63.12,4.72,4.72,0,0,1-.77.06,3.83,3.83,0,0,1-1.28-.19,2.2,2.2,0,0,1-.92-.56,2.31,2.31,0,0,1-.56-1,4.48,4.48,0,0,1-.18-1.34,4.27,4.27,0,0,1,.19-1.33,3,3,0,0,1,.56-1,2.39,2.39,0,0,1,.88-.62,3,3,0,0,1,1.18-.22,3,3,0,0,1,1.18.21,2,2,0,0,1,.8.56,2.27,2.27,0,0,1,.47.85,3.71,3.71,0,0,1,.14,1.08Zm-1.5-.44a1.6,1.6,0,0,0-.26-1,1,1,0,0,0-.87-.37,1.13,1.13,0,0,0-.51.11,1,1,0,0,0-.37.3,1.51,1.51,0,0,0-.22.44,2.43,2.43,0,0,0-.09.55Z"/><path class="cls-5" d="M114.31,89.25a.18.18,0,0,1,0,.11.36.36,0,0,1-.12.08,1.11,1.11,0,0,1-.24,0h-.75a1.11,1.11,0,0,1-.24,0,.32.32,0,0,1-.13-.08.18.18,0,0,1,0-.11V86.12a2.57,2.57,0,0,0-.06-.63,1.34,1.34,0,0,0-.17-.4.79.79,0,0,0-.29-.25.86.86,0,0,0-.41-.09,1,1,0,0,0-.6.22,2.85,2.85,0,0,0-.62.63v3.65a.18.18,0,0,1,0,.11.32.32,0,0,1-.13.08,1.11,1.11,0,0,1-.24,0h-.75a1.11,1.11,0,0,1-.24,0,.23.23,0,0,1-.12-.08.14.14,0,0,1,0-.11v-5.5a.17.17,0,0,1,0-.1.19.19,0,0,1,.11-.08l.21,0H110a.64.64,0,0,1,.2,0,.19.19,0,0,1,.11.08.17.17,0,0,1,0,.1v.64a3.25,3.25,0,0,1,.93-.74,2,2,0,0,1,1-.25,2.12,2.12,0,0,1,.95.19,1.69,1.69,0,0,1,.62.5,2,2,0,0,1,.34.74,4.39,4.39,0,0,1,.11,1Z"/><path class="cls-5" d="M119,88.71a2.26,2.26,0,0,1,0,.42.63.63,0,0,1-.09.2.56.56,0,0,1-.17.11l-.25.08-.31,0-.35,0a2.41,2.41,0,0,1-.8-.12,1.36,1.36,0,0,1-.56-.36,1.5,1.5,0,0,1-.33-.61,3.28,3.28,0,0,1-.1-.88V84.8h-.66a.2.2,0,0,1-.18-.14,1.42,1.42,0,0,1-.06-.49,2.63,2.63,0,0,1,0-.3.64.64,0,0,1,0-.19.24.24,0,0,1,.08-.11.17.17,0,0,1,.1,0H116V82.32a.2.2,0,0,1,0-.11.22.22,0,0,1,.13-.09,1,1,0,0,1,.24-.05h.75a1.11,1.11,0,0,1,.24.05.27.27,0,0,1,.12.09.21.21,0,0,1,0,.11v1.22h1.19a.2.2,0,0,1,.11,0,.24.24,0,0,1,.08.11.69.69,0,0,1,0,.19,2.36,2.36,0,0,1,0,.3,1.42,1.42,0,0,1-.06.49.2.2,0,0,1-.18.14h-1.2v2.59a1.22,1.22,0,0,0,.14.67.54.54,0,0,0,.5.23.8.8,0,0,0,.23,0l.17,0,.13,0a.2.2,0,0,1,.1,0,.11.11,0,0,1,.07,0,.12.12,0,0,1,0,.08s0,.1,0,.18A2,2,0,0,1,119,88.71Z"/><path class="cls-5" d="M125.53,86.45a4.26,4.26,0,0,1-.18,1.28,2.67,2.67,0,0,1-.57,1,2.44,2.44,0,0,1-.94.65,3.58,3.58,0,0,1-1.32.23,3.54,3.54,0,0,1-1.28-.21,2.24,2.24,0,0,1-.9-.59,2.36,2.36,0,0,1-.53-1,4.25,4.25,0,0,1-.17-1.29,4.37,4.37,0,0,1,.18-1.29,2.9,2.9,0,0,1,.57-1,2.53,2.53,0,0,1,.94-.64,3.54,3.54,0,0,1,1.32-.23,3.78,3.78,0,0,1,1.28.2,2.28,2.28,0,0,1,.9.59,2.49,2.49,0,0,1,.53,1A4.66,4.66,0,0,1,125.53,86.45Zm-1.6.06a4.38,4.38,0,0,0-.06-.75,1.65,1.65,0,0,0-.22-.59,1.12,1.12,0,0,0-.41-.4,1.38,1.38,0,0,0-.64-.14,1.31,1.31,0,0,0-.61.13,1,1,0,0,0-.42.37,1.46,1.46,0,0,0-.25.58,3.1,3.1,0,0,0-.09.78,4.35,4.35,0,0,0,.07.75,2,2,0,0,0,.22.6,1,1,0,0,0,.41.39,1.38,1.38,0,0,0,.64.14,1.44,1.44,0,0,0,.61-.13,1.09,1.09,0,0,0,.43-.37,1.61,1.61,0,0,0,.24-.58A3.12,3.12,0,0,0,123.93,86.51Z"/></svg>