<svg xmlns="http://www.w3.org/2000/svg" viewBox="0 0 166.69 120.8"><defs><style>.cls-1{opacity:0.3;}.cls-2{fill:#fff;}.cls-3{fill:#a4a6a9;}.cls-4{fill:#221f20;}.cls-5{stroke:#000;stroke-miterlimit:10;stroke-width:0.24px;}</style></defs><g id="Capa_2" data-name="Capa 2"><g id="Capa_1-2" data-name="Capa 1"><path class="cls-1" d="M3.73,16.61C11,5.46,28,9.4,41,9.37c2.32,0,4.71-.13,7.13-.24C65.08,8.4,84.2,6.61,100,7.92a81.11,81.11,0,0,1,10.61,1.51c31.29,10.75,20.17,49.1,18.37,69.29,4.69,5.85,13.75,13.12,30.42,14.84,0,0-16.76,1.35-29.74,5.59-.58,7.51-3.55,14.46-14.73,19.25a35.16,35.16,0,0,1-8.92,1c-3.31.12-6.53.12-9.71.07s-6.31-.16-9.44-.29c-9.25-.77-18.58-.39-27.89,0l-7,.32c-15.37-.41-36.21,6.27-44.7-7.83C-3.56,94.67,3.38,73.88.82,54.86.56,52.77.31,50.69.16,48.64-.31,42.48.1,21.86,3.73,16.61Z"/><path class="cls-2" d="M8.61,10.05C15.88-1.11,32.86,2.83,45.83,2.81c2.33-.05,4.71-.14,7.14-.24,17-.74,36.1-2.52,51.86-1.22a81.56,81.56,0,0,1,10.61,1.52c27.46,9.44,22.25,43.51,19.35,61.76a14.56,14.56,0,0,0,6,14.09c5.29,3.81,12.83,7.17,23.48,8.27a169.38,169.38,0,0,0-23.5,3.82,9.62,9.62,0,0,0-7.05,6.71c-1.5,5.58-5.24,10.6-13.92,14.32a35.06,35.06,0,0,1-8.92,1c-3.31.12-6.53.13-9.7.07s-6.31-.16-9.45-.28c-9.24-.78-18.57-.4-27.89,0-2.33.11-4.65.23-7,.32-15.36-.4-36.2,6.28-44.69-7.82C1.31,88.1,8.26,67.32,5.7,48.3c-.26-2.1-.51-4.18-.67-6.23C4.57,35.92,5,15.3,8.61,10.05Z"/><path class="cls-3" d="M135.21,70.94a14.47,14.47,0,0,1-3.32-11.63c1.67-10.51,4.1-36.1.62-45.24,7.4,10,4.28,37.93,2.28,50.56A14.27,14.27,0,0,0,135.21,70.94Z"/><path class="cls-3" d="M53.92,107.68l7-.32c9.32-.44,18.65-.81,27.89,0,3.14.12,6.27.24,9.44.29s6.4,0,9.71-.07a35.5,35.5,0,0,0,8.92-1c8.68-3.72,12.42-8.74,13.92-14.31a9.6,9.6,0,0,1,7.05-6.71c3.79-.94,7.63-1.68,11.08-2.24A53.46,53.46,0,0,0,164.22,87a169.38,169.38,0,0,0-23.5,3.82,9.62,9.62,0,0,0-7.05,6.71c-1.5,5.58-5.24,10.6-13.92,14.32a35.06,35.06,0,0,1-8.92,1c-3.31.12-6.53.13-9.7.07s-6.31-.16-9.45-.28c-9.24-.78-18.57-.4-27.89,0-2.33.11-4.65.23-7,.32-15.36-.4-36.2,6.28-44.69-7.82a36.72,36.72,0,0,1-2.56-4.82C18.25,113.77,38.75,107.28,53.92,107.68Z"/><path class="cls-4" d="M11.33,105.64c-7.18-11.34-6.68-24.41-6.19-37C5.4,61.9,5.67,55,4.78,48.4c-.27-2.13-.52-4.22-.67-6.26C3.69,36.57,3.8,15.39,7.83,9.57,13.92.26,26.47,1,37.56,1.6c2.9.17,5.66.32,8.25.32,2.16,0,4.49-.12,7.12-.24C57,1.5,61.35,1.26,65.53,1,79,.26,92.9-.53,104.91.47A81.59,81.59,0,0,1,115.64,2l.11,0c26.42,9.08,23.42,41.8,20.53,59.21-.2,1.18-.4,2.36-.58,3.53A13.64,13.64,0,0,0,141.3,78c6.14,4.43,12,6.94,21.16,7.88l4.23.54c-.12,0-14.22,2.79-25.55,5.6-3.13.78-5.77,2.75-6.57,5.72-1.82,6.72-6.41,11.46-14.44,14.9l-.14,0a36.67,36.67,0,0,1-9.13,1.06c-3,.11-6.21.13-9.75.07-3.27,0-6.47-.17-9.51-.29-8.92-.74-17.85-.42-27.76,0l-1.5.07-5.55.25a117.88,117.88,0,0,0-12.24.59c-3.92.32-7.88.65-11.68.65C24,115.13,16,113.36,11.33,105.64Zm45.44,6.48,5.48-.25,1.5-.07c10-.47,19-.79,28,0,3,.12,6.18.23,9.42.29,3.51.06,6.67,0,9.7-.08a33.8,33.8,0,0,0,8.6-1c7.44-3.19,11.68-7.55,13.34-13.69A10.53,10.53,0,0,1,140.49,90a160.5,160.5,0,0,1,17-3.11,45.61,45.61,0,0,1-17.33-7.41,15.39,15.39,0,0,1-6.32-14.93c.19-1.18.39-2.36.58-3.54,2.91-17.45,5.65-48.65-19.27-57.24a81,81,0,0,0-10.43-1.48C92.87,1.25,79,2,65.64,2.79c-4.19.24-8.52.49-12.63.67-2.64.11-5,.19-7.18.24-2.67,0-5.45-.16-8.38-.33C26.36,2.74,14.89,2.09,9.39,10.52v0C5.65,15.92,5.55,36.74,6,42c.15,2,.4,4.07.66,6.17.91,6.72.64,13.71.38,20.48-.5,12.94-1,25.17,5.93,36.07,6.06,10.07,19,9,31.47,8,3.84-.31,7.5-.61,10.93-.61Z"/><path class="cls-5" d="M31.57,37.62a.2.2,0,0,1,0,.11.22.22,0,0,1-.12.07.9.9,0,0,1-.22.05l-.36,0-.35,0a.9.9,0,0,1-.22-.05.22.22,0,0,1-.12-.07.21.21,0,0,1,0-.11V31.46h0l-2.19,6.16a.25.25,0,0,1-.08.12.37.37,0,0,1-.14.08l-.23,0h-.34l-.34,0-.23,0-.15-.08a.41.41,0,0,1-.07-.11l-2.12-6.16h0v6.16a.2.2,0,0,1,0,.11.22.22,0,0,1-.12.07,1,1,0,0,1-.22.05l-.36,0-.35,0a.9.9,0,0,1-.22-.05.22.22,0,0,1-.12-.07.2.2,0,0,1,0-.11V30.87a.61.61,0,0,1,.15-.45.57.57,0,0,1,.42-.16h1a2,2,0,0,1,.46,0,1,1,0,0,1,.34.15.87.87,0,0,1,.23.27,2.31,2.31,0,0,1,.17.41l1.63,4.51h0l1.7-4.5a2.34,2.34,0,0,1,.16-.41.89.89,0,0,1,.21-.28.73.73,0,0,1,.29-.15,1.43,1.43,0,0,1,.38,0h1a.79.79,0,0,1,.28,0,.57.57,0,0,1,.18.12.45.45,0,0,1,.11.19.75.75,0,0,1,0,.26Z"/><path class="cls-5" d="M34.72,30.64a.83.83,0,0,1-.18.62,1,1,0,0,1-.67.17,1,1,0,0,1-.67-.17.76.76,0,0,1-.18-.59.82.82,0,0,1,.18-.61,1,1,0,0,1,.68-.18,1,1,0,0,1,.67.17A.83.83,0,0,1,34.72,30.64Zm-.11,7a.2.2,0,0,1,0,.11l-.12.07-.23,0-.36,0-.35,0-.23,0a.31.31,0,0,1-.12-.07.2.2,0,0,1,0-.11V32.42a.17.17,0,0,1,0-.1.22.22,0,0,1,.12-.07.66.66,0,0,1,.23,0,1.78,1.78,0,0,1,.35,0,1.84,1.84,0,0,1,.36,0,.71.71,0,0,1,.23,0,.35.35,0,0,1,.12.07.17.17,0,0,1,0,.1Z"/><path class="cls-5" d="M39.43,32.9a3.33,3.33,0,0,1,0,.34q0,.13,0,.21a.36.36,0,0,1-.06.11.17.17,0,0,1-.1,0l-.11,0-.13,0-.16,0-.19,0a.74.74,0,0,0-.25,0,1,1,0,0,0-.25.15,2,2,0,0,0-.28.29,3.49,3.49,0,0,0-.3.43v3.25a.21.21,0,0,1,0,.11.31.31,0,0,1-.12.07l-.23,0-.35,0-.36,0-.23,0-.12-.07a.2.2,0,0,1,0-.11V32.41a.17.17,0,0,1,0-.1.2.2,0,0,1,.1-.07l.2-.05H37a.64.64,0,0,1,.19.05.2.2,0,0,1,.1.07.17.17,0,0,1,0,.1v.65a5.77,5.77,0,0,1,.38-.48,2.17,2.17,0,0,1,.35-.3,1,1,0,0,1,.33-.16,1.24,1.24,0,0,1,.33,0h.16l.18,0,.16,0,.11.06,0,.06,0,.1s0,.1,0,.18Z"/><path class="cls-5" d="M44.53,37.65a.15.15,0,0,1-.06.13.5.5,0,0,1-.19.07l-.37,0-.38,0a.39.39,0,0,1-.17-.07.14.14,0,0,1,0-.13v-.42a2.27,2.27,0,0,1-.74.54,2.09,2.09,0,0,1-.91.2,2.7,2.7,0,0,1-.77-.11,1.73,1.73,0,0,1-.6-.32A1.46,1.46,0,0,1,39.9,37a1.72,1.72,0,0,1-.14-.74,1.62,1.62,0,0,1,.17-.79,1.45,1.45,0,0,1,.54-.56,2.53,2.53,0,0,1,.88-.32,5.58,5.58,0,0,1,1.22-.11h.51v-.32a1.88,1.88,0,0,0,0-.43.72.72,0,0,0-.16-.3.65.65,0,0,0-.31-.19,2,2,0,0,0-.47,0,2.21,2.21,0,0,0-.66.08,3,3,0,0,0-.51.18l-.37.18a.48.48,0,0,1-.24.08.16.16,0,0,1-.12,0,.28.28,0,0,1-.08-.12.78.78,0,0,1,0-.18,2,2,0,0,1,0-.25,1,1,0,0,1,0-.28.49.49,0,0,1,.11-.2,1.5,1.5,0,0,1,.29-.18,3.69,3.69,0,0,1,.48-.19,4.38,4.38,0,0,1,.6-.15,4.91,4.91,0,0,1,.67-.05,4,4,0,0,1,1.05.12,1.76,1.76,0,0,1,.72.37,1.51,1.51,0,0,1,.41.64,3.16,3.16,0,0,1,.13.93Zm-1.45-2.24h-.56a2.68,2.68,0,0,0-.61.06,1.1,1.1,0,0,0-.41.16.61.61,0,0,0-.23.25.74.74,0,0,0-.08.34.67.67,0,0,0,.21.52.86.86,0,0,0,.58.18,1.1,1.1,0,0,0,.57-.15,2.45,2.45,0,0,0,.53-.47Z"/><path class="cls-5" d="M47.73,36.75a2.81,2.81,0,0,1,0,.43,1.91,1.91,0,0,1-.07.36,2.33,2.33,0,0,1-.14.33,1.94,1.94,0,0,1-.2.33l-.79,1.12a.22.22,0,0,1-.09.1.35.35,0,0,1-.12.07l-.17,0H45.6a.5.5,0,0,1-.16-.05.08.08,0,0,1,0-.07.15.15,0,0,1,0-.11l.72-1.62v-.93a1,1,0,0,1,0-.32.34.34,0,0,1,.15-.18.5.5,0,0,1,.25-.09l.37,0,.35,0a.43.43,0,0,1,.24.09.32.32,0,0,1,.14.18A1,1,0,0,1,47.73,36.75Z"/><path class="cls-5" d="M56.62,34.87a.58.58,0,0,1-.12.4.45.45,0,0,1-.33.13H53a2.23,2.23,0,0,0,.08.6,1.25,1.25,0,0,0,.25.47,1.08,1.08,0,0,0,.45.28,1.78,1.78,0,0,0,.65.1,3.49,3.49,0,0,0,.68-.05l.5-.12.36-.13a.8.8,0,0,1,.23,0,.11.11,0,0,1,.08,0,.11.11,0,0,1,.06.07.33.33,0,0,1,0,.15,1.7,1.7,0,0,1,0,.24v.22c0,.06,0,.11,0,.16a.36.36,0,0,1,0,.11.21.21,0,0,1-.06.08.47.47,0,0,1-.2.11,3.88,3.88,0,0,1-.44.14l-.6.12a5.58,5.58,0,0,1-.73,0,3.78,3.78,0,0,1-1.22-.18,2.13,2.13,0,0,1-.87-.53,2.24,2.24,0,0,1-.53-.9,4.46,4.46,0,0,1-.17-1.28,4.06,4.06,0,0,1,.18-1.25,2.58,2.58,0,0,1,.53-.95,2.31,2.31,0,0,1,.84-.6,3,3,0,0,1,1.11-.2,2.94,2.94,0,0,1,1.13.19,2,2,0,0,1,.76.54,2.27,2.27,0,0,1,.44.81,3.64,3.64,0,0,1,.14,1Zm-1.43-.42a1.54,1.54,0,0,0-.25-1,1,1,0,0,0-.82-.35,1.07,1.07,0,0,0-.49.11.93.93,0,0,0-.34.28,1.2,1.2,0,0,0-.22.42,2.83,2.83,0,0,0-.08.52Z"/><path class="cls-5" d="M61.51,36.16a1.76,1.76,0,0,1-.17.78,1.53,1.53,0,0,1-.47.57,2.17,2.17,0,0,1-.72.34,3.33,3.33,0,0,1-1.46.07,2.84,2.84,0,0,1-.48-.11,1.69,1.69,0,0,1-.35-.14,1,1,0,0,1-.21-.13.48.48,0,0,1-.1-.19,1.92,1.92,0,0,1,0-.39,2.1,2.1,0,0,1,0-.27.61.61,0,0,1,0-.17.16.16,0,0,1,0-.08l.09,0a.5.5,0,0,1,.19.07l.32.17.43.16a2,2,0,0,0,.57.08,1.23,1.23,0,0,0,.35,0,.81.81,0,0,0,.27-.11.47.47,0,0,0,.17-.2.54.54,0,0,0,.06-.27A.43.43,0,0,0,60,36a1.09,1.09,0,0,0-.28-.22,3.17,3.17,0,0,0-.41-.17l-.46-.18-.46-.23a1.81,1.81,0,0,1-.41-.32,1.28,1.28,0,0,1-.28-.45,1.48,1.48,0,0,1-.11-.63,1.74,1.74,0,0,1,.14-.69,1.38,1.38,0,0,1,.43-.53,1.85,1.85,0,0,1,.67-.35,3,3,0,0,1,.88-.12,3.64,3.64,0,0,1,.48,0l.42.09a2,2,0,0,1,.32.12l.18.1a.32.32,0,0,1,.08.09.29.29,0,0,1,0,.1.7.7,0,0,1,0,.16,1.41,1.41,0,0,1,0,.22,1.93,1.93,0,0,1,0,.26.63.63,0,0,1,0,.16.28.28,0,0,1-.06.08l-.08,0a.43.43,0,0,1-.17-.06,1.67,1.67,0,0,0-.27-.14l-.39-.13a1.9,1.9,0,0,0-.5-.06,1.25,1.25,0,0,0-.35,0,.9.9,0,0,0-.24.12.49.49,0,0,0-.14.18.51.51,0,0,0,0,.22.4.4,0,0,0,.11.3,1.16,1.16,0,0,0,.29.22,3.17,3.17,0,0,0,.41.17l.47.18a5.08,5.08,0,0,1,.47.23,1.77,1.77,0,0,1,.41.31,1.51,1.51,0,0,1,.29.45A1.46,1.46,0,0,1,61.51,36.16Z"/><path class="cls-5" d="M65.57,37.12a1.92,1.92,0,0,1,0,.39.54.54,0,0,1-.09.2l-.15.1-.24.07-.3,0-.33,0a2.49,2.49,0,0,1-.76-.11,1.38,1.38,0,0,1-.53-.34,1.51,1.51,0,0,1-.31-.59,2.9,2.9,0,0,1-.1-.83V33.41H62.1a.2.2,0,0,1-.17-.14,1.27,1.27,0,0,1-.06-.46,2.33,2.33,0,0,1,0-.29.69.69,0,0,1,0-.18.21.21,0,0,1,.08-.1.17.17,0,0,1,.1,0h.62V31.05a.2.2,0,0,1,0-.11.31.31,0,0,1,.12-.08l.23,0,.35,0,.36,0,.23,0a.35.35,0,0,1,.11.08.15.15,0,0,1,0,.11v1.16h1.13a.2.2,0,0,1,.11,0,.2.2,0,0,1,.07.1.69.69,0,0,1,0,.18,2.33,2.33,0,0,1,0,.29,1.27,1.27,0,0,1-.06.46.2.2,0,0,1-.17.14H64.2v2.45a1.22,1.22,0,0,0,.13.64.53.53,0,0,0,.48.21.68.68,0,0,0,.21,0l.17,0,.12,0,.09,0,.07,0a.12.12,0,0,1,0,.08s0,.1,0,.17A1.87,1.87,0,0,1,65.57,37.12Z"/><path class="cls-5" d="M71.31,34.87a.58.58,0,0,1-.12.4.45.45,0,0,1-.33.13H67.68a2.23,2.23,0,0,0,.08.6,1.25,1.25,0,0,0,.25.47,1.15,1.15,0,0,0,.45.28,1.81,1.81,0,0,0,.65.1,3.49,3.49,0,0,0,.68-.05l.5-.12.36-.13a.8.8,0,0,1,.23,0,.11.11,0,0,1,.08,0,.11.11,0,0,1,.06.07.54.54,0,0,1,0,.15v.46c0,.06,0,.11,0,.16l0,.11-.07.08a.47.47,0,0,1-.2.11,3.88,3.88,0,0,1-.44.14l-.6.12A5.58,5.58,0,0,1,69,38a3.78,3.78,0,0,1-1.22-.18,2.13,2.13,0,0,1-.87-.53,2.23,2.23,0,0,1-.52-.9,4.12,4.12,0,0,1-.18-1.28,4.06,4.06,0,0,1,.18-1.25,2.58,2.58,0,0,1,.53-.95,2.31,2.31,0,0,1,.84-.6,3,3,0,0,1,1.12-.2,2.92,2.92,0,0,1,1.12.19,2,2,0,0,1,.76.54,2.13,2.13,0,0,1,.44.81,3.64,3.64,0,0,1,.14,1Zm-1.43-.42a1.54,1.54,0,0,0-.25-1,1,1,0,0,0-.82-.35,1.07,1.07,0,0,0-.49.11.93.93,0,0,0-.34.28,1.38,1.38,0,0,0-.21.42,2.18,2.18,0,0,0-.09.52Z"/><path class="cls-5" d="M80.05,34.87a.58.58,0,0,1-.12.4.45.45,0,0,1-.33.13H76.43a2.25,2.25,0,0,0,.07.6,1.27,1.27,0,0,0,.26.47,1,1,0,0,0,.44.28,1.81,1.81,0,0,0,.65.1,3.43,3.43,0,0,0,.68-.05l.51-.12.35-.13a.87.87,0,0,1,.23,0s.07,0,.09,0a.22.22,0,0,1,.06.07s0,.09,0,.15a1.7,1.7,0,0,1,0,.24,1.41,1.41,0,0,1,0,.22.78.78,0,0,1,0,.16.2.2,0,0,1,0,.11l-.06.08a.63.63,0,0,1-.21.11,3.64,3.64,0,0,1-.43.14l-.61.12a5.31,5.31,0,0,1-.72,0,3.73,3.73,0,0,1-1.22-.18,2.07,2.07,0,0,1-1.4-1.43,4.13,4.13,0,0,1-.17-1.28,4.06,4.06,0,0,1,.18-1.25,2.44,2.44,0,0,1,.53-.95,2.23,2.23,0,0,1,.84-.6,3,3,0,0,1,1.11-.2,2.88,2.88,0,0,1,1.12.19,2.06,2.06,0,0,1,.77.54,2.25,2.25,0,0,1,.43.81,3.31,3.31,0,0,1,.14,1Zm-1.42-.42a1.54,1.54,0,0,0-.25-1,1,1,0,0,0-.82-.35,1,1,0,0,0-.49.11,1,1,0,0,0-.35.28,1.38,1.38,0,0,0-.21.42,1.77,1.77,0,0,0-.08.52Z"/><path class="cls-5" d="M84.94,36.16a1.63,1.63,0,0,1-.17.78,1.44,1.44,0,0,1-.47.57,2,2,0,0,1-.72.34,3.16,3.16,0,0,1-.9.12,3.43,3.43,0,0,1-.56,0,2.71,2.71,0,0,1-.47-.11,2.08,2.08,0,0,1-.36-.14.69.69,0,0,1-.2-.13.38.38,0,0,1-.1-.19A1.92,1.92,0,0,1,81,37a2.1,2.1,0,0,1,0-.27.65.65,0,0,1,0-.17.28.28,0,0,1,.06-.08l.09,0a.64.64,0,0,1,.19.07l.31.17c.13.05.27.11.44.16a1.89,1.89,0,0,0,.56.08,1.36,1.36,0,0,0,.36,0,.81.81,0,0,0,.27-.11.55.55,0,0,0,.17-.2.54.54,0,0,0,.06-.27.48.48,0,0,0-.11-.3,1.16,1.16,0,0,0-.29-.22,3,3,0,0,0-.4-.17l-.46-.18-.47-.23a1.76,1.76,0,0,1-.4-.32,1.29,1.29,0,0,1-.29-.45,1.65,1.65,0,0,1-.11-.63,1.58,1.58,0,0,1,.15-.69,1.46,1.46,0,0,1,.42-.53,2,2,0,0,1,.67-.35,3.09,3.09,0,0,1,.89-.12l.48,0,.41.09a1.66,1.66,0,0,1,.32.12l.19.1a.28.28,0,0,1,.07.09.3.3,0,0,1,0,.1s0,.1,0,.16a1.41,1.41,0,0,1,0,.22,1.93,1.93,0,0,1,0,.26,1.57,1.57,0,0,1,0,.16.16.16,0,0,1,0,.08l-.09,0a.4.4,0,0,1-.16-.06,2.43,2.43,0,0,0-.28-.14l-.38-.13a2,2,0,0,0-.51-.06,1.18,1.18,0,0,0-.34,0,.67.67,0,0,0-.24.12.49.49,0,0,0-.14.18.51.51,0,0,0,0,.22.44.44,0,0,0,.11.3,1.23,1.23,0,0,0,.3.22,2.67,2.67,0,0,0,.41.17l.47.18a4.93,4.93,0,0,1,.46.23,1.63,1.63,0,0,1,.42.31,1.51,1.51,0,0,1,.29.45A1.64,1.64,0,0,1,84.94,36.16Z"/><path class="cls-5" d="M94.76,37.62a.21.21,0,0,1,0,.11.32.32,0,0,1-.13.07,1,1,0,0,1-.23.05l-.37,0-.38,0a1,1,0,0,1-.23-.05.22.22,0,0,1-.12-.07.15.15,0,0,1,0-.11V34.56H90.38v3.06a.2.2,0,0,1,0,.11.22.22,0,0,1-.12.07,1.11,1.11,0,0,1-.24.05l-.37,0-.37,0A1.11,1.11,0,0,1,89,37.8a.32.32,0,0,1-.13-.07.2.2,0,0,1,0-.11V30.47a.2.2,0,0,1,0-.11.32.32,0,0,1,.13-.07,1.11,1.11,0,0,1,.24-.05l.37,0,.37,0a1.11,1.11,0,0,1,.24.05.22.22,0,0,1,.12.07.2.2,0,0,1,0,.11v2.78h2.84V30.47a.15.15,0,0,1,0-.11.22.22,0,0,1,.12-.07,1,1,0,0,1,.23-.05l.38,0,.37,0a1,1,0,0,1,.23.05.32.32,0,0,1,.13.07.21.21,0,0,1,0,.11Z"/><path class="cls-5" d="M97.91,30.64a.83.83,0,0,1-.18.62,1.05,1.05,0,0,1-.68.17,1,1,0,0,1-.67-.17.8.8,0,0,1-.17-.59.82.82,0,0,1,.18-.61.94.94,0,0,1,.67-.18,1,1,0,0,1,.67.17A.79.79,0,0,1,97.91,30.64Zm-.11,7a.21.21,0,0,1,0,.11.31.31,0,0,1-.12.07l-.23,0-.35,0-.36,0a1,1,0,0,1-.22,0,.31.31,0,0,1-.12-.07.15.15,0,0,1,0-.11V32.42a.13.13,0,0,1,0-.1.22.22,0,0,1,.12-.07.6.6,0,0,1,.22,0,1.84,1.84,0,0,1,.36,0,1.78,1.78,0,0,1,.35,0,.66.66,0,0,1,.23,0,.22.22,0,0,1,.12.07.18.18,0,0,1,0,.1Z"/><path class="cls-5" d="M104.22,37.63a.18.18,0,0,1,0,.11.26.26,0,0,1-.1.07.74.74,0,0,1-.19,0h-.6a.74.74,0,0,1-.19,0,.23.23,0,0,1-.11-.07.18.18,0,0,1,0-.11v-.58a3.3,3.3,0,0,1-.85.68,2,2,0,0,1-1,.24,2.12,2.12,0,0,1-1-.23,2,2,0,0,1-.67-.63,2.77,2.77,0,0,1-.38-.91A5,5,0,0,1,99,35.09a5.31,5.31,0,0,1,.14-1.25,2.88,2.88,0,0,1,.44-1,1.9,1.9,0,0,1,.72-.6,2.17,2.17,0,0,1,1-.21,1.7,1.7,0,0,1,.79.18,2.74,2.74,0,0,1,.71.52V30a.17.17,0,0,1,0-.1.36.36,0,0,1,.12-.08,1,1,0,0,1,.23-.05l.35,0,.36,0a.8.8,0,0,1,.22.05.23.23,0,0,1,.12.08.18.18,0,0,1,0,.1Zm-1.47-3.49a3.38,3.38,0,0,0-.6-.6,1,1,0,0,0-.61-.21.81.81,0,0,0-.49.14,1,1,0,0,0-.34.38,2.14,2.14,0,0,0-.18.54,2.4,2.4,0,0,0-.07.6,3.39,3.39,0,0,0,.06.64,1.77,1.77,0,0,0,.17.55,1,1,0,0,0,.32.39.8.8,0,0,0,.5.15,1,1,0,0,0,.3,0,1.15,1.15,0,0,0,.29-.15,1.71,1.71,0,0,0,.31-.26,5,5,0,0,0,.34-.39Z"/><path class="cls-5" d="M109.05,32.9a3.33,3.33,0,0,1,0,.34.87.87,0,0,1,0,.21.17.17,0,0,1-.06.11.12.12,0,0,1-.09,0l-.11,0-.13,0-.16,0-.2,0a.69.69,0,0,0-.24,0,1,1,0,0,0-.26.15,2,2,0,0,0-.27.29,3.46,3.46,0,0,0-.31.43v3.25a.2.2,0,0,1,0,.11l-.12.07-.23,0-.36,0-.35,0-.23,0-.12-.07a.2.2,0,0,1,0-.11V32.41a.17.17,0,0,1,0-.1.2.2,0,0,1,.1-.07l.2-.05h.61a.74.74,0,0,1,.19.05.26.26,0,0,1,.1.07.17.17,0,0,1,0,.1v.65a4.24,4.24,0,0,1,.38-.48,1.81,1.81,0,0,1,.35-.3,1,1,0,0,1,.33-.16,1.12,1.12,0,0,1,.32,0h.17l.18,0,.16,0a.29.29,0,0,1,.1.06.13.13,0,0,1,0,.06l0,.1s0,.1,0,.18Z"/><path class="cls-5" d="M115.09,35a4.28,4.28,0,0,1-.17,1.22,2.7,2.7,0,0,1-.54,1,2.36,2.36,0,0,1-.89.61,3.46,3.46,0,0,1-1.26.22,3.37,3.37,0,0,1-1.21-.2,2.14,2.14,0,0,1-.86-.56,2.36,2.36,0,0,1-.5-.91,4.1,4.1,0,0,1-.16-1.22,4,4,0,0,1,.17-1.23,2.57,2.57,0,0,1,.54-.94,2.38,2.38,0,0,1,.89-.62,3.47,3.47,0,0,1,1.26-.21,3.38,3.38,0,0,1,1.21.19,2.14,2.14,0,0,1,.86.56,2.39,2.39,0,0,1,.5.9A4.29,4.29,0,0,1,115.09,35Zm-1.52.06a3.84,3.84,0,0,0-.06-.71,1.82,1.82,0,0,0-.2-.57,1.06,1.06,0,0,0-.39-.37,1.29,1.29,0,0,0-.62-.14,1.32,1.32,0,0,0-.57.12,1,1,0,0,0-.4.35,1.58,1.58,0,0,0-.24.56A3.29,3.29,0,0,0,111,35a3.11,3.11,0,0,0,.07.71,1.82,1.82,0,0,0,.2.57,1.06,1.06,0,0,0,.39.37,1.28,1.28,0,0,0,.61.13,1.31,1.31,0,0,0,.58-.12,1,1,0,0,0,.4-.35,1.46,1.46,0,0,0,.24-.55A3.32,3.32,0,0,0,113.57,35Z"/><path class="cls-5" d="M118,37a1.07,1.07,0,0,1-.19.73,1,1,0,0,1-.68.19.92.92,0,0,1-.68-.19,1,1,0,0,1-.19-.7,1,1,0,0,1,.19-.73,1.34,1.34,0,0,1,1.36,0A1,1,0,0,1,118,37Z"/><path class="cls-5" d="M23.68,47.45a3.49,3.49,0,0,1-.21,1.25,2.27,2.27,0,0,1-.6.93,2.58,2.58,0,0,1-1,.58,4.65,4.65,0,0,1-2.63,0,2.5,2.5,0,0,1-1-.54,2.37,2.37,0,0,1-.6-.9,3.56,3.56,0,0,1-.21-1.27V42.91a.13.13,0,0,1,0-.1.18.18,0,0,1,.12-.08l.24,0h.74l.24,0a.18.18,0,0,1,.12.08.13.13,0,0,1,0,.1v4.47a2.69,2.69,0,0,0,.11.79,1.44,1.44,0,0,0,.32.54A1.41,1.41,0,0,0,20,49a1.88,1.88,0,0,0,.65.11,1.71,1.71,0,0,0,.65-.12,1.23,1.23,0,0,0,.48-.32,1.46,1.46,0,0,0,.31-.53,2.2,2.2,0,0,0,.11-.71V42.91a.17.17,0,0,1,0-.1.24.24,0,0,1,.13-.08l.23,0h.74l.23,0a.18.18,0,0,1,.12.08.13.13,0,0,1,0,.1Z"/><path class="cls-5" d="M30.22,50.08a.19.19,0,0,1,0,.1.35.35,0,0,1-.12.07.89.89,0,0,1-.23,0h-.71a1,1,0,0,1-.23,0,.23.23,0,0,1-.11-.07.14.14,0,0,1,0-.1v-3a3,3,0,0,0-.05-.6,1.25,1.25,0,0,0-.16-.37.6.6,0,0,0-.28-.24.8.8,0,0,0-.39-.09,1,1,0,0,0-.56.21,3,3,0,0,0-.6.59v3.48a.19.19,0,0,1,0,.1.35.35,0,0,1-.12.07l-.23,0h-.71a1,1,0,0,1-.23,0,.22.22,0,0,1-.12-.07.21.21,0,0,1,0-.1V44.85a.19.19,0,0,1,0-.1.23.23,0,0,1,.11-.07.88.88,0,0,1,.2,0l.3,0,.31,0,.19,0a.22.22,0,0,1,.09.07.19.19,0,0,1,0,.1v.61a3.37,3.37,0,0,1,.88-.7,2,2,0,0,1,.94-.24,2.06,2.06,0,0,1,.9.18,1.52,1.52,0,0,1,.59.47,1.84,1.84,0,0,1,.32.71,3.91,3.91,0,0,1,.1,1Z"/><path class="cls-5" d="M38.83,50.09a.15.15,0,0,1-.06.13.38.38,0,0,1-.19.07l-.37,0-.38,0a.3.3,0,0,1-.17-.07.17.17,0,0,1,0-.13v-.41a2.43,2.43,0,0,1-.74.54,2.09,2.09,0,0,1-.91.19,2.7,2.7,0,0,1-.77-.11,1.73,1.73,0,0,1-.6-.32,1.38,1.38,0,0,1-.39-.53,1.72,1.72,0,0,1-.14-.74,1.64,1.64,0,0,1,.17-.79,1.45,1.45,0,0,1,.54-.56,2.74,2.74,0,0,1,.88-.32,6.27,6.27,0,0,1,1.22-.11h.51v-.31a1.75,1.75,0,0,0-.05-.43.7.7,0,0,0-.16-.31.73.73,0,0,0-.31-.18,1.53,1.53,0,0,0-.47-.06,2.71,2.71,0,0,0-.66.08l-.51.18-.37.18a.51.51,0,0,1-.24.09.18.18,0,0,1-.12-.05.24.24,0,0,1-.08-.11.74.74,0,0,1,0-.19,1.81,1.81,0,0,1,0-.25,1,1,0,0,1,0-.28.45.45,0,0,1,.11-.19,1.11,1.11,0,0,1,.29-.19,3.69,3.69,0,0,1,.48-.19,3.31,3.31,0,0,1,.6-.14,3.71,3.71,0,0,1,.67-.06,4,4,0,0,1,1,.12,1.76,1.76,0,0,1,.72.37,1.47,1.47,0,0,1,.41.64,3.16,3.16,0,0,1,.13.93Zm-1.45-2.23h-.56a2.73,2.73,0,0,0-.61,0,1.3,1.3,0,0,0-.41.16.61.61,0,0,0-.23.25.78.78,0,0,0-.07.35.68.68,0,0,0,.2.51.81.81,0,0,0,.58.19,1.11,1.11,0,0,0,.57-.16,2.67,2.67,0,0,0,.53-.46Z"/><path class="cls-5" d="M45.55,47.39a5,5,0,0,1-.15,1.26,3,3,0,0,1-.43,1,1.9,1.9,0,0,1-.72.6,2.16,2.16,0,0,1-1,.21,1.76,1.76,0,0,1-.42,0,1.66,1.66,0,0,1-.37-.14,2.32,2.32,0,0,1-.36-.22l-.36-.32v2.46a.17.17,0,0,1,0,.1.36.36,0,0,1-.12.08l-.23.05-.36,0-.35,0a1,1,0,0,1-.23-.05.23.23,0,0,1-.12-.08.17.17,0,0,1,0-.1v-7.3a.36.36,0,0,1,0-.1.23.23,0,0,1,.11-.07l.19,0,.3,0,.3,0,.19,0a.2.2,0,0,1,.1.07.19.19,0,0,1,0,.1v.62a4.18,4.18,0,0,1,.45-.41,2.93,2.93,0,0,1,.45-.3,2.07,2.07,0,0,1,.47-.18,2.12,2.12,0,0,1,.52-.06,1.93,1.93,0,0,1,1,.23,1.84,1.84,0,0,1,.66.61,2.92,2.92,0,0,1,.38.92A5.57,5.57,0,0,1,45.55,47.39Zm-1.53.1a4.48,4.48,0,0,0-.05-.64,1.8,1.8,0,0,0-.17-.54,1.12,1.12,0,0,0-.32-.39.84.84,0,0,0-.49-.14,1,1,0,0,0-.29,0,1.15,1.15,0,0,0-.29.15,2.12,2.12,0,0,0-.31.25c-.1.11-.21.24-.33.4v1.72a3.36,3.36,0,0,0,.59.6.92.92,0,0,0,.59.22.81.81,0,0,0,.49-.15,1.23,1.23,0,0,0,.33-.38,2.15,2.15,0,0,0,.19-.54A3.05,3.05,0,0,0,44,47.49Z"/><path class="cls-5" d="M50.08,45.34c0,.14,0,.26,0,.35s0,.16,0,.21A.2.2,0,0,1,50,46a.12.12,0,0,1-.09,0l-.11,0-.13,0-.16,0-.19,0A.7.7,0,0,0,49,46a1.17,1.17,0,0,0-.25.16,1.84,1.84,0,0,0-.28.28,4.42,4.42,0,0,0-.31.43v3.26a.19.19,0,0,1,0,.1.22.22,0,0,1-.12.07,1,1,0,0,1-.23,0h-.71l-.23,0a.35.35,0,0,1-.12-.07.19.19,0,0,1,0-.1V44.85a.19.19,0,0,1,0-.1.2.2,0,0,1,.1-.07.88.88,0,0,1,.2,0l.3,0,.31,0a.69.69,0,0,1,.19,0,.2.2,0,0,1,.1.07.19.19,0,0,1,0,.1v.65a4.24,4.24,0,0,1,.38-.48,2.25,2.25,0,0,1,.35-.3,1,1,0,0,1,.33-.15,1.13,1.13,0,0,1,.32,0h.17l.18,0,.16,0a.28.28,0,0,1,.11,0,.16.16,0,0,1,0,.07l0,.09s0,.11,0,.19Z"/><path class="cls-5" d="M56.12,47.41A4.23,4.23,0,0,1,56,48.63a2.62,2.62,0,0,1-.54.95,2.28,2.28,0,0,1-.89.61,3.26,3.26,0,0,1-1.26.22,3.42,3.42,0,0,1-1.21-.19,2.16,2.16,0,0,1-.86-.57,2.31,2.31,0,0,1-.5-.9,4.63,4.63,0,0,1,0-2.45,2.54,2.54,0,0,1,.54-.95,2.44,2.44,0,0,1,.89-.61,3.26,3.26,0,0,1,1.26-.22,3.47,3.47,0,0,1,1.22.19,2.18,2.18,0,0,1,.85.56,2.43,2.43,0,0,1,.5.91A4.22,4.22,0,0,1,56.12,47.41Zm-1.51.06a3.17,3.17,0,0,0-.07-.71,1.76,1.76,0,0,0-.2-.56,1.09,1.09,0,0,0-.39-.38,1.25,1.25,0,0,0-.61-.13,1.34,1.34,0,0,0-.58.12,1,1,0,0,0-.4.35,1.53,1.53,0,0,0-.24.55,3.36,3.36,0,0,0-.08.74,3.26,3.26,0,0,0,.07.72,1.63,1.63,0,0,0,.21.56,1,1,0,0,0,.38.37,1.28,1.28,0,0,0,.61.13,1.31,1.31,0,0,0,.58-.12,1,1,0,0,0,.41-.35,1.63,1.63,0,0,0,.23-.55A3.22,3.22,0,0,0,54.61,47.47Z"/><path class="cls-5" d="M62.06,44.85a.2.2,0,0,1,0,.07A.28.28,0,0,1,62,45a.52.52,0,0,1,0,.11.83.83,0,0,1,0,.15L60.41,50a.34.34,0,0,1-.08.16.24.24,0,0,1-.16.1,1.82,1.82,0,0,1-.31,0h-1a1.82,1.82,0,0,1-.31,0,.49.49,0,0,1-.16-.1.48.48,0,0,1-.08-.16l-1.56-4.72a1.15,1.15,0,0,1-.06-.21c0-.06,0-.11,0-.13a.25.25,0,0,1,0-.08.13.13,0,0,1,0-.1.2.2,0,0,1,.11-.08,1,1,0,0,1,.22,0h.36l.39,0a1,1,0,0,1,.23,0,.18.18,0,0,1,.12.07.67.67,0,0,1,.06.12l1.19,3.84,0,.14,0-.14,1.17-3.84a.61.61,0,0,1,0-.12.23.23,0,0,1,.13-.07.87.87,0,0,1,.21,0l.37,0h.35a.87.87,0,0,1,.21,0,.24.24,0,0,1,.11.08A.17.17,0,0,1,62.06,44.85Z"/><path class="cls-5" d="M64.51,43.09a.82.82,0,0,1-.18.61,1,1,0,0,1-.68.17,1,1,0,0,1-.67-.16,1.13,1.13,0,0,1,0-1.21,1.44,1.44,0,0,1,1.34,0A.8.8,0,0,1,64.51,43.09Zm-.11,7a.14.14,0,0,1,0,.1.22.22,0,0,1-.12.07.9.9,0,0,1-.22,0H63.3a1,1,0,0,1-.22,0,.22.22,0,0,1-.12-.07.21.21,0,0,1,0-.1V44.87a.21.21,0,0,1,0-.11.22.22,0,0,1,.12-.07,1,1,0,0,1,.22,0l.36,0,.36,0a.9.9,0,0,1,.22,0,.22.22,0,0,1,.12.07.15.15,0,0,1,0,.11Z"/><path class="cls-5" d="M69.54,48.6a1.8,1.8,0,0,1-.16.79,1.59,1.59,0,0,1-.47.56,2.41,2.41,0,0,1-.72.35,3.72,3.72,0,0,1-.91.11,3.24,3.24,0,0,1-.55,0,2.8,2.8,0,0,1-.48-.12,2.65,2.65,0,0,1-.35-.13.86.86,0,0,1-.21-.13.62.62,0,0,1-.1-.2,1.92,1.92,0,0,1,0-.39,2.1,2.1,0,0,1,0-.27,1.57,1.57,0,0,1,0-.16l.06-.09.09,0a.45.45,0,0,1,.19.08l.31.16a3.16,3.16,0,0,0,.44.16,2,2,0,0,0,.57.08,1.78,1.78,0,0,0,.35,0,1.11,1.11,0,0,0,.27-.12.52.52,0,0,0,.17-.19.6.6,0,0,0,.06-.27.44.44,0,0,0-.11-.3.82.82,0,0,0-.29-.22,2.51,2.51,0,0,0-.4-.18l-.46-.18a4,4,0,0,1-.46-.23A1.77,1.77,0,0,1,66,47.3a1.74,1.74,0,0,1-.29-.45,1.76,1.76,0,0,1-.1-.64,1.74,1.74,0,0,1,.14-.69,1.64,1.64,0,0,1,.42-.53,2.24,2.24,0,0,1,.67-.35,3.09,3.09,0,0,1,.89-.12,2.52,2.52,0,0,1,.48,0l.42.08.31.12.19.1a.32.32,0,0,1,.08.09l0,.11a.61.61,0,0,1,0,.15,1.41,1.41,0,0,1,0,.22,1.86,1.86,0,0,1,0,.26.35.35,0,0,1,0,.16.12.12,0,0,1,0,.08l-.08,0a.43.43,0,0,1-.17-.06,1.87,1.87,0,0,0-.28-.13l-.38-.14a2,2,0,0,0-.5-.06,1.69,1.69,0,0,0-.35,0,.67.67,0,0,0-.24.12.49.49,0,0,0-.14.18.54.54,0,0,0,0,.22.41.41,0,0,0,.12.3.82.82,0,0,0,.29.22l.41.18.47.17a5.08,5.08,0,0,1,.47.23,1.81,1.81,0,0,1,.41.32,1.35,1.35,0,0,1,.29.44A1.49,1.49,0,0,1,69.54,48.6Z"/><path class="cls-5" d="M72.24,43.09a.82.82,0,0,1-.18.61,1.05,1.05,0,0,1-.68.17,1,1,0,0,1-.67-.16,1.13,1.13,0,0,1,0-1.21,1,1,0,0,1,.67-.17,1,1,0,0,1,.67.16A.8.8,0,0,1,72.24,43.09Zm-.11,7a.21.21,0,0,1,0,.1.22.22,0,0,1-.12.07,1,1,0,0,1-.23,0H71a.9.9,0,0,1-.22,0,.22.22,0,0,1-.12-.07.14.14,0,0,1,0-.1V44.87a.15.15,0,0,1,0-.11.22.22,0,0,1,.12-.07.9.9,0,0,1,.22,0l.36,0,.35,0a1,1,0,0,1,.23,0,.22.22,0,0,1,.12.07.21.21,0,0,1,0,.11Z"/><path class="cls-5" d="M78.87,47.41a3.91,3.91,0,0,1-.17,1.22,2.75,2.75,0,0,1-.53.95,2.39,2.39,0,0,1-.9.61,3.26,3.26,0,0,1-1.26.22,3.42,3.42,0,0,1-1.21-.19,2.13,2.13,0,0,1-.85-.57,2.21,2.21,0,0,1-.51-.9,4.22,4.22,0,0,1-.16-1.23,3.91,3.91,0,0,1,.18-1.22,2.52,2.52,0,0,1,.53-.95,2.39,2.39,0,0,1,.9-.61,3.17,3.17,0,0,1,1.25-.22,3.47,3.47,0,0,1,1.22.19,2.18,2.18,0,0,1,.85.56,2.43,2.43,0,0,1,.5.91A4.22,4.22,0,0,1,78.87,47.41Zm-1.51.06a3.92,3.92,0,0,0-.06-.71,1.56,1.56,0,0,0-.21-.56,1.09,1.09,0,0,0-.39-.38,1.25,1.25,0,0,0-.61-.13,1.34,1.34,0,0,0-.58.12,1,1,0,0,0-.4.35,2,2,0,0,0-.24.55,3.36,3.36,0,0,0-.08.74,4,4,0,0,0,.07.72,1.63,1.63,0,0,0,.21.56.93.93,0,0,0,.39.37,1.21,1.21,0,0,0,.6.13,1.28,1.28,0,0,0,.58-.12,1,1,0,0,0,.41-.35,1.63,1.63,0,0,0,.23-.55A3.22,3.22,0,0,0,77.36,47.47Z"/><path class="cls-5" d="M85,50.08a.21.21,0,0,1,0,.1.22.22,0,0,1-.12.07.9.9,0,0,1-.22,0h-.72a.9.9,0,0,1-.22,0,.22.22,0,0,1-.12-.07.19.19,0,0,1,0-.1v-3a2.3,2.3,0,0,0-.06-.6,1.25,1.25,0,0,0-.16-.37.62.62,0,0,0-.27-.24.8.8,0,0,0-.39-.09,1,1,0,0,0-.57.21,3,3,0,0,0-.6.59v3.48a.19.19,0,0,1,0,.1.22.22,0,0,1-.12.07,1,1,0,0,1-.23,0h-.71l-.23,0a.35.35,0,0,1-.12-.07.19.19,0,0,1,0-.1V44.85a.19.19,0,0,1,0-.1.2.2,0,0,1,.1-.07.88.88,0,0,1,.2,0l.3,0,.31,0a.69.69,0,0,1,.19,0,.2.2,0,0,1,.1.07.19.19,0,0,1,0,.1v.61a3.22,3.22,0,0,1,.88-.7,2,2,0,0,1,.93-.24,2,2,0,0,1,.9.18,1.52,1.52,0,0,1,.59.47,2,2,0,0,1,.33.71,4.45,4.45,0,0,1,.1,1Z"/><path class="cls-5" d="M90.92,50.09a.15.15,0,0,1-.06.13.38.38,0,0,1-.18.07l-.37,0-.39,0a.34.34,0,0,1-.17-.07.17.17,0,0,1,0-.13v-.41a2.39,2.39,0,0,1-.73.54,2.13,2.13,0,0,1-.92.19,2.63,2.63,0,0,1-.76-.11,1.73,1.73,0,0,1-.6-.32,1.41,1.41,0,0,1-.4-.53,1.88,1.88,0,0,1-.14-.74,1.65,1.65,0,0,1,.18-.79,1.42,1.42,0,0,1,.53-.56,2.84,2.84,0,0,1,.88-.32A6.27,6.27,0,0,1,89,46.93h.51v-.31a1.37,1.37,0,0,0,0-.43.61.61,0,0,0-.16-.31.75.75,0,0,0-.3-.18,1.65,1.65,0,0,0-.48-.06,2.57,2.57,0,0,0-.65.08l-.52.18-.37.18a.51.51,0,0,1-.24.09.16.16,0,0,1-.11-.05s-.06-.06-.09-.11a1.67,1.67,0,0,1,0-.19,1.93,1.93,0,0,1,0-.25,1,1,0,0,1,0-.28.31.31,0,0,1,.11-.19,1,1,0,0,1,.28-.19,3.69,3.69,0,0,1,.48-.19,3.75,3.75,0,0,1,.6-.14,3.71,3.71,0,0,1,.67-.06,4,4,0,0,1,1,.12,1.76,1.76,0,0,1,.72.37,1.39,1.39,0,0,1,.41.64,2.86,2.86,0,0,1,.13.93Zm-1.45-2.23h-.56a2.73,2.73,0,0,0-.61,0,1.4,1.4,0,0,0-.41.16.68.68,0,0,0-.23.25.78.78,0,0,0-.07.35.65.65,0,0,0,.21.51.8.8,0,0,0,.57.19,1.11,1.11,0,0,0,.57-.16,2.42,2.42,0,0,0,.53-.46Z"/><path class="cls-5" d="M97.34,50.08a.17.17,0,0,1,0,.1.21.21,0,0,1-.1.08.69.69,0,0,1-.19,0h-.6l-.19,0a.21.21,0,0,1-.1-.08.18.18,0,0,1,0-.1V49.5a3.39,3.39,0,0,1-.84.67,2,2,0,0,1-1,.24,2.07,2.07,0,0,1-1-.23,1.9,1.9,0,0,1-.67-.62,2.71,2.71,0,0,1-.38-.92,4.94,4.94,0,0,1-.12-1.1,4.84,4.84,0,0,1,.15-1.26,2.77,2.77,0,0,1,.44-1,2,2,0,0,1,.71-.6,2.21,2.21,0,0,1,1-.21,1.74,1.74,0,0,1,.8.18,2.92,2.92,0,0,1,.71.52V42.4a.2.2,0,0,1,0-.11.23.23,0,0,1,.12-.08.9.9,0,0,1,.22-.05H97a1,1,0,0,1,.22.05.36.36,0,0,1,.12.08.2.2,0,0,1,0,.11Zm-1.46-3.49a2.92,2.92,0,0,0-.61-.61,1,1,0,0,0-.6-.21.92.92,0,0,0-.5.14,1,1,0,0,0-.33.38,1.82,1.82,0,0,0-.19.54,3.08,3.08,0,0,0-.06.61,4.34,4.34,0,0,0,0,.63,1.84,1.84,0,0,0,.18.56,1,1,0,0,0,.31.39.9.9,0,0,0,.51.14.92.92,0,0,0,.29,0,1.35,1.35,0,0,0,.3-.14,2.35,2.35,0,0,0,.3-.27,3.61,3.61,0,0,0,.35-.39Z"/><path class="cls-5" d="M104.1,47.41a4.23,4.23,0,0,1-.17,1.22,2.62,2.62,0,0,1-.54.95,2.36,2.36,0,0,1-.89.61,3.26,3.26,0,0,1-1.26.22,3.42,3.42,0,0,1-1.21-.19,2.16,2.16,0,0,1-.86-.57,2.31,2.31,0,0,1-.5-.9,4.63,4.63,0,0,1,0-2.45,2.54,2.54,0,0,1,.54-.95,2.44,2.44,0,0,1,.89-.61,3.26,3.26,0,0,1,1.26-.22,3.47,3.47,0,0,1,1.22.19,2.18,2.18,0,0,1,.85.56,2.43,2.43,0,0,1,.5.91A4.22,4.22,0,0,1,104.1,47.41Zm-1.51.06a3.17,3.17,0,0,0-.07-.71,1.76,1.76,0,0,0-.2-.56,1.09,1.09,0,0,0-.39-.38,1.25,1.25,0,0,0-.61-.13,1.34,1.34,0,0,0-.58.12,1,1,0,0,0-.4.35,1.53,1.53,0,0,0-.24.55,3.36,3.36,0,0,0-.08.74,3.26,3.26,0,0,0,.07.72,1.85,1.85,0,0,0,.2.56,1.06,1.06,0,0,0,.39.37,1.28,1.28,0,0,0,.61.13,1.31,1.31,0,0,0,.58-.12,1,1,0,0,0,.41-.35,1.63,1.63,0,0,0,.23-.55A3.22,3.22,0,0,0,102.59,47.47Z"/><path class="cls-5" d="M108.62,45.34c0,.14,0,.26,0,.35a.87.87,0,0,1,0,.21.14.14,0,0,1-.06.1.14.14,0,0,1-.09,0l-.11,0-.13,0-.16,0-.2,0a.69.69,0,0,0-.24.05,1.53,1.53,0,0,0-.26.16,1.83,1.83,0,0,0-.27.28,4.42,4.42,0,0,0-.31.43v3.26a.19.19,0,0,1,0,.1.35.35,0,0,1-.12.07l-.23,0h-.71a1,1,0,0,1-.23,0,.22.22,0,0,1-.12-.07.19.19,0,0,1,0-.1V44.85a.19.19,0,0,1,0-.1.2.2,0,0,1,.1-.07.88.88,0,0,1,.2,0l.3,0,.31,0,.19,0a.26.26,0,0,1,.1.07.19.19,0,0,1,0,.1v.65a4.24,4.24,0,0,1,.38-.48,2.25,2.25,0,0,1,.35-.3,1,1,0,0,1,.32-.15,1.26,1.26,0,0,1,.33,0h.17l.18,0,.16,0a.19.19,0,0,1,.1,0,.12.12,0,0,1,0,.07.46.46,0,0,1,0,.09,1,1,0,0,1,0,.19A3,3,0,0,1,108.62,45.34Z"/><path class="cls-5" d="M117.19,50.08a.17.17,0,0,1,0,.1.21.21,0,0,1-.1.08l-.19,0h-.6l-.19,0a.31.31,0,0,1-.11-.08.17.17,0,0,1,0-.1V49.5a3.39,3.39,0,0,1-.84.67,2,2,0,0,1-1,.24,2.07,2.07,0,0,1-1-.23,2,2,0,0,1-.68-.62,2.69,2.69,0,0,1-.37-.92,4.94,4.94,0,0,1-.12-1.1,4.84,4.84,0,0,1,.15-1.26,3,3,0,0,1,.43-1,2,2,0,0,1,.72-.6,2.17,2.17,0,0,1,1-.21,1.77,1.77,0,0,1,.8.18,2.92,2.92,0,0,1,.71.52V42.4a.2.2,0,0,1,0-.11.24.24,0,0,1,.11-.08l.23-.05h.71a1,1,0,0,1,.23.05.24.24,0,0,1,.11.08.15.15,0,0,1,0,.11Zm-1.46-3.49a3.18,3.18,0,0,0-.61-.61,1,1,0,0,0-.61-.21.88.88,0,0,0-.49.14,1,1,0,0,0-.33.38,1.82,1.82,0,0,0-.19.54,3.08,3.08,0,0,0-.06.61,3.28,3.28,0,0,0,0,.63,2.17,2.17,0,0,0,.17.56A1.12,1.12,0,0,0,114,49a.87.87,0,0,0,.5.14,1,1,0,0,0,.3,0,1.28,1.28,0,0,0,.29-.14,1.87,1.87,0,0,0,.31-.27,3.61,3.61,0,0,0,.35-.39Z"/><path class="cls-5" d="M123.49,47.31a.56.56,0,0,1-.12.4.42.42,0,0,1-.33.13h-3.18a2.37,2.37,0,0,0,.08.61,1.36,1.36,0,0,0,.25.46,1.17,1.17,0,0,0,.45.29,2.06,2.06,0,0,0,.65.1,3.37,3.37,0,0,0,.68-.06l.51-.12.35-.12a.65.65,0,0,1,.23-.06l.09,0a.22.22,0,0,1,.06.07s0,.09,0,.15,0,.15,0,.25,0,.16,0,.22a.61.61,0,0,1,0,.15.35.35,0,0,1,0,.11l-.06.08a.63.63,0,0,1-.21.11,2.41,2.41,0,0,1-.43.14,4.39,4.39,0,0,1-.61.12,5.43,5.43,0,0,1-.72,0,3.73,3.73,0,0,1-1.22-.18,2.12,2.12,0,0,1-.88-.53,2.23,2.23,0,0,1-.52-.9,4.66,4.66,0,0,1,0-2.53,2.64,2.64,0,0,1,.52-1,2.17,2.17,0,0,1,.84-.59,2.83,2.83,0,0,1,1.12-.21,3.08,3.08,0,0,1,1.12.19,2,2,0,0,1,.76.54,2.13,2.13,0,0,1,.44.81,3.31,3.31,0,0,1,.14,1Zm-1.43-.42a1.49,1.49,0,0,0-.24-1,1,1,0,0,0-.83-.36,1.1,1.1,0,0,0-.49.11,1,1,0,0,0-.34.28,1.38,1.38,0,0,0-.21.42,2.27,2.27,0,0,0-.09.52Z"/><path class="cls-5" d="M24.2,59.83a4.84,4.84,0,0,1-.15,1.26,2.86,2.86,0,0,1-.43.95,1.9,1.9,0,0,1-.72.6,2.16,2.16,0,0,1-1,.21,1.76,1.76,0,0,1-.42,0,1.66,1.66,0,0,1-.37-.14,2.32,2.32,0,0,1-.36-.22l-.36-.32v2.46a.2.2,0,0,1,0,.11.62.62,0,0,1-.12.08l-.23,0h-.71l-.23,0A.62.62,0,0,1,19,64.7a.2.2,0,0,1,0-.11V57.3a.17.17,0,0,1,0-.1.21.21,0,0,1,.1-.08l.19,0,.3,0,.3,0,.19,0a.2.2,0,0,1,.13.18v.61c.16-.15.3-.29.45-.41a2.93,2.93,0,0,1,.45-.3,2.07,2.07,0,0,1,.47-.18,2.18,2.18,0,0,1,.52-.06,2,2,0,0,1,1,.23,1.92,1.92,0,0,1,.65.62,2.77,2.77,0,0,1,.38.91A5.65,5.65,0,0,1,24.2,59.83Zm-1.53.11a4.37,4.37,0,0,0-.05-.64,1.77,1.77,0,0,0-.17-.55.92.92,0,0,0-.32-.38.76.76,0,0,0-.48-.15.93.93,0,0,0-.29.05,1,1,0,0,0-.3.14,1.74,1.74,0,0,0-.3.26,2.79,2.79,0,0,0-.34.39v1.72a4.35,4.35,0,0,0,.59.61,1,1,0,0,0,.59.21.81.81,0,0,0,.49-.15,1.12,1.12,0,0,0,.33-.38,2.22,2.22,0,0,0,.19-.53A3.05,3.05,0,0,0,22.67,59.94Z"/><path class="cls-5" d="M28.73,57.78c0,.14,0,.26,0,.35s0,.16,0,.21a.36.36,0,0,1-.06.11l-.1,0a.23.23,0,0,1-.11,0l-.13,0-.16,0a.58.58,0,0,0-.19,0,.56.56,0,0,0-.25,0,1,1,0,0,0-.25.15,1.84,1.84,0,0,0-.28.28,3.68,3.68,0,0,0-.3.44v3.25a.19.19,0,0,1-.16.17,1,1,0,0,1-.23.05h-.71l-.23-.05a.24.24,0,0,1-.12-.07.17.17,0,0,1,0-.1V57.3a.17.17,0,0,1,0-.1.21.21,0,0,1,.1-.08l.2,0,.3,0,.31,0a.69.69,0,0,1,.19,0,.21.21,0,0,1,.1.08.17.17,0,0,1,0,.1V58a3.65,3.65,0,0,1,.38-.48,3,3,0,0,1,.35-.31A1.21,1.21,0,0,1,27.7,57,1.26,1.26,0,0,1,28,57h.16l.18,0,.16,0,.11.05a.25.25,0,0,1,0,.07.62.62,0,0,1,0,.1s0,.1,0,.18Z"/><path class="cls-5" d="M34.77,59.86a4.16,4.16,0,0,1-.17,1.21,2.66,2.66,0,0,1-.53,1,2.42,2.42,0,0,1-.9.62,3.47,3.47,0,0,1-1.26.21,3.42,3.42,0,0,1-1.21-.19,2.22,2.22,0,0,1-.85-.56,2.32,2.32,0,0,1-.51-.91A4.22,4.22,0,0,1,29.18,60a4,4,0,0,1,.18-1.22,2.6,2.6,0,0,1,.53-1,2.57,2.57,0,0,1,.89-.61A3.46,3.46,0,0,1,32,57a3.72,3.72,0,0,1,1.22.19,2.29,2.29,0,0,1,.85.56,2.43,2.43,0,0,1,.5.91A4.24,4.24,0,0,1,34.77,59.86Zm-1.51,0a4,4,0,0,0-.06-.71,1.86,1.86,0,0,0-.21-.56,1.09,1.09,0,0,0-.39-.38,1.25,1.25,0,0,0-.61-.13,1.34,1.34,0,0,0-.58.12,1,1,0,0,0-.4.35,1.69,1.69,0,0,0-.24.56,3.22,3.22,0,0,0-.08.74,4,4,0,0,0,.07.71,1.63,1.63,0,0,0,.21.56.87.87,0,0,0,.39.37,1.21,1.21,0,0,0,.6.14,1.28,1.28,0,0,0,.58-.12,1.07,1.07,0,0,0,.41-.35,1.72,1.72,0,0,0,.23-.55A3.38,3.38,0,0,0,33.26,59.91Z"/><path class="cls-5" d="M40.89,62.52a.2.2,0,0,1,0,.11.2.2,0,0,1-.1.07l-.19,0H40l-.19,0a.2.2,0,0,1-.1-.07.15.15,0,0,1,0-.11v-.58a3.39,3.39,0,0,1-.84.67,2,2,0,0,1-1,.24,2,2,0,0,1-1-.23,1.93,1.93,0,0,1-.68-.62,2.61,2.61,0,0,1-.37-.92,4.88,4.88,0,0,1-.12-1.1,4.76,4.76,0,0,1,.15-1.25,2.69,2.69,0,0,1,.44-.95,1.87,1.87,0,0,1,.71-.6,2.05,2.05,0,0,1,1-.22,1.74,1.74,0,0,1,.8.18,3,3,0,0,1,.71.53V54.84a.23.23,0,0,1,0-.11.22.22,0,0,1,.12-.07.6.6,0,0,1,.22,0,1.89,1.89,0,0,1,.36,0,1.94,1.94,0,0,1,.36,0,.65.65,0,0,1,.22,0,.35.35,0,0,1,.12.07.23.23,0,0,1,0,.11ZM39.43,59a3.5,3.5,0,0,0-.61-.61,1,1,0,0,0-.6-.21.89.89,0,0,0-.5.14,1,1,0,0,0-.33.39,1.86,1.86,0,0,0-.19.53,3.08,3.08,0,0,0-.06.61,4.48,4.48,0,0,0,0,.64,2.21,2.21,0,0,0,.17.55,1.12,1.12,0,0,0,.32.39.83.83,0,0,0,.51.15.93.93,0,0,0,.29,0,1,1,0,0,0,.29-.14,1.78,1.78,0,0,0,.31-.26,5.24,5.24,0,0,0,.35-.4Z"/><path class="cls-5" d="M47.32,62.52a.17.17,0,0,1,0,.1.15.15,0,0,1-.1.07.74.74,0,0,1-.19.05h-.62a.74.74,0,0,1-.19-.05.18.18,0,0,1-.1-.07.17.17,0,0,1,0-.1v-.6a3.26,3.26,0,0,1-.88.7,2,2,0,0,1-.92.23,2.24,2.24,0,0,1-.91-.17,1.64,1.64,0,0,1-.59-.48,1.91,1.91,0,0,1-.32-.71,4.06,4.06,0,0,1-.1-1V57.3a.17.17,0,0,1,0-.1.28.28,0,0,1,.12-.08l.23,0,.35,0,.36,0,.23,0a.36.36,0,0,1,.12.08.17.17,0,0,1,0,.1v3a3.13,3.13,0,0,0,0,.62,1.32,1.32,0,0,0,.16.38.92.92,0,0,0,.28.24.93.93,0,0,0,.39.08,1,1,0,0,0,.56-.2,3.4,3.4,0,0,0,.61-.6V57.3a.17.17,0,0,1,0-.1.23.23,0,0,1,.12-.08l.22,0,.36,0,.36,0a1,1,0,0,1,.22,0,.28.28,0,0,1,.12.08.17.17,0,0,1,0,.1Z"/><path class="cls-5" d="M52.75,61.69v.25q0,.11,0,.18l0,.11-.09.11a1.09,1.09,0,0,1-.24.16,2.32,2.32,0,0,1-.39.18,2.93,2.93,0,0,1-.47.12,3.05,3.05,0,0,1-.52.05,2.92,2.92,0,0,1-1.07-.19,2.09,2.09,0,0,1-.78-.55,2.36,2.36,0,0,1-.48-.9,4,4,0,0,1-.16-1.2,4.25,4.25,0,0,1,.19-1.36,2.63,2.63,0,0,1,.55-.94,2.14,2.14,0,0,1,.83-.56A3,3,0,0,1,51.12,57a2.28,2.28,0,0,1,.45,0,3.83,3.83,0,0,1,.43.11l.35.16.22.15.09.11a.34.34,0,0,1,0,.12.72.72,0,0,1,0,.17,1.85,1.85,0,0,1,0,.25,1.29,1.29,0,0,1-.06.47c0,.1-.09.14-.15.14a.37.37,0,0,1-.21-.08l-.26-.18a1.82,1.82,0,0,0-.37-.18,1.28,1.28,0,0,0-.5-.09,1,1,0,0,0-.88.45A2.28,2.28,0,0,0,50,59.9a3.42,3.42,0,0,0,.07.75,1.52,1.52,0,0,0,.23.53.9.9,0,0,0,.37.33,1.25,1.25,0,0,0,.53.11,1.38,1.38,0,0,0,.52-.09,2.36,2.36,0,0,0,.39-.2l.27-.21a.32.32,0,0,1,.19-.09.11.11,0,0,1,.08,0,.17.17,0,0,1,.06.11s0,.12,0,.2A2.92,2.92,0,0,1,52.75,61.69Z"/><path class="cls-5" d="M56.91,62a2,2,0,0,1,0,.4.34.34,0,0,1-.09.19.36.36,0,0,1-.15.1l-.24.08-.3,0-.33,0a2.2,2.2,0,0,1-.76-.12,1.19,1.19,0,0,1-.53-.34,1.47,1.47,0,0,1-.31-.58,2.9,2.9,0,0,1-.1-.83V58.29h-.63a.17.17,0,0,1-.16-.13,1.3,1.3,0,0,1-.06-.46,2.44,2.44,0,0,1,0-.29.56.56,0,0,1,.05-.18.15.15,0,0,1,.07-.1.17.17,0,0,1,.1,0h.62V55.93a.19.19,0,0,1,0-.1.23.23,0,0,1,.12-.08,1,1,0,0,1,.23,0h.71a1,1,0,0,1,.23,0,.24.24,0,0,1,.11.08.14.14,0,0,1,0,.1V57.1h1.14a.19.19,0,0,1,.1,0,.2.2,0,0,1,.07.1.56.56,0,0,1,0,.18c0,.08,0,.17,0,.29a1.3,1.3,0,0,1-.06.46c0,.09-.09.13-.17.13H55.54v2.46a1.25,1.25,0,0,0,.13.64.53.53,0,0,0,.48.21l.21,0a.69.69,0,0,0,.17,0l.12,0a.2.2,0,0,1,.1,0,.07.07,0,0,1,.06,0,.12.12,0,0,1,0,.08,1.23,1.23,0,0,1,0,.16C56.9,61.81,56.91,61.9,56.91,62Z"/><path class="cls-5" d="M63.14,59.86A3.84,3.84,0,0,1,63,61.07a2.52,2.52,0,0,1-.53,1,2.42,2.42,0,0,1-.9.62,3.92,3.92,0,0,1-2.47,0,2.22,2.22,0,0,1-.85-.56,2.32,2.32,0,0,1-.51-.91A4.58,4.58,0,0,1,57.54,60a4,4,0,0,1,.18-1.22,2.62,2.62,0,0,1,.54-1,2.39,2.39,0,0,1,.89-.61A3.37,3.37,0,0,1,60.4,57a3.68,3.68,0,0,1,1.22.19,2.22,2.22,0,0,1,.85.56,2.3,2.3,0,0,1,.5.91A4.22,4.22,0,0,1,63.14,59.86Zm-1.52,0a4,4,0,0,0-.06-.71,1.63,1.63,0,0,0-.21-.56,1.09,1.09,0,0,0-.39-.38,1.23,1.23,0,0,0-.61-.13,1.26,1.26,0,0,0-.57.12,1.07,1.07,0,0,0-.41.35,1.69,1.69,0,0,0-.23.56,2.75,2.75,0,0,0-.08.74,4,4,0,0,0,.06.71,1.63,1.63,0,0,0,.21.56.87.87,0,0,0,.39.37,1.25,1.25,0,0,0,.61.14,1.34,1.34,0,0,0,.58-.12,1,1,0,0,0,.4-.35,1.52,1.52,0,0,0,.23-.55A2.88,2.88,0,0,0,61.62,59.91Z"/><path class="cls-5" d="M68,61a1.8,1.8,0,0,1-.17.79,1.62,1.62,0,0,1-.47.57,2.18,2.18,0,0,1-.72.34,3.7,3.7,0,0,1-.9.11,3.36,3.36,0,0,1-.56,0,4.32,4.32,0,0,1-.48-.11,2.53,2.53,0,0,1-.35-.14,1,1,0,0,1-.2-.13.35.35,0,0,1-.1-.19,1.33,1.33,0,0,1,0-.39,2.18,2.18,0,0,1,0-.28.62.62,0,0,1,0-.16.1.1,0,0,1,.06-.08.11.11,0,0,1,.08,0,.37.37,0,0,1,.19.07l.32.16c.12.06.27.11.43.17a2,2,0,0,0,.57.07,1.25,1.25,0,0,0,.35,0,.85.85,0,0,0,.27-.12.39.39,0,0,0,.17-.19.6.6,0,0,0,.06-.27.44.44,0,0,0-.1-.3,1.11,1.11,0,0,0-.29-.22l-.41-.18-.46-.18a3.88,3.88,0,0,1-.46-.22,1.82,1.82,0,0,1-.4-.32,1.51,1.51,0,0,1-.29-.45,1.73,1.73,0,0,1-.11-.63,1.58,1.58,0,0,1,.15-.69,1.37,1.37,0,0,1,.42-.54,1.84,1.84,0,0,1,.67-.34,3,3,0,0,1,.89-.13,3.57,3.57,0,0,1,.47,0,2.2,2.2,0,0,1,.42.09,1.69,1.69,0,0,1,.32.11l.18.11a.22.22,0,0,1,.08.09.23.23,0,0,1,0,.1,1,1,0,0,0,0,.15v.49l0,.15a.18.18,0,0,1-.06.08.11.11,0,0,1-.08,0,.35.35,0,0,1-.16-.06l-.28-.13a2.54,2.54,0,0,0-.39-.13,1.9,1.9,0,0,0-.5-.06,1.13,1.13,0,0,0-.34,0,.53.53,0,0,0-.24.11.63.63,0,0,0-.15.18.54.54,0,0,0,0,.22.42.42,0,0,0,.11.31.94.94,0,0,0,.29.21,3.15,3.15,0,0,0,.41.18,4.52,4.52,0,0,1,.47.18,4,4,0,0,1,.47.22,1.62,1.62,0,0,1,.41.32,1.48,1.48,0,0,1,.3.45A1.62,1.62,0,0,1,68,61Z"/><path class="cls-5" d="M74.82,62.72l-.63,1.85a.38.38,0,0,1-.29.21,2.92,2.92,0,0,1-.68.06,2.06,2.06,0,0,1-.38,0,.53.53,0,0,1-.21-.06.18.18,0,0,1-.08-.12.38.38,0,0,1,0-.17l.7-1.75a.49.49,0,0,1-.14-.11.6.6,0,0,1-.09-.15l-1.8-4.8a1,1,0,0,1-.07-.32.21.21,0,0,1,.07-.17.38.38,0,0,1,.23-.08,2.59,2.59,0,0,1,.44,0h.4a.61.61,0,0,1,.23,0,.22.22,0,0,1,.12.11.77.77,0,0,1,.09.2L74,60.93h0l1.13-3.57a.34.34,0,0,1,.09-.2.3.3,0,0,1,.18-.07,2.34,2.34,0,0,1,.45,0,2.42,2.42,0,0,1,.42,0,.44.44,0,0,1,.25.09.21.21,0,0,1,.08.17.85.85,0,0,1,0,.25Z"/><path class="cls-5" d="M83.86,61a1.8,1.8,0,0,1-.17.79,1.62,1.62,0,0,1-.47.57,2.18,2.18,0,0,1-.72.34,3.7,3.7,0,0,1-.9.11,3.36,3.36,0,0,1-.56,0,4.32,4.32,0,0,1-.48-.11,2.53,2.53,0,0,1-.35-.14,1,1,0,0,1-.2-.13.35.35,0,0,1-.1-.19,1.33,1.33,0,0,1,0-.39,2.18,2.18,0,0,1,0-.28.62.62,0,0,1,0-.16.1.1,0,0,1,.06-.08.11.11,0,0,1,.08,0,.37.37,0,0,1,.19.07l.32.16c.12.06.27.11.43.17a2,2,0,0,0,.57.07,1.25,1.25,0,0,0,.35,0,.85.85,0,0,0,.27-.12.39.39,0,0,0,.17-.19.6.6,0,0,0,.06-.27.44.44,0,0,0-.1-.3,1.11,1.11,0,0,0-.29-.22l-.41-.18-.46-.18a3.88,3.88,0,0,1-.46-.22,1.82,1.82,0,0,1-.4-.32,1.51,1.51,0,0,1-.29-.45,1.73,1.73,0,0,1-.11-.63,1.58,1.58,0,0,1,.15-.69,1.37,1.37,0,0,1,.42-.54,1.84,1.84,0,0,1,.67-.34A3,3,0,0,1,82,57a3.57,3.57,0,0,1,.47,0,2.2,2.2,0,0,1,.42.09,1.69,1.69,0,0,1,.32.11l.18.11a.32.32,0,0,1,.08.09.23.23,0,0,1,0,.1,1,1,0,0,0,0,.15v.49q0,.09,0,.15a.18.18,0,0,1-.06.08.11.11,0,0,1-.08,0,.35.35,0,0,1-.16-.06L83,58.2a2.54,2.54,0,0,0-.39-.13,1.9,1.9,0,0,0-.5-.06,1.13,1.13,0,0,0-.34,0,.53.53,0,0,0-.24.11.63.63,0,0,0-.15.18.54.54,0,0,0,0,.22.42.42,0,0,0,.11.31.94.94,0,0,0,.29.21,3.15,3.15,0,0,0,.41.18,4.52,4.52,0,0,1,.47.18,4,4,0,0,1,.47.22,1.81,1.81,0,0,1,.41.32,1.48,1.48,0,0,1,.3.45A1.62,1.62,0,0,1,83.86,61Z"/><path class="cls-5" d="M89.79,59.76a.54.54,0,0,1-.12.39.42.42,0,0,1-.33.13H86.16a1.92,1.92,0,0,0,.08.61,1.09,1.09,0,0,0,.25.46,1,1,0,0,0,.44.29,1.83,1.83,0,0,0,.66.1,4.61,4.61,0,0,0,.68-.05,4,4,0,0,0,.5-.13l.36-.12a.56.56,0,0,1,.22-.06l.09,0a.28.28,0,0,1,.06.08.28.28,0,0,1,0,.15,1.63,1.63,0,0,1,0,.24,1.41,1.41,0,0,1,0,.22.66.66,0,0,1,0,.15.28.28,0,0,1,0,.11.24.24,0,0,1-.06.09.85.85,0,0,1-.21.11,3.11,3.11,0,0,1-.43.14c-.18,0-.38.08-.6.11a4.26,4.26,0,0,1-.73.05,4.08,4.08,0,0,1-1.22-.17,2.14,2.14,0,0,1-.87-.54,2.11,2.11,0,0,1-.53-.9A4.34,4.34,0,0,1,84.66,60a4.08,4.08,0,0,1,.18-1.26,2.66,2.66,0,0,1,.53-1,2.29,2.29,0,0,1,.84-.59A2.82,2.82,0,0,1,87.32,57a2.88,2.88,0,0,1,1.12.2,2.16,2.16,0,0,1,.77.53,2.27,2.27,0,0,1,.44.81,3.75,3.75,0,0,1,.14,1Zm-1.43-.43a1.51,1.51,0,0,0-.25-1,1,1,0,0,0-.82-.35,1.07,1.07,0,0,0-.49.1,1,1,0,0,0-.35.29,1.27,1.27,0,0,0-.21.42,2.09,2.09,0,0,0-.08.51Z"/><path class="cls-5" d="M94.35,57.78c0,.14,0,.26,0,.35s0,.16,0,.21a.23.23,0,0,1-.07.11l-.09,0a.23.23,0,0,1-.11,0l-.13,0-.16,0a.58.58,0,0,0-.19,0,.53.53,0,0,0-.25,0,.83.83,0,0,0-.25.15,1.84,1.84,0,0,0-.28.28,3.64,3.64,0,0,0-.31.44v3.25a.17.17,0,0,1,0,.1.24.24,0,0,1-.12.07,1,1,0,0,1-.23.05h-.71a1,1,0,0,1-.23-.05.24.24,0,0,1-.12-.07.17.17,0,0,1,0-.1V57.3a.17.17,0,0,1,0-.1.21.21,0,0,1,.1-.08l.2,0,.3,0,.31,0a.69.69,0,0,1,.19,0,.21.21,0,0,1,.1.08.17.17,0,0,1,0,.1V58a3,3,0,0,1,.38-.48,2.36,2.36,0,0,1,.35-.31,1.21,1.21,0,0,1,.33-.15,1.13,1.13,0,0,1,.32,0h.17L94,57l.16,0,.11.05a.25.25,0,0,1,0,.07.62.62,0,0,1,0,.1s0,.1,0,.18Z"/><path class="cls-5" d="M100.17,57.29v.07s0,.06,0,.09a.6.6,0,0,1,0,.12,1,1,0,0,1,0,.14l-1.56,4.73a.6.6,0,0,1-.08.16.34.34,0,0,1-.17.09,1.11,1.11,0,0,1-.31.05H97a1.54,1.54,0,0,1-.3-.05.35.35,0,0,1-.17-.1.52.52,0,0,1-.07-.15l-1.57-4.73a1.66,1.66,0,0,1-.06-.21,1.05,1.05,0,0,1,0-.13v-.08a.17.17,0,0,1,0-.1.23.23,0,0,1,.11-.07.68.68,0,0,1,.23,0l.36,0,.38,0a1,1,0,0,1,.23,0,.18.18,0,0,1,.12.08.23.23,0,0,1,.06.12l1.19,3.83,0,.15,0-.15,1.17-3.83a.23.23,0,0,1,.06-.12.18.18,0,0,1,.12-.08,1,1,0,0,1,.22,0l.36,0,.35,0a.56.56,0,0,1,.21,0,.19.19,0,0,1,.11.07A.17.17,0,0,1,100.17,57.29Z"/><path class="cls-5" d="M102.62,55.53a.85.85,0,0,1-.18.62,1,1,0,0,1-.67.16,1,1,0,0,1-.67-.16.79.79,0,0,1-.18-.59.85.85,0,0,1,.18-.62,1,1,0,0,1,.68-.17,1,1,0,0,1,.67.17A.83.83,0,0,1,102.62,55.53Zm-.11,7a.17.17,0,0,1,0,.1.24.24,0,0,1-.12.07l-.23.05h-.71a1,1,0,0,1-.23-.05.18.18,0,0,1-.12-.07.17.17,0,0,1,0-.1V57.31a.17.17,0,0,1,0-.1.23.23,0,0,1,.12-.08,1,1,0,0,1,.23-.05l.35,0,.36,0,.23.05a.36.36,0,0,1,.12.08.17.17,0,0,1,0,.1Z"/><path class="cls-5" d="M107.93,61.69a1.85,1.85,0,0,1,0,.25.9.9,0,0,1,0,.18.36.36,0,0,1,0,.11.27.27,0,0,1-.09.11.75.75,0,0,1-.24.16,1.91,1.91,0,0,1-.38.18,3.23,3.23,0,0,1-.47.12,3.07,3.07,0,0,1-.53.05,3,3,0,0,1-1.07-.19,2.09,2.09,0,0,1-.78-.55,2.5,2.5,0,0,1-.48-.9,4.36,4.36,0,0,1-.16-1.2,4.24,4.24,0,0,1,.2-1.36,2.49,2.49,0,0,1,.55-.94,2.14,2.14,0,0,1,.83-.56,3,3,0,0,1,1.05-.18,2.32,2.32,0,0,1,.46,0l.42.11a2.29,2.29,0,0,1,.35.16,1,1,0,0,1,.22.15.35.35,0,0,1,.09.11.33.33,0,0,1,0,.12s0,.1,0,.17,0,.15,0,.25a1.29,1.29,0,0,1-.06.47c0,.1-.09.14-.15.14a.37.37,0,0,1-.21-.08l-.27-.18a1.51,1.51,0,0,0-.36-.18,1.28,1.28,0,0,0-.5-.09,1,1,0,0,0-.88.45,2.27,2.27,0,0,0-.31,1.29,3.38,3.38,0,0,0,.08.75,1.52,1.52,0,0,0,.23.53.84.84,0,0,0,.37.33,1.24,1.24,0,0,0,.52.11,1.4,1.4,0,0,0,.53-.09,2.69,2.69,0,0,0,.38-.2l.28-.21a.3.3,0,0,1,.18-.09.12.12,0,0,1,.09,0s0,.06.06.11,0,.12,0,.2A2.92,2.92,0,0,1,107.93,61.69Z"/><path class="cls-5" d="M110.58,55.53a.85.85,0,0,1-.18.62,1,1,0,0,1-.67.16,1,1,0,0,1-.67-.16.79.79,0,0,1-.17-.59.85.85,0,0,1,.17-.62,1,1,0,0,1,.68-.17,1,1,0,0,1,.67.17A.79.79,0,0,1,110.58,55.53Zm-.11,7a.17.17,0,0,1,0,.1.24.24,0,0,1-.12.07,1,1,0,0,1-.23.05h-.71a1,1,0,0,1-.23-.05.24.24,0,0,1-.12-.07.17.17,0,0,1,0-.1V57.31a.17.17,0,0,1,0-.1.36.36,0,0,1,.12-.08,1,1,0,0,1,.23-.05l.35,0,.36,0a1,1,0,0,1,.23.05.36.36,0,0,1,.12.08.17.17,0,0,1,0,.1Z"/><path class="cls-5" d="M117.22,59.86a4.16,4.16,0,0,1-.17,1.21,2.54,2.54,0,0,1-.54,1,2.38,2.38,0,0,1-.89.62,3.47,3.47,0,0,1-1.26.21,3.38,3.38,0,0,1-1.21-.19,2.25,2.25,0,0,1-.86-.56,2.43,2.43,0,0,1-.5-.91,4.22,4.22,0,0,1-.16-1.23,4,4,0,0,1,.17-1.22,2.62,2.62,0,0,1,.54-1,2.48,2.48,0,0,1,.89-.61,3.46,3.46,0,0,1,1.26-.22,3.61,3.61,0,0,1,1.21.19,2.25,2.25,0,0,1,.86.56,2.43,2.43,0,0,1,.5.91A4.24,4.24,0,0,1,117.22,59.86Zm-1.52,0a4,4,0,0,0-.06-.71,1.85,1.85,0,0,0-.2-.56,1.09,1.09,0,0,0-.39-.38,1.29,1.29,0,0,0-.62-.13,1.32,1.32,0,0,0-.57.12,1,1,0,0,0-.4.35,1.51,1.51,0,0,0-.24.56,3.55,3.55,0,0,0,0,1.45,1.85,1.85,0,0,0,.2.56,1,1,0,0,0,.39.37,1.28,1.28,0,0,0,.61.14,1.31,1.31,0,0,0,.58-.12,1,1,0,0,0,.4-.35,1.53,1.53,0,0,0,.24-.55A3.42,3.42,0,0,0,115.7,59.91Z"/><path class="cls-5" d="M122.06,61a1.67,1.67,0,0,1-.17.79,1.52,1.52,0,0,1-.47.57,2.18,2.18,0,0,1-.72.34,3.58,3.58,0,0,1-.9.11,3.43,3.43,0,0,1-.56,0l-.47-.11a3.42,3.42,0,0,1-.36-.14,1,1,0,0,1-.2-.13.43.43,0,0,1-.1-.19,1.92,1.92,0,0,1,0-.39,2.18,2.18,0,0,1,0-.28.65.65,0,0,1,0-.16.18.18,0,0,1,.06-.08s0,0,.09,0a.44.44,0,0,1,.19.07l.31.16.44.17a1.91,1.91,0,0,0,.56.07,1.37,1.37,0,0,0,.36,0,1.11,1.11,0,0,0,.27-.12.52.52,0,0,0,.17-.19.6.6,0,0,0,.06-.27.44.44,0,0,0-.11-.3,1,1,0,0,0-.29-.22l-.4-.18a4.37,4.37,0,0,1-.46-.18,4,4,0,0,1-.47-.22,2.08,2.08,0,0,1-.4-.32,1.51,1.51,0,0,1-.29-.45,1.73,1.73,0,0,1-.11-.63,1.57,1.57,0,0,1,.57-1.23,2,2,0,0,1,.67-.34,3.08,3.08,0,0,1,.89-.13,3.88,3.88,0,0,1,.48,0,2.26,2.26,0,0,1,.41.09,1.48,1.48,0,0,1,.32.11,1,1,0,0,1,.19.11.28.28,0,0,1,.07.09.23.23,0,0,1,0,.1s0,.09,0,.15a1.55,1.55,0,0,1,0,.23,2,2,0,0,1,0,.26l0,.15a.12.12,0,0,1,0,.08.15.15,0,0,1-.09,0,.4.4,0,0,1-.16-.06l-.28-.13a2.8,2.8,0,0,0-.38-.13,2,2,0,0,0-.51-.06,1.18,1.18,0,0,0-.34,0,.53.53,0,0,0-.24.11.59.59,0,0,0-.14.18.54.54,0,0,0-.05.22.47.47,0,0,0,.11.31,1.14,1.14,0,0,0,.3.21,2.65,2.65,0,0,0,.41.18l.47.18a4.81,4.81,0,0,1,.46.22,1.67,1.67,0,0,1,.42.32,1.29,1.29,0,0,1,.29.45A1.62,1.62,0,0,1,122.06,61Z"/><path class="cls-5" d="M31,72.28a4.81,4.81,0,0,1-.15,1.25,2.86,2.86,0,0,1-.43,1,2,2,0,0,1-.72.6,2.05,2.05,0,0,1-1,.22,1.7,1.7,0,0,1-.41,0,1.63,1.63,0,0,1-.37-.13,2.41,2.41,0,0,1-.36-.23,4.64,4.64,0,0,1-.36-.31V77a.2.2,0,0,1,0,.11.36.36,0,0,1-.12.08l-.23,0-.36,0-.35,0a1,1,0,0,1-.23,0,.23.23,0,0,1-.12-.08.21.21,0,0,1,0-.11V69.74a.17.17,0,0,1,0-.1.18.18,0,0,1,.11-.07.74.74,0,0,1,.19,0h.6a.74.74,0,0,1,.19,0,.15.15,0,0,1,.1.07.17.17,0,0,1,0,.1v.62a4.32,4.32,0,0,1,.45-.42,2.93,2.93,0,0,1,.45-.3,1.66,1.66,0,0,1,.47-.17,2.12,2.12,0,0,1,.52-.06,2,2,0,0,1,1,.22,1.87,1.87,0,0,1,.66.62,2.64,2.64,0,0,1,.37.91A5,5,0,0,1,31,72.28Zm-1.53.1a4.37,4.37,0,0,0-.05-.64,2.21,2.21,0,0,0-.17-.55,1,1,0,0,0-.32-.38.77.77,0,0,0-.49-.14,1,1,0,0,0-.29,0,1.53,1.53,0,0,0-.29.14,3.29,3.29,0,0,0-.31.26l-.33.39v1.72a3.14,3.14,0,0,0,.59.61,1,1,0,0,0,.59.21.88.88,0,0,0,.49-.14,1.27,1.27,0,0,0,.33-.39,1.94,1.94,0,0,0,.19-.53A3.05,3.05,0,0,0,29.42,72.38Z"/><path class="cls-5" d="M36.58,75a.16.16,0,0,1-.06.13.5.5,0,0,1-.19.07l-.37,0-.38,0a.39.39,0,0,1-.17-.07.19.19,0,0,1,0-.13v-.42a2.43,2.43,0,0,1-.74.54,2.09,2.09,0,0,1-.91.2,2.7,2.7,0,0,1-.77-.11,1.73,1.73,0,0,1-.6-.32,1.46,1.46,0,0,1-.39-.53,1.75,1.75,0,0,1-.14-.74,1.62,1.62,0,0,1,.17-.79,1.45,1.45,0,0,1,.54-.56,2.53,2.53,0,0,1,.88-.33,6.33,6.33,0,0,1,1.22-.1h.51V71.5a1.88,1.88,0,0,0-.05-.43.72.72,0,0,0-.16-.3.65.65,0,0,0-.31-.19,1.57,1.57,0,0,0-.47,0,2.3,2.3,0,0,0-.66.08,3,3,0,0,0-.51.18L32.6,71a.6.6,0,0,1-.24.08.17.17,0,0,1-.12,0,.36.36,0,0,1-.08-.12.78.78,0,0,1,0-.18,2,2,0,0,1,0-.25,1.12,1.12,0,0,1,0-.29.52.52,0,0,1,.11-.19,1.5,1.5,0,0,1,.29-.18,3.69,3.69,0,0,1,.48-.19,4.38,4.38,0,0,1,.6-.15,4.91,4.91,0,0,1,.67,0,4,4,0,0,1,1,.12,1.76,1.76,0,0,1,.72.37,1.42,1.42,0,0,1,.41.64,3.16,3.16,0,0,1,.13.93Zm-1.45-2.24h-.56a2.68,2.68,0,0,0-.61.06,1.1,1.1,0,0,0-.41.15.63.63,0,0,0-.23.26.74.74,0,0,0-.07.34.7.7,0,0,0,.2.52.86.86,0,0,0,.58.18,1.1,1.1,0,0,0,.57-.15,2.45,2.45,0,0,0,.53-.47Z"/><path class="cls-5" d="M41.4,70.23a3.33,3.33,0,0,1,0,.34.87.87,0,0,1,0,.21.17.17,0,0,1-.06.11.15.15,0,0,1-.1,0l-.1,0L41,70.85l-.16,0-.2,0a.69.69,0,0,0-.24,0,1,1,0,0,0-.26.15,2.44,2.44,0,0,0-.27.28,4.67,4.67,0,0,0-.31.44V75a.15.15,0,0,1,0,.1.36.36,0,0,1-.12.08l-.23,0-.36,0-.35,0-.23,0a.23.23,0,0,1-.12-.08.15.15,0,0,1,0-.1V69.74a.3.3,0,0,1,0-.1.18.18,0,0,1,.11-.07l.2,0H39a.74.74,0,0,1,.19,0,.18.18,0,0,1,.1.07.3.3,0,0,1,0,.1v.65a4.43,4.43,0,0,1,.39-.48,1.81,1.81,0,0,1,.35-.3,1,1,0,0,1,.32-.16,1.24,1.24,0,0,1,.33,0h.17l.18,0,.16,0,.1.06.05.06,0,.1s0,.1,0,.18A3.33,3.33,0,0,1,41.4,70.23Z"/><path class="cls-5" d="M46.49,75a.16.16,0,0,1-.06.13.52.52,0,0,1-.18.07l-.37,0-.39,0a.46.46,0,0,1-.17-.07.19.19,0,0,1,0-.13v-.42a2.39,2.39,0,0,1-.73.54,2.14,2.14,0,0,1-.92.2,2.63,2.63,0,0,1-.76-.11,1.73,1.73,0,0,1-.6-.32,1.49,1.49,0,0,1-.4-.53,1.91,1.91,0,0,1-.14-.74,1.62,1.62,0,0,1,.18-.79,1.49,1.49,0,0,1,.53-.56,2.61,2.61,0,0,1,.88-.33,6.37,6.37,0,0,1,1.23-.1h.51V71.5a1.88,1.88,0,0,0,0-.43.74.74,0,0,0-.17-.3.62.62,0,0,0-.3-.19,1.65,1.65,0,0,0-.47,0,2.21,2.21,0,0,0-.66.08,2.51,2.51,0,0,0-.51.18l-.38.18a.6.6,0,0,1-.24.08.15.15,0,0,1-.11,0,.38.38,0,0,1-.09-.12.8.8,0,0,1,0-.18,1,1,0,0,1,0-.25,1.12,1.12,0,0,1,0-.29.41.41,0,0,1,.11-.19,1.23,1.23,0,0,1,.29-.18,3.05,3.05,0,0,1,.47-.19,5,5,0,0,1,.61-.15,4.68,4.68,0,0,1,.67,0,4.1,4.1,0,0,1,1.05.12,1.66,1.66,0,0,1,.71.37,1.34,1.34,0,0,1,.41.64,2.86,2.86,0,0,1,.13.93Zm-1.44-2.24h-.57a2.74,2.74,0,0,0-.61.06,1,1,0,0,0-.4.15.66.66,0,0,0-.24.26.89.89,0,0,0-.07.34.67.67,0,0,0,.21.52.85.85,0,0,0,.57.18,1.17,1.17,0,0,0,.58-.15,2.45,2.45,0,0,0,.53-.47Z"/><path class="cls-5" d="M55.49,72.2a.58.58,0,0,1-.12.4.45.45,0,0,1-.33.13H51.86a2.23,2.23,0,0,0,.08.6,1.15,1.15,0,0,0,.26.46,1,1,0,0,0,.44.29,1.81,1.81,0,0,0,.65.1,3.43,3.43,0,0,0,.68-.05l.51-.12.35-.13a.87.87,0,0,1,.23,0,.13.13,0,0,1,.09,0,.22.22,0,0,1,.06.07l0,.15c0,.06,0,.14,0,.24a1.41,1.41,0,0,1,0,.22.78.78,0,0,1,0,.16.35.35,0,0,1,0,.11l-.06.08a.91.91,0,0,1-.21.11,3.64,3.64,0,0,1-.43.14l-.61.12a5.31,5.31,0,0,1-.72,0,3.73,3.73,0,0,1-1.22-.18,2.07,2.07,0,0,1-1.4-1.43,4.69,4.69,0,0,1,0-2.54,2.6,2.6,0,0,1,.52-.94,2.31,2.31,0,0,1,.84-.6,3.06,3.06,0,0,1,1.12-.2,2.88,2.88,0,0,1,1.12.19,1.94,1.94,0,0,1,.76.54,2,2,0,0,1,.44.81,3.31,3.31,0,0,1,.14,1Zm-1.42-.42a1.58,1.58,0,0,0-.25-1,1,1,0,0,0-.83-.35,1,1,0,0,0-.48.1,1,1,0,0,0-.35.29,1.38,1.38,0,0,0-.21.42,2.09,2.09,0,0,0-.09.52Z"/><path class="cls-5" d="M58.18,75a.15.15,0,0,1,0,.1.36.36,0,0,1-.12.08l-.23,0-.36,0-.35,0-.23,0a.23.23,0,0,1-.12-.08.15.15,0,0,1,0-.1V67.27a.21.21,0,0,1,0-.11.23.23,0,0,1,.12-.08,1,1,0,0,1,.23,0l.35,0,.36,0,.23,0a.36.36,0,0,1,.12.08.2.2,0,0,1,0,.11Z"/><path class="cls-5" d="M67.35,75a.15.15,0,0,1,0,.1.23.23,0,0,1-.12.08,1,1,0,0,1-.22,0l-.36,0-.36,0a1,1,0,0,1-.22,0,.28.28,0,0,1-.12-.08.15.15,0,0,1,0-.1V72a2.27,2.27,0,0,0-.06-.59,1.32,1.32,0,0,0-.16-.38.78.78,0,0,0-.27-.24.93.93,0,0,0-.39-.08,1,1,0,0,0-.57.2,3.38,3.38,0,0,0-.6.6V75a.15.15,0,0,1,0,.1.23.23,0,0,1-.12.08l-.23,0-.35,0-.36,0-.23,0a.36.36,0,0,1-.12-.08.15.15,0,0,1,0-.1V69.74a.17.17,0,0,1,0-.1.15.15,0,0,1,.1-.07l.2,0h.61a.64.64,0,0,1,.19,0,.15.15,0,0,1,.1.07.17.17,0,0,1,0,.1v.6a3.42,3.42,0,0,1,.88-.7,2.06,2.06,0,0,1,.93-.23,2.16,2.16,0,0,1,.9.17,1.64,1.64,0,0,1,.59.48,2,2,0,0,1,.33.71,4.38,4.38,0,0,1,.1,1Z"/><path class="cls-5" d="M73.61,72.2a.58.58,0,0,1-.12.4.45.45,0,0,1-.33.13H70a1.9,1.9,0,0,0,.08.6,1,1,0,0,0,.25.46,1,1,0,0,0,.44.29,1.81,1.81,0,0,0,.65.1,3.43,3.43,0,0,0,.68-.05L72.6,74l.35-.13a.87.87,0,0,1,.23,0s.07,0,.09,0a.22.22,0,0,1,.06.07s0,.09,0,.15a1.63,1.63,0,0,1,0,.24,1.41,1.41,0,0,1,0,.22c0,.06,0,.11,0,.16a.36.36,0,0,1,0,.11l-.06.08A.91.91,0,0,1,73,75a3.64,3.64,0,0,1-.43.14l-.6.12a5.58,5.58,0,0,1-.73,0,3.78,3.78,0,0,1-1.22-.18,2.23,2.23,0,0,1-.88-.53,2.35,2.35,0,0,1-.52-.9,4.69,4.69,0,0,1,0-2.54,2.62,2.62,0,0,1,.53-.94,2.31,2.31,0,0,1,.84-.6,3,3,0,0,1,1.11-.2,2.88,2.88,0,0,1,1.12.19,2.06,2.06,0,0,1,.77.54,2.1,2.1,0,0,1,.43.81,3.31,3.31,0,0,1,.14,1Zm-1.42-.42a1.52,1.52,0,0,0-.25-1,1,1,0,0,0-.82-.35,1.07,1.07,0,0,0-.49.1,1,1,0,0,0-.35.29,1.38,1.38,0,0,0-.21.42,1.72,1.72,0,0,0-.08.52Z"/><path class="cls-5" d="M79.53,70.1a1.1,1.1,0,0,1-.06.42c0,.09-.1.13-.16.13h-.62a.88.88,0,0,1,.19.32,1.19,1.19,0,0,1,.06.37,2.1,2.1,0,0,1-.16.82,1.58,1.58,0,0,1-.43.59,1.91,1.91,0,0,1-.69.37,2.77,2.77,0,0,1-.89.13,1.86,1.86,0,0,1-.48-.06,1.3,1.3,0,0,1-.35-.15.83.83,0,0,0-.13.18.6.6,0,0,0,0,.24.35.35,0,0,0,.15.28.8.8,0,0,0,.41.12l1.27,0a3.11,3.11,0,0,1,.8.13,1.59,1.59,0,0,1,.58.3,1.4,1.4,0,0,1,.37.47,1.61,1.61,0,0,1,.12.63,1.66,1.66,0,0,1-.17.73,1.51,1.51,0,0,1-.51.59,2.58,2.58,0,0,1-.85.4,4.28,4.28,0,0,1-1.2.15,5.2,5.2,0,0,1-1.13-.11,2.6,2.6,0,0,1-.78-.29,1.26,1.26,0,0,1-.44-.45,1.2,1.2,0,0,1-.13-.57,1.14,1.14,0,0,1,0-.37,1.36,1.36,0,0,1,.14-.33,2.34,2.34,0,0,1,.24-.31,2.21,2.21,0,0,1,.32-.28.93.93,0,0,1-.39-.37,1,1,0,0,1-.13-.5,1.33,1.33,0,0,1,.15-.63,2.24,2.24,0,0,1,.41-.52,1.75,1.75,0,0,1-.33-.49,1.85,1.85,0,0,1-.12-.71,2.1,2.1,0,0,1,.16-.82,1.83,1.83,0,0,1,.45-.61,2.09,2.09,0,0,1,.69-.38,2.65,2.65,0,0,1,.87-.13,3.48,3.48,0,0,1,.47,0l.42.08h1.66c.07,0,.12,0,.16.13A1.12,1.12,0,0,1,79.53,70.1ZM78,75.51a.47.47,0,0,0-.21-.41A1.18,1.18,0,0,0,77.2,75l-1,0-.24.21a2.08,2.08,0,0,0-.15.2.45.45,0,0,0-.07.18.55.55,0,0,0,0,.18.49.49,0,0,0,.29.45,1.91,1.91,0,0,0,.84.15,1.82,1.82,0,0,0,.56-.07.91.91,0,0,0,.37-.18.64.64,0,0,0,.2-.24A.75.75,0,0,0,78,75.51Zm-.35-4.17a.8.8,0,0,0-.89-.89.86.86,0,0,0-.38.07,1,1,0,0,0-.28.2,1,1,0,0,0-.16.29,1.41,1.41,0,0,0-.05.35.85.85,0,0,0,.23.63.88.88,0,0,0,.65.23.94.94,0,0,0,.39-.07.66.66,0,0,0,.27-.19,1,1,0,0,0,.17-.28A1.27,1.27,0,0,0,77.64,71.34Z"/><path class="cls-5" d="M85.67,72.3a4.28,4.28,0,0,1-.17,1.22,2.57,2.57,0,0,1-.54.94,2.2,2.2,0,0,1-.89.62,3.46,3.46,0,0,1-1.26.22,3.41,3.41,0,0,1-1.21-.2,2.14,2.14,0,0,1-.86-.56,2.43,2.43,0,0,1-.5-.91,4.22,4.22,0,0,1-.16-1.23,4.28,4.28,0,0,1,.17-1.22,2.57,2.57,0,0,1,.54-.94,2.46,2.46,0,0,1,.89-.62,3.95,3.95,0,0,1,2.48,0,2.07,2.07,0,0,1,.85.56,2.39,2.39,0,0,1,.5.9A4.24,4.24,0,0,1,85.67,72.3Zm-1.51.06a3.11,3.11,0,0,0-.07-.71,1.82,1.82,0,0,0-.2-.57,1.06,1.06,0,0,0-.39-.37,1.25,1.25,0,0,0-.61-.14,1.34,1.34,0,0,0-.58.12,1,1,0,0,0-.4.35,1.58,1.58,0,0,0-.24.56,3.29,3.29,0,0,0-.08.74,3.17,3.17,0,0,0,.07.71,1.82,1.82,0,0,0,.2.57,1.06,1.06,0,0,0,.39.37,1.28,1.28,0,0,0,.61.13,1.31,1.31,0,0,0,.58-.12,1.07,1.07,0,0,0,.41-.35,1.72,1.72,0,0,0,.23-.55A3.36,3.36,0,0,0,84.16,72.36Z"/><path class="cls-5" d="M90.79,74.13c0,.1,0,.19,0,.26s0,.12,0,.17,0,.08,0,.11a.27.27,0,0,1-.09.11,1.54,1.54,0,0,1-.24.17,2.4,2.4,0,0,1-.39.17,2.93,2.93,0,0,1-.47.12,3,3,0,0,1-.52.05,2.76,2.76,0,0,1-1.07-.19,2,2,0,0,1-.78-.55,2.45,2.45,0,0,1-.48-.89,4.08,4.08,0,0,1-.16-1.21,4.17,4.17,0,0,1,.2-1.35,2.66,2.66,0,0,1,.54-.95,2.38,2.38,0,0,1,.84-.56,2.93,2.93,0,0,1,1.05-.18,3.57,3.57,0,0,1,.46,0,2.58,2.58,0,0,1,.42.12,2.3,2.3,0,0,1,.35.15.89.89,0,0,1,.22.16l.09.1a.34.34,0,0,1,0,.12c0,.05,0,.1,0,.17v.25a1.73,1.73,0,0,1-.05.48c0,.09-.09.13-.16.13a.35.35,0,0,1-.21-.08l-.26-.18a1.51,1.51,0,0,0-.36-.18,1.3,1.3,0,0,0-.51-.08,1,1,0,0,0-.87.44,2.23,2.23,0,0,0-.31,1.3,3.29,3.29,0,0,0,.08.74,1.65,1.65,0,0,0,.22.54,1,1,0,0,0,.38.32,1.21,1.21,0,0,0,.52.11,1.35,1.35,0,0,0,.52-.09,2.36,2.36,0,0,0,.39-.2l.27-.2a.35.35,0,0,1,.19-.09l.09,0a.23.23,0,0,1,0,.11,1,1,0,0,1,0,.2C90.78,73.9,90.79,74,90.79,74.13Z"/><path class="cls-5" d="M93.44,68a.83.83,0,0,1-.18.62,1,1,0,0,1-.68.17,1,1,0,0,1-.67-.17.81.81,0,0,1-.17-.59.82.82,0,0,1,.18-.61,1,1,0,0,1,.68-.18,1,1,0,0,1,.66.17A.79.79,0,0,1,93.44,68Zm-.11,7a.12.12,0,0,1,0,.1.23.23,0,0,1-.12.08,1,1,0,0,1-.22,0l-.36,0-.36,0a1,1,0,0,1-.22,0,.23.23,0,0,1-.12-.08.12.12,0,0,1,0-.1V69.75a.13.13,0,0,1,0-.1.31.31,0,0,1,.12-.08l.22,0H93l.22,0a.31.31,0,0,1,.12.08.13.13,0,0,1,0,.1Z"/><path class="cls-5" d="M100.08,72.3a4,4,0,0,1-.18,1.22,2.55,2.55,0,0,1-.53.94,2.31,2.31,0,0,1-.9.62,3.74,3.74,0,0,1-2.47,0,2.11,2.11,0,0,1-.85-.56,2.32,2.32,0,0,1-.51-.91,4.22,4.22,0,0,1-.16-1.23,4,4,0,0,1,.18-1.22,2.7,2.7,0,0,1,.53-.94,2.42,2.42,0,0,1,.9-.62,3.37,3.37,0,0,1,1.25-.21,3.44,3.44,0,0,1,1.22.19,2,2,0,0,1,.85.56,2.26,2.26,0,0,1,.5.9A4.22,4.22,0,0,1,100.08,72.3Zm-1.52.06a3.84,3.84,0,0,0-.06-.71,1.61,1.61,0,0,0-.21-.57,1.06,1.06,0,0,0-.39-.37,1.22,1.22,0,0,0-.61-.14,1.26,1.26,0,0,0-.57.12,1.07,1.07,0,0,0-.41.35,1.78,1.78,0,0,0-.23.56,2.8,2.8,0,0,0-.08.74,3.92,3.92,0,0,0,.06.71,1.61,1.61,0,0,0,.21.57.93.93,0,0,0,.39.37,1.25,1.25,0,0,0,.61.13,1.34,1.34,0,0,0,.58-.12,1,1,0,0,0,.4-.35,1.52,1.52,0,0,0,.23-.55A3.36,3.36,0,0,0,98.56,72.36Z"/><path class="cls-5" d="M108.9,75a.2.2,0,0,1,0,.11.2.2,0,0,1-.1.07.45.45,0,0,1-.19,0l-.29,0-.31,0a.53.53,0,0,1-.19,0,.2.2,0,0,1-.1-.07.2.2,0,0,1,0-.11v-.58a3.3,3.3,0,0,1-.85.68,2.18,2.18,0,0,1-2,0,1.9,1.9,0,0,1-.67-.62,2.65,2.65,0,0,1-.38-.91,5,5,0,0,1-.12-1.11,4.81,4.81,0,0,1,.15-1.25,2.88,2.88,0,0,1,.44-1,2,2,0,0,1,.71-.6,2.22,2.22,0,0,1,1-.21,1.73,1.73,0,0,1,.79.18,2.74,2.74,0,0,1,.71.52V67.28a.17.17,0,0,1,0-.1.23.23,0,0,1,.12-.08,1,1,0,0,1,.22,0l.36,0,.36,0a.9.9,0,0,1,.22,0,.28.28,0,0,1,.12.08.17.17,0,0,1,0,.1Zm-1.46-3.49a3.5,3.5,0,0,0-.61-.61,1,1,0,0,0-.6-.21.84.84,0,0,0-.5.15.94.94,0,0,0-.33.38,2.15,2.15,0,0,0-.19.54,3,3,0,0,0-.06.6,4.48,4.48,0,0,0,0,.64,2.09,2.09,0,0,0,.18.55,1,1,0,0,0,.31.39.85.85,0,0,0,.51.15,1.35,1.35,0,0,0,.29,0,1.05,1.05,0,0,0,.3-.15,1.39,1.39,0,0,0,.3-.26c.11-.11.22-.24.35-.39Z"/><path class="cls-5" d="M115.21,72.2a.58.58,0,0,1-.12.4.45.45,0,0,1-.33.13h-3.18a1.9,1.9,0,0,0,.08.6,1,1,0,0,0,.25.46,1,1,0,0,0,.44.29,1.83,1.83,0,0,0,.66.1,3.56,3.56,0,0,0,.68-.05l.5-.12.36-.13a.74.74,0,0,1,.22,0s.07,0,.09,0a.22.22,0,0,1,.06.07.33.33,0,0,1,0,.15,1.63,1.63,0,0,1,0,.24,1.41,1.41,0,0,1,0,.22c0,.06,0,.11,0,.16a.36.36,0,0,1,0,.11l-.06.08a.6.6,0,0,1-.21.11,3.11,3.11,0,0,1-.43.14l-.6.12a5.58,5.58,0,0,1-.73,0,3.78,3.78,0,0,1-1.22-.18,2.13,2.13,0,0,1-.87-.53,2.24,2.24,0,0,1-.53-.9,4.46,4.46,0,0,1-.17-1.28,4.17,4.17,0,0,1,.18-1.26,2.62,2.62,0,0,1,.53-.94,2.31,2.31,0,0,1,.84-.6,3,3,0,0,1,1.11-.2,2.88,2.88,0,0,1,1.12.19,2.06,2.06,0,0,1,.77.54,2.11,2.11,0,0,1,.44.81,3.64,3.64,0,0,1,.14,1Zm-1.43-.42a1.52,1.52,0,0,0-.25-1,1,1,0,0,0-.82-.35,1.07,1.07,0,0,0-.49.1,1,1,0,0,0-.35.29,1.38,1.38,0,0,0-.21.42,2.1,2.1,0,0,0-.08.52Z"/><path class="cls-5" d="M59.54,87.42a.15.15,0,0,1-.06.13.38.38,0,0,1-.18.07l-.38,0-.38,0a.3.3,0,0,1-.17-.07.17.17,0,0,1,0-.13V87a2.39,2.39,0,0,1-.73.54,2.29,2.29,0,0,1-.92.19,2.58,2.58,0,0,1-.76-.11,1.69,1.69,0,0,1-.61-.32,1.38,1.38,0,0,1-.39-.53,1.72,1.72,0,0,1-.14-.74,1.65,1.65,0,0,1,.18-.79,1.42,1.42,0,0,1,.53-.56,2.74,2.74,0,0,1,.88-.32,6.27,6.27,0,0,1,1.22-.11h.51V84a1.37,1.37,0,0,0-.05-.43.7.7,0,0,0-.16-.31.73.73,0,0,0-.31-.18A1.53,1.53,0,0,0,57.1,83a2.71,2.71,0,0,0-.66.08l-.51.18-.37.18a.51.51,0,0,1-.24.09.21.21,0,0,1-.12,0,.24.24,0,0,1-.08-.11.87.87,0,0,1,0-.19,1.81,1.81,0,0,1,0-.25,1,1,0,0,1,0-.28.45.45,0,0,1,.11-.19,1.32,1.32,0,0,1,.29-.19,3.69,3.69,0,0,1,.48-.19,3.75,3.75,0,0,1,.6-.14,3.71,3.71,0,0,1,.67-.06,4,4,0,0,1,1.05.12,1.76,1.76,0,0,1,.72.37,1.47,1.47,0,0,1,.41.64,3.16,3.16,0,0,1,.13.93Zm-1.45-2.23h-.56a2.73,2.73,0,0,0-.61,0,1.1,1.1,0,0,0-.41.16.68.68,0,0,0-.23.25.78.78,0,0,0-.07.35.65.65,0,0,0,.21.51.83.83,0,0,0,.57.19,1.11,1.11,0,0,0,.57-.16,2.42,2.42,0,0,0,.53-.46Z"/><path class="cls-5" d="M65.71,82.55a1.07,1.07,0,0,1-.06.41c0,.09-.1.14-.16.14h-.61a.92.92,0,0,1,.18.32,1.15,1.15,0,0,1,.06.37,1.92,1.92,0,0,1-.16.81,1.7,1.7,0,0,1-.43.6,1.89,1.89,0,0,1-.69.36,2.73,2.73,0,0,1-.89.13,1.86,1.86,0,0,1-.48-.06,1.33,1.33,0,0,1-.35-.14.83.83,0,0,0-.13.18.59.59,0,0,0-.05.23.33.33,0,0,0,.15.28.8.8,0,0,0,.42.12l1.27,0a3.12,3.12,0,0,1,.79.12,1.6,1.6,0,0,1,.58.31,1.31,1.31,0,0,1,.37.47,1.66,1.66,0,0,1,0,1.35,1.61,1.61,0,0,1-.51.6,2.58,2.58,0,0,1-.85.39,4.25,4.25,0,0,1-1.19.15,5.3,5.3,0,0,1-1.14-.1,2.44,2.44,0,0,1-.78-.3,1.13,1.13,0,0,1-.43-.44,1.16,1.16,0,0,1-.14-.58,1.08,1.08,0,0,1,0-.36,1.43,1.43,0,0,1,.14-.34,2.34,2.34,0,0,1,.24-.31,2.21,2.21,0,0,1,.32-.28,1.12,1.12,0,0,1-.39-.36,1,1,0,0,1-.13-.51,1.33,1.33,0,0,1,.15-.63,2.24,2.24,0,0,1,.41-.51,1.66,1.66,0,0,1-.32-.49,1.72,1.72,0,0,1-.13-.72,2.09,2.09,0,0,1,.16-.81,1.73,1.73,0,0,1,.45-.61,1.78,1.78,0,0,1,.69-.38,2.65,2.65,0,0,1,.87-.14,3.64,3.64,0,0,1,.48,0,2.26,2.26,0,0,1,.41.09h1.66a.18.18,0,0,1,.16.12A1.15,1.15,0,0,1,65.71,82.55ZM64.17,88a.44.44,0,0,0-.21-.4,1.08,1.08,0,0,0-.58-.16l-1.05,0a1.79,1.79,0,0,0-.24.22l-.15.19a.56.56,0,0,0-.07.19.9.9,0,0,0,0,.18.48.48,0,0,0,.3.44,1.84,1.84,0,0,0,.83.15,2.23,2.23,0,0,0,.56-.06,1.28,1.28,0,0,0,.37-.18.76.76,0,0,0,.2-.25A.72.72,0,0,0,64.17,88Zm-.35-4.17A.9.9,0,0,0,62.55,83a.6.6,0,0,0-.27.2.77.77,0,0,0-.17.29,1.34,1.34,0,0,0,0,.35.85.85,0,0,0,.24.63.88.88,0,0,0,.64.23,1.13,1.13,0,0,0,.39-.07.79.79,0,0,0,.27-.2.73.73,0,0,0,.17-.28A1.27,1.27,0,0,0,63.82,83.78Z"/><path class="cls-5" d="M71.64,87.41a.19.19,0,0,1,0,.1.2.2,0,0,1-.1.07.49.49,0,0,1-.19,0l-.3,0-.32,0a.49.49,0,0,1-.19,0,.26.26,0,0,1-.1-.07.19.19,0,0,1,0-.1V86.8a3.08,3.08,0,0,1-.88.7,1.91,1.91,0,0,1-.92.24,2.08,2.08,0,0,1-.91-.18,1.46,1.46,0,0,1-.59-.48,1.8,1.8,0,0,1-.32-.7,4.06,4.06,0,0,1-.1-1v-3.2a.19.19,0,0,1,0-.1.27.27,0,0,1,.12-.07A1,1,0,0,1,67,82h.71L68,82a.35.35,0,0,1,.12.07.19.19,0,0,1,0,.1v2.95a3.17,3.17,0,0,0,.05.63,1.15,1.15,0,0,0,.16.37.71.71,0,0,0,.28.24.8.8,0,0,0,.39.09.93.93,0,0,0,.56-.21,3,3,0,0,0,.61-.59V82.18a.19.19,0,0,1,0-.1.22.22,0,0,1,.12-.07,1,1,0,0,1,.22-.05h.72a.9.9,0,0,1,.22.05.27.27,0,0,1,.12.07.19.19,0,0,1,0,.1Z"/><path class="cls-5" d="M77.57,87.42a.15.15,0,0,1-.06.13.38.38,0,0,1-.18.07l-.37,0-.39,0a.34.34,0,0,1-.17-.07.17.17,0,0,1,0-.13V87a2.43,2.43,0,0,1-.74.54,2.26,2.26,0,0,1-.92.19,2.63,2.63,0,0,1-.76-.11,1.73,1.73,0,0,1-.6-.32,1.52,1.52,0,0,1-.4-.53A1.88,1.88,0,0,1,72.8,86a1.65,1.65,0,0,1,.18-.79,1.49,1.49,0,0,1,.53-.56,2.84,2.84,0,0,1,.88-.32,6.31,6.31,0,0,1,1.23-.11h.51V84a1.75,1.75,0,0,0,0-.43.71.71,0,0,0-.17-.31.69.69,0,0,0-.3-.18,1.63,1.63,0,0,0-.47-.06,2.59,2.59,0,0,0-.66.08c-.19.06-.37.12-.51.18l-.37.18a.54.54,0,0,1-.25.09.16.16,0,0,1-.11,0,.19.19,0,0,1-.08-.11.53.53,0,0,1,0-.19,1,1,0,0,1,0-.25,1,1,0,0,1,0-.28.37.37,0,0,1,.11-.19,1,1,0,0,1,.29-.19,2.82,2.82,0,0,1,.48-.19,3.31,3.31,0,0,1,.6-.14,3.63,3.63,0,0,1,.67-.06,4,4,0,0,1,1,.12,1.66,1.66,0,0,1,.71.37,1.39,1.39,0,0,1,.41.64,2.86,2.86,0,0,1,.13.93Zm-1.44-2.23h-.56a2.68,2.68,0,0,0-.61,0,1,1,0,0,0-.41.16.55.55,0,0,0-.23.25.78.78,0,0,0-.08.35.65.65,0,0,0,.21.51.86.86,0,0,0,.58.19,1.17,1.17,0,0,0,.57-.16,2.67,2.67,0,0,0,.53-.46Z"/><path class="cls-5" d="M82.72,85.93a1.73,1.73,0,0,1-.17.78,1.53,1.53,0,0,1-.47.57,2,2,0,0,1-.72.34,3.26,3.26,0,0,1-.9.12,4.92,4.92,0,0,1-.56,0,2.8,2.8,0,0,1-.48-.12,2.65,2.65,0,0,1-.35-.13.69.69,0,0,1-.2-.14.31.31,0,0,1-.1-.19,1.33,1.33,0,0,1,0-.39,2.1,2.1,0,0,1,0-.27.53.53,0,0,1,0-.16.15.15,0,0,1,.06-.09l.08,0a.41.41,0,0,1,.19.08l.32.16a3,3,0,0,0,.43.16,2,2,0,0,0,.57.08,1.78,1.78,0,0,0,.35,0,.85.85,0,0,0,.27-.12.47.47,0,0,0,.18-.19.76.76,0,0,0,0-.27.44.44,0,0,0-.1-.3.93.93,0,0,0-.29-.22,3.15,3.15,0,0,0-.41-.18L80,85.17a4,4,0,0,1-.46-.23,1.72,1.72,0,0,1-.4-.31,1.44,1.44,0,0,1-.29-.46,1.65,1.65,0,0,1-.11-.63,1.58,1.58,0,0,1,.15-.69,1.52,1.52,0,0,1,.42-.53A2,2,0,0,1,80,82a3,3,0,0,1,.89-.12,2.42,2.42,0,0,1,.47,0,3.51,3.51,0,0,1,.42.08l.32.12.18.1a.22.22,0,0,1,.08.09.36.36,0,0,1,0,.11,1,1,0,0,0,0,.15V83a1.57,1.57,0,0,1,0,.16s0,.07-.06.08l-.08,0a.35.35,0,0,1-.16-.06,2.51,2.51,0,0,0-.28-.13c-.11,0-.24-.09-.39-.14a1.85,1.85,0,0,0-.5-.06,1.59,1.59,0,0,0-.34,0,.67.67,0,0,0-.24.12.52.52,0,0,0-.15.18.54.54,0,0,0,0,.22.44.44,0,0,0,.11.3,1,1,0,0,0,.29.22l.41.18.47.17a4.09,4.09,0,0,1,.47.23,1.62,1.62,0,0,1,.41.32,1.55,1.55,0,0,1,.3.44A1.67,1.67,0,0,1,82.72,85.93Z"/><path class="cls-5" d="M85.56,86.76a1.07,1.07,0,0,1-.19.73,1.34,1.34,0,0,1-1.36,0,1,1,0,0,1-.19-.7,1,1,0,0,1,.19-.74,1,1,0,0,1,.69-.19.93.93,0,0,1,.67.19A1,1,0,0,1,85.56,86.76Z"/></g></g></svg>