<svg xmlns="http://www.w3.org/2000/svg" viewBox="0 0 162.42 185.97"><defs><style>.cls-1{opacity:0.3;}.cls-2{fill:#fff;}.cls-3{fill:#96999c;}.cls-4{fill:#231f20;}.cls-5{stroke:#000;stroke-miterlimit:10;stroke-width:0.1px;}</style></defs><g id="Capa_2" data-name="Capa 2"><g id="Capa_1-2" data-name="Capa 1"><path class="cls-1" d="M157.78,116c-6.64-34.08-.28-75.46-1.3-88.47S150.14,10,132.31,9.7,47,5,33.29,13.8c0,0-17.14,7.14-9.1,42.71,5.87,26,9,48.33,9.52,68.06-.1,1.39-1.73,19.26-19.34,21.06,0,0,15.18,2.91,17.81,15-.95,16,.69,26.09,18.38,25.26,22.82-1.07,76.07-1.95,90.76-1.59C167.56,185,164.42,150.1,157.78,116Z"/><path class="cls-2" d="M150.89,108.71c-6.63-34.08-.28-75.45-1.29-88.46S143.25,2.65,125.42,2.4s-85.3-4.65-99,4.1c0,0-17.14,7.14-9.1,42.71,5.88,26,9,48.33,9.52,68.06-.1,1.4-1.73,19.26-19.34,21.06,0,0,15.19,2.91,17.81,15-.95,16,.69,26.1,18.38,25.27,22.82-1.08,76.07-1.95,90.76-1.6C160.68,177.66,157.53,142.8,150.89,108.71Z"/><path class="cls-3" d="M26.82,117.27a27.39,27.39,0,0,1-1.43,6.53,27.38,27.38,0,0,0,4.45-12.57c-.57-19.72-3.64-42-9.52-68.05-3.32-14.72-2.33-24.56,0-31-4,5.74-7.57,16.77-3,37.08C23.18,75.21,26.25,97.54,26.82,117.27Z"/><path class="cls-3" d="M137.45,171c-14.69-.36-67.94.52-90.76,1.59-17.69.83-19.33-9.25-18.38-25.26C26.9,140.8,21.85,137,17.48,134.78a20.85,20.85,0,0,1-10,3.55s15.19,2.91,17.81,15c-.95,16,.69,26.1,18.38,25.27,22.82-1.08,76.07-1.95,90.76-1.6,10.14.25,15.88-4.82,18.74-13.08C149.86,168.56,144.81,171.17,137.45,171Z"/><path class="cls-4" d="M40.81,179.74c-5-.11-8.82-1.25-11.54-3.44-5.29-4.25-6-11.9-5.32-22.87-2.51-11.19-16.63-14-16.77-14.05L0,138l7.32-.74c16.38-1.67,18-18.18,18.17-20-.57-19.85-3.68-42.06-9.5-67.8-7.85-34.77,8-43,9.68-43.82,11-6.85,50.49-6,86.7-4.68,5.38.2,10,.37,13.07.41,18,.29,24.41,5,25.48,18.86.33,4.12-.07,10.91-.58,19.5-1.13,19.21-2.68,45.53,1.87,68.87,5,25.85,8.57,53.76-3.36,64.76-3.6,3.33-8.47,4.94-14.45,4.8h-.07c-14.35-.34-67.16.49-90.58,1.59C42.73,179.75,41.75,179.77,40.81,179.74ZM12.07,138.57c5,1.89,12.7,6.12,14.53,14.61l0,.11v.13c-.62,10.43-.08,17.64,4.52,21.35,2.66,2.14,6.73,3,12.45,2.78,23.47-1.11,76.42-1.94,90.81-1.6h.08c5.22.12,9.27-1.21,12.37-4.07,11.27-10.39,7.38-39.12,2.73-63h0c-4.59-23.55-3-50-1.9-69.3.5-8.53.9-15.26.59-19.26-1-12.83-6.13-16.6-22.87-16.84-3.09,0-7.75-.21-13.15-.41-25.88-.95-74.06-2.72-85,4.28L27,7.46c-.15.07-16.12,7.4-8.4,41.56,5.84,25.86,9,48.17,9.54,68.22C28,119.21,26.47,134.51,12.07,138.57Z"/><path class="cls-5" d="M43.37,53a1.74,1.74,0,0,1,0-.43.53.53,0,0,1,.14-.29.58.58,0,0,1,.28-.15,1.87,1.87,0,0,1,.86,0,.58.58,0,0,1,.28.15.53.53,0,0,1,.14.29,1.69,1.69,0,0,1,0,.43,1.87,1.87,0,0,1,0,.45.53.53,0,0,1-.14.29.52.52,0,0,1-.28.16,1.87,1.87,0,0,1-.86,0,.52.52,0,0,1-.28-.16.53.53,0,0,1-.14-.29A1.92,1.92,0,0,1,43.37,53Zm.19,1.86a.36.36,0,0,1,0-.11.35.35,0,0,1,.11-.09.9.9,0,0,1,.22-.05l.33,0,.34,0a.81.81,0,0,1,.21.05.35.35,0,0,1,.11.09.36.36,0,0,1,0,.11l.16,5.77a.23.23,0,0,1,0,.14.29.29,0,0,1-.13.11.9.9,0,0,1-.27.06l-.42,0a2.42,2.42,0,0,1-.42,0,.77.77,0,0,1-.26-.06.32.32,0,0,1-.14-.1.23.23,0,0,1,0-.14Z"/><path class="cls-5" d="M52.38,57.28a2.58,2.58,0,0,1-.24,1.14,2.36,2.36,0,0,1-.66.81,2.72,2.72,0,0,1-1,.49,4.1,4.1,0,0,1-1.18.17,3.87,3.87,0,0,1-.79-.07,4.35,4.35,0,0,1-.65-.17,2.5,2.5,0,0,1-.46-.21.94.94,0,0,1-.27-.19.39.39,0,0,1-.12-.23,2.64,2.64,0,0,1,0-.45,3.22,3.22,0,0,1,0-.33,1.09,1.09,0,0,1,0-.22.25.25,0,0,1,.08-.12.18.18,0,0,1,.11,0,.46.46,0,0,1,.25.11l.41.23a4.15,4.15,0,0,0,.61.23,2.85,2.85,0,0,0,.81.1,1.84,1.84,0,0,0,.55-.07,1.22,1.22,0,0,0,.41-.21.93.93,0,0,0,.26-.33,1,1,0,0,0,.09-.43.71.71,0,0,0-.16-.48,1.35,1.35,0,0,0-.39-.36,4.86,4.86,0,0,0-.56-.29l-.64-.29a5.71,5.71,0,0,1-.64-.35,2.75,2.75,0,0,1-.56-.46,2.15,2.15,0,0,1-.39-.64,2.3,2.3,0,0,1-.16-.88,2.45,2.45,0,0,1,.22-1A2.27,2.27,0,0,1,48,52a2.51,2.51,0,0,1,.88-.44,3.74,3.74,0,0,1,1.07-.15,3.79,3.79,0,0,1,.58,0,4.07,4.07,0,0,1,.55.12,3.28,3.28,0,0,1,.45.17,1,1,0,0,1,.26.16l.09.11a.81.81,0,0,1,0,.11s0,.11,0,.19v.27a2.73,2.73,0,0,1,0,.31.58.58,0,0,1,0,.21.17.17,0,0,1-.06.12.15.15,0,0,1-.11,0,.57.57,0,0,1-.23-.09L51.09,53a4.23,4.23,0,0,0-.51-.19,2.2,2.2,0,0,0-.64-.09,1.62,1.62,0,0,0-.48.07,1,1,0,0,0-.34.19.63.63,0,0,0-.2.28.81.81,0,0,0-.07.35A.75.75,0,0,0,49,54a1.57,1.57,0,0,0,.4.36,4.31,4.31,0,0,0,.57.29c.21.09.42.18.64.29a5.75,5.75,0,0,1,.65.34,2.8,2.8,0,0,1,.57.46,2.57,2.57,0,0,1,.4.64A2.24,2.24,0,0,1,52.38,57.28Z"/><path class="cls-5" d="M55.16,59.53a.15.15,0,0,1,0,.11.26.26,0,0,1-.13.08l-.24.05H54l-.24-.05a.26.26,0,0,1-.13-.08.15.15,0,0,1,0-.11V53.86a.17.17,0,0,1,0-.11.36.36,0,0,1,.13-.08,1.19,1.19,0,0,1,.24,0l.39,0,.39,0a1.19,1.19,0,0,1,.24,0,.36.36,0,0,1,.13.08.17.17,0,0,1,0,.11Zm-.61-8.45.11-.12a.48.48,0,0,1,.16-.08l.24,0h.35a2.69,2.69,0,0,1,.46,0,.49.49,0,0,1,.24.07s.08.07.07.11a.19.19,0,0,1-.06.13l-1.23,1.48-.1.1a.46.46,0,0,1-.14.07l-.19,0h-.31l-.35,0a.31.31,0,0,1-.18-.06.09.09,0,0,1,0-.11.24.24,0,0,1,.06-.14Z"/><path class="cls-5" d="M59.2,58.91a1.89,1.89,0,0,1,0,.44.57.57,0,0,1-.14.28.56.56,0,0,1-.28.16,1.75,1.75,0,0,1-.43.05,1.78,1.78,0,0,1-.44-.05.53.53,0,0,1-.27-.16.58.58,0,0,1-.15-.28,2.65,2.65,0,0,1,0-.44,2.68,2.68,0,0,1,0-.45.67.67,0,0,1,.15-.29.61.61,0,0,1,.27-.16,1.83,1.83,0,0,1,.44,0,1.8,1.8,0,0,1,.43,0,.64.64,0,0,1,.28.16.66.66,0,0,1,.14.29A1.92,1.92,0,0,1,59.2,58.91ZM59,57.05a.56.56,0,0,1,0,.12.24.24,0,0,1-.11.08l-.22.06H58l-.21-.06a.24.24,0,0,1-.11-.08.28.28,0,0,1,0-.12l-.16-5.76a.33.33,0,0,1,0-.15.26.26,0,0,1,.14-.1.77.77,0,0,1,.27-.06,4.42,4.42,0,0,1,.84,0A1.26,1.26,0,0,1,59,51a.27.27,0,0,1,.14.11.21.21,0,0,1,0,.14Z"/><path class="cls-5" d="M69.65,54a3.37,3.37,0,0,1-.22,1.23,2.37,2.37,0,0,1-.63.9,2.66,2.66,0,0,1-1,.55,4.58,4.58,0,0,1-1.41.19h-.69v2.62a.17.17,0,0,1,0,.12.3.3,0,0,1-.14.08,1.09,1.09,0,0,1-.25,0l-.41,0-.4,0a1.33,1.33,0,0,1-.26,0,.32.32,0,0,1-.13-.08.25.25,0,0,1,0-.12V52.13a.58.58,0,0,1,.16-.45.56.56,0,0,1,.41-.15h1.93l.56,0c.17,0,.38.05.63.1a2.35,2.35,0,0,1,.75.27,2.22,2.22,0,0,1,.64.49,2.28,2.28,0,0,1,.41.71A2.83,2.83,0,0,1,69.65,54Zm-1.75.12a1.52,1.52,0,0,0-.15-.71,1.08,1.08,0,0,0-.38-.41,1.28,1.28,0,0,0-.46-.17,4.24,4.24,0,0,0-.51,0h-.71V55.6h.75a1.86,1.86,0,0,0,.67-.1,1.2,1.2,0,0,0,.44-.31,1.15,1.15,0,0,0,.26-.46A1.83,1.83,0,0,0,67.9,54.14Z"/><path class="cls-5" d="M76.36,56.64A4.25,4.25,0,0,1,76.17,58a2.82,2.82,0,0,1-.58,1,2.57,2.57,0,0,1-1,.66,3.55,3.55,0,0,1-1.36.24,3.77,3.77,0,0,1-1.32-.21,2.29,2.29,0,0,1-.92-.61,2.48,2.48,0,0,1-.55-1,4.57,4.57,0,0,1-.18-1.34,4.25,4.25,0,0,1,.2-1.32,2.82,2.82,0,0,1,.58-1,2.57,2.57,0,0,1,1-.66,3.52,3.52,0,0,1,1.36-.24,3.81,3.81,0,0,1,1.32.21,2.29,2.29,0,0,1,.92.61,2.39,2.39,0,0,1,.54,1A4.57,4.57,0,0,1,76.36,56.64Zm-1.64.06a3.74,3.74,0,0,0-.07-.77,1.84,1.84,0,0,0-.22-.61,1.21,1.21,0,0,0-.43-.41,1.29,1.29,0,0,0-.66-.14,1.35,1.35,0,0,0-.62.13,1,1,0,0,0-.44.38,1.94,1.94,0,0,0-.26.6,3.8,3.8,0,0,0-.08.8,3.67,3.67,0,0,0,.07.77,1.89,1.89,0,0,0,.22.62,1.24,1.24,0,0,0,.42.4,1.46,1.46,0,0,0,.66.14,1.34,1.34,0,0,0,.63-.13,1,1,0,0,0,.44-.38,1.51,1.51,0,0,0,.25-.59A3.35,3.35,0,0,0,74.72,56.7Z"/><path class="cls-5" d="M83,59.53a.15.15,0,0,1,0,.11.16.16,0,0,1-.1.08.81.81,0,0,1-.21.05H82l-.21-.05a.19.19,0,0,1-.11-.08.21.21,0,0,1,0-.11V58.9a3.56,3.56,0,0,1-.91.73,2.26,2.26,0,0,1-1.07.26,2.17,2.17,0,0,1-1.09-.25,2.07,2.07,0,0,1-.73-.68,2.76,2.76,0,0,1-.41-1,5.19,5.19,0,0,1-.13-1.2,5.7,5.7,0,0,1,.16-1.36,3,3,0,0,1,.48-1,2,2,0,0,1,.77-.66,2.44,2.44,0,0,1,1.07-.23,1.88,1.88,0,0,1,.86.2,3.2,3.2,0,0,1,.77.56V51.2a.27.27,0,0,1,0-.12.32.32,0,0,1,.13-.08l.25-.06h.77l.24.06a.32.32,0,0,1,.13.08.28.28,0,0,1,0,.12Zm-1.59-3.79a4.09,4.09,0,0,0-.66-.66,1.12,1.12,0,0,0-.65-.23,1,1,0,0,0-.54.16,1.06,1.06,0,0,0-.36.42A2.33,2.33,0,0,0,79,56a3.49,3.49,0,0,0-.06.65,5.36,5.36,0,0,0,0,.7,2.22,2.22,0,0,0,.19.6,1.19,1.19,0,0,0,.35.42.91.91,0,0,0,.54.16,1.13,1.13,0,0,0,.32,0,1,1,0,0,0,.32-.16,2,2,0,0,0,.34-.28l.37-.43Z"/><path class="cls-5" d="M89.83,56.53a.58.58,0,0,1-.13.43.43.43,0,0,1-.36.14H85.9a2.71,2.71,0,0,0,.08.66,1.23,1.23,0,0,0,.28.5,1.08,1.08,0,0,0,.48.31,1.89,1.89,0,0,0,.71.11,3.91,3.91,0,0,0,.73-.06,4.5,4.5,0,0,0,.55-.13l.39-.13a.69.69,0,0,1,.24-.06.16.16,0,0,1,.1,0,.18.18,0,0,1,.06.08.53.53,0,0,1,0,.16c0,.07,0,.16,0,.26s0,.17,0,.24a.79.79,0,0,1,0,.17.56.56,0,0,1,0,.12.47.47,0,0,1-.06.09.88.88,0,0,1-.23.12,3.78,3.78,0,0,1-.47.15,5.06,5.06,0,0,1-.65.12,5,5,0,0,1-.79.06A4.08,4.08,0,0,1,86,59.7a2.34,2.34,0,0,1-1-.58,2.27,2.27,0,0,1-.57-1,4.91,4.91,0,0,1,0-2.74,2.78,2.78,0,0,1,.57-1,2.35,2.35,0,0,1,.91-.64,3.11,3.11,0,0,1,1.21-.23,3.21,3.21,0,0,1,1.22.21,2.16,2.16,0,0,1,1.3,1.46,3.92,3.92,0,0,1,.15,1.11Zm-1.55-.46A1.53,1.53,0,0,0,88,55a1,1,0,0,0-.89-.39,1.12,1.12,0,0,0-.53.12,1,1,0,0,0-.37.31,1.28,1.28,0,0,0-.23.45,2.52,2.52,0,0,0-.09.56Z"/><path class="cls-5" d="M100.15,59.53a.2.2,0,0,1,0,.11.32.32,0,0,1-.13.08l-.24.05H99l-.25-.05a.23.23,0,0,1-.12-.08.15.15,0,0,1,0-.11V56.17a2.78,2.78,0,0,0,0-.52,1.12,1.12,0,0,0-.17-.4.73.73,0,0,0-.28-.27.82.82,0,0,0-.4-.09,1,1,0,0,0-.58.23,3.83,3.83,0,0,0-.63.64v3.77a.15.15,0,0,1,0,.11.32.32,0,0,1-.13.08l-.24.05h-.77L95,59.72a.32.32,0,0,1-.13-.08.21.21,0,0,1,0-.11V56.17a2.14,2.14,0,0,0,0-.52,1.34,1.34,0,0,0-.16-.4.8.8,0,0,0-.28-.27.84.84,0,0,0-.4-.09,1,1,0,0,0-.59.23,3.47,3.47,0,0,0-.62.64v3.77a.21.21,0,0,1,0,.11.32.32,0,0,1-.13.08l-.25.05h-.77l-.24-.05a.22.22,0,0,1-.13-.08.15.15,0,0,1,0-.11V53.86a.23.23,0,0,1,0-.11.35.35,0,0,1,.11-.08l.22,0,.32,0,.34,0a.87.87,0,0,1,.21,0,.44.44,0,0,1,.1.08.23.23,0,0,1,0,.11v.66a3.87,3.87,0,0,1,.94-.76,2,2,0,0,1,1-.26,2.35,2.35,0,0,1,.63.08,1.4,1.4,0,0,1,.5.21,1.7,1.7,0,0,1,.38.32,2.05,2.05,0,0,1,.26.43,5.3,5.3,0,0,1,.5-.47,3.63,3.63,0,0,1,.48-.32,1.92,1.92,0,0,1,.48-.19,2,2,0,0,1,.49-.06,2.26,2.26,0,0,1,1,.19,1.66,1.66,0,0,1,.62.52,1.93,1.93,0,0,1,.34.77,3.93,3.93,0,0,1,.1.92Z"/><path class="cls-5" d="M107.45,56.64a4.57,4.57,0,0,1-.19,1.32,2.82,2.82,0,0,1-.58,1,2.57,2.57,0,0,1-1,.66,3.61,3.61,0,0,1-1.37.24,3.71,3.71,0,0,1-1.31-.21,2.39,2.39,0,0,1-.93-.61,2.46,2.46,0,0,1-.54-1,4.57,4.57,0,0,1-.18-1.34,4.25,4.25,0,0,1,.19-1.32,3,3,0,0,1,.58-1,2.57,2.57,0,0,1,1-.66,3.55,3.55,0,0,1,1.36-.24,3.73,3.73,0,0,1,1.32.21,2.32,2.32,0,0,1,.93.61,2.51,2.51,0,0,1,.54,1A4.57,4.57,0,0,1,107.45,56.64Zm-1.65.06a4.63,4.63,0,0,0-.06-.77,1.84,1.84,0,0,0-.23-.61,1.18,1.18,0,0,0-.42-.41,1.34,1.34,0,0,0-.66-.14,1.39,1.39,0,0,0-.63.13,1,1,0,0,0-.43.38,1.73,1.73,0,0,0-.26.6,3.2,3.2,0,0,0-.09.8,4.49,4.49,0,0,0,.07.77,1.9,1.9,0,0,0,.23.62,1.08,1.08,0,0,0,.42.4,1.46,1.46,0,0,0,.66.14,1.39,1.39,0,0,0,.63-.13,1.07,1.07,0,0,0,.44-.38,1.67,1.67,0,0,0,.25-.59A3.37,3.37,0,0,0,105.8,56.7Z"/><path class="cls-5" d="M112.7,57.93a1.93,1.93,0,0,1-.18.85,1.67,1.67,0,0,1-.51.61,2.36,2.36,0,0,1-.78.38,3.87,3.87,0,0,1-1,.12,4,4,0,0,1-.61,0,3.62,3.62,0,0,1-.52-.12l-.38-.15a1.21,1.21,0,0,1-.22-.14.52.52,0,0,1-.11-.21,2.12,2.12,0,0,1,0-.42,2.23,2.23,0,0,1,0-.3.8.8,0,0,1,0-.18.15.15,0,0,1,.06-.09l.09,0a.51.51,0,0,1,.21.08c.09.06.21.11.34.18a3.61,3.61,0,0,0,.47.17,2,2,0,0,0,.62.09,1.46,1.46,0,0,0,.38,0,1.1,1.1,0,0,0,.29-.12.63.63,0,0,0,.19-.21.73.73,0,0,0,.06-.3.52.52,0,0,0-.11-.32,1.16,1.16,0,0,0-.32-.24,2.91,2.91,0,0,0-.43-.19l-.5-.2a3.44,3.44,0,0,1-.51-.25,1.58,1.58,0,0,1-.43-.34,1.54,1.54,0,0,1-.32-.49,2,2,0,0,1-.11-.68,1.71,1.71,0,0,1,.16-.75A1.57,1.57,0,0,1,109,54a2.18,2.18,0,0,1,.73-.37,3.22,3.22,0,0,1,1-.14,4.38,4.38,0,0,1,.52,0,3.83,3.83,0,0,1,.45.1,2,2,0,0,1,.35.12l.2.11.08.1a.36.36,0,0,1,0,.11.79.79,0,0,1,0,.17,1.7,1.7,0,0,1,0,.24,2.18,2.18,0,0,1,0,.28.65.65,0,0,1,0,.17.16.16,0,0,1-.06.09l-.09,0A.38.38,0,0,1,112,55l-.3-.14a3,3,0,0,0-.42-.14,1.81,1.81,0,0,0-.54-.07,1.46,1.46,0,0,0-.38,0,.73.73,0,0,0-.25.12.62.62,0,0,0-.16.2.6.6,0,0,0,0,.24.48.48,0,0,0,.12.33,1.39,1.39,0,0,0,.32.23,3.21,3.21,0,0,0,.45.19c.16.06.33.12.5.2a3,3,0,0,1,.51.24,1.9,1.9,0,0,1,.45.34,1.66,1.66,0,0,1,.32.49A1.71,1.71,0,0,1,112.7,57.93Z"/><path class="cls-5" d="M122.05,53.86a.2.2,0,0,1,0,.07.34.34,0,0,1,0,.1.69.69,0,0,1,0,.13s0,.1,0,.16l-1.71,5.12a.54.54,0,0,1-.08.17.4.4,0,0,1-.18.11,1.94,1.94,0,0,1-.33.05h-1.11a1.8,1.8,0,0,1-.33-.06.39.39,0,0,1-.18-.1.67.67,0,0,1-.08-.17l-1.7-5.12a1.58,1.58,0,0,1-.06-.23.64.64,0,0,1,0-.15v-.08a.2.2,0,0,1,0-.11.32.32,0,0,1,.13-.08,1,1,0,0,1,.24-.05H117l.42,0a1.18,1.18,0,0,1,.25,0,.32.32,0,0,1,.13.08.52.52,0,0,1,.06.13L119.12,58l0,.16,0-.16,1.27-4.16a.31.31,0,0,1,.06-.13.32.32,0,0,1,.13-.08,1.19,1.19,0,0,1,.24,0l.39,0h.38a.89.89,0,0,1,.23.05.23.23,0,0,1,.12.08A.2.2,0,0,1,122.05,53.86Z"/><path class="cls-5" d="M128.1,56.53A.63.63,0,0,1,128,57a.45.45,0,0,1-.36.14h-3.45a2.29,2.29,0,0,0,.09.66,1.11,1.11,0,0,0,.27.5,1.14,1.14,0,0,0,.48.31,1.89,1.89,0,0,0,.71.11,4.1,4.1,0,0,0,.74-.06,5,5,0,0,0,.55-.13l.38-.13a.69.69,0,0,1,.25-.06s.07,0,.09,0,0,0,.07.08a1.57,1.57,0,0,1,0,.16,2,2,0,0,1,0,.26,1.7,1.7,0,0,1,0,.24.79.79,0,0,1,0,.17.53.53,0,0,1,0,.12l-.07.09a.73.73,0,0,1-.23.12,3.3,3.3,0,0,1-.47.15,4.75,4.75,0,0,1-.65.12,4.88,4.88,0,0,1-.79.06,4.08,4.08,0,0,1-1.32-.19,2.34,2.34,0,0,1-.95-.58,2.49,2.49,0,0,1-.57-1,4.71,4.71,0,0,1-.18-1.38,4.43,4.43,0,0,1,.19-1.36,2.78,2.78,0,0,1,.57-1,2.43,2.43,0,0,1,.91-.64,3.46,3.46,0,0,1,2.43,0,2.29,2.29,0,0,1,.83.58,2.4,2.4,0,0,1,.47.88,3.59,3.59,0,0,1,.16,1.11Zm-1.55-.46a1.64,1.64,0,0,0-.27-1,1,1,0,0,0-.89-.39,1.09,1.09,0,0,0-.53.12,1,1,0,0,0-.38.31,1.47,1.47,0,0,0-.23.45,2.52,2.52,0,0,0-.09.56Z"/><path class="cls-5" d="M133.05,54.39c0,.15,0,.28,0,.38s0,.17,0,.22a.22.22,0,0,1-.07.12.17.17,0,0,1-.1,0l-.12,0-.14,0-.18,0-.2,0a.66.66,0,0,0-.27.06,1.17,1.17,0,0,0-.28.16,3,3,0,0,0-.3.31A4.58,4.58,0,0,0,131,56v3.53a.15.15,0,0,1,0,.11.26.26,0,0,1-.13.08l-.24.05h-.78l-.24-.05a.26.26,0,0,1-.13-.08.15.15,0,0,1,0-.11V53.86a.23.23,0,0,1,0-.11.31.31,0,0,1,.12-.08.87.87,0,0,1,.21,0l.33,0,.33,0a.87.87,0,0,1,.21,0,.29.29,0,0,1,.1.08.17.17,0,0,1,0,.11v.71a3,3,0,0,1,.42-.52,2.15,2.15,0,0,1,.37-.33,1.25,1.25,0,0,1,.35-.17,1.49,1.49,0,0,1,.36,0h.18l.19,0,.18.06a.17.17,0,0,1,.11.06.12.12,0,0,1,.05.07.62.62,0,0,1,0,.1.88.88,0,0,1,0,.2C133.05,54.12,133.05,54.24,133.05,54.39Z"/><path class="cls-5" d="M53.72,74a.21.21,0,0,1,0,.12.24.24,0,0,1-.11.08.88.88,0,0,1-.2,0h-.65a.87.87,0,0,1-.21,0,.24.24,0,0,1-.11-.08.16.16,0,0,1,0-.12v-.63a3.6,3.6,0,0,1-.92.73,2.22,2.22,0,0,1-1.06.26,2.14,2.14,0,0,1-1.09-.25,2,2,0,0,1-.73-.68,2.76,2.76,0,0,1-.41-1,5.19,5.19,0,0,1-.13-1.2,5.1,5.1,0,0,1,.16-1.35,3,3,0,0,1,.48-1,2,2,0,0,1,.77-.66A2.39,2.39,0,0,1,50.5,68a1.92,1.92,0,0,1,.87.19,3.18,3.18,0,0,1,.77.57V65.64a.2.2,0,0,1,0-.11.25.25,0,0,1,.13-.09,1.11,1.11,0,0,1,.24,0,3.81,3.81,0,0,1,.78,0,1.11,1.11,0,0,1,.24,0,.25.25,0,0,1,.13.09.2.2,0,0,1,0,.11Zm-1.58-3.78a3.41,3.41,0,0,0-.66-.66,1.06,1.06,0,0,0-.66-.23.94.94,0,0,0-.53.15,1.37,1.37,0,0,0-.37.42,2.47,2.47,0,0,0-.2.58,3.52,3.52,0,0,0-.06.66,4,4,0,0,0,.05.69,2.22,2.22,0,0,0,.19.6,1.19,1.19,0,0,0,.35.42.85.85,0,0,0,.54.16,1.13,1.13,0,0,0,.32,0,1.3,1.3,0,0,0,.32-.15,2.14,2.14,0,0,0,.33-.29c.12-.11.24-.26.38-.42Z"/><path class="cls-5" d="M60.56,71a.63.63,0,0,1-.13.44.48.48,0,0,1-.36.13H56.62a2.24,2.24,0,0,0,.09.66,1.26,1.26,0,0,0,.27.5,1.23,1.23,0,0,0,.48.32,2.16,2.16,0,0,0,.71.11,4,4,0,0,0,.74-.06l.55-.14.38-.13a.74.74,0,0,1,.25-.06l.1,0a.28.28,0,0,1,.06.08.35.35,0,0,1,0,.16,2.1,2.1,0,0,1,0,.27v.23c0,.07,0,.12,0,.17a.34.34,0,0,1,0,.12l-.07.09a.64.64,0,0,1-.22.12,4.42,4.42,0,0,1-.47.15c-.19,0-.41.09-.66.13a6.26,6.26,0,0,1-.78,0,4.1,4.1,0,0,1-1.33-.19,2.41,2.41,0,0,1-1-.58,2.32,2.32,0,0,1-.56-1A4.49,4.49,0,0,1,55,71.2a4.14,4.14,0,0,1,.2-1.36,2.86,2.86,0,0,1,.57-1,2.46,2.46,0,0,1,.91-.64,3.51,3.51,0,0,1,2.42,0,2.08,2.08,0,0,1,.83.58,2.21,2.21,0,0,1,.48.88,3.8,3.8,0,0,1,.15,1.1ZM59,70.52a1.69,1.69,0,0,0-.27-1.06,1,1,0,0,0-.89-.38,1.12,1.12,0,0,0-.53.11,1.15,1.15,0,0,0-.38.31,1.31,1.31,0,0,0-.22.46,2,2,0,0,0-.1.56Z"/><path class="cls-5" d="M70.18,76.22a.2.2,0,0,1,0,.11.48.48,0,0,1-.13.09,1.11,1.11,0,0,1-.24,0l-.39,0-.39,0a1.11,1.11,0,0,1-.24,0,.48.48,0,0,1-.13-.09.2.2,0,0,1,0-.11V73.53a4.43,4.43,0,0,1-.45.36,2.39,2.39,0,0,1-.43.25,1.76,1.76,0,0,1-.44.15,2.63,2.63,0,0,1-.49,0,2.1,2.1,0,0,1-1.06-.25A2,2,0,0,1,65,73.4a2.94,2.94,0,0,1-.4-1,5.19,5.19,0,0,1-.13-1.2,5.1,5.1,0,0,1,.16-1.35,3,3,0,0,1,.49-1,2.15,2.15,0,0,1,.78-.66A2.41,2.41,0,0,1,67,68a2.15,2.15,0,0,1,.45,0,1.92,1.92,0,0,1,.43.17,2.93,2.93,0,0,1,.45.3c.15.13.33.28.51.46v-.61a.15.15,0,0,1,0-.11.24.24,0,0,1,.11-.08.81.81,0,0,1,.21-.05l.33,0,.32,0a.83.83,0,0,1,.2.05.24.24,0,0,1,.11.08.2.2,0,0,1,0,.11Zm-1.58-6a3.41,3.41,0,0,0-.66-.66,1.06,1.06,0,0,0-.66-.23.94.94,0,0,0-.53.15,1.37,1.37,0,0,0-.37.42,2.47,2.47,0,0,0-.2.58,3.52,3.52,0,0,0-.06.66,3.94,3.94,0,0,0,0,.69,2,2,0,0,0,.19.6,1.11,1.11,0,0,0,.35.42.85.85,0,0,0,.54.16,1.13,1.13,0,0,0,.32,0,1.3,1.3,0,0,0,.32-.15,2.14,2.14,0,0,0,.33-.29c.12-.11.24-.26.38-.42Z"/><path class="cls-5" d="M77.16,74a.2.2,0,0,1,0,.11.24.24,0,0,1-.11.08l-.21,0h-.67a.72.72,0,0,1-.2,0,.2.2,0,0,1-.11-.08.21.21,0,0,1,0-.11v-.65a3.77,3.77,0,0,1-1,.76,2.13,2.13,0,0,1-1,.25,2.23,2.23,0,0,1-1-.19,1.73,1.73,0,0,1-.64-.52,2.12,2.12,0,0,1-.35-.76,4.76,4.76,0,0,1-.1-1.09V68.31a.2.2,0,0,1,0-.11.32.32,0,0,1,.13-.08,1.09,1.09,0,0,1,.25-.05l.38,0,.39,0a1.11,1.11,0,0,1,.24.05.22.22,0,0,1,.13.08.15.15,0,0,1,0,.11v3.2a3,3,0,0,0,.06.68,1.21,1.21,0,0,0,.17.4.83.83,0,0,0,.3.26.93.93,0,0,0,.42.09,1,1,0,0,0,.62-.22,3.6,3.6,0,0,0,.65-.65V68.31a.15.15,0,0,1,0-.11.22.22,0,0,1,.13-.08,1.11,1.11,0,0,1,.24-.05l.39,0,.38,0a1.09,1.09,0,0,1,.25.05.28.28,0,0,1,.12.08.15.15,0,0,1,0,.11Z"/><path class="cls-5" d="M84,71a.68.68,0,0,1-.13.44.48.48,0,0,1-.36.13H80.06a2.24,2.24,0,0,0,.09.66,1.06,1.06,0,0,0,.27.5,1.16,1.16,0,0,0,.48.32,2.12,2.12,0,0,0,.71.11,4.1,4.1,0,0,0,.74-.06l.55-.14.38-.13a.69.69,0,0,1,.25-.06l.09,0a.19.19,0,0,1,.07.08,1.57,1.57,0,0,1,0,.16,2.1,2.1,0,0,1,0,.27,1.55,1.55,0,0,1,0,.23c0,.07,0,.12,0,.17a.83.83,0,0,1,0,.12l-.07.09a.73.73,0,0,1-.23.12,3.56,3.56,0,0,1-.46.15c-.2,0-.41.09-.66.13a6.43,6.43,0,0,1-.79,0,4.08,4.08,0,0,1-1.32-.19,2.41,2.41,0,0,1-1-.58,2.45,2.45,0,0,1-.57-1,4.83,4.83,0,0,1-.18-1.39,4.43,4.43,0,0,1,.19-1.36,2.88,2.88,0,0,1,.58-1,2.38,2.38,0,0,1,.91-.64,3.06,3.06,0,0,1,1.2-.22,3.17,3.17,0,0,1,1.22.21,2.08,2.08,0,0,1,.83.58,2.33,2.33,0,0,1,.47.88,3.48,3.48,0,0,1,.16,1.1Zm-1.55-.45a1.69,1.69,0,0,0-.27-1.06,1,1,0,0,0-.89-.38,1.09,1.09,0,0,0-.53.11,1.15,1.15,0,0,0-.38.31,1.53,1.53,0,0,0-.23.46,2.43,2.43,0,0,0-.09.56Zm-.9-5a.43.43,0,0,1,.11-.12.4.4,0,0,1,.16-.08.75.75,0,0,1,.24,0l.36,0a2.86,2.86,0,0,1,.46,0,.77.77,0,0,1,.24.07.1.1,0,0,1,.06.11.22.22,0,0,1-.06.14l-1.23,1.47-.1.1-.13.07a.88.88,0,0,1-.2,0h-.31l-.35,0a.31.31,0,0,1-.18-.06.1.1,0,0,1,0-.1.29.29,0,0,1,.07-.15Z"/><path class="cls-5" d="M92.24,72.37a1.9,1.9,0,0,1-.18.85,1.63,1.63,0,0,1-.52.62,2.35,2.35,0,0,1-.78.37,3.74,3.74,0,0,1-1,.12,3,3,0,0,1-.61,0,3.62,3.62,0,0,1-.52-.12,3,3,0,0,1-.38-.15.84.84,0,0,1-.22-.14.41.41,0,0,1-.11-.21,2,2,0,0,1,0-.42,2.36,2.36,0,0,1,0-.3c0-.07,0-.13,0-.17s0-.08.07-.09a.13.13,0,0,1,.09,0,.4.4,0,0,1,.21.08l.34.17.47.18a2.33,2.33,0,0,0,.62.08,1.48,1.48,0,0,0,.38,0,1.11,1.11,0,0,0,.29-.13.63.63,0,0,0,.19-.21.68.68,0,0,0,.06-.29.48.48,0,0,0-.12-.33,1,1,0,0,0-.31-.24,3.46,3.46,0,0,0-.43-.19l-.51-.2c-.17-.07-.33-.15-.5-.24a2.12,2.12,0,0,1-.44-.35,1.66,1.66,0,0,1-.31-.48,2,2,0,0,1-.11-.69,1.71,1.71,0,0,1,.16-.75,1.57,1.57,0,0,1,.45-.58,2.18,2.18,0,0,1,.73-.37,3.14,3.14,0,0,1,1-.13,4.41,4.41,0,0,1,.52,0,4.35,4.35,0,0,1,.45.1l.34.12.2.12a.38.38,0,0,1,.09.09.34.34,0,0,1,0,.12s0,.1,0,.16a1.85,1.85,0,0,1,0,.25,2.35,2.35,0,0,1,0,.28c0,.07,0,.12,0,.17a.18.18,0,0,1-.06.08.15.15,0,0,1-.09,0,.46.46,0,0,1-.18-.06,2.15,2.15,0,0,0-.3-.14,2.89,2.89,0,0,0-.42-.15,2.23,2.23,0,0,0-.54-.06,1.43,1.43,0,0,0-.38,0,.61.61,0,0,0-.41.32.6.6,0,0,0,0,.24.48.48,0,0,0,.12.33,1,1,0,0,0,.32.23,3.21,3.21,0,0,0,.45.19l.5.2a4.74,4.74,0,0,1,.51.24,2.22,2.22,0,0,1,.45.34,1.66,1.66,0,0,1,.32.49A1.71,1.71,0,0,1,92.24,72.37Z"/><path class="cls-5" d="M98.67,71a.68.68,0,0,1-.13.44.48.48,0,0,1-.36.13H94.73a2.24,2.24,0,0,0,.09.66,1.06,1.06,0,0,0,.27.5,1.16,1.16,0,0,0,.48.32,2.12,2.12,0,0,0,.71.11,4.1,4.1,0,0,0,.74-.06l.55-.14L98,72.8a.69.69,0,0,1,.25-.06l.09,0a.19.19,0,0,1,.07.08,1.57,1.57,0,0,1,0,.16,2.1,2.1,0,0,1,0,.27,1.55,1.55,0,0,1,0,.23.79.79,0,0,1,0,.17.35.35,0,0,1,0,.12l-.07.09A.73.73,0,0,1,98,74a3.56,3.56,0,0,1-.46.15c-.2,0-.41.09-.66.13a6.43,6.43,0,0,1-.79,0,4.08,4.08,0,0,1-1.32-.19,2.41,2.41,0,0,1-1-.58,2.45,2.45,0,0,1-.57-1,4.83,4.83,0,0,1-.18-1.39,4.43,4.43,0,0,1,.19-1.36,2.86,2.86,0,0,1,.57-1,2.5,2.5,0,0,1,.92-.64A3.06,3.06,0,0,1,96,68a3.17,3.17,0,0,1,1.22.21,2.08,2.08,0,0,1,.83.58,2.33,2.33,0,0,1,.47.88,3.48,3.48,0,0,1,.16,1.1Zm-1.55-.45a1.69,1.69,0,0,0-.27-1.06,1,1,0,0,0-.89-.38,1.09,1.09,0,0,0-.53.11,1.15,1.15,0,0,0-.38.31,1.53,1.53,0,0,0-.23.46,2.43,2.43,0,0,0-.09.56Z"/><path class="cls-5" d="M106.27,73.41a2.31,2.31,0,0,1,0,.43.72.72,0,0,1-.09.21.83.83,0,0,1-.17.11,1.6,1.6,0,0,1-.26.08l-.33.05a2,2,0,0,1-.35,0,2.49,2.49,0,0,1-.82-.12,1.29,1.29,0,0,1-.58-.37,1.59,1.59,0,0,1-.34-.63,3.41,3.41,0,0,1-.11-.9v-2.9h-.68q-.12,0-.18-.15a1.49,1.49,0,0,1-.06-.5,2.82,2.82,0,0,1,0-.31.72.72,0,0,1,0-.2.24.24,0,0,1,.08-.11.2.2,0,0,1,.11,0h.67V66.83a.28.28,0,0,1,0-.12.22.22,0,0,1,.13-.08,1.11,1.11,0,0,1,.24,0l.39,0,.39,0a1.11,1.11,0,0,1,.24,0,.32.32,0,0,1,.13.08.28.28,0,0,1,0,.12v1.26H106a.2.2,0,0,1,.11,0,.24.24,0,0,1,.08.11.72.72,0,0,1,.05.2,2.82,2.82,0,0,1,0,.31,1.49,1.49,0,0,1-.06.5q-.06.15-.18.15h-1.24v2.66a1.37,1.37,0,0,0,.14.69.56.56,0,0,0,.52.23.82.82,0,0,0,.23,0l.18,0,.14-.05a.16.16,0,0,1,.09,0,.12.12,0,0,1,.08,0,.13.13,0,0,1,0,.09,1.27,1.27,0,0,1,0,.18A2.44,2.44,0,0,1,106.27,73.41Z"/><path class="cls-5" d="M111.07,68.83a3.63,3.63,0,0,1,0,.38,1.07,1.07,0,0,1,0,.23.23.23,0,0,1-.06.11.2.2,0,0,1-.11,0,.23.23,0,0,1-.11,0l-.14,0-.18,0a.68.68,0,0,0-.48,0,.92.92,0,0,0-.27.17,1.41,1.41,0,0,0-.3.3c-.1.13-.21.28-.33.47V74a.21.21,0,0,1,0,.11.32.32,0,0,1-.13.08,1.09,1.09,0,0,1-.25,0h-.77a1.11,1.11,0,0,1-.24,0,.22.22,0,0,1-.13-.08.15.15,0,0,1,0-.11V68.31a.2.2,0,0,1,0-.11.24.24,0,0,1,.11-.08,1,1,0,0,1,.22-.05l.32,0,.34,0a.81.81,0,0,1,.21.05.21.21,0,0,1,.1.08.2.2,0,0,1,0,.11V69a5.22,5.22,0,0,1,.42-.52,2.18,2.18,0,0,1,.38-.33,1.26,1.26,0,0,1,.35-.17,1.47,1.47,0,0,1,.36,0h.17a.69.69,0,0,1,.2,0l.18.05.11.06a.18.18,0,0,1,.05.07.62.62,0,0,1,0,.1s0,.11,0,.2S111.07,68.68,111.07,68.83Z"/><path class="cls-5" d="M116.59,74a.16.16,0,0,1-.07.14.42.42,0,0,1-.2.07,2.13,2.13,0,0,1-.4,0,2.31,2.31,0,0,1-.42,0,.38.38,0,0,1-.18-.07.17.17,0,0,1,0-.14v-.45a2.64,2.64,0,0,1-.8.58,2.31,2.31,0,0,1-1,.21,2.73,2.73,0,0,1-.83-.12,1.88,1.88,0,0,1-.66-.34,1.63,1.63,0,0,1-.42-.58,1.81,1.81,0,0,1-.16-.8,1.79,1.79,0,0,1,.2-.86,1.63,1.63,0,0,1,.57-.6,2.78,2.78,0,0,1,1-.35,6.49,6.49,0,0,1,1.33-.12H115v-.34a1.63,1.63,0,0,0-.06-.47.74.74,0,0,0-.17-.33.73.73,0,0,0-.33-.2,1.88,1.88,0,0,0-.51-.06,2.63,2.63,0,0,0-.72.09,4.37,4.37,0,0,0-.55.19l-.41.2a.54.54,0,0,1-.26.09.21.21,0,0,1-.12,0,.3.3,0,0,1-.09-.13.89.89,0,0,1-.06-.21,2,2,0,0,1,0-.26,1.17,1.17,0,0,1,0-.31.45.45,0,0,1,.12-.21,1.1,1.1,0,0,1,.31-.2,3.74,3.74,0,0,1,.52-.21,5.21,5.21,0,0,1,.65-.15,4.32,4.32,0,0,1,.73-.06,4.26,4.26,0,0,1,1.14.13,1.82,1.82,0,0,1,.77.4,1.57,1.57,0,0,1,.45.69,3.33,3.33,0,0,1,.14,1ZM115,71.56h-.61a3.1,3.1,0,0,0-.66.06,1.57,1.57,0,0,0-.45.17.83.83,0,0,0-.25.28.87.87,0,0,0-.08.37.72.72,0,0,0,.23.56.93.93,0,0,0,.63.2,1.17,1.17,0,0,0,.61-.17,2.54,2.54,0,0,0,.58-.5Z"/><path class="cls-5" d="M121.41,73.41a2.31,2.31,0,0,1,0,.43.51.51,0,0,1-.1.21.55.55,0,0,1-.16.11,1.6,1.6,0,0,1-.26.08l-.33.05a2,2,0,0,1-.35,0,2.59,2.59,0,0,1-.83-.12,1.31,1.31,0,0,1-.57-.37,1.48,1.48,0,0,1-.34-.63,3.41,3.41,0,0,1-.11-.9v-2.9h-.68q-.12,0-.18-.15a1.49,1.49,0,0,1-.06-.5,2.82,2.82,0,0,1,0-.31.72.72,0,0,1,0-.2.24.24,0,0,1,.08-.11.2.2,0,0,1,.11,0h.67V66.83a.19.19,0,0,1,0-.12.23.23,0,0,1,.12-.08l.25,0,.39,0,.39,0a1.11,1.11,0,0,1,.24,0,.32.32,0,0,1,.13.08.28.28,0,0,1,0,.12v1.26h1.23a.2.2,0,0,1,.11,0,.24.24,0,0,1,.08.11,1.43,1.43,0,0,1,.05.2,2.82,2.82,0,0,1,0,.31,1.49,1.49,0,0,1-.06.5.21.21,0,0,1-.19.15h-1.23v2.66a1.27,1.27,0,0,0,.14.69.56.56,0,0,0,.52.23.82.82,0,0,0,.23,0l.18,0,.13-.05a.2.2,0,0,1,.1,0,.12.12,0,0,1,.08,0,.13.13,0,0,1,0,.09s0,.1,0,.18A2.44,2.44,0,0,1,121.41,73.41Z"/><path class="cls-5" d="M127.26,74a.18.18,0,0,1-.06.14.42.42,0,0,1-.2.07,2.19,2.19,0,0,1-.4,0,2.31,2.31,0,0,1-.42,0,.3.3,0,0,1-.18-.07.18.18,0,0,1-.06-.14v-.45a2.49,2.49,0,0,1-.79.58,2.33,2.33,0,0,1-1,.21,2.66,2.66,0,0,1-.82-.12,1.8,1.8,0,0,1-.66-.34,1.66,1.66,0,0,1-.43-.58,2,2,0,0,1-.15-.8,1.91,1.91,0,0,1,.19-.86,1.66,1.66,0,0,1,.58-.6,2.78,2.78,0,0,1,1-.35,6.46,6.46,0,0,1,1.32-.12h.56v-.34a1.63,1.63,0,0,0-.06-.47.67.67,0,0,0-.18-.33.68.68,0,0,0-.33-.2,1.78,1.78,0,0,0-.51-.06,2.6,2.6,0,0,0-.71.09,4.56,4.56,0,0,0-.56.19l-.4.2a.61.61,0,0,1-.26.09.28.28,0,0,1-.13,0,.73.73,0,0,1-.09-.13.93.93,0,0,1,0-.21,2,2,0,0,1,0-.26,1.24,1.24,0,0,1,0-.31.45.45,0,0,1,.12-.21,1.28,1.28,0,0,1,.31-.2,3.9,3.9,0,0,1,.53-.21A4.82,4.82,0,0,1,124,68a4.76,4.76,0,0,1,1.86.07,1.8,1.8,0,0,1,.78.4,1.55,1.55,0,0,1,.44.69,3,3,0,0,1,.14,1Zm-1.56-2.43h-.61a3.1,3.1,0,0,0-.66.06,1.46,1.46,0,0,0-.45.17.74.74,0,0,0-.25.28.87.87,0,0,0-.08.37.72.72,0,0,0,.23.56.92.92,0,0,0,.62.2,1.2,1.2,0,0,0,.62-.17,2.54,2.54,0,0,0,.58-.5Z"/><path class="cls-5" d="M43.88,82.91a3.09,3.09,0,0,1-.22,1.22A2.23,2.23,0,0,1,43,85a2.67,2.67,0,0,1-1,.56,4.58,4.58,0,0,1-1.41.19h-.69V88.4a.15.15,0,0,1,0,.11.22.22,0,0,1-.13.09,1.33,1.33,0,0,1-.26.05l-.4,0-.41,0a1.22,1.22,0,0,1-.25-.05.24.24,0,0,1-.14-.09.21.21,0,0,1,0-.11V81a.61.61,0,0,1,.16-.45.55.55,0,0,1,.41-.14h1.94a5,5,0,0,1,.55,0,4.32,4.32,0,0,1,.63.09,2.83,2.83,0,0,1,.75.27,2.26,2.26,0,0,1,.64.5,2.05,2.05,0,0,1,.41.7A2.9,2.9,0,0,1,43.88,82.91ZM42.13,83a1.49,1.49,0,0,0-.15-.71,1.07,1.07,0,0,0-.37-.41,1.22,1.22,0,0,0-.47-.17,4.06,4.06,0,0,0-.51,0h-.71v2.79h.75a1.84,1.84,0,0,0,.67-.11,1.08,1.08,0,0,0,.44-.3,1.23,1.23,0,0,0,.26-.46A1.87,1.87,0,0,0,42.13,83Z"/><path class="cls-5" d="M50.59,85.52a4.27,4.27,0,0,1-.19,1.33,2.75,2.75,0,0,1-.57,1,2.63,2.63,0,0,1-1,.67,3.56,3.56,0,0,1-1.36.23,3.72,3.72,0,0,1-1.31-.2,2.36,2.36,0,0,1-.93-.61,2.52,2.52,0,0,1-.55-1,4.52,4.52,0,0,1-.17-1.33,4.25,4.25,0,0,1,.19-1.32,2.74,2.74,0,0,1,.58-1,2.59,2.59,0,0,1,1-.67,4.19,4.19,0,0,1,2.68,0,2.27,2.27,0,0,1,.92.6,2.52,2.52,0,0,1,.55,1A4.83,4.83,0,0,1,50.59,85.52ZM49,85.59a3.67,3.67,0,0,0-.07-.77,1.89,1.89,0,0,0-.22-.62,1.24,1.24,0,0,0-.42-.4,1.36,1.36,0,0,0-.67-.15,1.49,1.49,0,0,0-.62.13,1.24,1.24,0,0,0-.44.38,2,2,0,0,0-.26.61,3.8,3.8,0,0,0-.08.8,3.67,3.67,0,0,0,.07.77,2,2,0,0,0,.22.61,1.13,1.13,0,0,0,.43.41,1.61,1.61,0,0,0,1.29,0,1.12,1.12,0,0,0,.43-.38,1.65,1.65,0,0,0,.26-.6A3.8,3.8,0,0,0,49,85.59Z"/><path class="cls-5" d="M60.5,82.74a1.49,1.49,0,0,1,0,.17c0,.07,0,.16-.07.29L58.9,88.32a.61.61,0,0,1-.08.18.37.37,0,0,1-.16.1.78.78,0,0,1-.3.05l-.5,0-.51,0A1.82,1.82,0,0,1,57,88.6a.33.33,0,0,1-.16-.11.54.54,0,0,1-.08-.17l-.95-3.44v0L55,88.32a.61.61,0,0,1-.07.18.35.35,0,0,1-.17.1.8.8,0,0,1-.31.05l-.5,0-.52,0a1.68,1.68,0,0,1-.3-.05.33.33,0,0,1-.16-.11.38.38,0,0,1-.08-.17l-1.5-5.12c0-.12-.06-.22-.07-.29a1.16,1.16,0,0,1,0-.17.2.2,0,0,1,0-.11.26.26,0,0,1,.13-.08,1.18,1.18,0,0,1,.25,0h.8a1.07,1.07,0,0,1,.24,0c.06,0,.11,0,.13.09a.5.5,0,0,1,0,.13L54,86.93v0l1.06-4.16a.31.31,0,0,1,.06-.13s.06-.06.12-.09a1,1,0,0,1,.23,0h.77l.23,0a.22.22,0,0,1,.12.07.54.54,0,0,1,0,.11l1.13,4.19,0,.07v-.07l1.08-4.16a.5.5,0,0,1,0-.13.33.33,0,0,1,.13-.09,1.19,1.19,0,0,1,.24,0h.77l.24,0a.28.28,0,0,1,.12.08A.2.2,0,0,1,60.5,82.74Z"/><path class="cls-5" d="M66.65,85.42a.65.65,0,0,1-.13.43.49.49,0,0,1-.36.14H62.71a2.29,2.29,0,0,0,.09.66,1.28,1.28,0,0,0,.27.5,1.33,1.33,0,0,0,.48.31,2.16,2.16,0,0,0,.71.11,4,4,0,0,0,.74-.06,4.86,4.86,0,0,0,.55-.14,3.3,3.3,0,0,0,.38-.13.69.69,0,0,1,.25-.06l.09,0a.27.27,0,0,1,.07.08.58.58,0,0,1,0,.17,1.86,1.86,0,0,1,0,.26,1.77,1.77,0,0,1,0,.24c0,.06,0,.12,0,.16a.83.83,0,0,1,0,.12l-.07.09a.77.77,0,0,1-.22.12,2.17,2.17,0,0,1-.47.15,4.82,4.82,0,0,1-.66.13,4.87,4.87,0,0,1-.78,0,4.1,4.1,0,0,1-1.33-.19,2.28,2.28,0,0,1-.95-.57,2.56,2.56,0,0,1-.57-1,4.76,4.76,0,0,1-.18-1.38,4.49,4.49,0,0,1,.19-1.37,3,3,0,0,1,.58-1,2.3,2.3,0,0,1,.91-.65,3.06,3.06,0,0,1,1.2-.22,3.17,3.17,0,0,1,1.22.21,2.18,2.18,0,0,1,.83.58,2.58,2.58,0,0,1,.48.88,3.9,3.9,0,0,1,.15,1.1ZM65.1,85a1.69,1.69,0,0,0-.27-1.06,1.05,1.05,0,0,0-.89-.38,1.22,1.22,0,0,0-.53.11,1.15,1.15,0,0,0-.38.31,1.53,1.53,0,0,0-.23.46,2.43,2.43,0,0,0-.09.56Z"/><path class="cls-5" d="M71.6,83.28c0,.15,0,.28,0,.37a1,1,0,0,1,0,.23.27.27,0,0,1-.07.12.17.17,0,0,1-.1,0,.27.27,0,0,1-.12,0l-.14,0-.17,0a.75.75,0,0,0-.21,0,.86.86,0,0,0-.27,0,1.23,1.23,0,0,0-.28.17,4.22,4.22,0,0,0-.3.3c-.1.13-.21.29-.33.47v3.53a.14.14,0,0,1,0,.11s-.06.06-.13.08a1.11,1.11,0,0,1-.24.05l-.39,0-.39,0a1.11,1.11,0,0,1-.24-.05.24.24,0,0,1-.13-.08.14.14,0,0,1,0-.11V82.75a.2.2,0,0,1,0-.11.23.23,0,0,1,.12-.08.81.81,0,0,1,.21,0H69a.81.81,0,0,1,.21,0,.21.21,0,0,1,.1.08.15.15,0,0,1,0,.11v.71a3.06,3.06,0,0,1,.42-.53,2.67,2.67,0,0,1,.37-.33,1.14,1.14,0,0,1,.36-.16,1.34,1.34,0,0,1,.35,0H71l.2,0,.17,0,.11.06a.15.15,0,0,1,.05.07.18.18,0,0,1,0,.11.88.88,0,0,1,0,.2A3.55,3.55,0,0,1,71.6,83.28Z"/><path class="cls-5" d="M84.53,88.41a.14.14,0,0,1,0,.11.21.21,0,0,1-.12.08,1.22,1.22,0,0,1-.25.05l-.38,0-.4,0a1.11,1.11,0,0,1-.24-.05.24.24,0,0,1-.13-.08.18.18,0,0,1,0-.11V85.06a2.15,2.15,0,0,0-.06-.53,1.2,1.2,0,0,0-.16-.4.86.86,0,0,0-.28-.26.84.84,0,0,0-.4-.09.92.92,0,0,0-.58.22,4,4,0,0,0-.64.65v3.76a.18.18,0,0,1,0,.11.24.24,0,0,1-.14.08,1.11,1.11,0,0,1-.24.05l-.38,0-.39,0a1.11,1.11,0,0,1-.24-.05c-.06,0-.11,0-.13-.08a.14.14,0,0,1,0-.11V85.06a2.81,2.81,0,0,0,0-.53,1.21,1.21,0,0,0-.17-.4.7.7,0,0,0-.28-.26.82.82,0,0,0-.4-.09,1,1,0,0,0-.58.22,4.39,4.39,0,0,0-.63.65v3.76a.14.14,0,0,1,0,.11s-.06.06-.13.08a1.11,1.11,0,0,1-.24.05l-.39,0-.38,0a1.09,1.09,0,0,1-.25-.05.24.24,0,0,1-.13-.08.18.18,0,0,1,0-.11V82.75a.2.2,0,0,1,0-.11.28.28,0,0,1,.12-.08.81.81,0,0,1,.21,0h.66a.81.81,0,0,1,.21,0,.31.31,0,0,1,.11.08.2.2,0,0,1,0,.11v.65a3.89,3.89,0,0,1,.93-.76,2,2,0,0,1,1-.25,2.48,2.48,0,0,1,.63.07,1.81,1.81,0,0,1,.49.21,1.35,1.35,0,0,1,.38.33,1.88,1.88,0,0,1,.27.42,5.39,5.39,0,0,1,.5-.47,3.34,3.34,0,0,1,.48-.32,2.34,2.34,0,0,1,.48-.18,1.91,1.91,0,0,1,.48-.06,2.06,2.06,0,0,1,.95.19,1.7,1.7,0,0,1,.63.52,2,2,0,0,1,.34.76,4,4,0,0,1,.1.93Z"/><path class="cls-5" d="M91.82,85.52a4.27,4.27,0,0,1-.19,1.33,2.77,2.77,0,0,1-.58,1,2.52,2.52,0,0,1-1,.67,3.56,3.56,0,0,1-1.36.23,3.78,3.78,0,0,1-1.32-.2,2.39,2.39,0,0,1-.92-.61,2.52,2.52,0,0,1-.55-1,4.51,4.51,0,0,1-.18-1.33,4.25,4.25,0,0,1,.2-1.32,2.74,2.74,0,0,1,.58-1,2.59,2.59,0,0,1,1-.67,4.19,4.19,0,0,1,2.68,0,2.27,2.27,0,0,1,.92.6,2.5,2.5,0,0,1,.54,1A4.46,4.46,0,0,1,91.82,85.52Zm-1.64.07a3.67,3.67,0,0,0-.07-.77,1.89,1.89,0,0,0-.22-.62,1.18,1.18,0,0,0-.43-.4,1.29,1.29,0,0,0-.66-.15,1.49,1.49,0,0,0-.62.13,1.24,1.24,0,0,0-.44.38,2,2,0,0,0-.26.61,3.8,3.8,0,0,0-.08.8,3.67,3.67,0,0,0,.07.77,1.76,1.76,0,0,0,.22.61,1.13,1.13,0,0,0,.43.41,1.4,1.4,0,0,0,.66.14,1.32,1.32,0,0,0,.62-.13,1.08,1.08,0,0,0,.44-.38,1.65,1.65,0,0,0,.26-.6A3.8,3.8,0,0,0,90.18,85.59Z"/><path class="cls-5" d="M98.5,88.41a.18.18,0,0,1,0,.11.24.24,0,0,1-.13.08,1.11,1.11,0,0,1-.24.05l-.39,0-.39,0a1.11,1.11,0,0,1-.24-.05c-.06,0-.11,0-.13-.08a.14.14,0,0,1,0-.11V85.18a2.81,2.81,0,0,0-.06-.65,1.46,1.46,0,0,0-.17-.4.83.83,0,0,0-.3-.26.93.93,0,0,0-.42-.09,1.07,1.07,0,0,0-.62.22,3.59,3.59,0,0,0-.64.65v3.76a.18.18,0,0,1,0,.11.24.24,0,0,1-.13.08,1.22,1.22,0,0,1-.25.05l-.38,0-.39,0a1.37,1.37,0,0,1-.25-.05.24.24,0,0,1-.13-.08.18.18,0,0,1,0-.11V82.75a.2.2,0,0,1,0-.11.24.24,0,0,1,.11-.08,1,1,0,0,1,.22,0h.66a.81.81,0,0,1,.21,0,.27.27,0,0,1,.1.08.2.2,0,0,1,0,.11v.65a3.64,3.64,0,0,1,1-.76,2.13,2.13,0,0,1,1-.25,2.18,2.18,0,0,1,1,.19,1.76,1.76,0,0,1,.65.52,2,2,0,0,1,.35.76,4.54,4.54,0,0,1,.11,1.06Z"/><path class="cls-5" d="M101.78,80.83a.89.89,0,0,1-.19.67,1.11,1.11,0,0,1-.73.18,1.08,1.08,0,0,1-.73-.17.86.86,0,0,1-.19-.64.89.89,0,0,1,.2-.67,1,1,0,0,1,.73-.19,1.06,1.06,0,0,1,.72.18A.84.84,0,0,1,101.78,80.83Zm-.12,7.58a.14.14,0,0,1,0,.11.18.18,0,0,1-.12.08,1.37,1.37,0,0,1-.25.05l-.39,0-.38,0a1.09,1.09,0,0,1-.25-.05.24.24,0,0,1-.13-.08.18.18,0,0,1,0-.11V82.76a.21.21,0,0,1,0-.11.32.32,0,0,1,.13-.08,1.09,1.09,0,0,1,.25,0,2.12,2.12,0,0,1,.38,0,2.18,2.18,0,0,1,.39,0l.25,0a.23.23,0,0,1,.12.08.15.15,0,0,1,0,.11Z"/><path class="cls-5" d="M106.61,87.85a1.6,1.6,0,0,1,0,.43.41.41,0,0,1-.09.21.45.45,0,0,1-.17.11,1.34,1.34,0,0,1-.26.08,2.61,2.61,0,0,1-.32.06l-.35,0a2.55,2.55,0,0,1-.83-.12,1.54,1.54,0,0,1-.58-.38,1.46,1.46,0,0,1-.33-.63,3.35,3.35,0,0,1-.11-.9v-2.9h-.68q-.12,0-.18-.15a1.2,1.2,0,0,1-.07-.5,2.69,2.69,0,0,1,0-.31.83.83,0,0,1,0-.2.16.16,0,0,1,.08-.1.18.18,0,0,1,.11,0h.67V81.27a.2.2,0,0,1,0-.11.33.33,0,0,1,.13-.09l.25,0h.77a1.09,1.09,0,0,1,.25,0c.06,0,.1.05.12.09a.15.15,0,0,1,0,.11v1.27h1.23a.24.24,0,0,1,.12,0,.2.2,0,0,1,.07.1.53.53,0,0,1,0,.2,2.69,2.69,0,0,1,0,.31,1.2,1.2,0,0,1-.07.5q-.06.15-.18.15h-1.24v2.66a1.26,1.26,0,0,0,.15.69.56.56,0,0,0,.52.24.85.85,0,0,0,.23,0l.18,0,.13,0,.1,0,.07,0a.2.2,0,0,1,.06.09l0,.18A2.33,2.33,0,0,1,106.61,87.85Z"/><path class="cls-5" d="M113.36,85.52a4.27,4.27,0,0,1-.19,1.33,2.77,2.77,0,0,1-.58,1,2.59,2.59,0,0,1-1,.67,3.56,3.56,0,0,1-1.36.23,3.78,3.78,0,0,1-1.32-.2A2.39,2.39,0,0,1,108,88a2.52,2.52,0,0,1-.55-1,4.51,4.51,0,0,1-.18-1.33,4.25,4.25,0,0,1,.2-1.32,2.74,2.74,0,0,1,.58-1,2.59,2.59,0,0,1,1-.67,3.72,3.72,0,0,1,1.36-.23,3.81,3.81,0,0,1,1.32.21,2.27,2.27,0,0,1,.92.6,2.5,2.5,0,0,1,.54,1A4.46,4.46,0,0,1,113.36,85.52Zm-1.64.07a3.67,3.67,0,0,0-.07-.77,1.89,1.89,0,0,0-.22-.62,1.18,1.18,0,0,0-.43-.4,1.29,1.29,0,0,0-.66-.15,1.49,1.49,0,0,0-.62.13,1.16,1.16,0,0,0-.44.38,2,2,0,0,0-.26.61,3.8,3.8,0,0,0-.08.8,3.67,3.67,0,0,0,.07.77,1.76,1.76,0,0,0,.22.61,1.18,1.18,0,0,0,.42.41,1.46,1.46,0,0,0,.66.14,1.34,1.34,0,0,0,.63-.13,1.08,1.08,0,0,0,.44-.38,1.49,1.49,0,0,0,.25-.6A3.2,3.2,0,0,0,111.72,85.59Z"/><path class="cls-5" d="M118.26,83.28c0,.15,0,.28,0,.37a1,1,0,0,1,0,.23.27.27,0,0,1-.06.12.2.2,0,0,1-.11,0l-.11,0-.15,0-.17,0a.68.68,0,0,0-.21,0,.86.86,0,0,0-.27,0,1,1,0,0,0-.27.17,2.12,2.12,0,0,0-.3.3,5.33,5.33,0,0,0-.33.47v3.53a.18.18,0,0,1,0,.11.24.24,0,0,1-.13.08,1.22,1.22,0,0,1-.25.05l-.38,0-.39,0a1.37,1.37,0,0,1-.25-.05.24.24,0,0,1-.13-.08.18.18,0,0,1,0-.11V82.75a.2.2,0,0,1,0-.11.24.24,0,0,1,.11-.08l.21,0h.67a.64.64,0,0,1,.2,0,.24.24,0,0,1,.11.08.2.2,0,0,1,0,.11v.71a4.46,4.46,0,0,1,.42-.53,3.4,3.4,0,0,1,.37-.33,1.14,1.14,0,0,1,.36-.16,1.49,1.49,0,0,1,.36,0h.17l.2,0,.18,0,.11.06,0,.07a.81.81,0,0,1,0,.11s0,.11,0,.2Z"/><path class="cls-5" d="M121,80.83a.89.89,0,0,1-.2.67,1.61,1.61,0,0,1-1.46,0,.91.91,0,0,1-.18-.64.89.89,0,0,1,.19-.67,1,1,0,0,1,.73-.19,1.09,1.09,0,0,1,.73.18A.89.89,0,0,1,121,80.83Zm-.12,7.58a.18.18,0,0,1,0,.11.24.24,0,0,1-.13.08,1.09,1.09,0,0,1-.25.05l-.38,0-.39,0a1.11,1.11,0,0,1-.24-.05c-.07,0-.11,0-.13-.08a.14.14,0,0,1,0-.11V82.76a.15.15,0,0,1,0-.11.22.22,0,0,1,.13-.08,1.11,1.11,0,0,1,.24,0,2.18,2.18,0,0,1,.39,0,2.12,2.12,0,0,1,.38,0,1.09,1.09,0,0,1,.25,0,.32.32,0,0,1,.13.08.21.21,0,0,1,0,.11Z"/><path class="cls-5" d="M127.85,88.41a.14.14,0,0,1,0,.11s-.07.06-.13.08a1.11,1.11,0,0,1-.24.05l-.39,0-.38,0a1.09,1.09,0,0,1-.25-.05.24.24,0,0,1-.13-.08.18.18,0,0,1,0-.11V85.18a2.81,2.81,0,0,0-.06-.65,1.22,1.22,0,0,0-.18-.4.8.8,0,0,0-.29-.26,1,1,0,0,0-.43-.09,1,1,0,0,0-.61.22,3.31,3.31,0,0,0-.65.65v3.76a.14.14,0,0,1,0,.11s-.07.06-.13.08a1.11,1.11,0,0,1-.24.05l-.39,0-.39,0a1.11,1.11,0,0,1-.24-.05c-.06,0-.11,0-.13-.08a.14.14,0,0,1,0-.11V82.75a.2.2,0,0,1,0-.11.23.23,0,0,1,.12-.08.81.81,0,0,1,.21,0h.66a.81.81,0,0,1,.21,0,.21.21,0,0,1,.1.08.2.2,0,0,1,0,.11v.65a4,4,0,0,1,1-.76,2.13,2.13,0,0,1,1-.25,2.23,2.23,0,0,1,1,.19,1.73,1.73,0,0,1,.64.52,2,2,0,0,1,.35.76,4.54,4.54,0,0,1,.11,1.06Z"/><path class="cls-5" d="M134.52,83.14a1.08,1.08,0,0,1-.07.46c0,.09-.1.14-.17.14h-.67a.82.82,0,0,1,.2.35,1.34,1.34,0,0,1,.06.4,2.23,2.23,0,0,1-.16.88,1.81,1.81,0,0,1-.47.65,2.24,2.24,0,0,1-.75.4,3.25,3.25,0,0,1-1,.13,2.24,2.24,0,0,1-.52-.06,1.55,1.55,0,0,1-.38-.16,1,1,0,0,0-.13.2.51.51,0,0,0-.06.25.35.35,0,0,0,.16.3.75.75,0,0,0,.45.13l1.38.05a3.6,3.6,0,0,1,.86.14,1.88,1.88,0,0,1,.63.33,1.32,1.32,0,0,1,.4.51,1.65,1.65,0,0,1,.13.68,1.79,1.79,0,0,1-.18.79,1.88,1.88,0,0,1-.55.65,3.08,3.08,0,0,1-.93.43,4.94,4.94,0,0,1-1.29.16,5.48,5.48,0,0,1-1.24-.12,2.5,2.5,0,0,1-.84-.32,1.27,1.27,0,0,1-.47-.48,1.32,1.32,0,0,1-.15-.62,1.75,1.75,0,0,1,.05-.4,1.73,1.73,0,0,1,.16-.37,2.5,2.5,0,0,1,.26-.33,2.62,2.62,0,0,1,.35-.3,1.08,1.08,0,0,1-.42-.4,1.06,1.06,0,0,1-.15-.55,1.3,1.3,0,0,1,.17-.68,2.13,2.13,0,0,1,.44-.56,1.4,1.4,0,0,1-.35-.53,2,2,0,0,1-.14-.77,2.11,2.11,0,0,1,.18-.89,1.87,1.87,0,0,1,.48-.66,2.1,2.1,0,0,1,.75-.41,2.83,2.83,0,0,1,1-.15,4.06,4.06,0,0,1,.51,0,3,3,0,0,1,.45.09h1.8a.19.19,0,0,1,.17.13A1.1,1.1,0,0,1,134.52,83.14ZM132.84,89a.48.48,0,0,0-.22-.43,1.17,1.17,0,0,0-.63-.17l-1.14,0a1.56,1.56,0,0,0-.26.23,1.3,1.3,0,0,0-.16.21.64.64,0,0,0-.08.2,1.23,1.23,0,0,0,0,.2.52.52,0,0,0,.32.48,2.06,2.06,0,0,0,.91.16,2.18,2.18,0,0,0,.61-.07,1.35,1.35,0,0,0,.4-.19.66.66,0,0,0,.21-.27A.87.87,0,0,0,132.84,89Zm-.37-4.52a.87.87,0,0,0-1-1,1,1,0,0,0-.41.08.81.81,0,0,0-.3.21.83.83,0,0,0-.17.32,1.21,1.21,0,0,0-.06.38.91.91,0,0,0,.25.68,1,1,0,0,0,.71.25,1.09,1.09,0,0,0,.42-.07.78.78,0,0,0,.29-.21.87.87,0,0,0,.18-.31A1.15,1.15,0,0,0,132.47,84.48Z"/><path class="cls-5" d="M137.46,87.71a1.13,1.13,0,0,1-.21.8,1.06,1.06,0,0,1-.74.2,1,1,0,0,1-.73-.2,1,1,0,0,1-.21-.76,1.13,1.13,0,0,1,.21-.8,1.1,1.1,0,0,1,.75-.2,1.06,1.06,0,0,1,.73.2A1.1,1.1,0,0,1,137.46,87.71Z"/><path class="cls-5" d="M49.24,102.42a2.69,2.69,0,0,1,0,.31,1,1,0,0,1,0,.2.52.52,0,0,1-.08.11.23.23,0,0,1-.11,0H44.87a.56.56,0,0,1-.36-.12.53.53,0,0,1-.14-.41V95.38a.52.52,0,0,1,.14-.4.56.56,0,0,1,.36-.12H49a.19.19,0,0,1,.1,0,.23.23,0,0,1,.07.11.53.53,0,0,1,0,.2,2.73,2.73,0,0,1,0,.32,2.36,2.36,0,0,1,0,.3.53.53,0,0,1,0,.2.23.23,0,0,1-.07.11.21.21,0,0,1-.1,0H46v2h2.49a.14.14,0,0,1,.1,0,.27.27,0,0,1,.08.1.83.83,0,0,1,0,.2,2.63,2.63,0,0,1,0,.3,2.73,2.73,0,0,1,0,.31.74.74,0,0,1,0,.19.31.31,0,0,1-.08.11.19.19,0,0,1-.1,0H46v2.31h3a.25.25,0,0,1,.11,0,.35.35,0,0,1,.08.11.88.88,0,0,1,0,.2A2.54,2.54,0,0,1,49.24,102.42Z"/><path class="cls-5" d="M54.6,101.26a1.93,1.93,0,0,1-.18.85,1.67,1.67,0,0,1-.51.61,2.17,2.17,0,0,1-.78.37,3.42,3.42,0,0,1-1,.13,3.83,3.83,0,0,1-.6,0,3.08,3.08,0,0,1-.52-.12,3,3,0,0,1-.38-.15.93.93,0,0,1-.22-.14.42.42,0,0,1-.11-.21,1.56,1.56,0,0,1,0-.42,2.45,2.45,0,0,1,0-.3.8.8,0,0,1,0-.18.35.35,0,0,1,.06-.09l.1,0a.56.56,0,0,1,.21.08l.34.18a3.14,3.14,0,0,0,.47.17,1.91,1.91,0,0,0,.61.09,1.46,1.46,0,0,0,.38,0,.91.91,0,0,0,.3-.13.49.49,0,0,0,.18-.2.6.6,0,0,0,.07-.3.47.47,0,0,0-.12-.32,1.11,1.11,0,0,0-.31-.24,3.63,3.63,0,0,0-.44-.19l-.5-.2a3.33,3.33,0,0,1-.5-.25,1.62,1.62,0,0,1-.44-.34,1.52,1.52,0,0,1-.31-.49,1.76,1.76,0,0,1-.12-.68,1.71,1.71,0,0,1,.16-.75,1.62,1.62,0,0,1,.46-.58,2,2,0,0,1,.72-.37,3.24,3.24,0,0,1,1-.14,2.85,2.85,0,0,1,.51,0l.46.1a1.35,1.35,0,0,1,.34.12l.2.11a.24.24,0,0,1,.08.1.21.21,0,0,1,0,.11s0,.1,0,.17,0,.15,0,.24,0,.21,0,.28a.61.61,0,0,1,0,.17.12.12,0,0,1-.06.09l-.09,0a.39.39,0,0,1-.17-.07l-.3-.14A3,3,0,0,0,53.2,98a1.84,1.84,0,0,0-.55-.07,1.32,1.32,0,0,0-.37.05.79.79,0,0,0-.26.12.48.48,0,0,0-.15.2.46.46,0,0,0,0,.23.49.49,0,0,0,.12.34,1.31,1.31,0,0,0,.31.23,3.21,3.21,0,0,0,.45.19l.51.19c.17.07.34.16.51.25a2.07,2.07,0,0,1,.44.34,1.49,1.49,0,0,1,.32.49A1.67,1.67,0,0,1,54.6,101.26Z"/><path class="cls-5" d="M61.53,100a4.57,4.57,0,0,1-.19,1.32,2.82,2.82,0,0,1-.58,1,2.57,2.57,0,0,1-1,.66,3.61,3.61,0,0,1-1.37.24,3.71,3.71,0,0,1-1.31-.21,2.39,2.39,0,0,1-.93-.61,2.53,2.53,0,0,1-.54-1,4.57,4.57,0,0,1-.18-1.34,4.25,4.25,0,0,1,.19-1.32,3,3,0,0,1,.58-1,2.46,2.46,0,0,1,1-.66,3.55,3.55,0,0,1,1.36-.24,3.73,3.73,0,0,1,1.32.21,2.41,2.41,0,0,1,.93.6,2.63,2.63,0,0,1,.54,1A4.53,4.53,0,0,1,61.53,100Zm-1.65.06a4.54,4.54,0,0,0-.06-.77,1.76,1.76,0,0,0-.23-.61,1.1,1.1,0,0,0-.42-.41,1.34,1.34,0,0,0-.66-.14,1.39,1.39,0,0,0-.63.13,1,1,0,0,0-.43.38,1.65,1.65,0,0,0-.26.6,3.2,3.2,0,0,0-.09.8,4.49,4.49,0,0,0,.07.77,1.9,1.9,0,0,0,.23.62,1.08,1.08,0,0,0,.42.4,1.46,1.46,0,0,0,.66.14,1.39,1.39,0,0,0,.63-.13,1.07,1.07,0,0,0,.44-.38,1.65,1.65,0,0,0,.25-.6A3.23,3.23,0,0,0,59.88,100Z"/><path class="cls-5" d="M69.72,101.26a1.93,1.93,0,0,1-.18.85,1.8,1.8,0,0,1-.52.61,2.17,2.17,0,0,1-.78.37,3.35,3.35,0,0,1-1,.13,3.86,3.86,0,0,1-.61,0,3.33,3.33,0,0,1-.52-.12,3,3,0,0,1-.38-.15,1.21,1.21,0,0,1-.22-.14.52.52,0,0,1-.11-.21,2.24,2.24,0,0,1,0-.72.84.84,0,0,1,0-.18.22.22,0,0,1,.07-.09l.09,0a.51.51,0,0,1,.21.08l.34.18a3.14,3.14,0,0,0,.47.17,2,2,0,0,0,.61.09,1.48,1.48,0,0,0,.39,0,.86.86,0,0,0,.29-.13.61.61,0,0,0,.19-.2.73.73,0,0,0,.06-.3.47.47,0,0,0-.12-.32,1.11,1.11,0,0,0-.31-.24,3.05,3.05,0,0,0-.44-.19l-.5-.2a3.33,3.33,0,0,1-.5-.25,1.79,1.79,0,0,1-.44-.34,1.52,1.52,0,0,1-.31-.49,1.76,1.76,0,0,1-.12-.68,1.87,1.87,0,0,1,.16-.75,1.62,1.62,0,0,1,.46-.58,2,2,0,0,1,.73-.37,3.13,3.13,0,0,1,1-.14,3,3,0,0,1,.52,0l.45.1a1.22,1.22,0,0,1,.34.12.84.84,0,0,1,.2.11.41.41,0,0,1,.09.1.36.36,0,0,1,0,.11,1.28,1.28,0,0,0,0,.17,1.7,1.7,0,0,1,0,.24,2.18,2.18,0,0,1,0,.28c0,.07,0,.13,0,.17a.23.23,0,0,1-.06.09l-.09,0a.38.38,0,0,1-.18-.07l-.3-.14a3,3,0,0,0-.42-.14,1.81,1.81,0,0,0-.54-.07,1.4,1.4,0,0,0-.38.05.89.89,0,0,0-.26.12.48.48,0,0,0-.15.2.59.59,0,0,0,0,.23.49.49,0,0,0,.12.34,1.39,1.39,0,0,0,.32.23,3.63,3.63,0,0,0,.44.19l.51.19c.17.07.34.16.51.25a1.67,1.67,0,0,1,.77.83A1.67,1.67,0,0,1,69.72,101.26Z"/><path class="cls-5" d="M72.51,102.86a.2.2,0,0,1,0,.11.32.32,0,0,1-.13.08,1.31,1.31,0,0,1-.25,0l-.39,0-.38,0a1.31,1.31,0,0,1-.25,0A.32.32,0,0,1,71,103a.2.2,0,0,1,0-.11V97.19a.2.2,0,0,1,0-.11.32.32,0,0,1,.13-.08,1.31,1.31,0,0,1,.25,0l.38,0,.39,0a1.31,1.31,0,0,1,.25,0,.32.32,0,0,1,.13.08.2.2,0,0,1,0,.11Zm-.6-8.45a.53.53,0,0,1,.1-.12l.16-.08.24,0h.36a2.77,2.77,0,0,1,.46,0,.57.57,0,0,1,.24.07.13.13,0,0,1,.07.11.28.28,0,0,1-.07.13L72.24,96l-.1.1a.4.4,0,0,1-.13.07.94.94,0,0,1-.2,0l-.3,0-.36,0a.38.38,0,0,1-.18-.06.11.11,0,0,1,0-.11.37.37,0,0,1,.07-.14Z"/><path class="cls-5" d="M82.42,105.1a.17.17,0,0,1,0,.12.32.32,0,0,1-.13.08,1,1,0,0,1-.24.06l-.39,0-.38,0a1.15,1.15,0,0,1-.25-.06.23.23,0,0,1-.12-.08.17.17,0,0,1,0-.12v-2.69c-.15.14-.3.26-.44.37A3.94,3.94,0,0,1,80,103a1.94,1.94,0,0,1-.45.14,2.44,2.44,0,0,1-.48,0A2.16,2.16,0,0,1,78,103a2.23,2.23,0,0,1-.72-.68,3.16,3.16,0,0,1-.4-1,5.81,5.81,0,0,1-.13-1.2,5.16,5.16,0,0,1,.17-1.36,3.16,3.16,0,0,1,.48-1,2.13,2.13,0,0,1,.78-.65,2.44,2.44,0,0,1,1.07-.23,2.31,2.31,0,0,1,.46,0,2.07,2.07,0,0,1,.43.16,2.75,2.75,0,0,1,.44.31,6.39,6.39,0,0,1,.52.46v-.62a.2.2,0,0,1,0-.11.24.24,0,0,1,.11-.08l.21,0,.33,0,.32,0a.87.87,0,0,1,.21,0,.24.24,0,0,1,.11.08.2.2,0,0,1,0,.11Zm-1.59-6a3.72,3.72,0,0,0-.66-.66,1.1,1.1,0,0,0-.65-.23,1,1,0,0,0-.54.16,1.06,1.06,0,0,0-.36.42,2,2,0,0,0-.2.58,2.81,2.81,0,0,0-.07.65,4,4,0,0,0,.06.7,2.21,2.21,0,0,0,.18.6,1.31,1.31,0,0,0,.35.42.94.94,0,0,0,.55.16,1.19,1.19,0,0,0,.32-.05,1.15,1.15,0,0,0,.31-.16,2,2,0,0,0,.34-.28c.11-.12.24-.26.37-.43Z"/><path class="cls-5" d="M89.39,102.86a.2.2,0,0,1,0,.11.24.24,0,0,1-.11.08.87.87,0,0,1-.21,0l-.33,0-.33,0a.87.87,0,0,1-.21,0,.24.24,0,0,1-.11-.08.2.2,0,0,1,0-.11v-.66a3.45,3.45,0,0,1-1,.76,2.1,2.1,0,0,1-1,.26,2.34,2.34,0,0,1-1-.19,1.65,1.65,0,0,1-.64-.52,2,2,0,0,1-.35-.77,4.66,4.66,0,0,1-.11-1.08V97.19a.15.15,0,0,1,0-.11.23.23,0,0,1,.12-.08l.25,0,.39,0,.38,0a1.18,1.18,0,0,1,.25,0,.32.32,0,0,1,.13.08.21.21,0,0,1,0,.11v3.2a3.7,3.7,0,0,0,0,.68,1.28,1.28,0,0,0,.18.41.94.94,0,0,0,.3.26.93.93,0,0,0,.42.09,1.09,1.09,0,0,0,.61-.22,3.63,3.63,0,0,0,.66-.65V97.19a.2.2,0,0,1,0-.11A.32.32,0,0,1,88,97l.24,0,.39,0L89,97l.24,0a.32.32,0,0,1,.13.08.2.2,0,0,1,0,.11Z"/><path class="cls-5" d="M96.23,99.86a.6.6,0,0,1-.13.43.49.49,0,0,1-.36.14H92.3a2.3,2.3,0,0,0,.08.66,1.42,1.42,0,0,0,.27.5,1.18,1.18,0,0,0,.49.31,1.84,1.84,0,0,0,.7.11,4,4,0,0,0,.74-.06,4.5,4.5,0,0,0,.55-.13l.38-.13a.63.63,0,0,1,.25-.07.17.17,0,0,1,.1,0,.18.18,0,0,1,.06.08.46.46,0,0,1,0,.16v.5c0,.07,0,.12,0,.17a.56.56,0,0,1,0,.12l-.07.09a.64.64,0,0,1-.22.12,3.78,3.78,0,0,1-.47.15,5.06,5.06,0,0,1-.65.12,5,5,0,0,1-.79.06,4.44,4.44,0,0,1-1.33-.19,2.37,2.37,0,0,1-.94-.58,2.27,2.27,0,0,1-.57-1,4.91,4.91,0,0,1,0-2.74,2.78,2.78,0,0,1,.57-1,2.49,2.49,0,0,1,.91-.65,3.3,3.3,0,0,1,1.21-.22,3.12,3.12,0,0,1,1.21.21,2.1,2.1,0,0,1,.83.58,2.28,2.28,0,0,1,.48.88,3.92,3.92,0,0,1,.15,1.11Zm-1.55-.46a1.53,1.53,0,0,0-.27-1.05,1,1,0,0,0-.89-.39,1.12,1.12,0,0,0-.53.12,1,1,0,0,0-.37.3,1.42,1.42,0,0,0-.23.46,1.73,1.73,0,0,0-.09.56Z"/><path class="cls-5" d="M105.72,99.86a.65.65,0,0,1-.13.43.49.49,0,0,1-.36.14h-3.45a2.29,2.29,0,0,0,.09.66,1.16,1.16,0,0,0,.27.5,1.08,1.08,0,0,0,.48.31,1.89,1.89,0,0,0,.71.11,4.1,4.1,0,0,0,.74-.06,4.31,4.31,0,0,0,.54-.13l.39-.13a.56.56,0,0,1,.25-.07.14.14,0,0,1,.09,0,.1.1,0,0,1,.06.08.46.46,0,0,1,0,.16,2,2,0,0,1,0,.26,1.77,1.77,0,0,1,0,.24.79.79,0,0,1,0,.17.53.53,0,0,1,0,.12l-.07.09a.73.73,0,0,1-.23.12,3.78,3.78,0,0,1-.47.15,4.75,4.75,0,0,1-.65.12,5,5,0,0,1-.79.06,4.37,4.37,0,0,1-1.32-.19,2.34,2.34,0,0,1-1-.58,2.49,2.49,0,0,1-.57-1,4.71,4.71,0,0,1-.18-1.38,4.38,4.38,0,0,1,.19-1.36,2.78,2.78,0,0,1,.57-1,2.57,2.57,0,0,1,.91-.65,3.3,3.3,0,0,1,1.21-.22,3.17,3.17,0,0,1,1.22.21,2.18,2.18,0,0,1,.83.58,2.4,2.4,0,0,1,.47.88,3.59,3.59,0,0,1,.16,1.11Zm-1.55-.46a1.64,1.64,0,0,0-.27-1.05A1,1,0,0,0,103,98a1.09,1.09,0,0,0-.53.12,1,1,0,0,0-.38.3,1.42,1.42,0,0,0-.23.46,2.52,2.52,0,0,0-.09.56Z"/><path class="cls-5" d="M111,101.26a1.93,1.93,0,0,1-.18.85,1.8,1.8,0,0,1-.52.61,2.17,2.17,0,0,1-.78.37,3.35,3.35,0,0,1-1,.13,3.86,3.86,0,0,1-.61,0,3.62,3.62,0,0,1-.52-.12,3,3,0,0,1-.38-.15,1.21,1.21,0,0,1-.22-.14.52.52,0,0,1-.11-.21,2.24,2.24,0,0,1,0-.72.84.84,0,0,1,0-.18.22.22,0,0,1,.07-.09l.09,0a.51.51,0,0,1,.21.08l.34.18a3.14,3.14,0,0,0,.47.17,2,2,0,0,0,.62.09,1.46,1.46,0,0,0,.38,0,.86.86,0,0,0,.29-.13.52.52,0,0,0,.19-.2.73.73,0,0,0,.06-.3.47.47,0,0,0-.12-.32,1,1,0,0,0-.31-.24,3.05,3.05,0,0,0-.44-.19l-.5-.2a3.33,3.33,0,0,1-.5-.25,1.79,1.79,0,0,1-.44-.34,1.71,1.71,0,0,1-.31-.49,1.76,1.76,0,0,1-.11-.68,1.86,1.86,0,0,1,.15-.75,1.62,1.62,0,0,1,.46-.58,2,2,0,0,1,.73-.37,3.13,3.13,0,0,1,1-.14,3,3,0,0,1,.52,0,4.35,4.35,0,0,1,.45.1,1.22,1.22,0,0,1,.34.12.84.84,0,0,1,.2.11.41.41,0,0,1,.09.1.36.36,0,0,1,0,.11s0,.1,0,.17a1.7,1.7,0,0,1,0,.24,2.18,2.18,0,0,1,0,.28c0,.07,0,.13,0,.17a.23.23,0,0,1-.06.09l-.09,0a.38.38,0,0,1-.18-.07l-.3-.14a3,3,0,0,0-.42-.14,1.81,1.81,0,0,0-.54-.07,1.4,1.4,0,0,0-.38.05.89.89,0,0,0-.26.12.59.59,0,0,0-.15.2.59.59,0,0,0,0,.23.49.49,0,0,0,.12.34,1.39,1.39,0,0,0,.32.23,3.21,3.21,0,0,0,.45.19l.5.19c.17.07.34.16.51.25a1.9,1.9,0,0,1,.45.34,1.59,1.59,0,0,1,.44,1.16Z"/><path class="cls-5" d="M120.53,102.86a.21.21,0,0,1,0,.11.2.2,0,0,1-.11.08.87.87,0,0,1-.21,0l-.32,0-.34,0a.87.87,0,0,1-.21,0,.24.24,0,0,1-.11-.08.2.2,0,0,1,0-.11v-.66a3.56,3.56,0,0,1-1,.76,2.17,2.17,0,0,1-1,.26,2.34,2.34,0,0,1-1-.19,1.65,1.65,0,0,1-.64-.52,2,2,0,0,1-.35-.77,4.66,4.66,0,0,1-.11-1.08V97.19a.15.15,0,0,1,0-.11.22.22,0,0,1,.13-.08l.24,0,.39,0,.38,0a1.18,1.18,0,0,1,.25,0,.32.32,0,0,1,.13.08.21.21,0,0,1,0,.11v3.2a3.7,3.7,0,0,0,0,.68,1.28,1.28,0,0,0,.18.41.94.94,0,0,0,.3.26.93.93,0,0,0,.42.09,1.09,1.09,0,0,0,.61-.22,3.63,3.63,0,0,0,.66-.65V97.19a.2.2,0,0,1,0-.11.32.32,0,0,1,.13-.08l.24,0,.39,0,.39,0,.24,0a.32.32,0,0,1,.13.08.21.21,0,0,1,0,.11Zm-2.38-8.45.11-.12a.48.48,0,0,1,.16-.08l.24,0H119a2.69,2.69,0,0,1,.46,0,.58.58,0,0,1,.25.07s.07.07.06.11a.19.19,0,0,1-.06.13L118.49,96l-.1.1-.13.07a1.06,1.06,0,0,1-.2,0l-.31,0-.35,0a.31.31,0,0,1-.18-.06.09.09,0,0,1,0-.11.33.33,0,0,1,.06-.14Z"/><path class="cls-5" d="M127.66,97a.51.51,0,0,1,.37.11.49.49,0,0,1,.11.33v5.44a.21.21,0,0,1,0,.11.32.32,0,0,1-.13.08l-.24,0-.39,0-.39,0-.24,0a.32.32,0,0,1-.13-.08.21.21,0,0,1,0-.11V98.27H124v2.66a1.44,1.44,0,0,0,.14.7.59.59,0,0,0,.52.23l.23,0,.18,0,.14-.05a.19.19,0,0,1,.1,0,.11.11,0,0,1,.07,0,.12.12,0,0,1,.05.08.78.78,0,0,1,0,.19,2.36,2.36,0,0,1,0,.29,2.26,2.26,0,0,1,0,.42.51.51,0,0,1-.09.21.45.45,0,0,1-.17.11l-.26.09-.33.05-.35,0a2.49,2.49,0,0,1-.82-.12,1.38,1.38,0,0,1-.58-.37,1.59,1.59,0,0,1-.34-.63,3.49,3.49,0,0,1-.11-.91v-2.9h-.67a.21.21,0,0,1-.19-.15,1.42,1.42,0,0,1-.06-.49,3,3,0,0,1,0-.32.83.83,0,0,1,.05-.2.27.27,0,0,1,.08-.1.2.2,0,0,1,.11,0h.67V95.71a.21.21,0,0,1,0-.11.22.22,0,0,1,.13-.08.7.7,0,0,1,.24-.06h.78a.7.7,0,0,1,.24.06.32.32,0,0,1,.13.08.15.15,0,0,1,0,.11V97Zm.6-1.7a.88.88,0,0,1-.19.66,1,1,0,0,1-.73.19,1.09,1.09,0,0,1-.73-.18.89.89,0,0,1-.19-.64.91.91,0,0,1,.2-.67,1.51,1.51,0,0,1,1.45,0A.87.87,0,0,1,128.26,95.28Z"/><path class="cls-5" d="M131.34,102.86a.15.15,0,0,1,0,.11.22.22,0,0,1-.13.08l-.24,0-.39,0-.38,0a1.18,1.18,0,0,1-.25,0,.32.32,0,0,1-.13-.08.21.21,0,0,1,0-.11V94.51a.28.28,0,0,1,0-.12.32.32,0,0,1,.13-.08l.25-.06h.77l.24.06a.22.22,0,0,1,.13.08.19.19,0,0,1,0,.12Z"/><path class="cls-5" d="M55.42,114.3a.63.63,0,0,1-.13.43.45.45,0,0,1-.36.14H51.48a2.24,2.24,0,0,0,.09.66,1.06,1.06,0,0,0,.27.5,1.1,1.1,0,0,0,.48.32,2.12,2.12,0,0,0,.71.11,3.91,3.91,0,0,0,.73-.06c.22-.05.4-.09.55-.14l.39-.13a.69.69,0,0,1,.25-.06l.09,0a.1.1,0,0,1,.06.08.53.53,0,0,1,0,.16,2,2,0,0,1,0,.26,1.63,1.63,0,0,1,0,.24.79.79,0,0,1,0,.17.34.34,0,0,1,0,.12.24.24,0,0,1-.06.09.73.73,0,0,1-.23.12,3.78,3.78,0,0,1-.47.15c-.19,0-.4.09-.65.13a6.56,6.56,0,0,1-.79,0,4.08,4.08,0,0,1-1.32-.19,2.34,2.34,0,0,1-1-.58,2.52,2.52,0,0,1-.57-1,4.81,4.81,0,0,1-.19-1.39,4.42,4.42,0,0,1,.2-1.36,2.86,2.86,0,0,1,.57-1,2.55,2.55,0,0,1,.91-.64,3.11,3.11,0,0,1,1.21-.22,3.39,3.39,0,0,1,1.22.2,2.28,2.28,0,0,1,.83.59,2.36,2.36,0,0,1,.47.87,3.92,3.92,0,0,1,.16,1.11Zm-1.55-.45a1.69,1.69,0,0,0-.27-1.06,1,1,0,0,0-.89-.38,1.16,1.16,0,0,0-.54.11,1.12,1.12,0,0,0-.37.31,1.37,1.37,0,0,0-.23.45,2.61,2.61,0,0,0-.09.57Z"/><path class="cls-5" d="M62.14,117.3a.21.21,0,0,1,0,.11.32.32,0,0,1-.13.08,1.11,1.11,0,0,1-.24.05H61a1.11,1.11,0,0,1-.24-.05.32.32,0,0,1-.13-.08.21.21,0,0,1,0-.11v-3.23a2.75,2.75,0,0,0-.06-.65,1.12,1.12,0,0,0-.17-.4.83.83,0,0,0-.3-.26.93.93,0,0,0-.42-.09,1,1,0,0,0-.61.22,3.06,3.06,0,0,0-.65.65v3.76a.15.15,0,0,1,0,.11.26.26,0,0,1-.13.08,1.11,1.11,0,0,1-.24.05h-.78a1.11,1.11,0,0,1-.24-.05.26.26,0,0,1-.13-.08.15.15,0,0,1,0-.11v-5.66a.18.18,0,0,1,0-.11.19.19,0,0,1,.11-.08,1,1,0,0,1,.22,0l.33,0,.33,0a.81.81,0,0,1,.21,0,.16.16,0,0,1,.1.08.18.18,0,0,1,0,.11v.65a3.76,3.76,0,0,1,1-.76,2.13,2.13,0,0,1,1-.25,2.23,2.23,0,0,1,1,.19,1.79,1.79,0,0,1,.64.51,2.17,2.17,0,0,1,.35.77,4.51,4.51,0,0,1,.11,1Z"/><path class="cls-5" d="M72.05,117.3a.2.2,0,0,1,0,.11.32.32,0,0,1-.13.08,1.09,1.09,0,0,1-.25.05h-.77a1.22,1.22,0,0,1-.25-.05.28.28,0,0,1-.12-.08.15.15,0,0,1,0-.11v-3.23a2.75,2.75,0,0,0-.06-.65,1.34,1.34,0,0,0-.17-.4.83.83,0,0,0-.3-.26.93.93,0,0,0-.42-.09,1,1,0,0,0-.62.22,3.29,3.29,0,0,0-.64.65v3.76a.21.21,0,0,1,0,.11.32.32,0,0,1-.13.08,1.22,1.22,0,0,1-.25.05h-.77a1.22,1.22,0,0,1-.25-.05.32.32,0,0,1-.13-.08.2.2,0,0,1,0-.11v-5.66a.18.18,0,0,1,0-.11.19.19,0,0,1,.11-.08l.21,0,.33,0,.34,0a.64.64,0,0,1,.2,0,.19.19,0,0,1,.11.08.18.18,0,0,1,0,.11v.65a3.45,3.45,0,0,1,1-.76,2.13,2.13,0,0,1,1-.25,2.18,2.18,0,0,1,1,.19,1.63,1.63,0,0,1,.64.51,2.19,2.19,0,0,1,.36.77,4.56,4.56,0,0,1,.1,1Z"/><path class="cls-5" d="M79,117.3a.2.2,0,0,1,0,.11.24.24,0,0,1-.11.08.81.81,0,0,1-.21.05H78a.83.83,0,0,1-.2-.05.24.24,0,0,1-.11-.08.2.2,0,0,1,0-.11v-.65a3.81,3.81,0,0,1-1,.76,2.12,2.12,0,0,1-1,.25,2.2,2.2,0,0,1-1-.19A1.76,1.76,0,0,1,74,117a2,2,0,0,1-.34-.76,4.26,4.26,0,0,1-.11-1.09v-3.46a.18.18,0,0,1,0-.11.24.24,0,0,1,.13-.08,1.22,1.22,0,0,1,.25,0l.38,0,.39,0a1.37,1.37,0,0,1,.25,0,.24.24,0,0,1,.13.08.18.18,0,0,1,0,.11v3.2a3,3,0,0,0,.06.68,1.22,1.22,0,0,0,.18.4.73.73,0,0,0,.29.26.94.94,0,0,0,.43.09,1,1,0,0,0,.61-.22,4,4,0,0,0,.66-.65v-3.76a.18.18,0,0,1,0-.11s.07-.06.13-.08a1.11,1.11,0,0,1,.24,0l.39,0,.39,0a1.11,1.11,0,0,1,.24,0,.18.18,0,0,1,.12.08.14.14,0,0,1,0,.11Z"/><path class="cls-5" d="M85.83,114.3a.58.58,0,0,1-.13.43.45.45,0,0,1-.36.14H81.89a2.24,2.24,0,0,0,.09.66,1.26,1.26,0,0,0,.27.5,1.23,1.23,0,0,0,.48.32,2.16,2.16,0,0,0,.71.11,4,4,0,0,0,.74-.06l.55-.14.38-.13a.74.74,0,0,1,.25-.06l.1,0a.18.18,0,0,1,.06.08.35.35,0,0,1,0,.16,2,2,0,0,1,0,.26v.24c0,.07,0,.12,0,.17a.34.34,0,0,1,0,.12l-.07.09a.64.64,0,0,1-.22.12,4.42,4.42,0,0,1-.47.15c-.19,0-.41.09-.66.13a6.26,6.26,0,0,1-.78,0,4.1,4.1,0,0,1-1.33-.19,2.41,2.41,0,0,1-1-.58,2.39,2.39,0,0,1-.56-1,4.49,4.49,0,0,1-.19-1.39,4.43,4.43,0,0,1,.19-1.36,3,3,0,0,1,.58-1,2.46,2.46,0,0,1,.91-.64,3.07,3.07,0,0,1,1.21-.22,3.33,3.33,0,0,1,1.21.2,2.2,2.2,0,0,1,.83.59,2.24,2.24,0,0,1,.48.87,3.92,3.92,0,0,1,.15,1.11Zm-1.55-.45a1.69,1.69,0,0,0-.27-1.06,1,1,0,0,0-.89-.38,1.12,1.12,0,0,0-.53.11,1.15,1.15,0,0,0-.38.31,1.35,1.35,0,0,0-.22.45,2.13,2.13,0,0,0-.1.57Z"/><path class="cls-5" d="M91.13,115.7a1.93,1.93,0,0,1-.18.85,1.7,1.7,0,0,1-.51.62,2.56,2.56,0,0,1-.78.37,3.81,3.81,0,0,1-1,.12,3.08,3.08,0,0,1-.61,0,3.19,3.19,0,0,1-.51-.12,2.5,2.5,0,0,1-.38-.15.76.76,0,0,1-.23-.14.41.41,0,0,1-.1-.21,1.47,1.47,0,0,1,0-.42,2.63,2.63,0,0,1,0-.3.61.61,0,0,1,0-.17.13.13,0,0,1,.06-.09.16.16,0,0,1,.1,0,.47.47,0,0,1,.2.07,2.63,2.63,0,0,0,.34.18l.48.18a2.2,2.2,0,0,0,.61.08,2.11,2.11,0,0,0,.38,0,1.11,1.11,0,0,0,.29-.13.54.54,0,0,0,.19-.21.68.68,0,0,0,.06-.29.47.47,0,0,0-.11-.33,1.11,1.11,0,0,0-.31-.24,3.63,3.63,0,0,0-.44-.19,5.21,5.21,0,0,1-.5-.2,4.59,4.59,0,0,1-.5-.24,1.89,1.89,0,0,1-.44-.35,1.33,1.33,0,0,1-.31-.48,1.81,1.81,0,0,1-.12-.69,1.71,1.71,0,0,1,.16-.75,1.6,1.6,0,0,1,.46-.58,2.13,2.13,0,0,1,.72-.37,3.23,3.23,0,0,1,1-.13,4.41,4.41,0,0,1,.52,0,3.83,3.83,0,0,1,.45.1l.35.12a1,1,0,0,1,.2.12.22.22,0,0,1,.08.09.34.34,0,0,1,0,.12.7.7,0,0,1,0,.16,1.85,1.85,0,0,1,0,.25,2.1,2.1,0,0,1,0,.27.45.45,0,0,1,0,.18.1.1,0,0,1-.06.08s0,0-.09,0a.46.46,0,0,1-.18-.06c-.08-.05-.18-.09-.3-.15l-.42-.14a2.17,2.17,0,0,0-.54-.06,1.35,1.35,0,0,0-.37,0,.67.67,0,0,0-.42.32.6.6,0,0,0,0,.24.48.48,0,0,0,.12.33,1,1,0,0,0,.32.23,3.21,3.21,0,0,0,.45.19l.51.2a4.59,4.59,0,0,1,.5.24,1.9,1.9,0,0,1,.45.34A1.66,1.66,0,0,1,91,115,1.71,1.71,0,0,1,91.13,115.7Z"/><path class="cls-5" d="M95.53,116.74a2.31,2.31,0,0,1,0,.43.41.41,0,0,1-.09.21.83.83,0,0,1-.17.11,1.34,1.34,0,0,1-.26.08l-.32.05a2.17,2.17,0,0,1-.36,0,2.53,2.53,0,0,1-.82-.12,1.35,1.35,0,0,1-.58-.37,1.73,1.73,0,0,1-.34-.63,3.49,3.49,0,0,1-.1-.9v-2.9h-.68a.21.21,0,0,1-.19-.15,1.49,1.49,0,0,1-.06-.5,2.82,2.82,0,0,1,0-.31,1.43,1.43,0,0,1,0-.2.24.24,0,0,1,.08-.11.2.2,0,0,1,.11,0h.68v-1.26a.18.18,0,0,1,.16-.2,1.09,1.09,0,0,1,.25,0l.38,0,.39,0a1.11,1.11,0,0,1,.24,0A.26.26,0,0,1,94,110a.19.19,0,0,1,0,.12v1.26h1.23a.2.2,0,0,1,.11,0,.24.24,0,0,1,.08.11.72.72,0,0,1,0,.2,2.82,2.82,0,0,1,0,.31,1.49,1.49,0,0,1-.06.5q-.06.15-.18.15H94.05v2.66a1.26,1.26,0,0,0,.15.69.54.54,0,0,0,.51.23.79.79,0,0,0,.23,0l.18,0,.14,0a.18.18,0,0,1,.1,0,.1.1,0,0,1,.07,0,.13.13,0,0,1,0,.09.6.6,0,0,1,0,.18A2.36,2.36,0,0,1,95.53,116.74Z"/><path class="cls-5" d="M100.33,112.16a3.63,3.63,0,0,1,0,.38,1.17,1.17,0,0,1,0,.23.23.23,0,0,1-.07.11.17.17,0,0,1-.1,0,.25.25,0,0,1-.12,0l-.14,0-.18,0a.66.66,0,0,0-.21,0,.62.62,0,0,0-.26.06,1,1,0,0,0-.28.17,2.11,2.11,0,0,0-.3.3c-.1.13-.21.28-.33.47v3.53a.15.15,0,0,1,0,.11.26.26,0,0,1-.13.08,1.11,1.11,0,0,1-.24.05H97.1a1.11,1.11,0,0,1-.24-.05.26.26,0,0,1-.13-.08.15.15,0,0,1,0-.11v-5.66a.18.18,0,0,1,0-.11.18.18,0,0,1,.12-.08.81.81,0,0,1,.21,0l.33,0,.33,0a.81.81,0,0,1,.21,0,.16.16,0,0,1,.1.08.18.18,0,0,1,0,.11v.7a5.22,5.22,0,0,1,.42-.52,2.61,2.61,0,0,1,.38-.33,1.25,1.25,0,0,1,.35-.17,1.47,1.47,0,0,1,.36,0h.18l.19,0,.18.05.11.06a.12.12,0,0,1,0,.07.62.62,0,0,1,0,.1,1,1,0,0,1,0,.2C100.33,111.89,100.33,112,100.33,112.16Z"/><path class="cls-5" d="M105.85,117.32a.18.18,0,0,1-.06.14.47.47,0,0,1-.2.07,2.25,2.25,0,0,1-.41,0,2.13,2.13,0,0,1-.41,0,.38.38,0,0,1-.19-.07.22.22,0,0,1,0-.14v-.45a2.53,2.53,0,0,1-.8.58,2.31,2.31,0,0,1-1,.21,2.73,2.73,0,0,1-.83-.12,1.64,1.64,0,0,1-.65-.35,1.44,1.44,0,0,1-.43-.57,2,2,0,0,1-.15-.8,1.79,1.79,0,0,1,.19-.86,1.58,1.58,0,0,1,.58-.6,2.86,2.86,0,0,1,1-.36,7.44,7.44,0,0,1,1.33-.11h.55v-.34a2.12,2.12,0,0,0,0-.47.88.88,0,0,0-.18-.33.68.68,0,0,0-.33-.2,1.88,1.88,0,0,0-.51-.06,2.5,2.5,0,0,0-.71.09,4.56,4.56,0,0,0-.56.19c-.16.08-.3.14-.4.2a.6.6,0,0,1-.27.09.21.21,0,0,1-.12,0,.27.27,0,0,1-.09-.12.93.93,0,0,1,0-.21,1.06,1.06,0,0,1,0-.26,1.24,1.24,0,0,1,0-.31.45.45,0,0,1,.12-.21,1.1,1.1,0,0,1,.31-.2,2.81,2.81,0,0,1,.52-.21,5.65,5.65,0,0,1,.65-.15,4.4,4.4,0,0,1,.73-.06,4.26,4.26,0,0,1,1.14.13,1.93,1.93,0,0,1,.78.4,1.55,1.55,0,0,1,.44.69,3.33,3.33,0,0,1,.14,1Zm-1.57-2.43h-.61a3.1,3.1,0,0,0-.66.06,1.39,1.39,0,0,0-.44.17.66.66,0,0,0-.25.28.75.75,0,0,0-.08.37.72.72,0,0,0,.22.56.93.93,0,0,0,.63.2,1.23,1.23,0,0,0,.62-.17,2.32,2.32,0,0,0,.57-.5Z"/><path class="cls-5" d="M114.56,117.22a.49.49,0,0,1-.08.18.32.32,0,0,1-.16.1,1.23,1.23,0,0,1-.31,0h-1l-.31,0a1.18,1.18,0,0,1-.21,0l-.13-.07a.18.18,0,0,1-.08-.09,1,1,0,0,1-.06-.14l-2.44-7.28a1.86,1.86,0,0,1-.09-.36.22.22,0,0,1,.06-.2.51.51,0,0,1,.27-.08l.53,0,.46,0a.72.72,0,0,1,.25,0,.19.19,0,0,1,.13.1l.07.15,2,6.34h0l2-6.3a.61.61,0,0,1,.07-.18.2.2,0,0,1,.13-.1.6.6,0,0,1,.26,0l.47,0,.45,0a.38.38,0,0,1,.23.09.24.24,0,0,1,0,.21,1.86,1.86,0,0,1-.09.36Z"/><path class="cls-5" d="M123.79,111.8a3.09,3.09,0,0,1-.22,1.22,2.23,2.23,0,0,1-.63.9,2.66,2.66,0,0,1-1,.55,4.57,4.57,0,0,1-1.41.2h-.69v2.62a.15.15,0,0,1,0,.11.26.26,0,0,1-.13.08,1.33,1.33,0,0,1-.26,0,2.3,2.3,0,0,1-.4,0,2.43,2.43,0,0,1-.41,0l-.25,0a.3.3,0,0,1-.14-.08.21.21,0,0,1,0-.11V109.9a.61.61,0,0,1,.16-.45.56.56,0,0,1,.41-.15h1.94l.55,0c.18,0,.39.05.63.1a2.83,2.83,0,0,1,.75.27,2.26,2.26,0,0,1,.64.5,2,2,0,0,1,.41.7A2.85,2.85,0,0,1,123.79,111.8Zm-1.75.12a1.47,1.47,0,0,0-.15-.71,1.1,1.1,0,0,0-.37-.42,1.4,1.4,0,0,0-.47-.17,4.12,4.12,0,0,0-.51,0h-.71v2.79h.75a1.84,1.84,0,0,0,.67-.11,1.08,1.08,0,0,0,.44-.3,1.27,1.27,0,0,0,.26-.47A1.81,1.81,0,0,0,122,111.92Z"/><path class="cls-5" d="M125.43,116.6a1.16,1.16,0,0,1-.2.79,1,1,0,0,1-.74.21,1.07,1.07,0,0,1-.74-.2,1.12,1.12,0,0,1-.2-.76,1.17,1.17,0,0,1,.2-.8,1.05,1.05,0,0,1,.75-.2,1,1,0,0,1,.73.2A1,1,0,0,1,125.43,116.6Z"/></g></g></svg>