<svg xmlns="http://www.w3.org/2000/svg" viewBox="0 0 157.25 98.52"><defs><style>.cls-1{opacity:0.3;}.cls-2{fill:#fff;}.cls-3{fill:#96989b;}.cls-4{fill:#231f20;}.cls-5{stroke:#000;stroke-miterlimit:10;stroke-width:0.1px;}</style></defs><g id="Capa_2" data-name="Capa 2"><g id="Capa_1-2" data-name="Capa 1"><path class="cls-1" d="M153.72,15.43c-6.86-10.36-22.87-6.7-35.11-6.72-2.19-.05-4.44-.13-6.73-.23C95.86,7.8,77.82,6.14,63,7.35A78.1,78.1,0,0,0,53,8.76c-29.52,10-19,31.93-17.33,50.68-4.42,5.43-13,12.18-28.69,13.78,0,0,15.81,1.25,28.05,5.19.54,7,3.35,13.43,13.9,17.88a33.54,33.54,0,0,0,8.41.95c3.12.11,6.16.12,9.16.07s6-.15,8.91-.26a204.42,204.42,0,0,1,26.31,0l6.58.3c14.5-.38,34.15,5.82,42.16-7.27,10.2-15.86,3.64-35.16,6.06-52.83.25-1.94.48-3.87.63-5.78C157.54,25.79,157.16,20.3,153.72,15.43Z"/><path class="cls-2" d="M149.13,9.33C142.26-1,126.25,2.63,114,2.61c-2.19,0-4.44-.13-6.73-.22C91.26,1.7,73.22,0,58.36,1.26a78.14,78.14,0,0,0-10,1.4c-25.91,8.77-21,26.75-18.25,43.69a13.42,13.42,0,0,1-5.62,13.08c-5,3.55-12.1,6.67-22.15,7.69A161.62,161.62,0,0,1,24.5,70.67a9,9,0,0,1,6.65,6.23c1.42,5.18,4.94,9.84,13.13,13.29a34,34,0,0,0,8.42,1c3.12.11,6.15.11,9.15.06s5.95-.15,8.91-.26a206.24,206.24,0,0,1,26.31,0l6.58.3c14.5-.38,34.16,5.83,42.16-7.27,10.2-15.86,3.65-35.16,6.06-52.82.25-2,.48-3.88.63-5.79C152.94,19.69,152.56,14.21,149.13,9.33Z"/><path class="cls-3" d="M29.7,52.21a13.25,13.25,0,0,0,3.13-10.8c-1.58-9.76-3.87-19.85-.59-28.34-7,9.32-4,21.55-2.14,33.28A13,13,0,0,1,29.7,52.21Z"/><path class="cls-3" d="M106.38,86.33,99.8,86a204.42,204.42,0,0,0-26.31,0c-3,.11-5.92.22-8.91.27s-6,0-9.16-.07a33.54,33.54,0,0,1-8.41-1C38.82,81.8,35.3,77.13,33.87,72a9,9,0,0,0-6.64-6.23c-3.58-.87-7.2-1.55-10.45-2.07A51.49,51.49,0,0,1,2.33,67.12,161.62,161.62,0,0,1,24.5,70.67a9,9,0,0,1,6.65,6.23c1.42,5.18,4.94,9.84,13.13,13.29a34,34,0,0,0,8.42,1c3.12.11,6.15.11,9.15.06s5.95-.15,8.91-.26a206.24,206.24,0,0,1,26.31,0l6.58.3c14.5-.38,34.16,5.83,42.16-7.27a33.62,33.62,0,0,0,2.42-4.47C140,92,120.69,86,106.38,86.33Z"/><path class="cls-4" d="M126.24,93.25c-3.59,0-7.32-.3-11-.6a112.38,112.38,0,0,0-11.54-.55l-5.24-.23L97,91.8c-9.35-.42-17.78-.73-26.2,0-2.86.11-5.88.22-9,.27-3.33,0-6.34,0-9.2-.07a34.89,34.89,0,0,1-8.6-1l-.13,0C36.35,87.75,32,83.35,30.3,77.11c-.75-2.76-3.24-4.59-6.2-5.31C13.41,69.19.11,66.6,0,66.6l4-.5c8.62-.88,14.17-3.2,20-7.32a12.6,12.6,0,0,0,5.28-12.3c-.18-1.09-.36-2.18-.55-3.27C26,27,23.13,10.32,48.06,1.88l.1,0A77.1,77.1,0,0,1,58.28.44C69.62-.49,82.74.24,95.43,1c3.94.22,8,.45,11.89.61,2.48.11,4.67.18,6.71.22,2.45,0,5-.14,7.79-.29,10.45-.59,22.3-1.25,28,7.39,3.8,5.41,3.91,11.42,3.51,16.58-.15,1.9-.38,3.84-.63,5.82-.84,6.11-.59,12.54-.34,18.75.46,11.74.93,23.87-5.84,34.41C142.17,91.61,134.61,93.25,126.24,93.25Zm-21.18-2.81c3.24,0,6.69.28,10.31.57,11.79.95,24,1.94,29.69-7.42,6.51-10.12,6.07-21.47,5.6-33.49-.25-6.29-.5-12.79.35-19,.25-2,.48-3.87.62-5.74.38-4.89.29-10.56-3.23-15.55v0c-5.19-7.83-16-7.22-26.47-6.64-2.77.16-5.39.3-7.91.3-2.07,0-4.28-.12-6.77-.22-3.88-.17-8-.39-11.91-.62-12.63-.7-25.69-1.43-36.9-.51a78.66,78.66,0,0,0-9.84,1.37c-23.5,8-20.92,23.29-18.18,39.5.19,1.09.37,2.19.55,3.28a14.18,14.18,0,0,1-6,13.86A43.18,43.18,0,0,1,8.65,67a152.68,152.68,0,0,1,16.07,2.89A9.86,9.86,0,0,1,32,76.69c1.56,5.71,5.56,9.75,12.58,12.72a32.87,32.87,0,0,0,8.12.91c2.86.1,5.84.12,9.15.07,3.06,0,6.07-.16,8.88-.27,8.49-.7,17-.4,26.39,0l1.41.06,5.17.24C104.14,90.44,104.6,90.44,105.06,90.44Z"/><path class="cls-5" d="M49.31,19a2.15,2.15,0,0,1,0-.4.58.58,0,0,1,.14-.27.61.61,0,0,1,.25-.14,2,2,0,0,1,.8,0,.65.65,0,0,1,.26.14.68.68,0,0,1,.13.27,2.25,2.25,0,0,1,0,.4,2.29,2.29,0,0,1,0,.41.68.68,0,0,1-.13.27.56.56,0,0,1-.26.15,2,2,0,0,1-.8,0,.53.53,0,0,1-.25-.15.58.58,0,0,1-.14-.27A2.18,2.18,0,0,1,49.31,19Zm.19,1.72a.2.2,0,0,1,0-.11.21.21,0,0,1,.1-.08l.2-.05.31,0,.31,0,.2.05a.27.27,0,0,1,.1.08.2.2,0,0,1,0,.11L50.93,26a.25.25,0,0,1,0,.13.23.23,0,0,1-.13.1.7.7,0,0,1-.24.06h-.39a2.18,2.18,0,0,1-.39,0,1.11,1.11,0,0,1-.24-.05.34.34,0,0,1-.13-.1.28.28,0,0,1,0-.13Z"/><path class="cls-5" d="M56.2,22.32V25a.21.21,0,0,1,0,.11.32.32,0,0,1-.13.08l-.23,0-.37,0-.38,0a1.19,1.19,0,0,1-.24,0,.23.23,0,0,1-.12-.08.15.15,0,0,1,0-.11V22.32L52.58,18.2a2.24,2.24,0,0,1-.14-.34.18.18,0,0,1,0-.18.46.46,0,0,1,.25-.08h.93a1.3,1.3,0,0,1,.26,0,.28.28,0,0,1,.14.09.74.74,0,0,1,.08.13L55,19.72c.09.18.17.37.25.57s.16.41.24.63h0c.08-.21.15-.42.23-.62s.15-.39.23-.57l.83-1.84a.35.35,0,0,1,.07-.15.3.3,0,0,1,.13-.09.72.72,0,0,1,.24,0h.93a.46.46,0,0,1,.25.08.18.18,0,0,1,0,.18,1.89,1.89,0,0,1-.14.34Z"/><path class="cls-5" d="M62.9,25a.17.17,0,0,1,0,.13.38.38,0,0,1-.19.07l-.37,0-.38,0a.3.3,0,0,1-.17-.07.14.14,0,0,1-.05-.13V24.6a2.43,2.43,0,0,1-.74.54,2.09,2.09,0,0,1-.91.19,2.7,2.7,0,0,1-.77-.11,1.73,1.73,0,0,1-.6-.32,1.52,1.52,0,0,1-.4-.53,1.88,1.88,0,0,1-.14-.74,1.65,1.65,0,0,1,.18-.79,1.52,1.52,0,0,1,.54-.56,2.74,2.74,0,0,1,.88-.32A6.27,6.27,0,0,1,61,21.85h.51v-.31a1.75,1.75,0,0,0-.05-.43.7.7,0,0,0-.16-.31.73.73,0,0,0-.31-.18,1.58,1.58,0,0,0-.47-.06,2.59,2.59,0,0,0-.66.08l-.51.18-.37.18a.51.51,0,0,1-.25.09.21.21,0,0,1-.11,0,.36.36,0,0,1-.08-.12.74.74,0,0,1-.05-.19,1.66,1.66,0,0,1,0-.24,1.07,1.07,0,0,1,0-.29.52.52,0,0,1,.11-.19,1.11,1.11,0,0,1,.29-.19,3.2,3.2,0,0,1,.48-.19,3.31,3.31,0,0,1,.6-.14,3.63,3.63,0,0,1,.67-.06,4,4,0,0,1,1,.12,1.76,1.76,0,0,1,.72.37,1.57,1.57,0,0,1,.41.64,3.18,3.18,0,0,1,.12.93Zm-1.44-2.23H60.9a3.49,3.49,0,0,0-.61,0,1.21,1.21,0,0,0-.41.16.61.61,0,0,0-.23.25.78.78,0,0,0-.08.35.65.65,0,0,0,.21.51.81.81,0,0,0,.58.19,1,1,0,0,0,.57-.16,2.38,2.38,0,0,0,.53-.46Z"/><path class="cls-5" d="M75.39,25a.13.13,0,0,1,0,.1.23.23,0,0,1-.11.07,1,1,0,0,1-.22,0H74.3a1,1,0,0,1-.23,0A.22.22,0,0,1,74,25.1a.17.17,0,0,1,0-.1V21.9a2.28,2.28,0,0,0,0-.48,1,1,0,0,0-.15-.37.85.85,0,0,0-.26-.24.72.72,0,0,0-.37-.09.85.85,0,0,0-.53.21,3.36,3.36,0,0,0-.59.6V25a.17.17,0,0,1,0,.1.35.35,0,0,1-.12.07l-.23,0h-.71a.9.9,0,0,1-.22,0,.22.22,0,0,1-.12-.07.13.13,0,0,1,0-.1V21.9a1.77,1.77,0,0,0,0-.48,1,1,0,0,0-.15-.37.72.72,0,0,0-.25-.24.75.75,0,0,0-.37-.09.88.88,0,0,0-.54.21,3.35,3.35,0,0,0-.58.6V25a.13.13,0,0,1,0,.1.22.22,0,0,1-.12.07.9.9,0,0,1-.22,0h-.71a1,1,0,0,1-.23,0,.22.22,0,0,1-.12-.07.18.18,0,0,1,0-.1V19.78a.2.2,0,0,1,0-.11.23.23,0,0,1,.11-.07.88.88,0,0,1,.2,0l.3,0,.31,0,.19,0a.22.22,0,0,1,.09.07.2.2,0,0,1,0,.11v.6a3.34,3.34,0,0,1,.87-.7,1.78,1.78,0,0,1,.89-.24,2,2,0,0,1,.58.07,1.48,1.48,0,0,1,.46.19,1.72,1.72,0,0,1,.35.3,1.8,1.8,0,0,1,.25.4A3.74,3.74,0,0,1,72.2,20a2.55,2.55,0,0,1,.44-.29,1.6,1.6,0,0,1,.44-.17,1.74,1.74,0,0,1,.45-.06,1.94,1.94,0,0,1,.88.18,1.46,1.46,0,0,1,.57.47,2.09,2.09,0,0,1,.32.71,3.89,3.89,0,0,1,.09.85Z"/><path class="cls-5" d="M81.66,22.23a.56.56,0,0,1-.12.4.42.42,0,0,1-.33.13H78a2.37,2.37,0,0,0,.08.61,1.21,1.21,0,0,0,.25.46,1.06,1.06,0,0,0,.44.29,2.13,2.13,0,0,0,.66.1,3.44,3.44,0,0,0,.68-.06,4.11,4.11,0,0,0,.5-.12l.36-.12a.61.61,0,0,1,.22-.06l.09,0a.13.13,0,0,1,.06.07.33.33,0,0,1,0,.15,1.85,1.85,0,0,1,0,.25v.22c0,.06,0,.11,0,.15a.36.36,0,0,1,0,.11.16.16,0,0,1-.06.08.58.58,0,0,1-.2.12,4.09,4.09,0,0,1-.44.13,4.23,4.23,0,0,1-.6.12,5.58,5.58,0,0,1-.73,0,3.78,3.78,0,0,1-1.22-.18,2,2,0,0,1-.87-.53,2.24,2.24,0,0,1-.53-.9,4.41,4.41,0,0,1-.17-1.28,4.06,4.06,0,0,1,.18-1.25,2.66,2.66,0,0,1,.53-1,2.17,2.17,0,0,1,.84-.59,3.13,3.13,0,0,1,2.23,0,1.86,1.86,0,0,1,.77.53,2.27,2.27,0,0,1,.44.81,3.64,3.64,0,0,1,.14,1Zm-1.43-.42a1.49,1.49,0,0,0-.25-1,1,1,0,0,0-.82-.36,1.07,1.07,0,0,0-.49.11.93.93,0,0,0-.34.28,1.2,1.2,0,0,0-.22.42,3,3,0,0,0-.08.52Z"/><path class="cls-5" d="M90.4,22.23a.56.56,0,0,1-.12.4.42.42,0,0,1-.33.13H86.77a2.37,2.37,0,0,0,.08.61,1.36,1.36,0,0,0,.25.46,1.17,1.17,0,0,0,.45.29,2.06,2.06,0,0,0,.65.1,3.37,3.37,0,0,0,.68-.06,4.3,4.3,0,0,0,.51-.12l.35-.12a.65.65,0,0,1,.23-.06l.09,0,.06.07,0,.15c0,.07,0,.15,0,.25s0,.16,0,.22a.61.61,0,0,1,0,.15.35.35,0,0,1,0,.11l-.06.08a.83.83,0,0,1-.21.12,3.84,3.84,0,0,1-.43.13,4.39,4.39,0,0,1-.61.12,5.43,5.43,0,0,1-.72,0,3.73,3.73,0,0,1-1.22-.18,2.12,2.12,0,0,1-.88-.53,2.23,2.23,0,0,1-.52-.9,4.66,4.66,0,0,1,0-2.53,2.64,2.64,0,0,1,.52-1,2.17,2.17,0,0,1,.84-.59,2.83,2.83,0,0,1,1.12-.21,2.88,2.88,0,0,1,1.12.2,1.9,1.9,0,0,1,.76.53,2.13,2.13,0,0,1,.44.81,3.31,3.31,0,0,1,.14,1ZM89,21.81a1.49,1.49,0,0,0-.24-1,1,1,0,0,0-.83-.36,1.1,1.1,0,0,0-.49.11,1,1,0,0,0-.34.28,1.38,1.38,0,0,0-.21.42,2.27,2.27,0,0,0-.09.52Z"/><path class="cls-5" d="M99.92,25a.13.13,0,0,1,0,.1.23.23,0,0,1-.11.07,1,1,0,0,1-.22,0h-.73a1,1,0,0,1-.22,0,.22.22,0,0,1-.12-.07.17.17,0,0,1,0-.1V21.9a2.28,2.28,0,0,0,0-.48,1,1,0,0,0-.15-.37.85.85,0,0,0-.26-.24.72.72,0,0,0-.37-.09.85.85,0,0,0-.53.21,3.36,3.36,0,0,0-.59.6V25a.17.17,0,0,1,0,.1.35.35,0,0,1-.12.07l-.23,0h-.71a.9.9,0,0,1-.22,0,.22.22,0,0,1-.12-.07.13.13,0,0,1,0-.1V21.9a2.28,2.28,0,0,0,0-.48,1,1,0,0,0-.15-.37.72.72,0,0,0-.25-.24.75.75,0,0,0-.37-.09.88.88,0,0,0-.54.21,3.35,3.35,0,0,0-.58.6V25a.13.13,0,0,1,0,.1.22.22,0,0,1-.12.07.9.9,0,0,1-.22,0H92a1,1,0,0,1-.22,0,.22.22,0,0,1-.12-.07.18.18,0,0,1,0-.1V19.78a.2.2,0,0,1,0-.11.23.23,0,0,1,.11-.07l.19,0,.31,0,.31,0,.19,0a.22.22,0,0,1,.09.07.2.2,0,0,1,0,.11v.6a3.34,3.34,0,0,1,.87-.7,1.78,1.78,0,0,1,.89-.24,2,2,0,0,1,.58.07,1.59,1.59,0,0,1,.46.19A1.72,1.72,0,0,1,96,20a1.8,1.8,0,0,1,.25.4,3.74,3.74,0,0,1,.46-.44,2.22,2.22,0,0,1,.44-.29,1.6,1.6,0,0,1,.44-.17,1.74,1.74,0,0,1,.45-.06,1.94,1.94,0,0,1,.88.18,1.46,1.46,0,0,1,.57.47,2.09,2.09,0,0,1,.32.71,3.89,3.89,0,0,1,.09.85Z"/><path class="cls-5" d="M106.64,22.33a3.91,3.91,0,0,1-.17,1.22,2.75,2.75,0,0,1-.53.95,2.39,2.39,0,0,1-.9.61,3.26,3.26,0,0,1-1.26.22,3.42,3.42,0,0,1-1.21-.19,2.22,2.22,0,0,1-.85-.56,2.32,2.32,0,0,1-.51-.91,4.22,4.22,0,0,1-.16-1.23,3.91,3.91,0,0,1,.18-1.22,2.52,2.52,0,0,1,.53-.95,2.39,2.39,0,0,1,.9-.61,3.17,3.17,0,0,1,1.25-.22,3.72,3.72,0,0,1,1.22.19,2.22,2.22,0,0,1,.85.56,2.43,2.43,0,0,1,.5.91A4.22,4.22,0,0,1,106.64,22.33Zm-1.51.06a3.92,3.92,0,0,0-.06-.71,1.56,1.56,0,0,0-.21-.56,1.09,1.09,0,0,0-.39-.38,1.25,1.25,0,0,0-.61-.13,1.34,1.34,0,0,0-.58.12,1,1,0,0,0-.4.35,2,2,0,0,0-.24.55,3.36,3.36,0,0,0-.08.74,4,4,0,0,0,.07.72,1.63,1.63,0,0,0,.21.56.93.93,0,0,0,.39.37,1.21,1.21,0,0,0,.6.13,1.28,1.28,0,0,0,.58-.12,1,1,0,0,0,.41-.34,1.78,1.78,0,0,0,.23-.56A3.22,3.22,0,0,0,105.13,22.39Z"/><path class="cls-5" d="M111.76,24.17a1.85,1.85,0,0,1,0,.25.72.72,0,0,1,0,.17.34.34,0,0,1,0,.12.35.35,0,0,1-.09.11,1.63,1.63,0,0,1-.24.16,1.9,1.9,0,0,1-.38.17,2.42,2.42,0,0,1-.48.13,3.31,3.31,0,0,1-1.59-.14,2,2,0,0,1-.78-.56,2.45,2.45,0,0,1-.48-.89,4.36,4.36,0,0,1-.16-1.2,4.19,4.19,0,0,1,.2-1.36,2.41,2.41,0,0,1,.55-.94,2.14,2.14,0,0,1,.83-.56,3,3,0,0,1,1.05-.18,2.32,2.32,0,0,1,.46,0,2.58,2.58,0,0,1,.42.11,2.29,2.29,0,0,1,.35.16,1,1,0,0,1,.22.15.27.27,0,0,1,.09.11.36.36,0,0,1,0,.11l0,.18c0,.06,0,.15,0,.24a1.32,1.32,0,0,1-.06.48c0,.09-.09.14-.15.14a.42.42,0,0,1-.22-.08,2,2,0,0,0-.26-.18,2,2,0,0,0-.36-.19,1.5,1.5,0,0,0-.5-.08,1,1,0,0,0-.88.44,2.25,2.25,0,0,0-.31,1.3,3.22,3.22,0,0,0,.08.74,1.69,1.69,0,0,0,.22.54,1,1,0,0,0,.38.33,1.21,1.21,0,0,0,.52.11,1.22,1.22,0,0,0,.53-.1,1.94,1.94,0,0,0,.38-.2,2.37,2.37,0,0,0,.27-.2.35.35,0,0,1,.19-.09.12.12,0,0,1,.09,0,.36.36,0,0,1,.06.11c0,.05,0,.12,0,.2A2.92,2.92,0,0,1,111.76,24.17Z"/><path class="cls-5" d="M114.41,18a.82.82,0,0,1-.18.61,1.44,1.44,0,0,1-1.34,0,.79.79,0,0,1-.18-.59.83.83,0,0,1,.18-.62,1,1,0,0,1,.68-.17,1,1,0,0,1,.67.16A.86.86,0,0,1,114.41,18Zm-.11,7a.13.13,0,0,1,0,.1.22.22,0,0,1-.12.07.9.9,0,0,1-.22,0h-.71a1,1,0,0,1-.23,0,.22.22,0,0,1-.12-.07.18.18,0,0,1,0-.1V19.79a.21.21,0,0,1,0-.11.31.31,0,0,1,.12-.07,1,1,0,0,1,.23-.05l.35,0,.36,0a.9.9,0,0,1,.22.05.31.31,0,0,1,.12.07.15.15,0,0,1,0,.11Z"/><path class="cls-5" d="M121.05,22.33a3.91,3.91,0,0,1-.18,1.22,2.46,2.46,0,0,1-.53.95,2.39,2.39,0,0,1-.9.61,3.17,3.17,0,0,1-1.25.22,3.47,3.47,0,0,1-1.22-.19,2.14,2.14,0,0,1-1.35-1.47,4.2,4.2,0,0,1-.17-1.23,3.91,3.91,0,0,1,.18-1.22,2.54,2.54,0,0,1,.54-.95,2.28,2.28,0,0,1,.89-.61,3.24,3.24,0,0,1,1.25-.22,3.68,3.68,0,0,1,1.22.19,2.14,2.14,0,0,1,.85.56,2.18,2.18,0,0,1,.5.91A4.2,4.2,0,0,1,121.05,22.33Zm-1.52.06a3.92,3.92,0,0,0-.06-.71,1.56,1.56,0,0,0-.21-.56,1,1,0,0,0-.39-.38,1.23,1.23,0,0,0-.61-.13,1.26,1.26,0,0,0-.57.12.91.91,0,0,0-.4.35,1.53,1.53,0,0,0-.24.55,3.36,3.36,0,0,0-.08.74,4,4,0,0,0,.06.72,2.17,2.17,0,0,0,.21.56,1.06,1.06,0,0,0,.39.37,1.25,1.25,0,0,0,.61.13,1.34,1.34,0,0,0,.58-.12,1,1,0,0,0,.4-.34,1.58,1.58,0,0,0,.24-.56A3.26,3.26,0,0,0,119.53,22.39Z"/><path class="cls-5" d="M127.2,25a.17.17,0,0,1,0,.1.35.35,0,0,1-.12.07,1,1,0,0,1-.23,0h-.71a1,1,0,0,1-.23,0,.23.23,0,0,1-.11-.07.13.13,0,0,1,0-.1V22a3,3,0,0,0,0-.6,1.05,1.05,0,0,0-.17-.37.78.78,0,0,0-.27-.24.8.8,0,0,0-.39-.09,1,1,0,0,0-.56.21,2.61,2.61,0,0,0-.6.6V25a.13.13,0,0,1,0,.1.22.22,0,0,1-.12.07.9.9,0,0,1-.22,0h-.72a1,1,0,0,1-.22,0,.22.22,0,0,1-.12-.07.13.13,0,0,1,0-.1V19.78a.2.2,0,0,1,0-.11.23.23,0,0,1,.11-.07l.19,0,.3,0,.32,0,.19,0a.22.22,0,0,1,.09.07.2.2,0,0,1,0,.11v.6a3.22,3.22,0,0,1,.88-.7,2,2,0,0,1,.94-.24,2,2,0,0,1,.89.18,1.49,1.49,0,0,1,.6.47,2.09,2.09,0,0,1,.32.71,3.91,3.91,0,0,1,.1,1Z"/><path class="cls-5" d="M133.47,22.23a.56.56,0,0,1-.12.4.42.42,0,0,1-.33.13h-3.18a2.37,2.37,0,0,0,.08.61,1.21,1.21,0,0,0,.25.46,1.1,1.1,0,0,0,.45.29,2,2,0,0,0,.65.1,3.44,3.44,0,0,0,.68-.06,4.11,4.11,0,0,0,.5-.12l.36-.12a.6.6,0,0,1,.23-.06l.08,0a.13.13,0,0,1,.06.07.33.33,0,0,1,0,.15,1.85,1.85,0,0,1,0,.25v.22c0,.06,0,.11,0,.15a.36.36,0,0,1,0,.11.16.16,0,0,1-.06.08.58.58,0,0,1-.2.12,4.09,4.09,0,0,1-.44.13,4,4,0,0,1-.6.12,5.58,5.58,0,0,1-.73,0,3.78,3.78,0,0,1-1.22-.18,2,2,0,0,1-.87-.53,2.24,2.24,0,0,1-.53-.9,4.41,4.41,0,0,1-.17-1.28,4.06,4.06,0,0,1,.18-1.25,2.66,2.66,0,0,1,.53-1,2.17,2.17,0,0,1,.84-.59,2.83,2.83,0,0,1,1.12-.21,2.91,2.91,0,0,1,1.12.2,1.9,1.9,0,0,1,.76.53,2.27,2.27,0,0,1,.44.81,3.64,3.64,0,0,1,.14,1ZM132,21.81a1.49,1.49,0,0,0-.25-1,1,1,0,0,0-.82-.36,1.07,1.07,0,0,0-.49.11.93.93,0,0,0-.34.28,1,1,0,0,0-.21.42,2.27,2.27,0,0,0-.09.52Zm-.82-4.6a.48.48,0,0,1,.09-.11.52.52,0,0,1,.15-.07l.22,0H132l.43,0a.71.71,0,0,1,.22.07.12.12,0,0,1,.06.1.17.17,0,0,1-.06.12l-1.13,1.36-.1.1-.12.06-.18,0h-.28l-.33,0a.34.34,0,0,1-.17-.06.08.08,0,0,1,0-.09.24.24,0,0,1,.06-.14Z"/><path class="cls-5" d="M47.67,39.46a.18.18,0,0,1-.06.13.38.38,0,0,1-.19.06,1.79,1.79,0,0,1-.37,0,1.9,1.9,0,0,1-.38,0,.3.3,0,0,1-.17-.06.21.21,0,0,1,0-.13V39a2.43,2.43,0,0,1-.74.54,2.09,2.09,0,0,1-.91.19,2.39,2.39,0,0,1-.77-.11,1.58,1.58,0,0,1-.6-.32,1.38,1.38,0,0,1-.39-.53,2,2,0,0,1,0-1.53,1.42,1.42,0,0,1,.54-.55,2.53,2.53,0,0,1,.88-.33,6.33,6.33,0,0,1,1.22-.1h.51V36a1.81,1.81,0,0,0,0-.43.76.76,0,0,0-.16-.31.73.73,0,0,0-.31-.18,1.53,1.53,0,0,0-.47-.06,2.59,2.59,0,0,0-.66.08,4.23,4.23,0,0,0-.51.19,2.57,2.57,0,0,0-.37.18.6.6,0,0,1-.24.08.16.16,0,0,1-.12,0,.36.36,0,0,1-.08-.12.74.74,0,0,1,0-.19,1.66,1.66,0,0,1,0-.24,1.12,1.12,0,0,1,0-.29.52.52,0,0,1,.11-.19,1.44,1.44,0,0,1,.29-.19c.14-.06.3-.13.48-.19s.38-.1.6-.14a3.71,3.71,0,0,1,.67,0,4.51,4.51,0,0,1,1,.11,1.89,1.89,0,0,1,.72.37,1.57,1.57,0,0,1,.41.64,3.28,3.28,0,0,1,.13.94Zm-1.45-2.24h-.56a3.49,3.49,0,0,0-.61.05,1.3,1.3,0,0,0-.41.16.63.63,0,0,0-.23.26.74.74,0,0,0-.07.34.63.63,0,0,0,.2.51.81.81,0,0,0,.58.19,1,1,0,0,0,.57-.16,2.38,2.38,0,0,0,.53-.46Z"/><path class="cls-5" d="M54.39,36.75A4.84,4.84,0,0,1,54.24,38a2.86,2.86,0,0,1-.43,1,2,2,0,0,1-.72.6,2.17,2.17,0,0,1-1,.21,1.73,1.73,0,0,1-.41,0,1.28,1.28,0,0,1-.37-.14,2.32,2.32,0,0,1-.36-.22c-.11-.09-.24-.2-.36-.32v2.46a.2.2,0,0,1,0,.11l-.12.08-.23,0h-.71l-.23,0a.31.31,0,0,1-.12-.08.21.21,0,0,1,0-.11V34.22a.17.17,0,0,1,0-.1.24.24,0,0,1,.11-.08l.19,0,.3,0,.3,0,.19,0a.21.21,0,0,1,.1.08.17.17,0,0,1,0,.1v.61a5.57,5.57,0,0,1,.45-.41,2.93,2.93,0,0,1,.45-.3,2.07,2.07,0,0,1,.47-.18,2.14,2.14,0,0,1,.52,0,2,2,0,0,1,1,.22,1.87,1.87,0,0,1,.66.62,2.56,2.56,0,0,1,.37.91A5,5,0,0,1,54.39,36.75Zm-1.53.11a4.37,4.37,0,0,0,0-.64,2.09,2.09,0,0,0-.17-.55,1,1,0,0,0-.32-.38.77.77,0,0,0-.49-.15,1,1,0,0,0-.29,0,1.09,1.09,0,0,0-.29.14,2.25,2.25,0,0,0-.31.26,3.68,3.68,0,0,0-.33.39V37.7a3.85,3.85,0,0,0,.59.61,1,1,0,0,0,.59.21.81.81,0,0,0,.49-.15,1.12,1.12,0,0,0,.33-.38,2.22,2.22,0,0,0,.19-.53A3.05,3.05,0,0,0,52.86,36.86Z"/><path class="cls-5" d="M58.92,34.7c0,.14,0,.26,0,.35s0,.16,0,.21a.23.23,0,0,1-.07.11s-.05,0-.09,0a.23.23,0,0,1-.11,0l-.13,0-.16,0a.58.58,0,0,0-.19,0,.53.53,0,0,0-.25,0,.83.83,0,0,0-.25.15,2.46,2.46,0,0,0-.28.28,3.64,3.64,0,0,0-.31.44v3.25a.17.17,0,0,1,0,.1.36.36,0,0,1-.12.08l-.23,0H56l-.23,0a.36.36,0,0,1-.12-.08.17.17,0,0,1,0-.1V34.22a.17.17,0,0,1,0-.1.21.21,0,0,1,.1-.08l.2,0,.3,0,.31,0a.69.69,0,0,1,.19,0,.21.21,0,0,1,.1.08.17.17,0,0,1,0,.1v.65a3,3,0,0,1,.38-.48,2.36,2.36,0,0,1,.35-.31,1.21,1.21,0,0,1,.33-.15,1.12,1.12,0,0,1,.32,0h.17l.18,0,.16,0,.11.06s0,0,0,.06a.62.62,0,0,1,0,.1s0,.1,0,.18Z"/><path class="cls-5" d="M64.52,36.68a.58.58,0,0,1-.12.4.45.45,0,0,1-.33.12H60.89a1.92,1.92,0,0,0,.08.61,1.09,1.09,0,0,0,.25.46,1,1,0,0,0,.44.29,1.83,1.83,0,0,0,.66.1,4.61,4.61,0,0,0,.68,0,4,4,0,0,0,.5-.13l.36-.12a.56.56,0,0,1,.22-.06l.09,0a.28.28,0,0,1,.06.08.28.28,0,0,1,0,.15,1.63,1.63,0,0,1,0,.24,1.41,1.41,0,0,1,0,.22.66.66,0,0,1,0,.15.28.28,0,0,1,0,.11.24.24,0,0,1-.06.09.6.6,0,0,1-.21.11,3.11,3.11,0,0,1-.43.14c-.18,0-.38.08-.6.11a4.26,4.26,0,0,1-.73.05A4.08,4.08,0,0,1,61,39.6a2.14,2.14,0,0,1-.87-.54,2.11,2.11,0,0,1-.53-.9,4.34,4.34,0,0,1-.17-1.27,4.08,4.08,0,0,1,.18-1.26,2.66,2.66,0,0,1,.53-1,2.29,2.29,0,0,1,.84-.59,2.82,2.82,0,0,1,1.11-.2,2.88,2.88,0,0,1,1.12.19,2.16,2.16,0,0,1,.77.53,2.27,2.27,0,0,1,.44.81,3.75,3.75,0,0,1,.14,1Zm-1.43-.42a1.52,1.52,0,0,0-.25-1,1,1,0,0,0-.82-.35,1.07,1.07,0,0,0-.49.1,1,1,0,0,0-.35.29,1.27,1.27,0,0,0-.21.42,2.1,2.1,0,0,0-.08.52Z"/><path class="cls-5" d="M70.72,39.44a.18.18,0,0,1,0,.1.23.23,0,0,1-.12.08l-.22,0h-.72l-.22,0a.23.23,0,0,1-.12-.08.17.17,0,0,1,0-.1v-3a2.41,2.41,0,0,0-.06-.6,1.38,1.38,0,0,0-.16-.37.78.78,0,0,0-.27-.24.93.93,0,0,0-.39-.08,1,1,0,0,0-.57.2,3.38,3.38,0,0,0-.6.6v3.47a.17.17,0,0,1,0,.1.36.36,0,0,1-.12.08l-.23,0h-.71l-.23,0a.36.36,0,0,1-.12-.08.17.17,0,0,1,0-.1V34.22a.17.17,0,0,1,0-.1.21.21,0,0,1,.1-.08l.2,0,.3,0,.31,0a.69.69,0,0,1,.19,0,.21.21,0,0,1,.1.08.17.17,0,0,1,0,.1v.6a3.26,3.26,0,0,1,.88-.7,1.94,1.94,0,0,1,.93-.23,2,2,0,0,1,.9.17,1.64,1.64,0,0,1,.59.48,2,2,0,0,1,.33.7,4.52,4.52,0,0,1,.1,1Z"/><path class="cls-5" d="M77.11,39.44a.2.2,0,0,1,0,.11.2.2,0,0,1-.1.07.69.69,0,0,1-.19,0h-.6l-.19,0a.2.2,0,0,1-.1-.07.2.2,0,0,1,0-.11v-.58a3.43,3.43,0,0,1-.85.67,2,2,0,0,1-1,.24,2,2,0,0,1-1-.23,1.9,1.9,0,0,1-.67-.62A2.63,2.63,0,0,1,72,38a4.88,4.88,0,0,1-.12-1.1A4.76,4.76,0,0,1,72,35.65a2.88,2.88,0,0,1,.44-.95,2,2,0,0,1,.71-.6,2.08,2.08,0,0,1,1-.21,1.74,1.74,0,0,1,.8.17,2.79,2.79,0,0,1,.71.53V31.76a.23.23,0,0,1,0-.11.22.22,0,0,1,.12-.07.6.6,0,0,1,.22,0,3.25,3.25,0,0,1,.72,0,.6.6,0,0,1,.22,0,.35.35,0,0,1,.12.07.23.23,0,0,1,0,.11ZM75.65,36a3.18,3.18,0,0,0-.61-.61,1,1,0,0,0-.6-.21.84.84,0,0,0-.5.15.94.94,0,0,0-.33.38,2.22,2.22,0,0,0-.19.53,3.08,3.08,0,0,0-.06.61,4.48,4.48,0,0,0,0,.64,2.22,2.22,0,0,0,.18.55,1.1,1.1,0,0,0,.31.39.85.85,0,0,0,.51.15.93.93,0,0,0,.29-.05,1,1,0,0,0,.3-.14,1.74,1.74,0,0,0,.3-.26,5.24,5.24,0,0,0,.35-.4Z"/><path class="cls-5" d="M80.18,32.45a.85.85,0,0,1-.18.62,1,1,0,0,1-.68.17,1,1,0,0,1-.67-.17.83.83,0,0,1-.17-.59.85.85,0,0,1,.18-.62,1,1,0,0,1,.68-.17,1,1,0,0,1,.66.17A.79.79,0,0,1,80.18,32.45Zm-.11,7a.13.13,0,0,1,0,.1.23.23,0,0,1-.12.08l-.22,0H79l-.22,0a.23.23,0,0,1-.12-.08.13.13,0,0,1,0-.1V34.23a.13.13,0,0,1,0-.1.23.23,0,0,1,.12-.08A.9.9,0,0,1,79,34l.36,0,.36,0a.9.9,0,0,1,.22,0,.23.23,0,0,1,.12.08.13.13,0,0,1,0,.1Z"/><path class="cls-5" d="M86.36,36.68a.58.58,0,0,1-.12.4.45.45,0,0,1-.33.12H82.73a2.25,2.25,0,0,0,.08.61,1.21,1.21,0,0,0,.25.46,1.06,1.06,0,0,0,.45.29,1.81,1.81,0,0,0,.65.1,4.5,4.5,0,0,0,.68,0,4,4,0,0,0,.5-.13l.36-.12a.6.6,0,0,1,.23-.06l.08,0a.12.12,0,0,1,.06.08.39.39,0,0,1,0,.15V39c0,.06,0,.11,0,.15a.81.81,0,0,1,0,.11l-.07.09a.62.62,0,0,1-.2.11,3.88,3.88,0,0,1-.44.14,6,6,0,0,1-.6.11,4.26,4.26,0,0,1-.73.05,4.08,4.08,0,0,1-1.22-.17,2.21,2.21,0,0,1-.87-.54,2.1,2.1,0,0,1-.52-.9,4,4,0,0,1-.18-1.27,4.08,4.08,0,0,1,.18-1.26,2.82,2.82,0,0,1,.53-1,2.29,2.29,0,0,1,.84-.59,2.83,2.83,0,0,1,1.12-.2,2.92,2.92,0,0,1,1.12.19,2,2,0,0,1,1.2,1.34,3.75,3.75,0,0,1,.14,1Zm-1.43-.42a1.52,1.52,0,0,0-.25-1,.94.94,0,0,0-.82-.35,1.07,1.07,0,0,0-.49.1,1,1,0,0,0-.34.29,1.27,1.27,0,0,0-.21.42,2.09,2.09,0,0,0-.09.52Z"/><path class="cls-5" d="M92.56,39.44a.13.13,0,0,1,0,.1.24.24,0,0,1-.11.08l-.23,0h-.71l-.23,0a.36.36,0,0,1-.12-.08.17.17,0,0,1,0-.1v-3a2.41,2.41,0,0,0-.06-.6,1.12,1.12,0,0,0-.16-.37.78.78,0,0,0-.27-.24.93.93,0,0,0-.39-.08,1,1,0,0,0-.57.2,3.06,3.06,0,0,0-.59.6v3.47a.13.13,0,0,1,0,.1.23.23,0,0,1-.12.08l-.22,0H88l-.22,0a.23.23,0,0,1-.12-.08.13.13,0,0,1,0-.1V34.22a.17.17,0,0,1,0-.1.24.24,0,0,1,.11-.08l.19,0,.3,0,.31,0a.61.61,0,0,1,.19,0,.21.21,0,0,1,.1.08.17.17,0,0,1,0,.1v.6a3.42,3.42,0,0,1,.88-.7,1.94,1.94,0,0,1,.93-.23,2,2,0,0,1,.9.17,1.56,1.56,0,0,1,.59.48,2,2,0,0,1,.33.7,4,4,0,0,1,.1,1Z"/><path class="cls-5" d="M99,39.44a.2.2,0,0,1,0,.11.26.26,0,0,1-.1.07l-.19,0H98l-.19,0a.23.23,0,0,1-.11-.07.2.2,0,0,1,0-.11v-.58a3.25,3.25,0,0,1-.85.67,2.22,2.22,0,0,1-2,0,1.9,1.9,0,0,1-.67-.62,2.83,2.83,0,0,1-.38-.92,4.89,4.89,0,0,1-.11-1.1,5.25,5.25,0,0,1,.14-1.25,2.88,2.88,0,0,1,.44-.95,1.9,1.9,0,0,1,.72-.6,2.05,2.05,0,0,1,1-.21,1.7,1.7,0,0,1,.79.17,2.79,2.79,0,0,1,.71.53V31.76a.23.23,0,0,1,0-.11.35.35,0,0,1,.12-.07.66.66,0,0,1,.23,0,1.78,1.78,0,0,1,.35,0,1.84,1.84,0,0,1,.36,0,.55.55,0,0,1,.22,0,.22.22,0,0,1,.12.07.25.25,0,0,1,0,.11ZM97.49,36a3.48,3.48,0,0,0-.6-.61,1,1,0,0,0-.61-.21.81.81,0,0,0-.49.15,1,1,0,0,0-.34.38,2.21,2.21,0,0,0-.18.53,2.48,2.48,0,0,0-.07.61,3.39,3.39,0,0,0,.06.64,1.86,1.86,0,0,0,.17.55,1.12,1.12,0,0,0,.32.39.8.8,0,0,0,.5.15,1,1,0,0,0,.3-.05,1.09,1.09,0,0,0,.29-.14,2.25,2.25,0,0,0,.31-.26c.1-.11.22-.24.34-.4Z"/><path class="cls-5" d="M105.72,36.78a3.84,3.84,0,0,1-.18,1.21,2.52,2.52,0,0,1-.53.95,2.42,2.42,0,0,1-.9.62,3.92,3.92,0,0,1-2.47,0,2.22,2.22,0,0,1-.85-.56,2.32,2.32,0,0,1-.51-.91,4.58,4.58,0,0,1-.16-1.23,4,4,0,0,1,.18-1.22,2.62,2.62,0,0,1,.54-.95,2.39,2.39,0,0,1,.89-.61,3.37,3.37,0,0,1,1.25-.21,3.44,3.44,0,0,1,1.22.19,2.09,2.09,0,0,1,.85.55,2.3,2.3,0,0,1,.5.91A4.22,4.22,0,0,1,105.72,36.78Zm-1.52,0a4,4,0,0,0-.06-.71,1.63,1.63,0,0,0-.21-.56,1.09,1.09,0,0,0-.39-.38,1.23,1.23,0,0,0-.61-.13,1.26,1.26,0,0,0-.57.12,1.07,1.07,0,0,0-.41.35,1.78,1.78,0,0,0-.23.56,2.75,2.75,0,0,0-.08.74,3.92,3.92,0,0,0,.06.71,1.63,1.63,0,0,0,.21.56,1,1,0,0,0,.39.38,1.38,1.38,0,0,0,.61.13,1.34,1.34,0,0,0,.58-.12,1,1,0,0,0,.4-.35,1.52,1.52,0,0,0,.23-.55A2.88,2.88,0,0,0,104.2,36.83Z"/><path class="cls-5" d="M112.68,38.92a2,2,0,0,1,0,.4.34.34,0,0,1-.09.19.36.36,0,0,1-.15.1,1.35,1.35,0,0,1-.24.08l-.3.05-.32,0a2.13,2.13,0,0,1-.76-.12,1.16,1.16,0,0,1-.54-.34,1.47,1.47,0,0,1-.31-.58,3.31,3.31,0,0,1-.1-.83V35.21h-.62c-.08,0-.13,0-.17-.13a1.3,1.3,0,0,1-.06-.46,2.44,2.44,0,0,1,0-.29.56.56,0,0,1,0-.18.2.2,0,0,1,.07-.1.17.17,0,0,1,.1,0h.62V32.85a.14.14,0,0,1,0-.1.24.24,0,0,1,.11-.08l.23-.05h.71a1,1,0,0,1,.23.05.36.36,0,0,1,.12.08.19.19,0,0,1,0,.1V34h1.14a.17.17,0,0,1,.1,0,.2.2,0,0,1,.07.1.56.56,0,0,1,0,.18,2.44,2.44,0,0,1,0,.29,1.3,1.3,0,0,1-.06.46c0,.09-.09.13-.17.13h-1.14v2.46a1.24,1.24,0,0,0,.14.64.53.53,0,0,0,.48.21l.21,0,.16,0,.13,0a.15.15,0,0,1,.09,0,.11.11,0,0,1,.07,0s0,0,0,.08a.53.53,0,0,1,0,.17A2,2,0,0,1,112.68,38.92Z"/><path class="cls-5" d="M118.08,39.46a.18.18,0,0,1-.06.13.38.38,0,0,1-.18.06,2,2,0,0,1-.38,0,1.9,1.9,0,0,1-.38,0,.3.3,0,0,1-.17-.06.21.21,0,0,1,0-.13V39a2.39,2.39,0,0,1-.73.54,2.13,2.13,0,0,1-.92.19,2.29,2.29,0,0,1-.76-.11,1.55,1.55,0,0,1-.61-.32,1.38,1.38,0,0,1-.39-.53,1.92,1.92,0,0,1,0-1.53,1.33,1.33,0,0,1,.53-.55,2.53,2.53,0,0,1,.88-.33,6.33,6.33,0,0,1,1.22-.1h.51V36a1.41,1.41,0,0,0,0-.43.76.76,0,0,0-.16-.31.73.73,0,0,0-.31-.18,1.53,1.53,0,0,0-.47-.06,2.71,2.71,0,0,0-.66.08,4.23,4.23,0,0,0-.51.19,2.57,2.57,0,0,0-.37.18.6.6,0,0,1-.24.08.17.17,0,0,1-.12,0,.36.36,0,0,1-.08-.12.74.74,0,0,1,0-.19,1.66,1.66,0,0,1,0-.24,1.12,1.12,0,0,1,0-.29.52.52,0,0,1,.11-.19,1.44,1.44,0,0,1,.29-.19c.14-.06.3-.13.48-.19s.38-.1.6-.14a3.71,3.71,0,0,1,.67,0,4.51,4.51,0,0,1,1,.11,1.89,1.89,0,0,1,.72.37A1.47,1.47,0,0,1,118,35a3.28,3.28,0,0,1,.13.94Zm-1.45-2.24h-.56a3.49,3.49,0,0,0-.61.05,1.3,1.3,0,0,0-.41.16.71.71,0,0,0-.23.26.74.74,0,0,0-.07.34.64.64,0,0,0,.21.51.79.79,0,0,0,.57.19,1,1,0,0,0,.57-.16,2.18,2.18,0,0,0,.53-.46Z"/><path class="cls-5" d="M124.53,39.44a.17.17,0,0,1,0,.1.23.23,0,0,1-.12.08l-.22,0h-.72l-.22,0a.23.23,0,0,1-.12-.08.18.18,0,0,1,0-.1v-3a2.48,2.48,0,0,0,0-.6,1.38,1.38,0,0,0-.16-.37.78.78,0,0,0-.27-.24.93.93,0,0,0-.39-.08,1,1,0,0,0-.57.2,3.38,3.38,0,0,0-.6.6v3.47a.17.17,0,0,1,0,.1.36.36,0,0,1-.12.08l-.23,0h-.71l-.23,0a.36.36,0,0,1-.12-.08.17.17,0,0,1,0-.1V34.22a.17.17,0,0,1,0-.1.21.21,0,0,1,.1-.08l.2,0,.3,0,.31,0,.19,0a.27.27,0,0,1,.1.08.17.17,0,0,1,0,.1v.6a3.26,3.26,0,0,1,.88-.7,1.94,1.94,0,0,1,.93-.23,2.07,2.07,0,0,1,.9.17,1.64,1.64,0,0,1,.59.48,1.8,1.8,0,0,1,.32.7,4,4,0,0,1,.1,1Z"/><path class="cls-5" d="M129,38.92a2,2,0,0,1,0,.4.34.34,0,0,1-.09.19.36.36,0,0,1-.15.1,1.35,1.35,0,0,1-.24.08l-.3.05-.33,0a2.2,2.2,0,0,1-.76-.12,1.19,1.19,0,0,1-.53-.34,1.47,1.47,0,0,1-.31-.58,2.9,2.9,0,0,1-.1-.83V35.21h-.63a.19.19,0,0,1-.17-.13,1.67,1.67,0,0,1,0-.46,2.44,2.44,0,0,1,0-.29.6.6,0,0,1,0-.18.21.21,0,0,1,.08-.1.17.17,0,0,1,.1,0h.62V32.85a.19.19,0,0,1,0-.1.23.23,0,0,1,.12-.08,1,1,0,0,1,.23-.05h.71a1,1,0,0,1,.23.05.24.24,0,0,1,.11.08.14.14,0,0,1,0,.1V34h1.13a.2.2,0,0,1,.11,0,.2.2,0,0,1,.07.1.6.6,0,0,1,0,.18,2.19,2.19,0,0,1,0,.29,1.3,1.3,0,0,1-.06.46.19.19,0,0,1-.17.13h-1.14v2.46a1.25,1.25,0,0,0,.13.64.53.53,0,0,0,.48.21l.21,0a.69.69,0,0,0,.17,0l.12,0a.2.2,0,0,1,.1,0,.07.07,0,0,1,.06,0,.12.12,0,0,1,0,.08,1.39,1.39,0,0,1,0,.17A1.84,1.84,0,0,1,129,38.92Z"/><path class="cls-5" d="M134.36,39.46a.18.18,0,0,1-.06.13.38.38,0,0,1-.19.06,1.79,1.79,0,0,1-.37,0,1.9,1.9,0,0,1-.38,0,.3.3,0,0,1-.17-.06.21.21,0,0,1-.05-.13V39a2.43,2.43,0,0,1-.74.54,2.09,2.09,0,0,1-.91.19,2.39,2.39,0,0,1-.77-.11,1.58,1.58,0,0,1-.6-.32,1.38,1.38,0,0,1-.39-.53,2,2,0,0,1,0-1.53,1.42,1.42,0,0,1,.54-.55,2.53,2.53,0,0,1,.88-.33,6.33,6.33,0,0,1,1.22-.1h.51V36a1.81,1.81,0,0,0,0-.43.76.76,0,0,0-.16-.31.73.73,0,0,0-.31-.18,1.53,1.53,0,0,0-.47-.06,2.71,2.71,0,0,0-.66.08,4.23,4.23,0,0,0-.51.19,2.57,2.57,0,0,0-.37.18.6.6,0,0,1-.24.08.16.16,0,0,1-.12,0,.36.36,0,0,1-.08-.12.74.74,0,0,1-.05-.19,1.66,1.66,0,0,1,0-.24,1.12,1.12,0,0,1,0-.29.52.52,0,0,1,.11-.19,1.44,1.44,0,0,1,.29-.19c.14-.06.3-.13.48-.19s.38-.1.6-.14a3.71,3.71,0,0,1,.67,0,4.51,4.51,0,0,1,1,.11,1.89,1.89,0,0,1,.72.37,1.47,1.47,0,0,1,.41.64,3.28,3.28,0,0,1,.13.94Zm-1.45-2.24h-.56a3.49,3.49,0,0,0-.61.05,1.3,1.3,0,0,0-.41.16.63.63,0,0,0-.23.26A.74.74,0,0,0,131,38a.63.63,0,0,0,.2.51.81.81,0,0,0,.58.19,1,1,0,0,0,.57-.16,2.38,2.38,0,0,0,.53-.46Z"/><path class="cls-5" d="M139.5,38a1.67,1.67,0,0,1-.17.79,1.52,1.52,0,0,1-.47.57,2.18,2.18,0,0,1-.72.34,3.17,3.17,0,0,1-.9.11,3.43,3.43,0,0,1-.56,0l-.47-.11a3.42,3.42,0,0,1-.36-.14,1,1,0,0,1-.2-.13.43.43,0,0,1-.1-.19,1.92,1.92,0,0,1,0-.39,2.18,2.18,0,0,1,0-.28.65.65,0,0,1,0-.16.18.18,0,0,1,.06-.08s0,0,.09,0a.44.44,0,0,1,.19.07l.31.16a3.12,3.12,0,0,0,.44.17,1.91,1.91,0,0,0,.56.07,1.37,1.37,0,0,0,.36,0,1.11,1.11,0,0,0,.27-.12.52.52,0,0,0,.17-.19.6.6,0,0,0,.06-.27.44.44,0,0,0-.11-.3,1,1,0,0,0-.29-.22,3,3,0,0,0-.4-.17l-.46-.19a4,4,0,0,1-.47-.22,2.08,2.08,0,0,1-.4-.32,1.51,1.51,0,0,1-.29-.45,1.74,1.74,0,0,1-.1-.63,1.52,1.52,0,0,1,.56-1.23,2,2,0,0,1,.67-.34,3.09,3.09,0,0,1,.89-.12,3.87,3.87,0,0,1,.48,0,2.26,2.26,0,0,1,.41.09,1.48,1.48,0,0,1,.32.11,1,1,0,0,1,.19.11.28.28,0,0,1,.07.09.23.23,0,0,1,0,.1s0,.09,0,.15a1.55,1.55,0,0,1,0,.23,2,2,0,0,1,0,.26q0,.09,0,.15a.12.12,0,0,1,0,.08.15.15,0,0,1-.09,0,.4.4,0,0,1-.16-.06l-.28-.13a2.8,2.8,0,0,0-.38-.13,2,2,0,0,0-.51-.06,1.18,1.18,0,0,0-.34,0,.53.53,0,0,0-.24.11.73.73,0,0,0-.14.18.54.54,0,0,0,0,.22.47.47,0,0,0,.11.31,1.14,1.14,0,0,0,.3.21,2.65,2.65,0,0,0,.41.18l.47.18a4.81,4.81,0,0,1,.46.22,1.67,1.67,0,0,1,.42.32,1.29,1.29,0,0,1,.29.45A1.62,1.62,0,0,1,139.5,38Z"/><path class="cls-5" d="M50.15,53.05a2,2,0,0,1,0,.26.88.88,0,0,1,0,.17.81.81,0,0,1,0,.11L50,53.7a1.54,1.54,0,0,1-.24.17,3.52,3.52,0,0,1-.39.17,3.23,3.23,0,0,1-.47.12,2.32,2.32,0,0,1-.53.05A2.71,2.71,0,0,1,47.31,54a2.09,2.09,0,0,1-.79-.55,2.3,2.3,0,0,1-.47-.89,4.08,4.08,0,0,1-.16-1.21A4.19,4.19,0,0,1,46.08,50a2.67,2.67,0,0,1,.55-1,2.12,2.12,0,0,1,.83-.55,2.76,2.76,0,0,1,1-.19,3.42,3.42,0,0,1,.46,0,3,3,0,0,1,.43.12,2.83,2.83,0,0,1,.35.15,1.14,1.14,0,0,1,.22.16l.09.1a.83.83,0,0,1,0,.12.79.79,0,0,1,0,.17,1.85,1.85,0,0,1,0,.25,1.32,1.32,0,0,1-.06.48c0,.09-.09.14-.15.14a.32.32,0,0,1-.21-.09l-.26-.18a2.55,2.55,0,0,0-.37-.18,1.5,1.5,0,0,0-.5-.08,1,1,0,0,0-.88.44,2.31,2.31,0,0,0-.3,1.3,3.26,3.26,0,0,0,.07.74,1.66,1.66,0,0,0,.23.54,1,1,0,0,0,.37.32,1.12,1.12,0,0,0,.53.11,1.38,1.38,0,0,0,.52-.09,2.24,2.24,0,0,0,.38-.2l.28-.2A.32.32,0,0,1,50,52.4a.11.11,0,0,1,.08,0,.14.14,0,0,1,.06.1c0,.06,0,.12,0,.21A2.73,2.73,0,0,1,50.15,53.05Z"/><path class="cls-5" d="M56.44,51.22a4,4,0,0,1-.18,1.22,2.54,2.54,0,0,1-.53,1,2.44,2.44,0,0,1-.89.61,3.46,3.46,0,0,1-1.26.22,3.37,3.37,0,0,1-1.21-.2,2.14,2.14,0,0,1-.86-.56,2.23,2.23,0,0,1-.5-.91,4.08,4.08,0,0,1-.17-1.22A4,4,0,0,1,51,50.1a2.57,2.57,0,0,1,.54-.94,2.38,2.38,0,0,1,.89-.62,3.47,3.47,0,0,1,1.26-.21,3.42,3.42,0,0,1,1.21.19,2,2,0,0,1,.85.56,2.28,2.28,0,0,1,.51.9A4.66,4.66,0,0,1,56.44,51.22Zm-1.52.06a3.84,3.84,0,0,0-.06-.71,1.61,1.61,0,0,0-.21-.57.93.93,0,0,0-.39-.37,1.22,1.22,0,0,0-.61-.14,1.26,1.26,0,0,0-.57.12,1,1,0,0,0-.4.35,1.58,1.58,0,0,0-.24.56,3.29,3.29,0,0,0-.08.74,3.84,3.84,0,0,0,.06.71,2.12,2.12,0,0,0,.21.57,1.06,1.06,0,0,0,.39.37,1.25,1.25,0,0,0,.61.13,1.31,1.31,0,0,0,.58-.12,1,1,0,0,0,.4-.35,1.46,1.46,0,0,0,.24-.55A3.32,3.32,0,0,0,54.92,51.28Z"/><path class="cls-5" d="M61.28,52.41a1.76,1.76,0,0,1-.17.78,1.53,1.53,0,0,1-.47.57,2,2,0,0,1-.72.34,3.26,3.26,0,0,1-.9.12,3.43,3.43,0,0,1-.56,0,3.09,3.09,0,0,1-.48-.11,2,2,0,0,1-.35-.14.69.69,0,0,1-.2-.13.31.31,0,0,1-.1-.19,1.79,1.79,0,0,1,0-.39,1.87,1.87,0,0,1,0-.27.4.4,0,0,1,0-.17.28.28,0,0,1,.06-.08l.09,0a.64.64,0,0,1,.19.07l.31.17c.13.05.27.11.44.16a1.89,1.89,0,0,0,.56.08,1.23,1.23,0,0,0,.35,0,.67.67,0,0,0,.27-.11.49.49,0,0,0,.18-.2.54.54,0,0,0,.06-.27.48.48,0,0,0-.11-.3,1.16,1.16,0,0,0-.29-.22,3,3,0,0,0-.4-.17l-.47-.18-.46-.23a1.76,1.76,0,0,1-.4-.32,1.29,1.29,0,0,1-.29-.45,1.65,1.65,0,0,1-.11-.63,1.58,1.58,0,0,1,.15-.69,1.46,1.46,0,0,1,.42-.53,1.94,1.94,0,0,1,.67-.35,3,3,0,0,1,.89-.12l.48,0,.41.09a1.66,1.66,0,0,1,.32.12.67.67,0,0,1,.18.1.22.22,0,0,1,.08.09.3.3,0,0,1,0,.1s0,.1,0,.16,0,.13,0,.22,0,.19,0,.26a1.57,1.57,0,0,1,0,.16.17.17,0,0,1-.06.08l-.08,0a.4.4,0,0,1-.16-.06,2.43,2.43,0,0,0-.28-.14c-.11,0-.24-.09-.39-.13a1.85,1.85,0,0,0-.5-.06,1.13,1.13,0,0,0-.34,0,.67.67,0,0,0-.24.12.49.49,0,0,0-.14.18.51.51,0,0,0,0,.22.44.44,0,0,0,.11.3,1.38,1.38,0,0,0,.29.22,2.81,2.81,0,0,0,.42.17l.47.18a4.93,4.93,0,0,1,.46.23,1.63,1.63,0,0,1,.42.31,1.74,1.74,0,0,1,.29.45A1.64,1.64,0,0,1,61.28,52.41Z"/><path class="cls-5" d="M66.83,53.9a.19.19,0,0,1,0,.13.5.5,0,0,1-.19.07l-.37,0-.38,0a.39.39,0,0,1-.17-.07.15.15,0,0,1,0-.13v-.42a2.27,2.27,0,0,1-.74.54,2.09,2.09,0,0,1-.91.2,2.65,2.65,0,0,1-.77-.11,1.73,1.73,0,0,1-.6-.32,1.61,1.61,0,0,1-.4-.53,1.88,1.88,0,0,1-.14-.74,1.62,1.62,0,0,1,.18-.79,1.45,1.45,0,0,1,.54-.56,2.45,2.45,0,0,1,.88-.32,5.58,5.58,0,0,1,1.22-.11h.51v-.32a1.88,1.88,0,0,0,0-.43.72.72,0,0,0-.16-.3.65.65,0,0,0-.31-.19,2,2,0,0,0-.47,0,2.21,2.21,0,0,0-.66.08,3,3,0,0,0-.51.18l-.37.18a.48.48,0,0,1-.25.08.15.15,0,0,1-.11,0,.28.28,0,0,1-.08-.12.78.78,0,0,1-.05-.18,2,2,0,0,1,0-.25,1,1,0,0,1,0-.28.49.49,0,0,1,.11-.2,1.5,1.5,0,0,1,.29-.18,3.2,3.2,0,0,1,.48-.19,4.38,4.38,0,0,1,.6-.15,4.8,4.8,0,0,1,.67-.05,4,4,0,0,1,1,.12,1.76,1.76,0,0,1,.72.37,1.51,1.51,0,0,1,.41.64,3.18,3.18,0,0,1,.12.93Zm-1.44-2.24h-.56a2.68,2.68,0,0,0-.61.06,1,1,0,0,0-.41.16.61.61,0,0,0-.23.25.74.74,0,0,0-.08.34.67.67,0,0,0,.21.52.86.86,0,0,0,.58.18,1.1,1.1,0,0,0,.57-.15,2.45,2.45,0,0,0,.53-.47Z"/><path class="cls-5" d="M72,52.41a1.76,1.76,0,0,1-.17.78,1.44,1.44,0,0,1-.47.57,2,2,0,0,1-.72.34,3.26,3.26,0,0,1-.9.12,3.43,3.43,0,0,1-.56,0,3.09,3.09,0,0,1-.48-.11,2,2,0,0,1-.35-.14.69.69,0,0,1-.2-.13.38.38,0,0,1-.1-.19,1.79,1.79,0,0,1,0-.39,1.87,1.87,0,0,1,0-.27.4.4,0,0,1,0-.17.28.28,0,0,1,.06-.08l.09,0a.64.64,0,0,1,.19.07l.31.17c.13.05.27.11.44.16a1.89,1.89,0,0,0,.56.08,1.36,1.36,0,0,0,.36,0,.68.68,0,0,0,.26-.11.49.49,0,0,0,.18-.2.54.54,0,0,0,.06-.27.48.48,0,0,0-.11-.3,1.16,1.16,0,0,0-.29-.22,3,3,0,0,0-.4-.17l-.47-.18-.46-.23a1.76,1.76,0,0,1-.4-.32,1.29,1.29,0,0,1-.29-.45A1.65,1.65,0,0,1,68,50a1.58,1.58,0,0,1,.15-.69,1.46,1.46,0,0,1,.42-.53,1.94,1.94,0,0,1,.67-.35,3,3,0,0,1,.89-.12l.48,0,.41.09a1.66,1.66,0,0,1,.32.12.67.67,0,0,1,.18.1.22.22,0,0,1,.08.09.3.3,0,0,1,0,.1s0,.1,0,.16,0,.13,0,.22,0,.19,0,.26a1.57,1.57,0,0,1,0,.16.17.17,0,0,1-.06.08l-.08,0a.4.4,0,0,1-.16-.06,2.43,2.43,0,0,0-.28-.14l-.39-.13a1.85,1.85,0,0,0-.5-.06,1.13,1.13,0,0,0-.34,0,.67.67,0,0,0-.24.12.49.49,0,0,0-.14.18.51.51,0,0,0,0,.22.44.44,0,0,0,.11.3,1.38,1.38,0,0,0,.29.22,2.81,2.81,0,0,0,.42.17l.47.18a4.93,4.93,0,0,1,.46.23,1.63,1.63,0,0,1,.42.31,1.74,1.74,0,0,1,.29.45A1.64,1.64,0,0,1,72,52.41Z"/><path class="cls-5" d="M75.35,53.32a2.25,2.25,0,0,1,0,.4.5.5,0,0,1-.14.26.53.53,0,0,1-.25.15,2,2,0,0,1-.8,0,.56.56,0,0,1-.26-.15.58.58,0,0,1-.13-.26,2.33,2.33,0,0,1,0-.4,2.42,2.42,0,0,1,0-.42.68.68,0,0,1,.13-.27.55.55,0,0,1,.26-.14,1.62,1.62,0,0,1,.8,0,.51.51,0,0,1,.25.14.58.58,0,0,1,.14.27A2.3,2.3,0,0,1,75.35,53.32Zm-.19-1.72a.23.23,0,0,1,0,.11.2.2,0,0,1-.1.07.53.53,0,0,1-.2,0,1.47,1.47,0,0,1-.31,0,1.42,1.42,0,0,1-.31,0,.53.53,0,0,1-.2,0,.26.26,0,0,1-.1-.07.23.23,0,0,1,0-.11l-.16-5.31a.29.29,0,0,1,0-.14.25.25,0,0,1,.12-.1l.25,0,.39,0,.39,0a1,1,0,0,1,.24.06.48.48,0,0,1,.13.09.29.29,0,0,1,0,.14Z"/><path class="cls-5" d="M79.45,52.89a2.65,2.65,0,0,1,.14-.87,2.09,2.09,0,0,1,.38-.67,2.25,2.25,0,0,1,.6-.45,2.37,2.37,0,0,1,.77-.21l0-1.14c0-.07.06-.13.16-.16a1.45,1.45,0,0,1,.47-.06h.32a.87.87,0,0,1,.21,0,.17.17,0,0,1,.11.06.14.14,0,0,1,0,.11l.06,1.38a2.36,2.36,0,0,1,0,.3.48.48,0,0,1-.09.19.24.24,0,0,1-.15.09.73.73,0,0,1-.22,0h-.09a1.25,1.25,0,0,0-.53.1,1,1,0,0,0-.37.26,1.07,1.07,0,0,0-.22.39,1.84,1.84,0,0,0-.06.47,1.46,1.46,0,0,0,.08.52,1,1,0,0,0,.24.4.93.93,0,0,0,.4.26,1.62,1.62,0,0,0,.57.09,2.81,2.81,0,0,0,.53-.05l.39-.13.27-.13a.38.38,0,0,1,.17-.06.11.11,0,0,1,.07,0s0,.05.06.09a.88.88,0,0,1,0,.2,3.22,3.22,0,0,1,0,.33,2.28,2.28,0,0,1,0,.3.28.28,0,0,1-.08.15,1.05,1.05,0,0,1-.22.14,2.49,2.49,0,0,1-.39.14,3.81,3.81,0,0,1-.51.12,3.73,3.73,0,0,1-.59,0A3.21,3.21,0,0,1,80.86,55a2.08,2.08,0,0,1-.81-.51,1.94,1.94,0,0,1-.45-.74A2.49,2.49,0,0,1,79.45,52.89Zm1.73-5a1.54,1.54,0,0,1,0-.4.68.68,0,0,1,.13-.27.72.72,0,0,1,.26-.14,1.54,1.54,0,0,1,.4,0,1.49,1.49,0,0,1,.4,0,.65.65,0,0,1,.26.14.68.68,0,0,1,.13.27,1.54,1.54,0,0,1,0,.4,1.58,1.58,0,0,1,0,.41.57.57,0,0,1-.13.27.56.56,0,0,1-.26.15,1.49,1.49,0,0,1-.4,0,1.54,1.54,0,0,1-.4,0,.61.61,0,0,1-.26-.15.57.57,0,0,1-.13-.27A1.58,1.58,0,0,1,81.18,47.87Z"/><path class="cls-5" d="M90.53,48.81a3.08,3.08,0,0,1-.2,1.13,2.22,2.22,0,0,1-.58.83,2.6,2.6,0,0,1-.93.51,4.29,4.29,0,0,1-1.31.17h-.63v2.42a.15.15,0,0,1,0,.11.22.22,0,0,1-.12.07,1.11,1.11,0,0,1-.24.05l-.37,0-.37,0a1.11,1.11,0,0,1-.24-.05.22.22,0,0,1-.12-.07.15.15,0,0,1,0-.11V47.06a.51.51,0,0,1,.15-.41.48.48,0,0,1,.37-.14h1.79a4.18,4.18,0,0,1,.51,0,3.77,3.77,0,0,1,.58.09,2.14,2.14,0,0,1,.69.25,2.25,2.25,0,0,1,.6.45,2.2,2.2,0,0,1,.37.65A2.47,2.47,0,0,1,90.53,48.81Zm-1.61.11a1.43,1.43,0,0,0-.14-.66,1.08,1.08,0,0,0-.35-.38,1.11,1.11,0,0,0-.43-.15,3.44,3.44,0,0,0-.46,0h-.66v2.57h.69a1.83,1.83,0,0,0,.62-.1,1.11,1.11,0,0,0,.41-.28,1.37,1.37,0,0,0,.24-.43A1.85,1.85,0,0,0,88.92,48.92Z"/><path class="cls-5" d="M95.85,53.9a.16.16,0,0,1-.06.13.52.52,0,0,1-.18.07l-.38,0-.38,0a.46.46,0,0,1-.17-.07.19.19,0,0,1-.05-.13v-.42a2.24,2.24,0,0,1-.73.54,2.14,2.14,0,0,1-.92.2,2.58,2.58,0,0,1-.76-.11,1.78,1.78,0,0,1-.61-.32,1.46,1.46,0,0,1-.39-.53,1.88,1.88,0,0,1-.14-.74,1.62,1.62,0,0,1,.18-.79,1.42,1.42,0,0,1,.53-.56,2.6,2.6,0,0,1,.88-.32,5.58,5.58,0,0,1,1.22-.11h.51v-.32a1.45,1.45,0,0,0-.05-.43.62.62,0,0,0-.16-.3.65.65,0,0,0-.31-.19,2,2,0,0,0-.47,0,2.18,2.18,0,0,0-.65.08,2.86,2.86,0,0,0-.52.18l-.37.18a.48.48,0,0,1-.24.08.19.19,0,0,1-.12,0,.28.28,0,0,1-.08-.12.78.78,0,0,1-.05-.18,2,2,0,0,1,0-.25,1.91,1.91,0,0,1,0-.28.41.41,0,0,1,.12-.2,1.36,1.36,0,0,1,.28-.18,3.69,3.69,0,0,1,.48-.19,5.26,5.26,0,0,1,.6-.15,4.91,4.91,0,0,1,.67-.05,4,4,0,0,1,1,.12,1.76,1.76,0,0,1,.72.37,1.42,1.42,0,0,1,.41.64,2.86,2.86,0,0,1,.13.93ZM94.4,51.66h-.56a2.68,2.68,0,0,0-.61.06,1.1,1.1,0,0,0-.41.16.68.68,0,0,0-.23.25.74.74,0,0,0-.07.34.67.67,0,0,0,.21.52.85.85,0,0,0,.57.18,1.1,1.1,0,0,0,.57-.15,2.24,2.24,0,0,0,.53-.47Z"/><path class="cls-5" d="M101,52.41a1.75,1.75,0,0,1-.16.78,1.53,1.53,0,0,1-.47.57,2.17,2.17,0,0,1-.72.34,3.33,3.33,0,0,1-1.46.07,2.84,2.84,0,0,1-.48-.11,1.69,1.69,0,0,1-.35-.14.76.76,0,0,1-.21-.13.48.48,0,0,1-.1-.19,1.92,1.92,0,0,1,0-.39,2.1,2.1,0,0,1,0-.27c0-.07,0-.13,0-.17a.28.28,0,0,1,.06-.08l.09,0a.56.56,0,0,1,.19.07l.32.17a4,4,0,0,0,.43.16,2,2,0,0,0,.57.08,1.23,1.23,0,0,0,.35,0,.81.81,0,0,0,.27-.11.47.47,0,0,0,.17-.2.54.54,0,0,0,.06-.27.48.48,0,0,0-.11-.3,1.3,1.3,0,0,0-.28-.22,3.17,3.17,0,0,0-.41-.17l-.46-.18-.46-.23a1.81,1.81,0,0,1-.41-.32,1.28,1.28,0,0,1-.28-.45A1.48,1.48,0,0,1,97,50a1.74,1.74,0,0,1,.14-.69,1.38,1.38,0,0,1,.43-.53,1.85,1.85,0,0,1,.67-.35,3,3,0,0,1,.88-.12,3.64,3.64,0,0,1,.48,0l.42.09a1.55,1.55,0,0,1,.31.12l.19.1a.32.32,0,0,1,.08.09l0,.1a.7.7,0,0,1,0,.16,1.41,1.41,0,0,1,0,.22,1.93,1.93,0,0,1,0,.26.35.35,0,0,1,0,.16.16.16,0,0,1,0,.08l-.08,0a.43.43,0,0,1-.17-.06,1.45,1.45,0,0,0-.28-.14l-.38-.13a2,2,0,0,0-.5-.06,1.2,1.2,0,0,0-.35,0,.9.9,0,0,0-.24.12.49.49,0,0,0-.14.18.51.51,0,0,0,0,.22.4.4,0,0,0,.11.3,1.16,1.16,0,0,0,.29.22,3.17,3.17,0,0,0,.41.17l.47.18a5.08,5.08,0,0,1,.47.23,1.77,1.77,0,0,1,.41.31,1.51,1.51,0,0,1,.29.45A1.46,1.46,0,0,1,101,52.41Z"/><path class="cls-5" d="M106.55,53.9a.16.16,0,0,1-.06.13.52.52,0,0,1-.18.07l-.38,0-.38,0a.46.46,0,0,1-.17-.07.19.19,0,0,1,0-.13v-.42a2.24,2.24,0,0,1-.73.54,2.14,2.14,0,0,1-.92.2,2.58,2.58,0,0,1-.76-.11,1.78,1.78,0,0,1-.61-.32,1.46,1.46,0,0,1-.39-.53,1.88,1.88,0,0,1-.14-.74,1.62,1.62,0,0,1,.18-.79,1.42,1.42,0,0,1,.53-.56,2.6,2.6,0,0,1,.88-.32,5.58,5.58,0,0,1,1.22-.11h.51v-.32a1.45,1.45,0,0,0,0-.43.62.62,0,0,0-.16-.3.67.67,0,0,0-.3-.19,2.14,2.14,0,0,0-.48,0,2.18,2.18,0,0,0-.65.08,2.86,2.86,0,0,0-.52.18l-.37.18a.48.48,0,0,1-.24.08.15.15,0,0,1-.11,0,.23.23,0,0,1-.09-.12.78.78,0,0,1,0-.18,2,2,0,0,1,0-.25,1.91,1.91,0,0,1,0-.28.41.41,0,0,1,.12-.2,1.36,1.36,0,0,1,.28-.18,3.69,3.69,0,0,1,.48-.19,5.26,5.26,0,0,1,.6-.15,4.91,4.91,0,0,1,.67-.05,4,4,0,0,1,1.05.12,1.76,1.76,0,0,1,.72.37,1.34,1.34,0,0,1,.41.64,2.86,2.86,0,0,1,.13.93Zm-1.45-2.24h-.56a2.68,2.68,0,0,0-.61.06,1.1,1.1,0,0,0-.41.16.68.68,0,0,0-.23.25.74.74,0,0,0-.07.34.67.67,0,0,0,.21.52.85.85,0,0,0,.57.18,1.1,1.1,0,0,0,.57-.15,2.24,2.24,0,0,0,.53-.47Z"/><path class="cls-5" d="M116.32,53.88a.2.2,0,0,1,0,.11.31.31,0,0,1-.12.07,1,1,0,0,1-.22,0l-.36,0-.36,0a1,1,0,0,1-.22,0,.31.31,0,0,1-.12-.07.2.2,0,0,1,0-.11V50.79a2.28,2.28,0,0,0,0-.48,1.32,1.32,0,0,0-.16-.38.61.61,0,0,0-.25-.23.76.76,0,0,0-.38-.09.92.92,0,0,0-.53.2,3.73,3.73,0,0,0-.58.6v3.47a.21.21,0,0,1,0,.11.31.31,0,0,1-.12.07l-.22,0-.35,0-.36,0-.23,0-.12-.07a.2.2,0,0,1,0-.11V50.79a2.28,2.28,0,0,0,0-.48,1.67,1.67,0,0,0-.15-.38.64.64,0,0,0-.26-.23.72.72,0,0,0-.37-.09.93.93,0,0,0-.54.2,3.73,3.73,0,0,0-.58.6v3.47a.2.2,0,0,1,0,.11.31.31,0,0,1-.12.07l-.23,0-.35,0-.36,0-.23,0-.12-.07a.2.2,0,0,1,0-.11V48.66a.17.17,0,0,1,0-.1.2.2,0,0,1,.1-.07l.2-.05H109a.64.64,0,0,1,.19.05.2.2,0,0,1,.1.07.17.17,0,0,1,0,.1v.6a3.53,3.53,0,0,1,.86-.7,1.94,1.94,0,0,1,.9-.23,2.1,2.1,0,0,1,.58.07,1.52,1.52,0,0,1,.81.49,2,2,0,0,1,.24.39,4.45,4.45,0,0,1,.46-.43,2.93,2.93,0,0,1,.45-.3,2.35,2.35,0,0,1,.44-.17,2.12,2.12,0,0,1,.44-.05,2.09,2.09,0,0,1,.88.17,1.61,1.61,0,0,1,.58.48,2,2,0,0,1,.31.71,3.89,3.89,0,0,1,.09.85Z"/><path class="cls-5" d="M123.05,51.22a4,4,0,0,1-.18,1.22,2.54,2.54,0,0,1-.53,1,2.44,2.44,0,0,1-.89.61,3.46,3.46,0,0,1-1.26.22A3.37,3.37,0,0,1,119,54a2.14,2.14,0,0,1-.86-.56,2.23,2.23,0,0,1-.5-.91,4.08,4.08,0,0,1-.17-1.22,4,4,0,0,1,.18-1.23,2.57,2.57,0,0,1,.54-.94,2.38,2.38,0,0,1,.89-.62,3.47,3.47,0,0,1,1.26-.21,3.42,3.42,0,0,1,1.21.19,2,2,0,0,1,.85.56,2.28,2.28,0,0,1,.51.9A4.66,4.66,0,0,1,123.05,51.22Zm-1.52.06a3.84,3.84,0,0,0-.06-.71,1.61,1.61,0,0,0-.21-.57,1,1,0,0,0-.38-.37,1.43,1.43,0,0,0-1.19,0,1,1,0,0,0-.4.35,1.58,1.58,0,0,0-.24.56,3.29,3.29,0,0,0-.08.74A3.84,3.84,0,0,0,119,52a2.12,2.12,0,0,0,.21.57,1.06,1.06,0,0,0,.39.37,1.28,1.28,0,0,0,.61.13,1.31,1.31,0,0,0,.58-.12,1,1,0,0,0,.4-.35,1.46,1.46,0,0,0,.24-.55A3.32,3.32,0,0,0,121.53,51.28Z"/><path class="cls-5" d="M127.89,52.41a1.76,1.76,0,0,1-.17.78,1.44,1.44,0,0,1-.47.57,2,2,0,0,1-.72.34,3.21,3.21,0,0,1-.9.12,3.43,3.43,0,0,1-.56,0,3.09,3.09,0,0,1-.48-.11,2,2,0,0,1-.35-.14.69.69,0,0,1-.2-.13.38.38,0,0,1-.1-.19,1.79,1.79,0,0,1,0-.39,1.87,1.87,0,0,1,0-.27.4.4,0,0,1,0-.17.28.28,0,0,1,.06-.08l.09,0a.64.64,0,0,1,.19.07l.31.17c.13.05.27.11.44.16a1.89,1.89,0,0,0,.56.08,1.36,1.36,0,0,0,.36,0,.68.68,0,0,0,.26-.11.49.49,0,0,0,.18-.2.54.54,0,0,0,.06-.27.48.48,0,0,0-.11-.3,1.16,1.16,0,0,0-.29-.22,3,3,0,0,0-.4-.17l-.47-.18-.46-.23a1.76,1.76,0,0,1-.4-.32,1.29,1.29,0,0,1-.29-.45,1.65,1.65,0,0,1-.11-.63,1.58,1.58,0,0,1,.15-.69,1.46,1.46,0,0,1,.42-.53,1.94,1.94,0,0,1,.67-.35,3,3,0,0,1,.89-.12l.48,0,.41.09a1.66,1.66,0,0,1,.32.12.67.67,0,0,1,.18.1.22.22,0,0,1,.08.09.3.3,0,0,1,0,.1s0,.1,0,.16,0,.13,0,.22,0,.19,0,.26a1.57,1.57,0,0,1,0,.16.12.12,0,0,1-.06.08l-.08,0a.4.4,0,0,1-.16-.06,2.43,2.43,0,0,0-.28-.14l-.39-.13a1.85,1.85,0,0,0-.5-.06,1.13,1.13,0,0,0-.34,0,.67.67,0,0,0-.24.12.49.49,0,0,0-.14.18.51.51,0,0,0-.05.22.44.44,0,0,0,.11.3,1.38,1.38,0,0,0,.29.22,2.81,2.81,0,0,0,.42.17l.47.18a4.93,4.93,0,0,1,.46.23,1.63,1.63,0,0,1,.42.31,1.74,1.74,0,0,1,.29.45A1.64,1.64,0,0,1,127.89,52.41Z"/><path class="cls-5" d="M136.15,53.9a.19.19,0,0,1-.05.13.5.5,0,0,1-.19.07l-.37,0-.38,0A.39.39,0,0,1,135,54a.15.15,0,0,1-.05-.13v-.42a2.27,2.27,0,0,1-.74.54,2.09,2.09,0,0,1-.91.2,2.7,2.7,0,0,1-.77-.11,1.73,1.73,0,0,1-.6-.32,1.61,1.61,0,0,1-.4-.53,1.88,1.88,0,0,1-.14-.74,1.62,1.62,0,0,1,.18-.79,1.45,1.45,0,0,1,.54-.56,2.53,2.53,0,0,1,.88-.32,5.58,5.58,0,0,1,1.22-.11h.51v-.32a1.88,1.88,0,0,0-.05-.43.72.72,0,0,0-.16-.3.65.65,0,0,0-.31-.19,2,2,0,0,0-.47,0,2.21,2.21,0,0,0-.66.08,3,3,0,0,0-.51.18l-.37.18a.48.48,0,0,1-.25.08.15.15,0,0,1-.11,0,.28.28,0,0,1-.08-.12.78.78,0,0,1-.05-.18,2,2,0,0,1,0-.25,1,1,0,0,1,0-.28.49.49,0,0,1,.11-.2,1.5,1.5,0,0,1,.29-.18,3.2,3.2,0,0,1,.48-.19,4.38,4.38,0,0,1,.6-.15,4.8,4.8,0,0,1,.67-.05,4,4,0,0,1,1.05.12,1.76,1.76,0,0,1,.72.37,1.51,1.51,0,0,1,.41.64,3.18,3.18,0,0,1,.12.93Zm-1.44-2.24h-.56a2.68,2.68,0,0,0-.61.06,1,1,0,0,0-.41.16.61.61,0,0,0-.23.25.74.74,0,0,0-.08.34A.67.67,0,0,0,133,53a.86.86,0,0,0,.58.18,1.1,1.1,0,0,0,.57-.15,2.45,2.45,0,0,0,.53-.47Z"/><path class="cls-5" d="M43.32,63.59c0,.14,0,.26,0,.35a.87.87,0,0,1,0,.21.19.19,0,0,1-.06.1.17.17,0,0,1-.1,0l-.1,0-.13,0-.17,0-.19,0a.69.69,0,0,0-.24,0,1.22,1.22,0,0,0-.26.16,1.45,1.45,0,0,0-.27.28,4.42,4.42,0,0,0-.31.43v3.26a.14.14,0,0,1,0,.1.22.22,0,0,1-.12.07.9.9,0,0,1-.22,0h-.72a1,1,0,0,1-.22,0,.22.22,0,0,1-.12-.07.14.14,0,0,1,0-.1V63.1a.19.19,0,0,1,0-.1.23.23,0,0,1,.11-.07.49.49,0,0,1,.19,0l.3,0,.32,0a.49.49,0,0,1,.19,0,.22.22,0,0,1,.09.07.19.19,0,0,1,0,.1v.65a5.69,5.69,0,0,1,.39-.48A1.78,1.78,0,0,1,42,63a1,1,0,0,1,.33-.15,1.26,1.26,0,0,1,.33,0h.16l.18,0a.69.69,0,0,1,.17,0,.19.19,0,0,1,.1,0,.18.18,0,0,1,.05.07.2.2,0,0,1,0,.09.84.84,0,0,1,0,.19C43.31,63.34,43.32,63.45,43.32,63.59Z"/><path class="cls-5" d="M48.91,65.56a.56.56,0,0,1-.12.4.42.42,0,0,1-.33.13H45.28a2.37,2.37,0,0,0,.08.61,1.36,1.36,0,0,0,.25.46,1.29,1.29,0,0,0,.45.29,2.06,2.06,0,0,0,.65.1,3.37,3.37,0,0,0,.68-.06l.51-.12.35-.12a.6.6,0,0,1,.23-.06l.09,0a.22.22,0,0,1,.06.07s0,.09,0,.15,0,.15,0,.25,0,.16,0,.22a.61.61,0,0,1,0,.15l0,.11-.06.08a.63.63,0,0,1-.21.11,2.41,2.41,0,0,1-.43.14,4.39,4.39,0,0,1-.61.12,5.43,5.43,0,0,1-.72,0,3.73,3.73,0,0,1-1.22-.18,2.12,2.12,0,0,1-.88-.53,2.23,2.23,0,0,1-.52-.9,4.09,4.09,0,0,1-.17-1.28A3.78,3.78,0,0,1,44,64.52a2.64,2.64,0,0,1,.52-.95,2.17,2.17,0,0,1,.84-.59,2.83,2.83,0,0,1,1.12-.21,3.12,3.12,0,0,1,1.12.19,2,2,0,0,1,.76.54,2.13,2.13,0,0,1,.44.81,3.31,3.31,0,0,1,.14,1Zm-1.43-.42a1.49,1.49,0,0,0-.24-1,1,1,0,0,0-.83-.36,1.1,1.1,0,0,0-.49.11,1,1,0,0,0-.34.28,1.38,1.38,0,0,0-.21.42,2.27,2.27,0,0,0-.09.52Z"/><path class="cls-5" d="M54.87,63.1v.07s0,.06,0,.09l0,.11a.83.83,0,0,1,0,.15l-1.56,4.72a.48.48,0,0,1-.08.16.29.29,0,0,1-.17.1,1.66,1.66,0,0,1-.31,0h-1a1.54,1.54,0,0,1-.3,0,.34.34,0,0,1-.16-.1.34.34,0,0,1-.08-.16l-1.57-4.72c0-.08,0-.15-.06-.21s0-.11,0-.13V63.1a.17.17,0,0,1,0-.1.24.24,0,0,1,.11-.08l.23,0h.36l.38,0a.63.63,0,0,1,.23,0,.23.23,0,0,1,.13.07.61.61,0,0,1,0,.12L52.17,67l0,.14,0-.14,1.17-3.84a.67.67,0,0,1,.06-.12.18.18,0,0,1,.12-.07.62.62,0,0,1,.22,0l.36,0h.35l.22,0a.21.21,0,0,1,.1.08A.17.17,0,0,1,54.87,63.1Z"/><path class="cls-5" d="M57.32,61.34a.82.82,0,0,1-.18.61,1,1,0,0,1-.67.17A1,1,0,0,1,55.8,62a.79.79,0,0,1-.17-.59.84.84,0,0,1,.17-.62,1,1,0,0,1,.68-.17,1,1,0,0,1,.67.16A.84.84,0,0,1,57.32,61.34Zm-.11,7a.19.19,0,0,1,0,.1.35.35,0,0,1-.12.07,1,1,0,0,1-.23,0h-.71a1,1,0,0,1-.23,0,.35.35,0,0,1-.12-.07.19.19,0,0,1,0-.1V63.12a.2.2,0,0,1,0-.11.35.35,0,0,1,.12-.07,1,1,0,0,1,.23,0l.35,0,.36,0a1,1,0,0,1,.23,0,.35.35,0,0,1,.12.07.2.2,0,0,1,0,.11Z"/><path class="cls-5" d="M62.36,66.85a1.8,1.8,0,0,1-.17.79,1.59,1.59,0,0,1-.47.56,2.2,2.2,0,0,1-.72.35,3.7,3.7,0,0,1-.9.11,4.92,4.92,0,0,1-.56,0,2.8,2.8,0,0,1-.48-.12,2.65,2.65,0,0,1-.35-.13,1,1,0,0,1-.2-.13.38.38,0,0,1-.1-.2,1.33,1.33,0,0,1,0-.39,2.1,2.1,0,0,1,0-.27.53.53,0,0,1,0-.16.15.15,0,0,1,.06-.09l.08,0a.41.41,0,0,1,.19.08l.32.16a3,3,0,0,0,.43.16,2,2,0,0,0,.57.08,1.78,1.78,0,0,0,.35,0,.85.85,0,0,0,.27-.12.39.39,0,0,0,.17-.19.6.6,0,0,0,.06-.27.4.4,0,0,0-.11-.3.78.78,0,0,0-.28-.22,3.15,3.15,0,0,0-.41-.18l-.46-.18a4,4,0,0,1-.46-.23,1.53,1.53,0,0,1-.4-.31,1.51,1.51,0,0,1-.29-.45,1.75,1.75,0,0,1-.11-.64,1.58,1.58,0,0,1,.15-.69,1.41,1.41,0,0,1,.42-.53,2,2,0,0,1,.67-.35,3,3,0,0,1,.88-.12,2.45,2.45,0,0,1,.48,0,3.51,3.51,0,0,1,.42.08l.32.12.18.1a.32.32,0,0,1,.08.09s0,.07,0,.11,0,.09,0,.15a1.41,1.41,0,0,1,0,.22,1.86,1.86,0,0,1,0,.26.63.63,0,0,1,0,.16.18.18,0,0,1-.06.08l-.08,0a.43.43,0,0,1-.17-.06,1.71,1.71,0,0,0-.27-.13c-.11-.05-.24-.09-.39-.14a1.9,1.9,0,0,0-.5-.06,1.59,1.59,0,0,0-.34,0A.83.83,0,0,0,60,64a.62.62,0,0,0-.14.18.54.54,0,0,0,0,.22.4.4,0,0,0,.11.3.82.82,0,0,0,.29.22l.41.18.47.17a4.09,4.09,0,0,1,.47.23,1.81,1.81,0,0,1,.41.32,1.55,1.55,0,0,1,.3.44A1.67,1.67,0,0,1,62.36,66.85Z"/><path class="cls-5" d="M67.91,68.34a.15.15,0,0,1-.06.13.38.38,0,0,1-.18.07l-.37,0-.39,0a.34.34,0,0,1-.17-.07.17.17,0,0,1,0-.13v-.41a2.39,2.39,0,0,1-.73.54,2.13,2.13,0,0,1-.92.19,2.63,2.63,0,0,1-.76-.11,1.73,1.73,0,0,1-.6-.32,1.52,1.52,0,0,1-.4-.53,1.88,1.88,0,0,1-.14-.74,1.65,1.65,0,0,1,.18-.79,1.49,1.49,0,0,1,.53-.56,2.84,2.84,0,0,1,.88-.32A6.31,6.31,0,0,1,66,65.18h.51v-.31a1.75,1.75,0,0,0,0-.43.71.71,0,0,0-.17-.31A.69.69,0,0,0,66,64a1.63,1.63,0,0,0-.47-.06,2.59,2.59,0,0,0-.66.08c-.19.06-.37.12-.51.18l-.38.18a.48.48,0,0,1-.24.09.16.16,0,0,1-.11,0,.19.19,0,0,1-.08-.11.53.53,0,0,1,0-.19,1,1,0,0,1,0-.25,1,1,0,0,1,0-.28.37.37,0,0,1,.11-.19,1,1,0,0,1,.29-.19,2.82,2.82,0,0,1,.48-.19,3.31,3.31,0,0,1,.6-.14,3.63,3.63,0,0,1,.67-.06,4,4,0,0,1,1,.12,1.66,1.66,0,0,1,.71.37,1.39,1.39,0,0,1,.41.64,2.86,2.86,0,0,1,.13.93Zm-1.44-2.23H65.9a2.64,2.64,0,0,0-.6,0,1.21,1.21,0,0,0-.41.16.64.64,0,0,0-.24.25,1,1,0,0,0-.07.35.65.65,0,0,0,.21.51.81.81,0,0,0,.58.19,1.17,1.17,0,0,0,.57-.16,2.67,2.67,0,0,0,.53-.46Z"/><path class="cls-5" d="M72.74,63.59a3.16,3.16,0,0,1,0,.35,1,1,0,0,1,0,.21.29.29,0,0,1-.06.1.17.17,0,0,1-.1,0l-.1,0-.14,0-.16,0-.19,0a.79.79,0,0,0-.25,0,1.48,1.48,0,0,0-.25.16,1.84,1.84,0,0,0-.28.28c-.09.12-.19.26-.3.43v3.26a.21.21,0,0,1,0,.1.22.22,0,0,1-.12.07,1,1,0,0,1-.22,0h-.72a.9.9,0,0,1-.22,0,.22.22,0,0,1-.12-.07.14.14,0,0,1,0-.1V63.1a.19.19,0,0,1,0-.1.23.23,0,0,1,.11-.07.49.49,0,0,1,.19,0l.3,0,.31,0a.41.41,0,0,1,.19,0,.2.2,0,0,1,.1.07.19.19,0,0,1,0,.1v.65a4.23,4.23,0,0,1,.39-.48,1.78,1.78,0,0,1,.34-.3,1,1,0,0,1,.33-.15,1.26,1.26,0,0,1,.33,0h.16l.18,0,.17,0,.1,0a.18.18,0,0,1,0,.07.64.64,0,0,1,0,.09s0,.11,0,.19S72.74,63.45,72.74,63.59Z"/><path class="cls-5" d="M81.63,65.66a4.23,4.23,0,0,1-.17,1.22,2.62,2.62,0,0,1-.54,1,2.36,2.36,0,0,1-.89.61,3.26,3.26,0,0,1-1.26.22,3.38,3.38,0,0,1-1.21-.19,2.16,2.16,0,0,1-.86-.57,2.31,2.31,0,0,1-.5-.9A4.22,4.22,0,0,1,76,65.77a3.91,3.91,0,0,1,.17-1.22,2.54,2.54,0,0,1,.54-.95,2.44,2.44,0,0,1,.89-.61,3.26,3.26,0,0,1,1.26-.22,3.47,3.47,0,0,1,1.22.19,2.18,2.18,0,0,1,.85.56,2.43,2.43,0,0,1,.5.91A4.22,4.22,0,0,1,81.63,65.66Zm-1.51.06a3.88,3.88,0,0,0-.07-.71,1.76,1.76,0,0,0-.2-.56,1,1,0,0,0-.39-.38,1.27,1.27,0,0,0-.62-.13,1.32,1.32,0,0,0-.57.12,1,1,0,0,0-.4.35,1.53,1.53,0,0,0-.24.55,3.36,3.36,0,0,0-.08.74,3.11,3.11,0,0,0,.07.71,1.82,1.82,0,0,0,.2.57,1.06,1.06,0,0,0,.39.37,1.28,1.28,0,0,0,.61.13,1.31,1.31,0,0,0,.58-.12.91.91,0,0,0,.4-.35,1.46,1.46,0,0,0,.24-.55A3.29,3.29,0,0,0,80.12,65.72Z"/><path class="cls-5" d="M85.89,67.81a1.45,1.45,0,0,1,0,.4.33.33,0,0,1-.24.29,1,1,0,0,1-.24.07,1.35,1.35,0,0,1-.29.05,1.83,1.83,0,0,1-.33,0,2.49,2.49,0,0,1-.76-.11,1.28,1.28,0,0,1-.53-.34,1.41,1.41,0,0,1-.31-.58,3,3,0,0,1-.1-.84V64.1h-.63a.2.2,0,0,1-.17-.14,1.23,1.23,0,0,1-.06-.46,2,2,0,0,1,0-.28.78.78,0,0,1,0-.19.27.27,0,0,1,.08-.1l.1,0h.62V61.74a.17.17,0,0,1,0-.1.18.18,0,0,1,.12-.08.61.61,0,0,1,.23-.05l.35,0,.36,0a.55.55,0,0,1,.22.05.18.18,0,0,1,.12.08.13.13,0,0,1,0,.1v1.17h1.13l.11,0a.43.43,0,0,1,.07.1.78.78,0,0,1,0,.19,2,2,0,0,1,0,.28,1.23,1.23,0,0,1-.06.46.2.2,0,0,1-.17.14H84.52v2.45a1.2,1.2,0,0,0,.13.64.51.51,0,0,0,.48.22l.21,0,.17,0,.12,0,.09,0,.07,0a.16.16,0,0,1,0,.08s0,.1,0,.17A1.87,1.87,0,0,1,85.89,67.81Z"/><path class="cls-5" d="M90.31,63.59a3.16,3.16,0,0,1,0,.35,1,1,0,0,1,0,.21.29.29,0,0,1-.06.1.17.17,0,0,1-.1,0l-.1,0-.14,0-.16,0-.19,0a.79.79,0,0,0-.25,0,1.48,1.48,0,0,0-.25.16,1.84,1.84,0,0,0-.28.28c-.09.12-.19.26-.3.43v3.26a.14.14,0,0,1,0,.1.22.22,0,0,1-.12.07.9.9,0,0,1-.22,0h-.72a.9.9,0,0,1-.22,0,.22.22,0,0,1-.12-.07.14.14,0,0,1,0-.1V63.1a.19.19,0,0,1,0-.1.23.23,0,0,1,.11-.07.49.49,0,0,1,.19,0l.3,0,.31,0a.41.41,0,0,1,.19,0,.2.2,0,0,1,.1.07.19.19,0,0,1,0,.1v.65a4.23,4.23,0,0,1,.39-.48,1.78,1.78,0,0,1,.34-.3,1,1,0,0,1,.33-.15,1.26,1.26,0,0,1,.33,0h.16l.18,0a.69.69,0,0,1,.17,0,.23.23,0,0,1,.1,0,.18.18,0,0,1,.05.07.64.64,0,0,1,0,.09.84.84,0,0,1,0,.19C90.3,63.34,90.31,63.45,90.31,63.59Z"/><path class="cls-5" d="M96.34,65.66a3.91,3.91,0,0,1-.17,1.22,2.6,2.6,0,0,1-.53,1,2.39,2.39,0,0,1-.9.61,3.26,3.26,0,0,1-1.26.22,3.42,3.42,0,0,1-1.21-.19,2.13,2.13,0,0,1-.85-.57,2.21,2.21,0,0,1-.51-.9,4.22,4.22,0,0,1-.16-1.23,3.91,3.91,0,0,1,.18-1.22,2.66,2.66,0,0,1,.53-.95,2.39,2.39,0,0,1,.9-.61,3.17,3.17,0,0,1,1.25-.22,3.44,3.44,0,0,1,1.22.19,2.11,2.11,0,0,1,.85.56,2.3,2.3,0,0,1,.5.91A4.22,4.22,0,0,1,96.34,65.66Zm-1.51.06a3.92,3.92,0,0,0-.06-.71,1.56,1.56,0,0,0-.21-.56,1,1,0,0,0-.39-.38,1.46,1.46,0,0,0-1.18,0,1,1,0,0,0-.41.35,2,2,0,0,0-.24.55,3.38,3.38,0,0,0-.07.74,3.84,3.84,0,0,0,.06.71,1.61,1.61,0,0,0,.21.57.93.93,0,0,0,.39.37,1.23,1.23,0,0,0,.61.13,1.34,1.34,0,0,0,.58-.12,1,1,0,0,0,.4-.35,1.63,1.63,0,0,0,.23-.55A3.29,3.29,0,0,0,94.83,65.72Z"/><path class="cls-5" d="M103.9,66.85a1.8,1.8,0,0,1-.17.79,1.59,1.59,0,0,1-.47.56,2.41,2.41,0,0,1-.72.35,3.7,3.7,0,0,1-.9.11,4.92,4.92,0,0,1-.56,0,2.8,2.8,0,0,1-.48-.12,2.65,2.65,0,0,1-.35-.13l-.21-.13a.62.62,0,0,1-.1-.2,1.92,1.92,0,0,1,0-.39,2.1,2.1,0,0,1,0-.27.53.53,0,0,1,0-.16.19.19,0,0,1,.05-.09l.09,0a.41.41,0,0,1,.19.08l.32.16a3,3,0,0,0,.43.16,2,2,0,0,0,.57.08,1.78,1.78,0,0,0,.35,0,1.11,1.11,0,0,0,.27-.12.44.44,0,0,0,.17-.19.6.6,0,0,0,.06-.27.4.4,0,0,0-.11-.3.78.78,0,0,0-.28-.22,3.15,3.15,0,0,0-.41-.18l-.46-.18a4,4,0,0,1-.46-.23,1.77,1.77,0,0,1-.41-.31,1.71,1.71,0,0,1-.28-.45,1.56,1.56,0,0,1-.11-.64,1.58,1.58,0,0,1,.15-.69,1.41,1.41,0,0,1,.42-.53,2,2,0,0,1,.67-.35,3,3,0,0,1,.88-.12,2.45,2.45,0,0,1,.48,0l.42.08.32.12.18.1a.32.32,0,0,1,.08.09.35.35,0,0,1,0,.11.61.61,0,0,1,0,.15,1.41,1.41,0,0,1,0,.22,1.86,1.86,0,0,1,0,.26.63.63,0,0,1,0,.16.18.18,0,0,1-.06.08l-.08,0a.43.43,0,0,1-.17-.06A1.71,1.71,0,0,0,103,64l-.39-.14a1.9,1.9,0,0,0-.5-.06,1.78,1.78,0,0,0-.35,0,.9.9,0,0,0-.24.12.49.49,0,0,0-.14.18.54.54,0,0,0,0,.22.4.4,0,0,0,.11.3.82.82,0,0,0,.29.22l.41.18.47.17a4.09,4.09,0,0,1,.47.23,1.81,1.81,0,0,1,.41.32,1.35,1.35,0,0,1,.29.44A1.49,1.49,0,0,1,103.9,66.85Z"/><path class="cls-5" d="M106.59,61.34a.82.82,0,0,1-.18.61,1,1,0,0,1-.68.17,1,1,0,0,1-.67-.16,1.13,1.13,0,0,1,0-1.21,1,1,0,0,1,.68-.17,1,1,0,0,1,.66.16A.8.8,0,0,1,106.59,61.34Zm-.11,7a.14.14,0,0,1,0,.1.22.22,0,0,1-.12.07.9.9,0,0,1-.22,0h-.72a.9.9,0,0,1-.22,0,.22.22,0,0,1-.12-.07.14.14,0,0,1,0-.1V63.12a.15.15,0,0,1,0-.11.22.22,0,0,1,.12-.07.9.9,0,0,1,.22,0l.36,0,.36,0a.9.9,0,0,1,.22,0,.22.22,0,0,1,.12.07.15.15,0,0,1,0,.11Z"/><path class="cls-5" d="M111.62,66.85a1.8,1.8,0,0,1-.16.79,1.61,1.61,0,0,1-.48.56,2.2,2.2,0,0,1-.72.35,3.58,3.58,0,0,1-.9.11,5.09,5.09,0,0,1-.56,0,2.93,2.93,0,0,1-.47-.12,2.65,2.65,0,0,1-.35-.13.86.86,0,0,1-.21-.13.47.47,0,0,1-.1-.2,1.92,1.92,0,0,1,0-.39,2.1,2.1,0,0,1,0-.27,1.57,1.57,0,0,1,0-.16l.06-.09.09,0a.45.45,0,0,1,.19.08l.31.16a3.16,3.16,0,0,0,.44.16,1.84,1.84,0,0,0,.92,0,1.11,1.11,0,0,0,.27-.12.52.52,0,0,0,.17-.19.6.6,0,0,0,.06-.27.44.44,0,0,0-.11-.3.82.82,0,0,0-.29-.22,3,3,0,0,0-.4-.18l-.46-.18a3.29,3.29,0,0,1-.46-.23,1.58,1.58,0,0,1-.41-.31,1.74,1.74,0,0,1-.29-.45,1.76,1.76,0,0,1-.1-.64,1.58,1.58,0,0,1,.14-.69,1.64,1.64,0,0,1,.42-.53,2.24,2.24,0,0,1,.67-.35,3.09,3.09,0,0,1,.89-.12,2.59,2.59,0,0,1,.48,0l.42.08L111,63l.19.1.08.09,0,.11a.61.61,0,0,1,0,.15,1.41,1.41,0,0,1,0,.22,1.86,1.86,0,0,1,0,.26.57.57,0,0,1,0,.16.12.12,0,0,1-.05.08l-.09,0a.4.4,0,0,1-.16-.06,1.87,1.87,0,0,0-.28-.13l-.38-.14a2,2,0,0,0-.5-.06,1.69,1.69,0,0,0-.35,0,.67.67,0,0,0-.24.12.49.49,0,0,0-.14.18.54.54,0,0,0,0,.22.44.44,0,0,0,.11.3,1,1,0,0,0,.3.22l.41.18.47.17a5.08,5.08,0,0,1,.47.23,1.81,1.81,0,0,1,.41.32,1.35,1.35,0,0,1,.29.44A1.49,1.49,0,0,1,111.62,66.85Z"/><path class="cls-5" d="M115.69,67.81a1.45,1.45,0,0,1,0,.4.33.33,0,0,1-.24.29l-.24.07a1.35,1.35,0,0,1-.29.05,1.83,1.83,0,0,1-.33,0,2.44,2.44,0,0,1-.76-.11,1.22,1.22,0,0,1-.53-.34,1.41,1.41,0,0,1-.31-.58,3,3,0,0,1-.1-.84V64.1h-.63a.2.2,0,0,1-.17-.14,1.23,1.23,0,0,1-.06-.46,2,2,0,0,1,0-.28.78.78,0,0,1,0-.19.26.26,0,0,1,.07-.1l.11,0h.62V61.74a.17.17,0,0,1,0-.1.18.18,0,0,1,.12-.08.6.6,0,0,1,.22-.05l.36,0,.36,0a.6.6,0,0,1,.22.05.18.18,0,0,1,.12.08.18.18,0,0,1,0,.1v1.17h1.13l.1,0a.27.27,0,0,1,.08.1.78.78,0,0,1,0,.19,2,2,0,0,1,0,.28,1.23,1.23,0,0,1-.06.46.2.2,0,0,1-.17.14h-1.14v2.45a1.2,1.2,0,0,0,.13.64.51.51,0,0,0,.48.22l.21,0,.17,0,.12,0,.09,0,.07,0a.16.16,0,0,1,0,.08s0,.1,0,.17A1.87,1.87,0,0,1,115.69,67.81Z"/><path class="cls-5" d="M121.43,65.56a.56.56,0,0,1-.12.4.42.42,0,0,1-.33.13H117.8a2,2,0,0,0,.08.61,1.09,1.09,0,0,0,.25.46,1.17,1.17,0,0,0,.44.29,2.13,2.13,0,0,0,.66.1,3.51,3.51,0,0,0,.68-.06l.5-.12.36-.12a.56.56,0,0,1,.22-.06l.09,0a.22.22,0,0,1,.06.07.33.33,0,0,1,0,.15,1.85,1.85,0,0,1,0,.25v.22c0,.06,0,.11,0,.15a.36.36,0,0,1,0,.11.16.16,0,0,1-.06.08.46.46,0,0,1-.21.11,2.17,2.17,0,0,1-.43.14,4.54,4.54,0,0,1-.6.12,5.58,5.58,0,0,1-.73,0,3.78,3.78,0,0,1-1.22-.18A2,2,0,0,1,117,68a2.24,2.24,0,0,1-.53-.9,4.41,4.41,0,0,1-.17-1.28,4.06,4.06,0,0,1,.18-1.25,2.66,2.66,0,0,1,.53-.95,2.17,2.17,0,0,1,.84-.59,2.82,2.82,0,0,1,1.11-.21,3.08,3.08,0,0,1,1.12.19,2.06,2.06,0,0,1,.77.54,2.27,2.27,0,0,1,.44.81,3.64,3.64,0,0,1,.14,1ZM120,65.14a1.49,1.49,0,0,0-.25-1,1,1,0,0,0-.82-.36,1.07,1.07,0,0,0-.49.11,1,1,0,0,0-.35.28,1.38,1.38,0,0,0-.21.42,2.25,2.25,0,0,0-.08.52Z"/><path class="cls-5" d="M130.94,68.33a.19.19,0,0,1,0,.1.27.27,0,0,1-.12.07.9.9,0,0,1-.22,0h-.72l-.23,0a.23.23,0,0,1-.11-.07.21.21,0,0,1,0-.1v-3.1a2.33,2.33,0,0,0,0-.48,1.25,1.25,0,0,0-.16-.37.6.6,0,0,0-.26-.24.7.7,0,0,0-.37-.09.88.88,0,0,0-.53.21,3.25,3.25,0,0,0-.58.59v3.48a.21.21,0,0,1,0,.1.22.22,0,0,1-.12.07,1,1,0,0,1-.23,0h-.7a1,1,0,0,1-.23,0,.22.22,0,0,1-.12-.07.19.19,0,0,1,0-.1v-3.1a2.28,2.28,0,0,0,0-.48,1.58,1.58,0,0,0-.15-.37.6.6,0,0,0-.26-.24.75.75,0,0,0-.37-.09.88.88,0,0,0-.54.21,3.25,3.25,0,0,0-.58.59v3.48a.19.19,0,0,1,0,.1.35.35,0,0,1-.12.07,1,1,0,0,1-.23,0H123l-.23,0a.35.35,0,0,1-.12-.07.19.19,0,0,1,0-.1V63.1a.19.19,0,0,1,0-.1.2.2,0,0,1,.1-.07.54.54,0,0,1,.2,0l.3,0,.31,0a.45.45,0,0,1,.19,0,.2.2,0,0,1,.1.07.19.19,0,0,1,0,.1v.61a3.16,3.16,0,0,1,.86-.7,1.84,1.84,0,0,1,.9-.24,2.1,2.1,0,0,1,.58.07,1.71,1.71,0,0,1,.46.19,2,2,0,0,1,.35.3,2.23,2.23,0,0,1,.24.4,4.62,4.62,0,0,1,.46-.44,2.28,2.28,0,0,1,.45-.29,1.54,1.54,0,0,1,.43-.17,1.74,1.74,0,0,1,.45-.06A1.94,1.94,0,0,1,130,63a1.49,1.49,0,0,1,.58.47,2,2,0,0,1,.31.71,3.89,3.89,0,0,1,.09.85Z"/><path class="cls-5" d="M136.84,68.34a.15.15,0,0,1-.06.13.38.38,0,0,1-.19.07l-.37,0-.38,0a.3.3,0,0,1-.17-.07.17.17,0,0,1,0-.13v-.41a2.31,2.31,0,0,1-.74.54,2.09,2.09,0,0,1-.91.19,2.58,2.58,0,0,1-.76-.11,1.69,1.69,0,0,1-.61-.32,1.38,1.38,0,0,1-.39-.53,1.72,1.72,0,0,1-.14-.74,1.65,1.65,0,0,1,.18-.79,1.35,1.35,0,0,1,.53-.56,2.74,2.74,0,0,1,.88-.32,6.27,6.27,0,0,1,1.22-.11h.51v-.31a1.37,1.37,0,0,0,0-.43.7.7,0,0,0-.16-.31.73.73,0,0,0-.31-.18,1.53,1.53,0,0,0-.47-.06,2.71,2.71,0,0,0-.66.08l-.51.18-.37.18a.51.51,0,0,1-.24.09.18.18,0,0,1-.12,0,.24.24,0,0,1-.08-.11.87.87,0,0,1,0-.19,1.81,1.81,0,0,1,0-.25,1,1,0,0,1,0-.28.45.45,0,0,1,.11-.19,1.11,1.11,0,0,1,.29-.19,3.69,3.69,0,0,1,.48-.19,3.31,3.31,0,0,1,.6-.14,3.71,3.71,0,0,1,.67-.06,4,4,0,0,1,1.05.12,1.76,1.76,0,0,1,.72.37,1.47,1.47,0,0,1,.41.64,3.16,3.16,0,0,1,.13.93Zm-1.45-2.23h-.56a2.73,2.73,0,0,0-.61,0,1.3,1.3,0,0,0-.41.16.68.68,0,0,0-.23.25.78.78,0,0,0-.07.35.65.65,0,0,0,.21.51.79.79,0,0,0,.57.19,1.11,1.11,0,0,0,.57-.16,2.42,2.42,0,0,0,.53-.46Z"/><path class="cls-5" d="M142.64,62.74a2.65,2.65,0,0,1-.14.87,1.94,1.94,0,0,1-.39.67,2.05,2.05,0,0,1-.59.45,2.37,2.37,0,0,1-.77.21l-.05,1.14c0,.07-.06.13-.17.16a1.39,1.39,0,0,1-.46.05h-.33l-.2,0a.17.17,0,0,1-.11-.06.19.19,0,0,1-.05-.11l0-1.38a1.32,1.32,0,0,1,0-.3.37.37,0,0,1,.08-.19.34.34,0,0,1,.16-.1l.22,0h.08a1.27,1.27,0,0,0,.54-.1,1.29,1.29,0,0,0,.37-.26.92.92,0,0,0,.21-.39,1.51,1.51,0,0,0,.07-.48,1.7,1.7,0,0,0-.08-.51,1,1,0,0,0-.24-.4.93.93,0,0,0-.4-.26,1.42,1.42,0,0,0-.57-.1,2.09,2.09,0,0,0-.53.06l-.39.13-.27.13a.43.43,0,0,1-.17.06.13.13,0,0,1-.08,0,.15.15,0,0,1,0-.09.88.88,0,0,1,0-.2,2.92,2.92,0,0,1,0-.33,1.9,1.9,0,0,1,0-.3.28.28,0,0,1,.08-.15.76.76,0,0,1,.22-.14l.39-.15a5,5,0,0,1,.51-.11,3.7,3.7,0,0,1,.59,0,3.43,3.43,0,0,1,1.18.19,2.18,2.18,0,0,1,.8.52,2,2,0,0,1,.46.73A2.58,2.58,0,0,1,142.64,62.74Zm-1.73,5a2.15,2.15,0,0,1,0,.4.58.58,0,0,1-.14.27.61.61,0,0,1-.25.14,1.54,1.54,0,0,1-.4,0,1.49,1.49,0,0,1-.4,0,.65.65,0,0,1-.26-.14.57.57,0,0,1-.13-.27,1.54,1.54,0,0,1,0-.4,1.58,1.58,0,0,1,0-.41.49.49,0,0,1,.13-.27.56.56,0,0,1,.26-.15,1.49,1.49,0,0,1,.4,0,1.54,1.54,0,0,1,.4,0,.53.53,0,0,1,.25.15.5.5,0,0,1,.14.27A2.18,2.18,0,0,1,140.91,67.76Z"/></g></g></svg>