<svg id="Capa_1" data-name="Capa 1" xmlns="http://www.w3.org/2000/svg" viewBox="0 0 56.33 55.87"><defs><style>.cls-1{fill:#00ca64;}.cls-2{fill:#ffb45f;}.cls-3{fill:none;}.cls-3,.cls-4{stroke:#000;stroke-linecap:round;stroke-linejoin:round;}.cls-4{stroke-width:0.5px;}</style></defs><path class="cls-1" d="M27.57,23H11A10.54,10.54,0,0,1,.5,12.48V11A10.54,10.54,0,0,1,11,.5H27.57A10.55,10.55,0,0,1,38.11,11v1.45A10.55,10.55,0,0,1,27.57,23ZM11,4.37A6.67,6.67,0,0,0,4.37,11v1.45A6.67,6.67,0,0,0,11,19.14H27.57a6.66,6.66,0,0,0,6.66-6.66V11a6.66,6.66,0,0,0-6.66-6.66Z"/><path class="cls-2" d="M45.29,5.91H28.75A10.54,10.54,0,0,0,18.22,16.44v1.45a9.22,9.22,0,0,0,.09,1.29h3.91a6.88,6.88,0,0,1-.13-1.29V16.44a6.67,6.67,0,0,1,6.66-6.66H45.29A6.66,6.66,0,0,1,52,16.44v1.45a6.66,6.66,0,0,1-6.66,6.66H28.75a6.57,6.57,0,0,1-4.17-1.48h-5a10.55,10.55,0,0,0,9.16,5.35H45.29A10.55,10.55,0,0,0,55.83,17.89V16.44A10.55,10.55,0,0,0,45.29,5.91Z"/><path class="cls-3" d="M18.29,19.1a9.71,9.71,0,0,1-.07-1.21V16.44A10.54,10.54,0,0,1,28.75,5.91H45.29A10.55,10.55,0,0,1,55.83,16.44v1.45A10.55,10.55,0,0,1,45.29,28.42H28.75a10.55,10.55,0,0,1-9.17-5.35M24.44,23a6.63,6.63,0,0,0,4.31,1.59H45.29A6.66,6.66,0,0,0,52,17.89V16.44a6.66,6.66,0,0,0-6.66-6.66H28.75a6.67,6.67,0,0,0-6.66,6.66v1.45a7,7,0,0,0,.1,1.13"/><path class="cls-3" d="M38.06,10c0,.33,0,.68,0,1v1.45A10.55,10.55,0,0,1,27.57,23H11A10.54,10.54,0,0,1,.5,12.48V11A10.54,10.54,0,0,1,11,.5H27.57A10.55,10.55,0,0,1,36.81,6m-5-.06a6.65,6.65,0,0,0-4.26-1.54H11A6.67,6.67,0,0,0,4.37,11v1.45A6.67,6.67,0,0,0,11,19.14H27.57a6.66,6.66,0,0,0,6.66-6.66V11a6.86,6.86,0,0,0-.09-1.12"/><path class="cls-4" d="M13,48.87H9.21v3.71h4.26v1.11H7.94V43.41h5.31v1.11h-4v3.25H13Z"/><path class="cls-4" d="M15.07,48.31c0-.77,0-1.39-.06-2h1.14l.07,1.22h0a2.59,2.59,0,0,1,2.33-1.39c1,0,2.49.61,2.49,3.14v4.41H19.79V49.44c0-1.19-.42-2.19-1.63-2.19a1.84,1.84,0,0,0-1.72,1.38,1.93,1.93,0,0,0-.09.62v4.44H15.07Z"/><path class="cls-4" d="M23.16,42.86h1.28V53.69H23.16Z"/><path class="cls-4" d="M30.5,53.69l-.1-.93h0a2.6,2.6,0,0,1-2.16,1.1A2.06,2.06,0,0,1,26,51.74C26,50,27.56,49,30.28,49v-.15a1.5,1.5,0,0,0-1.6-1.71,3.43,3.43,0,0,0-1.83.55l-.3-.88a4.23,4.23,0,0,1,2.32-.66c2.16,0,2.68,1.54,2.68,3v2.76a10.55,10.55,0,0,0,.12,1.77Zm-.19-3.77c-1.39,0-3,.23-3,1.67a1.16,1.16,0,0,0,1.21,1.28,1.76,1.76,0,0,0,1.7-1.24,1.54,1.54,0,0,0,.07-.42Z"/><path class="cls-4" d="M38.65,53.42a4.61,4.61,0,0,1-2,.43,3.44,3.44,0,0,1-3.51-3.77,3.67,3.67,0,0,1,3.79-3.92,4,4,0,0,1,1.78.38l-.29,1a2.92,2.92,0,0,0-1.49-.35A2.51,2.51,0,0,0,34.41,50a2.48,2.48,0,0,0,2.45,2.76,3.44,3.44,0,0,0,1.57-.37Z"/><path class="cls-4" d="M40.78,50.24a2.32,2.32,0,0,0,2.42,2.57,4.49,4.49,0,0,0,1.95-.38l.22,1a5.56,5.56,0,0,1-2.35.46c-2.17,0-3.46-1.5-3.46-3.73s1.25-4,3.3-4c2.31,0,2.92,2.12,2.92,3.48a4,4,0,0,1-.05.62Zm3.76-1c0-.85-.34-2.18-1.78-2.18s-1.86,1.25-2,2.18Z"/></svg>
