<svg xmlns="http://www.w3.org/2000/svg" viewBox="0 0 40 40"><defs><style>.cls-1{fill:#00877a;}.cls-2{fill:#eef7da;}</style></defs><g id="Capa_2" data-name="Capa 2"><g id="Capa_1-2" data-name="Capa 1"><circle class="cls-1" cx="20" cy="20" r="20" transform="translate(-2.95 36.54) rotate(-80.78)"/><path class="cls-2" d="M23.15,30a.77.77,0,0,1-.58-.25L14.84,24V16.11l7.61-5.68a.88.88,0,0,1,.65-.3.81.81,0,0,1,.84.78V29.22A.76.76,0,0,1,23.15,30ZM16.28,16.83v6.45l6.22,4.57V12.2Z"/><path class="cls-2" d="M10.76,24A1.67,1.67,0,0,1,9.1,22.29V17.8a1.66,1.66,0,0,1,1.66-1.66h2.08V24Zm-.22-1.44h.86V17.58h-.86Z"/><path class="cls-2" d="M26.41,23.56a.63.63,0,0,1-.3-.07.71.71,0,0,1-.38-.4.75.75,0,0,1,0-.55,5.7,5.7,0,0,0-.09-4.94.73.73,0,0,1,.65-1.05A.71.71,0,0,1,27,17a7.08,7.08,0,0,1,.1,6.19A.7.7,0,0,1,26.41,23.56Z"/><path class="cls-2" d="M28.83,25.28a.71.71,0,0,1-.59-1.12,7,7,0,0,0,.89-1.89,7.34,7.34,0,0,0-1-6.32.72.72,0,0,1,.16-1,.71.71,0,0,1,.42-.14.73.73,0,0,1,.58.3,8.68,8.68,0,0,1,1.25,7.59A8.45,8.45,0,0,1,29.43,25,.72.72,0,0,1,28.83,25.28Z"/></g></g></svg>