<svg xmlns="http://www.w3.org/2000/svg" viewBox="0 0 55 55"><defs><style>.cls-1{fill:#006632;}.cls-2{fill:#fff;}</style></defs><g id="Capa_2" data-name="Capa 2"><g id="Capa_1-2" data-name="Capa 1"><circle class="cls-1" cx="27.5" cy="27.5" r="27.5"/><path class="cls-2" d="M30.64,14,20,21.89V33.15l10.74,7.91a1.5,1.5,0,0,0,1.09.47,1.44,1.44,0,0,0,1.48-1.41V14.94a1.54,1.54,0,0,0-2.68-1Zm-.1,23.48-7.75-5.71V23.28l7.75-5.77Z"/><path class="cls-2" d="M14.81,33.27h3.25V21.73H14.81a2.69,2.69,0,0,0-2.69,2.68v6.18A2.69,2.69,0,0,0,14.81,33.27Zm.09-8.76h.38v6H14.9Z"/><path class="cls-2" d="M35.74,32.61a1.36,1.36,0,0,0,.58.13,1.38,1.38,0,0,0,1.26-.81,10.19,10.19,0,0,0-.15-8.87A1.39,1.39,0,1,0,35,24.32a7.42,7.42,0,0,1,.1,6.44A1.4,1.4,0,0,0,35.74,32.61Z"/><path class="cls-2" d="M40.57,20.47a1.39,1.39,0,0,0-2.25,1.63,9.7,9.7,0,0,1,1.36,8.35,9,9,0,0,1-1.18,2.49,1.38,1.38,0,0,0,.38,1.92,1.33,1.33,0,0,0,.78.24,1.39,1.39,0,0,0,1.15-.61,12.27,12.27,0,0,0-.24-14Z"/></g></g></svg>