<svg xmlns="http://www.w3.org/2000/svg" viewBox="0 0 55 55"><defs><style>.cls-1{fill:#006632;}.cls-2{fill:#fff;}</style></defs><g id="Capa_2" data-name="Capa 2"><g id="Capa_1-2" data-name="Capa 1"><circle class="cls-1" cx="27.5" cy="27.5" r="27.5" transform="translate(-8.43 12.62) rotate(-22.5)"/><path class="cls-2" d="M15.68,36H17v7.36L24.22,36h15.1a3.85,3.85,0,0,0,3.84-3.86V15.56a3.85,3.85,0,0,0-3.84-3.87H15.68a3.85,3.85,0,0,0-3.84,3.87V32.09A3.85,3.85,0,0,0,15.68,36ZM14.43,15.76a1.52,1.52,0,0,1,1.51-1.52H39.06a1.52,1.52,0,0,1,1.51,1.52V32a1.52,1.52,0,0,1-1.51,1.52h-15a1.73,1.73,0,0,0-1.23.52l-3.38,3.43V35.24a1.73,1.73,0,0,0-1.72-1.73h-1.8A1.52,1.52,0,0,1,14.43,32Z"/><path class="cls-2" d="M27.91,28.62a1.1,1.1,0,0,0-.78.32,1.05,1.05,0,0,0,0,1.53,1.13,1.13,0,0,0,.78.32A1.13,1.13,0,0,0,29,29.71a1.05,1.05,0,0,0-.32-.76A1,1,0,0,0,27.91,28.62Z"/><path class="cls-2" d="M24.71,20.82c.41,0,.7-.33.88-.93a2.11,2.11,0,0,1,2.28-1.55,2.42,2.42,0,0,1,1.79.67,2.4,2.4,0,0,1,.68,1.79,1.89,1.89,0,0,1-1.52,2.06l-.8.21a2.34,2.34,0,0,0-.76.29.83.83,0,0,0-.3.71V26.9a.87.87,0,0,0,.91,1c.63-.05.95-.37.95-1V24.69a4.07,4.07,0,0,0,3.58-4.36A3.72,3.72,0,0,0,30,17.05a4.88,4.88,0,0,0-2-.45,4.61,4.61,0,0,0-2.78.82,3.33,3.33,0,0,0-1.42,2,1.66,1.66,0,0,1,0,.42,1,1,0,0,0,.26.69A1.9,1.9,0,0,0,24.71,20.82Z"/></g></g></svg>