<svg id="Capa_1" data-name="Capa 1" xmlns="http://www.w3.org/2000/svg" xmlns:xlink="http://www.w3.org/1999/xlink" viewBox="0 0 109.49 120.83"><defs><style>.cls-1{fill:none;}.cls-2{clip-path:url(#clip-path);}.cls-3{fill:#0a857a;}.cls-4{fill:#93d500;}</style><clipPath id="clip-path"><rect class="cls-1" x="-97.95" y="-60.03" width="207.32" height="180.79" transform="translate(11.43 60.74) rotate(180)"/></clipPath></defs><g class="cls-2"><path class="cls-3" d="M-11.31,143.47A170.94,170.94,0,0,1-123,119.57C-88,156-35.44,176,20.24,168.93,111.48,157.42,176.56,77.69,165.61-9.14c-6.06-48-34.09-88.14-73.37-112.49a152.69,152.69,0,0,1,41.83,87C145,52.24,79.93,132-11.31,143.47Z"/><path class="cls-4" d="M111.31-49c11,86.84-54.13,166.56-145.37,178.07A171.83,171.83,0,0,1-127,115.22q2,2.2,4,4.35a170.94,170.94,0,0,0,111.67,23.9C79.93,132,145,52.24,134.07-34.6a152.69,152.69,0,0,0-41.83-87,167.71,167.71,0,0,0-18.72-10A152.35,152.35,0,0,1,111.31-49Z"/></g></svg>