<svg xmlns="http://www.w3.org/2000/svg" xmlns:xlink="http://www.w3.org/1999/xlink" viewBox="0 0 308.79 236.24"><defs><style>.cls-1{isolation:isolate;}.cls-2{fill:url(#Degradado_sin_nombre_72);}.cls-3{fill:url(#Degradado_sin_nombre_72-2);}.cls-4{fill:url(#Degradado_sin_nombre_72-3);}.cls-5{fill:url(#Degradado_sin_nombre_72-4);}.cls-6{fill:url(#Degradado_sin_nombre_72-5);}.cls-7{fill:url(#Degradado_sin_nombre_72-6);}.cls-8{mix-blend-mode:multiply;opacity:0.5;}.cls-9{fill:#fff;opacity:0;}.cls-10{fill:#fdfdfd;opacity:0.01;}.cls-11{fill:#fbfbfb;opacity:0.02;}.cls-12{fill:#f9f9fa;opacity:0.04;}.cls-13{fill:#f7f7f8;opacity:0.05;}.cls-14{fill:#f4f5f6;opacity:0.06;}.cls-15{fill:#f2f3f4;opacity:0.07;}.cls-16{fill:#f0f0f2;opacity:0.09;}.cls-17{fill:#eeeef0;opacity:0.1;}.cls-18{fill:#ececef;opacity:0.11;}.cls-19{fill:#eaeaed;opacity:0.12;}.cls-20{fill:#e8e8eb;opacity:0.14;}.cls-21{fill:#e6e6e9;opacity:0.15;}.cls-22{fill:#e3e4e7;opacity:0.16;}.cls-23{fill:#e1e2e5;opacity:0.17;}.cls-24{fill:#dfe0e4;opacity:0.19;}.cls-25{fill:#dddee2;opacity:0.2;}.cls-26{fill:#dbdce0;opacity:0.21;}.cls-27{fill:#d9dade;opacity:0.22;}.cls-28{fill:#d7d8dc;opacity:0.23;}.cls-29{fill:#d5d6da;opacity:0.25;}.cls-30{fill:#d2d3d9;opacity:0.26;}.cls-31{fill:#d0d1d7;opacity:0.27;}.cls-32{fill:#cecfd5;opacity:0.28;}.cls-33{fill:#cccdd3;opacity:0.3;}.cls-34{fill:#cacbd1;opacity:0.31;}.cls-35{fill:#c8c9cf;opacity:0.32;}.cls-36{fill:#c6c7ce;opacity:0.33;}.cls-37{fill:#c4c5cc;opacity:0.35;}.cls-38{fill:#c1c3ca;opacity:0.36;}.cls-39{fill:#bfc1c8;opacity:0.37;}.cls-40{fill:#bdbfc6;opacity:0.38;}.cls-41{fill:#bbbdc5;opacity:0.4;}.cls-42{fill:#b9bbc3;opacity:0.41;}.cls-43{fill:#b7b8c1;opacity:0.42;}.cls-44{fill:#b5b6bf;opacity:0.43;}.cls-45{fill:#b3b4bd;opacity:0.44;}.cls-46{fill:#b0b2bb;opacity:0.46;}.cls-47{fill:#aeb0ba;opacity:0.47;}.cls-48{fill:#acaeb8;opacity:0.48;}.cls-49{fill:#aaacb6;opacity:0.49;}.cls-50{fill:#a8aab4;opacity:0.51;}.cls-51{fill:#a6a8b2;opacity:0.52;}.cls-52{fill:#a4a6b0;opacity:0.53;}.cls-53{fill:#a2a4af;opacity:0.54;}.cls-54{fill:#9fa2ad;opacity:0.56;}.cls-55{fill:#9da0ab;opacity:0.57;}.cls-56{fill:#9b9ea9;opacity:0.58;}.cls-57{fill:#999ba7;opacity:0.59;}.cls-58{fill:#9799a5;opacity:0.6;}.cls-59{fill:#9597a4;opacity:0.62;}.cls-60{fill:#9395a2;opacity:0.63;}.cls-61{fill:#9193a0;opacity:0.64;}.cls-62{fill:#8e919e;opacity:0.65;}.cls-63{fill:#8c8f9c;opacity:0.67;}.cls-64{fill:#8a8d9b;opacity:0.68;}.cls-65{fill:#888b99;opacity:0.69;}.cls-66{fill:#868997;opacity:0.7;}.cls-67{fill:#848795;opacity:0.72;}.cls-68{fill:#828593;opacity:0.73;}.cls-69{fill:#808391;opacity:0.74;}.cls-70{fill:#7d8090;opacity:0.75;}.cls-71{fill:#7b7e8e;opacity:0.77;}.cls-72{fill:#797c8c;opacity:0.78;}.cls-73{fill:#777a8a;opacity:0.79;}.cls-74{fill:#757888;opacity:0.8;}.cls-75{fill:#737686;opacity:0.81;}.cls-76{fill:#717485;opacity:0.83;}.cls-77{fill:#6f7283;opacity:0.84;}.cls-78{fill:#6c7081;opacity:0.85;}.cls-79{fill:#6a6e7f;opacity:0.86;}.cls-80{fill:#686c7d;opacity:0.88;}.cls-81{fill:#666a7b;opacity:0.89;}.cls-82{fill:#64687a;opacity:0.9;}.cls-83{fill:#626678;opacity:0.91;}.cls-84{fill:#606376;opacity:0.93;}.cls-85{fill:#5e6174;opacity:0.94;}.cls-86{fill:#5b5f72;opacity:0.95;}.cls-87{fill:#595d70;opacity:0.96;}.cls-88{fill:#575b6f;opacity:0.98;}.cls-89{fill:#55596d;opacity:0.99;}.cls-90{fill:#53576b;}.cls-91{fill:url(#_ÂÁ_Ï_ÌÌ_È_ËÂÌÚ_6);}.cls-92{fill:url(#_ÂÁ_Ï_ÌÌ_È_ËÂÌÚ_61);}.cls-93{fill:none;stroke-miterlimit:10;stroke-width:4.29px;stroke:url(#Degradado_sin_nombre_76);}.cls-94{fill:#006864;}</style><linearGradient id="Degradado_sin_nombre_72" x1="-1928.26" y1="5103.5" x2="-1889.74" y2="5103.5" gradientTransform="matrix(-0.38, 0.92, -0.92, -0.38, 4047.59, 3744.23)" gradientUnits="userSpaceOnUse"><stop offset="0" stop-color="#82f078"/><stop offset="1" stop-color="#60f06b"/></linearGradient><linearGradient id="Degradado_sin_nombre_72-2" x1="30.8" y1="213.55" x2="68.88" y2="213.55" gradientTransform="matrix(1, 0, 0, 1, 0, 0)" xlink:href="#Degradado_sin_nombre_72"/><linearGradient id="Degradado_sin_nombre_72-3" x1="2.98" y1="118.45" x2="36.76" y2="118.45" gradientTransform="matrix(1, 0, 0, 1, 0, 0)" xlink:href="#Degradado_sin_nombre_72"/><linearGradient id="Degradado_sin_nombre_72-4" x1="236.75" y1="24.54" x2="274.94" y2="24.54" gradientTransform="matrix(1, 0, 0, 1, 0, 0)" xlink:href="#Degradado_sin_nombre_72"/><linearGradient id="Degradado_sin_nombre_72-5" x1="239.26" y1="213.55" x2="277.34" y2="213.55" gradientTransform="matrix(1, 0, 0, 1, 0, 0)" xlink:href="#Degradado_sin_nombre_72"/><linearGradient id="Degradado_sin_nombre_72-6" x1="272.04" y1="118.45" x2="305.81" y2="118.45" gradientTransform="matrix(1, 0, 0, 1, 0, 0)" xlink:href="#Degradado_sin_nombre_72"/><linearGradient id="_ÂÁ_Ï_ÌÌ_È_ËÂÌÚ_6" x1="96.44" y1="59.56" x2="218.19" y2="181.31" gradientUnits="userSpaceOnUse"><stop offset="0" stop-color="#e2e1e6"/><stop offset="0.84" stop-color="#fff"/></linearGradient><linearGradient id="_ÂÁ_Ï_ÌÌ_È_ËÂÌÚ_61" x1="-639.36" y1="155.51" x2="-460.99" y2="155.51" gradientTransform="translate(657 400.19) rotate(45)" gradientUnits="userSpaceOnUse"><stop offset="0" stop-color="#fff"/><stop offset="1" stop-color="#e6e6e6"/></linearGradient><linearGradient id="Degradado_sin_nombre_76" x1="57.44" y1="121.83" x2="260.78" y2="121.83" gradientUnits="userSpaceOnUse"><stop offset="0" stop-color="#8cf200"/><stop offset="1" stop-color="#009732"/></linearGradient></defs><g class="cls-1"><g id="Capa_1" data-name="Capa 1"><path class="cls-2" d="M75.4,37.28,56.31,39.81l-19.1,2.53s8.21-6.64,11.61-15.79c2.88-7.72,3.11-19.81,3.11-19.81L63.66,22Z"/><path class="cls-3" d="M68.88,201.42l-19-2.91-19-2.91s8.07,6.81,11.29,16c2.73,7.78,2.71,19.87,2.71,19.87l12-15Z"/><path class="cls-4" d="M36.76,119.18l-16.89,9.26L3,137.7s5.24-9.16,5.12-18.91c-.11-8.24-4.27-19.6-4.27-19.6l16.46,10Z"/><path class="cls-5" d="M236.75,37.28l19.1,2.53,19.09,2.53s-8.2-6.64-11.61-15.79c-2.87-7.72-3.1-19.81-3.1-19.81L248.49,22Z"/><path class="cls-6" d="M239.26,201.42l19-2.91,19-2.91s-8.07,6.81-11.29,16c-2.72,7.78-2.71,19.87-2.71,19.87l-12-15Z"/><path class="cls-7" d="M272,119.18l16.88,9.26,16.89,9.26s-5.24-9.16-5.11-18.91c.1-8.24,4.27-19.6,4.27-19.6l-16.47,10Z"/><g class="cls-8"><circle class="cls-9" cx="193.83" cy="162.87" r="89.19"/><circle class="cls-10" cx="193.39" cy="162.37" r="89.12"/><circle class="cls-11" cx="192.96" cy="161.86" r="89.06"/><circle class="cls-12" cx="192.53" cy="161.35" r="89"/><circle class="cls-13" cx="192.09" cy="160.85" r="88.93"/><circle class="cls-14" cx="191.66" cy="160.34" r="88.87"/><circle class="cls-15" cx="191.23" cy="159.84" r="88.81"/><circle class="cls-16" cx="190.79" cy="159.33" r="88.74"/><circle class="cls-17" cx="190.36" cy="158.82" r="88.68"/><circle class="cls-18" cx="189.93" cy="158.32" r="88.62"/><circle class="cls-19" cx="189.49" cy="157.81" r="88.55"/><circle class="cls-20" cx="189.06" cy="157.3" r="88.49"/><circle class="cls-21" cx="188.63" cy="156.8" r="88.43"/><circle class="cls-22" cx="188.19" cy="156.29" r="88.36"/><circle class="cls-23" cx="187.76" cy="155.78" r="88.3"/><circle class="cls-24" cx="187.33" cy="155.28" r="88.24"/><circle class="cls-25" cx="186.89" cy="154.77" r="88.17"/><circle class="cls-26" cx="186.46" cy="154.26" r="88.11"/><circle class="cls-27" cx="186.03" cy="153.76" r="88.05"/><circle class="cls-28" cx="185.59" cy="153.25" r="87.98"/><circle class="cls-29" cx="185.16" cy="152.74" r="87.92"/><circle class="cls-30" cx="184.73" cy="152.24" r="87.86"/><circle class="cls-31" cx="184.29" cy="151.73" r="87.79"/><circle class="cls-32" cx="183.86" cy="151.22" r="87.73"/><circle class="cls-33" cx="183.43" cy="150.72" r="87.67"/><circle class="cls-34" cx="182.99" cy="150.21" r="87.6"/><circle class="cls-35" cx="182.56" cy="149.7" r="87.54"/><circle class="cls-36" cx="182.13" cy="149.2" r="87.48"/><circle class="cls-37" cx="181.69" cy="148.69" r="87.41"/><circle class="cls-38" cx="181.26" cy="148.19" r="87.35"/><circle class="cls-39" cx="180.83" cy="147.68" r="87.29"/><circle class="cls-40" cx="180.39" cy="147.17" r="87.22"/><circle class="cls-41" cx="179.96" cy="146.67" r="87.16"/><circle class="cls-42" cx="179.53" cy="146.16" r="87.1"/><circle class="cls-43" cx="179.09" cy="145.65" r="87.03"/><circle class="cls-44" cx="178.66" cy="145.15" r="86.97"/><circle class="cls-45" cx="178.23" cy="144.64" r="86.91"/><circle class="cls-46" cx="177.79" cy="144.13" r="86.84"/><circle class="cls-47" cx="177.36" cy="143.63" r="86.78"/><circle class="cls-48" cx="176.93" cy="143.12" r="86.72"/><circle class="cls-49" cx="176.49" cy="142.61" r="86.65"/><circle class="cls-50" cx="176.06" cy="142.11" r="86.59"/><circle class="cls-51" cx="175.63" cy="141.6" r="86.52"/><circle class="cls-52" cx="175.19" cy="141.09" r="86.46"/><circle class="cls-53" cx="174.76" cy="140.59" r="86.4"/><circle class="cls-54" cx="174.33" cy="140.08" r="86.33"/><circle class="cls-55" cx="173.89" cy="139.57" r="86.27"/><circle class="cls-56" cx="173.46" cy="139.07" r="86.21"/><circle class="cls-57" cx="173.03" cy="138.56" r="86.14"/><circle class="cls-58" cx="172.59" cy="138.05" r="86.08"/><circle class="cls-59" cx="172.16" cy="137.55" r="86.02" transform="translate(-46.84 162.02) rotate(-45)"/><circle class="cls-60" cx="171.73" cy="137.04" r="85.95" transform="translate(-46.61 161.57) rotate(-45)"/><circle class="cls-61" cx="171.29" cy="136.54" r="85.89" transform="translate(-46.37 161.11) rotate(-45)"/><circle class="cls-62" cx="170.86" cy="136.03" r="85.83" transform="translate(-46.14 160.66) rotate(-45)"/><circle class="cls-63" cx="170.43" cy="135.52" r="85.76" transform="translate(-45.91 160.2) rotate(-45)"/><circle class="cls-64" cx="169.99" cy="135.02" r="85.7" transform="translate(-45.68 159.75) rotate(-45)"/><circle class="cls-65" cx="169.56" cy="134.51" r="85.64" transform="translate(-45.45 159.29) rotate(-45)"/><circle class="cls-66" cx="169.13" cy="134" r="85.57" transform="translate(-45.22 158.84) rotate(-45)"/><circle class="cls-67" cx="168.69" cy="133.5" r="85.51" transform="translate(-44.99 158.38) rotate(-45)"/><circle class="cls-68" cx="168.26" cy="132.99" r="85.45" transform="translate(-44.76 157.93) rotate(-45)"/><circle class="cls-69" cx="167.83" cy="132.48" r="85.38" transform="translate(-44.52 157.47) rotate(-45)"/><circle class="cls-70" cx="167.39" cy="131.98" r="85.32" transform="translate(-44.29 157.02) rotate(-45)"/><circle class="cls-71" cx="166.96" cy="131.47" r="85.26" transform="translate(-44.06 156.56) rotate(-45)"/><circle class="cls-72" cx="166.53" cy="130.96" r="85.19" transform="translate(-43.83 156.11) rotate(-45)"/><circle class="cls-73" cx="166.09" cy="130.46" r="85.13" transform="translate(-43.6 155.66) rotate(-45)"/><circle class="cls-74" cx="165.66" cy="129.95" r="85.07" transform="translate(-43.37 155.2) rotate(-45)"/><circle class="cls-75" cx="165.23" cy="129.44" r="85" transform="translate(-43.14 154.75) rotate(-45)"/><circle class="cls-76" cx="164.79" cy="128.94" r="84.94" transform="translate(-42.91 154.29) rotate(-45)"/><circle class="cls-77" cx="164.36" cy="128.43" r="84.88" transform="translate(-42.67 153.84) rotate(-45)"/><circle class="cls-78" cx="163.93" cy="127.92" r="84.81" transform="translate(-42.44 153.38) rotate(-45)"/><circle class="cls-79" cx="163.49" cy="127.42" r="84.75" transform="translate(-42.21 152.93) rotate(-45)"/><circle class="cls-80" cx="163.06" cy="126.91" r="84.69" transform="translate(-41.98 152.47) rotate(-45)"/><circle class="cls-81" cx="162.63" cy="126.41" r="84.62" transform="translate(-41.75 152.02) rotate(-45)"/><circle class="cls-82" cx="162.19" cy="125.9" r="84.56" transform="translate(-41.52 151.56) rotate(-45)"/><circle class="cls-83" cx="161.76" cy="125.39" r="84.5" transform="translate(-41.29 151.11) rotate(-45)"/><circle class="cls-84" cx="161.33" cy="124.89" r="84.43" transform="translate(-41.06 150.65) rotate(-45)"/><circle class="cls-85" cx="160.89" cy="124.38" r="84.37" transform="translate(-40.82 150.2) rotate(-45)"/><circle class="cls-86" cx="160.46" cy="123.87" r="84.31" transform="translate(-40.59 149.74) rotate(-45)"/><circle class="cls-87" cx="160.03" cy="123.37" r="84.24" transform="translate(-40.36 149.29) rotate(-45)"/><circle class="cls-88" cx="159.59" cy="122.86" r="84.18" transform="translate(-40.13 148.83) rotate(-45)"/><circle class="cls-89" cx="159.16" cy="122.35" r="84.12" transform="translate(-39.9 148.38) rotate(-45)"/><circle class="cls-90" cx="158.73" cy="121.85" r="84.05" transform="translate(-39.67 147.92) rotate(-45)"/></g><circle class="cls-91" cx="158.01" cy="121.13" r="87.8"/><path class="cls-92" d="M158,210.36a89.23,89.23,0,1,1,89.23-89.23A89.33,89.33,0,0,1,158,210.36Zm0-175.6a86.37,86.37,0,1,0,86.37,86.37A86.47,86.47,0,0,0,158,34.76Z"/><circle class="cls-93" cx="159.11" cy="121.83" r="99.52"/><path class="cls-94" d="M125,89.7c1.75,0,5.15.57,5.15,2.68A1.53,1.53,0,0,1,128.63,94c-1,0-1.65-.84-3.66-.84-3,0-4.51,2.52-4.51,5.44s1.56,5.3,4.51,5.3c2,0,2.83-1,3.81-1a1.68,1.68,0,0,1,1.58,1.63c0,2.3-3.62,2.83-5.39,2.83-4.87,0-8.25-3.86-8.25-8.82S120.08,89.7,125,89.7Z"/><path class="cls-94" d="M143.8,100.7c0,3.59-2.47,6.64-6.18,6.64s-6.19-3-6.19-6.64a6.2,6.2,0,1,1,12.37,0Zm-8.91,0c0,1.65.86,3.47,2.73,3.47s2.73-1.82,2.73-3.47-.84-3.53-2.73-3.53S134.89,99,134.89,100.7Z"/><path class="cls-94" d="M145.26,96.07A1.74,1.74,0,0,1,147,94.16a1.45,1.45,0,0,1,1.58,1.27A3.72,3.72,0,0,1,151.9,94a4.42,4.42,0,0,1,4.72,4.65v6.61a1.73,1.73,0,1,1-3.45,0v-6a2.23,2.23,0,1,0-4.46,0v6a1.73,1.73,0,1,1-3.45,0Z"/><path class="cls-94" d="M170.45,100.7c0,3.59-2.47,6.64-6.19,6.64s-6.18-3-6.18-6.64a6.2,6.2,0,1,1,12.37,0Zm-8.92,0c0,1.65.86,3.47,2.73,3.47s2.73-1.82,2.73-3.47-.83-3.53-2.73-3.53S161.53,99,161.53,100.7Z"/><path class="cls-94" d="M180.48,97.85c-.86,0-1.63-.68-2.73-.68-2,0-2.9,1.75-2.9,3.53s1,3.47,2.9,3.47a19.29,19.29,0,0,0,2.57-.72A1.52,1.52,0,0,1,181.8,105c0,1.78-3,2.38-4.22,2.38-3.71,0-6.18-3-6.18-6.64A6.42,6.42,0,0,1,177.58,94c1.37,0,4.22.51,4.22,2.18C181.8,96.91,181.3,97.85,180.48,97.85Z"/><path class="cls-94" d="M185.78,101.82a3,3,0,0,0,3.26,2.5c1.77,0,3-1.39,3.9-1.39a1.53,1.53,0,0,1,1.42,1.48c0,1.49-3.07,2.93-5.63,2.93a6.29,6.29,0,0,1-6.48-6.64,6.21,6.21,0,1,1,12.4-.41c0,1-.46,1.53-1.51,1.53Zm5.41-2.3a2.72,2.72,0,0,0-2.75-2.63,2.76,2.76,0,0,0-2.73,2.63Z"/><path class="cls-94" d="M112.64,117.61a1.75,1.75,0,0,1,1.72-1.92A1.46,1.46,0,0,1,116,117a3.74,3.74,0,0,1,3.33-1.41A4.42,4.42,0,0,1,124,120.2v6.61a1.73,1.73,0,1,1-3.45,0v-6a2.23,2.23,0,1,0-4.46,0v6a1.73,1.73,0,1,1-3.45,0Z"/><path class="cls-94" d="M126,117.61a1.73,1.73,0,1,1,3.45,0v6.16a2.23,2.23,0,0,0,4.46,0v-6.16a1.73,1.73,0,1,1,3.45,0v6.23c0,3.07-2,5-5.68,5s-5.68-2-5.68-5Z"/><path class="cls-94" d="M142.06,123.36a3,3,0,0,0,3.26,2.5c1.78,0,3-1.4,3.91-1.4a1.54,1.54,0,0,1,1.41,1.49c0,1.49-3.07,2.92-5.63,2.92a6.28,6.28,0,0,1-6.47-6.63,6.2,6.2,0,1,1,12.39-.41c0,1-.46,1.53-1.51,1.53Zm5.42-2.3a2.73,2.73,0,0,0-2.76-2.63,2.77,2.77,0,0,0-2.73,2.63Z"/><path class="cls-94" d="M159.41,119.58c-.65,0-2-1-3.09-1-.62,0-1.18.29-1.18,1,0,1.6,6,1.36,6,5.29,0,2.31-1.94,4.05-4.92,4.05-1.94,0-4.81-1.1-4.81-2.66a1.62,1.62,0,0,1,1.48-1.53c1.34,0,1.94,1.18,3.57,1.18,1.06,0,1.37-.34,1.37-1,0-1.58-6-1.34-6-5.29,0-2.4,1.94-4,4.67-4,1.7,0,4.31.79,4.31,2.49A1.49,1.49,0,0,1,159.41,119.58Z"/><path class="cls-94" d="M163.19,118.86h-.76a1.4,1.4,0,0,1-1.51-1.51,1.47,1.47,0,0,1,1.51-1.51h.76v-2.06a1.74,1.74,0,1,1,3.46,0v2.06h1a1.44,1.44,0,0,1,1.65,1.51,1.46,1.46,0,0,1-1.65,1.51h-1v8a1.74,1.74,0,1,1-3.46,0Z"/><path class="cls-94" d="M169.4,117.42a1.7,1.7,0,0,1,1.77-1.73c.91,0,1.68.34,1.68,1.44h.05a2.72,2.72,0,0,1,2.42-1.44,1.69,1.69,0,0,1,1.68,1.85c0,1.13-1,1.2-2.06,1.68s-2.09.93-2.09,2.3v5.29a1.73,1.73,0,1,1-3.45,0Z"/><path class="cls-94" d="M188.86,122.24c0,3.59-2.47,6.63-6.18,6.63s-6.19-3-6.19-6.63a6.2,6.2,0,1,1,12.37,0Zm-8.92,0c0,1.65.87,3.47,2.74,3.47s2.73-1.82,2.73-3.47-.84-3.53-2.73-3.53S179.94,120.58,179.94,122.24Z"/><path class="cls-94" d="M197.58,119.58c-.65,0-2-1-3.09-1-.63,0-1.18.29-1.18,1,0,1.6,6,1.36,6,5.29,0,2.31-1.94,4.05-4.91,4.05-1.94,0-4.82-1.1-4.82-2.66a1.63,1.63,0,0,1,1.49-1.53c1.34,0,1.94,1.18,3.57,1.18,1.06,0,1.37-.34,1.37-1,0-1.58-6-1.34-6-5.29,0-2.4,1.94-4,4.67-4,1.7,0,4.31.79,4.31,2.49A1.5,1.5,0,0,1,197.58,119.58Z"/><path class="cls-94" d="M111.43,133.59a1.73,1.73,0,1,1,3.45,0v4.69a5,5,0,0,1,3.28-1.19c3.72,0,5.56,3.47,5.56,6.83s-2.2,6.49-5.68,6.49a3.77,3.77,0,0,1-3.16-1.58,1.66,1.66,0,0,1-1.73,1.44,1.75,1.75,0,0,1-1.72-1.92Zm6.16,13.66c1.8,0,2.68-1.87,2.68-3.48s-.88-3.52-2.68-3.52-2.71,1.73-2.71,3.4S115.69,147.25,117.59,147.25Z"/><path class="cls-94" d="M137,143.77c0,3.6-2.46,6.64-6.18,6.64s-6.18-3-6.18-6.64a6.2,6.2,0,1,1,12.36,0Zm-8.91,0c0,1.66.86,3.48,2.73,3.48s2.73-1.82,2.73-3.48-.83-3.52-2.73-3.52S128.13,142.12,128.13,143.77Z"/><path class="cls-94" d="M139.34,140.39h-.76a1.39,1.39,0,0,1-1.51-1.51,1.47,1.47,0,0,1,1.51-1.51h.76v-2.06a1.73,1.73,0,1,1,3.45,0v2.06h1a1.52,1.52,0,1,1,0,3h-1v8a1.73,1.73,0,1,1-3.45,0Z"/><path class="cls-94" d="M157.46,143.77c0,3.6-2.47,6.64-6.18,6.64s-6.19-3-6.19-6.64a6.2,6.2,0,1,1,12.37,0Zm-8.92,0c0,1.66.87,3.48,2.74,3.48s2.73-1.82,2.73-3.48-.84-3.52-2.73-3.52S148.54,142.12,148.54,143.77Z"/><path class="cls-94" d="M158.92,139.15a1.75,1.75,0,0,1,1.72-1.92,1.46,1.46,0,0,1,1.59,1.27,3.74,3.74,0,0,1,3.33-1.41,4.42,4.42,0,0,1,4.72,4.65v6.61a1.73,1.73,0,1,1-3.45,0v-6a2.23,2.23,0,1,0-4.46,0v6a1.73,1.73,0,1,1-3.45,0Z"/><path class="cls-94" d="M175,144.9a3,3,0,0,0,3.26,2.49c1.77,0,3-1.39,3.91-1.39a1.54,1.54,0,0,1,1.41,1.49c0,1.48-3.07,2.92-5.63,2.92a6.29,6.29,0,0,1-6.47-6.64,6.2,6.2,0,1,1,12.39-.4c0,1-.46,1.53-1.51,1.53Zm5.42-2.3a2.73,2.73,0,0,0-2.76-2.64A2.78,2.78,0,0,0,175,142.6Z"/><path class="cls-94" d="M192.37,141.11c-.65,0-2-1-3.09-1-.63,0-1.18.28-1.18,1,0,1.6,6,1.36,6,5.29,0,2.3-1.94,4-4.91,4-1.94,0-4.82-1.1-4.82-2.66a1.62,1.62,0,0,1,1.49-1.53c1.34,0,1.94,1.17,3.57,1.17,1.05,0,1.37-.33,1.37-1,0-1.58-6-1.34-6-5.3,0-2.39,1.94-4,4.67-4,1.7,0,4.31.79,4.31,2.49A1.49,1.49,0,0,1,192.37,141.11Z"/><path class="cls-94" d="M197.54,139a1.87,1.87,0,1,1-1.87,1.87A1.87,1.87,0,0,1,197.54,139Zm0,7.69a1.87,1.87,0,1,1-1.87,1.87A1.87,1.87,0,0,1,197.54,146.67Z"/></g></g></svg>