<svg xmlns="http://www.w3.org/2000/svg" xmlns:xlink="http://www.w3.org/1999/xlink" viewBox="0 0 86.46 84.03"><defs><style>.cls-1{mask:url(#mask);filter:url(#luminosity-noclip-3);}.cls-2,.cls-4,.cls-7,.cls-9{mix-blend-mode:multiply;}.cls-2{fill:url(#radial-gradient);}.cls-3{mask:url(#mask-2);filter:url(#luminosity-noclip-4);}.cls-4{fill:url(#radial-gradient-2);}.cls-5{isolation:isolate;}.cls-6{mask:url(#mask-3);}.cls-7{fill:url(#Degradado_sin_nombre_153);}.cls-8{mask:url(#mask-4);}.cls-9{fill:url(#Degradado_sin_nombre_151);}.cls-10{fill:url(#Degradado_sin_nombre_159);}.cls-11{fill:none;stroke:#00c797;stroke-linecap:round;stroke-linejoin:round;stroke-width:2px;}.cls-12{fill:#007d6f;}.cls-13,.cls-14{fill:#fff;}.cls-14{stroke:#fff;stroke-miterlimit:10;stroke-width:1.23px;}.cls-15{filter:url(#luminosity-noclip-2);}.cls-16{filter:url(#luminosity-noclip);}</style><filter id="luminosity-noclip" x="11.48" y="-11181.64" width="57.46" height="32766" filterUnits="userSpaceOnUse" color-interpolation-filters="sRGB"><feFlood flood-color="#fff" result="bg"/><feBlend in="SourceGraphic" in2="bg"/></filter><mask id="mask" x="11.48" y="-11181.64" width="57.46" height="32766" maskUnits="userSpaceOnUse"><g class="cls-16"/></mask><radialGradient id="radial-gradient" cx="-7736.73" cy="-4287.18" r="20.39" gradientTransform="matrix(0.98, 0.27, -1.01, 0.11, 3268.93, 2647)" gradientUnits="userSpaceOnUse"><stop offset="0.5" stop-color="#a6a6a6"/><stop offset="0.6" stop-color="#a3a3a3"/><stop offset="0.67" stop-color="#999"/><stop offset="0.75" stop-color="#888"/><stop offset="0.81" stop-color="#707070"/><stop offset="0.88" stop-color="#515151"/><stop offset="0.94" stop-color="#2c2c2c"/><stop offset="1"/></radialGradient><filter id="luminosity-noclip-2" x="0.62" y="-11181.64" width="57.46" height="32766" filterUnits="userSpaceOnUse" color-interpolation-filters="sRGB"><feFlood flood-color="#fff" result="bg"/><feBlend in="SourceGraphic" in2="bg"/></filter><mask id="mask-2" x="0.62" y="-11181.64" width="57.46" height="32766" maskUnits="userSpaceOnUse"><g class="cls-15"/></mask><radialGradient id="radial-gradient-2" cx="-7423.3" cy="-5020.68" r="20.39" gradientTransform="matrix(-0.98, 0.27, 1.01, 0.11, -2149.05, 2647)" xlink:href="#radial-gradient"/><filter id="luminosity-noclip-3" x="11.48" y="73.19" width="57.46" height="11.9" filterUnits="userSpaceOnUse" color-interpolation-filters="sRGB"><feFlood flood-color="#fff" result="bg"/><feBlend in="SourceGraphic" in2="bg"/></filter><mask id="mask-3" x="11.48" y="73.19" width="57.46" height="11.9" maskUnits="userSpaceOnUse"><g class="cls-1"><path class="cls-2" d="M68.94,81.36c-.27,3-13.35,4.53-29.22,3.31S11.21,80,11.49,76.93s13.37-4.53,29.22-3.31S69.22,78.31,68.94,81.36Z"/></g></mask><radialGradient id="Degradado_sin_nombre_153" cx="-7736.73" cy="-4287.18" r="20.39" gradientTransform="matrix(0.98, 0.27, -1.01, 0.11, 3268.93, 2647)" gradientUnits="userSpaceOnUse"><stop offset="0" stop-color="#3c3c3b"/><stop offset="1" stop-color="#fff" stop-opacity="0"/></radialGradient><filter id="luminosity-noclip-4" x="0.62" y="73.19" width="57.46" height="11.9" filterUnits="userSpaceOnUse" color-interpolation-filters="sRGB"><feFlood flood-color="#fff" result="bg"/><feBlend in="SourceGraphic" in2="bg"/></filter><mask id="mask-4" x="0.62" y="73.19" width="57.46" height="11.9" maskUnits="userSpaceOnUse"><g class="cls-3"><path class="cls-4" d="M.62,81.36c.27,3,13.36,4.53,29.23,3.31S58.35,80,58.08,76.93,44.71,72.4,28.85,73.62.35,78.31.62,81.36Z"/></g></mask><radialGradient id="Degradado_sin_nombre_151" cx="-7423.3" cy="-5020.68" r="20.39" gradientTransform="matrix(-0.98, 0.27, 1.01, 0.11, -2149.05, 2647)" gradientUnits="userSpaceOnUse"><stop offset="0" stop-color="#3c3c3b"/><stop offset="0" stop-color="#3d3d3c"/><stop offset="1" stop-color="#fff" stop-opacity="0"/></radialGradient><linearGradient id="Degradado_sin_nombre_159" x1="34.95" y1="80.81" x2="34.95" y2="12.22" gradientTransform="translate(20.77 -9.91) rotate(22.82)" gradientUnits="userSpaceOnUse"><stop offset="0" stop-color="#005e6a"/><stop offset="1" stop-color="#00ba77"/></linearGradient></defs><g class="cls-5"><g id="Capa_1" data-name="Capa 1"><g class="cls-6"><path class="cls-7" d="M68.94,81.36c-.27,3-13.35,4.53-29.22,3.31S11.21,80,11.49,76.93s13.37-4.53,29.22-3.31S69.22,78.31,68.94,81.36Z"/></g><g class="cls-8"><path class="cls-9" d="M.62,81.36c.27,3,13.36,4.53,29.23,3.31S58.35,80,58.08,76.93,44.71,72.4,28.85,73.62.35,78.31.62,81.36Z"/></g><circle class="cls-10" cx="34.95" cy="46.51" r="34.29" transform="translate(-15.3 17.19) rotate(-22.82)"/><path class="cls-11" d="M45.76,19.45s15.93,4.86,18.58,23.67"/><path class="cls-12" d="M56.73,13.42a.9.9,0,0,1-.51-1.18L60.89,2a.91.91,0,0,1,1.69.67L57.91,12.91A.91.91,0,0,1,56.73,13.42Z"/><path class="cls-12" d="M63.59,18a.87.87,0,0,1-.31-.2.91.91,0,0,1,0-1.28l7.81-7.83a.92.92,0,0,1,1.29,0,.91.91,0,0,1,0,1.29l-7.81,7.82A.89.89,0,0,1,63.59,18Z"/><path class="cls-12" d="M68.92,24.85a.92.92,0,0,1-.5-.49.9.9,0,0,1,.47-1.19L78.05,19a.92.92,0,0,1,1.19.48.9.9,0,0,1-.47,1.19l-9.16,4.17A.92.92,0,0,1,68.92,24.85Z"/><path class="cls-12" d="M70.65,33.1a.89.89,0,0,1-.57-.83.9.9,0,0,1,.89-.92l10-.16a.9.9,0,0,1,.92.89A.92.92,0,0,1,81,33l-10,.16A.81.81,0,0,1,70.65,33.1Z"/><circle class="cls-12" cx="73.93" cy="7.21" r="1"/><circle class="cls-12" cx="84" cy="31.86" r="1"/><circle class="cls-12" cx="76.37" cy="4.37" r="0.74"/><path class="cls-13" d="M23.18,47.1c1.77,1.23,2.7,1.45,4.23,4s1.8,4.33,2.2,4.65,2.42-.08,3.46-.65,1.09-.87,2.07-3.16a50.94,50.94,0,0,1,5.25-9.31c1.69-2.26,5.25-5.22,5.41-5.79s-1.53-.82-3.14-.34-5,4.22-7,7.15c-2.28,3.26-3.09,6-3.49,5.94s-1.19-1.73-2.32-2.93-2.31-2-3.68-1.79S22.36,46.53,23.18,47.1Z"/><path class="cls-14" d="M34.78,64A17.78,17.78,0,1,1,52.56,46.26,17.77,17.77,0,0,1,34.78,64Zm0-35A17.23,17.23,0,1,0,52,46.26,17.24,17.24,0,0,0,34.78,29Z"/></g></g></svg>