<svg xmlns="http://www.w3.org/2000/svg" viewBox="0 0 55 55"><defs><style>.cls-1{fill:#006632;}.cls-2{fill:#fff;}</style></defs><g id="Capa_2" data-name="Capa 2"><g id="Capa_1-2" data-name="Capa 1"><circle class="cls-1" cx="27.5" cy="27.5" r="27.5"/><path class="cls-2" d="M17,19.81a3.17,3.17,0,0,1,2.9-2.26,3.09,3.09,0,0,1,2.92,2.26l5.32,14.8a3.14,3.14,0,0,1,.21,1,1.81,1.81,0,0,1-1.87,1.8,1.92,1.92,0,0,1-2-1.42l-.81-2.55H16.08L15.27,36a1.9,1.9,0,0,1-2,1.44,2,2,0,0,1-2-1.91,2,2,0,0,1,.2-.89Zm.3,9.87h5.15l-2.52-7.89h-.06Z"/><path class="cls-2" d="M42.09,27.37a1.64,1.64,0,0,1,0,3.27H30.93a1.64,1.64,0,1,1,0-3.27Z"/></g></g></svg>