<svg xmlns="http://www.w3.org/2000/svg" viewBox="0 0 55 55"><defs><style>.cls-1{fill:#006632;}.cls-2{fill:#fff;}</style></defs><g id="Capa_2" data-name="Capa 2"><g id="Capa_1-2" data-name="Capa 1"><circle class="cls-1" cx="27.5" cy="27.5" r="27.5" transform="translate(-4.05 50.24) rotate(-80.78)"/><path class="cls-2" d="M31.17,42.48h6.16a1.38,1.38,0,0,0,1.38-1.38V27.8H40.2a1.38,1.38,0,0,0,1-2.37L28.47,12.92a1.38,1.38,0,0,0-1.94,0L13.83,25.43a1.38,1.38,0,0,0,1,2.37h1.41V41.1a1.38,1.38,0,0,0,1.38,1.38h6.12a1.38,1.38,0,0,0,1.38-1.38V33.54h4.7V41.1A1.38,1.38,0,0,0,31.17,42.48Zm-7.46-11.7a1.38,1.38,0,0,0-1.38,1.38v7.56H19V26.42a1.38,1.38,0,0,0-.89-1.29l9.42-9.29,9.4,9.27A1.38,1.38,0,0,0,36,26.42v13.3h-3.4V32.16a1.38,1.38,0,0,0-1.38-1.38Z"/><path class="cls-2" d="M25,20l-4.83,4.83a.86.86,0,0,0,1.22,1.22l4.83-4.83A.86.86,0,1,0,25,20Z"/></g></g></svg>