<?xml version="1.0" encoding="utf-8"?>
<!-- Generator: Adobe Illustrator 25.4.1, SVG Export Plug-In . SVG Version: 6.00 Build 0)  -->
<svg version="1.1" id="Capa_1" xmlns="http://www.w3.org/2000/svg" xmlns:xlink="http://www.w3.org/1999/xlink" x="0px" y="0px"
	 viewBox="0 0 139.7 189.7" style="enable-background:new 0 0 139.7 189.7;" xml:space="preserve">
<style type="text/css">
	.st0{opacity:0.39;}
	.st1{clip-path:url(#SVGID_00000016787716152586736570000007108564319336202381_);fill:#00DA00;}
	.st2{clip-path:url(#SVGID_00000016787716152586736570000007108564319336202381_);}
	.st3{fill:#00BC00;}
</style>
<g class="st0">
	<defs>
		<rect id="SVGID_1_" x="-0.9" y="-34.9" class="st0" width="231.1" height="224.8"/>
	</defs>
	<clipPath id="SVGID_00000150813916692590168780000000827002374066166676_">
		<use xlink:href="#SVGID_1_"  style="overflow:visible;"/>
	</clipPath>
	<path style="clip-path:url(#SVGID_00000150813916692590168780000000827002374066166676_);fill:#00DA00;" d="M-70.9,279.6
		L-70.9,279.6c6.9,6.9,19,8,27.1,2.5l164-112.9c7.9-5.4,9.9-16.3,4.5-24.2v0c-5.4-7.9-16.3-9.9-24.2-4.5l-0.5,0.3
		c-5,3.4-11.8,2.2-15.3-2.8l0,0c-3.4-5-2.2-11.8,2.8-15.3l41.2-28.4c8.3-5.7,9.2-16.2,2.1-23.3l0,0c-5.6-8.2-16.8-10.2-25-4.6
		L-44,169.6c-8.2,5.6-10.2,16.8-4.6,25l0,0c5.6,8.2,16.8,10.2,25,4.6l6.1-4.2c5-3.4,11.8-2.2,15.3,2.8l0,0c3.4,5,2.2,11.8-2.8,15.3
		l-63.8,44C-76.9,262.6-77.8,272.7-70.9,279.6z"/>
	<g style="clip-path:url(#SVGID_00000150813916692590168780000000827002374066166676_);">
		<g>
			<path class="st3" d="M75,61.7L-93.7,177.8c-7,4.8-16.5,3-21.3-3.9l0,0c-4.8-7-3-16.5,3.9-21.3L57.7,36.4c7-4.8,16.5-3,21.3,3.9v0
				C83.8,47.3,82,56.9,75,61.7z"/>
			
				<ellipse transform="matrix(0.7071 -0.7071 0.7071 0.7071 16.9394 82.1408)" class="st3" cx="107.6" cy="20.6" rx="15.4" ry="15.4"/>
			<g>
				<path class="st3" d="M-71.9,258.8L97.9,141.9c8-5.5,19.1-3.5,24.6,4.5l0,0c5.5,8,3.5,19.1-4.5,24.6L-51.9,288
					c-8,5.5-19.1,3.5-24.6-4.5l0,0C-82,275.4-80,264.4-71.9,258.8z"/>
				<path class="st3" d="M-49.1,171.5l155.5-107c8.3-5.7,19.7-3.6,25.5,4.7l0,0c5.7,8.3,3.6,19.7-4.7,25.5l-155.5,107
					c-8.3,5.7-19.7,3.6-25.5-4.7l0,0C-59.5,188.6-57.4,177.2-49.1,171.5z"/>
			</g>
		</g>
	</g>
</g>
</svg>
