<svg xmlns="http://www.w3.org/2000/svg" viewBox="0 0 64.07 69.59"><defs><style>.cls-1{fill:#00877a;}.cls-2{fill:#332d2d;opacity:0.25;}.cls-3{fill:#f9f3dc;}</style></defs><g id="Capa_2" data-name="Capa 2"><g id="Capa_1-2" data-name="Capa 1"><circle class="cls-1" cx="31.96" cy="24.81" r="24.81" transform="translate(-1.08 1.45) rotate(-2.56)"/><path class="cls-2" d="M18.42,25,35.74,49.34A24.86,24.86,0,0,0,53.41,37.28L45.41,25Z"/><polygon class="cls-3" points="46.15 25.94 32.72 13.28 32.72 20.95 18.42 20.95 18.42 25.94 18.42 30.94 32.72 30.94 32.72 38.6 46.15 25.94"/><path class="cls-1" d="M7.15,56.12a1.11,1.11,0,0,1-1.07,1.19c-.66,0-1.17-.48-2.13-.48-.69,0-1.31.37-1.31,1,0,1.64,5.34.59,5.34,4.72A3.8,3.8,0,0,1,3.89,66.3C2.65,66.3,0,66,0,64.5a1.07,1.07,0,0,1,1.07-1.13c.75,0,1.65.62,2.69.62s1.63-.59,1.63-1.37c0-1.89-5.34-.75-5.34-4.46a3.7,3.7,0,0,1,4-3.63C4.91,54.53,7.15,54.86,7.15,56.12Z"/><path class="cls-1" d="M11.35,55.31a1.31,1.31,0,0,1-1.29,1.33,1.36,1.36,0,0,1-1.3-1.33,1.3,1.3,0,0,1,2.59,0ZM8.9,58.78a1.16,1.16,0,1,1,2.31,0v6.14a1.16,1.16,0,1,1-2.31,0Z"/><path class="cls-1" d="M20.35,65.43c0,2.77-1.81,4.16-4.43,4.16-.94,0-3.63-.46-3.63-1.73a1.13,1.13,0,0,1,.93-1c.74,0,1.55.72,2.88.72a1.77,1.77,0,0,0,1.95-1.82v-.54h0A2.66,2.66,0,0,1,15.7,66.3c-2.42,0-3.55-2.13-3.55-4.42s1.47-4.48,3.79-4.48a2.52,2.52,0,0,1,2.11,1.06,1.1,1.1,0,0,1,1.15-1,1.16,1.16,0,0,1,1.15,1.28Zm-4.11-5.92c-1.2,0-1.79,1.25-1.79,2.32,0,1.23.59,2.35,1.79,2.35s1.81-1.15,1.81-2.27S17.5,59.51,16.24,59.51Z"/><path class="cls-1" d="M21.66,58.78a1.16,1.16,0,1,1,2.3,0v4.11a1.49,1.49,0,1,0,3,0V58.78a1.16,1.16,0,1,1,2.3,0v4.16c0,2-1.36,3.36-3.79,3.36S21.66,65,21.66,62.94Z"/><path class="cls-1" d="M33,55.31a1.32,1.32,0,0,1-1.29,1.33,1.36,1.36,0,0,1-1.3-1.33,1.3,1.3,0,0,1,2.59,0Zm-2.45,3.47a1.16,1.16,0,1,1,2.31,0v6.14a1.16,1.16,0,1,1-2.31,0Z"/><path class="cls-1" d="M36,62.62a2,2,0,0,0,2.17,1.66c1.19,0,2-.93,2.61-.93a1,1,0,0,1,.94,1c0,1-2,2-3.75,2a4.2,4.2,0,0,1-4.32-4.43,4.14,4.14,0,1,1,8.27-.28c0,.69-.31,1-1,1Zm3.61-1.54a1.81,1.81,0,0,0-1.84-1.76,1.86,1.86,0,0,0-1.82,1.76Z"/><path class="cls-1" d="M42.68,58.78a1.16,1.16,0,0,1,1.15-1.28,1,1,0,0,1,1.05.85,2.49,2.49,0,0,1,2.23-1,3,3,0,0,1,3.15,3.11v4.41a1.16,1.16,0,1,1-2.3,0v-4a1.49,1.49,0,1,0-3,0v4a1.16,1.16,0,1,1-2.3,0Z"/><path class="cls-1" d="M52.12,59.61h-.51a.93.93,0,0,1-1-1,1,1,0,0,1,1-1h.51V56.22a1.16,1.16,0,1,1,2.31,0V57.6h.65c.6,0,1.11.27,1.11,1a1,1,0,0,1-1.11,1h-.65v5.31a1.16,1.16,0,1,1-2.31,0Z"/><path class="cls-1" d="M58.15,62.62a2,2,0,0,0,2.18,1.66c1.18,0,2-.93,2.6-.93a1,1,0,0,1,1,1c0,1-2.05,2-3.76,2a4.2,4.2,0,0,1-4.32-4.43,4.14,4.14,0,1,1,8.27-.28c0,.69-.3,1-1,1Zm3.62-1.54a1.83,1.83,0,0,0-1.84-1.76,1.87,1.87,0,0,0-1.83,1.76Z"/></g></g></svg>