
<svg xmlns="http://www.w3.org/2000/svg" xmlns:xlink="http://www.w3.org/1999/xlink" width="172.475" height="51.705" viewBox="0 0 172.475 51.705">
  <defs>
    <linearGradient id="linear-gradient" x1="0.5" x2="0.5" y2="1" gradientUnits="objectBoundingBox">
      <stop offset="0" stop-color="#6edecf"/>
      <stop offset="0.431" stop-color="#5499d6"/>
      <stop offset="1" stop-color="#825fde"/>
    </linearGradient>
    <linearGradient id="linear-gradient-2" x1="0.5" y1="1" x2="0.5" y2="0" xlink:href="#linear-gradient"/>
    <linearGradient id="linear-gradient-6" x1="0.5" y1="1" x2="0.5" y2="0" xlink:href="#linear-gradient"/>
  </defs>
  <g id="Grupo_1120" data-name="Grupo 1120" transform="translate(-185.007 -674.908)">
    <g id="Grupo_1119" data-name="Grupo 1119">
      <g id="Grupo_1118" data-name="Grupo 1118">
        <g id="Grupo_1105" data-name="Grupo 1105">
          <path id="Trazado_1009" data-name="Trazado 1009" d="M207.282,709.682H203.93v-14.5a7.277,7.277,0,0,0-2.329-5.4,7.7,7.7,0,0,0-10.913,0,7.273,7.273,0,0,0-2.329,5.4v14.5h-3.352V695.528a10.945,10.945,0,0,1,3.176-8.036,11.5,11.5,0,0,1,15.923,0,10.945,10.945,0,0,1,3.176,8.036Z" fill="#fff"/>
          <path id="Trazado_1010" data-name="Trazado 1010" d="M234.452,697.27a12.564,12.564,0,0,1-3.947,9.254,12.81,12.81,0,0,1-18.261-.2,12.568,12.568,0,0,1-3.639-9.016,12.7,12.7,0,0,1,3.925-9.342,12.223,12.223,0,0,1,9.352-3.723,13.063,13.063,0,0,1,12.57,13.022Zm-3.352-.263a9.82,9.82,0,0,0-2.852-6.736,8.815,8.815,0,0,0-6.565-2.8,9.2,9.2,0,0,0-6.853,2.778,9.413,9.413,0,0,0-2.873,6.8,9.56,9.56,0,0,0,2.608,6.89,9.023,9.023,0,0,0,6.588,3.083,8.79,8.79,0,0,0,7.1-2.843A9.708,9.708,0,0,0,231.1,697.007Z" fill="#fff"/>
          <path id="Trazado_1011" data-name="Trazado 1011" d="M260.786,697.4a12.024,12.024,0,0,1-3.883,9.255,12.491,12.491,0,0,1-9.439,3.724,12.3,12.3,0,0,1-8.887-3.92,12.568,12.568,0,0,1-3.639-9.015,12.708,12.708,0,0,1,3.918-9.341,12.18,12.18,0,0,1,9.332-3.724,12.528,12.528,0,0,1,9.245,4.4v-12.5h3.353Zm-3.353-.262a9.653,9.653,0,0,0-2.807-6.737,8.869,8.869,0,0,0-6.609-2.8,9.221,9.221,0,0,0-6.832,2.779,9.377,9.377,0,0,0-2.9,6.8,9.721,9.721,0,0,0,2.652,6.89,9.02,9.02,0,0,0,6.588,3.084,8.786,8.786,0,0,0,7.1-2.844A9.553,9.553,0,0,0,257.433,697.138Z" fill="#fff"/>
        </g>
        <g id="Grupo_1116" data-name="Grupo 1116">
          <g id="Grupo_1106" data-name="Grupo 1106">
            <path id="Trazado_1012" data-name="Trazado 1012" d="M210.039,723.623v.986c0,1.186-.579,1.864-1.7,1.864s-1.7-.678-1.7-1.864v-3.857c0-1.187.581-1.865,1.7-1.865s1.7.678,1.7,1.865v.72h-1.076v-.794c0-.53-.229-.731-.591-.731s-.591.2-.591.731v4c0,.53.228.721.591.721s.591-.191.591-.721v-1.059Z" fill="#fff"/>
            <path id="Trazado_1013" data-name="Trazado 1013" d="M208.34,726.613c-1.186,0-1.838-.712-1.838-2v-3.856c0-1.294.652-2.006,1.838-2.006s1.839.712,1.839,2.006v.859h-1.356v-.934c0-.52-.229-.591-.451-.591s-.452.071-.452.591v4c0,.51.218.58.452.58s.451-.07.451-.58v-1.2h1.356v1.126C210.179,725.9,209.527,726.613,208.34,726.613Zm0-7.585c-1.287,0-1.559.937-1.559,1.725v3.856c0,.786.272,1.724,1.559,1.724s1.559-.938,1.559-1.724v-.845h-.8v.918c0,.712-.4.861-.73.861s-.732-.149-.732-.861v-4c0-.72.4-.871.732-.871s.73.151.73.871v.654h.8v-.579C209.9,719.965,209.628,719.028,208.34,719.028Z" fill="#fff"/>
          </g>
          <g id="Grupo_1107" data-name="Grupo 1107">
            <path id="Trazado_1014" data-name="Trazado 1014" d="M220.94,720.752a1.735,1.735,0,1,1,3.461,0v3.857a1.735,1.735,0,1,1-3.461,0Zm1.139,3.93c0,.53.229.732.592.732s.59-.2.59-.732v-4c0-.53-.228-.731-.59-.731s-.592.2-.592.731Z" fill="#fff"/>
            <path id="Trazado_1015" data-name="Trazado 1015" d="M222.671,726.613a1.765,1.765,0,0,1-1.87-2v-3.856a1.875,1.875,0,1,1,3.74,0v3.856A1.765,1.765,0,0,1,222.671,726.613Zm0-7.585c-1.026,0-1.591.612-1.591,1.725v3.856c0,1.111.565,1.724,1.591,1.724s1.59-.613,1.59-1.724v-3.856C224.261,719.64,223.7,719.028,222.671,719.028Zm0,6.526c-.334,0-.732-.151-.732-.872v-4c0-.72.4-.871.732-.871s.73.151.73.871v4C223.4,725.4,223.005,725.554,222.671,725.554Zm0-5.467c-.224,0-.452.071-.452.591v4c0,.521.228.591.452.591s.451-.07.451-.591v-4C223.122,720.158,222.893,720.087,222.671,720.087Z" fill="#fff"/>
          </g>
          <g id="Grupo_1108" data-name="Grupo 1108">
            <path id="Trazado_1016" data-name="Trazado 1016" d="M235.435,718.973h1.139v6.355h1.876v1.06h-3.015Z" fill="#fff"/>
            <path id="Trazado_1017" data-name="Trazado 1017" d="M238.59,726.528h-3.295v-7.7h1.419v6.355h1.876Zm-3.015-.28h2.736v-.779h-1.877v-6.356h-.859Z" fill="#fff"/>
          </g>
          <g id="Grupo_1109" data-name="Grupo 1109">
            <path id="Trazado_1018" data-name="Trazado 1018" d="M249.247,718.973h1.139v6.355h1.876v1.06h-3.015Z" fill="#fff"/>
            <path id="Trazado_1019" data-name="Trazado 1019" d="M252.4,726.528h-3.295v-7.7h1.419v6.355H252.4Zm-3.015-.28h2.736v-.779h-1.877v-6.356h-.859Z" fill="#fff"/>
          </g>
          <g id="Grupo_1110" data-name="Grupo 1110">
            <path id="Trazado_1020" data-name="Trazado 1020" d="M264.2,722.1h1.565v1.06H264.2v2.171h1.968v1.06h-3.108v-7.415h3.108v1.059H264.2Z" fill="#fff"/>
            <path id="Trazado_1021" data-name="Trazado 1021" d="M266.3,726.528h-3.388v-7.7H266.3v1.339h-1.969v1.785H265.9v1.34h-1.565v1.891H266.3Zm-3.108-.28h2.829v-.779h-1.969v-2.452h1.564v-.779h-1.564v-2.347h1.969v-.778H263.2Z" fill="#fff"/>
          </g>
          <g id="Grupo_1111" data-name="Grupo 1111">
            <path id="Trazado_1022" data-name="Trazado 1022" d="M280.474,723.623v.986c0,1.186-.58,1.864-1.7,1.864s-1.7-.678-1.7-1.864v-3.857c0-1.187.581-1.865,1.7-1.865s1.7.678,1.7,1.865v.72H279.4v-.794c0-.53-.228-.731-.59-.731s-.592.2-.592.731v4c0,.53.229.721.592.721s.59-.191.59-.721v-1.059Z" fill="#fff"/>
            <path id="Trazado_1023" data-name="Trazado 1023" d="M278.775,726.613c-1.186,0-1.839-.712-1.839-2v-3.856c0-1.294.653-2.006,1.839-2.006s1.839.712,1.839,2.006v.859h-1.357v-.934c0-.52-.228-.591-.451-.591s-.451.071-.451.591v4c0,.51.217.58.451.58s.451-.07.451-.58v-1.2h1.357v1.126C280.614,725.9,279.961,726.613,278.775,726.613Zm0-7.585c-1.288,0-1.559.937-1.559,1.725v3.856c0,.786.271,1.724,1.559,1.724s1.559-.938,1.559-1.724v-.845h-.8v.918c0,.712-.4.861-.731.861s-.731-.149-.731-.861v-4c0-.72.4-.871.731-.871s.731.151.731.871v.654h.8v-.579C280.334,719.965,280.063,719.028,278.775,719.028Z" fill="#fff"/>
          </g>
          <g id="Grupo_1112" data-name="Grupo 1112">
            <path id="Trazado_1024" data-name="Trazado 1024" d="M291.136,718.973h3.524v1.059h-1.192v6.356h-1.14v-6.356h-1.192Z" fill="#fff"/>
            <path id="Trazado_1025" data-name="Trazado 1025" d="M293.608,726.528h-1.42v-6.356H291v-1.339h3.8v1.339h-1.191Zm-1.14-.28h.86v-6.357h1.192v-.778h-3.244v.778h1.192Z" fill="#fff"/>
          </g>
          <g id="Grupo_1113" data-name="Grupo 1113">
            <path id="Trazado_1026" data-name="Trazado 1026" d="M305.456,718.973H306.6v7.415h-1.139Z" fill="#fff"/>
            <path id="Trazado_1027" data-name="Trazado 1027" d="M306.735,726.528h-1.419v-7.7h1.419Zm-1.139-.28h.86v-7.135h-.86Z" fill="#fff"/>
          </g>
          <g id="Grupo_1114" data-name="Grupo 1114">
            <path id="Trazado_1028" data-name="Trazado 1028" d="M319.442,725.021l.87-6.048h1.046l-1.119,7.415h-1.7l-1.118-7.415h1.149Z" fill="#fff"/>
            <path id="Trazado_1029" data-name="Trazado 1029" d="M320.36,726.528h-1.94l-1.161-7.7h1.434l.749,5.2.748-5.2h1.331l-.023.161Zm-1.7-.28h1.457l1.078-7.135h-.763l-.991,6.893-.993-6.893h-.865Z" fill="#fff"/>
          </g>
          <g id="Grupo_1115" data-name="Grupo 1115">
            <path id="Trazado_1030" data-name="Trazado 1030" d="M333.326,722.1h1.565v1.06h-1.565v2.171H335.3v1.06h-3.108v-7.415H335.3v1.059h-1.969Z" fill="#fff"/>
            <path id="Trazado_1031" data-name="Trazado 1031" d="M335.434,726.528h-3.387v-7.7h3.387v1.339h-1.968v1.785h1.565v1.34h-1.565v1.891h1.968Zm-3.107-.28h2.827v-.779h-1.968v-2.452h1.565v-.779h-1.565v-2.347h1.968v-.778h-2.827Z" fill="#fff"/>
          </g>
        </g>
        <g id="Grupo_1117" data-name="Grupo 1117">
          <path id="Trazado_1032" data-name="Trazado 1032" d="M286.508,701.007l.082-.038a5.012,5.012,0,0,1,.974-.361,12.832,12.832,0,0,1-3.511,5.916,12.81,12.81,0,0,1-18.261-.2,12.568,12.568,0,0,1-3.639-9.016,12.7,12.7,0,0,1,3.925-9.342,12.223,12.223,0,0,1,9.352-3.723,13.075,13.075,0,0,1,12.515,11.8,5.663,5.663,0,0,1-3.276-1.461c-.058-.062-.117-.123-.175-.18s-.136-.131-.206-.194a1.617,1.617,0,0,0-.151-.125,9.874,9.874,0,0,0-2.341-3.813,8.815,8.815,0,0,0-6.565-2.8,9.2,9.2,0,0,0-6.853,2.778,9.413,9.413,0,0,0-2.873,6.8,9.56,9.56,0,0,0,2.608,6.89,9.023,9.023,0,0,0,6.588,3.083,8.79,8.79,0,0,0,7.1-2.843c.14-.145.262-.3.391-.445.175-.065.351-.137.527-.221a5.559,5.559,0,0,0,1.478-.906c.3-.22.611-.468.976-.774l.016-.014.077-.063a5.686,5.686,0,0,1,1.084-.678l.088-.041Z" fill="#fff"/>
          <path id="Trazado_1033" data-name="Trazado 1033" d="M300,695.036a4.49,4.49,0,0,0-3.29-1.268c-.084,0-.166.01-.312.022a4.94,4.94,0,0,0-2.785,1.734c-.192.188-.379.371-.565.538a5.751,5.751,0,0,1-1.772,1.007,7.048,7.048,0,0,1-1.955.456l-.133.011a7.042,7.042,0,0,1-5.284-1.849c-.063-.07-.454-.438-.459-.443a4.24,4.24,0,0,0-5.73.3,4.115,4.115,0,0,0-.032,5.907l.075.076c.088.088.18.17.267.242a3.9,3.9,0,0,0,2.583,1.108,3.845,3.845,0,0,0,1.712-.432,4.128,4.128,0,0,0,1.188-.727c.29-.209.607-.46,1-.787l.1-.079a7.232,7.232,0,0,1,1.424-.875l.131-.059a6.341,6.341,0,0,1,4.5-.441,7.186,7.186,0,0,1,2.52,1.325c.256.205.488.4.7.589,1.18,1.007,2.115,1.8,4.213,1.2a4.55,4.55,0,0,0,2-1.193,4.5,4.5,0,0,0-.092-6.36ZM294.38,700.8c-.223-.19-.461-.393-.724-.6a7.965,7.965,0,0,0-2.8-1.467,7.178,7.178,0,0,0-5.085.511l-.127.058a7.97,7.97,0,0,0-1.528.947l-.114.093c-.362.3-.66.542-.977.774a3.506,3.506,0,0,1-1.022.625,2.864,2.864,0,0,1-3.481-.559c-.077-.064-.153-.131-.223-.2l-.077-.078a3.354,3.354,0,0,1,.068-4.853,3.453,3.453,0,0,1,4.647-.222l.023.023c.084.079.327.308.394.38a7.8,7.8,0,0,0,5.9,2.075l.132-.011a7.828,7.828,0,0,0,2.173-.507,6.319,6.319,0,0,0,2.009-1.153c.19-.171.385-.362.586-.558a4.394,4.394,0,0,1,2.375-1.522c.071-.006.143-.012.21-.015a3.726,3.726,0,0,1,2.8,6.319,3.766,3.766,0,0,1-1.659.989C296.175,702.338,295.578,701.827,294.38,700.8Z" fill="url(#linear-gradient)"/>
        </g>
      </g>
    </g>
    <path id="Trazado_1034" data-name="Trazado 1034" d="M353.42,687.85a12.559,12.559,0,0,0-9.661-3.823,12.7,12.7,0,0,0-8.814,3.764V676.3a.416.416,0,0,0-.415-.416h-3.353a.417.417,0,0,0-.416.416V697.41a12.545,12.545,0,0,0,4.006,9.584,12.915,12.915,0,0,0,9.278,3.871c.154,0,.31,0,.466-.007a13.437,13.437,0,0,0,12.971-13.395A13.149,13.149,0,0,0,353.42,687.85Zm-19.037,1.38a.413.413,0,0,0,.459-.115,11.979,11.979,0,0,1,8.947-4.258,11.726,11.726,0,0,1,9.045,3.582,12.343,12.343,0,0,1,3.818,9.024,12.605,12.605,0,0,1-12.167,12.564c-.138.005-.275.006-.411.006a12.141,12.141,0,0,1-8.727-3.633,11.754,11.754,0,0,1-3.755-8.98V676.713h2.522v12.128A.418.418,0,0,0,334.383,689.23Z" fill="url(#linear-gradient-2)"/>
    <path id="Trazado_1035" data-name="Trazado 1035" d="M344.017,707.644c.15,0,.3,0,.457-.01a9.683,9.683,0,0,0,6.887-3.232,10.109,10.109,0,0,0,2.769-7.188,9.964,9.964,0,0,0-3.023-7.028,9.759,9.759,0,0,0-7.14-2.937,9.362,9.362,0,0,0-6.9,2.918,10,10,0,0,0-2.955,7,9.887,9.887,0,0,0,2.953,7.482A9.435,9.435,0,0,0,344.017,707.644Zm-9.072-10.454a9.2,9.2,0,0,1,2.717-6.44,8.557,8.557,0,0,1,6.305-2.67,8.951,8.951,0,0,1,6.552,2.694,9.15,9.15,0,0,1,2.78,6.456,9.3,9.3,0,0,1-2.548,6.608,8.879,8.879,0,0,1-6.314,2.966,8.612,8.612,0,0,1-6.775-2.735A9.088,9.088,0,0,1,334.945,697.19Z" fill="url(#linear-gradient-2)"/>
    <path id="Trazado_1036" data-name="Trazado 1036" d="M314.9,707.634c.154.007.307.01.459.01a9.385,9.385,0,0,0,6.952-2.995,10.33,10.33,0,0,0,.017-14.481,9.327,9.327,0,0,0-6.88-2.919,10.18,10.18,0,0,0-7.4,17.132A9.66,9.66,0,0,0,314.9,707.634Zm-8.764-10.406a9.26,9.26,0,0,1,9.312-9.148,8.531,8.531,0,0,1,6.289,2.67,9.505,9.505,0,0,1-.023,13.321,8.581,8.581,0,0,1-6.777,2.733,8.86,8.86,0,0,1-6.281-2.987A9.122,9.122,0,0,1,306.133,697.228Z" fill="url(#linear-gradient-2)"/>
    <path id="Trazado_1037" data-name="Trazado 1037" d="M324.983,688.137h0a13.163,13.163,0,0,0-9.281-4.11,12.622,12.622,0,0,0-9.7,3.8,13.239,13.239,0,0,0-3.761,6.8.115.115,0,0,0,.021.1,5.848,5.848,0,0,1,.463.728.119.119,0,0,0,.127.063.118.118,0,0,0,.1-.1,12.375,12.375,0,0,1,3.635-7,11.752,11.752,0,0,1,8.54-3.569c.181,0,.364,0,.549.01a12.359,12.359,0,0,1,8.713,3.859,11.509,11.509,0,0,1,3.416,8.661.212.212,0,0,0-.006.043v12.041h-2.52V706a.416.416,0,0,0-.727-.275,12.008,12.008,0,0,1-9.3,4.308c-.131,0-.262,0-.394-.006a12.07,12.07,0,0,1-8.545-3.836,12.27,12.27,0,0,1-3.181-5.76.121.121,0,0,0-.108-.093.116.116,0,0,0-.122.072,5.862,5.862,0,0,1-.407.776.123.123,0,0,0-.014.1,13.194,13.194,0,0,0,3.234,5.482,12.87,12.87,0,0,0,9.116,4.091c.146,0,.291.006.436.006a12.646,12.646,0,0,0,9.178-3.82v2.832a.417.417,0,0,0,.416.416h3.352a.417.417,0,0,0,.416-.416V697.43A12.315,12.315,0,0,0,324.983,688.137Z" fill="url(#linear-gradient-2)"/>
    <path id="Trazado_1038" data-name="Trazado 1038" d="M298.2,674.908h-3.352a.416.416,0,0,0-.415.416v16.5a.121.121,0,0,0,.059.1.124.124,0,0,0,.12,0,4.32,4.32,0,0,1,.571-.251.122.122,0,0,0,.08-.115v-15.83h2.522v15.709a.121.121,0,0,0,.1.119,5.686,5.686,0,0,1,.575.151.121.121,0,0,0,.109-.018.12.12,0,0,0,.05-.1V675.324A.417.417,0,0,0,298.2,674.908Z" fill="url(#linear-gradient-6)"/>
    <path id="Trazado_1039" data-name="Trazado 1039" d="M298.451,704.518c-.029.009-.058.021-.087.031a.939.939,0,0,1-.1.035c-.132.038-.257.067-.393.1a.122.122,0,0,0-.094.119v5.633h-2.522v-5.719a.12.12,0,0,0-.081-.114,4.511,4.511,0,0,1-.571-.248.118.118,0,0,0-.119,0,.121.121,0,0,0-.059.1v6.388a.416.416,0,0,0,.415.416H298.2a.417.417,0,0,0,.416-.416v-6.217a.12.12,0,0,0-.051-.1A.115.115,0,0,0,298.451,704.518Z" fill="url(#linear-gradient-6)"/>
  </g>
</svg>
