<svg xmlns="http://www.w3.org/2000/svg" viewBox="0 0 55 55"><defs><style>.cls-1{fill:#006632;}.cls-2{fill:#fff;}</style></defs><g id="Capa_2" data-name="Capa 2"><g id="Capa_1-2" data-name="Capa 1"><circle class="cls-1" cx="27.5" cy="27.5" r="27.5"/><path class="cls-2" d="M30.64,14,20,21.89V33.15l10.74,7.91a1.5,1.5,0,0,0,1.09.47,1.44,1.44,0,0,0,1.48-1.41V14.94a1.54,1.54,0,0,0-2.68-1Zm-.1,23.48-7.75-5.71V23.28l7.75-5.77Z"/><path class="cls-2" d="M14.81,33.27h3.25V21.73H14.81a2.69,2.69,0,0,0-2.69,2.68v6.18A2.69,2.69,0,0,0,14.81,33.27Zm.09-8.76h.38v6H14.9Z"/><path class="cls-2" d="M40.65,27.48l2-2a1.1,1.1,0,0,0,0-1.66,1.09,1.09,0,0,0-1.65,0l-2,2-2-2a1.17,1.17,0,0,0-1.65,1.66l2,2-2,2A1.17,1.17,0,0,0,37,31.14l2-2,2,2a1.17,1.17,0,1,0,1.65-1.66Z"/></g></g></svg>