<svg xmlns="http://www.w3.org/2000/svg" viewBox="0 0 55.69 66.3"><defs><style>.cls-1{fill:#00877a;}.cls-2{fill:#332d2d;opacity:0.25;}.cls-3{fill:#f9f3dc;}</style></defs><g id="Capa_2" data-name="Capa 2"><g id="Capa_1-2" data-name="Capa 1"><circle class="cls-1" cx="27.83" cy="24.81" r="24.81" transform="translate(-1.08 1.27) rotate(-2.56)"/><path class="cls-2" d="M14.29,25,31.61,49.34A24.86,24.86,0,0,0,49.28,37.28L41.28,25Z"/><polygon class="cls-3" points="14.29 25.94 27.72 13.28 27.72 20.95 42.02 20.95 42.02 25.94 42.02 30.94 27.72 30.94 27.72 38.6 14.29 25.94"/><path class="cls-1" d="M3.33,55.85A1.87,1.87,0,0,1,5,54.53a1.82,1.82,0,0,1,1.71,1.32l3.13,8.7a1.79,1.79,0,0,1,.13.59,1.06,1.06,0,0,1-1.1,1.06,1.12,1.12,0,0,1-1.17-.83l-.48-1.51H2.81l-.48,1.49a1.1,1.1,0,0,1-1.15.85A1.14,1.14,0,0,1,0,65.08a1.41,1.41,0,0,1,.11-.53Zm.17,5.81h3L5.05,57H5Z"/><path class="cls-1" d="M10.69,58.78a1.16,1.16,0,0,1,1.15-1.28,1,1,0,0,1,1.06.85,2.48,2.48,0,0,1,2.22-1,3,3,0,0,1,3.15,3.11v4.41a1.16,1.16,0,1,1-2.3,0v-4a1.49,1.49,0,1,0-3,0v4a1.16,1.16,0,1,1-2.31,0Z"/><path class="cls-1" d="M20.14,59.61h-.51a.94.94,0,0,1-1-1,1,1,0,0,1,1-1h.51V56.22a1.16,1.16,0,1,1,2.3,0V57.6h.66c.59,0,1.1.27,1.1,1a1,1,0,0,1-1.1,1h-.66v5.31a1.16,1.16,0,1,1-2.3,0Z"/><path class="cls-1" d="M26.17,62.62a2,2,0,0,0,2.17,1.66c1.19,0,2-.93,2.61-.93a1,1,0,0,1,.94,1c0,1-2,2-3.76,2a4.19,4.19,0,0,1-4.31-4.43,4.28,4.28,0,0,1,4.12-4.47,4.28,4.28,0,0,1,4.14,4.19c0,.69-.3,1-1,1Zm3.61-1.54a1.83,1.83,0,0,0-1.84-1.76,1.86,1.86,0,0,0-1.82,1.76Z"/><path class="cls-1" d="M32.86,58.65a1.13,1.13,0,0,1,1.19-1.15c.61,0,1.12.22,1.12,1h0a1.81,1.81,0,0,1,1.61-1,1.12,1.12,0,0,1,1.12,1.23c0,.75-.68.8-1.37,1.12s-1.39.62-1.39,1.54v3.53a1.16,1.16,0,1,1-2.31,0Z"/><path class="cls-1" d="M40.63,55.31a1.31,1.31,0,0,1-1.29,1.33A1.36,1.36,0,0,1,38,55.31a1.32,1.32,0,0,1,1.3-1.26A1.31,1.31,0,0,1,40.63,55.31Zm-2.44,3.47a1.16,1.16,0,1,1,2.3,0v6.14a1.16,1.16,0,1,1-2.3,0Z"/><path class="cls-1" d="M49.68,61.87a4.14,4.14,0,1,1-8.25,0,4.14,4.14,0,1,1,8.25,0Zm-6,0c0,1.1.58,2.31,1.83,2.31s1.82-1.21,1.82-2.31-.56-2.36-1.82-2.36S43.73,60.76,43.73,61.87Z"/><path class="cls-1" d="M50.62,58.65a1.13,1.13,0,0,1,1.19-1.15c.6,0,1.12.22,1.12,1h0a1.81,1.81,0,0,1,1.61-1,1.12,1.12,0,0,1,1.12,1.23c0,.75-.69.8-1.37,1.12s-1.39.62-1.39,1.54v3.53a1.16,1.16,0,1,1-2.31,0Z"/></g></g></svg>