<svg id="Capa_1" data-name="Capa 1" xmlns="http://www.w3.org/2000/svg" viewBox="0 0 136.2 52.91"><defs><style>.cls-1{fill:#00877a;}.cls-2{fill:#00635a;}.cls-3{fill:#fff;}</style></defs><rect class="cls-1" width="136.2" height="52.91" rx="26.45"/><circle class="cls-2" cx="27.26" cy="26.55" r="24.22" transform="translate(-7.7 41.57) rotate(-67.5)"/><path class="cls-3" d="M36.35,35.44a1,1,0,0,1-.71.29,1,1,0,0,1-.71-.29l-8.18-8.18a1,1,0,0,1,0-1.42l8.18-8.19a1,1,0,0,1,1.42,0,1,1,0,0,1,0,1.42l-7.47,7.48L36.35,34A1,1,0,0,1,36.35,35.44Z"/><path class="cls-3" d="M27.06,35.73a1,1,0,0,1-.71-.29l-8.19-8.18a1,1,0,0,1,0-1.42l8.19-8.19a1,1,0,0,1,1.41,1.42l-7.47,7.48L27.76,34a1,1,0,0,1,0,1.42A1,1,0,0,1,27.06,35.73Z"/><path class="cls-3" d="M63.48,22a1.87,1.87,0,0,1,1.71-1.33A1.8,1.8,0,0,1,66.89,22L70,30.64a1.79,1.79,0,0,1,.13.59,1.06,1.06,0,0,1-1.1,1.05,1.12,1.12,0,0,1-1.17-.83L67.41,30H63l-.48,1.48a1.1,1.1,0,0,1-1.14.84,1.14,1.14,0,0,1-1.18-1.11,1.24,1.24,0,0,1,.11-.53Zm.18,5.79h3L65.2,23.13h0Z"/><path class="cls-3" d="M70.83,24.88A1.16,1.16,0,0,1,72,23.61a1,1,0,0,1,1,.84,2.49,2.49,0,0,1,2.22-.94,2.94,2.94,0,0,1,3.14,3.1V31a1.16,1.16,0,1,1-2.3,0V27a1.48,1.48,0,1,0-3,0v4a1.16,1.16,0,1,1-2.3,0Z"/><path class="cls-3" d="M80.26,25.71h-.51a.93.93,0,0,1-1-1,1,1,0,0,1,1-1h.51V22.33a1.15,1.15,0,1,1,2.29,0v1.38h.66c.59,0,1.1.27,1.1,1a1,1,0,0,1-1.1,1h-.66V31a1.15,1.15,0,1,1-2.29,0Z"/><path class="cls-3" d="M86.27,28.71a2,2,0,0,0,2.17,1.66c1.18,0,2-.92,2.6-.92a1,1,0,0,1,.94,1c0,1-2,2-3.75,2A4.19,4.19,0,0,1,83.92,28a4.13,4.13,0,1,1,8.25-.27c0,.69-.3,1-1,1Zm3.6-1.53A1.81,1.81,0,0,0,88,25.43a1.85,1.85,0,0,0-1.82,1.75Z"/><path class="cls-3" d="M93,24.76a1.12,1.12,0,0,1,1.18-1.15c.6,0,1.11.22,1.11,1h0a1.81,1.81,0,0,1,1.61-1A1.12,1.12,0,0,1,98,24.84c0,.75-.68.79-1.37,1.11s-1.39.63-1.39,1.53V31A1.15,1.15,0,1,1,93,31Z"/><path class="cls-3" d="M100.7,21.42a1.32,1.32,0,0,1-1.29,1.33,1.35,1.35,0,0,1-1.3-1.33,1.3,1.3,0,0,1,2.59,0Zm-2.44,3.46a1.15,1.15,0,1,1,2.29,0V31a1.15,1.15,0,1,1-2.29,0Z"/><path class="cls-3" d="M109.72,28a4.13,4.13,0,1,1-8.23,0,4.13,4.13,0,1,1,8.23,0Zm-5.93,0c0,1.1.58,2.31,1.82,2.31s1.82-1.21,1.82-2.31-.56-2.34-1.82-2.34S103.79,26.86,103.79,28Z"/><path class="cls-3" d="M110.66,24.76a1.13,1.13,0,0,1,1.18-1.15c.61,0,1.12.22,1.12,1h0a1.81,1.81,0,0,1,1.61-1,1.12,1.12,0,0,1,1.12,1.23c0,.75-.69.79-1.37,1.11s-1.39.63-1.39,1.53V31a1.16,1.16,0,1,1-2.3,0Z"/></svg>