<svg xmlns="http://www.w3.org/2000/svg" xmlns:xlink="http://www.w3.org/1999/xlink" viewBox="0 0 86.46 84.03"><defs><style>.cls-1{mask:url(#mask);filter:url(#luminosity-noclip-3);}.cls-10,.cls-2,.cls-4,.cls-8{mix-blend-mode:multiply;}.cls-2{fill:url(#radial-gradient);}.cls-3{mask:url(#mask-2);filter:url(#luminosity-noclip-4);}.cls-4{fill:url(#radial-gradient-2);}.cls-5{isolation:isolate;}.cls-6{fill:#fc016a;}.cls-7{mask:url(#mask-3);}.cls-8{fill:url(#Degradado_sin_nombre_153);}.cls-9{mask:url(#mask-4);}.cls-10{fill:url(#Degradado_sin_nombre_151);}.cls-11{fill:url(#Degradado_sin_nombre_44);}.cls-12{fill:none;stroke:#ffc1d5;stroke-linecap:round;stroke-linejoin:round;stroke-width:2px;}.cls-13,.cls-14{fill:#fff;}.cls-13{stroke:#fff;stroke-miterlimit:10;stroke-width:1.22px;}.cls-15{filter:url(#luminosity-noclip-2);}.cls-16{filter:url(#luminosity-noclip);}</style><filter id="luminosity-noclip" x="11.41" y="-11181.64" width="57.46" height="32766" filterUnits="userSpaceOnUse" color-interpolation-filters="sRGB"><feFlood flood-color="#fff" result="bg"/><feBlend in="SourceGraphic" in2="bg"/></filter><mask id="mask" x="11.41" y="-11181.64" width="57.46" height="32766" maskUnits="userSpaceOnUse"><g class="cls-16"/></mask><radialGradient id="radial-gradient" cx="-7737.05" cy="-4287.42" r="20.39" gradientTransform="matrix(0.98, 0.27, -1.01, 0.11, 3268.93, 2647)" gradientUnits="userSpaceOnUse"><stop offset="0.5" stop-color="#a6a6a6"/><stop offset="0.6" stop-color="#a3a3a3"/><stop offset="0.67" stop-color="#999"/><stop offset="0.75" stop-color="#888"/><stop offset="0.81" stop-color="#707070"/><stop offset="0.88" stop-color="#515151"/><stop offset="0.94" stop-color="#2c2c2c"/><stop offset="1"/></radialGradient><filter id="luminosity-noclip-2" x="0.55" y="-11181.64" width="57.46" height="32766" filterUnits="userSpaceOnUse" color-interpolation-filters="sRGB"><feFlood flood-color="#fff" result="bg"/><feBlend in="SourceGraphic" in2="bg"/></filter><mask id="mask-2" x="0.55" y="-11181.64" width="57.46" height="32766" maskUnits="userSpaceOnUse"><g class="cls-15"/></mask><radialGradient id="radial-gradient-2" cx="-7423.58" cy="-5021.02" r="20.39" gradientTransform="matrix(-0.98, 0.27, 1.01, 0.11, -2149.05, 2647)" xlink:href="#radial-gradient"/><filter id="luminosity-noclip-3" x="11.41" y="73.08" width="57.46" height="11.9" filterUnits="userSpaceOnUse" color-interpolation-filters="sRGB"><feFlood flood-color="#fff" result="bg"/><feBlend in="SourceGraphic" in2="bg"/></filter><mask id="mask-3" x="11.41" y="73.08" width="57.46" height="11.9" maskUnits="userSpaceOnUse"><g class="cls-1"><path class="cls-2" d="M68.87,81.25c-.27,3-13.36,4.53-29.22,3.3s-28.51-4.68-28.23-7.73,13.37-4.53,29.22-3.31S69.15,78.2,68.87,81.25Z"/></g></mask><radialGradient id="Degradado_sin_nombre_153" cx="-7737.05" cy="-4287.42" r="20.39" gradientTransform="matrix(0.98, 0.27, -1.01, 0.11, 3268.93, 2647)" gradientUnits="userSpaceOnUse"><stop offset="0" stop-color="#3c3c3b"/><stop offset="1" stop-color="#fff" stop-opacity="0"/></radialGradient><filter id="luminosity-noclip-4" x="0.55" y="73.08" width="57.46" height="11.9" filterUnits="userSpaceOnUse" color-interpolation-filters="sRGB"><feFlood flood-color="#fff" result="bg"/><feBlend in="SourceGraphic" in2="bg"/></filter><mask id="mask-4" x="0.55" y="73.08" width="57.46" height="11.9" maskUnits="userSpaceOnUse"><g class="cls-3"><path class="cls-4" d="M.55,81.25c.27,3,13.36,4.53,29.22,3.3S58.28,79.87,58,76.82s-13.37-4.53-29.22-3.31S.27,78.2.55,81.25Z"/></g></mask><radialGradient id="Degradado_sin_nombre_151" cx="-7423.58" cy="-5021.02" r="20.39" gradientTransform="matrix(-0.98, 0.27, 1.01, 0.11, -2149.05, 2647)" gradientUnits="userSpaceOnUse"><stop offset="0" stop-color="#3c3c3b"/><stop offset="0" stop-color="#3d3d3c"/><stop offset="1" stop-color="#fff" stop-opacity="0"/></radialGradient><linearGradient id="Degradado_sin_nombre_44" x1="34.88" y1="80.69" x2="34.88" y2="12.11" gradientTransform="translate(20.72 -9.89) rotate(22.82)" gradientUnits="userSpaceOnUse"><stop offset="0" stop-color="#932a6d"/><stop offset="1" stop-color="#fc016a"/></linearGradient></defs><g class="cls-5"><g id="Capa_1" data-name="Capa 1"><path class="cls-6" d="M58.9,13.31a.91.91,0,0,1-.51-1.18l4.68-10.3a.9.9,0,0,1,1.68.67L60.08,12.8A.91.91,0,0,1,58.9,13.31Z"/><path class="cls-6" d="M65.76,17.86a.87.87,0,0,1-.31-.2.92.92,0,0,1,0-1.29l7.81-7.82a.91.91,0,0,1,1.29,1.28l-7.81,7.83A.92.92,0,0,1,65.76,17.86Z"/><path class="cls-6" d="M71.09,24.73a.87.87,0,0,1-.5-.48.9.9,0,0,1,.47-1.19l9.16-4.17a.91.91,0,0,1,.72,1.67l-9.16,4.16A.87.87,0,0,1,71.09,24.73Z"/><path class="cls-6" d="M72.82,33a.91.91,0,0,1,.32-1.75l10-.17a.91.91,0,0,1,0,1.82l-10,.16A1,1,0,0,1,72.82,33Z"/><circle class="cls-6" cx="76.1" cy="7.1" r="1"/><circle class="cls-6" cx="86.17" cy="31.75" r="1"/><circle class="cls-6" cx="78.55" cy="4.25" r="0.74"/><g class="cls-7"><path class="cls-8" d="M68.87,81.25c-.27,3-13.36,4.53-29.22,3.3s-28.51-4.68-28.23-7.73,13.37-4.53,29.22-3.31S69.15,78.2,68.87,81.25Z"/></g><g class="cls-9"><path class="cls-10" d="M.55,81.25c.27,3,13.36,4.53,29.22,3.3S58.28,79.87,58,76.82s-13.37-4.53-29.22-3.31S.27,78.2.55,81.25Z"/></g><circle class="cls-11" cx="34.88" cy="46.4" r="34.29" transform="translate(-15.26 17.16) rotate(-22.82)"/><path class="cls-12" d="M45.69,19.33S61.61,24.2,64.27,43"/><path class="cls-13" d="M34.67,62.71A17.6,17.6,0,1,1,42.36,61,17.44,17.44,0,0,1,34.67,62.71Zm0-34.68A17.07,17.07,0,1,0,51.73,45.1,17.09,17.09,0,0,0,34.67,28Z"/><path class="cls-14" d="M27.62,52.45a2.38,2.38,0,0,0,1.6.28c.83-.13,1.2-.75,2-2.27a42.64,42.64,0,0,1,6.62-8.24c1.91-1.87,4.49-3.7,4.22-4.17-.54-.94-.58-1.64-2.2-1.37s-4,3-6.34,5.41C31,44.81,26.69,50.31,27,51A1.1,1.1,0,0,0,27.62,52.45Z"/><path class="cls-14" d="M29.66,35.73a2.52,2.52,0,0,1,1.65.16C32.39,36.3,32.5,38,33.5,40a25.83,25.83,0,0,0,4.89,6.68c1.26,1.36,3.6,3.18,4.06,3.89.3.46-.6,2.3-2,2.12-1.63-.22-5.93-5.52-8-8.17-2.29-2.94-4.45-7.06-4.08-7.73A1.66,1.66,0,0,1,29.66,35.73Z"/></g></g></svg>